{
  "track_name": "02 - Scenario",
  "duration_sec": 36.266,
  "sample_rate": 44100,
  "note_count": 469,
  "unique_pitches": 34,
  "pitch_range": 63,
  "avg_note_duration": 0.0416,
  "reconstruction_stats": {
    "notes_reconstructed": 469,
    "keyon_events": 469,
    "keyoff_events": 469,
    "orphan_keyons": 0,
    "unique_pitches": 34,
    "pitch_range": 63,
    "avg_duration_sec": 0.0416
  },
  "metadata": {
    "source": "T\\The Hybrid Front\\02 - Scenario.vgz"
  },
  "notes": [
    {
      "channel": 1,
      "note": 66,
      "start": 0.0,
      "duration": 0.0157,
      "velocity": 104,
      "chip": "ym2612"
    },
    {
      "channel": 1,
      "note": 65,
      "start": 0.0162,
      "duration": 0.0162,
      "velocity": 104,
      "chip": "ym2612"
    },
    {
      "channel": 1,
      "note": 63,
      "start": 0.0329,
      "duration": 0.017,
      "velocity": 104,
      "chip": "ym2612"
    },
    {
      "channel": 1,
      "note": 65,
      "start": 0.0505,
      "duration": 0.0169,
      "velocity": 104,
      "chip": "ym2612"
    },
    {
      "channel": 1,
      "note": 63,
      "start": 0.0679,
      "duration": 0.0158,
      "velocity": 104,
      "chip": "ym2612"
    },
    {
      "channel": 1,
      "note": 60,
      "start": 0.0841,
      "duration": 0.0175,
      "velocity": 104,
      "chip": "ym2612"
    },
    {
      "channel": 1,
      "note": 58,
      "start": 0.1021,
      "duration": 0.0167,
      "velocity": 104,
      "chip": "ym2612"
    },
    {
      "channel": 1,
      "note": 60,
      "start": 0.1193,
      "duration": 0.038,
      "velocity": 104,
      "chip": "ym2612"
    },
    {
      "channel": 2,
      "note": 58,
      "start": 0.1412,
      "duration": 0.0076,
      "velocity": 76,
      "chip": "ym2612"
    },
    {
      "channel": 1,
      "note": 48,
      "start": 0.1579,
      "duration": 0.2183,
      "velocity": 104,
      "chip": "ym2612"
    },
    {
      "channel": 2,
      "note": 60,
      "start": 0.1586,
      "duration": 0.0094,
      "velocity": 76,
      "chip": "ym2612"
    },
    {
      "channel": 2,
      "note": 48,
      "start": 0.2261,
      "duration": 0.0828,
      "velocity": 76,
      "chip": "ym2612"
    },
    {
      "channel": 2,
      "note": 70,
      "start": 0.3771,
      "duration": 0.0184,
      "velocity": 76,
      "chip": "ym2612"
    },
    {
      "channel": 3,
      "note": 67,
      "start": 0.3781,
      "duration": 0.0177,
      "velocity": 76,
      "chip": "ym2612"
    },
    {
      "channel": 2,
      "note": 60,
      "start": 0.4111,
      "duration": 0.0066,
      "velocity": 76,
      "chip": "ym2612"
    },
    {
      "channel": 2,
      "note": 70,
      "start": 0.4654,
      "duration": 0.0661,
      "velocity": 76,
      "chip": "ym2612"
    },
    {
      "channel": 3,
      "note": 65,
      "start": 0.466,
      "duration": 0.0657,
      "velocity": 76,
      "chip": "ym2612"
    },
    {
      "channel": 1,
      "note": 51,
      "start": 0.6158,
      "duration": 0.018,
      "velocity": 104,
      "chip": "ym2612"
    },
    {
      "channel": 2,
      "note": 60,
      "start": 0.6165,
      "duration": 0.0083,
      "velocity": 76,
      "chip": "ym2612"
    },
    {
      "channel": 2,
      "note": 72,
      "start": 0.6346,
      "duration": 0.0104,
      "velocity": 76,
      "chip": "ym2612"
    },
    {
      "channel": 3,
      "note": 67,
      "start": 0.6353,
      "duration": 0.01,
      "velocity": 76,
      "chip": "ym2612"
    },
    {
      "channel": 2,
      "note": 60,
      "start": 0.6518,
      "duration": 0.0084,
      "velocity": 76,
      "chip": "ym2612"
    },
    {
      "channel": 1,
      "note": 53,
      "start": 0.6698,
      "duration": 0.0181,
      "velocity": 104,
      "chip": "ym2612"
    },
    {
      "channel": 2,
      "note": 48,
      "start": 0.6705,
      "duration": 0.01,
      "velocity": 76,
      "chip": "ym2612"
    },
    {
      "channel": 2,
      "note": 70,
      "start": 0.6887,
      "duration": 0.02,
      "velocity": 76,
      "chip": "ym2612"
    },
    {
      "channel": 3,
      "note": 65,
      "start": 0.6894,
      "duration": 0.0196,
      "velocity": 76,
      "chip": "ym2612"
    },
    {
      "channel": 2,
      "note": 69,
      "start": 0.7243,
      "duration": 0.0187,
      "velocity": 76,
      "chip": "ym2612"
    },
    {
      "channel": 3,
      "note": 65,
      "start": 0.725,
      "duration": 0.0187,
      "velocity": 76,
      "chip": "ym2612"
    },
    {
      "channel": 1,
      "note": 58,
      "start": 0.7429,
      "duration": 0.097,
      "velocity": 104,
      "chip": "ym2612"
    },
    {
      "channel": 2,
      "note": 60,
      "start": 0.7435,
      "duration": 0.0123,
      "velocity": 76,
      "chip": "ym2612"
    },
    {
      "channel": 1,
      "note": 60,
      "start": 0.8405,
      "duration": 0.0366,
      "velocity": 104,
      "chip": "ym2612"
    },
    {
      "channel": 2,
      "note": 70,
      "start": 0.8411,
      "duration": 0.012,
      "velocity": 76,
      "chip": "ym2612"
    },
    {
      "channel": 3,
      "note": 65,
      "start": 0.8419,
      "duration": 0.0116,
      "velocity": 76,
      "chip": "ym2612"
    },
    {
      "channel": 2,
      "note": 48,
      "start": 0.8607,
      "duration": 0.0095,
      "velocity": 76,
      "chip": "ym2612"
    },
    {
      "channel": 1,
      "note": 48,
      "start": 0.8776,
      "duration": 0.2363,
      "velocity": 104,
      "chip": "ym2612"
    },
    {
      "channel": 2,
      "note": 69,
      "start": 0.8783,
      "duration": 0.0108,
      "velocity": 76,
      "chip": "ym2612"
    },
    {
      "channel": 3,
      "note": 65,
      "start": 0.879,
      "duration": 0.0105,
      "velocity": 76,
      "chip": "ym2612"
    },
    {
      "channel": 2,
      "note": 70,
      "start": 1.1148,
      "duration": 0.0085,
      "velocity": 76,
      "chip": "ym2612"
    },
    {
      "channel": 3,
      "note": 65,
      "start": 1.1155,
      "duration": 0.0081,
      "velocity": 76,
      "chip": "ym2612"
    },
    {
      "channel": 2,
      "note": 48,
      "start": 1.1315,
      "duration": 0.0067,
      "velocity": 76,
      "chip": "ym2612"
    },
    {
      "channel": 1,
      "note": 48,
      "start": 1.1461,
      "duration": 0.0398,
      "velocity": 104,
      "chip": "ym2612"
    },
    {
      "channel": 2,
      "note": 69,
      "start": 1.1468,
      "duration": 0.0088,
      "velocity": 76,
      "chip": "ym2612"
    },
    {
      "channel": 3,
      "note": 65,
      "start": 1.1476,
      "duration": 0.0084,
      "velocity": 76,
      "chip": "ym2612"
    },
    {
      "channel": 2,
      "note": 60,
      "start": 1.1866,
      "duration": 0.0826,
      "velocity": 76,
      "chip": "ym2612"
    },
    {
      "channel": 1,
      "note": 51,
      "start": 1.3369,
      "duration": 0.0214,
      "velocity": 104,
      "chip": "ym2612"
    },
    {
      "channel": 2,
      "note": 70,
      "start": 1.3376,
      "duration": 0.021,
      "velocity": 76,
      "chip": "ym2612"
    },
    {
      "channel": 3,
      "note": 67,
      "start": 1.3383,
      "duration": 0.0209,
      "velocity": 76,
      "chip": "ym2612"
    },
    {
      "channel": 2,
      "note": 60,
      "start": 1.3591,
      "duration": 0.0092,
      "velocity": 76,
      "chip": "ym2612"
    },
    {
      "channel": 2,
      "note": 67,
      "start": 1.3749,
      "duration": 0.0182,
      "velocity": 76,
      "chip": "ym2612"
    },
    {
      "channel": 1,
      "note": 53,
      "start": 1.393,
      "duration": 0.018,
      "velocity": 104,
      "chip": "ym2612"
    },
    {
      "channel": 2,
      "note": 48,
      "start": 1.3937,
      "duration": 0.0078,
      "velocity": 76,
      "chip": "ym2612"
    },
    {
      "channel": 2,
      "note": 72,
      "start": 1.4122,
      "duration": 0.0159,
      "velocity": 76,
      "chip": "ym2612"
    },
    {
      "channel": 2,
      "note": 60,
      "start": 1.4286,
      "duration": 0.0067,
      "velocity": 76,
      "chip": "ym2612"
    },
    {
      "channel": 1,
      "note": 55,
      "start": 1.4445,
      "duration": 0.0174,
      "velocity": 104,
      "chip": "ym2612"
    },
    {
      "channel": 2,
      "note": 70,
      "start": 1.4452,
      "duration": 0.0102,
      "velocity": 76,
      "chip": "ym2612"
    },
    {
      "channel": 1,
      "note": 58,
      "start": 1.4625,
      "duration": 0.0983,
      "velocity": 104,
      "chip": "ym2612"
    },
    {
      "channel": 2,
      "note": 72,
      "start": 1.4632,
      "duration": 0.0296,
      "velocity": 76,
      "chip": "ym2612"
    },
    {
      "channel": 1,
      "note": 60,
      "start": 1.5615,
      "duration": 0.0368,
      "velocity": 104,
      "chip": "ym2612"
    },
    {
      "channel": 2,
      "note": 79,
      "start": 1.5621,
      "duration": 0.0107,
      "velocity": 76,
      "chip": "ym2612"
    },
    {
      "channel": 2,
      "note": 70,
      "start": 1.5802,
      "duration": 0.0095,
      "velocity": 76,
      "chip": "ym2612"
    },
    {
      "channel": 1,
      "note": 48,
      "start": 1.5988,
      "duration": 0.2356,
      "velocity": 104,
      "chip": "ym2612"
    },
    {
      "channel": 2,
      "note": 48,
      "start": 1.5995,
      "duration": 0.0075,
      "velocity": 76,
      "chip": "ym2612"
    },
    {
      "channel": 2,
      "note": 66,
      "start": 1.6845,
      "duration": 0.1681,
      "velocity": 76,
      "chip": "ym2612"
    },
    {
      "channel": 3,
      "note": 65,
      "start": 1.6852,
      "duration": 0.1681,
      "velocity": 76,
      "chip": "ym2612"
    },
    {
      "channel": 2,
      "note": 63,
      "start": 1.8532,
      "duration": 0.0086,
      "velocity": 76,
      "chip": "ym2612"
    },
    {
      "channel": 2,
      "note": 65,
      "start": 1.8683,
      "duration": 0.0083,
      "velocity": 76,
      "chip": "ym2612"
    },
    {
      "channel": 2,
      "note": 58,
      "start": 1.9071,
      "duration": 0.0827,
      "velocity": 76,
      "chip": "ym2612"
    },
    {
      "channel": 1,
      "note": 51,
      "start": 2.0575,
      "duration": 0.0199,
      "velocity": 104,
      "chip": "ym2612"
    },
    {
      "channel": 2,
      "note": 60,
      "start": 2.0582,
      "duration": 0.0102,
      "velocity": 76,
      "chip": "ym2612"
    },
    {
      "channel": 2,
      "note": 60,
      "start": 2.092,
      "duration": 0.0067,
      "velocity": 76,
      "chip": "ym2612"
    },
    {
      "channel": 1,
      "note": 53,
      "start": 2.1099,
      "duration": 0.0181,
      "velocity": 104,
      "chip": "ym2612"
    },
    {
      "channel": 2,
      "note": 72,
      "start": 2.1106,
      "duration": 0.008,
      "velocity": 76,
      "chip": "ym2612"
    },
    {
      "channel": 2,
      "note": 75,
      "start": 2.1288,
      "duration": 0.0089,
      "velocity": 76,
      "chip": "ym2612"
    },
    {
      "channel": 2,
      "note": 77,
      "start": 2.1442,
      "duration": 0.0083,
      "velocity": 76,
      "chip": "ym2612"
    },
    {
      "channel": 2,
      "note": 78,
      "start": 2.1598,
      "duration": 0.009,
      "velocity": 76,
      "chip": "ym2612"
    },
    {
      "channel": 1,
      "note": 58,
      "start": 2.175,
      "duration": 0.1168,
      "velocity": 104,
      "chip": "ym2612"
    },
    {
      "channel": 2,
      "note": 79,
      "start": 2.1757,
      "duration": 0.0321,
      "velocity": 76,
      "chip": "ym2612"
    },
    {
      "channel": 1,
      "note": 60,
      "start": 2.2924,
      "duration": 0.0334,
      "velocity": 104,
      "chip": "ym2612"
    },
    {
      "channel": 2,
      "note": 58,
      "start": 2.3097,
      "duration": 0.0076,
      "velocity": 76,
      "chip": "ym2612"
    },
    {
      "channel": 1,
      "note": 48,
      "start": 2.3263,
      "duration": 0.223,
      "velocity": 104,
      "chip": "ym2612"
    },
    {
      "channel": 2,
      "note": 60,
      "start": 2.3271,
      "duration": 0.0074,
      "velocity": 76,
      "chip": "ym2612"
    },
    {
      "channel": 2,
      "note": 48,
      "start": 2.3993,
      "duration": 0.0828,
      "velocity": 76,
      "chip": "ym2612"
    },
    {
      "channel": 2,
      "note": 70,
      "start": 2.5502,
      "duration": 0.018,
      "velocity": 76,
      "chip": "ym2612"
    },
    {
      "channel": 3,
      "note": 67,
      "start": 2.5509,
      "duration": 0.0176,
      "velocity": 76,
      "chip": "ym2612"
    },
    {
      "channel": 1,
      "note": 48,
      "start": 2.5822,
      "duration": 0.0557,
      "velocity": 104,
      "chip": "ym2612"
    },
    {
      "channel": 2,
      "note": 60,
      "start": 2.5829,
      "duration": 0.0095,
      "velocity": 76,
      "chip": "ym2612"
    },
    {
      "channel": 2,
      "note": 70,
      "start": 2.6387,
      "duration": 0.0659,
      "velocity": 76,
      "chip": "ym2612"
    },
    {
      "channel": 3,
      "note": 65,
      "start": 2.6395,
      "duration": 0.0654,
      "velocity": 76,
      "chip": "ym2612"
    },
    {
      "channel": 1,
      "note": 51,
      "start": 2.789,
      "duration": 0.018,
      "velocity": 104,
      "chip": "ym2612"
    },
    {
      "channel": 2,
      "note": 60,
      "start": 2.7897,
      "duration": 0.0083,
      "velocity": 76,
      "chip": "ym2612"
    },
    {
      "channel": 2,
      "note": 72,
      "start": 2.8078,
      "duration": 0.0084,
      "velocity": 76,
      "chip": "ym2612"
    },
    {
      "channel": 3,
      "note": 67,
      "start": 2.8085,
      "duration": 0.008,
      "velocity": 76,
      "chip": "ym2612"
    },
    {
      "channel": 2,
      "note": 60,
      "start": 2.8246,
      "duration": 0.0083,
      "velocity": 76,
      "chip": "ym2612"
    },
    {
      "channel": 1,
      "note": 53,
      "start": 2.84,
      "duration": 0.0179,
      "velocity": 104,
      "chip": "ym2612"
    },
    {
      "channel": 2,
      "note": 48,
      "start": 2.8407,
      "duration": 0.0098,
      "velocity": 76,
      "chip": "ym2612"
    },
    {
      "channel": 2,
      "note": 70,
      "start": 2.8588,
      "duration": 0.0181,
      "velocity": 76,
      "chip": "ym2612"
    },
    {
      "channel": 3,
      "note": 65,
      "start": 2.8595,
      "duration": 0.0177,
      "velocity": 76,
      "chip": "ym2612"
    },
    {
      "channel": 1,
      "note": 55,
      "start": 2.893,
      "duration": 0.02,
      "velocity": 104,
      "chip": "ym2612"
    },
    {
      "channel": 2,
      "note": 69,
      "start": 2.8937,
      "duration": 0.02,
      "velocity": 76,
      "chip": "ym2612"
    },
    {
      "channel": 3,
      "note": 65,
      "start": 2.8944,
      "duration": 0.02,
      "velocity": 76,
      "chip": "ym2612"
    },
    {
      "channel": 1,
      "note": 58,
      "start": 2.9136,
      "duration": 0.0978,
      "velocity": 104,
      "chip": "ym2612"
    },
    {
      "channel": 2,
      "note": 60,
      "start": 2.9142,
      "duration": 0.0099,
      "velocity": 76,
      "chip": "ym2612"
    },
    {
      "channel": 1,
      "note": 60,
      "start": 3.012,
      "duration": 0.034,
      "velocity": 104,
      "chip": "ym2612"
    },
    {
      "channel": 2,
      "note": 60,
      "start": 3.0132,
      "duration": 0.0089,
      "velocity": 76,
      "chip": "ym2612"
    },
    {
      "channel": 1,
      "note": 48,
      "start": 3.0466,
      "duration": 0.2198,
      "velocity": 104,
      "chip": "ym2612"
    },
    {
      "channel": 2,
      "note": 48,
      "start": 3.0476,
      "duration": 0.2195,
      "velocity": 76,
      "chip": "ym2612"
    },
    {
      "channel": 0,
      "note": 101,
      "start": 3.1154,
      "duration": 0.0827,
      "velocity": 104,
      "chip": "ym2612"
    },
    {
      "channel": 0,
      "note": 102,
      "start": 3.1988,
      "duration": 0.0665,
      "velocity": 104,
      "chip": "ym2612"
    },
    {
      "channel": 0,
      "note": 103,
      "start": 3.266,
      "duration": 0.0134,
      "velocity": 104,
      "chip": "ym2612"
    },
    {
      "channel": 2,
      "note": 70,
      "start": 3.2677,
      "duration": 0.012,
      "velocity": 76,
      "chip": "ym2612"
    },
    {
      "channel": 3,
      "note": 67,
      "start": 3.2688,
      "duration": 0.0113,
      "velocity": 76,
      "chip": "ym2612"
    },
    {
      "channel": 2,
      "note": 75,
      "start": 3.288,
      "duration": 0.0093,
      "velocity": 76,
      "chip": "ym2612"
    },
    {
      "channel": 3,
      "note": 72,
      "start": 3.2887,
      "duration": 0.0089,
      "velocity": 76,
      "chip": "ym2612"
    },
    {
      "channel": 4,
      "note": 101,
      "start": 3.2894,
      "duration": 0.0085,
      "velocity": 104,
      "chip": "ym2612"
    },
    {
      "channel": 4,
      "note": 102,
      "start": 3.2985,
      "duration": 0.0096,
      "velocity": 104,
      "chip": "ym2612"
    },
    {
      "channel": 0,
      "note": 101,
      "start": 3.3071,
      "duration": 0.0092,
      "velocity": 104,
      "chip": "ym2612"
    },
    {
      "channel": 2,
      "note": 60,
      "start": 3.3078,
      "duration": 0.0088,
      "velocity": 76,
      "chip": "ym2612"
    },
    {
      "channel": 4,
      "note": 103,
      "start": 3.3087,
      "duration": 0.0084,
      "velocity": 104,
      "chip": "ym2612"
    },
    {
      "channel": 2,
      "note": 48,
      "start": 3.3551,
      "duration": 0.0661,
      "velocity": 76,
      "chip": "ym2612"
    },
    {
      "channel": 0,
      "note": 99,
      "start": 3.5056,
      "duration": 0.0445,
      "velocity": 104,
      "chip": "ym2612"
    },
    {
      "channel": 1,
      "note": 51,
      "start": 3.5062,
      "duration": 0.0227,
      "velocity": 104,
      "chip": "ym2612"
    },
    {
      "channel": 2,
      "note": 60,
      "start": 3.5073,
      "duration": 0.0129,
      "velocity": 76,
      "chip": "ym2612"
    },
    {
      "channel": 4,
      "note": 101,
      "start": 3.5081,
      "duration": 0.0126,
      "velocity": 104,
      "chip": "ym2612"
    },
    {
      "channel": 2,
      "note": 70,
      "start": 3.5302,
      "duration": 0.0421,
      "velocity": 76,
      "chip": "ym2612"
    },
    {
      "channel": 3,
      "note": 65,
      "start": 3.5309,
      "duration": 0.042,
      "velocity": 76,
      "chip": "ym2612"
    },
    {
      "channel": 4,
      "note": 99,
      "start": 3.5517,
      "duration": 0.0453,
      "velocity": 104,
      "chip": "ym2612"
    },
    {
      "channel": 0,
      "note": 101,
      "start": 3.5715,
      "duration": 0.0132,
      "velocity": 104,
      "chip": "ym2612"
    },
    {
      "channel": 1,
      "note": 53,
      "start": 3.5721,
      "duration": 0.0232,
      "velocity": 104,
      "chip": "ym2612"
    },
    {
      "channel": 2,
      "note": 48,
      "start": 3.5728,
      "duration": 0.0125,
      "velocity": 76,
      "chip": "ym2612"
    },
    {
      "channel": 2,
      "note": 72,
      "start": 3.5961,
      "duration": 0.0087,
      "velocity": 76,
      "chip": "ym2612"
    },
    {
      "channel": 3,
      "note": 67,
      "start": 3.5968,
      "duration": 0.0083,
      "velocity": 76,
      "chip": "ym2612"
    },
    {
      "channel": 2,
      "note": 60,
      "start": 3.6131,
      "duration": 0.008,
      "velocity": 76,
      "chip": "ym2612"
    },
    {
      "channel": 4,
      "note": 101,
      "start": 3.6139,
      "duration": 0.0076,
      "velocity": 104,
      "chip": "ym2612"
    },
    {
      "channel": 2,
      "note": 48,
      "start": 3.6299,
      "duration": 0.007,
      "velocity": 76,
      "chip": "ym2612"
    },
    {
      "channel": 1,
      "note": 58,
      "start": 3.6446,
      "duration": 0.1003,
      "velocity": 104,
      "chip": "ym2612"
    },
    {
      "channel": 2,
      "note": 75,
      "start": 3.6453,
      "duration": 0.0323,
      "velocity": 76,
      "chip": "ym2612"
    },
    {
      "channel": 3,
      "note": 72,
      "start": 3.646,
      "duration": 0.0319,
      "velocity": 76,
      "chip": "ym2612"
    },
    {
      "channel": 1,
      "note": 60,
      "start": 3.7455,
      "duration": 0.0391,
      "velocity": 104,
      "chip": "ym2612"
    },
    {
      "channel": 2,
      "note": 60,
      "start": 3.7462,
      "duration": 0.0103,
      "velocity": 76,
      "chip": "ym2612"
    },
    {
      "channel": 0,
      "note": 103,
      "start": 3.7635,
      "duration": 0.0126,
      "velocity": 104,
      "chip": "ym2612"
    },
    {
      "channel": 2,
      "note": 72,
      "start": 3.7646,
      "duration": 0.0122,
      "velocity": 76,
      "chip": "ym2612"
    },
    {
      "channel": 3,
      "note": 67,
      "start": 3.7653,
      "duration": 0.0118,
      "velocity": 76,
      "chip": "ym2612"
    },
    {
      "channel": 0,
      "note": 103,
      "start": 3.7841,
      "duration": 0.0123,
      "velocity": 104,
      "chip": "ym2612"
    },
    {
      "channel": 1,
      "note": 48,
      "start": 3.7851,
      "duration": 0.2347,
      "velocity": 104,
      "chip": "ym2612"
    },
    {
      "channel": 2,
      "note": 48,
      "start": 3.7862,
      "duration": 0.2344,
      "velocity": 76,
      "chip": "ym2612"
    },
    {
      "channel": 4,
      "note": 103,
      "start": 3.8695,
      "duration": 0.0661,
      "velocity": 104,
      "chip": "ym2612"
    },
    {
      "channel": 0,
      "note": 101,
      "start": 4.0194,
      "duration": 0.012,
      "velocity": 104,
      "chip": "ym2612"
    },
    {
      "channel": 2,
      "note": 70,
      "start": 4.021,
      "duration": 0.0108,
      "velocity": 76,
      "chip": "ym2612"
    },
    {
      "channel": 3,
      "note": 65,
      "start": 4.0218,
      "duration": 0.0103,
      "velocity": 76,
      "chip": "ym2612"
    },
    {
      "channel": 4,
      "note": 103,
      "start": 4.0225,
      "duration": 0.0099,
      "velocity": 104,
      "chip": "ym2612"
    },
    {
      "channel": 0,
      "note": 101,
      "start": 4.0532,
      "duration": 0.0129,
      "velocity": 104,
      "chip": "ym2612"
    },
    {
      "channel": 1,
      "note": 48,
      "start": 4.0539,
      "duration": 0.0369,
      "velocity": 104,
      "chip": "ym2612"
    },
    {
      "channel": 2,
      "note": 60,
      "start": 4.0546,
      "duration": 0.012,
      "velocity": 76,
      "chip": "ym2612"
    },
    {
      "channel": 4,
      "note": 101,
      "start": 4.0553,
      "duration": 0.0117,
      "velocity": 104,
      "chip": "ym2612"
    },
    {
      "channel": 2,
      "note": 72,
      "start": 4.0916,
      "duration": 0.0826,
      "velocity": 76,
      "chip": "ym2612"
    },
    {
      "channel": 3,
      "note": 67,
      "start": 4.0924,
      "duration": 0.0821,
      "velocity": 76,
      "chip": "ym2612"
    },
    {
      "channel": 0,
      "note": 99,
      "start": 4.2419,
      "duration": 0.0469,
      "velocity": 104,
      "chip": "ym2612"
    },
    {
      "channel": 1,
      "note": 51,
      "start": 4.2426,
      "duration": 0.0227,
      "velocity": 104,
      "chip": "ym2612"
    },
    {
      "channel": 2,
      "note": 60,
      "start": 4.2433,
      "duration": 0.0131,
      "velocity": 76,
      "chip": "ym2612"
    },
    {
      "channel": 4,
      "note": 101,
      "start": 4.2441,
      "duration": 0.0127,
      "velocity": 104,
      "chip": "ym2612"
    },
    {
      "channel": 2,
      "note": 66,
      "start": 4.2665,
      "duration": 0.0231,
      "velocity": 76,
      "chip": "ym2612"
    },
    {
      "channel": 3,
      "note": 65,
      "start": 4.2676,
      "duration": 0.0227,
      "velocity": 76,
      "chip": "ym2612"
    },
    {
      "channel": 2,
      "note": 60,
      "start": 4.2901,
      "duration": 0.0082,
      "velocity": 76,
      "chip": "ym2612"
    },
    {
      "channel": 4,
      "note": 99,
      "start": 4.2912,
      "duration": 0.0417,
      "velocity": 104,
      "chip": "ym2612"
    },
    {
      "channel": 0,
      "note": 101,
      "start": 4.3107,
      "duration": 0.0106,
      "velocity": 104,
      "chip": "ym2612"
    },
    {
      "channel": 1,
      "note": 53,
      "start": 4.3113,
      "duration": 0.0205,
      "velocity": 104,
      "chip": "ym2612"
    },
    {
      "channel": 2,
      "note": 63,
      "start": 4.312,
      "duration": 0.0099,
      "velocity": 76,
      "chip": "ym2612"
    },
    {
      "channel": 2,
      "note": 65,
      "start": 4.3327,
      "duration": 0.0075,
      "velocity": 76,
      "chip": "ym2612"
    },
    {
      "channel": 2,
      "note": 58,
      "start": 4.3481,
      "duration": 0.0099,
      "velocity": 76,
      "chip": "ym2612"
    },
    {
      "channel": 4,
      "note": 101,
      "start": 4.3489,
      "duration": 0.0095,
      "velocity": 104,
      "chip": "ym2612"
    },
    {
      "channel": 1,
      "note": 55,
      "start": 4.3654,
      "duration": 0.0175,
      "velocity": 104,
      "chip": "ym2612"
    },
    {
      "channel": 2,
      "note": 60,
      "start": 4.3661,
      "duration": 0.0103,
      "velocity": 76,
      "chip": "ym2612"
    },
    {
      "channel": 1,
      "note": 58,
      "start": 4.3835,
      "duration": 0.0984,
      "velocity": 104,
      "chip": "ym2612"
    },
    {
      "channel": 2,
      "note": 58,
      "start": 4.3841,
      "duration": 0.0298,
      "velocity": 76,
      "chip": "ym2612"
    },
    {
      "channel": 1,
      "note": 60,
      "start": 4.4824,
      "duration": 0.0357,
      "velocity": 104,
      "chip": "ym2612"
    },
    {
      "channel": 2,
      "note": 60,
      "start": 4.4836,
      "duration": 0.0105,
      "velocity": 76,
      "chip": "ym2612"
    },
    {
      "channel": 1,
      "note": 48,
      "start": 4.5186,
      "duration": 0.2375,
      "velocity": 104,
      "chip": "ym2612"
    },
    {
      "channel": 2,
      "note": 48,
      "start": 4.5196,
      "duration": 0.2372,
      "velocity": 76,
      "chip": "ym2612"
    },
    {
      "channel": 0,
      "note": 101,
      "start": 4.6051,
      "duration": 0.066,
      "velocity": 104,
      "chip": "ym2612"
    },
    {
      "channel": 0,
      "note": 102,
      "start": 4.6718,
      "duration": 0.0832,
      "velocity": 104,
      "chip": "ym2612"
    },
    {
      "channel": 0,
      "note": 103,
      "start": 4.7557,
      "duration": 0.0134,
      "velocity": 104,
      "chip": "ym2612"
    },
    {
      "channel": 2,
      "note": 70,
      "start": 4.7574,
      "duration": 0.012,
      "velocity": 76,
      "chip": "ym2612"
    },
    {
      "channel": 3,
      "note": 67,
      "start": 4.7585,
      "duration": 0.0113,
      "velocity": 76,
      "chip": "ym2612"
    },
    {
      "channel": 2,
      "note": 75,
      "start": 4.7761,
      "duration": 0.0114,
      "velocity": 76,
      "chip": "ym2612"
    },
    {
      "channel": 3,
      "note": 72,
      "start": 4.7768,
      "duration": 0.011,
      "velocity": 76,
      "chip": "ym2612"
    },
    {
      "channel": 4,
      "note": 101,
      "start": 4.7776,
      "duration": 0.0106,
      "velocity": 104,
      "chip": "ym2612"
    },
    {
      "channel": 4,
      "note": 102,
      "start": 4.7887,
      "duration": 0.0077,
      "velocity": 104,
      "chip": "ym2612"
    },
    {
      "channel": 0,
      "note": 101,
      "start": 4.7955,
      "duration": 0.0114,
      "velocity": 104,
      "chip": "ym2612"
    },
    {
      "channel": 2,
      "note": 60,
      "start": 4.7962,
      "duration": 0.0111,
      "velocity": 76,
      "chip": "ym2612"
    },
    {
      "channel": 4,
      "note": 103,
      "start": 4.7971,
      "duration": 0.0106,
      "velocity": 104,
      "chip": "ym2612"
    },
    {
      "channel": 2,
      "note": 48,
      "start": 4.8279,
      "duration": 0.0827,
      "velocity": 76,
      "chip": "ym2612"
    },
    {
      "channel": 0,
      "note": 99,
      "start": 4.9951,
      "duration": 0.0445,
      "velocity": 104,
      "chip": "ym2612"
    },
    {
      "channel": 1,
      "note": 51,
      "start": 4.9957,
      "duration": 0.0227,
      "velocity": 104,
      "chip": "ym2612"
    },
    {
      "channel": 2,
      "note": 60,
      "start": 4.9968,
      "duration": 0.0105,
      "velocity": 76,
      "chip": "ym2612"
    },
    {
      "channel": 4,
      "note": 101,
      "start": 4.9976,
      "duration": 0.0101,
      "velocity": 104,
      "chip": "ym2612"
    },
    {
      "channel": 2,
      "note": 70,
      "start": 5.0197,
      "duration": 0.0421,
      "velocity": 76,
      "chip": "ym2612"
    },
    {
      "channel": 3,
      "note": 65,
      "start": 5.0204,
      "duration": 0.042,
      "velocity": 76,
      "chip": "ym2612"
    },
    {
      "channel": 4,
      "note": 99,
      "start": 5.0412,
      "duration": 0.0442,
      "velocity": 104,
      "chip": "ym2612"
    },
    {
      "channel": 0,
      "note": 101,
      "start": 5.0609,
      "duration": 0.0132,
      "velocity": 104,
      "chip": "ym2612"
    },
    {
      "channel": 1,
      "note": 53,
      "start": 5.0616,
      "duration": 0.0221,
      "velocity": 104,
      "chip": "ym2612"
    },
    {
      "channel": 2,
      "note": 48,
      "start": 5.0622,
      "duration": 0.0124,
      "velocity": 76,
      "chip": "ym2612"
    },
    {
      "channel": 2,
      "note": 72,
      "start": 5.0846,
      "duration": 0.0106,
      "velocity": 76,
      "chip": "ym2612"
    },
    {
      "channel": 3,
      "note": 67,
      "start": 5.0853,
      "duration": 0.0102,
      "velocity": 76,
      "chip": "ym2612"
    },
    {
      "channel": 2,
      "note": 60,
      "start": 5.102,
      "duration": 0.01,
      "velocity": 76,
      "chip": "ym2612"
    },
    {
      "channel": 4,
      "note": 101,
      "start": 5.1028,
      "duration": 0.0096,
      "velocity": 104,
      "chip": "ym2612"
    },
    {
      "channel": 2,
      "note": 48,
      "start": 5.1194,
      "duration": 0.0091,
      "velocity": 76,
      "chip": "ym2612"
    },
    {
      "channel": 0,
      "note": 103,
      "start": 5.1361,
      "duration": 0.0309,
      "velocity": 104,
      "chip": "ym2612"
    },
    {
      "channel": 1,
      "note": 58,
      "start": 5.1368,
      "duration": 0.1145,
      "velocity": 104,
      "chip": "ym2612"
    },
    {
      "channel": 2,
      "note": 75,
      "start": 5.1376,
      "duration": 0.03,
      "velocity": 76,
      "chip": "ym2612"
    },
    {
      "channel": 3,
      "note": 72,
      "start": 5.1382,
      "duration": 0.0297,
      "velocity": 76,
      "chip": "ym2612"
    },
    {
      "channel": 1,
      "note": 60,
      "start": 5.252,
      "duration": 0.0381,
      "velocity": 104,
      "chip": "ym2612"
    },
    {
      "channel": 2,
      "note": 60,
      "start": 5.2527,
      "duration": 0.0083,
      "velocity": 76,
      "chip": "ym2612"
    },
    {
      "channel": 2,
      "note": 72,
      "start": 5.2701,
      "duration": 0.0102,
      "velocity": 76,
      "chip": "ym2612"
    },
    {
      "channel": 3,
      "note": 67,
      "start": 5.2708,
      "duration": 0.0098,
      "velocity": 76,
      "chip": "ym2612"
    },
    {
      "channel": 4,
      "note": 103,
      "start": 5.2715,
      "duration": 0.0094,
      "velocity": 104,
      "chip": "ym2612"
    },
    {
      "channel": 0,
      "note": 103,
      "start": 5.2895,
      "duration": 0.0123,
      "velocity": 104,
      "chip": "ym2612"
    },
    {
      "channel": 1,
      "note": 48,
      "start": 5.2906,
      "duration": 0.219,
      "velocity": 104,
      "chip": "ym2612"
    },
    {
      "channel": 2,
      "note": 48,
      "start": 5.2916,
      "duration": 0.2187,
      "velocity": 76,
      "chip": "ym2612"
    },
    {
      "channel": 0,
      "note": 101,
      "start": 5.5091,
      "duration": 0.0146,
      "velocity": 104,
      "chip": "ym2612"
    },
    {
      "channel": 2,
      "note": 70,
      "start": 5.5108,
      "duration": 0.0133,
      "velocity": 76,
      "chip": "ym2612"
    },
    {
      "channel": 3,
      "note": 65,
      "start": 5.5116,
      "duration": 0.0129,
      "velocity": 76,
      "chip": "ym2612"
    },
    {
      "channel": 4,
      "note": 103,
      "start": 5.5123,
      "duration": 0.0125,
      "velocity": 104,
      "chip": "ym2612"
    },
    {
      "channel": 0,
      "note": 101,
      "start": 5.5454,
      "duration": 0.0104,
      "velocity": 104,
      "chip": "ym2612"
    },
    {
      "channel": 1,
      "note": 48,
      "start": 5.5461,
      "duration": 0.0512,
      "velocity": 104,
      "chip": "ym2612"
    },
    {
      "channel": 2,
      "note": 60,
      "start": 5.5468,
      "duration": 0.0097,
      "velocity": 76,
      "chip": "ym2612"
    },
    {
      "channel": 4,
      "note": 101,
      "start": 5.5476,
      "duration": 0.0093,
      "velocity": 104,
      "chip": "ym2612"
    },
    {
      "channel": 2,
      "note": 72,
      "start": 5.5981,
      "duration": 0.0659,
      "velocity": 76,
      "chip": "ym2612"
    },
    {
      "channel": 3,
      "note": 67,
      "start": 5.5989,
      "duration": 0.0654,
      "velocity": 76,
      "chip": "ym2612"
    },
    {
      "channel": 0,
      "note": 99,
      "start": 5.7484,
      "duration": 0.0447,
      "velocity": 104,
      "chip": "ym2612"
    },
    {
      "channel": 1,
      "note": 51,
      "start": 5.7491,
      "duration": 0.0227,
      "velocity": 104,
      "chip": "ym2612"
    },
    {
      "channel": 2,
      "note": 60,
      "start": 5.7498,
      "duration": 0.0106,
      "velocity": 76,
      "chip": "ym2612"
    },
    {
      "channel": 4,
      "note": 101,
      "start": 5.7506,
      "duration": 0.0101,
      "velocity": 104,
      "chip": "ym2612"
    },
    {
      "channel": 2,
      "note": 66,
      "start": 5.7729,
      "duration": 0.0209,
      "velocity": 76,
      "chip": "ym2612"
    },
    {
      "channel": 3,
      "note": 65,
      "start": 5.774,
      "duration": 0.0205,
      "velocity": 76,
      "chip": "ym2612"
    },
    {
      "channel": 2,
      "note": 60,
      "start": 5.7944,
      "duration": 0.0101,
      "velocity": 76,
      "chip": "ym2612"
    },
    {
      "channel": 4,
      "note": 99,
      "start": 5.7954,
      "duration": 0.0428,
      "velocity": 104,
      "chip": "ym2612"
    },
    {
      "channel": 0,
      "note": 101,
      "start": 5.8142,
      "duration": 0.0131,
      "velocity": 104,
      "chip": "ym2612"
    },
    {
      "channel": 1,
      "note": 53,
      "start": 5.8149,
      "duration": 0.0223,
      "velocity": 104,
      "chip": "ym2612"
    },
    {
      "channel": 2,
      "note": 63,
      "start": 5.8156,
      "duration": 0.0123,
      "velocity": 76,
      "chip": "ym2612"
    },
    {
      "channel": 2,
      "note": 65,
      "start": 5.838,
      "duration": 0.0092,
      "velocity": 76,
      "chip": "ym2612"
    },
    {
      "channel": 2,
      "note": 58,
      "start": 5.8552,
      "duration": 0.0088,
      "velocity": 76,
      "chip": "ym2612"
    },
    {
      "channel": 4,
      "note": 101,
      "start": 5.856,
      "duration": 0.0084,
      "velocity": 104,
      "chip": "ym2612"
    },
    {
      "channel": 0,
      "note": 106,
      "start": 5.8638,
      "duration": 0.0093,
      "velocity": 104,
      "chip": "ym2612"
    },
    {
      "channel": 0,
      "note": 107,
      "start": 5.8737,
      "duration": 0.01,
      "velocity": 104,
      "chip": "ym2612"
    },
    {
      "channel": 1,
      "note": 55,
      "start": 5.8743,
      "duration": 0.0203,
      "velocity": 104,
      "chip": "ym2612"
    },
    {
      "channel": 2,
      "note": 60,
      "start": 5.875,
      "duration": 0.0097,
      "velocity": 76,
      "chip": "ym2612"
    },
    {
      "channel": 0,
      "note": 108,
      "start": 5.8843,
      "duration": 0.0095,
      "velocity": 104,
      "chip": "ym2612"
    },
    {
      "channel": 0,
      "note": 111,
      "start": 5.8945,
      "duration": 0.095,
      "velocity": 104,
      "chip": "ym2612"
    },
    {
      "channel": 1,
      "note": 58,
      "start": 5.8951,
      "duration": 0.0958,
      "velocity": 104,
      "chip": "ym2612"
    },
    {
      "channel": 2,
      "note": 58,
      "start": 5.8958,
      "duration": 0.0097,
      "velocity": 76,
      "chip": "ym2612"
    },
    {
      "channel": 4,
      "note": 106,
      "start": 5.9065,
      "duration": 0.0862,
      "velocity": 104,
      "chip": "ym2612"
    },
    {
      "channel": 0,
      "note": 108,
      "start": 5.9902,
      "duration": 0.7472,
      "velocity": 104,
      "chip": "ym2612"
    },
    {
      "channel": 1,
      "note": 65,
      "start": 5.9915,
      "duration": 0.0436,
      "velocity": 104,
      "chip": "ym2612"
    },
    {
      "channel": 4,
      "note": 107,
      "start": 5.9932,
      "duration": 0.0113,
      "velocity": 104,
      "chip": "ym2612"
    },
    {
      "channel": 4,
      "note": 108,
      "start": 6.0051,
      "duration": 0.0093,
      "velocity": 104,
      "chip": "ym2612"
    },
    {
      "channel": 2,
      "note": 58,
      "start": 6.0142,
      "duration": 0.0123,
      "velocity": 76,
      "chip": "ym2612"
    },
    {
      "channel": 4,
      "note": 111,
      "start": 6.015,
      "duration": 0.0222,
      "velocity": 104,
      "chip": "ym2612"
    },
    {
      "channel": 1,
      "note": 53,
      "start": 6.0357,
      "duration": 0.2282,
      "velocity": 104,
      "chip": "ym2612"
    },
    {
      "channel": 2,
      "note": 60,
      "start": 6.0364,
      "duration": 0.0128,
      "velocity": 76,
      "chip": "ym2612"
    },
    {
      "channel": 4,
      "note": 108,
      "start": 6.0378,
      "duration": 0.7449,
      "velocity": 104,
      "chip": "ym2612"
    },
    {
      "channel": 2,
      "note": 48,
      "start": 6.0971,
      "duration": 0.0828,
      "velocity": 76,
      "chip": "ym2612"
    },
    {
      "channel": 2,
      "note": 70,
      "start": 6.2647,
      "duration": 0.0226,
      "velocity": 76,
      "chip": "ym2612"
    },
    {
      "channel": 3,
      "note": 67,
      "start": 6.2659,
      "duration": 0.0218,
      "velocity": 76,
      "chip": "ym2612"
    },
    {
      "channel": 2,
      "note": 60,
      "start": 6.3058,
      "duration": 0.0084,
      "velocity": 76,
      "chip": "ym2612"
    },
    {
      "channel": 2,
      "note": 70,
      "start": 6.3366,
      "duration": 0.0828,
      "velocity": 76,
      "chip": "ym2612"
    },
    {
      "channel": 3,
      "note": 65,
      "start": 6.3373,
      "duration": 0.0824,
      "velocity": 76,
      "chip": "ym2612"
    },
    {
      "channel": 1,
      "note": 57,
      "start": 6.487,
      "duration": 0.0231,
      "velocity": 104,
      "chip": "ym2612"
    },
    {
      "channel": 2,
      "note": 60,
      "start": 6.4877,
      "duration": 0.013,
      "velocity": 76,
      "chip": "ym2612"
    },
    {
      "channel": 2,
      "note": 72,
      "start": 6.5111,
      "duration": 0.0131,
      "velocity": 76,
      "chip": "ym2612"
    },
    {
      "channel": 3,
      "note": 67,
      "start": 6.5118,
      "duration": 0.0127,
      "velocity": 76,
      "chip": "ym2612"
    },
    {
      "channel": 2,
      "note": 60,
      "start": 6.5333,
      "duration": 0.0111,
      "velocity": 76,
      "chip": "ym2612"
    },
    {
      "channel": 1,
      "note": 58,
      "start": 6.5559,
      "duration": 0.0228,
      "velocity": 104,
      "chip": "ym2612"
    },
    {
      "channel": 2,
      "note": 48,
      "start": 6.5565,
      "duration": 0.0103,
      "velocity": 76,
      "chip": "ym2612"
    },
    {
      "channel": 2,
      "note": 70,
      "start": 6.5795,
      "duration": 0.023,
      "velocity": 76,
      "chip": "ym2612"
    },
    {
      "channel": 3,
      "note": 65,
      "start": 6.5802,
      "duration": 0.0226,
      "velocity": 76,
      "chip": "ym2612"
    },
    {
      "channel": 2,
      "note": 69,
      "start": 6.6224,
      "duration": 0.0238,
      "velocity": 76,
      "chip": "ym2612"
    },
    {
      "channel": 3,
      "note": 65,
      "start": 6.6232,
      "duration": 0.0238,
      "velocity": 76,
      "chip": "ym2612"
    },
    {
      "channel": 1,
      "note": 63,
      "start": 6.6461,
      "duration": 0.0917,
      "velocity": 104,
      "chip": "ym2612"
    },
    {
      "channel": 2,
      "note": 60,
      "start": 6.6468,
      "duration": 0.024,
      "velocity": 76,
      "chip": "ym2612"
    },
    {
      "channel": 1,
      "note": 65,
      "start": 6.7383,
      "duration": 0.0423,
      "velocity": 104,
      "chip": "ym2612"
    },
    {
      "channel": 2,
      "note": 70,
      "start": 6.739,
      "duration": 0.0127,
      "velocity": 76,
      "chip": "ym2612"
    },
    {
      "channel": 3,
      "note": 65,
      "start": 6.7397,
      "duration": 0.0123,
      "velocity": 76,
      "chip": "ym2612"
    },
    {
      "channel": 2,
      "note": 48,
      "start": 6.7602,
      "duration": 0.0107,
      "velocity": 76,
      "chip": "ym2612"
    },
    {
      "channel": 1,
      "note": 53,
      "start": 6.7811,
      "duration": 0.2315,
      "velocity": 104,
      "chip": "ym2612"
    },
    {
      "channel": 2,
      "note": 69,
      "start": 6.7818,
      "duration": 0.009,
      "velocity": 76,
      "chip": "ym2612"
    },
    {
      "channel": 3,
      "note": 65,
      "start": 6.7825,
      "duration": 0.0086,
      "velocity": 76,
      "chip": "ym2612"
    },
    {
      "channel": 0,
      "note": 106,
      "start": 7.0121,
      "duration": 0.0192,
      "velocity": 104,
      "chip": "ym2612"
    },
    {
      "channel": 2,
      "note": 70,
      "start": 7.0135,
      "duration": 0.0094,
      "velocity": 76,
      "chip": "ym2612"
    },
    {
      "channel": 3,
      "note": 65,
      "start": 7.0142,
      "duration": 0.009,
      "velocity": 76,
      "chip": "ym2612"
    },
    {
      "channel": 2,
      "note": 48,
      "start": 7.0322,
      "duration": 0.0083,
      "velocity": 76,
      "chip": "ym2612"
    },
    {
      "channel": 1,
      "note": 53,
      "start": 7.047,
      "duration": 0.0368,
      "velocity": 104,
      "chip": "ym2612"
    },
    {
      "channel": 2,
      "note": 69,
      "start": 7.0477,
      "duration": 0.0125,
      "velocity": 76,
      "chip": "ym2612"
    },
    {
      "channel": 3,
      "note": 65,
      "start": 7.0484,
      "duration": 0.0121,
      "velocity": 76,
      "chip": "ym2612"
    },
    {
      "channel": 4,
      "note": 106,
      "start": 7.0491,
      "duration": 0.0357,
      "velocity": 104,
      "chip": "ym2612"
    },
    {
      "channel": 2,
      "note": 60,
      "start": 7.0846,
      "duration": 0.0826,
      "velocity": 76,
      "chip": "ym2612"
    },
    {
      "channel": 1,
      "note": 57,
      "start": 7.2348,
      "duration": 0.0241,
      "velocity": 104,
      "chip": "ym2612"
    },
    {
      "channel": 2,
      "note": 70,
      "start": 7.2355,
      "duration": 0.0238,
      "velocity": 76,
      "chip": "ym2612"
    },
    {
      "channel": 3,
      "note": 67,
      "start": 7.2362,
      "duration": 0.0237,
      "velocity": 76,
      "chip": "ym2612"
    },
    {
      "channel": 2,
      "note": 60,
      "start": 7.2598,
      "duration": 0.0075,
      "velocity": 76,
      "chip": "ym2612"
    },
    {
      "channel": 2,
      "note": 67,
      "start": 7.2755,
      "duration": 0.0163,
      "velocity": 76,
      "chip": "ym2612"
    },
    {
      "channel": 1,
      "note": 58,
      "start": 7.2917,
      "duration": 0.0188,
      "velocity": 104,
      "chip": "ym2612"
    },
    {
      "channel": 2,
      "note": 48,
      "start": 7.2924,
      "duration": 0.008,
      "velocity": 76,
      "chip": "ym2612"
    },
    {
      "channel": 0,
      "note": 101,
      "start": 7.3104,
      "duration": 0.0186,
      "velocity": 104,
      "chip": "ym2612"
    },
    {
      "channel": 2,
      "note": 72,
      "start": 7.3117,
      "duration": 0.0185,
      "velocity": 76,
      "chip": "ym2612"
    },
    {
      "channel": 0,
      "note": 102,
      "start": 7.3296,
      "duration": 0.018,
      "velocity": 104,
      "chip": "ym2612"
    },
    {
      "channel": 2,
      "note": 60,
      "start": 7.3307,
      "duration": 0.0097,
      "velocity": 76,
      "chip": "ym2612"
    },
    {
      "channel": 0,
      "note": 103,
      "start": 7.3482,
      "duration": 0.0223,
      "velocity": 104,
      "chip": "ym2612"
    },
    {
      "channel": 1,
      "note": 60,
      "start": 7.3489,
      "duration": 0.0224,
      "velocity": 104,
      "chip": "ym2612"
    },
    {
      "channel": 2,
      "note": 70,
      "start": 7.3496,
      "duration": 0.013,
      "velocity": 76,
      "chip": "ym2612"
    },
    {
      "channel": 4,
      "note": 101,
      "start": 7.3504,
      "duration": 0.0224,
      "velocity": 104,
      "chip": "ym2612"
    },
    {
      "channel": 0,
      "note": 106,
      "start": 7.3712,
      "duration": 0.109,
      "velocity": 104,
      "chip": "ym2612"
    },
    {
      "channel": 1,
      "note": 63,
      "start": 7.3719,
      "duration": 0.1097,
      "velocity": 104,
      "chip": "ym2612"
    },
    {
      "channel": 2,
      "note": 72,
      "start": 7.3726,
      "duration": 0.0241,
      "velocity": 76,
      "chip": "ym2612"
    },
    {
      "channel": 4,
      "note": 102,
      "start": 7.3734,
      "duration": 0.11,
      "velocity": 104,
      "chip": "ym2612"
    },
    {
      "channel": 0,
      "note": 103,
      "start": 7.4808,
      "duration": 0.0229,
      "velocity": 104,
      "chip": "ym2612"
    },
    {
      "channel": 1,
      "note": 60,
      "start": 7.4821,
      "duration": 0.044,
      "velocity": 104,
      "chip": "ym2612"
    },
    {
      "channel": 2,
      "note": 79,
      "start": 7.4828,
      "duration": 0.0107,
      "velocity": 76,
      "chip": "ym2612"
    },
    {
      "channel": 4,
      "note": 103,
      "start": 7.4839,
      "duration": 0.0218,
      "velocity": 104,
      "chip": "ym2612"
    },
    {
      "channel": 0,
      "note": 99,
      "start": 7.5045,
      "duration": 0.021,
      "velocity": 104,
      "chip": "ym2612"
    },
    {
      "channel": 2,
      "note": 70,
      "start": 7.5054,
      "duration": 0.0098,
      "velocity": 76,
      "chip": "ym2612"
    },
    {
      "channel": 4,
      "note": 106,
      "start": 7.5063,
      "duration": 0.0214,
      "velocity": 104,
      "chip": "ym2612"
    },
    {
      "channel": 1,
      "note": 48,
      "start": 7.5267,
      "duration": 0.2118,
      "velocity": 104,
      "chip": "ym2612"
    },
    {
      "channel": 2,
      "note": 48,
      "start": 7.5274,
      "duration": 0.0088,
      "velocity": 76,
      "chip": "ym2612"
    },
    {
      "channel": 4,
      "note": 103,
      "start": 7.5282,
      "duration": 0.0615,
      "velocity": 104,
      "chip": "ym2612"
    },
    {
      "channel": 0,
      "note": 101,
      "start": 7.5879,
      "duration": 0.1499,
      "velocity": 104,
      "chip": "ym2612"
    },
    {
      "channel": 2,
      "note": 66,
      "start": 7.5888,
      "duration": 0.1687,
      "velocity": 76,
      "chip": "ym2612"
    },
    {
      "channel": 3,
      "note": 65,
      "start": 7.5896,
      "duration": 0.1686,
      "velocity": 76,
      "chip": "ym2612"
    },
    {
      "channel": 4,
      "note": 99,
      "start": 7.5903,
      "duration": 0.149,
      "velocity": 104,
      "chip": "ym2612"
    },
    {
      "channel": 0,
      "note": 102,
      "start": 7.7573,
      "duration": 0.0196,
      "velocity": 104,
      "chip": "ym2612"
    },
    {
      "channel": 2,
      "note": 63,
      "start": 7.7581,
      "duration": 0.0114,
      "velocity": 76,
      "chip": "ym2612"
    },
    {
      "channel": 4,
      "note": 101,
      "start": 7.7591,
      "duration": 0.0194,
      "velocity": 104,
      "chip": "ym2612"
    },
    {
      "channel": 0,
      "note": 103,
      "start": 7.7776,
      "duration": 0.0492,
      "velocity": 104,
      "chip": "ym2612"
    },
    {
      "channel": 2,
      "note": 65,
      "start": 7.7783,
      "duration": 0.0097,
      "velocity": 76,
      "chip": "ym2612"
    },
    {
      "channel": 0,
      "note": 99,
      "start": 7.8274,
      "duration": 0.1499,
      "velocity": 104,
      "chip": "ym2612"
    },
    {
      "channel": 2,
      "note": 58,
      "start": 7.8282,
      "duration": 0.0657,
      "velocity": 76,
      "chip": "ym2612"
    },
    {
      "channel": 4,
      "note": 102,
      "start": 7.829,
      "duration": 0.1506,
      "velocity": 104,
      "chip": "ym2612"
    },
    {
      "channel": 0,
      "note": 94,
      "start": 7.978,
      "duration": 0.0229,
      "velocity": 104,
      "chip": "ym2612"
    },
    {
      "channel": 1,
      "note": 51,
      "start": 7.9786,
      "duration": 0.0231,
      "velocity": 104,
      "chip": "ym2612"
    },
    {
      "channel": 2,
      "note": 60,
      "start": 7.9793,
      "duration": 0.0106,
      "velocity": 76,
      "chip": "ym2612"
    },
    {
      "channel": 4,
      "note": 103,
      "start": 7.9802,
      "duration": 0.022,
      "velocity": 104,
      "chip": "ym2612"
    },
    {
      "channel": 0,
      "note": 96,
      "start": 8.0016,
      "duration": 0.0185,
      "velocity": 104,
      "chip": "ym2612"
    },
    {
      "channel": 4,
      "note": 99,
      "start": 8.0028,
      "duration": 0.0189,
      "velocity": 104,
      "chip": "ym2612"
    },
    {
      "channel": 0,
      "note": 99,
      "start": 8.0208,
      "duration": 0.0223,
      "velocity": 104,
      "chip": "ym2612"
    },
    {
      "channel": 2,
      "note": 60,
      "start": 8.0216,
      "duration": 0.0111,
      "velocity": 76,
      "chip": "ym2612"
    },
    {
      "channel": 4,
      "note": 94,
      "start": 8.0224,
      "duration": 0.023,
      "velocity": 104,
      "chip": "ym2612"
    },
    {
      "channel": 0,
      "note": 96,
      "start": 8.0438,
      "duration": 0.0227,
      "velocity": 104,
      "chip": "ym2612"
    },
    {
      "channel": 1,
      "note": 53,
      "start": 8.0444,
      "duration": 0.0229,
      "velocity": 104,
      "chip": "ym2612"
    },
    {
      "channel": 2,
      "note": 72,
      "start": 8.0451,
      "duration": 0.0128,
      "velocity": 76,
      "chip": "ym2612"
    },
    {
      "channel": 4,
      "note": 96,
      "start": 8.046,
      "duration": 0.0224,
      "velocity": 104,
      "chip": "ym2612"
    },
    {
      "channel": 0,
      "note": 94,
      "start": 8.0672,
      "duration": 0.02,
      "velocity": 104,
      "chip": "ym2612"
    },
    {
      "channel": 2,
      "note": 75,
      "start": 8.0682,
      "duration": 0.0117,
      "velocity": 76,
      "chip": "ym2612"
    },
    {
      "channel": 4,
      "note": 99,
      "start": 8.069,
      "duration": 0.0198,
      "velocity": 104,
      "chip": "ym2612"
    },
    {
      "channel": 0,
      "note": 90,
      "start": 8.0878,
      "duration": 0.0219,
      "velocity": 104,
      "chip": "ym2612"
    },
    {
      "channel": 2,
      "note": 77,
      "start": 8.0886,
      "duration": 0.0112,
      "velocity": 76,
      "chip": "ym2612"
    },
    {
      "channel": 4,
      "note": 96,
      "start": 8.0894,
      "duration": 0.022,
      "velocity": 104,
      "chip": "ym2612"
    },
    {
      "channel": 0,
      "note": 89,
      "start": 8.1104,
      "duration": 0.0196,
      "velocity": 104,
      "chip": "ym2612"
    },
    {
      "channel": 2,
      "note": 78,
      "start": 8.1112,
      "duration": 0.0096,
      "velocity": 76,
      "chip": "ym2612"
    },
    {
      "channel": 4,
      "note": 94,
      "start": 8.112,
      "duration": 0.0203,
      "velocity": 104,
      "chip": "ym2612"
    },
    {
      "channel": 0,
      "note": 87,
      "start": 8.1307,
      "duration": 0.0949,
      "velocity": 104,
      "chip": "ym2612"
    },
    {
      "channel": 1,
      "note": 58,
      "start": 8.1314,
      "duration": 0.095,
      "velocity": 104,
      "chip": "ym2612"
    },
    {
      "channel": 2,
      "note": 79,
      "start": 8.132,
      "duration": 0.0102,
      "velocity": 76,
      "chip": "ym2612"
    },
    {
      "channel": 4,
      "note": 90,
      "start": 8.1328,
      "duration": 0.0949,
      "velocity": 104,
      "chip": "ym2612"
    },
    {
      "channel": 0,
      "note": 91,
      "start": 8.2263,
      "duration": 0.0209,
      "velocity": 104,
      "chip": "ym2612"
    },
    {
      "channel": 1,
      "note": 60,
      "start": 8.2269,
      "duration": 0.0433,
      "velocity": 104,
      "chip": "ym2612"
    },
    {
      "channel": 4,
      "note": 89,
      "start": 8.2283,
      "duration": 0.0208,
      "velocity": 104,
      "chip": "ym2612"
    },
    {
      "channel": 0,
      "note": 89,
      "start": 8.2478,
      "duration": 0.0213,
      "velocity": 104,
      "chip": "ym2612"
    },
    {
      "channel": 2,
      "note": 58,
      "start": 8.2489,
      "duration": 0.0122,
      "velocity": 76,
      "chip": "ym2612"
    },
    {
      "channel": 4,
      "note": 87,
      "start": 8.2497,
      "duration": 0.022,
      "velocity": 104,
      "chip": "ym2612"
    },
    {
      "channel": 0,
      "note": 87,
      "start": 8.2698,
      "duration": 0.0628,
      "velocity": 104,
      "chip": "ym2612"
    },
    {
      "channel": 1,
      "note": 48,
      "start": 8.2708,
      "duration": 0.2134,
      "velocity": 104,
      "chip": "ym2612"
    },
    {
      "channel": 2,
      "note": 60,
      "start": 8.2715,
      "duration": 0.0122,
      "velocity": 76,
      "chip": "ym2612"
    },
    {
      "channel": 4,
      "note": 91,
      "start": 8.2723,
      "duration": 0.0622,
      "velocity": 104,
      "chip": "ym2612"
    },
    {
      "channel": 0,
      "note": 84,
      "start": 8.3333,
      "duration": 0.1499,
      "velocity": 104,
      "chip": "ym2612"
    },
    {
      "channel": 2,
      "note": 48,
      "start": 8.3342,
      "duration": 0.0824,
      "velocity": 76,
      "chip": "ym2612"
    },
    {
      "channel": 4,
      "note": 89,
      "start": 8.335,
      "duration": 0.151,
      "velocity": 104,
      "chip": "ym2612"
    },
    {
      "channel": 0,
      "note": 82,
      "start": 8.4838,
      "duration": 0.0261,
      "velocity": 104,
      "chip": "ym2612"
    },
    {
      "channel": 2,
      "note": 70,
      "start": 8.4852,
      "duration": 0.0255,
      "velocity": 76,
      "chip": "ym2612"
    },
    {
      "channel": 3,
      "note": 67,
      "start": 8.4859,
      "duration": 0.0251,
      "velocity": 76,
      "chip": "ym2612"
    },
    {
      "channel": 4,
      "note": 87,
      "start": 8.4866,
      "duration": 0.0247,
      "velocity": 104,
      "chip": "ym2612"
    },
    {
      "channel": 0,
      "note": 84,
      "start": 8.5105,
      "duration": 0.0181,
      "velocity": 104,
      "chip": "ym2612"
    },
    {
      "channel": 4,
      "note": 84,
      "start": 8.5119,
      "duration": 0.0189,
      "velocity": 104,
      "chip": "ym2612"
    },
    {
      "channel": 0,
      "note": 87,
      "start": 8.5292,
      "duration": 0.0431,
      "velocity": 104,
      "chip": "ym2612"
    },
    {
      "channel": 1,
      "note": 48,
      "start": 8.5299,
      "duration": 0.0432,
      "velocity": 104,
      "chip": "ym2612"
    },
    {
      "channel": 2,
      "note": 60,
      "start": 8.5306,
      "duration": 0.0099,
      "velocity": 76,
      "chip": "ym2612"
    },
    {
      "channel": 4,
      "note": 82,
      "start": 8.5314,
      "duration": 0.0434,
      "velocity": 104,
      "chip": "ym2612"
    },
    {
      "channel": 0,
      "note": 84,
      "start": 8.5729,
      "duration": 0.1499,
      "velocity": 104,
      "chip": "ym2612"
    },
    {
      "channel": 2,
      "note": 70,
      "start": 8.5739,
      "duration": 0.0655,
      "velocity": 76,
      "chip": "ym2612"
    },
    {
      "channel": 3,
      "note": 65,
      "start": 8.5746,
      "duration": 0.065,
      "velocity": 76,
      "chip": "ym2612"
    },
    {
      "channel": 4,
      "note": 84,
      "start": 8.5753,
      "duration": 0.1493,
      "velocity": 104,
      "chip": "ym2612"
    },
    {
      "channel": 1,
      "note": 51,
      "start": 8.7237,
      "duration": 0.021,
      "velocity": 104,
      "chip": "ym2612"
    },
    {
      "channel": 2,
      "note": 60,
      "start": 8.7244,
      "duration": 0.0117,
      "velocity": 76,
      "chip": "ym2612"
    },
    {
      "channel": 4,
      "note": 87,
      "start": 8.7251,
      "duration": 0.0212,
      "velocity": 104,
      "chip": "ym2612"
    },
    {
      "channel": 2,
      "note": 72,
      "start": 8.7456,
      "duration": 0.012,
      "velocity": 76,
      "chip": "ym2612"
    },
    {
      "channel": 3,
      "note": 67,
      "start": 8.7463,
      "duration": 0.0117,
      "velocity": 76,
      "chip": "ym2612"
    },
    {
      "channel": 4,
      "note": 84,
      "start": 8.747,
      "duration": 0.0187,
      "velocity": 104,
      "chip": "ym2612"
    },
    {
      "channel": 2,
      "note": 60,
      "start": 8.7654,
      "duration": 0.0086,
      "velocity": 76,
      "chip": "ym2612"
    },
    {
      "channel": 1,
      "note": 53,
      "start": 8.7812,
      "duration": 0.0196,
      "velocity": 104,
      "chip": "ym2612"
    },
    {
      "channel": 2,
      "note": 48,
      "start": 8.7819,
      "duration": 0.01,
      "velocity": 76,
      "chip": "ym2612"
    },
    {
      "channel": 2,
      "note": 70,
      "start": 8.8016,
      "duration": 0.018,
      "velocity": 76,
      "chip": "ym2612"
    },
    {
      "channel": 3,
      "note": 65,
      "start": 8.8024,
      "duration": 0.0176,
      "velocity": 76,
      "chip": "ym2612"
    },
    {
      "channel": 1,
      "note": 55,
      "start": 8.8344,
      "duration": 0.0204,
      "velocity": 104,
      "chip": "ym2612"
    },
    {
      "channel": 2,
      "note": 69,
      "start": 8.8351,
      "duration": 0.0204,
      "velocity": 76,
      "chip": "ym2612"
    },
    {
      "channel": 3,
      "note": 65,
      "start": 8.8358,
      "duration": 0.0204,
      "velocity": 76,
      "chip": "ym2612"
    },
    {
      "channel": 1,
      "note": 58,
      "start": 8.8554,
      "duration": 0.0952,
      "velocity": 104,
      "chip": "ym2612"
    },
    {
      "channel": 2,
      "note": 60,
      "start": 8.856,
      "duration": 0.0266,
      "velocity": 76,
      "chip": "ym2612"
    },
    {
      "channel": 1,
      "note": 60,
      "start": 8.9512,
      "duration": 0.0339,
      "velocity": 104,
      "chip": "ym2612"
    },
    {
      "channel": 2,
      "note": 60,
      "start": 8.9524,
      "duration": 0.0106,
      "velocity": 76,
      "chip": "ym2612"
    },
    {
      "channel": 1,
      "note": 48,
      "start": 8.9857,
      "duration": 0.2385,
      "velocity": 104,
      "chip": "ym2612"
    },
    {
      "channel": 2,
      "note": 48,
      "start": 8.9867,
      "duration": 0.2382,
      "velocity": 76,
      "chip": "ym2612"
    },
    {
      "channel": 2,
      "note": 70,
      "start": 9.2254,
      "duration": 0.009,
      "velocity": 76,
      "chip": "ym2612"
    },
    {
      "channel": 3,
      "note": 67,
      "start": 9.2266,
      "duration": 0.0081,
      "velocity": 76,
      "chip": "ym2612"
    },
    {
      "channel": 2,
      "note": 75,
      "start": 9.2426,
      "duration": 0.008,
      "velocity": 76,
      "chip": "ym2612"
    },
    {
      "channel": 3,
      "note": 72,
      "start": 9.2433,
      "duration": 0.0075,
      "velocity": 76,
      "chip": "ym2612"
    },
    {
      "channel": 2,
      "note": 60,
      "start": 9.2588,
      "duration": 0.0083,
      "velocity": 76,
      "chip": "ym2612"
    },
    {
      "channel": 2,
      "note": 48,
      "start": 9.2968,
      "duration": 0.0827,
      "velocity": 76,
      "chip": "ym2612"
    },
    {
      "channel": 1,
      "note": 51,
      "start": 9.4472,
      "duration": 0.0184,
      "velocity": 104,
      "chip": "ym2612"
    },
    {
      "channel": 2,
      "note": 60,
      "start": 9.4482,
      "duration": 0.0102,
      "velocity": 76,
      "chip": "ym2612"
    },
    {
      "channel": 2,
      "note": 70,
      "start": 9.4669,
      "duration": 0.0386,
      "velocity": 76,
      "chip": "ym2612"
    },
    {
      "channel": 3,
      "note": 65,
      "start": 9.4676,
      "duration": 0.0386,
      "velocity": 76,
      "chip": "ym2612"
    },
    {
      "channel": 1,
      "note": 53,
      "start": 9.5054,
      "duration": 0.0181,
      "velocity": 104,
      "chip": "ym2612"
    },
    {
      "channel": 2,
      "note": 48,
      "start": 9.506,
      "duration": 0.0083,
      "velocity": 76,
      "chip": "ym2612"
    },
    {
      "channel": 2,
      "note": 72,
      "start": 9.5243,
      "duration": 0.0085,
      "velocity": 76,
      "chip": "ym2612"
    },
    {
      "channel": 3,
      "note": 67,
      "start": 9.525,
      "duration": 0.0082,
      "velocity": 76,
      "chip": "ym2612"
    },
    {
      "channel": 2,
      "note": 60,
      "start": 9.5411,
      "duration": 0.0084,
      "velocity": 76,
      "chip": "ym2612"
    },
    {
      "channel": 2,
      "note": 48,
      "start": 9.5572,
      "duration": 0.009,
      "velocity": 76,
      "chip": "ym2612"
    },
    {
      "channel": 1,
      "note": 58,
      "start": 9.5725,
      "duration": 0.1001,
      "velocity": 104,
      "chip": "ym2612"
    },
    {
      "channel": 2,
      "note": 75,
      "start": 9.5731,
      "duration": 0.0322,
      "velocity": 76,
      "chip": "ym2612"
    },
    {
      "channel": 3,
      "note": 72,
      "start": 9.5739,
      "duration": 0.0317,
      "velocity": 76,
      "chip": "ym2612"
    },
    {
      "channel": 1,
      "note": 60,
      "start": 9.6731,
      "duration": 0.0378,
      "velocity": 104,
      "chip": "ym2612"
    },
    {
      "channel": 2,
      "note": 60,
      "start": 9.6738,
      "duration": 0.0103,
      "velocity": 76,
      "chip": "ym2612"
    },
    {
      "channel": 2,
      "note": 72,
      "start": 9.6932,
      "duration": 0.0088,
      "velocity": 76,
      "chip": "ym2612"
    },
    {
      "channel": 3,
      "note": 67,
      "start": 9.6939,
      "duration": 0.0084,
      "velocity": 76,
      "chip": "ym2612"
    },
    {
      "channel": 1,
      "note": 48,
      "start": 9.7115,
      "duration": 0.2354,
      "velocity": 104,
      "chip": "ym2612"
    },
    {
      "channel": 2,
      "note": 48,
      "start": 9.7125,
      "duration": 0.235,
      "velocity": 76,
      "chip": "ym2612"
    },
    {
      "channel": 2,
      "note": 70,
      "start": 9.948,
      "duration": 0.0105,
      "velocity": 76,
      "chip": "ym2612"
    },
    {
      "channel": 3,
      "note": 65,
      "start": 9.9487,
      "duration": 0.0101,
      "velocity": 76,
      "chip": "ym2612"
    },
    {
      "channel": 1,
      "note": 48,
      "start": 9.9782,
      "duration": 0.0405,
      "velocity": 104,
      "chip": "ym2612"
    },
    {
      "channel": 2,
      "note": 60,
      "start": 9.9788,
      "duration": 0.0096,
      "velocity": 76,
      "chip": "ym2612"
    },
    {
      "channel": 2,
      "note": 72,
      "start": 10.0195,
      "duration": 0.0826,
      "velocity": 76,
      "chip": "ym2612"
    },
    {
      "channel": 3,
      "note": 67,
      "start": 10.0202,
      "duration": 0.0821,
      "velocity": 76,
      "chip": "ym2612"
    },
    {
      "channel": 1,
      "note": 51,
      "start": 10.1864,
      "duration": 0.018,
      "velocity": 104,
      "chip": "ym2612"
    },
    {
      "channel": 2,
      "note": 60,
      "start": 10.1871,
      "duration": 0.0083,
      "velocity": 76,
      "chip": "ym2612"
    },
    {
      "channel": 2,
      "note": 66,
      "start": 10.2056,
      "duration": 0.0187,
      "velocity": 76,
      "chip": "ym2612"
    },
    {
      "channel": 3,
      "note": 65,
      "start": 10.2066,
      "duration": 0.0183,
      "velocity": 76,
      "chip": "ym2612"
    },
    {
      "channel": 2,
      "note": 60,
      "start": 10.2248,
      "duration": 0.0069,
      "velocity": 76,
      "chip": "ym2612"
    },
    {
      "channel": 1,
      "note": 53,
      "start": 10.2405,
      "duration": 0.018,
      "velocity": 104,
      "chip": "ym2612"
    },
    {
      "channel": 2,
      "note": 63,
      "start": 10.2412,
      "duration": 0.0099,
      "velocity": 76,
      "chip": "ym2612"
    },
    {
      "channel": 2,
      "note": 65,
      "start": 10.2593,
      "duration": 0.0089,
      "velocity": 76,
      "chip": "ym2612"
    },
    {
      "channel": 2,
      "note": 58,
      "start": 10.2748,
      "duration": 0.0084,
      "velocity": 76,
      "chip": "ym2612"
    },
    {
      "channel": 1,
      "note": 55,
      "start": 10.2902,
      "duration": 0.019,
      "velocity": 104,
      "chip": "ym2612"
    },
    {
      "channel": 2,
      "note": 60,
      "start": 10.2909,
      "duration": 0.0102,
      "velocity": 76,
      "chip": "ym2612"
    },
    {
      "channel": 1,
      "note": 58,
      "start": 10.3098,
      "duration": 0.1138,
      "velocity": 104,
      "chip": "ym2612"
    },
    {
      "channel": 2,
      "note": 58,
      "start": 10.3104,
      "duration": 0.028,
      "velocity": 76,
      "chip": "ym2612"
    },
    {
      "channel": 1,
      "note": 60,
      "start": 10.4242,
      "duration": 0.0338,
      "velocity": 104,
      "chip": "ym2612"
    },
    {
      "channel": 2,
      "note": 60,
      "start": 10.4255,
      "duration": 0.0086,
      "velocity": 76,
      "chip": "ym2612"
    },
    {
      "channel": 1,
      "note": 48,
      "start": 10.4585,
      "duration": 0.2222,
      "velocity": 104,
      "chip": "ym2612"
    },
    {
      "channel": 2,
      "note": 48,
      "start": 10.4596,
      "duration": 0.2219,
      "velocity": 76,
      "chip": "ym2612"
    },
    {
      "channel": 0,
      "note": 101,
      "start": 10.5297,
      "duration": 0.0827,
      "velocity": 104,
      "chip": "ym2612"
    },
    {
      "channel": 0,
      "note": 102,
      "start": 10.613,
      "duration": 0.0665,
      "velocity": 104,
      "chip": "ym2612"
    },
    {
      "channel": 0,
      "note": 103,
      "start": 10.6803,
      "duration": 0.0134,
      "velocity": 104,
      "chip": "ym2612"
    },
    {
      "channel": 2,
      "note": 70,
      "start": 10.682,
      "duration": 0.012,
      "velocity": 76,
      "chip": "ym2612"
    },
    {
      "channel": 3,
      "note": 67,
      "start": 10.6831,
      "duration": 0.0113,
      "velocity": 76,
      "chip": "ym2612"
    },
    {
      "channel": 2,
      "note": 75,
      "start": 10.7007,
      "duration": 0.0114,
      "velocity": 76,
      "chip": "ym2612"
    },
    {
      "channel": 3,
      "note": 72,
      "start": 10.7015,
      "duration": 0.011,
      "velocity": 76,
      "chip": "ym2612"
    },
    {
      "channel": 4,
      "note": 101,
      "start": 10.7022,
      "duration": 0.0106,
      "velocity": 104,
      "chip": "ym2612"
    },
    {
      "channel": 4,
      "note": 102,
      "start": 10.7133,
      "duration": 0.0094,
      "velocity": 104,
      "chip": "ym2612"
    },
    {
      "channel": 0,
      "note": 101,
      "start": 10.7218,
      "duration": 0.0093,
      "velocity": 104,
      "chip": "ym2612"
    },
    {
      "channel": 2,
      "note": 60,
      "start": 10.7225,
      "duration": 0.0089,
      "velocity": 76,
      "chip": "ym2612"
    },
    {
      "channel": 4,
      "note": 103,
      "start": 10.7234,
      "duration": 0.0085,
      "velocity": 104,
      "chip": "ym2612"
    }
  ]
}