{
  "track_name": "02 - Opening (Part 1)",
  "duration_sec": 54.984,
  "sample_rate": 44100,
  "note_count": 1394,
  "unique_pitches": 26,
  "pitch_range": 106,
  "avg_note_duration": 0.1846,
  "reconstruction_stats": {
    "notes_reconstructed": 1394,
    "keyon_events": 1394,
    "keyoff_events": 1394,
    "orphan_keyons": 0,
    "unique_pitches": 26,
    "pitch_range": 106,
    "avg_duration_sec": 0.1846
  },
  "metadata": {
    "source": "D\\Desert Strike - Return to the Gulf\\02 - Opening (Part 1).vgz"
  },
  "notes": [
    {
      "channel": 0,
      "note": -1,
      "start": 0.0527,
      "duration": 0.1144,
      "velocity": 109,
      "chip": "ym2612"
    },
    {
      "channel": 1,
      "note": 66,
      "start": 0.0544,
      "duration": 0.1129,
      "velocity": 109,
      "chip": "ym2612"
    },
    {
      "channel": 4,
      "note": 40,
      "start": 0.0563,
      "duration": 0.1112,
      "velocity": 127,
      "chip": "ym2612"
    },
    {
      "channel": 5,
      "note": 66,
      "start": 0.058,
      "duration": 0.243,
      "velocity": 127,
      "chip": "ym2612"
    },
    {
      "channel": 0,
      "note": 60,
      "start": 0.1853,
      "duration": 0.115,
      "velocity": 109,
      "chip": "ym2612"
    },
    {
      "channel": 1,
      "note": 61,
      "start": 0.1871,
      "duration": 0.1135,
      "velocity": 109,
      "chip": "ym2612"
    },
    {
      "channel": 4,
      "note": 43,
      "start": 0.1874,
      "duration": 0.1134,
      "velocity": 127,
      "chip": "ym2612"
    },
    {
      "channel": 0,
      "note": 60,
      "start": 0.3172,
      "duration": 0.1165,
      "velocity": 109,
      "chip": "ym2612"
    },
    {
      "channel": 1,
      "note": 61,
      "start": 0.3175,
      "duration": 0.1165,
      "velocity": 109,
      "chip": "ym2612"
    },
    {
      "channel": 4,
      "note": 51,
      "start": 0.3178,
      "duration": 0.1163,
      "velocity": 127,
      "chip": "ym2612"
    },
    {
      "channel": 5,
      "note": 34,
      "start": 0.3195,
      "duration": 0.1148,
      "velocity": 127,
      "chip": "ym2612"
    },
    {
      "channel": 0,
      "note": 60,
      "start": 0.452,
      "duration": 0.115,
      "velocity": 109,
      "chip": "ym2612"
    },
    {
      "channel": 1,
      "note": 61,
      "start": 0.4537,
      "duration": 0.1135,
      "velocity": 109,
      "chip": "ym2612"
    },
    {
      "channel": 4,
      "note": 55,
      "start": 0.4541,
      "duration": 0.1134,
      "velocity": 127,
      "chip": "ym2612"
    },
    {
      "channel": 5,
      "note": 26,
      "start": 0.4558,
      "duration": 0.1119,
      "velocity": 127,
      "chip": "ym2612"
    },
    {
      "channel": 0,
      "note": 60,
      "start": 0.5839,
      "duration": 0.1164,
      "velocity": 109,
      "chip": "ym2612"
    },
    {
      "channel": 1,
      "note": 61,
      "start": 0.5842,
      "duration": 0.1163,
      "velocity": 109,
      "chip": "ym2612"
    },
    {
      "channel": 4,
      "note": 63,
      "start": 0.5845,
      "duration": 0.1163,
      "velocity": 127,
      "chip": "ym2612"
    },
    {
      "channel": 5,
      "note": 39,
      "start": 0.5848,
      "duration": 0.2496,
      "velocity": 127,
      "chip": "ym2612"
    },
    {
      "channel": 0,
      "note": 60,
      "start": 0.7186,
      "duration": 0.1151,
      "velocity": 109,
      "chip": "ym2612"
    },
    {
      "channel": 1,
      "note": 61,
      "start": 0.7203,
      "duration": 0.1136,
      "velocity": 109,
      "chip": "ym2612"
    },
    {
      "channel": 4,
      "note": 43,
      "start": 0.7207,
      "duration": 0.1134,
      "velocity": 127,
      "chip": "ym2612"
    },
    {
      "channel": 0,
      "note": 60,
      "start": 0.8521,
      "duration": 0.1149,
      "velocity": 109,
      "chip": "ym2612"
    },
    {
      "channel": 1,
      "note": 61,
      "start": 0.8538,
      "duration": 0.1134,
      "velocity": 109,
      "chip": "ym2612"
    },
    {
      "channel": 4,
      "note": 51,
      "start": 0.8556,
      "duration": 1.312,
      "velocity": 127,
      "chip": "ym2612"
    },
    {
      "channel": 5,
      "note": 34,
      "start": 0.8559,
      "duration": 0.245,
      "velocity": 127,
      "chip": "ym2612"
    },
    {
      "channel": 0,
      "note": 60,
      "start": 0.9853,
      "duration": 0.1151,
      "velocity": 109,
      "chip": "ym2612"
    },
    {
      "channel": 1,
      "note": 61,
      "start": 0.987,
      "duration": 0.1136,
      "velocity": 109,
      "chip": "ym2612"
    },
    {
      "channel": 0,
      "note": 60,
      "start": 1.1171,
      "duration": 0.1165,
      "velocity": 109,
      "chip": "ym2612"
    },
    {
      "channel": 1,
      "note": 61,
      "start": 1.1174,
      "duration": 0.1165,
      "velocity": 109,
      "chip": "ym2612"
    },
    {
      "channel": 5,
      "note": 34,
      "start": 1.1194,
      "duration": 0.1148,
      "velocity": 127,
      "chip": "ym2612"
    },
    {
      "channel": 0,
      "note": 60,
      "start": 1.252,
      "duration": 0.1151,
      "velocity": 109,
      "chip": "ym2612"
    },
    {
      "channel": 1,
      "note": 61,
      "start": 1.2537,
      "duration": 0.1135,
      "velocity": 109,
      "chip": "ym2612"
    },
    {
      "channel": 5,
      "note": 26,
      "start": 1.2542,
      "duration": 0.1134,
      "velocity": 127,
      "chip": "ym2612"
    },
    {
      "channel": 0,
      "note": 60,
      "start": 1.3839,
      "duration": 0.1165,
      "velocity": 109,
      "chip": "ym2612"
    },
    {
      "channel": 1,
      "note": 61,
      "start": 1.3841,
      "duration": 0.1165,
      "velocity": 109,
      "chip": "ym2612"
    },
    {
      "channel": 5,
      "note": 26,
      "start": 1.3846,
      "duration": 0.2497,
      "velocity": 127,
      "chip": "ym2612"
    },
    {
      "channel": 0,
      "note": 60,
      "start": 1.5186,
      "duration": 0.1151,
      "velocity": 109,
      "chip": "ym2612"
    },
    {
      "channel": 1,
      "note": 61,
      "start": 1.5203,
      "duration": 0.1136,
      "velocity": 109,
      "chip": "ym2612"
    },
    {
      "channel": 0,
      "note": 60,
      "start": 1.652,
      "duration": 0.115,
      "velocity": 109,
      "chip": "ym2612"
    },
    {
      "channel": 1,
      "note": 61,
      "start": 1.6537,
      "duration": 0.1135,
      "velocity": 109,
      "chip": "ym2612"
    },
    {
      "channel": 5,
      "note": 26,
      "start": 1.6542,
      "duration": 0.2468,
      "velocity": 127,
      "chip": "ym2612"
    },
    {
      "channel": 0,
      "note": 60,
      "start": 1.7853,
      "duration": 0.1151,
      "velocity": 109,
      "chip": "ym2612"
    },
    {
      "channel": 1,
      "note": 61,
      "start": 1.787,
      "duration": 0.1136,
      "velocity": 109,
      "chip": "ym2612"
    },
    {
      "channel": 0,
      "note": 60,
      "start": 1.9187,
      "duration": 0.115,
      "velocity": 109,
      "chip": "ym2612"
    },
    {
      "channel": 1,
      "note": 61,
      "start": 1.9204,
      "duration": 0.1135,
      "velocity": 109,
      "chip": "ym2612"
    },
    {
      "channel": 5,
      "note": 26,
      "start": 1.9209,
      "duration": 0.2468,
      "velocity": 127,
      "chip": "ym2612"
    },
    {
      "channel": 0,
      "note": 60,
      "start": 2.052,
      "duration": 0.1151,
      "velocity": 109,
      "chip": "ym2612"
    },
    {
      "channel": 1,
      "note": 61,
      "start": 2.0537,
      "duration": 0.1137,
      "velocity": 109,
      "chip": "ym2612"
    },
    {
      "channel": 0,
      "note": 60,
      "start": 2.1857,
      "duration": 0.1147,
      "velocity": 109,
      "chip": "ym2612"
    },
    {
      "channel": 1,
      "note": 61,
      "start": 2.1874,
      "duration": 0.1132,
      "velocity": 109,
      "chip": "ym2612"
    },
    {
      "channel": 4,
      "note": 21,
      "start": 2.1892,
      "duration": 0.1117,
      "velocity": 127,
      "chip": "ym2612"
    },
    {
      "channel": 5,
      "note": 26,
      "start": 2.1909,
      "duration": 0.2434,
      "velocity": 127,
      "chip": "ym2612"
    },
    {
      "channel": 0,
      "note": 61,
      "start": 2.3187,
      "duration": 0.1151,
      "velocity": 109,
      "chip": "ym2612"
    },
    {
      "channel": 1,
      "note": 61,
      "start": 2.3204,
      "duration": 0.1135,
      "velocity": 109,
      "chip": "ym2612"
    },
    {
      "channel": 4,
      "note": 19,
      "start": 2.3207,
      "duration": 0.1135,
      "velocity": 127,
      "chip": "ym2612"
    },
    {
      "channel": 0,
      "note": 61,
      "start": 2.4506,
      "duration": 0.1164,
      "velocity": 109,
      "chip": "ym2612"
    },
    {
      "channel": 1,
      "note": 61,
      "start": 2.4509,
      "duration": 0.1164,
      "velocity": 109,
      "chip": "ym2612"
    },
    {
      "channel": 4,
      "note": 27,
      "start": 2.4512,
      "duration": 0.1162,
      "velocity": 127,
      "chip": "ym2612"
    },
    {
      "channel": 5,
      "note": 34,
      "start": 2.4529,
      "duration": 0.1148,
      "velocity": 127,
      "chip": "ym2612"
    },
    {
      "channel": 0,
      "note": 61,
      "start": 2.5853,
      "duration": 0.1151,
      "velocity": 109,
      "chip": "ym2612"
    },
    {
      "channel": 1,
      "note": 61,
      "start": 2.5871,
      "duration": 0.1135,
      "velocity": 109,
      "chip": "ym2612"
    },
    {
      "channel": 4,
      "note": 31,
      "start": 2.5874,
      "duration": 0.1134,
      "velocity": 127,
      "chip": "ym2612"
    },
    {
      "channel": 5,
      "note": 26,
      "start": 2.5891,
      "duration": 0.1119,
      "velocity": 127,
      "chip": "ym2612"
    },
    {
      "channel": 0,
      "note": 61,
      "start": 2.7172,
      "duration": 0.1165,
      "velocity": 109,
      "chip": "ym2612"
    },
    {
      "channel": 1,
      "note": 61,
      "start": 2.7175,
      "duration": 0.1165,
      "velocity": 109,
      "chip": "ym2612"
    },
    {
      "channel": 4,
      "note": 39,
      "start": 2.7178,
      "duration": 0.1163,
      "velocity": 127,
      "chip": "ym2612"
    },
    {
      "channel": 5,
      "note": 39,
      "start": 2.7181,
      "duration": 0.2496,
      "velocity": 127,
      "chip": "ym2612"
    },
    {
      "channel": 0,
      "note": 61,
      "start": 2.8519,
      "duration": 0.1151,
      "velocity": 109,
      "chip": "ym2612"
    },
    {
      "channel": 1,
      "note": 61,
      "start": 2.8537,
      "duration": 0.1137,
      "velocity": 109,
      "chip": "ym2612"
    },
    {
      "channel": 4,
      "note": 43,
      "start": 2.854,
      "duration": 0.1135,
      "velocity": 127,
      "chip": "ym2612"
    },
    {
      "channel": 0,
      "note": 61,
      "start": 2.9853,
      "duration": 0.1151,
      "velocity": 109,
      "chip": "ym2612"
    },
    {
      "channel": 1,
      "note": 61,
      "start": 2.9871,
      "duration": 0.1136,
      "velocity": 109,
      "chip": "ym2612"
    },
    {
      "channel": 4,
      "note": 51,
      "start": 2.9874,
      "duration": 0.1135,
      "velocity": 127,
      "chip": "ym2612"
    },
    {
      "channel": 5,
      "note": 34,
      "start": 2.9876,
      "duration": 0.2468,
      "velocity": 127,
      "chip": "ym2612"
    },
    {
      "channel": 0,
      "note": 61,
      "start": 3.1187,
      "duration": 0.115,
      "velocity": 109,
      "chip": "ym2612"
    },
    {
      "channel": 1,
      "note": 61,
      "start": 3.1204,
      "duration": 0.1135,
      "velocity": 109,
      "chip": "ym2612"
    },
    {
      "channel": 4,
      "note": 55,
      "start": 3.1207,
      "duration": 0.1134,
      "velocity": 127,
      "chip": "ym2612"
    },
    {
      "channel": 0,
      "note": 61,
      "start": 3.2505,
      "duration": 0.1165,
      "velocity": 109,
      "chip": "ym2612"
    },
    {
      "channel": 1,
      "note": 61,
      "start": 3.2508,
      "duration": 0.1165,
      "velocity": 109,
      "chip": "ym2612"
    },
    {
      "channel": 4,
      "note": 63,
      "start": 3.2512,
      "duration": 0.1163,
      "velocity": 127,
      "chip": "ym2612"
    },
    {
      "channel": 5,
      "note": 34,
      "start": 3.2529,
      "duration": 0.1148,
      "velocity": 127,
      "chip": "ym2612"
    },
    {
      "channel": 0,
      "note": 61,
      "start": 3.3853,
      "duration": 0.1151,
      "velocity": 109,
      "chip": "ym2612"
    },
    {
      "channel": 1,
      "note": 61,
      "start": 3.3871,
      "duration": 0.1135,
      "velocity": 109,
      "chip": "ym2612"
    },
    {
      "channel": 4,
      "note": 43,
      "start": 3.3874,
      "duration": 0.1134,
      "velocity": 127,
      "chip": "ym2612"
    },
    {
      "channel": 5,
      "note": 26,
      "start": 3.3877,
      "duration": 0.1134,
      "velocity": 127,
      "chip": "ym2612"
    },
    {
      "channel": 0,
      "note": 61,
      "start": 3.5172,
      "duration": 0.1165,
      "velocity": 109,
      "chip": "ym2612"
    },
    {
      "channel": 1,
      "note": 61,
      "start": 3.5175,
      "duration": 0.1165,
      "velocity": 109,
      "chip": "ym2612"
    },
    {
      "channel": 4,
      "note": 51,
      "start": 3.5178,
      "duration": 0.1163,
      "velocity": 127,
      "chip": "ym2612"
    },
    {
      "channel": 5,
      "note": 26,
      "start": 3.5181,
      "duration": 0.2496,
      "velocity": 127,
      "chip": "ym2612"
    },
    {
      "channel": 0,
      "note": 61,
      "start": 3.6519,
      "duration": 0.1151,
      "velocity": 109,
      "chip": "ym2612"
    },
    {
      "channel": 1,
      "note": 61,
      "start": 3.6537,
      "duration": 0.1137,
      "velocity": 109,
      "chip": "ym2612"
    },
    {
      "channel": 4,
      "note": 31,
      "start": 3.654,
      "duration": 0.1135,
      "velocity": 127,
      "chip": "ym2612"
    },
    {
      "channel": 0,
      "note": 61,
      "start": 3.7854,
      "duration": 0.115,
      "velocity": 109,
      "chip": "ym2612"
    },
    {
      "channel": 1,
      "note": 61,
      "start": 3.7871,
      "duration": 0.1135,
      "velocity": 109,
      "chip": "ym2612"
    },
    {
      "channel": 4,
      "note": 39,
      "start": 3.7874,
      "duration": 0.1134,
      "velocity": 127,
      "chip": "ym2612"
    },
    {
      "channel": 5,
      "note": 26,
      "start": 3.7891,
      "duration": 0.2452,
      "velocity": 127,
      "chip": "ym2612"
    },
    {
      "channel": 0,
      "note": 61,
      "start": 3.9187,
      "duration": 0.115,
      "velocity": 109,
      "chip": "ym2612"
    },
    {
      "channel": 1,
      "note": 61,
      "start": 3.9204,
      "duration": 0.1135,
      "velocity": 109,
      "chip": "ym2612"
    },
    {
      "channel": 4,
      "note": 19,
      "start": 3.9207,
      "duration": 0.1134,
      "velocity": 127,
      "chip": "ym2612"
    },
    {
      "channel": 0,
      "note": 61,
      "start": 4.052,
      "duration": 0.1151,
      "velocity": 109,
      "chip": "ym2612"
    },
    {
      "channel": 1,
      "note": 61,
      "start": 4.0537,
      "duration": 0.1136,
      "velocity": 109,
      "chip": "ym2612"
    },
    {
      "channel": 4,
      "note": 27,
      "start": 4.0541,
      "duration": 0.1134,
      "velocity": 127,
      "chip": "ym2612"
    },
    {
      "channel": 5,
      "note": 22,
      "start": 4.0544,
      "duration": 0.2469,
      "velocity": 127,
      "chip": "ym2612"
    },
    {
      "channel": 0,
      "note": 61,
      "start": 4.1853,
      "duration": 0.1151,
      "velocity": 109,
      "chip": "ym2612"
    },
    {
      "channel": 1,
      "note": 61,
      "start": 4.1871,
      "duration": 0.1136,
      "velocity": 109,
      "chip": "ym2612"
    },
    {
      "channel": 4,
      "note": 31,
      "start": 4.1874,
      "duration": 0.1136,
      "velocity": 127,
      "chip": "ym2612"
    },
    {
      "channel": 0,
      "note": 61,
      "start": 4.3193,
      "duration": 0.1144,
      "velocity": 109,
      "chip": "ym2612"
    },
    {
      "channel": 1,
      "note": 61,
      "start": 4.321,
      "duration": 0.1129,
      "velocity": 109,
      "chip": "ym2612"
    },
    {
      "channel": 4,
      "note": 39,
      "start": 4.3229,
      "duration": 0.1112,
      "velocity": 127,
      "chip": "ym2612"
    },
    {
      "channel": 5,
      "note": 22,
      "start": 4.3246,
      "duration": 0.2431,
      "velocity": 127,
      "chip": "ym2612"
    },
    {
      "channel": 0,
      "note": 61,
      "start": 4.4519,
      "duration": 0.1151,
      "velocity": 109,
      "chip": "ym2612"
    },
    {
      "channel": 1,
      "note": 61,
      "start": 4.4537,
      "duration": 0.1137,
      "velocity": 109,
      "chip": "ym2612"
    },
    {
      "channel": 4,
      "note": 43,
      "start": 4.454,
      "duration": 0.1135,
      "velocity": 127,
      "chip": "ym2612"
    },
    {
      "channel": 0,
      "note": 61,
      "start": 4.5839,
      "duration": 0.1165,
      "velocity": 109,
      "chip": "ym2612"
    },
    {
      "channel": 1,
      "note": 61,
      "start": 4.5841,
      "duration": 0.1165,
      "velocity": 109,
      "chip": "ym2612"
    },
    {
      "channel": 4,
      "note": 51,
      "start": 4.5845,
      "duration": 0.1163,
      "velocity": 127,
      "chip": "ym2612"
    },
    {
      "channel": 5,
      "note": 34,
      "start": 4.5862,
      "duration": 0.1148,
      "velocity": 127,
      "chip": "ym2612"
    },
    {
      "channel": 0,
      "note": 61,
      "start": 4.7187,
      "duration": 0.115,
      "velocity": 109,
      "chip": "ym2612"
    },
    {
      "channel": 1,
      "note": 61,
      "start": 4.7205,
      "duration": 0.1135,
      "velocity": 109,
      "chip": "ym2612"
    },
    {
      "channel": 4,
      "note": 55,
      "start": 4.7208,
      "duration": 0.1134,
      "velocity": 127,
      "chip": "ym2612"
    },
    {
      "channel": 5,
      "note": 26,
      "start": 4.7225,
      "duration": 0.1118,
      "velocity": 127,
      "chip": "ym2612"
    },
    {
      "channel": 0,
      "note": 61,
      "start": 4.8505,
      "duration": 0.1165,
      "velocity": 109,
      "chip": "ym2612"
    },
    {
      "channel": 1,
      "note": 61,
      "start": 4.8508,
      "duration": 0.1165,
      "velocity": 109,
      "chip": "ym2612"
    },
    {
      "channel": 4,
      "note": 63,
      "start": 4.8512,
      "duration": 0.1163,
      "velocity": 127,
      "chip": "ym2612"
    },
    {
      "channel": 5,
      "note": 39,
      "start": 4.8514,
      "duration": 0.2495,
      "velocity": 127,
      "chip": "ym2612"
    },
    {
      "channel": 0,
      "note": 61,
      "start": 4.9853,
      "duration": 0.115,
      "velocity": 109,
      "chip": "ym2612"
    },
    {
      "channel": 1,
      "note": 61,
      "start": 4.9871,
      "duration": 0.1135,
      "velocity": 109,
      "chip": "ym2612"
    },
    {
      "channel": 4,
      "note": 43,
      "start": 4.9874,
      "duration": 0.1134,
      "velocity": 127,
      "chip": "ym2612"
    },
    {
      "channel": 0,
      "note": 61,
      "start": 5.1187,
      "duration": 0.1149,
      "velocity": 109,
      "chip": "ym2612"
    },
    {
      "channel": 1,
      "note": 61,
      "start": 5.1205,
      "duration": 0.1134,
      "velocity": 109,
      "chip": "ym2612"
    },
    {
      "channel": 4,
      "note": 51,
      "start": 5.1222,
      "duration": 1.312,
      "velocity": 127,
      "chip": "ym2612"
    },
    {
      "channel": 5,
      "note": 34,
      "start": 5.1225,
      "duration": 0.245,
      "velocity": 127,
      "chip": "ym2612"
    },
    {
      "channel": 0,
      "note": 61,
      "start": 5.2519,
      "duration": 0.1151,
      "velocity": 109,
      "chip": "ym2612"
    },
    {
      "channel": 1,
      "note": 61,
      "start": 5.2537,
      "duration": 0.1136,
      "velocity": 109,
      "chip": "ym2612"
    },
    {
      "channel": 0,
      "note": 61,
      "start": 5.3839,
      "duration": 0.1165,
      "velocity": 109,
      "chip": "ym2612"
    },
    {
      "channel": 1,
      "note": 61,
      "start": 5.3841,
      "duration": 0.1165,
      "velocity": 109,
      "chip": "ym2612"
    },
    {
      "channel": 5,
      "note": 34,
      "start": 5.3862,
      "duration": 0.1148,
      "velocity": 127,
      "chip": "ym2612"
    },
    {
      "channel": 0,
      "note": 61,
      "start": 5.5187,
      "duration": 0.115,
      "velocity": 109,
      "chip": "ym2612"
    },
    {
      "channel": 1,
      "note": 61,
      "start": 5.5203,
      "duration": 0.1136,
      "velocity": 109,
      "chip": "ym2612"
    },
    {
      "channel": 5,
      "note": 26,
      "start": 5.5209,
      "duration": 0.1134,
      "velocity": 127,
      "chip": "ym2612"
    },
    {
      "channel": 0,
      "note": 61,
      "start": 5.6505,
      "duration": 0.1165,
      "velocity": 109,
      "chip": "ym2612"
    },
    {
      "channel": 1,
      "note": 61,
      "start": 5.6508,
      "duration": 0.1165,
      "velocity": 109,
      "chip": "ym2612"
    },
    {
      "channel": 5,
      "note": 26,
      "start": 5.6513,
      "duration": 0.2497,
      "velocity": 127,
      "chip": "ym2612"
    },
    {
      "channel": 0,
      "note": 61,
      "start": 5.7853,
      "duration": 0.1151,
      "velocity": 109,
      "chip": "ym2612"
    },
    {
      "channel": 1,
      "note": 61,
      "start": 5.787,
      "duration": 0.1136,
      "velocity": 109,
      "chip": "ym2612"
    },
    {
      "channel": 0,
      "note": 61,
      "start": 5.9187,
      "duration": 0.115,
      "velocity": 109,
      "chip": "ym2612"
    },
    {
      "channel": 1,
      "note": 61,
      "start": 5.9204,
      "duration": 0.1135,
      "velocity": 109,
      "chip": "ym2612"
    },
    {
      "channel": 5,
      "note": 26,
      "start": 5.9209,
      "duration": 0.2468,
      "velocity": 127,
      "chip": "ym2612"
    },
    {
      "channel": 0,
      "note": 61,
      "start": 6.052,
      "duration": 0.115,
      "velocity": 109,
      "chip": "ym2612"
    },
    {
      "channel": 1,
      "note": 61,
      "start": 6.0537,
      "duration": 0.1136,
      "velocity": 109,
      "chip": "ym2612"
    },
    {
      "channel": 0,
      "note": 61,
      "start": 6.1853,
      "duration": 0.115,
      "velocity": 109,
      "chip": "ym2612"
    },
    {
      "channel": 1,
      "note": 61,
      "start": 6.1871,
      "duration": 0.1135,
      "velocity": 109,
      "chip": "ym2612"
    },
    {
      "channel": 5,
      "note": 26,
      "start": 6.1876,
      "duration": 0.2468,
      "velocity": 127,
      "chip": "ym2612"
    },
    {
      "channel": 0,
      "note": 61,
      "start": 6.3186,
      "duration": 0.1151,
      "velocity": 109,
      "chip": "ym2612"
    },
    {
      "channel": 1,
      "note": 61,
      "start": 6.3203,
      "duration": 0.1137,
      "velocity": 109,
      "chip": "ym2612"
    },
    {
      "channel": 0,
      "note": 61,
      "start": 6.4524,
      "duration": 0.1147,
      "velocity": 109,
      "chip": "ym2612"
    },
    {
      "channel": 1,
      "note": 61,
      "start": 6.454,
      "duration": 0.1133,
      "velocity": 109,
      "chip": "ym2612"
    },
    {
      "channel": 4,
      "note": 21,
      "start": 6.4559,
      "duration": 0.1117,
      "velocity": 127,
      "chip": "ym2612"
    },
    {
      "channel": 5,
      "note": 26,
      "start": 6.4576,
      "duration": 0.2434,
      "velocity": 127,
      "chip": "ym2612"
    },
    {
      "channel": 0,
      "note": 61,
      "start": 6.5853,
      "duration": 0.115,
      "velocity": 109,
      "chip": "ym2612"
    },
    {
      "channel": 1,
      "note": 61,
      "start": 6.5871,
      "duration": 0.1135,
      "velocity": 109,
      "chip": "ym2612"
    },
    {
      "channel": 4,
      "note": 19,
      "start": 6.5874,
      "duration": 0.1134,
      "velocity": 127,
      "chip": "ym2612"
    },
    {
      "channel": 0,
      "note": 61,
      "start": 6.7172,
      "duration": 0.1165,
      "velocity": 109,
      "chip": "ym2612"
    },
    {
      "channel": 1,
      "note": 61,
      "start": 6.7175,
      "duration": 0.1165,
      "velocity": 109,
      "chip": "ym2612"
    },
    {
      "channel": 4,
      "note": 27,
      "start": 6.7178,
      "duration": 0.1163,
      "velocity": 127,
      "chip": "ym2612"
    },
    {
      "channel": 5,
      "note": 34,
      "start": 6.7195,
      "duration": 0.1148,
      "velocity": 127,
      "chip": "ym2612"
    },
    {
      "channel": 0,
      "note": 61,
      "start": 6.8521,
      "duration": 0.115,
      "velocity": 109,
      "chip": "ym2612"
    },
    {
      "channel": 1,
      "note": 61,
      "start": 6.8538,
      "duration": 0.1135,
      "velocity": 109,
      "chip": "ym2612"
    },
    {
      "channel": 4,
      "note": 31,
      "start": 6.8541,
      "duration": 0.1134,
      "velocity": 127,
      "chip": "ym2612"
    },
    {
      "channel": 5,
      "note": 26,
      "start": 6.8558,
      "duration": 0.1119,
      "velocity": 127,
      "chip": "ym2612"
    },
    {
      "channel": 0,
      "note": 61,
      "start": 6.9839,
      "duration": 0.1165,
      "velocity": 109,
      "chip": "ym2612"
    },
    {
      "channel": 1,
      "note": 61,
      "start": 6.9841,
      "duration": 0.1165,
      "velocity": 109,
      "chip": "ym2612"
    },
    {
      "channel": 4,
      "note": 39,
      "start": 6.9845,
      "duration": 0.1163,
      "velocity": 127,
      "chip": "ym2612"
    },
    {
      "channel": 5,
      "note": 39,
      "start": 6.9848,
      "duration": 0.2496,
      "velocity": 127,
      "chip": "ym2612"
    },
    {
      "channel": 0,
      "note": 61,
      "start": 7.1186,
      "duration": 0.1151,
      "velocity": 109,
      "chip": "ym2612"
    },
    {
      "channel": 1,
      "note": 61,
      "start": 7.1203,
      "duration": 0.1137,
      "velocity": 109,
      "chip": "ym2612"
    },
    {
      "channel": 4,
      "note": 43,
      "start": 7.1207,
      "duration": 0.1135,
      "velocity": 127,
      "chip": "ym2612"
    },
    {
      "channel": 0,
      "note": 61,
      "start": 7.252,
      "duration": 0.1151,
      "velocity": 109,
      "chip": "ym2612"
    },
    {
      "channel": 1,
      "note": 61,
      "start": 7.2537,
      "duration": 0.1136,
      "velocity": 109,
      "chip": "ym2612"
    },
    {
      "channel": 4,
      "note": 51,
      "start": 7.254,
      "duration": 0.1135,
      "velocity": 127,
      "chip": "ym2612"
    },
    {
      "channel": 5,
      "note": 34,
      "start": 7.2543,
      "duration": 0.2468,
      "velocity": 127,
      "chip": "ym2612"
    },
    {
      "channel": 0,
      "note": 61,
      "start": 7.3853,
      "duration": 0.115,
      "velocity": 109,
      "chip": "ym2612"
    },
    {
      "channel": 1,
      "note": 61,
      "start": 7.3871,
      "duration": 0.1135,
      "velocity": 109,
      "chip": "ym2612"
    },
    {
      "channel": 4,
      "note": 55,
      "start": 7.3874,
      "duration": 0.1134,
      "velocity": 127,
      "chip": "ym2612"
    },
    {
      "channel": 0,
      "note": 61,
      "start": 7.5172,
      "duration": 0.1165,
      "velocity": 109,
      "chip": "ym2612"
    },
    {
      "channel": 1,
      "note": 61,
      "start": 7.5175,
      "duration": 0.1165,
      "velocity": 109,
      "chip": "ym2612"
    },
    {
      "channel": 4,
      "note": 63,
      "start": 7.5178,
      "duration": 0.1163,
      "velocity": 127,
      "chip": "ym2612"
    },
    {
      "channel": 5,
      "note": 34,
      "start": 7.5195,
      "duration": 0.1148,
      "velocity": 127,
      "chip": "ym2612"
    },
    {
      "channel": 0,
      "note": 61,
      "start": 7.6521,
      "duration": 0.115,
      "velocity": 109,
      "chip": "ym2612"
    },
    {
      "channel": 1,
      "note": 61,
      "start": 7.6538,
      "duration": 0.1135,
      "velocity": 109,
      "chip": "ym2612"
    },
    {
      "channel": 4,
      "note": 43,
      "start": 7.6541,
      "duration": 0.1134,
      "velocity": 127,
      "chip": "ym2612"
    },
    {
      "channel": 5,
      "note": 26,
      "start": 7.6544,
      "duration": 0.1134,
      "velocity": 127,
      "chip": "ym2612"
    },
    {
      "channel": 0,
      "note": 61,
      "start": 7.7839,
      "duration": 0.1165,
      "velocity": 109,
      "chip": "ym2612"
    },
    {
      "channel": 1,
      "note": 61,
      "start": 7.7841,
      "duration": 0.1165,
      "velocity": 109,
      "chip": "ym2612"
    },
    {
      "channel": 4,
      "note": 51,
      "start": 7.7845,
      "duration": 0.1163,
      "velocity": 127,
      "chip": "ym2612"
    },
    {
      "channel": 5,
      "note": 26,
      "start": 7.7848,
      "duration": 0.2496,
      "velocity": 127,
      "chip": "ym2612"
    },
    {
      "channel": 0,
      "note": 61,
      "start": 7.9187,
      "duration": 0.115,
      "velocity": 109,
      "chip": "ym2612"
    },
    {
      "channel": 1,
      "note": 61,
      "start": 7.9204,
      "duration": 0.1135,
      "velocity": 109,
      "chip": "ym2612"
    },
    {
      "channel": 4,
      "note": 31,
      "start": 7.9207,
      "duration": 0.1134,
      "velocity": 127,
      "chip": "ym2612"
    },
    {
      "channel": 0,
      "note": 61,
      "start": 8.0521,
      "duration": 0.115,
      "velocity": 109,
      "chip": "ym2612"
    },
    {
      "channel": 1,
      "note": 61,
      "start": 8.0538,
      "duration": 0.1135,
      "velocity": 109,
      "chip": "ym2612"
    },
    {
      "channel": 4,
      "note": 39,
      "start": 8.0541,
      "duration": 0.1134,
      "velocity": 127,
      "chip": "ym2612"
    },
    {
      "channel": 5,
      "note": 26,
      "start": 8.0559,
      "duration": 0.2451,
      "velocity": 127,
      "chip": "ym2612"
    },
    {
      "channel": 0,
      "note": 61,
      "start": 8.1853,
      "duration": 0.115,
      "velocity": 109,
      "chip": "ym2612"
    },
    {
      "channel": 1,
      "note": 61,
      "start": 8.1871,
      "duration": 0.1135,
      "velocity": 109,
      "chip": "ym2612"
    },
    {
      "channel": 4,
      "note": 19,
      "start": 8.1874,
      "duration": 0.1134,
      "velocity": 127,
      "chip": "ym2612"
    },
    {
      "channel": 0,
      "note": 61,
      "start": 8.3187,
      "duration": 0.115,
      "velocity": 109,
      "chip": "ym2612"
    },
    {
      "channel": 1,
      "note": 61,
      "start": 8.3204,
      "duration": 0.1135,
      "velocity": 109,
      "chip": "ym2612"
    },
    {
      "channel": 4,
      "note": 27,
      "start": 8.3207,
      "duration": 0.1134,
      "velocity": 127,
      "chip": "ym2612"
    },
    {
      "channel": 5,
      "note": 22,
      "start": 8.321,
      "duration": 0.2468,
      "velocity": 127,
      "chip": "ym2612"
    },
    {
      "channel": 0,
      "note": 61,
      "start": 8.4519,
      "duration": 0.1151,
      "velocity": 109,
      "chip": "ym2612"
    },
    {
      "channel": 1,
      "note": 61,
      "start": 8.4537,
      "duration": 0.1137,
      "velocity": 109,
      "chip": "ym2612"
    },
    {
      "channel": 4,
      "note": 31,
      "start": 8.454,
      "duration": 0.1136,
      "velocity": 127,
      "chip": "ym2612"
    },
    {
      "channel": 0,
      "note": 61,
      "start": 8.5862,
      "duration": 0.1142,
      "velocity": 109,
      "chip": "ym2612"
    },
    {
      "channel": 1,
      "note": 61,
      "start": 8.5879,
      "duration": 0.1128,
      "velocity": 109,
      "chip": "ym2612"
    },
    {
      "channel": 3,
      "note": 64,
      "start": 8.5911,
      "duration": 8.5098,
      "velocity": 92,
      "chip": "ym2612"
    },
    {
      "channel": 4,
      "note": 39,
      "start": 8.5928,
      "duration": 0.1083,
      "velocity": 127,
      "chip": "ym2612"
    },
    {
      "channel": 5,
      "note": 22,
      "start": 8.5946,
      "duration": 0.2401,
      "velocity": 127,
      "chip": "ym2612"
    },
    {
      "channel": 0,
      "note": 60,
      "start": 8.7187,
      "duration": 0.1151,
      "velocity": 109,
      "chip": "ym2612"
    },
    {
      "channel": 1,
      "note": 61,
      "start": 8.7204,
      "duration": 0.1136,
      "velocity": 109,
      "chip": "ym2612"
    },
    {
      "channel": 4,
      "note": 43,
      "start": 8.721,
      "duration": 0.1135,
      "velocity": 127,
      "chip": "ym2612"
    },
    {
      "channel": 0,
      "note": 60,
      "start": 8.8506,
      "duration": 0.1165,
      "velocity": 109,
      "chip": "ym2612"
    },
    {
      "channel": 1,
      "note": 61,
      "start": 8.8509,
      "duration": 0.1165,
      "velocity": 109,
      "chip": "ym2612"
    },
    {
      "channel": 4,
      "note": 51,
      "start": 8.8514,
      "duration": 0.1163,
      "velocity": 127,
      "chip": "ym2612"
    },
    {
      "channel": 5,
      "note": 34,
      "start": 8.8532,
      "duration": 0.1148,
      "velocity": 127,
      "chip": "ym2612"
    },
    {
      "channel": 0,
      "note": 60,
      "start": 8.9854,
      "duration": 0.115,
      "velocity": 109,
      "chip": "ym2612"
    },
    {
      "channel": 1,
      "note": 61,
      "start": 8.9871,
      "duration": 0.1135,
      "velocity": 109,
      "chip": "ym2612"
    },
    {
      "channel": 4,
      "note": 55,
      "start": 8.9877,
      "duration": 0.1134,
      "velocity": 127,
      "chip": "ym2612"
    },
    {
      "channel": 5,
      "note": 26,
      "start": 8.9894,
      "duration": 0.1119,
      "velocity": 127,
      "chip": "ym2612"
    },
    {
      "channel": 0,
      "note": 60,
      "start": 9.1173,
      "duration": 0.1165,
      "velocity": 109,
      "chip": "ym2612"
    },
    {
      "channel": 1,
      "note": 61,
      "start": 9.1175,
      "duration": 0.1165,
      "velocity": 109,
      "chip": "ym2612"
    },
    {
      "channel": 4,
      "note": 63,
      "start": 9.1181,
      "duration": 0.1163,
      "velocity": 127,
      "chip": "ym2612"
    },
    {
      "channel": 5,
      "note": 39,
      "start": 9.1184,
      "duration": 0.2495,
      "velocity": 127,
      "chip": "ym2612"
    },
    {
      "channel": 0,
      "note": 60,
      "start": 9.252,
      "duration": 0.1151,
      "velocity": 109,
      "chip": "ym2612"
    },
    {
      "channel": 1,
      "note": 61,
      "start": 9.2537,
      "duration": 0.1136,
      "velocity": 109,
      "chip": "ym2612"
    },
    {
      "channel": 4,
      "note": 43,
      "start": 9.2543,
      "duration": 0.1135,
      "velocity": 127,
      "chip": "ym2612"
    },
    {
      "channel": 0,
      "note": 60,
      "start": 9.3855,
      "duration": 0.1149,
      "velocity": 109,
      "chip": "ym2612"
    },
    {
      "channel": 1,
      "note": 61,
      "start": 9.3872,
      "duration": 0.1135,
      "velocity": 109,
      "chip": "ym2612"
    },
    {
      "channel": 4,
      "note": 51,
      "start": 9.3892,
      "duration": 1.3119,
      "velocity": 127,
      "chip": "ym2612"
    },
    {
      "channel": 5,
      "note": 34,
      "start": 9.3895,
      "duration": 0.2451,
      "velocity": 127,
      "chip": "ym2612"
    },
    {
      "channel": 0,
      "note": 60,
      "start": 9.5187,
      "duration": 0.1151,
      "velocity": 109,
      "chip": "ym2612"
    },
    {
      "channel": 1,
      "note": 61,
      "start": 9.5204,
      "duration": 0.1136,
      "velocity": 109,
      "chip": "ym2612"
    },
    {
      "channel": 0,
      "note": 60,
      "start": 9.6507,
      "duration": 0.1164,
      "velocity": 109,
      "chip": "ym2612"
    },
    {
      "channel": 1,
      "note": 61,
      "start": 9.6509,
      "duration": 0.1164,
      "velocity": 109,
      "chip": "ym2612"
    },
    {
      "channel": 5,
      "note": 34,
      "start": 9.6531,
      "duration": 0.1148,
      "velocity": 127,
      "chip": "ym2612"
    },
    {
      "channel": 0,
      "note": 60,
      "start": 9.7854,
      "duration": 0.115,
      "velocity": 109,
      "chip": "ym2612"
    },
    {
      "channel": 1,
      "note": 61,
      "start": 9.7871,
      "duration": 0.1135,
      "velocity": 109,
      "chip": "ym2612"
    },
    {
      "channel": 5,
      "note": 26,
      "start": 9.7879,
      "duration": 0.1134,
      "velocity": 127,
      "chip": "ym2612"
    },
    {
      "channel": 0,
      "note": 60,
      "start": 9.9172,
      "duration": 0.1165,
      "velocity": 109,
      "chip": "ym2612"
    },
    {
      "channel": 1,
      "note": 61,
      "start": 9.9175,
      "duration": 0.1165,
      "velocity": 109,
      "chip": "ym2612"
    },
    {
      "channel": 5,
      "note": 26,
      "start": 9.9182,
      "duration": 0.2497,
      "velocity": 127,
      "chip": "ym2612"
    },
    {
      "channel": 0,
      "note": 60,
      "start": 10.052,
      "duration": 0.1151,
      "velocity": 109,
      "chip": "ym2612"
    },
    {
      "channel": 1,
      "note": 61,
      "start": 10.0537,
      "duration": 0.1136,
      "velocity": 109,
      "chip": "ym2612"
    },
    {
      "channel": 0,
      "note": 60,
      "start": 10.1854,
      "duration": 0.115,
      "velocity": 109,
      "chip": "ym2612"
    },
    {
      "channel": 1,
      "note": 61,
      "start": 10.1871,
      "duration": 0.1135,
      "velocity": 109,
      "chip": "ym2612"
    },
    {
      "channel": 5,
      "note": 26,
      "start": 10.1879,
      "duration": 0.2467,
      "velocity": 127,
      "chip": "ym2612"
    },
    {
      "channel": 0,
      "note": 60,
      "start": 10.3187,
      "duration": 0.1151,
      "velocity": 109,
      "chip": "ym2612"
    },
    {
      "channel": 1,
      "note": 61,
      "start": 10.3204,
      "duration": 0.1136,
      "velocity": 109,
      "chip": "ym2612"
    },
    {
      "channel": 0,
      "note": 60,
      "start": 10.4521,
      "duration": 0.115,
      "velocity": 109,
      "chip": "ym2612"
    },
    {
      "channel": 1,
      "note": 61,
      "start": 10.4538,
      "duration": 0.1135,
      "velocity": 109,
      "chip": "ym2612"
    },
    {
      "channel": 5,
      "note": 26,
      "start": 10.4545,
      "duration": 0.2468,
      "velocity": 127,
      "chip": "ym2612"
    },
    {
      "channel": 0,
      "note": 60,
      "start": 10.5853,
      "duration": 0.1151,
      "velocity": 109,
      "chip": "ym2612"
    },
    {
      "channel": 1,
      "note": 61,
      "start": 10.5871,
      "duration": 0.1136,
      "velocity": 109,
      "chip": "ym2612"
    },
    {
      "channel": 0,
      "note": 60,
      "start": 10.7191,
      "duration": 0.1146,
      "velocity": 109,
      "chip": "ym2612"
    },
    {
      "channel": 1,
      "note": 61,
      "start": 10.7208,
      "duration": 0.1132,
      "velocity": 109,
      "chip": "ym2612"
    },
    {
      "channel": 4,
      "note": 21,
      "start": 10.7229,
      "duration": 0.1116,
      "velocity": 127,
      "chip": "ym2612"
    },
    {
      "channel": 5,
      "note": 26,
      "start": 10.7246,
      "duration": 0.2434,
      "velocity": 127,
      "chip": "ym2612"
    },
    {
      "channel": 0,
      "note": 61,
      "start": 10.852,
      "duration": 0.1151,
      "velocity": 109,
      "chip": "ym2612"
    },
    {
      "channel": 1,
      "note": 61,
      "start": 10.8537,
      "duration": 0.1136,
      "velocity": 109,
      "chip": "ym2612"
    },
    {
      "channel": 4,
      "note": 19,
      "start": 10.8543,
      "duration": 0.1135,
      "velocity": 127,
      "chip": "ym2612"
    },
    {
      "channel": 0,
      "note": 61,
      "start": 10.9839,
      "duration": 0.1165,
      "velocity": 109,
      "chip": "ym2612"
    },
    {
      "channel": 1,
      "note": 61,
      "start": 10.9842,
      "duration": 0.1165,
      "velocity": 109,
      "chip": "ym2612"
    },
    {
      "channel": 4,
      "note": 27,
      "start": 10.9848,
      "duration": 0.1163,
      "velocity": 127,
      "chip": "ym2612"
    },
    {
      "channel": 5,
      "note": 34,
      "start": 10.9865,
      "duration": 0.1148,
      "velocity": 127,
      "chip": "ym2612"
    },
    {
      "channel": 0,
      "note": 61,
      "start": 11.1187,
      "duration": 0.115,
      "velocity": 109,
      "chip": "ym2612"
    },
    {
      "channel": 1,
      "note": 61,
      "start": 11.1205,
      "duration": 0.1135,
      "velocity": 109,
      "chip": "ym2612"
    },
    {
      "channel": 4,
      "note": 31,
      "start": 11.121,
      "duration": 0.1134,
      "velocity": 127,
      "chip": "ym2612"
    },
    {
      "channel": 5,
      "note": 26,
      "start": 11.1227,
      "duration": 0.1119,
      "velocity": 127,
      "chip": "ym2612"
    },
    {
      "channel": 0,
      "note": 61,
      "start": 11.2506,
      "duration": 0.1165,
      "velocity": 109,
      "chip": "ym2612"
    },
    {
      "channel": 1,
      "note": 61,
      "start": 11.2509,
      "duration": 0.1165,
      "velocity": 109,
      "chip": "ym2612"
    },
    {
      "channel": 4,
      "note": 39,
      "start": 11.2514,
      "duration": 0.1163,
      "velocity": 127,
      "chip": "ym2612"
    },
    {
      "channel": 5,
      "note": 39,
      "start": 11.2517,
      "duration": 0.2495,
      "velocity": 127,
      "chip": "ym2612"
    },
    {
      "channel": 0,
      "note": 61,
      "start": 11.3853,
      "duration": 0.1151,
      "velocity": 109,
      "chip": "ym2612"
    },
    {
      "channel": 1,
      "note": 61,
      "start": 11.3871,
      "duration": 0.1136,
      "velocity": 109,
      "chip": "ym2612"
    },
    {
      "channel": 4,
      "note": 43,
      "start": 11.3876,
      "duration": 0.1135,
      "velocity": 127,
      "chip": "ym2612"
    },
    {
      "channel": 0,
      "note": 61,
      "start": 11.5187,
      "duration": 0.115,
      "velocity": 109,
      "chip": "ym2612"
    },
    {
      "channel": 1,
      "note": 61,
      "start": 11.5205,
      "duration": 0.1135,
      "velocity": 109,
      "chip": "ym2612"
    },
    {
      "channel": 4,
      "note": 51,
      "start": 11.521,
      "duration": 0.1134,
      "velocity": 127,
      "chip": "ym2612"
    },
    {
      "channel": 5,
      "note": 34,
      "start": 11.5213,
      "duration": 0.2467,
      "velocity": 127,
      "chip": "ym2612"
    },
    {
      "channel": 0,
      "note": 61,
      "start": 11.652,
      "duration": 0.1151,
      "velocity": 109,
      "chip": "ym2612"
    },
    {
      "channel": 1,
      "note": 61,
      "start": 11.6537,
      "duration": 0.1136,
      "velocity": 109,
      "chip": "ym2612"
    },
    {
      "channel": 4,
      "note": 55,
      "start": 11.6543,
      "duration": 0.1135,
      "velocity": 127,
      "chip": "ym2612"
    },
    {
      "channel": 0,
      "note": 61,
      "start": 11.7839,
      "duration": 0.1165,
      "velocity": 109,
      "chip": "ym2612"
    },
    {
      "channel": 1,
      "note": 61,
      "start": 11.7842,
      "duration": 0.1165,
      "velocity": 109,
      "chip": "ym2612"
    },
    {
      "channel": 4,
      "note": 63,
      "start": 11.7848,
      "duration": 0.1163,
      "velocity": 127,
      "chip": "ym2612"
    },
    {
      "channel": 5,
      "note": 34,
      "start": 11.7865,
      "duration": 0.1148,
      "velocity": 127,
      "chip": "ym2612"
    },
    {
      "channel": 0,
      "note": 61,
      "start": 11.9187,
      "duration": 0.1151,
      "velocity": 109,
      "chip": "ym2612"
    },
    {
      "channel": 1,
      "note": 61,
      "start": 11.9205,
      "duration": 0.1136,
      "velocity": 109,
      "chip": "ym2612"
    },
    {
      "channel": 4,
      "note": 43,
      "start": 11.921,
      "duration": 0.1134,
      "velocity": 127,
      "chip": "ym2612"
    },
    {
      "channel": 5,
      "note": 26,
      "start": 11.9213,
      "duration": 0.1134,
      "velocity": 127,
      "chip": "ym2612"
    },
    {
      "channel": 0,
      "note": 61,
      "start": 12.0506,
      "duration": 0.1165,
      "velocity": 109,
      "chip": "ym2612"
    },
    {
      "channel": 1,
      "note": 61,
      "start": 12.0509,
      "duration": 0.1165,
      "velocity": 109,
      "chip": "ym2612"
    },
    {
      "channel": 4,
      "note": 51,
      "start": 12.0514,
      "duration": 0.1163,
      "velocity": 127,
      "chip": "ym2612"
    },
    {
      "channel": 5,
      "note": 26,
      "start": 12.0517,
      "duration": 0.2496,
      "velocity": 127,
      "chip": "ym2612"
    },
    {
      "channel": 0,
      "note": 61,
      "start": 12.1853,
      "duration": 0.1151,
      "velocity": 109,
      "chip": "ym2612"
    },
    {
      "channel": 1,
      "note": 61,
      "start": 12.1871,
      "duration": 0.1136,
      "velocity": 109,
      "chip": "ym2612"
    },
    {
      "channel": 4,
      "note": 31,
      "start": 12.1876,
      "duration": 0.1135,
      "velocity": 127,
      "chip": "ym2612"
    },
    {
      "channel": 0,
      "note": 61,
      "start": 12.3187,
      "duration": 0.115,
      "velocity": 109,
      "chip": "ym2612"
    },
    {
      "channel": 1,
      "note": 61,
      "start": 12.3205,
      "duration": 0.1135,
      "velocity": 109,
      "chip": "ym2612"
    },
    {
      "channel": 4,
      "note": 39,
      "start": 12.321,
      "duration": 0.1134,
      "velocity": 127,
      "chip": "ym2612"
    },
    {
      "channel": 5,
      "note": 26,
      "start": 12.3227,
      "duration": 0.2452,
      "velocity": 127,
      "chip": "ym2612"
    },
    {
      "channel": 0,
      "note": 61,
      "start": 12.452,
      "duration": 0.1151,
      "velocity": 109,
      "chip": "ym2612"
    },
    {
      "channel": 1,
      "note": 61,
      "start": 12.4537,
      "duration": 0.1136,
      "velocity": 109,
      "chip": "ym2612"
    },
    {
      "channel": 4,
      "note": 19,
      "start": 12.4543,
      "duration": 0.1135,
      "velocity": 127,
      "chip": "ym2612"
    },
    {
      "channel": 0,
      "note": 61,
      "start": 12.5854,
      "duration": 0.115,
      "velocity": 109,
      "chip": "ym2612"
    },
    {
      "channel": 1,
      "note": 61,
      "start": 12.5871,
      "duration": 0.1135,
      "velocity": 109,
      "chip": "ym2612"
    },
    {
      "channel": 4,
      "note": 27,
      "start": 12.5877,
      "duration": 0.1134,
      "velocity": 127,
      "chip": "ym2612"
    },
    {
      "channel": 5,
      "note": 22,
      "start": 12.5879,
      "duration": 0.2468,
      "velocity": 127,
      "chip": "ym2612"
    },
    {
      "channel": 0,
      "note": 61,
      "start": 12.7187,
      "duration": 0.1151,
      "velocity": 109,
      "chip": "ym2612"
    },
    {
      "channel": 1,
      "note": 61,
      "start": 12.7204,
      "duration": 0.1136,
      "velocity": 109,
      "chip": "ym2612"
    },
    {
      "channel": 4,
      "note": 31,
      "start": 12.721,
      "duration": 0.1136,
      "velocity": 127,
      "chip": "ym2612"
    },
    {
      "channel": 0,
      "note": 61,
      "start": 12.8526,
      "duration": 0.1144,
      "velocity": 109,
      "chip": "ym2612"
    },
    {
      "channel": 1,
      "note": 61,
      "start": 12.8544,
      "duration": 0.113,
      "velocity": 109,
      "chip": "ym2612"
    },
    {
      "channel": 2,
      "note": 125,
      "start": 12.8546,
      "duration": 8.5129,
      "velocity": 92,
      "chip": "ym2612"
    },
    {
      "channel": 4,
      "note": 39,
      "start": 12.8565,
      "duration": 0.1113,
      "velocity": 127,
      "chip": "ym2612"
    },
    {
      "channel": 5,
      "note": 22,
      "start": 12.8582,
      "duration": 0.2431,
      "velocity": 127,
      "chip": "ym2612"
    },
    {
      "channel": 0,
      "note": 61,
      "start": 12.9853,
      "duration": 0.1151,
      "velocity": 109,
      "chip": "ym2612"
    },
    {
      "channel": 1,
      "note": 61,
      "start": 12.9871,
      "duration": 0.1136,
      "velocity": 109,
      "chip": "ym2612"
    },
    {
      "channel": 4,
      "note": 43,
      "start": 12.9876,
      "duration": 0.1135,
      "velocity": 127,
      "chip": "ym2612"
    },
    {
      "channel": 0,
      "note": 61,
      "start": 13.1173,
      "duration": 0.1165,
      "velocity": 109,
      "chip": "ym2612"
    },
    {
      "channel": 1,
      "note": 61,
      "start": 13.1175,
      "duration": 0.1165,
      "velocity": 109,
      "chip": "ym2612"
    },
    {
      "channel": 4,
      "note": 51,
      "start": 13.1181,
      "duration": 0.1163,
      "velocity": 127,
      "chip": "ym2612"
    },
    {
      "channel": 5,
      "note": 34,
      "start": 13.1198,
      "duration": 0.1148,
      "velocity": 127,
      "chip": "ym2612"
    },
    {
      "channel": 0,
      "note": 61,
      "start": 13.2521,
      "duration": 0.115,
      "velocity": 109,
      "chip": "ym2612"
    },
    {
      "channel": 1,
      "note": 61,
      "start": 13.2538,
      "duration": 0.1135,
      "velocity": 109,
      "chip": "ym2612"
    },
    {
      "channel": 4,
      "note": 55,
      "start": 13.2544,
      "duration": 0.1134,
      "velocity": 127,
      "chip": "ym2612"
    },
    {
      "channel": 5,
      "note": 26,
      "start": 13.2561,
      "duration": 0.1119,
      "velocity": 127,
      "chip": "ym2612"
    },
    {
      "channel": 0,
      "note": 61,
      "start": 13.3839,
      "duration": 0.1165,
      "velocity": 109,
      "chip": "ym2612"
    },
    {
      "channel": 1,
      "note": 61,
      "start": 13.3842,
      "duration": 0.1165,
      "velocity": 109,
      "chip": "ym2612"
    },
    {
      "channel": 4,
      "note": 63,
      "start": 13.3848,
      "duration": 0.1163,
      "velocity": 127,
      "chip": "ym2612"
    },
    {
      "channel": 5,
      "note": 39,
      "start": 13.3851,
      "duration": 0.2495,
      "velocity": 127,
      "chip": "ym2612"
    },
    {
      "channel": 0,
      "note": 61,
      "start": 13.5187,
      "duration": 0.1151,
      "velocity": 109,
      "chip": "ym2612"
    },
    {
      "channel": 1,
      "note": 61,
      "start": 13.5204,
      "duration": 0.1136,
      "velocity": 109,
      "chip": "ym2612"
    },
    {
      "channel": 4,
      "note": 43,
      "start": 13.521,
      "duration": 0.1135,
      "velocity": 127,
      "chip": "ym2612"
    },
    {
      "channel": 0,
      "note": 61,
      "start": 13.6521,
      "duration": 0.1149,
      "velocity": 109,
      "chip": "ym2612"
    },
    {
      "channel": 1,
      "note": 61,
      "start": 13.6538,
      "duration": 0.1135,
      "velocity": 109,
      "chip": "ym2612"
    },
    {
      "channel": 4,
      "note": 51,
      "start": 13.6559,
      "duration": 1.3119,
      "velocity": 127,
      "chip": "ym2612"
    },
    {
      "channel": 5,
      "note": 34,
      "start": 13.6561,
      "duration": 0.2451,
      "velocity": 127,
      "chip": "ym2612"
    },
    {
      "channel": 0,
      "note": 61,
      "start": 13.7853,
      "duration": 0.1151,
      "velocity": 109,
      "chip": "ym2612"
    },
    {
      "channel": 1,
      "note": 61,
      "start": 13.7871,
      "duration": 0.1136,
      "velocity": 109,
      "chip": "ym2612"
    },
    {
      "channel": 0,
      "note": 61,
      "start": 13.9173,
      "duration": 0.1164,
      "velocity": 109,
      "chip": "ym2612"
    },
    {
      "channel": 1,
      "note": 61,
      "start": 13.9176,
      "duration": 0.1164,
      "velocity": 109,
      "chip": "ym2612"
    },
    {
      "channel": 5,
      "note": 34,
      "start": 13.9198,
      "duration": 0.1148,
      "velocity": 127,
      "chip": "ym2612"
    },
    {
      "channel": 0,
      "note": 61,
      "start": 14.0521,
      "duration": 0.115,
      "velocity": 109,
      "chip": "ym2612"
    },
    {
      "channel": 1,
      "note": 61,
      "start": 14.0538,
      "duration": 0.1135,
      "velocity": 109,
      "chip": "ym2612"
    },
    {
      "channel": 5,
      "note": 26,
      "start": 14.0545,
      "duration": 0.1134,
      "velocity": 127,
      "chip": "ym2612"
    },
    {
      "channel": 0,
      "note": 61,
      "start": 14.1839,
      "duration": 0.1165,
      "velocity": 109,
      "chip": "ym2612"
    },
    {
      "channel": 1,
      "note": 61,
      "start": 14.1841,
      "duration": 0.1165,
      "velocity": 109,
      "chip": "ym2612"
    },
    {
      "channel": 5,
      "note": 26,
      "start": 14.1849,
      "duration": 0.2497,
      "velocity": 127,
      "chip": "ym2612"
    },
    {
      "channel": 0,
      "note": 61,
      "start": 14.3187,
      "duration": 0.1151,
      "velocity": 109,
      "chip": "ym2612"
    },
    {
      "channel": 1,
      "note": 61,
      "start": 14.3204,
      "duration": 0.1136,
      "velocity": 109,
      "chip": "ym2612"
    },
    {
      "channel": 0,
      "note": 61,
      "start": 14.4521,
      "duration": 0.1151,
      "velocity": 109,
      "chip": "ym2612"
    },
    {
      "channel": 1,
      "note": 61,
      "start": 14.4538,
      "duration": 0.1135,
      "velocity": 109,
      "chip": "ym2612"
    },
    {
      "channel": 5,
      "note": 26,
      "start": 14.4545,
      "duration": 0.2467,
      "velocity": 127,
      "chip": "ym2612"
    },
    {
      "channel": 0,
      "note": 61,
      "start": 14.5853,
      "duration": 0.1151,
      "velocity": 109,
      "chip": "ym2612"
    },
    {
      "channel": 1,
      "note": 61,
      "start": 14.5871,
      "duration": 0.1136,
      "velocity": 109,
      "chip": "ym2612"
    },
    {
      "channel": 0,
      "note": 61,
      "start": 14.7187,
      "duration": 0.115,
      "velocity": 109,
      "chip": "ym2612"
    },
    {
      "channel": 1,
      "note": 61,
      "start": 14.7205,
      "duration": 0.1135,
      "velocity": 109,
      "chip": "ym2612"
    },
    {
      "channel": 5,
      "note": 26,
      "start": 14.7212,
      "duration": 0.2468,
      "velocity": 127,
      "chip": "ym2612"
    },
    {
      "channel": 0,
      "note": 61,
      "start": 14.852,
      "duration": 0.1151,
      "velocity": 109,
      "chip": "ym2612"
    },
    {
      "channel": 1,
      "note": 61,
      "start": 14.8537,
      "duration": 0.1136,
      "velocity": 109,
      "chip": "ym2612"
    },
    {
      "channel": 0,
      "note": 61,
      "start": 14.9858,
      "duration": 0.1146,
      "velocity": 109,
      "chip": "ym2612"
    },
    {
      "channel": 1,
      "note": 61,
      "start": 14.9875,
      "duration": 0.1132,
      "velocity": 109,
      "chip": "ym2612"
    },
    {
      "channel": 4,
      "note": 21,
      "start": 14.9895,
      "duration": 0.1116,
      "velocity": 127,
      "chip": "ym2612"
    },
    {
      "channel": 5,
      "note": 26,
      "start": 14.9912,
      "duration": 0.2434,
      "velocity": 127,
      "chip": "ym2612"
    },
    {
      "channel": 0,
      "note": 61,
      "start": 15.1187,
      "duration": 0.1151,
      "velocity": 109,
      "chip": "ym2612"
    },
    {
      "channel": 1,
      "note": 61,
      "start": 15.1204,
      "duration": 0.1136,
      "velocity": 109,
      "chip": "ym2612"
    },
    {
      "channel": 4,
      "note": 19,
      "start": 15.121,
      "duration": 0.1135,
      "velocity": 127,
      "chip": "ym2612"
    },
    {
      "channel": 0,
      "note": 61,
      "start": 15.2506,
      "duration": 0.1165,
      "velocity": 109,
      "chip": "ym2612"
    },
    {
      "channel": 1,
      "note": 61,
      "start": 15.2509,
      "duration": 0.1165,
      "velocity": 109,
      "chip": "ym2612"
    },
    {
      "channel": 4,
      "note": 27,
      "start": 15.2514,
      "duration": 0.1163,
      "velocity": 127,
      "chip": "ym2612"
    },
    {
      "channel": 5,
      "note": 34,
      "start": 15.2532,
      "duration": 0.1148,
      "velocity": 127,
      "chip": "ym2612"
    },
    {
      "channel": 0,
      "note": 61,
      "start": 15.3854,
      "duration": 0.1151,
      "velocity": 109,
      "chip": "ym2612"
    },
    {
      "channel": 1,
      "note": 61,
      "start": 15.3871,
      "duration": 0.1135,
      "velocity": 109,
      "chip": "ym2612"
    },
    {
      "channel": 4,
      "note": 31,
      "start": 15.3877,
      "duration": 0.1134,
      "velocity": 127,
      "chip": "ym2612"
    },
    {
      "channel": 5,
      "note": 26,
      "start": 15.3894,
      "duration": 0.1119,
      "velocity": 127,
      "chip": "ym2612"
    },
    {
      "channel": 0,
      "note": 61,
      "start": 15.5173,
      "duration": 0.1165,
      "velocity": 109,
      "chip": "ym2612"
    },
    {
      "channel": 1,
      "note": 61,
      "start": 15.5175,
      "duration": 0.1165,
      "velocity": 109,
      "chip": "ym2612"
    },
    {
      "channel": 4,
      "note": 39,
      "start": 15.5181,
      "duration": 0.1163,
      "velocity": 127,
      "chip": "ym2612"
    },
    {
      "channel": 5,
      "note": 39,
      "start": 15.5184,
      "duration": 0.2495,
      "velocity": 127,
      "chip": "ym2612"
    },
    {
      "channel": 0,
      "note": 61,
      "start": 15.652,
      "duration": 0.1151,
      "velocity": 109,
      "chip": "ym2612"
    },
    {
      "channel": 1,
      "note": 61,
      "start": 15.6537,
      "duration": 0.1136,
      "velocity": 109,
      "chip": "ym2612"
    },
    {
      "channel": 4,
      "note": 43,
      "start": 15.6543,
      "duration": 0.1135,
      "velocity": 127,
      "chip": "ym2612"
    },
    {
      "channel": 0,
      "note": 61,
      "start": 15.7854,
      "duration": 0.1151,
      "velocity": 109,
      "chip": "ym2612"
    },
    {
      "channel": 1,
      "note": 61,
      "start": 15.7871,
      "duration": 0.1135,
      "velocity": 109,
      "chip": "ym2612"
    },
    {
      "channel": 4,
      "note": 51,
      "start": 15.7877,
      "duration": 0.1134,
      "velocity": 127,
      "chip": "ym2612"
    },
    {
      "channel": 5,
      "note": 34,
      "start": 15.7879,
      "duration": 0.2467,
      "velocity": 127,
      "chip": "ym2612"
    },
    {
      "channel": 0,
      "note": 61,
      "start": 15.9187,
      "duration": 0.1151,
      "velocity": 109,
      "chip": "ym2612"
    },
    {
      "channel": 1,
      "note": 61,
      "start": 15.9204,
      "duration": 0.1136,
      "velocity": 109,
      "chip": "ym2612"
    },
    {
      "channel": 4,
      "note": 55,
      "start": 15.921,
      "duration": 0.1135,
      "velocity": 127,
      "chip": "ym2612"
    },
    {
      "channel": 0,
      "note": 61,
      "start": 16.0506,
      "duration": 0.1165,
      "velocity": 109,
      "chip": "ym2612"
    },
    {
      "channel": 1,
      "note": 61,
      "start": 16.0509,
      "duration": 0.1165,
      "velocity": 109,
      "chip": "ym2612"
    },
    {
      "channel": 4,
      "note": 63,
      "start": 16.0514,
      "duration": 0.1163,
      "velocity": 127,
      "chip": "ym2612"
    },
    {
      "channel": 5,
      "note": 34,
      "start": 16.0532,
      "duration": 0.1148,
      "velocity": 127,
      "chip": "ym2612"
    },
    {
      "channel": 0,
      "note": 61,
      "start": 16.1854,
      "duration": 0.115,
      "velocity": 109,
      "chip": "ym2612"
    },
    {
      "channel": 1,
      "note": 61,
      "start": 16.1871,
      "duration": 0.1135,
      "velocity": 109,
      "chip": "ym2612"
    },
    {
      "channel": 4,
      "note": 43,
      "start": 16.1877,
      "duration": 0.1134,
      "velocity": 127,
      "chip": "ym2612"
    },
    {
      "channel": 5,
      "note": 26,
      "start": 16.1879,
      "duration": 0.1134,
      "velocity": 127,
      "chip": "ym2612"
    },
    {
      "channel": 0,
      "note": 61,
      "start": 16.3173,
      "duration": 0.1165,
      "velocity": 109,
      "chip": "ym2612"
    },
    {
      "channel": 1,
      "note": 61,
      "start": 16.3175,
      "duration": 0.1165,
      "velocity": 109,
      "chip": "ym2612"
    },
    {
      "channel": 4,
      "note": 51,
      "start": 16.3181,
      "duration": 0.1163,
      "velocity": 127,
      "chip": "ym2612"
    },
    {
      "channel": 5,
      "note": 26,
      "start": 16.3184,
      "duration": 0.2495,
      "velocity": 127,
      "chip": "ym2612"
    },
    {
      "channel": 0,
      "note": 61,
      "start": 16.452,
      "duration": 0.1151,
      "velocity": 109,
      "chip": "ym2612"
    },
    {
      "channel": 1,
      "note": 61,
      "start": 16.4537,
      "duration": 0.1136,
      "velocity": 109,
      "chip": "ym2612"
    },
    {
      "channel": 4,
      "note": 31,
      "start": 16.4543,
      "duration": 0.1135,
      "velocity": 127,
      "chip": "ym2612"
    },
    {
      "channel": 0,
      "note": 61,
      "start": 16.5854,
      "duration": 0.115,
      "velocity": 109,
      "chip": "ym2612"
    },
    {
      "channel": 1,
      "note": 61,
      "start": 16.5871,
      "duration": 0.1135,
      "velocity": 109,
      "chip": "ym2612"
    },
    {
      "channel": 4,
      "note": 39,
      "start": 16.5877,
      "duration": 0.1134,
      "velocity": 127,
      "chip": "ym2612"
    },
    {
      "channel": 5,
      "note": 26,
      "start": 16.5894,
      "duration": 0.2452,
      "velocity": 127,
      "chip": "ym2612"
    },
    {
      "channel": 0,
      "note": 61,
      "start": 16.7187,
      "duration": 0.1151,
      "velocity": 109,
      "chip": "ym2612"
    },
    {
      "channel": 1,
      "note": 61,
      "start": 16.7204,
      "duration": 0.1136,
      "velocity": 109,
      "chip": "ym2612"
    },
    {
      "channel": 4,
      "note": 19,
      "start": 16.721,
      "duration": 0.1135,
      "velocity": 127,
      "chip": "ym2612"
    },
    {
      "channel": 0,
      "note": 61,
      "start": 16.8521,
      "duration": 0.1151,
      "velocity": 109,
      "chip": "ym2612"
    },
    {
      "channel": 1,
      "note": 61,
      "start": 16.8538,
      "duration": 0.1135,
      "velocity": 109,
      "chip": "ym2612"
    },
    {
      "channel": 4,
      "note": 27,
      "start": 16.8544,
      "duration": 0.1134,
      "velocity": 127,
      "chip": "ym2612"
    },
    {
      "channel": 5,
      "note": 22,
      "start": 16.8546,
      "duration": 0.2468,
      "velocity": 127,
      "chip": "ym2612"
    },
    {
      "channel": 0,
      "note": 61,
      "start": 16.9853,
      "duration": 0.1151,
      "velocity": 109,
      "chip": "ym2612"
    },
    {
      "channel": 1,
      "note": 61,
      "start": 16.9871,
      "duration": 0.1136,
      "velocity": 109,
      "chip": "ym2612"
    },
    {
      "channel": 4,
      "note": 31,
      "start": 16.9876,
      "duration": 0.1136,
      "velocity": 127,
      "chip": "ym2612"
    },
    {
      "channel": 0,
      "note": 61,
      "start": 17.1193,
      "duration": 0.1144,
      "velocity": 109,
      "chip": "ym2612"
    },
    {
      "channel": 1,
      "note": 61,
      "start": 17.121,
      "duration": 0.113,
      "velocity": 109,
      "chip": "ym2612"
    },
    {
      "channel": 3,
      "note": 73,
      "start": 17.1215,
      "duration": 4.2462,
      "velocity": 92,
      "chip": "ym2612"
    },
    {
      "channel": 4,
      "note": 39,
      "start": 17.1232,
      "duration": 0.1113,
      "velocity": 127,
      "chip": "ym2612"
    },
    {
      "channel": 5,
      "note": 22,
      "start": 17.1249,
      "duration": 0.2431,
      "velocity": 127,
      "chip": "ym2612"
    },
    {
      "channel": 0,
      "note": 60,
      "start": 17.252,
      "duration": 0.1151,
      "velocity": 109,
      "chip": "ym2612"
    },
    {
      "channel": 1,
      "note": 61,
      "start": 17.2537,
      "duration": 0.1136,
      "velocity": 109,
      "chip": "ym2612"
    },
    {
      "channel": 4,
      "note": 43,
      "start": 17.2543,
      "duration": 0.1135,
      "velocity": 127,
      "chip": "ym2612"
    },
    {
      "channel": 0,
      "note": 60,
      "start": 17.3839,
      "duration": 0.1165,
      "velocity": 109,
      "chip": "ym2612"
    },
    {
      "channel": 1,
      "note": 61,
      "start": 17.3842,
      "duration": 0.1165,
      "velocity": 109,
      "chip": "ym2612"
    },
    {
      "channel": 4,
      "note": 51,
      "start": 17.3848,
      "duration": 0.1163,
      "velocity": 127,
      "chip": "ym2612"
    },
    {
      "channel": 5,
      "note": 34,
      "start": 17.3865,
      "duration": 0.1148,
      "velocity": 127,
      "chip": "ym2612"
    },
    {
      "channel": 0,
      "note": 60,
      "start": 17.5187,
      "duration": 0.115,
      "velocity": 109,
      "chip": "ym2612"
    },
    {
      "channel": 1,
      "note": 61,
      "start": 17.5205,
      "duration": 0.1135,
      "velocity": 109,
      "chip": "ym2612"
    },
    {
      "channel": 4,
      "note": 55,
      "start": 17.521,
      "duration": 0.1134,
      "velocity": 127,
      "chip": "ym2612"
    },
    {
      "channel": 5,
      "note": 26,
      "start": 17.5227,
      "duration": 0.1119,
      "velocity": 127,
      "chip": "ym2612"
    },
    {
      "channel": 0,
      "note": 60,
      "start": 17.6506,
      "duration": 0.1165,
      "velocity": 109,
      "chip": "ym2612"
    },
    {
      "channel": 1,
      "note": 61,
      "start": 17.6509,
      "duration": 0.1165,
      "velocity": 109,
      "chip": "ym2612"
    },
    {
      "channel": 4,
      "note": 63,
      "start": 17.6514,
      "duration": 0.1163,
      "velocity": 127,
      "chip": "ym2612"
    },
    {
      "channel": 5,
      "note": 39,
      "start": 17.6517,
      "duration": 0.2495,
      "velocity": 127,
      "chip": "ym2612"
    },
    {
      "channel": 0,
      "note": 60,
      "start": 17.7853,
      "duration": 0.1151,
      "velocity": 109,
      "chip": "ym2612"
    },
    {
      "channel": 1,
      "note": 61,
      "start": 17.7871,
      "duration": 0.1136,
      "velocity": 109,
      "chip": "ym2612"
    },
    {
      "channel": 4,
      "note": 43,
      "start": 17.7876,
      "duration": 0.1135,
      "velocity": 127,
      "chip": "ym2612"
    },
    {
      "channel": 0,
      "note": 60,
      "start": 17.9188,
      "duration": 0.1149,
      "velocity": 109,
      "chip": "ym2612"
    },
    {
      "channel": 1,
      "note": 61,
      "start": 17.9205,
      "duration": 0.1135,
      "velocity": 109,
      "chip": "ym2612"
    },
    {
      "channel": 4,
      "note": 51,
      "start": 17.9225,
      "duration": 1.3119,
      "velocity": 127,
      "chip": "ym2612"
    },
    {
      "channel": 5,
      "note": 34,
      "start": 17.9228,
      "duration": 0.2451,
      "velocity": 127,
      "chip": "ym2612"
    },
    {
      "channel": 0,
      "note": 60,
      "start": 18.052,
      "duration": 0.1151,
      "velocity": 109,
      "chip": "ym2612"
    },
    {
      "channel": 1,
      "note": 61,
      "start": 18.0537,
      "duration": 0.1136,
      "velocity": 109,
      "chip": "ym2612"
    },
    {
      "channel": 0,
      "note": 60,
      "start": 18.184,
      "duration": 0.1164,
      "velocity": 109,
      "chip": "ym2612"
    },
    {
      "channel": 1,
      "note": 61,
      "start": 18.1842,
      "duration": 0.1164,
      "velocity": 109,
      "chip": "ym2612"
    },
    {
      "channel": 5,
      "note": 34,
      "start": 18.1864,
      "duration": 0.1148,
      "velocity": 127,
      "chip": "ym2612"
    },
    {
      "channel": 0,
      "note": 60,
      "start": 18.3187,
      "duration": 0.115,
      "velocity": 109,
      "chip": "ym2612"
    },
    {
      "channel": 1,
      "note": 61,
      "start": 18.3205,
      "duration": 0.1135,
      "velocity": 109,
      "chip": "ym2612"
    },
    {
      "channel": 5,
      "note": 26,
      "start": 18.3212,
      "duration": 0.1134,
      "velocity": 127,
      "chip": "ym2612"
    },
    {
      "channel": 0,
      "note": 60,
      "start": 18.4505,
      "duration": 0.1165,
      "velocity": 109,
      "chip": "ym2612"
    },
    {
      "channel": 1,
      "note": 61,
      "start": 18.4508,
      "duration": 0.1165,
      "velocity": 109,
      "chip": "ym2612"
    },
    {
      "channel": 5,
      "note": 26,
      "start": 18.4515,
      "duration": 0.2497,
      "velocity": 127,
      "chip": "ym2612"
    },
    {
      "channel": 0,
      "note": 60,
      "start": 18.5853,
      "duration": 0.1151,
      "velocity": 109,
      "chip": "ym2612"
    },
    {
      "channel": 1,
      "note": 61,
      "start": 18.5871,
      "duration": 0.1136,
      "velocity": 109,
      "chip": "ym2612"
    },
    {
      "channel": 0,
      "note": 60,
      "start": 18.7187,
      "duration": 0.115,
      "velocity": 109,
      "chip": "ym2612"
    },
    {
      "channel": 1,
      "note": 61,
      "start": 18.7205,
      "duration": 0.1135,
      "velocity": 109,
      "chip": "ym2612"
    },
    {
      "channel": 5,
      "note": 26,
      "start": 18.7212,
      "duration": 0.2467,
      "velocity": 127,
      "chip": "ym2612"
    },
    {
      "channel": 0,
      "note": 60,
      "start": 18.852,
      "duration": 0.1151,
      "velocity": 109,
      "chip": "ym2612"
    },
    {
      "channel": 1,
      "note": 61,
      "start": 18.8537,
      "duration": 0.1136,
      "velocity": 109,
      "chip": "ym2612"
    },
    {
      "channel": 0,
      "note": 60,
      "start": 18.9854,
      "duration": 0.1151,
      "velocity": 109,
      "chip": "ym2612"
    },
    {
      "channel": 1,
      "note": 61,
      "start": 18.9871,
      "duration": 0.1135,
      "velocity": 109,
      "chip": "ym2612"
    },
    {
      "channel": 5,
      "note": 26,
      "start": 18.9879,
      "duration": 0.2468,
      "velocity": 127,
      "chip": "ym2612"
    },
    {
      "channel": 0,
      "note": 60,
      "start": 19.1187,
      "duration": 0.115,
      "velocity": 109,
      "chip": "ym2612"
    },
    {
      "channel": 1,
      "note": 61,
      "start": 19.1205,
      "duration": 0.1135,
      "velocity": 109,
      "chip": "ym2612"
    },
    {
      "channel": 0,
      "note": 60,
      "start": 19.2524,
      "duration": 0.1146,
      "velocity": 109,
      "chip": "ym2612"
    },
    {
      "channel": 1,
      "note": 61,
      "start": 19.2541,
      "duration": 0.1132,
      "velocity": 109,
      "chip": "ym2612"
    },
    {
      "channel": 4,
      "note": 21,
      "start": 19.2562,
      "duration": 0.1116,
      "velocity": 127,
      "chip": "ym2612"
    },
    {
      "channel": 5,
      "note": 26,
      "start": 19.2579,
      "duration": 0.2434,
      "velocity": 127,
      "chip": "ym2612"
    },
    {
      "channel": 0,
      "note": 61,
      "start": 19.3853,
      "duration": 0.1151,
      "velocity": 109,
      "chip": "ym2612"
    },
    {
      "channel": 1,
      "note": 61,
      "start": 19.3871,
      "duration": 0.1136,
      "velocity": 109,
      "chip": "ym2612"
    },
    {
      "channel": 4,
      "note": 19,
      "start": 19.3876,
      "duration": 0.1135,
      "velocity": 127,
      "chip": "ym2612"
    },
    {
      "channel": 0,
      "note": 61,
      "start": 19.5173,
      "duration": 0.1165,
      "velocity": 109,
      "chip": "ym2612"
    },
    {
      "channel": 1,
      "note": 61,
      "start": 19.5175,
      "duration": 0.1165,
      "velocity": 109,
      "chip": "ym2612"
    },
    {
      "channel": 4,
      "note": 27,
      "start": 19.5181,
      "duration": 0.1163,
      "velocity": 127,
      "chip": "ym2612"
    },
    {
      "channel": 5,
      "note": 34,
      "start": 19.5198,
      "duration": 0.1148,
      "velocity": 127,
      "chip": "ym2612"
    },
    {
      "channel": 0,
      "note": 61,
      "start": 19.6521,
      "duration": 0.115,
      "velocity": 109,
      "chip": "ym2612"
    },
    {
      "channel": 1,
      "note": 61,
      "start": 19.6538,
      "duration": 0.1135,
      "velocity": 109,
      "chip": "ym2612"
    },
    {
      "channel": 4,
      "note": 31,
      "start": 19.6544,
      "duration": 0.1134,
      "velocity": 127,
      "chip": "ym2612"
    },
    {
      "channel": 5,
      "note": 26,
      "start": 19.6561,
      "duration": 0.1119,
      "velocity": 127,
      "chip": "ym2612"
    },
    {
      "channel": 0,
      "note": 61,
      "start": 19.7839,
      "duration": 0.1165,
      "velocity": 109,
      "chip": "ym2612"
    },
    {
      "channel": 1,
      "note": 61,
      "start": 19.7842,
      "duration": 0.1165,
      "velocity": 109,
      "chip": "ym2612"
    },
    {
      "channel": 4,
      "note": 39,
      "start": 19.7848,
      "duration": 0.1163,
      "velocity": 127,
      "chip": "ym2612"
    },
    {
      "channel": 5,
      "note": 39,
      "start": 19.7851,
      "duration": 0.2495,
      "velocity": 127,
      "chip": "ym2612"
    },
    {
      "channel": 0,
      "note": 61,
      "start": 19.9187,
      "duration": 0.1151,
      "velocity": 109,
      "chip": "ym2612"
    },
    {
      "channel": 1,
      "note": 61,
      "start": 19.9204,
      "duration": 0.1136,
      "velocity": 109,
      "chip": "ym2612"
    },
    {
      "channel": 4,
      "note": 43,
      "start": 19.921,
      "duration": 0.1135,
      "velocity": 127,
      "chip": "ym2612"
    },
    {
      "channel": 0,
      "note": 61,
      "start": 20.0521,
      "duration": 0.115,
      "velocity": 109,
      "chip": "ym2612"
    },
    {
      "channel": 1,
      "note": 61,
      "start": 20.0538,
      "duration": 0.1135,
      "velocity": 109,
      "chip": "ym2612"
    },
    {
      "channel": 4,
      "note": 51,
      "start": 20.0544,
      "duration": 0.1134,
      "velocity": 127,
      "chip": "ym2612"
    },
    {
      "channel": 5,
      "note": 34,
      "start": 20.0546,
      "duration": 0.2467,
      "velocity": 127,
      "chip": "ym2612"
    },
    {
      "channel": 0,
      "note": 61,
      "start": 20.1853,
      "duration": 0.1151,
      "velocity": 109,
      "chip": "ym2612"
    },
    {
      "channel": 1,
      "note": 61,
      "start": 20.1871,
      "duration": 0.1136,
      "velocity": 109,
      "chip": "ym2612"
    },
    {
      "channel": 4,
      "note": 55,
      "start": 20.1876,
      "duration": 0.1135,
      "velocity": 127,
      "chip": "ym2612"
    },
    {
      "channel": 0,
      "note": 61,
      "start": 20.3173,
      "duration": 0.1165,
      "velocity": 109,
      "chip": "ym2612"
    },
    {
      "channel": 1,
      "note": 61,
      "start": 20.3175,
      "duration": 0.1165,
      "velocity": 109,
      "chip": "ym2612"
    },
    {
      "channel": 4,
      "note": 63,
      "start": 20.3181,
      "duration": 0.1163,
      "velocity": 127,
      "chip": "ym2612"
    },
    {
      "channel": 5,
      "note": 34,
      "start": 20.3198,
      "duration": 0.1148,
      "velocity": 127,
      "chip": "ym2612"
    },
    {
      "channel": 0,
      "note": 61,
      "start": 20.4521,
      "duration": 0.115,
      "velocity": 109,
      "chip": "ym2612"
    },
    {
      "channel": 1,
      "note": 61,
      "start": 20.4538,
      "duration": 0.1135,
      "velocity": 109,
      "chip": "ym2612"
    },
    {
      "channel": 4,
      "note": 43,
      "start": 20.4544,
      "duration": 0.1134,
      "velocity": 127,
      "chip": "ym2612"
    },
    {
      "channel": 5,
      "note": 26,
      "start": 20.4546,
      "duration": 0.1134,
      "velocity": 127,
      "chip": "ym2612"
    },
    {
      "channel": 0,
      "note": 61,
      "start": 20.5839,
      "duration": 0.1165,
      "velocity": 109,
      "chip": "ym2612"
    },
    {
      "channel": 1,
      "note": 61,
      "start": 20.5842,
      "duration": 0.1165,
      "velocity": 109,
      "chip": "ym2612"
    },
    {
      "channel": 4,
      "note": 51,
      "start": 20.5848,
      "duration": 0.1163,
      "velocity": 127,
      "chip": "ym2612"
    },
    {
      "channel": 5,
      "note": 26,
      "start": 20.5851,
      "duration": 0.2495,
      "velocity": 127,
      "chip": "ym2612"
    },
    {
      "channel": 0,
      "note": 61,
      "start": 20.7187,
      "duration": 0.1151,
      "velocity": 109,
      "chip": "ym2612"
    },
    {
      "channel": 1,
      "note": 61,
      "start": 20.7204,
      "duration": 0.1136,
      "velocity": 109,
      "chip": "ym2612"
    },
    {
      "channel": 4,
      "note": 31,
      "start": 20.721,
      "duration": 0.1135,
      "velocity": 127,
      "chip": "ym2612"
    },
    {
      "channel": 0,
      "note": 61,
      "start": 20.8521,
      "duration": 0.115,
      "velocity": 109,
      "chip": "ym2612"
    },
    {
      "channel": 1,
      "note": 61,
      "start": 20.8538,
      "duration": 0.1135,
      "velocity": 109,
      "chip": "ym2612"
    },
    {
      "channel": 4,
      "note": 39,
      "start": 20.8544,
      "duration": 0.1134,
      "velocity": 127,
      "chip": "ym2612"
    },
    {
      "channel": 5,
      "note": 26,
      "start": 20.8561,
      "duration": 0.2452,
      "velocity": 127,
      "chip": "ym2612"
    },
    {
      "channel": 0,
      "note": 61,
      "start": 20.9853,
      "duration": 0.1151,
      "velocity": 109,
      "chip": "ym2612"
    },
    {
      "channel": 1,
      "note": 61,
      "start": 20.9871,
      "duration": 0.1136,
      "velocity": 109,
      "chip": "ym2612"
    },
    {
      "channel": 4,
      "note": 19,
      "start": 20.9876,
      "duration": 0.1135,
      "velocity": 127,
      "chip": "ym2612"
    },
    {
      "channel": 0,
      "note": 61,
      "start": 21.1187,
      "duration": 0.115,
      "velocity": 109,
      "chip": "ym2612"
    },
    {
      "channel": 1,
      "note": 61,
      "start": 21.1205,
      "duration": 0.1135,
      "velocity": 109,
      "chip": "ym2612"
    },
    {
      "channel": 4,
      "note": 27,
      "start": 21.121,
      "duration": 0.1134,
      "velocity": 127,
      "chip": "ym2612"
    },
    {
      "channel": 5,
      "note": 22,
      "start": 21.1213,
      "duration": 0.2468,
      "velocity": 127,
      "chip": "ym2612"
    },
    {
      "channel": 0,
      "note": 61,
      "start": 21.252,
      "duration": 0.1151,
      "velocity": 109,
      "chip": "ym2612"
    },
    {
      "channel": 1,
      "note": 61,
      "start": 21.2537,
      "duration": 0.1136,
      "velocity": 109,
      "chip": "ym2612"
    },
    {
      "channel": 4,
      "note": 31,
      "start": 21.2543,
      "duration": 0.1136,
      "velocity": 127,
      "chip": "ym2612"
    },
    {
      "channel": 0,
      "note": 61,
      "start": 21.386,
      "duration": 0.1144,
      "velocity": 109,
      "chip": "ym2612"
    },
    {
      "channel": 1,
      "note": 61,
      "start": 21.3878,
      "duration": 0.1129,
      "velocity": 109,
      "chip": "ym2612"
    },
    {
      "channel": 2,
      "note": 76,
      "start": 21.388,
      "duration": 3.7128,
      "velocity": 92,
      "chip": "ym2612"
    },
    {
      "channel": 3,
      "note": 81,
      "start": 21.3883,
      "duration": 3.7127,
      "velocity": 92,
      "chip": "ym2612"
    },
    {
      "channel": 4,
      "note": 39,
      "start": 21.39,
      "duration": 0.1111,
      "velocity": 127,
      "chip": "ym2612"
    },
    {
      "channel": 5,
      "note": 22,
      "start": 21.3917,
      "duration": 0.2429,
      "velocity": 127,
      "chip": "ym2612"
    },
    {
      "channel": 0,
      "note": 61,
      "start": 21.5187,
      "duration": 0.1151,
      "velocity": 109,
      "chip": "ym2612"
    },
    {
      "channel": 1,
      "note": 61,
      "start": 21.5204,
      "duration": 0.1136,
      "velocity": 109,
      "chip": "ym2612"
    },
    {
      "channel": 4,
      "note": 43,
      "start": 21.521,
      "duration": 0.1135,
      "velocity": 127,
      "chip": "ym2612"
    },
    {
      "channel": 0,
      "note": 61,
      "start": 21.6506,
      "duration": 0.1165,
      "velocity": 109,
      "chip": "ym2612"
    },
    {
      "channel": 1,
      "note": 61,
      "start": 21.6509,
      "duration": 0.1165,
      "velocity": 109,
      "chip": "ym2612"
    },
    {
      "channel": 4,
      "note": 51,
      "start": 21.6514,
      "duration": 0.1163,
      "velocity": 127,
      "chip": "ym2612"
    },
    {
      "channel": 5,
      "note": 34,
      "start": 21.6532,
      "duration": 0.1148,
      "velocity": 127,
      "chip": "ym2612"
    },
    {
      "channel": 0,
      "note": 61,
      "start": 21.7854,
      "duration": 0.115,
      "velocity": 109,
      "chip": "ym2612"
    },
    {
      "channel": 1,
      "note": 61,
      "start": 21.7871,
      "duration": 0.1135,
      "velocity": 109,
      "chip": "ym2612"
    },
    {
      "channel": 4,
      "note": 55,
      "start": 21.7877,
      "duration": 0.1134,
      "velocity": 127,
      "chip": "ym2612"
    },
    {
      "channel": 5,
      "note": 26,
      "start": 21.7894,
      "duration": 0.1119,
      "velocity": 127,
      "chip": "ym2612"
    },
    {
      "channel": 0,
      "note": 61,
      "start": 21.9173,
      "duration": 0.1165,
      "velocity": 109,
      "chip": "ym2612"
    },
    {
      "channel": 1,
      "note": 61,
      "start": 21.9175,
      "duration": 0.1165,
      "velocity": 109,
      "chip": "ym2612"
    },
    {
      "channel": 4,
      "note": 63,
      "start": 21.9181,
      "duration": 0.1163,
      "velocity": 127,
      "chip": "ym2612"
    },
    {
      "channel": 5,
      "note": 39,
      "start": 21.9184,
      "duration": 0.2495,
      "velocity": 127,
      "chip": "ym2612"
    },
    {
      "channel": 0,
      "note": 61,
      "start": 22.052,
      "duration": 0.1151,
      "velocity": 109,
      "chip": "ym2612"
    },
    {
      "channel": 1,
      "note": 61,
      "start": 22.0537,
      "duration": 0.1136,
      "velocity": 109,
      "chip": "ym2612"
    },
    {
      "channel": 4,
      "note": 43,
      "start": 22.0543,
      "duration": 0.1135,
      "velocity": 127,
      "chip": "ym2612"
    },
    {
      "channel": 0,
      "note": 61,
      "start": 22.1855,
      "duration": 0.1149,
      "velocity": 109,
      "chip": "ym2612"
    },
    {
      "channel": 1,
      "note": 61,
      "start": 22.1872,
      "duration": 0.1135,
      "velocity": 109,
      "chip": "ym2612"
    },
    {
      "channel": 4,
      "note": 51,
      "start": 22.1892,
      "duration": 1.3119,
      "velocity": 127,
      "chip": "ym2612"
    },
    {
      "channel": 5,
      "note": 34,
      "start": 22.1895,
      "duration": 0.2451,
      "velocity": 127,
      "chip": "ym2612"
    },
    {
      "channel": 0,
      "note": 61,
      "start": 22.3187,
      "duration": 0.1151,
      "velocity": 109,
      "chip": "ym2612"
    },
    {
      "channel": 1,
      "note": 61,
      "start": 22.3204,
      "duration": 0.1136,
      "velocity": 109,
      "chip": "ym2612"
    },
    {
      "channel": 0,
      "note": 61,
      "start": 22.4507,
      "duration": 0.1164,
      "velocity": 109,
      "chip": "ym2612"
    },
    {
      "channel": 1,
      "note": 61,
      "start": 22.4509,
      "duration": 0.1164,
      "velocity": 109,
      "chip": "ym2612"
    },
    {
      "channel": 5,
      "note": 34,
      "start": 22.4531,
      "duration": 0.1148,
      "velocity": 127,
      "chip": "ym2612"
    },
    {
      "channel": 0,
      "note": 61,
      "start": 22.5854,
      "duration": 0.115,
      "velocity": 109,
      "chip": "ym2612"
    },
    {
      "channel": 1,
      "note": 61,
      "start": 22.5871,
      "duration": 0.1135,
      "velocity": 109,
      "chip": "ym2612"
    },
    {
      "channel": 5,
      "note": 26,
      "start": 22.5879,
      "duration": 0.1134,
      "velocity": 127,
      "chip": "ym2612"
    },
    {
      "channel": 0,
      "note": 61,
      "start": 22.7172,
      "duration": 0.1165,
      "velocity": 109,
      "chip": "ym2612"
    },
    {
      "channel": 1,
      "note": 61,
      "start": 22.7175,
      "duration": 0.1165,
      "velocity": 109,
      "chip": "ym2612"
    },
    {
      "channel": 5,
      "note": 26,
      "start": 22.7182,
      "duration": 0.2497,
      "velocity": 127,
      "chip": "ym2612"
    },
    {
      "channel": 0,
      "note": 61,
      "start": 22.852,
      "duration": 0.1151,
      "velocity": 109,
      "chip": "ym2612"
    },
    {
      "channel": 1,
      "note": 61,
      "start": 22.8537,
      "duration": 0.1136,
      "velocity": 109,
      "chip": "ym2612"
    },
    {
      "channel": 0,
      "note": 61,
      "start": 22.9854,
      "duration": 0.115,
      "velocity": 109,
      "chip": "ym2612"
    },
    {
      "channel": 1,
      "note": 61,
      "start": 22.9871,
      "duration": 0.1135,
      "velocity": 109,
      "chip": "ym2612"
    },
    {
      "channel": 5,
      "note": 26,
      "start": 22.9879,
      "duration": 0.2467,
      "velocity": 127,
      "chip": "ym2612"
    },
    {
      "channel": 0,
      "note": 61,
      "start": 23.1187,
      "duration": 0.1151,
      "velocity": 109,
      "chip": "ym2612"
    },
    {
      "channel": 1,
      "note": 61,
      "start": 23.1204,
      "duration": 0.1136,
      "velocity": 109,
      "chip": "ym2612"
    },
    {
      "channel": 0,
      "note": 61,
      "start": 23.2521,
      "duration": 0.115,
      "velocity": 109,
      "chip": "ym2612"
    },
    {
      "channel": 1,
      "note": 61,
      "start": 23.2538,
      "duration": 0.1135,
      "velocity": 109,
      "chip": "ym2612"
    },
    {
      "channel": 5,
      "note": 26,
      "start": 23.2545,
      "duration": 0.2468,
      "velocity": 127,
      "chip": "ym2612"
    },
    {
      "channel": 0,
      "note": 61,
      "start": 23.3853,
      "duration": 0.1151,
      "velocity": 109,
      "chip": "ym2612"
    },
    {
      "channel": 1,
      "note": 61,
      "start": 23.3871,
      "duration": 0.1136,
      "velocity": 109,
      "chip": "ym2612"
    },
    {
      "channel": 0,
      "note": 61,
      "start": 23.5191,
      "duration": 0.1146,
      "velocity": 109,
      "chip": "ym2612"
    },
    {
      "channel": 1,
      "note": 61,
      "start": 23.5208,
      "duration": 0.1132,
      "velocity": 109,
      "chip": "ym2612"
    },
    {
      "channel": 4,
      "note": 21,
      "start": 23.5229,
      "duration": 0.1116,
      "velocity": 127,
      "chip": "ym2612"
    },
    {
      "channel": 5,
      "note": 26,
      "start": 23.5246,
      "duration": 0.2434,
      "velocity": 127,
      "chip": "ym2612"
    },
    {
      "channel": 0,
      "note": 61,
      "start": 23.652,
      "duration": 0.1151,
      "velocity": 109,
      "chip": "ym2612"
    },
    {
      "channel": 1,
      "note": 61,
      "start": 23.6537,
      "duration": 0.1136,
      "velocity": 109,
      "chip": "ym2612"
    },
    {
      "channel": 4,
      "note": 19,
      "start": 23.6543,
      "duration": 0.1135,
      "velocity": 127,
      "chip": "ym2612"
    },
    {
      "channel": 0,
      "note": 61,
      "start": 23.7839,
      "duration": 0.1165,
      "velocity": 109,
      "chip": "ym2612"
    },
    {
      "channel": 1,
      "note": 61,
      "start": 23.7842,
      "duration": 0.1165,
      "velocity": 109,
      "chip": "ym2612"
    },
    {
      "channel": 4,
      "note": 27,
      "start": 23.7848,
      "duration": 0.1163,
      "velocity": 127,
      "chip": "ym2612"
    },
    {
      "channel": 5,
      "note": 34,
      "start": 23.7865,
      "duration": 0.1148,
      "velocity": 127,
      "chip": "ym2612"
    },
    {
      "channel": 0,
      "note": 61,
      "start": 23.9187,
      "duration": 0.115,
      "velocity": 109,
      "chip": "ym2612"
    },
    {
      "channel": 1,
      "note": 61,
      "start": 23.9205,
      "duration": 0.1135,
      "velocity": 109,
      "chip": "ym2612"
    },
    {
      "channel": 4,
      "note": 31,
      "start": 23.921,
      "duration": 0.1134,
      "velocity": 127,
      "chip": "ym2612"
    },
    {
      "channel": 5,
      "note": 26,
      "start": 23.9227,
      "duration": 0.1119,
      "velocity": 127,
      "chip": "ym2612"
    },
    {
      "channel": 0,
      "note": 61,
      "start": 24.0506,
      "duration": 0.1165,
      "velocity": 109,
      "chip": "ym2612"
    },
    {
      "channel": 1,
      "note": 61,
      "start": 24.0509,
      "duration": 0.1165,
      "velocity": 109,
      "chip": "ym2612"
    },
    {
      "channel": 4,
      "note": 39,
      "start": 24.0514,
      "duration": 0.1163,
      "velocity": 127,
      "chip": "ym2612"
    },
    {
      "channel": 5,
      "note": 39,
      "start": 24.0517,
      "duration": 0.2495,
      "velocity": 127,
      "chip": "ym2612"
    },
    {
      "channel": 0,
      "note": 61,
      "start": 24.1853,
      "duration": 0.1151,
      "velocity": 109,
      "chip": "ym2612"
    },
    {
      "channel": 1,
      "note": 61,
      "start": 24.1871,
      "duration": 0.1136,
      "velocity": 109,
      "chip": "ym2612"
    },
    {
      "channel": 4,
      "note": 43,
      "start": 24.1876,
      "duration": 0.1135,
      "velocity": 127,
      "chip": "ym2612"
    },
    {
      "channel": 0,
      "note": 61,
      "start": 24.3187,
      "duration": 0.115,
      "velocity": 109,
      "chip": "ym2612"
    },
    {
      "channel": 1,
      "note": 61,
      "start": 24.3205,
      "duration": 0.1135,
      "velocity": 109,
      "chip": "ym2612"
    },
    {
      "channel": 4,
      "note": 51,
      "start": 24.321,
      "duration": 0.1134,
      "velocity": 127,
      "chip": "ym2612"
    },
    {
      "channel": 5,
      "note": 34,
      "start": 24.3213,
      "duration": 0.2467,
      "velocity": 127,
      "chip": "ym2612"
    },
    {
      "channel": 0,
      "note": 61,
      "start": 24.4521,
      "duration": 0.115,
      "velocity": 109,
      "chip": "ym2612"
    },
    {
      "channel": 1,
      "note": 61,
      "start": 24.4538,
      "duration": 0.1135,
      "velocity": 109,
      "chip": "ym2612"
    },
    {
      "channel": 4,
      "note": 55,
      "start": 24.4544,
      "duration": 0.1134,
      "velocity": 127,
      "chip": "ym2612"
    },
    {
      "channel": 0,
      "note": 61,
      "start": 24.5839,
      "duration": 0.1165,
      "velocity": 109,
      "chip": "ym2612"
    },
    {
      "channel": 1,
      "note": 61,
      "start": 24.5842,
      "duration": 0.1165,
      "velocity": 109,
      "chip": "ym2612"
    },
    {
      "channel": 4,
      "note": 63,
      "start": 24.5848,
      "duration": 0.1163,
      "velocity": 127,
      "chip": "ym2612"
    },
    {
      "channel": 5,
      "note": 34,
      "start": 24.5865,
      "duration": 0.1148,
      "velocity": 127,
      "chip": "ym2612"
    },
    {
      "channel": 0,
      "note": 61,
      "start": 24.7187,
      "duration": 0.115,
      "velocity": 109,
      "chip": "ym2612"
    },
    {
      "channel": 1,
      "note": 61,
      "start": 24.7205,
      "duration": 0.1135,
      "velocity": 109,
      "chip": "ym2612"
    },
    {
      "channel": 4,
      "note": 43,
      "start": 24.721,
      "duration": 0.1134,
      "velocity": 127,
      "chip": "ym2612"
    },
    {
      "channel": 5,
      "note": 26,
      "start": 24.7213,
      "duration": 0.1134,
      "velocity": 127,
      "chip": "ym2612"
    },
    {
      "channel": 0,
      "note": 61,
      "start": 24.8506,
      "duration": 0.1165,
      "velocity": 109,
      "chip": "ym2612"
    },
    {
      "channel": 1,
      "note": 61,
      "start": 24.8509,
      "duration": 0.1165,
      "velocity": 109,
      "chip": "ym2612"
    },
    {
      "channel": 4,
      "note": 51,
      "start": 24.8514,
      "duration": 0.1163,
      "velocity": 127,
      "chip": "ym2612"
    },
    {
      "channel": 5,
      "note": 26,
      "start": 24.8517,
      "duration": 0.2497,
      "velocity": 127,
      "chip": "ym2612"
    },
    {
      "channel": 0,
      "note": 61,
      "start": 24.9853,
      "duration": 0.1151,
      "velocity": 109,
      "chip": "ym2612"
    },
    {
      "channel": 1,
      "note": 61,
      "start": 24.9871,
      "duration": 0.1136,
      "velocity": 109,
      "chip": "ym2612"
    },
    {
      "channel": 4,
      "note": 31,
      "start": 24.9876,
      "duration": 0.1136,
      "velocity": 127,
      "chip": "ym2612"
    },
    {
      "channel": 0,
      "note": 61,
      "start": 25.1189,
      "duration": 0.1148,
      "velocity": 109,
      "chip": "ym2612"
    },
    {
      "channel": 1,
      "note": 61,
      "start": 25.1206,
      "duration": 0.1134,
      "velocity": 109,
      "chip": "ym2612"
    },
    {
      "channel": 2,
      "note": 76,
      "start": 25.1224,
      "duration": 0.5118,
      "velocity": 92,
      "chip": "ym2612"
    },
    {
      "channel": 3,
      "note": 80,
      "start": 25.1226,
      "duration": 0.5117,
      "velocity": 92,
      "chip": "ym2612"
    },
    {
      "channel": 4,
      "note": 39,
      "start": 25.1229,
      "duration": 0.1116,
      "velocity": 127,
      "chip": "ym2612"
    },
    {
      "channel": 5,
      "note": 26,
      "start": 25.1246,
      "duration": 0.2434,
      "velocity": 127,
      "chip": "ym2612"
    },
    {
      "channel": 0,
      "note": 61,
      "start": 25.252,
      "duration": 0.1151,
      "velocity": 109,
      "chip": "ym2612"
    },
    {
      "channel": 1,
      "note": 61,
      "start": 25.2537,
      "duration": 0.1136,
      "velocity": 109,
      "chip": "ym2612"
    },
    {
      "channel": 4,
      "note": 19,
      "start": 25.2543,
      "duration": 0.1135,
      "velocity": 127,
      "chip": "ym2612"
    },
    {
      "channel": 0,
      "note": 61,
      "start": 25.3854,
      "duration": 0.115,
      "velocity": 109,
      "chip": "ym2612"
    },
    {
      "channel": 1,
      "note": 61,
      "start": 25.3871,
      "duration": 0.1135,
      "velocity": 109,
      "chip": "ym2612"
    },
    {
      "channel": 4,
      "note": 27,
      "start": 25.3877,
      "duration": 0.1134,
      "velocity": 127,
      "chip": "ym2612"
    },
    {
      "channel": 5,
      "note": 22,
      "start": 25.3879,
      "duration": 0.2468,
      "velocity": 127,
      "chip": "ym2612"
    },
    {
      "channel": 0,
      "note": 61,
      "start": 25.5187,
      "duration": 0.1151,
      "velocity": 109,
      "chip": "ym2612"
    },
    {
      "channel": 1,
      "note": 61,
      "start": 25.5204,
      "duration": 0.1136,
      "velocity": 109,
      "chip": "ym2612"
    },
    {
      "channel": 4,
      "note": 31,
      "start": 25.521,
      "duration": 0.1136,
      "velocity": 127,
      "chip": "ym2612"
    },
    {
      "channel": 0,
      "note": 61,
      "start": 25.6527,
      "duration": 0.1144,
      "velocity": 109,
      "chip": "ym2612"
    },
    {
      "channel": 1,
      "note": 61,
      "start": 25.6544,
      "duration": 0.1129,
      "velocity": 109,
      "chip": "ym2612"
    },
    {
      "channel": 2,
      "note": 56,
      "start": 25.6547,
      "duration": 4.2461,
      "velocity": 92,
      "chip": "ym2612"
    },
    {
      "channel": 3,
      "note": 68,
      "start": 25.6549,
      "duration": 4.2461,
      "velocity": 92,
      "chip": "ym2612"
    },
    {
      "channel": 4,
      "note": 39,
      "start": 25.6566,
      "duration": 0.1111,
      "velocity": 127,
      "chip": "ym2612"
    },
    {
      "channel": 5,
      "note": 22,
      "start": 25.6584,
      "duration": 0.2429,
      "velocity": 127,
      "chip": "ym2612"
    },
    {
      "channel": 0,
      "note": 60,
      "start": 25.7853,
      "duration": 0.1151,
      "velocity": 109,
      "chip": "ym2612"
    },
    {
      "channel": 1,
      "note": 61,
      "start": 25.7871,
      "duration": 0.1136,
      "velocity": 109,
      "chip": "ym2612"
    },
    {
      "channel": 4,
      "note": 43,
      "start": 25.7876,
      "duration": 0.1135,
      "velocity": 127,
      "chip": "ym2612"
    },
    {
      "channel": 0,
      "note": 60,
      "start": 25.9173,
      "duration": 0.1165,
      "velocity": 109,
      "chip": "ym2612"
    },
    {
      "channel": 1,
      "note": 61,
      "start": 25.9175,
      "duration": 0.1165,
      "velocity": 109,
      "chip": "ym2612"
    },
    {
      "channel": 4,
      "note": 51,
      "start": 25.9181,
      "duration": 0.1163,
      "velocity": 127,
      "chip": "ym2612"
    },
    {
      "channel": 5,
      "note": 34,
      "start": 25.9198,
      "duration": 0.1148,
      "velocity": 127,
      "chip": "ym2612"
    },
    {
      "channel": 0,
      "note": 60,
      "start": 26.0521,
      "duration": 0.115,
      "velocity": 109,
      "chip": "ym2612"
    },
    {
      "channel": 1,
      "note": 61,
      "start": 26.0538,
      "duration": 0.1135,
      "velocity": 109,
      "chip": "ym2612"
    },
    {
      "channel": 4,
      "note": 55,
      "start": 26.0544,
      "duration": 0.1134,
      "velocity": 127,
      "chip": "ym2612"
    },
    {
      "channel": 5,
      "note": 26,
      "start": 26.0561,
      "duration": 0.1119,
      "velocity": 127,
      "chip": "ym2612"
    },
    {
      "channel": 0,
      "note": 60,
      "start": 26.1839,
      "duration": 0.1165,
      "velocity": 109,
      "chip": "ym2612"
    },
    {
      "channel": 1,
      "note": 61,
      "start": 26.1842,
      "duration": 0.1165,
      "velocity": 109,
      "chip": "ym2612"
    },
    {
      "channel": 4,
      "note": 63,
      "start": 26.1848,
      "duration": 0.1163,
      "velocity": 127,
      "chip": "ym2612"
    },
    {
      "channel": 5,
      "note": 39,
      "start": 26.1851,
      "duration": 0.2495,
      "velocity": 127,
      "chip": "ym2612"
    },
    {
      "channel": 0,
      "note": 60,
      "start": 26.3187,
      "duration": 0.1151,
      "velocity": 109,
      "chip": "ym2612"
    },
    {
      "channel": 1,
      "note": 61,
      "start": 26.3204,
      "duration": 0.1136,
      "velocity": 109,
      "chip": "ym2612"
    },
    {
      "channel": 4,
      "note": 43,
      "start": 26.321,
      "duration": 0.1135,
      "velocity": 127,
      "chip": "ym2612"
    },
    {
      "channel": 0,
      "note": 60,
      "start": 26.4521,
      "duration": 0.1149,
      "velocity": 109,
      "chip": "ym2612"
    },
    {
      "channel": 1,
      "note": 61,
      "start": 26.4538,
      "duration": 0.1135,
      "velocity": 109,
      "chip": "ym2612"
    },
    {
      "channel": 4,
      "note": 51,
      "start": 26.4559,
      "duration": 1.3119,
      "velocity": 127,
      "chip": "ym2612"
    },
    {
      "channel": 5,
      "note": 34,
      "start": 26.4561,
      "duration": 0.2451,
      "velocity": 127,
      "chip": "ym2612"
    },
    {
      "channel": 0,
      "note": 60,
      "start": 26.5853,
      "duration": 0.1151,
      "velocity": 109,
      "chip": "ym2612"
    },
    {
      "channel": 1,
      "note": 61,
      "start": 26.5871,
      "duration": 0.1136,
      "velocity": 109,
      "chip": "ym2612"
    },
    {
      "channel": 0,
      "note": 60,
      "start": 26.7173,
      "duration": 0.1164,
      "velocity": 109,
      "chip": "ym2612"
    },
    {
      "channel": 1,
      "note": 61,
      "start": 26.7176,
      "duration": 0.1164,
      "velocity": 109,
      "chip": "ym2612"
    },
    {
      "channel": 5,
      "note": 34,
      "start": 26.7198,
      "duration": 0.1148,
      "velocity": 127,
      "chip": "ym2612"
    },
    {
      "channel": 0,
      "note": 60,
      "start": 26.8521,
      "duration": 0.115,
      "velocity": 109,
      "chip": "ym2612"
    },
    {
      "channel": 1,
      "note": 61,
      "start": 26.8538,
      "duration": 0.1135,
      "velocity": 109,
      "chip": "ym2612"
    },
    {
      "channel": 5,
      "note": 26,
      "start": 26.8545,
      "duration": 0.1134,
      "velocity": 127,
      "chip": "ym2612"
    },
    {
      "channel": 0,
      "note": 60,
      "start": 26.9839,
      "duration": 0.1165,
      "velocity": 109,
      "chip": "ym2612"
    },
    {
      "channel": 1,
      "note": 61,
      "start": 26.9841,
      "duration": 0.1165,
      "velocity": 109,
      "chip": "ym2612"
    },
    {
      "channel": 5,
      "note": 26,
      "start": 26.9849,
      "duration": 0.2497,
      "velocity": 127,
      "chip": "ym2612"
    },
    {
      "channel": 0,
      "note": 60,
      "start": 27.1187,
      "duration": 0.1151,
      "velocity": 109,
      "chip": "ym2612"
    },
    {
      "channel": 1,
      "note": 61,
      "start": 27.1204,
      "duration": 0.1136,
      "velocity": 109,
      "chip": "ym2612"
    },
    {
      "channel": 0,
      "note": 60,
      "start": 27.2521,
      "duration": 0.115,
      "velocity": 109,
      "chip": "ym2612"
    },
    {
      "channel": 1,
      "note": 61,
      "start": 27.2538,
      "duration": 0.1135,
      "velocity": 109,
      "chip": "ym2612"
    },
    {
      "channel": 5,
      "note": 26,
      "start": 27.2545,
      "duration": 0.2467,
      "velocity": 127,
      "chip": "ym2612"
    },
    {
      "channel": 0,
      "note": 60,
      "start": 27.3853,
      "duration": 0.1151,
      "velocity": 109,
      "chip": "ym2612"
    },
    {
      "channel": 1,
      "note": 61,
      "start": 27.3871,
      "duration": 0.1136,
      "velocity": 109,
      "chip": "ym2612"
    },
    {
      "channel": 0,
      "note": 60,
      "start": 27.5187,
      "duration": 0.115,
      "velocity": 109,
      "chip": "ym2612"
    },
    {
      "channel": 1,
      "note": 61,
      "start": 27.5205,
      "duration": 0.1135,
      "velocity": 109,
      "chip": "ym2612"
    },
    {
      "channel": 5,
      "note": 26,
      "start": 27.5212,
      "duration": 0.2468,
      "velocity": 127,
      "chip": "ym2612"
    },
    {
      "channel": 0,
      "note": 60,
      "start": 27.652,
      "duration": 0.1151,
      "velocity": 109,
      "chip": "ym2612"
    },
    {
      "channel": 1,
      "note": 61,
      "start": 27.6537,
      "duration": 0.1136,
      "velocity": 109,
      "chip": "ym2612"
    },
    {
      "channel": 0,
      "note": 60,
      "start": 27.7858,
      "duration": 0.1146,
      "velocity": 109,
      "chip": "ym2612"
    },
    {
      "channel": 1,
      "note": 61,
      "start": 27.7875,
      "duration": 0.1132,
      "velocity": 109,
      "chip": "ym2612"
    },
    {
      "channel": 4,
      "note": 21,
      "start": 27.7895,
      "duration": 0.1116,
      "velocity": 127,
      "chip": "ym2612"
    },
    {
      "channel": 5,
      "note": 26,
      "start": 27.7912,
      "duration": 0.2434,
      "velocity": 127,
      "chip": "ym2612"
    },
    {
      "channel": 0,
      "note": 61,
      "start": 27.9187,
      "duration": 0.1151,
      "velocity": 109,
      "chip": "ym2612"
    },
    {
      "channel": 1,
      "note": 61,
      "start": 27.9204,
      "duration": 0.1136,
      "velocity": 109,
      "chip": "ym2612"
    },
    {
      "channel": 4,
      "note": 19,
      "start": 27.921,
      "duration": 0.1135,
      "velocity": 127,
      "chip": "ym2612"
    },
    {
      "channel": 0,
      "note": 61,
      "start": 28.0506,
      "duration": 0.1165,
      "velocity": 109,
      "chip": "ym2612"
    },
    {
      "channel": 1,
      "note": 61,
      "start": 28.0509,
      "duration": 0.1165,
      "velocity": 109,
      "chip": "ym2612"
    },
    {
      "channel": 4,
      "note": 27,
      "start": 28.0514,
      "duration": 0.1163,
      "velocity": 127,
      "chip": "ym2612"
    },
    {
      "channel": 5,
      "note": 34,
      "start": 28.0532,
      "duration": 0.1148,
      "velocity": 127,
      "chip": "ym2612"
    },
    {
      "channel": 0,
      "note": 61,
      "start": 28.1854,
      "duration": 0.115,
      "velocity": 109,
      "chip": "ym2612"
    },
    {
      "channel": 1,
      "note": 61,
      "start": 28.1871,
      "duration": 0.1135,
      "velocity": 109,
      "chip": "ym2612"
    },
    {
      "channel": 4,
      "note": 31,
      "start": 28.1877,
      "duration": 0.1134,
      "velocity": 127,
      "chip": "ym2612"
    },
    {
      "channel": 5,
      "note": 26,
      "start": 28.1894,
      "duration": 0.1119,
      "velocity": 127,
      "chip": "ym2612"
    },
    {
      "channel": 0,
      "note": 61,
      "start": 28.3173,
      "duration": 0.1165,
      "velocity": 109,
      "chip": "ym2612"
    },
    {
      "channel": 1,
      "note": 61,
      "start": 28.3175,
      "duration": 0.1165,
      "velocity": 109,
      "chip": "ym2612"
    },
    {
      "channel": 4,
      "note": 39,
      "start": 28.3181,
      "duration": 0.1163,
      "velocity": 127,
      "chip": "ym2612"
    },
    {
      "channel": 5,
      "note": 39,
      "start": 28.3184,
      "duration": 0.2495,
      "velocity": 127,
      "chip": "ym2612"
    },
    {
      "channel": 0,
      "note": 61,
      "start": 28.452,
      "duration": 0.1151,
      "velocity": 109,
      "chip": "ym2612"
    },
    {
      "channel": 1,
      "note": 61,
      "start": 28.4537,
      "duration": 0.1136,
      "velocity": 109,
      "chip": "ym2612"
    },
    {
      "channel": 4,
      "note": 43,
      "start": 28.4543,
      "duration": 0.1135,
      "velocity": 127,
      "chip": "ym2612"
    },
    {
      "channel": 0,
      "note": 61,
      "start": 28.5854,
      "duration": 0.115,
      "velocity": 109,
      "chip": "ym2612"
    },
    {
      "channel": 1,
      "note": 61,
      "start": 28.5871,
      "duration": 0.1135,
      "velocity": 109,
      "chip": "ym2612"
    },
    {
      "channel": 4,
      "note": 51,
      "start": 28.5877,
      "duration": 0.1134,
      "velocity": 127,
      "chip": "ym2612"
    },
    {
      "channel": 5,
      "note": 34,
      "start": 28.5879,
      "duration": 0.2467,
      "velocity": 127,
      "chip": "ym2612"
    },
    {
      "channel": 0,
      "note": 61,
      "start": 28.7187,
      "duration": 0.1151,
      "velocity": 109,
      "chip": "ym2612"
    },
    {
      "channel": 1,
      "note": 61,
      "start": 28.7204,
      "duration": 0.1136,
      "velocity": 109,
      "chip": "ym2612"
    },
    {
      "channel": 4,
      "note": 55,
      "start": 28.721,
      "duration": 0.1135,
      "velocity": 127,
      "chip": "ym2612"
    },
    {
      "channel": 0,
      "note": 61,
      "start": 28.8506,
      "duration": 0.1165,
      "velocity": 109,
      "chip": "ym2612"
    },
    {
      "channel": 1,
      "note": 61,
      "start": 28.8509,
      "duration": 0.1165,
      "velocity": 109,
      "chip": "ym2612"
    },
    {
      "channel": 4,
      "note": 63,
      "start": 28.8514,
      "duration": 0.1163,
      "velocity": 127,
      "chip": "ym2612"
    },
    {
      "channel": 5,
      "note": 34,
      "start": 28.8532,
      "duration": 0.1148,
      "velocity": 127,
      "chip": "ym2612"
    },
    {
      "channel": 0,
      "note": 61,
      "start": 28.9854,
      "duration": 0.115,
      "velocity": 109,
      "chip": "ym2612"
    },
    {
      "channel": 1,
      "note": 61,
      "start": 28.9871,
      "duration": 0.1135,
      "velocity": 109,
      "chip": "ym2612"
    },
    {
      "channel": 4,
      "note": 43,
      "start": 28.9877,
      "duration": 0.1134,
      "velocity": 127,
      "chip": "ym2612"
    },
    {
      "channel": 5,
      "note": 26,
      "start": 28.9879,
      "duration": 0.1134,
      "velocity": 127,
      "chip": "ym2612"
    },
    {
      "channel": 0,
      "note": 61,
      "start": 29.1173,
      "duration": 0.1165,
      "velocity": 109,
      "chip": "ym2612"
    },
    {
      "channel": 1,
      "note": 61,
      "start": 29.1175,
      "duration": 0.1165,
      "velocity": 109,
      "chip": "ym2612"
    },
    {
      "channel": 4,
      "note": 51,
      "start": 29.1181,
      "duration": 0.1163,
      "velocity": 127,
      "chip": "ym2612"
    },
    {
      "channel": 5,
      "note": 26,
      "start": 29.1184,
      "duration": 0.2495,
      "velocity": 127,
      "chip": "ym2612"
    },
    {
      "channel": 0,
      "note": 61,
      "start": 29.252,
      "duration": 0.1151,
      "velocity": 109,
      "chip": "ym2612"
    },
    {
      "channel": 1,
      "note": 61,
      "start": 29.2537,
      "duration": 0.1136,
      "velocity": 109,
      "chip": "ym2612"
    },
    {
      "channel": 4,
      "note": 31,
      "start": 29.2543,
      "duration": 0.1135,
      "velocity": 127,
      "chip": "ym2612"
    },
    {
      "channel": 0,
      "note": 61,
      "start": 29.3854,
      "duration": 0.115,
      "velocity": 109,
      "chip": "ym2612"
    },
    {
      "channel": 1,
      "note": 61,
      "start": 29.3871,
      "duration": 0.1135,
      "velocity": 109,
      "chip": "ym2612"
    },
    {
      "channel": 4,
      "note": 39,
      "start": 29.3877,
      "duration": 0.1134,
      "velocity": 127,
      "chip": "ym2612"
    },
    {
      "channel": 5,
      "note": 26,
      "start": 29.3894,
      "duration": 0.2452,
      "velocity": 127,
      "chip": "ym2612"
    },
    {
      "channel": 0,
      "note": 61,
      "start": 29.5187,
      "duration": 0.1151,
      "velocity": 109,
      "chip": "ym2612"
    },
    {
      "channel": 1,
      "note": 61,
      "start": 29.5204,
      "duration": 0.1136,
      "velocity": 109,
      "chip": "ym2612"
    },
    {
      "channel": 4,
      "note": 19,
      "start": 29.521,
      "duration": 0.1135,
      "velocity": 127,
      "chip": "ym2612"
    },
    {
      "channel": 0,
      "note": 61,
      "start": 29.6521,
      "duration": 0.115,
      "velocity": 109,
      "chip": "ym2612"
    },
    {
      "channel": 1,
      "note": 61,
      "start": 29.6538,
      "duration": 0.1135,
      "velocity": 109,
      "chip": "ym2612"
    },
    {
      "channel": 4,
      "note": 27,
      "start": 29.6544,
      "duration": 0.1134,
      "velocity": 127,
      "chip": "ym2612"
    },
    {
      "channel": 5,
      "note": 22,
      "start": 29.6546,
      "duration": 0.2468,
      "velocity": 127,
      "chip": "ym2612"
    },
    {
      "channel": 0,
      "note": 61,
      "start": 29.7853,
      "duration": 0.1151,
      "velocity": 109,
      "chip": "ym2612"
    },
    {
      "channel": 1,
      "note": 61,
      "start": 29.7871,
      "duration": 0.1136,
      "velocity": 109,
      "chip": "ym2612"
    },
    {
      "channel": 4,
      "note": 31,
      "start": 29.7876,
      "duration": 0.1136,
      "velocity": 127,
      "chip": "ym2612"
    },
    {
      "channel": 0,
      "note": 61,
      "start": 29.9194,
      "duration": 0.1144,
      "velocity": 109,
      "chip": "ym2612"
    },
    {
      "channel": 1,
      "note": 61,
      "start": 29.9211,
      "duration": 0.1129,
      "velocity": 109,
      "chip": "ym2612"
    },
    {
      "channel": 2,
      "note": 57,
      "start": 29.9213,
      "duration": 3.7128,
      "velocity": 92,
      "chip": "ym2612"
    },
    {
      "channel": 3,
      "note": 69,
      "start": 29.9216,
      "duration": 3.7127,
      "velocity": 92,
      "chip": "ym2612"
    },
    {
      "channel": 4,
      "note": 39,
      "start": 29.9233,
      "duration": 0.1111,
      "velocity": 127,
      "chip": "ym2612"
    },
    {
      "channel": 5,
      "note": 22,
      "start": 29.925,
      "duration": 0.2429,
      "velocity": 127,
      "chip": "ym2612"
    },
    {
      "channel": 0,
      "note": 61,
      "start": 30.052,
      "duration": 0.1151,
      "velocity": 109,
      "chip": "ym2612"
    },
    {
      "channel": 1,
      "note": 61,
      "start": 30.0537,
      "duration": 0.1136,
      "velocity": 109,
      "chip": "ym2612"
    },
    {
      "channel": 4,
      "note": 43,
      "start": 30.0543,
      "duration": 0.1135,
      "velocity": 127,
      "chip": "ym2612"
    },
    {
      "channel": 0,
      "note": 61,
      "start": 30.1839,
      "duration": 0.1165,
      "velocity": 109,
      "chip": "ym2612"
    },
    {
      "channel": 1,
      "note": 61,
      "start": 30.1842,
      "duration": 0.1165,
      "velocity": 109,
      "chip": "ym2612"
    },
    {
      "channel": 4,
      "note": 51,
      "start": 30.1848,
      "duration": 0.1163,
      "velocity": 127,
      "chip": "ym2612"
    },
    {
      "channel": 5,
      "note": 34,
      "start": 30.1865,
      "duration": 0.1148,
      "velocity": 127,
      "chip": "ym2612"
    },
    {
      "channel": 0,
      "note": 61,
      "start": 30.3187,
      "duration": 0.115,
      "velocity": 109,
      "chip": "ym2612"
    },
    {
      "channel": 1,
      "note": 61,
      "start": 30.3205,
      "duration": 0.1135,
      "velocity": 109,
      "chip": "ym2612"
    },
    {
      "channel": 4,
      "note": 55,
      "start": 30.321,
      "duration": 0.1134,
      "velocity": 127,
      "chip": "ym2612"
    },
    {
      "channel": 5,
      "note": 26,
      "start": 30.3227,
      "duration": 0.1119,
      "velocity": 127,
      "chip": "ym2612"
    },
    {
      "channel": 0,
      "note": 61,
      "start": 30.4506,
      "duration": 0.1165,
      "velocity": 109,
      "chip": "ym2612"
    },
    {
      "channel": 1,
      "note": 61,
      "start": 30.4509,
      "duration": 0.1165,
      "velocity": 109,
      "chip": "ym2612"
    },
    {
      "channel": 4,
      "note": 63,
      "start": 30.4514,
      "duration": 0.1163,
      "velocity": 127,
      "chip": "ym2612"
    },
    {
      "channel": 5,
      "note": 39,
      "start": 30.4517,
      "duration": 0.2495,
      "velocity": 127,
      "chip": "ym2612"
    },
    {
      "channel": 0,
      "note": 61,
      "start": 30.5853,
      "duration": 0.1151,
      "velocity": 109,
      "chip": "ym2612"
    },
    {
      "channel": 1,
      "note": 61,
      "start": 30.5871,
      "duration": 0.1136,
      "velocity": 109,
      "chip": "ym2612"
    },
    {
      "channel": 4,
      "note": 43,
      "start": 30.5876,
      "duration": 0.1135,
      "velocity": 127,
      "chip": "ym2612"
    },
    {
      "channel": 0,
      "note": 61,
      "start": 30.7188,
      "duration": 0.1149,
      "velocity": 109,
      "chip": "ym2612"
    },
    {
      "channel": 1,
      "note": 61,
      "start": 30.7205,
      "duration": 0.1135,
      "velocity": 109,
      "chip": "ym2612"
    },
    {
      "channel": 4,
      "note": 51,
      "start": 30.7225,
      "duration": 1.3119,
      "velocity": 127,
      "chip": "ym2612"
    },
    {
      "channel": 5,
      "note": 34,
      "start": 30.7228,
      "duration": 0.2451,
      "velocity": 127,
      "chip": "ym2612"
    },
    {
      "channel": 0,
      "note": 61,
      "start": 30.852,
      "duration": 0.1151,
      "velocity": 109,
      "chip": "ym2612"
    },
    {
      "channel": 1,
      "note": 61,
      "start": 30.8537,
      "duration": 0.1136,
      "velocity": 109,
      "chip": "ym2612"
    },
    {
      "channel": 0,
      "note": 61,
      "start": 30.984,
      "duration": 0.1164,
      "velocity": 109,
      "chip": "ym2612"
    },
    {
      "channel": 1,
      "note": 61,
      "start": 30.9842,
      "duration": 0.1164,
      "velocity": 109,
      "chip": "ym2612"
    },
    {
      "channel": 5,
      "note": 34,
      "start": 30.9864,
      "duration": 0.1148,
      "velocity": 127,
      "chip": "ym2612"
    },
    {
      "channel": 0,
      "note": 61,
      "start": 31.1187,
      "duration": 0.115,
      "velocity": 109,
      "chip": "ym2612"
    },
    {
      "channel": 1,
      "note": 61,
      "start": 31.1205,
      "duration": 0.1135,
      "velocity": 109,
      "chip": "ym2612"
    },
    {
      "channel": 5,
      "note": 26,
      "start": 31.1212,
      "duration": 0.1134,
      "velocity": 127,
      "chip": "ym2612"
    },
    {
      "channel": 0,
      "note": 61,
      "start": 31.2505,
      "duration": 0.1165,
      "velocity": 109,
      "chip": "ym2612"
    },
    {
      "channel": 1,
      "note": 61,
      "start": 31.2508,
      "duration": 0.1165,
      "velocity": 109,
      "chip": "ym2612"
    },
    {
      "channel": 5,
      "note": 26,
      "start": 31.2515,
      "duration": 0.2497,
      "velocity": 127,
      "chip": "ym2612"
    },
    {
      "channel": 0,
      "note": 61,
      "start": 31.3853,
      "duration": 0.1151,
      "velocity": 109,
      "chip": "ym2612"
    },
    {
      "channel": 1,
      "note": 61,
      "start": 31.3871,
      "duration": 0.1136,
      "velocity": 109,
      "chip": "ym2612"
    },
    {
      "channel": 0,
      "note": 61,
      "start": 31.5187,
      "duration": 0.115,
      "velocity": 109,
      "chip": "ym2612"
    },
    {
      "channel": 1,
      "note": 61,
      "start": 31.5205,
      "duration": 0.1135,
      "velocity": 109,
      "chip": "ym2612"
    },
    {
      "channel": 5,
      "note": 26,
      "start": 31.5212,
      "duration": 0.2467,
      "velocity": 127,
      "chip": "ym2612"
    },
    {
      "channel": 0,
      "note": 61,
      "start": 31.652,
      "duration": 0.1151,
      "velocity": 109,
      "chip": "ym2612"
    },
    {
      "channel": 1,
      "note": 61,
      "start": 31.6537,
      "duration": 0.1136,
      "velocity": 109,
      "chip": "ym2612"
    },
    {
      "channel": 0,
      "note": 61,
      "start": 31.7854,
      "duration": 0.115,
      "velocity": 109,
      "chip": "ym2612"
    },
    {
      "channel": 1,
      "note": 61,
      "start": 31.7871,
      "duration": 0.1135,
      "velocity": 109,
      "chip": "ym2612"
    },
    {
      "channel": 5,
      "note": 26,
      "start": 31.7879,
      "duration": 0.2468,
      "velocity": 127,
      "chip": "ym2612"
    },
    {
      "channel": 0,
      "note": 61,
      "start": 31.9187,
      "duration": 0.1151,
      "velocity": 109,
      "chip": "ym2612"
    },
    {
      "channel": 1,
      "note": 61,
      "start": 31.9204,
      "duration": 0.1136,
      "velocity": 109,
      "chip": "ym2612"
    },
    {
      "channel": 0,
      "note": 61,
      "start": 32.0524,
      "duration": 0.1146,
      "velocity": 109,
      "chip": "ym2612"
    },
    {
      "channel": 1,
      "note": 61,
      "start": 32.0541,
      "duration": 0.1132,
      "velocity": 109,
      "chip": "ym2612"
    },
    {
      "channel": 4,
      "note": 21,
      "start": 32.0562,
      "duration": 0.1116,
      "velocity": 127,
      "chip": "ym2612"
    },
    {
      "channel": 5,
      "note": 26,
      "start": 32.0579,
      "duration": 0.2434,
      "velocity": 127,
      "chip": "ym2612"
    },
    {
      "channel": 0,
      "note": 61,
      "start": 32.1853,
      "duration": 0.1151,
      "velocity": 109,
      "chip": "ym2612"
    },
    {
      "channel": 1,
      "note": 61,
      "start": 32.1871,
      "duration": 0.1136,
      "velocity": 109,
      "chip": "ym2612"
    },
    {
      "channel": 4,
      "note": 19,
      "start": 32.1876,
      "duration": 0.1135,
      "velocity": 127,
      "chip": "ym2612"
    },
    {
      "channel": 0,
      "note": 61,
      "start": 32.3173,
      "duration": 0.1165,
      "velocity": 109,
      "chip": "ym2612"
    },
    {
      "channel": 1,
      "note": 61,
      "start": 32.3175,
      "duration": 0.1165,
      "velocity": 109,
      "chip": "ym2612"
    },
    {
      "channel": 4,
      "note": 27,
      "start": 32.3181,
      "duration": 0.1163,
      "velocity": 127,
      "chip": "ym2612"
    },
    {
      "channel": 5,
      "note": 34,
      "start": 32.3198,
      "duration": 0.1148,
      "velocity": 127,
      "chip": "ym2612"
    },
    {
      "channel": 0,
      "note": 61,
      "start": 32.4521,
      "duration": 0.115,
      "velocity": 109,
      "chip": "ym2612"
    },
    {
      "channel": 1,
      "note": 61,
      "start": 32.4538,
      "duration": 0.1135,
      "velocity": 109,
      "chip": "ym2612"
    },
    {
      "channel": 4,
      "note": 31,
      "start": 32.4544,
      "duration": 0.1134,
      "velocity": 127,
      "chip": "ym2612"
    },
    {
      "channel": 5,
      "note": 26,
      "start": 32.4561,
      "duration": 0.1119,
      "velocity": 127,
      "chip": "ym2612"
    },
    {
      "channel": 0,
      "note": 61,
      "start": 32.5839,
      "duration": 0.1165,
      "velocity": 109,
      "chip": "ym2612"
    },
    {
      "channel": 1,
      "note": 61,
      "start": 32.5842,
      "duration": 0.1165,
      "velocity": 109,
      "chip": "ym2612"
    },
    {
      "channel": 4,
      "note": 39,
      "start": 32.5848,
      "duration": 0.1163,
      "velocity": 127,
      "chip": "ym2612"
    },
    {
      "channel": 5,
      "note": 39,
      "start": 32.5851,
      "duration": 0.2495,
      "velocity": 127,
      "chip": "ym2612"
    },
    {
      "channel": 0,
      "note": 61,
      "start": 32.7187,
      "duration": 0.1151,
      "velocity": 109,
      "chip": "ym2612"
    },
    {
      "channel": 1,
      "note": 61,
      "start": 32.7204,
      "duration": 0.1136,
      "velocity": 109,
      "chip": "ym2612"
    },
    {
      "channel": 4,
      "note": 43,
      "start": 32.721,
      "duration": 0.1135,
      "velocity": 127,
      "chip": "ym2612"
    },
    {
      "channel": 0,
      "note": 61,
      "start": 32.8521,
      "duration": 0.115,
      "velocity": 109,
      "chip": "ym2612"
    },
    {
      "channel": 1,
      "note": 61,
      "start": 32.8538,
      "duration": 0.1135,
      "velocity": 109,
      "chip": "ym2612"
    },
    {
      "channel": 4,
      "note": 51,
      "start": 32.8544,
      "duration": 0.1134,
      "velocity": 127,
      "chip": "ym2612"
    },
    {
      "channel": 5,
      "note": 34,
      "start": 32.8546,
      "duration": 0.2467,
      "velocity": 127,
      "chip": "ym2612"
    },
    {
      "channel": 0,
      "note": 61,
      "start": 32.9853,
      "duration": 0.1151,
      "velocity": 109,
      "chip": "ym2612"
    },
    {
      "channel": 1,
      "note": 61,
      "start": 32.9871,
      "duration": 0.1136,
      "velocity": 109,
      "chip": "ym2612"
    },
    {
      "channel": 4,
      "note": 55,
      "start": 32.9876,
      "duration": 0.1135,
      "velocity": 127,
      "chip": "ym2612"
    },
    {
      "channel": 0,
      "note": 61,
      "start": 33.1173,
      "duration": 0.1165,
      "velocity": 109,
      "chip": "ym2612"
    },
    {
      "channel": 1,
      "note": 61,
      "start": 33.1175,
      "duration": 0.1165,
      "velocity": 109,
      "chip": "ym2612"
    },
    {
      "channel": 4,
      "note": 63,
      "start": 33.1181,
      "duration": 0.1163,
      "velocity": 127,
      "chip": "ym2612"
    },
    {
      "channel": 5,
      "note": 34,
      "start": 33.1198,
      "duration": 0.1148,
      "velocity": 127,
      "chip": "ym2612"
    },
    {
      "channel": 0,
      "note": 61,
      "start": 33.2521,
      "duration": 0.115,
      "velocity": 109,
      "chip": "ym2612"
    },
    {
      "channel": 1,
      "note": 61,
      "start": 33.2538,
      "duration": 0.1135,
      "velocity": 109,
      "chip": "ym2612"
    },
    {
      "channel": 4,
      "note": 43,
      "start": 33.2544,
      "duration": 0.1134,
      "velocity": 127,
      "chip": "ym2612"
    },
    {
      "channel": 5,
      "note": 26,
      "start": 33.2546,
      "duration": 0.1134,
      "velocity": 127,
      "chip": "ym2612"
    },
    {
      "channel": 0,
      "note": 61,
      "start": 33.3839,
      "duration": 0.1165,
      "velocity": 109,
      "chip": "ym2612"
    },
    {
      "channel": 1,
      "note": 61,
      "start": 33.3842,
      "duration": 0.1165,
      "velocity": 109,
      "chip": "ym2612"
    },
    {
      "channel": 4,
      "note": 51,
      "start": 33.3848,
      "duration": 0.1163,
      "velocity": 127,
      "chip": "ym2612"
    },
    {
      "channel": 5,
      "note": 26,
      "start": 33.3851,
      "duration": 0.2497,
      "velocity": 127,
      "chip": "ym2612"
    },
    {
      "channel": 0,
      "note": 61,
      "start": 33.5187,
      "duration": 0.1151,
      "velocity": 109,
      "chip": "ym2612"
    },
    {
      "channel": 1,
      "note": 61,
      "start": 33.5204,
      "duration": 0.1136,
      "velocity": 109,
      "chip": "ym2612"
    },
    {
      "channel": 4,
      "note": 31,
      "start": 33.521,
      "duration": 0.1136,
      "velocity": 127,
      "chip": "ym2612"
    },
    {
      "channel": 0,
      "note": 61,
      "start": 33.6522,
      "duration": 0.1149,
      "velocity": 109,
      "chip": "ym2612"
    },
    {
      "channel": 1,
      "note": 61,
      "start": 33.6539,
      "duration": 0.1134,
      "velocity": 109,
      "chip": "ym2612"
    },
    {
      "channel": 2,
      "note": 61,
      "start": 33.6541,
      "duration": 0.5133,
      "velocity": 92,
      "chip": "ym2612"
    },
    {
      "channel": 3,
      "note": 73,
      "start": 33.6544,
      "duration": 0.5132,
      "velocity": 92,
      "chip": "ym2612"
    },
    {
      "channel": 4,
      "note": 39,
      "start": 33.6547,
      "duration": 0.1131,
      "velocity": 127,
      "chip": "ym2612"
    },
    {
      "channel": 5,
      "note": 26,
      "start": 33.6564,
      "duration": 0.2449,
      "velocity": 127,
      "chip": "ym2612"
    },
    {
      "channel": 0,
      "note": 61,
      "start": 33.7853,
      "duration": 0.1151,
      "velocity": 109,
      "chip": "ym2612"
    },
    {
      "channel": 1,
      "note": 61,
      "start": 33.7871,
      "duration": 0.1136,
      "velocity": 109,
      "chip": "ym2612"
    },
    {
      "channel": 4,
      "note": 19,
      "start": 33.7876,
      "duration": 0.1135,
      "velocity": 127,
      "chip": "ym2612"
    },
    {
      "channel": 0,
      "note": 61,
      "start": 33.9187,
      "duration": 0.115,
      "velocity": 109,
      "chip": "ym2612"
    },
    {
      "channel": 1,
      "note": 61,
      "start": 33.9205,
      "duration": 0.1135,
      "velocity": 109,
      "chip": "ym2612"
    },
    {
      "channel": 4,
      "note": 27,
      "start": 33.921,
      "duration": 0.1134,
      "velocity": 127,
      "chip": "ym2612"
    },
    {
      "channel": 5,
      "note": 22,
      "start": 33.9213,
      "duration": 0.2468,
      "velocity": 127,
      "chip": "ym2612"
    },
    {
      "channel": 0,
      "note": 61,
      "start": 34.052,
      "duration": 0.1151,
      "velocity": 109,
      "chip": "ym2612"
    },
    {
      "channel": 1,
      "note": 61,
      "start": 34.0537,
      "duration": 0.1136,
      "velocity": 109,
      "chip": "ym2612"
    },
    {
      "channel": 4,
      "note": 31,
      "start": 34.0543,
      "duration": 0.1136,
      "velocity": 127,
      "chip": "ym2612"
    },
    {
      "channel": 0,
      "note": 61,
      "start": 34.186,
      "duration": 0.1144,
      "velocity": 109,
      "chip": "ym2612"
    },
    {
      "channel": 1,
      "note": 61,
      "start": 34.1878,
      "duration": 0.1129,
      "velocity": 109,
      "chip": "ym2612"
    },
    {
      "channel": 2,
      "note": 56,
      "start": 34.188,
      "duration": 4.2461,
      "velocity": 92,
      "chip": "ym2612"
    },
    {
      "channel": 3,
      "note": 80,
      "start": 34.1883,
      "duration": 4.2461,
      "velocity": 92,
      "chip": "ym2612"
    },
    {
      "channel": 4,
      "note": 39,
      "start": 34.19,
      "duration": 0.1111,
      "velocity": 127,
      "chip": "ym2612"
    },
    {
      "channel": 5,
      "note": 22,
      "start": 34.1917,
      "duration": 0.2429,
      "velocity": 127,
      "chip": "ym2612"
    },
    {
      "channel": 0,
      "note": 60,
      "start": 34.3187,
      "duration": 0.1151,
      "velocity": 109,
      "chip": "ym2612"
    },
    {
      "channel": 1,
      "note": 61,
      "start": 34.3204,
      "duration": 0.1136,
      "velocity": 109,
      "chip": "ym2612"
    },
    {
      "channel": 4,
      "note": 43,
      "start": 34.321,
      "duration": 0.1135,
      "velocity": 127,
      "chip": "ym2612"
    },
    {
      "channel": 0,
      "note": 60,
      "start": 34.4506,
      "duration": 0.1165,
      "velocity": 109,
      "chip": "ym2612"
    },
    {
      "channel": 1,
      "note": 61,
      "start": 34.4509,
      "duration": 0.1165,
      "velocity": 109,
      "chip": "ym2612"
    },
    {
      "channel": 4,
      "note": 51,
      "start": 34.4514,
      "duration": 0.1163,
      "velocity": 127,
      "chip": "ym2612"
    },
    {
      "channel": 5,
      "note": 34,
      "start": 34.4532,
      "duration": 0.1148,
      "velocity": 127,
      "chip": "ym2612"
    },
    {
      "channel": 0,
      "note": 60,
      "start": 34.5854,
      "duration": 0.115,
      "velocity": 109,
      "chip": "ym2612"
    },
    {
      "channel": 1,
      "note": 61,
      "start": 34.5871,
      "duration": 0.1135,
      "velocity": 109,
      "chip": "ym2612"
    },
    {
      "channel": 4,
      "note": 55,
      "start": 34.5877,
      "duration": 0.1134,
      "velocity": 127,
      "chip": "ym2612"
    },
    {
      "channel": 5,
      "note": 26,
      "start": 34.5894,
      "duration": 0.1119,
      "velocity": 127,
      "chip": "ym2612"
    },
    {
      "channel": 0,
      "note": 60,
      "start": 34.7173,
      "duration": 0.1165,
      "velocity": 109,
      "chip": "ym2612"
    },
    {
      "channel": 1,
      "note": 61,
      "start": 34.7175,
      "duration": 0.1165,
      "velocity": 109,
      "chip": "ym2612"
    },
    {
      "channel": 4,
      "note": 63,
      "start": 34.7181,
      "duration": 0.1163,
      "velocity": 127,
      "chip": "ym2612"
    },
    {
      "channel": 5,
      "note": 39,
      "start": 34.7184,
      "duration": 0.2495,
      "velocity": 127,
      "chip": "ym2612"
    },
    {
      "channel": 0,
      "note": 60,
      "start": 34.852,
      "duration": 0.1151,
      "velocity": 109,
      "chip": "ym2612"
    },
    {
      "channel": 1,
      "note": 61,
      "start": 34.8537,
      "duration": 0.1136,
      "velocity": 109,
      "chip": "ym2612"
    },
    {
      "channel": 4,
      "note": 43,
      "start": 34.8543,
      "duration": 0.1135,
      "velocity": 127,
      "chip": "ym2612"
    },
    {
      "channel": 0,
      "note": 60,
      "start": 34.9855,
      "duration": 0.1149,
      "velocity": 109,
      "chip": "ym2612"
    },
    {
      "channel": 1,
      "note": 61,
      "start": 34.9872,
      "duration": 0.1135,
      "velocity": 109,
      "chip": "ym2612"
    },
    {
      "channel": 4,
      "note": 51,
      "start": 34.9892,
      "duration": 1.3119,
      "velocity": 127,
      "chip": "ym2612"
    },
    {
      "channel": 5,
      "note": 34,
      "start": 34.9895,
      "duration": 0.2451,
      "velocity": 127,
      "chip": "ym2612"
    },
    {
      "channel": 0,
      "note": 60,
      "start": 35.1187,
      "duration": 0.1151,
      "velocity": 109,
      "chip": "ym2612"
    },
    {
      "channel": 1,
      "note": 61,
      "start": 35.1204,
      "duration": 0.1136,
      "velocity": 109,
      "chip": "ym2612"
    },
    {
      "channel": 0,
      "note": 60,
      "start": 35.2507,
      "duration": 0.1164,
      "velocity": 109,
      "chip": "ym2612"
    },
    {
      "channel": 1,
      "note": 61,
      "start": 35.2509,
      "duration": 0.1164,
      "velocity": 109,
      "chip": "ym2612"
    },
    {
      "channel": 5,
      "note": 34,
      "start": 35.2531,
      "duration": 0.1148,
      "velocity": 127,
      "chip": "ym2612"
    },
    {
      "channel": 0,
      "note": 60,
      "start": 35.3854,
      "duration": 0.115,
      "velocity": 109,
      "chip": "ym2612"
    },
    {
      "channel": 1,
      "note": 61,
      "start": 35.3871,
      "duration": 0.1135,
      "velocity": 109,
      "chip": "ym2612"
    },
    {
      "channel": 5,
      "note": 26,
      "start": 35.3879,
      "duration": 0.1134,
      "velocity": 127,
      "chip": "ym2612"
    },
    {
      "channel": 0,
      "note": 60,
      "start": 35.5172,
      "duration": 0.1165,
      "velocity": 109,
      "chip": "ym2612"
    },
    {
      "channel": 1,
      "note": 61,
      "start": 35.5175,
      "duration": 0.1165,
      "velocity": 109,
      "chip": "ym2612"
    },
    {
      "channel": 5,
      "note": 26,
      "start": 35.5182,
      "duration": 0.2497,
      "velocity": 127,
      "chip": "ym2612"
    },
    {
      "channel": 0,
      "note": 60,
      "start": 35.652,
      "duration": 0.1151,
      "velocity": 109,
      "chip": "ym2612"
    },
    {
      "channel": 1,
      "note": 61,
      "start": 35.6537,
      "duration": 0.1136,
      "velocity": 109,
      "chip": "ym2612"
    },
    {
      "channel": 0,
      "note": 60,
      "start": 35.7854,
      "duration": 0.115,
      "velocity": 109,
      "chip": "ym2612"
    },
    {
      "channel": 1,
      "note": 61,
      "start": 35.7871,
      "duration": 0.1135,
      "velocity": 109,
      "chip": "ym2612"
    },
    {
      "channel": 5,
      "note": 26,
      "start": 35.7879,
      "duration": 0.2467,
      "velocity": 127,
      "chip": "ym2612"
    },
    {
      "channel": 0,
      "note": 60,
      "start": 35.9187,
      "duration": 0.1151,
      "velocity": 109,
      "chip": "ym2612"
    },
    {
      "channel": 1,
      "note": 61,
      "start": 35.9204,
      "duration": 0.1136,
      "velocity": 109,
      "chip": "ym2612"
    },
    {
      "channel": 0,
      "note": 60,
      "start": 36.0521,
      "duration": 0.115,
      "velocity": 109,
      "chip": "ym2612"
    },
    {
      "channel": 1,
      "note": 61,
      "start": 36.0538,
      "duration": 0.1135,
      "velocity": 109,
      "chip": "ym2612"
    },
    {
      "channel": 5,
      "note": 26,
      "start": 36.0545,
      "duration": 0.2468,
      "velocity": 127,
      "chip": "ym2612"
    },
    {
      "channel": 0,
      "note": 60,
      "start": 36.1853,
      "duration": 0.1151,
      "velocity": 109,
      "chip": "ym2612"
    },
    {
      "channel": 1,
      "note": 61,
      "start": 36.1871,
      "duration": 0.1136,
      "velocity": 109,
      "chip": "ym2612"
    },
    {
      "channel": 0,
      "note": 60,
      "start": 36.3191,
      "duration": 0.1146,
      "velocity": 109,
      "chip": "ym2612"
    },
    {
      "channel": 1,
      "note": 61,
      "start": 36.3208,
      "duration": 0.1132,
      "velocity": 109,
      "chip": "ym2612"
    },
    {
      "channel": 4,
      "note": 21,
      "start": 36.3229,
      "duration": 0.1116,
      "velocity": 127,
      "chip": "ym2612"
    },
    {
      "channel": 5,
      "note": 26,
      "start": 36.3246,
      "duration": 0.2434,
      "velocity": 127,
      "chip": "ym2612"
    },
    {
      "channel": 0,
      "note": 61,
      "start": 36.452,
      "duration": 0.1151,
      "velocity": 109,
      "chip": "ym2612"
    },
    {
      "channel": 1,
      "note": 61,
      "start": 36.4537,
      "duration": 0.1136,
      "velocity": 109,
      "chip": "ym2612"
    },
    {
      "channel": 4,
      "note": 19,
      "start": 36.4543,
      "duration": 0.1135,
      "velocity": 127,
      "chip": "ym2612"
    },
    {
      "channel": 0,
      "note": 61,
      "start": 36.5839,
      "duration": 0.1165,
      "velocity": 109,
      "chip": "ym2612"
    },
    {
      "channel": 1,
      "note": 61,
      "start": 36.5842,
      "duration": 0.1165,
      "velocity": 109,
      "chip": "ym2612"
    },
    {
      "channel": 4,
      "note": 27,
      "start": 36.5848,
      "duration": 0.1163,
      "velocity": 127,
      "chip": "ym2612"
    },
    {
      "channel": 5,
      "note": 34,
      "start": 36.5865,
      "duration": 0.1148,
      "velocity": 127,
      "chip": "ym2612"
    },
    {
      "channel": 0,
      "note": 61,
      "start": 36.7187,
      "duration": 0.115,
      "velocity": 109,
      "chip": "ym2612"
    },
    {
      "channel": 1,
      "note": 61,
      "start": 36.7205,
      "duration": 0.1135,
      "velocity": 109,
      "chip": "ym2612"
    },
    {
      "channel": 4,
      "note": 31,
      "start": 36.721,
      "duration": 0.1134,
      "velocity": 127,
      "chip": "ym2612"
    },
    {
      "channel": 5,
      "note": 26,
      "start": 36.7227,
      "duration": 0.1119,
      "velocity": 127,
      "chip": "ym2612"
    },
    {
      "channel": 0,
      "note": 61,
      "start": 36.8506,
      "duration": 0.1165,
      "velocity": 109,
      "chip": "ym2612"
    },
    {
      "channel": 1,
      "note": 61,
      "start": 36.8509,
      "duration": 0.1165,
      "velocity": 109,
      "chip": "ym2612"
    },
    {
      "channel": 4,
      "note": 39,
      "start": 36.8514,
      "duration": 0.1163,
      "velocity": 127,
      "chip": "ym2612"
    },
    {
      "channel": 5,
      "note": 39,
      "start": 36.8517,
      "duration": 0.2495,
      "velocity": 127,
      "chip": "ym2612"
    },
    {
      "channel": 0,
      "note": 61,
      "start": 36.9853,
      "duration": 0.1151,
      "velocity": 109,
      "chip": "ym2612"
    },
    {
      "channel": 1,
      "note": 61,
      "start": 36.9871,
      "duration": 0.1136,
      "velocity": 109,
      "chip": "ym2612"
    },
    {
      "channel": 4,
      "note": 43,
      "start": 36.9876,
      "duration": 0.1135,
      "velocity": 127,
      "chip": "ym2612"
    },
    {
      "channel": 0,
      "note": 61,
      "start": 37.1187,
      "duration": 0.115,
      "velocity": 109,
      "chip": "ym2612"
    },
    {
      "channel": 1,
      "note": 61,
      "start": 37.1205,
      "duration": 0.1135,
      "velocity": 109,
      "chip": "ym2612"
    },
    {
      "channel": 4,
      "note": 51,
      "start": 37.121,
      "duration": 0.1134,
      "velocity": 127,
      "chip": "ym2612"
    },
    {
      "channel": 5,
      "note": 34,
      "start": 37.1213,
      "duration": 0.2467,
      "velocity": 127,
      "chip": "ym2612"
    },
    {
      "channel": 0,
      "note": 61,
      "start": 37.252,
      "duration": 0.1151,
      "velocity": 109,
      "chip": "ym2612"
    },
    {
      "channel": 1,
      "note": 61,
      "start": 37.2537,
      "duration": 0.1136,
      "velocity": 109,
      "chip": "ym2612"
    },
    {
      "channel": 4,
      "note": 55,
      "start": 37.2543,
      "duration": 0.1135,
      "velocity": 127,
      "chip": "ym2612"
    },
    {
      "channel": 0,
      "note": 61,
      "start": 37.3839,
      "duration": 0.1165,
      "velocity": 109,
      "chip": "ym2612"
    },
    {
      "channel": 1,
      "note": 61,
      "start": 37.3842,
      "duration": 0.1165,
      "velocity": 109,
      "chip": "ym2612"
    },
    {
      "channel": 4,
      "note": 63,
      "start": 37.3848,
      "duration": 0.1163,
      "velocity": 127,
      "chip": "ym2612"
    },
    {
      "channel": 5,
      "note": 34,
      "start": 37.3865,
      "duration": 0.1148,
      "velocity": 127,
      "chip": "ym2612"
    },
    {
      "channel": 0,
      "note": 61,
      "start": 37.5187,
      "duration": 0.115,
      "velocity": 109,
      "chip": "ym2612"
    },
    {
      "channel": 1,
      "note": 61,
      "start": 37.5205,
      "duration": 0.1135,
      "velocity": 109,
      "chip": "ym2612"
    },
    {
      "channel": 4,
      "note": 43,
      "start": 37.521,
      "duration": 0.1134,
      "velocity": 127,
      "chip": "ym2612"
    },
    {
      "channel": 5,
      "note": 26,
      "start": 37.5213,
      "duration": 0.1134,
      "velocity": 127,
      "chip": "ym2612"
    },
    {
      "channel": 0,
      "note": 61,
      "start": 37.6506,
      "duration": 0.1165,
      "velocity": 109,
      "chip": "ym2612"
    },
    {
      "channel": 1,
      "note": 61,
      "start": 37.6509,
      "duration": 0.1165,
      "velocity": 109,
      "chip": "ym2612"
    },
    {
      "channel": 4,
      "note": 51,
      "start": 37.6514,
      "duration": 0.1163,
      "velocity": 127,
      "chip": "ym2612"
    },
    {
      "channel": 5,
      "note": 26,
      "start": 37.6517,
      "duration": 0.2495,
      "velocity": 127,
      "chip": "ym2612"
    },
    {
      "channel": 0,
      "note": 61,
      "start": 37.7853,
      "duration": 0.1151,
      "velocity": 109,
      "chip": "ym2612"
    },
    {
      "channel": 1,
      "note": 61,
      "start": 37.7871,
      "duration": 0.1136,
      "velocity": 109,
      "chip": "ym2612"
    },
    {
      "channel": 4,
      "note": 31,
      "start": 37.7876,
      "duration": 0.1135,
      "velocity": 127,
      "chip": "ym2612"
    },
    {
      "channel": 0,
      "note": 61,
      "start": 37.9187,
      "duration": 0.115,
      "velocity": 109,
      "chip": "ym2612"
    },
    {
      "channel": 1,
      "note": 61,
      "start": 37.9205,
      "duration": 0.1135,
      "velocity": 109,
      "chip": "ym2612"
    },
    {
      "channel": 4,
      "note": 39,
      "start": 37.921,
      "duration": 0.1134,
      "velocity": 127,
      "chip": "ym2612"
    },
    {
      "channel": 5,
      "note": 26,
      "start": 37.9227,
      "duration": 0.2452,
      "velocity": 127,
      "chip": "ym2612"
    },
    {
      "channel": 0,
      "note": 61,
      "start": 38.052,
      "duration": 0.1151,
      "velocity": 109,
      "chip": "ym2612"
    },
    {
      "channel": 1,
      "note": 61,
      "start": 38.0537,
      "duration": 0.1136,
      "velocity": 109,
      "chip": "ym2612"
    },
    {
      "channel": 4,
      "note": 19,
      "start": 38.0543,
      "duration": 0.1135,
      "velocity": 127,
      "chip": "ym2612"
    },
    {
      "channel": 0,
      "note": 61,
      "start": 38.1854,
      "duration": 0.1151,
      "velocity": 109,
      "chip": "ym2612"
    },
    {
      "channel": 1,
      "note": 61,
      "start": 38.1871,
      "duration": 0.1135,
      "velocity": 109,
      "chip": "ym2612"
    },
    {
      "channel": 4,
      "note": 27,
      "start": 38.1877,
      "duration": 0.1134,
      "velocity": 127,
      "chip": "ym2612"
    },
    {
      "channel": 5,
      "note": 22,
      "start": 38.1879,
      "duration": 0.2468,
      "velocity": 127,
      "chip": "ym2612"
    },
    {
      "channel": 0,
      "note": 61,
      "start": 38.3187,
      "duration": 0.1151,
      "velocity": 109,
      "chip": "ym2612"
    },
    {
      "channel": 1,
      "note": 61,
      "start": 38.3204,
      "duration": 0.1136,
      "velocity": 109,
      "chip": "ym2612"
    },
    {
      "channel": 4,
      "note": 31,
      "start": 38.321,
      "duration": 0.1136,
      "velocity": 127,
      "chip": "ym2612"
    },
    {
      "channel": 0,
      "note": 61,
      "start": 38.4527,
      "duration": 0.1144,
      "velocity": 109,
      "chip": "ym2612"
    },
    {
      "channel": 1,
      "note": 61,
      "start": 38.4544,
      "duration": 0.1129,
      "velocity": 109,
      "chip": "ym2612"
    },
    {
      "channel": 2,
      "note": 57,
      "start": 38.4547,
      "duration": 4.2461,
      "velocity": 92,
      "chip": "ym2612"
    },
    {
      "channel": 3,
      "note": 81,
      "start": 38.4549,
      "duration": 4.2461,
      "velocity": 92,
      "chip": "ym2612"
    },
    {
      "channel": 4,
      "note": 39,
      "start": 38.4566,
      "duration": 0.1111,
      "velocity": 127,
      "chip": "ym2612"
    },
    {
      "channel": 5,
      "note": 22,
      "start": 38.4584,
      "duration": 0.2429,
      "velocity": 127,
      "chip": "ym2612"
    },
    {
      "channel": 0,
      "note": 61,
      "start": 38.5853,
      "duration": 0.1151,
      "velocity": 109,
      "chip": "ym2612"
    },
    {
      "channel": 1,
      "note": 61,
      "start": 38.5871,
      "duration": 0.1136,
      "velocity": 109,
      "chip": "ym2612"
    },
    {
      "channel": 4,
      "note": 43,
      "start": 38.5876,
      "duration": 0.1135,
      "velocity": 127,
      "chip": "ym2612"
    },
    {
      "channel": 0,
      "note": 61,
      "start": 38.7173,
      "duration": 0.1165,
      "velocity": 109,
      "chip": "ym2612"
    },
    {
      "channel": 1,
      "note": 61,
      "start": 38.7175,
      "duration": 0.1165,
      "velocity": 109,
      "chip": "ym2612"
    },
    {
      "channel": 4,
      "note": 51,
      "start": 38.7181,
      "duration": 0.1163,
      "velocity": 127,
      "chip": "ym2612"
    },
    {
      "channel": 5,
      "note": 34,
      "start": 38.7198,
      "duration": 0.1148,
      "velocity": 127,
      "chip": "ym2612"
    },
    {
      "channel": 0,
      "note": 61,
      "start": 38.8521,
      "duration": 0.115,
      "velocity": 109,
      "chip": "ym2612"
    },
    {
      "channel": 1,
      "note": 61,
      "start": 38.8538,
      "duration": 0.1135,
      "velocity": 109,
      "chip": "ym2612"
    },
    {
      "channel": 4,
      "note": 55,
      "start": 38.8544,
      "duration": 0.1134,
      "velocity": 127,
      "chip": "ym2612"
    },
    {
      "channel": 5,
      "note": 26,
      "start": 38.8561,
      "duration": 0.1119,
      "velocity": 127,
      "chip": "ym2612"
    },
    {
      "channel": 0,
      "note": 61,
      "start": 38.9839,
      "duration": 0.1165,
      "velocity": 109,
      "chip": "ym2612"
    },
    {
      "channel": 1,
      "note": 61,
      "start": 38.9842,
      "duration": 0.1165,
      "velocity": 109,
      "chip": "ym2612"
    },
    {
      "channel": 4,
      "note": 63,
      "start": 38.9848,
      "duration": 0.1163,
      "velocity": 127,
      "chip": "ym2612"
    },
    {
      "channel": 5,
      "note": 39,
      "start": 38.9851,
      "duration": 0.2495,
      "velocity": 127,
      "chip": "ym2612"
    },
    {
      "channel": 0,
      "note": 61,
      "start": 39.1187,
      "duration": 0.1151,
      "velocity": 109,
      "chip": "ym2612"
    },
    {
      "channel": 1,
      "note": 61,
      "start": 39.1204,
      "duration": 0.1136,
      "velocity": 109,
      "chip": "ym2612"
    },
    {
      "channel": 4,
      "note": 43,
      "start": 39.121,
      "duration": 0.1135,
      "velocity": 127,
      "chip": "ym2612"
    },
    {
      "channel": 0,
      "note": 61,
      "start": 39.2521,
      "duration": 0.1149,
      "velocity": 109,
      "chip": "ym2612"
    },
    {
      "channel": 1,
      "note": 61,
      "start": 39.2538,
      "duration": 0.1135,
      "velocity": 109,
      "chip": "ym2612"
    },
    {
      "channel": 4,
      "note": 51,
      "start": 39.2559,
      "duration": 1.3119,
      "velocity": 127,
      "chip": "ym2612"
    },
    {
      "channel": 5,
      "note": 34,
      "start": 39.2561,
      "duration": 0.2451,
      "velocity": 127,
      "chip": "ym2612"
    },
    {
      "channel": 0,
      "note": 61,
      "start": 39.3853,
      "duration": 0.1151,
      "velocity": 109,
      "chip": "ym2612"
    },
    {
      "channel": 1,
      "note": 61,
      "start": 39.3871,
      "duration": 0.1136,
      "velocity": 109,
      "chip": "ym2612"
    },
    {
      "channel": 0,
      "note": 61,
      "start": 39.5173,
      "duration": 0.1164,
      "velocity": 109,
      "chip": "ym2612"
    },
    {
      "channel": 1,
      "note": 61,
      "start": 39.5176,
      "duration": 0.1164,
      "velocity": 109,
      "chip": "ym2612"
    },
    {
      "channel": 5,
      "note": 34,
      "start": 39.5198,
      "duration": 0.1148,
      "velocity": 127,
      "chip": "ym2612"
    },
    {
      "channel": 0,
      "note": 61,
      "start": 39.6521,
      "duration": 0.115,
      "velocity": 109,
      "chip": "ym2612"
    },
    {
      "channel": 1,
      "note": 61,
      "start": 39.6538,
      "duration": 0.1135,
      "velocity": 109,
      "chip": "ym2612"
    },
    {
      "channel": 5,
      "note": 26,
      "start": 39.6545,
      "duration": 0.1134,
      "velocity": 127,
      "chip": "ym2612"
    },
    {
      "channel": 0,
      "note": 61,
      "start": 39.7839,
      "duration": 0.1165,
      "velocity": 109,
      "chip": "ym2612"
    },
    {
      "channel": 1,
      "note": 61,
      "start": 39.7841,
      "duration": 0.1165,
      "velocity": 109,
      "chip": "ym2612"
    },
    {
      "channel": 5,
      "note": 26,
      "start": 39.7849,
      "duration": 0.2497,
      "velocity": 127,
      "chip": "ym2612"
    },
    {
      "channel": 0,
      "note": 61,
      "start": 39.9187,
      "duration": 0.1151,
      "velocity": 109,
      "chip": "ym2612"
    },
    {
      "channel": 1,
      "note": 61,
      "start": 39.9204,
      "duration": 0.1136,
      "velocity": 109,
      "chip": "ym2612"
    },
    {
      "channel": 0,
      "note": 61,
      "start": 40.0521,
      "duration": 0.115,
      "velocity": 109,
      "chip": "ym2612"
    },
    {
      "channel": 1,
      "note": 61,
      "start": 40.0538,
      "duration": 0.1135,
      "velocity": 109,
      "chip": "ym2612"
    },
    {
      "channel": 5,
      "note": 26,
      "start": 40.0545,
      "duration": 0.2467,
      "velocity": 127,
      "chip": "ym2612"
    },
    {
      "channel": 0,
      "note": 61,
      "start": 40.1853,
      "duration": 0.1151,
      "velocity": 109,
      "chip": "ym2612"
    },
    {
      "channel": 1,
      "note": 61,
      "start": 40.1871,
      "duration": 0.1136,
      "velocity": 109,
      "chip": "ym2612"
    },
    {
      "channel": 0,
      "note": 61,
      "start": 40.3187,
      "duration": 0.1151,
      "velocity": 109,
      "chip": "ym2612"
    },
    {
      "channel": 1,
      "note": 61,
      "start": 40.3204,
      "duration": 0.1136,
      "velocity": 109,
      "chip": "ym2612"
    },
    {
      "channel": 5,
      "note": 26,
      "start": 40.3212,
      "duration": 0.2468,
      "velocity": 127,
      "chip": "ym2612"
    },
    {
      "channel": 0,
      "note": 61,
      "start": 40.452,
      "duration": 0.1151,
      "velocity": 109,
      "chip": "ym2612"
    },
    {
      "channel": 1,
      "note": 61,
      "start": 40.4537,
      "duration": 0.1136,
      "velocity": 109,
      "chip": "ym2612"
    },
    {
      "channel": 0,
      "note": 61,
      "start": 40.5858,
      "duration": 0.1146,
      "velocity": 109,
      "chip": "ym2612"
    },
    {
      "channel": 1,
      "note": 61,
      "start": 40.5875,
      "duration": 0.1132,
      "velocity": 109,
      "chip": "ym2612"
    },
    {
      "channel": 4,
      "note": 21,
      "start": 40.5895,
      "duration": 0.1116,
      "velocity": 127,
      "chip": "ym2612"
    },
    {
      "channel": 5,
      "note": 26,
      "start": 40.5912,
      "duration": 0.2434,
      "velocity": 127,
      "chip": "ym2612"
    },
    {
      "channel": 0,
      "note": 61,
      "start": 40.7187,
      "duration": 0.1151,
      "velocity": 109,
      "chip": "ym2612"
    },
    {
      "channel": 1,
      "note": 61,
      "start": 40.7204,
      "duration": 0.1136,
      "velocity": 109,
      "chip": "ym2612"
    },
    {
      "channel": 4,
      "note": 19,
      "start": 40.721,
      "duration": 0.1135,
      "velocity": 127,
      "chip": "ym2612"
    },
    {
      "channel": 0,
      "note": 61,
      "start": 40.8506,
      "duration": 0.1165,
      "velocity": 109,
      "chip": "ym2612"
    },
    {
      "channel": 1,
      "note": 61,
      "start": 40.8509,
      "duration": 0.1165,
      "velocity": 109,
      "chip": "ym2612"
    },
    {
      "channel": 4,
      "note": 27,
      "start": 40.8514,
      "duration": 0.1163,
      "velocity": 127,
      "chip": "ym2612"
    },
    {
      "channel": 5,
      "note": 34,
      "start": 40.8532,
      "duration": 0.1148,
      "velocity": 127,
      "chip": "ym2612"
    },
    {
      "channel": 0,
      "note": 61,
      "start": 40.9854,
      "duration": 0.115,
      "velocity": 109,
      "chip": "ym2612"
    },
    {
      "channel": 1,
      "note": 61,
      "start": 40.9871,
      "duration": 0.1135,
      "velocity": 109,
      "chip": "ym2612"
    },
    {
      "channel": 4,
      "note": 31,
      "start": 40.9877,
      "duration": 0.1134,
      "velocity": 127,
      "chip": "ym2612"
    },
    {
      "channel": 5,
      "note": 26,
      "start": 40.9894,
      "duration": 0.1119,
      "velocity": 127,
      "chip": "ym2612"
    },
    {
      "channel": 0,
      "note": 61,
      "start": 41.1173,
      "duration": 0.1165,
      "velocity": 109,
      "chip": "ym2612"
    },
    {
      "channel": 1,
      "note": 61,
      "start": 41.1175,
      "duration": 0.1165,
      "velocity": 109,
      "chip": "ym2612"
    },
    {
      "channel": 4,
      "note": 39,
      "start": 41.1181,
      "duration": 0.1163,
      "velocity": 127,
      "chip": "ym2612"
    },
    {
      "channel": 5,
      "note": 39,
      "start": 41.1184,
      "duration": 0.2495,
      "velocity": 127,
      "chip": "ym2612"
    },
    {
      "channel": 0,
      "note": 61,
      "start": 41.252,
      "duration": 0.1151,
      "velocity": 109,
      "chip": "ym2612"
    },
    {
      "channel": 1,
      "note": 61,
      "start": 41.2537,
      "duration": 0.1136,
      "velocity": 109,
      "chip": "ym2612"
    },
    {
      "channel": 4,
      "note": 43,
      "start": 41.2543,
      "duration": 0.1135,
      "velocity": 127,
      "chip": "ym2612"
    },
    {
      "channel": 0,
      "note": 61,
      "start": 41.3854,
      "duration": 0.1151,
      "velocity": 109,
      "chip": "ym2612"
    },
    {
      "channel": 1,
      "note": 61,
      "start": 41.3871,
      "duration": 0.1135,
      "velocity": 109,
      "chip": "ym2612"
    },
    {
      "channel": 4,
      "note": 51,
      "start": 41.3877,
      "duration": 0.1134,
      "velocity": 127,
      "chip": "ym2612"
    },
    {
      "channel": 5,
      "note": 34,
      "start": 41.3879,
      "duration": 0.2467,
      "velocity": 127,
      "chip": "ym2612"
    },
    {
      "channel": 0,
      "note": 61,
      "start": 41.5187,
      "duration": 0.115,
      "velocity": 109,
      "chip": "ym2612"
    },
    {
      "channel": 1,
      "note": 61,
      "start": 41.5204,
      "duration": 0.1136,
      "velocity": 109,
      "chip": "ym2612"
    },
    {
      "channel": 4,
      "note": 55,
      "start": 41.521,
      "duration": 0.1135,
      "velocity": 127,
      "chip": "ym2612"
    },
    {
      "channel": 0,
      "note": 61,
      "start": 41.6506,
      "duration": 0.1165,
      "velocity": 109,
      "chip": "ym2612"
    },
    {
      "channel": 1,
      "note": 61,
      "start": 41.6509,
      "duration": 0.1165,
      "velocity": 109,
      "chip": "ym2612"
    },
    {
      "channel": 4,
      "note": 63,
      "start": 41.6514,
      "duration": 0.1163,
      "velocity": 127,
      "chip": "ym2612"
    },
    {
      "channel": 5,
      "note": 34,
      "start": 41.6532,
      "duration": 0.1148,
      "velocity": 127,
      "chip": "ym2612"
    },
    {
      "channel": 0,
      "note": 61,
      "start": 41.7854,
      "duration": 0.115,
      "velocity": 109,
      "chip": "ym2612"
    },
    {
      "channel": 1,
      "note": 61,
      "start": 41.7871,
      "duration": 0.1135,
      "velocity": 109,
      "chip": "ym2612"
    },
    {
      "channel": 4,
      "note": 43,
      "start": 41.7877,
      "duration": 0.1134,
      "velocity": 127,
      "chip": "ym2612"
    },
    {
      "channel": 5,
      "note": 26,
      "start": 41.7879,
      "duration": 0.1134,
      "velocity": 127,
      "chip": "ym2612"
    },
    {
      "channel": 0,
      "note": 61,
      "start": 41.9173,
      "duration": 0.1165,
      "velocity": 109,
      "chip": "ym2612"
    },
    {
      "channel": 1,
      "note": 61,
      "start": 41.9175,
      "duration": 0.1165,
      "velocity": 109,
      "chip": "ym2612"
    },
    {
      "channel": 4,
      "note": 51,
      "start": 41.9181,
      "duration": 0.1163,
      "velocity": 127,
      "chip": "ym2612"
    },
    {
      "channel": 5,
      "note": 26,
      "start": 41.9184,
      "duration": 0.2495,
      "velocity": 127,
      "chip": "ym2612"
    },
    {
      "channel": 0,
      "note": 61,
      "start": 42.052,
      "duration": 0.1151,
      "velocity": 109,
      "chip": "ym2612"
    },
    {
      "channel": 1,
      "note": 61,
      "start": 42.0537,
      "duration": 0.1136,
      "velocity": 109,
      "chip": "ym2612"
    },
    {
      "channel": 4,
      "note": 31,
      "start": 42.0543,
      "duration": 0.1135,
      "velocity": 127,
      "chip": "ym2612"
    },
    {
      "channel": 0,
      "note": 61,
      "start": 42.1854,
      "duration": 0.115,
      "velocity": 109,
      "chip": "ym2612"
    },
    {
      "channel": 1,
      "note": 61,
      "start": 42.1871,
      "duration": 0.1135,
      "velocity": 109,
      "chip": "ym2612"
    },
    {
      "channel": 4,
      "note": 39,
      "start": 42.1877,
      "duration": 0.1134,
      "velocity": 127,
      "chip": "ym2612"
    },
    {
      "channel": 5,
      "note": 26,
      "start": 42.1894,
      "duration": 0.2452,
      "velocity": 127,
      "chip": "ym2612"
    },
    {
      "channel": 0,
      "note": 61,
      "start": 42.3187,
      "duration": 0.1151,
      "velocity": 109,
      "chip": "ym2612"
    },
    {
      "channel": 1,
      "note": 61,
      "start": 42.3204,
      "duration": 0.1136,
      "velocity": 109,
      "chip": "ym2612"
    },
    {
      "channel": 4,
      "note": 19,
      "start": 42.321,
      "duration": 0.1135,
      "velocity": 127,
      "chip": "ym2612"
    },
    {
      "channel": 0,
      "note": 61,
      "start": 42.4521,
      "duration": 0.115,
      "velocity": 109,
      "chip": "ym2612"
    },
    {
      "channel": 1,
      "note": 61,
      "start": 42.4538,
      "duration": 0.1135,
      "velocity": 109,
      "chip": "ym2612"
    },
    {
      "channel": 4,
      "note": 27,
      "start": 42.4544,
      "duration": 0.1134,
      "velocity": 127,
      "chip": "ym2612"
    },
    {
      "channel": 5,
      "note": 22,
      "start": 42.4546,
      "duration": 0.2468,
      "velocity": 127,
      "chip": "ym2612"
    },
    {
      "channel": 0,
      "note": 61,
      "start": 42.5853,
      "duration": 0.1151,
      "velocity": 109,
      "chip": "ym2612"
    },
    {
      "channel": 1,
      "note": 61,
      "start": 42.5871,
      "duration": 0.1136,
      "velocity": 109,
      "chip": "ym2612"
    },
    {
      "channel": 4,
      "note": 31,
      "start": 42.5876,
      "duration": 0.1136,
      "velocity": 127,
      "chip": "ym2612"
    },
    {
      "channel": 0,
      "note": 61,
      "start": 42.7194,
      "duration": 0.1144,
      "velocity": 109,
      "chip": "ym2612"
    },
    {
      "channel": 1,
      "note": 61,
      "start": 42.7211,
      "duration": 0.1129,
      "velocity": 109,
      "chip": "ym2612"
    },
    {
      "channel": 4,
      "note": 39,
      "start": 42.723,
      "duration": 0.1115,
      "velocity": 127,
      "chip": "ym2612"
    },
    {
      "channel": 5,
      "note": 22,
      "start": 42.7247,
      "duration": 0.2432,
      "velocity": 127,
      "chip": "ym2612"
    },
    {
      "channel": 0,
      "note": 60,
      "start": 42.852,
      "duration": 0.1151,
      "velocity": 109,
      "chip": "ym2612"
    },
    {
      "channel": 1,
      "note": 61,
      "start": 42.8537,
      "duration": 0.1136,
      "velocity": 109,
      "chip": "ym2612"
    },
    {
      "channel": 4,
      "note": 43,
      "start": 42.8543,
      "duration": 0.1135,
      "velocity": 127,
      "chip": "ym2612"
    },
    {
      "channel": 0,
      "note": 60,
      "start": 42.9839,
      "duration": 0.1165,
      "velocity": 109,
      "chip": "ym2612"
    },
    {
      "channel": 1,
      "note": 61,
      "start": 42.9842,
      "duration": 0.1165,
      "velocity": 109,
      "chip": "ym2612"
    },
    {
      "channel": 4,
      "note": 51,
      "start": 42.9848,
      "duration": 0.1163,
      "velocity": 127,
      "chip": "ym2612"
    },
    {
      "channel": 5,
      "note": 34,
      "start": 42.9865,
      "duration": 0.1148,
      "velocity": 127,
      "chip": "ym2612"
    },
    {
      "channel": 0,
      "note": 60,
      "start": 43.1187,
      "duration": 0.115,
      "velocity": 109,
      "chip": "ym2612"
    },
    {
      "channel": 1,
      "note": 61,
      "start": 43.1205,
      "duration": 0.1135,
      "velocity": 109,
      "chip": "ym2612"
    },
    {
      "channel": 4,
      "note": 55,
      "start": 43.121,
      "duration": 0.1134,
      "velocity": 127,
      "chip": "ym2612"
    },
    {
      "channel": 5,
      "note": 26,
      "start": 43.1227,
      "duration": 0.1119,
      "velocity": 127,
      "chip": "ym2612"
    },
    {
      "channel": 0,
      "note": 60,
      "start": 43.2506,
      "duration": 0.1165,
      "velocity": 109,
      "chip": "ym2612"
    },
    {
      "channel": 1,
      "note": 61,
      "start": 43.2509,
      "duration": 0.1165,
      "velocity": 109,
      "chip": "ym2612"
    },
    {
      "channel": 4,
      "note": 63,
      "start": 43.2514,
      "duration": 0.1163,
      "velocity": 127,
      "chip": "ym2612"
    },
    {
      "channel": 5,
      "note": 39,
      "start": 43.2517,
      "duration": 0.2495,
      "velocity": 127,
      "chip": "ym2612"
    },
    {
      "channel": 0,
      "note": 60,
      "start": 43.3853,
      "duration": 0.1151,
      "velocity": 109,
      "chip": "ym2612"
    },
    {
      "channel": 1,
      "note": 61,
      "start": 43.3871,
      "duration": 0.1136,
      "velocity": 109,
      "chip": "ym2612"
    },
    {
      "channel": 4,
      "note": 43,
      "start": 43.3876,
      "duration": 0.1135,
      "velocity": 127,
      "chip": "ym2612"
    },
    {
      "channel": 0,
      "note": 60,
      "start": 43.5188,
      "duration": 0.1149,
      "velocity": 109,
      "chip": "ym2612"
    },
    {
      "channel": 1,
      "note": 61,
      "start": 43.5205,
      "duration": 0.1135,
      "velocity": 109,
      "chip": "ym2612"
    },
    {
      "channel": 4,
      "note": 51,
      "start": 43.5225,
      "duration": 1.3119,
      "velocity": 127,
      "chip": "ym2612"
    },
    {
      "channel": 5,
      "note": 34,
      "start": 43.5228,
      "duration": 0.2451,
      "velocity": 127,
      "chip": "ym2612"
    },
    {
      "channel": 0,
      "note": 60,
      "start": 43.652,
      "duration": 0.1151,
      "velocity": 109,
      "chip": "ym2612"
    },
    {
      "channel": 1,
      "note": 61,
      "start": 43.6537,
      "duration": 0.1136,
      "velocity": 109,
      "chip": "ym2612"
    },
    {
      "channel": 0,
      "note": 60,
      "start": 43.784,
      "duration": 0.1164,
      "velocity": 109,
      "chip": "ym2612"
    },
    {
      "channel": 1,
      "note": 61,
      "start": 43.7842,
      "duration": 0.1164,
      "velocity": 109,
      "chip": "ym2612"
    },
    {
      "channel": 5,
      "note": 34,
      "start": 43.7864,
      "duration": 0.1148,
      "velocity": 127,
      "chip": "ym2612"
    },
    {
      "channel": 0,
      "note": 60,
      "start": 43.9187,
      "duration": 0.115,
      "velocity": 109,
      "chip": "ym2612"
    },
    {
      "channel": 1,
      "note": 61,
      "start": 43.9205,
      "duration": 0.1135,
      "velocity": 109,
      "chip": "ym2612"
    },
    {
      "channel": 5,
      "note": 26,
      "start": 43.9212,
      "duration": 0.1134,
      "velocity": 127,
      "chip": "ym2612"
    },
    {
      "channel": 0,
      "note": 60,
      "start": 44.0505,
      "duration": 0.1165,
      "velocity": 109,
      "chip": "ym2612"
    },
    {
      "channel": 1,
      "note": 61,
      "start": 44.0508,
      "duration": 0.1165,
      "velocity": 109,
      "chip": "ym2612"
    },
    {
      "channel": 5,
      "note": 26,
      "start": 44.0515,
      "duration": 0.2497,
      "velocity": 127,
      "chip": "ym2612"
    },
    {
      "channel": 0,
      "note": 60,
      "start": 44.1853,
      "duration": 0.1151,
      "velocity": 109,
      "chip": "ym2612"
    },
    {
      "channel": 1,
      "note": 61,
      "start": 44.1871,
      "duration": 0.1136,
      "velocity": 109,
      "chip": "ym2612"
    },
    {
      "channel": 0,
      "note": 60,
      "start": 44.3187,
      "duration": 0.115,
      "velocity": 109,
      "chip": "ym2612"
    },
    {
      "channel": 1,
      "note": 61,
      "start": 44.3205,
      "duration": 0.1135,
      "velocity": 109,
      "chip": "ym2612"
    },
    {
      "channel": 5,
      "note": 26,
      "start": 44.3212,
      "duration": 0.2467,
      "velocity": 127,
      "chip": "ym2612"
    },
    {
      "channel": 0,
      "note": 60,
      "start": 44.452,
      "duration": 0.1151,
      "velocity": 109,
      "chip": "ym2612"
    },
    {
      "channel": 1,
      "note": 61,
      "start": 44.4537,
      "duration": 0.1136,
      "velocity": 109,
      "chip": "ym2612"
    },
    {
      "channel": 0,
      "note": 60,
      "start": 44.5854,
      "duration": 0.1151,
      "velocity": 109,
      "chip": "ym2612"
    },
    {
      "channel": 1,
      "note": 61,
      "start": 44.5871,
      "duration": 0.1135,
      "velocity": 109,
      "chip": "ym2612"
    },
    {
      "channel": 5,
      "note": 26,
      "start": 44.5879,
      "duration": 0.2468,
      "velocity": 127,
      "chip": "ym2612"
    },
    {
      "channel": 0,
      "note": 60,
      "start": 44.7187,
      "duration": 0.1151,
      "velocity": 109,
      "chip": "ym2612"
    },
    {
      "channel": 1,
      "note": 61,
      "start": 44.7204,
      "duration": 0.1136,
      "velocity": 109,
      "chip": "ym2612"
    },
    {
      "channel": 0,
      "note": 60,
      "start": 44.8524,
      "duration": 0.1146,
      "velocity": 109,
      "chip": "ym2612"
    },
    {
      "channel": 1,
      "note": 61,
      "start": 44.8541,
      "duration": 0.1132,
      "velocity": 109,
      "chip": "ym2612"
    },
    {
      "channel": 4,
      "note": 21,
      "start": 44.8562,
      "duration": 0.1116,
      "velocity": 127,
      "chip": "ym2612"
    },
    {
      "channel": 5,
      "note": 26,
      "start": 44.8579,
      "duration": 0.2434,
      "velocity": 127,
      "chip": "ym2612"
    },
    {
      "channel": 0,
      "note": 61,
      "start": 44.9853,
      "duration": 0.1151,
      "velocity": 109,
      "chip": "ym2612"
    },
    {
      "channel": 1,
      "note": 61,
      "start": 44.9871,
      "duration": 0.1136,
      "velocity": 109,
      "chip": "ym2612"
    },
    {
      "channel": 4,
      "note": 19,
      "start": 44.9876,
      "duration": 0.1135,
      "velocity": 127,
      "chip": "ym2612"
    },
    {
      "channel": 0,
      "note": 61,
      "start": 45.1173,
      "duration": 0.1165,
      "velocity": 109,
      "chip": "ym2612"
    },
    {
      "channel": 1,
      "note": 61,
      "start": 45.1175,
      "duration": 0.1165,
      "velocity": 109,
      "chip": "ym2612"
    },
    {
      "channel": 4,
      "note": 27,
      "start": 45.1181,
      "duration": 0.1163,
      "velocity": 127,
      "chip": "ym2612"
    },
    {
      "channel": 5,
      "note": 34,
      "start": 45.1198,
      "duration": 0.1148,
      "velocity": 127,
      "chip": "ym2612"
    },
    {
      "channel": 0,
      "note": 61,
      "start": 45.2521,
      "duration": 0.115,
      "velocity": 109,
      "chip": "ym2612"
    },
    {
      "channel": 1,
      "note": 61,
      "start": 45.2538,
      "duration": 0.1135,
      "velocity": 109,
      "chip": "ym2612"
    },
    {
      "channel": 4,
      "note": 31,
      "start": 45.2544,
      "duration": 0.1134,
      "velocity": 127,
      "chip": "ym2612"
    },
    {
      "channel": 5,
      "note": 26,
      "start": 45.2561,
      "duration": 0.1119,
      "velocity": 127,
      "chip": "ym2612"
    },
    {
      "channel": 0,
      "note": 61,
      "start": 45.3839,
      "duration": 0.1165,
      "velocity": 109,
      "chip": "ym2612"
    },
    {
      "channel": 1,
      "note": 61,
      "start": 45.3842,
      "duration": 0.1165,
      "velocity": 109,
      "chip": "ym2612"
    },
    {
      "channel": 4,
      "note": 39,
      "start": 45.3848,
      "duration": 0.1163,
      "velocity": 127,
      "chip": "ym2612"
    },
    {
      "channel": 5,
      "note": 39,
      "start": 45.3851,
      "duration": 0.2495,
      "velocity": 127,
      "chip": "ym2612"
    },
    {
      "channel": 0,
      "note": 61,
      "start": 45.5187,
      "duration": 0.1151,
      "velocity": 109,
      "chip": "ym2612"
    },
    {
      "channel": 1,
      "note": 61,
      "start": 45.5204,
      "duration": 0.1136,
      "velocity": 109,
      "chip": "ym2612"
    },
    {
      "channel": 4,
      "note": 43,
      "start": 45.521,
      "duration": 0.1135,
      "velocity": 127,
      "chip": "ym2612"
    },
    {
      "channel": 0,
      "note": 61,
      "start": 45.6521,
      "duration": 0.115,
      "velocity": 109,
      "chip": "ym2612"
    },
    {
      "channel": 1,
      "note": 61,
      "start": 45.6538,
      "duration": 0.1135,
      "velocity": 109,
      "chip": "ym2612"
    },
    {
      "channel": 4,
      "note": 51,
      "start": 45.6544,
      "duration": 0.1134,
      "velocity": 127,
      "chip": "ym2612"
    },
    {
      "channel": 5,
      "note": 34,
      "start": 45.6546,
      "duration": 0.2467,
      "velocity": 127,
      "chip": "ym2612"
    },
    {
      "channel": 0,
      "note": 61,
      "start": 45.7853,
      "duration": 0.1151,
      "velocity": 109,
      "chip": "ym2612"
    },
    {
      "channel": 1,
      "note": 61,
      "start": 45.7871,
      "duration": 0.1136,
      "velocity": 109,
      "chip": "ym2612"
    },
    {
      "channel": 4,
      "note": 55,
      "start": 45.7876,
      "duration": 0.1135,
      "velocity": 127,
      "chip": "ym2612"
    },
    {
      "channel": 0,
      "note": 61,
      "start": 45.9173,
      "duration": 0.1165,
      "velocity": 109,
      "chip": "ym2612"
    },
    {
      "channel": 1,
      "note": 61,
      "start": 45.9175,
      "duration": 0.1165,
      "velocity": 109,
      "chip": "ym2612"
    },
    {
      "channel": 4,
      "note": 63,
      "start": 45.9181,
      "duration": 0.1163,
      "velocity": 127,
      "chip": "ym2612"
    },
    {
      "channel": 5,
      "note": 34,
      "start": 45.9198,
      "duration": 0.1148,
      "velocity": 127,
      "chip": "ym2612"
    },
    {
      "channel": 0,
      "note": 61,
      "start": 46.0521,
      "duration": 0.115,
      "velocity": 109,
      "chip": "ym2612"
    },
    {
      "channel": 1,
      "note": 61,
      "start": 46.0538,
      "duration": 0.1135,
      "velocity": 109,
      "chip": "ym2612"
    },
    {
      "channel": 4,
      "note": 43,
      "start": 46.0544,
      "duration": 0.1134,
      "velocity": 127,
      "chip": "ym2612"
    },
    {
      "channel": 5,
      "note": 26,
      "start": 46.0546,
      "duration": 0.1134,
      "velocity": 127,
      "chip": "ym2612"
    },
    {
      "channel": 0,
      "note": 61,
      "start": 46.1839,
      "duration": 0.1165,
      "velocity": 109,
      "chip": "ym2612"
    },
    {
      "channel": 1,
      "note": 61,
      "start": 46.1842,
      "duration": 0.1165,
      "velocity": 109,
      "chip": "ym2612"
    },
    {
      "channel": 4,
      "note": 51,
      "start": 46.1848,
      "duration": 0.1163,
      "velocity": 127,
      "chip": "ym2612"
    },
    {
      "channel": 5,
      "note": 26,
      "start": 46.1851,
      "duration": 0.2495,
      "velocity": 127,
      "chip": "ym2612"
    },
    {
      "channel": 0,
      "note": 61,
      "start": 46.3187,
      "duration": 0.1151,
      "velocity": 109,
      "chip": "ym2612"
    },
    {
      "channel": 1,
      "note": 61,
      "start": 46.3204,
      "duration": 0.1136,
      "velocity": 109,
      "chip": "ym2612"
    },
    {
      "channel": 4,
      "note": 31,
      "start": 46.321,
      "duration": 0.1135,
      "velocity": 127,
      "chip": "ym2612"
    },
    {
      "channel": 0,
      "note": 61,
      "start": 46.4521,
      "duration": 0.115,
      "velocity": 109,
      "chip": "ym2612"
    },
    {
      "channel": 1,
      "note": 61,
      "start": 46.4538,
      "duration": 0.1135,
      "velocity": 109,
      "chip": "ym2612"
    },
    {
      "channel": 4,
      "note": 39,
      "start": 46.4544,
      "duration": 0.1134,
      "velocity": 127,
      "chip": "ym2612"
    },
    {
      "channel": 5,
      "note": 26,
      "start": 46.4561,
      "duration": 0.2452,
      "velocity": 127,
      "chip": "ym2612"
    },
    {
      "channel": 0,
      "note": 61,
      "start": 46.5853,
      "duration": 0.1151,
      "velocity": 109,
      "chip": "ym2612"
    },
    {
      "channel": 1,
      "note": 61,
      "start": 46.5871,
      "duration": 0.1136,
      "velocity": 109,
      "chip": "ym2612"
    },
    {
      "channel": 4,
      "note": 19,
      "start": 46.5876,
      "duration": 0.1135,
      "velocity": 127,
      "chip": "ym2612"
    },
    {
      "channel": 0,
      "note": 61,
      "start": 46.7187,
      "duration": 0.115,
      "velocity": 109,
      "chip": "ym2612"
    },
    {
      "channel": 1,
      "note": 61,
      "start": 46.7205,
      "duration": 0.1135,
      "velocity": 109,
      "chip": "ym2612"
    },
    {
      "channel": 4,
      "note": 27,
      "start": 46.721,
      "duration": 0.1134,
      "velocity": 127,
      "chip": "ym2612"
    },
    {
      "channel": 5,
      "note": 22,
      "start": 46.7213,
      "duration": 0.2468,
      "velocity": 127,
      "chip": "ym2612"
    },
    {
      "channel": 0,
      "note": 61,
      "start": 46.852,
      "duration": 0.1151,
      "velocity": 109,
      "chip": "ym2612"
    },
    {
      "channel": 1,
      "note": 61,
      "start": 46.8537,
      "duration": 0.1136,
      "velocity": 109,
      "chip": "ym2612"
    },
    {
      "channel": 4,
      "note": 31,
      "start": 46.8543,
      "duration": 0.1136,
      "velocity": 127,
      "chip": "ym2612"
    },
    {
      "channel": 0,
      "note": 61,
      "start": 46.986,
      "duration": 0.1144,
      "velocity": 109,
      "chip": "ym2612"
    },
    {
      "channel": 1,
      "note": 61,
      "start": 46.9877,
      "duration": 0.113,
      "velocity": 109,
      "chip": "ym2612"
    },
    {
      "channel": 4,
      "note": 39,
      "start": 46.9896,
      "duration": 0.1115,
      "velocity": 127,
      "chip": "ym2612"
    },
    {
      "channel": 5,
      "note": 22,
      "start": 46.9913,
      "duration": 0.2433,
      "velocity": 127,
      "chip": "ym2612"
    },
    {
      "channel": 0,
      "note": 61,
      "start": 47.1187,
      "duration": 0.1151,
      "velocity": 109,
      "chip": "ym2612"
    },
    {
      "channel": 1,
      "note": 61,
      "start": 47.1204,
      "duration": 0.1136,
      "velocity": 109,
      "chip": "ym2612"
    },
    {
      "channel": 4,
      "note": 43,
      "start": 47.121,
      "duration": 0.1135,
      "velocity": 127,
      "chip": "ym2612"
    },
    {
      "channel": 0,
      "note": 61,
      "start": 47.2506,
      "duration": 0.1165,
      "velocity": 109,
      "chip": "ym2612"
    },
    {
      "channel": 1,
      "note": 61,
      "start": 47.2509,
      "duration": 0.1165,
      "velocity": 109,
      "chip": "ym2612"
    },
    {
      "channel": 4,
      "note": 51,
      "start": 47.2514,
      "duration": 0.1163,
      "velocity": 127,
      "chip": "ym2612"
    },
    {
      "channel": 5,
      "note": 34,
      "start": 47.2532,
      "duration": 0.1148,
      "velocity": 127,
      "chip": "ym2612"
    },
    {
      "channel": 0,
      "note": 61,
      "start": 47.3854,
      "duration": 0.115,
      "velocity": 109,
      "chip": "ym2612"
    },
    {
      "channel": 1,
      "note": 61,
      "start": 47.3871,
      "duration": 0.1135,
      "velocity": 109,
      "chip": "ym2612"
    },
    {
      "channel": 4,
      "note": 55,
      "start": 47.3877,
      "duration": 0.1134,
      "velocity": 127,
      "chip": "ym2612"
    },
    {
      "channel": 5,
      "note": 26,
      "start": 47.3894,
      "duration": 0.1119,
      "velocity": 127,
      "chip": "ym2612"
    },
    {
      "channel": 0,
      "note": 61,
      "start": 47.5173,
      "duration": 0.1165,
      "velocity": 109,
      "chip": "ym2612"
    },
    {
      "channel": 1,
      "note": 61,
      "start": 47.5175,
      "duration": 0.1165,
      "velocity": 109,
      "chip": "ym2612"
    },
    {
      "channel": 4,
      "note": 63,
      "start": 47.5181,
      "duration": 0.1163,
      "velocity": 127,
      "chip": "ym2612"
    },
    {
      "channel": 5,
      "note": 39,
      "start": 47.5184,
      "duration": 0.2495,
      "velocity": 127,
      "chip": "ym2612"
    },
    {
      "channel": 0,
      "note": 61,
      "start": 47.652,
      "duration": 0.1151,
      "velocity": 109,
      "chip": "ym2612"
    },
    {
      "channel": 1,
      "note": 61,
      "start": 47.6537,
      "duration": 0.1136,
      "velocity": 109,
      "chip": "ym2612"
    },
    {
      "channel": 4,
      "note": 43,
      "start": 47.6543,
      "duration": 0.1135,
      "velocity": 127,
      "chip": "ym2612"
    },
    {
      "channel": 0,
      "note": 61,
      "start": 47.7855,
      "duration": 0.1149,
      "velocity": 109,
      "chip": "ym2612"
    },
    {
      "channel": 1,
      "note": 61,
      "start": 47.7872,
      "duration": 0.1135,
      "velocity": 109,
      "chip": "ym2612"
    },
    {
      "channel": 4,
      "note": 51,
      "start": 47.7892,
      "duration": 1.3119,
      "velocity": 127,
      "chip": "ym2612"
    },
    {
      "channel": 5,
      "note": 34,
      "start": 47.7895,
      "duration": 0.2451,
      "velocity": 127,
      "chip": "ym2612"
    },
    {
      "channel": 0,
      "note": 61,
      "start": 47.9187,
      "duration": 0.1151,
      "velocity": 109,
      "chip": "ym2612"
    },
    {
      "channel": 1,
      "note": 61,
      "start": 47.9204,
      "duration": 0.1136,
      "velocity": 109,
      "chip": "ym2612"
    },
    {
      "channel": 0,
      "note": 61,
      "start": 48.0507,
      "duration": 0.1164,
      "velocity": 109,
      "chip": "ym2612"
    },
    {
      "channel": 1,
      "note": 61,
      "start": 48.0509,
      "duration": 0.1164,
      "velocity": 109,
      "chip": "ym2612"
    },
    {
      "channel": 5,
      "note": 34,
      "start": 48.0531,
      "duration": 0.1148,
      "velocity": 127,
      "chip": "ym2612"
    },
    {
      "channel": 0,
      "note": 61,
      "start": 48.1854,
      "duration": 0.1151,
      "velocity": 109,
      "chip": "ym2612"
    },
    {
      "channel": 1,
      "note": 61,
      "start": 48.1871,
      "duration": 0.1135,
      "velocity": 109,
      "chip": "ym2612"
    },
    {
      "channel": 5,
      "note": 26,
      "start": 48.1879,
      "duration": 0.1134,
      "velocity": 127,
      "chip": "ym2612"
    },
    {
      "channel": 0,
      "note": 61,
      "start": 48.3173,
      "duration": 0.1165,
      "velocity": 109,
      "chip": "ym2612"
    },
    {
      "channel": 1,
      "note": 61,
      "start": 48.3175,
      "duration": 0.1165,
      "velocity": 109,
      "chip": "ym2612"
    },
    {
      "channel": 5,
      "note": 26,
      "start": 48.3182,
      "duration": 0.2497,
      "velocity": 127,
      "chip": "ym2612"
    },
    {
      "channel": 0,
      "note": 61,
      "start": 48.452,
      "duration": 0.1151,
      "velocity": 109,
      "chip": "ym2612"
    },
    {
      "channel": 1,
      "note": 61,
      "start": 48.4537,
      "duration": 0.1136,
      "velocity": 109,
      "chip": "ym2612"
    },
    {
      "channel": 0,
      "note": 61,
      "start": 48.5854,
      "duration": 0.115,
      "velocity": 109,
      "chip": "ym2612"
    },
    {
      "channel": 1,
      "note": 61,
      "start": 48.5871,
      "duration": 0.1135,
      "velocity": 109,
      "chip": "ym2612"
    },
    {
      "channel": 5,
      "note": 26,
      "start": 48.5879,
      "duration": 0.2467,
      "velocity": 127,
      "chip": "ym2612"
    },
    {
      "channel": 0,
      "note": 61,
      "start": 48.7187,
      "duration": 0.1151,
      "velocity": 109,
      "chip": "ym2612"
    },
    {
      "channel": 1,
      "note": 61,
      "start": 48.7204,
      "duration": 0.1136,
      "velocity": 109,
      "chip": "ym2612"
    },
    {
      "channel": 0,
      "note": 61,
      "start": 48.8521,
      "duration": 0.115,
      "velocity": 109,
      "chip": "ym2612"
    },
    {
      "channel": 1,
      "note": 61,
      "start": 48.8538,
      "duration": 0.1135,
      "velocity": 109,
      "chip": "ym2612"
    },
    {
      "channel": 5,
      "note": 26,
      "start": 48.8545,
      "duration": 0.2468,
      "velocity": 127,
      "chip": "ym2612"
    },
    {
      "channel": 0,
      "note": 61,
      "start": 48.9853,
      "duration": 0.1151,
      "velocity": 109,
      "chip": "ym2612"
    },
    {
      "channel": 1,
      "note": 61,
      "start": 48.9871,
      "duration": 0.1136,
      "velocity": 109,
      "chip": "ym2612"
    },
    {
      "channel": 0,
      "note": 61,
      "start": 49.1191,
      "duration": 0.1146,
      "velocity": 109,
      "chip": "ym2612"
    },
    {
      "channel": 1,
      "note": 61,
      "start": 49.1208,
      "duration": 0.1132,
      "velocity": 109,
      "chip": "ym2612"
    },
    {
      "channel": 4,
      "note": 21,
      "start": 49.1229,
      "duration": 0.1116,
      "velocity": 127,
      "chip": "ym2612"
    },
    {
      "channel": 5,
      "note": 26,
      "start": 49.1246,
      "duration": 0.2434,
      "velocity": 127,
      "chip": "ym2612"
    },
    {
      "channel": 0,
      "note": 61,
      "start": 49.252,
      "duration": 0.1151,
      "velocity": 109,
      "chip": "ym2612"
    },
    {
      "channel": 1,
      "note": 61,
      "start": 49.2537,
      "duration": 0.1136,
      "velocity": 109,
      "chip": "ym2612"
    },
    {
      "channel": 4,
      "note": 19,
      "start": 49.2543,
      "duration": 0.1135,
      "velocity": 127,
      "chip": "ym2612"
    },
    {
      "channel": 0,
      "note": 61,
      "start": 49.3839,
      "duration": 0.1165,
      "velocity": 109,
      "chip": "ym2612"
    },
    {
      "channel": 1,
      "note": 61,
      "start": 49.3842,
      "duration": 0.1165,
      "velocity": 109,
      "chip": "ym2612"
    },
    {
      "channel": 4,
      "note": 27,
      "start": 49.3848,
      "duration": 0.1163,
      "velocity": 127,
      "chip": "ym2612"
    },
    {
      "channel": 5,
      "note": 34,
      "start": 49.3865,
      "duration": 0.1148,
      "velocity": 127,
      "chip": "ym2612"
    },
    {
      "channel": 0,
      "note": 61,
      "start": 49.5187,
      "duration": 0.115,
      "velocity": 109,
      "chip": "ym2612"
    },
    {
      "channel": 1,
      "note": 61,
      "start": 49.5205,
      "duration": 0.1135,
      "velocity": 109,
      "chip": "ym2612"
    },
    {
      "channel": 4,
      "note": 31,
      "start": 49.521,
      "duration": 0.1134,
      "velocity": 127,
      "chip": "ym2612"
    },
    {
      "channel": 5,
      "note": 26,
      "start": 49.5227,
      "duration": 0.1119,
      "velocity": 127,
      "chip": "ym2612"
    },
    {
      "channel": 0,
      "note": 61,
      "start": 49.6506,
      "duration": 0.1165,
      "velocity": 109,
      "chip": "ym2612"
    },
    {
      "channel": 1,
      "note": 61,
      "start": 49.6509,
      "duration": 0.1165,
      "velocity": 109,
      "chip": "ym2612"
    },
    {
      "channel": 4,
      "note": 39,
      "start": 49.6514,
      "duration": 0.1163,
      "velocity": 127,
      "chip": "ym2612"
    },
    {
      "channel": 5,
      "note": 39,
      "start": 49.6517,
      "duration": 0.2495,
      "velocity": 127,
      "chip": "ym2612"
    },
    {
      "channel": 0,
      "note": 61,
      "start": 49.7853,
      "duration": 0.1151,
      "velocity": 109,
      "chip": "ym2612"
    },
    {
      "channel": 1,
      "note": 61,
      "start": 49.7871,
      "duration": 0.1136,
      "velocity": 109,
      "chip": "ym2612"
    },
    {
      "channel": 4,
      "note": 43,
      "start": 49.7876,
      "duration": 0.1135,
      "velocity": 127,
      "chip": "ym2612"
    },
    {
      "channel": 0,
      "note": 61,
      "start": 49.9187,
      "duration": 0.115,
      "velocity": 109,
      "chip": "ym2612"
    },
    {
      "channel": 1,
      "note": 61,
      "start": 49.9205,
      "duration": 0.1135,
      "velocity": 109,
      "chip": "ym2612"
    },
    {
      "channel": 4,
      "note": 51,
      "start": 49.921,
      "duration": 0.1134,
      "velocity": 127,
      "chip": "ym2612"
    },
    {
      "channel": 5,
      "note": 34,
      "start": 49.9213,
      "duration": 0.2467,
      "velocity": 127,
      "chip": "ym2612"
    },
    {
      "channel": 0,
      "note": 61,
      "start": 50.052,
      "duration": 0.1151,
      "velocity": 109,
      "chip": "ym2612"
    },
    {
      "channel": 1,
      "note": 61,
      "start": 50.0537,
      "duration": 0.1136,
      "velocity": 109,
      "chip": "ym2612"
    },
    {
      "channel": 4,
      "note": 55,
      "start": 50.0543,
      "duration": 0.1135,
      "velocity": 127,
      "chip": "ym2612"
    },
    {
      "channel": 0,
      "note": 61,
      "start": 50.1839,
      "duration": 0.1165,
      "velocity": 109,
      "chip": "ym2612"
    },
    {
      "channel": 1,
      "note": 61,
      "start": 50.1842,
      "duration": 0.1165,
      "velocity": 109,
      "chip": "ym2612"
    },
    {
      "channel": 4,
      "note": 63,
      "start": 50.1848,
      "duration": 0.1163,
      "velocity": 127,
      "chip": "ym2612"
    },
    {
      "channel": 5,
      "note": 34,
      "start": 50.1865,
      "duration": 0.1148,
      "velocity": 127,
      "chip": "ym2612"
    },
    {
      "channel": 0,
      "note": 61,
      "start": 50.3187,
      "duration": 0.1151,
      "velocity": 109,
      "chip": "ym2612"
    },
    {
      "channel": 1,
      "note": 61,
      "start": 50.3205,
      "duration": 0.1135,
      "velocity": 109,
      "chip": "ym2612"
    },
    {
      "channel": 4,
      "note": 43,
      "start": 50.321,
      "duration": 0.1134,
      "velocity": 127,
      "chip": "ym2612"
    },
    {
      "channel": 5,
      "note": 26,
      "start": 50.3213,
      "duration": 0.1134,
      "velocity": 127,
      "chip": "ym2612"
    },
    {
      "channel": 0,
      "note": 61,
      "start": 50.4506,
      "duration": 0.1165,
      "velocity": 109,
      "chip": "ym2612"
    },
    {
      "channel": 1,
      "note": 61,
      "start": 50.4509,
      "duration": 0.1165,
      "velocity": 109,
      "chip": "ym2612"
    },
    {
      "channel": 4,
      "note": 51,
      "start": 50.4514,
      "duration": 0.1163,
      "velocity": 127,
      "chip": "ym2612"
    },
    {
      "channel": 5,
      "note": 26,
      "start": 50.4517,
      "duration": 0.2495,
      "velocity": 127,
      "chip": "ym2612"
    },
    {
      "channel": 0,
      "note": 61,
      "start": 50.5853,
      "duration": 0.1151,
      "velocity": 109,
      "chip": "ym2612"
    },
    {
      "channel": 1,
      "note": 61,
      "start": 50.5871,
      "duration": 0.1136,
      "velocity": 109,
      "chip": "ym2612"
    },
    {
      "channel": 4,
      "note": 31,
      "start": 50.5876,
      "duration": 0.1135,
      "velocity": 127,
      "chip": "ym2612"
    },
    {
      "channel": 0,
      "note": 61,
      "start": 50.7187,
      "duration": 0.115,
      "velocity": 109,
      "chip": "ym2612"
    },
    {
      "channel": 1,
      "note": 61,
      "start": 50.7205,
      "duration": 0.1135,
      "velocity": 109,
      "chip": "ym2612"
    },
    {
      "channel": 4,
      "note": 39,
      "start": 50.721,
      "duration": 0.1134,
      "velocity": 127,
      "chip": "ym2612"
    },
    {
      "channel": 5,
      "note": 26,
      "start": 50.7227,
      "duration": 0.2452,
      "velocity": 127,
      "chip": "ym2612"
    },
    {
      "channel": 0,
      "note": 61,
      "start": 50.852,
      "duration": 0.1151,
      "velocity": 109,
      "chip": "ym2612"
    },
    {
      "channel": 1,
      "note": 61,
      "start": 50.8537,
      "duration": 0.1136,
      "velocity": 109,
      "chip": "ym2612"
    },
    {
      "channel": 4,
      "note": 19,
      "start": 50.8543,
      "duration": 0.1135,
      "velocity": 127,
      "chip": "ym2612"
    },
    {
      "channel": 0,
      "note": 61,
      "start": 50.9854,
      "duration": 0.115,
      "velocity": 109,
      "chip": "ym2612"
    },
    {
      "channel": 1,
      "note": 61,
      "start": 50.9871,
      "duration": 0.1135,
      "velocity": 109,
      "chip": "ym2612"
    },
    {
      "channel": 4,
      "note": 27,
      "start": 50.9877,
      "duration": 0.1134,
      "velocity": 127,
      "chip": "ym2612"
    },
    {
      "channel": 5,
      "note": 22,
      "start": 50.9879,
      "duration": 0.2468,
      "velocity": 127,
      "chip": "ym2612"
    },
    {
      "channel": 0,
      "note": 61,
      "start": 51.1187,
      "duration": 0.1151,
      "velocity": 109,
      "chip": "ym2612"
    },
    {
      "channel": 1,
      "note": 61,
      "start": 51.1204,
      "duration": 0.1136,
      "velocity": 109,
      "chip": "ym2612"
    },
    {
      "channel": 4,
      "note": 31,
      "start": 51.121,
      "duration": 0.1136,
      "velocity": 127,
      "chip": "ym2612"
    },
    {
      "channel": 0,
      "note": 61,
      "start": 51.2528,
      "duration": 0.1143,
      "velocity": 109,
      "chip": "ym2612"
    },
    {
      "channel": 1,
      "note": 61,
      "start": 51.2545,
      "duration": 0.1128,
      "velocity": 109,
      "chip": "ym2612"
    },
    {
      "channel": 4,
      "note": 39,
      "start": 51.2564,
      "duration": 0.1114,
      "velocity": 127,
      "chip": "ym2612"
    },
    {
      "channel": 5,
      "note": 22,
      "start": 51.2581,
      "duration": 0.2432,
      "velocity": 127,
      "chip": "ym2612"
    },
    {
      "channel": 0,
      "note": 60,
      "start": 51.3853,
      "duration": 0.1151,
      "velocity": 109,
      "chip": "ym2612"
    },
    {
      "channel": 1,
      "note": 61,
      "start": 51.3871,
      "duration": 0.1136,
      "velocity": 109,
      "chip": "ym2612"
    },
    {
      "channel": 4,
      "note": 43,
      "start": 51.3876,
      "duration": 0.1135,
      "velocity": 127,
      "chip": "ym2612"
    },
    {
      "channel": 0,
      "note": 60,
      "start": 51.5173,
      "duration": 0.1165,
      "velocity": 109,
      "chip": "ym2612"
    },
    {
      "channel": 1,
      "note": 61,
      "start": 51.5175,
      "duration": 0.1165,
      "velocity": 109,
      "chip": "ym2612"
    },
    {
      "channel": 4,
      "note": 51,
      "start": 51.5181,
      "duration": 0.1163,
      "velocity": 127,
      "chip": "ym2612"
    },
    {
      "channel": 5,
      "note": 34,
      "start": 51.5198,
      "duration": 0.1148,
      "velocity": 127,
      "chip": "ym2612"
    },
    {
      "channel": 0,
      "note": 60,
      "start": 51.6521,
      "duration": 0.115,
      "velocity": 109,
      "chip": "ym2612"
    },
    {
      "channel": 1,
      "note": 61,
      "start": 51.6538,
      "duration": 0.1135,
      "velocity": 109,
      "chip": "ym2612"
    },
    {
      "channel": 4,
      "note": 55,
      "start": 51.6544,
      "duration": 0.1134,
      "velocity": 127,
      "chip": "ym2612"
    },
    {
      "channel": 5,
      "note": 26,
      "start": 51.6561,
      "duration": 0.1119,
      "velocity": 127,
      "chip": "ym2612"
    },
    {
      "channel": 0,
      "note": 60,
      "start": 51.7839,
      "duration": 0.1165,
      "velocity": 109,
      "chip": "ym2612"
    },
    {
      "channel": 1,
      "note": 61,
      "start": 51.7842,
      "duration": 0.1165,
      "velocity": 109,
      "chip": "ym2612"
    },
    {
      "channel": 4,
      "note": 63,
      "start": 51.7848,
      "duration": 0.1163,
      "velocity": 127,
      "chip": "ym2612"
    },
    {
      "channel": 5,
      "note": 39,
      "start": 51.7851,
      "duration": 0.2495,
      "velocity": 127,
      "chip": "ym2612"
    },
    {
      "channel": 0,
      "note": 60,
      "start": 51.9187,
      "duration": 0.1151,
      "velocity": 109,
      "chip": "ym2612"
    },
    {
      "channel": 1,
      "note": 61,
      "start": 51.9204,
      "duration": 0.1136,
      "velocity": 109,
      "chip": "ym2612"
    },
    {
      "channel": 4,
      "note": 43,
      "start": 51.921,
      "duration": 0.1135,
      "velocity": 127,
      "chip": "ym2612"
    },
    {
      "channel": 0,
      "note": 60,
      "start": 52.0521,
      "duration": 0.1149,
      "velocity": 109,
      "chip": "ym2612"
    },
    {
      "channel": 1,
      "note": 61,
      "start": 52.0538,
      "duration": 0.1135,
      "velocity": 109,
      "chip": "ym2612"
    },
    {
      "channel": 4,
      "note": 51,
      "start": 52.0559,
      "duration": 1.3119,
      "velocity": 127,
      "chip": "ym2612"
    },
    {
      "channel": 5,
      "note": 34,
      "start": 52.0561,
      "duration": 0.2451,
      "velocity": 127,
      "chip": "ym2612"
    },
    {
      "channel": 0,
      "note": 60,
      "start": 52.1853,
      "duration": 0.1151,
      "velocity": 109,
      "chip": "ym2612"
    },
    {
      "channel": 1,
      "note": 61,
      "start": 52.1871,
      "duration": 0.1136,
      "velocity": 109,
      "chip": "ym2612"
    },
    {
      "channel": 0,
      "note": 60,
      "start": 52.3173,
      "duration": 0.1164,
      "velocity": 109,
      "chip": "ym2612"
    },
    {
      "channel": 1,
      "note": 61,
      "start": 52.3176,
      "duration": 0.1164,
      "velocity": 109,
      "chip": "ym2612"
    },
    {
      "channel": 5,
      "note": 34,
      "start": 52.3198,
      "duration": 0.1148,
      "velocity": 127,
      "chip": "ym2612"
    },
    {
      "channel": 0,
      "note": 60,
      "start": 52.4521,
      "duration": 0.115,
      "velocity": 109,
      "chip": "ym2612"
    },
    {
      "channel": 1,
      "note": 61,
      "start": 52.4538,
      "duration": 0.1135,
      "velocity": 109,
      "chip": "ym2612"
    },
    {
      "channel": 5,
      "note": 26,
      "start": 52.4545,
      "duration": 0.1134,
      "velocity": 127,
      "chip": "ym2612"
    },
    {
      "channel": 0,
      "note": 60,
      "start": 52.5839,
      "duration": 0.1165,
      "velocity": 109,
      "chip": "ym2612"
    },
    {
      "channel": 1,
      "note": 61,
      "start": 52.5841,
      "duration": 0.1165,
      "velocity": 109,
      "chip": "ym2612"
    },
    {
      "channel": 5,
      "note": 26,
      "start": 52.5849,
      "duration": 0.2497,
      "velocity": 127,
      "chip": "ym2612"
    },
    {
      "channel": 0,
      "note": 60,
      "start": 52.7187,
      "duration": 0.1151,
      "velocity": 109,
      "chip": "ym2612"
    },
    {
      "channel": 1,
      "note": 61,
      "start": 52.7204,
      "duration": 0.1136,
      "velocity": 109,
      "chip": "ym2612"
    },
    {
      "channel": 0,
      "note": 60,
      "start": 52.8521,
      "duration": 0.115,
      "velocity": 109,
      "chip": "ym2612"
    },
    {
      "channel": 1,
      "note": 61,
      "start": 52.8538,
      "duration": 0.1135,
      "velocity": 109,
      "chip": "ym2612"
    },
    {
      "channel": 5,
      "note": 26,
      "start": 52.8545,
      "duration": 0.2467,
      "velocity": 127,
      "chip": "ym2612"
    },
    {
      "channel": 0,
      "note": 60,
      "start": 52.9853,
      "duration": 0.1151,
      "velocity": 109,
      "chip": "ym2612"
    },
    {
      "channel": 1,
      "note": 61,
      "start": 52.9871,
      "duration": 0.1136,
      "velocity": 109,
      "chip": "ym2612"
    },
    {
      "channel": 0,
      "note": 60,
      "start": 53.1187,
      "duration": 0.115,
      "velocity": 109,
      "chip": "ym2612"
    },
    {
      "channel": 1,
      "note": 61,
      "start": 53.1205,
      "duration": 0.1135,
      "velocity": 109,
      "chip": "ym2612"
    },
    {
      "channel": 5,
      "note": 26,
      "start": 53.1212,
      "duration": 0.2468,
      "velocity": 127,
      "chip": "ym2612"
    },
    {
      "channel": 0,
      "note": 60,
      "start": 53.252,
      "duration": 0.1151,
      "velocity": 109,
      "chip": "ym2612"
    },
    {
      "channel": 1,
      "note": 61,
      "start": 53.2537,
      "duration": 0.1136,
      "velocity": 109,
      "chip": "ym2612"
    },
    {
      "channel": 0,
      "note": 60,
      "start": 53.3858,
      "duration": 0.1146,
      "velocity": 109,
      "chip": "ym2612"
    },
    {
      "channel": 1,
      "note": 61,
      "start": 53.3875,
      "duration": 0.1132,
      "velocity": 109,
      "chip": "ym2612"
    },
    {
      "channel": 4,
      "note": 21,
      "start": 53.3895,
      "duration": 0.1116,
      "velocity": 127,
      "chip": "ym2612"
    },
    {
      "channel": 5,
      "note": 26,
      "start": 53.3912,
      "duration": 0.2434,
      "velocity": 127,
      "chip": "ym2612"
    },
    {
      "channel": 0,
      "note": 61,
      "start": 53.5187,
      "duration": 0.1151,
      "velocity": 109,
      "chip": "ym2612"
    },
    {
      "channel": 1,
      "note": 61,
      "start": 53.5204,
      "duration": 0.1136,
      "velocity": 109,
      "chip": "ym2612"
    },
    {
      "channel": 4,
      "note": 19,
      "start": 53.521,
      "duration": 0.1135,
      "velocity": 127,
      "chip": "ym2612"
    },
    {
      "channel": 0,
      "note": 61,
      "start": 53.6506,
      "duration": 0.1165,
      "velocity": 109,
      "chip": "ym2612"
    },
    {
      "channel": 1,
      "note": 61,
      "start": 53.6509,
      "duration": 0.1165,
      "velocity": 109,
      "chip": "ym2612"
    },
    {
      "channel": 4,
      "note": 27,
      "start": 53.6514,
      "duration": 0.1163,
      "velocity": 127,
      "chip": "ym2612"
    },
    {
      "channel": 5,
      "note": 34,
      "start": 53.6532,
      "duration": 0.1148,
      "velocity": 127,
      "chip": "ym2612"
    },
    {
      "channel": 0,
      "note": 61,
      "start": 53.7854,
      "duration": 0.115,
      "velocity": 109,
      "chip": "ym2612"
    },
    {
      "channel": 1,
      "note": 61,
      "start": 53.7871,
      "duration": 0.1135,
      "velocity": 109,
      "chip": "ym2612"
    },
    {
      "channel": 4,
      "note": 31,
      "start": 53.7877,
      "duration": 0.1134,
      "velocity": 127,
      "chip": "ym2612"
    },
    {
      "channel": 5,
      "note": 26,
      "start": 53.7894,
      "duration": 0.1119,
      "velocity": 127,
      "chip": "ym2612"
    },
    {
      "channel": 0,
      "note": 61,
      "start": 53.9173,
      "duration": 0.1165,
      "velocity": 109,
      "chip": "ym2612"
    },
    {
      "channel": 1,
      "note": 61,
      "start": 53.9175,
      "duration": 0.1165,
      "velocity": 109,
      "chip": "ym2612"
    },
    {
      "channel": 4,
      "note": 39,
      "start": 53.9181,
      "duration": 0.1163,
      "velocity": 127,
      "chip": "ym2612"
    },
    {
      "channel": 5,
      "note": 39,
      "start": 53.9184,
      "duration": 0.2495,
      "velocity": 127,
      "chip": "ym2612"
    },
    {
      "channel": 0,
      "note": 61,
      "start": 54.052,
      "duration": 0.1151,
      "velocity": 109,
      "chip": "ym2612"
    },
    {
      "channel": 1,
      "note": 61,
      "start": 54.0537,
      "duration": 0.1136,
      "velocity": 109,
      "chip": "ym2612"
    },
    {
      "channel": 4,
      "note": 43,
      "start": 54.0543,
      "duration": 0.1135,
      "velocity": 127,
      "chip": "ym2612"
    },
    {
      "channel": 0,
      "note": 61,
      "start": 54.1854,
      "duration": 0.115,
      "velocity": 109,
      "chip": "ym2612"
    },
    {
      "channel": 1,
      "note": 61,
      "start": 54.1871,
      "duration": 0.1135,
      "velocity": 109,
      "chip": "ym2612"
    },
    {
      "channel": 4,
      "note": 51,
      "start": 54.1877,
      "duration": 0.1134,
      "velocity": 127,
      "chip": "ym2612"
    },
    {
      "channel": 5,
      "note": 34,
      "start": 54.1879,
      "duration": 0.2467,
      "velocity": 127,
      "chip": "ym2612"
    },
    {
      "channel": 0,
      "note": 61,
      "start": 54.3187,
      "duration": 0.1151,
      "velocity": 109,
      "chip": "ym2612"
    },
    {
      "channel": 1,
      "note": 61,
      "start": 54.3204,
      "duration": 0.1136,
      "velocity": 109,
      "chip": "ym2612"
    },
    {
      "channel": 4,
      "note": 55,
      "start": 54.321,
      "duration": 0.1135,
      "velocity": 127,
      "chip": "ym2612"
    },
    {
      "channel": 0,
      "note": 61,
      "start": 54.4506,
      "duration": 0.1165,
      "velocity": 109,
      "chip": "ym2612"
    },
    {
      "channel": 1,
      "note": 61,
      "start": 54.4509,
      "duration": 0.1165,
      "velocity": 109,
      "chip": "ym2612"
    },
    {
      "channel": 4,
      "note": 63,
      "start": 54.4514,
      "duration": 0.1163,
      "velocity": 127,
      "chip": "ym2612"
    },
    {
      "channel": 5,
      "note": 34,
      "start": 54.4532,
      "duration": 0.1148,
      "velocity": 127,
      "chip": "ym2612"
    },
    {
      "channel": 0,
      "note": 61,
      "start": 54.5854,
      "duration": 0.1151,
      "velocity": 109,
      "chip": "ym2612"
    },
    {
      "channel": 1,
      "note": 61,
      "start": 54.5871,
      "duration": 0.1136,
      "velocity": 109,
      "chip": "ym2612"
    },
    {
      "channel": 4,
      "note": 43,
      "start": 54.5877,
      "duration": 0.1134,
      "velocity": 127,
      "chip": "ym2612"
    },
    {
      "channel": 5,
      "note": 26,
      "start": 54.5879,
      "duration": 0.1134,
      "velocity": 127,
      "chip": "ym2612"
    },
    {
      "channel": 0,
      "note": 61,
      "start": 54.7173,
      "duration": 0.1165,
      "velocity": 109,
      "chip": "ym2612"
    },
    {
      "channel": 1,
      "note": 61,
      "start": 54.7175,
      "duration": 0.1165,
      "velocity": 109,
      "chip": "ym2612"
    },
    {
      "channel": 4,
      "note": 51,
      "start": 54.7181,
      "duration": 0.1163,
      "velocity": 127,
      "chip": "ym2612"
    },
    {
      "channel": 5,
      "note": 26,
      "start": 54.7183,
      "duration": 0.2496,
      "velocity": 127,
      "chip": "ym2612"
    },
    {
      "channel": 0,
      "note": 61,
      "start": 54.852,
      "duration": 0.1151,
      "velocity": 109,
      "chip": "ym2612"
    },
    {
      "channel": 1,
      "note": 61,
      "start": 54.8537,
      "duration": 0.1136,
      "velocity": 109,
      "chip": "ym2612"
    },
    {
      "channel": 4,
      "note": 31,
      "start": 54.8543,
      "duration": 0.1135,
      "velocity": 127,
      "chip": "ym2612"
    }
  ]
}