{
  "track_name": "02 - A Ray of Hope",
  "duration_sec": 91.896,
  "sample_rate": 44100,
  "note_count": 1234,
  "unique_pitches": 29,
  "pitch_range": 52,
  "avg_note_duration": 0.2967,
  "reconstruction_stats": {
    "notes_reconstructed": 1234,
    "keyon_events": 1234,
    "keyoff_events": 1230,
    "orphan_keyons": 4,
    "unique_pitches": 29,
    "pitch_range": 52,
    "avg_duration_sec": 0.2967
  },
  "metadata": {
    "source": "T\\Thunder Force II\\02 - A Ray of Hope.vgz"
  },
  "notes": [
    {
      "channel": 0,
      "note": 59,
      "start": 0.0,
      "duration": 0.0505,
      "velocity": 127,
      "chip": "ym2612"
    },
    {
      "channel": 1,
      "note": 51,
      "start": 0.0045,
      "duration": 0.1433,
      "velocity": 99,
      "chip": "ym2612"
    },
    {
      "channel": 2,
      "note": 75,
      "start": 0.0089,
      "duration": 10.6882,
      "velocity": 98,
      "chip": "ym2612"
    },
    {
      "channel": 3,
      "note": 87,
      "start": 0.0133,
      "duration": 1.976,
      "velocity": 101,
      "chip": "ym2612"
    },
    {
      "channel": 5,
      "note": 47,
      "start": 0.0184,
      "duration": 0.0334,
      "velocity": 127,
      "chip": "ym2612"
    },
    {
      "channel": 1,
      "note": 51,
      "start": 0.1768,
      "duration": 0.1371,
      "velocity": 99,
      "chip": "ym2612"
    },
    {
      "channel": 0,
      "note": 71,
      "start": 0.3458,
      "duration": 0.0508,
      "velocity": 127,
      "chip": "ym2612"
    },
    {
      "channel": 1,
      "note": 51,
      "start": 0.3473,
      "duration": 0.1466,
      "velocity": 99,
      "chip": "ym2612"
    },
    {
      "channel": 4,
      "note": 75,
      "start": 0.354,
      "duration": 10.6894,
      "velocity": 98,
      "chip": "ym2612"
    },
    {
      "channel": 5,
      "note": 59,
      "start": 0.356,
      "duration": 0.0419,
      "velocity": 127,
      "chip": "ym2612"
    },
    {
      "channel": 1,
      "note": 54,
      "start": 0.5229,
      "duration": 0.1371,
      "velocity": 99,
      "chip": "ym2612"
    },
    {
      "channel": 0,
      "note": 59,
      "start": 0.6919,
      "duration": 0.0097,
      "velocity": 127,
      "chip": "ym2612"
    },
    {
      "channel": 1,
      "note": 51,
      "start": 0.6934,
      "duration": 0.1328,
      "velocity": 99,
      "chip": "ym2612"
    },
    {
      "channel": 5,
      "note": 47,
      "start": 0.6978,
      "duration": 0.006,
      "velocity": 127,
      "chip": "ym2612"
    },
    {
      "channel": 0,
      "note": 71,
      "start": 0.858,
      "duration": 0.0097,
      "velocity": 127,
      "chip": "ym2612"
    },
    {
      "channel": 1,
      "note": 51,
      "start": 0.8595,
      "duration": 0.1328,
      "velocity": 99,
      "chip": "ym2612"
    },
    {
      "channel": 5,
      "note": 59,
      "start": 0.8624,
      "duration": 0.0071,
      "velocity": 127,
      "chip": "ym2612"
    },
    {
      "channel": 0,
      "note": 71,
      "start": 1.0212,
      "duration": 0.0126,
      "velocity": 127,
      "chip": "ym2612"
    },
    {
      "channel": 1,
      "note": 51,
      "start": 1.0228,
      "duration": 0.1357,
      "velocity": 99,
      "chip": "ym2612"
    },
    {
      "channel": 5,
      "note": 59,
      "start": 1.0257,
      "duration": 0.0099,
      "velocity": 127,
      "chip": "ym2612"
    },
    {
      "channel": 0,
      "note": 71,
      "start": 1.1874,
      "duration": 0.0125,
      "velocity": 127,
      "chip": "ym2612"
    },
    {
      "channel": 1,
      "note": 54,
      "start": 1.1889,
      "duration": 0.1356,
      "velocity": 99,
      "chip": "ym2612"
    },
    {
      "channel": 5,
      "note": 59,
      "start": 1.1918,
      "duration": 0.0099,
      "velocity": 127,
      "chip": "ym2612"
    },
    {
      "channel": 0,
      "note": 59,
      "start": 1.3565,
      "duration": 0.0368,
      "velocity": 127,
      "chip": "ym2612"
    },
    {
      "channel": 1,
      "note": 51,
      "start": 1.3581,
      "duration": 0.1326,
      "velocity": 99,
      "chip": "ym2612"
    },
    {
      "channel": 5,
      "note": 47,
      "start": 1.3634,
      "duration": 0.0312,
      "velocity": 127,
      "chip": "ym2612"
    },
    {
      "channel": 1,
      "note": 51,
      "start": 1.5197,
      "duration": 0.1371,
      "velocity": 99,
      "chip": "ym2612"
    },
    {
      "channel": 0,
      "note": 71,
      "start": 1.6887,
      "duration": 0.0369,
      "velocity": 127,
      "chip": "ym2612"
    },
    {
      "channel": 1,
      "note": 51,
      "start": 1.6902,
      "duration": 0.1328,
      "velocity": 99,
      "chip": "ym2612"
    },
    {
      "channel": 5,
      "note": 59,
      "start": 1.6945,
      "duration": 0.0324,
      "velocity": 127,
      "chip": "ym2612"
    },
    {
      "channel": 1,
      "note": 54,
      "start": 1.852,
      "duration": 0.1371,
      "velocity": 99,
      "chip": "ym2612"
    },
    {
      "channel": 0,
      "note": 59,
      "start": 2.021,
      "duration": 0.0095,
      "velocity": 127,
      "chip": "ym2612"
    },
    {
      "channel": 1,
      "note": 51,
      "start": 2.0226,
      "duration": 0.1326,
      "velocity": 99,
      "chip": "ym2612"
    },
    {
      "channel": 3,
      "note": 89,
      "start": 2.0243,
      "duration": 0.6296,
      "velocity": 101,
      "chip": "ym2612"
    },
    {
      "channel": 5,
      "note": 47,
      "start": 2.0264,
      "duration": 0.0059,
      "velocity": 127,
      "chip": "ym2612"
    },
    {
      "channel": 0,
      "note": 71,
      "start": 2.187,
      "duration": 0.0097,
      "velocity": 127,
      "chip": "ym2612"
    },
    {
      "channel": 1,
      "note": 51,
      "start": 2.1885,
      "duration": 0.1328,
      "velocity": 99,
      "chip": "ym2612"
    },
    {
      "channel": 5,
      "note": 59,
      "start": 2.1914,
      "duration": 0.0071,
      "velocity": 127,
      "chip": "ym2612"
    },
    {
      "channel": 0,
      "note": 71,
      "start": 2.3502,
      "duration": 0.0126,
      "velocity": 127,
      "chip": "ym2612"
    },
    {
      "channel": 1,
      "note": 51,
      "start": 2.3518,
      "duration": 0.1357,
      "velocity": 99,
      "chip": "ym2612"
    },
    {
      "channel": 5,
      "note": 59,
      "start": 2.3541,
      "duration": 0.0098,
      "velocity": 127,
      "chip": "ym2612"
    },
    {
      "channel": 0,
      "note": 71,
      "start": 2.5164,
      "duration": 0.0126,
      "velocity": 127,
      "chip": "ym2612"
    },
    {
      "channel": 1,
      "note": 66,
      "start": 2.5179,
      "duration": 0.1357,
      "velocity": 99,
      "chip": "ym2612"
    },
    {
      "channel": 5,
      "note": 59,
      "start": 2.5202,
      "duration": 0.0099,
      "velocity": 127,
      "chip": "ym2612"
    },
    {
      "channel": 0,
      "note": 59,
      "start": 2.6859,
      "duration": 0.0503,
      "velocity": 127,
      "chip": "ym2612"
    },
    {
      "channel": 1,
      "note": 51,
      "start": 2.6875,
      "duration": 0.1461,
      "velocity": 99,
      "chip": "ym2612"
    },
    {
      "channel": 3,
      "note": 90,
      "start": 2.6906,
      "duration": 1.9845,
      "velocity": 101,
      "chip": "ym2612"
    },
    {
      "channel": 5,
      "note": 47,
      "start": 2.6928,
      "duration": 0.0441,
      "velocity": 127,
      "chip": "ym2612"
    },
    {
      "channel": 1,
      "note": 51,
      "start": 2.8626,
      "duration": 0.1371,
      "velocity": 99,
      "chip": "ym2612"
    },
    {
      "channel": 0,
      "note": 71,
      "start": 3.0315,
      "duration": 0.0369,
      "velocity": 127,
      "chip": "ym2612"
    },
    {
      "channel": 1,
      "note": 51,
      "start": 3.0331,
      "duration": 0.1328,
      "velocity": 99,
      "chip": "ym2612"
    },
    {
      "channel": 5,
      "note": 59,
      "start": 3.0368,
      "duration": 0.0324,
      "velocity": 127,
      "chip": "ym2612"
    },
    {
      "channel": 1,
      "note": 54,
      "start": 3.1948,
      "duration": 0.1371,
      "velocity": 99,
      "chip": "ym2612"
    },
    {
      "channel": 0,
      "note": 59,
      "start": 3.3638,
      "duration": 0.0097,
      "velocity": 127,
      "chip": "ym2612"
    },
    {
      "channel": 1,
      "note": 51,
      "start": 3.3653,
      "duration": 0.1327,
      "velocity": 99,
      "chip": "ym2612"
    },
    {
      "channel": 5,
      "note": 47,
      "start": 3.3677,
      "duration": 0.0069,
      "velocity": 127,
      "chip": "ym2612"
    },
    {
      "channel": 0,
      "note": 71,
      "start": 3.5299,
      "duration": 0.0097,
      "velocity": 127,
      "chip": "ym2612"
    },
    {
      "channel": 1,
      "note": 51,
      "start": 3.5314,
      "duration": 0.1328,
      "velocity": 99,
      "chip": "ym2612"
    },
    {
      "channel": 5,
      "note": 59,
      "start": 3.5337,
      "duration": 0.0071,
      "velocity": 127,
      "chip": "ym2612"
    },
    {
      "channel": 0,
      "note": 71,
      "start": 3.6931,
      "duration": 0.0126,
      "velocity": 127,
      "chip": "ym2612"
    },
    {
      "channel": 1,
      "note": 51,
      "start": 3.6946,
      "duration": 0.1357,
      "velocity": 99,
      "chip": "ym2612"
    },
    {
      "channel": 5,
      "note": 59,
      "start": 3.6969,
      "duration": 0.0099,
      "velocity": 127,
      "chip": "ym2612"
    },
    {
      "channel": 0,
      "note": 71,
      "start": 3.8593,
      "duration": 0.0125,
      "velocity": 127,
      "chip": "ym2612"
    },
    {
      "channel": 1,
      "note": 56,
      "start": 3.8608,
      "duration": 0.1356,
      "velocity": 99,
      "chip": "ym2612"
    },
    {
      "channel": 5,
      "note": 59,
      "start": 3.8631,
      "duration": 0.0099,
      "velocity": 127,
      "chip": "ym2612"
    },
    {
      "channel": 0,
      "note": 59,
      "start": 4.0285,
      "duration": 0.0505,
      "velocity": 127,
      "chip": "ym2612"
    },
    {
      "channel": 1,
      "note": 51,
      "start": 4.0301,
      "duration": 0.1463,
      "velocity": 99,
      "chip": "ym2612"
    },
    {
      "channel": 5,
      "note": 47,
      "start": 4.0354,
      "duration": 0.0444,
      "velocity": 127,
      "chip": "ym2612"
    },
    {
      "channel": 1,
      "note": 58,
      "start": 4.2054,
      "duration": 0.1371,
      "velocity": 99,
      "chip": "ym2612"
    },
    {
      "channel": 0,
      "note": 71,
      "start": 4.3744,
      "duration": 0.0369,
      "velocity": 127,
      "chip": "ym2612"
    },
    {
      "channel": 1,
      "note": 56,
      "start": 4.3759,
      "duration": 0.1327,
      "velocity": 99,
      "chip": "ym2612"
    },
    {
      "channel": 5,
      "note": 59,
      "start": 4.3797,
      "duration": 0.0323,
      "velocity": 127,
      "chip": "ym2612"
    },
    {
      "channel": 1,
      "note": 58,
      "start": 4.5378,
      "duration": 0.137,
      "velocity": 99,
      "chip": "ym2612"
    },
    {
      "channel": 0,
      "note": 59,
      "start": 4.7066,
      "duration": 0.0235,
      "velocity": 127,
      "chip": "ym2612"
    },
    {
      "channel": 1,
      "note": 54,
      "start": 4.7081,
      "duration": 0.1466,
      "velocity": 99,
      "chip": "ym2612"
    },
    {
      "channel": 3,
      "note": 92,
      "start": 4.7098,
      "duration": 0.6443,
      "velocity": 101,
      "chip": "ym2612"
    },
    {
      "channel": 5,
      "note": 62,
      "start": 4.715,
      "duration": 0.0849,
      "velocity": 127,
      "chip": "ym2612"
    },
    {
      "channel": 0,
      "note": 71,
      "start": 4.8866,
      "duration": 0.0097,
      "velocity": 127,
      "chip": "ym2612"
    },
    {
      "channel": 1,
      "note": 58,
      "start": 4.8881,
      "duration": 0.1328,
      "velocity": 99,
      "chip": "ym2612"
    },
    {
      "channel": 5,
      "note": 62,
      "start": 4.8904,
      "duration": 0.034,
      "velocity": 127,
      "chip": "ym2612"
    },
    {
      "channel": 5,
      "note": 62,
      "start": 4.9677,
      "duration": 0.0398,
      "velocity": 127,
      "chip": "ym2612"
    },
    {
      "channel": 0,
      "note": 71,
      "start": 5.0498,
      "duration": 0.0126,
      "velocity": 127,
      "chip": "ym2612"
    },
    {
      "channel": 1,
      "note": 53,
      "start": 5.0513,
      "duration": 0.1357,
      "velocity": 99,
      "chip": "ym2612"
    },
    {
      "channel": 5,
      "note": 62,
      "start": 5.0567,
      "duration": 0.0761,
      "velocity": 127,
      "chip": "ym2612"
    },
    {
      "channel": 0,
      "note": 71,
      "start": 5.2159,
      "duration": 0.0126,
      "velocity": 127,
      "chip": "ym2612"
    },
    {
      "channel": 1,
      "note": 54,
      "start": 5.2175,
      "duration": 0.1364,
      "velocity": 99,
      "chip": "ym2612"
    },
    {
      "channel": 5,
      "note": 62,
      "start": 5.2198,
      "duration": 0.0369,
      "velocity": 127,
      "chip": "ym2612"
    },
    {
      "channel": 5,
      "note": 62,
      "start": 5.3,
      "duration": 0.0398,
      "velocity": 127,
      "chip": "ym2612"
    },
    {
      "channel": 0,
      "note": 59,
      "start": 5.3851,
      "duration": 0.0506,
      "velocity": 127,
      "chip": "ym2612"
    },
    {
      "channel": 1,
      "note": 51,
      "start": 5.3868,
      "duration": 0.1463,
      "velocity": 99,
      "chip": "ym2612"
    },
    {
      "channel": 3,
      "note": 94,
      "start": 5.3899,
      "duration": 1.9709,
      "velocity": 101,
      "chip": "ym2612"
    },
    {
      "channel": 5,
      "note": 47,
      "start": 5.3953,
      "duration": 0.0412,
      "velocity": 127,
      "chip": "ym2612"
    },
    {
      "channel": 1,
      "note": 51,
      "start": 5.5621,
      "duration": 0.1371,
      "velocity": 99,
      "chip": "ym2612"
    },
    {
      "channel": 0,
      "note": 71,
      "start": 5.731,
      "duration": 0.037,
      "velocity": 127,
      "chip": "ym2612"
    },
    {
      "channel": 1,
      "note": 51,
      "start": 5.7326,
      "duration": 0.1328,
      "velocity": 99,
      "chip": "ym2612"
    },
    {
      "channel": 5,
      "note": 59,
      "start": 5.7363,
      "duration": 0.0324,
      "velocity": 127,
      "chip": "ym2612"
    },
    {
      "channel": 1,
      "note": 54,
      "start": 5.8944,
      "duration": 0.1374,
      "velocity": 99,
      "chip": "ym2612"
    },
    {
      "channel": 0,
      "note": 59,
      "start": 6.0633,
      "duration": 0.0097,
      "velocity": 127,
      "chip": "ym2612"
    },
    {
      "channel": 1,
      "note": 51,
      "start": 6.0649,
      "duration": 0.1327,
      "velocity": 99,
      "chip": "ym2612"
    },
    {
      "channel": 5,
      "note": 47,
      "start": 6.0672,
      "duration": 0.0069,
      "velocity": 127,
      "chip": "ym2612"
    },
    {
      "channel": 0,
      "note": 71,
      "start": 6.2294,
      "duration": 0.0097,
      "velocity": 127,
      "chip": "ym2612"
    },
    {
      "channel": 1,
      "note": 51,
      "start": 6.231,
      "duration": 0.1328,
      "velocity": 99,
      "chip": "ym2612"
    },
    {
      "channel": 5,
      "note": 59,
      "start": 6.2332,
      "duration": 0.0071,
      "velocity": 127,
      "chip": "ym2612"
    },
    {
      "channel": 0,
      "note": 71,
      "start": 6.3927,
      "duration": 0.0126,
      "velocity": 127,
      "chip": "ym2612"
    },
    {
      "channel": 1,
      "note": 51,
      "start": 6.3942,
      "duration": 0.1357,
      "velocity": 99,
      "chip": "ym2612"
    },
    {
      "channel": 5,
      "note": 59,
      "start": 6.3966,
      "duration": 0.0099,
      "velocity": 127,
      "chip": "ym2612"
    },
    {
      "channel": 0,
      "note": 71,
      "start": 6.5588,
      "duration": 0.0125,
      "velocity": 127,
      "chip": "ym2612"
    },
    {
      "channel": 1,
      "note": 54,
      "start": 6.5604,
      "duration": 0.1361,
      "velocity": 99,
      "chip": "ym2612"
    },
    {
      "channel": 5,
      "note": 59,
      "start": 6.5627,
      "duration": 0.0098,
      "velocity": 127,
      "chip": "ym2612"
    },
    {
      "channel": 0,
      "note": 59,
      "start": 6.728,
      "duration": 0.0368,
      "velocity": 127,
      "chip": "ym2612"
    },
    {
      "channel": 1,
      "note": 51,
      "start": 6.7295,
      "duration": 0.1326,
      "velocity": 99,
      "chip": "ym2612"
    },
    {
      "channel": 5,
      "note": 47,
      "start": 6.7348,
      "duration": 0.0307,
      "velocity": 127,
      "chip": "ym2612"
    },
    {
      "channel": 1,
      "note": 51,
      "start": 6.8911,
      "duration": 0.1371,
      "velocity": 99,
      "chip": "ym2612"
    },
    {
      "channel": 0,
      "note": 71,
      "start": 7.06,
      "duration": 0.037,
      "velocity": 127,
      "chip": "ym2612"
    },
    {
      "channel": 1,
      "note": 51,
      "start": 7.0616,
      "duration": 0.1328,
      "velocity": 99,
      "chip": "ym2612"
    },
    {
      "channel": 5,
      "note": 59,
      "start": 7.0653,
      "duration": 0.0324,
      "velocity": 127,
      "chip": "ym2612"
    },
    {
      "channel": 1,
      "note": 54,
      "start": 7.2234,
      "duration": 0.1371,
      "velocity": 99,
      "chip": "ym2612"
    },
    {
      "channel": 0,
      "note": 59,
      "start": 7.3924,
      "duration": 0.0097,
      "velocity": 127,
      "chip": "ym2612"
    },
    {
      "channel": 1,
      "note": 51,
      "start": 7.3939,
      "duration": 0.1328,
      "velocity": 99,
      "chip": "ym2612"
    },
    {
      "channel": 3,
      "note": 95,
      "start": 7.3956,
      "duration": 0.6297,
      "velocity": 101,
      "chip": "ym2612"
    },
    {
      "channel": 5,
      "note": 47,
      "start": 7.3977,
      "duration": 0.0055,
      "velocity": 127,
      "chip": "ym2612"
    },
    {
      "channel": 0,
      "note": 71,
      "start": 7.5584,
      "duration": 0.0098,
      "velocity": 127,
      "chip": "ym2612"
    },
    {
      "channel": 1,
      "note": 51,
      "start": 7.56,
      "duration": 0.1327,
      "velocity": 99,
      "chip": "ym2612"
    },
    {
      "channel": 5,
      "note": 59,
      "start": 7.5623,
      "duration": 0.0071,
      "velocity": 127,
      "chip": "ym2612"
    },
    {
      "channel": 0,
      "note": 71,
      "start": 7.7217,
      "duration": 0.0126,
      "velocity": 127,
      "chip": "ym2612"
    },
    {
      "channel": 1,
      "note": 51,
      "start": 7.7232,
      "duration": 0.1357,
      "velocity": 99,
      "chip": "ym2612"
    },
    {
      "channel": 5,
      "note": 59,
      "start": 7.7256,
      "duration": 0.0099,
      "velocity": 127,
      "chip": "ym2612"
    },
    {
      "channel": 0,
      "note": 71,
      "start": 7.8878,
      "duration": 0.0125,
      "velocity": 127,
      "chip": "ym2612"
    },
    {
      "channel": 1,
      "note": 66,
      "start": 7.8894,
      "duration": 0.1356,
      "velocity": 99,
      "chip": "ym2612"
    },
    {
      "channel": 5,
      "note": 59,
      "start": 7.8917,
      "duration": 0.0099,
      "velocity": 127,
      "chip": "ym2612"
    },
    {
      "channel": 0,
      "note": 59,
      "start": 8.057,
      "duration": 0.0506,
      "velocity": 127,
      "chip": "ym2612"
    },
    {
      "channel": 1,
      "note": 51,
      "start": 8.0585,
      "duration": 0.1464,
      "velocity": 99,
      "chip": "ym2612"
    },
    {
      "channel": 3,
      "note": 97,
      "start": 8.0616,
      "duration": 2.6356,
      "velocity": 101,
      "chip": "ym2612"
    },
    {
      "channel": 5,
      "note": 47,
      "start": 8.0639,
      "duration": 0.0445,
      "velocity": 127,
      "chip": "ym2612"
    },
    {
      "channel": 1,
      "note": 51,
      "start": 8.2339,
      "duration": 0.1372,
      "velocity": 99,
      "chip": "ym2612"
    },
    {
      "channel": 0,
      "note": 71,
      "start": 8.4029,
      "duration": 0.037,
      "velocity": 127,
      "chip": "ym2612"
    },
    {
      "channel": 1,
      "note": 51,
      "start": 8.4044,
      "duration": 0.1328,
      "velocity": 99,
      "chip": "ym2612"
    },
    {
      "channel": 5,
      "note": 59,
      "start": 8.4082,
      "duration": 0.0324,
      "velocity": 127,
      "chip": "ym2612"
    },
    {
      "channel": 1,
      "note": 54,
      "start": 8.5663,
      "duration": 0.1377,
      "velocity": 99,
      "chip": "ym2612"
    },
    {
      "channel": 0,
      "note": 59,
      "start": 8.7352,
      "duration": 0.0097,
      "velocity": 127,
      "chip": "ym2612"
    },
    {
      "channel": 1,
      "note": 51,
      "start": 8.7368,
      "duration": 0.1328,
      "velocity": 99,
      "chip": "ym2612"
    },
    {
      "channel": 5,
      "note": 47,
      "start": 8.739,
      "duration": 0.007,
      "velocity": 127,
      "chip": "ym2612"
    },
    {
      "channel": 0,
      "note": 71,
      "start": 8.9013,
      "duration": 0.0097,
      "velocity": 127,
      "chip": "ym2612"
    },
    {
      "channel": 1,
      "note": 51,
      "start": 8.9029,
      "duration": 0.1327,
      "velocity": 99,
      "chip": "ym2612"
    },
    {
      "channel": 5,
      "note": 59,
      "start": 8.9051,
      "duration": 0.0071,
      "velocity": 127,
      "chip": "ym2612"
    },
    {
      "channel": 0,
      "note": 71,
      "start": 9.0646,
      "duration": 0.0126,
      "velocity": 127,
      "chip": "ym2612"
    },
    {
      "channel": 1,
      "note": 51,
      "start": 9.0661,
      "duration": 0.1357,
      "velocity": 99,
      "chip": "ym2612"
    },
    {
      "channel": 5,
      "note": 59,
      "start": 9.0684,
      "duration": 0.0099,
      "velocity": 127,
      "chip": "ym2612"
    },
    {
      "channel": 0,
      "note": 71,
      "start": 9.2307,
      "duration": 0.0125,
      "velocity": 127,
      "chip": "ym2612"
    },
    {
      "channel": 1,
      "note": 56,
      "start": 9.2322,
      "duration": 0.1356,
      "velocity": 99,
      "chip": "ym2612"
    },
    {
      "channel": 5,
      "note": 59,
      "start": 9.2345,
      "duration": 0.0098,
      "velocity": 127,
      "chip": "ym2612"
    },
    {
      "channel": 0,
      "note": 59,
      "start": 9.3999,
      "duration": 0.0368,
      "velocity": 127,
      "chip": "ym2612"
    },
    {
      "channel": 1,
      "note": 51,
      "start": 9.4014,
      "duration": 0.1326,
      "velocity": 99,
      "chip": "ym2612"
    },
    {
      "channel": 5,
      "note": 47,
      "start": 9.4067,
      "duration": 0.0307,
      "velocity": 127,
      "chip": "ym2612"
    },
    {
      "channel": 1,
      "note": 58,
      "start": 9.563,
      "duration": 0.1371,
      "velocity": 99,
      "chip": "ym2612"
    },
    {
      "channel": 0,
      "note": 71,
      "start": 9.732,
      "duration": 0.0369,
      "velocity": 127,
      "chip": "ym2612"
    },
    {
      "channel": 1,
      "note": 56,
      "start": 9.7335,
      "duration": 0.1327,
      "velocity": 99,
      "chip": "ym2612"
    },
    {
      "channel": 5,
      "note": 59,
      "start": 9.7373,
      "duration": 0.0324,
      "velocity": 127,
      "chip": "ym2612"
    },
    {
      "channel": 1,
      "note": 58,
      "start": 9.8953,
      "duration": 0.1371,
      "velocity": 99,
      "chip": "ym2612"
    },
    {
      "channel": 0,
      "note": 59,
      "start": 10.0642,
      "duration": 0.0097,
      "velocity": 127,
      "chip": "ym2612"
    },
    {
      "channel": 1,
      "note": 54,
      "start": 10.0658,
      "duration": 0.1328,
      "velocity": 99,
      "chip": "ym2612"
    },
    {
      "channel": 5,
      "note": 62,
      "start": 10.0712,
      "duration": 0.0725,
      "velocity": 127,
      "chip": "ym2612"
    },
    {
      "channel": 0,
      "note": 71,
      "start": 10.2303,
      "duration": 0.0097,
      "velocity": 127,
      "chip": "ym2612"
    },
    {
      "channel": 1,
      "note": 58,
      "start": 10.2319,
      "duration": 0.1327,
      "velocity": 99,
      "chip": "ym2612"
    },
    {
      "channel": 5,
      "note": 62,
      "start": 10.2342,
      "duration": 0.0344,
      "velocity": 127,
      "chip": "ym2612"
    },
    {
      "channel": 5,
      "note": 62,
      "start": 10.3115,
      "duration": 0.0398,
      "velocity": 127,
      "chip": "ym2612"
    },
    {
      "channel": 0,
      "note": 71,
      "start": 10.3936,
      "duration": 0.0126,
      "velocity": 127,
      "chip": "ym2612"
    },
    {
      "channel": 1,
      "note": 53,
      "start": 10.3951,
      "duration": 0.1357,
      "velocity": 99,
      "chip": "ym2612"
    },
    {
      "channel": 5,
      "note": 62,
      "start": 10.4005,
      "duration": 0.0754,
      "velocity": 127,
      "chip": "ym2612"
    },
    {
      "channel": 0,
      "note": 71,
      "start": 10.5597,
      "duration": 0.0125,
      "velocity": 127,
      "chip": "ym2612"
    },
    {
      "channel": 1,
      "note": 54,
      "start": 10.5612,
      "duration": 0.1356,
      "velocity": 99,
      "chip": "ym2612"
    },
    {
      "channel": 5,
      "note": 62,
      "start": 10.5635,
      "duration": 0.037,
      "velocity": 127,
      "chip": "ym2612"
    },
    {
      "channel": 5,
      "note": 62,
      "start": 10.6437,
      "duration": 0.0399,
      "velocity": 127,
      "chip": "ym2612"
    },
    {
      "channel": 0,
      "note": 59,
      "start": 10.7293,
      "duration": 0.0502,
      "velocity": 127,
      "chip": "ym2612"
    },
    {
      "channel": 1,
      "note": 51,
      "start": 10.7342,
      "duration": 0.1426,
      "velocity": 99,
      "chip": "ym2612"
    },
    {
      "channel": 2,
      "note": 75,
      "start": 10.7361,
      "duration": 10.51,
      "velocity": 98,
      "chip": "ym2612"
    },
    {
      "channel": 3,
      "note": 87,
      "start": 10.738,
      "duration": 1.9665,
      "velocity": 101,
      "chip": "ym2612"
    },
    {
      "channel": 5,
      "note": 47,
      "start": 10.7439,
      "duration": 0.0363,
      "velocity": 127,
      "chip": "ym2612"
    },
    {
      "channel": 1,
      "note": 51,
      "start": 10.9058,
      "duration": 0.1372,
      "velocity": 99,
      "chip": "ym2612"
    },
    {
      "channel": 0,
      "note": 71,
      "start": 11.0748,
      "duration": 0.037,
      "velocity": 127,
      "chip": "ym2612"
    },
    {
      "channel": 1,
      "note": 51,
      "start": 11.0763,
      "duration": 0.1327,
      "velocity": 99,
      "chip": "ym2612"
    },
    {
      "channel": 4,
      "note": 75,
      "start": 11.0799,
      "duration": 10.5126,
      "velocity": 98,
      "chip": "ym2612"
    },
    {
      "channel": 5,
      "note": 59,
      "start": 11.0819,
      "duration": 0.0306,
      "velocity": 127,
      "chip": "ym2612"
    },
    {
      "channel": 1,
      "note": 54,
      "start": 11.2381,
      "duration": 0.1371,
      "velocity": 99,
      "chip": "ym2612"
    },
    {
      "channel": 0,
      "note": 59,
      "start": 11.4071,
      "duration": 0.0097,
      "velocity": 127,
      "chip": "ym2612"
    },
    {
      "channel": 1,
      "note": 51,
      "start": 11.4086,
      "duration": 0.1327,
      "velocity": 99,
      "chip": "ym2612"
    },
    {
      "channel": 5,
      "note": 47,
      "start": 11.4124,
      "duration": 0.0059,
      "velocity": 127,
      "chip": "ym2612"
    },
    {
      "channel": 0,
      "note": 71,
      "start": 11.5732,
      "duration": 0.0097,
      "velocity": 127,
      "chip": "ym2612"
    },
    {
      "channel": 1,
      "note": 51,
      "start": 11.5747,
      "duration": 0.1327,
      "velocity": 99,
      "chip": "ym2612"
    },
    {
      "channel": 5,
      "note": 59,
      "start": 11.577,
      "duration": 0.0071,
      "velocity": 127,
      "chip": "ym2612"
    },
    {
      "channel": 0,
      "note": 71,
      "start": 11.7364,
      "duration": 0.0126,
      "velocity": 127,
      "chip": "ym2612"
    },
    {
      "channel": 1,
      "note": 51,
      "start": 11.738,
      "duration": 0.1356,
      "velocity": 99,
      "chip": "ym2612"
    },
    {
      "channel": 5,
      "note": 59,
      "start": 11.7402,
      "duration": 0.0099,
      "velocity": 127,
      "chip": "ym2612"
    },
    {
      "channel": 0,
      "note": 71,
      "start": 11.9025,
      "duration": 0.0126,
      "velocity": 127,
      "chip": "ym2612"
    },
    {
      "channel": 1,
      "note": 54,
      "start": 11.9041,
      "duration": 0.1357,
      "velocity": 99,
      "chip": "ym2612"
    },
    {
      "channel": 5,
      "note": 59,
      "start": 11.9064,
      "duration": 0.0099,
      "velocity": 127,
      "chip": "ym2612"
    },
    {
      "channel": 0,
      "note": 59,
      "start": 12.0717,
      "duration": 0.0368,
      "velocity": 127,
      "chip": "ym2612"
    },
    {
      "channel": 1,
      "note": 51,
      "start": 12.0733,
      "duration": 0.1326,
      "velocity": 99,
      "chip": "ym2612"
    },
    {
      "channel": 5,
      "note": 47,
      "start": 12.0785,
      "duration": 0.0307,
      "velocity": 127,
      "chip": "ym2612"
    },
    {
      "channel": 1,
      "note": 51,
      "start": 12.2349,
      "duration": 0.1371,
      "velocity": 99,
      "chip": "ym2612"
    },
    {
      "channel": 0,
      "note": 71,
      "start": 12.4039,
      "duration": 0.0369,
      "velocity": 127,
      "chip": "ym2612"
    },
    {
      "channel": 1,
      "note": 51,
      "start": 12.4054,
      "duration": 0.1327,
      "velocity": 99,
      "chip": "ym2612"
    },
    {
      "channel": 5,
      "note": 59,
      "start": 12.4091,
      "duration": 0.0323,
      "velocity": 127,
      "chip": "ym2612"
    },
    {
      "channel": 1,
      "note": 54,
      "start": 12.5672,
      "duration": 0.1371,
      "velocity": 99,
      "chip": "ym2612"
    },
    {
      "channel": 0,
      "note": 59,
      "start": 12.7361,
      "duration": 0.0097,
      "velocity": 127,
      "chip": "ym2612"
    },
    {
      "channel": 1,
      "note": 51,
      "start": 12.7377,
      "duration": 0.1326,
      "velocity": 99,
      "chip": "ym2612"
    },
    {
      "channel": 3,
      "note": 89,
      "start": 12.7394,
      "duration": 0.6296,
      "velocity": 101,
      "chip": "ym2612"
    },
    {
      "channel": 5,
      "note": 47,
      "start": 12.7415,
      "duration": 0.0054,
      "velocity": 127,
      "chip": "ym2612"
    },
    {
      "channel": 0,
      "note": 71,
      "start": 12.9022,
      "duration": 0.0098,
      "velocity": 127,
      "chip": "ym2612"
    },
    {
      "channel": 1,
      "note": 51,
      "start": 12.9037,
      "duration": 0.1328,
      "velocity": 99,
      "chip": "ym2612"
    },
    {
      "channel": 5,
      "note": 59,
      "start": 12.906,
      "duration": 0.0071,
      "velocity": 127,
      "chip": "ym2612"
    },
    {
      "channel": 0,
      "note": 71,
      "start": 13.0654,
      "duration": 0.0126,
      "velocity": 127,
      "chip": "ym2612"
    },
    {
      "channel": 1,
      "note": 51,
      "start": 13.067,
      "duration": 0.1357,
      "velocity": 99,
      "chip": "ym2612"
    },
    {
      "channel": 5,
      "note": 59,
      "start": 13.0693,
      "duration": 0.0099,
      "velocity": 127,
      "chip": "ym2612"
    },
    {
      "channel": 0,
      "note": 71,
      "start": 13.2316,
      "duration": 0.0125,
      "velocity": 127,
      "chip": "ym2612"
    },
    {
      "channel": 1,
      "note": 66,
      "start": 13.2331,
      "duration": 0.1356,
      "velocity": 99,
      "chip": "ym2612"
    },
    {
      "channel": 5,
      "note": 59,
      "start": 13.2354,
      "duration": 0.0099,
      "velocity": 127,
      "chip": "ym2612"
    },
    {
      "channel": 0,
      "note": 59,
      "start": 13.4008,
      "duration": 0.0506,
      "velocity": 127,
      "chip": "ym2612"
    },
    {
      "channel": 1,
      "note": 51,
      "start": 13.4023,
      "duration": 0.1464,
      "velocity": 99,
      "chip": "ym2612"
    },
    {
      "channel": 3,
      "note": 90,
      "start": 13.4055,
      "duration": 1.971,
      "velocity": 101,
      "chip": "ym2612"
    },
    {
      "channel": 5,
      "note": 47,
      "start": 13.4077,
      "duration": 0.0444,
      "velocity": 127,
      "chip": "ym2612"
    },
    {
      "channel": 1,
      "note": 51,
      "start": 13.5777,
      "duration": 0.1372,
      "velocity": 99,
      "chip": "ym2612"
    },
    {
      "channel": 0,
      "note": 71,
      "start": 13.7467,
      "duration": 0.037,
      "velocity": 127,
      "chip": "ym2612"
    },
    {
      "channel": 1,
      "note": 51,
      "start": 13.7482,
      "duration": 0.1328,
      "velocity": 99,
      "chip": "ym2612"
    },
    {
      "channel": 5,
      "note": 59,
      "start": 13.752,
      "duration": 0.0324,
      "velocity": 127,
      "chip": "ym2612"
    },
    {
      "channel": 1,
      "note": 54,
      "start": 13.91,
      "duration": 0.1371,
      "velocity": 99,
      "chip": "ym2612"
    },
    {
      "channel": 0,
      "note": 59,
      "start": 14.079,
      "duration": 0.0097,
      "velocity": 127,
      "chip": "ym2612"
    },
    {
      "channel": 1,
      "note": 51,
      "start": 14.0805,
      "duration": 0.1327,
      "velocity": 99,
      "chip": "ym2612"
    },
    {
      "channel": 5,
      "note": 47,
      "start": 14.0828,
      "duration": 0.007,
      "velocity": 127,
      "chip": "ym2612"
    },
    {
      "channel": 0,
      "note": 71,
      "start": 14.2451,
      "duration": 0.0097,
      "velocity": 127,
      "chip": "ym2612"
    },
    {
      "channel": 1,
      "note": 51,
      "start": 14.2466,
      "duration": 0.1327,
      "velocity": 99,
      "chip": "ym2612"
    },
    {
      "channel": 5,
      "note": 59,
      "start": 14.2489,
      "duration": 0.007,
      "velocity": 127,
      "chip": "ym2612"
    },
    {
      "channel": 0,
      "note": 71,
      "start": 14.4083,
      "duration": 0.0126,
      "velocity": 127,
      "chip": "ym2612"
    },
    {
      "channel": 1,
      "note": 51,
      "start": 14.4098,
      "duration": 0.1357,
      "velocity": 99,
      "chip": "ym2612"
    },
    {
      "channel": 5,
      "note": 59,
      "start": 14.4121,
      "duration": 0.0099,
      "velocity": 127,
      "chip": "ym2612"
    },
    {
      "channel": 0,
      "note": 71,
      "start": 14.5744,
      "duration": 0.0126,
      "velocity": 127,
      "chip": "ym2612"
    },
    {
      "channel": 1,
      "note": 56,
      "start": 14.5759,
      "duration": 0.1357,
      "velocity": 99,
      "chip": "ym2612"
    },
    {
      "channel": 5,
      "note": 59,
      "start": 14.5783,
      "duration": 0.0099,
      "velocity": 127,
      "chip": "ym2612"
    },
    {
      "channel": 0,
      "note": 59,
      "start": 14.7436,
      "duration": 0.0368,
      "velocity": 127,
      "chip": "ym2612"
    },
    {
      "channel": 1,
      "note": 51,
      "start": 14.7451,
      "duration": 0.1326,
      "velocity": 99,
      "chip": "ym2612"
    },
    {
      "channel": 5,
      "note": 47,
      "start": 14.7504,
      "duration": 0.0308,
      "velocity": 127,
      "chip": "ym2612"
    },
    {
      "channel": 1,
      "note": 58,
      "start": 14.9067,
      "duration": 0.1371,
      "velocity": 99,
      "chip": "ym2612"
    },
    {
      "channel": 0,
      "note": 71,
      "start": 15.0757,
      "duration": 0.037,
      "velocity": 127,
      "chip": "ym2612"
    },
    {
      "channel": 1,
      "note": 56,
      "start": 15.0772,
      "duration": 0.1328,
      "velocity": 99,
      "chip": "ym2612"
    },
    {
      "channel": 5,
      "note": 59,
      "start": 15.081,
      "duration": 0.0324,
      "velocity": 127,
      "chip": "ym2612"
    },
    {
      "channel": 1,
      "note": 58,
      "start": 15.239,
      "duration": 0.1371,
      "velocity": 99,
      "chip": "ym2612"
    },
    {
      "channel": 0,
      "note": 59,
      "start": 15.4081,
      "duration": 0.0234,
      "velocity": 127,
      "chip": "ym2612"
    },
    {
      "channel": 1,
      "note": 54,
      "start": 15.4097,
      "duration": 0.1464,
      "velocity": 99,
      "chip": "ym2612"
    },
    {
      "channel": 3,
      "note": 92,
      "start": 15.4114,
      "duration": 0.6434,
      "velocity": 101,
      "chip": "ym2612"
    },
    {
      "channel": 5,
      "note": 62,
      "start": 15.4165,
      "duration": 0.0847,
      "velocity": 127,
      "chip": "ym2612"
    },
    {
      "channel": 0,
      "note": 71,
      "start": 15.588,
      "duration": 0.0097,
      "velocity": 127,
      "chip": "ym2612"
    },
    {
      "channel": 1,
      "note": 58,
      "start": 15.5895,
      "duration": 0.1328,
      "velocity": 99,
      "chip": "ym2612"
    },
    {
      "channel": 5,
      "note": 62,
      "start": 15.5918,
      "duration": 0.0342,
      "velocity": 127,
      "chip": "ym2612"
    },
    {
      "channel": 5,
      "note": 62,
      "start": 15.6691,
      "duration": 0.0398,
      "velocity": 127,
      "chip": "ym2612"
    },
    {
      "channel": 0,
      "note": 71,
      "start": 15.7512,
      "duration": 0.0125,
      "velocity": 127,
      "chip": "ym2612"
    },
    {
      "channel": 1,
      "note": 53,
      "start": 15.7527,
      "duration": 0.1356,
      "velocity": 99,
      "chip": "ym2612"
    },
    {
      "channel": 5,
      "note": 62,
      "start": 15.7582,
      "duration": 0.0753,
      "velocity": 127,
      "chip": "ym2612"
    },
    {
      "channel": 0,
      "note": 71,
      "start": 15.9173,
      "duration": 0.0126,
      "velocity": 127,
      "chip": "ym2612"
    },
    {
      "channel": 1,
      "note": 54,
      "start": 15.9188,
      "duration": 0.1357,
      "velocity": 99,
      "chip": "ym2612"
    },
    {
      "channel": 5,
      "note": 62,
      "start": 15.9212,
      "duration": 0.037,
      "velocity": 127,
      "chip": "ym2612"
    },
    {
      "channel": 5,
      "note": 62,
      "start": 16.0013,
      "duration": 0.0398,
      "velocity": 127,
      "chip": "ym2612"
    },
    {
      "channel": 0,
      "note": 59,
      "start": 16.0864,
      "duration": 0.0507,
      "velocity": 127,
      "chip": "ym2612"
    },
    {
      "channel": 1,
      "note": 51,
      "start": 16.0881,
      "duration": 0.1463,
      "velocity": 99,
      "chip": "ym2612"
    },
    {
      "channel": 3,
      "note": 94,
      "start": 16.0913,
      "duration": 1.9709,
      "velocity": 101,
      "chip": "ym2612"
    },
    {
      "channel": 5,
      "note": 47,
      "start": 16.0967,
      "duration": 0.0412,
      "velocity": 127,
      "chip": "ym2612"
    },
    {
      "channel": 1,
      "note": 51,
      "start": 16.2635,
      "duration": 0.1371,
      "velocity": 99,
      "chip": "ym2612"
    },
    {
      "channel": 0,
      "note": 71,
      "start": 16.4324,
      "duration": 0.037,
      "velocity": 127,
      "chip": "ym2612"
    },
    {
      "channel": 1,
      "note": 51,
      "start": 16.4339,
      "duration": 0.1328,
      "velocity": 99,
      "chip": "ym2612"
    },
    {
      "channel": 5,
      "note": 59,
      "start": 16.4376,
      "duration": 0.0325,
      "velocity": 127,
      "chip": "ym2612"
    },
    {
      "channel": 1,
      "note": 54,
      "start": 16.5957,
      "duration": 0.1378,
      "velocity": 99,
      "chip": "ym2612"
    },
    {
      "channel": 0,
      "note": 59,
      "start": 16.7647,
      "duration": 0.0097,
      "velocity": 127,
      "chip": "ym2612"
    },
    {
      "channel": 1,
      "note": 51,
      "start": 16.7662,
      "duration": 0.1327,
      "velocity": 99,
      "chip": "ym2612"
    },
    {
      "channel": 5,
      "note": 47,
      "start": 16.7685,
      "duration": 0.0069,
      "velocity": 127,
      "chip": "ym2612"
    },
    {
      "channel": 0,
      "note": 71,
      "start": 16.9308,
      "duration": 0.0097,
      "velocity": 127,
      "chip": "ym2612"
    },
    {
      "channel": 1,
      "note": 51,
      "start": 16.9323,
      "duration": 0.1328,
      "velocity": 99,
      "chip": "ym2612"
    },
    {
      "channel": 5,
      "note": 59,
      "start": 16.9346,
      "duration": 0.0071,
      "velocity": 127,
      "chip": "ym2612"
    },
    {
      "channel": 0,
      "note": 71,
      "start": 17.094,
      "duration": 0.0126,
      "velocity": 127,
      "chip": "ym2612"
    },
    {
      "channel": 1,
      "note": 51,
      "start": 17.0955,
      "duration": 0.1357,
      "velocity": 99,
      "chip": "ym2612"
    },
    {
      "channel": 5,
      "note": 59,
      "start": 17.0979,
      "duration": 0.0099,
      "velocity": 127,
      "chip": "ym2612"
    },
    {
      "channel": 0,
      "note": 71,
      "start": 17.2602,
      "duration": 0.0126,
      "velocity": 127,
      "chip": "ym2612"
    },
    {
      "channel": 1,
      "note": 54,
      "start": 17.2617,
      "duration": 0.1356,
      "velocity": 99,
      "chip": "ym2612"
    },
    {
      "channel": 5,
      "note": 59,
      "start": 17.264,
      "duration": 0.0099,
      "velocity": 127,
      "chip": "ym2612"
    },
    {
      "channel": 0,
      "note": 59,
      "start": 17.4293,
      "duration": 0.0368,
      "velocity": 127,
      "chip": "ym2612"
    },
    {
      "channel": 1,
      "note": 51,
      "start": 17.4308,
      "duration": 0.1326,
      "velocity": 99,
      "chip": "ym2612"
    },
    {
      "channel": 5,
      "note": 47,
      "start": 17.4361,
      "duration": 0.0307,
      "velocity": 127,
      "chip": "ym2612"
    },
    {
      "channel": 1,
      "note": 51,
      "start": 17.5925,
      "duration": 0.1371,
      "velocity": 99,
      "chip": "ym2612"
    },
    {
      "channel": 0,
      "note": 71,
      "start": 17.7614,
      "duration": 0.037,
      "velocity": 127,
      "chip": "ym2612"
    },
    {
      "channel": 1,
      "note": 51,
      "start": 17.763,
      "duration": 0.1327,
      "velocity": 99,
      "chip": "ym2612"
    },
    {
      "channel": 5,
      "note": 59,
      "start": 17.7667,
      "duration": 0.0324,
      "velocity": 127,
      "chip": "ym2612"
    },
    {
      "channel": 1,
      "note": 54,
      "start": 17.9247,
      "duration": 0.1371,
      "velocity": 99,
      "chip": "ym2612"
    },
    {
      "channel": 0,
      "note": 59,
      "start": 18.0937,
      "duration": 0.0097,
      "velocity": 127,
      "chip": "ym2612"
    },
    {
      "channel": 1,
      "note": 51,
      "start": 18.0952,
      "duration": 0.1328,
      "velocity": 99,
      "chip": "ym2612"
    },
    {
      "channel": 3,
      "note": 95,
      "start": 18.0969,
      "duration": 0.6297,
      "velocity": 101,
      "chip": "ym2612"
    },
    {
      "channel": 5,
      "note": 47,
      "start": 18.099,
      "duration": 0.0055,
      "velocity": 127,
      "chip": "ym2612"
    },
    {
      "channel": 0,
      "note": 71,
      "start": 18.2598,
      "duration": 0.0098,
      "velocity": 127,
      "chip": "ym2612"
    },
    {
      "channel": 1,
      "note": 51,
      "start": 18.2613,
      "duration": 0.1327,
      "velocity": 99,
      "chip": "ym2612"
    },
    {
      "channel": 5,
      "note": 59,
      "start": 18.2636,
      "duration": 0.0071,
      "velocity": 127,
      "chip": "ym2612"
    },
    {
      "channel": 0,
      "note": 71,
      "start": 18.423,
      "duration": 0.0126,
      "velocity": 127,
      "chip": "ym2612"
    },
    {
      "channel": 1,
      "note": 51,
      "start": 18.4245,
      "duration": 0.1357,
      "velocity": 99,
      "chip": "ym2612"
    },
    {
      "channel": 5,
      "note": 59,
      "start": 18.4269,
      "duration": 0.0099,
      "velocity": 127,
      "chip": "ym2612"
    },
    {
      "channel": 0,
      "note": 71,
      "start": 18.5892,
      "duration": 0.0126,
      "velocity": 127,
      "chip": "ym2612"
    },
    {
      "channel": 1,
      "note": 66,
      "start": 18.5907,
      "duration": 0.1357,
      "velocity": 99,
      "chip": "ym2612"
    },
    {
      "channel": 5,
      "note": 59,
      "start": 18.593,
      "duration": 0.0099,
      "velocity": 127,
      "chip": "ym2612"
    },
    {
      "channel": 0,
      "note": 59,
      "start": 18.7583,
      "duration": 0.0506,
      "velocity": 127,
      "chip": "ym2612"
    },
    {
      "channel": 1,
      "note": 51,
      "start": 18.7598,
      "duration": 0.1464,
      "velocity": 99,
      "chip": "ym2612"
    },
    {
      "channel": 3,
      "note": 97,
      "start": 18.763,
      "duration": 1.1404,
      "velocity": 101,
      "chip": "ym2612"
    },
    {
      "channel": 5,
      "note": 47,
      "start": 18.7652,
      "duration": 0.0445,
      "velocity": 127,
      "chip": "ym2612"
    },
    {
      "channel": 1,
      "note": 51,
      "start": 18.9354,
      "duration": 0.1371,
      "velocity": 99,
      "chip": "ym2612"
    },
    {
      "channel": 0,
      "note": 71,
      "start": 19.1043,
      "duration": 0.037,
      "velocity": 127,
      "chip": "ym2612"
    },
    {
      "channel": 1,
      "note": 51,
      "start": 19.1058,
      "duration": 0.1328,
      "velocity": 99,
      "chip": "ym2612"
    },
    {
      "channel": 5,
      "note": 59,
      "start": 19.1095,
      "duration": 0.0324,
      "velocity": 127,
      "chip": "ym2612"
    },
    {
      "channel": 1,
      "note": 54,
      "start": 19.2676,
      "duration": 0.1371,
      "velocity": 99,
      "chip": "ym2612"
    },
    {
      "channel": 0,
      "note": 59,
      "start": 19.4366,
      "duration": 0.0097,
      "velocity": 127,
      "chip": "ym2612"
    },
    {
      "channel": 1,
      "note": 51,
      "start": 19.4381,
      "duration": 0.1327,
      "velocity": 99,
      "chip": "ym2612"
    },
    {
      "channel": 5,
      "note": 47,
      "start": 19.4404,
      "duration": 0.0069,
      "velocity": 127,
      "chip": "ym2612"
    },
    {
      "channel": 0,
      "note": 71,
      "start": 19.6027,
      "duration": 0.0097,
      "velocity": 127,
      "chip": "ym2612"
    },
    {
      "channel": 1,
      "note": 51,
      "start": 19.6042,
      "duration": 0.1328,
      "velocity": 99,
      "chip": "ym2612"
    },
    {
      "channel": 5,
      "note": 59,
      "start": 19.6065,
      "duration": 0.0071,
      "velocity": 127,
      "chip": "ym2612"
    },
    {
      "channel": 0,
      "note": 71,
      "start": 19.7659,
      "duration": 0.0126,
      "velocity": 127,
      "chip": "ym2612"
    },
    {
      "channel": 1,
      "note": 51,
      "start": 19.7674,
      "duration": 0.1357,
      "velocity": 99,
      "chip": "ym2612"
    },
    {
      "channel": 5,
      "note": 59,
      "start": 19.7712,
      "duration": 0.0085,
      "velocity": 127,
      "chip": "ym2612"
    },
    {
      "channel": 0,
      "note": 71,
      "start": 19.932,
      "duration": 0.0126,
      "velocity": 127,
      "chip": "ym2612"
    },
    {
      "channel": 1,
      "note": 56,
      "start": 19.9336,
      "duration": 0.1356,
      "velocity": 99,
      "chip": "ym2612"
    },
    {
      "channel": 3,
      "note": 97,
      "start": 19.9354,
      "duration": 1.477,
      "velocity": 101,
      "chip": "ym2612"
    },
    {
      "channel": 5,
      "note": 59,
      "start": 19.9375,
      "duration": 0.0087,
      "velocity": 127,
      "chip": "ym2612"
    },
    {
      "channel": 0,
      "note": 59,
      "start": 20.1012,
      "duration": 0.0506,
      "velocity": 127,
      "chip": "ym2612"
    },
    {
      "channel": 1,
      "note": 51,
      "start": 20.1027,
      "duration": 0.1464,
      "velocity": 99,
      "chip": "ym2612"
    },
    {
      "channel": 5,
      "note": 47,
      "start": 20.1085,
      "duration": 0.0445,
      "velocity": 127,
      "chip": "ym2612"
    },
    {
      "channel": 1,
      "note": 58,
      "start": 20.2782,
      "duration": 0.1371,
      "velocity": 99,
      "chip": "ym2612"
    },
    {
      "channel": 0,
      "note": 71,
      "start": 20.4471,
      "duration": 0.037,
      "velocity": 127,
      "chip": "ym2612"
    },
    {
      "channel": 1,
      "note": 56,
      "start": 20.4486,
      "duration": 0.1328,
      "velocity": 99,
      "chip": "ym2612"
    },
    {
      "channel": 5,
      "note": 59,
      "start": 20.4529,
      "duration": 0.0324,
      "velocity": 127,
      "chip": "ym2612"
    },
    {
      "channel": 1,
      "note": 58,
      "start": 20.6104,
      "duration": 0.1379,
      "velocity": 99,
      "chip": "ym2612"
    },
    {
      "channel": 0,
      "note": 59,
      "start": 20.7794,
      "duration": 0.0099,
      "velocity": 127,
      "chip": "ym2612"
    },
    {
      "channel": 1,
      "note": 54,
      "start": 20.7809,
      "duration": 0.1327,
      "velocity": 99,
      "chip": "ym2612"
    },
    {
      "channel": 5,
      "note": 62,
      "start": 20.7868,
      "duration": 0.0725,
      "velocity": 127,
      "chip": "ym2612"
    },
    {
      "channel": 0,
      "note": 71,
      "start": 20.9455,
      "duration": 0.0097,
      "velocity": 127,
      "chip": "ym2612"
    },
    {
      "channel": 1,
      "note": 58,
      "start": 20.9471,
      "duration": 0.1328,
      "velocity": 99,
      "chip": "ym2612"
    },
    {
      "channel": 5,
      "note": 62,
      "start": 20.9499,
      "duration": 0.0341,
      "velocity": 127,
      "chip": "ym2612"
    },
    {
      "channel": 5,
      "note": 62,
      "start": 21.0271,
      "duration": 0.0395,
      "velocity": 127,
      "chip": "ym2612"
    },
    {
      "channel": 0,
      "note": 71,
      "start": 21.1088,
      "duration": 0.0126,
      "velocity": 127,
      "chip": "ym2612"
    },
    {
      "channel": 1,
      "note": 53,
      "start": 21.1103,
      "duration": 0.1357,
      "velocity": 99,
      "chip": "ym2612"
    },
    {
      "channel": 5,
      "note": 62,
      "start": 21.1171,
      "duration": 0.074,
      "velocity": 127,
      "chip": "ym2612"
    },
    {
      "channel": 0,
      "note": 71,
      "start": 21.2749,
      "duration": 0.0126,
      "velocity": 127,
      "chip": "ym2612"
    },
    {
      "channel": 1,
      "note": 54,
      "start": 21.2764,
      "duration": 0.1357,
      "velocity": 99,
      "chip": "ym2612"
    },
    {
      "channel": 2,
      "note": 83,
      "start": 21.278,
      "duration": 0.0511,
      "velocity": 98,
      "chip": "ym2612"
    },
    {
      "channel": 5,
      "note": 62,
      "start": 21.2803,
      "duration": 0.0354,
      "velocity": 127,
      "chip": "ym2612"
    },
    {
      "channel": 2,
      "note": 85,
      "start": 21.3582,
      "duration": 0.0541,
      "velocity": 98,
      "chip": "ym2612"
    },
    {
      "channel": 5,
      "note": 62,
      "start": 21.3604,
      "duration": 0.0384,
      "velocity": 127,
      "chip": "ym2612"
    },
    {
      "channel": 0,
      "note": 59,
      "start": 21.4444,
      "duration": 0.0502,
      "velocity": 127,
      "chip": "ym2612"
    },
    {
      "channel": 1,
      "note": 51,
      "start": 21.4466,
      "duration": 0.1455,
      "velocity": 99,
      "chip": "ym2612"
    },
    {
      "channel": 2,
      "note": 87,
      "start": 21.4514,
      "duration": 1.3037,
      "velocity": 100,
      "chip": "ym2612"
    },
    {
      "channel": 3,
      "note": 87,
      "start": 21.4535,
      "duration": 2.6308,
      "velocity": 101,
      "chip": "ym2612"
    },
    {
      "channel": 5,
      "note": 45,
      "start": 21.4607,
      "duration": 0.0765,
      "velocity": 127,
      "chip": "ym2612"
    },
    {
      "channel": 1,
      "note": 51,
      "start": 21.6212,
      "duration": 0.1369,
      "velocity": 99,
      "chip": "ym2612"
    },
    {
      "channel": 4,
      "note": 83,
      "start": 21.6231,
      "duration": 0.0523,
      "velocity": 98,
      "chip": "ym2612"
    },
    {
      "channel": 4,
      "note": 85,
      "start": 21.7046,
      "duration": 0.054,
      "velocity": 98,
      "chip": "ym2612"
    },
    {
      "channel": 0,
      "note": 71,
      "start": 21.79,
      "duration": 0.037,
      "velocity": 127,
      "chip": "ym2612"
    },
    {
      "channel": 1,
      "note": 51,
      "start": 21.7917,
      "duration": 0.1326,
      "velocity": 99,
      "chip": "ym2612"
    },
    {
      "channel": 4,
      "note": 87,
      "start": 21.7967,
      "duration": 1.2909,
      "velocity": 100,
      "chip": "ym2612"
    },
    {
      "channel": 1,
      "note": 51,
      "start": 21.9535,
      "duration": 0.1375,
      "velocity": 99,
      "chip": "ym2612"
    },
    {
      "channel": 0,
      "note": 59,
      "start": 22.1222,
      "duration": 0.0097,
      "velocity": 127,
      "chip": "ym2612"
    },
    {
      "channel": 1,
      "note": 51,
      "start": 22.124,
      "duration": 0.1326,
      "velocity": 99,
      "chip": "ym2612"
    },
    {
      "channel": 5,
      "note": 45,
      "start": 22.1259,
      "duration": 0.0758,
      "velocity": 127,
      "chip": "ym2612"
    },
    {
      "channel": 0,
      "note": 59,
      "start": 22.2855,
      "duration": 0.0126,
      "velocity": 127,
      "chip": "ym2612"
    },
    {
      "channel": 1,
      "note": 51,
      "start": 22.2871,
      "duration": 0.1355,
      "velocity": 99,
      "chip": "ym2612"
    },
    {
      "channel": 0,
      "note": 71,
      "start": 22.4545,
      "duration": 0.037,
      "velocity": 127,
      "chip": "ym2612"
    },
    {
      "channel": 1,
      "note": 51,
      "start": 22.4562,
      "duration": 0.1326,
      "velocity": 99,
      "chip": "ym2612"
    },
    {
      "channel": 1,
      "note": 51,
      "start": 22.618,
      "duration": 0.137,
      "velocity": 99,
      "chip": "ym2612"
    },
    {
      "channel": 0,
      "note": 59,
      "start": 22.7869,
      "duration": 0.0368,
      "velocity": 127,
      "chip": "ym2612"
    },
    {
      "channel": 1,
      "note": 51,
      "start": 22.7886,
      "duration": 0.1324,
      "velocity": 99,
      "chip": "ym2612"
    },
    {
      "channel": 2,
      "note": 89,
      "start": 22.7902,
      "duration": 0.6295,
      "velocity": 100,
      "chip": "ym2612"
    },
    {
      "channel": 5,
      "note": 45,
      "start": 22.7936,
      "duration": 0.0727,
      "velocity": 127,
      "chip": "ym2612"
    },
    {
      "channel": 1,
      "note": 51,
      "start": 22.9502,
      "duration": 0.137,
      "velocity": 99,
      "chip": "ym2612"
    },
    {
      "channel": 0,
      "note": 71,
      "start": 23.119,
      "duration": 0.037,
      "velocity": 127,
      "chip": "ym2612"
    },
    {
      "channel": 1,
      "note": 51,
      "start": 23.1207,
      "duration": 0.1326,
      "velocity": 99,
      "chip": "ym2612"
    },
    {
      "channel": 4,
      "note": 89,
      "start": 23.1226,
      "duration": 0.6296,
      "velocity": 100,
      "chip": "ym2612"
    },
    {
      "channel": 1,
      "note": 51,
      "start": 23.2825,
      "duration": 0.137,
      "velocity": 99,
      "chip": "ym2612"
    },
    {
      "channel": 0,
      "note": 59,
      "start": 23.4513,
      "duration": 0.0097,
      "velocity": 127,
      "chip": "ym2612"
    },
    {
      "channel": 1,
      "note": 51,
      "start": 23.453,
      "duration": 0.1326,
      "velocity": 99,
      "chip": "ym2612"
    },
    {
      "channel": 2,
      "note": 90,
      "start": 23.4547,
      "duration": 1.9585,
      "velocity": 100,
      "chip": "ym2612"
    },
    {
      "channel": 5,
      "note": 45,
      "start": 23.4565,
      "duration": 0.0742,
      "velocity": 127,
      "chip": "ym2612"
    },
    {
      "channel": 0,
      "note": 59,
      "start": 23.6145,
      "duration": 0.0126,
      "velocity": 127,
      "chip": "ym2612"
    },
    {
      "channel": 1,
      "note": 51,
      "start": 23.6161,
      "duration": 0.1356,
      "velocity": 99,
      "chip": "ym2612"
    },
    {
      "channel": 0,
      "note": 71,
      "start": 23.7835,
      "duration": 0.037,
      "velocity": 127,
      "chip": "ym2612"
    },
    {
      "channel": 1,
      "note": 51,
      "start": 23.7852,
      "duration": 0.1326,
      "velocity": 99,
      "chip": "ym2612"
    },
    {
      "channel": 4,
      "note": 90,
      "start": 23.7872,
      "duration": 1.9723,
      "velocity": 100,
      "chip": "ym2612"
    },
    {
      "channel": 1,
      "note": 51,
      "start": 23.947,
      "duration": 0.137,
      "velocity": 99,
      "chip": "ym2612"
    },
    {
      "channel": 0,
      "note": 59,
      "start": 24.1159,
      "duration": 0.0368,
      "velocity": 127,
      "chip": "ym2612"
    },
    {
      "channel": 1,
      "note": 49,
      "start": 24.1177,
      "duration": 0.1323,
      "velocity": 99,
      "chip": "ym2612"
    },
    {
      "channel": 3,
      "note": 85,
      "start": 24.1208,
      "duration": 2.6354,
      "velocity": 101,
      "chip": "ym2612"
    },
    {
      "channel": 5,
      "note": 45,
      "start": 24.1227,
      "duration": 0.0729,
      "velocity": 127,
      "chip": "ym2612"
    },
    {
      "channel": 1,
      "note": 49,
      "start": 24.2793,
      "duration": 0.137,
      "velocity": 99,
      "chip": "ym2612"
    },
    {
      "channel": 0,
      "note": 71,
      "start": 24.448,
      "duration": 0.037,
      "velocity": 127,
      "chip": "ym2612"
    },
    {
      "channel": 1,
      "note": 49,
      "start": 24.4497,
      "duration": 0.1326,
      "velocity": 99,
      "chip": "ym2612"
    },
    {
      "channel": 1,
      "note": 49,
      "start": 24.6115,
      "duration": 0.137,
      "velocity": 99,
      "chip": "ym2612"
    },
    {
      "channel": 0,
      "note": 59,
      "start": 24.7803,
      "duration": 0.0097,
      "velocity": 127,
      "chip": "ym2612"
    },
    {
      "channel": 1,
      "note": 49,
      "start": 24.782,
      "duration": 0.1326,
      "velocity": 99,
      "chip": "ym2612"
    },
    {
      "channel": 5,
      "note": 45,
      "start": 24.7839,
      "duration": 0.0758,
      "velocity": 127,
      "chip": "ym2612"
    },
    {
      "channel": 0,
      "note": 59,
      "start": 24.9435,
      "duration": 0.0126,
      "velocity": 127,
      "chip": "ym2612"
    },
    {
      "channel": 1,
      "note": 49,
      "start": 24.9451,
      "duration": 0.1356,
      "velocity": 99,
      "chip": "ym2612"
    },
    {
      "channel": 0,
      "note": 71,
      "start": 25.1126,
      "duration": 0.0369,
      "velocity": 127,
      "chip": "ym2612"
    },
    {
      "channel": 1,
      "note": 49,
      "start": 25.1142,
      "duration": 0.1326,
      "velocity": 99,
      "chip": "ym2612"
    },
    {
      "channel": 1,
      "note": 49,
      "start": 25.276,
      "duration": 0.137,
      "velocity": 99,
      "chip": "ym2612"
    },
    {
      "channel": 0,
      "note": 59,
      "start": 25.4452,
      "duration": 0.0504,
      "velocity": 127,
      "chip": "ym2612"
    },
    {
      "channel": 1,
      "note": 49,
      "start": 25.4469,
      "duration": 0.146,
      "velocity": 99,
      "chip": "ym2612"
    },
    {
      "channel": 2,
      "note": 89,
      "start": 25.4485,
      "duration": 0.643,
      "velocity": 100,
      "chip": "ym2612"
    },
    {
      "channel": 5,
      "note": 45,
      "start": 25.4519,
      "duration": 0.0862,
      "velocity": 127,
      "chip": "ym2612"
    },
    {
      "channel": 1,
      "note": 49,
      "start": 25.6221,
      "duration": 0.1369,
      "velocity": 99,
      "chip": "ym2612"
    },
    {
      "channel": 0,
      "note": 71,
      "start": 25.7909,
      "duration": 0.037,
      "velocity": 127,
      "chip": "ym2612"
    },
    {
      "channel": 1,
      "note": 49,
      "start": 25.7925,
      "duration": 0.1326,
      "velocity": 99,
      "chip": "ym2612"
    },
    {
      "channel": 4,
      "note": 89,
      "start": 25.7944,
      "duration": 0.6295,
      "velocity": 100,
      "chip": "ym2612"
    },
    {
      "channel": 1,
      "note": 49,
      "start": 25.9544,
      "duration": 0.1369,
      "velocity": 99,
      "chip": "ym2612"
    },
    {
      "channel": 0,
      "note": 59,
      "start": 26.1231,
      "duration": 0.0097,
      "velocity": 127,
      "chip": "ym2612"
    },
    {
      "channel": 1,
      "note": 49,
      "start": 26.1249,
      "duration": 0.1326,
      "velocity": 99,
      "chip": "ym2612"
    },
    {
      "channel": 2,
      "note": 85,
      "start": 26.1264,
      "duration": 0.6296,
      "velocity": 100,
      "chip": "ym2612"
    },
    {
      "channel": 5,
      "note": 45,
      "start": 26.1282,
      "duration": 0.0744,
      "velocity": 127,
      "chip": "ym2612"
    },
    {
      "channel": 0,
      "note": 59,
      "start": 26.2864,
      "duration": 0.0126,
      "velocity": 127,
      "chip": "ym2612"
    },
    {
      "channel": 1,
      "note": 49,
      "start": 26.288,
      "duration": 0.1356,
      "velocity": 99,
      "chip": "ym2612"
    },
    {
      "channel": 0,
      "note": 71,
      "start": 26.4554,
      "duration": 0.037,
      "velocity": 127,
      "chip": "ym2612"
    },
    {
      "channel": 1,
      "note": 49,
      "start": 26.4571,
      "duration": 0.1326,
      "velocity": 99,
      "chip": "ym2612"
    },
    {
      "channel": 4,
      "note": 85,
      "start": 26.459,
      "duration": 0.6434,
      "velocity": 100,
      "chip": "ym2612"
    },
    {
      "channel": 1,
      "note": 49,
      "start": 26.6189,
      "duration": 0.137,
      "velocity": 99,
      "chip": "ym2612"
    },
    {
      "channel": 0,
      "note": 59,
      "start": 26.7878,
      "duration": 0.0506,
      "velocity": 127,
      "chip": "ym2612"
    },
    {
      "channel": 1,
      "note": 58,
      "start": 26.7897,
      "duration": 0.1461,
      "velocity": 99,
      "chip": "ym2612"
    },
    {
      "channel": 2,
      "note": 80,
      "start": 26.7914,
      "duration": 2.6365,
      "velocity": 100,
      "chip": "ym2612"
    },
    {
      "channel": 3,
      "note": 82,
      "start": 26.793,
      "duration": 2.6351,
      "velocity": 101,
      "chip": "ym2612"
    },
    {
      "channel": 5,
      "note": 45,
      "start": 26.7948,
      "duration": 0.0875,
      "velocity": 127,
      "chip": "ym2612"
    },
    {
      "channel": 1,
      "note": 58,
      "start": 26.9649,
      "duration": 0.1369,
      "velocity": 99,
      "chip": "ym2612"
    },
    {
      "channel": 0,
      "note": 71,
      "start": 27.1338,
      "duration": 0.037,
      "velocity": 127,
      "chip": "ym2612"
    },
    {
      "channel": 1,
      "note": 58,
      "start": 27.1354,
      "duration": 0.1326,
      "velocity": 99,
      "chip": "ym2612"
    },
    {
      "channel": 4,
      "note": 80,
      "start": 27.1388,
      "duration": 2.6354,
      "velocity": 100,
      "chip": "ym2612"
    },
    {
      "channel": 1,
      "note": 58,
      "start": 27.2973,
      "duration": 0.1369,
      "velocity": 99,
      "chip": "ym2612"
    },
    {
      "channel": 0,
      "note": 59,
      "start": 27.466,
      "duration": 0.0097,
      "velocity": 127,
      "chip": "ym2612"
    },
    {
      "channel": 1,
      "note": 58,
      "start": 27.4677,
      "duration": 0.1326,
      "velocity": 99,
      "chip": "ym2612"
    },
    {
      "channel": 5,
      "note": 45,
      "start": 27.4712,
      "duration": 0.0743,
      "velocity": 127,
      "chip": "ym2612"
    },
    {
      "channel": 0,
      "note": 59,
      "start": 27.6293,
      "duration": 0.0126,
      "velocity": 127,
      "chip": "ym2612"
    },
    {
      "channel": 1,
      "note": 58,
      "start": 27.6309,
      "duration": 0.1355,
      "velocity": 99,
      "chip": "ym2612"
    },
    {
      "channel": 0,
      "note": 71,
      "start": 27.7983,
      "duration": 0.0369,
      "velocity": 127,
      "chip": "ym2612"
    },
    {
      "channel": 1,
      "note": 58,
      "start": 27.8,
      "duration": 0.1326,
      "velocity": 99,
      "chip": "ym2612"
    },
    {
      "channel": 1,
      "note": 58,
      "start": 27.9617,
      "duration": 0.1369,
      "velocity": 99,
      "chip": "ym2612"
    },
    {
      "channel": 0,
      "note": 59,
      "start": 28.1306,
      "duration": 0.0368,
      "velocity": 127,
      "chip": "ym2612"
    },
    {
      "channel": 1,
      "note": 58,
      "start": 28.1324,
      "duration": 0.1324,
      "velocity": 99,
      "chip": "ym2612"
    },
    {
      "channel": 5,
      "note": 45,
      "start": 28.1373,
      "duration": 0.0727,
      "velocity": 127,
      "chip": "ym2612"
    },
    {
      "channel": 1,
      "note": 58,
      "start": 28.2939,
      "duration": 0.137,
      "velocity": 99,
      "chip": "ym2612"
    },
    {
      "channel": 0,
      "note": 71,
      "start": 28.4628,
      "duration": 0.037,
      "velocity": 127,
      "chip": "ym2612"
    },
    {
      "channel": 1,
      "note": 58,
      "start": 28.4645,
      "duration": 0.1326,
      "velocity": 99,
      "chip": "ym2612"
    },
    {
      "channel": 1,
      "note": 58,
      "start": 28.6263,
      "duration": 0.1369,
      "velocity": 99,
      "chip": "ym2612"
    },
    {
      "channel": 0,
      "note": 59,
      "start": 28.7951,
      "duration": 0.0096,
      "velocity": 127,
      "chip": "ym2612"
    },
    {
      "channel": 1,
      "note": 58,
      "start": 28.7968,
      "duration": 0.1325,
      "velocity": 99,
      "chip": "ym2612"
    },
    {
      "channel": 5,
      "note": 45,
      "start": 28.7987,
      "duration": 0.0758,
      "velocity": 127,
      "chip": "ym2612"
    },
    {
      "channel": 0,
      "note": 59,
      "start": 28.9583,
      "duration": 0.0126,
      "velocity": 127,
      "chip": "ym2612"
    },
    {
      "channel": 1,
      "note": 58,
      "start": 28.96,
      "duration": 0.1354,
      "velocity": 99,
      "chip": "ym2612"
    },
    {
      "channel": 0,
      "note": 71,
      "start": 29.1273,
      "duration": 0.037,
      "velocity": 127,
      "chip": "ym2612"
    },
    {
      "channel": 1,
      "note": 58,
      "start": 29.129,
      "duration": 0.1326,
      "velocity": 99,
      "chip": "ym2612"
    },
    {
      "channel": 1,
      "note": 58,
      "start": 29.2907,
      "duration": 0.1369,
      "velocity": 99,
      "chip": "ym2612"
    },
    {
      "channel": 0,
      "note": 59,
      "start": 29.46,
      "duration": 0.0503,
      "velocity": 127,
      "chip": "ym2612"
    },
    {
      "channel": 1,
      "note": 56,
      "start": 29.4619,
      "duration": 0.1458,
      "velocity": 99,
      "chip": "ym2612"
    },
    {
      "channel": 2,
      "note": 80,
      "start": 29.4635,
      "duration": 1.3073,
      "velocity": 100,
      "chip": "ym2612"
    },
    {
      "channel": 3,
      "note": 82,
      "start": 29.4651,
      "duration": 2.6349,
      "velocity": 101,
      "chip": "ym2612"
    },
    {
      "channel": 5,
      "note": 45,
      "start": 29.4669,
      "duration": 0.0859,
      "velocity": 127,
      "chip": "ym2612"
    },
    {
      "channel": 1,
      "note": 56,
      "start": 29.6368,
      "duration": 0.1369,
      "velocity": 99,
      "chip": "ym2612"
    },
    {
      "channel": 0,
      "note": 71,
      "start": 29.8056,
      "duration": 0.0369,
      "velocity": 127,
      "chip": "ym2612"
    },
    {
      "channel": 1,
      "note": 56,
      "start": 29.8073,
      "duration": 0.1326,
      "velocity": 99,
      "chip": "ym2612"
    },
    {
      "channel": 4,
      "note": 80,
      "start": 29.8091,
      "duration": 1.2941,
      "velocity": 100,
      "chip": "ym2612"
    },
    {
      "channel": 1,
      "note": 56,
      "start": 29.9691,
      "duration": 0.137,
      "velocity": 99,
      "chip": "ym2612"
    },
    {
      "channel": 0,
      "note": 59,
      "start": 30.1379,
      "duration": 0.0097,
      "velocity": 127,
      "chip": "ym2612"
    },
    {
      "channel": 1,
      "note": 56,
      "start": 30.1395,
      "duration": 0.1326,
      "velocity": 99,
      "chip": "ym2612"
    },
    {
      "channel": 5,
      "note": 45,
      "start": 30.1415,
      "duration": 0.0758,
      "velocity": 127,
      "chip": "ym2612"
    },
    {
      "channel": 0,
      "note": 59,
      "start": 30.3011,
      "duration": 0.0126,
      "velocity": 127,
      "chip": "ym2612"
    },
    {
      "channel": 1,
      "note": 56,
      "start": 30.3028,
      "duration": 0.1355,
      "velocity": 99,
      "chip": "ym2612"
    },
    {
      "channel": 0,
      "note": 71,
      "start": 30.4702,
      "duration": 0.0369,
      "velocity": 127,
      "chip": "ym2612"
    },
    {
      "channel": 1,
      "note": 56,
      "start": 30.4718,
      "duration": 0.1327,
      "velocity": 99,
      "chip": "ym2612"
    },
    {
      "channel": 1,
      "note": 56,
      "start": 30.6336,
      "duration": 0.137,
      "velocity": 99,
      "chip": "ym2612"
    },
    {
      "channel": 0,
      "note": 59,
      "start": 30.8027,
      "duration": 0.0366,
      "velocity": 127,
      "chip": "ym2612"
    },
    {
      "channel": 1,
      "note": 56,
      "start": 30.8044,
      "duration": 0.1323,
      "velocity": 99,
      "chip": "ym2612"
    },
    {
      "channel": 2,
      "note": 78,
      "start": 30.806,
      "duration": 1.2938,
      "velocity": 100,
      "chip": "ym2612"
    },
    {
      "channel": 5,
      "note": 45,
      "start": 30.8093,
      "duration": 0.0726,
      "velocity": 127,
      "chip": "ym2612"
    },
    {
      "channel": 1,
      "note": 56,
      "start": 30.9658,
      "duration": 0.137,
      "velocity": 99,
      "chip": "ym2612"
    },
    {
      "channel": 0,
      "note": 71,
      "start": 31.1346,
      "duration": 0.037,
      "velocity": 127,
      "chip": "ym2612"
    },
    {
      "channel": 1,
      "note": 56,
      "start": 31.1363,
      "duration": 0.1326,
      "velocity": 99,
      "chip": "ym2612"
    },
    {
      "channel": 4,
      "note": 78,
      "start": 31.1381,
      "duration": 1.308,
      "velocity": 100,
      "chip": "ym2612"
    },
    {
      "channel": 1,
      "note": 56,
      "start": 31.2981,
      "duration": 0.137,
      "velocity": 99,
      "chip": "ym2612"
    },
    {
      "channel": 0,
      "note": 59,
      "start": 31.4673,
      "duration": 0.0093,
      "velocity": 127,
      "chip": "ym2612"
    },
    {
      "channel": 1,
      "note": 56,
      "start": 31.469,
      "duration": 0.1322,
      "velocity": 99,
      "chip": "ym2612"
    },
    {
      "channel": 5,
      "note": 45,
      "start": 31.4709,
      "duration": 0.0754,
      "velocity": 127,
      "chip": "ym2612"
    },
    {
      "channel": 0,
      "note": 59,
      "start": 31.6301,
      "duration": 0.0126,
      "velocity": 127,
      "chip": "ym2612"
    },
    {
      "channel": 1,
      "note": 56,
      "start": 31.6318,
      "duration": 0.1356,
      "velocity": 99,
      "chip": "ym2612"
    },
    {
      "channel": 0,
      "note": 71,
      "start": 31.7992,
      "duration": 0.037,
      "velocity": 127,
      "chip": "ym2612"
    },
    {
      "channel": 1,
      "note": 56,
      "start": 31.8009,
      "duration": 0.1326,
      "velocity": 99,
      "chip": "ym2612"
    },
    {
      "channel": 1,
      "note": 56,
      "start": 31.9626,
      "duration": 0.137,
      "velocity": 99,
      "chip": "ym2612"
    },
    {
      "channel": 0,
      "note": 59,
      "start": 32.1326,
      "duration": 0.0496,
      "velocity": 127,
      "chip": "ym2612"
    },
    {
      "channel": 1,
      "note": 51,
      "start": 32.1347,
      "duration": 0.1449,
      "velocity": 99,
      "chip": "ym2612"
    },
    {
      "channel": 2,
      "note": 87,
      "start": 32.1367,
      "duration": 1.3059,
      "velocity": 100,
      "chip": "ym2612"
    },
    {
      "channel": 3,
      "note": 87,
      "start": 32.1386,
      "duration": 2.6471,
      "velocity": 101,
      "chip": "ym2612"
    },
    {
      "channel": 5,
      "note": 45,
      "start": 32.1437,
      "duration": 0.0809,
      "velocity": 127,
      "chip": "ym2612"
    },
    {
      "channel": 1,
      "note": 51,
      "start": 32.3087,
      "duration": 0.1369,
      "velocity": 99,
      "chip": "ym2612"
    },
    {
      "channel": 0,
      "note": 71,
      "start": 32.4775,
      "duration": 0.037,
      "velocity": 127,
      "chip": "ym2612"
    },
    {
      "channel": 1,
      "note": 51,
      "start": 32.4792,
      "duration": 0.1326,
      "velocity": 99,
      "chip": "ym2612"
    },
    {
      "channel": 4,
      "note": 87,
      "start": 32.4813,
      "duration": 1.3076,
      "velocity": 100,
      "chip": "ym2612"
    },
    {
      "channel": 1,
      "note": 51,
      "start": 32.641,
      "duration": 0.137,
      "velocity": 99,
      "chip": "ym2612"
    },
    {
      "channel": 0,
      "note": 59,
      "start": 32.8099,
      "duration": 0.0095,
      "velocity": 127,
      "chip": "ym2612"
    },
    {
      "channel": 1,
      "note": 51,
      "start": 32.8116,
      "duration": 0.1324,
      "velocity": 99,
      "chip": "ym2612"
    },
    {
      "channel": 5,
      "note": 45,
      "start": 32.8135,
      "duration": 0.0757,
      "velocity": 127,
      "chip": "ym2612"
    },
    {
      "channel": 0,
      "note": 59,
      "start": 32.9729,
      "duration": 0.0127,
      "velocity": 127,
      "chip": "ym2612"
    },
    {
      "channel": 1,
      "note": 51,
      "start": 32.9747,
      "duration": 0.1355,
      "velocity": 99,
      "chip": "ym2612"
    },
    {
      "channel": 0,
      "note": 71,
      "start": 33.142,
      "duration": 0.0369,
      "velocity": 127,
      "chip": "ym2612"
    },
    {
      "channel": 1,
      "note": 51,
      "start": 33.1437,
      "duration": 0.1326,
      "velocity": 99,
      "chip": "ym2612"
    },
    {
      "channel": 1,
      "note": 51,
      "start": 33.3055,
      "duration": 0.1369,
      "velocity": 99,
      "chip": "ym2612"
    },
    {
      "channel": 0,
      "note": 59,
      "start": 33.4749,
      "duration": 0.0501,
      "velocity": 127,
      "chip": "ym2612"
    },
    {
      "channel": 1,
      "note": 51,
      "start": 33.4766,
      "duration": 0.1457,
      "velocity": 99,
      "chip": "ym2612"
    },
    {
      "channel": 2,
      "note": 89,
      "start": 33.4782,
      "duration": 0.6427,
      "velocity": 100,
      "chip": "ym2612"
    },
    {
      "channel": 5,
      "note": 45,
      "start": 33.4815,
      "duration": 0.0859,
      "velocity": 127,
      "chip": "ym2612"
    },
    {
      "channel": 1,
      "note": 51,
      "start": 33.6516,
      "duration": 0.137,
      "velocity": 99,
      "chip": "ym2612"
    },
    {
      "channel": 0,
      "note": 71,
      "start": 33.8203,
      "duration": 0.037,
      "velocity": 127,
      "chip": "ym2612"
    },
    {
      "channel": 1,
      "note": 51,
      "start": 33.822,
      "duration": 0.1326,
      "velocity": 99,
      "chip": "ym2612"
    },
    {
      "channel": 4,
      "note": 89,
      "start": 33.8238,
      "duration": 0.6297,
      "velocity": 100,
      "chip": "ym2612"
    },
    {
      "channel": 1,
      "note": 51,
      "start": 33.9838,
      "duration": 0.137,
      "velocity": 99,
      "chip": "ym2612"
    },
    {
      "channel": 0,
      "note": 59,
      "start": 34.153,
      "duration": 0.0093,
      "velocity": 127,
      "chip": "ym2612"
    },
    {
      "channel": 1,
      "note": 51,
      "start": 34.1546,
      "duration": 0.1323,
      "velocity": 99,
      "chip": "ym2612"
    },
    {
      "channel": 2,
      "note": 90,
      "start": 34.1562,
      "duration": 0.6293,
      "velocity": 100,
      "chip": "ym2612"
    },
    {
      "channel": 5,
      "note": 45,
      "start": 34.158,
      "duration": 0.074,
      "velocity": 127,
      "chip": "ym2612"
    },
    {
      "channel": 0,
      "note": 59,
      "start": 34.3158,
      "duration": 0.0126,
      "velocity": 127,
      "chip": "ym2612"
    },
    {
      "channel": 1,
      "note": 51,
      "start": 34.3176,
      "duration": 0.1356,
      "velocity": 99,
      "chip": "ym2612"
    },
    {
      "channel": 0,
      "note": 71,
      "start": 34.4849,
      "duration": 0.0369,
      "velocity": 127,
      "chip": "ym2612"
    },
    {
      "channel": 1,
      "note": 51,
      "start": 34.4866,
      "duration": 0.1326,
      "velocity": 99,
      "chip": "ym2612"
    },
    {
      "channel": 4,
      "note": 90,
      "start": 34.4883,
      "duration": 0.6434,
      "velocity": 100,
      "chip": "ym2612"
    },
    {
      "channel": 1,
      "note": 51,
      "start": 34.6483,
      "duration": 0.137,
      "velocity": 99,
      "chip": "ym2612"
    },
    {
      "channel": 0,
      "note": 59,
      "start": 34.8174,
      "duration": 0.0505,
      "velocity": 127,
      "chip": "ym2612"
    },
    {
      "channel": 1,
      "note": 49,
      "start": 34.8193,
      "duration": 0.146,
      "velocity": 99,
      "chip": "ym2612"
    },
    {
      "channel": 2,
      "note": 92,
      "start": 34.8208,
      "duration": 1.3075,
      "velocity": 100,
      "chip": "ym2612"
    },
    {
      "channel": 3,
      "note": 85,
      "start": 34.8224,
      "duration": 2.6351,
      "velocity": 101,
      "chip": "ym2612"
    },
    {
      "channel": 5,
      "note": 45,
      "start": 34.8243,
      "duration": 0.0861,
      "velocity": 127,
      "chip": "ym2612"
    },
    {
      "channel": 1,
      "note": 49,
      "start": 34.9944,
      "duration": 0.137,
      "velocity": 99,
      "chip": "ym2612"
    },
    {
      "channel": 0,
      "note": 71,
      "start": 35.1632,
      "duration": 0.037,
      "velocity": 127,
      "chip": "ym2612"
    },
    {
      "channel": 1,
      "note": 49,
      "start": 35.1649,
      "duration": 0.1326,
      "velocity": 99,
      "chip": "ym2612"
    },
    {
      "channel": 4,
      "note": 92,
      "start": 35.1667,
      "duration": 1.2941,
      "velocity": 100,
      "chip": "ym2612"
    },
    {
      "channel": 1,
      "note": 49,
      "start": 35.3267,
      "duration": 0.1369,
      "velocity": 99,
      "chip": "ym2612"
    },
    {
      "channel": 0,
      "note": 59,
      "start": 35.4955,
      "duration": 0.0097,
      "velocity": 127,
      "chip": "ym2612"
    },
    {
      "channel": 1,
      "note": 49,
      "start": 35.4972,
      "duration": 0.1326,
      "velocity": 99,
      "chip": "ym2612"
    },
    {
      "channel": 5,
      "note": 45,
      "start": 35.499,
      "duration": 0.0758,
      "velocity": 127,
      "chip": "ym2612"
    },
    {
      "channel": 0,
      "note": 59,
      "start": 35.6587,
      "duration": 0.0126,
      "velocity": 127,
      "chip": "ym2612"
    },
    {
      "channel": 1,
      "note": 49,
      "start": 35.6604,
      "duration": 0.1356,
      "velocity": 99,
      "chip": "ym2612"
    },
    {
      "channel": 0,
      "note": 71,
      "start": 35.8277,
      "duration": 0.037,
      "velocity": 127,
      "chip": "ym2612"
    },
    {
      "channel": 1,
      "note": 49,
      "start": 35.8294,
      "duration": 0.1326,
      "velocity": 99,
      "chip": "ym2612"
    },
    {
      "channel": 1,
      "note": 49,
      "start": 35.9912,
      "duration": 0.137,
      "velocity": 99,
      "chip": "ym2612"
    },
    {
      "channel": 0,
      "note": 59,
      "start": 36.1601,
      "duration": 0.0368,
      "velocity": 127,
      "chip": "ym2612"
    },
    {
      "channel": 1,
      "note": 49,
      "start": 36.1618,
      "duration": 0.1324,
      "velocity": 99,
      "chip": "ym2612"
    },
    {
      "channel": 2,
      "note": 85,
      "start": 36.1634,
      "duration": 0.6295,
      "velocity": 100,
      "chip": "ym2612"
    },
    {
      "channel": 5,
      "note": 45,
      "start": 36.1667,
      "duration": 0.0727,
      "velocity": 127,
      "chip": "ym2612"
    },
    {
      "channel": 1,
      "note": 49,
      "start": 36.3234,
      "duration": 0.137,
      "velocity": 99,
      "chip": "ym2612"
    },
    {
      "channel": 0,
      "note": 71,
      "start": 36.4922,
      "duration": 0.037,
      "velocity": 127,
      "chip": "ym2612"
    },
    {
      "channel": 1,
      "note": 49,
      "start": 36.4939,
      "duration": 0.1326,
      "velocity": 99,
      "chip": "ym2612"
    },
    {
      "channel": 4,
      "note": 85,
      "start": 36.4957,
      "duration": 0.6296,
      "velocity": 100,
      "chip": "ym2612"
    },
    {
      "channel": 1,
      "note": 49,
      "start": 36.6557,
      "duration": 0.137,
      "velocity": 99,
      "chip": "ym2612"
    },
    {
      "channel": 0,
      "note": 59,
      "start": 36.8248,
      "duration": 0.0094,
      "velocity": 127,
      "chip": "ym2612"
    },
    {
      "channel": 1,
      "note": 49,
      "start": 36.8265,
      "duration": 0.1322,
      "velocity": 99,
      "chip": "ym2612"
    },
    {
      "channel": 2,
      "note": 83,
      "start": 36.828,
      "duration": 0.6293,
      "velocity": 100,
      "chip": "ym2612"
    },
    {
      "channel": 5,
      "note": 45,
      "start": 36.8298,
      "duration": 0.074,
      "velocity": 127,
      "chip": "ym2612"
    },
    {
      "channel": 0,
      "note": 59,
      "start": 36.9877,
      "duration": 0.0126,
      "velocity": 127,
      "chip": "ym2612"
    },
    {
      "channel": 1,
      "note": 49,
      "start": 36.9894,
      "duration": 0.1356,
      "velocity": 99,
      "chip": "ym2612"
    },
    {
      "channel": 0,
      "note": 71,
      "start": 37.1567,
      "duration": 0.037,
      "velocity": 127,
      "chip": "ym2612"
    },
    {
      "channel": 1,
      "note": 49,
      "start": 37.1584,
      "duration": 0.1326,
      "velocity": 99,
      "chip": "ym2612"
    },
    {
      "channel": 4,
      "note": 83,
      "start": 37.1602,
      "duration": 0.6435,
      "velocity": 100,
      "chip": "ym2612"
    },
    {
      "channel": 1,
      "note": 49,
      "start": 37.3202,
      "duration": 0.137,
      "velocity": 99,
      "chip": "ym2612"
    },
    {
      "channel": 0,
      "note": 59,
      "start": 37.4897,
      "duration": 0.0501,
      "velocity": 127,
      "chip": "ym2612"
    },
    {
      "channel": 1,
      "note": 58,
      "start": 37.4915,
      "duration": 0.1456,
      "velocity": 99,
      "chip": "ym2612"
    },
    {
      "channel": 2,
      "note": 92,
      "start": 37.4932,
      "duration": 2.636,
      "velocity": 100,
      "chip": "ym2612"
    },
    {
      "channel": 3,
      "note": 82,
      "start": 37.4948,
      "duration": 2.6346,
      "velocity": 101,
      "chip": "ym2612"
    },
    {
      "channel": 5,
      "note": 45,
      "start": 37.4967,
      "duration": 0.087,
      "velocity": 127,
      "chip": "ym2612"
    },
    {
      "channel": 1,
      "note": 58,
      "start": 37.6663,
      "duration": 0.1369,
      "velocity": 99,
      "chip": "ym2612"
    },
    {
      "channel": 0,
      "note": 71,
      "start": 37.8351,
      "duration": 0.037,
      "velocity": 127,
      "chip": "ym2612"
    },
    {
      "channel": 1,
      "note": 58,
      "start": 37.8368,
      "duration": 0.1326,
      "velocity": 99,
      "chip": "ym2612"
    },
    {
      "channel": 4,
      "note": 92,
      "start": 37.8402,
      "duration": 2.6354,
      "velocity": 100,
      "chip": "ym2612"
    },
    {
      "channel": 1,
      "note": 58,
      "start": 37.9986,
      "duration": 0.1369,
      "velocity": 99,
      "chip": "ym2612"
    },
    {
      "channel": 0,
      "note": 59,
      "start": 38.1673,
      "duration": 0.0097,
      "velocity": 127,
      "chip": "ym2612"
    },
    {
      "channel": 1,
      "note": 58,
      "start": 38.1691,
      "duration": 0.1326,
      "velocity": 99,
      "chip": "ym2612"
    },
    {
      "channel": 5,
      "note": 45,
      "start": 38.1724,
      "duration": 0.0744,
      "velocity": 127,
      "chip": "ym2612"
    },
    {
      "channel": 0,
      "note": 59,
      "start": 38.3306,
      "duration": 0.0126,
      "velocity": 127,
      "chip": "ym2612"
    },
    {
      "channel": 1,
      "note": 58,
      "start": 38.3323,
      "duration": 0.1354,
      "velocity": 99,
      "chip": "ym2612"
    },
    {
      "channel": 0,
      "note": 71,
      "start": 38.4996,
      "duration": 0.037,
      "velocity": 127,
      "chip": "ym2612"
    },
    {
      "channel": 1,
      "note": 58,
      "start": 38.5013,
      "duration": 0.1326,
      "velocity": 99,
      "chip": "ym2612"
    },
    {
      "channel": 1,
      "note": 58,
      "start": 38.6631,
      "duration": 0.1369,
      "velocity": 99,
      "chip": "ym2612"
    },
    {
      "channel": 0,
      "note": 59,
      "start": 38.8322,
      "duration": 0.0366,
      "velocity": 127,
      "chip": "ym2612"
    },
    {
      "channel": 1,
      "note": 58,
      "start": 38.8339,
      "duration": 0.1322,
      "velocity": 99,
      "chip": "ym2612"
    },
    {
      "channel": 5,
      "note": 45,
      "start": 38.8388,
      "duration": 0.0725,
      "velocity": 127,
      "chip": "ym2612"
    },
    {
      "channel": 1,
      "note": 58,
      "start": 38.9953,
      "duration": 0.1369,
      "velocity": 99,
      "chip": "ym2612"
    },
    {
      "channel": 0,
      "note": 71,
      "start": 39.1641,
      "duration": 0.037,
      "velocity": 127,
      "chip": "ym2612"
    },
    {
      "channel": 1,
      "note": 58,
      "start": 39.1658,
      "duration": 0.1326,
      "velocity": 99,
      "chip": "ym2612"
    },
    {
      "channel": 1,
      "note": 58,
      "start": 39.3276,
      "duration": 0.1369,
      "velocity": 99,
      "chip": "ym2612"
    },
    {
      "channel": 0,
      "note": 59,
      "start": 39.4969,
      "duration": 0.0093,
      "velocity": 127,
      "chip": "ym2612"
    },
    {
      "channel": 1,
      "note": 58,
      "start": 39.4986,
      "duration": 0.132,
      "velocity": 99,
      "chip": "ym2612"
    },
    {
      "channel": 5,
      "note": 45,
      "start": 39.5006,
      "duration": 0.0752,
      "velocity": 127,
      "chip": "ym2612"
    },
    {
      "channel": 0,
      "note": 59,
      "start": 39.6596,
      "duration": 0.0126,
      "velocity": 127,
      "chip": "ym2612"
    },
    {
      "channel": 1,
      "note": 58,
      "start": 39.6612,
      "duration": 0.1356,
      "velocity": 99,
      "chip": "ym2612"
    },
    {
      "channel": 0,
      "note": 71,
      "start": 39.8286,
      "duration": 0.037,
      "velocity": 127,
      "chip": "ym2612"
    },
    {
      "channel": 1,
      "note": 58,
      "start": 39.8303,
      "duration": 0.1326,
      "velocity": 99,
      "chip": "ym2612"
    },
    {
      "channel": 1,
      "note": 58,
      "start": 39.9921,
      "duration": 0.137,
      "velocity": 99,
      "chip": "ym2612"
    },
    {
      "channel": 0,
      "note": 59,
      "start": 40.161,
      "duration": 0.0507,
      "velocity": 127,
      "chip": "ym2612"
    },
    {
      "channel": 1,
      "note": 56,
      "start": 40.1628,
      "duration": 0.1462,
      "velocity": 99,
      "chip": "ym2612"
    },
    {
      "channel": 2,
      "note": 92,
      "start": 40.1644,
      "duration": 1.3077,
      "velocity": 100,
      "chip": "ym2612"
    },
    {
      "channel": 3,
      "note": 82,
      "start": 40.166,
      "duration": 2.6491,
      "velocity": 101,
      "chip": "ym2612"
    },
    {
      "channel": 5,
      "note": 45,
      "start": 40.1679,
      "duration": 0.0863,
      "velocity": 127,
      "chip": "ym2612"
    },
    {
      "channel": 1,
      "note": 56,
      "start": 40.3381,
      "duration": 0.137,
      "velocity": 99,
      "chip": "ym2612"
    },
    {
      "channel": 0,
      "note": 71,
      "start": 40.507,
      "duration": 0.037,
      "velocity": 127,
      "chip": "ym2612"
    },
    {
      "channel": 1,
      "note": 56,
      "start": 40.5086,
      "duration": 0.1326,
      "velocity": 99,
      "chip": "ym2612"
    },
    {
      "channel": 4,
      "note": 92,
      "start": 40.5105,
      "duration": 1.308,
      "velocity": 100,
      "chip": "ym2612"
    },
    {
      "channel": 1,
      "note": 56,
      "start": 40.6704,
      "duration": 0.137,
      "velocity": 99,
      "chip": "ym2612"
    },
    {
      "channel": 0,
      "note": 59,
      "start": 40.8395,
      "duration": 0.0094,
      "velocity": 127,
      "chip": "ym2612"
    },
    {
      "channel": 1,
      "note": 56,
      "start": 40.8412,
      "duration": 0.1323,
      "velocity": 99,
      "chip": "ym2612"
    },
    {
      "channel": 5,
      "note": 45,
      "start": 40.8432,
      "duration": 0.0755,
      "velocity": 127,
      "chip": "ym2612"
    },
    {
      "channel": 0,
      "note": 59,
      "start": 41.0025,
      "duration": 0.0126,
      "velocity": 127,
      "chip": "ym2612"
    },
    {
      "channel": 1,
      "note": 56,
      "start": 41.0041,
      "duration": 0.1355,
      "velocity": 99,
      "chip": "ym2612"
    },
    {
      "channel": 0,
      "note": 71,
      "start": 41.1715,
      "duration": 0.037,
      "velocity": 127,
      "chip": "ym2612"
    },
    {
      "channel": 1,
      "note": 56,
      "start": 41.1732,
      "duration": 0.1326,
      "velocity": 99,
      "chip": "ym2612"
    },
    {
      "channel": 1,
      "note": 56,
      "start": 41.335,
      "duration": 0.1369,
      "velocity": 99,
      "chip": "ym2612"
    },
    {
      "channel": 0,
      "note": 59,
      "start": 41.5044,
      "duration": 0.0501,
      "velocity": 127,
      "chip": "ym2612"
    },
    {
      "channel": 1,
      "note": 56,
      "start": 41.5061,
      "duration": 0.1457,
      "velocity": 99,
      "chip": "ym2612"
    },
    {
      "channel": 2,
      "note": 90,
      "start": 41.5078,
      "duration": 0.6427,
      "velocity": 100,
      "chip": "ym2612"
    },
    {
      "channel": 5,
      "note": 45,
      "start": 41.5111,
      "duration": 0.0859,
      "velocity": 127,
      "chip": "ym2612"
    },
    {
      "channel": 1,
      "note": 56,
      "start": 41.681,
      "duration": 0.137,
      "velocity": 99,
      "chip": "ym2612"
    },
    {
      "channel": 0,
      "note": 71,
      "start": 41.8498,
      "duration": 0.037,
      "velocity": 127,
      "chip": "ym2612"
    },
    {
      "channel": 1,
      "note": 56,
      "start": 41.8515,
      "duration": 0.1326,
      "velocity": 99,
      "chip": "ym2612"
    },
    {
      "channel": 4,
      "note": 90,
      "start": 41.8534,
      "duration": 0.6296,
      "velocity": 100,
      "chip": "ym2612"
    },
    {
      "channel": 1,
      "note": 56,
      "start": 42.0133,
      "duration": 0.1369,
      "velocity": 99,
      "chip": "ym2612"
    },
    {
      "channel": 0,
      "note": 59,
      "start": 42.1826,
      "duration": 0.0092,
      "velocity": 127,
      "chip": "ym2612"
    },
    {
      "channel": 1,
      "note": 56,
      "start": 42.1842,
      "duration": 0.1322,
      "velocity": 99,
      "chip": "ym2612"
    },
    {
      "channel": 2,
      "note": 89,
      "start": 42.1859,
      "duration": 0.6291,
      "velocity": 100,
      "chip": "ym2612"
    },
    {
      "channel": 5,
      "note": 45,
      "start": 42.1876,
      "duration": 0.0739,
      "velocity": 127,
      "chip": "ym2612"
    },
    {
      "channel": 0,
      "note": 59,
      "start": 42.3453,
      "duration": 0.0125,
      "velocity": 127,
      "chip": "ym2612"
    },
    {
      "channel": 1,
      "note": 56,
      "start": 42.347,
      "duration": 0.1355,
      "velocity": 99,
      "chip": "ym2612"
    },
    {
      "channel": 0,
      "note": 71,
      "start": 42.5144,
      "duration": 0.0369,
      "velocity": 127,
      "chip": "ym2612"
    },
    {
      "channel": 1,
      "note": 56,
      "start": 42.516,
      "duration": 0.1326,
      "velocity": 99,
      "chip": "ym2612"
    },
    {
      "channel": 4,
      "note": 89,
      "start": 42.5179,
      "duration": 0.6434,
      "velocity": 100,
      "chip": "ym2612"
    },
    {
      "channel": 1,
      "note": 56,
      "start": 42.6778,
      "duration": 0.137,
      "velocity": 99,
      "chip": "ym2612"
    },
    {
      "channel": 0,
      "note": 59,
      "start": 42.8475,
      "duration": 0.0499,
      "velocity": 127,
      "chip": "ym2612"
    },
    {
      "channel": 1,
      "note": 51,
      "start": 42.8496,
      "duration": 0.1451,
      "velocity": 99,
      "chip": "ym2612"
    },
    {
      "channel": 2,
      "note": 87,
      "start": 42.8516,
      "duration": 1.3062,
      "velocity": 100,
      "chip": "ym2612"
    },
    {
      "channel": 3,
      "note": 87,
      "start": 42.8535,
      "duration": 2.6334,
      "velocity": 101,
      "chip": "ym2612"
    },
    {
      "channel": 5,
      "note": 45,
      "start": 42.8586,
      "duration": 0.0812,
      "velocity": 127,
      "chip": "ym2612"
    },
    {
      "channel": 1,
      "note": 51,
      "start": 43.0239,
      "duration": 0.137,
      "velocity": 99,
      "chip": "ym2612"
    },
    {
      "channel": 0,
      "note": 71,
      "start": 43.1927,
      "duration": 0.037,
      "velocity": 127,
      "chip": "ym2612"
    },
    {
      "channel": 1,
      "note": 51,
      "start": 43.1944,
      "duration": 0.1326,
      "velocity": 99,
      "chip": "ym2612"
    },
    {
      "channel": 4,
      "note": 87,
      "start": 43.1966,
      "duration": 1.2937,
      "velocity": 100,
      "chip": "ym2612"
    },
    {
      "channel": 1,
      "note": 51,
      "start": 43.3561,
      "duration": 0.137,
      "velocity": 99,
      "chip": "ym2612"
    },
    {
      "channel": 0,
      "note": 59,
      "start": 43.5249,
      "duration": 0.0097,
      "velocity": 127,
      "chip": "ym2612"
    },
    {
      "channel": 1,
      "note": 51,
      "start": 43.5266,
      "duration": 0.1326,
      "velocity": 99,
      "chip": "ym2612"
    },
    {
      "channel": 5,
      "note": 45,
      "start": 43.5285,
      "duration": 0.0759,
      "velocity": 127,
      "chip": "ym2612"
    },
    {
      "channel": 0,
      "note": 59,
      "start": 43.6882,
      "duration": 0.0125,
      "velocity": 127,
      "chip": "ym2612"
    },
    {
      "channel": 1,
      "note": 51,
      "start": 43.6899,
      "duration": 0.1355,
      "velocity": 99,
      "chip": "ym2612"
    },
    {
      "channel": 0,
      "note": 71,
      "start": 43.8572,
      "duration": 0.037,
      "velocity": 127,
      "chip": "ym2612"
    },
    {
      "channel": 1,
      "note": 51,
      "start": 43.8589,
      "duration": 0.1326,
      "velocity": 99,
      "chip": "ym2612"
    },
    {
      "channel": 1,
      "note": 51,
      "start": 44.0207,
      "duration": 0.137,
      "velocity": 99,
      "chip": "ym2612"
    },
    {
      "channel": 0,
      "note": 59,
      "start": 44.1897,
      "duration": 0.0368,
      "velocity": 127,
      "chip": "ym2612"
    },
    {
      "channel": 1,
      "note": 51,
      "start": 44.1914,
      "duration": 0.1323,
      "velocity": 99,
      "chip": "ym2612"
    },
    {
      "channel": 2,
      "note": 89,
      "start": 44.193,
      "duration": 0.6293,
      "velocity": 100,
      "chip": "ym2612"
    },
    {
      "channel": 5,
      "note": 45,
      "start": 44.1963,
      "duration": 0.0725,
      "velocity": 127,
      "chip": "ym2612"
    },
    {
      "channel": 1,
      "note": 51,
      "start": 44.3529,
      "duration": 0.137,
      "velocity": 99,
      "chip": "ym2612"
    },
    {
      "channel": 0,
      "note": 71,
      "start": 44.5217,
      "duration": 0.037,
      "velocity": 127,
      "chip": "ym2612"
    },
    {
      "channel": 1,
      "note": 51,
      "start": 44.5234,
      "duration": 0.1326,
      "velocity": 99,
      "chip": "ym2612"
    },
    {
      "channel": 4,
      "note": 89,
      "start": 44.5252,
      "duration": 0.6296,
      "velocity": 100,
      "chip": "ym2612"
    },
    {
      "channel": 1,
      "note": 51,
      "start": 44.6852,
      "duration": 0.137,
      "velocity": 99,
      "chip": "ym2612"
    },
    {
      "channel": 0,
      "note": 59,
      "start": 44.8544,
      "duration": 0.0093,
      "velocity": 127,
      "chip": "ym2612"
    },
    {
      "channel": 1,
      "note": 51,
      "start": 44.856,
      "duration": 0.1322,
      "velocity": 99,
      "chip": "ym2612"
    },
    {
      "channel": 2,
      "note": 90,
      "start": 44.8578,
      "duration": 1.9719,
      "velocity": 100,
      "chip": "ym2612"
    },
    {
      "channel": 5,
      "note": 45,
      "start": 44.8595,
      "duration": 0.0739,
      "velocity": 127,
      "chip": "ym2612"
    },
    {
      "channel": 0,
      "note": 59,
      "start": 45.0172,
      "duration": 0.0126,
      "velocity": 127,
      "chip": "ym2612"
    },
    {
      "channel": 1,
      "note": 51,
      "start": 45.0189,
      "duration": 0.1355,
      "velocity": 99,
      "chip": "ym2612"
    },
    {
      "channel": 0,
      "note": 71,
      "start": 45.1862,
      "duration": 0.0369,
      "velocity": 127,
      "chip": "ym2612"
    },
    {
      "channel": 1,
      "note": 51,
      "start": 45.1879,
      "duration": 0.1326,
      "velocity": 99,
      "chip": "ym2612"
    },
    {
      "channel": 4,
      "note": 90,
      "start": 45.1899,
      "duration": 1.9861,
      "velocity": 100,
      "chip": "ym2612"
    },
    {
      "channel": 1,
      "note": 51,
      "start": 45.3497,
      "duration": 0.137,
      "velocity": 99,
      "chip": "ym2612"
    },
    {
      "channel": 0,
      "note": 59,
      "start": 45.5193,
      "duration": 0.05,
      "velocity": 127,
      "chip": "ym2612"
    },
    {
      "channel": 1,
      "note": 49,
      "start": 45.5211,
      "duration": 0.1455,
      "velocity": 99,
      "chip": "ym2612"
    },
    {
      "channel": 3,
      "note": 85,
      "start": 45.5242,
      "duration": 2.6485,
      "velocity": 101,
      "chip": "ym2612"
    },
    {
      "channel": 5,
      "note": 45,
      "start": 45.5261,
      "duration": 0.0861,
      "velocity": 127,
      "chip": "ym2612"
    },
    {
      "channel": 1,
      "note": 49,
      "start": 45.6958,
      "duration": 0.1369,
      "velocity": 99,
      "chip": "ym2612"
    },
    {
      "channel": 0,
      "note": 71,
      "start": 45.8646,
      "duration": 0.037,
      "velocity": 127,
      "chip": "ym2612"
    },
    {
      "channel": 1,
      "note": 49,
      "start": 45.8662,
      "duration": 0.1326,
      "velocity": 99,
      "chip": "ym2612"
    },
    {
      "channel": 1,
      "note": 49,
      "start": 46.028,
      "duration": 0.137,
      "velocity": 99,
      "chip": "ym2612"
    },
    {
      "channel": 0,
      "note": 59,
      "start": 46.197,
      "duration": 0.0095,
      "velocity": 127,
      "chip": "ym2612"
    },
    {
      "channel": 1,
      "note": 49,
      "start": 46.1986,
      "duration": 0.1324,
      "velocity": 99,
      "chip": "ym2612"
    },
    {
      "channel": 5,
      "note": 45,
      "start": 46.2006,
      "duration": 0.0757,
      "velocity": 127,
      "chip": "ym2612"
    },
    {
      "channel": 0,
      "note": 59,
      "start": 46.36,
      "duration": 0.0126,
      "velocity": 127,
      "chip": "ym2612"
    },
    {
      "channel": 1,
      "note": 49,
      "start": 46.3617,
      "duration": 0.1356,
      "velocity": 99,
      "chip": "ym2612"
    },
    {
      "channel": 0,
      "note": 71,
      "start": 46.529,
      "duration": 0.037,
      "velocity": 127,
      "chip": "ym2612"
    },
    {
      "channel": 1,
      "note": 49,
      "start": 46.5308,
      "duration": 0.1326,
      "velocity": 99,
      "chip": "ym2612"
    },
    {
      "channel": 1,
      "note": 49,
      "start": 46.6925,
      "duration": 0.137,
      "velocity": 99,
      "chip": "ym2612"
    },
    {
      "channel": 0,
      "note": 59,
      "start": 46.8619,
      "duration": 0.0502,
      "velocity": 127,
      "chip": "ym2612"
    },
    {
      "channel": 1,
      "note": 49,
      "start": 46.8636,
      "duration": 0.1459,
      "velocity": 99,
      "chip": "ym2612"
    },
    {
      "channel": 2,
      "note": 89,
      "start": 46.8652,
      "duration": 0.6429,
      "velocity": 100,
      "chip": "ym2612"
    },
    {
      "channel": 5,
      "note": 45,
      "start": 46.8685,
      "duration": 0.0861,
      "velocity": 127,
      "chip": "ym2612"
    },
    {
      "channel": 1,
      "note": 49,
      "start": 47.0386,
      "duration": 0.137,
      "velocity": 99,
      "chip": "ym2612"
    },
    {
      "channel": 0,
      "note": 71,
      "start": 47.2074,
      "duration": 0.037,
      "velocity": 127,
      "chip": "ym2612"
    },
    {
      "channel": 1,
      "note": 49,
      "start": 47.2091,
      "duration": 0.1327,
      "velocity": 99,
      "chip": "ym2612"
    },
    {
      "channel": 4,
      "note": 89,
      "start": 47.211,
      "duration": 0.6295,
      "velocity": 100,
      "chip": "ym2612"
    },
    {
      "channel": 1,
      "note": 49,
      "start": 47.3709,
      "duration": 0.1369,
      "velocity": 99,
      "chip": "ym2612"
    },
    {
      "channel": 0,
      "note": 59,
      "start": 47.54,
      "duration": 0.0093,
      "velocity": 127,
      "chip": "ym2612"
    },
    {
      "channel": 1,
      "note": 49,
      "start": 47.5417,
      "duration": 0.1323,
      "velocity": 99,
      "chip": "ym2612"
    },
    {
      "channel": 2,
      "note": 85,
      "start": 47.5433,
      "duration": 0.6293,
      "velocity": 100,
      "chip": "ym2612"
    },
    {
      "channel": 5,
      "note": 45,
      "start": 47.5451,
      "duration": 0.0741,
      "velocity": 127,
      "chip": "ym2612"
    },
    {
      "channel": 0,
      "note": 59,
      "start": 47.7029,
      "duration": 0.0126,
      "velocity": 127,
      "chip": "ym2612"
    },
    {
      "channel": 1,
      "note": 49,
      "start": 47.7046,
      "duration": 0.1355,
      "velocity": 99,
      "chip": "ym2612"
    },
    {
      "channel": 0,
      "note": 71,
      "start": 47.8719,
      "duration": 0.037,
      "velocity": 127,
      "chip": "ym2612"
    },
    {
      "channel": 1,
      "note": 49,
      "start": 47.8736,
      "duration": 0.1326,
      "velocity": 99,
      "chip": "ym2612"
    },
    {
      "channel": 4,
      "note": 85,
      "start": 47.8754,
      "duration": 0.6434,
      "velocity": 100,
      "chip": "ym2612"
    },
    {
      "channel": 1,
      "note": 49,
      "start": 48.0354,
      "duration": 0.1369,
      "velocity": 99,
      "chip": "ym2612"
    },
    {
      "channel": 0,
      "note": 59,
      "start": 48.2045,
      "duration": 0.0505,
      "velocity": 127,
      "chip": "ym2612"
    },
    {
      "channel": 1,
      "note": 58,
      "start": 48.2063,
      "duration": 0.146,
      "velocity": 99,
      "chip": "ym2612"
    },
    {
      "channel": 2,
      "note": 80,
      "start": 48.2081,
      "duration": 2.6364,
      "velocity": 100,
      "chip": "ym2612"
    },
    {
      "channel": 3,
      "note": 82,
      "start": 48.2097,
      "duration": 2.635,
      "velocity": 101,
      "chip": "ym2612"
    },
    {
      "channel": 5,
      "note": 45,
      "start": 48.2115,
      "duration": 0.0874,
      "velocity": 127,
      "chip": "ym2612"
    },
    {
      "channel": 1,
      "note": 58,
      "start": 48.3815,
      "duration": 0.137,
      "velocity": 99,
      "chip": "ym2612"
    },
    {
      "channel": 0,
      "note": 71,
      "start": 48.5503,
      "duration": 0.0369,
      "velocity": 127,
      "chip": "ym2612"
    },
    {
      "channel": 1,
      "note": 58,
      "start": 48.552,
      "duration": 0.1326,
      "velocity": 99,
      "chip": "ym2612"
    },
    {
      "channel": 4,
      "note": 80,
      "start": 48.5553,
      "duration": 2.6354,
      "velocity": 100,
      "chip": "ym2612"
    },
    {
      "channel": 1,
      "note": 58,
      "start": 48.7137,
      "duration": 0.137,
      "velocity": 99,
      "chip": "ym2612"
    },
    {
      "channel": 0,
      "note": 59,
      "start": 48.8826,
      "duration": 0.0097,
      "velocity": 127,
      "chip": "ym2612"
    },
    {
      "channel": 1,
      "note": 58,
      "start": 48.8842,
      "duration": 0.1326,
      "velocity": 99,
      "chip": "ym2612"
    },
    {
      "channel": 5,
      "note": 45,
      "start": 48.8876,
      "duration": 0.0744,
      "velocity": 127,
      "chip": "ym2612"
    },
    {
      "channel": 0,
      "note": 59,
      "start": 49.0458,
      "duration": 0.0125,
      "velocity": 127,
      "chip": "ym2612"
    },
    {
      "channel": 1,
      "note": 58,
      "start": 49.0474,
      "duration": 0.1355,
      "velocity": 99,
      "chip": "ym2612"
    },
    {
      "channel": 0,
      "note": 71,
      "start": 49.2148,
      "duration": 0.037,
      "velocity": 127,
      "chip": "ym2612"
    },
    {
      "channel": 1,
      "note": 58,
      "start": 49.2165,
      "duration": 0.1326,
      "velocity": 99,
      "chip": "ym2612"
    },
    {
      "channel": 1,
      "note": 58,
      "start": 49.3783,
      "duration": 0.1369,
      "velocity": 99,
      "chip": "ym2612"
    },
    {
      "channel": 0,
      "note": 59,
      "start": 49.5472,
      "duration": 0.0368,
      "velocity": 127,
      "chip": "ym2612"
    },
    {
      "channel": 1,
      "note": 58,
      "start": 49.5489,
      "duration": 0.1324,
      "velocity": 99,
      "chip": "ym2612"
    },
    {
      "channel": 5,
      "note": 45,
      "start": 49.5538,
      "duration": 0.0727,
      "velocity": 127,
      "chip": "ym2612"
    },
    {
      "channel": 1,
      "note": 58,
      "start": 49.7105,
      "duration": 0.1369,
      "velocity": 99,
      "chip": "ym2612"
    },
    {
      "channel": 0,
      "note": 71,
      "start": 49.8793,
      "duration": 0.0369,
      "velocity": 127,
      "chip": "ym2612"
    },
    {
      "channel": 1,
      "note": 58,
      "start": 49.881,
      "duration": 0.1327,
      "velocity": 99,
      "chip": "ym2612"
    },
    {
      "channel": 1,
      "note": 58,
      "start": 50.0428,
      "duration": 0.1369,
      "velocity": 99,
      "chip": "ym2612"
    },
    {
      "channel": 0,
      "note": 59,
      "start": 50.2118,
      "duration": 0.0094,
      "velocity": 127,
      "chip": "ym2612"
    },
    {
      "channel": 1,
      "note": 58,
      "start": 50.2135,
      "duration": 0.1324,
      "velocity": 99,
      "chip": "ym2612"
    },
    {
      "channel": 5,
      "note": 45,
      "start": 50.2154,
      "duration": 0.0756,
      "velocity": 127,
      "chip": "ym2612"
    },
    {
      "channel": 0,
      "note": 59,
      "start": 50.3748,
      "duration": 0.0126,
      "velocity": 127,
      "chip": "ym2612"
    },
    {
      "channel": 1,
      "note": 58,
      "start": 50.3764,
      "duration": 0.1355,
      "velocity": 99,
      "chip": "ym2612"
    },
    {
      "channel": 0,
      "note": 71,
      "start": 50.5438,
      "duration": 0.037,
      "velocity": 127,
      "chip": "ym2612"
    },
    {
      "channel": 1,
      "note": 58,
      "start": 50.5455,
      "duration": 0.1326,
      "velocity": 99,
      "chip": "ym2612"
    },
    {
      "channel": 1,
      "note": 58,
      "start": 50.7073,
      "duration": 0.1369,
      "velocity": 99,
      "chip": "ym2612"
    },
    {
      "channel": 0,
      "note": 59,
      "start": 50.8767,
      "duration": 0.0502,
      "velocity": 127,
      "chip": "ym2612"
    },
    {
      "channel": 1,
      "note": 56,
      "start": 50.8785,
      "duration": 0.1457,
      "velocity": 99,
      "chip": "ym2612"
    },
    {
      "channel": 2,
      "note": 80,
      "start": 50.8801,
      "duration": 1.3071,
      "velocity": 100,
      "chip": "ym2612"
    },
    {
      "channel": 3,
      "note": 82,
      "start": 50.8817,
      "duration": 2.6348,
      "velocity": 101,
      "chip": "ym2612"
    },
    {
      "channel": 5,
      "note": 45,
      "start": 50.8836,
      "duration": 0.0858,
      "velocity": 127,
      "chip": "ym2612"
    },
    {
      "channel": 1,
      "note": 56,
      "start": 51.0534,
      "duration": 0.137,
      "velocity": 99,
      "chip": "ym2612"
    },
    {
      "channel": 0,
      "note": 71,
      "start": 51.2222,
      "duration": 0.037,
      "velocity": 127,
      "chip": "ym2612"
    },
    {
      "channel": 1,
      "note": 56,
      "start": 51.2238,
      "duration": 0.1326,
      "velocity": 99,
      "chip": "ym2612"
    },
    {
      "channel": 4,
      "note": 80,
      "start": 51.2257,
      "duration": 1.2941,
      "velocity": 100,
      "chip": "ym2612"
    },
    {
      "channel": 1,
      "note": 56,
      "start": 51.3856,
      "duration": 0.137,
      "velocity": 99,
      "chip": "ym2612"
    },
    {
      "channel": 0,
      "note": 59,
      "start": 51.5544,
      "duration": 0.0097,
      "velocity": 127,
      "chip": "ym2612"
    },
    {
      "channel": 1,
      "note": 56,
      "start": 51.5561,
      "duration": 0.1326,
      "velocity": 99,
      "chip": "ym2612"
    },
    {
      "channel": 5,
      "note": 45,
      "start": 51.5581,
      "duration": 0.0758,
      "velocity": 127,
      "chip": "ym2612"
    },
    {
      "channel": 0,
      "note": 59,
      "start": 51.7176,
      "duration": 0.0126,
      "velocity": 127,
      "chip": "ym2612"
    },
    {
      "channel": 1,
      "note": 56,
      "start": 51.7193,
      "duration": 0.1355,
      "velocity": 99,
      "chip": "ym2612"
    },
    {
      "channel": 0,
      "note": 71,
      "start": 51.8867,
      "duration": 0.0369,
      "velocity": 127,
      "chip": "ym2612"
    },
    {
      "channel": 1,
      "note": 56,
      "start": 51.8883,
      "duration": 0.1326,
      "velocity": 99,
      "chip": "ym2612"
    },
    {
      "channel": 1,
      "note": 56,
      "start": 52.0501,
      "duration": 0.137,
      "velocity": 99,
      "chip": "ym2612"
    },
    {
      "channel": 0,
      "note": 59,
      "start": 52.2193,
      "duration": 0.0366,
      "velocity": 127,
      "chip": "ym2612"
    },
    {
      "channel": 1,
      "note": 56,
      "start": 52.221,
      "duration": 0.1322,
      "velocity": 99,
      "chip": "ym2612"
    },
    {
      "channel": 2,
      "note": 78,
      "start": 52.2226,
      "duration": 1.2937,
      "velocity": 100,
      "chip": "ym2612"
    },
    {
      "channel": 5,
      "note": 45,
      "start": 52.2259,
      "duration": 0.0724,
      "velocity": 127,
      "chip": "ym2612"
    },
    {
      "channel": 1,
      "note": 56,
      "start": 52.3824,
      "duration": 0.137,
      "velocity": 99,
      "chip": "ym2612"
    },
    {
      "channel": 0,
      "note": 71,
      "start": 52.5512,
      "duration": 0.0369,
      "velocity": 127,
      "chip": "ym2612"
    },
    {
      "channel": 1,
      "note": 56,
      "start": 52.5529,
      "duration": 0.1326,
      "velocity": 99,
      "chip": "ym2612"
    },
    {
      "channel": 4,
      "note": 78,
      "start": 52.5547,
      "duration": 1.3079,
      "velocity": 100,
      "chip": "ym2612"
    },
    {
      "channel": 1,
      "note": 56,
      "start": 52.7146,
      "duration": 0.137,
      "velocity": 99,
      "chip": "ym2612"
    },
    {
      "channel": 0,
      "note": 59,
      "start": 52.8839,
      "duration": 0.0093,
      "velocity": 127,
      "chip": "ym2612"
    },
    {
      "channel": 1,
      "note": 56,
      "start": 52.8857,
      "duration": 0.1321,
      "velocity": 99,
      "chip": "ym2612"
    },
    {
      "channel": 5,
      "note": 45,
      "start": 52.8876,
      "duration": 0.0753,
      "velocity": 127,
      "chip": "ym2612"
    },
    {
      "channel": 0,
      "note": 59,
      "start": 53.0467,
      "duration": 0.0125,
      "velocity": 127,
      "chip": "ym2612"
    },
    {
      "channel": 1,
      "note": 56,
      "start": 53.0483,
      "duration": 0.1355,
      "velocity": 99,
      "chip": "ym2612"
    },
    {
      "channel": 0,
      "note": 71,
      "start": 53.2157,
      "duration": 0.037,
      "velocity": 127,
      "chip": "ym2612"
    },
    {
      "channel": 1,
      "note": 56,
      "start": 53.2173,
      "duration": 0.1326,
      "velocity": 99,
      "chip": "ym2612"
    },
    {
      "channel": 1,
      "note": 56,
      "start": 53.3791,
      "duration": 0.137,
      "velocity": 99,
      "chip": "ym2612"
    },
    {
      "channel": 0,
      "note": 59,
      "start": 53.5485,
      "duration": 0.0502,
      "velocity": 127,
      "chip": "ym2612"
    },
    {
      "channel": 1,
      "note": 51,
      "start": 53.5506,
      "duration": 0.1454,
      "velocity": 99,
      "chip": "ym2612"
    },
    {
      "channel": 2,
      "note": 87,
      "start": 53.5526,
      "duration": 1.3066,
      "velocity": 100,
      "chip": "ym2612"
    },
    {
      "channel": 3,
      "note": 87,
      "start": 53.5545,
      "duration": 2.6477,
      "velocity": 101,
      "chip": "ym2612"
    },
    {
      "channel": 5,
      "note": 45,
      "start": 53.5597,
      "duration": 0.0815,
      "velocity": 127,
      "chip": "ym2612"
    },
    {
      "channel": 1,
      "note": 51,
      "start": 53.7252,
      "duration": 0.137,
      "velocity": 99,
      "chip": "ym2612"
    },
    {
      "channel": 0,
      "note": 71,
      "start": 53.894,
      "duration": 0.0369,
      "velocity": 127,
      "chip": "ym2612"
    },
    {
      "channel": 1,
      "note": 51,
      "start": 53.8957,
      "duration": 0.1326,
      "velocity": 99,
      "chip": "ym2612"
    },
    {
      "channel": 4,
      "note": 87,
      "start": 53.8979,
      "duration": 1.3076,
      "velocity": 100,
      "chip": "ym2612"
    },
    {
      "channel": 1,
      "note": 51,
      "start": 54.0575,
      "duration": 0.137,
      "velocity": 99,
      "chip": "ym2612"
    },
    {
      "channel": 0,
      "note": 59,
      "start": 54.2266,
      "duration": 0.0094,
      "velocity": 127,
      "chip": "ym2612"
    },
    {
      "channel": 1,
      "note": 51,
      "start": 54.2283,
      "duration": 0.1322,
      "velocity": 99,
      "chip": "ym2612"
    },
    {
      "channel": 5,
      "note": 45,
      "start": 54.2301,
      "duration": 0.0756,
      "velocity": 127,
      "chip": "ym2612"
    },
    {
      "channel": 0,
      "note": 59,
      "start": 54.3895,
      "duration": 0.0125,
      "velocity": 127,
      "chip": "ym2612"
    },
    {
      "channel": 1,
      "note": 51,
      "start": 54.3912,
      "duration": 0.1355,
      "velocity": 99,
      "chip": "ym2612"
    },
    {
      "channel": 0,
      "note": 71,
      "start": 54.5586,
      "duration": 0.0369,
      "velocity": 127,
      "chip": "ym2612"
    },
    {
      "channel": 1,
      "note": 51,
      "start": 54.5602,
      "duration": 0.1326,
      "velocity": 99,
      "chip": "ym2612"
    },
    {
      "channel": 1,
      "note": 51,
      "start": 54.722,
      "duration": 0.137,
      "velocity": 99,
      "chip": "ym2612"
    },
    {
      "channel": 0,
      "note": 59,
      "start": 54.8916,
      "duration": 0.05,
      "velocity": 127,
      "chip": "ym2612"
    },
    {
      "channel": 1,
      "note": 51,
      "start": 54.8933,
      "duration": 0.1456,
      "velocity": 99,
      "chip": "ym2612"
    },
    {
      "channel": 2,
      "note": 89,
      "start": 54.8949,
      "duration": 0.6426,
      "velocity": 100,
      "chip": "ym2612"
    },
    {
      "channel": 5,
      "note": 45,
      "start": 54.8982,
      "duration": 0.0858,
      "velocity": 127,
      "chip": "ym2612"
    },
    {
      "channel": 1,
      "note": 51,
      "start": 55.0681,
      "duration": 0.137,
      "velocity": 99,
      "chip": "ym2612"
    },
    {
      "channel": 0,
      "note": 71,
      "start": 55.2369,
      "duration": 0.037,
      "velocity": 127,
      "chip": "ym2612"
    },
    {
      "channel": 1,
      "note": 51,
      "start": 55.2385,
      "duration": 0.1326,
      "velocity": 99,
      "chip": "ym2612"
    },
    {
      "channel": 4,
      "note": 89,
      "start": 55.2404,
      "duration": 0.6296,
      "velocity": 100,
      "chip": "ym2612"
    },
    {
      "channel": 1,
      "note": 51,
      "start": 55.4004,
      "duration": 0.137,
      "velocity": 99,
      "chip": "ym2612"
    },
    {
      "channel": 0,
      "note": 59,
      "start": 55.5696,
      "duration": 0.0092,
      "velocity": 127,
      "chip": "ym2612"
    },
    {
      "channel": 1,
      "note": 51,
      "start": 55.5713,
      "duration": 0.1321,
      "velocity": 99,
      "chip": "ym2612"
    },
    {
      "channel": 2,
      "note": 90,
      "start": 55.5729,
      "duration": 0.6291,
      "velocity": 100,
      "chip": "ym2612"
    },
    {
      "channel": 5,
      "note": 45,
      "start": 55.5747,
      "duration": 0.0739,
      "velocity": 127,
      "chip": "ym2612"
    },
    {
      "channel": 0,
      "note": 59,
      "start": 55.7324,
      "duration": 0.0126,
      "velocity": 127,
      "chip": "ym2612"
    },
    {
      "channel": 1,
      "note": 51,
      "start": 55.734,
      "duration": 0.1356,
      "velocity": 99,
      "chip": "ym2612"
    },
    {
      "channel": 0,
      "note": 71,
      "start": 55.9015,
      "duration": 0.0369,
      "velocity": 127,
      "chip": "ym2612"
    },
    {
      "channel": 1,
      "note": 51,
      "start": 55.9031,
      "duration": 0.1326,
      "velocity": 99,
      "chip": "ym2612"
    },
    {
      "channel": 4,
      "note": 90,
      "start": 55.9049,
      "duration": 0.6434,
      "velocity": 100,
      "chip": "ym2612"
    },
    {
      "channel": 1,
      "note": 51,
      "start": 56.0649,
      "duration": 0.137,
      "velocity": 99,
      "chip": "ym2612"
    },
    {
      "channel": 0,
      "note": 59,
      "start": 56.2341,
      "duration": 0.0504,
      "velocity": 127,
      "chip": "ym2612"
    },
    {
      "channel": 1,
      "note": 49,
      "start": 56.2359,
      "duration": 0.1459,
      "velocity": 99,
      "chip": "ym2612"
    },
    {
      "channel": 2,
      "note": 92,
      "start": 56.2375,
      "duration": 1.3073,
      "velocity": 100,
      "chip": "ym2612"
    },
    {
      "channel": 3,
      "note": 85,
      "start": 56.2391,
      "duration": 2.635,
      "velocity": 101,
      "chip": "ym2612"
    },
    {
      "channel": 5,
      "note": 45,
      "start": 56.241,
      "duration": 0.0859,
      "velocity": 127,
      "chip": "ym2612"
    },
    {
      "channel": 1,
      "note": 49,
      "start": 56.411,
      "duration": 0.1369,
      "velocity": 99,
      "chip": "ym2612"
    },
    {
      "channel": 0,
      "note": 71,
      "start": 56.5798,
      "duration": 0.037,
      "velocity": 127,
      "chip": "ym2612"
    },
    {
      "channel": 1,
      "note": 49,
      "start": 56.5814,
      "duration": 0.1326,
      "velocity": 99,
      "chip": "ym2612"
    },
    {
      "channel": 4,
      "note": 92,
      "start": 56.5832,
      "duration": 1.294,
      "velocity": 100,
      "chip": "ym2612"
    },
    {
      "channel": 1,
      "note": 49,
      "start": 56.7432,
      "duration": 0.1369,
      "velocity": 99,
      "chip": "ym2612"
    },
    {
      "channel": 0,
      "note": 59,
      "start": 56.912,
      "duration": 0.0097,
      "velocity": 127,
      "chip": "ym2612"
    },
    {
      "channel": 1,
      "note": 49,
      "start": 56.9137,
      "duration": 0.1326,
      "velocity": 99,
      "chip": "ym2612"
    },
    {
      "channel": 5,
      "note": 45,
      "start": 56.9156,
      "duration": 0.0758,
      "velocity": 127,
      "chip": "ym2612"
    },
    {
      "channel": 0,
      "note": 59,
      "start": 57.0752,
      "duration": 0.0126,
      "velocity": 127,
      "chip": "ym2612"
    },
    {
      "channel": 1,
      "note": 49,
      "start": 57.0769,
      "duration": 0.1355,
      "velocity": 99,
      "chip": "ym2612"
    },
    {
      "channel": 0,
      "note": 71,
      "start": 57.2443,
      "duration": 0.037,
      "velocity": 127,
      "chip": "ym2612"
    },
    {
      "channel": 1,
      "note": 49,
      "start": 57.246,
      "duration": 0.1326,
      "velocity": 99,
      "chip": "ym2612"
    },
    {
      "channel": 1,
      "note": 49,
      "start": 57.4078,
      "duration": 0.1369,
      "velocity": 99,
      "chip": "ym2612"
    },
    {
      "channel": 0,
      "note": 59,
      "start": 57.5767,
      "duration": 0.0368,
      "velocity": 127,
      "chip": "ym2612"
    },
    {
      "channel": 1,
      "note": 49,
      "start": 57.5784,
      "duration": 0.1324,
      "velocity": 99,
      "chip": "ym2612"
    },
    {
      "channel": 2,
      "note": 85,
      "start": 57.58,
      "duration": 0.6294,
      "velocity": 100,
      "chip": "ym2612"
    },
    {
      "channel": 5,
      "note": 45,
      "start": 57.5833,
      "duration": 0.0726,
      "velocity": 127,
      "chip": "ym2612"
    },
    {
      "channel": 1,
      "note": 49,
      "start": 57.74,
      "duration": 0.1369,
      "velocity": 99,
      "chip": "ym2612"
    },
    {
      "channel": 0,
      "note": 71,
      "start": 57.9088,
      "duration": 0.037,
      "velocity": 127,
      "chip": "ym2612"
    },
    {
      "channel": 1,
      "note": 49,
      "start": 57.9104,
      "duration": 0.1326,
      "velocity": 99,
      "chip": "ym2612"
    },
    {
      "channel": 4,
      "note": 85,
      "start": 57.9123,
      "duration": 0.6296,
      "velocity": 100,
      "chip": "ym2612"
    },
    {
      "channel": 1,
      "note": 49,
      "start": 58.0722,
      "duration": 0.137,
      "velocity": 99,
      "chip": "ym2612"
    },
    {
      "channel": 0,
      "note": 59,
      "start": 58.2415,
      "duration": 0.0092,
      "velocity": 127,
      "chip": "ym2612"
    },
    {
      "channel": 1,
      "note": 49,
      "start": 58.2432,
      "duration": 0.1321,
      "velocity": 99,
      "chip": "ym2612"
    },
    {
      "channel": 2,
      "note": 83,
      "start": 58.2448,
      "duration": 0.6291,
      "velocity": 100,
      "chip": "ym2612"
    },
    {
      "channel": 5,
      "note": 45,
      "start": 58.2466,
      "duration": 0.0739,
      "velocity": 127,
      "chip": "ym2612"
    },
    {
      "channel": 0,
      "note": 59,
      "start": 58.4042,
      "duration": 0.0126,
      "velocity": 127,
      "chip": "ym2612"
    },
    {
      "channel": 1,
      "note": 49,
      "start": 58.4059,
      "duration": 0.1355,
      "velocity": 99,
      "chip": "ym2612"
    },
    {
      "channel": 0,
      "note": 71,
      "start": 58.5733,
      "duration": 0.037,
      "velocity": 127,
      "chip": "ym2612"
    },
    {
      "channel": 1,
      "note": 49,
      "start": 58.575,
      "duration": 0.1326,
      "velocity": 99,
      "chip": "ym2612"
    },
    {
      "channel": 4,
      "note": 83,
      "start": 58.5767,
      "duration": 0.6435,
      "velocity": 100,
      "chip": "ym2612"
    },
    {
      "channel": 1,
      "note": 49,
      "start": 58.7368,
      "duration": 0.137,
      "velocity": 99,
      "chip": "ym2612"
    },
    {
      "channel": 0,
      "note": 59,
      "start": 58.9063,
      "duration": 0.0501,
      "velocity": 127,
      "chip": "ym2612"
    },
    {
      "channel": 1,
      "note": 58,
      "start": 58.9081,
      "duration": 0.1456,
      "velocity": 99,
      "chip": "ym2612"
    },
    {
      "channel": 2,
      "note": 92,
      "start": 58.9098,
      "duration": 2.6498,
      "velocity": 100,
      "chip": "ym2612"
    },
    {
      "channel": 3,
      "note": 82,
      "start": 58.9114,
      "duration": 2.6483,
      "velocity": 101,
      "chip": "ym2612"
    },
    {
      "channel": 5,
      "note": 45,
      "start": 58.9133,
      "duration": 0.0869,
      "velocity": 127,
      "chip": "ym2612"
    },
    {
      "channel": 1,
      "note": 58,
      "start": 59.0828,
      "duration": 0.137,
      "velocity": 99,
      "chip": "ym2612"
    },
    {
      "channel": 0,
      "note": 71,
      "start": 59.2516,
      "duration": 0.037,
      "velocity": 127,
      "chip": "ym2612"
    },
    {
      "channel": 1,
      "note": 58,
      "start": 59.2533,
      "duration": 0.1326,
      "velocity": 99,
      "chip": "ym2612"
    },
    {
      "channel": 4,
      "note": 92,
      "start": 59.2567,
      "duration": 2.6492,
      "velocity": 100,
      "chip": "ym2612"
    },
    {
      "channel": 1,
      "note": 58,
      "start": 59.4151,
      "duration": 0.1369,
      "velocity": 99,
      "chip": "ym2612"
    },
    {
      "channel": 0,
      "note": 59,
      "start": 59.584,
      "duration": 0.0095,
      "velocity": 127,
      "chip": "ym2612"
    },
    {
      "channel": 1,
      "note": 58,
      "start": 59.5857,
      "duration": 0.1324,
      "velocity": 99,
      "chip": "ym2612"
    },
    {
      "channel": 5,
      "note": 45,
      "start": 59.589,
      "duration": 0.0743,
      "velocity": 127,
      "chip": "ym2612"
    },
    {
      "channel": 0,
      "note": 59,
      "start": 59.7471,
      "duration": 0.0126,
      "velocity": 127,
      "chip": "ym2612"
    },
    {
      "channel": 1,
      "note": 58,
      "start": 59.7488,
      "duration": 0.1355,
      "velocity": 99,
      "chip": "ym2612"
    },
    {
      "channel": 0,
      "note": 71,
      "start": 59.9161,
      "duration": 0.037,
      "velocity": 127,
      "chip": "ym2612"
    },
    {
      "channel": 1,
      "note": 58,
      "start": 59.9179,
      "duration": 0.1326,
      "velocity": 99,
      "chip": "ym2612"
    },
    {
      "channel": 1,
      "note": 58,
      "start": 60.0796,
      "duration": 0.137,
      "velocity": 99,
      "chip": "ym2612"
    },
    {
      "channel": 0,
      "note": 59,
      "start": 60.2489,
      "duration": 0.0503,
      "velocity": 127,
      "chip": "ym2612"
    },
    {
      "channel": 1,
      "note": 58,
      "start": 60.2506,
      "duration": 0.1459,
      "velocity": 99,
      "chip": "ym2612"
    },
    {
      "channel": 5,
      "note": 45,
      "start": 60.2555,
      "duration": 0.0861,
      "velocity": 127,
      "chip": "ym2612"
    },
    {
      "channel": 1,
      "note": 58,
      "start": 60.4257,
      "duration": 0.137,
      "velocity": 99,
      "chip": "ym2612"
    },
    {
      "channel": 0,
      "note": 71,
      "start": 60.5944,
      "duration": 0.037,
      "velocity": 127,
      "chip": "ym2612"
    },
    {
      "channel": 1,
      "note": 58,
      "start": 60.5962,
      "duration": 0.1326,
      "velocity": 99,
      "chip": "ym2612"
    },
    {
      "channel": 1,
      "note": 58,
      "start": 60.7579,
      "duration": 0.137,
      "velocity": 99,
      "chip": "ym2612"
    },
    {
      "channel": 0,
      "note": 59,
      "start": 60.927,
      "duration": 0.0094,
      "velocity": 127,
      "chip": "ym2612"
    },
    {
      "channel": 1,
      "note": 58,
      "start": 60.9287,
      "duration": 0.1323,
      "velocity": 99,
      "chip": "ym2612"
    },
    {
      "channel": 5,
      "note": 45,
      "start": 60.9306,
      "duration": 0.0755,
      "velocity": 127,
      "chip": "ym2612"
    },
    {
      "channel": 0,
      "note": 59,
      "start": 61.09,
      "duration": 0.0125,
      "velocity": 127,
      "chip": "ym2612"
    },
    {
      "channel": 1,
      "note": 58,
      "start": 61.0917,
      "duration": 0.1355,
      "velocity": 99,
      "chip": "ym2612"
    },
    {
      "channel": 0,
      "note": 71,
      "start": 61.259,
      "duration": 0.037,
      "velocity": 127,
      "chip": "ym2612"
    },
    {
      "channel": 1,
      "note": 58,
      "start": 61.2607,
      "duration": 0.1326,
      "velocity": 99,
      "chip": "ym2612"
    },
    {
      "channel": 1,
      "note": 58,
      "start": 61.4224,
      "duration": 0.1369,
      "velocity": 99,
      "chip": "ym2612"
    },
    {
      "channel": 0,
      "note": 59,
      "start": 61.5917,
      "duration": 0.0504,
      "velocity": 127,
      "chip": "ym2612"
    },
    {
      "channel": 1,
      "note": 56,
      "start": 61.5935,
      "duration": 0.1459,
      "velocity": 99,
      "chip": "ym2612"
    },
    {
      "channel": 2,
      "note": 92,
      "start": 61.5951,
      "duration": 2.6364,
      "velocity": 100,
      "chip": "ym2612"
    },
    {
      "channel": 3,
      "note": 82,
      "start": 61.5967,
      "duration": 2.635,
      "velocity": 101,
      "chip": "ym2612"
    },
    {
      "channel": 5,
      "note": 45,
      "start": 61.5986,
      "duration": 0.0874,
      "velocity": 127,
      "chip": "ym2612"
    },
    {
      "channel": 1,
      "note": 56,
      "start": 61.7685,
      "duration": 0.137,
      "velocity": 99,
      "chip": "ym2612"
    },
    {
      "channel": 0,
      "note": 71,
      "start": 61.9373,
      "duration": 0.037,
      "velocity": 127,
      "chip": "ym2612"
    },
    {
      "channel": 1,
      "note": 56,
      "start": 61.939,
      "duration": 0.1326,
      "velocity": 99,
      "chip": "ym2612"
    },
    {
      "channel": 4,
      "note": 92,
      "start": 61.9423,
      "duration": 2.6355,
      "velocity": 100,
      "chip": "ym2612"
    },
    {
      "channel": 1,
      "note": 56,
      "start": 62.1008,
      "duration": 0.137,
      "velocity": 99,
      "chip": "ym2612"
    },
    {
      "channel": 0,
      "note": 59,
      "start": 62.2696,
      "duration": 0.0098,
      "velocity": 127,
      "chip": "ym2612"
    },
    {
      "channel": 1,
      "note": 56,
      "start": 62.2713,
      "duration": 0.1326,
      "velocity": 99,
      "chip": "ym2612"
    },
    {
      "channel": 5,
      "note": 45,
      "start": 62.2747,
      "duration": 0.0744,
      "velocity": 127,
      "chip": "ym2612"
    },
    {
      "channel": 0,
      "note": 59,
      "start": 62.4328,
      "duration": 0.0126,
      "velocity": 127,
      "chip": "ym2612"
    },
    {
      "channel": 1,
      "note": 56,
      "start": 62.4345,
      "duration": 0.1356,
      "velocity": 99,
      "chip": "ym2612"
    },
    {
      "channel": 0,
      "note": 71,
      "start": 62.6018,
      "duration": 0.037,
      "velocity": 127,
      "chip": "ym2612"
    },
    {
      "channel": 1,
      "note": 56,
      "start": 62.6035,
      "duration": 0.1327,
      "velocity": 99,
      "chip": "ym2612"
    },
    {
      "channel": 1,
      "note": 56,
      "start": 62.7653,
      "duration": 0.137,
      "velocity": 99,
      "chip": "ym2612"
    },
    {
      "channel": 0,
      "note": 59,
      "start": 62.9342,
      "duration": 0.0368,
      "velocity": 127,
      "chip": "ym2612"
    },
    {
      "channel": 1,
      "note": 56,
      "start": 62.9359,
      "duration": 0.1325,
      "velocity": 99,
      "chip": "ym2612"
    },
    {
      "channel": 5,
      "note": 45,
      "start": 62.9408,
      "duration": 0.0727,
      "velocity": 127,
      "chip": "ym2612"
    },
    {
      "channel": 1,
      "note": 56,
      "start": 63.0976,
      "duration": 0.137,
      "velocity": 99,
      "chip": "ym2612"
    },
    {
      "channel": 0,
      "note": 71,
      "start": 63.2663,
      "duration": 0.037,
      "velocity": 127,
      "chip": "ym2612"
    },
    {
      "channel": 1,
      "note": 56,
      "start": 63.268,
      "duration": 0.1326,
      "velocity": 99,
      "chip": "ym2612"
    },
    {
      "channel": 1,
      "note": 56,
      "start": 63.4298,
      "duration": 0.137,
      "velocity": 99,
      "chip": "ym2612"
    },
    {
      "channel": 0,
      "note": 59,
      "start": 63.5988,
      "duration": 0.0095,
      "velocity": 127,
      "chip": "ym2612"
    },
    {
      "channel": 1,
      "note": 56,
      "start": 63.6005,
      "duration": 0.1324,
      "velocity": 99,
      "chip": "ym2612"
    },
    {
      "channel": 5,
      "note": 45,
      "start": 63.6025,
      "duration": 0.0756,
      "velocity": 127,
      "chip": "ym2612"
    },
    {
      "channel": 0,
      "note": 71,
      "start": 63.7647,
      "duration": 0.0097,
      "velocity": 127,
      "chip": "ym2612"
    },
    {
      "channel": 1,
      "note": 56,
      "start": 63.7664,
      "duration": 0.1326,
      "velocity": 99,
      "chip": "ym2612"
    },
    {
      "channel": 0,
      "note": 71,
      "start": 63.928,
      "duration": 0.0126,
      "velocity": 127,
      "chip": "ym2612"
    },
    {
      "channel": 1,
      "note": 56,
      "start": 63.9296,
      "duration": 0.1356,
      "velocity": 99,
      "chip": "ym2612"
    },
    {
      "channel": 0,
      "note": 71,
      "start": 64.0941,
      "duration": 0.0125,
      "velocity": 127,
      "chip": "ym2612"
    },
    {
      "channel": 1,
      "note": 56,
      "start": 64.0958,
      "duration": 0.1355,
      "velocity": 99,
      "chip": "ym2612"
    },
    {
      "channel": 0,
      "note": 59,
      "start": 64.2642,
      "duration": 0.0498,
      "velocity": 127,
      "chip": "ym2612"
    },
    {
      "channel": 1,
      "note": 58,
      "start": 64.2663,
      "duration": 0.3111,
      "velocity": 99,
      "chip": "ym2612"
    },
    {
      "channel": 2,
      "note": 94,
      "start": 64.2711,
      "duration": 1.3032,
      "velocity": 97,
      "chip": "ym2612"
    },
    {
      "channel": 3,
      "note": 82,
      "start": 64.2729,
      "duration": 1.3016,
      "velocity": 101,
      "chip": "ym2612"
    },
    {
      "channel": 5,
      "note": 45,
      "start": 64.2782,
      "duration": 0.0783,
      "velocity": 127,
      "chip": "ym2612"
    },
    {
      "channel": 0,
      "note": 59,
      "start": 64.6093,
      "duration": 0.0368,
      "velocity": 127,
      "chip": "ym2612"
    },
    {
      "channel": 1,
      "note": 58,
      "start": 64.611,
      "duration": 0.2985,
      "velocity": 99,
      "chip": "ym2612"
    },
    {
      "channel": 4,
      "note": 94,
      "start": 64.6161,
      "duration": 1.3046,
      "velocity": 97,
      "chip": "ym2612"
    },
    {
      "channel": 0,
      "note": 59,
      "start": 64.9417,
      "duration": 0.0368,
      "velocity": 127,
      "chip": "ym2612"
    },
    {
      "channel": 1,
      "note": 58,
      "start": 64.9433,
      "duration": 0.2986,
      "velocity": 99,
      "chip": "ym2612"
    },
    {
      "channel": 5,
      "note": 45,
      "start": 64.9452,
      "duration": 0.0756,
      "velocity": 127,
      "chip": "ym2612"
    },
    {
      "channel": 0,
      "note": 59,
      "start": 65.2738,
      "duration": 0.0368,
      "velocity": 127,
      "chip": "ym2612"
    },
    {
      "channel": 1,
      "note": 58,
      "start": 65.2756,
      "duration": 0.2986,
      "velocity": 99,
      "chip": "ym2612"
    },
    {
      "channel": 0,
      "note": 59,
      "start": 65.6067,
      "duration": 0.0501,
      "velocity": 127,
      "chip": "ym2612"
    },
    {
      "channel": 1,
      "note": 58,
      "start": 65.6083,
      "duration": 0.312,
      "velocity": 99,
      "chip": "ym2612"
    },
    {
      "channel": 2,
      "note": 92,
      "start": 65.6099,
      "duration": 0.6428,
      "velocity": 97,
      "chip": "ym2612"
    },
    {
      "channel": 3,
      "note": 82,
      "start": 65.6115,
      "duration": 1.3059,
      "velocity": 101,
      "chip": "ym2612"
    },
    {
      "channel": 5,
      "note": 45,
      "start": 65.6133,
      "duration": 0.0859,
      "velocity": 127,
      "chip": "ym2612"
    },
    {
      "channel": 0,
      "note": 59,
      "start": 65.9522,
      "duration": 0.0368,
      "velocity": 127,
      "chip": "ym2612"
    },
    {
      "channel": 1,
      "note": 58,
      "start": 65.9539,
      "duration": 0.2986,
      "velocity": 99,
      "chip": "ym2612"
    },
    {
      "channel": 4,
      "note": 92,
      "start": 65.9557,
      "duration": 0.6294,
      "velocity": 97,
      "chip": "ym2612"
    },
    {
      "channel": 0,
      "note": 59,
      "start": 66.2845,
      "duration": 0.0368,
      "velocity": 127,
      "chip": "ym2612"
    },
    {
      "channel": 1,
      "note": 58,
      "start": 66.2862,
      "duration": 0.2985,
      "velocity": 99,
      "chip": "ym2612"
    },
    {
      "channel": 2,
      "note": 90,
      "start": 66.2877,
      "duration": 0.6295,
      "velocity": 97,
      "chip": "ym2612"
    },
    {
      "channel": 5,
      "note": 45,
      "start": 66.2895,
      "duration": 0.0742,
      "velocity": 127,
      "chip": "ym2612"
    },
    {
      "channel": 0,
      "note": 59,
      "start": 66.6167,
      "duration": 0.0368,
      "velocity": 127,
      "chip": "ym2612"
    },
    {
      "channel": 1,
      "note": 58,
      "start": 66.6184,
      "duration": 0.2985,
      "velocity": 99,
      "chip": "ym2612"
    },
    {
      "channel": 4,
      "note": 90,
      "start": 66.6202,
      "duration": 0.6433,
      "velocity": 97,
      "chip": "ym2612"
    },
    {
      "channel": 0,
      "note": 59,
      "start": 66.9492,
      "duration": 0.0504,
      "velocity": 127,
      "chip": "ym2612"
    },
    {
      "channel": 1,
      "note": 56,
      "start": 66.9511,
      "duration": 0.312,
      "velocity": 99,
      "chip": "ym2612"
    },
    {
      "channel": 2,
      "note": 89,
      "start": 66.9526,
      "duration": 0.6429,
      "velocity": 97,
      "chip": "ym2612"
    },
    {
      "channel": 3,
      "note": 82,
      "start": 66.9542,
      "duration": 1.3061,
      "velocity": 101,
      "chip": "ym2612"
    },
    {
      "channel": 5,
      "note": 45,
      "start": 66.956,
      "duration": 0.0861,
      "velocity": 127,
      "chip": "ym2612"
    },
    {
      "channel": 0,
      "note": 59,
      "start": 67.2951,
      "duration": 0.0368,
      "velocity": 127,
      "chip": "ym2612"
    },
    {
      "channel": 1,
      "note": 56,
      "start": 67.2968,
      "duration": 0.2985,
      "velocity": 99,
      "chip": "ym2612"
    },
    {
      "channel": 4,
      "note": 89,
      "start": 67.2986,
      "duration": 0.6295,
      "velocity": 97,
      "chip": "ym2612"
    },
    {
      "channel": 0,
      "note": 59,
      "start": 67.6273,
      "duration": 0.0368,
      "velocity": 127,
      "chip": "ym2612"
    },
    {
      "channel": 1,
      "note": 56,
      "start": 67.629,
      "duration": 0.2985,
      "velocity": 99,
      "chip": "ym2612"
    },
    {
      "channel": 2,
      "note": 90,
      "start": 67.6306,
      "duration": 0.2971,
      "velocity": 97,
      "chip": "ym2612"
    },
    {
      "channel": 5,
      "note": 45,
      "start": 67.6324,
      "duration": 0.0742,
      "velocity": 127,
      "chip": "ym2612"
    },
    {
      "channel": 0,
      "note": 59,
      "start": 67.9596,
      "duration": 0.0368,
      "velocity": 127,
      "chip": "ym2612"
    },
    {
      "channel": 1,
      "note": 56,
      "start": 67.9612,
      "duration": 0.2986,
      "velocity": 99,
      "chip": "ym2612"
    },
    {
      "channel": 2,
      "note": 89,
      "start": 67.9628,
      "duration": 0.2972,
      "velocity": 97,
      "chip": "ym2612"
    },
    {
      "channel": 4,
      "note": 90,
      "start": 67.9646,
      "duration": 0.2959,
      "velocity": 97,
      "chip": "ym2612"
    },
    {
      "channel": 0,
      "note": 59,
      "start": 68.2921,
      "duration": 0.0504,
      "velocity": 127,
      "chip": "ym2612"
    },
    {
      "channel": 1,
      "note": 56,
      "start": 68.2938,
      "duration": 0.3122,
      "velocity": 99,
      "chip": "ym2612"
    },
    {
      "channel": 2,
      "note": 87,
      "start": 68.2953,
      "duration": 0.3108,
      "velocity": 97,
      "chip": "ym2612"
    },
    {
      "channel": 3,
      "note": 82,
      "start": 68.2969,
      "duration": 1.3062,
      "velocity": 101,
      "chip": "ym2612"
    },
    {
      "channel": 4,
      "note": 89,
      "start": 68.2985,
      "duration": 0.3079,
      "velocity": 97,
      "chip": "ym2612"
    },
    {
      "channel": 5,
      "note": 45,
      "start": 68.3002,
      "duration": 0.0847,
      "velocity": 127,
      "chip": "ym2612"
    },
    {
      "channel": 0,
      "note": 59,
      "start": 68.638,
      "duration": 0.0368,
      "velocity": 127,
      "chip": "ym2612"
    },
    {
      "channel": 1,
      "note": 56,
      "start": 68.6396,
      "duration": 0.2986,
      "velocity": 99,
      "chip": "ym2612"
    },
    {
      "channel": 2,
      "note": 85,
      "start": 68.6412,
      "duration": 0.6295,
      "velocity": 97,
      "chip": "ym2612"
    },
    {
      "channel": 4,
      "note": 87,
      "start": 68.6429,
      "duration": 0.2957,
      "velocity": 97,
      "chip": "ym2612"
    },
    {
      "channel": 0,
      "note": 59,
      "start": 68.9702,
      "duration": 0.0368,
      "velocity": 127,
      "chip": "ym2612"
    },
    {
      "channel": 1,
      "note": 56,
      "start": 68.9719,
      "duration": 0.2986,
      "velocity": 99,
      "chip": "ym2612"
    },
    {
      "channel": 4,
      "note": 85,
      "start": 68.9737,
      "duration": 0.6296,
      "velocity": 97,
      "chip": "ym2612"
    },
    {
      "channel": 5,
      "note": 45,
      "start": 68.9752,
      "duration": 0.0742,
      "velocity": 127,
      "chip": "ym2612"
    },
    {
      "channel": 0,
      "note": 59,
      "start": 69.3025,
      "duration": 0.0368,
      "velocity": 127,
      "chip": "ym2612"
    },
    {
      "channel": 1,
      "note": 56,
      "start": 69.3041,
      "duration": 0.2986,
      "velocity": 99,
      "chip": "ym2612"
    },
    {
      "channel": 2,
      "note": 82,
      "start": 69.3057,
      "duration": 0.2972,
      "velocity": 97,
      "chip": "ym2612"
    },
    {
      "channel": 0,
      "note": 59,
      "start": 69.635,
      "duration": 0.0504,
      "velocity": 127,
      "chip": "ym2612"
    },
    {
      "channel": 1,
      "note": 51,
      "start": 69.6368,
      "duration": 0.312,
      "velocity": 99,
      "chip": "ym2612"
    },
    {
      "channel": 2,
      "note": 83,
      "start": 69.6384,
      "duration": 1.6396,
      "velocity": 97,
      "chip": "ym2612"
    },
    {
      "channel": 3,
      "note": 87,
      "start": 69.6399,
      "duration": 1.3059,
      "velocity": 101,
      "chip": "ym2612"
    },
    {
      "channel": 4,
      "note": 82,
      "start": 69.6415,
      "duration": 0.3076,
      "velocity": 97,
      "chip": "ym2612"
    },
    {
      "channel": 5,
      "note": 45,
      "start": 69.6433,
      "duration": 0.0845,
      "velocity": 127,
      "chip": "ym2612"
    },
    {
      "channel": 0,
      "note": 59,
      "start": 69.9808,
      "duration": 0.0368,
      "velocity": 127,
      "chip": "ym2612"
    },
    {
      "channel": 1,
      "note": 51,
      "start": 69.9825,
      "duration": 0.2992,
      "velocity": 99,
      "chip": "ym2612"
    },
    {
      "channel": 4,
      "note": 83,
      "start": 69.9843,
      "duration": 1.6262,
      "velocity": 97,
      "chip": "ym2612"
    },
    {
      "channel": 0,
      "note": 59,
      "start": 70.313,
      "duration": 0.0368,
      "velocity": 127,
      "chip": "ym2612"
    },
    {
      "channel": 1,
      "note": 51,
      "start": 70.3147,
      "duration": 0.2986,
      "velocity": 99,
      "chip": "ym2612"
    },
    {
      "channel": 5,
      "note": 45,
      "start": 70.3166,
      "duration": 0.0757,
      "velocity": 127,
      "chip": "ym2612"
    },
    {
      "channel": 0,
      "note": 59,
      "start": 70.6453,
      "duration": 0.0368,
      "velocity": 127,
      "chip": "ym2612"
    },
    {
      "channel": 1,
      "note": 51,
      "start": 70.647,
      "duration": 0.2985,
      "velocity": 99,
      "chip": "ym2612"
    },
    {
      "channel": 0,
      "note": 59,
      "start": 70.9778,
      "duration": 0.0365,
      "velocity": 127,
      "chip": "ym2612"
    },
    {
      "channel": 1,
      "note": 51,
      "start": 70.9795,
      "duration": 0.2983,
      "velocity": 99,
      "chip": "ym2612"
    },
    {
      "channel": 3,
      "note": 87,
      "start": 70.9826,
      "duration": 1.2924,
      "velocity": 101,
      "chip": "ym2612"
    },
    {
      "channel": 5,
      "note": 45,
      "start": 70.9844,
      "duration": 0.0724,
      "velocity": 127,
      "chip": "ym2612"
    },
    {
      "channel": 0,
      "note": 59,
      "start": 71.3098,
      "duration": 0.0368,
      "velocity": 127,
      "chip": "ym2612"
    },
    {
      "channel": 1,
      "note": 51,
      "start": 71.3115,
      "duration": 0.2986,
      "velocity": 99,
      "chip": "ym2612"
    },
    {
      "channel": 2,
      "note": 87,
      "start": 71.3131,
      "duration": 0.6295,
      "velocity": 97,
      "chip": "ym2612"
    },
    {
      "channel": 0,
      "note": 59,
      "start": 71.642,
      "duration": 0.0368,
      "velocity": 127,
      "chip": "ym2612"
    },
    {
      "channel": 1,
      "note": 51,
      "start": 71.6437,
      "duration": 0.2986,
      "velocity": 99,
      "chip": "ym2612"
    },
    {
      "channel": 4,
      "note": 87,
      "start": 71.6455,
      "duration": 0.6296,
      "velocity": 97,
      "chip": "ym2612"
    },
    {
      "channel": 5,
      "note": 45,
      "start": 71.6471,
      "duration": 0.0742,
      "velocity": 127,
      "chip": "ym2612"
    },
    {
      "channel": 0,
      "note": 59,
      "start": 71.9743,
      "duration": 0.0368,
      "velocity": 127,
      "chip": "ym2612"
    },
    {
      "channel": 1,
      "note": 51,
      "start": 71.976,
      "duration": 0.2986,
      "velocity": 99,
      "chip": "ym2612"
    },
    {
      "channel": 2,
      "note": 94,
      "start": 71.9776,
      "duration": 0.2972,
      "velocity": 97,
      "chip": "ym2612"
    },
    {
      "channel": 0,
      "note": 59,
      "start": 72.3068,
      "duration": 0.0504,
      "velocity": 127,
      "chip": "ym2612"
    },
    {
      "channel": 1,
      "note": 56,
      "start": 72.3087,
      "duration": 0.312,
      "velocity": 99,
      "chip": "ym2612"
    },
    {
      "channel": 2,
      "note": 92,
      "start": 72.3103,
      "duration": 2.6364,
      "velocity": 97,
      "chip": "ym2612"
    },
    {
      "channel": 3,
      "note": 80,
      "start": 72.3118,
      "duration": 1.3059,
      "velocity": 101,
      "chip": "ym2612"
    },
    {
      "channel": 4,
      "note": 94,
      "start": 72.3134,
      "duration": 0.3076,
      "velocity": 97,
      "chip": "ym2612"
    },
    {
      "channel": 5,
      "note": 45,
      "start": 72.3151,
      "duration": 0.0845,
      "velocity": 127,
      "chip": "ym2612"
    },
    {
      "channel": 0,
      "note": 59,
      "start": 72.6527,
      "duration": 0.0368,
      "velocity": 127,
      "chip": "ym2612"
    },
    {
      "channel": 1,
      "note": 56,
      "start": 72.6544,
      "duration": 0.2986,
      "velocity": 99,
      "chip": "ym2612"
    },
    {
      "channel": 4,
      "note": 92,
      "start": 72.6561,
      "duration": 2.6368,
      "velocity": 97,
      "chip": "ym2612"
    },
    {
      "channel": 0,
      "note": 59,
      "start": 72.9849,
      "duration": 0.0368,
      "velocity": 127,
      "chip": "ym2612"
    },
    {
      "channel": 1,
      "note": 56,
      "start": 72.9866,
      "duration": 0.2985,
      "velocity": 99,
      "chip": "ym2612"
    },
    {
      "channel": 5,
      "note": 45,
      "start": 72.9885,
      "duration": 0.0757,
      "velocity": 127,
      "chip": "ym2612"
    },
    {
      "channel": 0,
      "note": 59,
      "start": 73.3172,
      "duration": 0.0368,
      "velocity": 127,
      "chip": "ym2612"
    },
    {
      "channel": 1,
      "note": 56,
      "start": 73.3189,
      "duration": 0.2986,
      "velocity": 99,
      "chip": "ym2612"
    },
    {
      "channel": 0,
      "note": 74,
      "start": 73.6495,
      "duration": 0.0104,
      "velocity": 127,
      "chip": "ym2612"
    },
    {
      "channel": 1,
      "note": 56,
      "start": 73.6512,
      "duration": 0.2985,
      "velocity": 99,
      "chip": "ym2612"
    },
    {
      "channel": 3,
      "note": 80,
      "start": 73.6543,
      "duration": 1.2926,
      "velocity": 101,
      "chip": "ym2612"
    },
    {
      "channel": 5,
      "note": 45,
      "start": 73.6561,
      "duration": 0.0725,
      "velocity": 127,
      "chip": "ym2612"
    },
    {
      "channel": 0,
      "note": 73,
      "start": 73.8126,
      "duration": 0.0536,
      "velocity": 127,
      "chip": "ym2612"
    },
    {
      "channel": 1,
      "note": 56,
      "start": 73.9789,
      "duration": 0.3031,
      "velocity": 99,
      "chip": "ym2612"
    },
    {
      "channel": 0,
      "note": 71,
      "start": 74.3109,
      "duration": 0.0398,
      "velocity": 127,
      "chip": "ym2612"
    },
    {
      "channel": 1,
      "note": 56,
      "start": 74.3127,
      "duration": 0.3016,
      "velocity": 99,
      "chip": "ym2612"
    },
    {
      "channel": 5,
      "note": 45,
      "start": 74.3145,
      "duration": 0.0788,
      "velocity": 127,
      "chip": "ym2612"
    },
    {
      "channel": 0,
      "note": 69,
      "start": 74.6432,
      "duration": 0.0398,
      "velocity": 127,
      "chip": "ym2612"
    },
    {
      "channel": 1,
      "note": 56,
      "start": 74.6448,
      "duration": 0.3017,
      "velocity": 99,
      "chip": "ym2612"
    },
    {
      "channel": 0,
      "note": 59,
      "start": 74.9789,
      "duration": 0.0502,
      "velocity": 127,
      "chip": "ym2612"
    },
    {
      "channel": 1,
      "note": 59,
      "start": 74.981,
      "duration": 0.3116,
      "velocity": 99,
      "chip": "ym2612"
    },
    {
      "channel": 2,
      "note": 83,
      "start": 74.9829,
      "duration": 1.6389,
      "velocity": 97,
      "chip": "ym2612"
    },
    {
      "channel": 3,
      "note": 83,
      "start": 74.9847,
      "duration": 1.3049,
      "velocity": 101,
      "chip": "ym2612"
    },
    {
      "channel": 5,
      "note": 45,
      "start": 74.9899,
      "duration": 0.0817,
      "velocity": 127,
      "chip": "ym2612"
    },
    {
      "channel": 0,
      "note": 71,
      "start": 75.3244,
      "duration": 0.0369,
      "velocity": 127,
      "chip": "ym2612"
    },
    {
      "channel": 1,
      "note": 59,
      "start": 75.3261,
      "duration": 0.2987,
      "velocity": 99,
      "chip": "ym2612"
    },
    {
      "channel": 4,
      "note": 83,
      "start": 75.3282,
      "duration": 1.626,
      "velocity": 97,
      "chip": "ym2612"
    },
    {
      "channel": 0,
      "note": 59,
      "start": 75.6567,
      "duration": 0.0097,
      "velocity": 127,
      "chip": "ym2612"
    },
    {
      "channel": 1,
      "note": 59,
      "start": 75.6584,
      "duration": 0.2987,
      "velocity": 99,
      "chip": "ym2612"
    },
    {
      "channel": 5,
      "note": 45,
      "start": 75.6602,
      "duration": 0.0758,
      "velocity": 127,
      "chip": "ym2612"
    },
    {
      "channel": 0,
      "note": 59,
      "start": 75.8199,
      "duration": 0.0126,
      "velocity": 127,
      "chip": "ym2612"
    },
    {
      "channel": 0,
      "note": 71,
      "start": 75.9889,
      "duration": 0.037,
      "velocity": 127,
      "chip": "ym2612"
    },
    {
      "channel": 1,
      "note": 59,
      "start": 75.9906,
      "duration": 0.2987,
      "velocity": 99,
      "chip": "ym2612"
    },
    {
      "channel": 0,
      "note": 59,
      "start": 76.3213,
      "duration": 0.0368,
      "velocity": 127,
      "chip": "ym2612"
    },
    {
      "channel": 1,
      "note": 59,
      "start": 76.323,
      "duration": 0.2985,
      "velocity": 99,
      "chip": "ym2612"
    },
    {
      "channel": 3,
      "note": 83,
      "start": 76.3261,
      "duration": 1.2927,
      "velocity": 101,
      "chip": "ym2612"
    },
    {
      "channel": 5,
      "note": 45,
      "start": 76.3279,
      "duration": 0.0727,
      "velocity": 127,
      "chip": "ym2612"
    },
    {
      "channel": 0,
      "note": 71,
      "start": 76.6534,
      "duration": 0.037,
      "velocity": 127,
      "chip": "ym2612"
    },
    {
      "channel": 1,
      "note": 59,
      "start": 76.6551,
      "duration": 0.2987,
      "velocity": 99,
      "chip": "ym2612"
    },
    {
      "channel": 2,
      "note": 87,
      "start": 76.6567,
      "duration": 0.6296,
      "velocity": 97,
      "chip": "ym2612"
    },
    {
      "channel": 0,
      "note": 59,
      "start": 76.9859,
      "duration": 0.0095,
      "velocity": 127,
      "chip": "ym2612"
    },
    {
      "channel": 1,
      "note": 59,
      "start": 76.9876,
      "duration": 0.2985,
      "velocity": 99,
      "chip": "ym2612"
    },
    {
      "channel": 4,
      "note": 87,
      "start": 76.9894,
      "duration": 0.6296,
      "velocity": 97,
      "chip": "ym2612"
    },
    {
      "channel": 5,
      "note": 45,
      "start": 76.991,
      "duration": 0.0741,
      "velocity": 127,
      "chip": "ym2612"
    },
    {
      "channel": 0,
      "note": 59,
      "start": 77.1489,
      "duration": 0.0126,
      "velocity": 127,
      "chip": "ym2612"
    },
    {
      "channel": 0,
      "note": 71,
      "start": 77.3179,
      "duration": 0.037,
      "velocity": 127,
      "chip": "ym2612"
    },
    {
      "channel": 1,
      "note": 59,
      "start": 77.3196,
      "duration": 0.2987,
      "velocity": 99,
      "chip": "ym2612"
    },
    {
      "channel": 2,
      "note": 94,
      "start": 77.3212,
      "duration": 0.2973,
      "velocity": 97,
      "chip": "ym2612"
    },
    {
      "channel": 0,
      "note": 59,
      "start": 77.6507,
      "duration": 0.0502,
      "velocity": 127,
      "chip": "ym2612"
    },
    {
      "channel": 1,
      "note": 56,
      "start": 77.6526,
      "duration": 0.3118,
      "velocity": 99,
      "chip": "ym2612"
    },
    {
      "channel": 2,
      "note": 92,
      "start": 77.6542,
      "duration": 1.3072,
      "velocity": 97,
      "chip": "ym2612"
    },
    {
      "channel": 3,
      "note": 80,
      "start": 77.6557,
      "duration": 1.3059,
      "velocity": 101,
      "chip": "ym2612"
    },
    {
      "channel": 4,
      "note": 94,
      "start": 77.6573,
      "duration": 0.3075,
      "velocity": 97,
      "chip": "ym2612"
    },
    {
      "channel": 5,
      "note": 45,
      "start": 77.6591,
      "duration": 0.0844,
      "velocity": 127,
      "chip": "ym2612"
    },
    {
      "channel": 0,
      "note": 71,
      "start": 77.9963,
      "duration": 0.0369,
      "velocity": 127,
      "chip": "ym2612"
    },
    {
      "channel": 1,
      "note": 56,
      "start": 77.9979,
      "duration": 0.2987,
      "velocity": 99,
      "chip": "ym2612"
    },
    {
      "channel": 4,
      "note": 92,
      "start": 77.9998,
      "duration": 1.294,
      "velocity": 97,
      "chip": "ym2612"
    },
    {
      "channel": 0,
      "note": 59,
      "start": 78.3285,
      "duration": 0.0097,
      "velocity": 127,
      "chip": "ym2612"
    },
    {
      "channel": 1,
      "note": 56,
      "start": 78.3302,
      "duration": 0.2987,
      "velocity": 99,
      "chip": "ym2612"
    },
    {
      "channel": 5,
      "note": 45,
      "start": 78.3321,
      "duration": 0.0758,
      "velocity": 127,
      "chip": "ym2612"
    },
    {
      "channel": 0,
      "note": 59,
      "start": 78.4918,
      "duration": 0.0126,
      "velocity": 127,
      "chip": "ym2612"
    },
    {
      "channel": 0,
      "note": 71,
      "start": 78.6608,
      "duration": 0.037,
      "velocity": 127,
      "chip": "ym2612"
    },
    {
      "channel": 1,
      "note": 56,
      "start": 78.6624,
      "duration": 0.2987,
      "velocity": 99,
      "chip": "ym2612"
    },
    {
      "channel": 0,
      "note": 59,
      "start": 78.9934,
      "duration": 0.0366,
      "velocity": 127,
      "chip": "ym2612"
    },
    {
      "channel": 1,
      "note": 56,
      "start": 78.9951,
      "duration": 0.2983,
      "velocity": 99,
      "chip": "ym2612"
    },
    {
      "channel": 2,
      "note": 89,
      "start": 78.9967,
      "duration": 0.6293,
      "velocity": 97,
      "chip": "ym2612"
    },
    {
      "channel": 3,
      "note": 80,
      "start": 78.9982,
      "duration": 1.2924,
      "velocity": 101,
      "chip": "ym2612"
    },
    {
      "channel": 5,
      "note": 45,
      "start": 79.0,
      "duration": 0.0724,
      "velocity": 127,
      "chip": "ym2612"
    },
    {
      "channel": 0,
      "note": 71,
      "start": 79.3253,
      "duration": 0.037,
      "velocity": 127,
      "chip": "ym2612"
    },
    {
      "channel": 1,
      "note": 56,
      "start": 79.327,
      "duration": 0.2988,
      "velocity": 99,
      "chip": "ym2612"
    },
    {
      "channel": 4,
      "note": 89,
      "start": 79.3288,
      "duration": 0.6296,
      "velocity": 97,
      "chip": "ym2612"
    },
    {
      "channel": 0,
      "note": 59,
      "start": 79.6581,
      "duration": 0.0091,
      "velocity": 127,
      "chip": "ym2612"
    },
    {
      "channel": 1,
      "note": 56,
      "start": 79.6598,
      "duration": 0.2981,
      "velocity": 99,
      "chip": "ym2612"
    },
    {
      "channel": 2,
      "note": 92,
      "start": 79.6614,
      "duration": 0.629,
      "velocity": 97,
      "chip": "ym2612"
    },
    {
      "channel": 5,
      "note": 45,
      "start": 79.6632,
      "duration": 0.0738,
      "velocity": 127,
      "chip": "ym2612"
    },
    {
      "channel": 0,
      "note": 59,
      "start": 79.8208,
      "duration": 0.0126,
      "velocity": 127,
      "chip": "ym2612"
    },
    {
      "channel": 0,
      "note": 71,
      "start": 79.9898,
      "duration": 0.037,
      "velocity": 127,
      "chip": "ym2612"
    },
    {
      "channel": 1,
      "note": 56,
      "start": 79.9915,
      "duration": 0.2987,
      "velocity": 99,
      "chip": "ym2612"
    },
    {
      "channel": 4,
      "note": 92,
      "start": 79.9933,
      "duration": 0.6296,
      "velocity": 97,
      "chip": "ym2612"
    },
    {
      "channel": 0,
      "note": 59,
      "start": 80.3222,
      "duration": 0.0368,
      "velocity": 127,
      "chip": "ym2612"
    },
    {
      "channel": 1,
      "note": 54,
      "start": 80.324,
      "duration": 0.2985,
      "velocity": 99,
      "chip": "ym2612"
    },
    {
      "channel": 2,
      "note": 90,
      "start": 80.3256,
      "duration": 0.9616,
      "velocity": 97,
      "chip": "ym2612"
    },
    {
      "channel": 3,
      "note": 78,
      "start": 80.3271,
      "duration": 1.2925,
      "velocity": 101,
      "chip": "ym2612"
    },
    {
      "channel": 5,
      "note": 45,
      "start": 80.329,
      "duration": 0.0725,
      "velocity": 127,
      "chip": "ym2612"
    },
    {
      "channel": 0,
      "note": 71,
      "start": 80.6543,
      "duration": 0.037,
      "velocity": 127,
      "chip": "ym2612"
    },
    {
      "channel": 1,
      "note": 54,
      "start": 80.656,
      "duration": 0.2988,
      "velocity": 99,
      "chip": "ym2612"
    },
    {
      "channel": 4,
      "note": 90,
      "start": 80.6578,
      "duration": 0.962,
      "velocity": 97,
      "chip": "ym2612"
    },
    {
      "channel": 0,
      "note": 59,
      "start": 80.9866,
      "duration": 0.0099,
      "velocity": 127,
      "chip": "ym2612"
    },
    {
      "channel": 1,
      "note": 54,
      "start": 80.9883,
      "duration": 0.2987,
      "velocity": 99,
      "chip": "ym2612"
    },
    {
      "channel": 5,
      "note": 45,
      "start": 80.9901,
      "duration": 0.0758,
      "velocity": 127,
      "chip": "ym2612"
    },
    {
      "channel": 0,
      "note": 59,
      "start": 81.1498,
      "duration": 0.0126,
      "velocity": 127,
      "chip": "ym2612"
    },
    {
      "channel": 0,
      "note": 71,
      "start": 81.3188,
      "duration": 0.037,
      "velocity": 127,
      "chip": "ym2612"
    },
    {
      "channel": 1,
      "note": 54,
      "start": 81.3205,
      "duration": 0.2987,
      "velocity": 99,
      "chip": "ym2612"
    },
    {
      "channel": 2,
      "note": 92,
      "start": 81.3221,
      "duration": 0.1311,
      "velocity": 97,
      "chip": "ym2612"
    },
    {
      "channel": 2,
      "note": 90,
      "start": 81.4822,
      "duration": 0.1372,
      "velocity": 97,
      "chip": "ym2612"
    },
    {
      "channel": 0,
      "note": 59,
      "start": 81.6512,
      "duration": 0.0507,
      "velocity": 127,
      "chip": "ym2612"
    },
    {
      "channel": 1,
      "note": 54,
      "start": 81.6529,
      "duration": 0.3124,
      "velocity": 99,
      "chip": "ym2612"
    },
    {
      "channel": 2,
      "note": 89,
      "start": 81.6545,
      "duration": 0.6433,
      "velocity": 97,
      "chip": "ym2612"
    },
    {
      "channel": 3,
      "note": 78,
      "start": 81.656,
      "duration": 1.3064,
      "velocity": 101,
      "chip": "ym2612"
    },
    {
      "channel": 4,
      "note": 92,
      "start": 81.6576,
      "duration": 0.1419,
      "velocity": 97,
      "chip": "ym2612"
    },
    {
      "channel": 5,
      "note": 45,
      "start": 81.6593,
      "duration": 0.085,
      "velocity": 127,
      "chip": "ym2612"
    },
    {
      "channel": 4,
      "note": 90,
      "start": 81.8285,
      "duration": 0.1371,
      "velocity": 97,
      "chip": "ym2612"
    },
    {
      "channel": 0,
      "note": 71,
      "start": 81.9972,
      "duration": 0.037,
      "velocity": 127,
      "chip": "ym2612"
    },
    {
      "channel": 1,
      "note": 54,
      "start": 81.9988,
      "duration": 0.2987,
      "velocity": 99,
      "chip": "ym2612"
    },
    {
      "channel": 4,
      "note": 89,
      "start": 82.0007,
      "duration": 0.6295,
      "velocity": 97,
      "chip": "ym2612"
    },
    {
      "channel": 0,
      "note": 59,
      "start": 82.3294,
      "duration": 0.0097,
      "velocity": 127,
      "chip": "ym2612"
    },
    {
      "channel": 1,
      "note": 54,
      "start": 82.3311,
      "duration": 0.2987,
      "velocity": 99,
      "chip": "ym2612"
    },
    {
      "channel": 2,
      "note": 85,
      "start": 82.3327,
      "duration": 0.6296,
      "velocity": 97,
      "chip": "ym2612"
    },
    {
      "channel": 5,
      "note": 45,
      "start": 82.3345,
      "duration": 0.0744,
      "velocity": 127,
      "chip": "ym2612"
    },
    {
      "channel": 0,
      "note": 59,
      "start": 82.4927,
      "duration": 0.0126,
      "velocity": 127,
      "chip": "ym2612"
    },
    {
      "channel": 0,
      "note": 71,
      "start": 82.6617,
      "duration": 0.037,
      "velocity": 127,
      "chip": "ym2612"
    },
    {
      "channel": 1,
      "note": 54,
      "start": 82.6633,
      "duration": 0.2987,
      "velocity": 99,
      "chip": "ym2612"
    },
    {
      "channel": 4,
      "note": 85,
      "start": 82.6651,
      "duration": 0.6296,
      "velocity": 97,
      "chip": "ym2612"
    },
    {
      "channel": 0,
      "note": 59,
      "start": 82.9941,
      "duration": 0.0368,
      "velocity": 127,
      "chip": "ym2612"
    },
    {
      "channel": 1,
      "note": 53,
      "start": 82.9959,
      "duration": 0.2984,
      "velocity": 99,
      "chip": "ym2612"
    },
    {
      "channel": 2,
      "note": 87,
      "start": 82.9975,
      "duration": 1.2938,
      "velocity": 97,
      "chip": "ym2612"
    },
    {
      "channel": 3,
      "note": 77,
      "start": 82.999,
      "duration": 1.2924,
      "velocity": 101,
      "chip": "ym2612"
    },
    {
      "channel": 5,
      "note": 45,
      "start": 83.0009,
      "duration": 0.0724,
      "velocity": 127,
      "chip": "ym2612"
    },
    {
      "channel": 0,
      "note": 71,
      "start": 83.3262,
      "duration": 0.037,
      "velocity": 127,
      "chip": "ym2612"
    },
    {
      "channel": 1,
      "note": 53,
      "start": 83.3278,
      "duration": 0.2987,
      "velocity": 99,
      "chip": "ym2612"
    },
    {
      "channel": 4,
      "note": 87,
      "start": 83.3297,
      "duration": 1.294,
      "velocity": 97,
      "chip": "ym2612"
    },
    {
      "channel": 0,
      "note": 59,
      "start": 83.6584,
      "duration": 0.0102,
      "velocity": 127,
      "chip": "ym2612"
    },
    {
      "channel": 1,
      "note": 53,
      "start": 83.6601,
      "duration": 0.2987,
      "velocity": 99,
      "chip": "ym2612"
    },
    {
      "channel": 5,
      "note": 45,
      "start": 83.662,
      "duration": 0.0758,
      "velocity": 127,
      "chip": "ym2612"
    },
    {
      "channel": 0,
      "note": 59,
      "start": 83.8217,
      "duration": 0.0126,
      "velocity": 127,
      "chip": "ym2612"
    },
    {
      "channel": 0,
      "note": 71,
      "start": 83.9907,
      "duration": 0.037,
      "velocity": 127,
      "chip": "ym2612"
    },
    {
      "channel": 1,
      "note": 53,
      "start": 83.9924,
      "duration": 0.2987,
      "velocity": 99,
      "chip": "ym2612"
    },
    {
      "channel": 0,
      "note": 59,
      "start": 84.3231,
      "duration": 0.0368,
      "velocity": 127,
      "chip": "ym2612"
    },
    {
      "channel": 1,
      "note": 53,
      "start": 84.3248,
      "duration": 0.2985,
      "velocity": 99,
      "chip": "ym2612"
    },
    {
      "channel": 2,
      "note": 85,
      "start": 84.3264,
      "duration": 0.6294,
      "velocity": 97,
      "chip": "ym2612"
    },
    {
      "channel": 3,
      "note": 77,
      "start": 84.3279,
      "duration": 1.2926,
      "velocity": 101,
      "chip": "ym2612"
    },
    {
      "channel": 5,
      "note": 45,
      "start": 84.3298,
      "duration": 0.0726,
      "velocity": 127,
      "chip": "ym2612"
    },
    {
      "channel": 0,
      "note": 71,
      "start": 84.6552,
      "duration": 0.037,
      "velocity": 127,
      "chip": "ym2612"
    },
    {
      "channel": 1,
      "note": 53,
      "start": 84.6568,
      "duration": 0.2987,
      "velocity": 99,
      "chip": "ym2612"
    },
    {
      "channel": 4,
      "note": 85,
      "start": 84.6587,
      "duration": 0.6296,
      "velocity": 97,
      "chip": "ym2612"
    },
    {
      "channel": 0,
      "note": 59,
      "start": 84.9875,
      "duration": 0.0097,
      "velocity": 127,
      "chip": "ym2612"
    },
    {
      "channel": 1,
      "note": 53,
      "start": 84.9892,
      "duration": 0.2987,
      "velocity": 99,
      "chip": "ym2612"
    },
    {
      "channel": 2,
      "note": 90,
      "start": 84.9907,
      "duration": 0.6296,
      "velocity": 97,
      "chip": "ym2612"
    },
    {
      "channel": 5,
      "note": 45,
      "start": 84.9925,
      "duration": 0.0744,
      "velocity": 127,
      "chip": "ym2612"
    },
    {
      "channel": 0,
      "note": 59,
      "start": 85.1507,
      "duration": 0.0126,
      "velocity": 127,
      "chip": "ym2612"
    },
    {
      "channel": 0,
      "note": 71,
      "start": 85.3197,
      "duration": 0.037,
      "velocity": 127,
      "chip": "ym2612"
    },
    {
      "channel": 1,
      "note": 53,
      "start": 85.3214,
      "duration": 0.2987,
      "velocity": 99,
      "chip": "ym2612"
    },
    {
      "channel": 4,
      "note": 90,
      "start": 85.3232,
      "duration": 0.6434,
      "velocity": 97,
      "chip": "ym2612"
    },
    {
      "channel": 0,
      "note": 59,
      "start": 85.6525,
      "duration": 0.0503,
      "velocity": 127,
      "chip": "ym2612"
    },
    {
      "channel": 1,
      "note": 51,
      "start": 85.6546,
      "duration": 0.3116,
      "velocity": 99,
      "chip": "ym2612"
    },
    {
      "channel": 2,
      "note": 87,
      "start": 85.6565,
      "duration": 5.3353,
      "velocity": 97,
      "chip": "ym2612"
    },
    {
      "channel": 3,
      "note": 75,
      "start": 85.6584,
      "duration": 5.3336,
      "velocity": 101,
      "chip": "ym2612"
    },
    {
      "channel": 5,
      "note": 45,
      "start": 85.6606,
      "duration": 0.0428,
      "velocity": 127,
      "chip": "ym2612"
    },
    {
      "channel": 0,
      "note": 71,
      "start": 85.9981,
      "duration": 0.037,
      "velocity": 127,
      "chip": "ym2612"
    },
    {
      "channel": 1,
      "note": 51,
      "start": 85.9997,
      "duration": 0.2987,
      "velocity": 99,
      "chip": "ym2612"
    },
    {
      "channel": 4,
      "note": 87,
      "start": 86.0018,
      "duration": 5.3507,
      "velocity": 97,
      "chip": "ym2612"
    },
    {
      "channel": 5,
      "note": 45,
      "start": 86.0038,
      "duration": 0.0319,
      "velocity": 127,
      "chip": "ym2612"
    },
    {
      "channel": 0,
      "note": 59,
      "start": 86.3303,
      "duration": 0.0097,
      "velocity": 127,
      "chip": "ym2612"
    },
    {
      "channel": 1,
      "note": 51,
      "start": 86.332,
      "duration": 0.2987,
      "velocity": 99,
      "chip": "ym2612"
    },
    {
      "channel": 5,
      "note": 45,
      "start": 86.3345,
      "duration": 0.0337,
      "velocity": 127,
      "chip": "ym2612"
    },
    {
      "channel": 0,
      "note": 59,
      "start": 86.4936,
      "duration": 0.0126,
      "velocity": 127,
      "chip": "ym2612"
    },
    {
      "channel": 0,
      "note": 71,
      "start": 86.6626,
      "duration": 0.037,
      "velocity": 127,
      "chip": "ym2612"
    },
    {
      "channel": 1,
      "note": 51,
      "start": 86.6643,
      "duration": 0.2987,
      "velocity": 99,
      "chip": "ym2612"
    },
    {
      "channel": 5,
      "note": 45,
      "start": 86.6665,
      "duration": 0.0337,
      "velocity": 127,
      "chip": "ym2612"
    },
    {
      "channel": 0,
      "note": 59,
      "start": 86.995,
      "duration": 0.0507,
      "velocity": 127,
      "chip": "ym2612"
    },
    {
      "channel": 1,
      "note": 51,
      "start": 86.9967,
      "duration": 0.3124,
      "velocity": 99,
      "chip": "ym2612"
    },
    {
      "channel": 5,
      "note": 45,
      "start": 87.002,
      "duration": 0.0444,
      "velocity": 127,
      "chip": "ym2612"
    },
    {
      "channel": 0,
      "note": 71,
      "start": 87.3409,
      "duration": 0.037,
      "velocity": 127,
      "chip": "ym2612"
    },
    {
      "channel": 1,
      "note": 51,
      "start": 87.3425,
      "duration": 0.2988,
      "velocity": 99,
      "chip": "ym2612"
    },
    {
      "channel": 5,
      "note": 45,
      "start": 87.3462,
      "duration": 0.0323,
      "velocity": 127,
      "chip": "ym2612"
    },
    {
      "channel": 0,
      "note": 59,
      "start": 87.6732,
      "duration": 0.0107,
      "velocity": 127,
      "chip": "ym2612"
    },
    {
      "channel": 1,
      "note": 51,
      "start": 87.6749,
      "duration": 0.2987,
      "velocity": 99,
      "chip": "ym2612"
    },
    {
      "channel": 5,
      "note": 45,
      "start": 87.6773,
      "duration": 0.0337,
      "velocity": 127,
      "chip": "ym2612"
    },
    {
      "channel": 0,
      "note": 59,
      "start": 87.8364,
      "duration": 0.0127,
      "velocity": 127,
      "chip": "ym2612"
    },
    {
      "channel": 0,
      "note": 71,
      "start": 88.0055,
      "duration": 0.0369,
      "velocity": 127,
      "chip": "ym2612"
    },
    {
      "channel": 1,
      "note": 51,
      "start": 88.0071,
      "duration": 0.2987,
      "velocity": 99,
      "chip": "ym2612"
    },
    {
      "channel": 5,
      "note": 45,
      "start": 88.0094,
      "duration": 0.0337,
      "velocity": 127,
      "chip": "ym2612"
    },
    {
      "channel": 0,
      "note": 71,
      "start": 88.338,
      "duration": 0.0234,
      "velocity": 127,
      "chip": "ym2612"
    },
    {
      "channel": 1,
      "note": 51,
      "start": 88.3396,
      "duration": 0.3123,
      "velocity": 99,
      "chip": "ym2612"
    },
    {
      "channel": 5,
      "note": 45,
      "start": 88.3448,
      "duration": 0.045,
      "velocity": 127,
      "chip": "ym2612"
    },
    {
      "channel": 0,
      "note": 59,
      "start": 88.5177,
      "duration": 0.0097,
      "velocity": 127,
      "chip": "ym2612"
    },
    {
      "channel": 0,
      "note": 71,
      "start": 88.6839,
      "duration": 0.0096,
      "velocity": 127,
      "chip": "ym2612"
    },
    {
      "channel": 1,
      "note": 51,
      "start": 88.6856,
      "duration": 0.2986,
      "velocity": 99,
      "chip": "ym2612"
    },
    {
      "channel": 5,
      "note": 45,
      "start": 88.6897,
      "duration": 0.0324,
      "velocity": 127,
      "chip": "ym2612"
    },
    {
      "channel": 0,
      "note": 59,
      "start": 88.8499,
      "duration": 0.0097,
      "velocity": 127,
      "chip": "ym2612"
    },
    {
      "channel": 0,
      "note": 71,
      "start": 89.0162,
      "duration": 0.0099,
      "velocity": 127,
      "chip": "ym2612"
    },
    {
      "channel": 1,
      "note": 51,
      "start": 89.0179,
      "duration": 0.2986,
      "velocity": 99,
      "chip": "ym2612"
    },
    {
      "channel": 5,
      "note": 45,
      "start": 89.0207,
      "duration": 0.0337,
      "velocity": 127,
      "chip": "ym2612"
    },
    {
      "channel": 0,
      "note": 59,
      "start": 89.1822,
      "duration": 0.0097,
      "velocity": 127,
      "chip": "ym2612"
    },
    {
      "channel": 0,
      "note": 71,
      "start": 89.3485,
      "duration": 0.0095,
      "velocity": 127,
      "chip": "ym2612"
    },
    {
      "channel": 1,
      "note": 51,
      "start": 89.3501,
      "duration": 0.2986,
      "velocity": 99,
      "chip": "ym2612"
    },
    {
      "channel": 5,
      "note": 45,
      "start": 89.3529,
      "duration": 0.0338,
      "velocity": 127,
      "chip": "ym2612"
    },
    {
      "channel": 0,
      "note": 59,
      "start": 89.5144,
      "duration": 0.0097,
      "velocity": 127,
      "chip": "ym2612"
    },
    {
      "channel": 0,
      "note": 71,
      "start": 89.6807,
      "duration": 0.0234,
      "velocity": 127,
      "chip": "ym2612"
    },
    {
      "channel": 1,
      "note": 51,
      "start": 89.6824,
      "duration": 0.3124,
      "velocity": 99,
      "chip": "ym2612"
    },
    {
      "channel": 5,
      "note": 45,
      "start": 89.6883,
      "duration": 0.0174,
      "velocity": 127,
      "chip": "ym2612"
    },
    {
      "channel": 0,
      "note": 59,
      "start": 89.8605,
      "duration": 0.0098,
      "velocity": 127,
      "chip": "ym2612"
    },
    {
      "channel": 5,
      "note": 45,
      "start": 89.863,
      "duration": 0.0084,
      "velocity": 127,
      "chip": "ym2612"
    },
    {
      "channel": 0,
      "note": 71,
      "start": 90.0268,
      "duration": 0.0095,
      "velocity": 127,
      "chip": "ym2612"
    },
    {
      "channel": 1,
      "note": 51,
      "start": 90.0285,
      "duration": 0.2986,
      "velocity": 99,
      "chip": "ym2612"
    },
    {
      "channel": 5,
      "note": 45,
      "start": 90.0323,
      "duration": 0.0052,
      "velocity": 127,
      "chip": "ym2612"
    },
    {
      "channel": 0,
      "note": 59,
      "start": 90.1927,
      "duration": 0.0098,
      "velocity": 127,
      "chip": "ym2612"
    },
    {
      "channel": 5,
      "note": 45,
      "start": 90.1953,
      "duration": 0.0083,
      "velocity": 127,
      "chip": "ym2612"
    },
    {
      "channel": 0,
      "note": 59,
      "start": 90.359,
      "duration": 0.0097,
      "velocity": 127,
      "chip": "ym2612"
    },
    {
      "channel": 1,
      "note": 51,
      "start": 90.3607,
      "duration": 0.2987,
      "velocity": 99,
      "chip": "ym2612"
    },
    {
      "channel": 5,
      "note": 45,
      "start": 90.3632,
      "duration": 0.0067,
      "velocity": 127,
      "chip": "ym2612"
    },
    {
      "channel": 0,
      "note": 71,
      "start": 90.525,
      "duration": 0.0097,
      "velocity": 127,
      "chip": "ym2612"
    },
    {
      "channel": 5,
      "note": 45,
      "start": 90.5275,
      "duration": 0.0083,
      "velocity": 127,
      "chip": "ym2612"
    },
    {
      "channel": 0,
      "note": 71,
      "start": 90.6883,
      "duration": 0.0125,
      "velocity": 127,
      "chip": "ym2612"
    },
    {
      "channel": 1,
      "note": 51,
      "start": 90.6899,
      "duration": 0.3017,
      "velocity": 99,
      "chip": "ym2612"
    },
    {
      "channel": 5,
      "note": 45,
      "start": 90.6924,
      "duration": 0.0095,
      "velocity": 127,
      "chip": "ym2612"
    },
    {
      "channel": 0,
      "note": 71,
      "start": 90.8544,
      "duration": 0.0126,
      "velocity": 127,
      "chip": "ym2612"
    },
    {
      "channel": 5,
      "note": 45,
      "start": 90.8569,
      "duration": 0.0112,
      "velocity": 127,
      "chip": "ym2612"
    },
    {
      "channel": 0,
      "note": 59,
      "start": 91.0244,
      "duration": 0.0637,
      "velocity": 127,
      "chip": "ym2612"
    },
    {
      "channel": 1,
      "note": 51,
      "start": 91.0297,
      "duration": 0.1557,
      "velocity": 99,
      "chip": "ym2612"
    },
    {
      "channel": 2,
      "note": 75,
      "start": 91.035,
      "duration": 0.8608,
      "velocity": 98,
      "chip": "ym2612"
    },
    {
      "channel": 3,
      "note": 87,
      "start": 91.0407,
      "duration": 0.855,
      "velocity": 101,
      "chip": "ym2612"
    },
    {
      "channel": 5,
      "note": 47,
      "start": 91.0471,
      "duration": 0.0422,
      "velocity": 127,
      "chip": "ym2612"
    },
    {
      "channel": 1,
      "note": 51,
      "start": 91.2144,
      "duration": 0.1372,
      "velocity": 99,
      "chip": "ym2612"
    },
    {
      "channel": 0,
      "note": 71,
      "start": 91.3833,
      "duration": 0.0508,
      "velocity": 127,
      "chip": "ym2612"
    },
    {
      "channel": 1,
      "note": 51,
      "start": 91.3849,
      "duration": 0.1466,
      "velocity": 99,
      "chip": "ym2612"
    },
    {
      "channel": 4,
      "note": 75,
      "start": 91.3926,
      "duration": 0.5031,
      "velocity": 98,
      "chip": "ym2612"
    },
    {
      "channel": 5,
      "note": 59,
      "start": 91.3946,
      "duration": 0.0408,
      "velocity": 127,
      "chip": "ym2612"
    },
    {
      "channel": 1,
      "note": 54,
      "start": 91.5605,
      "duration": 0.1378,
      "velocity": 99,
      "chip": "ym2612"
    },
    {
      "channel": 0,
      "note": 59,
      "start": 91.7294,
      "duration": 0.0097,
      "velocity": 127,
      "chip": "ym2612"
    },
    {
      "channel": 1,
      "note": 51,
      "start": 91.731,
      "duration": 0.1328,
      "velocity": 99,
      "chip": "ym2612"
    },
    {
      "channel": 5,
      "note": 47,
      "start": 91.7354,
      "duration": 0.0059,
      "velocity": 127,
      "chip": "ym2612"
    },
    {
      "channel": 0,
      "note": 71,
      "start": 91.8956,
      "duration": 0.0001,
      "velocity": 127,
      "chip": "ym2612"
    }
  ]
}