{
  "track_name": "02 - E War 1",
  "duration_sec": 71.486,
  "sample_rate": 44100,
  "note_count": 1225,
  "unique_pitches": 41,
  "pitch_range": 50,
  "avg_note_duration": 0.214,
  "reconstruction_stats": {
    "notes_reconstructed": 1225,
    "keyon_events": 1225,
    "keyoff_events": 1222,
    "orphan_keyons": 3,
    "unique_pitches": 41,
    "pitch_range": 50,
    "avg_duration_sec": 0.214
  },
  "metadata": {
    "source": "K\\Kishi Densetsu\\02 - E War 1.vgz"
  },
  "notes": [
    {
      "channel": 0,
      "note": 54,
      "start": 0.285,
      "duration": 0.1621,
      "velocity": 98,
      "chip": "ym2612"
    },
    {
      "channel": 1,
      "note": 80,
      "start": 0.2893,
      "duration": 0.1863,
      "velocity": 62,
      "chip": "ym2612"
    },
    {
      "channel": 2,
      "note": 73,
      "start": 0.2937,
      "duration": 0.0365,
      "velocity": 99,
      "chip": "ym2612"
    },
    {
      "channel": 3,
      "note": 47,
      "start": 0.2996,
      "duration": 0.0001,
      "velocity": 127,
      "chip": "ym2612"
    },
    {
      "channel": 3,
      "note": 49,
      "start": 0.3066,
      "duration": 0.1003,
      "velocity": 127,
      "chip": "ym2612"
    },
    {
      "channel": 2,
      "note": 85,
      "start": 0.3327,
      "duration": 0.013,
      "velocity": 99,
      "chip": "ym2612"
    },
    {
      "channel": 4,
      "note": 90,
      "start": 0.3389,
      "duration": 0.2548,
      "velocity": 62,
      "chip": "ym2612"
    },
    {
      "channel": 2,
      "note": 85,
      "start": 0.3484,
      "duration": 0.0073,
      "velocity": 99,
      "chip": "ym2612"
    },
    {
      "channel": 2,
      "note": 85,
      "start": 0.3659,
      "duration": 0.0613,
      "velocity": 99,
      "chip": "ym2612"
    },
    {
      "channel": 3,
      "note": 47,
      "start": 0.4278,
      "duration": 0.0001,
      "velocity": 127,
      "chip": "ym2612"
    },
    {
      "channel": 0,
      "note": 54,
      "start": 0.4473,
      "duration": 0.1656,
      "velocity": 98,
      "chip": "ym2612"
    },
    {
      "channel": 2,
      "note": 85,
      "start": 0.4481,
      "duration": 0.0127,
      "velocity": 99,
      "chip": "ym2612"
    },
    {
      "channel": 3,
      "note": 49,
      "start": 0.4487,
      "duration": 0.0427,
      "velocity": 127,
      "chip": "ym2612"
    },
    {
      "channel": 2,
      "note": 73,
      "start": 0.4635,
      "duration": 0.0124,
      "velocity": 99,
      "chip": "ym2612"
    },
    {
      "channel": 2,
      "note": 78,
      "start": 0.4787,
      "duration": 0.0123,
      "velocity": 99,
      "chip": "ym2612"
    },
    {
      "channel": 1,
      "note": 78,
      "start": 0.4936,
      "duration": 0.0992,
      "velocity": 62,
      "chip": "ym2612"
    },
    {
      "channel": 2,
      "note": 81,
      "start": 0.4941,
      "duration": 0.099,
      "velocity": 99,
      "chip": "ym2612"
    },
    {
      "channel": 3,
      "note": 47,
      "start": 0.4971,
      "duration": 0.0143,
      "velocity": 127,
      "chip": "ym2612"
    },
    {
      "channel": 3,
      "note": 47,
      "start": 0.5321,
      "duration": 0.0203,
      "velocity": 127,
      "chip": "ym2612"
    },
    {
      "channel": 3,
      "note": 47,
      "start": 0.573,
      "duration": 0.0203,
      "velocity": 127,
      "chip": "ym2612"
    },
    {
      "channel": 0,
      "note": 54,
      "start": 0.6132,
      "duration": 0.0347,
      "velocity": 98,
      "chip": "ym2612"
    },
    {
      "channel": 1,
      "note": 78,
      "start": 0.6138,
      "duration": 0.3112,
      "velocity": 62,
      "chip": "ym2612"
    },
    {
      "channel": 2,
      "note": 85,
      "start": 0.6142,
      "duration": 0.3111,
      "velocity": 99,
      "chip": "ym2612"
    },
    {
      "channel": 3,
      "note": 47,
      "start": 0.6173,
      "duration": 0.013,
      "velocity": 127,
      "chip": "ym2612"
    },
    {
      "channel": 3,
      "note": 47,
      "start": 0.633,
      "duration": 0.0131,
      "velocity": 127,
      "chip": "ym2612"
    },
    {
      "channel": 4,
      "note": 80,
      "start": 0.6337,
      "duration": 0.0127,
      "velocity": 62,
      "chip": "ym2612"
    },
    {
      "channel": 0,
      "note": 49,
      "start": 0.6482,
      "duration": 0.1309,
      "velocity": 98,
      "chip": "ym2612"
    },
    {
      "channel": 3,
      "note": 47,
      "start": 0.6493,
      "duration": 0.0131,
      "velocity": 127,
      "chip": "ym2612"
    },
    {
      "channel": 4,
      "note": 78,
      "start": 0.6499,
      "duration": 0.3302,
      "velocity": 62,
      "chip": "ym2612"
    },
    {
      "channel": 3,
      "note": 47,
      "start": 0.6651,
      "duration": 0.0944,
      "velocity": 127,
      "chip": "ym2612"
    },
    {
      "channel": 0,
      "note": 57,
      "start": 0.7794,
      "duration": 0.0421,
      "velocity": 98,
      "chip": "ym2612"
    },
    {
      "channel": 3,
      "note": 47,
      "start": 0.7805,
      "duration": 0.1451,
      "velocity": 127,
      "chip": "ym2612"
    },
    {
      "channel": 0,
      "note": 56,
      "start": 0.8217,
      "duration": 0.0417,
      "velocity": 98,
      "chip": "ym2612"
    },
    {
      "channel": 0,
      "note": 54,
      "start": 0.8636,
      "duration": 0.0816,
      "velocity": 98,
      "chip": "ym2612"
    },
    {
      "channel": 0,
      "note": 52,
      "start": 0.9455,
      "duration": 0.1659,
      "velocity": 98,
      "chip": "ym2612"
    },
    {
      "channel": 1,
      "note": 78,
      "start": 0.946,
      "duration": 0.194,
      "velocity": 62,
      "chip": "ym2612"
    },
    {
      "channel": 2,
      "note": 71,
      "start": 0.9465,
      "duration": 0.033,
      "velocity": 99,
      "chip": "ym2612"
    },
    {
      "channel": 3,
      "note": 47,
      "start": 0.9523,
      "duration": 0.0001,
      "velocity": 127,
      "chip": "ym2612"
    },
    {
      "channel": 3,
      "note": 49,
      "start": 0.9556,
      "duration": 0.1155,
      "velocity": 127,
      "chip": "ym2612"
    },
    {
      "channel": 2,
      "note": 83,
      "start": 0.9822,
      "duration": 0.0077,
      "velocity": 99,
      "chip": "ym2612"
    },
    {
      "channel": 4,
      "note": 78,
      "start": 0.9831,
      "duration": 0.2749,
      "velocity": 62,
      "chip": "ym2612"
    },
    {
      "channel": 2,
      "note": 83,
      "start": 0.9924,
      "duration": 0.017,
      "velocity": 99,
      "chip": "ym2612"
    },
    {
      "channel": 2,
      "note": 83,
      "start": 1.0301,
      "duration": 0.0613,
      "velocity": 99,
      "chip": "ym2612"
    },
    {
      "channel": 3,
      "note": 47,
      "start": 1.092,
      "duration": 0.0001,
      "velocity": 127,
      "chip": "ym2612"
    },
    {
      "channel": 0,
      "note": 52,
      "start": 1.1116,
      "duration": 0.1656,
      "velocity": 98,
      "chip": "ym2612"
    },
    {
      "channel": 2,
      "note": 83,
      "start": 1.1123,
      "duration": 0.0128,
      "velocity": 99,
      "chip": "ym2612"
    },
    {
      "channel": 3,
      "note": 49,
      "start": 1.1129,
      "duration": 0.0427,
      "velocity": 127,
      "chip": "ym2612"
    },
    {
      "channel": 2,
      "note": 71,
      "start": 1.1278,
      "duration": 0.0124,
      "velocity": 99,
      "chip": "ym2612"
    },
    {
      "channel": 2,
      "note": 76,
      "start": 1.143,
      "duration": 0.0123,
      "velocity": 99,
      "chip": "ym2612"
    },
    {
      "channel": 1,
      "note": 76,
      "start": 1.1579,
      "duration": 0.0991,
      "velocity": 62,
      "chip": "ym2612"
    },
    {
      "channel": 2,
      "note": 80,
      "start": 1.1584,
      "duration": 0.0989,
      "velocity": 99,
      "chip": "ym2612"
    },
    {
      "channel": 3,
      "note": 47,
      "start": 1.1614,
      "duration": 0.0143,
      "velocity": 127,
      "chip": "ym2612"
    },
    {
      "channel": 3,
      "note": 47,
      "start": 1.1963,
      "duration": 0.0202,
      "velocity": 127,
      "chip": "ym2612"
    },
    {
      "channel": 3,
      "note": 47,
      "start": 1.2373,
      "duration": 0.0204,
      "velocity": 127,
      "chip": "ym2612"
    },
    {
      "channel": 0,
      "note": 52,
      "start": 1.2775,
      "duration": 0.0347,
      "velocity": 98,
      "chip": "ym2612"
    },
    {
      "channel": 1,
      "note": 76,
      "start": 1.278,
      "duration": 0.3111,
      "velocity": 62,
      "chip": "ym2612"
    },
    {
      "channel": 2,
      "note": 83,
      "start": 1.2785,
      "duration": 0.311,
      "velocity": 99,
      "chip": "ym2612"
    },
    {
      "channel": 3,
      "note": 47,
      "start": 1.2815,
      "duration": 0.0129,
      "velocity": 127,
      "chip": "ym2612"
    },
    {
      "channel": 3,
      "note": 47,
      "start": 1.2973,
      "duration": 0.013,
      "velocity": 127,
      "chip": "ym2612"
    },
    {
      "channel": 4,
      "note": 78,
      "start": 1.2979,
      "duration": 0.0128,
      "velocity": 62,
      "chip": "ym2612"
    },
    {
      "channel": 0,
      "note": 47,
      "start": 1.3124,
      "duration": 0.1309,
      "velocity": 98,
      "chip": "ym2612"
    },
    {
      "channel": 3,
      "note": 47,
      "start": 1.3134,
      "duration": 0.0132,
      "velocity": 127,
      "chip": "ym2612"
    },
    {
      "channel": 4,
      "note": 76,
      "start": 1.3141,
      "duration": 0.3306,
      "velocity": 62,
      "chip": "ym2612"
    },
    {
      "channel": 3,
      "note": 47,
      "start": 1.3293,
      "duration": 0.0944,
      "velocity": 127,
      "chip": "ym2612"
    },
    {
      "channel": 0,
      "note": 56,
      "start": 1.4436,
      "duration": 0.0421,
      "velocity": 98,
      "chip": "ym2612"
    },
    {
      "channel": 3,
      "note": 47,
      "start": 1.4447,
      "duration": 0.1451,
      "velocity": 127,
      "chip": "ym2612"
    },
    {
      "channel": 0,
      "note": 54,
      "start": 1.4859,
      "duration": 0.0416,
      "velocity": 98,
      "chip": "ym2612"
    },
    {
      "channel": 0,
      "note": 52,
      "start": 1.5277,
      "duration": 0.0816,
      "velocity": 98,
      "chip": "ym2612"
    },
    {
      "channel": 0,
      "note": 51,
      "start": 1.6096,
      "duration": 0.0367,
      "velocity": 98,
      "chip": "ym2612"
    },
    {
      "channel": 1,
      "note": 78,
      "start": 1.6102,
      "duration": 0.1938,
      "velocity": 62,
      "chip": "ym2612"
    },
    {
      "channel": 2,
      "note": 71,
      "start": 1.6107,
      "duration": 0.3107,
      "velocity": 99,
      "chip": "ym2612"
    },
    {
      "channel": 3,
      "note": 47,
      "start": 1.6165,
      "duration": 0.0001,
      "velocity": 127,
      "chip": "ym2612"
    },
    {
      "channel": 3,
      "note": 49,
      "start": 1.62,
      "duration": 0.1151,
      "velocity": 127,
      "chip": "ym2612"
    },
    {
      "channel": 0,
      "note": 49,
      "start": 1.6465,
      "duration": 0.1289,
      "velocity": 98,
      "chip": "ym2612"
    },
    {
      "channel": 4,
      "note": 76,
      "start": 1.6478,
      "duration": 0.2743,
      "velocity": 62,
      "chip": "ym2612"
    },
    {
      "channel": 3,
      "note": 47,
      "start": 1.7559,
      "duration": 0.0001,
      "velocity": 127,
      "chip": "ym2612"
    },
    {
      "channel": 0,
      "note": 47,
      "start": 1.7756,
      "duration": 0.0308,
      "velocity": 98,
      "chip": "ym2612"
    },
    {
      "channel": 3,
      "note": 49,
      "start": 1.7768,
      "duration": 0.0435,
      "velocity": 127,
      "chip": "ym2612"
    },
    {
      "channel": 0,
      "note": 46,
      "start": 1.8067,
      "duration": 0.1347,
      "velocity": 98,
      "chip": "ym2612"
    },
    {
      "channel": 1,
      "note": 77,
      "start": 1.8071,
      "duration": 0.0125,
      "velocity": 62,
      "chip": "ym2612"
    },
    {
      "channel": 1,
      "note": 78,
      "start": 1.8224,
      "duration": 0.0987,
      "velocity": 62,
      "chip": "ym2612"
    },
    {
      "channel": 3,
      "note": 47,
      "start": 1.8257,
      "duration": 0.0141,
      "velocity": 127,
      "chip": "ym2612"
    },
    {
      "channel": 3,
      "note": 47,
      "start": 1.8605,
      "duration": 0.0202,
      "velocity": 127,
      "chip": "ym2612"
    },
    {
      "channel": 3,
      "note": 47,
      "start": 1.9015,
      "duration": 0.0202,
      "velocity": 127,
      "chip": "ym2612"
    },
    {
      "channel": 0,
      "note": 47,
      "start": 1.9416,
      "duration": 0.0343,
      "velocity": 98,
      "chip": "ym2612"
    },
    {
      "channel": 1,
      "note": 79,
      "start": 1.9421,
      "duration": 0.0313,
      "velocity": 62,
      "chip": "ym2612"
    },
    {
      "channel": 2,
      "note": 75,
      "start": 1.9426,
      "duration": 0.0311,
      "velocity": 99,
      "chip": "ym2612"
    },
    {
      "channel": 3,
      "note": 47,
      "start": 1.9456,
      "duration": 0.0128,
      "velocity": 127,
      "chip": "ym2612"
    },
    {
      "channel": 4,
      "note": 78,
      "start": 1.9463,
      "duration": 0.0125,
      "velocity": 62,
      "chip": "ym2612"
    },
    {
      "channel": 3,
      "note": 47,
      "start": 1.9613,
      "duration": 0.0127,
      "velocity": 127,
      "chip": "ym2612"
    },
    {
      "channel": 4,
      "note": 77,
      "start": 1.962,
      "duration": 0.0124,
      "velocity": 62,
      "chip": "ym2612"
    },
    {
      "channel": 0,
      "note": 49,
      "start": 1.9762,
      "duration": 0.1312,
      "velocity": 98,
      "chip": "ym2612"
    },
    {
      "channel": 1,
      "note": 80,
      "start": 1.9767,
      "duration": 0.1105,
      "velocity": 62,
      "chip": "ym2612"
    },
    {
      "channel": 2,
      "note": 76,
      "start": 1.9771,
      "duration": 0.1103,
      "velocity": 99,
      "chip": "ym2612"
    },
    {
      "channel": 3,
      "note": 47,
      "start": 1.9778,
      "duration": 0.0126,
      "velocity": 127,
      "chip": "ym2612"
    },
    {
      "channel": 4,
      "note": 78,
      "start": 1.9784,
      "duration": 0.1097,
      "velocity": 62,
      "chip": "ym2612"
    },
    {
      "channel": 3,
      "note": 47,
      "start": 1.9931,
      "duration": 0.0947,
      "velocity": 127,
      "chip": "ym2612"
    },
    {
      "channel": 0,
      "note": 50,
      "start": 2.1077,
      "duration": 0.031,
      "velocity": 98,
      "chip": "ym2612"
    },
    {
      "channel": 1,
      "note": 81,
      "start": 2.1082,
      "duration": 0.0281,
      "velocity": 62,
      "chip": "ym2612"
    },
    {
      "channel": 2,
      "note": 77,
      "start": 2.1087,
      "duration": 0.0278,
      "velocity": 99,
      "chip": "ym2612"
    },
    {
      "channel": 3,
      "note": 47,
      "start": 2.1093,
      "duration": 0.1445,
      "velocity": 127,
      "chip": "ym2612"
    },
    {
      "channel": 4,
      "note": 79,
      "start": 2.11,
      "duration": 0.0272,
      "velocity": 62,
      "chip": "ym2612"
    },
    {
      "channel": 0,
      "note": 51,
      "start": 2.1389,
      "duration": 0.1346,
      "velocity": 98,
      "chip": "ym2612"
    },
    {
      "channel": 1,
      "note": 82,
      "start": 2.1394,
      "duration": 0.1138,
      "velocity": 62,
      "chip": "ym2612"
    },
    {
      "channel": 2,
      "note": 78,
      "start": 2.1398,
      "duration": 0.1137,
      "velocity": 99,
      "chip": "ym2612"
    },
    {
      "channel": 4,
      "note": 80,
      "start": 2.1407,
      "duration": 0.1134,
      "velocity": 62,
      "chip": "ym2612"
    },
    {
      "channel": 0,
      "note": 52,
      "start": 2.2737,
      "duration": 0.0315,
      "velocity": 98,
      "chip": "ym2612"
    },
    {
      "channel": 1,
      "note": 83,
      "start": 2.2742,
      "duration": 0.3113,
      "velocity": 62,
      "chip": "ym2612"
    },
    {
      "channel": 2,
      "note": 80,
      "start": 2.2747,
      "duration": 0.311,
      "velocity": 99,
      "chip": "ym2612"
    },
    {
      "channel": 3,
      "note": 47,
      "start": 2.2754,
      "duration": 0.0001,
      "velocity": 127,
      "chip": "ym2612"
    },
    {
      "channel": 4,
      "note": 81,
      "start": 2.2762,
      "duration": 0.0275,
      "velocity": 62,
      "chip": "ym2612"
    },
    {
      "channel": 3,
      "note": 49,
      "start": 2.2793,
      "duration": 0.1201,
      "velocity": 127,
      "chip": "ym2612"
    },
    {
      "channel": 0,
      "note": 54,
      "start": 2.3054,
      "duration": 0.1342,
      "velocity": 98,
      "chip": "ym2612"
    },
    {
      "channel": 4,
      "note": 82,
      "start": 2.3067,
      "duration": 0.3322,
      "velocity": 62,
      "chip": "ym2612"
    },
    {
      "channel": 3,
      "note": 47,
      "start": 2.4201,
      "duration": 0.0001,
      "velocity": 127,
      "chip": "ym2612"
    },
    {
      "channel": 0,
      "note": 56,
      "start": 2.4399,
      "duration": 0.0308,
      "velocity": 98,
      "chip": "ym2612"
    },
    {
      "channel": 3,
      "note": 49,
      "start": 2.441,
      "duration": 0.0434,
      "velocity": 127,
      "chip": "ym2612"
    },
    {
      "channel": 0,
      "note": 57,
      "start": 2.471,
      "duration": 0.1348,
      "velocity": 98,
      "chip": "ym2612"
    },
    {
      "channel": 3,
      "note": 47,
      "start": 2.4896,
      "duration": 0.0147,
      "velocity": 127,
      "chip": "ym2612"
    },
    {
      "channel": 3,
      "note": 47,
      "start": 2.5249,
      "duration": 0.0202,
      "velocity": 127,
      "chip": "ym2612"
    },
    {
      "channel": 3,
      "note": 47,
      "start": 2.5659,
      "duration": 0.0203,
      "velocity": 127,
      "chip": "ym2612"
    },
    {
      "channel": 0,
      "note": 55,
      "start": 2.606,
      "duration": 0.0239,
      "velocity": 98,
      "chip": "ym2612"
    },
    {
      "channel": 2,
      "note": 71,
      "start": 2.6068,
      "duration": 0.0209,
      "velocity": 99,
      "chip": "ym2612"
    },
    {
      "channel": 3,
      "note": 47,
      "start": 2.6098,
      "duration": 0.0128,
      "velocity": 127,
      "chip": "ym2612"
    },
    {
      "channel": 3,
      "note": 47,
      "start": 2.6253,
      "duration": 0.0132,
      "velocity": 127,
      "chip": "ym2612"
    },
    {
      "channel": 0,
      "note": 53,
      "start": 2.6301,
      "duration": 0.0204,
      "velocity": 98,
      "chip": "ym2612"
    },
    {
      "channel": 2,
      "note": 70,
      "start": 2.6308,
      "duration": 0.0177,
      "velocity": 99,
      "chip": "ym2612"
    },
    {
      "channel": 3,
      "note": 47,
      "start": 2.6413,
      "duration": 0.0131,
      "velocity": 127,
      "chip": "ym2612"
    },
    {
      "channel": 0,
      "note": 52,
      "start": 2.6507,
      "duration": 0.1214,
      "velocity": 98,
      "chip": "ym2612"
    },
    {
      "channel": 2,
      "note": 69,
      "start": 2.6514,
      "duration": 0.1007,
      "velocity": 99,
      "chip": "ym2612"
    },
    {
      "channel": 3,
      "note": 47,
      "start": 2.657,
      "duration": 0.0954,
      "velocity": 127,
      "chip": "ym2612"
    },
    {
      "channel": 0,
      "note": 47,
      "start": 2.7723,
      "duration": 0.0311,
      "velocity": 98,
      "chip": "ym2612"
    },
    {
      "channel": 1,
      "note": 80,
      "start": 2.7728,
      "duration": 0.0591,
      "velocity": 62,
      "chip": "ym2612"
    },
    {
      "channel": 2,
      "note": 76,
      "start": 2.7733,
      "duration": 0.0273,
      "velocity": 99,
      "chip": "ym2612"
    },
    {
      "channel": 3,
      "note": 47,
      "start": 2.7739,
      "duration": 0.0271,
      "velocity": 127,
      "chip": "ym2612"
    },
    {
      "channel": 0,
      "note": 52,
      "start": 2.8036,
      "duration": 0.031,
      "velocity": 98,
      "chip": "ym2612"
    },
    {
      "channel": 2,
      "note": 76,
      "start": 2.8043,
      "duration": 0.0279,
      "velocity": 99,
      "chip": "ym2612"
    },
    {
      "channel": 3,
      "note": 47,
      "start": 2.8049,
      "duration": 0.0276,
      "velocity": 127,
      "chip": "ym2612"
    },
    {
      "channel": 4,
      "note": 83,
      "start": 2.8055,
      "duration": 0.0591,
      "velocity": 62,
      "chip": "ym2612"
    },
    {
      "channel": 0,
      "note": 54,
      "start": 2.8349,
      "duration": 0.1659,
      "velocity": 98,
      "chip": "ym2612"
    },
    {
      "channel": 1,
      "note": 80,
      "start": 2.8355,
      "duration": 0.194,
      "velocity": 62,
      "chip": "ym2612"
    },
    {
      "channel": 2,
      "note": 73,
      "start": 2.836,
      "duration": 0.028,
      "velocity": 99,
      "chip": "ym2612"
    },
    {
      "channel": 3,
      "note": 47,
      "start": 2.8368,
      "duration": 0.0001,
      "velocity": 127,
      "chip": "ym2612"
    },
    {
      "channel": 3,
      "note": 49,
      "start": 2.8406,
      "duration": 0.1199,
      "velocity": 127,
      "chip": "ym2612"
    },
    {
      "channel": 2,
      "note": 85,
      "start": 2.8668,
      "duration": 0.0077,
      "velocity": 99,
      "chip": "ym2612"
    },
    {
      "channel": 4,
      "note": 80,
      "start": 2.8677,
      "duration": 0.2798,
      "velocity": 62,
      "chip": "ym2612"
    },
    {
      "channel": 2,
      "note": 85,
      "start": 2.877,
      "duration": 0.0219,
      "velocity": 99,
      "chip": "ym2612"
    },
    {
      "channel": 2,
      "note": 85,
      "start": 2.9195,
      "duration": 0.0612,
      "velocity": 99,
      "chip": "ym2612"
    },
    {
      "channel": 3,
      "note": 47,
      "start": 2.9813,
      "duration": 0.0001,
      "velocity": 127,
      "chip": "ym2612"
    },
    {
      "channel": 0,
      "note": 54,
      "start": 3.0009,
      "duration": 0.1659,
      "velocity": 98,
      "chip": "ym2612"
    },
    {
      "channel": 2,
      "note": 85,
      "start": 3.0017,
      "duration": 0.0128,
      "velocity": 99,
      "chip": "ym2612"
    },
    {
      "channel": 3,
      "note": 49,
      "start": 3.0023,
      "duration": 0.0427,
      "velocity": 127,
      "chip": "ym2612"
    },
    {
      "channel": 2,
      "note": 73,
      "start": 3.0172,
      "duration": 0.0126,
      "velocity": 99,
      "chip": "ym2612"
    },
    {
      "channel": 2,
      "note": 78,
      "start": 3.0325,
      "duration": 0.0122,
      "velocity": 99,
      "chip": "ym2612"
    },
    {
      "channel": 1,
      "note": 78,
      "start": 3.0472,
      "duration": 0.0994,
      "velocity": 62,
      "chip": "ym2612"
    },
    {
      "channel": 2,
      "note": 81,
      "start": 3.0477,
      "duration": 0.0992,
      "velocity": 99,
      "chip": "ym2612"
    },
    {
      "channel": 3,
      "note": 47,
      "start": 3.0507,
      "duration": 0.0145,
      "velocity": 127,
      "chip": "ym2612"
    },
    {
      "channel": 3,
      "note": 47,
      "start": 3.0859,
      "duration": 0.0202,
      "velocity": 127,
      "chip": "ym2612"
    },
    {
      "channel": 3,
      "note": 47,
      "start": 3.1268,
      "duration": 0.0203,
      "velocity": 127,
      "chip": "ym2612"
    },
    {
      "channel": 0,
      "note": 54,
      "start": 3.1671,
      "duration": 0.0347,
      "velocity": 98,
      "chip": "ym2612"
    },
    {
      "channel": 1,
      "note": 78,
      "start": 3.1676,
      "duration": 0.3112,
      "velocity": 62,
      "chip": "ym2612"
    },
    {
      "channel": 2,
      "note": 85,
      "start": 3.1681,
      "duration": 0.311,
      "velocity": 99,
      "chip": "ym2612"
    },
    {
      "channel": 3,
      "note": 47,
      "start": 3.1711,
      "duration": 0.0129,
      "velocity": 127,
      "chip": "ym2612"
    },
    {
      "channel": 3,
      "note": 47,
      "start": 3.1867,
      "duration": 0.0131,
      "velocity": 127,
      "chip": "ym2612"
    },
    {
      "channel": 4,
      "note": 80,
      "start": 3.1873,
      "duration": 0.0129,
      "velocity": 62,
      "chip": "ym2612"
    },
    {
      "channel": 0,
      "note": 49,
      "start": 3.202,
      "duration": 0.131,
      "velocity": 98,
      "chip": "ym2612"
    },
    {
      "channel": 3,
      "note": 47,
      "start": 3.203,
      "duration": 0.013,
      "velocity": 127,
      "chip": "ym2612"
    },
    {
      "channel": 4,
      "note": 78,
      "start": 3.2037,
      "duration": 0.3249,
      "velocity": 62,
      "chip": "ym2612"
    },
    {
      "channel": 3,
      "note": 47,
      "start": 3.2188,
      "duration": 0.0944,
      "velocity": 127,
      "chip": "ym2612"
    },
    {
      "channel": 0,
      "note": 57,
      "start": 3.3332,
      "duration": 0.0423,
      "velocity": 98,
      "chip": "ym2612"
    },
    {
      "channel": 3,
      "note": 47,
      "start": 3.3343,
      "duration": 0.1452,
      "velocity": 127,
      "chip": "ym2612"
    },
    {
      "channel": 0,
      "note": 56,
      "start": 3.3756,
      "duration": 0.0416,
      "velocity": 98,
      "chip": "ym2612"
    },
    {
      "channel": 0,
      "note": 54,
      "start": 3.4174,
      "duration": 0.0817,
      "velocity": 98,
      "chip": "ym2612"
    },
    {
      "channel": 0,
      "note": 52,
      "start": 3.4993,
      "duration": 0.166,
      "velocity": 98,
      "chip": "ym2612"
    },
    {
      "channel": 1,
      "note": 78,
      "start": 3.4998,
      "duration": 0.1941,
      "velocity": 62,
      "chip": "ym2612"
    },
    {
      "channel": 2,
      "note": 71,
      "start": 3.5003,
      "duration": 0.0278,
      "velocity": 99,
      "chip": "ym2612"
    },
    {
      "channel": 3,
      "note": 47,
      "start": 3.501,
      "duration": 0.0001,
      "velocity": 127,
      "chip": "ym2612"
    },
    {
      "channel": 3,
      "note": 49,
      "start": 3.5043,
      "duration": 0.1207,
      "velocity": 127,
      "chip": "ym2612"
    },
    {
      "channel": 2,
      "note": 83,
      "start": 3.5307,
      "duration": 0.0079,
      "velocity": 99,
      "chip": "ym2612"
    },
    {
      "channel": 4,
      "note": 78,
      "start": 3.5316,
      "duration": 0.2803,
      "velocity": 62,
      "chip": "ym2612"
    },
    {
      "channel": 2,
      "note": 83,
      "start": 3.5412,
      "duration": 0.0222,
      "velocity": 99,
      "chip": "ym2612"
    },
    {
      "channel": 2,
      "note": 83,
      "start": 3.584,
      "duration": 0.0613,
      "velocity": 99,
      "chip": "ym2612"
    },
    {
      "channel": 3,
      "note": 47,
      "start": 3.6459,
      "duration": 0.0001,
      "velocity": 127,
      "chip": "ym2612"
    },
    {
      "channel": 0,
      "note": 52,
      "start": 3.6655,
      "duration": 0.1658,
      "velocity": 98,
      "chip": "ym2612"
    },
    {
      "channel": 2,
      "note": 83,
      "start": 3.6663,
      "duration": 0.0127,
      "velocity": 99,
      "chip": "ym2612"
    },
    {
      "channel": 3,
      "note": 49,
      "start": 3.6668,
      "duration": 0.0425,
      "velocity": 127,
      "chip": "ym2612"
    },
    {
      "channel": 2,
      "note": 71,
      "start": 3.6817,
      "duration": 0.0125,
      "velocity": 99,
      "chip": "ym2612"
    },
    {
      "channel": 2,
      "note": 76,
      "start": 3.6969,
      "duration": 0.0122,
      "velocity": 99,
      "chip": "ym2612"
    },
    {
      "channel": 1,
      "note": 76,
      "start": 3.7116,
      "duration": 0.0994,
      "velocity": 62,
      "chip": "ym2612"
    },
    {
      "channel": 2,
      "note": 80,
      "start": 3.7121,
      "duration": 0.0992,
      "velocity": 99,
      "chip": "ym2612"
    },
    {
      "channel": 3,
      "note": 47,
      "start": 3.7151,
      "duration": 0.0146,
      "velocity": 127,
      "chip": "ym2612"
    },
    {
      "channel": 3,
      "note": 47,
      "start": 3.7503,
      "duration": 0.0202,
      "velocity": 127,
      "chip": "ym2612"
    },
    {
      "channel": 3,
      "note": 47,
      "start": 3.7912,
      "duration": 0.0204,
      "velocity": 127,
      "chip": "ym2612"
    },
    {
      "channel": 0,
      "note": 52,
      "start": 3.8315,
      "duration": 0.0348,
      "velocity": 98,
      "chip": "ym2612"
    },
    {
      "channel": 1,
      "note": 76,
      "start": 3.832,
      "duration": 0.3114,
      "velocity": 62,
      "chip": "ym2612"
    },
    {
      "channel": 2,
      "note": 83,
      "start": 3.8325,
      "duration": 0.3112,
      "velocity": 99,
      "chip": "ym2612"
    },
    {
      "channel": 3,
      "note": 47,
      "start": 3.8355,
      "duration": 0.0129,
      "velocity": 127,
      "chip": "ym2612"
    },
    {
      "channel": 3,
      "note": 47,
      "start": 3.8513,
      "duration": 0.013,
      "velocity": 127,
      "chip": "ym2612"
    },
    {
      "channel": 4,
      "note": 78,
      "start": 3.8519,
      "duration": 0.0128,
      "velocity": 62,
      "chip": "ym2612"
    },
    {
      "channel": 0,
      "note": 47,
      "start": 3.8665,
      "duration": 0.1309,
      "velocity": 98,
      "chip": "ym2612"
    },
    {
      "channel": 3,
      "note": 47,
      "start": 3.8675,
      "duration": 0.0131,
      "velocity": 127,
      "chip": "ym2612"
    },
    {
      "channel": 4,
      "note": 76,
      "start": 3.8681,
      "duration": 0.3271,
      "velocity": 62,
      "chip": "ym2612"
    },
    {
      "channel": 3,
      "note": 47,
      "start": 3.8833,
      "duration": 0.0944,
      "velocity": 127,
      "chip": "ym2612"
    },
    {
      "channel": 0,
      "note": 56,
      "start": 3.9977,
      "duration": 0.0421,
      "velocity": 98,
      "chip": "ym2612"
    },
    {
      "channel": 3,
      "note": 47,
      "start": 3.9988,
      "duration": 0.1452,
      "velocity": 127,
      "chip": "ym2612"
    },
    {
      "channel": 0,
      "note": 54,
      "start": 4.0401,
      "duration": 0.0417,
      "velocity": 98,
      "chip": "ym2612"
    },
    {
      "channel": 0,
      "note": 52,
      "start": 4.082,
      "duration": 0.0816,
      "velocity": 98,
      "chip": "ym2612"
    },
    {
      "channel": 0,
      "note": 60,
      "start": 4.1638,
      "duration": 0.1658,
      "velocity": 98,
      "chip": "ym2612"
    },
    {
      "channel": 1,
      "note": 76,
      "start": 4.1649,
      "duration": 0.1445,
      "velocity": 62,
      "chip": "ym2612"
    },
    {
      "channel": 2,
      "note": 79,
      "start": 4.1654,
      "duration": 0.1442,
      "velocity": 99,
      "chip": "ym2612"
    },
    {
      "channel": 3,
      "note": 47,
      "start": 4.1661,
      "duration": 0.0136,
      "velocity": 127,
      "chip": "ym2612"
    },
    {
      "channel": 3,
      "note": 47,
      "start": 4.1825,
      "duration": 0.0125,
      "velocity": 127,
      "chip": "ym2612"
    },
    {
      "channel": 3,
      "note": 47,
      "start": 4.1978,
      "duration": 0.0126,
      "velocity": 127,
      "chip": "ym2612"
    },
    {
      "channel": 4,
      "note": 76,
      "start": 4.1985,
      "duration": 0.3573,
      "velocity": 62,
      "chip": "ym2612"
    },
    {
      "channel": 3,
      "note": 47,
      "start": 4.2132,
      "duration": 0.0968,
      "velocity": 127,
      "chip": "ym2612"
    },
    {
      "channel": 0,
      "note": 48,
      "start": 4.3298,
      "duration": 0.4909,
      "velocity": 98,
      "chip": "ym2612"
    },
    {
      "channel": 2,
      "note": 67,
      "start": 4.3307,
      "duration": 0.4701,
      "velocity": 99,
      "chip": "ym2612"
    },
    {
      "channel": 3,
      "note": 47,
      "start": 4.3337,
      "duration": 0.4675,
      "velocity": 127,
      "chip": "ym2612"
    },
    {
      "channel": 1,
      "note": 76,
      "start": 4.5756,
      "duration": 0.1022,
      "velocity": 62,
      "chip": "ym2612"
    },
    {
      "channel": 1,
      "note": 78,
      "start": 4.6984,
      "duration": 0.1021,
      "velocity": 62,
      "chip": "ym2612"
    },
    {
      "channel": 0,
      "note": 59,
      "start": 4.821,
      "duration": 0.1657,
      "velocity": 98,
      "chip": "ym2612"
    },
    {
      "channel": 1,
      "note": 80,
      "start": 4.8215,
      "duration": 0.145,
      "velocity": 62,
      "chip": "ym2612"
    },
    {
      "channel": 2,
      "note": 76,
      "start": 4.822,
      "duration": 0.1448,
      "velocity": 99,
      "chip": "ym2612"
    },
    {
      "channel": 3,
      "note": 47,
      "start": 4.8251,
      "duration": 0.0127,
      "velocity": 127,
      "chip": "ym2612"
    },
    {
      "channel": 4,
      "note": 76,
      "start": 4.8257,
      "duration": 0.0124,
      "velocity": 62,
      "chip": "ym2612"
    },
    {
      "channel": 3,
      "note": 47,
      "start": 4.8406,
      "duration": 0.0126,
      "velocity": 127,
      "chip": "ym2612"
    },
    {
      "channel": 4,
      "note": 76,
      "start": 4.8412,
      "duration": 0.0123,
      "velocity": 62,
      "chip": "ym2612"
    },
    {
      "channel": 3,
      "note": 47,
      "start": 4.8559,
      "duration": 0.0127,
      "velocity": 127,
      "chip": "ym2612"
    },
    {
      "channel": 4,
      "note": 78,
      "start": 4.8566,
      "duration": 0.3562,
      "velocity": 62,
      "chip": "ym2612"
    },
    {
      "channel": 3,
      "note": 47,
      "start": 4.8714,
      "duration": 0.0958,
      "velocity": 127,
      "chip": "ym2612"
    },
    {
      "channel": 0,
      "note": 47,
      "start": 4.987,
      "duration": 0.491,
      "velocity": 98,
      "chip": "ym2612"
    },
    {
      "channel": 2,
      "note": 64,
      "start": 4.9878,
      "duration": 0.4702,
      "velocity": 99,
      "chip": "ym2612"
    },
    {
      "channel": 3,
      "note": 47,
      "start": 4.9908,
      "duration": 0.4675,
      "velocity": 127,
      "chip": "ym2612"
    },
    {
      "channel": 1,
      "note": 80,
      "start": 5.2327,
      "duration": 0.1022,
      "velocity": 62,
      "chip": "ym2612"
    },
    {
      "channel": 1,
      "note": 81,
      "start": 5.3555,
      "duration": 0.1022,
      "velocity": 62,
      "chip": "ym2612"
    },
    {
      "channel": 0,
      "note": 47,
      "start": 5.4783,
      "duration": 0.1659,
      "velocity": 98,
      "chip": "ym2612"
    },
    {
      "channel": 1,
      "note": 85,
      "start": 5.4788,
      "duration": 0.0312,
      "velocity": 62,
      "chip": "ym2612"
    },
    {
      "channel": 2,
      "note": 76,
      "start": 5.4794,
      "duration": 0.1447,
      "velocity": 99,
      "chip": "ym2612"
    },
    {
      "channel": 3,
      "note": 47,
      "start": 5.4824,
      "duration": 0.0129,
      "velocity": 127,
      "chip": "ym2612"
    },
    {
      "channel": 4,
      "note": 80,
      "start": 5.4831,
      "duration": 0.0125,
      "velocity": 62,
      "chip": "ym2612"
    },
    {
      "channel": 3,
      "note": 47,
      "start": 5.498,
      "duration": 0.0125,
      "velocity": 127,
      "chip": "ym2612"
    },
    {
      "channel": 4,
      "note": 80,
      "start": 5.4986,
      "duration": 0.0122,
      "velocity": 62,
      "chip": "ym2612"
    },
    {
      "channel": 1,
      "note": 83,
      "start": 5.5127,
      "duration": 0.1112,
      "velocity": 62,
      "chip": "ym2612"
    },
    {
      "channel": 3,
      "note": 47,
      "start": 5.5135,
      "duration": 0.111,
      "velocity": 127,
      "chip": "ym2612"
    },
    {
      "channel": 4,
      "note": 81,
      "start": 5.5141,
      "duration": 0.1107,
      "velocity": 62,
      "chip": "ym2612"
    },
    {
      "channel": 0,
      "note": 47,
      "start": 5.6443,
      "duration": 0.1661,
      "velocity": 98,
      "chip": "ym2612"
    },
    {
      "channel": 1,
      "note": 81,
      "start": 5.6448,
      "duration": 0.028,
      "velocity": 62,
      "chip": "ym2612"
    },
    {
      "channel": 2,
      "note": 75,
      "start": 5.6453,
      "duration": 0.145,
      "velocity": 99,
      "chip": "ym2612"
    },
    {
      "channel": 3,
      "note": 47,
      "start": 5.6459,
      "duration": 0.0274,
      "velocity": 127,
      "chip": "ym2612"
    },
    {
      "channel": 4,
      "note": 85,
      "start": 5.6465,
      "duration": 0.0271,
      "velocity": 62,
      "chip": "ym2612"
    },
    {
      "channel": 1,
      "note": 78,
      "start": 5.6755,
      "duration": 0.1146,
      "velocity": 62,
      "chip": "ym2612"
    },
    {
      "channel": 3,
      "note": 47,
      "start": 5.6763,
      "duration": 0.0122,
      "velocity": 127,
      "chip": "ym2612"
    },
    {
      "channel": 4,
      "note": 83,
      "start": 5.677,
      "duration": 0.1141,
      "velocity": 62,
      "chip": "ym2612"
    },
    {
      "channel": 3,
      "note": 47,
      "start": 5.6911,
      "duration": 0.0996,
      "velocity": 127,
      "chip": "ym2612"
    },
    {
      "channel": 0,
      "note": 52,
      "start": 5.8106,
      "duration": 0.0315,
      "velocity": 98,
      "chip": "ym2612"
    },
    {
      "channel": 1,
      "note": 76,
      "start": 5.8111,
      "duration": 0.1453,
      "velocity": 62,
      "chip": "ym2612"
    },
    {
      "channel": 2,
      "note": 76,
      "start": 5.8116,
      "duration": 0.0283,
      "velocity": 99,
      "chip": "ym2612"
    },
    {
      "channel": 3,
      "note": 47,
      "start": 5.8122,
      "duration": 0.013,
      "velocity": 127,
      "chip": "ym2612"
    },
    {
      "channel": 4,
      "note": 81,
      "start": 5.8128,
      "duration": 0.0278,
      "velocity": 62,
      "chip": "ym2612"
    },
    {
      "channel": 3,
      "note": 47,
      "start": 5.828,
      "duration": 0.0122,
      "velocity": 127,
      "chip": "ym2612"
    },
    {
      "channel": 0,
      "note": 47,
      "start": 5.8424,
      "duration": 0.1343,
      "velocity": 98,
      "chip": "ym2612"
    },
    {
      "channel": 2,
      "note": 68,
      "start": 5.8431,
      "duration": 0.1136,
      "velocity": 99,
      "chip": "ym2612"
    },
    {
      "channel": 3,
      "note": 47,
      "start": 5.8437,
      "duration": 0.0126,
      "velocity": 127,
      "chip": "ym2612"
    },
    {
      "channel": 4,
      "note": 78,
      "start": 5.8443,
      "duration": 0.1615,
      "velocity": 62,
      "chip": "ym2612"
    },
    {
      "channel": 3,
      "note": 47,
      "start": 5.859,
      "duration": 0.098,
      "velocity": 127,
      "chip": "ym2612"
    },
    {
      "channel": 0,
      "note": 52,
      "start": 5.9769,
      "duration": 0.0304,
      "velocity": 98,
      "chip": "ym2612"
    },
    {
      "channel": 2,
      "note": 71,
      "start": 5.9777,
      "duration": 0.0274,
      "velocity": 99,
      "chip": "ym2612"
    },
    {
      "channel": 3,
      "note": 47,
      "start": 5.9783,
      "duration": 0.1448,
      "velocity": 127,
      "chip": "ym2612"
    },
    {
      "channel": 0,
      "note": 56,
      "start": 6.0075,
      "duration": 0.1352,
      "velocity": 98,
      "chip": "ym2612"
    },
    {
      "channel": 2,
      "note": 76,
      "start": 6.0083,
      "duration": 0.1145,
      "velocity": 99,
      "chip": "ym2612"
    },
    {
      "channel": 0,
      "note": 54,
      "start": 6.1466,
      "duration": 0.1623,
      "velocity": 98,
      "chip": "ym2612"
    },
    {
      "channel": 1,
      "note": 80,
      "start": 6.1474,
      "duration": 0.1902,
      "velocity": 62,
      "chip": "ym2612"
    },
    {
      "channel": 2,
      "note": 73,
      "start": 6.1516,
      "duration": 0.0336,
      "velocity": 99,
      "chip": "ym2612"
    },
    {
      "channel": 3,
      "note": 47,
      "start": 6.1576,
      "duration": 0.0001,
      "velocity": 127,
      "chip": "ym2612"
    },
    {
      "channel": 3,
      "note": 49,
      "start": 6.1616,
      "duration": 0.1071,
      "velocity": 127,
      "chip": "ym2612"
    },
    {
      "channel": 2,
      "note": 85,
      "start": 6.188,
      "duration": 0.0078,
      "velocity": 99,
      "chip": "ym2612"
    },
    {
      "channel": 4,
      "note": 76,
      "start": 6.189,
      "duration": 0.2666,
      "velocity": 62,
      "chip": "ym2612"
    },
    {
      "channel": 2,
      "note": 85,
      "start": 6.1984,
      "duration": 0.0087,
      "velocity": 99,
      "chip": "ym2612"
    },
    {
      "channel": 2,
      "note": 85,
      "start": 6.2277,
      "duration": 0.0614,
      "velocity": 99,
      "chip": "ym2612"
    },
    {
      "channel": 3,
      "note": 47,
      "start": 6.2895,
      "duration": 0.0001,
      "velocity": 127,
      "chip": "ym2612"
    },
    {
      "channel": 0,
      "note": 54,
      "start": 6.3091,
      "duration": 0.1658,
      "velocity": 98,
      "chip": "ym2612"
    },
    {
      "channel": 2,
      "note": 85,
      "start": 6.3099,
      "duration": 0.0127,
      "velocity": 99,
      "chip": "ym2612"
    },
    {
      "channel": 3,
      "note": 49,
      "start": 6.3105,
      "duration": 0.0428,
      "velocity": 127,
      "chip": "ym2612"
    },
    {
      "channel": 2,
      "note": 73,
      "start": 6.3254,
      "duration": 0.0125,
      "velocity": 99,
      "chip": "ym2612"
    },
    {
      "channel": 2,
      "note": 78,
      "start": 6.3406,
      "duration": 0.0124,
      "velocity": 99,
      "chip": "ym2612"
    },
    {
      "channel": 1,
      "note": 78,
      "start": 6.3556,
      "duration": 0.0992,
      "velocity": 62,
      "chip": "ym2612"
    },
    {
      "channel": 2,
      "note": 81,
      "start": 6.3561,
      "duration": 0.099,
      "velocity": 99,
      "chip": "ym2612"
    },
    {
      "channel": 3,
      "note": 47,
      "start": 6.359,
      "duration": 0.0143,
      "velocity": 127,
      "chip": "ym2612"
    },
    {
      "channel": 3,
      "note": 47,
      "start": 6.394,
      "duration": 0.0203,
      "velocity": 127,
      "chip": "ym2612"
    },
    {
      "channel": 3,
      "note": 47,
      "start": 6.435,
      "duration": 0.0203,
      "velocity": 127,
      "chip": "ym2612"
    },
    {
      "channel": 0,
      "note": 54,
      "start": 6.4752,
      "duration": 0.0347,
      "velocity": 98,
      "chip": "ym2612"
    },
    {
      "channel": 1,
      "note": 78,
      "start": 6.4757,
      "duration": 0.3113,
      "velocity": 62,
      "chip": "ym2612"
    },
    {
      "channel": 2,
      "note": 85,
      "start": 6.4762,
      "duration": 0.311,
      "velocity": 99,
      "chip": "ym2612"
    },
    {
      "channel": 3,
      "note": 47,
      "start": 6.4792,
      "duration": 0.013,
      "velocity": 127,
      "chip": "ym2612"
    },
    {
      "channel": 3,
      "note": 47,
      "start": 6.4949,
      "duration": 0.0131,
      "velocity": 127,
      "chip": "ym2612"
    },
    {
      "channel": 4,
      "note": 80,
      "start": 6.4956,
      "duration": 0.0127,
      "velocity": 62,
      "chip": "ym2612"
    },
    {
      "channel": 0,
      "note": 49,
      "start": 6.5102,
      "duration": 0.131,
      "velocity": 98,
      "chip": "ym2612"
    },
    {
      "channel": 3,
      "note": 47,
      "start": 6.5112,
      "duration": 0.0131,
      "velocity": 127,
      "chip": "ym2612"
    },
    {
      "channel": 4,
      "note": 78,
      "start": 6.5118,
      "duration": 0.3302,
      "velocity": 62,
      "chip": "ym2612"
    },
    {
      "channel": 3,
      "note": 47,
      "start": 6.527,
      "duration": 0.0944,
      "velocity": 127,
      "chip": "ym2612"
    },
    {
      "channel": 0,
      "note": 57,
      "start": 6.6413,
      "duration": 0.0422,
      "velocity": 98,
      "chip": "ym2612"
    },
    {
      "channel": 3,
      "note": 47,
      "start": 6.6424,
      "duration": 0.1452,
      "velocity": 127,
      "chip": "ym2612"
    },
    {
      "channel": 0,
      "note": 56,
      "start": 6.6837,
      "duration": 0.0417,
      "velocity": 98,
      "chip": "ym2612"
    },
    {
      "channel": 0,
      "note": 54,
      "start": 6.7256,
      "duration": 0.0816,
      "velocity": 98,
      "chip": "ym2612"
    },
    {
      "channel": 0,
      "note": 52,
      "start": 6.8075,
      "duration": 0.1658,
      "velocity": 98,
      "chip": "ym2612"
    },
    {
      "channel": 1,
      "note": 78,
      "start": 6.808,
      "duration": 0.194,
      "velocity": 62,
      "chip": "ym2612"
    },
    {
      "channel": 2,
      "note": 71,
      "start": 6.8084,
      "duration": 0.033,
      "velocity": 99,
      "chip": "ym2612"
    },
    {
      "channel": 3,
      "note": 47,
      "start": 6.8142,
      "duration": 0.0001,
      "velocity": 127,
      "chip": "ym2612"
    },
    {
      "channel": 3,
      "note": 49,
      "start": 6.8175,
      "duration": 0.1156,
      "velocity": 127,
      "chip": "ym2612"
    },
    {
      "channel": 2,
      "note": 83,
      "start": 6.8441,
      "duration": 0.0076,
      "velocity": 99,
      "chip": "ym2612"
    },
    {
      "channel": 4,
      "note": 78,
      "start": 6.845,
      "duration": 0.2749,
      "velocity": 62,
      "chip": "ym2612"
    },
    {
      "channel": 2,
      "note": 83,
      "start": 6.8543,
      "duration": 0.0171,
      "velocity": 99,
      "chip": "ym2612"
    },
    {
      "channel": 2,
      "note": 83,
      "start": 6.892,
      "duration": 0.0613,
      "velocity": 99,
      "chip": "ym2612"
    },
    {
      "channel": 3,
      "note": 47,
      "start": 6.9539,
      "duration": 0.0001,
      "velocity": 127,
      "chip": "ym2612"
    },
    {
      "channel": 0,
      "note": 52,
      "start": 6.9735,
      "duration": 0.1657,
      "velocity": 98,
      "chip": "ym2612"
    },
    {
      "channel": 2,
      "note": 83,
      "start": 6.9743,
      "duration": 0.0127,
      "velocity": 99,
      "chip": "ym2612"
    },
    {
      "channel": 3,
      "note": 49,
      "start": 6.9749,
      "duration": 0.0428,
      "velocity": 127,
      "chip": "ym2612"
    },
    {
      "channel": 2,
      "note": 71,
      "start": 6.9897,
      "duration": 0.0125,
      "velocity": 99,
      "chip": "ym2612"
    },
    {
      "channel": 2,
      "note": 76,
      "start": 7.005,
      "duration": 0.0123,
      "velocity": 99,
      "chip": "ym2612"
    },
    {
      "channel": 1,
      "note": 76,
      "start": 7.0199,
      "duration": 0.0992,
      "velocity": 62,
      "chip": "ym2612"
    },
    {
      "channel": 2,
      "note": 80,
      "start": 7.0204,
      "duration": 0.0989,
      "velocity": 99,
      "chip": "ym2612"
    },
    {
      "channel": 3,
      "note": 47,
      "start": 7.0234,
      "duration": 0.0143,
      "velocity": 127,
      "chip": "ym2612"
    },
    {
      "channel": 3,
      "note": 47,
      "start": 7.0583,
      "duration": 0.0202,
      "velocity": 127,
      "chip": "ym2612"
    },
    {
      "channel": 3,
      "note": 47,
      "start": 7.0993,
      "duration": 0.0204,
      "velocity": 127,
      "chip": "ym2612"
    },
    {
      "channel": 0,
      "note": 52,
      "start": 7.1395,
      "duration": 0.0347,
      "velocity": 98,
      "chip": "ym2612"
    },
    {
      "channel": 1,
      "note": 76,
      "start": 7.14,
      "duration": 0.3112,
      "velocity": 62,
      "chip": "ym2612"
    },
    {
      "channel": 2,
      "note": 83,
      "start": 7.1405,
      "duration": 0.3111,
      "velocity": 99,
      "chip": "ym2612"
    },
    {
      "channel": 3,
      "note": 47,
      "start": 7.1435,
      "duration": 0.0129,
      "velocity": 127,
      "chip": "ym2612"
    },
    {
      "channel": 3,
      "note": 47,
      "start": 7.1593,
      "duration": 0.0131,
      "velocity": 127,
      "chip": "ym2612"
    },
    {
      "channel": 4,
      "note": 78,
      "start": 7.16,
      "duration": 0.0128,
      "velocity": 62,
      "chip": "ym2612"
    },
    {
      "channel": 0,
      "note": 47,
      "start": 7.1744,
      "duration": 0.131,
      "velocity": 98,
      "chip": "ym2612"
    },
    {
      "channel": 3,
      "note": 47,
      "start": 7.1754,
      "duration": 0.0131,
      "velocity": 127,
      "chip": "ym2612"
    },
    {
      "channel": 4,
      "note": 76,
      "start": 7.1761,
      "duration": 0.3308,
      "velocity": 62,
      "chip": "ym2612"
    },
    {
      "channel": 3,
      "note": 47,
      "start": 7.1913,
      "duration": 0.0944,
      "velocity": 127,
      "chip": "ym2612"
    },
    {
      "channel": 0,
      "note": 56,
      "start": 7.3056,
      "duration": 0.0422,
      "velocity": 98,
      "chip": "ym2612"
    },
    {
      "channel": 3,
      "note": 47,
      "start": 7.3067,
      "duration": 0.1452,
      "velocity": 127,
      "chip": "ym2612"
    },
    {
      "channel": 0,
      "note": 54,
      "start": 7.348,
      "duration": 0.0417,
      "velocity": 98,
      "chip": "ym2612"
    },
    {
      "channel": 0,
      "note": 52,
      "start": 7.3899,
      "duration": 0.0816,
      "velocity": 98,
      "chip": "ym2612"
    },
    {
      "channel": 0,
      "note": 51,
      "start": 7.4718,
      "duration": 0.0367,
      "velocity": 98,
      "chip": "ym2612"
    },
    {
      "channel": 1,
      "note": 78,
      "start": 7.4724,
      "duration": 0.1941,
      "velocity": 62,
      "chip": "ym2612"
    },
    {
      "channel": 2,
      "note": 71,
      "start": 7.4728,
      "duration": 0.311,
      "velocity": 99,
      "chip": "ym2612"
    },
    {
      "channel": 3,
      "note": 47,
      "start": 7.4786,
      "duration": 0.0001,
      "velocity": 127,
      "chip": "ym2612"
    },
    {
      "channel": 3,
      "note": 49,
      "start": 7.4822,
      "duration": 0.1152,
      "velocity": 127,
      "chip": "ym2612"
    },
    {
      "channel": 0,
      "note": 49,
      "start": 7.5087,
      "duration": 0.129,
      "velocity": 98,
      "chip": "ym2612"
    },
    {
      "channel": 4,
      "note": 76,
      "start": 7.51,
      "duration": 0.2745,
      "velocity": 62,
      "chip": "ym2612"
    },
    {
      "channel": 3,
      "note": 47,
      "start": 7.6181,
      "duration": 0.0001,
      "velocity": 127,
      "chip": "ym2612"
    },
    {
      "channel": 0,
      "note": 47,
      "start": 7.6378,
      "duration": 0.031,
      "velocity": 98,
      "chip": "ym2612"
    },
    {
      "channel": 3,
      "note": 49,
      "start": 7.639,
      "duration": 0.0436,
      "velocity": 127,
      "chip": "ym2612"
    },
    {
      "channel": 0,
      "note": 46,
      "start": 7.669,
      "duration": 0.1348,
      "velocity": 98,
      "chip": "ym2612"
    },
    {
      "channel": 1,
      "note": 77,
      "start": 7.6695,
      "duration": 0.0125,
      "velocity": 62,
      "chip": "ym2612"
    },
    {
      "channel": 1,
      "note": 78,
      "start": 7.6849,
      "duration": 0.0987,
      "velocity": 62,
      "chip": "ym2612"
    },
    {
      "channel": 3,
      "note": 47,
      "start": 7.6881,
      "duration": 0.0142,
      "velocity": 127,
      "chip": "ym2612"
    },
    {
      "channel": 3,
      "note": 47,
      "start": 7.723,
      "duration": 0.0202,
      "velocity": 127,
      "chip": "ym2612"
    },
    {
      "channel": 3,
      "note": 47,
      "start": 7.7639,
      "duration": 0.0202,
      "velocity": 127,
      "chip": "ym2612"
    },
    {
      "channel": 0,
      "note": 47,
      "start": 7.8041,
      "duration": 0.0343,
      "velocity": 98,
      "chip": "ym2612"
    },
    {
      "channel": 1,
      "note": 79,
      "start": 7.8046,
      "duration": 0.0313,
      "velocity": 62,
      "chip": "ym2612"
    },
    {
      "channel": 2,
      "note": 75,
      "start": 7.8051,
      "duration": 0.031,
      "velocity": 99,
      "chip": "ym2612"
    },
    {
      "channel": 3,
      "note": 47,
      "start": 7.8081,
      "duration": 0.0129,
      "velocity": 127,
      "chip": "ym2612"
    },
    {
      "channel": 4,
      "note": 78,
      "start": 7.8087,
      "duration": 0.0127,
      "velocity": 62,
      "chip": "ym2612"
    },
    {
      "channel": 3,
      "note": 47,
      "start": 7.8238,
      "duration": 0.0127,
      "velocity": 127,
      "chip": "ym2612"
    },
    {
      "channel": 4,
      "note": 77,
      "start": 7.8245,
      "duration": 0.0124,
      "velocity": 62,
      "chip": "ym2612"
    },
    {
      "channel": 0,
      "note": 49,
      "start": 7.8386,
      "duration": 0.1313,
      "velocity": 98,
      "chip": "ym2612"
    },
    {
      "channel": 1,
      "note": 80,
      "start": 7.8392,
      "duration": 0.1105,
      "velocity": 62,
      "chip": "ym2612"
    },
    {
      "channel": 2,
      "note": 76,
      "start": 7.8396,
      "duration": 0.1104,
      "velocity": 99,
      "chip": "ym2612"
    },
    {
      "channel": 3,
      "note": 47,
      "start": 7.8402,
      "duration": 0.0126,
      "velocity": 127,
      "chip": "ym2612"
    },
    {
      "channel": 4,
      "note": 78,
      "start": 7.8409,
      "duration": 0.1097,
      "velocity": 62,
      "chip": "ym2612"
    },
    {
      "channel": 3,
      "note": 47,
      "start": 7.8556,
      "duration": 0.0947,
      "velocity": 127,
      "chip": "ym2612"
    },
    {
      "channel": 0,
      "note": 50,
      "start": 7.9702,
      "duration": 0.0309,
      "velocity": 98,
      "chip": "ym2612"
    },
    {
      "channel": 1,
      "note": 81,
      "start": 7.9707,
      "duration": 0.028,
      "velocity": 62,
      "chip": "ym2612"
    },
    {
      "channel": 2,
      "note": 77,
      "start": 7.9712,
      "duration": 0.0278,
      "velocity": 99,
      "chip": "ym2612"
    },
    {
      "channel": 3,
      "note": 47,
      "start": 7.9718,
      "duration": 0.1444,
      "velocity": 127,
      "chip": "ym2612"
    },
    {
      "channel": 4,
      "note": 79,
      "start": 7.9725,
      "duration": 0.0271,
      "velocity": 62,
      "chip": "ym2612"
    },
    {
      "channel": 0,
      "note": 51,
      "start": 8.0014,
      "duration": 0.1346,
      "velocity": 98,
      "chip": "ym2612"
    },
    {
      "channel": 1,
      "note": 82,
      "start": 8.0019,
      "duration": 0.1138,
      "velocity": 62,
      "chip": "ym2612"
    },
    {
      "channel": 2,
      "note": 78,
      "start": 8.0023,
      "duration": 0.1137,
      "velocity": 99,
      "chip": "ym2612"
    },
    {
      "channel": 4,
      "note": 80,
      "start": 8.0032,
      "duration": 0.1134,
      "velocity": 62,
      "chip": "ym2612"
    },
    {
      "channel": 0,
      "note": 52,
      "start": 8.1362,
      "duration": 0.0315,
      "velocity": 98,
      "chip": "ym2612"
    },
    {
      "channel": 1,
      "note": 83,
      "start": 8.1367,
      "duration": 0.3114,
      "velocity": 62,
      "chip": "ym2612"
    },
    {
      "channel": 2,
      "note": 80,
      "start": 8.1372,
      "duration": 0.3112,
      "velocity": 99,
      "chip": "ym2612"
    },
    {
      "channel": 3,
      "note": 47,
      "start": 8.1379,
      "duration": 0.0001,
      "velocity": 127,
      "chip": "ym2612"
    },
    {
      "channel": 4,
      "note": 81,
      "start": 8.1386,
      "duration": 0.0275,
      "velocity": 62,
      "chip": "ym2612"
    },
    {
      "channel": 3,
      "note": 49,
      "start": 8.1418,
      "duration": 0.1201,
      "velocity": 127,
      "chip": "ym2612"
    },
    {
      "channel": 0,
      "note": 54,
      "start": 8.1679,
      "duration": 0.1342,
      "velocity": 98,
      "chip": "ym2612"
    },
    {
      "channel": 4,
      "note": 82,
      "start": 8.1692,
      "duration": 0.3322,
      "velocity": 62,
      "chip": "ym2612"
    },
    {
      "channel": 3,
      "note": 47,
      "start": 8.2826,
      "duration": 0.0001,
      "velocity": 127,
      "chip": "ym2612"
    },
    {
      "channel": 0,
      "note": 56,
      "start": 8.3023,
      "duration": 0.0308,
      "velocity": 98,
      "chip": "ym2612"
    },
    {
      "channel": 3,
      "note": 49,
      "start": 8.3034,
      "duration": 0.0434,
      "velocity": 127,
      "chip": "ym2612"
    },
    {
      "channel": 0,
      "note": 57,
      "start": 8.3334,
      "duration": 0.135,
      "velocity": 98,
      "chip": "ym2612"
    },
    {
      "channel": 3,
      "note": 47,
      "start": 8.3522,
      "duration": 0.0147,
      "velocity": 127,
      "chip": "ym2612"
    },
    {
      "channel": 3,
      "note": 47,
      "start": 8.3874,
      "duration": 0.0202,
      "velocity": 127,
      "chip": "ym2612"
    },
    {
      "channel": 3,
      "note": 47,
      "start": 8.4284,
      "duration": 0.0203,
      "velocity": 127,
      "chip": "ym2612"
    },
    {
      "channel": 0,
      "note": 55,
      "start": 8.4685,
      "duration": 0.0238,
      "velocity": 98,
      "chip": "ym2612"
    },
    {
      "channel": 2,
      "note": 71,
      "start": 8.4694,
      "duration": 0.0209,
      "velocity": 99,
      "chip": "ym2612"
    },
    {
      "channel": 3,
      "note": 47,
      "start": 8.4724,
      "duration": 0.0127,
      "velocity": 127,
      "chip": "ym2612"
    },
    {
      "channel": 3,
      "note": 47,
      "start": 8.4878,
      "duration": 0.0132,
      "velocity": 127,
      "chip": "ym2612"
    },
    {
      "channel": 0,
      "note": 53,
      "start": 8.4926,
      "duration": 0.0204,
      "velocity": 98,
      "chip": "ym2612"
    },
    {
      "channel": 2,
      "note": 70,
      "start": 8.4933,
      "duration": 0.0177,
      "velocity": 99,
      "chip": "ym2612"
    },
    {
      "channel": 3,
      "note": 47,
      "start": 8.5038,
      "duration": 0.0131,
      "velocity": 127,
      "chip": "ym2612"
    },
    {
      "channel": 0,
      "note": 52,
      "start": 8.5132,
      "duration": 0.1214,
      "velocity": 98,
      "chip": "ym2612"
    },
    {
      "channel": 2,
      "note": 69,
      "start": 8.5139,
      "duration": 0.1005,
      "velocity": 99,
      "chip": "ym2612"
    },
    {
      "channel": 3,
      "note": 47,
      "start": 8.5195,
      "duration": 0.0953,
      "velocity": 127,
      "chip": "ym2612"
    },
    {
      "channel": 0,
      "note": 47,
      "start": 8.6347,
      "duration": 0.0311,
      "velocity": 98,
      "chip": "ym2612"
    },
    {
      "channel": 1,
      "note": 80,
      "start": 8.6352,
      "duration": 0.0591,
      "velocity": 62,
      "chip": "ym2612"
    },
    {
      "channel": 2,
      "note": 76,
      "start": 8.6357,
      "duration": 0.0273,
      "velocity": 99,
      "chip": "ym2612"
    },
    {
      "channel": 3,
      "note": 47,
      "start": 8.6363,
      "duration": 0.0271,
      "velocity": 127,
      "chip": "ym2612"
    },
    {
      "channel": 0,
      "note": 52,
      "start": 8.666,
      "duration": 0.0311,
      "velocity": 98,
      "chip": "ym2612"
    },
    {
      "channel": 2,
      "note": 76,
      "start": 8.6667,
      "duration": 0.0279,
      "velocity": 99,
      "chip": "ym2612"
    },
    {
      "channel": 3,
      "note": 47,
      "start": 8.6673,
      "duration": 0.0276,
      "velocity": 127,
      "chip": "ym2612"
    },
    {
      "channel": 4,
      "note": 83,
      "start": 8.668,
      "duration": 0.0591,
      "velocity": 62,
      "chip": "ym2612"
    },
    {
      "channel": 0,
      "note": 54,
      "start": 8.6973,
      "duration": 0.1659,
      "velocity": 98,
      "chip": "ym2612"
    },
    {
      "channel": 1,
      "note": 80,
      "start": 8.6979,
      "duration": 0.1941,
      "velocity": 62,
      "chip": "ym2612"
    },
    {
      "channel": 2,
      "note": 73,
      "start": 8.6985,
      "duration": 0.0281,
      "velocity": 99,
      "chip": "ym2612"
    },
    {
      "channel": 3,
      "note": 47,
      "start": 8.6992,
      "duration": 0.0001,
      "velocity": 127,
      "chip": "ym2612"
    },
    {
      "channel": 3,
      "note": 49,
      "start": 8.703,
      "duration": 0.12,
      "velocity": 127,
      "chip": "ym2612"
    },
    {
      "channel": 2,
      "note": 85,
      "start": 8.7293,
      "duration": 0.0076,
      "velocity": 99,
      "chip": "ym2612"
    },
    {
      "channel": 4,
      "note": 80,
      "start": 8.7302,
      "duration": 0.28,
      "velocity": 62,
      "chip": "ym2612"
    },
    {
      "channel": 2,
      "note": 85,
      "start": 8.7395,
      "duration": 0.0219,
      "velocity": 99,
      "chip": "ym2612"
    },
    {
      "channel": 2,
      "note": 85,
      "start": 8.7819,
      "duration": 0.0613,
      "velocity": 99,
      "chip": "ym2612"
    },
    {
      "channel": 3,
      "note": 47,
      "start": 8.8438,
      "duration": 0.0001,
      "velocity": 127,
      "chip": "ym2612"
    },
    {
      "channel": 0,
      "note": 54,
      "start": 8.8634,
      "duration": 0.166,
      "velocity": 98,
      "chip": "ym2612"
    },
    {
      "channel": 2,
      "note": 85,
      "start": 8.8642,
      "duration": 0.0128,
      "velocity": 99,
      "chip": "ym2612"
    },
    {
      "channel": 3,
      "note": 49,
      "start": 8.8648,
      "duration": 0.0427,
      "velocity": 127,
      "chip": "ym2612"
    },
    {
      "channel": 2,
      "note": 73,
      "start": 8.8798,
      "duration": 0.0125,
      "velocity": 99,
      "chip": "ym2612"
    },
    {
      "channel": 2,
      "note": 78,
      "start": 8.8951,
      "duration": 0.0121,
      "velocity": 99,
      "chip": "ym2612"
    },
    {
      "channel": 1,
      "note": 78,
      "start": 8.9097,
      "duration": 0.0995,
      "velocity": 62,
      "chip": "ym2612"
    },
    {
      "channel": 2,
      "note": 81,
      "start": 8.9102,
      "duration": 0.0992,
      "velocity": 99,
      "chip": "ym2612"
    },
    {
      "channel": 3,
      "note": 47,
      "start": 8.9132,
      "duration": 0.0145,
      "velocity": 127,
      "chip": "ym2612"
    },
    {
      "channel": 3,
      "note": 47,
      "start": 8.9484,
      "duration": 0.0202,
      "velocity": 127,
      "chip": "ym2612"
    },
    {
      "channel": 3,
      "note": 47,
      "start": 8.9893,
      "duration": 0.0204,
      "velocity": 127,
      "chip": "ym2612"
    },
    {
      "channel": 0,
      "note": 54,
      "start": 9.0296,
      "duration": 0.0348,
      "velocity": 98,
      "chip": "ym2612"
    },
    {
      "channel": 1,
      "note": 78,
      "start": 9.0301,
      "duration": 0.3113,
      "velocity": 62,
      "chip": "ym2612"
    },
    {
      "channel": 2,
      "note": 85,
      "start": 9.0306,
      "duration": 0.311,
      "velocity": 99,
      "chip": "ym2612"
    },
    {
      "channel": 3,
      "note": 47,
      "start": 9.0336,
      "duration": 0.013,
      "velocity": 127,
      "chip": "ym2612"
    },
    {
      "channel": 3,
      "note": 47,
      "start": 9.0494,
      "duration": 0.0131,
      "velocity": 127,
      "chip": "ym2612"
    },
    {
      "channel": 4,
      "note": 80,
      "start": 9.05,
      "duration": 0.0128,
      "velocity": 62,
      "chip": "ym2612"
    },
    {
      "channel": 0,
      "note": 49,
      "start": 9.0646,
      "duration": 0.131,
      "velocity": 98,
      "chip": "ym2612"
    },
    {
      "channel": 3,
      "note": 47,
      "start": 9.0656,
      "duration": 0.013,
      "velocity": 127,
      "chip": "ym2612"
    },
    {
      "channel": 4,
      "note": 78,
      "start": 9.0663,
      "duration": 0.325,
      "velocity": 62,
      "chip": "ym2612"
    },
    {
      "channel": 3,
      "note": 47,
      "start": 9.0814,
      "duration": 0.0945,
      "velocity": 127,
      "chip": "ym2612"
    },
    {
      "channel": 0,
      "note": 57,
      "start": 9.1958,
      "duration": 0.0422,
      "velocity": 98,
      "chip": "ym2612"
    },
    {
      "channel": 3,
      "note": 47,
      "start": 9.1969,
      "duration": 0.1451,
      "velocity": 127,
      "chip": "ym2612"
    },
    {
      "channel": 0,
      "note": 56,
      "start": 9.2382,
      "duration": 0.0416,
      "velocity": 98,
      "chip": "ym2612"
    },
    {
      "channel": 0,
      "note": 54,
      "start": 9.28,
      "duration": 0.0816,
      "velocity": 98,
      "chip": "ym2612"
    },
    {
      "channel": 0,
      "note": 52,
      "start": 9.3619,
      "duration": 0.1658,
      "velocity": 98,
      "chip": "ym2612"
    },
    {
      "channel": 1,
      "note": 78,
      "start": 9.3624,
      "duration": 0.194,
      "velocity": 62,
      "chip": "ym2612"
    },
    {
      "channel": 2,
      "note": 71,
      "start": 9.3629,
      "duration": 0.0278,
      "velocity": 99,
      "chip": "ym2612"
    },
    {
      "channel": 3,
      "note": 47,
      "start": 9.3636,
      "duration": 0.0001,
      "velocity": 127,
      "chip": "ym2612"
    },
    {
      "channel": 3,
      "note": 49,
      "start": 9.3669,
      "duration": 0.1206,
      "velocity": 127,
      "chip": "ym2612"
    },
    {
      "channel": 2,
      "note": 83,
      "start": 9.3934,
      "duration": 0.0077,
      "velocity": 99,
      "chip": "ym2612"
    },
    {
      "channel": 4,
      "note": 78,
      "start": 9.3942,
      "duration": 0.2802,
      "velocity": 62,
      "chip": "ym2612"
    },
    {
      "channel": 2,
      "note": 83,
      "start": 9.4037,
      "duration": 0.022,
      "velocity": 99,
      "chip": "ym2612"
    },
    {
      "channel": 2,
      "note": 83,
      "start": 9.4465,
      "duration": 0.0613,
      "velocity": 99,
      "chip": "ym2612"
    },
    {
      "channel": 3,
      "note": 47,
      "start": 9.5083,
      "duration": 0.0001,
      "velocity": 127,
      "chip": "ym2612"
    },
    {
      "channel": 0,
      "note": 52,
      "start": 9.5279,
      "duration": 0.1659,
      "velocity": 98,
      "chip": "ym2612"
    },
    {
      "channel": 2,
      "note": 83,
      "start": 9.5287,
      "duration": 0.0127,
      "velocity": 99,
      "chip": "ym2612"
    },
    {
      "channel": 3,
      "note": 49,
      "start": 9.5293,
      "duration": 0.0426,
      "velocity": 127,
      "chip": "ym2612"
    },
    {
      "channel": 2,
      "note": 71,
      "start": 9.5441,
      "duration": 0.0125,
      "velocity": 99,
      "chip": "ym2612"
    },
    {
      "channel": 2,
      "note": 76,
      "start": 9.5594,
      "duration": 0.0122,
      "velocity": 99,
      "chip": "ym2612"
    },
    {
      "channel": 1,
      "note": 76,
      "start": 9.5741,
      "duration": 0.0995,
      "velocity": 62,
      "chip": "ym2612"
    },
    {
      "channel": 2,
      "note": 80,
      "start": 9.5746,
      "duration": 0.0993,
      "velocity": 99,
      "chip": "ym2612"
    },
    {
      "channel": 3,
      "note": 47,
      "start": 9.5776,
      "duration": 0.0146,
      "velocity": 127,
      "chip": "ym2612"
    },
    {
      "channel": 3,
      "note": 47,
      "start": 9.6128,
      "duration": 0.0202,
      "velocity": 127,
      "chip": "ym2612"
    },
    {
      "channel": 3,
      "note": 47,
      "start": 9.6538,
      "duration": 0.0203,
      "velocity": 127,
      "chip": "ym2612"
    },
    {
      "channel": 0,
      "note": 52,
      "start": 9.694,
      "duration": 0.0348,
      "velocity": 98,
      "chip": "ym2612"
    },
    {
      "channel": 1,
      "note": 76,
      "start": 9.6945,
      "duration": 0.3114,
      "velocity": 62,
      "chip": "ym2612"
    },
    {
      "channel": 2,
      "note": 83,
      "start": 9.695,
      "duration": 0.3111,
      "velocity": 99,
      "chip": "ym2612"
    },
    {
      "channel": 3,
      "note": 47,
      "start": 9.698,
      "duration": 0.013,
      "velocity": 127,
      "chip": "ym2612"
    },
    {
      "channel": 3,
      "note": 47,
      "start": 9.7138,
      "duration": 0.0131,
      "velocity": 127,
      "chip": "ym2612"
    },
    {
      "channel": 4,
      "note": 78,
      "start": 9.7144,
      "duration": 0.0129,
      "velocity": 62,
      "chip": "ym2612"
    },
    {
      "channel": 0,
      "note": 47,
      "start": 9.729,
      "duration": 0.131,
      "velocity": 98,
      "chip": "ym2612"
    },
    {
      "channel": 3,
      "note": 47,
      "start": 9.7301,
      "duration": 0.013,
      "velocity": 127,
      "chip": "ym2612"
    },
    {
      "channel": 4,
      "note": 76,
      "start": 9.7307,
      "duration": 0.3271,
      "velocity": 62,
      "chip": "ym2612"
    },
    {
      "channel": 3,
      "note": 47,
      "start": 9.7459,
      "duration": 0.0944,
      "velocity": 127,
      "chip": "ym2612"
    },
    {
      "channel": 0,
      "note": 56,
      "start": 9.8603,
      "duration": 0.0422,
      "velocity": 98,
      "chip": "ym2612"
    },
    {
      "channel": 3,
      "note": 47,
      "start": 9.8614,
      "duration": 0.1452,
      "velocity": 127,
      "chip": "ym2612"
    },
    {
      "channel": 0,
      "note": 54,
      "start": 9.9027,
      "duration": 0.0416,
      "velocity": 98,
      "chip": "ym2612"
    },
    {
      "channel": 0,
      "note": 52,
      "start": 9.9445,
      "duration": 0.0817,
      "velocity": 98,
      "chip": "ym2612"
    },
    {
      "channel": 0,
      "note": 60,
      "start": 10.0264,
      "duration": 0.1657,
      "velocity": 98,
      "chip": "ym2612"
    },
    {
      "channel": 1,
      "note": 76,
      "start": 10.0275,
      "duration": 0.1445,
      "velocity": 62,
      "chip": "ym2612"
    },
    {
      "channel": 2,
      "note": 79,
      "start": 10.028,
      "duration": 0.1442,
      "velocity": 99,
      "chip": "ym2612"
    },
    {
      "channel": 3,
      "note": 47,
      "start": 10.0287,
      "duration": 0.0136,
      "velocity": 127,
      "chip": "ym2612"
    },
    {
      "channel": 3,
      "note": 47,
      "start": 10.045,
      "duration": 0.0124,
      "velocity": 127,
      "chip": "ym2612"
    },
    {
      "channel": 3,
      "note": 47,
      "start": 10.0603,
      "duration": 0.0126,
      "velocity": 127,
      "chip": "ym2612"
    },
    {
      "channel": 4,
      "note": 76,
      "start": 10.061,
      "duration": 0.3574,
      "velocity": 62,
      "chip": "ym2612"
    },
    {
      "channel": 3,
      "note": 47,
      "start": 10.0757,
      "duration": 0.0968,
      "velocity": 127,
      "chip": "ym2612"
    },
    {
      "channel": 0,
      "note": 48,
      "start": 10.1924,
      "duration": 0.491,
      "velocity": 98,
      "chip": "ym2612"
    },
    {
      "channel": 2,
      "note": 67,
      "start": 10.1932,
      "duration": 0.4702,
      "velocity": 99,
      "chip": "ym2612"
    },
    {
      "channel": 3,
      "note": 47,
      "start": 10.1962,
      "duration": 0.4675,
      "velocity": 127,
      "chip": "ym2612"
    },
    {
      "channel": 1,
      "note": 76,
      "start": 10.4381,
      "duration": 0.1022,
      "velocity": 62,
      "chip": "ym2612"
    },
    {
      "channel": 1,
      "note": 78,
      "start": 10.561,
      "duration": 0.1022,
      "velocity": 62,
      "chip": "ym2612"
    },
    {
      "channel": 0,
      "note": 59,
      "start": 10.6836,
      "duration": 0.1658,
      "velocity": 98,
      "chip": "ym2612"
    },
    {
      "channel": 1,
      "note": 80,
      "start": 10.6841,
      "duration": 0.145,
      "velocity": 62,
      "chip": "ym2612"
    },
    {
      "channel": 2,
      "note": 76,
      "start": 10.6846,
      "duration": 0.1448,
      "velocity": 99,
      "chip": "ym2612"
    },
    {
      "channel": 3,
      "note": 47,
      "start": 10.6876,
      "duration": 0.0128,
      "velocity": 127,
      "chip": "ym2612"
    },
    {
      "channel": 4,
      "note": 76,
      "start": 10.6883,
      "duration": 0.0125,
      "velocity": 62,
      "chip": "ym2612"
    },
    {
      "channel": 3,
      "note": 47,
      "start": 10.7032,
      "duration": 0.0126,
      "velocity": 127,
      "chip": "ym2612"
    },
    {
      "channel": 4,
      "note": 76,
      "start": 10.7039,
      "duration": 0.0123,
      "velocity": 62,
      "chip": "ym2612"
    },
    {
      "channel": 3,
      "note": 47,
      "start": 10.7186,
      "duration": 0.0127,
      "velocity": 127,
      "chip": "ym2612"
    },
    {
      "channel": 4,
      "note": 78,
      "start": 10.7193,
      "duration": 0.3562,
      "velocity": 62,
      "chip": "ym2612"
    },
    {
      "channel": 3,
      "note": 47,
      "start": 10.734,
      "duration": 0.0958,
      "velocity": 127,
      "chip": "ym2612"
    },
    {
      "channel": 0,
      "note": 47,
      "start": 10.8496,
      "duration": 0.4909,
      "velocity": 98,
      "chip": "ym2612"
    },
    {
      "channel": 2,
      "note": 64,
      "start": 10.8504,
      "duration": 0.4701,
      "velocity": 99,
      "chip": "ym2612"
    },
    {
      "channel": 3,
      "note": 47,
      "start": 10.8534,
      "duration": 0.4675,
      "velocity": 127,
      "chip": "ym2612"
    },
    {
      "channel": 1,
      "note": 80,
      "start": 11.0953,
      "duration": 0.1022,
      "velocity": 62,
      "chip": "ym2612"
    },
    {
      "channel": 1,
      "note": 81,
      "start": 11.2182,
      "duration": 0.1021,
      "velocity": 62,
      "chip": "ym2612"
    },
    {
      "channel": 0,
      "note": 47,
      "start": 11.3412,
      "duration": 0.1655,
      "velocity": 98,
      "chip": "ym2612"
    },
    {
      "channel": 1,
      "note": 85,
      "start": 11.3417,
      "duration": 0.0315,
      "velocity": 62,
      "chip": "ym2612"
    },
    {
      "channel": 2,
      "note": 76,
      "start": 11.3427,
      "duration": 0.1441,
      "velocity": 99,
      "chip": "ym2612"
    },
    {
      "channel": 3,
      "note": 47,
      "start": 11.3456,
      "duration": 0.0129,
      "velocity": 127,
      "chip": "ym2612"
    },
    {
      "channel": 4,
      "note": 80,
      "start": 11.3463,
      "duration": 0.0127,
      "velocity": 62,
      "chip": "ym2612"
    },
    {
      "channel": 3,
      "note": 47,
      "start": 11.3613,
      "duration": 0.0125,
      "velocity": 127,
      "chip": "ym2612"
    },
    {
      "channel": 4,
      "note": 80,
      "start": 11.3619,
      "duration": 0.0122,
      "velocity": 62,
      "chip": "ym2612"
    },
    {
      "channel": 1,
      "note": 83,
      "start": 11.3759,
      "duration": 0.1106,
      "velocity": 62,
      "chip": "ym2612"
    },
    {
      "channel": 3,
      "note": 47,
      "start": 11.3767,
      "duration": 0.1103,
      "velocity": 127,
      "chip": "ym2612"
    },
    {
      "channel": 4,
      "note": 81,
      "start": 11.3774,
      "duration": 0.1101,
      "velocity": 62,
      "chip": "ym2612"
    },
    {
      "channel": 0,
      "note": 47,
      "start": 11.5069,
      "duration": 0.166,
      "velocity": 98,
      "chip": "ym2612"
    },
    {
      "channel": 1,
      "note": 81,
      "start": 11.5074,
      "duration": 0.028,
      "velocity": 62,
      "chip": "ym2612"
    },
    {
      "channel": 2,
      "note": 75,
      "start": 11.5079,
      "duration": 0.1451,
      "velocity": 99,
      "chip": "ym2612"
    },
    {
      "channel": 3,
      "note": 47,
      "start": 11.5085,
      "duration": 0.0274,
      "velocity": 127,
      "chip": "ym2612"
    },
    {
      "channel": 4,
      "note": 85,
      "start": 11.5091,
      "duration": 0.0271,
      "velocity": 62,
      "chip": "ym2612"
    },
    {
      "channel": 1,
      "note": 78,
      "start": 11.538,
      "duration": 0.1147,
      "velocity": 62,
      "chip": "ym2612"
    },
    {
      "channel": 3,
      "note": 47,
      "start": 11.5389,
      "duration": 0.0122,
      "velocity": 127,
      "chip": "ym2612"
    },
    {
      "channel": 4,
      "note": 83,
      "start": 11.5395,
      "duration": 0.1142,
      "velocity": 62,
      "chip": "ym2612"
    },
    {
      "channel": 3,
      "note": 47,
      "start": 11.5537,
      "duration": 0.0996,
      "velocity": 127,
      "chip": "ym2612"
    },
    {
      "channel": 0,
      "note": 52,
      "start": 11.6732,
      "duration": 0.0316,
      "velocity": 98,
      "chip": "ym2612"
    },
    {
      "channel": 1,
      "note": 76,
      "start": 11.6737,
      "duration": 0.1453,
      "velocity": 62,
      "chip": "ym2612"
    },
    {
      "channel": 2,
      "note": 76,
      "start": 11.6742,
      "duration": 0.0284,
      "velocity": 99,
      "chip": "ym2612"
    },
    {
      "channel": 3,
      "note": 47,
      "start": 11.6748,
      "duration": 0.013,
      "velocity": 127,
      "chip": "ym2612"
    },
    {
      "channel": 4,
      "note": 81,
      "start": 11.6754,
      "duration": 0.0278,
      "velocity": 62,
      "chip": "ym2612"
    },
    {
      "channel": 3,
      "note": 47,
      "start": 11.6906,
      "duration": 0.0123,
      "velocity": 127,
      "chip": "ym2612"
    },
    {
      "channel": 0,
      "note": 47,
      "start": 11.705,
      "duration": 0.1342,
      "velocity": 98,
      "chip": "ym2612"
    },
    {
      "channel": 2,
      "note": 71,
      "start": 11.7057,
      "duration": 0.1135,
      "velocity": 99,
      "chip": "ym2612"
    },
    {
      "channel": 3,
      "note": 47,
      "start": 11.7063,
      "duration": 0.0126,
      "velocity": 127,
      "chip": "ym2612"
    },
    {
      "channel": 4,
      "note": 78,
      "start": 11.7069,
      "duration": 0.1614,
      "velocity": 62,
      "chip": "ym2612"
    },
    {
      "channel": 3,
      "note": 47,
      "start": 11.7216,
      "duration": 0.0979,
      "velocity": 127,
      "chip": "ym2612"
    },
    {
      "channel": 0,
      "note": 40,
      "start": 11.8395,
      "duration": 0.1658,
      "velocity": 98,
      "chip": "ym2612"
    },
    {
      "channel": 2,
      "note": 76,
      "start": 11.8403,
      "duration": 0.1451,
      "velocity": 99,
      "chip": "ym2612"
    },
    {
      "channel": 3,
      "note": 47,
      "start": 11.8409,
      "duration": 0.1449,
      "velocity": 127,
      "chip": "ym2612"
    },
    {
      "channel": 0,
      "note": 69,
      "start": 12.0056,
      "duration": 0.0409,
      "velocity": 98,
      "chip": "ym2612"
    },
    {
      "channel": 1,
      "note": 81,
      "start": 12.0097,
      "duration": 0.1416,
      "velocity": 99,
      "chip": "ym2612"
    },
    {
      "channel": 2,
      "note": 73,
      "start": 12.0137,
      "duration": 0.1379,
      "velocity": 99,
      "chip": "ym2612"
    },
    {
      "channel": 3,
      "note": 47,
      "start": 12.017,
      "duration": 0.0277,
      "velocity": 127,
      "chip": "ym2612"
    },
    {
      "channel": 0,
      "note": 68,
      "start": 12.0468,
      "duration": 0.1246,
      "velocity": 98,
      "chip": "ym2612"
    },
    {
      "channel": 3,
      "note": 47,
      "start": 12.0502,
      "duration": 0.0178,
      "velocity": 127,
      "chip": "ym2612"
    },
    {
      "channel": 4,
      "note": 76,
      "start": 12.0559,
      "duration": 0.1474,
      "velocity": 99,
      "chip": "ym2612"
    },
    {
      "channel": 3,
      "note": 47,
      "start": 12.0706,
      "duration": 0.0813,
      "velocity": 127,
      "chip": "ym2612"
    },
    {
      "channel": 0,
      "note": 66,
      "start": 12.1717,
      "duration": 0.033,
      "velocity": 98,
      "chip": "ym2612"
    },
    {
      "channel": 1,
      "note": 81,
      "start": 12.1722,
      "duration": 0.0435,
      "velocity": 99,
      "chip": "ym2612"
    },
    {
      "channel": 2,
      "note": 73,
      "start": 12.1727,
      "duration": 0.0432,
      "velocity": 99,
      "chip": "ym2612"
    },
    {
      "channel": 3,
      "note": 47,
      "start": 12.1757,
      "duration": 0.0273,
      "velocity": 127,
      "chip": "ym2612"
    },
    {
      "channel": 0,
      "note": 64,
      "start": 12.205,
      "duration": 0.1325,
      "velocity": 98,
      "chip": "ym2612"
    },
    {
      "channel": 3,
      "note": 47,
      "start": 12.2084,
      "duration": 0.0134,
      "velocity": 127,
      "chip": "ym2612"
    },
    {
      "channel": 4,
      "note": 81,
      "start": 12.209,
      "duration": 0.1408,
      "velocity": 99,
      "chip": "ym2612"
    },
    {
      "channel": 1,
      "note": 81,
      "start": 12.2183,
      "duration": 0.0171,
      "velocity": 99,
      "chip": "ym2612"
    },
    {
      "channel": 2,
      "note": 73,
      "start": 12.2188,
      "duration": 0.0169,
      "velocity": 99,
      "chip": "ym2612"
    },
    {
      "channel": 3,
      "note": 47,
      "start": 12.2245,
      "duration": 0.0934,
      "velocity": 127,
      "chip": "ym2612"
    },
    {
      "channel": 1,
      "note": 81,
      "start": 12.2561,
      "duration": 0.0612,
      "velocity": 99,
      "chip": "ym2612"
    },
    {
      "channel": 2,
      "note": 73,
      "start": 12.2566,
      "duration": 0.061,
      "velocity": 99,
      "chip": "ym2612"
    },
    {
      "channel": 0,
      "note": 62,
      "start": 12.3377,
      "duration": 0.0339,
      "velocity": 98,
      "chip": "ym2612"
    },
    {
      "channel": 1,
      "note": 83,
      "start": 12.3383,
      "duration": 0.3113,
      "velocity": 99,
      "chip": "ym2612"
    },
    {
      "channel": 2,
      "note": 74,
      "start": 12.3388,
      "duration": 0.3111,
      "velocity": 99,
      "chip": "ym2612"
    },
    {
      "channel": 3,
      "note": 47,
      "start": 12.3417,
      "duration": 0.0282,
      "velocity": 127,
      "chip": "ym2612"
    },
    {
      "channel": 4,
      "note": 81,
      "start": 12.3524,
      "duration": 0.0077,
      "velocity": 99,
      "chip": "ym2612"
    },
    {
      "channel": 4,
      "note": 81,
      "start": 12.3627,
      "duration": 0.0076,
      "velocity": 99,
      "chip": "ym2612"
    },
    {
      "channel": 0,
      "note": 61,
      "start": 12.3719,
      "duration": 0.1317,
      "velocity": 98,
      "chip": "ym2612"
    },
    {
      "channel": 3,
      "note": 47,
      "start": 12.3754,
      "duration": 0.0127,
      "velocity": 127,
      "chip": "ym2612"
    },
    {
      "channel": 4,
      "note": 81,
      "start": 12.376,
      "duration": 0.3266,
      "velocity": 99,
      "chip": "ym2612"
    },
    {
      "channel": 3,
      "note": 47,
      "start": 12.3907,
      "duration": 0.0931,
      "velocity": 127,
      "chip": "ym2612"
    },
    {
      "channel": 0,
      "note": 59,
      "start": 12.5038,
      "duration": 0.0335,
      "velocity": 98,
      "chip": "ym2612"
    },
    {
      "channel": 3,
      "note": 47,
      "start": 12.5073,
      "duration": 0.0283,
      "velocity": 127,
      "chip": "ym2612"
    },
    {
      "channel": 0,
      "note": 57,
      "start": 12.5376,
      "duration": 0.1322,
      "velocity": 98,
      "chip": "ym2612"
    },
    {
      "channel": 3,
      "note": 47,
      "start": 12.5411,
      "duration": 0.0128,
      "velocity": 127,
      "chip": "ym2612"
    },
    {
      "channel": 3,
      "note": 47,
      "start": 12.5566,
      "duration": 0.0936,
      "velocity": 127,
      "chip": "ym2612"
    },
    {
      "channel": 0,
      "note": 56,
      "start": 12.6701,
      "duration": 0.0338,
      "velocity": 98,
      "chip": "ym2612"
    },
    {
      "channel": 1,
      "note": 83,
      "start": 12.6706,
      "duration": 0.1453,
      "velocity": 99,
      "chip": "ym2612"
    },
    {
      "channel": 2,
      "note": 74,
      "start": 12.6711,
      "duration": 0.1451,
      "velocity": 99,
      "chip": "ym2612"
    },
    {
      "channel": 3,
      "note": 47,
      "start": 12.6742,
      "duration": 0.0279,
      "velocity": 127,
      "chip": "ym2612"
    },
    {
      "channel": 0,
      "note": 54,
      "start": 12.7042,
      "duration": 0.132,
      "velocity": 98,
      "chip": "ym2612"
    },
    {
      "channel": 3,
      "note": 47,
      "start": 12.7076,
      "duration": 0.0127,
      "velocity": 127,
      "chip": "ym2612"
    },
    {
      "channel": 4,
      "note": 83,
      "start": 12.7082,
      "duration": 0.1598,
      "velocity": 99,
      "chip": "ym2612"
    },
    {
      "channel": 3,
      "note": 47,
      "start": 12.723,
      "duration": 0.0936,
      "velocity": 127,
      "chip": "ym2612"
    },
    {
      "channel": 0,
      "note": 52,
      "start": 12.8364,
      "duration": 0.0331,
      "velocity": 98,
      "chip": "ym2612"
    },
    {
      "channel": 1,
      "note": 83,
      "start": 12.8369,
      "duration": 0.0486,
      "velocity": 99,
      "chip": "ym2612"
    },
    {
      "channel": 2,
      "note": 74,
      "start": 12.8374,
      "duration": 0.0484,
      "velocity": 99,
      "chip": "ym2612"
    },
    {
      "channel": 3,
      "note": 47,
      "start": 12.8404,
      "duration": 0.0273,
      "velocity": 127,
      "chip": "ym2612"
    },
    {
      "channel": 0,
      "note": 50,
      "start": 12.8698,
      "duration": 0.1325,
      "velocity": 98,
      "chip": "ym2612"
    },
    {
      "channel": 3,
      "note": 47,
      "start": 12.8732,
      "duration": 0.0129,
      "velocity": 127,
      "chip": "ym2612"
    },
    {
      "channel": 4,
      "note": 83,
      "start": 12.8739,
      "duration": 0.1457,
      "velocity": 99,
      "chip": "ym2612"
    },
    {
      "channel": 1,
      "note": 83,
      "start": 12.8882,
      "duration": 0.0939,
      "velocity": 99,
      "chip": "ym2612"
    },
    {
      "channel": 2,
      "note": 74,
      "start": 12.8887,
      "duration": 0.0937,
      "velocity": 99,
      "chip": "ym2612"
    },
    {
      "channel": 3,
      "note": 47,
      "start": 12.8893,
      "duration": 0.0934,
      "velocity": 127,
      "chip": "ym2612"
    },
    {
      "channel": 0,
      "note": 49,
      "start": 13.0026,
      "duration": 0.0336,
      "velocity": 98,
      "chip": "ym2612"
    },
    {
      "channel": 1,
      "note": 85,
      "start": 13.0031,
      "duration": 0.3113,
      "velocity": 99,
      "chip": "ym2612"
    },
    {
      "channel": 2,
      "note": 76,
      "start": 13.0036,
      "duration": 0.3111,
      "velocity": 99,
      "chip": "ym2612"
    },
    {
      "channel": 3,
      "note": 47,
      "start": 13.0066,
      "duration": 0.0278,
      "velocity": 127,
      "chip": "ym2612"
    },
    {
      "channel": 4,
      "note": 83,
      "start": 13.0222,
      "duration": 0.0125,
      "velocity": 99,
      "chip": "ym2612"
    },
    {
      "channel": 0,
      "note": 47,
      "start": 13.0364,
      "duration": 0.132,
      "velocity": 98,
      "chip": "ym2612"
    },
    {
      "channel": 3,
      "note": 47,
      "start": 13.0398,
      "duration": 0.0127,
      "velocity": 127,
      "chip": "ym2612"
    },
    {
      "channel": 4,
      "note": 83,
      "start": 13.0405,
      "duration": 0.3267,
      "velocity": 99,
      "chip": "ym2612"
    },
    {
      "channel": 3,
      "note": 47,
      "start": 13.0552,
      "duration": 0.0936,
      "velocity": 127,
      "chip": "ym2612"
    },
    {
      "channel": 0,
      "note": 45,
      "start": 13.1687,
      "duration": 0.0335,
      "velocity": 98,
      "chip": "ym2612"
    },
    {
      "channel": 3,
      "note": 47,
      "start": 13.1722,
      "duration": 0.0282,
      "velocity": 127,
      "chip": "ym2612"
    },
    {
      "channel": 0,
      "note": 68,
      "start": 13.2024,
      "duration": 0.1323,
      "velocity": 98,
      "chip": "ym2612"
    },
    {
      "channel": 3,
      "note": 47,
      "start": 13.2059,
      "duration": 0.0129,
      "velocity": 127,
      "chip": "ym2612"
    },
    {
      "channel": 3,
      "note": 47,
      "start": 13.2215,
      "duration": 0.0935,
      "velocity": 127,
      "chip": "ym2612"
    },
    {
      "channel": 0,
      "note": 66,
      "start": 13.3349,
      "duration": 0.0337,
      "velocity": 98,
      "chip": "ym2612"
    },
    {
      "channel": 1,
      "note": 85,
      "start": 13.3354,
      "duration": 0.1451,
      "velocity": 99,
      "chip": "ym2612"
    },
    {
      "channel": 2,
      "note": 78,
      "start": 13.3359,
      "duration": 0.1449,
      "velocity": 99,
      "chip": "ym2612"
    },
    {
      "channel": 3,
      "note": 47,
      "start": 13.3391,
      "duration": 0.0277,
      "velocity": 127,
      "chip": "ym2612"
    },
    {
      "channel": 0,
      "note": 64,
      "start": 13.3689,
      "duration": 0.1319,
      "velocity": 98,
      "chip": "ym2612"
    },
    {
      "channel": 3,
      "note": 47,
      "start": 13.3723,
      "duration": 0.0128,
      "velocity": 127,
      "chip": "ym2612"
    },
    {
      "channel": 4,
      "note": 85,
      "start": 13.3729,
      "duration": 0.1598,
      "velocity": 99,
      "chip": "ym2612"
    },
    {
      "channel": 3,
      "note": 47,
      "start": 13.3877,
      "duration": 0.0935,
      "velocity": 127,
      "chip": "ym2612"
    },
    {
      "channel": 0,
      "note": 62,
      "start": 13.5011,
      "duration": 0.0331,
      "velocity": 98,
      "chip": "ym2612"
    },
    {
      "channel": 1,
      "note": 85,
      "start": 13.5016,
      "duration": 0.0486,
      "velocity": 99,
      "chip": "ym2612"
    },
    {
      "channel": 2,
      "note": 78,
      "start": 13.5021,
      "duration": 0.0484,
      "velocity": 99,
      "chip": "ym2612"
    },
    {
      "channel": 3,
      "note": 47,
      "start": 13.5051,
      "duration": 0.0273,
      "velocity": 127,
      "chip": "ym2612"
    },
    {
      "channel": 0,
      "note": 61,
      "start": 13.5344,
      "duration": 0.1326,
      "velocity": 98,
      "chip": "ym2612"
    },
    {
      "channel": 3,
      "note": 47,
      "start": 13.5378,
      "duration": 0.0129,
      "velocity": 127,
      "chip": "ym2612"
    },
    {
      "channel": 4,
      "note": 85,
      "start": 13.5385,
      "duration": 0.1457,
      "velocity": 99,
      "chip": "ym2612"
    },
    {
      "channel": 1,
      "note": 85,
      "start": 13.5529,
      "duration": 0.0939,
      "velocity": 99,
      "chip": "ym2612"
    },
    {
      "channel": 2,
      "note": 78,
      "start": 13.5534,
      "duration": 0.0936,
      "velocity": 99,
      "chip": "ym2612"
    },
    {
      "channel": 3,
      "note": 47,
      "start": 13.554,
      "duration": 0.0934,
      "velocity": 127,
      "chip": "ym2612"
    },
    {
      "channel": 0,
      "note": 59,
      "start": 13.6673,
      "duration": 0.0334,
      "velocity": 98,
      "chip": "ym2612"
    },
    {
      "channel": 1,
      "note": 86,
      "start": 13.6678,
      "duration": 0.1968,
      "velocity": 99,
      "chip": "ym2612"
    },
    {
      "channel": 2,
      "note": 78,
      "start": 13.6683,
      "duration": 0.1966,
      "velocity": 99,
      "chip": "ym2612"
    },
    {
      "channel": 3,
      "note": 47,
      "start": 13.6713,
      "duration": 0.0277,
      "velocity": 127,
      "chip": "ym2612"
    },
    {
      "channel": 4,
      "note": 85,
      "start": 13.6869,
      "duration": 0.0124,
      "velocity": 99,
      "chip": "ym2612"
    },
    {
      "channel": 0,
      "note": 57,
      "start": 13.701,
      "duration": 0.1322,
      "velocity": 98,
      "chip": "ym2612"
    },
    {
      "channel": 3,
      "note": 47,
      "start": 13.7044,
      "duration": 0.0128,
      "velocity": 127,
      "chip": "ym2612"
    },
    {
      "channel": 4,
      "note": 85,
      "start": 13.705,
      "duration": 0.2752,
      "velocity": 99,
      "chip": "ym2612"
    },
    {
      "channel": 3,
      "note": 47,
      "start": 13.7198,
      "duration": 0.0936,
      "velocity": 127,
      "chip": "ym2612"
    },
    {
      "channel": 0,
      "note": 56,
      "start": 13.8334,
      "duration": 0.0336,
      "velocity": 98,
      "chip": "ym2612"
    },
    {
      "channel": 3,
      "note": 47,
      "start": 13.8369,
      "duration": 0.0283,
      "velocity": 127,
      "chip": "ym2612"
    },
    {
      "channel": 0,
      "note": 54,
      "start": 13.8672,
      "duration": 0.1323,
      "velocity": 98,
      "chip": "ym2612"
    },
    {
      "channel": 1,
      "note": 88,
      "start": 13.8677,
      "duration": 0.1116,
      "velocity": 99,
      "chip": "ym2612"
    },
    {
      "channel": 2,
      "note": 78,
      "start": 13.8681,
      "duration": 0.1114,
      "velocity": 99,
      "chip": "ym2612"
    },
    {
      "channel": 3,
      "note": 47,
      "start": 13.8712,
      "duration": 0.0126,
      "velocity": 127,
      "chip": "ym2612"
    },
    {
      "channel": 3,
      "note": 47,
      "start": 13.8865,
      "duration": 0.0933,
      "velocity": 127,
      "chip": "ym2612"
    },
    {
      "channel": 0,
      "note": 52,
      "start": 13.9998,
      "duration": 0.0334,
      "velocity": 98,
      "chip": "ym2612"
    },
    {
      "channel": 1,
      "note": 90,
      "start": 14.0002,
      "duration": 0.311,
      "velocity": 99,
      "chip": "ym2612"
    },
    {
      "channel": 2,
      "note": 81,
      "start": 14.0008,
      "duration": 0.3108,
      "velocity": 99,
      "chip": "ym2612"
    },
    {
      "channel": 3,
      "note": 47,
      "start": 14.0039,
      "duration": 0.0276,
      "velocity": 127,
      "chip": "ym2612"
    },
    {
      "channel": 4,
      "note": 86,
      "start": 14.0045,
      "duration": 0.0272,
      "velocity": 99,
      "chip": "ym2612"
    },
    {
      "channel": 0,
      "note": 47,
      "start": 14.0334,
      "duration": 0.132,
      "velocity": 98,
      "chip": "ym2612"
    },
    {
      "channel": 3,
      "note": 47,
      "start": 14.0369,
      "duration": 0.0127,
      "velocity": 127,
      "chip": "ym2612"
    },
    {
      "channel": 4,
      "note": 88,
      "start": 14.0375,
      "duration": 0.3262,
      "velocity": 99,
      "chip": "ym2612"
    },
    {
      "channel": 3,
      "note": 47,
      "start": 14.0522,
      "duration": 0.0936,
      "velocity": 127,
      "chip": "ym2612"
    },
    {
      "channel": 0,
      "note": 49,
      "start": 14.1657,
      "duration": 0.0334,
      "velocity": 98,
      "chip": "ym2612"
    },
    {
      "channel": 3,
      "note": 47,
      "start": 14.1692,
      "duration": 0.0281,
      "velocity": 127,
      "chip": "ym2612"
    },
    {
      "channel": 0,
      "note": 50,
      "start": 14.1993,
      "duration": 0.1322,
      "velocity": 98,
      "chip": "ym2612"
    },
    {
      "channel": 3,
      "note": 47,
      "start": 14.2028,
      "duration": 0.0128,
      "velocity": 127,
      "chip": "ym2612"
    },
    {
      "channel": 3,
      "note": 47,
      "start": 14.2184,
      "duration": 0.0935,
      "velocity": 127,
      "chip": "ym2612"
    },
    {
      "channel": 0,
      "note": 52,
      "start": 14.3318,
      "duration": 0.0334,
      "velocity": 98,
      "chip": "ym2612"
    },
    {
      "channel": 1,
      "note": 88,
      "start": 14.3323,
      "duration": 0.3113,
      "velocity": 99,
      "chip": "ym2612"
    },
    {
      "channel": 2,
      "note": 80,
      "start": 14.3327,
      "duration": 0.1964,
      "velocity": 99,
      "chip": "ym2612"
    },
    {
      "channel": 3,
      "note": 47,
      "start": 14.3358,
      "duration": 0.0276,
      "velocity": 127,
      "chip": "ym2612"
    },
    {
      "channel": 0,
      "note": 50,
      "start": 14.3654,
      "duration": 0.1321,
      "velocity": 98,
      "chip": "ym2612"
    },
    {
      "channel": 3,
      "note": 47,
      "start": 14.3688,
      "duration": 0.0127,
      "velocity": 127,
      "chip": "ym2612"
    },
    {
      "channel": 4,
      "note": 90,
      "start": 14.3695,
      "duration": 0.3267,
      "velocity": 99,
      "chip": "ym2612"
    },
    {
      "channel": 3,
      "note": 47,
      "start": 14.3842,
      "duration": 0.0936,
      "velocity": 127,
      "chip": "ym2612"
    },
    {
      "channel": 0,
      "note": 49,
      "start": 14.4977,
      "duration": 0.0334,
      "velocity": 98,
      "chip": "ym2612"
    },
    {
      "channel": 3,
      "note": 47,
      "start": 14.5013,
      "duration": 0.0282,
      "velocity": 127,
      "chip": "ym2612"
    },
    {
      "channel": 0,
      "note": 47,
      "start": 14.5314,
      "duration": 0.1324,
      "velocity": 98,
      "chip": "ym2612"
    },
    {
      "channel": 2,
      "note": 78,
      "start": 14.5322,
      "duration": 0.0104,
      "velocity": 99,
      "chip": "ym2612"
    },
    {
      "channel": 3,
      "note": 47,
      "start": 14.5352,
      "duration": 0.0131,
      "velocity": 127,
      "chip": "ym2612"
    },
    {
      "channel": 2,
      "note": 76,
      "start": 14.5451,
      "duration": 0.0168,
      "velocity": 99,
      "chip": "ym2612"
    },
    {
      "channel": 3,
      "note": 47,
      "start": 14.551,
      "duration": 0.0932,
      "velocity": 127,
      "chip": "ym2612"
    },
    {
      "channel": 2,
      "note": 74,
      "start": 14.5826,
      "duration": 0.0613,
      "velocity": 99,
      "chip": "ym2612"
    },
    {
      "channel": 0,
      "note": 45,
      "start": 14.664,
      "duration": 0.0337,
      "velocity": 98,
      "chip": "ym2612"
    },
    {
      "channel": 1,
      "note": 81,
      "start": 14.6645,
      "duration": 0.1453,
      "velocity": 99,
      "chip": "ym2612"
    },
    {
      "channel": 2,
      "note": 73,
      "start": 14.665,
      "duration": 0.1451,
      "velocity": 99,
      "chip": "ym2612"
    },
    {
      "channel": 3,
      "note": 47,
      "start": 14.6681,
      "duration": 0.0278,
      "velocity": 127,
      "chip": "ym2612"
    },
    {
      "channel": 0,
      "note": 68,
      "start": 14.6979,
      "duration": 0.1321,
      "velocity": 98,
      "chip": "ym2612"
    },
    {
      "channel": 3,
      "note": 47,
      "start": 14.7014,
      "duration": 0.0128,
      "velocity": 127,
      "chip": "ym2612"
    },
    {
      "channel": 4,
      "note": 88,
      "start": 14.702,
      "duration": 0.16,
      "velocity": 99,
      "chip": "ym2612"
    },
    {
      "channel": 3,
      "note": 47,
      "start": 14.7168,
      "duration": 0.0936,
      "velocity": 127,
      "chip": "ym2612"
    },
    {
      "channel": 0,
      "note": 66,
      "start": 14.8303,
      "duration": 0.0332,
      "velocity": 98,
      "chip": "ym2612"
    },
    {
      "channel": 1,
      "note": 81,
      "start": 14.8308,
      "duration": 0.0486,
      "velocity": 99,
      "chip": "ym2612"
    },
    {
      "channel": 2,
      "note": 73,
      "start": 14.8312,
      "duration": 0.0484,
      "velocity": 99,
      "chip": "ym2612"
    },
    {
      "channel": 3,
      "note": 47,
      "start": 14.8343,
      "duration": 0.0274,
      "velocity": 127,
      "chip": "ym2612"
    },
    {
      "channel": 0,
      "note": 64,
      "start": 14.8637,
      "duration": 0.1324,
      "velocity": 98,
      "chip": "ym2612"
    },
    {
      "channel": 3,
      "note": 47,
      "start": 14.8671,
      "duration": 0.0128,
      "velocity": 127,
      "chip": "ym2612"
    },
    {
      "channel": 4,
      "note": 81,
      "start": 14.8678,
      "duration": 0.1456,
      "velocity": 99,
      "chip": "ym2612"
    },
    {
      "channel": 1,
      "note": 81,
      "start": 14.882,
      "duration": 0.0939,
      "velocity": 99,
      "chip": "ym2612"
    },
    {
      "channel": 2,
      "note": 73,
      "start": 14.8825,
      "duration": 0.0937,
      "velocity": 99,
      "chip": "ym2612"
    },
    {
      "channel": 3,
      "note": 47,
      "start": 14.8831,
      "duration": 0.0934,
      "velocity": 127,
      "chip": "ym2612"
    },
    {
      "channel": 0,
      "note": 62,
      "start": 14.9964,
      "duration": 0.0334,
      "velocity": 98,
      "chip": "ym2612"
    },
    {
      "channel": 1,
      "note": 83,
      "start": 14.9969,
      "duration": 0.3115,
      "velocity": 99,
      "chip": "ym2612"
    },
    {
      "channel": 2,
      "note": 74,
      "start": 14.9974,
      "duration": 0.3112,
      "velocity": 99,
      "chip": "ym2612"
    },
    {
      "channel": 3,
      "note": 47,
      "start": 15.0004,
      "duration": 0.0277,
      "velocity": 127,
      "chip": "ym2612"
    },
    {
      "channel": 4,
      "note": 81,
      "start": 15.016,
      "duration": 0.0124,
      "velocity": 99,
      "chip": "ym2612"
    },
    {
      "channel": 0,
      "note": 61,
      "start": 15.03,
      "duration": 0.1322,
      "velocity": 98,
      "chip": "ym2612"
    },
    {
      "channel": 3,
      "note": 47,
      "start": 15.0336,
      "duration": 0.0128,
      "velocity": 127,
      "chip": "ym2612"
    },
    {
      "channel": 4,
      "note": 81,
      "start": 15.0342,
      "duration": 0.3268,
      "velocity": 99,
      "chip": "ym2612"
    },
    {
      "channel": 3,
      "note": 47,
      "start": 15.049,
      "duration": 0.0936,
      "velocity": 127,
      "chip": "ym2612"
    },
    {
      "channel": 0,
      "note": 59,
      "start": 15.1625,
      "duration": 0.0335,
      "velocity": 98,
      "chip": "ym2612"
    },
    {
      "channel": 3,
      "note": 47,
      "start": 15.166,
      "duration": 0.0282,
      "velocity": 127,
      "chip": "ym2612"
    },
    {
      "channel": 0,
      "note": 57,
      "start": 15.1962,
      "duration": 0.1324,
      "velocity": 98,
      "chip": "ym2612"
    },
    {
      "channel": 3,
      "note": 47,
      "start": 15.1997,
      "duration": 0.0129,
      "velocity": 127,
      "chip": "ym2612"
    },
    {
      "channel": 3,
      "note": 47,
      "start": 15.2154,
      "duration": 0.0936,
      "velocity": 127,
      "chip": "ym2612"
    },
    {
      "channel": 0,
      "note": 56,
      "start": 15.3288,
      "duration": 0.0337,
      "velocity": 98,
      "chip": "ym2612"
    },
    {
      "channel": 1,
      "note": 83,
      "start": 15.3293,
      "duration": 0.1451,
      "velocity": 99,
      "chip": "ym2612"
    },
    {
      "channel": 2,
      "note": 74,
      "start": 15.3298,
      "duration": 0.1449,
      "velocity": 99,
      "chip": "ym2612"
    },
    {
      "channel": 3,
      "note": 47,
      "start": 15.3329,
      "duration": 0.0277,
      "velocity": 127,
      "chip": "ym2612"
    },
    {
      "channel": 0,
      "note": 54,
      "start": 15.3627,
      "duration": 0.132,
      "velocity": 98,
      "chip": "ym2612"
    },
    {
      "channel": 3,
      "note": 47,
      "start": 15.3662,
      "duration": 0.0127,
      "velocity": 127,
      "chip": "ym2612"
    },
    {
      "channel": 4,
      "note": 83,
      "start": 15.3668,
      "duration": 0.1598,
      "velocity": 99,
      "chip": "ym2612"
    },
    {
      "channel": 3,
      "note": 47,
      "start": 15.3815,
      "duration": 0.0936,
      "velocity": 127,
      "chip": "ym2612"
    },
    {
      "channel": 0,
      "note": 52,
      "start": 15.4949,
      "duration": 0.0331,
      "velocity": 98,
      "chip": "ym2612"
    },
    {
      "channel": 1,
      "note": 83,
      "start": 15.4955,
      "duration": 0.0485,
      "velocity": 99,
      "chip": "ym2612"
    },
    {
      "channel": 2,
      "note": 74,
      "start": 15.4959,
      "duration": 0.0483,
      "velocity": 99,
      "chip": "ym2612"
    },
    {
      "channel": 3,
      "note": 47,
      "start": 15.499,
      "duration": 0.0273,
      "velocity": 127,
      "chip": "ym2612"
    },
    {
      "channel": 0,
      "note": 50,
      "start": 15.5283,
      "duration": 0.1324,
      "velocity": 98,
      "chip": "ym2612"
    },
    {
      "channel": 3,
      "note": 47,
      "start": 15.5317,
      "duration": 0.0127,
      "velocity": 127,
      "chip": "ym2612"
    },
    {
      "channel": 4,
      "note": 83,
      "start": 15.5324,
      "duration": 0.1455,
      "velocity": 99,
      "chip": "ym2612"
    },
    {
      "channel": 1,
      "note": 83,
      "start": 15.5466,
      "duration": 0.0939,
      "velocity": 99,
      "chip": "ym2612"
    },
    {
      "channel": 2,
      "note": 74,
      "start": 15.5471,
      "duration": 0.0936,
      "velocity": 99,
      "chip": "ym2612"
    },
    {
      "channel": 3,
      "note": 47,
      "start": 15.5476,
      "duration": 0.0934,
      "velocity": 127,
      "chip": "ym2612"
    },
    {
      "channel": 0,
      "note": 49,
      "start": 15.6609,
      "duration": 0.0335,
      "velocity": 98,
      "chip": "ym2612"
    },
    {
      "channel": 1,
      "note": 85,
      "start": 15.6615,
      "duration": 0.3111,
      "velocity": 99,
      "chip": "ym2612"
    },
    {
      "channel": 2,
      "note": 77,
      "start": 15.662,
      "duration": 0.3109,
      "velocity": 99,
      "chip": "ym2612"
    },
    {
      "channel": 3,
      "note": 47,
      "start": 15.6649,
      "duration": 0.0278,
      "velocity": 127,
      "chip": "ym2612"
    },
    {
      "channel": 4,
      "note": 83,
      "start": 15.6805,
      "duration": 0.0125,
      "velocity": 99,
      "chip": "ym2612"
    },
    {
      "channel": 0,
      "note": 53,
      "start": 15.6946,
      "duration": 0.1322,
      "velocity": 98,
      "chip": "ym2612"
    },
    {
      "channel": 3,
      "note": 47,
      "start": 15.6981,
      "duration": 0.0127,
      "velocity": 127,
      "chip": "ym2612"
    },
    {
      "channel": 4,
      "note": 83,
      "start": 15.6988,
      "duration": 0.3263,
      "velocity": 99,
      "chip": "ym2612"
    },
    {
      "channel": 3,
      "note": 47,
      "start": 15.7135,
      "duration": 0.0936,
      "velocity": 127,
      "chip": "ym2612"
    },
    {
      "channel": 0,
      "note": 56,
      "start": 15.8271,
      "duration": 0.0333,
      "velocity": 98,
      "chip": "ym2612"
    },
    {
      "channel": 3,
      "note": 47,
      "start": 15.8306,
      "duration": 0.028,
      "velocity": 127,
      "chip": "ym2612"
    },
    {
      "channel": 0,
      "note": 61,
      "start": 15.8607,
      "duration": 0.1322,
      "velocity": 98,
      "chip": "ym2612"
    },
    {
      "channel": 3,
      "note": 47,
      "start": 15.8641,
      "duration": 0.0128,
      "velocity": 127,
      "chip": "ym2612"
    },
    {
      "channel": 3,
      "note": 47,
      "start": 15.8797,
      "duration": 0.0935,
      "velocity": 127,
      "chip": "ym2612"
    },
    {
      "channel": 0,
      "note": 66,
      "start": 15.993,
      "duration": 0.0336,
      "velocity": 98,
      "chip": "ym2612"
    },
    {
      "channel": 1,
      "note": 85,
      "start": 15.9936,
      "duration": 0.1452,
      "velocity": 99,
      "chip": "ym2612"
    },
    {
      "channel": 2,
      "note": 78,
      "start": 15.9941,
      "duration": 0.145,
      "velocity": 99,
      "chip": "ym2612"
    },
    {
      "channel": 3,
      "note": 47,
      "start": 15.9972,
      "duration": 0.0276,
      "velocity": 127,
      "chip": "ym2612"
    },
    {
      "channel": 0,
      "note": 64,
      "start": 16.0268,
      "duration": 0.1322,
      "velocity": 98,
      "chip": "ym2612"
    },
    {
      "channel": 3,
      "note": 47,
      "start": 16.0302,
      "duration": 0.0129,
      "velocity": 127,
      "chip": "ym2612"
    },
    {
      "channel": 4,
      "note": 85,
      "start": 16.0309,
      "duration": 0.16,
      "velocity": 99,
      "chip": "ym2612"
    },
    {
      "channel": 3,
      "note": 47,
      "start": 16.0458,
      "duration": 0.0936,
      "velocity": 127,
      "chip": "ym2612"
    },
    {
      "channel": 0,
      "note": 62,
      "start": 16.1593,
      "duration": 0.0331,
      "velocity": 98,
      "chip": "ym2612"
    },
    {
      "channel": 1,
      "note": 85,
      "start": 16.1598,
      "duration": 0.0486,
      "velocity": 99,
      "chip": "ym2612"
    },
    {
      "channel": 2,
      "note": 78,
      "start": 16.1603,
      "duration": 0.0483,
      "velocity": 99,
      "chip": "ym2612"
    },
    {
      "channel": 3,
      "note": 47,
      "start": 16.1633,
      "duration": 0.0273,
      "velocity": 127,
      "chip": "ym2612"
    },
    {
      "channel": 0,
      "note": 61,
      "start": 16.1926,
      "duration": 0.1326,
      "velocity": 98,
      "chip": "ym2612"
    },
    {
      "channel": 3,
      "note": 47,
      "start": 16.196,
      "duration": 0.0129,
      "velocity": 127,
      "chip": "ym2612"
    },
    {
      "channel": 4,
      "note": 85,
      "start": 16.1966,
      "duration": 0.1459,
      "velocity": 99,
      "chip": "ym2612"
    },
    {
      "channel": 1,
      "note": 85,
      "start": 16.211,
      "duration": 0.0939,
      "velocity": 99,
      "chip": "ym2612"
    },
    {
      "channel": 2,
      "note": 78,
      "start": 16.2115,
      "duration": 0.0937,
      "velocity": 99,
      "chip": "ym2612"
    },
    {
      "channel": 3,
      "note": 47,
      "start": 16.2121,
      "duration": 0.0934,
      "velocity": 127,
      "chip": "ym2612"
    },
    {
      "channel": 0,
      "note": 59,
      "start": 16.3254,
      "duration": 0.0336,
      "velocity": 98,
      "chip": "ym2612"
    },
    {
      "channel": 1,
      "note": 86,
      "start": 16.326,
      "duration": 0.0307,
      "velocity": 99,
      "chip": "ym2612"
    },
    {
      "channel": 2,
      "note": 78,
      "start": 16.3264,
      "duration": 0.1966,
      "velocity": 99,
      "chip": "ym2612"
    },
    {
      "channel": 3,
      "note": 47,
      "start": 16.3295,
      "duration": 0.0277,
      "velocity": 127,
      "chip": "ym2612"
    },
    {
      "channel": 4,
      "note": 85,
      "start": 16.3451,
      "duration": 0.0124,
      "velocity": 99,
      "chip": "ym2612"
    },
    {
      "channel": 0,
      "note": 57,
      "start": 16.3592,
      "duration": 0.1321,
      "velocity": 98,
      "chip": "ym2612"
    },
    {
      "channel": 1,
      "note": 85,
      "start": 16.3597,
      "duration": 0.1114,
      "velocity": 99,
      "chip": "ym2612"
    },
    {
      "channel": 3,
      "note": 47,
      "start": 16.3629,
      "duration": 0.0128,
      "velocity": 127,
      "chip": "ym2612"
    },
    {
      "channel": 4,
      "note": 85,
      "start": 16.3635,
      "duration": 0.1084,
      "velocity": 99,
      "chip": "ym2612"
    },
    {
      "channel": 3,
      "note": 47,
      "start": 16.3784,
      "duration": 0.0932,
      "velocity": 127,
      "chip": "ym2612"
    },
    {
      "channel": 0,
      "note": 56,
      "start": 16.4916,
      "duration": 0.0337,
      "velocity": 98,
      "chip": "ym2612"
    },
    {
      "channel": 1,
      "note": 83,
      "start": 16.4921,
      "duration": 0.0307,
      "velocity": 99,
      "chip": "ym2612"
    },
    {
      "channel": 3,
      "note": 47,
      "start": 16.4953,
      "duration": 0.0281,
      "velocity": 127,
      "chip": "ym2612"
    },
    {
      "channel": 4,
      "note": 86,
      "start": 16.4959,
      "duration": 0.0278,
      "velocity": 99,
      "chip": "ym2612"
    },
    {
      "channel": 0,
      "note": 54,
      "start": 16.5255,
      "duration": 0.1319,
      "velocity": 98,
      "chip": "ym2612"
    },
    {
      "channel": 1,
      "note": 81,
      "start": 16.526,
      "duration": 0.1111,
      "velocity": 99,
      "chip": "ym2612"
    },
    {
      "channel": 2,
      "note": 78,
      "start": 16.5264,
      "duration": 0.1109,
      "velocity": 99,
      "chip": "ym2612"
    },
    {
      "channel": 3,
      "note": 47,
      "start": 16.5295,
      "duration": 0.0126,
      "velocity": 127,
      "chip": "ym2612"
    },
    {
      "channel": 4,
      "note": 85,
      "start": 16.5301,
      "duration": 0.1079,
      "velocity": 99,
      "chip": "ym2612"
    },
    {
      "channel": 3,
      "note": 47,
      "start": 16.5448,
      "duration": 0.0929,
      "velocity": 127,
      "chip": "ym2612"
    },
    {
      "channel": 0,
      "note": 64,
      "start": 16.6577,
      "duration": 0.2452,
      "velocity": 98,
      "chip": "ym2612"
    },
    {
      "channel": 1,
      "note": 81,
      "start": 16.6583,
      "duration": 0.4699,
      "velocity": 99,
      "chip": "ym2612"
    },
    {
      "channel": 2,
      "note": 76,
      "start": 16.659,
      "duration": 0.4696,
      "velocity": 99,
      "chip": "ym2612"
    },
    {
      "channel": 3,
      "note": 47,
      "start": 16.6621,
      "duration": 0.2211,
      "velocity": 127,
      "chip": "ym2612"
    },
    {
      "channel": 4,
      "note": 83,
      "start": 16.6627,
      "duration": 0.2208,
      "velocity": 99,
      "chip": "ym2612"
    },
    {
      "channel": 0,
      "note": 52,
      "start": 16.9032,
      "duration": 0.2454,
      "velocity": 98,
      "chip": "ym2612"
    },
    {
      "channel": 3,
      "note": 47,
      "start": 16.9066,
      "duration": 0.0994,
      "velocity": 127,
      "chip": "ym2612"
    },
    {
      "channel": 4,
      "note": 81,
      "start": 16.9073,
      "duration": 0.2731,
      "velocity": 99,
      "chip": "ym2612"
    },
    {
      "channel": 3,
      "note": 47,
      "start": 17.0267,
      "duration": 0.1022,
      "velocity": 127,
      "chip": "ym2612"
    },
    {
      "channel": 0,
      "note": 52,
      "start": 17.1488,
      "duration": 0.0332,
      "velocity": 98,
      "chip": "ym2612"
    },
    {
      "channel": 1,
      "note": 80,
      "start": 17.1493,
      "duration": 0.1452,
      "velocity": 99,
      "chip": "ym2612"
    },
    {
      "channel": 2,
      "note": 74,
      "start": 17.1498,
      "duration": 0.145,
      "velocity": 99,
      "chip": "ym2612"
    },
    {
      "channel": 3,
      "note": 47,
      "start": 17.1527,
      "duration": 0.0273,
      "velocity": 127,
      "chip": "ym2612"
    },
    {
      "channel": 0,
      "note": 52,
      "start": 17.1822,
      "duration": 0.1326,
      "velocity": 98,
      "chip": "ym2612"
    },
    {
      "channel": 3,
      "note": 47,
      "start": 17.1856,
      "duration": 0.0128,
      "velocity": 127,
      "chip": "ym2612"
    },
    {
      "channel": 4,
      "note": 81,
      "start": 17.1863,
      "duration": 0.16,
      "velocity": 99,
      "chip": "ym2612"
    },
    {
      "channel": 3,
      "note": 47,
      "start": 17.201,
      "duration": 0.0941,
      "velocity": 127,
      "chip": "ym2612"
    },
    {
      "channel": 0,
      "note": 57,
      "start": 17.315,
      "duration": 0.0328,
      "velocity": 98,
      "chip": "ym2612"
    },
    {
      "channel": 1,
      "note": 81,
      "start": 17.3155,
      "duration": 0.0299,
      "velocity": 99,
      "chip": "ym2612"
    },
    {
      "channel": 2,
      "note": 73,
      "start": 17.316,
      "duration": 0.0297,
      "velocity": 99,
      "chip": "ym2612"
    },
    {
      "channel": 3,
      "note": 47,
      "start": 17.319,
      "duration": 0.0269,
      "velocity": 127,
      "chip": "ym2612"
    },
    {
      "channel": 1,
      "note": 76,
      "start": 17.3483,
      "duration": 0.0105,
      "velocity": 99,
      "chip": "ym2612"
    },
    {
      "channel": 2,
      "note": 64,
      "start": 17.3488,
      "duration": 0.0102,
      "velocity": 99,
      "chip": "ym2612"
    },
    {
      "channel": 3,
      "note": 47,
      "start": 17.3518,
      "duration": 0.0128,
      "velocity": 127,
      "chip": "ym2612"
    },
    {
      "channel": 4,
      "note": 80,
      "start": 17.3525,
      "duration": 0.109,
      "velocity": 99,
      "chip": "ym2612"
    },
    {
      "channel": 1,
      "note": 76,
      "start": 17.3614,
      "duration": 0.0173,
      "velocity": 99,
      "chip": "ym2612"
    },
    {
      "channel": 2,
      "note": 64,
      "start": 17.3619,
      "duration": 0.017,
      "velocity": 99,
      "chip": "ym2612"
    },
    {
      "channel": 3,
      "note": 47,
      "start": 17.3673,
      "duration": 0.0938,
      "velocity": 127,
      "chip": "ym2612"
    },
    {
      "channel": 1,
      "note": 76,
      "start": 17.3993,
      "duration": 0.0612,
      "velocity": 99,
      "chip": "ym2612"
    },
    {
      "channel": 2,
      "note": 64,
      "start": 17.3998,
      "duration": 0.061,
      "velocity": 99,
      "chip": "ym2612"
    },
    {
      "channel": 0,
      "note": 52,
      "start": 17.481,
      "duration": 0.0347,
      "velocity": 98,
      "chip": "ym2612"
    },
    {
      "channel": 1,
      "note": 76,
      "start": 17.4815,
      "duration": 0.0164,
      "velocity": 99,
      "chip": "ym2612"
    },
    {
      "channel": 2,
      "note": 64,
      "start": 17.482,
      "duration": 0.0315,
      "velocity": 99,
      "chip": "ym2612"
    },
    {
      "channel": 3,
      "note": 47,
      "start": 17.485,
      "duration": 0.0287,
      "velocity": 127,
      "chip": "ym2612"
    },
    {
      "channel": 4,
      "note": 81,
      "start": 17.4857,
      "duration": 0.0078,
      "velocity": 99,
      "chip": "ym2612"
    },
    {
      "channel": 4,
      "note": 76,
      "start": 17.4961,
      "duration": 0.0077,
      "velocity": 99,
      "chip": "ym2612"
    },
    {
      "channel": 4,
      "note": 76,
      "start": 17.5066,
      "duration": 0.0076,
      "velocity": 99,
      "chip": "ym2612"
    },
    {
      "channel": 0,
      "note": 52,
      "start": 17.5159,
      "duration": 0.031,
      "velocity": 98,
      "chip": "ym2612"
    },
    {
      "channel": 1,
      "note": 76,
      "start": 17.5165,
      "duration": 0.0134,
      "velocity": 99,
      "chip": "ym2612"
    },
    {
      "channel": 2,
      "note": 64,
      "start": 17.5169,
      "duration": 0.0279,
      "velocity": 99,
      "chip": "ym2612"
    },
    {
      "channel": 3,
      "note": 47,
      "start": 17.5175,
      "duration": 0.0276,
      "velocity": 127,
      "chip": "ym2612"
    },
    {
      "channel": 4,
      "note": 76,
      "start": 17.5182,
      "duration": 0.0273,
      "velocity": 99,
      "chip": "ym2612"
    },
    {
      "channel": 0,
      "note": 69,
      "start": 17.5473,
      "duration": 0.2452,
      "velocity": 98,
      "chip": "ym2612"
    },
    {
      "channel": 1,
      "note": 81,
      "start": 17.5512,
      "duration": 0.4666,
      "velocity": 99,
      "chip": "ym2612"
    },
    {
      "channel": 2,
      "note": 73,
      "start": 17.5552,
      "duration": 0.4629,
      "velocity": 99,
      "chip": "ym2612"
    },
    {
      "channel": 3,
      "note": 47,
      "start": 17.5583,
      "duration": 0.2144,
      "velocity": 127,
      "chip": "ym2612"
    },
    {
      "channel": 4,
      "note": 76,
      "start": 17.559,
      "duration": 0.2141,
      "velocity": 99,
      "chip": "ym2612"
    },
    {
      "channel": 0,
      "note": 68,
      "start": 17.7927,
      "duration": 0.2454,
      "velocity": 98,
      "chip": "ym2612"
    },
    {
      "channel": 3,
      "note": 47,
      "start": 17.7961,
      "duration": 0.0994,
      "velocity": 127,
      "chip": "ym2612"
    },
    {
      "channel": 4,
      "note": 76,
      "start": 17.7967,
      "duration": 0.2742,
      "velocity": 99,
      "chip": "ym2612"
    },
    {
      "channel": 3,
      "note": 47,
      "start": 17.9162,
      "duration": 0.1022,
      "velocity": 127,
      "chip": "ym2612"
    },
    {
      "channel": 0,
      "note": 66,
      "start": 18.0383,
      "duration": 0.0341,
      "velocity": 98,
      "chip": "ym2612"
    },
    {
      "channel": 1,
      "note": 81,
      "start": 18.0388,
      "duration": 0.0447,
      "velocity": 99,
      "chip": "ym2612"
    },
    {
      "channel": 2,
      "note": 73,
      "start": 18.0393,
      "duration": 0.0444,
      "velocity": 99,
      "chip": "ym2612"
    },
    {
      "channel": 3,
      "note": 47,
      "start": 18.0423,
      "duration": 0.0283,
      "velocity": 127,
      "chip": "ym2612"
    },
    {
      "channel": 0,
      "note": 64,
      "start": 18.0727,
      "duration": 0.1313,
      "velocity": 98,
      "chip": "ym2612"
    },
    {
      "channel": 3,
      "note": 47,
      "start": 18.0761,
      "duration": 0.0139,
      "velocity": 127,
      "chip": "ym2612"
    },
    {
      "channel": 4,
      "note": 81,
      "start": 18.0768,
      "duration": 0.1897,
      "velocity": 99,
      "chip": "ym2612"
    },
    {
      "channel": 1,
      "note": 81,
      "start": 18.0861,
      "duration": 0.0159,
      "velocity": 99,
      "chip": "ym2612"
    },
    {
      "channel": 2,
      "note": 73,
      "start": 18.0866,
      "duration": 0.0156,
      "velocity": 99,
      "chip": "ym2612"
    },
    {
      "channel": 3,
      "note": 47,
      "start": 18.0926,
      "duration": 0.0918,
      "velocity": 127,
      "chip": "ym2612"
    },
    {
      "channel": 1,
      "note": 81,
      "start": 18.1226,
      "duration": 0.0612,
      "velocity": 99,
      "chip": "ym2612"
    },
    {
      "channel": 2,
      "note": 73,
      "start": 18.1231,
      "duration": 0.061,
      "velocity": 99,
      "chip": "ym2612"
    },
    {
      "channel": 0,
      "note": 62,
      "start": 18.2043,
      "duration": 0.2454,
      "velocity": 98,
      "chip": "ym2612"
    },
    {
      "channel": 1,
      "note": 83,
      "start": 18.2048,
      "duration": 0.6364,
      "velocity": 99,
      "chip": "ym2612"
    },
    {
      "channel": 2,
      "note": 74,
      "start": 18.2053,
      "duration": 0.6362,
      "velocity": 99,
      "chip": "ym2612"
    },
    {
      "channel": 3,
      "note": 47,
      "start": 18.2083,
      "duration": 0.2216,
      "velocity": 127,
      "chip": "ym2612"
    },
    {
      "channel": 4,
      "note": 81,
      "start": 18.2871,
      "duration": 0.0612,
      "velocity": 99,
      "chip": "ym2612"
    },
    {
      "channel": 4,
      "note": 81,
      "start": 18.369,
      "duration": 0.0613,
      "velocity": 99,
      "chip": "ym2612"
    },
    {
      "channel": 0,
      "note": 61,
      "start": 18.4498,
      "duration": 0.2454,
      "velocity": 98,
      "chip": "ym2612"
    },
    {
      "channel": 3,
      "note": 47,
      "start": 18.4532,
      "duration": 0.0994,
      "velocity": 127,
      "chip": "ym2612"
    },
    {
      "channel": 4,
      "note": 81,
      "start": 18.4539,
      "duration": 0.6337,
      "velocity": 99,
      "chip": "ym2612"
    },
    {
      "channel": 3,
      "note": 47,
      "start": 18.5734,
      "duration": 0.1022,
      "velocity": 127,
      "chip": "ym2612"
    },
    {
      "channel": 0,
      "note": 59,
      "start": 18.6954,
      "duration": 0.0345,
      "velocity": 98,
      "chip": "ym2612"
    },
    {
      "channel": 3,
      "note": 47,
      "start": 18.6989,
      "duration": 0.0293,
      "velocity": 127,
      "chip": "ym2612"
    },
    {
      "channel": 0,
      "note": 57,
      "start": 18.7301,
      "duration": 0.1313,
      "velocity": 98,
      "chip": "ym2612"
    },
    {
      "channel": 3,
      "note": 47,
      "start": 18.7337,
      "duration": 0.0133,
      "velocity": 127,
      "chip": "ym2612"
    },
    {
      "channel": 3,
      "note": 47,
      "start": 18.7497,
      "duration": 0.0921,
      "velocity": 127,
      "chip": "ym2612"
    },
    {
      "channel": 0,
      "note": 56,
      "start": 18.8616,
      "duration": 0.2454,
      "velocity": 98,
      "chip": "ym2612"
    },
    {
      "channel": 1,
      "note": 83,
      "start": 18.8621,
      "duration": 0.4702,
      "velocity": 99,
      "chip": "ym2612"
    },
    {
      "channel": 2,
      "note": 74,
      "start": 18.8626,
      "duration": 0.47,
      "velocity": 99,
      "chip": "ym2612"
    },
    {
      "channel": 3,
      "note": 47,
      "start": 18.8657,
      "duration": 0.2215,
      "velocity": 127,
      "chip": "ym2612"
    },
    {
      "channel": 0,
      "note": 54,
      "start": 19.1072,
      "duration": 0.2454,
      "velocity": 98,
      "chip": "ym2612"
    },
    {
      "channel": 3,
      "note": 47,
      "start": 19.1107,
      "duration": 0.0993,
      "velocity": 127,
      "chip": "ym2612"
    },
    {
      "channel": 4,
      "note": 83,
      "start": 19.1113,
      "duration": 0.2741,
      "velocity": 99,
      "chip": "ym2612"
    },
    {
      "channel": 3,
      "note": 47,
      "start": 19.2307,
      "duration": 0.1022,
      "velocity": 127,
      "chip": "ym2612"
    },
    {
      "channel": 0,
      "note": 52,
      "start": 19.3528,
      "duration": 0.0341,
      "velocity": 98,
      "chip": "ym2612"
    },
    {
      "channel": 1,
      "note": 83,
      "start": 19.3533,
      "duration": 0.05,
      "velocity": 99,
      "chip": "ym2612"
    },
    {
      "channel": 2,
      "note": 74,
      "start": 19.3538,
      "duration": 0.0498,
      "velocity": 99,
      "chip": "ym2612"
    },
    {
      "channel": 3,
      "note": 47,
      "start": 19.3568,
      "duration": 0.0283,
      "velocity": 127,
      "chip": "ym2612"
    },
    {
      "channel": 0,
      "note": 50,
      "start": 19.3871,
      "duration": 0.1315,
      "velocity": 98,
      "chip": "ym2612"
    },
    {
      "channel": 3,
      "note": 47,
      "start": 19.3906,
      "duration": 0.0133,
      "velocity": 127,
      "chip": "ym2612"
    },
    {
      "channel": 4,
      "note": 83,
      "start": 19.3912,
      "duration": 0.2307,
      "velocity": 99,
      "chip": "ym2612"
    },
    {
      "channel": 1,
      "note": 83,
      "start": 19.406,
      "duration": 0.0923,
      "velocity": 99,
      "chip": "ym2612"
    },
    {
      "channel": 2,
      "note": 74,
      "start": 19.4065,
      "duration": 0.0921,
      "velocity": 99,
      "chip": "ym2612"
    },
    {
      "channel": 3,
      "note": 47,
      "start": 19.4071,
      "duration": 0.0918,
      "velocity": 127,
      "chip": "ym2612"
    },
    {
      "channel": 0,
      "note": 49,
      "start": 19.5188,
      "duration": 0.2454,
      "velocity": 98,
      "chip": "ym2612"
    },
    {
      "channel": 1,
      "note": 85,
      "start": 19.5193,
      "duration": 0.6363,
      "velocity": 99,
      "chip": "ym2612"
    },
    {
      "channel": 2,
      "note": 76,
      "start": 19.5198,
      "duration": 0.6361,
      "velocity": 99,
      "chip": "ym2612"
    },
    {
      "channel": 3,
      "note": 47,
      "start": 19.5228,
      "duration": 0.2216,
      "velocity": 127,
      "chip": "ym2612"
    },
    {
      "channel": 4,
      "note": 83,
      "start": 19.6426,
      "duration": 0.1021,
      "velocity": 99,
      "chip": "ym2612"
    },
    {
      "channel": 0,
      "note": 47,
      "start": 19.7643,
      "duration": 0.2454,
      "velocity": 98,
      "chip": "ym2612"
    },
    {
      "channel": 3,
      "note": 47,
      "start": 19.7678,
      "duration": 0.0994,
      "velocity": 127,
      "chip": "ym2612"
    },
    {
      "channel": 4,
      "note": 83,
      "start": 19.7684,
      "duration": 0.6337,
      "velocity": 99,
      "chip": "ym2612"
    },
    {
      "channel": 3,
      "note": 47,
      "start": 19.8879,
      "duration": 0.1022,
      "velocity": 127,
      "chip": "ym2612"
    },
    {
      "channel": 0,
      "note": 45,
      "start": 20.0099,
      "duration": 0.0343,
      "velocity": 98,
      "chip": "ym2612"
    },
    {
      "channel": 3,
      "note": 47,
      "start": 20.0134,
      "duration": 0.0291,
      "velocity": 127,
      "chip": "ym2612"
    },
    {
      "channel": 0,
      "note": 68,
      "start": 20.0445,
      "duration": 0.1314,
      "velocity": 98,
      "chip": "ym2612"
    },
    {
      "channel": 3,
      "note": 47,
      "start": 20.048,
      "duration": 0.0133,
      "velocity": 127,
      "chip": "ym2612"
    },
    {
      "channel": 3,
      "note": 47,
      "start": 20.0641,
      "duration": 0.0922,
      "velocity": 127,
      "chip": "ym2612"
    },
    {
      "channel": 0,
      "note": 66,
      "start": 20.1761,
      "duration": 0.2454,
      "velocity": 98,
      "chip": "ym2612"
    },
    {
      "channel": 1,
      "note": 85,
      "start": 20.1766,
      "duration": 0.4702,
      "velocity": 99,
      "chip": "ym2612"
    },
    {
      "channel": 2,
      "note": 78,
      "start": 20.1771,
      "duration": 0.47,
      "velocity": 99,
      "chip": "ym2612"
    },
    {
      "channel": 3,
      "note": 47,
      "start": 20.1802,
      "duration": 0.2215,
      "velocity": 127,
      "chip": "ym2612"
    },
    {
      "channel": 0,
      "note": 64,
      "start": 20.4217,
      "duration": 0.2454,
      "velocity": 98,
      "chip": "ym2612"
    },
    {
      "channel": 3,
      "note": 47,
      "start": 20.4251,
      "duration": 0.0994,
      "velocity": 127,
      "chip": "ym2612"
    },
    {
      "channel": 4,
      "note": 85,
      "start": 20.4258,
      "duration": 0.2741,
      "velocity": 99,
      "chip": "ym2612"
    },
    {
      "channel": 3,
      "note": 47,
      "start": 20.5452,
      "duration": 0.1022,
      "velocity": 127,
      "chip": "ym2612"
    },
    {
      "channel": 0,
      "note": 62,
      "start": 20.6673,
      "duration": 0.034,
      "velocity": 98,
      "chip": "ym2612"
    },
    {
      "channel": 1,
      "note": 85,
      "start": 20.6678,
      "duration": 0.05,
      "velocity": 99,
      "chip": "ym2612"
    },
    {
      "channel": 2,
      "note": 78,
      "start": 20.6683,
      "duration": 0.0498,
      "velocity": 99,
      "chip": "ym2612"
    },
    {
      "channel": 3,
      "note": 47,
      "start": 20.6713,
      "duration": 0.0282,
      "velocity": 127,
      "chip": "ym2612"
    },
    {
      "channel": 0,
      "note": 61,
      "start": 20.7016,
      "duration": 0.1317,
      "velocity": 98,
      "chip": "ym2612"
    },
    {
      "channel": 3,
      "note": 47,
      "start": 20.705,
      "duration": 0.0134,
      "velocity": 127,
      "chip": "ym2612"
    },
    {
      "channel": 4,
      "note": 85,
      "start": 20.7057,
      "duration": 0.2309,
      "velocity": 99,
      "chip": "ym2612"
    },
    {
      "channel": 1,
      "note": 85,
      "start": 20.7205,
      "duration": 0.0924,
      "velocity": 99,
      "chip": "ym2612"
    },
    {
      "channel": 2,
      "note": 78,
      "start": 20.721,
      "duration": 0.0922,
      "velocity": 99,
      "chip": "ym2612"
    },
    {
      "channel": 3,
      "note": 47,
      "start": 20.7216,
      "duration": 0.0919,
      "velocity": 127,
      "chip": "ym2612"
    },
    {
      "channel": 0,
      "note": 59,
      "start": 20.8334,
      "duration": 0.2454,
      "velocity": 98,
      "chip": "ym2612"
    },
    {
      "channel": 1,
      "note": 86,
      "start": 20.834,
      "duration": 0.5228,
      "velocity": 99,
      "chip": "ym2612"
    },
    {
      "channel": 2,
      "note": 78,
      "start": 20.8345,
      "duration": 0.5226,
      "velocity": 99,
      "chip": "ym2612"
    },
    {
      "channel": 3,
      "note": 47,
      "start": 20.8375,
      "duration": 0.2216,
      "velocity": 127,
      "chip": "ym2612"
    },
    {
      "channel": 4,
      "note": 85,
      "start": 20.9573,
      "duration": 0.1022,
      "velocity": 99,
      "chip": "ym2612"
    },
    {
      "channel": 0,
      "note": 57,
      "start": 21.079,
      "duration": 0.2454,
      "velocity": 98,
      "chip": "ym2612"
    },
    {
      "channel": 3,
      "note": 47,
      "start": 21.0824,
      "duration": 0.0994,
      "velocity": 127,
      "chip": "ym2612"
    },
    {
      "channel": 4,
      "note": 85,
      "start": 21.0831,
      "duration": 0.3881,
      "velocity": 99,
      "chip": "ym2612"
    },
    {
      "channel": 3,
      "note": 47,
      "start": 21.2025,
      "duration": 0.1022,
      "velocity": 127,
      "chip": "ym2612"
    },
    {
      "channel": 0,
      "note": 56,
      "start": 21.3246,
      "duration": 0.0345,
      "velocity": 98,
      "chip": "ym2612"
    },
    {
      "channel": 3,
      "note": 47,
      "start": 21.3282,
      "duration": 0.0292,
      "velocity": 127,
      "chip": "ym2612"
    },
    {
      "channel": 0,
      "note": 54,
      "start": 21.3594,
      "duration": 0.1311,
      "velocity": 98,
      "chip": "ym2612"
    },
    {
      "channel": 1,
      "note": 88,
      "start": 21.3599,
      "duration": 0.1104,
      "velocity": 99,
      "chip": "ym2612"
    },
    {
      "channel": 2,
      "note": 78,
      "start": 21.3604,
      "duration": 0.1101,
      "velocity": 99,
      "chip": "ym2612"
    },
    {
      "channel": 3,
      "note": 47,
      "start": 21.3634,
      "duration": 0.013,
      "velocity": 127,
      "chip": "ym2612"
    },
    {
      "channel": 3,
      "note": 47,
      "start": 21.379,
      "duration": 0.0918,
      "velocity": 127,
      "chip": "ym2612"
    },
    {
      "channel": 0,
      "note": 52,
      "start": 21.4908,
      "duration": 0.2454,
      "velocity": 98,
      "chip": "ym2612"
    },
    {
      "channel": 1,
      "note": 90,
      "start": 21.4913,
      "duration": 0.6363,
      "velocity": 99,
      "chip": "ym2612"
    },
    {
      "channel": 2,
      "note": 81,
      "start": 21.4918,
      "duration": 0.6361,
      "velocity": 99,
      "chip": "ym2612"
    },
    {
      "channel": 3,
      "note": 47,
      "start": 21.4949,
      "duration": 0.2214,
      "velocity": 127,
      "chip": "ym2612"
    },
    {
      "channel": 4,
      "note": 86,
      "start": 21.4955,
      "duration": 0.2212,
      "velocity": 99,
      "chip": "ym2612"
    },
    {
      "channel": 0,
      "note": 47,
      "start": 21.7364,
      "duration": 0.2453,
      "velocity": 98,
      "chip": "ym2612"
    },
    {
      "channel": 3,
      "note": 47,
      "start": 21.7398,
      "duration": 0.0993,
      "velocity": 127,
      "chip": "ym2612"
    },
    {
      "channel": 4,
      "note": 88,
      "start": 21.7404,
      "duration": 0.6335,
      "velocity": 99,
      "chip": "ym2612"
    },
    {
      "channel": 3,
      "note": 47,
      "start": 21.8598,
      "duration": 0.1022,
      "velocity": 127,
      "chip": "ym2612"
    },
    {
      "channel": 0,
      "note": 49,
      "start": 21.9819,
      "duration": 0.0344,
      "velocity": 98,
      "chip": "ym2612"
    },
    {
      "channel": 3,
      "note": 47,
      "start": 21.9855,
      "duration": 0.0291,
      "velocity": 127,
      "chip": "ym2612"
    },
    {
      "channel": 0,
      "note": 50,
      "start": 22.0166,
      "duration": 0.1312,
      "velocity": 98,
      "chip": "ym2612"
    },
    {
      "channel": 3,
      "note": 47,
      "start": 22.0201,
      "duration": 0.0132,
      "velocity": 127,
      "chip": "ym2612"
    },
    {
      "channel": 3,
      "note": 47,
      "start": 22.036,
      "duration": 0.0921,
      "velocity": 127,
      "chip": "ym2612"
    },
    {
      "channel": 0,
      "note": 52,
      "start": 22.148,
      "duration": 0.2454,
      "velocity": 98,
      "chip": "ym2612"
    },
    {
      "channel": 1,
      "note": 88,
      "start": 22.1485,
      "duration": 0.6364,
      "velocity": 99,
      "chip": "ym2612"
    },
    {
      "channel": 2,
      "note": 80,
      "start": 22.149,
      "duration": 0.5225,
      "velocity": 99,
      "chip": "ym2612"
    },
    {
      "channel": 3,
      "note": 47,
      "start": 22.152,
      "duration": 0.2216,
      "velocity": 127,
      "chip": "ym2612"
    },
    {
      "channel": 0,
      "note": 50,
      "start": 22.3936,
      "duration": 0.2454,
      "velocity": 98,
      "chip": "ym2612"
    },
    {
      "channel": 3,
      "note": 47,
      "start": 22.397,
      "duration": 0.0994,
      "velocity": 127,
      "chip": "ym2612"
    },
    {
      "channel": 4,
      "note": 90,
      "start": 22.3977,
      "duration": 0.6337,
      "velocity": 99,
      "chip": "ym2612"
    },
    {
      "channel": 3,
      "note": 47,
      "start": 22.5171,
      "duration": 0.1022,
      "velocity": 127,
      "chip": "ym2612"
    },
    {
      "channel": 0,
      "note": 49,
      "start": 22.6392,
      "duration": 0.0344,
      "velocity": 98,
      "chip": "ym2612"
    },
    {
      "channel": 3,
      "note": 47,
      "start": 22.6427,
      "duration": 0.0291,
      "velocity": 127,
      "chip": "ym2612"
    },
    {
      "channel": 0,
      "note": 47,
      "start": 22.6739,
      "duration": 0.1313,
      "velocity": 98,
      "chip": "ym2612"
    },
    {
      "channel": 2,
      "note": 78,
      "start": 22.6746,
      "duration": 0.0105,
      "velocity": 99,
      "chip": "ym2612"
    },
    {
      "channel": 3,
      "note": 47,
      "start": 22.6776,
      "duration": 0.0135,
      "velocity": 127,
      "chip": "ym2612"
    },
    {
      "channel": 2,
      "note": 76,
      "start": 22.6877,
      "duration": 0.0157,
      "velocity": 99,
      "chip": "ym2612"
    },
    {
      "channel": 3,
      "note": 47,
      "start": 22.6938,
      "duration": 0.0917,
      "velocity": 127,
      "chip": "ym2612"
    },
    {
      "channel": 2,
      "note": 74,
      "start": 22.724,
      "duration": 0.0612,
      "velocity": 99,
      "chip": "ym2612"
    },
    {
      "channel": 0,
      "note": 45,
      "start": 22.8054,
      "duration": 0.2454,
      "velocity": 98,
      "chip": "ym2612"
    },
    {
      "channel": 1,
      "note": 81,
      "start": 22.8059,
      "duration": 0.4702,
      "velocity": 99,
      "chip": "ym2612"
    },
    {
      "channel": 2,
      "note": 73,
      "start": 22.8064,
      "duration": 0.47,
      "velocity": 99,
      "chip": "ym2612"
    },
    {
      "channel": 3,
      "note": 47,
      "start": 22.8095,
      "duration": 0.2215,
      "velocity": 127,
      "chip": "ym2612"
    },
    {
      "channel": 0,
      "note": 68,
      "start": 23.051,
      "duration": 0.2454,
      "velocity": 98,
      "chip": "ym2612"
    },
    {
      "channel": 3,
      "note": 47,
      "start": 23.0545,
      "duration": 0.0993,
      "velocity": 127,
      "chip": "ym2612"
    },
    {
      "channel": 4,
      "note": 88,
      "start": 23.0551,
      "duration": 0.2741,
      "velocity": 99,
      "chip": "ym2612"
    },
    {
      "channel": 3,
      "note": 47,
      "start": 23.1745,
      "duration": 0.1022,
      "velocity": 127,
      "chip": "ym2612"
    },
    {
      "channel": 0,
      "note": 66,
      "start": 23.2966,
      "duration": 0.0341,
      "velocity": 98,
      "chip": "ym2612"
    },
    {
      "channel": 1,
      "note": 81,
      "start": 23.2971,
      "duration": 0.05,
      "velocity": 99,
      "chip": "ym2612"
    },
    {
      "channel": 2,
      "note": 73,
      "start": 23.2976,
      "duration": 0.0497,
      "velocity": 99,
      "chip": "ym2612"
    },
    {
      "channel": 3,
      "note": 47,
      "start": 23.3006,
      "duration": 0.0283,
      "velocity": 127,
      "chip": "ym2612"
    },
    {
      "channel": 0,
      "note": 64,
      "start": 23.3309,
      "duration": 0.1315,
      "velocity": 98,
      "chip": "ym2612"
    },
    {
      "channel": 3,
      "note": 47,
      "start": 23.3343,
      "duration": 0.0133,
      "velocity": 127,
      "chip": "ym2612"
    },
    {
      "channel": 4,
      "note": 81,
      "start": 23.335,
      "duration": 0.2307,
      "velocity": 99,
      "chip": "ym2612"
    },
    {
      "channel": 1,
      "note": 81,
      "start": 23.3498,
      "duration": 0.0925,
      "velocity": 99,
      "chip": "ym2612"
    },
    {
      "channel": 2,
      "note": 73,
      "start": 23.3502,
      "duration": 0.0922,
      "velocity": 99,
      "chip": "ym2612"
    },
    {
      "channel": 3,
      "note": 47,
      "start": 23.3508,
      "duration": 0.092,
      "velocity": 127,
      "chip": "ym2612"
    },
    {
      "channel": 0,
      "note": 62,
      "start": 23.4627,
      "duration": 0.2454,
      "velocity": 98,
      "chip": "ym2612"
    },
    {
      "channel": 1,
      "note": 83,
      "start": 23.4632,
      "duration": 0.6363,
      "velocity": 99,
      "chip": "ym2612"
    },
    {
      "channel": 2,
      "note": 74,
      "start": 23.4637,
      "duration": 0.6361,
      "velocity": 99,
      "chip": "ym2612"
    },
    {
      "channel": 3,
      "note": 47,
      "start": 23.4667,
      "duration": 0.2216,
      "velocity": 127,
      "chip": "ym2612"
    },
    {
      "channel": 4,
      "note": 81,
      "start": 23.5864,
      "duration": 0.1022,
      "velocity": 99,
      "chip": "ym2612"
    },
    {
      "channel": 0,
      "note": 61,
      "start": 23.7083,
      "duration": 0.2454,
      "velocity": 98,
      "chip": "ym2612"
    },
    {
      "channel": 3,
      "note": 47,
      "start": 23.7117,
      "duration": 0.0994,
      "velocity": 127,
      "chip": "ym2612"
    },
    {
      "channel": 4,
      "note": 81,
      "start": 23.7123,
      "duration": 0.6336,
      "velocity": 99,
      "chip": "ym2612"
    },
    {
      "channel": 3,
      "note": 47,
      "start": 23.8317,
      "duration": 0.1022,
      "velocity": 127,
      "chip": "ym2612"
    },
    {
      "channel": 0,
      "note": 59,
      "start": 23.9538,
      "duration": 0.0344,
      "velocity": 98,
      "chip": "ym2612"
    },
    {
      "channel": 3,
      "note": 47,
      "start": 23.9573,
      "duration": 0.0291,
      "velocity": 127,
      "chip": "ym2612"
    },
    {
      "channel": 0,
      "note": 57,
      "start": 23.9884,
      "duration": 0.1314,
      "velocity": 98,
      "chip": "ym2612"
    },
    {
      "channel": 3,
      "note": 47,
      "start": 23.9919,
      "duration": 0.0134,
      "velocity": 127,
      "chip": "ym2612"
    },
    {
      "channel": 3,
      "note": 47,
      "start": 24.008,
      "duration": 0.0921,
      "velocity": 127,
      "chip": "ym2612"
    },
    {
      "channel": 0,
      "note": 56,
      "start": 24.12,
      "duration": 0.2454,
      "velocity": 98,
      "chip": "ym2612"
    },
    {
      "channel": 1,
      "note": 83,
      "start": 24.1205,
      "duration": 0.4702,
      "velocity": 99,
      "chip": "ym2612"
    },
    {
      "channel": 2,
      "note": 74,
      "start": 24.121,
      "duration": 0.47,
      "velocity": 99,
      "chip": "ym2612"
    },
    {
      "channel": 3,
      "note": 47,
      "start": 24.1241,
      "duration": 0.2215,
      "velocity": 127,
      "chip": "ym2612"
    },
    {
      "channel": 0,
      "note": 54,
      "start": 24.3656,
      "duration": 0.2454,
      "velocity": 98,
      "chip": "ym2612"
    },
    {
      "channel": 3,
      "note": 47,
      "start": 24.369,
      "duration": 0.0994,
      "velocity": 127,
      "chip": "ym2612"
    },
    {
      "channel": 4,
      "note": 83,
      "start": 24.3697,
      "duration": 0.2741,
      "velocity": 99,
      "chip": "ym2612"
    },
    {
      "channel": 3,
      "note": 47,
      "start": 24.489,
      "duration": 0.1022,
      "velocity": 127,
      "chip": "ym2612"
    },
    {
      "channel": 0,
      "note": 52,
      "start": 24.6111,
      "duration": 0.0342,
      "velocity": 98,
      "chip": "ym2612"
    },
    {
      "channel": 1,
      "note": 83,
      "start": 24.6116,
      "duration": 0.05,
      "velocity": 99,
      "chip": "ym2612"
    },
    {
      "channel": 2,
      "note": 74,
      "start": 24.6121,
      "duration": 0.0498,
      "velocity": 99,
      "chip": "ym2612"
    },
    {
      "channel": 3,
      "note": 47,
      "start": 24.6151,
      "duration": 0.0284,
      "velocity": 127,
      "chip": "ym2612"
    },
    {
      "channel": 0,
      "note": 50,
      "start": 24.6455,
      "duration": 0.1314,
      "velocity": 98,
      "chip": "ym2612"
    },
    {
      "channel": 3,
      "note": 47,
      "start": 24.6489,
      "duration": 0.0133,
      "velocity": 127,
      "chip": "ym2612"
    },
    {
      "channel": 4,
      "note": 83,
      "start": 24.6495,
      "duration": 0.2307,
      "velocity": 99,
      "chip": "ym2612"
    },
    {
      "channel": 1,
      "note": 83,
      "start": 24.6643,
      "duration": 0.0924,
      "velocity": 99,
      "chip": "ym2612"
    },
    {
      "channel": 2,
      "note": 74,
      "start": 24.6648,
      "duration": 0.0921,
      "velocity": 99,
      "chip": "ym2612"
    },
    {
      "channel": 3,
      "note": 47,
      "start": 24.6654,
      "duration": 0.0919,
      "velocity": 127,
      "chip": "ym2612"
    },
    {
      "channel": 0,
      "note": 49,
      "start": 24.7772,
      "duration": 0.2454,
      "velocity": 98,
      "chip": "ym2612"
    },
    {
      "channel": 1,
      "note": 85,
      "start": 24.7777,
      "duration": 0.6362,
      "velocity": 99,
      "chip": "ym2612"
    },
    {
      "channel": 2,
      "note": 77,
      "start": 24.7782,
      "duration": 0.636,
      "velocity": 99,
      "chip": "ym2612"
    },
    {
      "channel": 3,
      "note": 47,
      "start": 24.7812,
      "duration": 0.2216,
      "velocity": 127,
      "chip": "ym2612"
    },
    {
      "channel": 4,
      "note": 83,
      "start": 24.901,
      "duration": 0.1022,
      "velocity": 99,
      "chip": "ym2612"
    },
    {
      "channel": 0,
      "note": 53,
      "start": 25.0228,
      "duration": 0.2454,
      "velocity": 98,
      "chip": "ym2612"
    },
    {
      "channel": 3,
      "note": 47,
      "start": 25.0262,
      "duration": 0.0994,
      "velocity": 127,
      "chip": "ym2612"
    },
    {
      "channel": 4,
      "note": 83,
      "start": 25.0269,
      "duration": 0.6334,
      "velocity": 99,
      "chip": "ym2612"
    },
    {
      "channel": 3,
      "note": 47,
      "start": 25.1463,
      "duration": 0.1022,
      "velocity": 127,
      "chip": "ym2612"
    },
    {
      "channel": 0,
      "note": 56,
      "start": 25.2683,
      "duration": 0.0343,
      "velocity": 98,
      "chip": "ym2612"
    },
    {
      "channel": 3,
      "note": 47,
      "start": 25.2718,
      "duration": 0.0291,
      "velocity": 127,
      "chip": "ym2612"
    },
    {
      "channel": 0,
      "note": 61,
      "start": 25.3028,
      "duration": 0.1313,
      "velocity": 98,
      "chip": "ym2612"
    },
    {
      "channel": 3,
      "note": 47,
      "start": 25.3063,
      "duration": 0.0134,
      "velocity": 127,
      "chip": "ym2612"
    },
    {
      "channel": 3,
      "note": 47,
      "start": 25.3224,
      "duration": 0.0921,
      "velocity": 127,
      "chip": "ym2612"
    },
    {
      "channel": 0,
      "note": 66,
      "start": 25.4344,
      "duration": 0.2454,
      "velocity": 98,
      "chip": "ym2612"
    },
    {
      "channel": 1,
      "note": 85,
      "start": 25.4349,
      "duration": 0.4702,
      "velocity": 99,
      "chip": "ym2612"
    },
    {
      "channel": 2,
      "note": 78,
      "start": 25.4354,
      "duration": 0.47,
      "velocity": 99,
      "chip": "ym2612"
    },
    {
      "channel": 3,
      "note": 47,
      "start": 25.4385,
      "duration": 0.2214,
      "velocity": 127,
      "chip": "ym2612"
    },
    {
      "channel": 0,
      "note": 64,
      "start": 25.68,
      "duration": 0.2454,
      "velocity": 98,
      "chip": "ym2612"
    },
    {
      "channel": 3,
      "note": 47,
      "start": 25.6834,
      "duration": 0.0993,
      "velocity": 127,
      "chip": "ym2612"
    },
    {
      "channel": 4,
      "note": 85,
      "start": 25.6841,
      "duration": 0.2741,
      "velocity": 99,
      "chip": "ym2612"
    },
    {
      "channel": 3,
      "note": 47,
      "start": 25.8035,
      "duration": 0.1022,
      "velocity": 127,
      "chip": "ym2612"
    },
    {
      "channel": 0,
      "note": 62,
      "start": 25.9255,
      "duration": 0.0341,
      "velocity": 98,
      "chip": "ym2612"
    },
    {
      "channel": 1,
      "note": 85,
      "start": 25.9261,
      "duration": 0.0501,
      "velocity": 99,
      "chip": "ym2612"
    },
    {
      "channel": 2,
      "note": 78,
      "start": 25.9266,
      "duration": 0.0498,
      "velocity": 99,
      "chip": "ym2612"
    },
    {
      "channel": 3,
      "note": 47,
      "start": 25.9295,
      "duration": 0.0283,
      "velocity": 127,
      "chip": "ym2612"
    },
    {
      "channel": 0,
      "note": 61,
      "start": 25.9599,
      "duration": 0.1315,
      "velocity": 98,
      "chip": "ym2612"
    },
    {
      "channel": 3,
      "note": 47,
      "start": 25.9633,
      "duration": 0.0134,
      "velocity": 127,
      "chip": "ym2612"
    },
    {
      "channel": 4,
      "note": 85,
      "start": 25.9639,
      "duration": 0.2307,
      "velocity": 99,
      "chip": "ym2612"
    },
    {
      "channel": 1,
      "note": 85,
      "start": 25.9788,
      "duration": 0.0923,
      "velocity": 99,
      "chip": "ym2612"
    },
    {
      "channel": 2,
      "note": 78,
      "start": 25.9793,
      "duration": 0.0921,
      "velocity": 99,
      "chip": "ym2612"
    },
    {
      "channel": 3,
      "note": 47,
      "start": 25.9798,
      "duration": 0.0918,
      "velocity": 127,
      "chip": "ym2612"
    },
    {
      "channel": 0,
      "note": 59,
      "start": 26.0916,
      "duration": 0.2453,
      "velocity": 98,
      "chip": "ym2612"
    },
    {
      "channel": 1,
      "note": 86,
      "start": 26.0922,
      "duration": 0.2245,
      "velocity": 99,
      "chip": "ym2612"
    },
    {
      "channel": 2,
      "note": 78,
      "start": 26.0927,
      "duration": 0.5226,
      "velocity": 99,
      "chip": "ym2612"
    },
    {
      "channel": 3,
      "note": 47,
      "start": 26.0956,
      "duration": 0.2216,
      "velocity": 127,
      "chip": "ym2612"
    },
    {
      "channel": 4,
      "note": 85,
      "start": 26.2154,
      "duration": 0.1022,
      "velocity": 99,
      "chip": "ym2612"
    },
    {
      "channel": 0,
      "note": 57,
      "start": 26.3372,
      "duration": 0.2454,
      "velocity": 98,
      "chip": "ym2612"
    },
    {
      "channel": 1,
      "note": 85,
      "start": 26.3376,
      "duration": 0.2246,
      "velocity": 99,
      "chip": "ym2612"
    },
    {
      "channel": 3,
      "note": 47,
      "start": 26.3409,
      "duration": 0.0991,
      "velocity": 127,
      "chip": "ym2612"
    },
    {
      "channel": 4,
      "note": 85,
      "start": 26.3415,
      "duration": 0.2216,
      "velocity": 99,
      "chip": "ym2612"
    },
    {
      "channel": 3,
      "note": 47,
      "start": 26.4607,
      "duration": 0.1022,
      "velocity": 127,
      "chip": "ym2612"
    },
    {
      "channel": 0,
      "note": 56,
      "start": 26.5827,
      "duration": 0.0347,
      "velocity": 98,
      "chip": "ym2612"
    },
    {
      "channel": 1,
      "note": 83,
      "start": 26.5832,
      "duration": 0.0317,
      "velocity": 99,
      "chip": "ym2612"
    },
    {
      "channel": 3,
      "note": 47,
      "start": 26.5865,
      "duration": 0.0291,
      "velocity": 127,
      "chip": "ym2612"
    },
    {
      "channel": 4,
      "note": 86,
      "start": 26.5871,
      "duration": 0.0289,
      "velocity": 99,
      "chip": "ym2612"
    },
    {
      "channel": 0,
      "note": 54,
      "start": 26.6176,
      "duration": 0.131,
      "velocity": 98,
      "chip": "ym2612"
    },
    {
      "channel": 1,
      "note": 81,
      "start": 26.6181,
      "duration": 0.1102,
      "velocity": 99,
      "chip": "ym2612"
    },
    {
      "channel": 2,
      "note": 78,
      "start": 26.6186,
      "duration": 0.1099,
      "velocity": 99,
      "chip": "ym2612"
    },
    {
      "channel": 3,
      "note": 47,
      "start": 26.6216,
      "duration": 0.0132,
      "velocity": 127,
      "chip": "ym2612"
    },
    {
      "channel": 4,
      "note": 85,
      "start": 26.6222,
      "duration": 0.107,
      "velocity": 99,
      "chip": "ym2612"
    },
    {
      "channel": 3,
      "note": 47,
      "start": 26.6375,
      "duration": 0.0913,
      "velocity": 127,
      "chip": "ym2612"
    },
    {
      "channel": 0,
      "note": 64,
      "start": 26.7493,
      "duration": 0.0336,
      "velocity": 98,
      "chip": "ym2612"
    },
    {
      "channel": 1,
      "note": 81,
      "start": 26.7503,
      "duration": 0.1442,
      "velocity": 99,
      "chip": "ym2612"
    },
    {
      "channel": 2,
      "note": 76,
      "start": 26.7513,
      "duration": 0.1435,
      "velocity": 99,
      "chip": "ym2612"
    },
    {
      "channel": 3,
      "note": 47,
      "start": 26.752,
      "duration": 0.0136,
      "velocity": 127,
      "chip": "ym2612"
    },
    {
      "channel": 4,
      "note": 83,
      "start": 26.7527,
      "duration": 0.0288,
      "velocity": 99,
      "chip": "ym2612"
    },
    {
      "channel": 3,
      "note": 47,
      "start": 26.7682,
      "duration": 0.0129,
      "velocity": 127,
      "chip": "ym2612"
    },
    {
      "channel": 0,
      "note": 52,
      "start": 26.7831,
      "duration": 0.1317,
      "velocity": 98,
      "chip": "ym2612"
    },
    {
      "channel": 3,
      "note": 47,
      "start": 26.7866,
      "duration": 0.1086,
      "velocity": 127,
      "chip": "ym2612"
    },
    {
      "channel": 4,
      "note": 81,
      "start": 26.7872,
      "duration": 0.158,
      "velocity": 99,
      "chip": "ym2612"
    },
    {
      "channel": 0,
      "note": 52,
      "start": 26.915,
      "duration": 0.0317,
      "velocity": 98,
      "chip": "ym2612"
    },
    {
      "channel": 1,
      "note": 80,
      "start": 26.9155,
      "duration": 0.145,
      "velocity": 99,
      "chip": "ym2612"
    },
    {
      "channel": 2,
      "note": 74,
      "start": 26.916,
      "duration": 0.1448,
      "velocity": 99,
      "chip": "ym2612"
    },
    {
      "channel": 3,
      "note": 47,
      "start": 26.9166,
      "duration": 0.0283,
      "velocity": 127,
      "chip": "ym2612"
    },
    {
      "channel": 0,
      "note": 52,
      "start": 26.9469,
      "duration": 0.1339,
      "velocity": 98,
      "chip": "ym2612"
    },
    {
      "channel": 3,
      "note": 47,
      "start": 26.9479,
      "duration": 0.0132,
      "velocity": 127,
      "chip": "ym2612"
    },
    {
      "channel": 4,
      "note": 81,
      "start": 26.9486,
      "duration": 0.1632,
      "velocity": 99,
      "chip": "ym2612"
    },
    {
      "channel": 3,
      "note": 47,
      "start": 26.9638,
      "duration": 0.0974,
      "velocity": 127,
      "chip": "ym2612"
    },
    {
      "channel": 0,
      "note": 57,
      "start": 27.081,
      "duration": 0.0322,
      "velocity": 98,
      "chip": "ym2612"
    },
    {
      "channel": 1,
      "note": 81,
      "start": 27.0815,
      "duration": 0.1452,
      "velocity": 99,
      "chip": "ym2612"
    },
    {
      "channel": 2,
      "note": 73,
      "start": 27.082,
      "duration": 0.145,
      "velocity": 99,
      "chip": "ym2612"
    },
    {
      "channel": 3,
      "note": 47,
      "start": 27.0826,
      "duration": 0.0132,
      "velocity": 127,
      "chip": "ym2612"
    },
    {
      "channel": 3,
      "note": 47,
      "start": 27.0985,
      "duration": 0.0129,
      "velocity": 127,
      "chip": "ym2612"
    },
    {
      "channel": 0,
      "note": 52,
      "start": 27.1134,
      "duration": 0.1336,
      "velocity": 98,
      "chip": "ym2612"
    },
    {
      "channel": 3,
      "note": 47,
      "start": 27.1145,
      "duration": 0.0132,
      "velocity": 127,
      "chip": "ym2612"
    },
    {
      "channel": 4,
      "note": 80,
      "start": 27.1151,
      "duration": 0.1611,
      "velocity": 99,
      "chip": "ym2612"
    },
    {
      "channel": 3,
      "note": 47,
      "start": 27.1304,
      "duration": 0.097,
      "velocity": 127,
      "chip": "ym2612"
    },
    {
      "channel": 0,
      "note": 45,
      "start": 27.2472,
      "duration": 0.1658,
      "velocity": 98,
      "chip": "ym2612"
    },
    {
      "channel": 3,
      "note": 47,
      "start": 27.2485,
      "duration": 0.1449,
      "velocity": 127,
      "chip": "ym2612"
    },
    {
      "channel": 0,
      "note": 48,
      "start": 27.4166,
      "duration": 1.6361,
      "velocity": 102,
      "chip": "ym2612"
    },
    {
      "channel": 1,
      "note": 88,
      "start": 27.4204,
      "duration": 0.0356,
      "velocity": 99,
      "chip": "ym2612"
    },
    {
      "channel": 2,
      "note": 76,
      "start": 27.4241,
      "duration": 0.0321,
      "velocity": 99,
      "chip": "ym2612"
    },
    {
      "channel": 3,
      "note": 47,
      "start": 27.4295,
      "duration": 1.6034,
      "velocity": 127,
      "chip": "ym2612"
    },
    {
      "channel": 1,
      "note": 88,
      "start": 27.4586,
      "duration": 0.0078,
      "velocity": 99,
      "chip": "ym2612"
    },
    {
      "channel": 2,
      "note": 76,
      "start": 27.4591,
      "duration": 0.0076,
      "velocity": 99,
      "chip": "ym2612"
    },
    {
      "channel": 4,
      "note": 81,
      "start": 27.46,
      "duration": 0.0998,
      "velocity": 99,
      "chip": "ym2612"
    },
    {
      "channel": 1,
      "note": 88,
      "start": 27.469,
      "duration": 0.008,
      "velocity": 99,
      "chip": "ym2612"
    },
    {
      "channel": 2,
      "note": 76,
      "start": 27.4695,
      "duration": 0.0077,
      "velocity": 99,
      "chip": "ym2612"
    },
    {
      "channel": 1,
      "note": 88,
      "start": 27.4977,
      "duration": 0.0612,
      "velocity": 99,
      "chip": "ym2612"
    },
    {
      "channel": 2,
      "note": 76,
      "start": 27.4982,
      "duration": 0.061,
      "velocity": 99,
      "chip": "ym2612"
    },
    {
      "channel": 1,
      "note": 88,
      "start": 27.5796,
      "duration": 0.6341,
      "velocity": 99,
      "chip": "ym2612"
    },
    {
      "channel": 2,
      "note": 76,
      "start": 27.58,
      "duration": 0.634,
      "velocity": 99,
      "chip": "ym2612"
    },
    {
      "channel": 4,
      "note": 88,
      "start": 27.581,
      "duration": 0.0606,
      "velocity": 99,
      "chip": "ym2612"
    },
    {
      "channel": 4,
      "note": 88,
      "start": 27.6623,
      "duration": 0.0611,
      "velocity": 99,
      "chip": "ym2612"
    },
    {
      "channel": 4,
      "note": 88,
      "start": 27.7441,
      "duration": 0.0612,
      "velocity": 99,
      "chip": "ym2612"
    },
    {
      "channel": 4,
      "note": 88,
      "start": 27.826,
      "duration": 0.6341,
      "velocity": 99,
      "chip": "ym2612"
    },
    {
      "channel": 1,
      "note": 88,
      "start": 28.2344,
      "duration": 0.1431,
      "velocity": 99,
      "chip": "ym2612"
    },
    {
      "channel": 2,
      "note": 76,
      "start": 28.2349,
      "duration": 0.1429,
      "velocity": 99,
      "chip": "ym2612"
    },
    {
      "channel": 1,
      "note": 88,
      "start": 28.3982,
      "duration": 0.1431,
      "velocity": 99,
      "chip": "ym2612"
    },
    {
      "channel": 2,
      "note": 76,
      "start": 28.3986,
      "duration": 0.1429,
      "velocity": 99,
      "chip": "ym2612"
    },
    {
      "channel": 4,
      "note": 88,
      "start": 28.4809,
      "duration": 0.143,
      "velocity": 99,
      "chip": "ym2612"
    },
    {
      "channel": 1,
      "note": 88,
      "start": 28.5619,
      "duration": 0.143,
      "velocity": 99,
      "chip": "ym2612"
    },
    {
      "channel": 2,
      "note": 76,
      "start": 28.5624,
      "duration": 0.1428,
      "velocity": 99,
      "chip": "ym2612"
    },
    {
      "channel": 4,
      "note": 88,
      "start": 28.6446,
      "duration": 0.1431,
      "velocity": 99,
      "chip": "ym2612"
    },
    {
      "channel": 1,
      "note": 88,
      "start": 28.7256,
      "duration": 0.1431,
      "velocity": 99,
      "chip": "ym2612"
    },
    {
      "channel": 2,
      "note": 76,
      "start": 28.7261,
      "duration": 0.1428,
      "velocity": 99,
      "chip": "ym2612"
    },
    {
      "channel": 4,
      "note": 88,
      "start": 28.8083,
      "duration": 0.1429,
      "velocity": 99,
      "chip": "ym2612"
    },
    {
      "channel": 1,
      "note": 88,
      "start": 28.8893,
      "duration": 0.1431,
      "velocity": 99,
      "chip": "ym2612"
    },
    {
      "channel": 2,
      "note": 76,
      "start": 28.8898,
      "duration": 0.1428,
      "velocity": 99,
      "chip": "ym2612"
    },
    {
      "channel": 4,
      "note": 88,
      "start": 28.972,
      "duration": 0.0906,
      "velocity": 99,
      "chip": "ym2612"
    },
    {
      "channel": 0,
      "note": 47,
      "start": 29.0528,
      "duration": 1.6395,
      "velocity": 102,
      "chip": "ym2612"
    },
    {
      "channel": 1,
      "note": 88,
      "start": 29.0533,
      "duration": 0.0278,
      "velocity": 99,
      "chip": "ym2612"
    },
    {
      "channel": 2,
      "note": 79,
      "start": 29.0538,
      "duration": 0.0275,
      "velocity": 99,
      "chip": "ym2612"
    },
    {
      "channel": 3,
      "note": 47,
      "start": 29.0544,
      "duration": 1.6183,
      "velocity": 127,
      "chip": "ym2612"
    },
    {
      "channel": 4,
      "note": 88,
      "start": 29.0653,
      "duration": 0.0166,
      "velocity": 99,
      "chip": "ym2612"
    },
    {
      "channel": 1,
      "note": 88,
      "start": 29.0837,
      "duration": 0.0078,
      "velocity": 99,
      "chip": "ym2612"
    },
    {
      "channel": 2,
      "note": 79,
      "start": 29.0842,
      "duration": 0.0076,
      "velocity": 99,
      "chip": "ym2612"
    },
    {
      "channel": 4,
      "note": 88,
      "start": 29.0851,
      "duration": 0.1143,
      "velocity": 99,
      "chip": "ym2612"
    },
    {
      "channel": 1,
      "note": 88,
      "start": 29.0942,
      "duration": 0.0225,
      "velocity": 99,
      "chip": "ym2612"
    },
    {
      "channel": 2,
      "note": 79,
      "start": 29.0947,
      "duration": 0.0223,
      "velocity": 99,
      "chip": "ym2612"
    },
    {
      "channel": 1,
      "note": 88,
      "start": 29.1374,
      "duration": 0.0612,
      "velocity": 99,
      "chip": "ym2612"
    },
    {
      "channel": 2,
      "note": 79,
      "start": 29.1379,
      "duration": 0.061,
      "velocity": 99,
      "chip": "ym2612"
    },
    {
      "channel": 1,
      "note": 88,
      "start": 29.2192,
      "duration": 0.6343,
      "velocity": 99,
      "chip": "ym2612"
    },
    {
      "channel": 2,
      "note": 79,
      "start": 29.2198,
      "duration": 0.634,
      "velocity": 99,
      "chip": "ym2612"
    },
    {
      "channel": 4,
      "note": 88,
      "start": 29.2207,
      "duration": 0.0606,
      "velocity": 99,
      "chip": "ym2612"
    },
    {
      "channel": 4,
      "note": 88,
      "start": 29.302,
      "duration": 0.0611,
      "velocity": 99,
      "chip": "ym2612"
    },
    {
      "channel": 4,
      "note": 88,
      "start": 29.3839,
      "duration": 0.0611,
      "velocity": 99,
      "chip": "ym2612"
    },
    {
      "channel": 4,
      "note": 88,
      "start": 29.4657,
      "duration": 0.6342,
      "velocity": 99,
      "chip": "ym2612"
    },
    {
      "channel": 1,
      "note": 88,
      "start": 29.8741,
      "duration": 0.1431,
      "velocity": 99,
      "chip": "ym2612"
    },
    {
      "channel": 2,
      "note": 79,
      "start": 29.8746,
      "duration": 0.1429,
      "velocity": 99,
      "chip": "ym2612"
    },
    {
      "channel": 1,
      "note": 88,
      "start": 30.0379,
      "duration": 0.1431,
      "velocity": 99,
      "chip": "ym2612"
    },
    {
      "channel": 2,
      "note": 79,
      "start": 30.0384,
      "duration": 0.1428,
      "velocity": 99,
      "chip": "ym2612"
    },
    {
      "channel": 4,
      "note": 88,
      "start": 30.1206,
      "duration": 0.143,
      "velocity": 99,
      "chip": "ym2612"
    },
    {
      "channel": 1,
      "note": 88,
      "start": 30.2015,
      "duration": 0.1431,
      "velocity": 99,
      "chip": "ym2612"
    },
    {
      "channel": 2,
      "note": 79,
      "start": 30.2021,
      "duration": 0.1428,
      "velocity": 99,
      "chip": "ym2612"
    },
    {
      "channel": 4,
      "note": 88,
      "start": 30.2843,
      "duration": 0.1431,
      "velocity": 99,
      "chip": "ym2612"
    },
    {
      "channel": 1,
      "note": 88,
      "start": 30.3653,
      "duration": 0.1431,
      "velocity": 99,
      "chip": "ym2612"
    },
    {
      "channel": 2,
      "note": 79,
      "start": 30.3658,
      "duration": 0.1428,
      "velocity": 99,
      "chip": "ym2612"
    },
    {
      "channel": 4,
      "note": 88,
      "start": 30.448,
      "duration": 0.143,
      "velocity": 99,
      "chip": "ym2612"
    },
    {
      "channel": 1,
      "note": 88,
      "start": 30.529,
      "duration": 0.1431,
      "velocity": 99,
      "chip": "ym2612"
    },
    {
      "channel": 2,
      "note": 79,
      "start": 30.5295,
      "duration": 0.1429,
      "velocity": 99,
      "chip": "ym2612"
    },
    {
      "channel": 4,
      "note": 88,
      "start": 30.6117,
      "duration": 0.0905,
      "velocity": 99,
      "chip": "ym2612"
    },
    {
      "channel": 0,
      "note": 45,
      "start": 30.6925,
      "duration": 1.6394,
      "velocity": 102,
      "chip": "ym2612"
    },
    {
      "channel": 1,
      "note": 88,
      "start": 30.693,
      "duration": 0.0277,
      "velocity": 99,
      "chip": "ym2612"
    },
    {
      "channel": 2,
      "note": 78,
      "start": 30.6935,
      "duration": 0.0275,
      "velocity": 99,
      "chip": "ym2612"
    },
    {
      "channel": 3,
      "note": 47,
      "start": 30.6941,
      "duration": 1.6181,
      "velocity": 127,
      "chip": "ym2612"
    },
    {
      "channel": 4,
      "note": 88,
      "start": 30.7049,
      "duration": 0.0167,
      "velocity": 99,
      "chip": "ym2612"
    },
    {
      "channel": 1,
      "note": 88,
      "start": 30.7234,
      "duration": 0.0078,
      "velocity": 99,
      "chip": "ym2612"
    },
    {
      "channel": 2,
      "note": 78,
      "start": 30.7239,
      "duration": 0.0075,
      "velocity": 99,
      "chip": "ym2612"
    },
    {
      "channel": 4,
      "note": 88,
      "start": 30.7248,
      "duration": 0.1142,
      "velocity": 99,
      "chip": "ym2612"
    },
    {
      "channel": 1,
      "note": 88,
      "start": 30.7338,
      "duration": 0.0224,
      "velocity": 99,
      "chip": "ym2612"
    },
    {
      "channel": 2,
      "note": 78,
      "start": 30.7343,
      "duration": 0.0222,
      "velocity": 99,
      "chip": "ym2612"
    },
    {
      "channel": 1,
      "note": 88,
      "start": 30.7769,
      "duration": 0.0613,
      "velocity": 99,
      "chip": "ym2612"
    },
    {
      "channel": 2,
      "note": 78,
      "start": 30.7774,
      "duration": 0.061,
      "velocity": 99,
      "chip": "ym2612"
    },
    {
      "channel": 1,
      "note": 88,
      "start": 30.8588,
      "duration": 0.6342,
      "velocity": 99,
      "chip": "ym2612"
    },
    {
      "channel": 2,
      "note": 78,
      "start": 30.8593,
      "duration": 0.634,
      "velocity": 99,
      "chip": "ym2612"
    },
    {
      "channel": 4,
      "note": 88,
      "start": 30.8602,
      "duration": 0.0606,
      "velocity": 99,
      "chip": "ym2612"
    },
    {
      "channel": 4,
      "note": 88,
      "start": 30.9415,
      "duration": 0.0611,
      "velocity": 99,
      "chip": "ym2612"
    },
    {
      "channel": 4,
      "note": 88,
      "start": 31.0234,
      "duration": 0.0612,
      "velocity": 99,
      "chip": "ym2612"
    },
    {
      "channel": 4,
      "note": 88,
      "start": 31.1052,
      "duration": 0.6342,
      "velocity": 99,
      "chip": "ym2612"
    },
    {
      "channel": 1,
      "note": 88,
      "start": 31.5137,
      "duration": 0.1431,
      "velocity": 99,
      "chip": "ym2612"
    },
    {
      "channel": 2,
      "note": 78,
      "start": 31.5142,
      "duration": 0.1429,
      "velocity": 99,
      "chip": "ym2612"
    },
    {
      "channel": 1,
      "note": 88,
      "start": 31.6774,
      "duration": 0.1431,
      "velocity": 99,
      "chip": "ym2612"
    },
    {
      "channel": 2,
      "note": 78,
      "start": 31.6779,
      "duration": 0.1429,
      "velocity": 99,
      "chip": "ym2612"
    },
    {
      "channel": 4,
      "note": 88,
      "start": 31.7601,
      "duration": 0.143,
      "velocity": 99,
      "chip": "ym2612"
    },
    {
      "channel": 1,
      "note": 88,
      "start": 31.8411,
      "duration": 0.1431,
      "velocity": 99,
      "chip": "ym2612"
    },
    {
      "channel": 2,
      "note": 78,
      "start": 31.8417,
      "duration": 0.1427,
      "velocity": 99,
      "chip": "ym2612"
    },
    {
      "channel": 4,
      "note": 88,
      "start": 31.9239,
      "duration": 0.1431,
      "velocity": 99,
      "chip": "ym2612"
    },
    {
      "channel": 1,
      "note": 88,
      "start": 32.0049,
      "duration": 0.1431,
      "velocity": 99,
      "chip": "ym2612"
    },
    {
      "channel": 2,
      "note": 78,
      "start": 32.0054,
      "duration": 0.1428,
      "velocity": 99,
      "chip": "ym2612"
    },
    {
      "channel": 4,
      "note": 88,
      "start": 32.0876,
      "duration": 0.143,
      "velocity": 99,
      "chip": "ym2612"
    },
    {
      "channel": 1,
      "note": 88,
      "start": 32.1686,
      "duration": 0.1431,
      "velocity": 99,
      "chip": "ym2612"
    },
    {
      "channel": 2,
      "note": 78,
      "start": 32.169,
      "duration": 0.1429,
      "velocity": 99,
      "chip": "ym2612"
    },
    {
      "channel": 4,
      "note": 88,
      "start": 32.2513,
      "duration": 0.0906,
      "velocity": 99,
      "chip": "ym2612"
    },
    {
      "channel": 0,
      "note": 47,
      "start": 32.3321,
      "duration": 0.6571,
      "velocity": 102,
      "chip": "ym2612"
    },
    {
      "channel": 1,
      "note": 88,
      "start": 32.3326,
      "duration": 0.0277,
      "velocity": 99,
      "chip": "ym2612"
    },
    {
      "channel": 2,
      "note": 78,
      "start": 32.3331,
      "duration": 0.0275,
      "velocity": 99,
      "chip": "ym2612"
    },
    {
      "channel": 3,
      "note": 47,
      "start": 32.3337,
      "duration": 0.6358,
      "velocity": 127,
      "chip": "ym2612"
    },
    {
      "channel": 4,
      "note": 88,
      "start": 32.3445,
      "duration": 0.0167,
      "velocity": 99,
      "chip": "ym2612"
    },
    {
      "channel": 1,
      "note": 88,
      "start": 32.363,
      "duration": 0.0078,
      "velocity": 99,
      "chip": "ym2612"
    },
    {
      "channel": 2,
      "note": 78,
      "start": 32.3635,
      "duration": 0.0075,
      "velocity": 99,
      "chip": "ym2612"
    },
    {
      "channel": 4,
      "note": 88,
      "start": 32.3644,
      "duration": 0.1142,
      "velocity": 99,
      "chip": "ym2612"
    },
    {
      "channel": 1,
      "note": 88,
      "start": 32.3734,
      "duration": 0.0224,
      "velocity": 99,
      "chip": "ym2612"
    },
    {
      "channel": 2,
      "note": 78,
      "start": 32.3739,
      "duration": 0.0223,
      "velocity": 99,
      "chip": "ym2612"
    },
    {
      "channel": 1,
      "note": 88,
      "start": 32.4166,
      "duration": 0.0612,
      "velocity": 99,
      "chip": "ym2612"
    },
    {
      "channel": 2,
      "note": 78,
      "start": 32.4171,
      "duration": 0.0609,
      "velocity": 99,
      "chip": "ym2612"
    },
    {
      "channel": 1,
      "note": 88,
      "start": 32.4985,
      "duration": 0.5174,
      "velocity": 99,
      "chip": "ym2612"
    },
    {
      "channel": 2,
      "note": 78,
      "start": 32.4989,
      "duration": 0.5173,
      "velocity": 99,
      "chip": "ym2612"
    },
    {
      "channel": 4,
      "note": 88,
      "start": 32.4999,
      "duration": 0.0605,
      "velocity": 99,
      "chip": "ym2612"
    },
    {
      "channel": 4,
      "note": 88,
      "start": 32.5812,
      "duration": 0.0611,
      "velocity": 99,
      "chip": "ym2612"
    },
    {
      "channel": 4,
      "note": 88,
      "start": 32.663,
      "duration": 0.0611,
      "velocity": 99,
      "chip": "ym2612"
    },
    {
      "channel": 4,
      "note": 88,
      "start": 32.7449,
      "duration": 0.3092,
      "velocity": 99,
      "chip": "ym2612"
    },
    {
      "channel": 0,
      "note": 47,
      "start": 32.9927,
      "duration": 0.0256,
      "velocity": 98,
      "chip": "ym2612"
    },
    {
      "channel": 3,
      "note": 47,
      "start": 32.9986,
      "duration": 0.018,
      "velocity": 127,
      "chip": "ym2612"
    },
    {
      "channel": 0,
      "note": 47,
      "start": 33.0185,
      "duration": 0.0206,
      "velocity": 98,
      "chip": "ym2612"
    },
    {
      "channel": 1,
      "note": 87,
      "start": 33.019,
      "duration": 0.0178,
      "velocity": 99,
      "chip": "ym2612"
    },
    {
      "channel": 2,
      "note": 78,
      "start": 33.0195,
      "duration": 0.0176,
      "velocity": 99,
      "chip": "ym2612"
    },
    {
      "channel": 3,
      "note": 47,
      "start": 33.0201,
      "duration": 0.0172,
      "velocity": 127,
      "chip": "ym2612"
    },
    {
      "channel": 0,
      "note": 47,
      "start": 33.0393,
      "duration": 0.116,
      "velocity": 98,
      "chip": "ym2612"
    },
    {
      "channel": 1,
      "note": 87,
      "start": 33.0398,
      "duration": 0.0952,
      "velocity": 99,
      "chip": "ym2612"
    },
    {
      "channel": 2,
      "note": 78,
      "start": 33.0403,
      "duration": 0.095,
      "velocity": 99,
      "chip": "ym2612"
    },
    {
      "channel": 3,
      "note": 47,
      "start": 33.0409,
      "duration": 0.0947,
      "velocity": 127,
      "chip": "ym2612"
    },
    {
      "channel": 4,
      "note": 88,
      "start": 33.0748,
      "duration": 0.0906,
      "velocity": 99,
      "chip": "ym2612"
    },
    {
      "channel": 0,
      "note": 47,
      "start": 33.1556,
      "duration": 0.0213,
      "velocity": 98,
      "chip": "ym2612"
    },
    {
      "channel": 1,
      "note": 87,
      "start": 33.1561,
      "duration": 0.0185,
      "velocity": 99,
      "chip": "ym2612"
    },
    {
      "channel": 2,
      "note": 78,
      "start": 33.1566,
      "duration": 0.0183,
      "velocity": 99,
      "chip": "ym2612"
    },
    {
      "channel": 3,
      "note": 47,
      "start": 33.1572,
      "duration": 0.0179,
      "velocity": 127,
      "chip": "ym2612"
    },
    {
      "channel": 4,
      "note": 87,
      "start": 33.168,
      "duration": 0.0185,
      "velocity": 99,
      "chip": "ym2612"
    },
    {
      "channel": 0,
      "note": 47,
      "start": 33.1771,
      "duration": 0.0209,
      "velocity": 98,
      "chip": "ym2612"
    },
    {
      "channel": 1,
      "note": 87,
      "start": 33.1776,
      "duration": 0.0181,
      "velocity": 99,
      "chip": "ym2612"
    },
    {
      "channel": 2,
      "note": 78,
      "start": 33.1781,
      "duration": 0.0179,
      "velocity": 99,
      "chip": "ym2612"
    },
    {
      "channel": 3,
      "note": 47,
      "start": 33.1787,
      "duration": 0.0176,
      "velocity": 127,
      "chip": "ym2612"
    },
    {
      "channel": 4,
      "note": 87,
      "start": 33.1892,
      "duration": 0.0312,
      "velocity": 99,
      "chip": "ym2612"
    },
    {
      "channel": 0,
      "note": 47,
      "start": 33.1982,
      "duration": 0.1235,
      "velocity": 98,
      "chip": "ym2612"
    },
    {
      "channel": 1,
      "note": 87,
      "start": 33.1987,
      "duration": 0.1027,
      "velocity": 99,
      "chip": "ym2612"
    },
    {
      "channel": 2,
      "note": 78,
      "start": 33.1992,
      "duration": 0.1024,
      "velocity": 99,
      "chip": "ym2612"
    },
    {
      "channel": 3,
      "note": 47,
      "start": 33.1998,
      "duration": 0.1022,
      "velocity": 127,
      "chip": "ym2612"
    },
    {
      "channel": 4,
      "note": 87,
      "start": 33.241,
      "duration": 0.1091,
      "velocity": 99,
      "chip": "ym2612"
    },
    {
      "channel": 0,
      "note": 54,
      "start": 33.3256,
      "duration": 38.1606,
      "velocity": 98,
      "chip": "ym2612"
    },
    {
      "channel": 1,
      "note": 80,
      "start": 33.33,
      "duration": 38.1563,
      "velocity": 62,
      "chip": "ym2612"
    },
    {
      "channel": 2,
      "note": 73,
      "start": 33.3344,
      "duration": 0.0344,
      "velocity": 99,
      "chip": "ym2612"
    },
    {
      "channel": 3,
      "note": 47,
      "start": 33.3404,
      "duration": 0.0001,
      "velocity": 127,
      "chip": "ym2612"
    },
    {
      "channel": 3,
      "note": 49,
      "start": 33.3449,
      "duration": 0.1026,
      "velocity": 127,
      "chip": "ym2612"
    },
    {
      "channel": 4,
      "note": 87,
      "start": 33.3527,
      "duration": 0.0168,
      "velocity": 99,
      "chip": "ym2612"
    },
    {
      "channel": 2,
      "note": 85,
      "start": 33.3715,
      "duration": 0.013,
      "velocity": 99,
      "chip": "ym2612"
    },
    {
      "channel": 4,
      "note": 87,
      "start": 33.3778,
      "duration": 38.1084,
      "velocity": 62,
      "chip": "ym2612"
    },
    {
      "channel": 2,
      "note": 85,
      "start": 33.3871,
      "duration": 0.0074,
      "velocity": 99,
      "chip": "ym2612"
    },
    {
      "channel": 2,
      "note": 85,
      "start": 33.4064,
      "duration": 0.0613,
      "velocity": 99,
      "chip": "ym2612"
    },
    {
      "channel": 3,
      "note": 47,
      "start": 33.4683,
      "duration": 0.0001,
      "velocity": 127,
      "chip": "ym2612"
    }
  ]
}