{
  "track_name": "02 - Toxic Caves",
  "duration_sec": 77.577,
  "sample_rate": 44100,
  "note_count": 1109,
  "unique_pitches": 27,
  "pitch_range": 44,
  "avg_note_duration": 0.0332,
  "reconstruction_stats": {
    "notes_reconstructed": 1109,
    "keyon_events": 1109,
    "keyoff_events": 1109,
    "orphan_keyons": 0,
    "unique_pitches": 27,
    "pitch_range": 44,
    "avg_duration_sec": 0.0332
  },
  "metadata": {
    "source": "S\\Sonic Spinball\\02 - Toxic Caves.vgz"
  },
  "notes": [
    {
      "channel": 0,
      "note": 67,
      "start": 0.0029,
      "duration": 0.0015,
      "velocity": 121,
      "chip": "ym2612"
    },
    {
      "channel": 1,
      "note": 54,
      "start": 0.0043,
      "duration": 0.0,
      "velocity": 99,
      "chip": "ym2612"
    },
    {
      "channel": 0,
      "note": 67,
      "start": 0.006,
      "duration": 0.0,
      "velocity": 121,
      "chip": "ym2612"
    },
    {
      "channel": 0,
      "note": 67,
      "start": 0.0096,
      "duration": 0.0032,
      "velocity": 121,
      "chip": "ym2612"
    },
    {
      "channel": 1,
      "note": 54,
      "start": 0.0111,
      "duration": 0.4206,
      "velocity": 99,
      "chip": "ym2612"
    },
    {
      "channel": 3,
      "note": 78,
      "start": 0.0127,
      "duration": 0.0,
      "velocity": 108,
      "chip": "ym2612"
    },
    {
      "channel": 0,
      "note": 67,
      "start": 0.0142,
      "duration": 0.0016,
      "velocity": 121,
      "chip": "ym2612"
    },
    {
      "channel": 3,
      "note": 66,
      "start": 0.0158,
      "duration": 0.0001,
      "velocity": 108,
      "chip": "ym2612"
    },
    {
      "channel": 0,
      "note": 67,
      "start": 0.0214,
      "duration": 0.0017,
      "velocity": 121,
      "chip": "ym2612"
    },
    {
      "channel": 3,
      "note": 78,
      "start": 0.023,
      "duration": 0.0,
      "velocity": 108,
      "chip": "ym2612"
    },
    {
      "channel": 0,
      "note": 67,
      "start": 0.0245,
      "duration": 0.0016,
      "velocity": 121,
      "chip": "ym2612"
    },
    {
      "channel": 3,
      "note": 66,
      "start": 0.0261,
      "duration": 0.0002,
      "velocity": 108,
      "chip": "ym2612"
    },
    {
      "channel": 0,
      "note": 67,
      "start": 0.0278,
      "duration": 0.0296,
      "velocity": 121,
      "chip": "ym2612"
    },
    {
      "channel": 3,
      "note": 78,
      "start": 0.0294,
      "duration": 0.0114,
      "velocity": 108,
      "chip": "ym2612"
    },
    {
      "channel": 0,
      "note": 67,
      "start": 0.0603,
      "duration": 0.064,
      "velocity": 121,
      "chip": "ym2612"
    },
    {
      "channel": 3,
      "note": 85,
      "start": 0.0637,
      "duration": 0.0941,
      "velocity": 108,
      "chip": "ym2612"
    },
    {
      "channel": 0,
      "note": 67,
      "start": 0.1773,
      "duration": 0.1143,
      "velocity": 121,
      "chip": "ym2612"
    },
    {
      "channel": 0,
      "note": 67,
      "start": 0.2944,
      "duration": 0.0641,
      "velocity": 121,
      "chip": "ym2612"
    },
    {
      "channel": 3,
      "note": 85,
      "start": 0.2982,
      "duration": 0.1273,
      "velocity": 108,
      "chip": "ym2612"
    },
    {
      "channel": 0,
      "note": 67,
      "start": 0.4301,
      "duration": 0.0017,
      "velocity": 121,
      "chip": "ym2612"
    },
    {
      "channel": 3,
      "note": 83,
      "start": 0.4317,
      "duration": 0.0016,
      "velocity": 108,
      "chip": "ym2612"
    },
    {
      "channel": 0,
      "note": 67,
      "start": 0.4332,
      "duration": 0.0001,
      "velocity": 121,
      "chip": "ym2612"
    },
    {
      "channel": 0,
      "note": 67,
      "start": 0.4371,
      "duration": 0.0016,
      "velocity": 121,
      "chip": "ym2612"
    },
    {
      "channel": 3,
      "note": 81,
      "start": 0.4387,
      "duration": 0.0001,
      "velocity": 108,
      "chip": "ym2612"
    },
    {
      "channel": 0,
      "note": 67,
      "start": 0.4403,
      "duration": 0.0,
      "velocity": 121,
      "chip": "ym2612"
    },
    {
      "channel": 0,
      "note": 67,
      "start": 0.4439,
      "duration": 0.0017,
      "velocity": 121,
      "chip": "ym2612"
    },
    {
      "channel": 3,
      "note": 78,
      "start": 0.4455,
      "duration": 0.0085,
      "velocity": 108,
      "chip": "ym2612"
    },
    {
      "channel": 0,
      "note": 67,
      "start": 0.4471,
      "duration": 0.0,
      "velocity": 121,
      "chip": "ym2612"
    },
    {
      "channel": 0,
      "note": 67,
      "start": 0.4524,
      "duration": 0.0017,
      "velocity": 121,
      "chip": "ym2612"
    },
    {
      "channel": 4,
      "note": 66,
      "start": 0.454,
      "duration": 0.0017,
      "velocity": 108,
      "chip": "ym2612"
    },
    {
      "channel": 0,
      "note": 67,
      "start": 0.4556,
      "duration": 0.0,
      "velocity": 121,
      "chip": "ym2612"
    },
    {
      "channel": 0,
      "note": 67,
      "start": 0.4592,
      "duration": 0.0017,
      "velocity": 121,
      "chip": "ym2612"
    },
    {
      "channel": 3,
      "note": 78,
      "start": 0.4607,
      "duration": 0.0,
      "velocity": 108,
      "chip": "ym2612"
    },
    {
      "channel": 0,
      "note": 67,
      "start": 0.4623,
      "duration": 0.0016,
      "velocity": 121,
      "chip": "ym2612"
    },
    {
      "channel": 3,
      "note": 66,
      "start": 0.4639,
      "duration": 0.0001,
      "velocity": 108,
      "chip": "ym2612"
    },
    {
      "channel": 0,
      "note": 67,
      "start": 0.4691,
      "duration": 0.0017,
      "velocity": 121,
      "chip": "ym2612"
    },
    {
      "channel": 3,
      "note": 78,
      "start": 0.4707,
      "duration": 0.0,
      "velocity": 108,
      "chip": "ym2612"
    },
    {
      "channel": 0,
      "note": 67,
      "start": 0.4722,
      "duration": 0.0016,
      "velocity": 121,
      "chip": "ym2612"
    },
    {
      "channel": 3,
      "note": 66,
      "start": 0.4738,
      "duration": 0.0001,
      "velocity": 108,
      "chip": "ym2612"
    },
    {
      "channel": 0,
      "note": 67,
      "start": 0.4754,
      "duration": 0.0297,
      "velocity": 121,
      "chip": "ym2612"
    },
    {
      "channel": 3,
      "note": 78,
      "start": 0.477,
      "duration": 0.0115,
      "velocity": 108,
      "chip": "ym2612"
    },
    {
      "channel": 0,
      "note": 67,
      "start": 0.508,
      "duration": 0.0641,
      "velocity": 121,
      "chip": "ym2612"
    },
    {
      "channel": 3,
      "note": 85,
      "start": 0.5111,
      "duration": 0.0945,
      "velocity": 108,
      "chip": "ym2612"
    },
    {
      "channel": 0,
      "note": 67,
      "start": 0.6251,
      "duration": 0.1143,
      "velocity": 121,
      "chip": "ym2612"
    },
    {
      "channel": 0,
      "note": 67,
      "start": 0.7448,
      "duration": 0.0016,
      "velocity": 121,
      "chip": "ym2612"
    },
    {
      "channel": 3,
      "note": 85,
      "start": 0.7464,
      "duration": 0.0057,
      "velocity": 108,
      "chip": "ym2612"
    },
    {
      "channel": 0,
      "note": 67,
      "start": 0.7504,
      "duration": 0.0017,
      "velocity": 121,
      "chip": "ym2612"
    },
    {
      "channel": 4,
      "note": 84,
      "start": 0.752,
      "duration": 0.0016,
      "velocity": 108,
      "chip": "ym2612"
    },
    {
      "channel": 0,
      "note": 67,
      "start": 0.7536,
      "duration": 0.0001,
      "velocity": 121,
      "chip": "ym2612"
    },
    {
      "channel": 0,
      "note": 67,
      "start": 0.7581,
      "duration": 0.0016,
      "velocity": 121,
      "chip": "ym2612"
    },
    {
      "channel": 3,
      "note": 83,
      "start": 0.7597,
      "duration": 0.0001,
      "velocity": 108,
      "chip": "ym2612"
    },
    {
      "channel": 0,
      "note": 67,
      "start": 0.7613,
      "duration": 0.0,
      "velocity": 121,
      "chip": "ym2612"
    },
    {
      "channel": 0,
      "note": 67,
      "start": 0.7655,
      "duration": 0.0017,
      "velocity": 121,
      "chip": "ym2612"
    },
    {
      "channel": 3,
      "note": 81,
      "start": 0.7671,
      "duration": 0.0016,
      "velocity": 108,
      "chip": "ym2612"
    },
    {
      "channel": 0,
      "note": 67,
      "start": 0.7686,
      "duration": 0.0,
      "velocity": 121,
      "chip": "ym2612"
    },
    {
      "channel": 0,
      "note": 67,
      "start": 0.7734,
      "duration": 0.0032,
      "velocity": 121,
      "chip": "ym2612"
    },
    {
      "channel": 1,
      "note": 54,
      "start": 0.775,
      "duration": 0.0016,
      "velocity": 99,
      "chip": "ym2612"
    },
    {
      "channel": 3,
      "note": 66,
      "start": 0.7765,
      "duration": 0.0017,
      "velocity": 108,
      "chip": "ym2612"
    },
    {
      "channel": 0,
      "note": 67,
      "start": 0.7781,
      "duration": 0.0,
      "velocity": 121,
      "chip": "ym2612"
    },
    {
      "channel": 0,
      "note": 67,
      "start": 0.7826,
      "duration": 0.0032,
      "velocity": 121,
      "chip": "ym2612"
    },
    {
      "channel": 1,
      "note": 54,
      "start": 0.7841,
      "duration": 0.42,
      "velocity": 99,
      "chip": "ym2612"
    },
    {
      "channel": 3,
      "note": 78,
      "start": 0.7857,
      "duration": 0.0,
      "velocity": 108,
      "chip": "ym2612"
    },
    {
      "channel": 0,
      "note": 67,
      "start": 0.7873,
      "duration": 0.0016,
      "velocity": 121,
      "chip": "ym2612"
    },
    {
      "channel": 3,
      "note": 66,
      "start": 0.7889,
      "duration": 0.0001,
      "velocity": 108,
      "chip": "ym2612"
    },
    {
      "channel": 0,
      "note": 67,
      "start": 0.7942,
      "duration": 0.0016,
      "velocity": 121,
      "chip": "ym2612"
    },
    {
      "channel": 3,
      "note": 78,
      "start": 0.7957,
      "duration": 0.0,
      "velocity": 108,
      "chip": "ym2612"
    },
    {
      "channel": 0,
      "note": 67,
      "start": 0.7973,
      "duration": 0.0016,
      "velocity": 121,
      "chip": "ym2612"
    },
    {
      "channel": 3,
      "note": 66,
      "start": 0.7989,
      "duration": 0.0002,
      "velocity": 108,
      "chip": "ym2612"
    },
    {
      "channel": 0,
      "note": 67,
      "start": 0.8007,
      "duration": 0.0294,
      "velocity": 121,
      "chip": "ym2612"
    },
    {
      "channel": 3,
      "note": 78,
      "start": 0.8022,
      "duration": 0.0112,
      "velocity": 108,
      "chip": "ym2612"
    },
    {
      "channel": 0,
      "note": 67,
      "start": 0.8329,
      "duration": 0.0474,
      "velocity": 121,
      "chip": "ym2612"
    },
    {
      "channel": 3,
      "note": 85,
      "start": 0.836,
      "duration": 0.0946,
      "velocity": 108,
      "chip": "ym2612"
    },
    {
      "channel": 0,
      "note": 67,
      "start": 0.95,
      "duration": 0.1143,
      "velocity": 121,
      "chip": "ym2612"
    },
    {
      "channel": 0,
      "note": 67,
      "start": 1.0672,
      "duration": 0.064,
      "velocity": 121,
      "chip": "ym2612"
    },
    {
      "channel": 3,
      "note": 85,
      "start": 1.0713,
      "duration": 0.127,
      "velocity": 108,
      "chip": "ym2612"
    },
    {
      "channel": 0,
      "note": 67,
      "start": 1.2026,
      "duration": 0.0017,
      "velocity": 121,
      "chip": "ym2612"
    },
    {
      "channel": 3,
      "note": 83,
      "start": 1.2041,
      "duration": 0.0016,
      "velocity": 108,
      "chip": "ym2612"
    },
    {
      "channel": 0,
      "note": 67,
      "start": 1.2057,
      "duration": 0.0001,
      "velocity": 121,
      "chip": "ym2612"
    },
    {
      "channel": 0,
      "note": 67,
      "start": 1.2096,
      "duration": 0.0016,
      "velocity": 121,
      "chip": "ym2612"
    },
    {
      "channel": 3,
      "note": 81,
      "start": 1.2112,
      "duration": 0.0001,
      "velocity": 108,
      "chip": "ym2612"
    },
    {
      "channel": 0,
      "note": 67,
      "start": 1.2127,
      "duration": 0.0,
      "velocity": 121,
      "chip": "ym2612"
    },
    {
      "channel": 0,
      "note": 67,
      "start": 1.2169,
      "duration": 0.0017,
      "velocity": 121,
      "chip": "ym2612"
    },
    {
      "channel": 3,
      "note": 78,
      "start": 1.2185,
      "duration": 0.0125,
      "velocity": 108,
      "chip": "ym2612"
    },
    {
      "channel": 0,
      "note": 67,
      "start": 1.22,
      "duration": 0.0,
      "velocity": 121,
      "chip": "ym2612"
    },
    {
      "channel": 0,
      "note": 67,
      "start": 1.2216,
      "duration": 0.1096,
      "velocity": 121,
      "chip": "ym2612"
    },
    {
      "channel": 4,
      "note": 66,
      "start": 1.2246,
      "duration": 0.2071,
      "velocity": 108,
      "chip": "ym2612"
    },
    {
      "channel": 0,
      "note": 67,
      "start": 1.3341,
      "duration": 0.0639,
      "velocity": 121,
      "chip": "ym2612"
    },
    {
      "channel": 0,
      "note": 67,
      "start": 1.4678,
      "duration": 0.1143,
      "velocity": 121,
      "chip": "ym2612"
    },
    {
      "channel": 3,
      "note": 78,
      "start": 1.471,
      "duration": 0.0945,
      "velocity": 108,
      "chip": "ym2612"
    },
    {
      "channel": 0,
      "note": 67,
      "start": 1.585,
      "duration": 0.0473,
      "velocity": 121,
      "chip": "ym2612"
    },
    {
      "channel": 3,
      "note": 66,
      "start": 1.5881,
      "duration": 0.1112,
      "velocity": 108,
      "chip": "ym2612"
    },
    {
      "channel": 0,
      "note": 67,
      "start": 1.7025,
      "duration": 0.1138,
      "velocity": 121,
      "chip": "ym2612"
    },
    {
      "channel": 3,
      "note": 78,
      "start": 1.7056,
      "duration": 0.0941,
      "velocity": 108,
      "chip": "ym2612"
    },
    {
      "channel": 0,
      "note": 67,
      "start": 1.8193,
      "duration": 0.064,
      "velocity": 121,
      "chip": "ym2612"
    },
    {
      "channel": 3,
      "note": 66,
      "start": 1.8225,
      "duration": 0.0943,
      "velocity": 108,
      "chip": "ym2612"
    },
    {
      "channel": 0,
      "note": 67,
      "start": 1.953,
      "duration": 0.1143,
      "velocity": 121,
      "chip": "ym2612"
    },
    {
      "channel": 3,
      "note": 78,
      "start": 1.9559,
      "duration": 0.0947,
      "velocity": 108,
      "chip": "ym2612"
    },
    {
      "channel": 0,
      "note": 67,
      "start": 2.0702,
      "duration": 0.0474,
      "velocity": 121,
      "chip": "ym2612"
    },
    {
      "channel": 1,
      "note": 66,
      "start": 2.0727,
      "duration": 0.3459,
      "velocity": 99,
      "chip": "ym2612"
    },
    {
      "channel": 3,
      "note": 85,
      "start": 2.0757,
      "duration": 0.0921,
      "velocity": 108,
      "chip": "ym2612"
    },
    {
      "channel": 2,
      "note": 66,
      "start": 2.0785,
      "duration": 0.3404,
      "velocity": 122,
      "chip": "ym2612"
    },
    {
      "channel": 0,
      "note": 67,
      "start": 2.1873,
      "duration": 0.1143,
      "velocity": 121,
      "chip": "ym2612"
    },
    {
      "channel": 0,
      "note": 67,
      "start": 2.3045,
      "duration": 0.0639,
      "velocity": 121,
      "chip": "ym2612"
    },
    {
      "channel": 3,
      "note": 85,
      "start": 2.3088,
      "duration": 0.1434,
      "velocity": 108,
      "chip": "ym2612"
    },
    {
      "channel": 0,
      "note": 67,
      "start": 2.4216,
      "duration": 0.1309,
      "velocity": 121,
      "chip": "ym2612"
    },
    {
      "channel": 1,
      "note": 64,
      "start": 2.4242,
      "duration": 0.1285,
      "velocity": 99,
      "chip": "ym2612"
    },
    {
      "channel": 4,
      "note": 84,
      "start": 2.4271,
      "duration": 0.1422,
      "velocity": 108,
      "chip": "ym2612"
    },
    {
      "channel": 2,
      "note": 64,
      "start": 2.4302,
      "duration": 0.1227,
      "velocity": 122,
      "chip": "ym2612"
    },
    {
      "channel": 0,
      "note": 67,
      "start": 2.5556,
      "duration": 0.0471,
      "velocity": 121,
      "chip": "ym2612"
    },
    {
      "channel": 1,
      "note": 61,
      "start": 2.5579,
      "duration": 0.1117,
      "velocity": 99,
      "chip": "ym2612"
    },
    {
      "channel": 2,
      "note": 61,
      "start": 2.561,
      "duration": 0.1089,
      "velocity": 122,
      "chip": "ym2612"
    },
    {
      "channel": 0,
      "note": 67,
      "start": 2.6729,
      "duration": 0.1139,
      "velocity": 121,
      "chip": "ym2612"
    },
    {
      "channel": 1,
      "note": 60,
      "start": 2.6751,
      "duration": 0.1117,
      "velocity": 99,
      "chip": "ym2612"
    },
    {
      "channel": 3,
      "note": 83,
      "start": 2.6781,
      "duration": 0.1088,
      "velocity": 108,
      "chip": "ym2612"
    },
    {
      "channel": 2,
      "note": 60,
      "start": 2.6806,
      "duration": 0.1066,
      "velocity": 122,
      "chip": "ym2612"
    },
    {
      "channel": 0,
      "note": 67,
      "start": 2.7915,
      "duration": 0.0032,
      "velocity": 121,
      "chip": "ym2612"
    },
    {
      "channel": 1,
      "note": 59,
      "start": 2.793,
      "duration": 0.0017,
      "velocity": 99,
      "chip": "ym2612"
    },
    {
      "channel": 2,
      "note": 59,
      "start": 2.7946,
      "duration": 0.0001,
      "velocity": 122,
      "chip": "ym2612"
    },
    {
      "channel": 0,
      "note": 67,
      "start": 2.7983,
      "duration": 0.0047,
      "velocity": 121,
      "chip": "ym2612"
    },
    {
      "channel": 1,
      "note": 52,
      "start": 2.7998,
      "duration": 0.0032,
      "velocity": 99,
      "chip": "ym2612"
    },
    {
      "channel": 3,
      "note": 81,
      "start": 2.8014,
      "duration": 0.0093,
      "velocity": 108,
      "chip": "ym2612"
    },
    {
      "channel": 2,
      "note": 52,
      "start": 2.8029,
      "duration": 0.0001,
      "velocity": 122,
      "chip": "ym2612"
    },
    {
      "channel": 0,
      "note": 67,
      "start": 2.8075,
      "duration": 0.0032,
      "velocity": 121,
      "chip": "ym2612"
    },
    {
      "channel": 1,
      "note": 53,
      "start": 2.809,
      "duration": 0.0017,
      "velocity": 99,
      "chip": "ym2612"
    },
    {
      "channel": 2,
      "note": 53,
      "start": 2.8106,
      "duration": 0.0002,
      "velocity": 122,
      "chip": "ym2612"
    },
    {
      "channel": 1,
      "note": 54,
      "start": 2.8155,
      "duration": 0.0015,
      "velocity": 99,
      "chip": "ym2612"
    },
    {
      "channel": 2,
      "note": 54,
      "start": 2.8169,
      "duration": 0.0439,
      "velocity": 122,
      "chip": "ym2612"
    },
    {
      "channel": 1,
      "note": 54,
      "start": 2.8217,
      "duration": 0.0001,
      "velocity": 99,
      "chip": "ym2612"
    },
    {
      "channel": 1,
      "note": 66,
      "start": 2.8254,
      "duration": 0.0001,
      "velocity": 99,
      "chip": "ym2612"
    },
    {
      "channel": 1,
      "note": 64,
      "start": 2.8271,
      "duration": 0.0002,
      "velocity": 99,
      "chip": "ym2612"
    },
    {
      "channel": 1,
      "note": 61,
      "start": 2.8636,
      "duration": 0.0973,
      "velocity": 99,
      "chip": "ym2612"
    },
    {
      "channel": 1,
      "note": 60,
      "start": 3.0976,
      "duration": 0.0976,
      "velocity": 99,
      "chip": "ym2612"
    },
    {
      "channel": 1,
      "note": 59,
      "start": 3.2163,
      "duration": 0.0,
      "velocity": 99,
      "chip": "ym2612"
    },
    {
      "channel": 1,
      "note": 57,
      "start": 3.22,
      "duration": 0.0,
      "velocity": 99,
      "chip": "ym2612"
    },
    {
      "channel": 1,
      "note": 54,
      "start": 3.2257,
      "duration": 0.0,
      "velocity": 99,
      "chip": "ym2612"
    },
    {
      "channel": 1,
      "note": 59,
      "start": 3.2311,
      "duration": 0.0,
      "velocity": 99,
      "chip": "ym2612"
    },
    {
      "channel": 1,
      "note": 59,
      "start": 3.2351,
      "duration": 0.0,
      "velocity": 99,
      "chip": "ym2612"
    },
    {
      "channel": 1,
      "note": 59,
      "start": 3.2388,
      "duration": 0.0,
      "velocity": 99,
      "chip": "ym2612"
    },
    {
      "channel": 1,
      "note": 61,
      "start": 3.2403,
      "duration": 0.0,
      "velocity": 99,
      "chip": "ym2612"
    },
    {
      "channel": 1,
      "note": 62,
      "start": 3.2419,
      "duration": 0.0,
      "velocity": 99,
      "chip": "ym2612"
    },
    {
      "channel": 1,
      "note": 52,
      "start": 3.2777,
      "duration": 0.0973,
      "velocity": 99,
      "chip": "ym2612"
    },
    {
      "channel": 1,
      "note": 52,
      "start": 3.5142,
      "duration": 0.0,
      "velocity": 99,
      "chip": "ym2612"
    },
    {
      "channel": 1,
      "note": 52,
      "start": 3.5192,
      "duration": 0.0,
      "velocity": 99,
      "chip": "ym2612"
    },
    {
      "channel": 1,
      "note": 52,
      "start": 3.5248,
      "duration": 0.0,
      "velocity": 99,
      "chip": "ym2612"
    },
    {
      "channel": 1,
      "note": 53,
      "start": 3.5286,
      "duration": 0.0,
      "velocity": 99,
      "chip": "ym2612"
    },
    {
      "channel": 1,
      "note": 54,
      "start": 3.534,
      "duration": 0.003,
      "velocity": 99,
      "chip": "ym2612"
    },
    {
      "channel": 1,
      "note": 54,
      "start": 3.5385,
      "duration": 0.0,
      "velocity": 99,
      "chip": "ym2612"
    },
    {
      "channel": 1,
      "note": 66,
      "start": 3.5422,
      "duration": 0.0,
      "velocity": 99,
      "chip": "ym2612"
    },
    {
      "channel": 1,
      "note": 64,
      "start": 3.5437,
      "duration": 0.0,
      "velocity": 99,
      "chip": "ym2612"
    },
    {
      "channel": 1,
      "note": 61,
      "start": 3.581,
      "duration": 0.0974,
      "velocity": 99,
      "chip": "ym2612"
    },
    {
      "channel": 1,
      "note": 60,
      "start": 3.8152,
      "duration": 0.1141,
      "velocity": 99,
      "chip": "ym2612"
    },
    {
      "channel": 1,
      "note": 59,
      "start": 3.9338,
      "duration": 0.0,
      "velocity": 99,
      "chip": "ym2612"
    },
    {
      "channel": 1,
      "note": 57,
      "start": 3.9389,
      "duration": 0.0,
      "velocity": 99,
      "chip": "ym2612"
    },
    {
      "channel": 1,
      "note": 54,
      "start": 3.943,
      "duration": 0.0,
      "velocity": 99,
      "chip": "ym2612"
    },
    {
      "channel": 1,
      "note": 59,
      "start": 3.9484,
      "duration": 0.0024,
      "velocity": 99,
      "chip": "ym2612"
    },
    {
      "channel": 1,
      "note": 59,
      "start": 3.9523,
      "duration": 0.0,
      "velocity": 99,
      "chip": "ym2612"
    },
    {
      "channel": 1,
      "note": 59,
      "start": 3.9559,
      "duration": 0.0,
      "velocity": 99,
      "chip": "ym2612"
    },
    {
      "channel": 1,
      "note": 61,
      "start": 3.9576,
      "duration": 0.0,
      "velocity": 99,
      "chip": "ym2612"
    },
    {
      "channel": 1,
      "note": 62,
      "start": 3.9592,
      "duration": 0.0009,
      "velocity": 99,
      "chip": "ym2612"
    },
    {
      "channel": 1,
      "note": 52,
      "start": 3.9782,
      "duration": 0.0975,
      "velocity": 99,
      "chip": "ym2612"
    },
    {
      "channel": 1,
      "note": 52,
      "start": 4.2318,
      "duration": 0.0,
      "velocity": 99,
      "chip": "ym2612"
    },
    {
      "channel": 1,
      "note": 52,
      "start": 4.2366,
      "duration": 0.0,
      "velocity": 99,
      "chip": "ym2612"
    },
    {
      "channel": 1,
      "note": 52,
      "start": 4.2419,
      "duration": 0.0,
      "velocity": 99,
      "chip": "ym2612"
    },
    {
      "channel": 1,
      "note": 53,
      "start": 4.2459,
      "duration": 0.0,
      "velocity": 99,
      "chip": "ym2612"
    },
    {
      "channel": 1,
      "note": 54,
      "start": 4.2495,
      "duration": 0.0016,
      "velocity": 99,
      "chip": "ym2612"
    },
    {
      "channel": 3,
      "note": 66,
      "start": 4.2511,
      "duration": 0.0001,
      "velocity": 108,
      "chip": "ym2612"
    },
    {
      "channel": 0,
      "note": 78,
      "start": 4.2527,
      "duration": 0.0878,
      "velocity": 106,
      "chip": "ym2612"
    },
    {
      "channel": 3,
      "note": 78,
      "start": 4.2543,
      "duration": 0.0697,
      "velocity": 108,
      "chip": "ym2612"
    },
    {
      "channel": 1,
      "note": 54,
      "start": 4.3437,
      "duration": 0.0806,
      "velocity": 99,
      "chip": "ym2612"
    },
    {
      "channel": 0,
      "note": 76,
      "start": 4.3462,
      "duration": 0.1282,
      "velocity": 106,
      "chip": "ym2612"
    },
    {
      "channel": 3,
      "note": 66,
      "start": 4.3489,
      "duration": 0.1341,
      "velocity": 108,
      "chip": "ym2612"
    },
    {
      "channel": 1,
      "note": 66,
      "start": 4.4798,
      "duration": 0.0032,
      "velocity": 99,
      "chip": "ym2612"
    },
    {
      "channel": 0,
      "note": 78,
      "start": 4.4813,
      "duration": 0.0018,
      "velocity": 106,
      "chip": "ym2612"
    },
    {
      "channel": 4,
      "note": 73,
      "start": 4.4829,
      "duration": 0.0002,
      "velocity": 108,
      "chip": "ym2612"
    },
    {
      "channel": 1,
      "note": 64,
      "start": 4.4846,
      "duration": 0.0032,
      "velocity": 99,
      "chip": "ym2612"
    },
    {
      "channel": 0,
      "note": 76,
      "start": 4.4862,
      "duration": 0.0017,
      "velocity": 106,
      "chip": "ym2612"
    },
    {
      "channel": 3,
      "note": 66,
      "start": 4.4878,
      "duration": 0.0139,
      "velocity": 108,
      "chip": "ym2612"
    },
    {
      "channel": 0,
      "note": 78,
      "start": 4.4894,
      "duration": 0.0121,
      "velocity": 106,
      "chip": "ym2612"
    },
    {
      "channel": 1,
      "note": 61,
      "start": 4.505,
      "duration": 0.097,
      "velocity": 99,
      "chip": "ym2612"
    },
    {
      "channel": 0,
      "note": 80,
      "start": 4.5078,
      "duration": 0.3618,
      "velocity": 106,
      "chip": "ym2612"
    },
    {
      "channel": 3,
      "note": 78,
      "start": 4.5108,
      "duration": 0.0912,
      "velocity": 108,
      "chip": "ym2612"
    },
    {
      "channel": 1,
      "note": 60,
      "start": 4.7552,
      "duration": 0.0977,
      "velocity": 99,
      "chip": "ym2612"
    },
    {
      "channel": 3,
      "note": 78,
      "start": 4.7588,
      "duration": 0.0943,
      "velocity": 108,
      "chip": "ym2612"
    },
    {
      "channel": 0,
      "note": 78,
      "start": 4.8741,
      "duration": 0.0016,
      "velocity": 106,
      "chip": "ym2612"
    },
    {
      "channel": 3,
      "note": 66,
      "start": 4.8757,
      "duration": 0.0016,
      "velocity": 108,
      "chip": "ym2612"
    },
    {
      "channel": 1,
      "note": 59,
      "start": 4.8772,
      "duration": 0.0,
      "velocity": 99,
      "chip": "ym2612"
    },
    {
      "channel": 3,
      "note": 73,
      "start": 4.8817,
      "duration": 0.0016,
      "velocity": 108,
      "chip": "ym2612"
    },
    {
      "channel": 1,
      "note": 57,
      "start": 4.8832,
      "duration": 0.0,
      "velocity": 99,
      "chip": "ym2612"
    },
    {
      "channel": 1,
      "note": 54,
      "start": 4.8882,
      "duration": 0.0017,
      "velocity": 99,
      "chip": "ym2612"
    },
    {
      "channel": 3,
      "note": 66,
      "start": 4.8898,
      "duration": 0.0,
      "velocity": 108,
      "chip": "ym2612"
    },
    {
      "channel": 1,
      "note": 59,
      "start": 4.8934,
      "duration": 0.0016,
      "velocity": 99,
      "chip": "ym2612"
    },
    {
      "channel": 3,
      "note": 71,
      "start": 4.8949,
      "duration": 0.0008,
      "velocity": 108,
      "chip": "ym2612"
    },
    {
      "channel": 1,
      "note": 59,
      "start": 4.9002,
      "duration": 0.0032,
      "velocity": 99,
      "chip": "ym2612"
    },
    {
      "channel": 0,
      "note": 78,
      "start": 4.9018,
      "duration": 0.0017,
      "velocity": 106,
      "chip": "ym2612"
    },
    {
      "channel": 3,
      "note": 83,
      "start": 4.9034,
      "duration": 0.0001,
      "velocity": 108,
      "chip": "ym2612"
    },
    {
      "channel": 0,
      "note": 76,
      "start": 4.9051,
      "duration": 0.0016,
      "velocity": 106,
      "chip": "ym2612"
    },
    {
      "channel": 3,
      "note": 71,
      "start": 4.9066,
      "duration": 0.0001,
      "velocity": 108,
      "chip": "ym2612"
    },
    {
      "channel": 1,
      "note": 59,
      "start": 4.9107,
      "duration": 0.0032,
      "velocity": 99,
      "chip": "ym2612"
    },
    {
      "channel": 0,
      "note": 78,
      "start": 4.9123,
      "duration": 0.0017,
      "velocity": 106,
      "chip": "ym2612"
    },
    {
      "channel": 3,
      "note": 78,
      "start": 4.9139,
      "duration": 0.0,
      "velocity": 108,
      "chip": "ym2612"
    },
    {
      "channel": 1,
      "note": 61,
      "start": 4.9155,
      "duration": 0.0032,
      "velocity": 99,
      "chip": "ym2612"
    },
    {
      "channel": 0,
      "note": 76,
      "start": 4.917,
      "duration": 0.0017,
      "velocity": 106,
      "chip": "ym2612"
    },
    {
      "channel": 3,
      "note": 71,
      "start": 4.9185,
      "duration": 0.0,
      "velocity": 108,
      "chip": "ym2612"
    },
    {
      "channel": 1,
      "note": 62,
      "start": 4.9202,
      "duration": 0.0032,
      "velocity": 99,
      "chip": "ym2612"
    },
    {
      "channel": 0,
      "note": 78,
      "start": 4.9218,
      "duration": 0.0087,
      "velocity": 106,
      "chip": "ym2612"
    },
    {
      "channel": 3,
      "note": 78,
      "start": 4.9233,
      "duration": 0.0001,
      "velocity": 108,
      "chip": "ym2612"
    },
    {
      "channel": 1,
      "note": 52,
      "start": 4.9337,
      "duration": 0.0972,
      "velocity": 99,
      "chip": "ym2612"
    },
    {
      "channel": 0,
      "note": 83,
      "start": 4.9365,
      "duration": 0.2451,
      "velocity": 106,
      "chip": "ym2612"
    },
    {
      "channel": 3,
      "note": 64,
      "start": 4.9391,
      "duration": 0.0751,
      "velocity": 108,
      "chip": "ym2612"
    },
    {
      "channel": 1,
      "note": 52,
      "start": 5.1869,
      "duration": 0.0032,
      "velocity": 99,
      "chip": "ym2612"
    },
    {
      "channel": 0,
      "note": 84,
      "start": 5.1884,
      "duration": 0.0017,
      "velocity": 106,
      "chip": "ym2612"
    },
    {
      "channel": 3,
      "note": 64,
      "start": 5.19,
      "duration": 0.0067,
      "velocity": 108,
      "chip": "ym2612"
    },
    {
      "channel": 1,
      "note": 52,
      "start": 5.1936,
      "duration": 0.0035,
      "velocity": 99,
      "chip": "ym2612"
    },
    {
      "channel": 0,
      "note": 83,
      "start": 5.1951,
      "duration": 0.0062,
      "velocity": 106,
      "chip": "ym2612"
    },
    {
      "channel": 4,
      "note": 76,
      "start": 5.1967,
      "duration": 0.0004,
      "velocity": 108,
      "chip": "ym2612"
    },
    {
      "channel": 3,
      "note": 64,
      "start": 5.201,
      "duration": 0.0002,
      "velocity": 108,
      "chip": "ym2612"
    },
    {
      "channel": 1,
      "note": 52,
      "start": 5.2028,
      "duration": 0.0016,
      "velocity": 99,
      "chip": "ym2612"
    },
    {
      "channel": 0,
      "note": 81,
      "start": 5.2044,
      "duration": 0.0073,
      "velocity": 106,
      "chip": "ym2612"
    },
    {
      "channel": 1,
      "note": 53,
      "start": 5.2096,
      "duration": 0.0017,
      "velocity": 99,
      "chip": "ym2612"
    },
    {
      "channel": 3,
      "note": 65,
      "start": 5.2112,
      "duration": 0.0,
      "velocity": 108,
      "chip": "ym2612"
    },
    {
      "channel": 1,
      "note": 54,
      "start": 5.2164,
      "duration": 0.0398,
      "velocity": 99,
      "chip": "ym2612"
    },
    {
      "channel": 3,
      "note": 66,
      "start": 5.218,
      "duration": 0.0,
      "velocity": 108,
      "chip": "ym2612"
    },
    {
      "channel": 0,
      "note": 78,
      "start": 5.2196,
      "duration": 0.0868,
      "velocity": 106,
      "chip": "ym2612"
    },
    {
      "channel": 3,
      "note": 78,
      "start": 5.2212,
      "duration": 0.0685,
      "velocity": 108,
      "chip": "ym2612"
    },
    {
      "channel": 1,
      "note": 54,
      "start": 5.3096,
      "duration": 0.0972,
      "velocity": 99,
      "chip": "ym2612"
    },
    {
      "channel": 0,
      "note": 76,
      "start": 5.3121,
      "duration": 0.1113,
      "velocity": 106,
      "chip": "ym2612"
    },
    {
      "channel": 3,
      "note": 66,
      "start": 5.3148,
      "duration": 0.1172,
      "velocity": 108,
      "chip": "ym2612"
    },
    {
      "channel": 1,
      "note": 66,
      "start": 5.4288,
      "duration": 0.0033,
      "velocity": 99,
      "chip": "ym2612"
    },
    {
      "channel": 0,
      "note": 78,
      "start": 5.4303,
      "duration": 0.0018,
      "velocity": 106,
      "chip": "ym2612"
    },
    {
      "channel": 4,
      "note": 73,
      "start": 5.4319,
      "duration": 0.0001,
      "velocity": 108,
      "chip": "ym2612"
    },
    {
      "channel": 1,
      "note": 64,
      "start": 5.4336,
      "duration": 0.0032,
      "velocity": 99,
      "chip": "ym2612"
    },
    {
      "channel": 0,
      "note": 76,
      "start": 5.4352,
      "duration": 0.0017,
      "velocity": 106,
      "chip": "ym2612"
    },
    {
      "channel": 3,
      "note": 66,
      "start": 5.4367,
      "duration": 0.0001,
      "velocity": 108,
      "chip": "ym2612"
    },
    {
      "channel": 0,
      "note": 78,
      "start": 5.4384,
      "duration": 0.0286,
      "velocity": 106,
      "chip": "ym2612"
    },
    {
      "channel": 3,
      "note": 78,
      "start": 5.44,
      "duration": 0.0,
      "velocity": 108,
      "chip": "ym2612"
    },
    {
      "channel": 1,
      "note": 61,
      "start": 5.4701,
      "duration": 0.0974,
      "velocity": 99,
      "chip": "ym2612"
    },
    {
      "channel": 0,
      "note": 80,
      "start": 5.4729,
      "duration": 0.3623,
      "velocity": 106,
      "chip": "ym2612"
    },
    {
      "channel": 3,
      "note": 66,
      "start": 5.4757,
      "duration": 0.2424,
      "velocity": 108,
      "chip": "ym2612"
    },
    {
      "channel": 1,
      "note": 60,
      "start": 5.7214,
      "duration": 0.1139,
      "velocity": 99,
      "chip": "ym2612"
    },
    {
      "channel": 3,
      "note": 73,
      "start": 5.7254,
      "duration": 0.0931,
      "velocity": 108,
      "chip": "ym2612"
    },
    {
      "channel": 0,
      "note": 78,
      "start": 5.8398,
      "duration": 0.0016,
      "velocity": 106,
      "chip": "ym2612"
    },
    {
      "channel": 3,
      "note": 66,
      "start": 5.8414,
      "duration": 0.0016,
      "velocity": 108,
      "chip": "ym2612"
    },
    {
      "channel": 1,
      "note": 59,
      "start": 5.8429,
      "duration": 0.0001,
      "velocity": 99,
      "chip": "ym2612"
    },
    {
      "channel": 3,
      "note": 78,
      "start": 5.8468,
      "duration": 0.0015,
      "velocity": 108,
      "chip": "ym2612"
    },
    {
      "channel": 1,
      "note": 57,
      "start": 5.8483,
      "duration": 0.0001,
      "velocity": 99,
      "chip": "ym2612"
    },
    {
      "channel": 1,
      "note": 54,
      "start": 5.852,
      "duration": 0.0017,
      "velocity": 99,
      "chip": "ym2612"
    },
    {
      "channel": 3,
      "note": 66,
      "start": 5.8535,
      "duration": 0.0,
      "velocity": 108,
      "chip": "ym2612"
    },
    {
      "channel": 1,
      "note": 59,
      "start": 5.8589,
      "duration": 0.0067,
      "velocity": 99,
      "chip": "ym2612"
    },
    {
      "channel": 3,
      "note": 71,
      "start": 5.8604,
      "duration": 0.0,
      "velocity": 108,
      "chip": "ym2612"
    },
    {
      "channel": 0,
      "note": 78,
      "start": 5.864,
      "duration": 0.0017,
      "velocity": 106,
      "chip": "ym2612"
    },
    {
      "channel": 3,
      "note": 78,
      "start": 5.8656,
      "duration": 0.0001,
      "velocity": 108,
      "chip": "ym2612"
    },
    {
      "channel": 1,
      "note": 59,
      "start": 5.8672,
      "duration": 0.0032,
      "velocity": 99,
      "chip": "ym2612"
    },
    {
      "channel": 0,
      "note": 76,
      "start": 5.8687,
      "duration": 0.0017,
      "velocity": 106,
      "chip": "ym2612"
    },
    {
      "channel": 3,
      "note": 71,
      "start": 5.8703,
      "duration": 0.008,
      "velocity": 108,
      "chip": "ym2612"
    },
    {
      "channel": 1,
      "note": 59,
      "start": 5.8752,
      "duration": 0.0033,
      "velocity": 99,
      "chip": "ym2612"
    },
    {
      "channel": 0,
      "note": 78,
      "start": 5.8767,
      "duration": 0.0017,
      "velocity": 106,
      "chip": "ym2612"
    },
    {
      "channel": 4,
      "note": 83,
      "start": 5.8783,
      "duration": 0.0001,
      "velocity": 108,
      "chip": "ym2612"
    },
    {
      "channel": 1,
      "note": 61,
      "start": 5.88,
      "duration": 0.0033,
      "velocity": 99,
      "chip": "ym2612"
    },
    {
      "channel": 0,
      "note": 76,
      "start": 5.8816,
      "duration": 0.0017,
      "velocity": 106,
      "chip": "ym2612"
    },
    {
      "channel": 3,
      "note": 71,
      "start": 5.8832,
      "duration": 0.0,
      "velocity": 108,
      "chip": "ym2612"
    },
    {
      "channel": 1,
      "note": 62,
      "start": 5.8848,
      "duration": 0.01,
      "velocity": 99,
      "chip": "ym2612"
    },
    {
      "channel": 0,
      "note": 78,
      "start": 5.8863,
      "duration": 0.0016,
      "velocity": 106,
      "chip": "ym2612"
    },
    {
      "channel": 3,
      "note": 78,
      "start": 5.8879,
      "duration": 0.0071,
      "velocity": 108,
      "chip": "ym2612"
    },
    {
      "channel": 1,
      "note": 52,
      "start": 5.9145,
      "duration": 0.0974,
      "velocity": 99,
      "chip": "ym2612"
    },
    {
      "channel": 0,
      "note": 83,
      "start": 5.9173,
      "duration": 0.2451,
      "velocity": 106,
      "chip": "ym2612"
    },
    {
      "channel": 3,
      "note": 64,
      "start": 5.9202,
      "duration": 0.0752,
      "velocity": 108,
      "chip": "ym2612"
    },
    {
      "channel": 1,
      "note": 52,
      "start": 6.1682,
      "duration": 0.0032,
      "velocity": 99,
      "chip": "ym2612"
    },
    {
      "channel": 0,
      "note": 84,
      "start": 6.1697,
      "duration": 0.0017,
      "velocity": 106,
      "chip": "ym2612"
    },
    {
      "channel": 3,
      "note": 64,
      "start": 6.1712,
      "duration": 0.0,
      "velocity": 108,
      "chip": "ym2612"
    },
    {
      "channel": 1,
      "note": 52,
      "start": 6.1749,
      "duration": 0.0034,
      "velocity": 99,
      "chip": "ym2612"
    },
    {
      "channel": 0,
      "note": 83,
      "start": 6.1765,
      "duration": 0.0054,
      "velocity": 106,
      "chip": "ym2612"
    },
    {
      "channel": 3,
      "note": 64,
      "start": 6.178,
      "duration": 0.0004,
      "velocity": 108,
      "chip": "ym2612"
    },
    {
      "channel": 1,
      "note": 52,
      "start": 6.1833,
      "duration": 0.0032,
      "velocity": 99,
      "chip": "ym2612"
    },
    {
      "channel": 0,
      "note": 81,
      "start": 6.1849,
      "duration": 0.0078,
      "velocity": 106,
      "chip": "ym2612"
    },
    {
      "channel": 3,
      "note": 64,
      "start": 6.1864,
      "duration": 0.0,
      "velocity": 108,
      "chip": "ym2612"
    },
    {
      "channel": 1,
      "note": 53,
      "start": 6.1901,
      "duration": 0.0019,
      "velocity": 99,
      "chip": "ym2612"
    },
    {
      "channel": 3,
      "note": 65,
      "start": 6.1917,
      "duration": 0.0,
      "velocity": 108,
      "chip": "ym2612"
    },
    {
      "channel": 1,
      "note": 54,
      "start": 6.1974,
      "duration": 0.0,
      "velocity": 99,
      "chip": "ym2612"
    },
    {
      "channel": 2,
      "note": 62,
      "start": 6.1988,
      "duration": 0.0,
      "velocity": 121,
      "chip": "ym2612"
    },
    {
      "channel": 2,
      "note": 64,
      "start": 6.2025,
      "duration": 0.0032,
      "velocity": 121,
      "chip": "ym2612"
    },
    {
      "channel": 1,
      "note": 54,
      "start": 6.204,
      "duration": 0.4233,
      "velocity": 99,
      "chip": "ym2612"
    },
    {
      "channel": 3,
      "note": 78,
      "start": 6.2056,
      "duration": 0.0,
      "velocity": 108,
      "chip": "ym2612"
    },
    {
      "channel": 2,
      "note": 62,
      "start": 6.2073,
      "duration": 0.0016,
      "velocity": 121,
      "chip": "ym2612"
    },
    {
      "channel": 3,
      "note": 66,
      "start": 6.2088,
      "duration": 0.0001,
      "velocity": 108,
      "chip": "ym2612"
    },
    {
      "channel": 2,
      "note": 64,
      "start": 6.2142,
      "duration": 0.0017,
      "velocity": 121,
      "chip": "ym2612"
    },
    {
      "channel": 3,
      "note": 78,
      "start": 6.2158,
      "duration": 0.0,
      "velocity": 108,
      "chip": "ym2612"
    },
    {
      "channel": 2,
      "note": 62,
      "start": 6.2174,
      "duration": 0.0017,
      "velocity": 121,
      "chip": "ym2612"
    },
    {
      "channel": 3,
      "note": 66,
      "start": 6.219,
      "duration": 0.0002,
      "velocity": 108,
      "chip": "ym2612"
    },
    {
      "channel": 2,
      "note": 64,
      "start": 6.2208,
      "duration": 0.0297,
      "velocity": 121,
      "chip": "ym2612"
    },
    {
      "channel": 3,
      "note": 78,
      "start": 6.2224,
      "duration": 0.0001,
      "velocity": 108,
      "chip": "ym2612"
    },
    {
      "channel": 2,
      "note": 62,
      "start": 6.2534,
      "duration": 0.064,
      "velocity": 121,
      "chip": "ym2612"
    },
    {
      "channel": 4,
      "note": 81,
      "start": 6.2565,
      "duration": 0.0608,
      "velocity": 110,
      "chip": "ym2612"
    },
    {
      "channel": 0,
      "note": 78,
      "start": 6.2594,
      "duration": 0.0242,
      "velocity": 110,
      "chip": "ym2612"
    },
    {
      "channel": 3,
      "note": 85,
      "start": 6.2621,
      "duration": 0.055,
      "velocity": 110,
      "chip": "ym2612"
    },
    {
      "channel": 5,
      "note": 85,
      "start": 6.2652,
      "duration": 0.0689,
      "velocity": 108,
      "chip": "ym2612"
    },
    {
      "channel": 2,
      "note": 64,
      "start": 6.3705,
      "duration": 0.1309,
      "velocity": 121,
      "chip": "ym2612"
    },
    {
      "channel": 2,
      "note": 62,
      "start": 6.5043,
      "duration": 0.0475,
      "velocity": 121,
      "chip": "ym2612"
    },
    {
      "channel": 0,
      "note": 78,
      "start": 6.5078,
      "duration": 0.0435,
      "velocity": 110,
      "chip": "ym2612"
    },
    {
      "channel": 3,
      "note": 85,
      "start": 6.5101,
      "duration": 0.0414,
      "velocity": 110,
      "chip": "ym2612"
    },
    {
      "channel": 4,
      "note": 81,
      "start": 6.5126,
      "duration": 0.0391,
      "velocity": 110,
      "chip": "ym2612"
    },
    {
      "channel": 5,
      "note": 85,
      "start": 6.5156,
      "duration": 0.1028,
      "velocity": 108,
      "chip": "ym2612"
    },
    {
      "channel": 2,
      "note": 66,
      "start": 6.6227,
      "duration": 0.0048,
      "velocity": 121,
      "chip": "ym2612"
    },
    {
      "channel": 0,
      "note": 78,
      "start": 6.6242,
      "duration": 0.0032,
      "velocity": 110,
      "chip": "ym2612"
    },
    {
      "channel": 3,
      "note": 83,
      "start": 6.6258,
      "duration": 0.0016,
      "velocity": 110,
      "chip": "ym2612"
    },
    {
      "channel": 4,
      "note": 83,
      "start": 6.6273,
      "duration": 0.0018,
      "velocity": 108,
      "chip": "ym2612"
    },
    {
      "channel": 2,
      "note": 62,
      "start": 6.629,
      "duration": 0.0001,
      "velocity": 121,
      "chip": "ym2612"
    },
    {
      "channel": 2,
      "note": 64,
      "start": 6.6327,
      "duration": 0.005,
      "velocity": 121,
      "chip": "ym2612"
    },
    {
      "channel": 0,
      "note": 78,
      "start": 6.6343,
      "duration": 0.0033,
      "velocity": 110,
      "chip": "ym2612"
    },
    {
      "channel": 3,
      "note": 81,
      "start": 6.6359,
      "duration": 0.0017,
      "velocity": 110,
      "chip": "ym2612"
    },
    {
      "channel": 4,
      "note": 81,
      "start": 6.6375,
      "duration": 0.0002,
      "velocity": 108,
      "chip": "ym2612"
    },
    {
      "channel": 2,
      "note": 62,
      "start": 6.6393,
      "duration": 0.0,
      "velocity": 121,
      "chip": "ym2612"
    },
    {
      "channel": 2,
      "note": 66,
      "start": 6.6447,
      "duration": 0.0049,
      "velocity": 121,
      "chip": "ym2612"
    },
    {
      "channel": 0,
      "note": 73,
      "start": 6.6463,
      "duration": 0.0034,
      "velocity": 110,
      "chip": "ym2612"
    },
    {
      "channel": 3,
      "note": 78,
      "start": 6.6479,
      "duration": 0.0033,
      "velocity": 110,
      "chip": "ym2612"
    },
    {
      "channel": 4,
      "note": 78,
      "start": 6.6495,
      "duration": 0.0018,
      "velocity": 108,
      "chip": "ym2612"
    },
    {
      "channel": 2,
      "note": 62,
      "start": 6.6512,
      "duration": 0.0001,
      "velocity": 121,
      "chip": "ym2612"
    },
    {
      "channel": 2,
      "note": 64,
      "start": 6.6554,
      "duration": 0.0,
      "velocity": 121,
      "chip": "ym2612"
    },
    {
      "channel": 2,
      "note": 62,
      "start": 6.6571,
      "duration": 0.0,
      "velocity": 121,
      "chip": "ym2612"
    },
    {
      "channel": 2,
      "note": 64,
      "start": 6.6609,
      "duration": 0.0017,
      "velocity": 121,
      "chip": "ym2612"
    },
    {
      "channel": 4,
      "note": 78,
      "start": 6.6624,
      "duration": 0.0,
      "velocity": 108,
      "chip": "ym2612"
    },
    {
      "channel": 2,
      "note": 62,
      "start": 6.664,
      "duration": 0.0016,
      "velocity": 121,
      "chip": "ym2612"
    },
    {
      "channel": 4,
      "note": 66,
      "start": 6.6656,
      "duration": 0.0001,
      "velocity": 108,
      "chip": "ym2612"
    },
    {
      "channel": 2,
      "note": 64,
      "start": 6.6692,
      "duration": 0.0017,
      "velocity": 121,
      "chip": "ym2612"
    },
    {
      "channel": 4,
      "note": 78,
      "start": 6.6708,
      "duration": 0.0,
      "velocity": 108,
      "chip": "ym2612"
    },
    {
      "channel": 2,
      "note": 62,
      "start": 6.6724,
      "duration": 0.0016,
      "velocity": 121,
      "chip": "ym2612"
    },
    {
      "channel": 4,
      "note": 66,
      "start": 6.674,
      "duration": 0.0001,
      "velocity": 108,
      "chip": "ym2612"
    },
    {
      "channel": 2,
      "note": 66,
      "start": 6.6756,
      "duration": 0.0297,
      "velocity": 121,
      "chip": "ym2612"
    },
    {
      "channel": 4,
      "note": 78,
      "start": 6.6772,
      "duration": 0.0114,
      "velocity": 108,
      "chip": "ym2612"
    },
    {
      "channel": 2,
      "note": 62,
      "start": 6.7083,
      "duration": 0.0641,
      "velocity": 121,
      "chip": "ym2612"
    },
    {
      "channel": 0,
      "note": 81,
      "start": 6.7111,
      "duration": 0.0609,
      "velocity": 110,
      "chip": "ym2612"
    },
    {
      "channel": 3,
      "note": 78,
      "start": 6.7134,
      "duration": 0.0588,
      "velocity": 110,
      "chip": "ym2612"
    },
    {
      "channel": 1,
      "note": 85,
      "start": 6.7164,
      "duration": 0.0723,
      "velocity": 110,
      "chip": "ym2612"
    },
    {
      "channel": 4,
      "note": 85,
      "start": 6.7194,
      "duration": 0.103,
      "velocity": 108,
      "chip": "ym2612"
    },
    {
      "channel": 2,
      "note": 64,
      "start": 6.8254,
      "duration": 0.1141,
      "velocity": 121,
      "chip": "ym2612"
    },
    {
      "channel": 2,
      "note": 62,
      "start": 6.9447,
      "duration": 0.0066,
      "velocity": 121,
      "chip": "ym2612"
    },
    {
      "channel": 0,
      "note": 78,
      "start": 6.9462,
      "duration": 0.0049,
      "velocity": 110,
      "chip": "ym2612"
    },
    {
      "channel": 1,
      "note": 81,
      "start": 6.9478,
      "duration": 0.0034,
      "velocity": 110,
      "chip": "ym2612"
    },
    {
      "channel": 3,
      "note": 85,
      "start": 6.9495,
      "duration": 0.0017,
      "velocity": 110,
      "chip": "ym2612"
    },
    {
      "channel": 4,
      "note": 85,
      "start": 6.9511,
      "duration": 0.0002,
      "velocity": 108,
      "chip": "ym2612"
    },
    {
      "channel": 2,
      "note": 66,
      "start": 6.9556,
      "duration": 0.005,
      "velocity": 121,
      "chip": "ym2612"
    },
    {
      "channel": 0,
      "note": 78,
      "start": 6.9571,
      "duration": 0.0034,
      "velocity": 110,
      "chip": "ym2612"
    },
    {
      "channel": 1,
      "note": 84,
      "start": 6.9588,
      "duration": 0.0017,
      "velocity": 110,
      "chip": "ym2612"
    },
    {
      "channel": 4,
      "note": 84,
      "start": 6.9604,
      "duration": 0.0002,
      "velocity": 108,
      "chip": "ym2612"
    },
    {
      "channel": 2,
      "note": 62,
      "start": 6.9621,
      "duration": 0.0,
      "velocity": 121,
      "chip": "ym2612"
    },
    {
      "channel": 2,
      "note": 64,
      "start": 6.9658,
      "duration": 0.005,
      "velocity": 121,
      "chip": "ym2612"
    },
    {
      "channel": 0,
      "note": 83,
      "start": 6.9673,
      "duration": 0.0033,
      "velocity": 110,
      "chip": "ym2612"
    },
    {
      "channel": 1,
      "note": 78,
      "start": 6.9689,
      "duration": 0.0017,
      "velocity": 110,
      "chip": "ym2612"
    },
    {
      "channel": 4,
      "note": 83,
      "start": 6.9706,
      "duration": 0.0001,
      "velocity": 108,
      "chip": "ym2612"
    },
    {
      "channel": 2,
      "note": 62,
      "start": 6.9722,
      "duration": 0.0,
      "velocity": 121,
      "chip": "ym2612"
    },
    {
      "channel": 2,
      "note": 66,
      "start": 6.9777,
      "duration": 0.0048,
      "velocity": 121,
      "chip": "ym2612"
    },
    {
      "channel": 0,
      "note": 78,
      "start": 6.9792,
      "duration": 0.0048,
      "velocity": 110,
      "chip": "ym2612"
    },
    {
      "channel": 1,
      "note": 81,
      "start": 6.9808,
      "duration": 0.0033,
      "velocity": 110,
      "chip": "ym2612"
    },
    {
      "channel": 4,
      "note": 81,
      "start": 6.9825,
      "duration": 0.0017,
      "velocity": 108,
      "chip": "ym2612"
    },
    {
      "channel": 2,
      "note": 62,
      "start": 6.984,
      "duration": 0.0001,
      "velocity": 121,
      "chip": "ym2612"
    },
    {
      "channel": 2,
      "note": 64,
      "start": 6.9878,
      "duration": 0.0015,
      "velocity": 121,
      "chip": "ym2612"
    },
    {
      "channel": 3,
      "note": 54,
      "start": 6.9892,
      "duration": 0.0,
      "velocity": 99,
      "chip": "ym2612"
    },
    {
      "channel": 2,
      "note": 62,
      "start": 6.9909,
      "duration": 0.0,
      "velocity": 121,
      "chip": "ym2612"
    },
    {
      "channel": 2,
      "note": 64,
      "start": 6.9946,
      "duration": 0.0032,
      "velocity": 121,
      "chip": "ym2612"
    },
    {
      "channel": 3,
      "note": 54,
      "start": 6.9962,
      "duration": 0.4215,
      "velocity": 99,
      "chip": "ym2612"
    },
    {
      "channel": 4,
      "note": 78,
      "start": 6.9977,
      "duration": 0.0,
      "velocity": 108,
      "chip": "ym2612"
    },
    {
      "channel": 2,
      "note": 62,
      "start": 6.9993,
      "duration": 0.0016,
      "velocity": 121,
      "chip": "ym2612"
    },
    {
      "channel": 4,
      "note": 66,
      "start": 7.0009,
      "duration": 0.0001,
      "velocity": 108,
      "chip": "ym2612"
    },
    {
      "channel": 2,
      "note": 64,
      "start": 7.0054,
      "duration": 0.0017,
      "velocity": 121,
      "chip": "ym2612"
    },
    {
      "channel": 4,
      "note": 78,
      "start": 7.007,
      "duration": 0.0,
      "velocity": 108,
      "chip": "ym2612"
    },
    {
      "channel": 2,
      "note": 62,
      "start": 7.0085,
      "duration": 0.0016,
      "velocity": 121,
      "chip": "ym2612"
    },
    {
      "channel": 4,
      "note": 66,
      "start": 7.0101,
      "duration": 0.0002,
      "velocity": 108,
      "chip": "ym2612"
    },
    {
      "channel": 2,
      "note": 64,
      "start": 7.0119,
      "duration": 0.0287,
      "velocity": 121,
      "chip": "ym2612"
    },
    {
      "channel": 4,
      "note": 78,
      "start": 7.0134,
      "duration": 0.0102,
      "velocity": 108,
      "chip": "ym2612"
    },
    {
      "channel": 2,
      "note": 62,
      "start": 7.0435,
      "duration": 0.0642,
      "velocity": 121,
      "chip": "ym2612"
    },
    {
      "channel": 0,
      "note": 81,
      "start": 7.0463,
      "duration": 0.0609,
      "velocity": 110,
      "chip": "ym2612"
    },
    {
      "channel": 1,
      "note": 78,
      "start": 7.0485,
      "duration": 0.0588,
      "velocity": 110,
      "chip": "ym2612"
    },
    {
      "channel": 5,
      "note": 85,
      "start": 7.0511,
      "duration": 0.0564,
      "velocity": 110,
      "chip": "ym2612"
    },
    {
      "channel": 4,
      "note": 85,
      "start": 7.0539,
      "duration": 0.0868,
      "velocity": 108,
      "chip": "ym2612"
    },
    {
      "channel": 2,
      "note": 64,
      "start": 7.1606,
      "duration": 0.1141,
      "velocity": 121,
      "chip": "ym2612"
    },
    {
      "channel": 2,
      "note": 62,
      "start": 7.2777,
      "duration": 0.0643,
      "velocity": 121,
      "chip": "ym2612"
    },
    {
      "channel": 0,
      "note": 78,
      "start": 7.2812,
      "duration": 0.0602,
      "velocity": 110,
      "chip": "ym2612"
    },
    {
      "channel": 1,
      "note": 85,
      "start": 7.2834,
      "duration": 0.0581,
      "velocity": 110,
      "chip": "ym2612"
    },
    {
      "channel": 5,
      "note": 81,
      "start": 7.2859,
      "duration": 0.0559,
      "velocity": 110,
      "chip": "ym2612"
    },
    {
      "channel": 4,
      "note": 85,
      "start": 7.2892,
      "duration": 0.1193,
      "velocity": 108,
      "chip": "ym2612"
    },
    {
      "channel": 2,
      "note": 66,
      "start": 7.4129,
      "duration": 0.005,
      "velocity": 121,
      "chip": "ym2612"
    },
    {
      "channel": 0,
      "note": 78,
      "start": 7.4144,
      "duration": 0.0034,
      "velocity": 110,
      "chip": "ym2612"
    },
    {
      "channel": 1,
      "note": 83,
      "start": 7.416,
      "duration": 0.0018,
      "velocity": 110,
      "chip": "ym2612"
    },
    {
      "channel": 4,
      "note": 83,
      "start": 7.4177,
      "duration": 0.0018,
      "velocity": 108,
      "chip": "ym2612"
    },
    {
      "channel": 2,
      "note": 62,
      "start": 7.4194,
      "duration": 0.0001,
      "velocity": 121,
      "chip": "ym2612"
    },
    {
      "channel": 2,
      "note": 64,
      "start": 7.4231,
      "duration": 0.0049,
      "velocity": 121,
      "chip": "ym2612"
    },
    {
      "channel": 0,
      "note": 81,
      "start": 7.4246,
      "duration": 0.0033,
      "velocity": 110,
      "chip": "ym2612"
    },
    {
      "channel": 1,
      "note": 78,
      "start": 7.4262,
      "duration": 0.0017,
      "velocity": 110,
      "chip": "ym2612"
    },
    {
      "channel": 4,
      "note": 81,
      "start": 7.4279,
      "duration": 0.0017,
      "velocity": 108,
      "chip": "ym2612"
    },
    {
      "channel": 2,
      "note": 62,
      "start": 7.4296,
      "duration": 0.0001,
      "velocity": 121,
      "chip": "ym2612"
    },
    {
      "channel": 2,
      "note": 66,
      "start": 7.4354,
      "duration": 0.0049,
      "velocity": 121,
      "chip": "ym2612"
    },
    {
      "channel": 0,
      "note": 78,
      "start": 7.437,
      "duration": 0.0049,
      "velocity": 110,
      "chip": "ym2612"
    },
    {
      "channel": 1,
      "note": 73,
      "start": 7.4386,
      "duration": 0.0017,
      "velocity": 110,
      "chip": "ym2612"
    },
    {
      "channel": 4,
      "note": 78,
      "start": 7.4402,
      "duration": 0.0018,
      "velocity": 108,
      "chip": "ym2612"
    },
    {
      "channel": 2,
      "note": 62,
      "start": 7.4419,
      "duration": 0.0001,
      "velocity": 121,
      "chip": "ym2612"
    },
    {
      "channel": 2,
      "note": 64,
      "start": 7.4436,
      "duration": 0.1084,
      "velocity": 121,
      "chip": "ym2612"
    },
    {
      "channel": 4,
      "note": 66,
      "start": 7.4452,
      "duration": 0.2405,
      "velocity": 108,
      "chip": "ym2612"
    },
    {
      "channel": 2,
      "note": 62,
      "start": 7.5549,
      "duration": 0.0639,
      "velocity": 121,
      "chip": "ym2612"
    },
    {
      "channel": 2,
      "note": 64,
      "start": 7.689,
      "duration": 0.1139,
      "velocity": 121,
      "chip": "ym2612"
    },
    {
      "channel": 4,
      "note": 78,
      "start": 7.6923,
      "duration": 0.0603,
      "velocity": 108,
      "chip": "ym2612"
    },
    {
      "channel": 2,
      "note": 62,
      "start": 7.8059,
      "duration": 0.0472,
      "velocity": 121,
      "chip": "ym2612"
    },
    {
      "channel": 4,
      "note": 66,
      "start": 7.8093,
      "duration": 0.0938,
      "velocity": 108,
      "chip": "ym2612"
    },
    {
      "channel": 2,
      "note": 64,
      "start": 7.9228,
      "duration": 0.1143,
      "velocity": 121,
      "chip": "ym2612"
    },
    {
      "channel": 4,
      "note": 78,
      "start": 7.9259,
      "duration": 0.0943,
      "velocity": 108,
      "chip": "ym2612"
    },
    {
      "channel": 2,
      "note": 62,
      "start": 8.0401,
      "duration": 0.0639,
      "velocity": 121,
      "chip": "ym2612"
    },
    {
      "channel": 4,
      "note": 66,
      "start": 8.0431,
      "duration": 0.0943,
      "velocity": 108,
      "chip": "ym2612"
    },
    {
      "channel": 2,
      "note": 64,
      "start": 8.1739,
      "duration": 0.1142,
      "velocity": 121,
      "chip": "ym2612"
    },
    {
      "channel": 4,
      "note": 78,
      "start": 8.1769,
      "duration": 0.0943,
      "velocity": 108,
      "chip": "ym2612"
    },
    {
      "channel": 2,
      "note": 62,
      "start": 8.291,
      "duration": 0.0474,
      "velocity": 121,
      "chip": "ym2612"
    },
    {
      "channel": 0,
      "note": 78,
      "start": 8.2938,
      "duration": 0.0443,
      "velocity": 110,
      "chip": "ym2612"
    },
    {
      "channel": 1,
      "note": 81,
      "start": 8.2962,
      "duration": 0.0754,
      "velocity": 110,
      "chip": "ym2612"
    },
    {
      "channel": 3,
      "note": 85,
      "start": 8.2988,
      "duration": 0.0729,
      "velocity": 110,
      "chip": "ym2612"
    },
    {
      "channel": 4,
      "note": 85,
      "start": 8.3016,
      "duration": 0.0868,
      "velocity": 108,
      "chip": "ym2612"
    },
    {
      "channel": 5,
      "note": 66,
      "start": 8.3043,
      "duration": 0.3517,
      "velocity": 122,
      "chip": "ym2612"
    },
    {
      "channel": 2,
      "note": 64,
      "start": 8.408,
      "duration": 0.1143,
      "velocity": 121,
      "chip": "ym2612"
    },
    {
      "channel": 2,
      "note": 62,
      "start": 8.5253,
      "duration": 0.0641,
      "velocity": 121,
      "chip": "ym2612"
    },
    {
      "channel": 0,
      "note": 78,
      "start": 8.528,
      "duration": 0.061,
      "velocity": 110,
      "chip": "ym2612"
    },
    {
      "channel": 1,
      "note": 81,
      "start": 8.5303,
      "duration": 0.0588,
      "velocity": 110,
      "chip": "ym2612"
    },
    {
      "channel": 3,
      "note": 85,
      "start": 8.5332,
      "duration": 0.0224,
      "velocity": 110,
      "chip": "ym2612"
    },
    {
      "channel": 4,
      "note": 85,
      "start": 8.536,
      "duration": 0.0866,
      "velocity": 108,
      "chip": "ym2612"
    },
    {
      "channel": 2,
      "note": 66,
      "start": 8.6594,
      "duration": 0.114,
      "velocity": 121,
      "chip": "ym2612"
    },
    {
      "channel": 0,
      "note": 78,
      "start": 8.6622,
      "duration": 0.0941,
      "velocity": 110,
      "chip": "ym2612"
    },
    {
      "channel": 1,
      "note": 84,
      "start": 8.6646,
      "duration": 0.0918,
      "velocity": 110,
      "chip": "ym2612"
    },
    {
      "channel": 4,
      "note": 84,
      "start": 8.6676,
      "duration": 0.1056,
      "velocity": 108,
      "chip": "ym2612"
    },
    {
      "channel": 5,
      "note": 64,
      "start": 8.6702,
      "duration": 0.1031,
      "velocity": 122,
      "chip": "ym2612"
    },
    {
      "channel": 2,
      "note": 62,
      "start": 8.7764,
      "duration": 0.0471,
      "velocity": 121,
      "chip": "ym2612"
    },
    {
      "channel": 5,
      "note": 61,
      "start": 8.7794,
      "duration": 0.1108,
      "velocity": 122,
      "chip": "ym2612"
    },
    {
      "channel": 2,
      "note": 64,
      "start": 8.8932,
      "duration": 0.1144,
      "velocity": 121,
      "chip": "ym2612"
    },
    {
      "channel": 0,
      "note": 78,
      "start": 8.896,
      "duration": 0.0778,
      "velocity": 110,
      "chip": "ym2612"
    },
    {
      "channel": 1,
      "note": 83,
      "start": 8.8985,
      "duration": 0.092,
      "velocity": 110,
      "chip": "ym2612"
    },
    {
      "channel": 4,
      "note": 83,
      "start": 8.9012,
      "duration": 0.1062,
      "velocity": 108,
      "chip": "ym2612"
    },
    {
      "channel": 5,
      "note": 60,
      "start": 8.9036,
      "duration": 0.1039,
      "velocity": 122,
      "chip": "ym2612"
    },
    {
      "channel": 2,
      "note": 62,
      "start": 9.0119,
      "duration": 0.0014,
      "velocity": 121,
      "chip": "ym2612"
    },
    {
      "channel": 3,
      "note": 59,
      "start": 9.0133,
      "duration": 0.0001,
      "velocity": 122,
      "chip": "ym2612"
    },
    {
      "channel": 2,
      "note": 66,
      "start": 9.0179,
      "duration": 0.0064,
      "velocity": 121,
      "chip": "ym2612"
    },
    {
      "channel": 0,
      "note": 78,
      "start": 9.0194,
      "duration": 0.0108,
      "velocity": 110,
      "chip": "ym2612"
    },
    {
      "channel": 1,
      "note": 81,
      "start": 9.021,
      "duration": 0.0092,
      "velocity": 110,
      "chip": "ym2612"
    },
    {
      "channel": 4,
      "note": 81,
      "start": 9.0227,
      "duration": 0.0077,
      "velocity": 108,
      "chip": "ym2612"
    },
    {
      "channel": 3,
      "note": 52,
      "start": 9.0242,
      "duration": 0.0,
      "velocity": 122,
      "chip": "ym2612"
    },
    {
      "channel": 2,
      "note": 62,
      "start": 9.0287,
      "duration": 0.0016,
      "velocity": 121,
      "chip": "ym2612"
    },
    {
      "channel": 3,
      "note": 53,
      "start": 9.0302,
      "duration": 0.0002,
      "velocity": 122,
      "chip": "ym2612"
    },
    {
      "channel": 0,
      "note": 54,
      "start": 9.0345,
      "duration": 0.0016,
      "velocity": 99,
      "chip": "ym2612"
    },
    {
      "channel": 3,
      "note": 54,
      "start": 9.0361,
      "duration": 0.0454,
      "velocity": 122,
      "chip": "ym2612"
    },
    {
      "channel": 0,
      "note": 54,
      "start": 9.0404,
      "duration": 0.0001,
      "velocity": 99,
      "chip": "ym2612"
    },
    {
      "channel": 0,
      "note": 66,
      "start": 9.0455,
      "duration": 0.0001,
      "velocity": 99,
      "chip": "ym2612"
    },
    {
      "channel": 0,
      "note": 64,
      "start": 9.0473,
      "duration": 0.0002,
      "velocity": 99,
      "chip": "ym2612"
    },
    {
      "channel": 0,
      "note": 61,
      "start": 9.0844,
      "duration": 0.0974,
      "velocity": 99,
      "chip": "ym2612"
    },
    {
      "channel": 0,
      "note": 60,
      "start": 9.3183,
      "duration": 0.0977,
      "velocity": 99,
      "chip": "ym2612"
    },
    {
      "channel": 0,
      "note": 59,
      "start": 9.4539,
      "duration": 0.0,
      "velocity": 99,
      "chip": "ym2612"
    },
    {
      "channel": 0,
      "note": 57,
      "start": 9.4584,
      "duration": 0.0,
      "velocity": 99,
      "chip": "ym2612"
    },
    {
      "channel": 0,
      "note": 54,
      "start": 9.4633,
      "duration": 0.0,
      "velocity": 99,
      "chip": "ym2612"
    },
    {
      "channel": 0,
      "note": 59,
      "start": 9.4684,
      "duration": 0.0,
      "velocity": 99,
      "chip": "ym2612"
    },
    {
      "channel": 0,
      "note": 59,
      "start": 9.4725,
      "duration": 0.0,
      "velocity": 99,
      "chip": "ym2612"
    },
    {
      "channel": 0,
      "note": 59,
      "start": 9.477,
      "duration": 0.0,
      "velocity": 99,
      "chip": "ym2612"
    },
    {
      "channel": 0,
      "note": 61,
      "start": 9.4786,
      "duration": 0.0,
      "velocity": 99,
      "chip": "ym2612"
    },
    {
      "channel": 0,
      "note": 62,
      "start": 9.4802,
      "duration": 0.0,
      "velocity": 99,
      "chip": "ym2612"
    },
    {
      "channel": 0,
      "note": 52,
      "start": 9.5164,
      "duration": 0.097,
      "velocity": 99,
      "chip": "ym2612"
    },
    {
      "channel": 0,
      "note": 52,
      "start": 9.7529,
      "duration": 0.0,
      "velocity": 99,
      "chip": "ym2612"
    },
    {
      "channel": 0,
      "note": 52,
      "start": 9.7575,
      "duration": 0.0,
      "velocity": 99,
      "chip": "ym2612"
    },
    {
      "channel": 0,
      "note": 52,
      "start": 9.7629,
      "duration": 0.0,
      "velocity": 99,
      "chip": "ym2612"
    },
    {
      "channel": 0,
      "note": 53,
      "start": 9.7671,
      "duration": 0.0,
      "velocity": 99,
      "chip": "ym2612"
    },
    {
      "channel": 0,
      "note": 54,
      "start": 9.7724,
      "duration": 0.0025,
      "velocity": 99,
      "chip": "ym2612"
    },
    {
      "channel": 0,
      "note": 54,
      "start": 9.7765,
      "duration": 0.0,
      "velocity": 99,
      "chip": "ym2612"
    },
    {
      "channel": 0,
      "note": 66,
      "start": 9.7801,
      "duration": 0.0,
      "velocity": 99,
      "chip": "ym2612"
    },
    {
      "channel": 0,
      "note": 64,
      "start": 9.7817,
      "duration": 0.0,
      "velocity": 99,
      "chip": "ym2612"
    },
    {
      "channel": 0,
      "note": 61,
      "start": 9.8189,
      "duration": 0.0975,
      "velocity": 99,
      "chip": "ym2612"
    },
    {
      "channel": 0,
      "note": 60,
      "start": 10.0532,
      "duration": 0.1142,
      "velocity": 99,
      "chip": "ym2612"
    },
    {
      "channel": 0,
      "note": 59,
      "start": 10.1719,
      "duration": 0.0,
      "velocity": 99,
      "chip": "ym2612"
    },
    {
      "channel": 0,
      "note": 57,
      "start": 10.1771,
      "duration": 0.0,
      "velocity": 99,
      "chip": "ym2612"
    },
    {
      "channel": 0,
      "note": 54,
      "start": 10.1814,
      "duration": 0.0,
      "velocity": 99,
      "chip": "ym2612"
    },
    {
      "channel": 0,
      "note": 59,
      "start": 10.1863,
      "duration": 0.0026,
      "velocity": 99,
      "chip": "ym2612"
    },
    {
      "channel": 0,
      "note": 59,
      "start": 10.1904,
      "duration": 0.0,
      "velocity": 99,
      "chip": "ym2612"
    },
    {
      "channel": 0,
      "note": 59,
      "start": 10.1949,
      "duration": 0.0,
      "velocity": 99,
      "chip": "ym2612"
    },
    {
      "channel": 0,
      "note": 61,
      "start": 10.1965,
      "duration": 0.0,
      "velocity": 99,
      "chip": "ym2612"
    },
    {
      "channel": 0,
      "note": 62,
      "start": 10.198,
      "duration": 0.0009,
      "velocity": 99,
      "chip": "ym2612"
    },
    {
      "channel": 0,
      "note": 52,
      "start": 10.2337,
      "duration": 0.0975,
      "velocity": 99,
      "chip": "ym2612"
    },
    {
      "channel": 0,
      "note": 52,
      "start": 10.4704,
      "duration": 0.0,
      "velocity": 99,
      "chip": "ym2612"
    },
    {
      "channel": 0,
      "note": 52,
      "start": 10.4754,
      "duration": 0.0,
      "velocity": 99,
      "chip": "ym2612"
    },
    {
      "channel": 0,
      "note": 52,
      "start": 10.4807,
      "duration": 0.0,
      "velocity": 99,
      "chip": "ym2612"
    },
    {
      "channel": 0,
      "note": 53,
      "start": 10.4846,
      "duration": 0.0,
      "velocity": 99,
      "chip": "ym2612"
    },
    {
      "channel": 0,
      "note": 54,
      "start": 10.4888,
      "duration": 0.0015,
      "velocity": 99,
      "chip": "ym2612"
    },
    {
      "channel": 1,
      "note": 54,
      "start": 10.4903,
      "duration": 0.0001,
      "velocity": 119,
      "chip": "ym2612"
    },
    {
      "channel": 1,
      "note": 66,
      "start": 10.4919,
      "duration": 0.0705,
      "velocity": 119,
      "chip": "ym2612"
    },
    {
      "channel": 3,
      "note": 78,
      "start": 10.4934,
      "duration": 0.0524,
      "velocity": 110,
      "chip": "ym2612"
    },
    {
      "channel": 0,
      "note": 54,
      "start": 10.5825,
      "duration": 0.0803,
      "velocity": 99,
      "chip": "ym2612"
    },
    {
      "channel": 1,
      "note": 54,
      "start": 10.5849,
      "duration": 0.1282,
      "velocity": 119,
      "chip": "ym2612"
    },
    {
      "channel": 3,
      "note": 66,
      "start": 10.5874,
      "duration": 0.1258,
      "velocity": 110,
      "chip": "ym2612"
    },
    {
      "channel": 0,
      "note": 66,
      "start": 10.7185,
      "duration": 0.0031,
      "velocity": 99,
      "chip": "ym2612"
    },
    {
      "channel": 1,
      "note": 61,
      "start": 10.7199,
      "duration": 0.0017,
      "velocity": 119,
      "chip": "ym2612"
    },
    {
      "channel": 3,
      "note": 78,
      "start": 10.7215,
      "duration": 0.0001,
      "velocity": 110,
      "chip": "ym2612"
    },
    {
      "channel": 0,
      "note": 64,
      "start": 10.7232,
      "duration": 0.0031,
      "velocity": 99,
      "chip": "ym2612"
    },
    {
      "channel": 1,
      "note": 54,
      "start": 10.7246,
      "duration": 0.0154,
      "velocity": 119,
      "chip": "ym2612"
    },
    {
      "channel": 3,
      "note": 66,
      "start": 10.7262,
      "duration": 0.0001,
      "velocity": 110,
      "chip": "ym2612"
    },
    {
      "channel": 3,
      "note": 78,
      "start": 10.7279,
      "duration": 0.0,
      "velocity": 110,
      "chip": "ym2612"
    },
    {
      "channel": 0,
      "note": 61,
      "start": 10.7429,
      "duration": 0.1141,
      "velocity": 99,
      "chip": "ym2612"
    },
    {
      "channel": 1,
      "note": 66,
      "start": 10.7454,
      "duration": 0.1118,
      "velocity": 119,
      "chip": "ym2612"
    },
    {
      "channel": 3,
      "note": 85,
      "start": 10.748,
      "duration": 0.0757,
      "velocity": 110,
      "chip": "ym2612"
    },
    {
      "channel": 0,
      "note": 60,
      "start": 10.9937,
      "duration": 0.0976,
      "velocity": 99,
      "chip": "ym2612"
    },
    {
      "channel": 1,
      "note": 66,
      "start": 10.9961,
      "duration": 0.0953,
      "velocity": 119,
      "chip": "ym2612"
    },
    {
      "channel": 3,
      "note": 85,
      "start": 10.9991,
      "duration": 0.1091,
      "velocity": 110,
      "chip": "ym2612"
    },
    {
      "channel": 1,
      "note": 54,
      "start": 11.1126,
      "duration": 0.0032,
      "velocity": 119,
      "chip": "ym2612"
    },
    {
      "channel": 3,
      "note": 83,
      "start": 11.1142,
      "duration": 0.0015,
      "velocity": 110,
      "chip": "ym2612"
    },
    {
      "channel": 0,
      "note": 59,
      "start": 11.1156,
      "duration": 0.0001,
      "velocity": 99,
      "chip": "ym2612"
    },
    {
      "channel": 1,
      "note": 61,
      "start": 11.1202,
      "duration": 0.0032,
      "velocity": 119,
      "chip": "ym2612"
    },
    {
      "channel": 3,
      "note": 81,
      "start": 11.1218,
      "duration": 0.0,
      "velocity": 110,
      "chip": "ym2612"
    },
    {
      "channel": 0,
      "note": 57,
      "start": 11.1234,
      "duration": 0.0,
      "velocity": 99,
      "chip": "ym2612"
    },
    {
      "channel": 0,
      "note": 54,
      "start": 11.127,
      "duration": 0.0031,
      "velocity": 99,
      "chip": "ym2612"
    },
    {
      "channel": 1,
      "note": 54,
      "start": 11.1285,
      "duration": 0.0017,
      "velocity": 119,
      "chip": "ym2612"
    },
    {
      "channel": 3,
      "note": 78,
      "start": 11.1301,
      "duration": 0.0001,
      "velocity": 110,
      "chip": "ym2612"
    },
    {
      "channel": 0,
      "note": 59,
      "start": 11.1337,
      "duration": 0.0015,
      "velocity": 99,
      "chip": "ym2612"
    },
    {
      "channel": 1,
      "note": 59,
      "start": 11.1351,
      "duration": 0.0001,
      "velocity": 119,
      "chip": "ym2612"
    },
    {
      "channel": 0,
      "note": 59,
      "start": 11.1394,
      "duration": 0.0031,
      "velocity": 99,
      "chip": "ym2612"
    },
    {
      "channel": 1,
      "note": 71,
      "start": 11.1408,
      "duration": 0.0017,
      "velocity": 119,
      "chip": "ym2612"
    },
    {
      "channel": 3,
      "note": 78,
      "start": 11.1424,
      "duration": 0.0001,
      "velocity": 110,
      "chip": "ym2612"
    },
    {
      "channel": 1,
      "note": 59,
      "start": 11.1441,
      "duration": 0.0017,
      "velocity": 119,
      "chip": "ym2612"
    },
    {
      "channel": 3,
      "note": 66,
      "start": 11.1457,
      "duration": 0.0,
      "velocity": 110,
      "chip": "ym2612"
    },
    {
      "channel": 0,
      "note": 59,
      "start": 11.1498,
      "duration": 0.0032,
      "velocity": 99,
      "chip": "ym2612"
    },
    {
      "channel": 1,
      "note": 66,
      "start": 11.1512,
      "duration": 0.0016,
      "velocity": 119,
      "chip": "ym2612"
    },
    {
      "channel": 3,
      "note": 78,
      "start": 11.1528,
      "duration": 0.0001,
      "velocity": 110,
      "chip": "ym2612"
    },
    {
      "channel": 0,
      "note": 61,
      "start": 11.1544,
      "duration": 0.0032,
      "velocity": 99,
      "chip": "ym2612"
    },
    {
      "channel": 1,
      "note": 59,
      "start": 11.1559,
      "duration": 0.0017,
      "velocity": 119,
      "chip": "ym2612"
    },
    {
      "channel": 3,
      "note": 66,
      "start": 11.1575,
      "duration": 0.0002,
      "velocity": 110,
      "chip": "ym2612"
    },
    {
      "channel": 0,
      "note": 62,
      "start": 11.1592,
      "duration": 0.0031,
      "velocity": 99,
      "chip": "ym2612"
    },
    {
      "channel": 1,
      "note": 66,
      "start": 11.1606,
      "duration": 0.0017,
      "velocity": 119,
      "chip": "ym2612"
    },
    {
      "channel": 3,
      "note": 78,
      "start": 11.1622,
      "duration": 0.0001,
      "velocity": 110,
      "chip": "ym2612"
    },
    {
      "channel": 0,
      "note": 52,
      "start": 11.1729,
      "duration": 0.0973,
      "velocity": 99,
      "chip": "ym2612"
    },
    {
      "channel": 1,
      "note": 52,
      "start": 11.1757,
      "duration": 0.0778,
      "velocity": 119,
      "chip": "ym2612"
    },
    {
      "channel": 3,
      "note": 85,
      "start": 11.1784,
      "duration": 0.1254,
      "velocity": 110,
      "chip": "ym2612"
    },
    {
      "channel": 0,
      "note": 52,
      "start": 11.4264,
      "duration": 0.0031,
      "velocity": 99,
      "chip": "ym2612"
    },
    {
      "channel": 1,
      "note": 52,
      "start": 11.4278,
      "duration": 0.0017,
      "velocity": 119,
      "chip": "ym2612"
    },
    {
      "channel": 3,
      "note": 85,
      "start": 11.4294,
      "duration": 0.0065,
      "velocity": 110,
      "chip": "ym2612"
    },
    {
      "channel": 0,
      "note": 52,
      "start": 11.433,
      "duration": 0.0031,
      "velocity": 99,
      "chip": "ym2612"
    },
    {
      "channel": 1,
      "note": 64,
      "start": 11.4345,
      "duration": 0.0017,
      "velocity": 119,
      "chip": "ym2612"
    },
    {
      "channel": 4,
      "note": 84,
      "start": 11.4359,
      "duration": 0.0001,
      "velocity": 110,
      "chip": "ym2612"
    },
    {
      "channel": 1,
      "note": 52,
      "start": 11.4408,
      "duration": 0.0017,
      "velocity": 119,
      "chip": "ym2612"
    },
    {
      "channel": 3,
      "note": 83,
      "start": 11.4424,
      "duration": 0.0001,
      "velocity": 110,
      "chip": "ym2612"
    },
    {
      "channel": 0,
      "note": 52,
      "start": 11.4439,
      "duration": 0.0,
      "velocity": 99,
      "chip": "ym2612"
    },
    {
      "channel": 0,
      "note": 53,
      "start": 11.4475,
      "duration": 0.0032,
      "velocity": 99,
      "chip": "ym2612"
    },
    {
      "channel": 1,
      "note": 53,
      "start": 11.449,
      "duration": 0.0017,
      "velocity": 119,
      "chip": "ym2612"
    },
    {
      "channel": 3,
      "note": 81,
      "start": 11.4506,
      "duration": 0.0001,
      "velocity": 110,
      "chip": "ym2612"
    },
    {
      "channel": 0,
      "note": 54,
      "start": 11.4549,
      "duration": 0.0395,
      "velocity": 99,
      "chip": "ym2612"
    },
    {
      "channel": 1,
      "note": 54,
      "start": 11.4564,
      "duration": 0.0,
      "velocity": 119,
      "chip": "ym2612"
    },
    {
      "channel": 1,
      "note": 66,
      "start": 11.4579,
      "duration": 0.07,
      "velocity": 119,
      "chip": "ym2612"
    },
    {
      "channel": 3,
      "note": 78,
      "start": 11.4595,
      "duration": 0.0516,
      "velocity": 110,
      "chip": "ym2612"
    },
    {
      "channel": 0,
      "note": 54,
      "start": 11.5476,
      "duration": 0.0974,
      "velocity": 99,
      "chip": "ym2612"
    },
    {
      "channel": 1,
      "note": 54,
      "start": 11.5503,
      "duration": 0.1281,
      "velocity": 119,
      "chip": "ym2612"
    },
    {
      "channel": 3,
      "note": 66,
      "start": 11.5529,
      "duration": 0.0923,
      "velocity": 110,
      "chip": "ym2612"
    },
    {
      "channel": 0,
      "note": 66,
      "start": 11.6837,
      "duration": 0.0032,
      "velocity": 99,
      "chip": "ym2612"
    },
    {
      "channel": 1,
      "note": 61,
      "start": 11.6851,
      "duration": 0.0017,
      "velocity": 119,
      "chip": "ym2612"
    },
    {
      "channel": 3,
      "note": 78,
      "start": 11.6868,
      "duration": 0.0001,
      "velocity": 110,
      "chip": "ym2612"
    },
    {
      "channel": 0,
      "note": 64,
      "start": 11.6884,
      "duration": 0.0031,
      "velocity": 99,
      "chip": "ym2612"
    },
    {
      "channel": 1,
      "note": 54,
      "start": 11.6898,
      "duration": 0.0017,
      "velocity": 119,
      "chip": "ym2612"
    },
    {
      "channel": 3,
      "note": 66,
      "start": 11.6914,
      "duration": 0.0002,
      "velocity": 110,
      "chip": "ym2612"
    },
    {
      "channel": 1,
      "note": 66,
      "start": 11.6931,
      "duration": 0.0017,
      "velocity": 119,
      "chip": "ym2612"
    },
    {
      "channel": 3,
      "note": 78,
      "start": 11.6947,
      "duration": 0.0001,
      "velocity": 110,
      "chip": "ym2612"
    },
    {
      "channel": 0,
      "note": 61,
      "start": 11.7085,
      "duration": 0.0975,
      "velocity": 99,
      "chip": "ym2612"
    },
    {
      "channel": 1,
      "note": 54,
      "start": 11.711,
      "duration": 0.2455,
      "velocity": 119,
      "chip": "ym2612"
    },
    {
      "channel": 3,
      "note": 85,
      "start": 11.7136,
      "duration": 0.0926,
      "velocity": 110,
      "chip": "ym2612"
    },
    {
      "channel": 0,
      "note": 60,
      "start": 11.9594,
      "duration": 0.1142,
      "velocity": 99,
      "chip": "ym2612"
    },
    {
      "channel": 1,
      "note": 61,
      "start": 11.962,
      "duration": 0.0949,
      "velocity": 119,
      "chip": "ym2612"
    },
    {
      "channel": 3,
      "note": 85,
      "start": 11.965,
      "duration": 0.1148,
      "velocity": 110,
      "chip": "ym2612"
    },
    {
      "channel": 1,
      "note": 54,
      "start": 12.0781,
      "duration": 0.0032,
      "velocity": 119,
      "chip": "ym2612"
    },
    {
      "channel": 4,
      "note": 83,
      "start": 12.0798,
      "duration": 0.0016,
      "velocity": 110,
      "chip": "ym2612"
    },
    {
      "channel": 0,
      "note": 59,
      "start": 12.0813,
      "duration": 0.0002,
      "velocity": 99,
      "chip": "ym2612"
    },
    {
      "channel": 1,
      "note": 66,
      "start": 12.0858,
      "duration": 0.0032,
      "velocity": 119,
      "chip": "ym2612"
    },
    {
      "channel": 3,
      "note": 81,
      "start": 12.0874,
      "duration": 0.0015,
      "velocity": 110,
      "chip": "ym2612"
    },
    {
      "channel": 0,
      "note": 57,
      "start": 12.0889,
      "duration": 0.0001,
      "velocity": 99,
      "chip": "ym2612"
    },
    {
      "channel": 0,
      "note": 54,
      "start": 12.0933,
      "duration": 0.0031,
      "velocity": 99,
      "chip": "ym2612"
    },
    {
      "channel": 1,
      "note": 54,
      "start": 12.0947,
      "duration": 0.0017,
      "velocity": 119,
      "chip": "ym2612"
    },
    {
      "channel": 3,
      "note": 78,
      "start": 12.0963,
      "duration": 0.0001,
      "velocity": 110,
      "chip": "ym2612"
    },
    {
      "channel": 0,
      "note": 59,
      "start": 12.1,
      "duration": 0.0067,
      "velocity": 99,
      "chip": "ym2612"
    },
    {
      "channel": 1,
      "note": 59,
      "start": 12.1015,
      "duration": 0.0,
      "velocity": 119,
      "chip": "ym2612"
    },
    {
      "channel": 1,
      "note": 66,
      "start": 12.105,
      "duration": 0.0017,
      "velocity": 119,
      "chip": "ym2612"
    },
    {
      "channel": 3,
      "note": 78,
      "start": 12.1066,
      "duration": 0.0001,
      "velocity": 110,
      "chip": "ym2612"
    },
    {
      "channel": 0,
      "note": 59,
      "start": 12.1083,
      "duration": 0.0031,
      "velocity": 99,
      "chip": "ym2612"
    },
    {
      "channel": 1,
      "note": 59,
      "start": 12.1097,
      "duration": 0.0017,
      "velocity": 119,
      "chip": "ym2612"
    },
    {
      "channel": 3,
      "note": 66,
      "start": 12.1113,
      "duration": 0.0001,
      "velocity": 110,
      "chip": "ym2612"
    },
    {
      "channel": 0,
      "note": 59,
      "start": 12.1154,
      "duration": 0.0032,
      "velocity": 99,
      "chip": "ym2612"
    },
    {
      "channel": 1,
      "note": 71,
      "start": 12.1169,
      "duration": 0.0017,
      "velocity": 119,
      "chip": "ym2612"
    },
    {
      "channel": 3,
      "note": 78,
      "start": 12.1185,
      "duration": 0.0001,
      "velocity": 110,
      "chip": "ym2612"
    },
    {
      "channel": 0,
      "note": 61,
      "start": 12.1201,
      "duration": 0.0032,
      "velocity": 99,
      "chip": "ym2612"
    },
    {
      "channel": 1,
      "note": 59,
      "start": 12.1216,
      "duration": 0.0017,
      "velocity": 119,
      "chip": "ym2612"
    },
    {
      "channel": 3,
      "note": 66,
      "start": 12.1232,
      "duration": 0.0001,
      "velocity": 110,
      "chip": "ym2612"
    },
    {
      "channel": 0,
      "note": 62,
      "start": 12.1248,
      "duration": 0.0031,
      "velocity": 99,
      "chip": "ym2612"
    },
    {
      "channel": 1,
      "note": 66,
      "start": 12.1262,
      "duration": 0.0017,
      "velocity": 119,
      "chip": "ym2612"
    },
    {
      "channel": 3,
      "note": 78,
      "start": 12.1278,
      "duration": 0.0002,
      "velocity": 110,
      "chip": "ym2612"
    },
    {
      "channel": 0,
      "note": 52,
      "start": 12.1386,
      "duration": 0.0975,
      "velocity": 99,
      "chip": "ym2612"
    },
    {
      "channel": 1,
      "note": 52,
      "start": 12.1412,
      "duration": 0.0782,
      "velocity": 119,
      "chip": "ym2612"
    },
    {
      "channel": 3,
      "note": 85,
      "start": 12.1437,
      "duration": 0.0926,
      "velocity": 110,
      "chip": "ym2612"
    },
    {
      "channel": 0,
      "note": 52,
      "start": 12.392,
      "duration": 0.0031,
      "velocity": 99,
      "chip": "ym2612"
    },
    {
      "channel": 1,
      "note": 52,
      "start": 12.3934,
      "duration": 0.0017,
      "velocity": 119,
      "chip": "ym2612"
    },
    {
      "channel": 3,
      "note": 85,
      "start": 12.395,
      "duration": 0.0002,
      "velocity": 110,
      "chip": "ym2612"
    },
    {
      "channel": 0,
      "note": 52,
      "start": 12.3987,
      "duration": 0.0031,
      "velocity": 99,
      "chip": "ym2612"
    },
    {
      "channel": 1,
      "note": 52,
      "start": 12.4001,
      "duration": 0.0017,
      "velocity": 119,
      "chip": "ym2612"
    },
    {
      "channel": 3,
      "note": 84,
      "start": 12.4017,
      "duration": 0.0,
      "velocity": 110,
      "chip": "ym2612"
    },
    {
      "channel": 3,
      "note": 83,
      "start": 12.4075,
      "duration": 0.0,
      "velocity": 110,
      "chip": "ym2612"
    },
    {
      "channel": 0,
      "note": 52,
      "start": 12.409,
      "duration": 0.0015,
      "velocity": 99,
      "chip": "ym2612"
    },
    {
      "channel": 1,
      "note": 52,
      "start": 12.4105,
      "duration": 0.0,
      "velocity": 119,
      "chip": "ym2612"
    },
    {
      "channel": 0,
      "note": 53,
      "start": 12.4142,
      "duration": 0.0031,
      "velocity": 99,
      "chip": "ym2612"
    },
    {
      "channel": 1,
      "note": 53,
      "start": 12.4156,
      "duration": 0.0017,
      "velocity": 119,
      "chip": "ym2612"
    },
    {
      "channel": 3,
      "note": 81,
      "start": 12.4173,
      "duration": 0.0005,
      "velocity": 110,
      "chip": "ym2612"
    },
    {
      "channel": 2,
      "note": 67,
      "start": 12.4224,
      "duration": 0.003,
      "velocity": 121,
      "chip": "ym2612"
    },
    {
      "channel": 0,
      "note": 54,
      "start": 12.4239,
      "duration": 0.0015,
      "velocity": 99,
      "chip": "ym2612"
    },
    {
      "channel": 1,
      "note": 66,
      "start": 12.4254,
      "duration": 0.0017,
      "velocity": 119,
      "chip": "ym2612"
    },
    {
      "channel": 2,
      "note": 67,
      "start": 12.4269,
      "duration": 0.0,
      "velocity": 121,
      "chip": "ym2612"
    },
    {
      "channel": 2,
      "note": 67,
      "start": 12.4316,
      "duration": 0.003,
      "velocity": 121,
      "chip": "ym2612"
    },
    {
      "channel": 0,
      "note": 54,
      "start": 12.4331,
      "duration": 0.417,
      "velocity": 99,
      "chip": "ym2612"
    },
    {
      "channel": 1,
      "note": 78,
      "start": 12.4345,
      "duration": 0.0,
      "velocity": 119,
      "chip": "ym2612"
    },
    {
      "channel": 2,
      "note": 67,
      "start": 12.4361,
      "duration": 0.0015,
      "velocity": 121,
      "chip": "ym2612"
    },
    {
      "channel": 1,
      "note": 66,
      "start": 12.4376,
      "duration": 0.0001,
      "velocity": 119,
      "chip": "ym2612"
    },
    {
      "channel": 2,
      "note": 67,
      "start": 12.4412,
      "duration": 0.0016,
      "velocity": 121,
      "chip": "ym2612"
    },
    {
      "channel": 1,
      "note": 73,
      "start": 12.4426,
      "duration": 0.0,
      "velocity": 119,
      "chip": "ym2612"
    },
    {
      "channel": 2,
      "note": 67,
      "start": 12.4442,
      "duration": 0.0015,
      "velocity": 121,
      "chip": "ym2612"
    },
    {
      "channel": 1,
      "note": 66,
      "start": 12.4457,
      "duration": 0.0305,
      "velocity": 119,
      "chip": "ym2612"
    },
    {
      "channel": 2,
      "note": 67,
      "start": 12.4474,
      "duration": 0.029,
      "velocity": 121,
      "chip": "ym2612"
    },
    {
      "channel": 2,
      "note": 67,
      "start": 12.4794,
      "duration": 0.0639,
      "velocity": 121,
      "chip": "ym2612"
    },
    {
      "channel": 1,
      "note": 78,
      "start": 12.4819,
      "duration": 0.0947,
      "velocity": 119,
      "chip": "ym2612"
    },
    {
      "channel": 2,
      "note": 67,
      "start": 12.5964,
      "duration": 0.1309,
      "velocity": 121,
      "chip": "ym2612"
    },
    {
      "channel": 2,
      "note": 67,
      "start": 12.7306,
      "duration": 0.047,
      "velocity": 121,
      "chip": "ym2612"
    },
    {
      "channel": 1,
      "note": 78,
      "start": 12.734,
      "duration": 0.0936,
      "velocity": 119,
      "chip": "ym2612"
    },
    {
      "channel": 2,
      "note": 67,
      "start": 12.8486,
      "duration": 0.0015,
      "velocity": 121,
      "chip": "ym2612"
    },
    {
      "channel": 1,
      "note": 66,
      "start": 12.85,
      "duration": 0.0017,
      "velocity": 119,
      "chip": "ym2612"
    },
    {
      "channel": 2,
      "note": 67,
      "start": 12.8517,
      "duration": 0.0,
      "velocity": 121,
      "chip": "ym2612"
    },
    {
      "channel": 2,
      "note": 67,
      "start": 12.8556,
      "duration": 0.0015,
      "velocity": 121,
      "chip": "ym2612"
    },
    {
      "channel": 1,
      "note": 73,
      "start": 12.857,
      "duration": 0.0017,
      "velocity": 119,
      "chip": "ym2612"
    },
    {
      "channel": 2,
      "note": 67,
      "start": 12.8586,
      "duration": 0.0,
      "velocity": 121,
      "chip": "ym2612"
    },
    {
      "channel": 2,
      "note": 67,
      "start": 12.8623,
      "duration": 0.0016,
      "velocity": 121,
      "chip": "ym2612"
    },
    {
      "channel": 1,
      "note": 66,
      "start": 12.8637,
      "duration": 0.0001,
      "velocity": 119,
      "chip": "ym2612"
    },
    {
      "channel": 2,
      "note": 67,
      "start": 12.8654,
      "duration": 0.0,
      "velocity": 121,
      "chip": "ym2612"
    },
    {
      "channel": 2,
      "note": 67,
      "start": 12.871,
      "duration": 0.0015,
      "velocity": 121,
      "chip": "ym2612"
    },
    {
      "channel": 1,
      "note": 71,
      "start": 12.8724,
      "duration": 0.0017,
      "velocity": 119,
      "chip": "ym2612"
    },
    {
      "channel": 2,
      "note": 67,
      "start": 12.874,
      "duration": 0.0,
      "velocity": 121,
      "chip": "ym2612"
    },
    {
      "channel": 2,
      "note": 67,
      "start": 12.8777,
      "duration": 0.0016,
      "velocity": 121,
      "chip": "ym2612"
    },
    {
      "channel": 1,
      "note": 83,
      "start": 12.8791,
      "duration": 0.0,
      "velocity": 119,
      "chip": "ym2612"
    },
    {
      "channel": 2,
      "note": 67,
      "start": 12.8807,
      "duration": 0.0015,
      "velocity": 121,
      "chip": "ym2612"
    },
    {
      "channel": 1,
      "note": 71,
      "start": 12.8822,
      "duration": 0.0001,
      "velocity": 119,
      "chip": "ym2612"
    },
    {
      "channel": 2,
      "note": 67,
      "start": 12.8878,
      "duration": 0.0016,
      "velocity": 121,
      "chip": "ym2612"
    },
    {
      "channel": 1,
      "note": 78,
      "start": 12.8892,
      "duration": 0.0,
      "velocity": 119,
      "chip": "ym2612"
    },
    {
      "channel": 2,
      "note": 67,
      "start": 12.8909,
      "duration": 0.0015,
      "velocity": 121,
      "chip": "ym2612"
    },
    {
      "channel": 1,
      "note": 71,
      "start": 12.8923,
      "duration": 0.0001,
      "velocity": 119,
      "chip": "ym2612"
    },
    {
      "channel": 2,
      "note": 67,
      "start": 12.8939,
      "duration": 0.03,
      "velocity": 121,
      "chip": "ym2612"
    },
    {
      "channel": 1,
      "note": 78,
      "start": 12.8954,
      "duration": 0.0,
      "velocity": 119,
      "chip": "ym2612"
    },
    {
      "channel": 2,
      "note": 67,
      "start": 12.9268,
      "duration": 0.0641,
      "velocity": 121,
      "chip": "ym2612"
    },
    {
      "channel": 1,
      "note": 64,
      "start": 12.9294,
      "duration": 0.078,
      "velocity": 119,
      "chip": "ym2612"
    },
    {
      "channel": 2,
      "note": 67,
      "start": 13.0439,
      "duration": 0.1311,
      "velocity": 121,
      "chip": "ym2612"
    },
    {
      "channel": 2,
      "note": 67,
      "start": 13.1801,
      "duration": 0.0015,
      "velocity": 121,
      "chip": "ym2612"
    },
    {
      "channel": 1,
      "note": 64,
      "start": 13.1816,
      "duration": 0.0001,
      "velocity": 119,
      "chip": "ym2612"
    },
    {
      "channel": 2,
      "note": 67,
      "start": 13.1859,
      "duration": 0.0015,
      "velocity": 121,
      "chip": "ym2612"
    },
    {
      "channel": 1,
      "note": 76,
      "start": 13.1873,
      "duration": 0.0017,
      "velocity": 119,
      "chip": "ym2612"
    },
    {
      "channel": 2,
      "note": 67,
      "start": 13.1889,
      "duration": 0.0,
      "velocity": 121,
      "chip": "ym2612"
    },
    {
      "channel": 2,
      "note": 67,
      "start": 13.1925,
      "duration": 0.0016,
      "velocity": 121,
      "chip": "ym2612"
    },
    {
      "channel": 1,
      "note": 64,
      "start": 13.194,
      "duration": 0.0,
      "velocity": 119,
      "chip": "ym2612"
    },
    {
      "channel": 2,
      "note": 67,
      "start": 13.1956,
      "duration": 0.0,
      "velocity": 121,
      "chip": "ym2612"
    },
    {
      "channel": 2,
      "note": 67,
      "start": 13.1992,
      "duration": 0.0015,
      "velocity": 121,
      "chip": "ym2612"
    },
    {
      "channel": 1,
      "note": 65,
      "start": 13.2006,
      "duration": 0.0,
      "velocity": 119,
      "chip": "ym2612"
    },
    {
      "channel": 2,
      "note": 67,
      "start": 13.2022,
      "duration": 0.0,
      "velocity": 121,
      "chip": "ym2612"
    },
    {
      "channel": 2,
      "note": 67,
      "start": 13.2075,
      "duration": 0.0031,
      "velocity": 121,
      "chip": "ym2612"
    },
    {
      "channel": 0,
      "note": 54,
      "start": 13.2091,
      "duration": 0.0015,
      "velocity": 99,
      "chip": "ym2612"
    },
    {
      "channel": 1,
      "note": 66,
      "start": 13.2105,
      "duration": 0.0017,
      "velocity": 119,
      "chip": "ym2612"
    },
    {
      "channel": 2,
      "note": 67,
      "start": 13.2121,
      "duration": 0.0,
      "velocity": 121,
      "chip": "ym2612"
    },
    {
      "channel": 2,
      "note": 67,
      "start": 13.2167,
      "duration": 0.0031,
      "velocity": 121,
      "chip": "ym2612"
    },
    {
      "channel": 0,
      "note": 54,
      "start": 13.2182,
      "duration": 0.4193,
      "velocity": 99,
      "chip": "ym2612"
    },
    {
      "channel": 1,
      "note": 78,
      "start": 13.2197,
      "duration": 0.0,
      "velocity": 119,
      "chip": "ym2612"
    },
    {
      "channel": 2,
      "note": 67,
      "start": 13.2213,
      "duration": 0.0015,
      "velocity": 121,
      "chip": "ym2612"
    },
    {
      "channel": 1,
      "note": 66,
      "start": 13.2227,
      "duration": 0.0001,
      "velocity": 119,
      "chip": "ym2612"
    },
    {
      "channel": 2,
      "note": 67,
      "start": 13.2281,
      "duration": 0.0015,
      "velocity": 121,
      "chip": "ym2612"
    },
    {
      "channel": 1,
      "note": 73,
      "start": 13.2296,
      "duration": 0.0,
      "velocity": 119,
      "chip": "ym2612"
    },
    {
      "channel": 2,
      "note": 67,
      "start": 13.2312,
      "duration": 0.0015,
      "velocity": 121,
      "chip": "ym2612"
    },
    {
      "channel": 1,
      "note": 66,
      "start": 13.2326,
      "duration": 0.0002,
      "velocity": 119,
      "chip": "ym2612"
    },
    {
      "channel": 2,
      "note": 67,
      "start": 13.2344,
      "duration": 0.0295,
      "velocity": 121,
      "chip": "ym2612"
    },
    {
      "channel": 1,
      "note": 78,
      "start": 13.2358,
      "duration": 0.0001,
      "velocity": 119,
      "chip": "ym2612"
    },
    {
      "channel": 2,
      "note": 67,
      "start": 13.2668,
      "duration": 0.0639,
      "velocity": 121,
      "chip": "ym2612"
    },
    {
      "channel": 1,
      "note": 66,
      "start": 13.2695,
      "duration": 0.2451,
      "velocity": 119,
      "chip": "ym2612"
    },
    {
      "channel": 2,
      "note": 67,
      "start": 13.3839,
      "duration": 0.131,
      "velocity": 121,
      "chip": "ym2612"
    },
    {
      "channel": 2,
      "note": 67,
      "start": 13.5182,
      "duration": 0.0468,
      "velocity": 121,
      "chip": "ym2612"
    },
    {
      "channel": 1,
      "note": 73,
      "start": 13.5221,
      "duration": 0.093,
      "velocity": 119,
      "chip": "ym2612"
    },
    {
      "channel": 2,
      "note": 67,
      "start": 13.6361,
      "duration": 0.0015,
      "velocity": 121,
      "chip": "ym2612"
    },
    {
      "channel": 1,
      "note": 66,
      "start": 13.6375,
      "duration": 0.0016,
      "velocity": 119,
      "chip": "ym2612"
    },
    {
      "channel": 2,
      "note": 67,
      "start": 13.6391,
      "duration": 0.0001,
      "velocity": 121,
      "chip": "ym2612"
    },
    {
      "channel": 2,
      "note": 67,
      "start": 13.643,
      "duration": 0.0015,
      "velocity": 121,
      "chip": "ym2612"
    },
    {
      "channel": 1,
      "note": 78,
      "start": 13.6445,
      "duration": 0.0017,
      "velocity": 119,
      "chip": "ym2612"
    },
    {
      "channel": 2,
      "note": 67,
      "start": 13.646,
      "duration": 0.0,
      "velocity": 121,
      "chip": "ym2612"
    },
    {
      "channel": 2,
      "note": 67,
      "start": 13.6512,
      "duration": 0.0016,
      "velocity": 121,
      "chip": "ym2612"
    },
    {
      "channel": 1,
      "note": 66,
      "start": 13.6527,
      "duration": 0.0001,
      "velocity": 119,
      "chip": "ym2612"
    },
    {
      "channel": 2,
      "note": 67,
      "start": 13.6543,
      "duration": 0.0,
      "velocity": 121,
      "chip": "ym2612"
    },
    {
      "channel": 3,
      "note": 90,
      "start": 13.8778,
      "duration": 0.1135,
      "velocity": 106,
      "chip": "ym2612"
    },
    {
      "channel": 4,
      "note": 78,
      "start": 13.8803,
      "duration": 0.111,
      "velocity": 106,
      "chip": "ym2612"
    },
    {
      "channel": 3,
      "note": 88,
      "start": 13.995,
      "duration": 0.1133,
      "velocity": 106,
      "chip": "ym2612"
    },
    {
      "channel": 4,
      "note": 76,
      "start": 13.9975,
      "duration": 0.111,
      "velocity": 106,
      "chip": "ym2612"
    },
    {
      "channel": 3,
      "note": 90,
      "start": 14.1118,
      "duration": 0.1136,
      "velocity": 106,
      "chip": "ym2612"
    },
    {
      "channel": 4,
      "note": 78,
      "start": 14.1143,
      "duration": 0.1112,
      "velocity": 106,
      "chip": "ym2612"
    },
    {
      "channel": 3,
      "note": 88,
      "start": 14.2288,
      "duration": 0.1304,
      "velocity": 106,
      "chip": "ym2612"
    },
    {
      "channel": 4,
      "note": 76,
      "start": 14.2313,
      "duration": 0.128,
      "velocity": 106,
      "chip": "ym2612"
    },
    {
      "channel": 3,
      "note": 90,
      "start": 14.3627,
      "duration": 0.1137,
      "velocity": 106,
      "chip": "ym2612"
    },
    {
      "channel": 4,
      "note": 78,
      "start": 14.3651,
      "duration": 0.1114,
      "velocity": 106,
      "chip": "ym2612"
    },
    {
      "channel": 3,
      "note": 83,
      "start": 14.4804,
      "duration": 0.2302,
      "velocity": 106,
      "chip": "ym2612"
    },
    {
      "channel": 4,
      "note": 95,
      "start": 14.4829,
      "duration": 0.2279,
      "velocity": 106,
      "chip": "ym2612"
    },
    {
      "channel": 0,
      "note": 52,
      "start": 14.716,
      "duration": 0.006,
      "velocity": 99,
      "chip": "ym2612"
    },
    {
      "channel": 1,
      "note": 52,
      "start": 14.7174,
      "duration": 0.0046,
      "velocity": 119,
      "chip": "ym2612"
    },
    {
      "channel": 3,
      "note": 96,
      "start": 14.719,
      "duration": 0.0032,
      "velocity": 106,
      "chip": "ym2612"
    },
    {
      "channel": 4,
      "note": 84,
      "start": 14.7205,
      "duration": 0.0017,
      "velocity": 106,
      "chip": "ym2612"
    },
    {
      "channel": 2,
      "note": 52,
      "start": 14.722,
      "duration": 0.0002,
      "velocity": 122,
      "chip": "ym2612"
    },
    {
      "channel": 0,
      "note": 52,
      "start": 14.7272,
      "duration": 0.0068,
      "velocity": 99,
      "chip": "ym2612"
    },
    {
      "channel": 1,
      "note": 52,
      "start": 14.7287,
      "duration": 0.0054,
      "velocity": 119,
      "chip": "ym2612"
    },
    {
      "channel": 3,
      "note": 95,
      "start": 14.7302,
      "duration": 0.016,
      "velocity": 106,
      "chip": "ym2612"
    },
    {
      "channel": 4,
      "note": 83,
      "start": 14.7318,
      "duration": 0.0145,
      "velocity": 106,
      "chip": "ym2612"
    },
    {
      "channel": 2,
      "note": 52,
      "start": 14.7334,
      "duration": 0.0007,
      "velocity": 122,
      "chip": "ym2612"
    },
    {
      "channel": 0,
      "note": 52,
      "start": 14.7516,
      "duration": 0.0062,
      "velocity": 99,
      "chip": "ym2612"
    },
    {
      "channel": 1,
      "note": 52,
      "start": 14.753,
      "duration": 0.0048,
      "velocity": 119,
      "chip": "ym2612"
    },
    {
      "channel": 3,
      "note": 81,
      "start": 14.7546,
      "duration": 0.0122,
      "velocity": 106,
      "chip": "ym2612"
    },
    {
      "channel": 4,
      "note": 93,
      "start": 14.7562,
      "duration": 0.0107,
      "velocity": 106,
      "chip": "ym2612"
    },
    {
      "channel": 2,
      "note": 52,
      "start": 14.7578,
      "duration": 0.0002,
      "velocity": 122,
      "chip": "ym2612"
    },
    {
      "channel": 0,
      "note": 53,
      "start": 14.763,
      "duration": 0.0035,
      "velocity": 99,
      "chip": "ym2612"
    },
    {
      "channel": 1,
      "note": 53,
      "start": 14.7644,
      "duration": 0.0021,
      "velocity": 119,
      "chip": "ym2612"
    },
    {
      "channel": 2,
      "note": 53,
      "start": 14.766,
      "duration": 0.0005,
      "velocity": 122,
      "chip": "ym2612"
    },
    {
      "channel": 0,
      "note": 54,
      "start": 14.7715,
      "duration": 0.003,
      "velocity": 99,
      "chip": "ym2612"
    },
    {
      "channel": 1,
      "note": 54,
      "start": 14.7729,
      "duration": 0.0017,
      "velocity": 119,
      "chip": "ym2612"
    },
    {
      "channel": 2,
      "note": 54,
      "start": 14.7744,
      "duration": 0.2134,
      "velocity": 122,
      "chip": "ym2612"
    },
    {
      "channel": 0,
      "note": 54,
      "start": 14.7782,
      "duration": 0.0001,
      "velocity": 99,
      "chip": "ym2612"
    },
    {
      "channel": 0,
      "note": 66,
      "start": 14.7848,
      "duration": 0.0033,
      "velocity": 99,
      "chip": "ym2612"
    },
    {
      "channel": 3,
      "note": 78,
      "start": 14.7863,
      "duration": 0.0018,
      "velocity": 106,
      "chip": "ym2612"
    },
    {
      "channel": 4,
      "note": 66,
      "start": 14.788,
      "duration": 0.0002,
      "velocity": 106,
      "chip": "ym2612"
    },
    {
      "channel": 0,
      "note": 64,
      "start": 14.7898,
      "duration": 0.0002,
      "velocity": 99,
      "chip": "ym2612"
    },
    {
      "channel": 0,
      "note": 61,
      "start": 14.8232,
      "duration": 0.0975,
      "velocity": 99,
      "chip": "ym2612"
    },
    {
      "channel": 0,
      "note": 60,
      "start": 15.0573,
      "duration": 0.0975,
      "velocity": 99,
      "chip": "ym2612"
    },
    {
      "channel": 3,
      "note": 66,
      "start": 15.1928,
      "duration": 0.0017,
      "velocity": 106,
      "chip": "ym2612"
    },
    {
      "channel": 4,
      "note": 78,
      "start": 15.1944,
      "duration": 0.0001,
      "velocity": 106,
      "chip": "ym2612"
    },
    {
      "channel": 0,
      "note": 59,
      "start": 15.1959,
      "duration": 0.0032,
      "velocity": 99,
      "chip": "ym2612"
    },
    {
      "channel": 3,
      "note": 76,
      "start": 15.1975,
      "duration": 0.0017,
      "velocity": 106,
      "chip": "ym2612"
    },
    {
      "channel": 4,
      "note": 64,
      "start": 15.1991,
      "duration": 0.0002,
      "velocity": 106,
      "chip": "ym2612"
    },
    {
      "channel": 3,
      "note": 66,
      "start": 15.2028,
      "duration": 0.0017,
      "velocity": 106,
      "chip": "ym2612"
    },
    {
      "channel": 4,
      "note": 78,
      "start": 15.2044,
      "duration": 0.0002,
      "velocity": 106,
      "chip": "ym2612"
    },
    {
      "channel": 0,
      "note": 57,
      "start": 15.2061,
      "duration": 0.0,
      "velocity": 99,
      "chip": "ym2612"
    },
    {
      "channel": 0,
      "note": 54,
      "start": 15.2097,
      "duration": 0.0,
      "velocity": 99,
      "chip": "ym2612"
    },
    {
      "channel": 0,
      "note": 59,
      "start": 15.2146,
      "duration": 0.0,
      "velocity": 99,
      "chip": "ym2612"
    },
    {
      "channel": 0,
      "note": 59,
      "start": 15.22,
      "duration": 0.0,
      "velocity": 99,
      "chip": "ym2612"
    },
    {
      "channel": 0,
      "note": 59,
      "start": 15.2253,
      "duration": 0.0033,
      "velocity": 99,
      "chip": "ym2612"
    },
    {
      "channel": 3,
      "note": 78,
      "start": 15.2268,
      "duration": 0.0017,
      "velocity": 106,
      "chip": "ym2612"
    },
    {
      "channel": 4,
      "note": 66,
      "start": 15.2284,
      "duration": 0.0001,
      "velocity": 106,
      "chip": "ym2612"
    },
    {
      "channel": 0,
      "note": 61,
      "start": 15.2301,
      "duration": 0.0,
      "velocity": 99,
      "chip": "ym2612"
    },
    {
      "channel": 0,
      "note": 62,
      "start": 15.2317,
      "duration": 0.0,
      "velocity": 99,
      "chip": "ym2612"
    },
    {
      "channel": 0,
      "note": 52,
      "start": 15.2632,
      "duration": 0.0973,
      "velocity": 99,
      "chip": "ym2612"
    },
    {
      "channel": 3,
      "note": 78,
      "start": 15.2661,
      "duration": 0.0777,
      "velocity": 106,
      "chip": "ym2612"
    },
    {
      "channel": 4,
      "note": 66,
      "start": 15.2687,
      "duration": 0.092,
      "velocity": 106,
      "chip": "ym2612"
    },
    {
      "channel": 0,
      "note": 52,
      "start": 15.4986,
      "duration": 0.0,
      "velocity": 99,
      "chip": "ym2612"
    },
    {
      "channel": 0,
      "note": 52,
      "start": 15.5023,
      "duration": 0.0033,
      "velocity": 99,
      "chip": "ym2612"
    },
    {
      "channel": 3,
      "note": 83,
      "start": 15.5038,
      "duration": 0.0016,
      "velocity": 106,
      "chip": "ym2612"
    },
    {
      "channel": 4,
      "note": 71,
      "start": 15.5054,
      "duration": 0.0001,
      "velocity": 106,
      "chip": "ym2612"
    },
    {
      "channel": 0,
      "note": 52,
      "start": 15.509,
      "duration": 0.0032,
      "velocity": 99,
      "chip": "ym2612"
    },
    {
      "channel": 3,
      "note": 81,
      "start": 15.5105,
      "duration": 0.0055,
      "velocity": 106,
      "chip": "ym2612"
    },
    {
      "channel": 4,
      "note": 69,
      "start": 15.5121,
      "duration": 0.0041,
      "velocity": 106,
      "chip": "ym2612"
    },
    {
      "channel": 0,
      "note": 53,
      "start": 15.5156,
      "duration": 0.0003,
      "velocity": 99,
      "chip": "ym2612"
    },
    {
      "channel": 0,
      "note": 54,
      "start": 15.5212,
      "duration": 0.0025,
      "velocity": 99,
      "chip": "ym2612"
    },
    {
      "channel": 0,
      "note": 54,
      "start": 15.5253,
      "duration": 0.0,
      "velocity": 99,
      "chip": "ym2612"
    },
    {
      "channel": 0,
      "note": 66,
      "start": 15.5289,
      "duration": 0.0032,
      "velocity": 99,
      "chip": "ym2612"
    },
    {
      "channel": 3,
      "note": 78,
      "start": 15.5305,
      "duration": 0.0017,
      "velocity": 106,
      "chip": "ym2612"
    },
    {
      "channel": 4,
      "note": 66,
      "start": 15.5321,
      "duration": 0.0002,
      "velocity": 106,
      "chip": "ym2612"
    },
    {
      "channel": 0,
      "note": 64,
      "start": 15.5337,
      "duration": 0.0,
      "velocity": 99,
      "chip": "ym2612"
    },
    {
      "channel": 0,
      "note": 61,
      "start": 15.565,
      "duration": 0.0976,
      "velocity": 99,
      "chip": "ym2612"
    },
    {
      "channel": 0,
      "note": 60,
      "start": 15.7992,
      "duration": 0.1142,
      "velocity": 99,
      "chip": "ym2612"
    },
    {
      "channel": 3,
      "note": 66,
      "start": 15.9179,
      "duration": 0.0017,
      "velocity": 106,
      "chip": "ym2612"
    },
    {
      "channel": 4,
      "note": 78,
      "start": 15.9195,
      "duration": 0.0001,
      "velocity": 106,
      "chip": "ym2612"
    },
    {
      "channel": 0,
      "note": 59,
      "start": 15.9211,
      "duration": 0.0032,
      "velocity": 99,
      "chip": "ym2612"
    },
    {
      "channel": 3,
      "note": 76,
      "start": 15.9226,
      "duration": 0.0017,
      "velocity": 106,
      "chip": "ym2612"
    },
    {
      "channel": 4,
      "note": 64,
      "start": 15.9242,
      "duration": 0.0001,
      "velocity": 106,
      "chip": "ym2612"
    },
    {
      "channel": 3,
      "note": 66,
      "start": 15.9295,
      "duration": 0.0017,
      "velocity": 106,
      "chip": "ym2612"
    },
    {
      "channel": 4,
      "note": 78,
      "start": 15.9311,
      "duration": 0.0001,
      "velocity": 106,
      "chip": "ym2612"
    },
    {
      "channel": 0,
      "note": 57,
      "start": 15.9327,
      "duration": 0.0,
      "velocity": 99,
      "chip": "ym2612"
    },
    {
      "channel": 0,
      "note": 54,
      "start": 15.9363,
      "duration": 0.0,
      "velocity": 99,
      "chip": "ym2612"
    },
    {
      "channel": 0,
      "note": 59,
      "start": 15.9413,
      "duration": 0.0029,
      "velocity": 99,
      "chip": "ym2612"
    },
    {
      "channel": 0,
      "note": 59,
      "start": 15.9458,
      "duration": 0.0,
      "velocity": 99,
      "chip": "ym2612"
    },
    {
      "channel": 0,
      "note": 59,
      "start": 15.9495,
      "duration": 0.0033,
      "velocity": 99,
      "chip": "ym2612"
    },
    {
      "channel": 3,
      "note": 78,
      "start": 15.951,
      "duration": 0.0017,
      "velocity": 106,
      "chip": "ym2612"
    },
    {
      "channel": 4,
      "note": 66,
      "start": 15.9526,
      "duration": 0.0001,
      "velocity": 106,
      "chip": "ym2612"
    },
    {
      "channel": 0,
      "note": 61,
      "start": 15.9542,
      "duration": 0.0,
      "velocity": 99,
      "chip": "ym2612"
    },
    {
      "channel": 0,
      "note": 62,
      "start": 15.9558,
      "duration": 0.0,
      "velocity": 99,
      "chip": "ym2612"
    },
    {
      "channel": 0,
      "note": 52,
      "start": 15.9885,
      "duration": 0.0975,
      "velocity": 99,
      "chip": "ym2612"
    },
    {
      "channel": 3,
      "note": 78,
      "start": 15.9914,
      "duration": 0.0612,
      "velocity": 106,
      "chip": "ym2612"
    },
    {
      "channel": 4,
      "note": 66,
      "start": 15.9944,
      "duration": 0.0918,
      "velocity": 106,
      "chip": "ym2612"
    },
    {
      "channel": 0,
      "note": 52,
      "start": 16.225,
      "duration": 0.0,
      "velocity": 99,
      "chip": "ym2612"
    },
    {
      "channel": 0,
      "note": 52,
      "start": 16.2303,
      "duration": 0.0033,
      "velocity": 99,
      "chip": "ym2612"
    },
    {
      "channel": 3,
      "note": 83,
      "start": 16.2318,
      "duration": 0.0017,
      "velocity": 106,
      "chip": "ym2612"
    },
    {
      "channel": 4,
      "note": 71,
      "start": 16.2334,
      "duration": 0.0001,
      "velocity": 106,
      "chip": "ym2612"
    },
    {
      "channel": 0,
      "note": 52,
      "start": 16.238,
      "duration": 0.0032,
      "velocity": 99,
      "chip": "ym2612"
    },
    {
      "channel": 3,
      "note": 81,
      "start": 16.2395,
      "duration": 0.0054,
      "velocity": 106,
      "chip": "ym2612"
    },
    {
      "channel": 4,
      "note": 69,
      "start": 16.2411,
      "duration": 0.0041,
      "velocity": 106,
      "chip": "ym2612"
    },
    {
      "channel": 0,
      "note": 53,
      "start": 16.2446,
      "duration": 0.0007,
      "velocity": 99,
      "chip": "ym2612"
    },
    {
      "channel": 0,
      "note": 54,
      "start": 16.2503,
      "duration": 0.0016,
      "velocity": 99,
      "chip": "ym2612"
    },
    {
      "channel": 1,
      "note": 66,
      "start": 16.2519,
      "duration": 0.0001,
      "velocity": 108,
      "chip": "ym2612"
    },
    {
      "channel": 1,
      "note": 78,
      "start": 16.2536,
      "duration": 0.071,
      "velocity": 108,
      "chip": "ym2612"
    },
    {
      "channel": 0,
      "note": 54,
      "start": 16.3612,
      "duration": 0.0639,
      "velocity": 99,
      "chip": "ym2612"
    },
    {
      "channel": 1,
      "note": 66,
      "start": 16.3641,
      "duration": 0.1112,
      "velocity": 108,
      "chip": "ym2612"
    },
    {
      "channel": 0,
      "note": 66,
      "start": 16.4809,
      "duration": 0.0047,
      "velocity": 99,
      "chip": "ym2612"
    },
    {
      "channel": 3,
      "note": 78,
      "start": 16.4824,
      "duration": 0.0032,
      "velocity": 106,
      "chip": "ym2612"
    },
    {
      "channel": 4,
      "note": 66,
      "start": 16.484,
      "duration": 0.0017,
      "velocity": 106,
      "chip": "ym2612"
    },
    {
      "channel": 1,
      "note": 73,
      "start": 16.4856,
      "duration": 0.0001,
      "velocity": 108,
      "chip": "ym2612"
    },
    {
      "channel": 0,
      "note": 64,
      "start": 16.4873,
      "duration": 0.0016,
      "velocity": 99,
      "chip": "ym2612"
    },
    {
      "channel": 1,
      "note": 66,
      "start": 16.4888,
      "duration": 0.03,
      "velocity": 108,
      "chip": "ym2612"
    },
    {
      "channel": 0,
      "note": 61,
      "start": 16.5218,
      "duration": 0.0973,
      "velocity": 99,
      "chip": "ym2612"
    },
    {
      "channel": 1,
      "note": 78,
      "start": 16.5247,
      "duration": 0.0945,
      "velocity": 108,
      "chip": "ym2612"
    },
    {
      "channel": 0,
      "note": 60,
      "start": 16.7558,
      "duration": 0.0976,
      "velocity": 99,
      "chip": "ym2612"
    },
    {
      "channel": 1,
      "note": 78,
      "start": 16.7587,
      "duration": 0.0948,
      "velocity": 108,
      "chip": "ym2612"
    },
    {
      "channel": 3,
      "note": 66,
      "start": 16.8744,
      "duration": 0.0032,
      "velocity": 106,
      "chip": "ym2612"
    },
    {
      "channel": 4,
      "note": 78,
      "start": 16.8761,
      "duration": 0.0017,
      "velocity": 106,
      "chip": "ym2612"
    },
    {
      "channel": 1,
      "note": 66,
      "start": 16.8776,
      "duration": 0.0048,
      "velocity": 108,
      "chip": "ym2612"
    },
    {
      "channel": 0,
      "note": 59,
      "start": 16.8792,
      "duration": 0.0032,
      "velocity": 99,
      "chip": "ym2612"
    },
    {
      "channel": 3,
      "note": 76,
      "start": 16.8808,
      "duration": 0.0018,
      "velocity": 106,
      "chip": "ym2612"
    },
    {
      "channel": 4,
      "note": 64,
      "start": 16.8824,
      "duration": 0.0002,
      "velocity": 106,
      "chip": "ym2612"
    },
    {
      "channel": 3,
      "note": 66,
      "start": 16.8864,
      "duration": 0.0032,
      "velocity": 106,
      "chip": "ym2612"
    },
    {
      "channel": 4,
      "note": 78,
      "start": 16.888,
      "duration": 0.0017,
      "velocity": 106,
      "chip": "ym2612"
    },
    {
      "channel": 1,
      "note": 73,
      "start": 16.8896,
      "duration": 0.0017,
      "velocity": 108,
      "chip": "ym2612"
    },
    {
      "channel": 0,
      "note": 57,
      "start": 16.8912,
      "duration": 0.0,
      "velocity": 99,
      "chip": "ym2612"
    },
    {
      "channel": 0,
      "note": 54,
      "start": 16.8954,
      "duration": 0.0017,
      "velocity": 99,
      "chip": "ym2612"
    },
    {
      "channel": 1,
      "note": 66,
      "start": 16.897,
      "duration": 0.0,
      "velocity": 108,
      "chip": "ym2612"
    },
    {
      "channel": 0,
      "note": 59,
      "start": 16.9007,
      "duration": 0.0016,
      "velocity": 99,
      "chip": "ym2612"
    },
    {
      "channel": 1,
      "note": 71,
      "start": 16.9023,
      "duration": 0.0005,
      "velocity": 108,
      "chip": "ym2612"
    },
    {
      "channel": 0,
      "note": 59,
      "start": 16.9074,
      "duration": 0.0016,
      "velocity": 99,
      "chip": "ym2612"
    },
    {
      "channel": 1,
      "note": 83,
      "start": 16.9089,
      "duration": 0.0001,
      "velocity": 108,
      "chip": "ym2612"
    },
    {
      "channel": 1,
      "note": 71,
      "start": 16.9107,
      "duration": 0.0,
      "velocity": 108,
      "chip": "ym2612"
    },
    {
      "channel": 0,
      "note": 59,
      "start": 16.9156,
      "duration": 0.0049,
      "velocity": 99,
      "chip": "ym2612"
    },
    {
      "channel": 3,
      "note": 78,
      "start": 16.9171,
      "duration": 0.0033,
      "velocity": 106,
      "chip": "ym2612"
    },
    {
      "channel": 4,
      "note": 66,
      "start": 16.9187,
      "duration": 0.0017,
      "velocity": 106,
      "chip": "ym2612"
    },
    {
      "channel": 1,
      "note": 78,
      "start": 16.9203,
      "duration": 0.0,
      "velocity": 108,
      "chip": "ym2612"
    },
    {
      "channel": 0,
      "note": 61,
      "start": 16.922,
      "duration": 0.0017,
      "velocity": 99,
      "chip": "ym2612"
    },
    {
      "channel": 1,
      "note": 71,
      "start": 16.9236,
      "duration": 0.0,
      "velocity": 108,
      "chip": "ym2612"
    },
    {
      "channel": 0,
      "note": 62,
      "start": 16.9251,
      "duration": 0.0016,
      "velocity": 99,
      "chip": "ym2612"
    },
    {
      "channel": 1,
      "note": 78,
      "start": 16.9267,
      "duration": 0.0001,
      "velocity": 108,
      "chip": "ym2612"
    },
    {
      "channel": 0,
      "note": 52,
      "start": 16.9369,
      "duration": 0.1139,
      "velocity": 99,
      "chip": "ym2612"
    },
    {
      "channel": 3,
      "note": 78,
      "start": 16.9398,
      "duration": 0.0778,
      "velocity": 106,
      "chip": "ym2612"
    },
    {
      "channel": 4,
      "note": 66,
      "start": 16.9424,
      "duration": 0.1086,
      "velocity": 106,
      "chip": "ym2612"
    },
    {
      "channel": 1,
      "note": 64,
      "start": 16.9451,
      "duration": 0.0724,
      "velocity": 108,
      "chip": "ym2612"
    },
    {
      "channel": 0,
      "note": 52,
      "start": 17.19,
      "duration": 0.0017,
      "velocity": 99,
      "chip": "ym2612"
    },
    {
      "channel": 1,
      "note": 64,
      "start": 17.1916,
      "duration": 0.0001,
      "velocity": 108,
      "chip": "ym2612"
    },
    {
      "channel": 0,
      "note": 52,
      "start": 17.1959,
      "duration": 0.0049,
      "velocity": 99,
      "chip": "ym2612"
    },
    {
      "channel": 3,
      "note": 83,
      "start": 17.1975,
      "duration": 0.0032,
      "velocity": 106,
      "chip": "ym2612"
    },
    {
      "channel": 4,
      "note": 71,
      "start": 17.199,
      "duration": 0.0017,
      "velocity": 106,
      "chip": "ym2612"
    },
    {
      "channel": 1,
      "note": 76,
      "start": 17.2006,
      "duration": 0.0002,
      "velocity": 108,
      "chip": "ym2612"
    },
    {
      "channel": 1,
      "note": 64,
      "start": 17.2047,
      "duration": 0.0,
      "velocity": 108,
      "chip": "ym2612"
    },
    {
      "channel": 0,
      "note": 52,
      "start": 17.2062,
      "duration": 0.0032,
      "velocity": 99,
      "chip": "ym2612"
    },
    {
      "channel": 3,
      "note": 81,
      "start": 17.2078,
      "duration": 0.0079,
      "velocity": 106,
      "chip": "ym2612"
    },
    {
      "channel": 4,
      "note": 69,
      "start": 17.2094,
      "duration": 0.0064,
      "velocity": 106,
      "chip": "ym2612"
    },
    {
      "channel": 0,
      "note": 53,
      "start": 17.2137,
      "duration": 0.0019,
      "velocity": 99,
      "chip": "ym2612"
    },
    {
      "channel": 1,
      "note": 65,
      "start": 17.2152,
      "duration": 0.0002,
      "velocity": 108,
      "chip": "ym2612"
    },
    {
      "channel": 0,
      "note": 54,
      "start": 17.2201,
      "duration": 0.0403,
      "velocity": 99,
      "chip": "ym2612"
    },
    {
      "channel": 1,
      "note": 66,
      "start": 17.2217,
      "duration": 0.0,
      "velocity": 108,
      "chip": "ym2612"
    },
    {
      "channel": 1,
      "note": 78,
      "start": 17.2234,
      "duration": 0.0705,
      "velocity": 108,
      "chip": "ym2612"
    },
    {
      "channel": 0,
      "note": 54,
      "start": 17.3136,
      "duration": 0.0973,
      "velocity": 99,
      "chip": "ym2612"
    },
    {
      "channel": 1,
      "note": 66,
      "start": 17.3165,
      "duration": 0.1379,
      "velocity": 108,
      "chip": "ym2612"
    },
    {
      "channel": 0,
      "note": 66,
      "start": 17.4497,
      "duration": 0.0049,
      "velocity": 99,
      "chip": "ym2612"
    },
    {
      "channel": 3,
      "note": 78,
      "start": 17.4512,
      "duration": 0.0033,
      "velocity": 106,
      "chip": "ym2612"
    },
    {
      "channel": 4,
      "note": 66,
      "start": 17.4528,
      "duration": 0.0018,
      "velocity": 106,
      "chip": "ym2612"
    },
    {
      "channel": 2,
      "note": 73,
      "start": 17.4544,
      "duration": 0.0002,
      "velocity": 108,
      "chip": "ym2612"
    },
    {
      "channel": 0,
      "note": 64,
      "start": 17.4562,
      "duration": 0.0016,
      "velocity": 99,
      "chip": "ym2612"
    },
    {
      "channel": 1,
      "note": 66,
      "start": 17.4578,
      "duration": 0.0001,
      "velocity": 108,
      "chip": "ym2612"
    },
    {
      "channel": 1,
      "note": 78,
      "start": 17.4595,
      "duration": 0.0,
      "velocity": 108,
      "chip": "ym2612"
    },
    {
      "channel": 0,
      "note": 61,
      "start": 17.4749,
      "duration": 0.0973,
      "velocity": 99,
      "chip": "ym2612"
    },
    {
      "channel": 1,
      "note": 66,
      "start": 17.478,
      "duration": 0.2446,
      "velocity": 108,
      "chip": "ym2612"
    },
    {
      "channel": 0,
      "note": 60,
      "start": 17.7256,
      "duration": 0.1142,
      "velocity": 99,
      "chip": "ym2612"
    },
    {
      "channel": 1,
      "note": 73,
      "start": 17.7286,
      "duration": 0.0944,
      "velocity": 108,
      "chip": "ym2612"
    },
    {
      "channel": 3,
      "note": 66,
      "start": 17.8443,
      "duration": 0.0032,
      "velocity": 106,
      "chip": "ym2612"
    },
    {
      "channel": 4,
      "note": 78,
      "start": 17.8459,
      "duration": 0.0017,
      "velocity": 106,
      "chip": "ym2612"
    },
    {
      "channel": 1,
      "note": 66,
      "start": 17.8475,
      "duration": 0.0048,
      "velocity": 108,
      "chip": "ym2612"
    },
    {
      "channel": 0,
      "note": 59,
      "start": 17.849,
      "duration": 0.0032,
      "velocity": 99,
      "chip": "ym2612"
    },
    {
      "channel": 3,
      "note": 76,
      "start": 17.8506,
      "duration": 0.0017,
      "velocity": 106,
      "chip": "ym2612"
    },
    {
      "channel": 4,
      "note": 64,
      "start": 17.8522,
      "duration": 0.0002,
      "velocity": 106,
      "chip": "ym2612"
    },
    {
      "channel": 3,
      "note": 66,
      "start": 17.8562,
      "duration": 0.0032,
      "velocity": 106,
      "chip": "ym2612"
    },
    {
      "channel": 4,
      "note": 78,
      "start": 17.8578,
      "duration": 0.0017,
      "velocity": 106,
      "chip": "ym2612"
    },
    {
      "channel": 1,
      "note": 78,
      "start": 17.8594,
      "duration": 0.0016,
      "velocity": 108,
      "chip": "ym2612"
    },
    {
      "channel": 0,
      "note": 57,
      "start": 17.8609,
      "duration": 0.0001,
      "velocity": 99,
      "chip": "ym2612"
    },
    {
      "channel": 0,
      "note": 54,
      "start": 17.8652,
      "duration": 0.0017,
      "velocity": 99,
      "chip": "ym2612"
    },
    {
      "channel": 1,
      "note": 66,
      "start": 17.8668,
      "duration": 0.0,
      "velocity": 108,
      "chip": "ym2612"
    },
    {
      "channel": 0,
      "note": 59,
      "start": 17.8705,
      "duration": 0.0075,
      "velocity": 99,
      "chip": "ym2612"
    },
    {
      "channel": 1,
      "note": 71,
      "start": 17.8721,
      "duration": 0.0008,
      "velocity": 108,
      "chip": "ym2612"
    },
    {
      "channel": 1,
      "note": 78,
      "start": 17.878,
      "duration": 0.0001,
      "velocity": 108,
      "chip": "ym2612"
    },
    {
      "channel": 0,
      "note": 59,
      "start": 17.8796,
      "duration": 0.0016,
      "velocity": 99,
      "chip": "ym2612"
    },
    {
      "channel": 1,
      "note": 71,
      "start": 17.8812,
      "duration": 0.0001,
      "velocity": 108,
      "chip": "ym2612"
    },
    {
      "channel": 0,
      "note": 59,
      "start": 17.8862,
      "duration": 0.0049,
      "velocity": 99,
      "chip": "ym2612"
    },
    {
      "channel": 3,
      "note": 78,
      "start": 17.8878,
      "duration": 0.0033,
      "velocity": 106,
      "chip": "ym2612"
    },
    {
      "channel": 4,
      "note": 66,
      "start": 17.8894,
      "duration": 0.0017,
      "velocity": 106,
      "chip": "ym2612"
    },
    {
      "channel": 1,
      "note": 83,
      "start": 17.8909,
      "duration": 0.0,
      "velocity": 108,
      "chip": "ym2612"
    },
    {
      "channel": 0,
      "note": 61,
      "start": 17.8926,
      "duration": 0.0017,
      "velocity": 99,
      "chip": "ym2612"
    },
    {
      "channel": 1,
      "note": 71,
      "start": 17.8942,
      "duration": 0.0,
      "velocity": 108,
      "chip": "ym2612"
    },
    {
      "channel": 0,
      "note": 62,
      "start": 17.8958,
      "duration": 0.0016,
      "velocity": 99,
      "chip": "ym2612"
    },
    {
      "channel": 1,
      "note": 78,
      "start": 17.8974,
      "duration": 0.0001,
      "velocity": 108,
      "chip": "ym2612"
    },
    {
      "channel": 0,
      "note": 52,
      "start": 17.907,
      "duration": 0.0975,
      "velocity": 99,
      "chip": "ym2612"
    },
    {
      "channel": 3,
      "note": 78,
      "start": 17.9102,
      "duration": 0.0777,
      "velocity": 106,
      "chip": "ym2612"
    },
    {
      "channel": 4,
      "note": 66,
      "start": 17.9128,
      "duration": 0.0918,
      "velocity": 106,
      "chip": "ym2612"
    },
    {
      "channel": 1,
      "note": 64,
      "start": 17.9156,
      "duration": 0.0722,
      "velocity": 108,
      "chip": "ym2612"
    },
    {
      "channel": 0,
      "note": 52,
      "start": 18.1604,
      "duration": 0.0017,
      "velocity": 99,
      "chip": "ym2612"
    },
    {
      "channel": 1,
      "note": 64,
      "start": 18.162,
      "duration": 0.0,
      "velocity": 108,
      "chip": "ym2612"
    },
    {
      "channel": 0,
      "note": 52,
      "start": 18.1656,
      "duration": 0.0048,
      "velocity": 99,
      "chip": "ym2612"
    },
    {
      "channel": 3,
      "note": 83,
      "start": 18.1671,
      "duration": 0.0032,
      "velocity": 106,
      "chip": "ym2612"
    },
    {
      "channel": 4,
      "note": 71,
      "start": 18.1687,
      "duration": 0.0016,
      "velocity": 106,
      "chip": "ym2612"
    },
    {
      "channel": 1,
      "note": 64,
      "start": 18.1702,
      "duration": 0.0002,
      "velocity": 108,
      "chip": "ym2612"
    },
    {
      "channel": 0,
      "note": 52,
      "start": 18.1741,
      "duration": 0.0048,
      "velocity": 99,
      "chip": "ym2612"
    },
    {
      "channel": 3,
      "note": 81,
      "start": 18.1756,
      "duration": 0.0096,
      "velocity": 106,
      "chip": "ym2612"
    },
    {
      "channel": 4,
      "note": 69,
      "start": 18.1772,
      "duration": 0.0082,
      "velocity": 106,
      "chip": "ym2612"
    },
    {
      "channel": 1,
      "note": 64,
      "start": 18.1788,
      "duration": 0.0,
      "velocity": 108,
      "chip": "ym2612"
    },
    {
      "channel": 0,
      "note": 53,
      "start": 18.1832,
      "duration": 0.0023,
      "velocity": 99,
      "chip": "ym2612"
    },
    {
      "channel": 1,
      "note": 65,
      "start": 18.1848,
      "duration": 0.0002,
      "velocity": 108,
      "chip": "ym2612"
    },
    {
      "channel": 0,
      "note": 54,
      "start": 18.1892,
      "duration": 0.0,
      "velocity": 99,
      "chip": "ym2612"
    },
    {
      "channel": 2,
      "note": 62,
      "start": 18.1907,
      "duration": 0.0,
      "velocity": 121,
      "chip": "ym2612"
    },
    {
      "channel": 2,
      "note": 64,
      "start": 18.1954,
      "duration": 0.0048,
      "velocity": 121,
      "chip": "ym2612"
    },
    {
      "channel": 0,
      "note": 54,
      "start": 18.1969,
      "duration": 0.4081,
      "velocity": 99,
      "chip": "ym2612"
    },
    {
      "channel": 1,
      "note": 78,
      "start": 18.1983,
      "duration": 0.0018,
      "velocity": 119,
      "chip": "ym2612"
    },
    {
      "channel": 3,
      "note": 78,
      "start": 18.2,
      "duration": 0.0001,
      "velocity": 96,
      "chip": "ym2612"
    },
    {
      "channel": 2,
      "note": 62,
      "start": 18.2017,
      "duration": 0.0032,
      "velocity": 121,
      "chip": "ym2612"
    },
    {
      "channel": 1,
      "note": 66,
      "start": 18.2031,
      "duration": 0.0018,
      "velocity": 119,
      "chip": "ym2612"
    },
    {
      "channel": 3,
      "note": 66,
      "start": 18.2049,
      "duration": 0.0002,
      "velocity": 96,
      "chip": "ym2612"
    },
    {
      "channel": 2,
      "note": 64,
      "start": 18.2094,
      "duration": 0.0033,
      "velocity": 121,
      "chip": "ym2612"
    },
    {
      "channel": 1,
      "note": 78,
      "start": 18.2108,
      "duration": 0.0018,
      "velocity": 119,
      "chip": "ym2612"
    },
    {
      "channel": 3,
      "note": 78,
      "start": 18.2126,
      "duration": 0.0001,
      "velocity": 96,
      "chip": "ym2612"
    },
    {
      "channel": 2,
      "note": 62,
      "start": 18.2142,
      "duration": 0.0032,
      "velocity": 121,
      "chip": "ym2612"
    },
    {
      "channel": 1,
      "note": 66,
      "start": 18.2157,
      "duration": 0.002,
      "velocity": 119,
      "chip": "ym2612"
    },
    {
      "channel": 3,
      "note": 66,
      "start": 18.2174,
      "duration": 0.0003,
      "velocity": 96,
      "chip": "ym2612"
    },
    {
      "channel": 2,
      "note": 64,
      "start": 18.2192,
      "duration": 0.0086,
      "velocity": 121,
      "chip": "ym2612"
    },
    {
      "channel": 1,
      "note": 78,
      "start": 18.2206,
      "duration": 0.0018,
      "velocity": 119,
      "chip": "ym2612"
    },
    {
      "channel": 3,
      "note": 78,
      "start": 18.2224,
      "duration": 0.0002,
      "velocity": 96,
      "chip": "ym2612"
    },
    {
      "channel": 2,
      "note": 62,
      "start": 18.2307,
      "duration": 0.0641,
      "velocity": 121,
      "chip": "ym2612"
    },
    {
      "channel": 4,
      "note": 81,
      "start": 18.2338,
      "duration": 0.0609,
      "velocity": 110,
      "chip": "ym2612"
    },
    {
      "channel": 1,
      "note": 78,
      "start": 18.2367,
      "duration": 0.0411,
      "velocity": 110,
      "chip": "ym2612"
    },
    {
      "channel": 3,
      "note": 85,
      "start": 18.2394,
      "duration": 0.0551,
      "velocity": 110,
      "chip": "ym2612"
    },
    {
      "channel": 5,
      "note": 85,
      "start": 18.2425,
      "duration": 0.0689,
      "velocity": 96,
      "chip": "ym2612"
    },
    {
      "channel": 2,
      "note": 64,
      "start": 18.3644,
      "duration": 0.1142,
      "velocity": 121,
      "chip": "ym2612"
    },
    {
      "channel": 2,
      "note": 62,
      "start": 18.4819,
      "duration": 0.0472,
      "velocity": 121,
      "chip": "ym2612"
    },
    {
      "channel": 1,
      "note": 78,
      "start": 18.4851,
      "duration": 0.0436,
      "velocity": 110,
      "chip": "ym2612"
    },
    {
      "channel": 3,
      "note": 85,
      "start": 18.4874,
      "duration": 0.0414,
      "velocity": 110,
      "chip": "ym2612"
    },
    {
      "channel": 4,
      "note": 81,
      "start": 18.4899,
      "duration": 0.0391,
      "velocity": 110,
      "chip": "ym2612"
    },
    {
      "channel": 5,
      "note": 85,
      "start": 18.4929,
      "duration": 0.1029,
      "velocity": 96,
      "chip": "ym2612"
    },
    {
      "channel": 2,
      "note": 66,
      "start": 18.6,
      "duration": 0.0051,
      "velocity": 121,
      "chip": "ym2612"
    },
    {
      "channel": 1,
      "note": 83,
      "start": 18.6016,
      "duration": 0.0035,
      "velocity": 110,
      "chip": "ym2612"
    },
    {
      "channel": 3,
      "note": 73,
      "start": 18.6032,
      "duration": 0.0018,
      "velocity": 110,
      "chip": "ym2612"
    },
    {
      "channel": 4,
      "note": 83,
      "start": 18.6049,
      "duration": 0.0018,
      "velocity": 96,
      "chip": "ym2612"
    },
    {
      "channel": 2,
      "note": 62,
      "start": 18.6066,
      "duration": 0.0001,
      "velocity": 121,
      "chip": "ym2612"
    },
    {
      "channel": 2,
      "note": 64,
      "start": 18.6103,
      "duration": 0.005,
      "velocity": 121,
      "chip": "ym2612"
    },
    {
      "channel": 1,
      "note": 81,
      "start": 18.6119,
      "duration": 0.0034,
      "velocity": 110,
      "chip": "ym2612"
    },
    {
      "channel": 3,
      "note": 73,
      "start": 18.6134,
      "duration": 0.0018,
      "velocity": 110,
      "chip": "ym2612"
    },
    {
      "channel": 4,
      "note": 81,
      "start": 18.6152,
      "duration": 0.0001,
      "velocity": 96,
      "chip": "ym2612"
    },
    {
      "channel": 2,
      "note": 62,
      "start": 18.6169,
      "duration": 0.0,
      "velocity": 121,
      "chip": "ym2612"
    },
    {
      "channel": 2,
      "note": 66,
      "start": 18.6221,
      "duration": 0.005,
      "velocity": 121,
      "chip": "ym2612"
    },
    {
      "channel": 1,
      "note": 78,
      "start": 18.6237,
      "duration": 0.0051,
      "velocity": 110,
      "chip": "ym2612"
    },
    {
      "channel": 3,
      "note": 73,
      "start": 18.6253,
      "duration": 0.0018,
      "velocity": 110,
      "chip": "ym2612"
    },
    {
      "channel": 4,
      "note": 78,
      "start": 18.627,
      "duration": 0.0018,
      "velocity": 96,
      "chip": "ym2612"
    },
    {
      "channel": 2,
      "note": 62,
      "start": 18.6287,
      "duration": 0.0001,
      "velocity": 121,
      "chip": "ym2612"
    },
    {
      "channel": 2,
      "note": 64,
      "start": 18.6324,
      "duration": 0.0,
      "velocity": 121,
      "chip": "ym2612"
    },
    {
      "channel": 2,
      "note": 62,
      "start": 18.6341,
      "duration": 0.0,
      "velocity": 121,
      "chip": "ym2612"
    },
    {
      "channel": 2,
      "note": 64,
      "start": 18.6377,
      "duration": 0.0033,
      "velocity": 121,
      "chip": "ym2612"
    },
    {
      "channel": 0,
      "note": 78,
      "start": 18.6391,
      "duration": 0.0017,
      "velocity": 119,
      "chip": "ym2612"
    },
    {
      "channel": 4,
      "note": 78,
      "start": 18.6408,
      "duration": 0.0001,
      "velocity": 96,
      "chip": "ym2612"
    },
    {
      "channel": 2,
      "note": 62,
      "start": 18.6425,
      "duration": 0.0032,
      "velocity": 121,
      "chip": "ym2612"
    },
    {
      "channel": 0,
      "note": 66,
      "start": 18.6439,
      "duration": 0.0018,
      "velocity": 119,
      "chip": "ym2612"
    },
    {
      "channel": 4,
      "note": 66,
      "start": 18.6456,
      "duration": 0.0001,
      "velocity": 96,
      "chip": "ym2612"
    },
    {
      "channel": 2,
      "note": 64,
      "start": 18.6493,
      "duration": 0.0033,
      "velocity": 121,
      "chip": "ym2612"
    },
    {
      "channel": 0,
      "note": 78,
      "start": 18.6507,
      "duration": 0.0017,
      "velocity": 119,
      "chip": "ym2612"
    },
    {
      "channel": 4,
      "note": 78,
      "start": 18.6524,
      "duration": 0.0001,
      "velocity": 96,
      "chip": "ym2612"
    },
    {
      "channel": 2,
      "note": 62,
      "start": 18.6541,
      "duration": 0.0032,
      "velocity": 121,
      "chip": "ym2612"
    },
    {
      "channel": 0,
      "note": 66,
      "start": 18.6555,
      "duration": 0.0018,
      "velocity": 119,
      "chip": "ym2612"
    },
    {
      "channel": 4,
      "note": 66,
      "start": 18.6572,
      "duration": 0.0002,
      "velocity": 96,
      "chip": "ym2612"
    },
    {
      "channel": 2,
      "note": 66,
      "start": 18.6589,
      "duration": 0.0267,
      "velocity": 121,
      "chip": "ym2612"
    },
    {
      "channel": 0,
      "note": 78,
      "start": 18.6604,
      "duration": 0.0084,
      "velocity": 119,
      "chip": "ym2612"
    },
    {
      "channel": 4,
      "note": 78,
      "start": 18.6621,
      "duration": 0.0068,
      "velocity": 96,
      "chip": "ym2612"
    },
    {
      "channel": 2,
      "note": 62,
      "start": 18.6886,
      "duration": 0.0642,
      "velocity": 121,
      "chip": "ym2612"
    },
    {
      "channel": 1,
      "note": 81,
      "start": 18.6914,
      "duration": 0.0611,
      "velocity": 110,
      "chip": "ym2612"
    },
    {
      "channel": 3,
      "note": 78,
      "start": 18.6937,
      "duration": 0.0589,
      "velocity": 110,
      "chip": "ym2612"
    },
    {
      "channel": 5,
      "note": 85,
      "start": 18.6968,
      "duration": 0.0725,
      "velocity": 110,
      "chip": "ym2612"
    },
    {
      "channel": 4,
      "note": 85,
      "start": 18.7001,
      "duration": 0.1026,
      "velocity": 96,
      "chip": "ym2612"
    },
    {
      "channel": 2,
      "note": 64,
      "start": 18.8058,
      "duration": 0.1309,
      "velocity": 121,
      "chip": "ym2612"
    },
    {
      "channel": 2,
      "note": 62,
      "start": 18.9419,
      "duration": 0.0065,
      "velocity": 121,
      "chip": "ym2612"
    },
    {
      "channel": 1,
      "note": 78,
      "start": 18.9434,
      "duration": 0.0049,
      "velocity": 110,
      "chip": "ym2612"
    },
    {
      "channel": 3,
      "note": 81,
      "start": 18.945,
      "duration": 0.0034,
      "velocity": 110,
      "chip": "ym2612"
    },
    {
      "channel": 0,
      "note": 85,
      "start": 18.9465,
      "duration": 0.0018,
      "velocity": 110,
      "chip": "ym2612"
    },
    {
      "channel": 4,
      "note": 85,
      "start": 18.9482,
      "duration": 0.0003,
      "velocity": 96,
      "chip": "ym2612"
    },
    {
      "channel": 2,
      "note": 66,
      "start": 18.9533,
      "duration": 0.0067,
      "velocity": 121,
      "chip": "ym2612"
    },
    {
      "channel": 0,
      "note": 78,
      "start": 18.9548,
      "duration": 0.0051,
      "velocity": 110,
      "chip": "ym2612"
    },
    {
      "channel": 1,
      "note": 84,
      "start": 18.9564,
      "duration": 0.0034,
      "velocity": 110,
      "chip": "ym2612"
    },
    {
      "channel": 3,
      "note": 73,
      "start": 18.958,
      "duration": 0.0018,
      "velocity": 110,
      "chip": "ym2612"
    },
    {
      "channel": 4,
      "note": 84,
      "start": 18.9598,
      "duration": 0.0002,
      "velocity": 96,
      "chip": "ym2612"
    },
    {
      "channel": 2,
      "note": 62,
      "start": 18.9615,
      "duration": 0.0,
      "velocity": 121,
      "chip": "ym2612"
    },
    {
      "channel": 2,
      "note": 64,
      "start": 18.966,
      "duration": 0.0067,
      "velocity": 121,
      "chip": "ym2612"
    },
    {
      "channel": 0,
      "note": 83,
      "start": 18.9676,
      "duration": 0.0051,
      "velocity": 110,
      "chip": "ym2612"
    },
    {
      "channel": 1,
      "note": 78,
      "start": 18.9691,
      "duration": 0.0034,
      "velocity": 110,
      "chip": "ym2612"
    },
    {
      "channel": 3,
      "note": 73,
      "start": 18.9707,
      "duration": 0.0018,
      "velocity": 110,
      "chip": "ym2612"
    },
    {
      "channel": 4,
      "note": 83,
      "start": 18.9725,
      "duration": 0.0002,
      "velocity": 96,
      "chip": "ym2612"
    },
    {
      "channel": 2,
      "note": 62,
      "start": 18.9742,
      "duration": 0.0,
      "velocity": 121,
      "chip": "ym2612"
    },
    {
      "channel": 2,
      "note": 66,
      "start": 18.9778,
      "duration": 0.0065,
      "velocity": 121,
      "chip": "ym2612"
    },
    {
      "channel": 0,
      "note": 78,
      "start": 18.9794,
      "duration": 0.0066,
      "velocity": 110,
      "chip": "ym2612"
    },
    {
      "channel": 1,
      "note": 81,
      "start": 18.981,
      "duration": 0.005,
      "velocity": 110,
      "chip": "ym2612"
    },
    {
      "channel": 3,
      "note": 73,
      "start": 18.9826,
      "duration": 0.0033,
      "velocity": 110,
      "chip": "ym2612"
    },
    {
      "channel": 4,
      "note": 81,
      "start": 18.9843,
      "duration": 0.0018,
      "velocity": 96,
      "chip": "ym2612"
    },
    {
      "channel": 2,
      "note": 62,
      "start": 18.9858,
      "duration": 0.0002,
      "velocity": 121,
      "chip": "ym2612"
    },
    {
      "channel": 2,
      "note": 64,
      "start": 18.9906,
      "duration": 0.0031,
      "velocity": 121,
      "chip": "ym2612"
    },
    {
      "channel": 3,
      "note": 54,
      "start": 18.992,
      "duration": 0.0016,
      "velocity": 99,
      "chip": "ym2612"
    },
    {
      "channel": 0,
      "note": 66,
      "start": 18.9936,
      "duration": 0.0017,
      "velocity": 108,
      "chip": "ym2612"
    },
    {
      "channel": 2,
      "note": 62,
      "start": 18.9952,
      "duration": 0.0,
      "velocity": 121,
      "chip": "ym2612"
    },
    {
      "channel": 2,
      "note": 64,
      "start": 18.9996,
      "duration": 0.0048,
      "velocity": 121,
      "chip": "ym2612"
    },
    {
      "channel": 3,
      "note": 54,
      "start": 19.0012,
      "duration": 0.4276,
      "velocity": 99,
      "chip": "ym2612"
    },
    {
      "channel": 1,
      "note": 78,
      "start": 19.0026,
      "duration": 0.0017,
      "velocity": 119,
      "chip": "ym2612"
    },
    {
      "channel": 0,
      "note": 78,
      "start": 19.0043,
      "duration": 0.0001,
      "velocity": 108,
      "chip": "ym2612"
    },
    {
      "channel": 2,
      "note": 62,
      "start": 19.0059,
      "duration": 0.0031,
      "velocity": 121,
      "chip": "ym2612"
    },
    {
      "channel": 1,
      "note": 66,
      "start": 19.0073,
      "duration": 0.0017,
      "velocity": 119,
      "chip": "ym2612"
    },
    {
      "channel": 0,
      "note": 66,
      "start": 19.009,
      "duration": 0.0002,
      "velocity": 108,
      "chip": "ym2612"
    },
    {
      "channel": 2,
      "note": 64,
      "start": 19.0136,
      "duration": 0.0032,
      "velocity": 121,
      "chip": "ym2612"
    },
    {
      "channel": 1,
      "note": 78,
      "start": 19.0151,
      "duration": 0.0017,
      "velocity": 119,
      "chip": "ym2612"
    },
    {
      "channel": 0,
      "note": 73,
      "start": 19.0167,
      "duration": 0.0,
      "velocity": 108,
      "chip": "ym2612"
    },
    {
      "channel": 2,
      "note": 62,
      "start": 19.0183,
      "duration": 0.0031,
      "velocity": 121,
      "chip": "ym2612"
    },
    {
      "channel": 1,
      "note": 66,
      "start": 19.0198,
      "duration": 0.002,
      "velocity": 119,
      "chip": "ym2612"
    },
    {
      "channel": 0,
      "note": 66,
      "start": 19.0214,
      "duration": 0.0002,
      "velocity": 108,
      "chip": "ym2612"
    },
    {
      "channel": 2,
      "note": 64,
      "start": 19.0232,
      "duration": 0.0269,
      "velocity": 121,
      "chip": "ym2612"
    },
    {
      "channel": 1,
      "note": 78,
      "start": 19.0246,
      "duration": 0.0086,
      "velocity": 119,
      "chip": "ym2612"
    },
    {
      "channel": 0,
      "note": 78,
      "start": 19.0263,
      "duration": 0.0001,
      "velocity": 108,
      "chip": "ym2612"
    },
    {
      "channel": 2,
      "note": 62,
      "start": 19.053,
      "duration": 0.0641,
      "velocity": 121,
      "chip": "ym2612"
    },
    {
      "channel": 4,
      "note": 81,
      "start": 19.0564,
      "duration": 0.0604,
      "velocity": 110,
      "chip": "ym2612"
    },
    {
      "channel": 0,
      "note": 78,
      "start": 19.0589,
      "duration": 0.0066,
      "velocity": 110,
      "chip": "ym2612"
    },
    {
      "channel": 5,
      "note": 85,
      "start": 19.0615,
      "duration": 0.0555,
      "velocity": 110,
      "chip": "ym2612"
    },
    {
      "channel": 1,
      "note": 85,
      "start": 19.0646,
      "duration": 0.0858,
      "velocity": 96,
      "chip": "ym2612"
    },
    {
      "channel": 0,
      "note": 66,
      "start": 19.0674,
      "duration": 0.2334,
      "velocity": 108,
      "chip": "ym2612"
    },
    {
      "channel": 2,
      "note": 64,
      "start": 19.1701,
      "duration": 0.131,
      "velocity": 121,
      "chip": "ym2612"
    },
    {
      "channel": 2,
      "note": 62,
      "start": 19.3044,
      "duration": 0.0469,
      "velocity": 121,
      "chip": "ym2612"
    },
    {
      "channel": 4,
      "note": 78,
      "start": 19.3081,
      "duration": 0.043,
      "velocity": 110,
      "chip": "ym2612"
    },
    {
      "channel": 5,
      "note": 85,
      "start": 19.3105,
      "duration": 0.0407,
      "velocity": 110,
      "chip": "ym2612"
    },
    {
      "channel": 1,
      "note": 81,
      "start": 19.3131,
      "duration": 0.0379,
      "velocity": 110,
      "chip": "ym2612"
    },
    {
      "channel": 0,
      "note": 85,
      "start": 19.3165,
      "duration": 0.001,
      "velocity": 96,
      "chip": "ym2612"
    },
    {
      "channel": 0,
      "note": 73,
      "start": 19.3195,
      "duration": 0.0817,
      "velocity": 108,
      "chip": "ym2612"
    },
    {
      "channel": 2,
      "note": 66,
      "start": 19.4222,
      "duration": 0.0067,
      "velocity": 121,
      "chip": "ym2612"
    },
    {
      "channel": 1,
      "note": 73,
      "start": 19.4238,
      "duration": 0.0051,
      "velocity": 110,
      "chip": "ym2612"
    },
    {
      "channel": 4,
      "note": 83,
      "start": 19.4254,
      "duration": 0.0036,
      "velocity": 110,
      "chip": "ym2612"
    },
    {
      "channel": 0,
      "note": 83,
      "start": 19.4271,
      "duration": 0.0,
      "velocity": 96,
      "chip": "ym2612"
    },
    {
      "channel": 0,
      "note": 66,
      "start": 19.4288,
      "duration": 0.0018,
      "velocity": 108,
      "chip": "ym2612"
    },
    {
      "channel": 2,
      "note": 62,
      "start": 19.4305,
      "duration": 0.0001,
      "velocity": 121,
      "chip": "ym2612"
    },
    {
      "channel": 2,
      "note": 64,
      "start": 19.435,
      "duration": 0.0066,
      "velocity": 121,
      "chip": "ym2612"
    },
    {
      "channel": 1,
      "note": 81,
      "start": 19.4366,
      "duration": 0.0049,
      "velocity": 110,
      "chip": "ym2612"
    },
    {
      "channel": 4,
      "note": 73,
      "start": 19.4382,
      "duration": 0.0034,
      "velocity": 110,
      "chip": "ym2612"
    },
    {
      "channel": 3,
      "note": 81,
      "start": 19.4399,
      "duration": 0.0017,
      "velocity": 96,
      "chip": "ym2612"
    },
    {
      "channel": 0,
      "note": 78,
      "start": 19.4415,
      "duration": 0.0018,
      "velocity": 108,
      "chip": "ym2612"
    },
    {
      "channel": 2,
      "note": 62,
      "start": 19.4432,
      "duration": 0.0,
      "velocity": 121,
      "chip": "ym2612"
    },
    {
      "channel": 2,
      "note": 66,
      "start": 19.4478,
      "duration": 0.0066,
      "velocity": 121,
      "chip": "ym2612"
    },
    {
      "channel": 1,
      "note": 78,
      "start": 19.4494,
      "duration": 0.0066,
      "velocity": 110,
      "chip": "ym2612"
    },
    {
      "channel": 4,
      "note": 73,
      "start": 19.451,
      "duration": 0.0034,
      "velocity": 110,
      "chip": "ym2612"
    },
    {
      "channel": 3,
      "note": 78,
      "start": 19.4527,
      "duration": 0.0034,
      "velocity": 96,
      "chip": "ym2612"
    },
    {
      "channel": 0,
      "note": 66,
      "start": 19.4543,
      "duration": 0.0,
      "velocity": 108,
      "chip": "ym2612"
    },
    {
      "channel": 2,
      "note": 62,
      "start": 19.456,
      "duration": 0.0001,
      "velocity": 121,
      "chip": "ym2612"
    },
    {
      "channel": 2,
      "note": 64,
      "start": 19.4578,
      "duration": 0.1233,
      "velocity": 121,
      "chip": "ym2612"
    },
    {
      "channel": 3,
      "note": 66,
      "start": 19.4595,
      "duration": 0.2386,
      "velocity": 96,
      "chip": "ym2612"
    },
    {
      "channel": 0,
      "note": 71,
      "start": 19.4623,
      "duration": 0.2357,
      "velocity": 108,
      "chip": "ym2612"
    },
    {
      "channel": 2,
      "note": 62,
      "start": 19.5843,
      "duration": 0.0469,
      "velocity": 121,
      "chip": "ym2612"
    },
    {
      "channel": 2,
      "note": 64,
      "start": 19.7012,
      "duration": 0.1141,
      "velocity": 121,
      "chip": "ym2612"
    },
    {
      "channel": 4,
      "note": 78,
      "start": 19.7044,
      "duration": 0.0773,
      "velocity": 119,
      "chip": "ym2612"
    },
    {
      "channel": 3,
      "note": 78,
      "start": 19.7075,
      "duration": 0.0741,
      "velocity": 96,
      "chip": "ym2612"
    },
    {
      "channel": 0,
      "note": 78,
      "start": 19.7101,
      "duration": 0.0882,
      "velocity": 108,
      "chip": "ym2612"
    },
    {
      "channel": 2,
      "note": 62,
      "start": 19.8183,
      "duration": 0.064,
      "velocity": 121,
      "chip": "ym2612"
    },
    {
      "channel": 4,
      "note": 66,
      "start": 19.8209,
      "duration": 0.0948,
      "velocity": 119,
      "chip": "ym2612"
    },
    {
      "channel": 3,
      "note": 66,
      "start": 19.8238,
      "duration": 0.0918,
      "velocity": 96,
      "chip": "ym2612"
    },
    {
      "channel": 0,
      "note": 71,
      "start": 19.8263,
      "duration": 0.1059,
      "velocity": 108,
      "chip": "ym2612"
    },
    {
      "channel": 2,
      "note": 64,
      "start": 19.9354,
      "duration": 0.1309,
      "velocity": 121,
      "chip": "ym2612"
    },
    {
      "channel": 4,
      "note": 78,
      "start": 19.9378,
      "duration": 0.0949,
      "velocity": 119,
      "chip": "ym2612"
    },
    {
      "channel": 3,
      "note": 78,
      "start": 19.9406,
      "duration": 0.092,
      "velocity": 96,
      "chip": "ym2612"
    },
    {
      "channel": 0,
      "note": 83,
      "start": 19.9431,
      "duration": 0.0727,
      "velocity": 108,
      "chip": "ym2612"
    },
    {
      "channel": 2,
      "note": 62,
      "start": 20.0692,
      "duration": 0.0473,
      "velocity": 121,
      "chip": "ym2612"
    },
    {
      "channel": 4,
      "note": 66,
      "start": 20.0718,
      "duration": 0.1115,
      "velocity": 119,
      "chip": "ym2612"
    },
    {
      "channel": 3,
      "note": 66,
      "start": 20.0749,
      "duration": 0.0915,
      "velocity": 96,
      "chip": "ym2612"
    },
    {
      "channel": 0,
      "note": 71,
      "start": 20.0774,
      "duration": 0.0387,
      "velocity": 108,
      "chip": "ym2612"
    },
    {
      "channel": 2,
      "note": 64,
      "start": 20.1864,
      "duration": 0.114,
      "velocity": 121,
      "chip": "ym2612"
    },
    {
      "channel": 4,
      "note": 78,
      "start": 20.1891,
      "duration": 0.0947,
      "velocity": 119,
      "chip": "ym2612"
    },
    {
      "channel": 3,
      "note": 78,
      "start": 20.1919,
      "duration": 0.0917,
      "velocity": 96,
      "chip": "ym2612"
    },
    {
      "channel": 0,
      "note": 78,
      "start": 20.1944,
      "duration": 0.0891,
      "velocity": 108,
      "chip": "ym2612"
    },
    {
      "channel": 2,
      "note": 62,
      "start": 20.3034,
      "duration": 0.0641,
      "velocity": 121,
      "chip": "ym2612"
    },
    {
      "channel": 1,
      "note": 66,
      "start": 20.3061,
      "duration": 0.2592,
      "velocity": 99,
      "chip": "ym2612"
    },
    {
      "channel": 5,
      "note": 78,
      "start": 20.3091,
      "duration": 0.0582,
      "velocity": 110,
      "chip": "ym2612"
    },
    {
      "channel": 0,
      "note": 81,
      "start": 20.3117,
      "duration": 0.0065,
      "velocity": 110,
      "chip": "ym2612"
    },
    {
      "channel": 3,
      "note": 85,
      "start": 20.3142,
      "duration": 0.0698,
      "velocity": 110,
      "chip": "ym2612"
    },
    {
      "channel": 4,
      "note": 85,
      "start": 20.3172,
      "duration": 0.0835,
      "velocity": 96,
      "chip": "ym2612"
    },
    {
      "channel": 0,
      "note": 64,
      "start": 20.3201,
      "duration": 0.001,
      "velocity": 108,
      "chip": "ym2612"
    },
    {
      "channel": 0,
      "note": 66,
      "start": 20.3229,
      "duration": 0.3454,
      "velocity": 122,
      "chip": "ym2612"
    },
    {
      "channel": 2,
      "note": 64,
      "start": 20.4205,
      "duration": 0.1309,
      "velocity": 121,
      "chip": "ym2612"
    },
    {
      "channel": 2,
      "note": 62,
      "start": 20.5546,
      "duration": 0.0471,
      "velocity": 121,
      "chip": "ym2612"
    },
    {
      "channel": 3,
      "note": 78,
      "start": 20.5593,
      "duration": 0.0422,
      "velocity": 110,
      "chip": "ym2612"
    },
    {
      "channel": 5,
      "note": 81,
      "start": 20.5617,
      "duration": 0.0399,
      "velocity": 110,
      "chip": "ym2612"
    },
    {
      "channel": 4,
      "note": 85,
      "start": 20.5644,
      "duration": 0.0084,
      "velocity": 110,
      "chip": "ym2612"
    },
    {
      "channel": 1,
      "note": 85,
      "start": 20.5674,
      "duration": 0.0014,
      "velocity": 96,
      "chip": "ym2612"
    },
    {
      "channel": 1,
      "note": 64,
      "start": 20.5707,
      "duration": 0.0141,
      "velocity": 108,
      "chip": "ym2612"
    },
    {
      "channel": 2,
      "note": 66,
      "start": 20.6715,
      "duration": 0.1143,
      "velocity": 121,
      "chip": "ym2612"
    },
    {
      "channel": 4,
      "note": 64,
      "start": 20.6747,
      "duration": 0.111,
      "velocity": 99,
      "chip": "ym2612"
    },
    {
      "channel": 3,
      "note": 78,
      "start": 20.6775,
      "duration": 0.0914,
      "velocity": 110,
      "chip": "ym2612"
    },
    {
      "channel": 5,
      "note": 84,
      "start": 20.68,
      "duration": 0.089,
      "velocity": 110,
      "chip": "ym2612"
    },
    {
      "channel": 1,
      "note": 84,
      "start": 20.6831,
      "duration": 0.1023,
      "velocity": 96,
      "chip": "ym2612"
    },
    {
      "channel": 0,
      "note": 64,
      "start": 20.686,
      "duration": 0.001,
      "velocity": 108,
      "chip": "ym2612"
    },
    {
      "channel": 0,
      "note": 64,
      "start": 20.6888,
      "duration": 0.0799,
      "velocity": 122,
      "chip": "ym2612"
    },
    {
      "channel": 2,
      "note": 62,
      "start": 20.7887,
      "duration": 0.0639,
      "velocity": 121,
      "chip": "ym2612"
    },
    {
      "channel": 4,
      "note": 61,
      "start": 20.7911,
      "duration": 0.1117,
      "velocity": 99,
      "chip": "ym2612"
    },
    {
      "channel": 0,
      "note": 61,
      "start": 20.794,
      "duration": 0.1085,
      "velocity": 122,
      "chip": "ym2612"
    },
    {
      "channel": 2,
      "note": 64,
      "start": 20.9058,
      "duration": 0.131,
      "velocity": 121,
      "chip": "ym2612"
    },
    {
      "channel": 4,
      "note": 60,
      "start": 20.9083,
      "duration": 0.1284,
      "velocity": 99,
      "chip": "ym2612"
    },
    {
      "channel": 3,
      "note": 78,
      "start": 20.9111,
      "duration": 0.0752,
      "velocity": 110,
      "chip": "ym2612"
    },
    {
      "channel": 5,
      "note": 83,
      "start": 20.9141,
      "duration": 0.0891,
      "velocity": 110,
      "chip": "ym2612"
    },
    {
      "channel": 1,
      "note": 83,
      "start": 20.9167,
      "duration": 0.1198,
      "velocity": 96,
      "chip": "ym2612"
    },
    {
      "channel": 0,
      "note": 60,
      "start": 20.9191,
      "duration": 0.1173,
      "velocity": 122,
      "chip": "ym2612"
    },
    {
      "channel": 2,
      "note": 62,
      "start": 21.0414,
      "duration": 0.0047,
      "velocity": 121,
      "chip": "ym2612"
    },
    {
      "channel": 4,
      "note": 59,
      "start": 21.0429,
      "duration": 0.0033,
      "velocity": 99,
      "chip": "ym2612"
    },
    {
      "channel": 3,
      "note": 64,
      "start": 21.0445,
      "duration": 0.0017,
      "velocity": 108,
      "chip": "ym2612"
    },
    {
      "channel": 0,
      "note": 59,
      "start": 21.0461,
      "duration": 0.0002,
      "velocity": 122,
      "chip": "ym2612"
    },
    {
      "channel": 2,
      "note": 66,
      "start": 21.05,
      "duration": 0.0097,
      "velocity": 121,
      "chip": "ym2612"
    },
    {
      "channel": 4,
      "note": 52,
      "start": 21.0515,
      "duration": 0.0081,
      "velocity": 99,
      "chip": "ym2612"
    },
    {
      "channel": 1,
      "note": 78,
      "start": 21.053,
      "duration": 0.0141,
      "velocity": 110,
      "chip": "ym2612"
    },
    {
      "channel": 3,
      "note": 81,
      "start": 21.0545,
      "duration": 0.0127,
      "velocity": 110,
      "chip": "ym2612"
    },
    {
      "channel": 0,
      "note": 81,
      "start": 21.0562,
      "duration": 0.0,
      "velocity": 96,
      "chip": "ym2612"
    },
    {
      "channel": 0,
      "note": 65,
      "start": 21.0579,
      "duration": 0.0,
      "velocity": 108,
      "chip": "ym2612"
    },
    {
      "channel": 0,
      "note": 52,
      "start": 21.0595,
      "duration": 0.0,
      "velocity": 122,
      "chip": "ym2612"
    },
    {
      "channel": 2,
      "note": 62,
      "start": 21.064,
      "duration": 0.0032,
      "velocity": 121,
      "chip": "ym2612"
    },
    {
      "channel": 4,
      "note": 53,
      "start": 21.0656,
      "duration": 0.0493,
      "velocity": 99,
      "chip": "ym2612"
    },
    {
      "channel": 0,
      "note": 53,
      "start": 21.0671,
      "duration": 0.0476,
      "velocity": 122,
      "chip": "ym2612"
    }
  ]
}