{
  "track_name": "02 - Aviary",
  "duration_sec": 131.959,
  "sample_rate": 44100,
  "note_count": 1670,
  "unique_pitches": 38,
  "pitch_range": 44,
  "avg_note_duration": 0.1613,
  "reconstruction_stats": {
    "notes_reconstructed": 1670,
    "keyon_events": 1670,
    "keyoff_events": 1670,
    "orphan_keyons": 0,
    "unique_pitches": 38,
    "pitch_range": 44,
    "avg_duration_sec": 0.1613
  },
  "metadata": {
    "source": "J\\Jurassic Park - Rampage Edition\\02 - Aviary.vgz"
  },
  "notes": [
    {
      "channel": 3,
      "note": 45,
      "start": 0.058,
      "duration": 0.194,
      "velocity": 115,
      "chip": "ym2612"
    },
    {
      "channel": 1,
      "note": 45,
      "start": 0.0634,
      "duration": 0.1885,
      "velocity": 105,
      "chip": "ym2612"
    },
    {
      "channel": 5,
      "note": 62,
      "start": 0.0704,
      "duration": 0.0315,
      "velocity": 107,
      "chip": "ym2612"
    },
    {
      "channel": 5,
      "note": 62,
      "start": 0.1554,
      "duration": 0.0466,
      "velocity": 107,
      "chip": "ym2612"
    },
    {
      "channel": 3,
      "note": 47,
      "start": 0.2555,
      "duration": 0.1968,
      "velocity": 115,
      "chip": "ym2612"
    },
    {
      "channel": 1,
      "note": 47,
      "start": 0.2585,
      "duration": 0.1937,
      "velocity": 105,
      "chip": "ym2612"
    },
    {
      "channel": 5,
      "note": 62,
      "start": 0.2617,
      "duration": 0.0405,
      "velocity": 107,
      "chip": "ym2612"
    },
    {
      "channel": 5,
      "note": 62,
      "start": 0.3558,
      "duration": 0.0465,
      "velocity": 107,
      "chip": "ym2612"
    },
    {
      "channel": 3,
      "note": 48,
      "start": 0.4558,
      "duration": 0.1968,
      "velocity": 115,
      "chip": "ym2612"
    },
    {
      "channel": 1,
      "note": 48,
      "start": 0.4588,
      "duration": 0.1936,
      "velocity": 105,
      "chip": "ym2612"
    },
    {
      "channel": 4,
      "note": 46,
      "start": 0.4638,
      "duration": 0.0886,
      "velocity": 97,
      "chip": "ym2612"
    },
    {
      "channel": 5,
      "note": 62,
      "start": 0.4675,
      "duration": 0.085,
      "velocity": 107,
      "chip": "ym2612"
    },
    {
      "channel": 4,
      "note": 47,
      "start": 0.5561,
      "duration": 0.0966,
      "velocity": 97,
      "chip": "ym2612"
    },
    {
      "channel": 3,
      "note": 50,
      "start": 0.6561,
      "duration": 0.2134,
      "velocity": 115,
      "chip": "ym2612"
    },
    {
      "channel": 1,
      "note": 50,
      "start": 0.6592,
      "duration": 0.2101,
      "velocity": 105,
      "chip": "ym2612"
    },
    {
      "channel": 4,
      "note": 46,
      "start": 0.6622,
      "duration": 0.0905,
      "velocity": 97,
      "chip": "ym2612"
    },
    {
      "channel": 5,
      "note": 62,
      "start": 0.6654,
      "duration": 0.0874,
      "velocity": 107,
      "chip": "ym2612"
    },
    {
      "channel": 4,
      "note": 47,
      "start": 0.7563,
      "duration": 0.1133,
      "velocity": 97,
      "chip": "ym2612"
    },
    {
      "channel": 3,
      "note": 52,
      "start": 0.873,
      "duration": 0.1967,
      "velocity": 115,
      "chip": "ym2612"
    },
    {
      "channel": 1,
      "note": 52,
      "start": 0.8761,
      "duration": 0.1935,
      "velocity": 105,
      "chip": "ym2612"
    },
    {
      "channel": 4,
      "note": 52,
      "start": 0.8798,
      "duration": 0.19,
      "velocity": 97,
      "chip": "ym2612"
    },
    {
      "channel": 3,
      "note": 51,
      "start": 1.074,
      "duration": 0.5966,
      "velocity": 115,
      "chip": "ym2612"
    },
    {
      "channel": 1,
      "note": 51,
      "start": 1.0774,
      "duration": 0.5931,
      "velocity": 105,
      "chip": "ym2612"
    },
    {
      "channel": 4,
      "note": 46,
      "start": 1.0806,
      "duration": 0.1894,
      "velocity": 97,
      "chip": "ym2612"
    },
    {
      "channel": 5,
      "note": 62,
      "start": 1.0837,
      "duration": 0.0862,
      "velocity": 107,
      "chip": "ym2612"
    },
    {
      "channel": 5,
      "note": 62,
      "start": 1.2736,
      "duration": 0.0965,
      "velocity": 107,
      "chip": "ym2612"
    },
    {
      "channel": 5,
      "note": 62,
      "start": 1.4738,
      "duration": 0.0967,
      "velocity": 107,
      "chip": "ym2612"
    },
    {
      "channel": 5,
      "note": 62,
      "start": 1.6783,
      "duration": 0.0424,
      "velocity": 107,
      "chip": "ym2612"
    },
    {
      "channel": 0,
      "note": 44,
      "start": 1.6831,
      "duration": 0.0873,
      "velocity": 92,
      "chip": "ym2612"
    },
    {
      "channel": 5,
      "note": 62,
      "start": 1.7742,
      "duration": 0.0466,
      "velocity": 107,
      "chip": "ym2612"
    },
    {
      "channel": 0,
      "note": 44,
      "start": 1.7771,
      "duration": 0.0934,
      "velocity": 92,
      "chip": "ym2612"
    },
    {
      "channel": 3,
      "note": 51,
      "start": 1.8745,
      "duration": 0.1966,
      "velocity": 115,
      "chip": "ym2612"
    },
    {
      "channel": 1,
      "note": 51,
      "start": 1.8782,
      "duration": 0.1927,
      "velocity": 105,
      "chip": "ym2612"
    },
    {
      "channel": 5,
      "note": 62,
      "start": 1.8814,
      "duration": 0.0395,
      "velocity": 107,
      "chip": "ym2612"
    },
    {
      "channel": 0,
      "note": 43,
      "start": 1.8844,
      "duration": 0.0863,
      "velocity": 92,
      "chip": "ym2612"
    },
    {
      "channel": 5,
      "note": 62,
      "start": 1.9745,
      "duration": 0.0465,
      "velocity": 107,
      "chip": "ym2612"
    },
    {
      "channel": 4,
      "note": 46,
      "start": 2.0766,
      "duration": 0.0945,
      "velocity": 97,
      "chip": "ym2612"
    },
    {
      "channel": 5,
      "note": 62,
      "start": 2.08,
      "duration": 0.0913,
      "velocity": 107,
      "chip": "ym2612"
    },
    {
      "channel": 4,
      "note": 47,
      "start": 2.1748,
      "duration": 0.0965,
      "velocity": 97,
      "chip": "ym2612"
    },
    {
      "channel": 3,
      "note": 51,
      "start": 2.2747,
      "duration": 0.1969,
      "velocity": 115,
      "chip": "ym2612"
    },
    {
      "channel": 1,
      "note": 51,
      "start": 2.2778,
      "duration": 0.1937,
      "velocity": 105,
      "chip": "ym2612"
    },
    {
      "channel": 4,
      "note": 46,
      "start": 2.2809,
      "duration": 0.0907,
      "velocity": 97,
      "chip": "ym2612"
    },
    {
      "channel": 5,
      "note": 62,
      "start": 2.2844,
      "duration": 0.0873,
      "velocity": 107,
      "chip": "ym2612"
    },
    {
      "channel": 0,
      "note": 44,
      "start": 2.2879,
      "duration": 0.0834,
      "velocity": 92,
      "chip": "ym2612"
    },
    {
      "channel": 4,
      "note": 47,
      "start": 2.3752,
      "duration": 0.0966,
      "velocity": 97,
      "chip": "ym2612"
    },
    {
      "channel": 4,
      "note": 52,
      "start": 2.4761,
      "duration": 0.1958,
      "velocity": 97,
      "chip": "ym2612"
    },
    {
      "channel": 0,
      "note": 43,
      "start": 2.4793,
      "duration": 0.0923,
      "velocity": 92,
      "chip": "ym2612"
    },
    {
      "channel": 3,
      "note": 51,
      "start": 2.6753,
      "duration": 0.1968,
      "velocity": 115,
      "chip": "ym2612"
    },
    {
      "channel": 1,
      "note": 51,
      "start": 2.6783,
      "duration": 0.1937,
      "velocity": 105,
      "chip": "ym2612"
    },
    {
      "channel": 4,
      "note": 46,
      "start": 2.6816,
      "duration": 0.1907,
      "velocity": 97,
      "chip": "ym2612"
    },
    {
      "channel": 5,
      "note": 62,
      "start": 2.6847,
      "duration": 0.0873,
      "velocity": 107,
      "chip": "ym2612"
    },
    {
      "channel": 5,
      "note": 62,
      "start": 2.8759,
      "duration": 0.0963,
      "velocity": 107,
      "chip": "ym2612"
    },
    {
      "channel": 3,
      "note": 51,
      "start": 2.9793,
      "duration": 0.0749,
      "velocity": 115,
      "chip": "ym2612"
    },
    {
      "channel": 1,
      "note": 51,
      "start": 2.9815,
      "duration": 0.0725,
      "velocity": 105,
      "chip": "ym2612"
    },
    {
      "channel": 2,
      "note": 62,
      "start": 2.9834,
      "duration": 0.0,
      "velocity": 107,
      "chip": "ym2612"
    },
    {
      "channel": 3,
      "note": 45,
      "start": 3.0576,
      "duration": 0.1967,
      "velocity": 115,
      "chip": "ym2612"
    },
    {
      "channel": 1,
      "note": 45,
      "start": 3.0607,
      "duration": 0.1935,
      "velocity": 105,
      "chip": "ym2612"
    },
    {
      "channel": 2,
      "note": 62,
      "start": 3.0679,
      "duration": 0.0363,
      "velocity": 107,
      "chip": "ym2612"
    },
    {
      "channel": 2,
      "note": 62,
      "start": 3.1579,
      "duration": 0.0465,
      "velocity": 107,
      "chip": "ym2612"
    },
    {
      "channel": 3,
      "note": 47,
      "start": 3.2578,
      "duration": 0.1968,
      "velocity": 115,
      "chip": "ym2612"
    },
    {
      "channel": 1,
      "note": 47,
      "start": 3.2609,
      "duration": 0.1936,
      "velocity": 105,
      "chip": "ym2612"
    },
    {
      "channel": 2,
      "note": 62,
      "start": 3.2641,
      "duration": 0.0404,
      "velocity": 107,
      "chip": "ym2612"
    },
    {
      "channel": 2,
      "note": 62,
      "start": 3.3582,
      "duration": 0.0465,
      "velocity": 107,
      "chip": "ym2612"
    },
    {
      "channel": 3,
      "note": 48,
      "start": 3.4581,
      "duration": 0.1968,
      "velocity": 115,
      "chip": "ym2612"
    },
    {
      "channel": 1,
      "note": 48,
      "start": 3.4612,
      "duration": 0.1936,
      "velocity": 105,
      "chip": "ym2612"
    },
    {
      "channel": 4,
      "note": 46,
      "start": 3.4662,
      "duration": 0.0886,
      "velocity": 97,
      "chip": "ym2612"
    },
    {
      "channel": 2,
      "note": 62,
      "start": 3.4696,
      "duration": 0.0854,
      "velocity": 107,
      "chip": "ym2612"
    },
    {
      "channel": 4,
      "note": 47,
      "start": 3.5585,
      "duration": 0.0966,
      "velocity": 97,
      "chip": "ym2612"
    },
    {
      "channel": 3,
      "note": 50,
      "start": 3.6585,
      "duration": 0.1967,
      "velocity": 115,
      "chip": "ym2612"
    },
    {
      "channel": 1,
      "note": 50,
      "start": 3.6616,
      "duration": 0.1935,
      "velocity": 105,
      "chip": "ym2612"
    },
    {
      "channel": 4,
      "note": 46,
      "start": 3.6646,
      "duration": 0.0904,
      "velocity": 97,
      "chip": "ym2612"
    },
    {
      "channel": 2,
      "note": 62,
      "start": 3.6683,
      "duration": 0.087,
      "velocity": 107,
      "chip": "ym2612"
    },
    {
      "channel": 4,
      "note": 47,
      "start": 3.7587,
      "duration": 0.0966,
      "velocity": 97,
      "chip": "ym2612"
    },
    {
      "channel": 3,
      "note": 52,
      "start": 3.8587,
      "duration": 0.1968,
      "velocity": 115,
      "chip": "ym2612"
    },
    {
      "channel": 1,
      "note": 52,
      "start": 3.8618,
      "duration": 0.1936,
      "velocity": 105,
      "chip": "ym2612"
    },
    {
      "channel": 4,
      "note": 52,
      "start": 3.8656,
      "duration": 0.1901,
      "velocity": 97,
      "chip": "ym2612"
    },
    {
      "channel": 3,
      "note": 51,
      "start": 4.0598,
      "duration": 0.5964,
      "velocity": 115,
      "chip": "ym2612"
    },
    {
      "channel": 1,
      "note": 51,
      "start": 4.0632,
      "duration": 0.5929,
      "velocity": 105,
      "chip": "ym2612"
    },
    {
      "channel": 4,
      "note": 46,
      "start": 4.0664,
      "duration": 0.1894,
      "velocity": 97,
      "chip": "ym2612"
    },
    {
      "channel": 2,
      "note": 62,
      "start": 4.0696,
      "duration": 0.0861,
      "velocity": 107,
      "chip": "ym2612"
    },
    {
      "channel": 2,
      "note": 62,
      "start": 4.2595,
      "duration": 0.0965,
      "velocity": 107,
      "chip": "ym2612"
    },
    {
      "channel": 2,
      "note": 62,
      "start": 4.4596,
      "duration": 0.0966,
      "velocity": 107,
      "chip": "ym2612"
    },
    {
      "channel": 2,
      "note": 62,
      "start": 4.664,
      "duration": 0.0424,
      "velocity": 107,
      "chip": "ym2612"
    },
    {
      "channel": 0,
      "note": 45,
      "start": 4.6671,
      "duration": 0.0892,
      "velocity": 92,
      "chip": "ym2612"
    },
    {
      "channel": 2,
      "note": 62,
      "start": 4.7601,
      "duration": 0.0463,
      "velocity": 107,
      "chip": "ym2612"
    },
    {
      "channel": 0,
      "note": 45,
      "start": 4.763,
      "duration": 0.11,
      "velocity": 92,
      "chip": "ym2612"
    },
    {
      "channel": 3,
      "note": 51,
      "start": 4.8769,
      "duration": 0.1966,
      "velocity": 115,
      "chip": "ym2612"
    },
    {
      "channel": 1,
      "note": 51,
      "start": 4.8807,
      "duration": 0.1926,
      "velocity": 105,
      "chip": "ym2612"
    },
    {
      "channel": 2,
      "note": 62,
      "start": 4.8839,
      "duration": 0.0395,
      "velocity": 107,
      "chip": "ym2612"
    },
    {
      "channel": 0,
      "note": 46,
      "start": 4.8869,
      "duration": 0.0862,
      "velocity": 92,
      "chip": "ym2612"
    },
    {
      "channel": 2,
      "note": 62,
      "start": 4.977,
      "duration": 0.0464,
      "velocity": 107,
      "chip": "ym2612"
    },
    {
      "channel": 4,
      "note": 46,
      "start": 5.079,
      "duration": 0.0945,
      "velocity": 97,
      "chip": "ym2612"
    },
    {
      "channel": 2,
      "note": 62,
      "start": 5.0824,
      "duration": 0.0912,
      "velocity": 107,
      "chip": "ym2612"
    },
    {
      "channel": 4,
      "note": 47,
      "start": 5.1772,
      "duration": 0.0965,
      "velocity": 97,
      "chip": "ym2612"
    },
    {
      "channel": 3,
      "note": 51,
      "start": 5.2771,
      "duration": 0.1968,
      "velocity": 115,
      "chip": "ym2612"
    },
    {
      "channel": 1,
      "note": 51,
      "start": 5.2802,
      "duration": 0.1936,
      "velocity": 105,
      "chip": "ym2612"
    },
    {
      "channel": 4,
      "note": 46,
      "start": 5.2832,
      "duration": 0.0907,
      "velocity": 97,
      "chip": "ym2612"
    },
    {
      "channel": 2,
      "note": 62,
      "start": 5.2868,
      "duration": 0.0872,
      "velocity": 107,
      "chip": "ym2612"
    },
    {
      "channel": 0,
      "note": 45,
      "start": 5.2899,
      "duration": 0.0837,
      "velocity": 92,
      "chip": "ym2612"
    },
    {
      "channel": 4,
      "note": 47,
      "start": 5.3775,
      "duration": 0.0965,
      "velocity": 97,
      "chip": "ym2612"
    },
    {
      "channel": 4,
      "note": 52,
      "start": 5.4783,
      "duration": 0.1958,
      "velocity": 97,
      "chip": "ym2612"
    },
    {
      "channel": 0,
      "note": 46,
      "start": 5.4816,
      "duration": 0.0922,
      "velocity": 92,
      "chip": "ym2612"
    },
    {
      "channel": 3,
      "note": 51,
      "start": 5.6776,
      "duration": 0.1969,
      "velocity": 115,
      "chip": "ym2612"
    },
    {
      "channel": 1,
      "note": 51,
      "start": 5.6806,
      "duration": 0.1937,
      "velocity": 105,
      "chip": "ym2612"
    },
    {
      "channel": 4,
      "note": 46,
      "start": 5.6838,
      "duration": 0.1908,
      "velocity": 97,
      "chip": "ym2612"
    },
    {
      "channel": 2,
      "note": 62,
      "start": 5.6871,
      "duration": 0.0873,
      "velocity": 107,
      "chip": "ym2612"
    },
    {
      "channel": 2,
      "note": 62,
      "start": 5.8784,
      "duration": 0.0962,
      "velocity": 107,
      "chip": "ym2612"
    },
    {
      "channel": 3,
      "note": 51,
      "start": 6.0782,
      "duration": 0.1839,
      "velocity": 115,
      "chip": "ym2612"
    },
    {
      "channel": 1,
      "note": 51,
      "start": 6.0815,
      "duration": 0.1806,
      "velocity": 105,
      "chip": "ym2612"
    },
    {
      "channel": 2,
      "note": 62,
      "start": 6.0846,
      "duration": 0.0902,
      "velocity": 107,
      "chip": "ym2612"
    },
    {
      "channel": 3,
      "note": 45,
      "start": 6.2643,
      "duration": 0.0059,
      "velocity": 115,
      "chip": "ym2612"
    },
    {
      "channel": 1,
      "note": 45,
      "start": 6.2665,
      "duration": 0.0036,
      "velocity": 105,
      "chip": "ym2612"
    },
    {
      "channel": 2,
      "note": 62,
      "start": 6.2682,
      "duration": 0.0,
      "velocity": 107,
      "chip": "ym2612"
    },
    {
      "channel": 2,
      "note": 62,
      "start": 6.27,
      "duration": 0.0,
      "velocity": 107,
      "chip": "ym2612"
    },
    {
      "channel": 3,
      "note": 47,
      "start": 6.2724,
      "duration": 0.1842,
      "velocity": 115,
      "chip": "ym2612"
    },
    {
      "channel": 1,
      "note": 47,
      "start": 6.2745,
      "duration": 0.1819,
      "velocity": 105,
      "chip": "ym2612"
    },
    {
      "channel": 2,
      "note": 62,
      "start": 6.2763,
      "duration": 0.0302,
      "velocity": 107,
      "chip": "ym2612"
    },
    {
      "channel": 2,
      "note": 62,
      "start": 6.36,
      "duration": 0.0465,
      "velocity": 107,
      "chip": "ym2612"
    },
    {
      "channel": 3,
      "note": 48,
      "start": 6.46,
      "duration": 0.1968,
      "velocity": 115,
      "chip": "ym2612"
    },
    {
      "channel": 1,
      "note": 48,
      "start": 6.4631,
      "duration": 0.1936,
      "velocity": 105,
      "chip": "ym2612"
    },
    {
      "channel": 4,
      "note": 46,
      "start": 6.4681,
      "duration": 0.0886,
      "velocity": 97,
      "chip": "ym2612"
    },
    {
      "channel": 2,
      "note": 62,
      "start": 6.4715,
      "duration": 0.0854,
      "velocity": 107,
      "chip": "ym2612"
    },
    {
      "channel": 4,
      "note": 47,
      "start": 6.5603,
      "duration": 0.0966,
      "velocity": 97,
      "chip": "ym2612"
    },
    {
      "channel": 3,
      "note": 50,
      "start": 6.6604,
      "duration": 0.1967,
      "velocity": 115,
      "chip": "ym2612"
    },
    {
      "channel": 1,
      "note": 50,
      "start": 6.6635,
      "duration": 0.1934,
      "velocity": 105,
      "chip": "ym2612"
    },
    {
      "channel": 4,
      "note": 46,
      "start": 6.6665,
      "duration": 0.0904,
      "velocity": 97,
      "chip": "ym2612"
    },
    {
      "channel": 2,
      "note": 62,
      "start": 6.6701,
      "duration": 0.0869,
      "velocity": 107,
      "chip": "ym2612"
    },
    {
      "channel": 4,
      "note": 47,
      "start": 6.7605,
      "duration": 0.0966,
      "velocity": 97,
      "chip": "ym2612"
    },
    {
      "channel": 3,
      "note": 52,
      "start": 6.8606,
      "duration": 0.1967,
      "velocity": 115,
      "chip": "ym2612"
    },
    {
      "channel": 1,
      "note": 52,
      "start": 6.8637,
      "duration": 0.1934,
      "velocity": 105,
      "chip": "ym2612"
    },
    {
      "channel": 4,
      "note": 52,
      "start": 6.8674,
      "duration": 0.19,
      "velocity": 97,
      "chip": "ym2612"
    },
    {
      "channel": 3,
      "note": 51,
      "start": 7.0611,
      "duration": 0.597,
      "velocity": 115,
      "chip": "ym2612"
    },
    {
      "channel": 1,
      "note": 51,
      "start": 7.0645,
      "duration": 0.5935,
      "velocity": 105,
      "chip": "ym2612"
    },
    {
      "channel": 4,
      "note": 46,
      "start": 7.0677,
      "duration": 0.1898,
      "velocity": 97,
      "chip": "ym2612"
    },
    {
      "channel": 2,
      "note": 62,
      "start": 7.0709,
      "duration": 0.0866,
      "velocity": 107,
      "chip": "ym2612"
    },
    {
      "channel": 2,
      "note": 62,
      "start": 7.2612,
      "duration": 0.0966,
      "velocity": 107,
      "chip": "ym2612"
    },
    {
      "channel": 2,
      "note": 62,
      "start": 7.4614,
      "duration": 0.0966,
      "velocity": 107,
      "chip": "ym2612"
    },
    {
      "channel": 2,
      "note": 62,
      "start": 7.6659,
      "duration": 0.0424,
      "velocity": 107,
      "chip": "ym2612"
    },
    {
      "channel": 0,
      "note": 44,
      "start": 7.669,
      "duration": 0.0891,
      "velocity": 92,
      "chip": "ym2612"
    },
    {
      "channel": 2,
      "note": 62,
      "start": 7.7619,
      "duration": 0.0465,
      "velocity": 107,
      "chip": "ym2612"
    },
    {
      "channel": 0,
      "note": 44,
      "start": 7.7652,
      "duration": 0.093,
      "velocity": 92,
      "chip": "ym2612"
    },
    {
      "channel": 3,
      "note": 51,
      "start": 7.8625,
      "duration": 0.1961,
      "velocity": 115,
      "chip": "ym2612"
    },
    {
      "channel": 1,
      "note": 51,
      "start": 7.8663,
      "duration": 0.1922,
      "velocity": 105,
      "chip": "ym2612"
    },
    {
      "channel": 2,
      "note": 62,
      "start": 7.8695,
      "duration": 0.039,
      "velocity": 107,
      "chip": "ym2612"
    },
    {
      "channel": 0,
      "note": 43,
      "start": 7.8725,
      "duration": 0.0857,
      "velocity": 92,
      "chip": "ym2612"
    },
    {
      "channel": 2,
      "note": 62,
      "start": 7.9622,
      "duration": 0.0464,
      "velocity": 107,
      "chip": "ym2612"
    },
    {
      "channel": 4,
      "note": 46,
      "start": 8.0642,
      "duration": 0.0945,
      "velocity": 97,
      "chip": "ym2612"
    },
    {
      "channel": 2,
      "note": 62,
      "start": 8.0676,
      "duration": 0.0912,
      "velocity": 107,
      "chip": "ym2612"
    },
    {
      "channel": 4,
      "note": 47,
      "start": 8.1623,
      "duration": 0.0965,
      "velocity": 97,
      "chip": "ym2612"
    },
    {
      "channel": 3,
      "note": 51,
      "start": 8.2623,
      "duration": 0.1969,
      "velocity": 115,
      "chip": "ym2612"
    },
    {
      "channel": 1,
      "note": 51,
      "start": 8.2654,
      "duration": 0.1937,
      "velocity": 105,
      "chip": "ym2612"
    },
    {
      "channel": 4,
      "note": 46,
      "start": 8.2684,
      "duration": 0.0906,
      "velocity": 97,
      "chip": "ym2612"
    },
    {
      "channel": 2,
      "note": 62,
      "start": 8.272,
      "duration": 0.0872,
      "velocity": 107,
      "chip": "ym2612"
    },
    {
      "channel": 0,
      "note": 44,
      "start": 8.2751,
      "duration": 0.0837,
      "velocity": 92,
      "chip": "ym2612"
    },
    {
      "channel": 4,
      "note": 47,
      "start": 8.3627,
      "duration": 0.0966,
      "velocity": 97,
      "chip": "ym2612"
    },
    {
      "channel": 4,
      "note": 52,
      "start": 8.4636,
      "duration": 0.1664,
      "velocity": 97,
      "chip": "ym2612"
    },
    {
      "channel": 0,
      "note": 43,
      "start": 8.4669,
      "duration": 0.0921,
      "velocity": 92,
      "chip": "ym2612"
    },
    {
      "channel": 3,
      "note": 51,
      "start": 8.6322,
      "duration": 0.0059,
      "velocity": 115,
      "chip": "ym2612"
    },
    {
      "channel": 1,
      "note": 51,
      "start": 8.6344,
      "duration": 0.0036,
      "velocity": 105,
      "chip": "ym2612"
    },
    {
      "channel": 4,
      "note": 46,
      "start": 8.6361,
      "duration": 0.0019,
      "velocity": 97,
      "chip": "ym2612"
    },
    {
      "channel": 2,
      "note": 62,
      "start": 8.6379,
      "duration": 0.0,
      "velocity": 107,
      "chip": "ym2612"
    },
    {
      "channel": 2,
      "note": 62,
      "start": 8.6398,
      "duration": 0.0,
      "velocity": 107,
      "chip": "ym2612"
    },
    {
      "channel": 3,
      "note": 51,
      "start": 8.642,
      "duration": 0.1786,
      "velocity": 115,
      "chip": "ym2612"
    },
    {
      "channel": 1,
      "note": 51,
      "start": 8.6442,
      "duration": 0.1763,
      "velocity": 105,
      "chip": "ym2612"
    },
    {
      "channel": 2,
      "note": 62,
      "start": 8.646,
      "duration": 0.0746,
      "velocity": 107,
      "chip": "ym2612"
    },
    {
      "channel": 3,
      "note": 45,
      "start": 8.8241,
      "duration": 0.1967,
      "velocity": 115,
      "chip": "ym2612"
    },
    {
      "channel": 1,
      "note": 45,
      "start": 8.8272,
      "duration": 0.1935,
      "velocity": 105,
      "chip": "ym2612"
    },
    {
      "channel": 2,
      "note": 62,
      "start": 8.8344,
      "duration": 0.0363,
      "velocity": 107,
      "chip": "ym2612"
    },
    {
      "channel": 2,
      "note": 62,
      "start": 8.9244,
      "duration": 0.0465,
      "velocity": 107,
      "chip": "ym2612"
    },
    {
      "channel": 3,
      "note": 47,
      "start": 9.0244,
      "duration": 0.167,
      "velocity": 115,
      "chip": "ym2612"
    },
    {
      "channel": 1,
      "note": 47,
      "start": 9.0274,
      "duration": 0.1639,
      "velocity": 105,
      "chip": "ym2612"
    },
    {
      "channel": 2,
      "note": 62,
      "start": 9.0306,
      "duration": 0.0404,
      "velocity": 107,
      "chip": "ym2612"
    },
    {
      "channel": 2,
      "note": 62,
      "start": 9.1246,
      "duration": 0.0465,
      "velocity": 107,
      "chip": "ym2612"
    },
    {
      "channel": 3,
      "note": 48,
      "start": 9.1935,
      "duration": 0.0078,
      "velocity": 115,
      "chip": "ym2612"
    },
    {
      "channel": 1,
      "note": 48,
      "start": 9.1957,
      "duration": 0.0055,
      "velocity": 105,
      "chip": "ym2612"
    },
    {
      "channel": 4,
      "note": 46,
      "start": 9.1975,
      "duration": 0.0018,
      "velocity": 97,
      "chip": "ym2612"
    },
    {
      "channel": 2,
      "note": 62,
      "start": 9.1992,
      "duration": 0.0001,
      "velocity": 107,
      "chip": "ym2612"
    },
    {
      "channel": 4,
      "note": 47,
      "start": 9.2012,
      "duration": 0.0002,
      "velocity": 97,
      "chip": "ym2612"
    },
    {
      "channel": 3,
      "note": 50,
      "start": 9.2035,
      "duration": 0.0077,
      "velocity": 115,
      "chip": "ym2612"
    },
    {
      "channel": 1,
      "note": 50,
      "start": 9.2057,
      "duration": 0.0055,
      "velocity": 105,
      "chip": "ym2612"
    },
    {
      "channel": 4,
      "note": 46,
      "start": 9.2075,
      "duration": 0.0018,
      "velocity": 97,
      "chip": "ym2612"
    },
    {
      "channel": 2,
      "note": 62,
      "start": 9.2092,
      "duration": 0.0001,
      "velocity": 107,
      "chip": "ym2612"
    },
    {
      "channel": 4,
      "note": 47,
      "start": 9.2112,
      "duration": 0.0001,
      "velocity": 97,
      "chip": "ym2612"
    },
    {
      "channel": 3,
      "note": 52,
      "start": 9.2135,
      "duration": 0.1521,
      "velocity": 115,
      "chip": "ym2612"
    },
    {
      "channel": 1,
      "note": 52,
      "start": 9.2156,
      "duration": 0.1498,
      "velocity": 105,
      "chip": "ym2612"
    },
    {
      "channel": 4,
      "note": 52,
      "start": 9.2174,
      "duration": 0.1482,
      "velocity": 97,
      "chip": "ym2612"
    },
    {
      "channel": 3,
      "note": 51,
      "start": 9.3694,
      "duration": 0.597,
      "velocity": 115,
      "chip": "ym2612"
    },
    {
      "channel": 1,
      "note": 51,
      "start": 9.3728,
      "duration": 0.5935,
      "velocity": 105,
      "chip": "ym2612"
    },
    {
      "channel": 4,
      "note": 46,
      "start": 9.376,
      "duration": 0.1898,
      "velocity": 97,
      "chip": "ym2612"
    },
    {
      "channel": 2,
      "note": 62,
      "start": 9.3792,
      "duration": 0.0866,
      "velocity": 107,
      "chip": "ym2612"
    },
    {
      "channel": 2,
      "note": 62,
      "start": 9.5695,
      "duration": 0.0965,
      "velocity": 107,
      "chip": "ym2612"
    },
    {
      "channel": 2,
      "note": 62,
      "start": 9.7697,
      "duration": 0.0966,
      "velocity": 107,
      "chip": "ym2612"
    },
    {
      "channel": 2,
      "note": 62,
      "start": 9.9742,
      "duration": 0.0422,
      "velocity": 107,
      "chip": "ym2612"
    },
    {
      "channel": 0,
      "note": 45,
      "start": 9.9772,
      "duration": 0.089,
      "velocity": 92,
      "chip": "ym2612"
    },
    {
      "channel": 2,
      "note": 62,
      "start": 10.0702,
      "duration": 0.0463,
      "velocity": 107,
      "chip": "ym2612"
    },
    {
      "channel": 0,
      "note": 45,
      "start": 10.0731,
      "duration": 0.0933,
      "velocity": 92,
      "chip": "ym2612"
    },
    {
      "channel": 3,
      "note": 51,
      "start": 10.1707,
      "duration": 0.1961,
      "velocity": 115,
      "chip": "ym2612"
    },
    {
      "channel": 1,
      "note": 51,
      "start": 10.174,
      "duration": 0.1926,
      "velocity": 105,
      "chip": "ym2612"
    },
    {
      "channel": 2,
      "note": 62,
      "start": 10.1773,
      "duration": 0.0395,
      "velocity": 107,
      "chip": "ym2612"
    },
    {
      "channel": 0,
      "note": 46,
      "start": 10.1803,
      "duration": 0.0862,
      "velocity": 92,
      "chip": "ym2612"
    },
    {
      "channel": 2,
      "note": 62,
      "start": 10.2704,
      "duration": 0.0465,
      "velocity": 107,
      "chip": "ym2612"
    },
    {
      "channel": 4,
      "note": 46,
      "start": 10.3724,
      "duration": 0.0946,
      "velocity": 97,
      "chip": "ym2612"
    },
    {
      "channel": 2,
      "note": 62,
      "start": 10.3758,
      "duration": 0.0914,
      "velocity": 107,
      "chip": "ym2612"
    },
    {
      "channel": 4,
      "note": 47,
      "start": 10.4707,
      "duration": 0.0964,
      "velocity": 97,
      "chip": "ym2612"
    },
    {
      "channel": 3,
      "note": 51,
      "start": 10.5705,
      "duration": 0.1969,
      "velocity": 115,
      "chip": "ym2612"
    },
    {
      "channel": 1,
      "note": 51,
      "start": 10.5739,
      "duration": 0.1933,
      "velocity": 105,
      "chip": "ym2612"
    },
    {
      "channel": 4,
      "note": 46,
      "start": 10.577,
      "duration": 0.0903,
      "velocity": 97,
      "chip": "ym2612"
    },
    {
      "channel": 2,
      "note": 62,
      "start": 10.5806,
      "duration": 0.0869,
      "velocity": 107,
      "chip": "ym2612"
    },
    {
      "channel": 0,
      "note": 45,
      "start": 10.5837,
      "duration": 0.0834,
      "velocity": 92,
      "chip": "ym2612"
    },
    {
      "channel": 4,
      "note": 47,
      "start": 10.671,
      "duration": 0.0965,
      "velocity": 97,
      "chip": "ym2612"
    },
    {
      "channel": 4,
      "note": 52,
      "start": 10.7717,
      "duration": 0.1958,
      "velocity": 97,
      "chip": "ym2612"
    },
    {
      "channel": 0,
      "note": 46,
      "start": 10.7753,
      "duration": 0.092,
      "velocity": 92,
      "chip": "ym2612"
    },
    {
      "channel": 3,
      "note": 51,
      "start": 10.971,
      "duration": 0.197,
      "velocity": 115,
      "chip": "ym2612"
    },
    {
      "channel": 1,
      "note": 51,
      "start": 10.974,
      "duration": 0.1937,
      "velocity": 105,
      "chip": "ym2612"
    },
    {
      "channel": 4,
      "note": 46,
      "start": 10.9772,
      "duration": 0.1908,
      "velocity": 97,
      "chip": "ym2612"
    },
    {
      "channel": 2,
      "note": 62,
      "start": 10.9805,
      "duration": 0.0873,
      "velocity": 107,
      "chip": "ym2612"
    },
    {
      "channel": 2,
      "note": 62,
      "start": 11.1718,
      "duration": 0.0962,
      "velocity": 107,
      "chip": "ym2612"
    },
    {
      "channel": 3,
      "note": 51,
      "start": 11.3716,
      "duration": 0.1968,
      "velocity": 115,
      "chip": "ym2612"
    },
    {
      "channel": 1,
      "note": 51,
      "start": 11.3749,
      "duration": 0.1934,
      "velocity": 105,
      "chip": "ym2612"
    },
    {
      "channel": 2,
      "note": 62,
      "start": 11.378,
      "duration": 0.0902,
      "velocity": 107,
      "chip": "ym2612"
    },
    {
      "channel": 3,
      "note": 49,
      "start": 11.5719,
      "duration": 0.1969,
      "velocity": 115,
      "chip": "ym2612"
    },
    {
      "channel": 1,
      "note": 45,
      "start": 11.5749,
      "duration": 0.1937,
      "velocity": 105,
      "chip": "ym2612"
    },
    {
      "channel": 2,
      "note": 62,
      "start": 11.5822,
      "duration": 0.0363,
      "velocity": 107,
      "chip": "ym2612"
    },
    {
      "channel": 0,
      "note": 45,
      "start": 11.5854,
      "duration": 0.1831,
      "velocity": 92,
      "chip": "ym2612"
    },
    {
      "channel": 2,
      "note": 62,
      "start": 11.6722,
      "duration": 0.0466,
      "velocity": 107,
      "chip": "ym2612"
    },
    {
      "channel": 3,
      "note": 49,
      "start": 11.7722,
      "duration": 0.1967,
      "velocity": 115,
      "chip": "ym2612"
    },
    {
      "channel": 1,
      "note": 47,
      "start": 11.7753,
      "duration": 0.1935,
      "velocity": 105,
      "chip": "ym2612"
    },
    {
      "channel": 2,
      "note": 62,
      "start": 11.7785,
      "duration": 0.0403,
      "velocity": 107,
      "chip": "ym2612"
    },
    {
      "channel": 0,
      "note": 47,
      "start": 11.7814,
      "duration": 0.1873,
      "velocity": 92,
      "chip": "ym2612"
    },
    {
      "channel": 2,
      "note": 62,
      "start": 11.8724,
      "duration": 0.0466,
      "velocity": 107,
      "chip": "ym2612"
    },
    {
      "channel": 3,
      "note": 49,
      "start": 11.9724,
      "duration": 0.1047,
      "velocity": 115,
      "chip": "ym2612"
    },
    {
      "channel": 1,
      "note": 48,
      "start": 11.9755,
      "duration": 0.1016,
      "velocity": 105,
      "chip": "ym2612"
    },
    {
      "channel": 4,
      "note": 46,
      "start": 11.9805,
      "duration": 0.0885,
      "velocity": 97,
      "chip": "ym2612"
    },
    {
      "channel": 2,
      "note": 62,
      "start": 11.9839,
      "duration": 0.0853,
      "velocity": 107,
      "chip": "ym2612"
    },
    {
      "channel": 0,
      "note": 48,
      "start": 11.9868,
      "duration": 0.0902,
      "velocity": 92,
      "chip": "ym2612"
    },
    {
      "channel": 4,
      "note": 47,
      "start": 12.0726,
      "duration": 0.0046,
      "velocity": 97,
      "chip": "ym2612"
    },
    {
      "channel": 3,
      "note": 49,
      "start": 12.0794,
      "duration": 0.088,
      "velocity": 115,
      "chip": "ym2612"
    },
    {
      "channel": 1,
      "note": 50,
      "start": 12.0816,
      "duration": 0.0856,
      "velocity": 105,
      "chip": "ym2612"
    },
    {
      "channel": 4,
      "note": 46,
      "start": 12.0834,
      "duration": 0.0035,
      "velocity": 97,
      "chip": "ym2612"
    },
    {
      "channel": 2,
      "note": 62,
      "start": 12.0851,
      "duration": 0.0018,
      "velocity": 107,
      "chip": "ym2612"
    },
    {
      "channel": 0,
      "note": 50,
      "start": 12.0868,
      "duration": 0.0803,
      "velocity": 92,
      "chip": "ym2612"
    },
    {
      "channel": 4,
      "note": 47,
      "start": 12.0887,
      "duration": 0.0788,
      "velocity": 97,
      "chip": "ym2612"
    },
    {
      "channel": 3,
      "note": 49,
      "start": 12.1709,
      "duration": 0.1968,
      "velocity": 115,
      "chip": "ym2612"
    },
    {
      "channel": 1,
      "note": 52,
      "start": 12.174,
      "duration": 0.1936,
      "velocity": 105,
      "chip": "ym2612"
    },
    {
      "channel": 4,
      "note": 52,
      "start": 12.1777,
      "duration": 0.1901,
      "velocity": 97,
      "chip": "ym2612"
    },
    {
      "channel": 0,
      "note": 52,
      "start": 12.1807,
      "duration": 0.1867,
      "velocity": 92,
      "chip": "ym2612"
    },
    {
      "channel": 3,
      "note": 49,
      "start": 12.3713,
      "duration": 0.1964,
      "velocity": 115,
      "chip": "ym2612"
    },
    {
      "channel": 1,
      "note": 51,
      "start": 12.3746,
      "duration": 0.5936,
      "velocity": 105,
      "chip": "ym2612"
    },
    {
      "channel": 4,
      "note": 46,
      "start": 12.3778,
      "duration": 0.19,
      "velocity": 97,
      "chip": "ym2612"
    },
    {
      "channel": 2,
      "note": 62,
      "start": 12.3811,
      "duration": 0.0868,
      "velocity": 107,
      "chip": "ym2612"
    },
    {
      "channel": 0,
      "note": 51,
      "start": 12.3843,
      "duration": 0.5838,
      "velocity": 92,
      "chip": "ym2612"
    },
    {
      "channel": 3,
      "note": 52,
      "start": 12.5712,
      "duration": 0.1968,
      "velocity": 115,
      "chip": "ym2612"
    },
    {
      "channel": 2,
      "note": 62,
      "start": 12.5745,
      "duration": 0.0935,
      "velocity": 107,
      "chip": "ym2612"
    },
    {
      "channel": 3,
      "note": 47,
      "start": 12.7715,
      "duration": 0.1969,
      "velocity": 115,
      "chip": "ym2612"
    },
    {
      "channel": 2,
      "note": 62,
      "start": 12.7748,
      "duration": 0.0935,
      "velocity": 107,
      "chip": "ym2612"
    },
    {
      "channel": 3,
      "note": 49,
      "start": 12.9719,
      "duration": 0.1966,
      "velocity": 115,
      "chip": "ym2612"
    },
    {
      "channel": 2,
      "note": 62,
      "start": 12.9792,
      "duration": 0.0393,
      "velocity": 107,
      "chip": "ym2612"
    },
    {
      "channel": 2,
      "note": 62,
      "start": 13.072,
      "duration": 0.0465,
      "velocity": 107,
      "chip": "ym2612"
    },
    {
      "channel": 3,
      "note": 49,
      "start": 13.172,
      "duration": 0.1969,
      "velocity": 115,
      "chip": "ym2612"
    },
    {
      "channel": 1,
      "note": 51,
      "start": 13.1754,
      "duration": 0.1934,
      "velocity": 105,
      "chip": "ym2612"
    },
    {
      "channel": 2,
      "note": 62,
      "start": 13.1786,
      "duration": 0.0402,
      "velocity": 107,
      "chip": "ym2612"
    },
    {
      "channel": 0,
      "note": 51,
      "start": 13.1818,
      "duration": 0.1868,
      "velocity": 92,
      "chip": "ym2612"
    },
    {
      "channel": 2,
      "note": 62,
      "start": 13.2723,
      "duration": 0.0466,
      "velocity": 107,
      "chip": "ym2612"
    },
    {
      "channel": 3,
      "note": 49,
      "start": 13.3727,
      "duration": 0.1963,
      "velocity": 115,
      "chip": "ym2612"
    },
    {
      "channel": 4,
      "note": 46,
      "start": 13.3779,
      "duration": 0.0911,
      "velocity": 97,
      "chip": "ym2612"
    },
    {
      "channel": 2,
      "note": 62,
      "start": 13.3813,
      "duration": 0.0879,
      "velocity": 107,
      "chip": "ym2612"
    },
    {
      "channel": 4,
      "note": 47,
      "start": 13.4726,
      "duration": 0.0965,
      "velocity": 97,
      "chip": "ym2612"
    },
    {
      "channel": 3,
      "note": 49,
      "start": 13.5726,
      "duration": 0.197,
      "velocity": 115,
      "chip": "ym2612"
    },
    {
      "channel": 1,
      "note": 51,
      "start": 13.5756,
      "duration": 0.1937,
      "velocity": 105,
      "chip": "ym2612"
    },
    {
      "channel": 4,
      "note": 46,
      "start": 13.5787,
      "duration": 0.0906,
      "velocity": 97,
      "chip": "ym2612"
    },
    {
      "channel": 2,
      "note": 62,
      "start": 13.5823,
      "duration": 0.0871,
      "velocity": 107,
      "chip": "ym2612"
    },
    {
      "channel": 0,
      "note": 51,
      "start": 13.5852,
      "duration": 0.184,
      "velocity": 92,
      "chip": "ym2612"
    },
    {
      "channel": 4,
      "note": 47,
      "start": 13.6729,
      "duration": 0.0968,
      "velocity": 97,
      "chip": "ym2612"
    },
    {
      "channel": 3,
      "note": 49,
      "start": 13.7731,
      "duration": 0.1965,
      "velocity": 115,
      "chip": "ym2612"
    },
    {
      "channel": 4,
      "note": 52,
      "start": 13.7769,
      "duration": 0.1928,
      "velocity": 97,
      "chip": "ym2612"
    },
    {
      "channel": 3,
      "note": 49,
      "start": 13.9731,
      "duration": 0.1968,
      "velocity": 115,
      "chip": "ym2612"
    },
    {
      "channel": 1,
      "note": 51,
      "start": 13.9766,
      "duration": 0.1932,
      "velocity": 105,
      "chip": "ym2612"
    },
    {
      "channel": 4,
      "note": 46,
      "start": 13.9798,
      "duration": 0.1903,
      "velocity": 97,
      "chip": "ym2612"
    },
    {
      "channel": 2,
      "note": 62,
      "start": 13.983,
      "duration": 0.0869,
      "velocity": 107,
      "chip": "ym2612"
    },
    {
      "channel": 0,
      "note": 51,
      "start": 13.9859,
      "duration": 0.1837,
      "velocity": 92,
      "chip": "ym2612"
    },
    {
      "channel": 3,
      "note": 52,
      "start": 14.1735,
      "duration": 0.1966,
      "velocity": 115,
      "chip": "ym2612"
    },
    {
      "channel": 2,
      "note": 62,
      "start": 14.1768,
      "duration": 0.0933,
      "velocity": 107,
      "chip": "ym2612"
    },
    {
      "channel": 3,
      "note": 47,
      "start": 14.3735,
      "duration": 0.1969,
      "velocity": 115,
      "chip": "ym2612"
    },
    {
      "channel": 1,
      "note": 51,
      "start": 14.3768,
      "duration": 0.1936,
      "velocity": 105,
      "chip": "ym2612"
    },
    {
      "channel": 2,
      "note": 62,
      "start": 14.38,
      "duration": 0.0904,
      "velocity": 107,
      "chip": "ym2612"
    },
    {
      "channel": 0,
      "note": 51,
      "start": 14.3834,
      "duration": 0.1868,
      "velocity": 92,
      "chip": "ym2612"
    },
    {
      "channel": 3,
      "note": 49,
      "start": 14.5739,
      "duration": 0.1968,
      "velocity": 115,
      "chip": "ym2612"
    },
    {
      "channel": 1,
      "note": 45,
      "start": 14.577,
      "duration": 0.1936,
      "velocity": 105,
      "chip": "ym2612"
    },
    {
      "channel": 2,
      "note": 62,
      "start": 14.5842,
      "duration": 0.0363,
      "velocity": 107,
      "chip": "ym2612"
    },
    {
      "channel": 0,
      "note": 45,
      "start": 14.5871,
      "duration": 0.1833,
      "velocity": 92,
      "chip": "ym2612"
    },
    {
      "channel": 2,
      "note": 62,
      "start": 14.6741,
      "duration": 0.0466,
      "velocity": 107,
      "chip": "ym2612"
    },
    {
      "channel": 3,
      "note": 49,
      "start": 14.7741,
      "duration": 0.1969,
      "velocity": 115,
      "chip": "ym2612"
    },
    {
      "channel": 1,
      "note": 47,
      "start": 14.7772,
      "duration": 0.1937,
      "velocity": 105,
      "chip": "ym2612"
    },
    {
      "channel": 2,
      "note": 62,
      "start": 14.7805,
      "duration": 0.0403,
      "velocity": 107,
      "chip": "ym2612"
    },
    {
      "channel": 0,
      "note": 47,
      "start": 14.7834,
      "duration": 0.1874,
      "velocity": 92,
      "chip": "ym2612"
    },
    {
      "channel": 2,
      "note": 62,
      "start": 14.8744,
      "duration": 0.0466,
      "velocity": 107,
      "chip": "ym2612"
    },
    {
      "channel": 3,
      "note": 49,
      "start": 14.9745,
      "duration": 0.1968,
      "velocity": 115,
      "chip": "ym2612"
    },
    {
      "channel": 1,
      "note": 48,
      "start": 14.9776,
      "duration": 0.1936,
      "velocity": 105,
      "chip": "ym2612"
    },
    {
      "channel": 4,
      "note": 46,
      "start": 14.9826,
      "duration": 0.0885,
      "velocity": 97,
      "chip": "ym2612"
    },
    {
      "channel": 2,
      "note": 62,
      "start": 14.986,
      "duration": 0.0853,
      "velocity": 107,
      "chip": "ym2612"
    },
    {
      "channel": 0,
      "note": 48,
      "start": 14.9889,
      "duration": 0.1822,
      "velocity": 92,
      "chip": "ym2612"
    },
    {
      "channel": 4,
      "note": 47,
      "start": 15.0747,
      "duration": 0.0968,
      "velocity": 97,
      "chip": "ym2612"
    },
    {
      "channel": 3,
      "note": 49,
      "start": 15.1749,
      "duration": 0.1838,
      "velocity": 115,
      "chip": "ym2612"
    },
    {
      "channel": 1,
      "note": 50,
      "start": 15.1779,
      "duration": 0.1806,
      "velocity": 105,
      "chip": "ym2612"
    },
    {
      "channel": 4,
      "note": 46,
      "start": 15.181,
      "duration": 0.0903,
      "velocity": 97,
      "chip": "ym2612"
    },
    {
      "channel": 2,
      "note": 62,
      "start": 15.1846,
      "duration": 0.0868,
      "velocity": 107,
      "chip": "ym2612"
    },
    {
      "channel": 0,
      "note": 50,
      "start": 15.1876,
      "duration": 0.171,
      "velocity": 92,
      "chip": "ym2612"
    },
    {
      "channel": 4,
      "note": 47,
      "start": 15.2749,
      "duration": 0.0838,
      "velocity": 97,
      "chip": "ym2612"
    },
    {
      "channel": 3,
      "note": 49,
      "start": 15.3609,
      "duration": 0.0058,
      "velocity": 115,
      "chip": "ym2612"
    },
    {
      "channel": 1,
      "note": 52,
      "start": 15.3631,
      "duration": 0.0036,
      "velocity": 105,
      "chip": "ym2612"
    },
    {
      "channel": 4,
      "note": 52,
      "start": 15.3649,
      "duration": 0.0018,
      "velocity": 97,
      "chip": "ym2612"
    },
    {
      "channel": 0,
      "note": 52,
      "start": 15.3665,
      "duration": 0.0,
      "velocity": 92,
      "chip": "ym2612"
    },
    {
      "channel": 3,
      "note": 49,
      "start": 15.3689,
      "duration": 0.1843,
      "velocity": 115,
      "chip": "ym2612"
    },
    {
      "channel": 1,
      "note": 51,
      "start": 15.3711,
      "duration": 0.5827,
      "velocity": 105,
      "chip": "ym2612"
    },
    {
      "channel": 4,
      "note": 46,
      "start": 15.3729,
      "duration": 0.1804,
      "velocity": 97,
      "chip": "ym2612"
    },
    {
      "channel": 2,
      "note": 62,
      "start": 15.3761,
      "duration": 0.0772,
      "velocity": 107,
      "chip": "ym2612"
    },
    {
      "channel": 0,
      "note": 51,
      "start": 15.3793,
      "duration": 0.5743,
      "velocity": 92,
      "chip": "ym2612"
    },
    {
      "channel": 3,
      "note": 52,
      "start": 15.5567,
      "duration": 0.1968,
      "velocity": 115,
      "chip": "ym2612"
    },
    {
      "channel": 2,
      "note": 62,
      "start": 15.56,
      "duration": 0.0935,
      "velocity": 107,
      "chip": "ym2612"
    },
    {
      "channel": 3,
      "note": 47,
      "start": 15.7569,
      "duration": 0.1969,
      "velocity": 115,
      "chip": "ym2612"
    },
    {
      "channel": 2,
      "note": 62,
      "start": 15.7602,
      "duration": 0.0935,
      "velocity": 107,
      "chip": "ym2612"
    },
    {
      "channel": 3,
      "note": 49,
      "start": 15.9573,
      "duration": 0.2133,
      "velocity": 115,
      "chip": "ym2612"
    },
    {
      "channel": 2,
      "note": 62,
      "start": 15.9647,
      "duration": 0.0393,
      "velocity": 107,
      "chip": "ym2612"
    },
    {
      "channel": 2,
      "note": 62,
      "start": 16.0575,
      "duration": 0.0633,
      "velocity": 107,
      "chip": "ym2612"
    },
    {
      "channel": 3,
      "note": 49,
      "start": 16.1741,
      "duration": 0.1971,
      "velocity": 115,
      "chip": "ym2612"
    },
    {
      "channel": 1,
      "note": 51,
      "start": 16.1775,
      "duration": 0.1935,
      "velocity": 105,
      "chip": "ym2612"
    },
    {
      "channel": 2,
      "note": 62,
      "start": 16.1807,
      "duration": 0.0402,
      "velocity": 107,
      "chip": "ym2612"
    },
    {
      "channel": 0,
      "note": 51,
      "start": 16.1839,
      "duration": 0.187,
      "velocity": 92,
      "chip": "ym2612"
    },
    {
      "channel": 2,
      "note": 62,
      "start": 16.2744,
      "duration": 0.0466,
      "velocity": 107,
      "chip": "ym2612"
    },
    {
      "channel": 3,
      "note": 49,
      "start": 16.375,
      "duration": 0.1961,
      "velocity": 115,
      "chip": "ym2612"
    },
    {
      "channel": 4,
      "note": 46,
      "start": 16.3801,
      "duration": 0.091,
      "velocity": 97,
      "chip": "ym2612"
    },
    {
      "channel": 2,
      "note": 62,
      "start": 16.3835,
      "duration": 0.0878,
      "velocity": 107,
      "chip": "ym2612"
    },
    {
      "channel": 4,
      "note": 47,
      "start": 16.4747,
      "duration": 0.0965,
      "velocity": 97,
      "chip": "ym2612"
    },
    {
      "channel": 3,
      "note": 49,
      "start": 16.5747,
      "duration": 0.197,
      "velocity": 115,
      "chip": "ym2612"
    },
    {
      "channel": 1,
      "note": 51,
      "start": 16.5778,
      "duration": 0.1937,
      "velocity": 105,
      "chip": "ym2612"
    },
    {
      "channel": 4,
      "note": 46,
      "start": 16.5808,
      "duration": 0.0906,
      "velocity": 97,
      "chip": "ym2612"
    },
    {
      "channel": 2,
      "note": 62,
      "start": 16.5844,
      "duration": 0.0871,
      "velocity": 107,
      "chip": "ym2612"
    },
    {
      "channel": 0,
      "note": 51,
      "start": 16.5873,
      "duration": 0.184,
      "velocity": 92,
      "chip": "ym2612"
    },
    {
      "channel": 4,
      "note": 47,
      "start": 16.675,
      "duration": 0.0968,
      "velocity": 97,
      "chip": "ym2612"
    },
    {
      "channel": 3,
      "note": 49,
      "start": 16.7752,
      "duration": 0.1965,
      "velocity": 115,
      "chip": "ym2612"
    },
    {
      "channel": 4,
      "note": 52,
      "start": 16.779,
      "duration": 0.1928,
      "velocity": 97,
      "chip": "ym2612"
    },
    {
      "channel": 3,
      "note": 49,
      "start": 16.9752,
      "duration": 0.1968,
      "velocity": 115,
      "chip": "ym2612"
    },
    {
      "channel": 1,
      "note": 51,
      "start": 16.9783,
      "duration": 0.1936,
      "velocity": 105,
      "chip": "ym2612"
    },
    {
      "channel": 4,
      "note": 46,
      "start": 16.9815,
      "duration": 0.1907,
      "velocity": 97,
      "chip": "ym2612"
    },
    {
      "channel": 2,
      "note": 62,
      "start": 16.9848,
      "duration": 0.0872,
      "velocity": 107,
      "chip": "ym2612"
    },
    {
      "channel": 0,
      "note": 51,
      "start": 16.9877,
      "duration": 0.1841,
      "velocity": 92,
      "chip": "ym2612"
    },
    {
      "channel": 3,
      "note": 52,
      "start": 17.1756,
      "duration": 0.1966,
      "velocity": 115,
      "chip": "ym2612"
    },
    {
      "channel": 2,
      "note": 62,
      "start": 17.179,
      "duration": 0.0933,
      "velocity": 107,
      "chip": "ym2612"
    },
    {
      "channel": 3,
      "note": 47,
      "start": 17.3757,
      "duration": 0.197,
      "velocity": 115,
      "chip": "ym2612"
    },
    {
      "channel": 1,
      "note": 51,
      "start": 17.3793,
      "duration": 0.1933,
      "velocity": 105,
      "chip": "ym2612"
    },
    {
      "channel": 2,
      "note": 62,
      "start": 17.3825,
      "duration": 0.0899,
      "velocity": 107,
      "chip": "ym2612"
    },
    {
      "channel": 0,
      "note": 51,
      "start": 17.3859,
      "duration": 0.1865,
      "velocity": 92,
      "chip": "ym2612"
    },
    {
      "channel": 3,
      "note": 49,
      "start": 17.5761,
      "duration": 0.1674,
      "velocity": 115,
      "chip": "ym2612"
    },
    {
      "channel": 1,
      "note": 45,
      "start": 17.5792,
      "duration": 0.1642,
      "velocity": 105,
      "chip": "ym2612"
    },
    {
      "channel": 2,
      "note": 62,
      "start": 17.5865,
      "duration": 0.0362,
      "velocity": 107,
      "chip": "ym2612"
    },
    {
      "channel": 0,
      "note": 45,
      "start": 17.5894,
      "duration": 0.1541,
      "velocity": 92,
      "chip": "ym2612"
    },
    {
      "channel": 2,
      "note": 62,
      "start": 17.6763,
      "duration": 0.0466,
      "velocity": 107,
      "chip": "ym2612"
    },
    {
      "channel": 3,
      "note": 49,
      "start": 17.7457,
      "duration": 0.0076,
      "velocity": 115,
      "chip": "ym2612"
    },
    {
      "channel": 1,
      "note": 47,
      "start": 17.7479,
      "duration": 0.0054,
      "velocity": 105,
      "chip": "ym2612"
    },
    {
      "channel": 2,
      "note": 62,
      "start": 17.7496,
      "duration": 0.0017,
      "velocity": 107,
      "chip": "ym2612"
    },
    {
      "channel": 0,
      "note": 47,
      "start": 17.7513,
      "duration": 0.0019,
      "velocity": 92,
      "chip": "ym2612"
    },
    {
      "channel": 2,
      "note": 62,
      "start": 17.7531,
      "duration": 0.0,
      "velocity": 107,
      "chip": "ym2612"
    },
    {
      "channel": 3,
      "note": 49,
      "start": 17.7555,
      "duration": 0.0094,
      "velocity": 115,
      "chip": "ym2612"
    },
    {
      "channel": 1,
      "note": 48,
      "start": 17.7576,
      "duration": 0.0072,
      "velocity": 105,
      "chip": "ym2612"
    },
    {
      "channel": 4,
      "note": 46,
      "start": 17.7594,
      "duration": 0.0035,
      "velocity": 97,
      "chip": "ym2612"
    },
    {
      "channel": 2,
      "note": 62,
      "start": 17.7612,
      "duration": 0.0018,
      "velocity": 107,
      "chip": "ym2612"
    },
    {
      "channel": 0,
      "note": 48,
      "start": 17.7629,
      "duration": 0.0019,
      "velocity": 92,
      "chip": "ym2612"
    },
    {
      "channel": 4,
      "note": 47,
      "start": 17.7648,
      "duration": 0.0002,
      "velocity": 97,
      "chip": "ym2612"
    },
    {
      "channel": 3,
      "note": 49,
      "start": 17.7671,
      "duration": 0.1498,
      "velocity": 115,
      "chip": "ym2612"
    },
    {
      "channel": 1,
      "note": 50,
      "start": 17.7693,
      "duration": 0.1474,
      "velocity": 105,
      "chip": "ym2612"
    },
    {
      "channel": 4,
      "note": 46,
      "start": 17.7711,
      "duration": 0.0457,
      "velocity": 97,
      "chip": "ym2612"
    },
    {
      "channel": 2,
      "note": 62,
      "start": 17.7728,
      "duration": 0.0441,
      "velocity": 107,
      "chip": "ym2612"
    },
    {
      "channel": 0,
      "note": 50,
      "start": 17.7745,
      "duration": 0.1421,
      "velocity": 92,
      "chip": "ym2612"
    },
    {
      "channel": 4,
      "note": 47,
      "start": 17.8204,
      "duration": 0.0966,
      "velocity": 97,
      "chip": "ym2612"
    },
    {
      "channel": 3,
      "note": 49,
      "start": 17.9204,
      "duration": 0.1967,
      "velocity": 115,
      "chip": "ym2612"
    },
    {
      "channel": 1,
      "note": 52,
      "start": 17.9235,
      "duration": 0.1935,
      "velocity": 105,
      "chip": "ym2612"
    },
    {
      "channel": 4,
      "note": 52,
      "start": 17.9272,
      "duration": 0.19,
      "velocity": 97,
      "chip": "ym2612"
    },
    {
      "channel": 0,
      "note": 52,
      "start": 17.9302,
      "duration": 0.1866,
      "velocity": 92,
      "chip": "ym2612"
    },
    {
      "channel": 3,
      "note": 49,
      "start": 18.1207,
      "duration": 0.1667,
      "velocity": 115,
      "chip": "ym2612"
    },
    {
      "channel": 1,
      "note": 51,
      "start": 18.124,
      "duration": 0.1712,
      "velocity": 105,
      "chip": "ym2612"
    },
    {
      "channel": 4,
      "note": 46,
      "start": 18.1273,
      "duration": 0.1602,
      "velocity": 97,
      "chip": "ym2612"
    },
    {
      "channel": 2,
      "note": 62,
      "start": 18.1305,
      "duration": 0.0868,
      "velocity": 107,
      "chip": "ym2612"
    },
    {
      "channel": 0,
      "note": 51,
      "start": 18.1337,
      "duration": 0.1615,
      "velocity": 92,
      "chip": "ym2612"
    },
    {
      "channel": 3,
      "note": 52,
      "start": 18.2896,
      "duration": 0.0019,
      "velocity": 115,
      "chip": "ym2612"
    },
    {
      "channel": 2,
      "note": 62,
      "start": 18.2913,
      "duration": 0.0,
      "velocity": 107,
      "chip": "ym2612"
    },
    {
      "channel": 3,
      "note": 47,
      "start": 18.2934,
      "duration": 0.0019,
      "velocity": 115,
      "chip": "ym2612"
    },
    {
      "channel": 2,
      "note": 62,
      "start": 18.2951,
      "duration": 0.0,
      "velocity": 107,
      "chip": "ym2612"
    },
    {
      "channel": 3,
      "note": 49,
      "start": 18.2972,
      "duration": 0.1642,
      "velocity": 115,
      "chip": "ym2612"
    },
    {
      "channel": 2,
      "note": 62,
      "start": 18.2989,
      "duration": 0.0125,
      "velocity": 107,
      "chip": "ym2612"
    },
    {
      "channel": 2,
      "note": 62,
      "start": 18.3649,
      "duration": 0.0465,
      "velocity": 107,
      "chip": "ym2612"
    },
    {
      "channel": 3,
      "note": 49,
      "start": 18.4649,
      "duration": 0.1969,
      "velocity": 115,
      "chip": "ym2612"
    },
    {
      "channel": 1,
      "note": 51,
      "start": 18.4683,
      "duration": 0.1934,
      "velocity": 105,
      "chip": "ym2612"
    },
    {
      "channel": 2,
      "note": 62,
      "start": 18.4715,
      "duration": 0.0402,
      "velocity": 107,
      "chip": "ym2612"
    },
    {
      "channel": 0,
      "note": 51,
      "start": 18.4747,
      "duration": 0.1868,
      "velocity": 92,
      "chip": "ym2612"
    },
    {
      "channel": 2,
      "note": 62,
      "start": 18.5652,
      "duration": 0.0466,
      "velocity": 107,
      "chip": "ym2612"
    },
    {
      "channel": 3,
      "note": 49,
      "start": 18.6656,
      "duration": 0.1963,
      "velocity": 115,
      "chip": "ym2612"
    },
    {
      "channel": 4,
      "note": 46,
      "start": 18.6707,
      "duration": 0.0911,
      "velocity": 97,
      "chip": "ym2612"
    },
    {
      "channel": 2,
      "note": 62,
      "start": 18.6741,
      "duration": 0.0879,
      "velocity": 107,
      "chip": "ym2612"
    },
    {
      "channel": 4,
      "note": 47,
      "start": 18.7655,
      "duration": 0.0965,
      "velocity": 97,
      "chip": "ym2612"
    },
    {
      "channel": 3,
      "note": 49,
      "start": 18.8654,
      "duration": 0.197,
      "velocity": 115,
      "chip": "ym2612"
    },
    {
      "channel": 1,
      "note": 51,
      "start": 18.8685,
      "duration": 0.1937,
      "velocity": 105,
      "chip": "ym2612"
    },
    {
      "channel": 4,
      "note": 46,
      "start": 18.8716,
      "duration": 0.0906,
      "velocity": 97,
      "chip": "ym2612"
    },
    {
      "channel": 2,
      "note": 62,
      "start": 18.8752,
      "duration": 0.0871,
      "velocity": 107,
      "chip": "ym2612"
    },
    {
      "channel": 0,
      "note": 51,
      "start": 18.8781,
      "duration": 0.184,
      "velocity": 92,
      "chip": "ym2612"
    },
    {
      "channel": 4,
      "note": 47,
      "start": 18.9658,
      "duration": 0.0968,
      "velocity": 97,
      "chip": "ym2612"
    },
    {
      "channel": 3,
      "note": 49,
      "start": 19.066,
      "duration": 0.1965,
      "velocity": 115,
      "chip": "ym2612"
    },
    {
      "channel": 4,
      "note": 52,
      "start": 19.0698,
      "duration": 0.1928,
      "velocity": 97,
      "chip": "ym2612"
    },
    {
      "channel": 3,
      "note": 49,
      "start": 19.266,
      "duration": 0.2135,
      "velocity": 115,
      "chip": "ym2612"
    },
    {
      "channel": 1,
      "note": 51,
      "start": 19.2691,
      "duration": 0.2103,
      "velocity": 105,
      "chip": "ym2612"
    },
    {
      "channel": 4,
      "note": 46,
      "start": 19.2723,
      "duration": 0.2073,
      "velocity": 97,
      "chip": "ym2612"
    },
    {
      "channel": 2,
      "note": 62,
      "start": 19.2755,
      "duration": 0.0872,
      "velocity": 107,
      "chip": "ym2612"
    },
    {
      "channel": 0,
      "note": 51,
      "start": 19.2784,
      "duration": 0.2008,
      "velocity": 92,
      "chip": "ym2612"
    },
    {
      "channel": 3,
      "note": 52,
      "start": 19.4831,
      "duration": 0.1966,
      "velocity": 115,
      "chip": "ym2612"
    },
    {
      "channel": 2,
      "note": 62,
      "start": 19.4864,
      "duration": 0.0933,
      "velocity": 107,
      "chip": "ym2612"
    },
    {
      "channel": 3,
      "note": 47,
      "start": 19.6831,
      "duration": 0.1969,
      "velocity": 115,
      "chip": "ym2612"
    },
    {
      "channel": 1,
      "note": 51,
      "start": 19.6867,
      "duration": 0.1932,
      "velocity": 105,
      "chip": "ym2612"
    },
    {
      "channel": 2,
      "note": 62,
      "start": 19.69,
      "duration": 0.09,
      "velocity": 107,
      "chip": "ym2612"
    },
    {
      "channel": 0,
      "note": 51,
      "start": 19.693,
      "duration": 0.1868,
      "velocity": 92,
      "chip": "ym2612"
    },
    {
      "channel": 3,
      "note": 49,
      "start": 19.8835,
      "duration": 0.1968,
      "velocity": 115,
      "chip": "ym2612"
    },
    {
      "channel": 1,
      "note": 45,
      "start": 19.8866,
      "duration": 0.1936,
      "velocity": 105,
      "chip": "ym2612"
    },
    {
      "channel": 2,
      "note": 62,
      "start": 19.8938,
      "duration": 0.0363,
      "velocity": 107,
      "chip": "ym2612"
    },
    {
      "channel": 0,
      "note": 45,
      "start": 19.8971,
      "duration": 0.183,
      "velocity": 92,
      "chip": "ym2612"
    },
    {
      "channel": 2,
      "note": 62,
      "start": 19.9838,
      "duration": 0.0466,
      "velocity": 107,
      "chip": "ym2612"
    },
    {
      "channel": 3,
      "note": 49,
      "start": 20.0838,
      "duration": 0.1967,
      "velocity": 115,
      "chip": "ym2612"
    },
    {
      "channel": 1,
      "note": 47,
      "start": 20.0869,
      "duration": 0.1935,
      "velocity": 105,
      "chip": "ym2612"
    },
    {
      "channel": 2,
      "note": 62,
      "start": 20.0901,
      "duration": 0.0403,
      "velocity": 107,
      "chip": "ym2612"
    },
    {
      "channel": 0,
      "note": 47,
      "start": 20.093,
      "duration": 0.1873,
      "velocity": 92,
      "chip": "ym2612"
    },
    {
      "channel": 2,
      "note": 62,
      "start": 20.184,
      "duration": 0.0466,
      "velocity": 107,
      "chip": "ym2612"
    },
    {
      "channel": 3,
      "note": 49,
      "start": 20.284,
      "duration": 0.1968,
      "velocity": 115,
      "chip": "ym2612"
    },
    {
      "channel": 1,
      "note": 48,
      "start": 20.2871,
      "duration": 0.1936,
      "velocity": 105,
      "chip": "ym2612"
    },
    {
      "channel": 4,
      "note": 46,
      "start": 20.2921,
      "duration": 0.0885,
      "velocity": 97,
      "chip": "ym2612"
    },
    {
      "channel": 2,
      "note": 62,
      "start": 20.2955,
      "duration": 0.0853,
      "velocity": 107,
      "chip": "ym2612"
    },
    {
      "channel": 0,
      "note": 48,
      "start": 20.2984,
      "duration": 0.1822,
      "velocity": 92,
      "chip": "ym2612"
    },
    {
      "channel": 4,
      "note": 47,
      "start": 20.3842,
      "duration": 0.0968,
      "velocity": 97,
      "chip": "ym2612"
    },
    {
      "channel": 3,
      "note": 49,
      "start": 20.4844,
      "duration": 0.1967,
      "velocity": 115,
      "chip": "ym2612"
    },
    {
      "channel": 1,
      "note": 50,
      "start": 20.4875,
      "duration": 0.1935,
      "velocity": 105,
      "chip": "ym2612"
    },
    {
      "channel": 4,
      "note": 46,
      "start": 20.4905,
      "duration": 0.0904,
      "velocity": 97,
      "chip": "ym2612"
    },
    {
      "channel": 2,
      "note": 62,
      "start": 20.4941,
      "duration": 0.087,
      "velocity": 107,
      "chip": "ym2612"
    },
    {
      "channel": 0,
      "note": 50,
      "start": 20.4971,
      "duration": 0.1837,
      "velocity": 92,
      "chip": "ym2612"
    },
    {
      "channel": 4,
      "note": 47,
      "start": 20.5846,
      "duration": 0.0966,
      "velocity": 97,
      "chip": "ym2612"
    },
    {
      "channel": 3,
      "note": 49,
      "start": 20.6846,
      "duration": 0.1968,
      "velocity": 115,
      "chip": "ym2612"
    },
    {
      "channel": 1,
      "note": 52,
      "start": 20.6877,
      "duration": 0.1936,
      "velocity": 105,
      "chip": "ym2612"
    },
    {
      "channel": 4,
      "note": 52,
      "start": 20.6914,
      "duration": 0.1901,
      "velocity": 97,
      "chip": "ym2612"
    },
    {
      "channel": 0,
      "note": 52,
      "start": 20.6944,
      "duration": 0.1867,
      "velocity": 92,
      "chip": "ym2612"
    },
    {
      "channel": 3,
      "note": 49,
      "start": 20.885,
      "duration": 0.1964,
      "velocity": 115,
      "chip": "ym2612"
    },
    {
      "channel": 1,
      "note": 51,
      "start": 20.8884,
      "duration": 0.3748,
      "velocity": 105,
      "chip": "ym2612"
    },
    {
      "channel": 4,
      "note": 46,
      "start": 20.8916,
      "duration": 0.19,
      "velocity": 97,
      "chip": "ym2612"
    },
    {
      "channel": 2,
      "note": 62,
      "start": 20.8948,
      "duration": 0.0866,
      "velocity": 107,
      "chip": "ym2612"
    },
    {
      "channel": 0,
      "note": 51,
      "start": 20.898,
      "duration": 0.365,
      "velocity": 92,
      "chip": "ym2612"
    },
    {
      "channel": 3,
      "note": 52,
      "start": 21.0849,
      "duration": 0.1018,
      "velocity": 115,
      "chip": "ym2612"
    },
    {
      "channel": 2,
      "note": 62,
      "start": 21.0883,
      "duration": 0.0936,
      "velocity": 107,
      "chip": "ym2612"
    },
    {
      "channel": 3,
      "note": 47,
      "start": 21.1887,
      "duration": 0.0746,
      "velocity": 115,
      "chip": "ym2612"
    },
    {
      "channel": 2,
      "note": 62,
      "start": 21.1904,
      "duration": 0.0,
      "velocity": 107,
      "chip": "ym2612"
    },
    {
      "channel": 3,
      "note": 49,
      "start": 21.2667,
      "duration": 0.1966,
      "velocity": 115,
      "chip": "ym2612"
    },
    {
      "channel": 2,
      "note": 62,
      "start": 21.2741,
      "duration": 0.0393,
      "velocity": 107,
      "chip": "ym2612"
    },
    {
      "channel": 2,
      "note": 62,
      "start": 21.367,
      "duration": 0.0465,
      "velocity": 107,
      "chip": "ym2612"
    },
    {
      "channel": 3,
      "note": 49,
      "start": 21.4668,
      "duration": 0.197,
      "velocity": 115,
      "chip": "ym2612"
    },
    {
      "channel": 1,
      "note": 51,
      "start": 21.4702,
      "duration": 0.1935,
      "velocity": 105,
      "chip": "ym2612"
    },
    {
      "channel": 2,
      "note": 62,
      "start": 21.4734,
      "duration": 0.0402,
      "velocity": 107,
      "chip": "ym2612"
    },
    {
      "channel": 0,
      "note": 51,
      "start": 21.4766,
      "duration": 0.187,
      "velocity": 92,
      "chip": "ym2612"
    },
    {
      "channel": 2,
      "note": 62,
      "start": 21.5671,
      "duration": 0.0466,
      "velocity": 107,
      "chip": "ym2612"
    },
    {
      "channel": 3,
      "note": 49,
      "start": 21.6677,
      "duration": 0.1961,
      "velocity": 115,
      "chip": "ym2612"
    },
    {
      "channel": 4,
      "note": 46,
      "start": 21.6728,
      "duration": 0.091,
      "velocity": 97,
      "chip": "ym2612"
    },
    {
      "channel": 2,
      "note": 62,
      "start": 21.6762,
      "duration": 0.0878,
      "velocity": 107,
      "chip": "ym2612"
    },
    {
      "channel": 4,
      "note": 47,
      "start": 21.7675,
      "duration": 0.0965,
      "velocity": 97,
      "chip": "ym2612"
    },
    {
      "channel": 3,
      "note": 49,
      "start": 21.8674,
      "duration": 0.197,
      "velocity": 115,
      "chip": "ym2612"
    },
    {
      "channel": 1,
      "note": 51,
      "start": 21.8705,
      "duration": 0.1937,
      "velocity": 105,
      "chip": "ym2612"
    },
    {
      "channel": 4,
      "note": 46,
      "start": 21.8735,
      "duration": 0.0906,
      "velocity": 97,
      "chip": "ym2612"
    },
    {
      "channel": 2,
      "note": 62,
      "start": 21.8772,
      "duration": 0.0871,
      "velocity": 107,
      "chip": "ym2612"
    },
    {
      "channel": 0,
      "note": 51,
      "start": 21.8801,
      "duration": 0.184,
      "velocity": 92,
      "chip": "ym2612"
    },
    {
      "channel": 4,
      "note": 47,
      "start": 21.9677,
      "duration": 0.0968,
      "velocity": 97,
      "chip": "ym2612"
    },
    {
      "channel": 3,
      "note": 49,
      "start": 22.0679,
      "duration": 0.1965,
      "velocity": 115,
      "chip": "ym2612"
    },
    {
      "channel": 4,
      "note": 52,
      "start": 22.0718,
      "duration": 0.1928,
      "velocity": 97,
      "chip": "ym2612"
    },
    {
      "channel": 3,
      "note": 49,
      "start": 22.268,
      "duration": 0.1968,
      "velocity": 115,
      "chip": "ym2612"
    },
    {
      "channel": 1,
      "note": 51,
      "start": 22.271,
      "duration": 0.1936,
      "velocity": 105,
      "chip": "ym2612"
    },
    {
      "channel": 4,
      "note": 46,
      "start": 22.2742,
      "duration": 0.1907,
      "velocity": 97,
      "chip": "ym2612"
    },
    {
      "channel": 2,
      "note": 62,
      "start": 22.2775,
      "duration": 0.0872,
      "velocity": 107,
      "chip": "ym2612"
    },
    {
      "channel": 0,
      "note": 51,
      "start": 22.2804,
      "duration": 0.1841,
      "velocity": 92,
      "chip": "ym2612"
    },
    {
      "channel": 3,
      "note": 52,
      "start": 22.4684,
      "duration": 0.1966,
      "velocity": 115,
      "chip": "ym2612"
    },
    {
      "channel": 2,
      "note": 62,
      "start": 22.4717,
      "duration": 0.0933,
      "velocity": 107,
      "chip": "ym2612"
    },
    {
      "channel": 3,
      "note": 47,
      "start": 22.6687,
      "duration": 0.1966,
      "velocity": 115,
      "chip": "ym2612"
    },
    {
      "channel": 1,
      "note": 51,
      "start": 22.6718,
      "duration": 0.1934,
      "velocity": 105,
      "chip": "ym2612"
    },
    {
      "channel": 2,
      "note": 62,
      "start": 22.675,
      "duration": 0.0903,
      "velocity": 107,
      "chip": "ym2612"
    },
    {
      "channel": 0,
      "note": 51,
      "start": 22.678,
      "duration": 0.1871,
      "velocity": 92,
      "chip": "ym2612"
    },
    {
      "channel": 2,
      "note": 62,
      "start": 22.8732,
      "duration": 0.0423,
      "velocity": 107,
      "chip": "ym2612"
    },
    {
      "channel": 2,
      "note": 62,
      "start": 22.9691,
      "duration": 0.0465,
      "velocity": 107,
      "chip": "ym2612"
    },
    {
      "channel": 1,
      "note": 51,
      "start": 23.0689,
      "duration": 0.1968,
      "velocity": 105,
      "chip": "ym2612"
    },
    {
      "channel": 2,
      "note": 62,
      "start": 23.0721,
      "duration": 0.0435,
      "velocity": 107,
      "chip": "ym2612"
    },
    {
      "channel": 2,
      "note": 62,
      "start": 23.1693,
      "duration": 0.0465,
      "velocity": 107,
      "chip": "ym2612"
    },
    {
      "channel": 4,
      "note": 46,
      "start": 23.2713,
      "duration": 0.0946,
      "velocity": 97,
      "chip": "ym2612"
    },
    {
      "channel": 2,
      "note": 62,
      "start": 23.2747,
      "duration": 0.0914,
      "velocity": 107,
      "chip": "ym2612"
    },
    {
      "channel": 4,
      "note": 47,
      "start": 23.3695,
      "duration": 0.0965,
      "velocity": 97,
      "chip": "ym2612"
    },
    {
      "channel": 1,
      "note": 51,
      "start": 23.4699,
      "duration": 0.213,
      "velocity": 105,
      "chip": "ym2612"
    },
    {
      "channel": 4,
      "note": 46,
      "start": 23.473,
      "duration": 0.1098,
      "velocity": 97,
      "chip": "ym2612"
    },
    {
      "channel": 2,
      "note": 62,
      "start": 23.4766,
      "duration": 0.1063,
      "velocity": 107,
      "chip": "ym2612"
    },
    {
      "channel": 4,
      "note": 47,
      "start": 23.5864,
      "duration": 0.0966,
      "velocity": 97,
      "chip": "ym2612"
    },
    {
      "channel": 4,
      "note": 52,
      "start": 23.6873,
      "duration": 0.1959,
      "velocity": 97,
      "chip": "ym2612"
    },
    {
      "channel": 1,
      "note": 51,
      "start": 23.8867,
      "duration": 0.1966,
      "velocity": 105,
      "chip": "ym2612"
    },
    {
      "channel": 4,
      "note": 46,
      "start": 23.8899,
      "duration": 0.1936,
      "velocity": 97,
      "chip": "ym2612"
    },
    {
      "channel": 2,
      "note": 62,
      "start": 23.8932,
      "duration": 0.0902,
      "velocity": 107,
      "chip": "ym2612"
    },
    {
      "channel": 2,
      "note": 62,
      "start": 24.0872,
      "duration": 0.0965,
      "velocity": 107,
      "chip": "ym2612"
    },
    {
      "channel": 1,
      "note": 51,
      "start": 24.2871,
      "duration": 0.1841,
      "velocity": 105,
      "chip": "ym2612"
    },
    {
      "channel": 2,
      "note": 62,
      "start": 24.2903,
      "duration": 0.0937,
      "velocity": 107,
      "chip": "ym2612"
    },
    {
      "channel": 2,
      "note": 62,
      "start": 24.4729,
      "duration": 0.0,
      "velocity": 107,
      "chip": "ym2612"
    },
    {
      "channel": 2,
      "note": 62,
      "start": 24.4746,
      "duration": 0.0,
      "velocity": 107,
      "chip": "ym2612"
    },
    {
      "channel": 1,
      "note": 51,
      "start": 24.4766,
      "duration": 0.1885,
      "velocity": 105,
      "chip": "ym2612"
    },
    {
      "channel": 2,
      "note": 62,
      "start": 24.4783,
      "duration": 0.0368,
      "velocity": 107,
      "chip": "ym2612"
    },
    {
      "channel": 2,
      "note": 62,
      "start": 24.5688,
      "duration": 0.0465,
      "velocity": 107,
      "chip": "ym2612"
    },
    {
      "channel": 4,
      "note": 46,
      "start": 24.6707,
      "duration": 0.0946,
      "velocity": 97,
      "chip": "ym2612"
    },
    {
      "channel": 2,
      "note": 62,
      "start": 24.6742,
      "duration": 0.0913,
      "velocity": 107,
      "chip": "ym2612"
    },
    {
      "channel": 4,
      "note": 47,
      "start": 24.769,
      "duration": 0.0965,
      "velocity": 97,
      "chip": "ym2612"
    },
    {
      "channel": 1,
      "note": 51,
      "start": 24.869,
      "duration": 0.1967,
      "velocity": 105,
      "chip": "ym2612"
    },
    {
      "channel": 4,
      "note": 46,
      "start": 24.872,
      "duration": 0.0936,
      "velocity": 97,
      "chip": "ym2612"
    },
    {
      "channel": 2,
      "note": 62,
      "start": 24.8756,
      "duration": 0.0901,
      "velocity": 107,
      "chip": "ym2612"
    },
    {
      "channel": 4,
      "note": 47,
      "start": 24.9693,
      "duration": 0.0966,
      "velocity": 97,
      "chip": "ym2612"
    },
    {
      "channel": 4,
      "note": 52,
      "start": 25.0701,
      "duration": 0.1958,
      "velocity": 97,
      "chip": "ym2612"
    },
    {
      "channel": 1,
      "note": 51,
      "start": 25.2694,
      "duration": 0.1967,
      "velocity": 105,
      "chip": "ym2612"
    },
    {
      "channel": 4,
      "note": 46,
      "start": 25.2726,
      "duration": 0.1937,
      "velocity": 97,
      "chip": "ym2612"
    },
    {
      "channel": 2,
      "note": 62,
      "start": 25.2759,
      "duration": 0.0903,
      "velocity": 107,
      "chip": "ym2612"
    },
    {
      "channel": 2,
      "note": 62,
      "start": 25.47,
      "duration": 0.0965,
      "velocity": 107,
      "chip": "ym2612"
    },
    {
      "channel": 1,
      "note": 51,
      "start": 25.6699,
      "duration": 0.1968,
      "velocity": 105,
      "chip": "ym2612"
    },
    {
      "channel": 2,
      "note": 62,
      "start": 25.6731,
      "duration": 0.0937,
      "velocity": 107,
      "chip": "ym2612"
    },
    {
      "channel": 2,
      "note": 62,
      "start": 25.8745,
      "duration": 0.0424,
      "velocity": 107,
      "chip": "ym2612"
    },
    {
      "channel": 0,
      "note": 51,
      "start": 25.88,
      "duration": 1.8428,
      "velocity": 115,
      "chip": "ym2612"
    },
    {
      "channel": 2,
      "note": 62,
      "start": 25.9705,
      "duration": 0.0465,
      "velocity": 107,
      "chip": "ym2612"
    },
    {
      "channel": 1,
      "note": 51,
      "start": 26.0704,
      "duration": 0.1968,
      "velocity": 105,
      "chip": "ym2612"
    },
    {
      "channel": 2,
      "note": 62,
      "start": 26.0736,
      "duration": 0.0435,
      "velocity": 107,
      "chip": "ym2612"
    },
    {
      "channel": 2,
      "note": 62,
      "start": 26.1708,
      "duration": 0.0465,
      "velocity": 107,
      "chip": "ym2612"
    },
    {
      "channel": 4,
      "note": 46,
      "start": 26.2729,
      "duration": 0.0946,
      "velocity": 97,
      "chip": "ym2612"
    },
    {
      "channel": 2,
      "note": 62,
      "start": 26.2763,
      "duration": 0.0914,
      "velocity": 107,
      "chip": "ym2612"
    },
    {
      "channel": 4,
      "note": 47,
      "start": 26.3712,
      "duration": 0.0964,
      "velocity": 97,
      "chip": "ym2612"
    },
    {
      "channel": 1,
      "note": 51,
      "start": 26.471,
      "duration": 0.1967,
      "velocity": 105,
      "chip": "ym2612"
    },
    {
      "channel": 4,
      "note": 46,
      "start": 26.4741,
      "duration": 0.0936,
      "velocity": 97,
      "chip": "ym2612"
    },
    {
      "channel": 2,
      "note": 62,
      "start": 26.4777,
      "duration": 0.0902,
      "velocity": 107,
      "chip": "ym2612"
    },
    {
      "channel": 4,
      "note": 47,
      "start": 26.5713,
      "duration": 0.0965,
      "velocity": 97,
      "chip": "ym2612"
    },
    {
      "channel": 4,
      "note": 52,
      "start": 26.6721,
      "duration": 0.1667,
      "velocity": 97,
      "chip": "ym2612"
    },
    {
      "channel": 1,
      "note": 51,
      "start": 26.8407,
      "duration": 0.0037,
      "velocity": 105,
      "chip": "ym2612"
    },
    {
      "channel": 4,
      "note": 46,
      "start": 26.8425,
      "duration": 0.0019,
      "velocity": 97,
      "chip": "ym2612"
    },
    {
      "channel": 2,
      "note": 62,
      "start": 26.8443,
      "duration": 0.0,
      "velocity": 107,
      "chip": "ym2612"
    },
    {
      "channel": 2,
      "note": 62,
      "start": 26.8461,
      "duration": 0.0,
      "velocity": 107,
      "chip": "ym2612"
    },
    {
      "channel": 1,
      "note": 51,
      "start": 26.8481,
      "duration": 0.1637,
      "velocity": 105,
      "chip": "ym2612"
    },
    {
      "channel": 2,
      "note": 62,
      "start": 26.8499,
      "duration": 0.062,
      "velocity": 107,
      "chip": "ym2612"
    },
    {
      "channel": 2,
      "note": 62,
      "start": 27.0197,
      "duration": 0.0424,
      "velocity": 107,
      "chip": "ym2612"
    },
    {
      "channel": 2,
      "note": 62,
      "start": 27.1324,
      "duration": 0.0466,
      "velocity": 107,
      "chip": "ym2612"
    },
    {
      "channel": 1,
      "note": 51,
      "start": 27.2322,
      "duration": 0.1671,
      "velocity": 105,
      "chip": "ym2612"
    },
    {
      "channel": 2,
      "note": 62,
      "start": 27.2354,
      "duration": 0.0437,
      "velocity": 107,
      "chip": "ym2612"
    },
    {
      "channel": 2,
      "note": 62,
      "start": 27.3327,
      "duration": 0.0465,
      "velocity": 107,
      "chip": "ym2612"
    },
    {
      "channel": 4,
      "note": 46,
      "start": 27.4012,
      "duration": 0.0018,
      "velocity": 97,
      "chip": "ym2612"
    },
    {
      "channel": 2,
      "note": 62,
      "start": 27.4029,
      "duration": 0.0001,
      "velocity": 107,
      "chip": "ym2612"
    },
    {
      "channel": 4,
      "note": 47,
      "start": 27.4048,
      "duration": 0.0,
      "velocity": 97,
      "chip": "ym2612"
    },
    {
      "channel": 1,
      "note": 51,
      "start": 27.4068,
      "duration": 0.0055,
      "velocity": 105,
      "chip": "ym2612"
    },
    {
      "channel": 4,
      "note": 46,
      "start": 27.4085,
      "duration": 0.0018,
      "velocity": 97,
      "chip": "ym2612"
    },
    {
      "channel": 2,
      "note": 62,
      "start": 27.4103,
      "duration": 0.0001,
      "velocity": 107,
      "chip": "ym2612"
    },
    {
      "channel": 4,
      "note": 47,
      "start": 27.4122,
      "duration": 0.0001,
      "velocity": 97,
      "chip": "ym2612"
    },
    {
      "channel": 4,
      "note": 52,
      "start": 27.4141,
      "duration": 0.1588,
      "velocity": 97,
      "chip": "ym2612"
    },
    {
      "channel": 1,
      "note": 51,
      "start": 27.5763,
      "duration": 0.1967,
      "velocity": 105,
      "chip": "ym2612"
    },
    {
      "channel": 4,
      "note": 46,
      "start": 27.5795,
      "duration": 0.1937,
      "velocity": 97,
      "chip": "ym2612"
    },
    {
      "channel": 2,
      "note": 62,
      "start": 27.5827,
      "duration": 0.0902,
      "velocity": 107,
      "chip": "ym2612"
    },
    {
      "channel": 2,
      "note": 62,
      "start": 27.7769,
      "duration": 0.0964,
      "velocity": 107,
      "chip": "ym2612"
    },
    {
      "channel": 0,
      "note": 58,
      "start": 27.7806,
      "duration": 0.3929,
      "velocity": 115,
      "chip": "ym2612"
    },
    {
      "channel": 1,
      "note": 51,
      "start": 27.9766,
      "duration": 0.1969,
      "velocity": 105,
      "chip": "ym2612"
    },
    {
      "channel": 2,
      "note": 62,
      "start": 27.9799,
      "duration": 0.0937,
      "velocity": 107,
      "chip": "ym2612"
    },
    {
      "channel": 2,
      "note": 62,
      "start": 28.1814,
      "duration": 0.0423,
      "velocity": 107,
      "chip": "ym2612"
    },
    {
      "channel": 0,
      "note": 57,
      "start": 28.185,
      "duration": 2.9401,
      "velocity": 115,
      "chip": "ym2612"
    },
    {
      "channel": 2,
      "note": 62,
      "start": 28.2774,
      "duration": 0.0465,
      "velocity": 107,
      "chip": "ym2612"
    },
    {
      "channel": 1,
      "note": 51,
      "start": 28.3772,
      "duration": 0.1968,
      "velocity": 105,
      "chip": "ym2612"
    },
    {
      "channel": 2,
      "note": 62,
      "start": 28.3804,
      "duration": 0.0435,
      "velocity": 107,
      "chip": "ym2612"
    },
    {
      "channel": 2,
      "note": 62,
      "start": 28.4776,
      "duration": 0.0465,
      "velocity": 107,
      "chip": "ym2612"
    },
    {
      "channel": 4,
      "note": 46,
      "start": 28.5796,
      "duration": 0.0946,
      "velocity": 97,
      "chip": "ym2612"
    },
    {
      "channel": 2,
      "note": 62,
      "start": 28.583,
      "duration": 0.0914,
      "velocity": 107,
      "chip": "ym2612"
    },
    {
      "channel": 4,
      "note": 47,
      "start": 28.6779,
      "duration": 0.0964,
      "velocity": 97,
      "chip": "ym2612"
    },
    {
      "channel": 1,
      "note": 51,
      "start": 28.7781,
      "duration": 0.1963,
      "velocity": 105,
      "chip": "ym2612"
    },
    {
      "channel": 4,
      "note": 46,
      "start": 28.7812,
      "duration": 0.0933,
      "velocity": 97,
      "chip": "ym2612"
    },
    {
      "channel": 2,
      "note": 62,
      "start": 28.7848,
      "duration": 0.0899,
      "velocity": 107,
      "chip": "ym2612"
    },
    {
      "channel": 4,
      "note": 47,
      "start": 28.8782,
      "duration": 0.0965,
      "velocity": 97,
      "chip": "ym2612"
    },
    {
      "channel": 4,
      "note": 52,
      "start": 28.9789,
      "duration": 0.1959,
      "velocity": 97,
      "chip": "ym2612"
    },
    {
      "channel": 1,
      "note": 51,
      "start": 29.1783,
      "duration": 0.1968,
      "velocity": 105,
      "chip": "ym2612"
    },
    {
      "channel": 4,
      "note": 46,
      "start": 29.1815,
      "duration": 0.1937,
      "velocity": 97,
      "chip": "ym2612"
    },
    {
      "channel": 2,
      "note": 62,
      "start": 29.1847,
      "duration": 0.0904,
      "velocity": 107,
      "chip": "ym2612"
    },
    {
      "channel": 2,
      "note": 62,
      "start": 29.379,
      "duration": 0.0963,
      "velocity": 107,
      "chip": "ym2612"
    },
    {
      "channel": 1,
      "note": 51,
      "start": 29.5787,
      "duration": 0.1968,
      "velocity": 105,
      "chip": "ym2612"
    },
    {
      "channel": 2,
      "note": 62,
      "start": 29.5819,
      "duration": 0.0937,
      "velocity": 107,
      "chip": "ym2612"
    },
    {
      "channel": 2,
      "note": 62,
      "start": 29.7834,
      "duration": 0.0424,
      "velocity": 107,
      "chip": "ym2612"
    },
    {
      "channel": 2,
      "note": 62,
      "start": 29.8794,
      "duration": 0.0465,
      "velocity": 107,
      "chip": "ym2612"
    },
    {
      "channel": 1,
      "note": 51,
      "start": 29.9792,
      "duration": 0.1968,
      "velocity": 105,
      "chip": "ym2612"
    },
    {
      "channel": 2,
      "note": 62,
      "start": 29.9824,
      "duration": 0.0437,
      "velocity": 107,
      "chip": "ym2612"
    },
    {
      "channel": 2,
      "note": 62,
      "start": 30.0796,
      "duration": 0.0465,
      "velocity": 107,
      "chip": "ym2612"
    },
    {
      "channel": 4,
      "note": 46,
      "start": 30.1817,
      "duration": 0.0946,
      "velocity": 97,
      "chip": "ym2612"
    },
    {
      "channel": 2,
      "note": 62,
      "start": 30.1851,
      "duration": 0.0914,
      "velocity": 107,
      "chip": "ym2612"
    },
    {
      "channel": 4,
      "note": 47,
      "start": 30.2799,
      "duration": 0.0044,
      "velocity": 97,
      "chip": "ym2612"
    },
    {
      "channel": 1,
      "note": 51,
      "start": 30.2863,
      "duration": 0.0713,
      "velocity": 105,
      "chip": "ym2612"
    },
    {
      "channel": 4,
      "note": 46,
      "start": 30.2881,
      "duration": 0.0018,
      "velocity": 97,
      "chip": "ym2612"
    },
    {
      "channel": 2,
      "note": 62,
      "start": 30.2898,
      "duration": 0.0001,
      "velocity": 107,
      "chip": "ym2612"
    },
    {
      "channel": 4,
      "note": 47,
      "start": 30.2917,
      "duration": 0.066,
      "velocity": 97,
      "chip": "ym2612"
    },
    {
      "channel": 4,
      "note": 52,
      "start": 30.362,
      "duration": 0.196,
      "velocity": 97,
      "chip": "ym2612"
    },
    {
      "channel": 1,
      "note": 51,
      "start": 30.5614,
      "duration": 0.2133,
      "velocity": 105,
      "chip": "ym2612"
    },
    {
      "channel": 4,
      "note": 46,
      "start": 30.5646,
      "duration": 0.2103,
      "velocity": 97,
      "chip": "ym2612"
    },
    {
      "channel": 2,
      "note": 62,
      "start": 30.5679,
      "duration": 0.0902,
      "velocity": 107,
      "chip": "ym2612"
    },
    {
      "channel": 2,
      "note": 62,
      "start": 30.7786,
      "duration": 0.0965,
      "velocity": 107,
      "chip": "ym2612"
    },
    {
      "channel": 1,
      "note": 51,
      "start": 30.9785,
      "duration": 0.1968,
      "velocity": 105,
      "chip": "ym2612"
    },
    {
      "channel": 2,
      "note": 62,
      "start": 30.9817,
      "duration": 0.0936,
      "velocity": 107,
      "chip": "ym2612"
    },
    {
      "channel": 2,
      "note": 62,
      "start": 31.1831,
      "duration": 0.0424,
      "velocity": 107,
      "chip": "ym2612"
    },
    {
      "channel": 0,
      "note": 51,
      "start": 31.1867,
      "duration": 2.5232,
      "velocity": 115,
      "chip": "ym2612"
    },
    {
      "channel": 2,
      "note": 62,
      "start": 31.2792,
      "duration": 0.0465,
      "velocity": 107,
      "chip": "ym2612"
    },
    {
      "channel": 1,
      "note": 51,
      "start": 31.379,
      "duration": 0.1968,
      "velocity": 105,
      "chip": "ym2612"
    },
    {
      "channel": 2,
      "note": 62,
      "start": 31.3822,
      "duration": 0.0435,
      "velocity": 107,
      "chip": "ym2612"
    },
    {
      "channel": 2,
      "note": 62,
      "start": 31.4794,
      "duration": 0.0465,
      "velocity": 107,
      "chip": "ym2612"
    },
    {
      "channel": 4,
      "note": 46,
      "start": 31.5815,
      "duration": 0.0946,
      "velocity": 97,
      "chip": "ym2612"
    },
    {
      "channel": 2,
      "note": 62,
      "start": 31.5849,
      "duration": 0.0914,
      "velocity": 107,
      "chip": "ym2612"
    },
    {
      "channel": 4,
      "note": 47,
      "start": 31.6797,
      "duration": 0.0964,
      "velocity": 97,
      "chip": "ym2612"
    },
    {
      "channel": 1,
      "note": 51,
      "start": 31.7796,
      "duration": 0.1968,
      "velocity": 105,
      "chip": "ym2612"
    },
    {
      "channel": 4,
      "note": 46,
      "start": 31.7826,
      "duration": 0.0936,
      "velocity": 97,
      "chip": "ym2612"
    },
    {
      "channel": 2,
      "note": 62,
      "start": 31.7863,
      "duration": 0.0901,
      "velocity": 107,
      "chip": "ym2612"
    },
    {
      "channel": 4,
      "note": 47,
      "start": 31.8799,
      "duration": 0.0967,
      "velocity": 97,
      "chip": "ym2612"
    },
    {
      "channel": 4,
      "note": 52,
      "start": 31.9808,
      "duration": 0.1959,
      "velocity": 97,
      "chip": "ym2612"
    },
    {
      "channel": 1,
      "note": 51,
      "start": 32.1801,
      "duration": 0.1966,
      "velocity": 105,
      "chip": "ym2612"
    },
    {
      "channel": 4,
      "note": 46,
      "start": 32.1833,
      "duration": 0.1936,
      "velocity": 97,
      "chip": "ym2612"
    },
    {
      "channel": 2,
      "note": 62,
      "start": 32.1866,
      "duration": 0.0904,
      "velocity": 107,
      "chip": "ym2612"
    },
    {
      "channel": 2,
      "note": 62,
      "start": 32.3807,
      "duration": 0.0965,
      "velocity": 107,
      "chip": "ym2612"
    },
    {
      "channel": 1,
      "note": 51,
      "start": 32.5805,
      "duration": 0.1968,
      "velocity": 105,
      "chip": "ym2612"
    },
    {
      "channel": 2,
      "note": 62,
      "start": 32.5837,
      "duration": 0.0937,
      "velocity": 107,
      "chip": "ym2612"
    },
    {
      "channel": 2,
      "note": 62,
      "start": 32.7852,
      "duration": 0.0424,
      "velocity": 107,
      "chip": "ym2612"
    },
    {
      "channel": 2,
      "note": 62,
      "start": 32.8812,
      "duration": 0.0465,
      "velocity": 107,
      "chip": "ym2612"
    },
    {
      "channel": 1,
      "note": 51,
      "start": 32.9811,
      "duration": 0.1968,
      "velocity": 105,
      "chip": "ym2612"
    },
    {
      "channel": 2,
      "note": 62,
      "start": 32.9843,
      "duration": 0.0435,
      "velocity": 107,
      "chip": "ym2612"
    },
    {
      "channel": 2,
      "note": 62,
      "start": 33.0815,
      "duration": 0.0465,
      "velocity": 107,
      "chip": "ym2612"
    },
    {
      "channel": 4,
      "note": 46,
      "start": 33.1835,
      "duration": 0.0946,
      "velocity": 97,
      "chip": "ym2612"
    },
    {
      "channel": 2,
      "note": 62,
      "start": 33.1869,
      "duration": 0.0914,
      "velocity": 107,
      "chip": "ym2612"
    },
    {
      "channel": 4,
      "note": 47,
      "start": 33.2818,
      "duration": 0.0964,
      "velocity": 97,
      "chip": "ym2612"
    },
    {
      "channel": 1,
      "note": 51,
      "start": 33.3816,
      "duration": 0.1839,
      "velocity": 105,
      "chip": "ym2612"
    },
    {
      "channel": 4,
      "note": 46,
      "start": 33.3847,
      "duration": 0.0936,
      "velocity": 97,
      "chip": "ym2612"
    },
    {
      "channel": 2,
      "note": 62,
      "start": 33.3883,
      "duration": 0.0901,
      "velocity": 107,
      "chip": "ym2612"
    },
    {
      "channel": 4,
      "note": 47,
      "start": 33.4819,
      "duration": 0.0837,
      "velocity": 97,
      "chip": "ym2612"
    },
    {
      "channel": 4,
      "note": 52,
      "start": 33.5674,
      "duration": 0.0,
      "velocity": 97,
      "chip": "ym2612"
    },
    {
      "channel": 1,
      "note": 51,
      "start": 33.5693,
      "duration": 0.1908,
      "velocity": 105,
      "chip": "ym2612"
    },
    {
      "channel": 4,
      "note": 46,
      "start": 33.5727,
      "duration": 0.1876,
      "velocity": 97,
      "chip": "ym2612"
    },
    {
      "channel": 2,
      "note": 62,
      "start": 33.576,
      "duration": 0.0842,
      "velocity": 107,
      "chip": "ym2612"
    },
    {
      "channel": 2,
      "note": 62,
      "start": 33.764,
      "duration": 0.0964,
      "velocity": 107,
      "chip": "ym2612"
    },
    {
      "channel": 0,
      "note": 61,
      "start": 33.7673,
      "duration": 0.3933,
      "velocity": 115,
      "chip": "ym2612"
    },
    {
      "channel": 1,
      "note": 51,
      "start": 33.9638,
      "duration": 0.1969,
      "velocity": 105,
      "chip": "ym2612"
    },
    {
      "channel": 2,
      "note": 62,
      "start": 33.967,
      "duration": 0.0937,
      "velocity": 107,
      "chip": "ym2612"
    },
    {
      "channel": 2,
      "note": 62,
      "start": 34.1686,
      "duration": 0.0422,
      "velocity": 107,
      "chip": "ym2612"
    },
    {
      "channel": 0,
      "note": 59,
      "start": 34.1726,
      "duration": 1.6068,
      "velocity": 115,
      "chip": "ym2612"
    },
    {
      "channel": 2,
      "note": 62,
      "start": 34.2645,
      "duration": 0.0465,
      "velocity": 107,
      "chip": "ym2612"
    },
    {
      "channel": 1,
      "note": 51,
      "start": 34.3643,
      "duration": 0.1968,
      "velocity": 105,
      "chip": "ym2612"
    },
    {
      "channel": 2,
      "note": 62,
      "start": 34.3675,
      "duration": 0.0437,
      "velocity": 107,
      "chip": "ym2612"
    },
    {
      "channel": 2,
      "note": 62,
      "start": 34.4647,
      "duration": 0.0466,
      "velocity": 107,
      "chip": "ym2612"
    },
    {
      "channel": 4,
      "note": 46,
      "start": 34.5667,
      "duration": 0.0946,
      "velocity": 97,
      "chip": "ym2612"
    },
    {
      "channel": 2,
      "note": 62,
      "start": 34.5702,
      "duration": 0.0914,
      "velocity": 107,
      "chip": "ym2612"
    },
    {
      "channel": 4,
      "note": 47,
      "start": 34.665,
      "duration": 0.1132,
      "velocity": 97,
      "chip": "ym2612"
    },
    {
      "channel": 1,
      "note": 51,
      "start": 34.782,
      "duration": 0.1963,
      "velocity": 105,
      "chip": "ym2612"
    },
    {
      "channel": 4,
      "note": 46,
      "start": 34.7851,
      "duration": 0.0932,
      "velocity": 97,
      "chip": "ym2612"
    },
    {
      "channel": 2,
      "note": 62,
      "start": 34.7887,
      "duration": 0.0897,
      "velocity": 107,
      "chip": "ym2612"
    },
    {
      "channel": 4,
      "note": 47,
      "start": 34.8819,
      "duration": 0.0966,
      "velocity": 97,
      "chip": "ym2612"
    },
    {
      "channel": 4,
      "note": 52,
      "start": 34.9828,
      "duration": 0.1959,
      "velocity": 97,
      "chip": "ym2612"
    },
    {
      "channel": 1,
      "note": 51,
      "start": 35.1822,
      "duration": 0.1968,
      "velocity": 105,
      "chip": "ym2612"
    },
    {
      "channel": 4,
      "note": 46,
      "start": 35.1854,
      "duration": 0.1937,
      "velocity": 97,
      "chip": "ym2612"
    },
    {
      "channel": 2,
      "note": 62,
      "start": 35.1886,
      "duration": 0.0904,
      "velocity": 107,
      "chip": "ym2612"
    },
    {
      "channel": 2,
      "note": 62,
      "start": 35.3829,
      "duration": 0.0963,
      "velocity": 107,
      "chip": "ym2612"
    },
    {
      "channel": 1,
      "note": 51,
      "start": 35.5826,
      "duration": 0.1969,
      "velocity": 105,
      "chip": "ym2612"
    },
    {
      "channel": 2,
      "note": 62,
      "start": 35.5858,
      "duration": 0.0937,
      "velocity": 107,
      "chip": "ym2612"
    },
    {
      "channel": 2,
      "note": 62,
      "start": 35.7874,
      "duration": 0.0422,
      "velocity": 107,
      "chip": "ym2612"
    },
    {
      "channel": 0,
      "note": 61,
      "start": 35.7904,
      "duration": 0.7094,
      "velocity": 115,
      "chip": "ym2612"
    },
    {
      "channel": 2,
      "note": 62,
      "start": 35.8833,
      "duration": 0.0465,
      "velocity": 107,
      "chip": "ym2612"
    },
    {
      "channel": 1,
      "note": 51,
      "start": 35.9525,
      "duration": 0.0037,
      "velocity": 105,
      "chip": "ym2612"
    },
    {
      "channel": 2,
      "note": 62,
      "start": 35.9543,
      "duration": 0.0,
      "velocity": 107,
      "chip": "ym2612"
    },
    {
      "channel": 2,
      "note": 62,
      "start": 35.9561,
      "duration": 0.0,
      "velocity": 107,
      "chip": "ym2612"
    },
    {
      "channel": 4,
      "note": 46,
      "start": 35.958,
      "duration": 0.0017,
      "velocity": 97,
      "chip": "ym2612"
    },
    {
      "channel": 2,
      "note": 62,
      "start": 35.9597,
      "duration": 0.0001,
      "velocity": 107,
      "chip": "ym2612"
    },
    {
      "channel": 4,
      "note": 47,
      "start": 35.9616,
      "duration": 0.0,
      "velocity": 97,
      "chip": "ym2612"
    },
    {
      "channel": 1,
      "note": 51,
      "start": 35.9636,
      "duration": 0.1599,
      "velocity": 105,
      "chip": "ym2612"
    },
    {
      "channel": 4,
      "note": 46,
      "start": 35.9654,
      "duration": 0.058,
      "velocity": 97,
      "chip": "ym2612"
    },
    {
      "channel": 2,
      "note": 62,
      "start": 35.9671,
      "duration": 0.0564,
      "velocity": 107,
      "chip": "ym2612"
    },
    {
      "channel": 4,
      "note": 47,
      "start": 36.027,
      "duration": 0.0966,
      "velocity": 97,
      "chip": "ym2612"
    },
    {
      "channel": 4,
      "note": 52,
      "start": 36.1279,
      "duration": 0.1959,
      "velocity": 97,
      "chip": "ym2612"
    },
    {
      "channel": 1,
      "note": 51,
      "start": 36.3272,
      "duration": 0.1669,
      "velocity": 105,
      "chip": "ym2612"
    },
    {
      "channel": 4,
      "note": 46,
      "start": 36.3304,
      "duration": 0.1638,
      "velocity": 97,
      "chip": "ym2612"
    },
    {
      "channel": 2,
      "note": 62,
      "start": 36.3337,
      "duration": 0.0904,
      "velocity": 107,
      "chip": "ym2612"
    },
    {
      "channel": 2,
      "note": 62,
      "start": 36.4959,
      "duration": 0.0,
      "velocity": 107,
      "chip": "ym2612"
    },
    {
      "channel": 1,
      "note": 51,
      "start": 36.4979,
      "duration": 0.0019,
      "velocity": 105,
      "chip": "ym2612"
    },
    {
      "channel": 2,
      "note": 62,
      "start": 36.4997,
      "duration": 0.0,
      "velocity": 107,
      "chip": "ym2612"
    },
    {
      "channel": 2,
      "note": 62,
      "start": 36.5015,
      "duration": 0.0167,
      "velocity": 107,
      "chip": "ym2612"
    },
    {
      "channel": 0,
      "note": 51,
      "start": 36.5035,
      "duration": 2.7346,
      "velocity": 115,
      "chip": "ym2612"
    },
    {
      "channel": 2,
      "note": 62,
      "start": 36.5718,
      "duration": 0.0465,
      "velocity": 107,
      "chip": "ym2612"
    },
    {
      "channel": 1,
      "note": 51,
      "start": 36.6717,
      "duration": 0.1968,
      "velocity": 105,
      "chip": "ym2612"
    },
    {
      "channel": 2,
      "note": 62,
      "start": 36.6749,
      "duration": 0.0437,
      "velocity": 107,
      "chip": "ym2612"
    },
    {
      "channel": 2,
      "note": 62,
      "start": 36.772,
      "duration": 0.0465,
      "velocity": 107,
      "chip": "ym2612"
    },
    {
      "channel": 4,
      "note": 46,
      "start": 36.8741,
      "duration": 0.0946,
      "velocity": 97,
      "chip": "ym2612"
    },
    {
      "channel": 2,
      "note": 62,
      "start": 36.8775,
      "duration": 0.0914,
      "velocity": 107,
      "chip": "ym2612"
    },
    {
      "channel": 4,
      "note": 47,
      "start": 36.9724,
      "duration": 0.0965,
      "velocity": 97,
      "chip": "ym2612"
    },
    {
      "channel": 1,
      "note": 51,
      "start": 37.0723,
      "duration": 0.1966,
      "velocity": 105,
      "chip": "ym2612"
    },
    {
      "channel": 4,
      "note": 46,
      "start": 37.0754,
      "duration": 0.0936,
      "velocity": 97,
      "chip": "ym2612"
    },
    {
      "channel": 2,
      "note": 62,
      "start": 37.079,
      "duration": 0.0902,
      "velocity": 107,
      "chip": "ym2612"
    },
    {
      "channel": 4,
      "note": 47,
      "start": 37.1726,
      "duration": 0.0965,
      "velocity": 97,
      "chip": "ym2612"
    },
    {
      "channel": 4,
      "note": 52,
      "start": 37.2734,
      "duration": 0.196,
      "velocity": 97,
      "chip": "ym2612"
    },
    {
      "channel": 1,
      "note": 51,
      "start": 37.4729,
      "duration": 0.1966,
      "velocity": 105,
      "chip": "ym2612"
    },
    {
      "channel": 4,
      "note": 46,
      "start": 37.4761,
      "duration": 0.1936,
      "velocity": 97,
      "chip": "ym2612"
    },
    {
      "channel": 2,
      "note": 62,
      "start": 37.4793,
      "duration": 0.0902,
      "velocity": 107,
      "chip": "ym2612"
    },
    {
      "channel": 2,
      "note": 62,
      "start": 37.6734,
      "duration": 0.0964,
      "velocity": 107,
      "chip": "ym2612"
    },
    {
      "channel": 1,
      "note": 51,
      "start": 37.8733,
      "duration": 0.1967,
      "velocity": 105,
      "chip": "ym2612"
    },
    {
      "channel": 2,
      "note": 62,
      "start": 37.8765,
      "duration": 0.0936,
      "velocity": 107,
      "chip": "ym2612"
    },
    {
      "channel": 2,
      "note": 62,
      "start": 38.0779,
      "duration": 0.0592,
      "velocity": 107,
      "chip": "ym2612"
    },
    {
      "channel": 2,
      "note": 62,
      "start": 38.1907,
      "duration": 0.0465,
      "velocity": 107,
      "chip": "ym2612"
    },
    {
      "channel": 1,
      "note": 51,
      "start": 38.2905,
      "duration": 0.1968,
      "velocity": 105,
      "chip": "ym2612"
    },
    {
      "channel": 2,
      "note": 62,
      "start": 38.2937,
      "duration": 0.0435,
      "velocity": 107,
      "chip": "ym2612"
    },
    {
      "channel": 2,
      "note": 62,
      "start": 38.3909,
      "duration": 0.0465,
      "velocity": 107,
      "chip": "ym2612"
    },
    {
      "channel": 4,
      "note": 46,
      "start": 38.4929,
      "duration": 0.0945,
      "velocity": 97,
      "chip": "ym2612"
    },
    {
      "channel": 2,
      "note": 62,
      "start": 38.4963,
      "duration": 0.0912,
      "velocity": 107,
      "chip": "ym2612"
    },
    {
      "channel": 4,
      "note": 47,
      "start": 38.5911,
      "duration": 0.0965,
      "velocity": 97,
      "chip": "ym2612"
    },
    {
      "channel": 1,
      "note": 51,
      "start": 38.6911,
      "duration": 0.1968,
      "velocity": 105,
      "chip": "ym2612"
    },
    {
      "channel": 4,
      "note": 46,
      "start": 38.6941,
      "duration": 0.0936,
      "velocity": 97,
      "chip": "ym2612"
    },
    {
      "channel": 2,
      "note": 62,
      "start": 38.6977,
      "duration": 0.0902,
      "velocity": 107,
      "chip": "ym2612"
    },
    {
      "channel": 4,
      "note": 47,
      "start": 38.7914,
      "duration": 0.0966,
      "velocity": 97,
      "chip": "ym2612"
    },
    {
      "channel": 4,
      "note": 52,
      "start": 38.8923,
      "duration": 0.1959,
      "velocity": 97,
      "chip": "ym2612"
    },
    {
      "channel": 1,
      "note": 51,
      "start": 39.0916,
      "duration": 0.1967,
      "velocity": 105,
      "chip": "ym2612"
    },
    {
      "channel": 4,
      "note": 46,
      "start": 39.0948,
      "duration": 0.1937,
      "velocity": 97,
      "chip": "ym2612"
    },
    {
      "channel": 2,
      "note": 62,
      "start": 39.098,
      "duration": 0.0904,
      "velocity": 107,
      "chip": "ym2612"
    },
    {
      "channel": 2,
      "note": 62,
      "start": 39.2922,
      "duration": 0.0964,
      "velocity": 107,
      "chip": "ym2612"
    },
    {
      "channel": 0,
      "note": 58,
      "start": 39.2955,
      "duration": 0.1746,
      "velocity": 115,
      "chip": "ym2612"
    },
    {
      "channel": 1,
      "note": 51,
      "start": 39.3957,
      "duration": 0.0745,
      "velocity": 105,
      "chip": "ym2612"
    },
    {
      "channel": 2,
      "note": 62,
      "start": 39.3974,
      "duration": 0.0,
      "velocity": 107,
      "chip": "ym2612"
    },
    {
      "channel": 2,
      "note": 62,
      "start": 39.478,
      "duration": 0.0424,
      "velocity": 107,
      "chip": "ym2612"
    },
    {
      "channel": 0,
      "note": 57,
      "start": 39.482,
      "duration": 3.1588,
      "velocity": 115,
      "chip": "ym2612"
    },
    {
      "channel": 2,
      "note": 62,
      "start": 39.5741,
      "duration": 0.0465,
      "velocity": 107,
      "chip": "ym2612"
    },
    {
      "channel": 1,
      "note": 51,
      "start": 39.6739,
      "duration": 0.1968,
      "velocity": 105,
      "chip": "ym2612"
    },
    {
      "channel": 2,
      "note": 62,
      "start": 39.6771,
      "duration": 0.0435,
      "velocity": 107,
      "chip": "ym2612"
    },
    {
      "channel": 2,
      "note": 62,
      "start": 39.7743,
      "duration": 0.0465,
      "velocity": 107,
      "chip": "ym2612"
    },
    {
      "channel": 4,
      "note": 46,
      "start": 39.8763,
      "duration": 0.0946,
      "velocity": 97,
      "chip": "ym2612"
    },
    {
      "channel": 2,
      "note": 62,
      "start": 39.8798,
      "duration": 0.0914,
      "velocity": 107,
      "chip": "ym2612"
    },
    {
      "channel": 4,
      "note": 47,
      "start": 39.9746,
      "duration": 0.0964,
      "velocity": 97,
      "chip": "ym2612"
    },
    {
      "channel": 1,
      "note": 51,
      "start": 40.0748,
      "duration": 0.1963,
      "velocity": 105,
      "chip": "ym2612"
    },
    {
      "channel": 4,
      "note": 46,
      "start": 40.0779,
      "duration": 0.0933,
      "velocity": 97,
      "chip": "ym2612"
    },
    {
      "channel": 2,
      "note": 62,
      "start": 40.0815,
      "duration": 0.0899,
      "velocity": 107,
      "chip": "ym2612"
    },
    {
      "channel": 4,
      "note": 47,
      "start": 40.1749,
      "duration": 0.0965,
      "velocity": 97,
      "chip": "ym2612"
    },
    {
      "channel": 4,
      "note": 52,
      "start": 40.2756,
      "duration": 0.1959,
      "velocity": 97,
      "chip": "ym2612"
    },
    {
      "channel": 1,
      "note": 51,
      "start": 40.4749,
      "duration": 0.1968,
      "velocity": 105,
      "chip": "ym2612"
    },
    {
      "channel": 4,
      "note": 46,
      "start": 40.4781,
      "duration": 0.1938,
      "velocity": 97,
      "chip": "ym2612"
    },
    {
      "channel": 2,
      "note": 62,
      "start": 40.4814,
      "duration": 0.0904,
      "velocity": 107,
      "chip": "ym2612"
    },
    {
      "channel": 2,
      "note": 62,
      "start": 40.6756,
      "duration": 0.0963,
      "velocity": 107,
      "chip": "ym2612"
    },
    {
      "channel": 1,
      "note": 51,
      "start": 40.8754,
      "duration": 0.1969,
      "velocity": 105,
      "chip": "ym2612"
    },
    {
      "channel": 2,
      "note": 62,
      "start": 40.8786,
      "duration": 0.0937,
      "velocity": 107,
      "chip": "ym2612"
    },
    {
      "channel": 2,
      "note": 62,
      "start": 41.0801,
      "duration": 0.0424,
      "velocity": 107,
      "chip": "ym2612"
    },
    {
      "channel": 2,
      "note": 62,
      "start": 41.1761,
      "duration": 0.0465,
      "velocity": 107,
      "chip": "ym2612"
    },
    {
      "channel": 1,
      "note": 51,
      "start": 41.2759,
      "duration": 0.1968,
      "velocity": 105,
      "chip": "ym2612"
    },
    {
      "channel": 2,
      "note": 62,
      "start": 41.2791,
      "duration": 0.0435,
      "velocity": 107,
      "chip": "ym2612"
    },
    {
      "channel": 2,
      "note": 62,
      "start": 41.3763,
      "duration": 0.0465,
      "velocity": 107,
      "chip": "ym2612"
    },
    {
      "channel": 4,
      "note": 46,
      "start": 41.4783,
      "duration": 0.0946,
      "velocity": 97,
      "chip": "ym2612"
    },
    {
      "channel": 2,
      "note": 62,
      "start": 41.4817,
      "duration": 0.0914,
      "velocity": 107,
      "chip": "ym2612"
    },
    {
      "channel": 4,
      "note": 47,
      "start": 41.5766,
      "duration": 0.0964,
      "velocity": 97,
      "chip": "ym2612"
    },
    {
      "channel": 1,
      "note": 51,
      "start": 41.6765,
      "duration": 0.1968,
      "velocity": 105,
      "chip": "ym2612"
    },
    {
      "channel": 4,
      "note": 46,
      "start": 41.6795,
      "duration": 0.0937,
      "velocity": 97,
      "chip": "ym2612"
    },
    {
      "channel": 2,
      "note": 62,
      "start": 41.6832,
      "duration": 0.0903,
      "velocity": 107,
      "chip": "ym2612"
    },
    {
      "channel": 4,
      "note": 47,
      "start": 41.7769,
      "duration": 0.0965,
      "velocity": 97,
      "chip": "ym2612"
    },
    {
      "channel": 4,
      "note": 52,
      "start": 41.8777,
      "duration": 0.1959,
      "velocity": 97,
      "chip": "ym2612"
    },
    {
      "channel": 1,
      "note": 51,
      "start": 42.077,
      "duration": 0.2134,
      "velocity": 105,
      "chip": "ym2612"
    },
    {
      "channel": 4,
      "note": 46,
      "start": 42.0802,
      "duration": 0.2104,
      "velocity": 97,
      "chip": "ym2612"
    },
    {
      "channel": 2,
      "note": 62,
      "start": 42.0834,
      "duration": 0.107,
      "velocity": 107,
      "chip": "ym2612"
    },
    {
      "channel": 2,
      "note": 62,
      "start": 42.2944,
      "duration": 0.0963,
      "velocity": 107,
      "chip": "ym2612"
    },
    {
      "channel": 1,
      "note": 51,
      "start": 42.4942,
      "duration": 0.1839,
      "velocity": 105,
      "chip": "ym2612"
    },
    {
      "channel": 2,
      "note": 62,
      "start": 42.4974,
      "duration": 0.0936,
      "velocity": 107,
      "chip": "ym2612"
    },
    {
      "channel": 2,
      "note": 62,
      "start": 42.6799,
      "duration": 0.002,
      "velocity": 107,
      "chip": "ym2612"
    },
    {
      "channel": 0,
      "note": 65,
      "start": 42.6819,
      "duration": 2.3663,
      "velocity": 115,
      "chip": "ym2612"
    },
    {
      "channel": 2,
      "note": 62,
      "start": 42.6837,
      "duration": 0.0002,
      "velocity": 107,
      "chip": "ym2612"
    },
    {
      "channel": 1,
      "note": 51,
      "start": 42.6861,
      "duration": 0.1831,
      "velocity": 105,
      "chip": "ym2612"
    },
    {
      "channel": 2,
      "note": 62,
      "start": 42.6878,
      "duration": 0.0313,
      "velocity": 107,
      "chip": "ym2612"
    },
    {
      "channel": 2,
      "note": 62,
      "start": 42.7728,
      "duration": 0.0464,
      "velocity": 107,
      "chip": "ym2612"
    },
    {
      "channel": 4,
      "note": 46,
      "start": 42.8748,
      "duration": 0.0946,
      "velocity": 97,
      "chip": "ym2612"
    },
    {
      "channel": 2,
      "note": 62,
      "start": 42.8782,
      "duration": 0.0914,
      "velocity": 107,
      "chip": "ym2612"
    },
    {
      "channel": 4,
      "note": 47,
      "start": 42.973,
      "duration": 0.0964,
      "velocity": 97,
      "chip": "ym2612"
    },
    {
      "channel": 1,
      "note": 51,
      "start": 43.0729,
      "duration": 0.1968,
      "velocity": 105,
      "chip": "ym2612"
    },
    {
      "channel": 4,
      "note": 46,
      "start": 43.076,
      "duration": 0.0937,
      "velocity": 97,
      "chip": "ym2612"
    },
    {
      "channel": 2,
      "note": 62,
      "start": 43.0796,
      "duration": 0.0902,
      "velocity": 107,
      "chip": "ym2612"
    },
    {
      "channel": 4,
      "note": 47,
      "start": 43.1733,
      "duration": 0.0966,
      "velocity": 97,
      "chip": "ym2612"
    },
    {
      "channel": 4,
      "note": 52,
      "start": 43.2741,
      "duration": 0.1958,
      "velocity": 97,
      "chip": "ym2612"
    },
    {
      "channel": 1,
      "note": 51,
      "start": 43.4734,
      "duration": 0.1967,
      "velocity": 105,
      "chip": "ym2612"
    },
    {
      "channel": 4,
      "note": 46,
      "start": 43.4766,
      "duration": 0.1937,
      "velocity": 97,
      "chip": "ym2612"
    },
    {
      "channel": 2,
      "note": 62,
      "start": 43.4798,
      "duration": 0.0904,
      "velocity": 107,
      "chip": "ym2612"
    },
    {
      "channel": 2,
      "note": 62,
      "start": 43.674,
      "duration": 0.0965,
      "velocity": 107,
      "chip": "ym2612"
    },
    {
      "channel": 1,
      "note": 51,
      "start": 43.8739,
      "duration": 0.1968,
      "velocity": 105,
      "chip": "ym2612"
    },
    {
      "channel": 2,
      "note": 62,
      "start": 43.8771,
      "duration": 0.0937,
      "velocity": 107,
      "chip": "ym2612"
    },
    {
      "channel": 2,
      "note": 62,
      "start": 44.0786,
      "duration": 0.0424,
      "velocity": 107,
      "chip": "ym2612"
    },
    {
      "channel": 2,
      "note": 62,
      "start": 44.1746,
      "duration": 0.0465,
      "velocity": 107,
      "chip": "ym2612"
    },
    {
      "channel": 1,
      "note": 51,
      "start": 44.2744,
      "duration": 0.1968,
      "velocity": 105,
      "chip": "ym2612"
    },
    {
      "channel": 2,
      "note": 62,
      "start": 44.2776,
      "duration": 0.0435,
      "velocity": 107,
      "chip": "ym2612"
    },
    {
      "channel": 2,
      "note": 62,
      "start": 44.3748,
      "duration": 0.0465,
      "velocity": 107,
      "chip": "ym2612"
    },
    {
      "channel": 4,
      "note": 46,
      "start": 44.4768,
      "duration": 0.0946,
      "velocity": 97,
      "chip": "ym2612"
    },
    {
      "channel": 2,
      "note": 62,
      "start": 44.4802,
      "duration": 0.0914,
      "velocity": 107,
      "chip": "ym2612"
    },
    {
      "channel": 4,
      "note": 47,
      "start": 44.5751,
      "duration": 0.0964,
      "velocity": 97,
      "chip": "ym2612"
    },
    {
      "channel": 1,
      "note": 51,
      "start": 44.675,
      "duration": 0.1968,
      "velocity": 105,
      "chip": "ym2612"
    },
    {
      "channel": 4,
      "note": 46,
      "start": 44.678,
      "duration": 0.0936,
      "velocity": 97,
      "chip": "ym2612"
    },
    {
      "channel": 2,
      "note": 62,
      "start": 44.6816,
      "duration": 0.0902,
      "velocity": 107,
      "chip": "ym2612"
    },
    {
      "channel": 4,
      "note": 47,
      "start": 44.7753,
      "duration": 0.0966,
      "velocity": 97,
      "chip": "ym2612"
    },
    {
      "channel": 4,
      "note": 52,
      "start": 44.8762,
      "duration": 0.1665,
      "velocity": 97,
      "chip": "ym2612"
    },
    {
      "channel": 1,
      "note": 51,
      "start": 45.0446,
      "duration": 0.0037,
      "velocity": 105,
      "chip": "ym2612"
    },
    {
      "channel": 4,
      "note": 46,
      "start": 45.0464,
      "duration": 0.0019,
      "velocity": 97,
      "chip": "ym2612"
    },
    {
      "channel": 2,
      "note": 62,
      "start": 45.0481,
      "duration": 0.0,
      "velocity": 107,
      "chip": "ym2612"
    },
    {
      "channel": 2,
      "note": 62,
      "start": 45.05,
      "duration": 0.002,
      "velocity": 107,
      "chip": "ym2612"
    },
    {
      "channel": 0,
      "note": 61,
      "start": 45.052,
      "duration": 0.1642,
      "velocity": 115,
      "chip": "ym2612"
    },
    {
      "channel": 1,
      "note": 51,
      "start": 45.0543,
      "duration": 0.1621,
      "velocity": 105,
      "chip": "ym2612"
    },
    {
      "channel": 2,
      "note": 62,
      "start": 45.056,
      "duration": 0.0604,
      "velocity": 107,
      "chip": "ym2612"
    },
    {
      "channel": 2,
      "note": 62,
      "start": 45.2243,
      "duration": 0.0423,
      "velocity": 107,
      "chip": "ym2612"
    },
    {
      "channel": 0,
      "note": 59,
      "start": 45.2279,
      "duration": 1.15,
      "velocity": 115,
      "chip": "ym2612"
    },
    {
      "channel": 2,
      "note": 62,
      "start": 45.3202,
      "duration": 0.0465,
      "velocity": 107,
      "chip": "ym2612"
    },
    {
      "channel": 1,
      "note": 51,
      "start": 45.4201,
      "duration": 0.167,
      "velocity": 105,
      "chip": "ym2612"
    },
    {
      "channel": 2,
      "note": 62,
      "start": 45.4233,
      "duration": 0.0437,
      "velocity": 107,
      "chip": "ym2612"
    },
    {
      "channel": 2,
      "note": 62,
      "start": 45.5205,
      "duration": 0.0465,
      "velocity": 107,
      "chip": "ym2612"
    },
    {
      "channel": 4,
      "note": 46,
      "start": 45.5889,
      "duration": 0.0018,
      "velocity": 97,
      "chip": "ym2612"
    },
    {
      "channel": 2,
      "note": 62,
      "start": 45.5906,
      "duration": 0.0001,
      "velocity": 107,
      "chip": "ym2612"
    },
    {
      "channel": 4,
      "note": 47,
      "start": 45.5925,
      "duration": 0.0,
      "velocity": 97,
      "chip": "ym2612"
    },
    {
      "channel": 1,
      "note": 51,
      "start": 45.5944,
      "duration": 0.0055,
      "velocity": 105,
      "chip": "ym2612"
    },
    {
      "channel": 4,
      "note": 46,
      "start": 45.5962,
      "duration": 0.0018,
      "velocity": 97,
      "chip": "ym2612"
    },
    {
      "channel": 2,
      "note": 62,
      "start": 45.598,
      "duration": 0.0001,
      "velocity": 107,
      "chip": "ym2612"
    },
    {
      "channel": 4,
      "note": 47,
      "start": 45.5999,
      "duration": 0.0001,
      "velocity": 97,
      "chip": "ym2612"
    },
    {
      "channel": 4,
      "note": 52,
      "start": 45.6017,
      "duration": 0.1755,
      "velocity": 97,
      "chip": "ym2612"
    },
    {
      "channel": 1,
      "note": 51,
      "start": 45.7807,
      "duration": 0.1967,
      "velocity": 105,
      "chip": "ym2612"
    },
    {
      "channel": 4,
      "note": 46,
      "start": 45.7839,
      "duration": 0.1937,
      "velocity": 97,
      "chip": "ym2612"
    },
    {
      "channel": 2,
      "note": 62,
      "start": 45.7871,
      "duration": 0.0903,
      "velocity": 107,
      "chip": "ym2612"
    },
    {
      "channel": 2,
      "note": 62,
      "start": 45.9813,
      "duration": 0.0965,
      "velocity": 107,
      "chip": "ym2612"
    },
    {
      "channel": 1,
      "note": 51,
      "start": 46.1811,
      "duration": 0.1969,
      "velocity": 105,
      "chip": "ym2612"
    },
    {
      "channel": 2,
      "note": 62,
      "start": 46.1843,
      "duration": 0.0937,
      "velocity": 107,
      "chip": "ym2612"
    },
    {
      "channel": 2,
      "note": 62,
      "start": 46.3859,
      "duration": 0.0423,
      "velocity": 107,
      "chip": "ym2612"
    },
    {
      "channel": 0,
      "note": 61,
      "start": 46.3898,
      "duration": 1.1562,
      "velocity": 115,
      "chip": "ym2612"
    },
    {
      "channel": 2,
      "note": 62,
      "start": 46.4817,
      "duration": 0.0466,
      "velocity": 107,
      "chip": "ym2612"
    },
    {
      "channel": 1,
      "note": 51,
      "start": 46.5817,
      "duration": 0.1967,
      "velocity": 105,
      "chip": "ym2612"
    },
    {
      "channel": 2,
      "note": 62,
      "start": 46.5849,
      "duration": 0.0435,
      "velocity": 107,
      "chip": "ym2612"
    },
    {
      "channel": 2,
      "note": 62,
      "start": 46.682,
      "duration": 0.0465,
      "velocity": 107,
      "chip": "ym2612"
    },
    {
      "channel": 4,
      "note": 46,
      "start": 46.7841,
      "duration": 0.0946,
      "velocity": 97,
      "chip": "ym2612"
    },
    {
      "channel": 2,
      "note": 62,
      "start": 46.7875,
      "duration": 0.0914,
      "velocity": 107,
      "chip": "ym2612"
    },
    {
      "channel": 4,
      "note": 47,
      "start": 46.8823,
      "duration": 0.0965,
      "velocity": 97,
      "chip": "ym2612"
    },
    {
      "channel": 1,
      "note": 51,
      "start": 46.9823,
      "duration": 0.1967,
      "velocity": 105,
      "chip": "ym2612"
    },
    {
      "channel": 4,
      "note": 46,
      "start": 46.9853,
      "duration": 0.0937,
      "velocity": 97,
      "chip": "ym2612"
    },
    {
      "channel": 2,
      "note": 62,
      "start": 46.9889,
      "duration": 0.0902,
      "velocity": 107,
      "chip": "ym2612"
    },
    {
      "channel": 4,
      "note": 47,
      "start": 47.0827,
      "duration": 0.0965,
      "velocity": 97,
      "chip": "ym2612"
    },
    {
      "channel": 4,
      "note": 52,
      "start": 47.1834,
      "duration": 0.1959,
      "velocity": 97,
      "chip": "ym2612"
    },
    {
      "channel": 1,
      "note": 51,
      "start": 47.3828,
      "duration": 0.1966,
      "velocity": 105,
      "chip": "ym2612"
    },
    {
      "channel": 4,
      "note": 46,
      "start": 47.386,
      "duration": 0.1936,
      "velocity": 97,
      "chip": "ym2612"
    },
    {
      "channel": 2,
      "note": 62,
      "start": 47.3893,
      "duration": 0.0903,
      "velocity": 107,
      "chip": "ym2612"
    },
    {
      "channel": 2,
      "note": 62,
      "start": 47.5834,
      "duration": 0.0964,
      "velocity": 107,
      "chip": "ym2612"
    },
    {
      "channel": 1,
      "note": 51,
      "start": 47.7835,
      "duration": 0.1797,
      "velocity": 105,
      "chip": "ym2612"
    },
    {
      "channel": 2,
      "note": 62,
      "start": 47.7867,
      "duration": 0.0934,
      "velocity": 107,
      "chip": "ym2612"
    },
    {
      "channel": 3,
      "note": 39,
      "start": 47.9923,
      "duration": 2.758,
      "velocity": 117,
      "chip": "ym2612"
    },
    {
      "channel": 5,
      "note": 45,
      "start": 48.002,
      "duration": 0.0783,
      "velocity": 125,
      "chip": "ym2612"
    },
    {
      "channel": 0,
      "note": 40,
      "start": 48.008,
      "duration": 0.1722,
      "velocity": 115,
      "chip": "ym2612"
    },
    {
      "channel": 0,
      "note": 39,
      "start": 48.1846,
      "duration": 0.1958,
      "velocity": 115,
      "chip": "ym2612"
    },
    {
      "channel": 5,
      "note": 45,
      "start": 48.3847,
      "duration": 0.096,
      "velocity": 125,
      "chip": "ym2612"
    },
    {
      "channel": 0,
      "note": 40,
      "start": 48.3878,
      "duration": 0.193,
      "velocity": 115,
      "chip": "ym2612"
    },
    {
      "channel": 0,
      "note": 39,
      "start": 48.5852,
      "duration": 0.1959,
      "velocity": 115,
      "chip": "ym2612"
    },
    {
      "channel": 5,
      "note": 45,
      "start": 48.7853,
      "duration": 0.096,
      "velocity": 125,
      "chip": "ym2612"
    },
    {
      "channel": 0,
      "note": 40,
      "start": 48.7883,
      "duration": 0.1929,
      "velocity": 115,
      "chip": "ym2612"
    },
    {
      "channel": 0,
      "note": 39,
      "start": 48.986,
      "duration": 0.1955,
      "velocity": 115,
      "chip": "ym2612"
    },
    {
      "channel": 5,
      "note": 45,
      "start": 49.1857,
      "duration": 0.096,
      "velocity": 125,
      "chip": "ym2612"
    },
    {
      "channel": 0,
      "note": 40,
      "start": 49.1888,
      "duration": 0.193,
      "velocity": 115,
      "chip": "ym2612"
    },
    {
      "channel": 0,
      "note": 39,
      "start": 49.3862,
      "duration": 0.2125,
      "velocity": 115,
      "chip": "ym2612"
    },
    {
      "channel": 5,
      "note": 45,
      "start": 49.6063,
      "duration": 0.0927,
      "velocity": 125,
      "chip": "ym2612"
    },
    {
      "channel": 0,
      "note": 40,
      "start": 49.6122,
      "duration": 0.1868,
      "velocity": 115,
      "chip": "ym2612"
    },
    {
      "channel": 0,
      "note": 39,
      "start": 49.8034,
      "duration": 0.1959,
      "velocity": 115,
      "chip": "ym2612"
    },
    {
      "channel": 5,
      "note": 45,
      "start": 50.0036,
      "duration": 0.096,
      "velocity": 125,
      "chip": "ym2612"
    },
    {
      "channel": 0,
      "note": 40,
      "start": 50.0066,
      "duration": 0.1929,
      "velocity": 115,
      "chip": "ym2612"
    },
    {
      "channel": 0,
      "note": 39,
      "start": 50.2038,
      "duration": 0.1959,
      "velocity": 115,
      "chip": "ym2612"
    },
    {
      "channel": 5,
      "note": 45,
      "start": 50.404,
      "duration": 0.096,
      "velocity": 125,
      "chip": "ym2612"
    },
    {
      "channel": 0,
      "note": 40,
      "start": 50.407,
      "duration": 0.193,
      "velocity": 115,
      "chip": "ym2612"
    },
    {
      "channel": 0,
      "note": 39,
      "start": 50.6044,
      "duration": 0.1958,
      "velocity": 115,
      "chip": "ym2612"
    },
    {
      "channel": 3,
      "note": 45,
      "start": 50.8043,
      "duration": 0.3967,
      "velocity": 117,
      "chip": "ym2612"
    },
    {
      "channel": 5,
      "note": 45,
      "start": 50.8076,
      "duration": 0.093,
      "velocity": 125,
      "chip": "ym2612"
    },
    {
      "channel": 0,
      "note": 40,
      "start": 50.8106,
      "duration": 0.1899,
      "velocity": 115,
      "chip": "ym2612"
    },
    {
      "channel": 0,
      "note": 39,
      "start": 51.0053,
      "duration": 0.1954,
      "velocity": 115,
      "chip": "ym2612"
    },
    {
      "channel": 3,
      "note": 39,
      "start": 51.2056,
      "duration": 2.5468,
      "velocity": 117,
      "chip": "ym2612"
    },
    {
      "channel": 5,
      "note": 45,
      "start": 51.2115,
      "duration": 0.0897,
      "velocity": 125,
      "chip": "ym2612"
    },
    {
      "channel": 0,
      "note": 40,
      "start": 51.2174,
      "duration": 0.1836,
      "velocity": 115,
      "chip": "ym2612"
    },
    {
      "channel": 0,
      "note": 39,
      "start": 51.4054,
      "duration": 0.1959,
      "velocity": 115,
      "chip": "ym2612"
    },
    {
      "channel": 5,
      "note": 45,
      "start": 51.6056,
      "duration": 0.096,
      "velocity": 125,
      "chip": "ym2612"
    },
    {
      "channel": 0,
      "note": 40,
      "start": 51.6086,
      "duration": 0.193,
      "velocity": 115,
      "chip": "ym2612"
    },
    {
      "channel": 0,
      "note": 39,
      "start": 51.806,
      "duration": 0.1959,
      "velocity": 115,
      "chip": "ym2612"
    },
    {
      "channel": 5,
      "note": 45,
      "start": 52.0061,
      "duration": 0.096,
      "velocity": 125,
      "chip": "ym2612"
    },
    {
      "channel": 0,
      "note": 40,
      "start": 52.0092,
      "duration": 0.1928,
      "velocity": 115,
      "chip": "ym2612"
    },
    {
      "channel": 0,
      "note": 39,
      "start": 52.2064,
      "duration": 0.1959,
      "velocity": 115,
      "chip": "ym2612"
    },
    {
      "channel": 5,
      "note": 45,
      "start": 52.4066,
      "duration": 0.096,
      "velocity": 125,
      "chip": "ym2612"
    },
    {
      "channel": 0,
      "note": 40,
      "start": 52.4096,
      "duration": 0.097,
      "velocity": 115,
      "chip": "ym2612"
    },
    {
      "channel": 0,
      "note": 39,
      "start": 52.5086,
      "duration": 0.0756,
      "velocity": 115,
      "chip": "ym2612"
    },
    {
      "channel": 1,
      "note": 45,
      "start": 52.5911,
      "duration": 0.0932,
      "velocity": 125,
      "chip": "ym2612"
    },
    {
      "channel": 0,
      "note": 40,
      "start": 52.597,
      "duration": 0.1874,
      "velocity": 115,
      "chip": "ym2612"
    },
    {
      "channel": 0,
      "note": 39,
      "start": 52.7888,
      "duration": 0.1958,
      "velocity": 115,
      "chip": "ym2612"
    },
    {
      "channel": 1,
      "note": 45,
      "start": 52.9888,
      "duration": 0.0961,
      "velocity": 125,
      "chip": "ym2612"
    },
    {
      "channel": 0,
      "note": 40,
      "start": 52.9918,
      "duration": 0.1931,
      "velocity": 115,
      "chip": "ym2612"
    },
    {
      "channel": 0,
      "note": 39,
      "start": 53.1893,
      "duration": 0.1959,
      "velocity": 115,
      "chip": "ym2612"
    },
    {
      "channel": 1,
      "note": 45,
      "start": 53.3893,
      "duration": 0.096,
      "velocity": 125,
      "chip": "ym2612"
    },
    {
      "channel": 0,
      "note": 40,
      "start": 53.3923,
      "duration": 0.1931,
      "velocity": 115,
      "chip": "ym2612"
    },
    {
      "channel": 0,
      "note": 39,
      "start": 53.5898,
      "duration": 0.2125,
      "velocity": 115,
      "chip": "ym2612"
    },
    {
      "channel": 3,
      "note": 45,
      "start": 53.8064,
      "duration": 0.3966,
      "velocity": 117,
      "chip": "ym2612"
    },
    {
      "channel": 1,
      "note": 45,
      "start": 53.8096,
      "duration": 0.093,
      "velocity": 125,
      "chip": "ym2612"
    },
    {
      "channel": 0,
      "note": 40,
      "start": 53.8126,
      "duration": 0.19,
      "velocity": 115,
      "chip": "ym2612"
    },
    {
      "channel": 0,
      "note": 39,
      "start": 54.0074,
      "duration": 0.1955,
      "velocity": 115,
      "chip": "ym2612"
    },
    {
      "channel": 3,
      "note": 39,
      "start": 54.2073,
      "duration": 2.53,
      "velocity": 117,
      "chip": "ym2612"
    },
    {
      "channel": 1,
      "note": 45,
      "start": 54.213,
      "duration": 0.0901,
      "velocity": 125,
      "chip": "ym2612"
    },
    {
      "channel": 0,
      "note": 40,
      "start": 54.219,
      "duration": 0.1841,
      "velocity": 115,
      "chip": "ym2612"
    },
    {
      "channel": 0,
      "note": 39,
      "start": 54.4075,
      "duration": 0.1959,
      "velocity": 115,
      "chip": "ym2612"
    },
    {
      "channel": 1,
      "note": 45,
      "start": 54.6076,
      "duration": 0.096,
      "velocity": 125,
      "chip": "ym2612"
    },
    {
      "channel": 0,
      "note": 40,
      "start": 54.6106,
      "duration": 0.1931,
      "velocity": 115,
      "chip": "ym2612"
    },
    {
      "channel": 0,
      "note": 39,
      "start": 54.808,
      "duration": 0.1958,
      "velocity": 115,
      "chip": "ym2612"
    },
    {
      "channel": 1,
      "note": 45,
      "start": 55.008,
      "duration": 0.0961,
      "velocity": 125,
      "chip": "ym2612"
    },
    {
      "channel": 0,
      "note": 40,
      "start": 55.011,
      "duration": 0.1932,
      "velocity": 115,
      "chip": "ym2612"
    },
    {
      "channel": 0,
      "note": 39,
      "start": 55.2086,
      "duration": 0.1958,
      "velocity": 115,
      "chip": "ym2612"
    },
    {
      "channel": 1,
      "note": 45,
      "start": 55.4085,
      "duration": 0.0961,
      "velocity": 125,
      "chip": "ym2612"
    },
    {
      "channel": 0,
      "note": 40,
      "start": 55.4116,
      "duration": 0.1931,
      "velocity": 115,
      "chip": "ym2612"
    },
    {
      "channel": 0,
      "note": 39,
      "start": 55.6095,
      "duration": 0.183,
      "velocity": 115,
      "chip": "ym2612"
    },
    {
      "channel": 1,
      "note": 45,
      "start": 55.7942,
      "duration": 0.002,
      "velocity": 125,
      "chip": "ym2612"
    },
    {
      "channel": 0,
      "note": 40,
      "start": 55.7961,
      "duration": 0.0001,
      "velocity": 115,
      "chip": "ym2612"
    },
    {
      "channel": 0,
      "note": 39,
      "start": 55.7981,
      "duration": 0.1882,
      "velocity": 115,
      "chip": "ym2612"
    },
    {
      "channel": 1,
      "note": 45,
      "start": 55.9904,
      "duration": 0.0961,
      "velocity": 125,
      "chip": "ym2612"
    },
    {
      "channel": 0,
      "note": 40,
      "start": 55.9934,
      "duration": 0.1931,
      "velocity": 115,
      "chip": "ym2612"
    },
    {
      "channel": 0,
      "note": 39,
      "start": 56.1909,
      "duration": 0.196,
      "velocity": 115,
      "chip": "ym2612"
    },
    {
      "channel": 1,
      "note": 45,
      "start": 56.391,
      "duration": 0.096,
      "velocity": 125,
      "chip": "ym2612"
    },
    {
      "channel": 0,
      "note": 40,
      "start": 56.394,
      "duration": 0.1931,
      "velocity": 115,
      "chip": "ym2612"
    },
    {
      "channel": 0,
      "note": 39,
      "start": 56.5915,
      "duration": 0.1959,
      "velocity": 115,
      "chip": "ym2612"
    },
    {
      "channel": 3,
      "note": 45,
      "start": 56.7914,
      "duration": 0.3967,
      "velocity": 117,
      "chip": "ym2612"
    },
    {
      "channel": 1,
      "note": 45,
      "start": 56.7946,
      "duration": 0.0929,
      "velocity": 125,
      "chip": "ym2612"
    },
    {
      "channel": 0,
      "note": 40,
      "start": 56.7976,
      "duration": 0.19,
      "velocity": 115,
      "chip": "ym2612"
    },
    {
      "channel": 0,
      "note": 39,
      "start": 56.9924,
      "duration": 0.1955,
      "velocity": 115,
      "chip": "ym2612"
    },
    {
      "channel": 3,
      "note": 39,
      "start": 57.1927,
      "duration": 1.8484,
      "velocity": 117,
      "chip": "ym2612"
    },
    {
      "channel": 1,
      "note": 45,
      "start": 57.1984,
      "duration": 0.0897,
      "velocity": 125,
      "chip": "ym2612"
    },
    {
      "channel": 0,
      "note": 40,
      "start": 57.2044,
      "duration": 0.1837,
      "velocity": 115,
      "chip": "ym2612"
    },
    {
      "channel": 0,
      "note": 39,
      "start": 57.3924,
      "duration": 0.1959,
      "velocity": 115,
      "chip": "ym2612"
    },
    {
      "channel": 1,
      "note": 45,
      "start": 57.5925,
      "duration": 0.1128,
      "velocity": 125,
      "chip": "ym2612"
    },
    {
      "channel": 0,
      "note": 40,
      "start": 57.5955,
      "duration": 0.2098,
      "velocity": 115,
      "chip": "ym2612"
    },
    {
      "channel": 0,
      "note": 39,
      "start": 57.8097,
      "duration": 0.1959,
      "velocity": 115,
      "chip": "ym2612"
    },
    {
      "channel": 1,
      "note": 45,
      "start": 58.0098,
      "duration": 0.096,
      "velocity": 125,
      "chip": "ym2612"
    },
    {
      "channel": 0,
      "note": 40,
      "start": 58.0128,
      "duration": 0.1641,
      "velocity": 115,
      "chip": "ym2612"
    },
    {
      "channel": 0,
      "note": 39,
      "start": 58.1788,
      "duration": 0.0,
      "velocity": 115,
      "chip": "ym2612"
    },
    {
      "channel": 1,
      "note": 45,
      "start": 58.1805,
      "duration": 0.002,
      "velocity": 125,
      "chip": "ym2612"
    },
    {
      "channel": 0,
      "note": 40,
      "start": 58.1824,
      "duration": 0.0001,
      "velocity": 115,
      "chip": "ym2612"
    },
    {
      "channel": 0,
      "note": 39,
      "start": 58.1844,
      "duration": 0.162,
      "velocity": 115,
      "chip": "ym2612"
    },
    {
      "channel": 1,
      "note": 45,
      "start": 58.3531,
      "duration": 0.0935,
      "velocity": 125,
      "chip": "ym2612"
    },
    {
      "channel": 0,
      "note": 40,
      "start": 58.359,
      "duration": 0.1877,
      "velocity": 115,
      "chip": "ym2612"
    },
    {
      "channel": 0,
      "note": 39,
      "start": 58.5511,
      "duration": 0.1664,
      "velocity": 115,
      "chip": "ym2612"
    },
    {
      "channel": 1,
      "note": 45,
      "start": 58.7192,
      "duration": 0.002,
      "velocity": 125,
      "chip": "ym2612"
    },
    {
      "channel": 0,
      "note": 40,
      "start": 58.7211,
      "duration": 0.0001,
      "velocity": 115,
      "chip": "ym2612"
    },
    {
      "channel": 0,
      "note": 39,
      "start": 58.7231,
      "duration": 0.0,
      "velocity": 115,
      "chip": "ym2612"
    },
    {
      "channel": 1,
      "note": 45,
      "start": 58.7249,
      "duration": 0.0659,
      "velocity": 125,
      "chip": "ym2612"
    },
    {
      "channel": 0,
      "note": 40,
      "start": 58.7268,
      "duration": 0.1641,
      "velocity": 115,
      "chip": "ym2612"
    },
    {
      "channel": 0,
      "note": 39,
      "start": 58.8952,
      "duration": 0.1958,
      "velocity": 115,
      "chip": "ym2612"
    },
    {
      "channel": 1,
      "note": 45,
      "start": 59.0951,
      "duration": 0.0961,
      "velocity": 125,
      "chip": "ym2612"
    },
    {
      "channel": 0,
      "note": 40,
      "start": 59.0981,
      "duration": 0.1933,
      "velocity": 115,
      "chip": "ym2612"
    },
    {
      "channel": 0,
      "note": 39,
      "start": 59.2961,
      "duration": 0.1956,
      "velocity": 115,
      "chip": "ym2612"
    },
    {
      "channel": 4,
      "note": 51,
      "start": 59.4974,
      "duration": 0.1946,
      "velocity": 105,
      "chip": "ym2612"
    },
    {
      "channel": 1,
      "note": 45,
      "start": 59.5034,
      "duration": 0.0884,
      "velocity": 125,
      "chip": "ym2612"
    },
    {
      "channel": 0,
      "note": 40,
      "start": 59.5093,
      "duration": 0.1824,
      "velocity": 115,
      "chip": "ym2612"
    },
    {
      "channel": 4,
      "note": 51,
      "start": 59.6955,
      "duration": 0.1968,
      "velocity": 105,
      "chip": "ym2612"
    },
    {
      "channel": 0,
      "note": 39,
      "start": 59.6993,
      "duration": 0.1928,
      "velocity": 115,
      "chip": "ym2612"
    },
    {
      "channel": 4,
      "note": 53,
      "start": 59.8959,
      "duration": 0.1967,
      "velocity": 105,
      "chip": "ym2612"
    },
    {
      "channel": 1,
      "note": 45,
      "start": 59.8993,
      "duration": 0.0929,
      "velocity": 125,
      "chip": "ym2612"
    },
    {
      "channel": 0,
      "note": 40,
      "start": 59.9023,
      "duration": 0.19,
      "velocity": 115,
      "chip": "ym2612"
    },
    {
      "channel": 4,
      "note": 51,
      "start": 60.0961,
      "duration": 0.1968,
      "velocity": 105,
      "chip": "ym2612"
    },
    {
      "channel": 0,
      "note": 39,
      "start": 60.0998,
      "duration": 0.1929,
      "velocity": 115,
      "chip": "ym2612"
    },
    {
      "channel": 4,
      "note": 54,
      "start": 60.2968,
      "duration": 0.1963,
      "velocity": 105,
      "chip": "ym2612"
    },
    {
      "channel": 1,
      "note": 45,
      "start": 60.3003,
      "duration": 0.0925,
      "velocity": 125,
      "chip": "ym2612"
    },
    {
      "channel": 0,
      "note": 40,
      "start": 60.3033,
      "duration": 0.1896,
      "velocity": 115,
      "chip": "ym2612"
    },
    {
      "channel": 4,
      "note": 51,
      "start": 60.4969,
      "duration": 0.1964,
      "velocity": 105,
      "chip": "ym2612"
    },
    {
      "channel": 0,
      "note": 39,
      "start": 60.5007,
      "duration": 0.1924,
      "velocity": 115,
      "chip": "ym2612"
    },
    {
      "channel": 1,
      "note": 45,
      "start": 60.6972,
      "duration": 0.0961,
      "velocity": 125,
      "chip": "ym2612"
    },
    {
      "channel": 0,
      "note": 40,
      "start": 60.7002,
      "duration": 0.1932,
      "velocity": 115,
      "chip": "ym2612"
    },
    {
      "channel": 0,
      "note": 39,
      "start": 60.8981,
      "duration": 0.2123,
      "velocity": 115,
      "chip": "ym2612"
    },
    {
      "channel": 2,
      "note": 66,
      "start": 61.1165,
      "duration": 1.5962,
      "velocity": 108,
      "chip": "ym2612"
    },
    {
      "channel": 1,
      "note": 45,
      "start": 61.1223,
      "duration": 0.0883,
      "velocity": 125,
      "chip": "ym2612"
    },
    {
      "channel": 0,
      "note": 40,
      "start": 61.1282,
      "duration": 0.1823,
      "velocity": 115,
      "chip": "ym2612"
    },
    {
      "channel": 0,
      "note": 39,
      "start": 61.3149,
      "duration": 0.196,
      "velocity": 115,
      "chip": "ym2612"
    },
    {
      "channel": 1,
      "note": 45,
      "start": 61.515,
      "duration": 0.096,
      "velocity": 125,
      "chip": "ym2612"
    },
    {
      "channel": 0,
      "note": 40,
      "start": 61.518,
      "duration": 0.1932,
      "velocity": 115,
      "chip": "ym2612"
    },
    {
      "channel": 0,
      "note": 39,
      "start": 61.7154,
      "duration": 0.1959,
      "velocity": 115,
      "chip": "ym2612"
    },
    {
      "channel": 1,
      "note": 45,
      "start": 61.9154,
      "duration": 0.0962,
      "velocity": 125,
      "chip": "ym2612"
    },
    {
      "channel": 0,
      "note": 40,
      "start": 61.9184,
      "duration": 0.1932,
      "velocity": 115,
      "chip": "ym2612"
    },
    {
      "channel": 0,
      "note": 39,
      "start": 62.1159,
      "duration": 0.196,
      "velocity": 115,
      "chip": "ym2612"
    },
    {
      "channel": 1,
      "note": 45,
      "start": 62.316,
      "duration": 0.096,
      "velocity": 125,
      "chip": "ym2612"
    },
    {
      "channel": 0,
      "note": 40,
      "start": 62.319,
      "duration": 0.1932,
      "velocity": 115,
      "chip": "ym2612"
    },
    {
      "channel": 0,
      "note": 39,
      "start": 62.5169,
      "duration": 0.1956,
      "velocity": 115,
      "chip": "ym2612"
    },
    {
      "channel": 4,
      "note": 51,
      "start": 62.7163,
      "duration": 0.1005,
      "velocity": 105,
      "chip": "ym2612"
    },
    {
      "channel": 1,
      "note": 45,
      "start": 62.7223,
      "duration": 0.0903,
      "velocity": 125,
      "chip": "ym2612"
    },
    {
      "channel": 0,
      "note": 40,
      "start": 62.7283,
      "duration": 0.0885,
      "velocity": 115,
      "chip": "ym2612"
    },
    {
      "channel": 4,
      "note": 51,
      "start": 62.819,
      "duration": 0.0759,
      "velocity": 105,
      "chip": "ym2612"
    },
    {
      "channel": 0,
      "note": 39,
      "start": 62.8212,
      "duration": 0.0735,
      "velocity": 115,
      "chip": "ym2612"
    },
    {
      "channel": 4,
      "note": 53,
      "start": 62.8985,
      "duration": 0.1968,
      "velocity": 105,
      "chip": "ym2612"
    },
    {
      "channel": 1,
      "note": 45,
      "start": 62.902,
      "duration": 0.0929,
      "velocity": 125,
      "chip": "ym2612"
    },
    {
      "channel": 0,
      "note": 40,
      "start": 62.905,
      "duration": 0.19,
      "velocity": 115,
      "chip": "ym2612"
    },
    {
      "channel": 4,
      "note": 51,
      "start": 63.0988,
      "duration": 0.1967,
      "velocity": 105,
      "chip": "ym2612"
    },
    {
      "channel": 0,
      "note": 39,
      "start": 63.1025,
      "duration": 0.1927,
      "velocity": 115,
      "chip": "ym2612"
    },
    {
      "channel": 4,
      "note": 54,
      "start": 63.299,
      "duration": 0.1967,
      "velocity": 105,
      "chip": "ym2612"
    },
    {
      "channel": 1,
      "note": 45,
      "start": 63.3024,
      "duration": 0.0929,
      "velocity": 125,
      "chip": "ym2612"
    },
    {
      "channel": 0,
      "note": 40,
      "start": 63.3054,
      "duration": 0.19,
      "velocity": 115,
      "chip": "ym2612"
    },
    {
      "channel": 4,
      "note": 51,
      "start": 63.4995,
      "duration": 0.1964,
      "velocity": 105,
      "chip": "ym2612"
    },
    {
      "channel": 0,
      "note": 39,
      "start": 63.5032,
      "duration": 0.1924,
      "velocity": 115,
      "chip": "ym2612"
    },
    {
      "channel": 2,
      "note": 70,
      "start": 63.7002,
      "duration": 0.196,
      "velocity": 108,
      "chip": "ym2612"
    },
    {
      "channel": 1,
      "note": 45,
      "start": 63.7035,
      "duration": 0.0923,
      "velocity": 125,
      "chip": "ym2612"
    },
    {
      "channel": 0,
      "note": 40,
      "start": 63.7065,
      "duration": 0.1894,
      "velocity": 115,
      "chip": "ym2612"
    },
    {
      "channel": 2,
      "note": 69,
      "start": 63.9005,
      "duration": 1.8149,
      "velocity": 108,
      "chip": "ym2612"
    },
    {
      "channel": 0,
      "note": 39,
      "start": 63.9044,
      "duration": 0.1918,
      "velocity": 115,
      "chip": "ym2612"
    },
    {
      "channel": 1,
      "note": 45,
      "start": 64.1028,
      "duration": 0.0937,
      "velocity": 125,
      "chip": "ym2612"
    },
    {
      "channel": 0,
      "note": 40,
      "start": 64.1087,
      "duration": 0.1877,
      "velocity": 115,
      "chip": "ym2612"
    },
    {
      "channel": 0,
      "note": 39,
      "start": 64.3008,
      "duration": 0.196,
      "velocity": 115,
      "chip": "ym2612"
    },
    {
      "channel": 1,
      "note": 45,
      "start": 64.5008,
      "duration": 0.0961,
      "velocity": 125,
      "chip": "ym2612"
    },
    {
      "channel": 0,
      "note": 40,
      "start": 64.5038,
      "duration": 0.1931,
      "velocity": 115,
      "chip": "ym2612"
    },
    {
      "channel": 0,
      "note": 39,
      "start": 64.7013,
      "duration": 0.196,
      "velocity": 115,
      "chip": "ym2612"
    },
    {
      "channel": 1,
      "note": 45,
      "start": 64.9013,
      "duration": 0.0962,
      "velocity": 125,
      "chip": "ym2612"
    },
    {
      "channel": 0,
      "note": 40,
      "start": 64.9043,
      "duration": 0.2099,
      "velocity": 115,
      "chip": "ym2612"
    },
    {
      "channel": 0,
      "note": 39,
      "start": 65.1186,
      "duration": 0.1958,
      "velocity": 115,
      "chip": "ym2612"
    },
    {
      "channel": 1,
      "note": 45,
      "start": 65.3185,
      "duration": 0.0961,
      "velocity": 125,
      "chip": "ym2612"
    },
    {
      "channel": 0,
      "note": 40,
      "start": 65.3215,
      "duration": 0.1932,
      "velocity": 115,
      "chip": "ym2612"
    },
    {
      "channel": 0,
      "note": 39,
      "start": 65.5195,
      "duration": 0.1956,
      "velocity": 115,
      "chip": "ym2612"
    },
    {
      "channel": 4,
      "note": 51,
      "start": 65.7189,
      "duration": 0.1964,
      "velocity": 105,
      "chip": "ym2612"
    },
    {
      "channel": 1,
      "note": 45,
      "start": 65.7249,
      "duration": 0.0902,
      "velocity": 125,
      "chip": "ym2612"
    },
    {
      "channel": 0,
      "note": 40,
      "start": 65.7309,
      "duration": 0.1843,
      "velocity": 115,
      "chip": "ym2612"
    },
    {
      "channel": 4,
      "note": 51,
      "start": 65.9189,
      "duration": 0.1841,
      "velocity": 105,
      "chip": "ym2612"
    },
    {
      "channel": 0,
      "note": 39,
      "start": 65.9227,
      "duration": 0.1803,
      "velocity": 115,
      "chip": "ym2612"
    },
    {
      "channel": 4,
      "note": 53,
      "start": 66.1052,
      "duration": 0.004,
      "velocity": 105,
      "chip": "ym2612"
    },
    {
      "channel": 1,
      "note": 45,
      "start": 66.1069,
      "duration": 0.0022,
      "velocity": 125,
      "chip": "ym2612"
    },
    {
      "channel": 0,
      "note": 40,
      "start": 66.1091,
      "duration": 0.0001,
      "velocity": 115,
      "chip": "ym2612"
    },
    {
      "channel": 4,
      "note": 51,
      "start": 66.1114,
      "duration": 0.1869,
      "velocity": 105,
      "chip": "ym2612"
    },
    {
      "channel": 0,
      "note": 39,
      "start": 66.1135,
      "duration": 0.1845,
      "velocity": 115,
      "chip": "ym2612"
    },
    {
      "channel": 4,
      "note": 54,
      "start": 66.3018,
      "duration": 0.1967,
      "velocity": 105,
      "chip": "ym2612"
    },
    {
      "channel": 1,
      "note": 45,
      "start": 66.3053,
      "duration": 0.0931,
      "velocity": 125,
      "chip": "ym2612"
    },
    {
      "channel": 0,
      "note": 40,
      "start": 66.3083,
      "duration": 0.19,
      "velocity": 115,
      "chip": "ym2612"
    },
    {
      "channel": 4,
      "note": 51,
      "start": 66.5024,
      "duration": 0.1965,
      "velocity": 105,
      "chip": "ym2612"
    },
    {
      "channel": 0,
      "note": 39,
      "start": 66.5061,
      "duration": 0.1926,
      "velocity": 115,
      "chip": "ym2612"
    },
    {
      "channel": 1,
      "note": 45,
      "start": 66.7028,
      "duration": 0.096,
      "velocity": 125,
      "chip": "ym2612"
    },
    {
      "channel": 0,
      "note": 40,
      "start": 66.7058,
      "duration": 0.193,
      "velocity": 115,
      "chip": "ym2612"
    },
    {
      "channel": 0,
      "note": 39,
      "start": 66.9036,
      "duration": 0.1956,
      "velocity": 115,
      "chip": "ym2612"
    },
    {
      "channel": 2,
      "note": 66,
      "start": 67.1036,
      "duration": 1.3729,
      "velocity": 108,
      "chip": "ym2612"
    },
    {
      "channel": 1,
      "note": 45,
      "start": 67.1093,
      "duration": 0.09,
      "velocity": 125,
      "chip": "ym2612"
    },
    {
      "channel": 0,
      "note": 40,
      "start": 67.1153,
      "duration": 0.1841,
      "velocity": 115,
      "chip": "ym2612"
    },
    {
      "channel": 0,
      "note": 39,
      "start": 67.3038,
      "duration": 0.1958,
      "velocity": 115,
      "chip": "ym2612"
    },
    {
      "channel": 1,
      "note": 45,
      "start": 67.5037,
      "duration": 0.0961,
      "velocity": 125,
      "chip": "ym2612"
    },
    {
      "channel": 0,
      "note": 40,
      "start": 67.5067,
      "duration": 0.1933,
      "velocity": 115,
      "chip": "ym2612"
    },
    {
      "channel": 0,
      "note": 39,
      "start": 67.7043,
      "duration": 0.1958,
      "velocity": 115,
      "chip": "ym2612"
    },
    {
      "channel": 1,
      "note": 45,
      "start": 67.9042,
      "duration": 0.0962,
      "velocity": 125,
      "chip": "ym2612"
    },
    {
      "channel": 0,
      "note": 40,
      "start": 67.9072,
      "duration": 0.1933,
      "velocity": 115,
      "chip": "ym2612"
    },
    {
      "channel": 0,
      "note": 39,
      "start": 68.1048,
      "duration": 0.1958,
      "velocity": 115,
      "chip": "ym2612"
    },
    {
      "channel": 4,
      "note": 59,
      "start": 68.3044,
      "duration": 0.1675,
      "velocity": 105,
      "chip": "ym2612"
    },
    {
      "channel": 1,
      "note": 45,
      "start": 68.3079,
      "duration": 0.0929,
      "velocity": 125,
      "chip": "ym2612"
    },
    {
      "channel": 0,
      "note": 40,
      "start": 68.3109,
      "duration": 0.161,
      "velocity": 115,
      "chip": "ym2612"
    },
    {
      "channel": 4,
      "note": 59,
      "start": 68.4741,
      "duration": 0.0023,
      "velocity": 105,
      "chip": "ym2612"
    },
    {
      "channel": 0,
      "note": 39,
      "start": 68.4763,
      "duration": 0.0,
      "velocity": 115,
      "chip": "ym2612"
    },
    {
      "channel": 4,
      "note": 56,
      "start": 68.4786,
      "duration": 0.004,
      "velocity": 105,
      "chip": "ym2612"
    },
    {
      "channel": 1,
      "note": 45,
      "start": 68.4803,
      "duration": 0.0022,
      "velocity": 125,
      "chip": "ym2612"
    },
    {
      "channel": 0,
      "note": 40,
      "start": 68.4825,
      "duration": 0.0001,
      "velocity": 115,
      "chip": "ym2612"
    },
    {
      "channel": 4,
      "note": 54,
      "start": 68.4848,
      "duration": 0.1615,
      "velocity": 105,
      "chip": "ym2612"
    },
    {
      "channel": 0,
      "note": 39,
      "start": 68.487,
      "duration": 0.159,
      "velocity": 115,
      "chip": "ym2612"
    },
    {
      "channel": 4,
      "note": 51,
      "start": 68.6498,
      "duration": 0.2134,
      "velocity": 105,
      "chip": "ym2612"
    },
    {
      "channel": 1,
      "note": 45,
      "start": 68.6532,
      "duration": 0.1097,
      "velocity": 125,
      "chip": "ym2612"
    },
    {
      "channel": 0,
      "note": 40,
      "start": 68.6563,
      "duration": 0.2068,
      "velocity": 115,
      "chip": "ym2612"
    },
    {
      "channel": 4,
      "note": 49,
      "start": 68.8668,
      "duration": 0.167,
      "velocity": 105,
      "chip": "ym2612"
    },
    {
      "channel": 0,
      "note": 39,
      "start": 68.8705,
      "duration": 0.1632,
      "velocity": 115,
      "chip": "ym2612"
    },
    {
      "channel": 4,
      "note": 54,
      "start": 69.0359,
      "duration": 0.004,
      "velocity": 105,
      "chip": "ym2612"
    },
    {
      "channel": 1,
      "note": 45,
      "start": 69.0376,
      "duration": 0.0022,
      "velocity": 125,
      "chip": "ym2612"
    },
    {
      "channel": 0,
      "note": 40,
      "start": 69.0398,
      "duration": 0.0001,
      "velocity": 115,
      "chip": "ym2612"
    },
    {
      "channel": 4,
      "note": 51,
      "start": 69.0422,
      "duration": 0.0023,
      "velocity": 105,
      "chip": "ym2612"
    },
    {
      "channel": 0,
      "note": 39,
      "start": 69.0443,
      "duration": 0.0,
      "velocity": 115,
      "chip": "ym2612"
    },
    {
      "channel": 4,
      "note": 49,
      "start": 69.0466,
      "duration": 0.1619,
      "velocity": 105,
      "chip": "ym2612"
    },
    {
      "channel": 1,
      "note": 45,
      "start": 69.0483,
      "duration": 0.0599,
      "velocity": 125,
      "chip": "ym2612"
    },
    {
      "channel": 0,
      "note": 40,
      "start": 69.0505,
      "duration": 0.1578,
      "velocity": 115,
      "chip": "ym2612"
    },
    {
      "channel": 4,
      "note": 51,
      "start": 69.2127,
      "duration": 0.1961,
      "velocity": 105,
      "chip": "ym2612"
    },
    {
      "channel": 0,
      "note": 39,
      "start": 69.2168,
      "duration": 0.1918,
      "velocity": 115,
      "chip": "ym2612"
    },
    {
      "channel": 1,
      "note": 45,
      "start": 69.4152,
      "duration": 0.0935,
      "velocity": 125,
      "chip": "ym2612"
    },
    {
      "channel": 0,
      "note": 40,
      "start": 69.4212,
      "duration": 0.1878,
      "velocity": 115,
      "chip": "ym2612"
    },
    {
      "channel": 0,
      "note": 39,
      "start": 69.6132,
      "duration": 0.1959,
      "velocity": 115,
      "chip": "ym2612"
    },
    {
      "channel": 1,
      "note": 45,
      "start": 69.8131,
      "duration": 0.0963,
      "velocity": 125,
      "chip": "ym2612"
    },
    {
      "channel": 0,
      "note": 40,
      "start": 69.8161,
      "duration": 0.1933,
      "velocity": 115,
      "chip": "ym2612"
    },
    {
      "channel": 0,
      "note": 39,
      "start": 70.0136,
      "duration": 0.196,
      "velocity": 115,
      "chip": "ym2612"
    },
    {
      "channel": 1,
      "note": 45,
      "start": 70.2137,
      "duration": 0.0961,
      "velocity": 125,
      "chip": "ym2612"
    },
    {
      "channel": 0,
      "note": 40,
      "start": 70.2167,
      "duration": 0.1932,
      "velocity": 115,
      "chip": "ym2612"
    },
    {
      "channel": 0,
      "note": 39,
      "start": 70.4141,
      "duration": 0.196,
      "velocity": 115,
      "chip": "ym2612"
    },
    {
      "channel": 3,
      "note": 52,
      "start": 70.6159,
      "duration": 0.1278,
      "velocity": 88,
      "chip": "ym2612"
    },
    {
      "channel": 1,
      "note": 45,
      "start": 70.619,
      "duration": 0.0912,
      "velocity": 125,
      "chip": "ym2612"
    },
    {
      "channel": 0,
      "note": 40,
      "start": 70.622,
      "duration": 0.1883,
      "velocity": 115,
      "chip": "ym2612"
    },
    {
      "channel": 3,
      "note": 55,
      "start": 70.7474,
      "duration": 0.1298,
      "velocity": 88,
      "chip": "ym2612"
    },
    {
      "channel": 0,
      "note": 39,
      "start": 70.8151,
      "duration": 0.1956,
      "velocity": 115,
      "chip": "ym2612"
    },
    {
      "channel": 3,
      "note": 58,
      "start": 70.8809,
      "duration": 0.1299,
      "velocity": 88,
      "chip": "ym2612"
    },
    {
      "channel": 3,
      "note": 61,
      "start": 71.0152,
      "duration": 0.1959,
      "velocity": 88,
      "chip": "ym2612"
    },
    {
      "channel": 1,
      "note": 45,
      "start": 71.0208,
      "duration": 0.09,
      "velocity": 125,
      "chip": "ym2612"
    },
    {
      "channel": 0,
      "note": 40,
      "start": 71.0267,
      "duration": 0.1842,
      "velocity": 115,
      "chip": "ym2612"
    },
    {
      "channel": 3,
      "note": 61,
      "start": 71.2149,
      "duration": 0.1965,
      "velocity": 88,
      "chip": "ym2612"
    },
    {
      "channel": 0,
      "note": 39,
      "start": 71.2182,
      "duration": 0.193,
      "velocity": 115,
      "chip": "ym2612"
    },
    {
      "channel": 1,
      "note": 45,
      "start": 71.4153,
      "duration": 0.096,
      "velocity": 125,
      "chip": "ym2612"
    },
    {
      "channel": 0,
      "note": 40,
      "start": 71.4183,
      "duration": 0.193,
      "velocity": 115,
      "chip": "ym2612"
    },
    {
      "channel": 3,
      "note": 61,
      "start": 71.6151,
      "duration": 0.1968,
      "velocity": 88,
      "chip": "ym2612"
    },
    {
      "channel": 0,
      "note": 39,
      "start": 71.6184,
      "duration": 0.1933,
      "velocity": 115,
      "chip": "ym2612"
    },
    {
      "channel": 1,
      "note": 45,
      "start": 71.8158,
      "duration": 0.096,
      "velocity": 125,
      "chip": "ym2612"
    },
    {
      "channel": 0,
      "note": 40,
      "start": 71.8188,
      "duration": 0.193,
      "velocity": 115,
      "chip": "ym2612"
    },
    {
      "channel": 3,
      "note": 61,
      "start": 72.0156,
      "duration": 0.1968,
      "velocity": 88,
      "chip": "ym2612"
    },
    {
      "channel": 0,
      "note": 39,
      "start": 72.019,
      "duration": 0.1933,
      "velocity": 115,
      "chip": "ym2612"
    },
    {
      "channel": 1,
      "note": 45,
      "start": 72.2163,
      "duration": 0.096,
      "velocity": 125,
      "chip": "ym2612"
    },
    {
      "channel": 0,
      "note": 40,
      "start": 72.2194,
      "duration": 0.1932,
      "velocity": 115,
      "chip": "ym2612"
    },
    {
      "channel": 3,
      "note": 61,
      "start": 72.4163,
      "duration": 0.2134,
      "velocity": 88,
      "chip": "ym2612"
    },
    {
      "channel": 0,
      "note": 39,
      "start": 72.42,
      "duration": 0.2095,
      "velocity": 115,
      "chip": "ym2612"
    },
    {
      "channel": 1,
      "note": 45,
      "start": 72.6361,
      "duration": 0.0935,
      "velocity": 125,
      "chip": "ym2612"
    },
    {
      "channel": 0,
      "note": 40,
      "start": 72.642,
      "duration": 0.1876,
      "velocity": 115,
      "chip": "ym2612"
    },
    {
      "channel": 3,
      "note": 61,
      "start": 72.8335,
      "duration": 0.1966,
      "velocity": 88,
      "chip": "ym2612"
    },
    {
      "channel": 0,
      "note": 39,
      "start": 72.8368,
      "duration": 0.1931,
      "velocity": 115,
      "chip": "ym2612"
    },
    {
      "channel": 3,
      "note": 58,
      "start": 73.0338,
      "duration": 0.1005,
      "velocity": 88,
      "chip": "ym2612"
    },
    {
      "channel": 1,
      "note": 45,
      "start": 73.0369,
      "duration": 0.0932,
      "velocity": 125,
      "chip": "ym2612"
    },
    {
      "channel": 0,
      "note": 40,
      "start": 73.0399,
      "duration": 0.0943,
      "velocity": 115,
      "chip": "ym2612"
    },
    {
      "channel": 3,
      "note": 61,
      "start": 73.136,
      "duration": 0.0759,
      "velocity": 88,
      "chip": "ym2612"
    },
    {
      "channel": 0,
      "note": 39,
      "start": 73.1378,
      "duration": 0.0739,
      "velocity": 115,
      "chip": "ym2612"
    },
    {
      "channel": 3,
      "note": 55,
      "start": 73.2155,
      "duration": 0.1967,
      "velocity": 88,
      "chip": "ym2612"
    },
    {
      "channel": 1,
      "note": 45,
      "start": 73.2186,
      "duration": 0.0933,
      "velocity": 125,
      "chip": "ym2612"
    },
    {
      "channel": 0,
      "note": 40,
      "start": 73.2216,
      "duration": 0.1904,
      "velocity": 115,
      "chip": "ym2612"
    },
    {
      "channel": 3,
      "note": 52,
      "start": 73.4161,
      "duration": 0.1963,
      "velocity": 88,
      "chip": "ym2612"
    },
    {
      "channel": 0,
      "note": 39,
      "start": 73.4195,
      "duration": 0.1928,
      "velocity": 115,
      "chip": "ym2612"
    },
    {
      "channel": 1,
      "note": 45,
      "start": 73.6164,
      "duration": 0.096,
      "velocity": 125,
      "chip": "ym2612"
    },
    {
      "channel": 0,
      "note": 40,
      "start": 73.6194,
      "duration": 0.1931,
      "velocity": 115,
      "chip": "ym2612"
    },
    {
      "channel": 4,
      "note": 49,
      "start": 73.8185,
      "duration": 0.1944,
      "velocity": 92,
      "chip": "ym2612"
    },
    {
      "channel": 0,
      "note": 39,
      "start": 73.8221,
      "duration": 0.1906,
      "velocity": 115,
      "chip": "ym2612"
    },
    {
      "channel": 1,
      "note": 45,
      "start": 74.0193,
      "duration": 0.0937,
      "velocity": 125,
      "chip": "ym2612"
    },
    {
      "channel": 0,
      "note": 40,
      "start": 74.0252,
      "duration": 0.1878,
      "velocity": 115,
      "chip": "ym2612"
    },
    {
      "channel": 4,
      "note": 49,
      "start": 74.217,
      "duration": 0.1964,
      "velocity": 92,
      "chip": "ym2612"
    },
    {
      "channel": 0,
      "note": 39,
      "start": 74.2202,
      "duration": 0.193,
      "velocity": 115,
      "chip": "ym2612"
    },
    {
      "channel": 4,
      "note": 48,
      "start": 74.4172,
      "duration": 0.1966,
      "velocity": 92,
      "chip": "ym2612"
    },
    {
      "channel": 1,
      "note": 45,
      "start": 74.4202,
      "duration": 0.0933,
      "velocity": 125,
      "chip": "ym2612"
    },
    {
      "channel": 0,
      "note": 40,
      "start": 74.4232,
      "duration": 0.1904,
      "velocity": 115,
      "chip": "ym2612"
    },
    {
      "channel": 4,
      "note": 49,
      "start": 74.6175,
      "duration": 0.1964,
      "velocity": 92,
      "chip": "ym2612"
    },
    {
      "channel": 0,
      "note": 39,
      "start": 74.6208,
      "duration": 0.193,
      "velocity": 115,
      "chip": "ym2612"
    },
    {
      "channel": 4,
      "note": 38,
      "start": 74.8181,
      "duration": 0.1962,
      "velocity": 92,
      "chip": "ym2612"
    },
    {
      "channel": 1,
      "note": 45,
      "start": 74.8211,
      "duration": 0.0929,
      "velocity": 125,
      "chip": "ym2612"
    },
    {
      "channel": 0,
      "note": 40,
      "start": 74.8241,
      "duration": 0.19,
      "velocity": 115,
      "chip": "ym2612"
    },
    {
      "channel": 4,
      "note": 39,
      "start": 75.018,
      "duration": 0.1964,
      "velocity": 92,
      "chip": "ym2612"
    },
    {
      "channel": 0,
      "note": 39,
      "start": 75.0213,
      "duration": 0.193,
      "velocity": 115,
      "chip": "ym2612"
    },
    {
      "channel": 4,
      "note": 38,
      "start": 75.2182,
      "duration": 0.1966,
      "velocity": 92,
      "chip": "ym2612"
    },
    {
      "channel": 1,
      "note": 45,
      "start": 75.2212,
      "duration": 0.0933,
      "velocity": 125,
      "chip": "ym2612"
    },
    {
      "channel": 0,
      "note": 40,
      "start": 75.2242,
      "duration": 0.1904,
      "velocity": 115,
      "chip": "ym2612"
    },
    {
      "channel": 4,
      "note": 39,
      "start": 75.4186,
      "duration": 0.1964,
      "velocity": 92,
      "chip": "ym2612"
    },
    {
      "channel": 0,
      "note": 39,
      "start": 75.4222,
      "duration": 0.1925,
      "velocity": 115,
      "chip": "ym2612"
    },
    {
      "channel": 4,
      "note": 38,
      "start": 75.6187,
      "duration": 0.1965,
      "velocity": 92,
      "chip": "ym2612"
    },
    {
      "channel": 1,
      "note": 45,
      "start": 75.6242,
      "duration": 0.0907,
      "velocity": 125,
      "chip": "ym2612"
    },
    {
      "channel": 0,
      "note": 40,
      "start": 75.6301,
      "duration": 0.1849,
      "velocity": 115,
      "chip": "ym2612"
    },
    {
      "channel": 4,
      "note": 39,
      "start": 75.819,
      "duration": 0.1966,
      "velocity": 92,
      "chip": "ym2612"
    },
    {
      "channel": 0,
      "note": 39,
      "start": 75.8222,
      "duration": 0.1931,
      "velocity": 115,
      "chip": "ym2612"
    },
    {
      "channel": 4,
      "note": 38,
      "start": 76.0193,
      "duration": 0.1965,
      "velocity": 92,
      "chip": "ym2612"
    },
    {
      "channel": 1,
      "note": 45,
      "start": 76.0223,
      "duration": 0.0932,
      "velocity": 125,
      "chip": "ym2612"
    },
    {
      "channel": 0,
      "note": 40,
      "start": 76.0253,
      "duration": 0.1902,
      "velocity": 115,
      "chip": "ym2612"
    },
    {
      "channel": 4,
      "note": 39,
      "start": 76.2198,
      "duration": 0.1834,
      "velocity": 92,
      "chip": "ym2612"
    },
    {
      "channel": 0,
      "note": 39,
      "start": 76.223,
      "duration": 0.1802,
      "velocity": 115,
      "chip": "ym2612"
    },
    {
      "channel": 1,
      "note": 45,
      "start": 76.4049,
      "duration": 0.002,
      "velocity": 125,
      "chip": "ym2612"
    },
    {
      "channel": 0,
      "note": 40,
      "start": 76.4068,
      "duration": 0.0072,
      "velocity": 115,
      "chip": "ym2612"
    },
    {
      "channel": 0,
      "note": 39,
      "start": 76.4183,
      "duration": 0.196,
      "velocity": 115,
      "chip": "ym2612"
    },
    {
      "channel": 3,
      "note": 64,
      "start": 76.6188,
      "duration": 0.1291,
      "velocity": 88,
      "chip": "ym2612"
    },
    {
      "channel": 1,
      "note": 45,
      "start": 76.6219,
      "duration": 0.0926,
      "velocity": 125,
      "chip": "ym2612"
    },
    {
      "channel": 0,
      "note": 40,
      "start": 76.6249,
      "duration": 0.1897,
      "velocity": 115,
      "chip": "ym2612"
    },
    {
      "channel": 3,
      "note": 67,
      "start": 76.7515,
      "duration": 0.13,
      "velocity": 88,
      "chip": "ym2612"
    },
    {
      "channel": 0,
      "note": 39,
      "start": 76.8193,
      "duration": 0.1955,
      "velocity": 115,
      "chip": "ym2612"
    },
    {
      "channel": 3,
      "note": 70,
      "start": 76.8851,
      "duration": 0.1299,
      "velocity": 88,
      "chip": "ym2612"
    },
    {
      "channel": 3,
      "note": 73,
      "start": 77.0189,
      "duration": 0.1963,
      "velocity": 88,
      "chip": "ym2612"
    },
    {
      "channel": 1,
      "note": 45,
      "start": 77.0246,
      "duration": 0.0904,
      "velocity": 125,
      "chip": "ym2612"
    },
    {
      "channel": 0,
      "note": 40,
      "start": 77.0305,
      "duration": 0.1846,
      "velocity": 115,
      "chip": "ym2612"
    },
    {
      "channel": 3,
      "note": 73,
      "start": 77.219,
      "duration": 0.1965,
      "velocity": 88,
      "chip": "ym2612"
    },
    {
      "channel": 0,
      "note": 39,
      "start": 77.2224,
      "duration": 0.193,
      "velocity": 115,
      "chip": "ym2612"
    },
    {
      "channel": 1,
      "note": 45,
      "start": 77.4194,
      "duration": 0.0961,
      "velocity": 125,
      "chip": "ym2612"
    },
    {
      "channel": 0,
      "note": 40,
      "start": 77.4224,
      "duration": 0.1932,
      "velocity": 115,
      "chip": "ym2612"
    },
    {
      "channel": 3,
      "note": 73,
      "start": 77.6193,
      "duration": 0.1966,
      "velocity": 88,
      "chip": "ym2612"
    },
    {
      "channel": 0,
      "note": 39,
      "start": 77.6227,
      "duration": 0.1931,
      "velocity": 115,
      "chip": "ym2612"
    },
    {
      "channel": 1,
      "note": 45,
      "start": 77.8199,
      "duration": 0.0961,
      "velocity": 125,
      "chip": "ym2612"
    },
    {
      "channel": 0,
      "note": 40,
      "start": 77.8229,
      "duration": 0.1932,
      "velocity": 115,
      "chip": "ym2612"
    },
    {
      "channel": 3,
      "note": 73,
      "start": 78.0198,
      "duration": 0.1968,
      "velocity": 88,
      "chip": "ym2612"
    },
    {
      "channel": 0,
      "note": 39,
      "start": 78.0231,
      "duration": 0.1933,
      "velocity": 115,
      "chip": "ym2612"
    },
    {
      "channel": 1,
      "note": 45,
      "start": 78.2205,
      "duration": 0.096,
      "velocity": 125,
      "chip": "ym2612"
    },
    {
      "channel": 0,
      "note": 40,
      "start": 78.2235,
      "duration": 0.1932,
      "velocity": 115,
      "chip": "ym2612"
    },
    {
      "channel": 3,
      "note": 73,
      "start": 78.4204,
      "duration": 0.1966,
      "velocity": 88,
      "chip": "ym2612"
    },
    {
      "channel": 0,
      "note": 39,
      "start": 78.4241,
      "duration": 0.1927,
      "velocity": 115,
      "chip": "ym2612"
    },
    {
      "channel": 1,
      "note": 45,
      "start": 78.6234,
      "duration": 0.0936,
      "velocity": 125,
      "chip": "ym2612"
    },
    {
      "channel": 0,
      "note": 40,
      "start": 78.6294,
      "duration": 0.1587,
      "velocity": 115,
      "chip": "ym2612"
    },
    {
      "channel": 3,
      "note": 73,
      "start": 78.7898,
      "duration": 0.002,
      "velocity": 88,
      "chip": "ym2612"
    },
    {
      "channel": 0,
      "note": 39,
      "start": 78.7917,
      "duration": 0.0,
      "velocity": 115,
      "chip": "ym2612"
    },
    {
      "channel": 3,
      "note": 70,
      "start": 78.7935,
      "duration": 0.0038,
      "velocity": 88,
      "chip": "ym2612"
    },
    {
      "channel": 1,
      "note": 45,
      "start": 78.7952,
      "duration": 0.002,
      "velocity": 125,
      "chip": "ym2612"
    },
    {
      "channel": 0,
      "note": 40,
      "start": 78.7971,
      "duration": 0.0001,
      "velocity": 115,
      "chip": "ym2612"
    },
    {
      "channel": 3,
      "note": 73,
      "start": 78.7989,
      "duration": 0.162,
      "velocity": 88,
      "chip": "ym2612"
    },
    {
      "channel": 0,
      "note": 39,
      "start": 78.8008,
      "duration": 0.1599,
      "velocity": 115,
      "chip": "ym2612"
    },
    {
      "channel": 3,
      "note": 67,
      "start": 78.9645,
      "duration": 0.1967,
      "velocity": 88,
      "chip": "ym2612"
    },
    {
      "channel": 1,
      "note": 45,
      "start": 78.9676,
      "duration": 0.0933,
      "velocity": 125,
      "chip": "ym2612"
    },
    {
      "channel": 0,
      "note": 40,
      "start": 78.9706,
      "duration": 0.1904,
      "velocity": 115,
      "chip": "ym2612"
    },
    {
      "channel": 3,
      "note": 64,
      "start": 79.1652,
      "duration": 0.1665,
      "velocity": 88,
      "chip": "ym2612"
    },
    {
      "channel": 0,
      "note": 39,
      "start": 79.1686,
      "duration": 0.1631,
      "velocity": 115,
      "chip": "ym2612"
    },
    {
      "channel": 1,
      "note": 45,
      "start": 79.3334,
      "duration": 0.002,
      "velocity": 125,
      "chip": "ym2612"
    },
    {
      "channel": 0,
      "note": 40,
      "start": 79.3354,
      "duration": 0.0001,
      "velocity": 115,
      "chip": "ym2612"
    },
    {
      "channel": 4,
      "note": 49,
      "start": 79.3371,
      "duration": 0.002,
      "velocity": 92,
      "chip": "ym2612"
    },
    {
      "channel": 0,
      "note": 39,
      "start": 79.339,
      "duration": 0.0,
      "velocity": 115,
      "chip": "ym2612"
    },
    {
      "channel": 1,
      "note": 45,
      "start": 79.3408,
      "duration": 0.0641,
      "velocity": 125,
      "chip": "ym2612"
    },
    {
      "channel": 0,
      "note": 40,
      "start": 79.3427,
      "duration": 0.1623,
      "velocity": 115,
      "chip": "ym2612"
    },
    {
      "channel": 4,
      "note": 49,
      "start": 79.509,
      "duration": 0.2131,
      "velocity": 92,
      "chip": "ym2612"
    },
    {
      "channel": 0,
      "note": 39,
      "start": 79.5122,
      "duration": 0.2097,
      "velocity": 115,
      "chip": "ym2612"
    },
    {
      "channel": 4,
      "note": 48,
      "start": 79.7258,
      "duration": 0.1965,
      "velocity": 92,
      "chip": "ym2612"
    },
    {
      "channel": 1,
      "note": 45,
      "start": 79.7288,
      "duration": 0.0934,
      "velocity": 125,
      "chip": "ym2612"
    },
    {
      "channel": 0,
      "note": 40,
      "start": 79.7318,
      "duration": 0.1904,
      "velocity": 115,
      "chip": "ym2612"
    },
    {
      "channel": 4,
      "note": 49,
      "start": 79.9261,
      "duration": 0.1966,
      "velocity": 92,
      "chip": "ym2612"
    },
    {
      "channel": 0,
      "note": 39,
      "start": 79.9292,
      "duration": 0.1932,
      "velocity": 115,
      "chip": "ym2612"
    },
    {
      "channel": 4,
      "note": 38,
      "start": 80.1268,
      "duration": 0.1961,
      "velocity": 92,
      "chip": "ym2612"
    },
    {
      "channel": 1,
      "note": 45,
      "start": 80.1297,
      "duration": 0.0929,
      "velocity": 125,
      "chip": "ym2612"
    },
    {
      "channel": 0,
      "note": 40,
      "start": 80.1327,
      "duration": 0.19,
      "velocity": 115,
      "chip": "ym2612"
    },
    {
      "channel": 4,
      "note": 39,
      "start": 80.3266,
      "duration": 0.1966,
      "velocity": 92,
      "chip": "ym2612"
    },
    {
      "channel": 0,
      "note": 39,
      "start": 80.3298,
      "duration": 0.1932,
      "velocity": 115,
      "chip": "ym2612"
    },
    {
      "channel": 4,
      "note": 38,
      "start": 80.5269,
      "duration": 0.1965,
      "velocity": 92,
      "chip": "ym2612"
    },
    {
      "channel": 1,
      "note": 45,
      "start": 80.5298,
      "duration": 0.0934,
      "velocity": 125,
      "chip": "ym2612"
    },
    {
      "channel": 0,
      "note": 40,
      "start": 80.5328,
      "duration": 0.1904,
      "velocity": 115,
      "chip": "ym2612"
    },
    {
      "channel": 4,
      "note": 39,
      "start": 80.7271,
      "duration": 0.1966,
      "velocity": 92,
      "chip": "ym2612"
    },
    {
      "channel": 0,
      "note": 39,
      "start": 80.7307,
      "duration": 0.1928,
      "velocity": 115,
      "chip": "ym2612"
    },
    {
      "channel": 4,
      "note": 38,
      "start": 80.9274,
      "duration": 0.1966,
      "velocity": 92,
      "chip": "ym2612"
    },
    {
      "channel": 1,
      "note": 45,
      "start": 80.9328,
      "duration": 0.0907,
      "velocity": 125,
      "chip": "ym2612"
    },
    {
      "channel": 0,
      "note": 40,
      "start": 80.9388,
      "duration": 0.185,
      "velocity": 115,
      "chip": "ym2612"
    },
    {
      "channel": 4,
      "note": 39,
      "start": 81.1277,
      "duration": 0.1965,
      "velocity": 92,
      "chip": "ym2612"
    },
    {
      "channel": 0,
      "note": 39,
      "start": 81.1308,
      "duration": 0.1931,
      "velocity": 115,
      "chip": "ym2612"
    },
    {
      "channel": 4,
      "note": 38,
      "start": 81.3278,
      "duration": 0.1967,
      "velocity": 92,
      "chip": "ym2612"
    },
    {
      "channel": 1,
      "note": 45,
      "start": 81.3308,
      "duration": 0.0934,
      "velocity": 125,
      "chip": "ym2612"
    },
    {
      "channel": 0,
      "note": 40,
      "start": 81.3338,
      "duration": 0.1905,
      "velocity": 115,
      "chip": "ym2612"
    },
    {
      "channel": 4,
      "note": 39,
      "start": 81.5282,
      "duration": 0.1965,
      "velocity": 92,
      "chip": "ym2612"
    },
    {
      "channel": 0,
      "note": 39,
      "start": 81.5314,
      "duration": 0.1931,
      "velocity": 115,
      "chip": "ym2612"
    },
    {
      "channel": 1,
      "note": 45,
      "start": 81.7286,
      "duration": 0.0961,
      "velocity": 125,
      "chip": "ym2612"
    },
    {
      "channel": 0,
      "note": 40,
      "start": 81.7316,
      "duration": 0.1931,
      "velocity": 115,
      "chip": "ym2612"
    },
    {
      "channel": 0,
      "note": 39,
      "start": 81.9289,
      "duration": 0.1961,
      "velocity": 115,
      "chip": "ym2612"
    },
    {
      "channel": 1,
      "note": 45,
      "start": 82.1288,
      "duration": 0.0963,
      "velocity": 125,
      "chip": "ym2612"
    },
    {
      "channel": 0,
      "note": 40,
      "start": 82.1318,
      "duration": 0.1934,
      "velocity": 115,
      "chip": "ym2612"
    },
    {
      "channel": 0,
      "note": 39,
      "start": 82.3297,
      "duration": 0.1958,
      "velocity": 115,
      "chip": "ym2612"
    },
    {
      "channel": 3,
      "note": 44,
      "start": 82.5383,
      "duration": 2.7576,
      "velocity": 117,
      "chip": "ym2612"
    },
    {
      "channel": 5,
      "note": 50,
      "start": 82.545,
      "duration": 0.0808,
      "velocity": 125,
      "chip": "ym2612"
    },
    {
      "channel": 2,
      "note": 45,
      "start": 82.5524,
      "duration": 0.1736,
      "velocity": 115,
      "chip": "ym2612"
    },
    {
      "channel": 2,
      "note": 44,
      "start": 82.7306,
      "duration": 0.1957,
      "velocity": 115,
      "chip": "ym2612"
    },
    {
      "channel": 5,
      "note": 50,
      "start": 82.9304,
      "duration": 0.0961,
      "velocity": 125,
      "chip": "ym2612"
    },
    {
      "channel": 2,
      "note": 45,
      "start": 82.9338,
      "duration": 0.1928,
      "velocity": 115,
      "chip": "ym2612"
    },
    {
      "channel": 2,
      "note": 82,
      "start": 83.1322,
      "duration": 0.1946,
      "velocity": 85,
      "chip": "ym2612"
    },
    {
      "channel": 4,
      "note": 44,
      "start": 83.1358,
      "duration": 0.191,
      "velocity": 115,
      "chip": "ym2612"
    },
    {
      "channel": 5,
      "note": 50,
      "start": 83.331,
      "duration": 0.0959,
      "velocity": 125,
      "chip": "ym2612"
    },
    {
      "channel": 4,
      "note": 45,
      "start": 83.3343,
      "duration": 0.1927,
      "velocity": 115,
      "chip": "ym2612"
    },
    {
      "channel": 4,
      "note": 44,
      "start": 83.5319,
      "duration": 0.1954,
      "velocity": 115,
      "chip": "ym2612"
    },
    {
      "channel": 5,
      "note": 50,
      "start": 83.7314,
      "duration": 0.0959,
      "velocity": 125,
      "chip": "ym2612"
    },
    {
      "channel": 4,
      "note": 45,
      "start": 83.7347,
      "duration": 0.1928,
      "velocity": 115,
      "chip": "ym2612"
    },
    {
      "channel": 2,
      "note": 82,
      "start": 83.9313,
      "duration": 0.2132,
      "velocity": 85,
      "chip": "ym2612"
    },
    {
      "channel": 4,
      "note": 44,
      "start": 83.9348,
      "duration": 0.2096,
      "velocity": 115,
      "chip": "ym2612"
    },
    {
      "channel": 5,
      "note": 50,
      "start": 84.1519,
      "duration": 0.0927,
      "velocity": 125,
      "chip": "ym2612"
    },
    {
      "channel": 4,
      "note": 45,
      "start": 84.1581,
      "duration": 0.1866,
      "velocity": 115,
      "chip": "ym2612"
    },
    {
      "channel": 4,
      "note": 44,
      "start": 84.3492,
      "duration": 0.1957,
      "velocity": 115,
      "chip": "ym2612"
    },
    {
      "channel": 5,
      "note": 50,
      "start": 84.549,
      "duration": 0.0961,
      "velocity": 125,
      "chip": "ym2612"
    },
    {
      "channel": 4,
      "note": 45,
      "start": 84.5523,
      "duration": 0.1928,
      "velocity": 115,
      "chip": "ym2612"
    },
    {
      "channel": 2,
      "note": 82,
      "start": 84.749,
      "duration": 0.1967,
      "velocity": 85,
      "chip": "ym2612"
    },
    {
      "channel": 4,
      "note": 44,
      "start": 84.7524,
      "duration": 0.1931,
      "velocity": 115,
      "chip": "ym2612"
    },
    {
      "channel": 5,
      "note": 50,
      "start": 84.9497,
      "duration": 0.0959,
      "velocity": 125,
      "chip": "ym2612"
    },
    {
      "channel": 4,
      "note": 45,
      "start": 84.953,
      "duration": 0.1927,
      "velocity": 115,
      "chip": "ym2612"
    },
    {
      "channel": 4,
      "note": 44,
      "start": 85.1502,
      "duration": 0.1957,
      "velocity": 115,
      "chip": "ym2612"
    },
    {
      "channel": 3,
      "note": 50,
      "start": 85.3501,
      "duration": 0.3963,
      "velocity": 117,
      "chip": "ym2612"
    },
    {
      "channel": 5,
      "note": 50,
      "start": 85.3533,
      "duration": 0.0928,
      "velocity": 125,
      "chip": "ym2612"
    },
    {
      "channel": 4,
      "note": 45,
      "start": 85.3566,
      "duration": 0.1897,
      "velocity": 115,
      "chip": "ym2612"
    },
    {
      "channel": 2,
      "note": 82,
      "start": 85.5501,
      "duration": 0.1967,
      "velocity": 85,
      "chip": "ym2612"
    },
    {
      "channel": 4,
      "note": 44,
      "start": 85.5539,
      "duration": 0.1927,
      "velocity": 115,
      "chip": "ym2612"
    },
    {
      "channel": 3,
      "note": 44,
      "start": 85.7516,
      "duration": 2.5461,
      "velocity": 117,
      "chip": "ym2612"
    },
    {
      "channel": 5,
      "note": 50,
      "start": 85.7572,
      "duration": 0.0895,
      "velocity": 125,
      "chip": "ym2612"
    },
    {
      "channel": 4,
      "note": 45,
      "start": 85.7635,
      "duration": 0.1833,
      "velocity": 115,
      "chip": "ym2612"
    },
    {
      "channel": 4,
      "note": 44,
      "start": 85.9513,
      "duration": 0.1957,
      "velocity": 115,
      "chip": "ym2612"
    },
    {
      "channel": 5,
      "note": 50,
      "start": 86.1511,
      "duration": 0.0961,
      "velocity": 125,
      "chip": "ym2612"
    },
    {
      "channel": 4,
      "note": 45,
      "start": 86.1544,
      "duration": 0.1928,
      "velocity": 115,
      "chip": "ym2612"
    },
    {
      "channel": 2,
      "note": 82,
      "start": 86.351,
      "duration": 0.1967,
      "velocity": 85,
      "chip": "ym2612"
    },
    {
      "channel": 4,
      "note": 44,
      "start": 86.3545,
      "duration": 0.1931,
      "velocity": 115,
      "chip": "ym2612"
    },
    {
      "channel": 5,
      "note": 50,
      "start": 86.5518,
      "duration": 0.0959,
      "velocity": 125,
      "chip": "ym2612"
    },
    {
      "channel": 4,
      "note": 45,
      "start": 86.5551,
      "duration": 0.1927,
      "velocity": 115,
      "chip": "ym2612"
    },
    {
      "channel": 4,
      "note": 44,
      "start": 86.7523,
      "duration": 0.1958,
      "velocity": 115,
      "chip": "ym2612"
    },
    {
      "channel": 5,
      "note": 50,
      "start": 86.9522,
      "duration": 0.0961,
      "velocity": 125,
      "chip": "ym2612"
    },
    {
      "channel": 4,
      "note": 45,
      "start": 86.9555,
      "duration": 0.0966,
      "velocity": 115,
      "chip": "ym2612"
    },
    {
      "channel": 2,
      "note": 82,
      "start": 87.0541,
      "duration": 0.0757,
      "velocity": 85,
      "chip": "ym2612"
    },
    {
      "channel": 4,
      "note": 44,
      "start": 87.056,
      "duration": 0.0737,
      "velocity": 115,
      "chip": "ym2612"
    },
    {
      "channel": 0,
      "note": 50,
      "start": 87.1365,
      "duration": 0.0932,
      "velocity": 125,
      "chip": "ym2612"
    },
    {
      "channel": 4,
      "note": 45,
      "start": 87.1427,
      "duration": 0.1873,
      "velocity": 115,
      "chip": "ym2612"
    },
    {
      "channel": 4,
      "note": 44,
      "start": 87.3344,
      "duration": 0.1958,
      "velocity": 115,
      "chip": "ym2612"
    },
    {
      "channel": 0,
      "note": 50,
      "start": 87.5341,
      "duration": 0.096,
      "velocity": 125,
      "chip": "ym2612"
    },
    {
      "channel": 4,
      "note": 45,
      "start": 87.5374,
      "duration": 0.1929,
      "velocity": 115,
      "chip": "ym2612"
    },
    {
      "channel": 2,
      "note": 82,
      "start": 87.7346,
      "duration": 0.1963,
      "velocity": 85,
      "chip": "ym2612"
    },
    {
      "channel": 4,
      "note": 44,
      "start": 87.738,
      "duration": 0.1928,
      "velocity": 115,
      "chip": "ym2612"
    },
    {
      "channel": 0,
      "note": 50,
      "start": 87.9348,
      "duration": 0.1125,
      "velocity": 125,
      "chip": "ym2612"
    },
    {
      "channel": 4,
      "note": 45,
      "start": 87.938,
      "duration": 0.2096,
      "velocity": 115,
      "chip": "ym2612"
    },
    {
      "channel": 4,
      "note": 44,
      "start": 88.1522,
      "duration": 0.1957,
      "velocity": 115,
      "chip": "ym2612"
    },
    {
      "channel": 3,
      "note": 50,
      "start": 88.3521,
      "duration": 0.3962,
      "velocity": 117,
      "chip": "ym2612"
    },
    {
      "channel": 0,
      "note": 50,
      "start": 88.355,
      "duration": 0.0929,
      "velocity": 125,
      "chip": "ym2612"
    },
    {
      "channel": 4,
      "note": 45,
      "start": 88.3583,
      "duration": 0.1898,
      "velocity": 115,
      "chip": "ym2612"
    },
    {
      "channel": 2,
      "note": 82,
      "start": 88.5519,
      "duration": 0.1967,
      "velocity": 85,
      "chip": "ym2612"
    },
    {
      "channel": 4,
      "note": 44,
      "start": 88.5557,
      "duration": 0.1927,
      "velocity": 115,
      "chip": "ym2612"
    },
    {
      "channel": 3,
      "note": 44,
      "start": 88.753,
      "duration": 2.5297,
      "velocity": 117,
      "chip": "ym2612"
    },
    {
      "channel": 0,
      "note": 50,
      "start": 88.7584,
      "duration": 0.0899,
      "velocity": 125,
      "chip": "ym2612"
    },
    {
      "channel": 4,
      "note": 45,
      "start": 88.7646,
      "duration": 0.184,
      "velocity": 115,
      "chip": "ym2612"
    },
    {
      "channel": 4,
      "note": 44,
      "start": 88.9531,
      "duration": 0.1958,
      "velocity": 115,
      "chip": "ym2612"
    },
    {
      "channel": 0,
      "note": 50,
      "start": 89.1529,
      "duration": 0.0961,
      "velocity": 125,
      "chip": "ym2612"
    },
    {
      "channel": 4,
      "note": 45,
      "start": 89.1561,
      "duration": 0.1931,
      "velocity": 115,
      "chip": "ym2612"
    },
    {
      "channel": 2,
      "note": 82,
      "start": 89.353,
      "duration": 0.1966,
      "velocity": 85,
      "chip": "ym2612"
    },
    {
      "channel": 4,
      "note": 44,
      "start": 89.3564,
      "duration": 0.1931,
      "velocity": 115,
      "chip": "ym2612"
    },
    {
      "channel": 0,
      "note": 50,
      "start": 89.5535,
      "duration": 0.096,
      "velocity": 125,
      "chip": "ym2612"
    },
    {
      "channel": 4,
      "note": 45,
      "start": 89.5568,
      "duration": 0.193,
      "velocity": 115,
      "chip": "ym2612"
    },
    {
      "channel": 4,
      "note": 44,
      "start": 89.7542,
      "duration": 0.1956,
      "velocity": 115,
      "chip": "ym2612"
    },
    {
      "channel": 0,
      "note": 50,
      "start": 89.9538,
      "duration": 0.0961,
      "velocity": 125,
      "chip": "ym2612"
    },
    {
      "channel": 4,
      "note": 45,
      "start": 89.9571,
      "duration": 0.1931,
      "velocity": 115,
      "chip": "ym2612"
    },
    {
      "channel": 2,
      "note": 82,
      "start": 90.154,
      "duration": 0.1841,
      "velocity": 85,
      "chip": "ym2612"
    },
    {
      "channel": 4,
      "note": 44,
      "start": 90.1578,
      "duration": 0.1802,
      "velocity": 115,
      "chip": "ym2612"
    },
    {
      "channel": 0,
      "note": 50,
      "start": 90.3398,
      "duration": 0.002,
      "velocity": 125,
      "chip": "ym2612"
    },
    {
      "channel": 4,
      "note": 45,
      "start": 90.3417,
      "duration": 0.0001,
      "velocity": 115,
      "chip": "ym2612"
    },
    {
      "channel": 4,
      "note": 44,
      "start": 90.3437,
      "duration": 0.188,
      "velocity": 115,
      "chip": "ym2612"
    },
    {
      "channel": 0,
      "note": 50,
      "start": 90.5356,
      "duration": 0.0961,
      "velocity": 125,
      "chip": "ym2612"
    },
    {
      "channel": 4,
      "note": 45,
      "start": 90.5389,
      "duration": 0.1931,
      "velocity": 115,
      "chip": "ym2612"
    },
    {
      "channel": 2,
      "note": 82,
      "start": 90.7358,
      "duration": 0.1966,
      "velocity": 85,
      "chip": "ym2612"
    },
    {
      "channel": 4,
      "note": 44,
      "start": 90.7392,
      "duration": 0.1931,
      "velocity": 115,
      "chip": "ym2612"
    },
    {
      "channel": 0,
      "note": 50,
      "start": 90.9362,
      "duration": 0.096,
      "velocity": 125,
      "chip": "ym2612"
    },
    {
      "channel": 4,
      "note": 45,
      "start": 90.9395,
      "duration": 0.1929,
      "velocity": 115,
      "chip": "ym2612"
    },
    {
      "channel": 4,
      "note": 44,
      "start": 91.137,
      "duration": 0.1957,
      "velocity": 115,
      "chip": "ym2612"
    },
    {
      "channel": 3,
      "note": 50,
      "start": 91.3369,
      "duration": 0.3963,
      "velocity": 117,
      "chip": "ym2612"
    },
    {
      "channel": 0,
      "note": 50,
      "start": 91.3398,
      "duration": 0.093,
      "velocity": 125,
      "chip": "ym2612"
    },
    {
      "channel": 4,
      "note": 45,
      "start": 91.3431,
      "duration": 0.19,
      "velocity": 115,
      "chip": "ym2612"
    },
    {
      "channel": 2,
      "note": 82,
      "start": 91.5368,
      "duration": 0.1967,
      "velocity": 85,
      "chip": "ym2612"
    },
    {
      "channel": 4,
      "note": 44,
      "start": 91.5406,
      "duration": 0.1927,
      "velocity": 115,
      "chip": "ym2612"
    },
    {
      "channel": 3,
      "note": 44,
      "start": 91.7383,
      "duration": 1.848,
      "velocity": 117,
      "chip": "ym2612"
    },
    {
      "channel": 0,
      "note": 50,
      "start": 91.7437,
      "duration": 0.0895,
      "velocity": 125,
      "chip": "ym2612"
    },
    {
      "channel": 4,
      "note": 45,
      "start": 91.7499,
      "duration": 0.1835,
      "velocity": 115,
      "chip": "ym2612"
    },
    {
      "channel": 4,
      "note": 44,
      "start": 91.938,
      "duration": 0.2125,
      "velocity": 115,
      "chip": "ym2612"
    },
    {
      "channel": 0,
      "note": 50,
      "start": 92.1544,
      "duration": 0.096,
      "velocity": 125,
      "chip": "ym2612"
    },
    {
      "channel": 4,
      "note": 45,
      "start": 92.1577,
      "duration": 0.1931,
      "velocity": 115,
      "chip": "ym2612"
    },
    {
      "channel": 2,
      "note": 82,
      "start": 92.3546,
      "duration": 0.1966,
      "velocity": 85,
      "chip": "ym2612"
    },
    {
      "channel": 4,
      "note": 44,
      "start": 92.358,
      "duration": 0.193,
      "velocity": 115,
      "chip": "ym2612"
    },
    {
      "channel": 0,
      "note": 50,
      "start": 92.555,
      "duration": 0.096,
      "velocity": 125,
      "chip": "ym2612"
    },
    {
      "channel": 4,
      "note": 45,
      "start": 92.5583,
      "duration": 0.1632,
      "velocity": 115,
      "chip": "ym2612"
    },
    {
      "channel": 4,
      "note": 44,
      "start": 92.7234,
      "duration": 0.0,
      "velocity": 115,
      "chip": "ym2612"
    },
    {
      "channel": 0,
      "note": 50,
      "start": 92.7252,
      "duration": 0.002,
      "velocity": 125,
      "chip": "ym2612"
    },
    {
      "channel": 4,
      "note": 45,
      "start": 92.7271,
      "duration": 0.0001,
      "velocity": 115,
      "chip": "ym2612"
    },
    {
      "channel": 2,
      "note": 82,
      "start": 92.7292,
      "duration": 0.1661,
      "velocity": 85,
      "chip": "ym2612"
    },
    {
      "channel": 4,
      "note": 44,
      "start": 92.7311,
      "duration": 0.164,
      "velocity": 115,
      "chip": "ym2612"
    },
    {
      "channel": 0,
      "note": 50,
      "start": 92.9016,
      "duration": 0.0935,
      "velocity": 125,
      "chip": "ym2612"
    },
    {
      "channel": 4,
      "note": 45,
      "start": 92.9078,
      "duration": 0.1876,
      "velocity": 115,
      "chip": "ym2612"
    },
    {
      "channel": 4,
      "note": 44,
      "start": 93.0999,
      "duration": 0.1659,
      "velocity": 115,
      "chip": "ym2612"
    },
    {
      "channel": 0,
      "note": 50,
      "start": 93.2675,
      "duration": 0.002,
      "velocity": 125,
      "chip": "ym2612"
    },
    {
      "channel": 4,
      "note": 45,
      "start": 93.2694,
      "duration": 0.0001,
      "velocity": 115,
      "chip": "ym2612"
    },
    {
      "channel": 2,
      "note": 82,
      "start": 93.2715,
      "duration": 0.002,
      "velocity": 85,
      "chip": "ym2612"
    },
    {
      "channel": 4,
      "note": 44,
      "start": 93.2734,
      "duration": 0.0,
      "velocity": 115,
      "chip": "ym2612"
    },
    {
      "channel": 0,
      "note": 50,
      "start": 93.2752,
      "duration": 0.0608,
      "velocity": 125,
      "chip": "ym2612"
    },
    {
      "channel": 4,
      "note": 45,
      "start": 93.2771,
      "duration": 0.1592,
      "velocity": 115,
      "chip": "ym2612"
    },
    {
      "channel": 4,
      "note": 44,
      "start": 93.4408,
      "duration": 0.1957,
      "velocity": 115,
      "chip": "ym2612"
    },
    {
      "channel": 0,
      "note": 50,
      "start": 93.6404,
      "duration": 0.0961,
      "velocity": 125,
      "chip": "ym2612"
    },
    {
      "channel": 4,
      "note": 45,
      "start": 93.6437,
      "duration": 0.193,
      "velocity": 115,
      "chip": "ym2612"
    },
    {
      "channel": 2,
      "note": 82,
      "start": 93.8407,
      "duration": 0.1965,
      "velocity": 85,
      "chip": "ym2612"
    },
    {
      "channel": 4,
      "note": 44,
      "start": 93.8445,
      "duration": 0.1925,
      "velocity": 115,
      "chip": "ym2612"
    },
    {
      "channel": 1,
      "note": 56,
      "start": 94.0429,
      "duration": 0.1944,
      "velocity": 105,
      "chip": "ym2612"
    },
    {
      "channel": 5,
      "note": 68,
      "start": 94.048,
      "duration": 0.1896,
      "velocity": 108,
      "chip": "ym2612"
    },
    {
      "channel": 0,
      "note": 50,
      "start": 94.0536,
      "duration": 0.0835,
      "velocity": 125,
      "chip": "ym2612"
    },
    {
      "channel": 4,
      "note": 45,
      "start": 94.0598,
      "duration": 0.1776,
      "velocity": 115,
      "chip": "ym2612"
    },
    {
      "channel": 1,
      "note": 54,
      "start": 94.2411,
      "duration": 0.1963,
      "velocity": 105,
      "chip": "ym2612"
    },
    {
      "channel": 5,
      "note": 66,
      "start": 94.2441,
      "duration": 0.1936,
      "velocity": 108,
      "chip": "ym2612"
    },
    {
      "channel": 4,
      "note": 44,
      "start": 94.2478,
      "duration": 0.1898,
      "velocity": 115,
      "chip": "ym2612"
    },
    {
      "channel": 1,
      "note": 51,
      "start": 94.4413,
      "duration": 0.1964,
      "velocity": 105,
      "chip": "ym2612"
    },
    {
      "channel": 5,
      "note": 63,
      "start": 94.4443,
      "duration": 0.1937,
      "velocity": 108,
      "chip": "ym2612"
    },
    {
      "channel": 0,
      "note": 50,
      "start": 94.4474,
      "duration": 0.0901,
      "velocity": 125,
      "chip": "ym2612"
    },
    {
      "channel": 4,
      "note": 45,
      "start": 94.4507,
      "duration": 0.1872,
      "velocity": 115,
      "chip": "ym2612"
    },
    {
      "channel": 1,
      "note": 49,
      "start": 94.6415,
      "duration": 0.1964,
      "velocity": 105,
      "chip": "ym2612"
    },
    {
      "channel": 5,
      "note": 61,
      "start": 94.6445,
      "duration": 0.1937,
      "velocity": 108,
      "chip": "ym2612"
    },
    {
      "channel": 4,
      "note": 44,
      "start": 94.6482,
      "duration": 0.1899,
      "velocity": 115,
      "chip": "ym2612"
    },
    {
      "channel": 1,
      "note": 51,
      "start": 94.8418,
      "duration": 0.1964,
      "velocity": 105,
      "chip": "ym2612"
    },
    {
      "channel": 5,
      "note": 63,
      "start": 94.8448,
      "duration": 0.1937,
      "velocity": 108,
      "chip": "ym2612"
    },
    {
      "channel": 0,
      "note": 50,
      "start": 94.8479,
      "duration": 0.0901,
      "velocity": 125,
      "chip": "ym2612"
    },
    {
      "channel": 4,
      "note": 45,
      "start": 94.8512,
      "duration": 0.1872,
      "velocity": 115,
      "chip": "ym2612"
    },
    {
      "channel": 1,
      "note": 54,
      "start": 95.0426,
      "duration": 0.1958,
      "velocity": 105,
      "chip": "ym2612"
    },
    {
      "channel": 5,
      "note": 66,
      "start": 95.0462,
      "duration": 0.1926,
      "velocity": 108,
      "chip": "ym2612"
    },
    {
      "channel": 4,
      "note": 44,
      "start": 95.0499,
      "duration": 0.1888,
      "velocity": 115,
      "chip": "ym2612"
    },
    {
      "channel": 0,
      "note": 50,
      "start": 95.2426,
      "duration": 0.096,
      "velocity": 125,
      "chip": "ym2612"
    },
    {
      "channel": 4,
      "note": 45,
      "start": 95.2459,
      "duration": 0.2097,
      "velocity": 115,
      "chip": "ym2612"
    },
    {
      "channel": 4,
      "note": 44,
      "start": 95.4604,
      "duration": 0.1953,
      "velocity": 115,
      "chip": "ym2612"
    },
    {
      "channel": 1,
      "note": 61,
      "start": 95.6595,
      "duration": 0.1964,
      "velocity": 105,
      "chip": "ym2612"
    },
    {
      "channel": 5,
      "note": 73,
      "start": 95.6627,
      "duration": 0.1935,
      "velocity": 108,
      "chip": "ym2612"
    },
    {
      "channel": 0,
      "note": 50,
      "start": 95.6683,
      "duration": 0.0875,
      "velocity": 125,
      "chip": "ym2612"
    },
    {
      "channel": 4,
      "note": 45,
      "start": 95.6745,
      "duration": 0.1816,
      "velocity": 115,
      "chip": "ym2612"
    },
    {
      "channel": 1,
      "note": 59,
      "start": 95.8598,
      "duration": 0.1964,
      "velocity": 105,
      "chip": "ym2612"
    },
    {
      "channel": 5,
      "note": 71,
      "start": 95.8628,
      "duration": 0.1937,
      "velocity": 108,
      "chip": "ym2612"
    },
    {
      "channel": 4,
      "note": 44,
      "start": 95.8665,
      "duration": 0.1899,
      "velocity": 115,
      "chip": "ym2612"
    },
    {
      "channel": 1,
      "note": 56,
      "start": 96.06,
      "duration": 0.1964,
      "velocity": 105,
      "chip": "ym2612"
    },
    {
      "channel": 5,
      "note": 68,
      "start": 96.0631,
      "duration": 0.1937,
      "velocity": 108,
      "chip": "ym2612"
    },
    {
      "channel": 0,
      "note": 50,
      "start": 96.0661,
      "duration": 0.0901,
      "velocity": 125,
      "chip": "ym2612"
    },
    {
      "channel": 4,
      "note": 45,
      "start": 96.0694,
      "duration": 0.1872,
      "velocity": 115,
      "chip": "ym2612"
    },
    {
      "channel": 1,
      "note": 54,
      "start": 96.2603,
      "duration": 0.1964,
      "velocity": 105,
      "chip": "ym2612"
    },
    {
      "channel": 5,
      "note": 66,
      "start": 96.2633,
      "duration": 0.1937,
      "velocity": 108,
      "chip": "ym2612"
    },
    {
      "channel": 4,
      "note": 44,
      "start": 96.267,
      "duration": 0.1899,
      "velocity": 115,
      "chip": "ym2612"
    },
    {
      "channel": 1,
      "note": 56,
      "start": 96.4606,
      "duration": 0.1964,
      "velocity": 105,
      "chip": "ym2612"
    },
    {
      "channel": 5,
      "note": 68,
      "start": 96.4636,
      "duration": 0.1937,
      "velocity": 108,
      "chip": "ym2612"
    },
    {
      "channel": 0,
      "note": 50,
      "start": 96.4667,
      "duration": 0.0901,
      "velocity": 125,
      "chip": "ym2612"
    },
    {
      "channel": 4,
      "note": 45,
      "start": 96.47,
      "duration": 0.1872,
      "velocity": 115,
      "chip": "ym2612"
    },
    {
      "channel": 1,
      "note": 59,
      "start": 96.661,
      "duration": 0.1963,
      "velocity": 105,
      "chip": "ym2612"
    },
    {
      "channel": 5,
      "note": 71,
      "start": 96.6642,
      "duration": 0.1934,
      "velocity": 108,
      "chip": "ym2612"
    },
    {
      "channel": 4,
      "note": 44,
      "start": 96.6679,
      "duration": 0.1896,
      "velocity": 115,
      "chip": "ym2612"
    },
    {
      "channel": 0,
      "note": 50,
      "start": 96.8614,
      "duration": 0.0959,
      "velocity": 125,
      "chip": "ym2612"
    },
    {
      "channel": 4,
      "note": 45,
      "start": 96.8647,
      "duration": 0.1929,
      "velocity": 115,
      "chip": "ym2612"
    },
    {
      "channel": 4,
      "note": 44,
      "start": 97.0625,
      "duration": 0.1954,
      "velocity": 115,
      "chip": "ym2612"
    },
    {
      "channel": 1,
      "note": 62,
      "start": 97.2617,
      "duration": 0.1336,
      "velocity": 105,
      "chip": "ym2612"
    },
    {
      "channel": 5,
      "note": 74,
      "start": 97.2648,
      "duration": 0.1282,
      "velocity": 108,
      "chip": "ym2612"
    },
    {
      "channel": 0,
      "note": 50,
      "start": 97.2704,
      "duration": 0.0873,
      "velocity": 125,
      "chip": "ym2612"
    },
    {
      "channel": 4,
      "note": 45,
      "start": 97.2767,
      "duration": 0.1186,
      "velocity": 115,
      "chip": "ym2612"
    },
    {
      "channel": 1,
      "note": 63,
      "start": 97.3974,
      "duration": 0.0425,
      "velocity": 105,
      "chip": "ym2612"
    },
    {
      "channel": 3,
      "note": 75,
      "start": 97.3994,
      "duration": 0.0407,
      "velocity": 108,
      "chip": "ym2612"
    },
    {
      "channel": 4,
      "note": 44,
      "start": 97.4016,
      "duration": 0.0386,
      "velocity": 115,
      "chip": "ym2612"
    },
    {
      "channel": 1,
      "note": 62,
      "start": 97.4438,
      "duration": 0.1964,
      "velocity": 105,
      "chip": "ym2612"
    },
    {
      "channel": 3,
      "note": 74,
      "start": 97.4467,
      "duration": 0.1936,
      "velocity": 108,
      "chip": "ym2612"
    },
    {
      "channel": 0,
      "note": 50,
      "start": 97.4498,
      "duration": 0.0902,
      "velocity": 125,
      "chip": "ym2612"
    },
    {
      "channel": 4,
      "note": 45,
      "start": 97.453,
      "duration": 0.1874,
      "velocity": 115,
      "chip": "ym2612"
    },
    {
      "channel": 1,
      "note": 63,
      "start": 97.6441,
      "duration": 0.1964,
      "velocity": 105,
      "chip": "ym2612"
    },
    {
      "channel": 3,
      "note": 75,
      "start": 97.647,
      "duration": 0.1937,
      "velocity": 108,
      "chip": "ym2612"
    },
    {
      "channel": 4,
      "note": 44,
      "start": 97.6506,
      "duration": 0.1901,
      "velocity": 115,
      "chip": "ym2612"
    },
    {
      "channel": 1,
      "note": 61,
      "start": 97.8444,
      "duration": 0.1964,
      "velocity": 105,
      "chip": "ym2612"
    },
    {
      "channel": 3,
      "note": 73,
      "start": 97.8473,
      "duration": 0.1936,
      "velocity": 108,
      "chip": "ym2612"
    },
    {
      "channel": 0,
      "note": 50,
      "start": 97.8503,
      "duration": 0.0902,
      "velocity": 125,
      "chip": "ym2612"
    },
    {
      "channel": 4,
      "note": 45,
      "start": 97.8536,
      "duration": 0.1874,
      "velocity": 115,
      "chip": "ym2612"
    },
    {
      "channel": 1,
      "note": 59,
      "start": 98.045,
      "duration": 0.196,
      "velocity": 105,
      "chip": "ym2612"
    },
    {
      "channel": 3,
      "note": 71,
      "start": 98.0483,
      "duration": 0.1928,
      "velocity": 108,
      "chip": "ym2612"
    },
    {
      "channel": 4,
      "note": 44,
      "start": 98.052,
      "duration": 0.1893,
      "velocity": 115,
      "chip": "ym2612"
    },
    {
      "channel": 1,
      "note": 56,
      "start": 98.2448,
      "duration": 0.1964,
      "velocity": 105,
      "chip": "ym2612"
    },
    {
      "channel": 3,
      "note": 68,
      "start": 98.2478,
      "duration": 0.1936,
      "velocity": 108,
      "chip": "ym2612"
    },
    {
      "channel": 0,
      "note": 50,
      "start": 98.2508,
      "duration": 0.0902,
      "velocity": 125,
      "chip": "ym2612"
    },
    {
      "channel": 4,
      "note": 45,
      "start": 98.2541,
      "duration": 0.1874,
      "velocity": 115,
      "chip": "ym2612"
    },
    {
      "channel": 1,
      "note": 54,
      "start": 98.4452,
      "duration": 0.1963,
      "velocity": 105,
      "chip": "ym2612"
    },
    {
      "channel": 3,
      "note": 66,
      "start": 98.4484,
      "duration": 0.1932,
      "velocity": 108,
      "chip": "ym2612"
    },
    {
      "channel": 4,
      "note": 44,
      "start": 98.4525,
      "duration": 0.1892,
      "velocity": 115,
      "chip": "ym2612"
    },
    {
      "channel": 0,
      "note": 50,
      "start": 98.6481,
      "duration": 0.0935,
      "velocity": 125,
      "chip": "ym2612"
    },
    {
      "channel": 4,
      "note": 45,
      "start": 98.6543,
      "duration": 0.1876,
      "velocity": 115,
      "chip": "ym2612"
    },
    {
      "channel": 4,
      "note": 44,
      "start": 98.8463,
      "duration": 0.1958,
      "velocity": 115,
      "chip": "ym2612"
    },
    {
      "channel": 1,
      "note": 56,
      "start": 99.0459,
      "duration": 0.1964,
      "velocity": 105,
      "chip": "ym2612"
    },
    {
      "channel": 2,
      "note": 82,
      "start": 99.0491,
      "duration": 0.1936,
      "velocity": 85,
      "chip": "ym2612"
    },
    {
      "channel": 0,
      "note": 50,
      "start": 99.052,
      "duration": 0.0902,
      "velocity": 125,
      "chip": "ym2612"
    },
    {
      "channel": 4,
      "note": 45,
      "start": 99.0552,
      "duration": 0.1873,
      "velocity": 115,
      "chip": "ym2612"
    },
    {
      "channel": 4,
      "note": 44,
      "start": 99.2471,
      "duration": 0.1956,
      "velocity": 115,
      "chip": "ym2612"
    },
    {
      "channel": 1,
      "note": 56,
      "start": 99.4464,
      "duration": 0.2131,
      "velocity": 105,
      "chip": "ym2612"
    },
    {
      "channel": 2,
      "note": 82,
      "start": 99.4496,
      "duration": 0.2103,
      "velocity": 85,
      "chip": "ym2612"
    },
    {
      "channel": 0,
      "note": 50,
      "start": 99.4524,
      "duration": 0.1069,
      "velocity": 125,
      "chip": "ym2612"
    },
    {
      "channel": 4,
      "note": 45,
      "start": 99.4557,
      "duration": 0.204,
      "velocity": 115,
      "chip": "ym2612"
    },
    {
      "channel": 1,
      "note": 56,
      "start": 99.6636,
      "duration": 0.1961,
      "velocity": 105,
      "chip": "ym2612"
    },
    {
      "channel": 2,
      "note": 82,
      "start": 99.6673,
      "duration": 0.1928,
      "velocity": 85,
      "chip": "ym2612"
    },
    {
      "channel": 4,
      "note": 44,
      "start": 99.6707,
      "duration": 0.1892,
      "velocity": 115,
      "chip": "ym2612"
    },
    {
      "channel": 0,
      "note": 50,
      "start": 99.8639,
      "duration": 0.096,
      "velocity": 125,
      "chip": "ym2612"
    },
    {
      "channel": 4,
      "note": 45,
      "start": 99.8671,
      "duration": 0.193,
      "velocity": 115,
      "chip": "ym2612"
    },
    {
      "channel": 4,
      "note": 44,
      "start": 100.065,
      "duration": 0.1953,
      "velocity": 115,
      "chip": "ym2612"
    },
    {
      "channel": 1,
      "note": 56,
      "start": 100.2641,
      "duration": 0.1964,
      "velocity": 105,
      "chip": "ym2612"
    },
    {
      "channel": 3,
      "note": 68,
      "start": 100.2671,
      "duration": 0.1935,
      "velocity": 108,
      "chip": "ym2612"
    },
    {
      "channel": 0,
      "note": 50,
      "start": 100.2727,
      "duration": 0.0876,
      "velocity": 125,
      "chip": "ym2612"
    },
    {
      "channel": 4,
      "note": 45,
      "start": 100.279,
      "duration": 0.1818,
      "velocity": 115,
      "chip": "ym2612"
    },
    {
      "channel": 1,
      "note": 54,
      "start": 100.4644,
      "duration": 0.1964,
      "velocity": 105,
      "chip": "ym2612"
    },
    {
      "channel": 3,
      "note": 66,
      "start": 100.4673,
      "duration": 0.1937,
      "velocity": 108,
      "chip": "ym2612"
    },
    {
      "channel": 4,
      "note": 44,
      "start": 100.471,
      "duration": 0.1901,
      "velocity": 115,
      "chip": "ym2612"
    },
    {
      "channel": 1,
      "note": 51,
      "start": 100.6647,
      "duration": 0.0168,
      "velocity": 105,
      "chip": "ym2612"
    },
    {
      "channel": 3,
      "note": 63,
      "start": 100.6676,
      "duration": 0.0139,
      "velocity": 108,
      "chip": "ym2612"
    },
    {
      "channel": 0,
      "note": 50,
      "start": 100.6707,
      "duration": 0.0108,
      "velocity": 125,
      "chip": "ym2612"
    },
    {
      "channel": 4,
      "note": 45,
      "start": 100.6739,
      "duration": 0.0076,
      "velocity": 115,
      "chip": "ym2612"
    },
    {
      "channel": 1,
      "note": 49,
      "start": 100.6837,
      "duration": 0.1589,
      "velocity": 105,
      "chip": "ym2612"
    },
    {
      "channel": 3,
      "note": 61,
      "start": 100.6854,
      "duration": 0.1573,
      "velocity": 108,
      "chip": "ym2612"
    },
    {
      "channel": 4,
      "note": 44,
      "start": 100.6876,
      "duration": 0.1553,
      "velocity": 115,
      "chip": "ym2612"
    },
    {
      "channel": 1,
      "note": 51,
      "start": 100.8465,
      "duration": 0.1964,
      "velocity": 105,
      "chip": "ym2612"
    },
    {
      "channel": 3,
      "note": 63,
      "start": 100.8494,
      "duration": 0.1936,
      "velocity": 108,
      "chip": "ym2612"
    },
    {
      "channel": 0,
      "note": 50,
      "start": 100.8525,
      "duration": 0.0902,
      "velocity": 125,
      "chip": "ym2612"
    },
    {
      "channel": 4,
      "note": 45,
      "start": 100.8557,
      "duration": 0.1874,
      "velocity": 115,
      "chip": "ym2612"
    },
    {
      "channel": 1,
      "note": 54,
      "start": 101.0473,
      "duration": 0.1959,
      "velocity": 105,
      "chip": "ym2612"
    },
    {
      "channel": 3,
      "note": 66,
      "start": 101.0504,
      "duration": 0.1929,
      "velocity": 108,
      "chip": "ym2612"
    },
    {
      "channel": 4,
      "note": 44,
      "start": 101.054,
      "duration": 0.1894,
      "velocity": 115,
      "chip": "ym2612"
    },
    {
      "channel": 0,
      "note": 50,
      "start": 101.2473,
      "duration": 0.096,
      "velocity": 125,
      "chip": "ym2612"
    },
    {
      "channel": 4,
      "note": 45,
      "start": 101.2506,
      "duration": 0.193,
      "velocity": 115,
      "chip": "ym2612"
    },
    {
      "channel": 4,
      "note": 44,
      "start": 101.4485,
      "duration": 0.1953,
      "velocity": 115,
      "chip": "ym2612"
    },
    {
      "channel": 1,
      "note": 61,
      "start": 101.6475,
      "duration": 0.1964,
      "velocity": 105,
      "chip": "ym2612"
    },
    {
      "channel": 3,
      "note": 73,
      "start": 101.6506,
      "duration": 0.1935,
      "velocity": 108,
      "chip": "ym2612"
    },
    {
      "channel": 0,
      "note": 50,
      "start": 101.6562,
      "duration": 0.0876,
      "velocity": 125,
      "chip": "ym2612"
    },
    {
      "channel": 4,
      "note": 45,
      "start": 101.6624,
      "duration": 0.1818,
      "velocity": 115,
      "chip": "ym2612"
    },
    {
      "channel": 1,
      "note": 59,
      "start": 101.8478,
      "duration": 0.1964,
      "velocity": 105,
      "chip": "ym2612"
    },
    {
      "channel": 3,
      "note": 71,
      "start": 101.8507,
      "duration": 0.1936,
      "velocity": 108,
      "chip": "ym2612"
    },
    {
      "channel": 4,
      "note": 44,
      "start": 101.8544,
      "duration": 0.1901,
      "velocity": 115,
      "chip": "ym2612"
    },
    {
      "channel": 1,
      "note": 56,
      "start": 102.0481,
      "duration": 0.1964,
      "velocity": 105,
      "chip": "ym2612"
    },
    {
      "channel": 3,
      "note": 68,
      "start": 102.0514,
      "duration": 0.1932,
      "velocity": 108,
      "chip": "ym2612"
    },
    {
      "channel": 0,
      "note": 50,
      "start": 102.0545,
      "duration": 0.0898,
      "velocity": 125,
      "chip": "ym2612"
    },
    {
      "channel": 4,
      "note": 45,
      "start": 102.0578,
      "duration": 0.187,
      "velocity": 115,
      "chip": "ym2612"
    },
    {
      "channel": 1,
      "note": 54,
      "start": 102.2483,
      "duration": 0.1964,
      "velocity": 105,
      "chip": "ym2612"
    },
    {
      "channel": 3,
      "note": 66,
      "start": 102.2513,
      "duration": 0.1937,
      "velocity": 108,
      "chip": "ym2612"
    },
    {
      "channel": 4,
      "note": 44,
      "start": 102.2549,
      "duration": 0.1901,
      "velocity": 115,
      "chip": "ym2612"
    },
    {
      "channel": 1,
      "note": 56,
      "start": 102.4486,
      "duration": 0.1964,
      "velocity": 105,
      "chip": "ym2612"
    },
    {
      "channel": 3,
      "note": 68,
      "start": 102.4516,
      "duration": 0.1936,
      "velocity": 108,
      "chip": "ym2612"
    },
    {
      "channel": 0,
      "note": 50,
      "start": 102.4546,
      "duration": 0.0902,
      "velocity": 125,
      "chip": "ym2612"
    },
    {
      "channel": 4,
      "note": 45,
      "start": 102.4579,
      "duration": 0.1874,
      "velocity": 115,
      "chip": "ym2612"
    },
    {
      "channel": 1,
      "note": 59,
      "start": 102.6491,
      "duration": 0.1962,
      "velocity": 105,
      "chip": "ym2612"
    },
    {
      "channel": 3,
      "note": 71,
      "start": 102.6521,
      "duration": 0.1932,
      "velocity": 108,
      "chip": "ym2612"
    },
    {
      "channel": 4,
      "note": 44,
      "start": 102.6558,
      "duration": 0.1897,
      "velocity": 115,
      "chip": "ym2612"
    },
    {
      "channel": 0,
      "note": 50,
      "start": 102.8494,
      "duration": 0.096,
      "velocity": 125,
      "chip": "ym2612"
    },
    {
      "channel": 4,
      "note": 45,
      "start": 102.8527,
      "duration": 0.193,
      "velocity": 115,
      "chip": "ym2612"
    },
    {
      "channel": 4,
      "note": 44,
      "start": 103.0517,
      "duration": 0.0,
      "velocity": 115,
      "chip": "ym2612"
    },
    {
      "channel": 1,
      "note": 62,
      "start": 103.0539,
      "duration": 0.0057,
      "velocity": 105,
      "chip": "ym2612"
    },
    {
      "channel": 3,
      "note": 74,
      "start": 103.0556,
      "duration": 0.004,
      "velocity": 108,
      "chip": "ym2612"
    },
    {
      "channel": 0,
      "note": 50,
      "start": 103.0573,
      "duration": 0.0022,
      "velocity": 125,
      "chip": "ym2612"
    },
    {
      "channel": 4,
      "note": 45,
      "start": 103.0595,
      "duration": 0.0002,
      "velocity": 115,
      "chip": "ym2612"
    },
    {
      "channel": 1,
      "note": 63,
      "start": 103.0617,
      "duration": 0.1449,
      "velocity": 105,
      "chip": "ym2612"
    },
    {
      "channel": 3,
      "note": 75,
      "start": 103.0634,
      "duration": 0.1433,
      "velocity": 108,
      "chip": "ym2612"
    },
    {
      "channel": 4,
      "note": 44,
      "start": 103.0656,
      "duration": 0.1412,
      "velocity": 115,
      "chip": "ym2612"
    },
    {
      "channel": 1,
      "note": 62,
      "start": 103.2105,
      "duration": 0.1964,
      "velocity": 105,
      "chip": "ym2612"
    },
    {
      "channel": 3,
      "note": 74,
      "start": 103.2134,
      "duration": 0.1936,
      "velocity": 108,
      "chip": "ym2612"
    },
    {
      "channel": 0,
      "note": 50,
      "start": 103.2165,
      "duration": 0.0902,
      "velocity": 125,
      "chip": "ym2612"
    },
    {
      "channel": 4,
      "note": 45,
      "start": 103.2198,
      "duration": 0.1874,
      "velocity": 115,
      "chip": "ym2612"
    },
    {
      "channel": 1,
      "note": 63,
      "start": 103.4107,
      "duration": 0.1964,
      "velocity": 105,
      "chip": "ym2612"
    },
    {
      "channel": 3,
      "note": 75,
      "start": 103.4137,
      "duration": 0.1936,
      "velocity": 108,
      "chip": "ym2612"
    },
    {
      "channel": 4,
      "note": 44,
      "start": 103.4173,
      "duration": 0.1901,
      "velocity": 115,
      "chip": "ym2612"
    },
    {
      "channel": 1,
      "note": 61,
      "start": 103.611,
      "duration": 0.0097,
      "velocity": 105,
      "chip": "ym2612"
    },
    {
      "channel": 3,
      "note": 73,
      "start": 103.6139,
      "duration": 0.0068,
      "velocity": 108,
      "chip": "ym2612"
    },
    {
      "channel": 0,
      "note": 50,
      "start": 103.6184,
      "duration": 0.0022,
      "velocity": 125,
      "chip": "ym2612"
    },
    {
      "channel": 4,
      "note": 45,
      "start": 103.6206,
      "duration": 0.0002,
      "velocity": 115,
      "chip": "ym2612"
    },
    {
      "channel": 1,
      "note": 59,
      "start": 103.6229,
      "duration": 0.0039,
      "velocity": 105,
      "chip": "ym2612"
    },
    {
      "channel": 3,
      "note": 71,
      "start": 103.6247,
      "duration": 0.0023,
      "velocity": 108,
      "chip": "ym2612"
    },
    {
      "channel": 4,
      "note": 44,
      "start": 103.6268,
      "duration": 0.0002,
      "velocity": 115,
      "chip": "ym2612"
    },
    {
      "channel": 1,
      "note": 56,
      "start": 103.6292,
      "duration": 0.1227,
      "velocity": 105,
      "chip": "ym2612"
    },
    {
      "channel": 3,
      "note": 68,
      "start": 103.6308,
      "duration": 0.1212,
      "velocity": 108,
      "chip": "ym2612"
    },
    {
      "channel": 0,
      "note": 50,
      "start": 103.6325,
      "duration": 0.0192,
      "velocity": 125,
      "chip": "ym2612"
    },
    {
      "channel": 4,
      "note": 45,
      "start": 103.6347,
      "duration": 0.1175,
      "velocity": 115,
      "chip": "ym2612"
    },
    {
      "channel": 1,
      "note": 54,
      "start": 103.7559,
      "duration": 0.1964,
      "velocity": 105,
      "chip": "ym2612"
    },
    {
      "channel": 3,
      "note": 66,
      "start": 103.7591,
      "duration": 0.1933,
      "velocity": 108,
      "chip": "ym2612"
    },
    {
      "channel": 4,
      "note": 44,
      "start": 103.7632,
      "duration": 0.1894,
      "velocity": 115,
      "chip": "ym2612"
    },
    {
      "channel": 0,
      "note": 50,
      "start": 103.959,
      "duration": 0.0933,
      "velocity": 125,
      "chip": "ym2612"
    },
    {
      "channel": 4,
      "note": 45,
      "start": 103.9651,
      "duration": 0.1874,
      "velocity": 115,
      "chip": "ym2612"
    },
    {
      "channel": 4,
      "note": 44,
      "start": 104.157,
      "duration": 0.1959,
      "velocity": 115,
      "chip": "ym2612"
    },
    {
      "channel": 2,
      "note": 82,
      "start": 104.3568,
      "duration": 0.1966,
      "velocity": 85,
      "chip": "ym2612"
    },
    {
      "channel": 0,
      "note": 50,
      "start": 104.3596,
      "duration": 0.0933,
      "velocity": 125,
      "chip": "ym2612"
    },
    {
      "channel": 4,
      "note": 45,
      "start": 104.3629,
      "duration": 0.1903,
      "velocity": 115,
      "chip": "ym2612"
    },
    {
      "channel": 1,
      "note": 59,
      "start": 104.3732,
      "duration": 0.1966,
      "velocity": 105,
      "chip": "ym2612"
    },
    {
      "channel": 4,
      "note": 44,
      "start": 104.5577,
      "duration": 0.1956,
      "velocity": 115,
      "chip": "ym2612"
    },
    {
      "channel": 2,
      "note": 82,
      "start": 104.7572,
      "duration": 0.1966,
      "velocity": 85,
      "chip": "ym2612"
    },
    {
      "channel": 0,
      "note": 50,
      "start": 104.76,
      "duration": 0.0933,
      "velocity": 125,
      "chip": "ym2612"
    },
    {
      "channel": 4,
      "note": 45,
      "start": 104.7634,
      "duration": 0.1903,
      "velocity": 115,
      "chip": "ym2612"
    },
    {
      "channel": 1,
      "note": 58,
      "start": 104.7738,
      "duration": 0.1964,
      "velocity": 105,
      "chip": "ym2612"
    },
    {
      "channel": 5,
      "note": 56,
      "start": 104.9579,
      "duration": 0.1961,
      "velocity": 105,
      "chip": "ym2612"
    },
    {
      "channel": 2,
      "note": 82,
      "start": 104.961,
      "duration": 0.1931,
      "velocity": 85,
      "chip": "ym2612"
    },
    {
      "channel": 4,
      "note": 44,
      "start": 104.9644,
      "duration": 0.1895,
      "velocity": 115,
      "chip": "ym2612"
    },
    {
      "channel": 0,
      "note": 50,
      "start": 105.158,
      "duration": 0.0959,
      "velocity": 125,
      "chip": "ym2612"
    },
    {
      "channel": 4,
      "note": 45,
      "start": 105.1613,
      "duration": 0.1928,
      "velocity": 115,
      "chip": "ym2612"
    },
    {
      "channel": 3,
      "note": 57,
      "start": 105.1749,
      "duration": 0.1291,
      "velocity": 78,
      "chip": "ym2612"
    },
    {
      "channel": 3,
      "note": 60,
      "start": 105.3073,
      "duration": 0.1302,
      "velocity": 78,
      "chip": "ym2612"
    },
    {
      "channel": 4,
      "note": 44,
      "start": 105.359,
      "duration": 0.1955,
      "velocity": 115,
      "chip": "ym2612"
    },
    {
      "channel": 3,
      "note": 63,
      "start": 105.4408,
      "duration": 0.1303,
      "velocity": 78,
      "chip": "ym2612"
    },
    {
      "channel": 0,
      "note": 50,
      "start": 105.5608,
      "duration": 0.0936,
      "velocity": 125,
      "chip": "ym2612"
    },
    {
      "channel": 4,
      "note": 45,
      "start": 105.5669,
      "duration": 0.1878,
      "velocity": 115,
      "chip": "ym2612"
    },
    {
      "channel": 3,
      "note": 66,
      "start": 105.5751,
      "duration": 0.1963,
      "velocity": 78,
      "chip": "ym2612"
    },
    {
      "channel": 4,
      "note": 44,
      "start": 105.7591,
      "duration": 0.1957,
      "velocity": 115,
      "chip": "ym2612"
    },
    {
      "channel": 3,
      "note": 66,
      "start": 105.7748,
      "duration": 0.1967,
      "velocity": 78,
      "chip": "ym2612"
    },
    {
      "channel": 0,
      "note": 50,
      "start": 105.9587,
      "duration": 0.0962,
      "velocity": 125,
      "chip": "ym2612"
    },
    {
      "channel": 4,
      "note": 45,
      "start": 105.962,
      "duration": 0.1932,
      "velocity": 115,
      "chip": "ym2612"
    },
    {
      "channel": 4,
      "note": 44,
      "start": 106.1596,
      "duration": 0.1958,
      "velocity": 115,
      "chip": "ym2612"
    },
    {
      "channel": 3,
      "note": 66,
      "start": 106.175,
      "duration": 0.197,
      "velocity": 78,
      "chip": "ym2612"
    },
    {
      "channel": 0,
      "note": 50,
      "start": 106.3592,
      "duration": 0.0962,
      "velocity": 125,
      "chip": "ym2612"
    },
    {
      "channel": 4,
      "note": 45,
      "start": 106.3625,
      "duration": 0.1932,
      "velocity": 115,
      "chip": "ym2612"
    },
    {
      "channel": 4,
      "note": 44,
      "start": 106.5601,
      "duration": 0.1958,
      "velocity": 115,
      "chip": "ym2612"
    },
    {
      "channel": 3,
      "note": 66,
      "start": 106.5756,
      "duration": 0.197,
      "velocity": 78,
      "chip": "ym2612"
    },
    {
      "channel": 0,
      "note": 50,
      "start": 106.7597,
      "duration": 0.0962,
      "velocity": 125,
      "chip": "ym2612"
    },
    {
      "channel": 4,
      "note": 45,
      "start": 106.763,
      "duration": 0.2099,
      "velocity": 115,
      "chip": "ym2612"
    },
    {
      "channel": 4,
      "note": 44,
      "start": 106.9777,
      "duration": 0.1954,
      "velocity": 115,
      "chip": "ym2612"
    },
    {
      "channel": 3,
      "note": 66,
      "start": 106.9927,
      "duration": 0.197,
      "velocity": 78,
      "chip": "ym2612"
    },
    {
      "channel": 0,
      "note": 50,
      "start": 107.1794,
      "duration": 0.0937,
      "velocity": 125,
      "chip": "ym2612"
    },
    {
      "channel": 4,
      "note": 45,
      "start": 107.1856,
      "duration": 0.1878,
      "velocity": 115,
      "chip": "ym2612"
    },
    {
      "channel": 4,
      "note": 44,
      "start": 107.3778,
      "duration": 0.1958,
      "velocity": 115,
      "chip": "ym2612"
    },
    {
      "channel": 3,
      "note": 66,
      "start": 107.3934,
      "duration": 0.1969,
      "velocity": 78,
      "chip": "ym2612"
    },
    {
      "channel": 0,
      "note": 50,
      "start": 107.5775,
      "duration": 0.0961,
      "velocity": 125,
      "chip": "ym2612"
    },
    {
      "channel": 4,
      "note": 45,
      "start": 107.5807,
      "duration": 0.1637,
      "velocity": 115,
      "chip": "ym2612"
    },
    {
      "channel": 3,
      "note": 63,
      "start": 107.5936,
      "duration": 0.153,
      "velocity": 78,
      "chip": "ym2612"
    },
    {
      "channel": 4,
      "note": 44,
      "start": 107.7466,
      "duration": 0.0093,
      "velocity": 115,
      "chip": "ym2612"
    },
    {
      "channel": 3,
      "note": 66,
      "start": 107.7486,
      "duration": 0.024,
      "velocity": 78,
      "chip": "ym2612"
    },
    {
      "channel": 0,
      "note": 50,
      "start": 107.7598,
      "duration": 0.0961,
      "velocity": 125,
      "chip": "ym2612"
    },
    {
      "channel": 4,
      "note": 45,
      "start": 107.763,
      "duration": 0.1932,
      "velocity": 115,
      "chip": "ym2612"
    },
    {
      "channel": 3,
      "note": 60,
      "start": 107.7759,
      "duration": 0.197,
      "velocity": 78,
      "chip": "ym2612"
    },
    {
      "channel": 4,
      "note": 44,
      "start": 107.9606,
      "duration": 0.1958,
      "velocity": 115,
      "chip": "ym2612"
    },
    {
      "channel": 3,
      "note": 57,
      "start": 107.9764,
      "duration": 0.1966,
      "velocity": 78,
      "chip": "ym2612"
    },
    {
      "channel": 0,
      "note": 50,
      "start": 108.1602,
      "duration": 0.0962,
      "velocity": 125,
      "chip": "ym2612"
    },
    {
      "channel": 4,
      "note": 45,
      "start": 108.1635,
      "duration": 0.1932,
      "velocity": 115,
      "chip": "ym2612"
    },
    {
      "channel": 1,
      "note": 66,
      "start": 108.3622,
      "duration": 0.1947,
      "velocity": 88,
      "chip": "ym2612"
    },
    {
      "channel": 4,
      "note": 44,
      "start": 108.3664,
      "duration": 0.1906,
      "velocity": 115,
      "chip": "ym2612"
    },
    {
      "channel": 0,
      "note": 50,
      "start": 108.5634,
      "duration": 0.0935,
      "velocity": 125,
      "chip": "ym2612"
    },
    {
      "channel": 4,
      "note": 45,
      "start": 108.5696,
      "duration": 0.1876,
      "velocity": 115,
      "chip": "ym2612"
    },
    {
      "channel": 1,
      "note": 66,
      "start": 108.7607,
      "duration": 0.1967,
      "velocity": 88,
      "chip": "ym2612"
    },
    {
      "channel": 4,
      "note": 44,
      "start": 108.7645,
      "duration": 0.193,
      "velocity": 115,
      "chip": "ym2612"
    },
    {
      "channel": 1,
      "note": 65,
      "start": 108.9609,
      "duration": 0.1967,
      "velocity": 88,
      "chip": "ym2612"
    },
    {
      "channel": 0,
      "note": 50,
      "start": 108.9641,
      "duration": 0.0932,
      "velocity": 125,
      "chip": "ym2612"
    },
    {
      "channel": 4,
      "note": 45,
      "start": 108.9674,
      "duration": 0.1903,
      "velocity": 115,
      "chip": "ym2612"
    },
    {
      "channel": 1,
      "note": 66,
      "start": 109.1611,
      "duration": 0.1967,
      "velocity": 88,
      "chip": "ym2612"
    },
    {
      "channel": 4,
      "note": 44,
      "start": 109.1649,
      "duration": 0.193,
      "velocity": 115,
      "chip": "ym2612"
    },
    {
      "channel": 1,
      "note": 55,
      "start": 109.3617,
      "duration": 0.1963,
      "velocity": 88,
      "chip": "ym2612"
    },
    {
      "channel": 0,
      "note": 50,
      "start": 109.3649,
      "duration": 0.093,
      "velocity": 125,
      "chip": "ym2612"
    },
    {
      "channel": 4,
      "note": 45,
      "start": 109.3682,
      "duration": 0.19,
      "velocity": 115,
      "chip": "ym2612"
    },
    {
      "channel": 1,
      "note": 56,
      "start": 109.5616,
      "duration": 0.1968,
      "velocity": 88,
      "chip": "ym2612"
    },
    {
      "channel": 4,
      "note": 44,
      "start": 109.5654,
      "duration": 0.1932,
      "velocity": 115,
      "chip": "ym2612"
    },
    {
      "channel": 1,
      "note": 55,
      "start": 109.7619,
      "duration": 0.1967,
      "velocity": 88,
      "chip": "ym2612"
    },
    {
      "channel": 0,
      "note": 50,
      "start": 109.7651,
      "duration": 0.0933,
      "velocity": 125,
      "chip": "ym2612"
    },
    {
      "channel": 4,
      "note": 45,
      "start": 109.7684,
      "duration": 0.1903,
      "velocity": 115,
      "chip": "ym2612"
    },
    {
      "channel": 1,
      "note": 56,
      "start": 109.9621,
      "duration": 0.1968,
      "velocity": 88,
      "chip": "ym2612"
    },
    {
      "channel": 4,
      "note": 44,
      "start": 109.9663,
      "duration": 0.1927,
      "velocity": 115,
      "chip": "ym2612"
    },
    {
      "channel": 1,
      "note": 55,
      "start": 110.1624,
      "duration": 0.1968,
      "velocity": 88,
      "chip": "ym2612"
    },
    {
      "channel": 0,
      "note": 50,
      "start": 110.1681,
      "duration": 0.0908,
      "velocity": 125,
      "chip": "ym2612"
    },
    {
      "channel": 4,
      "note": 45,
      "start": 110.1743,
      "duration": 0.185,
      "velocity": 115,
      "chip": "ym2612"
    },
    {
      "channel": 1,
      "note": 56,
      "start": 110.3627,
      "duration": 0.1967,
      "velocity": 88,
      "chip": "ym2612"
    },
    {
      "channel": 4,
      "note": 44,
      "start": 110.3665,
      "duration": 0.193,
      "velocity": 115,
      "chip": "ym2612"
    },
    {
      "channel": 1,
      "note": 55,
      "start": 110.5629,
      "duration": 0.1968,
      "velocity": 88,
      "chip": "ym2612"
    },
    {
      "channel": 0,
      "note": 50,
      "start": 110.5661,
      "duration": 0.0933,
      "velocity": 125,
      "chip": "ym2612"
    },
    {
      "channel": 4,
      "note": 45,
      "start": 110.5694,
      "duration": 0.1905,
      "velocity": 115,
      "chip": "ym2612"
    },
    {
      "channel": 1,
      "note": 56,
      "start": 110.7634,
      "duration": 0.2132,
      "velocity": 88,
      "chip": "ym2612"
    },
    {
      "channel": 4,
      "note": 44,
      "start": 110.7673,
      "duration": 0.2095,
      "velocity": 115,
      "chip": "ym2612"
    },
    {
      "channel": 0,
      "note": 50,
      "start": 110.9807,
      "duration": 0.05,
      "velocity": 125,
      "chip": "ym2612"
    },
    {
      "channel": 4,
      "note": 45,
      "start": 110.9839,
      "duration": 0.0467,
      "velocity": 115,
      "chip": "ym2612"
    },
    {
      "channel": 4,
      "note": 44,
      "start": 111.0326,
      "duration": 0.1259,
      "velocity": 115,
      "chip": "ym2612"
    },
    {
      "channel": 0,
      "note": 50,
      "start": 111.1623,
      "duration": 0.0962,
      "velocity": 125,
      "chip": "ym2612"
    },
    {
      "channel": 4,
      "note": 45,
      "start": 111.1656,
      "duration": 0.1931,
      "velocity": 115,
      "chip": "ym2612"
    },
    {
      "channel": 3,
      "note": 69,
      "start": 111.1791,
      "duration": 0.1295,
      "velocity": 78,
      "chip": "ym2612"
    },
    {
      "channel": 3,
      "note": 72,
      "start": 111.3119,
      "duration": 0.1302,
      "velocity": 78,
      "chip": "ym2612"
    },
    {
      "channel": 4,
      "note": 44,
      "start": 111.3636,
      "duration": 0.1954,
      "velocity": 115,
      "chip": "ym2612"
    },
    {
      "channel": 3,
      "note": 75,
      "start": 111.4454,
      "duration": 0.1303,
      "velocity": 78,
      "chip": "ym2612"
    },
    {
      "channel": 0,
      "note": 50,
      "start": 111.5653,
      "duration": 0.0936,
      "velocity": 125,
      "chip": "ym2612"
    },
    {
      "channel": 4,
      "note": 45,
      "start": 111.5715,
      "duration": 0.1878,
      "velocity": 115,
      "chip": "ym2612"
    },
    {
      "channel": 3,
      "note": 78,
      "start": 111.5792,
      "duration": 0.1967,
      "velocity": 78,
      "chip": "ym2612"
    },
    {
      "channel": 4,
      "note": 44,
      "start": 111.7637,
      "duration": 0.1959,
      "velocity": 115,
      "chip": "ym2612"
    },
    {
      "channel": 3,
      "note": 78,
      "start": 111.7793,
      "duration": 0.1968,
      "velocity": 78,
      "chip": "ym2612"
    },
    {
      "channel": 0,
      "note": 50,
      "start": 111.9633,
      "duration": 0.0962,
      "velocity": 125,
      "chip": "ym2612"
    },
    {
      "channel": 4,
      "note": 45,
      "start": 111.9666,
      "duration": 0.1932,
      "velocity": 115,
      "chip": "ym2612"
    },
    {
      "channel": 4,
      "note": 44,
      "start": 112.1642,
      "duration": 0.1958,
      "velocity": 115,
      "chip": "ym2612"
    },
    {
      "channel": 3,
      "note": 78,
      "start": 112.1797,
      "duration": 0.197,
      "velocity": 78,
      "chip": "ym2612"
    },
    {
      "channel": 0,
      "note": 50,
      "start": 112.3638,
      "duration": 0.0962,
      "velocity": 125,
      "chip": "ym2612"
    },
    {
      "channel": 4,
      "note": 45,
      "start": 112.3671,
      "duration": 0.1932,
      "velocity": 115,
      "chip": "ym2612"
    },
    {
      "channel": 4,
      "note": 44,
      "start": 112.5647,
      "duration": 0.1959,
      "velocity": 115,
      "chip": "ym2612"
    },
    {
      "channel": 3,
      "note": 78,
      "start": 112.5801,
      "duration": 0.1971,
      "velocity": 78,
      "chip": "ym2612"
    },
    {
      "channel": 0,
      "note": 50,
      "start": 112.7644,
      "duration": 0.0962,
      "velocity": 125,
      "chip": "ym2612"
    },
    {
      "channel": 4,
      "note": 45,
      "start": 112.7677,
      "duration": 0.1932,
      "velocity": 115,
      "chip": "ym2612"
    },
    {
      "channel": 4,
      "note": 44,
      "start": 112.9657,
      "duration": 0.1953,
      "velocity": 115,
      "chip": "ym2612"
    },
    {
      "channel": 3,
      "note": 78,
      "start": 112.9807,
      "duration": 0.197,
      "velocity": 78,
      "chip": "ym2612"
    },
    {
      "channel": 0,
      "note": 50,
      "start": 113.1673,
      "duration": 0.0937,
      "velocity": 125,
      "chip": "ym2612"
    },
    {
      "channel": 4,
      "note": 45,
      "start": 113.1735,
      "duration": 0.1878,
      "velocity": 115,
      "chip": "ym2612"
    },
    {
      "channel": 4,
      "note": 44,
      "start": 113.3657,
      "duration": 0.0331,
      "velocity": 115,
      "chip": "ym2612"
    },
    {
      "channel": 3,
      "note": 78,
      "start": 113.3813,
      "duration": 0.0214,
      "velocity": 78,
      "chip": "ym2612"
    },
    {
      "channel": 0,
      "note": 50,
      "start": 113.4005,
      "duration": 0.0043,
      "velocity": 125,
      "chip": "ym2612"
    },
    {
      "channel": 4,
      "note": 45,
      "start": 113.4027,
      "duration": 0.0021,
      "velocity": 115,
      "chip": "ym2612"
    },
    {
      "channel": 3,
      "note": 75,
      "start": 113.4047,
      "duration": 0.0023,
      "velocity": 78,
      "chip": "ym2612"
    },
    {
      "channel": 4,
      "note": 44,
      "start": 113.407,
      "duration": 0.0995,
      "velocity": 115,
      "chip": "ym2612"
    },
    {
      "channel": 3,
      "note": 78,
      "start": 113.409,
      "duration": 0.1142,
      "velocity": 78,
      "chip": "ym2612"
    },
    {
      "channel": 0,
      "note": 50,
      "start": 113.5104,
      "duration": 0.0961,
      "velocity": 125,
      "chip": "ym2612"
    },
    {
      "channel": 4,
      "note": 45,
      "start": 113.5136,
      "duration": 0.1931,
      "velocity": 115,
      "chip": "ym2612"
    },
    {
      "channel": 3,
      "note": 72,
      "start": 113.5265,
      "duration": 0.197,
      "velocity": 78,
      "chip": "ym2612"
    },
    {
      "channel": 4,
      "note": 44,
      "start": 113.7112,
      "duration": 0.1959,
      "velocity": 115,
      "chip": "ym2612"
    },
    {
      "channel": 3,
      "note": 69,
      "start": 113.727,
      "duration": 0.1967,
      "velocity": 78,
      "chip": "ym2612"
    },
    {
      "channel": 0,
      "note": 50,
      "start": 113.9109,
      "duration": 0.033,
      "velocity": 125,
      "chip": "ym2612"
    },
    {
      "channel": 4,
      "note": 45,
      "start": 113.9141,
      "duration": 0.0298,
      "velocity": 115,
      "chip": "ym2612"
    },
    {
      "channel": 1,
      "note": 66,
      "start": 113.9456,
      "duration": 0.0019,
      "velocity": 88,
      "chip": "ym2612"
    },
    {
      "channel": 4,
      "note": 44,
      "start": 113.9475,
      "duration": 0.0001,
      "velocity": 115,
      "chip": "ym2612"
    },
    {
      "channel": 0,
      "note": 50,
      "start": 113.9493,
      "duration": 0.0036,
      "velocity": 125,
      "chip": "ym2612"
    },
    {
      "channel": 4,
      "note": 45,
      "start": 113.9512,
      "duration": 0.0998,
      "velocity": 115,
      "chip": "ym2612"
    },
    {
      "channel": 1,
      "note": 66,
      "start": 114.0545,
      "duration": 0.2133,
      "velocity": 88,
      "chip": "ym2612"
    },
    {
      "channel": 4,
      "note": 44,
      "start": 114.0583,
      "duration": 0.2096,
      "velocity": 115,
      "chip": "ym2612"
    },
    {
      "channel": 1,
      "note": 65,
      "start": 114.2713,
      "duration": 0.1969,
      "velocity": 88,
      "chip": "ym2612"
    },
    {
      "channel": 0,
      "note": 50,
      "start": 114.2745,
      "duration": 0.0935,
      "velocity": 125,
      "chip": "ym2612"
    },
    {
      "channel": 4,
      "note": 45,
      "start": 114.2778,
      "duration": 0.1905,
      "velocity": 115,
      "chip": "ym2612"
    },
    {
      "channel": 1,
      "note": 66,
      "start": 114.4717,
      "duration": 0.1968,
      "velocity": 88,
      "chip": "ym2612"
    },
    {
      "channel": 4,
      "note": 44,
      "start": 114.4755,
      "duration": 0.1931,
      "velocity": 115,
      "chip": "ym2612"
    },
    {
      "channel": 1,
      "note": 55,
      "start": 114.6723,
      "duration": 0.1963,
      "velocity": 88,
      "chip": "ym2612"
    },
    {
      "channel": 0,
      "note": 50,
      "start": 114.6755,
      "duration": 0.0929,
      "velocity": 125,
      "chip": "ym2612"
    },
    {
      "channel": 4,
      "note": 45,
      "start": 114.6788,
      "duration": 0.19,
      "velocity": 115,
      "chip": "ym2612"
    },
    {
      "channel": 1,
      "note": 56,
      "start": 114.8721,
      "duration": 0.1968,
      "velocity": 88,
      "chip": "ym2612"
    },
    {
      "channel": 4,
      "note": 44,
      "start": 114.8759,
      "duration": 0.1931,
      "velocity": 115,
      "chip": "ym2612"
    },
    {
      "channel": 1,
      "note": 55,
      "start": 115.0724,
      "duration": 0.1967,
      "velocity": 88,
      "chip": "ym2612"
    },
    {
      "channel": 0,
      "note": 50,
      "start": 115.0756,
      "duration": 0.0934,
      "velocity": 125,
      "chip": "ym2612"
    },
    {
      "channel": 4,
      "note": 45,
      "start": 115.0788,
      "duration": 0.1904,
      "velocity": 115,
      "chip": "ym2612"
    },
    {
      "channel": 1,
      "note": 56,
      "start": 115.2726,
      "duration": 0.1968,
      "velocity": 88,
      "chip": "ym2612"
    },
    {
      "channel": 4,
      "note": 44,
      "start": 115.2768,
      "duration": 0.1929,
      "velocity": 115,
      "chip": "ym2612"
    },
    {
      "channel": 1,
      "note": 55,
      "start": 115.4729,
      "duration": 0.1968,
      "velocity": 88,
      "chip": "ym2612"
    },
    {
      "channel": 0,
      "note": 50,
      "start": 115.4787,
      "duration": 0.0909,
      "velocity": 125,
      "chip": "ym2612"
    },
    {
      "channel": 4,
      "note": 45,
      "start": 115.4848,
      "duration": 0.185,
      "velocity": 115,
      "chip": "ym2612"
    },
    {
      "channel": 1,
      "note": 56,
      "start": 115.6732,
      "duration": 0.1968,
      "velocity": 88,
      "chip": "ym2612"
    },
    {
      "channel": 4,
      "note": 44,
      "start": 115.677,
      "duration": 0.1932,
      "velocity": 115,
      "chip": "ym2612"
    },
    {
      "channel": 1,
      "note": 55,
      "start": 115.8734,
      "duration": 0.1967,
      "velocity": 88,
      "chip": "ym2612"
    },
    {
      "channel": 0,
      "note": 50,
      "start": 115.8766,
      "duration": 0.0934,
      "velocity": 125,
      "chip": "ym2612"
    },
    {
      "channel": 4,
      "note": 45,
      "start": 115.8799,
      "duration": 0.1904,
      "velocity": 115,
      "chip": "ym2612"
    },
    {
      "channel": 1,
      "note": 56,
      "start": 116.0738,
      "duration": 0.1966,
      "velocity": 88,
      "chip": "ym2612"
    },
    {
      "channel": 4,
      "note": 44,
      "start": 116.0776,
      "duration": 0.193,
      "velocity": 115,
      "chip": "ym2612"
    },
    {
      "channel": 0,
      "note": 50,
      "start": 116.2744,
      "duration": 0.0962,
      "velocity": 125,
      "chip": "ym2612"
    },
    {
      "channel": 4,
      "note": 45,
      "start": 116.2777,
      "duration": 0.1931,
      "velocity": 115,
      "chip": "ym2612"
    },
    {
      "channel": 4,
      "note": 44,
      "start": 116.4751,
      "duration": 0.1959,
      "velocity": 115,
      "chip": "ym2612"
    },
    {
      "channel": 0,
      "note": 50,
      "start": 116.6749,
      "duration": 0.0962,
      "velocity": 125,
      "chip": "ym2612"
    },
    {
      "channel": 4,
      "note": 45,
      "start": 116.6782,
      "duration": 0.1931,
      "velocity": 115,
      "chip": "ym2612"
    },
    {
      "channel": 4,
      "note": 44,
      "start": 116.876,
      "duration": 0.1956,
      "velocity": 115,
      "chip": "ym2612"
    }
  ]
}