{
  "track_name": "02 - Battle Field in Dojyo",
  "duration_sec": 37.647,
  "sample_rate": 44100,
  "note_count": 1133,
  "unique_pitches": 32,
  "pitch_range": 73,
  "avg_note_duration": 0.1565,
  "reconstruction_stats": {
    "notes_reconstructed": 1133,
    "keyon_events": 1133,
    "keyoff_events": 1127,
    "orphan_keyons": 6,
    "unique_pitches": 32,
    "pitch_range": 73,
    "avg_duration_sec": 0.1565
  },
  "metadata": {
    "source": "V\\Viper-V10\\02 - Battle Field in Dojyo.vgz"
  },
  "notes": [
    {
      "channel": 0,
      "note": 32,
      "start": 0.0017,
      "duration": 0.1221,
      "velocity": 107,
      "chip": "ym2612"
    },
    {
      "channel": 1,
      "note": 54,
      "start": 0.0035,
      "duration": 0.1987,
      "velocity": 104,
      "chip": "ym2612"
    },
    {
      "channel": 2,
      "note": 66,
      "start": 0.0052,
      "duration": 0.0893,
      "velocity": 100,
      "chip": "ym2612"
    },
    {
      "channel": 3,
      "note": 78,
      "start": 0.0072,
      "duration": 0.4398,
      "velocity": 100,
      "chip": "ym2612"
    },
    {
      "channel": 4,
      "note": 73,
      "start": 0.009,
      "duration": 0.4381,
      "velocity": 100,
      "chip": "ym2612"
    },
    {
      "channel": 5,
      "note": 90,
      "start": 0.0109,
      "duration": 0.0249,
      "velocity": 97,
      "chip": "ym2612"
    },
    {
      "channel": 0,
      "note": 75,
      "start": 0.1257,
      "duration": 0.1156,
      "velocity": 127,
      "chip": "ym2612"
    },
    {
      "channel": 2,
      "note": 66,
      "start": 0.126,
      "duration": 0.086,
      "velocity": 100,
      "chip": "ym2612"
    },
    {
      "channel": 5,
      "note": 90,
      "start": 0.1263,
      "duration": 0.0269,
      "velocity": 97,
      "chip": "ym2612"
    },
    {
      "channel": 0,
      "note": 66,
      "start": 0.243,
      "duration": 0.2333,
      "velocity": 127,
      "chip": "ym2612"
    },
    {
      "channel": 1,
      "note": 54,
      "start": 0.2433,
      "duration": 0.1939,
      "velocity": 104,
      "chip": "ym2612"
    },
    {
      "channel": 2,
      "note": 64,
      "start": 0.2435,
      "duration": 0.0859,
      "velocity": 100,
      "chip": "ym2612"
    },
    {
      "channel": 5,
      "note": 102,
      "start": 0.2439,
      "duration": 0.0269,
      "velocity": 97,
      "chip": "ym2612"
    },
    {
      "channel": 2,
      "note": 64,
      "start": 0.359,
      "duration": 0.088,
      "velocity": 100,
      "chip": "ym2612"
    },
    {
      "channel": 5,
      "note": 102,
      "start": 0.3594,
      "duration": 0.0288,
      "velocity": 97,
      "chip": "ym2612"
    },
    {
      "channel": 0,
      "note": 48,
      "start": 0.478,
      "duration": 0.2333,
      "velocity": 127,
      "chip": "ym2612"
    },
    {
      "channel": 1,
      "note": 54,
      "start": 0.4783,
      "duration": 0.194,
      "velocity": 104,
      "chip": "ym2612"
    },
    {
      "channel": 2,
      "note": 61,
      "start": 0.4785,
      "duration": 0.0861,
      "velocity": 100,
      "chip": "ym2612"
    },
    {
      "channel": 3,
      "note": 80,
      "start": 0.4788,
      "duration": 0.4384,
      "velocity": 100,
      "chip": "ym2612"
    },
    {
      "channel": 4,
      "note": 76,
      "start": 0.4791,
      "duration": 0.4381,
      "velocity": 100,
      "chip": "ym2612"
    },
    {
      "channel": 5,
      "note": 102,
      "start": 0.4795,
      "duration": 0.1439,
      "velocity": 97,
      "chip": "ym2612"
    },
    {
      "channel": 2,
      "note": 61,
      "start": 0.5941,
      "duration": 0.088,
      "velocity": 100,
      "chip": "ym2612"
    },
    {
      "channel": 0,
      "note": 75,
      "start": 0.713,
      "duration": 0.1159,
      "velocity": 127,
      "chip": "ym2612"
    },
    {
      "channel": 1,
      "note": 54,
      "start": 0.7133,
      "duration": 0.194,
      "velocity": 104,
      "chip": "ym2612"
    },
    {
      "channel": 2,
      "note": 64,
      "start": 0.7135,
      "duration": 0.086,
      "velocity": 100,
      "chip": "ym2612"
    },
    {
      "channel": 5,
      "note": 90,
      "start": 0.7139,
      "duration": 0.0269,
      "velocity": 97,
      "chip": "ym2612"
    },
    {
      "channel": 0,
      "note": 48,
      "start": 0.8305,
      "duration": 0.1158,
      "velocity": 127,
      "chip": "ym2612"
    },
    {
      "channel": 2,
      "note": 64,
      "start": 0.8308,
      "duration": 0.0863,
      "velocity": 100,
      "chip": "ym2612"
    },
    {
      "channel": 5,
      "note": 90,
      "start": 0.8311,
      "duration": 0.0272,
      "velocity": 97,
      "chip": "ym2612"
    },
    {
      "channel": 0,
      "note": 32,
      "start": 0.948,
      "duration": 0.1158,
      "velocity": 107,
      "chip": "ym2612"
    },
    {
      "channel": 1,
      "note": 52,
      "start": 0.9483,
      "duration": 0.1939,
      "velocity": 104,
      "chip": "ym2612"
    },
    {
      "channel": 2,
      "note": 66,
      "start": 0.9485,
      "duration": 0.0861,
      "velocity": 100,
      "chip": "ym2612"
    },
    {
      "channel": 3,
      "note": 81,
      "start": 0.9488,
      "duration": 0.4383,
      "velocity": 100,
      "chip": "ym2612"
    },
    {
      "channel": 4,
      "note": 78,
      "start": 0.9491,
      "duration": 0.438,
      "velocity": 100,
      "chip": "ym2612"
    },
    {
      "channel": 5,
      "note": 102,
      "start": 0.9494,
      "duration": 0.0264,
      "velocity": 97,
      "chip": "ym2612"
    },
    {
      "channel": 0,
      "note": 75,
      "start": 1.0658,
      "duration": 0.1156,
      "velocity": 127,
      "chip": "ym2612"
    },
    {
      "channel": 2,
      "note": 66,
      "start": 1.066,
      "duration": 0.086,
      "velocity": 100,
      "chip": "ym2612"
    },
    {
      "channel": 5,
      "note": 102,
      "start": 1.0664,
      "duration": 0.0269,
      "velocity": 97,
      "chip": "ym2612"
    },
    {
      "channel": 0,
      "note": 32,
      "start": 1.183,
      "duration": 0.1159,
      "velocity": 107,
      "chip": "ym2612"
    },
    {
      "channel": 1,
      "note": 52,
      "start": 1.1833,
      "duration": 0.1939,
      "velocity": 104,
      "chip": "ym2612"
    },
    {
      "channel": 2,
      "note": 64,
      "start": 1.1835,
      "duration": 0.0861,
      "velocity": 100,
      "chip": "ym2612"
    },
    {
      "channel": 5,
      "note": 102,
      "start": 1.1839,
      "duration": 0.1444,
      "velocity": 97,
      "chip": "ym2612"
    },
    {
      "channel": 0,
      "note": 75,
      "start": 1.3005,
      "duration": 0.1158,
      "velocity": 127,
      "chip": "ym2612"
    },
    {
      "channel": 2,
      "note": 64,
      "start": 1.3008,
      "duration": 0.0863,
      "velocity": 100,
      "chip": "ym2612"
    },
    {
      "channel": 0,
      "note": 48,
      "start": 1.418,
      "duration": 0.2333,
      "velocity": 127,
      "chip": "ym2612"
    },
    {
      "channel": 1,
      "note": 52,
      "start": 1.4183,
      "duration": 0.194,
      "velocity": 104,
      "chip": "ym2612"
    },
    {
      "channel": 2,
      "note": 61,
      "start": 1.4185,
      "duration": 0.0861,
      "velocity": 100,
      "chip": "ym2612"
    },
    {
      "channel": 3,
      "note": 80,
      "start": 1.4188,
      "duration": 0.0859,
      "velocity": 100,
      "chip": "ym2612"
    },
    {
      "channel": 5,
      "note": 90,
      "start": 1.4192,
      "duration": 0.0267,
      "velocity": 97,
      "chip": "ym2612"
    },
    {
      "channel": 2,
      "note": 61,
      "start": 1.5342,
      "duration": 0.088,
      "velocity": 100,
      "chip": "ym2612"
    },
    {
      "channel": 3,
      "note": 81,
      "start": 1.5345,
      "duration": 0.0878,
      "velocity": 100,
      "chip": "ym2612"
    },
    {
      "channel": 5,
      "note": 90,
      "start": 1.5349,
      "duration": 0.1459,
      "velocity": 97,
      "chip": "ym2612"
    },
    {
      "channel": 0,
      "note": 66,
      "start": 1.653,
      "duration": 0.2334,
      "velocity": 127,
      "chip": "ym2612"
    },
    {
      "channel": 1,
      "note": 52,
      "start": 1.6533,
      "duration": 0.1939,
      "velocity": 104,
      "chip": "ym2612"
    },
    {
      "channel": 2,
      "note": 64,
      "start": 1.6535,
      "duration": 0.086,
      "velocity": 100,
      "chip": "ym2612"
    },
    {
      "channel": 3,
      "note": 80,
      "start": 1.6538,
      "duration": 0.0858,
      "velocity": 100,
      "chip": "ym2612"
    },
    {
      "channel": 2,
      "note": 64,
      "start": 1.7691,
      "duration": 0.088,
      "velocity": 100,
      "chip": "ym2612"
    },
    {
      "channel": 3,
      "note": 76,
      "start": 1.7694,
      "duration": 0.0877,
      "velocity": 100,
      "chip": "ym2612"
    },
    {
      "channel": 5,
      "note": 90,
      "start": 1.7697,
      "duration": 0.0286,
      "velocity": 97,
      "chip": "ym2612"
    },
    {
      "channel": 0,
      "note": 32,
      "start": 1.8881,
      "duration": 0.1158,
      "velocity": 107,
      "chip": "ym2612"
    },
    {
      "channel": 1,
      "note": 50,
      "start": 1.8883,
      "duration": 0.1939,
      "velocity": 104,
      "chip": "ym2612"
    },
    {
      "channel": 2,
      "note": 66,
      "start": 1.8886,
      "duration": 0.0861,
      "velocity": 100,
      "chip": "ym2612"
    },
    {
      "channel": 3,
      "note": 78,
      "start": 1.8888,
      "duration": 0.9084,
      "velocity": 100,
      "chip": "ym2612"
    },
    {
      "channel": 4,
      "note": 73,
      "start": 1.8891,
      "duration": 0.9082,
      "velocity": 100,
      "chip": "ym2612"
    },
    {
      "channel": 5,
      "note": 90,
      "start": 1.8895,
      "duration": 0.0264,
      "velocity": 97,
      "chip": "ym2612"
    },
    {
      "channel": 0,
      "note": 75,
      "start": 2.0058,
      "duration": 0.1156,
      "velocity": 127,
      "chip": "ym2612"
    },
    {
      "channel": 2,
      "note": 66,
      "start": 2.0061,
      "duration": 0.086,
      "velocity": 100,
      "chip": "ym2612"
    },
    {
      "channel": 5,
      "note": 90,
      "start": 2.0064,
      "duration": 0.0269,
      "velocity": 97,
      "chip": "ym2612"
    },
    {
      "channel": 0,
      "note": 66,
      "start": 2.1231,
      "duration": 0.2334,
      "velocity": 127,
      "chip": "ym2612"
    },
    {
      "channel": 1,
      "note": 50,
      "start": 2.1233,
      "duration": 0.1939,
      "velocity": 104,
      "chip": "ym2612"
    },
    {
      "channel": 2,
      "note": 64,
      "start": 2.1236,
      "duration": 0.086,
      "velocity": 100,
      "chip": "ym2612"
    },
    {
      "channel": 5,
      "note": 102,
      "start": 2.1239,
      "duration": 0.0269,
      "velocity": 97,
      "chip": "ym2612"
    },
    {
      "channel": 2,
      "note": 64,
      "start": 2.2391,
      "duration": 0.088,
      "velocity": 100,
      "chip": "ym2612"
    },
    {
      "channel": 5,
      "note": 102,
      "start": 2.2395,
      "duration": 0.0289,
      "velocity": 97,
      "chip": "ym2612"
    },
    {
      "channel": 0,
      "note": 48,
      "start": 2.3581,
      "duration": 0.2334,
      "velocity": 127,
      "chip": "ym2612"
    },
    {
      "channel": 1,
      "note": 50,
      "start": 2.3583,
      "duration": 0.194,
      "velocity": 104,
      "chip": "ym2612"
    },
    {
      "channel": 2,
      "note": 61,
      "start": 2.3586,
      "duration": 0.0861,
      "velocity": 100,
      "chip": "ym2612"
    },
    {
      "channel": 5,
      "note": 102,
      "start": 2.359,
      "duration": 0.1445,
      "velocity": 97,
      "chip": "ym2612"
    },
    {
      "channel": 2,
      "note": 61,
      "start": 2.4742,
      "duration": 0.088,
      "velocity": 100,
      "chip": "ym2612"
    },
    {
      "channel": 0,
      "note": 75,
      "start": 2.5931,
      "duration": 0.1158,
      "velocity": 127,
      "chip": "ym2612"
    },
    {
      "channel": 1,
      "note": 50,
      "start": 2.5934,
      "duration": 0.194,
      "velocity": 104,
      "chip": "ym2612"
    },
    {
      "channel": 2,
      "note": 57,
      "start": 2.5936,
      "duration": 0.086,
      "velocity": 100,
      "chip": "ym2612"
    },
    {
      "channel": 5,
      "note": 90,
      "start": 2.5939,
      "duration": 0.0269,
      "velocity": 97,
      "chip": "ym2612"
    },
    {
      "channel": 0,
      "note": 48,
      "start": 2.7106,
      "duration": 0.1158,
      "velocity": 127,
      "chip": "ym2612"
    },
    {
      "channel": 2,
      "note": 57,
      "start": 2.7109,
      "duration": 0.0863,
      "velocity": 100,
      "chip": "ym2612"
    },
    {
      "channel": 5,
      "note": 90,
      "start": 2.7112,
      "duration": 0.0272,
      "velocity": 97,
      "chip": "ym2612"
    },
    {
      "channel": 0,
      "note": 32,
      "start": 2.8281,
      "duration": 0.1158,
      "velocity": 107,
      "chip": "ym2612"
    },
    {
      "channel": 1,
      "note": 45,
      "start": 2.8283,
      "duration": 0.1939,
      "velocity": 104,
      "chip": "ym2612"
    },
    {
      "channel": 2,
      "note": 59,
      "start": 2.8286,
      "duration": 0.2035,
      "velocity": 100,
      "chip": "ym2612"
    },
    {
      "channel": 3,
      "note": 71,
      "start": 2.8289,
      "duration": 0.4383,
      "velocity": 100,
      "chip": "ym2612"
    },
    {
      "channel": 4,
      "note": 66,
      "start": 2.8292,
      "duration": 0.4381,
      "velocity": 100,
      "chip": "ym2612"
    },
    {
      "channel": 5,
      "note": 102,
      "start": 2.8295,
      "duration": 0.0264,
      "velocity": 97,
      "chip": "ym2612"
    },
    {
      "channel": 0,
      "note": 75,
      "start": 2.9459,
      "duration": 0.1156,
      "velocity": 127,
      "chip": "ym2612"
    },
    {
      "channel": 5,
      "note": 102,
      "start": 2.9463,
      "duration": 0.0271,
      "velocity": 97,
      "chip": "ym2612"
    },
    {
      "channel": 0,
      "note": 32,
      "start": 3.0631,
      "duration": 0.1158,
      "velocity": 107,
      "chip": "ym2612"
    },
    {
      "channel": 1,
      "note": 45,
      "start": 3.0634,
      "duration": 0.1939,
      "velocity": 104,
      "chip": "ym2612"
    },
    {
      "channel": 2,
      "note": 57,
      "start": 3.0636,
      "duration": 0.0861,
      "velocity": 100,
      "chip": "ym2612"
    },
    {
      "channel": 5,
      "note": 102,
      "start": 3.0639,
      "duration": 0.1444,
      "velocity": 97,
      "chip": "ym2612"
    },
    {
      "channel": 0,
      "note": 75,
      "start": 3.1806,
      "duration": 0.1159,
      "velocity": 127,
      "chip": "ym2612"
    },
    {
      "channel": 2,
      "note": 59,
      "start": 3.1809,
      "duration": 0.0863,
      "velocity": 100,
      "chip": "ym2612"
    },
    {
      "channel": 0,
      "note": 48,
      "start": 3.2981,
      "duration": 0.2333,
      "velocity": 127,
      "chip": "ym2612"
    },
    {
      "channel": 1,
      "note": 49,
      "start": 3.2984,
      "duration": 0.194,
      "velocity": 104,
      "chip": "ym2612"
    },
    {
      "channel": 2,
      "note": 61,
      "start": 3.2986,
      "duration": 0.0861,
      "velocity": 100,
      "chip": "ym2612"
    },
    {
      "channel": 3,
      "note": 73,
      "start": 3.2989,
      "duration": 0.4383,
      "velocity": 100,
      "chip": "ym2612"
    },
    {
      "channel": 4,
      "note": 68,
      "start": 3.2992,
      "duration": 0.438,
      "velocity": 100,
      "chip": "ym2612"
    },
    {
      "channel": 5,
      "note": 90,
      "start": 3.2995,
      "duration": 0.0265,
      "velocity": 97,
      "chip": "ym2612"
    },
    {
      "channel": 2,
      "note": 61,
      "start": 3.4143,
      "duration": 0.088,
      "velocity": 100,
      "chip": "ym2612"
    },
    {
      "channel": 5,
      "note": 90,
      "start": 3.4146,
      "duration": 0.1462,
      "velocity": 97,
      "chip": "ym2612"
    },
    {
      "channel": 0,
      "note": 66,
      "start": 3.5331,
      "duration": 0.2334,
      "velocity": 127,
      "chip": "ym2612"
    },
    {
      "channel": 1,
      "note": 49,
      "start": 3.5334,
      "duration": 0.1939,
      "velocity": 104,
      "chip": "ym2612"
    },
    {
      "channel": 2,
      "note": 64,
      "start": 3.5336,
      "duration": 0.086,
      "velocity": 100,
      "chip": "ym2612"
    },
    {
      "channel": 2,
      "note": 61,
      "start": 3.6492,
      "duration": 0.088,
      "velocity": 100,
      "chip": "ym2612"
    },
    {
      "channel": 5,
      "note": 90,
      "start": 3.6495,
      "duration": 0.0289,
      "velocity": 97,
      "chip": "ym2612"
    },
    {
      "channel": 0,
      "note": 32,
      "start": 3.7681,
      "duration": 0.1158,
      "velocity": 107,
      "chip": "ym2612"
    },
    {
      "channel": 1,
      "note": 50,
      "start": 3.7684,
      "duration": 0.1939,
      "velocity": 104,
      "chip": "ym2612"
    },
    {
      "channel": 2,
      "note": 59,
      "start": 3.7686,
      "duration": 0.2035,
      "velocity": 100,
      "chip": "ym2612"
    },
    {
      "channel": 3,
      "note": 74,
      "start": 3.7689,
      "duration": 0.9084,
      "velocity": 100,
      "chip": "ym2612"
    },
    {
      "channel": 4,
      "note": 71,
      "start": 3.7692,
      "duration": 0.9082,
      "velocity": 100,
      "chip": "ym2612"
    },
    {
      "channel": 5,
      "note": 90,
      "start": 3.7696,
      "duration": 0.0264,
      "velocity": 97,
      "chip": "ym2612"
    },
    {
      "channel": 0,
      "note": 75,
      "start": 3.8859,
      "duration": 0.1156,
      "velocity": 127,
      "chip": "ym2612"
    },
    {
      "channel": 5,
      "note": 90,
      "start": 3.8862,
      "duration": 0.0271,
      "velocity": 97,
      "chip": "ym2612"
    },
    {
      "channel": 0,
      "note": 66,
      "start": 4.0031,
      "duration": 0.2334,
      "velocity": 127,
      "chip": "ym2612"
    },
    {
      "channel": 1,
      "note": 50,
      "start": 4.0034,
      "duration": 0.1939,
      "velocity": 104,
      "chip": "ym2612"
    },
    {
      "channel": 2,
      "note": 57,
      "start": 4.0036,
      "duration": 0.086,
      "velocity": 100,
      "chip": "ym2612"
    },
    {
      "channel": 5,
      "note": 102,
      "start": 4.004,
      "duration": 0.0269,
      "velocity": 97,
      "chip": "ym2612"
    },
    {
      "channel": 2,
      "note": 59,
      "start": 4.1192,
      "duration": 0.088,
      "velocity": 100,
      "chip": "ym2612"
    },
    {
      "channel": 5,
      "note": 102,
      "start": 4.1195,
      "duration": 0.0289,
      "velocity": 97,
      "chip": "ym2612"
    },
    {
      "channel": 0,
      "note": 48,
      "start": 4.2381,
      "duration": 0.2334,
      "velocity": 127,
      "chip": "ym2612"
    },
    {
      "channel": 1,
      "note": 50,
      "start": 4.2384,
      "duration": 0.194,
      "velocity": 104,
      "chip": "ym2612"
    },
    {
      "channel": 2,
      "note": 61,
      "start": 4.2386,
      "duration": 0.2036,
      "velocity": 100,
      "chip": "ym2612"
    },
    {
      "channel": 5,
      "note": 102,
      "start": 4.239,
      "duration": 0.1445,
      "velocity": 97,
      "chip": "ym2612"
    },
    {
      "channel": 0,
      "note": 75,
      "start": 4.4732,
      "duration": 0.1158,
      "velocity": 127,
      "chip": "ym2612"
    },
    {
      "channel": 1,
      "note": 50,
      "start": 4.4734,
      "duration": 0.1941,
      "velocity": 104,
      "chip": "ym2612"
    },
    {
      "channel": 2,
      "note": 57,
      "start": 4.4736,
      "duration": 0.2037,
      "velocity": 100,
      "chip": "ym2612"
    },
    {
      "channel": 5,
      "note": 90,
      "start": 4.474,
      "duration": 0.0269,
      "velocity": 97,
      "chip": "ym2612"
    },
    {
      "channel": 0,
      "note": 48,
      "start": 4.5907,
      "duration": 0.1158,
      "velocity": 127,
      "chip": "ym2612"
    },
    {
      "channel": 5,
      "note": 90,
      "start": 4.591,
      "duration": 0.0275,
      "velocity": 97,
      "chip": "ym2612"
    },
    {
      "channel": 0,
      "note": 32,
      "start": 4.7082,
      "duration": 0.1158,
      "velocity": 107,
      "chip": "ym2612"
    },
    {
      "channel": 1,
      "note": 52,
      "start": 4.7084,
      "duration": 0.1939,
      "velocity": 104,
      "chip": "ym2612"
    },
    {
      "channel": 2,
      "note": 66,
      "start": 4.7087,
      "duration": 0.0861,
      "velocity": 100,
      "chip": "ym2612"
    },
    {
      "channel": 3,
      "note": 76,
      "start": 4.7089,
      "duration": 0.9083,
      "velocity": 100,
      "chip": "ym2612"
    },
    {
      "channel": 4,
      "note": 71,
      "start": 4.7092,
      "duration": 0.9081,
      "velocity": 100,
      "chip": "ym2612"
    },
    {
      "channel": 5,
      "note": 102,
      "start": 4.7096,
      "duration": 0.0264,
      "velocity": 97,
      "chip": "ym2612"
    },
    {
      "channel": 0,
      "note": 75,
      "start": 4.826,
      "duration": 0.1155,
      "velocity": 127,
      "chip": "ym2612"
    },
    {
      "channel": 2,
      "note": 64,
      "start": 4.8262,
      "duration": 0.086,
      "velocity": 100,
      "chip": "ym2612"
    },
    {
      "channel": 5,
      "note": 102,
      "start": 4.8266,
      "duration": 0.0268,
      "velocity": 97,
      "chip": "ym2612"
    },
    {
      "channel": 0,
      "note": 32,
      "start": 4.9432,
      "duration": 0.1158,
      "velocity": 107,
      "chip": "ym2612"
    },
    {
      "channel": 1,
      "note": 52,
      "start": 4.9435,
      "duration": 0.1939,
      "velocity": 104,
      "chip": "ym2612"
    },
    {
      "channel": 2,
      "note": 61,
      "start": 4.9437,
      "duration": 0.2035,
      "velocity": 100,
      "chip": "ym2612"
    },
    {
      "channel": 5,
      "note": 102,
      "start": 4.944,
      "duration": 0.1444,
      "velocity": 97,
      "chip": "ym2612"
    },
    {
      "channel": 0,
      "note": 75,
      "start": 5.0607,
      "duration": 0.1158,
      "velocity": 127,
      "chip": "ym2612"
    },
    {
      "channel": 0,
      "note": 48,
      "start": 5.1782,
      "duration": 0.2333,
      "velocity": 127,
      "chip": "ym2612"
    },
    {
      "channel": 1,
      "note": 52,
      "start": 5.1784,
      "duration": 0.194,
      "velocity": 104,
      "chip": "ym2612"
    },
    {
      "channel": 2,
      "note": 59,
      "start": 5.1787,
      "duration": 0.2036,
      "velocity": 100,
      "chip": "ym2612"
    },
    {
      "channel": 5,
      "note": 90,
      "start": 5.179,
      "duration": 0.027,
      "velocity": 97,
      "chip": "ym2612"
    },
    {
      "channel": 5,
      "note": 90,
      "start": 5.2945,
      "duration": 0.1465,
      "velocity": 97,
      "chip": "ym2612"
    },
    {
      "channel": 0,
      "note": 66,
      "start": 5.4132,
      "duration": 0.2334,
      "velocity": 127,
      "chip": "ym2612"
    },
    {
      "channel": 1,
      "note": 52,
      "start": 5.4134,
      "duration": 0.1939,
      "velocity": 104,
      "chip": "ym2612"
    },
    {
      "channel": 2,
      "note": 64,
      "start": 5.4137,
      "duration": 0.2035,
      "velocity": 100,
      "chip": "ym2612"
    },
    {
      "channel": 5,
      "note": 90,
      "start": 5.5293,
      "duration": 0.0291,
      "velocity": 97,
      "chip": "ym2612"
    },
    {
      "channel": 0,
      "note": 32,
      "start": 5.6482,
      "duration": 0.1159,
      "velocity": 107,
      "chip": "ym2612"
    },
    {
      "channel": 1,
      "note": 59,
      "start": 5.6484,
      "duration": 0.1939,
      "velocity": 104,
      "chip": "ym2612"
    },
    {
      "channel": 2,
      "note": 66,
      "start": 5.6487,
      "duration": 0.2035,
      "velocity": 100,
      "chip": "ym2612"
    },
    {
      "channel": 3,
      "note": 78,
      "start": 5.649,
      "duration": 0.4383,
      "velocity": 100,
      "chip": "ym2612"
    },
    {
      "channel": 4,
      "note": 74,
      "start": 5.6493,
      "duration": 0.438,
      "velocity": 100,
      "chip": "ym2612"
    },
    {
      "channel": 5,
      "note": 90,
      "start": 5.6496,
      "duration": 0.0264,
      "velocity": 97,
      "chip": "ym2612"
    },
    {
      "channel": 0,
      "note": 75,
      "start": 5.7659,
      "duration": 0.1156,
      "velocity": 127,
      "chip": "ym2612"
    },
    {
      "channel": 5,
      "note": 90,
      "start": 5.7663,
      "duration": 0.0271,
      "velocity": 97,
      "chip": "ym2612"
    },
    {
      "channel": 0,
      "note": 66,
      "start": 5.8832,
      "duration": 0.2333,
      "velocity": 127,
      "chip": "ym2612"
    },
    {
      "channel": 1,
      "note": 59,
      "start": 5.8834,
      "duration": 0.1939,
      "velocity": 104,
      "chip": "ym2612"
    },
    {
      "channel": 2,
      "note": 69,
      "start": 5.8837,
      "duration": 0.2036,
      "velocity": 100,
      "chip": "ym2612"
    },
    {
      "channel": 5,
      "note": 102,
      "start": 5.884,
      "duration": 0.0269,
      "velocity": 97,
      "chip": "ym2612"
    },
    {
      "channel": 5,
      "note": 102,
      "start": 5.9993,
      "duration": 0.0291,
      "velocity": 97,
      "chip": "ym2612"
    },
    {
      "channel": 0,
      "note": 48,
      "start": 6.1182,
      "duration": 0.2333,
      "velocity": 127,
      "chip": "ym2612"
    },
    {
      "channel": 1,
      "note": 61,
      "start": 6.1185,
      "duration": 0.194,
      "velocity": 104,
      "chip": "ym2612"
    },
    {
      "channel": 2,
      "note": 68,
      "start": 6.1187,
      "duration": 0.2036,
      "velocity": 100,
      "chip": "ym2612"
    },
    {
      "channel": 3,
      "note": 80,
      "start": 6.119,
      "duration": 0.4384,
      "velocity": 100,
      "chip": "ym2612"
    },
    {
      "channel": 4,
      "note": 76,
      "start": 6.1193,
      "duration": 0.4382,
      "velocity": 100,
      "chip": "ym2612"
    },
    {
      "channel": 5,
      "note": 102,
      "start": 6.1197,
      "duration": 0.1439,
      "velocity": 97,
      "chip": "ym2612"
    },
    {
      "channel": 0,
      "note": 75,
      "start": 6.3532,
      "duration": 0.1159,
      "velocity": 127,
      "chip": "ym2612"
    },
    {
      "channel": 1,
      "note": 61,
      "start": 6.3534,
      "duration": 0.194,
      "velocity": 104,
      "chip": "ym2612"
    },
    {
      "channel": 2,
      "note": 64,
      "start": 6.3537,
      "duration": 0.2036,
      "velocity": 100,
      "chip": "ym2612"
    },
    {
      "channel": 5,
      "note": 90,
      "start": 6.354,
      "duration": 0.0269,
      "velocity": 97,
      "chip": "ym2612"
    },
    {
      "channel": 0,
      "note": 48,
      "start": 6.4707,
      "duration": 0.1158,
      "velocity": 127,
      "chip": "ym2612"
    },
    {
      "channel": 5,
      "note": 90,
      "start": 6.4711,
      "duration": 0.0275,
      "velocity": 97,
      "chip": "ym2612"
    },
    {
      "channel": 0,
      "note": 32,
      "start": 6.5882,
      "duration": 0.1158,
      "velocity": 107,
      "chip": "ym2612"
    },
    {
      "channel": 1,
      "note": 54,
      "start": 6.5885,
      "duration": 0.1939,
      "velocity": 104,
      "chip": "ym2612"
    },
    {
      "channel": 2,
      "note": 66,
      "start": 6.5887,
      "duration": 0.9085,
      "velocity": 100,
      "chip": "ym2612"
    },
    {
      "channel": 3,
      "note": 81,
      "start": 6.589,
      "duration": 0.9083,
      "velocity": 100,
      "chip": "ym2612"
    },
    {
      "channel": 4,
      "note": 78,
      "start": 6.5893,
      "duration": 0.9081,
      "velocity": 100,
      "chip": "ym2612"
    },
    {
      "channel": 5,
      "note": 102,
      "start": 6.5896,
      "duration": 0.0264,
      "velocity": 97,
      "chip": "ym2612"
    },
    {
      "channel": 0,
      "note": 75,
      "start": 6.706,
      "duration": 0.1156,
      "velocity": 127,
      "chip": "ym2612"
    },
    {
      "channel": 5,
      "note": 102,
      "start": 6.7064,
      "duration": 0.0271,
      "velocity": 97,
      "chip": "ym2612"
    },
    {
      "channel": 0,
      "note": 32,
      "start": 6.8232,
      "duration": 0.1158,
      "velocity": 107,
      "chip": "ym2612"
    },
    {
      "channel": 1,
      "note": 49,
      "start": 6.8235,
      "duration": 0.1939,
      "velocity": 104,
      "chip": "ym2612"
    },
    {
      "channel": 5,
      "note": 102,
      "start": 6.8238,
      "duration": 0.1446,
      "velocity": 97,
      "chip": "ym2612"
    },
    {
      "channel": 0,
      "note": 75,
      "start": 6.9407,
      "duration": 0.1159,
      "velocity": 127,
      "chip": "ym2612"
    },
    {
      "channel": 0,
      "note": 48,
      "start": 7.0582,
      "duration": 0.2334,
      "velocity": 127,
      "chip": "ym2612"
    },
    {
      "channel": 1,
      "note": 52,
      "start": 7.0585,
      "duration": 0.194,
      "velocity": 104,
      "chip": "ym2612"
    },
    {
      "channel": 5,
      "note": 90,
      "start": 7.0588,
      "duration": 0.0272,
      "velocity": 97,
      "chip": "ym2612"
    },
    {
      "channel": 5,
      "note": 90,
      "start": 7.1745,
      "duration": 0.1465,
      "velocity": 97,
      "chip": "ym2612"
    },
    {
      "channel": 0,
      "note": 66,
      "start": 7.2933,
      "duration": 0.2333,
      "velocity": 127,
      "chip": "ym2612"
    },
    {
      "channel": 1,
      "note": 54,
      "start": 7.2935,
      "duration": 0.1939,
      "velocity": 104,
      "chip": "ym2612"
    },
    {
      "channel": 5,
      "note": 90,
      "start": 7.4094,
      "duration": 0.0291,
      "velocity": 97,
      "chip": "ym2612"
    },
    {
      "channel": 0,
      "note": 32,
      "start": 7.5283,
      "duration": 0.1158,
      "velocity": 107,
      "chip": "ym2612"
    },
    {
      "channel": 1,
      "note": 54,
      "start": 7.53,
      "duration": 0.1924,
      "velocity": 104,
      "chip": "ym2612"
    },
    {
      "channel": 2,
      "note": 66,
      "start": 7.5317,
      "duration": 0.0831,
      "velocity": 100,
      "chip": "ym2612"
    },
    {
      "channel": 3,
      "note": 78,
      "start": 7.5335,
      "duration": 0.4339,
      "velocity": 100,
      "chip": "ym2612"
    },
    {
      "channel": 4,
      "note": 73,
      "start": 7.5352,
      "duration": 0.4322,
      "velocity": 100,
      "chip": "ym2612"
    },
    {
      "channel": 5,
      "note": 90,
      "start": 7.5373,
      "duration": 0.0188,
      "velocity": 97,
      "chip": "ym2612"
    },
    {
      "channel": 0,
      "note": 75,
      "start": 7.646,
      "duration": 0.1156,
      "velocity": 127,
      "chip": "ym2612"
    },
    {
      "channel": 2,
      "note": 66,
      "start": 7.6463,
      "duration": 0.086,
      "velocity": 100,
      "chip": "ym2612"
    },
    {
      "channel": 5,
      "note": 90,
      "start": 7.6466,
      "duration": 0.0269,
      "velocity": 97,
      "chip": "ym2612"
    },
    {
      "channel": 0,
      "note": 66,
      "start": 7.7633,
      "duration": 0.2333,
      "velocity": 127,
      "chip": "ym2612"
    },
    {
      "channel": 1,
      "note": 54,
      "start": 7.7635,
      "duration": 0.1939,
      "velocity": 104,
      "chip": "ym2612"
    },
    {
      "channel": 2,
      "note": 64,
      "start": 7.7637,
      "duration": 0.086,
      "velocity": 100,
      "chip": "ym2612"
    },
    {
      "channel": 5,
      "note": 102,
      "start": 7.7641,
      "duration": 0.0269,
      "velocity": 97,
      "chip": "ym2612"
    },
    {
      "channel": 2,
      "note": 64,
      "start": 7.8793,
      "duration": 0.088,
      "velocity": 100,
      "chip": "ym2612"
    },
    {
      "channel": 5,
      "note": 102,
      "start": 7.8797,
      "duration": 0.0288,
      "velocity": 97,
      "chip": "ym2612"
    },
    {
      "channel": 0,
      "note": 48,
      "start": 7.9983,
      "duration": 0.2333,
      "velocity": 127,
      "chip": "ym2612"
    },
    {
      "channel": 1,
      "note": 54,
      "start": 7.9985,
      "duration": 0.194,
      "velocity": 104,
      "chip": "ym2612"
    },
    {
      "channel": 2,
      "note": 61,
      "start": 7.9988,
      "duration": 0.0861,
      "velocity": 100,
      "chip": "ym2612"
    },
    {
      "channel": 3,
      "note": 80,
      "start": 7.999,
      "duration": 0.4384,
      "velocity": 100,
      "chip": "ym2612"
    },
    {
      "channel": 4,
      "note": 76,
      "start": 7.9993,
      "duration": 0.4382,
      "velocity": 100,
      "chip": "ym2612"
    },
    {
      "channel": 5,
      "note": 102,
      "start": 7.9997,
      "duration": 0.1439,
      "velocity": 97,
      "chip": "ym2612"
    },
    {
      "channel": 2,
      "note": 61,
      "start": 8.1144,
      "duration": 0.088,
      "velocity": 100,
      "chip": "ym2612"
    },
    {
      "channel": 0,
      "note": 75,
      "start": 8.2333,
      "duration": 0.1159,
      "velocity": 127,
      "chip": "ym2612"
    },
    {
      "channel": 1,
      "note": 54,
      "start": 8.2335,
      "duration": 0.194,
      "velocity": 104,
      "chip": "ym2612"
    },
    {
      "channel": 2,
      "note": 64,
      "start": 8.2338,
      "duration": 0.086,
      "velocity": 100,
      "chip": "ym2612"
    },
    {
      "channel": 5,
      "note": 90,
      "start": 8.2341,
      "duration": 0.0269,
      "velocity": 97,
      "chip": "ym2612"
    },
    {
      "channel": 0,
      "note": 48,
      "start": 8.3508,
      "duration": 0.1158,
      "velocity": 127,
      "chip": "ym2612"
    },
    {
      "channel": 2,
      "note": 64,
      "start": 8.351,
      "duration": 0.0863,
      "velocity": 100,
      "chip": "ym2612"
    },
    {
      "channel": 5,
      "note": 90,
      "start": 8.3514,
      "duration": 0.0272,
      "velocity": 97,
      "chip": "ym2612"
    },
    {
      "channel": 0,
      "note": 32,
      "start": 8.4683,
      "duration": 0.1158,
      "velocity": 107,
      "chip": "ym2612"
    },
    {
      "channel": 1,
      "note": 52,
      "start": 8.4685,
      "duration": 0.1939,
      "velocity": 104,
      "chip": "ym2612"
    },
    {
      "channel": 2,
      "note": 66,
      "start": 8.4688,
      "duration": 0.0861,
      "velocity": 100,
      "chip": "ym2612"
    },
    {
      "channel": 3,
      "note": 81,
      "start": 8.4691,
      "duration": 0.4383,
      "velocity": 100,
      "chip": "ym2612"
    },
    {
      "channel": 4,
      "note": 78,
      "start": 8.4694,
      "duration": 0.438,
      "velocity": 100,
      "chip": "ym2612"
    },
    {
      "channel": 5,
      "note": 102,
      "start": 8.4697,
      "duration": 0.0264,
      "velocity": 97,
      "chip": "ym2612"
    },
    {
      "channel": 0,
      "note": 75,
      "start": 8.586,
      "duration": 0.1156,
      "velocity": 127,
      "chip": "ym2612"
    },
    {
      "channel": 2,
      "note": 66,
      "start": 8.5863,
      "duration": 0.086,
      "velocity": 100,
      "chip": "ym2612"
    },
    {
      "channel": 5,
      "note": 102,
      "start": 8.5867,
      "duration": 0.0268,
      "velocity": 97,
      "chip": "ym2612"
    },
    {
      "channel": 0,
      "note": 32,
      "start": 8.7033,
      "duration": 0.1158,
      "velocity": 107,
      "chip": "ym2612"
    },
    {
      "channel": 1,
      "note": 52,
      "start": 8.7035,
      "duration": 0.1939,
      "velocity": 104,
      "chip": "ym2612"
    },
    {
      "channel": 2,
      "note": 64,
      "start": 8.7038,
      "duration": 0.0861,
      "velocity": 100,
      "chip": "ym2612"
    },
    {
      "channel": 5,
      "note": 102,
      "start": 8.7041,
      "duration": 0.1444,
      "velocity": 97,
      "chip": "ym2612"
    },
    {
      "channel": 0,
      "note": 75,
      "start": 8.8208,
      "duration": 0.1159,
      "velocity": 127,
      "chip": "ym2612"
    },
    {
      "channel": 2,
      "note": 64,
      "start": 8.821,
      "duration": 0.0863,
      "velocity": 100,
      "chip": "ym2612"
    },
    {
      "channel": 0,
      "note": 48,
      "start": 8.9383,
      "duration": 0.2334,
      "velocity": 127,
      "chip": "ym2612"
    },
    {
      "channel": 1,
      "note": 52,
      "start": 8.9385,
      "duration": 0.194,
      "velocity": 104,
      "chip": "ym2612"
    },
    {
      "channel": 2,
      "note": 61,
      "start": 8.9388,
      "duration": 0.0861,
      "velocity": 100,
      "chip": "ym2612"
    },
    {
      "channel": 3,
      "note": 80,
      "start": 8.9391,
      "duration": 0.0858,
      "velocity": 100,
      "chip": "ym2612"
    },
    {
      "channel": 5,
      "note": 90,
      "start": 8.9395,
      "duration": 0.0267,
      "velocity": 97,
      "chip": "ym2612"
    },
    {
      "channel": 2,
      "note": 61,
      "start": 9.0544,
      "duration": 0.088,
      "velocity": 100,
      "chip": "ym2612"
    },
    {
      "channel": 3,
      "note": 81,
      "start": 9.0547,
      "duration": 0.0877,
      "velocity": 100,
      "chip": "ym2612"
    },
    {
      "channel": 5,
      "note": 90,
      "start": 9.0551,
      "duration": 0.1459,
      "velocity": 97,
      "chip": "ym2612"
    },
    {
      "channel": 0,
      "note": 66,
      "start": 9.1733,
      "duration": 0.2333,
      "velocity": 127,
      "chip": "ym2612"
    },
    {
      "channel": 1,
      "note": 52,
      "start": 9.1736,
      "duration": 0.1939,
      "velocity": 104,
      "chip": "ym2612"
    },
    {
      "channel": 2,
      "note": 64,
      "start": 9.1738,
      "duration": 0.086,
      "velocity": 100,
      "chip": "ym2612"
    },
    {
      "channel": 3,
      "note": 80,
      "start": 9.1741,
      "duration": 0.0858,
      "velocity": 100,
      "chip": "ym2612"
    },
    {
      "channel": 2,
      "note": 64,
      "start": 9.2894,
      "duration": 0.088,
      "velocity": 100,
      "chip": "ym2612"
    },
    {
      "channel": 3,
      "note": 76,
      "start": 9.2896,
      "duration": 0.0878,
      "velocity": 100,
      "chip": "ym2612"
    },
    {
      "channel": 5,
      "note": 90,
      "start": 9.29,
      "duration": 0.0286,
      "velocity": 97,
      "chip": "ym2612"
    },
    {
      "channel": 0,
      "note": 32,
      "start": 9.4083,
      "duration": 0.1158,
      "velocity": 107,
      "chip": "ym2612"
    },
    {
      "channel": 1,
      "note": 50,
      "start": 9.4086,
      "duration": 0.1939,
      "velocity": 104,
      "chip": "ym2612"
    },
    {
      "channel": 2,
      "note": 66,
      "start": 9.4088,
      "duration": 0.0861,
      "velocity": 100,
      "chip": "ym2612"
    },
    {
      "channel": 3,
      "note": 78,
      "start": 9.4091,
      "duration": 0.9084,
      "velocity": 100,
      "chip": "ym2612"
    },
    {
      "channel": 4,
      "note": 73,
      "start": 9.4094,
      "duration": 0.9082,
      "velocity": 100,
      "chip": "ym2612"
    },
    {
      "channel": 5,
      "note": 90,
      "start": 9.4098,
      "duration": 0.0264,
      "velocity": 97,
      "chip": "ym2612"
    },
    {
      "channel": 0,
      "note": 75,
      "start": 9.5261,
      "duration": 0.1156,
      "velocity": 127,
      "chip": "ym2612"
    },
    {
      "channel": 2,
      "note": 66,
      "start": 9.5263,
      "duration": 0.086,
      "velocity": 100,
      "chip": "ym2612"
    },
    {
      "channel": 5,
      "note": 90,
      "start": 9.5267,
      "duration": 0.0269,
      "velocity": 97,
      "chip": "ym2612"
    },
    {
      "channel": 0,
      "note": 66,
      "start": 9.6434,
      "duration": 0.2333,
      "velocity": 127,
      "chip": "ym2612"
    },
    {
      "channel": 1,
      "note": 50,
      "start": 9.6436,
      "duration": 0.1939,
      "velocity": 104,
      "chip": "ym2612"
    },
    {
      "channel": 2,
      "note": 64,
      "start": 9.6439,
      "duration": 0.0859,
      "velocity": 100,
      "chip": "ym2612"
    },
    {
      "channel": 5,
      "note": 102,
      "start": 9.6442,
      "duration": 0.0269,
      "velocity": 97,
      "chip": "ym2612"
    },
    {
      "channel": 2,
      "note": 64,
      "start": 9.7594,
      "duration": 0.088,
      "velocity": 100,
      "chip": "ym2612"
    },
    {
      "channel": 5,
      "note": 102,
      "start": 9.7597,
      "duration": 0.0288,
      "velocity": 97,
      "chip": "ym2612"
    },
    {
      "channel": 0,
      "note": 48,
      "start": 9.8783,
      "duration": 0.2333,
      "velocity": 127,
      "chip": "ym2612"
    },
    {
      "channel": 1,
      "note": 50,
      "start": 9.8786,
      "duration": 0.194,
      "velocity": 104,
      "chip": "ym2612"
    },
    {
      "channel": 2,
      "note": 61,
      "start": 9.8788,
      "duration": 0.0861,
      "velocity": 100,
      "chip": "ym2612"
    },
    {
      "channel": 5,
      "note": 102,
      "start": 9.8792,
      "duration": 0.1445,
      "velocity": 97,
      "chip": "ym2612"
    },
    {
      "channel": 2,
      "note": 61,
      "start": 9.9945,
      "duration": 0.088,
      "velocity": 100,
      "chip": "ym2612"
    },
    {
      "channel": 0,
      "note": 75,
      "start": 10.1133,
      "duration": 0.1159,
      "velocity": 127,
      "chip": "ym2612"
    },
    {
      "channel": 1,
      "note": 50,
      "start": 10.1136,
      "duration": 0.194,
      "velocity": 104,
      "chip": "ym2612"
    },
    {
      "channel": 2,
      "note": 57,
      "start": 10.1138,
      "duration": 0.086,
      "velocity": 100,
      "chip": "ym2612"
    },
    {
      "channel": 5,
      "note": 90,
      "start": 10.1142,
      "duration": 0.027,
      "velocity": 97,
      "chip": "ym2612"
    },
    {
      "channel": 0,
      "note": 48,
      "start": 10.2309,
      "duration": 0.1158,
      "velocity": 127,
      "chip": "ym2612"
    },
    {
      "channel": 2,
      "note": 57,
      "start": 10.2311,
      "duration": 0.0863,
      "velocity": 100,
      "chip": "ym2612"
    },
    {
      "channel": 5,
      "note": 90,
      "start": 10.2315,
      "duration": 0.0272,
      "velocity": 97,
      "chip": "ym2612"
    },
    {
      "channel": 0,
      "note": 32,
      "start": 10.3484,
      "duration": 0.1256,
      "velocity": 107,
      "chip": "ym2612"
    },
    {
      "channel": 1,
      "note": 45,
      "start": 10.3486,
      "duration": 0.2037,
      "velocity": 104,
      "chip": "ym2612"
    },
    {
      "channel": 2,
      "note": 59,
      "start": 10.3488,
      "duration": 0.2133,
      "velocity": 100,
      "chip": "ym2612"
    },
    {
      "channel": 3,
      "note": 71,
      "start": 10.3491,
      "duration": 0.4481,
      "velocity": 100,
      "chip": "ym2612"
    },
    {
      "channel": 4,
      "note": 66,
      "start": 10.3494,
      "duration": 0.4478,
      "velocity": 100,
      "chip": "ym2612"
    },
    {
      "channel": 5,
      "note": 102,
      "start": 10.3498,
      "duration": 0.0362,
      "velocity": 97,
      "chip": "ym2612"
    },
    {
      "channel": 0,
      "note": 75,
      "start": 10.4759,
      "duration": 0.1156,
      "velocity": 127,
      "chip": "ym2612"
    },
    {
      "channel": 5,
      "note": 102,
      "start": 10.4763,
      "duration": 0.0271,
      "velocity": 97,
      "chip": "ym2612"
    },
    {
      "channel": 0,
      "note": 32,
      "start": 10.5932,
      "duration": 0.1158,
      "velocity": 107,
      "chip": "ym2612"
    },
    {
      "channel": 1,
      "note": 45,
      "start": 10.5934,
      "duration": 0.1939,
      "velocity": 104,
      "chip": "ym2612"
    },
    {
      "channel": 2,
      "note": 57,
      "start": 10.5937,
      "duration": 0.0861,
      "velocity": 100,
      "chip": "ym2612"
    },
    {
      "channel": 5,
      "note": 102,
      "start": 10.594,
      "duration": 0.1444,
      "velocity": 97,
      "chip": "ym2612"
    },
    {
      "channel": 0,
      "note": 75,
      "start": 10.7107,
      "duration": 0.1158,
      "velocity": 127,
      "chip": "ym2612"
    },
    {
      "channel": 2,
      "note": 59,
      "start": 10.7109,
      "duration": 0.0862,
      "velocity": 100,
      "chip": "ym2612"
    },
    {
      "channel": 0,
      "note": 48,
      "start": 10.8282,
      "duration": 0.2333,
      "velocity": 127,
      "chip": "ym2612"
    },
    {
      "channel": 1,
      "note": 49,
      "start": 10.8284,
      "duration": 0.194,
      "velocity": 104,
      "chip": "ym2612"
    },
    {
      "channel": 2,
      "note": 61,
      "start": 10.8286,
      "duration": 0.0861,
      "velocity": 100,
      "chip": "ym2612"
    },
    {
      "channel": 3,
      "note": 73,
      "start": 10.8289,
      "duration": 0.4383,
      "velocity": 100,
      "chip": "ym2612"
    },
    {
      "channel": 4,
      "note": 68,
      "start": 10.8292,
      "duration": 0.4381,
      "velocity": 100,
      "chip": "ym2612"
    },
    {
      "channel": 5,
      "note": 90,
      "start": 10.8295,
      "duration": 0.0264,
      "velocity": 97,
      "chip": "ym2612"
    },
    {
      "channel": 2,
      "note": 61,
      "start": 10.9443,
      "duration": 0.088,
      "velocity": 100,
      "chip": "ym2612"
    },
    {
      "channel": 5,
      "note": 90,
      "start": 10.9447,
      "duration": 0.1462,
      "velocity": 97,
      "chip": "ym2612"
    },
    {
      "channel": 0,
      "note": 66,
      "start": 11.0632,
      "duration": 0.2334,
      "velocity": 127,
      "chip": "ym2612"
    },
    {
      "channel": 1,
      "note": 49,
      "start": 11.0634,
      "duration": 0.1939,
      "velocity": 104,
      "chip": "ym2612"
    },
    {
      "channel": 2,
      "note": 64,
      "start": 11.0637,
      "duration": 0.086,
      "velocity": 100,
      "chip": "ym2612"
    },
    {
      "channel": 2,
      "note": 61,
      "start": 11.1792,
      "duration": 0.088,
      "velocity": 100,
      "chip": "ym2612"
    },
    {
      "channel": 5,
      "note": 90,
      "start": 11.1795,
      "duration": 0.0289,
      "velocity": 97,
      "chip": "ym2612"
    },
    {
      "channel": 0,
      "note": 32,
      "start": 11.2982,
      "duration": 0.1158,
      "velocity": 107,
      "chip": "ym2612"
    },
    {
      "channel": 1,
      "note": 50,
      "start": 11.2984,
      "duration": 0.1939,
      "velocity": 104,
      "chip": "ym2612"
    },
    {
      "channel": 2,
      "note": 59,
      "start": 11.2987,
      "duration": 0.2035,
      "velocity": 100,
      "chip": "ym2612"
    },
    {
      "channel": 3,
      "note": 74,
      "start": 11.299,
      "duration": 0.9084,
      "velocity": 100,
      "chip": "ym2612"
    },
    {
      "channel": 4,
      "note": 71,
      "start": 11.2993,
      "duration": 0.9082,
      "velocity": 100,
      "chip": "ym2612"
    },
    {
      "channel": 5,
      "note": 90,
      "start": 11.2996,
      "duration": 0.0264,
      "velocity": 97,
      "chip": "ym2612"
    },
    {
      "channel": 0,
      "note": 75,
      "start": 11.4159,
      "duration": 0.1156,
      "velocity": 127,
      "chip": "ym2612"
    },
    {
      "channel": 5,
      "note": 90,
      "start": 11.4163,
      "duration": 0.0271,
      "velocity": 97,
      "chip": "ym2612"
    },
    {
      "channel": 0,
      "note": 66,
      "start": 11.5332,
      "duration": 0.2334,
      "velocity": 127,
      "chip": "ym2612"
    },
    {
      "channel": 1,
      "note": 50,
      "start": 11.5334,
      "duration": 0.1939,
      "velocity": 104,
      "chip": "ym2612"
    },
    {
      "channel": 2,
      "note": 57,
      "start": 11.5337,
      "duration": 0.086,
      "velocity": 100,
      "chip": "ym2612"
    },
    {
      "channel": 5,
      "note": 102,
      "start": 11.534,
      "duration": 0.0269,
      "velocity": 97,
      "chip": "ym2612"
    },
    {
      "channel": 2,
      "note": 59,
      "start": 11.6492,
      "duration": 0.088,
      "velocity": 100,
      "chip": "ym2612"
    },
    {
      "channel": 5,
      "note": 102,
      "start": 11.6496,
      "duration": 0.0289,
      "velocity": 97,
      "chip": "ym2612"
    },
    {
      "channel": 0,
      "note": 48,
      "start": 11.7682,
      "duration": 0.2334,
      "velocity": 127,
      "chip": "ym2612"
    },
    {
      "channel": 1,
      "note": 50,
      "start": 11.7684,
      "duration": 0.194,
      "velocity": 104,
      "chip": "ym2612"
    },
    {
      "channel": 2,
      "note": 61,
      "start": 11.7687,
      "duration": 0.2036,
      "velocity": 100,
      "chip": "ym2612"
    },
    {
      "channel": 5,
      "note": 102,
      "start": 11.7691,
      "duration": 0.1445,
      "velocity": 97,
      "chip": "ym2612"
    },
    {
      "channel": 0,
      "note": 75,
      "start": 12.0032,
      "duration": 0.1159,
      "velocity": 127,
      "chip": "ym2612"
    },
    {
      "channel": 1,
      "note": 50,
      "start": 12.0034,
      "duration": 0.194,
      "velocity": 104,
      "chip": "ym2612"
    },
    {
      "channel": 2,
      "note": 57,
      "start": 12.0037,
      "duration": 0.2037,
      "velocity": 100,
      "chip": "ym2612"
    },
    {
      "channel": 5,
      "note": 90,
      "start": 12.004,
      "duration": 0.0269,
      "velocity": 97,
      "chip": "ym2612"
    },
    {
      "channel": 0,
      "note": 48,
      "start": 12.1207,
      "duration": 0.1158,
      "velocity": 127,
      "chip": "ym2612"
    },
    {
      "channel": 5,
      "note": 90,
      "start": 12.1211,
      "duration": 0.0275,
      "velocity": 97,
      "chip": "ym2612"
    },
    {
      "channel": 0,
      "note": 32,
      "start": 12.2382,
      "duration": 0.1158,
      "velocity": 107,
      "chip": "ym2612"
    },
    {
      "channel": 1,
      "note": 52,
      "start": 12.2385,
      "duration": 0.1939,
      "velocity": 104,
      "chip": "ym2612"
    },
    {
      "channel": 2,
      "note": 66,
      "start": 12.2387,
      "duration": 0.0861,
      "velocity": 100,
      "chip": "ym2612"
    },
    {
      "channel": 3,
      "note": 76,
      "start": 12.239,
      "duration": 0.9083,
      "velocity": 100,
      "chip": "ym2612"
    },
    {
      "channel": 4,
      "note": 71,
      "start": 12.2393,
      "duration": 0.9081,
      "velocity": 100,
      "chip": "ym2612"
    },
    {
      "channel": 5,
      "note": 102,
      "start": 12.2396,
      "duration": 0.0264,
      "velocity": 97,
      "chip": "ym2612"
    },
    {
      "channel": 0,
      "note": 75,
      "start": 12.356,
      "duration": 0.1156,
      "velocity": 127,
      "chip": "ym2612"
    },
    {
      "channel": 2,
      "note": 64,
      "start": 12.3562,
      "duration": 0.086,
      "velocity": 100,
      "chip": "ym2612"
    },
    {
      "channel": 5,
      "note": 102,
      "start": 12.3566,
      "duration": 0.0268,
      "velocity": 97,
      "chip": "ym2612"
    },
    {
      "channel": 0,
      "note": 32,
      "start": 12.4732,
      "duration": 0.1158,
      "velocity": 107,
      "chip": "ym2612"
    },
    {
      "channel": 1,
      "note": 52,
      "start": 12.4735,
      "duration": 0.1939,
      "velocity": 104,
      "chip": "ym2612"
    },
    {
      "channel": 2,
      "note": 61,
      "start": 12.4737,
      "duration": 0.2035,
      "velocity": 100,
      "chip": "ym2612"
    },
    {
      "channel": 5,
      "note": 102,
      "start": 12.4741,
      "duration": 0.1444,
      "velocity": 97,
      "chip": "ym2612"
    },
    {
      "channel": 0,
      "note": 75,
      "start": 12.5907,
      "duration": 0.1159,
      "velocity": 127,
      "chip": "ym2612"
    },
    {
      "channel": 0,
      "note": 48,
      "start": 12.7082,
      "duration": 0.2333,
      "velocity": 127,
      "chip": "ym2612"
    },
    {
      "channel": 1,
      "note": 52,
      "start": 12.7085,
      "duration": 0.194,
      "velocity": 104,
      "chip": "ym2612"
    },
    {
      "channel": 2,
      "note": 59,
      "start": 12.7087,
      "duration": 0.2036,
      "velocity": 100,
      "chip": "ym2612"
    },
    {
      "channel": 5,
      "note": 90,
      "start": 12.709,
      "duration": 0.027,
      "velocity": 97,
      "chip": "ym2612"
    },
    {
      "channel": 5,
      "note": 90,
      "start": 12.8245,
      "duration": 0.1465,
      "velocity": 97,
      "chip": "ym2612"
    },
    {
      "channel": 0,
      "note": 66,
      "start": 12.9433,
      "duration": 0.2333,
      "velocity": 127,
      "chip": "ym2612"
    },
    {
      "channel": 1,
      "note": 52,
      "start": 12.9435,
      "duration": 0.1939,
      "velocity": 104,
      "chip": "ym2612"
    },
    {
      "channel": 2,
      "note": 64,
      "start": 12.9437,
      "duration": 0.2035,
      "velocity": 100,
      "chip": "ym2612"
    },
    {
      "channel": 5,
      "note": 90,
      "start": 13.0594,
      "duration": 0.029,
      "velocity": 97,
      "chip": "ym2612"
    },
    {
      "channel": 0,
      "note": 32,
      "start": 13.1783,
      "duration": 0.1158,
      "velocity": 107,
      "chip": "ym2612"
    },
    {
      "channel": 1,
      "note": 59,
      "start": 13.1785,
      "duration": 0.1939,
      "velocity": 104,
      "chip": "ym2612"
    },
    {
      "channel": 2,
      "note": 66,
      "start": 13.1787,
      "duration": 0.2035,
      "velocity": 100,
      "chip": "ym2612"
    },
    {
      "channel": 3,
      "note": 78,
      "start": 13.179,
      "duration": 0.4383,
      "velocity": 100,
      "chip": "ym2612"
    },
    {
      "channel": 4,
      "note": 74,
      "start": 13.1793,
      "duration": 0.438,
      "velocity": 100,
      "chip": "ym2612"
    },
    {
      "channel": 5,
      "note": 90,
      "start": 13.1797,
      "duration": 0.0264,
      "velocity": 97,
      "chip": "ym2612"
    },
    {
      "channel": 0,
      "note": 75,
      "start": 13.296,
      "duration": 0.1156,
      "velocity": 127,
      "chip": "ym2612"
    },
    {
      "channel": 5,
      "note": 90,
      "start": 13.2963,
      "duration": 0.0271,
      "velocity": 97,
      "chip": "ym2612"
    },
    {
      "channel": 0,
      "note": 66,
      "start": 13.4132,
      "duration": 0.2334,
      "velocity": 127,
      "chip": "ym2612"
    },
    {
      "channel": 1,
      "note": 59,
      "start": 13.4135,
      "duration": 0.1939,
      "velocity": 104,
      "chip": "ym2612"
    },
    {
      "channel": 2,
      "note": 69,
      "start": 13.4137,
      "duration": 0.2036,
      "velocity": 100,
      "chip": "ym2612"
    },
    {
      "channel": 5,
      "note": 102,
      "start": 13.4141,
      "duration": 0.0269,
      "velocity": 97,
      "chip": "ym2612"
    },
    {
      "channel": 5,
      "note": 102,
      "start": 13.5294,
      "duration": 0.0291,
      "velocity": 97,
      "chip": "ym2612"
    },
    {
      "channel": 0,
      "note": 48,
      "start": 13.6483,
      "duration": 0.2333,
      "velocity": 127,
      "chip": "ym2612"
    },
    {
      "channel": 1,
      "note": 61,
      "start": 13.6485,
      "duration": 0.194,
      "velocity": 104,
      "chip": "ym2612"
    },
    {
      "channel": 2,
      "note": 68,
      "start": 13.6488,
      "duration": 0.2036,
      "velocity": 100,
      "chip": "ym2612"
    },
    {
      "channel": 3,
      "note": 80,
      "start": 13.649,
      "duration": 0.4384,
      "velocity": 100,
      "chip": "ym2612"
    },
    {
      "channel": 4,
      "note": 76,
      "start": 13.6493,
      "duration": 0.4382,
      "velocity": 100,
      "chip": "ym2612"
    },
    {
      "channel": 5,
      "note": 102,
      "start": 13.6497,
      "duration": 0.1439,
      "velocity": 97,
      "chip": "ym2612"
    },
    {
      "channel": 0,
      "note": 75,
      "start": 13.8833,
      "duration": 0.1158,
      "velocity": 127,
      "chip": "ym2612"
    },
    {
      "channel": 1,
      "note": 61,
      "start": 13.8835,
      "duration": 0.194,
      "velocity": 104,
      "chip": "ym2612"
    },
    {
      "channel": 2,
      "note": 64,
      "start": 13.8837,
      "duration": 0.2036,
      "velocity": 100,
      "chip": "ym2612"
    },
    {
      "channel": 5,
      "note": 90,
      "start": 13.8841,
      "duration": 0.0269,
      "velocity": 97,
      "chip": "ym2612"
    },
    {
      "channel": 0,
      "note": 48,
      "start": 14.0008,
      "duration": 0.1158,
      "velocity": 127,
      "chip": "ym2612"
    },
    {
      "channel": 5,
      "note": 90,
      "start": 14.0011,
      "duration": 0.0275,
      "velocity": 97,
      "chip": "ym2612"
    },
    {
      "channel": 0,
      "note": 32,
      "start": 14.1183,
      "duration": 0.1158,
      "velocity": 107,
      "chip": "ym2612"
    },
    {
      "channel": 1,
      "note": 54,
      "start": 14.1185,
      "duration": 0.1939,
      "velocity": 104,
      "chip": "ym2612"
    },
    {
      "channel": 2,
      "note": 66,
      "start": 14.1188,
      "duration": 0.4385,
      "velocity": 100,
      "chip": "ym2612"
    },
    {
      "channel": 3,
      "note": 81,
      "start": 14.1191,
      "duration": 0.9083,
      "velocity": 100,
      "chip": "ym2612"
    },
    {
      "channel": 4,
      "note": 78,
      "start": 14.1193,
      "duration": 0.9081,
      "velocity": 100,
      "chip": "ym2612"
    },
    {
      "channel": 5,
      "note": 102,
      "start": 14.1197,
      "duration": 0.0264,
      "velocity": 97,
      "chip": "ym2612"
    },
    {
      "channel": 0,
      "note": 75,
      "start": 14.236,
      "duration": 0.1156,
      "velocity": 127,
      "chip": "ym2612"
    },
    {
      "channel": 5,
      "note": 102,
      "start": 14.2364,
      "duration": 0.0271,
      "velocity": 97,
      "chip": "ym2612"
    },
    {
      "channel": 0,
      "note": 32,
      "start": 14.3533,
      "duration": 0.1158,
      "velocity": 107,
      "chip": "ym2612"
    },
    {
      "channel": 1,
      "note": 49,
      "start": 14.3535,
      "duration": 0.1939,
      "velocity": 104,
      "chip": "ym2612"
    },
    {
      "channel": 5,
      "note": 102,
      "start": 14.3539,
      "duration": 0.1446,
      "velocity": 97,
      "chip": "ym2612"
    },
    {
      "channel": 0,
      "note": 75,
      "start": 14.4708,
      "duration": 0.1159,
      "velocity": 127,
      "chip": "ym2612"
    },
    {
      "channel": 0,
      "note": 48,
      "start": 14.5883,
      "duration": 0.2333,
      "velocity": 127,
      "chip": "ym2612"
    },
    {
      "channel": 1,
      "note": 52,
      "start": 14.5885,
      "duration": 0.194,
      "velocity": 104,
      "chip": "ym2612"
    },
    {
      "channel": 2,
      "note": 66,
      "start": 14.5902,
      "duration": 0.0846,
      "velocity": 120,
      "chip": "ym2612"
    },
    {
      "channel": 5,
      "note": 90,
      "start": 14.5906,
      "duration": 0.0256,
      "velocity": 97,
      "chip": "ym2612"
    },
    {
      "channel": 2,
      "note": 68,
      "start": 14.7044,
      "duration": 0.088,
      "velocity": 120,
      "chip": "ym2612"
    },
    {
      "channel": 5,
      "note": 90,
      "start": 14.7048,
      "duration": 0.1462,
      "velocity": 97,
      "chip": "ym2612"
    },
    {
      "channel": 0,
      "note": 66,
      "start": 14.8233,
      "duration": 0.2334,
      "velocity": 127,
      "chip": "ym2612"
    },
    {
      "channel": 1,
      "note": 54,
      "start": 14.8235,
      "duration": 0.1939,
      "velocity": 104,
      "chip": "ym2612"
    },
    {
      "channel": 2,
      "note": 69,
      "start": 14.8238,
      "duration": 0.086,
      "velocity": 120,
      "chip": "ym2612"
    },
    {
      "channel": 2,
      "note": 71,
      "start": 14.9393,
      "duration": 0.088,
      "velocity": 120,
      "chip": "ym2612"
    },
    {
      "channel": 5,
      "note": 90,
      "start": 14.9397,
      "duration": 0.0289,
      "velocity": 97,
      "chip": "ym2612"
    },
    {
      "channel": 0,
      "note": 32,
      "start": 15.0584,
      "duration": 0.1158,
      "velocity": 107,
      "chip": "ym2612"
    },
    {
      "channel": 1,
      "note": 50,
      "start": 15.0586,
      "duration": 0.1939,
      "velocity": 104,
      "chip": "ym2612"
    },
    {
      "channel": 2,
      "note": 73,
      "start": 15.0589,
      "duration": 0.6736,
      "velocity": 120,
      "chip": "ym2612"
    },
    {
      "channel": 3,
      "note": 74,
      "start": 15.0606,
      "duration": 0.0452,
      "velocity": 92,
      "chip": "ym2612"
    },
    {
      "channel": 5,
      "note": 90,
      "start": 15.0625,
      "duration": 0.0236,
      "velocity": 97,
      "chip": "ym2612"
    },
    {
      "channel": 3,
      "note": 74,
      "start": 15.1353,
      "duration": 0.0096,
      "velocity": 92,
      "chip": "ym2612"
    },
    {
      "channel": 0,
      "note": 75,
      "start": 15.1761,
      "duration": 0.1156,
      "velocity": 127,
      "chip": "ym2612"
    },
    {
      "channel": 3,
      "note": 78,
      "start": 15.1763,
      "duration": 0.0468,
      "velocity": 92,
      "chip": "ym2612"
    },
    {
      "channel": 5,
      "note": 90,
      "start": 15.1767,
      "duration": 0.0269,
      "velocity": 97,
      "chip": "ym2612"
    },
    {
      "channel": 3,
      "note": 78,
      "start": 15.2527,
      "duration": 0.0096,
      "velocity": 92,
      "chip": "ym2612"
    },
    {
      "channel": 0,
      "note": 66,
      "start": 15.2934,
      "duration": 0.2333,
      "velocity": 127,
      "chip": "ym2612"
    },
    {
      "channel": 1,
      "note": 50,
      "start": 15.2936,
      "duration": 0.1939,
      "velocity": 104,
      "chip": "ym2612"
    },
    {
      "channel": 3,
      "note": 81,
      "start": 15.2939,
      "duration": 0.0468,
      "velocity": 92,
      "chip": "ym2612"
    },
    {
      "channel": 5,
      "note": 102,
      "start": 15.2942,
      "duration": 0.0268,
      "velocity": 97,
      "chip": "ym2612"
    },
    {
      "channel": 3,
      "note": 81,
      "start": 15.3702,
      "duration": 0.0096,
      "velocity": 92,
      "chip": "ym2612"
    },
    {
      "channel": 3,
      "note": 78,
      "start": 15.4094,
      "duration": 0.0488,
      "velocity": 92,
      "chip": "ym2612"
    },
    {
      "channel": 5,
      "note": 102,
      "start": 15.4097,
      "duration": 0.0288,
      "velocity": 97,
      "chip": "ym2612"
    },
    {
      "channel": 3,
      "note": 78,
      "start": 15.4878,
      "duration": 0.0096,
      "velocity": 92,
      "chip": "ym2612"
    },
    {
      "channel": 0,
      "note": 48,
      "start": 15.5283,
      "duration": 0.2333,
      "velocity": 127,
      "chip": "ym2612"
    },
    {
      "channel": 1,
      "note": 50,
      "start": 15.5286,
      "duration": 0.194,
      "velocity": 104,
      "chip": "ym2612"
    },
    {
      "channel": 3,
      "note": 74,
      "start": 15.5288,
      "duration": 0.047,
      "velocity": 92,
      "chip": "ym2612"
    },
    {
      "channel": 4,
      "note": 78,
      "start": 15.5291,
      "duration": 0.0859,
      "velocity": 100,
      "chip": "ym2612"
    },
    {
      "channel": 5,
      "note": 102,
      "start": 15.5295,
      "duration": 0.1442,
      "velocity": 97,
      "chip": "ym2612"
    },
    {
      "channel": 3,
      "note": 74,
      "start": 15.6053,
      "duration": 0.0096,
      "velocity": 92,
      "chip": "ym2612"
    },
    {
      "channel": 3,
      "note": 78,
      "start": 15.6445,
      "duration": 0.0488,
      "velocity": 92,
      "chip": "ym2612"
    },
    {
      "channel": 4,
      "note": 80,
      "start": 15.6448,
      "duration": 0.0878,
      "velocity": 100,
      "chip": "ym2612"
    },
    {
      "channel": 3,
      "note": 78,
      "start": 15.7229,
      "duration": 0.0096,
      "velocity": 92,
      "chip": "ym2612"
    },
    {
      "channel": 0,
      "note": 66,
      "start": 15.7633,
      "duration": 0.2334,
      "velocity": 127,
      "chip": "ym2612"
    },
    {
      "channel": 1,
      "note": 50,
      "start": 15.7636,
      "duration": 0.1939,
      "velocity": 104,
      "chip": "ym2612"
    },
    {
      "channel": 2,
      "note": 71,
      "start": 15.7638,
      "duration": 0.2035,
      "velocity": 120,
      "chip": "ym2612"
    },
    {
      "channel": 3,
      "note": 81,
      "start": 15.7641,
      "duration": 0.0466,
      "velocity": 92,
      "chip": "ym2612"
    },
    {
      "channel": 4,
      "note": 81,
      "start": 15.7644,
      "duration": 0.0855,
      "velocity": 100,
      "chip": "ym2612"
    },
    {
      "channel": 5,
      "note": 90,
      "start": 15.7647,
      "duration": 0.0264,
      "velocity": 97,
      "chip": "ym2612"
    },
    {
      "channel": 3,
      "note": 81,
      "start": 15.8402,
      "duration": 0.0096,
      "velocity": 92,
      "chip": "ym2612"
    },
    {
      "channel": 3,
      "note": 78,
      "start": 15.8794,
      "duration": 0.0488,
      "velocity": 92,
      "chip": "ym2612"
    },
    {
      "channel": 5,
      "note": 90,
      "start": 15.8798,
      "duration": 0.0288,
      "velocity": 97,
      "chip": "ym2612"
    },
    {
      "channel": 3,
      "note": 78,
      "start": 15.9578,
      "duration": 0.0096,
      "velocity": 92,
      "chip": "ym2612"
    },
    {
      "channel": 0,
      "note": 32,
      "start": 15.9983,
      "duration": 0.1158,
      "velocity": 107,
      "chip": "ym2612"
    },
    {
      "channel": 1,
      "note": 49,
      "start": 15.9986,
      "duration": 0.1939,
      "velocity": 104,
      "chip": "ym2612"
    },
    {
      "channel": 2,
      "note": 76,
      "start": 15.9988,
      "duration": 0.2035,
      "velocity": 120,
      "chip": "ym2612"
    },
    {
      "channel": 3,
      "note": 73,
      "start": 15.9991,
      "duration": 0.0467,
      "velocity": 92,
      "chip": "ym2612"
    },
    {
      "channel": 4,
      "note": 80,
      "start": 15.9993,
      "duration": 0.4381,
      "velocity": 100,
      "chip": "ym2612"
    },
    {
      "channel": 5,
      "note": 102,
      "start": 15.9997,
      "duration": 0.0265,
      "velocity": 97,
      "chip": "ym2612"
    },
    {
      "channel": 3,
      "note": 73,
      "start": 16.0756,
      "duration": 0.0093,
      "velocity": 92,
      "chip": "ym2612"
    },
    {
      "channel": 0,
      "note": 75,
      "start": 16.1161,
      "duration": 0.1156,
      "velocity": 127,
      "chip": "ym2612"
    },
    {
      "channel": 3,
      "note": 76,
      "start": 16.1163,
      "duration": 0.0468,
      "velocity": 92,
      "chip": "ym2612"
    },
    {
      "channel": 5,
      "note": 102,
      "start": 16.1167,
      "duration": 0.0268,
      "velocity": 97,
      "chip": "ym2612"
    },
    {
      "channel": 3,
      "note": 76,
      "start": 16.1928,
      "duration": 0.0096,
      "velocity": 92,
      "chip": "ym2612"
    },
    {
      "channel": 0,
      "note": 66,
      "start": 16.2333,
      "duration": 0.2334,
      "velocity": 127,
      "chip": "ym2612"
    },
    {
      "channel": 1,
      "note": 49,
      "start": 16.2336,
      "duration": 0.1939,
      "velocity": 104,
      "chip": "ym2612"
    },
    {
      "channel": 2,
      "note": 73,
      "start": 16.2338,
      "duration": 0.2035,
      "velocity": 120,
      "chip": "ym2612"
    },
    {
      "channel": 3,
      "note": 80,
      "start": 16.2341,
      "duration": 0.0466,
      "velocity": 92,
      "chip": "ym2612"
    },
    {
      "channel": 5,
      "note": 102,
      "start": 16.2344,
      "duration": 0.1442,
      "velocity": 97,
      "chip": "ym2612"
    },
    {
      "channel": 3,
      "note": 80,
      "start": 16.3102,
      "duration": 0.0096,
      "velocity": 92,
      "chip": "ym2612"
    },
    {
      "channel": 3,
      "note": 76,
      "start": 16.3494,
      "duration": 0.0488,
      "velocity": 92,
      "chip": "ym2612"
    },
    {
      "channel": 3,
      "note": 76,
      "start": 16.4278,
      "duration": 0.0096,
      "velocity": 92,
      "chip": "ym2612"
    },
    {
      "channel": 0,
      "note": 48,
      "start": 16.4683,
      "duration": 0.2334,
      "velocity": 127,
      "chip": "ym2612"
    },
    {
      "channel": 1,
      "note": 49,
      "start": 16.4686,
      "duration": 0.194,
      "velocity": 104,
      "chip": "ym2612"
    },
    {
      "channel": 2,
      "note": 71,
      "start": 16.4688,
      "duration": 0.2036,
      "velocity": 120,
      "chip": "ym2612"
    },
    {
      "channel": 3,
      "note": 73,
      "start": 16.4691,
      "duration": 0.0467,
      "velocity": 92,
      "chip": "ym2612"
    },
    {
      "channel": 4,
      "note": 76,
      "start": 16.4694,
      "duration": 0.4381,
      "velocity": 100,
      "chip": "ym2612"
    },
    {
      "channel": 5,
      "note": 90,
      "start": 16.4697,
      "duration": 0.0265,
      "velocity": 97,
      "chip": "ym2612"
    },
    {
      "channel": 3,
      "note": 73,
      "start": 16.5456,
      "duration": 0.0093,
      "velocity": 92,
      "chip": "ym2612"
    },
    {
      "channel": 3,
      "note": 76,
      "start": 16.5845,
      "duration": 0.0488,
      "velocity": 92,
      "chip": "ym2612"
    },
    {
      "channel": 5,
      "note": 90,
      "start": 16.5849,
      "duration": 0.1462,
      "velocity": 97,
      "chip": "ym2612"
    },
    {
      "channel": 3,
      "note": 76,
      "start": 16.6629,
      "duration": 0.0096,
      "velocity": 92,
      "chip": "ym2612"
    },
    {
      "channel": 0,
      "note": 66,
      "start": 16.7034,
      "duration": 0.2334,
      "velocity": 127,
      "chip": "ym2612"
    },
    {
      "channel": 1,
      "note": 49,
      "start": 16.7036,
      "duration": 0.1939,
      "velocity": 104,
      "chip": "ym2612"
    },
    {
      "channel": 2,
      "note": 68,
      "start": 16.7038,
      "duration": 0.2036,
      "velocity": 120,
      "chip": "ym2612"
    },
    {
      "channel": 3,
      "note": 80,
      "start": 16.7041,
      "duration": 0.0466,
      "velocity": 92,
      "chip": "ym2612"
    },
    {
      "channel": 3,
      "note": 80,
      "start": 16.7802,
      "duration": 0.0096,
      "velocity": 92,
      "chip": "ym2612"
    },
    {
      "channel": 3,
      "note": 76,
      "start": 16.8194,
      "duration": 0.0488,
      "velocity": 92,
      "chip": "ym2612"
    },
    {
      "channel": 5,
      "note": 90,
      "start": 16.8198,
      "duration": 0.0289,
      "velocity": 97,
      "chip": "ym2612"
    },
    {
      "channel": 3,
      "note": 76,
      "start": 16.8978,
      "duration": 0.0096,
      "velocity": 92,
      "chip": "ym2612"
    },
    {
      "channel": 0,
      "note": 32,
      "start": 16.9384,
      "duration": 0.1158,
      "velocity": 107,
      "chip": "ym2612"
    },
    {
      "channel": 1,
      "note": 47,
      "start": 16.9386,
      "duration": 0.1939,
      "velocity": 104,
      "chip": "ym2612"
    },
    {
      "channel": 2,
      "note": 66,
      "start": 16.9389,
      "duration": 0.2035,
      "velocity": 120,
      "chip": "ym2612"
    },
    {
      "channel": 3,
      "note": 71,
      "start": 16.9391,
      "duration": 0.0467,
      "velocity": 92,
      "chip": "ym2612"
    },
    {
      "channel": 5,
      "note": 90,
      "start": 16.9395,
      "duration": 0.0267,
      "velocity": 97,
      "chip": "ym2612"
    },
    {
      "channel": 3,
      "note": 71,
      "start": 17.0156,
      "duration": 0.0093,
      "velocity": 92,
      "chip": "ym2612"
    },
    {
      "channel": 0,
      "note": 75,
      "start": 17.0561,
      "duration": 0.1156,
      "velocity": 127,
      "chip": "ym2612"
    },
    {
      "channel": 3,
      "note": 74,
      "start": 17.0564,
      "duration": 0.0468,
      "velocity": 92,
      "chip": "ym2612"
    },
    {
      "channel": 5,
      "note": 90,
      "start": 17.0567,
      "duration": 0.0269,
      "velocity": 97,
      "chip": "ym2612"
    },
    {
      "channel": 3,
      "note": 74,
      "start": 17.1328,
      "duration": 0.0096,
      "velocity": 92,
      "chip": "ym2612"
    },
    {
      "channel": 0,
      "note": 66,
      "start": 17.1734,
      "duration": 0.2333,
      "velocity": 127,
      "chip": "ym2612"
    },
    {
      "channel": 1,
      "note": 47,
      "start": 17.1736,
      "duration": 0.1939,
      "velocity": 104,
      "chip": "ym2612"
    },
    {
      "channel": 2,
      "note": 68,
      "start": 17.1739,
      "duration": 0.2035,
      "velocity": 120,
      "chip": "ym2612"
    },
    {
      "channel": 3,
      "note": 78,
      "start": 17.1741,
      "duration": 0.0466,
      "velocity": 92,
      "chip": "ym2612"
    },
    {
      "channel": 5,
      "note": 102,
      "start": 17.1744,
      "duration": 0.0267,
      "velocity": 97,
      "chip": "ym2612"
    },
    {
      "channel": 3,
      "note": 78,
      "start": 17.2503,
      "duration": 0.0096,
      "velocity": 92,
      "chip": "ym2612"
    },
    {
      "channel": 3,
      "note": 74,
      "start": 17.2894,
      "duration": 0.0488,
      "velocity": 92,
      "chip": "ym2612"
    },
    {
      "channel": 5,
      "note": 102,
      "start": 17.2898,
      "duration": 0.0288,
      "velocity": 97,
      "chip": "ym2612"
    },
    {
      "channel": 3,
      "note": 74,
      "start": 17.3678,
      "duration": 0.0096,
      "velocity": 92,
      "chip": "ym2612"
    },
    {
      "channel": 0,
      "note": 48,
      "start": 17.4084,
      "duration": 0.2333,
      "velocity": 127,
      "chip": "ym2612"
    },
    {
      "channel": 1,
      "note": 47,
      "start": 17.4086,
      "duration": 0.194,
      "velocity": 104,
      "chip": "ym2612"
    },
    {
      "channel": 2,
      "note": 69,
      "start": 17.4089,
      "duration": 0.2036,
      "velocity": 120,
      "chip": "ym2612"
    },
    {
      "channel": 3,
      "note": 71,
      "start": 17.4091,
      "duration": 0.0467,
      "velocity": 92,
      "chip": "ym2612"
    },
    {
      "channel": 4,
      "note": 78,
      "start": 17.4094,
      "duration": 0.0856,
      "velocity": 100,
      "chip": "ym2612"
    },
    {
      "channel": 5,
      "note": 102,
      "start": 17.4098,
      "duration": 0.144,
      "velocity": 97,
      "chip": "ym2612"
    },
    {
      "channel": 3,
      "note": 71,
      "start": 17.4856,
      "duration": 0.0093,
      "velocity": 92,
      "chip": "ym2612"
    },
    {
      "channel": 3,
      "note": 74,
      "start": 17.5245,
      "duration": 0.0488,
      "velocity": 92,
      "chip": "ym2612"
    },
    {
      "channel": 4,
      "note": 80,
      "start": 17.5248,
      "duration": 0.0878,
      "velocity": 100,
      "chip": "ym2612"
    },
    {
      "channel": 3,
      "note": 74,
      "start": 17.6029,
      "duration": 0.0096,
      "velocity": 92,
      "chip": "ym2612"
    },
    {
      "channel": 0,
      "note": 66,
      "start": 17.6434,
      "duration": 0.2333,
      "velocity": 127,
      "chip": "ym2612"
    },
    {
      "channel": 1,
      "note": 47,
      "start": 17.6437,
      "duration": 0.1939,
      "velocity": 104,
      "chip": "ym2612"
    },
    {
      "channel": 2,
      "note": 73,
      "start": 17.6439,
      "duration": 0.2035,
      "velocity": 120,
      "chip": "ym2612"
    },
    {
      "channel": 3,
      "note": 78,
      "start": 17.6441,
      "duration": 0.0466,
      "velocity": 92,
      "chip": "ym2612"
    },
    {
      "channel": 4,
      "note": 81,
      "start": 17.6444,
      "duration": 0.0855,
      "velocity": 100,
      "chip": "ym2612"
    },
    {
      "channel": 5,
      "note": 90,
      "start": 17.6448,
      "duration": 0.0263,
      "velocity": 97,
      "chip": "ym2612"
    },
    {
      "channel": 3,
      "note": 78,
      "start": 17.7203,
      "duration": 0.0096,
      "velocity": 92,
      "chip": "ym2612"
    },
    {
      "channel": 3,
      "note": 74,
      "start": 17.7595,
      "duration": 0.0487,
      "velocity": 92,
      "chip": "ym2612"
    },
    {
      "channel": 4,
      "note": 83,
      "start": 17.7598,
      "duration": 0.0877,
      "velocity": 100,
      "chip": "ym2612"
    },
    {
      "channel": 5,
      "note": 90,
      "start": 17.7601,
      "duration": 0.0285,
      "velocity": 97,
      "chip": "ym2612"
    },
    {
      "channel": 3,
      "note": 74,
      "start": 17.8378,
      "duration": 0.0096,
      "velocity": 92,
      "chip": "ym2612"
    },
    {
      "channel": 0,
      "note": 32,
      "start": 17.8784,
      "duration": 0.1158,
      "velocity": 107,
      "chip": "ym2612"
    },
    {
      "channel": 1,
      "note": 49,
      "start": 17.8786,
      "duration": 0.1939,
      "velocity": 104,
      "chip": "ym2612"
    },
    {
      "channel": 2,
      "note": 71,
      "start": 17.8789,
      "duration": 0.4385,
      "velocity": 120,
      "chip": "ym2612"
    },
    {
      "channel": 3,
      "note": 73,
      "start": 17.8792,
      "duration": 0.0466,
      "velocity": 92,
      "chip": "ym2612"
    },
    {
      "channel": 4,
      "note": 76,
      "start": 17.8794,
      "duration": 0.4381,
      "velocity": 100,
      "chip": "ym2612"
    },
    {
      "channel": 5,
      "note": 102,
      "start": 17.8798,
      "duration": 0.0265,
      "velocity": 97,
      "chip": "ym2612"
    },
    {
      "channel": 3,
      "note": 73,
      "start": 17.9556,
      "duration": 0.0093,
      "velocity": 92,
      "chip": "ym2612"
    },
    {
      "channel": 0,
      "note": 75,
      "start": 17.9961,
      "duration": 0.1156,
      "velocity": 127,
      "chip": "ym2612"
    },
    {
      "channel": 3,
      "note": 76,
      "start": 17.9964,
      "duration": 0.0468,
      "velocity": 92,
      "chip": "ym2612"
    },
    {
      "channel": 5,
      "note": 102,
      "start": 17.9968,
      "duration": 0.0269,
      "velocity": 97,
      "chip": "ym2612"
    },
    {
      "channel": 3,
      "note": 76,
      "start": 18.0728,
      "duration": 0.0096,
      "velocity": 92,
      "chip": "ym2612"
    },
    {
      "channel": 0,
      "note": 66,
      "start": 18.1134,
      "duration": 0.2334,
      "velocity": 127,
      "chip": "ym2612"
    },
    {
      "channel": 1,
      "note": 49,
      "start": 18.1137,
      "duration": 0.1939,
      "velocity": 104,
      "chip": "ym2612"
    },
    {
      "channel": 3,
      "note": 80,
      "start": 18.1139,
      "duration": 0.0468,
      "velocity": 92,
      "chip": "ym2612"
    },
    {
      "channel": 5,
      "note": 102,
      "start": 18.1142,
      "duration": 0.1444,
      "velocity": 97,
      "chip": "ym2612"
    },
    {
      "channel": 3,
      "note": 80,
      "start": 18.1903,
      "duration": 0.0096,
      "velocity": 92,
      "chip": "ym2612"
    },
    {
      "channel": 3,
      "note": 76,
      "start": 18.2295,
      "duration": 0.0488,
      "velocity": 92,
      "chip": "ym2612"
    },
    {
      "channel": 3,
      "note": 76,
      "start": 18.3078,
      "duration": 0.0096,
      "velocity": 92,
      "chip": "ym2612"
    },
    {
      "channel": 0,
      "note": 48,
      "start": 18.3484,
      "duration": 0.2334,
      "velocity": 127,
      "chip": "ym2612"
    },
    {
      "channel": 1,
      "note": 49,
      "start": 18.3487,
      "duration": 0.1941,
      "velocity": 104,
      "chip": "ym2612"
    },
    {
      "channel": 2,
      "note": 64,
      "start": 18.3489,
      "duration": 0.4385,
      "velocity": 120,
      "chip": "ym2612"
    },
    {
      "channel": 3,
      "note": 73,
      "start": 18.3492,
      "duration": 0.0467,
      "velocity": 92,
      "chip": "ym2612"
    },
    {
      "channel": 4,
      "note": 80,
      "start": 18.3495,
      "duration": 0.4381,
      "velocity": 100,
      "chip": "ym2612"
    },
    {
      "channel": 5,
      "note": 90,
      "start": 18.3498,
      "duration": 0.0265,
      "velocity": 97,
      "chip": "ym2612"
    },
    {
      "channel": 3,
      "note": 73,
      "start": 18.4256,
      "duration": 0.0093,
      "velocity": 92,
      "chip": "ym2612"
    },
    {
      "channel": 3,
      "note": 76,
      "start": 18.4646,
      "duration": 0.0488,
      "velocity": 92,
      "chip": "ym2612"
    },
    {
      "channel": 5,
      "note": 90,
      "start": 18.4649,
      "duration": 0.1462,
      "velocity": 97,
      "chip": "ym2612"
    },
    {
      "channel": 3,
      "note": 76,
      "start": 18.543,
      "duration": 0.0095,
      "velocity": 92,
      "chip": "ym2612"
    },
    {
      "channel": 0,
      "note": 66,
      "start": 18.5834,
      "duration": 0.2333,
      "velocity": 127,
      "chip": "ym2612"
    },
    {
      "channel": 1,
      "note": 49,
      "start": 18.5837,
      "duration": 0.1939,
      "velocity": 104,
      "chip": "ym2612"
    },
    {
      "channel": 3,
      "note": 80,
      "start": 18.5839,
      "duration": 0.0468,
      "velocity": 92,
      "chip": "ym2612"
    },
    {
      "channel": 3,
      "note": 80,
      "start": 18.6603,
      "duration": 0.0096,
      "velocity": 92,
      "chip": "ym2612"
    },
    {
      "channel": 3,
      "note": 76,
      "start": 18.6995,
      "duration": 0.0488,
      "velocity": 92,
      "chip": "ym2612"
    },
    {
      "channel": 5,
      "note": 90,
      "start": 18.6998,
      "duration": 0.0288,
      "velocity": 97,
      "chip": "ym2612"
    },
    {
      "channel": 3,
      "note": 76,
      "start": 18.7779,
      "duration": 0.0096,
      "velocity": 92,
      "chip": "ym2612"
    },
    {
      "channel": 0,
      "note": 32,
      "start": 18.8184,
      "duration": 0.1158,
      "velocity": 107,
      "chip": "ym2612"
    },
    {
      "channel": 1,
      "note": 50,
      "start": 18.8187,
      "duration": 0.1939,
      "velocity": 104,
      "chip": "ym2612"
    },
    {
      "channel": 2,
      "note": 73,
      "start": 18.8189,
      "duration": 0.6736,
      "velocity": 120,
      "chip": "ym2612"
    },
    {
      "channel": 3,
      "note": 74,
      "start": 18.8192,
      "duration": 0.0467,
      "velocity": 92,
      "chip": "ym2612"
    },
    {
      "channel": 5,
      "note": 90,
      "start": 18.8196,
      "duration": 0.0266,
      "velocity": 97,
      "chip": "ym2612"
    },
    {
      "channel": 3,
      "note": 74,
      "start": 18.8957,
      "duration": 0.0093,
      "velocity": 92,
      "chip": "ym2612"
    },
    {
      "channel": 0,
      "note": 75,
      "start": 18.9362,
      "duration": 0.1156,
      "velocity": 127,
      "chip": "ym2612"
    },
    {
      "channel": 3,
      "note": 78,
      "start": 18.9364,
      "duration": 0.0468,
      "velocity": 92,
      "chip": "ym2612"
    },
    {
      "channel": 5,
      "note": 90,
      "start": 18.9368,
      "duration": 0.0269,
      "velocity": 97,
      "chip": "ym2612"
    },
    {
      "channel": 3,
      "note": 78,
      "start": 19.0129,
      "duration": 0.0096,
      "velocity": 92,
      "chip": "ym2612"
    },
    {
      "channel": 0,
      "note": 66,
      "start": 19.0534,
      "duration": 0.2334,
      "velocity": 127,
      "chip": "ym2612"
    },
    {
      "channel": 1,
      "note": 50,
      "start": 19.0537,
      "duration": 0.1939,
      "velocity": 104,
      "chip": "ym2612"
    },
    {
      "channel": 3,
      "note": 81,
      "start": 19.0539,
      "duration": 0.0468,
      "velocity": 92,
      "chip": "ym2612"
    },
    {
      "channel": 5,
      "note": 102,
      "start": 19.0543,
      "duration": 0.0269,
      "velocity": 97,
      "chip": "ym2612"
    },
    {
      "channel": 3,
      "note": 81,
      "start": 19.1303,
      "duration": 0.0096,
      "velocity": 92,
      "chip": "ym2612"
    },
    {
      "channel": 3,
      "note": 78,
      "start": 19.1695,
      "duration": 0.0488,
      "velocity": 92,
      "chip": "ym2612"
    },
    {
      "channel": 5,
      "note": 102,
      "start": 19.1698,
      "duration": 0.0288,
      "velocity": 97,
      "chip": "ym2612"
    },
    {
      "channel": 3,
      "note": 78,
      "start": 19.2479,
      "duration": 0.0096,
      "velocity": 92,
      "chip": "ym2612"
    },
    {
      "channel": 0,
      "note": 48,
      "start": 19.2885,
      "duration": 0.2333,
      "velocity": 127,
      "chip": "ym2612"
    },
    {
      "channel": 1,
      "note": 50,
      "start": 19.2887,
      "duration": 0.194,
      "velocity": 104,
      "chip": "ym2612"
    },
    {
      "channel": 3,
      "note": 74,
      "start": 19.289,
      "duration": 0.0469,
      "velocity": 92,
      "chip": "ym2612"
    },
    {
      "channel": 4,
      "note": 78,
      "start": 19.2892,
      "duration": 0.0859,
      "velocity": 100,
      "chip": "ym2612"
    },
    {
      "channel": 5,
      "note": 102,
      "start": 19.2896,
      "duration": 0.1442,
      "velocity": 97,
      "chip": "ym2612"
    },
    {
      "channel": 3,
      "note": 74,
      "start": 19.3657,
      "duration": 0.0093,
      "velocity": 92,
      "chip": "ym2612"
    },
    {
      "channel": 3,
      "note": 78,
      "start": 19.4046,
      "duration": 0.0488,
      "velocity": 92,
      "chip": "ym2612"
    },
    {
      "channel": 4,
      "note": 80,
      "start": 19.4049,
      "duration": 0.0878,
      "velocity": 100,
      "chip": "ym2612"
    },
    {
      "channel": 3,
      "note": 78,
      "start": 19.483,
      "duration": 0.0097,
      "velocity": 92,
      "chip": "ym2612"
    },
    {
      "channel": 0,
      "note": 66,
      "start": 19.5234,
      "duration": 0.2334,
      "velocity": 127,
      "chip": "ym2612"
    },
    {
      "channel": 1,
      "note": 50,
      "start": 19.5237,
      "duration": 0.1939,
      "velocity": 104,
      "chip": "ym2612"
    },
    {
      "channel": 2,
      "note": 71,
      "start": 19.5239,
      "duration": 0.2035,
      "velocity": 120,
      "chip": "ym2612"
    },
    {
      "channel": 3,
      "note": 81,
      "start": 19.5242,
      "duration": 0.0466,
      "velocity": 92,
      "chip": "ym2612"
    },
    {
      "channel": 4,
      "note": 81,
      "start": 19.5245,
      "duration": 0.0855,
      "velocity": 100,
      "chip": "ym2612"
    },
    {
      "channel": 5,
      "note": 90,
      "start": 19.5248,
      "duration": 0.0264,
      "velocity": 97,
      "chip": "ym2612"
    },
    {
      "channel": 3,
      "note": 81,
      "start": 19.6003,
      "duration": 0.0096,
      "velocity": 92,
      "chip": "ym2612"
    },
    {
      "channel": 3,
      "note": 78,
      "start": 19.6395,
      "duration": 0.0488,
      "velocity": 92,
      "chip": "ym2612"
    },
    {
      "channel": 5,
      "note": 90,
      "start": 19.6399,
      "duration": 0.0288,
      "velocity": 97,
      "chip": "ym2612"
    },
    {
      "channel": 3,
      "note": 78,
      "start": 19.7179,
      "duration": 0.0096,
      "velocity": 92,
      "chip": "ym2612"
    },
    {
      "channel": 0,
      "note": 32,
      "start": 19.7585,
      "duration": 0.1159,
      "velocity": 107,
      "chip": "ym2612"
    },
    {
      "channel": 1,
      "note": 49,
      "start": 19.7587,
      "duration": 0.1939,
      "velocity": 104,
      "chip": "ym2612"
    },
    {
      "channel": 2,
      "note": 76,
      "start": 19.759,
      "duration": 0.2035,
      "velocity": 120,
      "chip": "ym2612"
    },
    {
      "channel": 3,
      "note": 73,
      "start": 19.7592,
      "duration": 0.0467,
      "velocity": 92,
      "chip": "ym2612"
    },
    {
      "channel": 4,
      "note": 80,
      "start": 19.7595,
      "duration": 0.4381,
      "velocity": 100,
      "chip": "ym2612"
    },
    {
      "channel": 5,
      "note": 102,
      "start": 19.7598,
      "duration": 0.0265,
      "velocity": 97,
      "chip": "ym2612"
    },
    {
      "channel": 3,
      "note": 73,
      "start": 19.8357,
      "duration": 0.0093,
      "velocity": 92,
      "chip": "ym2612"
    },
    {
      "channel": 0,
      "note": 75,
      "start": 19.8763,
      "duration": 0.1156,
      "velocity": 127,
      "chip": "ym2612"
    },
    {
      "channel": 3,
      "note": 76,
      "start": 19.8765,
      "duration": 0.0468,
      "velocity": 92,
      "chip": "ym2612"
    },
    {
      "channel": 5,
      "note": 102,
      "start": 19.8769,
      "duration": 0.0268,
      "velocity": 97,
      "chip": "ym2612"
    },
    {
      "channel": 3,
      "note": 76,
      "start": 19.9529,
      "duration": 0.0096,
      "velocity": 92,
      "chip": "ym2612"
    },
    {
      "channel": 0,
      "note": 66,
      "start": 19.9935,
      "duration": 0.2333,
      "velocity": 127,
      "chip": "ym2612"
    },
    {
      "channel": 1,
      "note": 49,
      "start": 19.9937,
      "duration": 0.1939,
      "velocity": 104,
      "chip": "ym2612"
    },
    {
      "channel": 2,
      "note": 73,
      "start": 19.994,
      "duration": 0.2035,
      "velocity": 120,
      "chip": "ym2612"
    },
    {
      "channel": 3,
      "note": 80,
      "start": 19.9942,
      "duration": 0.0466,
      "velocity": 92,
      "chip": "ym2612"
    },
    {
      "channel": 5,
      "note": 102,
      "start": 19.9946,
      "duration": 0.1441,
      "velocity": 97,
      "chip": "ym2612"
    },
    {
      "channel": 3,
      "note": 80,
      "start": 20.0704,
      "duration": 0.0096,
      "velocity": 92,
      "chip": "ym2612"
    },
    {
      "channel": 3,
      "note": 76,
      "start": 20.1096,
      "duration": 0.0487,
      "velocity": 92,
      "chip": "ym2612"
    },
    {
      "channel": 3,
      "note": 76,
      "start": 20.1879,
      "duration": 0.0096,
      "velocity": 92,
      "chip": "ym2612"
    },
    {
      "channel": 0,
      "note": 48,
      "start": 20.2285,
      "duration": 0.2333,
      "velocity": 127,
      "chip": "ym2612"
    },
    {
      "channel": 1,
      "note": 49,
      "start": 20.2287,
      "duration": 0.194,
      "velocity": 104,
      "chip": "ym2612"
    },
    {
      "channel": 2,
      "note": 71,
      "start": 20.229,
      "duration": 0.2036,
      "velocity": 120,
      "chip": "ym2612"
    },
    {
      "channel": 3,
      "note": 73,
      "start": 20.2292,
      "duration": 0.0467,
      "velocity": 92,
      "chip": "ym2612"
    },
    {
      "channel": 4,
      "note": 76,
      "start": 20.2295,
      "duration": 0.4381,
      "velocity": 100,
      "chip": "ym2612"
    },
    {
      "channel": 5,
      "note": 90,
      "start": 20.2298,
      "duration": 0.0265,
      "velocity": 97,
      "chip": "ym2612"
    },
    {
      "channel": 3,
      "note": 73,
      "start": 20.3057,
      "duration": 0.0093,
      "velocity": 92,
      "chip": "ym2612"
    },
    {
      "channel": 3,
      "note": 76,
      "start": 20.3446,
      "duration": 0.0488,
      "velocity": 92,
      "chip": "ym2612"
    },
    {
      "channel": 5,
      "note": 90,
      "start": 20.345,
      "duration": 0.1462,
      "velocity": 97,
      "chip": "ym2612"
    },
    {
      "channel": 3,
      "note": 76,
      "start": 20.423,
      "duration": 0.0096,
      "velocity": 92,
      "chip": "ym2612"
    },
    {
      "channel": 0,
      "note": 66,
      "start": 20.4635,
      "duration": 0.2334,
      "velocity": 127,
      "chip": "ym2612"
    },
    {
      "channel": 1,
      "note": 49,
      "start": 20.4637,
      "duration": 0.1939,
      "velocity": 104,
      "chip": "ym2612"
    },
    {
      "channel": 2,
      "note": 76,
      "start": 20.464,
      "duration": 0.2035,
      "velocity": 120,
      "chip": "ym2612"
    },
    {
      "channel": 3,
      "note": 80,
      "start": 20.4642,
      "duration": 0.0466,
      "velocity": 92,
      "chip": "ym2612"
    },
    {
      "channel": 3,
      "note": 80,
      "start": 20.5404,
      "duration": 0.0096,
      "velocity": 92,
      "chip": "ym2612"
    },
    {
      "channel": 3,
      "note": 76,
      "start": 20.5795,
      "duration": 0.0488,
      "velocity": 92,
      "chip": "ym2612"
    },
    {
      "channel": 5,
      "note": 90,
      "start": 20.5799,
      "duration": 0.0288,
      "velocity": 97,
      "chip": "ym2612"
    },
    {
      "channel": 3,
      "note": 76,
      "start": 20.6579,
      "duration": 0.0096,
      "velocity": 92,
      "chip": "ym2612"
    },
    {
      "channel": 0,
      "note": 32,
      "start": 20.6985,
      "duration": 0.2333,
      "velocity": 107,
      "chip": "ym2612"
    },
    {
      "channel": 1,
      "note": 57,
      "start": 20.6988,
      "duration": 0.1941,
      "velocity": 104,
      "chip": "ym2612"
    },
    {
      "channel": 2,
      "note": 73,
      "start": 20.699,
      "duration": 0.9087,
      "velocity": 120,
      "chip": "ym2612"
    },
    {
      "channel": 3,
      "note": 73,
      "start": 20.6993,
      "duration": 0.0466,
      "velocity": 92,
      "chip": "ym2612"
    },
    {
      "channel": 5,
      "note": 93,
      "start": 20.7011,
      "duration": 0.0252,
      "velocity": 97,
      "chip": "ym2612"
    },
    {
      "channel": 3,
      "note": 73,
      "start": 20.7757,
      "duration": 0.0093,
      "velocity": 92,
      "chip": "ym2612"
    },
    {
      "channel": 3,
      "note": 76,
      "start": 20.8146,
      "duration": 0.0488,
      "velocity": 92,
      "chip": "ym2612"
    },
    {
      "channel": 5,
      "note": 93,
      "start": 20.815,
      "duration": 0.0288,
      "velocity": 97,
      "chip": "ym2612"
    },
    {
      "channel": 3,
      "note": 76,
      "start": 20.8931,
      "duration": 0.0095,
      "velocity": 92,
      "chip": "ym2612"
    },
    {
      "channel": 0,
      "note": 52,
      "start": 20.9335,
      "duration": 0.1158,
      "velocity": 127,
      "chip": "ym2612"
    },
    {
      "channel": 1,
      "note": 57,
      "start": 20.9337,
      "duration": 0.194,
      "velocity": 104,
      "chip": "ym2612"
    },
    {
      "channel": 3,
      "note": 81,
      "start": 20.934,
      "duration": 0.0469,
      "velocity": 92,
      "chip": "ym2612"
    },
    {
      "channel": 5,
      "note": 105,
      "start": 20.9343,
      "duration": 0.027,
      "velocity": 97,
      "chip": "ym2612"
    },
    {
      "channel": 3,
      "note": 81,
      "start": 21.0105,
      "duration": 0.0096,
      "velocity": 92,
      "chip": "ym2612"
    },
    {
      "channel": 0,
      "note": 52,
      "start": 21.0496,
      "duration": 0.2348,
      "velocity": 127,
      "chip": "ym2612"
    },
    {
      "channel": 3,
      "note": 76,
      "start": 21.0498,
      "duration": 0.0486,
      "velocity": 92,
      "chip": "ym2612"
    },
    {
      "channel": 5,
      "note": 105,
      "start": 21.0502,
      "duration": 0.0287,
      "velocity": 97,
      "chip": "ym2612"
    },
    {
      "channel": 3,
      "note": 76,
      "start": 21.128,
      "duration": 0.0096,
      "velocity": 92,
      "chip": "ym2612"
    },
    {
      "channel": 1,
      "note": 57,
      "start": 21.1671,
      "duration": 0.1956,
      "velocity": 104,
      "chip": "ym2612"
    },
    {
      "channel": 3,
      "note": 73,
      "start": 21.1674,
      "duration": 0.0485,
      "velocity": 92,
      "chip": "ym2612"
    },
    {
      "channel": 4,
      "note": 78,
      "start": 21.1676,
      "duration": 0.0875,
      "velocity": 100,
      "chip": "ym2612"
    },
    {
      "channel": 5,
      "note": 105,
      "start": 21.168,
      "duration": 0.1458,
      "velocity": 97,
      "chip": "ym2612"
    },
    {
      "channel": 3,
      "note": 73,
      "start": 21.2458,
      "duration": 0.0093,
      "velocity": 92,
      "chip": "ym2612"
    },
    {
      "channel": 0,
      "note": 48,
      "start": 21.2846,
      "duration": 0.1173,
      "velocity": 127,
      "chip": "ym2612"
    },
    {
      "channel": 3,
      "note": 76,
      "start": 21.2849,
      "duration": 0.0486,
      "velocity": 92,
      "chip": "ym2612"
    },
    {
      "channel": 4,
      "note": 80,
      "start": 21.2851,
      "duration": 0.0876,
      "velocity": 100,
      "chip": "ym2612"
    },
    {
      "channel": 3,
      "note": 76,
      "start": 21.363,
      "duration": 0.0096,
      "velocity": 92,
      "chip": "ym2612"
    },
    {
      "channel": 0,
      "note": 48,
      "start": 21.4021,
      "duration": 0.2348,
      "velocity": 127,
      "chip": "ym2612"
    },
    {
      "channel": 1,
      "note": 57,
      "start": 21.4023,
      "duration": 0.1955,
      "velocity": 104,
      "chip": "ym2612"
    },
    {
      "channel": 3,
      "note": 81,
      "start": 21.4026,
      "duration": 0.0483,
      "velocity": 92,
      "chip": "ym2612"
    },
    {
      "channel": 4,
      "note": 81,
      "start": 21.4029,
      "duration": 0.0873,
      "velocity": 100,
      "chip": "ym2612"
    },
    {
      "channel": 5,
      "note": 93,
      "start": 21.4032,
      "duration": 0.0281,
      "velocity": 97,
      "chip": "ym2612"
    },
    {
      "channel": 3,
      "note": 81,
      "start": 21.4805,
      "duration": 0.0096,
      "velocity": 92,
      "chip": "ym2612"
    },
    {
      "channel": 3,
      "note": 76,
      "start": 21.5197,
      "duration": 0.0488,
      "velocity": 92,
      "chip": "ym2612"
    },
    {
      "channel": 4,
      "note": 83,
      "start": 21.52,
      "duration": 0.0878,
      "velocity": 100,
      "chip": "ym2612"
    },
    {
      "channel": 5,
      "note": 93,
      "start": 21.5203,
      "duration": 0.0286,
      "velocity": 97,
      "chip": "ym2612"
    },
    {
      "channel": 3,
      "note": 76,
      "start": 21.598,
      "duration": 0.0096,
      "velocity": 92,
      "chip": "ym2612"
    },
    {
      "channel": 0,
      "note": 45,
      "start": 21.6371,
      "duration": 0.1173,
      "velocity": 127,
      "chip": "ym2612"
    },
    {
      "channel": 1,
      "note": 57,
      "start": 21.6373,
      "duration": 0.1955,
      "velocity": 104,
      "chip": "ym2612"
    },
    {
      "channel": 3,
      "note": 73,
      "start": 21.6376,
      "duration": 0.0483,
      "velocity": 92,
      "chip": "ym2612"
    },
    {
      "channel": 4,
      "note": 85,
      "start": 21.6379,
      "duration": 0.9098,
      "velocity": 100,
      "chip": "ym2612"
    },
    {
      "channel": 5,
      "note": 105,
      "start": 21.6383,
      "duration": 0.0281,
      "velocity": 97,
      "chip": "ym2612"
    },
    {
      "channel": 3,
      "note": 73,
      "start": 21.7158,
      "duration": 0.0093,
      "velocity": 92,
      "chip": "ym2612"
    },
    {
      "channel": 0,
      "note": 45,
      "start": 21.7546,
      "duration": 0.2348,
      "velocity": 127,
      "chip": "ym2612"
    },
    {
      "channel": 3,
      "note": 76,
      "start": 21.7549,
      "duration": 0.0486,
      "velocity": 92,
      "chip": "ym2612"
    },
    {
      "channel": 5,
      "note": 105,
      "start": 21.7552,
      "duration": 0.0286,
      "velocity": 97,
      "chip": "ym2612"
    },
    {
      "channel": 3,
      "note": 76,
      "start": 21.8331,
      "duration": 0.0096,
      "velocity": 92,
      "chip": "ym2612"
    },
    {
      "channel": 1,
      "note": 57,
      "start": 21.8722,
      "duration": 0.1956,
      "velocity": 104,
      "chip": "ym2612"
    },
    {
      "channel": 3,
      "note": 81,
      "start": 21.8724,
      "duration": 0.0485,
      "velocity": 92,
      "chip": "ym2612"
    },
    {
      "channel": 5,
      "note": 105,
      "start": 21.8728,
      "duration": 0.1461,
      "velocity": 97,
      "chip": "ym2612"
    },
    {
      "channel": 3,
      "note": 81,
      "start": 21.9505,
      "duration": 0.0096,
      "velocity": 92,
      "chip": "ym2612"
    },
    {
      "channel": 0,
      "note": 41,
      "start": 21.9896,
      "duration": 0.1173,
      "velocity": 127,
      "chip": "ym2612"
    },
    {
      "channel": 3,
      "note": 76,
      "start": 21.9899,
      "duration": 0.0486,
      "velocity": 92,
      "chip": "ym2612"
    },
    {
      "channel": 3,
      "note": 76,
      "start": 22.0681,
      "duration": 0.0096,
      "velocity": 92,
      "chip": "ym2612"
    },
    {
      "channel": 0,
      "note": 41,
      "start": 22.1071,
      "duration": 0.2348,
      "velocity": 127,
      "chip": "ym2612"
    },
    {
      "channel": 1,
      "note": 57,
      "start": 22.1074,
      "duration": 0.1954,
      "velocity": 104,
      "chip": "ym2612"
    },
    {
      "channel": 2,
      "note": 66,
      "start": 22.1076,
      "duration": 0.0875,
      "velocity": 120,
      "chip": "ym2612"
    },
    {
      "channel": 3,
      "note": 73,
      "start": 22.1078,
      "duration": 0.0481,
      "velocity": 92,
      "chip": "ym2612"
    },
    {
      "channel": 5,
      "note": 93,
      "start": 22.1082,
      "duration": 0.0282,
      "velocity": 97,
      "chip": "ym2612"
    },
    {
      "channel": 3,
      "note": 73,
      "start": 22.1858,
      "duration": 0.0094,
      "velocity": 92,
      "chip": "ym2612"
    },
    {
      "channel": 2,
      "note": 68,
      "start": 22.2247,
      "duration": 0.088,
      "velocity": 120,
      "chip": "ym2612"
    },
    {
      "channel": 3,
      "note": 76,
      "start": 22.2249,
      "duration": 0.0485,
      "velocity": 92,
      "chip": "ym2612"
    },
    {
      "channel": 5,
      "note": 93,
      "start": 22.2253,
      "duration": 0.1461,
      "velocity": 97,
      "chip": "ym2612"
    },
    {
      "channel": 3,
      "note": 76,
      "start": 22.3031,
      "duration": 0.0096,
      "velocity": 92,
      "chip": "ym2612"
    },
    {
      "channel": 0,
      "note": 48,
      "start": 22.3421,
      "duration": 0.1173,
      "velocity": 127,
      "chip": "ym2612"
    },
    {
      "channel": 1,
      "note": 57,
      "start": 22.3424,
      "duration": 0.1955,
      "velocity": 104,
      "chip": "ym2612"
    },
    {
      "channel": 2,
      "note": 69,
      "start": 22.3426,
      "duration": 0.0876,
      "velocity": 120,
      "chip": "ym2612"
    },
    {
      "channel": 3,
      "note": 81,
      "start": 22.3429,
      "duration": 0.0481,
      "velocity": 92,
      "chip": "ym2612"
    },
    {
      "channel": 3,
      "note": 81,
      "start": 22.4205,
      "duration": 0.0097,
      "velocity": 92,
      "chip": "ym2612"
    },
    {
      "channel": 0,
      "note": 48,
      "start": 22.4596,
      "duration": 0.1173,
      "velocity": 127,
      "chip": "ym2612"
    },
    {
      "channel": 2,
      "note": 71,
      "start": 22.4599,
      "duration": 0.0878,
      "velocity": 120,
      "chip": "ym2612"
    },
    {
      "channel": 3,
      "note": 76,
      "start": 22.4601,
      "duration": 0.0483,
      "velocity": 92,
      "chip": "ym2612"
    },
    {
      "channel": 5,
      "note": 93,
      "start": 22.4605,
      "duration": 0.0284,
      "velocity": 97,
      "chip": "ym2612"
    },
    {
      "channel": 3,
      "note": 76,
      "start": 22.5381,
      "duration": 0.0096,
      "velocity": 92,
      "chip": "ym2612"
    },
    {
      "channel": 0,
      "note": 32,
      "start": 22.5786,
      "duration": 0.1158,
      "velocity": 107,
      "chip": "ym2612"
    },
    {
      "channel": 1,
      "note": 50,
      "start": 22.5788,
      "duration": 0.1939,
      "velocity": 104,
      "chip": "ym2612"
    },
    {
      "channel": 2,
      "note": 73,
      "start": 22.5791,
      "duration": 0.6736,
      "velocity": 120,
      "chip": "ym2612"
    },
    {
      "channel": 3,
      "note": 74,
      "start": 22.5808,
      "duration": 0.0452,
      "velocity": 92,
      "chip": "ym2612"
    },
    {
      "channel": 5,
      "note": 90,
      "start": 22.5827,
      "duration": 0.0237,
      "velocity": 97,
      "chip": "ym2612"
    },
    {
      "channel": 3,
      "note": 74,
      "start": 22.6558,
      "duration": 0.0094,
      "velocity": 92,
      "chip": "ym2612"
    },
    {
      "channel": 0,
      "note": 75,
      "start": 22.6963,
      "duration": 0.1156,
      "velocity": 127,
      "chip": "ym2612"
    },
    {
      "channel": 3,
      "note": 78,
      "start": 22.6966,
      "duration": 0.0468,
      "velocity": 92,
      "chip": "ym2612"
    },
    {
      "channel": 5,
      "note": 90,
      "start": 22.6969,
      "duration": 0.0269,
      "velocity": 97,
      "chip": "ym2612"
    },
    {
      "channel": 3,
      "note": 78,
      "start": 22.773,
      "duration": 0.0096,
      "velocity": 92,
      "chip": "ym2612"
    },
    {
      "channel": 0,
      "note": 66,
      "start": 22.8136,
      "duration": 0.2334,
      "velocity": 127,
      "chip": "ym2612"
    },
    {
      "channel": 1,
      "note": 50,
      "start": 22.8138,
      "duration": 0.1939,
      "velocity": 104,
      "chip": "ym2612"
    },
    {
      "channel": 3,
      "note": 81,
      "start": 22.8141,
      "duration": 0.0468,
      "velocity": 92,
      "chip": "ym2612"
    },
    {
      "channel": 5,
      "note": 102,
      "start": 22.8144,
      "duration": 0.0269,
      "velocity": 97,
      "chip": "ym2612"
    },
    {
      "channel": 3,
      "note": 81,
      "start": 22.8905,
      "duration": 0.0096,
      "velocity": 92,
      "chip": "ym2612"
    },
    {
      "channel": 3,
      "note": 78,
      "start": 22.9296,
      "duration": 0.0488,
      "velocity": 92,
      "chip": "ym2612"
    },
    {
      "channel": 5,
      "note": 102,
      "start": 22.93,
      "duration": 0.0289,
      "velocity": 97,
      "chip": "ym2612"
    },
    {
      "channel": 3,
      "note": 78,
      "start": 23.008,
      "duration": 0.0096,
      "velocity": 92,
      "chip": "ym2612"
    },
    {
      "channel": 0,
      "note": 48,
      "start": 23.0486,
      "duration": 0.2334,
      "velocity": 127,
      "chip": "ym2612"
    },
    {
      "channel": 1,
      "note": 50,
      "start": 23.0488,
      "duration": 0.194,
      "velocity": 104,
      "chip": "ym2612"
    },
    {
      "channel": 3,
      "note": 74,
      "start": 23.0491,
      "duration": 0.0469,
      "velocity": 92,
      "chip": "ym2612"
    },
    {
      "channel": 4,
      "note": 78,
      "start": 23.0493,
      "duration": 0.0859,
      "velocity": 100,
      "chip": "ym2612"
    },
    {
      "channel": 5,
      "note": 102,
      "start": 23.0497,
      "duration": 0.1442,
      "velocity": 97,
      "chip": "ym2612"
    },
    {
      "channel": 3,
      "note": 74,
      "start": 23.1258,
      "duration": 0.0093,
      "velocity": 92,
      "chip": "ym2612"
    },
    {
      "channel": 3,
      "note": 78,
      "start": 23.1647,
      "duration": 0.0488,
      "velocity": 92,
      "chip": "ym2612"
    },
    {
      "channel": 4,
      "note": 80,
      "start": 23.165,
      "duration": 0.0878,
      "velocity": 100,
      "chip": "ym2612"
    },
    {
      "channel": 3,
      "note": 78,
      "start": 23.2431,
      "duration": 0.0096,
      "velocity": 92,
      "chip": "ym2612"
    },
    {
      "channel": 0,
      "note": 66,
      "start": 23.2836,
      "duration": 0.2333,
      "velocity": 127,
      "chip": "ym2612"
    },
    {
      "channel": 1,
      "note": 50,
      "start": 23.2838,
      "duration": 0.1939,
      "velocity": 104,
      "chip": "ym2612"
    },
    {
      "channel": 2,
      "note": 71,
      "start": 23.2841,
      "duration": 0.2035,
      "velocity": 120,
      "chip": "ym2612"
    },
    {
      "channel": 3,
      "note": 81,
      "start": 23.2843,
      "duration": 0.0466,
      "velocity": 92,
      "chip": "ym2612"
    },
    {
      "channel": 4,
      "note": 81,
      "start": 23.2846,
      "duration": 0.0855,
      "velocity": 100,
      "chip": "ym2612"
    },
    {
      "channel": 5,
      "note": 90,
      "start": 23.2849,
      "duration": 0.0264,
      "velocity": 97,
      "chip": "ym2612"
    },
    {
      "channel": 3,
      "note": 81,
      "start": 23.3605,
      "duration": 0.0096,
      "velocity": 92,
      "chip": "ym2612"
    },
    {
      "channel": 3,
      "note": 78,
      "start": 23.3996,
      "duration": 0.0488,
      "velocity": 92,
      "chip": "ym2612"
    },
    {
      "channel": 5,
      "note": 90,
      "start": 23.4,
      "duration": 0.0288,
      "velocity": 97,
      "chip": "ym2612"
    },
    {
      "channel": 3,
      "note": 78,
      "start": 23.478,
      "duration": 0.0096,
      "velocity": 92,
      "chip": "ym2612"
    },
    {
      "channel": 0,
      "note": 32,
      "start": 23.5186,
      "duration": 0.1158,
      "velocity": 107,
      "chip": "ym2612"
    },
    {
      "channel": 1,
      "note": 49,
      "start": 23.5188,
      "duration": 0.1939,
      "velocity": 104,
      "chip": "ym2612"
    },
    {
      "channel": 2,
      "note": 76,
      "start": 23.5191,
      "duration": 0.2035,
      "velocity": 120,
      "chip": "ym2612"
    },
    {
      "channel": 3,
      "note": 73,
      "start": 23.5193,
      "duration": 0.0467,
      "velocity": 92,
      "chip": "ym2612"
    },
    {
      "channel": 4,
      "note": 80,
      "start": 23.5196,
      "duration": 0.4381,
      "velocity": 100,
      "chip": "ym2612"
    },
    {
      "channel": 5,
      "note": 102,
      "start": 23.5199,
      "duration": 0.0265,
      "velocity": 97,
      "chip": "ym2612"
    },
    {
      "channel": 3,
      "note": 73,
      "start": 23.5958,
      "duration": 0.0093,
      "velocity": 92,
      "chip": "ym2612"
    },
    {
      "channel": 0,
      "note": 75,
      "start": 23.6363,
      "duration": 0.1156,
      "velocity": 127,
      "chip": "ym2612"
    },
    {
      "channel": 3,
      "note": 76,
      "start": 23.6366,
      "duration": 0.0468,
      "velocity": 92,
      "chip": "ym2612"
    },
    {
      "channel": 5,
      "note": 102,
      "start": 23.637,
      "duration": 0.0268,
      "velocity": 97,
      "chip": "ym2612"
    },
    {
      "channel": 3,
      "note": 76,
      "start": 23.713,
      "duration": 0.0096,
      "velocity": 92,
      "chip": "ym2612"
    },
    {
      "channel": 0,
      "note": 66,
      "start": 23.7536,
      "duration": 0.2334,
      "velocity": 127,
      "chip": "ym2612"
    },
    {
      "channel": 1,
      "note": 49,
      "start": 23.7538,
      "duration": 0.1939,
      "velocity": 104,
      "chip": "ym2612"
    },
    {
      "channel": 2,
      "note": 73,
      "start": 23.7541,
      "duration": 0.2035,
      "velocity": 120,
      "chip": "ym2612"
    },
    {
      "channel": 3,
      "note": 80,
      "start": 23.7543,
      "duration": 0.0466,
      "velocity": 92,
      "chip": "ym2612"
    },
    {
      "channel": 5,
      "note": 102,
      "start": 23.7547,
      "duration": 0.1442,
      "velocity": 97,
      "chip": "ym2612"
    },
    {
      "channel": 3,
      "note": 80,
      "start": 23.8305,
      "duration": 0.0096,
      "velocity": 92,
      "chip": "ym2612"
    },
    {
      "channel": 3,
      "note": 76,
      "start": 23.8697,
      "duration": 0.0488,
      "velocity": 92,
      "chip": "ym2612"
    },
    {
      "channel": 3,
      "note": 76,
      "start": 23.948,
      "duration": 0.0096,
      "velocity": 92,
      "chip": "ym2612"
    },
    {
      "channel": 0,
      "note": 48,
      "start": 23.9886,
      "duration": 0.2333,
      "velocity": 127,
      "chip": "ym2612"
    },
    {
      "channel": 1,
      "note": 49,
      "start": 23.9888,
      "duration": 0.194,
      "velocity": 104,
      "chip": "ym2612"
    },
    {
      "channel": 2,
      "note": 71,
      "start": 23.9891,
      "duration": 0.2037,
      "velocity": 120,
      "chip": "ym2612"
    },
    {
      "channel": 3,
      "note": 73,
      "start": 23.9893,
      "duration": 0.0467,
      "velocity": 92,
      "chip": "ym2612"
    },
    {
      "channel": 4,
      "note": 76,
      "start": 23.9896,
      "duration": 0.4381,
      "velocity": 100,
      "chip": "ym2612"
    },
    {
      "channel": 5,
      "note": 90,
      "start": 23.99,
      "duration": 0.0265,
      "velocity": 97,
      "chip": "ym2612"
    },
    {
      "channel": 3,
      "note": 73,
      "start": 24.0659,
      "duration": 0.0093,
      "velocity": 92,
      "chip": "ym2612"
    },
    {
      "channel": 3,
      "note": 76,
      "start": 24.1048,
      "duration": 0.0488,
      "velocity": 92,
      "chip": "ym2612"
    },
    {
      "channel": 5,
      "note": 90,
      "start": 24.1051,
      "duration": 0.1462,
      "velocity": 97,
      "chip": "ym2612"
    },
    {
      "channel": 3,
      "note": 76,
      "start": 24.1832,
      "duration": 0.0097,
      "velocity": 92,
      "chip": "ym2612"
    },
    {
      "channel": 0,
      "note": 66,
      "start": 24.2236,
      "duration": 0.2334,
      "velocity": 127,
      "chip": "ym2612"
    },
    {
      "channel": 1,
      "note": 49,
      "start": 24.2239,
      "duration": 0.1939,
      "velocity": 104,
      "chip": "ym2612"
    },
    {
      "channel": 2,
      "note": 68,
      "start": 24.2241,
      "duration": 0.2035,
      "velocity": 120,
      "chip": "ym2612"
    },
    {
      "channel": 3,
      "note": 80,
      "start": 24.2244,
      "duration": 0.0466,
      "velocity": 92,
      "chip": "ym2612"
    },
    {
      "channel": 3,
      "note": 80,
      "start": 24.3005,
      "duration": 0.0096,
      "velocity": 92,
      "chip": "ym2612"
    },
    {
      "channel": 3,
      "note": 76,
      "start": 24.3397,
      "duration": 0.0488,
      "velocity": 92,
      "chip": "ym2612"
    },
    {
      "channel": 5,
      "note": 90,
      "start": 24.34,
      "duration": 0.0289,
      "velocity": 97,
      "chip": "ym2612"
    },
    {
      "channel": 3,
      "note": 76,
      "start": 24.418,
      "duration": 0.0096,
      "velocity": 92,
      "chip": "ym2612"
    },
    {
      "channel": 0,
      "note": 32,
      "start": 24.4586,
      "duration": 0.1158,
      "velocity": 107,
      "chip": "ym2612"
    },
    {
      "channel": 1,
      "note": 47,
      "start": 24.4589,
      "duration": 0.1939,
      "velocity": 104,
      "chip": "ym2612"
    },
    {
      "channel": 2,
      "note": 66,
      "start": 24.4591,
      "duration": 0.2035,
      "velocity": 120,
      "chip": "ym2612"
    },
    {
      "channel": 3,
      "note": 71,
      "start": 24.4594,
      "duration": 0.0466,
      "velocity": 92,
      "chip": "ym2612"
    },
    {
      "channel": 5,
      "note": 90,
      "start": 24.4598,
      "duration": 0.0266,
      "velocity": 97,
      "chip": "ym2612"
    },
    {
      "channel": 3,
      "note": 71,
      "start": 24.5359,
      "duration": 0.0093,
      "velocity": 92,
      "chip": "ym2612"
    },
    {
      "channel": 0,
      "note": 75,
      "start": 24.5764,
      "duration": 0.1156,
      "velocity": 127,
      "chip": "ym2612"
    },
    {
      "channel": 3,
      "note": 74,
      "start": 24.5766,
      "duration": 0.0468,
      "velocity": 92,
      "chip": "ym2612"
    },
    {
      "channel": 5,
      "note": 90,
      "start": 24.577,
      "duration": 0.0269,
      "velocity": 97,
      "chip": "ym2612"
    },
    {
      "channel": 3,
      "note": 74,
      "start": 24.6531,
      "duration": 0.0096,
      "velocity": 92,
      "chip": "ym2612"
    },
    {
      "channel": 0,
      "note": 66,
      "start": 24.6937,
      "duration": 0.2333,
      "velocity": 127,
      "chip": "ym2612"
    },
    {
      "channel": 1,
      "note": 47,
      "start": 24.6939,
      "duration": 0.194,
      "velocity": 104,
      "chip": "ym2612"
    },
    {
      "channel": 2,
      "note": 68,
      "start": 24.6941,
      "duration": 0.2035,
      "velocity": 120,
      "chip": "ym2612"
    },
    {
      "channel": 3,
      "note": 78,
      "start": 24.6944,
      "duration": 0.0466,
      "velocity": 92,
      "chip": "ym2612"
    },
    {
      "channel": 5,
      "note": 102,
      "start": 24.6947,
      "duration": 0.0266,
      "velocity": 97,
      "chip": "ym2612"
    },
    {
      "channel": 3,
      "note": 78,
      "start": 24.7705,
      "duration": 0.0096,
      "velocity": 92,
      "chip": "ym2612"
    },
    {
      "channel": 3,
      "note": 74,
      "start": 24.8097,
      "duration": 0.0488,
      "velocity": 92,
      "chip": "ym2612"
    },
    {
      "channel": 5,
      "note": 102,
      "start": 24.81,
      "duration": 0.0289,
      "velocity": 97,
      "chip": "ym2612"
    },
    {
      "channel": 3,
      "note": 74,
      "start": 24.8881,
      "duration": 0.0096,
      "velocity": 92,
      "chip": "ym2612"
    },
    {
      "channel": 0,
      "note": 48,
      "start": 24.9286,
      "duration": 0.2333,
      "velocity": 127,
      "chip": "ym2612"
    },
    {
      "channel": 1,
      "note": 47,
      "start": 24.9289,
      "duration": 0.1941,
      "velocity": 104,
      "chip": "ym2612"
    },
    {
      "channel": 2,
      "note": 69,
      "start": 24.9291,
      "duration": 0.2036,
      "velocity": 120,
      "chip": "ym2612"
    },
    {
      "channel": 3,
      "note": 71,
      "start": 24.9294,
      "duration": 0.0467,
      "velocity": 92,
      "chip": "ym2612"
    },
    {
      "channel": 4,
      "note": 78,
      "start": 24.9296,
      "duration": 0.0856,
      "velocity": 100,
      "chip": "ym2612"
    },
    {
      "channel": 5,
      "note": 102,
      "start": 24.93,
      "duration": 0.144,
      "velocity": 97,
      "chip": "ym2612"
    },
    {
      "channel": 3,
      "note": 71,
      "start": 25.0059,
      "duration": 0.0093,
      "velocity": 92,
      "chip": "ym2612"
    },
    {
      "channel": 3,
      "note": 74,
      "start": 25.0448,
      "duration": 0.0488,
      "velocity": 92,
      "chip": "ym2612"
    },
    {
      "channel": 4,
      "note": 80,
      "start": 25.0451,
      "duration": 0.0878,
      "velocity": 100,
      "chip": "ym2612"
    },
    {
      "channel": 3,
      "note": 74,
      "start": 25.1232,
      "duration": 0.0096,
      "velocity": 92,
      "chip": "ym2612"
    },
    {
      "channel": 0,
      "note": 66,
      "start": 25.1637,
      "duration": 0.2333,
      "velocity": 127,
      "chip": "ym2612"
    },
    {
      "channel": 1,
      "note": 47,
      "start": 25.1639,
      "duration": 0.1939,
      "velocity": 104,
      "chip": "ym2612"
    },
    {
      "channel": 2,
      "note": 73,
      "start": 25.1641,
      "duration": 0.2035,
      "velocity": 120,
      "chip": "ym2612"
    },
    {
      "channel": 3,
      "note": 78,
      "start": 25.1644,
      "duration": 0.0466,
      "velocity": 92,
      "chip": "ym2612"
    },
    {
      "channel": 4,
      "note": 81,
      "start": 25.1647,
      "duration": 0.0855,
      "velocity": 100,
      "chip": "ym2612"
    },
    {
      "channel": 5,
      "note": 90,
      "start": 25.165,
      "duration": 0.0264,
      "velocity": 97,
      "chip": "ym2612"
    },
    {
      "channel": 3,
      "note": 78,
      "start": 25.2405,
      "duration": 0.0096,
      "velocity": 92,
      "chip": "ym2612"
    },
    {
      "channel": 3,
      "note": 74,
      "start": 25.2797,
      "duration": 0.0488,
      "velocity": 92,
      "chip": "ym2612"
    },
    {
      "channel": 4,
      "note": 83,
      "start": 25.28,
      "duration": 0.0878,
      "velocity": 100,
      "chip": "ym2612"
    },
    {
      "channel": 5,
      "note": 90,
      "start": 25.2803,
      "duration": 0.0286,
      "velocity": 97,
      "chip": "ym2612"
    },
    {
      "channel": 3,
      "note": 74,
      "start": 25.3581,
      "duration": 0.0096,
      "velocity": 92,
      "chip": "ym2612"
    },
    {
      "channel": 0,
      "note": 32,
      "start": 25.3987,
      "duration": 0.1158,
      "velocity": 107,
      "chip": "ym2612"
    },
    {
      "channel": 1,
      "note": 49,
      "start": 25.3989,
      "duration": 0.1939,
      "velocity": 104,
      "chip": "ym2612"
    },
    {
      "channel": 2,
      "note": 71,
      "start": 25.3992,
      "duration": 0.4385,
      "velocity": 120,
      "chip": "ym2612"
    },
    {
      "channel": 3,
      "note": 73,
      "start": 25.3994,
      "duration": 0.0466,
      "velocity": 92,
      "chip": "ym2612"
    },
    {
      "channel": 4,
      "note": 76,
      "start": 25.3997,
      "duration": 0.4381,
      "velocity": 100,
      "chip": "ym2612"
    },
    {
      "channel": 5,
      "note": 102,
      "start": 25.4,
      "duration": 0.0265,
      "velocity": 97,
      "chip": "ym2612"
    },
    {
      "channel": 3,
      "note": 73,
      "start": 25.4759,
      "duration": 0.0093,
      "velocity": 92,
      "chip": "ym2612"
    },
    {
      "channel": 0,
      "note": 75,
      "start": 25.5164,
      "duration": 0.1156,
      "velocity": 127,
      "chip": "ym2612"
    },
    {
      "channel": 3,
      "note": 76,
      "start": 25.5167,
      "duration": 0.0468,
      "velocity": 92,
      "chip": "ym2612"
    },
    {
      "channel": 5,
      "note": 102,
      "start": 25.5171,
      "duration": 0.0268,
      "velocity": 97,
      "chip": "ym2612"
    },
    {
      "channel": 3,
      "note": 76,
      "start": 25.5931,
      "duration": 0.0096,
      "velocity": 92,
      "chip": "ym2612"
    },
    {
      "channel": 0,
      "note": 66,
      "start": 25.6337,
      "duration": 0.2334,
      "velocity": 127,
      "chip": "ym2612"
    },
    {
      "channel": 1,
      "note": 49,
      "start": 25.6339,
      "duration": 0.1939,
      "velocity": 104,
      "chip": "ym2612"
    },
    {
      "channel": 3,
      "note": 80,
      "start": 25.6341,
      "duration": 0.0468,
      "velocity": 92,
      "chip": "ym2612"
    },
    {
      "channel": 5,
      "note": 102,
      "start": 25.6345,
      "duration": 0.1444,
      "velocity": 97,
      "chip": "ym2612"
    },
    {
      "channel": 3,
      "note": 80,
      "start": 25.7106,
      "duration": 0.0096,
      "velocity": 92,
      "chip": "ym2612"
    },
    {
      "channel": 3,
      "note": 76,
      "start": 25.7497,
      "duration": 0.0488,
      "velocity": 92,
      "chip": "ym2612"
    },
    {
      "channel": 3,
      "note": 76,
      "start": 25.8281,
      "duration": 0.0096,
      "velocity": 92,
      "chip": "ym2612"
    },
    {
      "channel": 0,
      "note": 48,
      "start": 25.8687,
      "duration": 0.2334,
      "velocity": 127,
      "chip": "ym2612"
    },
    {
      "channel": 1,
      "note": 49,
      "start": 25.8689,
      "duration": 0.194,
      "velocity": 104,
      "chip": "ym2612"
    },
    {
      "channel": 2,
      "note": 64,
      "start": 25.8692,
      "duration": 0.4385,
      "velocity": 120,
      "chip": "ym2612"
    },
    {
      "channel": 3,
      "note": 73,
      "start": 25.8694,
      "duration": 0.0467,
      "velocity": 92,
      "chip": "ym2612"
    },
    {
      "channel": 4,
      "note": 80,
      "start": 25.8697,
      "duration": 0.4381,
      "velocity": 100,
      "chip": "ym2612"
    },
    {
      "channel": 5,
      "note": 90,
      "start": 25.87,
      "duration": 0.0265,
      "velocity": 97,
      "chip": "ym2612"
    },
    {
      "channel": 3,
      "note": 73,
      "start": 25.9459,
      "duration": 0.0093,
      "velocity": 92,
      "chip": "ym2612"
    },
    {
      "channel": 3,
      "note": 76,
      "start": 25.9848,
      "duration": 0.0488,
      "velocity": 92,
      "chip": "ym2612"
    },
    {
      "channel": 5,
      "note": 90,
      "start": 25.9852,
      "duration": 0.1462,
      "velocity": 97,
      "chip": "ym2612"
    },
    {
      "channel": 3,
      "note": 76,
      "start": 26.0632,
      "duration": 0.0096,
      "velocity": 92,
      "chip": "ym2612"
    },
    {
      "channel": 0,
      "note": 66,
      "start": 26.1037,
      "duration": 0.2334,
      "velocity": 127,
      "chip": "ym2612"
    },
    {
      "channel": 1,
      "note": 49,
      "start": 26.1039,
      "duration": 0.1939,
      "velocity": 104,
      "chip": "ym2612"
    },
    {
      "channel": 3,
      "note": 80,
      "start": 26.1042,
      "duration": 0.0468,
      "velocity": 92,
      "chip": "ym2612"
    },
    {
      "channel": 3,
      "note": 80,
      "start": 26.1806,
      "duration": 0.0096,
      "velocity": 92,
      "chip": "ym2612"
    },
    {
      "channel": 3,
      "note": 76,
      "start": 26.2197,
      "duration": 0.0488,
      "velocity": 92,
      "chip": "ym2612"
    },
    {
      "channel": 5,
      "note": 90,
      "start": 26.2201,
      "duration": 0.0289,
      "velocity": 97,
      "chip": "ym2612"
    },
    {
      "channel": 3,
      "note": 76,
      "start": 26.2981,
      "duration": 0.0096,
      "velocity": 92,
      "chip": "ym2612"
    },
    {
      "channel": 0,
      "note": 32,
      "start": 26.3387,
      "duration": 0.1158,
      "velocity": 107,
      "chip": "ym2612"
    },
    {
      "channel": 1,
      "note": 50,
      "start": 26.3389,
      "duration": 0.1939,
      "velocity": 104,
      "chip": "ym2612"
    },
    {
      "channel": 2,
      "note": 73,
      "start": 26.3392,
      "duration": 0.6736,
      "velocity": 120,
      "chip": "ym2612"
    },
    {
      "channel": 3,
      "note": 74,
      "start": 26.3394,
      "duration": 0.0467,
      "velocity": 92,
      "chip": "ym2612"
    },
    {
      "channel": 5,
      "note": 90,
      "start": 26.3399,
      "duration": 0.0266,
      "velocity": 97,
      "chip": "ym2612"
    },
    {
      "channel": 3,
      "note": 74,
      "start": 26.4159,
      "duration": 0.0093,
      "velocity": 92,
      "chip": "ym2612"
    },
    {
      "channel": 0,
      "note": 75,
      "start": 26.4564,
      "duration": 0.1156,
      "velocity": 127,
      "chip": "ym2612"
    },
    {
      "channel": 3,
      "note": 78,
      "start": 26.4567,
      "duration": 0.0468,
      "velocity": 92,
      "chip": "ym2612"
    },
    {
      "channel": 5,
      "note": 90,
      "start": 26.457,
      "duration": 0.0269,
      "velocity": 97,
      "chip": "ym2612"
    },
    {
      "channel": 3,
      "note": 78,
      "start": 26.5331,
      "duration": 0.0096,
      "velocity": 92,
      "chip": "ym2612"
    },
    {
      "channel": 0,
      "note": 66,
      "start": 26.5737,
      "duration": 0.2333,
      "velocity": 127,
      "chip": "ym2612"
    },
    {
      "channel": 1,
      "note": 50,
      "start": 26.5739,
      "duration": 0.1939,
      "velocity": 104,
      "chip": "ym2612"
    },
    {
      "channel": 3,
      "note": 81,
      "start": 26.5742,
      "duration": 0.0468,
      "velocity": 92,
      "chip": "ym2612"
    },
    {
      "channel": 5,
      "note": 102,
      "start": 26.5745,
      "duration": 0.0269,
      "velocity": 97,
      "chip": "ym2612"
    },
    {
      "channel": 3,
      "note": 81,
      "start": 26.6506,
      "duration": 0.0096,
      "velocity": 92,
      "chip": "ym2612"
    },
    {
      "channel": 3,
      "note": 78,
      "start": 26.6898,
      "duration": 0.0488,
      "velocity": 92,
      "chip": "ym2612"
    },
    {
      "channel": 5,
      "note": 102,
      "start": 26.6901,
      "duration": 0.0288,
      "velocity": 97,
      "chip": "ym2612"
    },
    {
      "channel": 3,
      "note": 78,
      "start": 26.7681,
      "duration": 0.0096,
      "velocity": 92,
      "chip": "ym2612"
    },
    {
      "channel": 0,
      "note": 48,
      "start": 26.8087,
      "duration": 0.2333,
      "velocity": 127,
      "chip": "ym2612"
    },
    {
      "channel": 1,
      "note": 50,
      "start": 26.809,
      "duration": 0.194,
      "velocity": 104,
      "chip": "ym2612"
    },
    {
      "channel": 3,
      "note": 74,
      "start": 26.8092,
      "duration": 0.0469,
      "velocity": 92,
      "chip": "ym2612"
    },
    {
      "channel": 4,
      "note": 78,
      "start": 26.8095,
      "duration": 0.0861,
      "velocity": 100,
      "chip": "ym2612"
    },
    {
      "channel": 5,
      "note": 102,
      "start": 26.8099,
      "duration": 0.1442,
      "velocity": 97,
      "chip": "ym2612"
    },
    {
      "channel": 3,
      "note": 74,
      "start": 26.8859,
      "duration": 0.0093,
      "velocity": 92,
      "chip": "ym2612"
    },
    {
      "channel": 3,
      "note": 78,
      "start": 26.9249,
      "duration": 0.0488,
      "velocity": 92,
      "chip": "ym2612"
    },
    {
      "channel": 4,
      "note": 80,
      "start": 26.9251,
      "duration": 0.0878,
      "velocity": 100,
      "chip": "ym2612"
    },
    {
      "channel": 3,
      "note": 78,
      "start": 27.0032,
      "duration": 0.0096,
      "velocity": 92,
      "chip": "ym2612"
    },
    {
      "channel": 0,
      "note": 66,
      "start": 27.0437,
      "duration": 0.2333,
      "velocity": 127,
      "chip": "ym2612"
    },
    {
      "channel": 1,
      "note": 50,
      "start": 27.044,
      "duration": 0.1939,
      "velocity": 104,
      "chip": "ym2612"
    },
    {
      "channel": 2,
      "note": 71,
      "start": 27.0442,
      "duration": 0.2035,
      "velocity": 120,
      "chip": "ym2612"
    },
    {
      "channel": 3,
      "note": 81,
      "start": 27.0445,
      "duration": 0.0465,
      "velocity": 92,
      "chip": "ym2612"
    },
    {
      "channel": 4,
      "note": 81,
      "start": 27.0448,
      "duration": 0.0855,
      "velocity": 100,
      "chip": "ym2612"
    },
    {
      "channel": 5,
      "note": 90,
      "start": 27.0451,
      "duration": 0.0263,
      "velocity": 97,
      "chip": "ym2612"
    },
    {
      "channel": 3,
      "note": 81,
      "start": 27.1206,
      "duration": 0.0096,
      "velocity": 92,
      "chip": "ym2612"
    },
    {
      "channel": 3,
      "note": 78,
      "start": 27.1598,
      "duration": 0.0488,
      "velocity": 92,
      "chip": "ym2612"
    },
    {
      "channel": 5,
      "note": 90,
      "start": 27.1602,
      "duration": 0.0288,
      "velocity": 97,
      "chip": "ym2612"
    },
    {
      "channel": 3,
      "note": 78,
      "start": 27.2382,
      "duration": 0.0096,
      "velocity": 92,
      "chip": "ym2612"
    },
    {
      "channel": 0,
      "note": 32,
      "start": 27.2787,
      "duration": 0.1158,
      "velocity": 107,
      "chip": "ym2612"
    },
    {
      "channel": 1,
      "note": 49,
      "start": 27.279,
      "duration": 0.1939,
      "velocity": 104,
      "chip": "ym2612"
    },
    {
      "channel": 2,
      "note": 76,
      "start": 27.2792,
      "duration": 0.2035,
      "velocity": 120,
      "chip": "ym2612"
    },
    {
      "channel": 3,
      "note": 73,
      "start": 27.2795,
      "duration": 0.0467,
      "velocity": 92,
      "chip": "ym2612"
    },
    {
      "channel": 4,
      "note": 80,
      "start": 27.2797,
      "duration": 0.4381,
      "velocity": 100,
      "chip": "ym2612"
    },
    {
      "channel": 5,
      "note": 102,
      "start": 27.28,
      "duration": 0.0265,
      "velocity": 97,
      "chip": "ym2612"
    },
    {
      "channel": 3,
      "note": 73,
      "start": 27.356,
      "duration": 0.0093,
      "velocity": 92,
      "chip": "ym2612"
    },
    {
      "channel": 0,
      "note": 75,
      "start": 27.3965,
      "duration": 0.1156,
      "velocity": 127,
      "chip": "ym2612"
    },
    {
      "channel": 3,
      "note": 76,
      "start": 27.3967,
      "duration": 0.0468,
      "velocity": 92,
      "chip": "ym2612"
    },
    {
      "channel": 5,
      "note": 102,
      "start": 27.3971,
      "duration": 0.0269,
      "velocity": 97,
      "chip": "ym2612"
    },
    {
      "channel": 3,
      "note": 76,
      "start": 27.4732,
      "duration": 0.0096,
      "velocity": 92,
      "chip": "ym2612"
    },
    {
      "channel": 0,
      "note": 66,
      "start": 27.5137,
      "duration": 0.2334,
      "velocity": 127,
      "chip": "ym2612"
    },
    {
      "channel": 1,
      "note": 49,
      "start": 27.514,
      "duration": 0.1939,
      "velocity": 104,
      "chip": "ym2612"
    },
    {
      "channel": 2,
      "note": 73,
      "start": 27.5142,
      "duration": 0.2035,
      "velocity": 120,
      "chip": "ym2612"
    },
    {
      "channel": 3,
      "note": 80,
      "start": 27.5145,
      "duration": 0.0466,
      "velocity": 92,
      "chip": "ym2612"
    },
    {
      "channel": 5,
      "note": 102,
      "start": 27.5148,
      "duration": 0.1442,
      "velocity": 97,
      "chip": "ym2612"
    },
    {
      "channel": 3,
      "note": 80,
      "start": 27.5906,
      "duration": 0.0096,
      "velocity": 92,
      "chip": "ym2612"
    },
    {
      "channel": 3,
      "note": 76,
      "start": 27.6298,
      "duration": 0.0488,
      "velocity": 92,
      "chip": "ym2612"
    },
    {
      "channel": 3,
      "note": 76,
      "start": 27.7082,
      "duration": 0.0096,
      "velocity": 92,
      "chip": "ym2612"
    },
    {
      "channel": 0,
      "note": 48,
      "start": 27.7487,
      "duration": 0.2334,
      "velocity": 127,
      "chip": "ym2612"
    },
    {
      "channel": 1,
      "note": 49,
      "start": 27.749,
      "duration": 0.194,
      "velocity": 104,
      "chip": "ym2612"
    },
    {
      "channel": 2,
      "note": 71,
      "start": 27.7492,
      "duration": 0.2036,
      "velocity": 120,
      "chip": "ym2612"
    },
    {
      "channel": 3,
      "note": 73,
      "start": 27.7495,
      "duration": 0.0467,
      "velocity": 92,
      "chip": "ym2612"
    },
    {
      "channel": 4,
      "note": 76,
      "start": 27.7498,
      "duration": 0.4381,
      "velocity": 100,
      "chip": "ym2612"
    },
    {
      "channel": 5,
      "note": 90,
      "start": 27.7501,
      "duration": 0.0265,
      "velocity": 97,
      "chip": "ym2612"
    },
    {
      "channel": 3,
      "note": 73,
      "start": 27.826,
      "duration": 0.0093,
      "velocity": 92,
      "chip": "ym2612"
    },
    {
      "channel": 3,
      "note": 76,
      "start": 27.8649,
      "duration": 0.0488,
      "velocity": 92,
      "chip": "ym2612"
    },
    {
      "channel": 5,
      "note": 90,
      "start": 27.8653,
      "duration": 0.1462,
      "velocity": 97,
      "chip": "ym2612"
    },
    {
      "channel": 3,
      "note": 76,
      "start": 27.9433,
      "duration": 0.0096,
      "velocity": 92,
      "chip": "ym2612"
    },
    {
      "channel": 0,
      "note": 66,
      "start": 27.9837,
      "duration": 0.2333,
      "velocity": 127,
      "chip": "ym2612"
    },
    {
      "channel": 1,
      "note": 49,
      "start": 27.984,
      "duration": 0.1939,
      "velocity": 104,
      "chip": "ym2612"
    },
    {
      "channel": 2,
      "note": 76,
      "start": 27.9842,
      "duration": 0.2036,
      "velocity": 120,
      "chip": "ym2612"
    },
    {
      "channel": 3,
      "note": 80,
      "start": 27.9845,
      "duration": 0.0466,
      "velocity": 92,
      "chip": "ym2612"
    },
    {
      "channel": 3,
      "note": 80,
      "start": 28.0606,
      "duration": 0.0096,
      "velocity": 92,
      "chip": "ym2612"
    },
    {
      "channel": 3,
      "note": 76,
      "start": 28.0998,
      "duration": 0.0488,
      "velocity": 92,
      "chip": "ym2612"
    },
    {
      "channel": 5,
      "note": 90,
      "start": 28.1001,
      "duration": 0.0289,
      "velocity": 97,
      "chip": "ym2612"
    },
    {
      "channel": 3,
      "note": 76,
      "start": 28.1782,
      "duration": 0.0096,
      "velocity": 92,
      "chip": "ym2612"
    },
    {
      "channel": 0,
      "note": 32,
      "start": 28.2188,
      "duration": 0.2333,
      "velocity": 107,
      "chip": "ym2612"
    },
    {
      "channel": 1,
      "note": 57,
      "start": 28.219,
      "duration": 0.194,
      "velocity": 104,
      "chip": "ym2612"
    },
    {
      "channel": 2,
      "note": 73,
      "start": 28.2193,
      "duration": 0.9086,
      "velocity": 120,
      "chip": "ym2612"
    },
    {
      "channel": 3,
      "note": 73,
      "start": 28.2195,
      "duration": 0.0467,
      "velocity": 92,
      "chip": "ym2612"
    },
    {
      "channel": 5,
      "note": 93,
      "start": 28.2214,
      "duration": 0.0252,
      "velocity": 97,
      "chip": "ym2612"
    },
    {
      "channel": 3,
      "note": 73,
      "start": 28.296,
      "duration": 0.0096,
      "velocity": 92,
      "chip": "ym2612"
    },
    {
      "channel": 3,
      "note": 76,
      "start": 28.3349,
      "duration": 0.0488,
      "velocity": 92,
      "chip": "ym2612"
    },
    {
      "channel": 5,
      "note": 93,
      "start": 28.3352,
      "duration": 0.0288,
      "velocity": 97,
      "chip": "ym2612"
    },
    {
      "channel": 3,
      "note": 76,
      "start": 28.4133,
      "duration": 0.0096,
      "velocity": 92,
      "chip": "ym2612"
    },
    {
      "channel": 0,
      "note": 52,
      "start": 28.4538,
      "duration": 0.1158,
      "velocity": 127,
      "chip": "ym2612"
    },
    {
      "channel": 1,
      "note": 57,
      "start": 28.454,
      "duration": 0.194,
      "velocity": 104,
      "chip": "ym2612"
    },
    {
      "channel": 3,
      "note": 81,
      "start": 28.4543,
      "duration": 0.0469,
      "velocity": 92,
      "chip": "ym2612"
    },
    {
      "channel": 5,
      "note": 105,
      "start": 28.4546,
      "duration": 0.027,
      "velocity": 97,
      "chip": "ym2612"
    },
    {
      "channel": 3,
      "note": 81,
      "start": 28.5307,
      "duration": 0.0096,
      "velocity": 92,
      "chip": "ym2612"
    },
    {
      "channel": 0,
      "note": 52,
      "start": 28.5698,
      "duration": 0.2348,
      "velocity": 127,
      "chip": "ym2612"
    },
    {
      "channel": 3,
      "note": 76,
      "start": 28.5701,
      "duration": 0.0486,
      "velocity": 92,
      "chip": "ym2612"
    },
    {
      "channel": 5,
      "note": 105,
      "start": 28.5704,
      "duration": 0.0287,
      "velocity": 97,
      "chip": "ym2612"
    },
    {
      "channel": 3,
      "note": 76,
      "start": 28.6483,
      "duration": 0.0096,
      "velocity": 92,
      "chip": "ym2612"
    },
    {
      "channel": 1,
      "note": 57,
      "start": 28.6874,
      "duration": 0.1956,
      "velocity": 104,
      "chip": "ym2612"
    },
    {
      "channel": 3,
      "note": 73,
      "start": 28.6877,
      "duration": 0.0485,
      "velocity": 92,
      "chip": "ym2612"
    },
    {
      "channel": 4,
      "note": 78,
      "start": 28.6879,
      "duration": 0.0877,
      "velocity": 100,
      "chip": "ym2612"
    },
    {
      "channel": 5,
      "note": 105,
      "start": 28.6883,
      "duration": 0.1458,
      "velocity": 97,
      "chip": "ym2612"
    },
    {
      "channel": 3,
      "note": 73,
      "start": 28.766,
      "duration": 0.0096,
      "velocity": 92,
      "chip": "ym2612"
    },
    {
      "channel": 0,
      "note": 48,
      "start": 28.8049,
      "duration": 0.1173,
      "velocity": 127,
      "chip": "ym2612"
    },
    {
      "channel": 3,
      "note": 76,
      "start": 28.8051,
      "duration": 0.0486,
      "velocity": 92,
      "chip": "ym2612"
    },
    {
      "channel": 4,
      "note": 80,
      "start": 28.8056,
      "duration": 0.0873,
      "velocity": 100,
      "chip": "ym2612"
    },
    {
      "channel": 3,
      "note": 76,
      "start": 28.8833,
      "duration": 0.0096,
      "velocity": 92,
      "chip": "ym2612"
    },
    {
      "channel": 0,
      "note": 48,
      "start": 28.9224,
      "duration": 0.2348,
      "velocity": 127,
      "chip": "ym2612"
    },
    {
      "channel": 1,
      "note": 57,
      "start": 28.9226,
      "duration": 0.1955,
      "velocity": 104,
      "chip": "ym2612"
    },
    {
      "channel": 3,
      "note": 81,
      "start": 28.9229,
      "duration": 0.0483,
      "velocity": 92,
      "chip": "ym2612"
    },
    {
      "channel": 4,
      "note": 81,
      "start": 28.9231,
      "duration": 0.0873,
      "velocity": 100,
      "chip": "ym2612"
    },
    {
      "channel": 5,
      "note": 93,
      "start": 28.9235,
      "duration": 0.0281,
      "velocity": 97,
      "chip": "ym2612"
    },
    {
      "channel": 3,
      "note": 81,
      "start": 29.0008,
      "duration": 0.0096,
      "velocity": 92,
      "chip": "ym2612"
    },
    {
      "channel": 3,
      "note": 76,
      "start": 29.0399,
      "duration": 0.0488,
      "velocity": 92,
      "chip": "ym2612"
    },
    {
      "channel": 4,
      "note": 83,
      "start": 29.0402,
      "duration": 0.0878,
      "velocity": 100,
      "chip": "ym2612"
    },
    {
      "channel": 5,
      "note": 93,
      "start": 29.0405,
      "duration": 0.0286,
      "velocity": 97,
      "chip": "ym2612"
    },
    {
      "channel": 3,
      "note": 76,
      "start": 29.1183,
      "duration": 0.0096,
      "velocity": 92,
      "chip": "ym2612"
    },
    {
      "channel": 0,
      "note": 45,
      "start": 29.1573,
      "duration": 0.1173,
      "velocity": 127,
      "chip": "ym2612"
    },
    {
      "channel": 1,
      "note": 57,
      "start": 29.1576,
      "duration": 0.1955,
      "velocity": 104,
      "chip": "ym2612"
    },
    {
      "channel": 3,
      "note": 73,
      "start": 29.1579,
      "duration": 0.0483,
      "velocity": 92,
      "chip": "ym2612"
    },
    {
      "channel": 4,
      "note": 85,
      "start": 29.1582,
      "duration": 0.9098,
      "velocity": 100,
      "chip": "ym2612"
    },
    {
      "channel": 5,
      "note": 105,
      "start": 29.1585,
      "duration": 0.0281,
      "velocity": 97,
      "chip": "ym2612"
    },
    {
      "channel": 3,
      "note": 73,
      "start": 29.236,
      "duration": 0.0096,
      "velocity": 92,
      "chip": "ym2612"
    },
    {
      "channel": 0,
      "note": 45,
      "start": 29.2749,
      "duration": 0.2348,
      "velocity": 127,
      "chip": "ym2612"
    },
    {
      "channel": 3,
      "note": 76,
      "start": 29.2751,
      "duration": 0.0486,
      "velocity": 92,
      "chip": "ym2612"
    },
    {
      "channel": 5,
      "note": 105,
      "start": 29.2758,
      "duration": 0.0284,
      "velocity": 97,
      "chip": "ym2612"
    },
    {
      "channel": 3,
      "note": 76,
      "start": 29.3533,
      "duration": 0.0096,
      "velocity": 92,
      "chip": "ym2612"
    },
    {
      "channel": 1,
      "note": 57,
      "start": 29.3924,
      "duration": 0.1956,
      "velocity": 104,
      "chip": "ym2612"
    },
    {
      "channel": 3,
      "note": 81,
      "start": 29.3927,
      "duration": 0.0485,
      "velocity": 92,
      "chip": "ym2612"
    },
    {
      "channel": 5,
      "note": 105,
      "start": 29.3931,
      "duration": 0.1461,
      "velocity": 97,
      "chip": "ym2612"
    },
    {
      "channel": 3,
      "note": 81,
      "start": 29.4708,
      "duration": 0.0096,
      "velocity": 92,
      "chip": "ym2612"
    },
    {
      "channel": 0,
      "note": 41,
      "start": 29.5099,
      "duration": 0.1173,
      "velocity": 127,
      "chip": "ym2612"
    },
    {
      "channel": 3,
      "note": 76,
      "start": 29.5101,
      "duration": 0.0486,
      "velocity": 92,
      "chip": "ym2612"
    },
    {
      "channel": 3,
      "note": 76,
      "start": 29.5883,
      "duration": 0.0096,
      "velocity": 92,
      "chip": "ym2612"
    },
    {
      "channel": 0,
      "note": 41,
      "start": 29.6274,
      "duration": 0.2348,
      "velocity": 127,
      "chip": "ym2612"
    },
    {
      "channel": 1,
      "note": 57,
      "start": 29.6276,
      "duration": 0.1955,
      "velocity": 104,
      "chip": "ym2612"
    },
    {
      "channel": 2,
      "note": 61,
      "start": 29.6293,
      "duration": 0.0863,
      "velocity": 91,
      "chip": "ym2612"
    },
    {
      "channel": 3,
      "note": 73,
      "start": 29.6295,
      "duration": 0.0467,
      "velocity": 92,
      "chip": "ym2612"
    },
    {
      "channel": 5,
      "note": 93,
      "start": 29.6299,
      "duration": 0.0268,
      "velocity": 97,
      "chip": "ym2612"
    },
    {
      "channel": 3,
      "note": 73,
      "start": 29.706,
      "duration": 0.0097,
      "velocity": 92,
      "chip": "ym2612"
    },
    {
      "channel": 2,
      "note": 62,
      "start": 29.745,
      "duration": 0.0879,
      "velocity": 91,
      "chip": "ym2612"
    },
    {
      "channel": 3,
      "note": 76,
      "start": 29.7452,
      "duration": 0.0485,
      "velocity": 92,
      "chip": "ym2612"
    },
    {
      "channel": 5,
      "note": 93,
      "start": 29.7459,
      "duration": 0.1458,
      "velocity": 97,
      "chip": "ym2612"
    },
    {
      "channel": 3,
      "note": 76,
      "start": 29.8233,
      "duration": 0.0096,
      "velocity": 92,
      "chip": "ym2612"
    },
    {
      "channel": 0,
      "note": 48,
      "start": 29.8624,
      "duration": 0.1173,
      "velocity": 127,
      "chip": "ym2612"
    },
    {
      "channel": 1,
      "note": 57,
      "start": 29.8626,
      "duration": 0.1954,
      "velocity": 104,
      "chip": "ym2612"
    },
    {
      "channel": 2,
      "note": 64,
      "start": 29.8629,
      "duration": 0.0875,
      "velocity": 91,
      "chip": "ym2612"
    },
    {
      "channel": 3,
      "note": 81,
      "start": 29.8632,
      "duration": 0.0481,
      "velocity": 92,
      "chip": "ym2612"
    },
    {
      "channel": 3,
      "note": 81,
      "start": 29.9408,
      "duration": 0.0096,
      "velocity": 92,
      "chip": "ym2612"
    },
    {
      "channel": 0,
      "note": 48,
      "start": 29.9799,
      "duration": 0.1173,
      "velocity": 127,
      "chip": "ym2612"
    },
    {
      "channel": 2,
      "note": 66,
      "start": 29.9802,
      "duration": 0.0877,
      "velocity": 91,
      "chip": "ym2612"
    },
    {
      "channel": 3,
      "note": 76,
      "start": 29.9804,
      "duration": 0.0483,
      "velocity": 92,
      "chip": "ym2612"
    },
    {
      "channel": 5,
      "note": 93,
      "start": 29.9808,
      "duration": 0.0284,
      "velocity": 97,
      "chip": "ym2612"
    },
    {
      "channel": 3,
      "note": 76,
      "start": 30.0583,
      "duration": 0.0096,
      "velocity": 92,
      "chip": "ym2612"
    },
    {
      "channel": 0,
      "note": 32,
      "start": 30.0988,
      "duration": 0.1158,
      "velocity": 107,
      "chip": "ym2612"
    },
    {
      "channel": 1,
      "note": 47,
      "start": 30.0991,
      "duration": 0.1939,
      "velocity": 104,
      "chip": "ym2612"
    },
    {
      "channel": 2,
      "note": 62,
      "start": 30.0994,
      "duration": 0.3209,
      "velocity": 91,
      "chip": "ym2612"
    },
    {
      "channel": 3,
      "note": 57,
      "start": 30.1011,
      "duration": 0.9069,
      "velocity": 89,
      "chip": "ym2612"
    },
    {
      "channel": 4,
      "note": 54,
      "start": 30.1029,
      "duration": 0.9052,
      "velocity": 89,
      "chip": "ym2612"
    },
    {
      "channel": 5,
      "note": 50,
      "start": 30.1046,
      "duration": 0.8446,
      "velocity": 89,
      "chip": "ym2612"
    },
    {
      "channel": 0,
      "note": 75,
      "start": 30.2166,
      "duration": 0.1156,
      "velocity": 127,
      "chip": "ym2612"
    },
    {
      "channel": 0,
      "note": 66,
      "start": 30.3338,
      "duration": 0.2334,
      "velocity": 127,
      "chip": "ym2612"
    },
    {
      "channel": 1,
      "note": 47,
      "start": 30.3341,
      "duration": 0.1939,
      "velocity": 104,
      "chip": "ym2612"
    },
    {
      "channel": 2,
      "note": 73,
      "start": 30.4499,
      "duration": 0.323,
      "velocity": 91,
      "chip": "ym2612"
    },
    {
      "channel": 0,
      "note": 48,
      "start": 30.5688,
      "duration": 0.2333,
      "velocity": 127,
      "chip": "ym2612"
    },
    {
      "channel": 1,
      "note": 59,
      "start": 30.5691,
      "duration": 0.194,
      "velocity": 104,
      "chip": "ym2612"
    },
    {
      "channel": 0,
      "note": 75,
      "start": 30.8038,
      "duration": 0.1159,
      "velocity": 127,
      "chip": "ym2612"
    },
    {
      "channel": 1,
      "note": 47,
      "start": 30.8041,
      "duration": 0.194,
      "velocity": 104,
      "chip": "ym2612"
    },
    {
      "channel": 2,
      "note": 71,
      "start": 30.8044,
      "duration": 0.2036,
      "velocity": 91,
      "chip": "ym2612"
    },
    {
      "channel": 0,
      "note": 48,
      "start": 30.9214,
      "duration": 0.1158,
      "velocity": 127,
      "chip": "ym2612"
    },
    {
      "channel": 0,
      "note": 32,
      "start": 31.0389,
      "duration": 0.1158,
      "velocity": 107,
      "chip": "ym2612"
    },
    {
      "channel": 1,
      "note": 52,
      "start": 31.0391,
      "duration": 0.1939,
      "velocity": 104,
      "chip": "ym2612"
    },
    {
      "channel": 2,
      "note": 76,
      "start": 31.0394,
      "duration": 0.321,
      "velocity": 91,
      "chip": "ym2612"
    },
    {
      "channel": 3,
      "note": 59,
      "start": 31.0397,
      "duration": 0.9083,
      "velocity": 89,
      "chip": "ym2612"
    },
    {
      "channel": 4,
      "note": 56,
      "start": 31.04,
      "duration": 0.908,
      "velocity": 89,
      "chip": "ym2612"
    },
    {
      "channel": 5,
      "note": 52,
      "start": 31.0402,
      "duration": 0.8489,
      "velocity": 89,
      "chip": "ym2612"
    },
    {
      "channel": 0,
      "note": 75,
      "start": 31.1566,
      "duration": 0.1156,
      "velocity": 127,
      "chip": "ym2612"
    },
    {
      "channel": 0,
      "note": 32,
      "start": 31.2739,
      "duration": 0.1158,
      "velocity": 107,
      "chip": "ym2612"
    },
    {
      "channel": 1,
      "note": 52,
      "start": 31.2741,
      "duration": 0.1939,
      "velocity": 104,
      "chip": "ym2612"
    },
    {
      "channel": 0,
      "note": 75,
      "start": 31.3914,
      "duration": 0.1158,
      "velocity": 127,
      "chip": "ym2612"
    },
    {
      "channel": 2,
      "note": 73,
      "start": 31.3917,
      "duration": 0.3213,
      "velocity": 91,
      "chip": "ym2612"
    },
    {
      "channel": 0,
      "note": 48,
      "start": 31.5089,
      "duration": 0.2333,
      "velocity": 127,
      "chip": "ym2612"
    },
    {
      "channel": 1,
      "note": 64,
      "start": 31.5091,
      "duration": 0.194,
      "velocity": 104,
      "chip": "ym2612"
    },
    {
      "channel": 0,
      "note": 66,
      "start": 31.7439,
      "duration": 0.2333,
      "velocity": 127,
      "chip": "ym2612"
    },
    {
      "channel": 1,
      "note": 52,
      "start": 31.7441,
      "duration": 0.1939,
      "velocity": 104,
      "chip": "ym2612"
    },
    {
      "channel": 2,
      "note": 68,
      "start": 31.7444,
      "duration": 0.2034,
      "velocity": 91,
      "chip": "ym2612"
    },
    {
      "channel": 0,
      "note": 32,
      "start": 31.9789,
      "duration": 0.1158,
      "velocity": 107,
      "chip": "ym2612"
    },
    {
      "channel": 1,
      "note": 45,
      "start": 31.9791,
      "duration": 0.1939,
      "velocity": 104,
      "chip": "ym2612"
    },
    {
      "channel": 2,
      "note": 66,
      "start": 31.9794,
      "duration": 0.321,
      "velocity": 91,
      "chip": "ym2612"
    },
    {
      "channel": 3,
      "note": 59,
      "start": 31.9797,
      "duration": 0.9084,
      "velocity": 89,
      "chip": "ym2612"
    },
    {
      "channel": 4,
      "note": 56,
      "start": 31.98,
      "duration": 0.9081,
      "velocity": 89,
      "chip": "ym2612"
    },
    {
      "channel": 5,
      "note": 52,
      "start": 31.9803,
      "duration": 0.849,
      "velocity": 89,
      "chip": "ym2612"
    },
    {
      "channel": 0,
      "note": 75,
      "start": 32.0966,
      "duration": 0.1156,
      "velocity": 127,
      "chip": "ym2612"
    },
    {
      "channel": 0,
      "note": 66,
      "start": 32.2139,
      "duration": 0.2334,
      "velocity": 127,
      "chip": "ym2612"
    },
    {
      "channel": 1,
      "note": 45,
      "start": 32.2141,
      "duration": 0.1939,
      "velocity": 104,
      "chip": "ym2612"
    },
    {
      "channel": 2,
      "note": 68,
      "start": 32.33,
      "duration": 0.323,
      "velocity": 91,
      "chip": "ym2612"
    },
    {
      "channel": 0,
      "note": 48,
      "start": 32.4489,
      "duration": 0.2334,
      "velocity": 127,
      "chip": "ym2612"
    },
    {
      "channel": 1,
      "note": 57,
      "start": 32.4491,
      "duration": 0.194,
      "velocity": 104,
      "chip": "ym2612"
    },
    {
      "channel": 0,
      "note": 75,
      "start": 32.6839,
      "duration": 0.1159,
      "velocity": 127,
      "chip": "ym2612"
    },
    {
      "channel": 1,
      "note": 45,
      "start": 32.6841,
      "duration": 0.194,
      "velocity": 104,
      "chip": "ym2612"
    },
    {
      "channel": 2,
      "note": 64,
      "start": 32.6844,
      "duration": 0.2036,
      "velocity": 91,
      "chip": "ym2612"
    },
    {
      "channel": 0,
      "note": 48,
      "start": 32.8014,
      "duration": 0.1159,
      "velocity": 127,
      "chip": "ym2612"
    },
    {
      "channel": 0,
      "note": 32,
      "start": 32.9189,
      "duration": 0.1158,
      "velocity": 107,
      "chip": "ym2612"
    },
    {
      "channel": 1,
      "note": 50,
      "start": 32.9192,
      "duration": 0.1939,
      "velocity": 104,
      "chip": "ym2612"
    },
    {
      "channel": 2,
      "note": 66,
      "start": 32.9195,
      "duration": 0.321,
      "velocity": 91,
      "chip": "ym2612"
    },
    {
      "channel": 3,
      "note": 57,
      "start": 32.9198,
      "duration": 0.9083,
      "velocity": 89,
      "chip": "ym2612"
    },
    {
      "channel": 4,
      "note": 54,
      "start": 32.92,
      "duration": 0.908,
      "velocity": 89,
      "chip": "ym2612"
    },
    {
      "channel": 5,
      "note": 50,
      "start": 32.9203,
      "duration": 0.8489,
      "velocity": 89,
      "chip": "ym2612"
    },
    {
      "channel": 0,
      "note": 75,
      "start": 33.0367,
      "duration": 0.1156,
      "velocity": 127,
      "chip": "ym2612"
    },
    {
      "channel": 0,
      "note": 32,
      "start": 33.1539,
      "duration": 0.1158,
      "velocity": 107,
      "chip": "ym2612"
    },
    {
      "channel": 1,
      "note": 50,
      "start": 33.1542,
      "duration": 0.1939,
      "velocity": 104,
      "chip": "ym2612"
    },
    {
      "channel": 0,
      "note": 75,
      "start": 33.2714,
      "duration": 0.1159,
      "velocity": 127,
      "chip": "ym2612"
    },
    {
      "channel": 2,
      "note": 68,
      "start": 33.2717,
      "duration": 0.3213,
      "velocity": 91,
      "chip": "ym2612"
    },
    {
      "channel": 0,
      "note": 48,
      "start": 33.3889,
      "duration": 0.2333,
      "velocity": 127,
      "chip": "ym2612"
    },
    {
      "channel": 1,
      "note": 62,
      "start": 33.3892,
      "duration": 0.194,
      "velocity": 104,
      "chip": "ym2612"
    },
    {
      "channel": 0,
      "note": 66,
      "start": 33.6239,
      "duration": 0.2334,
      "velocity": 127,
      "chip": "ym2612"
    },
    {
      "channel": 1,
      "note": 50,
      "start": 33.6242,
      "duration": 0.1939,
      "velocity": 104,
      "chip": "ym2612"
    },
    {
      "channel": 2,
      "note": 69,
      "start": 33.6245,
      "duration": 0.2035,
      "velocity": 91,
      "chip": "ym2612"
    },
    {
      "channel": 0,
      "note": 32,
      "start": 33.859,
      "duration": 0.1158,
      "velocity": 107,
      "chip": "ym2612"
    },
    {
      "channel": 1,
      "note": 47,
      "start": 33.8592,
      "duration": 0.1939,
      "velocity": 104,
      "chip": "ym2612"
    },
    {
      "channel": 2,
      "note": 66,
      "start": 33.8595,
      "duration": 0.3209,
      "velocity": 91,
      "chip": "ym2612"
    },
    {
      "channel": 3,
      "note": 57,
      "start": 33.8598,
      "duration": 0.9083,
      "velocity": 89,
      "chip": "ym2612"
    },
    {
      "channel": 4,
      "note": 54,
      "start": 33.8601,
      "duration": 0.9081,
      "velocity": 89,
      "chip": "ym2612"
    },
    {
      "channel": 5,
      "note": 50,
      "start": 33.8604,
      "duration": 0.849,
      "velocity": 89,
      "chip": "ym2612"
    },
    {
      "channel": 0,
      "note": 75,
      "start": 33.9767,
      "duration": 0.1156,
      "velocity": 127,
      "chip": "ym2612"
    },
    {
      "channel": 0,
      "note": 66,
      "start": 34.094,
      "duration": 0.2333,
      "velocity": 127,
      "chip": "ym2612"
    },
    {
      "channel": 1,
      "note": 47,
      "start": 34.0942,
      "duration": 0.1939,
      "velocity": 104,
      "chip": "ym2612"
    },
    {
      "channel": 2,
      "note": 68,
      "start": 34.21,
      "duration": 0.323,
      "velocity": 91,
      "chip": "ym2612"
    },
    {
      "channel": 0,
      "note": 48,
      "start": 34.329,
      "duration": 0.2333,
      "velocity": 127,
      "chip": "ym2612"
    },
    {
      "channel": 1,
      "note": 59,
      "start": 34.3292,
      "duration": 0.194,
      "velocity": 104,
      "chip": "ym2612"
    },
    {
      "channel": 0,
      "note": 75,
      "start": 34.564,
      "duration": 0.1158,
      "velocity": 127,
      "chip": "ym2612"
    },
    {
      "channel": 1,
      "note": 47,
      "start": 34.5642,
      "duration": 0.1941,
      "velocity": 104,
      "chip": "ym2612"
    },
    {
      "channel": 2,
      "note": 69,
      "start": 34.5645,
      "duration": 0.2036,
      "velocity": 91,
      "chip": "ym2612"
    },
    {
      "channel": 0,
      "note": 48,
      "start": 34.6815,
      "duration": 0.1158,
      "velocity": 127,
      "chip": "ym2612"
    },
    {
      "channel": 0,
      "note": 32,
      "start": 34.799,
      "duration": 0.1158,
      "velocity": 107,
      "chip": "ym2612"
    },
    {
      "channel": 1,
      "note": 52,
      "start": 34.7992,
      "duration": 0.1939,
      "velocity": 104,
      "chip": "ym2612"
    },
    {
      "channel": 2,
      "note": 71,
      "start": 34.7995,
      "duration": 0.321,
      "velocity": 91,
      "chip": "ym2612"
    },
    {
      "channel": 3,
      "note": 59,
      "start": 34.7998,
      "duration": 0.9083,
      "velocity": 89,
      "chip": "ym2612"
    },
    {
      "channel": 4,
      "note": 56,
      "start": 34.8001,
      "duration": 0.908,
      "velocity": 89,
      "chip": "ym2612"
    },
    {
      "channel": 5,
      "note": 52,
      "start": 34.8004,
      "duration": 0.8489,
      "velocity": 89,
      "chip": "ym2612"
    },
    {
      "channel": 0,
      "note": 75,
      "start": 34.9167,
      "duration": 0.1156,
      "velocity": 127,
      "chip": "ym2612"
    },
    {
      "channel": 0,
      "note": 32,
      "start": 35.034,
      "duration": 0.1158,
      "velocity": 107,
      "chip": "ym2612"
    },
    {
      "channel": 1,
      "note": 52,
      "start": 35.0342,
      "duration": 0.1939,
      "velocity": 104,
      "chip": "ym2612"
    },
    {
      "channel": 0,
      "note": 75,
      "start": 35.1515,
      "duration": 0.1159,
      "velocity": 127,
      "chip": "ym2612"
    },
    {
      "channel": 2,
      "note": 73,
      "start": 35.1518,
      "duration": 0.3213,
      "velocity": 91,
      "chip": "ym2612"
    },
    {
      "channel": 0,
      "note": 48,
      "start": 35.269,
      "duration": 0.2333,
      "velocity": 127,
      "chip": "ym2612"
    },
    {
      "channel": 1,
      "note": 64,
      "start": 35.2692,
      "duration": 0.194,
      "velocity": 104,
      "chip": "ym2612"
    },
    {
      "channel": 0,
      "note": 66,
      "start": 35.504,
      "duration": 0.2334,
      "velocity": 127,
      "chip": "ym2612"
    },
    {
      "channel": 1,
      "note": 52,
      "start": 35.5042,
      "duration": 0.1939,
      "velocity": 104,
      "chip": "ym2612"
    },
    {
      "channel": 2,
      "note": 64,
      "start": 35.5045,
      "duration": 0.2035,
      "velocity": 91,
      "chip": "ym2612"
    },
    {
      "channel": 0,
      "note": 32,
      "start": 35.739,
      "duration": 0.1159,
      "velocity": 107,
      "chip": "ym2612"
    },
    {
      "channel": 1,
      "note": 54,
      "start": 35.7393,
      "duration": 0.1939,
      "velocity": 104,
      "chip": "ym2612"
    },
    {
      "channel": 2,
      "note": 66,
      "start": 35.7395,
      "duration": 1.8486,
      "velocity": 91,
      "chip": "ym2612"
    },
    {
      "channel": 3,
      "note": 61,
      "start": 35.7398,
      "duration": 1.8484,
      "velocity": 89,
      "chip": "ym2612"
    },
    {
      "channel": 4,
      "note": 57,
      "start": 35.7401,
      "duration": 1.8481,
      "velocity": 89,
      "chip": "ym2612"
    },
    {
      "channel": 5,
      "note": 54,
      "start": 35.7404,
      "duration": 1.789,
      "velocity": 89,
      "chip": "ym2612"
    },
    {
      "channel": 0,
      "note": 75,
      "start": 35.8568,
      "duration": 0.1156,
      "velocity": 127,
      "chip": "ym2612"
    },
    {
      "channel": 0,
      "note": 66,
      "start": 35.974,
      "duration": 0.2333,
      "velocity": 127,
      "chip": "ym2612"
    },
    {
      "channel": 1,
      "note": 54,
      "start": 35.9743,
      "duration": 0.1939,
      "velocity": 104,
      "chip": "ym2612"
    },
    {
      "channel": 0,
      "note": 48,
      "start": 36.209,
      "duration": 0.2333,
      "velocity": 127,
      "chip": "ym2612"
    },
    {
      "channel": 1,
      "note": 66,
      "start": 36.2093,
      "duration": 0.194,
      "velocity": 104,
      "chip": "ym2612"
    },
    {
      "channel": 0,
      "note": 75,
      "start": 36.4441,
      "duration": 0.1158,
      "velocity": 127,
      "chip": "ym2612"
    },
    {
      "channel": 1,
      "note": 54,
      "start": 36.4443,
      "duration": 0.194,
      "velocity": 104,
      "chip": "ym2612"
    },
    {
      "channel": 0,
      "note": 48,
      "start": 36.5615,
      "duration": 0.1158,
      "velocity": 127,
      "chip": "ym2612"
    },
    {
      "channel": 0,
      "note": 32,
      "start": 36.679,
      "duration": 0.1158,
      "velocity": 107,
      "chip": "ym2612"
    },
    {
      "channel": 1,
      "note": 54,
      "start": 36.6793,
      "duration": 0.1939,
      "velocity": 104,
      "chip": "ym2612"
    },
    {
      "channel": 0,
      "note": 75,
      "start": 36.7968,
      "duration": 0.1156,
      "velocity": 127,
      "chip": "ym2612"
    },
    {
      "channel": 0,
      "note": 48,
      "start": 36.9141,
      "duration": 0.1158,
      "velocity": 127,
      "chip": "ym2612"
    },
    {
      "channel": 1,
      "note": 54,
      "start": 36.9143,
      "duration": 0.194,
      "velocity": 104,
      "chip": "ym2612"
    },
    {
      "channel": 0,
      "note": 48,
      "start": 37.0301,
      "duration": 0.1173,
      "velocity": 127,
      "chip": "ym2612"
    },
    {
      "channel": 0,
      "note": 48,
      "start": 37.1476,
      "duration": 0.2348,
      "velocity": 127,
      "chip": "ym2612"
    },
    {
      "channel": 1,
      "note": 66,
      "start": 37.1479,
      "duration": 0.1955,
      "velocity": 104,
      "chip": "ym2612"
    },
    {
      "channel": 0,
      "note": 48,
      "start": 37.3826,
      "duration": 0.1173,
      "velocity": 127,
      "chip": "ym2612"
    },
    {
      "channel": 1,
      "note": 54,
      "start": 37.3829,
      "duration": 0.1955,
      "velocity": 104,
      "chip": "ym2612"
    },
    {
      "channel": 0,
      "note": 48,
      "start": 37.5001,
      "duration": 0.1173,
      "velocity": 127,
      "chip": "ym2612"
    },
    {
      "channel": 0,
      "note": 32,
      "start": 37.6191,
      "duration": 0.0277,
      "velocity": 107,
      "chip": "ym2612"
    },
    {
      "channel": 1,
      "note": 54,
      "start": 37.6208,
      "duration": 0.026,
      "velocity": 104,
      "chip": "ym2612"
    },
    {
      "channel": 2,
      "note": 66,
      "start": 37.6226,
      "duration": 0.0242,
      "velocity": 100,
      "chip": "ym2612"
    },
    {
      "channel": 3,
      "note": 78,
      "start": 37.6244,
      "duration": 0.0224,
      "velocity": 100,
      "chip": "ym2612"
    },
    {
      "channel": 4,
      "note": 73,
      "start": 37.6266,
      "duration": 0.0202,
      "velocity": 100,
      "chip": "ym2612"
    },
    {
      "channel": 5,
      "note": 90,
      "start": 37.6284,
      "duration": 0.0184,
      "velocity": 97,
      "chip": "ym2612"
    }
  ]
}