{
  "track_name": "02 - Scooby 2nd Theme (Mystery Start Cutscene)",
  "duration_sec": 60.03,
  "sample_rate": 44100,
  "note_count": 887,
  "unique_pitches": 32,
  "pitch_range": 41,
  "avg_note_duration": 0.2173,
  "reconstruction_stats": {
    "notes_reconstructed": 887,
    "keyon_events": 887,
    "keyoff_events": 887,
    "orphan_keyons": 0,
    "unique_pitches": 32,
    "pitch_range": 41,
    "avg_duration_sec": 0.2173
  },
  "metadata": {
    "source": "S\\Scooby-Doo Mystery\\02 - Scooby 2nd Theme (Mystery Start Cutscene).vgz"
  },
  "notes": [
    {
      "channel": 0,
      "note": 70,
      "start": 0.0916,
      "duration": 0.2429,
      "velocity": 95,
      "chip": "ym2612"
    },
    {
      "channel": 4,
      "note": 58,
      "start": 0.1032,
      "duration": 0.1314,
      "velocity": 98,
      "chip": "ym2612"
    },
    {
      "channel": 5,
      "note": 46,
      "start": 0.2736,
      "duration": 0.1281,
      "velocity": 98,
      "chip": "ym2612"
    },
    {
      "channel": 4,
      "note": 63,
      "start": 0.339,
      "duration": 0.1293,
      "velocity": 98,
      "chip": "ym2612"
    },
    {
      "channel": 2,
      "note": 81,
      "start": 0.3429,
      "duration": 0.1255,
      "velocity": 104,
      "chip": "ym2612"
    },
    {
      "channel": 5,
      "note": 51,
      "start": 0.5391,
      "duration": 0.1295,
      "velocity": 98,
      "chip": "ym2612"
    },
    {
      "channel": 0,
      "note": 75,
      "start": 0.6066,
      "duration": 0.212,
      "velocity": 95,
      "chip": "ym2612"
    },
    {
      "channel": 4,
      "note": 66,
      "start": 0.6111,
      "duration": 0.1591,
      "velocity": 98,
      "chip": "ym2612"
    },
    {
      "channel": 5,
      "note": 54,
      "start": 0.7891,
      "duration": 0.1298,
      "velocity": 98,
      "chip": "ym2612"
    },
    {
      "channel": 4,
      "note": 63,
      "start": 0.8574,
      "duration": 0.1282,
      "velocity": 98,
      "chip": "ym2612"
    },
    {
      "channel": 2,
      "note": 81,
      "start": 0.8614,
      "duration": 0.1244,
      "velocity": 104,
      "chip": "ym2612"
    },
    {
      "channel": 0,
      "note": 81,
      "start": 1.0059,
      "duration": 1.1145,
      "velocity": 95,
      "chip": "ym2612"
    },
    {
      "channel": 5,
      "note": 51,
      "start": 1.0563,
      "duration": 0.1311,
      "velocity": 98,
      "chip": "ym2612"
    },
    {
      "channel": 4,
      "note": 60,
      "start": 1.1229,
      "duration": 0.1631,
      "velocity": 98,
      "chip": "ym2612"
    },
    {
      "channel": 5,
      "note": 48,
      "start": 1.3064,
      "duration": 0.1314,
      "velocity": 98,
      "chip": "ym2612"
    },
    {
      "channel": 4,
      "note": 63,
      "start": 1.3732,
      "duration": 0.1298,
      "velocity": 98,
      "chip": "ym2612"
    },
    {
      "channel": 1,
      "note": 75,
      "start": 1.3768,
      "duration": 0.5935,
      "velocity": 98,
      "chip": "ym2612"
    },
    {
      "channel": 3,
      "note": 72,
      "start": 1.3805,
      "duration": 0.5899,
      "velocity": 98,
      "chip": "ym2612"
    },
    {
      "channel": 2,
      "note": 69,
      "start": 1.384,
      "duration": 0.5866,
      "velocity": 98,
      "chip": "ym2612"
    },
    {
      "channel": 5,
      "note": 51,
      "start": 1.5735,
      "duration": 0.1146,
      "velocity": 98,
      "chip": "ym2612"
    },
    {
      "channel": 4,
      "note": 66,
      "start": 1.6403,
      "duration": 0.1463,
      "velocity": 98,
      "chip": "ym2612"
    },
    {
      "channel": 5,
      "note": 54,
      "start": 1.8237,
      "duration": 0.1299,
      "velocity": 98,
      "chip": "ym2612"
    },
    {
      "channel": 4,
      "note": 62,
      "start": 1.8906,
      "duration": 0.1634,
      "velocity": 98,
      "chip": "ym2612"
    },
    {
      "channel": 1,
      "note": 78,
      "start": 2.0582,
      "duration": 0.1456,
      "velocity": 98,
      "chip": "ym2612"
    },
    {
      "channel": 5,
      "note": 50,
      "start": 2.091,
      "duration": 0.113,
      "velocity": 98,
      "chip": "ym2612"
    },
    {
      "channel": 3,
      "note": 72,
      "start": 2.0944,
      "duration": 0.1428,
      "velocity": 98,
      "chip": "ym2612"
    },
    {
      "channel": 2,
      "note": 75,
      "start": 2.098,
      "duration": 0.1061,
      "velocity": 98,
      "chip": "ym2612"
    },
    {
      "channel": 4,
      "note": 63,
      "start": 2.141,
      "duration": 0.1464,
      "velocity": 98,
      "chip": "ym2612"
    },
    {
      "channel": 5,
      "note": 51,
      "start": 2.3411,
      "duration": 0.1298,
      "velocity": 98,
      "chip": "ym2612"
    },
    {
      "channel": 0,
      "note": 82,
      "start": 2.4075,
      "duration": 0.13,
      "velocity": 95,
      "chip": "ym2612"
    },
    {
      "channel": 4,
      "note": 58,
      "start": 2.4125,
      "duration": 0.1585,
      "velocity": 98,
      "chip": "ym2612"
    },
    {
      "channel": 1,
      "note": 70,
      "start": 2.4168,
      "duration": 0.1208,
      "velocity": 96,
      "chip": "ym2612"
    },
    {
      "channel": 2,
      "note": 81,
      "start": 2.4201,
      "duration": 0.0843,
      "velocity": 104,
      "chip": "ym2612"
    },
    {
      "channel": 0,
      "note": 83,
      "start": 2.5743,
      "duration": 0.1302,
      "velocity": 95,
      "chip": "ym2612"
    },
    {
      "channel": 1,
      "note": 71,
      "start": 2.5792,
      "duration": 0.0752,
      "velocity": 96,
      "chip": "ym2612"
    },
    {
      "channel": 5,
      "note": 46,
      "start": 2.5914,
      "duration": 0.131,
      "velocity": 98,
      "chip": "ym2612"
    },
    {
      "channel": 3,
      "note": 82,
      "start": 2.6582,
      "duration": 0.1147,
      "velocity": 95,
      "chip": "ym2612"
    },
    {
      "channel": 4,
      "note": 63,
      "start": 2.6629,
      "duration": 0.1418,
      "velocity": 98,
      "chip": "ym2612"
    },
    {
      "channel": 1,
      "note": 70,
      "start": 2.6666,
      "duration": 0.1062,
      "velocity": 96,
      "chip": "ym2612"
    },
    {
      "channel": 0,
      "note": 78,
      "start": 2.8085,
      "duration": 0.0629,
      "velocity": 95,
      "chip": "ym2612"
    },
    {
      "channel": 1,
      "note": 66,
      "start": 2.8135,
      "duration": 0.058,
      "velocity": 96,
      "chip": "ym2612"
    },
    {
      "channel": 5,
      "note": 51,
      "start": 2.86,
      "duration": 0.1285,
      "velocity": 98,
      "chip": "ym2612"
    },
    {
      "channel": 0,
      "note": 75,
      "start": 2.9257,
      "duration": 0.0624,
      "velocity": 95,
      "chip": "ym2612"
    },
    {
      "channel": 4,
      "note": 65,
      "start": 2.93,
      "duration": 0.1417,
      "velocity": 98,
      "chip": "ym2612"
    },
    {
      "channel": 1,
      "note": 63,
      "start": 2.9335,
      "duration": 0.0548,
      "velocity": 96,
      "chip": "ym2612"
    },
    {
      "channel": 2,
      "note": 81,
      "start": 2.9394,
      "duration": 0.0991,
      "velocity": 104,
      "chip": "ym2612"
    },
    {
      "channel": 0,
      "note": 81,
      "start": 3.0751,
      "duration": 0.8658,
      "velocity": 95,
      "chip": "ym2612"
    },
    {
      "channel": 1,
      "note": 69,
      "start": 3.0807,
      "duration": 0.8603,
      "velocity": 96,
      "chip": "ym2612"
    },
    {
      "channel": 5,
      "note": 53,
      "start": 3.1103,
      "duration": 0.1282,
      "velocity": 98,
      "chip": "ym2612"
    },
    {
      "channel": 4,
      "note": 66,
      "start": 3.1755,
      "duration": 0.1631,
      "velocity": 98,
      "chip": "ym2612"
    },
    {
      "channel": 5,
      "note": 54,
      "start": 3.3757,
      "duration": 0.1133,
      "velocity": 98,
      "chip": "ym2612"
    },
    {
      "channel": 3,
      "note": 81,
      "start": 3.4099,
      "duration": 0.0395,
      "velocity": 98,
      "chip": "ym2612"
    },
    {
      "channel": 4,
      "note": 65,
      "start": 3.4441,
      "duration": 0.1449,
      "velocity": 98,
      "chip": "ym2612"
    },
    {
      "channel": 2,
      "note": 75,
      "start": 3.4484,
      "duration": 0.3742,
      "velocity": 98,
      "chip": "ym2612"
    },
    {
      "channel": 3,
      "note": 72,
      "start": 3.452,
      "duration": 0.4054,
      "velocity": 98,
      "chip": "ym2612"
    },
    {
      "channel": 5,
      "note": 53,
      "start": 3.6262,
      "duration": 0.1298,
      "velocity": 98,
      "chip": "ym2612"
    },
    {
      "channel": 4,
      "note": 63,
      "start": 3.6943,
      "duration": 0.1451,
      "velocity": 98,
      "chip": "ym2612"
    },
    {
      "channel": 5,
      "note": 51,
      "start": 3.8933,
      "duration": 0.1132,
      "velocity": 98,
      "chip": "ym2612"
    },
    {
      "channel": 4,
      "note": 60,
      "start": 3.945,
      "duration": 0.1782,
      "velocity": 98,
      "chip": "ym2612"
    },
    {
      "channel": 2,
      "note": 81,
      "start": 3.9501,
      "duration": 0.1398,
      "velocity": 104,
      "chip": "ym2612"
    },
    {
      "channel": 3,
      "note": 81,
      "start": 3.9773,
      "duration": 0.1458,
      "velocity": 98,
      "chip": "ym2612"
    },
    {
      "channel": 0,
      "note": 75,
      "start": 3.9806,
      "duration": 0.1423,
      "velocity": 98,
      "chip": "ym2612"
    },
    {
      "channel": 1,
      "note": 72,
      "start": 3.9842,
      "duration": 0.1054,
      "velocity": 98,
      "chip": "ym2612"
    },
    {
      "channel": 5,
      "note": 48,
      "start": 4.1436,
      "duration": 0.1312,
      "velocity": 98,
      "chip": "ym2612"
    },
    {
      "channel": 1,
      "note": 70,
      "start": 4.2102,
      "duration": 0.1799,
      "velocity": 95,
      "chip": "ym2612"
    },
    {
      "channel": 4,
      "note": 63,
      "start": 4.2147,
      "duration": 0.1589,
      "velocity": 98,
      "chip": "ym2612"
    },
    {
      "channel": 0,
      "note": 82,
      "start": 4.2183,
      "duration": 0.155,
      "velocity": 98,
      "chip": "ym2612"
    },
    {
      "channel": 3,
      "note": 75,
      "start": 4.2216,
      "duration": 0.1519,
      "velocity": 98,
      "chip": "ym2612"
    },
    {
      "channel": 2,
      "note": 72,
      "start": 4.2316,
      "duration": 0.1267,
      "velocity": 98,
      "chip": "ym2612"
    },
    {
      "channel": 5,
      "note": 51,
      "start": 4.3939,
      "duration": 0.131,
      "velocity": 98,
      "chip": "ym2612"
    },
    {
      "channel": 4,
      "note": 58,
      "start": 4.4605,
      "duration": 0.1798,
      "velocity": 98,
      "chip": "ym2612"
    },
    {
      "channel": 2,
      "note": 81,
      "start": 4.4641,
      "duration": 0.1443,
      "velocity": 104,
      "chip": "ym2612"
    },
    {
      "channel": 5,
      "note": 46,
      "start": 4.6611,
      "duration": 0.1295,
      "velocity": 98,
      "chip": "ym2612"
    },
    {
      "channel": 1,
      "note": 75,
      "start": 4.7271,
      "duration": 0.2149,
      "velocity": 95,
      "chip": "ym2612"
    },
    {
      "channel": 4,
      "note": 63,
      "start": 4.7318,
      "duration": 0.1421,
      "velocity": 98,
      "chip": "ym2612"
    },
    {
      "channel": 2,
      "note": 81,
      "start": 4.7361,
      "duration": 0.1228,
      "velocity": 121,
      "chip": "ym2612"
    },
    {
      "channel": 5,
      "note": 51,
      "start": 4.911,
      "duration": 0.1299,
      "velocity": 98,
      "chip": "ym2612"
    },
    {
      "channel": 4,
      "note": 66,
      "start": 4.9777,
      "duration": 0.1467,
      "velocity": 98,
      "chip": "ym2612"
    },
    {
      "channel": 2,
      "note": 81,
      "start": 4.9824,
      "duration": 0.2102,
      "velocity": 104,
      "chip": "ym2612"
    },
    {
      "channel": 1,
      "note": 81,
      "start": 5.1131,
      "duration": 1.0958,
      "velocity": 95,
      "chip": "ym2612"
    },
    {
      "channel": 5,
      "note": 54,
      "start": 5.1781,
      "duration": 0.1298,
      "velocity": 98,
      "chip": "ym2612"
    },
    {
      "channel": 4,
      "note": 63,
      "start": 5.2451,
      "duration": 0.1462,
      "velocity": 98,
      "chip": "ym2612"
    },
    {
      "channel": 5,
      "note": 51,
      "start": 5.4283,
      "duration": 0.1301,
      "velocity": 98,
      "chip": "ym2612"
    },
    {
      "channel": 4,
      "note": 66,
      "start": 5.4951,
      "duration": 0.1466,
      "velocity": 98,
      "chip": "ym2612"
    },
    {
      "channel": 0,
      "note": 81,
      "start": 5.4987,
      "duration": 0.7435,
      "velocity": 98,
      "chip": "ym2612"
    },
    {
      "channel": 2,
      "note": 81,
      "start": 5.5034,
      "duration": 0.0097,
      "velocity": 104,
      "chip": "ym2612"
    },
    {
      "channel": 3,
      "note": 75,
      "start": 5.5123,
      "duration": 0.7468,
      "velocity": 98,
      "chip": "ym2612"
    },
    {
      "channel": 2,
      "note": 72,
      "start": 5.5159,
      "duration": 0.2478,
      "velocity": 98,
      "chip": "ym2612"
    },
    {
      "channel": 5,
      "note": 54,
      "start": 5.6969,
      "duration": 0.1116,
      "velocity": 98,
      "chip": "ym2612"
    },
    {
      "channel": 4,
      "note": 69,
      "start": 5.7623,
      "duration": 0.1631,
      "velocity": 98,
      "chip": "ym2612"
    },
    {
      "channel": 2,
      "note": 81,
      "start": 5.7661,
      "duration": 0.1104,
      "velocity": 121,
      "chip": "ym2612"
    },
    {
      "channel": 5,
      "note": 57,
      "start": 5.9473,
      "duration": 0.1283,
      "velocity": 98,
      "chip": "ym2612"
    },
    {
      "channel": 4,
      "note": 66,
      "start": 6.0127,
      "duration": 0.1464,
      "velocity": 98,
      "chip": "ym2612"
    },
    {
      "channel": 2,
      "note": 81,
      "start": 6.0172,
      "duration": 0.1585,
      "velocity": 104,
      "chip": "ym2612"
    },
    {
      "channel": 5,
      "note": 54,
      "start": 6.2128,
      "duration": 0.1132,
      "velocity": 98,
      "chip": "ym2612"
    },
    {
      "channel": 4,
      "note": 63,
      "start": 6.2632,
      "duration": 0.1962,
      "velocity": 98,
      "chip": "ym2612"
    },
    {
      "channel": 5,
      "note": 51,
      "start": 6.4632,
      "duration": 0.1298,
      "velocity": 98,
      "chip": "ym2612"
    },
    {
      "channel": 1,
      "note": 82,
      "start": 6.5309,
      "duration": 0.0952,
      "velocity": 95,
      "chip": "ym2612"
    },
    {
      "channel": 4,
      "note": 58,
      "start": 6.5354,
      "duration": 0.1744,
      "velocity": 98,
      "chip": "ym2612"
    },
    {
      "channel": 2,
      "note": 70,
      "start": 6.5398,
      "duration": 0.0866,
      "velocity": 96,
      "chip": "ym2612"
    },
    {
      "channel": 1,
      "note": 83,
      "start": 6.6977,
      "duration": 0.1121,
      "velocity": 95,
      "chip": "ym2612"
    },
    {
      "channel": 2,
      "note": 71,
      "start": 6.7032,
      "duration": 0.0566,
      "velocity": 96,
      "chip": "ym2612"
    },
    {
      "channel": 5,
      "note": 46,
      "start": 6.7136,
      "duration": 0.1297,
      "velocity": 98,
      "chip": "ym2612"
    },
    {
      "channel": 0,
      "note": 82,
      "start": 6.7633,
      "duration": 0.098,
      "velocity": 95,
      "chip": "ym2612"
    },
    {
      "channel": 2,
      "note": 70,
      "start": 6.7685,
      "duration": 0.0931,
      "velocity": 96,
      "chip": "ym2612"
    },
    {
      "channel": 4,
      "note": 63,
      "start": 6.7817,
      "duration": 0.1951,
      "velocity": 98,
      "chip": "ym2612"
    },
    {
      "channel": 0,
      "note": 78,
      "start": 6.93,
      "duration": 0.0634,
      "velocity": 95,
      "chip": "ym2612"
    },
    {
      "channel": 2,
      "note": 66,
      "start": 6.9353,
      "duration": 0.0584,
      "velocity": 96,
      "chip": "ym2612"
    },
    {
      "channel": 5,
      "note": 51,
      "start": 6.9807,
      "duration": 0.1311,
      "velocity": 98,
      "chip": "ym2612"
    },
    {
      "channel": 4,
      "note": 69,
      "start": 7.0471,
      "duration": 0.18,
      "velocity": 98,
      "chip": "ym2612"
    },
    {
      "channel": 2,
      "note": 81,
      "start": 7.052,
      "duration": 0.1753,
      "velocity": 104,
      "chip": "ym2612"
    },
    {
      "channel": 0,
      "note": 75,
      "start": 7.0637,
      "duration": 0.0131,
      "velocity": 95,
      "chip": "ym2612"
    },
    {
      "channel": 3,
      "note": 63,
      "start": 7.0689,
      "duration": 0.0081,
      "velocity": 96,
      "chip": "ym2612"
    },
    {
      "channel": 5,
      "note": 57,
      "start": 7.231,
      "duration": 0.131,
      "velocity": 98,
      "chip": "ym2612"
    },
    {
      "channel": 0,
      "note": 77,
      "start": 7.2641,
      "duration": 1.0476,
      "velocity": 95,
      "chip": "ym2612"
    },
    {
      "channel": 3,
      "note": 65,
      "start": 7.2697,
      "duration": 1.0422,
      "velocity": 96,
      "chip": "ym2612"
    },
    {
      "channel": 4,
      "note": 70,
      "start": 7.2975,
      "duration": 0.1968,
      "velocity": 98,
      "chip": "ym2612"
    },
    {
      "channel": 1,
      "note": 58,
      "start": 7.465,
      "duration": 0.0971,
      "velocity": 98,
      "chip": "ym2612"
    },
    {
      "channel": 2,
      "note": 65,
      "start": 7.4684,
      "duration": 0.3262,
      "velocity": 98,
      "chip": "ym2612"
    },
    {
      "channel": 5,
      "note": 74,
      "start": 7.4722,
      "duration": 0.3222,
      "velocity": 98,
      "chip": "ym2612"
    },
    {
      "channel": 4,
      "note": 58,
      "start": 7.4981,
      "duration": 0.1142,
      "velocity": 98,
      "chip": "ym2612"
    },
    {
      "channel": 1,
      "note": 65,
      "start": 7.5646,
      "duration": 0.1796,
      "velocity": 98,
      "chip": "ym2612"
    },
    {
      "channel": 4,
      "note": 53,
      "start": 7.7481,
      "duration": 0.1299,
      "velocity": 98,
      "chip": "ym2612"
    },
    {
      "channel": 1,
      "note": 62,
      "start": 7.8149,
      "duration": 0.1965,
      "velocity": 98,
      "chip": "ym2612"
    },
    {
      "channel": 5,
      "note": 77,
      "start": 7.8322,
      "duration": 0.0042,
      "velocity": 98,
      "chip": "ym2612"
    },
    {
      "channel": 2,
      "note": 70,
      "start": 7.8356,
      "duration": 0.1426,
      "velocity": 98,
      "chip": "ym2612"
    },
    {
      "channel": 5,
      "note": 74,
      "start": 7.8392,
      "duration": 0.1231,
      "velocity": 98,
      "chip": "ym2612"
    },
    {
      "channel": 4,
      "note": 50,
      "start": 8.0152,
      "duration": 0.1131,
      "velocity": 98,
      "chip": "ym2612"
    },
    {
      "channel": 1,
      "note": 58,
      "start": 8.066,
      "duration": 0.1966,
      "velocity": 98,
      "chip": "ym2612"
    },
    {
      "channel": 5,
      "note": 77,
      "start": 8.0698,
      "duration": 0.0268,
      "velocity": 98,
      "chip": "ym2612"
    },
    {
      "channel": 2,
      "note": 81,
      "start": 8.0747,
      "duration": 0.1036,
      "velocity": 121,
      "chip": "ym2612"
    },
    {
      "channel": 5,
      "note": 70,
      "start": 8.0993,
      "duration": 0.0013,
      "velocity": 98,
      "chip": "ym2612"
    },
    {
      "channel": 5,
      "note": 82,
      "start": 8.1034,
      "duration": 0.1084,
      "velocity": 98,
      "chip": "ym2612"
    },
    {
      "channel": 4,
      "note": 46,
      "start": 8.2665,
      "duration": 0.1287,
      "velocity": 98,
      "chip": "ym2612"
    },
    {
      "channel": 0,
      "note": 70,
      "start": 8.332,
      "duration": 0.1298,
      "velocity": 95,
      "chip": "ym2612"
    },
    {
      "channel": 1,
      "note": 58,
      "start": 8.337,
      "duration": 0.1416,
      "velocity": 98,
      "chip": "ym2612"
    },
    {
      "channel": 4,
      "note": 46,
      "start": 8.5158,
      "duration": 0.1297,
      "velocity": 98,
      "chip": "ym2612"
    },
    {
      "channel": 1,
      "note": 63,
      "start": 8.5824,
      "duration": 0.1298,
      "velocity": 98,
      "chip": "ym2612"
    },
    {
      "channel": 2,
      "note": 81,
      "start": 8.5863,
      "duration": 0.1261,
      "velocity": 104,
      "chip": "ym2612"
    },
    {
      "channel": 4,
      "note": 51,
      "start": 8.7846,
      "duration": 0.1279,
      "velocity": 98,
      "chip": "ym2612"
    },
    {
      "channel": 0,
      "note": 75,
      "start": 8.849,
      "duration": 0.0982,
      "velocity": 95,
      "chip": "ym2612"
    },
    {
      "channel": 1,
      "note": 66,
      "start": 8.8538,
      "duration": 0.1587,
      "velocity": 98,
      "chip": "ym2612"
    },
    {
      "channel": 4,
      "note": 54,
      "start": 9.0345,
      "duration": 0.1284,
      "velocity": 98,
      "chip": "ym2612"
    },
    {
      "channel": 1,
      "note": 63,
      "start": 9.0998,
      "duration": 0.1297,
      "velocity": 98,
      "chip": "ym2612"
    },
    {
      "channel": 2,
      "note": 81,
      "start": 9.1045,
      "duration": 0.1253,
      "velocity": 104,
      "chip": "ym2612"
    },
    {
      "channel": 0,
      "note": 81,
      "start": 9.2498,
      "duration": 1.1161,
      "velocity": 95,
      "chip": "ym2612"
    },
    {
      "channel": 4,
      "note": 51,
      "start": 9.3,
      "duration": 0.1298,
      "velocity": 98,
      "chip": "ym2612"
    },
    {
      "channel": 1,
      "note": 60,
      "start": 9.3682,
      "duration": 0.1631,
      "velocity": 98,
      "chip": "ym2612"
    },
    {
      "channel": 4,
      "note": 48,
      "start": 9.5503,
      "duration": 0.1301,
      "velocity": 98,
      "chip": "ym2612"
    },
    {
      "channel": 1,
      "note": 63,
      "start": 9.6185,
      "duration": 0.1283,
      "velocity": 98,
      "chip": "ym2612"
    },
    {
      "channel": 2,
      "note": 81,
      "start": 9.6221,
      "duration": 0.0166,
      "velocity": 104,
      "chip": "ym2612"
    },
    {
      "channel": 5,
      "note": 75,
      "start": 9.6345,
      "duration": 0.5965,
      "velocity": 98,
      "chip": "ym2612"
    },
    {
      "channel": 3,
      "note": 69,
      "start": 9.6379,
      "duration": 0.6263,
      "velocity": 98,
      "chip": "ym2612"
    },
    {
      "channel": 2,
      "note": 72,
      "start": 9.6415,
      "duration": 0.6231,
      "velocity": 98,
      "chip": "ym2612"
    },
    {
      "channel": 4,
      "note": 51,
      "start": 9.8174,
      "duration": 0.1131,
      "velocity": 98,
      "chip": "ym2612"
    },
    {
      "channel": 1,
      "note": 66,
      "start": 9.8841,
      "duration": 0.148,
      "velocity": 98,
      "chip": "ym2612"
    },
    {
      "channel": 4,
      "note": 54,
      "start": 10.0677,
      "duration": 0.1308,
      "velocity": 98,
      "chip": "ym2612"
    },
    {
      "channel": 1,
      "note": 62,
      "start": 10.1345,
      "duration": 0.1634,
      "velocity": 98,
      "chip": "ym2612"
    },
    {
      "channel": 3,
      "note": 78,
      "start": 10.3023,
      "duration": 0.1288,
      "velocity": 98,
      "chip": "ym2612"
    },
    {
      "channel": 4,
      "note": 50,
      "start": 10.3349,
      "duration": 0.1146,
      "velocity": 98,
      "chip": "ym2612"
    },
    {
      "channel": 5,
      "note": 72,
      "start": 10.3384,
      "duration": 0.1112,
      "velocity": 98,
      "chip": "ym2612"
    },
    {
      "channel": 2,
      "note": 75,
      "start": 10.342,
      "duration": 0.1077,
      "velocity": 98,
      "chip": "ym2612"
    },
    {
      "channel": 1,
      "note": 63,
      "start": 10.3853,
      "duration": 0.1475,
      "velocity": 98,
      "chip": "ym2612"
    },
    {
      "channel": 4,
      "note": 51,
      "start": 10.5849,
      "duration": 0.13,
      "velocity": 98,
      "chip": "ym2612"
    },
    {
      "channel": 0,
      "note": 82,
      "start": 10.6514,
      "duration": 0.1315,
      "velocity": 95,
      "chip": "ym2612"
    },
    {
      "channel": 1,
      "note": 58,
      "start": 10.656,
      "duration": 0.1589,
      "velocity": 98,
      "chip": "ym2612"
    },
    {
      "channel": 3,
      "note": 70,
      "start": 10.6599,
      "duration": 0.1232,
      "velocity": 96,
      "chip": "ym2612"
    },
    {
      "channel": 2,
      "note": 81,
      "start": 10.6631,
      "duration": 0.0852,
      "velocity": 104,
      "chip": "ym2612"
    },
    {
      "channel": 0,
      "note": 83,
      "start": 10.8186,
      "duration": 0.1312,
      "velocity": 95,
      "chip": "ym2612"
    },
    {
      "channel": 3,
      "note": 71,
      "start": 10.8235,
      "duration": 0.0582,
      "velocity": 96,
      "chip": "ym2612"
    },
    {
      "channel": 4,
      "note": 46,
      "start": 10.8353,
      "duration": 0.13,
      "velocity": 98,
      "chip": "ym2612"
    },
    {
      "channel": 5,
      "note": 82,
      "start": 10.902,
      "duration": 0.1133,
      "velocity": 95,
      "chip": "ym2612"
    },
    {
      "channel": 1,
      "note": 63,
      "start": 10.9065,
      "duration": 0.142,
      "velocity": 98,
      "chip": "ym2612"
    },
    {
      "channel": 3,
      "note": 70,
      "start": 10.9103,
      "duration": 0.1049,
      "velocity": 96,
      "chip": "ym2612"
    },
    {
      "channel": 0,
      "note": 78,
      "start": 11.0853,
      "duration": 0.0467,
      "velocity": 95,
      "chip": "ym2612"
    },
    {
      "channel": 3,
      "note": 66,
      "start": 11.0908,
      "duration": 0.0414,
      "velocity": 96,
      "chip": "ym2612"
    },
    {
      "channel": 4,
      "note": 51,
      "start": 11.1025,
      "duration": 0.13,
      "velocity": 98,
      "chip": "ym2612"
    },
    {
      "channel": 0,
      "note": 75,
      "start": 11.1687,
      "duration": 0.0634,
      "velocity": 95,
      "chip": "ym2612"
    },
    {
      "channel": 1,
      "note": 65,
      "start": 11.1728,
      "duration": 0.1428,
      "velocity": 98,
      "chip": "ym2612"
    },
    {
      "channel": 3,
      "note": 63,
      "start": 11.1768,
      "duration": 0.0555,
      "velocity": 96,
      "chip": "ym2612"
    },
    {
      "channel": 2,
      "note": 81,
      "start": 11.1811,
      "duration": 0.1027,
      "velocity": 104,
      "chip": "ym2612"
    },
    {
      "channel": 0,
      "note": 81,
      "start": 11.3191,
      "duration": 0.8643,
      "velocity": 95,
      "chip": "ym2612"
    },
    {
      "channel": 3,
      "note": 69,
      "start": 11.3243,
      "duration": 0.8593,
      "velocity": 96,
      "chip": "ym2612"
    },
    {
      "channel": 4,
      "note": 53,
      "start": 11.3527,
      "duration": 0.1297,
      "velocity": 98,
      "chip": "ym2612"
    },
    {
      "channel": 1,
      "note": 66,
      "start": 11.4194,
      "duration": 0.163,
      "velocity": 98,
      "chip": "ym2612"
    },
    {
      "channel": 4,
      "note": 54,
      "start": 11.6211,
      "duration": 0.1131,
      "velocity": 98,
      "chip": "ym2612"
    },
    {
      "channel": 1,
      "note": 65,
      "start": 11.6865,
      "duration": 0.1463,
      "velocity": 98,
      "chip": "ym2612"
    },
    {
      "channel": 2,
      "note": 81,
      "start": 11.6901,
      "duration": 0.0316,
      "velocity": 104,
      "chip": "ym2612"
    },
    {
      "channel": 5,
      "note": 72,
      "start": 11.7209,
      "duration": 0.0044,
      "velocity": 98,
      "chip": "ym2612"
    },
    {
      "channel": 2,
      "note": 78,
      "start": 11.7244,
      "duration": 0.4257,
      "velocity": 98,
      "chip": "ym2612"
    },
    {
      "channel": 5,
      "note": 81,
      "start": 11.728,
      "duration": 0.4388,
      "velocity": 98,
      "chip": "ym2612"
    },
    {
      "channel": 4,
      "note": 53,
      "start": 11.8715,
      "duration": 0.1283,
      "velocity": 98,
      "chip": "ym2612"
    },
    {
      "channel": 1,
      "note": 63,
      "start": 11.9367,
      "duration": 0.1465,
      "velocity": 98,
      "chip": "ym2612"
    },
    {
      "channel": 4,
      "note": 51,
      "start": 12.1371,
      "duration": 0.1132,
      "velocity": 98,
      "chip": "ym2612"
    },
    {
      "channel": 1,
      "note": 60,
      "start": 12.1874,
      "duration": 0.1809,
      "velocity": 98,
      "chip": "ym2612"
    },
    {
      "channel": 2,
      "note": 81,
      "start": 12.1929,
      "duration": 0.1408,
      "velocity": 104,
      "chip": "ym2612"
    },
    {
      "channel": 4,
      "note": 48,
      "start": 12.3872,
      "duration": 0.13,
      "velocity": 98,
      "chip": "ym2612"
    },
    {
      "channel": 5,
      "note": 82,
      "start": 12.3909,
      "duration": 0.1446,
      "velocity": 98,
      "chip": "ym2612"
    },
    {
      "channel": 0,
      "note": 78,
      "start": 12.3942,
      "duration": 0.1409,
      "velocity": 98,
      "chip": "ym2612"
    },
    {
      "channel": 3,
      "note": 72,
      "start": 12.3977,
      "duration": 0.1376,
      "velocity": 98,
      "chip": "ym2612"
    },
    {
      "channel": 2,
      "note": 70,
      "start": 12.4376,
      "duration": 0.1966,
      "velocity": 95,
      "chip": "ym2612"
    },
    {
      "channel": 1,
      "note": 63,
      "start": 12.4554,
      "duration": 0.1636,
      "velocity": 98,
      "chip": "ym2612"
    },
    {
      "channel": 4,
      "note": 51,
      "start": 12.6379,
      "duration": 0.1305,
      "velocity": 98,
      "chip": "ym2612"
    },
    {
      "channel": 1,
      "note": 58,
      "start": 12.7058,
      "duration": 0.1784,
      "velocity": 98,
      "chip": "ym2612"
    },
    {
      "channel": 2,
      "note": 81,
      "start": 12.7094,
      "duration": 0.1416,
      "velocity": 104,
      "chip": "ym2612"
    },
    {
      "channel": 4,
      "note": 46,
      "start": 12.9049,
      "duration": 0.1311,
      "velocity": 98,
      "chip": "ym2612"
    },
    {
      "channel": 0,
      "note": 75,
      "start": 12.9717,
      "duration": 0.1794,
      "velocity": 95,
      "chip": "ym2612"
    },
    {
      "channel": 1,
      "note": 63,
      "start": 12.9767,
      "duration": 0.1426,
      "velocity": 98,
      "chip": "ym2612"
    },
    {
      "channel": 2,
      "note": 81,
      "start": 12.9805,
      "duration": 0.1041,
      "velocity": 121,
      "chip": "ym2612"
    },
    {
      "channel": 4,
      "note": 51,
      "start": 13.1551,
      "duration": 0.1313,
      "velocity": 98,
      "chip": "ym2612"
    },
    {
      "channel": 1,
      "note": 66,
      "start": 13.2215,
      "duration": 0.1481,
      "velocity": 98,
      "chip": "ym2612"
    },
    {
      "channel": 2,
      "note": 81,
      "start": 13.2264,
      "duration": 0.2087,
      "velocity": 104,
      "chip": "ym2612"
    },
    {
      "channel": 0,
      "note": 81,
      "start": 13.4051,
      "duration": 1.0494,
      "velocity": 95,
      "chip": "ym2612"
    },
    {
      "channel": 4,
      "note": 54,
      "start": 13.422,
      "duration": 0.1298,
      "velocity": 98,
      "chip": "ym2612"
    },
    {
      "channel": 1,
      "note": 63,
      "start": 13.4885,
      "duration": 0.1466,
      "velocity": 98,
      "chip": "ym2612"
    },
    {
      "channel": 4,
      "note": 51,
      "start": 13.6723,
      "duration": 0.1298,
      "velocity": 98,
      "chip": "ym2612"
    },
    {
      "channel": 1,
      "note": 66,
      "start": 13.7388,
      "duration": 0.1466,
      "velocity": 98,
      "chip": "ym2612"
    },
    {
      "channel": 3,
      "note": 81,
      "start": 13.7429,
      "duration": 0.5932,
      "velocity": 98,
      "chip": "ym2612"
    },
    {
      "channel": 5,
      "note": 78,
      "start": 13.7461,
      "duration": 0.5902,
      "velocity": 98,
      "chip": "ym2612"
    },
    {
      "channel": 2,
      "note": 72,
      "start": 13.7496,
      "duration": 0.258,
      "velocity": 98,
      "chip": "ym2612"
    },
    {
      "channel": 4,
      "note": 54,
      "start": 13.9394,
      "duration": 0.1131,
      "velocity": 98,
      "chip": "ym2612"
    },
    {
      "channel": 1,
      "note": 69,
      "start": 14.0062,
      "duration": 0.1631,
      "velocity": 98,
      "chip": "ym2612"
    },
    {
      "channel": 2,
      "note": 81,
      "start": 14.01,
      "duration": 0.1109,
      "velocity": 121,
      "chip": "ym2612"
    },
    {
      "channel": 4,
      "note": 57,
      "start": 14.1898,
      "duration": 0.1297,
      "velocity": 98,
      "chip": "ym2612"
    },
    {
      "channel": 1,
      "note": 66,
      "start": 14.2565,
      "duration": 0.1465,
      "velocity": 98,
      "chip": "ym2612"
    },
    {
      "channel": 2,
      "note": 81,
      "start": 14.2601,
      "duration": 0.1597,
      "velocity": 104,
      "chip": "ym2612"
    },
    {
      "channel": 3,
      "note": 82,
      "start": 14.424,
      "duration": 0.1139,
      "velocity": 98,
      "chip": "ym2612"
    },
    {
      "channel": 5,
      "note": 70,
      "start": 14.4273,
      "duration": 0.1108,
      "velocity": 98,
      "chip": "ym2612"
    },
    {
      "channel": 4,
      "note": 77,
      "start": 14.4309,
      "duration": 0.0722,
      "velocity": 98,
      "chip": "ym2612"
    },
    {
      "channel": 1,
      "note": 54,
      "start": 14.4586,
      "duration": 0.1112,
      "velocity": 98,
      "chip": "ym2612"
    },
    {
      "channel": 2,
      "note": 70,
      "start": 14.5072,
      "duration": 0.1976,
      "velocity": 98,
      "chip": "ym2612"
    },
    {
      "channel": 1,
      "note": 58,
      "start": 14.7084,
      "duration": 0.1284,
      "velocity": 98,
      "chip": "ym2612"
    },
    {
      "channel": 0,
      "note": 82,
      "start": 14.7734,
      "duration": 0.1301,
      "velocity": 95,
      "chip": "ym2612"
    },
    {
      "channel": 2,
      "note": 65,
      "start": 14.778,
      "duration": 0.1886,
      "velocity": 98,
      "chip": "ym2612"
    },
    {
      "channel": 4,
      "note": 70,
      "start": 14.782,
      "duration": 0.1217,
      "velocity": 96,
      "chip": "ym2612"
    },
    {
      "channel": 0,
      "note": 83,
      "start": 14.9403,
      "duration": 0.0633,
      "velocity": 95,
      "chip": "ym2612"
    },
    {
      "channel": 4,
      "note": 71,
      "start": 14.9454,
      "duration": 0.0584,
      "velocity": 96,
      "chip": "ym2612"
    },
    {
      "channel": 1,
      "note": 53,
      "start": 14.9703,
      "duration": 0.1167,
      "velocity": 98,
      "chip": "ym2612"
    },
    {
      "channel": 0,
      "note": 82,
      "start": 15.0073,
      "duration": 0.0964,
      "velocity": 95,
      "chip": "ym2612"
    },
    {
      "channel": 4,
      "note": 70,
      "start": 15.0124,
      "duration": 0.0915,
      "velocity": 96,
      "chip": "ym2612"
    },
    {
      "channel": 2,
      "note": 62,
      "start": 15.0242,
      "duration": 0.1966,
      "velocity": 98,
      "chip": "ym2612"
    },
    {
      "channel": 0,
      "note": 80,
      "start": 15.1743,
      "duration": 0.0629,
      "velocity": 95,
      "chip": "ym2612"
    },
    {
      "channel": 4,
      "note": 68,
      "start": 15.1799,
      "duration": 0.0576,
      "velocity": 96,
      "chip": "ym2612"
    },
    {
      "channel": 1,
      "note": 50,
      "start": 15.2243,
      "duration": 0.1297,
      "velocity": 98,
      "chip": "ym2612"
    },
    {
      "channel": 0,
      "note": 78,
      "start": 15.2575,
      "duration": 0.0964,
      "velocity": 95,
      "chip": "ym2612"
    },
    {
      "channel": 4,
      "note": 66,
      "start": 15.2626,
      "duration": 0.0916,
      "velocity": 96,
      "chip": "ym2612"
    },
    {
      "channel": 2,
      "note": 58,
      "start": 15.2927,
      "duration": 0.1784,
      "velocity": 98,
      "chip": "ym2612"
    },
    {
      "channel": 0,
      "note": 77,
      "start": 15.441,
      "duration": 0.0632,
      "velocity": 95,
      "chip": "ym2612"
    },
    {
      "channel": 4,
      "note": 65,
      "start": 15.4465,
      "duration": 0.0579,
      "velocity": 96,
      "chip": "ym2612"
    },
    {
      "channel": 1,
      "note": 46,
      "start": 15.4747,
      "duration": 0.1297,
      "velocity": 98,
      "chip": "ym2612"
    },
    {
      "channel": 0,
      "note": 75,
      "start": 15.5246,
      "duration": 2.5663,
      "velocity": 95,
      "chip": "ym2612"
    },
    {
      "channel": 4,
      "note": 63,
      "start": 15.5304,
      "duration": 2.5608,
      "velocity": 96,
      "chip": "ym2612"
    },
    {
      "channel": 2,
      "note": 63,
      "start": 15.543,
      "duration": 0.1951,
      "velocity": 98,
      "chip": "ym2612"
    },
    {
      "channel": 3,
      "note": 75,
      "start": 15.7103,
      "duration": 0.1033,
      "velocity": 98,
      "chip": "ym2612"
    },
    {
      "channel": 1,
      "note": 51,
      "start": 15.7417,
      "duration": 0.1131,
      "velocity": 98,
      "chip": "ym2612"
    },
    {
      "channel": 2,
      "note": 58,
      "start": 15.8085,
      "duration": 0.1798,
      "velocity": 98,
      "chip": "ym2612"
    },
    {
      "channel": 5,
      "note": 78,
      "start": 15.8127,
      "duration": 0.3941,
      "velocity": 98,
      "chip": "ym2612"
    },
    {
      "channel": 3,
      "note": 83,
      "start": 15.8163,
      "duration": 0.2234,
      "velocity": 98,
      "chip": "ym2612"
    },
    {
      "channel": 1,
      "note": 46,
      "start": 15.9919,
      "duration": 0.1313,
      "velocity": 98,
      "chip": "ym2612"
    },
    {
      "channel": 2,
      "note": 63,
      "start": 16.0588,
      "duration": 0.1968,
      "velocity": 98,
      "chip": "ym2612"
    },
    {
      "channel": 3,
      "note": 82,
      "start": 16.0624,
      "duration": 0.1443,
      "velocity": 98,
      "chip": "ym2612"
    },
    {
      "channel": 1,
      "note": 51,
      "start": 16.2592,
      "duration": 0.1144,
      "velocity": 98,
      "chip": "ym2612"
    },
    {
      "channel": 2,
      "note": 70,
      "start": 16.3097,
      "duration": 0.0161,
      "velocity": 98,
      "chip": "ym2612"
    },
    {
      "channel": 3,
      "note": 78,
      "start": 16.3134,
      "duration": 0.0043,
      "velocity": 98,
      "chip": "ym2612"
    },
    {
      "channel": 5,
      "note": 75,
      "start": 16.3168,
      "duration": 0.1405,
      "velocity": 98,
      "chip": "ym2612"
    },
    {
      "channel": 3,
      "note": 81,
      "start": 16.3204,
      "duration": 0.1017,
      "velocity": 98,
      "chip": "ym2612"
    },
    {
      "channel": 2,
      "note": 81,
      "start": 16.3283,
      "duration": 0.0941,
      "velocity": 121,
      "chip": "ym2612"
    },
    {
      "channel": 1,
      "note": 58,
      "start": 16.5094,
      "duration": 0.1297,
      "velocity": 98,
      "chip": "ym2612"
    },
    {
      "channel": 3,
      "note": 63,
      "start": 16.5762,
      "duration": 0.1797,
      "velocity": 98,
      "chip": "ym2612"
    },
    {
      "channel": 5,
      "note": 82,
      "start": 16.5804,
      "duration": 0.0043,
      "velocity": 98,
      "chip": "ym2612"
    },
    {
      "channel": 2,
      "note": 78,
      "start": 16.5837,
      "duration": 1.0903,
      "velocity": 98,
      "chip": "ym2612"
    },
    {
      "channel": 5,
      "note": 75,
      "start": 16.5874,
      "duration": 1.0866,
      "velocity": 98,
      "chip": "ym2612"
    },
    {
      "channel": 1,
      "note": 51,
      "start": 16.7597,
      "duration": 0.1297,
      "velocity": 98,
      "chip": "ym2612"
    },
    {
      "channel": 3,
      "note": 58,
      "start": 16.8263,
      "duration": 0.1966,
      "velocity": 98,
      "chip": "ym2612"
    },
    {
      "channel": 1,
      "note": 46,
      "start": 17.027,
      "duration": 0.1293,
      "velocity": 98,
      "chip": "ym2612"
    },
    {
      "channel": 3,
      "note": 63,
      "start": 17.0933,
      "duration": 0.18,
      "velocity": 98,
      "chip": "ym2612"
    },
    {
      "channel": 1,
      "note": 51,
      "start": 17.277,
      "duration": 0.1297,
      "velocity": 98,
      "chip": "ym2612"
    },
    {
      "channel": 3,
      "note": 58,
      "start": 17.3437,
      "duration": 0.198,
      "velocity": 98,
      "chip": "ym2612"
    },
    {
      "channel": 1,
      "note": 46,
      "start": 17.5454,
      "duration": 0.1283,
      "velocity": 98,
      "chip": "ym2612"
    },
    {
      "channel": 3,
      "note": 63,
      "start": 17.6109,
      "duration": 0.4132,
      "velocity": 98,
      "chip": "ym2612"
    },
    {
      "channel": 1,
      "note": 51,
      "start": 17.796,
      "duration": 0.128,
      "velocity": 98,
      "chip": "ym2612"
    },
    {
      "channel": 2,
      "note": 81,
      "start": 17.8616,
      "duration": 0.1961,
      "velocity": 104,
      "chip": "ym2612"
    },
    {
      "channel": 3,
      "note": 70,
      "start": 18.1296,
      "duration": 0.1782,
      "velocity": 98,
      "chip": "ym2612"
    },
    {
      "channel": 1,
      "note": 58,
      "start": 18.3117,
      "duration": 0.1297,
      "velocity": 98,
      "chip": "ym2612"
    },
    {
      "channel": 0,
      "note": 75,
      "start": 18.3619,
      "duration": 0.0628,
      "velocity": 95,
      "chip": "ym2612"
    },
    {
      "channel": 3,
      "note": 63,
      "start": 18.38,
      "duration": 0.1949,
      "velocity": 98,
      "chip": "ym2612"
    },
    {
      "channel": 2,
      "note": 81,
      "start": 18.3838,
      "duration": 0.0911,
      "velocity": 121,
      "chip": "ym2612"
    },
    {
      "channel": 4,
      "note": 78,
      "start": 18.6126,
      "duration": 0.413,
      "velocity": 96,
      "chip": "ym2612"
    },
    {
      "channel": 5,
      "note": 85,
      "start": 18.6165,
      "duration": 0.3756,
      "velocity": 96,
      "chip": "ym2612"
    },
    {
      "channel": 3,
      "note": 66,
      "start": 18.6623,
      "duration": 0.4649,
      "velocity": 98,
      "chip": "ym2612"
    },
    {
      "channel": 1,
      "note": 66,
      "start": 18.6658,
      "duration": 0.4613,
      "velocity": 98,
      "chip": "ym2612"
    },
    {
      "channel": 2,
      "note": 81,
      "start": 18.8966,
      "duration": 0.1292,
      "velocity": 104,
      "chip": "ym2612"
    },
    {
      "channel": 4,
      "note": 76,
      "start": 19.1317,
      "duration": 0.1276,
      "velocity": 96,
      "chip": "ym2612"
    },
    {
      "channel": 5,
      "note": 83,
      "start": 19.135,
      "duration": 0.1244,
      "velocity": 96,
      "chip": "ym2612"
    },
    {
      "channel": 3,
      "note": 64,
      "start": 19.1801,
      "duration": 0.079,
      "velocity": 98,
      "chip": "ym2612"
    },
    {
      "channel": 1,
      "note": 64,
      "start": 19.184,
      "duration": 0.075,
      "velocity": 98,
      "chip": "ym2612"
    },
    {
      "channel": 3,
      "note": 64,
      "start": 19.298,
      "duration": 0.1115,
      "velocity": 98,
      "chip": "ym2612"
    },
    {
      "channel": 1,
      "note": 64,
      "start": 19.3014,
      "duration": 0.1079,
      "velocity": 98,
      "chip": "ym2612"
    },
    {
      "channel": 4,
      "note": 83,
      "start": 19.3051,
      "duration": 0.0376,
      "velocity": 96,
      "chip": "ym2612"
    },
    {
      "channel": 5,
      "note": 76,
      "start": 19.3084,
      "duration": 0.0344,
      "velocity": 96,
      "chip": "ym2612"
    },
    {
      "channel": 2,
      "note": 81,
      "start": 19.4137,
      "duration": 0.1124,
      "velocity": 104,
      "chip": "ym2612"
    },
    {
      "channel": 3,
      "note": 63,
      "start": 19.5634,
      "duration": 0.6137,
      "velocity": 98,
      "chip": "ym2612"
    },
    {
      "channel": 1,
      "note": 63,
      "start": 19.5668,
      "duration": 0.6101,
      "velocity": 98,
      "chip": "ym2612"
    },
    {
      "channel": 4,
      "note": 82,
      "start": 19.5705,
      "duration": 0.8083,
      "velocity": 96,
      "chip": "ym2612"
    },
    {
      "channel": 5,
      "note": 75,
      "start": 19.5743,
      "duration": 0.7697,
      "velocity": 96,
      "chip": "ym2612"
    },
    {
      "channel": 2,
      "note": 81,
      "start": 19.931,
      "duration": 0.1141,
      "velocity": 104,
      "chip": "ym2612"
    },
    {
      "channel": 3,
      "note": 58,
      "start": 20.1976,
      "duration": 0.0796,
      "velocity": 98,
      "chip": "ym2612"
    },
    {
      "channel": 1,
      "note": 58,
      "start": 20.2011,
      "duration": 0.076,
      "velocity": 98,
      "chip": "ym2612"
    },
    {
      "channel": 4,
      "note": 75,
      "start": 20.4151,
      "duration": 0.1625,
      "velocity": 96,
      "chip": "ym2612"
    },
    {
      "channel": 3,
      "note": 58,
      "start": 20.4313,
      "duration": 0.1461,
      "velocity": 98,
      "chip": "ym2612"
    },
    {
      "channel": 1,
      "note": 58,
      "start": 20.4348,
      "duration": 0.1426,
      "velocity": 98,
      "chip": "ym2612"
    },
    {
      "channel": 2,
      "note": 81,
      "start": 20.4384,
      "duration": 0.1073,
      "velocity": 104,
      "chip": "ym2612"
    },
    {
      "channel": 4,
      "note": 78,
      "start": 20.6987,
      "duration": 0.3961,
      "velocity": 96,
      "chip": "ym2612"
    },
    {
      "channel": 5,
      "note": 85,
      "start": 20.702,
      "duration": 0.393,
      "velocity": 96,
      "chip": "ym2612"
    },
    {
      "channel": 3,
      "note": 66,
      "start": 20.717,
      "duration": 0.4614,
      "velocity": 98,
      "chip": "ym2612"
    },
    {
      "channel": 1,
      "note": 66,
      "start": 20.7204,
      "duration": 0.4578,
      "velocity": 98,
      "chip": "ym2612"
    },
    {
      "channel": 2,
      "note": 81,
      "start": 20.9489,
      "duration": 0.1128,
      "velocity": 104,
      "chip": "ym2612"
    },
    {
      "channel": 3,
      "note": 64,
      "start": 21.2171,
      "duration": 0.0795,
      "velocity": 98,
      "chip": "ym2612"
    },
    {
      "channel": 1,
      "note": 64,
      "start": 21.221,
      "duration": 0.0755,
      "velocity": 98,
      "chip": "ym2612"
    },
    {
      "channel": 4,
      "note": 76,
      "start": 21.2327,
      "duration": 0.0958,
      "velocity": 96,
      "chip": "ym2612"
    },
    {
      "channel": 5,
      "note": 83,
      "start": 21.2359,
      "duration": 0.0927,
      "velocity": 96,
      "chip": "ym2612"
    },
    {
      "channel": 3,
      "note": 64,
      "start": 21.3327,
      "duration": 0.1128,
      "velocity": 98,
      "chip": "ym2612"
    },
    {
      "channel": 1,
      "note": 64,
      "start": 21.3361,
      "duration": 0.1093,
      "velocity": 98,
      "chip": "ym2612"
    },
    {
      "channel": 4,
      "note": 76,
      "start": 21.3667,
      "duration": 0.0287,
      "velocity": 96,
      "chip": "ym2612"
    },
    {
      "channel": 5,
      "note": 83,
      "start": 21.3701,
      "duration": 0.0586,
      "velocity": 96,
      "chip": "ym2612"
    },
    {
      "channel": 2,
      "note": 81,
      "start": 21.4679,
      "duration": 0.1277,
      "velocity": 104,
      "chip": "ym2612"
    },
    {
      "channel": 3,
      "note": 63,
      "start": 21.5995,
      "duration": 0.647,
      "velocity": 98,
      "chip": "ym2612"
    },
    {
      "channel": 1,
      "note": 63,
      "start": 21.6029,
      "duration": 0.6434,
      "velocity": 98,
      "chip": "ym2612"
    },
    {
      "channel": 4,
      "note": 75,
      "start": 21.6164,
      "duration": 0.6815,
      "velocity": 96,
      "chip": "ym2612"
    },
    {
      "channel": 5,
      "note": 82,
      "start": 21.6198,
      "duration": 0.7101,
      "velocity": 96,
      "chip": "ym2612"
    },
    {
      "channel": 2,
      "note": 81,
      "start": 21.9836,
      "duration": 0.1293,
      "velocity": 104,
      "chip": "ym2612"
    },
    {
      "channel": 3,
      "note": 58,
      "start": 22.2505,
      "duration": 0.0961,
      "velocity": 98,
      "chip": "ym2612"
    },
    {
      "channel": 1,
      "note": 58,
      "start": 22.2539,
      "duration": 0.0925,
      "velocity": 98,
      "chip": "ym2612"
    },
    {
      "channel": 4,
      "note": 75,
      "start": 22.401,
      "duration": 0.2459,
      "velocity": 96,
      "chip": "ym2612"
    },
    {
      "channel": 3,
      "note": 58,
      "start": 22.5004,
      "duration": 0.1314,
      "velocity": 98,
      "chip": "ym2612"
    },
    {
      "channel": 1,
      "note": 58,
      "start": 22.5037,
      "duration": 0.128,
      "velocity": 98,
      "chip": "ym2612"
    },
    {
      "channel": 2,
      "note": 81,
      "start": 22.5077,
      "duration": 0.1393,
      "velocity": 104,
      "chip": "ym2612"
    },
    {
      "channel": 4,
      "note": 80,
      "start": 22.735,
      "duration": 0.3138,
      "velocity": 96,
      "chip": "ym2612"
    },
    {
      "channel": 5,
      "note": 75,
      "start": 22.7384,
      "duration": 0.3424,
      "velocity": 96,
      "chip": "ym2612"
    },
    {
      "channel": 3,
      "note": 56,
      "start": 22.7514,
      "duration": 0.2794,
      "velocity": 98,
      "chip": "ym2612"
    },
    {
      "channel": 1,
      "note": 56,
      "start": 22.7552,
      "duration": 0.2754,
      "velocity": 98,
      "chip": "ym2612"
    },
    {
      "channel": 2,
      "note": 81,
      "start": 23.0181,
      "duration": 0.1463,
      "velocity": 104,
      "chip": "ym2612"
    },
    {
      "channel": 3,
      "note": 54,
      "start": 23.1014,
      "duration": 0.2964,
      "velocity": 98,
      "chip": "ym2612"
    },
    {
      "channel": 1,
      "note": 54,
      "start": 23.1049,
      "duration": 0.2929,
      "velocity": 98,
      "chip": "ym2612"
    },
    {
      "channel": 4,
      "note": 78,
      "start": 23.1184,
      "duration": 0.3477,
      "velocity": 96,
      "chip": "ym2612"
    },
    {
      "channel": 5,
      "note": 73,
      "start": 23.1216,
      "duration": 0.3446,
      "velocity": 96,
      "chip": "ym2612"
    },
    {
      "channel": 2,
      "note": 81,
      "start": 23.2687,
      "duration": 0.1294,
      "velocity": 121,
      "chip": "ym2612"
    },
    {
      "channel": 4,
      "note": 80,
      "start": 23.5024,
      "duration": 0.0956,
      "velocity": 96,
      "chip": "ym2612"
    },
    {
      "channel": 5,
      "note": 75,
      "start": 23.5058,
      "duration": 0.1091,
      "velocity": 96,
      "chip": "ym2612"
    },
    {
      "channel": 3,
      "note": 56,
      "start": 23.5351,
      "duration": 0.1814,
      "velocity": 98,
      "chip": "ym2612"
    },
    {
      "channel": 1,
      "note": 56,
      "start": 23.5384,
      "duration": 0.1779,
      "velocity": 98,
      "chip": "ym2612"
    },
    {
      "channel": 2,
      "note": 81,
      "start": 23.5421,
      "duration": 0.2063,
      "velocity": 104,
      "chip": "ym2612"
    },
    {
      "channel": 3,
      "note": 56,
      "start": 23.9523,
      "duration": 0.0979,
      "velocity": 98,
      "chip": "ym2612"
    },
    {
      "channel": 1,
      "note": 56,
      "start": 23.9558,
      "duration": 0.0943,
      "velocity": 98,
      "chip": "ym2612"
    },
    {
      "channel": 4,
      "note": 73,
      "start": 23.9599,
      "duration": 0.2572,
      "velocity": 96,
      "chip": "ym2612"
    },
    {
      "channel": 3,
      "note": 56,
      "start": 24.0542,
      "duration": 0.1448,
      "velocity": 98,
      "chip": "ym2612"
    },
    {
      "channel": 1,
      "note": 56,
      "start": 24.0577,
      "duration": 0.1412,
      "velocity": 98,
      "chip": "ym2612"
    },
    {
      "channel": 5,
      "note": 80,
      "start": 24.0614,
      "duration": 0.1558,
      "velocity": 96,
      "chip": "ym2612"
    },
    {
      "channel": 2,
      "note": 81,
      "start": 24.0664,
      "duration": 0.1509,
      "velocity": 104,
      "chip": "ym2612"
    },
    {
      "channel": 3,
      "note": 54,
      "start": 24.3172,
      "duration": 0.182,
      "velocity": 98,
      "chip": "ym2612"
    },
    {
      "channel": 1,
      "note": 54,
      "start": 24.3206,
      "duration": 0.1785,
      "velocity": 98,
      "chip": "ym2612"
    },
    {
      "channel": 4,
      "note": 78,
      "start": 24.3243,
      "duration": 0.1751,
      "velocity": 96,
      "chip": "ym2612"
    },
    {
      "channel": 5,
      "note": 73,
      "start": 24.3275,
      "duration": 0.172,
      "velocity": 96,
      "chip": "ym2612"
    },
    {
      "channel": 2,
      "note": 81,
      "start": 24.3329,
      "duration": 0.0998,
      "velocity": 121,
      "chip": "ym2612"
    },
    {
      "channel": 3,
      "note": 56,
      "start": 24.5549,
      "duration": 0.128,
      "velocity": 98,
      "chip": "ym2612"
    },
    {
      "channel": 1,
      "note": 56,
      "start": 24.5582,
      "duration": 0.1246,
      "velocity": 98,
      "chip": "ym2612"
    },
    {
      "channel": 4,
      "note": 75,
      "start": 24.5619,
      "duration": 0.1041,
      "velocity": 96,
      "chip": "ym2612"
    },
    {
      "channel": 5,
      "note": 80,
      "start": 24.5652,
      "duration": 0.101,
      "velocity": 96,
      "chip": "ym2612"
    },
    {
      "channel": 2,
      "note": 81,
      "start": 24.5707,
      "duration": 0.1623,
      "velocity": 104,
      "chip": "ym2612"
    },
    {
      "channel": 3,
      "note": 56,
      "start": 24.8199,
      "duration": 0.1634,
      "velocity": 98,
      "chip": "ym2612"
    },
    {
      "channel": 1,
      "note": 56,
      "start": 24.8236,
      "duration": 0.1596,
      "velocity": 98,
      "chip": "ym2612"
    },
    {
      "channel": 4,
      "note": 80,
      "start": 24.8271,
      "duration": 0.0893,
      "velocity": 96,
      "chip": "ym2612"
    },
    {
      "channel": 5,
      "note": 75,
      "start": 24.8308,
      "duration": 0.0858,
      "velocity": 96,
      "chip": "ym2612"
    },
    {
      "channel": 3,
      "note": 56,
      "start": 25.0701,
      "duration": 0.1802,
      "velocity": 98,
      "chip": "ym2612"
    },
    {
      "channel": 1,
      "note": 56,
      "start": 25.0732,
      "duration": 0.177,
      "velocity": 98,
      "chip": "ym2612"
    },
    {
      "channel": 4,
      "note": 75,
      "start": 25.0768,
      "duration": 0.1067,
      "velocity": 96,
      "chip": "ym2612"
    },
    {
      "channel": 5,
      "note": 80,
      "start": 25.08,
      "duration": 0.1036,
      "velocity": 96,
      "chip": "ym2612"
    },
    {
      "channel": 2,
      "note": 81,
      "start": 25.0853,
      "duration": 0.1652,
      "velocity": 104,
      "chip": "ym2612"
    },
    {
      "channel": 3,
      "note": 56,
      "start": 25.3375,
      "duration": 0.1465,
      "velocity": 98,
      "chip": "ym2612"
    },
    {
      "channel": 1,
      "note": 56,
      "start": 25.3409,
      "duration": 0.1429,
      "velocity": 98,
      "chip": "ym2612"
    },
    {
      "channel": 4,
      "note": 75,
      "start": 25.3444,
      "duration": 0.0893,
      "velocity": 96,
      "chip": "ym2612"
    },
    {
      "channel": 5,
      "note": 80,
      "start": 25.3477,
      "duration": 0.0862,
      "velocity": 96,
      "chip": "ym2612"
    },
    {
      "channel": 2,
      "note": 81,
      "start": 25.3529,
      "duration": 0.0978,
      "velocity": 121,
      "chip": "ym2612"
    },
    {
      "channel": 4,
      "note": 73,
      "start": 25.4884,
      "duration": 0.0637,
      "velocity": 96,
      "chip": "ym2612"
    },
    {
      "channel": 5,
      "note": 78,
      "start": 25.4918,
      "duration": 0.0256,
      "velocity": 96,
      "chip": "ym2612"
    },
    {
      "channel": 3,
      "note": 54,
      "start": 25.5046,
      "duration": 0.0795,
      "velocity": 98,
      "chip": "ym2612"
    },
    {
      "channel": 1,
      "note": 54,
      "start": 25.508,
      "duration": 0.076,
      "velocity": 98,
      "chip": "ym2612"
    },
    {
      "channel": 4,
      "note": 80,
      "start": 25.5721,
      "duration": 0.0636,
      "velocity": 96,
      "chip": "ym2612"
    },
    {
      "channel": 3,
      "note": 56,
      "start": 25.588,
      "duration": 0.0796,
      "velocity": 98,
      "chip": "ym2612"
    },
    {
      "channel": 1,
      "note": 56,
      "start": 25.5912,
      "duration": 0.0762,
      "velocity": 98,
      "chip": "ym2612"
    },
    {
      "channel": 5,
      "note": 75,
      "start": 25.5949,
      "duration": 0.0559,
      "velocity": 96,
      "chip": "ym2612"
    },
    {
      "channel": 2,
      "note": 81,
      "start": 25.5992,
      "duration": 0.1853,
      "velocity": 104,
      "chip": "ym2612"
    },
    {
      "channel": 4,
      "note": 82,
      "start": 25.7388,
      "duration": 1.631,
      "velocity": 96,
      "chip": "ym2612"
    },
    {
      "channel": 5,
      "note": 75,
      "start": 25.7554,
      "duration": 1.0802,
      "velocity": 96,
      "chip": "ym2612"
    },
    {
      "channel": 3,
      "note": 58,
      "start": 25.789,
      "duration": 1.5806,
      "velocity": 98,
      "chip": "ym2612"
    },
    {
      "channel": 1,
      "note": 58,
      "start": 25.7928,
      "duration": 1.5767,
      "velocity": 98,
      "chip": "ym2612"
    },
    {
      "channel": 2,
      "note": 81,
      "start": 26.1056,
      "duration": 0.1976,
      "velocity": 104,
      "chip": "ym2612"
    },
    {
      "channel": 2,
      "note": 81,
      "start": 26.3723,
      "duration": 0.1129,
      "velocity": 121,
      "chip": "ym2612"
    },
    {
      "channel": 5,
      "note": 77,
      "start": 26.8567,
      "duration": 0.9635,
      "velocity": 96,
      "chip": "ym2612"
    },
    {
      "channel": 2,
      "note": 81,
      "start": 27.142,
      "duration": 0.1276,
      "velocity": 104,
      "chip": "ym2612"
    },
    {
      "channel": 4,
      "note": 70,
      "start": 27.3928,
      "duration": 0.5109,
      "velocity": 96,
      "chip": "ym2612"
    },
    {
      "channel": 2,
      "note": 81,
      "start": 27.3976,
      "duration": 0.1223,
      "velocity": 121,
      "chip": "ym2612"
    },
    {
      "channel": 2,
      "note": 81,
      "start": 27.6575,
      "duration": 0.1127,
      "velocity": 104,
      "chip": "ym2612"
    },
    {
      "channel": 0,
      "note": 70,
      "start": 27.9071,
      "duration": 0.3801,
      "velocity": 95,
      "chip": "ym2612"
    },
    {
      "channel": 3,
      "note": 58,
      "start": 27.9107,
      "duration": 0.1447,
      "velocity": 98,
      "chip": "ym2612"
    },
    {
      "channel": 1,
      "note": 46,
      "start": 28.1078,
      "duration": 0.1143,
      "velocity": 98,
      "chip": "ym2612"
    },
    {
      "channel": 3,
      "note": 63,
      "start": 28.175,
      "duration": 0.1124,
      "velocity": 98,
      "chip": "ym2612"
    },
    {
      "channel": 2,
      "note": 81,
      "start": 28.179,
      "duration": 0.1086,
      "velocity": 104,
      "chip": "ym2612"
    },
    {
      "channel": 1,
      "note": 51,
      "start": 28.3578,
      "duration": 0.1298,
      "velocity": 98,
      "chip": "ym2612"
    },
    {
      "channel": 3,
      "note": 66,
      "start": 28.4246,
      "duration": 0.1632,
      "velocity": 98,
      "chip": "ym2612"
    },
    {
      "channel": 2,
      "note": 81,
      "start": 28.4281,
      "duration": 0.1279,
      "velocity": 121,
      "chip": "ym2612"
    },
    {
      "channel": 0,
      "note": 75,
      "start": 28.441,
      "duration": 0.0798,
      "velocity": 95,
      "chip": "ym2612"
    },
    {
      "channel": 1,
      "note": 54,
      "start": 28.6249,
      "duration": 0.1132,
      "velocity": 98,
      "chip": "ym2612"
    },
    {
      "channel": 3,
      "note": 63,
      "start": 28.675,
      "duration": 0.1312,
      "velocity": 98,
      "chip": "ym2612"
    },
    {
      "channel": 2,
      "note": 81,
      "start": 28.6799,
      "duration": 0.1083,
      "velocity": 104,
      "chip": "ym2612"
    },
    {
      "channel": 0,
      "note": 81,
      "start": 28.8584,
      "duration": 1.0811,
      "velocity": 95,
      "chip": "ym2612"
    },
    {
      "channel": 1,
      "note": 51,
      "start": 28.8753,
      "duration": 0.1296,
      "velocity": 98,
      "chip": "ym2612"
    },
    {
      "channel": 3,
      "note": 60,
      "start": 28.942,
      "duration": 0.163,
      "velocity": 98,
      "chip": "ym2612"
    },
    {
      "channel": 1,
      "note": 48,
      "start": 29.1255,
      "duration": 0.1297,
      "velocity": 98,
      "chip": "ym2612"
    },
    {
      "channel": 3,
      "note": 63,
      "start": 29.1924,
      "duration": 0.1297,
      "velocity": 98,
      "chip": "ym2612"
    },
    {
      "channel": 5,
      "note": 72,
      "start": 29.1963,
      "duration": 0.5933,
      "velocity": 98,
      "chip": "ym2612"
    },
    {
      "channel": 4,
      "note": 75,
      "start": 29.1996,
      "duration": 0.5898,
      "velocity": 98,
      "chip": "ym2612"
    },
    {
      "channel": 2,
      "note": 69,
      "start": 29.2031,
      "duration": 0.2579,
      "velocity": 98,
      "chip": "ym2612"
    },
    {
      "channel": 1,
      "note": 51,
      "start": 29.3941,
      "duration": 0.1282,
      "velocity": 98,
      "chip": "ym2612"
    },
    {
      "channel": 3,
      "note": 66,
      "start": 29.4598,
      "duration": 0.1459,
      "velocity": 98,
      "chip": "ym2612"
    },
    {
      "channel": 2,
      "note": 81,
      "start": 29.4634,
      "duration": 0.1091,
      "velocity": 121,
      "chip": "ym2612"
    },
    {
      "channel": 1,
      "note": 54,
      "start": 29.6444,
      "duration": 0.1283,
      "velocity": 98,
      "chip": "ym2612"
    },
    {
      "channel": 3,
      "note": 62,
      "start": 29.7097,
      "duration": 0.1633,
      "velocity": 98,
      "chip": "ym2612"
    },
    {
      "channel": 2,
      "note": 81,
      "start": 29.7144,
      "duration": 0.1254,
      "velocity": 104,
      "chip": "ym2612"
    },
    {
      "channel": 4,
      "note": 72,
      "start": 29.8774,
      "duration": 0.1457,
      "velocity": 98,
      "chip": "ym2612"
    },
    {
      "channel": 5,
      "note": 78,
      "start": 29.8808,
      "duration": 0.1257,
      "velocity": 98,
      "chip": "ym2612"
    },
    {
      "channel": 1,
      "note": 75,
      "start": 29.8848,
      "duration": 0.1215,
      "velocity": 98,
      "chip": "ym2612"
    },
    {
      "channel": 2,
      "note": 50,
      "start": 29.9103,
      "duration": 0.113,
      "velocity": 98,
      "chip": "ym2612"
    },
    {
      "channel": 3,
      "note": 63,
      "start": 29.9783,
      "duration": 0.145,
      "velocity": 98,
      "chip": "ym2612"
    },
    {
      "channel": 2,
      "note": 51,
      "start": 30.1603,
      "duration": 0.1298,
      "velocity": 98,
      "chip": "ym2612"
    },
    {
      "channel": 3,
      "note": 58,
      "start": 30.2285,
      "duration": 0.1632,
      "velocity": 98,
      "chip": "ym2612"
    },
    {
      "channel": 0,
      "note": 70,
      "start": 30.2324,
      "duration": 0.1242,
      "velocity": 96,
      "chip": "ym2612"
    },
    {
      "channel": 1,
      "note": 82,
      "start": 30.2436,
      "duration": 0.1132,
      "velocity": 95,
      "chip": "ym2612"
    },
    {
      "channel": 0,
      "note": 71,
      "start": 30.396,
      "duration": 0.0941,
      "velocity": 96,
      "chip": "ym2612"
    },
    {
      "channel": 1,
      "note": 83,
      "start": 30.4268,
      "duration": 0.0968,
      "velocity": 95,
      "chip": "ym2612"
    },
    {
      "channel": 2,
      "note": 46,
      "start": 30.4314,
      "duration": 0.0717,
      "velocity": 98,
      "chip": "ym2612"
    },
    {
      "channel": 5,
      "note": 82,
      "start": 30.4943,
      "duration": 0.0964,
      "velocity": 95,
      "chip": "ym2612"
    },
    {
      "channel": 3,
      "note": 63,
      "start": 30.4988,
      "duration": 0.1433,
      "velocity": 98,
      "chip": "ym2612"
    },
    {
      "channel": 0,
      "note": 70,
      "start": 30.5024,
      "duration": 0.088,
      "velocity": 96,
      "chip": "ym2612"
    },
    {
      "channel": 2,
      "note": 81,
      "start": 30.5055,
      "duration": 0.1018,
      "velocity": 121,
      "chip": "ym2612"
    },
    {
      "channel": 0,
      "note": 66,
      "start": 30.6464,
      "duration": 0.0441,
      "velocity": 96,
      "chip": "ym2612"
    },
    {
      "channel": 1,
      "note": 78,
      "start": 30.6606,
      "duration": 0.0649,
      "velocity": 95,
      "chip": "ym2612"
    },
    {
      "channel": 4,
      "note": 51,
      "start": 30.6783,
      "duration": 0.1308,
      "velocity": 98,
      "chip": "ym2612"
    },
    {
      "channel": 3,
      "note": 65,
      "start": 30.7454,
      "duration": 0.147,
      "velocity": 98,
      "chip": "ym2612"
    },
    {
      "channel": 0,
      "note": 63,
      "start": 30.7492,
      "duration": 0.0596,
      "velocity": 96,
      "chip": "ym2612"
    },
    {
      "channel": 2,
      "note": 81,
      "start": 30.7535,
      "duration": 0.139,
      "velocity": 104,
      "chip": "ym2612"
    },
    {
      "channel": 1,
      "note": 75,
      "start": 30.7607,
      "duration": 0.0634,
      "velocity": 95,
      "chip": "ym2612"
    },
    {
      "channel": 0,
      "note": 69,
      "start": 30.8969,
      "duration": 0.8783,
      "velocity": 96,
      "chip": "ym2612"
    },
    {
      "channel": 1,
      "note": 81,
      "start": 30.911,
      "duration": 0.8643,
      "velocity": 95,
      "chip": "ym2612"
    },
    {
      "channel": 4,
      "note": 53,
      "start": 30.9447,
      "duration": 0.1145,
      "velocity": 98,
      "chip": "ym2612"
    },
    {
      "channel": 3,
      "note": 66,
      "start": 30.9946,
      "duration": 0.1799,
      "velocity": 98,
      "chip": "ym2612"
    },
    {
      "channel": 4,
      "note": 54,
      "start": 31.1949,
      "duration": 0.13,
      "velocity": 98,
      "chip": "ym2612"
    },
    {
      "channel": 3,
      "note": 65,
      "start": 31.2616,
      "duration": 0.1466,
      "velocity": 98,
      "chip": "ym2612"
    },
    {
      "channel": 5,
      "note": 81,
      "start": 31.2655,
      "duration": 0.0147,
      "velocity": 98,
      "chip": "ym2612"
    },
    {
      "channel": 2,
      "note": 81,
      "start": 31.2701,
      "duration": 0.0065,
      "velocity": 104,
      "chip": "ym2612"
    },
    {
      "channel": 2,
      "note": 72,
      "start": 31.2793,
      "duration": 0.2337,
      "velocity": 98,
      "chip": "ym2612"
    },
    {
      "channel": 5,
      "note": 78,
      "start": 31.2829,
      "duration": 0.7095,
      "velocity": 98,
      "chip": "ym2612"
    },
    {
      "channel": 4,
      "note": 53,
      "start": 31.4453,
      "duration": 0.1297,
      "velocity": 98,
      "chip": "ym2612"
    },
    {
      "channel": 3,
      "note": 63,
      "start": 31.5118,
      "duration": 0.1466,
      "velocity": 98,
      "chip": "ym2612"
    },
    {
      "channel": 2,
      "note": 81,
      "start": 31.5154,
      "duration": 0.1279,
      "velocity": 121,
      "chip": "ym2612"
    },
    {
      "channel": 4,
      "note": 51,
      "start": 31.7124,
      "duration": 0.1297,
      "velocity": 98,
      "chip": "ym2612"
    },
    {
      "channel": 3,
      "note": 60,
      "start": 31.7796,
      "duration": 0.1627,
      "velocity": 98,
      "chip": "ym2612"
    },
    {
      "channel": 2,
      "note": 81,
      "start": 31.7843,
      "duration": 0.2082,
      "velocity": 104,
      "chip": "ym2612"
    },
    {
      "channel": 4,
      "note": 48,
      "start": 31.9629,
      "duration": 0.1295,
      "velocity": 98,
      "chip": "ym2612"
    },
    {
      "channel": 1,
      "note": 70,
      "start": 32.0291,
      "duration": 0.1147,
      "velocity": 95,
      "chip": "ym2612"
    },
    {
      "channel": 3,
      "note": 63,
      "start": 32.0336,
      "duration": 0.159,
      "velocity": 98,
      "chip": "ym2612"
    },
    {
      "channel": 5,
      "note": 78,
      "start": 32.0374,
      "duration": 0.1385,
      "velocity": 98,
      "chip": "ym2612"
    },
    {
      "channel": 0,
      "note": 82,
      "start": 32.0413,
      "duration": 0.1511,
      "velocity": 98,
      "chip": "ym2612"
    },
    {
      "channel": 2,
      "note": 72,
      "start": 32.0449,
      "duration": 0.148,
      "velocity": 98,
      "chip": "ym2612"
    },
    {
      "channel": 4,
      "note": 51,
      "start": 32.2312,
      "duration": 0.1113,
      "velocity": 98,
      "chip": "ym2612"
    },
    {
      "channel": 3,
      "note": 58,
      "start": 32.2964,
      "duration": 0.163,
      "velocity": 98,
      "chip": "ym2612"
    },
    {
      "channel": 2,
      "note": 81,
      "start": 32.3002,
      "duration": 0.1594,
      "velocity": 104,
      "chip": "ym2612"
    },
    {
      "channel": 4,
      "note": 46,
      "start": 32.4814,
      "duration": 0.1283,
      "velocity": 98,
      "chip": "ym2612"
    },
    {
      "channel": 3,
      "note": 63,
      "start": 32.5466,
      "duration": 0.1465,
      "velocity": 98,
      "chip": "ym2612"
    },
    {
      "channel": 2,
      "note": 81,
      "start": 32.5505,
      "duration": 0.1261,
      "velocity": 121,
      "chip": "ym2612"
    },
    {
      "channel": 1,
      "note": 75,
      "start": 32.5644,
      "duration": 0.08,
      "velocity": 95,
      "chip": "ym2612"
    },
    {
      "channel": 4,
      "note": 51,
      "start": 32.7469,
      "duration": 0.1132,
      "velocity": 98,
      "chip": "ym2612"
    },
    {
      "channel": 3,
      "note": 66,
      "start": 32.7969,
      "duration": 0.1465,
      "velocity": 98,
      "chip": "ym2612"
    },
    {
      "channel": 2,
      "note": 81,
      "start": 32.8014,
      "duration": 0.1771,
      "velocity": 104,
      "chip": "ym2612"
    },
    {
      "channel": 1,
      "note": 81,
      "start": 32.9474,
      "duration": 1.0974,
      "velocity": 95,
      "chip": "ym2612"
    },
    {
      "channel": 4,
      "note": 54,
      "start": 32.9973,
      "duration": 0.1297,
      "velocity": 98,
      "chip": "ym2612"
    },
    {
      "channel": 3,
      "note": 63,
      "start": 33.0653,
      "duration": 0.1451,
      "velocity": 98,
      "chip": "ym2612"
    },
    {
      "channel": 4,
      "note": 51,
      "start": 33.2476,
      "duration": 0.1298,
      "velocity": 98,
      "chip": "ym2612"
    },
    {
      "channel": 3,
      "note": 66,
      "start": 33.3157,
      "duration": 0.1451,
      "velocity": 98,
      "chip": "ym2612"
    },
    {
      "channel": 0,
      "note": 81,
      "start": 33.3193,
      "duration": 0.7088,
      "velocity": 98,
      "chip": "ym2612"
    },
    {
      "channel": 2,
      "note": 81,
      "start": 33.3239,
      "duration": 0.0254,
      "velocity": 104,
      "chip": "ym2612"
    },
    {
      "channel": 5,
      "note": 72,
      "start": 33.3484,
      "duration": 0.6466,
      "velocity": 98,
      "chip": "ym2612"
    },
    {
      "channel": 2,
      "note": 78,
      "start": 33.3521,
      "duration": 0.2305,
      "velocity": 98,
      "chip": "ym2612"
    },
    {
      "channel": 4,
      "note": 54,
      "start": 33.5147,
      "duration": 0.1313,
      "velocity": 98,
      "chip": "ym2612"
    },
    {
      "channel": 3,
      "note": 69,
      "start": 33.5813,
      "duration": 0.1632,
      "velocity": 98,
      "chip": "ym2612"
    },
    {
      "channel": 2,
      "note": 81,
      "start": 33.5851,
      "duration": 0.1094,
      "velocity": 121,
      "chip": "ym2612"
    },
    {
      "channel": 4,
      "note": 57,
      "start": 33.765,
      "duration": 0.1312,
      "velocity": 98,
      "chip": "ym2612"
    },
    {
      "channel": 3,
      "note": 66,
      "start": 33.8317,
      "duration": 0.148,
      "velocity": 98,
      "chip": "ym2612"
    },
    {
      "channel": 2,
      "note": 81,
      "start": 33.8372,
      "duration": 0.1912,
      "velocity": 104,
      "chip": "ym2612"
    },
    {
      "channel": 4,
      "note": 54,
      "start": 34.0322,
      "duration": 0.1144,
      "velocity": 98,
      "chip": "ym2612"
    },
    {
      "channel": 3,
      "note": 70,
      "start": 34.0989,
      "duration": 0.1797,
      "velocity": 98,
      "chip": "ym2612"
    },
    {
      "channel": 0,
      "note": 77,
      "start": 34.1024,
      "duration": 0.1426,
      "velocity": 98,
      "chip": "ym2612"
    },
    {
      "channel": 5,
      "note": 82,
      "start": 34.1062,
      "duration": 0.1557,
      "velocity": 98,
      "chip": "ym2612"
    },
    {
      "channel": 2,
      "note": 70,
      "start": 34.1097,
      "duration": 0.1523,
      "velocity": 98,
      "chip": "ym2612"
    },
    {
      "channel": 4,
      "note": 58,
      "start": 34.2824,
      "duration": 0.1296,
      "velocity": 98,
      "chip": "ym2612"
    },
    {
      "channel": 3,
      "note": 65,
      "start": 34.349,
      "duration": 0.1965,
      "velocity": 98,
      "chip": "ym2612"
    },
    {
      "channel": 1,
      "note": 70,
      "start": 34.3529,
      "duration": 0.0924,
      "velocity": 96,
      "chip": "ym2612"
    },
    {
      "channel": 2,
      "note": 81,
      "start": 34.3562,
      "duration": 0.1895,
      "velocity": 104,
      "chip": "ym2612"
    },
    {
      "channel": 0,
      "note": 82,
      "start": 34.3658,
      "duration": 0.1143,
      "velocity": 95,
      "chip": "ym2612"
    },
    {
      "channel": 1,
      "note": 71,
      "start": 34.5164,
      "duration": 0.0625,
      "velocity": 96,
      "chip": "ym2612"
    },
    {
      "channel": 0,
      "note": 83,
      "start": 34.5489,
      "duration": 0.0982,
      "velocity": 95,
      "chip": "ym2612"
    },
    {
      "channel": 4,
      "note": 53,
      "start": 34.5533,
      "duration": 0.1092,
      "velocity": 98,
      "chip": "ym2612"
    },
    {
      "channel": 1,
      "note": 70,
      "start": 34.5833,
      "duration": 0.1123,
      "velocity": 96,
      "chip": "ym2612"
    },
    {
      "channel": 5,
      "note": 82,
      "start": 34.5993,
      "duration": 0.0965,
      "velocity": 95,
      "chip": "ym2612"
    },
    {
      "channel": 3,
      "note": 62,
      "start": 34.6038,
      "duration": 0.1922,
      "velocity": 98,
      "chip": "ym2612"
    },
    {
      "channel": 1,
      "note": 66,
      "start": 34.7666,
      "duration": 0.0959,
      "velocity": 96,
      "chip": "ym2612"
    },
    {
      "channel": 0,
      "note": 80,
      "start": 34.7825,
      "duration": 0.0634,
      "velocity": 95,
      "chip": "ym2612"
    },
    {
      "channel": 4,
      "note": 50,
      "start": 34.8002,
      "duration": 0.1292,
      "velocity": 98,
      "chip": "ym2612"
    },
    {
      "channel": 0,
      "note": 78,
      "start": 34.8665,
      "duration": 0.0795,
      "velocity": 95,
      "chip": "ym2612"
    },
    {
      "channel": 3,
      "note": 58,
      "start": 34.8712,
      "duration": 0.1932,
      "velocity": 98,
      "chip": "ym2612"
    },
    {
      "channel": 2,
      "note": 81,
      "start": 34.8759,
      "duration": 0.0871,
      "velocity": 121,
      "chip": "ym2612"
    },
    {
      "channel": 1,
      "note": 65,
      "start": 34.8841,
      "duration": 0.1801,
      "velocity": 96,
      "chip": "ym2612"
    },
    {
      "channel": 0,
      "note": 77,
      "start": 35.0329,
      "duration": 0.0632,
      "velocity": 95,
      "chip": "ym2612"
    },
    {
      "channel": 4,
      "note": 46,
      "start": 35.0683,
      "duration": 0.1116,
      "velocity": 98,
      "chip": "ym2612"
    },
    {
      "channel": 1,
      "note": 63,
      "start": 35.0838,
      "duration": 1.047,
      "velocity": 96,
      "chip": "ym2612"
    },
    {
      "channel": 0,
      "note": 75,
      "start": 35.1164,
      "duration": 1.8488,
      "velocity": 95,
      "chip": "ym2612"
    },
    {
      "channel": 3,
      "note": 63,
      "start": 35.1213,
      "duration": 0.1933,
      "velocity": 98,
      "chip": "ym2612"
    },
    {
      "channel": 5,
      "note": 82,
      "start": 35.1524,
      "duration": 0.0044,
      "velocity": 98,
      "chip": "ym2612"
    },
    {
      "channel": 2,
      "note": 87,
      "start": 35.1561,
      "duration": 1.943,
      "velocity": 98,
      "chip": "ym2612"
    },
    {
      "channel": 5,
      "note": 75,
      "start": 35.1595,
      "duration": 1.9394,
      "velocity": 98,
      "chip": "ym2612"
    },
    {
      "channel": 4,
      "note": 51,
      "start": 35.3185,
      "duration": 0.1282,
      "velocity": 98,
      "chip": "ym2612"
    },
    {
      "channel": 3,
      "note": 58,
      "start": 35.3836,
      "duration": 0.1814,
      "velocity": 98,
      "chip": "ym2612"
    },
    {
      "channel": 4,
      "note": 46,
      "start": 35.5689,
      "duration": 0.1281,
      "velocity": 98,
      "chip": "ym2612"
    },
    {
      "channel": 3,
      "note": 63,
      "start": 35.634,
      "duration": 0.1965,
      "velocity": 98,
      "chip": "ym2612"
    },
    {
      "channel": 4,
      "note": 51,
      "start": 35.8344,
      "duration": 0.1296,
      "velocity": 98,
      "chip": "ym2612"
    },
    {
      "channel": 3,
      "note": 70,
      "start": 35.9024,
      "duration": 0.1795,
      "velocity": 98,
      "chip": "ym2612"
    },
    {
      "channel": 4,
      "note": 58,
      "start": 36.0859,
      "duration": 0.1285,
      "velocity": 98,
      "chip": "ym2612"
    },
    {
      "channel": 3,
      "note": 70,
      "start": 36.1553,
      "duration": 0.2593,
      "velocity": 95,
      "chip": "ym2612"
    },
    {
      "channel": 1,
      "note": 58,
      "start": 36.163,
      "duration": 0.1346,
      "velocity": 98,
      "chip": "ym2612"
    },
    {
      "channel": 4,
      "note": 46,
      "start": 36.352,
      "duration": 0.1126,
      "velocity": 98,
      "chip": "ym2612"
    },
    {
      "channel": 1,
      "note": 63,
      "start": 36.4184,
      "duration": 0.113,
      "velocity": 98,
      "chip": "ym2612"
    },
    {
      "channel": 4,
      "note": 51,
      "start": 36.602,
      "duration": 0.1311,
      "velocity": 98,
      "chip": "ym2612"
    },
    {
      "channel": 3,
      "note": 75,
      "start": 36.6684,
      "duration": 0.2134,
      "velocity": 95,
      "chip": "ym2612"
    },
    {
      "channel": 1,
      "note": 66,
      "start": 36.6725,
      "duration": 0.1592,
      "velocity": 98,
      "chip": "ym2612"
    },
    {
      "channel": 4,
      "note": 54,
      "start": 36.8689,
      "duration": 0.1146,
      "velocity": 98,
      "chip": "ym2612"
    },
    {
      "channel": 1,
      "note": 63,
      "start": 36.9189,
      "duration": 0.1298,
      "velocity": 98,
      "chip": "ym2612"
    },
    {
      "channel": 0,
      "note": 81,
      "start": 37.071,
      "duration": 1.1125,
      "velocity": 95,
      "chip": "ym2612"
    },
    {
      "channel": 4,
      "note": 51,
      "start": 37.1194,
      "duration": 0.1296,
      "velocity": 98,
      "chip": "ym2612"
    },
    {
      "channel": 1,
      "note": 60,
      "start": 37.1859,
      "duration": 0.1631,
      "velocity": 98,
      "chip": "ym2612"
    },
    {
      "channel": 4,
      "note": 48,
      "start": 37.3695,
      "duration": 0.1298,
      "velocity": 98,
      "chip": "ym2612"
    },
    {
      "channel": 1,
      "note": 63,
      "start": 37.4366,
      "duration": 0.1309,
      "velocity": 98,
      "chip": "ym2612"
    },
    {
      "channel": 5,
      "note": 75,
      "start": 37.4403,
      "duration": 0.5932,
      "velocity": 98,
      "chip": "ym2612"
    },
    {
      "channel": 2,
      "note": 72,
      "start": 37.4437,
      "duration": 0.59,
      "velocity": 98,
      "chip": "ym2612"
    },
    {
      "channel": 3,
      "note": 69,
      "start": 37.4471,
      "duration": 0.5862,
      "velocity": 98,
      "chip": "ym2612"
    },
    {
      "channel": 4,
      "note": 51,
      "start": 37.6366,
      "duration": 0.1297,
      "velocity": 98,
      "chip": "ym2612"
    },
    {
      "channel": 1,
      "note": 66,
      "start": 37.7033,
      "duration": 0.1464,
      "velocity": 98,
      "chip": "ym2612"
    },
    {
      "channel": 4,
      "note": 54,
      "start": 37.8869,
      "duration": 0.131,
      "velocity": 98,
      "chip": "ym2612"
    },
    {
      "channel": 1,
      "note": 62,
      "start": 37.9537,
      "duration": 0.1634,
      "velocity": 98,
      "chip": "ym2612"
    },
    {
      "channel": 3,
      "note": 78,
      "start": 38.1215,
      "duration": 0.1454,
      "velocity": 98,
      "chip": "ym2612"
    },
    {
      "channel": 4,
      "note": 50,
      "start": 38.1556,
      "duration": 0.1115,
      "velocity": 98,
      "chip": "ym2612"
    },
    {
      "channel": 5,
      "note": 72,
      "start": 38.1591,
      "duration": 0.1413,
      "velocity": 98,
      "chip": "ym2612"
    },
    {
      "channel": 2,
      "note": 75,
      "start": 38.1631,
      "duration": 0.1041,
      "velocity": 98,
      "chip": "ym2612"
    },
    {
      "channel": 1,
      "note": 63,
      "start": 38.2217,
      "duration": 0.1455,
      "velocity": 98,
      "chip": "ym2612"
    },
    {
      "channel": 4,
      "note": 51,
      "start": 38.4058,
      "duration": 0.1282,
      "velocity": 98,
      "chip": "ym2612"
    },
    {
      "channel": 0,
      "note": 82,
      "start": 38.4706,
      "duration": 0.13,
      "velocity": 95,
      "chip": "ym2612"
    },
    {
      "channel": 1,
      "note": 58,
      "start": 38.4751,
      "duration": 0.1589,
      "velocity": 98,
      "chip": "ym2612"
    },
    {
      "channel": 3,
      "note": 70,
      "start": 38.4791,
      "duration": 0.1217,
      "velocity": 96,
      "chip": "ym2612"
    },
    {
      "channel": 2,
      "note": 81,
      "start": 38.4822,
      "duration": 0.0867,
      "velocity": 104,
      "chip": "ym2612"
    },
    {
      "channel": 0,
      "note": 83,
      "start": 38.6374,
      "duration": 0.1301,
      "velocity": 95,
      "chip": "ym2612"
    },
    {
      "channel": 3,
      "note": 71,
      "start": 38.6427,
      "duration": 0.0748,
      "velocity": 96,
      "chip": "ym2612"
    },
    {
      "channel": 4,
      "note": 46,
      "start": 38.6716,
      "duration": 0.1127,
      "velocity": 98,
      "chip": "ym2612"
    },
    {
      "channel": 5,
      "note": 82,
      "start": 38.7213,
      "duration": 0.1132,
      "velocity": 95,
      "chip": "ym2612"
    },
    {
      "channel": 1,
      "note": 63,
      "start": 38.7259,
      "duration": 0.1419,
      "velocity": 98,
      "chip": "ym2612"
    },
    {
      "channel": 3,
      "note": 70,
      "start": 38.73,
      "duration": 0.1044,
      "velocity": 96,
      "chip": "ym2612"
    },
    {
      "channel": 0,
      "note": 78,
      "start": 38.8713,
      "duration": 0.0631,
      "velocity": 95,
      "chip": "ym2612"
    },
    {
      "channel": 3,
      "note": 66,
      "start": 38.8763,
      "duration": 0.0582,
      "velocity": 96,
      "chip": "ym2612"
    },
    {
      "channel": 4,
      "note": 51,
      "start": 38.9217,
      "duration": 0.1299,
      "velocity": 98,
      "chip": "ym2612"
    },
    {
      "channel": 0,
      "note": 75,
      "start": 38.9894,
      "duration": 0.0618,
      "velocity": 95,
      "chip": "ym2612"
    },
    {
      "channel": 1,
      "note": 65,
      "start": 38.9935,
      "duration": 0.1412,
      "velocity": 98,
      "chip": "ym2612"
    },
    {
      "channel": 3,
      "note": 63,
      "start": 38.9971,
      "duration": 0.0543,
      "velocity": 96,
      "chip": "ym2612"
    },
    {
      "channel": 2,
      "note": 81,
      "start": 39.0015,
      "duration": 0.1168,
      "velocity": 104,
      "chip": "ym2612"
    },
    {
      "channel": 0,
      "note": 81,
      "start": 39.1386,
      "duration": 0.8805,
      "velocity": 95,
      "chip": "ym2612"
    },
    {
      "channel": 3,
      "note": 69,
      "start": 39.1438,
      "duration": 0.8755,
      "velocity": 96,
      "chip": "ym2612"
    },
    {
      "channel": 4,
      "note": 53,
      "start": 39.1886,
      "duration": 0.113,
      "velocity": 98,
      "chip": "ym2612"
    },
    {
      "channel": 1,
      "note": 66,
      "start": 39.24,
      "duration": 0.1783,
      "velocity": 98,
      "chip": "ym2612"
    },
    {
      "channel": 4,
      "note": 54,
      "start": 39.4389,
      "duration": 0.1312,
      "velocity": 98,
      "chip": "ym2612"
    },
    {
      "channel": 5,
      "note": 81,
      "start": 39.4911,
      "duration": 0.0194,
      "velocity": 98,
      "chip": "ym2612"
    },
    {
      "channel": 1,
      "note": 65,
      "start": 39.5056,
      "duration": 0.1479,
      "velocity": 98,
      "chip": "ym2612"
    },
    {
      "channel": 2,
      "note": 75,
      "start": 39.5095,
      "duration": 0.3762,
      "velocity": 98,
      "chip": "ym2612"
    },
    {
      "channel": 5,
      "note": 72,
      "start": 39.5132,
      "duration": 0.4227,
      "velocity": 98,
      "chip": "ym2612"
    },
    {
      "channel": 4,
      "note": 53,
      "start": 39.6893,
      "duration": 0.1312,
      "velocity": 98,
      "chip": "ym2612"
    },
    {
      "channel": 1,
      "note": 63,
      "start": 39.7562,
      "duration": 0.1477,
      "velocity": 98,
      "chip": "ym2612"
    },
    {
      "channel": 4,
      "note": 51,
      "start": 39.9563,
      "duration": 0.1299,
      "velocity": 98,
      "chip": "ym2612"
    },
    {
      "channel": 1,
      "note": 60,
      "start": 40.0231,
      "duration": 0.1632,
      "velocity": 98,
      "chip": "ym2612"
    },
    {
      "channel": 2,
      "note": 81,
      "start": 40.0282,
      "duration": 0.1415,
      "velocity": 104,
      "chip": "ym2612"
    },
    {
      "channel": 5,
      "note": 81,
      "start": 40.0405,
      "duration": 0.146,
      "velocity": 98,
      "chip": "ym2612"
    },
    {
      "channel": 0,
      "note": 75,
      "start": 40.0438,
      "duration": 0.1424,
      "velocity": 98,
      "chip": "ym2612"
    },
    {
      "channel": 3,
      "note": 72,
      "start": 40.0478,
      "duration": 0.1217,
      "velocity": 98,
      "chip": "ym2612"
    },
    {
      "channel": 4,
      "note": 48,
      "start": 40.2068,
      "duration": 0.1296,
      "velocity": 98,
      "chip": "ym2612"
    },
    {
      "channel": 3,
      "note": 70,
      "start": 40.2733,
      "duration": 0.1966,
      "velocity": 95,
      "chip": "ym2612"
    },
    {
      "channel": 1,
      "note": 63,
      "start": 40.2777,
      "duration": 0.1589,
      "velocity": 98,
      "chip": "ym2612"
    },
    {
      "channel": 0,
      "note": 82,
      "start": 40.2813,
      "duration": 0.1552,
      "velocity": 98,
      "chip": "ym2612"
    },
    {
      "channel": 5,
      "note": 75,
      "start": 40.2846,
      "duration": 0.1522,
      "velocity": 98,
      "chip": "ym2612"
    },
    {
      "channel": 2,
      "note": 72,
      "start": 40.2939,
      "duration": 0.126,
      "velocity": 98,
      "chip": "ym2612"
    },
    {
      "channel": 4,
      "note": 51,
      "start": 40.4737,
      "duration": 0.1138,
      "velocity": 98,
      "chip": "ym2612"
    },
    {
      "channel": 1,
      "note": 58,
      "start": 40.5404,
      "duration": 0.163,
      "velocity": 98,
      "chip": "ym2612"
    },
    {
      "channel": 2,
      "note": 81,
      "start": 40.544,
      "duration": 0.1428,
      "velocity": 104,
      "chip": "ym2612"
    },
    {
      "channel": 4,
      "note": 46,
      "start": 40.7238,
      "duration": 0.1298,
      "velocity": 98,
      "chip": "ym2612"
    },
    {
      "channel": 3,
      "note": 75,
      "start": 40.7903,
      "duration": 0.2134,
      "velocity": 95,
      "chip": "ym2612"
    },
    {
      "channel": 1,
      "note": 63,
      "start": 40.7953,
      "duration": 0.1416,
      "velocity": 98,
      "chip": "ym2612"
    },
    {
      "channel": 2,
      "note": 81,
      "start": 40.7991,
      "duration": 0.1214,
      "velocity": 121,
      "chip": "ym2612"
    },
    {
      "channel": 4,
      "note": 51,
      "start": 40.9923,
      "duration": 0.1117,
      "velocity": 98,
      "chip": "ym2612"
    },
    {
      "channel": 1,
      "note": 66,
      "start": 41.0408,
      "duration": 0.1467,
      "velocity": 98,
      "chip": "ym2612"
    },
    {
      "channel": 2,
      "note": 81,
      "start": 41.0455,
      "duration": 0.2087,
      "velocity": 104,
      "chip": "ym2612"
    },
    {
      "channel": 3,
      "note": 81,
      "start": 41.1744,
      "duration": 1.0977,
      "velocity": 95,
      "chip": "ym2612"
    },
    {
      "channel": 4,
      "note": 54,
      "start": 41.2428,
      "duration": 0.1281,
      "velocity": 98,
      "chip": "ym2612"
    },
    {
      "channel": 1,
      "note": 63,
      "start": 41.3078,
      "duration": 0.1466,
      "velocity": 98,
      "chip": "ym2612"
    },
    {
      "channel": 4,
      "note": 51,
      "start": 41.493,
      "duration": 0.1285,
      "velocity": 98,
      "chip": "ym2612"
    },
    {
      "channel": 1,
      "note": 66,
      "start": 41.558,
      "duration": 0.1466,
      "velocity": 98,
      "chip": "ym2612"
    },
    {
      "channel": 0,
      "note": 81,
      "start": 41.5616,
      "duration": 0.7438,
      "velocity": 98,
      "chip": "ym2612"
    },
    {
      "channel": 2,
      "note": 81,
      "start": 41.5668,
      "duration": 0.0267,
      "velocity": 104,
      "chip": "ym2612"
    },
    {
      "channel": 5,
      "note": 75,
      "start": 41.5922,
      "duration": 0.7468,
      "velocity": 98,
      "chip": "ym2612"
    },
    {
      "channel": 2,
      "note": 72,
      "start": 41.5962,
      "duration": 0.232,
      "velocity": 98,
      "chip": "ym2612"
    },
    {
      "channel": 4,
      "note": 54,
      "start": 41.7586,
      "duration": 0.1297,
      "velocity": 98,
      "chip": "ym2612"
    },
    {
      "channel": 1,
      "note": 69,
      "start": 41.8268,
      "duration": 0.163,
      "velocity": 98,
      "chip": "ym2612"
    },
    {
      "channel": 2,
      "note": 81,
      "start": 41.8307,
      "duration": 0.1078,
      "velocity": 121,
      "chip": "ym2612"
    },
    {
      "channel": 4,
      "note": 57,
      "start": 42.0088,
      "duration": 0.1299,
      "velocity": 98,
      "chip": "ym2612"
    },
    {
      "channel": 1,
      "note": 66,
      "start": 42.077,
      "duration": 0.1451,
      "velocity": 98,
      "chip": "ym2612"
    },
    {
      "channel": 2,
      "note": 81,
      "start": 42.082,
      "duration": 0.1585,
      "velocity": 104,
      "chip": "ym2612"
    },
    {
      "channel": 4,
      "note": 54,
      "start": 42.276,
      "duration": 0.1131,
      "velocity": 98,
      "chip": "ym2612"
    },
    {
      "channel": 1,
      "note": 63,
      "start": 42.3429,
      "duration": 0.1795,
      "velocity": 98,
      "chip": "ym2612"
    },
    {
      "channel": 4,
      "note": 51,
      "start": 42.5263,
      "duration": 0.1312,
      "velocity": 98,
      "chip": "ym2612"
    },
    {
      "channel": 3,
      "note": 82,
      "start": 42.5935,
      "duration": 0.0958,
      "velocity": 95,
      "chip": "ym2612"
    },
    {
      "channel": 1,
      "note": 58,
      "start": 42.5984,
      "duration": 0.191,
      "velocity": 98,
      "chip": "ym2612"
    },
    {
      "channel": 2,
      "note": 70,
      "start": 42.6023,
      "duration": 0.0872,
      "velocity": 96,
      "chip": "ym2612"
    },
    {
      "channel": 3,
      "note": 83,
      "start": 42.7594,
      "duration": 0.1135,
      "velocity": 95,
      "chip": "ym2612"
    },
    {
      "channel": 2,
      "note": 71,
      "start": 42.7649,
      "duration": 0.0596,
      "velocity": 96,
      "chip": "ym2612"
    },
    {
      "channel": 4,
      "note": 46,
      "start": 42.7937,
      "duration": 0.114,
      "velocity": 98,
      "chip": "ym2612"
    },
    {
      "channel": 0,
      "note": 82,
      "start": 42.8283,
      "duration": 0.1113,
      "velocity": 95,
      "chip": "ym2612"
    },
    {
      "channel": 2,
      "note": 70,
      "start": 42.8336,
      "duration": 0.1063,
      "velocity": 96,
      "chip": "ym2612"
    },
    {
      "channel": 1,
      "note": 63,
      "start": 42.8432,
      "duration": 0.1966,
      "velocity": 98,
      "chip": "ym2612"
    },
    {
      "channel": 0,
      "note": 78,
      "start": 42.9946,
      "duration": 0.0617,
      "velocity": 95,
      "chip": "ym2612"
    },
    {
      "channel": 2,
      "note": 66,
      "start": 42.9999,
      "duration": 0.0568,
      "velocity": 96,
      "chip": "ym2612"
    },
    {
      "channel": 4,
      "note": 51,
      "start": 43.0437,
      "duration": 0.1297,
      "velocity": 98,
      "chip": "ym2612"
    },
    {
      "channel": 1,
      "note": 69,
      "start": 43.1101,
      "duration": 0.1966,
      "velocity": 98,
      "chip": "ym2612"
    },
    {
      "channel": 2,
      "note": 81,
      "start": 43.115,
      "duration": 0.192,
      "velocity": 104,
      "chip": "ym2612"
    },
    {
      "channel": 0,
      "note": 75,
      "start": 43.1268,
      "duration": 0.0131,
      "velocity": 95,
      "chip": "ym2612"
    },
    {
      "channel": 5,
      "note": 63,
      "start": 43.1324,
      "duration": 0.0078,
      "velocity": 96,
      "chip": "ym2612"
    },
    {
      "channel": 4,
      "note": 57,
      "start": 43.3107,
      "duration": 0.1128,
      "velocity": 98,
      "chip": "ym2612"
    },
    {
      "channel": 0,
      "note": 77,
      "start": 43.3284,
      "duration": 1.0464,
      "velocity": 95,
      "chip": "ym2612"
    },
    {
      "channel": 5,
      "note": 65,
      "start": 43.3337,
      "duration": 1.0413,
      "velocity": 96,
      "chip": "ym2612"
    },
    {
      "channel": 1,
      "note": 70,
      "start": 43.3604,
      "duration": 0.1971,
      "velocity": 98,
      "chip": "ym2612"
    },
    {
      "channel": 3,
      "note": 58,
      "start": 43.5449,
      "duration": 0.0803,
      "velocity": 98,
      "chip": "ym2612"
    },
    {
      "channel": 2,
      "note": 65,
      "start": 43.5483,
      "duration": 0.3094,
      "velocity": 98,
      "chip": "ym2612"
    },
    {
      "channel": 4,
      "note": 74,
      "start": 43.5517,
      "duration": 0.3058,
      "velocity": 98,
      "chip": "ym2612"
    },
    {
      "channel": 1,
      "note": 58,
      "start": 43.5616,
      "duration": 0.129,
      "velocity": 98,
      "chip": "ym2612"
    },
    {
      "channel": 3,
      "note": 65,
      "start": 43.6277,
      "duration": 0.1796,
      "velocity": 98,
      "chip": "ym2612"
    },
    {
      "channel": 1,
      "note": 53,
      "start": 43.8112,
      "duration": 0.1299,
      "velocity": 98,
      "chip": "ym2612"
    },
    {
      "channel": 3,
      "note": 62,
      "start": 43.8779,
      "duration": 0.1982,
      "velocity": 98,
      "chip": "ym2612"
    },
    {
      "channel": 4,
      "note": 77,
      "start": 43.9136,
      "duration": 0.0042,
      "velocity": 98,
      "chip": "ym2612"
    },
    {
      "channel": 2,
      "note": 70,
      "start": 43.9168,
      "duration": 0.1412,
      "velocity": 98,
      "chip": "ym2612"
    },
    {
      "channel": 4,
      "note": 74,
      "start": 43.9205,
      "duration": 0.1039,
      "velocity": 98,
      "chip": "ym2612"
    },
    {
      "channel": 1,
      "note": 50,
      "start": 44.0798,
      "duration": 0.1293,
      "velocity": 98,
      "chip": "ym2612"
    },
    {
      "channel": 3,
      "note": 58,
      "start": 44.1449,
      "duration": 0.1815,
      "velocity": 98,
      "chip": "ym2612"
    },
    {
      "channel": 4,
      "note": 77,
      "start": 44.149,
      "duration": 0.0124,
      "velocity": 98,
      "chip": "ym2612"
    },
    {
      "channel": 2,
      "note": 81,
      "start": 44.1543,
      "duration": 0.0887,
      "velocity": 121,
      "chip": "ym2612"
    },
    {
      "channel": 4,
      "note": 70,
      "start": 44.1641,
      "duration": 0.0009,
      "velocity": 98,
      "chip": "ym2612"
    },
    {
      "channel": 4,
      "note": 82,
      "start": 44.1678,
      "duration": 0.1237,
      "velocity": 98,
      "chip": "ym2612"
    },
    {
      "channel": 1,
      "note": 46,
      "start": 44.3302,
      "duration": 0.128,
      "velocity": 98,
      "chip": "ym2612"
    },
    {
      "channel": 0,
      "note": 70,
      "start": 44.395,
      "duration": 0.1299,
      "velocity": 95,
      "chip": "ym2612"
    },
    {
      "channel": 3,
      "note": 58,
      "start": 44.3996,
      "duration": 0.1421,
      "velocity": 98,
      "chip": "ym2612"
    },
    {
      "channel": 1,
      "note": 46,
      "start": 44.5954,
      "duration": 0.1131,
      "velocity": 98,
      "chip": "ym2612"
    },
    {
      "channel": 3,
      "note": 63,
      "start": 44.6638,
      "duration": 0.1114,
      "velocity": 98,
      "chip": "ym2612"
    },
    {
      "channel": 2,
      "note": 81,
      "start": 44.6678,
      "duration": 0.1077,
      "velocity": 104,
      "chip": "ym2612"
    },
    {
      "channel": 1,
      "note": 51,
      "start": 44.8457,
      "duration": 0.1299,
      "velocity": 98,
      "chip": "ym2612"
    },
    {
      "channel": 0,
      "note": 75,
      "start": 44.914,
      "duration": 0.0948,
      "velocity": 95,
      "chip": "ym2612"
    },
    {
      "channel": 3,
      "note": 66,
      "start": 44.9185,
      "duration": 0.1588,
      "velocity": 98,
      "chip": "ym2612"
    },
    {
      "channel": 1,
      "note": 54,
      "start": 45.1127,
      "duration": 0.1131,
      "velocity": 98,
      "chip": "ym2612"
    },
    {
      "channel": 3,
      "note": 63,
      "start": 45.1645,
      "duration": 0.1281,
      "velocity": 98,
      "chip": "ym2612"
    },
    {
      "channel": 2,
      "note": 81,
      "start": 45.1696,
      "duration": 0.1232,
      "velocity": 104,
      "chip": "ym2612"
    },
    {
      "channel": 0,
      "note": 81,
      "start": 45.3129,
      "duration": 1.1146,
      "velocity": 95,
      "chip": "ym2612"
    },
    {
      "channel": 1,
      "note": 51,
      "start": 45.3632,
      "duration": 0.1312,
      "velocity": 98,
      "chip": "ym2612"
    },
    {
      "channel": 3,
      "note": 60,
      "start": 45.4303,
      "duration": 0.1626,
      "velocity": 98,
      "chip": "ym2612"
    },
    {
      "channel": 1,
      "note": 48,
      "start": 45.6134,
      "duration": 0.1314,
      "velocity": 98,
      "chip": "ym2612"
    },
    {
      "channel": 3,
      "note": 63,
      "start": 45.6802,
      "duration": 0.1299,
      "velocity": 98,
      "chip": "ym2612"
    },
    {
      "channel": 2,
      "note": 81,
      "start": 45.6839,
      "duration": 0.0346,
      "velocity": 104,
      "chip": "ym2612"
    },
    {
      "channel": 4,
      "note": 75,
      "start": 45.7142,
      "duration": 0.5964,
      "velocity": 98,
      "chip": "ym2612"
    },
    {
      "channel": 5,
      "note": 69,
      "start": 45.7177,
      "duration": 0.6113,
      "velocity": 98,
      "chip": "ym2612"
    },
    {
      "channel": 2,
      "note": 72,
      "start": 45.7212,
      "duration": 0.6079,
      "velocity": 98,
      "chip": "ym2612"
    },
    {
      "channel": 1,
      "note": 51,
      "start": 45.8805,
      "duration": 0.1296,
      "velocity": 98,
      "chip": "ym2612"
    },
    {
      "channel": 3,
      "note": 66,
      "start": 45.9472,
      "duration": 0.1464,
      "velocity": 98,
      "chip": "ym2612"
    },
    {
      "channel": 1,
      "note": 54,
      "start": 46.1308,
      "duration": 0.1298,
      "velocity": 98,
      "chip": "ym2612"
    },
    {
      "channel": 3,
      "note": 62,
      "start": 46.1976,
      "duration": 0.1633,
      "velocity": 98,
      "chip": "ym2612"
    },
    {
      "channel": 4,
      "note": 78,
      "start": 46.3658,
      "duration": 0.13,
      "velocity": 98,
      "chip": "ym2612"
    },
    {
      "channel": 1,
      "note": 50,
      "start": 46.3979,
      "duration": 0.113,
      "velocity": 98,
      "chip": "ym2612"
    },
    {
      "channel": 5,
      "note": 72,
      "start": 46.4014,
      "duration": 0.1097,
      "velocity": 98,
      "chip": "ym2612"
    },
    {
      "channel": 2,
      "note": 75,
      "start": 46.405,
      "duration": 0.1062,
      "velocity": 98,
      "chip": "ym2612"
    },
    {
      "channel": 3,
      "note": 63,
      "start": 46.4646,
      "duration": 0.1466,
      "velocity": 98,
      "chip": "ym2612"
    },
    {
      "channel": 1,
      "note": 51,
      "start": 46.648,
      "duration": 0.13,
      "velocity": 98,
      "chip": "ym2612"
    },
    {
      "channel": 0,
      "note": 82,
      "start": 46.7145,
      "duration": 0.13,
      "velocity": 95,
      "chip": "ym2612"
    },
    {
      "channel": 3,
      "note": 58,
      "start": 46.7195,
      "duration": 0.1585,
      "velocity": 98,
      "chip": "ym2612"
    },
    {
      "channel": 4,
      "note": 70,
      "start": 46.7238,
      "duration": 0.1209,
      "velocity": 96,
      "chip": "ym2612"
    },
    {
      "channel": 2,
      "note": 81,
      "start": 46.7271,
      "duration": 0.0843,
      "velocity": 104,
      "chip": "ym2612"
    },
    {
      "channel": 0,
      "note": 83,
      "start": 46.8813,
      "duration": 0.1302,
      "velocity": 95,
      "chip": "ym2612"
    },
    {
      "channel": 4,
      "note": 71,
      "start": 46.8862,
      "duration": 0.0586,
      "velocity": 96,
      "chip": "ym2612"
    },
    {
      "channel": 1,
      "note": 46,
      "start": 46.917,
      "duration": 0.1112,
      "velocity": 98,
      "chip": "ym2612"
    },
    {
      "channel": 5,
      "note": 82,
      "start": 46.9652,
      "duration": 0.1148,
      "velocity": 95,
      "chip": "ym2612"
    },
    {
      "channel": 3,
      "note": 63,
      "start": 46.9698,
      "duration": 0.142,
      "velocity": 98,
      "chip": "ym2612"
    },
    {
      "channel": 4,
      "note": 70,
      "start": 46.9736,
      "duration": 0.1063,
      "velocity": 96,
      "chip": "ym2612"
    },
    {
      "channel": 0,
      "note": 78,
      "start": 47.1485,
      "duration": 0.0633,
      "velocity": 95,
      "chip": "ym2612"
    },
    {
      "channel": 4,
      "note": 66,
      "start": 47.1536,
      "duration": 0.0584,
      "velocity": 96,
      "chip": "ym2612"
    },
    {
      "channel": 1,
      "note": 51,
      "start": 47.1671,
      "duration": 0.1282,
      "velocity": 98,
      "chip": "ym2612"
    },
    {
      "channel": 0,
      "note": 75,
      "start": 47.2322,
      "duration": 0.063,
      "velocity": 95,
      "chip": "ym2612"
    },
    {
      "channel": 3,
      "note": 65,
      "start": 47.2363,
      "duration": 0.1423,
      "velocity": 98,
      "chip": "ym2612"
    },
    {
      "channel": 4,
      "note": 63,
      "start": 47.24,
      "duration": 0.0555,
      "velocity": 96,
      "chip": "ym2612"
    },
    {
      "channel": 2,
      "note": 81,
      "start": 47.2443,
      "duration": 0.118,
      "velocity": 104,
      "chip": "ym2612"
    },
    {
      "channel": 0,
      "note": 81,
      "start": 47.3822,
      "duration": 0.8811,
      "velocity": 95,
      "chip": "ym2612"
    },
    {
      "channel": 4,
      "note": 69,
      "start": 47.3874,
      "duration": 0.876,
      "velocity": 96,
      "chip": "ym2612"
    },
    {
      "channel": 1,
      "note": 53,
      "start": 47.4173,
      "duration": 0.1283,
      "velocity": 98,
      "chip": "ym2612"
    },
    {
      "channel": 3,
      "note": 66,
      "start": 47.4825,
      "duration": 0.1814,
      "velocity": 98,
      "chip": "ym2612"
    },
    {
      "channel": 1,
      "note": 54,
      "start": 47.6828,
      "duration": 0.1299,
      "velocity": 98,
      "chip": "ym2612"
    },
    {
      "channel": 3,
      "note": 65,
      "start": 47.7515,
      "duration": 0.1446,
      "velocity": 98,
      "chip": "ym2612"
    },
    {
      "channel": 2,
      "note": 81,
      "start": 47.7551,
      "duration": 0.0294,
      "velocity": 104,
      "chip": "ym2612"
    },
    {
      "channel": 5,
      "note": 72,
      "start": 47.7837,
      "duration": 0.0045,
      "velocity": 98,
      "chip": "ym2612"
    },
    {
      "channel": 2,
      "note": 78,
      "start": 47.7872,
      "duration": 0.426,
      "velocity": 98,
      "chip": "ym2612"
    },
    {
      "channel": 5,
      "note": 81,
      "start": 47.7909,
      "duration": 0.4391,
      "velocity": 98,
      "chip": "ym2612"
    },
    {
      "channel": 1,
      "note": 53,
      "start": 47.933,
      "duration": 0.1298,
      "velocity": 98,
      "chip": "ym2612"
    },
    {
      "channel": 3,
      "note": 63,
      "start": 48.0013,
      "duration": 0.1451,
      "velocity": 98,
      "chip": "ym2612"
    },
    {
      "channel": 1,
      "note": 51,
      "start": 48.2002,
      "duration": 0.1314,
      "velocity": 98,
      "chip": "ym2612"
    },
    {
      "channel": 3,
      "note": 60,
      "start": 48.2673,
      "duration": 0.1628,
      "velocity": 98,
      "chip": "ym2612"
    },
    {
      "channel": 2,
      "note": 81,
      "start": 48.272,
      "duration": 0.143,
      "velocity": 104,
      "chip": "ym2612"
    },
    {
      "channel": 1,
      "note": 48,
      "start": 48.4504,
      "duration": 0.1312,
      "velocity": 98,
      "chip": "ym2612"
    },
    {
      "channel": 5,
      "note": 82,
      "start": 48.4545,
      "duration": 0.1426,
      "velocity": 98,
      "chip": "ym2612"
    },
    {
      "channel": 0,
      "note": 78,
      "start": 48.4578,
      "duration": 0.1389,
      "velocity": 98,
      "chip": "ym2612"
    },
    {
      "channel": 4,
      "note": 72,
      "start": 48.4613,
      "duration": 0.1357,
      "velocity": 98,
      "chip": "ym2612"
    },
    {
      "channel": 2,
      "note": 70,
      "start": 48.5022,
      "duration": 0.2118,
      "velocity": 95,
      "chip": "ym2612"
    },
    {
      "channel": 3,
      "note": 63,
      "start": 48.5171,
      "duration": 0.1634,
      "velocity": 98,
      "chip": "ym2612"
    },
    {
      "channel": 1,
      "note": 51,
      "start": 48.7177,
      "duration": 0.1144,
      "velocity": 98,
      "chip": "ym2612"
    },
    {
      "channel": 3,
      "note": 58,
      "start": 48.7851,
      "duration": 0.1622,
      "velocity": 98,
      "chip": "ym2612"
    },
    {
      "channel": 2,
      "note": 81,
      "start": 48.7887,
      "duration": 0.1422,
      "velocity": 104,
      "chip": "ym2612"
    },
    {
      "channel": 1,
      "note": 46,
      "start": 48.9677,
      "duration": 0.1298,
      "velocity": 98,
      "chip": "ym2612"
    },
    {
      "channel": 0,
      "note": 75,
      "start": 49.0344,
      "duration": 0.1964,
      "velocity": 95,
      "chip": "ym2612"
    },
    {
      "channel": 3,
      "note": 63,
      "start": 49.0391,
      "duration": 0.1418,
      "velocity": 98,
      "chip": "ym2612"
    },
    {
      "channel": 2,
      "note": 81,
      "start": 49.0429,
      "duration": 0.1229,
      "velocity": 121,
      "chip": "ym2612"
    },
    {
      "channel": 1,
      "note": 51,
      "start": 49.2348,
      "duration": 0.113,
      "velocity": 98,
      "chip": "ym2612"
    },
    {
      "channel": 3,
      "note": 66,
      "start": 49.2847,
      "duration": 0.1466,
      "velocity": 98,
      "chip": "ym2612"
    },
    {
      "channel": 2,
      "note": 81,
      "start": 49.2896,
      "duration": 0.2101,
      "velocity": 104,
      "chip": "ym2612"
    },
    {
      "channel": 0,
      "note": 81,
      "start": 49.4682,
      "duration": 1.048,
      "velocity": 95,
      "chip": "ym2612"
    },
    {
      "channel": 1,
      "note": 54,
      "start": 49.4851,
      "duration": 0.1297,
      "velocity": 98,
      "chip": "ym2612"
    },
    {
      "channel": 3,
      "note": 63,
      "start": 49.5517,
      "duration": 0.1466,
      "velocity": 98,
      "chip": "ym2612"
    },
    {
      "channel": 1,
      "note": 51,
      "start": 49.7353,
      "duration": 0.1299,
      "velocity": 98,
      "chip": "ym2612"
    },
    {
      "channel": 3,
      "note": 66,
      "start": 49.802,
      "duration": 0.1467,
      "velocity": 98,
      "chip": "ym2612"
    },
    {
      "channel": 4,
      "note": 81,
      "start": 49.8057,
      "duration": 0.5946,
      "velocity": 98,
      "chip": "ym2612"
    },
    {
      "channel": 5,
      "note": 78,
      "start": 49.809,
      "duration": 0.5915,
      "velocity": 98,
      "chip": "ym2612"
    },
    {
      "channel": 2,
      "note": 72,
      "start": 49.8124,
      "duration": 0.2582,
      "velocity": 98,
      "chip": "ym2612"
    },
    {
      "channel": 1,
      "note": 54,
      "start": 50.0039,
      "duration": 0.1283,
      "velocity": 98,
      "chip": "ym2612"
    },
    {
      "channel": 3,
      "note": 69,
      "start": 50.0692,
      "duration": 0.163,
      "velocity": 98,
      "chip": "ym2612"
    },
    {
      "channel": 2,
      "note": 81,
      "start": 50.0731,
      "duration": 0.1093,
      "velocity": 121,
      "chip": "ym2612"
    },
    {
      "channel": 1,
      "note": 57,
      "start": 50.2543,
      "duration": 0.1282,
      "velocity": 98,
      "chip": "ym2612"
    },
    {
      "channel": 3,
      "note": 66,
      "start": 50.3195,
      "duration": 0.1466,
      "velocity": 98,
      "chip": "ym2612"
    },
    {
      "channel": 2,
      "note": 81,
      "start": 50.3232,
      "duration": 0.1598,
      "velocity": 104,
      "chip": "ym2612"
    },
    {
      "channel": 4,
      "note": 82,
      "start": 50.4872,
      "duration": 0.1124,
      "velocity": 98,
      "chip": "ym2612"
    },
    {
      "channel": 5,
      "note": 70,
      "start": 50.4904,
      "duration": 0.1093,
      "velocity": 98,
      "chip": "ym2612"
    },
    {
      "channel": 1,
      "note": 77,
      "start": 50.4944,
      "duration": 0.0898,
      "velocity": 98,
      "chip": "ym2612"
    },
    {
      "channel": 3,
      "note": 54,
      "start": 50.5203,
      "duration": 0.1127,
      "velocity": 98,
      "chip": "ym2612"
    },
    {
      "channel": 2,
      "note": 70,
      "start": 50.5889,
      "duration": 0.1776,
      "velocity": 98,
      "chip": "ym2612"
    },
    {
      "channel": 3,
      "note": 58,
      "start": 50.7702,
      "duration": 0.1297,
      "velocity": 98,
      "chip": "ym2612"
    },
    {
      "channel": 0,
      "note": 82,
      "start": 50.8384,
      "duration": 0.1281,
      "velocity": 95,
      "chip": "ym2612"
    },
    {
      "channel": 2,
      "note": 65,
      "start": 50.843,
      "duration": 0.1905,
      "velocity": 98,
      "chip": "ym2612"
    },
    {
      "channel": 1,
      "note": 70,
      "start": 50.8473,
      "duration": 0.1193,
      "velocity": 96,
      "chip": "ym2612"
    },
    {
      "channel": 0,
      "note": 83,
      "start": 51.0049,
      "duration": 0.0618,
      "velocity": 95,
      "chip": "ym2612"
    },
    {
      "channel": 1,
      "note": 71,
      "start": 51.0099,
      "duration": 0.057,
      "velocity": 96,
      "chip": "ym2612"
    },
    {
      "channel": 3,
      "note": 53,
      "start": 51.0376,
      "duration": 0.1126,
      "velocity": 98,
      "chip": "ym2612"
    },
    {
      "channel": 0,
      "note": 82,
      "start": 51.0705,
      "duration": 0.1129,
      "velocity": 95,
      "chip": "ym2612"
    },
    {
      "channel": 1,
      "note": 70,
      "start": 51.0759,
      "duration": 0.1077,
      "velocity": 96,
      "chip": "ym2612"
    },
    {
      "channel": 2,
      "note": 62,
      "start": 51.0888,
      "duration": 0.195,
      "velocity": 98,
      "chip": "ym2612"
    },
    {
      "channel": 0,
      "note": 80,
      "start": 51.2371,
      "duration": 0.0633,
      "velocity": 95,
      "chip": "ym2612"
    },
    {
      "channel": 1,
      "note": 68,
      "start": 51.2421,
      "duration": 0.0583,
      "velocity": 96,
      "chip": "ym2612"
    },
    {
      "channel": 3,
      "note": 50,
      "start": 51.2875,
      "duration": 0.1313,
      "velocity": 98,
      "chip": "ym2612"
    },
    {
      "channel": 0,
      "note": 78,
      "start": 51.3387,
      "duration": 0.0798,
      "velocity": 95,
      "chip": "ym2612"
    },
    {
      "channel": 1,
      "note": 66,
      "start": 51.3437,
      "duration": 0.0749,
      "velocity": 96,
      "chip": "ym2612"
    },
    {
      "channel": 2,
      "note": 58,
      "start": 51.3543,
      "duration": 0.1799,
      "velocity": 98,
      "chip": "ym2612"
    },
    {
      "channel": 0,
      "note": 77,
      "start": 51.506,
      "duration": 0.0613,
      "velocity": 95,
      "chip": "ym2612"
    },
    {
      "channel": 1,
      "note": 65,
      "start": 51.5114,
      "duration": 0.056,
      "velocity": 96,
      "chip": "ym2612"
    },
    {
      "channel": 3,
      "note": 46,
      "start": 51.5379,
      "duration": 0.1311,
      "velocity": 98,
      "chip": "ym2612"
    },
    {
      "channel": 0,
      "note": 75,
      "start": 51.5892,
      "duration": 2.5646,
      "velocity": 95,
      "chip": "ym2612"
    },
    {
      "channel": 1,
      "note": 63,
      "start": 51.5952,
      "duration": 2.5588,
      "velocity": 96,
      "chip": "ym2612"
    },
    {
      "channel": 2,
      "note": 63,
      "start": 51.6047,
      "duration": 0.1965,
      "velocity": 98,
      "chip": "ym2612"
    },
    {
      "channel": 4,
      "note": 75,
      "start": 51.7887,
      "duration": 0.0877,
      "velocity": 98,
      "chip": "ym2612"
    },
    {
      "channel": 3,
      "note": 51,
      "start": 51.8049,
      "duration": 0.1301,
      "velocity": 98,
      "chip": "ym2612"
    },
    {
      "channel": 2,
      "note": 58,
      "start": 51.8716,
      "duration": 0.1799,
      "velocity": 98,
      "chip": "ym2612"
    },
    {
      "channel": 5,
      "note": 78,
      "start": 51.8754,
      "duration": 0.393,
      "velocity": 98,
      "chip": "ym2612"
    },
    {
      "channel": 4,
      "note": 83,
      "start": 51.879,
      "duration": 0.2225,
      "velocity": 98,
      "chip": "ym2612"
    },
    {
      "channel": 3,
      "note": 46,
      "start": 52.0553,
      "duration": 0.1295,
      "velocity": 98,
      "chip": "ym2612"
    },
    {
      "channel": 2,
      "note": 63,
      "start": 52.123,
      "duration": 0.1957,
      "velocity": 98,
      "chip": "ym2612"
    },
    {
      "channel": 4,
      "note": 82,
      "start": 52.1266,
      "duration": 0.1417,
      "velocity": 98,
      "chip": "ym2612"
    },
    {
      "channel": 3,
      "note": 51,
      "start": 52.3224,
      "duration": 0.1295,
      "velocity": 98,
      "chip": "ym2612"
    },
    {
      "channel": 2,
      "note": 70,
      "start": 52.389,
      "duration": 0.0162,
      "velocity": 98,
      "chip": "ym2612"
    },
    {
      "channel": 4,
      "note": 78,
      "start": 52.3931,
      "duration": 0.0043,
      "velocity": 98,
      "chip": "ym2612"
    },
    {
      "channel": 5,
      "note": 75,
      "start": 52.3965,
      "duration": 0.139,
      "velocity": 98,
      "chip": "ym2612"
    },
    {
      "channel": 4,
      "note": 81,
      "start": 52.4001,
      "duration": 0.0851,
      "velocity": 98,
      "chip": "ym2612"
    },
    {
      "channel": 2,
      "note": 81,
      "start": 52.4076,
      "duration": 0.0778,
      "velocity": 121,
      "chip": "ym2612"
    },
    {
      "channel": 3,
      "note": 58,
      "start": 52.5725,
      "duration": 0.1297,
      "velocity": 98,
      "chip": "ym2612"
    },
    {
      "channel": 4,
      "note": 63,
      "start": 52.6392,
      "duration": 0.1981,
      "velocity": 98,
      "chip": "ym2612"
    },
    {
      "channel": 5,
      "note": 82,
      "start": 52.6429,
      "duration": 0.0043,
      "velocity": 98,
      "chip": "ym2612"
    },
    {
      "channel": 2,
      "note": 78,
      "start": 52.6463,
      "duration": 1.091,
      "velocity": 98,
      "chip": "ym2612"
    },
    {
      "channel": 5,
      "note": 75,
      "start": 52.6499,
      "duration": 1.0872,
      "velocity": 98,
      "chip": "ym2612"
    },
    {
      "channel": 3,
      "note": 51,
      "start": 52.8411,
      "duration": 0.1115,
      "velocity": 98,
      "chip": "ym2612"
    },
    {
      "channel": 4,
      "note": 58,
      "start": 52.9061,
      "duration": 0.1815,
      "velocity": 98,
      "chip": "ym2612"
    },
    {
      "channel": 3,
      "note": 46,
      "start": 53.0914,
      "duration": 0.1281,
      "velocity": 98,
      "chip": "ym2612"
    },
    {
      "channel": 4,
      "note": 63,
      "start": 53.1565,
      "duration": 0.1966,
      "velocity": 98,
      "chip": "ym2612"
    },
    {
      "channel": 3,
      "note": 51,
      "start": 53.3569,
      "duration": 0.1129,
      "velocity": 98,
      "chip": "ym2612"
    },
    {
      "channel": 4,
      "note": 58,
      "start": 53.4068,
      "duration": 0.1967,
      "velocity": 98,
      "chip": "ym2612"
    },
    {
      "channel": 3,
      "note": 46,
      "start": 53.6073,
      "duration": 0.1297,
      "velocity": 98,
      "chip": "ym2612"
    },
    {
      "channel": 4,
      "note": 63,
      "start": 53.6756,
      "duration": 0.4284,
      "velocity": 98,
      "chip": "ym2612"
    },
    {
      "channel": 3,
      "note": 51,
      "start": 53.8577,
      "duration": 0.1295,
      "velocity": 98,
      "chip": "ym2612"
    },
    {
      "channel": 2,
      "note": 81,
      "start": 53.9262,
      "duration": 0.1946,
      "velocity": 104,
      "chip": "ym2612"
    },
    {
      "channel": 4,
      "note": 70,
      "start": 54.1917,
      "duration": 0.1794,
      "velocity": 98,
      "chip": "ym2612"
    },
    {
      "channel": 3,
      "note": 58,
      "start": 54.375,
      "duration": 0.131,
      "velocity": 98,
      "chip": "ym2612"
    },
    {
      "channel": 0,
      "note": 75,
      "start": 54.426,
      "duration": 0.0618,
      "velocity": 95,
      "chip": "ym2612"
    },
    {
      "channel": 4,
      "note": 63,
      "start": 54.4416,
      "duration": 0.1965,
      "velocity": 98,
      "chip": "ym2612"
    },
    {
      "channel": 2,
      "note": 81,
      "start": 54.4454,
      "duration": 0.1092,
      "velocity": 121,
      "chip": "ym2612"
    },
    {
      "channel": 1,
      "note": 78,
      "start": 54.6772,
      "duration": 0.4128,
      "velocity": 96,
      "chip": "ym2612"
    },
    {
      "channel": 5,
      "note": 85,
      "start": 54.6807,
      "duration": 0.3752,
      "velocity": 96,
      "chip": "ym2612"
    },
    {
      "channel": 4,
      "note": 66,
      "start": 54.7255,
      "duration": 0.4634,
      "velocity": 98,
      "chip": "ym2612"
    },
    {
      "channel": 3,
      "note": 66,
      "start": 54.729,
      "duration": 0.4597,
      "velocity": 98,
      "chip": "ym2612"
    },
    {
      "channel": 2,
      "note": 81,
      "start": 54.9598,
      "duration": 0.1306,
      "velocity": 104,
      "chip": "ym2612"
    },
    {
      "channel": 1,
      "note": 76,
      "start": 55.1932,
      "duration": 0.129,
      "velocity": 96,
      "chip": "ym2612"
    },
    {
      "channel": 5,
      "note": 83,
      "start": 55.1969,
      "duration": 0.1257,
      "velocity": 96,
      "chip": "ym2612"
    },
    {
      "channel": 4,
      "note": 64,
      "start": 55.2429,
      "duration": 0.0795,
      "velocity": 98,
      "chip": "ym2612"
    },
    {
      "channel": 3,
      "note": 64,
      "start": 55.2464,
      "duration": 0.0759,
      "velocity": 98,
      "chip": "ym2612"
    },
    {
      "channel": 4,
      "note": 64,
      "start": 55.3596,
      "duration": 0.113,
      "velocity": 98,
      "chip": "ym2612"
    },
    {
      "channel": 3,
      "note": 64,
      "start": 55.3631,
      "duration": 0.1094,
      "velocity": 98,
      "chip": "ym2612"
    },
    {
      "channel": 1,
      "note": 83,
      "start": 55.3667,
      "duration": 0.039,
      "velocity": 96,
      "chip": "ym2612"
    },
    {
      "channel": 5,
      "note": 76,
      "start": 55.37,
      "duration": 0.0361,
      "velocity": 96,
      "chip": "ym2612"
    },
    {
      "channel": 2,
      "note": 81,
      "start": 55.4769,
      "duration": 0.1291,
      "velocity": 104,
      "chip": "ym2612"
    },
    {
      "channel": 4,
      "note": 63,
      "start": 55.6269,
      "duration": 0.6133,
      "velocity": 98,
      "chip": "ym2612"
    },
    {
      "channel": 3,
      "note": 63,
      "start": 55.6305,
      "duration": 0.6097,
      "velocity": 98,
      "chip": "ym2612"
    },
    {
      "channel": 1,
      "note": 82,
      "start": 55.634,
      "duration": 0.8063,
      "velocity": 96,
      "chip": "ym2612"
    },
    {
      "channel": 5,
      "note": 75,
      "start": 55.6374,
      "duration": 0.7878,
      "velocity": 96,
      "chip": "ym2612"
    },
    {
      "channel": 2,
      "note": 81,
      "start": 55.9949,
      "duration": 0.1285,
      "velocity": 104,
      "chip": "ym2612"
    },
    {
      "channel": 4,
      "note": 58,
      "start": 56.2774,
      "duration": 0.0795,
      "velocity": 98,
      "chip": "ym2612"
    },
    {
      "channel": 3,
      "note": 58,
      "start": 56.2813,
      "duration": 0.0755,
      "velocity": 98,
      "chip": "ym2612"
    },
    {
      "channel": 1,
      "note": 75,
      "start": 56.4781,
      "duration": 0.1791,
      "velocity": 96,
      "chip": "ym2612"
    },
    {
      "channel": 4,
      "note": 58,
      "start": 56.5126,
      "duration": 0.1449,
      "velocity": 98,
      "chip": "ym2612"
    },
    {
      "channel": 3,
      "note": 58,
      "start": 56.5161,
      "duration": 0.1413,
      "velocity": 98,
      "chip": "ym2612"
    },
    {
      "channel": 2,
      "note": 81,
      "start": 56.5197,
      "duration": 0.0886,
      "velocity": 104,
      "chip": "ym2612"
    },
    {
      "channel": 1,
      "note": 78,
      "start": 56.7636,
      "duration": 0.4125,
      "velocity": 96,
      "chip": "ym2612"
    },
    {
      "channel": 5,
      "note": 85,
      "start": 56.7668,
      "duration": 0.4095,
      "velocity": 96,
      "chip": "ym2612"
    },
    {
      "channel": 4,
      "note": 66,
      "start": 56.7783,
      "duration": 0.4815,
      "velocity": 98,
      "chip": "ym2612"
    },
    {
      "channel": 3,
      "note": 66,
      "start": 56.7818,
      "duration": 0.4778,
      "velocity": 98,
      "chip": "ym2612"
    },
    {
      "channel": 2,
      "note": 81,
      "start": 57.0287,
      "duration": 0.0959,
      "velocity": 104,
      "chip": "ym2612"
    },
    {
      "channel": 4,
      "note": 64,
      "start": 57.2788,
      "duration": 0.0795,
      "velocity": 98,
      "chip": "ym2612"
    },
    {
      "channel": 3,
      "note": 64,
      "start": 57.2823,
      "duration": 0.0759,
      "velocity": 98,
      "chip": "ym2612"
    },
    {
      "channel": 1,
      "note": 76,
      "start": 57.2958,
      "duration": 0.1123,
      "velocity": 96,
      "chip": "ym2612"
    },
    {
      "channel": 5,
      "note": 83,
      "start": 57.299,
      "duration": 0.1093,
      "velocity": 96,
      "chip": "ym2612"
    },
    {
      "channel": 4,
      "note": 64,
      "start": 57.4124,
      "duration": 0.0977,
      "velocity": 98,
      "chip": "ym2612"
    },
    {
      "channel": 3,
      "note": 64,
      "start": 57.4159,
      "duration": 0.094,
      "velocity": 98,
      "chip": "ym2612"
    },
    {
      "channel": 1,
      "note": 76,
      "start": 57.4309,
      "duration": 0.0442,
      "velocity": 96,
      "chip": "ym2612"
    },
    {
      "channel": 5,
      "note": 83,
      "start": 57.4343,
      "duration": 0.0576,
      "velocity": 96,
      "chip": "ym2612"
    },
    {
      "channel": 2,
      "note": 81,
      "start": 57.5294,
      "duration": 0.1292,
      "velocity": 104,
      "chip": "ym2612"
    },
    {
      "channel": 4,
      "note": 63,
      "start": 57.6629,
      "duration": 0.6466,
      "velocity": 98,
      "chip": "ym2612"
    },
    {
      "channel": 3,
      "note": 63,
      "start": 57.6668,
      "duration": 0.6425,
      "velocity": 98,
      "chip": "ym2612"
    },
    {
      "channel": 1,
      "note": 75,
      "start": 57.6813,
      "duration": 0.6948,
      "velocity": 96,
      "chip": "ym2612"
    },
    {
      "channel": 5,
      "note": 82,
      "start": 57.6847,
      "duration": 0.7083,
      "velocity": 96,
      "chip": "ym2612"
    },
    {
      "channel": 2,
      "note": 81,
      "start": 58.0466,
      "duration": 0.131,
      "velocity": 104,
      "chip": "ym2612"
    },
    {
      "channel": 4,
      "note": 58,
      "start": 58.3135,
      "duration": 0.0963,
      "velocity": 98,
      "chip": "ym2612"
    },
    {
      "channel": 3,
      "note": 58,
      "start": 58.3171,
      "duration": 0.0927,
      "velocity": 98,
      "chip": "ym2612"
    },
    {
      "channel": 1,
      "note": 75,
      "start": 58.4641,
      "duration": 0.2457,
      "velocity": 96,
      "chip": "ym2612"
    },
    {
      "channel": 4,
      "note": 58,
      "start": 58.5646,
      "duration": 0.1286,
      "velocity": 98,
      "chip": "ym2612"
    },
    {
      "channel": 3,
      "note": 58,
      "start": 58.568,
      "duration": 0.1251,
      "velocity": 98,
      "chip": "ym2612"
    },
    {
      "channel": 2,
      "note": 81,
      "start": 58.5717,
      "duration": 0.1384,
      "velocity": 104,
      "chip": "ym2612"
    },
    {
      "channel": 1,
      "note": 80,
      "start": 58.7977,
      "duration": 0.3293,
      "velocity": 96,
      "chip": "ym2612"
    },
    {
      "channel": 5,
      "note": 75,
      "start": 58.8011,
      "duration": 0.3428,
      "velocity": 96,
      "chip": "ym2612"
    },
    {
      "channel": 4,
      "note": 56,
      "start": 58.8308,
      "duration": 0.2645,
      "velocity": 98,
      "chip": "ym2612"
    },
    {
      "channel": 3,
      "note": 56,
      "start": 58.8343,
      "duration": 0.2609,
      "velocity": 98,
      "chip": "ym2612"
    },
    {
      "channel": 2,
      "note": 81,
      "start": 59.0813,
      "duration": 0.1461,
      "velocity": 104,
      "chip": "ym2612"
    },
    {
      "channel": 4,
      "note": 54,
      "start": 59.1646,
      "duration": 0.2963,
      "velocity": 98,
      "chip": "ym2612"
    },
    {
      "channel": 3,
      "note": 54,
      "start": 59.1681,
      "duration": 0.2927,
      "velocity": 98,
      "chip": "ym2612"
    },
    {
      "channel": 1,
      "note": 78,
      "start": 59.1833,
      "duration": 0.3443,
      "velocity": 96,
      "chip": "ym2612"
    },
    {
      "channel": 5,
      "note": 73,
      "start": 59.1865,
      "duration": 0.3413,
      "velocity": 96,
      "chip": "ym2612"
    },
    {
      "channel": 2,
      "note": 81,
      "start": 59.3322,
      "duration": 0.129,
      "velocity": 121,
      "chip": "ym2612"
    },
    {
      "channel": 1,
      "note": 80,
      "start": 59.582,
      "duration": 0.079,
      "velocity": 96,
      "chip": "ym2612"
    },
    {
      "channel": 5,
      "note": 75,
      "start": 59.5854,
      "duration": 0.094,
      "velocity": 96,
      "chip": "ym2612"
    },
    {
      "channel": 4,
      "note": 56,
      "start": 59.5998,
      "duration": 0.1784,
      "velocity": 98,
      "chip": "ym2612"
    },
    {
      "channel": 3,
      "note": 56,
      "start": 59.6032,
      "duration": 0.1749,
      "velocity": 98,
      "chip": "ym2612"
    },
    {
      "channel": 2,
      "note": 81,
      "start": 59.6068,
      "duration": 0.2046,
      "velocity": 104,
      "chip": "ym2612"
    }
  ]
}