{
  "track_name": "02 - Options Theme - City Area",
  "duration_sec": 92.579,
  "sample_rate": 44100,
  "note_count": 1154,
  "unique_pitches": 37,
  "pitch_range": 54,
  "avg_note_duration": 0.0555,
  "reconstruction_stats": {
    "notes_reconstructed": 1154,
    "keyon_events": 1154,
    "keyoff_events": 1154,
    "orphan_keyons": 0,
    "unique_pitches": 37,
    "pitch_range": 54,
    "avg_duration_sec": 0.0555
  },
  "metadata": {
    "source": "K\\Kid Chameleon\\02 - Options Theme - City Area.vgz"
  },
  "notes": [
    {
      "channel": 0,
      "note": 93,
      "start": 0.6925,
      "duration": 0.013,
      "velocity": 127,
      "chip": "ym2612"
    },
    {
      "channel": 1,
      "note": 45,
      "start": 1.4887,
      "duration": 0.0455,
      "velocity": 116,
      "chip": "ym2612"
    },
    {
      "channel": 1,
      "note": 45,
      "start": 1.8732,
      "duration": 0.0469,
      "velocity": 116,
      "chip": "ym2612"
    },
    {
      "channel": 0,
      "note": 93,
      "start": 2.1534,
      "duration": 0.0127,
      "velocity": 127,
      "chip": "ym2612"
    },
    {
      "channel": 1,
      "note": 45,
      "start": 2.8847,
      "duration": 0.0457,
      "velocity": 116,
      "chip": "ym2612"
    },
    {
      "channel": 0,
      "note": 93,
      "start": 3.1705,
      "duration": 0.0118,
      "velocity": 127,
      "chip": "ym2612"
    },
    {
      "channel": 1,
      "note": 45,
      "start": 3.2499,
      "duration": 0.0393,
      "velocity": 116,
      "chip": "ym2612"
    },
    {
      "channel": 0,
      "note": 93,
      "start": 3.5478,
      "duration": 0.0127,
      "velocity": 127,
      "chip": "ym2612"
    },
    {
      "channel": 0,
      "note": 93,
      "start": 3.6644,
      "duration": 0.0153,
      "velocity": 127,
      "chip": "ym2612"
    },
    {
      "channel": 0,
      "note": 93,
      "start": 3.8647,
      "duration": 0.0046,
      "velocity": 127,
      "chip": "ym2612"
    },
    {
      "channel": 0,
      "note": 93,
      "start": 3.9491,
      "duration": 0.0127,
      "velocity": 127,
      "chip": "ym2612"
    },
    {
      "channel": 1,
      "note": 45,
      "start": 3.9515,
      "duration": 0.0436,
      "velocity": 116,
      "chip": "ym2612"
    },
    {
      "channel": 1,
      "note": 45,
      "start": 4.1163,
      "duration": 0.0622,
      "velocity": 116,
      "chip": "ym2612"
    },
    {
      "channel": 0,
      "note": 93,
      "start": 4.6512,
      "duration": 0.0049,
      "velocity": 127,
      "chip": "ym2612"
    },
    {
      "channel": 0,
      "note": 93,
      "start": 5.026,
      "duration": 0.0127,
      "velocity": 127,
      "chip": "ym2612"
    },
    {
      "channel": 0,
      "note": 93,
      "start": 5.1427,
      "duration": 0.0082,
      "velocity": 127,
      "chip": "ym2612"
    },
    {
      "channel": 1,
      "note": 45,
      "start": 5.1481,
      "duration": 0.0028,
      "velocity": 116,
      "chip": "ym2612"
    },
    {
      "channel": 3,
      "note": 64,
      "start": 5.2158,
      "duration": 0.0124,
      "velocity": 92,
      "chip": "ym2612"
    },
    {
      "channel": 1,
      "note": 45,
      "start": 5.2182,
      "duration": 0.0259,
      "velocity": 116,
      "chip": "ym2612"
    },
    {
      "channel": 3,
      "note": 74,
      "start": 5.3026,
      "duration": 0.0327,
      "velocity": 92,
      "chip": "ym2612"
    },
    {
      "channel": 4,
      "note": 78,
      "start": 5.3047,
      "duration": 0.0668,
      "velocity": 92,
      "chip": "ym2612"
    },
    {
      "channel": 3,
      "note": 75,
      "start": 5.3377,
      "duration": 0.0536,
      "velocity": 92,
      "chip": "ym2612"
    },
    {
      "channel": 2,
      "note": 74,
      "start": 5.3672,
      "duration": 0.0405,
      "velocity": 92,
      "chip": "ym2612"
    },
    {
      "channel": 0,
      "note": 93,
      "start": 5.3733,
      "duration": 0.0109,
      "velocity": 127,
      "chip": "ym2612"
    },
    {
      "channel": 3,
      "note": 72,
      "start": 5.3946,
      "duration": 0.1131,
      "velocity": 92,
      "chip": "ym2612"
    },
    {
      "channel": 0,
      "note": 93,
      "start": 5.4619,
      "duration": 0.0124,
      "velocity": 127,
      "chip": "ym2612"
    },
    {
      "channel": 4,
      "note": 69,
      "start": 5.4644,
      "duration": 0.1266,
      "velocity": 92,
      "chip": "ym2612"
    },
    {
      "channel": 1,
      "note": 45,
      "start": 5.4666,
      "duration": 0.041,
      "velocity": 116,
      "chip": "ym2612"
    },
    {
      "channel": 1,
      "note": 45,
      "start": 5.6287,
      "duration": 0.0621,
      "velocity": 116,
      "chip": "ym2612"
    },
    {
      "channel": 3,
      "note": 72,
      "start": 5.7495,
      "duration": 0.0682,
      "velocity": 92,
      "chip": "ym2612"
    },
    {
      "channel": 4,
      "note": 78,
      "start": 5.7518,
      "duration": 0.0587,
      "velocity": 92,
      "chip": "ym2612"
    },
    {
      "channel": 2,
      "note": 52,
      "start": 5.755,
      "duration": 0.0918,
      "velocity": 127,
      "chip": "ym2612"
    },
    {
      "channel": 3,
      "note": 78,
      "start": 5.8704,
      "duration": 0.069,
      "velocity": 92,
      "chip": "ym2612"
    },
    {
      "channel": 4,
      "note": 69,
      "start": 5.8731,
      "duration": 0.083,
      "velocity": 92,
      "chip": "ym2612"
    },
    {
      "channel": 2,
      "note": 55,
      "start": 5.8752,
      "duration": 0.1645,
      "velocity": 127,
      "chip": "ym2612"
    },
    {
      "channel": 3,
      "note": 57,
      "start": 6.0996,
      "duration": 0.0244,
      "velocity": 92,
      "chip": "ym2612"
    },
    {
      "channel": 2,
      "note": 57,
      "start": 6.1016,
      "duration": 0.0668,
      "velocity": 127,
      "chip": "ym2612"
    },
    {
      "channel": 2,
      "note": 82,
      "start": 6.1698,
      "duration": 0.0067,
      "velocity": 96,
      "chip": "ym2612"
    },
    {
      "channel": 3,
      "note": 67,
      "start": 6.1719,
      "duration": 0.0252,
      "velocity": 92,
      "chip": "ym2612"
    },
    {
      "channel": 4,
      "note": 72,
      "start": 6.1738,
      "duration": 0.0165,
      "velocity": 92,
      "chip": "ym2612"
    },
    {
      "channel": 2,
      "note": 82,
      "start": 6.2447,
      "duration": 0.0162,
      "velocity": 96,
      "chip": "ym2612"
    },
    {
      "channel": 3,
      "note": 64,
      "start": 6.2507,
      "duration": 0.0098,
      "velocity": 92,
      "chip": "ym2612"
    },
    {
      "channel": 4,
      "note": 57,
      "start": 6.2531,
      "duration": 0.0076,
      "velocity": 92,
      "chip": "ym2612"
    },
    {
      "channel": 0,
      "note": 52,
      "start": 6.2553,
      "duration": 0.0407,
      "velocity": 127,
      "chip": "ym2612"
    },
    {
      "channel": 0,
      "note": 55,
      "start": 6.3215,
      "duration": 0.0665,
      "velocity": 127,
      "chip": "ym2612"
    },
    {
      "channel": 3,
      "note": 67,
      "start": 6.37,
      "duration": 0.118,
      "velocity": 92,
      "chip": "ym2612"
    },
    {
      "channel": 4,
      "note": 72,
      "start": 6.372,
      "duration": 0.0663,
      "velocity": 92,
      "chip": "ym2612"
    },
    {
      "channel": 2,
      "note": 82,
      "start": 6.5419,
      "duration": 0.0132,
      "velocity": 96,
      "chip": "ym2612"
    },
    {
      "channel": 0,
      "note": 57,
      "start": 6.5442,
      "duration": 0.1105,
      "velocity": 127,
      "chip": "ym2612"
    },
    {
      "channel": 3,
      "note": 67,
      "start": 6.6623,
      "duration": 0.0189,
      "velocity": 92,
      "chip": "ym2612"
    },
    {
      "channel": 4,
      "note": 69,
      "start": 6.6641,
      "duration": 0.0035,
      "velocity": 92,
      "chip": "ym2612"
    },
    {
      "channel": 1,
      "note": 45,
      "start": 6.6661,
      "duration": 0.0149,
      "velocity": 116,
      "chip": "ym2612"
    },
    {
      "channel": 1,
      "note": 45,
      "start": 6.7329,
      "duration": 0.0254,
      "velocity": 116,
      "chip": "ym2612"
    },
    {
      "channel": 0,
      "note": 52,
      "start": 6.7346,
      "duration": 0.044,
      "velocity": 127,
      "chip": "ym2612"
    },
    {
      "channel": 3,
      "note": 57,
      "start": 6.7835,
      "duration": 0.0108,
      "velocity": 92,
      "chip": "ym2612"
    },
    {
      "channel": 0,
      "note": 55,
      "start": 6.7854,
      "duration": 0.0894,
      "velocity": 127,
      "chip": "ym2612"
    },
    {
      "channel": 2,
      "note": 82,
      "start": 6.8533,
      "duration": 0.0145,
      "velocity": 96,
      "chip": "ym2612"
    },
    {
      "channel": 3,
      "note": 67,
      "start": 6.8554,
      "duration": 0.0117,
      "velocity": 92,
      "chip": "ym2612"
    },
    {
      "channel": 4,
      "note": 60,
      "start": 6.8572,
      "duration": 0.0103,
      "velocity": 92,
      "chip": "ym2612"
    },
    {
      "channel": 2,
      "note": 82,
      "start": 6.9462,
      "duration": 0.013,
      "velocity": 96,
      "chip": "ym2612"
    },
    {
      "channel": 0,
      "note": 57,
      "start": 6.9485,
      "duration": 0.1606,
      "velocity": 127,
      "chip": "ym2612"
    },
    {
      "channel": 3,
      "note": 52,
      "start": 7.1133,
      "duration": 0.0125,
      "velocity": 92,
      "chip": "ym2612"
    },
    {
      "channel": 3,
      "note": 72,
      "start": 7.2331,
      "duration": 0.0693,
      "velocity": 92,
      "chip": "ym2612"
    },
    {
      "channel": 4,
      "note": 67,
      "start": 7.2347,
      "duration": 0.0678,
      "velocity": 92,
      "chip": "ym2612"
    },
    {
      "channel": 1,
      "note": 45,
      "start": 7.2368,
      "duration": 0.0654,
      "velocity": 92,
      "chip": "ym2612"
    },
    {
      "channel": 0,
      "note": 52,
      "start": 7.2398,
      "duration": 0.0553,
      "velocity": 127,
      "chip": "ym2612"
    },
    {
      "channel": 1,
      "note": 64,
      "start": 7.3542,
      "duration": 0.084,
      "velocity": 92,
      "chip": "ym2612"
    },
    {
      "channel": 3,
      "note": 69,
      "start": 7.356,
      "duration": 0.0825,
      "velocity": 92,
      "chip": "ym2612"
    },
    {
      "channel": 4,
      "note": 66,
      "start": 7.3592,
      "duration": 0.0124,
      "velocity": 92,
      "chip": "ym2612"
    },
    {
      "channel": 2,
      "note": 45,
      "start": 7.3616,
      "duration": 0.0604,
      "velocity": 116,
      "chip": "ym2612"
    },
    {
      "channel": 0,
      "note": 55,
      "start": 7.3637,
      "duration": 0.0911,
      "velocity": 127,
      "chip": "ym2612"
    },
    {
      "channel": 2,
      "note": 45,
      "start": 7.5122,
      "duration": 0.0327,
      "velocity": 116,
      "chip": "ym2612"
    },
    {
      "channel": 1,
      "note": 57,
      "start": 7.5714,
      "duration": 0.0033,
      "velocity": 92,
      "chip": "ym2612"
    },
    {
      "channel": 0,
      "note": 57,
      "start": 7.5733,
      "duration": 0.0638,
      "velocity": 127,
      "chip": "ym2612"
    },
    {
      "channel": 2,
      "note": 82,
      "start": 7.6392,
      "duration": 0.0066,
      "velocity": 96,
      "chip": "ym2612"
    },
    {
      "channel": 1,
      "note": 67,
      "start": 7.6411,
      "duration": 0.0186,
      "velocity": 92,
      "chip": "ym2612"
    },
    {
      "channel": 3,
      "note": 72,
      "start": 7.6429,
      "duration": 0.017,
      "velocity": 92,
      "chip": "ym2612"
    },
    {
      "channel": 2,
      "note": 82,
      "start": 7.7145,
      "duration": 0.0092,
      "velocity": 96,
      "chip": "ym2612"
    },
    {
      "channel": 1,
      "note": 57,
      "start": 7.7199,
      "duration": 0.0034,
      "velocity": 92,
      "chip": "ym2612"
    },
    {
      "channel": 0,
      "note": 52,
      "start": 7.7218,
      "duration": 0.0375,
      "velocity": 127,
      "chip": "ym2612"
    },
    {
      "channel": 1,
      "note": 52,
      "start": 7.7902,
      "duration": 0.0184,
      "velocity": 92,
      "chip": "ym2612"
    },
    {
      "channel": 0,
      "note": 55,
      "start": 7.792,
      "duration": 0.0448,
      "velocity": 127,
      "chip": "ym2612"
    },
    {
      "channel": 1,
      "note": 74,
      "start": 7.8395,
      "duration": 0.0678,
      "velocity": 92,
      "chip": "ym2612"
    },
    {
      "channel": 1,
      "note": 75,
      "start": 7.9113,
      "duration": 0.0626,
      "velocity": 92,
      "chip": "ym2612"
    },
    {
      "channel": 1,
      "note": 74,
      "start": 7.978,
      "duration": 0.0626,
      "velocity": 92,
      "chip": "ym2612"
    },
    {
      "channel": 2,
      "note": 82,
      "start": 7.9944,
      "duration": 0.03,
      "velocity": 96,
      "chip": "ym2612"
    },
    {
      "channel": 0,
      "note": 57,
      "start": 7.9966,
      "duration": 0.1274,
      "velocity": 127,
      "chip": "ym2612"
    },
    {
      "channel": 1,
      "note": 72,
      "start": 8.0446,
      "duration": 0.0797,
      "velocity": 92,
      "chip": "ym2612"
    },
    {
      "channel": 1,
      "note": 69,
      "start": 8.1315,
      "duration": 0.0334,
      "velocity": 92,
      "chip": "ym2612"
    },
    {
      "channel": 4,
      "note": 45,
      "start": 8.1337,
      "duration": 0.0023,
      "velocity": 116,
      "chip": "ym2612"
    },
    {
      "channel": 4,
      "note": 45,
      "start": 8.2025,
      "duration": 0.0198,
      "velocity": 116,
      "chip": "ym2612"
    },
    {
      "channel": 0,
      "note": 52,
      "start": 8.2045,
      "duration": 0.0592,
      "velocity": 127,
      "chip": "ym2612"
    },
    {
      "channel": 1,
      "note": 79,
      "start": 8.2886,
      "duration": 0.019,
      "velocity": 92,
      "chip": "ym2612"
    },
    {
      "channel": 3,
      "note": 74,
      "start": 8.2906,
      "duration": 0.0587,
      "velocity": 92,
      "chip": "ym2612"
    },
    {
      "channel": 0,
      "note": 55,
      "start": 8.2926,
      "duration": 0.0852,
      "velocity": 127,
      "chip": "ym2612"
    },
    {
      "channel": 2,
      "note": 82,
      "start": 8.359,
      "duration": 0.0122,
      "velocity": 96,
      "chip": "ym2612"
    },
    {
      "channel": 1,
      "note": 67,
      "start": 8.3614,
      "duration": 0.0097,
      "velocity": 92,
      "chip": "ym2612"
    },
    {
      "channel": 2,
      "note": 82,
      "start": 8.4333,
      "duration": 0.0299,
      "velocity": 96,
      "chip": "ym2612"
    },
    {
      "channel": 1,
      "note": 78,
      "start": 8.4356,
      "duration": 0.1938,
      "velocity": 92,
      "chip": "ym2612"
    },
    {
      "channel": 3,
      "note": 72,
      "start": 8.4378,
      "duration": 0.1251,
      "velocity": 92,
      "chip": "ym2612"
    },
    {
      "channel": 0,
      "note": 57,
      "start": 8.44,
      "duration": 0.0052,
      "velocity": 127,
      "chip": "ym2612"
    },
    {
      "channel": 4,
      "note": 96,
      "start": 8.4424,
      "duration": 0.1541,
      "velocity": 93,
      "chip": "ym2612"
    },
    {
      "channel": 5,
      "note": 93,
      "start": 8.4444,
      "duration": 0.1522,
      "velocity": 93,
      "chip": "ym2612"
    },
    {
      "channel": 0,
      "note": 88,
      "start": 8.4471,
      "duration": 0.149,
      "velocity": 93,
      "chip": "ym2612"
    },
    {
      "channel": 3,
      "note": 69,
      "start": 8.6007,
      "duration": 0.0956,
      "velocity": 92,
      "chip": "ym2612"
    },
    {
      "channel": 2,
      "note": 74,
      "start": 8.6029,
      "duration": 0.0937,
      "velocity": 92,
      "chip": "ym2612"
    },
    {
      "channel": 0,
      "note": 90,
      "start": 8.6053,
      "duration": 0.0908,
      "velocity": 93,
      "chip": "ym2612"
    },
    {
      "channel": 4,
      "note": 95,
      "start": 8.6074,
      "duration": 0.1224,
      "velocity": 93,
      "chip": "ym2612"
    },
    {
      "channel": 5,
      "note": 98,
      "start": 8.6096,
      "duration": 0.1203,
      "velocity": 93,
      "chip": "ym2612"
    },
    {
      "channel": 1,
      "note": 52,
      "start": 8.7373,
      "duration": 0.0749,
      "velocity": 127,
      "chip": "ym2612"
    },
    {
      "channel": 3,
      "note": 45,
      "start": 8.8056,
      "duration": 0.0407,
      "velocity": 92,
      "chip": "ym2612"
    },
    {
      "channel": 0,
      "note": 45,
      "start": 8.857,
      "duration": 0.0373,
      "velocity": 116,
      "chip": "ym2612"
    },
    {
      "channel": 1,
      "note": 55,
      "start": 8.8588,
      "duration": 0.1356,
      "velocity": 127,
      "chip": "ym2612"
    },
    {
      "channel": 3,
      "note": 57,
      "start": 9.0183,
      "duration": 0.0118,
      "velocity": 92,
      "chip": "ym2612"
    },
    {
      "channel": 0,
      "note": 45,
      "start": 9.0201,
      "duration": 0.0314,
      "velocity": 116,
      "chip": "ym2612"
    },
    {
      "channel": 3,
      "note": 69,
      "start": 9.0713,
      "duration": 0.0591,
      "velocity": 92,
      "chip": "ym2612"
    },
    {
      "channel": 2,
      "note": 72,
      "start": 9.0734,
      "duration": 0.072,
      "velocity": 92,
      "chip": "ym2612"
    },
    {
      "channel": 1,
      "note": 57,
      "start": 9.0755,
      "duration": 0.0695,
      "velocity": 127,
      "chip": "ym2612"
    },
    {
      "channel": 2,
      "note": 82,
      "start": 9.1474,
      "duration": 0.0049,
      "velocity": 96,
      "chip": "ym2612"
    },
    {
      "channel": 2,
      "note": 82,
      "start": 9.2297,
      "duration": 0.0121,
      "velocity": 96,
      "chip": "ym2612"
    },
    {
      "channel": 3,
      "note": 78,
      "start": 9.2352,
      "duration": 0.0384,
      "velocity": 92,
      "chip": "ym2612"
    },
    {
      "channel": 4,
      "note": 74,
      "start": 9.2373,
      "duration": 0.0434,
      "velocity": 92,
      "chip": "ym2612"
    },
    {
      "channel": 1,
      "note": 52,
      "start": 9.2403,
      "duration": 0.0402,
      "velocity": 127,
      "chip": "ym2612"
    },
    {
      "channel": 1,
      "note": 55,
      "start": 9.3046,
      "duration": 0.0461,
      "velocity": 127,
      "chip": "ym2612"
    },
    {
      "channel": 3,
      "note": 72,
      "start": 9.3532,
      "duration": 0.1337,
      "velocity": 92,
      "chip": "ym2612"
    },
    {
      "channel": 4,
      "note": 67,
      "start": 9.3555,
      "duration": 0.1485,
      "velocity": 92,
      "chip": "ym2612"
    },
    {
      "channel": 2,
      "note": 82,
      "start": 9.5076,
      "duration": 0.0295,
      "velocity": 96,
      "chip": "ym2612"
    },
    {
      "channel": 1,
      "note": 57,
      "start": 9.5098,
      "duration": 0.1272,
      "velocity": 127,
      "chip": "ym2612"
    },
    {
      "channel": 3,
      "note": 72,
      "start": 9.6445,
      "duration": 0.0463,
      "velocity": 92,
      "chip": "ym2612"
    },
    {
      "channel": 4,
      "note": 69,
      "start": 9.6464,
      "duration": 0.074,
      "velocity": 92,
      "chip": "ym2612"
    },
    {
      "channel": 0,
      "note": 45,
      "start": 9.649,
      "duration": 0.0077,
      "velocity": 116,
      "chip": "ym2612"
    },
    {
      "channel": 0,
      "note": 45,
      "start": 9.7157,
      "duration": 0.0274,
      "velocity": 116,
      "chip": "ym2612"
    },
    {
      "channel": 1,
      "note": 52,
      "start": 9.7179,
      "duration": 0.0419,
      "velocity": 127,
      "chip": "ym2612"
    },
    {
      "channel": 3,
      "note": 57,
      "start": 9.8015,
      "duration": 0.0181,
      "velocity": 92,
      "chip": "ym2612"
    },
    {
      "channel": 1,
      "note": 55,
      "start": 9.8036,
      "duration": 0.0879,
      "velocity": 127,
      "chip": "ym2612"
    },
    {
      "channel": 2,
      "note": 82,
      "start": 9.8715,
      "duration": 0.0091,
      "velocity": 96,
      "chip": "ym2612"
    },
    {
      "channel": 3,
      "note": 67,
      "start": 9.8734,
      "duration": 0.0182,
      "velocity": 92,
      "chip": "ym2612"
    },
    {
      "channel": 4,
      "note": 72,
      "start": 9.8753,
      "duration": 0.0236,
      "velocity": 92,
      "chip": "ym2612"
    },
    {
      "channel": 0,
      "note": 64,
      "start": 9.8789,
      "duration": 0.0124,
      "velocity": 92,
      "chip": "ym2612"
    },
    {
      "channel": 2,
      "note": 82,
      "start": 9.9451,
      "duration": 0.0298,
      "velocity": 96,
      "chip": "ym2612"
    },
    {
      "channel": 1,
      "note": 57,
      "start": 9.9474,
      "duration": 0.1605,
      "velocity": 127,
      "chip": "ym2612"
    },
    {
      "channel": 0,
      "note": 79,
      "start": 10.1122,
      "duration": 0.0289,
      "velocity": 92,
      "chip": "ym2612"
    },
    {
      "channel": 3,
      "note": 52,
      "start": 10.1143,
      "duration": 0.0273,
      "velocity": 92,
      "chip": "ym2612"
    },
    {
      "channel": 0,
      "note": 45,
      "start": 10.2486,
      "duration": 0.1055,
      "velocity": 92,
      "chip": "ym2612"
    },
    {
      "channel": 1,
      "note": 52,
      "start": 10.2504,
      "duration": 0.0515,
      "velocity": 127,
      "chip": "ym2612"
    },
    {
      "channel": 2,
      "note": 82,
      "start": 10.3187,
      "duration": 0.0067,
      "velocity": 96,
      "chip": "ym2612"
    },
    {
      "channel": 3,
      "note": 52,
      "start": 10.3207,
      "duration": 0.0336,
      "velocity": 92,
      "chip": "ym2612"
    },
    {
      "channel": 4,
      "note": 79,
      "start": 10.3226,
      "duration": 0.024,
      "velocity": 92,
      "chip": "ym2612"
    },
    {
      "channel": 2,
      "note": 82,
      "start": 10.37,
      "duration": 0.0106,
      "velocity": 96,
      "chip": "ym2612"
    },
    {
      "channel": 0,
      "note": 78,
      "start": 10.3723,
      "duration": 0.1461,
      "velocity": 92,
      "chip": "ym2612"
    },
    {
      "channel": 3,
      "note": 74,
      "start": 10.3749,
      "duration": 0.1439,
      "velocity": 92,
      "chip": "ym2612"
    },
    {
      "channel": 1,
      "note": 45,
      "start": 10.3773,
      "duration": 0.0245,
      "velocity": 116,
      "chip": "ym2612"
    },
    {
      "channel": 4,
      "note": 55,
      "start": 10.3793,
      "duration": 0.1226,
      "velocity": 127,
      "chip": "ym2612"
    },
    {
      "channel": 1,
      "note": 45,
      "start": 10.5265,
      "duration": 0.0259,
      "velocity": 116,
      "chip": "ym2612"
    },
    {
      "channel": 0,
      "note": 48,
      "start": 10.5776,
      "duration": 0.0663,
      "velocity": 92,
      "chip": "ym2612"
    },
    {
      "channel": 3,
      "note": 76,
      "start": 10.5794,
      "duration": 0.0648,
      "velocity": 92,
      "chip": "ym2612"
    },
    {
      "channel": 4,
      "note": 57,
      "start": 10.5818,
      "duration": 0.0625,
      "velocity": 127,
      "chip": "ym2612"
    },
    {
      "channel": 2,
      "note": 82,
      "start": 10.6474,
      "duration": 0.0137,
      "velocity": 96,
      "chip": "ym2612"
    },
    {
      "channel": 0,
      "note": 67,
      "start": 10.6495,
      "duration": 0.011,
      "velocity": 92,
      "chip": "ym2612"
    },
    {
      "channel": 3,
      "note": 64,
      "start": 10.6511,
      "duration": 0.0095,
      "velocity": 92,
      "chip": "ym2612"
    },
    {
      "channel": 1,
      "note": 72,
      "start": 10.6539,
      "duration": 0.014,
      "velocity": 92,
      "chip": "ym2612"
    },
    {
      "channel": 0,
      "note": 60,
      "start": 10.7409,
      "duration": 0.0048,
      "velocity": 92,
      "chip": "ym2612"
    },
    {
      "channel": 1,
      "note": 58,
      "start": 10.7426,
      "duration": 0.0033,
      "velocity": 92,
      "chip": "ym2612"
    },
    {
      "channel": 4,
      "note": 52,
      "start": 10.7446,
      "duration": 0.0295,
      "velocity": 127,
      "chip": "ym2612"
    },
    {
      "channel": 0,
      "note": 62,
      "start": 10.8112,
      "duration": 0.005,
      "velocity": 92,
      "chip": "ym2612"
    },
    {
      "channel": 4,
      "note": 55,
      "start": 10.8132,
      "duration": 0.0753,
      "velocity": 127,
      "chip": "ym2612"
    },
    {
      "channel": 0,
      "note": 76,
      "start": 10.8927,
      "duration": 0.1623,
      "velocity": 92,
      "chip": "ym2612"
    },
    {
      "channel": 1,
      "note": 48,
      "start": 10.8946,
      "duration": 0.1607,
      "velocity": 92,
      "chip": "ym2612"
    },
    {
      "channel": 3,
      "note": 66,
      "start": 10.8965,
      "duration": 0.1087,
      "velocity": 92,
      "chip": "ym2612"
    },
    {
      "channel": 2,
      "note": 72,
      "start": 10.899,
      "duration": 0.0066,
      "velocity": 92,
      "chip": "ym2612"
    },
    {
      "channel": 5,
      "note": 45,
      "start": 10.9014,
      "duration": 0.0374,
      "velocity": 116,
      "chip": "ym2612"
    },
    {
      "channel": 2,
      "note": 82,
      "start": 11.0591,
      "duration": 0.0165,
      "velocity": 96,
      "chip": "ym2612"
    },
    {
      "channel": 0,
      "note": 60,
      "start": 11.0647,
      "duration": 0.0105,
      "velocity": 92,
      "chip": "ym2612"
    },
    {
      "channel": 4,
      "note": 45,
      "start": 11.0669,
      "duration": 0.023,
      "velocity": 116,
      "chip": "ym2612"
    },
    {
      "channel": 3,
      "note": 57,
      "start": 11.0696,
      "duration": 0.0417,
      "velocity": 127,
      "chip": "ym2612"
    },
    {
      "channel": 2,
      "note": 82,
      "start": 11.1145,
      "duration": 0.0159,
      "velocity": 96,
      "chip": "ym2612"
    },
    {
      "channel": 0,
      "note": 78,
      "start": 11.1198,
      "duration": 0.0723,
      "velocity": 92,
      "chip": "ym2612"
    },
    {
      "channel": 1,
      "note": 72,
      "start": 11.1225,
      "duration": 0.0289,
      "velocity": 92,
      "chip": "ym2612"
    },
    {
      "channel": 4,
      "note": 76,
      "start": 11.1246,
      "duration": 0.0056,
      "velocity": 92,
      "chip": "ym2612"
    },
    {
      "channel": 3,
      "note": 67,
      "start": 11.1265,
      "duration": 0.0492,
      "velocity": 92,
      "chip": "ym2612"
    },
    {
      "channel": 4,
      "note": 52,
      "start": 11.2136,
      "duration": 0.0287,
      "velocity": 127,
      "chip": "ym2612"
    },
    {
      "channel": 0,
      "note": 79,
      "start": 11.3494,
      "duration": 0.0503,
      "velocity": 92,
      "chip": "ym2612"
    },
    {
      "channel": 1,
      "note": 72,
      "start": 11.351,
      "duration": 0.0488,
      "velocity": 92,
      "chip": "ym2612"
    },
    {
      "channel": 3,
      "note": 76,
      "start": 11.3529,
      "duration": 0.0588,
      "velocity": 92,
      "chip": "ym2612"
    },
    {
      "channel": 2,
      "note": 45,
      "start": 11.3564,
      "duration": 0.0222,
      "velocity": 116,
      "chip": "ym2612"
    },
    {
      "channel": 4,
      "note": 60,
      "start": 11.3584,
      "duration": 0.0014,
      "velocity": 127,
      "chip": "ym2612"
    },
    {
      "channel": 4,
      "note": 93,
      "start": 11.3611,
      "duration": 0.0005,
      "velocity": 93,
      "chip": "ym2612"
    },
    {
      "channel": 4,
      "note": 88,
      "start": 11.3632,
      "duration": 0.0369,
      "velocity": 93,
      "chip": "ym2612"
    },
    {
      "channel": 2,
      "note": 82,
      "start": 11.4488,
      "duration": 0.0085,
      "velocity": 96,
      "chip": "ym2612"
    },
    {
      "channel": 0,
      "note": 45,
      "start": 11.4544,
      "duration": 0.0246,
      "velocity": 116,
      "chip": "ym2612"
    },
    {
      "channel": 2,
      "note": 82,
      "start": 11.5033,
      "duration": 0.0168,
      "velocity": 96,
      "chip": "ym2612"
    },
    {
      "channel": 1,
      "note": 74,
      "start": 11.5087,
      "duration": 0.0461,
      "velocity": 92,
      "chip": "ym2612"
    },
    {
      "channel": 3,
      "note": 78,
      "start": 11.5105,
      "duration": 0.0445,
      "velocity": 92,
      "chip": "ym2612"
    },
    {
      "channel": 4,
      "note": 57,
      "start": 11.513,
      "duration": 0.0698,
      "velocity": 127,
      "chip": "ym2612"
    },
    {
      "channel": 0,
      "note": 90,
      "start": 11.5151,
      "duration": 0.0015,
      "velocity": 93,
      "chip": "ym2612"
    },
    {
      "channel": 0,
      "note": 95,
      "start": 11.518,
      "duration": 0.0368,
      "velocity": 93,
      "chip": "ym2612"
    },
    {
      "channel": 1,
      "note": 76,
      "start": 11.6073,
      "duration": 0.0641,
      "velocity": 92,
      "chip": "ym2612"
    },
    {
      "channel": 3,
      "note": 57,
      "start": 11.6091,
      "duration": 0.0396,
      "velocity": 92,
      "chip": "ym2612"
    },
    {
      "channel": 2,
      "note": 81,
      "start": 11.6111,
      "duration": 0.0377,
      "velocity": 92,
      "chip": "ym2612"
    },
    {
      "channel": 0,
      "note": 88,
      "start": 11.6138,
      "duration": 0.0348,
      "velocity": 93,
      "chip": "ym2612"
    },
    {
      "channel": 4,
      "note": 84,
      "start": 11.6168,
      "duration": 0.0387,
      "velocity": 93,
      "chip": "ym2612"
    },
    {
      "channel": 0,
      "note": 52,
      "start": 11.6631,
      "duration": 0.0788,
      "velocity": 127,
      "chip": "ym2612"
    },
    {
      "channel": 2,
      "note": 82,
      "start": 11.7376,
      "duration": 0.0049,
      "velocity": 96,
      "chip": "ym2612"
    },
    {
      "channel": 2,
      "note": 82,
      "start": 11.7873,
      "duration": 0.0091,
      "velocity": 96,
      "chip": "ym2612"
    },
    {
      "channel": 0,
      "note": 55,
      "start": 11.7898,
      "duration": 0.123,
      "velocity": 127,
      "chip": "ym2612"
    },
    {
      "channel": 0,
      "note": 57,
      "start": 12.0036,
      "duration": 0.0652,
      "velocity": 127,
      "chip": "ym2612"
    },
    {
      "channel": 2,
      "note": 82,
      "start": 12.071,
      "duration": 0.0099,
      "velocity": 96,
      "chip": "ym2612"
    },
    {
      "channel": 1,
      "note": 69,
      "start": 12.0732,
      "duration": 0.0125,
      "velocity": 92,
      "chip": "ym2612"
    },
    {
      "channel": 3,
      "note": 72,
      "start": 12.075,
      "duration": 0.0177,
      "velocity": 92,
      "chip": "ym2612"
    },
    {
      "channel": 4,
      "note": 74,
      "start": 12.0785,
      "duration": 0.0309,
      "velocity": 83,
      "chip": "ym2612"
    },
    {
      "channel": 0,
      "note": 79,
      "start": 12.0803,
      "duration": 0.0287,
      "velocity": 83,
      "chip": "ym2612"
    },
    {
      "channel": 2,
      "note": 81,
      "start": 12.0823,
      "duration": 0.0272,
      "velocity": 83,
      "chip": "ym2612"
    },
    {
      "channel": 1,
      "note": 52,
      "start": 12.1501,
      "duration": 0.0396,
      "velocity": 127,
      "chip": "ym2612"
    },
    {
      "channel": 1,
      "note": 55,
      "start": 12.2294,
      "duration": 0.0485,
      "velocity": 127,
      "chip": "ym2612"
    },
    {
      "channel": 0,
      "note": 57,
      "start": 12.2313,
      "duration": 0.0244,
      "velocity": 83,
      "chip": "ym2612"
    },
    {
      "channel": 4,
      "note": 67,
      "start": 12.2332,
      "duration": 0.03,
      "velocity": 83,
      "chip": "ym2612"
    },
    {
      "channel": 3,
      "note": 74,
      "start": 12.2817,
      "duration": 0.1454,
      "velocity": 92,
      "chip": "ym2612"
    },
    {
      "channel": 2,
      "note": 72,
      "start": 12.284,
      "duration": 0.1098,
      "velocity": 92,
      "chip": "ym2612"
    },
    {
      "channel": 0,
      "note": 79,
      "start": 12.2863,
      "duration": 0.1404,
      "velocity": 92,
      "chip": "ym2612"
    },
    {
      "channel": 2,
      "note": 82,
      "start": 12.4471,
      "duration": 0.0132,
      "velocity": 96,
      "chip": "ym2612"
    },
    {
      "channel": 1,
      "note": 57,
      "start": 12.4495,
      "duration": 0.0939,
      "velocity": 127,
      "chip": "ym2612"
    },
    {
      "channel": 2,
      "note": 82,
      "start": 12.5639,
      "duration": 0.0168,
      "velocity": 96,
      "chip": "ym2612"
    },
    {
      "channel": 0,
      "note": 78,
      "start": 12.5693,
      "duration": 0.0393,
      "velocity": 92,
      "chip": "ym2612"
    },
    {
      "channel": 3,
      "note": 74,
      "start": 12.5711,
      "duration": 0.038,
      "velocity": 92,
      "chip": "ym2612"
    },
    {
      "channel": 4,
      "note": 45,
      "start": 12.5744,
      "duration": 0.0133,
      "velocity": 116,
      "chip": "ym2612"
    },
    {
      "channel": 4,
      "note": 45,
      "start": 12.6417,
      "duration": 0.0194,
      "velocity": 116,
      "chip": "ym2612"
    },
    {
      "channel": 1,
      "note": 52,
      "start": 12.6437,
      "duration": 0.0406,
      "velocity": 127,
      "chip": "ym2612"
    },
    {
      "channel": 0,
      "note": 74,
      "start": 12.7386,
      "duration": 0.0591,
      "velocity": 92,
      "chip": "ym2612"
    },
    {
      "channel": 3,
      "note": 72,
      "start": 12.7407,
      "duration": 0.0779,
      "velocity": 92,
      "chip": "ym2612"
    },
    {
      "channel": 2,
      "note": 79,
      "start": 12.7431,
      "duration": 0.0619,
      "velocity": 92,
      "chip": "ym2612"
    },
    {
      "channel": 1,
      "note": 55,
      "start": 12.7454,
      "duration": 0.103,
      "velocity": 127,
      "chip": "ym2612"
    },
    {
      "channel": 2,
      "note": 82,
      "start": 12.8219,
      "duration": 0.0086,
      "velocity": 96,
      "chip": "ym2612"
    },
    {
      "channel": 4,
      "note": 81,
      "start": 12.8243,
      "duration": 0.0061,
      "velocity": 83,
      "chip": "ym2612"
    },
    {
      "channel": 0,
      "note": 79,
      "start": 12.8261,
      "duration": 0.0152,
      "velocity": 83,
      "chip": "ym2612"
    },
    {
      "channel": 3,
      "note": 72,
      "start": 12.8292,
      "duration": 0.0123,
      "velocity": 83,
      "chip": "ym2612"
    },
    {
      "channel": 2,
      "note": 82,
      "start": 12.8876,
      "duration": 0.0127,
      "velocity": 96,
      "chip": "ym2612"
    },
    {
      "channel": 4,
      "note": 45,
      "start": 12.8903,
      "duration": 0.0931,
      "velocity": 116,
      "chip": "ym2612"
    },
    {
      "channel": 1,
      "note": 57,
      "start": 12.8924,
      "duration": 0.141,
      "velocity": 127,
      "chip": "ym2612"
    },
    {
      "channel": 0,
      "note": 57,
      "start": 13.0544,
      "duration": 0.0456,
      "velocity": 92,
      "chip": "ym2612"
    },
    {
      "channel": 0,
      "note": 79,
      "start": 13.1744,
      "duration": 0.0327,
      "velocity": 92,
      "chip": "ym2612"
    },
    {
      "channel": 3,
      "note": 74,
      "start": 13.1767,
      "duration": 0.0306,
      "velocity": 92,
      "chip": "ym2612"
    },
    {
      "channel": 1,
      "note": 52,
      "start": 13.1784,
      "duration": 0.0866,
      "velocity": 127,
      "chip": "ym2612"
    },
    {
      "channel": 0,
      "note": 75,
      "start": 13.2097,
      "duration": 0.0262,
      "velocity": 92,
      "chip": "ym2612"
    },
    {
      "channel": 2,
      "note": 82,
      "start": 13.2465,
      "duration": 0.0116,
      "velocity": 96,
      "chip": "ym2612"
    },
    {
      "channel": 0,
      "note": 74,
      "start": 13.2484,
      "duration": 0.0388,
      "velocity": 92,
      "chip": "ym2612"
    },
    {
      "channel": 3,
      "note": 72,
      "start": 13.2686,
      "duration": 0.0329,
      "velocity": 92,
      "chip": "ym2612"
    },
    {
      "channel": 2,
      "note": 82,
      "start": 13.3052,
      "duration": 0.0101,
      "velocity": 96,
      "chip": "ym2612"
    },
    {
      "channel": 0,
      "note": 69,
      "start": 13.3074,
      "duration": 0.0407,
      "velocity": 92,
      "chip": "ym2612"
    },
    {
      "channel": 1,
      "note": 55,
      "start": 13.3096,
      "duration": 0.1053,
      "velocity": 127,
      "chip": "ym2612"
    },
    {
      "channel": 1,
      "note": 57,
      "start": 13.5243,
      "duration": 0.0654,
      "velocity": 127,
      "chip": "ym2612"
    },
    {
      "channel": 2,
      "note": 82,
      "start": 13.592,
      "duration": 0.0137,
      "velocity": 96,
      "chip": "ym2612"
    },
    {
      "channel": 4,
      "note": 81,
      "start": 13.5944,
      "duration": 0.0109,
      "velocity": 83,
      "chip": "ym2612"
    },
    {
      "channel": 3,
      "note": 72,
      "start": 13.5965,
      "duration": 0.0164,
      "velocity": 83,
      "chip": "ym2612"
    },
    {
      "channel": 0,
      "note": 79,
      "start": 13.5999,
      "duration": 0.0127,
      "velocity": 83,
      "chip": "ym2612"
    },
    {
      "channel": 1,
      "note": 45,
      "start": 13.6707,
      "duration": 0.0192,
      "velocity": 116,
      "chip": "ym2612"
    },
    {
      "channel": 4,
      "note": 52,
      "start": 13.6729,
      "duration": 0.0317,
      "velocity": 127,
      "chip": "ym2612"
    },
    {
      "channel": 0,
      "note": 67,
      "start": 13.6751,
      "duration": 0.0292,
      "velocity": 83,
      "chip": "ym2612"
    },
    {
      "channel": 1,
      "note": 45,
      "start": 13.7435,
      "duration": 0.0324,
      "velocity": 116,
      "chip": "ym2612"
    },
    {
      "channel": 4,
      "note": 55,
      "start": 13.7453,
      "duration": 0.0518,
      "velocity": 127,
      "chip": "ym2612"
    },
    {
      "channel": 1,
      "note": 45,
      "start": 13.801,
      "duration": 0.0766,
      "velocity": 116,
      "chip": "ym2612"
    },
    {
      "channel": 2,
      "note": 82,
      "start": 13.9648,
      "duration": 0.0132,
      "velocity": 96,
      "chip": "ym2612"
    },
    {
      "channel": 3,
      "note": 72,
      "start": 13.9672,
      "duration": 0.0438,
      "velocity": 92,
      "chip": "ym2612"
    },
    {
      "channel": 4,
      "note": 57,
      "start": 13.9694,
      "duration": 0.1083,
      "velocity": 127,
      "chip": "ym2612"
    },
    {
      "channel": 2,
      "note": 82,
      "start": 14.0815,
      "duration": 0.0089,
      "velocity": 96,
      "chip": "ym2612"
    },
    {
      "channel": 1,
      "note": 45,
      "start": 14.0871,
      "duration": 0.039,
      "velocity": 116,
      "chip": "ym2612"
    },
    {
      "channel": 4,
      "note": 55,
      "start": 14.1594,
      "duration": 0.0312,
      "velocity": 127,
      "chip": "ym2612"
    },
    {
      "channel": 0,
      "note": 67,
      "start": 14.1625,
      "duration": 0.0063,
      "velocity": 83,
      "chip": "ym2612"
    },
    {
      "channel": 3,
      "note": 57,
      "start": 14.1654,
      "duration": 0.0035,
      "velocity": 83,
      "chip": "ym2612"
    },
    {
      "channel": 2,
      "note": 79,
      "start": 14.2122,
      "duration": 0.0575,
      "velocity": 92,
      "chip": "ym2612"
    },
    {
      "channel": 4,
      "note": 60,
      "start": 14.2151,
      "duration": 0.0821,
      "velocity": 127,
      "chip": "ym2612"
    },
    {
      "channel": 2,
      "note": 82,
      "start": 14.286,
      "duration": 0.0113,
      "velocity": 96,
      "chip": "ym2612"
    },
    {
      "channel": 1,
      "note": 45,
      "start": 14.2881,
      "duration": 0.0067,
      "velocity": 116,
      "chip": "ym2612"
    },
    {
      "channel": 0,
      "note": 72,
      "start": 14.2901,
      "duration": 0.0108,
      "velocity": 83,
      "chip": "ym2612"
    },
    {
      "channel": 3,
      "note": 79,
      "start": 14.2941,
      "duration": 0.0072,
      "velocity": 83,
      "chip": "ym2612"
    },
    {
      "channel": 1,
      "note": 81,
      "start": 14.2961,
      "duration": 0.0049,
      "velocity": 83,
      "chip": "ym2612"
    },
    {
      "channel": 2,
      "note": 82,
      "start": 14.3685,
      "duration": 0.0148,
      "velocity": 96,
      "chip": "ym2612"
    },
    {
      "channel": 4,
      "note": 79,
      "start": 14.3738,
      "duration": 0.0474,
      "velocity": 92,
      "chip": "ym2612"
    },
    {
      "channel": 0,
      "note": 57,
      "start": 14.3758,
      "duration": 0.0452,
      "velocity": 127,
      "chip": "ym2612"
    },
    {
      "channel": 1,
      "note": 88,
      "start": 14.379,
      "duration": 0.0501,
      "velocity": 93,
      "chip": "ym2612"
    },
    {
      "channel": 3,
      "note": 96,
      "start": 14.3809,
      "duration": 0.0482,
      "velocity": 93,
      "chip": "ym2612"
    },
    {
      "channel": 1,
      "note": 84,
      "start": 14.4454,
      "duration": 0.04,
      "velocity": 93,
      "chip": "ym2612"
    },
    {
      "channel": 3,
      "note": 95,
      "start": 14.4471,
      "duration": 0.0384,
      "velocity": 93,
      "chip": "ym2612"
    },
    {
      "channel": 2,
      "note": 98,
      "start": 14.4494,
      "duration": 0.0364,
      "velocity": 93,
      "chip": "ym2612"
    },
    {
      "channel": 4,
      "note": 57,
      "start": 14.4987,
      "duration": 0.0236,
      "velocity": 92,
      "chip": "ym2612"
    },
    {
      "channel": 0,
      "note": 52,
      "start": 14.5007,
      "duration": 0.0992,
      "velocity": 127,
      "chip": "ym2612"
    },
    {
      "channel": 2,
      "note": 82,
      "start": 14.5673,
      "duration": 0.0121,
      "velocity": 96,
      "chip": "ym2612"
    },
    {
      "channel": 4,
      "note": 57,
      "start": 14.5693,
      "duration": 0.0098,
      "velocity": 92,
      "chip": "ym2612"
    },
    {
      "channel": 2,
      "note": 82,
      "start": 14.6164,
      "duration": 0.0189,
      "velocity": 96,
      "chip": "ym2612"
    },
    {
      "channel": 4,
      "note": 67,
      "start": 14.6183,
      "duration": 0.0166,
      "velocity": 92,
      "chip": "ym2612"
    },
    {
      "channel": 0,
      "note": 55,
      "start": 14.621,
      "duration": 0.1306,
      "velocity": 127,
      "chip": "ym2612"
    },
    {
      "channel": 4,
      "note": 69,
      "start": 14.8443,
      "duration": 0.0171,
      "velocity": 92,
      "chip": "ym2612"
    },
    {
      "channel": 0,
      "note": 57,
      "start": 14.8461,
      "duration": 0.0649,
      "velocity": 127,
      "chip": "ym2612"
    },
    {
      "channel": 2,
      "note": 82,
      "start": 14.9131,
      "duration": 0.0109,
      "velocity": 96,
      "chip": "ym2612"
    },
    {
      "channel": 4,
      "note": 75,
      "start": 14.915,
      "duration": 0.0196,
      "velocity": 92,
      "chip": "ym2612"
    },
    {
      "channel": 1,
      "note": 74,
      "start": 14.9173,
      "duration": 0.0171,
      "velocity": 83,
      "chip": "ym2612"
    },
    {
      "channel": 3,
      "note": 81,
      "start": 14.9208,
      "duration": 0.0215,
      "velocity": 83,
      "chip": "ym2612"
    },
    {
      "channel": 0,
      "note": 78,
      "start": 14.9229,
      "duration": 0.0115,
      "velocity": 83,
      "chip": "ym2612"
    },
    {
      "channel": 4,
      "note": 57,
      "start": 14.991,
      "duration": 0.0105,
      "velocity": 92,
      "chip": "ym2612"
    },
    {
      "channel": 2,
      "note": 52,
      "start": 14.993,
      "duration": 0.0381,
      "velocity": 127,
      "chip": "ym2612"
    },
    {
      "channel": 4,
      "note": 67,
      "start": 15.0617,
      "duration": 0.021,
      "velocity": 92,
      "chip": "ym2612"
    },
    {
      "channel": 2,
      "note": 55,
      "start": 15.0637,
      "duration": 0.0543,
      "velocity": 127,
      "chip": "ym2612"
    },
    {
      "channel": 0,
      "note": 57,
      "start": 15.0666,
      "duration": 0.0082,
      "velocity": 83,
      "chip": "ym2612"
    },
    {
      "channel": 0,
      "note": 81,
      "start": 15.122,
      "duration": 0.1595,
      "velocity": 83,
      "chip": "ym2612"
    },
    {
      "channel": 1,
      "note": 74,
      "start": 15.1241,
      "duration": 0.1741,
      "velocity": 83,
      "chip": "ym2612"
    },
    {
      "channel": 2,
      "note": 82,
      "start": 15.2854,
      "duration": 0.0133,
      "velocity": 96,
      "chip": "ym2612"
    },
    {
      "channel": 4,
      "note": 69,
      "start": 15.2877,
      "duration": 0.0109,
      "velocity": 92,
      "chip": "ym2612"
    },
    {
      "channel": 3,
      "note": 57,
      "start": 15.29,
      "duration": 0.1083,
      "velocity": 127,
      "chip": "ym2612"
    },
    {
      "channel": 2,
      "note": 82,
      "start": 15.4021,
      "duration": 0.0092,
      "velocity": 96,
      "chip": "ym2612"
    },
    {
      "channel": 0,
      "note": 45,
      "start": 15.4077,
      "duration": 0.0174,
      "velocity": 116,
      "chip": "ym2612"
    },
    {
      "channel": 1,
      "note": 72,
      "start": 15.4096,
      "duration": 0.0442,
      "velocity": 83,
      "chip": "ym2612"
    },
    {
      "channel": 4,
      "note": 57,
      "start": 15.4785,
      "duration": 0.0062,
      "velocity": 92,
      "chip": "ym2612"
    },
    {
      "channel": 0,
      "note": 45,
      "start": 15.4804,
      "duration": 0.0382,
      "velocity": 116,
      "chip": "ym2612"
    },
    {
      "channel": 3,
      "note": 52,
      "start": 15.4822,
      "duration": 0.0585,
      "velocity": 127,
      "chip": "ym2612"
    },
    {
      "channel": 4,
      "note": 67,
      "start": 15.5308,
      "duration": 0.0826,
      "velocity": 92,
      "chip": "ym2612"
    },
    {
      "channel": 2,
      "note": 55,
      "start": 15.533,
      "duration": 0.0661,
      "velocity": 127,
      "chip": "ym2612"
    },
    {
      "channel": 2,
      "note": 82,
      "start": 15.6005,
      "duration": 0.0131,
      "velocity": 96,
      "chip": "ym2612"
    },
    {
      "channel": 0,
      "note": 45,
      "start": 15.6025,
      "duration": 0.0519,
      "velocity": 116,
      "chip": "ym2612"
    },
    {
      "channel": 2,
      "note": 82,
      "start": 15.6921,
      "duration": 0.0128,
      "velocity": 96,
      "chip": "ym2612"
    },
    {
      "channel": 4,
      "note": 69,
      "start": 15.6945,
      "duration": 0.01,
      "velocity": 92,
      "chip": "ym2612"
    },
    {
      "channel": 3,
      "note": 57,
      "start": 15.6966,
      "duration": 0.1746,
      "velocity": 127,
      "chip": "ym2612"
    },
    {
      "channel": 1,
      "note": 67,
      "start": 15.8592,
      "duration": 0.0619,
      "velocity": 83,
      "chip": "ym2612"
    },
    {
      "channel": 5,
      "note": 72,
      "start": 15.8621,
      "duration": 0.0428,
      "velocity": 83,
      "chip": "ym2612"
    },
    {
      "channel": 3,
      "note": 52,
      "start": 15.9785,
      "duration": 0.091,
      "velocity": 127,
      "chip": "ym2612"
    },
    {
      "channel": 2,
      "note": 82,
      "start": 16.0487,
      "duration": 0.0134,
      "velocity": 96,
      "chip": "ym2612"
    },
    {
      "channel": 4,
      "note": 57,
      "start": 16.0506,
      "duration": 0.0112,
      "velocity": 92,
      "chip": "ym2612"
    },
    {
      "channel": 1,
      "note": 57,
      "start": 16.0529,
      "duration": 0.0088,
      "velocity": 83,
      "chip": "ym2612"
    },
    {
      "channel": 2,
      "note": 82,
      "start": 16.1,
      "duration": 0.02,
      "velocity": 96,
      "chip": "ym2612"
    },
    {
      "channel": 4,
      "note": 67,
      "start": 16.103,
      "duration": 0.0334,
      "velocity": 92,
      "chip": "ym2612"
    },
    {
      "channel": 3,
      "note": 55,
      "start": 16.1049,
      "duration": 0.1149,
      "velocity": 127,
      "chip": "ym2612"
    },
    {
      "channel": 1,
      "note": 69,
      "start": 16.108,
      "duration": 0.1283,
      "velocity": 83,
      "chip": "ym2612"
    },
    {
      "channel": 0,
      "note": 74,
      "start": 16.1101,
      "duration": 0.1429,
      "velocity": 83,
      "chip": "ym2612"
    },
    {
      "channel": 4,
      "note": 69,
      "start": 16.3184,
      "duration": 0.018,
      "velocity": 92,
      "chip": "ym2612"
    },
    {
      "channel": 3,
      "note": 57,
      "start": 16.3202,
      "duration": 0.0656,
      "velocity": 127,
      "chip": "ym2612"
    },
    {
      "channel": 0,
      "note": 67,
      "start": 16.3228,
      "duration": 0.0713,
      "velocity": 83,
      "chip": "ym2612"
    },
    {
      "channel": 1,
      "note": 72,
      "start": 16.3255,
      "duration": 0.0686,
      "velocity": 83,
      "chip": "ym2612"
    },
    {
      "channel": 2,
      "note": 82,
      "start": 16.3895,
      "duration": 0.0049,
      "velocity": 96,
      "chip": "ym2612"
    },
    {
      "channel": 4,
      "note": 66,
      "start": 16.4641,
      "duration": 0.0627,
      "velocity": 92,
      "chip": "ym2612"
    },
    {
      "channel": 3,
      "note": 69,
      "start": 16.4661,
      "duration": 0.0606,
      "velocity": 92,
      "chip": "ym2612"
    },
    {
      "channel": 0,
      "note": 52,
      "start": 16.4697,
      "duration": 0.0215,
      "velocity": 127,
      "chip": "ym2612"
    },
    {
      "channel": 0,
      "note": 55,
      "start": 16.537,
      "duration": 0.0384,
      "velocity": 127,
      "chip": "ym2612"
    },
    {
      "channel": 3,
      "note": 64,
      "start": 16.5886,
      "duration": 0.0593,
      "velocity": 92,
      "chip": "ym2612"
    },
    {
      "channel": 4,
      "note": 67,
      "start": 16.5927,
      "duration": 0.1053,
      "velocity": 92,
      "chip": "ym2612"
    },
    {
      "channel": 2,
      "note": 82,
      "start": 16.7018,
      "duration": 0.0084,
      "velocity": 96,
      "chip": "ym2612"
    },
    {
      "channel": 0,
      "note": 57,
      "start": 16.7074,
      "duration": 0.0443,
      "velocity": 127,
      "chip": "ym2612"
    },
    {
      "channel": 2,
      "note": 82,
      "start": 16.7541,
      "duration": 0.0132,
      "velocity": 96,
      "chip": "ym2612"
    },
    {
      "channel": 1,
      "note": 45,
      "start": 16.7598,
      "duration": 0.0235,
      "velocity": 116,
      "chip": "ym2612"
    },
    {
      "channel": 3,
      "note": 74,
      "start": 16.7632,
      "duration": 0.0539,
      "velocity": 83,
      "chip": "ym2612"
    },
    {
      "channel": 4,
      "note": 78,
      "start": 16.7653,
      "duration": 0.0396,
      "velocity": 83,
      "chip": "ym2612"
    },
    {
      "channel": 1,
      "note": 45,
      "start": 16.8577,
      "duration": 0.0255,
      "velocity": 116,
      "chip": "ym2612"
    },
    {
      "channel": 1,
      "note": 50,
      "start": 16.9103,
      "duration": 0.038,
      "velocity": 116,
      "chip": "ym2612"
    },
    {
      "channel": 0,
      "note": 60,
      "start": 16.9135,
      "duration": 0.0996,
      "velocity": 127,
      "chip": "ym2612"
    },
    {
      "channel": 3,
      "note": 76,
      "start": 16.9156,
      "duration": 0.0397,
      "velocity": 83,
      "chip": "ym2612"
    },
    {
      "channel": 4,
      "note": 72,
      "start": 16.9184,
      "duration": 0.0372,
      "velocity": 83,
      "chip": "ym2612"
    },
    {
      "channel": 2,
      "note": 82,
      "start": 16.979,
      "duration": 0.012,
      "velocity": 96,
      "chip": "ym2612"
    },
    {
      "channel": 1,
      "note": 50,
      "start": 16.981,
      "duration": 0.0654,
      "velocity": 116,
      "chip": "ym2612"
    },
    {
      "channel": 2,
      "note": 82,
      "start": 17.0514,
      "duration": 0.0154,
      "velocity": 96,
      "chip": "ym2612"
    },
    {
      "channel": 3,
      "note": 66,
      "start": 17.0568,
      "duration": 0.0383,
      "velocity": 92,
      "chip": "ym2612"
    },
    {
      "channel": 4,
      "note": 71,
      "start": 17.0589,
      "duration": 0.0512,
      "velocity": 92,
      "chip": "ym2612"
    },
    {
      "channel": 0,
      "note": 57,
      "start": 17.0607,
      "duration": 0.0493,
      "velocity": 127,
      "chip": "ym2612"
    },
    {
      "channel": 3,
      "note": 69,
      "start": 17.1326,
      "duration": 0.0334,
      "velocity": 92,
      "chip": "ym2612"
    },
    {
      "channel": 4,
      "note": 64,
      "start": 17.1346,
      "duration": 0.0453,
      "velocity": 92,
      "chip": "ym2612"
    },
    {
      "channel": 0,
      "note": 63,
      "start": 17.2537,
      "duration": 0.0262,
      "velocity": 127,
      "chip": "ym2612"
    },
    {
      "channel": 1,
      "note": 45,
      "start": 17.306,
      "duration": 0.0379,
      "velocity": 116,
      "chip": "ym2612"
    },
    {
      "channel": 0,
      "note": 62,
      "start": 17.3078,
      "duration": 0.1028,
      "velocity": 127,
      "chip": "ym2612"
    },
    {
      "channel": 1,
      "note": 45,
      "start": 17.4649,
      "duration": 0.079,
      "velocity": 116,
      "chip": "ym2612"
    },
    {
      "channel": 1,
      "note": 50,
      "start": 17.6017,
      "duration": 0.0258,
      "velocity": 116,
      "chip": "ym2612"
    },
    {
      "channel": 0,
      "note": 60,
      "start": 17.6034,
      "duration": 0.0311,
      "velocity": 127,
      "chip": "ym2612"
    },
    {
      "channel": 1,
      "note": 50,
      "start": 17.6718,
      "duration": 0.0419,
      "velocity": 116,
      "chip": "ym2612"
    },
    {
      "channel": 1,
      "note": 52,
      "start": 17.7683,
      "duration": 0.0621,
      "velocity": 116,
      "chip": "ym2612"
    },
    {
      "channel": 0,
      "note": 57,
      "start": 17.7704,
      "duration": 0.1434,
      "velocity": 127,
      "chip": "ym2612"
    },
    {
      "channel": 0,
      "note": 55,
      "start": 18.0545,
      "duration": 0.0467,
      "velocity": 127,
      "chip": "ym2612"
    },
    {
      "channel": 1,
      "note": 45,
      "start": 18.1248,
      "duration": 0.0115,
      "velocity": 116,
      "chip": "ym2612"
    },
    {
      "channel": 1,
      "note": 45,
      "start": 18.1832,
      "duration": 0.0288,
      "velocity": 116,
      "chip": "ym2612"
    },
    {
      "channel": 0,
      "note": 57,
      "start": 18.1852,
      "duration": 0.1266,
      "velocity": 127,
      "chip": "ym2612"
    },
    {
      "channel": 0,
      "note": 60,
      "start": 18.4694,
      "duration": 0.0809,
      "velocity": 127,
      "chip": "ym2612"
    },
    {
      "channel": 1,
      "note": 50,
      "start": 18.5389,
      "duration": 0.0186,
      "velocity": 116,
      "chip": "ym2612"
    },
    {
      "channel": 1,
      "note": 50,
      "start": 18.6151,
      "duration": 0.0784,
      "velocity": 116,
      "chip": "ym2612"
    },
    {
      "channel": 0,
      "note": 57,
      "start": 18.6177,
      "duration": 0.1424,
      "velocity": 127,
      "chip": "ym2612"
    },
    {
      "channel": 1,
      "note": 45,
      "start": 18.9863,
      "duration": 0.0187,
      "velocity": 116,
      "chip": "ym2612"
    },
    {
      "channel": 0,
      "note": 63,
      "start": 18.9891,
      "duration": 0.0376,
      "velocity": 127,
      "chip": "ym2612"
    },
    {
      "channel": 1,
      "note": 45,
      "start": 19.038,
      "duration": 0.0542,
      "velocity": 116,
      "chip": "ym2612"
    },
    {
      "channel": 0,
      "note": 62,
      "start": 19.04,
      "duration": 0.1522,
      "velocity": 127,
      "chip": "ym2612"
    },
    {
      "channel": 1,
      "note": 50,
      "start": 19.3169,
      "duration": 0.019,
      "velocity": 116,
      "chip": "ym2612"
    },
    {
      "channel": 0,
      "note": 60,
      "start": 19.3188,
      "duration": 0.053,
      "velocity": 127,
      "chip": "ym2612"
    },
    {
      "channel": 1,
      "note": 50,
      "start": 19.389,
      "duration": 0.0569,
      "velocity": 116,
      "chip": "ym2612"
    },
    {
      "channel": 1,
      "note": 52,
      "start": 19.5006,
      "duration": 0.0954,
      "velocity": 116,
      "chip": "ym2612"
    },
    {
      "channel": 0,
      "note": 57,
      "start": 19.5027,
      "duration": 0.1266,
      "velocity": 127,
      "chip": "ym2612"
    },
    {
      "channel": 0,
      "note": 55,
      "start": 19.7876,
      "duration": 0.1087,
      "velocity": 127,
      "chip": "ym2612"
    },
    {
      "channel": 1,
      "note": 45,
      "start": 19.8567,
      "duration": 0.0321,
      "velocity": 116,
      "chip": "ym2612"
    },
    {
      "channel": 1,
      "note": 45,
      "start": 19.9077,
      "duration": 0.0679,
      "velocity": 116,
      "chip": "ym2612"
    },
    {
      "channel": 1,
      "note": 45,
      "start": 20.0799,
      "duration": 0.029,
      "velocity": 116,
      "chip": "ym2612"
    },
    {
      "channel": 1,
      "note": 50,
      "start": 20.2001,
      "duration": 0.0744,
      "velocity": 116,
      "chip": "ym2612"
    },
    {
      "channel": 0,
      "note": 56,
      "start": 20.2022,
      "duration": 0.0936,
      "velocity": 127,
      "chip": "ym2612"
    },
    {
      "channel": 1,
      "note": 45,
      "start": 20.5908,
      "duration": 0.0191,
      "velocity": 116,
      "chip": "ym2612"
    },
    {
      "channel": 2,
      "note": 63,
      "start": 20.594,
      "duration": 0.0309,
      "velocity": 83,
      "chip": "ym2612"
    },
    {
      "channel": 1,
      "note": 45,
      "start": 20.6419,
      "duration": 0.0376,
      "velocity": 116,
      "chip": "ym2612"
    },
    {
      "channel": 2,
      "note": 62,
      "start": 20.6445,
      "duration": 0.152,
      "velocity": 83,
      "chip": "ym2612"
    },
    {
      "channel": 1,
      "note": 45,
      "start": 20.8005,
      "duration": 0.0457,
      "velocity": 116,
      "chip": "ym2612"
    },
    {
      "channel": 1,
      "note": 50,
      "start": 20.9208,
      "duration": 0.0334,
      "velocity": 116,
      "chip": "ym2612"
    },
    {
      "channel": 2,
      "note": 60,
      "start": 20.9231,
      "duration": 0.0387,
      "velocity": 83,
      "chip": "ym2612"
    },
    {
      "channel": 1,
      "note": 50,
      "start": 20.9916,
      "duration": 0.0236,
      "velocity": 116,
      "chip": "ym2612"
    },
    {
      "channel": 1,
      "note": 52,
      "start": 21.1032,
      "duration": 0.0788,
      "velocity": 116,
      "chip": "ym2612"
    },
    {
      "channel": 2,
      "note": 57,
      "start": 21.1058,
      "duration": 0.1099,
      "velocity": 83,
      "chip": "ym2612"
    },
    {
      "channel": 2,
      "note": 55,
      "start": 21.3897,
      "duration": 0.0451,
      "velocity": 83,
      "chip": "ym2612"
    },
    {
      "channel": 1,
      "note": 45,
      "start": 21.4579,
      "duration": 0.0256,
      "velocity": 116,
      "chip": "ym2612"
    },
    {
      "channel": 2,
      "note": 56,
      "start": 21.51,
      "duration": 0.1209,
      "velocity": 83,
      "chip": "ym2612"
    },
    {
      "channel": 1,
      "note": 45,
      "start": 21.6686,
      "duration": 0.0453,
      "velocity": 116,
      "chip": "ym2612"
    },
    {
      "channel": 2,
      "note": 57,
      "start": 21.6712,
      "duration": 0.1265,
      "velocity": 83,
      "chip": "ym2612"
    },
    {
      "channel": 1,
      "note": 50,
      "start": 21.8051,
      "duration": 0.0748,
      "velocity": 116,
      "chip": "ym2612"
    },
    {
      "channel": 2,
      "note": 60,
      "start": 21.876,
      "duration": 0.076,
      "velocity": 83,
      "chip": "ym2612"
    },
    {
      "channel": 2,
      "note": 57,
      "start": 22.14,
      "duration": 0.062,
      "velocity": 83,
      "chip": "ym2612"
    },
    {
      "channel": 1,
      "note": 45,
      "start": 22.3269,
      "duration": 0.0335,
      "velocity": 116,
      "chip": "ym2612"
    },
    {
      "channel": 2,
      "note": 63,
      "start": 22.33,
      "duration": 0.0364,
      "velocity": 83,
      "chip": "ym2612"
    },
    {
      "channel": 1,
      "note": 45,
      "start": 22.3861,
      "duration": 0.0451,
      "velocity": 116,
      "chip": "ym2612"
    },
    {
      "channel": 2,
      "note": 62,
      "start": 22.3888,
      "duration": 0.1093,
      "velocity": 83,
      "chip": "ym2612"
    },
    {
      "channel": 1,
      "note": 45,
      "start": 22.5523,
      "duration": 0.0623,
      "velocity": 116,
      "chip": "ym2612"
    },
    {
      "channel": 1,
      "note": 50,
      "start": 22.6731,
      "duration": 0.0256,
      "velocity": 116,
      "chip": "ym2612"
    },
    {
      "channel": 2,
      "note": 60,
      "start": 22.6753,
      "duration": 0.037,
      "velocity": 83,
      "chip": "ym2612"
    },
    {
      "channel": 1,
      "note": 50,
      "start": 22.7422,
      "duration": 0.0237,
      "velocity": 116,
      "chip": "ym2612"
    },
    {
      "channel": 1,
      "note": 51,
      "start": 22.8373,
      "duration": 0.0954,
      "velocity": 116,
      "chip": "ym2612"
    },
    {
      "channel": 2,
      "note": 57,
      "start": 22.8398,
      "duration": 0.1429,
      "velocity": 83,
      "chip": "ym2612"
    },
    {
      "channel": 1,
      "note": 51,
      "start": 23.0201,
      "duration": 0.0791,
      "velocity": 116,
      "chip": "ym2612"
    },
    {
      "channel": 2,
      "note": 50,
      "start": 23.1407,
      "duration": 0.0037,
      "velocity": 83,
      "chip": "ym2612"
    },
    {
      "channel": 1,
      "note": 45,
      "start": 23.2102,
      "duration": 0.0045,
      "velocity": 116,
      "chip": "ym2612"
    },
    {
      "channel": 1,
      "note": 45,
      "start": 23.2646,
      "duration": 0.0222,
      "velocity": 116,
      "chip": "ym2612"
    },
    {
      "channel": 2,
      "note": 50,
      "start": 23.2672,
      "duration": 0.0778,
      "velocity": 83,
      "chip": "ym2612"
    },
    {
      "channel": 1,
      "note": 45,
      "start": 23.3335,
      "duration": 0.0185,
      "velocity": 116,
      "chip": "ym2612"
    },
    {
      "channel": 1,
      "note": 50,
      "start": 23.387,
      "duration": 0.0732,
      "velocity": 116,
      "chip": "ym2612"
    },
    {
      "channel": 2,
      "note": 51,
      "start": 23.3892,
      "duration": 0.0714,
      "velocity": 83,
      "chip": "ym2612"
    },
    {
      "channel": 2,
      "note": 51,
      "start": 23.5529,
      "duration": 0.0667,
      "velocity": 83,
      "chip": "ym2612"
    },
    {
      "channel": 2,
      "note": 52,
      "start": 23.6792,
      "duration": 0.0402,
      "velocity": 83,
      "chip": "ym2612"
    },
    {
      "channel": 1,
      "note": 45,
      "start": 23.7474,
      "duration": 0.0154,
      "velocity": 116,
      "chip": "ym2612"
    },
    {
      "channel": 1,
      "note": 45,
      "start": 23.8006,
      "duration": 0.0046,
      "velocity": 116,
      "chip": "ym2612"
    },
    {
      "channel": 1,
      "note": 45,
      "start": 23.9303,
      "duration": 0.0179,
      "velocity": 116,
      "chip": "ym2612"
    },
    {
      "channel": 1,
      "note": 50,
      "start": 23.984,
      "duration": 0.0244,
      "velocity": 116,
      "chip": "ym2612"
    },
    {
      "channel": 1,
      "note": 50,
      "start": 24.0514,
      "duration": 0.0045,
      "velocity": 116,
      "chip": "ym2612"
    },
    {
      "channel": 1,
      "note": 51,
      "start": 24.1507,
      "duration": 0.0393,
      "velocity": 116,
      "chip": "ym2612"
    },
    {
      "channel": 1,
      "note": 45,
      "start": 24.4845,
      "duration": 0.0623,
      "velocity": 116,
      "chip": "ym2612"
    },
    {
      "channel": 1,
      "note": 45,
      "start": 24.6512,
      "duration": 0.0289,
      "velocity": 116,
      "chip": "ym2612"
    },
    {
      "channel": 1,
      "note": 50,
      "start": 24.7683,
      "duration": 0.0451,
      "velocity": 116,
      "chip": "ym2612"
    },
    {
      "channel": 1,
      "note": 50,
      "start": 24.9344,
      "duration": 0.0457,
      "velocity": 116,
      "chip": "ym2612"
    },
    {
      "channel": 1,
      "note": 51,
      "start": 25.0679,
      "duration": 0.1289,
      "velocity": 116,
      "chip": "ym2612"
    },
    {
      "channel": 1,
      "note": 45,
      "start": 25.4265,
      "duration": 0.0458,
      "velocity": 116,
      "chip": "ym2612"
    },
    {
      "channel": 2,
      "note": 50,
      "start": 25.4294,
      "duration": 0.0357,
      "velocity": 83,
      "chip": "ym2612"
    },
    {
      "channel": 1,
      "note": 45,
      "start": 25.6116,
      "duration": 0.0117,
      "velocity": 116,
      "chip": "ym2612"
    },
    {
      "channel": 2,
      "note": 50,
      "start": 25.6138,
      "duration": 0.0097,
      "velocity": 83,
      "chip": "ym2612"
    },
    {
      "channel": 1,
      "note": 50,
      "start": 25.6647,
      "duration": 0.0463,
      "velocity": 116,
      "chip": "ym2612"
    },
    {
      "channel": 1,
      "note": 50,
      "start": 25.734,
      "duration": 0.005,
      "velocity": 116,
      "chip": "ym2612"
    },
    {
      "channel": 2,
      "note": 50,
      "start": 25.7364,
      "duration": 0.0392,
      "velocity": 83,
      "chip": "ym2612"
    },
    {
      "channel": 1,
      "note": 51,
      "start": 25.8334,
      "duration": 0.0493,
      "velocity": 116,
      "chip": "ym2612"
    },
    {
      "channel": 2,
      "note": 51,
      "start": 25.8357,
      "duration": 0.0669,
      "velocity": 83,
      "chip": "ym2612"
    },
    {
      "channel": 2,
      "note": 52,
      "start": 26.0039,
      "duration": 0.09,
      "velocity": 83,
      "chip": "ym2612"
    },
    {
      "channel": 2,
      "note": 69,
      "start": 26.5629,
      "duration": 0.0411,
      "velocity": 83,
      "chip": "ym2612"
    },
    {
      "channel": 0,
      "note": 57,
      "start": 26.565,
      "duration": 0.0253,
      "velocity": 87,
      "chip": "ym2612"
    },
    {
      "channel": 2,
      "note": 69,
      "start": 26.6151,
      "duration": 0.0468,
      "velocity": 83,
      "chip": "ym2612"
    },
    {
      "channel": 0,
      "note": 57,
      "start": 26.6169,
      "duration": 0.0444,
      "velocity": 87,
      "chip": "ym2612"
    },
    {
      "channel": 2,
      "note": 67,
      "start": 26.6646,
      "duration": 0.1138,
      "velocity": 83,
      "chip": "ym2612"
    },
    {
      "channel": 0,
      "note": 55,
      "start": 26.6666,
      "duration": 0.1113,
      "velocity": 87,
      "chip": "ym2612"
    },
    {
      "channel": 2,
      "note": 69,
      "start": 26.8025,
      "duration": 0.0325,
      "velocity": 83,
      "chip": "ym2612"
    },
    {
      "channel": 0,
      "note": 57,
      "start": 26.8044,
      "duration": 0.0304,
      "velocity": 87,
      "chip": "ym2612"
    },
    {
      "channel": 2,
      "note": 69,
      "start": 26.93,
      "duration": 0.0565,
      "velocity": 83,
      "chip": "ym2612"
    },
    {
      "channel": 0,
      "note": 57,
      "start": 26.9317,
      "duration": 0.0543,
      "velocity": 87,
      "chip": "ym2612"
    },
    {
      "channel": 2,
      "note": 67,
      "start": 27.0772,
      "duration": 0.0122,
      "velocity": 83,
      "chip": "ym2612"
    },
    {
      "channel": 0,
      "note": 55,
      "start": 27.08,
      "duration": 0.009,
      "velocity": 87,
      "chip": "ym2612"
    },
    {
      "channel": 2,
      "note": 69,
      "start": 27.1317,
      "duration": 0.0857,
      "velocity": 83,
      "chip": "ym2612"
    },
    {
      "channel": 0,
      "note": 57,
      "start": 27.1345,
      "duration": 0.1072,
      "velocity": 87,
      "chip": "ym2612"
    },
    {
      "channel": 3,
      "note": 93,
      "start": 27.2001,
      "duration": 0.0104,
      "velocity": 127,
      "chip": "ym2612"
    },
    {
      "channel": 2,
      "note": 67,
      "start": 27.2994,
      "duration": 0.0672,
      "velocity": 83,
      "chip": "ym2612"
    },
    {
      "channel": 0,
      "note": 55,
      "start": 27.3012,
      "duration": 0.0301,
      "velocity": 87,
      "chip": "ym2612"
    },
    {
      "channel": 2,
      "note": 69,
      "start": 27.8686,
      "duration": 0.0466,
      "velocity": 83,
      "chip": "ym2612"
    },
    {
      "channel": 0,
      "note": 57,
      "start": 27.8706,
      "duration": 0.0227,
      "velocity": 87,
      "chip": "ym2612"
    },
    {
      "channel": 2,
      "note": 69,
      "start": 27.9386,
      "duration": 0.0483,
      "velocity": 83,
      "chip": "ym2612"
    },
    {
      "channel": 0,
      "note": 57,
      "start": 27.9408,
      "duration": 0.085,
      "velocity": 87,
      "chip": "ym2612"
    },
    {
      "channel": 1,
      "note": 45,
      "start": 27.9903,
      "duration": 0.0357,
      "velocity": 116,
      "chip": "ym2612"
    },
    {
      "channel": 2,
      "note": 67,
      "start": 27.9926,
      "duration": 0.0836,
      "velocity": 83,
      "chip": "ym2612"
    },
    {
      "channel": 4,
      "note": 55,
      "start": 27.9947,
      "duration": 0.0978,
      "velocity": 87,
      "chip": "ym2612"
    },
    {
      "channel": 2,
      "note": 69,
      "start": 28.1506,
      "duration": 0.0324,
      "velocity": 83,
      "chip": "ym2612"
    },
    {
      "channel": 0,
      "note": 57,
      "start": 28.1524,
      "duration": 0.0374,
      "velocity": 87,
      "chip": "ym2612"
    },
    {
      "channel": 2,
      "note": 72,
      "start": 28.2787,
      "duration": 0.0478,
      "velocity": 83,
      "chip": "ym2612"
    },
    {
      "channel": 0,
      "note": 60,
      "start": 28.2804,
      "duration": 0.0455,
      "velocity": 87,
      "chip": "ym2612"
    },
    {
      "channel": 1,
      "note": 45,
      "start": 28.3669,
      "duration": 0.0465,
      "velocity": 116,
      "chip": "ym2612"
    },
    {
      "channel": 2,
      "note": 69,
      "start": 28.4378,
      "duration": 0.0183,
      "velocity": 83,
      "chip": "ym2612"
    },
    {
      "channel": 2,
      "note": 74,
      "start": 28.4882,
      "duration": 0.2538,
      "velocity": 83,
      "chip": "ym2612"
    },
    {
      "channel": 0,
      "note": 62,
      "start": 28.4901,
      "duration": 0.2965,
      "velocity": 87,
      "chip": "ym2612"
    },
    {
      "channel": 3,
      "note": 93,
      "start": 28.6458,
      "duration": 0.0293,
      "velocity": 127,
      "chip": "ym2612"
    },
    {
      "channel": 2,
      "note": 72,
      "start": 28.7829,
      "duration": 0.0476,
      "velocity": 83,
      "chip": "ym2612"
    },
    {
      "channel": 4,
      "note": 60,
      "start": 28.7849,
      "duration": 0.0666,
      "velocity": 87,
      "chip": "ym2612"
    },
    {
      "channel": 2,
      "note": 69,
      "start": 28.9424,
      "duration": 0.0593,
      "velocity": 83,
      "chip": "ym2612"
    },
    {
      "channel": 0,
      "note": 57,
      "start": 28.9443,
      "duration": 0.0715,
      "velocity": 87,
      "chip": "ym2612"
    },
    {
      "channel": 2,
      "note": 69,
      "start": 29.2634,
      "duration": 0.0327,
      "velocity": 83,
      "chip": "ym2612"
    },
    {
      "channel": 0,
      "note": 57,
      "start": 29.2656,
      "duration": 0.03,
      "velocity": 87,
      "chip": "ym2612"
    },
    {
      "channel": 2,
      "note": 69,
      "start": 29.3342,
      "duration": 0.0563,
      "velocity": 83,
      "chip": "ym2612"
    },
    {
      "channel": 0,
      "note": 57,
      "start": 29.3362,
      "duration": 0.0541,
      "velocity": 87,
      "chip": "ym2612"
    },
    {
      "channel": 1,
      "note": 45,
      "start": 29.3834,
      "duration": 0.0358,
      "velocity": 116,
      "chip": "ym2612"
    },
    {
      "channel": 3,
      "note": 67,
      "start": 29.3865,
      "duration": 0.1327,
      "velocity": 83,
      "chip": "ym2612"
    },
    {
      "channel": 4,
      "note": 55,
      "start": 29.3886,
      "duration": 0.0973,
      "velocity": 87,
      "chip": "ym2612"
    },
    {
      "channel": 3,
      "note": 69,
      "start": 29.5435,
      "duration": 0.026,
      "velocity": 83,
      "chip": "ym2612"
    },
    {
      "channel": 0,
      "note": 57,
      "start": 29.5454,
      "duration": 0.0239,
      "velocity": 87,
      "chip": "ym2612"
    },
    {
      "channel": 2,
      "note": 93,
      "start": 29.6665,
      "duration": 0.0132,
      "velocity": 127,
      "chip": "ym2612"
    },
    {
      "channel": 3,
      "note": 72,
      "start": 29.6689,
      "duration": 0.053,
      "velocity": 83,
      "chip": "ym2612"
    },
    {
      "channel": 0,
      "note": 60,
      "start": 29.6716,
      "duration": 0.0501,
      "velocity": 87,
      "chip": "ym2612"
    },
    {
      "channel": 1,
      "note": 45,
      "start": 29.7631,
      "duration": 0.0326,
      "velocity": 116,
      "chip": "ym2612"
    },
    {
      "channel": 0,
      "note": 57,
      "start": 29.834,
      "duration": 0.0183,
      "velocity": 87,
      "chip": "ym2612"
    },
    {
      "channel": 3,
      "note": 74,
      "start": 29.8853,
      "duration": 0.2502,
      "velocity": 83,
      "chip": "ym2612"
    },
    {
      "channel": 0,
      "note": 62,
      "start": 29.8872,
      "duration": 0.2481,
      "velocity": 87,
      "chip": "ym2612"
    },
    {
      "channel": 2,
      "note": 93,
      "start": 30.0397,
      "duration": 0.0295,
      "velocity": 127,
      "chip": "ym2612"
    },
    {
      "channel": 2,
      "note": 93,
      "start": 30.1563,
      "duration": 0.0164,
      "velocity": 127,
      "chip": "ym2612"
    },
    {
      "channel": 3,
      "note": 72,
      "start": 30.1622,
      "duration": 0.0167,
      "velocity": 83,
      "chip": "ym2612"
    },
    {
      "channel": 0,
      "note": 60,
      "start": 30.164,
      "duration": 0.0499,
      "velocity": 87,
      "chip": "ym2612"
    },
    {
      "channel": 2,
      "note": 93,
      "start": 30.3596,
      "duration": 0.0047,
      "velocity": 127,
      "chip": "ym2612"
    },
    {
      "channel": 2,
      "note": 93,
      "start": 30.4363,
      "duration": 0.0295,
      "velocity": 127,
      "chip": "ym2612"
    },
    {
      "channel": 1,
      "note": 45,
      "start": 30.4387,
      "duration": 0.0434,
      "velocity": 116,
      "chip": "ym2612"
    },
    {
      "channel": 1,
      "note": 45,
      "start": 30.6033,
      "duration": 0.0788,
      "velocity": 116,
      "chip": "ym2612"
    },
    {
      "channel": 3,
      "note": 55,
      "start": 31.0713,
      "duration": 0.0593,
      "velocity": 83,
      "chip": "ym2612"
    },
    {
      "channel": 0,
      "note": 55,
      "start": 31.0732,
      "duration": 0.0572,
      "velocity": 87,
      "chip": "ym2612"
    },
    {
      "channel": 2,
      "note": 93,
      "start": 31.1399,
      "duration": 0.0134,
      "velocity": 127,
      "chip": "ym2612"
    },
    {
      "channel": 3,
      "note": 57,
      "start": 31.1422,
      "duration": 0.0527,
      "velocity": 83,
      "chip": "ym2612"
    },
    {
      "channel": 0,
      "note": 57,
      "start": 31.1439,
      "duration": 0.0959,
      "velocity": 87,
      "chip": "ym2612"
    },
    {
      "channel": 3,
      "note": 60,
      "start": 31.2359,
      "duration": 0.046,
      "velocity": 83,
      "chip": "ym2612"
    },
    {
      "channel": 4,
      "note": 60,
      "start": 31.2381,
      "duration": 0.0644,
      "velocity": 87,
      "chip": "ym2612"
    },
    {
      "channel": 3,
      "note": 55,
      "start": 31.3059,
      "duration": 0.0194,
      "velocity": 83,
      "chip": "ym2612"
    },
    {
      "channel": 0,
      "note": 55,
      "start": 31.3077,
      "duration": 0.0174,
      "velocity": 87,
      "chip": "ym2612"
    },
    {
      "channel": 3,
      "note": 62,
      "start": 31.357,
      "duration": 0.1334,
      "velocity": 83,
      "chip": "ym2612"
    },
    {
      "channel": 0,
      "note": 62,
      "start": 31.3591,
      "duration": 0.1312,
      "velocity": 87,
      "chip": "ym2612"
    },
    {
      "channel": 2,
      "note": 93,
      "start": 31.511,
      "duration": 0.013,
      "velocity": 127,
      "chip": "ym2612"
    },
    {
      "channel": 3,
      "note": 60,
      "start": 31.5138,
      "duration": 0.0933,
      "velocity": 83,
      "chip": "ym2612"
    },
    {
      "channel": 0,
      "note": 60,
      "start": 31.5161,
      "duration": 0.1075,
      "velocity": 87,
      "chip": "ym2612"
    },
    {
      "channel": 2,
      "note": 93,
      "start": 31.6278,
      "duration": 0.016,
      "velocity": 127,
      "chip": "ym2612"
    },
    {
      "channel": 1,
      "note": 45,
      "start": 31.6333,
      "duration": 0.0102,
      "velocity": 116,
      "chip": "ym2612"
    },
    {
      "channel": 3,
      "note": 57,
      "start": 31.6353,
      "duration": 0.057,
      "velocity": 83,
      "chip": "ym2612"
    },
    {
      "channel": 0,
      "note": 57,
      "start": 31.6378,
      "duration": 0.0773,
      "velocity": 87,
      "chip": "ym2612"
    },
    {
      "channel": 4,
      "note": 64,
      "start": 31.7031,
      "duration": 0.0122,
      "velocity": 92,
      "chip": "ym2612"
    },
    {
      "channel": 1,
      "note": 45,
      "start": 31.705,
      "duration": 0.0366,
      "velocity": 116,
      "chip": "ym2612"
    },
    {
      "channel": 3,
      "note": 60,
      "start": 31.7072,
      "duration": 0.0512,
      "velocity": 83,
      "chip": "ym2612"
    },
    {
      "channel": 2,
      "note": 60,
      "start": 31.7103,
      "duration": 0.0484,
      "velocity": 87,
      "chip": "ym2612"
    },
    {
      "channel": 4,
      "note": 74,
      "start": 31.7991,
      "duration": 0.0254,
      "velocity": 92,
      "chip": "ym2612"
    },
    {
      "channel": 0,
      "note": 78,
      "start": 31.801,
      "duration": 0.0661,
      "velocity": 92,
      "chip": "ym2612"
    },
    {
      "channel": 3,
      "note": 62,
      "start": 31.8035,
      "duration": 0.0504,
      "velocity": 83,
      "chip": "ym2612"
    },
    {
      "channel": 2,
      "note": 62,
      "start": 31.8059,
      "duration": 0.0483,
      "velocity": 87,
      "chip": "ym2612"
    },
    {
      "channel": 4,
      "note": 75,
      "start": 31.8279,
      "duration": 0.0621,
      "velocity": 92,
      "chip": "ym2612"
    },
    {
      "channel": 1,
      "note": 74,
      "start": 31.8562,
      "duration": 0.0411,
      "velocity": 92,
      "chip": "ym2612"
    },
    {
      "channel": 3,
      "note": 93,
      "start": 31.8696,
      "duration": 0.0071,
      "velocity": 127,
      "chip": "ym2612"
    },
    {
      "channel": 2,
      "note": 64,
      "start": 31.8732,
      "duration": 0.0326,
      "velocity": 83,
      "chip": "ym2612"
    },
    {
      "channel": 0,
      "note": 64,
      "start": 31.8755,
      "duration": 0.1118,
      "velocity": 87,
      "chip": "ym2612"
    },
    {
      "channel": 4,
      "note": 72,
      "start": 31.8926,
      "duration": 0.0951,
      "velocity": 92,
      "chip": "ym2612"
    },
    {
      "channel": 3,
      "note": 93,
      "start": 31.9414,
      "duration": 0.0085,
      "velocity": 127,
      "chip": "ym2612"
    },
    {
      "channel": 1,
      "note": 69,
      "start": 31.9438,
      "duration": 0.1436,
      "velocity": 92,
      "chip": "ym2612"
    },
    {
      "channel": 5,
      "note": 45,
      "start": 31.9463,
      "duration": 0.0416,
      "velocity": 116,
      "chip": "ym2612"
    },
    {
      "channel": 2,
      "note": 67,
      "start": 31.9489,
      "duration": 0.139,
      "velocity": 83,
      "chip": "ym2612"
    },
    {
      "channel": 3,
      "note": 67,
      "start": 31.9514,
      "duration": 0.1362,
      "velocity": 87,
      "chip": "ym2612"
    },
    {
      "channel": 5,
      "note": 45,
      "start": 32.1091,
      "duration": 0.062,
      "velocity": 116,
      "chip": "ym2612"
    },
    {
      "channel": 2,
      "note": 64,
      "start": 32.112,
      "duration": 0.0092,
      "velocity": 83,
      "chip": "ym2612"
    },
    {
      "channel": 0,
      "note": 64,
      "start": 32.1141,
      "duration": 0.0066,
      "velocity": 87,
      "chip": "ym2612"
    },
    {
      "channel": 1,
      "note": 72,
      "start": 32.2296,
      "duration": 0.0684,
      "velocity": 92,
      "chip": "ym2612"
    },
    {
      "channel": 4,
      "note": 78,
      "start": 32.2314,
      "duration": 0.0596,
      "velocity": 92,
      "chip": "ym2612"
    },
    {
      "channel": 3,
      "note": 52,
      "start": 32.2347,
      "duration": 0.0982,
      "velocity": 127,
      "chip": "ym2612"
    },
    {
      "channel": 0,
      "note": 86,
      "start": 32.2388,
      "duration": 1.0507,
      "velocity": 81,
      "chip": "ym2612"
    },
    {
      "channel": 1,
      "note": 78,
      "start": 32.3572,
      "duration": 0.0602,
      "velocity": 92,
      "chip": "ym2612"
    },
    {
      "channel": 4,
      "note": 69,
      "start": 32.3594,
      "duration": 0.0746,
      "velocity": 92,
      "chip": "ym2612"
    },
    {
      "channel": 3,
      "note": 55,
      "start": 32.3617,
      "duration": 0.1557,
      "velocity": 127,
      "chip": "ym2612"
    },
    {
      "channel": 1,
      "note": 57,
      "start": 32.5743,
      "duration": 0.0232,
      "velocity": 92,
      "chip": "ym2612"
    },
    {
      "channel": 3,
      "note": 57,
      "start": 32.5762,
      "duration": 0.0856,
      "velocity": 127,
      "chip": "ym2612"
    },
    {
      "channel": 2,
      "note": 82,
      "start": 32.6411,
      "duration": 0.0135,
      "velocity": 96,
      "chip": "ym2612"
    },
    {
      "channel": 1,
      "note": 67,
      "start": 32.643,
      "duration": 0.026,
      "velocity": 92,
      "chip": "ym2612"
    },
    {
      "channel": 4,
      "note": 72,
      "start": 32.6448,
      "duration": 0.0171,
      "velocity": 92,
      "chip": "ym2612"
    },
    {
      "channel": 2,
      "note": 82,
      "start": 32.7163,
      "duration": 0.0167,
      "velocity": 96,
      "chip": "ym2612"
    },
    {
      "channel": 1,
      "note": 64,
      "start": 32.7218,
      "duration": 0.0109,
      "velocity": 92,
      "chip": "ym2612"
    },
    {
      "channel": 4,
      "note": 57,
      "start": 32.7234,
      "duration": 0.0094,
      "velocity": 92,
      "chip": "ym2612"
    },
    {
      "channel": 3,
      "note": 52,
      "start": 32.7266,
      "duration": 0.0495,
      "velocity": 127,
      "chip": "ym2612"
    },
    {
      "channel": 3,
      "note": 55,
      "start": 32.7934,
      "duration": 0.066,
      "velocity": 127,
      "chip": "ym2612"
    },
    {
      "channel": 1,
      "note": 67,
      "start": 32.8492,
      "duration": 0.1102,
      "velocity": 92,
      "chip": "ym2612"
    },
    {
      "channel": 4,
      "note": 72,
      "start": 32.8514,
      "duration": 0.0584,
      "velocity": 92,
      "chip": "ym2612"
    },
    {
      "channel": 2,
      "note": 82,
      "start": 33.0132,
      "duration": 0.0132,
      "velocity": 96,
      "chip": "ym2612"
    },
    {
      "channel": 3,
      "note": 57,
      "start": 33.0156,
      "duration": 0.1104,
      "velocity": 127,
      "chip": "ym2612"
    },
    {
      "channel": 1,
      "note": 67,
      "start": 33.1337,
      "duration": 0.0182,
      "velocity": 92,
      "chip": "ym2612"
    },
    {
      "channel": 4,
      "note": 69,
      "start": 33.1355,
      "duration": 0.0102,
      "velocity": 92,
      "chip": "ym2612"
    },
    {
      "channel": 2,
      "note": 45,
      "start": 33.1384,
      "duration": 0.0139,
      "velocity": 116,
      "chip": "ym2612"
    },
    {
      "channel": 2,
      "note": 45,
      "start": 33.2058,
      "duration": 0.0324,
      "velocity": 116,
      "chip": "ym2612"
    },
    {
      "channel": 3,
      "note": 52,
      "start": 33.2077,
      "duration": 0.0448,
      "velocity": 127,
      "chip": "ym2612"
    },
    {
      "channel": 1,
      "note": 57,
      "start": 33.2584,
      "duration": 0.0102,
      "velocity": 92,
      "chip": "ym2612"
    },
    {
      "channel": 3,
      "note": 55,
      "start": 33.2604,
      "duration": 0.0871,
      "velocity": 127,
      "chip": "ym2612"
    },
    {
      "channel": 2,
      "note": 82,
      "start": 33.334,
      "duration": 0.0088,
      "velocity": 96,
      "chip": "ym2612"
    },
    {
      "channel": 1,
      "note": 67,
      "start": 33.336,
      "duration": 0.0066,
      "velocity": 92,
      "chip": "ym2612"
    },
    {
      "channel": 4,
      "note": 60,
      "start": 33.3386,
      "duration": 0.0041,
      "velocity": 92,
      "chip": "ym2612"
    },
    {
      "channel": 0,
      "note": 84,
      "start": 33.3415,
      "duration": 0.0385,
      "velocity": 81,
      "chip": "ym2612"
    },
    {
      "channel": 2,
      "note": 82,
      "start": 33.4173,
      "duration": 0.0133,
      "velocity": 96,
      "chip": "ym2612"
    },
    {
      "channel": 3,
      "note": 57,
      "start": 33.4197,
      "duration": 0.1604,
      "velocity": 127,
      "chip": "ym2612"
    },
    {
      "channel": 0,
      "note": 81,
      "start": 33.422,
      "duration": 0.1247,
      "velocity": 81,
      "chip": "ym2612"
    },
    {
      "channel": 1,
      "note": 52,
      "start": 33.5843,
      "duration": 0.0124,
      "velocity": 92,
      "chip": "ym2612"
    },
    {
      "channel": 1,
      "note": 72,
      "start": 33.7042,
      "duration": 0.0691,
      "velocity": 92,
      "chip": "ym2612"
    },
    {
      "channel": 4,
      "note": 67,
      "start": 33.7059,
      "duration": 0.0675,
      "velocity": 92,
      "chip": "ym2612"
    },
    {
      "channel": 2,
      "note": 45,
      "start": 33.7078,
      "duration": 0.0658,
      "velocity": 92,
      "chip": "ym2612"
    },
    {
      "channel": 3,
      "note": 52,
      "start": 33.7105,
      "duration": 0.0557,
      "velocity": 127,
      "chip": "ym2612"
    },
    {
      "channel": 0,
      "note": 81,
      "start": 33.7132,
      "duration": 0.1811,
      "velocity": 81,
      "chip": "ym2612"
    },
    {
      "channel": 1,
      "note": 64,
      "start": 33.8249,
      "duration": 0.0861,
      "velocity": 92,
      "chip": "ym2612"
    },
    {
      "channel": 4,
      "note": 69,
      "start": 33.8266,
      "duration": 0.0848,
      "velocity": 92,
      "chip": "ym2612"
    },
    {
      "channel": 2,
      "note": 66,
      "start": 33.8296,
      "duration": 0.0151,
      "velocity": 92,
      "chip": "ym2612"
    },
    {
      "channel": 3,
      "note": 45,
      "start": 33.8328,
      "duration": 0.0007,
      "velocity": 116,
      "chip": "ym2612"
    },
    {
      "channel": 3,
      "note": 55,
      "start": 33.8348,
      "duration": 0.1095,
      "velocity": 127,
      "chip": "ym2612"
    },
    {
      "channel": 2,
      "note": 45,
      "start": 34.0027,
      "duration": 0.0259,
      "velocity": 116,
      "chip": "ym2612"
    },
    {
      "channel": 1,
      "note": 57,
      "start": 34.055,
      "duration": 0.0034,
      "velocity": 92,
      "chip": "ym2612"
    },
    {
      "channel": 3,
      "note": 57,
      "start": 34.057,
      "duration": 0.0636,
      "velocity": 127,
      "chip": "ym2612"
    },
    {
      "channel": 2,
      "note": 82,
      "start": 34.1228,
      "duration": 0.0068,
      "velocity": 96,
      "chip": "ym2612"
    },
    {
      "channel": 1,
      "note": 67,
      "start": 34.1246,
      "duration": 0.0172,
      "velocity": 92,
      "chip": "ym2612"
    },
    {
      "channel": 4,
      "note": 72,
      "start": 34.127,
      "duration": 0.0151,
      "velocity": 92,
      "chip": "ym2612"
    },
    {
      "channel": 2,
      "note": 82,
      "start": 34.196,
      "duration": 0.0174,
      "velocity": 96,
      "chip": "ym2612"
    },
    {
      "channel": 1,
      "note": 57,
      "start": 34.2014,
      "duration": 0.0118,
      "velocity": 92,
      "chip": "ym2612"
    },
    {
      "channel": 3,
      "note": 52,
      "start": 34.204,
      "duration": 0.0369,
      "velocity": 127,
      "chip": "ym2612"
    },
    {
      "channel": 1,
      "note": 52,
      "start": 34.2722,
      "duration": 0.0184,
      "velocity": 92,
      "chip": "ym2612"
    },
    {
      "channel": 3,
      "note": 55,
      "start": 34.2742,
      "duration": 0.0513,
      "velocity": 127,
      "chip": "ym2612"
    },
    {
      "channel": 1,
      "note": 74,
      "start": 34.3288,
      "duration": 0.06,
      "velocity": 92,
      "chip": "ym2612"
    },
    {
      "channel": 1,
      "note": 75,
      "start": 34.393,
      "duration": 0.0627,
      "velocity": 92,
      "chip": "ym2612"
    },
    {
      "channel": 1,
      "note": 74,
      "start": 34.4597,
      "duration": 0.0792,
      "velocity": 92,
      "chip": "ym2612"
    },
    {
      "channel": 2,
      "note": 82,
      "start": 34.4928,
      "duration": 0.0131,
      "velocity": 96,
      "chip": "ym2612"
    },
    {
      "channel": 3,
      "note": 57,
      "start": 34.4951,
      "duration": 0.1106,
      "velocity": 127,
      "chip": "ym2612"
    },
    {
      "channel": 1,
      "note": 72,
      "start": 34.543,
      "duration": 0.0625,
      "velocity": 92,
      "chip": "ym2612"
    },
    {
      "channel": 1,
      "note": 69,
      "start": 34.6138,
      "duration": 0.0387,
      "velocity": 92,
      "chip": "ym2612"
    },
    {
      "channel": 0,
      "note": 45,
      "start": 34.6159,
      "duration": 0.0019,
      "velocity": 116,
      "chip": "ym2612"
    },
    {
      "channel": 0,
      "note": 45,
      "start": 34.6831,
      "duration": 0.0204,
      "velocity": 116,
      "chip": "ym2612"
    },
    {
      "channel": 3,
      "note": 52,
      "start": 34.685,
      "duration": 0.06,
      "velocity": 127,
      "chip": "ym2612"
    },
    {
      "channel": 1,
      "note": 79,
      "start": 34.77,
      "duration": 0.0197,
      "velocity": 92,
      "chip": "ym2612"
    },
    {
      "channel": 4,
      "note": 74,
      "start": 34.772,
      "duration": 0.0595,
      "velocity": 92,
      "chip": "ym2612"
    },
    {
      "channel": 3,
      "note": 55,
      "start": 34.7741,
      "duration": 0.0862,
      "velocity": 127,
      "chip": "ym2612"
    },
    {
      "channel": 2,
      "note": 82,
      "start": 34.8408,
      "duration": 0.0129,
      "velocity": 96,
      "chip": "ym2612"
    },
    {
      "channel": 1,
      "note": 67,
      "start": 34.8427,
      "duration": 0.0108,
      "velocity": 92,
      "chip": "ym2612"
    },
    {
      "channel": 2,
      "note": 82,
      "start": 34.9318,
      "duration": 0.0167,
      "velocity": 96,
      "chip": "ym2612"
    },
    {
      "channel": 1,
      "note": 78,
      "start": 34.9341,
      "duration": 0.1812,
      "velocity": 92,
      "chip": "ym2612"
    },
    {
      "channel": 4,
      "note": 72,
      "start": 34.9363,
      "duration": 0.1084,
      "velocity": 92,
      "chip": "ym2612"
    },
    {
      "channel": 3,
      "note": 57,
      "start": 34.9386,
      "duration": 0.1563,
      "velocity": 127,
      "chip": "ym2612"
    },
    {
      "channel": 0,
      "note": 96,
      "start": 34.9411,
      "duration": 0.0027,
      "velocity": 93,
      "chip": "ym2612"
    },
    {
      "channel": 5,
      "note": 93,
      "start": 34.9431,
      "duration": 0.152,
      "velocity": 93,
      "chip": "ym2612"
    },
    {
      "channel": 0,
      "note": 88,
      "start": 34.946,
      "duration": 0.1485,
      "velocity": 93,
      "chip": "ym2612"
    },
    {
      "channel": 4,
      "note": 69,
      "start": 35.0997,
      "duration": 0.0953,
      "velocity": 92,
      "chip": "ym2612"
    },
    {
      "channel": 2,
      "note": 74,
      "start": 35.102,
      "duration": 0.0931,
      "velocity": 92,
      "chip": "ym2612"
    },
    {
      "channel": 0,
      "note": 90,
      "start": 35.1044,
      "duration": 0.0902,
      "velocity": 93,
      "chip": "ym2612"
    },
    {
      "channel": 5,
      "note": 95,
      "start": 35.1065,
      "duration": 0.1052,
      "velocity": 93,
      "chip": "ym2612"
    },
    {
      "channel": 3,
      "note": 98,
      "start": 35.1088,
      "duration": 0.1025,
      "velocity": 93,
      "chip": "ym2612"
    },
    {
      "channel": 1,
      "note": 52,
      "start": 35.2189,
      "duration": 0.0826,
      "velocity": 127,
      "chip": "ym2612"
    },
    {
      "channel": 0,
      "note": 87,
      "start": 35.2213,
      "duration": 0.0665,
      "velocity": 81,
      "chip": "ym2612"
    },
    {
      "channel": 4,
      "note": 45,
      "start": 35.2902,
      "duration": 0.0407,
      "velocity": 92,
      "chip": "ym2612"
    },
    {
      "channel": 0,
      "note": 84,
      "start": 35.2927,
      "duration": 0.0381,
      "velocity": 81,
      "chip": "ym2612"
    },
    {
      "channel": 2,
      "note": 45,
      "start": 35.3396,
      "duration": 0.0357,
      "velocity": 116,
      "chip": "ym2612"
    },
    {
      "channel": 1,
      "note": 55,
      "start": 35.3421,
      "duration": 0.1329,
      "velocity": 127,
      "chip": "ym2612"
    },
    {
      "channel": 0,
      "note": 86,
      "start": 35.3444,
      "duration": 1.0217,
      "velocity": 81,
      "chip": "ym2612"
    },
    {
      "channel": 4,
      "note": 57,
      "start": 35.4992,
      "duration": 0.0111,
      "velocity": 92,
      "chip": "ym2612"
    },
    {
      "channel": 2,
      "note": 45,
      "start": 35.5013,
      "duration": 0.0313,
      "velocity": 116,
      "chip": "ym2612"
    },
    {
      "channel": 4,
      "note": 69,
      "start": 35.5597,
      "duration": 0.0515,
      "velocity": 92,
      "chip": "ym2612"
    },
    {
      "channel": 3,
      "note": 72,
      "start": 35.5616,
      "duration": 0.0634,
      "velocity": 92,
      "chip": "ym2612"
    },
    {
      "channel": 1,
      "note": 57,
      "start": 35.5637,
      "duration": 0.0612,
      "velocity": 127,
      "chip": "ym2612"
    },
    {
      "channel": 2,
      "note": 82,
      "start": 35.6285,
      "duration": 0.0043,
      "velocity": 96,
      "chip": "ym2612"
    },
    {
      "channel": 2,
      "note": 82,
      "start": 35.7012,
      "duration": 0.012,
      "velocity": 96,
      "chip": "ym2612"
    },
    {
      "channel": 3,
      "note": 78,
      "start": 35.7067,
      "duration": 0.0396,
      "velocity": 92,
      "chip": "ym2612"
    },
    {
      "channel": 4,
      "note": 74,
      "start": 35.7087,
      "duration": 0.0456,
      "velocity": 92,
      "chip": "ym2612"
    },
    {
      "channel": 1,
      "note": 52,
      "start": 35.7118,
      "duration": 0.042,
      "velocity": 127,
      "chip": "ym2612"
    },
    {
      "channel": 1,
      "note": 55,
      "start": 35.7782,
      "duration": 0.0467,
      "velocity": 127,
      "chip": "ym2612"
    },
    {
      "channel": 3,
      "note": 72,
      "start": 35.8273,
      "duration": 0.1335,
      "velocity": 92,
      "chip": "ym2612"
    },
    {
      "channel": 4,
      "note": 67,
      "start": 35.8292,
      "duration": 0.1648,
      "velocity": 92,
      "chip": "ym2612"
    },
    {
      "channel": 2,
      "note": 82,
      "start": 35.9978,
      "duration": 0.0132,
      "velocity": 96,
      "chip": "ym2612"
    },
    {
      "channel": 1,
      "note": 57,
      "start": 36.0001,
      "duration": 0.1106,
      "velocity": 127,
      "chip": "ym2612"
    },
    {
      "channel": 3,
      "note": 72,
      "start": 36.1182,
      "duration": 0.0477,
      "velocity": 92,
      "chip": "ym2612"
    },
    {
      "channel": 4,
      "note": 69,
      "start": 36.1206,
      "duration": 0.0743,
      "velocity": 92,
      "chip": "ym2612"
    },
    {
      "channel": 2,
      "note": 45,
      "start": 36.1236,
      "duration": 0.014,
      "velocity": 116,
      "chip": "ym2612"
    },
    {
      "channel": 2,
      "note": 45,
      "start": 36.1903,
      "duration": 0.0271,
      "velocity": 116,
      "chip": "ym2612"
    },
    {
      "channel": 1,
      "note": 52,
      "start": 36.1923,
      "duration": 0.058,
      "velocity": 127,
      "chip": "ym2612"
    },
    {
      "channel": 3,
      "note": 57,
      "start": 36.2754,
      "duration": 0.0184,
      "velocity": 92,
      "chip": "ym2612"
    },
    {
      "channel": 1,
      "note": 55,
      "start": 36.2773,
      "duration": 0.0718,
      "velocity": 127,
      "chip": "ym2612"
    },
    {
      "channel": 2,
      "note": 82,
      "start": 36.3446,
      "duration": 0.0145,
      "velocity": 96,
      "chip": "ym2612"
    },
    {
      "channel": 3,
      "note": 67,
      "start": 36.3466,
      "duration": 0.0198,
      "velocity": 92,
      "chip": "ym2612"
    },
    {
      "channel": 4,
      "note": 72,
      "start": 36.3485,
      "duration": 0.0343,
      "velocity": 92,
      "chip": "ym2612"
    },
    {
      "channel": 1,
      "note": 64,
      "start": 36.3505,
      "duration": 0.0157,
      "velocity": 92,
      "chip": "ym2612"
    },
    {
      "channel": 2,
      "note": 84,
      "start": 36.3619,
      "duration": 0.0545,
      "velocity": 81,
      "chip": "ym2612"
    },
    {
      "channel": 2,
      "note": 82,
      "start": 36.4205,
      "duration": 0.0293,
      "velocity": 96,
      "chip": "ym2612"
    },
    {
      "channel": 0,
      "note": 57,
      "start": 36.4235,
      "duration": 0.1758,
      "velocity": 127,
      "chip": "ym2612"
    },
    {
      "channel": 1,
      "note": 81,
      "start": 36.4262,
      "duration": 0.1732,
      "velocity": 81,
      "chip": "ym2612"
    },
    {
      "channel": 3,
      "note": 79,
      "start": 36.6038,
      "duration": 0.0122,
      "velocity": 92,
      "chip": "ym2612"
    },
    {
      "channel": 4,
      "note": 52,
      "start": 36.6059,
      "duration": 0.0104,
      "velocity": 92,
      "chip": "ym2612"
    },
    {
      "channel": 3,
      "note": 45,
      "start": 36.7235,
      "duration": 0.1137,
      "velocity": 92,
      "chip": "ym2612"
    },
    {
      "channel": 0,
      "note": 52,
      "start": 36.7254,
      "duration": 0.0595,
      "velocity": 127,
      "chip": "ym2612"
    },
    {
      "channel": 1,
      "note": 81,
      "start": 36.7275,
      "duration": 0.1154,
      "velocity": 81,
      "chip": "ym2612"
    },
    {
      "channel": 2,
      "note": 82,
      "start": 36.795,
      "duration": 0.0067,
      "velocity": 96,
      "chip": "ym2612"
    },
    {
      "channel": 4,
      "note": 52,
      "start": 36.7969,
      "duration": 0.0404,
      "velocity": 92,
      "chip": "ym2612"
    },
    {
      "channel": 0,
      "note": 79,
      "start": 36.7989,
      "duration": 0.0226,
      "velocity": 92,
      "chip": "ym2612"
    },
    {
      "channel": 2,
      "note": 82,
      "start": 36.8449,
      "duration": 0.0181,
      "velocity": 96,
      "chip": "ym2612"
    },
    {
      "channel": 0,
      "note": 78,
      "start": 36.8469,
      "duration": 0.1489,
      "velocity": 92,
      "chip": "ym2612"
    },
    {
      "channel": 3,
      "note": 74,
      "start": 36.8486,
      "duration": 0.1474,
      "velocity": 92,
      "chip": "ym2612"
    },
    {
      "channel": 4,
      "note": 45,
      "start": 36.8527,
      "duration": 0.0267,
      "velocity": 116,
      "chip": "ym2612"
    },
    {
      "channel": 1,
      "note": 55,
      "start": 36.8544,
      "duration": 0.1249,
      "velocity": 127,
      "chip": "ym2612"
    },
    {
      "channel": 4,
      "note": 45,
      "start": 37.0036,
      "duration": 0.0325,
      "velocity": 116,
      "chip": "ym2612"
    },
    {
      "channel": 0,
      "note": 48,
      "start": 37.0624,
      "duration": 0.0655,
      "velocity": 92,
      "chip": "ym2612"
    },
    {
      "channel": 3,
      "note": 76,
      "start": 37.0646,
      "duration": 0.0637,
      "velocity": 92,
      "chip": "ym2612"
    },
    {
      "channel": 1,
      "note": 57,
      "start": 37.067,
      "duration": 0.061,
      "velocity": 127,
      "chip": "ym2612"
    },
    {
      "channel": 2,
      "note": 82,
      "start": 37.1312,
      "duration": 0.0092,
      "velocity": 96,
      "chip": "ym2612"
    },
    {
      "channel": 0,
      "note": 67,
      "start": 37.1332,
      "duration": 0.007,
      "velocity": 92,
      "chip": "ym2612"
    },
    {
      "channel": 3,
      "note": 64,
      "start": 37.1349,
      "duration": 0.0055,
      "velocity": 92,
      "chip": "ym2612"
    },
    {
      "channel": 4,
      "note": 72,
      "start": 37.1378,
      "duration": 0.0139,
      "velocity": 92,
      "chip": "ym2612"
    },
    {
      "channel": 0,
      "note": 60,
      "start": 37.2085,
      "duration": 0.0056,
      "velocity": 92,
      "chip": "ym2612"
    },
    {
      "channel": 3,
      "note": 58,
      "start": 37.2102,
      "duration": 0.0039,
      "velocity": 92,
      "chip": "ym2612"
    },
    {
      "channel": 1,
      "note": 52,
      "start": 37.2121,
      "duration": 0.037,
      "velocity": 127,
      "chip": "ym2612"
    },
    {
      "channel": 0,
      "note": 62,
      "start": 37.2801,
      "duration": 0.005,
      "velocity": 92,
      "chip": "ym2612"
    },
    {
      "channel": 1,
      "note": 55,
      "start": 37.2821,
      "duration": 0.075,
      "velocity": 127,
      "chip": "ym2612"
    },
    {
      "channel": 0,
      "note": 76,
      "start": 37.3614,
      "duration": 0.1623,
      "velocity": 92,
      "chip": "ym2612"
    },
    {
      "channel": 3,
      "note": 48,
      "start": 37.3632,
      "duration": 0.1609,
      "velocity": 92,
      "chip": "ym2612"
    },
    {
      "channel": 4,
      "note": 66,
      "start": 37.3653,
      "duration": 0.1086,
      "velocity": 92,
      "chip": "ym2612"
    },
    {
      "channel": 2,
      "note": 72,
      "start": 37.3677,
      "duration": 0.0231,
      "velocity": 92,
      "chip": "ym2612"
    },
    {
      "channel": 5,
      "note": 45,
      "start": 37.3701,
      "duration": 0.0371,
      "velocity": 116,
      "chip": "ym2612"
    },
    {
      "channel": 2,
      "note": 82,
      "start": 37.5278,
      "duration": 0.017,
      "velocity": 96,
      "chip": "ym2612"
    },
    {
      "channel": 0,
      "note": 60,
      "start": 37.533,
      "duration": 0.0114,
      "velocity": 92,
      "chip": "ym2612"
    },
    {
      "channel": 1,
      "note": 45,
      "start": 37.5353,
      "duration": 0.0305,
      "velocity": 116,
      "chip": "ym2612"
    },
    {
      "channel": 4,
      "note": 57,
      "start": 37.5385,
      "duration": 0.0539,
      "velocity": 127,
      "chip": "ym2612"
    },
    {
      "channel": 2,
      "note": 82,
      "start": 37.5962,
      "duration": 0.0149,
      "velocity": 96,
      "chip": "ym2612"
    },
    {
      "channel": 0,
      "note": 78,
      "start": 37.6021,
      "duration": 0.0583,
      "velocity": 92,
      "chip": "ym2612"
    },
    {
      "channel": 3,
      "note": 72,
      "start": 37.6039,
      "duration": 0.0231,
      "velocity": 92,
      "chip": "ym2612"
    },
    {
      "channel": 1,
      "note": 76,
      "start": 37.6066,
      "duration": 0.0043,
      "velocity": 92,
      "chip": "ym2612"
    },
    {
      "channel": 4,
      "note": 67,
      "start": 37.6086,
      "duration": 0.0395,
      "velocity": 92,
      "chip": "ym2612"
    },
    {
      "channel": 1,
      "note": 52,
      "start": 37.6984,
      "duration": 0.012,
      "velocity": 127,
      "chip": "ym2612"
    },
    {
      "channel": 0,
      "note": 79,
      "start": 37.8173,
      "duration": 0.0511,
      "velocity": 92,
      "chip": "ym2612"
    },
    {
      "channel": 3,
      "note": 72,
      "start": 37.8191,
      "duration": 0.0496,
      "velocity": 92,
      "chip": "ym2612"
    },
    {
      "channel": 4,
      "note": 76,
      "start": 37.821,
      "duration": 0.0761,
      "velocity": 92,
      "chip": "ym2612"
    },
    {
      "channel": 2,
      "note": 45,
      "start": 37.8242,
      "duration": 0.0225,
      "velocity": 116,
      "chip": "ym2612"
    },
    {
      "channel": 1,
      "note": 60,
      "start": 37.8262,
      "duration": 0.0014,
      "velocity": 127,
      "chip": "ym2612"
    },
    {
      "channel": 1,
      "note": 93,
      "start": 37.829,
      "duration": 0.0006,
      "velocity": 93,
      "chip": "ym2612"
    },
    {
      "channel": 1,
      "note": 88,
      "start": 37.8311,
      "duration": 0.0374,
      "velocity": 93,
      "chip": "ym2612"
    },
    {
      "channel": 2,
      "note": 82,
      "start": 37.9175,
      "duration": 0.0158,
      "velocity": 96,
      "chip": "ym2612"
    },
    {
      "channel": 0,
      "note": 45,
      "start": 37.923,
      "duration": 0.0243,
      "velocity": 116,
      "chip": "ym2612"
    },
    {
      "channel": 2,
      "note": 82,
      "start": 37.9714,
      "duration": 0.0169,
      "velocity": 96,
      "chip": "ym2612"
    },
    {
      "channel": 3,
      "note": 74,
      "start": 37.9768,
      "duration": 0.0579,
      "velocity": 92,
      "chip": "ym2612"
    },
    {
      "channel": 4,
      "note": 78,
      "start": 37.9788,
      "duration": 0.0563,
      "velocity": 92,
      "chip": "ym2612"
    },
    {
      "channel": 1,
      "note": 57,
      "start": 37.9812,
      "duration": 0.07,
      "velocity": 127,
      "chip": "ym2612"
    },
    {
      "channel": 0,
      "note": 90,
      "start": 37.9833,
      "duration": 0.0014,
      "velocity": 93,
      "chip": "ym2612"
    },
    {
      "channel": 0,
      "note": 95,
      "start": 37.9861,
      "duration": 0.0484,
      "velocity": 93,
      "chip": "ym2612"
    },
    {
      "channel": 3,
      "note": 76,
      "start": 38.0759,
      "duration": 0.0729,
      "velocity": 92,
      "chip": "ym2612"
    },
    {
      "channel": 4,
      "note": 57,
      "start": 38.0778,
      "duration": 0.038,
      "velocity": 92,
      "chip": "ym2612"
    },
    {
      "channel": 2,
      "note": 81,
      "start": 38.0796,
      "duration": 0.0363,
      "velocity": 92,
      "chip": "ym2612"
    },
    {
      "channel": 0,
      "note": 88,
      "start": 38.0818,
      "duration": 0.0339,
      "velocity": 93,
      "chip": "ym2612"
    },
    {
      "channel": 1,
      "note": 84,
      "start": 38.0846,
      "duration": 0.05,
      "velocity": 93,
      "chip": "ym2612"
    },
    {
      "channel": 0,
      "note": 99,
      "start": 38.1187,
      "duration": 0.0788,
      "velocity": 81,
      "chip": "ym2612"
    },
    {
      "channel": 4,
      "note": 52,
      "start": 38.143,
      "duration": 0.0771,
      "velocity": 127,
      "chip": "ym2612"
    },
    {
      "channel": 0,
      "note": 96,
      "start": 38.214,
      "duration": 0.0271,
      "velocity": 81,
      "chip": "ym2612"
    },
    {
      "channel": 2,
      "note": 82,
      "start": 38.2158,
      "duration": 0.0043,
      "velocity": 96,
      "chip": "ym2612"
    },
    {
      "channel": 0,
      "note": 98,
      "start": 38.2665,
      "duration": 0.9978,
      "velocity": 81,
      "chip": "ym2612"
    },
    {
      "channel": 2,
      "note": 82,
      "start": 38.2683,
      "duration": 0.0035,
      "velocity": 96,
      "chip": "ym2612"
    },
    {
      "channel": 4,
      "note": 55,
      "start": 38.2701,
      "duration": 0.1309,
      "velocity": 127,
      "chip": "ym2612"
    },
    {
      "channel": 4,
      "note": 57,
      "start": 38.4757,
      "duration": 0.0742,
      "velocity": 127,
      "chip": "ym2612"
    },
    {
      "channel": 2,
      "note": 82,
      "start": 38.5521,
      "duration": 0.0081,
      "velocity": 96,
      "chip": "ym2612"
    },
    {
      "channel": 3,
      "note": 69,
      "start": 38.555,
      "duration": 0.015,
      "velocity": 92,
      "chip": "ym2612"
    },
    {
      "channel": 1,
      "note": 72,
      "start": 38.5571,
      "duration": 0.0152,
      "velocity": 92,
      "chip": "ym2612"
    },
    {
      "channel": 4,
      "note": 74,
      "start": 38.5598,
      "duration": 0.0039,
      "velocity": 83,
      "chip": "ym2612"
    },
    {
      "channel": 2,
      "note": 79,
      "start": 38.5617,
      "duration": 0.0212,
      "velocity": 83,
      "chip": "ym2612"
    },
    {
      "channel": 4,
      "note": 81,
      "start": 38.5651,
      "duration": 0.0007,
      "velocity": 83,
      "chip": "ym2612"
    },
    {
      "channel": 4,
      "note": 81,
      "start": 38.5683,
      "duration": 0.0019,
      "velocity": 81,
      "chip": "ym2612"
    },
    {
      "channel": 3,
      "note": 52,
      "start": 38.6402,
      "duration": 0.0383,
      "velocity": 127,
      "chip": "ym2612"
    },
    {
      "channel": 3,
      "note": 55,
      "start": 38.7101,
      "duration": 0.0484,
      "velocity": 127,
      "chip": "ym2612"
    },
    {
      "channel": 2,
      "note": 57,
      "start": 38.7121,
      "duration": 0.0239,
      "velocity": 83,
      "chip": "ym2612"
    },
    {
      "channel": 4,
      "note": 67,
      "start": 38.7154,
      "duration": 0.0357,
      "velocity": 83,
      "chip": "ym2612"
    },
    {
      "channel": 1,
      "note": 74,
      "start": 38.7608,
      "duration": 0.1345,
      "velocity": 92,
      "chip": "ym2612"
    },
    {
      "channel": 2,
      "note": 72,
      "start": 38.7638,
      "duration": 0.0986,
      "velocity": 92,
      "chip": "ym2612"
    },
    {
      "channel": 4,
      "note": 79,
      "start": 38.7658,
      "duration": 0.13,
      "velocity": 92,
      "chip": "ym2612"
    },
    {
      "channel": 3,
      "note": 81,
      "start": 38.7684,
      "duration": 0.1271,
      "velocity": 81,
      "chip": "ym2612"
    },
    {
      "channel": 2,
      "note": 82,
      "start": 38.9159,
      "duration": 0.0299,
      "velocity": 96,
      "chip": "ym2612"
    },
    {
      "channel": 5,
      "note": 57,
      "start": 38.9185,
      "duration": 0.0939,
      "velocity": 127,
      "chip": "ym2612"
    },
    {
      "channel": 2,
      "note": 82,
      "start": 39.0326,
      "duration": 0.0182,
      "velocity": 96,
      "chip": "ym2612"
    },
    {
      "channel": 1,
      "note": 78,
      "start": 39.0386,
      "duration": 0.0404,
      "velocity": 92,
      "chip": "ym2612"
    },
    {
      "channel": 4,
      "note": 74,
      "start": 39.0405,
      "duration": 0.0387,
      "velocity": 92,
      "chip": "ym2612"
    },
    {
      "channel": 3,
      "note": 45,
      "start": 39.0439,
      "duration": 0.0009,
      "velocity": 116,
      "chip": "ym2612"
    },
    {
      "channel": 3,
      "note": 81,
      "start": 39.0464,
      "duration": 0.0463,
      "velocity": 81,
      "chip": "ym2612"
    },
    {
      "channel": 2,
      "note": 45,
      "start": 39.1166,
      "duration": 0.0124,
      "velocity": 116,
      "chip": "ym2612"
    },
    {
      "channel": 1,
      "note": 52,
      "start": 39.1187,
      "duration": 0.0317,
      "velocity": 127,
      "chip": "ym2612"
    },
    {
      "channel": 4,
      "note": 74,
      "start": 39.2047,
      "duration": 0.0598,
      "velocity": 92,
      "chip": "ym2612"
    },
    {
      "channel": 3,
      "note": 72,
      "start": 39.207,
      "duration": 0.0792,
      "velocity": 92,
      "chip": "ym2612"
    },
    {
      "channel": 5,
      "note": 79,
      "start": 39.2093,
      "duration": 0.0097,
      "velocity": 92,
      "chip": "ym2612"
    },
    {
      "channel": 1,
      "note": 55,
      "start": 39.2117,
      "duration": 0.1038,
      "velocity": 127,
      "chip": "ym2612"
    },
    {
      "channel": 2,
      "note": 81,
      "start": 39.2145,
      "duration": 0.0433,
      "velocity": 81,
      "chip": "ym2612"
    },
    {
      "channel": 2,
      "note": 82,
      "start": 39.288,
      "duration": 0.0087,
      "velocity": 96,
      "chip": "ym2612"
    },
    {
      "channel": 0,
      "note": 81,
      "start": 39.2903,
      "duration": 0.0061,
      "velocity": 83,
      "chip": "ym2612"
    },
    {
      "channel": 4,
      "note": 79,
      "start": 39.2922,
      "duration": 0.016,
      "velocity": 83,
      "chip": "ym2612"
    },
    {
      "channel": 3,
      "note": 72,
      "start": 39.2954,
      "duration": 0.0127,
      "velocity": 83,
      "chip": "ym2612"
    },
    {
      "channel": 0,
      "note": 96,
      "start": 39.2989,
      "duration": 0.0506,
      "velocity": 81,
      "chip": "ym2612"
    },
    {
      "channel": 0,
      "note": 93,
      "start": 39.3535,
      "duration": 0.1126,
      "velocity": 81,
      "chip": "ym2612"
    },
    {
      "channel": 2,
      "note": 82,
      "start": 39.3555,
      "duration": 0.0277,
      "velocity": 96,
      "chip": "ym2612"
    },
    {
      "channel": 3,
      "note": 45,
      "start": 39.3582,
      "duration": 0.0914,
      "velocity": 116,
      "chip": "ym2612"
    },
    {
      "channel": 1,
      "note": 57,
      "start": 39.3603,
      "duration": 0.1392,
      "velocity": 127,
      "chip": "ym2612"
    },
    {
      "channel": 4,
      "note": 57,
      "start": 39.5206,
      "duration": 0.0456,
      "velocity": 92,
      "chip": "ym2612"
    },
    {
      "channel": 0,
      "note": 93,
      "start": 39.6532,
      "duration": 0.0956,
      "velocity": 81,
      "chip": "ym2612"
    },
    {
      "channel": 4,
      "note": 79,
      "start": 39.6589,
      "duration": 0.0253,
      "velocity": 92,
      "chip": "ym2612"
    },
    {
      "channel": 2,
      "note": 74,
      "start": 39.6607,
      "duration": 0.0236,
      "velocity": 92,
      "chip": "ym2612"
    },
    {
      "channel": 1,
      "note": 52,
      "start": 39.6639,
      "duration": 0.0851,
      "velocity": 127,
      "chip": "ym2612"
    },
    {
      "channel": 4,
      "note": 75,
      "start": 39.6864,
      "duration": 0.0265,
      "velocity": 92,
      "chip": "ym2612"
    },
    {
      "channel": 2,
      "note": 82,
      "start": 39.7293,
      "duration": 0.0055,
      "velocity": 96,
      "chip": "ym2612"
    },
    {
      "channel": 4,
      "note": 74,
      "start": 39.732,
      "duration": 0.0317,
      "velocity": 92,
      "chip": "ym2612"
    },
    {
      "channel": 3,
      "note": 72,
      "start": 39.752,
      "duration": 0.0254,
      "velocity": 92,
      "chip": "ym2612"
    },
    {
      "channel": 0,
      "note": 96,
      "start": 39.7808,
      "duration": 0.0803,
      "velocity": 81,
      "chip": "ym2612"
    },
    {
      "channel": 2,
      "note": 82,
      "start": 39.783,
      "duration": 0.007,
      "velocity": 96,
      "chip": "ym2612"
    },
    {
      "channel": 3,
      "note": 69,
      "start": 39.7849,
      "duration": 0.0266,
      "velocity": 92,
      "chip": "ym2612"
    },
    {
      "channel": 1,
      "note": 55,
      "start": 39.7879,
      "duration": 0.09,
      "velocity": 127,
      "chip": "ym2612"
    },
    {
      "channel": 1,
      "note": 57,
      "start": 39.985,
      "duration": 0.0665,
      "velocity": 127,
      "chip": "ym2612"
    },
    {
      "channel": 2,
      "note": 82,
      "start": 40.0536,
      "duration": 0.0135,
      "velocity": 96,
      "chip": "ym2612"
    },
    {
      "channel": 4,
      "note": 81,
      "start": 40.0559,
      "duration": 0.011,
      "velocity": 83,
      "chip": "ym2612"
    },
    {
      "channel": 3,
      "note": 72,
      "start": 40.0579,
      "duration": 0.0163,
      "velocity": 83,
      "chip": "ym2612"
    },
    {
      "channel": 0,
      "note": 79,
      "start": 40.0614,
      "duration": 0.0127,
      "velocity": 83,
      "chip": "ym2612"
    },
    {
      "channel": 1,
      "note": 45,
      "start": 40.1485,
      "duration": 0.0117,
      "velocity": 116,
      "chip": "ym2612"
    },
    {
      "channel": 4,
      "note": 52,
      "start": 40.1507,
      "duration": 0.0227,
      "velocity": 127,
      "chip": "ym2612"
    },
    {
      "channel": 0,
      "note": 67,
      "start": 40.1528,
      "duration": 0.0203,
      "velocity": 83,
      "chip": "ym2612"
    },
    {
      "channel": 1,
      "note": 45,
      "start": 40.218,
      "duration": 0.026,
      "velocity": 116,
      "chip": "ym2612"
    },
    {
      "channel": 4,
      "note": 55,
      "start": 40.2199,
      "duration": 0.046,
      "velocity": 127,
      "chip": "ym2612"
    },
    {
      "channel": 2,
      "note": 81,
      "start": 40.2223,
      "duration": 0.0023,
      "velocity": 81,
      "chip": "ym2612"
    },
    {
      "channel": 1,
      "note": 45,
      "start": 40.2687,
      "duration": 0.0838,
      "velocity": 116,
      "chip": "ym2612"
    },
    {
      "channel": 2,
      "note": 82,
      "start": 40.423,
      "duration": 0.03,
      "velocity": 96,
      "chip": "ym2612"
    },
    {
      "channel": 3,
      "note": 72,
      "start": 40.4254,
      "duration": 0.0438,
      "velocity": 92,
      "chip": "ym2612"
    },
    {
      "channel": 4,
      "note": 57,
      "start": 40.4276,
      "duration": 0.1083,
      "velocity": 127,
      "chip": "ym2612"
    },
    {
      "channel": 0,
      "note": 83,
      "start": 40.4306,
      "duration": 0.0219,
      "velocity": 81,
      "chip": "ym2612"
    },
    {
      "channel": 2,
      "note": 82,
      "start": 40.5397,
      "duration": 0.0155,
      "velocity": 96,
      "chip": "ym2612"
    },
    {
      "channel": 1,
      "note": 45,
      "start": 40.5452,
      "duration": 0.0386,
      "velocity": 116,
      "chip": "ym2612"
    },
    {
      "channel": 4,
      "note": 55,
      "start": 40.6188,
      "duration": 0.0328,
      "velocity": 127,
      "chip": "ym2612"
    },
    {
      "channel": 0,
      "note": 67,
      "start": 40.6222,
      "duration": 0.0064,
      "velocity": 83,
      "chip": "ym2612"
    },
    {
      "channel": 3,
      "note": 57,
      "start": 40.6241,
      "duration": 0.005,
      "velocity": 83,
      "chip": "ym2612"
    },
    {
      "channel": 2,
      "note": 79,
      "start": 40.6781,
      "duration": 0.0527,
      "velocity": 92,
      "chip": "ym2612"
    },
    {
      "channel": 4,
      "note": 60,
      "start": 40.6809,
      "duration": 0.0783,
      "velocity": 127,
      "chip": "ym2612"
    },
    {
      "channel": 1,
      "note": 81,
      "start": 40.6833,
      "duration": 0.0019,
      "velocity": 81,
      "chip": "ym2612"
    },
    {
      "channel": 2,
      "note": 82,
      "start": 40.7483,
      "duration": 0.011,
      "velocity": 96,
      "chip": "ym2612"
    },
    {
      "channel": 0,
      "note": 45,
      "start": 40.7505,
      "duration": 0.0061,
      "velocity": 116,
      "chip": "ym2612"
    },
    {
      "channel": 3,
      "note": 72,
      "start": 40.7525,
      "duration": 0.0165,
      "velocity": 83,
      "chip": "ym2612"
    },
    {
      "channel": 1,
      "note": 79,
      "start": 40.7561,
      "duration": 0.0127,
      "velocity": 83,
      "chip": "ym2612"
    },
    {
      "channel": 0,
      "note": 81,
      "start": 40.758,
      "duration": 0.0107,
      "velocity": 83,
      "chip": "ym2612"
    },
    {
      "channel": 2,
      "note": 82,
      "start": 40.8209,
      "duration": 0.0166,
      "velocity": 96,
      "chip": "ym2612"
    },
    {
      "channel": 4,
      "note": 79,
      "start": 40.8263,
      "duration": 0.0467,
      "velocity": 92,
      "chip": "ym2612"
    },
    {
      "channel": 0,
      "note": 57,
      "start": 40.829,
      "duration": 0.0058,
      "velocity": 127,
      "chip": "ym2612"
    },
    {
      "channel": 1,
      "note": 88,
      "start": 40.8313,
      "duration": 0.0561,
      "velocity": 93,
      "chip": "ym2612"
    },
    {
      "channel": 3,
      "note": 96,
      "start": 40.834,
      "duration": 0.0535,
      "velocity": 93,
      "chip": "ym2612"
    },
    {
      "channel": 0,
      "note": 79,
      "start": 40.8361,
      "duration": 0.0011,
      "velocity": 81,
      "chip": "ym2612"
    },
    {
      "channel": 1,
      "note": 84,
      "start": 40.8988,
      "duration": 0.0403,
      "velocity": 93,
      "chip": "ym2612"
    },
    {
      "channel": 3,
      "note": 95,
      "start": 40.9005,
      "duration": 0.0388,
      "velocity": 93,
      "chip": "ym2612"
    },
    {
      "channel": 0,
      "note": 98,
      "start": 40.9024,
      "duration": 0.0366,
      "velocity": 93,
      "chip": "ym2612"
    },
    {
      "channel": 4,
      "note": 57,
      "start": 40.9527,
      "duration": 0.0318,
      "velocity": 92,
      "chip": "ym2612"
    },
    {
      "channel": 2,
      "note": 52,
      "start": 40.9555,
      "duration": 0.0666,
      "velocity": 127,
      "chip": "ym2612"
    },
    {
      "channel": 0,
      "note": 98,
      "start": 40.9654,
      "duration": 0.0465,
      "velocity": 81,
      "chip": "ym2612"
    },
    {
      "channel": 0,
      "note": 96,
      "start": 41.0218,
      "duration": 0.0333,
      "velocity": 81,
      "chip": "ym2612"
    },
    {
      "channel": 2,
      "note": 82,
      "start": 41.0235,
      "duration": 0.0108,
      "velocity": 96,
      "chip": "ym2612"
    },
    {
      "channel": 4,
      "note": 57,
      "start": 41.0256,
      "duration": 0.0083,
      "velocity": 92,
      "chip": "ym2612"
    },
    {
      "channel": 0,
      "note": 93,
      "start": 41.0655,
      "duration": 0.1062,
      "velocity": 81,
      "chip": "ym2612"
    },
    {
      "channel": 2,
      "note": 82,
      "start": 41.0787,
      "duration": 0.0101,
      "velocity": 96,
      "chip": "ym2612"
    },
    {
      "channel": 4,
      "note": 67,
      "start": 41.0807,
      "duration": 0.0078,
      "velocity": 92,
      "chip": "ym2612"
    },
    {
      "channel": 1,
      "note": 55,
      "start": 41.0839,
      "duration": 0.121,
      "velocity": 127,
      "chip": "ym2612"
    },
    {
      "channel": 4,
      "note": 69,
      "start": 41.2959,
      "duration": 0.0172,
      "velocity": 92,
      "chip": "ym2612"
    },
    {
      "channel": 1,
      "note": 57,
      "start": 41.2978,
      "duration": 0.0648,
      "velocity": 127,
      "chip": "ym2612"
    },
    {
      "channel": 0,
      "note": 96,
      "start": 41.3082,
      "duration": 0.7053,
      "velocity": 81,
      "chip": "ym2612"
    },
    {
      "channel": 2,
      "note": 82,
      "start": 41.3647,
      "duration": 0.0081,
      "velocity": 96,
      "chip": "ym2612"
    },
    {
      "channel": 4,
      "note": 75,
      "start": 41.3667,
      "duration": 0.0185,
      "velocity": 92,
      "chip": "ym2612"
    },
    {
      "channel": 3,
      "note": 74,
      "start": 41.3688,
      "duration": 0.0163,
      "velocity": 83,
      "chip": "ym2612"
    },
    {
      "channel": 1,
      "note": 81,
      "start": 41.3722,
      "duration": 0.0283,
      "velocity": 83,
      "chip": "ym2612"
    },
    {
      "channel": 2,
      "note": 78,
      "start": 41.3743,
      "duration": 0.011,
      "velocity": 83,
      "chip": "ym2612"
    },
    {
      "channel": 4,
      "note": 57,
      "start": 41.4414,
      "duration": 0.011,
      "velocity": 92,
      "chip": "ym2612"
    },
    {
      "channel": 3,
      "note": 52,
      "start": 41.4433,
      "duration": 0.0377,
      "velocity": 127,
      "chip": "ym2612"
    },
    {
      "channel": 4,
      "note": 67,
      "start": 41.5188,
      "duration": 0.0146,
      "velocity": 92,
      "chip": "ym2612"
    },
    {
      "channel": 3,
      "note": 55,
      "start": 41.5218,
      "duration": 0.0454,
      "velocity": 127,
      "chip": "ym2612"
    },
    {
      "channel": 1,
      "note": 57,
      "start": 41.5239,
      "duration": 0.0018,
      "velocity": 83,
      "chip": "ym2612"
    },
    {
      "channel": 1,
      "note": 81,
      "start": 41.5712,
      "duration": 0.1596,
      "velocity": 83,
      "chip": "ym2612"
    },
    {
      "channel": 2,
      "note": 74,
      "start": 41.5735,
      "duration": 0.1743,
      "velocity": 83,
      "chip": "ym2612"
    },
    {
      "channel": 4,
      "note": 69,
      "start": 41.7361,
      "duration": 0.0115,
      "velocity": 92,
      "chip": "ym2612"
    },
    {
      "channel": 3,
      "note": 57,
      "start": 41.7382,
      "duration": 0.1093,
      "velocity": 127,
      "chip": "ym2612"
    },
    {
      "channel": 2,
      "note": 82,
      "start": 41.8513,
      "duration": 0.0165,
      "velocity": 96,
      "chip": "ym2612"
    },
    {
      "channel": 1,
      "note": 45,
      "start": 41.8568,
      "duration": 0.0176,
      "velocity": 116,
      "chip": "ym2612"
    },
    {
      "channel": 4,
      "note": 72,
      "start": 41.859,
      "duration": 0.0447,
      "velocity": 83,
      "chip": "ym2612"
    },
    {
      "channel": 3,
      "note": 57,
      "start": 41.9278,
      "duration": 0.0126,
      "velocity": 92,
      "chip": "ym2612"
    },
    {
      "channel": 1,
      "note": 45,
      "start": 41.9298,
      "duration": 0.0403,
      "velocity": 116,
      "chip": "ym2612"
    },
    {
      "channel": 2,
      "note": 52,
      "start": 41.9318,
      "duration": 0.0618,
      "velocity": 127,
      "chip": "ym2612"
    },
    {
      "channel": 3,
      "note": 67,
      "start": 41.9892,
      "duration": 0.0757,
      "velocity": 92,
      "chip": "ym2612"
    },
    {
      "channel": 4,
      "note": 55,
      "start": 41.9915,
      "duration": 0.0736,
      "velocity": 127,
      "chip": "ym2612"
    },
    {
      "channel": 2,
      "note": 82,
      "start": 42.058,
      "duration": 0.0072,
      "velocity": 96,
      "chip": "ym2612"
    },
    {
      "channel": 1,
      "note": 45,
      "start": 42.06,
      "duration": 0.0341,
      "velocity": 116,
      "chip": "ym2612"
    },
    {
      "channel": 0,
      "note": 76,
      "start": 42.0622,
      "duration": 0.0652,
      "velocity": 81,
      "chip": "ym2612"
    },
    {
      "channel": 3,
      "note": 93,
      "start": 42.0673,
      "duration": 0.0604,
      "velocity": 81,
      "chip": "ym2612"
    },
    {
      "channel": 3,
      "note": 91,
      "start": 42.1316,
      "duration": 0.1126,
      "velocity": 81,
      "chip": "ym2612"
    },
    {
      "channel": 2,
      "note": 82,
      "start": 42.1337,
      "duration": 0.0109,
      "velocity": 96,
      "chip": "ym2612"
    },
    {
      "channel": 4,
      "note": 69,
      "start": 42.1362,
      "duration": 0.008,
      "velocity": 92,
      "chip": "ym2612"
    },
    {
      "channel": 5,
      "note": 57,
      "start": 42.1385,
      "duration": 0.1724,
      "velocity": 127,
      "chip": "ym2612"
    },
    {
      "channel": 0,
      "note": 81,
      "start": 42.1409,
      "duration": 0.1365,
      "velocity": 81,
      "chip": "ym2612"
    },
    {
      "channel": 1,
      "note": 67,
      "start": 42.299,
      "duration": 0.0618,
      "velocity": 83,
      "chip": "ym2612"
    },
    {
      "channel": 4,
      "note": 72,
      "start": 42.3014,
      "duration": 0.0427,
      "velocity": 83,
      "chip": "ym2612"
    },
    {
      "channel": 2,
      "note": 52,
      "start": 42.4184,
      "duration": 0.0703,
      "velocity": 127,
      "chip": "ym2612"
    },
    {
      "channel": 0,
      "note": 79,
      "start": 42.4202,
      "duration": 0.0896,
      "velocity": 81,
      "chip": "ym2612"
    },
    {
      "channel": 3,
      "note": 91,
      "start": 42.4326,
      "duration": 0.099,
      "velocity": 81,
      "chip": "ym2612"
    },
    {
      "channel": 2,
      "note": 82,
      "start": 42.4901,
      "duration": 0.0129,
      "velocity": 96,
      "chip": "ym2612"
    },
    {
      "channel": 4,
      "note": 57,
      "start": 42.4922,
      "duration": 0.0106,
      "velocity": 92,
      "chip": "ym2612"
    },
    {
      "channel": 1,
      "note": 57,
      "start": 42.4941,
      "duration": 0.0085,
      "velocity": 83,
      "chip": "ym2612"
    },
    {
      "channel": 2,
      "note": 82,
      "start": 42.5479,
      "duration": 0.0158,
      "velocity": 96,
      "chip": "ym2612"
    },
    {
      "channel": 4,
      "note": 67,
      "start": 42.5504,
      "duration": 0.0244,
      "velocity": 92,
      "chip": "ym2612"
    },
    {
      "channel": 1,
      "note": 55,
      "start": 42.5528,
      "duration": 0.1052,
      "velocity": 127,
      "chip": "ym2612"
    },
    {
      "channel": 0,
      "note": 69,
      "start": 42.5558,
      "duration": 0.1188,
      "velocity": 83,
      "chip": "ym2612"
    },
    {
      "channel": 3,
      "note": 74,
      "start": 42.5584,
      "duration": 0.1495,
      "velocity": 83,
      "chip": "ym2612"
    },
    {
      "channel": 5,
      "note": 81,
      "start": 42.5622,
      "duration": 0.0013,
      "velocity": 81,
      "chip": "ym2612"
    },
    {
      "channel": 4,
      "note": 69,
      "start": 42.7654,
      "duration": 0.0181,
      "velocity": 92,
      "chip": "ym2612"
    },
    {
      "channel": 1,
      "note": 57,
      "start": 42.7673,
      "duration": 0.066,
      "velocity": 127,
      "chip": "ym2612"
    },
    {
      "channel": 0,
      "note": 67,
      "start": 42.7701,
      "duration": 0.0706,
      "velocity": 83,
      "chip": "ym2612"
    },
    {
      "channel": 3,
      "note": 72,
      "start": 42.7726,
      "duration": 0.0683,
      "velocity": 83,
      "chip": "ym2612"
    },
    {
      "channel": 2,
      "note": 82,
      "start": 42.8365,
      "duration": 0.0046,
      "velocity": 96,
      "chip": "ym2612"
    },
    {
      "channel": 4,
      "note": 66,
      "start": 42.9117,
      "duration": 0.0622,
      "velocity": 92,
      "chip": "ym2612"
    },
    {
      "channel": 1,
      "note": 69,
      "start": 42.9135,
      "duration": 0.0602,
      "velocity": 92,
      "chip": "ym2612"
    },
    {
      "channel": 0,
      "note": 52,
      "start": 42.9158,
      "duration": 0.029,
      "velocity": 127,
      "chip": "ym2612"
    },
    {
      "channel": 0,
      "note": 55,
      "start": 42.9835,
      "duration": 0.0392,
      "velocity": 127,
      "chip": "ym2612"
    },
    {
      "channel": 1,
      "note": 64,
      "start": 43.0449,
      "duration": 0.0473,
      "velocity": 92,
      "chip": "ym2612"
    },
    {
      "channel": 4,
      "note": 67,
      "start": 43.0468,
      "duration": 0.0917,
      "velocity": 92,
      "chip": "ym2612"
    },
    {
      "channel": 3,
      "note": 81,
      "start": 43.0502,
      "duration": 0.1217,
      "velocity": 81,
      "chip": "ym2612"
    },
    {
      "channel": 2,
      "note": 82,
      "start": 43.1428,
      "duration": 0.008,
      "velocity": 96,
      "chip": "ym2612"
    },
    {
      "channel": 0,
      "note": 57,
      "start": 43.1483,
      "duration": 0.0442,
      "velocity": 127,
      "chip": "ym2612"
    },
    {
      "channel": 2,
      "note": 82,
      "start": 43.1959,
      "duration": 0.0123,
      "velocity": 96,
      "chip": "ym2612"
    },
    {
      "channel": 1,
      "note": 45,
      "start": 43.2016,
      "duration": 0.0231,
      "velocity": 116,
      "chip": "ym2612"
    },
    {
      "channel": 4,
      "note": 74,
      "start": 43.204,
      "duration": 0.0689,
      "velocity": 83,
      "chip": "ym2612"
    },
    {
      "channel": 3,
      "note": 78,
      "start": 43.206,
      "duration": 0.039,
      "velocity": 83,
      "chip": "ym2612"
    },
    {
      "channel": 1,
      "note": 45,
      "start": 43.2966,
      "duration": 0.0254,
      "velocity": 116,
      "chip": "ym2612"
    },
    {
      "channel": 1,
      "note": 50,
      "start": 43.3488,
      "duration": 0.0404,
      "velocity": 116,
      "chip": "ym2612"
    },
    {
      "channel": 0,
      "note": 60,
      "start": 43.3517,
      "duration": 0.1,
      "velocity": 127,
      "chip": "ym2612"
    },
    {
      "channel": 3,
      "note": 76,
      "start": 43.3537,
      "duration": 0.0488,
      "velocity": 83,
      "chip": "ym2612"
    },
    {
      "channel": 4,
      "note": 72,
      "start": 43.3566,
      "duration": 0.0461,
      "velocity": 83,
      "chip": "ym2612"
    },
    {
      "channel": 2,
      "note": 81,
      "start": 43.3589,
      "duration": 0.0509,
      "velocity": 81,
      "chip": "ym2612"
    },
    {
      "channel": 2,
      "note": 82,
      "start": 43.4185,
      "duration": 0.012,
      "velocity": 96,
      "chip": "ym2612"
    },
    {
      "channel": 1,
      "note": 50,
      "start": 43.4205,
      "duration": 0.0806,
      "velocity": 116,
      "chip": "ym2612"
    },
    {
      "channel": 3,
      "note": 57,
      "start": 43.5054,
      "duration": 0.0536,
      "velocity": 101,
      "chip": "ym2612"
    },
    {
      "channel": 2,
      "note": 82,
      "start": 43.5076,
      "duration": 0.0132,
      "velocity": 96,
      "chip": "ym2612"
    },
    {
      "channel": 4,
      "note": 66,
      "start": 43.513,
      "duration": 0.0316,
      "velocity": 92,
      "chip": "ym2612"
    },
    {
      "channel": 0,
      "note": 71,
      "start": 43.5163,
      "duration": 0.0424,
      "velocity": 92,
      "chip": "ym2612"
    },
    {
      "channel": 1,
      "note": 57,
      "start": 43.5185,
      "duration": 0.0403,
      "velocity": 127,
      "chip": "ym2612"
    },
    {
      "channel": 0,
      "note": 69,
      "start": 43.5834,
      "duration": 0.0385,
      "velocity": 92,
      "chip": "ym2612"
    },
    {
      "channel": 4,
      "note": 64,
      "start": 43.5855,
      "duration": 0.0447,
      "velocity": 92,
      "chip": "ym2612"
    },
    {
      "channel": 3,
      "note": 63,
      "start": 43.7028,
      "duration": 0.0334,
      "velocity": 101,
      "chip": "ym2612"
    },
    {
      "channel": 1,
      "note": 63,
      "start": 43.705,
      "duration": 0.0312,
      "velocity": 127,
      "chip": "ym2612"
    },
    {
      "channel": 3,
      "note": 62,
      "start": 43.7528,
      "duration": 0.1199,
      "velocity": 101,
      "chip": "ym2612"
    },
    {
      "channel": 2,
      "note": 45,
      "start": 43.7559,
      "duration": 0.0338,
      "velocity": 116,
      "chip": "ym2612"
    },
    {
      "channel": 1,
      "note": 62,
      "start": 43.7579,
      "duration": 0.1147,
      "velocity": 127,
      "chip": "ym2612"
    },
    {
      "channel": 2,
      "note": 45,
      "start": 43.9272,
      "duration": 0.0624,
      "velocity": 116,
      "chip": "ym2612"
    },
    {
      "channel": 3,
      "note": 60,
      "start": 44.0431,
      "duration": 0.0459,
      "velocity": 101,
      "chip": "ym2612"
    },
    {
      "channel": 2,
      "note": 50,
      "start": 44.0494,
      "duration": 0.0249,
      "velocity": 116,
      "chip": "ym2612"
    },
    {
      "channel": 1,
      "note": 60,
      "start": 44.0515,
      "duration": 0.0373,
      "velocity": 127,
      "chip": "ym2612"
    },
    {
      "channel": 2,
      "note": 50,
      "start": 44.1207,
      "duration": 0.0406,
      "velocity": 116,
      "chip": "ym2612"
    },
    {
      "channel": 3,
      "note": 57,
      "start": 44.2148,
      "duration": 0.1463,
      "velocity": 101,
      "chip": "ym2612"
    },
    {
      "channel": 2,
      "note": 52,
      "start": 44.2175,
      "duration": 0.0606,
      "velocity": 116,
      "chip": "ym2612"
    },
    {
      "channel": 1,
      "note": 57,
      "start": 44.2196,
      "duration": 0.1413,
      "velocity": 127,
      "chip": "ym2612"
    },
    {
      "channel": 3,
      "note": 55,
      "start": 44.4981,
      "duration": 0.0599,
      "velocity": 101,
      "chip": "ym2612"
    },
    {
      "channel": 1,
      "note": 55,
      "start": 44.5036,
      "duration": 0.0539,
      "velocity": 127,
      "chip": "ym2612"
    },
    {
      "channel": 2,
      "note": 45,
      "start": 44.5828,
      "duration": 0.0054,
      "velocity": 116,
      "chip": "ym2612"
    },
    {
      "channel": 0,
      "note": 45,
      "start": 44.586,
      "duration": 0.1584,
      "velocity": 81,
      "chip": "ym2612"
    },
    {
      "channel": 3,
      "note": 57,
      "start": 44.6337,
      "duration": 0.1443,
      "velocity": 101,
      "chip": "ym2612"
    },
    {
      "channel": 2,
      "note": 45,
      "start": 44.6364,
      "duration": 0.0418,
      "velocity": 116,
      "chip": "ym2612"
    },
    {
      "channel": 1,
      "note": 57,
      "start": 44.6385,
      "duration": 0.1393,
      "velocity": 127,
      "chip": "ym2612"
    },
    {
      "channel": 3,
      "note": 60,
      "start": 44.915,
      "duration": 0.0866,
      "velocity": 101,
      "chip": "ym2612"
    },
    {
      "channel": 1,
      "note": 60,
      "start": 44.9203,
      "duration": 0.0812,
      "velocity": 127,
      "chip": "ym2612"
    },
    {
      "channel": 0,
      "note": 45,
      "start": 44.9226,
      "duration": 0.0578,
      "velocity": 81,
      "chip": "ym2612"
    },
    {
      "channel": 2,
      "note": 50,
      "start": 44.9907,
      "duration": 0.0187,
      "velocity": 116,
      "chip": "ym2612"
    },
    {
      "channel": 3,
      "note": 57,
      "start": 45.0805,
      "duration": 0.1294,
      "velocity": 101,
      "chip": "ym2612"
    },
    {
      "channel": 2,
      "note": 50,
      "start": 45.0833,
      "duration": 0.0603,
      "velocity": 116,
      "chip": "ym2612"
    },
    {
      "channel": 1,
      "note": 57,
      "start": 45.0856,
      "duration": 0.1242,
      "velocity": 127,
      "chip": "ym2612"
    },
    {
      "channel": 3,
      "note": 63,
      "start": 45.4348,
      "duration": 0.0421,
      "velocity": 101,
      "chip": "ym2612"
    },
    {
      "channel": 2,
      "note": 45,
      "start": 45.4371,
      "duration": 0.0182,
      "velocity": 116,
      "chip": "ym2612"
    },
    {
      "channel": 1,
      "note": 63,
      "start": 45.44,
      "duration": 0.0368,
      "velocity": 127,
      "chip": "ym2612"
    },
    {
      "channel": 3,
      "note": 62,
      "start": 45.4877,
      "duration": 0.1521,
      "velocity": 101,
      "chip": "ym2612"
    },
    {
      "channel": 2,
      "note": 45,
      "start": 45.4901,
      "duration": 0.0664,
      "velocity": 116,
      "chip": "ym2612"
    },
    {
      "channel": 1,
      "note": 62,
      "start": 45.4924,
      "duration": 0.1471,
      "velocity": 127,
      "chip": "ym2612"
    },
    {
      "channel": 3,
      "note": 60,
      "start": 45.7767,
      "duration": 0.0514,
      "velocity": 101,
      "chip": "ym2612"
    },
    {
      "channel": 2,
      "note": 50,
      "start": 45.7825,
      "duration": 0.0178,
      "velocity": 116,
      "chip": "ym2612"
    },
    {
      "channel": 1,
      "note": 60,
      "start": 45.7845,
      "duration": 0.0435,
      "velocity": 127,
      "chip": "ym2612"
    },
    {
      "channel": 2,
      "note": 50,
      "start": 45.852,
      "duration": 0.0405,
      "velocity": 116,
      "chip": "ym2612"
    },
    {
      "channel": 3,
      "note": 57,
      "start": 45.946,
      "duration": 0.1466,
      "velocity": 101,
      "chip": "ym2612"
    },
    {
      "channel": 2,
      "note": 52,
      "start": 45.9488,
      "duration": 0.0938,
      "velocity": 116,
      "chip": "ym2612"
    },
    {
      "channel": 1,
      "note": 57,
      "start": 45.9509,
      "duration": 0.1413,
      "velocity": 127,
      "chip": "ym2612"
    },
    {
      "channel": 3,
      "note": 55,
      "start": 46.2296,
      "duration": 0.1142,
      "velocity": 101,
      "chip": "ym2612"
    },
    {
      "channel": 1,
      "note": 55,
      "start": 46.235,
      "duration": 0.1086,
      "velocity": 127,
      "chip": "ym2612"
    },
    {
      "channel": 2,
      "note": 45,
      "start": 46.3049,
      "duration": 0.0319,
      "velocity": 116,
      "chip": "ym2612"
    },
    {
      "channel": 2,
      "note": 45,
      "start": 46.3611,
      "duration": 0.0604,
      "velocity": 116,
      "chip": "ym2612"
    },
    {
      "channel": 2,
      "note": 45,
      "start": 46.5257,
      "duration": 0.0457,
      "velocity": 116,
      "chip": "ym2612"
    },
    {
      "channel": 3,
      "note": 56,
      "start": 46.6423,
      "duration": 0.1126,
      "velocity": 101,
      "chip": "ym2612"
    },
    {
      "channel": 2,
      "note": 50,
      "start": 46.6491,
      "duration": 0.0807,
      "velocity": 116,
      "chip": "ym2612"
    },
    {
      "channel": 1,
      "note": 56,
      "start": 46.651,
      "duration": 0.1038,
      "velocity": 127,
      "chip": "ym2612"
    },
    {
      "channel": 3,
      "note": 63,
      "start": 47.0366,
      "duration": 0.0406,
      "velocity": 101,
      "chip": "ym2612"
    },
    {
      "channel": 2,
      "note": 45,
      "start": 47.0387,
      "duration": 0.0182,
      "velocity": 116,
      "chip": "ym2612"
    },
    {
      "channel": 4,
      "note": 63,
      "start": 47.0421,
      "duration": 0.0353,
      "velocity": 83,
      "chip": "ym2612"
    },
    {
      "channel": 3,
      "note": 62,
      "start": 47.0868,
      "duration": 0.1532,
      "velocity": 101,
      "chip": "ym2612"
    },
    {
      "channel": 2,
      "note": 45,
      "start": 47.0898,
      "duration": 0.0341,
      "velocity": 116,
      "chip": "ym2612"
    },
    {
      "channel": 4,
      "note": 62,
      "start": 47.0919,
      "duration": 0.1486,
      "velocity": 83,
      "chip": "ym2612"
    },
    {
      "channel": 2,
      "note": 45,
      "start": 47.2446,
      "duration": 0.0458,
      "velocity": 116,
      "chip": "ym2612"
    },
    {
      "channel": 3,
      "note": 60,
      "start": 47.3605,
      "duration": 0.0452,
      "velocity": 101,
      "chip": "ym2612"
    },
    {
      "channel": 2,
      "note": 50,
      "start": 47.3666,
      "duration": 0.0323,
      "velocity": 116,
      "chip": "ym2612"
    },
    {
      "channel": 4,
      "note": 60,
      "start": 47.3687,
      "duration": 0.0375,
      "velocity": 83,
      "chip": "ym2612"
    },
    {
      "channel": 2,
      "note": 50,
      "start": 47.4446,
      "duration": 0.0178,
      "velocity": 116,
      "chip": "ym2612"
    },
    {
      "channel": 3,
      "note": 57,
      "start": 47.5492,
      "duration": 0.1128,
      "velocity": 101,
      "chip": "ym2612"
    },
    {
      "channel": 2,
      "note": 52,
      "start": 47.552,
      "duration": 0.0937,
      "velocity": 116,
      "chip": "ym2612"
    },
    {
      "channel": 4,
      "note": 57,
      "start": 47.5544,
      "duration": 0.108,
      "velocity": 83,
      "chip": "ym2612"
    },
    {
      "channel": 3,
      "note": 55,
      "start": 47.8323,
      "duration": 0.052,
      "velocity": 101,
      "chip": "ym2612"
    },
    {
      "channel": 4,
      "note": 55,
      "start": 47.8379,
      "duration": 0.0465,
      "velocity": 83,
      "chip": "ym2612"
    },
    {
      "channel": 2,
      "note": 45,
      "start": 47.9075,
      "duration": 0.032,
      "velocity": 116,
      "chip": "ym2612"
    },
    {
      "channel": 3,
      "note": 56,
      "start": 47.9631,
      "duration": 0.1109,
      "velocity": 101,
      "chip": "ym2612"
    },
    {
      "channel": 4,
      "note": 56,
      "start": 47.9664,
      "duration": 0.1079,
      "velocity": 83,
      "chip": "ym2612"
    },
    {
      "channel": 3,
      "note": 57,
      "start": 48.1279,
      "duration": 0.1129,
      "velocity": 101,
      "chip": "ym2612"
    },
    {
      "channel": 2,
      "note": 45,
      "start": 48.1311,
      "duration": 0.0433,
      "velocity": 116,
      "chip": "ym2612"
    },
    {
      "channel": 4,
      "note": 57,
      "start": 48.1336,
      "duration": 0.1075,
      "velocity": 83,
      "chip": "ym2612"
    },
    {
      "channel": 2,
      "note": 50,
      "start": 48.2484,
      "duration": 0.0749,
      "velocity": 116,
      "chip": "ym2612"
    },
    {
      "channel": 3,
      "note": 60,
      "start": 48.3178,
      "duration": 0.0756,
      "velocity": 101,
      "chip": "ym2612"
    },
    {
      "channel": 4,
      "note": 60,
      "start": 48.32,
      "duration": 0.0737,
      "velocity": 83,
      "chip": "ym2612"
    },
    {
      "channel": 3,
      "note": 57,
      "start": 48.5806,
      "duration": 0.0795,
      "velocity": 101,
      "chip": "ym2612"
    },
    {
      "channel": 4,
      "note": 57,
      "start": 48.5834,
      "duration": 0.077,
      "velocity": 83,
      "chip": "ym2612"
    },
    {
      "channel": 3,
      "note": 63,
      "start": 48.7868,
      "duration": 0.0411,
      "velocity": 101,
      "chip": "ym2612"
    },
    {
      "channel": 2,
      "note": 45,
      "start": 48.789,
      "duration": 0.0251,
      "velocity": 116,
      "chip": "ym2612"
    },
    {
      "channel": 4,
      "note": 63,
      "start": 48.7919,
      "duration": 0.0361,
      "velocity": 83,
      "chip": "ym2612"
    },
    {
      "channel": 3,
      "note": 62,
      "start": 48.8389,
      "duration": 0.1007,
      "velocity": 101,
      "chip": "ym2612"
    },
    {
      "channel": 2,
      "note": 45,
      "start": 48.8412,
      "duration": 0.0322,
      "velocity": 116,
      "chip": "ym2612"
    },
    {
      "channel": 4,
      "note": 62,
      "start": 48.8434,
      "duration": 0.0966,
      "velocity": 83,
      "chip": "ym2612"
    },
    {
      "channel": 2,
      "note": 45,
      "start": 48.9943,
      "duration": 0.0625,
      "velocity": 116,
      "chip": "ym2612"
    },
    {
      "channel": 3,
      "note": 60,
      "start": 49.1102,
      "duration": 0.0466,
      "velocity": 101,
      "chip": "ym2612"
    },
    {
      "channel": 2,
      "note": 50,
      "start": 49.1161,
      "duration": 0.0335,
      "velocity": 116,
      "chip": "ym2612"
    },
    {
      "channel": 4,
      "note": 60,
      "start": 49.1184,
      "duration": 0.0386,
      "velocity": 83,
      "chip": "ym2612"
    },
    {
      "channel": 2,
      "note": 50,
      "start": 49.189,
      "duration": 0.0233,
      "velocity": 116,
      "chip": "ym2612"
    },
    {
      "channel": 3,
      "note": 57,
      "start": 49.2992,
      "duration": 0.1296,
      "velocity": 101,
      "chip": "ym2612"
    },
    {
      "channel": 2,
      "note": 51,
      "start": 49.302,
      "duration": 0.0771,
      "velocity": 116,
      "chip": "ym2612"
    },
    {
      "channel": 4,
      "note": 57,
      "start": 49.3043,
      "duration": 0.1247,
      "velocity": 83,
      "chip": "ym2612"
    },
    {
      "channel": 2,
      "note": 51,
      "start": 49.4665,
      "duration": 0.0959,
      "velocity": 116,
      "chip": "ym2612"
    },
    {
      "channel": 3,
      "note": 50,
      "start": 49.5825,
      "duration": 0.0086,
      "velocity": 101,
      "chip": "ym2612"
    },
    {
      "channel": 4,
      "note": 50,
      "start": 49.5885,
      "duration": 0.0028,
      "velocity": 83,
      "chip": "ym2612"
    },
    {
      "channel": 2,
      "note": 45,
      "start": 49.6572,
      "duration": 0.0112,
      "velocity": 116,
      "chip": "ym2612"
    },
    {
      "channel": 3,
      "note": 50,
      "start": 49.7068,
      "duration": 0.0829,
      "velocity": 101,
      "chip": "ym2612"
    },
    {
      "channel": 2,
      "note": 45,
      "start": 49.7132,
      "duration": 0.028,
      "velocity": 116,
      "chip": "ym2612"
    },
    {
      "channel": 4,
      "note": 50,
      "start": 49.7153,
      "duration": 0.0746,
      "velocity": 83,
      "chip": "ym2612"
    },
    {
      "channel": 2,
      "note": 45,
      "start": 49.7862,
      "duration": 0.0111,
      "velocity": 116,
      "chip": "ym2612"
    },
    {
      "channel": 3,
      "note": 51,
      "start": 49.8351,
      "duration": 0.0695,
      "velocity": 101,
      "chip": "ym2612"
    },
    {
      "channel": 2,
      "note": 50,
      "start": 49.8406,
      "duration": 0.0644,
      "velocity": 116,
      "chip": "ym2612"
    },
    {
      "channel": 4,
      "note": 51,
      "start": 49.8431,
      "duration": 0.0618,
      "velocity": 83,
      "chip": "ym2612"
    },
    {
      "channel": 3,
      "note": 51,
      "start": 49.98,
      "duration": 0.0731,
      "velocity": 101,
      "chip": "ym2612"
    },
    {
      "channel": 4,
      "note": 51,
      "start": 49.9865,
      "duration": 0.0667,
      "velocity": 83,
      "chip": "ym2612"
    },
    {
      "channel": 3,
      "note": 52,
      "start": 50.1051,
      "duration": 0.0537,
      "velocity": 101,
      "chip": "ym2612"
    },
    {
      "channel": 4,
      "note": 52,
      "start": 50.1112,
      "duration": 0.0478,
      "velocity": 83,
      "chip": "ym2612"
    },
    {
      "channel": 2,
      "note": 45,
      "start": 50.1863,
      "duration": 0.0095,
      "velocity": 116,
      "chip": "ym2612"
    },
    {
      "channel": 2,
      "note": 45,
      "start": 50.2339,
      "duration": 0.0037,
      "velocity": 116,
      "chip": "ym2612"
    },
    {
      "channel": 2,
      "note": 45,
      "start": 50.3533,
      "duration": 0.0184,
      "velocity": 116,
      "chip": "ym2612"
    },
    {
      "channel": 2,
      "note": 50,
      "start": 50.4052,
      "duration": 0.0304,
      "velocity": 116,
      "chip": "ym2612"
    },
    {
      "channel": 2,
      "note": 50,
      "start": 50.4732,
      "duration": 0.0116,
      "velocity": 116,
      "chip": "ym2612"
    },
    {
      "channel": 2,
      "note": 51,
      "start": 50.5881,
      "duration": 0.0315,
      "velocity": 116,
      "chip": "ym2612"
    },
    {
      "channel": 2,
      "note": 45,
      "start": 50.9066,
      "duration": 0.0791,
      "velocity": 116,
      "chip": "ym2612"
    },
    {
      "channel": 2,
      "note": 45,
      "start": 51.0732,
      "duration": 0.0289,
      "velocity": 116,
      "chip": "ym2612"
    },
    {
      "channel": 2,
      "note": 50,
      "start": 51.2066,
      "duration": 0.0291,
      "velocity": 116,
      "chip": "ym2612"
    },
    {
      "channel": 2,
      "note": 50,
      "start": 51.3731,
      "duration": 0.0459,
      "velocity": 116,
      "chip": "ym2612"
    },
    {
      "channel": 2,
      "note": 51,
      "start": 51.4904,
      "duration": 0.1453,
      "velocity": 116,
      "chip": "ym2612"
    },
    {
      "channel": 3,
      "note": 50,
      "start": 51.8446,
      "duration": 0.0418,
      "velocity": 101,
      "chip": "ym2612"
    },
    {
      "channel": 2,
      "note": 45,
      "start": 51.8499,
      "duration": 0.0519,
      "velocity": 116,
      "chip": "ym2612"
    },
    {
      "channel": 4,
      "note": 50,
      "start": 51.8522,
      "duration": 0.0343,
      "velocity": 83,
      "chip": "ym2612"
    },
    {
      "channel": 3,
      "note": 50,
      "start": 52.0267,
      "duration": 0.0231,
      "velocity": 101,
      "chip": "ym2612"
    },
    {
      "channel": 2,
      "note": 45,
      "start": 52.0329,
      "duration": 0.0172,
      "velocity": 116,
      "chip": "ym2612"
    },
    {
      "channel": 4,
      "note": 50,
      "start": 52.0353,
      "duration": 0.0147,
      "velocity": 83,
      "chip": "ym2612"
    },
    {
      "channel": 2,
      "note": 50,
      "start": 52.085,
      "duration": 0.0429,
      "velocity": 116,
      "chip": "ym2612"
    },
    {
      "channel": 3,
      "note": 50,
      "start": 52.1508,
      "duration": 0.04,
      "velocity": 101,
      "chip": "ym2612"
    },
    {
      "channel": 2,
      "note": 50,
      "start": 52.1531,
      "duration": 0.0103,
      "velocity": 116,
      "chip": "ym2612"
    },
    {
      "channel": 4,
      "note": 50,
      "start": 52.1575,
      "duration": 0.0335,
      "velocity": 83,
      "chip": "ym2612"
    },
    {
      "channel": 3,
      "note": 51,
      "start": 52.2449,
      "duration": 0.0751,
      "velocity": 101,
      "chip": "ym2612"
    },
    {
      "channel": 2,
      "note": 51,
      "start": 52.2509,
      "duration": 0.0537,
      "velocity": 116,
      "chip": "ym2612"
    },
    {
      "channel": 4,
      "note": 51,
      "start": 52.2532,
      "duration": 0.0669,
      "velocity": 83,
      "chip": "ym2612"
    },
    {
      "channel": 3,
      "note": 52,
      "start": 52.4328,
      "duration": 0.0936,
      "velocity": 101,
      "chip": "ym2612"
    },
    {
      "channel": 4,
      "note": 52,
      "start": 52.4385,
      "duration": 0.088,
      "velocity": 83,
      "chip": "ym2612"
    },
    {
      "channel": 4,
      "note": 69,
      "start": 52.9754,
      "duration": 0.0423,
      "velocity": 83,
      "chip": "ym2612"
    },
    {
      "channel": 0,
      "note": 57,
      "start": 52.9773,
      "duration": 0.026,
      "velocity": 87,
      "chip": "ym2612"
    },
    {
      "channel": 4,
      "note": 69,
      "start": 53.0283,
      "duration": 0.0552,
      "velocity": 83,
      "chip": "ym2612"
    },
    {
      "channel": 0,
      "note": 57,
      "start": 53.0303,
      "duration": 0.0529,
      "velocity": 87,
      "chip": "ym2612"
    },
    {
      "channel": 4,
      "note": 67,
      "start": 53.0875,
      "duration": 0.1062,
      "velocity": 83,
      "chip": "ym2612"
    },
    {
      "channel": 0,
      "note": 55,
      "start": 53.0894,
      "duration": 0.1039,
      "velocity": 87,
      "chip": "ym2612"
    },
    {
      "channel": 4,
      "note": 69,
      "start": 53.2346,
      "duration": 0.0251,
      "velocity": 83,
      "chip": "ym2612"
    },
    {
      "channel": 0,
      "note": 57,
      "start": 53.2365,
      "duration": 0.0226,
      "velocity": 87,
      "chip": "ym2612"
    },
    {
      "channel": 4,
      "note": 69,
      "start": 53.3544,
      "duration": 0.0551,
      "velocity": 83,
      "chip": "ym2612"
    },
    {
      "channel": 0,
      "note": 57,
      "start": 53.3562,
      "duration": 0.0529,
      "velocity": 87,
      "chip": "ym2612"
    },
    {
      "channel": 4,
      "note": 67,
      "start": 53.5013,
      "duration": 0.0121,
      "velocity": 83,
      "chip": "ym2612"
    },
    {
      "channel": 0,
      "note": 55,
      "start": 53.5041,
      "duration": 0.009,
      "velocity": 87,
      "chip": "ym2612"
    },
    {
      "channel": 4,
      "note": 69,
      "start": 53.5636,
      "duration": 0.0895,
      "velocity": 83,
      "chip": "ym2612"
    },
    {
      "channel": 0,
      "note": 57,
      "start": 53.5656,
      "duration": 0.0967,
      "velocity": 87,
      "chip": "ym2612"
    },
    {
      "channel": 1,
      "note": 93,
      "start": 53.6336,
      "duration": 0.0048,
      "velocity": 127,
      "chip": "ym2612"
    },
    {
      "channel": 4,
      "note": 67,
      "start": 53.7202,
      "duration": 0.0675,
      "velocity": 83,
      "chip": "ym2612"
    },
    {
      "channel": 0,
      "note": 55,
      "start": 53.722,
      "duration": 0.0373,
      "velocity": 87,
      "chip": "ym2612"
    },
    {
      "channel": 4,
      "note": 69,
      "start": 54.2906,
      "duration": 0.0466,
      "velocity": 83,
      "chip": "ym2612"
    },
    {
      "channel": 0,
      "note": 57,
      "start": 54.2925,
      "duration": 0.0225,
      "velocity": 87,
      "chip": "ym2612"
    },
    {
      "channel": 4,
      "note": 69,
      "start": 54.3603,
      "duration": 0.0478,
      "velocity": 83,
      "chip": "ym2612"
    },
    {
      "channel": 0,
      "note": 57,
      "start": 54.3627,
      "duration": 0.0842,
      "velocity": 87,
      "chip": "ym2612"
    },
    {
      "channel": 2,
      "note": 45,
      "start": 54.4106,
      "duration": 0.0368,
      "velocity": 116,
      "chip": "ym2612"
    },
    {
      "channel": 4,
      "note": 67,
      "start": 54.4137,
      "duration": 0.0834,
      "velocity": 83,
      "chip": "ym2612"
    },
    {
      "channel": 3,
      "note": 55,
      "start": 54.4159,
      "duration": 0.1144,
      "velocity": 87,
      "chip": "ym2612"
    },
    {
      "channel": 4,
      "note": 69,
      "start": 54.5718,
      "duration": 0.0328,
      "velocity": 83,
      "chip": "ym2612"
    },
    {
      "channel": 0,
      "note": 57,
      "start": 54.5738,
      "duration": 0.0375,
      "velocity": 87,
      "chip": "ym2612"
    },
    {
      "channel": 4,
      "note": 72,
      "start": 54.6989,
      "duration": 0.0561,
      "velocity": 83,
      "chip": "ym2612"
    },
    {
      "channel": 0,
      "note": 60,
      "start": 54.7006,
      "duration": 0.0539,
      "velocity": 87,
      "chip": "ym2612"
    },
    {
      "channel": 2,
      "note": 45,
      "start": 54.7789,
      "duration": 0.0449,
      "velocity": 116,
      "chip": "ym2612"
    },
    {
      "channel": 4,
      "note": 69,
      "start": 54.8474,
      "duration": 0.0187,
      "velocity": 83,
      "chip": "ym2612"
    },
    {
      "channel": 4,
      "note": 74,
      "start": 54.898,
      "duration": 0.2522,
      "velocity": 83,
      "chip": "ym2612"
    },
    {
      "channel": 0,
      "note": 62,
      "start": 54.8998,
      "duration": 0.2947,
      "velocity": 87,
      "chip": "ym2612"
    },
    {
      "channel": 1,
      "note": 93,
      "start": 55.0706,
      "duration": 0.0126,
      "velocity": 127,
      "chip": "ym2612"
    },
    {
      "channel": 4,
      "note": 72,
      "start": 55.1908,
      "duration": 0.0456,
      "velocity": 83,
      "chip": "ym2612"
    },
    {
      "channel": 3,
      "note": 60,
      "start": 55.1929,
      "duration": 0.0637,
      "velocity": 87,
      "chip": "ym2612"
    },
    {
      "channel": 4,
      "note": 69,
      "start": 55.3472,
      "duration": 0.0609,
      "velocity": 83,
      "chip": "ym2612"
    },
    {
      "channel": 0,
      "note": 57,
      "start": 55.3491,
      "duration": 0.0807,
      "velocity": 87,
      "chip": "ym2612"
    },
    {
      "channel": 4,
      "note": 69,
      "start": 55.6707,
      "duration": 0.0387,
      "velocity": 83,
      "chip": "ym2612"
    },
    {
      "channel": 0,
      "note": 57,
      "start": 55.6729,
      "duration": 0.0361,
      "velocity": 87,
      "chip": "ym2612"
    },
    {
      "channel": 4,
      "note": 69,
      "start": 55.7403,
      "duration": 0.07,
      "velocity": 83,
      "chip": "ym2612"
    },
    {
      "channel": 0,
      "note": 57,
      "start": 55.7422,
      "duration": 0.0677,
      "velocity": 87,
      "chip": "ym2612"
    },
    {
      "channel": 2,
      "note": 45,
      "start": 55.7906,
      "duration": 0.0363,
      "velocity": 116,
      "chip": "ym2612"
    },
    {
      "channel": 1,
      "note": 67,
      "start": 55.7937,
      "duration": 0.1329,
      "velocity": 83,
      "chip": "ym2612"
    },
    {
      "channel": 3,
      "note": 55,
      "start": 55.7956,
      "duration": 0.0978,
      "velocity": 87,
      "chip": "ym2612"
    },
    {
      "channel": 1,
      "note": 69,
      "start": 55.9508,
      "duration": 0.0329,
      "velocity": 83,
      "chip": "ym2612"
    },
    {
      "channel": 0,
      "note": 57,
      "start": 55.9527,
      "duration": 0.0309,
      "velocity": 87,
      "chip": "ym2612"
    },
    {
      "channel": 4,
      "note": 93,
      "start": 56.0777,
      "duration": 0.006,
      "velocity": 127,
      "chip": "ym2612"
    },
    {
      "channel": 1,
      "note": 72,
      "start": 56.08,
      "duration": 0.0364,
      "velocity": 83,
      "chip": "ym2612"
    },
    {
      "channel": 0,
      "note": 60,
      "start": 56.0824,
      "duration": 0.0339,
      "velocity": 87,
      "chip": "ym2612"
    },
    {
      "channel": 2,
      "note": 45,
      "start": 56.1578,
      "duration": 0.0387,
      "velocity": 116,
      "chip": "ym2612"
    },
    {
      "channel": 0,
      "note": 57,
      "start": 56.2267,
      "duration": 0.0183,
      "velocity": 87,
      "chip": "ym2612"
    },
    {
      "channel": 1,
      "note": 74,
      "start": 56.2773,
      "duration": 0.2545,
      "velocity": 83,
      "chip": "ym2612"
    },
    {
      "channel": 0,
      "note": 62,
      "start": 56.2793,
      "duration": 0.2522,
      "velocity": 87,
      "chip": "ym2612"
    },
    {
      "channel": 4,
      "note": 93,
      "start": 56.4356,
      "duration": 0.0293,
      "velocity": 127,
      "chip": "ym2612"
    },
    {
      "channel": 4,
      "note": 93,
      "start": 56.5688,
      "duration": 0.0092,
      "velocity": 127,
      "chip": "ym2612"
    },
    {
      "channel": 1,
      "note": 72,
      "start": 56.5746,
      "duration": 0.018,
      "velocity": 83,
      "chip": "ym2612"
    },
    {
      "channel": 0,
      "note": 60,
      "start": 56.5764,
      "duration": 0.0447,
      "velocity": 87,
      "chip": "ym2612"
    },
    {
      "channel": 4,
      "note": 93,
      "start": 56.7641,
      "duration": 0.0117,
      "velocity": 127,
      "chip": "ym2612"
    },
    {
      "channel": 4,
      "note": 93,
      "start": 56.84,
      "duration": 0.0294,
      "velocity": 127,
      "chip": "ym2612"
    },
    {
      "channel": 2,
      "note": 45,
      "start": 56.8427,
      "duration": 0.0437,
      "velocity": 116,
      "chip": "ym2612"
    },
    {
      "channel": 2,
      "note": 45,
      "start": 57.0074,
      "duration": 0.0789,
      "velocity": 116,
      "chip": "ym2612"
    },
    {
      "channel": 1,
      "note": 55,
      "start": 57.476,
      "duration": 0.0608,
      "velocity": 83,
      "chip": "ym2612"
    },
    {
      "channel": 0,
      "note": 55,
      "start": 57.4779,
      "duration": 0.0588,
      "velocity": 87,
      "chip": "ym2612"
    },
    {
      "channel": 4,
      "note": 93,
      "start": 57.553,
      "duration": 0.0064,
      "velocity": 127,
      "chip": "ym2612"
    },
    {
      "channel": 1,
      "note": 57,
      "start": 57.5562,
      "duration": 0.0447,
      "velocity": 83,
      "chip": "ym2612"
    },
    {
      "channel": 0,
      "note": 57,
      "start": 57.558,
      "duration": 0.0877,
      "velocity": 87,
      "chip": "ym2612"
    },
    {
      "channel": 1,
      "note": 60,
      "start": 57.6419,
      "duration": 0.0466,
      "velocity": 83,
      "chip": "ym2612"
    },
    {
      "channel": 3,
      "note": 60,
      "start": 57.6439,
      "duration": 0.0654,
      "velocity": 87,
      "chip": "ym2612"
    },
    {
      "channel": 1,
      "note": 55,
      "start": 57.7121,
      "duration": 0.0187,
      "velocity": 83,
      "chip": "ym2612"
    },
    {
      "channel": 0,
      "note": 55,
      "start": 57.714,
      "duration": 0.0167,
      "velocity": 87,
      "chip": "ym2612"
    },
    {
      "channel": 1,
      "note": 62,
      "start": 57.7622,
      "duration": 0.1348,
      "velocity": 83,
      "chip": "ym2612"
    },
    {
      "channel": 0,
      "note": 62,
      "start": 57.7647,
      "duration": 0.1322,
      "velocity": 87,
      "chip": "ym2612"
    },
    {
      "channel": 4,
      "note": 93,
      "start": 57.9176,
      "duration": 0.0295,
      "velocity": 127,
      "chip": "ym2612"
    },
    {
      "channel": 1,
      "note": 60,
      "start": 57.9203,
      "duration": 0.0933,
      "velocity": 83,
      "chip": "ym2612"
    },
    {
      "channel": 0,
      "note": 60,
      "start": 57.9226,
      "duration": 0.1078,
      "velocity": 87,
      "chip": "ym2612"
    },
    {
      "channel": 4,
      "note": 93,
      "start": 58.0345,
      "duration": 0.0162,
      "velocity": 127,
      "chip": "ym2612"
    },
    {
      "channel": 2,
      "note": 45,
      "start": 58.0402,
      "duration": 0.0106,
      "velocity": 116,
      "chip": "ym2612"
    },
    {
      "channel": 1,
      "note": 57,
      "start": 58.0422,
      "duration": 0.0571,
      "velocity": 83,
      "chip": "ym2612"
    },
    {
      "channel": 0,
      "note": 57,
      "start": 58.0446,
      "duration": 0.0806,
      "velocity": 87,
      "chip": "ym2612"
    },
    {
      "channel": 3,
      "note": 64,
      "start": 58.1166,
      "duration": 0.0086,
      "velocity": 92,
      "chip": "ym2612"
    },
    {
      "channel": 2,
      "note": 45,
      "start": 58.1188,
      "duration": 0.0312,
      "velocity": 116,
      "chip": "ym2612"
    },
    {
      "channel": 1,
      "note": 60,
      "start": 58.1217,
      "duration": 0.0445,
      "velocity": 83,
      "chip": "ym2612"
    },
    {
      "channel": 4,
      "note": 60,
      "start": 58.1242,
      "duration": 0.0421,
      "velocity": 87,
      "chip": "ym2612"
    },
    {
      "channel": 3,
      "note": 74,
      "start": 58.208,
      "duration": 0.0265,
      "velocity": 92,
      "chip": "ym2612"
    },
    {
      "channel": 0,
      "note": 78,
      "start": 58.2099,
      "duration": 0.0675,
      "velocity": 92,
      "chip": "ym2612"
    },
    {
      "channel": 1,
      "note": 62,
      "start": 58.2122,
      "duration": 0.0577,
      "velocity": 83,
      "chip": "ym2612"
    },
    {
      "channel": 4,
      "note": 62,
      "start": 58.215,
      "duration": 0.0552,
      "velocity": 87,
      "chip": "ym2612"
    },
    {
      "channel": 3,
      "note": 75,
      "start": 58.2377,
      "duration": 0.0621,
      "velocity": 92,
      "chip": "ym2612"
    },
    {
      "channel": 2,
      "note": 74,
      "start": 58.2728,
      "duration": 0.0345,
      "velocity": 92,
      "chip": "ym2612"
    },
    {
      "channel": 1,
      "note": 93,
      "start": 58.2796,
      "duration": 0.0073,
      "velocity": 127,
      "chip": "ym2612"
    },
    {
      "channel": 4,
      "note": 64,
      "start": 58.2831,
      "duration": 0.0476,
      "velocity": 83,
      "chip": "ym2612"
    },
    {
      "channel": 0,
      "note": 64,
      "start": 58.2854,
      "duration": 0.1115,
      "velocity": 87,
      "chip": "ym2612"
    },
    {
      "channel": 3,
      "note": 72,
      "start": 58.3023,
      "duration": 0.095,
      "velocity": 92,
      "chip": "ym2612"
    },
    {
      "channel": 1,
      "note": 93,
      "start": 58.3509,
      "duration": 0.0086,
      "velocity": 127,
      "chip": "ym2612"
    },
    {
      "channel": 2,
      "note": 69,
      "start": 58.3535,
      "duration": 0.1441,
      "velocity": 92,
      "chip": "ym2612"
    },
    {
      "channel": 5,
      "note": 45,
      "start": 58.3559,
      "duration": 0.0416,
      "velocity": 116,
      "chip": "ym2612"
    },
    {
      "channel": 4,
      "note": 67,
      "start": 58.3584,
      "duration": 0.1389,
      "velocity": 83,
      "chip": "ym2612"
    },
    {
      "channel": 1,
      "note": 67,
      "start": 58.3609,
      "duration": 0.1361,
      "velocity": 87,
      "chip": "ym2612"
    },
    {
      "channel": 5,
      "note": 45,
      "start": 58.5188,
      "duration": 0.0783,
      "velocity": 116,
      "chip": "ym2612"
    },
    {
      "channel": 4,
      "note": 64,
      "start": 58.5215,
      "duration": 0.0259,
      "velocity": 83,
      "chip": "ym2612"
    },
    {
      "channel": 0,
      "note": 64,
      "start": 58.5237,
      "duration": 0.0232,
      "velocity": 87,
      "chip": "ym2612"
    }
  ]
}