{
  "track_name": "02 - Day 2- Metalhead",
  "duration_sec": 58.513,
  "sample_rate": 44100,
  "note_count": 918,
  "unique_pitches": 32,
  "pitch_range": 54,
  "avg_note_duration": 0.1203,
  "reconstruction_stats": {
    "notes_reconstructed": 918,
    "keyon_events": 918,
    "keyoff_events": 918,
    "orphan_keyons": 0,
    "unique_pitches": 32,
    "pitch_range": 54,
    "avg_duration_sec": 0.1203
  },
  "metadata": {
    "source": "V\\Vectorman\\02 - Day 2- Metalhead.vgz"
  },
  "notes": [
    {
      "channel": 0,
      "note": 62,
      "start": 0.0,
      "duration": 0.0,
      "velocity": 127,
      "chip": "ym2612"
    },
    {
      "channel": 0,
      "note": 50,
      "start": 0.0,
      "duration": 0.0,
      "velocity": 1,
      "chip": "ym2612"
    },
    {
      "channel": 1,
      "note": 56,
      "start": 0.0,
      "duration": 0.0,
      "velocity": 1,
      "chip": "ym2612"
    },
    {
      "channel": 2,
      "note": 38,
      "start": 0.0,
      "duration": 0.0,
      "velocity": 1,
      "chip": "ym2612"
    },
    {
      "channel": 3,
      "note": 50,
      "start": 0.0,
      "duration": 0.0,
      "velocity": 117,
      "chip": "ym2612"
    },
    {
      "channel": 3,
      "note": 50,
      "start": 0.0,
      "duration": 0.0,
      "velocity": 117,
      "chip": "ym2612"
    },
    {
      "channel": 5,
      "note": 45,
      "start": 0.0,
      "duration": 0.0,
      "velocity": 1,
      "chip": "ym2612"
    },
    {
      "channel": 3,
      "note": 60,
      "start": 0.0001,
      "duration": 0.0904,
      "velocity": 118,
      "chip": "ym2612"
    },
    {
      "channel": 3,
      "note": 67,
      "start": 0.0935,
      "duration": 0.1136,
      "velocity": 118,
      "chip": "ym2612"
    },
    {
      "channel": 3,
      "note": 70,
      "start": 0.2105,
      "duration": 0.0968,
      "velocity": 118,
      "chip": "ym2612"
    },
    {
      "channel": 3,
      "note": 72,
      "start": 0.3102,
      "duration": 0.1136,
      "velocity": 118,
      "chip": "ym2612"
    },
    {
      "channel": 3,
      "note": 79,
      "start": 0.4269,
      "duration": 0.097,
      "velocity": 118,
      "chip": "ym2612"
    },
    {
      "channel": 3,
      "note": 67,
      "start": 0.5269,
      "duration": 0.097,
      "velocity": 118,
      "chip": "ym2612"
    },
    {
      "channel": 3,
      "note": 70,
      "start": 0.6269,
      "duration": 0.1137,
      "velocity": 118,
      "chip": "ym2612"
    },
    {
      "channel": 3,
      "note": 72,
      "start": 0.7436,
      "duration": 0.0969,
      "velocity": 118,
      "chip": "ym2612"
    },
    {
      "channel": 3,
      "note": 60,
      "start": 0.8435,
      "duration": 0.1137,
      "velocity": 118,
      "chip": "ym2612"
    },
    {
      "channel": 3,
      "note": 67,
      "start": 0.9602,
      "duration": 0.097,
      "velocity": 118,
      "chip": "ym2612"
    },
    {
      "channel": 3,
      "note": 70,
      "start": 1.0602,
      "duration": 0.1136,
      "velocity": 118,
      "chip": "ym2612"
    },
    {
      "channel": 3,
      "note": 72,
      "start": 1.1768,
      "duration": 0.0971,
      "velocity": 118,
      "chip": "ym2612"
    },
    {
      "channel": 3,
      "note": 79,
      "start": 1.277,
      "duration": 0.1136,
      "velocity": 118,
      "chip": "ym2612"
    },
    {
      "channel": 3,
      "note": 67,
      "start": 1.3936,
      "duration": 0.0969,
      "velocity": 118,
      "chip": "ym2612"
    },
    {
      "channel": 3,
      "note": 70,
      "start": 1.4935,
      "duration": 0.1137,
      "velocity": 118,
      "chip": "ym2612"
    },
    {
      "channel": 3,
      "note": 72,
      "start": 1.6102,
      "duration": 0.097,
      "velocity": 118,
      "chip": "ym2612"
    },
    {
      "channel": 3,
      "note": 60,
      "start": 1.7102,
      "duration": 0.0971,
      "velocity": 118,
      "chip": "ym2612"
    },
    {
      "channel": 3,
      "note": 67,
      "start": 1.8103,
      "duration": 0.1136,
      "velocity": 118,
      "chip": "ym2612"
    },
    {
      "channel": 3,
      "note": 70,
      "start": 1.9273,
      "duration": 0.0966,
      "velocity": 118,
      "chip": "ym2612"
    },
    {
      "channel": 3,
      "note": 72,
      "start": 2.0268,
      "duration": 0.1137,
      "velocity": 118,
      "chip": "ym2612"
    },
    {
      "channel": 3,
      "note": 79,
      "start": 2.1436,
      "duration": 0.0969,
      "velocity": 118,
      "chip": "ym2612"
    },
    {
      "channel": 3,
      "note": 67,
      "start": 2.2436,
      "duration": 0.1136,
      "velocity": 118,
      "chip": "ym2612"
    },
    {
      "channel": 3,
      "note": 70,
      "start": 2.3602,
      "duration": 0.097,
      "velocity": 118,
      "chip": "ym2612"
    },
    {
      "channel": 3,
      "note": 72,
      "start": 2.4602,
      "duration": 0.1137,
      "velocity": 118,
      "chip": "ym2612"
    },
    {
      "channel": 3,
      "note": 60,
      "start": 2.5769,
      "duration": 0.097,
      "velocity": 118,
      "chip": "ym2612"
    },
    {
      "channel": 3,
      "note": 67,
      "start": 2.6768,
      "duration": 0.1137,
      "velocity": 118,
      "chip": "ym2612"
    },
    {
      "channel": 3,
      "note": 70,
      "start": 2.7936,
      "duration": 0.097,
      "velocity": 118,
      "chip": "ym2612"
    },
    {
      "channel": 3,
      "note": 72,
      "start": 2.8935,
      "duration": 0.0971,
      "velocity": 118,
      "chip": "ym2612"
    },
    {
      "channel": 3,
      "note": 79,
      "start": 2.9936,
      "duration": 0.1136,
      "velocity": 118,
      "chip": "ym2612"
    },
    {
      "channel": 3,
      "note": 67,
      "start": 3.1103,
      "duration": 0.0969,
      "velocity": 118,
      "chip": "ym2612"
    },
    {
      "channel": 3,
      "note": 70,
      "start": 3.2102,
      "duration": 0.1137,
      "velocity": 118,
      "chip": "ym2612"
    },
    {
      "channel": 3,
      "note": 72,
      "start": 3.3269,
      "duration": 0.0969,
      "velocity": 118,
      "chip": "ym2612"
    },
    {
      "channel": 3,
      "note": 60,
      "start": 3.4268,
      "duration": 0.1139,
      "velocity": 118,
      "chip": "ym2612"
    },
    {
      "channel": 0,
      "note": 48,
      "start": 3.4315,
      "duration": 0.4756,
      "velocity": 127,
      "chip": "ym2612"
    },
    {
      "channel": 3,
      "note": 67,
      "start": 3.5436,
      "duration": 0.0968,
      "velocity": 118,
      "chip": "ym2612"
    },
    {
      "channel": 3,
      "note": 70,
      "start": 3.6439,
      "duration": 0.1133,
      "velocity": 118,
      "chip": "ym2612"
    },
    {
      "channel": 3,
      "note": 72,
      "start": 3.7602,
      "duration": 0.0971,
      "velocity": 118,
      "chip": "ym2612"
    },
    {
      "channel": 3,
      "note": 79,
      "start": 3.8603,
      "duration": 0.0969,
      "velocity": 118,
      "chip": "ym2612"
    },
    {
      "channel": 3,
      "note": 67,
      "start": 3.9602,
      "duration": 0.1136,
      "velocity": 118,
      "chip": "ym2612"
    },
    {
      "channel": 3,
      "note": 70,
      "start": 4.0768,
      "duration": 0.097,
      "velocity": 118,
      "chip": "ym2612"
    },
    {
      "channel": 0,
      "note": 48,
      "start": 4.0803,
      "duration": 0.1768,
      "velocity": 127,
      "chip": "ym2612"
    },
    {
      "channel": 3,
      "note": 72,
      "start": 4.1768,
      "duration": 0.1137,
      "velocity": 118,
      "chip": "ym2612"
    },
    {
      "channel": 3,
      "note": 60,
      "start": 4.2936,
      "duration": 0.097,
      "velocity": 118,
      "chip": "ym2612"
    },
    {
      "channel": 0,
      "note": 51,
      "start": 4.2964,
      "duration": 0.194,
      "velocity": 127,
      "chip": "ym2612"
    },
    {
      "channel": 3,
      "note": 67,
      "start": 4.3936,
      "duration": 0.1136,
      "velocity": 118,
      "chip": "ym2612"
    },
    {
      "channel": 3,
      "note": 70,
      "start": 4.5102,
      "duration": 0.097,
      "velocity": 118,
      "chip": "ym2612"
    },
    {
      "channel": 0,
      "note": 48,
      "start": 4.5129,
      "duration": 0.1942,
      "velocity": 127,
      "chip": "ym2612"
    },
    {
      "channel": 3,
      "note": 72,
      "start": 4.6102,
      "duration": 0.1137,
      "velocity": 118,
      "chip": "ym2612"
    },
    {
      "channel": 3,
      "note": 79,
      "start": 4.7269,
      "duration": 0.097,
      "velocity": 118,
      "chip": "ym2612"
    },
    {
      "channel": 0,
      "note": 51,
      "start": 4.7298,
      "duration": 0.2107,
      "velocity": 127,
      "chip": "ym2612"
    },
    {
      "channel": 3,
      "note": 67,
      "start": 4.8268,
      "duration": 0.1138,
      "velocity": 118,
      "chip": "ym2612"
    },
    {
      "channel": 3,
      "note": 70,
      "start": 4.9436,
      "duration": 0.0969,
      "velocity": 118,
      "chip": "ym2612"
    },
    {
      "channel": 0,
      "note": 53,
      "start": 4.9463,
      "duration": 0.1941,
      "velocity": 127,
      "chip": "ym2612"
    },
    {
      "channel": 3,
      "note": 72,
      "start": 5.0436,
      "duration": 0.097,
      "velocity": 118,
      "chip": "ym2612"
    },
    {
      "channel": 3,
      "note": 60,
      "start": 5.1436,
      "duration": 0.1136,
      "velocity": 118,
      "chip": "ym2612"
    },
    {
      "channel": 0,
      "note": 43,
      "start": 5.1466,
      "duration": 0.4272,
      "velocity": 127,
      "chip": "ym2612"
    },
    {
      "channel": 3,
      "note": 67,
      "start": 5.2602,
      "duration": 0.097,
      "velocity": 118,
      "chip": "ym2612"
    },
    {
      "channel": 3,
      "note": 70,
      "start": 5.3605,
      "duration": 0.1134,
      "velocity": 118,
      "chip": "ym2612"
    },
    {
      "channel": 3,
      "note": 72,
      "start": 5.4769,
      "duration": 0.0971,
      "velocity": 118,
      "chip": "ym2612"
    },
    {
      "channel": 3,
      "note": 79,
      "start": 5.577,
      "duration": 0.1134,
      "velocity": 118,
      "chip": "ym2612"
    },
    {
      "channel": 3,
      "note": 67,
      "start": 5.6935,
      "duration": 0.0971,
      "velocity": 118,
      "chip": "ym2612"
    },
    {
      "channel": 3,
      "note": 70,
      "start": 5.7936,
      "duration": 0.1136,
      "velocity": 118,
      "chip": "ym2612"
    },
    {
      "channel": 0,
      "note": 43,
      "start": 5.7966,
      "duration": 0.1938,
      "velocity": 127,
      "chip": "ym2612"
    },
    {
      "channel": 3,
      "note": 72,
      "start": 5.9102,
      "duration": 0.097,
      "velocity": 118,
      "chip": "ym2612"
    },
    {
      "channel": 3,
      "note": 60,
      "start": 6.0102,
      "duration": 0.1136,
      "velocity": 118,
      "chip": "ym2612"
    },
    {
      "channel": 0,
      "note": 46,
      "start": 6.013,
      "duration": 0.0607,
      "velocity": 127,
      "chip": "ym2612"
    },
    {
      "channel": 3,
      "note": 67,
      "start": 6.1269,
      "duration": 0.097,
      "velocity": 118,
      "chip": "ym2612"
    },
    {
      "channel": 3,
      "note": 70,
      "start": 6.2269,
      "duration": 0.097,
      "velocity": 118,
      "chip": "ym2612"
    },
    {
      "channel": 0,
      "note": 46,
      "start": 6.2296,
      "duration": 0.0609,
      "velocity": 127,
      "chip": "ym2612"
    },
    {
      "channel": 3,
      "note": 72,
      "start": 6.3269,
      "duration": 0.1137,
      "velocity": 118,
      "chip": "ym2612"
    },
    {
      "channel": 3,
      "note": 79,
      "start": 6.4436,
      "duration": 0.0969,
      "velocity": 118,
      "chip": "ym2612"
    },
    {
      "channel": 0,
      "note": 46,
      "start": 6.447,
      "duration": 0.41,
      "velocity": 127,
      "chip": "ym2612"
    },
    {
      "channel": 3,
      "note": 67,
      "start": 6.5436,
      "duration": 0.1137,
      "velocity": 118,
      "chip": "ym2612"
    },
    {
      "channel": 3,
      "note": 70,
      "start": 6.6603,
      "duration": 0.0969,
      "velocity": 118,
      "chip": "ym2612"
    },
    {
      "channel": 3,
      "note": 72,
      "start": 6.7602,
      "duration": 0.1137,
      "velocity": 118,
      "chip": "ym2612"
    },
    {
      "channel": 3,
      "note": 60,
      "start": 6.8769,
      "duration": 0.097,
      "velocity": 118,
      "chip": "ym2612"
    },
    {
      "channel": 0,
      "note": 48,
      "start": 6.8799,
      "duration": 0.4606,
      "velocity": 127,
      "chip": "ym2612"
    },
    {
      "channel": 3,
      "note": 67,
      "start": 6.9768,
      "duration": 0.1138,
      "velocity": 118,
      "chip": "ym2612"
    },
    {
      "channel": 3,
      "note": 70,
      "start": 7.094,
      "duration": 0.0966,
      "velocity": 118,
      "chip": "ym2612"
    },
    {
      "channel": 3,
      "note": 72,
      "start": 7.1936,
      "duration": 0.1136,
      "velocity": 118,
      "chip": "ym2612"
    },
    {
      "channel": 3,
      "note": 79,
      "start": 7.3102,
      "duration": 0.0971,
      "velocity": 118,
      "chip": "ym2612"
    },
    {
      "channel": 3,
      "note": 67,
      "start": 7.4102,
      "duration": 0.097,
      "velocity": 118,
      "chip": "ym2612"
    },
    {
      "channel": 3,
      "note": 70,
      "start": 7.5103,
      "duration": 0.1136,
      "velocity": 118,
      "chip": "ym2612"
    },
    {
      "channel": 0,
      "note": 48,
      "start": 7.5133,
      "duration": 0.1772,
      "velocity": 127,
      "chip": "ym2612"
    },
    {
      "channel": 3,
      "note": 72,
      "start": 7.6269,
      "duration": 0.097,
      "velocity": 118,
      "chip": "ym2612"
    },
    {
      "channel": 3,
      "note": 60,
      "start": 7.727,
      "duration": 0.1135,
      "velocity": 118,
      "chip": "ym2612"
    },
    {
      "channel": 0,
      "note": 51,
      "start": 7.7298,
      "duration": 0.2106,
      "velocity": 127,
      "chip": "ym2612"
    },
    {
      "channel": 3,
      "note": 67,
      "start": 7.8435,
      "duration": 0.0971,
      "velocity": 118,
      "chip": "ym2612"
    },
    {
      "channel": 3,
      "note": 70,
      "start": 7.9436,
      "duration": 0.1136,
      "velocity": 118,
      "chip": "ym2612"
    },
    {
      "channel": 0,
      "note": 48,
      "start": 7.9463,
      "duration": 0.2107,
      "velocity": 127,
      "chip": "ym2612"
    },
    {
      "channel": 3,
      "note": 72,
      "start": 8.0602,
      "duration": 0.0971,
      "velocity": 118,
      "chip": "ym2612"
    },
    {
      "channel": 3,
      "note": 79,
      "start": 8.1603,
      "duration": 0.1137,
      "velocity": 118,
      "chip": "ym2612"
    },
    {
      "channel": 0,
      "note": 51,
      "start": 8.163,
      "duration": 0.2109,
      "velocity": 127,
      "chip": "ym2612"
    },
    {
      "channel": 3,
      "note": 67,
      "start": 8.277,
      "duration": 0.0971,
      "velocity": 118,
      "chip": "ym2612"
    },
    {
      "channel": 3,
      "note": 70,
      "start": 8.377,
      "duration": 0.1135,
      "velocity": 118,
      "chip": "ym2612"
    },
    {
      "channel": 0,
      "note": 53,
      "start": 8.3799,
      "duration": 0.1938,
      "velocity": 127,
      "chip": "ym2612"
    },
    {
      "channel": 3,
      "note": 72,
      "start": 8.4936,
      "duration": 0.0969,
      "velocity": 118,
      "chip": "ym2612"
    },
    {
      "channel": 3,
      "note": 60,
      "start": 8.5936,
      "duration": 0.0969,
      "velocity": 118,
      "chip": "ym2612"
    },
    {
      "channel": 0,
      "note": 44,
      "start": 8.5969,
      "duration": 0.4102,
      "velocity": 127,
      "chip": "ym2612"
    },
    {
      "channel": 3,
      "note": 67,
      "start": 8.6934,
      "duration": 0.1137,
      "velocity": 118,
      "chip": "ym2612"
    },
    {
      "channel": 3,
      "note": 70,
      "start": 8.8105,
      "duration": 0.0966,
      "velocity": 118,
      "chip": "ym2612"
    },
    {
      "channel": 3,
      "note": 72,
      "start": 8.9102,
      "duration": 0.1137,
      "velocity": 118,
      "chip": "ym2612"
    },
    {
      "channel": 3,
      "note": 79,
      "start": 9.0269,
      "duration": 0.0969,
      "velocity": 118,
      "chip": "ym2612"
    },
    {
      "channel": 3,
      "note": 67,
      "start": 9.1268,
      "duration": 0.1137,
      "velocity": 118,
      "chip": "ym2612"
    },
    {
      "channel": 3,
      "note": 70,
      "start": 9.2436,
      "duration": 0.097,
      "velocity": 118,
      "chip": "ym2612"
    },
    {
      "channel": 0,
      "note": 44,
      "start": 9.2466,
      "duration": 0.2106,
      "velocity": 127,
      "chip": "ym2612"
    },
    {
      "channel": 3,
      "note": 72,
      "start": 9.3435,
      "duration": 0.1138,
      "velocity": 118,
      "chip": "ym2612"
    },
    {
      "channel": 3,
      "note": 60,
      "start": 9.4604,
      "duration": 0.0968,
      "velocity": 118,
      "chip": "ym2612"
    },
    {
      "channel": 0,
      "note": 46,
      "start": 9.4632,
      "duration": 0.0606,
      "velocity": 127,
      "chip": "ym2612"
    },
    {
      "channel": 3,
      "note": 67,
      "start": 9.5602,
      "duration": 0.1137,
      "velocity": 118,
      "chip": "ym2612"
    },
    {
      "channel": 3,
      "note": 70,
      "start": 9.677,
      "duration": 0.0969,
      "velocity": 118,
      "chip": "ym2612"
    },
    {
      "channel": 0,
      "note": 46,
      "start": 9.6796,
      "duration": 0.0607,
      "velocity": 127,
      "chip": "ym2612"
    },
    {
      "channel": 3,
      "note": 72,
      "start": 9.7769,
      "duration": 0.097,
      "velocity": 118,
      "chip": "ym2612"
    },
    {
      "channel": 3,
      "note": 79,
      "start": 9.8769,
      "duration": 0.1136,
      "velocity": 118,
      "chip": "ym2612"
    },
    {
      "channel": 0,
      "note": 46,
      "start": 9.88,
      "duration": 0.3605,
      "velocity": 127,
      "chip": "ym2612"
    },
    {
      "channel": 3,
      "note": 67,
      "start": 9.9935,
      "duration": 0.0971,
      "velocity": 118,
      "chip": "ym2612"
    },
    {
      "channel": 3,
      "note": 70,
      "start": 10.0936,
      "duration": 0.1136,
      "velocity": 118,
      "chip": "ym2612"
    },
    {
      "channel": 3,
      "note": 72,
      "start": 10.2102,
      "duration": 0.097,
      "velocity": 118,
      "chip": "ym2612"
    },
    {
      "channel": 3,
      "note": 60,
      "start": 10.3102,
      "duration": 0.1137,
      "velocity": 118,
      "chip": "ym2612"
    },
    {
      "channel": 2,
      "note": 57,
      "start": 10.3151,
      "duration": 0.0423,
      "velocity": 118,
      "chip": "ym2612"
    },
    {
      "channel": 0,
      "note": 48,
      "start": 10.318,
      "duration": 0.4724,
      "velocity": 127,
      "chip": "ym2612"
    },
    {
      "channel": 1,
      "note": 60,
      "start": 10.3225,
      "duration": 0.0679,
      "velocity": 78,
      "chip": "ym2612"
    },
    {
      "channel": 3,
      "note": 67,
      "start": 10.427,
      "duration": 0.0969,
      "velocity": 118,
      "chip": "ym2612"
    },
    {
      "channel": 3,
      "note": 70,
      "start": 10.5272,
      "duration": 0.1134,
      "velocity": 118,
      "chip": "ym2612"
    },
    {
      "channel": 4,
      "note": 60,
      "start": 10.5323,
      "duration": 0.0583,
      "velocity": 78,
      "chip": "ym2612"
    },
    {
      "channel": 3,
      "note": 72,
      "start": 10.6436,
      "duration": 0.0969,
      "velocity": 118,
      "chip": "ym2612"
    },
    {
      "channel": 1,
      "note": 60,
      "start": 10.6464,
      "duration": 0.0609,
      "velocity": 78,
      "chip": "ym2612"
    },
    {
      "channel": 3,
      "note": 79,
      "start": 10.7436,
      "duration": 0.1137,
      "velocity": 118,
      "chip": "ym2612"
    },
    {
      "channel": 3,
      "note": 67,
      "start": 10.8603,
      "duration": 0.0968,
      "velocity": 118,
      "chip": "ym2612"
    },
    {
      "channel": 4,
      "note": 60,
      "start": 10.8632,
      "duration": 0.0607,
      "velocity": 78,
      "chip": "ym2612"
    },
    {
      "channel": 3,
      "note": 70,
      "start": 10.9602,
      "duration": 0.097,
      "velocity": 118,
      "chip": "ym2612"
    },
    {
      "channel": 2,
      "note": 57,
      "start": 10.9633,
      "duration": 0.0441,
      "velocity": 118,
      "chip": "ym2612"
    },
    {
      "channel": 0,
      "note": 48,
      "start": 10.9665,
      "duration": 0.1739,
      "velocity": 127,
      "chip": "ym2612"
    },
    {
      "channel": 1,
      "note": 60,
      "start": 10.9696,
      "duration": 0.0543,
      "velocity": 78,
      "chip": "ym2612"
    },
    {
      "channel": 3,
      "note": 72,
      "start": 11.0602,
      "duration": 0.1137,
      "velocity": 118,
      "chip": "ym2612"
    },
    {
      "channel": 3,
      "note": 60,
      "start": 11.177,
      "duration": 0.0969,
      "velocity": 118,
      "chip": "ym2612"
    },
    {
      "channel": 2,
      "note": 57,
      "start": 11.1805,
      "duration": 0.0436,
      "velocity": 118,
      "chip": "ym2612"
    },
    {
      "channel": 0,
      "note": 51,
      "start": 11.1833,
      "duration": 0.1905,
      "velocity": 127,
      "chip": "ym2612"
    },
    {
      "channel": 4,
      "note": 60,
      "start": 11.1865,
      "duration": 0.0542,
      "velocity": 78,
      "chip": "ym2612"
    },
    {
      "channel": 3,
      "note": 67,
      "start": 11.2769,
      "duration": 0.1137,
      "velocity": 118,
      "chip": "ym2612"
    },
    {
      "channel": 3,
      "note": 70,
      "start": 11.3936,
      "duration": 0.0969,
      "velocity": 118,
      "chip": "ym2612"
    },
    {
      "channel": 0,
      "note": 48,
      "start": 11.3963,
      "duration": 0.1941,
      "velocity": 127,
      "chip": "ym2612"
    },
    {
      "channel": 1,
      "note": 60,
      "start": 11.399,
      "duration": 0.0583,
      "velocity": 78,
      "chip": "ym2612"
    },
    {
      "channel": 3,
      "note": 72,
      "start": 11.4936,
      "duration": 0.1136,
      "velocity": 118,
      "chip": "ym2612"
    },
    {
      "channel": 3,
      "note": 79,
      "start": 11.6102,
      "duration": 0.097,
      "velocity": 118,
      "chip": "ym2612"
    },
    {
      "channel": 0,
      "note": 51,
      "start": 11.613,
      "duration": 0.2107,
      "velocity": 127,
      "chip": "ym2612"
    },
    {
      "channel": 4,
      "note": 60,
      "start": 11.6159,
      "duration": 0.058,
      "velocity": 78,
      "chip": "ym2612"
    },
    {
      "channel": 3,
      "note": 67,
      "start": 11.7103,
      "duration": 0.1137,
      "velocity": 118,
      "chip": "ym2612"
    },
    {
      "channel": 1,
      "note": 60,
      "start": 11.713,
      "duration": 0.0609,
      "velocity": 78,
      "chip": "ym2612"
    },
    {
      "channel": 3,
      "note": 70,
      "start": 11.827,
      "duration": 0.0969,
      "velocity": 118,
      "chip": "ym2612"
    },
    {
      "channel": 2,
      "note": 57,
      "start": 11.8301,
      "duration": 0.0439,
      "velocity": 118,
      "chip": "ym2612"
    },
    {
      "channel": 0,
      "note": 53,
      "start": 11.8327,
      "duration": 0.2077,
      "velocity": 127,
      "chip": "ym2612"
    },
    {
      "channel": 3,
      "note": 72,
      "start": 11.927,
      "duration": 0.1137,
      "velocity": 118,
      "chip": "ym2612"
    },
    {
      "channel": 4,
      "note": 60,
      "start": 11.9299,
      "duration": 0.0607,
      "velocity": 78,
      "chip": "ym2612"
    },
    {
      "channel": 3,
      "note": 60,
      "start": 12.0437,
      "duration": 0.0968,
      "velocity": 118,
      "chip": "ym2612"
    },
    {
      "channel": 2,
      "note": 57,
      "start": 12.0468,
      "duration": 0.0439,
      "velocity": 118,
      "chip": "ym2612"
    },
    {
      "channel": 0,
      "note": 43,
      "start": 12.0497,
      "duration": 0.4075,
      "velocity": 127,
      "chip": "ym2612"
    },
    {
      "channel": 1,
      "note": 60,
      "start": 12.0522,
      "duration": 0.055,
      "velocity": 78,
      "chip": "ym2612"
    },
    {
      "channel": 3,
      "note": 67,
      "start": 12.1435,
      "duration": 0.0971,
      "velocity": 118,
      "chip": "ym2612"
    },
    {
      "channel": 3,
      "note": 70,
      "start": 12.244,
      "duration": 0.1131,
      "velocity": 118,
      "chip": "ym2612"
    },
    {
      "channel": 4,
      "note": 60,
      "start": 12.2469,
      "duration": 0.077,
      "velocity": 78,
      "chip": "ym2612"
    },
    {
      "channel": 3,
      "note": 72,
      "start": 12.3602,
      "duration": 0.0972,
      "velocity": 118,
      "chip": "ym2612"
    },
    {
      "channel": 1,
      "note": 60,
      "start": 12.3629,
      "duration": 0.0609,
      "velocity": 78,
      "chip": "ym2612"
    },
    {
      "channel": 3,
      "note": 79,
      "start": 12.4604,
      "duration": 0.1136,
      "velocity": 118,
      "chip": "ym2612"
    },
    {
      "channel": 3,
      "note": 67,
      "start": 12.577,
      "duration": 0.0969,
      "velocity": 118,
      "chip": "ym2612"
    },
    {
      "channel": 4,
      "note": 60,
      "start": 12.5799,
      "duration": 0.0607,
      "velocity": 78,
      "chip": "ym2612"
    },
    {
      "channel": 3,
      "note": 70,
      "start": 12.677,
      "duration": 0.1136,
      "velocity": 118,
      "chip": "ym2612"
    },
    {
      "channel": 2,
      "note": 57,
      "start": 12.6801,
      "duration": 0.0439,
      "velocity": 118,
      "chip": "ym2612"
    },
    {
      "channel": 0,
      "note": 43,
      "start": 12.6829,
      "duration": 0.1908,
      "velocity": 127,
      "chip": "ym2612"
    },
    {
      "channel": 1,
      "note": 60,
      "start": 12.6856,
      "duration": 0.0714,
      "velocity": 78,
      "chip": "ym2612"
    },
    {
      "channel": 3,
      "note": 72,
      "start": 12.7935,
      "duration": 0.097,
      "velocity": 118,
      "chip": "ym2612"
    },
    {
      "channel": 3,
      "note": 60,
      "start": 12.8936,
      "duration": 0.1136,
      "velocity": 118,
      "chip": "ym2612"
    },
    {
      "channel": 2,
      "note": 57,
      "start": 12.8967,
      "duration": 0.044,
      "velocity": 118,
      "chip": "ym2612"
    },
    {
      "channel": 0,
      "note": 46,
      "start": 12.8994,
      "duration": 0.0577,
      "velocity": 127,
      "chip": "ym2612"
    },
    {
      "channel": 4,
      "note": 60,
      "start": 12.9023,
      "duration": 0.0551,
      "velocity": 78,
      "chip": "ym2612"
    },
    {
      "channel": 3,
      "note": 67,
      "start": 13.0102,
      "duration": 0.097,
      "velocity": 118,
      "chip": "ym2612"
    },
    {
      "channel": 3,
      "note": 70,
      "start": 13.1102,
      "duration": 0.1136,
      "velocity": 118,
      "chip": "ym2612"
    },
    {
      "channel": 0,
      "note": 46,
      "start": 13.1129,
      "duration": 0.0609,
      "velocity": 127,
      "chip": "ym2612"
    },
    {
      "channel": 1,
      "note": 60,
      "start": 13.1156,
      "duration": 0.0584,
      "velocity": 78,
      "chip": "ym2612"
    },
    {
      "channel": 3,
      "note": 72,
      "start": 13.2268,
      "duration": 0.0971,
      "velocity": 118,
      "chip": "ym2612"
    },
    {
      "channel": 3,
      "note": 79,
      "start": 13.3269,
      "duration": 0.0969,
      "velocity": 118,
      "chip": "ym2612"
    },
    {
      "channel": 0,
      "note": 46,
      "start": 13.3303,
      "duration": 0.41,
      "velocity": 127,
      "chip": "ym2612"
    },
    {
      "channel": 4,
      "note": 60,
      "start": 13.3332,
      "duration": 0.0574,
      "velocity": 78,
      "chip": "ym2612"
    },
    {
      "channel": 3,
      "note": 67,
      "start": 13.4268,
      "duration": 0.1137,
      "velocity": 118,
      "chip": "ym2612"
    },
    {
      "channel": 1,
      "note": 60,
      "start": 13.4296,
      "duration": 0.0777,
      "velocity": 78,
      "chip": "ym2612"
    },
    {
      "channel": 3,
      "note": 70,
      "start": 13.5436,
      "duration": 0.097,
      "velocity": 118,
      "chip": "ym2612"
    },
    {
      "channel": 3,
      "note": 72,
      "start": 13.6435,
      "duration": 0.1137,
      "velocity": 118,
      "chip": "ym2612"
    },
    {
      "channel": 4,
      "note": 60,
      "start": 13.6465,
      "duration": 0.0774,
      "velocity": 78,
      "chip": "ym2612"
    },
    {
      "channel": 3,
      "note": 60,
      "start": 13.7602,
      "duration": 0.0969,
      "velocity": 118,
      "chip": "ym2612"
    },
    {
      "channel": 2,
      "note": 57,
      "start": 13.7634,
      "duration": 0.0441,
      "velocity": 118,
      "chip": "ym2612"
    },
    {
      "channel": 0,
      "note": 48,
      "start": 13.7663,
      "duration": 0.4574,
      "velocity": 127,
      "chip": "ym2612"
    },
    {
      "channel": 1,
      "note": 60,
      "start": 13.7688,
      "duration": 0.0551,
      "velocity": 78,
      "chip": "ym2612"
    },
    {
      "channel": 3,
      "note": 67,
      "start": 13.8602,
      "duration": 0.1137,
      "velocity": 118,
      "chip": "ym2612"
    },
    {
      "channel": 3,
      "note": 70,
      "start": 13.9773,
      "duration": 0.0966,
      "velocity": 118,
      "chip": "ym2612"
    },
    {
      "channel": 4,
      "note": 60,
      "start": 13.9803,
      "duration": 0.0603,
      "velocity": 78,
      "chip": "ym2612"
    },
    {
      "channel": 3,
      "note": 72,
      "start": 14.0769,
      "duration": 0.1137,
      "velocity": 118,
      "chip": "ym2612"
    },
    {
      "channel": 1,
      "note": 60,
      "start": 14.0796,
      "duration": 0.0609,
      "velocity": 78,
      "chip": "ym2612"
    },
    {
      "channel": 3,
      "note": 79,
      "start": 14.1936,
      "duration": 0.0971,
      "velocity": 118,
      "chip": "ym2612"
    },
    {
      "channel": 3,
      "note": 67,
      "start": 14.2936,
      "duration": 0.1136,
      "velocity": 118,
      "chip": "ym2612"
    },
    {
      "channel": 4,
      "note": 60,
      "start": 14.2966,
      "duration": 0.0606,
      "velocity": 78,
      "chip": "ym2612"
    },
    {
      "channel": 3,
      "note": 70,
      "start": 14.4102,
      "duration": 0.097,
      "velocity": 118,
      "chip": "ym2612"
    },
    {
      "channel": 2,
      "note": 57,
      "start": 14.4134,
      "duration": 0.0441,
      "velocity": 118,
      "chip": "ym2612"
    },
    {
      "channel": 0,
      "note": 48,
      "start": 14.4162,
      "duration": 0.1575,
      "velocity": 127,
      "chip": "ym2612"
    },
    {
      "channel": 1,
      "note": 60,
      "start": 14.4189,
      "duration": 0.055,
      "velocity": 78,
      "chip": "ym2612"
    },
    {
      "channel": 3,
      "note": 72,
      "start": 14.5102,
      "duration": 0.0971,
      "velocity": 118,
      "chip": "ym2612"
    },
    {
      "channel": 3,
      "note": 60,
      "start": 14.6103,
      "duration": 0.1135,
      "velocity": 118,
      "chip": "ym2612"
    },
    {
      "channel": 2,
      "note": 57,
      "start": 14.6134,
      "duration": 0.0606,
      "velocity": 118,
      "chip": "ym2612"
    },
    {
      "channel": 0,
      "note": 51,
      "start": 14.6161,
      "duration": 0.2078,
      "velocity": 127,
      "chip": "ym2612"
    },
    {
      "channel": 4,
      "note": 60,
      "start": 14.619,
      "duration": 0.0716,
      "velocity": 78,
      "chip": "ym2612"
    },
    {
      "channel": 3,
      "note": 67,
      "start": 14.7269,
      "duration": 0.0971,
      "velocity": 118,
      "chip": "ym2612"
    },
    {
      "channel": 3,
      "note": 70,
      "start": 14.8271,
      "duration": 0.1135,
      "velocity": 118,
      "chip": "ym2612"
    },
    {
      "channel": 0,
      "note": 48,
      "start": 14.8298,
      "duration": 0.2106,
      "velocity": 127,
      "chip": "ym2612"
    },
    {
      "channel": 1,
      "note": 60,
      "start": 14.8328,
      "duration": 0.0744,
      "velocity": 78,
      "chip": "ym2612"
    },
    {
      "channel": 3,
      "note": 72,
      "start": 14.9436,
      "duration": 0.097,
      "velocity": 118,
      "chip": "ym2612"
    },
    {
      "channel": 3,
      "note": 79,
      "start": 15.0436,
      "duration": 0.1137,
      "velocity": 118,
      "chip": "ym2612"
    },
    {
      "channel": 0,
      "note": 51,
      "start": 15.0463,
      "duration": 0.2108,
      "velocity": 127,
      "chip": "ym2612"
    },
    {
      "channel": 4,
      "note": 60,
      "start": 15.0495,
      "duration": 0.0744,
      "velocity": 78,
      "chip": "ym2612"
    },
    {
      "channel": 3,
      "note": 67,
      "start": 15.1603,
      "duration": 0.0971,
      "velocity": 118,
      "chip": "ym2612"
    },
    {
      "channel": 1,
      "note": 60,
      "start": 15.163,
      "duration": 0.0607,
      "velocity": 78,
      "chip": "ym2612"
    },
    {
      "channel": 3,
      "note": 70,
      "start": 15.2604,
      "duration": 0.1135,
      "velocity": 118,
      "chip": "ym2612"
    },
    {
      "channel": 2,
      "note": 57,
      "start": 15.2639,
      "duration": 0.0435,
      "velocity": 118,
      "chip": "ym2612"
    },
    {
      "channel": 0,
      "note": 53,
      "start": 15.2666,
      "duration": 0.1906,
      "velocity": 127,
      "chip": "ym2612"
    },
    {
      "channel": 3,
      "note": 72,
      "start": 15.377,
      "duration": 0.0969,
      "velocity": 118,
      "chip": "ym2612"
    },
    {
      "channel": 4,
      "note": 60,
      "start": 15.3799,
      "duration": 0.0607,
      "velocity": 78,
      "chip": "ym2612"
    },
    {
      "channel": 3,
      "note": 60,
      "start": 15.4769,
      "duration": 0.1137,
      "velocity": 118,
      "chip": "ym2612"
    },
    {
      "channel": 2,
      "note": 57,
      "start": 15.48,
      "duration": 0.0441,
      "velocity": 118,
      "chip": "ym2612"
    },
    {
      "channel": 0,
      "note": 44,
      "start": 15.4833,
      "duration": 0.4071,
      "velocity": 127,
      "chip": "ym2612"
    },
    {
      "channel": 1,
      "note": 60,
      "start": 15.4858,
      "duration": 0.0548,
      "velocity": 78,
      "chip": "ym2612"
    },
    {
      "channel": 3,
      "note": 67,
      "start": 15.5936,
      "duration": 0.097,
      "velocity": 118,
      "chip": "ym2612"
    },
    {
      "channel": 3,
      "note": 70,
      "start": 15.6939,
      "duration": 0.0966,
      "velocity": 118,
      "chip": "ym2612"
    },
    {
      "channel": 4,
      "note": 60,
      "start": 15.6969,
      "duration": 0.0605,
      "velocity": 78,
      "chip": "ym2612"
    },
    {
      "channel": 3,
      "note": 72,
      "start": 15.7936,
      "duration": 0.1137,
      "velocity": 118,
      "chip": "ym2612"
    },
    {
      "channel": 1,
      "note": 60,
      "start": 15.7962,
      "duration": 0.0776,
      "velocity": 78,
      "chip": "ym2612"
    },
    {
      "channel": 3,
      "note": 79,
      "start": 15.9103,
      "duration": 0.0969,
      "velocity": 118,
      "chip": "ym2612"
    },
    {
      "channel": 3,
      "note": 67,
      "start": 16.0103,
      "duration": 0.1136,
      "velocity": 118,
      "chip": "ym2612"
    },
    {
      "channel": 4,
      "note": 60,
      "start": 16.0132,
      "duration": 0.0774,
      "velocity": 78,
      "chip": "ym2612"
    },
    {
      "channel": 3,
      "note": 70,
      "start": 16.1269,
      "duration": 0.097,
      "velocity": 118,
      "chip": "ym2612"
    },
    {
      "channel": 2,
      "note": 57,
      "start": 16.13,
      "duration": 0.0441,
      "velocity": 118,
      "chip": "ym2612"
    },
    {
      "channel": 0,
      "note": 44,
      "start": 16.1329,
      "duration": 0.2075,
      "velocity": 127,
      "chip": "ym2612"
    },
    {
      "channel": 1,
      "note": 60,
      "start": 16.1356,
      "duration": 0.055,
      "velocity": 78,
      "chip": "ym2612"
    },
    {
      "channel": 3,
      "note": 72,
      "start": 16.2268,
      "duration": 0.1138,
      "velocity": 118,
      "chip": "ym2612"
    },
    {
      "channel": 3,
      "note": 60,
      "start": 16.3436,
      "duration": 0.0969,
      "velocity": 118,
      "chip": "ym2612"
    },
    {
      "channel": 2,
      "note": 57,
      "start": 16.3468,
      "duration": 0.0439,
      "velocity": 118,
      "chip": "ym2612"
    },
    {
      "channel": 0,
      "note": 46,
      "start": 16.3495,
      "duration": 0.0576,
      "velocity": 127,
      "chip": "ym2612"
    },
    {
      "channel": 4,
      "note": 60,
      "start": 16.3523,
      "duration": 0.055,
      "velocity": 78,
      "chip": "ym2612"
    },
    {
      "channel": 3,
      "note": 67,
      "start": 16.4436,
      "duration": 0.1136,
      "velocity": 118,
      "chip": "ym2612"
    },
    {
      "channel": 3,
      "note": 70,
      "start": 16.5603,
      "duration": 0.097,
      "velocity": 118,
      "chip": "ym2612"
    },
    {
      "channel": 0,
      "note": 46,
      "start": 16.563,
      "duration": 0.0609,
      "velocity": 127,
      "chip": "ym2612"
    },
    {
      "channel": 1,
      "note": 60,
      "start": 16.5656,
      "duration": 0.0583,
      "velocity": 78,
      "chip": "ym2612"
    },
    {
      "channel": 3,
      "note": 72,
      "start": 16.6603,
      "duration": 0.0969,
      "velocity": 118,
      "chip": "ym2612"
    },
    {
      "channel": 3,
      "note": 79,
      "start": 16.7602,
      "duration": 0.1137,
      "velocity": 118,
      "chip": "ym2612"
    },
    {
      "channel": 0,
      "note": 46,
      "start": 16.7633,
      "duration": 0.3606,
      "velocity": 127,
      "chip": "ym2612"
    },
    {
      "channel": 4,
      "note": 60,
      "start": 16.7661,
      "duration": 0.0744,
      "velocity": 78,
      "chip": "ym2612"
    },
    {
      "channel": 3,
      "note": 67,
      "start": 16.877,
      "duration": 0.0969,
      "velocity": 118,
      "chip": "ym2612"
    },
    {
      "channel": 1,
      "note": 60,
      "start": 16.8797,
      "duration": 0.0609,
      "velocity": 78,
      "chip": "ym2612"
    },
    {
      "channel": 3,
      "note": 70,
      "start": 16.9769,
      "duration": 0.1136,
      "velocity": 118,
      "chip": "ym2612"
    },
    {
      "channel": 3,
      "note": 72,
      "start": 17.0938,
      "duration": 0.0968,
      "velocity": 118,
      "chip": "ym2612"
    },
    {
      "channel": 4,
      "note": 60,
      "start": 17.0968,
      "duration": 0.0604,
      "velocity": 78,
      "chip": "ym2612"
    },
    {
      "channel": 2,
      "note": 57,
      "start": 17.1942,
      "duration": 0.0632,
      "velocity": 118,
      "chip": "ym2612"
    },
    {
      "channel": 0,
      "note": 53,
      "start": 17.1971,
      "duration": 0.4766,
      "velocity": 127,
      "chip": "ym2612"
    },
    {
      "channel": 1,
      "note": 65,
      "start": 17.1995,
      "duration": 0.0744,
      "velocity": 78,
      "chip": "ym2612"
    },
    {
      "channel": 5,
      "note": 84,
      "start": 17.2048,
      "duration": 0.1026,
      "velocity": 117,
      "chip": "ym2612"
    },
    {
      "channel": 5,
      "note": 82,
      "start": 17.3112,
      "duration": 0.0961,
      "velocity": 117,
      "chip": "ym2612"
    },
    {
      "channel": 4,
      "note": 65,
      "start": 17.4106,
      "duration": 0.08,
      "velocity": 78,
      "chip": "ym2612"
    },
    {
      "channel": 5,
      "note": 80,
      "start": 17.4136,
      "duration": 0.1104,
      "velocity": 117,
      "chip": "ym2612"
    },
    {
      "channel": 1,
      "note": 65,
      "start": 17.5271,
      "duration": 0.0634,
      "velocity": 78,
      "chip": "ym2612"
    },
    {
      "channel": 5,
      "note": 79,
      "start": 17.5306,
      "duration": 0.0934,
      "velocity": 117,
      "chip": "ym2612"
    },
    {
      "channel": 5,
      "note": 82,
      "start": 17.6278,
      "duration": 0.1128,
      "velocity": 117,
      "chip": "ym2612"
    },
    {
      "channel": 4,
      "note": 65,
      "start": 17.744,
      "duration": 0.0632,
      "velocity": 78,
      "chip": "ym2612"
    },
    {
      "channel": 5,
      "note": 80,
      "start": 17.747,
      "duration": 0.0936,
      "velocity": 117,
      "chip": "ym2612"
    },
    {
      "channel": 2,
      "note": 57,
      "start": 17.8441,
      "duration": 0.0467,
      "velocity": 118,
      "chip": "ym2612"
    },
    {
      "channel": 0,
      "note": 53,
      "start": 17.8474,
      "duration": 0.1764,
      "velocity": 127,
      "chip": "ym2612"
    },
    {
      "channel": 1,
      "note": 65,
      "start": 17.85,
      "duration": 0.0572,
      "velocity": 78,
      "chip": "ym2612"
    },
    {
      "channel": 5,
      "note": 79,
      "start": 17.8532,
      "duration": 0.0874,
      "velocity": 117,
      "chip": "ym2612"
    },
    {
      "channel": 5,
      "note": 77,
      "start": 17.9445,
      "duration": 0.1128,
      "velocity": 117,
      "chip": "ym2612"
    },
    {
      "channel": 2,
      "note": 57,
      "start": 18.0607,
      "duration": 0.0466,
      "velocity": 118,
      "chip": "ym2612"
    },
    {
      "channel": 0,
      "note": 56,
      "start": 18.0635,
      "duration": 0.1936,
      "velocity": 127,
      "chip": "ym2612"
    },
    {
      "channel": 4,
      "note": 65,
      "start": 18.0664,
      "duration": 0.0576,
      "velocity": 78,
      "chip": "ym2612"
    },
    {
      "channel": 5,
      "note": 80,
      "start": 18.0694,
      "duration": 0.0879,
      "velocity": 117,
      "chip": "ym2612"
    },
    {
      "channel": 5,
      "note": 79,
      "start": 18.1611,
      "duration": 0.1128,
      "velocity": 117,
      "chip": "ym2612"
    },
    {
      "channel": 0,
      "note": 53,
      "start": 18.277,
      "duration": 0.1968,
      "velocity": 127,
      "chip": "ym2612"
    },
    {
      "channel": 1,
      "note": 65,
      "start": 18.2796,
      "duration": 0.0609,
      "velocity": 78,
      "chip": "ym2612"
    },
    {
      "channel": 5,
      "note": 77,
      "start": 18.2827,
      "duration": 0.0912,
      "velocity": 117,
      "chip": "ym2612"
    },
    {
      "channel": 5,
      "note": 75,
      "start": 18.3778,
      "duration": 0.1129,
      "velocity": 117,
      "chip": "ym2612"
    },
    {
      "channel": 0,
      "note": 56,
      "start": 18.4939,
      "duration": 0.2133,
      "velocity": 127,
      "chip": "ym2612"
    },
    {
      "channel": 4,
      "note": 65,
      "start": 18.4968,
      "duration": 0.0604,
      "velocity": 78,
      "chip": "ym2612"
    },
    {
      "channel": 5,
      "note": 79,
      "start": 18.4998,
      "duration": 0.0909,
      "velocity": 117,
      "chip": "ym2612"
    },
    {
      "channel": 1,
      "note": 65,
      "start": 18.5938,
      "duration": 0.08,
      "velocity": 78,
      "chip": "ym2612"
    },
    {
      "channel": 5,
      "note": 77,
      "start": 18.5969,
      "duration": 0.1106,
      "velocity": 117,
      "chip": "ym2612"
    },
    {
      "channel": 2,
      "note": 57,
      "start": 18.7109,
      "duration": 0.0465,
      "velocity": 118,
      "chip": "ym2612"
    },
    {
      "channel": 0,
      "note": 58,
      "start": 18.7135,
      "duration": 0.2102,
      "velocity": 127,
      "chip": "ym2612"
    },
    {
      "channel": 5,
      "note": 75,
      "start": 18.7167,
      "duration": 0.0907,
      "velocity": 117,
      "chip": "ym2612"
    },
    {
      "channel": 4,
      "note": 65,
      "start": 18.8107,
      "duration": 0.0633,
      "velocity": 78,
      "chip": "ym2612"
    },
    {
      "channel": 5,
      "note": 74,
      "start": 18.814,
      "duration": 0.1101,
      "velocity": 117,
      "chip": "ym2612"
    },
    {
      "channel": 2,
      "note": 57,
      "start": 18.9279,
      "duration": 0.0462,
      "velocity": 118,
      "chip": "ym2612"
    },
    {
      "channel": 0,
      "note": 48,
      "start": 18.9308,
      "duration": 0.4096,
      "velocity": 127,
      "chip": "ym2612"
    },
    {
      "channel": 1,
      "note": 65,
      "start": 18.9337,
      "duration": 0.0569,
      "velocity": 78,
      "chip": "ym2612"
    },
    {
      "channel": 3,
      "note": 75,
      "start": 18.9389,
      "duration": 0.1017,
      "velocity": 117,
      "chip": "ym2612"
    },
    {
      "channel": 4,
      "note": 74,
      "start": 19.0278,
      "duration": 0.1293,
      "velocity": 117,
      "chip": "ym2612"
    },
    {
      "channel": 5,
      "note": 65,
      "start": 19.1277,
      "duration": 0.0797,
      "velocity": 78,
      "chip": "ym2612"
    },
    {
      "channel": 3,
      "note": 77,
      "start": 19.1307,
      "duration": 0.1265,
      "velocity": 117,
      "chip": "ym2612"
    },
    {
      "channel": 1,
      "note": 65,
      "start": 19.2436,
      "duration": 0.0635,
      "velocity": 78,
      "chip": "ym2612"
    },
    {
      "channel": 4,
      "note": 75,
      "start": 19.2471,
      "duration": 0.1102,
      "velocity": 117,
      "chip": "ym2612"
    },
    {
      "channel": 3,
      "note": 79,
      "start": 19.3445,
      "duration": 0.1294,
      "velocity": 117,
      "chip": "ym2612"
    },
    {
      "channel": 5,
      "note": 65,
      "start": 19.4606,
      "duration": 0.0634,
      "velocity": 78,
      "chip": "ym2612"
    },
    {
      "channel": 4,
      "note": 77,
      "start": 19.4637,
      "duration": 0.1104,
      "velocity": 117,
      "chip": "ym2612"
    },
    {
      "channel": 2,
      "note": 57,
      "start": 19.5607,
      "duration": 0.0634,
      "velocity": 118,
      "chip": "ym2612"
    },
    {
      "channel": 0,
      "note": 48,
      "start": 19.5635,
      "duration": 0.1935,
      "velocity": 127,
      "chip": "ym2612"
    },
    {
      "channel": 1,
      "note": 65,
      "start": 19.5662,
      "duration": 0.0743,
      "velocity": 78,
      "chip": "ym2612"
    },
    {
      "channel": 3,
      "note": 80,
      "start": 19.5693,
      "duration": 0.1212,
      "velocity": 117,
      "chip": "ym2612"
    },
    {
      "channel": 4,
      "note": 79,
      "start": 19.6777,
      "duration": 0.1128,
      "velocity": 117,
      "chip": "ym2612"
    },
    {
      "channel": 2,
      "note": 57,
      "start": 19.7773,
      "duration": 0.0468,
      "velocity": 118,
      "chip": "ym2612"
    },
    {
      "channel": 0,
      "note": 51,
      "start": 19.7801,
      "duration": 0.077,
      "velocity": 127,
      "chip": "ym2612"
    },
    {
      "channel": 5,
      "note": 65,
      "start": 19.783,
      "duration": 0.0744,
      "velocity": 78,
      "chip": "ym2612"
    },
    {
      "channel": 3,
      "note": 82,
      "start": 19.786,
      "duration": 0.1213,
      "velocity": 117,
      "chip": "ym2612"
    },
    {
      "channel": 4,
      "note": 80,
      "start": 19.8945,
      "duration": 0.1128,
      "velocity": 117,
      "chip": "ym2612"
    },
    {
      "channel": 0,
      "note": 51,
      "start": 19.9936,
      "duration": 0.0636,
      "velocity": 127,
      "chip": "ym2612"
    },
    {
      "channel": 1,
      "note": 65,
      "start": 19.9962,
      "duration": 0.0611,
      "velocity": 78,
      "chip": "ym2612"
    },
    {
      "channel": 3,
      "note": 84,
      "start": 19.9994,
      "duration": 0.1245,
      "velocity": 117,
      "chip": "ym2612"
    },
    {
      "channel": 4,
      "note": 82,
      "start": 20.1111,
      "duration": 0.1128,
      "velocity": 117,
      "chip": "ym2612"
    },
    {
      "channel": 0,
      "note": 51,
      "start": 20.2111,
      "duration": 0.4128,
      "velocity": 127,
      "chip": "ym2612"
    },
    {
      "channel": 5,
      "note": 65,
      "start": 20.214,
      "duration": 0.06,
      "velocity": 78,
      "chip": "ym2612"
    },
    {
      "channel": 3,
      "note": 85,
      "start": 20.217,
      "duration": 0.1236,
      "velocity": 117,
      "chip": "ym2612"
    },
    {
      "channel": 1,
      "note": 65,
      "start": 20.3104,
      "duration": 0.0802,
      "velocity": 78,
      "chip": "ym2612"
    },
    {
      "channel": 4,
      "note": 84,
      "start": 20.3135,
      "duration": 0.127,
      "velocity": 117,
      "chip": "ym2612"
    },
    {
      "channel": 3,
      "note": 87,
      "start": 20.4277,
      "duration": 0.1128,
      "velocity": 117,
      "chip": "ym2612"
    },
    {
      "channel": 5,
      "note": 65,
      "start": 20.5273,
      "duration": 0.0801,
      "velocity": 78,
      "chip": "ym2612"
    },
    {
      "channel": 4,
      "note": 85,
      "start": 20.5303,
      "duration": 0.1273,
      "velocity": 117,
      "chip": "ym2612"
    },
    {
      "channel": 2,
      "note": 57,
      "start": 20.6441,
      "duration": 0.0467,
      "velocity": 118,
      "chip": "ym2612"
    },
    {
      "channel": 0,
      "note": 53,
      "start": 20.647,
      "duration": 0.46,
      "velocity": 127,
      "chip": "ym2612"
    },
    {
      "channel": 1,
      "note": 65,
      "start": 20.6495,
      "duration": 0.0578,
      "velocity": 78,
      "chip": "ym2612"
    },
    {
      "channel": 3,
      "note": 84,
      "start": 20.6532,
      "duration": 0.0874,
      "velocity": 117,
      "chip": "ym2612"
    },
    {
      "channel": 5,
      "note": 87,
      "start": 20.656,
      "duration": 0.1013,
      "velocity": 117,
      "chip": "ym2612"
    },
    {
      "channel": 3,
      "note": 82,
      "start": 20.7444,
      "duration": 0.1129,
      "velocity": 117,
      "chip": "ym2612"
    },
    {
      "channel": 4,
      "note": 85,
      "start": 20.7471,
      "duration": 0.1268,
      "velocity": 117,
      "chip": "ym2612"
    },
    {
      "channel": 2,
      "note": 65,
      "start": 20.8609,
      "duration": 0.0632,
      "velocity": 78,
      "chip": "ym2612"
    },
    {
      "channel": 3,
      "note": 80,
      "start": 20.8638,
      "duration": 0.0934,
      "velocity": 117,
      "chip": "ym2612"
    },
    {
      "channel": 5,
      "note": 84,
      "start": 20.8665,
      "duration": 0.1074,
      "velocity": 117,
      "chip": "ym2612"
    },
    {
      "channel": 1,
      "note": 65,
      "start": 20.9604,
      "duration": 0.0634,
      "velocity": 78,
      "chip": "ym2612"
    },
    {
      "channel": 3,
      "note": 79,
      "start": 20.9634,
      "duration": 0.1104,
      "velocity": 117,
      "chip": "ym2612"
    },
    {
      "channel": 4,
      "note": 82,
      "start": 20.9665,
      "duration": 0.1242,
      "velocity": 117,
      "chip": "ym2612"
    },
    {
      "channel": 3,
      "note": 82,
      "start": 21.0777,
      "duration": 0.0962,
      "velocity": 117,
      "chip": "ym2612"
    },
    {
      "channel": 5,
      "note": 80,
      "start": 21.0804,
      "duration": 0.1102,
      "velocity": 117,
      "chip": "ym2612"
    },
    {
      "channel": 2,
      "note": 65,
      "start": 21.1775,
      "duration": 0.0633,
      "velocity": 78,
      "chip": "ym2612"
    },
    {
      "channel": 3,
      "note": 80,
      "start": 21.1804,
      "duration": 0.1102,
      "velocity": 117,
      "chip": "ym2612"
    },
    {
      "channel": 4,
      "note": 79,
      "start": 21.1831,
      "duration": 0.1243,
      "velocity": 117,
      "chip": "ym2612"
    },
    {
      "channel": 1,
      "note": 57,
      "start": 21.2941,
      "duration": 0.0463,
      "velocity": 118,
      "chip": "ym2612"
    },
    {
      "channel": 0,
      "note": 53,
      "start": 21.297,
      "duration": 0.1601,
      "velocity": 127,
      "chip": "ym2612"
    },
    {
      "channel": 5,
      "note": 65,
      "start": 21.2999,
      "duration": 0.0574,
      "velocity": 78,
      "chip": "ym2612"
    },
    {
      "channel": 3,
      "note": 79,
      "start": 21.3029,
      "duration": 0.0875,
      "velocity": 117,
      "chip": "ym2612"
    },
    {
      "channel": 2,
      "note": 82,
      "start": 21.3058,
      "duration": 0.1017,
      "velocity": 117,
      "chip": "ym2612"
    },
    {
      "channel": 3,
      "note": 77,
      "start": 21.3943,
      "duration": 0.0962,
      "velocity": 117,
      "chip": "ym2612"
    },
    {
      "channel": 4,
      "note": 80,
      "start": 21.3971,
      "duration": 0.1268,
      "velocity": 117,
      "chip": "ym2612"
    },
    {
      "channel": 1,
      "note": 57,
      "start": 21.4938,
      "duration": 0.0633,
      "velocity": 118,
      "chip": "ym2612"
    },
    {
      "channel": 0,
      "note": 56,
      "start": 21.4966,
      "duration": 0.2106,
      "velocity": 127,
      "chip": "ym2612"
    },
    {
      "channel": 5,
      "note": 65,
      "start": 21.4995,
      "duration": 0.0745,
      "velocity": 78,
      "chip": "ym2612"
    },
    {
      "channel": 3,
      "note": 80,
      "start": 21.5025,
      "duration": 0.1047,
      "velocity": 117,
      "chip": "ym2612"
    },
    {
      "channel": 2,
      "note": 79,
      "start": 21.5053,
      "duration": 0.1188,
      "velocity": 117,
      "chip": "ym2612"
    },
    {
      "channel": 3,
      "note": 79,
      "start": 21.611,
      "duration": 0.0964,
      "velocity": 117,
      "chip": "ym2612"
    },
    {
      "channel": 4,
      "note": 77,
      "start": 21.6137,
      "duration": 0.1102,
      "velocity": 117,
      "chip": "ym2612"
    },
    {
      "channel": 0,
      "note": 53,
      "start": 21.7105,
      "duration": 0.2132,
      "velocity": 127,
      "chip": "ym2612"
    },
    {
      "channel": 1,
      "note": 65,
      "start": 21.7134,
      "duration": 0.077,
      "velocity": 78,
      "chip": "ym2612"
    },
    {
      "channel": 3,
      "note": 77,
      "start": 21.7163,
      "duration": 0.1076,
      "velocity": 117,
      "chip": "ym2612"
    },
    {
      "channel": 2,
      "note": 80,
      "start": 21.7192,
      "duration": 0.1215,
      "velocity": 117,
      "chip": "ym2612"
    },
    {
      "channel": 3,
      "note": 75,
      "start": 21.8277,
      "duration": 0.0962,
      "velocity": 117,
      "chip": "ym2612"
    },
    {
      "channel": 4,
      "note": 79,
      "start": 21.8305,
      "duration": 0.1101,
      "velocity": 117,
      "chip": "ym2612"
    },
    {
      "channel": 0,
      "note": 56,
      "start": 21.9271,
      "duration": 0.2133,
      "velocity": 127,
      "chip": "ym2612"
    },
    {
      "channel": 5,
      "note": 65,
      "start": 21.93,
      "duration": 0.0773,
      "velocity": 78,
      "chip": "ym2612"
    },
    {
      "channel": 3,
      "note": 79,
      "start": 21.9329,
      "duration": 0.1077,
      "velocity": 117,
      "chip": "ym2612"
    },
    {
      "channel": 2,
      "note": 77,
      "start": 21.9357,
      "duration": 0.1217,
      "velocity": 117,
      "chip": "ym2612"
    },
    {
      "channel": 1,
      "note": 65,
      "start": 22.0441,
      "duration": 0.0631,
      "velocity": 78,
      "chip": "ym2612"
    },
    {
      "channel": 3,
      "note": 77,
      "start": 22.0471,
      "duration": 0.0934,
      "velocity": 117,
      "chip": "ym2612"
    },
    {
      "channel": 4,
      "note": 75,
      "start": 22.0498,
      "duration": 0.1075,
      "velocity": 117,
      "chip": "ym2612"
    },
    {
      "channel": 5,
      "note": 57,
      "start": 22.1443,
      "duration": 0.0463,
      "velocity": 118,
      "chip": "ym2612"
    },
    {
      "channel": 0,
      "note": 58,
      "start": 22.1478,
      "duration": 0.1927,
      "velocity": 127,
      "chip": "ym2612"
    },
    {
      "channel": 3,
      "note": 75,
      "start": 22.1509,
      "duration": 0.1063,
      "velocity": 117,
      "chip": "ym2612"
    },
    {
      "channel": 2,
      "note": 79,
      "start": 22.1537,
      "duration": 0.1204,
      "velocity": 117,
      "chip": "ym2612"
    },
    {
      "channel": 1,
      "note": 65,
      "start": 22.2611,
      "duration": 0.0627,
      "velocity": 78,
      "chip": "ym2612"
    },
    {
      "channel": 3,
      "note": 74,
      "start": 22.2639,
      "duration": 0.0933,
      "velocity": 117,
      "chip": "ym2612"
    },
    {
      "channel": 4,
      "note": 77,
      "start": 22.2666,
      "duration": 0.1074,
      "velocity": 117,
      "chip": "ym2612"
    },
    {
      "channel": 3,
      "note": 75,
      "start": 22.3615,
      "duration": 0.1123,
      "velocity": 117,
      "chip": "ym2612"
    },
    {
      "channel": 2,
      "note": 75,
      "start": 22.3643,
      "duration": 0.1264,
      "velocity": 117,
      "chip": "ym2612"
    },
    {
      "channel": 3,
      "note": 74,
      "start": 22.4776,
      "duration": 0.0963,
      "velocity": 117,
      "chip": "ym2612"
    },
    {
      "channel": 4,
      "note": 74,
      "start": 22.4803,
      "duration": 0.1102,
      "velocity": 117,
      "chip": "ym2612"
    },
    {
      "channel": 3,
      "note": 77,
      "start": 22.5777,
      "duration": 0.0962,
      "velocity": 117,
      "chip": "ym2612"
    },
    {
      "channel": 2,
      "note": 75,
      "start": 22.5806,
      "duration": 0.1268,
      "velocity": 117,
      "chip": "ym2612"
    },
    {
      "channel": 3,
      "note": 75,
      "start": 22.6777,
      "duration": 0.1127,
      "velocity": 117,
      "chip": "ym2612"
    },
    {
      "channel": 4,
      "note": 74,
      "start": 22.6808,
      "duration": 0.1265,
      "velocity": 117,
      "chip": "ym2612"
    },
    {
      "channel": 3,
      "note": 79,
      "start": 22.7943,
      "duration": 0.0962,
      "velocity": 117,
      "chip": "ym2612"
    },
    {
      "channel": 2,
      "note": 77,
      "start": 22.7972,
      "duration": 0.1102,
      "velocity": 117,
      "chip": "ym2612"
    },
    {
      "channel": 3,
      "note": 77,
      "start": 22.8943,
      "duration": 0.1129,
      "velocity": 117,
      "chip": "ym2612"
    },
    {
      "channel": 4,
      "note": 75,
      "start": 22.8971,
      "duration": 0.1269,
      "velocity": 117,
      "chip": "ym2612"
    },
    {
      "channel": 3,
      "note": 80,
      "start": 23.011,
      "duration": 0.0962,
      "velocity": 117,
      "chip": "ym2612"
    },
    {
      "channel": 2,
      "note": 79,
      "start": 23.0139,
      "duration": 0.1102,
      "velocity": 117,
      "chip": "ym2612"
    },
    {
      "channel": 3,
      "note": 79,
      "start": 23.1111,
      "duration": 0.1128,
      "velocity": 117,
      "chip": "ym2612"
    },
    {
      "channel": 4,
      "note": 77,
      "start": 23.1138,
      "duration": 0.1268,
      "velocity": 117,
      "chip": "ym2612"
    },
    {
      "channel": 3,
      "note": 82,
      "start": 23.2277,
      "duration": 0.0962,
      "velocity": 117,
      "chip": "ym2612"
    },
    {
      "channel": 2,
      "note": 80,
      "start": 23.2307,
      "duration": 0.11,
      "velocity": 117,
      "chip": "ym2612"
    },
    {
      "channel": 3,
      "note": 80,
      "start": 23.3277,
      "duration": 0.1128,
      "velocity": 117,
      "chip": "ym2612"
    },
    {
      "channel": 4,
      "note": 79,
      "start": 23.3305,
      "duration": 0.1268,
      "velocity": 117,
      "chip": "ym2612"
    },
    {
      "channel": 3,
      "note": 84,
      "start": 23.4444,
      "duration": 0.0962,
      "velocity": 117,
      "chip": "ym2612"
    },
    {
      "channel": 2,
      "note": 82,
      "start": 23.4473,
      "duration": 0.11,
      "velocity": 117,
      "chip": "ym2612"
    },
    {
      "channel": 3,
      "note": 82,
      "start": 23.5444,
      "duration": 0.1128,
      "velocity": 117,
      "chip": "ym2612"
    },
    {
      "channel": 4,
      "note": 80,
      "start": 23.5471,
      "duration": 0.1268,
      "velocity": 117,
      "chip": "ym2612"
    },
    {
      "channel": 3,
      "note": 85,
      "start": 23.6611,
      "duration": 0.0961,
      "velocity": 117,
      "chip": "ym2612"
    },
    {
      "channel": 2,
      "note": 84,
      "start": 23.6639,
      "duration": 0.1102,
      "velocity": 117,
      "chip": "ym2612"
    },
    {
      "channel": 3,
      "note": 84,
      "start": 23.761,
      "duration": 0.0961,
      "velocity": 117,
      "chip": "ym2612"
    },
    {
      "channel": 4,
      "note": 82,
      "start": 23.7637,
      "duration": 0.1268,
      "velocity": 117,
      "chip": "ym2612"
    },
    {
      "channel": 3,
      "note": 87,
      "start": 23.861,
      "duration": 0.1129,
      "velocity": 117,
      "chip": "ym2612"
    },
    {
      "channel": 2,
      "note": 85,
      "start": 23.8639,
      "duration": 0.1268,
      "velocity": 117,
      "chip": "ym2612"
    },
    {
      "channel": 3,
      "note": 85,
      "start": 23.9784,
      "duration": 0.0954,
      "velocity": 117,
      "chip": "ym2612"
    },
    {
      "channel": 4,
      "note": 84,
      "start": 23.9812,
      "duration": 0.1126,
      "velocity": 117,
      "chip": "ym2612"
    },
    {
      "channel": 5,
      "note": 60,
      "start": 24.0775,
      "duration": 0.1131,
      "velocity": 118,
      "chip": "ym2612"
    },
    {
      "channel": 1,
      "note": 57,
      "start": 24.081,
      "duration": 0.0595,
      "velocity": 118,
      "chip": "ym2612"
    },
    {
      "channel": 0,
      "note": 48,
      "start": 24.0839,
      "duration": 0.4732,
      "velocity": 127,
      "chip": "ym2612"
    },
    {
      "channel": 2,
      "note": 72,
      "start": 24.089,
      "duration": 0.0849,
      "velocity": 117,
      "chip": "ym2612"
    },
    {
      "channel": 3,
      "note": 87,
      "start": 24.0922,
      "duration": 0.115,
      "velocity": 117,
      "chip": "ym2612"
    },
    {
      "channel": 5,
      "note": 67,
      "start": 24.1936,
      "duration": 0.097,
      "velocity": 118,
      "chip": "ym2612"
    },
    {
      "channel": 4,
      "note": 85,
      "start": 24.1978,
      "duration": 0.1095,
      "velocity": 117,
      "chip": "ym2612"
    },
    {
      "channel": 5,
      "note": 70,
      "start": 24.2937,
      "duration": 0.1136,
      "velocity": 118,
      "chip": "ym2612"
    },
    {
      "channel": 5,
      "note": 72,
      "start": 24.4103,
      "duration": 0.0971,
      "velocity": 118,
      "chip": "ym2612"
    },
    {
      "channel": 1,
      "note": 72,
      "start": 24.4158,
      "duration": 0.0748,
      "velocity": 117,
      "chip": "ym2612"
    },
    {
      "channel": 5,
      "note": 79,
      "start": 24.5104,
      "duration": 0.1136,
      "velocity": 118,
      "chip": "ym2612"
    },
    {
      "channel": 5,
      "note": 67,
      "start": 24.6271,
      "duration": 0.0969,
      "velocity": 118,
      "chip": "ym2612"
    },
    {
      "channel": 5,
      "note": 70,
      "start": 24.727,
      "duration": 0.1137,
      "velocity": 118,
      "chip": "ym2612"
    },
    {
      "channel": 2,
      "note": 57,
      "start": 24.7301,
      "duration": 0.0439,
      "velocity": 118,
      "chip": "ym2612"
    },
    {
      "channel": 0,
      "note": 48,
      "start": 24.733,
      "duration": 0.174,
      "velocity": 127,
      "chip": "ym2612"
    },
    {
      "channel": 3,
      "note": 72,
      "start": 24.7363,
      "duration": 0.071,
      "velocity": 117,
      "chip": "ym2612"
    },
    {
      "channel": 5,
      "note": 72,
      "start": 24.8437,
      "duration": 0.097,
      "velocity": 118,
      "chip": "ym2612"
    },
    {
      "channel": 5,
      "note": 60,
      "start": 24.9437,
      "duration": 0.0969,
      "velocity": 118,
      "chip": "ym2612"
    },
    {
      "channel": 2,
      "note": 57,
      "start": 24.9468,
      "duration": 0.0439,
      "velocity": 118,
      "chip": "ym2612"
    },
    {
      "channel": 0,
      "note": 51,
      "start": 24.9495,
      "duration": 0.1908,
      "velocity": 127,
      "chip": "ym2612"
    },
    {
      "channel": 3,
      "note": 75,
      "start": 24.9529,
      "duration": 0.0709,
      "velocity": 117,
      "chip": "ym2612"
    },
    {
      "channel": 5,
      "note": 67,
      "start": 25.0436,
      "duration": 0.1137,
      "velocity": 118,
      "chip": "ym2612"
    },
    {
      "channel": 1,
      "note": 72,
      "start": 25.0471,
      "duration": 0.0934,
      "velocity": 117,
      "chip": "ym2612"
    },
    {
      "channel": 5,
      "note": 70,
      "start": 25.1604,
      "duration": 0.0969,
      "velocity": 118,
      "chip": "ym2612"
    },
    {
      "channel": 0,
      "note": 48,
      "start": 25.1631,
      "duration": 0.194,
      "velocity": 127,
      "chip": "ym2612"
    },
    {
      "channel": 3,
      "note": 72,
      "start": 25.166,
      "duration": 0.0746,
      "velocity": 117,
      "chip": "ym2612"
    },
    {
      "channel": 5,
      "note": 72,
      "start": 25.2604,
      "duration": 0.1136,
      "velocity": 118,
      "chip": "ym2612"
    },
    {
      "channel": 1,
      "note": 75,
      "start": 25.2641,
      "duration": 0.0931,
      "velocity": 117,
      "chip": "ym2612"
    },
    {
      "channel": 5,
      "note": 79,
      "start": 25.3771,
      "duration": 0.0969,
      "velocity": 118,
      "chip": "ym2612"
    },
    {
      "channel": 0,
      "note": 51,
      "start": 25.3799,
      "duration": 0.2106,
      "velocity": 127,
      "chip": "ym2612"
    },
    {
      "channel": 3,
      "note": 75,
      "start": 25.3829,
      "duration": 0.0744,
      "velocity": 117,
      "chip": "ym2612"
    },
    {
      "channel": 5,
      "note": 67,
      "start": 25.4771,
      "duration": 0.1137,
      "velocity": 118,
      "chip": "ym2612"
    },
    {
      "channel": 1,
      "note": 72,
      "start": 25.4803,
      "duration": 0.0935,
      "velocity": 117,
      "chip": "ym2612"
    },
    {
      "channel": 5,
      "note": 70,
      "start": 25.5938,
      "duration": 0.0969,
      "velocity": 118,
      "chip": "ym2612"
    },
    {
      "channel": 2,
      "note": 57,
      "start": 25.5969,
      "duration": 0.0439,
      "velocity": 118,
      "chip": "ym2612"
    },
    {
      "channel": 0,
      "note": 53,
      "start": 25.5995,
      "duration": 0.2076,
      "velocity": 127,
      "chip": "ym2612"
    },
    {
      "channel": 3,
      "note": 77,
      "start": 25.6024,
      "duration": 0.0715,
      "velocity": 117,
      "chip": "ym2612"
    },
    {
      "channel": 5,
      "note": 72,
      "start": 25.6941,
      "duration": 0.1134,
      "velocity": 118,
      "chip": "ym2612"
    },
    {
      "channel": 1,
      "note": 75,
      "start": 25.6973,
      "duration": 0.0932,
      "velocity": 117,
      "chip": "ym2612"
    },
    {
      "channel": 5,
      "note": 60,
      "start": 25.8105,
      "duration": 0.0969,
      "velocity": 118,
      "chip": "ym2612"
    },
    {
      "channel": 2,
      "note": 57,
      "start": 25.8136,
      "duration": 0.0438,
      "velocity": 118,
      "chip": "ym2612"
    },
    {
      "channel": 0,
      "note": 43,
      "start": 25.8165,
      "duration": 0.4072,
      "velocity": 127,
      "chip": "ym2612"
    },
    {
      "channel": 3,
      "note": 67,
      "start": 25.8196,
      "duration": 0.0709,
      "velocity": 117,
      "chip": "ym2612"
    },
    {
      "channel": 5,
      "note": 67,
      "start": 25.9104,
      "duration": 0.1135,
      "velocity": 118,
      "chip": "ym2612"
    },
    {
      "channel": 1,
      "note": 77,
      "start": 25.9137,
      "duration": 0.0769,
      "velocity": 117,
      "chip": "ym2612"
    },
    {
      "channel": 5,
      "note": 70,
      "start": 26.027,
      "duration": 0.097,
      "velocity": 118,
      "chip": "ym2612"
    },
    {
      "channel": 5,
      "note": 72,
      "start": 26.1271,
      "duration": 0.0969,
      "velocity": 118,
      "chip": "ym2612"
    },
    {
      "channel": 1,
      "note": 67,
      "start": 26.1305,
      "duration": 0.0766,
      "velocity": 117,
      "chip": "ym2612"
    },
    {
      "channel": 5,
      "note": 79,
      "start": 26.2271,
      "duration": 0.1135,
      "velocity": 118,
      "chip": "ym2612"
    },
    {
      "channel": 5,
      "note": 67,
      "start": 26.3436,
      "duration": 0.097,
      "velocity": 118,
      "chip": "ym2612"
    },
    {
      "channel": 5,
      "note": 70,
      "start": 26.4437,
      "duration": 0.1136,
      "velocity": 118,
      "chip": "ym2612"
    },
    {
      "channel": 2,
      "note": 57,
      "start": 26.4468,
      "duration": 0.0606,
      "velocity": 118,
      "chip": "ym2612"
    },
    {
      "channel": 0,
      "note": 43,
      "start": 26.4501,
      "duration": 0.1903,
      "velocity": 127,
      "chip": "ym2612"
    },
    {
      "channel": 3,
      "note": 67,
      "start": 26.4532,
      "duration": 0.0873,
      "velocity": 117,
      "chip": "ym2612"
    },
    {
      "channel": 5,
      "note": 72,
      "start": 26.5604,
      "duration": 0.097,
      "velocity": 118,
      "chip": "ym2612"
    },
    {
      "channel": 5,
      "note": 60,
      "start": 26.6604,
      "duration": 0.1136,
      "velocity": 118,
      "chip": "ym2612"
    },
    {
      "channel": 2,
      "note": 57,
      "start": 26.6635,
      "duration": 0.0439,
      "velocity": 118,
      "chip": "ym2612"
    },
    {
      "channel": 0,
      "note": 46,
      "start": 26.6662,
      "duration": 0.0742,
      "velocity": 127,
      "chip": "ym2612"
    },
    {
      "channel": 3,
      "note": 70,
      "start": 26.6692,
      "duration": 0.088,
      "velocity": 117,
      "chip": "ym2612"
    },
    {
      "channel": 5,
      "note": 67,
      "start": 26.777,
      "duration": 0.0971,
      "velocity": 118,
      "chip": "ym2612"
    },
    {
      "channel": 1,
      "note": 67,
      "start": 26.7805,
      "duration": 0.0767,
      "velocity": 117,
      "chip": "ym2612"
    },
    {
      "channel": 5,
      "note": 70,
      "start": 26.8771,
      "duration": 0.1135,
      "velocity": 118,
      "chip": "ym2612"
    },
    {
      "channel": 0,
      "note": 46,
      "start": 26.8798,
      "duration": 0.0607,
      "velocity": 127,
      "chip": "ym2612"
    },
    {
      "channel": 3,
      "note": 70,
      "start": 26.8827,
      "duration": 0.0912,
      "velocity": 117,
      "chip": "ym2612"
    },
    {
      "channel": 5,
      "note": 72,
      "start": 26.9937,
      "duration": 0.0969,
      "velocity": 118,
      "chip": "ym2612"
    },
    {
      "channel": 1,
      "note": 70,
      "start": 26.9969,
      "duration": 0.0768,
      "velocity": 117,
      "chip": "ym2612"
    },
    {
      "channel": 5,
      "note": 79,
      "start": 27.0937,
      "duration": 0.1136,
      "velocity": 118,
      "chip": "ym2612"
    },
    {
      "channel": 0,
      "note": 46,
      "start": 27.0967,
      "duration": 0.4104,
      "velocity": 127,
      "chip": "ym2612"
    },
    {
      "channel": 3,
      "note": 70,
      "start": 27.0998,
      "duration": 0.0741,
      "velocity": 117,
      "chip": "ym2612"
    },
    {
      "channel": 5,
      "note": 67,
      "start": 27.2103,
      "duration": 0.0969,
      "velocity": 118,
      "chip": "ym2612"
    },
    {
      "channel": 1,
      "note": 70,
      "start": 27.2136,
      "duration": 0.0769,
      "velocity": 117,
      "chip": "ym2612"
    },
    {
      "channel": 5,
      "note": 70,
      "start": 27.3103,
      "duration": 0.097,
      "velocity": 118,
      "chip": "ym2612"
    },
    {
      "channel": 5,
      "note": 72,
      "start": 27.4107,
      "duration": 0.1134,
      "velocity": 118,
      "chip": "ym2612"
    },
    {
      "channel": 1,
      "note": 70,
      "start": 27.4142,
      "duration": 0.0931,
      "velocity": 117,
      "chip": "ym2612"
    },
    {
      "channel": 5,
      "note": 60,
      "start": 27.5271,
      "duration": 0.0969,
      "velocity": 118,
      "chip": "ym2612"
    },
    {
      "channel": 2,
      "note": 57,
      "start": 27.5302,
      "duration": 0.0438,
      "velocity": 118,
      "chip": "ym2612"
    },
    {
      "channel": 0,
      "note": 48,
      "start": 27.5331,
      "duration": 0.4574,
      "velocity": 127,
      "chip": "ym2612"
    },
    {
      "channel": 3,
      "note": 72,
      "start": 27.5362,
      "duration": 0.0709,
      "velocity": 117,
      "chip": "ym2612"
    },
    {
      "channel": 5,
      "note": 67,
      "start": 27.627,
      "duration": 0.1136,
      "velocity": 118,
      "chip": "ym2612"
    },
    {
      "channel": 5,
      "note": 70,
      "start": 27.7436,
      "duration": 0.0971,
      "velocity": 118,
      "chip": "ym2612"
    },
    {
      "channel": 5,
      "note": 72,
      "start": 27.8438,
      "duration": 0.1136,
      "velocity": 118,
      "chip": "ym2612"
    },
    {
      "channel": 1,
      "note": 72,
      "start": 27.8472,
      "duration": 0.0933,
      "velocity": 117,
      "chip": "ym2612"
    },
    {
      "channel": 5,
      "note": 79,
      "start": 27.9604,
      "duration": 0.097,
      "velocity": 118,
      "chip": "ym2612"
    },
    {
      "channel": 5,
      "note": 67,
      "start": 28.0604,
      "duration": 0.1135,
      "velocity": 118,
      "chip": "ym2612"
    },
    {
      "channel": 5,
      "note": 70,
      "start": 28.177,
      "duration": 0.0969,
      "velocity": 118,
      "chip": "ym2612"
    },
    {
      "channel": 2,
      "note": 57,
      "start": 28.1805,
      "duration": 0.0435,
      "velocity": 118,
      "chip": "ym2612"
    },
    {
      "channel": 0,
      "note": 48,
      "start": 28.1834,
      "duration": 0.157,
      "velocity": 127,
      "chip": "ym2612"
    },
    {
      "channel": 3,
      "note": 72,
      "start": 28.1866,
      "duration": 0.0705,
      "velocity": 117,
      "chip": "ym2612"
    },
    {
      "channel": 5,
      "note": 72,
      "start": 28.277,
      "duration": 0.1138,
      "velocity": 118,
      "chip": "ym2612"
    },
    {
      "channel": 5,
      "note": 60,
      "start": 28.3938,
      "duration": 0.0969,
      "velocity": 118,
      "chip": "ym2612"
    },
    {
      "channel": 2,
      "note": 57,
      "start": 28.3969,
      "duration": 0.0438,
      "velocity": 118,
      "chip": "ym2612"
    },
    {
      "channel": 0,
      "note": 51,
      "start": 28.4,
      "duration": 0.1905,
      "velocity": 127,
      "chip": "ym2612"
    },
    {
      "channel": 3,
      "note": 75,
      "start": 28.4034,
      "duration": 0.0705,
      "velocity": 117,
      "chip": "ym2612"
    },
    {
      "channel": 5,
      "note": 67,
      "start": 28.4936,
      "duration": 0.0971,
      "velocity": 118,
      "chip": "ym2612"
    },
    {
      "channel": 1,
      "note": 72,
      "start": 28.4971,
      "duration": 0.0768,
      "velocity": 117,
      "chip": "ym2612"
    },
    {
      "channel": 5,
      "note": 70,
      "start": 28.5938,
      "duration": 0.1136,
      "velocity": 118,
      "chip": "ym2612"
    },
    {
      "channel": 0,
      "note": 48,
      "start": 28.5965,
      "duration": 0.2106,
      "velocity": 127,
      "chip": "ym2612"
    },
    {
      "channel": 3,
      "note": 72,
      "start": 28.5995,
      "duration": 0.0912,
      "velocity": 117,
      "chip": "ym2612"
    },
    {
      "channel": 5,
      "note": 72,
      "start": 28.7104,
      "duration": 0.097,
      "velocity": 118,
      "chip": "ym2612"
    },
    {
      "channel": 1,
      "note": 75,
      "start": 28.7141,
      "duration": 0.0765,
      "velocity": 117,
      "chip": "ym2612"
    },
    {
      "channel": 5,
      "note": 79,
      "start": 28.8105,
      "duration": 0.1136,
      "velocity": 118,
      "chip": "ym2612"
    },
    {
      "channel": 0,
      "note": 51,
      "start": 28.8132,
      "duration": 0.2107,
      "velocity": 127,
      "chip": "ym2612"
    },
    {
      "channel": 3,
      "note": 75,
      "start": 28.8161,
      "duration": 0.0912,
      "velocity": 117,
      "chip": "ym2612"
    },
    {
      "channel": 5,
      "note": 67,
      "start": 28.927,
      "duration": 0.0971,
      "velocity": 118,
      "chip": "ym2612"
    },
    {
      "channel": 1,
      "note": 72,
      "start": 28.9303,
      "duration": 0.0769,
      "velocity": 117,
      "chip": "ym2612"
    },
    {
      "channel": 5,
      "note": 70,
      "start": 29.0272,
      "duration": 0.1134,
      "velocity": 118,
      "chip": "ym2612"
    },
    {
      "channel": 2,
      "note": 57,
      "start": 29.0303,
      "duration": 0.0438,
      "velocity": 118,
      "chip": "ym2612"
    },
    {
      "channel": 0,
      "note": 53,
      "start": 29.0331,
      "duration": 0.1907,
      "velocity": 127,
      "chip": "ym2612"
    },
    {
      "channel": 3,
      "note": 77,
      "start": 29.036,
      "duration": 0.0879,
      "velocity": 117,
      "chip": "ym2612"
    },
    {
      "channel": 5,
      "note": 72,
      "start": 29.1441,
      "duration": 0.0966,
      "velocity": 118,
      "chip": "ym2612"
    },
    {
      "channel": 1,
      "note": 75,
      "start": 29.1473,
      "duration": 0.0766,
      "velocity": 117,
      "chip": "ym2612"
    },
    {
      "channel": 5,
      "note": 60,
      "start": 29.2437,
      "duration": 0.1137,
      "velocity": 118,
      "chip": "ym2612"
    },
    {
      "channel": 2,
      "note": 57,
      "start": 29.2468,
      "duration": 0.0439,
      "velocity": 118,
      "chip": "ym2612"
    },
    {
      "channel": 0,
      "note": 44,
      "start": 29.2497,
      "duration": 0.4075,
      "velocity": 127,
      "chip": "ym2612"
    },
    {
      "channel": 3,
      "note": 68,
      "start": 29.2528,
      "duration": 0.0877,
      "velocity": 117,
      "chip": "ym2612"
    },
    {
      "channel": 5,
      "note": 67,
      "start": 29.3604,
      "duration": 0.097,
      "velocity": 118,
      "chip": "ym2612"
    },
    {
      "channel": 1,
      "note": 77,
      "start": 29.3637,
      "duration": 0.0769,
      "velocity": 117,
      "chip": "ym2612"
    },
    {
      "channel": 5,
      "note": 70,
      "start": 29.4604,
      "duration": 0.0968,
      "velocity": 118,
      "chip": "ym2612"
    },
    {
      "channel": 5,
      "note": 72,
      "start": 29.5604,
      "duration": 0.1136,
      "velocity": 118,
      "chip": "ym2612"
    },
    {
      "channel": 1,
      "note": 68,
      "start": 29.5638,
      "duration": 0.0935,
      "velocity": 117,
      "chip": "ym2612"
    },
    {
      "channel": 5,
      "note": 79,
      "start": 29.677,
      "duration": 0.0969,
      "velocity": 118,
      "chip": "ym2612"
    },
    {
      "channel": 5,
      "note": 67,
      "start": 29.777,
      "duration": 0.1136,
      "velocity": 118,
      "chip": "ym2612"
    },
    {
      "channel": 5,
      "note": 70,
      "start": 29.8936,
      "duration": 0.097,
      "velocity": 118,
      "chip": "ym2612"
    },
    {
      "channel": 2,
      "note": 57,
      "start": 29.8968,
      "duration": 0.044,
      "velocity": 118,
      "chip": "ym2612"
    },
    {
      "channel": 0,
      "note": 44,
      "start": 29.8997,
      "duration": 0.2074,
      "velocity": 127,
      "chip": "ym2612"
    },
    {
      "channel": 3,
      "note": 68,
      "start": 29.9028,
      "duration": 0.0711,
      "velocity": 117,
      "chip": "ym2612"
    },
    {
      "channel": 5,
      "note": 72,
      "start": 29.9937,
      "duration": 0.1137,
      "velocity": 118,
      "chip": "ym2612"
    },
    {
      "channel": 5,
      "note": 60,
      "start": 30.1104,
      "duration": 0.0969,
      "velocity": 118,
      "chip": "ym2612"
    },
    {
      "channel": 2,
      "note": 57,
      "start": 30.1135,
      "duration": 0.0439,
      "velocity": 118,
      "chip": "ym2612"
    },
    {
      "channel": 0,
      "note": 46,
      "start": 30.1163,
      "duration": 0.0575,
      "velocity": 127,
      "chip": "ym2612"
    },
    {
      "channel": 3,
      "note": 70,
      "start": 30.1192,
      "duration": 0.0714,
      "velocity": 117,
      "chip": "ym2612"
    },
    {
      "channel": 5,
      "note": 67,
      "start": 30.2104,
      "duration": 0.1136,
      "velocity": 118,
      "chip": "ym2612"
    },
    {
      "channel": 1,
      "note": 68,
      "start": 30.2139,
      "duration": 0.0933,
      "velocity": 117,
      "chip": "ym2612"
    },
    {
      "channel": 5,
      "note": 70,
      "start": 30.3271,
      "duration": 0.0969,
      "velocity": 118,
      "chip": "ym2612"
    },
    {
      "channel": 0,
      "note": 46,
      "start": 30.3298,
      "duration": 0.0606,
      "velocity": 127,
      "chip": "ym2612"
    },
    {
      "channel": 3,
      "note": 70,
      "start": 30.3327,
      "duration": 0.0745,
      "velocity": 117,
      "chip": "ym2612"
    },
    {
      "channel": 5,
      "note": 72,
      "start": 30.427,
      "duration": 0.1136,
      "velocity": 118,
      "chip": "ym2612"
    },
    {
      "channel": 1,
      "note": 70,
      "start": 30.4303,
      "duration": 0.0934,
      "velocity": 117,
      "chip": "ym2612"
    },
    {
      "channel": 5,
      "note": 79,
      "start": 30.5437,
      "duration": 0.0969,
      "velocity": 118,
      "chip": "ym2612"
    },
    {
      "channel": 0,
      "note": 46,
      "start": 30.5471,
      "duration": 0.3433,
      "velocity": 127,
      "chip": "ym2612"
    },
    {
      "channel": 3,
      "note": 70,
      "start": 30.5502,
      "duration": 0.0737,
      "velocity": 117,
      "chip": "ym2612"
    },
    {
      "channel": 5,
      "note": 67,
      "start": 30.6437,
      "duration": 0.0969,
      "velocity": 118,
      "chip": "ym2612"
    },
    {
      "channel": 1,
      "note": 70,
      "start": 30.6469,
      "duration": 0.0768,
      "velocity": 117,
      "chip": "ym2612"
    },
    {
      "channel": 5,
      "note": 70,
      "start": 30.7437,
      "duration": 0.1137,
      "velocity": 118,
      "chip": "ym2612"
    },
    {
      "channel": 5,
      "note": 72,
      "start": 30.8607,
      "duration": 0.0966,
      "velocity": 118,
      "chip": "ym2612"
    },
    {
      "channel": 1,
      "note": 70,
      "start": 30.8642,
      "duration": 0.0763,
      "velocity": 117,
      "chip": "ym2612"
    },
    {
      "channel": 5,
      "note": 60,
      "start": 30.9604,
      "duration": 0.1135,
      "velocity": 118,
      "chip": "ym2612"
    },
    {
      "channel": 2,
      "note": 57,
      "start": 30.9635,
      "duration": 0.0606,
      "velocity": 118,
      "chip": "ym2612"
    },
    {
      "channel": 0,
      "note": 48,
      "start": 30.9664,
      "duration": 0.4741,
      "velocity": 127,
      "chip": "ym2612"
    },
    {
      "channel": 3,
      "note": 72,
      "start": 30.9695,
      "duration": 0.0877,
      "velocity": 117,
      "chip": "ym2612"
    },
    {
      "channel": 5,
      "note": 67,
      "start": 31.077,
      "duration": 0.097,
      "velocity": 118,
      "chip": "ym2612"
    },
    {
      "channel": 5,
      "note": 70,
      "start": 31.177,
      "duration": 0.1137,
      "velocity": 118,
      "chip": "ym2612"
    },
    {
      "channel": 5,
      "note": 72,
      "start": 31.2938,
      "duration": 0.0969,
      "velocity": 118,
      "chip": "ym2612"
    },
    {
      "channel": 1,
      "note": 72,
      "start": 31.2972,
      "duration": 0.0766,
      "velocity": 117,
      "chip": "ym2612"
    },
    {
      "channel": 5,
      "note": 79,
      "start": 31.3937,
      "duration": 0.1137,
      "velocity": 118,
      "chip": "ym2612"
    },
    {
      "channel": 5,
      "note": 67,
      "start": 31.5104,
      "duration": 0.0968,
      "velocity": 118,
      "chip": "ym2612"
    },
    {
      "channel": 5,
      "note": 70,
      "start": 31.6103,
      "duration": 0.1137,
      "velocity": 118,
      "chip": "ym2612"
    },
    {
      "channel": 2,
      "note": 57,
      "start": 31.6134,
      "duration": 0.044,
      "velocity": 118,
      "chip": "ym2612"
    },
    {
      "channel": 0,
      "note": 48,
      "start": 31.6163,
      "duration": 0.174,
      "velocity": 127,
      "chip": "ym2612"
    },
    {
      "channel": 3,
      "note": 72,
      "start": 31.6195,
      "duration": 0.0711,
      "velocity": 117,
      "chip": "ym2612"
    },
    {
      "channel": 5,
      "note": 72,
      "start": 31.7271,
      "duration": 0.0969,
      "velocity": 118,
      "chip": "ym2612"
    },
    {
      "channel": 5,
      "note": 60,
      "start": 31.8271,
      "duration": 0.0969,
      "velocity": 118,
      "chip": "ym2612"
    },
    {
      "channel": 2,
      "note": 57,
      "start": 31.8305,
      "duration": 0.0436,
      "velocity": 118,
      "chip": "ym2612"
    },
    {
      "channel": 0,
      "note": 51,
      "start": 31.8333,
      "duration": 0.1905,
      "velocity": 127,
      "chip": "ym2612"
    },
    {
      "channel": 3,
      "note": 75,
      "start": 31.8366,
      "duration": 0.0707,
      "velocity": 117,
      "chip": "ym2612"
    },
    {
      "channel": 5,
      "note": 67,
      "start": 31.9271,
      "duration": 0.1136,
      "velocity": 118,
      "chip": "ym2612"
    },
    {
      "channel": 1,
      "note": 72,
      "start": 31.9305,
      "duration": 0.0934,
      "velocity": 117,
      "chip": "ym2612"
    },
    {
      "channel": 5,
      "note": 70,
      "start": 32.0438,
      "duration": 0.0969,
      "velocity": 118,
      "chip": "ym2612"
    },
    {
      "channel": 0,
      "note": 48,
      "start": 32.0464,
      "duration": 0.194,
      "velocity": 127,
      "chip": "ym2612"
    },
    {
      "channel": 3,
      "note": 72,
      "start": 32.0494,
      "duration": 0.0745,
      "velocity": 117,
      "chip": "ym2612"
    },
    {
      "channel": 5,
      "note": 72,
      "start": 32.1437,
      "duration": 0.1136,
      "velocity": 118,
      "chip": "ym2612"
    },
    {
      "channel": 1,
      "note": 75,
      "start": 32.1473,
      "duration": 0.0932,
      "velocity": 117,
      "chip": "ym2612"
    },
    {
      "channel": 5,
      "note": 79,
      "start": 32.2604,
      "duration": 0.097,
      "velocity": 118,
      "chip": "ym2612"
    },
    {
      "channel": 0,
      "note": 51,
      "start": 32.2632,
      "duration": 0.2106,
      "velocity": 127,
      "chip": "ym2612"
    },
    {
      "channel": 3,
      "note": 75,
      "start": 32.2661,
      "duration": 0.0745,
      "velocity": 117,
      "chip": "ym2612"
    },
    {
      "channel": 5,
      "note": 67,
      "start": 32.3604,
      "duration": 0.1136,
      "velocity": 118,
      "chip": "ym2612"
    },
    {
      "channel": 1,
      "note": 72,
      "start": 32.3637,
      "duration": 0.0934,
      "velocity": 117,
      "chip": "ym2612"
    },
    {
      "channel": 5,
      "note": 70,
      "start": 32.4771,
      "duration": 0.0969,
      "velocity": 118,
      "chip": "ym2612"
    },
    {
      "channel": 2,
      "note": 57,
      "start": 32.4802,
      "duration": 0.0439,
      "velocity": 118,
      "chip": "ym2612"
    },
    {
      "channel": 0,
      "note": 53,
      "start": 32.4828,
      "duration": 0.2076,
      "velocity": 127,
      "chip": "ym2612"
    },
    {
      "channel": 3,
      "note": 77,
      "start": 32.4857,
      "duration": 0.0715,
      "velocity": 117,
      "chip": "ym2612"
    },
    {
      "channel": 5,
      "note": 72,
      "start": 32.5774,
      "duration": 0.1133,
      "velocity": 118,
      "chip": "ym2612"
    },
    {
      "channel": 1,
      "note": 75,
      "start": 32.5807,
      "duration": 0.0931,
      "velocity": 117,
      "chip": "ym2612"
    },
    {
      "channel": 5,
      "note": 60,
      "start": 32.6938,
      "duration": 0.0969,
      "velocity": 118,
      "chip": "ym2612"
    },
    {
      "channel": 2,
      "note": 57,
      "start": 32.6969,
      "duration": 0.0439,
      "velocity": 118,
      "chip": "ym2612"
    },
    {
      "channel": 0,
      "note": 43,
      "start": 32.6998,
      "duration": 0.4073,
      "velocity": 127,
      "chip": "ym2612"
    },
    {
      "channel": 3,
      "note": 67,
      "start": 32.7029,
      "duration": 0.071,
      "velocity": 117,
      "chip": "ym2612"
    },
    {
      "channel": 5,
      "note": 67,
      "start": 32.7938,
      "duration": 0.1135,
      "velocity": 118,
      "chip": "ym2612"
    },
    {
      "channel": 1,
      "note": 77,
      "start": 32.797,
      "duration": 0.0769,
      "velocity": 117,
      "chip": "ym2612"
    },
    {
      "channel": 5,
      "note": 70,
      "start": 32.9104,
      "duration": 0.097,
      "velocity": 118,
      "chip": "ym2612"
    },
    {
      "channel": 5,
      "note": 72,
      "start": 33.0104,
      "duration": 0.097,
      "velocity": 118,
      "chip": "ym2612"
    },
    {
      "channel": 1,
      "note": 67,
      "start": 33.0139,
      "duration": 0.0767,
      "velocity": 117,
      "chip": "ym2612"
    },
    {
      "channel": 5,
      "note": 79,
      "start": 33.1105,
      "duration": 0.1135,
      "velocity": 118,
      "chip": "ym2612"
    },
    {
      "channel": 5,
      "note": 67,
      "start": 33.227,
      "duration": 0.097,
      "velocity": 118,
      "chip": "ym2612"
    },
    {
      "channel": 5,
      "note": 70,
      "start": 33.3271,
      "duration": 0.1135,
      "velocity": 118,
      "chip": "ym2612"
    },
    {
      "channel": 2,
      "note": 57,
      "start": 33.3302,
      "duration": 0.0605,
      "velocity": 118,
      "chip": "ym2612"
    },
    {
      "channel": 0,
      "note": 43,
      "start": 33.3334,
      "duration": 0.1903,
      "velocity": 127,
      "chip": "ym2612"
    },
    {
      "channel": 3,
      "note": 67,
      "start": 33.3366,
      "duration": 0.0873,
      "velocity": 117,
      "chip": "ym2612"
    },
    {
      "channel": 5,
      "note": 72,
      "start": 33.4436,
      "duration": 0.0969,
      "velocity": 118,
      "chip": "ym2612"
    },
    {
      "channel": 5,
      "note": 60,
      "start": 33.5436,
      "duration": 0.1137,
      "velocity": 118,
      "chip": "ym2612"
    },
    {
      "channel": 2,
      "note": 57,
      "start": 33.5467,
      "duration": 0.0607,
      "velocity": 118,
      "chip": "ym2612"
    },
    {
      "channel": 0,
      "note": 46,
      "start": 33.5494,
      "duration": 0.0743,
      "velocity": 127,
      "chip": "ym2612"
    },
    {
      "channel": 3,
      "note": 70,
      "start": 33.5524,
      "duration": 0.0882,
      "velocity": 117,
      "chip": "ym2612"
    },
    {
      "channel": 5,
      "note": 67,
      "start": 33.6604,
      "duration": 0.0969,
      "velocity": 118,
      "chip": "ym2612"
    },
    {
      "channel": 1,
      "note": 67,
      "start": 33.6639,
      "duration": 0.0766,
      "velocity": 117,
      "chip": "ym2612"
    },
    {
      "channel": 5,
      "note": 70,
      "start": 33.7603,
      "duration": 0.1137,
      "velocity": 118,
      "chip": "ym2612"
    },
    {
      "channel": 0,
      "note": 46,
      "start": 33.763,
      "duration": 0.0607,
      "velocity": 127,
      "chip": "ym2612"
    },
    {
      "channel": 3,
      "note": 70,
      "start": 33.766,
      "duration": 0.0913,
      "velocity": 117,
      "chip": "ym2612"
    },
    {
      "channel": 5,
      "note": 72,
      "start": 33.877,
      "duration": 0.0969,
      "velocity": 118,
      "chip": "ym2612"
    },
    {
      "channel": 1,
      "note": 70,
      "start": 33.8803,
      "duration": 0.0768,
      "velocity": 117,
      "chip": "ym2612"
    },
    {
      "channel": 5,
      "note": 79,
      "start": 33.977,
      "duration": 0.1137,
      "velocity": 118,
      "chip": "ym2612"
    },
    {
      "channel": 0,
      "note": 46,
      "start": 33.98,
      "duration": 0.4105,
      "velocity": 127,
      "chip": "ym2612"
    },
    {
      "channel": 3,
      "note": 70,
      "start": 33.9831,
      "duration": 0.0741,
      "velocity": 117,
      "chip": "ym2612"
    },
    {
      "channel": 5,
      "note": 67,
      "start": 34.0936,
      "duration": 0.0971,
      "velocity": 118,
      "chip": "ym2612"
    },
    {
      "channel": 1,
      "note": 70,
      "start": 34.0969,
      "duration": 0.077,
      "velocity": 117,
      "chip": "ym2612"
    },
    {
      "channel": 5,
      "note": 70,
      "start": 34.1938,
      "duration": 0.0969,
      "velocity": 118,
      "chip": "ym2612"
    },
    {
      "channel": 5,
      "note": 72,
      "start": 34.2943,
      "duration": 0.1129,
      "velocity": 118,
      "chip": "ym2612"
    },
    {
      "channel": 1,
      "note": 70,
      "start": 34.2978,
      "duration": 0.0929,
      "velocity": 117,
      "chip": "ym2612"
    },
    {
      "channel": 2,
      "note": 57,
      "start": 34.4108,
      "duration": 0.0466,
      "velocity": 118,
      "chip": "ym2612"
    },
    {
      "channel": 0,
      "note": 48,
      "start": 34.4137,
      "duration": 0.4601,
      "velocity": 127,
      "chip": "ym2612"
    },
    {
      "channel": 3,
      "note": 72,
      "start": 34.4168,
      "duration": 0.0739,
      "velocity": 117,
      "chip": "ym2612"
    },
    {
      "channel": 1,
      "note": 72,
      "start": 34.7277,
      "duration": 0.0961,
      "velocity": 117,
      "chip": "ym2612"
    },
    {
      "channel": 2,
      "note": 57,
      "start": 35.0607,
      "duration": 0.0468,
      "velocity": 118,
      "chip": "ym2612"
    },
    {
      "channel": 0,
      "note": 48,
      "start": 35.0636,
      "duration": 0.1601,
      "velocity": 127,
      "chip": "ym2612"
    },
    {
      "channel": 3,
      "note": 72,
      "start": 35.0667,
      "duration": 0.0737,
      "velocity": 117,
      "chip": "ym2612"
    },
    {
      "channel": 2,
      "note": 57,
      "start": 35.2773,
      "duration": 0.0468,
      "velocity": 118,
      "chip": "ym2612"
    },
    {
      "channel": 0,
      "note": 51,
      "start": 35.2805,
      "duration": 0.1933,
      "velocity": 127,
      "chip": "ym2612"
    },
    {
      "channel": 3,
      "note": 75,
      "start": 35.2838,
      "duration": 0.0735,
      "velocity": 117,
      "chip": "ym2612"
    },
    {
      "channel": 1,
      "note": 72,
      "start": 35.3777,
      "duration": 0.0794,
      "velocity": 117,
      "chip": "ym2612"
    },
    {
      "channel": 0,
      "note": 48,
      "start": 35.477,
      "duration": 0.2135,
      "velocity": 127,
      "chip": "ym2612"
    },
    {
      "channel": 3,
      "note": 72,
      "start": 35.48,
      "duration": 0.0939,
      "velocity": 117,
      "chip": "ym2612"
    },
    {
      "channel": 1,
      "note": 75,
      "start": 35.5945,
      "duration": 0.0793,
      "velocity": 117,
      "chip": "ym2612"
    },
    {
      "channel": 0,
      "note": 51,
      "start": 35.6937,
      "duration": 0.2134,
      "velocity": 127,
      "chip": "ym2612"
    },
    {
      "channel": 3,
      "note": 75,
      "start": 35.6967,
      "duration": 0.0939,
      "velocity": 117,
      "chip": "ym2612"
    },
    {
      "channel": 1,
      "note": 72,
      "start": 35.8109,
      "duration": 0.0797,
      "velocity": 117,
      "chip": "ym2612"
    },
    {
      "channel": 2,
      "note": 57,
      "start": 35.9112,
      "duration": 0.0462,
      "velocity": 118,
      "chip": "ym2612"
    },
    {
      "channel": 0,
      "note": 53,
      "start": 35.9139,
      "duration": 0.1931,
      "velocity": 127,
      "chip": "ym2612"
    },
    {
      "channel": 3,
      "note": 77,
      "start": 35.9172,
      "duration": 0.09,
      "velocity": 117,
      "chip": "ym2612"
    },
    {
      "channel": 1,
      "note": 75,
      "start": 36.0278,
      "duration": 0.0794,
      "velocity": 117,
      "chip": "ym2612"
    },
    {
      "channel": 2,
      "note": 57,
      "start": 36.1275,
      "duration": 0.0465,
      "velocity": 118,
      "chip": "ym2612"
    },
    {
      "channel": 0,
      "note": 43,
      "start": 36.1305,
      "duration": 0.4267,
      "velocity": 127,
      "chip": "ym2612"
    },
    {
      "channel": 4,
      "note": 45,
      "start": 36.1359,
      "duration": 0.088,
      "velocity": 114,
      "chip": "ym2612"
    },
    {
      "channel": 4,
      "note": 33,
      "start": 36.3445,
      "duration": 0.0795,
      "velocity": 114,
      "chip": "ym2612"
    },
    {
      "channel": 4,
      "note": 33,
      "start": 36.5613,
      "duration": 0.0793,
      "velocity": 114,
      "chip": "ym2612"
    },
    {
      "channel": 0,
      "note": 43,
      "start": 36.7773,
      "duration": 0.1964,
      "velocity": 127,
      "chip": "ym2612"
    },
    {
      "channel": 4,
      "note": 45,
      "start": 36.781,
      "duration": 0.0762,
      "velocity": 114,
      "chip": "ym2612"
    },
    {
      "channel": 0,
      "note": 46,
      "start": 36.9938,
      "duration": 0.0634,
      "velocity": 127,
      "chip": "ym2612"
    },
    {
      "channel": 4,
      "note": 45,
      "start": 36.9971,
      "duration": 0.0768,
      "velocity": 114,
      "chip": "ym2612"
    },
    {
      "channel": 0,
      "note": 46,
      "start": 37.2103,
      "duration": 0.0635,
      "velocity": 127,
      "chip": "ym2612"
    },
    {
      "channel": 4,
      "note": 33,
      "start": 37.2137,
      "duration": 0.077,
      "velocity": 114,
      "chip": "ym2612"
    },
    {
      "channel": 0,
      "note": 46,
      "start": 37.4277,
      "duration": 0.3962,
      "velocity": 127,
      "chip": "ym2612"
    },
    {
      "channel": 4,
      "note": 33,
      "start": 37.4311,
      "duration": 0.0762,
      "velocity": 114,
      "chip": "ym2612"
    },
    {
      "channel": 4,
      "note": 45,
      "start": 37.6448,
      "duration": 0.0791,
      "velocity": 114,
      "chip": "ym2612"
    },
    {
      "channel": 2,
      "note": 57,
      "start": 37.844,
      "duration": 0.0634,
      "velocity": 118,
      "chip": "ym2612"
    },
    {
      "channel": 0,
      "note": 48,
      "start": 37.8469,
      "duration": 0.4768,
      "velocity": 127,
      "chip": "ym2612"
    },
    {
      "channel": 5,
      "note": 60,
      "start": 37.8504,
      "duration": 0.2736,
      "velocity": 78,
      "chip": "ym2612"
    },
    {
      "channel": 3,
      "note": 60,
      "start": 38.0615,
      "duration": 0.1123,
      "velocity": 78,
      "chip": "ym2612"
    },
    {
      "channel": 5,
      "note": 60,
      "start": 38.2776,
      "duration": 0.1798,
      "velocity": 78,
      "chip": "ym2612"
    },
    {
      "channel": 2,
      "note": 57,
      "start": 38.494,
      "duration": 0.0467,
      "velocity": 118,
      "chip": "ym2612"
    },
    {
      "channel": 0,
      "note": 48,
      "start": 38.4969,
      "duration": 0.1768,
      "velocity": 127,
      "chip": "ym2612"
    },
    {
      "channel": 5,
      "note": 58,
      "start": 38.4997,
      "duration": 0.2076,
      "velocity": 78,
      "chip": "ym2612"
    },
    {
      "channel": 3,
      "note": 60,
      "start": 38.5025,
      "duration": 0.1048,
      "velocity": 78,
      "chip": "ym2612"
    },
    {
      "channel": 2,
      "note": 57,
      "start": 38.7108,
      "duration": 0.0466,
      "velocity": 118,
      "chip": "ym2612"
    },
    {
      "channel": 0,
      "note": 51,
      "start": 38.7135,
      "duration": 0.1935,
      "velocity": 127,
      "chip": "ym2612"
    },
    {
      "channel": 5,
      "note": 60,
      "start": 38.7164,
      "duration": 0.191,
      "velocity": 78,
      "chip": "ym2612"
    },
    {
      "channel": 3,
      "note": 58,
      "start": 38.719,
      "duration": 0.1049,
      "velocity": 78,
      "chip": "ym2612"
    },
    {
      "channel": 0,
      "note": 48,
      "start": 38.927,
      "duration": 0.1969,
      "velocity": 127,
      "chip": "ym2612"
    },
    {
      "channel": 5,
      "note": 63,
      "start": 38.9298,
      "duration": 0.1776,
      "velocity": 78,
      "chip": "ym2612"
    },
    {
      "channel": 3,
      "note": 60,
      "start": 38.9324,
      "duration": 0.0915,
      "velocity": 78,
      "chip": "ym2612"
    },
    {
      "channel": 0,
      "note": 51,
      "start": 39.1438,
      "duration": 0.2133,
      "velocity": 127,
      "chip": "ym2612"
    },
    {
      "channel": 5,
      "note": 60,
      "start": 39.1466,
      "duration": 0.2107,
      "velocity": 78,
      "chip": "ym2612"
    },
    {
      "channel": 3,
      "note": 63,
      "start": 39.1492,
      "duration": 0.0914,
      "velocity": 78,
      "chip": "ym2612"
    },
    {
      "channel": 2,
      "note": 57,
      "start": 39.3608,
      "duration": 0.0466,
      "velocity": 118,
      "chip": "ym2612"
    },
    {
      "channel": 0,
      "note": 53,
      "start": 39.3634,
      "duration": 0.2104,
      "velocity": 127,
      "chip": "ym2612"
    },
    {
      "channel": 5,
      "note": 58,
      "start": 39.3662,
      "duration": 0.1912,
      "velocity": 78,
      "chip": "ym2612"
    },
    {
      "channel": 3,
      "note": 60,
      "start": 39.3688,
      "duration": 0.0884,
      "velocity": 78,
      "chip": "ym2612"
    },
    {
      "channel": 2,
      "note": 57,
      "start": 39.5775,
      "duration": 0.0466,
      "velocity": 118,
      "chip": "ym2612"
    },
    {
      "channel": 0,
      "note": 43,
      "start": 39.5804,
      "duration": 0.4267,
      "velocity": 127,
      "chip": "ym2612"
    },
    {
      "channel": 5,
      "note": 65,
      "start": 39.5838,
      "duration": 0.1569,
      "velocity": 78,
      "chip": "ym2612"
    },
    {
      "channel": 3,
      "note": 58,
      "start": 39.5863,
      "duration": 0.0877,
      "velocity": 78,
      "chip": "ym2612"
    },
    {
      "channel": 3,
      "note": 65,
      "start": 39.794,
      "duration": 0.0964,
      "velocity": 78,
      "chip": "ym2612"
    },
    {
      "channel": 5,
      "note": 65,
      "start": 39.8939,
      "duration": 0.1634,
      "velocity": 78,
      "chip": "ym2612"
    },
    {
      "channel": 3,
      "note": 65,
      "start": 40.1105,
      "duration": 0.0968,
      "velocity": 78,
      "chip": "ym2612"
    },
    {
      "channel": 2,
      "note": 57,
      "start": 40.2109,
      "duration": 0.0632,
      "velocity": 118,
      "chip": "ym2612"
    },
    {
      "channel": 0,
      "note": 43,
      "start": 40.2141,
      "duration": 0.1929,
      "velocity": 127,
      "chip": "ym2612"
    },
    {
      "channel": 5,
      "note": 65,
      "start": 40.2172,
      "duration": 0.2236,
      "velocity": 78,
      "chip": "ym2612"
    },
    {
      "channel": 2,
      "note": 57,
      "start": 40.4277,
      "duration": 0.063,
      "velocity": 118,
      "chip": "ym2612"
    },
    {
      "channel": 0,
      "note": 46,
      "start": 40.4305,
      "duration": 0.0767,
      "velocity": 127,
      "chip": "ym2612"
    },
    {
      "channel": 1,
      "note": 63,
      "start": 40.4335,
      "duration": 0.357,
      "velocity": 78,
      "chip": "ym2612"
    },
    {
      "channel": 3,
      "note": 65,
      "start": 40.4363,
      "duration": 0.1043,
      "velocity": 78,
      "chip": "ym2612"
    },
    {
      "channel": 0,
      "note": 46,
      "start": 40.6436,
      "duration": 0.0802,
      "velocity": 127,
      "chip": "ym2612"
    },
    {
      "channel": 3,
      "note": 63,
      "start": 40.6468,
      "duration": 0.1104,
      "velocity": 78,
      "chip": "ym2612"
    },
    {
      "channel": 0,
      "note": 46,
      "start": 40.8606,
      "duration": 0.4132,
      "velocity": 127,
      "chip": "ym2612"
    },
    {
      "channel": 1,
      "note": 62,
      "start": 40.8633,
      "duration": 0.3772,
      "velocity": 78,
      "chip": "ym2612"
    },
    {
      "channel": 3,
      "note": 62,
      "start": 41.0771,
      "duration": 0.1135,
      "velocity": 78,
      "chip": "ym2612"
    },
    {
      "channel": 4,
      "note": 60,
      "start": 41.0807,
      "duration": 0.2266,
      "velocity": 117,
      "chip": "ym2612"
    },
    {
      "channel": 2,
      "note": 57,
      "start": 41.2941,
      "duration": 0.0467,
      "velocity": 118,
      "chip": "ym2612"
    },
    {
      "channel": 0,
      "note": 48,
      "start": 41.297,
      "duration": 0.4601,
      "velocity": 127,
      "chip": "ym2612"
    },
    {
      "channel": 1,
      "note": 60,
      "start": 41.2997,
      "duration": 0.2742,
      "velocity": 78,
      "chip": "ym2612"
    },
    {
      "channel": 5,
      "note": 60,
      "start": 41.3033,
      "duration": 0.3207,
      "velocity": 117,
      "chip": "ym2612"
    },
    {
      "channel": 3,
      "note": 60,
      "start": 41.5105,
      "duration": 0.0966,
      "velocity": 78,
      "chip": "ym2612"
    },
    {
      "channel": 1,
      "note": 60,
      "start": 41.7277,
      "duration": 0.1962,
      "velocity": 78,
      "chip": "ym2612"
    },
    {
      "channel": 2,
      "note": 57,
      "start": 41.9441,
      "duration": 0.0467,
      "velocity": 118,
      "chip": "ym2612"
    },
    {
      "channel": 0,
      "note": 48,
      "start": 41.947,
      "duration": 0.16,
      "velocity": 127,
      "chip": "ym2612"
    },
    {
      "channel": 1,
      "note": 58,
      "start": 41.9495,
      "duration": 0.191,
      "velocity": 78,
      "chip": "ym2612"
    },
    {
      "channel": 3,
      "note": 60,
      "start": 41.9522,
      "duration": 0.0883,
      "velocity": 78,
      "chip": "ym2612"
    },
    {
      "channel": 2,
      "note": 57,
      "start": 42.1607,
      "duration": 0.0466,
      "velocity": 118,
      "chip": "ym2612"
    },
    {
      "channel": 0,
      "note": 51,
      "start": 42.1639,
      "duration": 0.1933,
      "velocity": 127,
      "chip": "ym2612"
    },
    {
      "channel": 1,
      "note": 60,
      "start": 42.1663,
      "duration": 0.1742,
      "velocity": 78,
      "chip": "ym2612"
    },
    {
      "channel": 3,
      "note": 58,
      "start": 42.1689,
      "duration": 0.0883,
      "velocity": 78,
      "chip": "ym2612"
    },
    {
      "channel": 0,
      "note": 48,
      "start": 42.3604,
      "duration": 0.2135,
      "velocity": 127,
      "chip": "ym2612"
    },
    {
      "channel": 1,
      "note": 63,
      "start": 42.3628,
      "duration": 0.1944,
      "velocity": 78,
      "chip": "ym2612"
    },
    {
      "channel": 3,
      "note": 60,
      "start": 42.3654,
      "duration": 0.1085,
      "velocity": 78,
      "chip": "ym2612"
    },
    {
      "channel": 0,
      "note": 51,
      "start": 42.5771,
      "duration": 0.2133,
      "velocity": 127,
      "chip": "ym2612"
    },
    {
      "channel": 1,
      "note": 60,
      "start": 42.5799,
      "duration": 0.244,
      "velocity": 78,
      "chip": "ym2612"
    },
    {
      "channel": 3,
      "note": 63,
      "start": 42.5824,
      "duration": 0.1081,
      "velocity": 78,
      "chip": "ym2612"
    },
    {
      "channel": 2,
      "note": 57,
      "start": 42.7941,
      "duration": 0.0633,
      "velocity": 118,
      "chip": "ym2612"
    },
    {
      "channel": 0,
      "note": 53,
      "start": 42.7968,
      "duration": 0.1936,
      "velocity": 127,
      "chip": "ym2612"
    },
    {
      "channel": 3,
      "note": 60,
      "start": 42.7996,
      "duration": 0.1075,
      "velocity": 78,
      "chip": "ym2612"
    },
    {
      "channel": 2,
      "note": 57,
      "start": 43.0107,
      "duration": 0.0466,
      "velocity": 118,
      "chip": "ym2612"
    },
    {
      "channel": 0,
      "note": 44,
      "start": 43.0135,
      "duration": 0.4102,
      "velocity": 127,
      "chip": "ym2612"
    },
    {
      "channel": 2,
      "note": 57,
      "start": 43.6607,
      "duration": 0.0468,
      "velocity": 118,
      "chip": "ym2612"
    },
    {
      "channel": 0,
      "note": 44,
      "start": 43.6635,
      "duration": 0.2102,
      "velocity": 127,
      "chip": "ym2612"
    },
    {
      "channel": 1,
      "note": 55,
      "start": 43.6664,
      "duration": 0.1575,
      "velocity": 78,
      "chip": "ym2612"
    },
    {
      "channel": 2,
      "note": 57,
      "start": 43.878,
      "duration": 0.0461,
      "velocity": 118,
      "chip": "ym2612"
    },
    {
      "channel": 0,
      "note": 46,
      "start": 43.8807,
      "duration": 0.0598,
      "velocity": 127,
      "chip": "ym2612"
    },
    {
      "channel": 1,
      "note": 58,
      "start": 43.8834,
      "duration": 0.0737,
      "velocity": 78,
      "chip": "ym2612"
    },
    {
      "channel": 3,
      "note": 55,
      "start": 43.8861,
      "duration": 0.0877,
      "velocity": 78,
      "chip": "ym2612"
    },
    {
      "channel": 0,
      "note": 46,
      "start": 44.0936,
      "duration": 0.0635,
      "velocity": 127,
      "chip": "ym2612"
    },
    {
      "channel": 1,
      "note": 58,
      "start": 44.0962,
      "duration": 0.0442,
      "velocity": 78,
      "chip": "ym2612"
    },
    {
      "channel": 3,
      "note": 58,
      "start": 44.0988,
      "duration": 0.0918,
      "velocity": 78,
      "chip": "ym2612"
    },
    {
      "channel": 0,
      "note": 46,
      "start": 44.3111,
      "duration": 0.3461,
      "velocity": 127,
      "chip": "ym2612"
    },
    {
      "channel": 1,
      "note": 58,
      "start": 44.3142,
      "duration": 0.3596,
      "velocity": 78,
      "chip": "ym2612"
    },
    {
      "channel": 3,
      "note": 58,
      "start": 44.3168,
      "duration": 0.0905,
      "velocity": 78,
      "chip": "ym2612"
    },
    {
      "channel": 3,
      "note": 58,
      "start": 44.5273,
      "duration": 0.0966,
      "velocity": 78,
      "chip": "ym2612"
    },
    {
      "channel": 0,
      "note": 48,
      "start": 44.7272,
      "duration": 0.4966,
      "velocity": 127,
      "chip": "ym2612"
    },
    {
      "channel": 1,
      "note": 60,
      "start": 44.7299,
      "duration": 0.2606,
      "velocity": 78,
      "chip": "ym2612"
    },
    {
      "channel": 4,
      "note": 72,
      "start": 44.7334,
      "duration": 0.0905,
      "velocity": 117,
      "chip": "ym2612"
    },
    {
      "channel": 3,
      "note": 60,
      "start": 44.9441,
      "duration": 0.113,
      "velocity": 78,
      "chip": "ym2612"
    },
    {
      "channel": 1,
      "note": 60,
      "start": 45.1607,
      "duration": 0.1964,
      "velocity": 78,
      "chip": "ym2612"
    },
    {
      "channel": 0,
      "note": 48,
      "start": 45.3772,
      "duration": 0.18,
      "velocity": 127,
      "chip": "ym2612"
    },
    {
      "channel": 1,
      "note": 58,
      "start": 45.3799,
      "duration": 0.1607,
      "velocity": 78,
      "chip": "ym2612"
    },
    {
      "channel": 3,
      "note": 60,
      "start": 45.3826,
      "duration": 0.108,
      "velocity": 78,
      "chip": "ym2612"
    },
    {
      "channel": 4,
      "note": 72,
      "start": 45.3857,
      "duration": 0.0883,
      "velocity": 117,
      "chip": "ym2612"
    },
    {
      "channel": 0,
      "note": 51,
      "start": 45.5938,
      "duration": 0.1967,
      "velocity": 127,
      "chip": "ym2612"
    },
    {
      "channel": 1,
      "note": 60,
      "start": 45.5964,
      "duration": 0.1942,
      "velocity": 78,
      "chip": "ym2612"
    },
    {
      "channel": 3,
      "note": 58,
      "start": 45.599,
      "duration": 0.1083,
      "velocity": 78,
      "chip": "ym2612"
    },
    {
      "channel": 4,
      "note": 75,
      "start": 45.6019,
      "duration": 0.0721,
      "velocity": 117,
      "chip": "ym2612"
    },
    {
      "channel": 0,
      "note": 48,
      "start": 45.8102,
      "duration": 0.1968,
      "velocity": 127,
      "chip": "ym2612"
    },
    {
      "channel": 1,
      "note": 63,
      "start": 45.8129,
      "duration": 0.1776,
      "velocity": 78,
      "chip": "ym2612"
    },
    {
      "channel": 3,
      "note": 60,
      "start": 45.8154,
      "duration": 0.0919,
      "velocity": 78,
      "chip": "ym2612"
    },
    {
      "channel": 4,
      "note": 72,
      "start": 45.8184,
      "duration": 0.0723,
      "velocity": 117,
      "chip": "ym2612"
    },
    {
      "channel": 0,
      "note": 51,
      "start": 46.0271,
      "duration": 0.2134,
      "velocity": 127,
      "chip": "ym2612"
    },
    {
      "channel": 1,
      "note": 60,
      "start": 46.0296,
      "duration": 0.1776,
      "velocity": 78,
      "chip": "ym2612"
    },
    {
      "channel": 3,
      "note": 63,
      "start": 46.0321,
      "duration": 0.0918,
      "velocity": 78,
      "chip": "ym2612"
    },
    {
      "channel": 4,
      "note": 75,
      "start": 46.035,
      "duration": 0.0723,
      "velocity": 117,
      "chip": "ym2612"
    },
    {
      "channel": 0,
      "note": 53,
      "start": 46.2437,
      "duration": 0.2134,
      "velocity": 127,
      "chip": "ym2612"
    },
    {
      "channel": 1,
      "note": 58,
      "start": 46.2462,
      "duration": 0.1777,
      "velocity": 78,
      "chip": "ym2612"
    },
    {
      "channel": 3,
      "note": 60,
      "start": 46.2487,
      "duration": 0.0919,
      "velocity": 78,
      "chip": "ym2612"
    },
    {
      "channel": 4,
      "note": 77,
      "start": 46.2517,
      "duration": 0.0723,
      "velocity": 117,
      "chip": "ym2612"
    },
    {
      "channel": 0,
      "note": 43,
      "start": 46.4607,
      "duration": 0.4297,
      "velocity": 127,
      "chip": "ym2612"
    },
    {
      "channel": 1,
      "note": 65,
      "start": 46.4639,
      "duration": 0.2099,
      "velocity": 78,
      "chip": "ym2612"
    },
    {
      "channel": 3,
      "note": 58,
      "start": 46.4664,
      "duration": 0.0908,
      "velocity": 78,
      "chip": "ym2612"
    },
    {
      "channel": 4,
      "note": 67,
      "start": 46.4695,
      "duration": 0.0711,
      "velocity": 117,
      "chip": "ym2612"
    },
    {
      "channel": 3,
      "note": 65,
      "start": 46.6773,
      "duration": 0.0965,
      "velocity": 78,
      "chip": "ym2612"
    },
    {
      "channel": 1,
      "note": 65,
      "start": 46.7772,
      "duration": 0.1967,
      "velocity": 78,
      "chip": "ym2612"
    },
    {
      "channel": 3,
      "note": 65,
      "start": 46.9938,
      "duration": 0.0968,
      "velocity": 78,
      "chip": "ym2612"
    },
    {
      "channel": 0,
      "note": 43,
      "start": 47.0944,
      "duration": 0.1961,
      "velocity": 127,
      "chip": "ym2612"
    },
    {
      "channel": 1,
      "note": 65,
      "start": 47.0973,
      "duration": 0.2099,
      "velocity": 78,
      "chip": "ym2612"
    },
    {
      "channel": 4,
      "note": 67,
      "start": 47.1005,
      "duration": 0.0901,
      "velocity": 117,
      "chip": "ym2612"
    },
    {
      "channel": 0,
      "note": 46,
      "start": 47.3105,
      "duration": 0.08,
      "velocity": 127,
      "chip": "ym2612"
    },
    {
      "channel": 1,
      "note": 63,
      "start": 47.3134,
      "duration": 0.3771,
      "velocity": 78,
      "chip": "ym2612"
    },
    {
      "channel": 3,
      "note": 65,
      "start": 47.3161,
      "duration": 0.1078,
      "velocity": 78,
      "chip": "ym2612"
    },
    {
      "channel": 4,
      "note": 70,
      "start": 47.319,
      "duration": 0.0883,
      "velocity": 117,
      "chip": "ym2612"
    },
    {
      "channel": 0,
      "note": 46,
      "start": 47.5269,
      "duration": 0.0802,
      "velocity": 127,
      "chip": "ym2612"
    },
    {
      "channel": 3,
      "note": 63,
      "start": 47.5297,
      "duration": 0.1109,
      "velocity": 78,
      "chip": "ym2612"
    },
    {
      "channel": 4,
      "note": 70,
      "start": 47.533,
      "duration": 0.091,
      "velocity": 117,
      "chip": "ym2612"
    },
    {
      "channel": 0,
      "note": 46,
      "start": 47.7439,
      "duration": 0.4131,
      "velocity": 127,
      "chip": "ym2612"
    },
    {
      "channel": 1,
      "note": 62,
      "start": 47.7466,
      "duration": 0.4272,
      "velocity": 78,
      "chip": "ym2612"
    },
    {
      "channel": 4,
      "note": 70,
      "start": 47.7499,
      "duration": 0.0908,
      "velocity": 117,
      "chip": "ym2612"
    },
    {
      "channel": 3,
      "note": 62,
      "start": 47.9604,
      "duration": 0.1134,
      "velocity": 78,
      "chip": "ym2612"
    },
    {
      "channel": 0,
      "note": 48,
      "start": 48.1773,
      "duration": 0.4631,
      "velocity": 127,
      "chip": "ym2612"
    },
    {
      "channel": 1,
      "note": 60,
      "start": 48.18,
      "duration": 0.3105,
      "velocity": 78,
      "chip": "ym2612"
    },
    {
      "channel": 4,
      "note": 72,
      "start": 48.1832,
      "duration": 0.0741,
      "velocity": 117,
      "chip": "ym2612"
    },
    {
      "channel": 3,
      "note": 60,
      "start": 48.3942,
      "duration": 0.0964,
      "velocity": 78,
      "chip": "ym2612"
    },
    {
      "channel": 1,
      "note": 60,
      "start": 48.6111,
      "duration": 0.1794,
      "velocity": 78,
      "chip": "ym2612"
    },
    {
      "channel": 0,
      "note": 48,
      "start": 48.8271,
      "duration": 0.1632,
      "velocity": 127,
      "chip": "ym2612"
    },
    {
      "channel": 1,
      "note": 58,
      "start": 48.8298,
      "duration": 0.194,
      "velocity": 78,
      "chip": "ym2612"
    },
    {
      "channel": 3,
      "note": 60,
      "start": 48.8326,
      "duration": 0.0913,
      "velocity": 78,
      "chip": "ym2612"
    },
    {
      "channel": 4,
      "note": 72,
      "start": 48.8357,
      "duration": 0.0716,
      "velocity": 117,
      "chip": "ym2612"
    },
    {
      "channel": 0,
      "note": 51,
      "start": 49.0441,
      "duration": 0.2129,
      "velocity": 127,
      "chip": "ym2612"
    },
    {
      "channel": 1,
      "note": 60,
      "start": 49.0468,
      "duration": 0.1604,
      "velocity": 78,
      "chip": "ym2612"
    },
    {
      "channel": 3,
      "note": 58,
      "start": 49.0494,
      "duration": 0.0913,
      "velocity": 78,
      "chip": "ym2612"
    },
    {
      "channel": 4,
      "note": 75,
      "start": 49.0523,
      "duration": 0.0717,
      "velocity": 117,
      "chip": "ym2612"
    },
    {
      "channel": 0,
      "note": 48,
      "start": 49.2603,
      "duration": 0.1968,
      "velocity": 127,
      "chip": "ym2612"
    },
    {
      "channel": 1,
      "note": 63,
      "start": 49.263,
      "duration": 0.1442,
      "velocity": 78,
      "chip": "ym2612"
    },
    {
      "channel": 3,
      "note": 60,
      "start": 49.2655,
      "duration": 0.0917,
      "velocity": 78,
      "chip": "ym2612"
    },
    {
      "channel": 4,
      "note": 72,
      "start": 49.2684,
      "duration": 0.0721,
      "velocity": 117,
      "chip": "ym2612"
    },
    {
      "channel": 0,
      "note": 51,
      "start": 49.4604,
      "duration": 0.2134,
      "velocity": 127,
      "chip": "ym2612"
    },
    {
      "channel": 1,
      "note": 60,
      "start": 49.4633,
      "duration": 0.2272,
      "velocity": 78,
      "chip": "ym2612"
    },
    {
      "channel": 3,
      "note": 63,
      "start": 49.4658,
      "duration": 0.1081,
      "velocity": 78,
      "chip": "ym2612"
    },
    {
      "channel": 4,
      "note": 75,
      "start": 49.4688,
      "duration": 0.0886,
      "velocity": 117,
      "chip": "ym2612"
    },
    {
      "channel": 0,
      "note": 53,
      "start": 49.6772,
      "duration": 0.1965,
      "velocity": 127,
      "chip": "ym2612"
    },
    {
      "channel": 3,
      "note": 60,
      "start": 49.6801,
      "duration": 0.1105,
      "velocity": 78,
      "chip": "ym2612"
    },
    {
      "channel": 4,
      "note": 77,
      "start": 49.6831,
      "duration": 0.0909,
      "velocity": 117,
      "chip": "ym2612"
    },
    {
      "channel": 0,
      "note": 44,
      "start": 49.8939,
      "duration": 0.4133,
      "velocity": 127,
      "chip": "ym2612"
    },
    {
      "channel": 4,
      "note": 68,
      "start": 49.8972,
      "duration": 0.0934,
      "velocity": 117,
      "chip": "ym2612"
    },
    {
      "channel": 0,
      "note": 44,
      "start": 50.5438,
      "duration": 0.2134,
      "velocity": 127,
      "chip": "ym2612"
    },
    {
      "channel": 4,
      "note": 68,
      "start": 50.5471,
      "duration": 0.0768,
      "velocity": 117,
      "chip": "ym2612"
    },
    {
      "channel": 0,
      "note": 46,
      "start": 50.7605,
      "duration": 0.0632,
      "velocity": 127,
      "chip": "ym2612"
    },
    {
      "channel": 4,
      "note": 70,
      "start": 50.7637,
      "duration": 0.0769,
      "velocity": 117,
      "chip": "ym2612"
    },
    {
      "channel": 0,
      "note": 46,
      "start": 50.9769,
      "duration": 0.0636,
      "velocity": 127,
      "chip": "ym2612"
    },
    {
      "channel": 4,
      "note": 70,
      "start": 50.9805,
      "duration": 0.0768,
      "velocity": 117,
      "chip": "ym2612"
    },
    {
      "channel": 0,
      "note": 46,
      "start": 51.1944,
      "duration": 0.3461,
      "velocity": 127,
      "chip": "ym2612"
    },
    {
      "channel": 4,
      "note": 70,
      "start": 51.1977,
      "duration": 0.0762,
      "velocity": 117,
      "chip": "ym2612"
    },
    {
      "channel": 2,
      "note": 57,
      "start": 51.6275,
      "duration": 0.0466,
      "velocity": 118,
      "chip": "ym2612"
    },
    {
      "channel": 4,
      "note": 72,
      "start": 51.6309,
      "duration": 0.0765,
      "velocity": 117,
      "chip": "ym2612"
    },
    {
      "channel": 5,
      "note": 45,
      "start": 51.634,
      "duration": 0.0735,
      "velocity": 114,
      "chip": "ym2612"
    },
    {
      "channel": 5,
      "note": 33,
      "start": 51.8279,
      "duration": 0.0961,
      "velocity": 114,
      "chip": "ym2612"
    },
    {
      "channel": 1,
      "note": 72,
      "start": 51.9448,
      "duration": 0.1123,
      "velocity": 117,
      "chip": "ym2612"
    },
    {
      "channel": 5,
      "note": 33,
      "start": 52.0446,
      "duration": 0.096,
      "velocity": 114,
      "chip": "ym2612"
    },
    {
      "channel": 2,
      "note": 57,
      "start": 52.2607,
      "duration": 0.0466,
      "velocity": 118,
      "chip": "ym2612"
    },
    {
      "channel": 4,
      "note": 72,
      "start": 52.2642,
      "duration": 0.0931,
      "velocity": 117,
      "chip": "ym2612"
    },
    {
      "channel": 5,
      "note": 45,
      "start": 52.267,
      "duration": 0.0904,
      "velocity": 114,
      "chip": "ym2612"
    },
    {
      "channel": 2,
      "note": 57,
      "start": 52.4774,
      "duration": 0.0466,
      "velocity": 118,
      "chip": "ym2612"
    },
    {
      "channel": 4,
      "note": 75,
      "start": 52.4807,
      "duration": 0.0932,
      "velocity": 117,
      "chip": "ym2612"
    },
    {
      "channel": 5,
      "note": 45,
      "start": 52.4836,
      "duration": 0.0905,
      "velocity": 114,
      "chip": "ym2612"
    },
    {
      "channel": 1,
      "note": 72,
      "start": 52.5945,
      "duration": 0.1126,
      "velocity": 117,
      "chip": "ym2612"
    },
    {
      "channel": 4,
      "note": 72,
      "start": 52.6944,
      "duration": 0.0795,
      "velocity": 117,
      "chip": "ym2612"
    },
    {
      "channel": 5,
      "note": 33,
      "start": 52.6973,
      "duration": 0.0768,
      "velocity": 114,
      "chip": "ym2612"
    },
    {
      "channel": 1,
      "note": 75,
      "start": 52.8109,
      "duration": 0.113,
      "velocity": 117,
      "chip": "ym2612"
    },
    {
      "channel": 4,
      "note": 75,
      "start": 52.911,
      "duration": 0.0796,
      "velocity": 117,
      "chip": "ym2612"
    },
    {
      "channel": 5,
      "note": 33,
      "start": 52.9139,
      "duration": 0.0769,
      "velocity": 114,
      "chip": "ym2612"
    },
    {
      "channel": 1,
      "note": 72,
      "start": 53.0109,
      "duration": 0.1295,
      "velocity": 117,
      "chip": "ym2612"
    },
    {
      "channel": 2,
      "note": 57,
      "start": 53.1273,
      "duration": 0.0468,
      "velocity": 118,
      "chip": "ym2612"
    },
    {
      "channel": 4,
      "note": 77,
      "start": 53.1306,
      "duration": 0.0767,
      "velocity": 117,
      "chip": "ym2612"
    },
    {
      "channel": 5,
      "note": 45,
      "start": 53.1335,
      "duration": 0.0739,
      "velocity": 114,
      "chip": "ym2612"
    },
    {
      "channel": 1,
      "note": 75,
      "start": 53.2277,
      "duration": 0.1295,
      "velocity": 117,
      "chip": "ym2612"
    },
    {
      "channel": 2,
      "note": 57,
      "start": 53.344,
      "duration": 0.0467,
      "velocity": 118,
      "chip": "ym2612"
    },
    {
      "channel": 4,
      "note": 67,
      "start": 53.3475,
      "duration": 0.0764,
      "velocity": 117,
      "chip": "ym2612"
    },
    {
      "channel": 5,
      "note": 45,
      "start": 53.3507,
      "duration": 0.0734,
      "velocity": 114,
      "chip": "ym2612"
    },
    {
      "channel": 1,
      "note": 77,
      "start": 53.4443,
      "duration": 0.1296,
      "velocity": 117,
      "chip": "ym2612"
    },
    {
      "channel": 5,
      "note": 33,
      "start": 53.5612,
      "duration": 0.0795,
      "velocity": 114,
      "chip": "ym2612"
    },
    {
      "channel": 1,
      "note": 67,
      "start": 53.6611,
      "duration": 0.1294,
      "velocity": 117,
      "chip": "ym2612"
    },
    {
      "channel": 5,
      "note": 33,
      "start": 53.778,
      "duration": 0.0793,
      "velocity": 114,
      "chip": "ym2612"
    },
    {
      "channel": 2,
      "note": 57,
      "start": 53.994,
      "duration": 0.0467,
      "velocity": 118,
      "chip": "ym2612"
    },
    {
      "channel": 4,
      "note": 67,
      "start": 53.9975,
      "duration": 0.0765,
      "velocity": 117,
      "chip": "ym2612"
    },
    {
      "channel": 5,
      "note": 45,
      "start": 54.0004,
      "duration": 0.0737,
      "velocity": 114,
      "chip": "ym2612"
    },
    {
      "channel": 2,
      "note": 57,
      "start": 54.194,
      "duration": 0.0634,
      "velocity": 118,
      "chip": "ym2612"
    },
    {
      "channel": 4,
      "note": 70,
      "start": 54.1973,
      "duration": 0.0933,
      "velocity": 117,
      "chip": "ym2612"
    },
    {
      "channel": 5,
      "note": 45,
      "start": 54.2004,
      "duration": 0.0903,
      "velocity": 114,
      "chip": "ym2612"
    },
    {
      "channel": 1,
      "note": 67,
      "start": 54.3111,
      "duration": 0.1127,
      "velocity": 117,
      "chip": "ym2612"
    },
    {
      "channel": 4,
      "note": 70,
      "start": 54.4113,
      "duration": 0.0959,
      "velocity": 117,
      "chip": "ym2612"
    },
    {
      "channel": 1,
      "note": 70,
      "start": 54.5276,
      "duration": 0.1128,
      "velocity": 117,
      "chip": "ym2612"
    },
    {
      "channel": 4,
      "note": 70,
      "start": 54.6278,
      "duration": 0.0961,
      "velocity": 117,
      "chip": "ym2612"
    },
    {
      "channel": 1,
      "note": 70,
      "start": 54.7443,
      "duration": 0.1129,
      "velocity": 117,
      "chip": "ym2612"
    },
    {
      "channel": 3,
      "note": 60,
      "start": 54.8449,
      "duration": 0.2291,
      "velocity": 117,
      "chip": "ym2612"
    },
    {
      "channel": 1,
      "note": 70,
      "start": 54.9624,
      "duration": 0.1114,
      "velocity": 117,
      "chip": "ym2612"
    },
    {
      "channel": 2,
      "note": 57,
      "start": 55.0611,
      "duration": 0.0463,
      "velocity": 118,
      "chip": "ym2612"
    },
    {
      "channel": 0,
      "note": 60,
      "start": 55.0649,
      "duration": 0.3254,
      "velocity": 117,
      "chip": "ym2612"
    },
    {
      "channel": 4,
      "note": 72,
      "start": 55.0678,
      "duration": 0.0728,
      "velocity": 117,
      "chip": "ym2612"
    },
    {
      "channel": 5,
      "note": 45,
      "start": 55.0709,
      "duration": 0.0698,
      "velocity": 114,
      "chip": "ym2612"
    },
    {
      "channel": 5,
      "note": 33,
      "start": 55.278,
      "duration": 0.0794,
      "velocity": 114,
      "chip": "ym2612"
    },
    {
      "channel": 1,
      "note": 72,
      "start": 55.3778,
      "duration": 0.1293,
      "velocity": 117,
      "chip": "ym2612"
    },
    {
      "channel": 5,
      "note": 33,
      "start": 55.4946,
      "duration": 0.0794,
      "velocity": 114,
      "chip": "ym2612"
    },
    {
      "channel": 2,
      "note": 57,
      "start": 55.7106,
      "duration": 0.0468,
      "velocity": 118,
      "chip": "ym2612"
    },
    {
      "channel": 4,
      "note": 72,
      "start": 55.7141,
      "duration": 0.0765,
      "velocity": 117,
      "chip": "ym2612"
    },
    {
      "channel": 5,
      "note": 45,
      "start": 55.717,
      "duration": 0.0737,
      "velocity": 114,
      "chip": "ym2612"
    },
    {
      "channel": 2,
      "note": 57,
      "start": 55.9273,
      "duration": 0.0468,
      "velocity": 118,
      "chip": "ym2612"
    },
    {
      "channel": 4,
      "note": 75,
      "start": 55.9306,
      "duration": 0.0766,
      "velocity": 117,
      "chip": "ym2612"
    },
    {
      "channel": 5,
      "note": 45,
      "start": 55.9334,
      "duration": 0.0739,
      "velocity": 114,
      "chip": "ym2612"
    },
    {
      "channel": 1,
      "note": 72,
      "start": 56.0278,
      "duration": 0.1293,
      "velocity": 117,
      "chip": "ym2612"
    },
    {
      "channel": 4,
      "note": 72,
      "start": 56.1444,
      "duration": 0.0795,
      "velocity": 117,
      "chip": "ym2612"
    },
    {
      "channel": 5,
      "note": 40,
      "start": 56.1474,
      "duration": 0.0766,
      "velocity": 114,
      "chip": "ym2612"
    },
    {
      "channel": 1,
      "note": 75,
      "start": 56.2444,
      "duration": 0.1294,
      "velocity": 117,
      "chip": "ym2612"
    },
    {
      "channel": 4,
      "note": 75,
      "start": 56.3443,
      "duration": 0.0962,
      "velocity": 117,
      "chip": "ym2612"
    },
    {
      "channel": 1,
      "note": 72,
      "start": 56.4609,
      "duration": 0.113,
      "velocity": 117,
      "chip": "ym2612"
    },
    {
      "channel": 2,
      "note": 57,
      "start": 56.5607,
      "duration": 0.0634,
      "velocity": 118,
      "chip": "ym2612"
    },
    {
      "channel": 4,
      "note": 77,
      "start": 56.564,
      "duration": 0.0932,
      "velocity": 117,
      "chip": "ym2612"
    },
    {
      "channel": 5,
      "note": 45,
      "start": 56.567,
      "duration": 0.0903,
      "velocity": 114,
      "chip": "ym2612"
    },
    {
      "channel": 1,
      "note": 75,
      "start": 56.6777,
      "duration": 0.1127,
      "velocity": 117,
      "chip": "ym2612"
    },
    {
      "channel": 2,
      "note": 57,
      "start": 56.7773,
      "duration": 0.0634,
      "velocity": 118,
      "chip": "ym2612"
    },
    {
      "channel": 4,
      "note": 68,
      "start": 56.7808,
      "duration": 0.0931,
      "velocity": 117,
      "chip": "ym2612"
    },
    {
      "channel": 5,
      "note": 45,
      "start": 56.784,
      "duration": 0.09,
      "velocity": 114,
      "chip": "ym2612"
    },
    {
      "channel": 1,
      "note": 77,
      "start": 56.8944,
      "duration": 0.1128,
      "velocity": 117,
      "chip": "ym2612"
    },
    {
      "channel": 5,
      "note": 33,
      "start": 56.9946,
      "duration": 0.096,
      "velocity": 114,
      "chip": "ym2612"
    },
    {
      "channel": 1,
      "note": 68,
      "start": 57.1112,
      "duration": 0.1126,
      "velocity": 117,
      "chip": "ym2612"
    },
    {
      "channel": 5,
      "note": 33,
      "start": 57.2112,
      "duration": 0.0794,
      "velocity": 114,
      "chip": "ym2612"
    },
    {
      "channel": 2,
      "note": 57,
      "start": 57.4273,
      "duration": 0.0468,
      "velocity": 118,
      "chip": "ym2612"
    },
    {
      "channel": 4,
      "note": 68,
      "start": 57.4308,
      "duration": 0.0764,
      "velocity": 117,
      "chip": "ym2612"
    },
    {
      "channel": 5,
      "note": 45,
      "start": 57.4337,
      "duration": 0.0737,
      "velocity": 114,
      "chip": "ym2612"
    },
    {
      "channel": 2,
      "note": 57,
      "start": 57.6441,
      "duration": 0.0466,
      "velocity": 118,
      "chip": "ym2612"
    },
    {
      "channel": 4,
      "note": 70,
      "start": 57.6474,
      "duration": 0.0766,
      "velocity": 117,
      "chip": "ym2612"
    },
    {
      "channel": 5,
      "note": 45,
      "start": 57.6504,
      "duration": 0.0737,
      "velocity": 114,
      "chip": "ym2612"
    },
    {
      "channel": 1,
      "note": 68,
      "start": 57.7445,
      "duration": 0.1294,
      "velocity": 117,
      "chip": "ym2612"
    },
    {
      "channel": 4,
      "note": 70,
      "start": 57.8615,
      "duration": 0.0791,
      "velocity": 117,
      "chip": "ym2612"
    },
    {
      "channel": 1,
      "note": 70,
      "start": 57.961,
      "duration": 0.1295,
      "velocity": 117,
      "chip": "ym2612"
    },
    {
      "channel": 4,
      "note": 70,
      "start": 58.0778,
      "duration": 0.0794,
      "velocity": 117,
      "chip": "ym2612"
    },
    {
      "channel": 1,
      "note": 70,
      "start": 58.1778,
      "duration": 0.1294,
      "velocity": 117,
      "chip": "ym2612"
    }
  ]
}