{
  "track_name": "02 - A Sport to Catch a Mackerel",
  "duration_sec": 76.035,
  "sample_rate": 44100,
  "note_count": 774,
  "unique_pitches": 38,
  "pitch_range": 62,
  "avg_note_duration": 0.2925,
  "reconstruction_stats": {
    "notes_reconstructed": 774,
    "keyon_events": 774,
    "keyoff_events": 774,
    "orphan_keyons": 0,
    "unique_pitches": 38,
    "pitch_range": 62,
    "avg_duration_sec": 0.2925
  },
  "metadata": {
    "source": "J\\James Pond II - Codename RoboCod\\02 - A Sport to Catch a Mackerel.vgz"
  },
  "notes": [
    {
      "channel": 0,
      "note": -1,
      "start": 0.038,
      "duration": 0.3147,
      "velocity": 100,
      "chip": "ym2612"
    },
    {
      "channel": 1,
      "note": -1,
      "start": 0.0395,
      "duration": 0.3132,
      "velocity": 100,
      "chip": "ym2612"
    },
    {
      "channel": 0,
      "note": 87,
      "start": 0.3696,
      "duration": 0.3165,
      "velocity": 100,
      "chip": "ym2612"
    },
    {
      "channel": 1,
      "note": 44,
      "start": 0.371,
      "duration": 0.3151,
      "velocity": 98,
      "chip": "ym2612"
    },
    {
      "channel": 2,
      "note": -1,
      "start": 0.3713,
      "duration": 0.315,
      "velocity": 98,
      "chip": "ym2612"
    },
    {
      "channel": 0,
      "note": 84,
      "start": 0.7029,
      "duration": 0.3165,
      "velocity": 100,
      "chip": "ym2612"
    },
    {
      "channel": 1,
      "note": 80,
      "start": 0.7044,
      "duration": 0.315,
      "velocity": 100,
      "chip": "ym2612"
    },
    {
      "channel": 0,
      "note": 80,
      "start": 1.0363,
      "duration": 0.3165,
      "velocity": 100,
      "chip": "ym2612"
    },
    {
      "channel": 1,
      "note": 39,
      "start": 1.0377,
      "duration": 0.3151,
      "velocity": 98,
      "chip": "ym2612"
    },
    {
      "channel": 2,
      "note": 72,
      "start": 1.038,
      "duration": 0.315,
      "velocity": 98,
      "chip": "ym2612"
    },
    {
      "channel": 0,
      "note": 75,
      "start": 1.3694,
      "duration": 0.15,
      "velocity": 100,
      "chip": "ym2612"
    },
    {
      "channel": 1,
      "note": 80,
      "start": 1.3712,
      "duration": 0.3149,
      "velocity": 100,
      "chip": "ym2612"
    },
    {
      "channel": 0,
      "note": 77,
      "start": 1.5361,
      "duration": 0.15,
      "velocity": 100,
      "chip": "ym2612"
    },
    {
      "channel": 0,
      "note": 79,
      "start": 1.7029,
      "duration": 0.3165,
      "velocity": 100,
      "chip": "ym2612"
    },
    {
      "channel": 1,
      "note": 37,
      "start": 1.7043,
      "duration": 0.3151,
      "velocity": 98,
      "chip": "ym2612"
    },
    {
      "channel": 2,
      "note": 72,
      "start": 1.7046,
      "duration": 0.3149,
      "velocity": 98,
      "chip": "ym2612"
    },
    {
      "channel": 0,
      "note": 80,
      "start": 2.0361,
      "duration": 0.65,
      "velocity": 100,
      "chip": "ym2612"
    },
    {
      "channel": 1,
      "note": 80,
      "start": 2.0376,
      "duration": 0.3153,
      "velocity": 100,
      "chip": "ym2612"
    },
    {
      "channel": 1,
      "note": 44,
      "start": 2.3709,
      "duration": 0.3153,
      "velocity": 98,
      "chip": "ym2612"
    },
    {
      "channel": 2,
      "note": 73,
      "start": 2.3711,
      "duration": 0.3152,
      "velocity": 98,
      "chip": "ym2612"
    },
    {
      "channel": 0,
      "note": 75,
      "start": 2.7031,
      "duration": 0.1498,
      "velocity": 100,
      "chip": "ym2612"
    },
    {
      "channel": 1,
      "note": 80,
      "start": 2.7046,
      "duration": 0.3151,
      "velocity": 100,
      "chip": "ym2612"
    },
    {
      "channel": 0,
      "note": 77,
      "start": 2.8695,
      "duration": 0.15,
      "velocity": 100,
      "chip": "ym2612"
    },
    {
      "channel": 0,
      "note": 79,
      "start": 3.0363,
      "duration": 0.3166,
      "velocity": 100,
      "chip": "ym2612"
    },
    {
      "channel": 1,
      "note": 37,
      "start": 3.0378,
      "duration": 0.3151,
      "velocity": 98,
      "chip": "ym2612"
    },
    {
      "channel": 2,
      "note": 72,
      "start": 3.038,
      "duration": 0.3151,
      "velocity": 98,
      "chip": "ym2612"
    },
    {
      "channel": 0,
      "note": 80,
      "start": 3.3696,
      "duration": 0.3165,
      "velocity": 100,
      "chip": "ym2612"
    },
    {
      "channel": 1,
      "note": 80,
      "start": 3.3712,
      "duration": 0.315,
      "velocity": 100,
      "chip": "ym2612"
    },
    {
      "channel": 0,
      "note": 75,
      "start": 3.703,
      "duration": 0.3164,
      "velocity": 100,
      "chip": "ym2612"
    },
    {
      "channel": 1,
      "note": 36,
      "start": 3.7045,
      "duration": 0.315,
      "velocity": 98,
      "chip": "ym2612"
    },
    {
      "channel": 2,
      "note": 73,
      "start": 3.7048,
      "duration": 0.3149,
      "velocity": 98,
      "chip": "ym2612"
    },
    {
      "channel": 0,
      "note": 84,
      "start": 4.0364,
      "duration": 0.3164,
      "velocity": 100,
      "chip": "ym2612"
    },
    {
      "channel": 1,
      "note": 80,
      "start": 4.0378,
      "duration": 0.3151,
      "velocity": 100,
      "chip": "ym2612"
    },
    {
      "channel": 0,
      "note": 82,
      "start": 4.3697,
      "duration": 0.3164,
      "velocity": 100,
      "chip": "ym2612"
    },
    {
      "channel": 1,
      "note": 34,
      "start": 4.3712,
      "duration": 0.315,
      "velocity": 98,
      "chip": "ym2612"
    },
    {
      "channel": 2,
      "note": 72,
      "start": 4.3714,
      "duration": 0.3149,
      "velocity": 98,
      "chip": "ym2612"
    },
    {
      "channel": 0,
      "note": 89,
      "start": 4.703,
      "duration": 0.6498,
      "velocity": 100,
      "chip": "ym2612"
    },
    {
      "channel": 1,
      "note": 82,
      "start": 4.7046,
      "duration": 0.3149,
      "velocity": 100,
      "chip": "ym2612"
    },
    {
      "channel": 1,
      "note": 39,
      "start": 5.0363,
      "duration": 0.3167,
      "velocity": 100,
      "chip": "ym2612"
    },
    {
      "channel": 2,
      "note": 74,
      "start": 5.0365,
      "duration": 0.3165,
      "velocity": 98,
      "chip": "ym2612"
    },
    {
      "channel": 0,
      "note": 87,
      "start": 5.3698,
      "duration": 0.3164,
      "velocity": 100,
      "chip": "ym2612"
    },
    {
      "channel": 1,
      "note": 39,
      "start": 5.3713,
      "duration": 0.315,
      "velocity": 100,
      "chip": "ym2612"
    },
    {
      "channel": 0,
      "note": 87,
      "start": 5.7029,
      "duration": 0.3166,
      "velocity": 100,
      "chip": "ym2612"
    },
    {
      "channel": 1,
      "note": 44,
      "start": 5.7044,
      "duration": 0.3151,
      "velocity": 98,
      "chip": "ym2612"
    },
    {
      "channel": 2,
      "note": 79,
      "start": 5.7047,
      "duration": 0.315,
      "velocity": 98,
      "chip": "ym2612"
    },
    {
      "channel": 0,
      "note": 84,
      "start": 6.0363,
      "duration": 0.3166,
      "velocity": 100,
      "chip": "ym2612"
    },
    {
      "channel": 1,
      "note": 80,
      "start": 6.0378,
      "duration": 0.3152,
      "velocity": 100,
      "chip": "ym2612"
    },
    {
      "channel": 0,
      "note": 80,
      "start": 6.3696,
      "duration": 0.3166,
      "velocity": 100,
      "chip": "ym2612"
    },
    {
      "channel": 1,
      "note": 36,
      "start": 6.3711,
      "duration": 0.3152,
      "velocity": 98,
      "chip": "ym2612"
    },
    {
      "channel": 2,
      "note": 72,
      "start": 6.3714,
      "duration": 0.315,
      "velocity": 98,
      "chip": "ym2612"
    },
    {
      "channel": 0,
      "note": 75,
      "start": 6.7031,
      "duration": 0.1498,
      "velocity": 100,
      "chip": "ym2612"
    },
    {
      "channel": 1,
      "note": 80,
      "start": 6.7046,
      "duration": 0.315,
      "velocity": 100,
      "chip": "ym2612"
    },
    {
      "channel": 0,
      "note": 77,
      "start": 6.8695,
      "duration": 0.15,
      "velocity": 100,
      "chip": "ym2612"
    },
    {
      "channel": 0,
      "note": 79,
      "start": 7.0363,
      "duration": 0.3166,
      "velocity": 100,
      "chip": "ym2612"
    },
    {
      "channel": 1,
      "note": 37,
      "start": 7.0378,
      "duration": 0.3151,
      "velocity": 98,
      "chip": "ym2612"
    },
    {
      "channel": 2,
      "note": 72,
      "start": 7.038,
      "duration": 0.315,
      "velocity": 98,
      "chip": "ym2612"
    },
    {
      "channel": 0,
      "note": 80,
      "start": 7.3696,
      "duration": 0.65,
      "velocity": 100,
      "chip": "ym2612"
    },
    {
      "channel": 1,
      "note": 80,
      "start": 7.3711,
      "duration": 0.3151,
      "velocity": 100,
      "chip": "ym2612"
    },
    {
      "channel": 1,
      "note": 36,
      "start": 7.7042,
      "duration": 0.3154,
      "velocity": 98,
      "chip": "ym2612"
    },
    {
      "channel": 2,
      "note": 73,
      "start": 7.7044,
      "duration": 0.3153,
      "velocity": 98,
      "chip": "ym2612"
    },
    {
      "channel": 0,
      "note": 75,
      "start": 8.0364,
      "duration": 0.3166,
      "velocity": 100,
      "chip": "ym2612"
    },
    {
      "channel": 1,
      "note": 80,
      "start": 8.0379,
      "duration": 0.3151,
      "velocity": 100,
      "chip": "ym2612"
    },
    {
      "channel": 2,
      "note": 72,
      "start": 8.0381,
      "duration": 0.3149,
      "velocity": 98,
      "chip": "ym2612"
    },
    {
      "channel": 0,
      "note": 85,
      "start": 8.3696,
      "duration": 0.3166,
      "velocity": 100,
      "chip": "ym2612"
    },
    {
      "channel": 1,
      "note": 37,
      "start": 8.3699,
      "duration": 0.3163,
      "velocity": 100,
      "chip": "ym2612"
    },
    {
      "channel": 2,
      "note": 68,
      "start": 8.3701,
      "duration": 0.3163,
      "velocity": 98,
      "chip": "ym2612"
    },
    {
      "channel": 0,
      "note": 89,
      "start": 8.7031,
      "duration": 0.3164,
      "velocity": 100,
      "chip": "ym2612"
    },
    {
      "channel": 1,
      "note": 38,
      "start": 8.7033,
      "duration": 0.6496,
      "velocity": 100,
      "chip": "ym2612"
    },
    {
      "channel": 2,
      "note": 68,
      "start": 8.7036,
      "duration": 0.6495,
      "velocity": 98,
      "chip": "ym2612"
    },
    {
      "channel": 0,
      "note": 87,
      "start": 9.0363,
      "duration": 0.1499,
      "velocity": 100,
      "chip": "ym2612"
    },
    {
      "channel": 0,
      "note": 80,
      "start": 9.2029,
      "duration": 0.15,
      "velocity": 100,
      "chip": "ym2612"
    },
    {
      "channel": 0,
      "note": 82,
      "start": 9.3698,
      "duration": 0.3164,
      "velocity": 100,
      "chip": "ym2612"
    },
    {
      "channel": 1,
      "note": 39,
      "start": 9.37,
      "duration": 0.3163,
      "velocity": 100,
      "chip": "ym2612"
    },
    {
      "channel": 2,
      "note": 68,
      "start": 9.3702,
      "duration": 0.3161,
      "velocity": 98,
      "chip": "ym2612"
    },
    {
      "channel": 0,
      "note": 84,
      "start": 9.7029,
      "duration": 0.3165,
      "velocity": 100,
      "chip": "ym2612"
    },
    {
      "channel": 1,
      "note": 39,
      "start": 9.7032,
      "duration": 0.3163,
      "velocity": 100,
      "chip": "ym2612"
    },
    {
      "channel": 2,
      "note": 68,
      "start": 9.7034,
      "duration": 0.3163,
      "velocity": 98,
      "chip": "ym2612"
    },
    {
      "channel": 0,
      "note": 82,
      "start": 10.0364,
      "duration": 0.6498,
      "velocity": 100,
      "chip": "ym2612"
    },
    {
      "channel": 1,
      "note": 39,
      "start": 10.0366,
      "duration": 0.6497,
      "velocity": 100,
      "chip": "ym2612"
    },
    {
      "channel": 2,
      "note": 67,
      "start": 10.0368,
      "duration": 0.6495,
      "velocity": 98,
      "chip": "ym2612"
    },
    {
      "channel": 0,
      "note": 80,
      "start": 10.7047,
      "duration": 0.3148,
      "velocity": 86,
      "chip": "ym2612"
    },
    {
      "channel": 1,
      "note": 44,
      "start": 10.7062,
      "duration": 0.3134,
      "velocity": 100,
      "chip": "ym2612"
    },
    {
      "channel": 0,
      "note": 75,
      "start": 11.0363,
      "duration": 0.3166,
      "velocity": 86,
      "chip": "ym2612"
    },
    {
      "channel": 1,
      "note": 44,
      "start": 11.0378,
      "duration": 0.3151,
      "velocity": 98,
      "chip": "ym2612"
    },
    {
      "channel": 2,
      "note": 68,
      "start": 11.038,
      "duration": 0.315,
      "velocity": 98,
      "chip": "ym2612"
    },
    {
      "channel": 0,
      "note": 72,
      "start": 11.3696,
      "duration": 0.3166,
      "velocity": 86,
      "chip": "ym2612"
    },
    {
      "channel": 1,
      "note": 80,
      "start": 11.3711,
      "duration": 0.3152,
      "velocity": 100,
      "chip": "ym2612"
    },
    {
      "channel": 0,
      "note": 68,
      "start": 11.703,
      "duration": 0.3166,
      "velocity": 86,
      "chip": "ym2612"
    },
    {
      "channel": 1,
      "note": 39,
      "start": 11.7045,
      "duration": 0.3151,
      "velocity": 98,
      "chip": "ym2612"
    },
    {
      "channel": 2,
      "note": 72,
      "start": 11.7047,
      "duration": 0.3151,
      "velocity": 98,
      "chip": "ym2612"
    },
    {
      "channel": 0,
      "note": 63,
      "start": 12.0363,
      "duration": 0.1499,
      "velocity": 86,
      "chip": "ym2612"
    },
    {
      "channel": 1,
      "note": 80,
      "start": 12.0378,
      "duration": 0.3151,
      "velocity": 100,
      "chip": "ym2612"
    },
    {
      "channel": 0,
      "note": 65,
      "start": 12.2029,
      "duration": 0.15,
      "velocity": 86,
      "chip": "ym2612"
    },
    {
      "channel": 0,
      "note": 67,
      "start": 12.3696,
      "duration": 0.3165,
      "velocity": 86,
      "chip": "ym2612"
    },
    {
      "channel": 1,
      "note": 37,
      "start": 12.3712,
      "duration": 0.315,
      "velocity": 98,
      "chip": "ym2612"
    },
    {
      "channel": 2,
      "note": 72,
      "start": 12.3714,
      "duration": 0.3149,
      "velocity": 98,
      "chip": "ym2612"
    },
    {
      "channel": 0,
      "note": 68,
      "start": 12.703,
      "duration": 0.6498,
      "velocity": 86,
      "chip": "ym2612"
    },
    {
      "channel": 1,
      "note": 80,
      "start": 12.7045,
      "duration": 0.315,
      "velocity": 100,
      "chip": "ym2612"
    },
    {
      "channel": 1,
      "note": 44,
      "start": 13.0376,
      "duration": 0.3153,
      "velocity": 98,
      "chip": "ym2612"
    },
    {
      "channel": 2,
      "note": 73,
      "start": 13.0378,
      "duration": 0.3152,
      "velocity": 98,
      "chip": "ym2612"
    },
    {
      "channel": 0,
      "note": 63,
      "start": 13.3698,
      "duration": 0.1497,
      "velocity": 86,
      "chip": "ym2612"
    },
    {
      "channel": 1,
      "note": 80,
      "start": 13.3713,
      "duration": 0.3149,
      "velocity": 100,
      "chip": "ym2612"
    },
    {
      "channel": 0,
      "note": 65,
      "start": 13.5363,
      "duration": 0.1499,
      "velocity": 86,
      "chip": "ym2612"
    },
    {
      "channel": 0,
      "note": 67,
      "start": 13.703,
      "duration": 0.3164,
      "velocity": 86,
      "chip": "ym2612"
    },
    {
      "channel": 1,
      "note": 37,
      "start": 13.7045,
      "duration": 0.3151,
      "velocity": 98,
      "chip": "ym2612"
    },
    {
      "channel": 2,
      "note": 72,
      "start": 13.7048,
      "duration": 0.3149,
      "velocity": 98,
      "chip": "ym2612"
    },
    {
      "channel": 0,
      "note": 68,
      "start": 14.0363,
      "duration": 0.3166,
      "velocity": 86,
      "chip": "ym2612"
    },
    {
      "channel": 1,
      "note": 80,
      "start": 14.0378,
      "duration": 0.3151,
      "velocity": 100,
      "chip": "ym2612"
    },
    {
      "channel": 0,
      "note": 63,
      "start": 14.3696,
      "duration": 0.3166,
      "velocity": 86,
      "chip": "ym2612"
    },
    {
      "channel": 1,
      "note": 36,
      "start": 14.3711,
      "duration": 0.3152,
      "velocity": 98,
      "chip": "ym2612"
    },
    {
      "channel": 2,
      "note": 73,
      "start": 14.3714,
      "duration": 0.315,
      "velocity": 98,
      "chip": "ym2612"
    },
    {
      "channel": 0,
      "note": 72,
      "start": 14.703,
      "duration": 0.3166,
      "velocity": 86,
      "chip": "ym2612"
    },
    {
      "channel": 1,
      "note": 80,
      "start": 14.7044,
      "duration": 0.3152,
      "velocity": 100,
      "chip": "ym2612"
    },
    {
      "channel": 0,
      "note": 70,
      "start": 15.0363,
      "duration": 0.3165,
      "velocity": 86,
      "chip": "ym2612"
    },
    {
      "channel": 1,
      "note": 34,
      "start": 15.0378,
      "duration": 0.315,
      "velocity": 98,
      "chip": "ym2612"
    },
    {
      "channel": 2,
      "note": 72,
      "start": 15.038,
      "duration": 0.3149,
      "velocity": 98,
      "chip": "ym2612"
    },
    {
      "channel": 0,
      "note": 77,
      "start": 15.3697,
      "duration": 0.6498,
      "velocity": 86,
      "chip": "ym2612"
    },
    {
      "channel": 1,
      "note": 82,
      "start": 15.3712,
      "duration": 0.315,
      "velocity": 100,
      "chip": "ym2612"
    },
    {
      "channel": 1,
      "note": 39,
      "start": 15.7029,
      "duration": 0.3166,
      "velocity": 100,
      "chip": "ym2612"
    },
    {
      "channel": 2,
      "note": 74,
      "start": 15.7031,
      "duration": 0.3165,
      "velocity": 98,
      "chip": "ym2612"
    },
    {
      "channel": 0,
      "note": 75,
      "start": 16.0364,
      "duration": 0.3163,
      "velocity": 86,
      "chip": "ym2612"
    },
    {
      "channel": 1,
      "note": 39,
      "start": 16.0379,
      "duration": 0.3149,
      "velocity": 100,
      "chip": "ym2612"
    },
    {
      "channel": 0,
      "note": 75,
      "start": 16.3697,
      "duration": 0.3164,
      "velocity": 86,
      "chip": "ym2612"
    },
    {
      "channel": 1,
      "note": 44,
      "start": 16.3712,
      "duration": 0.315,
      "velocity": 98,
      "chip": "ym2612"
    },
    {
      "channel": 2,
      "note": 79,
      "start": 16.3714,
      "duration": 0.3149,
      "velocity": 98,
      "chip": "ym2612"
    },
    {
      "channel": 0,
      "note": 72,
      "start": 16.703,
      "duration": 0.3164,
      "velocity": 86,
      "chip": "ym2612"
    },
    {
      "channel": 1,
      "note": 80,
      "start": 16.7045,
      "duration": 0.315,
      "velocity": 100,
      "chip": "ym2612"
    },
    {
      "channel": 0,
      "note": 68,
      "start": 17.0364,
      "duration": 0.3166,
      "velocity": 86,
      "chip": "ym2612"
    },
    {
      "channel": 1,
      "note": 36,
      "start": 17.0378,
      "duration": 0.3151,
      "velocity": 98,
      "chip": "ym2612"
    },
    {
      "channel": 2,
      "note": 72,
      "start": 17.0381,
      "duration": 0.315,
      "velocity": 98,
      "chip": "ym2612"
    },
    {
      "channel": 0,
      "note": 63,
      "start": 17.3696,
      "duration": 0.1498,
      "velocity": 86,
      "chip": "ym2612"
    },
    {
      "channel": 1,
      "note": 80,
      "start": 17.3712,
      "duration": 0.315,
      "velocity": 100,
      "chip": "ym2612"
    },
    {
      "channel": 0,
      "note": 65,
      "start": 17.5363,
      "duration": 0.1499,
      "velocity": 86,
      "chip": "ym2612"
    },
    {
      "channel": 0,
      "note": 67,
      "start": 17.703,
      "duration": 0.3164,
      "velocity": 86,
      "chip": "ym2612"
    },
    {
      "channel": 1,
      "note": 37,
      "start": 17.7045,
      "duration": 0.3151,
      "velocity": 98,
      "chip": "ym2612"
    },
    {
      "channel": 2,
      "note": 72,
      "start": 17.7048,
      "duration": 0.3149,
      "velocity": 98,
      "chip": "ym2612"
    },
    {
      "channel": 0,
      "note": 68,
      "start": 18.0364,
      "duration": 0.6499,
      "velocity": 86,
      "chip": "ym2612"
    },
    {
      "channel": 1,
      "note": 80,
      "start": 18.0379,
      "duration": 0.3149,
      "velocity": 100,
      "chip": "ym2612"
    },
    {
      "channel": 1,
      "note": 36,
      "start": 18.3709,
      "duration": 0.3154,
      "velocity": 98,
      "chip": "ym2612"
    },
    {
      "channel": 2,
      "note": 73,
      "start": 18.3711,
      "duration": 0.3153,
      "velocity": 98,
      "chip": "ym2612"
    },
    {
      "channel": 0,
      "note": 63,
      "start": 18.703,
      "duration": 0.3165,
      "velocity": 86,
      "chip": "ym2612"
    },
    {
      "channel": 1,
      "note": 80,
      "start": 18.7046,
      "duration": 0.3151,
      "velocity": 100,
      "chip": "ym2612"
    },
    {
      "channel": 2,
      "note": 72,
      "start": 18.7048,
      "duration": 0.3149,
      "velocity": 98,
      "chip": "ym2612"
    },
    {
      "channel": 0,
      "note": 73,
      "start": 19.0363,
      "duration": 0.3166,
      "velocity": 86,
      "chip": "ym2612"
    },
    {
      "channel": 1,
      "note": 37,
      "start": 19.0365,
      "duration": 0.3164,
      "velocity": 100,
      "chip": "ym2612"
    },
    {
      "channel": 2,
      "note": 68,
      "start": 19.0368,
      "duration": 0.3162,
      "velocity": 98,
      "chip": "ym2612"
    },
    {
      "channel": 0,
      "note": 77,
      "start": 19.3697,
      "duration": 0.3164,
      "velocity": 86,
      "chip": "ym2612"
    },
    {
      "channel": 1,
      "note": 38,
      "start": 19.37,
      "duration": 0.6496,
      "velocity": 100,
      "chip": "ym2612"
    },
    {
      "channel": 2,
      "note": 68,
      "start": 19.3702,
      "duration": 0.6495,
      "velocity": 98,
      "chip": "ym2612"
    },
    {
      "channel": 0,
      "note": 75,
      "start": 19.7029,
      "duration": 0.1499,
      "velocity": 86,
      "chip": "ym2612"
    },
    {
      "channel": 0,
      "note": 68,
      "start": 19.8696,
      "duration": 0.1499,
      "velocity": 86,
      "chip": "ym2612"
    },
    {
      "channel": 0,
      "note": 70,
      "start": 20.0364,
      "duration": 0.3166,
      "velocity": 86,
      "chip": "ym2612"
    },
    {
      "channel": 1,
      "note": 39,
      "start": 20.0366,
      "duration": 0.3163,
      "velocity": 100,
      "chip": "ym2612"
    },
    {
      "channel": 2,
      "note": 68,
      "start": 20.0368,
      "duration": 0.3163,
      "velocity": 98,
      "chip": "ym2612"
    },
    {
      "channel": 0,
      "note": 72,
      "start": 20.3696,
      "duration": 0.3166,
      "velocity": 86,
      "chip": "ym2612"
    },
    {
      "channel": 1,
      "note": 39,
      "start": 20.3699,
      "duration": 0.3164,
      "velocity": 100,
      "chip": "ym2612"
    },
    {
      "channel": 2,
      "note": 68,
      "start": 20.3701,
      "duration": 0.3163,
      "velocity": 98,
      "chip": "ym2612"
    },
    {
      "channel": 0,
      "note": 70,
      "start": 20.7031,
      "duration": 0.6498,
      "velocity": 86,
      "chip": "ym2612"
    },
    {
      "channel": 1,
      "note": 39,
      "start": 20.7034,
      "duration": 0.6496,
      "velocity": 100,
      "chip": "ym2612"
    },
    {
      "channel": 2,
      "note": 67,
      "start": 20.7036,
      "duration": 0.6495,
      "velocity": 98,
      "chip": "ym2612"
    },
    {
      "channel": 0,
      "note": 68,
      "start": 21.3714,
      "duration": 0.3148,
      "velocity": 100,
      "chip": "ym2612"
    },
    {
      "channel": 1,
      "note": 44,
      "start": 21.3729,
      "duration": 0.3134,
      "velocity": 100,
      "chip": "ym2612"
    },
    {
      "channel": 0,
      "note": 94,
      "start": 21.703,
      "duration": 0.3166,
      "velocity": 100,
      "chip": "ym2612"
    },
    {
      "channel": 1,
      "note": 51,
      "start": 21.7046,
      "duration": 0.3151,
      "velocity": 98,
      "chip": "ym2612"
    },
    {
      "channel": 2,
      "note": 68,
      "start": 21.7048,
      "duration": 0.3149,
      "velocity": 98,
      "chip": "ym2612"
    },
    {
      "channel": 3,
      "note": -1,
      "start": 21.705,
      "duration": 0.8146,
      "velocity": 86,
      "chip": "ym2612"
    },
    {
      "channel": 0,
      "note": 91,
      "start": 22.0363,
      "duration": 0.3165,
      "velocity": 100,
      "chip": "ym2612"
    },
    {
      "channel": 1,
      "note": 87,
      "start": 22.0378,
      "duration": 0.315,
      "velocity": 100,
      "chip": "ym2612"
    },
    {
      "channel": 0,
      "note": 87,
      "start": 22.3697,
      "duration": 0.3165,
      "velocity": 100,
      "chip": "ym2612"
    },
    {
      "channel": 1,
      "note": 46,
      "start": 22.3712,
      "duration": 0.3151,
      "velocity": 98,
      "chip": "ym2612"
    },
    {
      "channel": 2,
      "note": 79,
      "start": 22.3714,
      "duration": 0.3149,
      "velocity": 98,
      "chip": "ym2612"
    },
    {
      "channel": 3,
      "note": 75,
      "start": 22.5363,
      "duration": 0.1501,
      "velocity": 86,
      "chip": "ym2612"
    },
    {
      "channel": 0,
      "note": 82,
      "start": 22.7032,
      "duration": 0.1496,
      "velocity": 100,
      "chip": "ym2612"
    },
    {
      "channel": 1,
      "note": 87,
      "start": 22.7047,
      "duration": 0.3149,
      "velocity": 100,
      "chip": "ym2612"
    },
    {
      "channel": 3,
      "note": 74,
      "start": 22.705,
      "duration": 0.3148,
      "velocity": 86,
      "chip": "ym2612"
    },
    {
      "channel": 0,
      "note": 84,
      "start": 22.8696,
      "duration": 0.1499,
      "velocity": 100,
      "chip": "ym2612"
    },
    {
      "channel": 0,
      "note": 86,
      "start": 23.0364,
      "duration": 0.3163,
      "velocity": 100,
      "chip": "ym2612"
    },
    {
      "channel": 1,
      "note": 44,
      "start": 23.038,
      "duration": 0.3149,
      "velocity": 98,
      "chip": "ym2612"
    },
    {
      "channel": 2,
      "note": 79,
      "start": 23.0382,
      "duration": 0.3148,
      "velocity": 98,
      "chip": "ym2612"
    },
    {
      "channel": 3,
      "note": 72,
      "start": 23.0384,
      "duration": 0.3146,
      "velocity": 86,
      "chip": "ym2612"
    },
    {
      "channel": 0,
      "note": 87,
      "start": 23.3698,
      "duration": 0.6498,
      "velocity": 100,
      "chip": "ym2612"
    },
    {
      "channel": 1,
      "note": 87,
      "start": 23.3712,
      "duration": 0.3149,
      "velocity": 100,
      "chip": "ym2612"
    },
    {
      "channel": 3,
      "note": 68,
      "start": 23.3716,
      "duration": 0.6482,
      "velocity": 86,
      "chip": "ym2612"
    },
    {
      "channel": 1,
      "note": 51,
      "start": 23.7043,
      "duration": 0.3153,
      "velocity": 98,
      "chip": "ym2612"
    },
    {
      "channel": 2,
      "note": 80,
      "start": 23.7045,
      "duration": 0.3151,
      "velocity": 98,
      "chip": "ym2612"
    },
    {
      "channel": 0,
      "note": 82,
      "start": 24.0364,
      "duration": 0.1497,
      "velocity": 100,
      "chip": "ym2612"
    },
    {
      "channel": 1,
      "note": 87,
      "start": 24.038,
      "duration": 0.315,
      "velocity": 100,
      "chip": "ym2612"
    },
    {
      "channel": 3,
      "note": 70,
      "start": 24.0383,
      "duration": 0.3148,
      "velocity": 86,
      "chip": "ym2612"
    },
    {
      "channel": 0,
      "note": 84,
      "start": 24.2029,
      "duration": 0.1499,
      "velocity": 100,
      "chip": "ym2612"
    },
    {
      "channel": 0,
      "note": 86,
      "start": 24.3698,
      "duration": 0.3163,
      "velocity": 100,
      "chip": "ym2612"
    },
    {
      "channel": 1,
      "note": 44,
      "start": 24.3712,
      "duration": 0.3149,
      "velocity": 98,
      "chip": "ym2612"
    },
    {
      "channel": 2,
      "note": 79,
      "start": 24.3715,
      "duration": 0.3148,
      "velocity": 98,
      "chip": "ym2612"
    },
    {
      "channel": 3,
      "note": 72,
      "start": 24.3717,
      "duration": 0.3147,
      "velocity": 86,
      "chip": "ym2612"
    },
    {
      "channel": 0,
      "note": 87,
      "start": 24.7029,
      "duration": 0.3167,
      "velocity": 100,
      "chip": "ym2612"
    },
    {
      "channel": 1,
      "note": 87,
      "start": 24.7044,
      "duration": 0.3152,
      "velocity": 100,
      "chip": "ym2612"
    },
    {
      "channel": 3,
      "note": 68,
      "start": 24.7048,
      "duration": 0.3151,
      "velocity": 86,
      "chip": "ym2612"
    },
    {
      "channel": 0,
      "note": 82,
      "start": 25.0364,
      "duration": 0.3165,
      "velocity": 100,
      "chip": "ym2612"
    },
    {
      "channel": 1,
      "note": 43,
      "start": 25.0379,
      "duration": 0.3151,
      "velocity": 98,
      "chip": "ym2612"
    },
    {
      "channel": 2,
      "note": 80,
      "start": 25.0381,
      "duration": 0.3149,
      "velocity": 98,
      "chip": "ym2612"
    },
    {
      "channel": 3,
      "note": 70,
      "start": 25.0383,
      "duration": 0.3148,
      "velocity": 86,
      "chip": "ym2612"
    },
    {
      "channel": 0,
      "note": 91,
      "start": 25.3697,
      "duration": 0.3165,
      "velocity": 100,
      "chip": "ym2612"
    },
    {
      "channel": 1,
      "note": 87,
      "start": 25.3712,
      "duration": 0.3151,
      "velocity": 100,
      "chip": "ym2612"
    },
    {
      "channel": 3,
      "note": 67,
      "start": 25.3715,
      "duration": 0.3149,
      "velocity": 86,
      "chip": "ym2612"
    },
    {
      "channel": 0,
      "note": 89,
      "start": 25.703,
      "duration": 0.3165,
      "velocity": 100,
      "chip": "ym2612"
    },
    {
      "channel": 1,
      "note": 41,
      "start": 25.7045,
      "duration": 0.315,
      "velocity": 98,
      "chip": "ym2612"
    },
    {
      "channel": 2,
      "note": 79,
      "start": 25.7047,
      "duration": 0.3149,
      "velocity": 98,
      "chip": "ym2612"
    },
    {
      "channel": 3,
      "note": 69,
      "start": 25.7049,
      "duration": 0.148,
      "velocity": 86,
      "chip": "ym2612"
    },
    {
      "channel": 3,
      "note": 65,
      "start": 25.8697,
      "duration": 0.15,
      "velocity": 86,
      "chip": "ym2612"
    },
    {
      "channel": 0,
      "note": 96,
      "start": 26.0364,
      "duration": 0.6498,
      "velocity": 100,
      "chip": "ym2612"
    },
    {
      "channel": 1,
      "note": 89,
      "start": 26.0379,
      "duration": 0.315,
      "velocity": 100,
      "chip": "ym2612"
    },
    {
      "channel": 3,
      "note": 67,
      "start": 26.0382,
      "duration": 0.1481,
      "velocity": 86,
      "chip": "ym2612"
    },
    {
      "channel": 3,
      "note": 68,
      "start": 26.203,
      "duration": 0.1501,
      "velocity": 86,
      "chip": "ym2612"
    },
    {
      "channel": 1,
      "note": 46,
      "start": 26.3697,
      "duration": 0.3166,
      "velocity": 100,
      "chip": "ym2612"
    },
    {
      "channel": 2,
      "note": 81,
      "start": 26.3699,
      "duration": 0.3165,
      "velocity": 98,
      "chip": "ym2612"
    },
    {
      "channel": 3,
      "note": 67,
      "start": 26.3702,
      "duration": 0.3163,
      "velocity": 86,
      "chip": "ym2612"
    },
    {
      "channel": 0,
      "note": 94,
      "start": 26.7032,
      "duration": 0.3163,
      "velocity": 100,
      "chip": "ym2612"
    },
    {
      "channel": 1,
      "note": 46,
      "start": 26.7046,
      "duration": 0.315,
      "velocity": 100,
      "chip": "ym2612"
    },
    {
      "channel": 3,
      "note": 65,
      "start": 26.7049,
      "duration": 0.3148,
      "velocity": 86,
      "chip": "ym2612"
    },
    {
      "channel": 0,
      "note": 94,
      "start": 27.0364,
      "duration": 0.3163,
      "velocity": 100,
      "chip": "ym2612"
    },
    {
      "channel": 1,
      "note": 51,
      "start": 27.038,
      "duration": 0.315,
      "velocity": 98,
      "chip": "ym2612"
    },
    {
      "channel": 2,
      "note": 86,
      "start": 27.0382,
      "duration": 0.3148,
      "velocity": 98,
      "chip": "ym2612"
    },
    {
      "channel": 3,
      "note": 63,
      "start": 27.0384,
      "duration": 0.8145,
      "velocity": 86,
      "chip": "ym2612"
    },
    {
      "channel": 0,
      "note": 91,
      "start": 27.3696,
      "duration": 0.3166,
      "velocity": 100,
      "chip": "ym2612"
    },
    {
      "channel": 1,
      "note": 87,
      "start": 27.3711,
      "duration": 0.3151,
      "velocity": 100,
      "chip": "ym2612"
    },
    {
      "channel": 0,
      "note": 87,
      "start": 27.7029,
      "duration": 0.3165,
      "velocity": 100,
      "chip": "ym2612"
    },
    {
      "channel": 1,
      "note": 43,
      "start": 27.7044,
      "duration": 0.3151,
      "velocity": 98,
      "chip": "ym2612"
    },
    {
      "channel": 2,
      "note": 79,
      "start": 27.7047,
      "duration": 0.3149,
      "velocity": 98,
      "chip": "ym2612"
    },
    {
      "channel": 3,
      "note": 75,
      "start": 27.8697,
      "duration": 0.1501,
      "velocity": 86,
      "chip": "ym2612"
    },
    {
      "channel": 0,
      "note": 82,
      "start": 28.0364,
      "duration": 0.1498,
      "velocity": 100,
      "chip": "ym2612"
    },
    {
      "channel": 1,
      "note": 87,
      "start": 28.038,
      "duration": 0.315,
      "velocity": 100,
      "chip": "ym2612"
    },
    {
      "channel": 3,
      "note": 74,
      "start": 28.0383,
      "duration": 0.3149,
      "velocity": 86,
      "chip": "ym2612"
    },
    {
      "channel": 0,
      "note": 84,
      "start": 28.2029,
      "duration": 0.15,
      "velocity": 100,
      "chip": "ym2612"
    },
    {
      "channel": 0,
      "note": 86,
      "start": 28.3697,
      "duration": 0.3166,
      "velocity": 100,
      "chip": "ym2612"
    },
    {
      "channel": 1,
      "note": 44,
      "start": 28.3712,
      "duration": 0.3151,
      "velocity": 98,
      "chip": "ym2612"
    },
    {
      "channel": 2,
      "note": 79,
      "start": 28.3714,
      "duration": 0.315,
      "velocity": 98,
      "chip": "ym2612"
    },
    {
      "channel": 3,
      "note": 72,
      "start": 28.3717,
      "duration": 0.3148,
      "velocity": 86,
      "chip": "ym2612"
    },
    {
      "channel": 0,
      "note": 87,
      "start": 28.703,
      "duration": 0.6498,
      "velocity": 100,
      "chip": "ym2612"
    },
    {
      "channel": 1,
      "note": 87,
      "start": 28.7046,
      "duration": 0.315,
      "velocity": 100,
      "chip": "ym2612"
    },
    {
      "channel": 3,
      "note": 68,
      "start": 28.7049,
      "duration": 0.6481,
      "velocity": 86,
      "chip": "ym2612"
    },
    {
      "channel": 1,
      "note": 43,
      "start": 29.0376,
      "duration": 0.3153,
      "velocity": 98,
      "chip": "ym2612"
    },
    {
      "channel": 2,
      "note": 80,
      "start": 29.0378,
      "duration": 0.3152,
      "velocity": 98,
      "chip": "ym2612"
    },
    {
      "channel": 0,
      "note": 82,
      "start": 29.3699,
      "duration": 0.3163,
      "velocity": 100,
      "chip": "ym2612"
    },
    {
      "channel": 1,
      "note": 87,
      "start": 29.3714,
      "duration": 0.3149,
      "velocity": 100,
      "chip": "ym2612"
    },
    {
      "channel": 2,
      "note": 79,
      "start": 29.3716,
      "duration": 0.3148,
      "velocity": 98,
      "chip": "ym2612"
    },
    {
      "channel": 3,
      "note": 70,
      "start": 29.3718,
      "duration": 0.1478,
      "velocity": 86,
      "chip": "ym2612"
    },
    {
      "channel": 3,
      "note": 75,
      "start": 29.5363,
      "duration": 0.1501,
      "velocity": 86,
      "chip": "ym2612"
    },
    {
      "channel": 0,
      "note": 92,
      "start": 29.703,
      "duration": 0.3164,
      "velocity": 100,
      "chip": "ym2612"
    },
    {
      "channel": 1,
      "note": 44,
      "start": 29.7032,
      "duration": 0.3163,
      "velocity": 100,
      "chip": "ym2612"
    },
    {
      "channel": 2,
      "note": 75,
      "start": 29.7035,
      "duration": 0.3161,
      "velocity": 98,
      "chip": "ym2612"
    },
    {
      "channel": 3,
      "note": 74,
      "start": 29.7037,
      "duration": 0.1492,
      "velocity": 86,
      "chip": "ym2612"
    },
    {
      "channel": 3,
      "note": 75,
      "start": 29.8697,
      "duration": 0.15,
      "velocity": 86,
      "chip": "ym2612"
    },
    {
      "channel": 0,
      "note": 96,
      "start": 30.0364,
      "duration": 0.3165,
      "velocity": 100,
      "chip": "ym2612"
    },
    {
      "channel": 1,
      "note": 45,
      "start": 30.0366,
      "duration": 0.6497,
      "velocity": 100,
      "chip": "ym2612"
    },
    {
      "channel": 2,
      "note": 75,
      "start": 30.0368,
      "duration": 0.6496,
      "velocity": 98,
      "chip": "ym2612"
    },
    {
      "channel": 3,
      "note": 72,
      "start": 30.0371,
      "duration": 0.3159,
      "velocity": 86,
      "chip": "ym2612"
    },
    {
      "channel": 0,
      "note": 94,
      "start": 30.3697,
      "duration": 0.1498,
      "velocity": 100,
      "chip": "ym2612"
    },
    {
      "channel": 3,
      "note": 70,
      "start": 30.37,
      "duration": 0.1496,
      "velocity": 86,
      "chip": "ym2612"
    },
    {
      "channel": 0,
      "note": 87,
      "start": 30.5363,
      "duration": 0.15,
      "velocity": 100,
      "chip": "ym2612"
    },
    {
      "channel": 3,
      "note": 67,
      "start": 30.5366,
      "duration": 0.1499,
      "velocity": 86,
      "chip": "ym2612"
    },
    {
      "channel": 0,
      "note": 89,
      "start": 30.703,
      "duration": 0.3164,
      "velocity": 100,
      "chip": "ym2612"
    },
    {
      "channel": 1,
      "note": 46,
      "start": 30.7033,
      "duration": 0.3162,
      "velocity": 100,
      "chip": "ym2612"
    },
    {
      "channel": 2,
      "note": 75,
      "start": 30.7035,
      "duration": 0.3161,
      "velocity": 98,
      "chip": "ym2612"
    },
    {
      "channel": 3,
      "note": 68,
      "start": 30.7037,
      "duration": 0.1492,
      "velocity": 86,
      "chip": "ym2612"
    },
    {
      "channel": 3,
      "note": 70,
      "start": 30.8697,
      "duration": 0.15,
      "velocity": 86,
      "chip": "ym2612"
    },
    {
      "channel": 0,
      "note": 91,
      "start": 31.0364,
      "duration": 0.3165,
      "velocity": 100,
      "chip": "ym2612"
    },
    {
      "channel": 1,
      "note": 46,
      "start": 31.0366,
      "duration": 0.3163,
      "velocity": 100,
      "chip": "ym2612"
    },
    {
      "channel": 2,
      "note": 75,
      "start": 31.0368,
      "duration": 0.3162,
      "velocity": 98,
      "chip": "ym2612"
    },
    {
      "channel": 3,
      "note": 67,
      "start": 31.0371,
      "duration": 0.316,
      "velocity": 86,
      "chip": "ym2612"
    },
    {
      "channel": 0,
      "note": 89,
      "start": 31.3698,
      "duration": 0.6498,
      "velocity": 100,
      "chip": "ym2612"
    },
    {
      "channel": 1,
      "note": 46,
      "start": 31.37,
      "duration": 0.6496,
      "velocity": 100,
      "chip": "ym2612"
    },
    {
      "channel": 2,
      "note": 74,
      "start": 31.3702,
      "duration": 0.6495,
      "velocity": 98,
      "chip": "ym2612"
    },
    {
      "channel": 3,
      "note": 68,
      "start": 31.3705,
      "duration": 0.6493,
      "velocity": 86,
      "chip": "ym2612"
    },
    {
      "channel": 0,
      "note": 87,
      "start": 32.0382,
      "duration": 0.3147,
      "velocity": 86,
      "chip": "ym2612"
    },
    {
      "channel": 1,
      "note": 51,
      "start": 32.0397,
      "duration": 0.3132,
      "velocity": 100,
      "chip": "ym2612"
    },
    {
      "channel": 0,
      "note": 75,
      "start": 32.3696,
      "duration": 0.3166,
      "velocity": 86,
      "chip": "ym2612"
    },
    {
      "channel": 1,
      "note": 44,
      "start": 32.3711,
      "duration": 0.3151,
      "velocity": 98,
      "chip": "ym2612"
    },
    {
      "channel": 2,
      "note": 75,
      "start": 32.3714,
      "duration": 0.315,
      "velocity": 98,
      "chip": "ym2612"
    },
    {
      "channel": 0,
      "note": 72,
      "start": 32.703,
      "duration": 0.3166,
      "velocity": 86,
      "chip": "ym2612"
    },
    {
      "channel": 1,
      "note": 80,
      "start": 32.7044,
      "duration": 0.3151,
      "velocity": 100,
      "chip": "ym2612"
    },
    {
      "channel": 0,
      "note": 68,
      "start": 33.0363,
      "duration": 0.3166,
      "velocity": 86,
      "chip": "ym2612"
    },
    {
      "channel": 1,
      "note": 39,
      "start": 33.0378,
      "duration": 0.3151,
      "velocity": 98,
      "chip": "ym2612"
    },
    {
      "channel": 2,
      "note": 72,
      "start": 33.038,
      "duration": 0.315,
      "velocity": 98,
      "chip": "ym2612"
    },
    {
      "channel": 0,
      "note": 63,
      "start": 33.3698,
      "duration": 0.1498,
      "velocity": 86,
      "chip": "ym2612"
    },
    {
      "channel": 1,
      "note": 80,
      "start": 33.3712,
      "duration": 0.315,
      "velocity": 100,
      "chip": "ym2612"
    },
    {
      "channel": 0,
      "note": 65,
      "start": 33.5362,
      "duration": 0.15,
      "velocity": 86,
      "chip": "ym2612"
    },
    {
      "channel": 0,
      "note": 67,
      "start": 33.703,
      "duration": 0.3166,
      "velocity": 86,
      "chip": "ym2612"
    },
    {
      "channel": 1,
      "note": 37,
      "start": 33.7044,
      "duration": 0.3151,
      "velocity": 98,
      "chip": "ym2612"
    },
    {
      "channel": 2,
      "note": 72,
      "start": 33.7047,
      "duration": 0.315,
      "velocity": 98,
      "chip": "ym2612"
    },
    {
      "channel": 0,
      "note": 68,
      "start": 34.0363,
      "duration": 0.6498,
      "velocity": 86,
      "chip": "ym2612"
    },
    {
      "channel": 1,
      "note": 80,
      "start": 34.0378,
      "duration": 0.3151,
      "velocity": 100,
      "chip": "ym2612"
    },
    {
      "channel": 1,
      "note": 44,
      "start": 34.3709,
      "duration": 0.3153,
      "velocity": 98,
      "chip": "ym2612"
    },
    {
      "channel": 2,
      "note": 73,
      "start": 34.3711,
      "duration": 0.3152,
      "velocity": 98,
      "chip": "ym2612"
    },
    {
      "channel": 0,
      "note": 63,
      "start": 34.703,
      "duration": 0.1498,
      "velocity": 86,
      "chip": "ym2612"
    },
    {
      "channel": 1,
      "note": 80,
      "start": 34.7046,
      "duration": 0.3151,
      "velocity": 100,
      "chip": "ym2612"
    },
    {
      "channel": 0,
      "note": 65,
      "start": 34.8695,
      "duration": 0.15,
      "velocity": 86,
      "chip": "ym2612"
    },
    {
      "channel": 0,
      "note": 67,
      "start": 35.0363,
      "duration": 0.3166,
      "velocity": 86,
      "chip": "ym2612"
    },
    {
      "channel": 1,
      "note": 37,
      "start": 35.0378,
      "duration": 0.3151,
      "velocity": 98,
      "chip": "ym2612"
    },
    {
      "channel": 2,
      "note": 72,
      "start": 35.038,
      "duration": 0.315,
      "velocity": 98,
      "chip": "ym2612"
    },
    {
      "channel": 0,
      "note": 68,
      "start": 35.3696,
      "duration": 0.3165,
      "velocity": 86,
      "chip": "ym2612"
    },
    {
      "channel": 1,
      "note": 80,
      "start": 35.3712,
      "duration": 0.315,
      "velocity": 100,
      "chip": "ym2612"
    },
    {
      "channel": 0,
      "note": 63,
      "start": 35.703,
      "duration": 0.3166,
      "velocity": 86,
      "chip": "ym2612"
    },
    {
      "channel": 1,
      "note": 36,
      "start": 35.7045,
      "duration": 0.3151,
      "velocity": 98,
      "chip": "ym2612"
    },
    {
      "channel": 2,
      "note": 73,
      "start": 35.7048,
      "duration": 0.315,
      "velocity": 98,
      "chip": "ym2612"
    },
    {
      "channel": 0,
      "note": 72,
      "start": 36.0363,
      "duration": 0.3165,
      "velocity": 86,
      "chip": "ym2612"
    },
    {
      "channel": 1,
      "note": 80,
      "start": 36.0378,
      "duration": 0.315,
      "velocity": 100,
      "chip": "ym2612"
    },
    {
      "channel": 0,
      "note": 70,
      "start": 36.3697,
      "duration": 0.3164,
      "velocity": 86,
      "chip": "ym2612"
    },
    {
      "channel": 1,
      "note": 34,
      "start": 36.3712,
      "duration": 0.3151,
      "velocity": 98,
      "chip": "ym2612"
    },
    {
      "channel": 2,
      "note": 72,
      "start": 36.3714,
      "duration": 0.3149,
      "velocity": 98,
      "chip": "ym2612"
    },
    {
      "channel": 0,
      "note": 77,
      "start": 36.703,
      "duration": 0.6498,
      "velocity": 86,
      "chip": "ym2612"
    },
    {
      "channel": 1,
      "note": 82,
      "start": 36.7046,
      "duration": 0.3149,
      "velocity": 100,
      "chip": "ym2612"
    },
    {
      "channel": 1,
      "note": 39,
      "start": 37.0363,
      "duration": 0.3167,
      "velocity": 100,
      "chip": "ym2612"
    },
    {
      "channel": 2,
      "note": 74,
      "start": 37.0365,
      "duration": 0.3165,
      "velocity": 98,
      "chip": "ym2612"
    },
    {
      "channel": 0,
      "note": 75,
      "start": 37.3698,
      "duration": 0.3163,
      "velocity": 86,
      "chip": "ym2612"
    },
    {
      "channel": 1,
      "note": 39,
      "start": 37.3713,
      "duration": 0.315,
      "velocity": 100,
      "chip": "ym2612"
    },
    {
      "channel": 0,
      "note": 75,
      "start": 37.7029,
      "duration": 0.3166,
      "velocity": 86,
      "chip": "ym2612"
    },
    {
      "channel": 1,
      "note": 44,
      "start": 37.7044,
      "duration": 0.3151,
      "velocity": 98,
      "chip": "ym2612"
    },
    {
      "channel": 2,
      "note": 79,
      "start": 37.7046,
      "duration": 0.3151,
      "velocity": 98,
      "chip": "ym2612"
    },
    {
      "channel": 0,
      "note": 72,
      "start": 38.0363,
      "duration": 0.3166,
      "velocity": 86,
      "chip": "ym2612"
    },
    {
      "channel": 1,
      "note": 80,
      "start": 38.0378,
      "duration": 0.3151,
      "velocity": 100,
      "chip": "ym2612"
    },
    {
      "channel": 0,
      "note": 68,
      "start": 38.3696,
      "duration": 0.3166,
      "velocity": 86,
      "chip": "ym2612"
    },
    {
      "channel": 1,
      "note": 36,
      "start": 38.3711,
      "duration": 0.3151,
      "velocity": 98,
      "chip": "ym2612"
    },
    {
      "channel": 2,
      "note": 72,
      "start": 38.3714,
      "duration": 0.315,
      "velocity": 98,
      "chip": "ym2612"
    },
    {
      "channel": 0,
      "note": 63,
      "start": 38.7031,
      "duration": 0.1498,
      "velocity": 86,
      "chip": "ym2612"
    },
    {
      "channel": 1,
      "note": 80,
      "start": 38.7046,
      "duration": 0.315,
      "velocity": 100,
      "chip": "ym2612"
    },
    {
      "channel": 0,
      "note": 65,
      "start": 38.8695,
      "duration": 0.15,
      "velocity": 86,
      "chip": "ym2612"
    },
    {
      "channel": 0,
      "note": 67,
      "start": 39.0364,
      "duration": 0.3164,
      "velocity": 86,
      "chip": "ym2612"
    },
    {
      "channel": 1,
      "note": 37,
      "start": 39.0379,
      "duration": 0.315,
      "velocity": 98,
      "chip": "ym2612"
    },
    {
      "channel": 2,
      "note": 72,
      "start": 39.0382,
      "duration": 0.3149,
      "velocity": 98,
      "chip": "ym2612"
    },
    {
      "channel": 0,
      "note": 68,
      "start": 39.3696,
      "duration": 0.65,
      "velocity": 86,
      "chip": "ym2612"
    },
    {
      "channel": 1,
      "note": 80,
      "start": 39.3711,
      "duration": 0.3151,
      "velocity": 100,
      "chip": "ym2612"
    },
    {
      "channel": 1,
      "note": 36,
      "start": 39.7042,
      "duration": 0.3154,
      "velocity": 98,
      "chip": "ym2612"
    },
    {
      "channel": 2,
      "note": 73,
      "start": 39.7044,
      "duration": 0.3153,
      "velocity": 98,
      "chip": "ym2612"
    },
    {
      "channel": 0,
      "note": 63,
      "start": 40.0364,
      "duration": 0.3166,
      "velocity": 86,
      "chip": "ym2612"
    },
    {
      "channel": 1,
      "note": 80,
      "start": 40.0379,
      "duration": 0.3151,
      "velocity": 100,
      "chip": "ym2612"
    },
    {
      "channel": 2,
      "note": 72,
      "start": 40.0382,
      "duration": 0.3149,
      "velocity": 98,
      "chip": "ym2612"
    },
    {
      "channel": 0,
      "note": 73,
      "start": 40.3696,
      "duration": 0.3166,
      "velocity": 86,
      "chip": "ym2612"
    },
    {
      "channel": 1,
      "note": 37,
      "start": 40.3699,
      "duration": 0.3164,
      "velocity": 100,
      "chip": "ym2612"
    },
    {
      "channel": 2,
      "note": 68,
      "start": 40.3701,
      "duration": 0.3163,
      "velocity": 98,
      "chip": "ym2612"
    },
    {
      "channel": 0,
      "note": 77,
      "start": 40.703,
      "duration": 0.3166,
      "velocity": 86,
      "chip": "ym2612"
    },
    {
      "channel": 1,
      "note": 38,
      "start": 40.7032,
      "duration": 0.6498,
      "velocity": 100,
      "chip": "ym2612"
    },
    {
      "channel": 2,
      "note": 68,
      "start": 40.7034,
      "duration": 0.6496,
      "velocity": 98,
      "chip": "ym2612"
    },
    {
      "channel": 0,
      "note": 75,
      "start": 41.0363,
      "duration": 0.1499,
      "velocity": 86,
      "chip": "ym2612"
    },
    {
      "channel": 0,
      "note": 68,
      "start": 41.2029,
      "duration": 0.15,
      "velocity": 86,
      "chip": "ym2612"
    },
    {
      "channel": 0,
      "note": 70,
      "start": 41.3698,
      "duration": 0.3164,
      "velocity": 86,
      "chip": "ym2612"
    },
    {
      "channel": 1,
      "note": 39,
      "start": 41.37,
      "duration": 0.3163,
      "velocity": 100,
      "chip": "ym2612"
    },
    {
      "channel": 2,
      "note": 68,
      "start": 41.3702,
      "duration": 0.3161,
      "velocity": 98,
      "chip": "ym2612"
    },
    {
      "channel": 0,
      "note": 72,
      "start": 41.703,
      "duration": 0.3166,
      "velocity": 86,
      "chip": "ym2612"
    },
    {
      "channel": 1,
      "note": 39,
      "start": 41.7032,
      "duration": 0.3164,
      "velocity": 100,
      "chip": "ym2612"
    },
    {
      "channel": 2,
      "note": 68,
      "start": 41.7034,
      "duration": 0.3162,
      "velocity": 98,
      "chip": "ym2612"
    },
    {
      "channel": 0,
      "note": 70,
      "start": 42.0364,
      "duration": 0.6499,
      "velocity": 86,
      "chip": "ym2612"
    },
    {
      "channel": 1,
      "note": 39,
      "start": 42.0366,
      "duration": 0.6497,
      "velocity": 100,
      "chip": "ym2612"
    },
    {
      "channel": 2,
      "note": 67,
      "start": 42.0368,
      "duration": 0.6495,
      "velocity": 98,
      "chip": "ym2612"
    },
    {
      "channel": 0,
      "note": 68,
      "start": 42.7048,
      "duration": 0.3148,
      "velocity": 100,
      "chip": "ym2612"
    },
    {
      "channel": 1,
      "note": 44,
      "start": 42.7062,
      "duration": 0.3134,
      "velocity": 100,
      "chip": "ym2612"
    },
    {
      "channel": 0,
      "note": 94,
      "start": 43.0364,
      "duration": 0.3165,
      "velocity": 100,
      "chip": "ym2612"
    },
    {
      "channel": 1,
      "note": 51,
      "start": 43.0379,
      "duration": 0.3151,
      "velocity": 98,
      "chip": "ym2612"
    },
    {
      "channel": 2,
      "note": 68,
      "start": 43.0381,
      "duration": 0.3149,
      "velocity": 98,
      "chip": "ym2612"
    },
    {
      "channel": 3,
      "note": 67,
      "start": 43.0383,
      "duration": 0.8146,
      "velocity": 86,
      "chip": "ym2612"
    },
    {
      "channel": 0,
      "note": 91,
      "start": 43.3696,
      "duration": 0.3166,
      "velocity": 100,
      "chip": "ym2612"
    },
    {
      "channel": 1,
      "note": 87,
      "start": 43.3712,
      "duration": 0.3151,
      "velocity": 100,
      "chip": "ym2612"
    },
    {
      "channel": 0,
      "note": 87,
      "start": 43.703,
      "duration": 0.3166,
      "velocity": 100,
      "chip": "ym2612"
    },
    {
      "channel": 1,
      "note": 46,
      "start": 43.7045,
      "duration": 0.3151,
      "velocity": 98,
      "chip": "ym2612"
    },
    {
      "channel": 2,
      "note": 79,
      "start": 43.7047,
      "duration": 0.315,
      "velocity": 98,
      "chip": "ym2612"
    },
    {
      "channel": 3,
      "note": 75,
      "start": 43.8698,
      "duration": 0.15,
      "velocity": 86,
      "chip": "ym2612"
    },
    {
      "channel": 0,
      "note": 82,
      "start": 44.0365,
      "duration": 0.1496,
      "velocity": 100,
      "chip": "ym2612"
    },
    {
      "channel": 1,
      "note": 87,
      "start": 44.038,
      "duration": 0.315,
      "velocity": 100,
      "chip": "ym2612"
    },
    {
      "channel": 3,
      "note": 74,
      "start": 44.0383,
      "duration": 0.3148,
      "velocity": 86,
      "chip": "ym2612"
    },
    {
      "channel": 0,
      "note": 84,
      "start": 44.2029,
      "duration": 0.1499,
      "velocity": 100,
      "chip": "ym2612"
    },
    {
      "channel": 0,
      "note": 86,
      "start": 44.3698,
      "duration": 0.3165,
      "velocity": 100,
      "chip": "ym2612"
    },
    {
      "channel": 1,
      "note": 44,
      "start": 44.3713,
      "duration": 0.315,
      "velocity": 98,
      "chip": "ym2612"
    },
    {
      "channel": 2,
      "note": 79,
      "start": 44.3715,
      "duration": 0.3149,
      "velocity": 98,
      "chip": "ym2612"
    },
    {
      "channel": 3,
      "note": 72,
      "start": 44.3717,
      "duration": 0.3148,
      "velocity": 86,
      "chip": "ym2612"
    },
    {
      "channel": 0,
      "note": 87,
      "start": 44.703,
      "duration": 0.6498,
      "velocity": 100,
      "chip": "ym2612"
    },
    {
      "channel": 1,
      "note": 87,
      "start": 44.7046,
      "duration": 0.315,
      "velocity": 100,
      "chip": "ym2612"
    },
    {
      "channel": 3,
      "note": 68,
      "start": 44.7049,
      "duration": 0.6481,
      "velocity": 86,
      "chip": "ym2612"
    },
    {
      "channel": 1,
      "note": 51,
      "start": 45.0376,
      "duration": 0.3153,
      "velocity": 98,
      "chip": "ym2612"
    },
    {
      "channel": 2,
      "note": 80,
      "start": 45.0378,
      "duration": 0.3152,
      "velocity": 98,
      "chip": "ym2612"
    },
    {
      "channel": 0,
      "note": 82,
      "start": 45.3698,
      "duration": 0.1498,
      "velocity": 100,
      "chip": "ym2612"
    },
    {
      "channel": 1,
      "note": 87,
      "start": 45.3712,
      "duration": 0.3151,
      "velocity": 100,
      "chip": "ym2612"
    },
    {
      "channel": 3,
      "note": 70,
      "start": 45.3716,
      "duration": 0.3149,
      "velocity": 86,
      "chip": "ym2612"
    },
    {
      "channel": 0,
      "note": 84,
      "start": 45.5362,
      "duration": 0.15,
      "velocity": 100,
      "chip": "ym2612"
    },
    {
      "channel": 0,
      "note": 86,
      "start": 45.703,
      "duration": 0.3165,
      "velocity": 100,
      "chip": "ym2612"
    },
    {
      "channel": 1,
      "note": 44,
      "start": 45.7045,
      "duration": 0.3151,
      "velocity": 98,
      "chip": "ym2612"
    },
    {
      "channel": 2,
      "note": 79,
      "start": 45.7048,
      "duration": 0.3149,
      "velocity": 98,
      "chip": "ym2612"
    },
    {
      "channel": 3,
      "note": 72,
      "start": 45.7049,
      "duration": 0.3148,
      "velocity": 86,
      "chip": "ym2612"
    },
    {
      "channel": 0,
      "note": 87,
      "start": 46.0363,
      "duration": 0.3166,
      "velocity": 100,
      "chip": "ym2612"
    },
    {
      "channel": 1,
      "note": 87,
      "start": 46.0378,
      "duration": 0.3151,
      "velocity": 100,
      "chip": "ym2612"
    },
    {
      "channel": 3,
      "note": 68,
      "start": 46.0382,
      "duration": 0.3149,
      "velocity": 86,
      "chip": "ym2612"
    },
    {
      "channel": 0,
      "note": 82,
      "start": 46.3696,
      "duration": 0.3165,
      "velocity": 100,
      "chip": "ym2612"
    },
    {
      "channel": 1,
      "note": 43,
      "start": 46.3712,
      "duration": 0.3151,
      "velocity": 98,
      "chip": "ym2612"
    },
    {
      "channel": 2,
      "note": 80,
      "start": 46.3714,
      "duration": 0.3149,
      "velocity": 98,
      "chip": "ym2612"
    },
    {
      "channel": 3,
      "note": 70,
      "start": 46.3716,
      "duration": 0.3148,
      "velocity": 86,
      "chip": "ym2612"
    },
    {
      "channel": 0,
      "note": 91,
      "start": 46.7031,
      "duration": 0.3163,
      "velocity": 100,
      "chip": "ym2612"
    },
    {
      "channel": 1,
      "note": 87,
      "start": 46.7046,
      "duration": 0.315,
      "velocity": 100,
      "chip": "ym2612"
    },
    {
      "channel": 3,
      "note": 67,
      "start": 46.7049,
      "duration": 0.3148,
      "velocity": 86,
      "chip": "ym2612"
    },
    {
      "channel": 0,
      "note": 89,
      "start": 47.0364,
      "duration": 0.3164,
      "velocity": 100,
      "chip": "ym2612"
    },
    {
      "channel": 1,
      "note": 41,
      "start": 47.0379,
      "duration": 0.3151,
      "velocity": 98,
      "chip": "ym2612"
    },
    {
      "channel": 2,
      "note": 79,
      "start": 47.0382,
      "duration": 0.3149,
      "velocity": 98,
      "chip": "ym2612"
    },
    {
      "channel": 3,
      "note": 69,
      "start": 47.0383,
      "duration": 0.148,
      "velocity": 86,
      "chip": "ym2612"
    },
    {
      "channel": 3,
      "note": 65,
      "start": 47.203,
      "duration": 0.1502,
      "velocity": 86,
      "chip": "ym2612"
    },
    {
      "channel": 0,
      "note": 96,
      "start": 47.3697,
      "duration": 0.6498,
      "velocity": 100,
      "chip": "ym2612"
    },
    {
      "channel": 1,
      "note": 89,
      "start": 47.3712,
      "duration": 0.3149,
      "velocity": 100,
      "chip": "ym2612"
    },
    {
      "channel": 3,
      "note": 67,
      "start": 47.3716,
      "duration": 0.148,
      "velocity": 86,
      "chip": "ym2612"
    },
    {
      "channel": 3,
      "note": 68,
      "start": 47.5363,
      "duration": 0.1501,
      "velocity": 86,
      "chip": "ym2612"
    },
    {
      "channel": 1,
      "note": 46,
      "start": 47.703,
      "duration": 0.3166,
      "velocity": 100,
      "chip": "ym2612"
    },
    {
      "channel": 2,
      "note": 81,
      "start": 47.7032,
      "duration": 0.3165,
      "velocity": 98,
      "chip": "ym2612"
    },
    {
      "channel": 3,
      "note": 67,
      "start": 47.7034,
      "duration": 0.3163,
      "velocity": 86,
      "chip": "ym2612"
    },
    {
      "channel": 0,
      "note": 94,
      "start": 48.0364,
      "duration": 0.3165,
      "velocity": 100,
      "chip": "ym2612"
    },
    {
      "channel": 1,
      "note": 46,
      "start": 48.0379,
      "duration": 0.3151,
      "velocity": 100,
      "chip": "ym2612"
    },
    {
      "channel": 3,
      "note": 65,
      "start": 48.0382,
      "duration": 0.3149,
      "velocity": 86,
      "chip": "ym2612"
    },
    {
      "channel": 0,
      "note": 94,
      "start": 48.3697,
      "duration": 0.3166,
      "velocity": 100,
      "chip": "ym2612"
    },
    {
      "channel": 1,
      "note": 51,
      "start": 48.3712,
      "duration": 0.3151,
      "velocity": 98,
      "chip": "ym2612"
    },
    {
      "channel": 2,
      "note": 86,
      "start": 48.3714,
      "duration": 0.315,
      "velocity": 98,
      "chip": "ym2612"
    },
    {
      "channel": 3,
      "note": 63,
      "start": 48.3717,
      "duration": 0.8146,
      "velocity": 86,
      "chip": "ym2612"
    },
    {
      "channel": 0,
      "note": 91,
      "start": 48.703,
      "duration": 0.3165,
      "velocity": 100,
      "chip": "ym2612"
    },
    {
      "channel": 1,
      "note": 87,
      "start": 48.7045,
      "duration": 0.3151,
      "velocity": 100,
      "chip": "ym2612"
    },
    {
      "channel": 0,
      "note": 87,
      "start": 49.0364,
      "duration": 0.3164,
      "velocity": 100,
      "chip": "ym2612"
    },
    {
      "channel": 1,
      "note": 43,
      "start": 49.0379,
      "duration": 0.315,
      "velocity": 98,
      "chip": "ym2612"
    },
    {
      "channel": 2,
      "note": 79,
      "start": 49.0381,
      "duration": 0.3149,
      "velocity": 98,
      "chip": "ym2612"
    },
    {
      "channel": 3,
      "note": 75,
      "start": 49.203,
      "duration": 0.15,
      "velocity": 86,
      "chip": "ym2612"
    },
    {
      "channel": 0,
      "note": 82,
      "start": 49.3698,
      "duration": 0.1498,
      "velocity": 100,
      "chip": "ym2612"
    },
    {
      "channel": 1,
      "note": 87,
      "start": 49.3713,
      "duration": 0.315,
      "velocity": 100,
      "chip": "ym2612"
    },
    {
      "channel": 3,
      "note": 74,
      "start": 49.3716,
      "duration": 0.3149,
      "velocity": 86,
      "chip": "ym2612"
    },
    {
      "channel": 0,
      "note": 84,
      "start": 49.5363,
      "duration": 0.15,
      "velocity": 100,
      "chip": "ym2612"
    },
    {
      "channel": 0,
      "note": 86,
      "start": 49.703,
      "duration": 0.3165,
      "velocity": 100,
      "chip": "ym2612"
    },
    {
      "channel": 1,
      "note": 44,
      "start": 49.7046,
      "duration": 0.3151,
      "velocity": 98,
      "chip": "ym2612"
    },
    {
      "channel": 2,
      "note": 79,
      "start": 49.7048,
      "duration": 0.3149,
      "velocity": 98,
      "chip": "ym2612"
    },
    {
      "channel": 3,
      "note": 72,
      "start": 49.705,
      "duration": 0.3148,
      "velocity": 86,
      "chip": "ym2612"
    },
    {
      "channel": 0,
      "note": 87,
      "start": 50.0364,
      "duration": 0.6498,
      "velocity": 100,
      "chip": "ym2612"
    },
    {
      "channel": 1,
      "note": 87,
      "start": 50.0378,
      "duration": 0.3151,
      "velocity": 100,
      "chip": "ym2612"
    },
    {
      "channel": 3,
      "note": 68,
      "start": 50.0382,
      "duration": 0.6482,
      "velocity": 86,
      "chip": "ym2612"
    },
    {
      "channel": 1,
      "note": 43,
      "start": 50.3709,
      "duration": 0.3153,
      "velocity": 98,
      "chip": "ym2612"
    },
    {
      "channel": 2,
      "note": 80,
      "start": 50.3711,
      "duration": 0.3152,
      "velocity": 98,
      "chip": "ym2612"
    },
    {
      "channel": 0,
      "note": 82,
      "start": 50.7032,
      "duration": 0.3163,
      "velocity": 100,
      "chip": "ym2612"
    },
    {
      "channel": 1,
      "note": 87,
      "start": 50.7047,
      "duration": 0.3149,
      "velocity": 100,
      "chip": "ym2612"
    },
    {
      "channel": 2,
      "note": 79,
      "start": 50.7049,
      "duration": 0.3148,
      "velocity": 98,
      "chip": "ym2612"
    },
    {
      "channel": 3,
      "note": 70,
      "start": 50.7051,
      "duration": 0.1478,
      "velocity": 86,
      "chip": "ym2612"
    },
    {
      "channel": 3,
      "note": 75,
      "start": 50.8696,
      "duration": 0.1501,
      "velocity": 86,
      "chip": "ym2612"
    },
    {
      "channel": 0,
      "note": 92,
      "start": 51.0364,
      "duration": 0.3165,
      "velocity": 100,
      "chip": "ym2612"
    },
    {
      "channel": 1,
      "note": 44,
      "start": 51.0366,
      "duration": 0.3164,
      "velocity": 100,
      "chip": "ym2612"
    },
    {
      "channel": 2,
      "note": 75,
      "start": 51.0368,
      "duration": 0.3162,
      "velocity": 98,
      "chip": "ym2612"
    },
    {
      "channel": 3,
      "note": 74,
      "start": 51.037,
      "duration": 0.1493,
      "velocity": 86,
      "chip": "ym2612"
    },
    {
      "channel": 3,
      "note": 75,
      "start": 51.203,
      "duration": 0.1502,
      "velocity": 86,
      "chip": "ym2612"
    },
    {
      "channel": 0,
      "note": 96,
      "start": 51.3697,
      "duration": 0.3164,
      "velocity": 100,
      "chip": "ym2612"
    },
    {
      "channel": 1,
      "note": 45,
      "start": 51.3699,
      "duration": 0.6497,
      "velocity": 100,
      "chip": "ym2612"
    },
    {
      "channel": 2,
      "note": 75,
      "start": 51.3702,
      "duration": 0.6496,
      "velocity": 98,
      "chip": "ym2612"
    },
    {
      "channel": 3,
      "note": 72,
      "start": 51.3703,
      "duration": 0.316,
      "velocity": 86,
      "chip": "ym2612"
    },
    {
      "channel": 0,
      "note": 94,
      "start": 51.703,
      "duration": 0.1498,
      "velocity": 100,
      "chip": "ym2612"
    },
    {
      "channel": 3,
      "note": 70,
      "start": 51.7033,
      "duration": 0.1497,
      "velocity": 86,
      "chip": "ym2612"
    },
    {
      "channel": 0,
      "note": 87,
      "start": 51.8696,
      "duration": 0.15,
      "velocity": 100,
      "chip": "ym2612"
    },
    {
      "channel": 3,
      "note": 67,
      "start": 51.87,
      "duration": 0.1499,
      "velocity": 86,
      "chip": "ym2612"
    },
    {
      "channel": 0,
      "note": 89,
      "start": 52.0364,
      "duration": 0.3164,
      "velocity": 100,
      "chip": "ym2612"
    },
    {
      "channel": 1,
      "note": 46,
      "start": 52.0366,
      "duration": 0.3163,
      "velocity": 100,
      "chip": "ym2612"
    },
    {
      "channel": 2,
      "note": 75,
      "start": 52.0368,
      "duration": 0.3161,
      "velocity": 98,
      "chip": "ym2612"
    },
    {
      "channel": 3,
      "note": 68,
      "start": 52.0371,
      "duration": 0.1492,
      "velocity": 86,
      "chip": "ym2612"
    },
    {
      "channel": 3,
      "note": 70,
      "start": 52.203,
      "duration": 0.15,
      "velocity": 86,
      "chip": "ym2612"
    },
    {
      "channel": 0,
      "note": 91,
      "start": 52.3696,
      "duration": 0.3166,
      "velocity": 100,
      "chip": "ym2612"
    },
    {
      "channel": 1,
      "note": 46,
      "start": 52.3698,
      "duration": 0.3165,
      "velocity": 100,
      "chip": "ym2612"
    },
    {
      "channel": 2,
      "note": 75,
      "start": 52.3701,
      "duration": 0.3163,
      "velocity": 98,
      "chip": "ym2612"
    },
    {
      "channel": 3,
      "note": 67,
      "start": 52.3703,
      "duration": 0.3162,
      "velocity": 86,
      "chip": "ym2612"
    },
    {
      "channel": 0,
      "note": 89,
      "start": 52.7032,
      "duration": 0.6497,
      "velocity": 100,
      "chip": "ym2612"
    },
    {
      "channel": 1,
      "note": 46,
      "start": 52.7034,
      "duration": 0.6496,
      "velocity": 100,
      "chip": "ym2612"
    },
    {
      "channel": 2,
      "note": 74,
      "start": 52.7036,
      "duration": 0.6494,
      "velocity": 98,
      "chip": "ym2612"
    },
    {
      "channel": 3,
      "note": 68,
      "start": 52.7038,
      "duration": 0.6494,
      "velocity": 86,
      "chip": "ym2612"
    },
    {
      "channel": 0,
      "note": 87,
      "start": 53.3716,
      "duration": 0.148,
      "velocity": 100,
      "chip": "ym2612"
    },
    {
      "channel": 1,
      "note": 51,
      "start": 53.373,
      "duration": 0.3132,
      "velocity": 100,
      "chip": "ym2612"
    },
    {
      "channel": 3,
      "note": 67,
      "start": 53.3759,
      "duration": 0.3105,
      "velocity": 127,
      "chip": "ym2612"
    },
    {
      "channel": 0,
      "note": 77,
      "start": 53.5362,
      "duration": 0.15,
      "velocity": 100,
      "chip": "ym2612"
    },
    {
      "channel": 0,
      "note": 74,
      "start": 53.703,
      "duration": 0.1498,
      "velocity": 100,
      "chip": "ym2612"
    },
    {
      "channel": 1,
      "note": 46,
      "start": 53.7045,
      "duration": 0.3151,
      "velocity": 98,
      "chip": "ym2612"
    },
    {
      "channel": 2,
      "note": 75,
      "start": 53.7048,
      "duration": 0.3149,
      "velocity": 98,
      "chip": "ym2612"
    },
    {
      "channel": 3,
      "note": 82,
      "start": 53.7049,
      "duration": 0.3148,
      "velocity": 127,
      "chip": "ym2612"
    },
    {
      "channel": 0,
      "note": 70,
      "start": 53.8696,
      "duration": 0.1499,
      "velocity": 100,
      "chip": "ym2612"
    },
    {
      "channel": 0,
      "note": 74,
      "start": 54.0363,
      "duration": 0.1499,
      "velocity": 100,
      "chip": "ym2612"
    },
    {
      "channel": 1,
      "note": 82,
      "start": 54.0378,
      "duration": 0.3152,
      "velocity": 100,
      "chip": "ym2612"
    },
    {
      "channel": 3,
      "note": 77,
      "start": 54.0381,
      "duration": 0.315,
      "velocity": 127,
      "chip": "ym2612"
    },
    {
      "channel": 0,
      "note": 77,
      "start": 54.2029,
      "duration": 0.15,
      "velocity": 100,
      "chip": "ym2612"
    },
    {
      "channel": 0,
      "note": 74,
      "start": 54.3697,
      "duration": 0.1498,
      "velocity": 100,
      "chip": "ym2612"
    },
    {
      "channel": 1,
      "note": 41,
      "start": 54.3712,
      "duration": 0.3151,
      "velocity": 98,
      "chip": "ym2612"
    },
    {
      "channel": 2,
      "note": 74,
      "start": 54.3714,
      "duration": 0.315,
      "velocity": 98,
      "chip": "ym2612"
    },
    {
      "channel": 3,
      "note": 82,
      "start": 54.3716,
      "duration": 0.148,
      "velocity": 127,
      "chip": "ym2612"
    },
    {
      "channel": 0,
      "note": 70,
      "start": 54.5363,
      "duration": 0.15,
      "velocity": 100,
      "chip": "ym2612"
    },
    {
      "channel": 3,
      "note": 77,
      "start": 54.5366,
      "duration": 0.1499,
      "velocity": 127,
      "chip": "ym2612"
    },
    {
      "channel": 0,
      "note": 77,
      "start": 54.703,
      "duration": 0.1498,
      "velocity": 100,
      "chip": "ym2612"
    },
    {
      "channel": 1,
      "note": 82,
      "start": 54.7046,
      "duration": 0.315,
      "velocity": 100,
      "chip": "ym2612"
    },
    {
      "channel": 3,
      "note": 77,
      "start": 54.7049,
      "duration": 0.3149,
      "velocity": 127,
      "chip": "ym2612"
    },
    {
      "channel": 0,
      "note": 79,
      "start": 54.8695,
      "duration": 0.15,
      "velocity": 100,
      "chip": "ym2612"
    },
    {
      "channel": 0,
      "note": 75,
      "start": 55.0364,
      "duration": 0.1498,
      "velocity": 100,
      "chip": "ym2612"
    },
    {
      "channel": 1,
      "note": 39,
      "start": 55.0378,
      "duration": 0.3151,
      "velocity": 98,
      "chip": "ym2612"
    },
    {
      "channel": 2,
      "note": 74,
      "start": 55.0381,
      "duration": 0.3149,
      "velocity": 98,
      "chip": "ym2612"
    },
    {
      "channel": 3,
      "note": 82,
      "start": 55.0383,
      "duration": 0.3148,
      "velocity": 127,
      "chip": "ym2612"
    },
    {
      "channel": 0,
      "note": 70,
      "start": 55.2029,
      "duration": 0.1499,
      "velocity": 100,
      "chip": "ym2612"
    },
    {
      "channel": 0,
      "note": 79,
      "start": 55.3696,
      "duration": 0.1499,
      "velocity": 100,
      "chip": "ym2612"
    },
    {
      "channel": 1,
      "note": 82,
      "start": 55.3711,
      "duration": 0.3152,
      "velocity": 100,
      "chip": "ym2612"
    },
    {
      "channel": 3,
      "note": 77,
      "start": 55.3714,
      "duration": 0.315,
      "velocity": 127,
      "chip": "ym2612"
    },
    {
      "channel": 0,
      "note": 77,
      "start": 55.5362,
      "duration": 0.15,
      "velocity": 100,
      "chip": "ym2612"
    },
    {
      "channel": 0,
      "note": 74,
      "start": 55.703,
      "duration": 0.1498,
      "velocity": 100,
      "chip": "ym2612"
    },
    {
      "channel": 1,
      "note": 46,
      "start": 55.7045,
      "duration": 0.3151,
      "velocity": 98,
      "chip": "ym2612"
    },
    {
      "channel": 2,
      "note": 75,
      "start": 55.7048,
      "duration": 0.315,
      "velocity": 98,
      "chip": "ym2612"
    },
    {
      "channel": 3,
      "note": 82,
      "start": 55.7049,
      "duration": 0.148,
      "velocity": 127,
      "chip": "ym2612"
    },
    {
      "channel": 0,
      "note": 70,
      "start": 55.8696,
      "duration": 0.15,
      "velocity": 100,
      "chip": "ym2612"
    },
    {
      "channel": 3,
      "note": 77,
      "start": 55.87,
      "duration": 0.1499,
      "velocity": 127,
      "chip": "ym2612"
    },
    {
      "channel": 0,
      "note": 77,
      "start": 56.0364,
      "duration": 0.1498,
      "velocity": 100,
      "chip": "ym2612"
    },
    {
      "channel": 1,
      "note": 82,
      "start": 56.0379,
      "duration": 0.315,
      "velocity": 100,
      "chip": "ym2612"
    },
    {
      "channel": 3,
      "note": 77,
      "start": 56.0382,
      "duration": 0.3149,
      "velocity": 127,
      "chip": "ym2612"
    },
    {
      "channel": 0,
      "note": 79,
      "start": 56.2029,
      "duration": 0.15,
      "velocity": 100,
      "chip": "ym2612"
    },
    {
      "channel": 0,
      "note": 75,
      "start": 56.3696,
      "duration": 0.1498,
      "velocity": 100,
      "chip": "ym2612"
    },
    {
      "channel": 1,
      "note": 39,
      "start": 56.3712,
      "duration": 0.315,
      "velocity": 98,
      "chip": "ym2612"
    },
    {
      "channel": 2,
      "note": 74,
      "start": 56.3714,
      "duration": 0.3149,
      "velocity": 98,
      "chip": "ym2612"
    },
    {
      "channel": 3,
      "note": 82,
      "start": 56.3716,
      "duration": 0.3148,
      "velocity": 127,
      "chip": "ym2612"
    },
    {
      "channel": 0,
      "note": 70,
      "start": 56.5363,
      "duration": 0.1499,
      "velocity": 100,
      "chip": "ym2612"
    },
    {
      "channel": 0,
      "note": 79,
      "start": 56.703,
      "duration": 0.1499,
      "velocity": 100,
      "chip": "ym2612"
    },
    {
      "channel": 1,
      "note": 82,
      "start": 56.7044,
      "duration": 0.3152,
      "velocity": 100,
      "chip": "ym2612"
    },
    {
      "channel": 3,
      "note": 77,
      "start": 56.7048,
      "duration": 0.3151,
      "velocity": 127,
      "chip": "ym2612"
    },
    {
      "channel": 0,
      "note": 77,
      "start": 56.8695,
      "duration": 0.15,
      "velocity": 100,
      "chip": "ym2612"
    },
    {
      "channel": 0,
      "note": 74,
      "start": 57.0364,
      "duration": 0.1498,
      "velocity": 100,
      "chip": "ym2612"
    },
    {
      "channel": 1,
      "note": 38,
      "start": 57.0378,
      "duration": 0.315,
      "velocity": 98,
      "chip": "ym2612"
    },
    {
      "channel": 2,
      "note": 75,
      "start": 57.0381,
      "duration": 0.3149,
      "velocity": 98,
      "chip": "ym2612"
    },
    {
      "channel": 3,
      "note": 82,
      "start": 57.0383,
      "duration": 0.148,
      "velocity": 127,
      "chip": "ym2612"
    },
    {
      "channel": 0,
      "note": 70,
      "start": 57.2029,
      "duration": 0.1499,
      "velocity": 100,
      "chip": "ym2612"
    },
    {
      "channel": 3,
      "note": 77,
      "start": 57.2032,
      "duration": 0.1499,
      "velocity": 127,
      "chip": "ym2612"
    },
    {
      "channel": 0,
      "note": 77,
      "start": 57.3697,
      "duration": 0.1498,
      "velocity": 100,
      "chip": "ym2612"
    },
    {
      "channel": 1,
      "note": 82,
      "start": 57.3712,
      "duration": 0.3151,
      "velocity": 100,
      "chip": "ym2612"
    },
    {
      "channel": 3,
      "note": 77,
      "start": 57.3716,
      "duration": 0.3149,
      "velocity": 127,
      "chip": "ym2612"
    },
    {
      "channel": 0,
      "note": 76,
      "start": 57.5362,
      "duration": 0.15,
      "velocity": 100,
      "chip": "ym2612"
    },
    {
      "channel": 0,
      "note": 72,
      "start": 57.703,
      "duration": 0.1498,
      "velocity": 100,
      "chip": "ym2612"
    },
    {
      "channel": 1,
      "note": 36,
      "start": 57.7045,
      "duration": 0.3151,
      "velocity": 98,
      "chip": "ym2612"
    },
    {
      "channel": 2,
      "note": 74,
      "start": 57.7048,
      "duration": 0.315,
      "velocity": 98,
      "chip": "ym2612"
    },
    {
      "channel": 3,
      "note": 82,
      "start": 57.7049,
      "duration": 0.148,
      "velocity": 127,
      "chip": "ym2612"
    },
    {
      "channel": 0,
      "note": 67,
      "start": 57.8696,
      "duration": 0.15,
      "velocity": 100,
      "chip": "ym2612"
    },
    {
      "channel": 3,
      "note": 77,
      "start": 57.87,
      "duration": 0.1499,
      "velocity": 127,
      "chip": "ym2612"
    },
    {
      "channel": 0,
      "note": 76,
      "start": 58.0364,
      "duration": 0.1498,
      "velocity": 100,
      "chip": "ym2612"
    },
    {
      "channel": 1,
      "note": 84,
      "start": 58.0379,
      "duration": 0.315,
      "velocity": 100,
      "chip": "ym2612"
    },
    {
      "channel": 3,
      "note": 77,
      "start": 58.0382,
      "duration": 0.3149,
      "velocity": 127,
      "chip": "ym2612"
    },
    {
      "channel": 0,
      "note": 77,
      "start": 58.2029,
      "duration": 0.15,
      "velocity": 100,
      "chip": "ym2612"
    },
    {
      "channel": 0,
      "note": 72,
      "start": 58.3697,
      "duration": 0.1498,
      "velocity": 100,
      "chip": "ym2612"
    },
    {
      "channel": 1,
      "note": 41,
      "start": 58.3699,
      "duration": 0.3164,
      "velocity": 100,
      "chip": "ym2612"
    },
    {
      "channel": 2,
      "note": 76,
      "start": 58.3702,
      "duration": 0.3163,
      "velocity": 98,
      "chip": "ym2612"
    },
    {
      "channel": 3,
      "note": 82,
      "start": 58.3703,
      "duration": 0.3162,
      "velocity": 127,
      "chip": "ym2612"
    },
    {
      "channel": 0,
      "note": 69,
      "start": 58.5363,
      "duration": 0.15,
      "velocity": 100,
      "chip": "ym2612"
    },
    {
      "channel": 0,
      "note": 72,
      "start": 58.7032,
      "duration": 0.1497,
      "velocity": 100,
      "chip": "ym2612"
    },
    {
      "channel": 1,
      "note": 41,
      "start": 58.7047,
      "duration": 0.3149,
      "velocity": 100,
      "chip": "ym2612"
    },
    {
      "channel": 3,
      "note": 77,
      "start": 58.705,
      "duration": 0.3148,
      "velocity": 127,
      "chip": "ym2612"
    },
    {
      "channel": 0,
      "note": 77,
      "start": 58.8695,
      "duration": 0.15,
      "velocity": 100,
      "chip": "ym2612"
    },
    {
      "channel": 0,
      "note": 74,
      "start": 59.0364,
      "duration": 0.1498,
      "velocity": 100,
      "chip": "ym2612"
    },
    {
      "channel": 1,
      "note": 46,
      "start": 59.0378,
      "duration": 0.315,
      "velocity": 98,
      "chip": "ym2612"
    },
    {
      "channel": 2,
      "note": 81,
      "start": 59.0381,
      "duration": 0.3149,
      "velocity": 98,
      "chip": "ym2612"
    },
    {
      "channel": 3,
      "note": 82,
      "start": 59.0383,
      "duration": 0.3148,
      "velocity": 127,
      "chip": "ym2612"
    },
    {
      "channel": 0,
      "note": 70,
      "start": 59.2029,
      "duration": 0.1499,
      "velocity": 100,
      "chip": "ym2612"
    },
    {
      "channel": 0,
      "note": 74,
      "start": 59.3696,
      "duration": 0.1499,
      "velocity": 100,
      "chip": "ym2612"
    },
    {
      "channel": 1,
      "note": 82,
      "start": 59.3711,
      "duration": 0.3152,
      "velocity": 100,
      "chip": "ym2612"
    },
    {
      "channel": 3,
      "note": 77,
      "start": 59.3714,
      "duration": 0.3151,
      "velocity": 127,
      "chip": "ym2612"
    },
    {
      "channel": 0,
      "note": 77,
      "start": 59.5362,
      "duration": 0.15,
      "velocity": 100,
      "chip": "ym2612"
    },
    {
      "channel": 0,
      "note": 74,
      "start": 59.703,
      "duration": 0.1498,
      "velocity": 100,
      "chip": "ym2612"
    },
    {
      "channel": 1,
      "note": 38,
      "start": 59.7045,
      "duration": 0.315,
      "velocity": 98,
      "chip": "ym2612"
    },
    {
      "channel": 2,
      "note": 74,
      "start": 59.7048,
      "duration": 0.3149,
      "velocity": 98,
      "chip": "ym2612"
    },
    {
      "channel": 3,
      "note": 82,
      "start": 59.7049,
      "duration": 0.148,
      "velocity": 127,
      "chip": "ym2612"
    },
    {
      "channel": 0,
      "note": 70,
      "start": 59.8695,
      "duration": 0.1499,
      "velocity": 100,
      "chip": "ym2612"
    },
    {
      "channel": 3,
      "note": 77,
      "start": 59.8698,
      "duration": 0.1499,
      "velocity": 127,
      "chip": "ym2612"
    },
    {
      "channel": 0,
      "note": 77,
      "start": 60.0364,
      "duration": 0.1498,
      "velocity": 100,
      "chip": "ym2612"
    },
    {
      "channel": 1,
      "note": 82,
      "start": 60.0379,
      "duration": 0.3151,
      "velocity": 100,
      "chip": "ym2612"
    },
    {
      "channel": 3,
      "note": 77,
      "start": 60.0382,
      "duration": 0.3149,
      "velocity": 127,
      "chip": "ym2612"
    },
    {
      "channel": 0,
      "note": 79,
      "start": 60.2029,
      "duration": 0.15,
      "velocity": 100,
      "chip": "ym2612"
    },
    {
      "channel": 0,
      "note": 75,
      "start": 60.3697,
      "duration": 0.1498,
      "velocity": 100,
      "chip": "ym2612"
    },
    {
      "channel": 1,
      "note": 39,
      "start": 60.3712,
      "duration": 0.315,
      "velocity": 98,
      "chip": "ym2612"
    },
    {
      "channel": 2,
      "note": 74,
      "start": 60.3714,
      "duration": 0.3149,
      "velocity": 98,
      "chip": "ym2612"
    },
    {
      "channel": 3,
      "note": 82,
      "start": 60.3716,
      "duration": 0.3148,
      "velocity": 127,
      "chip": "ym2612"
    },
    {
      "channel": 0,
      "note": 70,
      "start": 60.5363,
      "duration": 0.1499,
      "velocity": 100,
      "chip": "ym2612"
    },
    {
      "channel": 0,
      "note": 79,
      "start": 60.703,
      "duration": 0.1499,
      "velocity": 100,
      "chip": "ym2612"
    },
    {
      "channel": 1,
      "note": 82,
      "start": 60.7044,
      "duration": 0.3152,
      "velocity": 100,
      "chip": "ym2612"
    },
    {
      "channel": 3,
      "note": 77,
      "start": 60.7048,
      "duration": 0.315,
      "velocity": 127,
      "chip": "ym2612"
    },
    {
      "channel": 0,
      "note": 77,
      "start": 60.8695,
      "duration": 0.15,
      "velocity": 100,
      "chip": "ym2612"
    },
    {
      "channel": 0,
      "note": 74,
      "start": 61.0364,
      "duration": 0.1498,
      "velocity": 100,
      "chip": "ym2612"
    },
    {
      "channel": 1,
      "note": 38,
      "start": 61.0378,
      "duration": 0.3151,
      "velocity": 98,
      "chip": "ym2612"
    },
    {
      "channel": 2,
      "note": 75,
      "start": 61.0381,
      "duration": 0.315,
      "velocity": 98,
      "chip": "ym2612"
    },
    {
      "channel": 3,
      "note": 82,
      "start": 61.0383,
      "duration": 0.148,
      "velocity": 127,
      "chip": "ym2612"
    },
    {
      "channel": 0,
      "note": 70,
      "start": 61.203,
      "duration": 0.15,
      "velocity": 100,
      "chip": "ym2612"
    },
    {
      "channel": 3,
      "note": 77,
      "start": 61.2033,
      "duration": 0.1499,
      "velocity": 127,
      "chip": "ym2612"
    },
    {
      "channel": 0,
      "note": 77,
      "start": 61.3698,
      "duration": 0.1497,
      "velocity": 100,
      "chip": "ym2612"
    },
    {
      "channel": 1,
      "note": 82,
      "start": 61.3714,
      "duration": 0.3149,
      "velocity": 100,
      "chip": "ym2612"
    },
    {
      "channel": 2,
      "note": 74,
      "start": 61.3716,
      "duration": 0.3147,
      "velocity": 98,
      "chip": "ym2612"
    },
    {
      "channel": 3,
      "note": 77,
      "start": 61.3718,
      "duration": 0.1478,
      "velocity": 127,
      "chip": "ym2612"
    },
    {
      "channel": 0,
      "note": 79,
      "start": 61.5363,
      "duration": 0.1499,
      "velocity": 100,
      "chip": "ym2612"
    },
    {
      "channel": 3,
      "note": 82,
      "start": 61.5365,
      "duration": 0.3165,
      "velocity": 127,
      "chip": "ym2612"
    },
    {
      "channel": 0,
      "note": 78,
      "start": 61.7029,
      "duration": 0.1499,
      "velocity": 100,
      "chip": "ym2612"
    },
    {
      "channel": 1,
      "note": 39,
      "start": 61.7032,
      "duration": 0.3164,
      "velocity": 100,
      "chip": "ym2612"
    },
    {
      "channel": 2,
      "note": 70,
      "start": 61.7034,
      "duration": 0.3163,
      "velocity": 98,
      "chip": "ym2612"
    },
    {
      "channel": 0,
      "note": 79,
      "start": 61.8696,
      "duration": 0.1499,
      "velocity": 100,
      "chip": "ym2612"
    },
    {
      "channel": 3,
      "note": 77,
      "start": 61.8699,
      "duration": 0.1499,
      "velocity": 127,
      "chip": "ym2612"
    },
    {
      "channel": 0,
      "note": 76,
      "start": 62.0364,
      "duration": 0.1498,
      "velocity": 100,
      "chip": "ym2612"
    },
    {
      "channel": 1,
      "note": 40,
      "start": 62.0367,
      "duration": 0.6496,
      "velocity": 100,
      "chip": "ym2612"
    },
    {
      "channel": 2,
      "note": 70,
      "start": 62.0369,
      "duration": 0.6495,
      "velocity": 98,
      "chip": "ym2612"
    },
    {
      "channel": 3,
      "note": 77,
      "start": 62.0371,
      "duration": 0.3159,
      "velocity": 127,
      "chip": "ym2612"
    },
    {
      "channel": 0,
      "note": 77,
      "start": 62.2029,
      "duration": 0.15,
      "velocity": 100,
      "chip": "ym2612"
    },
    {
      "channel": 0,
      "note": 74,
      "start": 62.3696,
      "duration": 0.1499,
      "velocity": 100,
      "chip": "ym2612"
    },
    {
      "channel": 0,
      "note": 70,
      "start": 62.5362,
      "duration": 0.15,
      "velocity": 100,
      "chip": "ym2612"
    },
    {
      "channel": 0,
      "note": 74,
      "start": 62.7031,
      "duration": 0.1498,
      "velocity": 100,
      "chip": "ym2612"
    },
    {
      "channel": 1,
      "note": 41,
      "start": 62.7034,
      "duration": 0.3162,
      "velocity": 100,
      "chip": "ym2612"
    },
    {
      "channel": 2,
      "note": 70,
      "start": 62.7036,
      "duration": 0.3161,
      "velocity": 98,
      "chip": "ym2612"
    },
    {
      "channel": 3,
      "note": 82,
      "start": 62.7038,
      "duration": 0.1492,
      "velocity": 127,
      "chip": "ym2612"
    },
    {
      "channel": 0,
      "note": 77,
      "start": 62.8696,
      "duration": 0.1499,
      "velocity": 100,
      "chip": "ym2612"
    },
    {
      "channel": 3,
      "note": 82,
      "start": 62.8699,
      "duration": 0.3165,
      "velocity": 127,
      "chip": "ym2612"
    },
    {
      "channel": 0,
      "note": 72,
      "start": 63.0363,
      "duration": 0.15,
      "velocity": 100,
      "chip": "ym2612"
    },
    {
      "channel": 1,
      "note": 41,
      "start": 63.0365,
      "duration": 0.3165,
      "velocity": 100,
      "chip": "ym2612"
    },
    {
      "channel": 2,
      "note": 70,
      "start": 63.0367,
      "duration": 0.3163,
      "velocity": 98,
      "chip": "ym2612"
    },
    {
      "channel": 0,
      "note": 69,
      "start": 63.203,
      "duration": 0.1499,
      "velocity": 100,
      "chip": "ym2612"
    },
    {
      "channel": 3,
      "note": 77,
      "start": 63.2032,
      "duration": 0.1499,
      "velocity": 127,
      "chip": "ym2612"
    },
    {
      "channel": 0,
      "note": 72,
      "start": 63.3698,
      "duration": 0.1498,
      "velocity": 100,
      "chip": "ym2612"
    },
    {
      "channel": 1,
      "note": 41,
      "start": 63.37,
      "duration": 0.6496,
      "velocity": 100,
      "chip": "ym2612"
    },
    {
      "channel": 2,
      "note": 69,
      "start": 63.3703,
      "duration": 0.6494,
      "velocity": 98,
      "chip": "ym2612"
    },
    {
      "channel": 3,
      "note": 77,
      "start": 63.3705,
      "duration": 0.3158,
      "velocity": 127,
      "chip": "ym2612"
    },
    {
      "channel": 0,
      "note": 70,
      "start": 63.5363,
      "duration": 0.1499,
      "velocity": 100,
      "chip": "ym2612"
    },
    {
      "channel": 0,
      "note": 65,
      "start": 63.703,
      "duration": 0.1499,
      "velocity": 100,
      "chip": "ym2612"
    },
    {
      "channel": 0,
      "note": 70,
      "start": 63.8695,
      "duration": 0.15,
      "velocity": 100,
      "chip": "ym2612"
    },
    {
      "channel": 0,
      "note": 74,
      "start": 64.038,
      "duration": 0.1481,
      "velocity": 86,
      "chip": "ym2612"
    },
    {
      "channel": 1,
      "note": 46,
      "start": 64.0395,
      "duration": 0.3134,
      "velocity": 100,
      "chip": "ym2612"
    },
    {
      "channel": 3,
      "note": 82,
      "start": 64.0424,
      "duration": 0.3107,
      "velocity": 100,
      "chip": "ym2612"
    },
    {
      "channel": 0,
      "note": 77,
      "start": 64.2029,
      "duration": 0.15,
      "velocity": 86,
      "chip": "ym2612"
    },
    {
      "channel": 0,
      "note": 74,
      "start": 64.3696,
      "duration": 0.1498,
      "velocity": 86,
      "chip": "ym2612"
    },
    {
      "channel": 1,
      "note": 46,
      "start": 64.3712,
      "duration": 0.315,
      "velocity": 98,
      "chip": "ym2612"
    },
    {
      "channel": 2,
      "note": 70,
      "start": 64.3714,
      "duration": 0.3149,
      "velocity": 98,
      "chip": "ym2612"
    },
    {
      "channel": 3,
      "note": 94,
      "start": 64.3716,
      "duration": 0.3148,
      "velocity": 100,
      "chip": "ym2612"
    },
    {
      "channel": 0,
      "note": 70,
      "start": 64.5363,
      "duration": 0.1499,
      "velocity": 86,
      "chip": "ym2612"
    },
    {
      "channel": 0,
      "note": 74,
      "start": 64.7029,
      "duration": 0.1499,
      "velocity": 86,
      "chip": "ym2612"
    },
    {
      "channel": 1,
      "note": 82,
      "start": 64.7044,
      "duration": 0.3152,
      "velocity": 100,
      "chip": "ym2612"
    },
    {
      "channel": 3,
      "note": 89,
      "start": 64.7048,
      "duration": 0.315,
      "velocity": 100,
      "chip": "ym2612"
    },
    {
      "channel": 0,
      "note": 77,
      "start": 64.8695,
      "duration": 0.15,
      "velocity": 86,
      "chip": "ym2612"
    },
    {
      "channel": 0,
      "note": 74,
      "start": 65.0364,
      "duration": 0.1498,
      "velocity": 86,
      "chip": "ym2612"
    },
    {
      "channel": 1,
      "note": 41,
      "start": 65.0378,
      "duration": 0.3151,
      "velocity": 98,
      "chip": "ym2612"
    },
    {
      "channel": 2,
      "note": 74,
      "start": 65.0381,
      "duration": 0.315,
      "velocity": 98,
      "chip": "ym2612"
    },
    {
      "channel": 3,
      "note": 94,
      "start": 65.0383,
      "duration": 0.148,
      "velocity": 100,
      "chip": "ym2612"
    },
    {
      "channel": 0,
      "note": 70,
      "start": 65.203,
      "duration": 0.15,
      "velocity": 86,
      "chip": "ym2612"
    },
    {
      "channel": 3,
      "note": 89,
      "start": 65.2033,
      "duration": 0.1499,
      "velocity": 100,
      "chip": "ym2612"
    },
    {
      "channel": 0,
      "note": 77,
      "start": 65.3697,
      "duration": 0.1498,
      "velocity": 86,
      "chip": "ym2612"
    },
    {
      "channel": 1,
      "note": 82,
      "start": 65.3712,
      "duration": 0.3151,
      "velocity": 100,
      "chip": "ym2612"
    },
    {
      "channel": 3,
      "note": 89,
      "start": 65.3716,
      "duration": 0.3149,
      "velocity": 100,
      "chip": "ym2612"
    },
    {
      "channel": 0,
      "note": 79,
      "start": 65.5362,
      "duration": 0.15,
      "velocity": 86,
      "chip": "ym2612"
    },
    {
      "channel": 0,
      "note": 75,
      "start": 65.703,
      "duration": 0.1498,
      "velocity": 86,
      "chip": "ym2612"
    },
    {
      "channel": 1,
      "note": 39,
      "start": 65.7045,
      "duration": 0.3151,
      "velocity": 98,
      "chip": "ym2612"
    },
    {
      "channel": 2,
      "note": 74,
      "start": 65.7048,
      "duration": 0.3149,
      "velocity": 98,
      "chip": "ym2612"
    },
    {
      "channel": 3,
      "note": 94,
      "start": 65.7049,
      "duration": 0.3148,
      "velocity": 100,
      "chip": "ym2612"
    },
    {
      "channel": 0,
      "note": 70,
      "start": 65.8695,
      "duration": 0.15,
      "velocity": 86,
      "chip": "ym2612"
    },
    {
      "channel": 0,
      "note": 79,
      "start": 66.0363,
      "duration": 0.1498,
      "velocity": 86,
      "chip": "ym2612"
    },
    {
      "channel": 1,
      "note": 82,
      "start": 66.0378,
      "duration": 0.315,
      "velocity": 100,
      "chip": "ym2612"
    },
    {
      "channel": 3,
      "note": 89,
      "start": 66.0382,
      "duration": 0.3149,
      "velocity": 100,
      "chip": "ym2612"
    },
    {
      "channel": 0,
      "note": 77,
      "start": 66.2029,
      "duration": 0.1499,
      "velocity": 86,
      "chip": "ym2612"
    },
    {
      "channel": 0,
      "note": 74,
      "start": 66.3697,
      "duration": 0.1498,
      "velocity": 86,
      "chip": "ym2612"
    },
    {
      "channel": 1,
      "note": 46,
      "start": 66.3712,
      "duration": 0.315,
      "velocity": 98,
      "chip": "ym2612"
    },
    {
      "channel": 2,
      "note": 75,
      "start": 66.3715,
      "duration": 0.3148,
      "velocity": 98,
      "chip": "ym2612"
    },
    {
      "channel": 3,
      "note": 94,
      "start": 66.3717,
      "duration": 0.148,
      "velocity": 100,
      "chip": "ym2612"
    },
    {
      "channel": 0,
      "note": 70,
      "start": 66.5363,
      "duration": 0.1499,
      "velocity": 86,
      "chip": "ym2612"
    },
    {
      "channel": 3,
      "note": 89,
      "start": 66.5365,
      "duration": 0.1499,
      "velocity": 100,
      "chip": "ym2612"
    },
    {
      "channel": 0,
      "note": 77,
      "start": 66.7031,
      "duration": 0.1496,
      "velocity": 86,
      "chip": "ym2612"
    },
    {
      "channel": 1,
      "note": 82,
      "start": 66.7046,
      "duration": 0.315,
      "velocity": 100,
      "chip": "ym2612"
    },
    {
      "channel": 3,
      "note": 89,
      "start": 66.7049,
      "duration": 0.3149,
      "velocity": 100,
      "chip": "ym2612"
    },
    {
      "channel": 0,
      "note": 79,
      "start": 66.8696,
      "duration": 0.15,
      "velocity": 86,
      "chip": "ym2612"
    },
    {
      "channel": 0,
      "note": 75,
      "start": 67.0364,
      "duration": 0.1498,
      "velocity": 86,
      "chip": "ym2612"
    },
    {
      "channel": 1,
      "note": 39,
      "start": 67.0379,
      "duration": 0.3151,
      "velocity": 98,
      "chip": "ym2612"
    },
    {
      "channel": 2,
      "note": 74,
      "start": 67.0381,
      "duration": 0.3149,
      "velocity": 98,
      "chip": "ym2612"
    },
    {
      "channel": 3,
      "note": 94,
      "start": 67.0383,
      "duration": 0.3148,
      "velocity": 100,
      "chip": "ym2612"
    },
    {
      "channel": 0,
      "note": 70,
      "start": 67.2029,
      "duration": 0.15,
      "velocity": 86,
      "chip": "ym2612"
    },
    {
      "channel": 0,
      "note": 79,
      "start": 67.3697,
      "duration": 0.1498,
      "velocity": 86,
      "chip": "ym2612"
    },
    {
      "channel": 1,
      "note": 82,
      "start": 67.3712,
      "duration": 0.3151,
      "velocity": 100,
      "chip": "ym2612"
    },
    {
      "channel": 3,
      "note": 89,
      "start": 67.3715,
      "duration": 0.3149,
      "velocity": 100,
      "chip": "ym2612"
    },
    {
      "channel": 0,
      "note": 77,
      "start": 67.5363,
      "duration": 0.1499,
      "velocity": 86,
      "chip": "ym2612"
    },
    {
      "channel": 0,
      "note": 74,
      "start": 67.7031,
      "duration": 0.1498,
      "velocity": 86,
      "chip": "ym2612"
    },
    {
      "channel": 1,
      "note": 38,
      "start": 67.7046,
      "duration": 0.315,
      "velocity": 98,
      "chip": "ym2612"
    },
    {
      "channel": 2,
      "note": 75,
      "start": 67.7048,
      "duration": 0.3149,
      "velocity": 98,
      "chip": "ym2612"
    },
    {
      "channel": 3,
      "note": 94,
      "start": 67.705,
      "duration": 0.148,
      "velocity": 100,
      "chip": "ym2612"
    },
    {
      "channel": 0,
      "note": 70,
      "start": 67.8696,
      "duration": 0.1499,
      "velocity": 86,
      "chip": "ym2612"
    },
    {
      "channel": 3,
      "note": 89,
      "start": 67.8699,
      "duration": 0.1499,
      "velocity": 100,
      "chip": "ym2612"
    },
    {
      "channel": 0,
      "note": 77,
      "start": 68.0364,
      "duration": 0.1497,
      "velocity": 86,
      "chip": "ym2612"
    },
    {
      "channel": 1,
      "note": 82,
      "start": 68.038,
      "duration": 0.3149,
      "velocity": 100,
      "chip": "ym2612"
    },
    {
      "channel": 3,
      "note": 89,
      "start": 68.0383,
      "duration": 0.3148,
      "velocity": 100,
      "chip": "ym2612"
    },
    {
      "channel": 0,
      "note": 76,
      "start": 68.2029,
      "duration": 0.1499,
      "velocity": 86,
      "chip": "ym2612"
    },
    {
      "channel": 0,
      "note": 72,
      "start": 68.3697,
      "duration": 0.1498,
      "velocity": 86,
      "chip": "ym2612"
    },
    {
      "channel": 1,
      "note": 36,
      "start": 68.3712,
      "duration": 0.315,
      "velocity": 98,
      "chip": "ym2612"
    },
    {
      "channel": 2,
      "note": 74,
      "start": 68.3715,
      "duration": 0.3149,
      "velocity": 98,
      "chip": "ym2612"
    },
    {
      "channel": 3,
      "note": 94,
      "start": 68.3717,
      "duration": 0.148,
      "velocity": 100,
      "chip": "ym2612"
    },
    {
      "channel": 0,
      "note": 67,
      "start": 68.5363,
      "duration": 0.1499,
      "velocity": 86,
      "chip": "ym2612"
    },
    {
      "channel": 3,
      "note": 89,
      "start": 68.5366,
      "duration": 0.1499,
      "velocity": 100,
      "chip": "ym2612"
    },
    {
      "channel": 0,
      "note": 76,
      "start": 68.703,
      "duration": 0.1498,
      "velocity": 86,
      "chip": "ym2612"
    },
    {
      "channel": 1,
      "note": 84,
      "start": 68.7045,
      "duration": 0.315,
      "velocity": 100,
      "chip": "ym2612"
    },
    {
      "channel": 3,
      "note": 89,
      "start": 68.7048,
      "duration": 0.3149,
      "velocity": 100,
      "chip": "ym2612"
    },
    {
      "channel": 0,
      "note": 77,
      "start": 68.8696,
      "duration": 0.1499,
      "velocity": 86,
      "chip": "ym2612"
    },
    {
      "channel": 0,
      "note": 72,
      "start": 69.0363,
      "duration": 0.1498,
      "velocity": 86,
      "chip": "ym2612"
    },
    {
      "channel": 1,
      "note": 41,
      "start": 69.0365,
      "duration": 0.3164,
      "velocity": 100,
      "chip": "ym2612"
    },
    {
      "channel": 2,
      "note": 76,
      "start": 69.0368,
      "duration": 0.3162,
      "velocity": 98,
      "chip": "ym2612"
    },
    {
      "channel": 3,
      "note": 94,
      "start": 69.0369,
      "duration": 0.3162,
      "velocity": 100,
      "chip": "ym2612"
    },
    {
      "channel": 0,
      "note": 69,
      "start": 69.2029,
      "duration": 0.1499,
      "velocity": 86,
      "chip": "ym2612"
    },
    {
      "channel": 0,
      "note": 72,
      "start": 69.3698,
      "duration": 0.1497,
      "velocity": 86,
      "chip": "ym2612"
    },
    {
      "channel": 1,
      "note": 41,
      "start": 69.3713,
      "duration": 0.3149,
      "velocity": 100,
      "chip": "ym2612"
    },
    {
      "channel": 3,
      "note": 89,
      "start": 69.3716,
      "duration": 0.3148,
      "velocity": 100,
      "chip": "ym2612"
    },
    {
      "channel": 0,
      "note": 77,
      "start": 69.5363,
      "duration": 0.1499,
      "velocity": 86,
      "chip": "ym2612"
    },
    {
      "channel": 0,
      "note": 74,
      "start": 69.703,
      "duration": 0.1498,
      "velocity": 86,
      "chip": "ym2612"
    },
    {
      "channel": 1,
      "note": 46,
      "start": 69.7046,
      "duration": 0.315,
      "velocity": 98,
      "chip": "ym2612"
    },
    {
      "channel": 2,
      "note": 81,
      "start": 69.7048,
      "duration": 0.3149,
      "velocity": 98,
      "chip": "ym2612"
    },
    {
      "channel": 3,
      "note": 94,
      "start": 69.705,
      "duration": 0.3148,
      "velocity": 100,
      "chip": "ym2612"
    },
    {
      "channel": 0,
      "note": 70,
      "start": 69.8695,
      "duration": 0.15,
      "velocity": 86,
      "chip": "ym2612"
    },
    {
      "channel": 0,
      "note": 74,
      "start": 70.0364,
      "duration": 0.1498,
      "velocity": 86,
      "chip": "ym2612"
    },
    {
      "channel": 1,
      "note": 82,
      "start": 70.0378,
      "duration": 0.3151,
      "velocity": 100,
      "chip": "ym2612"
    },
    {
      "channel": 3,
      "note": 89,
      "start": 70.0382,
      "duration": 0.3149,
      "velocity": 100,
      "chip": "ym2612"
    },
    {
      "channel": 0,
      "note": 77,
      "start": 70.2029,
      "duration": 0.1499,
      "velocity": 86,
      "chip": "ym2612"
    },
    {
      "channel": 0,
      "note": 74,
      "start": 70.3698,
      "duration": 0.1498,
      "velocity": 86,
      "chip": "ym2612"
    },
    {
      "channel": 1,
      "note": 38,
      "start": 70.3712,
      "duration": 0.315,
      "velocity": 98,
      "chip": "ym2612"
    },
    {
      "channel": 2,
      "note": 74,
      "start": 70.3715,
      "duration": 0.3148,
      "velocity": 98,
      "chip": "ym2612"
    },
    {
      "channel": 3,
      "note": 94,
      "start": 70.3717,
      "duration": 0.148,
      "velocity": 100,
      "chip": "ym2612"
    },
    {
      "channel": 0,
      "note": 70,
      "start": 70.5363,
      "duration": 0.1499,
      "velocity": 86,
      "chip": "ym2612"
    },
    {
      "channel": 3,
      "note": 89,
      "start": 70.5366,
      "duration": 0.1499,
      "velocity": 100,
      "chip": "ym2612"
    },
    {
      "channel": 0,
      "note": 77,
      "start": 70.7031,
      "duration": 0.1497,
      "velocity": 86,
      "chip": "ym2612"
    },
    {
      "channel": 1,
      "note": 82,
      "start": 70.7046,
      "duration": 0.3149,
      "velocity": 100,
      "chip": "ym2612"
    },
    {
      "channel": 3,
      "note": 89,
      "start": 70.7049,
      "duration": 0.3148,
      "velocity": 100,
      "chip": "ym2612"
    },
    {
      "channel": 0,
      "note": 79,
      "start": 70.8696,
      "duration": 0.1499,
      "velocity": 86,
      "chip": "ym2612"
    },
    {
      "channel": 0,
      "note": 75,
      "start": 71.0364,
      "duration": 0.1498,
      "velocity": 86,
      "chip": "ym2612"
    },
    {
      "channel": 1,
      "note": 39,
      "start": 71.0379,
      "duration": 0.315,
      "velocity": 98,
      "chip": "ym2612"
    },
    {
      "channel": 2,
      "note": 74,
      "start": 71.0382,
      "duration": 0.3149,
      "velocity": 98,
      "chip": "ym2612"
    },
    {
      "channel": 3,
      "note": 94,
      "start": 71.0383,
      "duration": 0.3148,
      "velocity": 100,
      "chip": "ym2612"
    },
    {
      "channel": 0,
      "note": 70,
      "start": 71.2029,
      "duration": 0.15,
      "velocity": 86,
      "chip": "ym2612"
    },
    {
      "channel": 0,
      "note": 79,
      "start": 71.3697,
      "duration": 0.1498,
      "velocity": 86,
      "chip": "ym2612"
    },
    {
      "channel": 1,
      "note": 82,
      "start": 71.3712,
      "duration": 0.3151,
      "velocity": 100,
      "chip": "ym2612"
    },
    {
      "channel": 3,
      "note": 89,
      "start": 71.3715,
      "duration": 0.3149,
      "velocity": 100,
      "chip": "ym2612"
    },
    {
      "channel": 0,
      "note": 77,
      "start": 71.5363,
      "duration": 0.1499,
      "velocity": 86,
      "chip": "ym2612"
    },
    {
      "channel": 0,
      "note": 74,
      "start": 71.7031,
      "duration": 0.1498,
      "velocity": 86,
      "chip": "ym2612"
    },
    {
      "channel": 1,
      "note": 38,
      "start": 71.7046,
      "duration": 0.315,
      "velocity": 98,
      "chip": "ym2612"
    },
    {
      "channel": 2,
      "note": 75,
      "start": 71.7048,
      "duration": 0.3149,
      "velocity": 98,
      "chip": "ym2612"
    },
    {
      "channel": 3,
      "note": 94,
      "start": 71.7051,
      "duration": 0.148,
      "velocity": 100,
      "chip": "ym2612"
    },
    {
      "channel": 0,
      "note": 70,
      "start": 71.8696,
      "duration": 0.1499,
      "velocity": 86,
      "chip": "ym2612"
    },
    {
      "channel": 3,
      "note": 89,
      "start": 71.8699,
      "duration": 0.1499,
      "velocity": 100,
      "chip": "ym2612"
    },
    {
      "channel": 0,
      "note": 77,
      "start": 72.0365,
      "duration": 0.1496,
      "velocity": 86,
      "chip": "ym2612"
    },
    {
      "channel": 1,
      "note": 82,
      "start": 72.038,
      "duration": 0.315,
      "velocity": 100,
      "chip": "ym2612"
    },
    {
      "channel": 2,
      "note": 74,
      "start": 72.0382,
      "duration": 0.3148,
      "velocity": 98,
      "chip": "ym2612"
    },
    {
      "channel": 3,
      "note": 89,
      "start": 72.0384,
      "duration": 0.1479,
      "velocity": 100,
      "chip": "ym2612"
    },
    {
      "channel": 0,
      "note": 79,
      "start": 72.203,
      "duration": 0.15,
      "velocity": 86,
      "chip": "ym2612"
    },
    {
      "channel": 3,
      "note": 94,
      "start": 72.2033,
      "duration": 0.3163,
      "velocity": 100,
      "chip": "ym2612"
    },
    {
      "channel": 0,
      "note": 78,
      "start": 72.3696,
      "duration": 0.1498,
      "velocity": 86,
      "chip": "ym2612"
    },
    {
      "channel": 1,
      "note": 39,
      "start": 72.3699,
      "duration": 0.3164,
      "velocity": 100,
      "chip": "ym2612"
    },
    {
      "channel": 2,
      "note": 70,
      "start": 72.3701,
      "duration": 0.3163,
      "velocity": 98,
      "chip": "ym2612"
    },
    {
      "channel": 0,
      "note": 79,
      "start": 72.5363,
      "duration": 0.15,
      "velocity": 86,
      "chip": "ym2612"
    },
    {
      "channel": 3,
      "note": 89,
      "start": 72.5366,
      "duration": 0.1499,
      "velocity": 100,
      "chip": "ym2612"
    },
    {
      "channel": 0,
      "note": 76,
      "start": 72.703,
      "duration": 0.1498,
      "velocity": 86,
      "chip": "ym2612"
    },
    {
      "channel": 1,
      "note": 40,
      "start": 72.7033,
      "duration": 0.6496,
      "velocity": 100,
      "chip": "ym2612"
    },
    {
      "channel": 2,
      "note": 70,
      "start": 72.7035,
      "duration": 0.6495,
      "velocity": 98,
      "chip": "ym2612"
    },
    {
      "channel": 3,
      "note": 89,
      "start": 72.7037,
      "duration": 0.3159,
      "velocity": 100,
      "chip": "ym2612"
    },
    {
      "channel": 0,
      "note": 77,
      "start": 72.8696,
      "duration": 0.1499,
      "velocity": 86,
      "chip": "ym2612"
    },
    {
      "channel": 0,
      "note": 74,
      "start": 73.0362,
      "duration": 0.1499,
      "velocity": 86,
      "chip": "ym2612"
    },
    {
      "channel": 0,
      "note": 70,
      "start": 73.2029,
      "duration": 0.1499,
      "velocity": 86,
      "chip": "ym2612"
    },
    {
      "channel": 0,
      "note": 74,
      "start": 73.3697,
      "duration": 0.1498,
      "velocity": 86,
      "chip": "ym2612"
    },
    {
      "channel": 1,
      "note": 41,
      "start": 73.37,
      "duration": 0.3163,
      "velocity": 100,
      "chip": "ym2612"
    },
    {
      "channel": 2,
      "note": 70,
      "start": 73.3702,
      "duration": 0.3162,
      "velocity": 98,
      "chip": "ym2612"
    },
    {
      "channel": 3,
      "note": 94,
      "start": 73.3704,
      "duration": 0.1492,
      "velocity": 100,
      "chip": "ym2612"
    },
    {
      "channel": 0,
      "note": 77,
      "start": 73.5363,
      "duration": 0.15,
      "velocity": 86,
      "chip": "ym2612"
    },
    {
      "channel": 3,
      "note": 94,
      "start": 73.5366,
      "duration": 0.3163,
      "velocity": 100,
      "chip": "ym2612"
    },
    {
      "channel": 0,
      "note": 72,
      "start": 73.703,
      "duration": 0.1498,
      "velocity": 86,
      "chip": "ym2612"
    },
    {
      "channel": 1,
      "note": 41,
      "start": 73.7032,
      "duration": 0.3163,
      "velocity": 100,
      "chip": "ym2612"
    },
    {
      "channel": 2,
      "note": 70,
      "start": 73.7034,
      "duration": 0.3162,
      "velocity": 98,
      "chip": "ym2612"
    },
    {
      "channel": 0,
      "note": 69,
      "start": 73.8696,
      "duration": 0.1498,
      "velocity": 86,
      "chip": "ym2612"
    },
    {
      "channel": 3,
      "note": 89,
      "start": 73.87,
      "duration": 0.1498,
      "velocity": 100,
      "chip": "ym2612"
    },
    {
      "channel": 0,
      "note": 72,
      "start": 74.0364,
      "duration": 0.1498,
      "velocity": 86,
      "chip": "ym2612"
    },
    {
      "channel": 1,
      "note": 41,
      "start": 74.0366,
      "duration": 0.6496,
      "velocity": 100,
      "chip": "ym2612"
    },
    {
      "channel": 2,
      "note": 69,
      "start": 74.0368,
      "duration": 0.6495,
      "velocity": 98,
      "chip": "ym2612"
    },
    {
      "channel": 3,
      "note": 89,
      "start": 74.0371,
      "duration": 0.3159,
      "velocity": 100,
      "chip": "ym2612"
    },
    {
      "channel": 0,
      "note": 70,
      "start": 74.2029,
      "duration": 0.1499,
      "velocity": 86,
      "chip": "ym2612"
    },
    {
      "channel": 0,
      "note": 65,
      "start": 74.3695,
      "duration": 0.1499,
      "velocity": 86,
      "chip": "ym2612"
    },
    {
      "channel": 0,
      "note": 70,
      "start": 74.5363,
      "duration": 0.1499,
      "velocity": 86,
      "chip": "ym2612"
    },
    {
      "channel": 0,
      "note": 74,
      "start": 74.7048,
      "duration": 0.3147,
      "velocity": 100,
      "chip": "ym2612"
    },
    {
      "channel": 1,
      "note": 46,
      "start": 74.7063,
      "duration": 0.3132,
      "velocity": 100,
      "chip": "ym2612"
    },
    {
      "channel": 0,
      "note": 87,
      "start": 75.0364,
      "duration": 0.3165,
      "velocity": 100,
      "chip": "ym2612"
    },
    {
      "channel": 1,
      "note": 44,
      "start": 75.0378,
      "duration": 0.3151,
      "velocity": 98,
      "chip": "ym2612"
    },
    {
      "channel": 2,
      "note": 70,
      "start": 75.0381,
      "duration": 0.3149,
      "velocity": 98,
      "chip": "ym2612"
    },
    {
      "channel": 0,
      "note": 84,
      "start": 75.3696,
      "duration": 0.3166,
      "velocity": 100,
      "chip": "ym2612"
    },
    {
      "channel": 1,
      "note": 80,
      "start": 75.3711,
      "duration": 0.3151,
      "velocity": 100,
      "chip": "ym2612"
    },
    {
      "channel": 0,
      "note": 80,
      "start": 75.7029,
      "duration": 0.3166,
      "velocity": 100,
      "chip": "ym2612"
    },
    {
      "channel": 1,
      "note": 39,
      "start": 75.7044,
      "duration": 0.3151,
      "velocity": 98,
      "chip": "ym2612"
    },
    {
      "channel": 2,
      "note": 72,
      "start": 75.7047,
      "duration": 0.315,
      "velocity": 98,
      "chip": "ym2612"
    }
  ]
}