{
  "track_name": "02 - Turtle Swing",
  "duration_sec": 55.016,
  "sample_rate": 44100,
  "note_count": 1338,
  "unique_pitches": 61,
  "pitch_range": 68,
  "avg_note_duration": 0.1266,
  "reconstruction_stats": {
    "notes_reconstructed": 1338,
    "keyon_events": 1338,
    "keyoff_events": 1324,
    "orphan_keyons": 3,
    "unique_pitches": 61,
    "pitch_range": 68,
    "avg_duration_sec": 0.1266
  },
  "metadata": {
    "source": "T\\Teenage Mutant Ninja Turtles - The Hyperstone Heist\\02 - Turtle Swing.vgz"
  },
  "notes": [
    {
      "channel": 1,
      "note": 85,
      "start": 0.0084,
      "duration": 0.0097,
      "velocity": 62,
      "chip": "ym2612"
    },
    {
      "channel": 0,
      "note": 85,
      "start": 0.0146,
      "duration": 0.0101,
      "velocity": 100,
      "chip": "ym2612"
    },
    {
      "channel": 1,
      "note": 87,
      "start": 0.0208,
      "duration": 0.0086,
      "velocity": 62,
      "chip": "ym2612"
    },
    {
      "channel": 0,
      "note": 87,
      "start": 0.0278,
      "duration": 0.0095,
      "velocity": 100,
      "chip": "ym2612"
    },
    {
      "channel": 3,
      "note": 85,
      "start": 0.0302,
      "duration": 0.0134,
      "velocity": 100,
      "chip": "ym2612"
    },
    {
      "channel": 1,
      "note": 89,
      "start": 0.0349,
      "duration": 0.0103,
      "velocity": 62,
      "chip": "ym2612"
    },
    {
      "channel": 2,
      "note": 85,
      "start": 0.0382,
      "duration": 0.013,
      "velocity": 71,
      "chip": "ym2612"
    },
    {
      "channel": 0,
      "note": 89,
      "start": 0.043,
      "duration": 0.0109,
      "velocity": 100,
      "chip": "ym2612"
    },
    {
      "channel": 3,
      "note": 87,
      "start": 0.046,
      "duration": 0.0134,
      "velocity": 100,
      "chip": "ym2612"
    },
    {
      "channel": 1,
      "note": 91,
      "start": 0.0511,
      "duration": 0.0099,
      "velocity": 62,
      "chip": "ym2612"
    },
    {
      "channel": 2,
      "note": 87,
      "start": 0.0548,
      "duration": 0.0128,
      "velocity": 71,
      "chip": "ym2612"
    },
    {
      "channel": 0,
      "note": 91,
      "start": 0.0588,
      "duration": 0.0113,
      "velocity": 100,
      "chip": "ym2612"
    },
    {
      "channel": 3,
      "note": 89,
      "start": 0.0619,
      "duration": 0.0122,
      "velocity": 100,
      "chip": "ym2612"
    },
    {
      "channel": 1,
      "note": 93,
      "start": 0.0674,
      "duration": 0.0103,
      "velocity": 62,
      "chip": "ym2612"
    },
    {
      "channel": 2,
      "note": 89,
      "start": 0.071,
      "duration": 0.0101,
      "velocity": 71,
      "chip": "ym2612"
    },
    {
      "channel": 0,
      "note": 93,
      "start": 0.0736,
      "duration": 0.0121,
      "velocity": 100,
      "chip": "ym2612"
    },
    {
      "channel": 3,
      "note": 91,
      "start": 0.0785,
      "duration": 0.0111,
      "velocity": 100,
      "chip": "ym2612"
    },
    {
      "channel": 1,
      "note": 95,
      "start": 0.081,
      "duration": 0.0118,
      "velocity": 62,
      "chip": "ym2612"
    },
    {
      "channel": 2,
      "note": 91,
      "start": 0.0866,
      "duration": 0.0101,
      "velocity": 71,
      "chip": "ym2612"
    },
    {
      "channel": 0,
      "note": 95,
      "start": 0.089,
      "duration": 0.0117,
      "velocity": 100,
      "chip": "ym2612"
    },
    {
      "channel": 3,
      "note": 93,
      "start": 0.0936,
      "duration": 0.0111,
      "velocity": 100,
      "chip": "ym2612"
    },
    {
      "channel": 1,
      "note": 97,
      "start": 0.0965,
      "duration": 0.0117,
      "velocity": 62,
      "chip": "ym2612"
    },
    {
      "channel": 2,
      "note": 93,
      "start": 0.1017,
      "duration": 0.0104,
      "velocity": 71,
      "chip": "ym2612"
    },
    {
      "channel": 0,
      "note": 97,
      "start": 0.1042,
      "duration": 0.0102,
      "velocity": 100,
      "chip": "ym2612"
    },
    {
      "channel": 3,
      "note": 95,
      "start": 0.1091,
      "duration": 0.0112,
      "velocity": 100,
      "chip": "ym2612"
    },
    {
      "channel": 1,
      "note": 99,
      "start": 0.112,
      "duration": 0.01,
      "velocity": 62,
      "chip": "ym2612"
    },
    {
      "channel": 2,
      "note": 95,
      "start": 0.1153,
      "duration": 0.0126,
      "velocity": 71,
      "chip": "ym2612"
    },
    {
      "channel": 0,
      "note": 99,
      "start": 0.1198,
      "duration": 0.0105,
      "velocity": 100,
      "chip": "ym2612"
    },
    {
      "channel": 3,
      "note": 97,
      "start": 0.1228,
      "duration": 0.0133,
      "velocity": 100,
      "chip": "ym2612"
    },
    {
      "channel": 1,
      "note": 101,
      "start": 0.1278,
      "duration": 0.0096,
      "velocity": 62,
      "chip": "ym2612"
    },
    {
      "channel": 2,
      "note": 97,
      "start": 0.1311,
      "duration": 0.0119,
      "velocity": 71,
      "chip": "ym2612"
    },
    {
      "channel": 0,
      "note": 101,
      "start": 0.1356,
      "duration": 0.0101,
      "velocity": 100,
      "chip": "ym2612"
    },
    {
      "channel": 3,
      "note": 99,
      "start": 0.1382,
      "duration": 0.0133,
      "velocity": 100,
      "chip": "ym2612"
    },
    {
      "channel": 1,
      "note": 103,
      "start": 0.1429,
      "duration": 0.0103,
      "velocity": 62,
      "chip": "ym2612"
    },
    {
      "channel": 2,
      "note": 99,
      "start": 0.1466,
      "duration": 0.0103,
      "velocity": 71,
      "chip": "ym2612"
    },
    {
      "channel": 0,
      "note": 103,
      "start": 0.151,
      "duration": 0.0104,
      "velocity": 100,
      "chip": "ym2612"
    },
    {
      "channel": 3,
      "note": 101,
      "start": 0.1541,
      "duration": 0.0116,
      "velocity": 100,
      "chip": "ym2612"
    },
    {
      "channel": 1,
      "note": 105,
      "start": 0.1568,
      "duration": 0.012,
      "velocity": 62,
      "chip": "ym2612"
    },
    {
      "channel": 2,
      "note": 101,
      "start": 0.1624,
      "duration": 0.0066,
      "velocity": 71,
      "chip": "ym2612"
    },
    {
      "channel": 0,
      "note": 105,
      "start": 0.1652,
      "duration": 0.0033,
      "velocity": 100,
      "chip": "ym2612"
    },
    {
      "channel": 3,
      "note": 103,
      "start": 0.1697,
      "duration": 0.0168,
      "velocity": 100,
      "chip": "ym2612"
    },
    {
      "channel": 0,
      "note": 54,
      "start": 0.1743,
      "duration": 0.3051,
      "velocity": 108,
      "chip": "ym2612"
    },
    {
      "channel": 1,
      "note": 90,
      "start": 0.1762,
      "duration": 0.0237,
      "velocity": 103,
      "chip": "ym2612"
    },
    {
      "channel": 2,
      "note": 78,
      "start": 0.1787,
      "duration": 0.028,
      "velocity": 101,
      "chip": "ym2612"
    },
    {
      "channel": 3,
      "note": 90,
      "start": 0.1937,
      "duration": 0.0175,
      "velocity": 103,
      "chip": "ym2612"
    },
    {
      "channel": 1,
      "note": 73,
      "start": 0.205,
      "duration": 0.0058,
      "velocity": 99,
      "chip": "ym2612"
    },
    {
      "channel": 1,
      "note": 76,
      "start": 0.2152,
      "duration": 0.1134,
      "velocity": 99,
      "chip": "ym2612"
    },
    {
      "channel": 2,
      "note": 73,
      "start": 0.2172,
      "duration": 0.0445,
      "velocity": 100,
      "chip": "ym2612"
    },
    {
      "channel": 3,
      "note": 73,
      "start": 0.2198,
      "duration": 0.0593,
      "velocity": 99,
      "chip": "ym2612"
    },
    {
      "channel": 4,
      "note": 81,
      "start": 0.2205,
      "duration": 0.2793,
      "velocity": 127,
      "chip": "ym2612"
    },
    {
      "channel": 2,
      "note": 76,
      "start": 0.279,
      "duration": 0.1174,
      "velocity": 100,
      "chip": "ym2612"
    },
    {
      "channel": 3,
      "note": 76,
      "start": 0.3127,
      "duration": 0.1337,
      "velocity": 99,
      "chip": "ym2612"
    },
    {
      "channel": 1,
      "note": 83,
      "start": 0.3963,
      "duration": 0.0833,
      "velocity": 99,
      "chip": "ym2612"
    },
    {
      "channel": 2,
      "note": 83,
      "start": 0.4803,
      "duration": 0.0665,
      "velocity": 100,
      "chip": "ym2612"
    },
    {
      "channel": 0,
      "note": 76,
      "start": 0.4982,
      "duration": 0.1655,
      "velocity": 99,
      "chip": "ym2612"
    },
    {
      "channel": 1,
      "note": 82,
      "start": 0.4988,
      "duration": 0.1148,
      "velocity": 99,
      "chip": "ym2612"
    },
    {
      "channel": 3,
      "note": 83,
      "start": 0.4997,
      "duration": 0.0812,
      "velocity": 99,
      "chip": "ym2612"
    },
    {
      "channel": 2,
      "note": 82,
      "start": 0.5807,
      "duration": 0.1181,
      "velocity": 100,
      "chip": "ym2612"
    },
    {
      "channel": 3,
      "note": 82,
      "start": 0.5977,
      "duration": 0.1507,
      "velocity": 99,
      "chip": "ym2612"
    },
    {
      "channel": 0,
      "note": 83,
      "start": 0.6977,
      "duration": 0.0667,
      "velocity": 99,
      "chip": "ym2612"
    },
    {
      "channel": 1,
      "note": 78,
      "start": 0.6987,
      "duration": 0.1668,
      "velocity": 99,
      "chip": "ym2612"
    },
    {
      "channel": 2,
      "note": 78,
      "start": 0.7656,
      "duration": 0.2007,
      "velocity": 100,
      "chip": "ym2612"
    },
    {
      "channel": 0,
      "note": 82,
      "start": 0.7986,
      "duration": 0.1674,
      "velocity": 99,
      "chip": "ym2612"
    },
    {
      "channel": 3,
      "note": 78,
      "start": 0.7997,
      "duration": 0.2171,
      "velocity": 99,
      "chip": "ym2612"
    },
    {
      "channel": 4,
      "note": 81,
      "start": 0.8004,
      "duration": 0.2845,
      "velocity": 127,
      "chip": "ym2612"
    },
    {
      "channel": 0,
      "note": 78,
      "start": 0.9832,
      "duration": 0.2677,
      "velocity": 99,
      "chip": "ym2612"
    },
    {
      "channel": 1,
      "note": 73,
      "start": 0.9838,
      "duration": 0.0829,
      "velocity": 99,
      "chip": "ym2612"
    },
    {
      "channel": 2,
      "note": 73,
      "start": 1.0673,
      "duration": 0.0665,
      "velocity": 100,
      "chip": "ym2612"
    },
    {
      "channel": 1,
      "note": 76,
      "start": 1.0839,
      "duration": 0.1168,
      "velocity": 99,
      "chip": "ym2612"
    },
    {
      "channel": 3,
      "note": 73,
      "start": 1.0847,
      "duration": 0.0666,
      "velocity": 99,
      "chip": "ym2612"
    },
    {
      "channel": 2,
      "note": 76,
      "start": 1.1511,
      "duration": 0.1345,
      "velocity": 100,
      "chip": "ym2612"
    },
    {
      "channel": 3,
      "note": 76,
      "start": 1.1848,
      "duration": 0.1505,
      "velocity": 99,
      "chip": "ym2612"
    },
    {
      "channel": 0,
      "note": 73,
      "start": 1.2848,
      "duration": 0.0667,
      "velocity": 99,
      "chip": "ym2612"
    },
    {
      "channel": 1,
      "note": 83,
      "start": 1.2854,
      "duration": 0.0662,
      "velocity": 99,
      "chip": "ym2612"
    },
    {
      "channel": 2,
      "note": 83,
      "start": 1.3524,
      "duration": 0.0665,
      "velocity": 100,
      "chip": "ym2612"
    },
    {
      "channel": 0,
      "note": 76,
      "start": 1.3854,
      "duration": 0.1673,
      "velocity": 99,
      "chip": "ym2612"
    },
    {
      "channel": 1,
      "note": 82,
      "start": 1.386,
      "duration": 0.1164,
      "velocity": 99,
      "chip": "ym2612"
    },
    {
      "channel": 3,
      "note": 83,
      "start": 1.3869,
      "duration": 0.0661,
      "velocity": 99,
      "chip": "ym2612"
    },
    {
      "channel": 4,
      "note": 81,
      "start": 1.3876,
      "duration": 0.2892,
      "velocity": 127,
      "chip": "ym2612"
    },
    {
      "channel": 2,
      "note": 82,
      "start": 1.4528,
      "duration": 0.1178,
      "velocity": 100,
      "chip": "ym2612"
    },
    {
      "channel": 3,
      "note": 82,
      "start": 1.4698,
      "duration": 0.1504,
      "velocity": 99,
      "chip": "ym2612"
    },
    {
      "channel": 0,
      "note": 83,
      "start": 1.5698,
      "duration": 0.0833,
      "velocity": 99,
      "chip": "ym2612"
    },
    {
      "channel": 1,
      "note": 78,
      "start": 1.5704,
      "duration": 0.0829,
      "velocity": 99,
      "chip": "ym2612"
    },
    {
      "channel": 2,
      "note": 78,
      "start": 1.6541,
      "duration": 0.0217,
      "velocity": 101,
      "chip": "ym2612"
    },
    {
      "channel": 0,
      "note": 54,
      "start": 1.6718,
      "duration": 0.13,
      "velocity": 108,
      "chip": "ym2612"
    },
    {
      "channel": 1,
      "note": 88,
      "start": 1.6737,
      "duration": 0.0516,
      "velocity": 103,
      "chip": "ym2612"
    },
    {
      "channel": 2,
      "note": 73,
      "start": 1.6758,
      "duration": 0.0429,
      "velocity": 101,
      "chip": "ym2612"
    },
    {
      "channel": 3,
      "note": 78,
      "start": 1.6765,
      "duration": 0.009,
      "velocity": 99,
      "chip": "ym2612"
    },
    {
      "channel": 3,
      "note": 76,
      "start": 1.6902,
      "duration": 0.0791,
      "velocity": 99,
      "chip": "ym2612"
    },
    {
      "channel": 4,
      "note": 81,
      "start": 1.7151,
      "duration": 0.1193,
      "velocity": 127,
      "chip": "ym2612"
    },
    {
      "channel": 0,
      "note": 52,
      "start": 1.819,
      "duration": 0.1735,
      "velocity": 108,
      "chip": "ym2612"
    },
    {
      "channel": 1,
      "note": 87,
      "start": 1.8196,
      "duration": 0.0285,
      "velocity": 103,
      "chip": "ym2612"
    },
    {
      "channel": 2,
      "note": 71,
      "start": 1.8203,
      "duration": 0.0254,
      "velocity": 101,
      "chip": "ym2612"
    },
    {
      "channel": 3,
      "note": 75,
      "start": 1.8342,
      "duration": 0.0061,
      "velocity": 99,
      "chip": "ym2612"
    },
    {
      "channel": 1,
      "note": 64,
      "start": 1.8587,
      "duration": 0.0336,
      "velocity": 99,
      "chip": "ym2612"
    },
    {
      "channel": 2,
      "note": 61,
      "start": 1.8606,
      "duration": 0.0322,
      "velocity": 100,
      "chip": "ym2612"
    },
    {
      "channel": 1,
      "note": 68,
      "start": 1.9095,
      "duration": 0.1334,
      "velocity": 99,
      "chip": "ym2612"
    },
    {
      "channel": 2,
      "note": 64,
      "start": 1.9101,
      "duration": 0.133,
      "velocity": 100,
      "chip": "ym2612"
    },
    {
      "channel": 3,
      "note": 64,
      "start": 1.9108,
      "duration": 0.0827,
      "velocity": 99,
      "chip": "ym2612"
    },
    {
      "channel": 4,
      "note": 81,
      "start": 1.9114,
      "duration": 0.301,
      "velocity": 127,
      "chip": "ym2612"
    },
    {
      "channel": 0,
      "note": 64,
      "start": 2.0109,
      "duration": 0.0821,
      "velocity": 99,
      "chip": "ym2612"
    },
    {
      "channel": 3,
      "note": 68,
      "start": 2.0121,
      "duration": 0.1485,
      "velocity": 99,
      "chip": "ym2612"
    },
    {
      "channel": 0,
      "note": 68,
      "start": 2.1102,
      "duration": 0.1672,
      "velocity": 99,
      "chip": "ym2612"
    },
    {
      "channel": 1,
      "note": 75,
      "start": 2.1108,
      "duration": 0.0662,
      "velocity": 99,
      "chip": "ym2612"
    },
    {
      "channel": 2,
      "note": 71,
      "start": 2.1114,
      "duration": 0.0657,
      "velocity": 100,
      "chip": "ym2612"
    },
    {
      "channel": 1,
      "note": 73,
      "start": 2.2109,
      "duration": 0.1168,
      "velocity": 99,
      "chip": "ym2612"
    },
    {
      "channel": 2,
      "note": 70,
      "start": 2.2115,
      "duration": 0.1165,
      "velocity": 100,
      "chip": "ym2612"
    },
    {
      "channel": 3,
      "note": 75,
      "start": 2.2122,
      "duration": 0.0657,
      "velocity": 99,
      "chip": "ym2612"
    },
    {
      "channel": 0,
      "note": 75,
      "start": 2.3112,
      "duration": 0.0667,
      "velocity": 99,
      "chip": "ym2612"
    },
    {
      "channel": 3,
      "note": 73,
      "start": 2.3123,
      "duration": 0.1332,
      "velocity": 99,
      "chip": "ym2612"
    },
    {
      "channel": 0,
      "note": 73,
      "start": 2.395,
      "duration": 0.184,
      "velocity": 99,
      "chip": "ym2612"
    },
    {
      "channel": 1,
      "note": 71,
      "start": 2.3957,
      "duration": 0.1835,
      "velocity": 99,
      "chip": "ym2612"
    },
    {
      "channel": 2,
      "note": 66,
      "start": 2.3966,
      "duration": 0.2002,
      "velocity": 100,
      "chip": "ym2612"
    },
    {
      "channel": 3,
      "note": 71,
      "start": 2.4966,
      "duration": 0.2174,
      "velocity": 99,
      "chip": "ym2612"
    },
    {
      "channel": 4,
      "note": 81,
      "start": 2.4973,
      "duration": 0.302,
      "velocity": 127,
      "chip": "ym2612"
    },
    {
      "channel": 0,
      "note": 71,
      "start": 2.5964,
      "duration": 0.2679,
      "velocity": 99,
      "chip": "ym2612"
    },
    {
      "channel": 1,
      "note": 64,
      "start": 2.6973,
      "duration": 0.0666,
      "velocity": 99,
      "chip": "ym2612"
    },
    {
      "channel": 2,
      "note": 61,
      "start": 2.6979,
      "duration": 0.0662,
      "velocity": 100,
      "chip": "ym2612"
    },
    {
      "channel": 1,
      "note": 68,
      "start": 2.7979,
      "duration": 0.1168,
      "velocity": 99,
      "chip": "ym2612"
    },
    {
      "channel": 2,
      "note": 64,
      "start": 2.7985,
      "duration": 0.1165,
      "velocity": 100,
      "chip": "ym2612"
    },
    {
      "channel": 3,
      "note": 64,
      "start": 2.7992,
      "duration": 0.0657,
      "velocity": 99,
      "chip": "ym2612"
    },
    {
      "channel": 0,
      "note": 64,
      "start": 2.8983,
      "duration": 0.0666,
      "velocity": 99,
      "chip": "ym2612"
    },
    {
      "channel": 3,
      "note": 68,
      "start": 2.8993,
      "duration": 0.1331,
      "velocity": 99,
      "chip": "ym2612"
    },
    {
      "channel": 0,
      "note": 68,
      "start": 2.982,
      "duration": 0.1839,
      "velocity": 99,
      "chip": "ym2612"
    },
    {
      "channel": 1,
      "note": 75,
      "start": 2.9827,
      "duration": 0.0829,
      "velocity": 99,
      "chip": "ym2612"
    },
    {
      "channel": 2,
      "note": 71,
      "start": 2.9833,
      "duration": 0.0824,
      "velocity": 100,
      "chip": "ym2612"
    },
    {
      "channel": 1,
      "note": 73,
      "start": 3.0828,
      "duration": 0.1168,
      "velocity": 99,
      "chip": "ym2612"
    },
    {
      "channel": 2,
      "note": 70,
      "start": 3.0834,
      "duration": 0.1165,
      "velocity": 100,
      "chip": "ym2612"
    },
    {
      "channel": 3,
      "note": 75,
      "start": 3.0841,
      "duration": 0.0824,
      "velocity": 99,
      "chip": "ym2612"
    },
    {
      "channel": 4,
      "note": 81,
      "start": 3.0848,
      "duration": 0.3058,
      "velocity": 127,
      "chip": "ym2612"
    },
    {
      "channel": 0,
      "note": 75,
      "start": 3.1832,
      "duration": 0.0665,
      "velocity": 99,
      "chip": "ym2612"
    },
    {
      "channel": 3,
      "note": 73,
      "start": 3.1842,
      "duration": 0.1499,
      "velocity": 99,
      "chip": "ym2612"
    },
    {
      "channel": 0,
      "note": 73,
      "start": 3.2837,
      "duration": 0.0666,
      "velocity": 99,
      "chip": "ym2612"
    },
    {
      "channel": 1,
      "note": 71,
      "start": 3.2843,
      "duration": 0.0662,
      "velocity": 99,
      "chip": "ym2612"
    },
    {
      "channel": 2,
      "note": 66,
      "start": 3.2849,
      "duration": 0.0658,
      "velocity": 100,
      "chip": "ym2612"
    },
    {
      "channel": 0,
      "note": 52,
      "start": 3.3856,
      "duration": 0.1544,
      "velocity": 108,
      "chip": "ym2612"
    },
    {
      "channel": 1,
      "note": 87,
      "start": 3.3876,
      "duration": 0.0466,
      "velocity": 103,
      "chip": "ym2612"
    },
    {
      "channel": 2,
      "note": 71,
      "start": 3.3898,
      "duration": 0.0423,
      "velocity": 101,
      "chip": "ym2612"
    },
    {
      "channel": 3,
      "note": 71,
      "start": 3.3904,
      "duration": 0.0094,
      "velocity": 99,
      "chip": "ym2612"
    },
    {
      "channel": 3,
      "note": 75,
      "start": 3.4026,
      "duration": 0.1386,
      "velocity": 99,
      "chip": "ym2612"
    },
    {
      "channel": 4,
      "note": 81,
      "start": 3.4278,
      "duration": 0.1606,
      "velocity": 127,
      "chip": "ym2612"
    },
    {
      "channel": 0,
      "note": 54,
      "start": 3.5739,
      "duration": 0.0341,
      "velocity": 108,
      "chip": "ym2612"
    },
    {
      "channel": 1,
      "note": 88,
      "start": 3.5746,
      "duration": 0.0277,
      "velocity": 103,
      "chip": "ym2612"
    },
    {
      "channel": 2,
      "note": 73,
      "start": 3.5753,
      "duration": 0.0231,
      "velocity": 101,
      "chip": "ym2612"
    },
    {
      "channel": 3,
      "note": 76,
      "start": 3.5882,
      "duration": 0.0104,
      "velocity": 99,
      "chip": "ym2612"
    },
    {
      "channel": 0,
      "note": 73,
      "start": 3.6119,
      "duration": 0.0142,
      "velocity": 99,
      "chip": "ym2612"
    },
    {
      "channel": 1,
      "note": 80,
      "start": 3.6138,
      "duration": 0.0127,
      "velocity": 99,
      "chip": "ym2612"
    },
    {
      "channel": 2,
      "note": 76,
      "start": 3.6157,
      "duration": 0.0112,
      "velocity": 100,
      "chip": "ym2612"
    },
    {
      "channel": 0,
      "note": 76,
      "start": 3.6297,
      "duration": 0.1604,
      "velocity": 99,
      "chip": "ym2612"
    },
    {
      "channel": 1,
      "note": 83,
      "start": 3.6303,
      "duration": 0.1097,
      "velocity": 99,
      "chip": "ym2612"
    },
    {
      "channel": 2,
      "note": 80,
      "start": 3.631,
      "duration": 0.1092,
      "velocity": 100,
      "chip": "ym2612"
    },
    {
      "channel": 3,
      "note": 80,
      "start": 3.6317,
      "duration": 0.0586,
      "velocity": 99,
      "chip": "ym2612"
    },
    {
      "channel": 4,
      "note": 81,
      "start": 3.6324,
      "duration": 0.2776,
      "velocity": 127,
      "chip": "ym2612"
    },
    {
      "channel": 3,
      "note": 83,
      "start": 3.7244,
      "duration": 0.15,
      "velocity": 99,
      "chip": "ym2612"
    },
    {
      "channel": 0,
      "note": 83,
      "start": 3.8241,
      "duration": 0.0666,
      "velocity": 99,
      "chip": "ym2612"
    },
    {
      "channel": 1,
      "note": 92,
      "start": 3.8247,
      "duration": 0.0661,
      "velocity": 99,
      "chip": "ym2612"
    },
    {
      "channel": 2,
      "note": 87,
      "start": 3.8254,
      "duration": 0.0657,
      "velocity": 100,
      "chip": "ym2612"
    },
    {
      "channel": 0,
      "note": 82,
      "start": 3.9078,
      "duration": 0.1839,
      "velocity": 99,
      "chip": "ym2612"
    },
    {
      "channel": 1,
      "note": 90,
      "start": 3.9085,
      "duration": 0.1332,
      "velocity": 99,
      "chip": "ym2612"
    },
    {
      "channel": 2,
      "note": 85,
      "start": 3.9091,
      "duration": 0.1327,
      "velocity": 100,
      "chip": "ym2612"
    },
    {
      "channel": 3,
      "note": 92,
      "start": 3.9098,
      "duration": 0.082,
      "velocity": 99,
      "chip": "ym2612"
    },
    {
      "channel": 3,
      "note": 90,
      "start": 4.009,
      "duration": 0.1504,
      "velocity": 99,
      "chip": "ym2612"
    },
    {
      "channel": 0,
      "note": 78,
      "start": 4.109,
      "duration": 0.2509,
      "velocity": 99,
      "chip": "ym2612"
    },
    {
      "channel": 1,
      "note": 88,
      "start": 4.1096,
      "duration": 0.1667,
      "velocity": 99,
      "chip": "ym2612"
    },
    {
      "channel": 2,
      "note": 83,
      "start": 4.1102,
      "duration": 0.1997,
      "velocity": 100,
      "chip": "ym2612"
    },
    {
      "channel": 3,
      "note": 88,
      "start": 4.2101,
      "duration": 0.2176,
      "velocity": 99,
      "chip": "ym2612"
    },
    {
      "channel": 4,
      "note": 81,
      "start": 4.2108,
      "duration": 0.286,
      "velocity": 127,
      "chip": "ym2612"
    },
    {
      "channel": 0,
      "note": 73,
      "start": 4.4106,
      "duration": 0.0666,
      "velocity": 99,
      "chip": "ym2612"
    },
    {
      "channel": 1,
      "note": 83,
      "start": 4.4115,
      "duration": 0.0659,
      "velocity": 99,
      "chip": "ym2612"
    },
    {
      "channel": 2,
      "note": 76,
      "start": 4.4122,
      "duration": 0.0658,
      "velocity": 100,
      "chip": "ym2612"
    },
    {
      "channel": 0,
      "note": 76,
      "start": 4.4947,
      "duration": 0.184,
      "velocity": 99,
      "chip": "ym2612"
    },
    {
      "channel": 1,
      "note": 83,
      "start": 4.4953,
      "duration": 0.1333,
      "velocity": 99,
      "chip": "ym2612"
    },
    {
      "channel": 2,
      "note": 80,
      "start": 4.496,
      "duration": 0.1329,
      "velocity": 100,
      "chip": "ym2612"
    },
    {
      "channel": 3,
      "note": 83,
      "start": 4.4966,
      "duration": 0.082,
      "velocity": 99,
      "chip": "ym2612"
    },
    {
      "channel": 3,
      "note": 83,
      "start": 4.596,
      "duration": 0.1503,
      "velocity": 99,
      "chip": "ym2612"
    },
    {
      "channel": 0,
      "note": 83,
      "start": 4.6959,
      "duration": 0.0666,
      "velocity": 99,
      "chip": "ym2612"
    },
    {
      "channel": 1,
      "note": 92,
      "start": 4.6965,
      "duration": 0.0661,
      "velocity": 99,
      "chip": "ym2612"
    },
    {
      "channel": 2,
      "note": 87,
      "start": 4.6972,
      "duration": 0.0657,
      "velocity": 100,
      "chip": "ym2612"
    },
    {
      "channel": 0,
      "note": 82,
      "start": 4.7965,
      "duration": 0.1672,
      "velocity": 99,
      "chip": "ym2612"
    },
    {
      "channel": 1,
      "note": 90,
      "start": 4.7971,
      "duration": 0.1164,
      "velocity": 99,
      "chip": "ym2612"
    },
    {
      "channel": 2,
      "note": 85,
      "start": 4.7977,
      "duration": 0.116,
      "velocity": 100,
      "chip": "ym2612"
    },
    {
      "channel": 3,
      "note": 92,
      "start": 4.7984,
      "duration": 0.0652,
      "velocity": 99,
      "chip": "ym2612"
    },
    {
      "channel": 4,
      "note": 81,
      "start": 4.7991,
      "duration": 0.2886,
      "velocity": 127,
      "chip": "ym2612"
    },
    {
      "channel": 3,
      "note": 90,
      "start": 4.8976,
      "duration": 0.1336,
      "velocity": 99,
      "chip": "ym2612"
    },
    {
      "channel": 0,
      "note": 78,
      "start": 4.9808,
      "duration": 0.0833,
      "velocity": 99,
      "chip": "ym2612"
    },
    {
      "channel": 1,
      "note": 83,
      "start": 4.9815,
      "duration": 0.0829,
      "velocity": 99,
      "chip": "ym2612"
    },
    {
      "channel": 2,
      "note": 78,
      "start": 4.9821,
      "duration": 0.0824,
      "velocity": 100,
      "chip": "ym2612"
    },
    {
      "channel": 0,
      "note": 54,
      "start": 5.0828,
      "duration": 0.1718,
      "velocity": 108,
      "chip": "ym2612"
    },
    {
      "channel": 1,
      "note": 88,
      "start": 5.0848,
      "duration": 0.041,
      "velocity": 103,
      "chip": "ym2612"
    },
    {
      "channel": 2,
      "note": 73,
      "start": 5.0868,
      "duration": 0.0425,
      "velocity": 101,
      "chip": "ym2612"
    },
    {
      "channel": 3,
      "note": 83,
      "start": 5.0875,
      "duration": 0.0113,
      "velocity": 99,
      "chip": "ym2612"
    },
    {
      "channel": 3,
      "note": 76,
      "start": 5.1012,
      "duration": 0.1546,
      "velocity": 99,
      "chip": "ym2612"
    },
    {
      "channel": 4,
      "note": 81,
      "start": 5.1272,
      "duration": 0.0954,
      "velocity": 127,
      "chip": "ym2612"
    },
    {
      "channel": 0,
      "note": 54,
      "start": 5.2719,
      "duration": 0.0345,
      "velocity": 108,
      "chip": "ym2612"
    },
    {
      "channel": 1,
      "note": 90,
      "start": 5.2726,
      "duration": 0.0203,
      "velocity": 103,
      "chip": "ym2612"
    },
    {
      "channel": 2,
      "note": 75,
      "start": 5.2733,
      "duration": 0.0199,
      "velocity": 101,
      "chip": "ym2612"
    },
    {
      "channel": 3,
      "note": 78,
      "start": 5.2867,
      "duration": 0.0109,
      "velocity": 99,
      "chip": "ym2612"
    },
    {
      "channel": 0,
      "note": 49,
      "start": 5.3125,
      "duration": 0.0165,
      "velocity": 108,
      "chip": "ym2612"
    },
    {
      "channel": 1,
      "note": 73,
      "start": 5.3148,
      "duration": 0.0146,
      "velocity": 99,
      "chip": "ym2612"
    },
    {
      "channel": 2,
      "note": 76,
      "start": 5.3173,
      "duration": 0.0125,
      "velocity": 99,
      "chip": "ym2612"
    },
    {
      "channel": 0,
      "note": 52,
      "start": 5.3337,
      "duration": 0.025,
      "velocity": 108,
      "chip": "ym2612"
    },
    {
      "channel": 1,
      "note": 76,
      "start": 5.3343,
      "duration": 0.0161,
      "velocity": 99,
      "chip": "ym2612"
    },
    {
      "channel": 2,
      "note": 80,
      "start": 5.3349,
      "duration": 0.0241,
      "velocity": 99,
      "chip": "ym2612"
    },
    {
      "channel": 3,
      "note": 73,
      "start": 5.338,
      "duration": 0.0086,
      "velocity": 99,
      "chip": "ym2612"
    },
    {
      "channel": 3,
      "note": 76,
      "start": 5.3515,
      "duration": 0.026,
      "velocity": 99,
      "chip": "ym2612"
    },
    {
      "channel": 0,
      "note": 59,
      "start": 5.3619,
      "duration": 0.0102,
      "velocity": 108,
      "chip": "ym2612"
    },
    {
      "channel": 1,
      "note": 83,
      "start": 5.3625,
      "duration": 0.0098,
      "velocity": 99,
      "chip": "ym2612"
    },
    {
      "channel": 2,
      "note": 87,
      "start": 5.3632,
      "duration": 0.0093,
      "velocity": 99,
      "chip": "ym2612"
    },
    {
      "channel": 0,
      "note": 58,
      "start": 5.3761,
      "duration": 0.0234,
      "velocity": 108,
      "chip": "ym2612"
    },
    {
      "channel": 1,
      "note": 82,
      "start": 5.3767,
      "duration": 0.0156,
      "velocity": 99,
      "chip": "ym2612"
    },
    {
      "channel": 2,
      "note": 85,
      "start": 5.3773,
      "duration": 0.0225,
      "velocity": 99,
      "chip": "ym2612"
    },
    {
      "channel": 3,
      "note": 83,
      "start": 5.3822,
      "duration": 0.0081,
      "velocity": 99,
      "chip": "ym2612"
    },
    {
      "channel": 3,
      "note": 82,
      "start": 5.3932,
      "duration": 0.028,
      "velocity": 99,
      "chip": "ym2612"
    },
    {
      "channel": 0,
      "note": 54,
      "start": 5.4048,
      "duration": 0.0089,
      "velocity": 108,
      "chip": "ym2612"
    },
    {
      "channel": 1,
      "note": 78,
      "start": 5.4058,
      "duration": 0.0084,
      "velocity": 99,
      "chip": "ym2612"
    },
    {
      "channel": 2,
      "note": 83,
      "start": 5.4064,
      "duration": 0.0081,
      "velocity": 99,
      "chip": "ym2612"
    },
    {
      "channel": 0,
      "note": 52,
      "start": 5.4197,
      "duration": 0.0259,
      "velocity": 108,
      "chip": "ym2612"
    },
    {
      "channel": 1,
      "note": 76,
      "start": 5.4203,
      "duration": 0.0183,
      "velocity": 99,
      "chip": "ym2612"
    },
    {
      "channel": 2,
      "note": 80,
      "start": 5.421,
      "duration": 0.025,
      "velocity": 99,
      "chip": "ym2612"
    },
    {
      "channel": 3,
      "note": 78,
      "start": 5.4239,
      "duration": 0.0098,
      "velocity": 99,
      "chip": "ym2612"
    },
    {
      "channel": 3,
      "note": 76,
      "start": 5.4394,
      "duration": 0.0293,
      "velocity": 99,
      "chip": "ym2612"
    },
    {
      "channel": 0,
      "note": 49,
      "start": 5.4484,
      "duration": 0.0113,
      "velocity": 108,
      "chip": "ym2612"
    },
    {
      "channel": 1,
      "note": 73,
      "start": 5.4491,
      "duration": 0.0108,
      "velocity": 99,
      "chip": "ym2612"
    },
    {
      "channel": 2,
      "note": 76,
      "start": 5.4496,
      "duration": 0.0105,
      "velocity": 99,
      "chip": "ym2612"
    },
    {
      "channel": 0,
      "note": 42,
      "start": 5.4653,
      "duration": 0.0334,
      "velocity": 104,
      "chip": "ym2612"
    },
    {
      "channel": 3,
      "note": 73,
      "start": 5.4714,
      "duration": 0.0093,
      "velocity": 99,
      "chip": "ym2612"
    },
    {
      "channel": 0,
      "note": 54,
      "start": 5.5329,
      "duration": 0.0342,
      "velocity": 104,
      "chip": "ym2612"
    },
    {
      "channel": 1,
      "note": 76,
      "start": 5.5335,
      "duration": 0.0296,
      "velocity": 99,
      "chip": "ym2612"
    },
    {
      "channel": 2,
      "note": 85,
      "start": 5.5342,
      "duration": 0.0293,
      "velocity": 99,
      "chip": "ym2612"
    },
    {
      "channel": 3,
      "note": 85,
      "start": 5.5506,
      "duration": 0.0354,
      "velocity": 99,
      "chip": "ym2612"
    },
    {
      "channel": 0,
      "note": 54,
      "start": 5.5701,
      "duration": 0.0105,
      "velocity": 104,
      "chip": "ym2612"
    },
    {
      "channel": 1,
      "note": 76,
      "start": 5.5707,
      "duration": 0.0102,
      "velocity": 99,
      "chip": "ym2612"
    },
    {
      "channel": 2,
      "note": 85,
      "start": 5.5714,
      "duration": 0.0097,
      "velocity": 99,
      "chip": "ym2612"
    },
    {
      "channel": 0,
      "note": 52,
      "start": 5.5851,
      "duration": 0.0337,
      "velocity": 104,
      "chip": "ym2612"
    },
    {
      "channel": 3,
      "note": 85,
      "start": 5.5889,
      "duration": 0.0069,
      "velocity": 99,
      "chip": "ym2612"
    },
    {
      "channel": 0,
      "note": 52,
      "start": 5.6529,
      "duration": 0.0349,
      "velocity": 104,
      "chip": "ym2612"
    },
    {
      "channel": 1,
      "note": 71,
      "start": 5.6536,
      "duration": 0.03,
      "velocity": 99,
      "chip": "ym2612"
    },
    {
      "channel": 2,
      "note": 87,
      "start": 5.6542,
      "duration": 0.0297,
      "velocity": 99,
      "chip": "ym2612"
    },
    {
      "channel": 3,
      "note": 87,
      "start": 5.6691,
      "duration": 0.0426,
      "velocity": 99,
      "chip": "ym2612"
    },
    {
      "channel": 0,
      "note": 52,
      "start": 5.6905,
      "duration": 0.0107,
      "velocity": 104,
      "chip": "ym2612"
    },
    {
      "channel": 1,
      "note": 71,
      "start": 5.6911,
      "duration": 0.0103,
      "velocity": 99,
      "chip": "ym2612"
    },
    {
      "channel": 2,
      "note": 87,
      "start": 5.6917,
      "duration": 0.0098,
      "velocity": 99,
      "chip": "ym2612"
    },
    {
      "channel": 0,
      "note": 66,
      "start": 5.7071,
      "duration": 0.1349,
      "velocity": 108,
      "chip": "ym2612"
    },
    {
      "channel": 1,
      "note": 73,
      "start": 5.7093,
      "duration": 0.0167,
      "velocity": 101,
      "chip": "ym2612"
    },
    {
      "channel": 2,
      "note": 78,
      "start": 5.7115,
      "duration": 1.0976,
      "velocity": 101,
      "chip": "ym2612"
    },
    {
      "channel": 4,
      "note": 87,
      "start": 5.7127,
      "duration": 0.0119,
      "velocity": 127,
      "chip": "ym2612"
    },
    {
      "channel": 3,
      "note": 87,
      "start": 5.7153,
      "duration": 0.009,
      "velocity": 99,
      "chip": "ym2612"
    },
    {
      "channel": 3,
      "note": 73,
      "start": 5.7291,
      "duration": 0.1402,
      "velocity": 99,
      "chip": "ym2612"
    },
    {
      "channel": 4,
      "note": 87,
      "start": 5.7597,
      "duration": 0.0505,
      "velocity": 127,
      "chip": "ym2612"
    },
    {
      "channel": 0,
      "note": 64,
      "start": 5.8591,
      "duration": 0.0821,
      "velocity": 108,
      "chip": "ym2612"
    },
    {
      "channel": 1,
      "note": 75,
      "start": 5.8597,
      "duration": 0.0222,
      "velocity": 101,
      "chip": "ym2612"
    },
    {
      "channel": 4,
      "note": 87,
      "start": 5.8616,
      "duration": 0.0163,
      "velocity": 127,
      "chip": "ym2612"
    },
    {
      "channel": 3,
      "note": 75,
      "start": 5.8831,
      "duration": 0.1427,
      "velocity": 99,
      "chip": "ym2612"
    },
    {
      "channel": 4,
      "note": 87,
      "start": 5.8939,
      "duration": 0.0317,
      "velocity": 127,
      "chip": "ym2612"
    },
    {
      "channel": 0,
      "note": 63,
      "start": 5.9751,
      "duration": 0.2678,
      "velocity": 108,
      "chip": "ym2612"
    },
    {
      "channel": 1,
      "note": 73,
      "start": 5.9758,
      "duration": 0.1166,
      "velocity": 101,
      "chip": "ym2612"
    },
    {
      "channel": 4,
      "note": 87,
      "start": 5.977,
      "duration": 0.0995,
      "velocity": 127,
      "chip": "ym2612"
    },
    {
      "channel": 3,
      "note": 73,
      "start": 6.0934,
      "duration": 0.1749,
      "velocity": 99,
      "chip": "ym2612"
    },
    {
      "channel": 4,
      "note": 81,
      "start": 6.1618,
      "duration": 0.1068,
      "velocity": 119,
      "chip": "ym2612"
    },
    {
      "channel": 0,
      "note": 61,
      "start": 6.2601,
      "duration": 0.0799,
      "velocity": 108,
      "chip": "ym2612"
    },
    {
      "channel": 1,
      "note": 75,
      "start": 6.2607,
      "duration": 0.0139,
      "velocity": 101,
      "chip": "ym2612"
    },
    {
      "channel": 3,
      "note": 75,
      "start": 6.2783,
      "duration": 0.0625,
      "velocity": 99,
      "chip": "ym2612"
    },
    {
      "channel": 1,
      "note": 73,
      "start": 6.29,
      "duration": 0.1032,
      "velocity": 101,
      "chip": "ym2612"
    },
    {
      "channel": 4,
      "note": 87,
      "start": 6.2923,
      "duration": 0.032,
      "velocity": 127,
      "chip": "ym2612"
    },
    {
      "channel": 0,
      "note": 59,
      "start": 6.3739,
      "duration": 0.1361,
      "velocity": 108,
      "chip": "ym2612"
    },
    {
      "channel": 4,
      "note": 81,
      "start": 6.3754,
      "duration": 0.0134,
      "velocity": 127,
      "chip": "ym2612"
    },
    {
      "channel": 3,
      "note": 73,
      "start": 6.3786,
      "duration": 0.0986,
      "velocity": 99,
      "chip": "ym2612"
    },
    {
      "channel": 1,
      "note": 73,
      "start": 6.4268,
      "duration": 0.0834,
      "velocity": 101,
      "chip": "ym2612"
    },
    {
      "channel": 4,
      "note": 81,
      "start": 6.428,
      "duration": 0.0496,
      "velocity": 127,
      "chip": "ym2612"
    },
    {
      "channel": 0,
      "note": 57,
      "start": 6.5271,
      "duration": 0.0805,
      "velocity": 108,
      "chip": "ym2612"
    },
    {
      "channel": 1,
      "note": 75,
      "start": 6.5277,
      "duration": 0.0339,
      "velocity": 101,
      "chip": "ym2612"
    },
    {
      "channel": 4,
      "note": 81,
      "start": 6.529,
      "duration": 0.0149,
      "velocity": 127,
      "chip": "ym2612"
    },
    {
      "channel": 3,
      "note": 73,
      "start": 6.5341,
      "duration": 0.0095,
      "velocity": 99,
      "chip": "ym2612"
    },
    {
      "channel": 3,
      "note": 75,
      "start": 6.5467,
      "duration": 0.1288,
      "velocity": 99,
      "chip": "ym2612"
    },
    {
      "channel": 4,
      "note": 81,
      "start": 6.5597,
      "duration": 0.0322,
      "velocity": 127,
      "chip": "ym2612"
    },
    {
      "channel": 0,
      "note": 54,
      "start": 6.6416,
      "duration": 0.1672,
      "velocity": 108,
      "chip": "ym2612"
    },
    {
      "channel": 1,
      "note": 73,
      "start": 6.6422,
      "duration": 0.1333,
      "velocity": 101,
      "chip": "ym2612"
    },
    {
      "channel": 4,
      "note": 81,
      "start": 6.6434,
      "duration": 0.0826,
      "velocity": 127,
      "chip": "ym2612"
    },
    {
      "channel": 3,
      "note": 73,
      "start": 6.7597,
      "duration": 0.0819,
      "velocity": 99,
      "chip": "ym2612"
    },
    {
      "channel": 0,
      "note": 66,
      "start": 6.8271,
      "duration": 0.0137,
      "velocity": 111,
      "chip": "ym2612"
    },
    {
      "channel": 1,
      "note": 75,
      "start": 6.8277,
      "duration": 0.0973,
      "velocity": 101,
      "chip": "ym2612"
    },
    {
      "channel": 4,
      "note": 81,
      "start": 6.8289,
      "duration": 0.0078,
      "velocity": 127,
      "chip": "ym2612"
    },
    {
      "channel": 0,
      "note": 54,
      "start": 6.8451,
      "duration": 0.0254,
      "velocity": 108,
      "chip": "ym2612"
    },
    {
      "channel": 2,
      "note": 73,
      "start": 6.8459,
      "duration": 0.0034,
      "velocity": 101,
      "chip": "ym2612"
    },
    {
      "channel": 4,
      "note": 81,
      "start": 6.8468,
      "duration": 0.0148,
      "velocity": 127,
      "chip": "ym2612"
    },
    {
      "channel": 2,
      "note": 75,
      "start": 6.8493,
      "duration": 0.0051,
      "velocity": 101,
      "chip": "ym2612"
    },
    {
      "channel": 3,
      "note": 75,
      "start": 6.8499,
      "duration": 0.0941,
      "velocity": 99,
      "chip": "ym2612"
    },
    {
      "channel": 2,
      "note": 76,
      "start": 6.8567,
      "duration": 0.0044,
      "velocity": 101,
      "chip": "ym2612"
    },
    {
      "channel": 2,
      "note": 78,
      "start": 6.8611,
      "duration": 0.0023,
      "velocity": 101,
      "chip": "ym2612"
    },
    {
      "channel": 2,
      "note": 80,
      "start": 6.8684,
      "duration": 0.0031,
      "velocity": 101,
      "chip": "ym2612"
    },
    {
      "channel": 2,
      "note": 82,
      "start": 6.8715,
      "duration": 0.0046,
      "velocity": 101,
      "chip": "ym2612"
    },
    {
      "channel": 0,
      "note": 56,
      "start": 6.8756,
      "duration": 0.0493,
      "velocity": 108,
      "chip": "ym2612"
    },
    {
      "channel": 4,
      "note": 81,
      "start": 6.8769,
      "duration": 0.0324,
      "velocity": 127,
      "chip": "ym2612"
    },
    {
      "channel": 2,
      "note": 83,
      "start": 6.8791,
      "duration": 0.0298,
      "velocity": 101,
      "chip": "ym2612"
    },
    {
      "channel": 2,
      "note": 84,
      "start": 6.9089,
      "duration": 0.0163,
      "velocity": 101,
      "chip": "ym2612"
    },
    {
      "channel": 0,
      "note": 57,
      "start": 6.9421,
      "duration": 0.1366,
      "velocity": 108,
      "chip": "ym2612"
    },
    {
      "channel": 1,
      "note": 76,
      "start": 6.9428,
      "duration": 0.0189,
      "velocity": 101,
      "chip": "ym2612"
    },
    {
      "channel": 2,
      "note": 85,
      "start": 6.9438,
      "duration": 1.1024,
      "velocity": 101,
      "chip": "ym2612"
    },
    {
      "channel": 4,
      "note": 87,
      "start": 6.9447,
      "duration": 0.0135,
      "velocity": 127,
      "chip": "ym2612"
    },
    {
      "channel": 3,
      "note": 76,
      "start": 6.9629,
      "duration": 0.1576,
      "velocity": 99,
      "chip": "ym2612"
    },
    {
      "channel": 4,
      "note": 87,
      "start": 7.0129,
      "duration": 0.0499,
      "velocity": 127,
      "chip": "ym2612"
    },
    {
      "channel": 0,
      "note": 58,
      "start": 7.1126,
      "duration": 0.081,
      "velocity": 108,
      "chip": "ym2612"
    },
    {
      "channel": 1,
      "note": 78,
      "start": 7.1132,
      "duration": 0.0154,
      "velocity": 101,
      "chip": "ym2612"
    },
    {
      "channel": 4,
      "note": 87,
      "start": 7.1143,
      "duration": 0.013,
      "velocity": 127,
      "chip": "ym2612"
    },
    {
      "channel": 3,
      "note": 78,
      "start": 7.1295,
      "duration": 0.1317,
      "velocity": 99,
      "chip": "ym2612"
    },
    {
      "channel": 4,
      "note": 87,
      "start": 7.1409,
      "duration": 0.0202,
      "velocity": 127,
      "chip": "ym2612"
    },
    {
      "channel": 0,
      "note": 59,
      "start": 7.2108,
      "duration": 0.2678,
      "velocity": 108,
      "chip": "ym2612"
    },
    {
      "channel": 1,
      "note": 76,
      "start": 7.2114,
      "duration": 0.1333,
      "velocity": 101,
      "chip": "ym2612"
    },
    {
      "channel": 4,
      "note": 87,
      "start": 7.2124,
      "duration": 0.0994,
      "velocity": 127,
      "chip": "ym2612"
    },
    {
      "channel": 3,
      "note": 76,
      "start": 7.3455,
      "duration": 0.1743,
      "velocity": 99,
      "chip": "ym2612"
    },
    {
      "channel": 4,
      "note": 81,
      "start": 7.4139,
      "duration": 0.1061,
      "velocity": 119,
      "chip": "ym2612"
    },
    {
      "channel": 0,
      "note": 60,
      "start": 7.5125,
      "duration": 0.0809,
      "velocity": 108,
      "chip": "ym2612"
    },
    {
      "channel": 1,
      "note": 78,
      "start": 7.5131,
      "duration": 0.0128,
      "velocity": 101,
      "chip": "ym2612"
    },
    {
      "channel": 3,
      "note": 78,
      "start": 7.5294,
      "duration": 0.0645,
      "velocity": 99,
      "chip": "ym2612"
    },
    {
      "channel": 1,
      "note": 76,
      "start": 7.539,
      "duration": 0.0912,
      "velocity": 101,
      "chip": "ym2612"
    },
    {
      "channel": 4,
      "note": 87,
      "start": 7.5411,
      "duration": 0.0195,
      "velocity": 127,
      "chip": "ym2612"
    },
    {
      "channel": 0,
      "note": 61,
      "start": 7.6105,
      "duration": 0.1358,
      "velocity": 108,
      "chip": "ym2612"
    },
    {
      "channel": 4,
      "note": 81,
      "start": 7.6117,
      "duration": 0.0147,
      "velocity": 127,
      "chip": "ym2612"
    },
    {
      "channel": 3,
      "note": 76,
      "start": 7.6168,
      "duration": 0.1133,
      "velocity": 99,
      "chip": "ym2612"
    },
    {
      "channel": 1,
      "note": 76,
      "start": 7.6799,
      "duration": 0.0666,
      "velocity": 101,
      "chip": "ym2612"
    },
    {
      "channel": 4,
      "note": 81,
      "start": 7.6808,
      "duration": 0.0496,
      "velocity": 127,
      "chip": "ym2612"
    },
    {
      "channel": 0,
      "note": 59,
      "start": 7.7802,
      "duration": 0.0813,
      "velocity": 108,
      "chip": "ym2612"
    },
    {
      "channel": 1,
      "note": 78,
      "start": 7.7808,
      "duration": 0.032,
      "velocity": 101,
      "chip": "ym2612"
    },
    {
      "channel": 4,
      "note": 81,
      "start": 7.7818,
      "duration": 0.0143,
      "velocity": 127,
      "chip": "ym2612"
    },
    {
      "channel": 3,
      "note": 76,
      "start": 7.7846,
      "duration": 0.0112,
      "velocity": 99,
      "chip": "ym2612"
    },
    {
      "channel": 3,
      "note": 78,
      "start": 7.7987,
      "duration": 0.1304,
      "velocity": 99,
      "chip": "ym2612"
    },
    {
      "channel": 4,
      "note": 81,
      "start": 7.8088,
      "duration": 0.0201,
      "velocity": 127,
      "chip": "ym2612"
    },
    {
      "channel": 0,
      "note": 57,
      "start": 7.8787,
      "duration": 0.1672,
      "velocity": 108,
      "chip": "ym2612"
    },
    {
      "channel": 1,
      "note": 76,
      "start": 7.8793,
      "duration": 0.1499,
      "velocity": 101,
      "chip": "ym2612"
    },
    {
      "channel": 4,
      "note": 81,
      "start": 7.8802,
      "duration": 0.0993,
      "velocity": 127,
      "chip": "ym2612"
    },
    {
      "channel": 3,
      "note": 76,
      "start": 7.9965,
      "duration": 0.1505,
      "velocity": 99,
      "chip": "ym2612"
    },
    {
      "channel": 0,
      "note": 69,
      "start": 8.081,
      "duration": 0.0655,
      "velocity": 111,
      "chip": "ym2612"
    },
    {
      "channel": 1,
      "note": 78,
      "start": 8.0816,
      "duration": 0.1795,
      "velocity": 101,
      "chip": "ym2612"
    },
    {
      "channel": 4,
      "note": 81,
      "start": 8.084,
      "duration": 0.0464,
      "velocity": 119,
      "chip": "ym2612"
    },
    {
      "channel": 0,
      "note": 56,
      "start": 8.1815,
      "duration": 0.0241,
      "velocity": 108,
      "chip": "ym2612"
    },
    {
      "channel": 2,
      "note": 78,
      "start": 8.1823,
      "duration": 0.079,
      "velocity": 101,
      "chip": "ym2612"
    },
    {
      "channel": 4,
      "note": 81,
      "start": 8.1845,
      "duration": 0.0179,
      "velocity": 127,
      "chip": "ym2612"
    },
    {
      "channel": 3,
      "note": 78,
      "start": 8.187,
      "duration": 0.0929,
      "velocity": 99,
      "chip": "ym2612"
    },
    {
      "channel": 0,
      "note": 57,
      "start": 8.2084,
      "duration": 0.0525,
      "velocity": 108,
      "chip": "ym2612"
    },
    {
      "channel": 0,
      "note": 59,
      "start": 8.278,
      "duration": 0.1363,
      "velocity": 108,
      "chip": "ym2612"
    },
    {
      "channel": 1,
      "note": 81,
      "start": 8.2787,
      "duration": 0.0159,
      "velocity": 101,
      "chip": "ym2612"
    },
    {
      "channel": 2,
      "note": 88,
      "start": 8.2797,
      "duration": 0.4554,
      "velocity": 101,
      "chip": "ym2612"
    },
    {
      "channel": 4,
      "note": 81,
      "start": 8.2805,
      "duration": 0.0128,
      "velocity": 127,
      "chip": "ym2612"
    },
    {
      "channel": 3,
      "note": 81,
      "start": 8.2959,
      "duration": 0.1578,
      "velocity": 99,
      "chip": "ym2612"
    },
    {
      "channel": 4,
      "note": 81,
      "start": 8.3485,
      "duration": 0.0499,
      "velocity": 127,
      "chip": "ym2612"
    },
    {
      "channel": 0,
      "note": 58,
      "start": 8.4483,
      "duration": 0.0811,
      "velocity": 108,
      "chip": "ym2612"
    },
    {
      "channel": 1,
      "note": 83,
      "start": 8.4488,
      "duration": 0.0156,
      "velocity": 101,
      "chip": "ym2612"
    },
    {
      "channel": 4,
      "note": 81,
      "start": 8.45,
      "duration": 0.0109,
      "velocity": 127,
      "chip": "ym2612"
    },
    {
      "channel": 3,
      "note": 83,
      "start": 8.4653,
      "duration": 0.0892,
      "velocity": 99,
      "chip": "ym2612"
    },
    {
      "channel": 4,
      "note": 81,
      "start": 8.4748,
      "duration": 0.0219,
      "velocity": 127,
      "chip": "ym2612"
    },
    {
      "channel": 0,
      "note": 57,
      "start": 8.5465,
      "duration": 0.1353,
      "velocity": 108,
      "chip": "ym2612"
    },
    {
      "channel": 1,
      "note": 81,
      "start": 8.5471,
      "duration": 0.0156,
      "velocity": 101,
      "chip": "ym2612"
    },
    {
      "channel": 4,
      "note": 81,
      "start": 8.5481,
      "duration": 0.0129,
      "velocity": 127,
      "chip": "ym2612"
    },
    {
      "channel": 3,
      "note": 81,
      "start": 8.5635,
      "duration": 0.1441,
      "velocity": 99,
      "chip": "ym2612"
    },
    {
      "channel": 4,
      "note": 81,
      "start": 8.6171,
      "duration": 0.0488,
      "velocity": 119,
      "chip": "ym2612"
    },
    {
      "channel": 0,
      "note": 54,
      "start": 8.699,
      "duration": 0.0408,
      "velocity": 108,
      "chip": "ym2612"
    },
    {
      "channel": 1,
      "note": 83,
      "start": 8.6996,
      "duration": 0.0144,
      "velocity": 101,
      "chip": "ym2612"
    },
    {
      "channel": 4,
      "note": 81,
      "start": 8.7016,
      "duration": 0.013,
      "velocity": 127,
      "chip": "ym2612"
    },
    {
      "channel": 3,
      "note": 83,
      "start": 8.7196,
      "duration": 0.0207,
      "velocity": 99,
      "chip": "ym2612"
    },
    {
      "channel": 1,
      "note": 81,
      "start": 8.7299,
      "duration": 0.0863,
      "velocity": 101,
      "chip": "ym2612"
    },
    {
      "channel": 4,
      "note": 81,
      "start": 8.7308,
      "duration": 0.0072,
      "velocity": 127,
      "chip": "ym2612"
    },
    {
      "channel": 0,
      "note": 52,
      "start": 8.7448,
      "duration": 0.1214,
      "velocity": 108,
      "chip": "ym2612"
    },
    {
      "channel": 2,
      "note": 87,
      "start": 8.7456,
      "duration": 0.5255,
      "velocity": 101,
      "chip": "ym2612"
    },
    {
      "channel": 4,
      "note": 81,
      "start": 8.7464,
      "duration": 0.0536,
      "velocity": 127,
      "chip": "ym2612"
    },
    {
      "channel": 3,
      "note": 81,
      "start": 8.7492,
      "duration": 0.1577,
      "velocity": 99,
      "chip": "ym2612"
    },
    {
      "channel": 0,
      "note": 64,
      "start": 8.9012,
      "duration": 0.0096,
      "velocity": 111,
      "chip": "ym2612"
    },
    {
      "channel": 1,
      "note": 81,
      "start": 8.9019,
      "duration": 0.0092,
      "velocity": 101,
      "chip": "ym2612"
    },
    {
      "channel": 4,
      "note": 81,
      "start": 8.9028,
      "duration": 0.0045,
      "velocity": 127,
      "chip": "ym2612"
    },
    {
      "channel": 0,
      "note": 63,
      "start": 8.9147,
      "duration": 0.0271,
      "velocity": 108,
      "chip": "ym2612"
    },
    {
      "channel": 1,
      "note": 83,
      "start": 8.9153,
      "duration": 0.0321,
      "velocity": 101,
      "chip": "ym2612"
    },
    {
      "channel": 4,
      "note": 81,
      "start": 8.9164,
      "duration": 0.0149,
      "velocity": 127,
      "chip": "ym2612"
    },
    {
      "channel": 3,
      "note": 81,
      "start": 8.9214,
      "duration": 0.0096,
      "velocity": 99,
      "chip": "ym2612"
    },
    {
      "channel": 3,
      "note": 83,
      "start": 8.9358,
      "duration": 0.1441,
      "velocity": 99,
      "chip": "ym2612"
    },
    {
      "channel": 0,
      "note": 61,
      "start": 8.9444,
      "duration": 0.0512,
      "velocity": 108,
      "chip": "ym2612"
    },
    {
      "channel": 4,
      "note": 81,
      "start": 8.9457,
      "duration": 0.034,
      "velocity": 127,
      "chip": "ym2612"
    },
    {
      "channel": 0,
      "note": 52,
      "start": 9.0296,
      "duration": 0.1672,
      "velocity": 108,
      "chip": "ym2612"
    },
    {
      "channel": 1,
      "note": 81,
      "start": 9.0301,
      "duration": 0.15,
      "velocity": 101,
      "chip": "ym2612"
    },
    {
      "channel": 4,
      "note": 81,
      "start": 9.0312,
      "duration": 0.0994,
      "velocity": 127,
      "chip": "ym2612"
    },
    {
      "channel": 3,
      "note": 81,
      "start": 9.1475,
      "duration": 0.0794,
      "velocity": 99,
      "chip": "ym2612"
    },
    {
      "channel": 0,
      "note": 59,
      "start": 9.215,
      "duration": 0.106,
      "velocity": 111,
      "chip": "ym2612"
    },
    {
      "channel": 1,
      "note": 83,
      "start": 9.2157,
      "duration": 0.1056,
      "velocity": 101,
      "chip": "ym2612"
    },
    {
      "channel": 4,
      "note": 81,
      "start": 9.2166,
      "duration": 0.0063,
      "velocity": 127,
      "chip": "ym2612"
    },
    {
      "channel": 4,
      "note": 81,
      "start": 9.23,
      "duration": 0.013,
      "velocity": 127,
      "chip": "ym2612"
    },
    {
      "channel": 3,
      "note": 83,
      "start": 9.234,
      "duration": 0.1233,
      "velocity": 99,
      "chip": "ym2612"
    },
    {
      "channel": 4,
      "note": 81,
      "start": 9.258,
      "duration": 0.0475,
      "velocity": 127,
      "chip": "ym2612"
    },
    {
      "channel": 0,
      "note": 54,
      "start": 9.3564,
      "duration": 0.0346,
      "velocity": 108,
      "chip": "ym2612"
    },
    {
      "channel": 4,
      "note": 81,
      "start": 9.358,
      "duration": 0.0106,
      "velocity": 127,
      "chip": "ym2612"
    },
    {
      "channel": 0,
      "note": 49,
      "start": 9.4081,
      "duration": 0.011,
      "velocity": 108,
      "chip": "ym2612"
    },
    {
      "channel": 1,
      "note": 73,
      "start": 9.4088,
      "duration": 0.0105,
      "velocity": 101,
      "chip": "ym2612"
    },
    {
      "channel": 2,
      "note": 76,
      "start": 9.4107,
      "duration": 0.0089,
      "velocity": 99,
      "chip": "ym2612"
    },
    {
      "channel": 4,
      "note": 81,
      "start": 9.4114,
      "duration": 0.0053,
      "velocity": 127,
      "chip": "ym2612"
    },
    {
      "channel": 0,
      "note": 52,
      "start": 9.4215,
      "duration": 0.025,
      "velocity": 108,
      "chip": "ym2612"
    },
    {
      "channel": 1,
      "note": 76,
      "start": 9.422,
      "duration": 0.0169,
      "velocity": 101,
      "chip": "ym2612"
    },
    {
      "channel": 2,
      "note": 80,
      "start": 9.4227,
      "duration": 0.0241,
      "velocity": 99,
      "chip": "ym2612"
    },
    {
      "channel": 4,
      "note": 81,
      "start": 9.4234,
      "duration": 0.0136,
      "velocity": 127,
      "chip": "ym2612"
    },
    {
      "channel": 3,
      "note": 73,
      "start": 9.428,
      "duration": 0.0087,
      "velocity": 99,
      "chip": "ym2612"
    },
    {
      "channel": 3,
      "note": 76,
      "start": 9.44,
      "duration": 0.0637,
      "velocity": 99,
      "chip": "ym2612"
    },
    {
      "channel": 0,
      "note": 59,
      "start": 9.4508,
      "duration": 0.0522,
      "velocity": 108,
      "chip": "ym2612"
    },
    {
      "channel": 1,
      "note": 83,
      "start": 9.4514,
      "duration": 0.0518,
      "velocity": 101,
      "chip": "ym2612"
    },
    {
      "channel": 2,
      "note": 87,
      "start": 9.4521,
      "duration": 0.0513,
      "velocity": 99,
      "chip": "ym2612"
    },
    {
      "channel": 4,
      "note": 87,
      "start": 9.4529,
      "duration": 0.0341,
      "velocity": 127,
      "chip": "ym2612"
    },
    {
      "channel": 0,
      "note": 58,
      "start": 9.537,
      "duration": 0.035,
      "velocity": 108,
      "chip": "ym2612"
    },
    {
      "channel": 1,
      "note": 82,
      "start": 9.5375,
      "duration": 0.0171,
      "velocity": 101,
      "chip": "ym2612"
    },
    {
      "channel": 2,
      "note": 85,
      "start": 9.5382,
      "duration": 0.0342,
      "velocity": 99,
      "chip": "ym2612"
    },
    {
      "channel": 4,
      "note": 81,
      "start": 9.539,
      "duration": 0.0122,
      "velocity": 127,
      "chip": "ym2612"
    },
    {
      "channel": 3,
      "note": 83,
      "start": 9.5422,
      "duration": 0.0087,
      "velocity": 99,
      "chip": "ym2612"
    },
    {
      "channel": 3,
      "note": 82,
      "start": 9.5557,
      "duration": 0.0456,
      "velocity": 99,
      "chip": "ym2612"
    },
    {
      "channel": 0,
      "note": 54,
      "start": 9.5892,
      "duration": 0.0115,
      "velocity": 108,
      "chip": "ym2612"
    },
    {
      "channel": 1,
      "note": 78,
      "start": 9.5899,
      "duration": 0.011,
      "velocity": 101,
      "chip": "ym2612"
    },
    {
      "channel": 2,
      "note": 83,
      "start": 9.5904,
      "duration": 0.0106,
      "velocity": 99,
      "chip": "ym2612"
    },
    {
      "channel": 4,
      "note": 81,
      "start": 9.5912,
      "duration": 0.0063,
      "velocity": 127,
      "chip": "ym2612"
    },
    {
      "channel": 0,
      "note": 52,
      "start": 9.6033,
      "duration": 0.0254,
      "velocity": 108,
      "chip": "ym2612"
    },
    {
      "channel": 1,
      "note": 76,
      "start": 9.6039,
      "duration": 0.0175,
      "velocity": 101,
      "chip": "ym2612"
    },
    {
      "channel": 2,
      "note": 80,
      "start": 9.6046,
      "duration": 0.0245,
      "velocity": 99,
      "chip": "ym2612"
    },
    {
      "channel": 4,
      "note": 81,
      "start": 9.6053,
      "duration": 0.0141,
      "velocity": 127,
      "chip": "ym2612"
    },
    {
      "channel": 3,
      "note": 78,
      "start": 9.6102,
      "duration": 0.009,
      "velocity": 99,
      "chip": "ym2612"
    },
    {
      "channel": 3,
      "note": 76,
      "start": 9.6223,
      "duration": 0.0219,
      "velocity": 99,
      "chip": "ym2612"
    },
    {
      "channel": 0,
      "note": 49,
      "start": 9.6334,
      "duration": 0.0102,
      "velocity": 108,
      "chip": "ym2612"
    },
    {
      "channel": 1,
      "note": 73,
      "start": 9.6339,
      "duration": 0.0099,
      "velocity": 101,
      "chip": "ym2612"
    },
    {
      "channel": 2,
      "note": 76,
      "start": 9.6346,
      "duration": 0.0094,
      "velocity": 99,
      "chip": "ym2612"
    },
    {
      "channel": 4,
      "note": 81,
      "start": 9.6353,
      "duration": 0.0072,
      "velocity": 127,
      "chip": "ym2612"
    },
    {
      "channel": 0,
      "note": 52,
      "start": 9.649,
      "duration": 0.0333,
      "velocity": 104,
      "chip": "ym2612"
    },
    {
      "channel": 4,
      "note": 81,
      "start": 9.6518,
      "duration": 0.0105,
      "velocity": 127,
      "chip": "ym2612"
    },
    {
      "channel": 3,
      "note": 73,
      "start": 9.6549,
      "duration": 0.0072,
      "velocity": 99,
      "chip": "ym2612"
    },
    {
      "channel": 0,
      "note": 52,
      "start": 9.6995,
      "duration": 0.0408,
      "velocity": 104,
      "chip": "ym2612"
    },
    {
      "channel": 1,
      "note": 76,
      "start": 9.7,
      "duration": 0.038,
      "velocity": 99,
      "chip": "ym2612"
    },
    {
      "channel": 2,
      "note": 85,
      "start": 9.7012,
      "duration": 0.037,
      "velocity": 99,
      "chip": "ym2612"
    },
    {
      "channel": 4,
      "note": 81,
      "start": 9.703,
      "duration": 0.0073,
      "velocity": 119,
      "chip": "ym2612"
    },
    {
      "channel": 4,
      "note": 81,
      "start": 9.7186,
      "duration": 0.0139,
      "velocity": 127,
      "chip": "ym2612"
    },
    {
      "channel": 3,
      "note": 76,
      "start": 9.7214,
      "duration": 0.0328,
      "velocity": 99,
      "chip": "ym2612"
    },
    {
      "channel": 0,
      "note": 52,
      "start": 9.7454,
      "duration": 0.0107,
      "velocity": 104,
      "chip": "ym2612"
    },
    {
      "channel": 1,
      "note": 76,
      "start": 9.746,
      "duration": 0.0102,
      "velocity": 99,
      "chip": "ym2612"
    },
    {
      "channel": 2,
      "note": 85,
      "start": 9.7467,
      "duration": 0.0099,
      "velocity": 99,
      "chip": "ym2612"
    },
    {
      "channel": 4,
      "note": 81,
      "start": 9.7478,
      "duration": 0.0067,
      "velocity": 127,
      "chip": "ym2612"
    },
    {
      "channel": 0,
      "note": 54,
      "start": 9.759,
      "duration": 0.0523,
      "velocity": 104,
      "chip": "ym2612"
    },
    {
      "channel": 4,
      "note": 81,
      "start": 9.7609,
      "duration": 0.0116,
      "velocity": 127,
      "chip": "ym2612"
    },
    {
      "channel": 3,
      "note": 76,
      "start": 9.7647,
      "duration": 0.0072,
      "velocity": 99,
      "chip": "ym2612"
    },
    {
      "channel": 0,
      "note": 54,
      "start": 9.8285,
      "duration": 0.0408,
      "velocity": 104,
      "chip": "ym2612"
    },
    {
      "channel": 1,
      "note": 78,
      "start": 9.8291,
      "duration": 0.0636,
      "velocity": 99,
      "chip": "ym2612"
    },
    {
      "channel": 2,
      "note": 87,
      "start": 9.8298,
      "duration": 0.0474,
      "velocity": 99,
      "chip": "ym2612"
    },
    {
      "channel": 4,
      "note": 81,
      "start": 9.8316,
      "duration": 0.0071,
      "velocity": 119,
      "chip": "ym2612"
    },
    {
      "channel": 4,
      "note": 81,
      "start": 9.8469,
      "duration": 0.0139,
      "velocity": 127,
      "chip": "ym2612"
    },
    {
      "channel": 3,
      "note": 78,
      "start": 9.8498,
      "duration": 0.0654,
      "velocity": 99,
      "chip": "ym2612"
    },
    {
      "channel": 0,
      "note": 54,
      "start": 9.8741,
      "duration": 0.0183,
      "velocity": 104,
      "chip": "ym2612"
    },
    {
      "channel": 4,
      "note": 81,
      "start": 9.8755,
      "duration": 0.0048,
      "velocity": 127,
      "chip": "ym2612"
    },
    {
      "channel": 0,
      "note": 66,
      "start": 9.9108,
      "duration": 0.1348,
      "velocity": 108,
      "chip": "ym2612"
    },
    {
      "channel": 1,
      "note": 73,
      "start": 9.9128,
      "duration": 0.0205,
      "velocity": 101,
      "chip": "ym2612"
    },
    {
      "channel": 2,
      "note": 78,
      "start": 9.9149,
      "duration": 1.0437,
      "velocity": 101,
      "chip": "ym2612"
    },
    {
      "channel": 4,
      "note": 81,
      "start": 9.9159,
      "duration": 0.0138,
      "velocity": 127,
      "chip": "ym2612"
    },
    {
      "channel": 3,
      "note": 73,
      "start": 9.9344,
      "duration": 0.1538,
      "velocity": 99,
      "chip": "ym2612"
    },
    {
      "channel": 4,
      "note": 81,
      "start": 9.9797,
      "duration": 0.0499,
      "velocity": 127,
      "chip": "ym2612"
    },
    {
      "channel": 0,
      "note": 64,
      "start": 10.0795,
      "duration": 0.0812,
      "velocity": 108,
      "chip": "ym2612"
    },
    {
      "channel": 1,
      "note": 75,
      "start": 10.0801,
      "duration": 0.017,
      "velocity": 101,
      "chip": "ym2612"
    },
    {
      "channel": 4,
      "note": 81,
      "start": 10.0812,
      "duration": 0.0141,
      "velocity": 127,
      "chip": "ym2612"
    },
    {
      "channel": 3,
      "note": 75,
      "start": 10.0979,
      "duration": 0.1304,
      "velocity": 99,
      "chip": "ym2612"
    },
    {
      "channel": 4,
      "note": 81,
      "start": 10.1068,
      "duration": 0.0212,
      "velocity": 127,
      "chip": "ym2612"
    },
    {
      "channel": 0,
      "note": 63,
      "start": 10.1779,
      "duration": 0.2677,
      "velocity": 108,
      "chip": "ym2612"
    },
    {
      "channel": 1,
      "note": 73,
      "start": 10.1784,
      "duration": 0.1333,
      "velocity": 101,
      "chip": "ym2612"
    },
    {
      "channel": 4,
      "note": 81,
      "start": 10.1794,
      "duration": 0.0994,
      "velocity": 127,
      "chip": "ym2612"
    },
    {
      "channel": 3,
      "note": 73,
      "start": 10.3126,
      "duration": 0.1752,
      "velocity": 99,
      "chip": "ym2612"
    },
    {
      "channel": 4,
      "note": 81,
      "start": 10.3798,
      "duration": 0.0499,
      "velocity": 127,
      "chip": "ym2612"
    },
    {
      "channel": 0,
      "note": 61,
      "start": 10.4796,
      "duration": 0.0406,
      "velocity": 108,
      "chip": "ym2612"
    },
    {
      "channel": 1,
      "note": 75,
      "start": 10.4802,
      "duration": 0.0138,
      "velocity": 101,
      "chip": "ym2612"
    },
    {
      "channel": 4,
      "note": 81,
      "start": 10.4811,
      "duration": 0.0135,
      "velocity": 127,
      "chip": "ym2612"
    },
    {
      "channel": 3,
      "note": 75,
      "start": 10.4969,
      "duration": 0.0238,
      "velocity": 99,
      "chip": "ym2612"
    },
    {
      "channel": 1,
      "note": 73,
      "start": 10.5077,
      "duration": 0.0312,
      "velocity": 101,
      "chip": "ym2612"
    },
    {
      "channel": 4,
      "note": 81,
      "start": 10.5086,
      "duration": 0.0076,
      "velocity": 127,
      "chip": "ym2612"
    },
    {
      "channel": 0,
      "note": 59,
      "start": 10.5228,
      "duration": 0.135,
      "velocity": 108,
      "chip": "ym2612"
    },
    {
      "channel": 4,
      "note": 81,
      "start": 10.524,
      "duration": 0.0134,
      "velocity": 127,
      "chip": "ym2612"
    },
    {
      "channel": 3,
      "note": 73,
      "start": 10.5289,
      "duration": 0.1128,
      "velocity": 99,
      "chip": "ym2612"
    },
    {
      "channel": 1,
      "note": 73,
      "start": 10.5915,
      "duration": 0.0666,
      "velocity": 101,
      "chip": "ym2612"
    },
    {
      "channel": 4,
      "note": 81,
      "start": 10.5924,
      "duration": 0.0495,
      "velocity": 127,
      "chip": "ym2612"
    },
    {
      "channel": 0,
      "note": 57,
      "start": 10.6918,
      "duration": 0.0817,
      "velocity": 108,
      "chip": "ym2612"
    },
    {
      "channel": 1,
      "note": 75,
      "start": 10.6924,
      "duration": 0.032,
      "velocity": 101,
      "chip": "ym2612"
    },
    {
      "channel": 4,
      "note": 81,
      "start": 10.6935,
      "duration": 0.0127,
      "velocity": 127,
      "chip": "ym2612"
    },
    {
      "channel": 3,
      "note": 73,
      "start": 10.6962,
      "duration": 0.0098,
      "velocity": 99,
      "chip": "ym2612"
    },
    {
      "channel": 3,
      "note": 75,
      "start": 10.711,
      "duration": 0.1305,
      "velocity": 99,
      "chip": "ym2612"
    },
    {
      "channel": 4,
      "note": 81,
      "start": 10.7209,
      "duration": 0.0202,
      "velocity": 127,
      "chip": "ym2612"
    },
    {
      "channel": 0,
      "note": 54,
      "start": 10.7907,
      "duration": 0.1676,
      "velocity": 108,
      "chip": "ym2612"
    },
    {
      "channel": 1,
      "note": 73,
      "start": 10.7916,
      "duration": 0.1501,
      "velocity": 101,
      "chip": "ym2612"
    },
    {
      "channel": 4,
      "note": 81,
      "start": 10.7926,
      "duration": 0.0993,
      "velocity": 127,
      "chip": "ym2612"
    },
    {
      "channel": 3,
      "note": 73,
      "start": 10.9089,
      "duration": 0.1504,
      "velocity": 99,
      "chip": "ym2612"
    },
    {
      "channel": 0,
      "note": 66,
      "start": 10.9933,
      "duration": 0.0655,
      "velocity": 111,
      "chip": "ym2612"
    },
    {
      "channel": 1,
      "note": 75,
      "start": 10.994,
      "duration": 0.178,
      "velocity": 101,
      "chip": "ym2612"
    },
    {
      "channel": 4,
      "note": 81,
      "start": 10.9961,
      "duration": 0.0468,
      "velocity": 119,
      "chip": "ym2612"
    },
    {
      "channel": 0,
      "note": 54,
      "start": 11.0939,
      "duration": 0.0239,
      "velocity": 108,
      "chip": "ym2612"
    },
    {
      "channel": 2,
      "note": 73,
      "start": 11.0947,
      "duration": 0.0041,
      "velocity": 101,
      "chip": "ym2612"
    },
    {
      "channel": 4,
      "note": 81,
      "start": 11.0966,
      "duration": 0.0123,
      "velocity": 127,
      "chip": "ym2612"
    },
    {
      "channel": 2,
      "note": 75,
      "start": 11.0988,
      "duration": 0.0022,
      "velocity": 101,
      "chip": "ym2612"
    },
    {
      "channel": 3,
      "note": 75,
      "start": 11.0995,
      "duration": 0.091,
      "velocity": 99,
      "chip": "ym2612"
    },
    {
      "channel": 2,
      "note": 76,
      "start": 11.1058,
      "duration": 0.0027,
      "velocity": 101,
      "chip": "ym2612"
    },
    {
      "channel": 2,
      "note": 78,
      "start": 11.1085,
      "duration": 0.0034,
      "velocity": 101,
      "chip": "ym2612"
    },
    {
      "channel": 2,
      "note": 80,
      "start": 11.1142,
      "duration": 0.0045,
      "velocity": 101,
      "chip": "ym2612"
    },
    {
      "channel": 2,
      "note": 82,
      "start": 11.1187,
      "duration": 0.0026,
      "velocity": 101,
      "chip": "ym2612"
    },
    {
      "channel": 0,
      "note": 56,
      "start": 11.121,
      "duration": 0.0508,
      "velocity": 108,
      "chip": "ym2612"
    },
    {
      "channel": 4,
      "note": 81,
      "start": 11.1222,
      "duration": 0.0175,
      "velocity": 127,
      "chip": "ym2612"
    },
    {
      "channel": 2,
      "note": 83,
      "start": 11.1257,
      "duration": 0.0134,
      "velocity": 101,
      "chip": "ym2612"
    },
    {
      "channel": 2,
      "note": 84,
      "start": 11.1392,
      "duration": 0.033,
      "velocity": 101,
      "chip": "ym2612"
    },
    {
      "channel": 0,
      "note": 57,
      "start": 11.189,
      "duration": 0.1357,
      "velocity": 108,
      "chip": "ym2612"
    },
    {
      "channel": 1,
      "note": 76,
      "start": 11.1896,
      "duration": 0.0173,
      "velocity": 101,
      "chip": "ym2612"
    },
    {
      "channel": 2,
      "note": 85,
      "start": 11.1903,
      "duration": 1.0296,
      "velocity": 101,
      "chip": "ym2612"
    },
    {
      "channel": 4,
      "note": 81,
      "start": 11.1913,
      "duration": 0.014,
      "velocity": 127,
      "chip": "ym2612"
    },
    {
      "channel": 3,
      "note": 76,
      "start": 11.2078,
      "duration": 0.1429,
      "velocity": 99,
      "chip": "ym2612"
    },
    {
      "channel": 4,
      "note": 81,
      "start": 11.2588,
      "duration": 0.0499,
      "velocity": 127,
      "chip": "ym2612"
    },
    {
      "channel": 0,
      "note": 58,
      "start": 11.3419,
      "duration": 0.0817,
      "velocity": 108,
      "chip": "ym2612"
    },
    {
      "channel": 1,
      "note": 78,
      "start": 11.3425,
      "duration": 0.0191,
      "velocity": 101,
      "chip": "ym2612"
    },
    {
      "channel": 4,
      "note": 81,
      "start": 11.3436,
      "duration": 0.0142,
      "velocity": 127,
      "chip": "ym2612"
    },
    {
      "channel": 3,
      "note": 78,
      "start": 11.3625,
      "duration": 0.1454,
      "velocity": 99,
      "chip": "ym2612"
    },
    {
      "channel": 4,
      "note": 81,
      "start": 11.3714,
      "duration": 0.0361,
      "velocity": 127,
      "chip": "ym2612"
    },
    {
      "channel": 0,
      "note": 59,
      "start": 11.4575,
      "duration": 0.2678,
      "velocity": 108,
      "chip": "ym2612"
    },
    {
      "channel": 1,
      "note": 76,
      "start": 11.4581,
      "duration": 0.1165,
      "velocity": 101,
      "chip": "ym2612"
    },
    {
      "channel": 4,
      "note": 81,
      "start": 11.459,
      "duration": 0.0993,
      "velocity": 127,
      "chip": "ym2612"
    },
    {
      "channel": 3,
      "note": 76,
      "start": 11.5754,
      "duration": 0.1746,
      "velocity": 99,
      "chip": "ym2612"
    },
    {
      "channel": 4,
      "note": 81,
      "start": 11.6593,
      "duration": 0.0332,
      "velocity": 127,
      "chip": "ym2612"
    },
    {
      "channel": 0,
      "note": 60,
      "start": 11.7424,
      "duration": 0.0379,
      "velocity": 108,
      "chip": "ym2612"
    },
    {
      "channel": 1,
      "note": 78,
      "start": 11.7429,
      "duration": 0.0126,
      "velocity": 101,
      "chip": "ym2612"
    },
    {
      "channel": 4,
      "note": 81,
      "start": 11.744,
      "duration": 0.0122,
      "velocity": 127,
      "chip": "ym2612"
    },
    {
      "channel": 3,
      "note": 78,
      "start": 11.7611,
      "duration": 0.0198,
      "velocity": 99,
      "chip": "ym2612"
    },
    {
      "channel": 1,
      "note": 76,
      "start": 11.7705,
      "duration": 0.0314,
      "velocity": 101,
      "chip": "ym2612"
    },
    {
      "channel": 4,
      "note": 81,
      "start": 11.7715,
      "duration": 0.0076,
      "velocity": 127,
      "chip": "ym2612"
    },
    {
      "channel": 0,
      "note": 61,
      "start": 11.7849,
      "duration": 0.1354,
      "velocity": 108,
      "chip": "ym2612"
    },
    {
      "channel": 4,
      "note": 81,
      "start": 11.7861,
      "duration": 0.0144,
      "velocity": 127,
      "chip": "ym2612"
    },
    {
      "channel": 3,
      "note": 76,
      "start": 11.7888,
      "duration": 0.0985,
      "velocity": 99,
      "chip": "ym2612"
    },
    {
      "channel": 1,
      "note": 76,
      "start": 11.8371,
      "duration": 0.0833,
      "velocity": 101,
      "chip": "ym2612"
    },
    {
      "channel": 4,
      "note": 81,
      "start": 11.8381,
      "duration": 0.0495,
      "velocity": 127,
      "chip": "ym2612"
    },
    {
      "channel": 0,
      "note": 59,
      "start": 11.9374,
      "duration": 0.0807,
      "velocity": 108,
      "chip": "ym2612"
    },
    {
      "channel": 1,
      "note": 78,
      "start": 11.938,
      "duration": 0.0309,
      "velocity": 101,
      "chip": "ym2612"
    },
    {
      "channel": 4,
      "note": 81,
      "start": 11.939,
      "duration": 0.0143,
      "velocity": 127,
      "chip": "ym2612"
    },
    {
      "channel": 3,
      "note": 76,
      "start": 11.9437,
      "duration": 0.0093,
      "velocity": 99,
      "chip": "ym2612"
    },
    {
      "channel": 3,
      "note": 78,
      "start": 11.9576,
      "duration": 0.1448,
      "velocity": 99,
      "chip": "ym2612"
    },
    {
      "channel": 4,
      "note": 81,
      "start": 11.9671,
      "duration": 0.035,
      "velocity": 127,
      "chip": "ym2612"
    },
    {
      "channel": 0,
      "note": 57,
      "start": 12.052,
      "duration": 0.2682,
      "velocity": 108,
      "chip": "ym2612"
    },
    {
      "channel": 1,
      "note": 76,
      "start": 12.0526,
      "duration": 0.1333,
      "velocity": 101,
      "chip": "ym2612"
    },
    {
      "channel": 4,
      "note": 81,
      "start": 12.0539,
      "duration": 0.0994,
      "velocity": 127,
      "chip": "ym2612"
    },
    {
      "channel": 3,
      "note": 76,
      "start": 12.1703,
      "duration": 0.1505,
      "velocity": 99,
      "chip": "ym2612"
    },
    {
      "channel": 1,
      "note": 78,
      "start": 12.237,
      "duration": 0.1819,
      "velocity": 101,
      "chip": "ym2612"
    },
    {
      "channel": 4,
      "note": 81,
      "start": 12.239,
      "duration": 0.0483,
      "velocity": 119,
      "chip": "ym2612"
    },
    {
      "channel": 0,
      "note": 56,
      "start": 12.3374,
      "duration": 0.0812,
      "velocity": 108,
      "chip": "ym2612"
    },
    {
      "channel": 2,
      "note": 78,
      "start": 12.3382,
      "duration": 0.0808,
      "velocity": 101,
      "chip": "ym2612"
    },
    {
      "channel": 4,
      "note": 81,
      "start": 12.3401,
      "duration": 0.0131,
      "velocity": 127,
      "chip": "ym2612"
    },
    {
      "channel": 3,
      "note": 78,
      "start": 12.3451,
      "duration": 0.109,
      "velocity": 99,
      "chip": "ym2612"
    },
    {
      "channel": 4,
      "note": 81,
      "start": 12.3666,
      "duration": 0.0362,
      "velocity": 127,
      "chip": "ym2612"
    },
    {
      "channel": 0,
      "note": 59,
      "start": 12.4526,
      "duration": 0.1361,
      "velocity": 108,
      "chip": "ym2612"
    },
    {
      "channel": 1,
      "note": 81,
      "start": 12.4533,
      "duration": 0.0164,
      "velocity": 101,
      "chip": "ym2612"
    },
    {
      "channel": 2,
      "note": 88,
      "start": 12.454,
      "duration": 0.5847,
      "velocity": 101,
      "chip": "ym2612"
    },
    {
      "channel": 4,
      "note": 81,
      "start": 12.4549,
      "duration": 0.011,
      "velocity": 127,
      "chip": "ym2612"
    },
    {
      "channel": 3,
      "note": 81,
      "start": 12.4707,
      "duration": 0.1436,
      "velocity": 99,
      "chip": "ym2612"
    },
    {
      "channel": 4,
      "note": 81,
      "start": 12.5061,
      "duration": 0.0499,
      "velocity": 127,
      "chip": "ym2612"
    },
    {
      "channel": 0,
      "note": 58,
      "start": 12.6058,
      "duration": 0.0808,
      "velocity": 108,
      "chip": "ym2612"
    },
    {
      "channel": 1,
      "note": 83,
      "start": 12.6065,
      "duration": 0.0163,
      "velocity": 101,
      "chip": "ym2612"
    },
    {
      "channel": 4,
      "note": 81,
      "start": 12.6076,
      "duration": 0.0135,
      "velocity": 127,
      "chip": "ym2612"
    },
    {
      "channel": 3,
      "note": 83,
      "start": 12.6237,
      "duration": 0.1305,
      "velocity": 99,
      "chip": "ym2612"
    },
    {
      "channel": 4,
      "note": 81,
      "start": 12.6341,
      "duration": 0.0365,
      "velocity": 127,
      "chip": "ym2612"
    },
    {
      "channel": 0,
      "note": 57,
      "start": 12.7206,
      "duration": 0.2677,
      "velocity": 108,
      "chip": "ym2612"
    },
    {
      "channel": 1,
      "note": 81,
      "start": 12.7211,
      "duration": 0.1165,
      "velocity": 101,
      "chip": "ym2612"
    },
    {
      "channel": 4,
      "note": 81,
      "start": 12.7222,
      "duration": 0.0826,
      "velocity": 127,
      "chip": "ym2612"
    },
    {
      "channel": 3,
      "note": 81,
      "start": 12.8385,
      "duration": 0.1758,
      "velocity": 99,
      "chip": "ym2612"
    },
    {
      "channel": 4,
      "note": 81,
      "start": 12.9068,
      "duration": 0.0487,
      "velocity": 119,
      "chip": "ym2612"
    },
    {
      "channel": 0,
      "note": 54,
      "start": 13.0055,
      "duration": 0.0404,
      "velocity": 108,
      "chip": "ym2612"
    },
    {
      "channel": 1,
      "note": 83,
      "start": 13.0061,
      "duration": 0.0146,
      "velocity": 101,
      "chip": "ym2612"
    },
    {
      "channel": 4,
      "note": 81,
      "start": 13.0082,
      "duration": 0.0131,
      "velocity": 127,
      "chip": "ym2612"
    },
    {
      "channel": 3,
      "note": 83,
      "start": 13.0239,
      "duration": 0.0224,
      "velocity": 99,
      "chip": "ym2612"
    },
    {
      "channel": 1,
      "note": 81,
      "start": 13.0355,
      "duration": 0.086,
      "velocity": 101,
      "chip": "ym2612"
    },
    {
      "channel": 4,
      "note": 81,
      "start": 13.0365,
      "duration": 0.0077,
      "velocity": 127,
      "chip": "ym2612"
    },
    {
      "channel": 0,
      "note": 66,
      "start": 13.05,
      "duration": 0.008,
      "velocity": 111,
      "chip": "ym2612"
    },
    {
      "channel": 2,
      "note": 90,
      "start": 13.0509,
      "duration": 0.3762,
      "velocity": 101,
      "chip": "ym2612"
    },
    {
      "channel": 4,
      "note": 81,
      "start": 13.0517,
      "duration": 0.0373,
      "velocity": 127,
      "chip": "ym2612"
    },
    {
      "channel": 3,
      "note": 81,
      "start": 13.0561,
      "duration": 0.14,
      "velocity": 99,
      "chip": "ym2612"
    },
    {
      "channel": 0,
      "note": 65,
      "start": 13.0882,
      "duration": 0.0499,
      "velocity": 111,
      "chip": "ym2612"
    },
    {
      "channel": 0,
      "note": 64,
      "start": 13.1888,
      "duration": 0.0068,
      "velocity": 111,
      "chip": "ym2612"
    },
    {
      "channel": 1,
      "note": 81,
      "start": 13.1893,
      "duration": 0.0084,
      "velocity": 101,
      "chip": "ym2612"
    },
    {
      "channel": 4,
      "note": 81,
      "start": 13.1904,
      "duration": 0.0061,
      "velocity": 127,
      "chip": "ym2612"
    },
    {
      "channel": 0,
      "note": 63,
      "start": 13.2022,
      "duration": 0.0084,
      "velocity": 111,
      "chip": "ym2612"
    },
    {
      "channel": 1,
      "note": 83,
      "start": 13.2028,
      "duration": 0.0305,
      "velocity": 101,
      "chip": "ym2612"
    },
    {
      "channel": 4,
      "note": 81,
      "start": 13.2039,
      "duration": 0.0144,
      "velocity": 127,
      "chip": "ym2612"
    },
    {
      "channel": 3,
      "note": 81,
      "start": 13.2062,
      "duration": 0.0118,
      "velocity": 99,
      "chip": "ym2612"
    },
    {
      "channel": 0,
      "note": 62,
      "start": 13.2174,
      "duration": 0.0067,
      "velocity": 111,
      "chip": "ym2612"
    },
    {
      "channel": 3,
      "note": 83,
      "start": 13.2204,
      "duration": 0.0882,
      "velocity": 99,
      "chip": "ym2612"
    },
    {
      "channel": 0,
      "note": 61,
      "start": 13.2305,
      "duration": 0.019,
      "velocity": 111,
      "chip": "ym2612"
    },
    {
      "channel": 4,
      "note": 81,
      "start": 13.2317,
      "duration": 0.0187,
      "velocity": 127,
      "chip": "ym2612"
    },
    {
      "channel": 0,
      "note": 60,
      "start": 13.3002,
      "duration": 0.0078,
      "velocity": 111,
      "chip": "ym2612"
    },
    {
      "channel": 1,
      "note": 81,
      "start": 13.3009,
      "duration": 0.0212,
      "velocity": 101,
      "chip": "ym2612"
    },
    {
      "channel": 4,
      "note": 81,
      "start": 13.3022,
      "duration": 0.0138,
      "velocity": 127,
      "chip": "ym2612"
    },
    {
      "channel": 0,
      "note": 59,
      "start": 13.3152,
      "duration": 0.0067,
      "velocity": 111,
      "chip": "ym2612"
    },
    {
      "channel": 3,
      "note": 81,
      "start": 13.3203,
      "duration": 0.0603,
      "velocity": 99,
      "chip": "ym2612"
    },
    {
      "channel": 0,
      "note": 58,
      "start": 13.37,
      "duration": 0.0082,
      "velocity": 111,
      "chip": "ym2612"
    },
    {
      "channel": 1,
      "note": 83,
      "start": 13.3706,
      "duration": 0.1066,
      "velocity": 101,
      "chip": "ym2612"
    },
    {
      "channel": 4,
      "note": 81,
      "start": 13.3716,
      "duration": 0.0074,
      "velocity": 127,
      "chip": "ym2612"
    },
    {
      "channel": 0,
      "note": 57,
      "start": 13.3844,
      "duration": 0.0069,
      "velocity": 111,
      "chip": "ym2612"
    },
    {
      "channel": 3,
      "note": 83,
      "start": 13.3878,
      "duration": 0.1105,
      "velocity": 99,
      "chip": "ym2612"
    },
    {
      "channel": 0,
      "note": 56,
      "start": 13.3981,
      "duration": 0.0063,
      "velocity": 111,
      "chip": "ym2612"
    },
    {
      "channel": 0,
      "note": 55,
      "start": 13.409,
      "duration": 0.0345,
      "velocity": 111,
      "chip": "ym2612"
    },
    {
      "channel": 0,
      "note": 54,
      "start": 13.4954,
      "duration": 0.0237,
      "velocity": 108,
      "chip": "ym2612"
    },
    {
      "channel": 1,
      "note": 76,
      "start": 13.4961,
      "duration": 0.0232,
      "velocity": 101,
      "chip": "ym2612"
    },
    {
      "channel": 2,
      "note": 85,
      "start": 13.4981,
      "duration": 0.0214,
      "velocity": 99,
      "chip": "ym2612"
    },
    {
      "channel": 3,
      "note": 76,
      "start": 13.5161,
      "duration": 0.0172,
      "velocity": 99,
      "chip": "ym2612"
    },
    {
      "channel": 0,
      "note": 66,
      "start": 13.5233,
      "duration": 0.0345,
      "velocity": 108,
      "chip": "ym2612"
    },
    {
      "channel": 1,
      "note": 76,
      "start": 13.524,
      "duration": 0.0341,
      "velocity": 101,
      "chip": "ym2612"
    },
    {
      "channel": 2,
      "note": 85,
      "start": 13.5246,
      "duration": 0.0296,
      "velocity": 99,
      "chip": "ym2612"
    },
    {
      "channel": 3,
      "note": 76,
      "start": 13.5402,
      "duration": 0.0283,
      "velocity": 99,
      "chip": "ym2612"
    },
    {
      "channel": 0,
      "note": 66,
      "start": 13.5606,
      "duration": 0.0112,
      "velocity": 108,
      "chip": "ym2612"
    },
    {
      "channel": 1,
      "note": 76,
      "start": 13.5612,
      "duration": 0.0108,
      "velocity": 101,
      "chip": "ym2612"
    },
    {
      "channel": 2,
      "note": 85,
      "start": 13.5619,
      "duration": 0.0104,
      "velocity": 99,
      "chip": "ym2612"
    },
    {
      "channel": 0,
      "note": 52,
      "start": 13.574,
      "duration": 0.0218,
      "velocity": 108,
      "chip": "ym2612"
    },
    {
      "channel": 1,
      "note": 75,
      "start": 13.5746,
      "duration": 0.0215,
      "velocity": 101,
      "chip": "ym2612"
    },
    {
      "channel": 2,
      "note": 83,
      "start": 13.5752,
      "duration": 0.021,
      "velocity": 99,
      "chip": "ym2612"
    },
    {
      "channel": 3,
      "note": 76,
      "start": 13.5805,
      "duration": 0.008,
      "velocity": 99,
      "chip": "ym2612"
    },
    {
      "channel": 3,
      "note": 75,
      "start": 13.591,
      "duration": 0.0188,
      "velocity": 99,
      "chip": "ym2612"
    },
    {
      "channel": 0,
      "note": 66,
      "start": 13.6001,
      "duration": 0.0387,
      "velocity": 108,
      "chip": "ym2612"
    },
    {
      "channel": 1,
      "note": 76,
      "start": 13.6007,
      "duration": 0.0086,
      "velocity": 101,
      "chip": "ym2612"
    },
    {
      "channel": 2,
      "note": 85,
      "start": 13.6013,
      "duration": 0.0082,
      "velocity": 99,
      "chip": "ym2612"
    },
    {
      "channel": 3,
      "note": 76,
      "start": 13.6168,
      "duration": 0.0058,
      "velocity": 99,
      "chip": "ym2612"
    },
    {
      "channel": 2,
      "note": 66,
      "start": 13.6519,
      "duration": 0.0049,
      "velocity": 104,
      "chip": "ym2612"
    },
    {
      "channel": 0,
      "note": 78,
      "start": 13.6566,
      "duration": 0.0017,
      "velocity": 104,
      "chip": "ym2612"
    },
    {
      "channel": 2,
      "note": 67,
      "start": 13.659,
      "duration": 0.003,
      "velocity": 104,
      "chip": "ym2612"
    },
    {
      "channel": 0,
      "note": 79,
      "start": 13.6609,
      "duration": 0.0045,
      "velocity": 104,
      "chip": "ym2612"
    },
    {
      "channel": 1,
      "note": 66,
      "start": 13.6619,
      "duration": 0.0037,
      "velocity": 104,
      "chip": "ym2612"
    },
    {
      "channel": 2,
      "note": 68,
      "start": 13.6666,
      "duration": 0.005,
      "velocity": 104,
      "chip": "ym2612"
    },
    {
      "channel": 0,
      "note": 80,
      "start": 13.6707,
      "duration": 0.0041,
      "velocity": 104,
      "chip": "ym2612"
    },
    {
      "channel": 1,
      "note": 67,
      "start": 13.6714,
      "duration": 0.0037,
      "velocity": 104,
      "chip": "ym2612"
    },
    {
      "channel": 2,
      "note": 69,
      "start": 13.6761,
      "duration": 0.0028,
      "velocity": 104,
      "chip": "ym2612"
    },
    {
      "channel": 0,
      "note": 81,
      "start": 13.6782,
      "duration": 0.0063,
      "velocity": 104,
      "chip": "ym2612"
    },
    {
      "channel": 1,
      "note": 68,
      "start": 13.6788,
      "duration": 0.0059,
      "velocity": 104,
      "chip": "ym2612"
    },
    {
      "channel": 3,
      "note": 66,
      "start": 13.6797,
      "duration": 0.0058,
      "velocity": 104,
      "chip": "ym2612"
    },
    {
      "channel": 2,
      "note": 70,
      "start": 13.6854,
      "duration": 0.0038,
      "velocity": 104,
      "chip": "ym2612"
    },
    {
      "channel": 0,
      "note": 82,
      "start": 13.6884,
      "duration": 0.0054,
      "velocity": 104,
      "chip": "ym2612"
    },
    {
      "channel": 1,
      "note": 69,
      "start": 13.689,
      "duration": 0.005,
      "velocity": 104,
      "chip": "ym2612"
    },
    {
      "channel": 3,
      "note": 67,
      "start": 13.6898,
      "duration": 0.0049,
      "velocity": 104,
      "chip": "ym2612"
    },
    {
      "channel": 2,
      "note": 71,
      "start": 13.6946,
      "duration": 0.0027,
      "velocity": 104,
      "chip": "ym2612"
    },
    {
      "channel": 0,
      "note": 83,
      "start": 13.6967,
      "duration": 0.0046,
      "velocity": 104,
      "chip": "ym2612"
    },
    {
      "channel": 1,
      "note": 70,
      "start": 13.6973,
      "duration": 0.0043,
      "velocity": 104,
      "chip": "ym2612"
    },
    {
      "channel": 3,
      "note": 68,
      "start": 13.6981,
      "duration": 0.0043,
      "velocity": 104,
      "chip": "ym2612"
    },
    {
      "channel": 2,
      "note": 72,
      "start": 13.7022,
      "duration": 0.0037,
      "velocity": 104,
      "chip": "ym2612"
    },
    {
      "channel": 0,
      "note": 84,
      "start": 13.7051,
      "duration": 0.0034,
      "velocity": 104,
      "chip": "ym2612"
    },
    {
      "channel": 1,
      "note": 71,
      "start": 13.7057,
      "duration": 0.003,
      "velocity": 104,
      "chip": "ym2612"
    },
    {
      "channel": 3,
      "note": 69,
      "start": 13.7066,
      "duration": 0.003,
      "velocity": 104,
      "chip": "ym2612"
    },
    {
      "channel": 2,
      "note": 73,
      "start": 13.7094,
      "duration": 0.0054,
      "velocity": 104,
      "chip": "ym2612"
    },
    {
      "channel": 0,
      "note": 85,
      "start": 13.714,
      "duration": 0.0033,
      "velocity": 104,
      "chip": "ym2612"
    },
    {
      "channel": 1,
      "note": 72,
      "start": 13.7146,
      "duration": 0.0029,
      "velocity": 104,
      "chip": "ym2612"
    },
    {
      "channel": 3,
      "note": 70,
      "start": 13.7155,
      "duration": 0.0029,
      "velocity": 104,
      "chip": "ym2612"
    },
    {
      "channel": 2,
      "note": 74,
      "start": 13.7182,
      "duration": 0.0056,
      "velocity": 104,
      "chip": "ym2612"
    },
    {
      "channel": 0,
      "note": 86,
      "start": 13.723,
      "duration": 0.0029,
      "velocity": 104,
      "chip": "ym2612"
    },
    {
      "channel": 1,
      "note": 73,
      "start": 13.7236,
      "duration": 0.0025,
      "velocity": 104,
      "chip": "ym2612"
    },
    {
      "channel": 3,
      "note": 71,
      "start": 13.7244,
      "duration": 0.0025,
      "velocity": 104,
      "chip": "ym2612"
    },
    {
      "channel": 2,
      "note": 75,
      "start": 13.7268,
      "duration": 0.0052,
      "velocity": 104,
      "chip": "ym2612"
    },
    {
      "channel": 0,
      "note": 87,
      "start": 13.7313,
      "duration": 0.0034,
      "velocity": 104,
      "chip": "ym2612"
    },
    {
      "channel": 1,
      "note": 74,
      "start": 13.7319,
      "duration": 0.0029,
      "velocity": 104,
      "chip": "ym2612"
    },
    {
      "channel": 3,
      "note": 72,
      "start": 13.7327,
      "duration": 0.0029,
      "velocity": 104,
      "chip": "ym2612"
    },
    {
      "channel": 2,
      "note": 76,
      "start": 13.7355,
      "duration": 0.0055,
      "velocity": 104,
      "chip": "ym2612"
    },
    {
      "channel": 0,
      "note": 88,
      "start": 13.7402,
      "duration": 0.0034,
      "velocity": 104,
      "chip": "ym2612"
    },
    {
      "channel": 1,
      "note": 75,
      "start": 13.7409,
      "duration": 0.0029,
      "velocity": 104,
      "chip": "ym2612"
    },
    {
      "channel": 3,
      "note": 73,
      "start": 13.7417,
      "duration": 0.0029,
      "velocity": 104,
      "chip": "ym2612"
    },
    {
      "channel": 2,
      "note": 77,
      "start": 13.7444,
      "duration": 0.0053,
      "velocity": 104,
      "chip": "ym2612"
    },
    {
      "channel": 0,
      "note": 89,
      "start": 13.749,
      "duration": 0.0033,
      "velocity": 104,
      "chip": "ym2612"
    },
    {
      "channel": 1,
      "note": 76,
      "start": 13.7496,
      "duration": 0.0029,
      "velocity": 104,
      "chip": "ym2612"
    },
    {
      "channel": 3,
      "note": 74,
      "start": 13.7504,
      "duration": 0.0029,
      "velocity": 104,
      "chip": "ym2612"
    },
    {
      "channel": 2,
      "note": 78,
      "start": 13.7532,
      "duration": 0.0056,
      "velocity": 104,
      "chip": "ym2612"
    },
    {
      "channel": 0,
      "note": 90,
      "start": 13.758,
      "duration": 0.0046,
      "velocity": 104,
      "chip": "ym2612"
    },
    {
      "channel": 1,
      "note": 77,
      "start": 13.7586,
      "duration": 0.0043,
      "velocity": 104,
      "chip": "ym2612"
    },
    {
      "channel": 3,
      "note": 75,
      "start": 13.7598,
      "duration": 0.0039,
      "velocity": 104,
      "chip": "ym2612"
    },
    {
      "channel": 2,
      "note": 79,
      "start": 13.7635,
      "duration": 0.003,
      "velocity": 104,
      "chip": "ym2612"
    },
    {
      "channel": 0,
      "note": 91,
      "start": 13.7658,
      "duration": 0.0045,
      "velocity": 104,
      "chip": "ym2612"
    },
    {
      "channel": 1,
      "note": 78,
      "start": 13.7664,
      "duration": 0.0041,
      "velocity": 104,
      "chip": "ym2612"
    },
    {
      "channel": 3,
      "note": 76,
      "start": 13.7673,
      "duration": 0.0041,
      "velocity": 104,
      "chip": "ym2612"
    },
    {
      "channel": 2,
      "note": 80,
      "start": 13.7712,
      "duration": 0.0049,
      "velocity": 104,
      "chip": "ym2612"
    },
    {
      "channel": 0,
      "note": 92,
      "start": 13.7753,
      "duration": 0.0049,
      "velocity": 104,
      "chip": "ym2612"
    },
    {
      "channel": 1,
      "note": 79,
      "start": 13.776,
      "duration": 0.0044,
      "velocity": 104,
      "chip": "ym2612"
    },
    {
      "channel": 3,
      "note": 77,
      "start": 13.7769,
      "duration": 0.0044,
      "velocity": 104,
      "chip": "ym2612"
    },
    {
      "channel": 2,
      "note": 81,
      "start": 13.7812,
      "duration": 0.0031,
      "velocity": 104,
      "chip": "ym2612"
    },
    {
      "channel": 0,
      "note": 93,
      "start": 13.7835,
      "duration": 0.0053,
      "velocity": 104,
      "chip": "ym2612"
    },
    {
      "channel": 1,
      "note": 80,
      "start": 13.7841,
      "duration": 0.0049,
      "velocity": 104,
      "chip": "ym2612"
    },
    {
      "channel": 3,
      "note": 78,
      "start": 13.7851,
      "duration": 0.0047,
      "velocity": 104,
      "chip": "ym2612"
    },
    {
      "channel": 2,
      "note": 82,
      "start": 13.7897,
      "duration": 0.0036,
      "velocity": 104,
      "chip": "ym2612"
    },
    {
      "channel": 0,
      "note": 94,
      "start": 13.7925,
      "duration": 0.005,
      "velocity": 104,
      "chip": "ym2612"
    },
    {
      "channel": 1,
      "note": 81,
      "start": 13.7932,
      "duration": 0.0045,
      "velocity": 104,
      "chip": "ym2612"
    },
    {
      "channel": 3,
      "note": 79,
      "start": 13.7942,
      "duration": 0.0044,
      "velocity": 104,
      "chip": "ym2612"
    },
    {
      "channel": 2,
      "note": 83,
      "start": 13.7984,
      "duration": 0.0034,
      "velocity": 104,
      "chip": "ym2612"
    },
    {
      "channel": 0,
      "note": 95,
      "start": 13.8011,
      "duration": 0.0034,
      "velocity": 104,
      "chip": "ym2612"
    },
    {
      "channel": 1,
      "note": 82,
      "start": 13.8017,
      "duration": 0.0031,
      "velocity": 104,
      "chip": "ym2612"
    },
    {
      "channel": 3,
      "note": 80,
      "start": 13.8026,
      "duration": 0.0029,
      "velocity": 104,
      "chip": "ym2612"
    },
    {
      "channel": 2,
      "note": 84,
      "start": 13.8054,
      "duration": 0.0059,
      "velocity": 104,
      "chip": "ym2612"
    },
    {
      "channel": 0,
      "note": 96,
      "start": 13.8106,
      "duration": 0.0036,
      "velocity": 104,
      "chip": "ym2612"
    },
    {
      "channel": 1,
      "note": 83,
      "start": 13.8112,
      "duration": 0.0031,
      "velocity": 104,
      "chip": "ym2612"
    },
    {
      "channel": 3,
      "note": 81,
      "start": 13.8122,
      "duration": 0.0029,
      "velocity": 104,
      "chip": "ym2612"
    },
    {
      "channel": 2,
      "note": 85,
      "start": 13.815,
      "duration": 0.0045,
      "velocity": 104,
      "chip": "ym2612"
    },
    {
      "channel": 0,
      "note": 97,
      "start": 13.8187,
      "duration": 0.0044,
      "velocity": 104,
      "chip": "ym2612"
    },
    {
      "channel": 1,
      "note": 84,
      "start": 13.8193,
      "duration": 0.004,
      "velocity": 104,
      "chip": "ym2612"
    },
    {
      "channel": 3,
      "note": 82,
      "start": 13.8203,
      "duration": 0.0039,
      "velocity": 104,
      "chip": "ym2612"
    },
    {
      "channel": 2,
      "note": 86,
      "start": 13.824,
      "duration": 0.0054,
      "velocity": 104,
      "chip": "ym2612"
    },
    {
      "channel": 0,
      "note": 98,
      "start": 13.8287,
      "duration": 0.0034,
      "velocity": 104,
      "chip": "ym2612"
    },
    {
      "channel": 1,
      "note": 85,
      "start": 13.8293,
      "duration": 0.0031,
      "velocity": 104,
      "chip": "ym2612"
    },
    {
      "channel": 3,
      "note": 83,
      "start": 13.8302,
      "duration": 0.0029,
      "velocity": 104,
      "chip": "ym2612"
    },
    {
      "channel": 2,
      "note": 87,
      "start": 13.833,
      "duration": 0.0049,
      "velocity": 104,
      "chip": "ym2612"
    },
    {
      "channel": 0,
      "note": 99,
      "start": 13.8372,
      "duration": 0.0048,
      "velocity": 104,
      "chip": "ym2612"
    },
    {
      "channel": 1,
      "note": 86,
      "start": 13.8378,
      "duration": 0.0044,
      "velocity": 104,
      "chip": "ym2612"
    },
    {
      "channel": 3,
      "note": 84,
      "start": 13.8388,
      "duration": 0.0043,
      "velocity": 104,
      "chip": "ym2612"
    },
    {
      "channel": 2,
      "note": 88,
      "start": 13.8429,
      "duration": 0.0054,
      "velocity": 104,
      "chip": "ym2612"
    },
    {
      "channel": 0,
      "note": 100,
      "start": 13.8476,
      "duration": 0.0031,
      "velocity": 104,
      "chip": "ym2612"
    },
    {
      "channel": 1,
      "note": 87,
      "start": 13.8482,
      "duration": 0.0026,
      "velocity": 104,
      "chip": "ym2612"
    },
    {
      "channel": 3,
      "note": 85,
      "start": 13.8492,
      "duration": 0.0025,
      "velocity": 104,
      "chip": "ym2612"
    },
    {
      "channel": 2,
      "note": 89,
      "start": 13.8515,
      "duration": 0.0027,
      "velocity": 104,
      "chip": "ym2612"
    },
    {
      "channel": 3,
      "note": 86,
      "start": 13.8551,
      "duration": 0.0119,
      "velocity": 104,
      "chip": "ym2612"
    },
    {
      "channel": 0,
      "note": 57,
      "start": 13.8602,
      "duration": 0.1347,
      "velocity": 108,
      "chip": "ym2612"
    },
    {
      "channel": 1,
      "note": 80,
      "start": 13.8627,
      "duration": 0.3633,
      "velocity": 99,
      "chip": "ym2612"
    },
    {
      "channel": 2,
      "note": 76,
      "start": 13.8649,
      "duration": 0.3613,
      "velocity": 99,
      "chip": "ym2612"
    },
    {
      "channel": 3,
      "note": 90,
      "start": 13.867,
      "duration": 0.0117,
      "velocity": 104,
      "chip": "ym2612"
    },
    {
      "channel": 4,
      "note": 81,
      "start": 13.8684,
      "duration": 0.0153,
      "velocity": 127,
      "chip": "ym2612"
    },
    {
      "channel": 3,
      "note": 97,
      "start": 13.8835,
      "duration": 0.0115,
      "velocity": 104,
      "chip": "ym2612"
    },
    {
      "channel": 3,
      "note": 100,
      "start": 13.9291,
      "duration": 0.0665,
      "velocity": 104,
      "chip": "ym2612"
    },
    {
      "channel": 4,
      "note": 81,
      "start": 13.9296,
      "duration": 0.0326,
      "velocity": 127,
      "chip": "ym2612"
    },
    {
      "channel": 0,
      "note": 61,
      "start": 14.0122,
      "duration": 0.0811,
      "velocity": 108,
      "chip": "ym2612"
    },
    {
      "channel": 3,
      "note": 104,
      "start": 14.0135,
      "duration": 0.011,
      "velocity": 104,
      "chip": "ym2612"
    },
    {
      "channel": 4,
      "note": 81,
      "start": 14.0141,
      "duration": 0.0138,
      "velocity": 127,
      "chip": "ym2612"
    },
    {
      "channel": 3,
      "note": 90,
      "start": 14.0277,
      "duration": 0.0117,
      "velocity": 104,
      "chip": "ym2612"
    },
    {
      "channel": 3,
      "note": 97,
      "start": 14.0428,
      "duration": 0.0511,
      "velocity": 104,
      "chip": "ym2612"
    },
    {
      "channel": 4,
      "note": 81,
      "start": 14.0433,
      "duration": 0.034,
      "velocity": 127,
      "chip": "ym2612"
    },
    {
      "channel": 0,
      "note": 62,
      "start": 14.1272,
      "duration": 0.0629,
      "velocity": 108,
      "chip": "ym2612"
    },
    {
      "channel": 3,
      "note": 100,
      "start": 14.1283,
      "duration": 0.0084,
      "velocity": 104,
      "chip": "ym2612"
    },
    {
      "channel": 4,
      "note": 81,
      "start": 14.1289,
      "duration": 0.0124,
      "velocity": 127,
      "chip": "ym2612"
    },
    {
      "channel": 3,
      "note": 104,
      "start": 14.1412,
      "duration": 0.0212,
      "velocity": 104,
      "chip": "ym2612"
    },
    {
      "channel": 3,
      "note": 90,
      "start": 14.1798,
      "duration": 0.0107,
      "velocity": 104,
      "chip": "ym2612"
    },
    {
      "channel": 4,
      "note": 81,
      "start": 14.1807,
      "duration": 0.0063,
      "velocity": 127,
      "chip": "ym2612"
    },
    {
      "channel": 0,
      "note": 64,
      "start": 14.1941,
      "duration": 0.0819,
      "velocity": 108,
      "chip": "ym2612"
    },
    {
      "channel": 3,
      "note": 97,
      "start": 14.1956,
      "duration": 0.0112,
      "velocity": 104,
      "chip": "ym2612"
    },
    {
      "channel": 4,
      "note": 81,
      "start": 14.1961,
      "duration": 0.0138,
      "velocity": 127,
      "chip": "ym2612"
    },
    {
      "channel": 3,
      "note": 100,
      "start": 14.2097,
      "duration": 0.009,
      "velocity": 104,
      "chip": "ym2612"
    },
    {
      "channel": 3,
      "note": 104,
      "start": 14.2239,
      "duration": 0.0527,
      "velocity": 104,
      "chip": "ym2612"
    },
    {
      "channel": 4,
      "note": 81,
      "start": 14.2245,
      "duration": 0.0355,
      "velocity": 127,
      "chip": "ym2612"
    },
    {
      "channel": 0,
      "note": 56,
      "start": 14.31,
      "duration": 0.135,
      "velocity": 108,
      "chip": "ym2612"
    },
    {
      "channel": 1,
      "note": 79,
      "start": 14.3106,
      "duration": 0.2334,
      "velocity": 99,
      "chip": "ym2612"
    },
    {
      "channel": 2,
      "note": 75,
      "start": 14.3112,
      "duration": 0.233,
      "velocity": 99,
      "chip": "ym2612"
    },
    {
      "channel": 3,
      "note": 89,
      "start": 14.312,
      "duration": 0.0099,
      "velocity": 104,
      "chip": "ym2612"
    },
    {
      "channel": 4,
      "note": 81,
      "start": 14.3127,
      "duration": 0.0141,
      "velocity": 127,
      "chip": "ym2612"
    },
    {
      "channel": 3,
      "note": 96,
      "start": 14.3267,
      "duration": 0.0183,
      "velocity": 104,
      "chip": "ym2612"
    },
    {
      "channel": 3,
      "note": 99,
      "start": 14.3623,
      "duration": 0.0833,
      "velocity": 104,
      "chip": "ym2612"
    },
    {
      "channel": 4,
      "note": 81,
      "start": 14.3629,
      "duration": 0.0494,
      "velocity": 127,
      "chip": "ym2612"
    },
    {
      "channel": 0,
      "note": 56,
      "start": 14.4622,
      "duration": 0.0816,
      "velocity": 108,
      "chip": "ym2612"
    },
    {
      "channel": 3,
      "note": 103,
      "start": 14.4635,
      "duration": 0.0111,
      "velocity": 104,
      "chip": "ym2612"
    },
    {
      "channel": 4,
      "note": 81,
      "start": 14.4641,
      "duration": 0.0135,
      "velocity": 127,
      "chip": "ym2612"
    },
    {
      "channel": 3,
      "note": 99,
      "start": 14.4774,
      "duration": 0.0085,
      "velocity": 104,
      "chip": "ym2612"
    },
    {
      "channel": 3,
      "note": 96,
      "start": 14.4903,
      "duration": 0.0541,
      "velocity": 104,
      "chip": "ym2612"
    },
    {
      "channel": 4,
      "note": 81,
      "start": 14.4909,
      "duration": 0.0369,
      "velocity": 127,
      "chip": "ym2612"
    },
    {
      "channel": 0,
      "note": 55,
      "start": 14.5778,
      "duration": 0.0654,
      "velocity": 108,
      "chip": "ym2612"
    },
    {
      "channel": 1,
      "note": 78,
      "start": 14.5783,
      "duration": 0.1502,
      "velocity": 99,
      "chip": "ym2612"
    },
    {
      "channel": 2,
      "note": 74,
      "start": 14.579,
      "duration": 0.1498,
      "velocity": 99,
      "chip": "ym2612"
    },
    {
      "channel": 3,
      "note": 88,
      "start": 14.5798,
      "duration": 0.0092,
      "velocity": 104,
      "chip": "ym2612"
    },
    {
      "channel": 4,
      "note": 81,
      "start": 14.5804,
      "duration": 0.0117,
      "velocity": 127,
      "chip": "ym2612"
    },
    {
      "channel": 3,
      "note": 95,
      "start": 14.5919,
      "duration": 0.0223,
      "velocity": 104,
      "chip": "ym2612"
    },
    {
      "channel": 3,
      "note": 98,
      "start": 14.6316,
      "duration": 0.0122,
      "velocity": 104,
      "chip": "ym2612"
    },
    {
      "channel": 4,
      "note": 81,
      "start": 14.6322,
      "duration": 0.0071,
      "velocity": 127,
      "chip": "ym2612"
    },
    {
      "channel": 0,
      "note": 55,
      "start": 14.646,
      "duration": 0.0824,
      "velocity": 108,
      "chip": "ym2612"
    },
    {
      "channel": 3,
      "note": 102,
      "start": 14.6471,
      "duration": 0.0096,
      "velocity": 104,
      "chip": "ym2612"
    },
    {
      "channel": 4,
      "note": 81,
      "start": 14.6477,
      "duration": 0.0141,
      "velocity": 127,
      "chip": "ym2612"
    },
    {
      "channel": 3,
      "note": 107,
      "start": 14.6617,
      "duration": 0.0085,
      "velocity": 104,
      "chip": "ym2612"
    },
    {
      "channel": 3,
      "note": 110,
      "start": 14.6745,
      "duration": 0.0545,
      "velocity": 104,
      "chip": "ym2612"
    },
    {
      "channel": 4,
      "note": 81,
      "start": 14.6751,
      "duration": 0.0373,
      "velocity": 127,
      "chip": "ym2612"
    },
    {
      "channel": 0,
      "note": 54,
      "start": 14.7624,
      "duration": 0.1671,
      "velocity": 108,
      "chip": "ym2612"
    },
    {
      "channel": 3,
      "note": 109,
      "start": 14.7639,
      "duration": 0.0654,
      "velocity": 104,
      "chip": "ym2612"
    },
    {
      "channel": 4,
      "note": 81,
      "start": 14.7645,
      "duration": 0.0823,
      "velocity": 127,
      "chip": "ym2612"
    },
    {
      "channel": 3,
      "note": 107,
      "start": 14.8467,
      "duration": 0.0832,
      "velocity": 104,
      "chip": "ym2612"
    },
    {
      "channel": 0,
      "note": 66,
      "start": 14.9479,
      "duration": 0.0139,
      "velocity": 111,
      "chip": "ym2612"
    },
    {
      "channel": 1,
      "note": 90,
      "start": 14.9497,
      "duration": 0.037,
      "velocity": 101,
      "chip": "ym2612"
    },
    {
      "channel": 2,
      "note": 73,
      "start": 14.9519,
      "duration": 0.0277,
      "velocity": 99,
      "chip": "ym2612"
    },
    {
      "channel": 3,
      "note": 106,
      "start": 14.9527,
      "duration": 0.0097,
      "velocity": 104,
      "chip": "ym2612"
    },
    {
      "channel": 4,
      "note": 81,
      "start": 14.9533,
      "duration": 0.0273,
      "velocity": 127,
      "chip": "ym2612"
    },
    {
      "channel": 0,
      "note": 49,
      "start": 14.9657,
      "duration": 0.0873,
      "velocity": 104,
      "chip": "ym2612"
    },
    {
      "channel": 3,
      "note": 109,
      "start": 14.9668,
      "duration": 0.0092,
      "velocity": 104,
      "chip": "ym2612"
    },
    {
      "channel": 3,
      "note": 105,
      "start": 14.9805,
      "duration": 0.0089,
      "velocity": 104,
      "chip": "ym2612"
    },
    {
      "channel": 3,
      "note": 102,
      "start": 14.994,
      "duration": 0.0595,
      "velocity": 104,
      "chip": "ym2612"
    },
    {
      "channel": 0,
      "note": 51,
      "start": 15.0702,
      "duration": 0.1363,
      "velocity": 104,
      "chip": "ym2612"
    },
    {
      "channel": 1,
      "note": 73,
      "start": 15.0726,
      "duration": 0.0187,
      "velocity": 73,
      "chip": "ym2612"
    },
    {
      "channel": 2,
      "note": 66,
      "start": 15.0732,
      "duration": 0.021,
      "velocity": 99,
      "chip": "ym2612"
    },
    {
      "channel": 3,
      "note": 109,
      "start": 15.0741,
      "duration": 0.0107,
      "velocity": 104,
      "chip": "ym2612"
    },
    {
      "channel": 4,
      "note": 81,
      "start": 15.0746,
      "duration": 0.0135,
      "velocity": 127,
      "chip": "ym2612"
    },
    {
      "channel": 3,
      "note": 107,
      "start": 15.088,
      "duration": 0.0352,
      "velocity": 104,
      "chip": "ym2612"
    },
    {
      "channel": 1,
      "note": 73,
      "start": 15.1405,
      "duration": 0.0662,
      "velocity": 73,
      "chip": "ym2612"
    },
    {
      "channel": 3,
      "note": 106,
      "start": 15.1414,
      "duration": 0.0657,
      "velocity": 104,
      "chip": "ym2612"
    },
    {
      "channel": 4,
      "note": 81,
      "start": 15.142,
      "duration": 0.0484,
      "velocity": 127,
      "chip": "ym2612"
    },
    {
      "channel": 0,
      "note": 52,
      "start": 15.2404,
      "duration": 0.0817,
      "velocity": 104,
      "chip": "ym2612"
    },
    {
      "channel": 1,
      "note": 75,
      "start": 15.2413,
      "duration": 0.0168,
      "velocity": 73,
      "chip": "ym2612"
    },
    {
      "channel": 2,
      "note": 70,
      "start": 15.242,
      "duration": 0.0213,
      "velocity": 99,
      "chip": "ym2612"
    },
    {
      "channel": 3,
      "note": 109,
      "start": 15.2427,
      "duration": 0.009,
      "velocity": 104,
      "chip": "ym2612"
    },
    {
      "channel": 4,
      "note": 81,
      "start": 15.2433,
      "duration": 0.0135,
      "velocity": 127,
      "chip": "ym2612"
    },
    {
      "channel": 3,
      "note": 105,
      "start": 15.2566,
      "duration": 0.0091,
      "velocity": 104,
      "chip": "ym2612"
    },
    {
      "channel": 1,
      "note": 75,
      "start": 15.2705,
      "duration": 0.0519,
      "velocity": 73,
      "chip": "ym2612"
    },
    {
      "channel": 3,
      "note": 100,
      "start": 15.2715,
      "duration": 0.0513,
      "velocity": 104,
      "chip": "ym2612"
    },
    {
      "channel": 4,
      "note": 81,
      "start": 15.272,
      "duration": 0.0173,
      "velocity": 127,
      "chip": "ym2612"
    },
    {
      "channel": 0,
      "note": 54,
      "start": 15.3393,
      "duration": 0.1364,
      "velocity": 104,
      "chip": "ym2612"
    },
    {
      "channel": 1,
      "note": 76,
      "start": 15.3403,
      "duration": 0.0194,
      "velocity": 73,
      "chip": "ym2612"
    },
    {
      "channel": 2,
      "note": 73,
      "start": 15.3409,
      "duration": 0.0218,
      "velocity": 99,
      "chip": "ym2612"
    },
    {
      "channel": 3,
      "note": 109,
      "start": 15.3417,
      "duration": 0.0115,
      "velocity": 104,
      "chip": "ym2612"
    },
    {
      "channel": 4,
      "note": 81,
      "start": 15.3423,
      "duration": 0.0139,
      "velocity": 127,
      "chip": "ym2612"
    },
    {
      "channel": 3,
      "note": 107,
      "start": 15.3561,
      "duration": 0.0364,
      "velocity": 104,
      "chip": "ym2612"
    },
    {
      "channel": 1,
      "note": 76,
      "start": 15.4097,
      "duration": 0.0662,
      "velocity": 73,
      "chip": "ym2612"
    },
    {
      "channel": 3,
      "note": 106,
      "start": 15.4106,
      "duration": 0.0657,
      "velocity": 104,
      "chip": "ym2612"
    },
    {
      "channel": 4,
      "note": 81,
      "start": 15.4112,
      "duration": 0.0485,
      "velocity": 127,
      "chip": "ym2612"
    },
    {
      "channel": 0,
      "note": 56,
      "start": 15.5096,
      "duration": 0.0808,
      "velocity": 104,
      "chip": "ym2612"
    },
    {
      "channel": 1,
      "note": 75,
      "start": 15.5106,
      "duration": 0.0176,
      "velocity": 73,
      "chip": "ym2612"
    },
    {
      "channel": 2,
      "note": 70,
      "start": 15.5112,
      "duration": 0.0221,
      "velocity": 99,
      "chip": "ym2612"
    },
    {
      "channel": 3,
      "note": 109,
      "start": 15.512,
      "duration": 0.0095,
      "velocity": 104,
      "chip": "ym2612"
    },
    {
      "channel": 4,
      "note": 81,
      "start": 15.5126,
      "duration": 0.0139,
      "velocity": 127,
      "chip": "ym2612"
    },
    {
      "channel": 3,
      "note": 105,
      "start": 15.5263,
      "duration": 0.0091,
      "velocity": 104,
      "chip": "ym2612"
    },
    {
      "channel": 1,
      "note": 75,
      "start": 15.5378,
      "duration": 0.0528,
      "velocity": 73,
      "chip": "ym2612"
    },
    {
      "channel": 3,
      "note": 102,
      "start": 15.5387,
      "duration": 0.0523,
      "velocity": 104,
      "chip": "ym2612"
    },
    {
      "channel": 4,
      "note": 81,
      "start": 15.5393,
      "duration": 0.0183,
      "velocity": 127,
      "chip": "ym2612"
    },
    {
      "channel": 0,
      "note": 57,
      "start": 15.6076,
      "duration": 0.2678,
      "velocity": 104,
      "chip": "ym2612"
    },
    {
      "channel": 1,
      "note": 76,
      "start": 15.6086,
      "duration": 0.1327,
      "velocity": 73,
      "chip": "ym2612"
    },
    {
      "channel": 2,
      "note": 73,
      "start": 15.6092,
      "duration": 0.1492,
      "velocity": 99,
      "chip": "ym2612"
    },
    {
      "channel": 3,
      "note": 100,
      "start": 15.61,
      "duration": 0.0815,
      "velocity": 104,
      "chip": "ym2612"
    },
    {
      "channel": 4,
      "note": 81,
      "start": 15.6116,
      "duration": 0.0974,
      "velocity": 119,
      "chip": "ym2612"
    },
    {
      "channel": 3,
      "note": 102,
      "start": 15.7089,
      "duration": 0.0664,
      "velocity": 104,
      "chip": "ym2612"
    },
    {
      "channel": 1,
      "note": 76,
      "start": 15.8093,
      "duration": 0.0662,
      "velocity": 73,
      "chip": "ym2612"
    },
    {
      "channel": 3,
      "note": 104,
      "start": 15.8103,
      "duration": 0.0656,
      "velocity": 104,
      "chip": "ym2612"
    },
    {
      "channel": 4,
      "note": 81,
      "start": 15.812,
      "duration": 0.0473,
      "velocity": 127,
      "chip": "ym2612"
    },
    {
      "channel": 0,
      "note": 54,
      "start": 15.9093,
      "duration": 0.0794,
      "velocity": 104,
      "chip": "ym2612"
    },
    {
      "channel": 1,
      "note": 75,
      "start": 15.9103,
      "duration": 0.0156,
      "velocity": 73,
      "chip": "ym2612"
    },
    {
      "channel": 2,
      "note": 70,
      "start": 15.9109,
      "duration": 0.0176,
      "velocity": 99,
      "chip": "ym2612"
    },
    {
      "channel": 3,
      "note": 105,
      "start": 15.9117,
      "duration": 0.0087,
      "velocity": 104,
      "chip": "ym2612"
    },
    {
      "channel": 4,
      "note": 81,
      "start": 15.9123,
      "duration": 0.0167,
      "velocity": 127,
      "chip": "ym2612"
    },
    {
      "channel": 3,
      "note": 106,
      "start": 15.9245,
      "duration": 0.0083,
      "velocity": 104,
      "chip": "ym2612"
    },
    {
      "channel": 1,
      "note": 75,
      "start": 15.9351,
      "duration": 0.0539,
      "velocity": 73,
      "chip": "ym2612"
    },
    {
      "channel": 3,
      "note": 107,
      "start": 15.9361,
      "duration": 0.0533,
      "velocity": 104,
      "chip": "ym2612"
    },
    {
      "channel": 0,
      "note": 57,
      "start": 16.0071,
      "duration": 0.134,
      "velocity": 108,
      "chip": "ym2612"
    },
    {
      "channel": 1,
      "note": 80,
      "start": 16.0091,
      "duration": 0.3803,
      "velocity": 99,
      "chip": "ym2612"
    },
    {
      "channel": 2,
      "note": 76,
      "start": 16.0114,
      "duration": 0.3782,
      "velocity": 99,
      "chip": "ym2612"
    },
    {
      "channel": 3,
      "note": 90,
      "start": 16.0124,
      "duration": 0.0108,
      "velocity": 104,
      "chip": "ym2612"
    },
    {
      "channel": 4,
      "note": 81,
      "start": 16.0129,
      "duration": 0.0134,
      "velocity": 127,
      "chip": "ym2612"
    },
    {
      "channel": 3,
      "note": 97,
      "start": 16.0262,
      "duration": 0.0149,
      "velocity": 104,
      "chip": "ym2612"
    },
    {
      "channel": 3,
      "note": 100,
      "start": 16.0752,
      "duration": 0.0665,
      "velocity": 104,
      "chip": "ym2612"
    },
    {
      "channel": 4,
      "note": 81,
      "start": 16.0758,
      "duration": 0.0493,
      "velocity": 127,
      "chip": "ym2612"
    },
    {
      "channel": 0,
      "note": 61,
      "start": 16.175,
      "duration": 0.0818,
      "velocity": 108,
      "chip": "ym2612"
    },
    {
      "channel": 3,
      "note": 104,
      "start": 16.1761,
      "duration": 0.0102,
      "velocity": 104,
      "chip": "ym2612"
    },
    {
      "channel": 4,
      "note": 81,
      "start": 16.1767,
      "duration": 0.0125,
      "velocity": 127,
      "chip": "ym2612"
    },
    {
      "channel": 3,
      "note": 90,
      "start": 16.189,
      "duration": 0.0116,
      "velocity": 104,
      "chip": "ym2612"
    },
    {
      "channel": 3,
      "note": 97,
      "start": 16.2039,
      "duration": 0.0535,
      "velocity": 104,
      "chip": "ym2612"
    },
    {
      "channel": 4,
      "note": 81,
      "start": 16.2048,
      "duration": 0.0193,
      "velocity": 127,
      "chip": "ym2612"
    },
    {
      "channel": 0,
      "note": 62,
      "start": 16.274,
      "duration": 0.0788,
      "velocity": 108,
      "chip": "ym2612"
    },
    {
      "channel": 3,
      "note": 100,
      "start": 16.2754,
      "duration": 0.009,
      "velocity": 104,
      "chip": "ym2612"
    },
    {
      "channel": 4,
      "note": 81,
      "start": 16.276,
      "duration": 0.0134,
      "velocity": 127,
      "chip": "ym2612"
    },
    {
      "channel": 3,
      "note": 104,
      "start": 16.2892,
      "duration": 0.0209,
      "velocity": 104,
      "chip": "ym2612"
    },
    {
      "channel": 3,
      "note": 90,
      "start": 16.3444,
      "duration": 0.009,
      "velocity": 104,
      "chip": "ym2612"
    },
    {
      "channel": 4,
      "note": 81,
      "start": 16.345,
      "duration": 0.0063,
      "velocity": 127,
      "chip": "ym2612"
    },
    {
      "channel": 0,
      "note": 64,
      "start": 16.3588,
      "duration": 0.0805,
      "velocity": 108,
      "chip": "ym2612"
    },
    {
      "channel": 3,
      "note": 97,
      "start": 16.36,
      "duration": 0.0093,
      "velocity": 104,
      "chip": "ym2612"
    },
    {
      "channel": 4,
      "note": 81,
      "start": 16.3605,
      "duration": 0.0119,
      "velocity": 127,
      "chip": "ym2612"
    },
    {
      "channel": 3,
      "note": 100,
      "start": 16.3722,
      "duration": 0.0101,
      "velocity": 104,
      "chip": "ym2612"
    },
    {
      "channel": 3,
      "note": 104,
      "start": 16.3852,
      "duration": 0.0547,
      "velocity": 104,
      "chip": "ym2612"
    },
    {
      "channel": 4,
      "note": 81,
      "start": 16.3859,
      "duration": 0.0207,
      "velocity": 127,
      "chip": "ym2612"
    },
    {
      "channel": 0,
      "note": 56,
      "start": 16.4565,
      "duration": 0.1353,
      "velocity": 108,
      "chip": "ym2612"
    },
    {
      "channel": 1,
      "note": 79,
      "start": 16.4571,
      "duration": 0.2331,
      "velocity": 99,
      "chip": "ym2612"
    },
    {
      "channel": 2,
      "note": 75,
      "start": 16.4577,
      "duration": 0.2328,
      "velocity": 99,
      "chip": "ym2612"
    },
    {
      "channel": 3,
      "note": 89,
      "start": 16.4586,
      "duration": 0.0098,
      "velocity": 104,
      "chip": "ym2612"
    },
    {
      "channel": 4,
      "note": 81,
      "start": 16.4591,
      "duration": 0.0138,
      "velocity": 127,
      "chip": "ym2612"
    },
    {
      "channel": 3,
      "note": 96,
      "start": 16.4728,
      "duration": 0.0189,
      "velocity": 104,
      "chip": "ym2612"
    },
    {
      "channel": 3,
      "note": 99,
      "start": 16.5258,
      "duration": 0.0666,
      "velocity": 104,
      "chip": "ym2612"
    },
    {
      "channel": 4,
      "note": 81,
      "start": 16.5264,
      "duration": 0.0493,
      "velocity": 127,
      "chip": "ym2612"
    },
    {
      "channel": 0,
      "note": 56,
      "start": 16.6089,
      "duration": 0.0811,
      "velocity": 108,
      "chip": "ym2612"
    },
    {
      "channel": 3,
      "note": 103,
      "start": 16.6102,
      "duration": 0.0111,
      "velocity": 104,
      "chip": "ym2612"
    },
    {
      "channel": 4,
      "note": 81,
      "start": 16.6108,
      "duration": 0.0136,
      "velocity": 127,
      "chip": "ym2612"
    },
    {
      "channel": 3,
      "note": 99,
      "start": 16.6242,
      "duration": 0.01,
      "velocity": 104,
      "chip": "ym2612"
    },
    {
      "channel": 3,
      "note": 96,
      "start": 16.6367,
      "duration": 0.0539,
      "velocity": 104,
      "chip": "ym2612"
    },
    {
      "channel": 4,
      "note": 81,
      "start": 16.6373,
      "duration": 0.0368,
      "velocity": 127,
      "chip": "ym2612"
    },
    {
      "channel": 0,
      "note": 55,
      "start": 16.7239,
      "duration": 0.1348,
      "velocity": 108,
      "chip": "ym2612"
    },
    {
      "channel": 1,
      "note": 78,
      "start": 16.7245,
      "duration": 0.1863,
      "velocity": 99,
      "chip": "ym2612"
    },
    {
      "channel": 2,
      "note": 74,
      "start": 16.7251,
      "duration": 0.1859,
      "velocity": 99,
      "chip": "ym2612"
    },
    {
      "channel": 3,
      "note": 88,
      "start": 16.7259,
      "duration": 0.0084,
      "velocity": 104,
      "chip": "ym2612"
    },
    {
      "channel": 4,
      "note": 81,
      "start": 16.7265,
      "duration": 0.0129,
      "velocity": 127,
      "chip": "ym2612"
    },
    {
      "channel": 3,
      "note": 95,
      "start": 16.7393,
      "duration": 0.0194,
      "velocity": 104,
      "chip": "ym2612"
    },
    {
      "channel": 3,
      "note": 98,
      "start": 16.7928,
      "duration": 0.0665,
      "velocity": 104,
      "chip": "ym2612"
    },
    {
      "channel": 4,
      "note": 81,
      "start": 16.7934,
      "duration": 0.0326,
      "velocity": 127,
      "chip": "ym2612"
    },
    {
      "channel": 0,
      "note": 55,
      "start": 16.8759,
      "duration": 0.0347,
      "velocity": 108,
      "chip": "ym2612"
    },
    {
      "channel": 3,
      "note": 102,
      "start": 16.8772,
      "duration": 0.0107,
      "velocity": 104,
      "chip": "ym2612"
    },
    {
      "channel": 4,
      "note": 81,
      "start": 16.8778,
      "duration": 0.0131,
      "velocity": 127,
      "chip": "ym2612"
    },
    {
      "channel": 3,
      "note": 107,
      "start": 16.8908,
      "duration": 0.0092,
      "velocity": 104,
      "chip": "ym2612"
    },
    {
      "channel": 3,
      "note": 110,
      "start": 16.9025,
      "duration": 0.0087,
      "velocity": 104,
      "chip": "ym2612"
    },
    {
      "channel": 4,
      "note": 81,
      "start": 16.9032,
      "duration": 0.0062,
      "velocity": 127,
      "chip": "ym2612"
    },
    {
      "channel": 0,
      "note": 54,
      "start": 16.9156,
      "duration": 0.0659,
      "velocity": 108,
      "chip": "ym2612"
    },
    {
      "channel": 3,
      "note": 109,
      "start": 16.9171,
      "duration": 0.0076,
      "velocity": 104,
      "chip": "ym2612"
    },
    {
      "channel": 4,
      "note": 81,
      "start": 16.9177,
      "duration": 0.0113,
      "velocity": 127,
      "chip": "ym2612"
    },
    {
      "channel": 3,
      "note": 107,
      "start": 16.9288,
      "duration": 0.0218,
      "velocity": 104,
      "chip": "ym2612"
    },
    {
      "channel": 1,
      "note": 90,
      "start": 16.9689,
      "duration": 0.0373,
      "velocity": 101,
      "chip": "ym2612"
    },
    {
      "channel": 2,
      "note": 73,
      "start": 16.971,
      "duration": 0.0282,
      "velocity": 99,
      "chip": "ym2612"
    },
    {
      "channel": 3,
      "note": 106,
      "start": 16.9718,
      "duration": 0.0102,
      "velocity": 104,
      "chip": "ym2612"
    },
    {
      "channel": 4,
      "note": 81,
      "start": 16.9724,
      "duration": 0.0062,
      "velocity": 127,
      "chip": "ym2612"
    },
    {
      "channel": 0,
      "note": 49,
      "start": 16.9848,
      "duration": 0.0899,
      "velocity": 104,
      "chip": "ym2612"
    },
    {
      "channel": 3,
      "note": 109,
      "start": 16.9863,
      "duration": 0.0108,
      "velocity": 104,
      "chip": "ym2612"
    },
    {
      "channel": 4,
      "note": 81,
      "start": 16.9868,
      "duration": 0.0138,
      "velocity": 127,
      "chip": "ym2612"
    },
    {
      "channel": 3,
      "note": 105,
      "start": 17.0005,
      "duration": 0.0086,
      "velocity": 104,
      "chip": "ym2612"
    },
    {
      "channel": 3,
      "note": 102,
      "start": 17.014,
      "duration": 0.0612,
      "velocity": 104,
      "chip": "ym2612"
    },
    {
      "channel": 4,
      "note": 81,
      "start": 17.0147,
      "duration": 0.0442,
      "velocity": 127,
      "chip": "ym2612"
    },
    {
      "channel": 0,
      "note": 51,
      "start": 17.1086,
      "duration": 0.1354,
      "velocity": 104,
      "chip": "ym2612"
    },
    {
      "channel": 1,
      "note": 73,
      "start": 17.1107,
      "duration": 0.0169,
      "velocity": 73,
      "chip": "ym2612"
    },
    {
      "channel": 2,
      "note": 66,
      "start": 17.1114,
      "duration": 0.0188,
      "velocity": 99,
      "chip": "ym2612"
    },
    {
      "channel": 3,
      "note": 109,
      "start": 17.1122,
      "duration": 0.0091,
      "velocity": 104,
      "chip": "ym2612"
    },
    {
      "channel": 4,
      "note": 81,
      "start": 17.1128,
      "duration": 0.0136,
      "velocity": 127,
      "chip": "ym2612"
    },
    {
      "channel": 3,
      "note": 107,
      "start": 17.1261,
      "duration": 0.0179,
      "velocity": 104,
      "chip": "ym2612"
    },
    {
      "channel": 1,
      "note": 73,
      "start": 17.1613,
      "duration": 0.0829,
      "velocity": 73,
      "chip": "ym2612"
    },
    {
      "channel": 3,
      "note": 106,
      "start": 17.1623,
      "duration": 0.0824,
      "velocity": 104,
      "chip": "ym2612"
    },
    {
      "channel": 4,
      "note": 81,
      "start": 17.1629,
      "duration": 0.0484,
      "velocity": 127,
      "chip": "ym2612"
    },
    {
      "channel": 0,
      "note": 52,
      "start": 17.2612,
      "duration": 0.082,
      "velocity": 104,
      "chip": "ym2612"
    },
    {
      "channel": 1,
      "note": 75,
      "start": 17.2623,
      "duration": 0.0169,
      "velocity": 73,
      "chip": "ym2612"
    },
    {
      "channel": 2,
      "note": 70,
      "start": 17.2629,
      "duration": 0.0214,
      "velocity": 99,
      "chip": "ym2612"
    },
    {
      "channel": 3,
      "note": 109,
      "start": 17.2637,
      "duration": 0.0107,
      "velocity": 104,
      "chip": "ym2612"
    },
    {
      "channel": 4,
      "note": 81,
      "start": 17.2642,
      "duration": 0.0131,
      "velocity": 127,
      "chip": "ym2612"
    },
    {
      "channel": 3,
      "note": 105,
      "start": 17.2772,
      "duration": 0.0097,
      "velocity": 104,
      "chip": "ym2612"
    },
    {
      "channel": 1,
      "note": 75,
      "start": 17.2917,
      "duration": 0.0517,
      "velocity": 73,
      "chip": "ym2612"
    },
    {
      "channel": 3,
      "note": 100,
      "start": 17.2927,
      "duration": 0.0511,
      "velocity": 104,
      "chip": "ym2612"
    },
    {
      "channel": 4,
      "note": 81,
      "start": 17.2933,
      "duration": 0.0339,
      "velocity": 127,
      "chip": "ym2612"
    },
    {
      "channel": 0,
      "note": 54,
      "start": 17.3772,
      "duration": 0.1342,
      "velocity": 104,
      "chip": "ym2612"
    },
    {
      "channel": 1,
      "note": 76,
      "start": 17.3781,
      "duration": 0.0158,
      "velocity": 73,
      "chip": "ym2612"
    },
    {
      "channel": 2,
      "note": 73,
      "start": 17.3787,
      "duration": 0.0178,
      "velocity": 99,
      "chip": "ym2612"
    },
    {
      "channel": 3,
      "note": 109,
      "start": 17.3795,
      "duration": 0.0083,
      "velocity": 104,
      "chip": "ym2612"
    },
    {
      "channel": 4,
      "note": 81,
      "start": 17.3801,
      "duration": 0.0109,
      "velocity": 127,
      "chip": "ym2612"
    },
    {
      "channel": 3,
      "note": 107,
      "start": 17.3908,
      "duration": 0.0206,
      "velocity": 104,
      "chip": "ym2612"
    },
    {
      "channel": 1,
      "note": 76,
      "start": 17.4286,
      "duration": 0.083,
      "velocity": 73,
      "chip": "ym2612"
    },
    {
      "channel": 3,
      "note": 106,
      "start": 17.4296,
      "duration": 0.0826,
      "velocity": 104,
      "chip": "ym2612"
    },
    {
      "channel": 4,
      "note": 87,
      "start": 17.4301,
      "duration": 0.0485,
      "velocity": 127,
      "chip": "ym2612"
    },
    {
      "channel": 0,
      "note": 56,
      "start": 17.5285,
      "duration": 0.0812,
      "velocity": 104,
      "chip": "ym2612"
    },
    {
      "channel": 1,
      "note": 75,
      "start": 17.5296,
      "duration": 0.0183,
      "velocity": 73,
      "chip": "ym2612"
    },
    {
      "channel": 2,
      "note": 70,
      "start": 17.5302,
      "duration": 0.0228,
      "velocity": 99,
      "chip": "ym2612"
    },
    {
      "channel": 3,
      "note": 109,
      "start": 17.531,
      "duration": 0.0102,
      "velocity": 104,
      "chip": "ym2612"
    },
    {
      "channel": 4,
      "note": 81,
      "start": 17.5327,
      "duration": 0.0208,
      "velocity": 119,
      "chip": "ym2612"
    },
    {
      "channel": 3,
      "note": 105,
      "start": 17.546,
      "duration": 0.0097,
      "velocity": 104,
      "chip": "ym2612"
    },
    {
      "channel": 1,
      "note": 75,
      "start": 17.5599,
      "duration": 0.05,
      "velocity": 73,
      "chip": "ym2612"
    },
    {
      "channel": 3,
      "note": 102,
      "start": 17.5609,
      "duration": 0.0495,
      "velocity": 104,
      "chip": "ym2612"
    },
    {
      "channel": 0,
      "note": 57,
      "start": 17.644,
      "duration": 0.0373,
      "velocity": 104,
      "chip": "ym2612"
    },
    {
      "channel": 1,
      "note": 76,
      "start": 17.6449,
      "duration": 0.0169,
      "velocity": 73,
      "chip": "ym2612"
    },
    {
      "channel": 2,
      "note": 73,
      "start": 17.6455,
      "duration": 0.0189,
      "velocity": 99,
      "chip": "ym2612"
    },
    {
      "channel": 3,
      "note": 100,
      "start": 17.6463,
      "duration": 0.0092,
      "velocity": 104,
      "chip": "ym2612"
    },
    {
      "channel": 4,
      "note": 81,
      "start": 17.6469,
      "duration": 0.0181,
      "velocity": 119,
      "chip": "ym2612"
    },
    {
      "channel": 3,
      "note": 102,
      "start": 17.6584,
      "duration": 0.01,
      "velocity": 104,
      "chip": "ym2612"
    },
    {
      "channel": 1,
      "note": 76,
      "start": 17.6709,
      "duration": 0.0106,
      "velocity": 73,
      "chip": "ym2612"
    },
    {
      "channel": 3,
      "note": 104,
      "start": 17.6718,
      "duration": 0.0102,
      "velocity": 104,
      "chip": "ym2612"
    },
    {
      "channel": 0,
      "note": 58,
      "start": 17.6839,
      "duration": 0.0394,
      "velocity": 104,
      "chip": "ym2612"
    },
    {
      "channel": 1,
      "note": 78,
      "start": 17.685,
      "duration": 0.0172,
      "velocity": 73,
      "chip": "ym2612"
    },
    {
      "channel": 2,
      "note": 76,
      "start": 17.6856,
      "duration": 0.0217,
      "velocity": 99,
      "chip": "ym2612"
    },
    {
      "channel": 3,
      "note": 105,
      "start": 17.6864,
      "duration": 0.0094,
      "velocity": 104,
      "chip": "ym2612"
    },
    {
      "channel": 4,
      "note": 81,
      "start": 17.687,
      "duration": 0.0209,
      "velocity": 119,
      "chip": "ym2612"
    },
    {
      "channel": 3,
      "note": 106,
      "start": 17.7007,
      "duration": 0.0092,
      "velocity": 104,
      "chip": "ym2612"
    },
    {
      "channel": 1,
      "note": 78,
      "start": 17.7148,
      "duration": 0.0088,
      "velocity": 73,
      "chip": "ym2612"
    },
    {
      "channel": 3,
      "note": 107,
      "start": 17.7157,
      "duration": 0.0082,
      "velocity": 104,
      "chip": "ym2612"
    },
    {
      "channel": 0,
      "note": 59,
      "start": 17.7267,
      "duration": 0.1357,
      "velocity": 104,
      "chip": "ym2612"
    },
    {
      "channel": 1,
      "note": 81,
      "start": 17.7294,
      "duration": 0.011,
      "velocity": 99,
      "chip": "ym2612"
    },
    {
      "channel": 2,
      "note": 71,
      "start": 17.7317,
      "duration": 0.0129,
      "velocity": 111,
      "chip": "ym2612"
    },
    {
      "channel": 4,
      "note": 81,
      "start": 17.7359,
      "duration": 0.0237,
      "velocity": 127,
      "chip": "ym2612"
    },
    {
      "channel": 1,
      "note": 83,
      "start": 17.7444,
      "duration": 0.2011,
      "velocity": 99,
      "chip": "ym2612"
    },
    {
      "channel": 2,
      "note": 74,
      "start": 17.7496,
      "duration": 0.006,
      "velocity": 111,
      "chip": "ym2612"
    },
    {
      "channel": 3,
      "note": 81,
      "start": 17.7524,
      "duration": 0.0037,
      "velocity": 99,
      "chip": "ym2612"
    },
    {
      "channel": 2,
      "note": 78,
      "start": 17.7585,
      "duration": 0.0372,
      "velocity": 111,
      "chip": "ym2612"
    },
    {
      "channel": 3,
      "note": 83,
      "start": 17.7595,
      "duration": 0.287,
      "velocity": 99,
      "chip": "ym2612"
    },
    {
      "channel": 2,
      "note": 81,
      "start": 17.8298,
      "duration": 0.033,
      "velocity": 111,
      "chip": "ym2612"
    },
    {
      "channel": 0,
      "note": 57,
      "start": 17.8964,
      "duration": 0.0825,
      "velocity": 104,
      "chip": "ym2612"
    },
    {
      "channel": 2,
      "note": 74,
      "start": 17.8973,
      "duration": 0.0065,
      "velocity": 111,
      "chip": "ym2612"
    },
    {
      "channel": 2,
      "note": 78,
      "start": 17.9063,
      "duration": 0.0056,
      "velocity": 111,
      "chip": "ym2612"
    },
    {
      "channel": 2,
      "note": 81,
      "start": 17.9164,
      "duration": 0.0059,
      "velocity": 111,
      "chip": "ym2612"
    },
    {
      "channel": 2,
      "note": 83,
      "start": 17.9295,
      "duration": 0.0498,
      "velocity": 111,
      "chip": "ym2612"
    },
    {
      "channel": 0,
      "note": 54,
      "start": 17.9961,
      "duration": 0.2118,
      "velocity": 104,
      "chip": "ym2612"
    },
    {
      "channel": 1,
      "note": 83,
      "start": 17.997,
      "duration": 0.0826,
      "velocity": 99,
      "chip": "ym2612"
    },
    {
      "channel": 2,
      "note": 78,
      "start": 17.9977,
      "duration": 0.0485,
      "velocity": 111,
      "chip": "ym2612"
    },
    {
      "channel": 4,
      "note": 81,
      "start": 17.9996,
      "duration": 0.1482,
      "velocity": 119,
      "chip": "ym2612"
    },
    {
      "channel": 2,
      "note": 81,
      "start": 18.0805,
      "duration": 0.0496,
      "velocity": 111,
      "chip": "ym2612"
    },
    {
      "channel": 1,
      "note": 81,
      "start": 18.0968,
      "duration": 0.0834,
      "velocity": 99,
      "chip": "ym2612"
    },
    {
      "channel": 3,
      "note": 83,
      "start": 18.0979,
      "duration": 0.0827,
      "velocity": 99,
      "chip": "ym2612"
    },
    {
      "channel": 2,
      "note": 83,
      "start": 18.1474,
      "duration": 0.0503,
      "velocity": 111,
      "chip": "ym2612"
    },
    {
      "channel": 1,
      "note": 78,
      "start": 18.1975,
      "duration": 0.0106,
      "velocity": 99,
      "chip": "ym2612"
    },
    {
      "channel": 3,
      "note": 81,
      "start": 18.1983,
      "duration": 0.0102,
      "velocity": 99,
      "chip": "ym2612"
    },
    {
      "channel": 2,
      "note": 86,
      "start": 18.2012,
      "duration": 0.007,
      "velocity": 111,
      "chip": "ym2612"
    },
    {
      "channel": 0,
      "note": 59,
      "start": 18.2127,
      "duration": 0.0262,
      "velocity": 104,
      "chip": "ym2612"
    },
    {
      "channel": 1,
      "note": 81,
      "start": 18.2133,
      "duration": 0.0257,
      "velocity": 99,
      "chip": "ym2612"
    },
    {
      "channel": 2,
      "note": 81,
      "start": 18.2141,
      "duration": 0.0087,
      "velocity": 111,
      "chip": "ym2612"
    },
    {
      "channel": 3,
      "note": 78,
      "start": 18.2148,
      "duration": 0.0108,
      "velocity": 99,
      "chip": "ym2612"
    },
    {
      "channel": 4,
      "note": 81,
      "start": 18.2164,
      "duration": 0.0139,
      "velocity": 127,
      "chip": "ym2612"
    },
    {
      "channel": 2,
      "note": 83,
      "start": 18.2254,
      "duration": 0.0071,
      "velocity": 111,
      "chip": "ym2612"
    },
    {
      "channel": 3,
      "note": 81,
      "start": 18.2302,
      "duration": 0.0241,
      "velocity": 99,
      "chip": "ym2612"
    },
    {
      "channel": 2,
      "note": 86,
      "start": 18.2373,
      "duration": 0.0048,
      "velocity": 111,
      "chip": "ym2612"
    },
    {
      "channel": 0,
      "note": 60,
      "start": 18.2413,
      "duration": 0.0124,
      "velocity": 104,
      "chip": "ym2612"
    },
    {
      "channel": 1,
      "note": 83,
      "start": 18.2419,
      "duration": 0.012,
      "velocity": 99,
      "chip": "ym2612"
    },
    {
      "channel": 4,
      "note": 81,
      "start": 18.2429,
      "duration": 0.0074,
      "velocity": 127,
      "chip": "ym2612"
    },
    {
      "channel": 2,
      "note": 90,
      "start": 18.2475,
      "duration": 0.0066,
      "velocity": 111,
      "chip": "ym2612"
    },
    {
      "channel": 0,
      "note": 61,
      "start": 18.2583,
      "duration": 0.1363,
      "velocity": 104,
      "chip": "ym2612"
    },
    {
      "channel": 1,
      "note": 85,
      "start": 18.2589,
      "duration": 0.4568,
      "velocity": 99,
      "chip": "ym2612"
    },
    {
      "channel": 2,
      "note": 73,
      "start": 18.2597,
      "duration": 0.0088,
      "velocity": 111,
      "chip": "ym2612"
    },
    {
      "channel": 3,
      "note": 83,
      "start": 18.2603,
      "duration": 0.0133,
      "velocity": 99,
      "chip": "ym2612"
    },
    {
      "channel": 4,
      "note": 81,
      "start": 18.261,
      "duration": 0.022,
      "velocity": 127,
      "chip": "ym2612"
    },
    {
      "channel": 2,
      "note": 77,
      "start": 18.2734,
      "duration": 0.0063,
      "velocity": 111,
      "chip": "ym2612"
    },
    {
      "channel": 3,
      "note": 85,
      "start": 18.276,
      "duration": 0.4669,
      "velocity": 99,
      "chip": "ym2612"
    },
    {
      "channel": 2,
      "note": 80,
      "start": 18.2826,
      "duration": 0.0453,
      "velocity": 111,
      "chip": "ym2612"
    },
    {
      "channel": 2,
      "note": 83,
      "start": 18.3454,
      "duration": 0.0496,
      "velocity": 111,
      "chip": "ym2612"
    },
    {
      "channel": 0,
      "note": 49,
      "start": 18.4285,
      "duration": 0.0808,
      "velocity": 104,
      "chip": "ym2612"
    },
    {
      "channel": 2,
      "note": 77,
      "start": 18.4295,
      "duration": 0.0075,
      "velocity": 111,
      "chip": "ym2612"
    },
    {
      "channel": 4,
      "note": 81,
      "start": 18.4313,
      "duration": 0.0172,
      "velocity": 119,
      "chip": "ym2612"
    },
    {
      "channel": 2,
      "note": 80,
      "start": 18.4396,
      "duration": 0.0058,
      "velocity": 111,
      "chip": "ym2612"
    },
    {
      "channel": 2,
      "note": 83,
      "start": 18.4481,
      "duration": 0.0055,
      "velocity": 111,
      "chip": "ym2612"
    },
    {
      "channel": 2,
      "note": 85,
      "start": 18.4599,
      "duration": 0.0498,
      "velocity": 111,
      "chip": "ym2612"
    },
    {
      "channel": 0,
      "note": 56,
      "start": 18.5264,
      "duration": 0.1349,
      "velocity": 104,
      "chip": "ym2612"
    },
    {
      "channel": 2,
      "note": 80,
      "start": 18.5274,
      "duration": 0.0075,
      "velocity": 111,
      "chip": "ym2612"
    },
    {
      "channel": 4,
      "note": 81,
      "start": 18.5295,
      "duration": 0.0179,
      "velocity": 127,
      "chip": "ym2612"
    },
    {
      "channel": 2,
      "note": 83,
      "start": 18.5391,
      "duration": 0.0041,
      "velocity": 111,
      "chip": "ym2612"
    },
    {
      "channel": 2,
      "note": 85,
      "start": 18.547,
      "duration": 0.0476,
      "velocity": 111,
      "chip": "ym2612"
    },
    {
      "channel": 2,
      "note": 89,
      "start": 18.612,
      "duration": 0.0497,
      "velocity": 111,
      "chip": "ym2612"
    },
    {
      "channel": 0,
      "note": 61,
      "start": 18.6953,
      "duration": 0.0807,
      "velocity": 104,
      "chip": "ym2612"
    },
    {
      "channel": 2,
      "note": 83,
      "start": 18.6961,
      "duration": 0.0084,
      "velocity": 111,
      "chip": "ym2612"
    },
    {
      "channel": 4,
      "note": 81,
      "start": 18.6984,
      "duration": 0.0186,
      "velocity": 119,
      "chip": "ym2612"
    },
    {
      "channel": 2,
      "note": 85,
      "start": 18.7071,
      "duration": 0.0068,
      "velocity": 111,
      "chip": "ym2612"
    },
    {
      "channel": 2,
      "note": 89,
      "start": 18.7166,
      "duration": 0.0063,
      "velocity": 111,
      "chip": "ym2612"
    },
    {
      "channel": 2,
      "note": 92,
      "start": 18.7277,
      "duration": 0.0485,
      "velocity": 111,
      "chip": "ym2612"
    },
    {
      "channel": 0,
      "note": 62,
      "start": 18.7931,
      "duration": 0.1367,
      "velocity": 104,
      "chip": "ym2612"
    },
    {
      "channel": 1,
      "note": 84,
      "start": 18.7941,
      "duration": 0.0066,
      "velocity": 99,
      "chip": "ym2612"
    },
    {
      "channel": 2,
      "note": 74,
      "start": 18.7948,
      "duration": 0.0096,
      "velocity": 111,
      "chip": "ym2612"
    },
    {
      "channel": 4,
      "note": 81,
      "start": 18.7968,
      "duration": 0.0226,
      "velocity": 127,
      "chip": "ym2612"
    },
    {
      "channel": 1,
      "note": 86,
      "start": 18.8043,
      "duration": 0.207,
      "velocity": 99,
      "chip": "ym2612"
    },
    {
      "channel": 2,
      "note": 78,
      "start": 18.8073,
      "duration": 0.0066,
      "velocity": 111,
      "chip": "ym2612"
    },
    {
      "channel": 3,
      "note": 84,
      "start": 18.8122,
      "duration": 0.002,
      "velocity": 99,
      "chip": "ym2612"
    },
    {
      "channel": 2,
      "note": 81,
      "start": 18.8185,
      "duration": 0.0446,
      "velocity": 111,
      "chip": "ym2612"
    },
    {
      "channel": 3,
      "note": 86,
      "start": 18.8192,
      "duration": 0.2931,
      "velocity": 99,
      "chip": "ym2612"
    },
    {
      "channel": 2,
      "note": 84,
      "start": 18.8805,
      "duration": 0.0499,
      "velocity": 111,
      "chip": "ym2612"
    },
    {
      "channel": 0,
      "note": 57,
      "start": 18.9637,
      "duration": 0.081,
      "velocity": 104,
      "chip": "ym2612"
    },
    {
      "channel": 2,
      "note": 78,
      "start": 18.9647,
      "duration": 0.0046,
      "velocity": 111,
      "chip": "ym2612"
    },
    {
      "channel": 2,
      "note": 81,
      "start": 18.9737,
      "duration": 0.0055,
      "velocity": 111,
      "chip": "ym2612"
    },
    {
      "channel": 2,
      "note": 84,
      "start": 18.9814,
      "duration": 0.0051,
      "velocity": 111,
      "chip": "ym2612"
    },
    {
      "channel": 2,
      "note": 86,
      "start": 18.9954,
      "duration": 0.0498,
      "velocity": 111,
      "chip": "ym2612"
    },
    {
      "channel": 0,
      "note": 59,
      "start": 19.0619,
      "duration": 0.2108,
      "velocity": 104,
      "chip": "ym2612"
    },
    {
      "channel": 1,
      "note": 86,
      "start": 19.0625,
      "duration": 0.0662,
      "velocity": 99,
      "chip": "ym2612"
    },
    {
      "channel": 2,
      "note": 83,
      "start": 19.0632,
      "duration": 0.0489,
      "velocity": 111,
      "chip": "ym2612"
    },
    {
      "channel": 4,
      "note": 88,
      "start": 19.0651,
      "duration": 0.1485,
      "velocity": 119,
      "chip": "ym2612"
    },
    {
      "channel": 2,
      "note": 85,
      "start": 19.1295,
      "duration": 0.0497,
      "velocity": 111,
      "chip": "ym2612"
    },
    {
      "channel": 1,
      "note": 85,
      "start": 19.1627,
      "duration": 0.0665,
      "velocity": 99,
      "chip": "ym2612"
    },
    {
      "channel": 3,
      "note": 86,
      "start": 19.1635,
      "duration": 0.0661,
      "velocity": 99,
      "chip": "ym2612"
    },
    {
      "channel": 2,
      "note": 86,
      "start": 19.2132,
      "duration": 0.0501,
      "velocity": 111,
      "chip": "ym2612"
    },
    {
      "channel": 1,
      "note": 83,
      "start": 19.2632,
      "duration": 0.0097,
      "velocity": 99,
      "chip": "ym2612"
    },
    {
      "channel": 3,
      "note": 85,
      "start": 19.2641,
      "duration": 0.0093,
      "velocity": 99,
      "chip": "ym2612"
    },
    {
      "channel": 2,
      "note": 90,
      "start": 19.2665,
      "duration": 0.0065,
      "velocity": 111,
      "chip": "ym2612"
    },
    {
      "channel": 0,
      "note": 62,
      "start": 19.2758,
      "duration": 0.0418,
      "velocity": 104,
      "chip": "ym2612"
    },
    {
      "channel": 1,
      "note": 84,
      "start": 19.2763,
      "duration": 0.0114,
      "velocity": 99,
      "chip": "ym2612"
    },
    {
      "channel": 2,
      "note": 85,
      "start": 19.2771,
      "duration": 0.0068,
      "velocity": 111,
      "chip": "ym2612"
    },
    {
      "channel": 3,
      "note": 83,
      "start": 19.2777,
      "duration": 0.011,
      "velocity": 99,
      "chip": "ym2612"
    },
    {
      "channel": 2,
      "note": 86,
      "start": 19.2885,
      "duration": 0.0089,
      "velocity": 111,
      "chip": "ym2612"
    },
    {
      "channel": 1,
      "note": 85,
      "start": 19.2921,
      "duration": 0.0115,
      "velocity": 99,
      "chip": "ym2612"
    },
    {
      "channel": 3,
      "note": 84,
      "start": 19.2929,
      "duration": 0.011,
      "velocity": 99,
      "chip": "ym2612"
    },
    {
      "channel": 2,
      "note": 90,
      "start": 19.3003,
      "duration": 0.0062,
      "velocity": 111,
      "chip": "ym2612"
    },
    {
      "channel": 1,
      "note": 86,
      "start": 19.3064,
      "duration": 0.0113,
      "velocity": 99,
      "chip": "ym2612"
    },
    {
      "channel": 3,
      "note": 85,
      "start": 19.3073,
      "duration": 0.0109,
      "velocity": 99,
      "chip": "ym2612"
    },
    {
      "channel": 2,
      "note": 93,
      "start": 19.3133,
      "duration": 0.0046,
      "velocity": 111,
      "chip": "ym2612"
    },
    {
      "channel": 0,
      "note": 52,
      "start": 19.3224,
      "duration": 0.0339,
      "velocity": 104,
      "chip": "ym2612"
    },
    {
      "channel": 3,
      "note": 86,
      "start": 19.3264,
      "duration": 0.0072,
      "velocity": 99,
      "chip": "ym2612"
    },
    {
      "channel": 0,
      "note": 64,
      "start": 19.3903,
      "duration": 0.0356,
      "velocity": 104,
      "chip": "ym2612"
    },
    {
      "channel": 1,
      "note": 88,
      "start": 19.3908,
      "duration": 0.0252,
      "velocity": 100,
      "chip": "ym2612"
    },
    {
      "channel": 2,
      "note": 85,
      "start": 19.3918,
      "duration": 0.0285,
      "velocity": 99,
      "chip": "ym2612"
    },
    {
      "channel": 3,
      "note": 88,
      "start": 19.4047,
      "duration": 0.0341,
      "velocity": 99,
      "chip": "ym2612"
    },
    {
      "channel": 0,
      "note": 64,
      "start": 19.4284,
      "duration": 0.0098,
      "velocity": 104,
      "chip": "ym2612"
    },
    {
      "channel": 1,
      "note": 88,
      "start": 19.429,
      "duration": 0.0094,
      "velocity": 100,
      "chip": "ym2612"
    },
    {
      "channel": 2,
      "note": 85,
      "start": 19.4297,
      "duration": 0.009,
      "velocity": 99,
      "chip": "ym2612"
    },
    {
      "channel": 0,
      "note": 52,
      "start": 19.4438,
      "duration": 0.0356,
      "velocity": 104,
      "chip": "ym2612"
    },
    {
      "channel": 1,
      "note": 88,
      "start": 19.4444,
      "duration": 0.0254,
      "velocity": 100,
      "chip": "ym2612"
    },
    {
      "channel": 2,
      "note": 85,
      "start": 19.4451,
      "duration": 0.0289,
      "velocity": 99,
      "chip": "ym2612"
    },
    {
      "channel": 3,
      "note": 88,
      "start": 19.4458,
      "duration": 0.0089,
      "velocity": 99,
      "chip": "ym2612"
    },
    {
      "channel": 3,
      "note": 88,
      "start": 19.4592,
      "duration": 0.0358,
      "velocity": 99,
      "chip": "ym2612"
    },
    {
      "channel": 0,
      "note": 56,
      "start": 19.4817,
      "duration": 0.0352,
      "velocity": 104,
      "chip": "ym2612"
    },
    {
      "channel": 1,
      "note": 92,
      "start": 19.4827,
      "duration": 0.0267,
      "velocity": 100,
      "chip": "ym2612"
    },
    {
      "channel": 2,
      "note": 88,
      "start": 19.4833,
      "duration": 0.0283,
      "velocity": 99,
      "chip": "ym2612"
    },
    {
      "channel": 3,
      "note": 92,
      "start": 19.4977,
      "duration": 0.0371,
      "velocity": 99,
      "chip": "ym2612"
    },
    {
      "channel": 0,
      "note": 66,
      "start": 19.5226,
      "duration": 0.0628,
      "velocity": 108,
      "chip": "ym2612"
    },
    {
      "channel": 1,
      "note": 90,
      "start": 19.5232,
      "duration": 0.0187,
      "velocity": 100,
      "chip": "ym2612"
    },
    {
      "channel": 2,
      "note": 87,
      "start": 19.5239,
      "duration": 0.0203,
      "velocity": 99,
      "chip": "ym2612"
    },
    {
      "channel": 4,
      "note": 81,
      "start": 19.5258,
      "duration": 0.0189,
      "velocity": 127,
      "chip": "ym2612"
    },
    {
      "channel": 3,
      "note": 90,
      "start": 19.5401,
      "duration": 0.0459,
      "velocity": 99,
      "chip": "ym2612"
    },
    {
      "channel": 1,
      "note": 90,
      "start": 19.5738,
      "duration": 0.0118,
      "velocity": 100,
      "chip": "ym2612"
    },
    {
      "channel": 2,
      "note": 87,
      "start": 19.5744,
      "duration": 0.0113,
      "velocity": 99,
      "chip": "ym2612"
    },
    {
      "channel": 0,
      "note": 64,
      "start": 19.5886,
      "duration": 0.0385,
      "velocity": 108,
      "chip": "ym2612"
    },
    {
      "channel": 1,
      "note": 88,
      "start": 19.5893,
      "duration": 0.0174,
      "velocity": 100,
      "chip": "ym2612"
    },
    {
      "channel": 2,
      "note": 85,
      "start": 19.5898,
      "duration": 0.0206,
      "velocity": 99,
      "chip": "ym2612"
    },
    {
      "channel": 3,
      "note": 90,
      "start": 19.5906,
      "duration": 0.0114,
      "velocity": 99,
      "chip": "ym2612"
    },
    {
      "channel": 4,
      "note": 81,
      "start": 19.5912,
      "duration": 0.0141,
      "velocity": 127,
      "chip": "ym2612"
    },
    {
      "channel": 3,
      "note": 88,
      "start": 19.6051,
      "duration": 0.0227,
      "velocity": 99,
      "chip": "ym2612"
    },
    {
      "channel": 1,
      "note": 90,
      "start": 19.6173,
      "duration": 0.01,
      "velocity": 100,
      "chip": "ym2612"
    },
    {
      "channel": 2,
      "note": 87,
      "start": 19.6179,
      "duration": 0.0096,
      "velocity": 99,
      "chip": "ym2612"
    },
    {
      "channel": 4,
      "note": 81,
      "start": 19.6188,
      "duration": 0.0072,
      "velocity": 127,
      "chip": "ym2612"
    },
    {
      "channel": 0,
      "note": 63,
      "start": 19.6312,
      "duration": 0.1506,
      "velocity": 108,
      "chip": "ym2612"
    },
    {
      "channel": 3,
      "note": 90,
      "start": 19.6326,
      "duration": 0.0191,
      "velocity": 99,
      "chip": "ym2612"
    },
    {
      "channel": 4,
      "note": 81,
      "start": 19.6332,
      "duration": 0.0356,
      "velocity": 127,
      "chip": "ym2612"
    },
    {
      "channel": 1,
      "note": 93,
      "start": 19.7694,
      "duration": 0.0126,
      "velocity": 100,
      "chip": "ym2612"
    },
    {
      "channel": 2,
      "note": 90,
      "start": 19.77,
      "duration": 0.0121,
      "velocity": 99,
      "chip": "ym2612"
    },
    {
      "channel": 4,
      "note": 81,
      "start": 19.7719,
      "duration": 0.0244,
      "velocity": 119,
      "chip": "ym2612"
    },
    {
      "channel": 0,
      "note": 61,
      "start": 19.7843,
      "duration": 0.1672,
      "velocity": 108,
      "chip": "ym2612"
    },
    {
      "channel": 3,
      "note": 93,
      "start": 19.7857,
      "duration": 0.0068,
      "velocity": 99,
      "chip": "ym2612"
    },
    {
      "channel": 0,
      "note": 59,
      "start": 19.9854,
      "duration": 0.1363,
      "velocity": 108,
      "chip": "ym2612"
    },
    {
      "channel": 4,
      "note": 81,
      "start": 19.9878,
      "duration": 0.0085,
      "velocity": 127,
      "chip": "ym2612"
    },
    {
      "channel": 1,
      "note": 78,
      "start": 20.0386,
      "duration": 0.0833,
      "velocity": 100,
      "chip": "ym2612"
    },
    {
      "channel": 2,
      "note": 75,
      "start": 20.0392,
      "duration": 0.0829,
      "velocity": 99,
      "chip": "ym2612"
    },
    {
      "channel": 4,
      "note": 81,
      "start": 20.0399,
      "duration": 0.049,
      "velocity": 127,
      "chip": "ym2612"
    },
    {
      "channel": 0,
      "note": 57,
      "start": 20.1389,
      "duration": 0.0808,
      "velocity": 108,
      "chip": "ym2612"
    },
    {
      "channel": 1,
      "note": 81,
      "start": 20.1395,
      "duration": 0.0178,
      "velocity": 100,
      "chip": "ym2612"
    },
    {
      "channel": 2,
      "note": 78,
      "start": 20.1402,
      "duration": 0.0211,
      "velocity": 99,
      "chip": "ym2612"
    },
    {
      "channel": 3,
      "note": 78,
      "start": 20.141,
      "duration": 0.0097,
      "velocity": 99,
      "chip": "ym2612"
    },
    {
      "channel": 4,
      "note": 81,
      "start": 20.1419,
      "duration": 0.0138,
      "velocity": 127,
      "chip": "ym2612"
    },
    {
      "channel": 3,
      "note": 81,
      "start": 20.1556,
      "duration": 0.0651,
      "velocity": 99,
      "chip": "ym2612"
    },
    {
      "channel": 1,
      "note": 81,
      "start": 20.1675,
      "duration": 0.0525,
      "velocity": 100,
      "chip": "ym2612"
    },
    {
      "channel": 2,
      "note": 78,
      "start": 20.1684,
      "duration": 0.0517,
      "velocity": 99,
      "chip": "ym2612"
    },
    {
      "channel": 4,
      "note": 81,
      "start": 20.1693,
      "duration": 0.0349,
      "velocity": 127,
      "chip": "ym2612"
    },
    {
      "channel": 0,
      "note": 54,
      "start": 20.2369,
      "duration": 0.1844,
      "velocity": 108,
      "chip": "ym2612"
    },
    {
      "channel": 1,
      "note": 88,
      "start": 20.2379,
      "duration": 0.1332,
      "velocity": 100,
      "chip": "ym2612"
    },
    {
      "channel": 2,
      "note": 85,
      "start": 20.2385,
      "duration": 0.1496,
      "velocity": 99,
      "chip": "ym2612"
    },
    {
      "channel": 3,
      "note": 81,
      "start": 20.2393,
      "duration": 0.0819,
      "velocity": 99,
      "chip": "ym2612"
    },
    {
      "channel": 4,
      "note": 81,
      "start": 20.2398,
      "duration": 0.0989,
      "velocity": 127,
      "chip": "ym2612"
    },
    {
      "channel": 3,
      "note": 88,
      "start": 20.3385,
      "duration": 0.1672,
      "velocity": 99,
      "chip": "ym2612"
    },
    {
      "channel": 0,
      "note": 51,
      "start": 20.4384,
      "duration": 0.0667,
      "velocity": 108,
      "chip": "ym2612"
    },
    {
      "channel": 1,
      "note": 90,
      "start": 20.439,
      "duration": 0.0662,
      "velocity": 100,
      "chip": "ym2612"
    },
    {
      "channel": 2,
      "note": 85,
      "start": 20.4397,
      "duration": 0.0658,
      "velocity": 99,
      "chip": "ym2612"
    },
    {
      "channel": 4,
      "note": 81,
      "start": 20.4405,
      "duration": 0.0487,
      "velocity": 127,
      "chip": "ym2612"
    },
    {
      "channel": 0,
      "note": 52,
      "start": 20.539,
      "duration": 0.0173,
      "velocity": 108,
      "chip": "ym2612"
    },
    {
      "channel": 3,
      "note": 90,
      "start": 20.5404,
      "duration": 0.007,
      "velocity": 99,
      "chip": "ym2612"
    },
    {
      "channel": 4,
      "note": 81,
      "start": 20.5409,
      "duration": 0.0102,
      "velocity": 127,
      "chip": "ym2612"
    },
    {
      "channel": 0,
      "note": 53,
      "start": 20.5598,
      "duration": 0.0602,
      "velocity": 108,
      "chip": "ym2612"
    },
    {
      "channel": 4,
      "note": 81,
      "start": 20.5607,
      "duration": 0.0262,
      "velocity": 127,
      "chip": "ym2612"
    },
    {
      "channel": 0,
      "note": 54,
      "start": 20.6371,
      "duration": 0.079,
      "velocity": 108,
      "chip": "ym2612"
    },
    {
      "channel": 1,
      "note": 90,
      "start": 20.6378,
      "duration": 0.0181,
      "velocity": 100,
      "chip": "ym2612"
    },
    {
      "channel": 2,
      "note": 87,
      "start": 20.6384,
      "duration": 0.0194,
      "velocity": 99,
      "chip": "ym2612"
    },
    {
      "channel": 4,
      "note": 81,
      "start": 20.6391,
      "duration": 0.0135,
      "velocity": 127,
      "chip": "ym2612"
    },
    {
      "channel": 3,
      "note": 90,
      "start": 20.6524,
      "duration": 0.0643,
      "velocity": 99,
      "chip": "ym2612"
    },
    {
      "channel": 1,
      "note": 90,
      "start": 20.7059,
      "duration": 0.0104,
      "velocity": 100,
      "chip": "ym2612"
    },
    {
      "channel": 2,
      "note": 87,
      "start": 20.7065,
      "duration": 0.01,
      "velocity": 99,
      "chip": "ym2612"
    },
    {
      "channel": 4,
      "note": 81,
      "start": 20.7073,
      "duration": 0.0072,
      "velocity": 127,
      "chip": "ym2612"
    },
    {
      "channel": 0,
      "note": 57,
      "start": 20.7207,
      "duration": 0.0399,
      "velocity": 108,
      "chip": "ym2612"
    },
    {
      "channel": 1,
      "note": 88,
      "start": 20.7214,
      "duration": 0.0178,
      "velocity": 100,
      "chip": "ym2612"
    },
    {
      "channel": 2,
      "note": 85,
      "start": 20.722,
      "duration": 0.021,
      "velocity": 99,
      "chip": "ym2612"
    },
    {
      "channel": 3,
      "note": 90,
      "start": 20.7228,
      "duration": 0.0094,
      "velocity": 99,
      "chip": "ym2612"
    },
    {
      "channel": 4,
      "note": 81,
      "start": 20.7234,
      "duration": 0.0142,
      "velocity": 127,
      "chip": "ym2612"
    },
    {
      "channel": 3,
      "note": 88,
      "start": 20.7374,
      "duration": 0.0238,
      "velocity": 99,
      "chip": "ym2612"
    },
    {
      "channel": 1,
      "note": 90,
      "start": 20.749,
      "duration": 0.0117,
      "velocity": 100,
      "chip": "ym2612"
    },
    {
      "channel": 2,
      "note": 87,
      "start": 20.7497,
      "duration": 0.0113,
      "velocity": 99,
      "chip": "ym2612"
    },
    {
      "channel": 4,
      "note": 81,
      "start": 20.7505,
      "duration": 0.0071,
      "velocity": 127,
      "chip": "ym2612"
    },
    {
      "channel": 0,
      "note": 58,
      "start": 20.7628,
      "duration": 0.1659,
      "velocity": 108,
      "chip": "ym2612"
    },
    {
      "channel": 3,
      "note": 90,
      "start": 20.7642,
      "duration": 0.0367,
      "velocity": 99,
      "chip": "ym2612"
    },
    {
      "channel": 4,
      "note": 81,
      "start": 20.7648,
      "duration": 0.0532,
      "velocity": 127,
      "chip": "ym2612"
    },
    {
      "channel": 1,
      "note": 90,
      "start": 20.9184,
      "duration": 0.0104,
      "velocity": 100,
      "chip": "ym2612"
    },
    {
      "channel": 2,
      "note": 87,
      "start": 20.919,
      "duration": 0.0101,
      "velocity": 99,
      "chip": "ym2612"
    },
    {
      "channel": 4,
      "note": 81,
      "start": 20.9197,
      "duration": 0.0074,
      "velocity": 127,
      "chip": "ym2612"
    },
    {
      "channel": 0,
      "note": 59,
      "start": 20.933,
      "duration": 0.0232,
      "velocity": 108,
      "chip": "ym2612"
    },
    {
      "channel": 1,
      "note": 88,
      "start": 20.9335,
      "duration": 0.0176,
      "velocity": 100,
      "chip": "ym2612"
    },
    {
      "channel": 2,
      "note": 85,
      "start": 20.9342,
      "duration": 0.0188,
      "velocity": 99,
      "chip": "ym2612"
    },
    {
      "channel": 3,
      "note": 90,
      "start": 20.935,
      "duration": 0.0098,
      "velocity": 99,
      "chip": "ym2612"
    },
    {
      "channel": 3,
      "note": 88,
      "start": 20.9494,
      "duration": 0.065,
      "velocity": 99,
      "chip": "ym2612"
    },
    {
      "channel": 0,
      "note": 60,
      "start": 20.9582,
      "duration": 0.0556,
      "velocity": 108,
      "chip": "ym2612"
    },
    {
      "channel": 1,
      "note": 90,
      "start": 20.9587,
      "duration": 0.0553,
      "velocity": 100,
      "chip": "ym2612"
    },
    {
      "channel": 2,
      "note": 87,
      "start": 20.9594,
      "duration": 0.0548,
      "velocity": 99,
      "chip": "ym2612"
    },
    {
      "channel": 0,
      "note": 49,
      "start": 21.031,
      "duration": 0.0456,
      "velocity": 108,
      "chip": "ym2612"
    },
    {
      "channel": 3,
      "note": 90,
      "start": 21.0324,
      "duration": 0.0087,
      "velocity": 99,
      "chip": "ym2612"
    },
    {
      "channel": 0,
      "note": 61,
      "start": 21.0822,
      "duration": 0.4084,
      "velocity": 108,
      "chip": "ym2612"
    },
    {
      "channel": 1,
      "note": 92,
      "start": 21.0831,
      "duration": 0.3574,
      "velocity": 100,
      "chip": "ym2612"
    },
    {
      "channel": 2,
      "note": 87,
      "start": 21.0851,
      "duration": 0.2219,
      "velocity": 101,
      "chip": "ym2612"
    },
    {
      "channel": 4,
      "note": 81,
      "start": 21.0868,
      "duration": 0.0073,
      "velocity": 119,
      "chip": "ym2612"
    },
    {
      "channel": 3,
      "note": 92,
      "start": 21.1011,
      "duration": 0.4174,
      "velocity": 99,
      "chip": "ym2612"
    },
    {
      "channel": 0,
      "note": 54,
      "start": 21.5093,
      "duration": 0.1233,
      "velocity": 108,
      "chip": "ym2612"
    },
    {
      "channel": 1,
      "note": 90,
      "start": 21.5114,
      "duration": 0.0265,
      "velocity": 103,
      "chip": "ym2612"
    },
    {
      "channel": 2,
      "note": 78,
      "start": 21.5128,
      "duration": 0.0324,
      "velocity": 101,
      "chip": "ym2612"
    },
    {
      "channel": 4,
      "note": 81,
      "start": 21.5153,
      "duration": 0.0161,
      "velocity": 127,
      "chip": "ym2612"
    },
    {
      "channel": 3,
      "note": 90,
      "start": 21.5312,
      "duration": 0.0192,
      "velocity": 103,
      "chip": "ym2612"
    },
    {
      "channel": 1,
      "note": 73,
      "start": 21.543,
      "duration": 0.0071,
      "velocity": 99,
      "chip": "ym2612"
    },
    {
      "channel": 4,
      "note": 81,
      "start": 21.544,
      "duration": 0.005,
      "velocity": 127,
      "chip": "ym2612"
    },
    {
      "channel": 1,
      "note": 76,
      "start": 21.553,
      "duration": 0.0205,
      "velocity": 99,
      "chip": "ym2612"
    },
    {
      "channel": 2,
      "note": 73,
      "start": 21.5551,
      "duration": 0.0078,
      "velocity": 100,
      "chip": "ym2612"
    },
    {
      "channel": 3,
      "note": 73,
      "start": 21.5573,
      "duration": 0.0099,
      "velocity": 99,
      "chip": "ym2612"
    },
    {
      "channel": 4,
      "note": 81,
      "start": 21.5579,
      "duration": 0.012,
      "velocity": 127,
      "chip": "ym2612"
    },
    {
      "channel": 2,
      "note": 76,
      "start": 21.5671,
      "duration": 0.0151,
      "velocity": 100,
      "chip": "ym2612"
    },
    {
      "channel": 3,
      "note": 76,
      "start": 21.5698,
      "duration": 0.0466,
      "velocity": 99,
      "chip": "ym2612"
    },
    {
      "channel": 1,
      "note": 83,
      "start": 21.5821,
      "duration": 0.0508,
      "velocity": 99,
      "chip": "ym2612"
    },
    {
      "channel": 4,
      "note": 81,
      "start": 21.5831,
      "duration": 0.0337,
      "velocity": 127,
      "chip": "ym2612"
    },
    {
      "channel": 2,
      "note": 83,
      "start": 21.6336,
      "duration": 0.0832,
      "velocity": 100,
      "chip": "ym2612"
    },
    {
      "channel": 0,
      "note": 76,
      "start": 21.6678,
      "duration": 0.166,
      "velocity": 99,
      "chip": "ym2612"
    },
    {
      "channel": 1,
      "note": 82,
      "start": 21.6685,
      "duration": 0.1152,
      "velocity": 99,
      "chip": "ym2612"
    },
    {
      "channel": 3,
      "note": 83,
      "start": 21.6693,
      "duration": 0.0649,
      "velocity": 99,
      "chip": "ym2612"
    },
    {
      "channel": 4,
      "note": 81,
      "start": 21.6699,
      "duration": 0.098,
      "velocity": 127,
      "chip": "ym2612"
    },
    {
      "channel": 2,
      "note": 82,
      "start": 21.734,
      "duration": 0.1346,
      "velocity": 100,
      "chip": "ym2612"
    },
    {
      "channel": 3,
      "note": 82,
      "start": 21.7678,
      "duration": 0.1337,
      "velocity": 99,
      "chip": "ym2612"
    },
    {
      "channel": 0,
      "note": 83,
      "start": 21.8678,
      "duration": 0.0666,
      "velocity": 99,
      "chip": "ym2612"
    },
    {
      "channel": 1,
      "note": 78,
      "start": 21.8684,
      "duration": 0.0954,
      "velocity": 99,
      "chip": "ym2612"
    },
    {
      "channel": 4,
      "note": 81,
      "start": 21.8695,
      "duration": 0.0322,
      "velocity": 127,
      "chip": "ym2612"
    },
    {
      "channel": 2,
      "note": 78,
      "start": 21.9353,
      "duration": 0.0403,
      "velocity": 100,
      "chip": "ym2612"
    },
    {
      "channel": 0,
      "note": 82,
      "start": 21.9515,
      "duration": 0.0236,
      "velocity": 99,
      "chip": "ym2612"
    },
    {
      "channel": 3,
      "note": 78,
      "start": 21.9526,
      "duration": 0.0309,
      "velocity": 99,
      "chip": "ym2612"
    },
    {
      "channel": 4,
      "note": 81,
      "start": 21.9532,
      "duration": 0.0132,
      "velocity": 127,
      "chip": "ym2612"
    },
    {
      "channel": 0,
      "note": 78,
      "start": 21.9778,
      "duration": 0.2565,
      "velocity": 99,
      "chip": "ym2612"
    },
    {
      "channel": 1,
      "note": 73,
      "start": 21.9783,
      "duration": 0.0551,
      "velocity": 99,
      "chip": "ym2612"
    },
    {
      "channel": 4,
      "note": 81,
      "start": 21.9794,
      "duration": 0.0378,
      "velocity": 127,
      "chip": "ym2612"
    },
    {
      "channel": 2,
      "note": 73,
      "start": 22.034,
      "duration": 0.0833,
      "velocity": 100,
      "chip": "ym2612"
    },
    {
      "channel": 1,
      "note": 76,
      "start": 22.0674,
      "duration": 0.1168,
      "velocity": 99,
      "chip": "ym2612"
    },
    {
      "channel": 3,
      "note": 73,
      "start": 22.0681,
      "duration": 0.0666,
      "velocity": 99,
      "chip": "ym2612"
    },
    {
      "channel": 4,
      "note": 81,
      "start": 22.0688,
      "duration": 0.0997,
      "velocity": 127,
      "chip": "ym2612"
    },
    {
      "channel": 2,
      "note": 76,
      "start": 22.1345,
      "duration": 0.1181,
      "velocity": 100,
      "chip": "ym2612"
    },
    {
      "channel": 3,
      "note": 76,
      "start": 22.1683,
      "duration": 0.1337,
      "velocity": 99,
      "chip": "ym2612"
    },
    {
      "channel": 0,
      "note": 73,
      "start": 22.2515,
      "duration": 0.0834,
      "velocity": 99,
      "chip": "ym2612"
    },
    {
      "channel": 1,
      "note": 83,
      "start": 22.2522,
      "duration": 0.0829,
      "velocity": 99,
      "chip": "ym2612"
    },
    {
      "channel": 4,
      "note": 81,
      "start": 22.2535,
      "duration": 0.0491,
      "velocity": 127,
      "chip": "ym2612"
    },
    {
      "channel": 2,
      "note": 83,
      "start": 22.3362,
      "duration": 0.0246,
      "velocity": 100,
      "chip": "ym2612"
    },
    {
      "channel": 0,
      "note": 76,
      "start": 22.3521,
      "duration": 0.024,
      "velocity": 99,
      "chip": "ym2612"
    },
    {
      "channel": 1,
      "note": 82,
      "start": 22.3531,
      "duration": 0.0183,
      "velocity": 99,
      "chip": "ym2612"
    },
    {
      "channel": 3,
      "note": 83,
      "start": 22.3539,
      "duration": 0.0112,
      "velocity": 99,
      "chip": "ym2612"
    },
    {
      "channel": 4,
      "note": 81,
      "start": 22.3545,
      "duration": 0.0138,
      "velocity": 127,
      "chip": "ym2612"
    },
    {
      "channel": 2,
      "note": 82,
      "start": 22.3649,
      "duration": 0.0163,
      "velocity": 100,
      "chip": "ym2612"
    },
    {
      "channel": 3,
      "note": 82,
      "start": 22.3681,
      "duration": 0.0502,
      "velocity": 99,
      "chip": "ym2612"
    },
    {
      "channel": 0,
      "note": 83,
      "start": 22.3804,
      "duration": 0.054,
      "velocity": 99,
      "chip": "ym2612"
    },
    {
      "channel": 1,
      "note": 78,
      "start": 22.3811,
      "duration": 0.0535,
      "velocity": 99,
      "chip": "ym2612"
    },
    {
      "channel": 4,
      "note": 81,
      "start": 22.3832,
      "duration": 0.0986,
      "velocity": 119,
      "chip": "ym2612"
    },
    {
      "channel": 2,
      "note": 78,
      "start": 22.4354,
      "duration": 0.0385,
      "velocity": 101,
      "chip": "ym2612"
    },
    {
      "channel": 0,
      "note": 54,
      "start": 22.4698,
      "duration": 0.1756,
      "velocity": 108,
      "chip": "ym2612"
    },
    {
      "channel": 1,
      "note": 88,
      "start": 22.4718,
      "duration": 0.1616,
      "velocity": 103,
      "chip": "ym2612"
    },
    {
      "channel": 2,
      "note": 73,
      "start": 22.4739,
      "duration": 0.153,
      "velocity": 101,
      "chip": "ym2612"
    },
    {
      "channel": 3,
      "note": 78,
      "start": 22.4745,
      "duration": 0.0093,
      "velocity": 99,
      "chip": "ym2612"
    },
    {
      "channel": 3,
      "note": 76,
      "start": 22.4878,
      "duration": 0.1564,
      "velocity": 99,
      "chip": "ym2612"
    },
    {
      "channel": 4,
      "note": 81,
      "start": 22.522,
      "duration": 0.0489,
      "velocity": 127,
      "chip": "ym2612"
    },
    {
      "channel": 4,
      "note": 81,
      "start": 22.6222,
      "duration": 0.0149,
      "velocity": 127,
      "chip": "ym2612"
    },
    {
      "channel": 0,
      "note": 52,
      "start": 22.6509,
      "duration": 0.2646,
      "velocity": 108,
      "chip": "ym2612"
    },
    {
      "channel": 1,
      "note": 87,
      "start": 22.6516,
      "duration": 0.0851,
      "velocity": 103,
      "chip": "ym2612"
    },
    {
      "channel": 2,
      "note": 71,
      "start": 22.6523,
      "duration": 0.0512,
      "velocity": 101,
      "chip": "ym2612"
    },
    {
      "channel": 4,
      "note": 81,
      "start": 22.6531,
      "duration": 0.007,
      "velocity": 127,
      "chip": "ym2612"
    },
    {
      "channel": 3,
      "note": 75,
      "start": 22.6667,
      "duration": 0.0064,
      "velocity": 99,
      "chip": "ym2612"
    },
    {
      "channel": 4,
      "note": 81,
      "start": 22.6673,
      "duration": 0.0368,
      "velocity": 127,
      "chip": "ym2612"
    },
    {
      "channel": 1,
      "note": 64,
      "start": 22.8058,
      "duration": 0.0819,
      "velocity": 99,
      "chip": "ym2612"
    },
    {
      "channel": 2,
      "note": 61,
      "start": 22.8077,
      "duration": 0.0805,
      "velocity": 100,
      "chip": "ym2612"
    },
    {
      "channel": 4,
      "note": 81,
      "start": 22.8084,
      "duration": 0.0466,
      "velocity": 127,
      "chip": "ym2612"
    },
    {
      "channel": 1,
      "note": 68,
      "start": 22.905,
      "duration": 0.0201,
      "velocity": 99,
      "chip": "ym2612"
    },
    {
      "channel": 2,
      "note": 64,
      "start": 22.9056,
      "duration": 0.0197,
      "velocity": 100,
      "chip": "ym2612"
    },
    {
      "channel": 3,
      "note": 64,
      "start": 22.9062,
      "duration": 0.0103,
      "velocity": 99,
      "chip": "ym2612"
    },
    {
      "channel": 4,
      "note": 81,
      "start": 22.9068,
      "duration": 0.017,
      "velocity": 127,
      "chip": "ym2612"
    },
    {
      "channel": 0,
      "note": 64,
      "start": 22.9224,
      "duration": 0.0091,
      "velocity": 99,
      "chip": "ym2612"
    },
    {
      "channel": 3,
      "note": 68,
      "start": 22.9236,
      "duration": 0.0463,
      "velocity": 99,
      "chip": "ym2612"
    },
    {
      "channel": 0,
      "note": 68,
      "start": 22.9363,
      "duration": 0.1504,
      "velocity": 99,
      "chip": "ym2612"
    },
    {
      "channel": 1,
      "note": 75,
      "start": 22.937,
      "duration": 0.0493,
      "velocity": 99,
      "chip": "ym2612"
    },
    {
      "channel": 2,
      "note": 71,
      "start": 22.9376,
      "duration": 0.0489,
      "velocity": 100,
      "chip": "ym2612"
    },
    {
      "channel": 4,
      "note": 81,
      "start": 22.9385,
      "duration": 0.0318,
      "velocity": 127,
      "chip": "ym2612"
    },
    {
      "channel": 1,
      "note": 73,
      "start": 23.0203,
      "duration": 0.1169,
      "velocity": 99,
      "chip": "ym2612"
    },
    {
      "channel": 2,
      "note": 70,
      "start": 23.0209,
      "duration": 0.1165,
      "velocity": 100,
      "chip": "ym2612"
    },
    {
      "channel": 3,
      "note": 75,
      "start": 23.0216,
      "duration": 0.0657,
      "velocity": 99,
      "chip": "ym2612"
    },
    {
      "channel": 4,
      "note": 81,
      "start": 23.0222,
      "duration": 0.0829,
      "velocity": 127,
      "chip": "ym2612"
    },
    {
      "channel": 0,
      "note": 75,
      "start": 23.1039,
      "duration": 0.0834,
      "velocity": 99,
      "chip": "ym2612"
    },
    {
      "channel": 3,
      "note": 73,
      "start": 23.1049,
      "duration": 0.15,
      "velocity": 99,
      "chip": "ym2612"
    },
    {
      "channel": 0,
      "note": 73,
      "start": 23.2044,
      "duration": 0.1087,
      "velocity": 99,
      "chip": "ym2612"
    },
    {
      "channel": 1,
      "note": 71,
      "start": 23.2051,
      "duration": 0.1083,
      "velocity": 99,
      "chip": "ym2612"
    },
    {
      "channel": 2,
      "note": 66,
      "start": 23.2057,
      "duration": 0.1117,
      "velocity": 100,
      "chip": "ym2612"
    },
    {
      "channel": 4,
      "note": 81,
      "start": 23.2065,
      "duration": 0.0487,
      "velocity": 127,
      "chip": "ym2612"
    },
    {
      "channel": 3,
      "note": 71,
      "start": 23.3056,
      "duration": 0.0296,
      "velocity": 99,
      "chip": "ym2612"
    },
    {
      "channel": 4,
      "note": 81,
      "start": 23.3063,
      "duration": 0.0116,
      "velocity": 127,
      "chip": "ym2612"
    },
    {
      "channel": 0,
      "note": 71,
      "start": 23.3171,
      "duration": 0.1684,
      "velocity": 99,
      "chip": "ym2612"
    },
    {
      "channel": 1,
      "note": 64,
      "start": 23.3294,
      "duration": 0.0557,
      "velocity": 99,
      "chip": "ym2612"
    },
    {
      "channel": 2,
      "note": 61,
      "start": 23.33,
      "duration": 0.0553,
      "velocity": 100,
      "chip": "ym2612"
    },
    {
      "channel": 4,
      "note": 81,
      "start": 23.3311,
      "duration": 0.0378,
      "velocity": 127,
      "chip": "ym2612"
    },
    {
      "channel": 1,
      "note": 68,
      "start": 23.4024,
      "duration": 0.1337,
      "velocity": 99,
      "chip": "ym2612"
    },
    {
      "channel": 2,
      "note": 64,
      "start": 23.4029,
      "duration": 0.1333,
      "velocity": 100,
      "chip": "ym2612"
    },
    {
      "channel": 3,
      "note": 64,
      "start": 23.4039,
      "duration": 0.0822,
      "velocity": 99,
      "chip": "ym2612"
    },
    {
      "channel": 4,
      "note": 81,
      "start": 23.4045,
      "duration": 0.0998,
      "velocity": 127,
      "chip": "ym2612"
    },
    {
      "channel": 0,
      "note": 64,
      "start": 23.5027,
      "duration": 0.0834,
      "velocity": 99,
      "chip": "ym2612"
    },
    {
      "channel": 3,
      "note": 68,
      "start": 23.5041,
      "duration": 0.1499,
      "velocity": 99,
      "chip": "ym2612"
    },
    {
      "channel": 0,
      "note": 68,
      "start": 23.6036,
      "duration": 0.1102,
      "velocity": 99,
      "chip": "ym2612"
    },
    {
      "channel": 1,
      "note": 75,
      "start": 23.6043,
      "duration": 0.0662,
      "velocity": 99,
      "chip": "ym2612"
    },
    {
      "channel": 2,
      "note": 71,
      "start": 23.6049,
      "duration": 0.0657,
      "velocity": 100,
      "chip": "ym2612"
    },
    {
      "channel": 4,
      "note": 81,
      "start": 23.6057,
      "duration": 0.0487,
      "velocity": 127,
      "chip": "ym2612"
    },
    {
      "channel": 1,
      "note": 73,
      "start": 23.7044,
      "duration": 0.0165,
      "velocity": 99,
      "chip": "ym2612"
    },
    {
      "channel": 2,
      "note": 70,
      "start": 23.705,
      "duration": 0.0161,
      "velocity": 100,
      "chip": "ym2612"
    },
    {
      "channel": 3,
      "note": 75,
      "start": 23.7057,
      "duration": 0.0088,
      "velocity": 99,
      "chip": "ym2612"
    },
    {
      "channel": 4,
      "note": 81,
      "start": 23.7062,
      "duration": 0.0134,
      "velocity": 127,
      "chip": "ym2612"
    },
    {
      "channel": 0,
      "note": 75,
      "start": 23.7184,
      "duration": 0.0087,
      "velocity": 99,
      "chip": "ym2612"
    },
    {
      "channel": 3,
      "note": 73,
      "start": 23.7194,
      "duration": 0.0322,
      "velocity": 99,
      "chip": "ym2612"
    },
    {
      "channel": 0,
      "note": 73,
      "start": 23.7311,
      "duration": 0.0535,
      "velocity": 99,
      "chip": "ym2612"
    },
    {
      "channel": 1,
      "note": 71,
      "start": 23.7317,
      "duration": 0.0531,
      "velocity": 99,
      "chip": "ym2612"
    },
    {
      "channel": 2,
      "note": 66,
      "start": 23.7324,
      "duration": 0.0526,
      "velocity": 100,
      "chip": "ym2612"
    },
    {
      "channel": 4,
      "note": 81,
      "start": 23.7343,
      "duration": 0.0176,
      "velocity": 119,
      "chip": "ym2612"
    },
    {
      "channel": 0,
      "note": 52,
      "start": 23.8032,
      "duration": 0.1932,
      "velocity": 108,
      "chip": "ym2612"
    },
    {
      "channel": 1,
      "note": 87,
      "start": 23.8052,
      "duration": 0.1734,
      "velocity": 103,
      "chip": "ym2612"
    },
    {
      "channel": 2,
      "note": 71,
      "start": 23.8073,
      "duration": 0.1668,
      "velocity": 101,
      "chip": "ym2612"
    },
    {
      "channel": 3,
      "note": 71,
      "start": 23.808,
      "duration": 0.012,
      "velocity": 99,
      "chip": "ym2612"
    },
    {
      "channel": 4,
      "note": 81,
      "start": 23.8097,
      "duration": 0.0128,
      "velocity": 127,
      "chip": "ym2612"
    },
    {
      "channel": 3,
      "note": 75,
      "start": 23.8223,
      "duration": 0.1752,
      "velocity": 99,
      "chip": "ym2612"
    },
    {
      "channel": 4,
      "note": 81,
      "start": 23.8706,
      "duration": 0.05,
      "velocity": 127,
      "chip": "ym2612"
    },
    {
      "channel": 4,
      "note": 81,
      "start": 23.9717,
      "duration": 0.0156,
      "velocity": 127,
      "chip": "ym2612"
    },
    {
      "channel": 0,
      "note": 54,
      "start": 23.9995,
      "duration": 0.1351,
      "velocity": 108,
      "chip": "ym2612"
    },
    {
      "channel": 1,
      "note": 88,
      "start": 24.0002,
      "duration": 0.1012,
      "velocity": 103,
      "chip": "ym2612"
    },
    {
      "channel": 2,
      "note": 73,
      "start": 24.0009,
      "duration": 0.0672,
      "velocity": 101,
      "chip": "ym2612"
    },
    {
      "channel": 4,
      "note": 81,
      "start": 24.0016,
      "duration": 0.0071,
      "velocity": 127,
      "chip": "ym2612"
    },
    {
      "channel": 3,
      "note": 76,
      "start": 24.0146,
      "duration": 0.0537,
      "velocity": 99,
      "chip": "ym2612"
    },
    {
      "channel": 4,
      "note": 81,
      "start": 24.0152,
      "duration": 0.0534,
      "velocity": 127,
      "chip": "ym2612"
    },
    {
      "channel": 0,
      "note": 73,
      "start": 24.17,
      "duration": 0.0653,
      "velocity": 99,
      "chip": "ym2612"
    },
    {
      "channel": 1,
      "note": 80,
      "start": 24.1719,
      "duration": 0.0637,
      "velocity": 99,
      "chip": "ym2612"
    },
    {
      "channel": 2,
      "note": 76,
      "start": 24.1739,
      "duration": 0.0622,
      "velocity": 100,
      "chip": "ym2612"
    },
    {
      "channel": 4,
      "note": 81,
      "start": 24.1746,
      "duration": 0.0451,
      "velocity": 127,
      "chip": "ym2612"
    },
    {
      "channel": 0,
      "note": 76,
      "start": 24.2691,
      "duration": 0.0242,
      "velocity": 99,
      "chip": "ym2612"
    },
    {
      "channel": 1,
      "note": 83,
      "start": 24.2698,
      "duration": 0.0175,
      "velocity": 99,
      "chip": "ym2612"
    },
    {
      "channel": 2,
      "note": 80,
      "start": 24.2705,
      "duration": 0.017,
      "velocity": 100,
      "chip": "ym2612"
    },
    {
      "channel": 3,
      "note": 80,
      "start": 24.2712,
      "duration": 0.0093,
      "velocity": 99,
      "chip": "ym2612"
    },
    {
      "channel": 4,
      "note": 81,
      "start": 24.2718,
      "duration": 0.0143,
      "velocity": 127,
      "chip": "ym2612"
    },
    {
      "channel": 3,
      "note": 83,
      "start": 24.286,
      "duration": 0.0301,
      "velocity": 99,
      "chip": "ym2612"
    },
    {
      "channel": 0,
      "note": 83,
      "start": 24.2957,
      "duration": 0.0534,
      "velocity": 99,
      "chip": "ym2612"
    },
    {
      "channel": 1,
      "note": 92,
      "start": 24.2964,
      "duration": 0.0529,
      "velocity": 99,
      "chip": "ym2612"
    },
    {
      "channel": 2,
      "note": 87,
      "start": 24.2971,
      "duration": 0.0524,
      "velocity": 100,
      "chip": "ym2612"
    },
    {
      "channel": 4,
      "note": 81,
      "start": 24.2979,
      "duration": 0.0186,
      "velocity": 127,
      "chip": "ym2612"
    },
    {
      "channel": 0,
      "note": 82,
      "start": 24.3663,
      "duration": 0.1672,
      "velocity": 99,
      "chip": "ym2612"
    },
    {
      "channel": 1,
      "note": 90,
      "start": 24.3669,
      "duration": 0.1165,
      "velocity": 99,
      "chip": "ym2612"
    },
    {
      "channel": 2,
      "note": 85,
      "start": 24.3675,
      "duration": 0.1161,
      "velocity": 100,
      "chip": "ym2612"
    },
    {
      "channel": 3,
      "note": 92,
      "start": 24.3682,
      "duration": 0.0821,
      "velocity": 99,
      "chip": "ym2612"
    },
    {
      "channel": 4,
      "note": 81,
      "start": 24.3688,
      "duration": 0.0989,
      "velocity": 127,
      "chip": "ym2612"
    },
    {
      "channel": 3,
      "note": 90,
      "start": 24.4675,
      "duration": 0.1502,
      "velocity": 99,
      "chip": "ym2612"
    },
    {
      "channel": 0,
      "note": 78,
      "start": 24.5675,
      "duration": 0.1171,
      "velocity": 99,
      "chip": "ym2612"
    },
    {
      "channel": 1,
      "note": 88,
      "start": 24.5681,
      "duration": 0.1083,
      "velocity": 99,
      "chip": "ym2612"
    },
    {
      "channel": 2,
      "note": 83,
      "start": 24.5688,
      "duration": 0.1099,
      "velocity": 100,
      "chip": "ym2612"
    },
    {
      "channel": 4,
      "note": 81,
      "start": 24.5696,
      "duration": 0.0486,
      "velocity": 127,
      "chip": "ym2612"
    },
    {
      "channel": 3,
      "note": 88,
      "start": 24.6686,
      "duration": 0.03,
      "velocity": 99,
      "chip": "ym2612"
    },
    {
      "channel": 4,
      "note": 81,
      "start": 24.6692,
      "duration": 0.01,
      "velocity": 127,
      "chip": "ym2612"
    },
    {
      "channel": 0,
      "note": 73,
      "start": 24.6903,
      "duration": 0.0581,
      "velocity": 99,
      "chip": "ym2612"
    },
    {
      "channel": 1,
      "note": 83,
      "start": 24.691,
      "duration": 0.0577,
      "velocity": 99,
      "chip": "ym2612"
    },
    {
      "channel": 2,
      "note": 76,
      "start": 24.6916,
      "duration": 0.0573,
      "velocity": 100,
      "chip": "ym2612"
    },
    {
      "channel": 4,
      "note": 81,
      "start": 24.6927,
      "duration": 0.0229,
      "velocity": 127,
      "chip": "ym2612"
    },
    {
      "channel": 0,
      "note": 76,
      "start": 24.7656,
      "duration": 0.1672,
      "velocity": 99,
      "chip": "ym2612"
    },
    {
      "channel": 1,
      "note": 83,
      "start": 24.7662,
      "duration": 0.1165,
      "velocity": 99,
      "chip": "ym2612"
    },
    {
      "channel": 2,
      "note": 80,
      "start": 24.7672,
      "duration": 0.1158,
      "velocity": 100,
      "chip": "ym2612"
    },
    {
      "channel": 3,
      "note": 83,
      "start": 24.7678,
      "duration": 0.065,
      "velocity": 99,
      "chip": "ym2612"
    },
    {
      "channel": 4,
      "note": 81,
      "start": 24.7685,
      "duration": 0.0989,
      "velocity": 127,
      "chip": "ym2612"
    },
    {
      "channel": 3,
      "note": 83,
      "start": 24.8672,
      "duration": 0.1503,
      "velocity": 99,
      "chip": "ym2612"
    },
    {
      "channel": 0,
      "note": 83,
      "start": 24.9671,
      "duration": 0.0665,
      "velocity": 99,
      "chip": "ym2612"
    },
    {
      "channel": 1,
      "note": 92,
      "start": 24.9678,
      "duration": 0.0662,
      "velocity": 99,
      "chip": "ym2612"
    },
    {
      "channel": 2,
      "note": 87,
      "start": 24.9685,
      "duration": 0.0656,
      "velocity": 100,
      "chip": "ym2612"
    },
    {
      "channel": 4,
      "note": 81,
      "start": 24.9693,
      "duration": 0.0485,
      "velocity": 127,
      "chip": "ym2612"
    },
    {
      "channel": 0,
      "note": 82,
      "start": 25.0676,
      "duration": 0.0238,
      "velocity": 99,
      "chip": "ym2612"
    },
    {
      "channel": 1,
      "note": 90,
      "start": 25.0683,
      "duration": 0.017,
      "velocity": 99,
      "chip": "ym2612"
    },
    {
      "channel": 2,
      "note": 85,
      "start": 25.0689,
      "duration": 0.0165,
      "velocity": 100,
      "chip": "ym2612"
    },
    {
      "channel": 3,
      "note": 92,
      "start": 25.0695,
      "duration": 0.0088,
      "velocity": 99,
      "chip": "ym2612"
    },
    {
      "channel": 4,
      "note": 81,
      "start": 25.0702,
      "duration": 0.0115,
      "velocity": 127,
      "chip": "ym2612"
    },
    {
      "channel": 3,
      "note": 90,
      "start": 25.0815,
      "duration": 0.0345,
      "velocity": 99,
      "chip": "ym2612"
    },
    {
      "channel": 0,
      "note": 78,
      "start": 25.0935,
      "duration": 0.0553,
      "velocity": 99,
      "chip": "ym2612"
    },
    {
      "channel": 1,
      "note": 83,
      "start": 25.0942,
      "duration": 0.0549,
      "velocity": 99,
      "chip": "ym2612"
    },
    {
      "channel": 2,
      "note": 78,
      "start": 25.0948,
      "duration": 0.0545,
      "velocity": 100,
      "chip": "ym2612"
    },
    {
      "channel": 4,
      "note": 81,
      "start": 25.0956,
      "duration": 0.0206,
      "velocity": 127,
      "chip": "ym2612"
    },
    {
      "channel": 0,
      "note": 54,
      "start": 25.1676,
      "duration": 0.1276,
      "velocity": 108,
      "chip": "ym2612"
    },
    {
      "channel": 1,
      "note": 88,
      "start": 25.1695,
      "duration": 0.0359,
      "velocity": 103,
      "chip": "ym2612"
    },
    {
      "channel": 2,
      "note": 73,
      "start": 25.1717,
      "duration": 0.0393,
      "velocity": 101,
      "chip": "ym2612"
    },
    {
      "channel": 3,
      "note": 83,
      "start": 25.1723,
      "duration": 0.009,
      "velocity": 99,
      "chip": "ym2612"
    },
    {
      "channel": 3,
      "note": 76,
      "start": 25.185,
      "duration": 0.1114,
      "velocity": 99,
      "chip": "ym2612"
    },
    {
      "channel": 0,
      "note": 54,
      "start": 25.3124,
      "duration": 29.7037,
      "velocity": 108,
      "chip": "ym2612"
    },
    {
      "channel": 1,
      "note": 90,
      "start": 25.3131,
      "duration": 29.703,
      "velocity": 103,
      "chip": "ym2612"
    },
    {
      "channel": 2,
      "note": 75,
      "start": 25.3138,
      "duration": 29.7023,
      "velocity": 101,
      "chip": "ym2612"
    }
  ]
}