{
  "track_name": "02 - Airport",
  "duration_sec": 95.223,
  "sample_rate": 44100,
  "note_count": 658,
  "unique_pitches": 30,
  "pitch_range": 63,
  "avg_note_duration": 0.2761,
  "reconstruction_stats": {
    "notes_reconstructed": 658,
    "keyon_events": 658,
    "keyoff_events": 658,
    "orphan_keyons": 0,
    "unique_pitches": 30,
    "pitch_range": 63,
    "avg_duration_sec": 0.2761
  },
  "metadata": {
    "source": "H\\Home Alone 2\\02 - Airport.vgz"
  },
  "notes": [
    {
      "channel": 0,
      "note": 51,
      "start": 0.0258,
      "duration": 0.285,
      "velocity": 92,
      "chip": "ym2612"
    },
    {
      "channel": 3,
      "note": 80,
      "start": 0.03,
      "duration": 0.3511,
      "velocity": 106,
      "chip": "ym2612"
    },
    {
      "channel": 1,
      "note": 75,
      "start": 0.0324,
      "duration": 0.3486,
      "velocity": 106,
      "chip": "ym2612"
    },
    {
      "channel": 4,
      "note": 87,
      "start": 0.04,
      "duration": 0.157,
      "velocity": 117,
      "chip": "ym2612"
    },
    {
      "channel": 4,
      "note": 82,
      "start": 0.2042,
      "duration": 0.1072,
      "velocity": 117,
      "chip": "ym2612"
    },
    {
      "channel": 0,
      "note": 46,
      "start": 0.3169,
      "duration": 0.278,
      "velocity": 92,
      "chip": "ym2612"
    },
    {
      "channel": 4,
      "note": 89,
      "start": 0.3192,
      "duration": 0.1619,
      "velocity": 117,
      "chip": "ym2612"
    },
    {
      "channel": 1,
      "note": 75,
      "start": 0.4887,
      "duration": 0.5759,
      "velocity": 106,
      "chip": "ym2612"
    },
    {
      "channel": 3,
      "note": 79,
      "start": 0.4915,
      "duration": 0.5732,
      "velocity": 106,
      "chip": "ym2612"
    },
    {
      "channel": 4,
      "note": 82,
      "start": 0.4938,
      "duration": 0.1016,
      "velocity": 117,
      "chip": "ym2612"
    },
    {
      "channel": 0,
      "note": 51,
      "start": 0.601,
      "duration": 0.2021,
      "velocity": 92,
      "chip": "ym2612"
    },
    {
      "channel": 4,
      "note": 87,
      "start": 0.6037,
      "duration": 0.1782,
      "velocity": 117,
      "chip": "ym2612"
    },
    {
      "channel": 4,
      "note": 82,
      "start": 0.7891,
      "duration": 0.0822,
      "velocity": 117,
      "chip": "ym2612"
    },
    {
      "channel": 0,
      "note": 46,
      "start": 0.8103,
      "duration": 0.1606,
      "velocity": 92,
      "chip": "ym2612"
    },
    {
      "channel": 4,
      "note": 91,
      "start": 0.875,
      "duration": 0.1662,
      "velocity": 117,
      "chip": "ym2612"
    },
    {
      "channel": 0,
      "note": 44,
      "start": 0.9771,
      "duration": 0.0636,
      "velocity": 92,
      "chip": "ym2612"
    },
    {
      "channel": 0,
      "note": 46,
      "start": 1.0485,
      "duration": 0.0161,
      "velocity": 92,
      "chip": "ym2612"
    },
    {
      "channel": 4,
      "note": 82,
      "start": 1.0508,
      "duration": 0.1053,
      "velocity": 117,
      "chip": "ym2612"
    },
    {
      "channel": 0,
      "note": 49,
      "start": 1.1617,
      "duration": 0.2787,
      "velocity": 92,
      "chip": "ym2612"
    },
    {
      "channel": 1,
      "note": 73,
      "start": 1.1645,
      "duration": 1.0587,
      "velocity": 106,
      "chip": "ym2612"
    },
    {
      "channel": 3,
      "note": 77,
      "start": 1.1671,
      "duration": 1.0562,
      "velocity": 106,
      "chip": "ym2612"
    },
    {
      "channel": 4,
      "note": 87,
      "start": 1.1693,
      "duration": 0.1736,
      "velocity": 117,
      "chip": "ym2612"
    },
    {
      "channel": 4,
      "note": 82,
      "start": 1.3505,
      "duration": 0.0901,
      "velocity": 117,
      "chip": "ym2612"
    },
    {
      "channel": 0,
      "note": 44,
      "start": 1.446,
      "duration": 0.2953,
      "velocity": 92,
      "chip": "ym2612"
    },
    {
      "channel": 4,
      "note": 89,
      "start": 1.4483,
      "duration": 0.1785,
      "velocity": 117,
      "chip": "ym2612"
    },
    {
      "channel": 4,
      "note": 82,
      "start": 1.6339,
      "duration": 0.1076,
      "velocity": 117,
      "chip": "ym2612"
    },
    {
      "channel": 0,
      "note": 49,
      "start": 1.7472,
      "duration": 0.2004,
      "velocity": 92,
      "chip": "ym2612"
    },
    {
      "channel": 4,
      "note": 87,
      "start": 1.7499,
      "duration": 0.1778,
      "velocity": 117,
      "chip": "ym2612"
    },
    {
      "channel": 4,
      "note": 82,
      "start": 1.9351,
      "duration": 0.0786,
      "velocity": 117,
      "chip": "ym2612"
    },
    {
      "channel": 0,
      "note": 44,
      "start": 1.9529,
      "duration": 0.1772,
      "velocity": 92,
      "chip": "ym2612"
    },
    {
      "channel": 4,
      "note": 91,
      "start": 2.0174,
      "duration": 0.1827,
      "velocity": 117,
      "chip": "ym2612"
    },
    {
      "channel": 0,
      "note": 43,
      "start": 2.1361,
      "duration": 0.0635,
      "velocity": 92,
      "chip": "ym2612"
    },
    {
      "channel": 0,
      "note": 44,
      "start": 2.2074,
      "duration": 0.0157,
      "velocity": 92,
      "chip": "ym2612"
    },
    {
      "channel": 4,
      "note": 82,
      "start": 2.2098,
      "duration": 0.1046,
      "velocity": 117,
      "chip": "ym2612"
    },
    {
      "channel": 0,
      "note": 51,
      "start": 2.32,
      "duration": 0.2784,
      "velocity": 92,
      "chip": "ym2612"
    },
    {
      "channel": 1,
      "note": 75,
      "start": 2.3228,
      "duration": 0.3454,
      "velocity": 106,
      "chip": "ym2612"
    },
    {
      "channel": 3,
      "note": 80,
      "start": 2.3252,
      "duration": 0.3432,
      "velocity": 106,
      "chip": "ym2612"
    },
    {
      "channel": 4,
      "note": 87,
      "start": 2.3274,
      "duration": 0.1569,
      "velocity": 117,
      "chip": "ym2612"
    },
    {
      "channel": 4,
      "note": 82,
      "start": 2.4915,
      "duration": 0.1071,
      "velocity": 117,
      "chip": "ym2612"
    },
    {
      "channel": 0,
      "note": 46,
      "start": 2.6041,
      "duration": 0.2952,
      "velocity": 92,
      "chip": "ym2612"
    },
    {
      "channel": 4,
      "note": 89,
      "start": 2.6064,
      "duration": 0.1786,
      "velocity": 117,
      "chip": "ym2612"
    },
    {
      "channel": 1,
      "note": 75,
      "start": 2.7925,
      "duration": 0.5759,
      "velocity": 106,
      "chip": "ym2612"
    },
    {
      "channel": 3,
      "note": 79,
      "start": 2.7953,
      "duration": 0.5732,
      "velocity": 106,
      "chip": "ym2612"
    },
    {
      "channel": 4,
      "note": 82,
      "start": 2.7977,
      "duration": 0.1018,
      "velocity": 117,
      "chip": "ym2612"
    },
    {
      "channel": 0,
      "note": 51,
      "start": 2.9054,
      "duration": 0.1852,
      "velocity": 92,
      "chip": "ym2612"
    },
    {
      "channel": 4,
      "note": 87,
      "start": 2.908,
      "duration": 0.1609,
      "velocity": 117,
      "chip": "ym2612"
    },
    {
      "channel": 4,
      "note": 82,
      "start": 3.0762,
      "duration": 0.0826,
      "velocity": 117,
      "chip": "ym2612"
    },
    {
      "channel": 0,
      "note": 46,
      "start": 3.098,
      "duration": 0.1771,
      "velocity": 92,
      "chip": "ym2612"
    },
    {
      "channel": 4,
      "note": 91,
      "start": 3.1625,
      "duration": 0.1829,
      "velocity": 117,
      "chip": "ym2612"
    },
    {
      "channel": 0,
      "note": 44,
      "start": 3.2813,
      "duration": 0.0639,
      "velocity": 92,
      "chip": "ym2612"
    },
    {
      "channel": 0,
      "note": 46,
      "start": 3.3527,
      "duration": 0.0157,
      "velocity": 92,
      "chip": "ym2612"
    },
    {
      "channel": 4,
      "note": 82,
      "start": 3.355,
      "duration": 0.0882,
      "velocity": 117,
      "chip": "ym2612"
    },
    {
      "channel": 0,
      "note": 49,
      "start": 3.4488,
      "duration": 0.2956,
      "velocity": 92,
      "chip": "ym2612"
    },
    {
      "channel": 1,
      "note": 80,
      "start": 3.4516,
      "duration": 0.3624,
      "velocity": 106,
      "chip": "ym2612"
    },
    {
      "channel": 3,
      "note": 73,
      "start": 3.454,
      "duration": 0.3601,
      "velocity": 106,
      "chip": "ym2612"
    },
    {
      "channel": 4,
      "note": 87,
      "start": 3.4563,
      "duration": 0.1736,
      "velocity": 117,
      "chip": "ym2612"
    },
    {
      "channel": 4,
      "note": 82,
      "start": 3.6372,
      "duration": 0.1074,
      "velocity": 117,
      "chip": "ym2612"
    },
    {
      "channel": 0,
      "note": 44,
      "start": 3.75,
      "duration": 0.278,
      "velocity": 92,
      "chip": "ym2612"
    },
    {
      "channel": 4,
      "note": 89,
      "start": 3.7524,
      "duration": 0.1785,
      "velocity": 117,
      "chip": "ym2612"
    },
    {
      "channel": 1,
      "note": 77,
      "start": 3.9383,
      "duration": 0.5549,
      "velocity": 106,
      "chip": "ym2612"
    },
    {
      "channel": 3,
      "note": 73,
      "start": 3.9412,
      "duration": 0.5522,
      "velocity": 106,
      "chip": "ym2612"
    },
    {
      "channel": 4,
      "note": 82,
      "start": 3.9434,
      "duration": 0.0852,
      "velocity": 117,
      "chip": "ym2612"
    },
    {
      "channel": 0,
      "note": 49,
      "start": 4.0341,
      "duration": 0.2676,
      "velocity": 92,
      "chip": "ym2612"
    },
    {
      "channel": 4,
      "note": 87,
      "start": 4.0364,
      "duration": 0.1789,
      "velocity": 117,
      "chip": "ym2612"
    },
    {
      "channel": 4,
      "note": 82,
      "start": 4.2226,
      "duration": 0.0794,
      "velocity": 117,
      "chip": "ym2612"
    },
    {
      "channel": 0,
      "note": 44,
      "start": 4.3053,
      "duration": 0.188,
      "velocity": 92,
      "chip": "ym2612"
    },
    {
      "channel": 4,
      "note": 91,
      "start": 4.3085,
      "duration": 0.1634,
      "velocity": 117,
      "chip": "ym2612"
    },
    {
      "channel": 4,
      "note": 82,
      "start": 4.4792,
      "duration": 0.1071,
      "velocity": 117,
      "chip": "ym2612"
    },
    {
      "channel": 0,
      "note": 51,
      "start": 4.592,
      "duration": 0.2958,
      "velocity": 92,
      "chip": "ym2612"
    },
    {
      "channel": 1,
      "note": 80,
      "start": 4.5949,
      "duration": 0.3466,
      "velocity": 106,
      "chip": "ym2612"
    },
    {
      "channel": 3,
      "note": 75,
      "start": 4.5973,
      "duration": 0.3443,
      "velocity": 106,
      "chip": "ym2612"
    },
    {
      "channel": 4,
      "note": 87,
      "start": 4.5995,
      "duration": 0.1738,
      "velocity": 117,
      "chip": "ym2612"
    },
    {
      "channel": 4,
      "note": 82,
      "start": 4.7805,
      "duration": 0.1078,
      "velocity": 117,
      "chip": "ym2612"
    },
    {
      "channel": 0,
      "note": 46,
      "start": 4.8938,
      "duration": 0.2794,
      "velocity": 92,
      "chip": "ym2612"
    },
    {
      "channel": 4,
      "note": 89,
      "start": 4.8962,
      "duration": 0.1621,
      "velocity": 117,
      "chip": "ym2612"
    },
    {
      "channel": 1,
      "note": 79,
      "start": 5.0657,
      "duration": 0.5764,
      "velocity": 106,
      "chip": "ym2612"
    },
    {
      "channel": 3,
      "note": 75,
      "start": 5.0685,
      "duration": 0.5737,
      "velocity": 106,
      "chip": "ym2612"
    },
    {
      "channel": 4,
      "note": 82,
      "start": 5.0709,
      "duration": 0.1025,
      "velocity": 117,
      "chip": "ym2612"
    },
    {
      "channel": 0,
      "note": 51,
      "start": 5.179,
      "duration": 0.2018,
      "velocity": 92,
      "chip": "ym2612"
    },
    {
      "channel": 4,
      "note": 87,
      "start": 5.1817,
      "duration": 0.1781,
      "velocity": 117,
      "chip": "ym2612"
    },
    {
      "channel": 4,
      "note": 82,
      "start": 5.3672,
      "duration": 0.0648,
      "velocity": 117,
      "chip": "ym2612"
    },
    {
      "channel": 0,
      "note": 46,
      "start": 5.388,
      "duration": 0.1606,
      "velocity": 92,
      "chip": "ym2612"
    },
    {
      "channel": 4,
      "note": 91,
      "start": 5.4357,
      "duration": 0.183,
      "velocity": 117,
      "chip": "ym2612"
    },
    {
      "channel": 0,
      "note": 44,
      "start": 5.5549,
      "duration": 0.0633,
      "velocity": 92,
      "chip": "ym2612"
    },
    {
      "channel": 0,
      "note": 46,
      "start": 5.626,
      "duration": 0.0161,
      "velocity": 92,
      "chip": "ym2612"
    },
    {
      "channel": 4,
      "note": 82,
      "start": 5.6288,
      "duration": 0.1043,
      "velocity": 117,
      "chip": "ym2612"
    },
    {
      "channel": 0,
      "note": 49,
      "start": 5.7387,
      "duration": 0.2788,
      "velocity": 92,
      "chip": "ym2612"
    },
    {
      "channel": 1,
      "note": 77,
      "start": 5.7416,
      "duration": 1.0453,
      "velocity": 106,
      "chip": "ym2612"
    },
    {
      "channel": 3,
      "note": 73,
      "start": 5.744,
      "duration": 1.0429,
      "velocity": 106,
      "chip": "ym2612"
    },
    {
      "channel": 4,
      "note": 87,
      "start": 5.7463,
      "duration": 0.1735,
      "velocity": 117,
      "chip": "ym2612"
    },
    {
      "channel": 4,
      "note": 82,
      "start": 5.9269,
      "duration": 0.0908,
      "velocity": 117,
      "chip": "ym2612"
    },
    {
      "channel": 0,
      "note": 44,
      "start": 6.0233,
      "duration": 0.2944,
      "velocity": 92,
      "chip": "ym2612"
    },
    {
      "channel": 4,
      "note": 89,
      "start": 6.026,
      "duration": 0.1781,
      "velocity": 117,
      "chip": "ym2612"
    },
    {
      "channel": 4,
      "note": 82,
      "start": 6.2112,
      "duration": 0.1071,
      "velocity": 117,
      "chip": "ym2612"
    },
    {
      "channel": 0,
      "note": 49,
      "start": 6.3237,
      "duration": 0.1856,
      "velocity": 92,
      "chip": "ym2612"
    },
    {
      "channel": 4,
      "note": 87,
      "start": 6.3263,
      "duration": 0.1614,
      "velocity": 117,
      "chip": "ym2612"
    },
    {
      "channel": 4,
      "note": 82,
      "start": 6.4951,
      "duration": 0.0824,
      "velocity": 117,
      "chip": "ym2612"
    },
    {
      "channel": 0,
      "note": 44,
      "start": 6.5164,
      "duration": 0.1777,
      "velocity": 92,
      "chip": "ym2612"
    },
    {
      "channel": 4,
      "note": 91,
      "start": 6.5812,
      "duration": 0.1828,
      "velocity": 117,
      "chip": "ym2612"
    },
    {
      "channel": 0,
      "note": 43,
      "start": 6.6999,
      "duration": 0.0639,
      "velocity": 92,
      "chip": "ym2612"
    },
    {
      "channel": 0,
      "note": 44,
      "start": 6.7712,
      "duration": 0.0156,
      "velocity": 92,
      "chip": "ym2612"
    },
    {
      "channel": 4,
      "note": 82,
      "start": 6.774,
      "duration": 0.1044,
      "velocity": 117,
      "chip": "ym2612"
    },
    {
      "channel": 0,
      "note": 51,
      "start": 6.8843,
      "duration": 0.2788,
      "velocity": 92,
      "chip": "ym2612"
    },
    {
      "channel": 1,
      "note": 75,
      "start": 6.8873,
      "duration": 0.3455,
      "velocity": 106,
      "chip": "ym2612"
    },
    {
      "channel": 3,
      "note": 80,
      "start": 6.8897,
      "duration": 0.3432,
      "velocity": 106,
      "chip": "ym2612"
    },
    {
      "channel": 4,
      "note": 87,
      "start": 6.8919,
      "duration": 0.1565,
      "velocity": 117,
      "chip": "ym2612"
    },
    {
      "channel": 4,
      "note": 82,
      "start": 7.0557,
      "duration": 0.1076,
      "velocity": 117,
      "chip": "ym2612"
    },
    {
      "channel": 0,
      "note": 46,
      "start": 7.1688,
      "duration": 0.2785,
      "velocity": 92,
      "chip": "ym2612"
    },
    {
      "channel": 4,
      "note": 89,
      "start": 7.1712,
      "duration": 0.1784,
      "velocity": 117,
      "chip": "ym2612"
    },
    {
      "channel": 1,
      "note": 79,
      "start": 7.357,
      "duration": 0.5733,
      "velocity": 106,
      "chip": "ym2612"
    },
    {
      "channel": 3,
      "note": 75,
      "start": 7.3598,
      "duration": 0.5706,
      "velocity": 106,
      "chip": "ym2612"
    },
    {
      "channel": 4,
      "note": 82,
      "start": 7.3621,
      "duration": 0.0854,
      "velocity": 117,
      "chip": "ym2612"
    },
    {
      "channel": 0,
      "note": 51,
      "start": 7.4532,
      "duration": 0.2017,
      "velocity": 92,
      "chip": "ym2612"
    },
    {
      "channel": 4,
      "note": 87,
      "start": 7.4558,
      "duration": 0.1779,
      "velocity": 117,
      "chip": "ym2612"
    },
    {
      "channel": 4,
      "note": 82,
      "start": 7.641,
      "duration": 0.082,
      "velocity": 117,
      "chip": "ym2612"
    },
    {
      "channel": 0,
      "note": 46,
      "start": 7.6621,
      "duration": 0.1772,
      "velocity": 92,
      "chip": "ym2612"
    },
    {
      "channel": 4,
      "note": 91,
      "start": 7.7266,
      "duration": 0.1831,
      "velocity": 117,
      "chip": "ym2612"
    },
    {
      "channel": 0,
      "note": 44,
      "start": 7.8454,
      "duration": 0.0638,
      "velocity": 92,
      "chip": "ym2612"
    },
    {
      "channel": 0,
      "note": 46,
      "start": 7.9169,
      "duration": 0.0133,
      "velocity": 92,
      "chip": "ym2612"
    },
    {
      "channel": 4,
      "note": 82,
      "start": 7.9193,
      "duration": 0.0881,
      "velocity": 117,
      "chip": "ym2612"
    },
    {
      "channel": 0,
      "note": 49,
      "start": 8.013,
      "duration": 0.2953,
      "velocity": 92,
      "chip": "ym2612"
    },
    {
      "channel": 1,
      "note": 80,
      "start": 8.0159,
      "duration": 0.3627,
      "velocity": 106,
      "chip": "ym2612"
    },
    {
      "channel": 3,
      "note": 73,
      "start": 8.0183,
      "duration": 0.3603,
      "velocity": 106,
      "chip": "ym2612"
    },
    {
      "channel": 4,
      "note": 87,
      "start": 8.0206,
      "duration": 0.1736,
      "velocity": 117,
      "chip": "ym2612"
    },
    {
      "channel": 4,
      "note": 82,
      "start": 8.2015,
      "duration": 0.1074,
      "velocity": 117,
      "chip": "ym2612"
    },
    {
      "channel": 0,
      "note": 44,
      "start": 8.3143,
      "duration": 0.2785,
      "velocity": 92,
      "chip": "ym2612"
    },
    {
      "channel": 4,
      "note": 89,
      "start": 8.3167,
      "duration": 0.1621,
      "velocity": 117,
      "chip": "ym2612"
    },
    {
      "channel": 1,
      "note": 77,
      "start": 8.4866,
      "duration": 0.5738,
      "velocity": 106,
      "chip": "ym2612"
    },
    {
      "channel": 3,
      "note": 73,
      "start": 8.4893,
      "duration": 0.5711,
      "velocity": 106,
      "chip": "ym2612"
    },
    {
      "channel": 4,
      "note": 82,
      "start": 8.4916,
      "duration": 0.1015,
      "velocity": 117,
      "chip": "ym2612"
    },
    {
      "channel": 0,
      "note": 49,
      "start": 8.5986,
      "duration": 0.2704,
      "velocity": 92,
      "chip": "ym2612"
    },
    {
      "channel": 4,
      "note": 87,
      "start": 8.601,
      "duration": 0.1787,
      "velocity": 117,
      "chip": "ym2612"
    },
    {
      "channel": 4,
      "note": 82,
      "start": 8.7869,
      "duration": 0.0823,
      "velocity": 117,
      "chip": "ym2612"
    },
    {
      "channel": 0,
      "note": 44,
      "start": 8.8729,
      "duration": 0.1874,
      "velocity": 92,
      "chip": "ym2612"
    },
    {
      "channel": 4,
      "note": 89,
      "start": 8.8761,
      "duration": 0.1626,
      "velocity": 117,
      "chip": "ym2612"
    },
    {
      "channel": 4,
      "note": 82,
      "start": 9.046,
      "duration": 0.1075,
      "velocity": 117,
      "chip": "ym2612"
    },
    {
      "channel": 0,
      "note": 51,
      "start": 9.159,
      "duration": 0.2791,
      "velocity": 92,
      "chip": "ym2612"
    },
    {
      "channel": 1,
      "note": 75,
      "start": 9.1619,
      "duration": 1.0592,
      "velocity": 106,
      "chip": "ym2612"
    },
    {
      "channel": 3,
      "note": 79,
      "start": 9.1644,
      "duration": 1.0568,
      "velocity": 106,
      "chip": "ym2612"
    },
    {
      "channel": 4,
      "note": 87,
      "start": 9.1667,
      "duration": 0.1739,
      "velocity": 117,
      "chip": "ym2612"
    },
    {
      "channel": 4,
      "note": 82,
      "start": 9.3478,
      "duration": 0.0906,
      "velocity": 117,
      "chip": "ym2612"
    },
    {
      "channel": 0,
      "note": 46,
      "start": 9.4439,
      "duration": 0.3647,
      "velocity": 92,
      "chip": "ym2612"
    },
    {
      "channel": 4,
      "note": 91,
      "start": 9.4463,
      "duration": 0.1785,
      "velocity": 117,
      "chip": "ym2612"
    },
    {
      "channel": 4,
      "note": 82,
      "start": 9.6321,
      "duration": 0.1073,
      "velocity": 117,
      "chip": "ym2612"
    },
    {
      "channel": 2,
      "note": 51,
      "start": 9.7451,
      "duration": 0.2664,
      "velocity": 92,
      "chip": "ym2612"
    },
    {
      "channel": 4,
      "note": 89,
      "start": 9.7478,
      "duration": 0.1781,
      "velocity": 117,
      "chip": "ym2612"
    },
    {
      "channel": 4,
      "note": 82,
      "start": 9.9336,
      "duration": 0.0776,
      "velocity": 117,
      "chip": "ym2612"
    },
    {
      "channel": 0,
      "note": 46,
      "start": 9.9505,
      "duration": 0.0606,
      "velocity": 92,
      "chip": "ym2612"
    },
    {
      "channel": 4,
      "note": 87,
      "start": 10.0151,
      "duration": 0.1828,
      "velocity": 117,
      "chip": "ym2612"
    },
    {
      "channel": 0,
      "note": 46,
      "start": 10.1336,
      "duration": 0.0638,
      "velocity": 92,
      "chip": "ym2612"
    },
    {
      "channel": 0,
      "note": 49,
      "start": 10.2054,
      "duration": 0.107,
      "velocity": 92,
      "chip": "ym2612"
    },
    {
      "channel": 4,
      "note": 82,
      "start": 10.2079,
      "duration": 0.1047,
      "velocity": 117,
      "chip": "ym2612"
    },
    {
      "channel": 0,
      "note": 51,
      "start": 10.3181,
      "duration": 0.279,
      "velocity": 92,
      "chip": "ym2612"
    },
    {
      "channel": 1,
      "note": 79,
      "start": 10.3205,
      "duration": 1.0468,
      "velocity": 106,
      "chip": "ym2612"
    },
    {
      "channel": 3,
      "note": 75,
      "start": 10.3234,
      "duration": 1.044,
      "velocity": 106,
      "chip": "ym2612"
    },
    {
      "channel": 4,
      "note": 87,
      "start": 10.3257,
      "duration": 0.1569,
      "velocity": 117,
      "chip": "ym2612"
    },
    {
      "channel": 4,
      "note": 82,
      "start": 10.4898,
      "duration": 0.1076,
      "velocity": 117,
      "chip": "ym2612"
    },
    {
      "channel": 0,
      "note": 46,
      "start": 10.6028,
      "duration": 0.2951,
      "velocity": 92,
      "chip": "ym2612"
    },
    {
      "channel": 4,
      "note": 91,
      "start": 10.6052,
      "duration": 0.1786,
      "velocity": 117,
      "chip": "ym2612"
    },
    {
      "channel": 4,
      "note": 82,
      "start": 10.7909,
      "duration": 0.1072,
      "velocity": 117,
      "chip": "ym2612"
    },
    {
      "channel": 0,
      "note": 51,
      "start": 10.9037,
      "duration": 0.1855,
      "velocity": 92,
      "chip": "ym2612"
    },
    {
      "channel": 4,
      "note": 89,
      "start": 10.9063,
      "duration": 0.1613,
      "velocity": 117,
      "chip": "ym2612"
    },
    {
      "channel": 4,
      "note": 82,
      "start": 11.0749,
      "duration": 0.0828,
      "velocity": 117,
      "chip": "ym2612"
    },
    {
      "channel": 0,
      "note": 46,
      "start": 11.0964,
      "duration": 0.0607,
      "velocity": 92,
      "chip": "ym2612"
    },
    {
      "channel": 4,
      "note": 87,
      "start": 11.1615,
      "duration": 0.183,
      "velocity": 117,
      "chip": "ym2612"
    },
    {
      "channel": 0,
      "note": 46,
      "start": 11.2805,
      "duration": 0.0637,
      "velocity": 92,
      "chip": "ym2612"
    },
    {
      "channel": 0,
      "note": 49,
      "start": 11.3516,
      "duration": 0.0897,
      "velocity": 92,
      "chip": "ym2612"
    },
    {
      "channel": 4,
      "note": 82,
      "start": 11.3543,
      "duration": 0.0876,
      "velocity": 117,
      "chip": "ym2612"
    },
    {
      "channel": 0,
      "note": 51,
      "start": 11.4474,
      "duration": 0.2956,
      "velocity": 92,
      "chip": "ym2612"
    },
    {
      "channel": 1,
      "note": 79,
      "start": 11.4503,
      "duration": 1.0473,
      "velocity": 106,
      "chip": "ym2612"
    },
    {
      "channel": 3,
      "note": 75,
      "start": 11.4528,
      "duration": 1.0449,
      "velocity": 106,
      "chip": "ym2612"
    },
    {
      "channel": 4,
      "note": 87,
      "start": 11.4551,
      "duration": 0.1736,
      "velocity": 117,
      "chip": "ym2612"
    },
    {
      "channel": 4,
      "note": 82,
      "start": 11.6358,
      "duration": 0.1075,
      "velocity": 117,
      "chip": "ym2612"
    },
    {
      "channel": 0,
      "note": 46,
      "start": 11.7488,
      "duration": 0.3484,
      "velocity": 92,
      "chip": "ym2612"
    },
    {
      "channel": 4,
      "note": 91,
      "start": 11.7511,
      "duration": 0.1786,
      "velocity": 117,
      "chip": "ym2612"
    },
    {
      "channel": 4,
      "note": 82,
      "start": 11.9369,
      "duration": 0.0908,
      "velocity": 117,
      "chip": "ym2612"
    },
    {
      "channel": 2,
      "note": 51,
      "start": 12.0334,
      "duration": 0.2712,
      "velocity": 92,
      "chip": "ym2612"
    },
    {
      "channel": 4,
      "note": 89,
      "start": 12.0361,
      "duration": 0.1784,
      "velocity": 117,
      "chip": "ym2612"
    },
    {
      "channel": 4,
      "note": 82,
      "start": 12.222,
      "duration": 0.0824,
      "velocity": 117,
      "chip": "ym2612"
    },
    {
      "channel": 0,
      "note": 46,
      "start": 12.2435,
      "duration": 0.0607,
      "velocity": 92,
      "chip": "ym2612"
    },
    {
      "channel": 4,
      "note": 87,
      "start": 12.3083,
      "duration": 0.166,
      "velocity": 117,
      "chip": "ym2612"
    },
    {
      "channel": 0,
      "note": 46,
      "start": 12.4267,
      "duration": 0.047,
      "velocity": 92,
      "chip": "ym2612"
    },
    {
      "channel": 0,
      "note": 49,
      "start": 12.4819,
      "duration": 0.1063,
      "velocity": 92,
      "chip": "ym2612"
    },
    {
      "channel": 4,
      "note": 82,
      "start": 12.4845,
      "duration": 0.1039,
      "velocity": 117,
      "chip": "ym2612"
    },
    {
      "channel": 0,
      "note": 51,
      "start": 12.5941,
      "duration": 0.2237,
      "velocity": 92,
      "chip": "ym2612"
    },
    {
      "channel": 1,
      "note": 79,
      "start": 12.597,
      "duration": 0.6795,
      "velocity": 106,
      "chip": "ym2612"
    },
    {
      "channel": 3,
      "note": 75,
      "start": 12.5995,
      "duration": 0.677,
      "velocity": 106,
      "chip": "ym2612"
    },
    {
      "channel": 4,
      "note": 87,
      "start": 12.6017,
      "duration": 0.1265,
      "velocity": 117,
      "chip": "ym2612"
    },
    {
      "channel": 4,
      "note": 82,
      "start": 12.7354,
      "duration": 0.0826,
      "velocity": 117,
      "chip": "ym2612"
    },
    {
      "channel": 0,
      "note": 46,
      "start": 12.8237,
      "duration": 0.2781,
      "velocity": 92,
      "chip": "ym2612"
    },
    {
      "channel": 4,
      "note": 91,
      "start": 12.8261,
      "duration": 0.162,
      "velocity": 117,
      "chip": "ym2612"
    },
    {
      "channel": 4,
      "note": 82,
      "start": 12.9953,
      "duration": 0.1072,
      "velocity": 117,
      "chip": "ym2612"
    },
    {
      "channel": 0,
      "note": 51,
      "start": 13.1098,
      "duration": 0.0525,
      "velocity": 92,
      "chip": "ym2612"
    },
    {
      "channel": 4,
      "note": 89,
      "start": 13.1125,
      "duration": 0.0304,
      "velocity": 117,
      "chip": "ym2612"
    },
    {
      "channel": 4,
      "note": 82,
      "start": 13.148,
      "duration": 0.0661,
      "velocity": 117,
      "chip": "ym2612"
    },
    {
      "channel": 0,
      "note": 46,
      "start": 13.169,
      "duration": 0.0449,
      "velocity": 92,
      "chip": "ym2612"
    },
    {
      "channel": 4,
      "note": 87,
      "start": 13.2213,
      "duration": 0.0327,
      "velocity": 117,
      "chip": "ym2612"
    },
    {
      "channel": 0,
      "note": 46,
      "start": 13.2405,
      "duration": 0.0134,
      "velocity": 92,
      "chip": "ym2612"
    },
    {
      "channel": 0,
      "note": 49,
      "start": 13.2609,
      "duration": 0.0335,
      "velocity": 92,
      "chip": "ym2612"
    },
    {
      "channel": 4,
      "note": 82,
      "start": 13.2636,
      "duration": 0.0312,
      "velocity": 117,
      "chip": "ym2612"
    },
    {
      "channel": 0,
      "note": 51,
      "start": 13.3017,
      "duration": 0.4622,
      "velocity": 92,
      "chip": "ym2612"
    },
    {
      "channel": 1,
      "note": 75,
      "start": 13.3047,
      "duration": 0.4597,
      "velocity": 106,
      "chip": "ym2612"
    },
    {
      "channel": 3,
      "note": 79,
      "start": 13.307,
      "duration": 0.4575,
      "velocity": 106,
      "chip": "ym2612"
    },
    {
      "channel": 4,
      "note": 87,
      "start": 13.3102,
      "duration": 0.1695,
      "velocity": 117,
      "chip": "ym2612"
    },
    {
      "channel": 4,
      "note": 89,
      "start": 13.4868,
      "duration": 0.0912,
      "velocity": 117,
      "chip": "ym2612"
    },
    {
      "channel": 4,
      "note": 91,
      "start": 13.5836,
      "duration": 0.181,
      "velocity": 117,
      "chip": "ym2612"
    },
    {
      "channel": 0,
      "note": 53,
      "start": 13.7718,
      "duration": 0.6905,
      "velocity": 92,
      "chip": "ym2612"
    },
    {
      "channel": 1,
      "note": 77,
      "start": 13.7746,
      "duration": 0.6881,
      "velocity": 106,
      "chip": "ym2612"
    },
    {
      "channel": 3,
      "note": 80,
      "start": 13.777,
      "duration": 0.6859,
      "velocity": 106,
      "chip": "ym2612"
    },
    {
      "channel": 4,
      "note": 92,
      "start": 13.7794,
      "duration": 0.2692,
      "velocity": 117,
      "chip": "ym2612"
    },
    {
      "channel": 4,
      "note": 91,
      "start": 14.0559,
      "duration": 0.1065,
      "velocity": 117,
      "chip": "ym2612"
    },
    {
      "channel": 4,
      "note": 89,
      "start": 14.1682,
      "duration": 0.1808,
      "velocity": 117,
      "chip": "ym2612"
    },
    {
      "channel": 0,
      "note": 49,
      "start": 14.4685,
      "duration": 0.4658,
      "velocity": 92,
      "chip": "ym2612"
    },
    {
      "channel": 1,
      "note": 73,
      "start": 14.4713,
      "duration": 0.4632,
      "velocity": 106,
      "chip": "ym2612"
    },
    {
      "channel": 3,
      "note": 77,
      "start": 14.4737,
      "duration": 0.4609,
      "velocity": 106,
      "chip": "ym2612"
    },
    {
      "channel": 4,
      "note": 89,
      "start": 14.476,
      "duration": 0.1571,
      "velocity": 117,
      "chip": "ym2612"
    },
    {
      "channel": 4,
      "note": 91,
      "start": 14.6404,
      "duration": 0.1074,
      "velocity": 117,
      "chip": "ym2612"
    },
    {
      "channel": 4,
      "note": 92,
      "start": 14.7534,
      "duration": 0.1813,
      "velocity": 117,
      "chip": "ym2612"
    },
    {
      "channel": 0,
      "note": 51,
      "start": 14.9418,
      "duration": 0.3657,
      "velocity": 92,
      "chip": "ym2612"
    },
    {
      "channel": 1,
      "note": 75,
      "start": 14.9443,
      "duration": 0.5676,
      "velocity": 106,
      "chip": "ym2612"
    },
    {
      "channel": 3,
      "note": 79,
      "start": 14.9472,
      "duration": 0.5647,
      "velocity": 106,
      "chip": "ym2612"
    },
    {
      "channel": 4,
      "note": 94,
      "start": 14.9495,
      "duration": 0.2693,
      "velocity": 117,
      "chip": "ym2612"
    },
    {
      "channel": 4,
      "note": 92,
      "start": 15.2268,
      "duration": 0.0813,
      "velocity": 117,
      "chip": "ym2612"
    },
    {
      "channel": 0,
      "note": 46,
      "start": 15.3115,
      "duration": 0.2807,
      "velocity": 92,
      "chip": "ym2612"
    },
    {
      "channel": 4,
      "note": 91,
      "start": 15.3149,
      "duration": 0.1796,
      "velocity": 117,
      "chip": "ym2612"
    },
    {
      "channel": 0,
      "note": 51,
      "start": 15.5979,
      "duration": 0.4656,
      "velocity": 92,
      "chip": "ym2612"
    },
    {
      "channel": 1,
      "note": 75,
      "start": 15.6007,
      "duration": 0.4632,
      "velocity": 106,
      "chip": "ym2612"
    },
    {
      "channel": 3,
      "note": 79,
      "start": 15.6031,
      "duration": 0.461,
      "velocity": 106,
      "chip": "ym2612"
    },
    {
      "channel": 4,
      "note": 87,
      "start": 15.6053,
      "duration": 0.1736,
      "velocity": 117,
      "chip": "ym2612"
    },
    {
      "channel": 4,
      "note": 89,
      "start": 15.7861,
      "duration": 0.1079,
      "velocity": 117,
      "chip": "ym2612"
    },
    {
      "channel": 4,
      "note": 91,
      "start": 15.8996,
      "duration": 0.1646,
      "velocity": 117,
      "chip": "ym2612"
    },
    {
      "channel": 0,
      "note": 53,
      "start": 16.0714,
      "duration": 0.6917,
      "velocity": 92,
      "chip": "ym2612"
    },
    {
      "channel": 1,
      "note": 77,
      "start": 16.0741,
      "duration": 0.6892,
      "velocity": 106,
      "chip": "ym2612"
    },
    {
      "channel": 3,
      "note": 80,
      "start": 16.0765,
      "duration": 0.687,
      "velocity": 106,
      "chip": "ym2612"
    },
    {
      "channel": 4,
      "note": 92,
      "start": 16.0788,
      "duration": 0.286,
      "velocity": 117,
      "chip": "ym2612"
    },
    {
      "channel": 4,
      "note": 91,
      "start": 16.3721,
      "duration": 0.107,
      "velocity": 117,
      "chip": "ym2612"
    },
    {
      "channel": 4,
      "note": 89,
      "start": 16.4847,
      "duration": 0.1646,
      "velocity": 117,
      "chip": "ym2612"
    },
    {
      "channel": 0,
      "note": 56,
      "start": 16.7695,
      "duration": 0.465,
      "velocity": 92,
      "chip": "ym2612"
    },
    {
      "channel": 1,
      "note": 80,
      "start": 16.7724,
      "duration": 0.4622,
      "velocity": 106,
      "chip": "ym2612"
    },
    {
      "channel": 3,
      "note": 84,
      "start": 16.7748,
      "duration": 0.46,
      "velocity": 106,
      "chip": "ym2612"
    },
    {
      "channel": 4,
      "note": 96,
      "start": 16.7771,
      "duration": 0.173,
      "velocity": 117,
      "chip": "ym2612"
    },
    {
      "channel": 4,
      "note": 94,
      "start": 16.9573,
      "duration": 0.0905,
      "velocity": 117,
      "chip": "ym2612"
    },
    {
      "channel": 4,
      "note": 92,
      "start": 17.0535,
      "duration": 0.1813,
      "velocity": 117,
      "chip": "ym2612"
    },
    {
      "channel": 0,
      "note": 55,
      "start": 17.2419,
      "duration": 0.4959,
      "velocity": 92,
      "chip": "ym2612"
    },
    {
      "channel": 1,
      "note": 79,
      "start": 17.2448,
      "duration": 0.6771,
      "velocity": 106,
      "chip": "ym2612"
    },
    {
      "channel": 3,
      "note": 82,
      "start": 17.2472,
      "duration": 0.6749,
      "velocity": 106,
      "chip": "ym2612"
    },
    {
      "channel": 4,
      "note": 91,
      "start": 17.2495,
      "duration": 0.2866,
      "velocity": 117,
      "chip": "ym2612"
    },
    {
      "channel": 4,
      "note": 89,
      "start": 17.5435,
      "duration": 0.0775,
      "velocity": 117,
      "chip": "ym2612"
    },
    {
      "channel": 2,
      "note": 53,
      "start": 17.6248,
      "duration": 0.2975,
      "velocity": 92,
      "chip": "ym2612"
    },
    {
      "channel": 4,
      "note": 87,
      "start": 17.6282,
      "duration": 0.1794,
      "velocity": 117,
      "chip": "ym2612"
    },
    {
      "channel": 0,
      "note": 51,
      "start": 17.9277,
      "duration": 0.4659,
      "velocity": 92,
      "chip": "ym2612"
    },
    {
      "channel": 1,
      "note": 75,
      "start": 17.9305,
      "duration": 0.4632,
      "velocity": 106,
      "chip": "ym2612"
    },
    {
      "channel": 3,
      "note": 79,
      "start": 17.9329,
      "duration": 0.4609,
      "velocity": 106,
      "chip": "ym2612"
    },
    {
      "channel": 4,
      "note": 87,
      "start": 17.9352,
      "duration": 0.1567,
      "velocity": 117,
      "chip": "ym2612"
    },
    {
      "channel": 4,
      "note": 89,
      "start": 18.0991,
      "duration": 0.1077,
      "velocity": 117,
      "chip": "ym2612"
    },
    {
      "channel": 4,
      "note": 91,
      "start": 18.2124,
      "duration": 0.1815,
      "velocity": 117,
      "chip": "ym2612"
    },
    {
      "channel": 0,
      "note": 53,
      "start": 18.4014,
      "duration": 0.6753,
      "velocity": 92,
      "chip": "ym2612"
    },
    {
      "channel": 1,
      "note": 77,
      "start": 18.4042,
      "duration": 0.673,
      "velocity": 106,
      "chip": "ym2612"
    },
    {
      "channel": 3,
      "note": 80,
      "start": 18.4066,
      "duration": 0.6707,
      "velocity": 106,
      "chip": "ym2612"
    },
    {
      "channel": 4,
      "note": 92,
      "start": 18.409,
      "duration": 0.2694,
      "velocity": 117,
      "chip": "ym2612"
    },
    {
      "channel": 4,
      "note": 91,
      "start": 18.6857,
      "duration": 0.1071,
      "velocity": 117,
      "chip": "ym2612"
    },
    {
      "channel": 4,
      "note": 89,
      "start": 18.7985,
      "duration": 0.1811,
      "velocity": 117,
      "chip": "ym2612"
    },
    {
      "channel": 0,
      "note": 49,
      "start": 19.0829,
      "duration": 0.4813,
      "velocity": 92,
      "chip": "ym2612"
    },
    {
      "channel": 1,
      "note": 73,
      "start": 19.0859,
      "duration": 0.4788,
      "velocity": 106,
      "chip": "ym2612"
    },
    {
      "channel": 3,
      "note": 77,
      "start": 19.0883,
      "duration": 0.4766,
      "velocity": 106,
      "chip": "ym2612"
    },
    {
      "channel": 4,
      "note": 89,
      "start": 19.0906,
      "duration": 0.1735,
      "velocity": 117,
      "chip": "ym2612"
    },
    {
      "channel": 4,
      "note": 91,
      "start": 19.2712,
      "duration": 0.1069,
      "velocity": 117,
      "chip": "ym2612"
    },
    {
      "channel": 4,
      "note": 92,
      "start": 19.3838,
      "duration": 0.1812,
      "velocity": 117,
      "chip": "ym2612"
    },
    {
      "channel": 0,
      "note": 51,
      "start": 19.5721,
      "duration": 0.3678,
      "velocity": 92,
      "chip": "ym2612"
    },
    {
      "channel": 1,
      "note": 75,
      "start": 19.5746,
      "duration": 0.5668,
      "velocity": 106,
      "chip": "ym2612"
    },
    {
      "channel": 3,
      "note": 79,
      "start": 19.5774,
      "duration": 0.5642,
      "velocity": 106,
      "chip": "ym2612"
    },
    {
      "channel": 4,
      "note": 94,
      "start": 19.5798,
      "duration": 0.2706,
      "velocity": 117,
      "chip": "ym2612"
    },
    {
      "channel": 4,
      "note": 92,
      "start": 19.8578,
      "duration": 0.0823,
      "velocity": 117,
      "chip": "ym2612"
    },
    {
      "channel": 0,
      "note": 46,
      "start": 19.9436,
      "duration": 0.3141,
      "velocity": 92,
      "chip": "ym2612"
    },
    {
      "channel": 4,
      "note": 91,
      "start": 19.947,
      "duration": 0.1272,
      "velocity": 117,
      "chip": "ym2612"
    },
    {
      "channel": 0,
      "note": 51,
      "start": 20.2638,
      "duration": 0.465,
      "velocity": 92,
      "chip": "ym2612"
    },
    {
      "channel": 1,
      "note": 75,
      "start": 20.2666,
      "duration": 0.4626,
      "velocity": 106,
      "chip": "ym2612"
    },
    {
      "channel": 3,
      "note": 79,
      "start": 20.2689,
      "duration": 0.4604,
      "velocity": 106,
      "chip": "ym2612"
    },
    {
      "channel": 4,
      "note": 87,
      "start": 20.2712,
      "duration": 0.1738,
      "velocity": 117,
      "chip": "ym2612"
    },
    {
      "channel": 4,
      "note": 89,
      "start": 20.4521,
      "duration": 0.1073,
      "velocity": 117,
      "chip": "ym2612"
    },
    {
      "channel": 4,
      "note": 91,
      "start": 20.565,
      "duration": 0.1644,
      "velocity": 117,
      "chip": "ym2612"
    },
    {
      "channel": 0,
      "note": 53,
      "start": 20.7366,
      "duration": 0.6912,
      "velocity": 92,
      "chip": "ym2612"
    },
    {
      "channel": 1,
      "note": 77,
      "start": 20.7394,
      "duration": 0.6889,
      "velocity": 106,
      "chip": "ym2612"
    },
    {
      "channel": 3,
      "note": 80,
      "start": 20.7418,
      "duration": 0.6866,
      "velocity": 106,
      "chip": "ym2612"
    },
    {
      "channel": 4,
      "note": 92,
      "start": 20.7442,
      "duration": 0.2862,
      "velocity": 117,
      "chip": "ym2612"
    },
    {
      "channel": 4,
      "note": 91,
      "start": 21.0377,
      "duration": 0.0903,
      "velocity": 117,
      "chip": "ym2612"
    },
    {
      "channel": 4,
      "note": 89,
      "start": 21.1337,
      "duration": 0.1809,
      "velocity": 117,
      "chip": "ym2612"
    },
    {
      "channel": 0,
      "note": 56,
      "start": 21.434,
      "duration": 0.4653,
      "velocity": 92,
      "chip": "ym2612"
    },
    {
      "channel": 1,
      "note": 80,
      "start": 21.4368,
      "duration": 0.463,
      "velocity": 106,
      "chip": "ym2612"
    },
    {
      "channel": 3,
      "note": 84,
      "start": 21.4391,
      "duration": 0.4608,
      "velocity": 106,
      "chip": "ym2612"
    },
    {
      "channel": 4,
      "note": 96,
      "start": 21.4415,
      "duration": 0.1738,
      "velocity": 117,
      "chip": "ym2612"
    },
    {
      "channel": 4,
      "note": 94,
      "start": 21.6224,
      "duration": 0.0908,
      "velocity": 117,
      "chip": "ym2612"
    },
    {
      "channel": 4,
      "note": 92,
      "start": 21.7189,
      "duration": 0.1811,
      "velocity": 117,
      "chip": "ym2612"
    },
    {
      "channel": 0,
      "note": 55,
      "start": 21.9071,
      "duration": 0.3672,
      "velocity": 92,
      "chip": "ym2612"
    },
    {
      "channel": 1,
      "note": 79,
      "start": 21.9099,
      "duration": 0.3646,
      "velocity": 106,
      "chip": "ym2612"
    },
    {
      "channel": 3,
      "note": 82,
      "start": 21.9123,
      "duration": 0.3623,
      "velocity": 106,
      "chip": "ym2612"
    },
    {
      "channel": 4,
      "note": 91,
      "start": 21.9147,
      "duration": 0.2702,
      "velocity": 117,
      "chip": "ym2612"
    },
    {
      "channel": 4,
      "note": 89,
      "start": 22.1927,
      "duration": 0.0821,
      "velocity": 117,
      "chip": "ym2612"
    },
    {
      "channel": 0,
      "note": 53,
      "start": 22.2782,
      "duration": 0.2019,
      "velocity": 92,
      "chip": "ym2612"
    },
    {
      "channel": 1,
      "note": 77,
      "start": 22.2815,
      "duration": 0.2934,
      "velocity": 106,
      "chip": "ym2612"
    },
    {
      "channel": 3,
      "note": 80,
      "start": 22.2849,
      "duration": 0.2901,
      "velocity": 106,
      "chip": "ym2612"
    },
    {
      "channel": 4,
      "note": 87,
      "start": 22.2882,
      "duration": 0.1725,
      "velocity": 117,
      "chip": "ym2612"
    },
    {
      "channel": 0,
      "note": 49,
      "start": 22.5805,
      "duration": 0.5373,
      "velocity": 92,
      "chip": "ym2612"
    },
    {
      "channel": 1,
      "note": 73,
      "start": 22.5833,
      "duration": 0.5346,
      "velocity": 106,
      "chip": "ym2612"
    },
    {
      "channel": 3,
      "note": 77,
      "start": 22.5857,
      "duration": 0.5324,
      "velocity": 106,
      "chip": "ym2612"
    },
    {
      "channel": 4,
      "note": 85,
      "start": 22.5891,
      "duration": 0.2433,
      "velocity": 117,
      "chip": "ym2612"
    },
    {
      "channel": 4,
      "note": 87,
      "start": 22.8369,
      "duration": 0.2813,
      "velocity": 117,
      "chip": "ym2612"
    },
    {
      "channel": 0,
      "note": 53,
      "start": 23.1241,
      "duration": 0.5532,
      "velocity": 92,
      "chip": "ym2612"
    },
    {
      "channel": 1,
      "note": 80,
      "start": 23.1266,
      "duration": 0.5509,
      "velocity": 106,
      "chip": "ym2612"
    },
    {
      "channel": 3,
      "note": 77,
      "start": 23.1294,
      "duration": 0.5482,
      "velocity": 106,
      "chip": "ym2612"
    },
    {
      "channel": 4,
      "note": 89,
      "start": 23.1318,
      "duration": 0.2608,
      "velocity": 117,
      "chip": "ym2612"
    },
    {
      "channel": 4,
      "note": 91,
      "start": 23.3975,
      "duration": 0.2802,
      "velocity": 117,
      "chip": "ym2612"
    },
    {
      "channel": 0,
      "note": 56,
      "start": 23.6834,
      "duration": 0.5068,
      "velocity": 92,
      "chip": "ym2612"
    },
    {
      "channel": 1,
      "note": 85,
      "start": 23.6858,
      "duration": 0.5045,
      "velocity": 106,
      "chip": "ym2612"
    },
    {
      "channel": 3,
      "note": 80,
      "start": 23.6885,
      "duration": 0.5018,
      "velocity": 106,
      "chip": "ym2612"
    },
    {
      "channel": 4,
      "note": 92,
      "start": 23.6909,
      "duration": 0.2141,
      "velocity": 117,
      "chip": "ym2612"
    },
    {
      "channel": 4,
      "note": 94,
      "start": 23.9095,
      "duration": 0.281,
      "velocity": 117,
      "chip": "ym2612"
    },
    {
      "channel": 0,
      "note": 61,
      "start": 24.1963,
      "duration": 0.0642,
      "velocity": 92,
      "chip": "ym2612"
    },
    {
      "channel": 1,
      "note": 89,
      "start": 24.1991,
      "duration": 0.3367,
      "velocity": 106,
      "chip": "ym2612"
    },
    {
      "channel": 3,
      "note": 85,
      "start": 24.2016,
      "duration": 0.3342,
      "velocity": 106,
      "chip": "ym2612"
    },
    {
      "channel": 4,
      "note": 96,
      "start": 24.2041,
      "duration": 0.1692,
      "velocity": 117,
      "chip": "ym2612"
    },
    {
      "channel": 0,
      "note": 60,
      "start": 24.2661,
      "duration": 0.0644,
      "velocity": 92,
      "chip": "ym2612"
    },
    {
      "channel": 0,
      "note": 58,
      "start": 24.3377,
      "duration": 0.015,
      "velocity": 92,
      "chip": "ym2612"
    },
    {
      "channel": 0,
      "note": 56,
      "start": 24.3578,
      "duration": 0.0151,
      "velocity": 92,
      "chip": "ym2612"
    },
    {
      "channel": 0,
      "note": 55,
      "start": 24.3795,
      "duration": 0.0448,
      "velocity": 92,
      "chip": "ym2612"
    },
    {
      "channel": 4,
      "note": 97,
      "start": 24.3825,
      "duration": 0.1534,
      "velocity": 117,
      "chip": "ym2612"
    },
    {
      "channel": 0,
      "note": 53,
      "start": 24.4302,
      "duration": 0.0641,
      "velocity": 92,
      "chip": "ym2612"
    },
    {
      "channel": 0,
      "note": 51,
      "start": 24.5015,
      "duration": 0.0148,
      "velocity": 92,
      "chip": "ym2612"
    },
    {
      "channel": 0,
      "note": 46,
      "start": 24.5214,
      "duration": 0.0144,
      "velocity": 92,
      "chip": "ym2612"
    },
    {
      "channel": 0,
      "note": 51,
      "start": 24.541,
      "duration": 0.2778,
      "velocity": 92,
      "chip": "ym2612"
    },
    {
      "channel": 1,
      "note": 80,
      "start": 24.544,
      "duration": 0.3449,
      "velocity": 106,
      "chip": "ym2612"
    },
    {
      "channel": 3,
      "note": 75,
      "start": 24.5463,
      "duration": 0.3427,
      "velocity": 106,
      "chip": "ym2612"
    },
    {
      "channel": 0,
      "note": 46,
      "start": 24.8245,
      "duration": 0.2963,
      "velocity": 92,
      "chip": "ym2612"
    },
    {
      "channel": 1,
      "note": 75,
      "start": 25.0135,
      "duration": 0.5895,
      "velocity": 106,
      "chip": "ym2612"
    },
    {
      "channel": 3,
      "note": 79,
      "start": 25.0163,
      "duration": 0.5868,
      "velocity": 106,
      "chip": "ym2612"
    },
    {
      "channel": 0,
      "note": 51,
      "start": 25.1266,
      "duration": 0.1994,
      "velocity": 92,
      "chip": "ym2612"
    },
    {
      "channel": 0,
      "note": 46,
      "start": 25.3326,
      "duration": 0.1779,
      "velocity": 92,
      "chip": "ym2612"
    },
    {
      "channel": 0,
      "note": 44,
      "start": 25.5163,
      "duration": 0.0641,
      "velocity": 92,
      "chip": "ym2612"
    },
    {
      "channel": 0,
      "note": 46,
      "start": 25.5879,
      "duration": 0.0151,
      "velocity": 92,
      "chip": "ym2612"
    },
    {
      "channel": 0,
      "note": 49,
      "start": 25.7021,
      "duration": 0.2802,
      "velocity": 92,
      "chip": "ym2612"
    },
    {
      "channel": 1,
      "note": 73,
      "start": 25.7051,
      "duration": 1.0454,
      "velocity": 106,
      "chip": "ym2612"
    },
    {
      "channel": 3,
      "note": 77,
      "start": 25.7076,
      "duration": 1.043,
      "velocity": 106,
      "chip": "ym2612"
    },
    {
      "channel": 0,
      "note": 44,
      "start": 25.9879,
      "duration": 0.2963,
      "velocity": 92,
      "chip": "ym2612"
    },
    {
      "channel": 0,
      "note": 49,
      "start": 26.2899,
      "duration": 0.1854,
      "velocity": 92,
      "chip": "ym2612"
    },
    {
      "channel": 0,
      "note": 44,
      "start": 26.4806,
      "duration": 0.1778,
      "velocity": 92,
      "chip": "ym2612"
    },
    {
      "channel": 0,
      "note": 43,
      "start": 26.6643,
      "duration": 0.0644,
      "velocity": 92,
      "chip": "ym2612"
    },
    {
      "channel": 0,
      "note": 44,
      "start": 26.7362,
      "duration": 0.0142,
      "velocity": 92,
      "chip": "ym2612"
    },
    {
      "channel": 0,
      "note": 51,
      "start": 26.8327,
      "duration": 0.2971,
      "velocity": 92,
      "chip": "ym2612"
    },
    {
      "channel": 1,
      "note": 75,
      "start": 26.8356,
      "duration": 0.3641,
      "velocity": 106,
      "chip": "ym2612"
    },
    {
      "channel": 3,
      "note": 80,
      "start": 26.838,
      "duration": 0.3618,
      "velocity": 106,
      "chip": "ym2612"
    },
    {
      "channel": 0,
      "note": 46,
      "start": 27.1354,
      "duration": 0.2796,
      "velocity": 92,
      "chip": "ym2612"
    },
    {
      "channel": 1,
      "note": 75,
      "start": 27.3238,
      "duration": 0.5581,
      "velocity": 106,
      "chip": "ym2612"
    },
    {
      "channel": 3,
      "note": 79,
      "start": 27.3266,
      "duration": 0.5554,
      "velocity": 106,
      "chip": "ym2612"
    },
    {
      "channel": 0,
      "note": 51,
      "start": 27.4208,
      "duration": 0.2016,
      "velocity": 92,
      "chip": "ym2612"
    },
    {
      "channel": 0,
      "note": 46,
      "start": 27.6285,
      "duration": 0.1781,
      "velocity": 92,
      "chip": "ym2612"
    },
    {
      "channel": 0,
      "note": 44,
      "start": 27.8127,
      "duration": 0.0473,
      "velocity": 92,
      "chip": "ym2612"
    },
    {
      "channel": 0,
      "note": 46,
      "start": 27.8673,
      "duration": 0.0146,
      "velocity": 92,
      "chip": "ym2612"
    },
    {
      "channel": 0,
      "note": 49,
      "start": 27.9807,
      "duration": 0.2962,
      "velocity": 92,
      "chip": "ym2612"
    },
    {
      "channel": 1,
      "note": 80,
      "start": 27.9836,
      "duration": 0.3465,
      "velocity": 106,
      "chip": "ym2612"
    },
    {
      "channel": 3,
      "note": 73,
      "start": 27.986,
      "duration": 0.3442,
      "velocity": 106,
      "chip": "ym2612"
    },
    {
      "channel": 0,
      "note": 44,
      "start": 28.2826,
      "duration": 0.2794,
      "velocity": 92,
      "chip": "ym2612"
    },
    {
      "channel": 1,
      "note": 77,
      "start": 28.4544,
      "duration": 0.5698,
      "velocity": 106,
      "chip": "ym2612"
    },
    {
      "channel": 3,
      "note": 73,
      "start": 28.4571,
      "duration": 0.5671,
      "velocity": 106,
      "chip": "ym2612"
    },
    {
      "channel": 0,
      "note": 49,
      "start": 28.5676,
      "duration": 0.2516,
      "velocity": 92,
      "chip": "ym2612"
    },
    {
      "channel": 0,
      "note": 44,
      "start": 28.8228,
      "duration": 0.2014,
      "velocity": 92,
      "chip": "ym2612"
    },
    {
      "channel": 0,
      "note": 51,
      "start": 29.1241,
      "duration": 0.2799,
      "velocity": 92,
      "chip": "ym2612"
    },
    {
      "channel": 1,
      "note": 80,
      "start": 29.1266,
      "duration": 0.3473,
      "velocity": 106,
      "chip": "ym2612"
    },
    {
      "channel": 3,
      "note": 75,
      "start": 29.1295,
      "duration": 0.3445,
      "velocity": 106,
      "chip": "ym2612"
    },
    {
      "channel": 0,
      "note": 46,
      "start": 29.4097,
      "duration": 0.2962,
      "velocity": 92,
      "chip": "ym2612"
    },
    {
      "channel": 1,
      "note": 79,
      "start": 29.598,
      "duration": 0.5737,
      "velocity": 106,
      "chip": "ym2612"
    },
    {
      "channel": 3,
      "note": 75,
      "start": 29.6008,
      "duration": 0.571,
      "velocity": 106,
      "chip": "ym2612"
    },
    {
      "channel": 0,
      "note": 51,
      "start": 29.7115,
      "duration": 0.1844,
      "velocity": 92,
      "chip": "ym2612"
    },
    {
      "channel": 0,
      "note": 46,
      "start": 29.9019,
      "duration": 0.178,
      "velocity": 92,
      "chip": "ym2612"
    },
    {
      "channel": 0,
      "note": 44,
      "start": 30.0858,
      "duration": 0.0641,
      "velocity": 92,
      "chip": "ym2612"
    },
    {
      "channel": 0,
      "note": 46,
      "start": 30.1571,
      "duration": 0.0146,
      "velocity": 92,
      "chip": "ym2612"
    },
    {
      "channel": 0,
      "note": 49,
      "start": 30.2705,
      "duration": 0.2794,
      "velocity": 92,
      "chip": "ym2612"
    },
    {
      "channel": 1,
      "note": 77,
      "start": 30.2734,
      "duration": 1.0419,
      "velocity": 106,
      "chip": "ym2612"
    },
    {
      "channel": 3,
      "note": 73,
      "start": 30.2758,
      "duration": 1.0395,
      "velocity": 106,
      "chip": "ym2612"
    },
    {
      "channel": 0,
      "note": 44,
      "start": 30.556,
      "duration": 0.2783,
      "velocity": 92,
      "chip": "ym2612"
    },
    {
      "channel": 0,
      "note": 49,
      "start": 30.84,
      "duration": 0.202,
      "velocity": 92,
      "chip": "ym2612"
    },
    {
      "channel": 0,
      "note": 44,
      "start": 31.0476,
      "duration": 0.1781,
      "velocity": 92,
      "chip": "ym2612"
    },
    {
      "channel": 0,
      "note": 43,
      "start": 31.2317,
      "duration": 0.064,
      "velocity": 92,
      "chip": "ym2612"
    },
    {
      "channel": 0,
      "note": 44,
      "start": 31.3029,
      "duration": 0.0123,
      "velocity": 92,
      "chip": "ym2612"
    },
    {
      "channel": 0,
      "note": 51,
      "start": 31.3995,
      "duration": 0.297,
      "velocity": 92,
      "chip": "ym2612"
    },
    {
      "channel": 1,
      "note": 75,
      "start": 31.4023,
      "duration": 0.3644,
      "velocity": 106,
      "chip": "ym2612"
    },
    {
      "channel": 3,
      "note": 80,
      "start": 31.4047,
      "duration": 0.3622,
      "velocity": 106,
      "chip": "ym2612"
    },
    {
      "channel": 0,
      "note": 46,
      "start": 31.7022,
      "duration": 0.2801,
      "velocity": 92,
      "chip": "ym2612"
    },
    {
      "channel": 1,
      "note": 79,
      "start": 31.8742,
      "duration": 0.5751,
      "velocity": 106,
      "chip": "ym2612"
    },
    {
      "channel": 3,
      "note": 75,
      "start": 31.877,
      "duration": 0.5723,
      "velocity": 106,
      "chip": "ym2612"
    },
    {
      "channel": 0,
      "note": 51,
      "start": 31.988,
      "duration": 0.2017,
      "velocity": 92,
      "chip": "ym2612"
    },
    {
      "channel": 0,
      "note": 46,
      "start": 32.1951,
      "duration": 0.1616,
      "velocity": 92,
      "chip": "ym2612"
    },
    {
      "channel": 0,
      "note": 44,
      "start": 32.3626,
      "duration": 0.0643,
      "velocity": 92,
      "chip": "ym2612"
    },
    {
      "channel": 0,
      "note": 46,
      "start": 32.4343,
      "duration": 0.0149,
      "velocity": 92,
      "chip": "ym2612"
    },
    {
      "channel": 0,
      "note": 49,
      "start": 32.5478,
      "duration": 0.2805,
      "velocity": 92,
      "chip": "ym2612"
    },
    {
      "channel": 1,
      "note": 80,
      "start": 32.5505,
      "duration": 0.3475,
      "velocity": 106,
      "chip": "ym2612"
    },
    {
      "channel": 3,
      "note": 73,
      "start": 32.553,
      "duration": 0.3451,
      "velocity": 106,
      "chip": "ym2612"
    },
    {
      "channel": 0,
      "note": 44,
      "start": 32.8339,
      "duration": 0.2966,
      "velocity": 92,
      "chip": "ym2612"
    },
    {
      "channel": 1,
      "note": 77,
      "start": 33.0222,
      "duration": 0.5881,
      "velocity": 106,
      "chip": "ym2612"
    },
    {
      "channel": 3,
      "note": 73,
      "start": 33.025,
      "duration": 0.5854,
      "velocity": 106,
      "chip": "ym2612"
    },
    {
      "channel": 0,
      "note": 49,
      "start": 33.1362,
      "duration": 0.2674,
      "velocity": 92,
      "chip": "ym2612"
    },
    {
      "channel": 0,
      "note": 44,
      "start": 33.4071,
      "duration": 0.2031,
      "velocity": 92,
      "chip": "ym2612"
    },
    {
      "channel": 0,
      "note": 51,
      "start": 33.7109,
      "duration": 0.2802,
      "velocity": 92,
      "chip": "ym2612"
    },
    {
      "channel": 1,
      "note": 75,
      "start": 33.7138,
      "duration": 1.0468,
      "velocity": 106,
      "chip": "ym2612"
    },
    {
      "channel": 3,
      "note": 79,
      "start": 33.7162,
      "duration": 1.0444,
      "velocity": 106,
      "chip": "ym2612"
    },
    {
      "channel": 0,
      "note": 46,
      "start": 33.9968,
      "duration": 0.3503,
      "velocity": 92,
      "chip": "ym2612"
    },
    {
      "channel": 2,
      "note": 51,
      "start": 34.2993,
      "duration": 0.2526,
      "velocity": 92,
      "chip": "ym2612"
    },
    {
      "channel": 0,
      "note": 46,
      "start": 34.4903,
      "duration": 0.0613,
      "velocity": 92,
      "chip": "ym2612"
    },
    {
      "channel": 0,
      "note": 46,
      "start": 34.6742,
      "duration": 0.0641,
      "velocity": 92,
      "chip": "ym2612"
    },
    {
      "channel": 0,
      "note": 49,
      "start": 34.7462,
      "duration": 0.0905,
      "velocity": 92,
      "chip": "ym2612"
    },
    {
      "channel": 0,
      "note": 51,
      "start": 34.8423,
      "duration": 0.2966,
      "velocity": 92,
      "chip": "ym2612"
    },
    {
      "channel": 1,
      "note": 79,
      "start": 34.8448,
      "duration": 1.0462,
      "velocity": 106,
      "chip": "ym2612"
    },
    {
      "channel": 3,
      "note": 75,
      "start": 34.8476,
      "duration": 1.0434,
      "velocity": 106,
      "chip": "ym2612"
    },
    {
      "channel": 0,
      "note": 46,
      "start": 35.1446,
      "duration": 0.2796,
      "velocity": 92,
      "chip": "ym2612"
    },
    {
      "channel": 0,
      "note": 51,
      "start": 35.4298,
      "duration": 0.2016,
      "velocity": 92,
      "chip": "ym2612"
    },
    {
      "channel": 0,
      "note": 46,
      "start": 35.6374,
      "duration": 0.0611,
      "velocity": 92,
      "chip": "ym2612"
    },
    {
      "channel": 0,
      "note": 46,
      "start": 35.821,
      "duration": 0.0478,
      "velocity": 92,
      "chip": "ym2612"
    },
    {
      "channel": 0,
      "note": 49,
      "start": 35.8763,
      "duration": 0.1078,
      "velocity": 92,
      "chip": "ym2612"
    },
    {
      "channel": 0,
      "note": 51,
      "start": 35.9902,
      "duration": 0.249,
      "velocity": 92,
      "chip": "ym2612"
    },
    {
      "channel": 1,
      "note": 79,
      "start": 35.993,
      "duration": 0.8823,
      "velocity": 106,
      "chip": "ym2612"
    },
    {
      "channel": 3,
      "note": 75,
      "start": 35.9955,
      "duration": 0.8799,
      "velocity": 106,
      "chip": "ym2612"
    },
    {
      "channel": 0,
      "note": 46,
      "start": 36.2451,
      "duration": 0.3001,
      "velocity": 92,
      "chip": "ym2612"
    },
    {
      "channel": 2,
      "note": 51,
      "start": 36.4808,
      "duration": 0.2332,
      "velocity": 92,
      "chip": "ym2612"
    },
    {
      "channel": 0,
      "note": 46,
      "start": 36.6381,
      "duration": 0.0756,
      "velocity": 92,
      "chip": "ym2612"
    },
    {
      "channel": 0,
      "note": 46,
      "start": 36.7895,
      "duration": 0.0639,
      "velocity": 92,
      "chip": "ym2612"
    },
    {
      "channel": 0,
      "note": 49,
      "start": 36.861,
      "duration": 0.1071,
      "velocity": 92,
      "chip": "ym2612"
    },
    {
      "channel": 0,
      "note": 51,
      "start": 36.974,
      "duration": 0.2323,
      "velocity": 92,
      "chip": "ym2612"
    },
    {
      "channel": 1,
      "note": 79,
      "start": 36.9768,
      "duration": 0.733,
      "velocity": 106,
      "chip": "ym2612"
    },
    {
      "channel": 3,
      "note": 75,
      "start": 36.9793,
      "duration": 0.7305,
      "velocity": 106,
      "chip": "ym2612"
    },
    {
      "channel": 0,
      "note": 46,
      "start": 37.2122,
      "duration": 0.2489,
      "velocity": 92,
      "chip": "ym2612"
    },
    {
      "channel": 0,
      "note": 51,
      "start": 37.4684,
      "duration": 0.1117,
      "velocity": 92,
      "chip": "ym2612"
    },
    {
      "channel": 0,
      "note": 46,
      "start": 37.588,
      "duration": 0.0141,
      "velocity": 92,
      "chip": "ym2612"
    },
    {
      "channel": 0,
      "note": 46,
      "start": 37.6258,
      "duration": 0.062,
      "velocity": 92,
      "chip": "ym2612"
    },
    {
      "channel": 0,
      "note": 49,
      "start": 37.6952,
      "duration": 0.0322,
      "velocity": 92,
      "chip": "ym2612"
    },
    {
      "channel": 0,
      "note": 51,
      "start": 37.7339,
      "duration": 0.2761,
      "velocity": 92,
      "chip": "ym2612"
    },
    {
      "channel": 1,
      "note": 79,
      "start": 37.7368,
      "duration": 0.1784,
      "velocity": 106,
      "chip": "ym2612"
    },
    {
      "channel": 3,
      "note": 75,
      "start": 37.7391,
      "duration": 0.1762,
      "velocity": 106,
      "chip": "ym2612"
    },
    {
      "channel": 0,
      "note": 46,
      "start": 38.0156,
      "duration": 0.2795,
      "velocity": 92,
      "chip": "ym2612"
    },
    {
      "channel": 1,
      "note": 80,
      "start": 38.018,
      "duration": 0.1989,
      "velocity": 106,
      "chip": "ym2612"
    },
    {
      "channel": 3,
      "note": 77,
      "start": 38.0209,
      "duration": 0.1961,
      "velocity": 106,
      "chip": "ym2612"
    },
    {
      "channel": 0,
      "note": 51,
      "start": 38.3008,
      "duration": 0.2962,
      "velocity": 92,
      "chip": "ym2612"
    },
    {
      "channel": 1,
      "note": 79,
      "start": 38.3032,
      "duration": 0.1991,
      "velocity": 106,
      "chip": "ym2612"
    },
    {
      "channel": 3,
      "note": 75,
      "start": 38.3059,
      "duration": 0.1964,
      "velocity": 106,
      "chip": "ym2612"
    },
    {
      "channel": 0,
      "note": 46,
      "start": 38.6028,
      "duration": 0.2799,
      "velocity": 92,
      "chip": "ym2612"
    },
    {
      "channel": 1,
      "note": 77,
      "start": 38.6052,
      "duration": 0.1969,
      "velocity": 106,
      "chip": "ym2612"
    },
    {
      "channel": 3,
      "note": 80,
      "start": 38.6079,
      "duration": 0.1942,
      "velocity": 106,
      "chip": "ym2612"
    },
    {
      "channel": 0,
      "note": 51,
      "start": 38.8883,
      "duration": 0.2967,
      "velocity": 92,
      "chip": "ym2612"
    },
    {
      "channel": 1,
      "note": 82,
      "start": 38.8906,
      "duration": 0.1995,
      "velocity": 106,
      "chip": "ym2612"
    },
    {
      "channel": 3,
      "note": 79,
      "start": 38.8935,
      "duration": 0.1966,
      "velocity": 106,
      "chip": "ym2612"
    },
    {
      "channel": 0,
      "note": 46,
      "start": 39.191,
      "duration": 0.2788,
      "velocity": 92,
      "chip": "ym2612"
    },
    {
      "channel": 1,
      "note": 80,
      "start": 39.1935,
      "duration": 0.1816,
      "velocity": 106,
      "chip": "ym2612"
    },
    {
      "channel": 3,
      "note": 77,
      "start": 39.1963,
      "duration": 0.1788,
      "velocity": 106,
      "chip": "ym2612"
    },
    {
      "channel": 0,
      "note": 51,
      "start": 39.4755,
      "duration": 0.2968,
      "velocity": 92,
      "chip": "ym2612"
    },
    {
      "channel": 1,
      "note": 79,
      "start": 39.4779,
      "duration": 0.1996,
      "velocity": 106,
      "chip": "ym2612"
    },
    {
      "channel": 3,
      "note": 75,
      "start": 39.4805,
      "duration": 0.197,
      "velocity": 106,
      "chip": "ym2612"
    },
    {
      "channel": 0,
      "note": 46,
      "start": 39.7783,
      "duration": 0.1077,
      "velocity": 92,
      "chip": "ym2612"
    },
    {
      "channel": 1,
      "note": 75,
      "start": 39.781,
      "duration": 0.085,
      "velocity": 106,
      "chip": "ym2612"
    },
    {
      "channel": 3,
      "note": 70,
      "start": 39.7834,
      "duration": 0.0827,
      "velocity": 106,
      "chip": "ym2612"
    },
    {
      "channel": 0,
      "note": 51,
      "start": 39.8925,
      "duration": 0.4628,
      "velocity": 92,
      "chip": "ym2612"
    },
    {
      "channel": 1,
      "note": 75,
      "start": 39.8954,
      "duration": 0.46,
      "velocity": 106,
      "chip": "ym2612"
    },
    {
      "channel": 3,
      "note": 79,
      "start": 39.8977,
      "duration": 0.4578,
      "velocity": 106,
      "chip": "ym2612"
    },
    {
      "channel": 0,
      "note": 53,
      "start": 40.3628,
      "duration": 0.6942,
      "velocity": 92,
      "chip": "ym2612"
    },
    {
      "channel": 1,
      "note": 77,
      "start": 40.3657,
      "duration": 0.6914,
      "velocity": 106,
      "chip": "ym2612"
    },
    {
      "channel": 3,
      "note": 80,
      "start": 40.368,
      "duration": 0.6892,
      "velocity": 106,
      "chip": "ym2612"
    },
    {
      "channel": 0,
      "note": 49,
      "start": 41.0629,
      "duration": 0.4661,
      "velocity": 92,
      "chip": "ym2612"
    },
    {
      "channel": 1,
      "note": 73,
      "start": 41.0657,
      "duration": 0.4634,
      "velocity": 106,
      "chip": "ym2612"
    },
    {
      "channel": 3,
      "note": 77,
      "start": 41.0681,
      "duration": 0.4611,
      "velocity": 106,
      "chip": "ym2612"
    },
    {
      "channel": 0,
      "note": 51,
      "start": 41.5363,
      "duration": 0.3652,
      "velocity": 92,
      "chip": "ym2612"
    },
    {
      "channel": 1,
      "note": 75,
      "start": 41.5387,
      "duration": 0.5666,
      "velocity": 106,
      "chip": "ym2612"
    },
    {
      "channel": 3,
      "note": 79,
      "start": 41.5415,
      "duration": 0.564,
      "velocity": 106,
      "chip": "ym2612"
    },
    {
      "channel": 0,
      "note": 46,
      "start": 41.9052,
      "duration": 0.2998,
      "velocity": 92,
      "chip": "ym2612"
    },
    {
      "channel": 0,
      "note": 51,
      "start": 42.2112,
      "duration": 0.4807,
      "velocity": 92,
      "chip": "ym2612"
    },
    {
      "channel": 1,
      "note": 75,
      "start": 42.2141,
      "duration": 0.4779,
      "velocity": 106,
      "chip": "ym2612"
    },
    {
      "channel": 3,
      "note": 79,
      "start": 42.2165,
      "duration": 0.4756,
      "velocity": 106,
      "chip": "ym2612"
    },
    {
      "channel": 0,
      "note": 53,
      "start": 42.6979,
      "duration": 0.6724,
      "velocity": 92,
      "chip": "ym2612"
    },
    {
      "channel": 1,
      "note": 77,
      "start": 42.7007,
      "duration": 0.6697,
      "velocity": 106,
      "chip": "ym2612"
    },
    {
      "channel": 3,
      "note": 80,
      "start": 42.703,
      "duration": 0.6675,
      "velocity": 106,
      "chip": "ym2612"
    },
    {
      "channel": 0,
      "note": 56,
      "start": 43.3761,
      "duration": 0.4641,
      "velocity": 92,
      "chip": "ym2612"
    },
    {
      "channel": 1,
      "note": 80,
      "start": 43.3789,
      "duration": 0.4614,
      "velocity": 106,
      "chip": "ym2612"
    },
    {
      "channel": 3,
      "note": 84,
      "start": 43.3813,
      "duration": 0.4591,
      "velocity": 106,
      "chip": "ym2612"
    },
    {
      "channel": 0,
      "note": 55,
      "start": 43.8461,
      "duration": 0.4814,
      "velocity": 92,
      "chip": "ym2612"
    },
    {
      "channel": 1,
      "note": 79,
      "start": 43.849,
      "duration": 0.6823,
      "velocity": 106,
      "chip": "ym2612"
    },
    {
      "channel": 3,
      "note": 82,
      "start": 43.8515,
      "duration": 0.68,
      "velocity": 106,
      "chip": "ym2612"
    },
    {
      "channel": 2,
      "note": 53,
      "start": 44.2146,
      "duration": 0.3171,
      "velocity": 92,
      "chip": "ym2612"
    },
    {
      "channel": 0,
      "note": 51,
      "start": 44.5371,
      "duration": 0.4656,
      "velocity": 92,
      "chip": "ym2612"
    },
    {
      "channel": 1,
      "note": 75,
      "start": 44.5399,
      "duration": 0.463,
      "velocity": 106,
      "chip": "ym2612"
    },
    {
      "channel": 3,
      "note": 79,
      "start": 44.5422,
      "duration": 0.4608,
      "velocity": 106,
      "chip": "ym2612"
    },
    {
      "channel": 0,
      "note": 53,
      "start": 45.0104,
      "duration": 0.6945,
      "velocity": 92,
      "chip": "ym2612"
    },
    {
      "channel": 1,
      "note": 77,
      "start": 45.0132,
      "duration": 0.6919,
      "velocity": 106,
      "chip": "ym2612"
    },
    {
      "channel": 3,
      "note": 80,
      "start": 45.0155,
      "duration": 0.6897,
      "velocity": 106,
      "chip": "ym2612"
    },
    {
      "channel": 0,
      "note": 49,
      "start": 45.7107,
      "duration": 0.465,
      "velocity": 92,
      "chip": "ym2612"
    },
    {
      "channel": 1,
      "note": 73,
      "start": 45.7136,
      "duration": 0.4623,
      "velocity": 106,
      "chip": "ym2612"
    },
    {
      "channel": 3,
      "note": 77,
      "start": 45.7159,
      "duration": 0.4601,
      "velocity": 106,
      "chip": "ym2612"
    },
    {
      "channel": 0,
      "note": 51,
      "start": 46.1816,
      "duration": 0.3638,
      "velocity": 92,
      "chip": "ym2612"
    },
    {
      "channel": 1,
      "note": 75,
      "start": 46.1846,
      "duration": 0.5485,
      "velocity": 106,
      "chip": "ym2612"
    },
    {
      "channel": 3,
      "note": 79,
      "start": 46.187,
      "duration": 0.5463,
      "velocity": 106,
      "chip": "ym2612"
    },
    {
      "channel": 0,
      "note": 46,
      "start": 46.5491,
      "duration": 0.3007,
      "velocity": 92,
      "chip": "ym2612"
    },
    {
      "channel": 0,
      "note": 51,
      "start": 46.8556,
      "duration": 0.465,
      "velocity": 92,
      "chip": "ym2612"
    },
    {
      "channel": 1,
      "note": 75,
      "start": 46.8584,
      "duration": 0.4623,
      "velocity": 106,
      "chip": "ym2612"
    },
    {
      "channel": 3,
      "note": 79,
      "start": 46.8607,
      "duration": 0.4602,
      "velocity": 106,
      "chip": "ym2612"
    },
    {
      "channel": 0,
      "note": 53,
      "start": 47.3266,
      "duration": 0.6916,
      "velocity": 92,
      "chip": "ym2612"
    },
    {
      "channel": 1,
      "note": 77,
      "start": 47.3293,
      "duration": 0.689,
      "velocity": 106,
      "chip": "ym2612"
    },
    {
      "channel": 3,
      "note": 80,
      "start": 47.3317,
      "duration": 0.6868,
      "velocity": 106,
      "chip": "ym2612"
    },
    {
      "channel": 0,
      "note": 56,
      "start": 48.0241,
      "duration": 0.4658,
      "velocity": 92,
      "chip": "ym2612"
    },
    {
      "channel": 1,
      "note": 80,
      "start": 48.027,
      "duration": 0.463,
      "velocity": 106,
      "chip": "ym2612"
    },
    {
      "channel": 3,
      "note": 84,
      "start": 48.0294,
      "duration": 0.4608,
      "velocity": 106,
      "chip": "ym2612"
    },
    {
      "channel": 0,
      "note": 55,
      "start": 48.4973,
      "duration": 0.3807,
      "velocity": 92,
      "chip": "ym2612"
    },
    {
      "channel": 1,
      "note": 79,
      "start": 48.4997,
      "duration": 0.3784,
      "velocity": 106,
      "chip": "ym2612"
    },
    {
      "channel": 3,
      "note": 82,
      "start": 48.5025,
      "duration": 0.3757,
      "velocity": 106,
      "chip": "ym2612"
    },
    {
      "channel": 0,
      "note": 53,
      "start": 48.8818,
      "duration": 0.1998,
      "velocity": 92,
      "chip": "ym2612"
    },
    {
      "channel": 1,
      "note": 77,
      "start": 48.8851,
      "duration": 0.3134,
      "velocity": 106,
      "chip": "ym2612"
    },
    {
      "channel": 3,
      "note": 80,
      "start": 48.8881,
      "duration": 0.3105,
      "velocity": 106,
      "chip": "ym2612"
    },
    {
      "channel": 0,
      "note": 49,
      "start": 49.2042,
      "duration": 0.5531,
      "velocity": 92,
      "chip": "ym2612"
    },
    {
      "channel": 1,
      "note": 73,
      "start": 49.207,
      "duration": 0.5504,
      "velocity": 106,
      "chip": "ym2612"
    },
    {
      "channel": 3,
      "note": 77,
      "start": 49.2094,
      "duration": 0.5481,
      "velocity": 106,
      "chip": "ym2612"
    },
    {
      "channel": 4,
      "note": 85,
      "start": 49.2127,
      "duration": 0.2433,
      "velocity": 117,
      "chip": "ym2612"
    },
    {
      "channel": 4,
      "note": 87,
      "start": 49.4606,
      "duration": 0.297,
      "velocity": 117,
      "chip": "ym2612"
    },
    {
      "channel": 0,
      "note": 53,
      "start": 49.7632,
      "duration": 0.5363,
      "velocity": 92,
      "chip": "ym2612"
    },
    {
      "channel": 1,
      "note": 80,
      "start": 49.7656,
      "duration": 0.534,
      "velocity": 106,
      "chip": "ym2612"
    },
    {
      "channel": 3,
      "note": 77,
      "start": 49.7684,
      "duration": 0.5313,
      "velocity": 106,
      "chip": "ym2612"
    },
    {
      "channel": 4,
      "note": 89,
      "start": 49.7708,
      "duration": 0.2439,
      "velocity": 117,
      "chip": "ym2612"
    },
    {
      "channel": 4,
      "note": 91,
      "start": 50.0193,
      "duration": 0.2805,
      "velocity": 117,
      "chip": "ym2612"
    },
    {
      "channel": 0,
      "note": 56,
      "start": 50.3059,
      "duration": 0.5024,
      "velocity": 92,
      "chip": "ym2612"
    },
    {
      "channel": 1,
      "note": 85,
      "start": 50.3084,
      "duration": 0.5,
      "velocity": 106,
      "chip": "ym2612"
    },
    {
      "channel": 3,
      "note": 80,
      "start": 50.3111,
      "duration": 0.4974,
      "velocity": 106,
      "chip": "ym2612"
    },
    {
      "channel": 4,
      "note": 92,
      "start": 50.3136,
      "duration": 0.2106,
      "velocity": 117,
      "chip": "ym2612"
    },
    {
      "channel": 4,
      "note": 94,
      "start": 50.5288,
      "duration": 0.2799,
      "velocity": 117,
      "chip": "ym2612"
    },
    {
      "channel": 0,
      "note": 49,
      "start": 50.816,
      "duration": 0.0204,
      "velocity": 92,
      "chip": "ym2612"
    },
    {
      "channel": 1,
      "note": 89,
      "start": 50.8187,
      "duration": 0.1601,
      "velocity": 106,
      "chip": "ym2612"
    },
    {
      "channel": 3,
      "note": 85,
      "start": 50.8211,
      "duration": 0.1579,
      "velocity": 106,
      "chip": "ym2612"
    },
    {
      "channel": 4,
      "note": 96,
      "start": 50.8235,
      "duration": 0.0738,
      "velocity": 117,
      "chip": "ym2612"
    },
    {
      "channel": 0,
      "note": 53,
      "start": 50.8416,
      "duration": 0.0146,
      "velocity": 92,
      "chip": "ym2612"
    },
    {
      "channel": 0,
      "note": 56,
      "start": 50.8613,
      "duration": 0.0144,
      "velocity": 92,
      "chip": "ym2612"
    },
    {
      "channel": 0,
      "note": 58,
      "start": 50.883,
      "duration": 0.0142,
      "velocity": 92,
      "chip": "ym2612"
    },
    {
      "channel": 0,
      "note": 61,
      "start": 50.9024,
      "duration": 0.0165,
      "velocity": 92,
      "chip": "ym2612"
    },
    {
      "channel": 4,
      "note": 97,
      "start": 50.9055,
      "duration": 0.0736,
      "velocity": 117,
      "chip": "ym2612"
    },
    {
      "channel": 0,
      "note": 60,
      "start": 50.9265,
      "duration": 0.0124,
      "velocity": 92,
      "chip": "ym2612"
    },
    {
      "channel": 0,
      "note": 58,
      "start": 50.944,
      "duration": 0.0148,
      "velocity": 92,
      "chip": "ym2612"
    },
    {
      "channel": 0,
      "note": 56,
      "start": 50.9639,
      "duration": 0.0148,
      "velocity": 92,
      "chip": "ym2612"
    },
    {
      "channel": 0,
      "note": 51,
      "start": 50.9859,
      "duration": 0.1956,
      "velocity": 92,
      "chip": "ym2612"
    },
    {
      "channel": 1,
      "note": 79,
      "start": 50.9889,
      "duration": 0.1927,
      "velocity": 106,
      "chip": "ym2612"
    },
    {
      "channel": 3,
      "note": 75,
      "start": 50.9912,
      "duration": 0.1904,
      "velocity": 106,
      "chip": "ym2612"
    },
    {
      "channel": 0,
      "note": 51,
      "start": 51.282,
      "duration": 0.1852,
      "velocity": 92,
      "chip": "ym2612"
    },
    {
      "channel": 1,
      "note": 80,
      "start": 51.2844,
      "duration": 0.1829,
      "velocity": 106,
      "chip": "ym2612"
    },
    {
      "channel": 3,
      "note": 77,
      "start": 51.2872,
      "duration": 0.1801,
      "velocity": 106,
      "chip": "ym2612"
    },
    {
      "channel": 0,
      "note": 51,
      "start": 51.5678,
      "duration": 0.2017,
      "velocity": 92,
      "chip": "ym2612"
    },
    {
      "channel": 1,
      "note": 79,
      "start": 51.5702,
      "duration": 0.1993,
      "velocity": 106,
      "chip": "ym2612"
    },
    {
      "channel": 3,
      "note": 75,
      "start": 51.573,
      "duration": 0.1966,
      "velocity": 106,
      "chip": "ym2612"
    },
    {
      "channel": 0,
      "note": 51,
      "start": 51.8532,
      "duration": 0.2015,
      "velocity": 92,
      "chip": "ym2612"
    },
    {
      "channel": 1,
      "note": 77,
      "start": 51.8556,
      "duration": 0.1992,
      "velocity": 106,
      "chip": "ym2612"
    },
    {
      "channel": 3,
      "note": 80,
      "start": 51.8584,
      "duration": 0.1964,
      "velocity": 106,
      "chip": "ym2612"
    },
    {
      "channel": 0,
      "note": 51,
      "start": 52.1551,
      "duration": 0.1991,
      "velocity": 92,
      "chip": "ym2612"
    },
    {
      "channel": 1,
      "note": 79,
      "start": 52.1576,
      "duration": 0.1966,
      "velocity": 106,
      "chip": "ym2612"
    },
    {
      "channel": 3,
      "note": 75,
      "start": 52.1604,
      "duration": 0.1939,
      "velocity": 106,
      "chip": "ym2612"
    },
    {
      "channel": 0,
      "note": 51,
      "start": 52.4401,
      "duration": 0.2017,
      "velocity": 92,
      "chip": "ym2612"
    },
    {
      "channel": 1,
      "note": 80,
      "start": 52.4425,
      "duration": 0.1993,
      "velocity": 106,
      "chip": "ym2612"
    },
    {
      "channel": 3,
      "note": 77,
      "start": 52.4453,
      "duration": 0.1965,
      "velocity": 106,
      "chip": "ym2612"
    },
    {
      "channel": 0,
      "note": 51,
      "start": 52.7426,
      "duration": 0.1848,
      "velocity": 92,
      "chip": "ym2612"
    },
    {
      "channel": 1,
      "note": 79,
      "start": 52.745,
      "duration": 0.1824,
      "velocity": 106,
      "chip": "ym2612"
    },
    {
      "channel": 3,
      "note": 75,
      "start": 52.7478,
      "duration": 0.1797,
      "velocity": 106,
      "chip": "ym2612"
    },
    {
      "channel": 0,
      "note": 46,
      "start": 53.0279,
      "duration": 0.1044,
      "velocity": 92,
      "chip": "ym2612"
    },
    {
      "channel": 1,
      "note": 77,
      "start": 53.0301,
      "duration": 0.1022,
      "velocity": 106,
      "chip": "ym2612"
    },
    {
      "channel": 3,
      "note": 80,
      "start": 53.0329,
      "duration": 0.0994,
      "velocity": 106,
      "chip": "ym2612"
    },
    {
      "channel": 0,
      "note": 51,
      "start": 53.1588,
      "duration": 0.1834,
      "velocity": 92,
      "chip": "ym2612"
    },
    {
      "channel": 1,
      "note": 82,
      "start": 53.1616,
      "duration": 0.1807,
      "velocity": 106,
      "chip": "ym2612"
    },
    {
      "channel": 4,
      "note": 106,
      "start": 53.1641,
      "duration": 0.0395,
      "velocity": 117,
      "chip": "ym2612"
    },
    {
      "channel": 3,
      "note": 79,
      "start": 53.2073,
      "duration": 0.2282,
      "velocity": 106,
      "chip": "ym2612"
    },
    {
      "channel": 4,
      "note": 103,
      "start": 53.2113,
      "duration": 0.1091,
      "velocity": 117,
      "chip": "ym2612"
    },
    {
      "channel": 4,
      "note": 104,
      "start": 53.3278,
      "duration": 0.0144,
      "velocity": 117,
      "chip": "ym2612"
    },
    {
      "channel": 4,
      "note": 103,
      "start": 53.3449,
      "duration": 0.0908,
      "velocity": 117,
      "chip": "ym2612"
    },
    {
      "channel": 0,
      "note": 51,
      "start": 53.4412,
      "duration": 0.2034,
      "velocity": 92,
      "chip": "ym2612"
    },
    {
      "channel": 1,
      "note": 77,
      "start": 53.444,
      "duration": 0.2006,
      "velocity": 106,
      "chip": "ym2612"
    },
    {
      "channel": 3,
      "note": 80,
      "start": 53.4464,
      "duration": 0.1983,
      "velocity": 106,
      "chip": "ym2612"
    },
    {
      "channel": 4,
      "note": 106,
      "start": 53.4488,
      "duration": 0.0569,
      "velocity": 117,
      "chip": "ym2612"
    },
    {
      "channel": 4,
      "note": 103,
      "start": 53.5104,
      "duration": 0.1123,
      "velocity": 117,
      "chip": "ym2612"
    },
    {
      "channel": 4,
      "note": 104,
      "start": 53.6301,
      "duration": 0.0146,
      "velocity": 117,
      "chip": "ym2612"
    },
    {
      "channel": 4,
      "note": 103,
      "start": 53.6473,
      "duration": 0.0739,
      "velocity": 117,
      "chip": "ym2612"
    },
    {
      "channel": 0,
      "note": 51,
      "start": 53.7267,
      "duration": 0.2037,
      "velocity": 92,
      "chip": "ym2612"
    },
    {
      "channel": 1,
      "note": 79,
      "start": 53.7292,
      "duration": 0.2012,
      "velocity": 106,
      "chip": "ym2612"
    },
    {
      "channel": 3,
      "note": 75,
      "start": 53.732,
      "duration": 0.1985,
      "velocity": 106,
      "chip": "ym2612"
    },
    {
      "channel": 4,
      "note": 106,
      "start": 53.7344,
      "duration": 0.0573,
      "velocity": 117,
      "chip": "ym2612"
    },
    {
      "channel": 4,
      "note": 103,
      "start": 53.7963,
      "duration": 0.1122,
      "velocity": 117,
      "chip": "ym2612"
    },
    {
      "channel": 4,
      "note": 104,
      "start": 53.9161,
      "duration": 0.0144,
      "velocity": 117,
      "chip": "ym2612"
    },
    {
      "channel": 4,
      "note": 103,
      "start": 53.9332,
      "duration": 0.0906,
      "velocity": 117,
      "chip": "ym2612"
    },
    {
      "channel": 0,
      "note": 51,
      "start": 54.0293,
      "duration": 0.2008,
      "velocity": 92,
      "chip": "ym2612"
    },
    {
      "channel": 1,
      "note": 77,
      "start": 54.0315,
      "duration": 0.1986,
      "velocity": 106,
      "chip": "ym2612"
    },
    {
      "channel": 3,
      "note": 80,
      "start": 54.0344,
      "duration": 0.1958,
      "velocity": 106,
      "chip": "ym2612"
    },
    {
      "channel": 4,
      "note": 106,
      "start": 54.0371,
      "duration": 0.057,
      "velocity": 117,
      "chip": "ym2612"
    },
    {
      "channel": 4,
      "note": 103,
      "start": 54.0987,
      "duration": 0.1121,
      "velocity": 117,
      "chip": "ym2612"
    },
    {
      "channel": 4,
      "note": 104,
      "start": 54.2183,
      "duration": 0.0119,
      "velocity": 117,
      "chip": "ym2612"
    },
    {
      "channel": 4,
      "note": 103,
      "start": 54.2328,
      "duration": 0.0763,
      "velocity": 117,
      "chip": "ym2612"
    },
    {
      "channel": 0,
      "note": 51,
      "start": 54.3151,
      "duration": 0.2027,
      "velocity": 92,
      "chip": "ym2612"
    },
    {
      "channel": 1,
      "note": 82,
      "start": 54.3179,
      "duration": 0.1999,
      "velocity": 106,
      "chip": "ym2612"
    },
    {
      "channel": 3,
      "note": 79,
      "start": 54.3204,
      "duration": 0.1975,
      "velocity": 106,
      "chip": "ym2612"
    },
    {
      "channel": 4,
      "note": 106,
      "start": 54.3227,
      "duration": 0.0564,
      "velocity": 117,
      "chip": "ym2612"
    },
    {
      "channel": 4,
      "note": 103,
      "start": 54.3837,
      "duration": 0.1121,
      "velocity": 117,
      "chip": "ym2612"
    },
    {
      "channel": 4,
      "note": 104,
      "start": 54.5033,
      "duration": 0.0146,
      "velocity": 117,
      "chip": "ym2612"
    },
    {
      "channel": 4,
      "note": 103,
      "start": 54.5205,
      "duration": 0.0906,
      "velocity": 117,
      "chip": "ym2612"
    },
    {
      "channel": 0,
      "note": 46,
      "start": 54.6166,
      "duration": 0.1871,
      "velocity": 92,
      "chip": "ym2612"
    },
    {
      "channel": 1,
      "note": 77,
      "start": 54.6191,
      "duration": 0.1847,
      "velocity": 106,
      "chip": "ym2612"
    },
    {
      "channel": 3,
      "note": 80,
      "start": 54.622,
      "duration": 0.1819,
      "velocity": 106,
      "chip": "ym2612"
    },
    {
      "channel": 4,
      "note": 106,
      "start": 54.6245,
      "duration": 0.0571,
      "velocity": 117,
      "chip": "ym2612"
    },
    {
      "channel": 4,
      "note": 103,
      "start": 54.6863,
      "duration": 0.0956,
      "velocity": 117,
      "chip": "ym2612"
    },
    {
      "channel": 4,
      "note": 104,
      "start": 54.7894,
      "duration": 0.0145,
      "velocity": 117,
      "chip": "ym2612"
    },
    {
      "channel": 4,
      "note": 103,
      "start": 54.8064,
      "duration": 0.0907,
      "velocity": 117,
      "chip": "ym2612"
    },
    {
      "channel": 0,
      "note": 51,
      "start": 54.9028,
      "duration": 0.0641,
      "velocity": 92,
      "chip": "ym2612"
    },
    {
      "channel": 1,
      "note": 75,
      "start": 54.9056,
      "duration": 0.1078,
      "velocity": 106,
      "chip": "ym2612"
    },
    {
      "channel": 3,
      "note": 79,
      "start": 54.9079,
      "duration": 0.1054,
      "velocity": 106,
      "chip": "ym2612"
    },
    {
      "channel": 4,
      "note": 106,
      "start": 54.9103,
      "duration": 0.0568,
      "velocity": 117,
      "chip": "ym2612"
    },
    {
      "channel": 0,
      "note": 58,
      "start": 54.9743,
      "duration": 0.0163,
      "velocity": 92,
      "chip": "ym2612"
    },
    {
      "channel": 4,
      "note": 103,
      "start": 54.9771,
      "duration": 0.0136,
      "velocity": 117,
      "chip": "ym2612"
    },
    {
      "channel": 0,
      "note": 56,
      "start": 54.9973,
      "duration": 0.0159,
      "velocity": 92,
      "chip": "ym2612"
    },
    {
      "channel": 4,
      "note": 104,
      "start": 55.0002,
      "duration": 0.0132,
      "velocity": 117,
      "chip": "ym2612"
    },
    {
      "channel": 0,
      "note": 55,
      "start": 55.0202,
      "duration": 0.0158,
      "velocity": 92,
      "chip": "ym2612"
    },
    {
      "channel": 4,
      "note": 103,
      "start": 55.023,
      "duration": 0.013,
      "velocity": 117,
      "chip": "ym2612"
    },
    {
      "channel": 0,
      "note": 56,
      "start": 55.0426,
      "duration": 0.0174,
      "velocity": 92,
      "chip": "ym2612"
    },
    {
      "channel": 1,
      "note": 70,
      "start": 55.0453,
      "duration": 0.0615,
      "velocity": 106,
      "chip": "ym2612"
    },
    {
      "channel": 3,
      "note": 75,
      "start": 55.0476,
      "duration": 0.0592,
      "velocity": 106,
      "chip": "ym2612"
    },
    {
      "channel": 4,
      "note": 106,
      "start": 55.0503,
      "duration": 0.0098,
      "velocity": 117,
      "chip": "ym2612"
    },
    {
      "channel": 0,
      "note": 55,
      "start": 55.0673,
      "duration": 0.0161,
      "velocity": 92,
      "chip": "ym2612"
    },
    {
      "channel": 4,
      "note": 103,
      "start": 55.0698,
      "duration": 0.0137,
      "velocity": 117,
      "chip": "ym2612"
    },
    {
      "channel": 0,
      "note": 53,
      "start": 55.0912,
      "duration": 0.0155,
      "velocity": 92,
      "chip": "ym2612"
    },
    {
      "channel": 4,
      "note": 104,
      "start": 55.0938,
      "duration": 0.0131,
      "velocity": 117,
      "chip": "ym2612"
    },
    {
      "channel": 0,
      "note": 58,
      "start": 55.1142,
      "duration": 0.0152,
      "velocity": 92,
      "chip": "ym2612"
    },
    {
      "channel": 4,
      "note": 103,
      "start": 55.1167,
      "duration": 0.0128,
      "velocity": 117,
      "chip": "ym2612"
    },
    {
      "channel": 0,
      "note": 51,
      "start": 55.138,
      "duration": 0.2501,
      "velocity": 92,
      "chip": "ym2612"
    },
    {
      "channel": 1,
      "note": 80,
      "start": 55.1422,
      "duration": 0.3158,
      "velocity": 106,
      "chip": "ym2612"
    },
    {
      "channel": 3,
      "note": 75,
      "start": 55.1447,
      "duration": 0.3134,
      "velocity": 106,
      "chip": "ym2612"
    },
    {
      "channel": 4,
      "note": 87,
      "start": 55.1508,
      "duration": 0.1398,
      "velocity": 117,
      "chip": "ym2612"
    },
    {
      "channel": 4,
      "note": 82,
      "start": 55.2978,
      "duration": 0.0906,
      "velocity": 117,
      "chip": "ym2612"
    },
    {
      "channel": 0,
      "note": 46,
      "start": 55.3939,
      "duration": 0.295,
      "velocity": 92,
      "chip": "ym2612"
    },
    {
      "channel": 4,
      "note": 89,
      "start": 55.3963,
      "duration": 0.1785,
      "velocity": 117,
      "chip": "ym2612"
    },
    {
      "channel": 1,
      "note": 75,
      "start": 55.5822,
      "duration": 0.5887,
      "velocity": 106,
      "chip": "ym2612"
    },
    {
      "channel": 3,
      "note": 79,
      "start": 55.5851,
      "duration": 0.5858,
      "velocity": 106,
      "chip": "ym2612"
    },
    {
      "channel": 4,
      "note": 82,
      "start": 55.5874,
      "duration": 0.102,
      "velocity": 117,
      "chip": "ym2612"
    },
    {
      "channel": 0,
      "note": 51,
      "start": 55.695,
      "duration": 0.1999,
      "velocity": 92,
      "chip": "ym2612"
    },
    {
      "channel": 4,
      "note": 87,
      "start": 55.6977,
      "duration": 0.1782,
      "velocity": 117,
      "chip": "ym2612"
    },
    {
      "channel": 4,
      "note": 82,
      "start": 55.8833,
      "duration": 0.0779,
      "velocity": 117,
      "chip": "ym2612"
    },
    {
      "channel": 0,
      "note": 46,
      "start": 55.9004,
      "duration": 0.1775,
      "velocity": 92,
      "chip": "ym2612"
    },
    {
      "channel": 4,
      "note": 91,
      "start": 55.9649,
      "duration": 0.1829,
      "velocity": 117,
      "chip": "ym2612"
    },
    {
      "channel": 0,
      "note": 44,
      "start": 56.0838,
      "duration": 0.0639,
      "velocity": 92,
      "chip": "ym2612"
    },
    {
      "channel": 0,
      "note": 46,
      "start": 56.1552,
      "duration": 0.0157,
      "velocity": 92,
      "chip": "ym2612"
    },
    {
      "channel": 4,
      "note": 82,
      "start": 56.1578,
      "duration": 0.1042,
      "velocity": 117,
      "chip": "ym2612"
    },
    {
      "channel": 0,
      "note": 49,
      "start": 56.2675,
      "duration": 0.2785,
      "velocity": 92,
      "chip": "ym2612"
    },
    {
      "channel": 1,
      "note": 73,
      "start": 56.2705,
      "duration": 1.0472,
      "velocity": 106,
      "chip": "ym2612"
    },
    {
      "channel": 3,
      "note": 77,
      "start": 56.2729,
      "duration": 1.0448,
      "velocity": 106,
      "chip": "ym2612"
    },
    {
      "channel": 4,
      "note": 87,
      "start": 56.2751,
      "duration": 0.1569,
      "velocity": 117,
      "chip": "ym2612"
    },
    {
      "channel": 4,
      "note": 82,
      "start": 56.4393,
      "duration": 0.1073,
      "velocity": 117,
      "chip": "ym2612"
    },
    {
      "channel": 0,
      "note": 44,
      "start": 56.5522,
      "duration": 0.2951,
      "velocity": 92,
      "chip": "ym2612"
    },
    {
      "channel": 4,
      "note": 89,
      "start": 56.5545,
      "duration": 0.1789,
      "velocity": 117,
      "chip": "ym2612"
    },
    {
      "channel": 4,
      "note": 82,
      "start": 56.741,
      "duration": 0.1068,
      "velocity": 117,
      "chip": "ym2612"
    },
    {
      "channel": 0,
      "note": 49,
      "start": 56.8534,
      "duration": 0.1863,
      "velocity": 92,
      "chip": "ym2612"
    },
    {
      "channel": 4,
      "note": 87,
      "start": 56.8561,
      "duration": 0.162,
      "velocity": 117,
      "chip": "ym2612"
    },
    {
      "channel": 4,
      "note": 82,
      "start": 57.0254,
      "duration": 0.0826,
      "velocity": 117,
      "chip": "ym2612"
    },
    {
      "channel": 0,
      "note": 44,
      "start": 57.047,
      "duration": 0.1776,
      "velocity": 92,
      "chip": "ym2612"
    },
    {
      "channel": 4,
      "note": 91,
      "start": 57.1117,
      "duration": 0.183,
      "velocity": 117,
      "chip": "ym2612"
    },
    {
      "channel": 0,
      "note": 43,
      "start": 57.2305,
      "duration": 0.064,
      "velocity": 92,
      "chip": "ym2612"
    },
    {
      "channel": 0,
      "note": 44,
      "start": 57.3019,
      "duration": 0.0157,
      "velocity": 92,
      "chip": "ym2612"
    },
    {
      "channel": 4,
      "note": 82,
      "start": 57.3045,
      "duration": 0.0874,
      "velocity": 117,
      "chip": "ym2612"
    }
  ]
}