{
  "track_name": "02 - Stage 1-1 ~School~",
  "duration_sec": 37.001,
  "sample_rate": 44100,
  "note_count": 565,
  "unique_pitches": 29,
  "pitch_range": 36,
  "avg_note_duration": 0.2506,
  "reconstruction_stats": {
    "notes_reconstructed": 565,
    "keyon_events": 565,
    "keyoff_events": 561,
    "orphan_keyons": 4,
    "unique_pitches": 29,
    "pitch_range": 36,
    "avg_duration_sec": 0.2506
  },
  "metadata": {
    "source": "M\\Magical Taruruuto-Kun\\02 - Stage 1-1 ~School~.vgm"
  },
  "notes": [
    {
      "channel": 1,
      "note": 57,
      "start": 0.2731,
      "duration": 0.0501,
      "velocity": 102,
      "chip": "ym2612"
    },
    {
      "channel": 2,
      "note": 81,
      "start": 0.2741,
      "duration": 0.0494,
      "velocity": 118,
      "chip": "ym2612"
    },
    {
      "channel": 4,
      "note": 57,
      "start": 0.2791,
      "duration": 0.1442,
      "velocity": 102,
      "chip": "ym2612"
    },
    {
      "channel": 1,
      "note": 61,
      "start": 0.3234,
      "duration": 0.1999,
      "velocity": 102,
      "chip": "ym2612"
    },
    {
      "channel": 2,
      "note": 78,
      "start": 0.3237,
      "duration": 0.1999,
      "velocity": 118,
      "chip": "ym2612"
    },
    {
      "channel": 4,
      "note": 61,
      "start": 0.4236,
      "duration": 0.1044,
      "velocity": 102,
      "chip": "ym2612"
    },
    {
      "channel": 1,
      "note": 59,
      "start": 0.5235,
      "duration": 0.0656,
      "velocity": 102,
      "chip": "ym2612"
    },
    {
      "channel": 2,
      "note": 79,
      "start": 0.5238,
      "duration": 0.0656,
      "velocity": 118,
      "chip": "ym2612"
    },
    {
      "channel": 4,
      "note": 59,
      "start": 0.5281,
      "duration": 0.1611,
      "velocity": 102,
      "chip": "ym2612"
    },
    {
      "channel": 1,
      "note": 62,
      "start": 0.5893,
      "duration": 0.1999,
      "velocity": 102,
      "chip": "ym2612"
    },
    {
      "channel": 2,
      "note": 76,
      "start": 0.5896,
      "duration": 0.1999,
      "velocity": 118,
      "chip": "ym2612"
    },
    {
      "channel": 4,
      "note": 62,
      "start": 0.6895,
      "duration": 0.1044,
      "velocity": 102,
      "chip": "ym2612"
    },
    {
      "channel": 1,
      "note": 61,
      "start": 0.7894,
      "duration": 0.0489,
      "velocity": 102,
      "chip": "ym2612"
    },
    {
      "channel": 2,
      "note": 78,
      "start": 0.7897,
      "duration": 0.049,
      "velocity": 118,
      "chip": "ym2612"
    },
    {
      "channel": 4,
      "note": 61,
      "start": 0.794,
      "duration": 0.1611,
      "velocity": 102,
      "chip": "ym2612"
    },
    {
      "channel": 1,
      "note": 64,
      "start": 0.8386,
      "duration": 0.2165,
      "velocity": 102,
      "chip": "ym2612"
    },
    {
      "channel": 2,
      "note": 74,
      "start": 0.8388,
      "duration": 0.2165,
      "velocity": 118,
      "chip": "ym2612"
    },
    {
      "channel": 4,
      "note": 64,
      "start": 0.9554,
      "duration": 0.1026,
      "velocity": 102,
      "chip": "ym2612"
    },
    {
      "channel": 1,
      "note": 62,
      "start": 1.0553,
      "duration": 0.0636,
      "velocity": 102,
      "chip": "ym2612"
    },
    {
      "channel": 2,
      "note": 76,
      "start": 1.0556,
      "duration": 0.0637,
      "velocity": 118,
      "chip": "ym2612"
    },
    {
      "channel": 4,
      "note": 62,
      "start": 1.058,
      "duration": 0.0619,
      "velocity": 102,
      "chip": "ym2612"
    },
    {
      "channel": 1,
      "note": 66,
      "start": 1.1192,
      "duration": 0.0103,
      "velocity": 102,
      "chip": "ym2612"
    },
    {
      "channel": 2,
      "note": 73,
      "start": 1.1194,
      "duration": 0.0103,
      "velocity": 118,
      "chip": "ym2612"
    },
    {
      "channel": 4,
      "note": 66,
      "start": 1.1202,
      "duration": 0.0625,
      "velocity": 102,
      "chip": "ym2612"
    },
    {
      "channel": 0,
      "note": 61,
      "start": 1.1294,
      "duration": 0.3526,
      "velocity": 115,
      "chip": "ym2612"
    },
    {
      "channel": 1,
      "note": 64,
      "start": 1.1297,
      "duration": 0.0524,
      "velocity": 102,
      "chip": "ym2612"
    },
    {
      "channel": 2,
      "note": 74,
      "start": 1.13,
      "duration": 0.7222,
      "velocity": 118,
      "chip": "ym2612"
    },
    {
      "channel": 3,
      "note": 45,
      "start": 1.1302,
      "duration": 0.0521,
      "velocity": 121,
      "chip": "ym2612"
    },
    {
      "channel": 1,
      "note": 66,
      "start": 1.1823,
      "duration": 0.0998,
      "velocity": 102,
      "chip": "ym2612"
    },
    {
      "channel": 3,
      "note": 47,
      "start": 1.1826,
      "duration": 0.0998,
      "velocity": 121,
      "chip": "ym2612"
    },
    {
      "channel": 4,
      "note": 64,
      "start": 1.1829,
      "duration": 0.0998,
      "velocity": 102,
      "chip": "ym2612"
    },
    {
      "channel": 1,
      "note": 67,
      "start": 1.2823,
      "duration": 0.2,
      "velocity": 102,
      "chip": "ym2612"
    },
    {
      "channel": 3,
      "note": 49,
      "start": 1.2826,
      "duration": 0.0995,
      "velocity": 121,
      "chip": "ym2612"
    },
    {
      "channel": 4,
      "note": 66,
      "start": 1.2829,
      "duration": 0.0995,
      "velocity": 102,
      "chip": "ym2612"
    },
    {
      "channel": 3,
      "note": 50,
      "start": 1.3824,
      "duration": 0.1003,
      "velocity": 121,
      "chip": "ym2612"
    },
    {
      "channel": 4,
      "note": 67,
      "start": 1.3827,
      "duration": 0.1696,
      "velocity": 102,
      "chip": "ym2612"
    },
    {
      "channel": 0,
      "note": 57,
      "start": 1.4822,
      "duration": 0.3694,
      "velocity": 115,
      "chip": "ym2612"
    },
    {
      "channel": 1,
      "note": 66,
      "start": 1.4826,
      "duration": 0.0691,
      "velocity": 102,
      "chip": "ym2612"
    },
    {
      "channel": 3,
      "note": 52,
      "start": 1.4829,
      "duration": 0.0691,
      "velocity": 121,
      "chip": "ym2612"
    },
    {
      "channel": 1,
      "note": 67,
      "start": 1.5519,
      "duration": 0.0998,
      "velocity": 102,
      "chip": "ym2612"
    },
    {
      "channel": 3,
      "note": 54,
      "start": 1.5522,
      "duration": 0.0998,
      "velocity": 121,
      "chip": "ym2612"
    },
    {
      "channel": 4,
      "note": 66,
      "start": 1.5525,
      "duration": 0.0998,
      "velocity": 102,
      "chip": "ym2612"
    },
    {
      "channel": 1,
      "note": 69,
      "start": 1.6519,
      "duration": 0.2001,
      "velocity": 102,
      "chip": "ym2612"
    },
    {
      "channel": 3,
      "note": 55,
      "start": 1.6522,
      "duration": 0.0995,
      "velocity": 121,
      "chip": "ym2612"
    },
    {
      "channel": 4,
      "note": 67,
      "start": 1.6525,
      "duration": 0.0995,
      "velocity": 102,
      "chip": "ym2612"
    },
    {
      "channel": 3,
      "note": 56,
      "start": 1.752,
      "duration": 0.1006,
      "velocity": 121,
      "chip": "ym2612"
    },
    {
      "channel": 4,
      "note": 69,
      "start": 1.7523,
      "duration": 0.1529,
      "velocity": 102,
      "chip": "ym2612"
    },
    {
      "channel": 0,
      "note": 64,
      "start": 1.8519,
      "duration": 0.1693,
      "velocity": 115,
      "chip": "ym2612"
    },
    {
      "channel": 1,
      "note": 67,
      "start": 1.8522,
      "duration": 0.0524,
      "velocity": 102,
      "chip": "ym2612"
    },
    {
      "channel": 2,
      "note": 79,
      "start": 1.8524,
      "duration": 0.1759,
      "velocity": 118,
      "chip": "ym2612"
    },
    {
      "channel": 3,
      "note": 61,
      "start": 1.8527,
      "duration": 0.0522,
      "velocity": 121,
      "chip": "ym2612"
    },
    {
      "channel": 1,
      "note": 69,
      "start": 1.9048,
      "duration": 0.1167,
      "velocity": 102,
      "chip": "ym2612"
    },
    {
      "channel": 3,
      "note": 62,
      "start": 1.9051,
      "duration": 0.1167,
      "velocity": 121,
      "chip": "ym2612"
    },
    {
      "channel": 4,
      "note": 67,
      "start": 1.9054,
      "duration": 0.1167,
      "velocity": 102,
      "chip": "ym2612"
    },
    {
      "channel": 0,
      "note": 57,
      "start": 2.0214,
      "duration": 0.002,
      "velocity": 115,
      "chip": "ym2612"
    },
    {
      "channel": 1,
      "note": 71,
      "start": 2.0217,
      "duration": 0.002,
      "velocity": 102,
      "chip": "ym2612"
    },
    {
      "channel": 3,
      "note": 61,
      "start": 2.022,
      "duration": 0.0007,
      "velocity": 121,
      "chip": "ym2612"
    },
    {
      "channel": 4,
      "note": 69,
      "start": 2.0223,
      "duration": 0.0007,
      "velocity": 102,
      "chip": "ym2612"
    },
    {
      "channel": 3,
      "note": 62,
      "start": 2.0229,
      "duration": 0.0012,
      "velocity": 121,
      "chip": "ym2612"
    },
    {
      "channel": 4,
      "note": 71,
      "start": 2.0232,
      "duration": 0.002,
      "velocity": 102,
      "chip": "ym2612"
    },
    {
      "channel": 0,
      "note": 59,
      "start": 2.0236,
      "duration": 0.002,
      "velocity": 115,
      "chip": "ym2612"
    },
    {
      "channel": 1,
      "note": 69,
      "start": 2.0239,
      "duration": 0.001,
      "velocity": 102,
      "chip": "ym2612"
    },
    {
      "channel": 3,
      "note": 61,
      "start": 2.0243,
      "duration": 0.0019,
      "velocity": 121,
      "chip": "ym2612"
    },
    {
      "channel": 1,
      "note": 71,
      "start": 2.0251,
      "duration": 0.0008,
      "velocity": 102,
      "chip": "ym2612"
    },
    {
      "channel": 4,
      "note": 69,
      "start": 2.0253,
      "duration": 0.0013,
      "velocity": 102,
      "chip": "ym2612"
    },
    {
      "channel": 0,
      "note": 61,
      "start": 2.0259,
      "duration": 0.002,
      "velocity": 115,
      "chip": "ym2612"
    },
    {
      "channel": 1,
      "note": 73,
      "start": 2.0262,
      "duration": 0.0019,
      "velocity": 102,
      "chip": "ym2612"
    },
    {
      "channel": 3,
      "note": 59,
      "start": 2.0265,
      "duration": 0.0008,
      "velocity": 121,
      "chip": "ym2612"
    },
    {
      "channel": 4,
      "note": 71,
      "start": 2.0268,
      "duration": 0.0007,
      "velocity": 102,
      "chip": "ym2612"
    },
    {
      "channel": 3,
      "note": 61,
      "start": 2.0275,
      "duration": 0.001,
      "velocity": 121,
      "chip": "ym2612"
    },
    {
      "channel": 4,
      "note": 73,
      "start": 2.0277,
      "duration": 0.0528,
      "velocity": 102,
      "chip": "ym2612"
    },
    {
      "channel": 0,
      "note": 62,
      "start": 2.028,
      "duration": 0.1524,
      "velocity": 115,
      "chip": "ym2612"
    },
    {
      "channel": 1,
      "note": 74,
      "start": 2.0282,
      "duration": 0.1532,
      "velocity": 123,
      "chip": "ym2612"
    },
    {
      "channel": 2,
      "note": 78,
      "start": 2.0284,
      "duration": 0.1542,
      "velocity": 123,
      "chip": "ym2612"
    },
    {
      "channel": 3,
      "note": 62,
      "start": 2.0287,
      "duration": 0.1542,
      "velocity": 121,
      "chip": "ym2612"
    },
    {
      "channel": 4,
      "note": 74,
      "start": 2.0807,
      "duration": 0.1026,
      "velocity": 102,
      "chip": "ym2612"
    },
    {
      "channel": 0,
      "note": 66,
      "start": 2.1805,
      "duration": 0.0599,
      "velocity": 115,
      "chip": "ym2612"
    },
    {
      "channel": 1,
      "note": 66,
      "start": 2.1816,
      "duration": 0.0035,
      "velocity": 123,
      "chip": "ym2612"
    },
    {
      "channel": 3,
      "note": 45,
      "start": 2.183,
      "duration": 0.0648,
      "velocity": 121,
      "chip": "ym2612"
    },
    {
      "channel": 2,
      "note": 66,
      "start": 2.1851,
      "duration": 0.011,
      "velocity": 123,
      "chip": "ym2612"
    },
    {
      "channel": 1,
      "note": 67,
      "start": 2.1853,
      "duration": 0.061,
      "velocity": 123,
      "chip": "ym2612"
    },
    {
      "channel": 2,
      "note": 67,
      "start": 2.1963,
      "duration": 0.051,
      "velocity": 123,
      "chip": "ym2612"
    },
    {
      "channel": 0,
      "note": 57,
      "start": 2.2463,
      "duration": 0.0012,
      "velocity": 115,
      "chip": "ym2612"
    },
    {
      "channel": 1,
      "note": 69,
      "start": 2.2465,
      "duration": 0.0012,
      "velocity": 123,
      "chip": "ym2612"
    },
    {
      "channel": 2,
      "note": 69,
      "start": 2.2475,
      "duration": 0.0023,
      "velocity": 123,
      "chip": "ym2612"
    },
    {
      "channel": 0,
      "note": 66,
      "start": 2.2476,
      "duration": 0.0631,
      "velocity": 115,
      "chip": "ym2612"
    },
    {
      "channel": 1,
      "note": 69,
      "start": 2.2478,
      "duration": 0.0632,
      "velocity": 123,
      "chip": "ym2612"
    },
    {
      "channel": 3,
      "note": 50,
      "start": 2.248,
      "duration": 0.2329,
      "velocity": 121,
      "chip": "ym2612"
    },
    {
      "channel": 2,
      "note": 69,
      "start": 2.2498,
      "duration": 0.0637,
      "velocity": 123,
      "chip": "ym2612"
    },
    {
      "channel": 0,
      "note": 62,
      "start": 2.3109,
      "duration": 0.1693,
      "velocity": 115,
      "chip": "ym2612"
    },
    {
      "channel": 1,
      "note": 69,
      "start": 2.3112,
      "duration": 0.1693,
      "velocity": 123,
      "chip": "ym2612"
    },
    {
      "channel": 2,
      "note": 69,
      "start": 2.3138,
      "duration": 0.1693,
      "velocity": 123,
      "chip": "ym2612"
    },
    {
      "channel": 0,
      "note": 66,
      "start": 2.4805,
      "duration": 0.0636,
      "velocity": 115,
      "chip": "ym2612"
    },
    {
      "channel": 1,
      "note": 69,
      "start": 2.4807,
      "duration": 0.0637,
      "velocity": 123,
      "chip": "ym2612"
    },
    {
      "channel": 3,
      "note": 45,
      "start": 2.481,
      "duration": 0.0646,
      "velocity": 121,
      "chip": "ym2612"
    },
    {
      "channel": 2,
      "note": 69,
      "start": 2.4832,
      "duration": 0.062,
      "velocity": 123,
      "chip": "ym2612"
    },
    {
      "channel": 0,
      "note": 57,
      "start": 2.5443,
      "duration": 0.001,
      "velocity": 115,
      "chip": "ym2612"
    },
    {
      "channel": 1,
      "note": 69,
      "start": 2.5445,
      "duration": 0.0009,
      "velocity": 123,
      "chip": "ym2612"
    },
    {
      "channel": 2,
      "note": 69,
      "start": 2.5452,
      "duration": 0.0024,
      "velocity": 123,
      "chip": "ym2612"
    },
    {
      "channel": 0,
      "note": 66,
      "start": 2.5454,
      "duration": 0.0798,
      "velocity": 115,
      "chip": "ym2612"
    },
    {
      "channel": 1,
      "note": 69,
      "start": 2.5455,
      "duration": 0.0799,
      "velocity": 123,
      "chip": "ym2612"
    },
    {
      "channel": 3,
      "note": 50,
      "start": 2.5459,
      "duration": 0.2328,
      "velocity": 121,
      "chip": "ym2612"
    },
    {
      "channel": 2,
      "note": 69,
      "start": 2.5477,
      "duration": 0.0804,
      "velocity": 123,
      "chip": "ym2612"
    },
    {
      "channel": 0,
      "note": 62,
      "start": 2.6254,
      "duration": 0.1527,
      "velocity": 115,
      "chip": "ym2612"
    },
    {
      "channel": 1,
      "note": 69,
      "start": 2.6256,
      "duration": 0.1527,
      "velocity": 123,
      "chip": "ym2612"
    },
    {
      "channel": 2,
      "note": 69,
      "start": 2.6283,
      "duration": 0.1527,
      "velocity": 123,
      "chip": "ym2612"
    },
    {
      "channel": 0,
      "note": 66,
      "start": 2.7783,
      "duration": 0.0804,
      "velocity": 115,
      "chip": "ym2612"
    },
    {
      "channel": 1,
      "note": 74,
      "start": 2.7785,
      "duration": 0.0805,
      "velocity": 123,
      "chip": "ym2612"
    },
    {
      "channel": 3,
      "note": 45,
      "start": 2.7788,
      "duration": 0.0815,
      "velocity": 121,
      "chip": "ym2612"
    },
    {
      "channel": 2,
      "note": 74,
      "start": 2.7811,
      "duration": 0.0787,
      "velocity": 123,
      "chip": "ym2612"
    },
    {
      "channel": 0,
      "note": 57,
      "start": 2.8589,
      "duration": 0.0011,
      "velocity": 115,
      "chip": "ym2612"
    },
    {
      "channel": 1,
      "note": 69,
      "start": 2.8592,
      "duration": 0.001,
      "velocity": 123,
      "chip": "ym2612"
    },
    {
      "channel": 2,
      "note": 69,
      "start": 2.8599,
      "duration": 0.0026,
      "velocity": 123,
      "chip": "ym2612"
    },
    {
      "channel": 0,
      "note": 66,
      "start": 2.8602,
      "duration": 0.0633,
      "velocity": 115,
      "chip": "ym2612"
    },
    {
      "channel": 1,
      "note": 69,
      "start": 2.8603,
      "duration": 0.0634,
      "velocity": 123,
      "chip": "ym2612"
    },
    {
      "channel": 3,
      "note": 50,
      "start": 2.8606,
      "duration": 0.233,
      "velocity": 121,
      "chip": "ym2612"
    },
    {
      "channel": 2,
      "note": 69,
      "start": 2.8626,
      "duration": 0.0622,
      "velocity": 126,
      "chip": "ym2612"
    },
    {
      "channel": 0,
      "note": 62,
      "start": 2.9237,
      "duration": 0.1693,
      "velocity": 115,
      "chip": "ym2612"
    },
    {
      "channel": 1,
      "note": 69,
      "start": 2.9239,
      "duration": 0.2981,
      "velocity": 123,
      "chip": "ym2612"
    },
    {
      "channel": 2,
      "note": 62,
      "start": 2.925,
      "duration": 0.068,
      "velocity": 126,
      "chip": "ym2612"
    },
    {
      "channel": 4,
      "note": 69,
      "start": 2.9266,
      "duration": 0.2341,
      "velocity": 123,
      "chip": "ym2612"
    },
    {
      "channel": 2,
      "note": 61,
      "start": 2.9932,
      "duration": 0.1001,
      "velocity": 126,
      "chip": "ym2612"
    },
    {
      "channel": 0,
      "note": 66,
      "start": 3.0932,
      "duration": 0.0637,
      "velocity": 115,
      "chip": "ym2612"
    },
    {
      "channel": 2,
      "note": 59,
      "start": 3.0935,
      "duration": 0.0023,
      "velocity": 126,
      "chip": "ym2612"
    },
    {
      "channel": 3,
      "note": 45,
      "start": 3.0938,
      "duration": 0.0649,
      "velocity": 121,
      "chip": "ym2612"
    },
    {
      "channel": 2,
      "note": 57,
      "start": 3.096,
      "duration": 0.0612,
      "velocity": 126,
      "chip": "ym2612"
    },
    {
      "channel": 0,
      "note": 57,
      "start": 3.1571,
      "duration": 0.0011,
      "velocity": 115,
      "chip": "ym2612"
    },
    {
      "channel": 2,
      "note": 59,
      "start": 3.1574,
      "duration": 0.0005,
      "velocity": 126,
      "chip": "ym2612"
    },
    {
      "channel": 2,
      "note": 61,
      "start": 3.1581,
      "duration": 0.0003,
      "velocity": 126,
      "chip": "ym2612"
    },
    {
      "channel": 0,
      "note": 66,
      "start": 3.1583,
      "duration": 0.0634,
      "velocity": 115,
      "chip": "ym2612"
    },
    {
      "channel": 2,
      "note": 62,
      "start": 3.1585,
      "duration": 0.0022,
      "velocity": 126,
      "chip": "ym2612"
    },
    {
      "channel": 3,
      "note": 51,
      "start": 3.1588,
      "duration": 0.2164,
      "velocity": 121,
      "chip": "ym2612"
    },
    {
      "channel": 2,
      "note": 64,
      "start": 3.1609,
      "duration": 0.062,
      "velocity": 123,
      "chip": "ym2612"
    },
    {
      "channel": 0,
      "note": 64,
      "start": 3.2219,
      "duration": 0.1527,
      "velocity": 115,
      "chip": "ym2612"
    },
    {
      "channel": 0,
      "note": 67,
      "start": 3.3748,
      "duration": 0.0805,
      "velocity": 115,
      "chip": "ym2612"
    },
    {
      "channel": 1,
      "note": 67,
      "start": 3.375,
      "duration": 0.0026,
      "velocity": 123,
      "chip": "ym2612"
    },
    {
      "channel": 3,
      "note": 47,
      "start": 3.3754,
      "duration": 0.0816,
      "velocity": 121,
      "chip": "ym2612"
    },
    {
      "channel": 2,
      "note": 67,
      "start": 3.3776,
      "duration": 0.0277,
      "velocity": 123,
      "chip": "ym2612"
    },
    {
      "channel": 1,
      "note": 69,
      "start": 3.3778,
      "duration": 0.0777,
      "velocity": 123,
      "chip": "ym2612"
    },
    {
      "channel": 2,
      "note": 69,
      "start": 3.4055,
      "duration": 0.0508,
      "velocity": 123,
      "chip": "ym2612"
    },
    {
      "channel": 0,
      "note": 59,
      "start": 3.4555,
      "duration": 0.0011,
      "velocity": 115,
      "chip": "ym2612"
    },
    {
      "channel": 1,
      "note": 71,
      "start": 3.4557,
      "duration": 0.001,
      "velocity": 123,
      "chip": "ym2612"
    },
    {
      "channel": 2,
      "note": 71,
      "start": 3.4565,
      "duration": 0.0026,
      "velocity": 123,
      "chip": "ym2612"
    },
    {
      "channel": 0,
      "note": 67,
      "start": 3.4567,
      "duration": 0.0633,
      "velocity": 115,
      "chip": "ym2612"
    },
    {
      "channel": 1,
      "note": 71,
      "start": 3.4568,
      "duration": 0.0635,
      "velocity": 123,
      "chip": "ym2612"
    },
    {
      "channel": 3,
      "note": 52,
      "start": 3.4571,
      "duration": 0.2331,
      "velocity": 121,
      "chip": "ym2612"
    },
    {
      "channel": 2,
      "note": 71,
      "start": 3.4592,
      "duration": 0.0804,
      "velocity": 123,
      "chip": "ym2612"
    },
    {
      "channel": 0,
      "note": 64,
      "start": 3.5202,
      "duration": 0.1693,
      "velocity": 115,
      "chip": "ym2612"
    },
    {
      "channel": 1,
      "note": 71,
      "start": 3.5205,
      "duration": 0.1694,
      "velocity": 123,
      "chip": "ym2612"
    },
    {
      "channel": 2,
      "note": 71,
      "start": 3.5398,
      "duration": 0.1526,
      "velocity": 123,
      "chip": "ym2612"
    },
    {
      "channel": 0,
      "note": 67,
      "start": 3.6898,
      "duration": 0.0636,
      "velocity": 115,
      "chip": "ym2612"
    },
    {
      "channel": 1,
      "note": 71,
      "start": 3.69,
      "duration": 0.0637,
      "velocity": 123,
      "chip": "ym2612"
    },
    {
      "channel": 3,
      "note": 47,
      "start": 3.6903,
      "duration": 0.0646,
      "velocity": 121,
      "chip": "ym2612"
    },
    {
      "channel": 2,
      "note": 71,
      "start": 3.6925,
      "duration": 0.062,
      "velocity": 123,
      "chip": "ym2612"
    },
    {
      "channel": 0,
      "note": 59,
      "start": 3.7536,
      "duration": 0.001,
      "velocity": 115,
      "chip": "ym2612"
    },
    {
      "channel": 1,
      "note": 71,
      "start": 3.7539,
      "duration": 0.001,
      "velocity": 123,
      "chip": "ym2612"
    },
    {
      "channel": 2,
      "note": 71,
      "start": 3.7545,
      "duration": 0.0026,
      "velocity": 123,
      "chip": "ym2612"
    },
    {
      "channel": 0,
      "note": 67,
      "start": 3.7548,
      "duration": 0.0633,
      "velocity": 115,
      "chip": "ym2612"
    },
    {
      "channel": 1,
      "note": 71,
      "start": 3.7549,
      "duration": 0.0634,
      "velocity": 123,
      "chip": "ym2612"
    },
    {
      "channel": 3,
      "note": 52,
      "start": 3.7551,
      "duration": 0.2164,
      "velocity": 121,
      "chip": "ym2612"
    },
    {
      "channel": 2,
      "note": 71,
      "start": 3.7571,
      "duration": 0.0638,
      "velocity": 123,
      "chip": "ym2612"
    },
    {
      "channel": 0,
      "note": 64,
      "start": 3.8183,
      "duration": 0.1527,
      "velocity": 115,
      "chip": "ym2612"
    },
    {
      "channel": 1,
      "note": 71,
      "start": 3.8185,
      "duration": 0.1527,
      "velocity": 123,
      "chip": "ym2612"
    },
    {
      "channel": 2,
      "note": 71,
      "start": 3.8212,
      "duration": 0.1527,
      "velocity": 123,
      "chip": "ym2612"
    },
    {
      "channel": 0,
      "note": 67,
      "start": 3.9712,
      "duration": 0.0804,
      "velocity": 115,
      "chip": "ym2612"
    },
    {
      "channel": 1,
      "note": 76,
      "start": 3.9714,
      "duration": 0.0804,
      "velocity": 123,
      "chip": "ym2612"
    },
    {
      "channel": 3,
      "note": 47,
      "start": 3.9717,
      "duration": 0.0814,
      "velocity": 121,
      "chip": "ym2612"
    },
    {
      "channel": 2,
      "note": 76,
      "start": 3.974,
      "duration": 0.0786,
      "velocity": 123,
      "chip": "ym2612"
    },
    {
      "channel": 0,
      "note": 59,
      "start": 4.0518,
      "duration": 0.001,
      "velocity": 115,
      "chip": "ym2612"
    },
    {
      "channel": 1,
      "note": 71,
      "start": 4.052,
      "duration": 0.001,
      "velocity": 123,
      "chip": "ym2612"
    },
    {
      "channel": 2,
      "note": 71,
      "start": 4.0527,
      "duration": 0.0025,
      "velocity": 123,
      "chip": "ym2612"
    },
    {
      "channel": 0,
      "note": 67,
      "start": 4.053,
      "duration": 0.0799,
      "velocity": 115,
      "chip": "ym2612"
    },
    {
      "channel": 1,
      "note": 71,
      "start": 4.0531,
      "duration": 0.08,
      "velocity": 123,
      "chip": "ym2612"
    },
    {
      "channel": 3,
      "note": 52,
      "start": 4.0533,
      "duration": 0.2331,
      "velocity": 121,
      "chip": "ym2612"
    },
    {
      "channel": 2,
      "note": 71,
      "start": 4.0553,
      "duration": 0.0789,
      "velocity": 126,
      "chip": "ym2612"
    },
    {
      "channel": 0,
      "note": 64,
      "start": 4.1331,
      "duration": 0.1527,
      "velocity": 115,
      "chip": "ym2612"
    },
    {
      "channel": 1,
      "note": 71,
      "start": 4.1333,
      "duration": 0.2197,
      "velocity": 123,
      "chip": "ym2612"
    },
    {
      "channel": 2,
      "note": 64,
      "start": 4.1344,
      "duration": 0.0513,
      "velocity": 126,
      "chip": "ym2612"
    },
    {
      "channel": 4,
      "note": 71,
      "start": 4.1361,
      "duration": 0.2161,
      "velocity": 123,
      "chip": "ym2612"
    },
    {
      "channel": 2,
      "note": 62,
      "start": 4.1859,
      "duration": 0.1001,
      "velocity": 126,
      "chip": "ym2612"
    },
    {
      "channel": 0,
      "note": 67,
      "start": 4.2859,
      "duration": 0.0637,
      "velocity": 115,
      "chip": "ym2612"
    },
    {
      "channel": 2,
      "note": 61,
      "start": 4.2863,
      "duration": 0.0023,
      "velocity": 126,
      "chip": "ym2612"
    },
    {
      "channel": 3,
      "note": 47,
      "start": 4.2865,
      "duration": 0.0649,
      "velocity": 121,
      "chip": "ym2612"
    },
    {
      "channel": 2,
      "note": 62,
      "start": 4.2887,
      "duration": 0.0612,
      "velocity": 126,
      "chip": "ym2612"
    },
    {
      "channel": 0,
      "note": 59,
      "start": 4.3498,
      "duration": 0.001,
      "velocity": 115,
      "chip": "ym2612"
    },
    {
      "channel": 2,
      "note": 64,
      "start": 4.3502,
      "duration": 0.0005,
      "velocity": 126,
      "chip": "ym2612"
    },
    {
      "channel": 2,
      "note": 66,
      "start": 4.3508,
      "duration": 0.0003,
      "velocity": 126,
      "chip": "ym2612"
    },
    {
      "channel": 0,
      "note": 67,
      "start": 4.3511,
      "duration": 0.0016,
      "velocity": 115,
      "chip": "ym2612"
    },
    {
      "channel": 2,
      "note": 67,
      "start": 4.3513,
      "duration": 0.0009,
      "velocity": 126,
      "chip": "ym2612"
    },
    {
      "channel": 3,
      "note": 53,
      "start": 4.3515,
      "duration": 0.1547,
      "velocity": 121,
      "chip": "ym2612"
    },
    {
      "channel": 2,
      "note": 68,
      "start": 4.3524,
      "duration": 0.0016,
      "velocity": 123,
      "chip": "ym2612"
    },
    {
      "channel": 0,
      "note": 66,
      "start": 4.353,
      "duration": 0.1527,
      "velocity": 115,
      "chip": "ym2612"
    },
    {
      "channel": 0,
      "note": 69,
      "start": 4.5059,
      "duration": 0.0633,
      "velocity": 115,
      "chip": "ym2612"
    },
    {
      "channel": 1,
      "note": 69,
      "start": 4.5061,
      "duration": 0.0021,
      "velocity": 123,
      "chip": "ym2612"
    },
    {
      "channel": 3,
      "note": 49,
      "start": 4.5065,
      "duration": 0.0644,
      "velocity": 121,
      "chip": "ym2612"
    },
    {
      "channel": 2,
      "note": 69,
      "start": 4.5081,
      "duration": 0.0111,
      "velocity": 123,
      "chip": "ym2612"
    },
    {
      "channel": 1,
      "note": 71,
      "start": 4.5084,
      "duration": 0.0611,
      "velocity": 123,
      "chip": "ym2612"
    },
    {
      "channel": 2,
      "note": 71,
      "start": 4.5194,
      "duration": 0.0508,
      "velocity": 123,
      "chip": "ym2612"
    },
    {
      "channel": 0,
      "note": 61,
      "start": 4.5694,
      "duration": 0.0011,
      "velocity": 115,
      "chip": "ym2612"
    },
    {
      "channel": 1,
      "note": 73,
      "start": 4.5697,
      "duration": 0.001,
      "velocity": 123,
      "chip": "ym2612"
    },
    {
      "channel": 2,
      "note": 73,
      "start": 4.5704,
      "duration": 0.0025,
      "velocity": 123,
      "chip": "ym2612"
    },
    {
      "channel": 0,
      "note": 69,
      "start": 4.5706,
      "duration": 0.08,
      "velocity": 115,
      "chip": "ym2612"
    },
    {
      "channel": 1,
      "note": 73,
      "start": 4.5707,
      "duration": 0.0801,
      "velocity": 123,
      "chip": "ym2612"
    },
    {
      "channel": 3,
      "note": 54,
      "start": 4.571,
      "duration": 0.233,
      "velocity": 121,
      "chip": "ym2612"
    },
    {
      "channel": 2,
      "note": 73,
      "start": 4.573,
      "duration": 0.0804,
      "velocity": 123,
      "chip": "ym2612"
    },
    {
      "channel": 0,
      "note": 66,
      "start": 4.6508,
      "duration": 0.1527,
      "velocity": 115,
      "chip": "ym2612"
    },
    {
      "channel": 1,
      "note": 73,
      "start": 4.651,
      "duration": 0.1527,
      "velocity": 123,
      "chip": "ym2612"
    },
    {
      "channel": 2,
      "note": 73,
      "start": 4.6537,
      "duration": 0.1527,
      "velocity": 123,
      "chip": "ym2612"
    },
    {
      "channel": 0,
      "note": 69,
      "start": 4.8037,
      "duration": 0.0637,
      "velocity": 115,
      "chip": "ym2612"
    },
    {
      "channel": 1,
      "note": 73,
      "start": 4.8039,
      "duration": 0.0637,
      "velocity": 123,
      "chip": "ym2612"
    },
    {
      "channel": 3,
      "note": 49,
      "start": 4.8042,
      "duration": 0.0646,
      "velocity": 121,
      "chip": "ym2612"
    },
    {
      "channel": 2,
      "note": 73,
      "start": 4.8064,
      "duration": 0.062,
      "velocity": 123,
      "chip": "ym2612"
    },
    {
      "channel": 0,
      "note": 61,
      "start": 4.8675,
      "duration": 0.001,
      "velocity": 115,
      "chip": "ym2612"
    },
    {
      "channel": 1,
      "note": 73,
      "start": 4.8678,
      "duration": 0.001,
      "velocity": 123,
      "chip": "ym2612"
    },
    {
      "channel": 2,
      "note": 73,
      "start": 4.8684,
      "duration": 0.0025,
      "velocity": 123,
      "chip": "ym2612"
    },
    {
      "channel": 0,
      "note": 69,
      "start": 4.8687,
      "duration": 0.0632,
      "velocity": 115,
      "chip": "ym2612"
    },
    {
      "channel": 1,
      "note": 73,
      "start": 4.8688,
      "duration": 0.0633,
      "velocity": 123,
      "chip": "ym2612"
    },
    {
      "channel": 3,
      "note": 54,
      "start": 4.869,
      "duration": 0.2331,
      "velocity": 121,
      "chip": "ym2612"
    },
    {
      "channel": 2,
      "note": 73,
      "start": 4.871,
      "duration": 0.0646,
      "velocity": 126,
      "chip": "ym2612"
    },
    {
      "channel": 0,
      "note": 66,
      "start": 4.9321,
      "duration": 0.1693,
      "velocity": 115,
      "chip": "ym2612"
    },
    {
      "channel": 1,
      "note": 73,
      "start": 4.9323,
      "duration": 0.1693,
      "velocity": 123,
      "chip": "ym2612"
    },
    {
      "channel": 4,
      "note": 73,
      "start": 4.936,
      "duration": 0.1669,
      "velocity": 123,
      "chip": "ym2612"
    },
    {
      "channel": 0,
      "note": 69,
      "start": 5.1015,
      "duration": 0.0017,
      "velocity": 115,
      "chip": "ym2612"
    },
    {
      "channel": 1,
      "note": 71,
      "start": 5.1019,
      "duration": 0.0017,
      "velocity": 123,
      "chip": "ym2612"
    },
    {
      "channel": 2,
      "note": 63,
      "start": 5.1021,
      "duration": 0.065,
      "velocity": 126,
      "chip": "ym2612"
    },
    {
      "channel": 3,
      "note": 49,
      "start": 5.1024,
      "duration": 0.065,
      "velocity": 121,
      "chip": "ym2612"
    },
    {
      "channel": 4,
      "note": 71,
      "start": 5.1031,
      "duration": 0.0025,
      "velocity": 123,
      "chip": "ym2612"
    },
    {
      "channel": 0,
      "note": 61,
      "start": 5.1035,
      "duration": 0.0631,
      "velocity": 115,
      "chip": "ym2612"
    },
    {
      "channel": 1,
      "note": 70,
      "start": 5.1037,
      "duration": 0.0632,
      "velocity": 123,
      "chip": "ym2612"
    },
    {
      "channel": 4,
      "note": 70,
      "start": 5.1057,
      "duration": 0.0626,
      "velocity": 123,
      "chip": "ym2612"
    },
    {
      "channel": 0,
      "note": 69,
      "start": 5.1668,
      "duration": 0.0022,
      "velocity": 115,
      "chip": "ym2612"
    },
    {
      "channel": 1,
      "note": 69,
      "start": 5.1671,
      "duration": 0.0023,
      "velocity": 123,
      "chip": "ym2612"
    },
    {
      "channel": 2,
      "note": 62,
      "start": 5.1673,
      "duration": 0.1551,
      "velocity": 126,
      "chip": "ym2612"
    },
    {
      "channel": 3,
      "note": 54,
      "start": 5.1676,
      "duration": 0.1551,
      "velocity": 121,
      "chip": "ym2612"
    },
    {
      "channel": 4,
      "note": 69,
      "start": 5.1684,
      "duration": 0.0036,
      "velocity": 123,
      "chip": "ym2612"
    },
    {
      "channel": 0,
      "note": 66,
      "start": 5.1693,
      "duration": 0.1526,
      "velocity": 115,
      "chip": "ym2612"
    },
    {
      "channel": 1,
      "note": 68,
      "start": 5.1696,
      "duration": 0.1526,
      "velocity": 123,
      "chip": "ym2612"
    },
    {
      "channel": 4,
      "note": 68,
      "start": 5.1722,
      "duration": 0.1523,
      "velocity": 123,
      "chip": "ym2612"
    },
    {
      "channel": 0,
      "note": 69,
      "start": 5.3221,
      "duration": 0.0802,
      "velocity": 115,
      "chip": "ym2612"
    },
    {
      "channel": 1,
      "note": 67,
      "start": 5.3224,
      "duration": 0.0802,
      "velocity": 123,
      "chip": "ym2612"
    },
    {
      "channel": 2,
      "note": 61,
      "start": 5.3227,
      "duration": 0.0817,
      "velocity": 126,
      "chip": "ym2612"
    },
    {
      "channel": 3,
      "note": 49,
      "start": 5.3229,
      "duration": 0.0817,
      "velocity": 121,
      "chip": "ym2612"
    },
    {
      "channel": 4,
      "note": 67,
      "start": 5.3247,
      "duration": 0.0788,
      "velocity": 123,
      "chip": "ym2612"
    },
    {
      "channel": 0,
      "note": 61,
      "start": 5.4025,
      "duration": 0.0012,
      "velocity": 115,
      "chip": "ym2612"
    },
    {
      "channel": 1,
      "note": 66,
      "start": 5.4028,
      "duration": 0.0012,
      "velocity": 123,
      "chip": "ym2612"
    },
    {
      "channel": 4,
      "note": 66,
      "start": 5.4037,
      "duration": 0.0012,
      "velocity": 123,
      "chip": "ym2612"
    },
    {
      "channel": 0,
      "note": 69,
      "start": 5.404,
      "duration": 0.0014,
      "velocity": 115,
      "chip": "ym2612"
    },
    {
      "channel": 1,
      "note": 64,
      "start": 5.4042,
      "duration": 0.0015,
      "velocity": 123,
      "chip": "ym2612"
    },
    {
      "channel": 2,
      "note": 59,
      "start": 5.4045,
      "duration": 0.0013,
      "velocity": 126,
      "chip": "ym2612"
    },
    {
      "channel": 3,
      "note": 52,
      "start": 5.4048,
      "duration": 0.0012,
      "velocity": 121,
      "chip": "ym2612"
    },
    {
      "channel": 4,
      "note": 64,
      "start": 5.4051,
      "duration": 0.0015,
      "velocity": 123,
      "chip": "ym2612"
    },
    {
      "channel": 0,
      "note": 62,
      "start": 5.4056,
      "duration": 0.1693,
      "velocity": 115,
      "chip": "ym2612"
    },
    {
      "channel": 3,
      "note": 57,
      "start": 5.4063,
      "duration": 0.169,
      "velocity": 121,
      "chip": "ym2612"
    },
    {
      "channel": 0,
      "note": 69,
      "start": 5.5751,
      "duration": 0.0032,
      "velocity": 115,
      "chip": "ym2612"
    },
    {
      "channel": 3,
      "note": 50,
      "start": 5.5755,
      "duration": 0.0033,
      "velocity": 121,
      "chip": "ym2612"
    },
    {
      "channel": 0,
      "note": 69,
      "start": 5.5786,
      "duration": 0.1526,
      "velocity": 115,
      "chip": "ym2612"
    },
    {
      "channel": 3,
      "note": 54,
      "start": 5.579,
      "duration": 0.1525,
      "velocity": 121,
      "chip": "ym2612"
    },
    {
      "channel": 0,
      "note": 62,
      "start": 5.7315,
      "duration": 0.0637,
      "velocity": 115,
      "chip": "ym2612"
    },
    {
      "channel": 3,
      "note": 55,
      "start": 5.7318,
      "duration": 0.0636,
      "velocity": 121,
      "chip": "ym2612"
    },
    {
      "channel": 0,
      "note": 69,
      "start": 5.7954,
      "duration": 0.1527,
      "velocity": 115,
      "chip": "ym2612"
    },
    {
      "channel": 3,
      "note": 57,
      "start": 5.7957,
      "duration": 0.1526,
      "velocity": 121,
      "chip": "ym2612"
    },
    {
      "channel": 0,
      "note": 69,
      "start": 5.9482,
      "duration": 0.0802,
      "velocity": 115,
      "chip": "ym2612"
    },
    {
      "channel": 3,
      "note": 50,
      "start": 5.9486,
      "duration": 0.0802,
      "velocity": 121,
      "chip": "ym2612"
    },
    {
      "channel": 0,
      "note": 62,
      "start": 6.0287,
      "duration": 0.1526,
      "velocity": 115,
      "chip": "ym2612"
    },
    {
      "channel": 3,
      "note": 54,
      "start": 6.029,
      "duration": 0.1526,
      "velocity": 121,
      "chip": "ym2612"
    },
    {
      "channel": 0,
      "note": 69,
      "start": 6.1815,
      "duration": 0.0008,
      "velocity": 115,
      "chip": "ym2612"
    },
    {
      "channel": 3,
      "note": 55,
      "start": 6.1818,
      "duration": 0.0027,
      "velocity": 121,
      "chip": "ym2612"
    },
    {
      "channel": 0,
      "note": 73,
      "start": 6.1825,
      "duration": 0.0,
      "velocity": 115,
      "chip": "ym2612"
    },
    {
      "channel": 0,
      "note": 62,
      "start": 6.1827,
      "duration": 0.169,
      "velocity": 115,
      "chip": "ym2612"
    },
    {
      "channel": 1,
      "note": 74,
      "start": 6.1837,
      "duration": 0.1683,
      "velocity": 121,
      "chip": "ym2612"
    },
    {
      "channel": 3,
      "note": 57,
      "start": 6.1847,
      "duration": 0.4031,
      "velocity": 121,
      "chip": "ym2612"
    },
    {
      "channel": 0,
      "note": 69,
      "start": 6.352,
      "duration": 0.0178,
      "velocity": 115,
      "chip": "ym2612"
    },
    {
      "channel": 1,
      "note": 73,
      "start": 6.3522,
      "duration": 0.0178,
      "velocity": 121,
      "chip": "ym2612"
    },
    {
      "channel": 0,
      "note": 69,
      "start": 6.3699,
      "duration": 0.2165,
      "velocity": 115,
      "chip": "ym2612"
    },
    {
      "channel": 1,
      "note": 71,
      "start": 6.3702,
      "duration": 0.2166,
      "velocity": 121,
      "chip": "ym2612"
    },
    {
      "channel": 0,
      "note": 62,
      "start": 6.5867,
      "duration": 0.1533,
      "velocity": 115,
      "chip": "ym2612"
    },
    {
      "channel": 1,
      "note": 73,
      "start": 6.5869,
      "duration": 0.0006,
      "velocity": 121,
      "chip": "ym2612"
    },
    {
      "channel": 1,
      "note": 69,
      "start": 6.5877,
      "duration": 0.2155,
      "velocity": 121,
      "chip": "ym2612"
    },
    {
      "channel": 2,
      "note": 59,
      "start": 6.5878,
      "duration": 0.1533,
      "velocity": 119,
      "chip": "ym2612"
    },
    {
      "channel": 0,
      "note": 67,
      "start": 6.7402,
      "duration": 0.0019,
      "velocity": 115,
      "chip": "ym2612"
    },
    {
      "channel": 3,
      "note": 55,
      "start": 6.7406,
      "duration": 0.0008,
      "velocity": 121,
      "chip": "ym2612"
    },
    {
      "channel": 2,
      "note": 57,
      "start": 6.7413,
      "duration": 0.0622,
      "velocity": 119,
      "chip": "ym2612"
    },
    {
      "channel": 3,
      "note": 54,
      "start": 6.7415,
      "duration": 0.0007,
      "velocity": 121,
      "chip": "ym2612"
    },
    {
      "channel": 0,
      "note": 66,
      "start": 6.7422,
      "duration": 0.0607,
      "velocity": 115,
      "chip": "ym2612"
    },
    {
      "channel": 3,
      "note": 52,
      "start": 6.7424,
      "duration": 0.0612,
      "velocity": 121,
      "chip": "ym2612"
    },
    {
      "channel": 0,
      "note": 62,
      "start": 6.8031,
      "duration": 0.1694,
      "velocity": 115,
      "chip": "ym2612"
    },
    {
      "channel": 1,
      "note": 62,
      "start": 6.8034,
      "duration": 0.1693,
      "velocity": 121,
      "chip": "ym2612"
    },
    {
      "channel": 3,
      "note": 50,
      "start": 6.8039,
      "duration": 0.3706,
      "velocity": 121,
      "chip": "ym2612"
    },
    {
      "channel": 0,
      "note": 69,
      "start": 6.9726,
      "duration": 0.1998,
      "velocity": 115,
      "chip": "ym2612"
    },
    {
      "channel": 1,
      "note": 64,
      "start": 6.9729,
      "duration": 0.1999,
      "velocity": 121,
      "chip": "ym2612"
    },
    {
      "channel": 0,
      "note": 69,
      "start": 7.1727,
      "duration": 0.0008,
      "velocity": 115,
      "chip": "ym2612"
    },
    {
      "channel": 1,
      "note": 66,
      "start": 7.1729,
      "duration": 0.0009,
      "velocity": 121,
      "chip": "ym2612"
    },
    {
      "channel": 0,
      "note": 74,
      "start": 7.1737,
      "duration": 0.1528,
      "velocity": 115,
      "chip": "ym2612"
    },
    {
      "channel": 1,
      "note": 67,
      "start": 7.1739,
      "duration": 0.0002,
      "velocity": 121,
      "chip": "ym2612"
    },
    {
      "channel": 1,
      "note": 69,
      "start": 7.1743,
      "duration": 0.1895,
      "velocity": 118,
      "chip": "ym2612"
    },
    {
      "channel": 2,
      "note": 57,
      "start": 7.1744,
      "duration": 0.1873,
      "velocity": 119,
      "chip": "ym2612"
    },
    {
      "channel": 3,
      "note": 50,
      "start": 7.1747,
      "duration": 0.1522,
      "velocity": 121,
      "chip": "ym2612"
    },
    {
      "channel": 0,
      "note": 67,
      "start": 7.3268,
      "duration": 0.0345,
      "velocity": 115,
      "chip": "ym2612"
    },
    {
      "channel": 3,
      "note": 52,
      "start": 7.3271,
      "duration": 0.0349,
      "velocity": 121,
      "chip": "ym2612"
    },
    {
      "channel": 0,
      "note": 66,
      "start": 7.3615,
      "duration": 0.0012,
      "velocity": 115,
      "chip": "ym2612"
    },
    {
      "channel": 2,
      "note": 64,
      "start": 7.3619,
      "duration": 0.0043,
      "velocity": 118,
      "chip": "ym2612"
    },
    {
      "channel": 3,
      "note": 54,
      "start": 7.3622,
      "duration": 0.0019,
      "velocity": 121,
      "chip": "ym2612"
    },
    {
      "channel": 0,
      "note": 64,
      "start": 7.3629,
      "duration": 0.0015,
      "velocity": 115,
      "chip": "ym2612"
    },
    {
      "channel": 1,
      "note": 71,
      "start": 7.364,
      "duration": 0.0007,
      "velocity": 118,
      "chip": "ym2612"
    },
    {
      "channel": 3,
      "note": 55,
      "start": 7.3643,
      "duration": 0.0021,
      "velocity": 121,
      "chip": "ym2612"
    },
    {
      "channel": 0,
      "note": 74,
      "start": 7.3646,
      "duration": 0.0002,
      "velocity": 115,
      "chip": "ym2612"
    },
    {
      "channel": 1,
      "note": 73,
      "start": 7.3648,
      "duration": 0.0003,
      "velocity": 118,
      "chip": "ym2612"
    },
    {
      "channel": 0,
      "note": 62,
      "start": 7.365,
      "duration": 0.1523,
      "velocity": 115,
      "chip": "ym2612"
    },
    {
      "channel": 1,
      "note": 74,
      "start": 7.3652,
      "duration": 0.1523,
      "velocity": 118,
      "chip": "ym2612"
    },
    {
      "channel": 3,
      "note": 57,
      "start": 7.3666,
      "duration": 0.3327,
      "velocity": 105,
      "chip": "ym2612"
    },
    {
      "channel": 4,
      "note": 62,
      "start": 7.3676,
      "duration": 0.1514,
      "velocity": 119,
      "chip": "ym2612"
    },
    {
      "channel": 0,
      "note": 66,
      "start": 7.5175,
      "duration": 0.0012,
      "velocity": 115,
      "chip": "ym2612"
    },
    {
      "channel": 1,
      "note": 69,
      "start": 7.5178,
      "duration": 0.0021,
      "velocity": 118,
      "chip": "ym2612"
    },
    {
      "channel": 2,
      "note": 74,
      "start": 7.5181,
      "duration": 0.0007,
      "velocity": 118,
      "chip": "ym2612"
    },
    {
      "channel": 0,
      "note": 57,
      "start": 7.5188,
      "duration": 0.001,
      "velocity": 115,
      "chip": "ym2612"
    },
    {
      "channel": 2,
      "note": 69,
      "start": 7.519,
      "duration": 0.0038,
      "velocity": 118,
      "chip": "ym2612"
    },
    {
      "channel": 0,
      "note": 66,
      "start": 7.5199,
      "duration": 0.0027,
      "velocity": 115,
      "chip": "ym2612"
    },
    {
      "channel": 1,
      "note": 71,
      "start": 7.5201,
      "duration": 0.1715,
      "velocity": 118,
      "chip": "ym2612"
    },
    {
      "channel": 0,
      "note": 62,
      "start": 7.5227,
      "duration": 0.1685,
      "velocity": 115,
      "chip": "ym2612"
    },
    {
      "channel": 2,
      "note": 71,
      "start": 7.523,
      "duration": 0.1717,
      "velocity": 118,
      "chip": "ym2612"
    },
    {
      "channel": 0,
      "note": 71,
      "start": 7.6915,
      "duration": 0.0029,
      "velocity": 115,
      "chip": "ym2612"
    },
    {
      "channel": 1,
      "note": 67,
      "start": 7.6918,
      "duration": 0.0038,
      "velocity": 118,
      "chip": "ym2612"
    },
    {
      "channel": 0,
      "note": 69,
      "start": 7.6945,
      "duration": 0.0009,
      "velocity": 115,
      "chip": "ym2612"
    },
    {
      "channel": 2,
      "note": 67,
      "start": 7.6948,
      "duration": 0.0035,
      "velocity": 118,
      "chip": "ym2612"
    },
    {
      "channel": 0,
      "note": 67,
      "start": 7.6956,
      "duration": 0.0024,
      "velocity": 115,
      "chip": "ym2612"
    },
    {
      "channel": 1,
      "note": 71,
      "start": 7.6957,
      "duration": 0.0024,
      "velocity": 118,
      "chip": "ym2612"
    },
    {
      "channel": 0,
      "note": 66,
      "start": 7.698,
      "duration": 0.1522,
      "velocity": 115,
      "chip": "ym2612"
    },
    {
      "channel": 1,
      "note": 69,
      "start": 7.6982,
      "duration": 0.1619,
      "velocity": 118,
      "chip": "ym2612"
    },
    {
      "channel": 2,
      "note": 71,
      "start": 7.6985,
      "duration": 0.1522,
      "velocity": 118,
      "chip": "ym2612"
    },
    {
      "channel": 0,
      "note": 57,
      "start": 7.8505,
      "duration": 0.0028,
      "velocity": 115,
      "chip": "ym2612"
    },
    {
      "channel": 2,
      "note": 69,
      "start": 7.8509,
      "duration": 0.0095,
      "velocity": 118,
      "chip": "ym2612"
    },
    {
      "channel": 3,
      "note": 50,
      "start": 7.8512,
      "duration": 0.0006,
      "velocity": 105,
      "chip": "ym2612"
    },
    {
      "channel": 3,
      "note": 52,
      "start": 7.8519,
      "duration": 0.0016,
      "velocity": 105,
      "chip": "ym2612"
    },
    {
      "channel": 0,
      "note": 59,
      "start": 7.8534,
      "duration": 0.0025,
      "velocity": 115,
      "chip": "ym2612"
    },
    {
      "channel": 3,
      "note": 54,
      "start": 7.8536,
      "duration": 0.0013,
      "velocity": 105,
      "chip": "ym2612"
    },
    {
      "channel": 3,
      "note": 55,
      "start": 7.8551,
      "duration": 0.0012,
      "velocity": 105,
      "chip": "ym2612"
    },
    {
      "channel": 0,
      "note": 61,
      "start": 7.856,
      "duration": 0.0038,
      "velocity": 115,
      "chip": "ym2612"
    },
    {
      "channel": 3,
      "note": 57,
      "start": 7.8564,
      "duration": 0.0015,
      "velocity": 105,
      "chip": "ym2612"
    },
    {
      "channel": 3,
      "note": 61,
      "start": 7.858,
      "duration": 0.0027,
      "velocity": 105,
      "chip": "ym2612"
    },
    {
      "channel": 0,
      "note": 62,
      "start": 7.8599,
      "duration": 0.1689,
      "velocity": 115,
      "chip": "ym2612"
    },
    {
      "channel": 1,
      "note": 66,
      "start": 7.8602,
      "duration": 0.1773,
      "velocity": 118,
      "chip": "ym2612"
    },
    {
      "channel": 2,
      "note": 54,
      "start": 7.8607,
      "duration": 0.1774,
      "velocity": 118,
      "chip": "ym2612"
    },
    {
      "channel": 3,
      "note": 62,
      "start": 7.861,
      "duration": 0.1773,
      "velocity": 105,
      "chip": "ym2612"
    },
    {
      "channel": 0,
      "note": 57,
      "start": 8.029,
      "duration": 0.0034,
      "velocity": 115,
      "chip": "ym2612"
    },
    {
      "channel": 0,
      "note": 59,
      "start": 8.0326,
      "duration": 0.0021,
      "velocity": 115,
      "chip": "ym2612"
    },
    {
      "channel": 0,
      "note": 61,
      "start": 8.0348,
      "duration": 0.0024,
      "velocity": 115,
      "chip": "ym2612"
    },
    {
      "channel": 0,
      "note": 64,
      "start": 8.0373,
      "duration": 0.1526,
      "velocity": 115,
      "chip": "ym2612"
    },
    {
      "channel": 1,
      "note": 67,
      "start": 8.0377,
      "duration": 0.1525,
      "velocity": 118,
      "chip": "ym2612"
    },
    {
      "channel": 0,
      "note": 67,
      "start": 8.1901,
      "duration": 0.0085,
      "velocity": 115,
      "chip": "ym2612"
    },
    {
      "channel": 1,
      "note": 64,
      "start": 8.1904,
      "duration": 0.0098,
      "velocity": 118,
      "chip": "ym2612"
    },
    {
      "channel": 2,
      "note": 67,
      "start": 8.1907,
      "duration": 0.0083,
      "velocity": 118,
      "chip": "ym2612"
    },
    {
      "channel": 0,
      "note": 59,
      "start": 8.1988,
      "duration": 0.0013,
      "velocity": 115,
      "chip": "ym2612"
    },
    {
      "channel": 2,
      "note": 64,
      "start": 8.1993,
      "duration": 0.0035,
      "velocity": 118,
      "chip": "ym2612"
    },
    {
      "channel": 0,
      "note": 67,
      "start": 8.2002,
      "duration": 0.0024,
      "velocity": 115,
      "chip": "ym2612"
    },
    {
      "channel": 1,
      "note": 67,
      "start": 8.2004,
      "duration": 0.1713,
      "velocity": 118,
      "chip": "ym2612"
    },
    {
      "channel": 0,
      "note": 64,
      "start": 8.2027,
      "duration": 0.1687,
      "velocity": 115,
      "chip": "ym2612"
    },
    {
      "channel": 2,
      "note": 67,
      "start": 8.2029,
      "duration": 0.1718,
      "velocity": 118,
      "chip": "ym2612"
    },
    {
      "channel": 0,
      "note": 69,
      "start": 8.3716,
      "duration": 0.0028,
      "velocity": 115,
      "chip": "ym2612"
    },
    {
      "channel": 1,
      "note": 64,
      "start": 8.372,
      "duration": 0.0037,
      "velocity": 118,
      "chip": "ym2612"
    },
    {
      "channel": 0,
      "note": 67,
      "start": 8.3746,
      "duration": 0.0009,
      "velocity": 115,
      "chip": "ym2612"
    },
    {
      "channel": 2,
      "note": 64,
      "start": 8.3748,
      "duration": 0.0032,
      "velocity": 118,
      "chip": "ym2612"
    },
    {
      "channel": 0,
      "note": 64,
      "start": 8.3756,
      "duration": 0.002,
      "velocity": 115,
      "chip": "ym2612"
    },
    {
      "channel": 1,
      "note": 67,
      "start": 8.3758,
      "duration": 0.0021,
      "velocity": 118,
      "chip": "ym2612"
    },
    {
      "channel": 0,
      "note": 66,
      "start": 8.3778,
      "duration": 0.1523,
      "velocity": 115,
      "chip": "ym2612"
    },
    {
      "channel": 1,
      "note": 66,
      "start": 8.378,
      "duration": 0.1612,
      "velocity": 118,
      "chip": "ym2612"
    },
    {
      "channel": 2,
      "note": 67,
      "start": 8.3783,
      "duration": 0.1523,
      "velocity": 118,
      "chip": "ym2612"
    },
    {
      "channel": 0,
      "note": 57,
      "start": 8.5303,
      "duration": 0.0029,
      "velocity": 115,
      "chip": "ym2612"
    },
    {
      "channel": 2,
      "note": 66,
      "start": 8.5308,
      "duration": 0.0089,
      "velocity": 118,
      "chip": "ym2612"
    },
    {
      "channel": 3,
      "note": 54,
      "start": 8.531,
      "duration": 0.0006,
      "velocity": 105,
      "chip": "ym2612"
    },
    {
      "channel": 3,
      "note": 55,
      "start": 8.5319,
      "duration": 0.0017,
      "velocity": 105,
      "chip": "ym2612"
    },
    {
      "channel": 0,
      "note": 59,
      "start": 8.5334,
      "duration": 0.0021,
      "velocity": 115,
      "chip": "ym2612"
    },
    {
      "channel": 3,
      "note": 57,
      "start": 8.5337,
      "duration": 0.001,
      "velocity": 105,
      "chip": "ym2612"
    },
    {
      "channel": 3,
      "note": 59,
      "start": 8.5348,
      "duration": 0.0011,
      "velocity": 105,
      "chip": "ym2612"
    },
    {
      "channel": 0,
      "note": 61,
      "start": 8.5357,
      "duration": 0.0033,
      "velocity": 115,
      "chip": "ym2612"
    },
    {
      "channel": 3,
      "note": 61,
      "start": 8.5361,
      "duration": 0.0012,
      "velocity": 105,
      "chip": "ym2612"
    },
    {
      "channel": 3,
      "note": 64,
      "start": 8.5374,
      "duration": 0.0026,
      "velocity": 105,
      "chip": "ym2612"
    },
    {
      "channel": 0,
      "note": 62,
      "start": 8.5391,
      "duration": 0.169,
      "velocity": 115,
      "chip": "ym2612"
    },
    {
      "channel": 1,
      "note": 69,
      "start": 8.5394,
      "duration": 0.1795,
      "velocity": 118,
      "chip": "ym2612"
    },
    {
      "channel": 2,
      "note": 57,
      "start": 8.5399,
      "duration": 0.1799,
      "velocity": 121,
      "chip": "ym2612"
    },
    {
      "channel": 4,
      "note": 66,
      "start": 8.5404,
      "duration": 0.1798,
      "velocity": 105,
      "chip": "ym2612"
    },
    {
      "channel": 0,
      "note": 64,
      "start": 8.7083,
      "duration": 0.0034,
      "velocity": 115,
      "chip": "ym2612"
    },
    {
      "channel": 3,
      "note": 74,
      "start": 8.7089,
      "duration": 0.0011,
      "velocity": 105,
      "chip": "ym2612"
    },
    {
      "channel": 3,
      "note": 76,
      "start": 8.7101,
      "duration": 0.002,
      "velocity": 105,
      "chip": "ym2612"
    },
    {
      "channel": 0,
      "note": 66,
      "start": 8.7118,
      "duration": 0.0031,
      "velocity": 115,
      "chip": "ym2612"
    },
    {
      "channel": 3,
      "note": 78,
      "start": 8.7124,
      "duration": 0.0029,
      "velocity": 105,
      "chip": "ym2612"
    },
    {
      "channel": 0,
      "note": 67,
      "start": 8.7151,
      "duration": 0.0034,
      "velocity": 115,
      "chip": "ym2612"
    },
    {
      "channel": 3,
      "note": 74,
      "start": 8.7155,
      "duration": 0.0012,
      "velocity": 105,
      "chip": "ym2612"
    },
    {
      "channel": 3,
      "note": 76,
      "start": 8.717,
      "duration": 0.0029,
      "velocity": 105,
      "chip": "ym2612"
    },
    {
      "channel": 0,
      "note": 71,
      "start": 8.7186,
      "duration": 0.1517,
      "velocity": 115,
      "chip": "ym2612"
    },
    {
      "channel": 3,
      "note": 78,
      "start": 8.7201,
      "duration": 0.1511,
      "velocity": 105,
      "chip": "ym2612"
    },
    {
      "channel": 0,
      "note": 74,
      "start": 8.8705,
      "duration": 0.08,
      "velocity": 115,
      "chip": "ym2612"
    },
    {
      "channel": 1,
      "note": 67,
      "start": 8.8708,
      "duration": 0.0025,
      "velocity": 118,
      "chip": "ym2612"
    },
    {
      "channel": 2,
      "note": 67,
      "start": 8.8711,
      "duration": 0.0025,
      "velocity": 121,
      "chip": "ym2612"
    },
    {
      "channel": 1,
      "note": 69,
      "start": 8.8736,
      "duration": 0.0772,
      "velocity": 118,
      "chip": "ym2612"
    },
    {
      "channel": 2,
      "note": 69,
      "start": 8.8738,
      "duration": 0.0773,
      "velocity": 121,
      "chip": "ym2612"
    },
    {
      "channel": 0,
      "note": 67,
      "start": 8.9507,
      "duration": 0.0011,
      "velocity": 115,
      "chip": "ym2612"
    },
    {
      "channel": 1,
      "note": 71,
      "start": 8.951,
      "duration": 0.001,
      "velocity": 118,
      "chip": "ym2612"
    },
    {
      "channel": 2,
      "note": 71,
      "start": 8.9513,
      "duration": 0.0009,
      "velocity": 121,
      "chip": "ym2612"
    },
    {
      "channel": 0,
      "note": 74,
      "start": 8.952,
      "duration": 0.0019,
      "velocity": 115,
      "chip": "ym2612"
    },
    {
      "channel": 1,
      "note": 71,
      "start": 8.9521,
      "duration": 0.002,
      "velocity": 118,
      "chip": "ym2612"
    },
    {
      "channel": 2,
      "note": 71,
      "start": 8.9522,
      "duration": 0.002,
      "velocity": 121,
      "chip": "ym2612"
    },
    {
      "channel": 0,
      "note": 71,
      "start": 8.954,
      "duration": 0.1521,
      "velocity": 115,
      "chip": "ym2612"
    },
    {
      "channel": 1,
      "note": 71,
      "start": 8.9541,
      "duration": 0.2224,
      "velocity": 118,
      "chip": "ym2612"
    },
    {
      "channel": 2,
      "note": 71,
      "start": 8.9543,
      "duration": 0.2225,
      "velocity": 121,
      "chip": "ym2612"
    },
    {
      "channel": 3,
      "note": 59,
      "start": 8.9546,
      "duration": 0.0517,
      "velocity": 105,
      "chip": "ym2612"
    },
    {
      "channel": 3,
      "note": 61,
      "start": 9.0065,
      "duration": 0.1001,
      "velocity": 105,
      "chip": "ym2612"
    },
    {
      "channel": 0,
      "note": 74,
      "start": 9.1062,
      "duration": 0.0032,
      "velocity": 115,
      "chip": "ym2612"
    },
    {
      "channel": 3,
      "note": 62,
      "start": 9.1068,
      "duration": 0.001,
      "velocity": 105,
      "chip": "ym2612"
    },
    {
      "channel": 3,
      "note": 64,
      "start": 9.108,
      "duration": 0.0019,
      "velocity": 105,
      "chip": "ym2612"
    },
    {
      "channel": 0,
      "note": 62,
      "start": 9.1097,
      "duration": 0.003,
      "velocity": 115,
      "chip": "ym2612"
    },
    {
      "channel": 3,
      "note": 66,
      "start": 9.1101,
      "duration": 0.0013,
      "velocity": 105,
      "chip": "ym2612"
    },
    {
      "channel": 3,
      "note": 67,
      "start": 9.1116,
      "duration": 0.0015,
      "velocity": 105,
      "chip": "ym2612"
    },
    {
      "channel": 0,
      "note": 74,
      "start": 9.1128,
      "duration": 0.0635,
      "velocity": 115,
      "chip": "ym2612"
    },
    {
      "channel": 3,
      "note": 69,
      "start": 9.1132,
      "duration": 0.0027,
      "velocity": 105,
      "chip": "ym2612"
    },
    {
      "channel": 3,
      "note": 71,
      "start": 9.1161,
      "duration": 0.0608,
      "velocity": 105,
      "chip": "ym2612"
    },
    {
      "channel": 0,
      "note": 73,
      "start": 9.1765,
      "duration": 0.1527,
      "velocity": 115,
      "chip": "ym2612"
    },
    {
      "channel": 0,
      "note": 76,
      "start": 9.3294,
      "duration": 0.0632,
      "velocity": 115,
      "chip": "ym2612"
    },
    {
      "channel": 1,
      "note": 69,
      "start": 9.3298,
      "duration": 0.0025,
      "velocity": 118,
      "chip": "ym2612"
    },
    {
      "channel": 2,
      "note": 69,
      "start": 9.33,
      "duration": 0.0025,
      "velocity": 121,
      "chip": "ym2612"
    },
    {
      "channel": 1,
      "note": 71,
      "start": 9.3324,
      "duration": 0.0605,
      "velocity": 118,
      "chip": "ym2612"
    },
    {
      "channel": 2,
      "note": 71,
      "start": 9.3326,
      "duration": 0.0607,
      "velocity": 121,
      "chip": "ym2612"
    },
    {
      "channel": 0,
      "note": 69,
      "start": 9.3929,
      "duration": 0.0011,
      "velocity": 115,
      "chip": "ym2612"
    },
    {
      "channel": 1,
      "note": 73,
      "start": 9.3932,
      "duration": 0.001,
      "velocity": 118,
      "chip": "ym2612"
    },
    {
      "channel": 2,
      "note": 73,
      "start": 9.3934,
      "duration": 0.0009,
      "velocity": 121,
      "chip": "ym2612"
    },
    {
      "channel": 0,
      "note": 76,
      "start": 9.3942,
      "duration": 0.0017,
      "velocity": 115,
      "chip": "ym2612"
    },
    {
      "channel": 1,
      "note": 73,
      "start": 9.3943,
      "duration": 0.0018,
      "velocity": 118,
      "chip": "ym2612"
    },
    {
      "channel": 2,
      "note": 73,
      "start": 9.3944,
      "duration": 0.0019,
      "velocity": 121,
      "chip": "ym2612"
    },
    {
      "channel": 0,
      "note": 73,
      "start": 9.396,
      "duration": 0.1521,
      "velocity": 115,
      "chip": "ym2612"
    },
    {
      "channel": 1,
      "note": 73,
      "start": 9.3962,
      "duration": 0.2221,
      "velocity": 118,
      "chip": "ym2612"
    },
    {
      "channel": 2,
      "note": 73,
      "start": 9.3963,
      "duration": 0.2222,
      "velocity": 121,
      "chip": "ym2612"
    },
    {
      "channel": 3,
      "note": 61,
      "start": 9.3966,
      "duration": 0.0517,
      "velocity": 105,
      "chip": "ym2612"
    },
    {
      "channel": 3,
      "note": 62,
      "start": 9.4485,
      "duration": 0.1001,
      "velocity": 105,
      "chip": "ym2612"
    },
    {
      "channel": 0,
      "note": 76,
      "start": 9.5483,
      "duration": 0.0031,
      "velocity": 115,
      "chip": "ym2612"
    },
    {
      "channel": 3,
      "note": 64,
      "start": 9.5488,
      "duration": 0.001,
      "velocity": 105,
      "chip": "ym2612"
    },
    {
      "channel": 3,
      "note": 66,
      "start": 9.5501,
      "duration": 0.0018,
      "velocity": 105,
      "chip": "ym2612"
    },
    {
      "channel": 0,
      "note": 64,
      "start": 9.5515,
      "duration": 0.0031,
      "velocity": 115,
      "chip": "ym2612"
    },
    {
      "channel": 3,
      "note": 67,
      "start": 9.5521,
      "duration": 0.0016,
      "velocity": 105,
      "chip": "ym2612"
    },
    {
      "channel": 3,
      "note": 69,
      "start": 9.5539,
      "duration": 0.0011,
      "velocity": 105,
      "chip": "ym2612"
    },
    {
      "channel": 0,
      "note": 76,
      "start": 9.5548,
      "duration": 0.0633,
      "velocity": 115,
      "chip": "ym2612"
    },
    {
      "channel": 3,
      "note": 71,
      "start": 9.5553,
      "duration": 0.0024,
      "velocity": 105,
      "chip": "ym2612"
    },
    {
      "channel": 3,
      "note": 73,
      "start": 9.5578,
      "duration": 0.0609,
      "velocity": 105,
      "chip": "ym2612"
    },
    {
      "channel": 0,
      "note": 74,
      "start": 9.6183,
      "duration": 0.1694,
      "velocity": 115,
      "chip": "ym2612"
    },
    {
      "channel": 0,
      "note": 78,
      "start": 9.7878,
      "duration": 0.0633,
      "velocity": 115,
      "chip": "ym2612"
    },
    {
      "channel": 1,
      "note": 71,
      "start": 9.7881,
      "duration": 0.0025,
      "velocity": 118,
      "chip": "ym2612"
    },
    {
      "channel": 2,
      "note": 71,
      "start": 9.7884,
      "duration": 0.0024,
      "velocity": 121,
      "chip": "ym2612"
    },
    {
      "channel": 1,
      "note": 73,
      "start": 9.7908,
      "duration": 0.0606,
      "velocity": 118,
      "chip": "ym2612"
    },
    {
      "channel": 2,
      "note": 73,
      "start": 9.791,
      "duration": 0.0607,
      "velocity": 121,
      "chip": "ym2612"
    },
    {
      "channel": 0,
      "note": 71,
      "start": 9.8513,
      "duration": 0.0011,
      "velocity": 115,
      "chip": "ym2612"
    },
    {
      "channel": 1,
      "note": 74,
      "start": 9.8516,
      "duration": 0.001,
      "velocity": 118,
      "chip": "ym2612"
    },
    {
      "channel": 2,
      "note": 74,
      "start": 9.8519,
      "duration": 0.0009,
      "velocity": 121,
      "chip": "ym2612"
    },
    {
      "channel": 0,
      "note": 78,
      "start": 9.8526,
      "duration": 0.0039,
      "velocity": 115,
      "chip": "ym2612"
    },
    {
      "channel": 1,
      "note": 74,
      "start": 9.8527,
      "duration": 0.004,
      "velocity": 118,
      "chip": "ym2612"
    },
    {
      "channel": 2,
      "note": 74,
      "start": 9.8528,
      "duration": 0.0039,
      "velocity": 121,
      "chip": "ym2612"
    },
    {
      "channel": 0,
      "note": 74,
      "start": 9.8566,
      "duration": 0.152,
      "velocity": 115,
      "chip": "ym2612"
    },
    {
      "channel": 1,
      "note": 74,
      "start": 9.8567,
      "duration": 0.1614,
      "velocity": 118,
      "chip": "ym2612"
    },
    {
      "channel": 2,
      "note": 74,
      "start": 9.8568,
      "duration": 0.1624,
      "velocity": 118,
      "chip": "ym2612"
    },
    {
      "channel": 3,
      "note": 62,
      "start": 9.8571,
      "duration": 0.0518,
      "velocity": 105,
      "chip": "ym2612"
    },
    {
      "channel": 3,
      "note": 64,
      "start": 9.9091,
      "duration": 0.1001,
      "velocity": 105,
      "chip": "ym2612"
    },
    {
      "channel": 0,
      "note": 78,
      "start": 10.0088,
      "duration": 0.0032,
      "velocity": 115,
      "chip": "ym2612"
    },
    {
      "channel": 3,
      "note": 66,
      "start": 10.0094,
      "duration": 0.001,
      "velocity": 105,
      "chip": "ym2612"
    },
    {
      "channel": 3,
      "note": 67,
      "start": 10.0106,
      "duration": 0.002,
      "velocity": 105,
      "chip": "ym2612"
    },
    {
      "channel": 0,
      "note": 66,
      "start": 10.0122,
      "duration": 0.003,
      "velocity": 115,
      "chip": "ym2612"
    },
    {
      "channel": 3,
      "note": 69,
      "start": 10.0128,
      "duration": 0.0016,
      "velocity": 105,
      "chip": "ym2612"
    },
    {
      "channel": 3,
      "note": 71,
      "start": 10.0145,
      "duration": 0.0012,
      "velocity": 105,
      "chip": "ym2612"
    },
    {
      "channel": 0,
      "note": 78,
      "start": 10.0154,
      "duration": 0.0023,
      "velocity": 115,
      "chip": "ym2612"
    },
    {
      "channel": 3,
      "note": 73,
      "start": 10.0159,
      "duration": 0.001,
      "velocity": 105,
      "chip": "ym2612"
    },
    {
      "channel": 3,
      "note": 74,
      "start": 10.017,
      "duration": 0.0023,
      "velocity": 105,
      "chip": "ym2612"
    },
    {
      "channel": 0,
      "note": 76,
      "start": 10.0179,
      "duration": 0.1686,
      "velocity": 115,
      "chip": "ym2612"
    },
    {
      "channel": 1,
      "note": 76,
      "start": 10.0183,
      "duration": 0.1685,
      "velocity": 118,
      "chip": "ym2612"
    },
    {
      "channel": 2,
      "note": 73,
      "start": 10.0193,
      "duration": 0.1678,
      "velocity": 118,
      "chip": "ym2612"
    },
    {
      "channel": 0,
      "note": 69,
      "start": 10.1867,
      "duration": 0.0011,
      "velocity": 115,
      "chip": "ym2612"
    },
    {
      "channel": 1,
      "note": 69,
      "start": 10.187,
      "duration": 0.0017,
      "velocity": 118,
      "chip": "ym2612"
    },
    {
      "channel": 2,
      "note": 66,
      "start": 10.1873,
      "duration": 0.0016,
      "velocity": 118,
      "chip": "ym2612"
    },
    {
      "channel": 0,
      "note": 73,
      "start": 10.1879,
      "duration": 0.0006,
      "velocity": 115,
      "chip": "ym2612"
    },
    {
      "channel": 0,
      "note": 71,
      "start": 10.1886,
      "duration": 0.0043,
      "velocity": 115,
      "chip": "ym2612"
    },
    {
      "channel": 1,
      "note": 71,
      "start": 10.1888,
      "duration": 0.1563,
      "velocity": 118,
      "chip": "ym2612"
    },
    {
      "channel": 2,
      "note": 67,
      "start": 10.189,
      "duration": 0.1564,
      "velocity": 118,
      "chip": "ym2612"
    },
    {
      "channel": 0,
      "note": 73,
      "start": 10.193,
      "duration": 0.1518,
      "velocity": 115,
      "chip": "ym2612"
    },
    {
      "channel": 0,
      "note": 69,
      "start": 10.345,
      "duration": 0.0795,
      "velocity": 115,
      "chip": "ym2612"
    },
    {
      "channel": 1,
      "note": 69,
      "start": 10.3454,
      "duration": 0.0812,
      "velocity": 118,
      "chip": "ym2612"
    },
    {
      "channel": 2,
      "note": 66,
      "start": 10.3456,
      "duration": 0.0812,
      "velocity": 118,
      "chip": "ym2612"
    },
    {
      "channel": 0,
      "note": 71,
      "start": 10.4248,
      "duration": 0.0016,
      "velocity": 115,
      "chip": "ym2612"
    },
    {
      "channel": 0,
      "note": 73,
      "start": 10.4265,
      "duration": 0.0627,
      "velocity": 115,
      "chip": "ym2612"
    },
    {
      "channel": 1,
      "note": 78,
      "start": 10.4267,
      "duration": 0.0628,
      "velocity": 118,
      "chip": "ym2612"
    },
    {
      "channel": 2,
      "note": 74,
      "start": 10.4271,
      "duration": 0.0627,
      "velocity": 118,
      "chip": "ym2612"
    },
    {
      "channel": 0,
      "note": 76,
      "start": 10.4894,
      "duration": 0.1691,
      "velocity": 115,
      "chip": "ym2612"
    },
    {
      "channel": 1,
      "note": 76,
      "start": 10.4898,
      "duration": 0.2377,
      "velocity": 118,
      "chip": "ym2612"
    },
    {
      "channel": 2,
      "note": 73,
      "start": 10.49,
      "duration": 0.2377,
      "velocity": 118,
      "chip": "ym2612"
    },
    {
      "channel": 0,
      "note": 69,
      "start": 10.6588,
      "duration": 0.0631,
      "velocity": 115,
      "chip": "ym2612"
    },
    {
      "channel": 0,
      "note": 71,
      "start": 10.7221,
      "duration": 0.0024,
      "velocity": 115,
      "chip": "ym2612"
    },
    {
      "channel": 0,
      "note": 73,
      "start": 10.7247,
      "duration": 0.0025,
      "velocity": 115,
      "chip": "ym2612"
    },
    {
      "channel": 0,
      "note": 69,
      "start": 10.7274,
      "duration": 0.1522,
      "velocity": 115,
      "chip": "ym2612"
    },
    {
      "channel": 1,
      "note": 79,
      "start": 10.7276,
      "duration": 0.2381,
      "velocity": 121,
      "chip": "ym2612"
    },
    {
      "channel": 2,
      "note": 76,
      "start": 10.7278,
      "duration": 0.239,
      "velocity": 121,
      "chip": "ym2612"
    },
    {
      "channel": 3,
      "note": 64,
      "start": 10.7282,
      "duration": 0.2398,
      "velocity": 121,
      "chip": "ym2612"
    },
    {
      "channel": 4,
      "note": 67,
      "start": 10.7285,
      "duration": 0.24,
      "velocity": 105,
      "chip": "ym2612"
    },
    {
      "channel": 0,
      "note": 67,
      "start": 10.8798,
      "duration": 0.0798,
      "velocity": 115,
      "chip": "ym2612"
    },
    {
      "channel": 0,
      "note": 66,
      "start": 10.9598,
      "duration": 0.0025,
      "velocity": 115,
      "chip": "ym2612"
    },
    {
      "channel": 0,
      "note": 69,
      "start": 10.9624,
      "duration": 0.0021,
      "velocity": 115,
      "chip": "ym2612"
    },
    {
      "channel": 0,
      "note": 62,
      "start": 10.9647,
      "duration": 0.1691,
      "velocity": 115,
      "chip": "ym2612"
    },
    {
      "channel": 1,
      "note": 81,
      "start": 10.9659,
      "duration": 0.1681,
      "velocity": 121,
      "chip": "ym2612"
    },
    {
      "channel": 2,
      "note": 81,
      "start": 10.9671,
      "duration": 0.1673,
      "velocity": 121,
      "chip": "ym2612"
    },
    {
      "channel": 3,
      "note": 62,
      "start": 10.9682,
      "duration": 0.1664,
      "velocity": 121,
      "chip": "ym2612"
    },
    {
      "channel": 0,
      "note": 69,
      "start": 11.134,
      "duration": 0.0017,
      "velocity": 115,
      "chip": "ym2612"
    },
    {
      "channel": 1,
      "note": 78,
      "start": 11.1343,
      "duration": 0.0017,
      "velocity": 121,
      "chip": "ym2612"
    },
    {
      "channel": 2,
      "note": 78,
      "start": 11.1346,
      "duration": 0.0018,
      "velocity": 121,
      "chip": "ym2612"
    },
    {
      "channel": 3,
      "note": 50,
      "start": 11.1348,
      "duration": 0.0018,
      "velocity": 121,
      "chip": "ym2612"
    },
    {
      "channel": 0,
      "note": 66,
      "start": 11.1359,
      "duration": 0.0014,
      "velocity": 115,
      "chip": "ym2612"
    },
    {
      "channel": 1,
      "note": 79,
      "start": 11.1362,
      "duration": 0.0013,
      "velocity": 121,
      "chip": "ym2612"
    },
    {
      "channel": 2,
      "note": 79,
      "start": 11.1366,
      "duration": 0.0012,
      "velocity": 121,
      "chip": "ym2612"
    },
    {
      "channel": 3,
      "note": 61,
      "start": 11.1368,
      "duration": 0.0012,
      "velocity": 121,
      "chip": "ym2612"
    },
    {
      "channel": 0,
      "note": 69,
      "start": 11.1375,
      "duration": 0.0646,
      "velocity": 115,
      "chip": "ym2612"
    },
    {
      "channel": 1,
      "note": 76,
      "start": 11.1377,
      "duration": 0.0646,
      "velocity": 121,
      "chip": "ym2612"
    },
    {
      "channel": 2,
      "note": 76,
      "start": 11.138,
      "duration": 0.0646,
      "velocity": 121,
      "chip": "ym2612"
    },
    {
      "channel": 3,
      "note": 54,
      "start": 11.1382,
      "duration": 0.0647,
      "velocity": 121,
      "chip": "ym2612"
    },
    {
      "channel": 0,
      "note": 57,
      "start": 11.2023,
      "duration": 0.1527,
      "velocity": 115,
      "chip": "ym2612"
    },
    {
      "channel": 1,
      "note": 78,
      "start": 11.2025,
      "duration": 0.1527,
      "velocity": 121,
      "chip": "ym2612"
    },
    {
      "channel": 2,
      "note": 78,
      "start": 11.2028,
      "duration": 0.1527,
      "velocity": 121,
      "chip": "ym2612"
    },
    {
      "channel": 3,
      "note": 59,
      "start": 11.2031,
      "duration": 0.1527,
      "velocity": 121,
      "chip": "ym2612"
    },
    {
      "channel": 0,
      "note": 69,
      "start": 11.3552,
      "duration": 0.0801,
      "velocity": 115,
      "chip": "ym2612"
    },
    {
      "channel": 1,
      "note": 74,
      "start": 11.3554,
      "duration": 0.0801,
      "velocity": 121,
      "chip": "ym2612"
    },
    {
      "channel": 2,
      "note": 74,
      "start": 11.3557,
      "duration": 0.0801,
      "velocity": 121,
      "chip": "ym2612"
    },
    {
      "channel": 3,
      "note": 50,
      "start": 11.356,
      "duration": 0.0801,
      "velocity": 121,
      "chip": "ym2612"
    },
    {
      "channel": 0,
      "note": 66,
      "start": 11.4355,
      "duration": 0.0013,
      "velocity": 115,
      "chip": "ym2612"
    },
    {
      "channel": 1,
      "note": 76,
      "start": 11.4357,
      "duration": 0.0013,
      "velocity": 121,
      "chip": "ym2612"
    },
    {
      "channel": 2,
      "note": 76,
      "start": 11.436,
      "duration": 0.0012,
      "velocity": 121,
      "chip": "ym2612"
    },
    {
      "channel": 3,
      "note": 57,
      "start": 11.4363,
      "duration": 0.0012,
      "velocity": 121,
      "chip": "ym2612"
    },
    {
      "channel": 0,
      "note": 69,
      "start": 11.437,
      "duration": 0.0008,
      "velocity": 115,
      "chip": "ym2612"
    },
    {
      "channel": 1,
      "note": 73,
      "start": 11.4372,
      "duration": 0.0009,
      "velocity": 121,
      "chip": "ym2612"
    },
    {
      "channel": 2,
      "note": 73,
      "start": 11.4374,
      "duration": 0.001,
      "velocity": 121,
      "chip": "ym2612"
    },
    {
      "channel": 3,
      "note": 54,
      "start": 11.4377,
      "duration": 0.0011,
      "velocity": 121,
      "chip": "ym2612"
    },
    {
      "channel": 0,
      "note": 66,
      "start": 11.438,
      "duration": 0.152,
      "velocity": 115,
      "chip": "ym2612"
    },
    {
      "channel": 1,
      "note": 71,
      "start": 11.4383,
      "duration": 0.1519,
      "velocity": 121,
      "chip": "ym2612"
    },
    {
      "channel": 2,
      "note": 81,
      "start": 11.4386,
      "duration": 0.1518,
      "velocity": 121,
      "chip": "ym2612"
    },
    {
      "channel": 3,
      "note": 54,
      "start": 11.439,
      "duration": 0.1518,
      "velocity": 121,
      "chip": "ym2612"
    },
    {
      "channel": 0,
      "note": 69,
      "start": 11.5901,
      "duration": 0.0635,
      "velocity": 115,
      "chip": "ym2612"
    },
    {
      "channel": 1,
      "note": 73,
      "start": 11.5904,
      "duration": 0.0635,
      "velocity": 121,
      "chip": "ym2612"
    },
    {
      "channel": 2,
      "note": 78,
      "start": 11.5907,
      "duration": 0.0634,
      "velocity": 121,
      "chip": "ym2612"
    },
    {
      "channel": 3,
      "note": 59,
      "start": 11.591,
      "duration": 0.0647,
      "velocity": 121,
      "chip": "ym2612"
    },
    {
      "channel": 0,
      "note": 66,
      "start": 11.6538,
      "duration": 0.0011,
      "velocity": 115,
      "chip": "ym2612"
    },
    {
      "channel": 1,
      "note": 71,
      "start": 11.6541,
      "duration": 0.001,
      "velocity": 121,
      "chip": "ym2612"
    },
    {
      "channel": 2,
      "note": 79,
      "start": 11.6543,
      "duration": 0.001,
      "velocity": 121,
      "chip": "ym2612"
    },
    {
      "channel": 0,
      "note": 73,
      "start": 11.6551,
      "duration": 0.065,
      "velocity": 115,
      "chip": "ym2612"
    },
    {
      "channel": 1,
      "note": 73,
      "start": 11.6553,
      "duration": 0.065,
      "velocity": 121,
      "chip": "ym2612"
    },
    {
      "channel": 2,
      "note": 76,
      "start": 11.6556,
      "duration": 0.065,
      "velocity": 121,
      "chip": "ym2612"
    },
    {
      "channel": 3,
      "note": 61,
      "start": 11.6558,
      "duration": 0.2174,
      "velocity": 121,
      "chip": "ym2612"
    },
    {
      "channel": 0,
      "note": 62,
      "start": 11.7203,
      "duration": 0.1526,
      "velocity": 115,
      "chip": "ym2612"
    },
    {
      "channel": 1,
      "note": 74,
      "start": 11.7205,
      "duration": 0.1567,
      "velocity": 121,
      "chip": "ym2612"
    },
    {
      "channel": 2,
      "note": 78,
      "start": 11.7208,
      "duration": 0.1565,
      "velocity": 121,
      "chip": "ym2612"
    },
    {
      "channel": 0,
      "note": 64,
      "start": 11.8731,
      "duration": 0.0011,
      "velocity": 115,
      "chip": "ym2612"
    },
    {
      "channel": 3,
      "note": 59,
      "start": 11.8734,
      "duration": 0.0005,
      "velocity": 121,
      "chip": "ym2612"
    },
    {
      "channel": 3,
      "note": 60,
      "start": 11.8741,
      "duration": 0.0003,
      "velocity": 121,
      "chip": "ym2612"
    },
    {
      "channel": 0,
      "note": 66,
      "start": 11.8744,
      "duration": 0.0011,
      "velocity": 115,
      "chip": "ym2612"
    },
    {
      "channel": 3,
      "note": 61,
      "start": 11.8746,
      "duration": 0.0013,
      "velocity": 121,
      "chip": "ym2612"
    },
    {
      "channel": 0,
      "note": 64,
      "start": 11.8757,
      "duration": 0.0011,
      "velocity": 115,
      "chip": "ym2612"
    },
    {
      "channel": 3,
      "note": 57,
      "start": 11.8761,
      "duration": 0.0005,
      "velocity": 121,
      "chip": "ym2612"
    },
    {
      "channel": 3,
      "note": 64,
      "start": 11.8768,
      "duration": 0.0007,
      "velocity": 121,
      "chip": "ym2612"
    },
    {
      "channel": 0,
      "note": 62,
      "start": 11.877,
      "duration": 0.1524,
      "velocity": 115,
      "chip": "ym2612"
    },
    {
      "channel": 3,
      "note": 62,
      "start": 11.8777,
      "duration": 0.154,
      "velocity": 121,
      "chip": "ym2612"
    },
    {
      "channel": 0,
      "note": 66,
      "start": 12.0296,
      "duration": 24.971,
      "velocity": 115,
      "chip": "ym2612"
    },
    {
      "channel": 1,
      "note": 66,
      "start": 12.0306,
      "duration": 0.0033,
      "velocity": 123,
      "chip": "ym2612"
    },
    {
      "channel": 3,
      "note": 45,
      "start": 12.032,
      "duration": 24.9686,
      "velocity": 121,
      "chip": "ym2612"
    },
    {
      "channel": 2,
      "note": 66,
      "start": 12.0338,
      "duration": 0.0111,
      "velocity": 123,
      "chip": "ym2612"
    },
    {
      "channel": 1,
      "note": 67,
      "start": 12.0341,
      "duration": 24.9666,
      "velocity": 123,
      "chip": "ym2612"
    },
    {
      "channel": 2,
      "note": 67,
      "start": 12.0451,
      "duration": 24.9555,
      "velocity": 123,
      "chip": "ym2612"
    }
  ]
}