{
  "track_name": "02 - Picnic",
  "duration_sec": 48.686,
  "sample_rate": 44100,
  "note_count": 15496,
  "unique_pitches": 54,
  "pitch_range": 69,
  "avg_note_duration": 0.016,
  "reconstruction_stats": {
    "notes_reconstructed": 15496,
    "keyon_events": 15496,
    "keyoff_events": 1811,
    "orphan_keyons": 3,
    "unique_pitches": 54,
    "pitch_range": 69,
    "avg_duration_sec": 0.016
  },
  "metadata": {
    "source": "S\\Super Fantasy Zone\\02 - Picnic.vgz"
  },
  "notes": [
    {
      "channel": 0,
      "note": 40,
      "start": 0.0,
      "duration": 0.0,
      "velocity": 115,
      "chip": "ym2612"
    },
    {
      "channel": 0,
      "note": 41,
      "start": 0.0,
      "duration": 0.0,
      "velocity": 115,
      "chip": "ym2612"
    },
    {
      "channel": 0,
      "note": 41,
      "start": 0.0,
      "duration": 0.0,
      "velocity": 115,
      "chip": "ym2612"
    },
    {
      "channel": 0,
      "note": 42,
      "start": 0.0,
      "duration": 0.0,
      "velocity": 115,
      "chip": "ym2612"
    },
    {
      "channel": 0,
      "note": 42,
      "start": 0.0,
      "duration": 0.0,
      "velocity": 115,
      "chip": "ym2612"
    },
    {
      "channel": 0,
      "note": 43,
      "start": 0.0,
      "duration": 0.0,
      "velocity": 115,
      "chip": "ym2612"
    },
    {
      "channel": 0,
      "note": 43,
      "start": 0.0,
      "duration": 0.0,
      "velocity": 115,
      "chip": "ym2612"
    },
    {
      "channel": 0,
      "note": 44,
      "start": 0.0,
      "duration": 0.0,
      "velocity": 115,
      "chip": "ym2612"
    },
    {
      "channel": 0,
      "note": 44,
      "start": 0.0,
      "duration": 0.0,
      "velocity": 1,
      "chip": "ym2612"
    },
    {
      "channel": 1,
      "note": 79,
      "start": 0.0,
      "duration": 0.0,
      "velocity": 127,
      "chip": "ym2612"
    },
    {
      "channel": 1,
      "note": 79,
      "start": 0.0,
      "duration": 0.0,
      "velocity": 127,
      "chip": "ym2612"
    },
    {
      "channel": 1,
      "note": 79,
      "start": 0.0,
      "duration": 0.0,
      "velocity": 127,
      "chip": "ym2612"
    },
    {
      "channel": 1,
      "note": 79,
      "start": 0.0,
      "duration": 0.0,
      "velocity": 127,
      "chip": "ym2612"
    },
    {
      "channel": 1,
      "note": 79,
      "start": 0.0,
      "duration": 0.0,
      "velocity": 127,
      "chip": "ym2612"
    },
    {
      "channel": 1,
      "note": 79,
      "start": 0.0,
      "duration": 0.0,
      "velocity": 127,
      "chip": "ym2612"
    },
    {
      "channel": 1,
      "note": 79,
      "start": 0.0,
      "duration": 0.0,
      "velocity": 127,
      "chip": "ym2612"
    },
    {
      "channel": 1,
      "note": 79,
      "start": 0.0,
      "duration": 0.0,
      "velocity": 127,
      "chip": "ym2612"
    },
    {
      "channel": 1,
      "note": 79,
      "start": 0.0,
      "duration": 0.0002,
      "velocity": 116,
      "chip": "ym2612"
    },
    {
      "channel": 2,
      "note": 59,
      "start": 0.0,
      "duration": 0.0,
      "velocity": 100,
      "chip": "ym2612"
    },
    {
      "channel": 3,
      "note": 78,
      "start": 0.0,
      "duration": 0.0,
      "velocity": 106,
      "chip": "ym2612"
    },
    {
      "channel": 3,
      "note": 78,
      "start": 0.0,
      "duration": 0.0,
      "velocity": 106,
      "chip": "ym2612"
    },
    {
      "channel": 3,
      "note": 78,
      "start": 0.0,
      "duration": 0.0,
      "velocity": 106,
      "chip": "ym2612"
    },
    {
      "channel": 3,
      "note": 78,
      "start": 0.0,
      "duration": 0.0098,
      "velocity": 96,
      "chip": "ym2612"
    },
    {
      "channel": 4,
      "note": 78,
      "start": 0.0,
      "duration": 0.0,
      "velocity": 106,
      "chip": "ym2612"
    },
    {
      "channel": 4,
      "note": 78,
      "start": 0.0,
      "duration": 0.0,
      "velocity": 106,
      "chip": "ym2612"
    },
    {
      "channel": 4,
      "note": 78,
      "start": 0.0,
      "duration": 0.0,
      "velocity": 106,
      "chip": "ym2612"
    },
    {
      "channel": 4,
      "note": 78,
      "start": 0.0,
      "duration": 0.0164,
      "velocity": 100,
      "chip": "ym2612"
    },
    {
      "channel": 5,
      "note": 71,
      "start": 0.0,
      "duration": 0.0,
      "velocity": 106,
      "chip": "ym2612"
    },
    {
      "channel": 5,
      "note": 71,
      "start": 0.0,
      "duration": 0.0,
      "velocity": 106,
      "chip": "ym2612"
    },
    {
      "channel": 5,
      "note": 71,
      "start": 0.0,
      "duration": 0.0,
      "velocity": 106,
      "chip": "ym2612"
    },
    {
      "channel": 1,
      "note": 68,
      "start": 0.0003,
      "duration": 0.0188,
      "velocity": 116,
      "chip": "ym2612"
    },
    {
      "channel": 0,
      "note": 36,
      "start": 0.0038,
      "duration": 0.0171,
      "velocity": 115,
      "chip": "ym2612"
    },
    {
      "channel": 5,
      "note": 66,
      "start": 0.0068,
      "duration": 0.0153,
      "velocity": 100,
      "chip": "ym2612"
    },
    {
      "channel": 3,
      "note": 74,
      "start": 0.0099,
      "duration": 0.0134,
      "velocity": 96,
      "chip": "ym2612"
    },
    {
      "channel": 2,
      "note": 69,
      "start": 0.0135,
      "duration": 0.011,
      "velocity": 100,
      "chip": "ym2612"
    },
    {
      "channel": 4,
      "note": 50,
      "start": 0.0165,
      "duration": 0.0092,
      "velocity": 100,
      "chip": "ym2612"
    },
    {
      "channel": 1,
      "note": 68,
      "start": 0.0191,
      "duration": 0.0097,
      "velocity": 116,
      "chip": "ym2612"
    },
    {
      "channel": 0,
      "note": 36,
      "start": 0.0209,
      "duration": 0.0096,
      "velocity": 115,
      "chip": "ym2612"
    },
    {
      "channel": 5,
      "note": 66,
      "start": 0.0221,
      "duration": 0.0095,
      "velocity": 100,
      "chip": "ym2612"
    },
    {
      "channel": 3,
      "note": 74,
      "start": 0.0233,
      "duration": 0.0095,
      "velocity": 96,
      "chip": "ym2612"
    },
    {
      "channel": 2,
      "note": 69,
      "start": 0.0245,
      "duration": 0.0095,
      "velocity": 100,
      "chip": "ym2612"
    },
    {
      "channel": 4,
      "note": 50,
      "start": 0.0257,
      "duration": 0.0094,
      "velocity": 100,
      "chip": "ym2612"
    },
    {
      "channel": 1,
      "note": 68,
      "start": 0.0288,
      "duration": 0.0133,
      "velocity": 116,
      "chip": "ym2612"
    },
    {
      "channel": 0,
      "note": 37,
      "start": 0.0305,
      "duration": 0.0139,
      "velocity": 115,
      "chip": "ym2612"
    },
    {
      "channel": 5,
      "note": 66,
      "start": 0.0316,
      "duration": 0.0139,
      "velocity": 100,
      "chip": "ym2612"
    },
    {
      "channel": 3,
      "note": 74,
      "start": 0.0328,
      "duration": 0.0139,
      "velocity": 96,
      "chip": "ym2612"
    },
    {
      "channel": 2,
      "note": 69,
      "start": 0.034,
      "duration": 0.0139,
      "velocity": 100,
      "chip": "ym2612"
    },
    {
      "channel": 4,
      "note": 50,
      "start": 0.0351,
      "duration": 0.0139,
      "velocity": 100,
      "chip": "ym2612"
    },
    {
      "channel": 1,
      "note": 68,
      "start": 0.0421,
      "duration": 0.0161,
      "velocity": 116,
      "chip": "ym2612"
    },
    {
      "channel": 0,
      "note": 37,
      "start": 0.0444,
      "duration": 0.0155,
      "velocity": 115,
      "chip": "ym2612"
    },
    {
      "channel": 5,
      "note": 66,
      "start": 0.0456,
      "duration": 0.0161,
      "velocity": 100,
      "chip": "ym2612"
    },
    {
      "channel": 3,
      "note": 74,
      "start": 0.0467,
      "duration": 0.0161,
      "velocity": 96,
      "chip": "ym2612"
    },
    {
      "channel": 2,
      "note": 69,
      "start": 0.0478,
      "duration": 0.0161,
      "velocity": 100,
      "chip": "ym2612"
    },
    {
      "channel": 4,
      "note": 50,
      "start": 0.049,
      "duration": 0.0161,
      "velocity": 100,
      "chip": "ym2612"
    },
    {
      "channel": 1,
      "note": 68,
      "start": 0.0582,
      "duration": 0.0161,
      "velocity": 116,
      "chip": "ym2612"
    },
    {
      "channel": 0,
      "note": 38,
      "start": 0.0599,
      "duration": 0.0161,
      "velocity": 115,
      "chip": "ym2612"
    },
    {
      "channel": 5,
      "note": 66,
      "start": 0.0617,
      "duration": 0.016,
      "velocity": 100,
      "chip": "ym2612"
    },
    {
      "channel": 3,
      "note": 74,
      "start": 0.0628,
      "duration": 0.0161,
      "velocity": 96,
      "chip": "ym2612"
    },
    {
      "channel": 2,
      "note": 69,
      "start": 0.0639,
      "duration": 0.0161,
      "velocity": 100,
      "chip": "ym2612"
    },
    {
      "channel": 4,
      "note": 50,
      "start": 0.0651,
      "duration": 0.0161,
      "velocity": 100,
      "chip": "ym2612"
    },
    {
      "channel": 1,
      "note": 68,
      "start": 0.0743,
      "duration": 0.0161,
      "velocity": 116,
      "chip": "ym2612"
    },
    {
      "channel": 0,
      "note": 38,
      "start": 0.076,
      "duration": 0.0161,
      "velocity": 115,
      "chip": "ym2612"
    },
    {
      "channel": 5,
      "note": 66,
      "start": 0.0777,
      "duration": 0.0155,
      "velocity": 100,
      "chip": "ym2612"
    },
    {
      "channel": 3,
      "note": 74,
      "start": 0.0789,
      "duration": 0.0161,
      "velocity": 96,
      "chip": "ym2612"
    },
    {
      "channel": 2,
      "note": 69,
      "start": 0.08,
      "duration": 0.0161,
      "velocity": 100,
      "chip": "ym2612"
    },
    {
      "channel": 4,
      "note": 50,
      "start": 0.0812,
      "duration": 0.0161,
      "velocity": 100,
      "chip": "ym2612"
    },
    {
      "channel": 1,
      "note": 68,
      "start": 0.0903,
      "duration": 0.0179,
      "velocity": 116,
      "chip": "ym2612"
    },
    {
      "channel": 0,
      "note": 39,
      "start": 0.0921,
      "duration": 0.0181,
      "velocity": 115,
      "chip": "ym2612"
    },
    {
      "channel": 5,
      "note": 66,
      "start": 0.0932,
      "duration": 0.0186,
      "velocity": 100,
      "chip": "ym2612"
    },
    {
      "channel": 3,
      "note": 74,
      "start": 0.095,
      "duration": 0.0181,
      "velocity": 96,
      "chip": "ym2612"
    },
    {
      "channel": 2,
      "note": 69,
      "start": 0.0961,
      "duration": 0.0181,
      "velocity": 100,
      "chip": "ym2612"
    },
    {
      "channel": 4,
      "note": 50,
      "start": 0.0973,
      "duration": 0.0181,
      "velocity": 100,
      "chip": "ym2612"
    },
    {
      "channel": 1,
      "note": 68,
      "start": 0.1083,
      "duration": 0.0144,
      "velocity": 116,
      "chip": "ym2612"
    },
    {
      "channel": 0,
      "note": 39,
      "start": 0.1102,
      "duration": 0.0142,
      "velocity": 115,
      "chip": "ym2612"
    },
    {
      "channel": 5,
      "note": 66,
      "start": 0.1119,
      "duration": 0.0137,
      "velocity": 100,
      "chip": "ym2612"
    },
    {
      "channel": 3,
      "note": 74,
      "start": 0.1131,
      "duration": 0.0139,
      "velocity": 96,
      "chip": "ym2612"
    },
    {
      "channel": 2,
      "note": 69,
      "start": 0.1143,
      "duration": 0.0143,
      "velocity": 100,
      "chip": "ym2612"
    },
    {
      "channel": 4,
      "note": 50,
      "start": 0.1154,
      "duration": 0.0143,
      "velocity": 100,
      "chip": "ym2612"
    },
    {
      "channel": 1,
      "note": 68,
      "start": 0.1227,
      "duration": 0.016,
      "velocity": 116,
      "chip": "ym2612"
    },
    {
      "channel": 0,
      "note": 40,
      "start": 0.1244,
      "duration": 0.016,
      "velocity": 115,
      "chip": "ym2612"
    },
    {
      "channel": 5,
      "note": 66,
      "start": 0.1255,
      "duration": 0.0161,
      "velocity": 100,
      "chip": "ym2612"
    },
    {
      "channel": 3,
      "note": 74,
      "start": 0.127,
      "duration": 0.0159,
      "velocity": 96,
      "chip": "ym2612"
    },
    {
      "channel": 2,
      "note": 69,
      "start": 0.1286,
      "duration": 0.016,
      "velocity": 100,
      "chip": "ym2612"
    },
    {
      "channel": 4,
      "note": 50,
      "start": 0.1297,
      "duration": 0.016,
      "velocity": 100,
      "chip": "ym2612"
    },
    {
      "channel": 1,
      "note": 68,
      "start": 0.1387,
      "duration": 0.0161,
      "velocity": 116,
      "chip": "ym2612"
    },
    {
      "channel": 0,
      "note": 40,
      "start": 0.1404,
      "duration": 0.0161,
      "velocity": 115,
      "chip": "ym2612"
    },
    {
      "channel": 5,
      "note": 66,
      "start": 0.1416,
      "duration": 0.0161,
      "velocity": 100,
      "chip": "ym2612"
    },
    {
      "channel": 3,
      "note": 74,
      "start": 0.1428,
      "duration": 0.0161,
      "velocity": 96,
      "chip": "ym2612"
    },
    {
      "channel": 2,
      "note": 69,
      "start": 0.1445,
      "duration": 0.0158,
      "velocity": 100,
      "chip": "ym2612"
    },
    {
      "channel": 4,
      "note": 50,
      "start": 0.1458,
      "duration": 0.0161,
      "velocity": 100,
      "chip": "ym2612"
    },
    {
      "channel": 1,
      "note": 68,
      "start": 0.1548,
      "duration": 0.0161,
      "velocity": 116,
      "chip": "ym2612"
    },
    {
      "channel": 0,
      "note": 40,
      "start": 0.1565,
      "duration": 0.0161,
      "velocity": 115,
      "chip": "ym2612"
    },
    {
      "channel": 5,
      "note": 66,
      "start": 0.1577,
      "duration": 0.0161,
      "velocity": 100,
      "chip": "ym2612"
    },
    {
      "channel": 3,
      "note": 74,
      "start": 0.1589,
      "duration": 0.0161,
      "velocity": 96,
      "chip": "ym2612"
    },
    {
      "channel": 2,
      "note": 69,
      "start": 0.1603,
      "duration": 0.0159,
      "velocity": 100,
      "chip": "ym2612"
    },
    {
      "channel": 4,
      "note": 50,
      "start": 0.1619,
      "duration": 0.0161,
      "velocity": 100,
      "chip": "ym2612"
    },
    {
      "channel": 1,
      "note": 68,
      "start": 0.1709,
      "duration": 0.0161,
      "velocity": 116,
      "chip": "ym2612"
    },
    {
      "channel": 0,
      "note": 41,
      "start": 0.1726,
      "duration": 0.0161,
      "velocity": 115,
      "chip": "ym2612"
    },
    {
      "channel": 5,
      "note": 66,
      "start": 0.1738,
      "duration": 0.0161,
      "velocity": 100,
      "chip": "ym2612"
    },
    {
      "channel": 3,
      "note": 74,
      "start": 0.175,
      "duration": 0.0162,
      "velocity": 96,
      "chip": "ym2612"
    },
    {
      "channel": 2,
      "note": 69,
      "start": 0.1762,
      "duration": 0.0161,
      "velocity": 100,
      "chip": "ym2612"
    },
    {
      "channel": 4,
      "note": 50,
      "start": 0.1779,
      "duration": 0.0159,
      "velocity": 100,
      "chip": "ym2612"
    },
    {
      "channel": 1,
      "note": 68,
      "start": 0.187,
      "duration": 0.0161,
      "velocity": 116,
      "chip": "ym2612"
    },
    {
      "channel": 0,
      "note": 41,
      "start": 0.1887,
      "duration": 0.0161,
      "velocity": 115,
      "chip": "ym2612"
    },
    {
      "channel": 5,
      "note": 66,
      "start": 0.1899,
      "duration": 0.016,
      "velocity": 100,
      "chip": "ym2612"
    },
    {
      "channel": 3,
      "note": 74,
      "start": 0.1912,
      "duration": 0.016,
      "velocity": 96,
      "chip": "ym2612"
    },
    {
      "channel": 2,
      "note": 69,
      "start": 0.1924,
      "duration": 0.0159,
      "velocity": 100,
      "chip": "ym2612"
    },
    {
      "channel": 4,
      "note": 50,
      "start": 0.1938,
      "duration": 0.0158,
      "velocity": 100,
      "chip": "ym2612"
    },
    {
      "channel": 1,
      "note": 68,
      "start": 0.2031,
      "duration": 0.0179,
      "velocity": 124,
      "chip": "ym2612"
    },
    {
      "channel": 0,
      "note": 42,
      "start": 0.2048,
      "duration": 0.0197,
      "velocity": 115,
      "chip": "ym2612"
    },
    {
      "channel": 4,
      "note": 50,
      "start": 0.2096,
      "duration": 0.0214,
      "velocity": 100,
      "chip": "ym2612"
    },
    {
      "channel": 1,
      "note": 64,
      "start": 0.221,
      "duration": 0.0144,
      "velocity": 124,
      "chip": "ym2612"
    },
    {
      "channel": 0,
      "note": 36,
      "start": 0.2245,
      "duration": 0.0126,
      "velocity": 115,
      "chip": "ym2612"
    },
    {
      "channel": 5,
      "note": 66,
      "start": 0.226,
      "duration": 0.0124,
      "velocity": 100,
      "chip": "ym2612"
    },
    {
      "channel": 3,
      "note": 74,
      "start": 0.228,
      "duration": 0.0116,
      "velocity": 96,
      "chip": "ym2612"
    },
    {
      "channel": 2,
      "note": 69,
      "start": 0.2295,
      "duration": 0.0113,
      "velocity": 100,
      "chip": "ym2612"
    },
    {
      "channel": 4,
      "note": 62,
      "start": 0.231,
      "duration": 0.011,
      "velocity": 100,
      "chip": "ym2612"
    },
    {
      "channel": 1,
      "note": 64,
      "start": 0.2353,
      "duration": 0.0161,
      "velocity": 124,
      "chip": "ym2612"
    },
    {
      "channel": 0,
      "note": 36,
      "start": 0.2371,
      "duration": 0.016,
      "velocity": 115,
      "chip": "ym2612"
    },
    {
      "channel": 5,
      "note": 66,
      "start": 0.2384,
      "duration": 0.0159,
      "velocity": 100,
      "chip": "ym2612"
    },
    {
      "channel": 3,
      "note": 74,
      "start": 0.2396,
      "duration": 0.0158,
      "velocity": 96,
      "chip": "ym2612"
    },
    {
      "channel": 2,
      "note": 69,
      "start": 0.2408,
      "duration": 0.0158,
      "velocity": 100,
      "chip": "ym2612"
    },
    {
      "channel": 4,
      "note": 62,
      "start": 0.242,
      "duration": 0.0157,
      "velocity": 100,
      "chip": "ym2612"
    },
    {
      "channel": 1,
      "note": 64,
      "start": 0.2514,
      "duration": 0.0161,
      "velocity": 124,
      "chip": "ym2612"
    },
    {
      "channel": 0,
      "note": 37,
      "start": 0.2531,
      "duration": 0.0162,
      "velocity": 115,
      "chip": "ym2612"
    },
    {
      "channel": 5,
      "note": 66,
      "start": 0.2543,
      "duration": 0.0161,
      "velocity": 100,
      "chip": "ym2612"
    },
    {
      "channel": 3,
      "note": 74,
      "start": 0.2554,
      "duration": 0.0161,
      "velocity": 96,
      "chip": "ym2612"
    },
    {
      "channel": 2,
      "note": 69,
      "start": 0.2566,
      "duration": 0.0161,
      "velocity": 100,
      "chip": "ym2612"
    },
    {
      "channel": 4,
      "note": 62,
      "start": 0.2577,
      "duration": 0.0161,
      "velocity": 100,
      "chip": "ym2612"
    },
    {
      "channel": 1,
      "note": 64,
      "start": 0.2675,
      "duration": 0.0161,
      "velocity": 124,
      "chip": "ym2612"
    },
    {
      "channel": 0,
      "note": 37,
      "start": 0.2692,
      "duration": 0.0161,
      "velocity": 115,
      "chip": "ym2612"
    },
    {
      "channel": 5,
      "note": 66,
      "start": 0.2704,
      "duration": 0.0161,
      "velocity": 100,
      "chip": "ym2612"
    },
    {
      "channel": 3,
      "note": 74,
      "start": 0.2715,
      "duration": 0.0161,
      "velocity": 96,
      "chip": "ym2612"
    },
    {
      "channel": 2,
      "note": 69,
      "start": 0.2727,
      "duration": 0.0161,
      "velocity": 100,
      "chip": "ym2612"
    },
    {
      "channel": 4,
      "note": 62,
      "start": 0.2738,
      "duration": 0.0161,
      "velocity": 100,
      "chip": "ym2612"
    },
    {
      "channel": 1,
      "note": 64,
      "start": 0.2836,
      "duration": 0.0161,
      "velocity": 124,
      "chip": "ym2612"
    },
    {
      "channel": 0,
      "note": 38,
      "start": 0.2853,
      "duration": 0.0161,
      "velocity": 115,
      "chip": "ym2612"
    },
    {
      "channel": 5,
      "note": 66,
      "start": 0.2865,
      "duration": 0.0161,
      "velocity": 100,
      "chip": "ym2612"
    },
    {
      "channel": 3,
      "note": 74,
      "start": 0.2876,
      "duration": 0.0161,
      "velocity": 96,
      "chip": "ym2612"
    },
    {
      "channel": 2,
      "note": 69,
      "start": 0.2888,
      "duration": 0.0161,
      "velocity": 100,
      "chip": "ym2612"
    },
    {
      "channel": 4,
      "note": 62,
      "start": 0.2899,
      "duration": 0.0161,
      "velocity": 100,
      "chip": "ym2612"
    },
    {
      "channel": 1,
      "note": 64,
      "start": 0.2997,
      "duration": 0.0161,
      "velocity": 124,
      "chip": "ym2612"
    },
    {
      "channel": 0,
      "note": 38,
      "start": 0.3014,
      "duration": 0.0161,
      "velocity": 115,
      "chip": "ym2612"
    },
    {
      "channel": 5,
      "note": 66,
      "start": 0.3026,
      "duration": 0.0161,
      "velocity": 100,
      "chip": "ym2612"
    },
    {
      "channel": 3,
      "note": 74,
      "start": 0.3037,
      "duration": 0.0161,
      "velocity": 96,
      "chip": "ym2612"
    },
    {
      "channel": 2,
      "note": 69,
      "start": 0.3049,
      "duration": 0.0161,
      "velocity": 100,
      "chip": "ym2612"
    },
    {
      "channel": 4,
      "note": 62,
      "start": 0.306,
      "duration": 0.0161,
      "velocity": 100,
      "chip": "ym2612"
    },
    {
      "channel": 1,
      "note": 64,
      "start": 0.3158,
      "duration": 0.0179,
      "velocity": 116,
      "chip": "ym2612"
    },
    {
      "channel": 0,
      "note": 39,
      "start": 0.3175,
      "duration": 0.0179,
      "velocity": 115,
      "chip": "ym2612"
    },
    {
      "channel": 5,
      "note": 66,
      "start": 0.3187,
      "duration": 0.018,
      "velocity": 100,
      "chip": "ym2612"
    },
    {
      "channel": 3,
      "note": 74,
      "start": 0.3198,
      "duration": 0.0181,
      "velocity": 96,
      "chip": "ym2612"
    },
    {
      "channel": 2,
      "note": 69,
      "start": 0.321,
      "duration": 0.0181,
      "velocity": 100,
      "chip": "ym2612"
    },
    {
      "channel": 4,
      "note": 62,
      "start": 0.3221,
      "duration": 0.0183,
      "velocity": 100,
      "chip": "ym2612"
    },
    {
      "channel": 1,
      "note": 68,
      "start": 0.3337,
      "duration": 0.0144,
      "velocity": 116,
      "chip": "ym2612"
    },
    {
      "channel": 0,
      "note": 39,
      "start": 0.3354,
      "duration": 0.0144,
      "velocity": 115,
      "chip": "ym2612"
    },
    {
      "channel": 5,
      "note": 66,
      "start": 0.3367,
      "duration": 0.0143,
      "velocity": 100,
      "chip": "ym2612"
    },
    {
      "channel": 3,
      "note": 74,
      "start": 0.3379,
      "duration": 0.0143,
      "velocity": 96,
      "chip": "ym2612"
    },
    {
      "channel": 2,
      "note": 69,
      "start": 0.3391,
      "duration": 0.0143,
      "velocity": 100,
      "chip": "ym2612"
    },
    {
      "channel": 4,
      "note": 62,
      "start": 0.3403,
      "duration": 0.0143,
      "velocity": 100,
      "chip": "ym2612"
    },
    {
      "channel": 1,
      "note": 68,
      "start": 0.348,
      "duration": 0.016,
      "velocity": 116,
      "chip": "ym2612"
    },
    {
      "channel": 0,
      "note": 40,
      "start": 0.3498,
      "duration": 0.016,
      "velocity": 115,
      "chip": "ym2612"
    },
    {
      "channel": 5,
      "note": 66,
      "start": 0.351,
      "duration": 0.016,
      "velocity": 100,
      "chip": "ym2612"
    },
    {
      "channel": 3,
      "note": 74,
      "start": 0.3522,
      "duration": 0.016,
      "velocity": 96,
      "chip": "ym2612"
    },
    {
      "channel": 2,
      "note": 69,
      "start": 0.3534,
      "duration": 0.016,
      "velocity": 100,
      "chip": "ym2612"
    },
    {
      "channel": 4,
      "note": 62,
      "start": 0.3546,
      "duration": 0.016,
      "velocity": 100,
      "chip": "ym2612"
    },
    {
      "channel": 1,
      "note": 68,
      "start": 0.3641,
      "duration": 0.0161,
      "velocity": 116,
      "chip": "ym2612"
    },
    {
      "channel": 0,
      "note": 40,
      "start": 0.3658,
      "duration": 0.0161,
      "velocity": 115,
      "chip": "ym2612"
    },
    {
      "channel": 5,
      "note": 66,
      "start": 0.367,
      "duration": 0.0161,
      "velocity": 100,
      "chip": "ym2612"
    },
    {
      "channel": 3,
      "note": 74,
      "start": 0.3682,
      "duration": 0.0161,
      "velocity": 96,
      "chip": "ym2612"
    },
    {
      "channel": 2,
      "note": 69,
      "start": 0.3694,
      "duration": 0.0161,
      "velocity": 100,
      "chip": "ym2612"
    },
    {
      "channel": 4,
      "note": 62,
      "start": 0.3706,
      "duration": 0.016,
      "velocity": 100,
      "chip": "ym2612"
    },
    {
      "channel": 1,
      "note": 68,
      "start": 0.3802,
      "duration": 0.0161,
      "velocity": 116,
      "chip": "ym2612"
    },
    {
      "channel": 0,
      "note": 40,
      "start": 0.3819,
      "duration": 0.0161,
      "velocity": 115,
      "chip": "ym2612"
    },
    {
      "channel": 5,
      "note": 66,
      "start": 0.3831,
      "duration": 0.0161,
      "velocity": 100,
      "chip": "ym2612"
    },
    {
      "channel": 3,
      "note": 74,
      "start": 0.3843,
      "duration": 0.0161,
      "velocity": 96,
      "chip": "ym2612"
    },
    {
      "channel": 2,
      "note": 69,
      "start": 0.3855,
      "duration": 0.0161,
      "velocity": 100,
      "chip": "ym2612"
    },
    {
      "channel": 4,
      "note": 62,
      "start": 0.3867,
      "duration": 0.0161,
      "velocity": 100,
      "chip": "ym2612"
    },
    {
      "channel": 1,
      "note": 68,
      "start": 0.3963,
      "duration": 0.0162,
      "velocity": 116,
      "chip": "ym2612"
    },
    {
      "channel": 0,
      "note": 41,
      "start": 0.398,
      "duration": 0.0162,
      "velocity": 115,
      "chip": "ym2612"
    },
    {
      "channel": 5,
      "note": 66,
      "start": 0.3992,
      "duration": 0.0162,
      "velocity": 100,
      "chip": "ym2612"
    },
    {
      "channel": 3,
      "note": 74,
      "start": 0.4004,
      "duration": 0.0162,
      "velocity": 96,
      "chip": "ym2612"
    },
    {
      "channel": 2,
      "note": 69,
      "start": 0.4016,
      "duration": 0.0162,
      "velocity": 100,
      "chip": "ym2612"
    },
    {
      "channel": 4,
      "note": 62,
      "start": 0.4027,
      "duration": 0.0162,
      "velocity": 100,
      "chip": "ym2612"
    },
    {
      "channel": 1,
      "note": 68,
      "start": 0.4125,
      "duration": 0.0164,
      "velocity": 116,
      "chip": "ym2612"
    },
    {
      "channel": 0,
      "note": 41,
      "start": 0.4141,
      "duration": 0.0165,
      "velocity": 115,
      "chip": "ym2612"
    },
    {
      "channel": 5,
      "note": 66,
      "start": 0.4154,
      "duration": 0.0163,
      "velocity": 100,
      "chip": "ym2612"
    },
    {
      "channel": 3,
      "note": 74,
      "start": 0.4166,
      "duration": 0.0163,
      "velocity": 96,
      "chip": "ym2612"
    },
    {
      "channel": 2,
      "note": 69,
      "start": 0.4178,
      "duration": 0.0162,
      "velocity": 100,
      "chip": "ym2612"
    },
    {
      "channel": 4,
      "note": 62,
      "start": 0.419,
      "duration": 0.0163,
      "velocity": 100,
      "chip": "ym2612"
    },
    {
      "channel": 1,
      "note": 68,
      "start": 0.4289,
      "duration": 0.0181,
      "velocity": 116,
      "chip": "ym2612"
    },
    {
      "channel": 0,
      "note": 42,
      "start": 0.4306,
      "duration": 0.0181,
      "velocity": 115,
      "chip": "ym2612"
    },
    {
      "channel": 4,
      "note": 62,
      "start": 0.4353,
      "duration": 0.0188,
      "velocity": 100,
      "chip": "ym2612"
    },
    {
      "channel": 1,
      "note": 68,
      "start": 0.447,
      "duration": 0.0143,
      "velocity": 116,
      "chip": "ym2612"
    },
    {
      "channel": 0,
      "note": 42,
      "start": 0.4487,
      "duration": 0.0144,
      "velocity": 115,
      "chip": "ym2612"
    },
    {
      "channel": 4,
      "note": 50,
      "start": 0.4541,
      "duration": 0.0139,
      "velocity": 100,
      "chip": "ym2612"
    },
    {
      "channel": 1,
      "note": 68,
      "start": 0.4613,
      "duration": 0.0158,
      "velocity": 116,
      "chip": "ym2612"
    },
    {
      "channel": 0,
      "note": 43,
      "start": 0.4631,
      "duration": 0.016,
      "velocity": 115,
      "chip": "ym2612"
    },
    {
      "channel": 4,
      "note": 50,
      "start": 0.468,
      "duration": 0.016,
      "velocity": 100,
      "chip": "ym2612"
    },
    {
      "channel": 1,
      "note": 68,
      "start": 0.4771,
      "duration": 0.0159,
      "velocity": 116,
      "chip": "ym2612"
    },
    {
      "channel": 0,
      "note": 43,
      "start": 0.4791,
      "duration": 0.0161,
      "velocity": 115,
      "chip": "ym2612"
    },
    {
      "channel": 4,
      "note": 50,
      "start": 0.484,
      "duration": 0.0161,
      "velocity": 100,
      "chip": "ym2612"
    },
    {
      "channel": 1,
      "note": 68,
      "start": 0.4929,
      "duration": 0.0161,
      "velocity": 116,
      "chip": "ym2612"
    },
    {
      "channel": 0,
      "note": 44,
      "start": 0.4952,
      "duration": 0.0161,
      "velocity": 115,
      "chip": "ym2612"
    },
    {
      "channel": 4,
      "note": 50,
      "start": 0.5001,
      "duration": 0.0161,
      "velocity": 100,
      "chip": "ym2612"
    },
    {
      "channel": 1,
      "note": 68,
      "start": 0.509,
      "duration": 0.0161,
      "velocity": 116,
      "chip": "ym2612"
    },
    {
      "channel": 0,
      "note": 44,
      "start": 0.5113,
      "duration": 0.0158,
      "velocity": 115,
      "chip": "ym2612"
    },
    {
      "channel": 4,
      "note": 50,
      "start": 0.5162,
      "duration": 0.0161,
      "velocity": 100,
      "chip": "ym2612"
    },
    {
      "channel": 1,
      "note": 68,
      "start": 0.5251,
      "duration": 0.0161,
      "velocity": 116,
      "chip": "ym2612"
    },
    {
      "channel": 0,
      "note": 44,
      "start": 0.5271,
      "duration": 0.0159,
      "velocity": 115,
      "chip": "ym2612"
    },
    {
      "channel": 4,
      "note": 50,
      "start": 0.5323,
      "duration": 0.0162,
      "velocity": 100,
      "chip": "ym2612"
    },
    {
      "channel": 1,
      "note": 68,
      "start": 0.5412,
      "duration": 0.0178,
      "velocity": 105,
      "chip": "ym2612"
    },
    {
      "channel": 0,
      "note": 45,
      "start": 0.5429,
      "duration": 0.0203,
      "velocity": 115,
      "chip": "ym2612"
    },
    {
      "channel": 4,
      "note": 50,
      "start": 0.5484,
      "duration": 0.0207,
      "velocity": 100,
      "chip": "ym2612"
    },
    {
      "channel": 1,
      "note": 105,
      "start": 0.559,
      "duration": 0.0144,
      "velocity": 105,
      "chip": "ym2612"
    },
    {
      "channel": 0,
      "note": 36,
      "start": 0.5632,
      "duration": 0.012,
      "velocity": 115,
      "chip": "ym2612"
    },
    {
      "channel": 5,
      "note": 66,
      "start": 0.5647,
      "duration": 0.0118,
      "velocity": 100,
      "chip": "ym2612"
    },
    {
      "channel": 3,
      "note": 73,
      "start": 0.5662,
      "duration": 0.0121,
      "velocity": 96,
      "chip": "ym2612"
    },
    {
      "channel": 2,
      "note": 69,
      "start": 0.5677,
      "duration": 0.0118,
      "velocity": 100,
      "chip": "ym2612"
    },
    {
      "channel": 4,
      "note": 57,
      "start": 0.5692,
      "duration": 0.0116,
      "velocity": 100,
      "chip": "ym2612"
    },
    {
      "channel": 1,
      "note": 105,
      "start": 0.5735,
      "duration": 0.016,
      "velocity": 105,
      "chip": "ym2612"
    },
    {
      "channel": 0,
      "note": 36,
      "start": 0.5752,
      "duration": 0.016,
      "velocity": 115,
      "chip": "ym2612"
    },
    {
      "channel": 5,
      "note": 66,
      "start": 0.5765,
      "duration": 0.0159,
      "velocity": 100,
      "chip": "ym2612"
    },
    {
      "channel": 3,
      "note": 73,
      "start": 0.5783,
      "duration": 0.0155,
      "velocity": 96,
      "chip": "ym2612"
    },
    {
      "channel": 2,
      "note": 69,
      "start": 0.5795,
      "duration": 0.0158,
      "velocity": 100,
      "chip": "ym2612"
    },
    {
      "channel": 4,
      "note": 57,
      "start": 0.5807,
      "duration": 0.0156,
      "velocity": 100,
      "chip": "ym2612"
    },
    {
      "channel": 1,
      "note": 105,
      "start": 0.5895,
      "duration": 0.0161,
      "velocity": 105,
      "chip": "ym2612"
    },
    {
      "channel": 0,
      "note": 37,
      "start": 0.5912,
      "duration": 0.0161,
      "velocity": 115,
      "chip": "ym2612"
    },
    {
      "channel": 5,
      "note": 66,
      "start": 0.5924,
      "duration": 0.0161,
      "velocity": 100,
      "chip": "ym2612"
    },
    {
      "channel": 3,
      "note": 73,
      "start": 0.5937,
      "duration": 0.0159,
      "velocity": 96,
      "chip": "ym2612"
    },
    {
      "channel": 2,
      "note": 69,
      "start": 0.5952,
      "duration": 0.016,
      "velocity": 100,
      "chip": "ym2612"
    },
    {
      "channel": 4,
      "note": 57,
      "start": 0.5964,
      "duration": 0.0161,
      "velocity": 100,
      "chip": "ym2612"
    },
    {
      "channel": 1,
      "note": 105,
      "start": 0.6056,
      "duration": 0.0161,
      "velocity": 105,
      "chip": "ym2612"
    },
    {
      "channel": 0,
      "note": 37,
      "start": 0.6073,
      "duration": 0.0161,
      "velocity": 115,
      "chip": "ym2612"
    },
    {
      "channel": 5,
      "note": 66,
      "start": 0.6085,
      "duration": 0.0161,
      "velocity": 100,
      "chip": "ym2612"
    },
    {
      "channel": 3,
      "note": 73,
      "start": 0.6096,
      "duration": 0.0161,
      "velocity": 96,
      "chip": "ym2612"
    },
    {
      "channel": 2,
      "note": 69,
      "start": 0.6113,
      "duration": 0.0158,
      "velocity": 100,
      "chip": "ym2612"
    },
    {
      "channel": 4,
      "note": 57,
      "start": 0.6125,
      "duration": 0.0161,
      "velocity": 100,
      "chip": "ym2612"
    },
    {
      "channel": 1,
      "note": 105,
      "start": 0.6217,
      "duration": 0.0161,
      "velocity": 105,
      "chip": "ym2612"
    },
    {
      "channel": 0,
      "note": 38,
      "start": 0.6234,
      "duration": 0.0161,
      "velocity": 115,
      "chip": "ym2612"
    },
    {
      "channel": 5,
      "note": 66,
      "start": 0.6246,
      "duration": 0.0161,
      "velocity": 100,
      "chip": "ym2612"
    },
    {
      "channel": 3,
      "note": 73,
      "start": 0.6257,
      "duration": 0.0161,
      "velocity": 96,
      "chip": "ym2612"
    },
    {
      "channel": 2,
      "note": 69,
      "start": 0.6271,
      "duration": 0.0159,
      "velocity": 100,
      "chip": "ym2612"
    },
    {
      "channel": 4,
      "note": 57,
      "start": 0.6286,
      "duration": 0.016,
      "velocity": 100,
      "chip": "ym2612"
    },
    {
      "channel": 1,
      "note": 105,
      "start": 0.6378,
      "duration": 0.0161,
      "velocity": 105,
      "chip": "ym2612"
    },
    {
      "channel": 0,
      "note": 38,
      "start": 0.6395,
      "duration": 0.0161,
      "velocity": 115,
      "chip": "ym2612"
    },
    {
      "channel": 5,
      "note": 66,
      "start": 0.6407,
      "duration": 0.0161,
      "velocity": 100,
      "chip": "ym2612"
    },
    {
      "channel": 3,
      "note": 73,
      "start": 0.6418,
      "duration": 0.0161,
      "velocity": 96,
      "chip": "ym2612"
    },
    {
      "channel": 2,
      "note": 69,
      "start": 0.6429,
      "duration": 0.0161,
      "velocity": 100,
      "chip": "ym2612"
    },
    {
      "channel": 4,
      "note": 57,
      "start": 0.6447,
      "duration": 0.0158,
      "velocity": 100,
      "chip": "ym2612"
    },
    {
      "channel": 1,
      "note": 105,
      "start": 0.6539,
      "duration": 0.0161,
      "velocity": 105,
      "chip": "ym2612"
    },
    {
      "channel": 0,
      "note": 39,
      "start": 0.6556,
      "duration": 0.0161,
      "velocity": 115,
      "chip": "ym2612"
    },
    {
      "channel": 5,
      "note": 66,
      "start": 0.6568,
      "duration": 0.0161,
      "velocity": 100,
      "chip": "ym2612"
    },
    {
      "channel": 3,
      "note": 73,
      "start": 0.6579,
      "duration": 0.0161,
      "velocity": 96,
      "chip": "ym2612"
    },
    {
      "channel": 2,
      "note": 69,
      "start": 0.659,
      "duration": 0.0162,
      "velocity": 100,
      "chip": "ym2612"
    },
    {
      "channel": 4,
      "note": 57,
      "start": 0.6605,
      "duration": 0.0159,
      "velocity": 100,
      "chip": "ym2612"
    },
    {
      "channel": 1,
      "note": 105,
      "start": 0.67,
      "duration": 0.0161,
      "velocity": 105,
      "chip": "ym2612"
    },
    {
      "channel": 0,
      "note": 39,
      "start": 0.6717,
      "duration": 0.0161,
      "velocity": 115,
      "chip": "ym2612"
    },
    {
      "channel": 5,
      "note": 66,
      "start": 0.6729,
      "duration": 0.0161,
      "velocity": 100,
      "chip": "ym2612"
    },
    {
      "channel": 3,
      "note": 73,
      "start": 0.674,
      "duration": 0.0161,
      "velocity": 96,
      "chip": "ym2612"
    },
    {
      "channel": 2,
      "note": 69,
      "start": 0.6752,
      "duration": 0.0161,
      "velocity": 100,
      "chip": "ym2612"
    },
    {
      "channel": 4,
      "note": 57,
      "start": 0.6763,
      "duration": 0.0161,
      "velocity": 100,
      "chip": "ym2612"
    },
    {
      "channel": 1,
      "note": 105,
      "start": 0.6861,
      "duration": 0.0161,
      "velocity": 105,
      "chip": "ym2612"
    },
    {
      "channel": 0,
      "note": 40,
      "start": 0.6878,
      "duration": 0.0161,
      "velocity": 115,
      "chip": "ym2612"
    },
    {
      "channel": 5,
      "note": 66,
      "start": 0.689,
      "duration": 0.0161,
      "velocity": 100,
      "chip": "ym2612"
    },
    {
      "channel": 3,
      "note": 73,
      "start": 0.6901,
      "duration": 0.0162,
      "velocity": 96,
      "chip": "ym2612"
    },
    {
      "channel": 2,
      "note": 69,
      "start": 0.6913,
      "duration": 0.0161,
      "velocity": 100,
      "chip": "ym2612"
    },
    {
      "channel": 4,
      "note": 57,
      "start": 0.6924,
      "duration": 0.0161,
      "velocity": 100,
      "chip": "ym2612"
    },
    {
      "channel": 1,
      "note": 105,
      "start": 0.7022,
      "duration": 0.0162,
      "velocity": 105,
      "chip": "ym2612"
    },
    {
      "channel": 0,
      "note": 40,
      "start": 0.7039,
      "duration": 0.0161,
      "velocity": 115,
      "chip": "ym2612"
    },
    {
      "channel": 5,
      "note": 66,
      "start": 0.705,
      "duration": 0.0162,
      "velocity": 100,
      "chip": "ym2612"
    },
    {
      "channel": 3,
      "note": 73,
      "start": 0.7063,
      "duration": 0.0161,
      "velocity": 96,
      "chip": "ym2612"
    },
    {
      "channel": 2,
      "note": 69,
      "start": 0.7074,
      "duration": 0.0161,
      "velocity": 100,
      "chip": "ym2612"
    },
    {
      "channel": 4,
      "note": 57,
      "start": 0.7085,
      "duration": 0.0161,
      "velocity": 100,
      "chip": "ym2612"
    },
    {
      "channel": 1,
      "note": 105,
      "start": 0.7183,
      "duration": 0.0161,
      "velocity": 105,
      "chip": "ym2612"
    },
    {
      "channel": 0,
      "note": 40,
      "start": 0.72,
      "duration": 0.0161,
      "velocity": 115,
      "chip": "ym2612"
    },
    {
      "channel": 5,
      "note": 66,
      "start": 0.7212,
      "duration": 0.0161,
      "velocity": 100,
      "chip": "ym2612"
    },
    {
      "channel": 3,
      "note": 73,
      "start": 0.7223,
      "duration": 0.0161,
      "velocity": 96,
      "chip": "ym2612"
    },
    {
      "channel": 2,
      "note": 69,
      "start": 0.7235,
      "duration": 0.0161,
      "velocity": 100,
      "chip": "ym2612"
    },
    {
      "channel": 4,
      "note": 57,
      "start": 0.7246,
      "duration": 0.0162,
      "velocity": 100,
      "chip": "ym2612"
    },
    {
      "channel": 1,
      "note": 105,
      "start": 0.7344,
      "duration": 0.0161,
      "velocity": 105,
      "chip": "ym2612"
    },
    {
      "channel": 0,
      "note": 41,
      "start": 0.7361,
      "duration": 0.016,
      "velocity": 115,
      "chip": "ym2612"
    },
    {
      "channel": 5,
      "note": 66,
      "start": 0.7373,
      "duration": 0.0161,
      "velocity": 100,
      "chip": "ym2612"
    },
    {
      "channel": 3,
      "note": 73,
      "start": 0.7384,
      "duration": 0.0161,
      "velocity": 96,
      "chip": "ym2612"
    },
    {
      "channel": 2,
      "note": 69,
      "start": 0.7396,
      "duration": 0.0161,
      "velocity": 100,
      "chip": "ym2612"
    },
    {
      "channel": 4,
      "note": 57,
      "start": 0.7408,
      "duration": 0.0161,
      "velocity": 100,
      "chip": "ym2612"
    },
    {
      "channel": 1,
      "note": 105,
      "start": 0.7505,
      "duration": 0.0161,
      "velocity": 105,
      "chip": "ym2612"
    },
    {
      "channel": 0,
      "note": 41,
      "start": 0.7522,
      "duration": 0.0162,
      "velocity": 115,
      "chip": "ym2612"
    },
    {
      "channel": 5,
      "note": 66,
      "start": 0.7534,
      "duration": 0.0161,
      "velocity": 100,
      "chip": "ym2612"
    },
    {
      "channel": 3,
      "note": 73,
      "start": 0.7545,
      "duration": 0.0161,
      "velocity": 96,
      "chip": "ym2612"
    },
    {
      "channel": 2,
      "note": 69,
      "start": 0.7557,
      "duration": 0.0161,
      "velocity": 100,
      "chip": "ym2612"
    },
    {
      "channel": 4,
      "note": 57,
      "start": 0.7569,
      "duration": 0.0161,
      "velocity": 100,
      "chip": "ym2612"
    },
    {
      "channel": 1,
      "note": 105,
      "start": 0.7666,
      "duration": 0.0179,
      "velocity": 116,
      "chip": "ym2612"
    },
    {
      "channel": 0,
      "note": 42,
      "start": 0.7683,
      "duration": 0.0179,
      "velocity": 115,
      "chip": "ym2612"
    },
    {
      "channel": 5,
      "note": 66,
      "start": 0.7695,
      "duration": 0.0179,
      "velocity": 100,
      "chip": "ym2612"
    },
    {
      "channel": 3,
      "note": 73,
      "start": 0.7706,
      "duration": 0.0179,
      "velocity": 96,
      "chip": "ym2612"
    },
    {
      "channel": 2,
      "note": 69,
      "start": 0.7718,
      "duration": 0.0179,
      "velocity": 100,
      "chip": "ym2612"
    },
    {
      "channel": 4,
      "note": 57,
      "start": 0.773,
      "duration": 0.0182,
      "velocity": 100,
      "chip": "ym2612"
    },
    {
      "channel": 1,
      "note": 68,
      "start": 0.7845,
      "duration": 0.0144,
      "velocity": 116,
      "chip": "ym2612"
    },
    {
      "channel": 0,
      "note": 42,
      "start": 0.7862,
      "duration": 0.0144,
      "velocity": 115,
      "chip": "ym2612"
    },
    {
      "channel": 5,
      "note": 66,
      "start": 0.7873,
      "duration": 0.0144,
      "velocity": 100,
      "chip": "ym2612"
    },
    {
      "channel": 3,
      "note": 73,
      "start": 0.7886,
      "duration": 0.0144,
      "velocity": 96,
      "chip": "ym2612"
    },
    {
      "channel": 2,
      "note": 69,
      "start": 0.7897,
      "duration": 0.0144,
      "velocity": 100,
      "chip": "ym2612"
    },
    {
      "channel": 4,
      "note": 50,
      "start": 0.7912,
      "duration": 0.0141,
      "velocity": 100,
      "chip": "ym2612"
    },
    {
      "channel": 1,
      "note": 68,
      "start": 0.7989,
      "duration": 0.016,
      "velocity": 116,
      "chip": "ym2612"
    },
    {
      "channel": 0,
      "note": 43,
      "start": 0.8006,
      "duration": 0.016,
      "velocity": 115,
      "chip": "ym2612"
    },
    {
      "channel": 5,
      "note": 66,
      "start": 0.8017,
      "duration": 0.016,
      "velocity": 100,
      "chip": "ym2612"
    },
    {
      "channel": 3,
      "note": 73,
      "start": 0.8029,
      "duration": 0.016,
      "velocity": 96,
      "chip": "ym2612"
    },
    {
      "channel": 2,
      "note": 69,
      "start": 0.8041,
      "duration": 0.016,
      "velocity": 100,
      "chip": "ym2612"
    },
    {
      "channel": 4,
      "note": 50,
      "start": 0.8053,
      "duration": 0.016,
      "velocity": 100,
      "chip": "ym2612"
    },
    {
      "channel": 1,
      "note": 68,
      "start": 0.8149,
      "duration": 0.0161,
      "velocity": 116,
      "chip": "ym2612"
    },
    {
      "channel": 0,
      "note": 43,
      "start": 0.8166,
      "duration": 0.0161,
      "velocity": 115,
      "chip": "ym2612"
    },
    {
      "channel": 5,
      "note": 66,
      "start": 0.8178,
      "duration": 0.0161,
      "velocity": 100,
      "chip": "ym2612"
    },
    {
      "channel": 3,
      "note": 73,
      "start": 0.819,
      "duration": 0.0161,
      "velocity": 96,
      "chip": "ym2612"
    },
    {
      "channel": 2,
      "note": 69,
      "start": 0.8201,
      "duration": 0.0161,
      "velocity": 100,
      "chip": "ym2612"
    },
    {
      "channel": 4,
      "note": 50,
      "start": 0.8213,
      "duration": 0.0161,
      "velocity": 100,
      "chip": "ym2612"
    },
    {
      "channel": 1,
      "note": 68,
      "start": 0.831,
      "duration": 0.0161,
      "velocity": 116,
      "chip": "ym2612"
    },
    {
      "channel": 0,
      "note": 44,
      "start": 0.8327,
      "duration": 0.0161,
      "velocity": 115,
      "chip": "ym2612"
    },
    {
      "channel": 5,
      "note": 66,
      "start": 0.8339,
      "duration": 0.0162,
      "velocity": 100,
      "chip": "ym2612"
    },
    {
      "channel": 3,
      "note": 73,
      "start": 0.8351,
      "duration": 0.0162,
      "velocity": 96,
      "chip": "ym2612"
    },
    {
      "channel": 2,
      "note": 69,
      "start": 0.8362,
      "duration": 0.0163,
      "velocity": 100,
      "chip": "ym2612"
    },
    {
      "channel": 4,
      "note": 50,
      "start": 0.8373,
      "duration": 0.0163,
      "velocity": 100,
      "chip": "ym2612"
    },
    {
      "channel": 1,
      "note": 68,
      "start": 0.8471,
      "duration": 0.0161,
      "velocity": 116,
      "chip": "ym2612"
    },
    {
      "channel": 0,
      "note": 44,
      "start": 0.8488,
      "duration": 0.0161,
      "velocity": 115,
      "chip": "ym2612"
    },
    {
      "channel": 5,
      "note": 66,
      "start": 0.8501,
      "duration": 0.016,
      "velocity": 100,
      "chip": "ym2612"
    },
    {
      "channel": 3,
      "note": 73,
      "start": 0.8513,
      "duration": 0.016,
      "velocity": 96,
      "chip": "ym2612"
    },
    {
      "channel": 2,
      "note": 69,
      "start": 0.8526,
      "duration": 0.016,
      "velocity": 100,
      "chip": "ym2612"
    },
    {
      "channel": 4,
      "note": 50,
      "start": 0.8537,
      "duration": 0.016,
      "velocity": 100,
      "chip": "ym2612"
    },
    {
      "channel": 1,
      "note": 68,
      "start": 0.8632,
      "duration": 0.0162,
      "velocity": 116,
      "chip": "ym2612"
    },
    {
      "channel": 0,
      "note": 44,
      "start": 0.8649,
      "duration": 0.0162,
      "velocity": 115,
      "chip": "ym2612"
    },
    {
      "channel": 5,
      "note": 66,
      "start": 0.8661,
      "duration": 0.0162,
      "velocity": 100,
      "chip": "ym2612"
    },
    {
      "channel": 3,
      "note": 73,
      "start": 0.8673,
      "duration": 0.0162,
      "velocity": 96,
      "chip": "ym2612"
    },
    {
      "channel": 2,
      "note": 69,
      "start": 0.8685,
      "duration": 0.0162,
      "velocity": 100,
      "chip": "ym2612"
    },
    {
      "channel": 4,
      "note": 50,
      "start": 0.8697,
      "duration": 0.0162,
      "velocity": 100,
      "chip": "ym2612"
    },
    {
      "channel": 1,
      "note": 68,
      "start": 0.8794,
      "duration": 0.0182,
      "velocity": 116,
      "chip": "ym2612"
    },
    {
      "channel": 0,
      "note": 45,
      "start": 0.8811,
      "duration": 0.02,
      "velocity": 115,
      "chip": "ym2612"
    },
    {
      "channel": 4,
      "note": 50,
      "start": 0.8859,
      "duration": 0.0212,
      "velocity": 100,
      "chip": "ym2612"
    },
    {
      "channel": 1,
      "note": 68,
      "start": 0.8976,
      "duration": 0.0146,
      "velocity": 116,
      "chip": "ym2612"
    },
    {
      "channel": 0,
      "note": 36,
      "start": 0.9012,
      "duration": 0.0128,
      "velocity": 115,
      "chip": "ym2612"
    },
    {
      "channel": 5,
      "note": 62,
      "start": 0.9027,
      "duration": 0.0124,
      "velocity": 100,
      "chip": "ym2612"
    },
    {
      "channel": 3,
      "note": 71,
      "start": 0.9041,
      "duration": 0.0123,
      "velocity": 96,
      "chip": "ym2612"
    },
    {
      "channel": 2,
      "note": 67,
      "start": 0.9057,
      "duration": 0.012,
      "velocity": 100,
      "chip": "ym2612"
    },
    {
      "channel": 4,
      "note": 55,
      "start": 0.9071,
      "duration": 0.0117,
      "velocity": 100,
      "chip": "ym2612"
    },
    {
      "channel": 1,
      "note": 68,
      "start": 0.9122,
      "duration": 0.016,
      "velocity": 116,
      "chip": "ym2612"
    },
    {
      "channel": 0,
      "note": 36,
      "start": 0.9139,
      "duration": 0.016,
      "velocity": 115,
      "chip": "ym2612"
    },
    {
      "channel": 5,
      "note": 62,
      "start": 0.9151,
      "duration": 0.016,
      "velocity": 100,
      "chip": "ym2612"
    },
    {
      "channel": 3,
      "note": 71,
      "start": 0.9164,
      "duration": 0.0158,
      "velocity": 96,
      "chip": "ym2612"
    },
    {
      "channel": 2,
      "note": 67,
      "start": 0.9176,
      "duration": 0.0158,
      "velocity": 100,
      "chip": "ym2612"
    },
    {
      "channel": 4,
      "note": 55,
      "start": 0.9188,
      "duration": 0.0157,
      "velocity": 100,
      "chip": "ym2612"
    },
    {
      "channel": 1,
      "note": 68,
      "start": 0.9282,
      "duration": 0.0158,
      "velocity": 116,
      "chip": "ym2612"
    },
    {
      "channel": 0,
      "note": 37,
      "start": 0.9299,
      "duration": 0.0161,
      "velocity": 115,
      "chip": "ym2612"
    },
    {
      "channel": 5,
      "note": 62,
      "start": 0.9311,
      "duration": 0.0161,
      "velocity": 100,
      "chip": "ym2612"
    },
    {
      "channel": 3,
      "note": 71,
      "start": 0.9323,
      "duration": 0.0161,
      "velocity": 96,
      "chip": "ym2612"
    },
    {
      "channel": 2,
      "note": 67,
      "start": 0.9334,
      "duration": 0.0161,
      "velocity": 100,
      "chip": "ym2612"
    },
    {
      "channel": 4,
      "note": 55,
      "start": 0.9346,
      "duration": 0.0161,
      "velocity": 100,
      "chip": "ym2612"
    },
    {
      "channel": 1,
      "note": 68,
      "start": 0.944,
      "duration": 0.0159,
      "velocity": 116,
      "chip": "ym2612"
    },
    {
      "channel": 0,
      "note": 37,
      "start": 0.946,
      "duration": 0.0161,
      "velocity": 115,
      "chip": "ym2612"
    },
    {
      "channel": 5,
      "note": 62,
      "start": 0.9472,
      "duration": 0.0161,
      "velocity": 100,
      "chip": "ym2612"
    },
    {
      "channel": 3,
      "note": 71,
      "start": 0.9484,
      "duration": 0.0161,
      "velocity": 96,
      "chip": "ym2612"
    },
    {
      "channel": 2,
      "note": 67,
      "start": 0.9495,
      "duration": 0.0161,
      "velocity": 100,
      "chip": "ym2612"
    },
    {
      "channel": 4,
      "note": 55,
      "start": 0.9507,
      "duration": 0.0161,
      "velocity": 100,
      "chip": "ym2612"
    },
    {
      "channel": 1,
      "note": 68,
      "start": 0.9598,
      "duration": 0.0161,
      "velocity": 116,
      "chip": "ym2612"
    },
    {
      "channel": 0,
      "note": 38,
      "start": 0.9621,
      "duration": 0.0161,
      "velocity": 115,
      "chip": "ym2612"
    },
    {
      "channel": 5,
      "note": 62,
      "start": 0.9633,
      "duration": 0.0161,
      "velocity": 100,
      "chip": "ym2612"
    },
    {
      "channel": 3,
      "note": 71,
      "start": 0.9645,
      "duration": 0.0161,
      "velocity": 96,
      "chip": "ym2612"
    },
    {
      "channel": 2,
      "note": 67,
      "start": 0.9656,
      "duration": 0.0161,
      "velocity": 100,
      "chip": "ym2612"
    },
    {
      "channel": 4,
      "note": 55,
      "start": 0.9668,
      "duration": 0.0161,
      "velocity": 100,
      "chip": "ym2612"
    },
    {
      "channel": 1,
      "note": 68,
      "start": 0.9759,
      "duration": 0.0161,
      "velocity": 116,
      "chip": "ym2612"
    },
    {
      "channel": 0,
      "note": 38,
      "start": 0.9782,
      "duration": 0.0158,
      "velocity": 115,
      "chip": "ym2612"
    },
    {
      "channel": 5,
      "note": 62,
      "start": 0.9794,
      "duration": 0.0161,
      "velocity": 100,
      "chip": "ym2612"
    },
    {
      "channel": 3,
      "note": 71,
      "start": 0.9805,
      "duration": 0.0161,
      "velocity": 96,
      "chip": "ym2612"
    },
    {
      "channel": 2,
      "note": 67,
      "start": 0.9817,
      "duration": 0.0161,
      "velocity": 100,
      "chip": "ym2612"
    },
    {
      "channel": 4,
      "note": 55,
      "start": 0.9828,
      "duration": 0.0161,
      "velocity": 100,
      "chip": "ym2612"
    },
    {
      "channel": 1,
      "note": 68,
      "start": 0.9921,
      "duration": 0.0178,
      "velocity": 116,
      "chip": "ym2612"
    },
    {
      "channel": 0,
      "note": 39,
      "start": 0.994,
      "duration": 0.0183,
      "velocity": 115,
      "chip": "ym2612"
    },
    {
      "channel": 5,
      "note": 62,
      "start": 0.9955,
      "duration": 0.0179,
      "velocity": 100,
      "chip": "ym2612"
    },
    {
      "channel": 3,
      "note": 71,
      "start": 0.9966,
      "duration": 0.0181,
      "velocity": 96,
      "chip": "ym2612"
    },
    {
      "channel": 2,
      "note": 67,
      "start": 0.9978,
      "duration": 0.0181,
      "velocity": 100,
      "chip": "ym2612"
    },
    {
      "channel": 4,
      "note": 55,
      "start": 0.9989,
      "duration": 0.0181,
      "velocity": 100,
      "chip": "ym2612"
    },
    {
      "channel": 1,
      "note": 68,
      "start": 1.0099,
      "duration": 0.0144,
      "velocity": 116,
      "chip": "ym2612"
    },
    {
      "channel": 0,
      "note": 39,
      "start": 1.0122,
      "duration": 0.0138,
      "velocity": 115,
      "chip": "ym2612"
    },
    {
      "channel": 5,
      "note": 62,
      "start": 1.0134,
      "duration": 0.0143,
      "velocity": 100,
      "chip": "ym2612"
    },
    {
      "channel": 3,
      "note": 71,
      "start": 1.0147,
      "duration": 0.0143,
      "velocity": 96,
      "chip": "ym2612"
    },
    {
      "channel": 2,
      "note": 67,
      "start": 1.0159,
      "duration": 0.0143,
      "velocity": 100,
      "chip": "ym2612"
    },
    {
      "channel": 4,
      "note": 55,
      "start": 1.0171,
      "duration": 0.0143,
      "velocity": 100,
      "chip": "ym2612"
    },
    {
      "channel": 1,
      "note": 68,
      "start": 1.0243,
      "duration": 0.016,
      "velocity": 116,
      "chip": "ym2612"
    },
    {
      "channel": 0,
      "note": 40,
      "start": 1.026,
      "duration": 0.016,
      "velocity": 115,
      "chip": "ym2612"
    },
    {
      "channel": 5,
      "note": 62,
      "start": 1.0278,
      "duration": 0.0155,
      "velocity": 100,
      "chip": "ym2612"
    },
    {
      "channel": 3,
      "note": 71,
      "start": 1.029,
      "duration": 0.016,
      "velocity": 96,
      "chip": "ym2612"
    },
    {
      "channel": 2,
      "note": 67,
      "start": 1.0302,
      "duration": 0.016,
      "velocity": 100,
      "chip": "ym2612"
    },
    {
      "channel": 4,
      "note": 55,
      "start": 1.0314,
      "duration": 0.016,
      "velocity": 100,
      "chip": "ym2612"
    },
    {
      "channel": 1,
      "note": 68,
      "start": 1.0403,
      "duration": 0.0161,
      "velocity": 116,
      "chip": "ym2612"
    },
    {
      "channel": 0,
      "note": 40,
      "start": 1.0421,
      "duration": 0.0161,
      "velocity": 115,
      "chip": "ym2612"
    },
    {
      "channel": 5,
      "note": 62,
      "start": 1.0433,
      "duration": 0.0161,
      "velocity": 100,
      "chip": "ym2612"
    },
    {
      "channel": 3,
      "note": 71,
      "start": 1.0451,
      "duration": 0.016,
      "velocity": 96,
      "chip": "ym2612"
    },
    {
      "channel": 2,
      "note": 67,
      "start": 1.0463,
      "duration": 0.0161,
      "velocity": 100,
      "chip": "ym2612"
    },
    {
      "channel": 4,
      "note": 55,
      "start": 1.0474,
      "duration": 0.0161,
      "velocity": 100,
      "chip": "ym2612"
    },
    {
      "channel": 1,
      "note": 68,
      "start": 1.0564,
      "duration": 0.0161,
      "velocity": 116,
      "chip": "ym2612"
    },
    {
      "channel": 0,
      "note": 40,
      "start": 1.0582,
      "duration": 0.0161,
      "velocity": 115,
      "chip": "ym2612"
    },
    {
      "channel": 5,
      "note": 62,
      "start": 1.0594,
      "duration": 0.0161,
      "velocity": 100,
      "chip": "ym2612"
    },
    {
      "channel": 3,
      "note": 71,
      "start": 1.0611,
      "duration": 0.0156,
      "velocity": 96,
      "chip": "ym2612"
    },
    {
      "channel": 2,
      "note": 67,
      "start": 1.0624,
      "duration": 0.0161,
      "velocity": 100,
      "chip": "ym2612"
    },
    {
      "channel": 4,
      "note": 55,
      "start": 1.0635,
      "duration": 0.0162,
      "velocity": 100,
      "chip": "ym2612"
    },
    {
      "channel": 1,
      "note": 68,
      "start": 1.0725,
      "duration": 0.0161,
      "velocity": 116,
      "chip": "ym2612"
    },
    {
      "channel": 0,
      "note": 41,
      "start": 1.0743,
      "duration": 0.0161,
      "velocity": 115,
      "chip": "ym2612"
    },
    {
      "channel": 5,
      "note": 62,
      "start": 1.0755,
      "duration": 0.0161,
      "velocity": 100,
      "chip": "ym2612"
    },
    {
      "channel": 3,
      "note": 71,
      "start": 1.0767,
      "duration": 0.0162,
      "velocity": 96,
      "chip": "ym2612"
    },
    {
      "channel": 2,
      "note": 67,
      "start": 1.0785,
      "duration": 0.0161,
      "velocity": 100,
      "chip": "ym2612"
    },
    {
      "channel": 4,
      "note": 55,
      "start": 1.0797,
      "duration": 0.0162,
      "velocity": 100,
      "chip": "ym2612"
    },
    {
      "channel": 1,
      "note": 68,
      "start": 1.0886,
      "duration": 0.0161,
      "velocity": 116,
      "chip": "ym2612"
    },
    {
      "channel": 0,
      "note": 41,
      "start": 1.0903,
      "duration": 0.0161,
      "velocity": 115,
      "chip": "ym2612"
    },
    {
      "channel": 5,
      "note": 62,
      "start": 1.0916,
      "duration": 0.016,
      "velocity": 100,
      "chip": "ym2612"
    },
    {
      "channel": 3,
      "note": 71,
      "start": 1.0928,
      "duration": 0.016,
      "velocity": 96,
      "chip": "ym2612"
    },
    {
      "channel": 2,
      "note": 67,
      "start": 1.0945,
      "duration": 0.0154,
      "velocity": 100,
      "chip": "ym2612"
    },
    {
      "channel": 4,
      "note": 55,
      "start": 1.0958,
      "duration": 0.016,
      "velocity": 100,
      "chip": "ym2612"
    },
    {
      "channel": 1,
      "note": 68,
      "start": 1.1047,
      "duration": 0.0179,
      "velocity": 124,
      "chip": "ym2612"
    },
    {
      "channel": 0,
      "note": 42,
      "start": 1.1064,
      "duration": 0.0197,
      "velocity": 115,
      "chip": "ym2612"
    },
    {
      "channel": 4,
      "note": 55,
      "start": 1.1118,
      "duration": 0.0208,
      "velocity": 100,
      "chip": "ym2612"
    },
    {
      "channel": 1,
      "note": 64,
      "start": 1.1227,
      "duration": 0.0144,
      "velocity": 124,
      "chip": "ym2612"
    },
    {
      "channel": 0,
      "note": 36,
      "start": 1.1262,
      "duration": 0.0125,
      "velocity": 115,
      "chip": "ym2612"
    },
    {
      "channel": 5,
      "note": 62,
      "start": 1.1282,
      "duration": 0.0118,
      "velocity": 100,
      "chip": "ym2612"
    },
    {
      "channel": 3,
      "note": 71,
      "start": 1.1297,
      "duration": 0.0115,
      "velocity": 96,
      "chip": "ym2612"
    },
    {
      "channel": 2,
      "note": 67,
      "start": 1.1312,
      "duration": 0.0113,
      "velocity": 100,
      "chip": "ym2612"
    },
    {
      "channel": 4,
      "note": 62,
      "start": 1.1327,
      "duration": 0.0112,
      "velocity": 100,
      "chip": "ym2612"
    },
    {
      "channel": 1,
      "note": 64,
      "start": 1.137,
      "duration": 0.016,
      "velocity": 124,
      "chip": "ym2612"
    },
    {
      "channel": 0,
      "note": 36,
      "start": 1.1388,
      "duration": 0.016,
      "velocity": 115,
      "chip": "ym2612"
    },
    {
      "channel": 5,
      "note": 62,
      "start": 1.14,
      "duration": 0.0159,
      "velocity": 100,
      "chip": "ym2612"
    },
    {
      "channel": 3,
      "note": 71,
      "start": 1.1412,
      "duration": 0.0158,
      "velocity": 96,
      "chip": "ym2612"
    },
    {
      "channel": 2,
      "note": 67,
      "start": 1.1424,
      "duration": 0.0158,
      "velocity": 100,
      "chip": "ym2612"
    },
    {
      "channel": 4,
      "note": 62,
      "start": 1.1439,
      "duration": 0.0155,
      "velocity": 100,
      "chip": "ym2612"
    },
    {
      "channel": 1,
      "note": 64,
      "start": 1.1531,
      "duration": 0.0161,
      "velocity": 124,
      "chip": "ym2612"
    },
    {
      "channel": 0,
      "note": 37,
      "start": 1.1548,
      "duration": 0.0161,
      "velocity": 115,
      "chip": "ym2612"
    },
    {
      "channel": 5,
      "note": 62,
      "start": 1.1559,
      "duration": 0.0161,
      "velocity": 100,
      "chip": "ym2612"
    },
    {
      "channel": 3,
      "note": 71,
      "start": 1.1571,
      "duration": 0.0161,
      "velocity": 96,
      "chip": "ym2612"
    },
    {
      "channel": 2,
      "note": 67,
      "start": 1.1582,
      "duration": 0.0161,
      "velocity": 100,
      "chip": "ym2612"
    },
    {
      "channel": 4,
      "note": 62,
      "start": 1.1594,
      "duration": 0.0161,
      "velocity": 100,
      "chip": "ym2612"
    },
    {
      "channel": 1,
      "note": 64,
      "start": 1.1692,
      "duration": 0.0161,
      "velocity": 124,
      "chip": "ym2612"
    },
    {
      "channel": 0,
      "note": 37,
      "start": 1.1709,
      "duration": 0.0161,
      "velocity": 115,
      "chip": "ym2612"
    },
    {
      "channel": 5,
      "note": 62,
      "start": 1.172,
      "duration": 0.0161,
      "velocity": 100,
      "chip": "ym2612"
    },
    {
      "channel": 3,
      "note": 71,
      "start": 1.1732,
      "duration": 0.0161,
      "velocity": 96,
      "chip": "ym2612"
    },
    {
      "channel": 2,
      "note": 67,
      "start": 1.1743,
      "duration": 0.0161,
      "velocity": 100,
      "chip": "ym2612"
    },
    {
      "channel": 4,
      "note": 62,
      "start": 1.1755,
      "duration": 0.0161,
      "velocity": 100,
      "chip": "ym2612"
    },
    {
      "channel": 1,
      "note": 64,
      "start": 1.1853,
      "duration": 0.0161,
      "velocity": 124,
      "chip": "ym2612"
    },
    {
      "channel": 0,
      "note": 38,
      "start": 1.187,
      "duration": 0.0161,
      "velocity": 115,
      "chip": "ym2612"
    },
    {
      "channel": 5,
      "note": 62,
      "start": 1.1881,
      "duration": 0.0161,
      "velocity": 100,
      "chip": "ym2612"
    },
    {
      "channel": 3,
      "note": 71,
      "start": 1.1893,
      "duration": 0.0161,
      "velocity": 96,
      "chip": "ym2612"
    },
    {
      "channel": 2,
      "note": 67,
      "start": 1.1904,
      "duration": 0.0161,
      "velocity": 100,
      "chip": "ym2612"
    },
    {
      "channel": 4,
      "note": 62,
      "start": 1.1916,
      "duration": 0.0161,
      "velocity": 100,
      "chip": "ym2612"
    },
    {
      "channel": 1,
      "note": 64,
      "start": 1.2014,
      "duration": 0.0161,
      "velocity": 124,
      "chip": "ym2612"
    },
    {
      "channel": 0,
      "note": 38,
      "start": 1.2031,
      "duration": 0.0161,
      "velocity": 115,
      "chip": "ym2612"
    },
    {
      "channel": 5,
      "note": 62,
      "start": 1.2042,
      "duration": 0.0161,
      "velocity": 100,
      "chip": "ym2612"
    },
    {
      "channel": 3,
      "note": 71,
      "start": 1.2054,
      "duration": 0.0161,
      "velocity": 96,
      "chip": "ym2612"
    },
    {
      "channel": 2,
      "note": 67,
      "start": 1.2065,
      "duration": 0.0161,
      "velocity": 100,
      "chip": "ym2612"
    },
    {
      "channel": 4,
      "note": 62,
      "start": 1.2076,
      "duration": 0.0162,
      "velocity": 100,
      "chip": "ym2612"
    },
    {
      "channel": 1,
      "note": 64,
      "start": 1.2174,
      "duration": 0.0179,
      "velocity": 116,
      "chip": "ym2612"
    },
    {
      "channel": 0,
      "note": 39,
      "start": 1.2192,
      "duration": 0.0179,
      "velocity": 115,
      "chip": "ym2612"
    },
    {
      "channel": 5,
      "note": 62,
      "start": 1.2203,
      "duration": 0.018,
      "velocity": 100,
      "chip": "ym2612"
    },
    {
      "channel": 3,
      "note": 71,
      "start": 1.2215,
      "duration": 0.0181,
      "velocity": 96,
      "chip": "ym2612"
    },
    {
      "channel": 2,
      "note": 67,
      "start": 1.2227,
      "duration": 0.0181,
      "velocity": 100,
      "chip": "ym2612"
    },
    {
      "channel": 4,
      "note": 62,
      "start": 1.2238,
      "duration": 0.0181,
      "velocity": 100,
      "chip": "ym2612"
    },
    {
      "channel": 1,
      "note": 68,
      "start": 1.2353,
      "duration": 0.0144,
      "velocity": 116,
      "chip": "ym2612"
    },
    {
      "channel": 0,
      "note": 39,
      "start": 1.237,
      "duration": 0.0144,
      "velocity": 115,
      "chip": "ym2612"
    },
    {
      "channel": 5,
      "note": 62,
      "start": 1.2383,
      "duration": 0.0143,
      "velocity": 100,
      "chip": "ym2612"
    },
    {
      "channel": 3,
      "note": 71,
      "start": 1.2395,
      "duration": 0.0143,
      "velocity": 96,
      "chip": "ym2612"
    },
    {
      "channel": 2,
      "note": 67,
      "start": 1.2407,
      "duration": 0.0143,
      "velocity": 100,
      "chip": "ym2612"
    },
    {
      "channel": 4,
      "note": 62,
      "start": 1.2419,
      "duration": 0.0143,
      "velocity": 100,
      "chip": "ym2612"
    },
    {
      "channel": 1,
      "note": 68,
      "start": 1.2497,
      "duration": 0.016,
      "velocity": 116,
      "chip": "ym2612"
    },
    {
      "channel": 0,
      "note": 40,
      "start": 1.2514,
      "duration": 0.016,
      "velocity": 115,
      "chip": "ym2612"
    },
    {
      "channel": 5,
      "note": 62,
      "start": 1.2526,
      "duration": 0.016,
      "velocity": 100,
      "chip": "ym2612"
    },
    {
      "channel": 3,
      "note": 71,
      "start": 1.2538,
      "duration": 0.016,
      "velocity": 96,
      "chip": "ym2612"
    },
    {
      "channel": 2,
      "note": 67,
      "start": 1.255,
      "duration": 0.016,
      "velocity": 100,
      "chip": "ym2612"
    },
    {
      "channel": 4,
      "note": 62,
      "start": 1.2563,
      "duration": 0.016,
      "velocity": 100,
      "chip": "ym2612"
    },
    {
      "channel": 1,
      "note": 68,
      "start": 1.2657,
      "duration": 0.0161,
      "velocity": 116,
      "chip": "ym2612"
    },
    {
      "channel": 0,
      "note": 40,
      "start": 1.2674,
      "duration": 0.0161,
      "velocity": 115,
      "chip": "ym2612"
    },
    {
      "channel": 5,
      "note": 62,
      "start": 1.2687,
      "duration": 0.0161,
      "velocity": 100,
      "chip": "ym2612"
    },
    {
      "channel": 3,
      "note": 71,
      "start": 1.2699,
      "duration": 0.0161,
      "velocity": 96,
      "chip": "ym2612"
    },
    {
      "channel": 2,
      "note": 67,
      "start": 1.2711,
      "duration": 0.0161,
      "velocity": 100,
      "chip": "ym2612"
    },
    {
      "channel": 4,
      "note": 62,
      "start": 1.2723,
      "duration": 0.016,
      "velocity": 100,
      "chip": "ym2612"
    },
    {
      "channel": 1,
      "note": 68,
      "start": 1.2819,
      "duration": 0.0161,
      "velocity": 116,
      "chip": "ym2612"
    },
    {
      "channel": 0,
      "note": 40,
      "start": 1.2835,
      "duration": 0.0162,
      "velocity": 115,
      "chip": "ym2612"
    },
    {
      "channel": 5,
      "note": 62,
      "start": 1.2847,
      "duration": 0.0161,
      "velocity": 100,
      "chip": "ym2612"
    },
    {
      "channel": 3,
      "note": 71,
      "start": 1.286,
      "duration": 0.0161,
      "velocity": 96,
      "chip": "ym2612"
    },
    {
      "channel": 2,
      "note": 67,
      "start": 1.2872,
      "duration": 0.0161,
      "velocity": 100,
      "chip": "ym2612"
    },
    {
      "channel": 4,
      "note": 62,
      "start": 1.2883,
      "duration": 0.0161,
      "velocity": 100,
      "chip": "ym2612"
    },
    {
      "channel": 1,
      "note": 68,
      "start": 1.298,
      "duration": 0.0161,
      "velocity": 116,
      "chip": "ym2612"
    },
    {
      "channel": 0,
      "note": 41,
      "start": 1.2997,
      "duration": 0.0161,
      "velocity": 115,
      "chip": "ym2612"
    },
    {
      "channel": 5,
      "note": 62,
      "start": 1.3008,
      "duration": 0.0162,
      "velocity": 100,
      "chip": "ym2612"
    },
    {
      "channel": 3,
      "note": 71,
      "start": 1.302,
      "duration": 0.0162,
      "velocity": 96,
      "chip": "ym2612"
    },
    {
      "channel": 2,
      "note": 67,
      "start": 1.3033,
      "duration": 0.0161,
      "velocity": 100,
      "chip": "ym2612"
    },
    {
      "channel": 4,
      "note": 62,
      "start": 1.3044,
      "duration": 0.0162,
      "velocity": 100,
      "chip": "ym2612"
    },
    {
      "channel": 1,
      "note": 68,
      "start": 1.3141,
      "duration": 0.0161,
      "velocity": 116,
      "chip": "ym2612"
    },
    {
      "channel": 0,
      "note": 41,
      "start": 1.3158,
      "duration": 0.0161,
      "velocity": 115,
      "chip": "ym2612"
    },
    {
      "channel": 5,
      "note": 62,
      "start": 1.317,
      "duration": 0.016,
      "velocity": 100,
      "chip": "ym2612"
    },
    {
      "channel": 3,
      "note": 71,
      "start": 1.3182,
      "duration": 0.016,
      "velocity": 96,
      "chip": "ym2612"
    },
    {
      "channel": 2,
      "note": 67,
      "start": 1.3194,
      "duration": 0.016,
      "velocity": 100,
      "chip": "ym2612"
    },
    {
      "channel": 4,
      "note": 62,
      "start": 1.3206,
      "duration": 0.016,
      "velocity": 100,
      "chip": "ym2612"
    },
    {
      "channel": 1,
      "note": 68,
      "start": 1.3302,
      "duration": 0.0179,
      "velocity": 116,
      "chip": "ym2612"
    },
    {
      "channel": 0,
      "note": 42,
      "start": 1.3319,
      "duration": 0.0179,
      "velocity": 115,
      "chip": "ym2612"
    },
    {
      "channel": 4,
      "note": 62,
      "start": 1.3365,
      "duration": 0.0187,
      "velocity": 100,
      "chip": "ym2612"
    },
    {
      "channel": 1,
      "note": 68,
      "start": 1.3481,
      "duration": 0.0144,
      "velocity": 116,
      "chip": "ym2612"
    },
    {
      "channel": 0,
      "note": 42,
      "start": 1.3498,
      "duration": 0.0144,
      "velocity": 115,
      "chip": "ym2612"
    },
    {
      "channel": 4,
      "note": 57,
      "start": 1.3552,
      "duration": 0.0139,
      "velocity": 100,
      "chip": "ym2612"
    },
    {
      "channel": 1,
      "note": 68,
      "start": 1.3625,
      "duration": 0.0163,
      "velocity": 116,
      "chip": "ym2612"
    },
    {
      "channel": 0,
      "note": 43,
      "start": 1.3643,
      "duration": 0.0163,
      "velocity": 115,
      "chip": "ym2612"
    },
    {
      "channel": 4,
      "note": 57,
      "start": 1.3692,
      "duration": 0.0163,
      "velocity": 100,
      "chip": "ym2612"
    },
    {
      "channel": 1,
      "note": 68,
      "start": 1.3788,
      "duration": 0.0163,
      "velocity": 116,
      "chip": "ym2612"
    },
    {
      "channel": 0,
      "note": 43,
      "start": 1.3805,
      "duration": 0.0163,
      "velocity": 115,
      "chip": "ym2612"
    },
    {
      "channel": 4,
      "note": 57,
      "start": 1.3854,
      "duration": 0.0163,
      "velocity": 100,
      "chip": "ym2612"
    },
    {
      "channel": 1,
      "note": 68,
      "start": 1.3952,
      "duration": 0.016,
      "velocity": 116,
      "chip": "ym2612"
    },
    {
      "channel": 0,
      "note": 44,
      "start": 1.3969,
      "duration": 0.0161,
      "velocity": 115,
      "chip": "ym2612"
    },
    {
      "channel": 4,
      "note": 57,
      "start": 1.4017,
      "duration": 0.0161,
      "velocity": 100,
      "chip": "ym2612"
    },
    {
      "channel": 1,
      "note": 68,
      "start": 1.4112,
      "duration": 0.0158,
      "velocity": 116,
      "chip": "ym2612"
    },
    {
      "channel": 0,
      "note": 44,
      "start": 1.413,
      "duration": 0.0161,
      "velocity": 115,
      "chip": "ym2612"
    },
    {
      "channel": 4,
      "note": 57,
      "start": 1.4178,
      "duration": 0.0161,
      "velocity": 100,
      "chip": "ym2612"
    },
    {
      "channel": 1,
      "note": 68,
      "start": 1.427,
      "duration": 0.0159,
      "velocity": 116,
      "chip": "ym2612"
    },
    {
      "channel": 0,
      "note": 44,
      "start": 1.4291,
      "duration": 0.0161,
      "velocity": 115,
      "chip": "ym2612"
    },
    {
      "channel": 4,
      "note": 57,
      "start": 1.4339,
      "duration": 0.0162,
      "velocity": 100,
      "chip": "ym2612"
    },
    {
      "channel": 1,
      "note": 68,
      "start": 1.4429,
      "duration": 0.0183,
      "velocity": 105,
      "chip": "ym2612"
    },
    {
      "channel": 0,
      "note": 45,
      "start": 1.4452,
      "duration": 0.0196,
      "velocity": 115,
      "chip": "ym2612"
    },
    {
      "channel": 4,
      "note": 57,
      "start": 1.4501,
      "duration": 0.0207,
      "velocity": 100,
      "chip": "ym2612"
    },
    {
      "channel": 1,
      "note": 105,
      "start": 1.4613,
      "duration": 0.0139,
      "velocity": 105,
      "chip": "ym2612"
    },
    {
      "channel": 0,
      "note": 36,
      "start": 1.4649,
      "duration": 0.0122,
      "velocity": 115,
      "chip": "ym2612"
    },
    {
      "channel": 5,
      "note": 64,
      "start": 1.4664,
      "duration": 0.0123,
      "velocity": 100,
      "chip": "ym2612"
    },
    {
      "channel": 3,
      "note": 73,
      "start": 1.4679,
      "duration": 0.012,
      "velocity": 96,
      "chip": "ym2612"
    },
    {
      "channel": 2,
      "note": 69,
      "start": 1.4694,
      "duration": 0.0118,
      "velocity": 100,
      "chip": "ym2612"
    },
    {
      "channel": 4,
      "note": 64,
      "start": 1.4709,
      "duration": 0.0115,
      "velocity": 100,
      "chip": "ym2612"
    },
    {
      "channel": 1,
      "note": 105,
      "start": 1.4751,
      "duration": 0.016,
      "velocity": 105,
      "chip": "ym2612"
    },
    {
      "channel": 0,
      "note": 36,
      "start": 1.4771,
      "duration": 0.0157,
      "velocity": 115,
      "chip": "ym2612"
    },
    {
      "channel": 5,
      "note": 64,
      "start": 1.4787,
      "duration": 0.0158,
      "velocity": 100,
      "chip": "ym2612"
    },
    {
      "channel": 3,
      "note": 73,
      "start": 1.4799,
      "duration": 0.0159,
      "velocity": 96,
      "chip": "ym2612"
    },
    {
      "channel": 2,
      "note": 69,
      "start": 1.4811,
      "duration": 0.0158,
      "velocity": 100,
      "chip": "ym2612"
    },
    {
      "channel": 4,
      "note": 64,
      "start": 1.4824,
      "duration": 0.0157,
      "velocity": 100,
      "chip": "ym2612"
    },
    {
      "channel": 1,
      "note": 105,
      "start": 1.4912,
      "duration": 0.0161,
      "velocity": 105,
      "chip": "ym2612"
    },
    {
      "channel": 0,
      "note": 37,
      "start": 1.4928,
      "duration": 0.0161,
      "velocity": 115,
      "chip": "ym2612"
    },
    {
      "channel": 5,
      "note": 64,
      "start": 1.4945,
      "duration": 0.0158,
      "velocity": 100,
      "chip": "ym2612"
    },
    {
      "channel": 3,
      "note": 73,
      "start": 1.4958,
      "duration": 0.0161,
      "velocity": 96,
      "chip": "ym2612"
    },
    {
      "channel": 2,
      "note": 69,
      "start": 1.4969,
      "duration": 0.0161,
      "velocity": 100,
      "chip": "ym2612"
    },
    {
      "channel": 4,
      "note": 64,
      "start": 1.4981,
      "duration": 0.0161,
      "velocity": 100,
      "chip": "ym2612"
    },
    {
      "channel": 1,
      "note": 105,
      "start": 1.5073,
      "duration": 0.0161,
      "velocity": 105,
      "chip": "ym2612"
    },
    {
      "channel": 0,
      "note": 37,
      "start": 1.509,
      "duration": 0.0161,
      "velocity": 115,
      "chip": "ym2612"
    },
    {
      "channel": 5,
      "note": 64,
      "start": 1.5103,
      "duration": 0.0159,
      "velocity": 100,
      "chip": "ym2612"
    },
    {
      "channel": 3,
      "note": 73,
      "start": 1.5119,
      "duration": 0.016,
      "velocity": 96,
      "chip": "ym2612"
    },
    {
      "channel": 2,
      "note": 69,
      "start": 1.513,
      "duration": 0.0162,
      "velocity": 100,
      "chip": "ym2612"
    },
    {
      "channel": 4,
      "note": 64,
      "start": 1.5142,
      "duration": 0.0161,
      "velocity": 100,
      "chip": "ym2612"
    },
    {
      "channel": 1,
      "note": 105,
      "start": 1.5234,
      "duration": 0.0161,
      "velocity": 105,
      "chip": "ym2612"
    },
    {
      "channel": 0,
      "note": 38,
      "start": 1.5251,
      "duration": 0.0161,
      "velocity": 115,
      "chip": "ym2612"
    },
    {
      "channel": 5,
      "note": 64,
      "start": 1.5262,
      "duration": 0.0161,
      "velocity": 100,
      "chip": "ym2612"
    },
    {
      "channel": 3,
      "note": 73,
      "start": 1.5279,
      "duration": 0.0158,
      "velocity": 96,
      "chip": "ym2612"
    },
    {
      "channel": 2,
      "note": 69,
      "start": 1.5292,
      "duration": 0.0161,
      "velocity": 100,
      "chip": "ym2612"
    },
    {
      "channel": 4,
      "note": 64,
      "start": 1.5303,
      "duration": 0.0161,
      "velocity": 100,
      "chip": "ym2612"
    },
    {
      "channel": 1,
      "note": 105,
      "start": 1.5395,
      "duration": 0.0161,
      "velocity": 105,
      "chip": "ym2612"
    },
    {
      "channel": 0,
      "note": 38,
      "start": 1.5412,
      "duration": 0.0161,
      "velocity": 115,
      "chip": "ym2612"
    },
    {
      "channel": 5,
      "note": 64,
      "start": 1.5423,
      "duration": 0.0161,
      "velocity": 100,
      "chip": "ym2612"
    },
    {
      "channel": 3,
      "note": 73,
      "start": 1.5437,
      "duration": 0.0159,
      "velocity": 96,
      "chip": "ym2612"
    },
    {
      "channel": 2,
      "note": 69,
      "start": 1.5452,
      "duration": 0.016,
      "velocity": 100,
      "chip": "ym2612"
    },
    {
      "channel": 4,
      "note": 64,
      "start": 1.5464,
      "duration": 0.0161,
      "velocity": 100,
      "chip": "ym2612"
    },
    {
      "channel": 1,
      "note": 105,
      "start": 1.5556,
      "duration": 0.0161,
      "velocity": 105,
      "chip": "ym2612"
    },
    {
      "channel": 0,
      "note": 39,
      "start": 1.5573,
      "duration": 0.0161,
      "velocity": 115,
      "chip": "ym2612"
    },
    {
      "channel": 5,
      "note": 64,
      "start": 1.5584,
      "duration": 0.0161,
      "velocity": 100,
      "chip": "ym2612"
    },
    {
      "channel": 3,
      "note": 73,
      "start": 1.5596,
      "duration": 0.0161,
      "velocity": 96,
      "chip": "ym2612"
    },
    {
      "channel": 2,
      "note": 69,
      "start": 1.5613,
      "duration": 0.0158,
      "velocity": 100,
      "chip": "ym2612"
    },
    {
      "channel": 4,
      "note": 64,
      "start": 1.5625,
      "duration": 0.0161,
      "velocity": 100,
      "chip": "ym2612"
    },
    {
      "channel": 1,
      "note": 105,
      "start": 1.5717,
      "duration": 0.0161,
      "velocity": 105,
      "chip": "ym2612"
    },
    {
      "channel": 0,
      "note": 39,
      "start": 1.5734,
      "duration": 0.0161,
      "velocity": 115,
      "chip": "ym2612"
    },
    {
      "channel": 5,
      "note": 64,
      "start": 1.5745,
      "duration": 0.0161,
      "velocity": 100,
      "chip": "ym2612"
    },
    {
      "channel": 3,
      "note": 73,
      "start": 1.5756,
      "duration": 0.0162,
      "velocity": 96,
      "chip": "ym2612"
    },
    {
      "channel": 2,
      "note": 69,
      "start": 1.5771,
      "duration": 0.0159,
      "velocity": 100,
      "chip": "ym2612"
    },
    {
      "channel": 4,
      "note": 64,
      "start": 1.5786,
      "duration": 0.016,
      "velocity": 100,
      "chip": "ym2612"
    },
    {
      "channel": 1,
      "note": 105,
      "start": 1.5877,
      "duration": 0.0161,
      "velocity": 105,
      "chip": "ym2612"
    },
    {
      "channel": 0,
      "note": 40,
      "start": 1.5895,
      "duration": 0.0161,
      "velocity": 115,
      "chip": "ym2612"
    },
    {
      "channel": 5,
      "note": 64,
      "start": 1.5906,
      "duration": 0.0161,
      "velocity": 100,
      "chip": "ym2612"
    },
    {
      "channel": 3,
      "note": 73,
      "start": 1.5918,
      "duration": 0.0161,
      "velocity": 96,
      "chip": "ym2612"
    },
    {
      "channel": 2,
      "note": 69,
      "start": 1.5929,
      "duration": 0.0161,
      "velocity": 100,
      "chip": "ym2612"
    },
    {
      "channel": 4,
      "note": 64,
      "start": 1.5946,
      "duration": 0.0158,
      "velocity": 100,
      "chip": "ym2612"
    },
    {
      "channel": 1,
      "note": 105,
      "start": 1.6038,
      "duration": 0.0162,
      "velocity": 105,
      "chip": "ym2612"
    },
    {
      "channel": 0,
      "note": 40,
      "start": 1.6056,
      "duration": 0.0161,
      "velocity": 115,
      "chip": "ym2612"
    },
    {
      "channel": 5,
      "note": 64,
      "start": 1.6067,
      "duration": 0.0162,
      "velocity": 100,
      "chip": "ym2612"
    },
    {
      "channel": 3,
      "note": 73,
      "start": 1.6079,
      "duration": 0.0161,
      "velocity": 96,
      "chip": "ym2612"
    },
    {
      "channel": 2,
      "note": 69,
      "start": 1.609,
      "duration": 0.0161,
      "velocity": 100,
      "chip": "ym2612"
    },
    {
      "channel": 4,
      "note": 64,
      "start": 1.6104,
      "duration": 0.0159,
      "velocity": 100,
      "chip": "ym2612"
    },
    {
      "channel": 1,
      "note": 105,
      "start": 1.62,
      "duration": 0.0161,
      "velocity": 105,
      "chip": "ym2612"
    },
    {
      "channel": 0,
      "note": 40,
      "start": 1.6217,
      "duration": 0.0161,
      "velocity": 115,
      "chip": "ym2612"
    },
    {
      "channel": 5,
      "note": 64,
      "start": 1.6229,
      "duration": 0.0161,
      "velocity": 100,
      "chip": "ym2612"
    },
    {
      "channel": 3,
      "note": 73,
      "start": 1.624,
      "duration": 0.0161,
      "velocity": 96,
      "chip": "ym2612"
    },
    {
      "channel": 2,
      "note": 69,
      "start": 1.6251,
      "duration": 0.0161,
      "velocity": 100,
      "chip": "ym2612"
    },
    {
      "channel": 4,
      "note": 64,
      "start": 1.6263,
      "duration": 0.0162,
      "velocity": 100,
      "chip": "ym2612"
    },
    {
      "channel": 1,
      "note": 105,
      "start": 1.6361,
      "duration": 0.0161,
      "velocity": 105,
      "chip": "ym2612"
    },
    {
      "channel": 0,
      "note": 41,
      "start": 1.6378,
      "duration": 0.0161,
      "velocity": 115,
      "chip": "ym2612"
    },
    {
      "channel": 5,
      "note": 64,
      "start": 1.639,
      "duration": 0.0161,
      "velocity": 100,
      "chip": "ym2612"
    },
    {
      "channel": 3,
      "note": 73,
      "start": 1.6401,
      "duration": 0.0161,
      "velocity": 96,
      "chip": "ym2612"
    },
    {
      "channel": 2,
      "note": 69,
      "start": 1.6412,
      "duration": 0.0161,
      "velocity": 100,
      "chip": "ym2612"
    },
    {
      "channel": 4,
      "note": 64,
      "start": 1.6424,
      "duration": 0.0161,
      "velocity": 100,
      "chip": "ym2612"
    },
    {
      "channel": 1,
      "note": 105,
      "start": 1.6522,
      "duration": 0.0161,
      "velocity": 105,
      "chip": "ym2612"
    },
    {
      "channel": 0,
      "note": 41,
      "start": 1.6539,
      "duration": 0.0161,
      "velocity": 115,
      "chip": "ym2612"
    },
    {
      "channel": 5,
      "note": 64,
      "start": 1.655,
      "duration": 0.0161,
      "velocity": 100,
      "chip": "ym2612"
    },
    {
      "channel": 3,
      "note": 73,
      "start": 1.6562,
      "duration": 0.0161,
      "velocity": 96,
      "chip": "ym2612"
    },
    {
      "channel": 2,
      "note": 69,
      "start": 1.6573,
      "duration": 0.0161,
      "velocity": 100,
      "chip": "ym2612"
    },
    {
      "channel": 4,
      "note": 64,
      "start": 1.6585,
      "duration": 0.0161,
      "velocity": 100,
      "chip": "ym2612"
    },
    {
      "channel": 1,
      "note": 105,
      "start": 1.6683,
      "duration": 0.0179,
      "velocity": 116,
      "chip": "ym2612"
    },
    {
      "channel": 0,
      "note": 42,
      "start": 1.67,
      "duration": 0.0179,
      "velocity": 115,
      "chip": "ym2612"
    },
    {
      "channel": 5,
      "note": 64,
      "start": 1.6711,
      "duration": 0.0179,
      "velocity": 100,
      "chip": "ym2612"
    },
    {
      "channel": 3,
      "note": 73,
      "start": 1.6723,
      "duration": 0.0179,
      "velocity": 96,
      "chip": "ym2612"
    },
    {
      "channel": 2,
      "note": 69,
      "start": 1.6734,
      "duration": 0.0179,
      "velocity": 100,
      "chip": "ym2612"
    },
    {
      "channel": 4,
      "note": 64,
      "start": 1.6746,
      "duration": 0.0181,
      "velocity": 100,
      "chip": "ym2612"
    },
    {
      "channel": 1,
      "note": 68,
      "start": 1.6861,
      "duration": 0.0144,
      "velocity": 116,
      "chip": "ym2612"
    },
    {
      "channel": 0,
      "note": 42,
      "start": 1.6879,
      "duration": 0.0144,
      "velocity": 115,
      "chip": "ym2612"
    },
    {
      "channel": 5,
      "note": 64,
      "start": 1.689,
      "duration": 0.0144,
      "velocity": 100,
      "chip": "ym2612"
    },
    {
      "channel": 3,
      "note": 73,
      "start": 1.6902,
      "duration": 0.0144,
      "velocity": 96,
      "chip": "ym2612"
    },
    {
      "channel": 2,
      "note": 69,
      "start": 1.6914,
      "duration": 0.0144,
      "velocity": 100,
      "chip": "ym2612"
    },
    {
      "channel": 4,
      "note": 57,
      "start": 1.6928,
      "duration": 0.0141,
      "velocity": 100,
      "chip": "ym2612"
    },
    {
      "channel": 1,
      "note": 68,
      "start": 1.7005,
      "duration": 0.016,
      "velocity": 116,
      "chip": "ym2612"
    },
    {
      "channel": 0,
      "note": 43,
      "start": 1.7022,
      "duration": 0.016,
      "velocity": 115,
      "chip": "ym2612"
    },
    {
      "channel": 5,
      "note": 64,
      "start": 1.7034,
      "duration": 0.016,
      "velocity": 100,
      "chip": "ym2612"
    },
    {
      "channel": 3,
      "note": 73,
      "start": 1.7046,
      "duration": 0.016,
      "velocity": 96,
      "chip": "ym2612"
    },
    {
      "channel": 2,
      "note": 69,
      "start": 1.7057,
      "duration": 0.016,
      "velocity": 100,
      "chip": "ym2612"
    },
    {
      "channel": 4,
      "note": 57,
      "start": 1.707,
      "duration": 0.016,
      "velocity": 100,
      "chip": "ym2612"
    },
    {
      "channel": 1,
      "note": 68,
      "start": 1.7166,
      "duration": 0.0162,
      "velocity": 116,
      "chip": "ym2612"
    },
    {
      "channel": 0,
      "note": 43,
      "start": 1.7183,
      "duration": 0.0161,
      "velocity": 115,
      "chip": "ym2612"
    },
    {
      "channel": 5,
      "note": 64,
      "start": 1.7194,
      "duration": 0.0162,
      "velocity": 100,
      "chip": "ym2612"
    },
    {
      "channel": 3,
      "note": 73,
      "start": 1.7206,
      "duration": 0.0161,
      "velocity": 96,
      "chip": "ym2612"
    },
    {
      "channel": 2,
      "note": 69,
      "start": 1.7218,
      "duration": 0.0161,
      "velocity": 100,
      "chip": "ym2612"
    },
    {
      "channel": 4,
      "note": 57,
      "start": 1.7229,
      "duration": 0.0161,
      "velocity": 100,
      "chip": "ym2612"
    },
    {
      "channel": 1,
      "note": 68,
      "start": 1.7327,
      "duration": 0.0161,
      "velocity": 116,
      "chip": "ym2612"
    },
    {
      "channel": 0,
      "note": 44,
      "start": 1.7344,
      "duration": 0.0161,
      "velocity": 115,
      "chip": "ym2612"
    },
    {
      "channel": 5,
      "note": 64,
      "start": 1.7356,
      "duration": 0.0161,
      "velocity": 100,
      "chip": "ym2612"
    },
    {
      "channel": 3,
      "note": 73,
      "start": 1.7367,
      "duration": 0.0162,
      "velocity": 96,
      "chip": "ym2612"
    },
    {
      "channel": 2,
      "note": 69,
      "start": 1.7379,
      "duration": 0.0163,
      "velocity": 100,
      "chip": "ym2612"
    },
    {
      "channel": 4,
      "note": 57,
      "start": 1.739,
      "duration": 0.0163,
      "velocity": 100,
      "chip": "ym2612"
    },
    {
      "channel": 1,
      "note": 68,
      "start": 1.7488,
      "duration": 0.0161,
      "velocity": 116,
      "chip": "ym2612"
    },
    {
      "channel": 0,
      "note": 44,
      "start": 1.7505,
      "duration": 0.0162,
      "velocity": 115,
      "chip": "ym2612"
    },
    {
      "channel": 5,
      "note": 64,
      "start": 1.7517,
      "duration": 0.0161,
      "velocity": 100,
      "chip": "ym2612"
    },
    {
      "channel": 3,
      "note": 73,
      "start": 1.7529,
      "duration": 0.0161,
      "velocity": 96,
      "chip": "ym2612"
    },
    {
      "channel": 2,
      "note": 69,
      "start": 1.7542,
      "duration": 0.016,
      "velocity": 100,
      "chip": "ym2612"
    },
    {
      "channel": 4,
      "note": 57,
      "start": 1.7554,
      "duration": 0.016,
      "velocity": 100,
      "chip": "ym2612"
    },
    {
      "channel": 1,
      "note": 68,
      "start": 1.7649,
      "duration": 0.0161,
      "velocity": 116,
      "chip": "ym2612"
    },
    {
      "channel": 0,
      "note": 44,
      "start": 1.7666,
      "duration": 0.0161,
      "velocity": 115,
      "chip": "ym2612"
    },
    {
      "channel": 5,
      "note": 64,
      "start": 1.7678,
      "duration": 0.0161,
      "velocity": 100,
      "chip": "ym2612"
    },
    {
      "channel": 3,
      "note": 73,
      "start": 1.769,
      "duration": 0.0161,
      "velocity": 96,
      "chip": "ym2612"
    },
    {
      "channel": 2,
      "note": 69,
      "start": 1.7702,
      "duration": 0.0161,
      "velocity": 100,
      "chip": "ym2612"
    },
    {
      "channel": 4,
      "note": 57,
      "start": 1.7714,
      "duration": 0.0161,
      "velocity": 100,
      "chip": "ym2612"
    },
    {
      "channel": 1,
      "note": 68,
      "start": 1.781,
      "duration": 0.0184,
      "velocity": 124,
      "chip": "ym2612"
    },
    {
      "channel": 0,
      "note": 45,
      "start": 1.7827,
      "duration": 0.0203,
      "velocity": 115,
      "chip": "ym2612"
    },
    {
      "channel": 4,
      "note": 57,
      "start": 1.7875,
      "duration": 0.0247,
      "velocity": 100,
      "chip": "ym2612"
    },
    {
      "channel": 1,
      "note": 84,
      "start": 1.7995,
      "duration": 0.0159,
      "velocity": 124,
      "chip": "ym2612"
    },
    {
      "channel": 0,
      "note": 36,
      "start": 1.8031,
      "duration": 0.0141,
      "velocity": 115,
      "chip": "ym2612"
    },
    {
      "channel": 5,
      "note": 66,
      "start": 1.8058,
      "duration": 0.0125,
      "velocity": 100,
      "chip": "ym2612"
    },
    {
      "channel": 3,
      "note": 74,
      "start": 1.8085,
      "duration": 0.011,
      "velocity": 100,
      "chip": "ym2612"
    },
    {
      "channel": 2,
      "note": 69,
      "start": 1.8101,
      "duration": 0.0107,
      "velocity": 100,
      "chip": "ym2612"
    },
    {
      "channel": 4,
      "note": 50,
      "start": 1.8122,
      "duration": 0.0098,
      "velocity": 100,
      "chip": "ym2612"
    },
    {
      "channel": 1,
      "note": 82,
      "start": 1.8154,
      "duration": 0.0146,
      "velocity": 124,
      "chip": "ym2612"
    },
    {
      "channel": 0,
      "note": 36,
      "start": 1.8171,
      "duration": 0.0145,
      "velocity": 115,
      "chip": "ym2612"
    },
    {
      "channel": 5,
      "note": 66,
      "start": 1.8183,
      "duration": 0.0144,
      "velocity": 100,
      "chip": "ym2612"
    },
    {
      "channel": 3,
      "note": 74,
      "start": 1.8195,
      "duration": 0.0144,
      "velocity": 100,
      "chip": "ym2612"
    },
    {
      "channel": 2,
      "note": 69,
      "start": 1.8207,
      "duration": 0.0143,
      "velocity": 100,
      "chip": "ym2612"
    },
    {
      "channel": 4,
      "note": 50,
      "start": 1.822,
      "duration": 0.0142,
      "velocity": 100,
      "chip": "ym2612"
    },
    {
      "channel": 1,
      "note": 80,
      "start": 1.8299,
      "duration": 0.0164,
      "velocity": 124,
      "chip": "ym2612"
    },
    {
      "channel": 0,
      "note": 37,
      "start": 1.8316,
      "duration": 0.0164,
      "velocity": 115,
      "chip": "ym2612"
    },
    {
      "channel": 5,
      "note": 66,
      "start": 1.8328,
      "duration": 0.0164,
      "velocity": 100,
      "chip": "ym2612"
    },
    {
      "channel": 3,
      "note": 74,
      "start": 1.8339,
      "duration": 0.0164,
      "velocity": 100,
      "chip": "ym2612"
    },
    {
      "channel": 2,
      "note": 69,
      "start": 1.8351,
      "duration": 0.0164,
      "velocity": 100,
      "chip": "ym2612"
    },
    {
      "channel": 4,
      "note": 50,
      "start": 1.8362,
      "duration": 0.0164,
      "velocity": 100,
      "chip": "ym2612"
    },
    {
      "channel": 1,
      "note": 77,
      "start": 1.8463,
      "duration": 0.0163,
      "velocity": 124,
      "chip": "ym2612"
    },
    {
      "channel": 0,
      "note": 37,
      "start": 1.848,
      "duration": 0.0163,
      "velocity": 115,
      "chip": "ym2612"
    },
    {
      "channel": 5,
      "note": 66,
      "start": 1.8492,
      "duration": 0.0163,
      "velocity": 100,
      "chip": "ym2612"
    },
    {
      "channel": 3,
      "note": 74,
      "start": 1.8503,
      "duration": 0.0163,
      "velocity": 100,
      "chip": "ym2612"
    },
    {
      "channel": 2,
      "note": 69,
      "start": 1.8515,
      "duration": 0.0163,
      "velocity": 100,
      "chip": "ym2612"
    },
    {
      "channel": 4,
      "note": 50,
      "start": 1.8526,
      "duration": 0.0163,
      "velocity": 100,
      "chip": "ym2612"
    },
    {
      "channel": 1,
      "note": 75,
      "start": 1.8627,
      "duration": 0.0161,
      "velocity": 124,
      "chip": "ym2612"
    },
    {
      "channel": 0,
      "note": 38,
      "start": 1.8643,
      "duration": 0.0161,
      "velocity": 115,
      "chip": "ym2612"
    },
    {
      "channel": 5,
      "note": 66,
      "start": 1.8655,
      "duration": 0.0162,
      "velocity": 100,
      "chip": "ym2612"
    },
    {
      "channel": 3,
      "note": 74,
      "start": 1.8667,
      "duration": 0.0161,
      "velocity": 100,
      "chip": "ym2612"
    },
    {
      "channel": 2,
      "note": 69,
      "start": 1.8678,
      "duration": 0.0161,
      "velocity": 100,
      "chip": "ym2612"
    },
    {
      "channel": 4,
      "note": 50,
      "start": 1.869,
      "duration": 0.0161,
      "velocity": 100,
      "chip": "ym2612"
    },
    {
      "channel": 1,
      "note": 72,
      "start": 1.8788,
      "duration": 0.016,
      "velocity": 124,
      "chip": "ym2612"
    },
    {
      "channel": 0,
      "note": 38,
      "start": 1.8804,
      "duration": 0.0161,
      "velocity": 115,
      "chip": "ym2612"
    },
    {
      "channel": 5,
      "note": 66,
      "start": 1.8816,
      "duration": 0.0161,
      "velocity": 100,
      "chip": "ym2612"
    },
    {
      "channel": 3,
      "note": 74,
      "start": 1.8828,
      "duration": 0.0161,
      "velocity": 100,
      "chip": "ym2612"
    },
    {
      "channel": 2,
      "note": 69,
      "start": 1.8839,
      "duration": 0.0161,
      "velocity": 100,
      "chip": "ym2612"
    },
    {
      "channel": 4,
      "note": 50,
      "start": 1.8851,
      "duration": 0.0161,
      "velocity": 100,
      "chip": "ym2612"
    },
    {
      "channel": 1,
      "note": 70,
      "start": 1.8948,
      "duration": 0.0158,
      "velocity": 124,
      "chip": "ym2612"
    },
    {
      "channel": 0,
      "note": 39,
      "start": 1.8965,
      "duration": 0.0162,
      "velocity": 115,
      "chip": "ym2612"
    },
    {
      "channel": 5,
      "note": 66,
      "start": 1.8977,
      "duration": 0.0161,
      "velocity": 100,
      "chip": "ym2612"
    },
    {
      "channel": 3,
      "note": 74,
      "start": 1.8989,
      "duration": 0.0162,
      "velocity": 100,
      "chip": "ym2612"
    },
    {
      "channel": 2,
      "note": 69,
      "start": 1.9,
      "duration": 0.0163,
      "velocity": 100,
      "chip": "ym2612"
    },
    {
      "channel": 4,
      "note": 50,
      "start": 1.9012,
      "duration": 0.0164,
      "velocity": 100,
      "chip": "ym2612"
    },
    {
      "channel": 1,
      "note": 68,
      "start": 1.9106,
      "duration": 0.0159,
      "velocity": 124,
      "chip": "ym2612"
    },
    {
      "channel": 0,
      "note": 39,
      "start": 1.9127,
      "duration": 0.0161,
      "velocity": 115,
      "chip": "ym2612"
    },
    {
      "channel": 5,
      "note": 66,
      "start": 1.9139,
      "duration": 0.0161,
      "velocity": 100,
      "chip": "ym2612"
    },
    {
      "channel": 3,
      "note": 74,
      "start": 1.9151,
      "duration": 0.0161,
      "velocity": 100,
      "chip": "ym2612"
    },
    {
      "channel": 2,
      "note": 69,
      "start": 1.9164,
      "duration": 0.016,
      "velocity": 100,
      "chip": "ym2612"
    },
    {
      "channel": 4,
      "note": 50,
      "start": 1.9176,
      "duration": 0.016,
      "velocity": 100,
      "chip": "ym2612"
    },
    {
      "channel": 1,
      "note": 65,
      "start": 1.9265,
      "duration": 0.0161,
      "velocity": 124,
      "chip": "ym2612"
    },
    {
      "channel": 0,
      "note": 40,
      "start": 1.9288,
      "duration": 0.016,
      "velocity": 115,
      "chip": "ym2612"
    },
    {
      "channel": 5,
      "note": 66,
      "start": 1.93,
      "duration": 0.0161,
      "velocity": 100,
      "chip": "ym2612"
    },
    {
      "channel": 3,
      "note": 74,
      "start": 1.9312,
      "duration": 0.0161,
      "velocity": 100,
      "chip": "ym2612"
    },
    {
      "channel": 2,
      "note": 69,
      "start": 1.9324,
      "duration": 0.0161,
      "velocity": 100,
      "chip": "ym2612"
    },
    {
      "channel": 4,
      "note": 50,
      "start": 1.9336,
      "duration": 0.0161,
      "velocity": 100,
      "chip": "ym2612"
    },
    {
      "channel": 1,
      "note": 63,
      "start": 1.9426,
      "duration": 0.0153,
      "velocity": 1,
      "chip": "ym2612"
    },
    {
      "channel": 0,
      "note": 40,
      "start": 1.9448,
      "duration": 0.0148,
      "velocity": 115,
      "chip": "ym2612"
    },
    {
      "channel": 5,
      "note": 66,
      "start": 1.9461,
      "duration": 0.0152,
      "velocity": 100,
      "chip": "ym2612"
    },
    {
      "channel": 3,
      "note": 74,
      "start": 1.9473,
      "duration": 0.0153,
      "velocity": 100,
      "chip": "ym2612"
    },
    {
      "channel": 2,
      "note": 69,
      "start": 1.9485,
      "duration": 0.0153,
      "velocity": 100,
      "chip": "ym2612"
    },
    {
      "channel": 4,
      "note": 50,
      "start": 1.9497,
      "duration": 0.0152,
      "velocity": 100,
      "chip": "ym2612"
    },
    {
      "channel": 0,
      "note": 40,
      "start": 1.9596,
      "duration": 0.0152,
      "velocity": 115,
      "chip": "ym2612"
    },
    {
      "channel": 5,
      "note": 66,
      "start": 1.9613,
      "duration": 0.0147,
      "velocity": 100,
      "chip": "ym2612"
    },
    {
      "channel": 3,
      "note": 74,
      "start": 1.9625,
      "duration": 0.0152,
      "velocity": 100,
      "chip": "ym2612"
    },
    {
      "channel": 2,
      "note": 69,
      "start": 1.9638,
      "duration": 0.0152,
      "velocity": 100,
      "chip": "ym2612"
    },
    {
      "channel": 4,
      "note": 50,
      "start": 1.9649,
      "duration": 0.0153,
      "velocity": 100,
      "chip": "ym2612"
    },
    {
      "channel": 0,
      "note": 41,
      "start": 1.9748,
      "duration": 0.0161,
      "velocity": 115,
      "chip": "ym2612"
    },
    {
      "channel": 5,
      "note": 66,
      "start": 1.976,
      "duration": 0.0162,
      "velocity": 100,
      "chip": "ym2612"
    },
    {
      "channel": 3,
      "note": 74,
      "start": 1.9778,
      "duration": 0.0156,
      "velocity": 100,
      "chip": "ym2612"
    },
    {
      "channel": 2,
      "note": 69,
      "start": 1.979,
      "duration": 0.0162,
      "velocity": 100,
      "chip": "ym2612"
    },
    {
      "channel": 4,
      "note": 50,
      "start": 1.9802,
      "duration": 0.0161,
      "velocity": 100,
      "chip": "ym2612"
    },
    {
      "channel": 0,
      "note": 41,
      "start": 1.9909,
      "duration": 0.0161,
      "velocity": 115,
      "chip": "ym2612"
    },
    {
      "channel": 5,
      "note": 66,
      "start": 1.9921,
      "duration": 0.016,
      "velocity": 100,
      "chip": "ym2612"
    },
    {
      "channel": 3,
      "note": 74,
      "start": 1.9933,
      "duration": 0.016,
      "velocity": 100,
      "chip": "ym2612"
    },
    {
      "channel": 2,
      "note": 69,
      "start": 1.9951,
      "duration": 0.0159,
      "velocity": 100,
      "chip": "ym2612"
    },
    {
      "channel": 4,
      "note": 50,
      "start": 1.9963,
      "duration": 0.016,
      "velocity": 100,
      "chip": "ym2612"
    },
    {
      "channel": 0,
      "note": 42,
      "start": 2.007,
      "duration": 0.0221,
      "velocity": 115,
      "chip": "ym2612"
    },
    {
      "channel": 4,
      "note": 50,
      "start": 2.0122,
      "duration": 0.0226,
      "velocity": 100,
      "chip": "ym2612"
    },
    {
      "channel": 1,
      "note": 84,
      "start": 2.0249,
      "duration": 0.0143,
      "velocity": 124,
      "chip": "ym2612"
    },
    {
      "channel": 0,
      "note": 36,
      "start": 2.029,
      "duration": 0.012,
      "velocity": 115,
      "chip": "ym2612"
    },
    {
      "channel": 5,
      "note": 66,
      "start": 2.0305,
      "duration": 0.0117,
      "velocity": 100,
      "chip": "ym2612"
    },
    {
      "channel": 3,
      "note": 74,
      "start": 2.032,
      "duration": 0.0115,
      "velocity": 100,
      "chip": "ym2612"
    },
    {
      "channel": 2,
      "note": 69,
      "start": 2.0334,
      "duration": 0.0118,
      "velocity": 100,
      "chip": "ym2612"
    },
    {
      "channel": 4,
      "note": 50,
      "start": 2.0349,
      "duration": 0.0116,
      "velocity": 100,
      "chip": "ym2612"
    },
    {
      "channel": 1,
      "note": 82,
      "start": 2.0392,
      "duration": 0.016,
      "velocity": 124,
      "chip": "ym2612"
    },
    {
      "channel": 0,
      "note": 36,
      "start": 2.041,
      "duration": 0.016,
      "velocity": 115,
      "chip": "ym2612"
    },
    {
      "channel": 5,
      "note": 66,
      "start": 2.0422,
      "duration": 0.0159,
      "velocity": 100,
      "chip": "ym2612"
    },
    {
      "channel": 3,
      "note": 74,
      "start": 2.0434,
      "duration": 0.0159,
      "velocity": 100,
      "chip": "ym2612"
    },
    {
      "channel": 2,
      "note": 69,
      "start": 2.0452,
      "duration": 0.0157,
      "velocity": 100,
      "chip": "ym2612"
    },
    {
      "channel": 4,
      "note": 50,
      "start": 2.0465,
      "duration": 0.0157,
      "velocity": 100,
      "chip": "ym2612"
    },
    {
      "channel": 1,
      "note": 80,
      "start": 2.0552,
      "duration": 0.0161,
      "velocity": 124,
      "chip": "ym2612"
    },
    {
      "channel": 0,
      "note": 37,
      "start": 2.057,
      "duration": 0.0161,
      "velocity": 115,
      "chip": "ym2612"
    },
    {
      "channel": 5,
      "note": 66,
      "start": 2.0581,
      "duration": 0.0161,
      "velocity": 100,
      "chip": "ym2612"
    },
    {
      "channel": 3,
      "note": 74,
      "start": 2.0593,
      "duration": 0.0161,
      "velocity": 100,
      "chip": "ym2612"
    },
    {
      "channel": 2,
      "note": 69,
      "start": 2.061,
      "duration": 0.0156,
      "velocity": 100,
      "chip": "ym2612"
    },
    {
      "channel": 4,
      "note": 50,
      "start": 2.0622,
      "duration": 0.016,
      "velocity": 100,
      "chip": "ym2612"
    },
    {
      "channel": 1,
      "note": 77,
      "start": 2.0714,
      "duration": 0.0161,
      "velocity": 124,
      "chip": "ym2612"
    },
    {
      "channel": 0,
      "note": 37,
      "start": 2.073,
      "duration": 0.0161,
      "velocity": 115,
      "chip": "ym2612"
    },
    {
      "channel": 5,
      "note": 66,
      "start": 2.0742,
      "duration": 0.0161,
      "velocity": 100,
      "chip": "ym2612"
    },
    {
      "channel": 3,
      "note": 74,
      "start": 2.0754,
      "duration": 0.0161,
      "velocity": 100,
      "chip": "ym2612"
    },
    {
      "channel": 2,
      "note": 69,
      "start": 2.0766,
      "duration": 0.0161,
      "velocity": 100,
      "chip": "ym2612"
    },
    {
      "channel": 4,
      "note": 50,
      "start": 2.0782,
      "duration": 0.0162,
      "velocity": 100,
      "chip": "ym2612"
    },
    {
      "channel": 1,
      "note": 75,
      "start": 2.0875,
      "duration": 0.0161,
      "velocity": 124,
      "chip": "ym2612"
    },
    {
      "channel": 0,
      "note": 38,
      "start": 2.0891,
      "duration": 0.0162,
      "velocity": 115,
      "chip": "ym2612"
    },
    {
      "channel": 5,
      "note": 66,
      "start": 2.0903,
      "duration": 0.0161,
      "velocity": 100,
      "chip": "ym2612"
    },
    {
      "channel": 3,
      "note": 74,
      "start": 2.0915,
      "duration": 0.0161,
      "velocity": 100,
      "chip": "ym2612"
    },
    {
      "channel": 2,
      "note": 69,
      "start": 2.0926,
      "duration": 0.0161,
      "velocity": 100,
      "chip": "ym2612"
    },
    {
      "channel": 4,
      "note": 50,
      "start": 2.0944,
      "duration": 0.0155,
      "velocity": 100,
      "chip": "ym2612"
    },
    {
      "channel": 1,
      "note": 72,
      "start": 2.1036,
      "duration": 0.0161,
      "velocity": 124,
      "chip": "ym2612"
    },
    {
      "channel": 0,
      "note": 38,
      "start": 2.1053,
      "duration": 0.0161,
      "velocity": 115,
      "chip": "ym2612"
    },
    {
      "channel": 5,
      "note": 66,
      "start": 2.1064,
      "duration": 0.0161,
      "velocity": 100,
      "chip": "ym2612"
    },
    {
      "channel": 3,
      "note": 74,
      "start": 2.1076,
      "duration": 0.0161,
      "velocity": 100,
      "chip": "ym2612"
    },
    {
      "channel": 2,
      "note": 69,
      "start": 2.1087,
      "duration": 0.0161,
      "velocity": 100,
      "chip": "ym2612"
    },
    {
      "channel": 4,
      "note": 50,
      "start": 2.1099,
      "duration": 0.0161,
      "velocity": 100,
      "chip": "ym2612"
    },
    {
      "channel": 1,
      "note": 70,
      "start": 2.1197,
      "duration": 0.0161,
      "velocity": 124,
      "chip": "ym2612"
    },
    {
      "channel": 0,
      "note": 39,
      "start": 2.1214,
      "duration": 0.0161,
      "velocity": 115,
      "chip": "ym2612"
    },
    {
      "channel": 5,
      "note": 66,
      "start": 2.1225,
      "duration": 0.0161,
      "velocity": 100,
      "chip": "ym2612"
    },
    {
      "channel": 3,
      "note": 74,
      "start": 2.1237,
      "duration": 0.0162,
      "velocity": 100,
      "chip": "ym2612"
    },
    {
      "channel": 2,
      "note": 69,
      "start": 2.1248,
      "duration": 0.0163,
      "velocity": 100,
      "chip": "ym2612"
    },
    {
      "channel": 4,
      "note": 50,
      "start": 2.126,
      "duration": 0.0164,
      "velocity": 100,
      "chip": "ym2612"
    },
    {
      "channel": 1,
      "note": 68,
      "start": 2.1358,
      "duration": 0.0161,
      "velocity": 124,
      "chip": "ym2612"
    },
    {
      "channel": 0,
      "note": 39,
      "start": 2.1375,
      "duration": 0.0161,
      "velocity": 115,
      "chip": "ym2612"
    },
    {
      "channel": 5,
      "note": 66,
      "start": 2.1387,
      "duration": 0.016,
      "velocity": 100,
      "chip": "ym2612"
    },
    {
      "channel": 3,
      "note": 74,
      "start": 2.1399,
      "duration": 0.016,
      "velocity": 100,
      "chip": "ym2612"
    },
    {
      "channel": 2,
      "note": 69,
      "start": 2.1412,
      "duration": 0.016,
      "velocity": 100,
      "chip": "ym2612"
    },
    {
      "channel": 4,
      "note": 50,
      "start": 2.1424,
      "duration": 0.016,
      "velocity": 100,
      "chip": "ym2612"
    },
    {
      "channel": 1,
      "note": 65,
      "start": 2.1519,
      "duration": 0.0161,
      "velocity": 124,
      "chip": "ym2612"
    },
    {
      "channel": 0,
      "note": 40,
      "start": 2.1536,
      "duration": 0.0161,
      "velocity": 115,
      "chip": "ym2612"
    },
    {
      "channel": 5,
      "note": 66,
      "start": 2.1547,
      "duration": 0.0161,
      "velocity": 100,
      "chip": "ym2612"
    },
    {
      "channel": 3,
      "note": 74,
      "start": 2.1559,
      "duration": 0.0161,
      "velocity": 100,
      "chip": "ym2612"
    },
    {
      "channel": 2,
      "note": 69,
      "start": 2.1571,
      "duration": 0.0161,
      "velocity": 100,
      "chip": "ym2612"
    },
    {
      "channel": 4,
      "note": 50,
      "start": 2.1583,
      "duration": 0.0162,
      "velocity": 100,
      "chip": "ym2612"
    },
    {
      "channel": 1,
      "note": 63,
      "start": 2.168,
      "duration": 0.0153,
      "velocity": 1,
      "chip": "ym2612"
    },
    {
      "channel": 0,
      "note": 40,
      "start": 2.1697,
      "duration": 0.0153,
      "velocity": 115,
      "chip": "ym2612"
    },
    {
      "channel": 5,
      "note": 66,
      "start": 2.1708,
      "duration": 0.0153,
      "velocity": 100,
      "chip": "ym2612"
    },
    {
      "channel": 3,
      "note": 74,
      "start": 2.172,
      "duration": 0.0153,
      "velocity": 100,
      "chip": "ym2612"
    },
    {
      "channel": 2,
      "note": 69,
      "start": 2.1732,
      "duration": 0.0153,
      "velocity": 100,
      "chip": "ym2612"
    },
    {
      "channel": 4,
      "note": 50,
      "start": 2.1745,
      "duration": 0.0152,
      "velocity": 100,
      "chip": "ym2612"
    },
    {
      "channel": 0,
      "note": 40,
      "start": 2.1849,
      "duration": 0.0153,
      "velocity": 115,
      "chip": "ym2612"
    },
    {
      "channel": 5,
      "note": 66,
      "start": 2.1861,
      "duration": 0.0153,
      "velocity": 100,
      "chip": "ym2612"
    },
    {
      "channel": 3,
      "note": 74,
      "start": 2.1873,
      "duration": 0.0153,
      "velocity": 100,
      "chip": "ym2612"
    },
    {
      "channel": 2,
      "note": 69,
      "start": 2.1886,
      "duration": 0.0153,
      "velocity": 100,
      "chip": "ym2612"
    },
    {
      "channel": 4,
      "note": 50,
      "start": 2.1897,
      "duration": 0.0153,
      "velocity": 100,
      "chip": "ym2612"
    },
    {
      "channel": 0,
      "note": 41,
      "start": 2.2002,
      "duration": 0.0161,
      "velocity": 115,
      "chip": "ym2612"
    },
    {
      "channel": 5,
      "note": 66,
      "start": 2.2014,
      "duration": 0.0161,
      "velocity": 100,
      "chip": "ym2612"
    },
    {
      "channel": 3,
      "note": 74,
      "start": 2.2026,
      "duration": 0.0161,
      "velocity": 100,
      "chip": "ym2612"
    },
    {
      "channel": 2,
      "note": 69,
      "start": 2.2038,
      "duration": 0.0161,
      "velocity": 100,
      "chip": "ym2612"
    },
    {
      "channel": 4,
      "note": 50,
      "start": 2.205,
      "duration": 0.0161,
      "velocity": 100,
      "chip": "ym2612"
    },
    {
      "channel": 0,
      "note": 41,
      "start": 2.2163,
      "duration": 0.0161,
      "velocity": 115,
      "chip": "ym2612"
    },
    {
      "channel": 5,
      "note": 66,
      "start": 2.2175,
      "duration": 0.016,
      "velocity": 100,
      "chip": "ym2612"
    },
    {
      "channel": 3,
      "note": 74,
      "start": 2.2187,
      "duration": 0.016,
      "velocity": 100,
      "chip": "ym2612"
    },
    {
      "channel": 2,
      "note": 69,
      "start": 2.2199,
      "duration": 0.016,
      "velocity": 100,
      "chip": "ym2612"
    },
    {
      "channel": 4,
      "note": 50,
      "start": 2.2211,
      "duration": 0.0159,
      "velocity": 100,
      "chip": "ym2612"
    },
    {
      "channel": 0,
      "note": 42,
      "start": 2.2324,
      "duration": 0.0161,
      "velocity": 115,
      "chip": "ym2612"
    },
    {
      "channel": 4,
      "note": 50,
      "start": 2.237,
      "duration": 0.0167,
      "velocity": 100,
      "chip": "ym2612"
    },
    {
      "channel": 0,
      "note": 42,
      "start": 2.2485,
      "duration": 0.0161,
      "velocity": 115,
      "chip": "ym2612"
    },
    {
      "channel": 4,
      "note": 50,
      "start": 2.2538,
      "duration": 0.0158,
      "velocity": 100,
      "chip": "ym2612"
    },
    {
      "channel": 0,
      "note": 43,
      "start": 2.2646,
      "duration": 0.0161,
      "velocity": 115,
      "chip": "ym2612"
    },
    {
      "channel": 4,
      "note": 50,
      "start": 2.2695,
      "duration": 0.016,
      "velocity": 100,
      "chip": "ym2612"
    },
    {
      "channel": 0,
      "note": 43,
      "start": 2.2807,
      "duration": 0.0161,
      "velocity": 115,
      "chip": "ym2612"
    },
    {
      "channel": 4,
      "note": 50,
      "start": 2.2856,
      "duration": 0.0161,
      "velocity": 100,
      "chip": "ym2612"
    },
    {
      "channel": 0,
      "note": 44,
      "start": 2.2968,
      "duration": 0.0162,
      "velocity": 115,
      "chip": "ym2612"
    },
    {
      "channel": 4,
      "note": 50,
      "start": 2.3017,
      "duration": 0.0162,
      "velocity": 100,
      "chip": "ym2612"
    },
    {
      "channel": 0,
      "note": 44,
      "start": 2.3131,
      "duration": 0.0163,
      "velocity": 115,
      "chip": "ym2612"
    },
    {
      "channel": 4,
      "note": 50,
      "start": 2.3179,
      "duration": 0.0163,
      "velocity": 100,
      "chip": "ym2612"
    },
    {
      "channel": 0,
      "note": 44,
      "start": 2.3294,
      "duration": 0.0163,
      "velocity": 115,
      "chip": "ym2612"
    },
    {
      "channel": 4,
      "note": 50,
      "start": 2.3342,
      "duration": 0.0163,
      "velocity": 100,
      "chip": "ym2612"
    },
    {
      "channel": 0,
      "note": 45,
      "start": 2.3457,
      "duration": 0.0214,
      "velocity": 115,
      "chip": "ym2612"
    },
    {
      "channel": 4,
      "note": 50,
      "start": 2.3506,
      "duration": 0.0227,
      "velocity": 100,
      "chip": "ym2612"
    },
    {
      "channel": 1,
      "note": 84,
      "start": 2.3636,
      "duration": 0.0142,
      "velocity": 124,
      "chip": "ym2612"
    },
    {
      "channel": 0,
      "note": 36,
      "start": 2.3672,
      "duration": 0.0125,
      "velocity": 115,
      "chip": "ym2612"
    },
    {
      "channel": 5,
      "note": 66,
      "start": 2.3687,
      "duration": 0.0122,
      "velocity": 100,
      "chip": "ym2612"
    },
    {
      "channel": 3,
      "note": 74,
      "start": 2.3702,
      "duration": 0.0119,
      "velocity": 100,
      "chip": "ym2612"
    },
    {
      "channel": 2,
      "note": 69,
      "start": 2.3718,
      "duration": 0.0116,
      "velocity": 100,
      "chip": "ym2612"
    },
    {
      "channel": 4,
      "note": 50,
      "start": 2.3732,
      "duration": 0.0113,
      "velocity": 100,
      "chip": "ym2612"
    },
    {
      "channel": 1,
      "note": 82,
      "start": 2.3779,
      "duration": 0.0155,
      "velocity": 124,
      "chip": "ym2612"
    },
    {
      "channel": 0,
      "note": 36,
      "start": 2.3797,
      "duration": 0.016,
      "velocity": 115,
      "chip": "ym2612"
    },
    {
      "channel": 5,
      "note": 66,
      "start": 2.3809,
      "duration": 0.0159,
      "velocity": 100,
      "chip": "ym2612"
    },
    {
      "channel": 3,
      "note": 74,
      "start": 2.3821,
      "duration": 0.0159,
      "velocity": 100,
      "chip": "ym2612"
    },
    {
      "channel": 2,
      "note": 69,
      "start": 2.3834,
      "duration": 0.0158,
      "velocity": 100,
      "chip": "ym2612"
    },
    {
      "channel": 4,
      "note": 50,
      "start": 2.3846,
      "duration": 0.0157,
      "velocity": 100,
      "chip": "ym2612"
    },
    {
      "channel": 1,
      "note": 80,
      "start": 2.3934,
      "duration": 0.0161,
      "velocity": 124,
      "chip": "ym2612"
    },
    {
      "channel": 0,
      "note": 37,
      "start": 2.3957,
      "duration": 0.0161,
      "velocity": 115,
      "chip": "ym2612"
    },
    {
      "channel": 5,
      "note": 66,
      "start": 2.3968,
      "duration": 0.0161,
      "velocity": 100,
      "chip": "ym2612"
    },
    {
      "channel": 3,
      "note": 74,
      "start": 2.398,
      "duration": 0.0161,
      "velocity": 100,
      "chip": "ym2612"
    },
    {
      "channel": 2,
      "note": 69,
      "start": 2.3991,
      "duration": 0.0162,
      "velocity": 100,
      "chip": "ym2612"
    },
    {
      "channel": 4,
      "note": 50,
      "start": 2.4003,
      "duration": 0.0162,
      "velocity": 100,
      "chip": "ym2612"
    },
    {
      "channel": 1,
      "note": 77,
      "start": 2.4095,
      "duration": 0.0161,
      "velocity": 124,
      "chip": "ym2612"
    },
    {
      "channel": 0,
      "note": 37,
      "start": 2.4118,
      "duration": 0.016,
      "velocity": 115,
      "chip": "ym2612"
    },
    {
      "channel": 5,
      "note": 66,
      "start": 2.4129,
      "duration": 0.0161,
      "velocity": 100,
      "chip": "ym2612"
    },
    {
      "channel": 3,
      "note": 74,
      "start": 2.4141,
      "duration": 0.0161,
      "velocity": 100,
      "chip": "ym2612"
    },
    {
      "channel": 2,
      "note": 69,
      "start": 2.4153,
      "duration": 0.0161,
      "velocity": 100,
      "chip": "ym2612"
    },
    {
      "channel": 4,
      "note": 50,
      "start": 2.4164,
      "duration": 0.0161,
      "velocity": 100,
      "chip": "ym2612"
    },
    {
      "channel": 1,
      "note": 75,
      "start": 2.4256,
      "duration": 0.0161,
      "velocity": 124,
      "chip": "ym2612"
    },
    {
      "channel": 0,
      "note": 38,
      "start": 2.4278,
      "duration": 0.0156,
      "velocity": 115,
      "chip": "ym2612"
    },
    {
      "channel": 5,
      "note": 66,
      "start": 2.429,
      "duration": 0.0161,
      "velocity": 100,
      "chip": "ym2612"
    },
    {
      "channel": 3,
      "note": 74,
      "start": 2.4302,
      "duration": 0.0161,
      "velocity": 100,
      "chip": "ym2612"
    },
    {
      "channel": 2,
      "note": 69,
      "start": 2.4314,
      "duration": 0.0161,
      "velocity": 100,
      "chip": "ym2612"
    },
    {
      "channel": 4,
      "note": 50,
      "start": 2.4325,
      "duration": 0.0161,
      "velocity": 100,
      "chip": "ym2612"
    },
    {
      "channel": 1,
      "note": 72,
      "start": 2.4417,
      "duration": 0.0161,
      "velocity": 124,
      "chip": "ym2612"
    },
    {
      "channel": 0,
      "note": 38,
      "start": 2.4434,
      "duration": 0.0161,
      "velocity": 115,
      "chip": "ym2612"
    },
    {
      "channel": 5,
      "note": 66,
      "start": 2.4451,
      "duration": 0.016,
      "velocity": 100,
      "chip": "ym2612"
    },
    {
      "channel": 3,
      "note": 74,
      "start": 2.4463,
      "duration": 0.0161,
      "velocity": 100,
      "chip": "ym2612"
    },
    {
      "channel": 2,
      "note": 69,
      "start": 2.4475,
      "duration": 0.0161,
      "velocity": 100,
      "chip": "ym2612"
    },
    {
      "channel": 4,
      "note": 50,
      "start": 2.4486,
      "duration": 0.0161,
      "velocity": 100,
      "chip": "ym2612"
    },
    {
      "channel": 1,
      "note": 70,
      "start": 2.4578,
      "duration": 0.0161,
      "velocity": 124,
      "chip": "ym2612"
    },
    {
      "channel": 0,
      "note": 39,
      "start": 2.4595,
      "duration": 0.0161,
      "velocity": 115,
      "chip": "ym2612"
    },
    {
      "channel": 5,
      "note": 66,
      "start": 2.4612,
      "duration": 0.0156,
      "velocity": 100,
      "chip": "ym2612"
    },
    {
      "channel": 3,
      "note": 74,
      "start": 2.4624,
      "duration": 0.0162,
      "velocity": 100,
      "chip": "ym2612"
    },
    {
      "channel": 2,
      "note": 69,
      "start": 2.4636,
      "duration": 0.0161,
      "velocity": 100,
      "chip": "ym2612"
    },
    {
      "channel": 4,
      "note": 50,
      "start": 2.4647,
      "duration": 0.0161,
      "velocity": 100,
      "chip": "ym2612"
    },
    {
      "channel": 1,
      "note": 68,
      "start": 2.4739,
      "duration": 0.0161,
      "velocity": 124,
      "chip": "ym2612"
    },
    {
      "channel": 0,
      "note": 39,
      "start": 2.4756,
      "duration": 0.0161,
      "velocity": 115,
      "chip": "ym2612"
    },
    {
      "channel": 5,
      "note": 66,
      "start": 2.4767,
      "duration": 0.0161,
      "velocity": 100,
      "chip": "ym2612"
    },
    {
      "channel": 3,
      "note": 74,
      "start": 2.4785,
      "duration": 0.016,
      "velocity": 100,
      "chip": "ym2612"
    },
    {
      "channel": 2,
      "note": 69,
      "start": 2.4797,
      "duration": 0.0161,
      "velocity": 100,
      "chip": "ym2612"
    },
    {
      "channel": 4,
      "note": 50,
      "start": 2.4808,
      "duration": 0.0161,
      "velocity": 100,
      "chip": "ym2612"
    },
    {
      "channel": 1,
      "note": 65,
      "start": 2.49,
      "duration": 0.0161,
      "velocity": 124,
      "chip": "ym2612"
    },
    {
      "channel": 0,
      "note": 40,
      "start": 2.4917,
      "duration": 0.0161,
      "velocity": 115,
      "chip": "ym2612"
    },
    {
      "channel": 5,
      "note": 66,
      "start": 2.4928,
      "duration": 0.0161,
      "velocity": 100,
      "chip": "ym2612"
    },
    {
      "channel": 3,
      "note": 74,
      "start": 2.4945,
      "duration": 0.0158,
      "velocity": 100,
      "chip": "ym2612"
    },
    {
      "channel": 2,
      "note": 69,
      "start": 2.4958,
      "duration": 0.0161,
      "velocity": 100,
      "chip": "ym2612"
    },
    {
      "channel": 4,
      "note": 50,
      "start": 2.4969,
      "duration": 0.0161,
      "velocity": 100,
      "chip": "ym2612"
    },
    {
      "channel": 1,
      "note": 63,
      "start": 2.5061,
      "duration": 0.0153,
      "velocity": 1,
      "chip": "ym2612"
    },
    {
      "channel": 0,
      "note": 40,
      "start": 2.5078,
      "duration": 0.0153,
      "velocity": 115,
      "chip": "ym2612"
    },
    {
      "channel": 5,
      "note": 66,
      "start": 2.5089,
      "duration": 0.0153,
      "velocity": 100,
      "chip": "ym2612"
    },
    {
      "channel": 3,
      "note": 74,
      "start": 2.5103,
      "duration": 0.0151,
      "velocity": 100,
      "chip": "ym2612"
    },
    {
      "channel": 2,
      "note": 69,
      "start": 2.5119,
      "duration": 0.0147,
      "velocity": 100,
      "chip": "ym2612"
    },
    {
      "channel": 4,
      "note": 50,
      "start": 2.513,
      "duration": 0.0152,
      "velocity": 100,
      "chip": "ym2612"
    },
    {
      "channel": 0,
      "note": 40,
      "start": 2.523,
      "duration": 0.0153,
      "velocity": 115,
      "chip": "ym2612"
    },
    {
      "channel": 5,
      "note": 66,
      "start": 2.5242,
      "duration": 0.0153,
      "velocity": 100,
      "chip": "ym2612"
    },
    {
      "channel": 3,
      "note": 74,
      "start": 2.5254,
      "duration": 0.0152,
      "velocity": 100,
      "chip": "ym2612"
    },
    {
      "channel": 2,
      "note": 69,
      "start": 2.5266,
      "duration": 0.0152,
      "velocity": 100,
      "chip": "ym2612"
    },
    {
      "channel": 4,
      "note": 50,
      "start": 2.5282,
      "duration": 0.0148,
      "velocity": 100,
      "chip": "ym2612"
    },
    {
      "channel": 0,
      "note": 41,
      "start": 2.5383,
      "duration": 0.0161,
      "velocity": 115,
      "chip": "ym2612"
    },
    {
      "channel": 5,
      "note": 66,
      "start": 2.5395,
      "duration": 0.0161,
      "velocity": 100,
      "chip": "ym2612"
    },
    {
      "channel": 3,
      "note": 74,
      "start": 2.5406,
      "duration": 0.0161,
      "velocity": 100,
      "chip": "ym2612"
    },
    {
      "channel": 2,
      "note": 69,
      "start": 2.5417,
      "duration": 0.0162,
      "velocity": 100,
      "chip": "ym2612"
    },
    {
      "channel": 4,
      "note": 50,
      "start": 2.543,
      "duration": 0.0161,
      "velocity": 100,
      "chip": "ym2612"
    },
    {
      "channel": 0,
      "note": 41,
      "start": 2.5544,
      "duration": 0.0161,
      "velocity": 115,
      "chip": "ym2612"
    },
    {
      "channel": 5,
      "note": 66,
      "start": 2.5556,
      "duration": 0.0161,
      "velocity": 100,
      "chip": "ym2612"
    },
    {
      "channel": 3,
      "note": 74,
      "start": 2.5568,
      "duration": 0.0161,
      "velocity": 100,
      "chip": "ym2612"
    },
    {
      "channel": 2,
      "note": 69,
      "start": 2.5579,
      "duration": 0.0161,
      "velocity": 100,
      "chip": "ym2612"
    },
    {
      "channel": 4,
      "note": 50,
      "start": 2.5591,
      "duration": 0.0161,
      "velocity": 100,
      "chip": "ym2612"
    },
    {
      "channel": 0,
      "note": 42,
      "start": 2.5705,
      "duration": 0.0214,
      "velocity": 115,
      "chip": "ym2612"
    },
    {
      "channel": 4,
      "note": 50,
      "start": 2.5753,
      "duration": 0.0233,
      "velocity": 100,
      "chip": "ym2612"
    },
    {
      "channel": 1,
      "note": 84,
      "start": 2.5884,
      "duration": 0.0143,
      "velocity": 124,
      "chip": "ym2612"
    },
    {
      "channel": 0,
      "note": 36,
      "start": 2.592,
      "duration": 0.0125,
      "velocity": 115,
      "chip": "ym2612"
    },
    {
      "channel": 5,
      "note": 66,
      "start": 2.5937,
      "duration": 0.012,
      "velocity": 100,
      "chip": "ym2612"
    },
    {
      "channel": 3,
      "note": 74,
      "start": 2.5956,
      "duration": 0.0113,
      "velocity": 100,
      "chip": "ym2612"
    },
    {
      "channel": 2,
      "note": 69,
      "start": 2.5971,
      "duration": 0.011,
      "velocity": 100,
      "chip": "ym2612"
    },
    {
      "channel": 4,
      "note": 50,
      "start": 2.5986,
      "duration": 0.0107,
      "velocity": 100,
      "chip": "ym2612"
    },
    {
      "channel": 1,
      "note": 82,
      "start": 2.6027,
      "duration": 0.016,
      "velocity": 124,
      "chip": "ym2612"
    },
    {
      "channel": 0,
      "note": 36,
      "start": 2.6045,
      "duration": 0.016,
      "velocity": 115,
      "chip": "ym2612"
    },
    {
      "channel": 5,
      "note": 66,
      "start": 2.6057,
      "duration": 0.0159,
      "velocity": 100,
      "chip": "ym2612"
    },
    {
      "channel": 3,
      "note": 74,
      "start": 2.607,
      "duration": 0.0158,
      "velocity": 100,
      "chip": "ym2612"
    },
    {
      "channel": 2,
      "note": 69,
      "start": 2.6082,
      "duration": 0.0158,
      "velocity": 100,
      "chip": "ym2612"
    },
    {
      "channel": 4,
      "note": 50,
      "start": 2.6094,
      "duration": 0.0158,
      "velocity": 100,
      "chip": "ym2612"
    },
    {
      "channel": 1,
      "note": 80,
      "start": 2.6188,
      "duration": 0.0161,
      "velocity": 124,
      "chip": "ym2612"
    },
    {
      "channel": 0,
      "note": 37,
      "start": 2.6205,
      "duration": 0.0161,
      "velocity": 115,
      "chip": "ym2612"
    },
    {
      "channel": 5,
      "note": 66,
      "start": 2.6217,
      "duration": 0.0161,
      "velocity": 100,
      "chip": "ym2612"
    },
    {
      "channel": 3,
      "note": 74,
      "start": 2.6228,
      "duration": 0.0161,
      "velocity": 100,
      "chip": "ym2612"
    },
    {
      "channel": 2,
      "note": 69,
      "start": 2.624,
      "duration": 0.0161,
      "velocity": 100,
      "chip": "ym2612"
    },
    {
      "channel": 4,
      "note": 50,
      "start": 2.6251,
      "duration": 0.0161,
      "velocity": 100,
      "chip": "ym2612"
    },
    {
      "channel": 1,
      "note": 77,
      "start": 2.6349,
      "duration": 0.0161,
      "velocity": 124,
      "chip": "ym2612"
    },
    {
      "channel": 0,
      "note": 37,
      "start": 2.6366,
      "duration": 0.0161,
      "velocity": 115,
      "chip": "ym2612"
    },
    {
      "channel": 5,
      "note": 66,
      "start": 2.6377,
      "duration": 0.0161,
      "velocity": 100,
      "chip": "ym2612"
    },
    {
      "channel": 3,
      "note": 74,
      "start": 2.6389,
      "duration": 0.0161,
      "velocity": 100,
      "chip": "ym2612"
    },
    {
      "channel": 2,
      "note": 69,
      "start": 2.6401,
      "duration": 0.0161,
      "velocity": 100,
      "chip": "ym2612"
    },
    {
      "channel": 4,
      "note": 50,
      "start": 2.6412,
      "duration": 0.0161,
      "velocity": 100,
      "chip": "ym2612"
    },
    {
      "channel": 1,
      "note": 75,
      "start": 2.651,
      "duration": 0.0161,
      "velocity": 124,
      "chip": "ym2612"
    },
    {
      "channel": 0,
      "note": 38,
      "start": 2.6527,
      "duration": 0.0161,
      "velocity": 115,
      "chip": "ym2612"
    },
    {
      "channel": 5,
      "note": 66,
      "start": 2.6538,
      "duration": 0.0161,
      "velocity": 100,
      "chip": "ym2612"
    },
    {
      "channel": 3,
      "note": 74,
      "start": 2.655,
      "duration": 0.0161,
      "velocity": 100,
      "chip": "ym2612"
    },
    {
      "channel": 2,
      "note": 69,
      "start": 2.6562,
      "duration": 0.0161,
      "velocity": 100,
      "chip": "ym2612"
    },
    {
      "channel": 4,
      "note": 50,
      "start": 2.6574,
      "duration": 0.0161,
      "velocity": 100,
      "chip": "ym2612"
    },
    {
      "channel": 1,
      "note": 72,
      "start": 2.6671,
      "duration": 0.0161,
      "velocity": 124,
      "chip": "ym2612"
    },
    {
      "channel": 0,
      "note": 38,
      "start": 2.6688,
      "duration": 0.0161,
      "velocity": 115,
      "chip": "ym2612"
    },
    {
      "channel": 5,
      "note": 66,
      "start": 2.6699,
      "duration": 0.0161,
      "velocity": 100,
      "chip": "ym2612"
    },
    {
      "channel": 3,
      "note": 74,
      "start": 2.6711,
      "duration": 0.0161,
      "velocity": 100,
      "chip": "ym2612"
    },
    {
      "channel": 2,
      "note": 69,
      "start": 2.6723,
      "duration": 0.0161,
      "velocity": 100,
      "chip": "ym2612"
    },
    {
      "channel": 4,
      "note": 50,
      "start": 2.6735,
      "duration": 0.0161,
      "velocity": 100,
      "chip": "ym2612"
    },
    {
      "channel": 1,
      "note": 70,
      "start": 2.6832,
      "duration": 0.0161,
      "velocity": 124,
      "chip": "ym2612"
    },
    {
      "channel": 0,
      "note": 39,
      "start": 2.6849,
      "duration": 0.0162,
      "velocity": 115,
      "chip": "ym2612"
    },
    {
      "channel": 5,
      "note": 66,
      "start": 2.686,
      "duration": 0.0162,
      "velocity": 100,
      "chip": "ym2612"
    },
    {
      "channel": 3,
      "note": 74,
      "start": 2.6872,
      "duration": 0.0162,
      "velocity": 100,
      "chip": "ym2612"
    },
    {
      "channel": 2,
      "note": 69,
      "start": 2.6884,
      "duration": 0.0163,
      "velocity": 100,
      "chip": "ym2612"
    },
    {
      "channel": 4,
      "note": 50,
      "start": 2.6896,
      "duration": 0.0164,
      "velocity": 100,
      "chip": "ym2612"
    },
    {
      "channel": 1,
      "note": 68,
      "start": 2.6993,
      "duration": 0.0161,
      "velocity": 124,
      "chip": "ym2612"
    },
    {
      "channel": 0,
      "note": 39,
      "start": 2.701,
      "duration": 0.0161,
      "velocity": 115,
      "chip": "ym2612"
    },
    {
      "channel": 5,
      "note": 66,
      "start": 2.7022,
      "duration": 0.016,
      "velocity": 100,
      "chip": "ym2612"
    },
    {
      "channel": 3,
      "note": 74,
      "start": 2.7034,
      "duration": 0.016,
      "velocity": 100,
      "chip": "ym2612"
    },
    {
      "channel": 2,
      "note": 69,
      "start": 2.7047,
      "duration": 0.016,
      "velocity": 100,
      "chip": "ym2612"
    },
    {
      "channel": 4,
      "note": 50,
      "start": 2.706,
      "duration": 0.0159,
      "velocity": 100,
      "chip": "ym2612"
    },
    {
      "channel": 1,
      "note": 65,
      "start": 2.7154,
      "duration": 0.0161,
      "velocity": 124,
      "chip": "ym2612"
    },
    {
      "channel": 0,
      "note": 40,
      "start": 2.7171,
      "duration": 0.0161,
      "velocity": 115,
      "chip": "ym2612"
    },
    {
      "channel": 5,
      "note": 66,
      "start": 2.7183,
      "duration": 0.0161,
      "velocity": 100,
      "chip": "ym2612"
    },
    {
      "channel": 3,
      "note": 74,
      "start": 2.7195,
      "duration": 0.0161,
      "velocity": 100,
      "chip": "ym2612"
    },
    {
      "channel": 2,
      "note": 69,
      "start": 2.7207,
      "duration": 0.0161,
      "velocity": 100,
      "chip": "ym2612"
    },
    {
      "channel": 4,
      "note": 50,
      "start": 2.7219,
      "duration": 0.0161,
      "velocity": 100,
      "chip": "ym2612"
    },
    {
      "channel": 1,
      "note": 63,
      "start": 2.7315,
      "duration": 0.0153,
      "velocity": 1,
      "chip": "ym2612"
    },
    {
      "channel": 0,
      "note": 40,
      "start": 2.7332,
      "duration": 0.0153,
      "velocity": 115,
      "chip": "ym2612"
    },
    {
      "channel": 5,
      "note": 66,
      "start": 2.7344,
      "duration": 0.0153,
      "velocity": 100,
      "chip": "ym2612"
    },
    {
      "channel": 3,
      "note": 74,
      "start": 2.7356,
      "duration": 0.0153,
      "velocity": 100,
      "chip": "ym2612"
    },
    {
      "channel": 2,
      "note": 69,
      "start": 2.7368,
      "duration": 0.0153,
      "velocity": 100,
      "chip": "ym2612"
    },
    {
      "channel": 4,
      "note": 50,
      "start": 2.738,
      "duration": 0.0153,
      "velocity": 100,
      "chip": "ym2612"
    },
    {
      "channel": 0,
      "note": 40,
      "start": 2.7485,
      "duration": 0.0152,
      "velocity": 115,
      "chip": "ym2612"
    },
    {
      "channel": 5,
      "note": 66,
      "start": 2.7496,
      "duration": 0.0153,
      "velocity": 100,
      "chip": "ym2612"
    },
    {
      "channel": 3,
      "note": 74,
      "start": 2.7508,
      "duration": 0.0153,
      "velocity": 100,
      "chip": "ym2612"
    },
    {
      "channel": 2,
      "note": 69,
      "start": 2.752,
      "duration": 0.0153,
      "velocity": 100,
      "chip": "ym2612"
    },
    {
      "channel": 4,
      "note": 50,
      "start": 2.7533,
      "duration": 0.0153,
      "velocity": 100,
      "chip": "ym2612"
    },
    {
      "channel": 0,
      "note": 41,
      "start": 2.7637,
      "duration": 0.0162,
      "velocity": 115,
      "chip": "ym2612"
    },
    {
      "channel": 5,
      "note": 66,
      "start": 2.7649,
      "duration": 0.0162,
      "velocity": 100,
      "chip": "ym2612"
    },
    {
      "channel": 3,
      "note": 74,
      "start": 2.7661,
      "duration": 0.0162,
      "velocity": 100,
      "chip": "ym2612"
    },
    {
      "channel": 2,
      "note": 69,
      "start": 2.7673,
      "duration": 0.0162,
      "velocity": 100,
      "chip": "ym2612"
    },
    {
      "channel": 4,
      "note": 50,
      "start": 2.7685,
      "duration": 0.0162,
      "velocity": 100,
      "chip": "ym2612"
    },
    {
      "channel": 0,
      "note": 41,
      "start": 2.7799,
      "duration": 0.0164,
      "velocity": 115,
      "chip": "ym2612"
    },
    {
      "channel": 5,
      "note": 66,
      "start": 2.7811,
      "duration": 0.0163,
      "velocity": 100,
      "chip": "ym2612"
    },
    {
      "channel": 3,
      "note": 74,
      "start": 2.7823,
      "duration": 0.0163,
      "velocity": 100,
      "chip": "ym2612"
    },
    {
      "channel": 2,
      "note": 69,
      "start": 2.7835,
      "duration": 0.0163,
      "velocity": 100,
      "chip": "ym2612"
    },
    {
      "channel": 4,
      "note": 50,
      "start": 2.7847,
      "duration": 0.0163,
      "velocity": 100,
      "chip": "ym2612"
    },
    {
      "channel": 0,
      "note": 42,
      "start": 2.7963,
      "duration": 0.0163,
      "velocity": 115,
      "chip": "ym2612"
    },
    {
      "channel": 4,
      "note": 50,
      "start": 2.8011,
      "duration": 0.0168,
      "velocity": 100,
      "chip": "ym2612"
    },
    {
      "channel": 0,
      "note": 42,
      "start": 2.8126,
      "duration": 0.016,
      "velocity": 115,
      "chip": "ym2612"
    },
    {
      "channel": 4,
      "note": 50,
      "start": 2.8179,
      "duration": 0.0158,
      "velocity": 100,
      "chip": "ym2612"
    },
    {
      "channel": 0,
      "note": 43,
      "start": 2.8286,
      "duration": 0.0161,
      "velocity": 115,
      "chip": "ym2612"
    },
    {
      "channel": 4,
      "note": 50,
      "start": 2.8337,
      "duration": 0.016,
      "velocity": 100,
      "chip": "ym2612"
    },
    {
      "channel": 0,
      "note": 43,
      "start": 2.8447,
      "duration": 0.0158,
      "velocity": 115,
      "chip": "ym2612"
    },
    {
      "channel": 4,
      "note": 50,
      "start": 2.8497,
      "duration": 0.0161,
      "velocity": 100,
      "chip": "ym2612"
    },
    {
      "channel": 0,
      "note": 44,
      "start": 2.8606,
      "duration": 0.0159,
      "velocity": 115,
      "chip": "ym2612"
    },
    {
      "channel": 4,
      "note": 50,
      "start": 2.8658,
      "duration": 0.0161,
      "velocity": 100,
      "chip": "ym2612"
    },
    {
      "channel": 0,
      "note": 44,
      "start": 2.8764,
      "duration": 0.0161,
      "velocity": 115,
      "chip": "ym2612"
    },
    {
      "channel": 4,
      "note": 50,
      "start": 2.8819,
      "duration": 0.0161,
      "velocity": 100,
      "chip": "ym2612"
    },
    {
      "channel": 0,
      "note": 44,
      "start": 2.8925,
      "duration": 0.0161,
      "velocity": 115,
      "chip": "ym2612"
    },
    {
      "channel": 4,
      "note": 50,
      "start": 2.898,
      "duration": 0.0162,
      "velocity": 100,
      "chip": "ym2612"
    },
    {
      "channel": 0,
      "note": 45,
      "start": 2.9086,
      "duration": 0.0196,
      "velocity": 115,
      "chip": "ym2612"
    },
    {
      "channel": 4,
      "note": 50,
      "start": 2.9141,
      "duration": 0.0198,
      "velocity": 100,
      "chip": "ym2612"
    },
    {
      "channel": 1,
      "note": 72,
      "start": 2.9259,
      "duration": 0.0144,
      "velocity": 127,
      "chip": "ym2612"
    },
    {
      "channel": 0,
      "note": 45,
      "start": 2.9282,
      "duration": 0.0139,
      "velocity": 115,
      "chip": "ym2612"
    },
    {
      "channel": 3,
      "note": 69,
      "start": 2.9311,
      "duration": 0.014,
      "velocity": 100,
      "chip": "ym2612"
    },
    {
      "channel": 2,
      "note": 69,
      "start": 2.9325,
      "duration": 0.0138,
      "velocity": 100,
      "chip": "ym2612"
    },
    {
      "channel": 4,
      "note": 57,
      "start": 2.9341,
      "duration": 0.0135,
      "velocity": 100,
      "chip": "ym2612"
    },
    {
      "channel": 1,
      "note": 72,
      "start": 2.9403,
      "duration": 0.016,
      "velocity": 127,
      "chip": "ym2612"
    },
    {
      "channel": 0,
      "note": 46,
      "start": 2.9421,
      "duration": 0.016,
      "velocity": 115,
      "chip": "ym2612"
    },
    {
      "channel": 3,
      "note": 69,
      "start": 2.9451,
      "duration": 0.016,
      "velocity": 100,
      "chip": "ym2612"
    },
    {
      "channel": 2,
      "note": 69,
      "start": 2.9463,
      "duration": 0.0159,
      "velocity": 100,
      "chip": "ym2612"
    },
    {
      "channel": 4,
      "note": 57,
      "start": 2.9475,
      "duration": 0.0159,
      "velocity": 100,
      "chip": "ym2612"
    },
    {
      "channel": 1,
      "note": 72,
      "start": 2.9564,
      "duration": 0.0161,
      "velocity": 127,
      "chip": "ym2612"
    },
    {
      "channel": 0,
      "note": 46,
      "start": 2.958,
      "duration": 0.0162,
      "velocity": 115,
      "chip": "ym2612"
    },
    {
      "channel": 3,
      "note": 69,
      "start": 2.961,
      "duration": 0.0155,
      "velocity": 100,
      "chip": "ym2612"
    },
    {
      "channel": 2,
      "note": 69,
      "start": 2.9622,
      "duration": 0.016,
      "velocity": 100,
      "chip": "ym2612"
    },
    {
      "channel": 4,
      "note": 57,
      "start": 2.9634,
      "duration": 0.0161,
      "velocity": 100,
      "chip": "ym2612"
    },
    {
      "channel": 1,
      "note": 72,
      "start": 2.9725,
      "duration": 0.0161,
      "velocity": 127,
      "chip": "ym2612"
    },
    {
      "channel": 0,
      "note": 47,
      "start": 2.9742,
      "duration": 0.0161,
      "velocity": 115,
      "chip": "ym2612"
    },
    {
      "channel": 3,
      "note": 69,
      "start": 2.9766,
      "duration": 0.0161,
      "velocity": 100,
      "chip": "ym2612"
    },
    {
      "channel": 2,
      "note": 69,
      "start": 2.9783,
      "duration": 0.0161,
      "velocity": 100,
      "chip": "ym2612"
    },
    {
      "channel": 4,
      "note": 57,
      "start": 2.9795,
      "duration": 0.0161,
      "velocity": 100,
      "chip": "ym2612"
    },
    {
      "channel": 1,
      "note": 72,
      "start": 2.9886,
      "duration": 0.0161,
      "velocity": 127,
      "chip": "ym2612"
    },
    {
      "channel": 0,
      "note": 47,
      "start": 2.9903,
      "duration": 0.0161,
      "velocity": 115,
      "chip": "ym2612"
    },
    {
      "channel": 3,
      "note": 69,
      "start": 2.9926,
      "duration": 0.0162,
      "velocity": 100,
      "chip": "ym2612"
    },
    {
      "channel": 2,
      "note": 69,
      "start": 2.9944,
      "duration": 0.0156,
      "velocity": 100,
      "chip": "ym2612"
    },
    {
      "channel": 4,
      "note": 57,
      "start": 2.9956,
      "duration": 0.0161,
      "velocity": 100,
      "chip": "ym2612"
    },
    {
      "channel": 1,
      "note": 72,
      "start": 3.0047,
      "duration": 0.0161,
      "velocity": 127,
      "chip": "ym2612"
    },
    {
      "channel": 0,
      "note": 47,
      "start": 3.0064,
      "duration": 0.0161,
      "velocity": 115,
      "chip": "ym2612"
    },
    {
      "channel": 3,
      "note": 69,
      "start": 3.0088,
      "duration": 0.0161,
      "velocity": 100,
      "chip": "ym2612"
    },
    {
      "channel": 2,
      "note": 69,
      "start": 3.0099,
      "duration": 0.0161,
      "velocity": 100,
      "chip": "ym2612"
    },
    {
      "channel": 4,
      "note": 57,
      "start": 3.0117,
      "duration": 0.0161,
      "velocity": 100,
      "chip": "ym2612"
    },
    {
      "channel": 1,
      "note": 72,
      "start": 3.0207,
      "duration": 0.0178,
      "velocity": 127,
      "chip": "ym2612"
    },
    {
      "channel": 0,
      "note": 48,
      "start": 3.0225,
      "duration": 0.0179,
      "velocity": 115,
      "chip": "ym2612"
    },
    {
      "channel": 4,
      "note": 57,
      "start": 3.0278,
      "duration": 0.0188,
      "velocity": 100,
      "chip": "ym2612"
    },
    {
      "channel": 1,
      "note": 72,
      "start": 3.0386,
      "duration": 0.0144,
      "velocity": 127,
      "chip": "ym2612"
    },
    {
      "channel": 0,
      "note": 48,
      "start": 3.0403,
      "duration": 0.0144,
      "velocity": 115,
      "chip": "ym2612"
    },
    {
      "channel": 3,
      "note": 69,
      "start": 3.0431,
      "duration": 0.0141,
      "velocity": 100,
      "chip": "ym2612"
    },
    {
      "channel": 2,
      "note": 69,
      "start": 3.0452,
      "duration": 0.0132,
      "velocity": 100,
      "chip": "ym2612"
    },
    {
      "channel": 4,
      "note": 57,
      "start": 3.0466,
      "duration": 0.013,
      "velocity": 100,
      "chip": "ym2612"
    },
    {
      "channel": 1,
      "note": 72,
      "start": 3.0531,
      "duration": 0.016,
      "velocity": 127,
      "chip": "ym2612"
    },
    {
      "channel": 0,
      "note": 49,
      "start": 3.0547,
      "duration": 0.0153,
      "velocity": 1,
      "chip": "ym2612"
    },
    {
      "channel": 3,
      "note": 69,
      "start": 3.0572,
      "duration": 0.0151,
      "velocity": 100,
      "chip": "ym2612"
    },
    {
      "channel": 2,
      "note": 69,
      "start": 3.0584,
      "duration": 0.0151,
      "velocity": 100,
      "chip": "ym2612"
    },
    {
      "channel": 4,
      "note": 57,
      "start": 3.0597,
      "duration": 0.015,
      "velocity": 100,
      "chip": "ym2612"
    },
    {
      "channel": 1,
      "note": 72,
      "start": 3.0691,
      "duration": 0.0161,
      "velocity": 127,
      "chip": "ym2612"
    },
    {
      "channel": 3,
      "note": 69,
      "start": 3.0723,
      "duration": 0.0153,
      "velocity": 100,
      "chip": "ym2612"
    },
    {
      "channel": 2,
      "note": 69,
      "start": 3.0735,
      "duration": 0.0153,
      "velocity": 100,
      "chip": "ym2612"
    },
    {
      "channel": 4,
      "note": 57,
      "start": 3.0747,
      "duration": 0.0152,
      "velocity": 100,
      "chip": "ym2612"
    },
    {
      "channel": 1,
      "note": 72,
      "start": 3.0852,
      "duration": 0.0161,
      "velocity": 127,
      "chip": "ym2612"
    },
    {
      "channel": 3,
      "note": 69,
      "start": 3.0876,
      "duration": 0.0161,
      "velocity": 100,
      "chip": "ym2612"
    },
    {
      "channel": 2,
      "note": 69,
      "start": 3.0888,
      "duration": 0.0161,
      "velocity": 100,
      "chip": "ym2612"
    },
    {
      "channel": 4,
      "note": 57,
      "start": 3.0899,
      "duration": 0.0161,
      "velocity": 100,
      "chip": "ym2612"
    },
    {
      "channel": 1,
      "note": 72,
      "start": 3.1013,
      "duration": 0.0161,
      "velocity": 127,
      "chip": "ym2612"
    },
    {
      "channel": 3,
      "note": 69,
      "start": 3.1037,
      "duration": 0.0161,
      "velocity": 100,
      "chip": "ym2612"
    },
    {
      "channel": 2,
      "note": 69,
      "start": 3.1049,
      "duration": 0.0161,
      "velocity": 100,
      "chip": "ym2612"
    },
    {
      "channel": 4,
      "note": 57,
      "start": 3.1061,
      "duration": 0.0161,
      "velocity": 100,
      "chip": "ym2612"
    },
    {
      "channel": 1,
      "note": 72,
      "start": 3.1174,
      "duration": 0.0161,
      "velocity": 127,
      "chip": "ym2612"
    },
    {
      "channel": 3,
      "note": 69,
      "start": 3.1198,
      "duration": 0.0161,
      "velocity": 100,
      "chip": "ym2612"
    },
    {
      "channel": 2,
      "note": 69,
      "start": 3.121,
      "duration": 0.0161,
      "velocity": 100,
      "chip": "ym2612"
    },
    {
      "channel": 4,
      "note": 57,
      "start": 3.1222,
      "duration": 0.0161,
      "velocity": 100,
      "chip": "ym2612"
    },
    {
      "channel": 1,
      "note": 72,
      "start": 3.1335,
      "duration": 0.0161,
      "velocity": 127,
      "chip": "ym2612"
    },
    {
      "channel": 3,
      "note": 69,
      "start": 3.1359,
      "duration": 0.0161,
      "velocity": 100,
      "chip": "ym2612"
    },
    {
      "channel": 2,
      "note": 69,
      "start": 3.137,
      "duration": 0.0163,
      "velocity": 100,
      "chip": "ym2612"
    },
    {
      "channel": 4,
      "note": 57,
      "start": 3.1383,
      "duration": 0.0163,
      "velocity": 100,
      "chip": "ym2612"
    },
    {
      "channel": 1,
      "note": 72,
      "start": 3.1496,
      "duration": 0.0161,
      "velocity": 127,
      "chip": "ym2612"
    },
    {
      "channel": 3,
      "note": 69,
      "start": 3.152,
      "duration": 0.0161,
      "velocity": 100,
      "chip": "ym2612"
    },
    {
      "channel": 2,
      "note": 69,
      "start": 3.1533,
      "duration": 0.016,
      "velocity": 100,
      "chip": "ym2612"
    },
    {
      "channel": 4,
      "note": 57,
      "start": 3.1546,
      "duration": 0.0159,
      "velocity": 100,
      "chip": "ym2612"
    },
    {
      "channel": 1,
      "note": 72,
      "start": 3.1657,
      "duration": 0.0161,
      "velocity": 127,
      "chip": "ym2612"
    },
    {
      "channel": 3,
      "note": 69,
      "start": 3.1681,
      "duration": 0.0161,
      "velocity": 100,
      "chip": "ym2612"
    },
    {
      "channel": 2,
      "note": 69,
      "start": 3.1694,
      "duration": 0.0161,
      "velocity": 100,
      "chip": "ym2612"
    },
    {
      "channel": 4,
      "note": 57,
      "start": 3.1705,
      "duration": 0.0161,
      "velocity": 100,
      "chip": "ym2612"
    },
    {
      "channel": 1,
      "note": 72,
      "start": 3.1818,
      "duration": 0.0161,
      "velocity": 127,
      "chip": "ym2612"
    },
    {
      "channel": 3,
      "note": 69,
      "start": 3.1842,
      "duration": 0.0161,
      "velocity": 100,
      "chip": "ym2612"
    },
    {
      "channel": 2,
      "note": 69,
      "start": 3.1854,
      "duration": 0.0161,
      "velocity": 100,
      "chip": "ym2612"
    },
    {
      "channel": 4,
      "note": 57,
      "start": 3.1866,
      "duration": 0.0161,
      "velocity": 100,
      "chip": "ym2612"
    },
    {
      "channel": 1,
      "note": 72,
      "start": 3.1978,
      "duration": 0.0162,
      "velocity": 127,
      "chip": "ym2612"
    },
    {
      "channel": 3,
      "note": 69,
      "start": 3.2003,
      "duration": 0.0161,
      "velocity": 100,
      "chip": "ym2612"
    },
    {
      "channel": 2,
      "note": 69,
      "start": 3.2015,
      "duration": 0.0161,
      "velocity": 100,
      "chip": "ym2612"
    },
    {
      "channel": 4,
      "note": 57,
      "start": 3.2027,
      "duration": 0.0162,
      "velocity": 100,
      "chip": "ym2612"
    },
    {
      "channel": 1,
      "note": 72,
      "start": 3.214,
      "duration": 0.0161,
      "velocity": 127,
      "chip": "ym2612"
    },
    {
      "channel": 3,
      "note": 69,
      "start": 3.2164,
      "duration": 0.0161,
      "velocity": 100,
      "chip": "ym2612"
    },
    {
      "channel": 2,
      "note": 69,
      "start": 3.2176,
      "duration": 0.0161,
      "velocity": 100,
      "chip": "ym2612"
    },
    {
      "channel": 4,
      "note": 57,
      "start": 3.2189,
      "duration": 0.0161,
      "velocity": 100,
      "chip": "ym2612"
    },
    {
      "channel": 1,
      "note": 72,
      "start": 3.2301,
      "duration": 0.0161,
      "velocity": 127,
      "chip": "ym2612"
    },
    {
      "channel": 3,
      "note": 69,
      "start": 3.2326,
      "duration": 0.0161,
      "velocity": 100,
      "chip": "ym2612"
    },
    {
      "channel": 2,
      "note": 69,
      "start": 3.2338,
      "duration": 0.016,
      "velocity": 100,
      "chip": "ym2612"
    },
    {
      "channel": 4,
      "note": 57,
      "start": 3.235,
      "duration": 0.0161,
      "velocity": 100,
      "chip": "ym2612"
    },
    {
      "channel": 1,
      "note": 72,
      "start": 3.2463,
      "duration": 0.0179,
      "velocity": 127,
      "chip": "ym2612"
    },
    {
      "channel": 4,
      "note": 57,
      "start": 3.2511,
      "duration": 0.0188,
      "velocity": 100,
      "chip": "ym2612"
    },
    {
      "channel": 1,
      "note": 72,
      "start": 3.2642,
      "duration": 0.0146,
      "velocity": 127,
      "chip": "ym2612"
    },
    {
      "channel": 3,
      "note": 69,
      "start": 3.2669,
      "duration": 0.0144,
      "velocity": 100,
      "chip": "ym2612"
    },
    {
      "channel": 2,
      "note": 69,
      "start": 3.2685,
      "duration": 0.0141,
      "velocity": 100,
      "chip": "ym2612"
    },
    {
      "channel": 4,
      "note": 57,
      "start": 3.2699,
      "duration": 0.0139,
      "velocity": 100,
      "chip": "ym2612"
    },
    {
      "channel": 1,
      "note": 72,
      "start": 3.2788,
      "duration": 0.0162,
      "velocity": 127,
      "chip": "ym2612"
    },
    {
      "channel": 3,
      "note": 69,
      "start": 3.2813,
      "duration": 0.0162,
      "velocity": 100,
      "chip": "ym2612"
    },
    {
      "channel": 2,
      "note": 69,
      "start": 3.2825,
      "duration": 0.0162,
      "velocity": 100,
      "chip": "ym2612"
    },
    {
      "channel": 4,
      "note": 57,
      "start": 3.2838,
      "duration": 0.016,
      "velocity": 100,
      "chip": "ym2612"
    },
    {
      "channel": 1,
      "note": 72,
      "start": 3.2951,
      "duration": 0.0161,
      "velocity": 127,
      "chip": "ym2612"
    },
    {
      "channel": 3,
      "note": 69,
      "start": 3.2975,
      "duration": 0.0161,
      "velocity": 100,
      "chip": "ym2612"
    },
    {
      "channel": 2,
      "note": 69,
      "start": 3.2987,
      "duration": 0.0161,
      "velocity": 100,
      "chip": "ym2612"
    },
    {
      "channel": 4,
      "note": 57,
      "start": 3.2998,
      "duration": 0.0161,
      "velocity": 100,
      "chip": "ym2612"
    },
    {
      "channel": 1,
      "note": 72,
      "start": 3.3112,
      "duration": 0.0155,
      "velocity": 127,
      "chip": "ym2612"
    },
    {
      "channel": 3,
      "note": 69,
      "start": 3.3136,
      "duration": 0.0161,
      "velocity": 100,
      "chip": "ym2612"
    },
    {
      "channel": 2,
      "note": 69,
      "start": 3.3148,
      "duration": 0.0161,
      "velocity": 100,
      "chip": "ym2612"
    },
    {
      "channel": 4,
      "note": 57,
      "start": 3.3159,
      "duration": 0.0162,
      "velocity": 100,
      "chip": "ym2612"
    },
    {
      "channel": 1,
      "note": 72,
      "start": 3.3267,
      "duration": 0.0161,
      "velocity": 127,
      "chip": "ym2612"
    },
    {
      "channel": 3,
      "note": 69,
      "start": 3.3297,
      "duration": 0.0161,
      "velocity": 100,
      "chip": "ym2612"
    },
    {
      "channel": 2,
      "note": 69,
      "start": 3.3309,
      "duration": 0.0161,
      "velocity": 100,
      "chip": "ym2612"
    },
    {
      "channel": 4,
      "note": 57,
      "start": 3.3321,
      "duration": 0.0161,
      "velocity": 100,
      "chip": "ym2612"
    },
    {
      "channel": 1,
      "note": 72,
      "start": 3.3428,
      "duration": 0.0161,
      "velocity": 127,
      "chip": "ym2612"
    },
    {
      "channel": 3,
      "note": 69,
      "start": 3.3458,
      "duration": 0.016,
      "velocity": 100,
      "chip": "ym2612"
    },
    {
      "channel": 2,
      "note": 69,
      "start": 3.347,
      "duration": 0.0161,
      "velocity": 100,
      "chip": "ym2612"
    },
    {
      "channel": 4,
      "note": 57,
      "start": 3.3482,
      "duration": 0.0162,
      "velocity": 100,
      "chip": "ym2612"
    },
    {
      "channel": 1,
      "note": 72,
      "start": 3.3589,
      "duration": 0.0179,
      "velocity": 127,
      "chip": "ym2612"
    },
    {
      "channel": 4,
      "note": 57,
      "start": 3.3643,
      "duration": 0.0186,
      "velocity": 100,
      "chip": "ym2612"
    },
    {
      "channel": 1,
      "note": 72,
      "start": 3.3767,
      "duration": 0.0144,
      "velocity": 127,
      "chip": "ym2612"
    },
    {
      "channel": 3,
      "note": 69,
      "start": 3.38,
      "duration": 0.0138,
      "velocity": 100,
      "chip": "ym2612"
    },
    {
      "channel": 2,
      "note": 69,
      "start": 3.3815,
      "duration": 0.0139,
      "velocity": 100,
      "chip": "ym2612"
    },
    {
      "channel": 4,
      "note": 57,
      "start": 3.383,
      "duration": 0.0137,
      "velocity": 100,
      "chip": "ym2612"
    },
    {
      "channel": 1,
      "note": 72,
      "start": 3.3912,
      "duration": 0.016,
      "velocity": 127,
      "chip": "ym2612"
    },
    {
      "channel": 3,
      "note": 69,
      "start": 3.3939,
      "duration": 0.0158,
      "velocity": 100,
      "chip": "ym2612"
    },
    {
      "channel": 2,
      "note": 69,
      "start": 3.3954,
      "duration": 0.0159,
      "velocity": 100,
      "chip": "ym2612"
    },
    {
      "channel": 4,
      "note": 57,
      "start": 3.3967,
      "duration": 0.0158,
      "velocity": 100,
      "chip": "ym2612"
    },
    {
      "channel": 1,
      "note": 72,
      "start": 3.4072,
      "duration": 0.0161,
      "velocity": 127,
      "chip": "ym2612"
    },
    {
      "channel": 3,
      "note": 69,
      "start": 3.4096,
      "duration": 0.0161,
      "velocity": 100,
      "chip": "ym2612"
    },
    {
      "channel": 2,
      "note": 69,
      "start": 3.4113,
      "duration": 0.0158,
      "velocity": 100,
      "chip": "ym2612"
    },
    {
      "channel": 4,
      "note": 57,
      "start": 3.4125,
      "duration": 0.0161,
      "velocity": 100,
      "chip": "ym2612"
    },
    {
      "channel": 1,
      "note": 72,
      "start": 3.4233,
      "duration": 0.0161,
      "velocity": 127,
      "chip": "ym2612"
    },
    {
      "channel": 3,
      "note": 69,
      "start": 3.4257,
      "duration": 0.0161,
      "velocity": 100,
      "chip": "ym2612"
    },
    {
      "channel": 2,
      "note": 69,
      "start": 3.4271,
      "duration": 0.0158,
      "velocity": 100,
      "chip": "ym2612"
    },
    {
      "channel": 4,
      "note": 57,
      "start": 3.4286,
      "duration": 0.016,
      "velocity": 100,
      "chip": "ym2612"
    },
    {
      "channel": 1,
      "note": 72,
      "start": 3.4394,
      "duration": 0.0161,
      "velocity": 127,
      "chip": "ym2612"
    },
    {
      "channel": 3,
      "note": 69,
      "start": 3.4418,
      "duration": 0.0161,
      "velocity": 100,
      "chip": "ym2612"
    },
    {
      "channel": 2,
      "note": 69,
      "start": 3.4429,
      "duration": 0.0161,
      "velocity": 100,
      "chip": "ym2612"
    },
    {
      "channel": 4,
      "note": 57,
      "start": 3.4447,
      "duration": 0.0158,
      "velocity": 100,
      "chip": "ym2612"
    },
    {
      "channel": 1,
      "note": 72,
      "start": 3.4555,
      "duration": 0.0161,
      "velocity": 127,
      "chip": "ym2612"
    },
    {
      "channel": 3,
      "note": 69,
      "start": 3.4579,
      "duration": 0.0161,
      "velocity": 100,
      "chip": "ym2612"
    },
    {
      "channel": 2,
      "note": 69,
      "start": 3.459,
      "duration": 0.0162,
      "velocity": 100,
      "chip": "ym2612"
    },
    {
      "channel": 4,
      "note": 57,
      "start": 3.4605,
      "duration": 0.0159,
      "velocity": 100,
      "chip": "ym2612"
    },
    {
      "channel": 1,
      "note": 72,
      "start": 3.4716,
      "duration": 0.0161,
      "velocity": 127,
      "chip": "ym2612"
    },
    {
      "channel": 3,
      "note": 69,
      "start": 3.474,
      "duration": 0.0161,
      "velocity": 100,
      "chip": "ym2612"
    },
    {
      "channel": 2,
      "note": 69,
      "start": 3.4752,
      "duration": 0.0161,
      "velocity": 100,
      "chip": "ym2612"
    },
    {
      "channel": 4,
      "note": 57,
      "start": 3.4763,
      "duration": 0.0161,
      "velocity": 100,
      "chip": "ym2612"
    },
    {
      "channel": 1,
      "note": 72,
      "start": 3.4877,
      "duration": 0.0162,
      "velocity": 127,
      "chip": "ym2612"
    },
    {
      "channel": 3,
      "note": 69,
      "start": 3.4901,
      "duration": 0.0162,
      "velocity": 100,
      "chip": "ym2612"
    },
    {
      "channel": 2,
      "note": 69,
      "start": 3.4913,
      "duration": 0.0161,
      "velocity": 100,
      "chip": "ym2612"
    },
    {
      "channel": 4,
      "note": 57,
      "start": 3.4924,
      "duration": 0.0161,
      "velocity": 100,
      "chip": "ym2612"
    },
    {
      "channel": 1,
      "note": 72,
      "start": 3.5038,
      "duration": 0.0161,
      "velocity": 127,
      "chip": "ym2612"
    },
    {
      "channel": 3,
      "note": 69,
      "start": 3.5063,
      "duration": 0.0161,
      "velocity": 100,
      "chip": "ym2612"
    },
    {
      "channel": 2,
      "note": 69,
      "start": 3.5074,
      "duration": 0.0161,
      "velocity": 100,
      "chip": "ym2612"
    },
    {
      "channel": 4,
      "note": 57,
      "start": 3.5085,
      "duration": 0.0161,
      "velocity": 100,
      "chip": "ym2612"
    },
    {
      "channel": 1,
      "note": 72,
      "start": 3.5199,
      "duration": 0.0161,
      "velocity": 127,
      "chip": "ym2612"
    },
    {
      "channel": 3,
      "note": 69,
      "start": 3.5223,
      "duration": 0.0161,
      "velocity": 100,
      "chip": "ym2612"
    },
    {
      "channel": 2,
      "note": 69,
      "start": 3.5235,
      "duration": 0.0161,
      "velocity": 100,
      "chip": "ym2612"
    },
    {
      "channel": 4,
      "note": 57,
      "start": 3.5246,
      "duration": 0.0161,
      "velocity": 100,
      "chip": "ym2612"
    },
    {
      "channel": 1,
      "note": 72,
      "start": 3.536,
      "duration": 0.0161,
      "velocity": 127,
      "chip": "ym2612"
    },
    {
      "channel": 3,
      "note": 69,
      "start": 3.5384,
      "duration": 0.0161,
      "velocity": 100,
      "chip": "ym2612"
    },
    {
      "channel": 2,
      "note": 69,
      "start": 3.5396,
      "duration": 0.0161,
      "velocity": 100,
      "chip": "ym2612"
    },
    {
      "channel": 4,
      "note": 57,
      "start": 3.5407,
      "duration": 0.0161,
      "velocity": 100,
      "chip": "ym2612"
    },
    {
      "channel": 1,
      "note": 72,
      "start": 3.5521,
      "duration": 0.0161,
      "velocity": 127,
      "chip": "ym2612"
    },
    {
      "channel": 3,
      "note": 69,
      "start": 3.5545,
      "duration": 0.0161,
      "velocity": 100,
      "chip": "ym2612"
    },
    {
      "channel": 2,
      "note": 69,
      "start": 3.5557,
      "duration": 0.0161,
      "velocity": 100,
      "chip": "ym2612"
    },
    {
      "channel": 4,
      "note": 57,
      "start": 3.5568,
      "duration": 0.0161,
      "velocity": 100,
      "chip": "ym2612"
    },
    {
      "channel": 1,
      "note": 72,
      "start": 3.5682,
      "duration": 0.0159,
      "velocity": 1,
      "chip": "ym2612"
    },
    {
      "channel": 3,
      "note": 69,
      "start": 3.5706,
      "duration": 0.0158,
      "velocity": 100,
      "chip": "ym2612"
    },
    {
      "channel": 2,
      "note": 69,
      "start": 3.5718,
      "duration": 0.0159,
      "velocity": 100,
      "chip": "ym2612"
    },
    {
      "channel": 4,
      "note": 57,
      "start": 3.5729,
      "duration": 0.0159,
      "velocity": 100,
      "chip": "ym2612"
    },
    {
      "channel": 4,
      "note": 57,
      "start": 3.5888,
      "duration": 0.0225,
      "velocity": 100,
      "chip": "ym2612"
    },
    {
      "channel": 0,
      "note": 36,
      "start": 3.6028,
      "duration": 0.0156,
      "velocity": 115,
      "chip": "ym2612"
    },
    {
      "channel": 4,
      "note": 62,
      "start": 3.6114,
      "duration": 0.0119,
      "velocity": 100,
      "chip": "ym2612"
    },
    {
      "channel": 1,
      "note": 78,
      "start": 3.6145,
      "duration": 0.0101,
      "velocity": 83,
      "chip": "ym2612"
    },
    {
      "channel": 0,
      "note": 36,
      "start": 3.6184,
      "duration": 0.0148,
      "velocity": 115,
      "chip": "ym2612"
    },
    {
      "channel": 4,
      "note": 62,
      "start": 3.6233,
      "duration": 0.0148,
      "velocity": 100,
      "chip": "ym2612"
    },
    {
      "channel": 1,
      "note": 78,
      "start": 3.6246,
      "duration": 0.0146,
      "velocity": 83,
      "chip": "ym2612"
    },
    {
      "channel": 0,
      "note": 37,
      "start": 3.6332,
      "duration": 0.0161,
      "velocity": 115,
      "chip": "ym2612"
    },
    {
      "channel": 4,
      "note": 62,
      "start": 3.638,
      "duration": 0.0161,
      "velocity": 100,
      "chip": "ym2612"
    },
    {
      "channel": 1,
      "note": 78,
      "start": 3.6392,
      "duration": 0.0161,
      "velocity": 83,
      "chip": "ym2612"
    },
    {
      "channel": 0,
      "note": 37,
      "start": 3.6493,
      "duration": 0.0162,
      "velocity": 115,
      "chip": "ym2612"
    },
    {
      "channel": 4,
      "note": 62,
      "start": 3.6541,
      "duration": 0.0168,
      "velocity": 100,
      "chip": "ym2612"
    },
    {
      "channel": 1,
      "note": 78,
      "start": 3.6554,
      "duration": 0.0168,
      "velocity": 83,
      "chip": "ym2612"
    },
    {
      "channel": 0,
      "note": 38,
      "start": 3.6654,
      "duration": 0.0161,
      "velocity": 115,
      "chip": "ym2612"
    },
    {
      "channel": 5,
      "note": 78,
      "start": 3.6674,
      "duration": 0.0154,
      "velocity": 83,
      "chip": "ym2612"
    },
    {
      "channel": 4,
      "note": 62,
      "start": 3.671,
      "duration": 0.0154,
      "velocity": 100,
      "chip": "ym2612"
    },
    {
      "channel": 1,
      "note": 78,
      "start": 3.6722,
      "duration": 0.0154,
      "velocity": 83,
      "chip": "ym2612"
    },
    {
      "channel": 0,
      "note": 38,
      "start": 3.6815,
      "duration": 0.0161,
      "velocity": 115,
      "chip": "ym2612"
    },
    {
      "channel": 5,
      "note": 78,
      "start": 3.6828,
      "duration": 0.016,
      "velocity": 83,
      "chip": "ym2612"
    },
    {
      "channel": 4,
      "note": 62,
      "start": 3.6864,
      "duration": 0.016,
      "velocity": 100,
      "chip": "ym2612"
    },
    {
      "channel": 1,
      "note": 78,
      "start": 3.6876,
      "duration": 0.0161,
      "velocity": 83,
      "chip": "ym2612"
    },
    {
      "channel": 0,
      "note": 39,
      "start": 3.6976,
      "duration": 0.0161,
      "velocity": 115,
      "chip": "ym2612"
    },
    {
      "channel": 5,
      "note": 78,
      "start": 3.6988,
      "duration": 0.0161,
      "velocity": 83,
      "chip": "ym2612"
    },
    {
      "channel": 4,
      "note": 62,
      "start": 3.7024,
      "duration": 0.0161,
      "velocity": 100,
      "chip": "ym2612"
    },
    {
      "channel": 1,
      "note": 78,
      "start": 3.7037,
      "duration": 0.016,
      "velocity": 83,
      "chip": "ym2612"
    },
    {
      "channel": 0,
      "note": 39,
      "start": 3.7137,
      "duration": 0.0161,
      "velocity": 115,
      "chip": "ym2612"
    },
    {
      "channel": 5,
      "note": 78,
      "start": 3.7149,
      "duration": 0.0162,
      "velocity": 83,
      "chip": "ym2612"
    },
    {
      "channel": 4,
      "note": 62,
      "start": 3.7185,
      "duration": 0.0162,
      "velocity": 100,
      "chip": "ym2612"
    },
    {
      "channel": 1,
      "note": 78,
      "start": 3.7197,
      "duration": 0.0161,
      "velocity": 83,
      "chip": "ym2612"
    },
    {
      "channel": 0,
      "note": 40,
      "start": 3.7298,
      "duration": 0.0164,
      "velocity": 115,
      "chip": "ym2612"
    },
    {
      "channel": 5,
      "note": 78,
      "start": 3.7311,
      "duration": 0.0164,
      "velocity": 83,
      "chip": "ym2612"
    },
    {
      "channel": 4,
      "note": 62,
      "start": 3.7347,
      "duration": 0.0164,
      "velocity": 100,
      "chip": "ym2612"
    },
    {
      "channel": 1,
      "note": 78,
      "start": 3.7358,
      "duration": 0.0165,
      "velocity": 83,
      "chip": "ym2612"
    },
    {
      "channel": 0,
      "note": 40,
      "start": 3.7463,
      "duration": 0.0163,
      "velocity": 115,
      "chip": "ym2612"
    },
    {
      "channel": 5,
      "note": 78,
      "start": 3.7475,
      "duration": 0.0163,
      "velocity": 83,
      "chip": "ym2612"
    },
    {
      "channel": 4,
      "note": 62,
      "start": 3.7511,
      "duration": 0.0163,
      "velocity": 100,
      "chip": "ym2612"
    },
    {
      "channel": 1,
      "note": 78,
      "start": 3.7523,
      "duration": 0.0163,
      "velocity": 83,
      "chip": "ym2612"
    },
    {
      "channel": 0,
      "note": 40,
      "start": 3.7625,
      "duration": 0.0162,
      "velocity": 115,
      "chip": "ym2612"
    },
    {
      "channel": 5,
      "note": 78,
      "start": 3.7638,
      "duration": 0.016,
      "velocity": 83,
      "chip": "ym2612"
    },
    {
      "channel": 4,
      "note": 62,
      "start": 3.7674,
      "duration": 0.0161,
      "velocity": 100,
      "chip": "ym2612"
    },
    {
      "channel": 1,
      "note": 78,
      "start": 3.7686,
      "duration": 0.0161,
      "velocity": 83,
      "chip": "ym2612"
    },
    {
      "channel": 0,
      "note": 41,
      "start": 3.7787,
      "duration": 0.016,
      "velocity": 115,
      "chip": "ym2612"
    },
    {
      "channel": 5,
      "note": 78,
      "start": 3.7798,
      "duration": 0.0161,
      "velocity": 83,
      "chip": "ym2612"
    },
    {
      "channel": 4,
      "note": 62,
      "start": 3.7835,
      "duration": 0.0161,
      "velocity": 100,
      "chip": "ym2612"
    },
    {
      "channel": 1,
      "note": 78,
      "start": 3.7847,
      "duration": 0.0161,
      "velocity": 83,
      "chip": "ym2612"
    },
    {
      "channel": 0,
      "note": 41,
      "start": 3.7947,
      "duration": 0.0158,
      "velocity": 115,
      "chip": "ym2612"
    },
    {
      "channel": 5,
      "note": 78,
      "start": 3.7959,
      "duration": 0.0162,
      "velocity": 83,
      "chip": "ym2612"
    },
    {
      "channel": 4,
      "note": 62,
      "start": 3.7996,
      "duration": 0.0161,
      "velocity": 100,
      "chip": "ym2612"
    },
    {
      "channel": 1,
      "note": 78,
      "start": 3.8008,
      "duration": 0.0161,
      "velocity": 83,
      "chip": "ym2612"
    },
    {
      "channel": 0,
      "note": 42,
      "start": 3.8105,
      "duration": 0.0159,
      "velocity": 115,
      "chip": "ym2612"
    },
    {
      "channel": 5,
      "note": 78,
      "start": 3.8121,
      "duration": 0.016,
      "velocity": 83,
      "chip": "ym2612"
    },
    {
      "channel": 4,
      "note": 62,
      "start": 3.8157,
      "duration": 0.0167,
      "velocity": 100,
      "chip": "ym2612"
    },
    {
      "channel": 1,
      "note": 78,
      "start": 3.8169,
      "duration": 0.0167,
      "velocity": 83,
      "chip": "ym2612"
    },
    {
      "channel": 0,
      "note": 42,
      "start": 3.8264,
      "duration": 0.0161,
      "velocity": 115,
      "chip": "ym2612"
    },
    {
      "channel": 5,
      "note": 78,
      "start": 3.8281,
      "duration": 0.0158,
      "velocity": 83,
      "chip": "ym2612"
    },
    {
      "channel": 3,
      "note": 74,
      "start": 3.8297,
      "duration": 0.0158,
      "velocity": 100,
      "chip": "ym2612"
    },
    {
      "channel": 2,
      "note": 78,
      "start": 3.8313,
      "duration": 0.0154,
      "velocity": 100,
      "chip": "ym2612"
    },
    {
      "channel": 4,
      "note": 62,
      "start": 3.8324,
      "duration": 0.0155,
      "velocity": 100,
      "chip": "ym2612"
    },
    {
      "channel": 1,
      "note": 78,
      "start": 3.8336,
      "duration": 0.0155,
      "velocity": 83,
      "chip": "ym2612"
    },
    {
      "channel": 0,
      "note": 43,
      "start": 3.8425,
      "duration": 0.0161,
      "velocity": 115,
      "chip": "ym2612"
    },
    {
      "channel": 5,
      "note": 78,
      "start": 3.8439,
      "duration": 0.0159,
      "velocity": 83,
      "chip": "ym2612"
    },
    {
      "channel": 3,
      "note": 74,
      "start": 3.8455,
      "duration": 0.016,
      "velocity": 100,
      "chip": "ym2612"
    },
    {
      "channel": 2,
      "note": 78,
      "start": 3.8467,
      "duration": 0.016,
      "velocity": 100,
      "chip": "ym2612"
    },
    {
      "channel": 4,
      "note": 62,
      "start": 3.8479,
      "duration": 0.016,
      "velocity": 100,
      "chip": "ym2612"
    },
    {
      "channel": 1,
      "note": 78,
      "start": 3.8491,
      "duration": 0.016,
      "velocity": 83,
      "chip": "ym2612"
    },
    {
      "channel": 0,
      "note": 43,
      "start": 3.8586,
      "duration": 0.0161,
      "velocity": 115,
      "chip": "ym2612"
    },
    {
      "channel": 5,
      "note": 78,
      "start": 3.8598,
      "duration": 0.0161,
      "velocity": 83,
      "chip": "ym2612"
    },
    {
      "channel": 3,
      "note": 74,
      "start": 3.8615,
      "duration": 0.0158,
      "velocity": 100,
      "chip": "ym2612"
    },
    {
      "channel": 2,
      "note": 78,
      "start": 3.8627,
      "duration": 0.016,
      "velocity": 100,
      "chip": "ym2612"
    },
    {
      "channel": 4,
      "note": 62,
      "start": 3.8639,
      "duration": 0.0161,
      "velocity": 100,
      "chip": "ym2612"
    },
    {
      "channel": 1,
      "note": 78,
      "start": 3.865,
      "duration": 0.0161,
      "velocity": 83,
      "chip": "ym2612"
    },
    {
      "channel": 0,
      "note": 44,
      "start": 3.8747,
      "duration": 0.0161,
      "velocity": 115,
      "chip": "ym2612"
    },
    {
      "channel": 5,
      "note": 78,
      "start": 3.8759,
      "duration": 0.0161,
      "velocity": 83,
      "chip": "ym2612"
    },
    {
      "channel": 3,
      "note": 74,
      "start": 3.8772,
      "duration": 0.0159,
      "velocity": 100,
      "chip": "ym2612"
    },
    {
      "channel": 2,
      "note": 78,
      "start": 3.8788,
      "duration": 0.0161,
      "velocity": 100,
      "chip": "ym2612"
    },
    {
      "channel": 4,
      "note": 62,
      "start": 3.88,
      "duration": 0.0162,
      "velocity": 100,
      "chip": "ym2612"
    },
    {
      "channel": 1,
      "note": 78,
      "start": 3.8811,
      "duration": 0.0162,
      "velocity": 83,
      "chip": "ym2612"
    },
    {
      "channel": 0,
      "note": 44,
      "start": 3.8908,
      "duration": 0.0161,
      "velocity": 115,
      "chip": "ym2612"
    },
    {
      "channel": 5,
      "note": 78,
      "start": 3.892,
      "duration": 0.0161,
      "velocity": 83,
      "chip": "ym2612"
    },
    {
      "channel": 3,
      "note": 74,
      "start": 3.8932,
      "duration": 0.0161,
      "velocity": 100,
      "chip": "ym2612"
    },
    {
      "channel": 2,
      "note": 78,
      "start": 3.8949,
      "duration": 0.0158,
      "velocity": 100,
      "chip": "ym2612"
    },
    {
      "channel": 4,
      "note": 62,
      "start": 3.8961,
      "duration": 0.0161,
      "velocity": 100,
      "chip": "ym2612"
    },
    {
      "channel": 1,
      "note": 78,
      "start": 3.8973,
      "duration": 0.0161,
      "velocity": 83,
      "chip": "ym2612"
    },
    {
      "channel": 0,
      "note": 44,
      "start": 3.9069,
      "duration": 0.0161,
      "velocity": 115,
      "chip": "ym2612"
    },
    {
      "channel": 5,
      "note": 78,
      "start": 3.9081,
      "duration": 0.0161,
      "velocity": 83,
      "chip": "ym2612"
    },
    {
      "channel": 3,
      "note": 74,
      "start": 3.9093,
      "duration": 0.0161,
      "velocity": 100,
      "chip": "ym2612"
    },
    {
      "channel": 2,
      "note": 78,
      "start": 3.9106,
      "duration": 0.0159,
      "velocity": 100,
      "chip": "ym2612"
    },
    {
      "channel": 4,
      "note": 62,
      "start": 3.9122,
      "duration": 0.0161,
      "velocity": 100,
      "chip": "ym2612"
    },
    {
      "channel": 0,
      "note": 45,
      "start": 3.923,
      "duration": 0.018,
      "velocity": 115,
      "chip": "ym2612"
    },
    {
      "channel": 5,
      "note": 78,
      "start": 3.9242,
      "duration": 0.018,
      "velocity": 83,
      "chip": "ym2612"
    },
    {
      "channel": 3,
      "note": 74,
      "start": 3.9254,
      "duration": 0.0179,
      "velocity": 100,
      "chip": "ym2612"
    },
    {
      "channel": 2,
      "note": 78,
      "start": 3.9266,
      "duration": 0.0185,
      "velocity": 100,
      "chip": "ym2612"
    },
    {
      "channel": 4,
      "note": 62,
      "start": 3.9283,
      "duration": 0.0181,
      "velocity": 100,
      "chip": "ym2612"
    },
    {
      "channel": 0,
      "note": 36,
      "start": 3.941,
      "duration": 0.0143,
      "velocity": 115,
      "chip": "ym2612"
    },
    {
      "channel": 5,
      "note": 78,
      "start": 3.9422,
      "duration": 0.0143,
      "velocity": 83,
      "chip": "ym2612"
    },
    {
      "channel": 3,
      "note": 74,
      "start": 3.9433,
      "duration": 0.0143,
      "velocity": 100,
      "chip": "ym2612"
    },
    {
      "channel": 2,
      "note": 78,
      "start": 3.9451,
      "duration": 0.0137,
      "velocity": 100,
      "chip": "ym2612"
    },
    {
      "channel": 4,
      "note": 57,
      "start": 3.9465,
      "duration": 0.0135,
      "velocity": 100,
      "chip": "ym2612"
    },
    {
      "channel": 1,
      "note": 76,
      "start": 3.948,
      "duration": 0.0139,
      "velocity": 83,
      "chip": "ym2612"
    },
    {
      "channel": 0,
      "note": 36,
      "start": 3.9553,
      "duration": 0.016,
      "velocity": 115,
      "chip": "ym2612"
    },
    {
      "channel": 5,
      "note": 78,
      "start": 3.9565,
      "duration": 0.016,
      "velocity": 83,
      "chip": "ym2612"
    },
    {
      "channel": 3,
      "note": 74,
      "start": 3.9576,
      "duration": 0.016,
      "velocity": 100,
      "chip": "ym2612"
    },
    {
      "channel": 2,
      "note": 78,
      "start": 3.9588,
      "duration": 0.016,
      "velocity": 100,
      "chip": "ym2612"
    },
    {
      "channel": 4,
      "note": 57,
      "start": 3.96,
      "duration": 0.016,
      "velocity": 100,
      "chip": "ym2612"
    },
    {
      "channel": 1,
      "note": 76,
      "start": 3.9619,
      "duration": 0.0159,
      "velocity": 83,
      "chip": "ym2612"
    },
    {
      "channel": 0,
      "note": 37,
      "start": 3.9713,
      "duration": 0.0161,
      "velocity": 115,
      "chip": "ym2612"
    },
    {
      "channel": 3,
      "note": 74,
      "start": 3.9737,
      "duration": 0.0161,
      "velocity": 100,
      "chip": "ym2612"
    },
    {
      "channel": 2,
      "note": 78,
      "start": 3.9748,
      "duration": 0.0161,
      "velocity": 100,
      "chip": "ym2612"
    },
    {
      "channel": 4,
      "note": 57,
      "start": 3.976,
      "duration": 0.0161,
      "velocity": 100,
      "chip": "ym2612"
    },
    {
      "channel": 1,
      "note": 76,
      "start": 3.9778,
      "duration": 0.0155,
      "velocity": 83,
      "chip": "ym2612"
    },
    {
      "channel": 0,
      "note": 37,
      "start": 3.9874,
      "duration": 0.0161,
      "velocity": 115,
      "chip": "ym2612"
    },
    {
      "channel": 3,
      "note": 74,
      "start": 3.9898,
      "duration": 0.0163,
      "velocity": 100,
      "chip": "ym2612"
    },
    {
      "channel": 2,
      "note": 78,
      "start": 3.9909,
      "duration": 0.0164,
      "velocity": 100,
      "chip": "ym2612"
    },
    {
      "channel": 4,
      "note": 57,
      "start": 3.9921,
      "duration": 0.0164,
      "velocity": 100,
      "chip": "ym2612"
    },
    {
      "channel": 1,
      "note": 76,
      "start": 3.9932,
      "duration": 0.0164,
      "velocity": 83,
      "chip": "ym2612"
    },
    {
      "channel": 0,
      "note": 38,
      "start": 4.0035,
      "duration": 0.0161,
      "velocity": 115,
      "chip": "ym2612"
    },
    {
      "channel": 5,
      "note": 76,
      "start": 4.005,
      "duration": 0.0159,
      "velocity": 83,
      "chip": "ym2612"
    },
    {
      "channel": 3,
      "note": 74,
      "start": 4.0061,
      "duration": 0.0159,
      "velocity": 100,
      "chip": "ym2612"
    },
    {
      "channel": 2,
      "note": 78,
      "start": 4.0073,
      "duration": 0.0159,
      "velocity": 100,
      "chip": "ym2612"
    },
    {
      "channel": 4,
      "note": 57,
      "start": 4.0085,
      "duration": 0.0158,
      "velocity": 100,
      "chip": "ym2612"
    },
    {
      "channel": 1,
      "note": 76,
      "start": 4.0096,
      "duration": 0.0159,
      "velocity": 83,
      "chip": "ym2612"
    },
    {
      "channel": 0,
      "note": 38,
      "start": 4.0196,
      "duration": 0.0161,
      "velocity": 115,
      "chip": "ym2612"
    },
    {
      "channel": 5,
      "note": 76,
      "start": 4.0209,
      "duration": 0.016,
      "velocity": 83,
      "chip": "ym2612"
    },
    {
      "channel": 3,
      "note": 74,
      "start": 4.022,
      "duration": 0.016,
      "velocity": 100,
      "chip": "ym2612"
    },
    {
      "channel": 2,
      "note": 78,
      "start": 4.0232,
      "duration": 0.0161,
      "velocity": 100,
      "chip": "ym2612"
    },
    {
      "channel": 4,
      "note": 57,
      "start": 4.0243,
      "duration": 0.0161,
      "velocity": 100,
      "chip": "ym2612"
    },
    {
      "channel": 1,
      "note": 76,
      "start": 4.0255,
      "duration": 0.0161,
      "velocity": 83,
      "chip": "ym2612"
    },
    {
      "channel": 0,
      "note": 39,
      "start": 4.0357,
      "duration": 0.0179,
      "velocity": 124,
      "chip": "ym2612"
    },
    {
      "channel": 5,
      "note": 76,
      "start": 4.0369,
      "duration": 0.018,
      "velocity": 83,
      "chip": "ym2612"
    },
    {
      "channel": 4,
      "note": 57,
      "start": 4.0404,
      "duration": 0.0186,
      "velocity": 100,
      "chip": "ym2612"
    },
    {
      "channel": 1,
      "note": 76,
      "start": 4.0416,
      "duration": 0.0186,
      "velocity": 83,
      "chip": "ym2612"
    },
    {
      "channel": 0,
      "note": 84,
      "start": 4.0537,
      "duration": 0.0143,
      "velocity": 124,
      "chip": "ym2612"
    },
    {
      "channel": 5,
      "note": 76,
      "start": 4.0549,
      "duration": 0.0142,
      "velocity": 83,
      "chip": "ym2612"
    },
    {
      "channel": 3,
      "note": 74,
      "start": 4.0564,
      "duration": 0.014,
      "velocity": 100,
      "chip": "ym2612"
    },
    {
      "channel": 2,
      "note": 78,
      "start": 4.0578,
      "duration": 0.0138,
      "velocity": 100,
      "chip": "ym2612"
    },
    {
      "channel": 4,
      "note": 57,
      "start": 4.059,
      "duration": 0.0137,
      "velocity": 100,
      "chip": "ym2612"
    },
    {
      "channel": 1,
      "note": 76,
      "start": 4.0602,
      "duration": 0.0137,
      "velocity": 83,
      "chip": "ym2612"
    },
    {
      "channel": 0,
      "note": 82,
      "start": 4.068,
      "duration": 0.0161,
      "velocity": 124,
      "chip": "ym2612"
    },
    {
      "channel": 5,
      "note": 76,
      "start": 4.0692,
      "duration": 0.016,
      "velocity": 83,
      "chip": "ym2612"
    },
    {
      "channel": 3,
      "note": 74,
      "start": 4.0704,
      "duration": 0.016,
      "velocity": 100,
      "chip": "ym2612"
    },
    {
      "channel": 2,
      "note": 78,
      "start": 4.0717,
      "duration": 0.0159,
      "velocity": 100,
      "chip": "ym2612"
    },
    {
      "channel": 4,
      "note": 57,
      "start": 4.0728,
      "duration": 0.0159,
      "velocity": 100,
      "chip": "ym2612"
    },
    {
      "channel": 1,
      "note": 76,
      "start": 4.0739,
      "duration": 0.0159,
      "velocity": 83,
      "chip": "ym2612"
    },
    {
      "channel": 0,
      "note": 80,
      "start": 4.0841,
      "duration": 0.0161,
      "velocity": 124,
      "chip": "ym2612"
    },
    {
      "channel": 5,
      "note": 76,
      "start": 4.0852,
      "duration": 0.0162,
      "velocity": 83,
      "chip": "ym2612"
    },
    {
      "channel": 3,
      "note": 74,
      "start": 4.0864,
      "duration": 0.0161,
      "velocity": 100,
      "chip": "ym2612"
    },
    {
      "channel": 2,
      "note": 78,
      "start": 4.0876,
      "duration": 0.0161,
      "velocity": 100,
      "chip": "ym2612"
    },
    {
      "channel": 4,
      "note": 57,
      "start": 4.0887,
      "duration": 0.0161,
      "velocity": 100,
      "chip": "ym2612"
    },
    {
      "channel": 1,
      "note": 76,
      "start": 4.0898,
      "duration": 0.0161,
      "velocity": 83,
      "chip": "ym2612"
    },
    {
      "channel": 0,
      "note": 77,
      "start": 4.1001,
      "duration": 0.0161,
      "velocity": 124,
      "chip": "ym2612"
    },
    {
      "channel": 5,
      "note": 76,
      "start": 4.1014,
      "duration": 0.0161,
      "velocity": 83,
      "chip": "ym2612"
    },
    {
      "channel": 3,
      "note": 74,
      "start": 4.1025,
      "duration": 0.0161,
      "velocity": 100,
      "chip": "ym2612"
    },
    {
      "channel": 2,
      "note": 78,
      "start": 4.1037,
      "duration": 0.0161,
      "velocity": 100,
      "chip": "ym2612"
    },
    {
      "channel": 4,
      "note": 57,
      "start": 4.1048,
      "duration": 0.0161,
      "velocity": 100,
      "chip": "ym2612"
    },
    {
      "channel": 1,
      "note": 76,
      "start": 4.106,
      "duration": 0.0161,
      "velocity": 83,
      "chip": "ym2612"
    },
    {
      "channel": 0,
      "note": 75,
      "start": 4.1162,
      "duration": 0.0161,
      "velocity": 124,
      "chip": "ym2612"
    },
    {
      "channel": 5,
      "note": 76,
      "start": 4.1174,
      "duration": 0.0161,
      "velocity": 83,
      "chip": "ym2612"
    },
    {
      "channel": 3,
      "note": 74,
      "start": 4.1186,
      "duration": 0.0161,
      "velocity": 100,
      "chip": "ym2612"
    },
    {
      "channel": 2,
      "note": 78,
      "start": 4.1197,
      "duration": 0.0161,
      "velocity": 100,
      "chip": "ym2612"
    },
    {
      "channel": 4,
      "note": 57,
      "start": 4.1209,
      "duration": 0.0161,
      "velocity": 100,
      "chip": "ym2612"
    },
    {
      "channel": 1,
      "note": 76,
      "start": 4.1221,
      "duration": 0.0161,
      "velocity": 83,
      "chip": "ym2612"
    },
    {
      "channel": 0,
      "note": 72,
      "start": 4.1323,
      "duration": 0.0161,
      "velocity": 124,
      "chip": "ym2612"
    },
    {
      "channel": 5,
      "note": 76,
      "start": 4.1335,
      "duration": 0.0161,
      "velocity": 83,
      "chip": "ym2612"
    },
    {
      "channel": 3,
      "note": 74,
      "start": 4.1347,
      "duration": 0.0161,
      "velocity": 100,
      "chip": "ym2612"
    },
    {
      "channel": 2,
      "note": 78,
      "start": 4.1358,
      "duration": 0.0161,
      "velocity": 100,
      "chip": "ym2612"
    },
    {
      "channel": 4,
      "note": 57,
      "start": 4.137,
      "duration": 0.0161,
      "velocity": 100,
      "chip": "ym2612"
    },
    {
      "channel": 1,
      "note": 76,
      "start": 4.1382,
      "duration": 0.0161,
      "velocity": 83,
      "chip": "ym2612"
    },
    {
      "channel": 0,
      "note": 70,
      "start": 4.1484,
      "duration": 0.0161,
      "velocity": 124,
      "chip": "ym2612"
    },
    {
      "channel": 5,
      "note": 76,
      "start": 4.1496,
      "duration": 0.0161,
      "velocity": 83,
      "chip": "ym2612"
    },
    {
      "channel": 3,
      "note": 74,
      "start": 4.1508,
      "duration": 0.0161,
      "velocity": 100,
      "chip": "ym2612"
    },
    {
      "channel": 2,
      "note": 78,
      "start": 4.1519,
      "duration": 0.0161,
      "velocity": 100,
      "chip": "ym2612"
    },
    {
      "channel": 4,
      "note": 57,
      "start": 4.1531,
      "duration": 0.0161,
      "velocity": 100,
      "chip": "ym2612"
    },
    {
      "channel": 1,
      "note": 76,
      "start": 4.1543,
      "duration": 0.0161,
      "velocity": 83,
      "chip": "ym2612"
    },
    {
      "channel": 0,
      "note": 68,
      "start": 4.1645,
      "duration": 0.0161,
      "velocity": 124,
      "chip": "ym2612"
    },
    {
      "channel": 5,
      "note": 76,
      "start": 4.1657,
      "duration": 0.0161,
      "velocity": 83,
      "chip": "ym2612"
    },
    {
      "channel": 3,
      "note": 74,
      "start": 4.1669,
      "duration": 0.0161,
      "velocity": 100,
      "chip": "ym2612"
    },
    {
      "channel": 2,
      "note": 78,
      "start": 4.168,
      "duration": 0.0161,
      "velocity": 100,
      "chip": "ym2612"
    },
    {
      "channel": 4,
      "note": 57,
      "start": 4.1692,
      "duration": 0.0162,
      "velocity": 100,
      "chip": "ym2612"
    },
    {
      "channel": 1,
      "note": 76,
      "start": 4.1704,
      "duration": 0.0161,
      "velocity": 83,
      "chip": "ym2612"
    },
    {
      "channel": 0,
      "note": 65,
      "start": 4.1806,
      "duration": 0.0162,
      "velocity": 124,
      "chip": "ym2612"
    },
    {
      "channel": 5,
      "note": 76,
      "start": 4.1818,
      "duration": 0.0162,
      "velocity": 83,
      "chip": "ym2612"
    },
    {
      "channel": 3,
      "note": 74,
      "start": 4.183,
      "duration": 0.0162,
      "velocity": 100,
      "chip": "ym2612"
    },
    {
      "channel": 2,
      "note": 78,
      "start": 4.1842,
      "duration": 0.0162,
      "velocity": 100,
      "chip": "ym2612"
    },
    {
      "channel": 4,
      "note": 57,
      "start": 4.1853,
      "duration": 0.0161,
      "velocity": 100,
      "chip": "ym2612"
    },
    {
      "channel": 1,
      "note": 76,
      "start": 4.1865,
      "duration": 0.0162,
      "velocity": 83,
      "chip": "ym2612"
    },
    {
      "channel": 0,
      "note": 63,
      "start": 4.1968,
      "duration": 0.0156,
      "velocity": 1,
      "chip": "ym2612"
    },
    {
      "channel": 5,
      "note": 76,
      "start": 4.198,
      "duration": 0.0155,
      "velocity": 83,
      "chip": "ym2612"
    },
    {
      "channel": 3,
      "note": 74,
      "start": 4.1992,
      "duration": 0.0155,
      "velocity": 100,
      "chip": "ym2612"
    },
    {
      "channel": 2,
      "note": 78,
      "start": 4.2003,
      "duration": 0.0155,
      "velocity": 100,
      "chip": "ym2612"
    },
    {
      "channel": 4,
      "note": 57,
      "start": 4.2015,
      "duration": 0.0155,
      "velocity": 100,
      "chip": "ym2612"
    },
    {
      "channel": 1,
      "note": 76,
      "start": 4.2026,
      "duration": 0.0155,
      "velocity": 83,
      "chip": "ym2612"
    },
    {
      "channel": 5,
      "note": 76,
      "start": 4.2135,
      "duration": 0.0155,
      "velocity": 83,
      "chip": "ym2612"
    },
    {
      "channel": 3,
      "note": 74,
      "start": 4.2147,
      "duration": 0.0154,
      "velocity": 100,
      "chip": "ym2612"
    },
    {
      "channel": 2,
      "note": 78,
      "start": 4.2159,
      "duration": 0.0155,
      "velocity": 100,
      "chip": "ym2612"
    },
    {
      "channel": 4,
      "note": 57,
      "start": 4.217,
      "duration": 0.0155,
      "velocity": 100,
      "chip": "ym2612"
    },
    {
      "channel": 1,
      "note": 76,
      "start": 4.2181,
      "duration": 0.0156,
      "velocity": 83,
      "chip": "ym2612"
    },
    {
      "channel": 5,
      "note": 76,
      "start": 4.229,
      "duration": 0.016,
      "velocity": 83,
      "chip": "ym2612"
    },
    {
      "channel": 3,
      "note": 74,
      "start": 4.2302,
      "duration": 0.0162,
      "velocity": 100,
      "chip": "ym2612"
    },
    {
      "channel": 2,
      "note": 78,
      "start": 4.2313,
      "duration": 0.0162,
      "velocity": 100,
      "chip": "ym2612"
    },
    {
      "channel": 4,
      "note": 57,
      "start": 4.2325,
      "duration": 0.0162,
      "velocity": 100,
      "chip": "ym2612"
    },
    {
      "channel": 1,
      "note": 76,
      "start": 4.2337,
      "duration": 0.0161,
      "velocity": 83,
      "chip": "ym2612"
    },
    {
      "channel": 5,
      "note": 76,
      "start": 4.2451,
      "duration": 0.0161,
      "velocity": 83,
      "chip": "ym2612"
    },
    {
      "channel": 3,
      "note": 74,
      "start": 4.2463,
      "duration": 0.0161,
      "velocity": 100,
      "chip": "ym2612"
    },
    {
      "channel": 2,
      "note": 78,
      "start": 4.2475,
      "duration": 0.0161,
      "velocity": 100,
      "chip": "ym2612"
    },
    {
      "channel": 4,
      "note": 57,
      "start": 4.2487,
      "duration": 0.0161,
      "velocity": 100,
      "chip": "ym2612"
    },
    {
      "channel": 5,
      "note": 76,
      "start": 4.2612,
      "duration": 0.0156,
      "velocity": 83,
      "chip": "ym2612"
    },
    {
      "channel": 4,
      "note": 57,
      "start": 4.2648,
      "duration": 0.0171,
      "velocity": 100,
      "chip": "ym2612"
    },
    {
      "channel": 5,
      "note": 76,
      "start": 4.2767,
      "duration": 0.0162,
      "velocity": 83,
      "chip": "ym2612"
    },
    {
      "channel": 3,
      "note": 74,
      "start": 4.2789,
      "duration": 0.0157,
      "velocity": 100,
      "chip": "ym2612"
    },
    {
      "channel": 2,
      "note": 78,
      "start": 4.2804,
      "duration": 0.0154,
      "velocity": 100,
      "chip": "ym2612"
    },
    {
      "channel": 4,
      "note": 59,
      "start": 4.282,
      "duration": 0.0152,
      "velocity": 100,
      "chip": "ym2612"
    },
    {
      "channel": 1,
      "note": 74,
      "start": 4.2834,
      "duration": 0.0149,
      "velocity": 83,
      "chip": "ym2612"
    },
    {
      "channel": 5,
      "note": 76,
      "start": 4.2929,
      "duration": 0.016,
      "velocity": 83,
      "chip": "ym2612"
    },
    {
      "channel": 3,
      "note": 74,
      "start": 4.2946,
      "duration": 0.0155,
      "velocity": 100,
      "chip": "ym2612"
    },
    {
      "channel": 2,
      "note": 78,
      "start": 4.2959,
      "duration": 0.016,
      "velocity": 100,
      "chip": "ym2612"
    },
    {
      "channel": 4,
      "note": 59,
      "start": 4.2971,
      "duration": 0.0159,
      "velocity": 100,
      "chip": "ym2612"
    },
    {
      "channel": 1,
      "note": 74,
      "start": 4.2984,
      "duration": 0.0158,
      "velocity": 83,
      "chip": "ym2612"
    },
    {
      "channel": 3,
      "note": 74,
      "start": 4.3101,
      "duration": 0.0161,
      "velocity": 100,
      "chip": "ym2612"
    },
    {
      "channel": 2,
      "note": 78,
      "start": 4.3119,
      "duration": 0.016,
      "velocity": 100,
      "chip": "ym2612"
    },
    {
      "channel": 4,
      "note": 59,
      "start": 4.313,
      "duration": 0.0161,
      "velocity": 100,
      "chip": "ym2612"
    },
    {
      "channel": 1,
      "note": 74,
      "start": 4.3142,
      "duration": 0.0161,
      "velocity": 83,
      "chip": "ym2612"
    },
    {
      "channel": 3,
      "note": 74,
      "start": 4.3262,
      "duration": 0.0163,
      "velocity": 100,
      "chip": "ym2612"
    },
    {
      "channel": 2,
      "note": 78,
      "start": 4.3279,
      "duration": 0.0161,
      "velocity": 100,
      "chip": "ym2612"
    },
    {
      "channel": 4,
      "note": 59,
      "start": 4.3291,
      "duration": 0.0164,
      "velocity": 100,
      "chip": "ym2612"
    },
    {
      "channel": 1,
      "note": 74,
      "start": 4.3303,
      "duration": 0.0164,
      "velocity": 83,
      "chip": "ym2612"
    },
    {
      "channel": 5,
      "note": 74,
      "start": 4.3414,
      "duration": 0.0159,
      "velocity": 83,
      "chip": "ym2612"
    },
    {
      "channel": 3,
      "note": 74,
      "start": 4.3426,
      "duration": 0.0159,
      "velocity": 100,
      "chip": "ym2612"
    },
    {
      "channel": 2,
      "note": 78,
      "start": 4.344,
      "duration": 0.0156,
      "velocity": 100,
      "chip": "ym2612"
    },
    {
      "channel": 4,
      "note": 59,
      "start": 4.3455,
      "duration": 0.0158,
      "velocity": 100,
      "chip": "ym2612"
    },
    {
      "channel": 1,
      "note": 74,
      "start": 4.3467,
      "duration": 0.0158,
      "velocity": 83,
      "chip": "ym2612"
    },
    {
      "channel": 5,
      "note": 74,
      "start": 4.3573,
      "duration": 0.016,
      "velocity": 83,
      "chip": "ym2612"
    },
    {
      "channel": 3,
      "note": 74,
      "start": 4.3585,
      "duration": 0.016,
      "velocity": 100,
      "chip": "ym2612"
    },
    {
      "channel": 2,
      "note": 78,
      "start": 4.3596,
      "duration": 0.016,
      "velocity": 100,
      "chip": "ym2612"
    },
    {
      "channel": 4,
      "note": 59,
      "start": 4.3613,
      "duration": 0.0155,
      "velocity": 100,
      "chip": "ym2612"
    },
    {
      "channel": 1,
      "note": 74,
      "start": 4.3625,
      "duration": 0.0161,
      "velocity": 83,
      "chip": "ym2612"
    },
    {
      "channel": 5,
      "note": 74,
      "start": 4.3734,
      "duration": 0.0161,
      "velocity": 83,
      "chip": "ym2612"
    },
    {
      "channel": 3,
      "note": 74,
      "start": 4.3745,
      "duration": 0.0161,
      "velocity": 100,
      "chip": "ym2612"
    },
    {
      "channel": 2,
      "note": 78,
      "start": 4.3756,
      "duration": 0.0161,
      "velocity": 100,
      "chip": "ym2612"
    },
    {
      "channel": 4,
      "note": 59,
      "start": 4.3768,
      "duration": 0.0161,
      "velocity": 100,
      "chip": "ym2612"
    },
    {
      "channel": 1,
      "note": 74,
      "start": 4.3786,
      "duration": 0.016,
      "velocity": 83,
      "chip": "ym2612"
    },
    {
      "channel": 5,
      "note": 74,
      "start": 4.3895,
      "duration": 0.0161,
      "velocity": 83,
      "chip": "ym2612"
    },
    {
      "channel": 3,
      "note": 74,
      "start": 4.3906,
      "duration": 0.0161,
      "velocity": 100,
      "chip": "ym2612"
    },
    {
      "channel": 2,
      "note": 78,
      "start": 4.3917,
      "duration": 0.0161,
      "velocity": 100,
      "chip": "ym2612"
    },
    {
      "channel": 4,
      "note": 59,
      "start": 4.3929,
      "duration": 0.0161,
      "velocity": 100,
      "chip": "ym2612"
    },
    {
      "channel": 1,
      "note": 74,
      "start": 4.3947,
      "duration": 0.0155,
      "velocity": 83,
      "chip": "ym2612"
    },
    {
      "channel": 5,
      "note": 74,
      "start": 4.4056,
      "duration": 0.0161,
      "velocity": 83,
      "chip": "ym2612"
    },
    {
      "channel": 3,
      "note": 74,
      "start": 4.4067,
      "duration": 0.0161,
      "velocity": 100,
      "chip": "ym2612"
    },
    {
      "channel": 2,
      "note": 78,
      "start": 4.4078,
      "duration": 0.0161,
      "velocity": 100,
      "chip": "ym2612"
    },
    {
      "channel": 4,
      "note": 59,
      "start": 4.409,
      "duration": 0.0161,
      "velocity": 100,
      "chip": "ym2612"
    },
    {
      "channel": 1,
      "note": 74,
      "start": 4.4102,
      "duration": 0.0161,
      "velocity": 83,
      "chip": "ym2612"
    },
    {
      "channel": 5,
      "note": 74,
      "start": 4.4217,
      "duration": 0.0161,
      "velocity": 83,
      "chip": "ym2612"
    },
    {
      "channel": 3,
      "note": 74,
      "start": 4.4228,
      "duration": 0.0162,
      "velocity": 100,
      "chip": "ym2612"
    },
    {
      "channel": 2,
      "note": 78,
      "start": 4.424,
      "duration": 0.0161,
      "velocity": 100,
      "chip": "ym2612"
    },
    {
      "channel": 4,
      "note": 59,
      "start": 4.4251,
      "duration": 0.0161,
      "velocity": 100,
      "chip": "ym2612"
    },
    {
      "channel": 1,
      "note": 74,
      "start": 4.4263,
      "duration": 0.0162,
      "velocity": 83,
      "chip": "ym2612"
    },
    {
      "channel": 5,
      "note": 74,
      "start": 4.4378,
      "duration": 0.016,
      "velocity": 83,
      "chip": "ym2612"
    },
    {
      "channel": 3,
      "note": 74,
      "start": 4.439,
      "duration": 0.0161,
      "velocity": 100,
      "chip": "ym2612"
    },
    {
      "channel": 2,
      "note": 78,
      "start": 4.4401,
      "duration": 0.0161,
      "velocity": 100,
      "chip": "ym2612"
    },
    {
      "channel": 4,
      "note": 59,
      "start": 4.4412,
      "duration": 0.0161,
      "velocity": 100,
      "chip": "ym2612"
    },
    {
      "channel": 1,
      "note": 74,
      "start": 4.4424,
      "duration": 0.016,
      "velocity": 83,
      "chip": "ym2612"
    },
    {
      "channel": 5,
      "note": 74,
      "start": 4.4538,
      "duration": 0.0161,
      "velocity": 83,
      "chip": "ym2612"
    },
    {
      "channel": 3,
      "note": 74,
      "start": 4.455,
      "duration": 0.0161,
      "velocity": 100,
      "chip": "ym2612"
    },
    {
      "channel": 2,
      "note": 78,
      "start": 4.4562,
      "duration": 0.0161,
      "velocity": 100,
      "chip": "ym2612"
    },
    {
      "channel": 4,
      "note": 59,
      "start": 4.4573,
      "duration": 0.0161,
      "velocity": 100,
      "chip": "ym2612"
    },
    {
      "channel": 1,
      "note": 74,
      "start": 4.4585,
      "duration": 0.0161,
      "velocity": 83,
      "chip": "ym2612"
    },
    {
      "channel": 5,
      "note": 74,
      "start": 4.4699,
      "duration": 0.0161,
      "velocity": 83,
      "chip": "ym2612"
    },
    {
      "channel": 3,
      "note": 74,
      "start": 4.4711,
      "duration": 0.0161,
      "velocity": 100,
      "chip": "ym2612"
    },
    {
      "channel": 2,
      "note": 78,
      "start": 4.4723,
      "duration": 0.0161,
      "velocity": 100,
      "chip": "ym2612"
    },
    {
      "channel": 4,
      "note": 59,
      "start": 4.4734,
      "duration": 0.0162,
      "velocity": 100,
      "chip": "ym2612"
    },
    {
      "channel": 1,
      "note": 74,
      "start": 4.4746,
      "duration": 0.0161,
      "velocity": 83,
      "chip": "ym2612"
    },
    {
      "channel": 5,
      "note": 74,
      "start": 4.4861,
      "duration": 0.0196,
      "velocity": 83,
      "chip": "ym2612"
    },
    {
      "channel": 4,
      "note": 59,
      "start": 4.4896,
      "duration": 0.0205,
      "velocity": 100,
      "chip": "ym2612"
    },
    {
      "channel": 1,
      "note": 74,
      "start": 4.4907,
      "duration": 0.0212,
      "velocity": 83,
      "chip": "ym2612"
    },
    {
      "channel": 0,
      "note": 36,
      "start": 4.5045,
      "duration": 0.0143,
      "velocity": 115,
      "chip": "ym2612"
    },
    {
      "channel": 5,
      "note": 74,
      "start": 4.5057,
      "duration": 0.0143,
      "velocity": 83,
      "chip": "ym2612"
    },
    {
      "channel": 3,
      "note": 74,
      "start": 4.5072,
      "duration": 0.014,
      "velocity": 100,
      "chip": "ym2612"
    },
    {
      "channel": 2,
      "note": 78,
      "start": 4.5087,
      "duration": 0.0138,
      "velocity": 100,
      "chip": "ym2612"
    },
    {
      "channel": 4,
      "note": 62,
      "start": 4.5102,
      "duration": 0.0135,
      "velocity": 100,
      "chip": "ym2612"
    },
    {
      "channel": 1,
      "note": 74,
      "start": 4.512,
      "duration": 0.0129,
      "velocity": 83,
      "chip": "ym2612"
    },
    {
      "channel": 0,
      "note": 36,
      "start": 4.5188,
      "duration": 0.0161,
      "velocity": 115,
      "chip": "ym2612"
    },
    {
      "channel": 5,
      "note": 74,
      "start": 4.52,
      "duration": 0.0161,
      "velocity": 83,
      "chip": "ym2612"
    },
    {
      "channel": 3,
      "note": 74,
      "start": 4.5212,
      "duration": 0.016,
      "velocity": 100,
      "chip": "ym2612"
    },
    {
      "channel": 2,
      "note": 78,
      "start": 4.5225,
      "duration": 0.0159,
      "velocity": 100,
      "chip": "ym2612"
    },
    {
      "channel": 4,
      "note": 62,
      "start": 4.5237,
      "duration": 0.0159,
      "velocity": 100,
      "chip": "ym2612"
    },
    {
      "channel": 1,
      "note": 74,
      "start": 4.5248,
      "duration": 0.0159,
      "velocity": 83,
      "chip": "ym2612"
    },
    {
      "channel": 0,
      "note": 37,
      "start": 4.5349,
      "duration": 0.0161,
      "velocity": 115,
      "chip": "ym2612"
    },
    {
      "channel": 5,
      "note": 74,
      "start": 4.5361,
      "duration": 0.016,
      "velocity": 83,
      "chip": "ym2612"
    },
    {
      "channel": 3,
      "note": 74,
      "start": 4.5372,
      "duration": 0.0161,
      "velocity": 100,
      "chip": "ym2612"
    },
    {
      "channel": 2,
      "note": 78,
      "start": 4.5384,
      "duration": 0.0161,
      "velocity": 100,
      "chip": "ym2612"
    },
    {
      "channel": 4,
      "note": 62,
      "start": 4.5395,
      "duration": 0.0161,
      "velocity": 100,
      "chip": "ym2612"
    },
    {
      "channel": 1,
      "note": 74,
      "start": 4.5407,
      "duration": 0.016,
      "velocity": 83,
      "chip": "ym2612"
    },
    {
      "channel": 0,
      "note": 37,
      "start": 4.551,
      "duration": 0.0161,
      "velocity": 115,
      "chip": "ym2612"
    },
    {
      "channel": 5,
      "note": 74,
      "start": 4.5521,
      "duration": 0.0161,
      "velocity": 83,
      "chip": "ym2612"
    },
    {
      "channel": 3,
      "note": 74,
      "start": 4.5533,
      "duration": 0.0161,
      "velocity": 100,
      "chip": "ym2612"
    },
    {
      "channel": 2,
      "note": 78,
      "start": 4.5545,
      "duration": 0.0161,
      "velocity": 100,
      "chip": "ym2612"
    },
    {
      "channel": 4,
      "note": 62,
      "start": 4.5556,
      "duration": 0.0161,
      "velocity": 100,
      "chip": "ym2612"
    },
    {
      "channel": 1,
      "note": 74,
      "start": 4.5568,
      "duration": 0.0162,
      "velocity": 83,
      "chip": "ym2612"
    },
    {
      "channel": 0,
      "note": 38,
      "start": 4.5671,
      "duration": 0.0161,
      "velocity": 115,
      "chip": "ym2612"
    },
    {
      "channel": 5,
      "note": 74,
      "start": 4.5682,
      "duration": 0.0162,
      "velocity": 83,
      "chip": "ym2612"
    },
    {
      "channel": 3,
      "note": 74,
      "start": 4.5694,
      "duration": 0.0161,
      "velocity": 100,
      "chip": "ym2612"
    },
    {
      "channel": 2,
      "note": 78,
      "start": 4.5706,
      "duration": 0.0161,
      "velocity": 100,
      "chip": "ym2612"
    },
    {
      "channel": 4,
      "note": 62,
      "start": 4.5717,
      "duration": 0.0161,
      "velocity": 100,
      "chip": "ym2612"
    },
    {
      "channel": 1,
      "note": 74,
      "start": 4.5729,
      "duration": 0.0161,
      "velocity": 83,
      "chip": "ym2612"
    },
    {
      "channel": 0,
      "note": 38,
      "start": 4.5832,
      "duration": 0.0161,
      "velocity": 115,
      "chip": "ym2612"
    },
    {
      "channel": 5,
      "note": 74,
      "start": 4.5844,
      "duration": 0.0161,
      "velocity": 83,
      "chip": "ym2612"
    },
    {
      "channel": 3,
      "note": 74,
      "start": 4.5855,
      "duration": 0.0161,
      "velocity": 100,
      "chip": "ym2612"
    },
    {
      "channel": 2,
      "note": 78,
      "start": 4.5867,
      "duration": 0.0161,
      "velocity": 100,
      "chip": "ym2612"
    },
    {
      "channel": 4,
      "note": 62,
      "start": 4.5878,
      "duration": 0.0161,
      "velocity": 100,
      "chip": "ym2612"
    },
    {
      "channel": 1,
      "note": 74,
      "start": 4.589,
      "duration": 0.0161,
      "velocity": 83,
      "chip": "ym2612"
    },
    {
      "channel": 0,
      "note": 39,
      "start": 4.5993,
      "duration": 0.0161,
      "velocity": 115,
      "chip": "ym2612"
    },
    {
      "channel": 5,
      "note": 74,
      "start": 4.6005,
      "duration": 0.0161,
      "velocity": 83,
      "chip": "ym2612"
    },
    {
      "channel": 3,
      "note": 74,
      "start": 4.6016,
      "duration": 0.0161,
      "velocity": 100,
      "chip": "ym2612"
    },
    {
      "channel": 2,
      "note": 78,
      "start": 4.6027,
      "duration": 0.0162,
      "velocity": 100,
      "chip": "ym2612"
    },
    {
      "channel": 4,
      "note": 62,
      "start": 4.6039,
      "duration": 0.0161,
      "velocity": 100,
      "chip": "ym2612"
    },
    {
      "channel": 1,
      "note": 74,
      "start": 4.6051,
      "duration": 0.0161,
      "velocity": 83,
      "chip": "ym2612"
    },
    {
      "channel": 0,
      "note": 39,
      "start": 4.6154,
      "duration": 0.0161,
      "velocity": 115,
      "chip": "ym2612"
    },
    {
      "channel": 5,
      "note": 74,
      "start": 4.6166,
      "duration": 0.0161,
      "velocity": 83,
      "chip": "ym2612"
    },
    {
      "channel": 3,
      "note": 74,
      "start": 4.6177,
      "duration": 0.0161,
      "velocity": 100,
      "chip": "ym2612"
    },
    {
      "channel": 2,
      "note": 78,
      "start": 4.6189,
      "duration": 0.0161,
      "velocity": 100,
      "chip": "ym2612"
    },
    {
      "channel": 4,
      "note": 62,
      "start": 4.62,
      "duration": 0.0161,
      "velocity": 100,
      "chip": "ym2612"
    },
    {
      "channel": 1,
      "note": 74,
      "start": 4.6212,
      "duration": 0.0161,
      "velocity": 83,
      "chip": "ym2612"
    },
    {
      "channel": 0,
      "note": 40,
      "start": 4.6315,
      "duration": 0.0161,
      "velocity": 115,
      "chip": "ym2612"
    },
    {
      "channel": 5,
      "note": 74,
      "start": 4.6327,
      "duration": 0.0161,
      "velocity": 83,
      "chip": "ym2612"
    },
    {
      "channel": 3,
      "note": 74,
      "start": 4.6339,
      "duration": 0.016,
      "velocity": 100,
      "chip": "ym2612"
    },
    {
      "channel": 2,
      "note": 78,
      "start": 4.635,
      "duration": 0.0161,
      "velocity": 100,
      "chip": "ym2612"
    },
    {
      "channel": 4,
      "note": 62,
      "start": 4.6361,
      "duration": 0.0161,
      "velocity": 100,
      "chip": "ym2612"
    },
    {
      "channel": 1,
      "note": 74,
      "start": 4.6373,
      "duration": 0.0161,
      "velocity": 83,
      "chip": "ym2612"
    },
    {
      "channel": 0,
      "note": 40,
      "start": 4.6475,
      "duration": 0.0162,
      "velocity": 115,
      "chip": "ym2612"
    },
    {
      "channel": 5,
      "note": 74,
      "start": 4.6488,
      "duration": 0.0161,
      "velocity": 83,
      "chip": "ym2612"
    },
    {
      "channel": 3,
      "note": 74,
      "start": 4.6499,
      "duration": 0.0162,
      "velocity": 100,
      "chip": "ym2612"
    },
    {
      "channel": 2,
      "note": 78,
      "start": 4.6511,
      "duration": 0.0162,
      "velocity": 100,
      "chip": "ym2612"
    },
    {
      "channel": 4,
      "note": 62,
      "start": 4.6522,
      "duration": 0.0161,
      "velocity": 100,
      "chip": "ym2612"
    },
    {
      "channel": 1,
      "note": 74,
      "start": 4.6534,
      "duration": 0.0162,
      "velocity": 83,
      "chip": "ym2612"
    },
    {
      "channel": 0,
      "note": 40,
      "start": 4.6637,
      "duration": 0.0161,
      "velocity": 115,
      "chip": "ym2612"
    },
    {
      "channel": 5,
      "note": 74,
      "start": 4.6649,
      "duration": 0.0162,
      "velocity": 83,
      "chip": "ym2612"
    },
    {
      "channel": 3,
      "note": 74,
      "start": 4.6661,
      "duration": 0.0161,
      "velocity": 100,
      "chip": "ym2612"
    },
    {
      "channel": 2,
      "note": 78,
      "start": 4.6673,
      "duration": 0.0161,
      "velocity": 100,
      "chip": "ym2612"
    },
    {
      "channel": 4,
      "note": 62,
      "start": 4.6684,
      "duration": 0.0161,
      "velocity": 100,
      "chip": "ym2612"
    },
    {
      "channel": 1,
      "note": 74,
      "start": 4.6696,
      "duration": 0.0161,
      "velocity": 83,
      "chip": "ym2612"
    },
    {
      "channel": 0,
      "note": 41,
      "start": 4.6798,
      "duration": 0.0164,
      "velocity": 115,
      "chip": "ym2612"
    },
    {
      "channel": 5,
      "note": 74,
      "start": 4.6811,
      "duration": 0.0164,
      "velocity": 83,
      "chip": "ym2612"
    },
    {
      "channel": 3,
      "note": 74,
      "start": 4.6822,
      "duration": 0.0164,
      "velocity": 100,
      "chip": "ym2612"
    },
    {
      "channel": 2,
      "note": 78,
      "start": 4.6834,
      "duration": 0.0164,
      "velocity": 100,
      "chip": "ym2612"
    },
    {
      "channel": 4,
      "note": 62,
      "start": 4.6845,
      "duration": 0.0164,
      "velocity": 100,
      "chip": "ym2612"
    },
    {
      "channel": 1,
      "note": 74,
      "start": 4.6857,
      "duration": 0.0164,
      "velocity": 83,
      "chip": "ym2612"
    },
    {
      "channel": 0,
      "note": 41,
      "start": 4.6963,
      "duration": 0.0163,
      "velocity": 115,
      "chip": "ym2612"
    },
    {
      "channel": 5,
      "note": 74,
      "start": 4.6975,
      "duration": 0.0163,
      "velocity": 83,
      "chip": "ym2612"
    },
    {
      "channel": 3,
      "note": 74,
      "start": 4.6986,
      "duration": 0.0163,
      "velocity": 100,
      "chip": "ym2612"
    },
    {
      "channel": 2,
      "note": 78,
      "start": 4.6998,
      "duration": 0.0163,
      "velocity": 100,
      "chip": "ym2612"
    },
    {
      "channel": 4,
      "note": 62,
      "start": 4.7009,
      "duration": 0.0163,
      "velocity": 100,
      "chip": "ym2612"
    },
    {
      "channel": 1,
      "note": 74,
      "start": 4.7021,
      "duration": 0.0163,
      "velocity": 83,
      "chip": "ym2612"
    },
    {
      "channel": 0,
      "note": 42,
      "start": 4.7125,
      "duration": 0.0161,
      "velocity": 115,
      "chip": "ym2612"
    },
    {
      "channel": 5,
      "note": 74,
      "start": 4.7138,
      "duration": 0.0161,
      "velocity": 83,
      "chip": "ym2612"
    },
    {
      "channel": 4,
      "note": 62,
      "start": 4.7173,
      "duration": 0.017,
      "velocity": 100,
      "chip": "ym2612"
    },
    {
      "channel": 1,
      "note": 74,
      "start": 4.7184,
      "duration": 0.0171,
      "velocity": 83,
      "chip": "ym2612"
    },
    {
      "channel": 0,
      "note": 42,
      "start": 4.7286,
      "duration": 0.016,
      "velocity": 115,
      "chip": "ym2612"
    },
    {
      "channel": 5,
      "note": 74,
      "start": 4.7298,
      "duration": 0.0161,
      "velocity": 83,
      "chip": "ym2612"
    },
    {
      "channel": 3,
      "note": 74,
      "start": 4.7315,
      "duration": 0.0156,
      "velocity": 100,
      "chip": "ym2612"
    },
    {
      "channel": 2,
      "note": 78,
      "start": 4.7331,
      "duration": 0.0153,
      "velocity": 100,
      "chip": "ym2612"
    },
    {
      "channel": 4,
      "note": 62,
      "start": 4.7342,
      "duration": 0.0153,
      "velocity": 100,
      "chip": "ym2612"
    },
    {
      "channel": 1,
      "note": 74,
      "start": 4.7354,
      "duration": 0.0153,
      "velocity": 83,
      "chip": "ym2612"
    },
    {
      "channel": 0,
      "note": 43,
      "start": 4.7447,
      "duration": 0.0158,
      "velocity": 115,
      "chip": "ym2612"
    },
    {
      "channel": 5,
      "note": 74,
      "start": 4.7459,
      "duration": 0.0161,
      "velocity": 83,
      "chip": "ym2612"
    },
    {
      "channel": 3,
      "note": 74,
      "start": 4.7471,
      "duration": 0.016,
      "velocity": 100,
      "chip": "ym2612"
    },
    {
      "channel": 2,
      "note": 78,
      "start": 4.7484,
      "duration": 0.0159,
      "velocity": 100,
      "chip": "ym2612"
    },
    {
      "channel": 4,
      "note": 62,
      "start": 4.7496,
      "duration": 0.016,
      "velocity": 100,
      "chip": "ym2612"
    },
    {
      "channel": 1,
      "note": 74,
      "start": 4.7507,
      "duration": 0.016,
      "velocity": 83,
      "chip": "ym2612"
    },
    {
      "channel": 0,
      "note": 43,
      "start": 4.7605,
      "duration": 0.0159,
      "velocity": 115,
      "chip": "ym2612"
    },
    {
      "channel": 5,
      "note": 74,
      "start": 4.762,
      "duration": 0.0161,
      "velocity": 83,
      "chip": "ym2612"
    },
    {
      "channel": 3,
      "note": 74,
      "start": 4.7632,
      "duration": 0.0162,
      "velocity": 100,
      "chip": "ym2612"
    },
    {
      "channel": 2,
      "note": 78,
      "start": 4.7643,
      "duration": 0.0161,
      "velocity": 100,
      "chip": "ym2612"
    },
    {
      "channel": 4,
      "note": 62,
      "start": 4.7655,
      "duration": 0.0161,
      "velocity": 100,
      "chip": "ym2612"
    },
    {
      "channel": 1,
      "note": 74,
      "start": 4.7668,
      "duration": 0.0161,
      "velocity": 83,
      "chip": "ym2612"
    },
    {
      "channel": 0,
      "note": 44,
      "start": 4.7763,
      "duration": 0.0161,
      "velocity": 115,
      "chip": "ym2612"
    },
    {
      "channel": 5,
      "note": 74,
      "start": 4.7781,
      "duration": 0.0158,
      "velocity": 83,
      "chip": "ym2612"
    },
    {
      "channel": 3,
      "note": 74,
      "start": 4.7793,
      "duration": 0.0161,
      "velocity": 100,
      "chip": "ym2612"
    },
    {
      "channel": 2,
      "note": 78,
      "start": 4.7805,
      "duration": 0.0161,
      "velocity": 100,
      "chip": "ym2612"
    },
    {
      "channel": 4,
      "note": 62,
      "start": 4.7816,
      "duration": 0.0162,
      "velocity": 100,
      "chip": "ym2612"
    },
    {
      "channel": 1,
      "note": 74,
      "start": 4.7828,
      "duration": 0.0162,
      "velocity": 83,
      "chip": "ym2612"
    },
    {
      "channel": 0,
      "note": 44,
      "start": 4.7924,
      "duration": 0.0161,
      "velocity": 115,
      "chip": "ym2612"
    },
    {
      "channel": 5,
      "note": 74,
      "start": 4.7939,
      "duration": 0.0159,
      "velocity": 83,
      "chip": "ym2612"
    },
    {
      "channel": 3,
      "note": 74,
      "start": 4.7954,
      "duration": 0.016,
      "velocity": 100,
      "chip": "ym2612"
    },
    {
      "channel": 2,
      "note": 78,
      "start": 4.7966,
      "duration": 0.0161,
      "velocity": 100,
      "chip": "ym2612"
    },
    {
      "channel": 4,
      "note": 62,
      "start": 4.7978,
      "duration": 0.0161,
      "velocity": 100,
      "chip": "ym2612"
    },
    {
      "channel": 1,
      "note": 74,
      "start": 4.799,
      "duration": 0.0161,
      "velocity": 83,
      "chip": "ym2612"
    },
    {
      "channel": 0,
      "note": 44,
      "start": 4.8085,
      "duration": 0.0161,
      "velocity": 115,
      "chip": "ym2612"
    },
    {
      "channel": 5,
      "note": 74,
      "start": 4.8098,
      "duration": 0.0162,
      "velocity": 83,
      "chip": "ym2612"
    },
    {
      "channel": 3,
      "note": 74,
      "start": 4.8115,
      "duration": 0.0158,
      "velocity": 100,
      "chip": "ym2612"
    },
    {
      "channel": 2,
      "note": 78,
      "start": 4.8127,
      "duration": 0.0161,
      "velocity": 100,
      "chip": "ym2612"
    },
    {
      "channel": 4,
      "note": 62,
      "start": 4.8139,
      "duration": 0.0162,
      "velocity": 100,
      "chip": "ym2612"
    },
    {
      "channel": 0,
      "note": 45,
      "start": 4.8246,
      "duration": 0.018,
      "velocity": 115,
      "chip": "ym2612"
    },
    {
      "channel": 5,
      "note": 74,
      "start": 4.8259,
      "duration": 0.0181,
      "velocity": 83,
      "chip": "ym2612"
    },
    {
      "channel": 3,
      "note": 74,
      "start": 4.8272,
      "duration": 0.0183,
      "velocity": 100,
      "chip": "ym2612"
    },
    {
      "channel": 2,
      "note": 78,
      "start": 4.8288,
      "duration": 0.0179,
      "velocity": 100,
      "chip": "ym2612"
    },
    {
      "channel": 4,
      "note": 62,
      "start": 4.83,
      "duration": 0.0181,
      "velocity": 100,
      "chip": "ym2612"
    },
    {
      "channel": 0,
      "note": 36,
      "start": 4.8426,
      "duration": 0.0143,
      "velocity": 115,
      "chip": "ym2612"
    },
    {
      "channel": 5,
      "note": 74,
      "start": 4.844,
      "duration": 0.0141,
      "velocity": 83,
      "chip": "ym2612"
    },
    {
      "channel": 3,
      "note": 74,
      "start": 4.8456,
      "duration": 0.0137,
      "velocity": 100,
      "chip": "ym2612"
    },
    {
      "channel": 2,
      "note": 78,
      "start": 4.8467,
      "duration": 0.0139,
      "velocity": 100,
      "chip": "ym2612"
    },
    {
      "channel": 4,
      "note": 57,
      "start": 4.8482,
      "duration": 0.0141,
      "velocity": 100,
      "chip": "ym2612"
    },
    {
      "channel": 1,
      "note": 69,
      "start": 4.8497,
      "duration": 0.0138,
      "velocity": 83,
      "chip": "ym2612"
    },
    {
      "channel": 0,
      "note": 36,
      "start": 4.857,
      "duration": 0.016,
      "velocity": 115,
      "chip": "ym2612"
    },
    {
      "channel": 5,
      "note": 74,
      "start": 4.8581,
      "duration": 0.0161,
      "velocity": 83,
      "chip": "ym2612"
    },
    {
      "channel": 3,
      "note": 74,
      "start": 4.8593,
      "duration": 0.016,
      "velocity": 100,
      "chip": "ym2612"
    },
    {
      "channel": 2,
      "note": 78,
      "start": 4.8606,
      "duration": 0.0159,
      "velocity": 100,
      "chip": "ym2612"
    },
    {
      "channel": 4,
      "note": 57,
      "start": 4.8622,
      "duration": 0.016,
      "velocity": 100,
      "chip": "ym2612"
    },
    {
      "channel": 1,
      "note": 69,
      "start": 4.8635,
      "duration": 0.0159,
      "velocity": 83,
      "chip": "ym2612"
    },
    {
      "channel": 0,
      "note": 37,
      "start": 4.873,
      "duration": 0.0161,
      "velocity": 115,
      "chip": "ym2612"
    },
    {
      "channel": 3,
      "note": 74,
      "start": 4.8753,
      "duration": 0.0161,
      "velocity": 100,
      "chip": "ym2612"
    },
    {
      "channel": 2,
      "note": 78,
      "start": 4.8765,
      "duration": 0.0161,
      "velocity": 100,
      "chip": "ym2612"
    },
    {
      "channel": 4,
      "note": 57,
      "start": 4.8782,
      "duration": 0.0157,
      "velocity": 100,
      "chip": "ym2612"
    },
    {
      "channel": 1,
      "note": 69,
      "start": 4.8794,
      "duration": 0.0161,
      "velocity": 83,
      "chip": "ym2612"
    },
    {
      "channel": 0,
      "note": 37,
      "start": 4.8891,
      "duration": 0.0161,
      "velocity": 115,
      "chip": "ym2612"
    },
    {
      "channel": 3,
      "note": 74,
      "start": 4.8914,
      "duration": 0.0164,
      "velocity": 100,
      "chip": "ym2612"
    },
    {
      "channel": 2,
      "note": 78,
      "start": 4.8926,
      "duration": 0.0164,
      "velocity": 100,
      "chip": "ym2612"
    },
    {
      "channel": 4,
      "note": 57,
      "start": 4.8939,
      "duration": 0.0163,
      "velocity": 100,
      "chip": "ym2612"
    },
    {
      "channel": 1,
      "note": 69,
      "start": 4.8955,
      "duration": 0.0165,
      "velocity": 83,
      "chip": "ym2612"
    },
    {
      "channel": 0,
      "note": 38,
      "start": 4.9052,
      "duration": 0.0161,
      "velocity": 115,
      "chip": "ym2612"
    },
    {
      "channel": 5,
      "note": 69,
      "start": 4.9067,
      "duration": 0.0159,
      "velocity": 83,
      "chip": "ym2612"
    },
    {
      "channel": 3,
      "note": 74,
      "start": 4.9078,
      "duration": 0.0158,
      "velocity": 100,
      "chip": "ym2612"
    },
    {
      "channel": 2,
      "note": 78,
      "start": 4.909,
      "duration": 0.0159,
      "velocity": 100,
      "chip": "ym2612"
    },
    {
      "channel": 4,
      "note": 57,
      "start": 4.9102,
      "duration": 0.0158,
      "velocity": 100,
      "chip": "ym2612"
    },
    {
      "channel": 1,
      "note": 69,
      "start": 4.912,
      "duration": 0.0158,
      "velocity": 83,
      "chip": "ym2612"
    },
    {
      "channel": 0,
      "note": 38,
      "start": 4.9213,
      "duration": 0.0161,
      "velocity": 115,
      "chip": "ym2612"
    },
    {
      "channel": 5,
      "note": 69,
      "start": 4.9225,
      "duration": 0.016,
      "velocity": 83,
      "chip": "ym2612"
    },
    {
      "channel": 3,
      "note": 74,
      "start": 4.9237,
      "duration": 0.016,
      "velocity": 100,
      "chip": "ym2612"
    },
    {
      "channel": 2,
      "note": 78,
      "start": 4.9249,
      "duration": 0.016,
      "velocity": 100,
      "chip": "ym2612"
    },
    {
      "channel": 4,
      "note": 57,
      "start": 4.926,
      "duration": 0.016,
      "velocity": 100,
      "chip": "ym2612"
    },
    {
      "channel": 0,
      "note": 39,
      "start": 4.9373,
      "duration": 0.018,
      "velocity": 124,
      "chip": "ym2612"
    },
    {
      "channel": 5,
      "note": 69,
      "start": 4.9386,
      "duration": 0.018,
      "velocity": 83,
      "chip": "ym2612"
    },
    {
      "channel": 4,
      "note": 57,
      "start": 4.9421,
      "duration": 0.0191,
      "velocity": 100,
      "chip": "ym2612"
    },
    {
      "channel": 0,
      "note": 84,
      "start": 4.9554,
      "duration": 0.0143,
      "velocity": 124,
      "chip": "ym2612"
    },
    {
      "channel": 5,
      "note": 69,
      "start": 4.9566,
      "duration": 0.0142,
      "velocity": 83,
      "chip": "ym2612"
    },
    {
      "channel": 3,
      "note": 74,
      "start": 4.958,
      "duration": 0.014,
      "velocity": 100,
      "chip": "ym2612"
    },
    {
      "channel": 2,
      "note": 78,
      "start": 4.9595,
      "duration": 0.0138,
      "velocity": 100,
      "chip": "ym2612"
    },
    {
      "channel": 4,
      "note": 57,
      "start": 4.9612,
      "duration": 0.0132,
      "velocity": 100,
      "chip": "ym2612"
    },
    {
      "channel": 1,
      "note": 71,
      "start": 4.9627,
      "duration": 0.013,
      "velocity": 83,
      "chip": "ym2612"
    },
    {
      "channel": 0,
      "note": 82,
      "start": 4.9696,
      "duration": 0.0161,
      "velocity": 124,
      "chip": "ym2612"
    },
    {
      "channel": 5,
      "note": 69,
      "start": 4.9708,
      "duration": 0.0161,
      "velocity": 83,
      "chip": "ym2612"
    },
    {
      "channel": 3,
      "note": 74,
      "start": 4.972,
      "duration": 0.016,
      "velocity": 100,
      "chip": "ym2612"
    },
    {
      "channel": 2,
      "note": 78,
      "start": 4.9733,
      "duration": 0.0159,
      "velocity": 100,
      "chip": "ym2612"
    },
    {
      "channel": 4,
      "note": 57,
      "start": 4.9744,
      "duration": 0.0159,
      "velocity": 100,
      "chip": "ym2612"
    },
    {
      "channel": 1,
      "note": 71,
      "start": 4.9757,
      "duration": 0.0159,
      "velocity": 83,
      "chip": "ym2612"
    },
    {
      "channel": 0,
      "note": 80,
      "start": 4.9857,
      "duration": 0.0161,
      "velocity": 124,
      "chip": "ym2612"
    },
    {
      "channel": 3,
      "note": 74,
      "start": 4.988,
      "duration": 0.0161,
      "velocity": 100,
      "chip": "ym2612"
    },
    {
      "channel": 2,
      "note": 78,
      "start": 4.9892,
      "duration": 0.0161,
      "velocity": 100,
      "chip": "ym2612"
    },
    {
      "channel": 4,
      "note": 57,
      "start": 4.9903,
      "duration": 0.0161,
      "velocity": 100,
      "chip": "ym2612"
    },
    {
      "channel": 1,
      "note": 71,
      "start": 4.9916,
      "duration": 0.0161,
      "velocity": 83,
      "chip": "ym2612"
    },
    {
      "channel": 0,
      "note": 77,
      "start": 5.0018,
      "duration": 0.0161,
      "velocity": 124,
      "chip": "ym2612"
    },
    {
      "channel": 3,
      "note": 74,
      "start": 5.0041,
      "duration": 0.0163,
      "velocity": 100,
      "chip": "ym2612"
    },
    {
      "channel": 2,
      "note": 78,
      "start": 5.0053,
      "duration": 0.0164,
      "velocity": 100,
      "chip": "ym2612"
    },
    {
      "channel": 4,
      "note": 57,
      "start": 5.0064,
      "duration": 0.0164,
      "velocity": 100,
      "chip": "ym2612"
    },
    {
      "channel": 1,
      "note": 71,
      "start": 5.0076,
      "duration": 0.0163,
      "velocity": 83,
      "chip": "ym2612"
    },
    {
      "channel": 0,
      "note": 75,
      "start": 5.0179,
      "duration": 0.0161,
      "velocity": 124,
      "chip": "ym2612"
    },
    {
      "channel": 5,
      "note": 71,
      "start": 5.0194,
      "duration": 0.0159,
      "velocity": 83,
      "chip": "ym2612"
    },
    {
      "channel": 3,
      "note": 74,
      "start": 5.0205,
      "duration": 0.0159,
      "velocity": 100,
      "chip": "ym2612"
    },
    {
      "channel": 2,
      "note": 78,
      "start": 5.0217,
      "duration": 0.0159,
      "velocity": 100,
      "chip": "ym2612"
    },
    {
      "channel": 4,
      "note": 57,
      "start": 5.0229,
      "duration": 0.0158,
      "velocity": 100,
      "chip": "ym2612"
    },
    {
      "channel": 1,
      "note": 71,
      "start": 5.024,
      "duration": 0.0159,
      "velocity": 83,
      "chip": "ym2612"
    },
    {
      "channel": 0,
      "note": 72,
      "start": 5.034,
      "duration": 0.0161,
      "velocity": 124,
      "chip": "ym2612"
    },
    {
      "channel": 5,
      "note": 71,
      "start": 5.0353,
      "duration": 0.016,
      "velocity": 83,
      "chip": "ym2612"
    },
    {
      "channel": 3,
      "note": 74,
      "start": 5.0364,
      "duration": 0.016,
      "velocity": 100,
      "chip": "ym2612"
    },
    {
      "channel": 2,
      "note": 78,
      "start": 5.0376,
      "duration": 0.016,
      "velocity": 100,
      "chip": "ym2612"
    },
    {
      "channel": 4,
      "note": 57,
      "start": 5.0387,
      "duration": 0.016,
      "velocity": 100,
      "chip": "ym2612"
    },
    {
      "channel": 0,
      "note": 70,
      "start": 5.0501,
      "duration": 0.0161,
      "velocity": 124,
      "chip": "ym2612"
    },
    {
      "channel": 5,
      "note": 71,
      "start": 5.0513,
      "duration": 0.0161,
      "velocity": 83,
      "chip": "ym2612"
    },
    {
      "channel": 3,
      "note": 74,
      "start": 5.0524,
      "duration": 0.0161,
      "velocity": 100,
      "chip": "ym2612"
    },
    {
      "channel": 2,
      "note": 78,
      "start": 5.0536,
      "duration": 0.0161,
      "velocity": 100,
      "chip": "ym2612"
    },
    {
      "channel": 4,
      "note": 57,
      "start": 5.0547,
      "duration": 0.0162,
      "velocity": 100,
      "chip": "ym2612"
    },
    {
      "channel": 0,
      "note": 68,
      "start": 5.0662,
      "duration": 0.0161,
      "velocity": 124,
      "chip": "ym2612"
    },
    {
      "channel": 5,
      "note": 71,
      "start": 5.0674,
      "duration": 0.0161,
      "velocity": 83,
      "chip": "ym2612"
    },
    {
      "channel": 3,
      "note": 74,
      "start": 5.0685,
      "duration": 0.0161,
      "velocity": 100,
      "chip": "ym2612"
    },
    {
      "channel": 2,
      "note": 78,
      "start": 5.0697,
      "duration": 0.0161,
      "velocity": 100,
      "chip": "ym2612"
    },
    {
      "channel": 4,
      "note": 57,
      "start": 5.0709,
      "duration": 0.0161,
      "velocity": 100,
      "chip": "ym2612"
    },
    {
      "channel": 1,
      "note": 69,
      "start": 5.0723,
      "duration": 0.0159,
      "velocity": 83,
      "chip": "ym2612"
    },
    {
      "channel": 0,
      "note": 65,
      "start": 5.0823,
      "duration": 0.0161,
      "velocity": 124,
      "chip": "ym2612"
    },
    {
      "channel": 5,
      "note": 71,
      "start": 5.0835,
      "duration": 0.0161,
      "velocity": 83,
      "chip": "ym2612"
    },
    {
      "channel": 3,
      "note": 74,
      "start": 5.0846,
      "duration": 0.0161,
      "velocity": 100,
      "chip": "ym2612"
    },
    {
      "channel": 2,
      "note": 78,
      "start": 5.0858,
      "duration": 0.0161,
      "velocity": 100,
      "chip": "ym2612"
    },
    {
      "channel": 4,
      "note": 57,
      "start": 5.087,
      "duration": 0.0161,
      "velocity": 100,
      "chip": "ym2612"
    },
    {
      "channel": 1,
      "note": 69,
      "start": 5.0883,
      "duration": 0.016,
      "velocity": 83,
      "chip": "ym2612"
    },
    {
      "channel": 0,
      "note": 63,
      "start": 5.0984,
      "duration": 0.0153,
      "velocity": 1,
      "chip": "ym2612"
    },
    {
      "channel": 3,
      "note": 74,
      "start": 5.1007,
      "duration": 0.0153,
      "velocity": 100,
      "chip": "ym2612"
    },
    {
      "channel": 2,
      "note": 78,
      "start": 5.1019,
      "duration": 0.0153,
      "velocity": 100,
      "chip": "ym2612"
    },
    {
      "channel": 4,
      "note": 57,
      "start": 5.1031,
      "duration": 0.0153,
      "velocity": 100,
      "chip": "ym2612"
    },
    {
      "channel": 1,
      "note": 69,
      "start": 5.1042,
      "duration": 0.0153,
      "velocity": 83,
      "chip": "ym2612"
    },
    {
      "channel": 3,
      "note": 74,
      "start": 5.1161,
      "duration": 0.0155,
      "velocity": 100,
      "chip": "ym2612"
    },
    {
      "channel": 2,
      "note": 78,
      "start": 5.1172,
      "duration": 0.0155,
      "velocity": 100,
      "chip": "ym2612"
    },
    {
      "channel": 4,
      "note": 57,
      "start": 5.1183,
      "duration": 0.0156,
      "velocity": 100,
      "chip": "ym2612"
    },
    {
      "channel": 1,
      "note": 69,
      "start": 5.1195,
      "duration": 0.0156,
      "velocity": 83,
      "chip": "ym2612"
    },
    {
      "channel": 5,
      "note": 69,
      "start": 5.1304,
      "duration": 0.0159,
      "velocity": 83,
      "chip": "ym2612"
    },
    {
      "channel": 3,
      "note": 74,
      "start": 5.1316,
      "duration": 0.0159,
      "velocity": 100,
      "chip": "ym2612"
    },
    {
      "channel": 2,
      "note": 78,
      "start": 5.1327,
      "duration": 0.0159,
      "velocity": 100,
      "chip": "ym2612"
    },
    {
      "channel": 4,
      "note": 57,
      "start": 5.1339,
      "duration": 0.0159,
      "velocity": 100,
      "chip": "ym2612"
    },
    {
      "channel": 1,
      "note": 69,
      "start": 5.1351,
      "duration": 0.0159,
      "velocity": 83,
      "chip": "ym2612"
    },
    {
      "channel": 5,
      "note": 69,
      "start": 5.1463,
      "duration": 0.0162,
      "velocity": 83,
      "chip": "ym2612"
    },
    {
      "channel": 3,
      "note": 74,
      "start": 5.1475,
      "duration": 0.0163,
      "velocity": 100,
      "chip": "ym2612"
    },
    {
      "channel": 2,
      "note": 78,
      "start": 5.1486,
      "duration": 0.0163,
      "velocity": 100,
      "chip": "ym2612"
    },
    {
      "channel": 4,
      "note": 57,
      "start": 5.1498,
      "duration": 0.0163,
      "velocity": 100,
      "chip": "ym2612"
    },
    {
      "channel": 5,
      "note": 69,
      "start": 5.1625,
      "duration": 0.0163,
      "velocity": 83,
      "chip": "ym2612"
    },
    {
      "channel": 4,
      "note": 57,
      "start": 5.1661,
      "duration": 0.0173,
      "velocity": 100,
      "chip": "ym2612"
    },
    {
      "channel": 5,
      "note": 69,
      "start": 5.1789,
      "duration": 0.0162,
      "velocity": 83,
      "chip": "ym2612"
    },
    {
      "channel": 3,
      "note": 74,
      "start": 5.1804,
      "duration": 0.0159,
      "velocity": 100,
      "chip": "ym2612"
    },
    {
      "channel": 2,
      "note": 78,
      "start": 5.182,
      "duration": 0.0155,
      "velocity": 100,
      "chip": "ym2612"
    },
    {
      "channel": 4,
      "note": 62,
      "start": 5.1835,
      "duration": 0.0153,
      "velocity": 100,
      "chip": "ym2612"
    },
    {
      "channel": 1,
      "note": 71,
      "start": 5.185,
      "duration": 0.015,
      "velocity": 83,
      "chip": "ym2612"
    },
    {
      "channel": 5,
      "note": 69,
      "start": 5.1951,
      "duration": 0.016,
      "velocity": 83,
      "chip": "ym2612"
    },
    {
      "channel": 3,
      "note": 74,
      "start": 5.1963,
      "duration": 0.016,
      "velocity": 100,
      "chip": "ym2612"
    },
    {
      "channel": 2,
      "note": 78,
      "start": 5.1975,
      "duration": 0.016,
      "velocity": 100,
      "chip": "ym2612"
    },
    {
      "channel": 4,
      "note": 62,
      "start": 5.1988,
      "duration": 0.016,
      "velocity": 100,
      "chip": "ym2612"
    },
    {
      "channel": 1,
      "note": 71,
      "start": 5.2,
      "duration": 0.0158,
      "velocity": 83,
      "chip": "ym2612"
    },
    {
      "channel": 3,
      "note": 74,
      "start": 5.2124,
      "duration": 0.016,
      "velocity": 100,
      "chip": "ym2612"
    },
    {
      "channel": 2,
      "note": 78,
      "start": 5.2136,
      "duration": 0.016,
      "velocity": 100,
      "chip": "ym2612"
    },
    {
      "channel": 4,
      "note": 62,
      "start": 5.2147,
      "duration": 0.0161,
      "velocity": 100,
      "chip": "ym2612"
    },
    {
      "channel": 1,
      "note": 71,
      "start": 5.2159,
      "duration": 0.0161,
      "velocity": 83,
      "chip": "ym2612"
    },
    {
      "channel": 3,
      "note": 74,
      "start": 5.2284,
      "duration": 0.0164,
      "velocity": 100,
      "chip": "ym2612"
    },
    {
      "channel": 2,
      "note": 78,
      "start": 5.2296,
      "duration": 0.0164,
      "velocity": 100,
      "chip": "ym2612"
    },
    {
      "channel": 4,
      "note": 62,
      "start": 5.2308,
      "duration": 0.0163,
      "velocity": 100,
      "chip": "ym2612"
    },
    {
      "channel": 1,
      "note": 71,
      "start": 5.232,
      "duration": 0.0164,
      "velocity": 83,
      "chip": "ym2612"
    },
    {
      "channel": 5,
      "note": 71,
      "start": 5.2431,
      "duration": 0.0159,
      "velocity": 83,
      "chip": "ym2612"
    },
    {
      "channel": 3,
      "note": 74,
      "start": 5.2448,
      "duration": 0.0155,
      "velocity": 100,
      "chip": "ym2612"
    },
    {
      "channel": 2,
      "note": 78,
      "start": 5.246,
      "duration": 0.0159,
      "velocity": 100,
      "chip": "ym2612"
    },
    {
      "channel": 4,
      "note": 62,
      "start": 5.2471,
      "duration": 0.0159,
      "velocity": 100,
      "chip": "ym2612"
    },
    {
      "channel": 1,
      "note": 71,
      "start": 5.2484,
      "duration": 0.0158,
      "velocity": 83,
      "chip": "ym2612"
    },
    {
      "channel": 5,
      "note": 71,
      "start": 5.259,
      "duration": 0.016,
      "velocity": 83,
      "chip": "ym2612"
    },
    {
      "channel": 3,
      "note": 74,
      "start": 5.2603,
      "duration": 0.0159,
      "velocity": 100,
      "chip": "ym2612"
    },
    {
      "channel": 2,
      "note": 78,
      "start": 5.2619,
      "duration": 0.016,
      "velocity": 100,
      "chip": "ym2612"
    },
    {
      "channel": 4,
      "note": 62,
      "start": 5.263,
      "duration": 0.0161,
      "velocity": 100,
      "chip": "ym2612"
    },
    {
      "channel": 5,
      "note": 71,
      "start": 5.275,
      "duration": 0.0161,
      "velocity": 83,
      "chip": "ym2612"
    },
    {
      "channel": 3,
      "note": 74,
      "start": 5.2762,
      "duration": 0.0161,
      "velocity": 100,
      "chip": "ym2612"
    },
    {
      "channel": 2,
      "note": 78,
      "start": 5.2779,
      "duration": 0.0158,
      "velocity": 100,
      "chip": "ym2612"
    },
    {
      "channel": 4,
      "note": 62,
      "start": 5.2791,
      "duration": 0.0161,
      "velocity": 100,
      "chip": "ym2612"
    },
    {
      "channel": 5,
      "note": 71,
      "start": 5.2911,
      "duration": 0.0161,
      "velocity": 83,
      "chip": "ym2612"
    },
    {
      "channel": 3,
      "note": 74,
      "start": 5.2922,
      "duration": 0.0161,
      "velocity": 100,
      "chip": "ym2612"
    },
    {
      "channel": 2,
      "note": 78,
      "start": 5.2937,
      "duration": 0.0159,
      "velocity": 100,
      "chip": "ym2612"
    },
    {
      "channel": 4,
      "note": 62,
      "start": 5.2952,
      "duration": 0.016,
      "velocity": 100,
      "chip": "ym2612"
    },
    {
      "channel": 1,
      "note": 74,
      "start": 5.2966,
      "duration": 0.0159,
      "velocity": 83,
      "chip": "ym2612"
    },
    {
      "channel": 5,
      "note": 71,
      "start": 5.3072,
      "duration": 0.0161,
      "velocity": 83,
      "chip": "ym2612"
    },
    {
      "channel": 3,
      "note": 74,
      "start": 5.3083,
      "duration": 0.0162,
      "velocity": 100,
      "chip": "ym2612"
    },
    {
      "channel": 2,
      "note": 78,
      "start": 5.3096,
      "duration": 0.0161,
      "velocity": 100,
      "chip": "ym2612"
    },
    {
      "channel": 4,
      "note": 62,
      "start": 5.3112,
      "duration": 0.0158,
      "velocity": 100,
      "chip": "ym2612"
    },
    {
      "channel": 1,
      "note": 74,
      "start": 5.3125,
      "duration": 0.016,
      "velocity": 83,
      "chip": "ym2612"
    },
    {
      "channel": 3,
      "note": 74,
      "start": 5.3245,
      "duration": 0.0161,
      "velocity": 100,
      "chip": "ym2612"
    },
    {
      "channel": 2,
      "note": 78,
      "start": 5.3256,
      "duration": 0.0161,
      "velocity": 100,
      "chip": "ym2612"
    },
    {
      "channel": 4,
      "note": 62,
      "start": 5.327,
      "duration": 0.0159,
      "velocity": 100,
      "chip": "ym2612"
    },
    {
      "channel": 1,
      "note": 74,
      "start": 5.3286,
      "duration": 0.016,
      "velocity": 83,
      "chip": "ym2612"
    },
    {
      "channel": 3,
      "note": 74,
      "start": 5.3406,
      "duration": 0.0163,
      "velocity": 100,
      "chip": "ym2612"
    },
    {
      "channel": 2,
      "note": 78,
      "start": 5.3417,
      "duration": 0.0164,
      "velocity": 100,
      "chip": "ym2612"
    },
    {
      "channel": 4,
      "note": 62,
      "start": 5.3429,
      "duration": 0.0164,
      "velocity": 100,
      "chip": "ym2612"
    },
    {
      "channel": 1,
      "note": 74,
      "start": 5.3446,
      "duration": 0.0164,
      "velocity": 83,
      "chip": "ym2612"
    },
    {
      "channel": 5,
      "note": 74,
      "start": 5.3558,
      "duration": 0.0159,
      "velocity": 83,
      "chip": "ym2612"
    },
    {
      "channel": 3,
      "note": 74,
      "start": 5.357,
      "duration": 0.0159,
      "velocity": 100,
      "chip": "ym2612"
    },
    {
      "channel": 2,
      "note": 78,
      "start": 5.3582,
      "duration": 0.0158,
      "velocity": 100,
      "chip": "ym2612"
    },
    {
      "channel": 4,
      "note": 62,
      "start": 5.3593,
      "duration": 0.0159,
      "velocity": 100,
      "chip": "ym2612"
    },
    {
      "channel": 1,
      "note": 74,
      "start": 5.361,
      "duration": 0.0153,
      "velocity": 83,
      "chip": "ym2612"
    },
    {
      "channel": 5,
      "note": 74,
      "start": 5.3717,
      "duration": 0.016,
      "velocity": 83,
      "chip": "ym2612"
    },
    {
      "channel": 3,
      "note": 74,
      "start": 5.3729,
      "duration": 0.016,
      "velocity": 100,
      "chip": "ym2612"
    },
    {
      "channel": 2,
      "note": 78,
      "start": 5.374,
      "duration": 0.016,
      "velocity": 100,
      "chip": "ym2612"
    },
    {
      "channel": 4,
      "note": 62,
      "start": 5.3751,
      "duration": 0.0161,
      "velocity": 100,
      "chip": "ym2612"
    },
    {
      "channel": 5,
      "note": 74,
      "start": 5.3877,
      "duration": 0.0197,
      "velocity": 83,
      "chip": "ym2612"
    },
    {
      "channel": 4,
      "note": 62,
      "start": 5.3912,
      "duration": 0.0211,
      "velocity": 100,
      "chip": "ym2612"
    },
    {
      "channel": 0,
      "note": 36,
      "start": 5.4062,
      "duration": 0.0143,
      "velocity": 115,
      "chip": "ym2612"
    },
    {
      "channel": 5,
      "note": 74,
      "start": 5.4074,
      "duration": 0.0143,
      "velocity": 83,
      "chip": "ym2612"
    },
    {
      "channel": 3,
      "note": 74,
      "start": 5.4089,
      "duration": 0.0141,
      "velocity": 100,
      "chip": "ym2612"
    },
    {
      "channel": 2,
      "note": 78,
      "start": 5.4106,
      "duration": 0.0136,
      "velocity": 100,
      "chip": "ym2612"
    },
    {
      "channel": 4,
      "note": 59,
      "start": 5.4124,
      "duration": 0.0129,
      "velocity": 100,
      "chip": "ym2612"
    },
    {
      "channel": 1,
      "note": 76,
      "start": 5.4139,
      "duration": 0.0127,
      "velocity": 83,
      "chip": "ym2612"
    },
    {
      "channel": 0,
      "note": 36,
      "start": 5.4205,
      "duration": 0.016,
      "velocity": 115,
      "chip": "ym2612"
    },
    {
      "channel": 5,
      "note": 74,
      "start": 5.4217,
      "duration": 0.016,
      "velocity": 83,
      "chip": "ym2612"
    },
    {
      "channel": 3,
      "note": 74,
      "start": 5.4229,
      "duration": 0.016,
      "velocity": 100,
      "chip": "ym2612"
    },
    {
      "channel": 2,
      "note": 78,
      "start": 5.4241,
      "duration": 0.0159,
      "velocity": 100,
      "chip": "ym2612"
    },
    {
      "channel": 4,
      "note": 59,
      "start": 5.4253,
      "duration": 0.0159,
      "velocity": 100,
      "chip": "ym2612"
    },
    {
      "channel": 1,
      "note": 76,
      "start": 5.4266,
      "duration": 0.0158,
      "velocity": 83,
      "chip": "ym2612"
    },
    {
      "channel": 0,
      "note": 37,
      "start": 5.4365,
      "duration": 0.0161,
      "velocity": 115,
      "chip": "ym2612"
    },
    {
      "channel": 3,
      "note": 74,
      "start": 5.4389,
      "duration": 0.0161,
      "velocity": 100,
      "chip": "ym2612"
    },
    {
      "channel": 2,
      "note": 78,
      "start": 5.44,
      "duration": 0.0161,
      "velocity": 100,
      "chip": "ym2612"
    },
    {
      "channel": 4,
      "note": 59,
      "start": 5.4412,
      "duration": 0.0161,
      "velocity": 100,
      "chip": "ym2612"
    },
    {
      "channel": 1,
      "note": 76,
      "start": 5.4424,
      "duration": 0.0161,
      "velocity": 83,
      "chip": "ym2612"
    },
    {
      "channel": 0,
      "note": 37,
      "start": 5.4526,
      "duration": 0.0161,
      "velocity": 115,
      "chip": "ym2612"
    },
    {
      "channel": 3,
      "note": 74,
      "start": 5.455,
      "duration": 0.0164,
      "velocity": 100,
      "chip": "ym2612"
    },
    {
      "channel": 2,
      "note": 78,
      "start": 5.4561,
      "duration": 0.0164,
      "velocity": 100,
      "chip": "ym2612"
    },
    {
      "channel": 4,
      "note": 59,
      "start": 5.4573,
      "duration": 0.0165,
      "velocity": 100,
      "chip": "ym2612"
    },
    {
      "channel": 1,
      "note": 76,
      "start": 5.4585,
      "duration": 0.0164,
      "velocity": 83,
      "chip": "ym2612"
    },
    {
      "channel": 0,
      "note": 38,
      "start": 5.4687,
      "duration": 0.0161,
      "velocity": 115,
      "chip": "ym2612"
    },
    {
      "channel": 5,
      "note": 76,
      "start": 5.4702,
      "duration": 0.0158,
      "velocity": 83,
      "chip": "ym2612"
    },
    {
      "channel": 3,
      "note": 74,
      "start": 5.4714,
      "duration": 0.0159,
      "velocity": 100,
      "chip": "ym2612"
    },
    {
      "channel": 2,
      "note": 78,
      "start": 5.4725,
      "duration": 0.0158,
      "velocity": 100,
      "chip": "ym2612"
    },
    {
      "channel": 4,
      "note": 59,
      "start": 5.4737,
      "duration": 0.0158,
      "velocity": 100,
      "chip": "ym2612"
    },
    {
      "channel": 1,
      "note": 76,
      "start": 5.4749,
      "duration": 0.0158,
      "velocity": 83,
      "chip": "ym2612"
    },
    {
      "channel": 0,
      "note": 38,
      "start": 5.4848,
      "duration": 0.0161,
      "velocity": 115,
      "chip": "ym2612"
    },
    {
      "channel": 5,
      "note": 76,
      "start": 5.4861,
      "duration": 0.016,
      "velocity": 83,
      "chip": "ym2612"
    },
    {
      "channel": 3,
      "note": 74,
      "start": 5.4872,
      "duration": 0.016,
      "velocity": 100,
      "chip": "ym2612"
    },
    {
      "channel": 2,
      "note": 78,
      "start": 5.4884,
      "duration": 0.016,
      "velocity": 100,
      "chip": "ym2612"
    },
    {
      "channel": 4,
      "note": 59,
      "start": 5.4895,
      "duration": 0.016,
      "velocity": 100,
      "chip": "ym2612"
    },
    {
      "channel": 1,
      "note": 76,
      "start": 5.4907,
      "duration": 0.016,
      "velocity": 83,
      "chip": "ym2612"
    },
    {
      "channel": 0,
      "note": 39,
      "start": 5.5009,
      "duration": 0.0161,
      "velocity": 115,
      "chip": "ym2612"
    },
    {
      "channel": 5,
      "note": 76,
      "start": 5.5021,
      "duration": 0.0161,
      "velocity": 83,
      "chip": "ym2612"
    },
    {
      "channel": 3,
      "note": 74,
      "start": 5.5033,
      "duration": 0.0161,
      "velocity": 100,
      "chip": "ym2612"
    },
    {
      "channel": 2,
      "note": 78,
      "start": 5.5044,
      "duration": 0.0162,
      "velocity": 100,
      "chip": "ym2612"
    },
    {
      "channel": 4,
      "note": 59,
      "start": 5.5056,
      "duration": 0.0161,
      "velocity": 100,
      "chip": "ym2612"
    },
    {
      "channel": 1,
      "note": 76,
      "start": 5.5068,
      "duration": 0.0161,
      "velocity": 83,
      "chip": "ym2612"
    },
    {
      "channel": 0,
      "note": 39,
      "start": 5.517,
      "duration": 0.0161,
      "velocity": 115,
      "chip": "ym2612"
    },
    {
      "channel": 5,
      "note": 76,
      "start": 5.5182,
      "duration": 0.0161,
      "velocity": 83,
      "chip": "ym2612"
    },
    {
      "channel": 3,
      "note": 74,
      "start": 5.5194,
      "duration": 0.0161,
      "velocity": 100,
      "chip": "ym2612"
    },
    {
      "channel": 2,
      "note": 78,
      "start": 5.5206,
      "duration": 0.0161,
      "velocity": 100,
      "chip": "ym2612"
    },
    {
      "channel": 4,
      "note": 59,
      "start": 5.5217,
      "duration": 0.0161,
      "velocity": 100,
      "chip": "ym2612"
    },
    {
      "channel": 1,
      "note": 76,
      "start": 5.5229,
      "duration": 0.0161,
      "velocity": 83,
      "chip": "ym2612"
    },
    {
      "channel": 0,
      "note": 40,
      "start": 5.5331,
      "duration": 0.0161,
      "velocity": 115,
      "chip": "ym2612"
    },
    {
      "channel": 5,
      "note": 76,
      "start": 5.5343,
      "duration": 0.0161,
      "velocity": 83,
      "chip": "ym2612"
    },
    {
      "channel": 3,
      "note": 74,
      "start": 5.5354,
      "duration": 0.0161,
      "velocity": 100,
      "chip": "ym2612"
    },
    {
      "channel": 2,
      "note": 78,
      "start": 5.5367,
      "duration": 0.0161,
      "velocity": 100,
      "chip": "ym2612"
    },
    {
      "channel": 4,
      "note": 59,
      "start": 5.5378,
      "duration": 0.0161,
      "velocity": 100,
      "chip": "ym2612"
    },
    {
      "channel": 1,
      "note": 76,
      "start": 5.539,
      "duration": 0.0161,
      "velocity": 83,
      "chip": "ym2612"
    },
    {
      "channel": 0,
      "note": 40,
      "start": 5.5492,
      "duration": 0.0161,
      "velocity": 115,
      "chip": "ym2612"
    },
    {
      "channel": 5,
      "note": 76,
      "start": 5.5504,
      "duration": 0.0161,
      "velocity": 83,
      "chip": "ym2612"
    },
    {
      "channel": 3,
      "note": 74,
      "start": 5.5515,
      "duration": 0.0162,
      "velocity": 100,
      "chip": "ym2612"
    },
    {
      "channel": 2,
      "note": 78,
      "start": 5.5527,
      "duration": 0.0161,
      "velocity": 100,
      "chip": "ym2612"
    },
    {
      "channel": 4,
      "note": 59,
      "start": 5.5539,
      "duration": 0.0161,
      "velocity": 100,
      "chip": "ym2612"
    },
    {
      "channel": 1,
      "note": 76,
      "start": 5.555,
      "duration": 0.0162,
      "velocity": 83,
      "chip": "ym2612"
    },
    {
      "channel": 0,
      "note": 40,
      "start": 5.5653,
      "duration": 0.0162,
      "velocity": 115,
      "chip": "ym2612"
    },
    {
      "channel": 5,
      "note": 76,
      "start": 5.5666,
      "duration": 0.016,
      "velocity": 83,
      "chip": "ym2612"
    },
    {
      "channel": 3,
      "note": 74,
      "start": 5.5677,
      "duration": 0.0161,
      "velocity": 100,
      "chip": "ym2612"
    },
    {
      "channel": 2,
      "note": 78,
      "start": 5.5688,
      "duration": 0.0161,
      "velocity": 100,
      "chip": "ym2612"
    },
    {
      "channel": 4,
      "note": 59,
      "start": 5.57,
      "duration": 0.0161,
      "velocity": 100,
      "chip": "ym2612"
    },
    {
      "channel": 1,
      "note": 76,
      "start": 5.5712,
      "duration": 0.016,
      "velocity": 83,
      "chip": "ym2612"
    },
    {
      "channel": 0,
      "note": 41,
      "start": 5.5815,
      "duration": 0.0161,
      "velocity": 115,
      "chip": "ym2612"
    },
    {
      "channel": 5,
      "note": 76,
      "start": 5.5826,
      "duration": 0.0161,
      "velocity": 83,
      "chip": "ym2612"
    },
    {
      "channel": 3,
      "note": 74,
      "start": 5.5838,
      "duration": 0.0161,
      "velocity": 100,
      "chip": "ym2612"
    },
    {
      "channel": 2,
      "note": 78,
      "start": 5.5849,
      "duration": 0.0161,
      "velocity": 100,
      "chip": "ym2612"
    },
    {
      "channel": 4,
      "note": 59,
      "start": 5.5861,
      "duration": 0.0161,
      "velocity": 100,
      "chip": "ym2612"
    },
    {
      "channel": 1,
      "note": 76,
      "start": 5.5872,
      "duration": 0.0161,
      "velocity": 83,
      "chip": "ym2612"
    },
    {
      "channel": 0,
      "note": 41,
      "start": 5.5975,
      "duration": 0.0162,
      "velocity": 115,
      "chip": "ym2612"
    },
    {
      "channel": 5,
      "note": 76,
      "start": 5.5987,
      "duration": 0.0161,
      "velocity": 83,
      "chip": "ym2612"
    },
    {
      "channel": 3,
      "note": 74,
      "start": 5.5999,
      "duration": 0.0162,
      "velocity": 100,
      "chip": "ym2612"
    },
    {
      "channel": 2,
      "note": 78,
      "start": 5.601,
      "duration": 0.0161,
      "velocity": 100,
      "chip": "ym2612"
    },
    {
      "channel": 4,
      "note": 59,
      "start": 5.6022,
      "duration": 0.0162,
      "velocity": 100,
      "chip": "ym2612"
    },
    {
      "channel": 1,
      "note": 76,
      "start": 5.6034,
      "duration": 0.0162,
      "velocity": 83,
      "chip": "ym2612"
    },
    {
      "channel": 0,
      "note": 42,
      "start": 5.6137,
      "duration": 0.0161,
      "velocity": 115,
      "chip": "ym2612"
    },
    {
      "channel": 5,
      "note": 76,
      "start": 5.6148,
      "duration": 0.0162,
      "velocity": 83,
      "chip": "ym2612"
    },
    {
      "channel": 4,
      "note": 59,
      "start": 5.6183,
      "duration": 0.017,
      "velocity": 100,
      "chip": "ym2612"
    },
    {
      "channel": 1,
      "note": 76,
      "start": 5.6195,
      "duration": 0.017,
      "velocity": 83,
      "chip": "ym2612"
    },
    {
      "channel": 0,
      "note": 42,
      "start": 5.6298,
      "duration": 0.0164,
      "velocity": 115,
      "chip": "ym2612"
    },
    {
      "channel": 5,
      "note": 76,
      "start": 5.631,
      "duration": 0.0164,
      "velocity": 83,
      "chip": "ym2612"
    },
    {
      "channel": 3,
      "note": 74,
      "start": 5.6326,
      "duration": 0.016,
      "velocity": 100,
      "chip": "ym2612"
    },
    {
      "channel": 2,
      "note": 78,
      "start": 5.6342,
      "duration": 0.0157,
      "velocity": 100,
      "chip": "ym2612"
    },
    {
      "channel": 4,
      "note": 59,
      "start": 5.6353,
      "duration": 0.0157,
      "velocity": 100,
      "chip": "ym2612"
    },
    {
      "channel": 1,
      "note": 76,
      "start": 5.6365,
      "duration": 0.0156,
      "velocity": 83,
      "chip": "ym2612"
    },
    {
      "channel": 0,
      "note": 43,
      "start": 5.6462,
      "duration": 0.0163,
      "velocity": 115,
      "chip": "ym2612"
    },
    {
      "channel": 5,
      "note": 76,
      "start": 5.6474,
      "duration": 0.0163,
      "velocity": 83,
      "chip": "ym2612"
    },
    {
      "channel": 3,
      "note": 74,
      "start": 5.6486,
      "duration": 0.0163,
      "velocity": 100,
      "chip": "ym2612"
    },
    {
      "channel": 2,
      "note": 78,
      "start": 5.6499,
      "duration": 0.0162,
      "velocity": 100,
      "chip": "ym2612"
    },
    {
      "channel": 4,
      "note": 59,
      "start": 5.651,
      "duration": 0.0161,
      "velocity": 100,
      "chip": "ym2612"
    },
    {
      "channel": 1,
      "note": 76,
      "start": 5.6522,
      "duration": 0.0162,
      "velocity": 83,
      "chip": "ym2612"
    },
    {
      "channel": 0,
      "note": 43,
      "start": 5.6625,
      "duration": 0.0161,
      "velocity": 115,
      "chip": "ym2612"
    },
    {
      "channel": 5,
      "note": 76,
      "start": 5.6638,
      "duration": 0.016,
      "velocity": 83,
      "chip": "ym2612"
    },
    {
      "channel": 3,
      "note": 74,
      "start": 5.6649,
      "duration": 0.0161,
      "velocity": 100,
      "chip": "ym2612"
    },
    {
      "channel": 2,
      "note": 78,
      "start": 5.6661,
      "duration": 0.0161,
      "velocity": 100,
      "chip": "ym2612"
    },
    {
      "channel": 4,
      "note": 59,
      "start": 5.6672,
      "duration": 0.0161,
      "velocity": 100,
      "chip": "ym2612"
    },
    {
      "channel": 1,
      "note": 76,
      "start": 5.6684,
      "duration": 0.016,
      "velocity": 83,
      "chip": "ym2612"
    },
    {
      "channel": 0,
      "note": 44,
      "start": 5.6786,
      "duration": 0.016,
      "velocity": 115,
      "chip": "ym2612"
    },
    {
      "channel": 5,
      "note": 76,
      "start": 5.6798,
      "duration": 0.0161,
      "velocity": 83,
      "chip": "ym2612"
    },
    {
      "channel": 3,
      "note": 74,
      "start": 5.681,
      "duration": 0.0161,
      "velocity": 100,
      "chip": "ym2612"
    },
    {
      "channel": 2,
      "note": 78,
      "start": 5.6821,
      "duration": 0.0161,
      "velocity": 100,
      "chip": "ym2612"
    },
    {
      "channel": 4,
      "note": 59,
      "start": 5.6833,
      "duration": 0.0161,
      "velocity": 100,
      "chip": "ym2612"
    },
    {
      "channel": 1,
      "note": 76,
      "start": 5.6844,
      "duration": 0.0162,
      "velocity": 83,
      "chip": "ym2612"
    },
    {
      "channel": 0,
      "note": 44,
      "start": 5.6947,
      "duration": 0.0158,
      "velocity": 115,
      "chip": "ym2612"
    },
    {
      "channel": 5,
      "note": 76,
      "start": 5.6959,
      "duration": 0.0162,
      "velocity": 83,
      "chip": "ym2612"
    },
    {
      "channel": 3,
      "note": 74,
      "start": 5.6971,
      "duration": 0.0161,
      "velocity": 100,
      "chip": "ym2612"
    },
    {
      "channel": 2,
      "note": 78,
      "start": 5.6982,
      "duration": 0.0161,
      "velocity": 100,
      "chip": "ym2612"
    },
    {
      "channel": 4,
      "note": 59,
      "start": 5.6994,
      "duration": 0.0161,
      "velocity": 100,
      "chip": "ym2612"
    },
    {
      "channel": 1,
      "note": 76,
      "start": 5.7007,
      "duration": 0.0161,
      "velocity": 83,
      "chip": "ym2612"
    },
    {
      "channel": 0,
      "note": 44,
      "start": 5.7105,
      "duration": 0.0159,
      "velocity": 115,
      "chip": "ym2612"
    },
    {
      "channel": 5,
      "note": 76,
      "start": 5.712,
      "duration": 0.016,
      "velocity": 83,
      "chip": "ym2612"
    },
    {
      "channel": 3,
      "note": 74,
      "start": 5.7132,
      "duration": 0.0161,
      "velocity": 100,
      "chip": "ym2612"
    },
    {
      "channel": 2,
      "note": 78,
      "start": 5.7143,
      "duration": 0.0161,
      "velocity": 100,
      "chip": "ym2612"
    },
    {
      "channel": 4,
      "note": 59,
      "start": 5.7155,
      "duration": 0.0161,
      "velocity": 100,
      "chip": "ym2612"
    },
    {
      "channel": 0,
      "note": 45,
      "start": 5.7263,
      "duration": 0.0184,
      "velocity": 115,
      "chip": "ym2612"
    },
    {
      "channel": 5,
      "note": 76,
      "start": 5.7281,
      "duration": 0.018,
      "velocity": 83,
      "chip": "ym2612"
    },
    {
      "channel": 3,
      "note": 74,
      "start": 5.7293,
      "duration": 0.0179,
      "velocity": 100,
      "chip": "ym2612"
    },
    {
      "channel": 2,
      "note": 78,
      "start": 5.7304,
      "duration": 0.0179,
      "velocity": 100,
      "chip": "ym2612"
    },
    {
      "channel": 4,
      "note": 59,
      "start": 5.7316,
      "duration": 0.0181,
      "velocity": 100,
      "chip": "ym2612"
    },
    {
      "channel": 0,
      "note": 36,
      "start": 5.7448,
      "duration": 0.0138,
      "velocity": 115,
      "chip": "ym2612"
    },
    {
      "channel": 5,
      "note": 76,
      "start": 5.7461,
      "duration": 0.0137,
      "velocity": 83,
      "chip": "ym2612"
    },
    {
      "channel": 3,
      "note": 74,
      "start": 5.7472,
      "duration": 0.0143,
      "velocity": 100,
      "chip": "ym2612"
    },
    {
      "channel": 2,
      "note": 78,
      "start": 5.7484,
      "duration": 0.0144,
      "velocity": 100,
      "chip": "ym2612"
    },
    {
      "channel": 4,
      "note": 54,
      "start": 5.7498,
      "duration": 0.0141,
      "velocity": 100,
      "chip": "ym2612"
    },
    {
      "channel": 1,
      "note": 78,
      "start": 5.7513,
      "duration": 0.0139,
      "velocity": 83,
      "chip": "ym2612"
    },
    {
      "channel": 0,
      "note": 36,
      "start": 5.7586,
      "duration": 0.016,
      "velocity": 115,
      "chip": "ym2612"
    },
    {
      "channel": 5,
      "note": 76,
      "start": 5.7598,
      "duration": 0.016,
      "velocity": 83,
      "chip": "ym2612"
    },
    {
      "channel": 3,
      "note": 74,
      "start": 5.7615,
      "duration": 0.0157,
      "velocity": 100,
      "chip": "ym2612"
    },
    {
      "channel": 2,
      "note": 78,
      "start": 5.7627,
      "duration": 0.016,
      "velocity": 100,
      "chip": "ym2612"
    },
    {
      "channel": 4,
      "note": 54,
      "start": 5.7639,
      "duration": 0.016,
      "velocity": 100,
      "chip": "ym2612"
    },
    {
      "channel": 1,
      "note": 78,
      "start": 5.7652,
      "duration": 0.0159,
      "velocity": 83,
      "chip": "ym2612"
    },
    {
      "channel": 0,
      "note": 37,
      "start": 5.7746,
      "duration": 0.0161,
      "velocity": 115,
      "chip": "ym2612"
    },
    {
      "channel": 3,
      "note": 74,
      "start": 5.7772,
      "duration": 0.0159,
      "velocity": 100,
      "chip": "ym2612"
    },
    {
      "channel": 2,
      "note": 78,
      "start": 5.7788,
      "duration": 0.016,
      "velocity": 100,
      "chip": "ym2612"
    },
    {
      "channel": 4,
      "note": 54,
      "start": 5.7799,
      "duration": 0.0161,
      "velocity": 100,
      "chip": "ym2612"
    },
    {
      "channel": 1,
      "note": 78,
      "start": 5.7811,
      "duration": 0.0161,
      "velocity": 83,
      "chip": "ym2612"
    },
    {
      "channel": 0,
      "note": 37,
      "start": 5.7907,
      "duration": 0.0161,
      "velocity": 115,
      "chip": "ym2612"
    },
    {
      "channel": 3,
      "note": 74,
      "start": 5.7931,
      "duration": 0.0164,
      "velocity": 100,
      "chip": "ym2612"
    },
    {
      "channel": 2,
      "note": 78,
      "start": 5.7947,
      "duration": 0.0165,
      "velocity": 100,
      "chip": "ym2612"
    },
    {
      "channel": 4,
      "note": 54,
      "start": 5.796,
      "duration": 0.0164,
      "velocity": 100,
      "chip": "ym2612"
    },
    {
      "channel": 1,
      "note": 78,
      "start": 5.7971,
      "duration": 0.0164,
      "velocity": 83,
      "chip": "ym2612"
    },
    {
      "channel": 0,
      "note": 38,
      "start": 5.8068,
      "duration": 0.0161,
      "velocity": 115,
      "chip": "ym2612"
    },
    {
      "channel": 5,
      "note": 78,
      "start": 5.8083,
      "duration": 0.0159,
      "velocity": 83,
      "chip": "ym2612"
    },
    {
      "channel": 3,
      "note": 74,
      "start": 5.8095,
      "duration": 0.0158,
      "velocity": 100,
      "chip": "ym2612"
    },
    {
      "channel": 2,
      "note": 78,
      "start": 5.8112,
      "duration": 0.0154,
      "velocity": 100,
      "chip": "ym2612"
    },
    {
      "channel": 4,
      "note": 54,
      "start": 5.8124,
      "duration": 0.0158,
      "velocity": 100,
      "chip": "ym2612"
    },
    {
      "channel": 1,
      "note": 78,
      "start": 5.8136,
      "duration": 0.0159,
      "velocity": 83,
      "chip": "ym2612"
    },
    {
      "channel": 0,
      "note": 38,
      "start": 5.8229,
      "duration": 0.0161,
      "velocity": 115,
      "chip": "ym2612"
    },
    {
      "channel": 5,
      "note": 78,
      "start": 5.8242,
      "duration": 0.016,
      "velocity": 83,
      "chip": "ym2612"
    },
    {
      "channel": 3,
      "note": 74,
      "start": 5.8253,
      "duration": 0.016,
      "velocity": 100,
      "chip": "ym2612"
    },
    {
      "channel": 2,
      "note": 78,
      "start": 5.8266,
      "duration": 0.016,
      "velocity": 100,
      "chip": "ym2612"
    },
    {
      "channel": 4,
      "note": 54,
      "start": 5.8282,
      "duration": 0.0158,
      "velocity": 100,
      "chip": "ym2612"
    },
    {
      "channel": 1,
      "note": 78,
      "start": 5.8295,
      "duration": 0.0161,
      "velocity": 83,
      "chip": "ym2612"
    },
    {
      "channel": 0,
      "note": 39,
      "start": 5.839,
      "duration": 0.018,
      "velocity": 124,
      "chip": "ym2612"
    },
    {
      "channel": 5,
      "note": 78,
      "start": 5.8402,
      "duration": 0.018,
      "velocity": 83,
      "chip": "ym2612"
    },
    {
      "channel": 4,
      "note": 54,
      "start": 5.844,
      "duration": 0.019,
      "velocity": 100,
      "chip": "ym2612"
    },
    {
      "channel": 1,
      "note": 78,
      "start": 5.8456,
      "duration": 0.0186,
      "velocity": 83,
      "chip": "ym2612"
    },
    {
      "channel": 0,
      "note": 84,
      "start": 5.857,
      "duration": 0.0143,
      "velocity": 124,
      "chip": "ym2612"
    },
    {
      "channel": 5,
      "note": 78,
      "start": 5.8582,
      "duration": 0.0142,
      "velocity": 83,
      "chip": "ym2612"
    },
    {
      "channel": 3,
      "note": 74,
      "start": 5.8597,
      "duration": 0.014,
      "velocity": 100,
      "chip": "ym2612"
    },
    {
      "channel": 2,
      "note": 78,
      "start": 5.8617,
      "duration": 0.0132,
      "velocity": 100,
      "chip": "ym2612"
    },
    {
      "channel": 4,
      "note": 54,
      "start": 5.8629,
      "duration": 0.0132,
      "velocity": 100,
      "chip": "ym2612"
    },
    {
      "channel": 1,
      "note": 78,
      "start": 5.8641,
      "duration": 0.0137,
      "velocity": 83,
      "chip": "ym2612"
    },
    {
      "channel": 0,
      "note": 82,
      "start": 5.8713,
      "duration": 0.0161,
      "velocity": 124,
      "chip": "ym2612"
    },
    {
      "channel": 5,
      "note": 78,
      "start": 5.8725,
      "duration": 0.0161,
      "velocity": 83,
      "chip": "ym2612"
    },
    {
      "channel": 3,
      "note": 74,
      "start": 5.8737,
      "duration": 0.016,
      "velocity": 100,
      "chip": "ym2612"
    },
    {
      "channel": 2,
      "note": 78,
      "start": 5.8749,
      "duration": 0.0159,
      "velocity": 100,
      "chip": "ym2612"
    },
    {
      "channel": 4,
      "note": 54,
      "start": 5.8761,
      "duration": 0.0159,
      "velocity": 100,
      "chip": "ym2612"
    },
    {
      "channel": 1,
      "note": 78,
      "start": 5.8778,
      "duration": 0.0154,
      "velocity": 83,
      "chip": "ym2612"
    },
    {
      "channel": 0,
      "note": 80,
      "start": 5.8873,
      "duration": 0.0161,
      "velocity": 124,
      "chip": "ym2612"
    },
    {
      "channel": 5,
      "note": 78,
      "start": 5.8886,
      "duration": 0.0161,
      "velocity": 83,
      "chip": "ym2612"
    },
    {
      "channel": 3,
      "note": 74,
      "start": 5.8897,
      "duration": 0.0161,
      "velocity": 100,
      "chip": "ym2612"
    },
    {
      "channel": 2,
      "note": 78,
      "start": 5.8909,
      "duration": 0.0161,
      "velocity": 100,
      "chip": "ym2612"
    },
    {
      "channel": 4,
      "note": 54,
      "start": 5.892,
      "duration": 0.0161,
      "velocity": 100,
      "chip": "ym2612"
    },
    {
      "channel": 1,
      "note": 78,
      "start": 5.8932,
      "duration": 0.0161,
      "velocity": 83,
      "chip": "ym2612"
    },
    {
      "channel": 0,
      "note": 77,
      "start": 5.9034,
      "duration": 0.0161,
      "velocity": 124,
      "chip": "ym2612"
    },
    {
      "channel": 5,
      "note": 78,
      "start": 5.9047,
      "duration": 0.0161,
      "velocity": 83,
      "chip": "ym2612"
    },
    {
      "channel": 3,
      "note": 74,
      "start": 5.9058,
      "duration": 0.0161,
      "velocity": 100,
      "chip": "ym2612"
    },
    {
      "channel": 2,
      "note": 78,
      "start": 5.907,
      "duration": 0.0161,
      "velocity": 100,
      "chip": "ym2612"
    },
    {
      "channel": 4,
      "note": 54,
      "start": 5.9081,
      "duration": 0.0161,
      "velocity": 100,
      "chip": "ym2612"
    },
    {
      "channel": 1,
      "note": 78,
      "start": 5.9093,
      "duration": 0.0161,
      "velocity": 83,
      "chip": "ym2612"
    },
    {
      "channel": 0,
      "note": 75,
      "start": 5.9195,
      "duration": 0.0161,
      "velocity": 124,
      "chip": "ym2612"
    },
    {
      "channel": 5,
      "note": 78,
      "start": 5.9207,
      "duration": 0.0161,
      "velocity": 83,
      "chip": "ym2612"
    },
    {
      "channel": 3,
      "note": 74,
      "start": 5.9219,
      "duration": 0.0161,
      "velocity": 100,
      "chip": "ym2612"
    },
    {
      "channel": 2,
      "note": 78,
      "start": 5.923,
      "duration": 0.0161,
      "velocity": 100,
      "chip": "ym2612"
    },
    {
      "channel": 4,
      "note": 54,
      "start": 5.9242,
      "duration": 0.0161,
      "velocity": 100,
      "chip": "ym2612"
    },
    {
      "channel": 1,
      "note": 78,
      "start": 5.9254,
      "duration": 0.0161,
      "velocity": 83,
      "chip": "ym2612"
    },
    {
      "channel": 0,
      "note": 72,
      "start": 5.9356,
      "duration": 0.0161,
      "velocity": 124,
      "chip": "ym2612"
    },
    {
      "channel": 5,
      "note": 78,
      "start": 5.9368,
      "duration": 0.0161,
      "velocity": 83,
      "chip": "ym2612"
    },
    {
      "channel": 3,
      "note": 74,
      "start": 5.938,
      "duration": 0.0161,
      "velocity": 100,
      "chip": "ym2612"
    },
    {
      "channel": 2,
      "note": 78,
      "start": 5.9391,
      "duration": 0.0162,
      "velocity": 100,
      "chip": "ym2612"
    },
    {
      "channel": 4,
      "note": 54,
      "start": 5.9403,
      "duration": 0.0161,
      "velocity": 100,
      "chip": "ym2612"
    },
    {
      "channel": 1,
      "note": 78,
      "start": 5.9415,
      "duration": 0.0161,
      "velocity": 83,
      "chip": "ym2612"
    },
    {
      "channel": 0,
      "note": 70,
      "start": 5.9517,
      "duration": 0.0161,
      "velocity": 124,
      "chip": "ym2612"
    },
    {
      "channel": 5,
      "note": 78,
      "start": 5.9529,
      "duration": 0.0161,
      "velocity": 83,
      "chip": "ym2612"
    },
    {
      "channel": 3,
      "note": 74,
      "start": 5.9541,
      "duration": 0.0161,
      "velocity": 100,
      "chip": "ym2612"
    },
    {
      "channel": 2,
      "note": 78,
      "start": 5.9553,
      "duration": 0.0161,
      "velocity": 100,
      "chip": "ym2612"
    },
    {
      "channel": 4,
      "note": 54,
      "start": 5.9564,
      "duration": 0.0161,
      "velocity": 100,
      "chip": "ym2612"
    },
    {
      "channel": 1,
      "note": 78,
      "start": 5.9576,
      "duration": 0.0161,
      "velocity": 83,
      "chip": "ym2612"
    },
    {
      "channel": 0,
      "note": 68,
      "start": 5.9678,
      "duration": 0.0161,
      "velocity": 124,
      "chip": "ym2612"
    },
    {
      "channel": 5,
      "note": 78,
      "start": 5.969,
      "duration": 0.0161,
      "velocity": 83,
      "chip": "ym2612"
    },
    {
      "channel": 3,
      "note": 74,
      "start": 5.9702,
      "duration": 0.0161,
      "velocity": 100,
      "chip": "ym2612"
    },
    {
      "channel": 2,
      "note": 78,
      "start": 5.9714,
      "duration": 0.0161,
      "velocity": 100,
      "chip": "ym2612"
    },
    {
      "channel": 4,
      "note": 54,
      "start": 5.9725,
      "duration": 0.0161,
      "velocity": 100,
      "chip": "ym2612"
    },
    {
      "channel": 1,
      "note": 78,
      "start": 5.9737,
      "duration": 0.0161,
      "velocity": 83,
      "chip": "ym2612"
    },
    {
      "channel": 0,
      "note": 65,
      "start": 5.9839,
      "duration": 0.0161,
      "velocity": 124,
      "chip": "ym2612"
    },
    {
      "channel": 5,
      "note": 78,
      "start": 5.9851,
      "duration": 0.0161,
      "velocity": 83,
      "chip": "ym2612"
    },
    {
      "channel": 3,
      "note": 74,
      "start": 5.9863,
      "duration": 0.0161,
      "velocity": 100,
      "chip": "ym2612"
    },
    {
      "channel": 2,
      "note": 78,
      "start": 5.9875,
      "duration": 0.0161,
      "velocity": 100,
      "chip": "ym2612"
    },
    {
      "channel": 4,
      "note": 54,
      "start": 5.9886,
      "duration": 0.0161,
      "velocity": 100,
      "chip": "ym2612"
    },
    {
      "channel": 1,
      "note": 78,
      "start": 5.9898,
      "duration": 0.0162,
      "velocity": 83,
      "chip": "ym2612"
    },
    {
      "channel": 0,
      "note": 63,
      "start": 6.0,
      "duration": 0.0153,
      "velocity": 1,
      "chip": "ym2612"
    },
    {
      "channel": 5,
      "note": 78,
      "start": 6.0012,
      "duration": 0.0153,
      "velocity": 83,
      "chip": "ym2612"
    },
    {
      "channel": 3,
      "note": 74,
      "start": 6.0024,
      "duration": 0.0153,
      "velocity": 100,
      "chip": "ym2612"
    },
    {
      "channel": 2,
      "note": 78,
      "start": 6.0036,
      "duration": 0.0153,
      "velocity": 100,
      "chip": "ym2612"
    },
    {
      "channel": 4,
      "note": 54,
      "start": 6.0047,
      "duration": 0.0153,
      "velocity": 100,
      "chip": "ym2612"
    },
    {
      "channel": 1,
      "note": 78,
      "start": 6.0059,
      "duration": 0.0153,
      "velocity": 83,
      "chip": "ym2612"
    },
    {
      "channel": 5,
      "note": 78,
      "start": 6.0165,
      "duration": 0.0153,
      "velocity": 83,
      "chip": "ym2612"
    },
    {
      "channel": 3,
      "note": 74,
      "start": 6.0177,
      "duration": 0.0152,
      "velocity": 100,
      "chip": "ym2612"
    },
    {
      "channel": 2,
      "note": 78,
      "start": 6.0188,
      "duration": 0.0152,
      "velocity": 100,
      "chip": "ym2612"
    },
    {
      "channel": 4,
      "note": 54,
      "start": 6.02,
      "duration": 0.0153,
      "velocity": 100,
      "chip": "ym2612"
    },
    {
      "channel": 1,
      "note": 78,
      "start": 6.0212,
      "duration": 0.0153,
      "velocity": 83,
      "chip": "ym2612"
    },
    {
      "channel": 5,
      "note": 78,
      "start": 6.0318,
      "duration": 0.0161,
      "velocity": 83,
      "chip": "ym2612"
    },
    {
      "channel": 3,
      "note": 74,
      "start": 6.0329,
      "duration": 0.0161,
      "velocity": 100,
      "chip": "ym2612"
    },
    {
      "channel": 2,
      "note": 78,
      "start": 6.0341,
      "duration": 0.0161,
      "velocity": 100,
      "chip": "ym2612"
    },
    {
      "channel": 4,
      "note": 54,
      "start": 6.0353,
      "duration": 0.0161,
      "velocity": 100,
      "chip": "ym2612"
    },
    {
      "channel": 1,
      "note": 78,
      "start": 6.0365,
      "duration": 0.0161,
      "velocity": 83,
      "chip": "ym2612"
    },
    {
      "channel": 5,
      "note": 78,
      "start": 6.0478,
      "duration": 0.0161,
      "velocity": 83,
      "chip": "ym2612"
    },
    {
      "channel": 3,
      "note": 74,
      "start": 6.049,
      "duration": 0.0161,
      "velocity": 100,
      "chip": "ym2612"
    },
    {
      "channel": 2,
      "note": 78,
      "start": 6.0502,
      "duration": 0.0161,
      "velocity": 100,
      "chip": "ym2612"
    },
    {
      "channel": 4,
      "note": 54,
      "start": 6.0514,
      "duration": 0.0161,
      "velocity": 100,
      "chip": "ym2612"
    },
    {
      "channel": 5,
      "note": 78,
      "start": 6.0639,
      "duration": 0.0162,
      "velocity": 83,
      "chip": "ym2612"
    },
    {
      "channel": 4,
      "note": 54,
      "start": 6.0675,
      "duration": 0.0171,
      "velocity": 100,
      "chip": "ym2612"
    },
    {
      "channel": 5,
      "note": 78,
      "start": 6.0801,
      "duration": 0.0161,
      "velocity": 83,
      "chip": "ym2612"
    },
    {
      "channel": 3,
      "note": 74,
      "start": 6.0816,
      "duration": 0.0159,
      "velocity": 100,
      "chip": "ym2612"
    },
    {
      "channel": 2,
      "note": 78,
      "start": 6.0832,
      "duration": 0.0155,
      "velocity": 100,
      "chip": "ym2612"
    },
    {
      "channel": 4,
      "note": 57,
      "start": 6.0847,
      "duration": 0.0152,
      "velocity": 100,
      "chip": "ym2612"
    },
    {
      "channel": 1,
      "note": 74,
      "start": 6.0861,
      "duration": 0.015,
      "velocity": 83,
      "chip": "ym2612"
    },
    {
      "channel": 5,
      "note": 78,
      "start": 6.0963,
      "duration": 0.0164,
      "velocity": 83,
      "chip": "ym2612"
    },
    {
      "channel": 3,
      "note": 74,
      "start": 6.0975,
      "duration": 0.0163,
      "velocity": 100,
      "chip": "ym2612"
    },
    {
      "channel": 2,
      "note": 78,
      "start": 6.0987,
      "duration": 0.0163,
      "velocity": 100,
      "chip": "ym2612"
    },
    {
      "channel": 4,
      "note": 57,
      "start": 6.0999,
      "duration": 0.0163,
      "velocity": 100,
      "chip": "ym2612"
    },
    {
      "channel": 1,
      "note": 74,
      "start": 6.1012,
      "duration": 0.0162,
      "velocity": 83,
      "chip": "ym2612"
    },
    {
      "channel": 3,
      "note": 74,
      "start": 6.1138,
      "duration": 0.0163,
      "velocity": 100,
      "chip": "ym2612"
    },
    {
      "channel": 2,
      "note": 78,
      "start": 6.115,
      "duration": 0.0163,
      "velocity": 100,
      "chip": "ym2612"
    },
    {
      "channel": 4,
      "note": 57,
      "start": 6.1162,
      "duration": 0.0162,
      "velocity": 100,
      "chip": "ym2612"
    },
    {
      "channel": 1,
      "note": 74,
      "start": 6.1173,
      "duration": 0.0163,
      "velocity": 83,
      "chip": "ym2612"
    },
    {
      "channel": 3,
      "note": 74,
      "start": 6.1301,
      "duration": 0.0164,
      "velocity": 100,
      "chip": "ym2612"
    },
    {
      "channel": 2,
      "note": 78,
      "start": 6.1312,
      "duration": 0.0164,
      "velocity": 100,
      "chip": "ym2612"
    },
    {
      "channel": 4,
      "note": 57,
      "start": 6.1324,
      "duration": 0.0165,
      "velocity": 100,
      "chip": "ym2612"
    },
    {
      "channel": 1,
      "note": 74,
      "start": 6.1336,
      "duration": 0.0164,
      "velocity": 83,
      "chip": "ym2612"
    },
    {
      "channel": 5,
      "note": 74,
      "start": 6.1454,
      "duration": 0.0158,
      "velocity": 83,
      "chip": "ym2612"
    },
    {
      "channel": 3,
      "note": 74,
      "start": 6.1465,
      "duration": 0.0159,
      "velocity": 100,
      "chip": "ym2612"
    },
    {
      "channel": 2,
      "note": 78,
      "start": 6.1477,
      "duration": 0.0159,
      "velocity": 100,
      "chip": "ym2612"
    },
    {
      "channel": 4,
      "note": 57,
      "start": 6.1489,
      "duration": 0.0159,
      "velocity": 100,
      "chip": "ym2612"
    },
    {
      "channel": 1,
      "note": 74,
      "start": 6.15,
      "duration": 0.0158,
      "velocity": 83,
      "chip": "ym2612"
    },
    {
      "channel": 5,
      "note": 74,
      "start": 6.1612,
      "duration": 0.0155,
      "velocity": 83,
      "chip": "ym2612"
    },
    {
      "channel": 3,
      "note": 74,
      "start": 6.1624,
      "duration": 0.016,
      "velocity": 100,
      "chip": "ym2612"
    },
    {
      "channel": 2,
      "note": 78,
      "start": 6.1636,
      "duration": 0.016,
      "velocity": 100,
      "chip": "ym2612"
    },
    {
      "channel": 4,
      "note": 57,
      "start": 6.1647,
      "duration": 0.016,
      "velocity": 100,
      "chip": "ym2612"
    },
    {
      "channel": 1,
      "note": 74,
      "start": 6.1659,
      "duration": 0.0161,
      "velocity": 83,
      "chip": "ym2612"
    },
    {
      "channel": 5,
      "note": 74,
      "start": 6.1767,
      "duration": 0.0161,
      "velocity": 83,
      "chip": "ym2612"
    },
    {
      "channel": 3,
      "note": 74,
      "start": 6.1784,
      "duration": 0.0161,
      "velocity": 100,
      "chip": "ym2612"
    },
    {
      "channel": 2,
      "note": 78,
      "start": 6.1796,
      "duration": 0.0161,
      "velocity": 100,
      "chip": "ym2612"
    },
    {
      "channel": 4,
      "note": 57,
      "start": 6.1807,
      "duration": 0.0161,
      "velocity": 100,
      "chip": "ym2612"
    },
    {
      "channel": 1,
      "note": 74,
      "start": 6.182,
      "duration": 0.016,
      "velocity": 83,
      "chip": "ym2612"
    },
    {
      "channel": 5,
      "note": 74,
      "start": 6.1928,
      "duration": 0.0161,
      "velocity": 83,
      "chip": "ym2612"
    },
    {
      "channel": 3,
      "note": 74,
      "start": 6.1945,
      "duration": 0.0156,
      "velocity": 100,
      "chip": "ym2612"
    },
    {
      "channel": 2,
      "note": 78,
      "start": 6.1957,
      "duration": 0.016,
      "velocity": 100,
      "chip": "ym2612"
    },
    {
      "channel": 4,
      "note": 57,
      "start": 6.1968,
      "duration": 0.0161,
      "velocity": 100,
      "chip": "ym2612"
    },
    {
      "channel": 1,
      "note": 74,
      "start": 6.198,
      "duration": 0.0162,
      "velocity": 83,
      "chip": "ym2612"
    },
    {
      "channel": 5,
      "note": 74,
      "start": 6.2089,
      "duration": 0.0161,
      "velocity": 83,
      "chip": "ym2612"
    },
    {
      "channel": 3,
      "note": 74,
      "start": 6.2101,
      "duration": 0.0161,
      "velocity": 100,
      "chip": "ym2612"
    },
    {
      "channel": 2,
      "note": 78,
      "start": 6.2117,
      "duration": 0.0161,
      "velocity": 100,
      "chip": "ym2612"
    },
    {
      "channel": 4,
      "note": 57,
      "start": 6.2129,
      "duration": 0.0161,
      "velocity": 100,
      "chip": "ym2612"
    },
    {
      "channel": 1,
      "note": 74,
      "start": 6.2141,
      "duration": 0.0161,
      "velocity": 83,
      "chip": "ym2612"
    },
    {
      "channel": 5,
      "note": 74,
      "start": 6.2249,
      "duration": 0.0162,
      "velocity": 83,
      "chip": "ym2612"
    },
    {
      "channel": 3,
      "note": 74,
      "start": 6.2262,
      "duration": 0.0161,
      "velocity": 100,
      "chip": "ym2612"
    },
    {
      "channel": 2,
      "note": 78,
      "start": 6.2278,
      "duration": 0.0156,
      "velocity": 100,
      "chip": "ym2612"
    },
    {
      "channel": 4,
      "note": 57,
      "start": 6.229,
      "duration": 0.016,
      "velocity": 100,
      "chip": "ym2612"
    },
    {
      "channel": 1,
      "note": 74,
      "start": 6.2302,
      "duration": 0.0161,
      "velocity": 83,
      "chip": "ym2612"
    },
    {
      "channel": 5,
      "note": 74,
      "start": 6.2411,
      "duration": 0.016,
      "velocity": 83,
      "chip": "ym2612"
    },
    {
      "channel": 3,
      "note": 74,
      "start": 6.2422,
      "duration": 0.0161,
      "velocity": 100,
      "chip": "ym2612"
    },
    {
      "channel": 2,
      "note": 78,
      "start": 6.2434,
      "duration": 0.0161,
      "velocity": 100,
      "chip": "ym2612"
    },
    {
      "channel": 4,
      "note": 57,
      "start": 6.2451,
      "duration": 0.0161,
      "velocity": 100,
      "chip": "ym2612"
    },
    {
      "channel": 1,
      "note": 74,
      "start": 6.2463,
      "duration": 0.0161,
      "velocity": 83,
      "chip": "ym2612"
    },
    {
      "channel": 5,
      "note": 74,
      "start": 6.2571,
      "duration": 0.0161,
      "velocity": 83,
      "chip": "ym2612"
    },
    {
      "channel": 3,
      "note": 74,
      "start": 6.2583,
      "duration": 0.0161,
      "velocity": 100,
      "chip": "ym2612"
    },
    {
      "channel": 2,
      "note": 78,
      "start": 6.2595,
      "duration": 0.0161,
      "velocity": 100,
      "chip": "ym2612"
    },
    {
      "channel": 4,
      "note": 57,
      "start": 6.2612,
      "duration": 0.0156,
      "velocity": 100,
      "chip": "ym2612"
    },
    {
      "channel": 1,
      "note": 74,
      "start": 6.2624,
      "duration": 0.0161,
      "velocity": 83,
      "chip": "ym2612"
    },
    {
      "channel": 5,
      "note": 74,
      "start": 6.2732,
      "duration": 0.0161,
      "velocity": 83,
      "chip": "ym2612"
    },
    {
      "channel": 3,
      "note": 74,
      "start": 6.2744,
      "duration": 0.0161,
      "velocity": 100,
      "chip": "ym2612"
    },
    {
      "channel": 2,
      "note": 78,
      "start": 6.2756,
      "duration": 0.0161,
      "velocity": 100,
      "chip": "ym2612"
    },
    {
      "channel": 4,
      "note": 57,
      "start": 6.2767,
      "duration": 0.0162,
      "velocity": 100,
      "chip": "ym2612"
    },
    {
      "channel": 1,
      "note": 74,
      "start": 6.2785,
      "duration": 0.0161,
      "velocity": 83,
      "chip": "ym2612"
    },
    {
      "channel": 5,
      "note": 74,
      "start": 6.2894,
      "duration": 0.0197,
      "velocity": 83,
      "chip": "ym2612"
    },
    {
      "channel": 4,
      "note": 57,
      "start": 6.2929,
      "duration": 0.0212,
      "velocity": 100,
      "chip": "ym2612"
    },
    {
      "channel": 1,
      "note": 74,
      "start": 6.2946,
      "duration": 0.0207,
      "velocity": 83,
      "chip": "ym2612"
    },
    {
      "channel": 0,
      "note": 36,
      "start": 6.3078,
      "duration": 0.0143,
      "velocity": 115,
      "chip": "ym2612"
    },
    {
      "channel": 5,
      "note": 74,
      "start": 6.309,
      "duration": 0.0143,
      "velocity": 83,
      "chip": "ym2612"
    },
    {
      "channel": 3,
      "note": 74,
      "start": 6.3107,
      "duration": 0.0139,
      "velocity": 100,
      "chip": "ym2612"
    },
    {
      "channel": 2,
      "note": 78,
      "start": 6.3126,
      "duration": 0.0132,
      "velocity": 100,
      "chip": "ym2612"
    },
    {
      "channel": 4,
      "note": 59,
      "start": 6.3141,
      "duration": 0.0131,
      "velocity": 100,
      "chip": "ym2612"
    },
    {
      "channel": 1,
      "note": 74,
      "start": 6.3153,
      "duration": 0.0135,
      "velocity": 83,
      "chip": "ym2612"
    },
    {
      "channel": 0,
      "note": 36,
      "start": 6.3222,
      "duration": 0.016,
      "velocity": 115,
      "chip": "ym2612"
    },
    {
      "channel": 5,
      "note": 74,
      "start": 6.3234,
      "duration": 0.016,
      "velocity": 83,
      "chip": "ym2612"
    },
    {
      "channel": 3,
      "note": 74,
      "start": 6.3246,
      "duration": 0.016,
      "velocity": 100,
      "chip": "ym2612"
    },
    {
      "channel": 2,
      "note": 78,
      "start": 6.3258,
      "duration": 0.0159,
      "velocity": 100,
      "chip": "ym2612"
    },
    {
      "channel": 4,
      "note": 59,
      "start": 6.3272,
      "duration": 0.0156,
      "velocity": 100,
      "chip": "ym2612"
    },
    {
      "channel": 1,
      "note": 74,
      "start": 6.3288,
      "duration": 0.0158,
      "velocity": 83,
      "chip": "ym2612"
    },
    {
      "channel": 0,
      "note": 37,
      "start": 6.3382,
      "duration": 0.0161,
      "velocity": 115,
      "chip": "ym2612"
    },
    {
      "channel": 5,
      "note": 74,
      "start": 6.3394,
      "duration": 0.016,
      "velocity": 83,
      "chip": "ym2612"
    },
    {
      "channel": 3,
      "note": 74,
      "start": 6.3405,
      "duration": 0.0161,
      "velocity": 100,
      "chip": "ym2612"
    },
    {
      "channel": 2,
      "note": 78,
      "start": 6.3417,
      "duration": 0.0161,
      "velocity": 100,
      "chip": "ym2612"
    },
    {
      "channel": 4,
      "note": 59,
      "start": 6.3428,
      "duration": 0.0161,
      "velocity": 100,
      "chip": "ym2612"
    },
    {
      "channel": 1,
      "note": 74,
      "start": 6.3445,
      "duration": 0.0155,
      "velocity": 83,
      "chip": "ym2612"
    },
    {
      "channel": 0,
      "note": 37,
      "start": 6.3543,
      "duration": 0.0161,
      "velocity": 115,
      "chip": "ym2612"
    },
    {
      "channel": 5,
      "note": 74,
      "start": 6.3554,
      "duration": 0.0162,
      "velocity": 83,
      "chip": "ym2612"
    },
    {
      "channel": 3,
      "note": 74,
      "start": 6.3566,
      "duration": 0.0161,
      "velocity": 100,
      "chip": "ym2612"
    },
    {
      "channel": 2,
      "note": 78,
      "start": 6.3578,
      "duration": 0.0161,
      "velocity": 100,
      "chip": "ym2612"
    },
    {
      "channel": 4,
      "note": 59,
      "start": 6.3589,
      "duration": 0.0161,
      "velocity": 100,
      "chip": "ym2612"
    },
    {
      "channel": 1,
      "note": 74,
      "start": 6.3601,
      "duration": 0.0162,
      "velocity": 83,
      "chip": "ym2612"
    },
    {
      "channel": 0,
      "note": 38,
      "start": 6.3704,
      "duration": 0.0161,
      "velocity": 115,
      "chip": "ym2612"
    },
    {
      "channel": 5,
      "note": 74,
      "start": 6.3716,
      "duration": 0.0161,
      "velocity": 83,
      "chip": "ym2612"
    },
    {
      "channel": 3,
      "note": 74,
      "start": 6.3727,
      "duration": 0.0161,
      "velocity": 100,
      "chip": "ym2612"
    },
    {
      "channel": 2,
      "note": 78,
      "start": 6.3739,
      "duration": 0.0161,
      "velocity": 100,
      "chip": "ym2612"
    },
    {
      "channel": 4,
      "note": 59,
      "start": 6.375,
      "duration": 0.0161,
      "velocity": 100,
      "chip": "ym2612"
    },
    {
      "channel": 1,
      "note": 74,
      "start": 6.3762,
      "duration": 0.0161,
      "velocity": 83,
      "chip": "ym2612"
    },
    {
      "channel": 0,
      "note": 38,
      "start": 6.3865,
      "duration": 0.0161,
      "velocity": 115,
      "chip": "ym2612"
    },
    {
      "channel": 5,
      "note": 74,
      "start": 6.3877,
      "duration": 0.0161,
      "velocity": 83,
      "chip": "ym2612"
    },
    {
      "channel": 3,
      "note": 74,
      "start": 6.3888,
      "duration": 0.0161,
      "velocity": 100,
      "chip": "ym2612"
    },
    {
      "channel": 2,
      "note": 78,
      "start": 6.39,
      "duration": 0.0162,
      "velocity": 100,
      "chip": "ym2612"
    },
    {
      "channel": 4,
      "note": 59,
      "start": 6.3911,
      "duration": 0.0162,
      "velocity": 100,
      "chip": "ym2612"
    },
    {
      "channel": 1,
      "note": 74,
      "start": 6.3923,
      "duration": 0.0161,
      "velocity": 83,
      "chip": "ym2612"
    },
    {
      "channel": 0,
      "note": 39,
      "start": 6.4026,
      "duration": 0.0161,
      "velocity": 115,
      "chip": "ym2612"
    },
    {
      "channel": 5,
      "note": 74,
      "start": 6.4038,
      "duration": 0.0161,
      "velocity": 83,
      "chip": "ym2612"
    },
    {
      "channel": 3,
      "note": 74,
      "start": 6.4049,
      "duration": 0.0161,
      "velocity": 100,
      "chip": "ym2612"
    },
    {
      "channel": 2,
      "note": 78,
      "start": 6.4061,
      "duration": 0.0161,
      "velocity": 100,
      "chip": "ym2612"
    },
    {
      "channel": 4,
      "note": 59,
      "start": 6.4073,
      "duration": 0.0161,
      "velocity": 100,
      "chip": "ym2612"
    },
    {
      "channel": 1,
      "note": 74,
      "start": 6.4084,
      "duration": 0.0161,
      "velocity": 83,
      "chip": "ym2612"
    },
    {
      "channel": 0,
      "note": 39,
      "start": 6.4187,
      "duration": 0.0161,
      "velocity": 115,
      "chip": "ym2612"
    },
    {
      "channel": 5,
      "note": 74,
      "start": 6.4199,
      "duration": 0.0162,
      "velocity": 83,
      "chip": "ym2612"
    },
    {
      "channel": 3,
      "note": 74,
      "start": 6.421,
      "duration": 0.0162,
      "velocity": 100,
      "chip": "ym2612"
    },
    {
      "channel": 2,
      "note": 78,
      "start": 6.4222,
      "duration": 0.0161,
      "velocity": 100,
      "chip": "ym2612"
    },
    {
      "channel": 4,
      "note": 59,
      "start": 6.4234,
      "duration": 0.0161,
      "velocity": 100,
      "chip": "ym2612"
    },
    {
      "channel": 1,
      "note": 74,
      "start": 6.4245,
      "duration": 0.0161,
      "velocity": 83,
      "chip": "ym2612"
    },
    {
      "channel": 0,
      "note": 40,
      "start": 6.4347,
      "duration": 0.0161,
      "velocity": 115,
      "chip": "ym2612"
    },
    {
      "channel": 5,
      "note": 74,
      "start": 6.436,
      "duration": 0.016,
      "velocity": 83,
      "chip": "ym2612"
    },
    {
      "channel": 3,
      "note": 74,
      "start": 6.4372,
      "duration": 0.0161,
      "velocity": 100,
      "chip": "ym2612"
    },
    {
      "channel": 2,
      "note": 78,
      "start": 6.4383,
      "duration": 0.0161,
      "velocity": 100,
      "chip": "ym2612"
    },
    {
      "channel": 4,
      "note": 59,
      "start": 6.4395,
      "duration": 0.0161,
      "velocity": 100,
      "chip": "ym2612"
    },
    {
      "channel": 1,
      "note": 74,
      "start": 6.4407,
      "duration": 0.016,
      "velocity": 83,
      "chip": "ym2612"
    },
    {
      "channel": 0,
      "note": 40,
      "start": 6.4508,
      "duration": 0.0162,
      "velocity": 115,
      "chip": "ym2612"
    },
    {
      "channel": 5,
      "note": 74,
      "start": 6.452,
      "duration": 0.0161,
      "velocity": 83,
      "chip": "ym2612"
    },
    {
      "channel": 3,
      "note": 74,
      "start": 6.4533,
      "duration": 0.0161,
      "velocity": 100,
      "chip": "ym2612"
    },
    {
      "channel": 2,
      "note": 78,
      "start": 6.4544,
      "duration": 0.0161,
      "velocity": 100,
      "chip": "ym2612"
    },
    {
      "channel": 4,
      "note": 59,
      "start": 6.4556,
      "duration": 0.0161,
      "velocity": 100,
      "chip": "ym2612"
    },
    {
      "channel": 1,
      "note": 74,
      "start": 6.4567,
      "duration": 0.0162,
      "velocity": 83,
      "chip": "ym2612"
    },
    {
      "channel": 0,
      "note": 40,
      "start": 6.467,
      "duration": 0.0161,
      "velocity": 115,
      "chip": "ym2612"
    },
    {
      "channel": 5,
      "note": 74,
      "start": 6.4681,
      "duration": 0.0162,
      "velocity": 83,
      "chip": "ym2612"
    },
    {
      "channel": 3,
      "note": 74,
      "start": 6.4694,
      "duration": 0.0161,
      "velocity": 100,
      "chip": "ym2612"
    },
    {
      "channel": 2,
      "note": 78,
      "start": 6.4705,
      "duration": 0.0161,
      "velocity": 100,
      "chip": "ym2612"
    },
    {
      "channel": 4,
      "note": 59,
      "start": 6.4717,
      "duration": 0.0161,
      "velocity": 100,
      "chip": "ym2612"
    },
    {
      "channel": 1,
      "note": 74,
      "start": 6.4729,
      "duration": 0.0161,
      "velocity": 83,
      "chip": "ym2612"
    },
    {
      "channel": 0,
      "note": 41,
      "start": 6.4831,
      "duration": 0.0161,
      "velocity": 115,
      "chip": "ym2612"
    },
    {
      "channel": 5,
      "note": 74,
      "start": 6.4843,
      "duration": 0.0161,
      "velocity": 83,
      "chip": "ym2612"
    },
    {
      "channel": 3,
      "note": 74,
      "start": 6.4854,
      "duration": 0.0161,
      "velocity": 100,
      "chip": "ym2612"
    },
    {
      "channel": 2,
      "note": 78,
      "start": 6.4866,
      "duration": 0.0161,
      "velocity": 100,
      "chip": "ym2612"
    },
    {
      "channel": 4,
      "note": 59,
      "start": 6.4877,
      "duration": 0.0161,
      "velocity": 100,
      "chip": "ym2612"
    },
    {
      "channel": 1,
      "note": 74,
      "start": 6.489,
      "duration": 0.0161,
      "velocity": 83,
      "chip": "ym2612"
    },
    {
      "channel": 0,
      "note": 41,
      "start": 6.4992,
      "duration": 0.0161,
      "velocity": 115,
      "chip": "ym2612"
    },
    {
      "channel": 5,
      "note": 74,
      "start": 6.5004,
      "duration": 0.0161,
      "velocity": 83,
      "chip": "ym2612"
    },
    {
      "channel": 3,
      "note": 74,
      "start": 6.5015,
      "duration": 0.0161,
      "velocity": 100,
      "chip": "ym2612"
    },
    {
      "channel": 2,
      "note": 78,
      "start": 6.5027,
      "duration": 0.0161,
      "velocity": 100,
      "chip": "ym2612"
    },
    {
      "channel": 4,
      "note": 59,
      "start": 6.5038,
      "duration": 0.0162,
      "velocity": 100,
      "chip": "ym2612"
    },
    {
      "channel": 1,
      "note": 74,
      "start": 6.505,
      "duration": 0.0161,
      "velocity": 83,
      "chip": "ym2612"
    },
    {
      "channel": 0,
      "note": 42,
      "start": 6.5153,
      "duration": 0.0161,
      "velocity": 115,
      "chip": "ym2612"
    },
    {
      "channel": 5,
      "note": 74,
      "start": 6.5165,
      "duration": 0.0161,
      "velocity": 83,
      "chip": "ym2612"
    },
    {
      "channel": 4,
      "note": 59,
      "start": 6.52,
      "duration": 0.017,
      "velocity": 100,
      "chip": "ym2612"
    },
    {
      "channel": 1,
      "note": 74,
      "start": 6.5211,
      "duration": 0.017,
      "velocity": 83,
      "chip": "ym2612"
    },
    {
      "channel": 0,
      "note": 42,
      "start": 6.5314,
      "duration": 0.0161,
      "velocity": 115,
      "chip": "ym2612"
    },
    {
      "channel": 5,
      "note": 74,
      "start": 6.5326,
      "duration": 0.0161,
      "velocity": 83,
      "chip": "ym2612"
    },
    {
      "channel": 3,
      "note": 74,
      "start": 6.5342,
      "duration": 0.0157,
      "velocity": 100,
      "chip": "ym2612"
    },
    {
      "channel": 2,
      "note": 78,
      "start": 6.5358,
      "duration": 0.0153,
      "velocity": 100,
      "chip": "ym2612"
    },
    {
      "channel": 4,
      "note": 59,
      "start": 6.537,
      "duration": 0.0153,
      "velocity": 100,
      "chip": "ym2612"
    },
    {
      "channel": 1,
      "note": 74,
      "start": 6.5381,
      "duration": 0.0153,
      "velocity": 83,
      "chip": "ym2612"
    },
    {
      "channel": 0,
      "note": 43,
      "start": 6.5475,
      "duration": 0.0161,
      "velocity": 115,
      "chip": "ym2612"
    },
    {
      "channel": 5,
      "note": 74,
      "start": 6.5487,
      "duration": 0.0161,
      "velocity": 83,
      "chip": "ym2612"
    },
    {
      "channel": 3,
      "note": 74,
      "start": 6.5499,
      "duration": 0.0161,
      "velocity": 100,
      "chip": "ym2612"
    },
    {
      "channel": 2,
      "note": 78,
      "start": 6.5512,
      "duration": 0.016,
      "velocity": 100,
      "chip": "ym2612"
    },
    {
      "channel": 4,
      "note": 59,
      "start": 6.5523,
      "duration": 0.016,
      "velocity": 100,
      "chip": "ym2612"
    },
    {
      "channel": 1,
      "note": 74,
      "start": 6.5534,
      "duration": 0.0161,
      "velocity": 83,
      "chip": "ym2612"
    },
    {
      "channel": 0,
      "note": 43,
      "start": 6.5636,
      "duration": 0.0162,
      "velocity": 115,
      "chip": "ym2612"
    },
    {
      "channel": 5,
      "note": 74,
      "start": 6.5648,
      "duration": 0.0162,
      "velocity": 83,
      "chip": "ym2612"
    },
    {
      "channel": 3,
      "note": 74,
      "start": 6.566,
      "duration": 0.0162,
      "velocity": 100,
      "chip": "ym2612"
    },
    {
      "channel": 2,
      "note": 78,
      "start": 6.5672,
      "duration": 0.0162,
      "velocity": 100,
      "chip": "ym2612"
    },
    {
      "channel": 4,
      "note": 59,
      "start": 6.5683,
      "duration": 0.0161,
      "velocity": 100,
      "chip": "ym2612"
    },
    {
      "channel": 1,
      "note": 74,
      "start": 6.5695,
      "duration": 0.0161,
      "velocity": 83,
      "chip": "ym2612"
    },
    {
      "channel": 0,
      "note": 44,
      "start": 6.5798,
      "duration": 0.0163,
      "velocity": 115,
      "chip": "ym2612"
    },
    {
      "channel": 5,
      "note": 74,
      "start": 6.581,
      "duration": 0.0163,
      "velocity": 83,
      "chip": "ym2612"
    },
    {
      "channel": 3,
      "note": 74,
      "start": 6.5822,
      "duration": 0.0163,
      "velocity": 100,
      "chip": "ym2612"
    },
    {
      "channel": 2,
      "note": 78,
      "start": 6.5834,
      "duration": 0.0163,
      "velocity": 100,
      "chip": "ym2612"
    },
    {
      "channel": 4,
      "note": 59,
      "start": 6.5845,
      "duration": 0.0164,
      "velocity": 100,
      "chip": "ym2612"
    },
    {
      "channel": 1,
      "note": 74,
      "start": 6.5856,
      "duration": 0.0165,
      "velocity": 83,
      "chip": "ym2612"
    },
    {
      "channel": 0,
      "note": 44,
      "start": 6.5962,
      "duration": 0.0163,
      "velocity": 115,
      "chip": "ym2612"
    },
    {
      "channel": 5,
      "note": 74,
      "start": 6.5973,
      "duration": 0.0163,
      "velocity": 83,
      "chip": "ym2612"
    },
    {
      "channel": 3,
      "note": 74,
      "start": 6.5985,
      "duration": 0.0163,
      "velocity": 100,
      "chip": "ym2612"
    },
    {
      "channel": 2,
      "note": 78,
      "start": 6.5997,
      "duration": 0.0163,
      "velocity": 100,
      "chip": "ym2612"
    },
    {
      "channel": 4,
      "note": 59,
      "start": 6.6009,
      "duration": 0.0163,
      "velocity": 100,
      "chip": "ym2612"
    },
    {
      "channel": 1,
      "note": 74,
      "start": 6.6021,
      "duration": 0.0163,
      "velocity": 83,
      "chip": "ym2612"
    },
    {
      "channel": 0,
      "note": 44,
      "start": 6.6125,
      "duration": 0.0161,
      "velocity": 115,
      "chip": "ym2612"
    },
    {
      "channel": 5,
      "note": 74,
      "start": 6.6137,
      "duration": 0.0161,
      "velocity": 83,
      "chip": "ym2612"
    },
    {
      "channel": 3,
      "note": 74,
      "start": 6.6148,
      "duration": 0.0161,
      "velocity": 100,
      "chip": "ym2612"
    },
    {
      "channel": 2,
      "note": 78,
      "start": 6.616,
      "duration": 0.0161,
      "velocity": 100,
      "chip": "ym2612"
    },
    {
      "channel": 4,
      "note": 59,
      "start": 6.6172,
      "duration": 0.0162,
      "velocity": 100,
      "chip": "ym2612"
    },
    {
      "channel": 1,
      "note": 74,
      "start": 6.6184,
      "duration": 0.0161,
      "velocity": 83,
      "chip": "ym2612"
    },
    {
      "channel": 0,
      "note": 45,
      "start": 6.6286,
      "duration": 0.0179,
      "velocity": 115,
      "chip": "ym2612"
    },
    {
      "channel": 5,
      "note": 74,
      "start": 6.6298,
      "duration": 0.0179,
      "velocity": 83,
      "chip": "ym2612"
    },
    {
      "channel": 3,
      "note": 74,
      "start": 6.6309,
      "duration": 0.0179,
      "velocity": 100,
      "chip": "ym2612"
    },
    {
      "channel": 2,
      "note": 78,
      "start": 6.6321,
      "duration": 0.0179,
      "velocity": 100,
      "chip": "ym2612"
    },
    {
      "channel": 4,
      "note": 59,
      "start": 6.6334,
      "duration": 0.018,
      "velocity": 100,
      "chip": "ym2612"
    },
    {
      "channel": 1,
      "note": 74,
      "start": 6.6345,
      "duration": 0.0182,
      "velocity": 83,
      "chip": "ym2612"
    },
    {
      "channel": 0,
      "note": 36,
      "start": 6.6465,
      "duration": 0.0137,
      "velocity": 115,
      "chip": "ym2612"
    },
    {
      "channel": 5,
      "note": 74,
      "start": 6.6477,
      "duration": 0.0143,
      "velocity": 83,
      "chip": "ym2612"
    },
    {
      "channel": 3,
      "note": 74,
      "start": 6.6489,
      "duration": 0.0143,
      "velocity": 100,
      "chip": "ym2612"
    },
    {
      "channel": 2,
      "note": 78,
      "start": 6.65,
      "duration": 0.0143,
      "velocity": 100,
      "chip": "ym2612"
    },
    {
      "channel": 4,
      "note": 54,
      "start": 6.6515,
      "duration": 0.0141,
      "velocity": 100,
      "chip": "ym2612"
    },
    {
      "channel": 1,
      "note": 74,
      "start": 6.6527,
      "duration": 0.0141,
      "velocity": 83,
      "chip": "ym2612"
    },
    {
      "channel": 0,
      "note": 36,
      "start": 6.6602,
      "duration": 0.016,
      "velocity": 115,
      "chip": "ym2612"
    },
    {
      "channel": 5,
      "note": 74,
      "start": 6.662,
      "duration": 0.016,
      "velocity": 83,
      "chip": "ym2612"
    },
    {
      "channel": 3,
      "note": 74,
      "start": 6.6632,
      "duration": 0.016,
      "velocity": 100,
      "chip": "ym2612"
    },
    {
      "channel": 2,
      "note": 78,
      "start": 6.6643,
      "duration": 0.016,
      "velocity": 100,
      "chip": "ym2612"
    },
    {
      "channel": 4,
      "note": 54,
      "start": 6.6656,
      "duration": 0.016,
      "velocity": 100,
      "chip": "ym2612"
    },
    {
      "channel": 1,
      "note": 74,
      "start": 6.6668,
      "duration": 0.0159,
      "velocity": 83,
      "chip": "ym2612"
    },
    {
      "channel": 0,
      "note": 37,
      "start": 6.6763,
      "duration": 0.0161,
      "velocity": 115,
      "chip": "ym2612"
    },
    {
      "channel": 5,
      "note": 74,
      "start": 6.678,
      "duration": 0.0159,
      "velocity": 83,
      "chip": "ym2612"
    },
    {
      "channel": 3,
      "note": 74,
      "start": 6.6792,
      "duration": 0.0161,
      "velocity": 100,
      "chip": "ym2612"
    },
    {
      "channel": 2,
      "note": 78,
      "start": 6.6804,
      "duration": 0.0161,
      "velocity": 100,
      "chip": "ym2612"
    },
    {
      "channel": 4,
      "note": 54,
      "start": 6.6816,
      "duration": 0.0161,
      "velocity": 100,
      "chip": "ym2612"
    },
    {
      "channel": 1,
      "note": 74,
      "start": 6.6827,
      "duration": 0.0161,
      "velocity": 83,
      "chip": "ym2612"
    },
    {
      "channel": 0,
      "note": 37,
      "start": 6.6924,
      "duration": 0.0161,
      "velocity": 115,
      "chip": "ym2612"
    },
    {
      "channel": 5,
      "note": 74,
      "start": 6.6939,
      "duration": 0.0158,
      "velocity": 83,
      "chip": "ym2612"
    },
    {
      "channel": 3,
      "note": 74,
      "start": 6.6953,
      "duration": 0.0161,
      "velocity": 100,
      "chip": "ym2612"
    },
    {
      "channel": 2,
      "note": 78,
      "start": 6.6965,
      "duration": 0.0161,
      "velocity": 100,
      "chip": "ym2612"
    },
    {
      "channel": 4,
      "note": 54,
      "start": 6.6977,
      "duration": 0.0161,
      "velocity": 100,
      "chip": "ym2612"
    },
    {
      "channel": 1,
      "note": 74,
      "start": 6.6989,
      "duration": 0.0161,
      "velocity": 83,
      "chip": "ym2612"
    },
    {
      "channel": 0,
      "note": 38,
      "start": 6.7085,
      "duration": 0.0161,
      "velocity": 115,
      "chip": "ym2612"
    },
    {
      "channel": 5,
      "note": 74,
      "start": 6.7097,
      "duration": 0.0162,
      "velocity": 83,
      "chip": "ym2612"
    },
    {
      "channel": 3,
      "note": 74,
      "start": 6.7114,
      "duration": 0.0158,
      "velocity": 100,
      "chip": "ym2612"
    },
    {
      "channel": 2,
      "note": 78,
      "start": 6.7126,
      "duration": 0.0161,
      "velocity": 100,
      "chip": "ym2612"
    },
    {
      "channel": 4,
      "note": 54,
      "start": 6.7138,
      "duration": 0.0161,
      "velocity": 100,
      "chip": "ym2612"
    },
    {
      "channel": 1,
      "note": 74,
      "start": 6.715,
      "duration": 0.0161,
      "velocity": 83,
      "chip": "ym2612"
    },
    {
      "channel": 0,
      "note": 38,
      "start": 6.7246,
      "duration": 0.0161,
      "velocity": 115,
      "chip": "ym2612"
    },
    {
      "channel": 5,
      "note": 74,
      "start": 6.7259,
      "duration": 0.016,
      "velocity": 83,
      "chip": "ym2612"
    },
    {
      "channel": 3,
      "note": 74,
      "start": 6.7272,
      "duration": 0.0159,
      "velocity": 100,
      "chip": "ym2612"
    },
    {
      "channel": 2,
      "note": 78,
      "start": 6.7287,
      "duration": 0.016,
      "velocity": 100,
      "chip": "ym2612"
    },
    {
      "channel": 4,
      "note": 54,
      "start": 6.7298,
      "duration": 0.0161,
      "velocity": 100,
      "chip": "ym2612"
    },
    {
      "channel": 1,
      "note": 74,
      "start": 6.7311,
      "duration": 0.0161,
      "velocity": 83,
      "chip": "ym2612"
    },
    {
      "channel": 0,
      "note": 39,
      "start": 6.7407,
      "duration": 0.0179,
      "velocity": 124,
      "chip": "ym2612"
    },
    {
      "channel": 5,
      "note": 74,
      "start": 6.7419,
      "duration": 0.0179,
      "velocity": 83,
      "chip": "ym2612"
    },
    {
      "channel": 4,
      "note": 54,
      "start": 6.7459,
      "duration": 0.0186,
      "velocity": 100,
      "chip": "ym2612"
    },
    {
      "channel": 1,
      "note": 74,
      "start": 6.7471,
      "duration": 0.0186,
      "velocity": 83,
      "chip": "ym2612"
    },
    {
      "channel": 0,
      "note": 84,
      "start": 6.7587,
      "duration": 0.0143,
      "velocity": 124,
      "chip": "ym2612"
    },
    {
      "channel": 5,
      "note": 74,
      "start": 6.7598,
      "duration": 0.0144,
      "velocity": 83,
      "chip": "ym2612"
    },
    {
      "channel": 3,
      "note": 74,
      "start": 6.7619,
      "duration": 0.0135,
      "velocity": 100,
      "chip": "ym2612"
    },
    {
      "channel": 2,
      "note": 78,
      "start": 6.7634,
      "duration": 0.0132,
      "velocity": 100,
      "chip": "ym2612"
    },
    {
      "channel": 4,
      "note": 54,
      "start": 6.7646,
      "duration": 0.0137,
      "velocity": 100,
      "chip": "ym2612"
    },
    {
      "channel": 1,
      "note": 74,
      "start": 6.7658,
      "duration": 0.0137,
      "velocity": 83,
      "chip": "ym2612"
    },
    {
      "channel": 0,
      "note": 82,
      "start": 6.773,
      "duration": 0.016,
      "velocity": 124,
      "chip": "ym2612"
    },
    {
      "channel": 5,
      "note": 74,
      "start": 6.7742,
      "duration": 0.016,
      "velocity": 83,
      "chip": "ym2612"
    },
    {
      "channel": 3,
      "note": 74,
      "start": 6.7754,
      "duration": 0.016,
      "velocity": 100,
      "chip": "ym2612"
    },
    {
      "channel": 2,
      "note": 78,
      "start": 6.7766,
      "duration": 0.0159,
      "velocity": 100,
      "chip": "ym2612"
    },
    {
      "channel": 4,
      "note": 54,
      "start": 6.7783,
      "duration": 0.0156,
      "velocity": 100,
      "chip": "ym2612"
    },
    {
      "channel": 1,
      "note": 74,
      "start": 6.7795,
      "duration": 0.0159,
      "velocity": 83,
      "chip": "ym2612"
    },
    {
      "channel": 0,
      "note": 80,
      "start": 6.789,
      "duration": 0.0161,
      "velocity": 124,
      "chip": "ym2612"
    },
    {
      "channel": 5,
      "note": 74,
      "start": 6.7902,
      "duration": 0.0161,
      "velocity": 83,
      "chip": "ym2612"
    },
    {
      "channel": 3,
      "note": 74,
      "start": 6.7914,
      "duration": 0.0161,
      "velocity": 100,
      "chip": "ym2612"
    },
    {
      "channel": 2,
      "note": 78,
      "start": 6.7925,
      "duration": 0.0161,
      "velocity": 100,
      "chip": "ym2612"
    },
    {
      "channel": 4,
      "note": 54,
      "start": 6.7939,
      "duration": 0.0159,
      "velocity": 100,
      "chip": "ym2612"
    },
    {
      "channel": 1,
      "note": 74,
      "start": 6.7954,
      "duration": 0.016,
      "velocity": 83,
      "chip": "ym2612"
    },
    {
      "channel": 0,
      "note": 77,
      "start": 6.8051,
      "duration": 0.0161,
      "velocity": 124,
      "chip": "ym2612"
    },
    {
      "channel": 5,
      "note": 74,
      "start": 6.8063,
      "duration": 0.0161,
      "velocity": 83,
      "chip": "ym2612"
    },
    {
      "channel": 3,
      "note": 74,
      "start": 6.8075,
      "duration": 0.0161,
      "velocity": 100,
      "chip": "ym2612"
    },
    {
      "channel": 2,
      "note": 78,
      "start": 6.8086,
      "duration": 0.0161,
      "velocity": 100,
      "chip": "ym2612"
    },
    {
      "channel": 4,
      "note": 54,
      "start": 6.8098,
      "duration": 0.0161,
      "velocity": 100,
      "chip": "ym2612"
    },
    {
      "channel": 1,
      "note": 74,
      "start": 6.8115,
      "duration": 0.0158,
      "velocity": 83,
      "chip": "ym2612"
    },
    {
      "channel": 0,
      "note": 75,
      "start": 6.8212,
      "duration": 0.0161,
      "velocity": 124,
      "chip": "ym2612"
    },
    {
      "channel": 5,
      "note": 74,
      "start": 6.8224,
      "duration": 0.0161,
      "velocity": 83,
      "chip": "ym2612"
    },
    {
      "channel": 3,
      "note": 74,
      "start": 6.8236,
      "duration": 0.0161,
      "velocity": 100,
      "chip": "ym2612"
    },
    {
      "channel": 2,
      "note": 78,
      "start": 6.8247,
      "duration": 0.0162,
      "velocity": 100,
      "chip": "ym2612"
    },
    {
      "channel": 4,
      "note": 54,
      "start": 6.8259,
      "duration": 0.0161,
      "velocity": 100,
      "chip": "ym2612"
    },
    {
      "channel": 1,
      "note": 74,
      "start": 6.8273,
      "duration": 0.0159,
      "velocity": 83,
      "chip": "ym2612"
    },
    {
      "channel": 0,
      "note": 72,
      "start": 6.8373,
      "duration": 0.0161,
      "velocity": 124,
      "chip": "ym2612"
    },
    {
      "channel": 5,
      "note": 74,
      "start": 6.8385,
      "duration": 0.0161,
      "velocity": 83,
      "chip": "ym2612"
    },
    {
      "channel": 3,
      "note": 74,
      "start": 6.8396,
      "duration": 0.0162,
      "velocity": 100,
      "chip": "ym2612"
    },
    {
      "channel": 2,
      "note": 78,
      "start": 6.8409,
      "duration": 0.0161,
      "velocity": 100,
      "chip": "ym2612"
    },
    {
      "channel": 4,
      "note": 54,
      "start": 6.842,
      "duration": 0.0161,
      "velocity": 100,
      "chip": "ym2612"
    },
    {
      "channel": 1,
      "note": 74,
      "start": 6.8432,
      "duration": 0.0161,
      "velocity": 83,
      "chip": "ym2612"
    },
    {
      "channel": 0,
      "note": 70,
      "start": 6.8534,
      "duration": 0.0161,
      "velocity": 124,
      "chip": "ym2612"
    },
    {
      "channel": 5,
      "note": 74,
      "start": 6.8546,
      "duration": 0.0161,
      "velocity": 83,
      "chip": "ym2612"
    },
    {
      "channel": 3,
      "note": 74,
      "start": 6.8558,
      "duration": 0.016,
      "velocity": 100,
      "chip": "ym2612"
    },
    {
      "channel": 2,
      "note": 78,
      "start": 6.857,
      "duration": 0.0161,
      "velocity": 100,
      "chip": "ym2612"
    },
    {
      "channel": 4,
      "note": 54,
      "start": 6.8581,
      "duration": 0.0161,
      "velocity": 100,
      "chip": "ym2612"
    },
    {
      "channel": 1,
      "note": 74,
      "start": 6.8593,
      "duration": 0.016,
      "velocity": 83,
      "chip": "ym2612"
    },
    {
      "channel": 0,
      "note": 68,
      "start": 6.8695,
      "duration": 0.0161,
      "velocity": 124,
      "chip": "ym2612"
    },
    {
      "channel": 5,
      "note": 74,
      "start": 6.8707,
      "duration": 0.0161,
      "velocity": 83,
      "chip": "ym2612"
    },
    {
      "channel": 3,
      "note": 74,
      "start": 6.8718,
      "duration": 0.0161,
      "velocity": 100,
      "chip": "ym2612"
    },
    {
      "channel": 2,
      "note": 78,
      "start": 6.873,
      "duration": 0.0161,
      "velocity": 100,
      "chip": "ym2612"
    },
    {
      "channel": 4,
      "note": 54,
      "start": 6.8742,
      "duration": 0.0161,
      "velocity": 100,
      "chip": "ym2612"
    },
    {
      "channel": 1,
      "note": 74,
      "start": 6.8753,
      "duration": 0.0161,
      "velocity": 83,
      "chip": "ym2612"
    },
    {
      "channel": 0,
      "note": 65,
      "start": 6.8856,
      "duration": 0.0161,
      "velocity": 124,
      "chip": "ym2612"
    },
    {
      "channel": 5,
      "note": 74,
      "start": 6.8868,
      "duration": 0.0161,
      "velocity": 83,
      "chip": "ym2612"
    },
    {
      "channel": 3,
      "note": 74,
      "start": 6.8879,
      "duration": 0.0161,
      "velocity": 100,
      "chip": "ym2612"
    },
    {
      "channel": 2,
      "note": 78,
      "start": 6.8891,
      "duration": 0.0161,
      "velocity": 100,
      "chip": "ym2612"
    },
    {
      "channel": 4,
      "note": 54,
      "start": 6.8903,
      "duration": 0.0161,
      "velocity": 100,
      "chip": "ym2612"
    },
    {
      "channel": 1,
      "note": 74,
      "start": 6.8914,
      "duration": 0.0162,
      "velocity": 83,
      "chip": "ym2612"
    },
    {
      "channel": 0,
      "note": 63,
      "start": 6.9017,
      "duration": 0.0153,
      "velocity": 1,
      "chip": "ym2612"
    },
    {
      "channel": 5,
      "note": 74,
      "start": 6.9029,
      "duration": 0.0153,
      "velocity": 83,
      "chip": "ym2612"
    },
    {
      "channel": 3,
      "note": 74,
      "start": 6.9041,
      "duration": 0.0153,
      "velocity": 100,
      "chip": "ym2612"
    },
    {
      "channel": 2,
      "note": 78,
      "start": 6.9052,
      "duration": 0.0153,
      "velocity": 100,
      "chip": "ym2612"
    },
    {
      "channel": 4,
      "note": 54,
      "start": 6.9064,
      "duration": 0.0153,
      "velocity": 100,
      "chip": "ym2612"
    },
    {
      "channel": 1,
      "note": 74,
      "start": 6.9076,
      "duration": 0.0153,
      "velocity": 83,
      "chip": "ym2612"
    },
    {
      "channel": 5,
      "note": 74,
      "start": 6.9182,
      "duration": 0.0152,
      "velocity": 83,
      "chip": "ym2612"
    },
    {
      "channel": 3,
      "note": 74,
      "start": 6.9194,
      "duration": 0.0153,
      "velocity": 100,
      "chip": "ym2612"
    },
    {
      "channel": 2,
      "note": 78,
      "start": 6.9205,
      "duration": 0.0153,
      "velocity": 100,
      "chip": "ym2612"
    },
    {
      "channel": 4,
      "note": 54,
      "start": 6.9217,
      "duration": 0.0153,
      "velocity": 100,
      "chip": "ym2612"
    },
    {
      "channel": 1,
      "note": 74,
      "start": 6.9229,
      "duration": 0.0153,
      "velocity": 83,
      "chip": "ym2612"
    },
    {
      "channel": 5,
      "note": 74,
      "start": 6.9334,
      "duration": 0.0161,
      "velocity": 83,
      "chip": "ym2612"
    },
    {
      "channel": 3,
      "note": 74,
      "start": 6.9346,
      "duration": 0.0161,
      "velocity": 100,
      "chip": "ym2612"
    },
    {
      "channel": 2,
      "note": 78,
      "start": 6.9358,
      "duration": 0.0161,
      "velocity": 100,
      "chip": "ym2612"
    },
    {
      "channel": 4,
      "note": 54,
      "start": 6.937,
      "duration": 0.0161,
      "velocity": 100,
      "chip": "ym2612"
    },
    {
      "channel": 1,
      "note": 74,
      "start": 6.9382,
      "duration": 0.0161,
      "velocity": 83,
      "chip": "ym2612"
    },
    {
      "channel": 5,
      "note": 74,
      "start": 6.9495,
      "duration": 0.0161,
      "velocity": 83,
      "chip": "ym2612"
    },
    {
      "channel": 3,
      "note": 74,
      "start": 6.9507,
      "duration": 0.0161,
      "velocity": 100,
      "chip": "ym2612"
    },
    {
      "channel": 2,
      "note": 78,
      "start": 6.9519,
      "duration": 0.0161,
      "velocity": 100,
      "chip": "ym2612"
    },
    {
      "channel": 4,
      "note": 54,
      "start": 6.9531,
      "duration": 0.0161,
      "velocity": 100,
      "chip": "ym2612"
    },
    {
      "channel": 5,
      "note": 74,
      "start": 6.9656,
      "duration": 0.0162,
      "velocity": 83,
      "chip": "ym2612"
    },
    {
      "channel": 4,
      "note": 54,
      "start": 6.9692,
      "duration": 0.0171,
      "velocity": 100,
      "chip": "ym2612"
    },
    {
      "channel": 5,
      "note": 74,
      "start": 6.9818,
      "duration": 0.0161,
      "velocity": 83,
      "chip": "ym2612"
    },
    {
      "channel": 3,
      "note": 74,
      "start": 6.9833,
      "duration": 0.0158,
      "velocity": 100,
      "chip": "ym2612"
    },
    {
      "channel": 2,
      "note": 78,
      "start": 6.9848,
      "duration": 0.0155,
      "velocity": 100,
      "chip": "ym2612"
    },
    {
      "channel": 4,
      "note": 59,
      "start": 6.9863,
      "duration": 0.0151,
      "velocity": 100,
      "chip": "ym2612"
    },
    {
      "channel": 1,
      "note": 69,
      "start": 6.9878,
      "duration": 0.0149,
      "velocity": 83,
      "chip": "ym2612"
    },
    {
      "channel": 5,
      "note": 74,
      "start": 6.9978,
      "duration": 0.0161,
      "velocity": 83,
      "chip": "ym2612"
    },
    {
      "channel": 3,
      "note": 74,
      "start": 6.9991,
      "duration": 0.016,
      "velocity": 100,
      "chip": "ym2612"
    },
    {
      "channel": 2,
      "note": 78,
      "start": 7.0003,
      "duration": 0.016,
      "velocity": 100,
      "chip": "ym2612"
    },
    {
      "channel": 4,
      "note": 59,
      "start": 7.0015,
      "duration": 0.016,
      "velocity": 100,
      "chip": "ym2612"
    },
    {
      "channel": 1,
      "note": 69,
      "start": 7.0027,
      "duration": 0.0159,
      "velocity": 83,
      "chip": "ym2612"
    },
    {
      "channel": 3,
      "note": 74,
      "start": 7.0151,
      "duration": 0.0161,
      "velocity": 100,
      "chip": "ym2612"
    },
    {
      "channel": 2,
      "note": 78,
      "start": 7.0163,
      "duration": 0.0161,
      "velocity": 100,
      "chip": "ym2612"
    },
    {
      "channel": 4,
      "note": 59,
      "start": 7.0174,
      "duration": 0.0161,
      "velocity": 100,
      "chip": "ym2612"
    },
    {
      "channel": 1,
      "note": 69,
      "start": 7.0186,
      "duration": 0.0161,
      "velocity": 83,
      "chip": "ym2612"
    },
    {
      "channel": 3,
      "note": 74,
      "start": 7.0312,
      "duration": 0.0164,
      "velocity": 100,
      "chip": "ym2612"
    },
    {
      "channel": 2,
      "note": 78,
      "start": 7.0324,
      "duration": 0.0164,
      "velocity": 100,
      "chip": "ym2612"
    },
    {
      "channel": 4,
      "note": 59,
      "start": 7.0335,
      "duration": 0.0164,
      "velocity": 100,
      "chip": "ym2612"
    },
    {
      "channel": 1,
      "note": 69,
      "start": 7.0347,
      "duration": 0.0163,
      "velocity": 83,
      "chip": "ym2612"
    },
    {
      "channel": 5,
      "note": 69,
      "start": 7.0465,
      "duration": 0.0162,
      "velocity": 83,
      "chip": "ym2612"
    },
    {
      "channel": 3,
      "note": 74,
      "start": 7.0477,
      "duration": 0.0161,
      "velocity": 100,
      "chip": "ym2612"
    },
    {
      "channel": 2,
      "note": 78,
      "start": 7.0488,
      "duration": 0.0162,
      "velocity": 100,
      "chip": "ym2612"
    },
    {
      "channel": 4,
      "note": 59,
      "start": 7.05,
      "duration": 0.0162,
      "velocity": 100,
      "chip": "ym2612"
    },
    {
      "channel": 1,
      "note": 69,
      "start": 7.0511,
      "duration": 0.0162,
      "velocity": 83,
      "chip": "ym2612"
    },
    {
      "channel": 5,
      "note": 69,
      "start": 7.0627,
      "duration": 0.0162,
      "velocity": 83,
      "chip": "ym2612"
    },
    {
      "channel": 3,
      "note": 74,
      "start": 7.0638,
      "duration": 0.0163,
      "velocity": 100,
      "chip": "ym2612"
    },
    {
      "channel": 2,
      "note": 78,
      "start": 7.065,
      "duration": 0.0162,
      "velocity": 100,
      "chip": "ym2612"
    },
    {
      "channel": 4,
      "note": 59,
      "start": 7.0662,
      "duration": 0.0162,
      "velocity": 100,
      "chip": "ym2612"
    },
    {
      "channel": 1,
      "note": 69,
      "start": 7.0673,
      "duration": 0.0163,
      "velocity": 83,
      "chip": "ym2612"
    },
    {
      "channel": 5,
      "note": 69,
      "start": 7.0789,
      "duration": 0.0161,
      "velocity": 83,
      "chip": "ym2612"
    },
    {
      "channel": 3,
      "note": 74,
      "start": 7.0801,
      "duration": 0.0161,
      "velocity": 100,
      "chip": "ym2612"
    },
    {
      "channel": 2,
      "note": 78,
      "start": 7.0812,
      "duration": 0.0161,
      "velocity": 100,
      "chip": "ym2612"
    },
    {
      "channel": 4,
      "note": 59,
      "start": 7.0824,
      "duration": 0.0161,
      "velocity": 100,
      "chip": "ym2612"
    },
    {
      "channel": 1,
      "note": 69,
      "start": 7.0836,
      "duration": 0.0161,
      "velocity": 83,
      "chip": "ym2612"
    },
    {
      "channel": 5,
      "note": 69,
      "start": 7.095,
      "duration": 0.0158,
      "velocity": 83,
      "chip": "ym2612"
    },
    {
      "channel": 3,
      "note": 74,
      "start": 7.0962,
      "duration": 0.0161,
      "velocity": 100,
      "chip": "ym2612"
    },
    {
      "channel": 2,
      "note": 78,
      "start": 7.0973,
      "duration": 0.0161,
      "velocity": 100,
      "chip": "ym2612"
    },
    {
      "channel": 4,
      "note": 59,
      "start": 7.0985,
      "duration": 0.0161,
      "velocity": 100,
      "chip": "ym2612"
    },
    {
      "channel": 1,
      "note": 69,
      "start": 7.0997,
      "duration": 0.0161,
      "velocity": 83,
      "chip": "ym2612"
    },
    {
      "channel": 5,
      "note": 69,
      "start": 7.1108,
      "duration": 0.0159,
      "velocity": 83,
      "chip": "ym2612"
    },
    {
      "channel": 3,
      "note": 74,
      "start": 7.1123,
      "duration": 0.016,
      "velocity": 100,
      "chip": "ym2612"
    },
    {
      "channel": 2,
      "note": 78,
      "start": 7.1134,
      "duration": 0.0161,
      "velocity": 100,
      "chip": "ym2612"
    },
    {
      "channel": 4,
      "note": 59,
      "start": 7.1146,
      "duration": 0.0162,
      "velocity": 100,
      "chip": "ym2612"
    },
    {
      "channel": 1,
      "note": 69,
      "start": 7.1158,
      "duration": 0.0161,
      "velocity": 83,
      "chip": "ym2612"
    },
    {
      "channel": 5,
      "note": 69,
      "start": 7.1267,
      "duration": 0.0161,
      "velocity": 83,
      "chip": "ym2612"
    },
    {
      "channel": 3,
      "note": 74,
      "start": 7.1283,
      "duration": 0.0161,
      "velocity": 100,
      "chip": "ym2612"
    },
    {
      "channel": 2,
      "note": 78,
      "start": 7.1295,
      "duration": 0.0162,
      "velocity": 100,
      "chip": "ym2612"
    },
    {
      "channel": 4,
      "note": 59,
      "start": 7.1307,
      "duration": 0.0161,
      "velocity": 100,
      "chip": "ym2612"
    },
    {
      "channel": 1,
      "note": 69,
      "start": 7.1319,
      "duration": 0.0161,
      "velocity": 83,
      "chip": "ym2612"
    },
    {
      "channel": 5,
      "note": 69,
      "start": 7.1428,
      "duration": 0.016,
      "velocity": 83,
      "chip": "ym2612"
    },
    {
      "channel": 3,
      "note": 74,
      "start": 7.1444,
      "duration": 0.0156,
      "velocity": 100,
      "chip": "ym2612"
    },
    {
      "channel": 2,
      "note": 78,
      "start": 7.1457,
      "duration": 0.016,
      "velocity": 100,
      "chip": "ym2612"
    },
    {
      "channel": 4,
      "note": 59,
      "start": 7.1468,
      "duration": 0.016,
      "velocity": 100,
      "chip": "ym2612"
    },
    {
      "channel": 1,
      "note": 69,
      "start": 7.148,
      "duration": 0.0161,
      "velocity": 83,
      "chip": "ym2612"
    },
    {
      "channel": 5,
      "note": 69,
      "start": 7.1588,
      "duration": 0.0161,
      "velocity": 83,
      "chip": "ym2612"
    },
    {
      "channel": 3,
      "note": 74,
      "start": 7.16,
      "duration": 0.0161,
      "velocity": 100,
      "chip": "ym2612"
    },
    {
      "channel": 2,
      "note": 78,
      "start": 7.1617,
      "duration": 0.0158,
      "velocity": 100,
      "chip": "ym2612"
    },
    {
      "channel": 4,
      "note": 59,
      "start": 7.1629,
      "duration": 0.0162,
      "velocity": 100,
      "chip": "ym2612"
    },
    {
      "channel": 1,
      "note": 69,
      "start": 7.1641,
      "duration": 0.0161,
      "velocity": 83,
      "chip": "ym2612"
    },
    {
      "channel": 5,
      "note": 69,
      "start": 7.1749,
      "duration": 0.0161,
      "velocity": 83,
      "chip": "ym2612"
    },
    {
      "channel": 3,
      "note": 74,
      "start": 7.1761,
      "duration": 0.0161,
      "velocity": 100,
      "chip": "ym2612"
    },
    {
      "channel": 2,
      "note": 78,
      "start": 7.1774,
      "duration": 0.0159,
      "velocity": 100,
      "chip": "ym2612"
    },
    {
      "channel": 4,
      "note": 59,
      "start": 7.179,
      "duration": 0.0161,
      "velocity": 100,
      "chip": "ym2612"
    },
    {
      "channel": 5,
      "note": 69,
      "start": 7.191,
      "duration": 0.0202,
      "velocity": 83,
      "chip": "ym2612"
    },
    {
      "channel": 4,
      "note": 59,
      "start": 7.1951,
      "duration": 0.0206,
      "velocity": 100,
      "chip": "ym2612"
    },
    {
      "channel": 0,
      "note": 36,
      "start": 7.2095,
      "duration": 0.0143,
      "velocity": 115,
      "chip": "ym2612"
    },
    {
      "channel": 5,
      "note": 69,
      "start": 7.2112,
      "duration": 0.0138,
      "velocity": 83,
      "chip": "ym2612"
    },
    {
      "channel": 3,
      "note": 74,
      "start": 7.2127,
      "duration": 0.0135,
      "velocity": 100,
      "chip": "ym2612"
    },
    {
      "channel": 2,
      "note": 78,
      "start": 7.2143,
      "duration": 0.0137,
      "velocity": 100,
      "chip": "ym2612"
    },
    {
      "channel": 4,
      "note": 55,
      "start": 7.2157,
      "duration": 0.0135,
      "velocity": 100,
      "chip": "ym2612"
    },
    {
      "channel": 1,
      "note": 71,
      "start": 7.2173,
      "duration": 0.0132,
      "velocity": 83,
      "chip": "ym2612"
    },
    {
      "channel": 0,
      "note": 36,
      "start": 7.2238,
      "duration": 0.016,
      "velocity": 115,
      "chip": "ym2612"
    },
    {
      "channel": 5,
      "note": 69,
      "start": 7.225,
      "duration": 0.016,
      "velocity": 83,
      "chip": "ym2612"
    },
    {
      "channel": 3,
      "note": 74,
      "start": 7.2262,
      "duration": 0.016,
      "velocity": 100,
      "chip": "ym2612"
    },
    {
      "channel": 2,
      "note": 78,
      "start": 7.2279,
      "duration": 0.0155,
      "velocity": 100,
      "chip": "ym2612"
    },
    {
      "channel": 4,
      "note": 55,
      "start": 7.2292,
      "duration": 0.0159,
      "velocity": 100,
      "chip": "ym2612"
    },
    {
      "channel": 1,
      "note": 71,
      "start": 7.2305,
      "duration": 0.0159,
      "velocity": 83,
      "chip": "ym2612"
    },
    {
      "channel": 0,
      "note": 37,
      "start": 7.2398,
      "duration": 0.0161,
      "velocity": 115,
      "chip": "ym2612"
    },
    {
      "channel": 3,
      "note": 74,
      "start": 7.2422,
      "duration": 0.0161,
      "velocity": 100,
      "chip": "ym2612"
    },
    {
      "channel": 2,
      "note": 78,
      "start": 7.2434,
      "duration": 0.016,
      "velocity": 100,
      "chip": "ym2612"
    },
    {
      "channel": 4,
      "note": 55,
      "start": 7.2451,
      "duration": 0.016,
      "velocity": 100,
      "chip": "ym2612"
    },
    {
      "channel": 1,
      "note": 71,
      "start": 7.2463,
      "duration": 0.016,
      "velocity": 83,
      "chip": "ym2612"
    },
    {
      "channel": 0,
      "note": 37,
      "start": 7.2559,
      "duration": 0.0161,
      "velocity": 115,
      "chip": "ym2612"
    },
    {
      "channel": 3,
      "note": 74,
      "start": 7.2583,
      "duration": 0.0166,
      "velocity": 100,
      "chip": "ym2612"
    },
    {
      "channel": 2,
      "note": 78,
      "start": 7.2594,
      "duration": 0.0165,
      "velocity": 100,
      "chip": "ym2612"
    },
    {
      "channel": 4,
      "note": 55,
      "start": 7.2611,
      "duration": 0.0165,
      "velocity": 100,
      "chip": "ym2612"
    },
    {
      "channel": 1,
      "note": 71,
      "start": 7.2624,
      "duration": 0.0165,
      "velocity": 83,
      "chip": "ym2612"
    },
    {
      "channel": 0,
      "note": 38,
      "start": 7.272,
      "duration": 0.0161,
      "velocity": 115,
      "chip": "ym2612"
    },
    {
      "channel": 5,
      "note": 71,
      "start": 7.2736,
      "duration": 0.0158,
      "velocity": 83,
      "chip": "ym2612"
    },
    {
      "channel": 3,
      "note": 74,
      "start": 7.2748,
      "duration": 0.0157,
      "velocity": 100,
      "chip": "ym2612"
    },
    {
      "channel": 2,
      "note": 78,
      "start": 7.276,
      "duration": 0.0158,
      "velocity": 100,
      "chip": "ym2612"
    },
    {
      "channel": 4,
      "note": 55,
      "start": 7.2776,
      "duration": 0.0153,
      "velocity": 100,
      "chip": "ym2612"
    },
    {
      "channel": 1,
      "note": 71,
      "start": 7.2789,
      "duration": 0.0157,
      "velocity": 83,
      "chip": "ym2612"
    },
    {
      "channel": 0,
      "note": 38,
      "start": 7.2881,
      "duration": 0.0161,
      "velocity": 115,
      "chip": "ym2612"
    },
    {
      "channel": 5,
      "note": 71,
      "start": 7.2894,
      "duration": 0.016,
      "velocity": 83,
      "chip": "ym2612"
    },
    {
      "channel": 3,
      "note": 74,
      "start": 7.2905,
      "duration": 0.016,
      "velocity": 100,
      "chip": "ym2612"
    },
    {
      "channel": 2,
      "note": 78,
      "start": 7.2917,
      "duration": 0.016,
      "velocity": 100,
      "chip": "ym2612"
    },
    {
      "channel": 4,
      "note": 55,
      "start": 7.2929,
      "duration": 0.016,
      "velocity": 100,
      "chip": "ym2612"
    },
    {
      "channel": 1,
      "note": 71,
      "start": 7.2946,
      "duration": 0.0157,
      "velocity": 83,
      "chip": "ym2612"
    },
    {
      "channel": 0,
      "note": 39,
      "start": 7.3042,
      "duration": 0.0161,
      "velocity": 115,
      "chip": "ym2612"
    },
    {
      "channel": 5,
      "note": 71,
      "start": 7.3054,
      "duration": 0.0161,
      "velocity": 83,
      "chip": "ym2612"
    },
    {
      "channel": 3,
      "note": 74,
      "start": 7.3066,
      "duration": 0.0161,
      "velocity": 100,
      "chip": "ym2612"
    },
    {
      "channel": 2,
      "note": 78,
      "start": 7.3078,
      "duration": 0.0161,
      "velocity": 100,
      "chip": "ym2612"
    },
    {
      "channel": 4,
      "note": 55,
      "start": 7.3089,
      "duration": 0.0161,
      "velocity": 100,
      "chip": "ym2612"
    },
    {
      "channel": 1,
      "note": 71,
      "start": 7.3103,
      "duration": 0.0159,
      "velocity": 83,
      "chip": "ym2612"
    },
    {
      "channel": 0,
      "note": 39,
      "start": 7.3203,
      "duration": 0.0161,
      "velocity": 115,
      "chip": "ym2612"
    },
    {
      "channel": 5,
      "note": 71,
      "start": 7.3215,
      "duration": 0.0161,
      "velocity": 83,
      "chip": "ym2612"
    },
    {
      "channel": 3,
      "note": 74,
      "start": 7.3227,
      "duration": 0.0162,
      "velocity": 100,
      "chip": "ym2612"
    },
    {
      "channel": 2,
      "note": 78,
      "start": 7.3239,
      "duration": 0.0161,
      "velocity": 100,
      "chip": "ym2612"
    },
    {
      "channel": 4,
      "note": 55,
      "start": 7.325,
      "duration": 0.0161,
      "velocity": 100,
      "chip": "ym2612"
    },
    {
      "channel": 1,
      "note": 71,
      "start": 7.3262,
      "duration": 0.0161,
      "velocity": 83,
      "chip": "ym2612"
    },
    {
      "channel": 0,
      "note": 40,
      "start": 7.3364,
      "duration": 0.0162,
      "velocity": 115,
      "chip": "ym2612"
    },
    {
      "channel": 5,
      "note": 71,
      "start": 7.3376,
      "duration": 0.0161,
      "velocity": 83,
      "chip": "ym2612"
    },
    {
      "channel": 3,
      "note": 74,
      "start": 7.3388,
      "duration": 0.0161,
      "velocity": 100,
      "chip": "ym2612"
    },
    {
      "channel": 2,
      "note": 78,
      "start": 7.34,
      "duration": 0.0161,
      "velocity": 100,
      "chip": "ym2612"
    },
    {
      "channel": 4,
      "note": 55,
      "start": 7.3411,
      "duration": 0.0161,
      "velocity": 100,
      "chip": "ym2612"
    },
    {
      "channel": 1,
      "note": 71,
      "start": 7.3423,
      "duration": 0.0161,
      "velocity": 83,
      "chip": "ym2612"
    },
    {
      "channel": 0,
      "note": 40,
      "start": 7.3526,
      "duration": 0.0161,
      "velocity": 115,
      "chip": "ym2612"
    },
    {
      "channel": 5,
      "note": 71,
      "start": 7.3537,
      "duration": 0.0162,
      "velocity": 83,
      "chip": "ym2612"
    },
    {
      "channel": 3,
      "note": 74,
      "start": 7.3549,
      "duration": 0.0161,
      "velocity": 100,
      "chip": "ym2612"
    },
    {
      "channel": 2,
      "note": 78,
      "start": 7.3561,
      "duration": 0.0161,
      "velocity": 100,
      "chip": "ym2612"
    },
    {
      "channel": 4,
      "note": 55,
      "start": 7.3572,
      "duration": 0.0161,
      "velocity": 100,
      "chip": "ym2612"
    },
    {
      "channel": 1,
      "note": 71,
      "start": 7.3584,
      "duration": 0.0161,
      "velocity": 83,
      "chip": "ym2612"
    },
    {
      "channel": 0,
      "note": 40,
      "start": 7.3687,
      "duration": 0.0161,
      "velocity": 115,
      "chip": "ym2612"
    },
    {
      "channel": 5,
      "note": 71,
      "start": 7.3699,
      "duration": 0.016,
      "velocity": 83,
      "chip": "ym2612"
    },
    {
      "channel": 3,
      "note": 74,
      "start": 7.371,
      "duration": 0.0161,
      "velocity": 100,
      "chip": "ym2612"
    },
    {
      "channel": 2,
      "note": 78,
      "start": 7.3722,
      "duration": 0.0161,
      "velocity": 100,
      "chip": "ym2612"
    },
    {
      "channel": 4,
      "note": 55,
      "start": 7.3733,
      "duration": 0.0161,
      "velocity": 100,
      "chip": "ym2612"
    },
    {
      "channel": 1,
      "note": 71,
      "start": 7.3745,
      "duration": 0.0161,
      "velocity": 83,
      "chip": "ym2612"
    },
    {
      "channel": 0,
      "note": 41,
      "start": 7.3847,
      "duration": 0.0161,
      "velocity": 115,
      "chip": "ym2612"
    },
    {
      "channel": 5,
      "note": 71,
      "start": 7.3859,
      "duration": 0.0161,
      "velocity": 83,
      "chip": "ym2612"
    },
    {
      "channel": 3,
      "note": 74,
      "start": 7.3871,
      "duration": 0.0161,
      "velocity": 100,
      "chip": "ym2612"
    },
    {
      "channel": 2,
      "note": 78,
      "start": 7.3883,
      "duration": 0.0161,
      "velocity": 100,
      "chip": "ym2612"
    },
    {
      "channel": 4,
      "note": 55,
      "start": 7.3894,
      "duration": 0.0161,
      "velocity": 100,
      "chip": "ym2612"
    },
    {
      "channel": 1,
      "note": 71,
      "start": 7.3906,
      "duration": 0.0161,
      "velocity": 83,
      "chip": "ym2612"
    },
    {
      "channel": 0,
      "note": 41,
      "start": 7.4008,
      "duration": 0.0161,
      "velocity": 115,
      "chip": "ym2612"
    },
    {
      "channel": 5,
      "note": 71,
      "start": 7.402,
      "duration": 0.0161,
      "velocity": 83,
      "chip": "ym2612"
    },
    {
      "channel": 3,
      "note": 74,
      "start": 7.4032,
      "duration": 0.0161,
      "velocity": 100,
      "chip": "ym2612"
    },
    {
      "channel": 2,
      "note": 78,
      "start": 7.4043,
      "duration": 0.0161,
      "velocity": 100,
      "chip": "ym2612"
    },
    {
      "channel": 4,
      "note": 55,
      "start": 7.4055,
      "duration": 0.0162,
      "velocity": 100,
      "chip": "ym2612"
    },
    {
      "channel": 1,
      "note": 71,
      "start": 7.4067,
      "duration": 0.0161,
      "velocity": 83,
      "chip": "ym2612"
    },
    {
      "channel": 0,
      "note": 42,
      "start": 7.4169,
      "duration": 0.0161,
      "velocity": 115,
      "chip": "ym2612"
    },
    {
      "channel": 5,
      "note": 71,
      "start": 7.4181,
      "duration": 0.0161,
      "velocity": 83,
      "chip": "ym2612"
    },
    {
      "channel": 4,
      "note": 55,
      "start": 7.4217,
      "duration": 0.017,
      "velocity": 100,
      "chip": "ym2612"
    },
    {
      "channel": 1,
      "note": 71,
      "start": 7.4228,
      "duration": 0.0171,
      "velocity": 83,
      "chip": "ym2612"
    },
    {
      "channel": 0,
      "note": 42,
      "start": 7.433,
      "duration": 0.0161,
      "velocity": 115,
      "chip": "ym2612"
    },
    {
      "channel": 5,
      "note": 71,
      "start": 7.4342,
      "duration": 0.0161,
      "velocity": 83,
      "chip": "ym2612"
    },
    {
      "channel": 3,
      "note": 71,
      "start": 7.4359,
      "duration": 0.0156,
      "velocity": 100,
      "chip": "ym2612"
    },
    {
      "channel": 2,
      "note": 74,
      "start": 7.4376,
      "duration": 0.0153,
      "velocity": 100,
      "chip": "ym2612"
    },
    {
      "channel": 4,
      "note": 55,
      "start": 7.4387,
      "duration": 0.0153,
      "velocity": 100,
      "chip": "ym2612"
    },
    {
      "channel": 1,
      "note": 71,
      "start": 7.4399,
      "duration": 0.0152,
      "velocity": 83,
      "chip": "ym2612"
    },
    {
      "channel": 0,
      "note": 43,
      "start": 7.4491,
      "duration": 0.0161,
      "velocity": 115,
      "chip": "ym2612"
    },
    {
      "channel": 5,
      "note": 71,
      "start": 7.4503,
      "duration": 0.0161,
      "velocity": 83,
      "chip": "ym2612"
    },
    {
      "channel": 3,
      "note": 71,
      "start": 7.4515,
      "duration": 0.0161,
      "velocity": 100,
      "chip": "ym2612"
    },
    {
      "channel": 2,
      "note": 74,
      "start": 7.4528,
      "duration": 0.016,
      "velocity": 100,
      "chip": "ym2612"
    },
    {
      "channel": 4,
      "note": 55,
      "start": 7.454,
      "duration": 0.016,
      "velocity": 100,
      "chip": "ym2612"
    },
    {
      "channel": 1,
      "note": 71,
      "start": 7.4551,
      "duration": 0.016,
      "velocity": 83,
      "chip": "ym2612"
    },
    {
      "channel": 0,
      "note": 43,
      "start": 7.4652,
      "duration": 0.0161,
      "velocity": 115,
      "chip": "ym2612"
    },
    {
      "channel": 5,
      "note": 71,
      "start": 7.4664,
      "duration": 0.0161,
      "velocity": 83,
      "chip": "ym2612"
    },
    {
      "channel": 3,
      "note": 71,
      "start": 7.4676,
      "duration": 0.0161,
      "velocity": 100,
      "chip": "ym2612"
    },
    {
      "channel": 2,
      "note": 74,
      "start": 7.4688,
      "duration": 0.0161,
      "velocity": 100,
      "chip": "ym2612"
    },
    {
      "channel": 4,
      "note": 55,
      "start": 7.4699,
      "duration": 0.0161,
      "velocity": 100,
      "chip": "ym2612"
    },
    {
      "channel": 1,
      "note": 71,
      "start": 7.4711,
      "duration": 0.0161,
      "velocity": 83,
      "chip": "ym2612"
    },
    {
      "channel": 0,
      "note": 44,
      "start": 7.4813,
      "duration": 0.0161,
      "velocity": 115,
      "chip": "ym2612"
    },
    {
      "channel": 5,
      "note": 71,
      "start": 7.4825,
      "duration": 0.0161,
      "velocity": 83,
      "chip": "ym2612"
    },
    {
      "channel": 3,
      "note": 71,
      "start": 7.4837,
      "duration": 0.0161,
      "velocity": 100,
      "chip": "ym2612"
    },
    {
      "channel": 2,
      "note": 74,
      "start": 7.4849,
      "duration": 0.0161,
      "velocity": 100,
      "chip": "ym2612"
    },
    {
      "channel": 4,
      "note": 55,
      "start": 7.486,
      "duration": 0.0161,
      "velocity": 100,
      "chip": "ym2612"
    },
    {
      "channel": 1,
      "note": 71,
      "start": 7.4872,
      "duration": 0.0161,
      "velocity": 83,
      "chip": "ym2612"
    },
    {
      "channel": 0,
      "note": 44,
      "start": 7.4974,
      "duration": 0.0162,
      "velocity": 115,
      "chip": "ym2612"
    },
    {
      "channel": 5,
      "note": 71,
      "start": 7.4986,
      "duration": 0.0162,
      "velocity": 83,
      "chip": "ym2612"
    },
    {
      "channel": 3,
      "note": 71,
      "start": 7.4998,
      "duration": 0.0162,
      "velocity": 100,
      "chip": "ym2612"
    },
    {
      "channel": 2,
      "note": 74,
      "start": 7.501,
      "duration": 0.0161,
      "velocity": 100,
      "chip": "ym2612"
    },
    {
      "channel": 4,
      "note": 55,
      "start": 7.5022,
      "duration": 0.0162,
      "velocity": 100,
      "chip": "ym2612"
    },
    {
      "channel": 1,
      "note": 71,
      "start": 7.5034,
      "duration": 0.0162,
      "velocity": 83,
      "chip": "ym2612"
    },
    {
      "channel": 0,
      "note": 44,
      "start": 7.5136,
      "duration": 0.0161,
      "velocity": 115,
      "chip": "ym2612"
    },
    {
      "channel": 5,
      "note": 71,
      "start": 7.5148,
      "duration": 0.0161,
      "velocity": 83,
      "chip": "ym2612"
    },
    {
      "channel": 3,
      "note": 71,
      "start": 7.516,
      "duration": 0.0161,
      "velocity": 100,
      "chip": "ym2612"
    },
    {
      "channel": 2,
      "note": 74,
      "start": 7.5171,
      "duration": 0.0161,
      "velocity": 100,
      "chip": "ym2612"
    },
    {
      "channel": 4,
      "note": 55,
      "start": 7.5183,
      "duration": 0.0161,
      "velocity": 100,
      "chip": "ym2612"
    },
    {
      "channel": 0,
      "note": 45,
      "start": 7.5297,
      "duration": 0.0182,
      "velocity": 115,
      "chip": "ym2612"
    },
    {
      "channel": 5,
      "note": 71,
      "start": 7.5309,
      "duration": 0.0183,
      "velocity": 83,
      "chip": "ym2612"
    },
    {
      "channel": 3,
      "note": 71,
      "start": 7.5321,
      "duration": 0.0183,
      "velocity": 100,
      "chip": "ym2612"
    },
    {
      "channel": 2,
      "note": 74,
      "start": 7.5332,
      "duration": 0.0183,
      "velocity": 100,
      "chip": "ym2612"
    },
    {
      "channel": 4,
      "note": 55,
      "start": 7.5344,
      "duration": 0.0185,
      "velocity": 100,
      "chip": "ym2612"
    },
    {
      "channel": 0,
      "note": 36,
      "start": 7.548,
      "duration": 0.0145,
      "velocity": 115,
      "chip": "ym2612"
    },
    {
      "channel": 5,
      "note": 71,
      "start": 7.5492,
      "duration": 0.0146,
      "velocity": 83,
      "chip": "ym2612"
    },
    {
      "channel": 3,
      "note": 71,
      "start": 7.5503,
      "duration": 0.0146,
      "velocity": 100,
      "chip": "ym2612"
    },
    {
      "channel": 2,
      "note": 74,
      "start": 7.5515,
      "duration": 0.0146,
      "velocity": 100,
      "chip": "ym2612"
    },
    {
      "channel": 4,
      "note": 50,
      "start": 7.5529,
      "duration": 0.0143,
      "velocity": 100,
      "chip": "ym2612"
    },
    {
      "channel": 1,
      "note": 74,
      "start": 7.5544,
      "duration": 0.0141,
      "velocity": 83,
      "chip": "ym2612"
    },
    {
      "channel": 0,
      "note": 36,
      "start": 7.5625,
      "duration": 0.0161,
      "velocity": 115,
      "chip": "ym2612"
    },
    {
      "channel": 5,
      "note": 71,
      "start": 7.5638,
      "duration": 0.016,
      "velocity": 83,
      "chip": "ym2612"
    },
    {
      "channel": 3,
      "note": 71,
      "start": 7.5649,
      "duration": 0.016,
      "velocity": 100,
      "chip": "ym2612"
    },
    {
      "channel": 2,
      "note": 74,
      "start": 7.5661,
      "duration": 0.016,
      "velocity": 100,
      "chip": "ym2612"
    },
    {
      "channel": 4,
      "note": 50,
      "start": 7.5673,
      "duration": 0.016,
      "velocity": 100,
      "chip": "ym2612"
    },
    {
      "channel": 1,
      "note": 74,
      "start": 7.5685,
      "duration": 0.0159,
      "velocity": 83,
      "chip": "ym2612"
    },
    {
      "channel": 0,
      "note": 37,
      "start": 7.5786,
      "duration": 0.016,
      "velocity": 115,
      "chip": "ym2612"
    },
    {
      "channel": 3,
      "note": 71,
      "start": 7.5809,
      "duration": 0.0161,
      "velocity": 100,
      "chip": "ym2612"
    },
    {
      "channel": 2,
      "note": 74,
      "start": 7.5821,
      "duration": 0.0161,
      "velocity": 100,
      "chip": "ym2612"
    },
    {
      "channel": 4,
      "note": 50,
      "start": 7.5832,
      "duration": 0.0161,
      "velocity": 100,
      "chip": "ym2612"
    },
    {
      "channel": 1,
      "note": 74,
      "start": 7.5844,
      "duration": 0.0161,
      "velocity": 83,
      "chip": "ym2612"
    },
    {
      "channel": 0,
      "note": 37,
      "start": 7.5946,
      "duration": 0.0158,
      "velocity": 115,
      "chip": "ym2612"
    },
    {
      "channel": 3,
      "note": 71,
      "start": 7.597,
      "duration": 0.0163,
      "velocity": 100,
      "chip": "ym2612"
    },
    {
      "channel": 2,
      "note": 74,
      "start": 7.5982,
      "duration": 0.0164,
      "velocity": 100,
      "chip": "ym2612"
    },
    {
      "channel": 4,
      "note": 50,
      "start": 7.5993,
      "duration": 0.0164,
      "velocity": 100,
      "chip": "ym2612"
    },
    {
      "channel": 1,
      "note": 74,
      "start": 7.6005,
      "duration": 0.0163,
      "velocity": 83,
      "chip": "ym2612"
    },
    {
      "channel": 0,
      "note": 38,
      "start": 7.6104,
      "duration": 0.0159,
      "velocity": 115,
      "chip": "ym2612"
    },
    {
      "channel": 5,
      "note": 74,
      "start": 7.6122,
      "duration": 0.0159,
      "velocity": 83,
      "chip": "ym2612"
    },
    {
      "channel": 3,
      "note": 71,
      "start": 7.6134,
      "duration": 0.0159,
      "velocity": 100,
      "chip": "ym2612"
    },
    {
      "channel": 2,
      "note": 74,
      "start": 7.6146,
      "duration": 0.0159,
      "velocity": 100,
      "chip": "ym2612"
    },
    {
      "channel": 4,
      "note": 50,
      "start": 7.6157,
      "duration": 0.0158,
      "velocity": 100,
      "chip": "ym2612"
    },
    {
      "channel": 1,
      "note": 74,
      "start": 7.6169,
      "duration": 0.0159,
      "velocity": 83,
      "chip": "ym2612"
    },
    {
      "channel": 0,
      "note": 38,
      "start": 7.6262,
      "duration": 0.0161,
      "velocity": 115,
      "chip": "ym2612"
    },
    {
      "channel": 5,
      "note": 74,
      "start": 7.6281,
      "duration": 0.0157,
      "velocity": 83,
      "chip": "ym2612"
    },
    {
      "channel": 3,
      "note": 71,
      "start": 7.6293,
      "duration": 0.016,
      "velocity": 100,
      "chip": "ym2612"
    },
    {
      "channel": 2,
      "note": 74,
      "start": 7.6304,
      "duration": 0.0161,
      "velocity": 100,
      "chip": "ym2612"
    },
    {
      "channel": 4,
      "note": 50,
      "start": 7.6316,
      "duration": 0.0161,
      "velocity": 100,
      "chip": "ym2612"
    },
    {
      "channel": 1,
      "note": 74,
      "start": 7.6328,
      "duration": 0.0161,
      "velocity": 83,
      "chip": "ym2612"
    },
    {
      "channel": 0,
      "note": 39,
      "start": 7.6423,
      "duration": 0.0181,
      "velocity": 124,
      "chip": "ym2612"
    },
    {
      "channel": 5,
      "note": 74,
      "start": 7.6438,
      "duration": 0.0183,
      "velocity": 83,
      "chip": "ym2612"
    },
    {
      "channel": 4,
      "note": 50,
      "start": 7.6477,
      "duration": 0.0186,
      "velocity": 100,
      "chip": "ym2612"
    },
    {
      "channel": 1,
      "note": 74,
      "start": 7.6489,
      "duration": 0.0186,
      "velocity": 83,
      "chip": "ym2612"
    },
    {
      "channel": 0,
      "note": 84,
      "start": 7.6605,
      "duration": 0.0141,
      "velocity": 124,
      "chip": "ym2612"
    },
    {
      "channel": 5,
      "note": 74,
      "start": 7.6621,
      "duration": 0.0137,
      "velocity": 83,
      "chip": "ym2612"
    },
    {
      "channel": 3,
      "note": 71,
      "start": 7.6636,
      "duration": 0.0137,
      "velocity": 100,
      "chip": "ym2612"
    },
    {
      "channel": 2,
      "note": 74,
      "start": 7.6651,
      "duration": 0.0137,
      "velocity": 100,
      "chip": "ym2612"
    },
    {
      "channel": 4,
      "note": 50,
      "start": 7.6662,
      "duration": 0.0137,
      "velocity": 100,
      "chip": "ym2612"
    },
    {
      "channel": 1,
      "note": 74,
      "start": 7.6674,
      "duration": 0.0137,
      "velocity": 83,
      "chip": "ym2612"
    },
    {
      "channel": 0,
      "note": 82,
      "start": 7.6746,
      "duration": 0.016,
      "velocity": 124,
      "chip": "ym2612"
    },
    {
      "channel": 5,
      "note": 74,
      "start": 7.6759,
      "duration": 0.016,
      "velocity": 83,
      "chip": "ym2612"
    },
    {
      "channel": 3,
      "note": 71,
      "start": 7.6772,
      "duration": 0.0158,
      "velocity": 100,
      "chip": "ym2612"
    },
    {
      "channel": 2,
      "note": 74,
      "start": 7.6788,
      "duration": 0.0158,
      "velocity": 100,
      "chip": "ym2612"
    },
    {
      "channel": 4,
      "note": 50,
      "start": 7.68,
      "duration": 0.016,
      "velocity": 100,
      "chip": "ym2612"
    },
    {
      "channel": 1,
      "note": 74,
      "start": 7.6812,
      "duration": 0.0159,
      "velocity": 83,
      "chip": "ym2612"
    },
    {
      "channel": 0,
      "note": 80,
      "start": 7.6907,
      "duration": 0.0161,
      "velocity": 124,
      "chip": "ym2612"
    },
    {
      "channel": 5,
      "note": 74,
      "start": 7.6919,
      "duration": 0.0161,
      "velocity": 83,
      "chip": "ym2612"
    },
    {
      "channel": 3,
      "note": 71,
      "start": 7.693,
      "duration": 0.0161,
      "velocity": 100,
      "chip": "ym2612"
    },
    {
      "channel": 2,
      "note": 74,
      "start": 7.6947,
      "duration": 0.0159,
      "velocity": 100,
      "chip": "ym2612"
    },
    {
      "channel": 4,
      "note": 50,
      "start": 7.6959,
      "duration": 0.0161,
      "velocity": 100,
      "chip": "ym2612"
    },
    {
      "channel": 1,
      "note": 74,
      "start": 7.6971,
      "duration": 0.0161,
      "velocity": 83,
      "chip": "ym2612"
    },
    {
      "channel": 0,
      "note": 77,
      "start": 7.7068,
      "duration": 0.0161,
      "velocity": 124,
      "chip": "ym2612"
    },
    {
      "channel": 5,
      "note": 74,
      "start": 7.708,
      "duration": 0.0161,
      "velocity": 83,
      "chip": "ym2612"
    },
    {
      "channel": 3,
      "note": 71,
      "start": 7.7091,
      "duration": 0.0161,
      "velocity": 100,
      "chip": "ym2612"
    },
    {
      "channel": 2,
      "note": 74,
      "start": 7.7105,
      "duration": 0.0159,
      "velocity": 100,
      "chip": "ym2612"
    },
    {
      "channel": 4,
      "note": 50,
      "start": 7.712,
      "duration": 0.016,
      "velocity": 100,
      "chip": "ym2612"
    },
    {
      "channel": 1,
      "note": 74,
      "start": 7.7132,
      "duration": 0.0162,
      "velocity": 83,
      "chip": "ym2612"
    },
    {
      "channel": 0,
      "note": 75,
      "start": 7.7229,
      "duration": 0.0161,
      "velocity": 124,
      "chip": "ym2612"
    },
    {
      "channel": 5,
      "note": 74,
      "start": 7.7241,
      "duration": 0.0161,
      "velocity": 83,
      "chip": "ym2612"
    },
    {
      "channel": 3,
      "note": 71,
      "start": 7.7252,
      "duration": 0.0161,
      "velocity": 100,
      "chip": "ym2612"
    },
    {
      "channel": 2,
      "note": 74,
      "start": 7.7264,
      "duration": 0.0161,
      "velocity": 100,
      "chip": "ym2612"
    },
    {
      "channel": 4,
      "note": 50,
      "start": 7.7281,
      "duration": 0.0158,
      "velocity": 100,
      "chip": "ym2612"
    },
    {
      "channel": 1,
      "note": 74,
      "start": 7.7293,
      "duration": 0.0161,
      "velocity": 83,
      "chip": "ym2612"
    },
    {
      "channel": 0,
      "note": 72,
      "start": 7.739,
      "duration": 0.0161,
      "velocity": 124,
      "chip": "ym2612"
    },
    {
      "channel": 5,
      "note": 74,
      "start": 7.7402,
      "duration": 0.0161,
      "velocity": 83,
      "chip": "ym2612"
    },
    {
      "channel": 3,
      "note": 71,
      "start": 7.7414,
      "duration": 0.0161,
      "velocity": 100,
      "chip": "ym2612"
    },
    {
      "channel": 2,
      "note": 74,
      "start": 7.7425,
      "duration": 0.0161,
      "velocity": 100,
      "chip": "ym2612"
    },
    {
      "channel": 4,
      "note": 50,
      "start": 7.7439,
      "duration": 0.0159,
      "velocity": 100,
      "chip": "ym2612"
    },
    {
      "channel": 1,
      "note": 74,
      "start": 7.7454,
      "duration": 0.016,
      "velocity": 83,
      "chip": "ym2612"
    },
    {
      "channel": 0,
      "note": 70,
      "start": 7.755,
      "duration": 0.0161,
      "velocity": 124,
      "chip": "ym2612"
    },
    {
      "channel": 5,
      "note": 74,
      "start": 7.7563,
      "duration": 0.0161,
      "velocity": 83,
      "chip": "ym2612"
    },
    {
      "channel": 3,
      "note": 71,
      "start": 7.7575,
      "duration": 0.016,
      "velocity": 100,
      "chip": "ym2612"
    },
    {
      "channel": 2,
      "note": 74,
      "start": 7.7586,
      "duration": 0.0161,
      "velocity": 100,
      "chip": "ym2612"
    },
    {
      "channel": 4,
      "note": 50,
      "start": 7.7598,
      "duration": 0.0161,
      "velocity": 100,
      "chip": "ym2612"
    },
    {
      "channel": 1,
      "note": 74,
      "start": 7.7615,
      "duration": 0.0158,
      "velocity": 83,
      "chip": "ym2612"
    },
    {
      "channel": 0,
      "note": 68,
      "start": 7.7711,
      "duration": 0.0161,
      "velocity": 124,
      "chip": "ym2612"
    },
    {
      "channel": 5,
      "note": 74,
      "start": 7.7723,
      "duration": 0.0161,
      "velocity": 83,
      "chip": "ym2612"
    },
    {
      "channel": 3,
      "note": 71,
      "start": 7.7735,
      "duration": 0.0161,
      "velocity": 100,
      "chip": "ym2612"
    },
    {
      "channel": 2,
      "note": 74,
      "start": 7.7747,
      "duration": 0.0161,
      "velocity": 100,
      "chip": "ym2612"
    },
    {
      "channel": 4,
      "note": 50,
      "start": 7.7759,
      "duration": 0.0161,
      "velocity": 100,
      "chip": "ym2612"
    },
    {
      "channel": 1,
      "note": 74,
      "start": 7.7772,
      "duration": 0.0159,
      "velocity": 83,
      "chip": "ym2612"
    },
    {
      "channel": 0,
      "note": 65,
      "start": 7.7872,
      "duration": 0.0161,
      "velocity": 124,
      "chip": "ym2612"
    },
    {
      "channel": 5,
      "note": 74,
      "start": 7.7884,
      "duration": 0.0162,
      "velocity": 83,
      "chip": "ym2612"
    },
    {
      "channel": 3,
      "note": 71,
      "start": 7.7896,
      "duration": 0.0161,
      "velocity": 100,
      "chip": "ym2612"
    },
    {
      "channel": 2,
      "note": 74,
      "start": 7.7908,
      "duration": 0.0161,
      "velocity": 100,
      "chip": "ym2612"
    },
    {
      "channel": 4,
      "note": 50,
      "start": 7.7919,
      "duration": 0.0161,
      "velocity": 100,
      "chip": "ym2612"
    },
    {
      "channel": 1,
      "note": 74,
      "start": 7.7931,
      "duration": 0.0162,
      "velocity": 83,
      "chip": "ym2612"
    },
    {
      "channel": 0,
      "note": 63,
      "start": 7.8034,
      "duration": 0.0153,
      "velocity": 1,
      "chip": "ym2612"
    },
    {
      "channel": 5,
      "note": 74,
      "start": 7.8046,
      "duration": 0.0152,
      "velocity": 83,
      "chip": "ym2612"
    },
    {
      "channel": 3,
      "note": 71,
      "start": 7.8057,
      "duration": 0.0153,
      "velocity": 100,
      "chip": "ym2612"
    },
    {
      "channel": 2,
      "note": 74,
      "start": 7.8069,
      "duration": 0.0153,
      "velocity": 100,
      "chip": "ym2612"
    },
    {
      "channel": 4,
      "note": 50,
      "start": 7.808,
      "duration": 0.0153,
      "velocity": 100,
      "chip": "ym2612"
    },
    {
      "channel": 1,
      "note": 74,
      "start": 7.8093,
      "duration": 0.0153,
      "velocity": 83,
      "chip": "ym2612"
    },
    {
      "channel": 5,
      "note": 74,
      "start": 7.8198,
      "duration": 0.0153,
      "velocity": 83,
      "chip": "ym2612"
    },
    {
      "channel": 3,
      "note": 71,
      "start": 7.821,
      "duration": 0.0153,
      "velocity": 100,
      "chip": "ym2612"
    },
    {
      "channel": 2,
      "note": 74,
      "start": 7.8222,
      "duration": 0.0153,
      "velocity": 100,
      "chip": "ym2612"
    },
    {
      "channel": 4,
      "note": 50,
      "start": 7.8233,
      "duration": 0.0154,
      "velocity": 100,
      "chip": "ym2612"
    },
    {
      "channel": 1,
      "note": 74,
      "start": 7.8245,
      "duration": 0.0153,
      "velocity": 83,
      "chip": "ym2612"
    },
    {
      "channel": 5,
      "note": 74,
      "start": 7.8351,
      "duration": 0.0161,
      "velocity": 83,
      "chip": "ym2612"
    },
    {
      "channel": 3,
      "note": 71,
      "start": 7.8363,
      "duration": 0.0161,
      "velocity": 100,
      "chip": "ym2612"
    },
    {
      "channel": 2,
      "note": 74,
      "start": 7.8374,
      "duration": 0.0161,
      "velocity": 100,
      "chip": "ym2612"
    },
    {
      "channel": 4,
      "note": 50,
      "start": 7.8386,
      "duration": 0.0161,
      "velocity": 100,
      "chip": "ym2612"
    },
    {
      "channel": 1,
      "note": 74,
      "start": 7.8398,
      "duration": 0.0161,
      "velocity": 83,
      "chip": "ym2612"
    },
    {
      "channel": 5,
      "note": 74,
      "start": 7.8512,
      "duration": 0.0162,
      "velocity": 83,
      "chip": "ym2612"
    },
    {
      "channel": 3,
      "note": 71,
      "start": 7.8524,
      "duration": 0.0161,
      "velocity": 100,
      "chip": "ym2612"
    },
    {
      "channel": 2,
      "note": 74,
      "start": 7.8535,
      "duration": 0.0161,
      "velocity": 100,
      "chip": "ym2612"
    },
    {
      "channel": 4,
      "note": 50,
      "start": 7.8547,
      "duration": 0.0162,
      "velocity": 100,
      "chip": "ym2612"
    },
    {
      "channel": 5,
      "note": 74,
      "start": 7.8673,
      "duration": 0.0161,
      "velocity": 83,
      "chip": "ym2612"
    },
    {
      "channel": 4,
      "note": 50,
      "start": 7.8709,
      "duration": 0.0171,
      "velocity": 100,
      "chip": "ym2612"
    },
    {
      "channel": 5,
      "note": 74,
      "start": 7.8834,
      "duration": 0.0161,
      "velocity": 83,
      "chip": "ym2612"
    },
    {
      "channel": 3,
      "note": 71,
      "start": 7.8849,
      "duration": 0.0158,
      "velocity": 100,
      "chip": "ym2612"
    },
    {
      "channel": 2,
      "note": 74,
      "start": 7.8865,
      "duration": 0.0155,
      "velocity": 100,
      "chip": "ym2612"
    },
    {
      "channel": 4,
      "note": 55,
      "start": 7.888,
      "duration": 0.0151,
      "velocity": 100,
      "chip": "ym2612"
    },
    {
      "channel": 1,
      "note": 71,
      "start": 7.8895,
      "duration": 0.0149,
      "velocity": 83,
      "chip": "ym2612"
    },
    {
      "channel": 5,
      "note": 74,
      "start": 7.8995,
      "duration": 0.0161,
      "velocity": 83,
      "chip": "ym2612"
    },
    {
      "channel": 3,
      "note": 71,
      "start": 7.9007,
      "duration": 0.016,
      "velocity": 100,
      "chip": "ym2612"
    },
    {
      "channel": 2,
      "note": 74,
      "start": 7.9019,
      "duration": 0.016,
      "velocity": 100,
      "chip": "ym2612"
    },
    {
      "channel": 4,
      "note": 55,
      "start": 7.9031,
      "duration": 0.016,
      "velocity": 100,
      "chip": "ym2612"
    },
    {
      "channel": 1,
      "note": 71,
      "start": 7.9044,
      "duration": 0.0159,
      "velocity": 83,
      "chip": "ym2612"
    },
    {
      "channel": 3,
      "note": 71,
      "start": 7.9168,
      "duration": 0.0161,
      "velocity": 100,
      "chip": "ym2612"
    },
    {
      "channel": 2,
      "note": 74,
      "start": 7.918,
      "duration": 0.016,
      "velocity": 100,
      "chip": "ym2612"
    },
    {
      "channel": 4,
      "note": 55,
      "start": 7.9191,
      "duration": 0.016,
      "velocity": 100,
      "chip": "ym2612"
    },
    {
      "channel": 1,
      "note": 71,
      "start": 7.9202,
      "duration": 0.0161,
      "velocity": 83,
      "chip": "ym2612"
    },
    {
      "channel": 3,
      "note": 71,
      "start": 7.9328,
      "duration": 0.0164,
      "velocity": 100,
      "chip": "ym2612"
    },
    {
      "channel": 2,
      "note": 74,
      "start": 7.934,
      "duration": 0.0164,
      "velocity": 100,
      "chip": "ym2612"
    },
    {
      "channel": 4,
      "note": 55,
      "start": 7.9351,
      "duration": 0.0164,
      "velocity": 100,
      "chip": "ym2612"
    },
    {
      "channel": 1,
      "note": 71,
      "start": 7.9363,
      "duration": 0.0164,
      "velocity": 83,
      "chip": "ym2612"
    },
    {
      "channel": 5,
      "note": 71,
      "start": 7.9481,
      "duration": 0.0158,
      "velocity": 83,
      "chip": "ym2612"
    },
    {
      "channel": 3,
      "note": 71,
      "start": 7.9493,
      "duration": 0.0159,
      "velocity": 100,
      "chip": "ym2612"
    },
    {
      "channel": 2,
      "note": 74,
      "start": 7.9504,
      "duration": 0.0159,
      "velocity": 100,
      "chip": "ym2612"
    },
    {
      "channel": 4,
      "note": 55,
      "start": 7.9515,
      "duration": 0.0159,
      "velocity": 100,
      "chip": "ym2612"
    },
    {
      "channel": 1,
      "note": 71,
      "start": 7.9527,
      "duration": 0.0159,
      "velocity": 83,
      "chip": "ym2612"
    },
    {
      "channel": 5,
      "note": 71,
      "start": 7.9639,
      "duration": 0.016,
      "velocity": 83,
      "chip": "ym2612"
    },
    {
      "channel": 3,
      "note": 71,
      "start": 7.9651,
      "duration": 0.0161,
      "velocity": 100,
      "chip": "ym2612"
    },
    {
      "channel": 2,
      "note": 74,
      "start": 7.9663,
      "duration": 0.016,
      "velocity": 100,
      "chip": "ym2612"
    },
    {
      "channel": 4,
      "note": 55,
      "start": 7.9674,
      "duration": 0.016,
      "velocity": 100,
      "chip": "ym2612"
    },
    {
      "channel": 1,
      "note": 71,
      "start": 7.9686,
      "duration": 0.0161,
      "velocity": 83,
      "chip": "ym2612"
    },
    {
      "channel": 5,
      "note": 71,
      "start": 7.98,
      "duration": 0.0162,
      "velocity": 83,
      "chip": "ym2612"
    },
    {
      "channel": 3,
      "note": 71,
      "start": 7.9812,
      "duration": 0.0162,
      "velocity": 100,
      "chip": "ym2612"
    },
    {
      "channel": 2,
      "note": 74,
      "start": 7.9823,
      "duration": 0.0161,
      "velocity": 100,
      "chip": "ym2612"
    },
    {
      "channel": 4,
      "note": 55,
      "start": 7.9835,
      "duration": 0.0162,
      "velocity": 100,
      "chip": "ym2612"
    },
    {
      "channel": 1,
      "note": 71,
      "start": 7.9847,
      "duration": 0.0161,
      "velocity": 83,
      "chip": "ym2612"
    },
    {
      "channel": 5,
      "note": 71,
      "start": 7.9961,
      "duration": 0.0164,
      "velocity": 83,
      "chip": "ym2612"
    },
    {
      "channel": 3,
      "note": 71,
      "start": 7.9973,
      "duration": 0.0164,
      "velocity": 100,
      "chip": "ym2612"
    },
    {
      "channel": 2,
      "note": 74,
      "start": 7.9985,
      "duration": 0.0164,
      "velocity": 100,
      "chip": "ym2612"
    },
    {
      "channel": 4,
      "note": 55,
      "start": 7.9996,
      "duration": 0.0164,
      "velocity": 100,
      "chip": "ym2612"
    },
    {
      "channel": 1,
      "note": 71,
      "start": 8.0008,
      "duration": 0.0164,
      "velocity": 83,
      "chip": "ym2612"
    },
    {
      "channel": 5,
      "note": 71,
      "start": 8.0125,
      "duration": 0.0163,
      "velocity": 83,
      "chip": "ym2612"
    },
    {
      "channel": 3,
      "note": 71,
      "start": 8.0138,
      "duration": 0.0163,
      "velocity": 100,
      "chip": "ym2612"
    },
    {
      "channel": 2,
      "note": 74,
      "start": 8.0149,
      "duration": 0.0163,
      "velocity": 100,
      "chip": "ym2612"
    },
    {
      "channel": 4,
      "note": 55,
      "start": 8.0161,
      "duration": 0.0163,
      "velocity": 100,
      "chip": "ym2612"
    },
    {
      "channel": 1,
      "note": 71,
      "start": 8.0173,
      "duration": 0.0163,
      "velocity": 83,
      "chip": "ym2612"
    },
    {
      "channel": 5,
      "note": 71,
      "start": 8.0289,
      "duration": 0.0161,
      "velocity": 83,
      "chip": "ym2612"
    },
    {
      "channel": 3,
      "note": 71,
      "start": 8.03,
      "duration": 0.0161,
      "velocity": 100,
      "chip": "ym2612"
    },
    {
      "channel": 2,
      "note": 74,
      "start": 8.0312,
      "duration": 0.0162,
      "velocity": 100,
      "chip": "ym2612"
    },
    {
      "channel": 4,
      "note": 55,
      "start": 8.0323,
      "duration": 0.0161,
      "velocity": 100,
      "chip": "ym2612"
    },
    {
      "channel": 1,
      "note": 71,
      "start": 8.0335,
      "duration": 0.0161,
      "velocity": 83,
      "chip": "ym2612"
    },
    {
      "channel": 5,
      "note": 71,
      "start": 8.045,
      "duration": 0.016,
      "velocity": 83,
      "chip": "ym2612"
    },
    {
      "channel": 3,
      "note": 71,
      "start": 8.0461,
      "duration": 0.0161,
      "velocity": 100,
      "chip": "ym2612"
    },
    {
      "channel": 2,
      "note": 74,
      "start": 8.0473,
      "duration": 0.016,
      "velocity": 100,
      "chip": "ym2612"
    },
    {
      "channel": 4,
      "note": 55,
      "start": 8.0485,
      "duration": 0.016,
      "velocity": 100,
      "chip": "ym2612"
    },
    {
      "channel": 1,
      "note": 71,
      "start": 8.0496,
      "duration": 0.0161,
      "velocity": 83,
      "chip": "ym2612"
    },
    {
      "channel": 5,
      "note": 71,
      "start": 8.061,
      "duration": 0.0156,
      "velocity": 83,
      "chip": "ym2612"
    },
    {
      "channel": 3,
      "note": 71,
      "start": 8.0622,
      "duration": 0.0161,
      "velocity": 100,
      "chip": "ym2612"
    },
    {
      "channel": 2,
      "note": 74,
      "start": 8.0634,
      "duration": 0.0161,
      "velocity": 100,
      "chip": "ym2612"
    },
    {
      "channel": 4,
      "note": 55,
      "start": 8.0645,
      "duration": 0.0162,
      "velocity": 100,
      "chip": "ym2612"
    },
    {
      "channel": 1,
      "note": 71,
      "start": 8.0657,
      "duration": 0.0161,
      "velocity": 83,
      "chip": "ym2612"
    },
    {
      "channel": 5,
      "note": 71,
      "start": 8.0766,
      "duration": 0.0161,
      "velocity": 83,
      "chip": "ym2612"
    },
    {
      "channel": 3,
      "note": 71,
      "start": 8.0783,
      "duration": 0.0161,
      "velocity": 100,
      "chip": "ym2612"
    },
    {
      "channel": 2,
      "note": 74,
      "start": 8.0795,
      "duration": 0.0161,
      "velocity": 100,
      "chip": "ym2612"
    },
    {
      "channel": 4,
      "note": 55,
      "start": 8.0807,
      "duration": 0.0161,
      "velocity": 100,
      "chip": "ym2612"
    },
    {
      "channel": 5,
      "note": 71,
      "start": 8.0927,
      "duration": 0.0202,
      "velocity": 83,
      "chip": "ym2612"
    },
    {
      "channel": 4,
      "note": 55,
      "start": 8.0968,
      "duration": 0.0205,
      "velocity": 100,
      "chip": "ym2612"
    },
    {
      "channel": 0,
      "note": 36,
      "start": 8.1117,
      "duration": 0.0137,
      "velocity": 115,
      "chip": "ym2612"
    },
    {
      "channel": 5,
      "note": 71,
      "start": 8.1129,
      "duration": 0.0137,
      "velocity": 83,
      "chip": "ym2612"
    },
    {
      "channel": 3,
      "note": 71,
      "start": 8.1144,
      "duration": 0.0141,
      "velocity": 100,
      "chip": "ym2612"
    },
    {
      "channel": 2,
      "note": 74,
      "start": 8.1159,
      "duration": 0.0137,
      "velocity": 100,
      "chip": "ym2612"
    },
    {
      "channel": 4,
      "note": 57,
      "start": 8.1174,
      "duration": 0.0135,
      "velocity": 100,
      "chip": "ym2612"
    },
    {
      "channel": 1,
      "note": 76,
      "start": 8.1189,
      "duration": 0.0132,
      "velocity": 83,
      "chip": "ym2612"
    },
    {
      "channel": 0,
      "note": 36,
      "start": 8.1255,
      "duration": 0.016,
      "velocity": 115,
      "chip": "ym2612"
    },
    {
      "channel": 5,
      "note": 71,
      "start": 8.1267,
      "duration": 0.016,
      "velocity": 83,
      "chip": "ym2612"
    },
    {
      "channel": 3,
      "note": 71,
      "start": 8.1285,
      "duration": 0.016,
      "velocity": 100,
      "chip": "ym2612"
    },
    {
      "channel": 2,
      "note": 74,
      "start": 8.1297,
      "duration": 0.016,
      "velocity": 100,
      "chip": "ym2612"
    },
    {
      "channel": 4,
      "note": 57,
      "start": 8.1309,
      "duration": 0.0159,
      "velocity": 100,
      "chip": "ym2612"
    },
    {
      "channel": 1,
      "note": 76,
      "start": 8.1321,
      "duration": 0.0159,
      "velocity": 83,
      "chip": "ym2612"
    },
    {
      "channel": 0,
      "note": 37,
      "start": 8.1415,
      "duration": 0.0161,
      "velocity": 115,
      "chip": "ym2612"
    },
    {
      "channel": 3,
      "note": 71,
      "start": 8.1444,
      "duration": 0.0155,
      "velocity": 100,
      "chip": "ym2612"
    },
    {
      "channel": 2,
      "note": 74,
      "start": 8.1456,
      "duration": 0.016,
      "velocity": 100,
      "chip": "ym2612"
    },
    {
      "channel": 4,
      "note": 57,
      "start": 8.1468,
      "duration": 0.016,
      "velocity": 100,
      "chip": "ym2612"
    },
    {
      "channel": 1,
      "note": 76,
      "start": 8.148,
      "duration": 0.016,
      "velocity": 83,
      "chip": "ym2612"
    },
    {
      "channel": 0,
      "note": 37,
      "start": 8.1576,
      "duration": 0.0161,
      "velocity": 115,
      "chip": "ym2612"
    },
    {
      "channel": 3,
      "note": 71,
      "start": 8.1599,
      "duration": 0.0164,
      "velocity": 100,
      "chip": "ym2612"
    },
    {
      "channel": 2,
      "note": 74,
      "start": 8.1616,
      "duration": 0.0165,
      "velocity": 100,
      "chip": "ym2612"
    },
    {
      "channel": 4,
      "note": 57,
      "start": 8.1628,
      "duration": 0.0165,
      "velocity": 100,
      "chip": "ym2612"
    },
    {
      "channel": 1,
      "note": 76,
      "start": 8.164,
      "duration": 0.0164,
      "velocity": 83,
      "chip": "ym2612"
    },
    {
      "channel": 0,
      "note": 38,
      "start": 8.1737,
      "duration": 0.0161,
      "velocity": 115,
      "chip": "ym2612"
    },
    {
      "channel": 5,
      "note": 76,
      "start": 8.1752,
      "duration": 0.0158,
      "velocity": 83,
      "chip": "ym2612"
    },
    {
      "channel": 3,
      "note": 71,
      "start": 8.1763,
      "duration": 0.0159,
      "velocity": 100,
      "chip": "ym2612"
    },
    {
      "channel": 2,
      "note": 74,
      "start": 8.1781,
      "duration": 0.0153,
      "velocity": 100,
      "chip": "ym2612"
    },
    {
      "channel": 4,
      "note": 57,
      "start": 8.1793,
      "duration": 0.0159,
      "velocity": 100,
      "chip": "ym2612"
    },
    {
      "channel": 1,
      "note": 76,
      "start": 8.1804,
      "duration": 0.0159,
      "velocity": 83,
      "chip": "ym2612"
    },
    {
      "channel": 0,
      "note": 38,
      "start": 8.1898,
      "duration": 0.0161,
      "velocity": 115,
      "chip": "ym2612"
    },
    {
      "channel": 5,
      "note": 76,
      "start": 8.191,
      "duration": 0.016,
      "velocity": 83,
      "chip": "ym2612"
    },
    {
      "channel": 3,
      "note": 71,
      "start": 8.1922,
      "duration": 0.0161,
      "velocity": 100,
      "chip": "ym2612"
    },
    {
      "channel": 2,
      "note": 74,
      "start": 8.1934,
      "duration": 0.016,
      "velocity": 100,
      "chip": "ym2612"
    },
    {
      "channel": 4,
      "note": 57,
      "start": 8.1951,
      "duration": 0.016,
      "velocity": 100,
      "chip": "ym2612"
    },
    {
      "channel": 1,
      "note": 76,
      "start": 8.1963,
      "duration": 0.016,
      "velocity": 83,
      "chip": "ym2612"
    },
    {
      "channel": 0,
      "note": 39,
      "start": 8.2059,
      "duration": 0.0161,
      "velocity": 115,
      "chip": "ym2612"
    },
    {
      "channel": 5,
      "note": 76,
      "start": 8.2071,
      "duration": 0.0161,
      "velocity": 83,
      "chip": "ym2612"
    },
    {
      "channel": 3,
      "note": 71,
      "start": 8.2083,
      "duration": 0.0161,
      "velocity": 100,
      "chip": "ym2612"
    },
    {
      "channel": 2,
      "note": 74,
      "start": 8.2094,
      "duration": 0.0161,
      "velocity": 100,
      "chip": "ym2612"
    },
    {
      "channel": 4,
      "note": 57,
      "start": 8.2111,
      "duration": 0.0156,
      "velocity": 100,
      "chip": "ym2612"
    },
    {
      "channel": 1,
      "note": 76,
      "start": 8.2124,
      "duration": 0.0161,
      "velocity": 83,
      "chip": "ym2612"
    },
    {
      "channel": 0,
      "note": 39,
      "start": 8.222,
      "duration": 0.0161,
      "velocity": 115,
      "chip": "ym2612"
    },
    {
      "channel": 5,
      "note": 76,
      "start": 8.2232,
      "duration": 0.0161,
      "velocity": 83,
      "chip": "ym2612"
    },
    {
      "channel": 3,
      "note": 71,
      "start": 8.2244,
      "duration": 0.0161,
      "velocity": 100,
      "chip": "ym2612"
    },
    {
      "channel": 2,
      "note": 74,
      "start": 8.2255,
      "duration": 0.0161,
      "velocity": 100,
      "chip": "ym2612"
    },
    {
      "channel": 4,
      "note": 57,
      "start": 8.2267,
      "duration": 0.0161,
      "velocity": 100,
      "chip": "ym2612"
    },
    {
      "channel": 1,
      "note": 76,
      "start": 8.2285,
      "duration": 0.016,
      "velocity": 83,
      "chip": "ym2612"
    },
    {
      "channel": 0,
      "note": 40,
      "start": 8.238,
      "duration": 0.0162,
      "velocity": 115,
      "chip": "ym2612"
    },
    {
      "channel": 5,
      "note": 76,
      "start": 8.2393,
      "duration": 0.0161,
      "velocity": 83,
      "chip": "ym2612"
    },
    {
      "channel": 3,
      "note": 71,
      "start": 8.2405,
      "duration": 0.0161,
      "velocity": 100,
      "chip": "ym2612"
    },
    {
      "channel": 2,
      "note": 74,
      "start": 8.2416,
      "duration": 0.0161,
      "velocity": 100,
      "chip": "ym2612"
    },
    {
      "channel": 4,
      "note": 57,
      "start": 8.2428,
      "duration": 0.0161,
      "velocity": 100,
      "chip": "ym2612"
    },
    {
      "channel": 1,
      "note": 76,
      "start": 8.2445,
      "duration": 0.0155,
      "velocity": 83,
      "chip": "ym2612"
    },
    {
      "channel": 0,
      "note": 40,
      "start": 8.2542,
      "duration": 0.0161,
      "velocity": 115,
      "chip": "ym2612"
    },
    {
      "channel": 5,
      "note": 76,
      "start": 8.2554,
      "duration": 0.0162,
      "velocity": 83,
      "chip": "ym2612"
    },
    {
      "channel": 3,
      "note": 71,
      "start": 8.2566,
      "duration": 0.0161,
      "velocity": 100,
      "chip": "ym2612"
    },
    {
      "channel": 2,
      "note": 74,
      "start": 8.2577,
      "duration": 0.0161,
      "velocity": 100,
      "chip": "ym2612"
    },
    {
      "channel": 4,
      "note": 57,
      "start": 8.2589,
      "duration": 0.0161,
      "velocity": 100,
      "chip": "ym2612"
    },
    {
      "channel": 1,
      "note": 76,
      "start": 8.26,
      "duration": 0.0162,
      "velocity": 83,
      "chip": "ym2612"
    },
    {
      "channel": 0,
      "note": 40,
      "start": 8.2703,
      "duration": 0.0161,
      "velocity": 115,
      "chip": "ym2612"
    },
    {
      "channel": 5,
      "note": 76,
      "start": 8.2715,
      "duration": 0.016,
      "velocity": 83,
      "chip": "ym2612"
    },
    {
      "channel": 3,
      "note": 71,
      "start": 8.2727,
      "duration": 0.0161,
      "velocity": 100,
      "chip": "ym2612"
    },
    {
      "channel": 2,
      "note": 74,
      "start": 8.2738,
      "duration": 0.0161,
      "velocity": 100,
      "chip": "ym2612"
    },
    {
      "channel": 4,
      "note": 57,
      "start": 8.2749,
      "duration": 0.0161,
      "velocity": 100,
      "chip": "ym2612"
    },
    {
      "channel": 1,
      "note": 76,
      "start": 8.2762,
      "duration": 0.016,
      "velocity": 83,
      "chip": "ym2612"
    },
    {
      "channel": 0,
      "note": 41,
      "start": 8.2864,
      "duration": 0.0161,
      "velocity": 115,
      "chip": "ym2612"
    },
    {
      "channel": 5,
      "note": 76,
      "start": 8.2876,
      "duration": 0.0161,
      "velocity": 83,
      "chip": "ym2612"
    },
    {
      "channel": 3,
      "note": 71,
      "start": 8.2888,
      "duration": 0.0161,
      "velocity": 100,
      "chip": "ym2612"
    },
    {
      "channel": 2,
      "note": 74,
      "start": 8.2899,
      "duration": 0.0161,
      "velocity": 100,
      "chip": "ym2612"
    },
    {
      "channel": 4,
      "note": 57,
      "start": 8.291,
      "duration": 0.0161,
      "velocity": 100,
      "chip": "ym2612"
    },
    {
      "channel": 1,
      "note": 76,
      "start": 8.2922,
      "duration": 0.0161,
      "velocity": 83,
      "chip": "ym2612"
    },
    {
      "channel": 0,
      "note": 41,
      "start": 8.3025,
      "duration": 0.0161,
      "velocity": 115,
      "chip": "ym2612"
    },
    {
      "channel": 5,
      "note": 76,
      "start": 8.3037,
      "duration": 0.0161,
      "velocity": 83,
      "chip": "ym2612"
    },
    {
      "channel": 3,
      "note": 71,
      "start": 8.3049,
      "duration": 0.0161,
      "velocity": 100,
      "chip": "ym2612"
    },
    {
      "channel": 2,
      "note": 74,
      "start": 8.306,
      "duration": 0.0161,
      "velocity": 100,
      "chip": "ym2612"
    },
    {
      "channel": 4,
      "note": 57,
      "start": 8.3071,
      "duration": 0.0161,
      "velocity": 100,
      "chip": "ym2612"
    },
    {
      "channel": 1,
      "note": 76,
      "start": 8.3083,
      "duration": 0.0161,
      "velocity": 83,
      "chip": "ym2612"
    },
    {
      "channel": 0,
      "note": 42,
      "start": 8.3186,
      "duration": 0.0161,
      "velocity": 115,
      "chip": "ym2612"
    },
    {
      "channel": 5,
      "note": 76,
      "start": 8.3198,
      "duration": 0.0161,
      "velocity": 83,
      "chip": "ym2612"
    },
    {
      "channel": 4,
      "note": 57,
      "start": 8.3233,
      "duration": 0.017,
      "velocity": 100,
      "chip": "ym2612"
    },
    {
      "channel": 1,
      "note": 76,
      "start": 8.3244,
      "duration": 0.017,
      "velocity": 83,
      "chip": "ym2612"
    },
    {
      "channel": 0,
      "note": 42,
      "start": 8.3347,
      "duration": 0.0161,
      "velocity": 115,
      "chip": "ym2612"
    },
    {
      "channel": 5,
      "note": 76,
      "start": 8.3359,
      "duration": 0.0161,
      "velocity": 83,
      "chip": "ym2612"
    },
    {
      "channel": 3,
      "note": 71,
      "start": 8.3375,
      "duration": 0.0157,
      "velocity": 100,
      "chip": "ym2612"
    },
    {
      "channel": 2,
      "note": 74,
      "start": 8.3391,
      "duration": 0.0153,
      "velocity": 100,
      "chip": "ym2612"
    },
    {
      "channel": 4,
      "note": 57,
      "start": 8.3403,
      "duration": 0.0153,
      "velocity": 100,
      "chip": "ym2612"
    },
    {
      "channel": 1,
      "note": 76,
      "start": 8.3414,
      "duration": 0.0153,
      "velocity": 83,
      "chip": "ym2612"
    },
    {
      "channel": 0,
      "note": 43,
      "start": 8.3508,
      "duration": 0.0161,
      "velocity": 115,
      "chip": "ym2612"
    },
    {
      "channel": 5,
      "note": 76,
      "start": 8.352,
      "duration": 0.0161,
      "velocity": 83,
      "chip": "ym2612"
    },
    {
      "channel": 3,
      "note": 71,
      "start": 8.3532,
      "duration": 0.0161,
      "velocity": 100,
      "chip": "ym2612"
    },
    {
      "channel": 2,
      "note": 74,
      "start": 8.3545,
      "duration": 0.016,
      "velocity": 100,
      "chip": "ym2612"
    },
    {
      "channel": 4,
      "note": 57,
      "start": 8.3556,
      "duration": 0.016,
      "velocity": 100,
      "chip": "ym2612"
    },
    {
      "channel": 1,
      "note": 76,
      "start": 8.3568,
      "duration": 0.016,
      "velocity": 83,
      "chip": "ym2612"
    },
    {
      "channel": 0,
      "note": 43,
      "start": 8.3669,
      "duration": 0.0162,
      "velocity": 115,
      "chip": "ym2612"
    },
    {
      "channel": 5,
      "note": 76,
      "start": 8.3681,
      "duration": 0.016,
      "velocity": 83,
      "chip": "ym2612"
    },
    {
      "channel": 3,
      "note": 71,
      "start": 8.3693,
      "duration": 0.0161,
      "velocity": 100,
      "chip": "ym2612"
    },
    {
      "channel": 2,
      "note": 74,
      "start": 8.3704,
      "duration": 0.0161,
      "velocity": 100,
      "chip": "ym2612"
    },
    {
      "channel": 4,
      "note": 57,
      "start": 8.3716,
      "duration": 0.0161,
      "velocity": 100,
      "chip": "ym2612"
    },
    {
      "channel": 1,
      "note": 76,
      "start": 8.3728,
      "duration": 0.016,
      "velocity": 83,
      "chip": "ym2612"
    },
    {
      "channel": 0,
      "note": 44,
      "start": 8.383,
      "duration": 0.0161,
      "velocity": 115,
      "chip": "ym2612"
    },
    {
      "channel": 5,
      "note": 76,
      "start": 8.3842,
      "duration": 0.0161,
      "velocity": 83,
      "chip": "ym2612"
    },
    {
      "channel": 3,
      "note": 71,
      "start": 8.3854,
      "duration": 0.0161,
      "velocity": 100,
      "chip": "ym2612"
    },
    {
      "channel": 2,
      "note": 74,
      "start": 8.3865,
      "duration": 0.0161,
      "velocity": 100,
      "chip": "ym2612"
    },
    {
      "channel": 4,
      "note": 57,
      "start": 8.3877,
      "duration": 0.0162,
      "velocity": 100,
      "chip": "ym2612"
    },
    {
      "channel": 1,
      "note": 76,
      "start": 8.3888,
      "duration": 0.0162,
      "velocity": 83,
      "chip": "ym2612"
    },
    {
      "channel": 0,
      "note": 44,
      "start": 8.3991,
      "duration": 0.0161,
      "velocity": 115,
      "chip": "ym2612"
    },
    {
      "channel": 5,
      "note": 76,
      "start": 8.4003,
      "duration": 0.0162,
      "velocity": 83,
      "chip": "ym2612"
    },
    {
      "channel": 3,
      "note": 71,
      "start": 8.4015,
      "duration": 0.0161,
      "velocity": 100,
      "chip": "ym2612"
    },
    {
      "channel": 2,
      "note": 74,
      "start": 8.4026,
      "duration": 0.0161,
      "velocity": 100,
      "chip": "ym2612"
    },
    {
      "channel": 4,
      "note": 57,
      "start": 8.4038,
      "duration": 0.0161,
      "velocity": 100,
      "chip": "ym2612"
    },
    {
      "channel": 1,
      "note": 76,
      "start": 8.405,
      "duration": 0.0161,
      "velocity": 83,
      "chip": "ym2612"
    },
    {
      "channel": 0,
      "note": 44,
      "start": 8.4152,
      "duration": 0.0161,
      "velocity": 115,
      "chip": "ym2612"
    },
    {
      "channel": 5,
      "note": 76,
      "start": 8.4164,
      "duration": 0.0161,
      "velocity": 83,
      "chip": "ym2612"
    },
    {
      "channel": 3,
      "note": 71,
      "start": 8.4176,
      "duration": 0.0161,
      "velocity": 100,
      "chip": "ym2612"
    },
    {
      "channel": 2,
      "note": 74,
      "start": 8.4187,
      "duration": 0.0161,
      "velocity": 100,
      "chip": "ym2612"
    },
    {
      "channel": 4,
      "note": 57,
      "start": 8.4199,
      "duration": 0.0161,
      "velocity": 100,
      "chip": "ym2612"
    },
    {
      "channel": 0,
      "note": 45,
      "start": 8.4313,
      "duration": 0.0179,
      "velocity": 115,
      "chip": "ym2612"
    },
    {
      "channel": 5,
      "note": 76,
      "start": 8.4325,
      "duration": 0.0179,
      "velocity": 83,
      "chip": "ym2612"
    },
    {
      "channel": 3,
      "note": 71,
      "start": 8.4337,
      "duration": 0.0179,
      "velocity": 100,
      "chip": "ym2612"
    },
    {
      "channel": 2,
      "note": 74,
      "start": 8.4348,
      "duration": 0.0179,
      "velocity": 100,
      "chip": "ym2612"
    },
    {
      "channel": 4,
      "note": 57,
      "start": 8.436,
      "duration": 0.0182,
      "velocity": 100,
      "chip": "ym2612"
    },
    {
      "channel": 0,
      "note": 36,
      "start": 8.4493,
      "duration": 0.0144,
      "velocity": 115,
      "chip": "ym2612"
    },
    {
      "channel": 5,
      "note": 76,
      "start": 8.4505,
      "duration": 0.0144,
      "velocity": 83,
      "chip": "ym2612"
    },
    {
      "channel": 3,
      "note": 71,
      "start": 8.4516,
      "duration": 0.0144,
      "velocity": 100,
      "chip": "ym2612"
    },
    {
      "channel": 2,
      "note": 74,
      "start": 8.4527,
      "duration": 0.0144,
      "velocity": 100,
      "chip": "ym2612"
    },
    {
      "channel": 4,
      "note": 55,
      "start": 8.4542,
      "duration": 0.0141,
      "velocity": 100,
      "chip": "ym2612"
    },
    {
      "channel": 1,
      "note": 74,
      "start": 8.4557,
      "duration": 0.0139,
      "velocity": 83,
      "chip": "ym2612"
    },
    {
      "channel": 0,
      "note": 36,
      "start": 8.4636,
      "duration": 0.0161,
      "velocity": 115,
      "chip": "ym2612"
    },
    {
      "channel": 5,
      "note": 76,
      "start": 8.4648,
      "duration": 0.016,
      "velocity": 83,
      "chip": "ym2612"
    },
    {
      "channel": 3,
      "note": 71,
      "start": 8.466,
      "duration": 0.0161,
      "velocity": 100,
      "chip": "ym2612"
    },
    {
      "channel": 2,
      "note": 74,
      "start": 8.4671,
      "duration": 0.0161,
      "velocity": 100,
      "chip": "ym2612"
    },
    {
      "channel": 4,
      "note": 55,
      "start": 8.4683,
      "duration": 0.016,
      "velocity": 100,
      "chip": "ym2612"
    },
    {
      "channel": 1,
      "note": 74,
      "start": 8.4696,
      "duration": 0.016,
      "velocity": 83,
      "chip": "ym2612"
    },
    {
      "channel": 0,
      "note": 37,
      "start": 8.4797,
      "duration": 0.0163,
      "velocity": 115,
      "chip": "ym2612"
    },
    {
      "channel": 3,
      "note": 71,
      "start": 8.4821,
      "duration": 0.0163,
      "velocity": 100,
      "chip": "ym2612"
    },
    {
      "channel": 2,
      "note": 74,
      "start": 8.4832,
      "duration": 0.0164,
      "velocity": 100,
      "chip": "ym2612"
    },
    {
      "channel": 4,
      "note": 55,
      "start": 8.4844,
      "duration": 0.0164,
      "velocity": 100,
      "chip": "ym2612"
    },
    {
      "channel": 1,
      "note": 74,
      "start": 8.4856,
      "duration": 0.0163,
      "velocity": 83,
      "chip": "ym2612"
    },
    {
      "channel": 0,
      "note": 37,
      "start": 8.4961,
      "duration": 0.0163,
      "velocity": 115,
      "chip": "ym2612"
    },
    {
      "channel": 3,
      "note": 71,
      "start": 8.4984,
      "duration": 0.0166,
      "velocity": 100,
      "chip": "ym2612"
    },
    {
      "channel": 2,
      "note": 74,
      "start": 8.4996,
      "duration": 0.0165,
      "velocity": 100,
      "chip": "ym2612"
    },
    {
      "channel": 4,
      "note": 55,
      "start": 8.5008,
      "duration": 0.0166,
      "velocity": 100,
      "chip": "ym2612"
    },
    {
      "channel": 1,
      "note": 74,
      "start": 8.5019,
      "duration": 0.0166,
      "velocity": 83,
      "chip": "ym2612"
    },
    {
      "channel": 0,
      "note": 38,
      "start": 8.5124,
      "duration": 0.0161,
      "velocity": 115,
      "chip": "ym2612"
    },
    {
      "channel": 5,
      "note": 74,
      "start": 8.5139,
      "duration": 0.0159,
      "velocity": 83,
      "chip": "ym2612"
    },
    {
      "channel": 3,
      "note": 71,
      "start": 8.515,
      "duration": 0.0159,
      "velocity": 100,
      "chip": "ym2612"
    },
    {
      "channel": 2,
      "note": 74,
      "start": 8.5162,
      "duration": 0.0159,
      "velocity": 100,
      "chip": "ym2612"
    },
    {
      "channel": 4,
      "note": 55,
      "start": 8.5174,
      "duration": 0.0158,
      "velocity": 100,
      "chip": "ym2612"
    },
    {
      "channel": 1,
      "note": 74,
      "start": 8.5185,
      "duration": 0.0159,
      "velocity": 83,
      "chip": "ym2612"
    },
    {
      "channel": 0,
      "note": 38,
      "start": 8.5285,
      "duration": 0.016,
      "velocity": 115,
      "chip": "ym2612"
    },
    {
      "channel": 5,
      "note": 74,
      "start": 8.5298,
      "duration": 0.016,
      "velocity": 83,
      "chip": "ym2612"
    },
    {
      "channel": 3,
      "note": 71,
      "start": 8.5309,
      "duration": 0.016,
      "velocity": 100,
      "chip": "ym2612"
    },
    {
      "channel": 2,
      "note": 74,
      "start": 8.5321,
      "duration": 0.016,
      "velocity": 100,
      "chip": "ym2612"
    },
    {
      "channel": 4,
      "note": 55,
      "start": 8.5332,
      "duration": 0.0161,
      "velocity": 100,
      "chip": "ym2612"
    },
    {
      "channel": 1,
      "note": 74,
      "start": 8.5344,
      "duration": 0.0161,
      "velocity": 83,
      "chip": "ym2612"
    },
    {
      "channel": 0,
      "note": 39,
      "start": 8.5445,
      "duration": 0.018,
      "velocity": 124,
      "chip": "ym2612"
    },
    {
      "channel": 5,
      "note": 74,
      "start": 8.5458,
      "duration": 0.0179,
      "velocity": 83,
      "chip": "ym2612"
    },
    {
      "channel": 4,
      "note": 55,
      "start": 8.5493,
      "duration": 0.0186,
      "velocity": 100,
      "chip": "ym2612"
    },
    {
      "channel": 1,
      "note": 74,
      "start": 8.5505,
      "duration": 0.0186,
      "velocity": 83,
      "chip": "ym2612"
    },
    {
      "channel": 0,
      "note": 84,
      "start": 8.5625,
      "duration": 0.0137,
      "velocity": 124,
      "chip": "ym2612"
    },
    {
      "channel": 5,
      "note": 74,
      "start": 8.5638,
      "duration": 0.0142,
      "velocity": 83,
      "chip": "ym2612"
    },
    {
      "channel": 3,
      "note": 71,
      "start": 8.5652,
      "duration": 0.0141,
      "velocity": 100,
      "chip": "ym2612"
    },
    {
      "channel": 2,
      "note": 74,
      "start": 8.5668,
      "duration": 0.0137,
      "velocity": 100,
      "chip": "ym2612"
    },
    {
      "channel": 4,
      "note": 55,
      "start": 8.5679,
      "duration": 0.0138,
      "velocity": 100,
      "chip": "ym2612"
    },
    {
      "channel": 1,
      "note": 74,
      "start": 8.5691,
      "duration": 0.0137,
      "velocity": 83,
      "chip": "ym2612"
    },
    {
      "channel": 0,
      "note": 82,
      "start": 8.5763,
      "duration": 0.016,
      "velocity": 124,
      "chip": "ym2612"
    },
    {
      "channel": 5,
      "note": 74,
      "start": 8.578,
      "duration": 0.0157,
      "velocity": 83,
      "chip": "ym2612"
    },
    {
      "channel": 3,
      "note": 71,
      "start": 8.5793,
      "duration": 0.016,
      "velocity": 100,
      "chip": "ym2612"
    },
    {
      "channel": 2,
      "note": 74,
      "start": 8.5805,
      "duration": 0.016,
      "velocity": 100,
      "chip": "ym2612"
    },
    {
      "channel": 4,
      "note": 55,
      "start": 8.5817,
      "duration": 0.0159,
      "velocity": 100,
      "chip": "ym2612"
    },
    {
      "channel": 1,
      "note": 74,
      "start": 8.5828,
      "duration": 0.0159,
      "velocity": 83,
      "chip": "ym2612"
    },
    {
      "channel": 0,
      "note": 80,
      "start": 8.5923,
      "duration": 0.0161,
      "velocity": 124,
      "chip": "ym2612"
    },
    {
      "channel": 5,
      "note": 74,
      "start": 8.5937,
      "duration": 0.0159,
      "velocity": 83,
      "chip": "ym2612"
    },
    {
      "channel": 3,
      "note": 71,
      "start": 8.5952,
      "duration": 0.016,
      "velocity": 100,
      "chip": "ym2612"
    },
    {
      "channel": 2,
      "note": 74,
      "start": 8.5965,
      "duration": 0.016,
      "velocity": 100,
      "chip": "ym2612"
    },
    {
      "channel": 4,
      "note": 55,
      "start": 8.5976,
      "duration": 0.0161,
      "velocity": 100,
      "chip": "ym2612"
    },
    {
      "channel": 1,
      "note": 74,
      "start": 8.5988,
      "duration": 0.0161,
      "velocity": 83,
      "chip": "ym2612"
    },
    {
      "channel": 0,
      "note": 77,
      "start": 8.6084,
      "duration": 0.0161,
      "velocity": 124,
      "chip": "ym2612"
    },
    {
      "channel": 5,
      "note": 74,
      "start": 8.6096,
      "duration": 0.0161,
      "velocity": 83,
      "chip": "ym2612"
    },
    {
      "channel": 3,
      "note": 71,
      "start": 8.6113,
      "duration": 0.0159,
      "velocity": 100,
      "chip": "ym2612"
    },
    {
      "channel": 2,
      "note": 74,
      "start": 8.6125,
      "duration": 0.0161,
      "velocity": 100,
      "chip": "ym2612"
    },
    {
      "channel": 4,
      "note": 55,
      "start": 8.6137,
      "duration": 0.0161,
      "velocity": 100,
      "chip": "ym2612"
    },
    {
      "channel": 1,
      "note": 74,
      "start": 8.6148,
      "duration": 0.0162,
      "velocity": 83,
      "chip": "ym2612"
    },
    {
      "channel": 0,
      "note": 75,
      "start": 8.6245,
      "duration": 0.0161,
      "velocity": 124,
      "chip": "ym2612"
    },
    {
      "channel": 5,
      "note": 74,
      "start": 8.6257,
      "duration": 0.0161,
      "velocity": 83,
      "chip": "ym2612"
    },
    {
      "channel": 3,
      "note": 71,
      "start": 8.6271,
      "duration": 0.0159,
      "velocity": 100,
      "chip": "ym2612"
    },
    {
      "channel": 2,
      "note": 74,
      "start": 8.6286,
      "duration": 0.016,
      "velocity": 100,
      "chip": "ym2612"
    },
    {
      "channel": 4,
      "note": 55,
      "start": 8.6298,
      "duration": 0.0161,
      "velocity": 100,
      "chip": "ym2612"
    },
    {
      "channel": 1,
      "note": 74,
      "start": 8.631,
      "duration": 0.0161,
      "velocity": 83,
      "chip": "ym2612"
    },
    {
      "channel": 0,
      "note": 72,
      "start": 8.6406,
      "duration": 0.0161,
      "velocity": 124,
      "chip": "ym2612"
    },
    {
      "channel": 5,
      "note": 74,
      "start": 8.6418,
      "duration": 0.0161,
      "velocity": 83,
      "chip": "ym2612"
    },
    {
      "channel": 3,
      "note": 71,
      "start": 8.643,
      "duration": 0.0161,
      "velocity": 100,
      "chip": "ym2612"
    },
    {
      "channel": 2,
      "note": 74,
      "start": 8.6447,
      "duration": 0.0158,
      "velocity": 100,
      "chip": "ym2612"
    },
    {
      "channel": 4,
      "note": 55,
      "start": 8.6459,
      "duration": 0.0161,
      "velocity": 100,
      "chip": "ym2612"
    },
    {
      "channel": 1,
      "note": 74,
      "start": 8.6471,
      "duration": 0.016,
      "velocity": 83,
      "chip": "ym2612"
    },
    {
      "channel": 0,
      "note": 70,
      "start": 8.6567,
      "duration": 0.0161,
      "velocity": 124,
      "chip": "ym2612"
    },
    {
      "channel": 5,
      "note": 74,
      "start": 8.6579,
      "duration": 0.0161,
      "velocity": 83,
      "chip": "ym2612"
    },
    {
      "channel": 3,
      "note": 71,
      "start": 8.6591,
      "duration": 0.016,
      "velocity": 100,
      "chip": "ym2612"
    },
    {
      "channel": 2,
      "note": 74,
      "start": 8.6605,
      "duration": 0.0159,
      "velocity": 100,
      "chip": "ym2612"
    },
    {
      "channel": 4,
      "note": 55,
      "start": 8.662,
      "duration": 0.016,
      "velocity": 100,
      "chip": "ym2612"
    },
    {
      "channel": 1,
      "note": 74,
      "start": 8.6632,
      "duration": 0.0161,
      "velocity": 83,
      "chip": "ym2612"
    },
    {
      "channel": 0,
      "note": 68,
      "start": 8.6728,
      "duration": 0.0162,
      "velocity": 124,
      "chip": "ym2612"
    },
    {
      "channel": 5,
      "note": 74,
      "start": 8.674,
      "duration": 0.0161,
      "velocity": 83,
      "chip": "ym2612"
    },
    {
      "channel": 3,
      "note": 71,
      "start": 8.6751,
      "duration": 0.0161,
      "velocity": 100,
      "chip": "ym2612"
    },
    {
      "channel": 2,
      "note": 74,
      "start": 8.6763,
      "duration": 0.0161,
      "velocity": 100,
      "chip": "ym2612"
    },
    {
      "channel": 4,
      "note": 55,
      "start": 8.678,
      "duration": 0.0158,
      "velocity": 100,
      "chip": "ym2612"
    },
    {
      "channel": 1,
      "note": 74,
      "start": 8.6793,
      "duration": 0.0161,
      "velocity": 83,
      "chip": "ym2612"
    },
    {
      "channel": 0,
      "note": 65,
      "start": 8.689,
      "duration": 0.0161,
      "velocity": 124,
      "chip": "ym2612"
    },
    {
      "channel": 5,
      "note": 74,
      "start": 8.6901,
      "duration": 0.0162,
      "velocity": 83,
      "chip": "ym2612"
    },
    {
      "channel": 3,
      "note": 71,
      "start": 8.6913,
      "duration": 0.0161,
      "velocity": 100,
      "chip": "ym2612"
    },
    {
      "channel": 2,
      "note": 74,
      "start": 8.6924,
      "duration": 0.0161,
      "velocity": 100,
      "chip": "ym2612"
    },
    {
      "channel": 4,
      "note": 55,
      "start": 8.6938,
      "duration": 0.0159,
      "velocity": 100,
      "chip": "ym2612"
    },
    {
      "channel": 1,
      "note": 74,
      "start": 8.6954,
      "duration": 0.0161,
      "velocity": 83,
      "chip": "ym2612"
    },
    {
      "channel": 0,
      "note": 63,
      "start": 8.705,
      "duration": 0.0153,
      "velocity": 1,
      "chip": "ym2612"
    },
    {
      "channel": 5,
      "note": 74,
      "start": 8.7063,
      "duration": 0.0152,
      "velocity": 83,
      "chip": "ym2612"
    },
    {
      "channel": 3,
      "note": 71,
      "start": 8.7074,
      "duration": 0.0153,
      "velocity": 100,
      "chip": "ym2612"
    },
    {
      "channel": 2,
      "note": 74,
      "start": 8.7085,
      "duration": 0.0153,
      "velocity": 100,
      "chip": "ym2612"
    },
    {
      "channel": 4,
      "note": 55,
      "start": 8.7097,
      "duration": 0.0153,
      "velocity": 100,
      "chip": "ym2612"
    },
    {
      "channel": 1,
      "note": 74,
      "start": 8.7115,
      "duration": 0.0147,
      "velocity": 83,
      "chip": "ym2612"
    },
    {
      "channel": 5,
      "note": 74,
      "start": 8.7215,
      "duration": 0.0153,
      "velocity": 83,
      "chip": "ym2612"
    },
    {
      "channel": 3,
      "note": 71,
      "start": 8.7227,
      "duration": 0.0153,
      "velocity": 100,
      "chip": "ym2612"
    },
    {
      "channel": 2,
      "note": 74,
      "start": 8.7238,
      "duration": 0.0153,
      "velocity": 100,
      "chip": "ym2612"
    },
    {
      "channel": 4,
      "note": 55,
      "start": 8.7249,
      "duration": 0.0154,
      "velocity": 100,
      "chip": "ym2612"
    },
    {
      "channel": 1,
      "note": 74,
      "start": 8.7262,
      "duration": 0.0153,
      "velocity": 83,
      "chip": "ym2612"
    },
    {
      "channel": 5,
      "note": 74,
      "start": 8.7367,
      "duration": 0.0161,
      "velocity": 83,
      "chip": "ym2612"
    },
    {
      "channel": 3,
      "note": 71,
      "start": 8.7379,
      "duration": 0.0161,
      "velocity": 100,
      "chip": "ym2612"
    },
    {
      "channel": 2,
      "note": 74,
      "start": 8.7391,
      "duration": 0.0161,
      "velocity": 100,
      "chip": "ym2612"
    },
    {
      "channel": 4,
      "note": 55,
      "start": 8.7403,
      "duration": 0.0161,
      "velocity": 100,
      "chip": "ym2612"
    },
    {
      "channel": 1,
      "note": 74,
      "start": 8.7415,
      "duration": 0.0161,
      "velocity": 83,
      "chip": "ym2612"
    },
    {
      "channel": 5,
      "note": 74,
      "start": 8.7528,
      "duration": 0.0162,
      "velocity": 83,
      "chip": "ym2612"
    },
    {
      "channel": 3,
      "note": 71,
      "start": 8.754,
      "duration": 0.0161,
      "velocity": 100,
      "chip": "ym2612"
    },
    {
      "channel": 2,
      "note": 74,
      "start": 8.7552,
      "duration": 0.0161,
      "velocity": 100,
      "chip": "ym2612"
    },
    {
      "channel": 4,
      "note": 55,
      "start": 8.7564,
      "duration": 0.0162,
      "velocity": 100,
      "chip": "ym2612"
    },
    {
      "channel": 5,
      "note": 74,
      "start": 8.769,
      "duration": 0.0161,
      "velocity": 83,
      "chip": "ym2612"
    },
    {
      "channel": 4,
      "note": 55,
      "start": 8.7725,
      "duration": 0.0171,
      "velocity": 100,
      "chip": "ym2612"
    },
    {
      "channel": 5,
      "note": 74,
      "start": 8.7851,
      "duration": 0.0161,
      "velocity": 83,
      "chip": "ym2612"
    },
    {
      "channel": 3,
      "note": 71,
      "start": 8.7866,
      "duration": 0.0158,
      "velocity": 100,
      "chip": "ym2612"
    },
    {
      "channel": 2,
      "note": 74,
      "start": 8.7881,
      "duration": 0.0155,
      "velocity": 100,
      "chip": "ym2612"
    },
    {
      "channel": 4,
      "note": 59,
      "start": 8.7896,
      "duration": 0.0152,
      "velocity": 100,
      "chip": "ym2612"
    },
    {
      "channel": 1,
      "note": 76,
      "start": 8.7911,
      "duration": 0.015,
      "velocity": 83,
      "chip": "ym2612"
    },
    {
      "channel": 5,
      "note": 74,
      "start": 8.8012,
      "duration": 0.0161,
      "velocity": 83,
      "chip": "ym2612"
    },
    {
      "channel": 3,
      "note": 71,
      "start": 8.8024,
      "duration": 0.016,
      "velocity": 100,
      "chip": "ym2612"
    },
    {
      "channel": 2,
      "note": 74,
      "start": 8.8037,
      "duration": 0.016,
      "velocity": 100,
      "chip": "ym2612"
    },
    {
      "channel": 4,
      "note": 59,
      "start": 8.8049,
      "duration": 0.0159,
      "velocity": 100,
      "chip": "ym2612"
    },
    {
      "channel": 1,
      "note": 76,
      "start": 8.8061,
      "duration": 0.0158,
      "velocity": 83,
      "chip": "ym2612"
    },
    {
      "channel": 3,
      "note": 71,
      "start": 8.8184,
      "duration": 0.0161,
      "velocity": 100,
      "chip": "ym2612"
    },
    {
      "channel": 2,
      "note": 74,
      "start": 8.8196,
      "duration": 0.016,
      "velocity": 100,
      "chip": "ym2612"
    },
    {
      "channel": 4,
      "note": 59,
      "start": 8.8207,
      "duration": 0.0161,
      "velocity": 100,
      "chip": "ym2612"
    },
    {
      "channel": 1,
      "note": 76,
      "start": 8.8219,
      "duration": 0.0161,
      "velocity": 83,
      "chip": "ym2612"
    },
    {
      "channel": 3,
      "note": 71,
      "start": 8.8345,
      "duration": 0.0164,
      "velocity": 100,
      "chip": "ym2612"
    },
    {
      "channel": 2,
      "note": 74,
      "start": 8.8356,
      "duration": 0.0164,
      "velocity": 100,
      "chip": "ym2612"
    },
    {
      "channel": 4,
      "note": 59,
      "start": 8.8368,
      "duration": 0.0164,
      "velocity": 100,
      "chip": "ym2612"
    },
    {
      "channel": 1,
      "note": 76,
      "start": 8.838,
      "duration": 0.0164,
      "velocity": 83,
      "chip": "ym2612"
    },
    {
      "channel": 5,
      "note": 76,
      "start": 8.8498,
      "duration": 0.0158,
      "velocity": 83,
      "chip": "ym2612"
    },
    {
      "channel": 3,
      "note": 71,
      "start": 8.8509,
      "duration": 0.0159,
      "velocity": 100,
      "chip": "ym2612"
    },
    {
      "channel": 2,
      "note": 74,
      "start": 8.852,
      "duration": 0.0159,
      "velocity": 100,
      "chip": "ym2612"
    },
    {
      "channel": 4,
      "note": 59,
      "start": 8.8533,
      "duration": 0.0158,
      "velocity": 100,
      "chip": "ym2612"
    },
    {
      "channel": 1,
      "note": 76,
      "start": 8.8544,
      "duration": 0.0159,
      "velocity": 83,
      "chip": "ym2612"
    },
    {
      "channel": 5,
      "note": 76,
      "start": 8.8656,
      "duration": 0.016,
      "velocity": 83,
      "chip": "ym2612"
    },
    {
      "channel": 3,
      "note": 71,
      "start": 8.8668,
      "duration": 0.016,
      "velocity": 100,
      "chip": "ym2612"
    },
    {
      "channel": 2,
      "note": 74,
      "start": 8.868,
      "duration": 0.016,
      "velocity": 100,
      "chip": "ym2612"
    },
    {
      "channel": 4,
      "note": 59,
      "start": 8.8691,
      "duration": 0.016,
      "velocity": 100,
      "chip": "ym2612"
    },
    {
      "channel": 1,
      "note": 76,
      "start": 8.8702,
      "duration": 0.0161,
      "velocity": 83,
      "chip": "ym2612"
    },
    {
      "channel": 5,
      "note": 76,
      "start": 8.8816,
      "duration": 0.0161,
      "velocity": 83,
      "chip": "ym2612"
    },
    {
      "channel": 3,
      "note": 71,
      "start": 8.8828,
      "duration": 0.0161,
      "velocity": 100,
      "chip": "ym2612"
    },
    {
      "channel": 2,
      "note": 74,
      "start": 8.884,
      "duration": 0.0161,
      "velocity": 100,
      "chip": "ym2612"
    },
    {
      "channel": 4,
      "note": 59,
      "start": 8.8851,
      "duration": 0.0161,
      "velocity": 100,
      "chip": "ym2612"
    },
    {
      "channel": 1,
      "note": 76,
      "start": 8.8863,
      "duration": 0.016,
      "velocity": 83,
      "chip": "ym2612"
    },
    {
      "channel": 5,
      "note": 76,
      "start": 8.8977,
      "duration": 0.0161,
      "velocity": 83,
      "chip": "ym2612"
    },
    {
      "channel": 3,
      "note": 71,
      "start": 8.8989,
      "duration": 0.0161,
      "velocity": 100,
      "chip": "ym2612"
    },
    {
      "channel": 2,
      "note": 74,
      "start": 8.9001,
      "duration": 0.0161,
      "velocity": 100,
      "chip": "ym2612"
    },
    {
      "channel": 4,
      "note": 59,
      "start": 8.9012,
      "duration": 0.0161,
      "velocity": 100,
      "chip": "ym2612"
    },
    {
      "channel": 1,
      "note": 76,
      "start": 8.9024,
      "duration": 0.0161,
      "velocity": 83,
      "chip": "ym2612"
    },
    {
      "channel": 5,
      "note": 76,
      "start": 8.9139,
      "duration": 0.0161,
      "velocity": 83,
      "chip": "ym2612"
    },
    {
      "channel": 3,
      "note": 71,
      "start": 8.915,
      "duration": 0.0161,
      "velocity": 100,
      "chip": "ym2612"
    },
    {
      "channel": 2,
      "note": 74,
      "start": 8.9162,
      "duration": 0.0161,
      "velocity": 100,
      "chip": "ym2612"
    },
    {
      "channel": 4,
      "note": 59,
      "start": 8.9173,
      "duration": 0.0161,
      "velocity": 100,
      "chip": "ym2612"
    },
    {
      "channel": 1,
      "note": 76,
      "start": 8.9185,
      "duration": 0.0161,
      "velocity": 83,
      "chip": "ym2612"
    },
    {
      "channel": 5,
      "note": 76,
      "start": 8.93,
      "duration": 0.0162,
      "velocity": 83,
      "chip": "ym2612"
    },
    {
      "channel": 3,
      "note": 71,
      "start": 8.9311,
      "duration": 0.0161,
      "velocity": 100,
      "chip": "ym2612"
    },
    {
      "channel": 2,
      "note": 74,
      "start": 8.9323,
      "duration": 0.0162,
      "velocity": 100,
      "chip": "ym2612"
    },
    {
      "channel": 4,
      "note": 59,
      "start": 8.9334,
      "duration": 0.0161,
      "velocity": 100,
      "chip": "ym2612"
    },
    {
      "channel": 1,
      "note": 76,
      "start": 8.9346,
      "duration": 0.0161,
      "velocity": 83,
      "chip": "ym2612"
    },
    {
      "channel": 5,
      "note": 76,
      "start": 8.9461,
      "duration": 0.0164,
      "velocity": 83,
      "chip": "ym2612"
    },
    {
      "channel": 3,
      "note": 71,
      "start": 8.9473,
      "duration": 0.0164,
      "velocity": 100,
      "chip": "ym2612"
    },
    {
      "channel": 2,
      "note": 74,
      "start": 8.9484,
      "duration": 0.0164,
      "velocity": 100,
      "chip": "ym2612"
    },
    {
      "channel": 4,
      "note": 59,
      "start": 8.9496,
      "duration": 0.0164,
      "velocity": 100,
      "chip": "ym2612"
    },
    {
      "channel": 1,
      "note": 76,
      "start": 8.9508,
      "duration": 0.0164,
      "velocity": 83,
      "chip": "ym2612"
    },
    {
      "channel": 5,
      "note": 76,
      "start": 8.9625,
      "duration": 0.0163,
      "velocity": 83,
      "chip": "ym2612"
    },
    {
      "channel": 3,
      "note": 71,
      "start": 8.9637,
      "duration": 0.0163,
      "velocity": 100,
      "chip": "ym2612"
    },
    {
      "channel": 2,
      "note": 74,
      "start": 8.9648,
      "duration": 0.0163,
      "velocity": 100,
      "chip": "ym2612"
    },
    {
      "channel": 4,
      "note": 59,
      "start": 8.966,
      "duration": 0.0163,
      "velocity": 100,
      "chip": "ym2612"
    },
    {
      "channel": 1,
      "note": 76,
      "start": 8.9672,
      "duration": 0.0163,
      "velocity": 83,
      "chip": "ym2612"
    },
    {
      "channel": 5,
      "note": 76,
      "start": 8.9788,
      "duration": 0.0161,
      "velocity": 83,
      "chip": "ym2612"
    },
    {
      "channel": 3,
      "note": 71,
      "start": 8.98,
      "duration": 0.0162,
      "velocity": 100,
      "chip": "ym2612"
    },
    {
      "channel": 2,
      "note": 74,
      "start": 8.9812,
      "duration": 0.0161,
      "velocity": 100,
      "chip": "ym2612"
    },
    {
      "channel": 4,
      "note": 59,
      "start": 8.9823,
      "duration": 0.0161,
      "velocity": 100,
      "chip": "ym2612"
    },
    {
      "channel": 5,
      "note": 76,
      "start": 8.9949,
      "duration": 0.0197,
      "velocity": 83,
      "chip": "ym2612"
    },
    {
      "channel": 4,
      "note": 59,
      "start": 8.9984,
      "duration": 0.0206,
      "velocity": 100,
      "chip": "ym2612"
    },
    {
      "channel": 0,
      "note": 36,
      "start": 9.0134,
      "duration": 0.0142,
      "velocity": 115,
      "chip": "ym2612"
    },
    {
      "channel": 5,
      "note": 76,
      "start": 9.0146,
      "duration": 0.0143,
      "velocity": 83,
      "chip": "ym2612"
    },
    {
      "channel": 3,
      "note": 71,
      "start": 9.0161,
      "duration": 0.014,
      "velocity": 100,
      "chip": "ym2612"
    },
    {
      "channel": 2,
      "note": 74,
      "start": 9.0176,
      "duration": 0.0137,
      "velocity": 100,
      "chip": "ym2612"
    },
    {
      "channel": 4,
      "note": 57,
      "start": 9.0191,
      "duration": 0.0135,
      "velocity": 100,
      "chip": "ym2612"
    },
    {
      "channel": 1,
      "note": 78,
      "start": 9.0206,
      "duration": 0.0132,
      "velocity": 83,
      "chip": "ym2612"
    },
    {
      "channel": 0,
      "note": 36,
      "start": 9.0276,
      "duration": 0.0155,
      "velocity": 115,
      "chip": "ym2612"
    },
    {
      "channel": 5,
      "note": 76,
      "start": 9.0289,
      "duration": 0.016,
      "velocity": 83,
      "chip": "ym2612"
    },
    {
      "channel": 3,
      "note": 71,
      "start": 9.0301,
      "duration": 0.016,
      "velocity": 100,
      "chip": "ym2612"
    },
    {
      "channel": 2,
      "note": 74,
      "start": 9.0313,
      "duration": 0.016,
      "velocity": 100,
      "chip": "ym2612"
    },
    {
      "channel": 4,
      "note": 57,
      "start": 9.0326,
      "duration": 0.0159,
      "velocity": 100,
      "chip": "ym2612"
    },
    {
      "channel": 1,
      "note": 78,
      "start": 9.0338,
      "duration": 0.0158,
      "velocity": 83,
      "chip": "ym2612"
    },
    {
      "channel": 0,
      "note": 37,
      "start": 9.0432,
      "duration": 0.0161,
      "velocity": 115,
      "chip": "ym2612"
    },
    {
      "channel": 3,
      "note": 71,
      "start": 9.0461,
      "duration": 0.0161,
      "velocity": 100,
      "chip": "ym2612"
    },
    {
      "channel": 2,
      "note": 74,
      "start": 9.0473,
      "duration": 0.0161,
      "velocity": 100,
      "chip": "ym2612"
    },
    {
      "channel": 4,
      "note": 57,
      "start": 9.0484,
      "duration": 0.0161,
      "velocity": 100,
      "chip": "ym2612"
    },
    {
      "channel": 1,
      "note": 78,
      "start": 9.0496,
      "duration": 0.0161,
      "velocity": 83,
      "chip": "ym2612"
    },
    {
      "channel": 0,
      "note": 37,
      "start": 9.0593,
      "duration": 0.0161,
      "velocity": 115,
      "chip": "ym2612"
    },
    {
      "channel": 3,
      "note": 71,
      "start": 9.0622,
      "duration": 0.0163,
      "velocity": 100,
      "chip": "ym2612"
    },
    {
      "channel": 2,
      "note": 74,
      "start": 9.0634,
      "duration": 0.0164,
      "velocity": 100,
      "chip": "ym2612"
    },
    {
      "channel": 4,
      "note": 57,
      "start": 9.0645,
      "duration": 0.0164,
      "velocity": 100,
      "chip": "ym2612"
    },
    {
      "channel": 1,
      "note": 78,
      "start": 9.0657,
      "duration": 0.0164,
      "velocity": 83,
      "chip": "ym2612"
    },
    {
      "channel": 0,
      "note": 38,
      "start": 9.0753,
      "duration": 0.0161,
      "velocity": 115,
      "chip": "ym2612"
    },
    {
      "channel": 5,
      "note": 78,
      "start": 9.0771,
      "duration": 0.0156,
      "velocity": 83,
      "chip": "ym2612"
    },
    {
      "channel": 3,
      "note": 71,
      "start": 9.0786,
      "duration": 0.0159,
      "velocity": 100,
      "chip": "ym2612"
    },
    {
      "channel": 2,
      "note": 74,
      "start": 9.0798,
      "duration": 0.0158,
      "velocity": 100,
      "chip": "ym2612"
    },
    {
      "channel": 4,
      "note": 57,
      "start": 9.0809,
      "duration": 0.0159,
      "velocity": 100,
      "chip": "ym2612"
    },
    {
      "channel": 1,
      "note": 78,
      "start": 9.0821,
      "duration": 0.0158,
      "velocity": 83,
      "chip": "ym2612"
    },
    {
      "channel": 0,
      "note": 38,
      "start": 9.0914,
      "duration": 0.0161,
      "velocity": 115,
      "chip": "ym2612"
    },
    {
      "channel": 5,
      "note": 78,
      "start": 9.0927,
      "duration": 0.016,
      "velocity": 83,
      "chip": "ym2612"
    },
    {
      "channel": 3,
      "note": 71,
      "start": 9.0944,
      "duration": 0.0155,
      "velocity": 100,
      "chip": "ym2612"
    },
    {
      "channel": 2,
      "note": 74,
      "start": 9.0956,
      "duration": 0.016,
      "velocity": 100,
      "chip": "ym2612"
    },
    {
      "channel": 4,
      "note": 57,
      "start": 9.0968,
      "duration": 0.016,
      "velocity": 100,
      "chip": "ym2612"
    },
    {
      "channel": 1,
      "note": 78,
      "start": 9.0979,
      "duration": 0.0161,
      "velocity": 83,
      "chip": "ym2612"
    },
    {
      "channel": 0,
      "note": 39,
      "start": 9.1075,
      "duration": 0.0161,
      "velocity": 115,
      "chip": "ym2612"
    },
    {
      "channel": 5,
      "note": 78,
      "start": 9.1087,
      "duration": 0.0161,
      "velocity": 83,
      "chip": "ym2612"
    },
    {
      "channel": 3,
      "note": 71,
      "start": 9.1099,
      "duration": 0.0161,
      "velocity": 100,
      "chip": "ym2612"
    },
    {
      "channel": 2,
      "note": 74,
      "start": 9.1117,
      "duration": 0.016,
      "velocity": 100,
      "chip": "ym2612"
    },
    {
      "channel": 4,
      "note": 57,
      "start": 9.1128,
      "duration": 0.0161,
      "velocity": 100,
      "chip": "ym2612"
    },
    {
      "channel": 1,
      "note": 78,
      "start": 9.114,
      "duration": 0.0161,
      "velocity": 83,
      "chip": "ym2612"
    },
    {
      "channel": 0,
      "note": 39,
      "start": 9.1237,
      "duration": 0.0161,
      "velocity": 115,
      "chip": "ym2612"
    },
    {
      "channel": 5,
      "note": 78,
      "start": 9.1248,
      "duration": 0.0161,
      "velocity": 83,
      "chip": "ym2612"
    },
    {
      "channel": 3,
      "note": 71,
      "start": 9.126,
      "duration": 0.0161,
      "velocity": 100,
      "chip": "ym2612"
    },
    {
      "channel": 2,
      "note": 74,
      "start": 9.1277,
      "duration": 0.0156,
      "velocity": 100,
      "chip": "ym2612"
    },
    {
      "channel": 4,
      "note": 57,
      "start": 9.1289,
      "duration": 0.0161,
      "velocity": 100,
      "chip": "ym2612"
    },
    {
      "channel": 1,
      "note": 78,
      "start": 9.1301,
      "duration": 0.0161,
      "velocity": 83,
      "chip": "ym2612"
    },
    {
      "channel": 0,
      "note": 40,
      "start": 9.1398,
      "duration": 0.0161,
      "velocity": 115,
      "chip": "ym2612"
    },
    {
      "channel": 5,
      "note": 78,
      "start": 9.1409,
      "duration": 0.0161,
      "velocity": 83,
      "chip": "ym2612"
    },
    {
      "channel": 3,
      "note": 71,
      "start": 9.1421,
      "duration": 0.0161,
      "velocity": 100,
      "chip": "ym2612"
    },
    {
      "channel": 2,
      "note": 74,
      "start": 9.1433,
      "duration": 0.0161,
      "velocity": 100,
      "chip": "ym2612"
    },
    {
      "channel": 4,
      "note": 57,
      "start": 9.145,
      "duration": 0.0161,
      "velocity": 100,
      "chip": "ym2612"
    },
    {
      "channel": 1,
      "note": 78,
      "start": 9.1462,
      "duration": 0.0161,
      "velocity": 83,
      "chip": "ym2612"
    },
    {
      "channel": 0,
      "note": 40,
      "start": 9.1559,
      "duration": 0.0161,
      "velocity": 115,
      "chip": "ym2612"
    },
    {
      "channel": 5,
      "note": 78,
      "start": 9.1571,
      "duration": 0.0161,
      "velocity": 83,
      "chip": "ym2612"
    },
    {
      "channel": 3,
      "note": 71,
      "start": 9.1582,
      "duration": 0.0161,
      "velocity": 100,
      "chip": "ym2612"
    },
    {
      "channel": 2,
      "note": 74,
      "start": 9.1594,
      "duration": 0.0161,
      "velocity": 100,
      "chip": "ym2612"
    },
    {
      "channel": 4,
      "note": 57,
      "start": 9.1611,
      "duration": 0.0155,
      "velocity": 100,
      "chip": "ym2612"
    },
    {
      "channel": 1,
      "note": 78,
      "start": 9.1623,
      "duration": 0.0162,
      "velocity": 83,
      "chip": "ym2612"
    },
    {
      "channel": 0,
      "note": 40,
      "start": 9.172,
      "duration": 0.0161,
      "velocity": 115,
      "chip": "ym2612"
    },
    {
      "channel": 5,
      "note": 78,
      "start": 9.1732,
      "duration": 0.016,
      "velocity": 83,
      "chip": "ym2612"
    },
    {
      "channel": 3,
      "note": 71,
      "start": 9.1743,
      "duration": 0.0161,
      "velocity": 100,
      "chip": "ym2612"
    },
    {
      "channel": 2,
      "note": 74,
      "start": 9.1755,
      "duration": 0.0161,
      "velocity": 100,
      "chip": "ym2612"
    },
    {
      "channel": 4,
      "note": 57,
      "start": 9.1766,
      "duration": 0.0161,
      "velocity": 100,
      "chip": "ym2612"
    },
    {
      "channel": 1,
      "note": 78,
      "start": 9.1785,
      "duration": 0.016,
      "velocity": 83,
      "chip": "ym2612"
    },
    {
      "channel": 0,
      "note": 41,
      "start": 9.188,
      "duration": 0.0161,
      "velocity": 115,
      "chip": "ym2612"
    },
    {
      "channel": 5,
      "note": 78,
      "start": 9.1892,
      "duration": 0.0161,
      "velocity": 83,
      "chip": "ym2612"
    },
    {
      "channel": 3,
      "note": 71,
      "start": 9.1904,
      "duration": 0.0161,
      "velocity": 100,
      "chip": "ym2612"
    },
    {
      "channel": 2,
      "note": 74,
      "start": 9.1916,
      "duration": 0.0161,
      "velocity": 100,
      "chip": "ym2612"
    },
    {
      "channel": 4,
      "note": 57,
      "start": 9.1927,
      "duration": 0.0162,
      "velocity": 100,
      "chip": "ym2612"
    },
    {
      "channel": 1,
      "note": 78,
      "start": 9.1944,
      "duration": 0.0156,
      "velocity": 83,
      "chip": "ym2612"
    },
    {
      "channel": 0,
      "note": 41,
      "start": 9.2041,
      "duration": 0.0161,
      "velocity": 115,
      "chip": "ym2612"
    },
    {
      "channel": 5,
      "note": 78,
      "start": 9.2054,
      "duration": 0.0161,
      "velocity": 83,
      "chip": "ym2612"
    },
    {
      "channel": 3,
      "note": 71,
      "start": 9.2065,
      "duration": 0.0161,
      "velocity": 100,
      "chip": "ym2612"
    },
    {
      "channel": 2,
      "note": 74,
      "start": 9.2077,
      "duration": 0.0161,
      "velocity": 100,
      "chip": "ym2612"
    },
    {
      "channel": 4,
      "note": 57,
      "start": 9.2089,
      "duration": 0.0161,
      "velocity": 100,
      "chip": "ym2612"
    },
    {
      "channel": 1,
      "note": 78,
      "start": 9.2101,
      "duration": 0.0161,
      "velocity": 83,
      "chip": "ym2612"
    },
    {
      "channel": 0,
      "note": 42,
      "start": 9.2202,
      "duration": 0.0161,
      "velocity": 115,
      "chip": "ym2612"
    },
    {
      "channel": 5,
      "note": 78,
      "start": 9.2215,
      "duration": 0.0161,
      "velocity": 83,
      "chip": "ym2612"
    },
    {
      "channel": 4,
      "note": 57,
      "start": 9.2249,
      "duration": 0.017,
      "velocity": 100,
      "chip": "ym2612"
    },
    {
      "channel": 1,
      "note": 78,
      "start": 9.2262,
      "duration": 0.0169,
      "velocity": 83,
      "chip": "ym2612"
    },
    {
      "channel": 0,
      "note": 42,
      "start": 9.2363,
      "duration": 0.0161,
      "velocity": 115,
      "chip": "ym2612"
    },
    {
      "channel": 5,
      "note": 78,
      "start": 9.2376,
      "duration": 0.0161,
      "velocity": 83,
      "chip": "ym2612"
    },
    {
      "channel": 3,
      "note": 73,
      "start": 9.2391,
      "duration": 0.0158,
      "velocity": 100,
      "chip": "ym2612"
    },
    {
      "channel": 2,
      "note": 76,
      "start": 9.2408,
      "duration": 0.0153,
      "velocity": 100,
      "chip": "ym2612"
    },
    {
      "channel": 4,
      "note": 57,
      "start": 9.2419,
      "duration": 0.0154,
      "velocity": 100,
      "chip": "ym2612"
    },
    {
      "channel": 1,
      "note": 78,
      "start": 9.2431,
      "duration": 0.0153,
      "velocity": 83,
      "chip": "ym2612"
    },
    {
      "channel": 0,
      "note": 43,
      "start": 9.2524,
      "duration": 0.0161,
      "velocity": 115,
      "chip": "ym2612"
    },
    {
      "channel": 5,
      "note": 78,
      "start": 9.2537,
      "duration": 0.0161,
      "velocity": 83,
      "chip": "ym2612"
    },
    {
      "channel": 3,
      "note": 73,
      "start": 9.2549,
      "duration": 0.016,
      "velocity": 100,
      "chip": "ym2612"
    },
    {
      "channel": 2,
      "note": 76,
      "start": 9.2561,
      "duration": 0.016,
      "velocity": 100,
      "chip": "ym2612"
    },
    {
      "channel": 4,
      "note": 57,
      "start": 9.2573,
      "duration": 0.016,
      "velocity": 100,
      "chip": "ym2612"
    },
    {
      "channel": 1,
      "note": 78,
      "start": 9.2584,
      "duration": 0.016,
      "velocity": 83,
      "chip": "ym2612"
    },
    {
      "channel": 0,
      "note": 43,
      "start": 9.2685,
      "duration": 0.0162,
      "velocity": 115,
      "chip": "ym2612"
    },
    {
      "channel": 5,
      "note": 78,
      "start": 9.2698,
      "duration": 0.016,
      "velocity": 83,
      "chip": "ym2612"
    },
    {
      "channel": 3,
      "note": 73,
      "start": 9.271,
      "duration": 0.0161,
      "velocity": 100,
      "chip": "ym2612"
    },
    {
      "channel": 2,
      "note": 76,
      "start": 9.2721,
      "duration": 0.0161,
      "velocity": 100,
      "chip": "ym2612"
    },
    {
      "channel": 4,
      "note": 57,
      "start": 9.2732,
      "duration": 0.0161,
      "velocity": 100,
      "chip": "ym2612"
    },
    {
      "channel": 1,
      "note": 78,
      "start": 9.2744,
      "duration": 0.016,
      "velocity": 83,
      "chip": "ym2612"
    },
    {
      "channel": 0,
      "note": 44,
      "start": 9.2847,
      "duration": 0.0161,
      "velocity": 115,
      "chip": "ym2612"
    },
    {
      "channel": 5,
      "note": 78,
      "start": 9.2858,
      "duration": 0.0161,
      "velocity": 83,
      "chip": "ym2612"
    },
    {
      "channel": 3,
      "note": 73,
      "start": 9.287,
      "duration": 0.0161,
      "velocity": 100,
      "chip": "ym2612"
    },
    {
      "channel": 2,
      "note": 76,
      "start": 9.2882,
      "duration": 0.0161,
      "velocity": 100,
      "chip": "ym2612"
    },
    {
      "channel": 4,
      "note": 57,
      "start": 9.2893,
      "duration": 0.0162,
      "velocity": 100,
      "chip": "ym2612"
    },
    {
      "channel": 1,
      "note": 78,
      "start": 9.2905,
      "duration": 0.0162,
      "velocity": 83,
      "chip": "ym2612"
    },
    {
      "channel": 0,
      "note": 44,
      "start": 9.3008,
      "duration": 0.0161,
      "velocity": 115,
      "chip": "ym2612"
    },
    {
      "channel": 5,
      "note": 78,
      "start": 9.3019,
      "duration": 0.0161,
      "velocity": 83,
      "chip": "ym2612"
    },
    {
      "channel": 3,
      "note": 73,
      "start": 9.3031,
      "duration": 0.0161,
      "velocity": 100,
      "chip": "ym2612"
    },
    {
      "channel": 2,
      "note": 76,
      "start": 9.3043,
      "duration": 0.0161,
      "velocity": 100,
      "chip": "ym2612"
    },
    {
      "channel": 4,
      "note": 57,
      "start": 9.3055,
      "duration": 0.0161,
      "velocity": 100,
      "chip": "ym2612"
    },
    {
      "channel": 1,
      "note": 78,
      "start": 9.3067,
      "duration": 0.016,
      "velocity": 83,
      "chip": "ym2612"
    },
    {
      "channel": 0,
      "note": 44,
      "start": 9.3169,
      "duration": 0.0161,
      "velocity": 115,
      "chip": "ym2612"
    },
    {
      "channel": 5,
      "note": 78,
      "start": 9.3181,
      "duration": 0.0161,
      "velocity": 83,
      "chip": "ym2612"
    },
    {
      "channel": 3,
      "note": 73,
      "start": 9.3192,
      "duration": 0.0161,
      "velocity": 100,
      "chip": "ym2612"
    },
    {
      "channel": 2,
      "note": 76,
      "start": 9.3204,
      "duration": 0.0161,
      "velocity": 100,
      "chip": "ym2612"
    },
    {
      "channel": 4,
      "note": 57,
      "start": 9.3216,
      "duration": 0.0161,
      "velocity": 100,
      "chip": "ym2612"
    },
    {
      "channel": 1,
      "note": 78,
      "start": 9.3227,
      "duration": 0.0162,
      "velocity": 83,
      "chip": "ym2612"
    },
    {
      "channel": 0,
      "note": 45,
      "start": 9.333,
      "duration": 0.0179,
      "velocity": 115,
      "chip": "ym2612"
    },
    {
      "channel": 5,
      "note": 78,
      "start": 9.3342,
      "duration": 0.0179,
      "velocity": 83,
      "chip": "ym2612"
    },
    {
      "channel": 3,
      "note": 73,
      "start": 9.3353,
      "duration": 0.0179,
      "velocity": 100,
      "chip": "ym2612"
    },
    {
      "channel": 2,
      "note": 76,
      "start": 9.3365,
      "duration": 0.0179,
      "velocity": 100,
      "chip": "ym2612"
    },
    {
      "channel": 4,
      "note": 57,
      "start": 9.3377,
      "duration": 0.0181,
      "velocity": 100,
      "chip": "ym2612"
    },
    {
      "channel": 1,
      "note": 78,
      "start": 9.3389,
      "duration": 0.0182,
      "velocity": 83,
      "chip": "ym2612"
    },
    {
      "channel": 0,
      "note": 36,
      "start": 9.3509,
      "duration": 0.0143,
      "velocity": 115,
      "chip": "ym2612"
    },
    {
      "channel": 5,
      "note": 78,
      "start": 9.3521,
      "duration": 0.0143,
      "velocity": 83,
      "chip": "ym2612"
    },
    {
      "channel": 3,
      "note": 73,
      "start": 9.3533,
      "duration": 0.0144,
      "velocity": 100,
      "chip": "ym2612"
    },
    {
      "channel": 2,
      "note": 76,
      "start": 9.3544,
      "duration": 0.0144,
      "velocity": 100,
      "chip": "ym2612"
    },
    {
      "channel": 4,
      "note": 52,
      "start": 9.3559,
      "duration": 0.0141,
      "velocity": 100,
      "chip": "ym2612"
    },
    {
      "channel": 1,
      "note": 78,
      "start": 9.3571,
      "duration": 0.0141,
      "velocity": 83,
      "chip": "ym2612"
    },
    {
      "channel": 0,
      "note": 36,
      "start": 9.3652,
      "duration": 0.016,
      "velocity": 115,
      "chip": "ym2612"
    },
    {
      "channel": 5,
      "note": 78,
      "start": 9.3664,
      "duration": 0.016,
      "velocity": 83,
      "chip": "ym2612"
    },
    {
      "channel": 3,
      "note": 73,
      "start": 9.3676,
      "duration": 0.016,
      "velocity": 100,
      "chip": "ym2612"
    },
    {
      "channel": 2,
      "note": 76,
      "start": 9.3688,
      "duration": 0.016,
      "velocity": 100,
      "chip": "ym2612"
    },
    {
      "channel": 4,
      "note": 52,
      "start": 9.37,
      "duration": 0.016,
      "velocity": 100,
      "chip": "ym2612"
    },
    {
      "channel": 1,
      "note": 78,
      "start": 9.3711,
      "duration": 0.016,
      "velocity": 83,
      "chip": "ym2612"
    },
    {
      "channel": 0,
      "note": 37,
      "start": 9.3812,
      "duration": 0.0161,
      "velocity": 115,
      "chip": "ym2612"
    },
    {
      "channel": 5,
      "note": 78,
      "start": 9.3824,
      "duration": 0.0161,
      "velocity": 83,
      "chip": "ym2612"
    },
    {
      "channel": 3,
      "note": 73,
      "start": 9.3836,
      "duration": 0.0162,
      "velocity": 100,
      "chip": "ym2612"
    },
    {
      "channel": 2,
      "note": 76,
      "start": 9.3848,
      "duration": 0.0161,
      "velocity": 100,
      "chip": "ym2612"
    },
    {
      "channel": 4,
      "note": 52,
      "start": 9.386,
      "duration": 0.0161,
      "velocity": 100,
      "chip": "ym2612"
    },
    {
      "channel": 1,
      "note": 78,
      "start": 9.3871,
      "duration": 0.0162,
      "velocity": 83,
      "chip": "ym2612"
    },
    {
      "channel": 0,
      "note": 37,
      "start": 9.3973,
      "duration": 0.0161,
      "velocity": 115,
      "chip": "ym2612"
    },
    {
      "channel": 5,
      "note": 78,
      "start": 9.3985,
      "duration": 0.0162,
      "velocity": 83,
      "chip": "ym2612"
    },
    {
      "channel": 3,
      "note": 73,
      "start": 9.3998,
      "duration": 0.0161,
      "velocity": 100,
      "chip": "ym2612"
    },
    {
      "channel": 2,
      "note": 76,
      "start": 9.4009,
      "duration": 0.0162,
      "velocity": 100,
      "chip": "ym2612"
    },
    {
      "channel": 4,
      "note": 52,
      "start": 9.402,
      "duration": 0.0162,
      "velocity": 100,
      "chip": "ym2612"
    },
    {
      "channel": 1,
      "note": 78,
      "start": 9.4033,
      "duration": 0.0161,
      "velocity": 83,
      "chip": "ym2612"
    },
    {
      "channel": 0,
      "note": 38,
      "start": 9.4135,
      "duration": 0.0163,
      "velocity": 115,
      "chip": "ym2612"
    },
    {
      "channel": 5,
      "note": 78,
      "start": 9.4147,
      "duration": 0.0163,
      "velocity": 83,
      "chip": "ym2612"
    },
    {
      "channel": 3,
      "note": 73,
      "start": 9.4159,
      "duration": 0.0163,
      "velocity": 100,
      "chip": "ym2612"
    },
    {
      "channel": 2,
      "note": 76,
      "start": 9.4171,
      "duration": 0.0163,
      "velocity": 100,
      "chip": "ym2612"
    },
    {
      "channel": 4,
      "note": 52,
      "start": 9.4182,
      "duration": 0.0163,
      "velocity": 100,
      "chip": "ym2612"
    },
    {
      "channel": 1,
      "note": 78,
      "start": 9.4194,
      "duration": 0.0163,
      "velocity": 83,
      "chip": "ym2612"
    },
    {
      "channel": 0,
      "note": 38,
      "start": 9.4298,
      "duration": 0.0163,
      "velocity": 115,
      "chip": "ym2612"
    },
    {
      "channel": 5,
      "note": 78,
      "start": 9.4311,
      "duration": 0.0163,
      "velocity": 83,
      "chip": "ym2612"
    },
    {
      "channel": 3,
      "note": 73,
      "start": 9.4322,
      "duration": 0.0163,
      "velocity": 100,
      "chip": "ym2612"
    },
    {
      "channel": 2,
      "note": 76,
      "start": 9.4334,
      "duration": 0.0163,
      "velocity": 100,
      "chip": "ym2612"
    },
    {
      "channel": 4,
      "note": 52,
      "start": 9.4346,
      "duration": 0.0163,
      "velocity": 100,
      "chip": "ym2612"
    },
    {
      "channel": 1,
      "note": 78,
      "start": 9.4357,
      "duration": 0.0163,
      "velocity": 83,
      "chip": "ym2612"
    },
    {
      "channel": 0,
      "note": 39,
      "start": 9.4461,
      "duration": 0.018,
      "velocity": 124,
      "chip": "ym2612"
    },
    {
      "channel": 5,
      "note": 78,
      "start": 9.4473,
      "duration": 0.0181,
      "velocity": 83,
      "chip": "ym2612"
    },
    {
      "channel": 4,
      "note": 52,
      "start": 9.4508,
      "duration": 0.0188,
      "velocity": 100,
      "chip": "ym2612"
    },
    {
      "channel": 1,
      "note": 78,
      "start": 9.452,
      "duration": 0.0187,
      "velocity": 83,
      "chip": "ym2612"
    },
    {
      "channel": 0,
      "note": 84,
      "start": 9.4642,
      "duration": 0.0143,
      "velocity": 124,
      "chip": "ym2612"
    },
    {
      "channel": 5,
      "note": 78,
      "start": 9.4654,
      "duration": 0.0143,
      "velocity": 83,
      "chip": "ym2612"
    },
    {
      "channel": 3,
      "note": 73,
      "start": 9.4669,
      "duration": 0.014,
      "velocity": 100,
      "chip": "ym2612"
    },
    {
      "channel": 2,
      "note": 76,
      "start": 9.4684,
      "duration": 0.0138,
      "velocity": 100,
      "chip": "ym2612"
    },
    {
      "channel": 4,
      "note": 52,
      "start": 9.4696,
      "duration": 0.0137,
      "velocity": 100,
      "chip": "ym2612"
    },
    {
      "channel": 1,
      "note": 78,
      "start": 9.4707,
      "duration": 0.0137,
      "velocity": 83,
      "chip": "ym2612"
    },
    {
      "channel": 0,
      "note": 82,
      "start": 9.4785,
      "duration": 0.016,
      "velocity": 124,
      "chip": "ym2612"
    },
    {
      "channel": 5,
      "note": 78,
      "start": 9.4797,
      "duration": 0.016,
      "velocity": 83,
      "chip": "ym2612"
    },
    {
      "channel": 3,
      "note": 73,
      "start": 9.4809,
      "duration": 0.016,
      "velocity": 100,
      "chip": "ym2612"
    },
    {
      "channel": 2,
      "note": 76,
      "start": 9.4822,
      "duration": 0.0159,
      "velocity": 100,
      "chip": "ym2612"
    },
    {
      "channel": 4,
      "note": 52,
      "start": 9.4834,
      "duration": 0.0159,
      "velocity": 100,
      "chip": "ym2612"
    },
    {
      "channel": 1,
      "note": 78,
      "start": 9.4845,
      "duration": 0.016,
      "velocity": 83,
      "chip": "ym2612"
    },
    {
      "channel": 0,
      "note": 80,
      "start": 9.4945,
      "duration": 0.0156,
      "velocity": 124,
      "chip": "ym2612"
    },
    {
      "channel": 5,
      "note": 78,
      "start": 9.4958,
      "duration": 0.0161,
      "velocity": 83,
      "chip": "ym2612"
    },
    {
      "channel": 3,
      "note": 73,
      "start": 9.4969,
      "duration": 0.0162,
      "velocity": 100,
      "chip": "ym2612"
    },
    {
      "channel": 2,
      "note": 76,
      "start": 9.4981,
      "duration": 0.0161,
      "velocity": 100,
      "chip": "ym2612"
    },
    {
      "channel": 4,
      "note": 52,
      "start": 9.4993,
      "duration": 0.0161,
      "velocity": 100,
      "chip": "ym2612"
    },
    {
      "channel": 1,
      "note": 78,
      "start": 9.5005,
      "duration": 0.0161,
      "velocity": 83,
      "chip": "ym2612"
    },
    {
      "channel": 0,
      "note": 77,
      "start": 9.5101,
      "duration": 0.0161,
      "velocity": 124,
      "chip": "ym2612"
    },
    {
      "channel": 5,
      "note": 78,
      "start": 9.5119,
      "duration": 0.016,
      "velocity": 83,
      "chip": "ym2612"
    },
    {
      "channel": 3,
      "note": 73,
      "start": 9.5131,
      "duration": 0.0161,
      "velocity": 100,
      "chip": "ym2612"
    },
    {
      "channel": 2,
      "note": 76,
      "start": 9.5142,
      "duration": 0.0161,
      "velocity": 100,
      "chip": "ym2612"
    },
    {
      "channel": 4,
      "note": 52,
      "start": 9.5154,
      "duration": 0.0161,
      "velocity": 100,
      "chip": "ym2612"
    },
    {
      "channel": 1,
      "note": 78,
      "start": 9.5166,
      "duration": 0.0161,
      "velocity": 83,
      "chip": "ym2612"
    },
    {
      "channel": 0,
      "note": 75,
      "start": 9.5262,
      "duration": 0.0161,
      "velocity": 124,
      "chip": "ym2612"
    },
    {
      "channel": 5,
      "note": 78,
      "start": 9.5279,
      "duration": 0.0155,
      "velocity": 83,
      "chip": "ym2612"
    },
    {
      "channel": 3,
      "note": 73,
      "start": 9.5292,
      "duration": 0.0161,
      "velocity": 100,
      "chip": "ym2612"
    },
    {
      "channel": 2,
      "note": 76,
      "start": 9.5303,
      "duration": 0.0161,
      "velocity": 100,
      "chip": "ym2612"
    },
    {
      "channel": 4,
      "note": 52,
      "start": 9.5315,
      "duration": 0.0161,
      "velocity": 100,
      "chip": "ym2612"
    },
    {
      "channel": 1,
      "note": 78,
      "start": 9.5327,
      "duration": 0.0161,
      "velocity": 83,
      "chip": "ym2612"
    },
    {
      "channel": 0,
      "note": 72,
      "start": 9.5422,
      "duration": 0.0161,
      "velocity": 124,
      "chip": "ym2612"
    },
    {
      "channel": 5,
      "note": 78,
      "start": 9.5435,
      "duration": 0.0161,
      "velocity": 83,
      "chip": "ym2612"
    },
    {
      "channel": 3,
      "note": 73,
      "start": 9.5452,
      "duration": 0.016,
      "velocity": 100,
      "chip": "ym2612"
    },
    {
      "channel": 2,
      "note": 76,
      "start": 9.5464,
      "duration": 0.0161,
      "velocity": 100,
      "chip": "ym2612"
    },
    {
      "channel": 4,
      "note": 52,
      "start": 9.5475,
      "duration": 0.0162,
      "velocity": 100,
      "chip": "ym2612"
    },
    {
      "channel": 1,
      "note": 78,
      "start": 9.5488,
      "duration": 0.0161,
      "velocity": 83,
      "chip": "ym2612"
    },
    {
      "channel": 0,
      "note": 70,
      "start": 9.5583,
      "duration": 0.0162,
      "velocity": 124,
      "chip": "ym2612"
    },
    {
      "channel": 5,
      "note": 78,
      "start": 9.5596,
      "duration": 0.016,
      "velocity": 83,
      "chip": "ym2612"
    },
    {
      "channel": 3,
      "note": 73,
      "start": 9.5613,
      "duration": 0.0156,
      "velocity": 100,
      "chip": "ym2612"
    },
    {
      "channel": 2,
      "note": 76,
      "start": 9.5625,
      "duration": 0.0161,
      "velocity": 100,
      "chip": "ym2612"
    },
    {
      "channel": 4,
      "note": 52,
      "start": 9.5637,
      "duration": 0.016,
      "velocity": 100,
      "chip": "ym2612"
    },
    {
      "channel": 1,
      "note": 78,
      "start": 9.5648,
      "duration": 0.0161,
      "velocity": 83,
      "chip": "ym2612"
    },
    {
      "channel": 0,
      "note": 68,
      "start": 9.5745,
      "duration": 0.0161,
      "velocity": 124,
      "chip": "ym2612"
    },
    {
      "channel": 5,
      "note": 78,
      "start": 9.5756,
      "duration": 0.0161,
      "velocity": 83,
      "chip": "ym2612"
    },
    {
      "channel": 3,
      "note": 73,
      "start": 9.5769,
      "duration": 0.0161,
      "velocity": 100,
      "chip": "ym2612"
    },
    {
      "channel": 2,
      "note": 76,
      "start": 9.5786,
      "duration": 0.016,
      "velocity": 100,
      "chip": "ym2612"
    },
    {
      "channel": 4,
      "note": 52,
      "start": 9.5797,
      "duration": 0.0161,
      "velocity": 100,
      "chip": "ym2612"
    },
    {
      "channel": 1,
      "note": 78,
      "start": 9.5809,
      "duration": 0.0162,
      "velocity": 83,
      "chip": "ym2612"
    },
    {
      "channel": 0,
      "note": 65,
      "start": 9.5906,
      "duration": 0.0161,
      "velocity": 124,
      "chip": "ym2612"
    },
    {
      "channel": 5,
      "note": 78,
      "start": 9.5917,
      "duration": 0.0162,
      "velocity": 83,
      "chip": "ym2612"
    },
    {
      "channel": 3,
      "note": 73,
      "start": 9.5929,
      "duration": 0.0161,
      "velocity": 100,
      "chip": "ym2612"
    },
    {
      "channel": 2,
      "note": 76,
      "start": 9.5946,
      "duration": 0.0156,
      "velocity": 100,
      "chip": "ym2612"
    },
    {
      "channel": 4,
      "note": 52,
      "start": 9.5958,
      "duration": 0.0161,
      "velocity": 100,
      "chip": "ym2612"
    },
    {
      "channel": 1,
      "note": 78,
      "start": 9.5971,
      "duration": 0.016,
      "velocity": 83,
      "chip": "ym2612"
    },
    {
      "channel": 0,
      "note": 63,
      "start": 9.6067,
      "duration": 0.0153,
      "velocity": 1,
      "chip": "ym2612"
    },
    {
      "channel": 5,
      "note": 78,
      "start": 9.6079,
      "duration": 0.0153,
      "velocity": 83,
      "chip": "ym2612"
    },
    {
      "channel": 3,
      "note": 73,
      "start": 9.609,
      "duration": 0.0153,
      "velocity": 100,
      "chip": "ym2612"
    },
    {
      "channel": 2,
      "note": 76,
      "start": 9.6102,
      "duration": 0.0153,
      "velocity": 100,
      "chip": "ym2612"
    },
    {
      "channel": 4,
      "note": 52,
      "start": 9.6119,
      "duration": 0.0147,
      "velocity": 100,
      "chip": "ym2612"
    },
    {
      "channel": 1,
      "note": 78,
      "start": 9.6131,
      "duration": 0.0153,
      "velocity": 83,
      "chip": "ym2612"
    },
    {
      "channel": 5,
      "note": 78,
      "start": 9.6232,
      "duration": 0.0153,
      "velocity": 83,
      "chip": "ym2612"
    },
    {
      "channel": 3,
      "note": 73,
      "start": 9.6243,
      "duration": 0.0153,
      "velocity": 100,
      "chip": "ym2612"
    },
    {
      "channel": 2,
      "note": 76,
      "start": 9.6255,
      "duration": 0.0153,
      "velocity": 100,
      "chip": "ym2612"
    },
    {
      "channel": 4,
      "note": 52,
      "start": 9.6266,
      "duration": 0.0153,
      "velocity": 100,
      "chip": "ym2612"
    },
    {
      "channel": 1,
      "note": 78,
      "start": 9.6284,
      "duration": 0.0148,
      "velocity": 83,
      "chip": "ym2612"
    },
    {
      "channel": 5,
      "note": 78,
      "start": 9.6384,
      "duration": 0.0161,
      "velocity": 83,
      "chip": "ym2612"
    },
    {
      "channel": 3,
      "note": 73,
      "start": 9.6396,
      "duration": 0.0161,
      "velocity": 100,
      "chip": "ym2612"
    },
    {
      "channel": 2,
      "note": 76,
      "start": 9.6407,
      "duration": 0.0161,
      "velocity": 100,
      "chip": "ym2612"
    },
    {
      "channel": 4,
      "note": 52,
      "start": 9.6419,
      "duration": 0.0161,
      "velocity": 100,
      "chip": "ym2612"
    },
    {
      "channel": 1,
      "note": 78,
      "start": 9.6432,
      "duration": 0.0161,
      "velocity": 83,
      "chip": "ym2612"
    },
    {
      "channel": 5,
      "note": 78,
      "start": 9.6545,
      "duration": 0.016,
      "velocity": 83,
      "chip": "ym2612"
    },
    {
      "channel": 3,
      "note": 73,
      "start": 9.6557,
      "duration": 0.0161,
      "velocity": 100,
      "chip": "ym2612"
    },
    {
      "channel": 2,
      "note": 76,
      "start": 9.6568,
      "duration": 0.0161,
      "velocity": 100,
      "chip": "ym2612"
    },
    {
      "channel": 4,
      "note": 52,
      "start": 9.658,
      "duration": 0.0161,
      "velocity": 100,
      "chip": "ym2612"
    },
    {
      "channel": 5,
      "note": 78,
      "start": 9.6706,
      "duration": 0.0197,
      "velocity": 83,
      "chip": "ym2612"
    },
    {
      "channel": 4,
      "note": 52,
      "start": 9.6741,
      "duration": 0.0212,
      "velocity": 100,
      "chip": "ym2612"
    },
    {
      "channel": 0,
      "note": 36,
      "start": 9.689,
      "duration": 0.0143,
      "velocity": 115,
      "chip": "ym2612"
    },
    {
      "channel": 5,
      "note": 78,
      "start": 9.6902,
      "duration": 0.0143,
      "velocity": 83,
      "chip": "ym2612"
    },
    {
      "channel": 3,
      "note": 73,
      "start": 9.6918,
      "duration": 0.014,
      "velocity": 100,
      "chip": "ym2612"
    },
    {
      "channel": 2,
      "note": 76,
      "start": 9.6933,
      "duration": 0.0137,
      "velocity": 100,
      "chip": "ym2612"
    },
    {
      "channel": 4,
      "note": 54,
      "start": 9.6954,
      "duration": 0.0128,
      "velocity": 100,
      "chip": "ym2612"
    },
    {
      "channel": 1,
      "note": 76,
      "start": 9.6969,
      "duration": 0.0126,
      "velocity": 83,
      "chip": "ym2612"
    },
    {
      "channel": 0,
      "note": 36,
      "start": 9.7033,
      "duration": 0.0161,
      "velocity": 115,
      "chip": "ym2612"
    },
    {
      "channel": 5,
      "note": 78,
      "start": 9.7045,
      "duration": 0.0161,
      "velocity": 83,
      "chip": "ym2612"
    },
    {
      "channel": 3,
      "note": 73,
      "start": 9.7058,
      "duration": 0.016,
      "velocity": 100,
      "chip": "ym2612"
    },
    {
      "channel": 2,
      "note": 76,
      "start": 9.707,
      "duration": 0.0159,
      "velocity": 100,
      "chip": "ym2612"
    },
    {
      "channel": 4,
      "note": 54,
      "start": 9.7082,
      "duration": 0.0158,
      "velocity": 100,
      "chip": "ym2612"
    },
    {
      "channel": 1,
      "note": 76,
      "start": 9.7095,
      "duration": 0.0158,
      "velocity": 83,
      "chip": "ym2612"
    },
    {
      "channel": 0,
      "note": 37,
      "start": 9.7194,
      "duration": 0.0161,
      "velocity": 115,
      "chip": "ym2612"
    },
    {
      "channel": 3,
      "note": 73,
      "start": 9.7218,
      "duration": 0.016,
      "velocity": 100,
      "chip": "ym2612"
    },
    {
      "channel": 2,
      "note": 76,
      "start": 9.7229,
      "duration": 0.0161,
      "velocity": 100,
      "chip": "ym2612"
    },
    {
      "channel": 4,
      "note": 54,
      "start": 9.7241,
      "duration": 0.0161,
      "velocity": 100,
      "chip": "ym2612"
    },
    {
      "channel": 1,
      "note": 76,
      "start": 9.7253,
      "duration": 0.016,
      "velocity": 83,
      "chip": "ym2612"
    },
    {
      "channel": 0,
      "note": 37,
      "start": 9.7355,
      "duration": 0.0161,
      "velocity": 115,
      "chip": "ym2612"
    },
    {
      "channel": 3,
      "note": 73,
      "start": 9.7378,
      "duration": 0.0164,
      "velocity": 100,
      "chip": "ym2612"
    },
    {
      "channel": 2,
      "note": 76,
      "start": 9.739,
      "duration": 0.0164,
      "velocity": 100,
      "chip": "ym2612"
    },
    {
      "channel": 4,
      "note": 54,
      "start": 9.7402,
      "duration": 0.0164,
      "velocity": 100,
      "chip": "ym2612"
    },
    {
      "channel": 1,
      "note": 76,
      "start": 9.7413,
      "duration": 0.0164,
      "velocity": 83,
      "chip": "ym2612"
    },
    {
      "channel": 0,
      "note": 38,
      "start": 9.7516,
      "duration": 0.0161,
      "velocity": 115,
      "chip": "ym2612"
    },
    {
      "channel": 5,
      "note": 76,
      "start": 9.7531,
      "duration": 0.0159,
      "velocity": 83,
      "chip": "ym2612"
    },
    {
      "channel": 3,
      "note": 73,
      "start": 9.7542,
      "duration": 0.0159,
      "velocity": 100,
      "chip": "ym2612"
    },
    {
      "channel": 2,
      "note": 76,
      "start": 9.7554,
      "duration": 0.0159,
      "velocity": 100,
      "chip": "ym2612"
    },
    {
      "channel": 4,
      "note": 54,
      "start": 9.7566,
      "duration": 0.0158,
      "velocity": 100,
      "chip": "ym2612"
    },
    {
      "channel": 1,
      "note": 76,
      "start": 9.7577,
      "duration": 0.0159,
      "velocity": 83,
      "chip": "ym2612"
    },
    {
      "channel": 0,
      "note": 38,
      "start": 9.7677,
      "duration": 0.0161,
      "velocity": 115,
      "chip": "ym2612"
    },
    {
      "channel": 5,
      "note": 76,
      "start": 9.769,
      "duration": 0.016,
      "velocity": 83,
      "chip": "ym2612"
    },
    {
      "channel": 3,
      "note": 73,
      "start": 9.7701,
      "duration": 0.016,
      "velocity": 100,
      "chip": "ym2612"
    },
    {
      "channel": 2,
      "note": 76,
      "start": 9.7713,
      "duration": 0.016,
      "velocity": 100,
      "chip": "ym2612"
    },
    {
      "channel": 4,
      "note": 54,
      "start": 9.7724,
      "duration": 0.016,
      "velocity": 100,
      "chip": "ym2612"
    },
    {
      "channel": 1,
      "note": 76,
      "start": 9.7736,
      "duration": 0.016,
      "velocity": 83,
      "chip": "ym2612"
    },
    {
      "channel": 0,
      "note": 39,
      "start": 9.7838,
      "duration": 0.0161,
      "velocity": 115,
      "chip": "ym2612"
    },
    {
      "channel": 5,
      "note": 76,
      "start": 9.785,
      "duration": 0.0161,
      "velocity": 83,
      "chip": "ym2612"
    },
    {
      "channel": 3,
      "note": 73,
      "start": 9.7861,
      "duration": 0.0161,
      "velocity": 100,
      "chip": "ym2612"
    },
    {
      "channel": 2,
      "note": 76,
      "start": 9.7873,
      "duration": 0.0161,
      "velocity": 100,
      "chip": "ym2612"
    },
    {
      "channel": 4,
      "note": 54,
      "start": 9.7884,
      "duration": 0.0162,
      "velocity": 100,
      "chip": "ym2612"
    },
    {
      "channel": 1,
      "note": 76,
      "start": 9.7896,
      "duration": 0.0161,
      "velocity": 83,
      "chip": "ym2612"
    },
    {
      "channel": 0,
      "note": 39,
      "start": 9.7999,
      "duration": 0.0161,
      "velocity": 115,
      "chip": "ym2612"
    },
    {
      "channel": 5,
      "note": 76,
      "start": 9.8011,
      "duration": 0.0161,
      "velocity": 83,
      "chip": "ym2612"
    },
    {
      "channel": 3,
      "note": 73,
      "start": 9.8022,
      "duration": 0.0161,
      "velocity": 100,
      "chip": "ym2612"
    },
    {
      "channel": 2,
      "note": 76,
      "start": 9.8034,
      "duration": 0.0161,
      "velocity": 100,
      "chip": "ym2612"
    },
    {
      "channel": 4,
      "note": 54,
      "start": 9.8046,
      "duration": 0.0161,
      "velocity": 100,
      "chip": "ym2612"
    },
    {
      "channel": 1,
      "note": 76,
      "start": 9.8057,
      "duration": 0.0161,
      "velocity": 83,
      "chip": "ym2612"
    },
    {
      "channel": 0,
      "note": 40,
      "start": 9.816,
      "duration": 0.0161,
      "velocity": 115,
      "chip": "ym2612"
    },
    {
      "channel": 5,
      "note": 76,
      "start": 9.8172,
      "duration": 0.0161,
      "velocity": 83,
      "chip": "ym2612"
    },
    {
      "channel": 3,
      "note": 73,
      "start": 9.8183,
      "duration": 0.0161,
      "velocity": 100,
      "chip": "ym2612"
    },
    {
      "channel": 2,
      "note": 76,
      "start": 9.8195,
      "duration": 0.0161,
      "velocity": 100,
      "chip": "ym2612"
    },
    {
      "channel": 4,
      "note": 54,
      "start": 9.8207,
      "duration": 0.0161,
      "velocity": 100,
      "chip": "ym2612"
    },
    {
      "channel": 1,
      "note": 76,
      "start": 9.8218,
      "duration": 0.0161,
      "velocity": 83,
      "chip": "ym2612"
    },
    {
      "channel": 0,
      "note": 40,
      "start": 9.8321,
      "duration": 0.0161,
      "velocity": 115,
      "chip": "ym2612"
    },
    {
      "channel": 5,
      "note": 76,
      "start": 9.8333,
      "duration": 0.0161,
      "velocity": 83,
      "chip": "ym2612"
    },
    {
      "channel": 3,
      "note": 73,
      "start": 9.8344,
      "duration": 0.0162,
      "velocity": 100,
      "chip": "ym2612"
    },
    {
      "channel": 2,
      "note": 76,
      "start": 9.8356,
      "duration": 0.0161,
      "velocity": 100,
      "chip": "ym2612"
    },
    {
      "channel": 4,
      "note": 54,
      "start": 9.8368,
      "duration": 0.0161,
      "velocity": 100,
      "chip": "ym2612"
    },
    {
      "channel": 1,
      "note": 76,
      "start": 9.8379,
      "duration": 0.0161,
      "velocity": 83,
      "chip": "ym2612"
    },
    {
      "channel": 0,
      "note": 40,
      "start": 9.8482,
      "duration": 0.0162,
      "velocity": 115,
      "chip": "ym2612"
    },
    {
      "channel": 5,
      "note": 76,
      "start": 9.8494,
      "duration": 0.016,
      "velocity": 83,
      "chip": "ym2612"
    },
    {
      "channel": 3,
      "note": 73,
      "start": 9.8506,
      "duration": 0.0161,
      "velocity": 100,
      "chip": "ym2612"
    },
    {
      "channel": 2,
      "note": 76,
      "start": 9.8517,
      "duration": 0.0161,
      "velocity": 100,
      "chip": "ym2612"
    },
    {
      "channel": 4,
      "note": 54,
      "start": 9.8529,
      "duration": 0.0161,
      "velocity": 100,
      "chip": "ym2612"
    },
    {
      "channel": 1,
      "note": 76,
      "start": 9.8541,
      "duration": 0.0161,
      "velocity": 83,
      "chip": "ym2612"
    },
    {
      "channel": 0,
      "note": 41,
      "start": 9.8643,
      "duration": 0.0161,
      "velocity": 115,
      "chip": "ym2612"
    },
    {
      "channel": 5,
      "note": 76,
      "start": 9.8655,
      "duration": 0.0162,
      "velocity": 83,
      "chip": "ym2612"
    },
    {
      "channel": 3,
      "note": 73,
      "start": 9.8667,
      "duration": 0.0161,
      "velocity": 100,
      "chip": "ym2612"
    },
    {
      "channel": 2,
      "note": 76,
      "start": 9.8678,
      "duration": 0.0162,
      "velocity": 100,
      "chip": "ym2612"
    },
    {
      "channel": 4,
      "note": 54,
      "start": 9.869,
      "duration": 0.0161,
      "velocity": 100,
      "chip": "ym2612"
    },
    {
      "channel": 1,
      "note": 76,
      "start": 9.8702,
      "duration": 0.0162,
      "velocity": 83,
      "chip": "ym2612"
    },
    {
      "channel": 0,
      "note": 41,
      "start": 9.8805,
      "duration": 0.0161,
      "velocity": 115,
      "chip": "ym2612"
    },
    {
      "channel": 5,
      "note": 76,
      "start": 9.8816,
      "duration": 0.0162,
      "velocity": 83,
      "chip": "ym2612"
    },
    {
      "channel": 3,
      "note": 73,
      "start": 9.8828,
      "duration": 0.0161,
      "velocity": 100,
      "chip": "ym2612"
    },
    {
      "channel": 2,
      "note": 76,
      "start": 9.884,
      "duration": 0.0161,
      "velocity": 100,
      "chip": "ym2612"
    },
    {
      "channel": 4,
      "note": 54,
      "start": 9.8851,
      "duration": 0.0162,
      "velocity": 100,
      "chip": "ym2612"
    },
    {
      "channel": 1,
      "note": 76,
      "start": 9.8863,
      "duration": 0.0161,
      "velocity": 83,
      "chip": "ym2612"
    },
    {
      "channel": 0,
      "note": 42,
      "start": 9.8966,
      "duration": 0.0164,
      "velocity": 115,
      "chip": "ym2612"
    },
    {
      "channel": 5,
      "note": 76,
      "start": 9.8978,
      "duration": 0.0164,
      "velocity": 83,
      "chip": "ym2612"
    },
    {
      "channel": 4,
      "note": 54,
      "start": 9.9013,
      "duration": 0.0173,
      "velocity": 100,
      "chip": "ym2612"
    },
    {
      "channel": 1,
      "note": 76,
      "start": 9.9024,
      "duration": 0.0174,
      "velocity": 83,
      "chip": "ym2612"
    },
    {
      "channel": 0,
      "note": 42,
      "start": 9.913,
      "duration": 0.0163,
      "velocity": 115,
      "chip": "ym2612"
    },
    {
      "channel": 5,
      "note": 76,
      "start": 9.9142,
      "duration": 0.0163,
      "velocity": 83,
      "chip": "ym2612"
    },
    {
      "channel": 3,
      "note": 73,
      "start": 9.9157,
      "duration": 0.0161,
      "velocity": 100,
      "chip": "ym2612"
    },
    {
      "channel": 2,
      "note": 76,
      "start": 9.9171,
      "duration": 0.0159,
      "velocity": 100,
      "chip": "ym2612"
    },
    {
      "channel": 4,
      "note": 57,
      "start": 9.9187,
      "duration": 0.0155,
      "velocity": 100,
      "chip": "ym2612"
    },
    {
      "channel": 1,
      "note": 76,
      "start": 9.9199,
      "duration": 0.0155,
      "velocity": 83,
      "chip": "ym2612"
    },
    {
      "channel": 0,
      "note": 43,
      "start": 9.9293,
      "duration": 0.0162,
      "velocity": 115,
      "chip": "ym2612"
    },
    {
      "channel": 5,
      "note": 76,
      "start": 9.9305,
      "duration": 0.0162,
      "velocity": 83,
      "chip": "ym2612"
    },
    {
      "channel": 3,
      "note": 73,
      "start": 9.9318,
      "duration": 0.016,
      "velocity": 100,
      "chip": "ym2612"
    },
    {
      "channel": 2,
      "note": 76,
      "start": 9.933,
      "duration": 0.016,
      "velocity": 100,
      "chip": "ym2612"
    },
    {
      "channel": 4,
      "note": 57,
      "start": 9.9342,
      "duration": 0.0159,
      "velocity": 100,
      "chip": "ym2612"
    },
    {
      "channel": 1,
      "note": 76,
      "start": 9.9353,
      "duration": 0.016,
      "velocity": 83,
      "chip": "ym2612"
    },
    {
      "channel": 0,
      "note": 43,
      "start": 9.9454,
      "duration": 0.016,
      "velocity": 115,
      "chip": "ym2612"
    },
    {
      "channel": 5,
      "note": 76,
      "start": 9.9466,
      "duration": 0.016,
      "velocity": 83,
      "chip": "ym2612"
    },
    {
      "channel": 3,
      "note": 73,
      "start": 9.9478,
      "duration": 0.0161,
      "velocity": 100,
      "chip": "ym2612"
    },
    {
      "channel": 2,
      "note": 76,
      "start": 9.9489,
      "duration": 0.0161,
      "velocity": 100,
      "chip": "ym2612"
    },
    {
      "channel": 4,
      "note": 57,
      "start": 9.9501,
      "duration": 0.0161,
      "velocity": 100,
      "chip": "ym2612"
    },
    {
      "channel": 1,
      "note": 76,
      "start": 9.9513,
      "duration": 0.016,
      "velocity": 83,
      "chip": "ym2612"
    },
    {
      "channel": 0,
      "note": 44,
      "start": 9.9615,
      "duration": 0.0158,
      "velocity": 115,
      "chip": "ym2612"
    },
    {
      "channel": 5,
      "note": 76,
      "start": 9.9627,
      "duration": 0.0162,
      "velocity": 83,
      "chip": "ym2612"
    },
    {
      "channel": 3,
      "note": 73,
      "start": 9.9639,
      "duration": 0.0161,
      "velocity": 100,
      "chip": "ym2612"
    },
    {
      "channel": 2,
      "note": 76,
      "start": 9.965,
      "duration": 0.0161,
      "velocity": 100,
      "chip": "ym2612"
    },
    {
      "channel": 4,
      "note": 57,
      "start": 9.9662,
      "duration": 0.0161,
      "velocity": 100,
      "chip": "ym2612"
    },
    {
      "channel": 1,
      "note": 76,
      "start": 9.9673,
      "duration": 0.0161,
      "velocity": 83,
      "chip": "ym2612"
    },
    {
      "channel": 0,
      "note": 44,
      "start": 9.9772,
      "duration": 0.0159,
      "velocity": 115,
      "chip": "ym2612"
    },
    {
      "channel": 5,
      "note": 76,
      "start": 9.9788,
      "duration": 0.016,
      "velocity": 83,
      "chip": "ym2612"
    },
    {
      "channel": 3,
      "note": 73,
      "start": 9.98,
      "duration": 0.0161,
      "velocity": 100,
      "chip": "ym2612"
    },
    {
      "channel": 2,
      "note": 76,
      "start": 9.9811,
      "duration": 0.0161,
      "velocity": 100,
      "chip": "ym2612"
    },
    {
      "channel": 4,
      "note": 57,
      "start": 9.9823,
      "duration": 0.0161,
      "velocity": 100,
      "chip": "ym2612"
    },
    {
      "channel": 1,
      "note": 76,
      "start": 9.9835,
      "duration": 0.0161,
      "velocity": 83,
      "chip": "ym2612"
    },
    {
      "channel": 0,
      "note": 44,
      "start": 9.9931,
      "duration": 0.0161,
      "velocity": 115,
      "chip": "ym2612"
    },
    {
      "channel": 5,
      "note": 76,
      "start": 9.9949,
      "duration": 0.0158,
      "velocity": 83,
      "chip": "ym2612"
    },
    {
      "channel": 3,
      "note": 73,
      "start": 9.9961,
      "duration": 0.0161,
      "velocity": 100,
      "chip": "ym2612"
    },
    {
      "channel": 2,
      "note": 76,
      "start": 9.9972,
      "duration": 0.0161,
      "velocity": 100,
      "chip": "ym2612"
    },
    {
      "channel": 4,
      "note": 57,
      "start": 9.9984,
      "duration": 0.0161,
      "velocity": 100,
      "chip": "ym2612"
    },
    {
      "channel": 1,
      "note": 76,
      "start": 9.9996,
      "duration": 0.0161,
      "velocity": 83,
      "chip": "ym2612"
    },
    {
      "channel": 0,
      "note": 45,
      "start": 10.0092,
      "duration": 0.0182,
      "velocity": 127,
      "chip": "ym2612"
    },
    {
      "channel": 5,
      "note": 76,
      "start": 10.0106,
      "duration": 0.0183,
      "velocity": 83,
      "chip": "ym2612"
    },
    {
      "channel": 3,
      "note": 73,
      "start": 10.0122,
      "duration": 0.0179,
      "velocity": 100,
      "chip": "ym2612"
    },
    {
      "channel": 2,
      "note": 76,
      "start": 10.0133,
      "duration": 0.018,
      "velocity": 100,
      "chip": "ym2612"
    },
    {
      "channel": 4,
      "note": 57,
      "start": 10.0145,
      "duration": 0.018,
      "velocity": 100,
      "chip": "ym2612"
    },
    {
      "channel": 1,
      "note": 76,
      "start": 10.0157,
      "duration": 0.0179,
      "velocity": 83,
      "chip": "ym2612"
    },
    {
      "channel": 0,
      "note": 88,
      "start": 10.0274,
      "duration": 0.0141,
      "velocity": 127,
      "chip": "ym2612"
    },
    {
      "channel": 5,
      "note": 76,
      "start": 10.029,
      "duration": 0.0137,
      "velocity": 83,
      "chip": "ym2612"
    },
    {
      "channel": 3,
      "note": 73,
      "start": 10.0301,
      "duration": 0.0139,
      "velocity": 100,
      "chip": "ym2612"
    },
    {
      "channel": 2,
      "note": 76,
      "start": 10.0313,
      "duration": 0.0142,
      "velocity": 100,
      "chip": "ym2612"
    },
    {
      "channel": 4,
      "note": 57,
      "start": 10.0324,
      "duration": 0.0143,
      "velocity": 100,
      "chip": "ym2612"
    },
    {
      "channel": 1,
      "note": 76,
      "start": 10.0336,
      "duration": 0.0143,
      "velocity": 83,
      "chip": "ym2612"
    },
    {
      "channel": 0,
      "note": 86,
      "start": 10.0415,
      "duration": 0.016,
      "velocity": 127,
      "chip": "ym2612"
    },
    {
      "channel": 5,
      "note": 76,
      "start": 10.0427,
      "duration": 0.016,
      "velocity": 83,
      "chip": "ym2612"
    },
    {
      "channel": 3,
      "note": 73,
      "start": 10.044,
      "duration": 0.0159,
      "velocity": 100,
      "chip": "ym2612"
    },
    {
      "channel": 2,
      "note": 76,
      "start": 10.0456,
      "duration": 0.016,
      "velocity": 100,
      "chip": "ym2612"
    },
    {
      "channel": 4,
      "note": 57,
      "start": 10.0467,
      "duration": 0.016,
      "velocity": 100,
      "chip": "ym2612"
    },
    {
      "channel": 1,
      "note": 76,
      "start": 10.0479,
      "duration": 0.016,
      "velocity": 83,
      "chip": "ym2612"
    },
    {
      "channel": 0,
      "note": 85,
      "start": 10.0575,
      "duration": 0.0161,
      "velocity": 127,
      "chip": "ym2612"
    },
    {
      "channel": 5,
      "note": 76,
      "start": 10.0587,
      "duration": 0.0161,
      "velocity": 83,
      "chip": "ym2612"
    },
    {
      "channel": 3,
      "note": 73,
      "start": 10.0599,
      "duration": 0.0161,
      "velocity": 100,
      "chip": "ym2612"
    },
    {
      "channel": 2,
      "note": 76,
      "start": 10.0615,
      "duration": 0.0158,
      "velocity": 100,
      "chip": "ym2612"
    },
    {
      "channel": 4,
      "note": 57,
      "start": 10.0627,
      "duration": 0.0161,
      "velocity": 100,
      "chip": "ym2612"
    },
    {
      "channel": 1,
      "note": 76,
      "start": 10.0639,
      "duration": 0.0161,
      "velocity": 83,
      "chip": "ym2612"
    },
    {
      "channel": 0,
      "note": 83,
      "start": 10.0736,
      "duration": 0.0161,
      "velocity": 127,
      "chip": "ym2612"
    },
    {
      "channel": 5,
      "note": 76,
      "start": 10.0748,
      "duration": 0.0162,
      "velocity": 83,
      "chip": "ym2612"
    },
    {
      "channel": 3,
      "note": 73,
      "start": 10.076,
      "duration": 0.0161,
      "velocity": 100,
      "chip": "ym2612"
    },
    {
      "channel": 2,
      "note": 76,
      "start": 10.0773,
      "duration": 0.0159,
      "velocity": 100,
      "chip": "ym2612"
    },
    {
      "channel": 4,
      "note": 57,
      "start": 10.0788,
      "duration": 0.016,
      "velocity": 100,
      "chip": "ym2612"
    },
    {
      "channel": 1,
      "note": 76,
      "start": 10.08,
      "duration": 0.0161,
      "velocity": 83,
      "chip": "ym2612"
    },
    {
      "channel": 0,
      "note": 81,
      "start": 10.0897,
      "duration": 0.0161,
      "velocity": 127,
      "chip": "ym2612"
    },
    {
      "channel": 5,
      "note": 76,
      "start": 10.0909,
      "duration": 0.0161,
      "velocity": 83,
      "chip": "ym2612"
    },
    {
      "channel": 3,
      "note": 73,
      "start": 10.0921,
      "duration": 0.0161,
      "velocity": 100,
      "chip": "ym2612"
    },
    {
      "channel": 2,
      "note": 76,
      "start": 10.0932,
      "duration": 0.0161,
      "velocity": 100,
      "chip": "ym2612"
    },
    {
      "channel": 4,
      "note": 57,
      "start": 10.0949,
      "duration": 0.0159,
      "velocity": 100,
      "chip": "ym2612"
    },
    {
      "channel": 1,
      "note": 76,
      "start": 10.0961,
      "duration": 0.0161,
      "velocity": 83,
      "chip": "ym2612"
    },
    {
      "channel": 0,
      "note": 80,
      "start": 10.1058,
      "duration": 0.0161,
      "velocity": 127,
      "chip": "ym2612"
    },
    {
      "channel": 5,
      "note": 76,
      "start": 10.107,
      "duration": 0.0161,
      "velocity": 83,
      "chip": "ym2612"
    },
    {
      "channel": 3,
      "note": 73,
      "start": 10.1082,
      "duration": 0.0161,
      "velocity": 100,
      "chip": "ym2612"
    },
    {
      "channel": 2,
      "note": 76,
      "start": 10.1094,
      "duration": 0.0161,
      "velocity": 100,
      "chip": "ym2612"
    },
    {
      "channel": 4,
      "note": 57,
      "start": 10.1107,
      "duration": 0.0159,
      "velocity": 100,
      "chip": "ym2612"
    },
    {
      "channel": 0,
      "note": 78,
      "start": 10.1219,
      "duration": 0.0179,
      "velocity": 127,
      "chip": "ym2612"
    },
    {
      "channel": 5,
      "note": 76,
      "start": 10.1231,
      "duration": 0.018,
      "velocity": 83,
      "chip": "ym2612"
    },
    {
      "channel": 4,
      "note": 57,
      "start": 10.1266,
      "duration": 0.019,
      "velocity": 100,
      "chip": "ym2612"
    },
    {
      "channel": 0,
      "note": 88,
      "start": 10.1399,
      "duration": 0.0142,
      "velocity": 127,
      "chip": "ym2612"
    },
    {
      "channel": 5,
      "note": 76,
      "start": 10.1411,
      "duration": 0.0142,
      "velocity": 83,
      "chip": "ym2612"
    },
    {
      "channel": 4,
      "note": 57,
      "start": 10.1456,
      "duration": 0.0134,
      "velocity": 100,
      "chip": "ym2612"
    },
    {
      "channel": 1,
      "note": 69,
      "start": 10.1471,
      "duration": 0.0134,
      "velocity": 83,
      "chip": "ym2612"
    },
    {
      "channel": 0,
      "note": 86,
      "start": 10.1541,
      "duration": 0.016,
      "velocity": 127,
      "chip": "ym2612"
    },
    {
      "channel": 5,
      "note": 76,
      "start": 10.1554,
      "duration": 0.016,
      "velocity": 83,
      "chip": "ym2612"
    },
    {
      "channel": 4,
      "note": 57,
      "start": 10.159,
      "duration": 0.016,
      "velocity": 100,
      "chip": "ym2612"
    },
    {
      "channel": 1,
      "note": 69,
      "start": 10.1605,
      "duration": 0.0158,
      "velocity": 83,
      "chip": "ym2612"
    },
    {
      "channel": 0,
      "note": 85,
      "start": 10.1702,
      "duration": 0.0162,
      "velocity": 127,
      "chip": "ym2612"
    },
    {
      "channel": 4,
      "note": 57,
      "start": 10.175,
      "duration": 0.0162,
      "velocity": 100,
      "chip": "ym2612"
    },
    {
      "channel": 1,
      "note": 69,
      "start": 10.1762,
      "duration": 0.0161,
      "velocity": 83,
      "chip": "ym2612"
    },
    {
      "channel": 0,
      "note": 83,
      "start": 10.1863,
      "duration": 0.0161,
      "velocity": 127,
      "chip": "ym2612"
    },
    {
      "channel": 4,
      "note": 57,
      "start": 10.1912,
      "duration": 0.0165,
      "velocity": 100,
      "chip": "ym2612"
    },
    {
      "channel": 1,
      "note": 69,
      "start": 10.1923,
      "duration": 0.0166,
      "velocity": 83,
      "chip": "ym2612"
    },
    {
      "channel": 0,
      "note": 81,
      "start": 10.2024,
      "duration": 0.0161,
      "velocity": 127,
      "chip": "ym2612"
    },
    {
      "channel": 5,
      "note": 69,
      "start": 10.204,
      "duration": 0.0158,
      "velocity": 83,
      "chip": "ym2612"
    },
    {
      "channel": 4,
      "note": 57,
      "start": 10.2076,
      "duration": 0.0159,
      "velocity": 100,
      "chip": "ym2612"
    },
    {
      "channel": 1,
      "note": 69,
      "start": 10.2089,
      "duration": 0.0158,
      "velocity": 83,
      "chip": "ym2612"
    },
    {
      "channel": 0,
      "note": 80,
      "start": 10.2185,
      "duration": 0.0161,
      "velocity": 127,
      "chip": "ym2612"
    },
    {
      "channel": 5,
      "note": 69,
      "start": 10.2198,
      "duration": 0.016,
      "velocity": 83,
      "chip": "ym2612"
    },
    {
      "channel": 4,
      "note": 57,
      "start": 10.2235,
      "duration": 0.016,
      "velocity": 100,
      "chip": "ym2612"
    },
    {
      "channel": 0,
      "note": 78,
      "start": 10.2346,
      "duration": 0.0179,
      "velocity": 127,
      "chip": "ym2612"
    },
    {
      "channel": 5,
      "note": 69,
      "start": 10.2358,
      "duration": 0.018,
      "velocity": 83,
      "chip": "ym2612"
    },
    {
      "channel": 4,
      "note": 57,
      "start": 10.2395,
      "duration": 0.0181,
      "velocity": 100,
      "chip": "ym2612"
    },
    {
      "channel": 0,
      "note": 88,
      "start": 10.2526,
      "duration": 0.0143,
      "velocity": 127,
      "chip": "ym2612"
    },
    {
      "channel": 5,
      "note": 69,
      "start": 10.2538,
      "duration": 0.0143,
      "velocity": 83,
      "chip": "ym2612"
    },
    {
      "channel": 4,
      "note": 54,
      "start": 10.2577,
      "duration": 0.0141,
      "velocity": 100,
      "chip": "ym2612"
    },
    {
      "channel": 1,
      "note": 71,
      "start": 10.2592,
      "duration": 0.0139,
      "velocity": 83,
      "chip": "ym2612"
    },
    {
      "channel": 0,
      "note": 86,
      "start": 10.2669,
      "duration": 0.016,
      "velocity": 127,
      "chip": "ym2612"
    },
    {
      "channel": 5,
      "note": 69,
      "start": 10.2681,
      "duration": 0.016,
      "velocity": 83,
      "chip": "ym2612"
    },
    {
      "channel": 4,
      "note": 54,
      "start": 10.2718,
      "duration": 0.016,
      "velocity": 100,
      "chip": "ym2612"
    },
    {
      "channel": 1,
      "note": 71,
      "start": 10.273,
      "duration": 0.0159,
      "velocity": 83,
      "chip": "ym2612"
    },
    {
      "channel": 0,
      "note": 85,
      "start": 10.2829,
      "duration": 0.0161,
      "velocity": 127,
      "chip": "ym2612"
    },
    {
      "channel": 4,
      "note": 54,
      "start": 10.2877,
      "duration": 0.0161,
      "velocity": 100,
      "chip": "ym2612"
    },
    {
      "channel": 1,
      "note": 71,
      "start": 10.289,
      "duration": 0.0161,
      "velocity": 83,
      "chip": "ym2612"
    },
    {
      "channel": 0,
      "note": 83,
      "start": 10.299,
      "duration": 0.0161,
      "velocity": 127,
      "chip": "ym2612"
    },
    {
      "channel": 4,
      "note": 54,
      "start": 10.3038,
      "duration": 0.0164,
      "velocity": 100,
      "chip": "ym2612"
    },
    {
      "channel": 1,
      "note": 71,
      "start": 10.305,
      "duration": 0.0164,
      "velocity": 83,
      "chip": "ym2612"
    },
    {
      "channel": 0,
      "note": 81,
      "start": 10.3151,
      "duration": 0.0161,
      "velocity": 127,
      "chip": "ym2612"
    },
    {
      "channel": 5,
      "note": 71,
      "start": 10.3166,
      "duration": 0.0158,
      "velocity": 83,
      "chip": "ym2612"
    },
    {
      "channel": 4,
      "note": 54,
      "start": 10.3202,
      "duration": 0.0158,
      "velocity": 100,
      "chip": "ym2612"
    },
    {
      "channel": 1,
      "note": 71,
      "start": 10.3215,
      "duration": 0.0159,
      "velocity": 83,
      "chip": "ym2612"
    },
    {
      "channel": 0,
      "note": 80,
      "start": 10.3312,
      "duration": 0.0162,
      "velocity": 127,
      "chip": "ym2612"
    },
    {
      "channel": 5,
      "note": 71,
      "start": 10.3324,
      "duration": 0.016,
      "velocity": 83,
      "chip": "ym2612"
    },
    {
      "channel": 4,
      "note": 54,
      "start": 10.3361,
      "duration": 0.0161,
      "velocity": 100,
      "chip": "ym2612"
    },
    {
      "channel": 0,
      "note": 78,
      "start": 10.3473,
      "duration": 0.018,
      "velocity": 127,
      "chip": "ym2612"
    },
    {
      "channel": 5,
      "note": 71,
      "start": 10.3485,
      "duration": 0.0181,
      "velocity": 83,
      "chip": "ym2612"
    },
    {
      "channel": 4,
      "note": 54,
      "start": 10.3522,
      "duration": 0.0181,
      "velocity": 100,
      "chip": "ym2612"
    },
    {
      "channel": 0,
      "note": 84,
      "start": 10.3654,
      "duration": 0.0145,
      "velocity": 127,
      "chip": "ym2612"
    },
    {
      "channel": 5,
      "note": 71,
      "start": 10.3666,
      "duration": 0.0145,
      "velocity": 83,
      "chip": "ym2612"
    },
    {
      "channel": 4,
      "note": 54,
      "start": 10.3702,
      "duration": 0.0145,
      "velocity": 100,
      "chip": "ym2612"
    },
    {
      "channel": 1,
      "note": 74,
      "start": 10.3717,
      "duration": 0.0143,
      "velocity": 83,
      "chip": "ym2612"
    },
    {
      "channel": 0,
      "note": 82,
      "start": 10.3799,
      "duration": 0.0161,
      "velocity": 127,
      "chip": "ym2612"
    },
    {
      "channel": 5,
      "note": 71,
      "start": 10.3811,
      "duration": 0.0161,
      "velocity": 83,
      "chip": "ym2612"
    },
    {
      "channel": 4,
      "note": 54,
      "start": 10.3847,
      "duration": 0.0162,
      "velocity": 100,
      "chip": "ym2612"
    },
    {
      "channel": 1,
      "note": 74,
      "start": 10.386,
      "duration": 0.016,
      "velocity": 83,
      "chip": "ym2612"
    },
    {
      "channel": 0,
      "note": 81,
      "start": 10.396,
      "duration": 0.0163,
      "velocity": 127,
      "chip": "ym2612"
    },
    {
      "channel": 4,
      "note": 54,
      "start": 10.4009,
      "duration": 0.0163,
      "velocity": 100,
      "chip": "ym2612"
    },
    {
      "channel": 1,
      "note": 74,
      "start": 10.402,
      "duration": 0.0163,
      "velocity": 83,
      "chip": "ym2612"
    },
    {
      "channel": 0,
      "note": 79,
      "start": 10.4123,
      "duration": 0.0161,
      "velocity": 127,
      "chip": "ym2612"
    },
    {
      "channel": 4,
      "note": 54,
      "start": 10.4172,
      "duration": 0.0163,
      "velocity": 100,
      "chip": "ym2612"
    },
    {
      "channel": 1,
      "note": 74,
      "start": 10.4183,
      "duration": 0.0164,
      "velocity": 83,
      "chip": "ym2612"
    },
    {
      "channel": 0,
      "note": 77,
      "start": 10.4284,
      "duration": 0.0161,
      "velocity": 127,
      "chip": "ym2612"
    },
    {
      "channel": 5,
      "note": 74,
      "start": 10.4299,
      "duration": 0.0159,
      "velocity": 83,
      "chip": "ym2612"
    },
    {
      "channel": 4,
      "note": 54,
      "start": 10.4335,
      "duration": 0.0159,
      "velocity": 100,
      "chip": "ym2612"
    },
    {
      "channel": 1,
      "note": 74,
      "start": 10.4347,
      "duration": 0.0159,
      "velocity": 83,
      "chip": "ym2612"
    },
    {
      "channel": 0,
      "note": 76,
      "start": 10.4445,
      "duration": 0.0155,
      "velocity": 127,
      "chip": "ym2612"
    },
    {
      "channel": 5,
      "note": 74,
      "start": 10.4458,
      "duration": 0.0161,
      "velocity": 83,
      "chip": "ym2612"
    },
    {
      "channel": 4,
      "note": 54,
      "start": 10.4494,
      "duration": 0.016,
      "velocity": 100,
      "chip": "ym2612"
    },
    {
      "channel": 0,
      "note": 74,
      "start": 10.46,
      "duration": 0.0186,
      "velocity": 127,
      "chip": "ym2612"
    },
    {
      "channel": 5,
      "note": 74,
      "start": 10.4619,
      "duration": 0.018,
      "velocity": 83,
      "chip": "ym2612"
    },
    {
      "channel": 4,
      "note": 54,
      "start": 10.4655,
      "duration": 0.018,
      "velocity": 100,
      "chip": "ym2612"
    },
    {
      "channel": 0,
      "note": 84,
      "start": 10.4786,
      "duration": 0.0137,
      "velocity": 127,
      "chip": "ym2612"
    },
    {
      "channel": 5,
      "note": 74,
      "start": 10.4798,
      "duration": 0.0139,
      "velocity": 83,
      "chip": "ym2612"
    },
    {
      "channel": 4,
      "note": 54,
      "start": 10.4835,
      "duration": 0.0143,
      "velocity": 100,
      "chip": "ym2612"
    },
    {
      "channel": 1,
      "note": 71,
      "start": 10.4849,
      "duration": 0.0141,
      "velocity": 83,
      "chip": "ym2612"
    },
    {
      "channel": 0,
      "note": 82,
      "start": 10.4923,
      "duration": 0.016,
      "velocity": 127,
      "chip": "ym2612"
    },
    {
      "channel": 5,
      "note": 74,
      "start": 10.4937,
      "duration": 0.0159,
      "velocity": 83,
      "chip": "ym2612"
    },
    {
      "channel": 4,
      "note": 54,
      "start": 10.4977,
      "duration": 0.016,
      "velocity": 100,
      "chip": "ym2612"
    },
    {
      "channel": 1,
      "note": 71,
      "start": 10.499,
      "duration": 0.016,
      "velocity": 83,
      "chip": "ym2612"
    },
    {
      "channel": 0,
      "note": 81,
      "start": 10.5083,
      "duration": 0.0161,
      "velocity": 127,
      "chip": "ym2612"
    },
    {
      "channel": 4,
      "note": 54,
      "start": 10.5138,
      "duration": 0.0161,
      "velocity": 100,
      "chip": "ym2612"
    },
    {
      "channel": 1,
      "note": 71,
      "start": 10.515,
      "duration": 0.0161,
      "velocity": 83,
      "chip": "ym2612"
    },
    {
      "channel": 0,
      "note": 79,
      "start": 10.5244,
      "duration": 0.0161,
      "velocity": 127,
      "chip": "ym2612"
    },
    {
      "channel": 4,
      "note": 54,
      "start": 10.5298,
      "duration": 0.0165,
      "velocity": 100,
      "chip": "ym2612"
    },
    {
      "channel": 1,
      "note": 71,
      "start": 10.5311,
      "duration": 0.0165,
      "velocity": 83,
      "chip": "ym2612"
    },
    {
      "channel": 0,
      "note": 77,
      "start": 10.5405,
      "duration": 0.0161,
      "velocity": 127,
      "chip": "ym2612"
    },
    {
      "channel": 5,
      "note": 71,
      "start": 10.5421,
      "duration": 0.0159,
      "velocity": 83,
      "chip": "ym2612"
    },
    {
      "channel": 4,
      "note": 54,
      "start": 10.5463,
      "duration": 0.0159,
      "velocity": 100,
      "chip": "ym2612"
    },
    {
      "channel": 1,
      "note": 71,
      "start": 10.5475,
      "duration": 0.0159,
      "velocity": 83,
      "chip": "ym2612"
    },
    {
      "channel": 0,
      "note": 76,
      "start": 10.5566,
      "duration": 0.0161,
      "velocity": 127,
      "chip": "ym2612"
    },
    {
      "channel": 5,
      "note": 71,
      "start": 10.5579,
      "duration": 0.016,
      "velocity": 83,
      "chip": "ym2612"
    },
    {
      "channel": 4,
      "note": 54,
      "start": 10.5622,
      "duration": 0.016,
      "velocity": 100,
      "chip": "ym2612"
    },
    {
      "channel": 0,
      "note": 74,
      "start": 10.5727,
      "duration": 0.018,
      "velocity": 127,
      "chip": "ym2612"
    },
    {
      "channel": 5,
      "note": 71,
      "start": 10.5739,
      "duration": 0.018,
      "velocity": 83,
      "chip": "ym2612"
    },
    {
      "channel": 4,
      "note": 54,
      "start": 10.5782,
      "duration": 0.0183,
      "velocity": 100,
      "chip": "ym2612"
    },
    {
      "channel": 0,
      "note": 78,
      "start": 10.5907,
      "duration": 0.0143,
      "velocity": 127,
      "chip": "ym2612"
    },
    {
      "channel": 5,
      "note": 71,
      "start": 10.5919,
      "duration": 0.0143,
      "velocity": 83,
      "chip": "ym2612"
    },
    {
      "channel": 4,
      "note": 52,
      "start": 10.5965,
      "duration": 0.0134,
      "velocity": 100,
      "chip": "ym2612"
    },
    {
      "channel": 1,
      "note": 74,
      "start": 10.598,
      "duration": 0.0138,
      "velocity": 83,
      "chip": "ym2612"
    },
    {
      "channel": 0,
      "note": 76,
      "start": 10.605,
      "duration": 0.016,
      "velocity": 127,
      "chip": "ym2612"
    },
    {
      "channel": 5,
      "note": 71,
      "start": 10.6062,
      "duration": 0.016,
      "velocity": 83,
      "chip": "ym2612"
    },
    {
      "channel": 4,
      "note": 52,
      "start": 10.6099,
      "duration": 0.016,
      "velocity": 100,
      "chip": "ym2612"
    },
    {
      "channel": 1,
      "note": 74,
      "start": 10.6118,
      "duration": 0.0155,
      "velocity": 83,
      "chip": "ym2612"
    },
    {
      "channel": 0,
      "note": 75,
      "start": 10.621,
      "duration": 0.0162,
      "velocity": 127,
      "chip": "ym2612"
    },
    {
      "channel": 4,
      "note": 52,
      "start": 10.6259,
      "duration": 0.0161,
      "velocity": 100,
      "chip": "ym2612"
    },
    {
      "channel": 1,
      "note": 74,
      "start": 10.6273,
      "duration": 0.0159,
      "velocity": 83,
      "chip": "ym2612"
    },
    {
      "channel": 0,
      "note": 73,
      "start": 10.6372,
      "duration": 0.0161,
      "velocity": 127,
      "chip": "ym2612"
    },
    {
      "channel": 4,
      "note": 52,
      "start": 10.642,
      "duration": 0.0163,
      "velocity": 100,
      "chip": "ym2612"
    },
    {
      "channel": 1,
      "note": 74,
      "start": 10.6432,
      "duration": 0.0164,
      "velocity": 83,
      "chip": "ym2612"
    },
    {
      "channel": 0,
      "note": 71,
      "start": 10.6533,
      "duration": 0.0161,
      "velocity": 127,
      "chip": "ym2612"
    },
    {
      "channel": 5,
      "note": 74,
      "start": 10.6547,
      "duration": 0.0159,
      "velocity": 83,
      "chip": "ym2612"
    },
    {
      "channel": 4,
      "note": 52,
      "start": 10.6583,
      "duration": 0.0159,
      "velocity": 100,
      "chip": "ym2612"
    },
    {
      "channel": 1,
      "note": 74,
      "start": 10.6596,
      "duration": 0.0159,
      "velocity": 83,
      "chip": "ym2612"
    },
    {
      "channel": 0,
      "note": 70,
      "start": 10.6694,
      "duration": 0.0161,
      "velocity": 127,
      "chip": "ym2612"
    },
    {
      "channel": 5,
      "note": 74,
      "start": 10.6706,
      "duration": 0.016,
      "velocity": 83,
      "chip": "ym2612"
    },
    {
      "channel": 4,
      "note": 52,
      "start": 10.6743,
      "duration": 0.016,
      "velocity": 100,
      "chip": "ym2612"
    },
    {
      "channel": 0,
      "note": 68,
      "start": 10.6854,
      "duration": 0.0179,
      "velocity": 127,
      "chip": "ym2612"
    },
    {
      "channel": 5,
      "note": 74,
      "start": 10.6867,
      "duration": 0.018,
      "velocity": 83,
      "chip": "ym2612"
    },
    {
      "channel": 4,
      "note": 52,
      "start": 10.6903,
      "duration": 0.018,
      "velocity": 100,
      "chip": "ym2612"
    },
    {
      "channel": 0,
      "note": 78,
      "start": 10.7034,
      "duration": 0.0143,
      "velocity": 127,
      "chip": "ym2612"
    },
    {
      "channel": 5,
      "note": 74,
      "start": 10.7047,
      "duration": 0.0142,
      "velocity": 83,
      "chip": "ym2612"
    },
    {
      "channel": 4,
      "note": 52,
      "start": 10.7083,
      "duration": 0.0143,
      "velocity": 100,
      "chip": "ym2612"
    },
    {
      "channel": 1,
      "note": 76,
      "start": 10.7098,
      "duration": 0.0141,
      "velocity": 83,
      "chip": "ym2612"
    },
    {
      "channel": 0,
      "note": 76,
      "start": 10.7177,
      "duration": 0.016,
      "velocity": 127,
      "chip": "ym2612"
    },
    {
      "channel": 5,
      "note": 74,
      "start": 10.7189,
      "duration": 0.016,
      "velocity": 83,
      "chip": "ym2612"
    },
    {
      "channel": 4,
      "note": 52,
      "start": 10.7225,
      "duration": 0.016,
      "velocity": 100,
      "chip": "ym2612"
    },
    {
      "channel": 1,
      "note": 76,
      "start": 10.7238,
      "duration": 0.016,
      "velocity": 83,
      "chip": "ym2612"
    },
    {
      "channel": 0,
      "note": 75,
      "start": 10.7337,
      "duration": 0.0161,
      "velocity": 127,
      "chip": "ym2612"
    },
    {
      "channel": 4,
      "note": 52,
      "start": 10.7386,
      "duration": 0.0161,
      "velocity": 100,
      "chip": "ym2612"
    },
    {
      "channel": 1,
      "note": 76,
      "start": 10.7398,
      "duration": 0.0161,
      "velocity": 83,
      "chip": "ym2612"
    },
    {
      "channel": 0,
      "note": 73,
      "start": 10.7498,
      "duration": 0.0161,
      "velocity": 127,
      "chip": "ym2612"
    },
    {
      "channel": 4,
      "note": 52,
      "start": 10.7547,
      "duration": 0.0164,
      "velocity": 100,
      "chip": "ym2612"
    },
    {
      "channel": 1,
      "note": 76,
      "start": 10.7559,
      "duration": 0.0164,
      "velocity": 83,
      "chip": "ym2612"
    },
    {
      "channel": 0,
      "note": 71,
      "start": 10.7659,
      "duration": 0.0162,
      "velocity": 127,
      "chip": "ym2612"
    },
    {
      "channel": 5,
      "note": 76,
      "start": 10.7674,
      "duration": 0.0159,
      "velocity": 83,
      "chip": "ym2612"
    },
    {
      "channel": 4,
      "note": 52,
      "start": 10.7711,
      "duration": 0.0159,
      "velocity": 100,
      "chip": "ym2612"
    },
    {
      "channel": 1,
      "note": 76,
      "start": 10.7723,
      "duration": 0.0159,
      "velocity": 83,
      "chip": "ym2612"
    },
    {
      "channel": 0,
      "note": 70,
      "start": 10.7821,
      "duration": 0.0161,
      "velocity": 127,
      "chip": "ym2612"
    },
    {
      "channel": 5,
      "note": 76,
      "start": 10.7833,
      "duration": 0.016,
      "velocity": 83,
      "chip": "ym2612"
    },
    {
      "channel": 4,
      "note": 52,
      "start": 10.787,
      "duration": 0.016,
      "velocity": 100,
      "chip": "ym2612"
    },
    {
      "channel": 0,
      "note": 68,
      "start": 10.7982,
      "duration": 0.0179,
      "velocity": 115,
      "chip": "ym2612"
    },
    {
      "channel": 5,
      "note": 76,
      "start": 10.7993,
      "duration": 0.018,
      "velocity": 83,
      "chip": "ym2612"
    },
    {
      "channel": 4,
      "note": 52,
      "start": 10.803,
      "duration": 0.0183,
      "velocity": 100,
      "chip": "ym2612"
    },
    {
      "channel": 0,
      "note": 36,
      "start": 10.8161,
      "duration": 0.0144,
      "velocity": 115,
      "chip": "ym2612"
    },
    {
      "channel": 5,
      "note": 76,
      "start": 10.8173,
      "duration": 0.0144,
      "velocity": 83,
      "chip": "ym2612"
    },
    {
      "channel": 4,
      "note": 62,
      "start": 10.8213,
      "duration": 0.014,
      "velocity": 100,
      "chip": "ym2612"
    },
    {
      "channel": 1,
      "note": 78,
      "start": 10.8245,
      "duration": 0.0122,
      "velocity": 83,
      "chip": "ym2612"
    },
    {
      "channel": 0,
      "note": 36,
      "start": 10.8305,
      "duration": 0.016,
      "velocity": 115,
      "chip": "ym2612"
    },
    {
      "channel": 5,
      "note": 76,
      "start": 10.8317,
      "duration": 0.016,
      "velocity": 83,
      "chip": "ym2612"
    },
    {
      "channel": 4,
      "note": 62,
      "start": 10.8354,
      "duration": 0.016,
      "velocity": 100,
      "chip": "ym2612"
    },
    {
      "channel": 1,
      "note": 78,
      "start": 10.8367,
      "duration": 0.0159,
      "velocity": 83,
      "chip": "ym2612"
    },
    {
      "channel": 0,
      "note": 37,
      "start": 10.8465,
      "duration": 0.0164,
      "velocity": 115,
      "chip": "ym2612"
    },
    {
      "channel": 4,
      "note": 62,
      "start": 10.8514,
      "duration": 0.0165,
      "velocity": 100,
      "chip": "ym2612"
    },
    {
      "channel": 1,
      "note": 78,
      "start": 10.8526,
      "duration": 0.0164,
      "velocity": 83,
      "chip": "ym2612"
    },
    {
      "channel": 0,
      "note": 37,
      "start": 10.8629,
      "duration": 0.0163,
      "velocity": 115,
      "chip": "ym2612"
    },
    {
      "channel": 4,
      "note": 62,
      "start": 10.8678,
      "duration": 0.017,
      "velocity": 100,
      "chip": "ym2612"
    },
    {
      "channel": 1,
      "note": 78,
      "start": 10.869,
      "duration": 0.0171,
      "velocity": 83,
      "chip": "ym2612"
    },
    {
      "channel": 0,
      "note": 38,
      "start": 10.8793,
      "duration": 0.0161,
      "velocity": 115,
      "chip": "ym2612"
    },
    {
      "channel": 5,
      "note": 78,
      "start": 10.8812,
      "duration": 0.0154,
      "velocity": 83,
      "chip": "ym2612"
    },
    {
      "channel": 4,
      "note": 62,
      "start": 10.8848,
      "duration": 0.0155,
      "velocity": 100,
      "chip": "ym2612"
    },
    {
      "channel": 1,
      "note": 78,
      "start": 10.886,
      "duration": 0.0154,
      "velocity": 83,
      "chip": "ym2612"
    },
    {
      "channel": 0,
      "note": 38,
      "start": 10.8954,
      "duration": 0.016,
      "velocity": 115,
      "chip": "ym2612"
    },
    {
      "channel": 5,
      "note": 78,
      "start": 10.8966,
      "duration": 0.0161,
      "velocity": 83,
      "chip": "ym2612"
    },
    {
      "channel": 4,
      "note": 62,
      "start": 10.9003,
      "duration": 0.016,
      "velocity": 100,
      "chip": "ym2612"
    },
    {
      "channel": 1,
      "note": 78,
      "start": 10.9014,
      "duration": 0.0161,
      "velocity": 83,
      "chip": "ym2612"
    },
    {
      "channel": 0,
      "note": 39,
      "start": 10.9114,
      "duration": 0.0158,
      "velocity": 115,
      "chip": "ym2612"
    },
    {
      "channel": 5,
      "note": 78,
      "start": 10.9127,
      "duration": 0.0161,
      "velocity": 83,
      "chip": "ym2612"
    },
    {
      "channel": 4,
      "note": 62,
      "start": 10.9163,
      "duration": 0.0161,
      "velocity": 100,
      "chip": "ym2612"
    },
    {
      "channel": 1,
      "note": 78,
      "start": 10.9175,
      "duration": 0.016,
      "velocity": 83,
      "chip": "ym2612"
    },
    {
      "channel": 0,
      "note": 39,
      "start": 10.9272,
      "duration": 0.0159,
      "velocity": 115,
      "chip": "ym2612"
    },
    {
      "channel": 5,
      "note": 78,
      "start": 10.9288,
      "duration": 0.016,
      "velocity": 83,
      "chip": "ym2612"
    },
    {
      "channel": 4,
      "note": 62,
      "start": 10.9324,
      "duration": 0.0161,
      "velocity": 100,
      "chip": "ym2612"
    },
    {
      "channel": 1,
      "note": 78,
      "start": 10.9335,
      "duration": 0.0162,
      "velocity": 83,
      "chip": "ym2612"
    },
    {
      "channel": 0,
      "note": 40,
      "start": 10.9431,
      "duration": 0.0161,
      "velocity": 115,
      "chip": "ym2612"
    },
    {
      "channel": 5,
      "note": 78,
      "start": 10.9448,
      "duration": 0.0158,
      "velocity": 83,
      "chip": "ym2612"
    },
    {
      "channel": 4,
      "note": 62,
      "start": 10.9485,
      "duration": 0.0161,
      "velocity": 100,
      "chip": "ym2612"
    },
    {
      "channel": 1,
      "note": 78,
      "start": 10.9497,
      "duration": 0.016,
      "velocity": 83,
      "chip": "ym2612"
    },
    {
      "channel": 0,
      "note": 40,
      "start": 10.9592,
      "duration": 0.0161,
      "velocity": 115,
      "chip": "ym2612"
    },
    {
      "channel": 5,
      "note": 78,
      "start": 10.9606,
      "duration": 0.0159,
      "velocity": 83,
      "chip": "ym2612"
    },
    {
      "channel": 4,
      "note": 62,
      "start": 10.9646,
      "duration": 0.0161,
      "velocity": 100,
      "chip": "ym2612"
    },
    {
      "channel": 1,
      "note": 78,
      "start": 10.9657,
      "duration": 0.0161,
      "velocity": 83,
      "chip": "ym2612"
    },
    {
      "channel": 0,
      "note": 40,
      "start": 10.9753,
      "duration": 0.0161,
      "velocity": 115,
      "chip": "ym2612"
    },
    {
      "channel": 5,
      "note": 78,
      "start": 10.9765,
      "duration": 0.0161,
      "velocity": 83,
      "chip": "ym2612"
    },
    {
      "channel": 4,
      "note": 62,
      "start": 10.9807,
      "duration": 0.0161,
      "velocity": 100,
      "chip": "ym2612"
    },
    {
      "channel": 1,
      "note": 78,
      "start": 10.9819,
      "duration": 0.0161,
      "velocity": 83,
      "chip": "ym2612"
    },
    {
      "channel": 0,
      "note": 41,
      "start": 10.9914,
      "duration": 0.0161,
      "velocity": 115,
      "chip": "ym2612"
    },
    {
      "channel": 5,
      "note": 78,
      "start": 10.9926,
      "duration": 0.0161,
      "velocity": 83,
      "chip": "ym2612"
    },
    {
      "channel": 4,
      "note": 62,
      "start": 10.9968,
      "duration": 0.0161,
      "velocity": 100,
      "chip": "ym2612"
    },
    {
      "channel": 1,
      "note": 78,
      "start": 10.998,
      "duration": 0.0162,
      "velocity": 83,
      "chip": "ym2612"
    },
    {
      "channel": 0,
      "note": 41,
      "start": 11.0075,
      "duration": 0.0161,
      "velocity": 115,
      "chip": "ym2612"
    },
    {
      "channel": 5,
      "note": 78,
      "start": 11.0087,
      "duration": 0.0161,
      "velocity": 83,
      "chip": "ym2612"
    },
    {
      "channel": 4,
      "note": 62,
      "start": 11.0129,
      "duration": 0.0161,
      "velocity": 100,
      "chip": "ym2612"
    },
    {
      "channel": 1,
      "note": 78,
      "start": 11.0141,
      "duration": 0.0161,
      "velocity": 83,
      "chip": "ym2612"
    },
    {
      "channel": 0,
      "note": 42,
      "start": 11.0236,
      "duration": 0.0161,
      "velocity": 115,
      "chip": "ym2612"
    },
    {
      "channel": 5,
      "note": 78,
      "start": 11.0248,
      "duration": 0.0161,
      "velocity": 83,
      "chip": "ym2612"
    },
    {
      "channel": 4,
      "note": 62,
      "start": 11.029,
      "duration": 0.0169,
      "velocity": 100,
      "chip": "ym2612"
    },
    {
      "channel": 1,
      "note": 78,
      "start": 11.0302,
      "duration": 0.0169,
      "velocity": 83,
      "chip": "ym2612"
    },
    {
      "channel": 0,
      "note": 42,
      "start": 11.0396,
      "duration": 0.0162,
      "velocity": 115,
      "chip": "ym2612"
    },
    {
      "channel": 5,
      "note": 78,
      "start": 11.0409,
      "duration": 0.0161,
      "velocity": 83,
      "chip": "ym2612"
    },
    {
      "channel": 3,
      "note": 74,
      "start": 11.0425,
      "duration": 0.0157,
      "velocity": 100,
      "chip": "ym2612"
    },
    {
      "channel": 2,
      "note": 78,
      "start": 11.0447,
      "duration": 0.0147,
      "velocity": 100,
      "chip": "ym2612"
    },
    {
      "channel": 4,
      "note": 62,
      "start": 11.0459,
      "duration": 0.0151,
      "velocity": 100,
      "chip": "ym2612"
    },
    {
      "channel": 1,
      "note": 78,
      "start": 11.0471,
      "duration": 0.0153,
      "velocity": 83,
      "chip": "ym2612"
    },
    {
      "channel": 0,
      "note": 43,
      "start": 11.0558,
      "duration": 0.0161,
      "velocity": 115,
      "chip": "ym2612"
    },
    {
      "channel": 5,
      "note": 78,
      "start": 11.057,
      "duration": 0.0161,
      "velocity": 83,
      "chip": "ym2612"
    },
    {
      "channel": 3,
      "note": 74,
      "start": 11.0582,
      "duration": 0.016,
      "velocity": 100,
      "chip": "ym2612"
    },
    {
      "channel": 2,
      "note": 78,
      "start": 11.0594,
      "duration": 0.016,
      "velocity": 100,
      "chip": "ym2612"
    },
    {
      "channel": 4,
      "note": 62,
      "start": 11.0611,
      "duration": 0.0155,
      "velocity": 100,
      "chip": "ym2612"
    },
    {
      "channel": 1,
      "note": 78,
      "start": 11.0624,
      "duration": 0.016,
      "velocity": 83,
      "chip": "ym2612"
    },
    {
      "channel": 0,
      "note": 43,
      "start": 11.0719,
      "duration": 0.0161,
      "velocity": 115,
      "chip": "ym2612"
    },
    {
      "channel": 5,
      "note": 78,
      "start": 11.0731,
      "duration": 0.016,
      "velocity": 83,
      "chip": "ym2612"
    },
    {
      "channel": 3,
      "note": 74,
      "start": 11.0743,
      "duration": 0.0161,
      "velocity": 100,
      "chip": "ym2612"
    },
    {
      "channel": 2,
      "note": 78,
      "start": 11.0754,
      "duration": 0.0161,
      "velocity": 100,
      "chip": "ym2612"
    },
    {
      "channel": 4,
      "note": 62,
      "start": 11.0766,
      "duration": 0.0161,
      "velocity": 100,
      "chip": "ym2612"
    },
    {
      "channel": 1,
      "note": 78,
      "start": 11.0783,
      "duration": 0.016,
      "velocity": 83,
      "chip": "ym2612"
    },
    {
      "channel": 0,
      "note": 44,
      "start": 11.088,
      "duration": 0.0161,
      "velocity": 115,
      "chip": "ym2612"
    },
    {
      "channel": 5,
      "note": 78,
      "start": 11.0891,
      "duration": 0.0162,
      "velocity": 83,
      "chip": "ym2612"
    },
    {
      "channel": 3,
      "note": 74,
      "start": 11.0903,
      "duration": 0.0161,
      "velocity": 100,
      "chip": "ym2612"
    },
    {
      "channel": 2,
      "note": 78,
      "start": 11.0915,
      "duration": 0.0161,
      "velocity": 100,
      "chip": "ym2612"
    },
    {
      "channel": 4,
      "note": 62,
      "start": 11.0926,
      "duration": 0.0162,
      "velocity": 100,
      "chip": "ym2612"
    },
    {
      "channel": 1,
      "note": 78,
      "start": 11.0944,
      "duration": 0.0156,
      "velocity": 83,
      "chip": "ym2612"
    },
    {
      "channel": 0,
      "note": 44,
      "start": 11.1041,
      "duration": 0.0161,
      "velocity": 115,
      "chip": "ym2612"
    },
    {
      "channel": 5,
      "note": 78,
      "start": 11.1053,
      "duration": 0.0161,
      "velocity": 83,
      "chip": "ym2612"
    },
    {
      "channel": 3,
      "note": 74,
      "start": 11.1064,
      "duration": 0.0161,
      "velocity": 100,
      "chip": "ym2612"
    },
    {
      "channel": 2,
      "note": 78,
      "start": 11.1076,
      "duration": 0.0161,
      "velocity": 100,
      "chip": "ym2612"
    },
    {
      "channel": 4,
      "note": 62,
      "start": 11.1088,
      "duration": 0.0161,
      "velocity": 100,
      "chip": "ym2612"
    },
    {
      "channel": 1,
      "note": 78,
      "start": 11.11,
      "duration": 0.0161,
      "velocity": 83,
      "chip": "ym2612"
    },
    {
      "channel": 0,
      "note": 44,
      "start": 11.1202,
      "duration": 0.0161,
      "velocity": 115,
      "chip": "ym2612"
    },
    {
      "channel": 5,
      "note": 78,
      "start": 11.1214,
      "duration": 0.0161,
      "velocity": 83,
      "chip": "ym2612"
    },
    {
      "channel": 3,
      "note": 74,
      "start": 11.1225,
      "duration": 0.0161,
      "velocity": 100,
      "chip": "ym2612"
    },
    {
      "channel": 2,
      "note": 78,
      "start": 11.1237,
      "duration": 0.0162,
      "velocity": 100,
      "chip": "ym2612"
    },
    {
      "channel": 4,
      "note": 62,
      "start": 11.1249,
      "duration": 0.0161,
      "velocity": 100,
      "chip": "ym2612"
    },
    {
      "channel": 0,
      "note": 45,
      "start": 11.1363,
      "duration": 0.0179,
      "velocity": 115,
      "chip": "ym2612"
    },
    {
      "channel": 5,
      "note": 78,
      "start": 11.1375,
      "duration": 0.0179,
      "velocity": 83,
      "chip": "ym2612"
    },
    {
      "channel": 3,
      "note": 74,
      "start": 11.1386,
      "duration": 0.0179,
      "velocity": 100,
      "chip": "ym2612"
    },
    {
      "channel": 2,
      "note": 78,
      "start": 11.1398,
      "duration": 0.0179,
      "velocity": 100,
      "chip": "ym2612"
    },
    {
      "channel": 4,
      "note": 62,
      "start": 11.141,
      "duration": 0.0181,
      "velocity": 100,
      "chip": "ym2612"
    },
    {
      "channel": 0,
      "note": 36,
      "start": 11.1542,
      "duration": 0.0143,
      "velocity": 115,
      "chip": "ym2612"
    },
    {
      "channel": 5,
      "note": 78,
      "start": 11.1554,
      "duration": 0.0143,
      "velocity": 83,
      "chip": "ym2612"
    },
    {
      "channel": 3,
      "note": 74,
      "start": 11.1566,
      "duration": 0.0144,
      "velocity": 100,
      "chip": "ym2612"
    },
    {
      "channel": 2,
      "note": 78,
      "start": 11.1578,
      "duration": 0.0143,
      "velocity": 100,
      "chip": "ym2612"
    },
    {
      "channel": 4,
      "note": 57,
      "start": 11.1592,
      "duration": 0.0141,
      "velocity": 100,
      "chip": "ym2612"
    },
    {
      "channel": 1,
      "note": 76,
      "start": 11.1612,
      "duration": 0.0134,
      "velocity": 83,
      "chip": "ym2612"
    },
    {
      "channel": 0,
      "note": 36,
      "start": 11.1685,
      "duration": 0.016,
      "velocity": 115,
      "chip": "ym2612"
    },
    {
      "channel": 5,
      "note": 78,
      "start": 11.1697,
      "duration": 0.016,
      "velocity": 83,
      "chip": "ym2612"
    },
    {
      "channel": 3,
      "note": 74,
      "start": 11.171,
      "duration": 0.016,
      "velocity": 100,
      "chip": "ym2612"
    },
    {
      "channel": 2,
      "note": 78,
      "start": 11.1721,
      "duration": 0.016,
      "velocity": 100,
      "chip": "ym2612"
    },
    {
      "channel": 4,
      "note": 57,
      "start": 11.1733,
      "duration": 0.016,
      "velocity": 100,
      "chip": "ym2612"
    },
    {
      "channel": 1,
      "note": 76,
      "start": 11.1746,
      "duration": 0.0158,
      "velocity": 83,
      "chip": "ym2612"
    },
    {
      "channel": 0,
      "note": 37,
      "start": 11.1846,
      "duration": 0.0162,
      "velocity": 115,
      "chip": "ym2612"
    },
    {
      "channel": 3,
      "note": 74,
      "start": 11.187,
      "duration": 0.016,
      "velocity": 100,
      "chip": "ym2612"
    },
    {
      "channel": 2,
      "note": 78,
      "start": 11.1881,
      "duration": 0.0161,
      "velocity": 100,
      "chip": "ym2612"
    },
    {
      "channel": 4,
      "note": 57,
      "start": 11.1893,
      "duration": 0.0161,
      "velocity": 100,
      "chip": "ym2612"
    },
    {
      "channel": 1,
      "note": 76,
      "start": 11.1904,
      "duration": 0.0161,
      "velocity": 83,
      "chip": "ym2612"
    },
    {
      "channel": 0,
      "note": 37,
      "start": 11.2007,
      "duration": 0.0161,
      "velocity": 115,
      "chip": "ym2612"
    },
    {
      "channel": 3,
      "note": 74,
      "start": 11.203,
      "duration": 0.0164,
      "velocity": 100,
      "chip": "ym2612"
    },
    {
      "channel": 2,
      "note": 78,
      "start": 11.2042,
      "duration": 0.0163,
      "velocity": 100,
      "chip": "ym2612"
    },
    {
      "channel": 4,
      "note": 57,
      "start": 11.2054,
      "duration": 0.0164,
      "velocity": 100,
      "chip": "ym2612"
    },
    {
      "channel": 1,
      "note": 76,
      "start": 11.2065,
      "duration": 0.0164,
      "velocity": 83,
      "chip": "ym2612"
    },
    {
      "channel": 0,
      "note": 38,
      "start": 11.2168,
      "duration": 0.0161,
      "velocity": 115,
      "chip": "ym2612"
    },
    {
      "channel": 5,
      "note": 76,
      "start": 11.2183,
      "duration": 0.0159,
      "velocity": 83,
      "chip": "ym2612"
    },
    {
      "channel": 3,
      "note": 74,
      "start": 11.2194,
      "duration": 0.0159,
      "velocity": 100,
      "chip": "ym2612"
    },
    {
      "channel": 2,
      "note": 78,
      "start": 11.2206,
      "duration": 0.0159,
      "velocity": 100,
      "chip": "ym2612"
    },
    {
      "channel": 4,
      "note": 57,
      "start": 11.2218,
      "duration": 0.0159,
      "velocity": 100,
      "chip": "ym2612"
    },
    {
      "channel": 1,
      "note": 76,
      "start": 11.2229,
      "duration": 0.0159,
      "velocity": 83,
      "chip": "ym2612"
    },
    {
      "channel": 0,
      "note": 38,
      "start": 11.2329,
      "duration": 0.0161,
      "velocity": 115,
      "chip": "ym2612"
    },
    {
      "channel": 5,
      "note": 76,
      "start": 11.2342,
      "duration": 0.016,
      "velocity": 83,
      "chip": "ym2612"
    },
    {
      "channel": 3,
      "note": 74,
      "start": 11.2353,
      "duration": 0.016,
      "velocity": 100,
      "chip": "ym2612"
    },
    {
      "channel": 2,
      "note": 78,
      "start": 11.2365,
      "duration": 0.016,
      "velocity": 100,
      "chip": "ym2612"
    },
    {
      "channel": 4,
      "note": 57,
      "start": 11.2376,
      "duration": 0.016,
      "velocity": 100,
      "chip": "ym2612"
    },
    {
      "channel": 1,
      "note": 76,
      "start": 11.2388,
      "duration": 0.0161,
      "velocity": 83,
      "chip": "ym2612"
    },
    {
      "channel": 0,
      "note": 39,
      "start": 11.249,
      "duration": 0.0179,
      "velocity": 124,
      "chip": "ym2612"
    },
    {
      "channel": 5,
      "note": 76,
      "start": 11.2501,
      "duration": 0.018,
      "velocity": 83,
      "chip": "ym2612"
    },
    {
      "channel": 4,
      "note": 57,
      "start": 11.2537,
      "duration": 0.0186,
      "velocity": 100,
      "chip": "ym2612"
    },
    {
      "channel": 1,
      "note": 76,
      "start": 11.2549,
      "duration": 0.0186,
      "velocity": 83,
      "chip": "ym2612"
    },
    {
      "channel": 0,
      "note": 84,
      "start": 11.2669,
      "duration": 0.0143,
      "velocity": 124,
      "chip": "ym2612"
    },
    {
      "channel": 5,
      "note": 76,
      "start": 11.2681,
      "duration": 0.0143,
      "velocity": 83,
      "chip": "ym2612"
    },
    {
      "channel": 3,
      "note": 74,
      "start": 11.2697,
      "duration": 0.014,
      "velocity": 100,
      "chip": "ym2612"
    },
    {
      "channel": 2,
      "note": 78,
      "start": 11.2711,
      "duration": 0.0138,
      "velocity": 100,
      "chip": "ym2612"
    },
    {
      "channel": 4,
      "note": 57,
      "start": 11.2723,
      "duration": 0.0138,
      "velocity": 100,
      "chip": "ym2612"
    },
    {
      "channel": 1,
      "note": 76,
      "start": 11.2735,
      "duration": 0.0137,
      "velocity": 83,
      "chip": "ym2612"
    },
    {
      "channel": 0,
      "note": 82,
      "start": 11.2812,
      "duration": 0.016,
      "velocity": 124,
      "chip": "ym2612"
    },
    {
      "channel": 5,
      "note": 76,
      "start": 11.2824,
      "duration": 0.016,
      "velocity": 83,
      "chip": "ym2612"
    },
    {
      "channel": 3,
      "note": 74,
      "start": 11.2837,
      "duration": 0.016,
      "velocity": 100,
      "chip": "ym2612"
    },
    {
      "channel": 2,
      "note": 78,
      "start": 11.2849,
      "duration": 0.0159,
      "velocity": 100,
      "chip": "ym2612"
    },
    {
      "channel": 4,
      "note": 57,
      "start": 11.2861,
      "duration": 0.0159,
      "velocity": 100,
      "chip": "ym2612"
    },
    {
      "channel": 1,
      "note": 76,
      "start": 11.2872,
      "duration": 0.0159,
      "velocity": 83,
      "chip": "ym2612"
    },
    {
      "channel": 0,
      "note": 80,
      "start": 11.2973,
      "duration": 0.0162,
      "velocity": 124,
      "chip": "ym2612"
    },
    {
      "channel": 5,
      "note": 76,
      "start": 11.2985,
      "duration": 0.0162,
      "velocity": 83,
      "chip": "ym2612"
    },
    {
      "channel": 3,
      "note": 74,
      "start": 11.2997,
      "duration": 0.0161,
      "velocity": 100,
      "chip": "ym2612"
    },
    {
      "channel": 2,
      "note": 78,
      "start": 11.3008,
      "duration": 0.0162,
      "velocity": 100,
      "chip": "ym2612"
    },
    {
      "channel": 4,
      "note": 57,
      "start": 11.302,
      "duration": 0.0161,
      "velocity": 100,
      "chip": "ym2612"
    },
    {
      "channel": 1,
      "note": 76,
      "start": 11.3031,
      "duration": 0.0162,
      "velocity": 83,
      "chip": "ym2612"
    },
    {
      "channel": 0,
      "note": 77,
      "start": 11.3134,
      "duration": 0.0163,
      "velocity": 124,
      "chip": "ym2612"
    },
    {
      "channel": 5,
      "note": 76,
      "start": 11.3147,
      "duration": 0.0161,
      "velocity": 83,
      "chip": "ym2612"
    },
    {
      "channel": 3,
      "note": 74,
      "start": 11.3159,
      "duration": 0.0162,
      "velocity": 100,
      "chip": "ym2612"
    },
    {
      "channel": 2,
      "note": 78,
      "start": 11.317,
      "duration": 0.0162,
      "velocity": 100,
      "chip": "ym2612"
    },
    {
      "channel": 4,
      "note": 57,
      "start": 11.3181,
      "duration": 0.0162,
      "velocity": 100,
      "chip": "ym2612"
    },
    {
      "channel": 1,
      "note": 76,
      "start": 11.3194,
      "duration": 0.0161,
      "velocity": 83,
      "chip": "ym2612"
    },
    {
      "channel": 0,
      "note": 75,
      "start": 11.3297,
      "duration": 0.0163,
      "velocity": 124,
      "chip": "ym2612"
    },
    {
      "channel": 5,
      "note": 76,
      "start": 11.3309,
      "duration": 0.0163,
      "velocity": 83,
      "chip": "ym2612"
    },
    {
      "channel": 3,
      "note": 74,
      "start": 11.3321,
      "duration": 0.0163,
      "velocity": 100,
      "chip": "ym2612"
    },
    {
      "channel": 2,
      "note": 78,
      "start": 11.3332,
      "duration": 0.0163,
      "velocity": 100,
      "chip": "ym2612"
    },
    {
      "channel": 4,
      "note": 57,
      "start": 11.3344,
      "duration": 0.0163,
      "velocity": 100,
      "chip": "ym2612"
    },
    {
      "channel": 1,
      "note": 76,
      "start": 11.3355,
      "duration": 0.0164,
      "velocity": 83,
      "chip": "ym2612"
    },
    {
      "channel": 0,
      "note": 72,
      "start": 11.346,
      "duration": 0.0163,
      "velocity": 124,
      "chip": "ym2612"
    },
    {
      "channel": 5,
      "note": 76,
      "start": 11.3472,
      "duration": 0.0163,
      "velocity": 83,
      "chip": "ym2612"
    },
    {
      "channel": 3,
      "note": 74,
      "start": 11.3484,
      "duration": 0.0163,
      "velocity": 100,
      "chip": "ym2612"
    },
    {
      "channel": 2,
      "note": 78,
      "start": 11.3496,
      "duration": 0.0162,
      "velocity": 100,
      "chip": "ym2612"
    },
    {
      "channel": 4,
      "note": 57,
      "start": 11.3507,
      "duration": 0.0162,
      "velocity": 100,
      "chip": "ym2612"
    },
    {
      "channel": 1,
      "note": 76,
      "start": 11.3519,
      "duration": 0.0162,
      "velocity": 83,
      "chip": "ym2612"
    },
    {
      "channel": 0,
      "note": 70,
      "start": 11.3623,
      "duration": 0.0161,
      "velocity": 124,
      "chip": "ym2612"
    },
    {
      "channel": 5,
      "note": 76,
      "start": 11.3635,
      "duration": 0.0161,
      "velocity": 83,
      "chip": "ym2612"
    },
    {
      "channel": 3,
      "note": 74,
      "start": 11.3646,
      "duration": 0.0161,
      "velocity": 100,
      "chip": "ym2612"
    },
    {
      "channel": 2,
      "note": 78,
      "start": 11.3658,
      "duration": 0.0161,
      "velocity": 100,
      "chip": "ym2612"
    },
    {
      "channel": 4,
      "note": 57,
      "start": 11.3669,
      "duration": 0.0162,
      "velocity": 100,
      "chip": "ym2612"
    },
    {
      "channel": 1,
      "note": 76,
      "start": 11.3681,
      "duration": 0.0161,
      "velocity": 83,
      "chip": "ym2612"
    },
    {
      "channel": 0,
      "note": 68,
      "start": 11.3784,
      "duration": 0.016,
      "velocity": 124,
      "chip": "ym2612"
    },
    {
      "channel": 5,
      "note": 76,
      "start": 11.3796,
      "duration": 0.0161,
      "velocity": 83,
      "chip": "ym2612"
    },
    {
      "channel": 3,
      "note": 74,
      "start": 11.3807,
      "duration": 0.0161,
      "velocity": 100,
      "chip": "ym2612"
    },
    {
      "channel": 2,
      "note": 78,
      "start": 11.3819,
      "duration": 0.0161,
      "velocity": 100,
      "chip": "ym2612"
    },
    {
      "channel": 4,
      "note": 57,
      "start": 11.3831,
      "duration": 0.0161,
      "velocity": 100,
      "chip": "ym2612"
    },
    {
      "channel": 1,
      "note": 76,
      "start": 11.3842,
      "duration": 0.0161,
      "velocity": 83,
      "chip": "ym2612"
    },
    {
      "channel": 0,
      "note": 65,
      "start": 11.3944,
      "duration": 0.0156,
      "velocity": 124,
      "chip": "ym2612"
    },
    {
      "channel": 5,
      "note": 76,
      "start": 11.3957,
      "duration": 0.0161,
      "velocity": 83,
      "chip": "ym2612"
    },
    {
      "channel": 3,
      "note": 74,
      "start": 11.3968,
      "duration": 0.0161,
      "velocity": 100,
      "chip": "ym2612"
    },
    {
      "channel": 2,
      "note": 78,
      "start": 11.398,
      "duration": 0.0162,
      "velocity": 100,
      "chip": "ym2612"
    },
    {
      "channel": 4,
      "note": 57,
      "start": 11.3992,
      "duration": 0.0161,
      "velocity": 100,
      "chip": "ym2612"
    },
    {
      "channel": 1,
      "note": 76,
      "start": 11.4003,
      "duration": 0.0161,
      "velocity": 83,
      "chip": "ym2612"
    },
    {
      "channel": 0,
      "note": 63,
      "start": 11.41,
      "duration": 0.0153,
      "velocity": 1,
      "chip": "ym2612"
    },
    {
      "channel": 5,
      "note": 76,
      "start": 11.4118,
      "duration": 0.0147,
      "velocity": 83,
      "chip": "ym2612"
    },
    {
      "channel": 3,
      "note": 74,
      "start": 11.4129,
      "duration": 0.0152,
      "velocity": 100,
      "chip": "ym2612"
    },
    {
      "channel": 2,
      "note": 78,
      "start": 11.4141,
      "duration": 0.0153,
      "velocity": 100,
      "chip": "ym2612"
    },
    {
      "channel": 4,
      "note": 57,
      "start": 11.4153,
      "duration": 0.0153,
      "velocity": 100,
      "chip": "ym2612"
    },
    {
      "channel": 1,
      "note": 76,
      "start": 11.4164,
      "duration": 0.0153,
      "velocity": 83,
      "chip": "ym2612"
    },
    {
      "channel": 5,
      "note": 76,
      "start": 11.4265,
      "duration": 0.0152,
      "velocity": 83,
      "chip": "ym2612"
    },
    {
      "channel": 3,
      "note": 74,
      "start": 11.4281,
      "duration": 0.0148,
      "velocity": 100,
      "chip": "ym2612"
    },
    {
      "channel": 2,
      "note": 78,
      "start": 11.4294,
      "duration": 0.0151,
      "velocity": 100,
      "chip": "ym2612"
    },
    {
      "channel": 4,
      "note": 57,
      "start": 11.4305,
      "duration": 0.0153,
      "velocity": 100,
      "chip": "ym2612"
    },
    {
      "channel": 1,
      "note": 76,
      "start": 11.4317,
      "duration": 0.0154,
      "velocity": 83,
      "chip": "ym2612"
    },
    {
      "channel": 5,
      "note": 76,
      "start": 11.4417,
      "duration": 0.0162,
      "velocity": 83,
      "chip": "ym2612"
    },
    {
      "channel": 3,
      "note": 74,
      "start": 11.4429,
      "duration": 0.0161,
      "velocity": 100,
      "chip": "ym2612"
    },
    {
      "channel": 2,
      "note": 78,
      "start": 11.4445,
      "duration": 0.0159,
      "velocity": 100,
      "chip": "ym2612"
    },
    {
      "channel": 4,
      "note": 57,
      "start": 11.4458,
      "duration": 0.0161,
      "velocity": 100,
      "chip": "ym2612"
    },
    {
      "channel": 1,
      "note": 76,
      "start": 11.4471,
      "duration": 0.016,
      "velocity": 83,
      "chip": "ym2612"
    },
    {
      "channel": 5,
      "note": 76,
      "start": 11.4578,
      "duration": 0.0161,
      "velocity": 83,
      "chip": "ym2612"
    },
    {
      "channel": 3,
      "note": 74,
      "start": 11.459,
      "duration": 0.0161,
      "velocity": 100,
      "chip": "ym2612"
    },
    {
      "channel": 2,
      "note": 78,
      "start": 11.4604,
      "duration": 0.0159,
      "velocity": 100,
      "chip": "ym2612"
    },
    {
      "channel": 4,
      "note": 57,
      "start": 11.462,
      "duration": 0.016,
      "velocity": 100,
      "chip": "ym2612"
    },
    {
      "channel": 5,
      "note": 76,
      "start": 11.4739,
      "duration": 0.0161,
      "velocity": 83,
      "chip": "ym2612"
    },
    {
      "channel": 4,
      "note": 57,
      "start": 11.478,
      "duration": 0.0171,
      "velocity": 100,
      "chip": "ym2612"
    },
    {
      "channel": 5,
      "note": 76,
      "start": 11.49,
      "duration": 0.0161,
      "velocity": 83,
      "chip": "ym2612"
    },
    {
      "channel": 3,
      "note": 74,
      "start": 11.4916,
      "duration": 0.0158,
      "velocity": 100,
      "chip": "ym2612"
    },
    {
      "channel": 2,
      "note": 78,
      "start": 11.4932,
      "duration": 0.0154,
      "velocity": 100,
      "chip": "ym2612"
    },
    {
      "channel": 4,
      "note": 59,
      "start": 11.4952,
      "duration": 0.0146,
      "velocity": 100,
      "chip": "ym2612"
    },
    {
      "channel": 1,
      "note": 74,
      "start": 11.4967,
      "duration": 0.0149,
      "velocity": 83,
      "chip": "ym2612"
    },
    {
      "channel": 5,
      "note": 76,
      "start": 11.5061,
      "duration": 0.0161,
      "velocity": 83,
      "chip": "ym2612"
    },
    {
      "channel": 3,
      "note": 74,
      "start": 11.5074,
      "duration": 0.016,
      "velocity": 100,
      "chip": "ym2612"
    },
    {
      "channel": 2,
      "note": 78,
      "start": 11.5086,
      "duration": 0.016,
      "velocity": 100,
      "chip": "ym2612"
    },
    {
      "channel": 4,
      "note": 59,
      "start": 11.5098,
      "duration": 0.0159,
      "velocity": 100,
      "chip": "ym2612"
    },
    {
      "channel": 1,
      "note": 74,
      "start": 11.5117,
      "duration": 0.0155,
      "velocity": 83,
      "chip": "ym2612"
    },
    {
      "channel": 3,
      "note": 74,
      "start": 11.5234,
      "duration": 0.016,
      "velocity": 100,
      "chip": "ym2612"
    },
    {
      "channel": 2,
      "note": 78,
      "start": 11.5246,
      "duration": 0.0161,
      "velocity": 100,
      "chip": "ym2612"
    },
    {
      "channel": 4,
      "note": 59,
      "start": 11.5257,
      "duration": 0.0161,
      "velocity": 100,
      "chip": "ym2612"
    },
    {
      "channel": 1,
      "note": 74,
      "start": 11.5271,
      "duration": 0.0158,
      "velocity": 83,
      "chip": "ym2612"
    },
    {
      "channel": 3,
      "note": 74,
      "start": 11.5395,
      "duration": 0.0164,
      "velocity": 100,
      "chip": "ym2612"
    },
    {
      "channel": 2,
      "note": 78,
      "start": 11.5407,
      "duration": 0.0163,
      "velocity": 100,
      "chip": "ym2612"
    },
    {
      "channel": 4,
      "note": 59,
      "start": 11.5418,
      "duration": 0.0164,
      "velocity": 100,
      "chip": "ym2612"
    },
    {
      "channel": 1,
      "note": 74,
      "start": 11.5429,
      "duration": 0.0164,
      "velocity": 83,
      "chip": "ym2612"
    },
    {
      "channel": 5,
      "note": 74,
      "start": 11.5547,
      "duration": 0.0159,
      "velocity": 83,
      "chip": "ym2612"
    },
    {
      "channel": 3,
      "note": 74,
      "start": 11.5559,
      "duration": 0.0159,
      "velocity": 100,
      "chip": "ym2612"
    },
    {
      "channel": 2,
      "note": 78,
      "start": 11.557,
      "duration": 0.0159,
      "velocity": 100,
      "chip": "ym2612"
    },
    {
      "channel": 4,
      "note": 59,
      "start": 11.5582,
      "duration": 0.0158,
      "velocity": 100,
      "chip": "ym2612"
    },
    {
      "channel": 1,
      "note": 74,
      "start": 11.5594,
      "duration": 0.0159,
      "velocity": 83,
      "chip": "ym2612"
    },
    {
      "channel": 5,
      "note": 74,
      "start": 11.5706,
      "duration": 0.016,
      "velocity": 83,
      "chip": "ym2612"
    },
    {
      "channel": 3,
      "note": 74,
      "start": 11.5718,
      "duration": 0.016,
      "velocity": 100,
      "chip": "ym2612"
    },
    {
      "channel": 2,
      "note": 78,
      "start": 11.5729,
      "duration": 0.016,
      "velocity": 100,
      "chip": "ym2612"
    },
    {
      "channel": 4,
      "note": 59,
      "start": 11.5741,
      "duration": 0.016,
      "velocity": 100,
      "chip": "ym2612"
    },
    {
      "channel": 1,
      "note": 74,
      "start": 11.5752,
      "duration": 0.0161,
      "velocity": 83,
      "chip": "ym2612"
    },
    {
      "channel": 5,
      "note": 74,
      "start": 11.5866,
      "duration": 0.0161,
      "velocity": 83,
      "chip": "ym2612"
    },
    {
      "channel": 3,
      "note": 74,
      "start": 11.5878,
      "duration": 0.0161,
      "velocity": 100,
      "chip": "ym2612"
    },
    {
      "channel": 2,
      "note": 78,
      "start": 11.589,
      "duration": 0.0161,
      "velocity": 100,
      "chip": "ym2612"
    },
    {
      "channel": 4,
      "note": 59,
      "start": 11.5901,
      "duration": 0.0161,
      "velocity": 100,
      "chip": "ym2612"
    },
    {
      "channel": 1,
      "note": 74,
      "start": 11.5913,
      "duration": 0.0161,
      "velocity": 83,
      "chip": "ym2612"
    },
    {
      "channel": 5,
      "note": 74,
      "start": 11.6027,
      "duration": 0.0161,
      "velocity": 83,
      "chip": "ym2612"
    },
    {
      "channel": 3,
      "note": 74,
      "start": 11.6039,
      "duration": 0.0161,
      "velocity": 100,
      "chip": "ym2612"
    },
    {
      "channel": 2,
      "note": 78,
      "start": 11.605,
      "duration": 0.0161,
      "velocity": 100,
      "chip": "ym2612"
    },
    {
      "channel": 4,
      "note": 59,
      "start": 11.6062,
      "duration": 0.0161,
      "velocity": 100,
      "chip": "ym2612"
    },
    {
      "channel": 1,
      "note": 74,
      "start": 11.6074,
      "duration": 0.0161,
      "velocity": 83,
      "chip": "ym2612"
    },
    {
      "channel": 5,
      "note": 74,
      "start": 11.6188,
      "duration": 0.0161,
      "velocity": 83,
      "chip": "ym2612"
    },
    {
      "channel": 3,
      "note": 74,
      "start": 11.62,
      "duration": 0.0161,
      "velocity": 100,
      "chip": "ym2612"
    },
    {
      "channel": 2,
      "note": 78,
      "start": 11.6211,
      "duration": 0.0161,
      "velocity": 100,
      "chip": "ym2612"
    },
    {
      "channel": 4,
      "note": 59,
      "start": 11.6223,
      "duration": 0.0161,
      "velocity": 100,
      "chip": "ym2612"
    },
    {
      "channel": 1,
      "note": 74,
      "start": 11.6235,
      "duration": 0.0161,
      "velocity": 83,
      "chip": "ym2612"
    },
    {
      "channel": 5,
      "note": 74,
      "start": 11.6349,
      "duration": 0.0161,
      "velocity": 83,
      "chip": "ym2612"
    },
    {
      "channel": 3,
      "note": 74,
      "start": 11.6361,
      "duration": 0.0161,
      "velocity": 100,
      "chip": "ym2612"
    },
    {
      "channel": 2,
      "note": 78,
      "start": 11.6372,
      "duration": 0.0161,
      "velocity": 100,
      "chip": "ym2612"
    },
    {
      "channel": 4,
      "note": 59,
      "start": 11.6384,
      "duration": 0.0161,
      "velocity": 100,
      "chip": "ym2612"
    },
    {
      "channel": 1,
      "note": 74,
      "start": 11.6396,
      "duration": 0.0161,
      "velocity": 83,
      "chip": "ym2612"
    },
    {
      "channel": 5,
      "note": 74,
      "start": 11.651,
      "duration": 0.0161,
      "velocity": 83,
      "chip": "ym2612"
    },
    {
      "channel": 3,
      "note": 74,
      "start": 11.6522,
      "duration": 0.0161,
      "velocity": 100,
      "chip": "ym2612"
    },
    {
      "channel": 2,
      "note": 78,
      "start": 11.6534,
      "duration": 0.0161,
      "velocity": 100,
      "chip": "ym2612"
    },
    {
      "channel": 4,
      "note": 59,
      "start": 11.6545,
      "duration": 0.0161,
      "velocity": 100,
      "chip": "ym2612"
    },
    {
      "channel": 1,
      "note": 74,
      "start": 11.6557,
      "duration": 0.0161,
      "velocity": 83,
      "chip": "ym2612"
    },
    {
      "channel": 5,
      "note": 74,
      "start": 11.6671,
      "duration": 0.0161,
      "velocity": 83,
      "chip": "ym2612"
    },
    {
      "channel": 3,
      "note": 74,
      "start": 11.6683,
      "duration": 0.0161,
      "velocity": 100,
      "chip": "ym2612"
    },
    {
      "channel": 2,
      "note": 78,
      "start": 11.6695,
      "duration": 0.0161,
      "velocity": 100,
      "chip": "ym2612"
    },
    {
      "channel": 4,
      "note": 59,
      "start": 11.6706,
      "duration": 0.0161,
      "velocity": 100,
      "chip": "ym2612"
    },
    {
      "channel": 1,
      "note": 74,
      "start": 11.6718,
      "duration": 0.0162,
      "velocity": 83,
      "chip": "ym2612"
    },
    {
      "channel": 5,
      "note": 74,
      "start": 11.6832,
      "duration": 0.0161,
      "velocity": 83,
      "chip": "ym2612"
    },
    {
      "channel": 3,
      "note": 74,
      "start": 11.6844,
      "duration": 0.0161,
      "velocity": 100,
      "chip": "ym2612"
    },
    {
      "channel": 2,
      "note": 78,
      "start": 11.6856,
      "duration": 0.0161,
      "velocity": 100,
      "chip": "ym2612"
    },
    {
      "channel": 4,
      "note": 59,
      "start": 11.6867,
      "duration": 0.0161,
      "velocity": 100,
      "chip": "ym2612"
    },
    {
      "channel": 1,
      "note": 74,
      "start": 11.6879,
      "duration": 0.0161,
      "velocity": 83,
      "chip": "ym2612"
    },
    {
      "channel": 5,
      "note": 74,
      "start": 11.6993,
      "duration": 0.0197,
      "velocity": 83,
      "chip": "ym2612"
    },
    {
      "channel": 4,
      "note": 59,
      "start": 11.7028,
      "duration": 0.0205,
      "velocity": 100,
      "chip": "ym2612"
    },
    {
      "channel": 1,
      "note": 74,
      "start": 11.704,
      "duration": 0.0206,
      "velocity": 83,
      "chip": "ym2612"
    },
    {
      "channel": 0,
      "note": 36,
      "start": 11.7178,
      "duration": 0.0143,
      "velocity": 115,
      "chip": "ym2612"
    },
    {
      "channel": 5,
      "note": 74,
      "start": 11.719,
      "duration": 0.0143,
      "velocity": 83,
      "chip": "ym2612"
    },
    {
      "channel": 3,
      "note": 74,
      "start": 11.7204,
      "duration": 0.0141,
      "velocity": 100,
      "chip": "ym2612"
    },
    {
      "channel": 2,
      "note": 78,
      "start": 11.722,
      "duration": 0.0138,
      "velocity": 100,
      "chip": "ym2612"
    },
    {
      "channel": 4,
      "note": 62,
      "start": 11.7234,
      "duration": 0.0136,
      "velocity": 100,
      "chip": "ym2612"
    },
    {
      "channel": 1,
      "note": 74,
      "start": 11.7246,
      "duration": 0.0135,
      "velocity": 83,
      "chip": "ym2612"
    },
    {
      "channel": 0,
      "note": 36,
      "start": 11.7321,
      "duration": 0.016,
      "velocity": 115,
      "chip": "ym2612"
    },
    {
      "channel": 5,
      "note": 74,
      "start": 11.7333,
      "duration": 0.016,
      "velocity": 83,
      "chip": "ym2612"
    },
    {
      "channel": 3,
      "note": 74,
      "start": 11.7345,
      "duration": 0.016,
      "velocity": 100,
      "chip": "ym2612"
    },
    {
      "channel": 2,
      "note": 78,
      "start": 11.7358,
      "duration": 0.0159,
      "velocity": 100,
      "chip": "ym2612"
    },
    {
      "channel": 4,
      "note": 62,
      "start": 11.737,
      "duration": 0.0158,
      "velocity": 100,
      "chip": "ym2612"
    },
    {
      "channel": 1,
      "note": 74,
      "start": 11.7381,
      "duration": 0.0159,
      "velocity": 83,
      "chip": "ym2612"
    },
    {
      "channel": 0,
      "note": 37,
      "start": 11.7481,
      "duration": 0.0161,
      "velocity": 115,
      "chip": "ym2612"
    },
    {
      "channel": 5,
      "note": 74,
      "start": 11.7493,
      "duration": 0.0161,
      "velocity": 83,
      "chip": "ym2612"
    },
    {
      "channel": 3,
      "note": 74,
      "start": 11.7505,
      "duration": 0.016,
      "velocity": 100,
      "chip": "ym2612"
    },
    {
      "channel": 2,
      "note": 78,
      "start": 11.7517,
      "duration": 0.0161,
      "velocity": 100,
      "chip": "ym2612"
    },
    {
      "channel": 4,
      "note": 62,
      "start": 11.7528,
      "duration": 0.0161,
      "velocity": 100,
      "chip": "ym2612"
    },
    {
      "channel": 1,
      "note": 74,
      "start": 11.754,
      "duration": 0.0161,
      "velocity": 83,
      "chip": "ym2612"
    },
    {
      "channel": 0,
      "note": 37,
      "start": 11.7642,
      "duration": 0.0161,
      "velocity": 115,
      "chip": "ym2612"
    },
    {
      "channel": 5,
      "note": 74,
      "start": 11.7654,
      "duration": 0.0161,
      "velocity": 83,
      "chip": "ym2612"
    },
    {
      "channel": 3,
      "note": 74,
      "start": 11.7666,
      "duration": 0.0162,
      "velocity": 100,
      "chip": "ym2612"
    },
    {
      "channel": 2,
      "note": 78,
      "start": 11.7678,
      "duration": 0.0161,
      "velocity": 100,
      "chip": "ym2612"
    },
    {
      "channel": 4,
      "note": 62,
      "start": 11.7689,
      "duration": 0.0161,
      "velocity": 100,
      "chip": "ym2612"
    },
    {
      "channel": 1,
      "note": 74,
      "start": 11.77,
      "duration": 0.0162,
      "velocity": 83,
      "chip": "ym2612"
    },
    {
      "channel": 0,
      "note": 38,
      "start": 11.7803,
      "duration": 0.0162,
      "velocity": 115,
      "chip": "ym2612"
    },
    {
      "channel": 5,
      "note": 74,
      "start": 11.7815,
      "duration": 0.0162,
      "velocity": 83,
      "chip": "ym2612"
    },
    {
      "channel": 3,
      "note": 74,
      "start": 11.7827,
      "duration": 0.0161,
      "velocity": 100,
      "chip": "ym2612"
    },
    {
      "channel": 2,
      "note": 78,
      "start": 11.7839,
      "duration": 0.0162,
      "velocity": 100,
      "chip": "ym2612"
    },
    {
      "channel": 4,
      "note": 62,
      "start": 11.785,
      "duration": 0.0161,
      "velocity": 100,
      "chip": "ym2612"
    },
    {
      "channel": 1,
      "note": 74,
      "start": 11.7862,
      "duration": 0.0161,
      "velocity": 83,
      "chip": "ym2612"
    },
    {
      "channel": 0,
      "note": 38,
      "start": 11.7965,
      "duration": 0.0165,
      "velocity": 115,
      "chip": "ym2612"
    },
    {
      "channel": 5,
      "note": 74,
      "start": 11.7977,
      "duration": 0.0165,
      "velocity": 83,
      "chip": "ym2612"
    },
    {
      "channel": 3,
      "note": 74,
      "start": 11.7989,
      "duration": 0.0164,
      "velocity": 100,
      "chip": "ym2612"
    },
    {
      "channel": 2,
      "note": 78,
      "start": 11.8,
      "duration": 0.0164,
      "velocity": 100,
      "chip": "ym2612"
    },
    {
      "channel": 4,
      "note": 62,
      "start": 11.8012,
      "duration": 0.0164,
      "velocity": 100,
      "chip": "ym2612"
    },
    {
      "channel": 1,
      "note": 74,
      "start": 11.8023,
      "duration": 0.0165,
      "velocity": 83,
      "chip": "ym2612"
    },
    {
      "channel": 0,
      "note": 39,
      "start": 11.8129,
      "duration": 0.0163,
      "velocity": 115,
      "chip": "ym2612"
    },
    {
      "channel": 5,
      "note": 74,
      "start": 11.8141,
      "duration": 0.0163,
      "velocity": 83,
      "chip": "ym2612"
    },
    {
      "channel": 3,
      "note": 74,
      "start": 11.8153,
      "duration": 0.0163,
      "velocity": 100,
      "chip": "ym2612"
    },
    {
      "channel": 2,
      "note": 78,
      "start": 11.8164,
      "duration": 0.0163,
      "velocity": 100,
      "chip": "ym2612"
    },
    {
      "channel": 4,
      "note": 62,
      "start": 11.8176,
      "duration": 0.0163,
      "velocity": 100,
      "chip": "ym2612"
    },
    {
      "channel": 1,
      "note": 74,
      "start": 11.8188,
      "duration": 0.0163,
      "velocity": 83,
      "chip": "ym2612"
    },
    {
      "channel": 0,
      "note": 39,
      "start": 11.8292,
      "duration": 0.0161,
      "velocity": 115,
      "chip": "ym2612"
    },
    {
      "channel": 5,
      "note": 74,
      "start": 11.8304,
      "duration": 0.0161,
      "velocity": 83,
      "chip": "ym2612"
    },
    {
      "channel": 3,
      "note": 74,
      "start": 11.8316,
      "duration": 0.0161,
      "velocity": 100,
      "chip": "ym2612"
    },
    {
      "channel": 2,
      "note": 78,
      "start": 11.8327,
      "duration": 0.0161,
      "velocity": 100,
      "chip": "ym2612"
    },
    {
      "channel": 4,
      "note": 62,
      "start": 11.8339,
      "duration": 0.0162,
      "velocity": 100,
      "chip": "ym2612"
    },
    {
      "channel": 1,
      "note": 74,
      "start": 11.8351,
      "duration": 0.0161,
      "velocity": 83,
      "chip": "ym2612"
    },
    {
      "channel": 0,
      "note": 40,
      "start": 11.8453,
      "duration": 0.016,
      "velocity": 115,
      "chip": "ym2612"
    },
    {
      "channel": 5,
      "note": 74,
      "start": 11.8465,
      "duration": 0.0161,
      "velocity": 83,
      "chip": "ym2612"
    },
    {
      "channel": 3,
      "note": 74,
      "start": 11.8477,
      "duration": 0.0161,
      "velocity": 100,
      "chip": "ym2612"
    },
    {
      "channel": 2,
      "note": 78,
      "start": 11.8489,
      "duration": 0.0161,
      "velocity": 100,
      "chip": "ym2612"
    },
    {
      "channel": 4,
      "note": 62,
      "start": 11.85,
      "duration": 0.0161,
      "velocity": 100,
      "chip": "ym2612"
    },
    {
      "channel": 1,
      "note": 74,
      "start": 11.8512,
      "duration": 0.0161,
      "velocity": 83,
      "chip": "ym2612"
    },
    {
      "channel": 0,
      "note": 40,
      "start": 11.8613,
      "duration": 0.0159,
      "velocity": 115,
      "chip": "ym2612"
    },
    {
      "channel": 5,
      "note": 74,
      "start": 11.8626,
      "duration": 0.0161,
      "velocity": 83,
      "chip": "ym2612"
    },
    {
      "channel": 3,
      "note": 74,
      "start": 11.8638,
      "duration": 0.0161,
      "velocity": 100,
      "chip": "ym2612"
    },
    {
      "channel": 2,
      "note": 78,
      "start": 11.865,
      "duration": 0.0161,
      "velocity": 100,
      "chip": "ym2612"
    },
    {
      "channel": 4,
      "note": 62,
      "start": 11.8661,
      "duration": 0.0161,
      "velocity": 100,
      "chip": "ym2612"
    },
    {
      "channel": 1,
      "note": 74,
      "start": 11.8673,
      "duration": 0.0162,
      "velocity": 83,
      "chip": "ym2612"
    },
    {
      "channel": 0,
      "note": 40,
      "start": 11.8772,
      "duration": 0.0158,
      "velocity": 115,
      "chip": "ym2612"
    },
    {
      "channel": 5,
      "note": 74,
      "start": 11.8787,
      "duration": 0.0161,
      "velocity": 83,
      "chip": "ym2612"
    },
    {
      "channel": 3,
      "note": 74,
      "start": 11.8799,
      "duration": 0.0161,
      "velocity": 100,
      "chip": "ym2612"
    },
    {
      "channel": 2,
      "note": 78,
      "start": 11.8811,
      "duration": 0.0161,
      "velocity": 100,
      "chip": "ym2612"
    },
    {
      "channel": 4,
      "note": 62,
      "start": 11.8822,
      "duration": 0.0161,
      "velocity": 100,
      "chip": "ym2612"
    },
    {
      "channel": 1,
      "note": 74,
      "start": 11.8834,
      "duration": 0.016,
      "velocity": 83,
      "chip": "ym2612"
    },
    {
      "channel": 0,
      "note": 41,
      "start": 11.893,
      "duration": 0.0161,
      "velocity": 115,
      "chip": "ym2612"
    },
    {
      "channel": 5,
      "note": 74,
      "start": 11.8948,
      "duration": 0.0158,
      "velocity": 83,
      "chip": "ym2612"
    },
    {
      "channel": 3,
      "note": 74,
      "start": 11.896,
      "duration": 0.0161,
      "velocity": 100,
      "chip": "ym2612"
    },
    {
      "channel": 2,
      "note": 78,
      "start": 11.8971,
      "duration": 0.0161,
      "velocity": 100,
      "chip": "ym2612"
    },
    {
      "channel": 4,
      "note": 62,
      "start": 11.8983,
      "duration": 0.0161,
      "velocity": 100,
      "chip": "ym2612"
    },
    {
      "channel": 1,
      "note": 74,
      "start": 11.8994,
      "duration": 0.0162,
      "velocity": 83,
      "chip": "ym2612"
    },
    {
      "channel": 0,
      "note": 41,
      "start": 11.9091,
      "duration": 0.0161,
      "velocity": 115,
      "chip": "ym2612"
    },
    {
      "channel": 5,
      "note": 74,
      "start": 11.9106,
      "duration": 0.0159,
      "velocity": 83,
      "chip": "ym2612"
    },
    {
      "channel": 3,
      "note": 74,
      "start": 11.9121,
      "duration": 0.016,
      "velocity": 100,
      "chip": "ym2612"
    },
    {
      "channel": 2,
      "note": 78,
      "start": 11.9132,
      "duration": 0.0161,
      "velocity": 100,
      "chip": "ym2612"
    },
    {
      "channel": 4,
      "note": 62,
      "start": 11.9144,
      "duration": 0.0161,
      "velocity": 100,
      "chip": "ym2612"
    },
    {
      "channel": 1,
      "note": 74,
      "start": 11.9156,
      "duration": 0.0161,
      "velocity": 83,
      "chip": "ym2612"
    },
    {
      "channel": 0,
      "note": 42,
      "start": 11.9252,
      "duration": 0.0161,
      "velocity": 115,
      "chip": "ym2612"
    },
    {
      "channel": 5,
      "note": 74,
      "start": 11.9264,
      "duration": 0.0162,
      "velocity": 83,
      "chip": "ym2612"
    },
    {
      "channel": 4,
      "note": 62,
      "start": 11.9305,
      "duration": 0.017,
      "velocity": 100,
      "chip": "ym2612"
    },
    {
      "channel": 1,
      "note": 74,
      "start": 11.9317,
      "duration": 0.017,
      "velocity": 83,
      "chip": "ym2612"
    },
    {
      "channel": 0,
      "note": 42,
      "start": 11.9414,
      "duration": 0.0161,
      "velocity": 115,
      "chip": "ym2612"
    },
    {
      "channel": 5,
      "note": 74,
      "start": 11.9426,
      "duration": 0.016,
      "velocity": 83,
      "chip": "ym2612"
    },
    {
      "channel": 3,
      "note": 74,
      "start": 11.9447,
      "duration": 0.0152,
      "velocity": 100,
      "chip": "ym2612"
    },
    {
      "channel": 2,
      "note": 78,
      "start": 11.9464,
      "duration": 0.0153,
      "velocity": 100,
      "chip": "ym2612"
    },
    {
      "channel": 4,
      "note": 62,
      "start": 11.9475,
      "duration": 0.0153,
      "velocity": 100,
      "chip": "ym2612"
    },
    {
      "channel": 1,
      "note": 74,
      "start": 11.9487,
      "duration": 0.0153,
      "velocity": 83,
      "chip": "ym2612"
    },
    {
      "channel": 0,
      "note": 43,
      "start": 11.9575,
      "duration": 0.0161,
      "velocity": 115,
      "chip": "ym2612"
    },
    {
      "channel": 5,
      "note": 74,
      "start": 11.9586,
      "duration": 0.0161,
      "velocity": 83,
      "chip": "ym2612"
    },
    {
      "channel": 3,
      "note": 74,
      "start": 11.9599,
      "duration": 0.016,
      "velocity": 100,
      "chip": "ym2612"
    },
    {
      "channel": 2,
      "note": 78,
      "start": 11.9617,
      "duration": 0.0156,
      "velocity": 100,
      "chip": "ym2612"
    },
    {
      "channel": 4,
      "note": 62,
      "start": 11.9628,
      "duration": 0.016,
      "velocity": 100,
      "chip": "ym2612"
    },
    {
      "channel": 1,
      "note": 74,
      "start": 11.964,
      "duration": 0.016,
      "velocity": 83,
      "chip": "ym2612"
    },
    {
      "channel": 0,
      "note": 43,
      "start": 11.9736,
      "duration": 0.0161,
      "velocity": 115,
      "chip": "ym2612"
    },
    {
      "channel": 5,
      "note": 74,
      "start": 11.9747,
      "duration": 0.0162,
      "velocity": 83,
      "chip": "ym2612"
    },
    {
      "channel": 3,
      "note": 74,
      "start": 11.9759,
      "duration": 0.0161,
      "velocity": 100,
      "chip": "ym2612"
    },
    {
      "channel": 2,
      "note": 78,
      "start": 11.9772,
      "duration": 0.0159,
      "velocity": 100,
      "chip": "ym2612"
    },
    {
      "channel": 4,
      "note": 62,
      "start": 11.9788,
      "duration": 0.016,
      "velocity": 100,
      "chip": "ym2612"
    },
    {
      "channel": 1,
      "note": 74,
      "start": 11.98,
      "duration": 0.0161,
      "velocity": 83,
      "chip": "ym2612"
    },
    {
      "channel": 0,
      "note": 44,
      "start": 11.9896,
      "duration": 0.0161,
      "velocity": 115,
      "chip": "ym2612"
    },
    {
      "channel": 5,
      "note": 74,
      "start": 11.9909,
      "duration": 0.0161,
      "velocity": 83,
      "chip": "ym2612"
    },
    {
      "channel": 3,
      "note": 74,
      "start": 11.992,
      "duration": 0.0161,
      "velocity": 100,
      "chip": "ym2612"
    },
    {
      "channel": 2,
      "note": 78,
      "start": 11.9932,
      "duration": 0.0161,
      "velocity": 100,
      "chip": "ym2612"
    },
    {
      "channel": 4,
      "note": 62,
      "start": 11.9948,
      "duration": 0.0162,
      "velocity": 100,
      "chip": "ym2612"
    },
    {
      "channel": 1,
      "note": 74,
      "start": 11.9961,
      "duration": 0.0162,
      "velocity": 83,
      "chip": "ym2612"
    },
    {
      "channel": 0,
      "note": 44,
      "start": 12.0057,
      "duration": 0.0161,
      "velocity": 115,
      "chip": "ym2612"
    },
    {
      "channel": 5,
      "note": 74,
      "start": 12.007,
      "duration": 0.0161,
      "velocity": 83,
      "chip": "ym2612"
    },
    {
      "channel": 3,
      "note": 74,
      "start": 12.0081,
      "duration": 0.0161,
      "velocity": 100,
      "chip": "ym2612"
    },
    {
      "channel": 2,
      "note": 78,
      "start": 12.0093,
      "duration": 0.0161,
      "velocity": 100,
      "chip": "ym2612"
    },
    {
      "channel": 4,
      "note": 62,
      "start": 12.011,
      "duration": 0.0156,
      "velocity": 100,
      "chip": "ym2612"
    },
    {
      "channel": 1,
      "note": 74,
      "start": 12.0123,
      "duration": 0.016,
      "velocity": 83,
      "chip": "ym2612"
    },
    {
      "channel": 0,
      "note": 44,
      "start": 12.0218,
      "duration": 0.0161,
      "velocity": 115,
      "chip": "ym2612"
    },
    {
      "channel": 5,
      "note": 74,
      "start": 12.023,
      "duration": 0.0161,
      "velocity": 83,
      "chip": "ym2612"
    },
    {
      "channel": 3,
      "note": 74,
      "start": 12.0242,
      "duration": 0.0161,
      "velocity": 100,
      "chip": "ym2612"
    },
    {
      "channel": 2,
      "note": 78,
      "start": 12.0254,
      "duration": 0.0161,
      "velocity": 100,
      "chip": "ym2612"
    },
    {
      "channel": 4,
      "note": 62,
      "start": 12.0266,
      "duration": 0.0161,
      "velocity": 100,
      "chip": "ym2612"
    },
    {
      "channel": 0,
      "note": 45,
      "start": 12.0379,
      "duration": 0.0179,
      "velocity": 115,
      "chip": "ym2612"
    },
    {
      "channel": 5,
      "note": 74,
      "start": 12.0391,
      "duration": 0.0179,
      "velocity": 83,
      "chip": "ym2612"
    },
    {
      "channel": 3,
      "note": 74,
      "start": 12.0403,
      "duration": 0.0179,
      "velocity": 100,
      "chip": "ym2612"
    },
    {
      "channel": 2,
      "note": 78,
      "start": 12.0415,
      "duration": 0.0179,
      "velocity": 100,
      "chip": "ym2612"
    },
    {
      "channel": 4,
      "note": 62,
      "start": 12.0427,
      "duration": 0.0186,
      "velocity": 100,
      "chip": "ym2612"
    },
    {
      "channel": 0,
      "note": 36,
      "start": 12.0559,
      "duration": 0.0143,
      "velocity": 115,
      "chip": "ym2612"
    },
    {
      "channel": 5,
      "note": 74,
      "start": 12.0571,
      "duration": 0.0143,
      "velocity": 83,
      "chip": "ym2612"
    },
    {
      "channel": 3,
      "note": 74,
      "start": 12.0582,
      "duration": 0.0144,
      "velocity": 100,
      "chip": "ym2612"
    },
    {
      "channel": 2,
      "note": 78,
      "start": 12.0594,
      "duration": 0.0143,
      "velocity": 100,
      "chip": "ym2612"
    },
    {
      "channel": 4,
      "note": 57,
      "start": 12.0614,
      "duration": 0.0135,
      "velocity": 100,
      "chip": "ym2612"
    },
    {
      "channel": 1,
      "note": 69,
      "start": 12.063,
      "duration": 0.0132,
      "velocity": 83,
      "chip": "ym2612"
    },
    {
      "channel": 0,
      "note": 36,
      "start": 12.0702,
      "duration": 0.0161,
      "velocity": 115,
      "chip": "ym2612"
    },
    {
      "channel": 5,
      "note": 74,
      "start": 12.0714,
      "duration": 0.0161,
      "velocity": 83,
      "chip": "ym2612"
    },
    {
      "channel": 3,
      "note": 74,
      "start": 12.0726,
      "duration": 0.016,
      "velocity": 100,
      "chip": "ym2612"
    },
    {
      "channel": 2,
      "note": 78,
      "start": 12.0737,
      "duration": 0.016,
      "velocity": 100,
      "chip": "ym2612"
    },
    {
      "channel": 4,
      "note": 57,
      "start": 12.0749,
      "duration": 0.016,
      "velocity": 100,
      "chip": "ym2612"
    },
    {
      "channel": 1,
      "note": 69,
      "start": 12.0762,
      "duration": 0.0159,
      "velocity": 83,
      "chip": "ym2612"
    },
    {
      "channel": 0,
      "note": 37,
      "start": 12.0863,
      "duration": 0.0161,
      "velocity": 115,
      "chip": "ym2612"
    },
    {
      "channel": 3,
      "note": 74,
      "start": 12.0886,
      "duration": 0.0161,
      "velocity": 100,
      "chip": "ym2612"
    },
    {
      "channel": 2,
      "note": 78,
      "start": 12.0898,
      "duration": 0.0161,
      "velocity": 100,
      "chip": "ym2612"
    },
    {
      "channel": 4,
      "note": 57,
      "start": 12.0909,
      "duration": 0.0161,
      "velocity": 100,
      "chip": "ym2612"
    },
    {
      "channel": 1,
      "note": 69,
      "start": 12.0921,
      "duration": 0.016,
      "velocity": 83,
      "chip": "ym2612"
    },
    {
      "channel": 0,
      "note": 37,
      "start": 12.1024,
      "duration": 0.0161,
      "velocity": 115,
      "chip": "ym2612"
    },
    {
      "channel": 3,
      "note": 74,
      "start": 12.1047,
      "duration": 0.0164,
      "velocity": 100,
      "chip": "ym2612"
    },
    {
      "channel": 2,
      "note": 78,
      "start": 12.1059,
      "duration": 0.0164,
      "velocity": 100,
      "chip": "ym2612"
    },
    {
      "channel": 4,
      "note": 57,
      "start": 12.107,
      "duration": 0.0165,
      "velocity": 100,
      "chip": "ym2612"
    },
    {
      "channel": 1,
      "note": 69,
      "start": 12.1082,
      "duration": 0.0165,
      "velocity": 83,
      "chip": "ym2612"
    },
    {
      "channel": 0,
      "note": 38,
      "start": 12.1185,
      "duration": 0.0161,
      "velocity": 115,
      "chip": "ym2612"
    },
    {
      "channel": 5,
      "note": 69,
      "start": 12.12,
      "duration": 0.0158,
      "velocity": 83,
      "chip": "ym2612"
    },
    {
      "channel": 3,
      "note": 74,
      "start": 12.1211,
      "duration": 0.0159,
      "velocity": 100,
      "chip": "ym2612"
    },
    {
      "channel": 2,
      "note": 78,
      "start": 12.1223,
      "duration": 0.0158,
      "velocity": 100,
      "chip": "ym2612"
    },
    {
      "channel": 4,
      "note": 57,
      "start": 12.1235,
      "duration": 0.0158,
      "velocity": 100,
      "chip": "ym2612"
    },
    {
      "channel": 1,
      "note": 69,
      "start": 12.1246,
      "duration": 0.0159,
      "velocity": 83,
      "chip": "ym2612"
    },
    {
      "channel": 0,
      "note": 38,
      "start": 12.1346,
      "duration": 0.0161,
      "velocity": 115,
      "chip": "ym2612"
    },
    {
      "channel": 5,
      "note": 69,
      "start": 12.1358,
      "duration": 0.016,
      "velocity": 83,
      "chip": "ym2612"
    },
    {
      "channel": 3,
      "note": 74,
      "start": 12.137,
      "duration": 0.016,
      "velocity": 100,
      "chip": "ym2612"
    },
    {
      "channel": 2,
      "note": 78,
      "start": 12.1381,
      "duration": 0.016,
      "velocity": 100,
      "chip": "ym2612"
    },
    {
      "channel": 4,
      "note": 57,
      "start": 12.1393,
      "duration": 0.0161,
      "velocity": 100,
      "chip": "ym2612"
    },
    {
      "channel": 0,
      "note": 39,
      "start": 12.1507,
      "duration": 0.0179,
      "velocity": 124,
      "chip": "ym2612"
    },
    {
      "channel": 5,
      "note": 69,
      "start": 12.1519,
      "duration": 0.0179,
      "velocity": 83,
      "chip": "ym2612"
    },
    {
      "channel": 4,
      "note": 57,
      "start": 12.1554,
      "duration": 0.0186,
      "velocity": 100,
      "chip": "ym2612"
    },
    {
      "channel": 0,
      "note": 84,
      "start": 12.1686,
      "duration": 0.0143,
      "velocity": 124,
      "chip": "ym2612"
    },
    {
      "channel": 5,
      "note": 69,
      "start": 12.1698,
      "duration": 0.0143,
      "velocity": 83,
      "chip": "ym2612"
    },
    {
      "channel": 3,
      "note": 74,
      "start": 12.1713,
      "duration": 0.014,
      "velocity": 100,
      "chip": "ym2612"
    },
    {
      "channel": 2,
      "note": 78,
      "start": 12.1728,
      "duration": 0.0138,
      "velocity": 100,
      "chip": "ym2612"
    },
    {
      "channel": 4,
      "note": 57,
      "start": 12.1739,
      "duration": 0.0138,
      "velocity": 100,
      "chip": "ym2612"
    },
    {
      "channel": 1,
      "note": 71,
      "start": 12.1755,
      "duration": 0.0135,
      "velocity": 83,
      "chip": "ym2612"
    },
    {
      "channel": 0,
      "note": 82,
      "start": 12.1829,
      "duration": 0.016,
      "velocity": 124,
      "chip": "ym2612"
    },
    {
      "channel": 5,
      "note": 69,
      "start": 12.1841,
      "duration": 0.016,
      "velocity": 83,
      "chip": "ym2612"
    },
    {
      "channel": 3,
      "note": 74,
      "start": 12.1853,
      "duration": 0.016,
      "velocity": 100,
      "chip": "ym2612"
    },
    {
      "channel": 2,
      "note": 78,
      "start": 12.1866,
      "duration": 0.0159,
      "velocity": 100,
      "chip": "ym2612"
    },
    {
      "channel": 4,
      "note": 57,
      "start": 12.1877,
      "duration": 0.0159,
      "velocity": 100,
      "chip": "ym2612"
    },
    {
      "channel": 1,
      "note": 71,
      "start": 12.189,
      "duration": 0.0158,
      "velocity": 83,
      "chip": "ym2612"
    },
    {
      "channel": 0,
      "note": 80,
      "start": 12.1989,
      "duration": 0.0161,
      "velocity": 124,
      "chip": "ym2612"
    },
    {
      "channel": 3,
      "note": 74,
      "start": 12.2014,
      "duration": 0.0161,
      "velocity": 100,
      "chip": "ym2612"
    },
    {
      "channel": 2,
      "note": 78,
      "start": 12.2025,
      "duration": 0.0161,
      "velocity": 100,
      "chip": "ym2612"
    },
    {
      "channel": 4,
      "note": 57,
      "start": 12.2037,
      "duration": 0.0161,
      "velocity": 100,
      "chip": "ym2612"
    },
    {
      "channel": 1,
      "note": 71,
      "start": 12.2048,
      "duration": 0.0162,
      "velocity": 83,
      "chip": "ym2612"
    },
    {
      "channel": 0,
      "note": 77,
      "start": 12.215,
      "duration": 0.0161,
      "velocity": 124,
      "chip": "ym2612"
    },
    {
      "channel": 3,
      "note": 74,
      "start": 12.2174,
      "duration": 0.0163,
      "velocity": 100,
      "chip": "ym2612"
    },
    {
      "channel": 2,
      "note": 78,
      "start": 12.2186,
      "duration": 0.0163,
      "velocity": 100,
      "chip": "ym2612"
    },
    {
      "channel": 4,
      "note": 57,
      "start": 12.2197,
      "duration": 0.0164,
      "velocity": 100,
      "chip": "ym2612"
    },
    {
      "channel": 1,
      "note": 71,
      "start": 12.221,
      "duration": 0.0163,
      "velocity": 83,
      "chip": "ym2612"
    },
    {
      "channel": 0,
      "note": 75,
      "start": 12.2312,
      "duration": 0.0161,
      "velocity": 124,
      "chip": "ym2612"
    },
    {
      "channel": 5,
      "note": 71,
      "start": 12.2327,
      "duration": 0.0159,
      "velocity": 83,
      "chip": "ym2612"
    },
    {
      "channel": 3,
      "note": 74,
      "start": 12.2338,
      "duration": 0.0159,
      "velocity": 100,
      "chip": "ym2612"
    },
    {
      "channel": 2,
      "note": 78,
      "start": 12.2349,
      "duration": 0.0159,
      "velocity": 100,
      "chip": "ym2612"
    },
    {
      "channel": 4,
      "note": 57,
      "start": 12.2361,
      "duration": 0.0159,
      "velocity": 100,
      "chip": "ym2612"
    },
    {
      "channel": 1,
      "note": 71,
      "start": 12.2373,
      "duration": 0.0159,
      "velocity": 83,
      "chip": "ym2612"
    },
    {
      "channel": 0,
      "note": 72,
      "start": 12.2473,
      "duration": 0.0161,
      "velocity": 124,
      "chip": "ym2612"
    },
    {
      "channel": 5,
      "note": 71,
      "start": 12.2485,
      "duration": 0.016,
      "velocity": 83,
      "chip": "ym2612"
    },
    {
      "channel": 3,
      "note": 74,
      "start": 12.2497,
      "duration": 0.0161,
      "velocity": 100,
      "chip": "ym2612"
    },
    {
      "channel": 2,
      "note": 78,
      "start": 12.2508,
      "duration": 0.0161,
      "velocity": 100,
      "chip": "ym2612"
    },
    {
      "channel": 4,
      "note": 57,
      "start": 12.252,
      "duration": 0.0161,
      "velocity": 100,
      "chip": "ym2612"
    },
    {
      "channel": 0,
      "note": 70,
      "start": 12.2634,
      "duration": 0.0161,
      "velocity": 124,
      "chip": "ym2612"
    },
    {
      "channel": 5,
      "note": 71,
      "start": 12.2646,
      "duration": 0.0162,
      "velocity": 83,
      "chip": "ym2612"
    },
    {
      "channel": 3,
      "note": 74,
      "start": 12.2658,
      "duration": 0.0161,
      "velocity": 100,
      "chip": "ym2612"
    },
    {
      "channel": 2,
      "note": 78,
      "start": 12.2669,
      "duration": 0.0162,
      "velocity": 100,
      "chip": "ym2612"
    },
    {
      "channel": 4,
      "note": 57,
      "start": 12.2681,
      "duration": 0.0162,
      "velocity": 100,
      "chip": "ym2612"
    },
    {
      "channel": 0,
      "note": 68,
      "start": 12.2795,
      "duration": 0.0164,
      "velocity": 124,
      "chip": "ym2612"
    },
    {
      "channel": 5,
      "note": 71,
      "start": 12.2807,
      "duration": 0.0164,
      "velocity": 83,
      "chip": "ym2612"
    },
    {
      "channel": 3,
      "note": 74,
      "start": 12.2819,
      "duration": 0.0164,
      "velocity": 100,
      "chip": "ym2612"
    },
    {
      "channel": 2,
      "note": 78,
      "start": 12.2831,
      "duration": 0.0163,
      "velocity": 100,
      "chip": "ym2612"
    },
    {
      "channel": 4,
      "note": 57,
      "start": 12.2842,
      "duration": 0.0163,
      "velocity": 100,
      "chip": "ym2612"
    },
    {
      "channel": 1,
      "note": 69,
      "start": 12.2857,
      "duration": 0.0161,
      "velocity": 83,
      "chip": "ym2612"
    },
    {
      "channel": 0,
      "note": 65,
      "start": 12.2959,
      "duration": 0.0163,
      "velocity": 124,
      "chip": "ym2612"
    },
    {
      "channel": 5,
      "note": 71,
      "start": 12.2971,
      "duration": 0.0163,
      "velocity": 83,
      "chip": "ym2612"
    },
    {
      "channel": 3,
      "note": 74,
      "start": 12.2983,
      "duration": 0.0163,
      "velocity": 100,
      "chip": "ym2612"
    },
    {
      "channel": 2,
      "note": 78,
      "start": 12.2994,
      "duration": 0.0163,
      "velocity": 100,
      "chip": "ym2612"
    },
    {
      "channel": 4,
      "note": 57,
      "start": 12.3006,
      "duration": 0.0163,
      "velocity": 100,
      "chip": "ym2612"
    },
    {
      "channel": 1,
      "note": 69,
      "start": 12.3019,
      "duration": 0.0162,
      "velocity": 83,
      "chip": "ym2612"
    },
    {
      "channel": 0,
      "note": 63,
      "start": 12.3122,
      "duration": 0.015,
      "velocity": 1,
      "chip": "ym2612"
    },
    {
      "channel": 3,
      "note": 74,
      "start": 12.3146,
      "duration": 0.0153,
      "velocity": 100,
      "chip": "ym2612"
    },
    {
      "channel": 2,
      "note": 78,
      "start": 12.3158,
      "duration": 0.0153,
      "velocity": 100,
      "chip": "ym2612"
    },
    {
      "channel": 4,
      "note": 57,
      "start": 12.3169,
      "duration": 0.0153,
      "velocity": 100,
      "chip": "ym2612"
    },
    {
      "channel": 1,
      "note": 69,
      "start": 12.3181,
      "duration": 0.0154,
      "velocity": 83,
      "chip": "ym2612"
    },
    {
      "channel": 3,
      "note": 74,
      "start": 12.3299,
      "duration": 0.0155,
      "velocity": 100,
      "chip": "ym2612"
    },
    {
      "channel": 2,
      "note": 78,
      "start": 12.3311,
      "duration": 0.0155,
      "velocity": 100,
      "chip": "ym2612"
    },
    {
      "channel": 4,
      "note": 57,
      "start": 12.3322,
      "duration": 0.0156,
      "velocity": 100,
      "chip": "ym2612"
    },
    {
      "channel": 1,
      "note": 69,
      "start": 12.3334,
      "duration": 0.0156,
      "velocity": 83,
      "chip": "ym2612"
    },
    {
      "channel": 5,
      "note": 69,
      "start": 12.3442,
      "duration": 0.0154,
      "velocity": 83,
      "chip": "ym2612"
    },
    {
      "channel": 3,
      "note": 74,
      "start": 12.3454,
      "duration": 0.0158,
      "velocity": 100,
      "chip": "ym2612"
    },
    {
      "channel": 2,
      "note": 78,
      "start": 12.3466,
      "duration": 0.0159,
      "velocity": 100,
      "chip": "ym2612"
    },
    {
      "channel": 4,
      "note": 57,
      "start": 12.3478,
      "duration": 0.0158,
      "velocity": 100,
      "chip": "ym2612"
    },
    {
      "channel": 1,
      "note": 69,
      "start": 12.349,
      "duration": 0.0158,
      "velocity": 83,
      "chip": "ym2612"
    },
    {
      "channel": 5,
      "note": 69,
      "start": 12.3596,
      "duration": 0.016,
      "velocity": 83,
      "chip": "ym2612"
    },
    {
      "channel": 3,
      "note": 74,
      "start": 12.3612,
      "duration": 0.0157,
      "velocity": 100,
      "chip": "ym2612"
    },
    {
      "channel": 2,
      "note": 78,
      "start": 12.3624,
      "duration": 0.0161,
      "velocity": 100,
      "chip": "ym2612"
    },
    {
      "channel": 4,
      "note": 57,
      "start": 12.3636,
      "duration": 0.0161,
      "velocity": 100,
      "chip": "ym2612"
    },
    {
      "channel": 5,
      "note": 69,
      "start": 12.3756,
      "duration": 0.0161,
      "velocity": 83,
      "chip": "ym2612"
    },
    {
      "channel": 4,
      "note": 57,
      "start": 12.3797,
      "duration": 0.0171,
      "velocity": 100,
      "chip": "ym2612"
    },
    {
      "channel": 5,
      "note": 69,
      "start": 12.3917,
      "duration": 0.0161,
      "velocity": 83,
      "chip": "ym2612"
    },
    {
      "channel": 3,
      "note": 74,
      "start": 12.3932,
      "duration": 0.0158,
      "velocity": 100,
      "chip": "ym2612"
    },
    {
      "channel": 2,
      "note": 78,
      "start": 12.3954,
      "duration": 0.0151,
      "velocity": 100,
      "chip": "ym2612"
    },
    {
      "channel": 4,
      "note": 62,
      "start": 12.3968,
      "duration": 0.0152,
      "velocity": 100,
      "chip": "ym2612"
    },
    {
      "channel": 1,
      "note": 71,
      "start": 12.3984,
      "duration": 0.0149,
      "velocity": 83,
      "chip": "ym2612"
    },
    {
      "channel": 5,
      "note": 69,
      "start": 12.4078,
      "duration": 0.0161,
      "velocity": 83,
      "chip": "ym2612"
    },
    {
      "channel": 3,
      "note": 74,
      "start": 12.409,
      "duration": 0.0161,
      "velocity": 100,
      "chip": "ym2612"
    },
    {
      "channel": 2,
      "note": 78,
      "start": 12.4105,
      "duration": 0.0158,
      "velocity": 100,
      "chip": "ym2612"
    },
    {
      "channel": 4,
      "note": 62,
      "start": 12.412,
      "duration": 0.0158,
      "velocity": 100,
      "chip": "ym2612"
    },
    {
      "channel": 1,
      "note": 71,
      "start": 12.4133,
      "duration": 0.0159,
      "velocity": 83,
      "chip": "ym2612"
    },
    {
      "channel": 3,
      "note": 74,
      "start": 12.4251,
      "duration": 0.0161,
      "velocity": 100,
      "chip": "ym2612"
    },
    {
      "channel": 2,
      "note": 78,
      "start": 12.4262,
      "duration": 0.0161,
      "velocity": 100,
      "chip": "ym2612"
    },
    {
      "channel": 4,
      "note": 62,
      "start": 12.4279,
      "duration": 0.0158,
      "velocity": 100,
      "chip": "ym2612"
    },
    {
      "channel": 1,
      "note": 71,
      "start": 12.4292,
      "duration": 0.0161,
      "velocity": 83,
      "chip": "ym2612"
    },
    {
      "channel": 3,
      "note": 74,
      "start": 12.4412,
      "duration": 0.0163,
      "velocity": 100,
      "chip": "ym2612"
    },
    {
      "channel": 2,
      "note": 78,
      "start": 12.4423,
      "duration": 0.0164,
      "velocity": 100,
      "chip": "ym2612"
    },
    {
      "channel": 4,
      "note": 62,
      "start": 12.4437,
      "duration": 0.0162,
      "velocity": 100,
      "chip": "ym2612"
    },
    {
      "channel": 1,
      "note": 71,
      "start": 12.4452,
      "duration": 0.0164,
      "velocity": 83,
      "chip": "ym2612"
    },
    {
      "channel": 5,
      "note": 71,
      "start": 12.4564,
      "duration": 0.0159,
      "velocity": 83,
      "chip": "ym2612"
    },
    {
      "channel": 3,
      "note": 74,
      "start": 12.4575,
      "duration": 0.0159,
      "velocity": 100,
      "chip": "ym2612"
    },
    {
      "channel": 2,
      "note": 78,
      "start": 12.4587,
      "duration": 0.0159,
      "velocity": 100,
      "chip": "ym2612"
    },
    {
      "channel": 4,
      "note": 62,
      "start": 12.4599,
      "duration": 0.0158,
      "velocity": 100,
      "chip": "ym2612"
    },
    {
      "channel": 1,
      "note": 71,
      "start": 12.4617,
      "duration": 0.0155,
      "velocity": 83,
      "chip": "ym2612"
    },
    {
      "channel": 5,
      "note": 71,
      "start": 12.4723,
      "duration": 0.016,
      "velocity": 83,
      "chip": "ym2612"
    },
    {
      "channel": 3,
      "note": 74,
      "start": 12.4734,
      "duration": 0.016,
      "velocity": 100,
      "chip": "ym2612"
    },
    {
      "channel": 2,
      "note": 78,
      "start": 12.4746,
      "duration": 0.016,
      "velocity": 100,
      "chip": "ym2612"
    },
    {
      "channel": 4,
      "note": 62,
      "start": 12.4757,
      "duration": 0.016,
      "velocity": 100,
      "chip": "ym2612"
    },
    {
      "channel": 5,
      "note": 71,
      "start": 12.4883,
      "duration": 0.0161,
      "velocity": 83,
      "chip": "ym2612"
    },
    {
      "channel": 3,
      "note": 74,
      "start": 12.4895,
      "duration": 0.0161,
      "velocity": 100,
      "chip": "ym2612"
    },
    {
      "channel": 2,
      "note": 78,
      "start": 12.4906,
      "duration": 0.0161,
      "velocity": 100,
      "chip": "ym2612"
    },
    {
      "channel": 4,
      "note": 62,
      "start": 12.4917,
      "duration": 0.0161,
      "velocity": 100,
      "chip": "ym2612"
    },
    {
      "channel": 5,
      "note": 71,
      "start": 12.5044,
      "duration": 0.0161,
      "velocity": 83,
      "chip": "ym2612"
    },
    {
      "channel": 3,
      "note": 74,
      "start": 12.5056,
      "duration": 0.0161,
      "velocity": 100,
      "chip": "ym2612"
    },
    {
      "channel": 2,
      "note": 78,
      "start": 12.5067,
      "duration": 0.0161,
      "velocity": 100,
      "chip": "ym2612"
    },
    {
      "channel": 4,
      "note": 62,
      "start": 12.5078,
      "duration": 0.0161,
      "velocity": 100,
      "chip": "ym2612"
    },
    {
      "channel": 1,
      "note": 74,
      "start": 12.5093,
      "duration": 0.0159,
      "velocity": 83,
      "chip": "ym2612"
    },
    {
      "channel": 5,
      "note": 71,
      "start": 12.5205,
      "duration": 0.0161,
      "velocity": 83,
      "chip": "ym2612"
    },
    {
      "channel": 3,
      "note": 74,
      "start": 12.5217,
      "duration": 0.0161,
      "velocity": 100,
      "chip": "ym2612"
    },
    {
      "channel": 2,
      "note": 78,
      "start": 12.5228,
      "duration": 0.0162,
      "velocity": 100,
      "chip": "ym2612"
    },
    {
      "channel": 4,
      "note": 62,
      "start": 12.5239,
      "duration": 0.0161,
      "velocity": 100,
      "chip": "ym2612"
    },
    {
      "channel": 1,
      "note": 74,
      "start": 12.5252,
      "duration": 0.016,
      "velocity": 83,
      "chip": "ym2612"
    },
    {
      "channel": 3,
      "note": 74,
      "start": 12.5377,
      "duration": 0.0162,
      "velocity": 100,
      "chip": "ym2612"
    },
    {
      "channel": 2,
      "note": 78,
      "start": 12.539,
      "duration": 0.0161,
      "velocity": 100,
      "chip": "ym2612"
    },
    {
      "channel": 4,
      "note": 62,
      "start": 12.5401,
      "duration": 0.0161,
      "velocity": 100,
      "chip": "ym2612"
    },
    {
      "channel": 1,
      "note": 74,
      "start": 12.5412,
      "duration": 0.0161,
      "velocity": 83,
      "chip": "ym2612"
    },
    {
      "channel": 3,
      "note": 74,
      "start": 12.5539,
      "duration": 0.0163,
      "velocity": 100,
      "chip": "ym2612"
    },
    {
      "channel": 2,
      "note": 78,
      "start": 12.555,
      "duration": 0.0163,
      "velocity": 100,
      "chip": "ym2612"
    },
    {
      "channel": 4,
      "note": 62,
      "start": 12.5562,
      "duration": 0.0163,
      "velocity": 100,
      "chip": "ym2612"
    },
    {
      "channel": 1,
      "note": 74,
      "start": 12.5573,
      "duration": 0.0164,
      "velocity": 83,
      "chip": "ym2612"
    },
    {
      "channel": 5,
      "note": 74,
      "start": 12.5691,
      "duration": 0.0159,
      "velocity": 83,
      "chip": "ym2612"
    },
    {
      "channel": 3,
      "note": 74,
      "start": 12.5702,
      "duration": 0.0159,
      "velocity": 100,
      "chip": "ym2612"
    },
    {
      "channel": 2,
      "note": 78,
      "start": 12.5714,
      "duration": 0.0159,
      "velocity": 100,
      "chip": "ym2612"
    },
    {
      "channel": 4,
      "note": 62,
      "start": 12.5725,
      "duration": 0.0159,
      "velocity": 100,
      "chip": "ym2612"
    },
    {
      "channel": 1,
      "note": 74,
      "start": 12.5737,
      "duration": 0.0159,
      "velocity": 83,
      "chip": "ym2612"
    },
    {
      "channel": 5,
      "note": 74,
      "start": 12.5849,
      "duration": 0.016,
      "velocity": 83,
      "chip": "ym2612"
    },
    {
      "channel": 3,
      "note": 74,
      "start": 12.5861,
      "duration": 0.016,
      "velocity": 100,
      "chip": "ym2612"
    },
    {
      "channel": 2,
      "note": 78,
      "start": 12.5873,
      "duration": 0.016,
      "velocity": 100,
      "chip": "ym2612"
    },
    {
      "channel": 4,
      "note": 62,
      "start": 12.5884,
      "duration": 0.016,
      "velocity": 100,
      "chip": "ym2612"
    },
    {
      "channel": 5,
      "note": 74,
      "start": 12.601,
      "duration": 0.0197,
      "velocity": 83,
      "chip": "ym2612"
    },
    {
      "channel": 4,
      "note": 62,
      "start": 12.6045,
      "duration": 0.0206,
      "velocity": 100,
      "chip": "ym2612"
    },
    {
      "channel": 0,
      "note": 36,
      "start": 12.6194,
      "duration": 0.0143,
      "velocity": 115,
      "chip": "ym2612"
    },
    {
      "channel": 5,
      "note": 74,
      "start": 12.6206,
      "duration": 0.0143,
      "velocity": 83,
      "chip": "ym2612"
    },
    {
      "channel": 3,
      "note": 74,
      "start": 12.6222,
      "duration": 0.014,
      "velocity": 100,
      "chip": "ym2612"
    },
    {
      "channel": 2,
      "note": 78,
      "start": 12.6236,
      "duration": 0.0138,
      "velocity": 100,
      "chip": "ym2612"
    },
    {
      "channel": 4,
      "note": 59,
      "start": 12.6251,
      "duration": 0.0135,
      "velocity": 100,
      "chip": "ym2612"
    },
    {
      "channel": 1,
      "note": 76,
      "start": 12.6269,
      "duration": 0.013,
      "velocity": 83,
      "chip": "ym2612"
    },
    {
      "channel": 0,
      "note": 36,
      "start": 12.6337,
      "duration": 0.016,
      "velocity": 115,
      "chip": "ym2612"
    },
    {
      "channel": 5,
      "note": 74,
      "start": 12.6349,
      "duration": 0.016,
      "velocity": 83,
      "chip": "ym2612"
    },
    {
      "channel": 3,
      "note": 74,
      "start": 12.6361,
      "duration": 0.016,
      "velocity": 100,
      "chip": "ym2612"
    },
    {
      "channel": 2,
      "note": 78,
      "start": 12.6374,
      "duration": 0.0159,
      "velocity": 100,
      "chip": "ym2612"
    },
    {
      "channel": 4,
      "note": 59,
      "start": 12.6386,
      "duration": 0.0158,
      "velocity": 100,
      "chip": "ym2612"
    },
    {
      "channel": 1,
      "note": 76,
      "start": 12.6399,
      "duration": 0.0157,
      "velocity": 83,
      "chip": "ym2612"
    },
    {
      "channel": 0,
      "note": 37,
      "start": 12.6498,
      "duration": 0.0161,
      "velocity": 115,
      "chip": "ym2612"
    },
    {
      "channel": 3,
      "note": 74,
      "start": 12.6522,
      "duration": 0.0161,
      "velocity": 100,
      "chip": "ym2612"
    },
    {
      "channel": 2,
      "note": 78,
      "start": 12.6533,
      "duration": 0.0161,
      "velocity": 100,
      "chip": "ym2612"
    },
    {
      "channel": 4,
      "note": 59,
      "start": 12.6545,
      "duration": 0.0161,
      "velocity": 100,
      "chip": "ym2612"
    },
    {
      "channel": 1,
      "note": 76,
      "start": 12.6556,
      "duration": 0.0161,
      "velocity": 83,
      "chip": "ym2612"
    },
    {
      "channel": 0,
      "note": 37,
      "start": 12.6659,
      "duration": 0.0162,
      "velocity": 115,
      "chip": "ym2612"
    },
    {
      "channel": 3,
      "note": 74,
      "start": 12.6683,
      "duration": 0.0164,
      "velocity": 100,
      "chip": "ym2612"
    },
    {
      "channel": 2,
      "note": 78,
      "start": 12.6694,
      "duration": 0.0164,
      "velocity": 100,
      "chip": "ym2612"
    },
    {
      "channel": 4,
      "note": 59,
      "start": 12.6706,
      "duration": 0.0164,
      "velocity": 100,
      "chip": "ym2612"
    },
    {
      "channel": 1,
      "note": 76,
      "start": 12.6718,
      "duration": 0.0164,
      "velocity": 83,
      "chip": "ym2612"
    },
    {
      "channel": 0,
      "note": 38,
      "start": 12.682,
      "duration": 0.0161,
      "velocity": 115,
      "chip": "ym2612"
    },
    {
      "channel": 5,
      "note": 76,
      "start": 12.6835,
      "duration": 0.0158,
      "velocity": 83,
      "chip": "ym2612"
    },
    {
      "channel": 3,
      "note": 74,
      "start": 12.6847,
      "duration": 0.0158,
      "velocity": 100,
      "chip": "ym2612"
    },
    {
      "channel": 2,
      "note": 78,
      "start": 12.6858,
      "duration": 0.0159,
      "velocity": 100,
      "chip": "ym2612"
    },
    {
      "channel": 4,
      "note": 59,
      "start": 12.687,
      "duration": 0.0158,
      "velocity": 100,
      "chip": "ym2612"
    },
    {
      "channel": 1,
      "note": 76,
      "start": 12.6882,
      "duration": 0.0158,
      "velocity": 83,
      "chip": "ym2612"
    },
    {
      "channel": 0,
      "note": 38,
      "start": 12.6981,
      "duration": 0.0161,
      "velocity": 115,
      "chip": "ym2612"
    },
    {
      "channel": 5,
      "note": 76,
      "start": 12.6993,
      "duration": 0.016,
      "velocity": 83,
      "chip": "ym2612"
    },
    {
      "channel": 3,
      "note": 74,
      "start": 12.7005,
      "duration": 0.016,
      "velocity": 100,
      "chip": "ym2612"
    },
    {
      "channel": 2,
      "note": 78,
      "start": 12.7017,
      "duration": 0.016,
      "velocity": 100,
      "chip": "ym2612"
    },
    {
      "channel": 4,
      "note": 59,
      "start": 12.7028,
      "duration": 0.016,
      "velocity": 100,
      "chip": "ym2612"
    },
    {
      "channel": 1,
      "note": 76,
      "start": 12.704,
      "duration": 0.0161,
      "velocity": 83,
      "chip": "ym2612"
    },
    {
      "channel": 0,
      "note": 39,
      "start": 12.7142,
      "duration": 0.0161,
      "velocity": 115,
      "chip": "ym2612"
    },
    {
      "channel": 5,
      "note": 76,
      "start": 12.7154,
      "duration": 0.0161,
      "velocity": 83,
      "chip": "ym2612"
    },
    {
      "channel": 3,
      "note": 74,
      "start": 12.7166,
      "duration": 0.0161,
      "velocity": 100,
      "chip": "ym2612"
    },
    {
      "channel": 2,
      "note": 78,
      "start": 12.7177,
      "duration": 0.0161,
      "velocity": 100,
      "chip": "ym2612"
    },
    {
      "channel": 4,
      "note": 59,
      "start": 12.7188,
      "duration": 0.0161,
      "velocity": 100,
      "chip": "ym2612"
    },
    {
      "channel": 1,
      "note": 76,
      "start": 12.72,
      "duration": 0.0161,
      "velocity": 83,
      "chip": "ym2612"
    },
    {
      "channel": 0,
      "note": 39,
      "start": 12.7303,
      "duration": 0.0162,
      "velocity": 115,
      "chip": "ym2612"
    },
    {
      "channel": 5,
      "note": 76,
      "start": 12.7315,
      "duration": 0.0162,
      "velocity": 83,
      "chip": "ym2612"
    },
    {
      "channel": 3,
      "note": 74,
      "start": 12.7327,
      "duration": 0.0161,
      "velocity": 100,
      "chip": "ym2612"
    },
    {
      "channel": 2,
      "note": 78,
      "start": 12.7338,
      "duration": 0.0162,
      "velocity": 100,
      "chip": "ym2612"
    },
    {
      "channel": 4,
      "note": 59,
      "start": 12.7349,
      "duration": 0.0161,
      "velocity": 100,
      "chip": "ym2612"
    },
    {
      "channel": 1,
      "note": 76,
      "start": 12.7361,
      "duration": 0.0162,
      "velocity": 83,
      "chip": "ym2612"
    },
    {
      "channel": 0,
      "note": 40,
      "start": 12.7465,
      "duration": 0.0164,
      "velocity": 115,
      "chip": "ym2612"
    },
    {
      "channel": 5,
      "note": 76,
      "start": 12.7477,
      "duration": 0.0164,
      "velocity": 83,
      "chip": "ym2612"
    },
    {
      "channel": 3,
      "note": 74,
      "start": 12.7488,
      "duration": 0.0164,
      "velocity": 100,
      "chip": "ym2612"
    },
    {
      "channel": 2,
      "note": 78,
      "start": 12.75,
      "duration": 0.0165,
      "velocity": 100,
      "chip": "ym2612"
    },
    {
      "channel": 4,
      "note": 59,
      "start": 12.7511,
      "duration": 0.0165,
      "velocity": 100,
      "chip": "ym2612"
    },
    {
      "channel": 1,
      "note": 76,
      "start": 12.7523,
      "duration": 0.0164,
      "velocity": 83,
      "chip": "ym2612"
    },
    {
      "channel": 0,
      "note": 40,
      "start": 12.7629,
      "duration": 0.0163,
      "velocity": 115,
      "chip": "ym2612"
    },
    {
      "channel": 5,
      "note": 76,
      "start": 12.7641,
      "duration": 0.0163,
      "velocity": 83,
      "chip": "ym2612"
    },
    {
      "channel": 3,
      "note": 74,
      "start": 12.7652,
      "duration": 0.0163,
      "velocity": 100,
      "chip": "ym2612"
    },
    {
      "channel": 2,
      "note": 78,
      "start": 12.7664,
      "duration": 0.0163,
      "velocity": 100,
      "chip": "ym2612"
    },
    {
      "channel": 4,
      "note": 59,
      "start": 12.7676,
      "duration": 0.0163,
      "velocity": 100,
      "chip": "ym2612"
    },
    {
      "channel": 1,
      "note": 76,
      "start": 12.7687,
      "duration": 0.0163,
      "velocity": 83,
      "chip": "ym2612"
    },
    {
      "channel": 0,
      "note": 40,
      "start": 12.7792,
      "duration": 0.0161,
      "velocity": 115,
      "chip": "ym2612"
    },
    {
      "channel": 5,
      "note": 76,
      "start": 12.7804,
      "duration": 0.016,
      "velocity": 83,
      "chip": "ym2612"
    },
    {
      "channel": 3,
      "note": 74,
      "start": 12.7816,
      "duration": 0.0161,
      "velocity": 100,
      "chip": "ym2612"
    },
    {
      "channel": 2,
      "note": 78,
      "start": 12.7827,
      "duration": 0.0161,
      "velocity": 100,
      "chip": "ym2612"
    },
    {
      "channel": 4,
      "note": 59,
      "start": 12.7839,
      "duration": 0.0161,
      "velocity": 100,
      "chip": "ym2612"
    },
    {
      "channel": 1,
      "note": 76,
      "start": 12.7851,
      "duration": 0.016,
      "velocity": 83,
      "chip": "ym2612"
    },
    {
      "channel": 0,
      "note": 41,
      "start": 12.7953,
      "duration": 0.0161,
      "velocity": 115,
      "chip": "ym2612"
    },
    {
      "channel": 5,
      "note": 76,
      "start": 12.7965,
      "duration": 0.0161,
      "velocity": 83,
      "chip": "ym2612"
    },
    {
      "channel": 3,
      "note": 74,
      "start": 12.7977,
      "duration": 0.0161,
      "velocity": 100,
      "chip": "ym2612"
    },
    {
      "channel": 2,
      "note": 78,
      "start": 12.7988,
      "duration": 0.0161,
      "velocity": 100,
      "chip": "ym2612"
    },
    {
      "channel": 4,
      "note": 59,
      "start": 12.8,
      "duration": 0.0161,
      "velocity": 100,
      "chip": "ym2612"
    },
    {
      "channel": 1,
      "note": 76,
      "start": 12.8011,
      "duration": 0.0162,
      "velocity": 83,
      "chip": "ym2612"
    },
    {
      "channel": 0,
      "note": 41,
      "start": 12.8114,
      "duration": 0.0157,
      "velocity": 115,
      "chip": "ym2612"
    },
    {
      "channel": 5,
      "note": 76,
      "start": 12.8125,
      "duration": 0.0162,
      "velocity": 83,
      "chip": "ym2612"
    },
    {
      "channel": 3,
      "note": 74,
      "start": 12.8138,
      "duration": 0.0161,
      "velocity": 100,
      "chip": "ym2612"
    },
    {
      "channel": 2,
      "note": 78,
      "start": 12.8149,
      "duration": 0.0161,
      "velocity": 100,
      "chip": "ym2612"
    },
    {
      "channel": 4,
      "note": 59,
      "start": 12.8161,
      "duration": 0.0161,
      "velocity": 100,
      "chip": "ym2612"
    },
    {
      "channel": 1,
      "note": 76,
      "start": 12.8173,
      "duration": 0.0161,
      "velocity": 83,
      "chip": "ym2612"
    },
    {
      "channel": 0,
      "note": 42,
      "start": 12.8271,
      "duration": 0.0159,
      "velocity": 115,
      "chip": "ym2612"
    },
    {
      "channel": 5,
      "note": 76,
      "start": 12.8287,
      "duration": 0.0161,
      "velocity": 83,
      "chip": "ym2612"
    },
    {
      "channel": 4,
      "note": 59,
      "start": 12.8322,
      "duration": 0.0169,
      "velocity": 100,
      "chip": "ym2612"
    },
    {
      "channel": 1,
      "note": 76,
      "start": 12.8334,
      "duration": 0.017,
      "velocity": 83,
      "chip": "ym2612"
    },
    {
      "channel": 0,
      "note": 42,
      "start": 12.843,
      "duration": 0.0161,
      "velocity": 115,
      "chip": "ym2612"
    },
    {
      "channel": 5,
      "note": 76,
      "start": 12.8448,
      "duration": 0.0157,
      "velocity": 83,
      "chip": "ym2612"
    },
    {
      "channel": 3,
      "note": 74,
      "start": 12.8464,
      "duration": 0.0157,
      "velocity": 100,
      "chip": "ym2612"
    },
    {
      "channel": 2,
      "note": 78,
      "start": 12.848,
      "duration": 0.0153,
      "velocity": 100,
      "chip": "ym2612"
    },
    {
      "channel": 4,
      "note": 59,
      "start": 12.8491,
      "duration": 0.0154,
      "velocity": 100,
      "chip": "ym2612"
    },
    {
      "channel": 1,
      "note": 76,
      "start": 12.8503,
      "duration": 0.0153,
      "velocity": 83,
      "chip": "ym2612"
    },
    {
      "channel": 0,
      "note": 43,
      "start": 12.8591,
      "duration": 0.0161,
      "velocity": 115,
      "chip": "ym2612"
    },
    {
      "channel": 5,
      "note": 76,
      "start": 12.8605,
      "duration": 0.0159,
      "velocity": 83,
      "chip": "ym2612"
    },
    {
      "channel": 3,
      "note": 74,
      "start": 12.8621,
      "duration": 0.016,
      "velocity": 100,
      "chip": "ym2612"
    },
    {
      "channel": 2,
      "note": 78,
      "start": 12.8633,
      "duration": 0.016,
      "velocity": 100,
      "chip": "ym2612"
    },
    {
      "channel": 4,
      "note": 59,
      "start": 12.8645,
      "duration": 0.016,
      "velocity": 100,
      "chip": "ym2612"
    },
    {
      "channel": 1,
      "note": 76,
      "start": 12.8656,
      "duration": 0.016,
      "velocity": 83,
      "chip": "ym2612"
    },
    {
      "channel": 0,
      "note": 43,
      "start": 12.8752,
      "duration": 0.0161,
      "velocity": 115,
      "chip": "ym2612"
    },
    {
      "channel": 5,
      "note": 76,
      "start": 12.8764,
      "duration": 0.0161,
      "velocity": 83,
      "chip": "ym2612"
    },
    {
      "channel": 3,
      "note": 74,
      "start": 12.8781,
      "duration": 0.016,
      "velocity": 100,
      "chip": "ym2612"
    },
    {
      "channel": 2,
      "note": 78,
      "start": 12.8793,
      "duration": 0.016,
      "velocity": 100,
      "chip": "ym2612"
    },
    {
      "channel": 4,
      "note": 59,
      "start": 12.8805,
      "duration": 0.0161,
      "velocity": 100,
      "chip": "ym2612"
    },
    {
      "channel": 1,
      "note": 76,
      "start": 12.8816,
      "duration": 0.0161,
      "velocity": 83,
      "chip": "ym2612"
    },
    {
      "channel": 0,
      "note": 44,
      "start": 12.8913,
      "duration": 0.0161,
      "velocity": 115,
      "chip": "ym2612"
    },
    {
      "channel": 5,
      "note": 76,
      "start": 12.8925,
      "duration": 0.0161,
      "velocity": 83,
      "chip": "ym2612"
    },
    {
      "channel": 3,
      "note": 74,
      "start": 12.8942,
      "duration": 0.0156,
      "velocity": 100,
      "chip": "ym2612"
    },
    {
      "channel": 2,
      "note": 78,
      "start": 12.8954,
      "duration": 0.0161,
      "velocity": 100,
      "chip": "ym2612"
    },
    {
      "channel": 4,
      "note": 59,
      "start": 12.8966,
      "duration": 0.0162,
      "velocity": 100,
      "chip": "ym2612"
    },
    {
      "channel": 1,
      "note": 76,
      "start": 12.8977,
      "duration": 0.0162,
      "velocity": 83,
      "chip": "ym2612"
    },
    {
      "channel": 0,
      "note": 44,
      "start": 12.9074,
      "duration": 0.0161,
      "velocity": 115,
      "chip": "ym2612"
    },
    {
      "channel": 5,
      "note": 76,
      "start": 12.9086,
      "duration": 0.0161,
      "velocity": 83,
      "chip": "ym2612"
    },
    {
      "channel": 3,
      "note": 74,
      "start": 12.9098,
      "duration": 0.0161,
      "velocity": 100,
      "chip": "ym2612"
    },
    {
      "channel": 2,
      "note": 78,
      "start": 12.9115,
      "duration": 0.016,
      "velocity": 100,
      "chip": "ym2612"
    },
    {
      "channel": 4,
      "note": 59,
      "start": 12.9127,
      "duration": 0.0161,
      "velocity": 100,
      "chip": "ym2612"
    },
    {
      "channel": 1,
      "note": 76,
      "start": 12.9139,
      "duration": 0.0161,
      "velocity": 83,
      "chip": "ym2612"
    },
    {
      "channel": 0,
      "note": 44,
      "start": 12.9235,
      "duration": 0.0161,
      "velocity": 115,
      "chip": "ym2612"
    },
    {
      "channel": 5,
      "note": 76,
      "start": 12.9247,
      "duration": 0.0161,
      "velocity": 83,
      "chip": "ym2612"
    },
    {
      "channel": 3,
      "note": 74,
      "start": 12.9259,
      "duration": 0.0161,
      "velocity": 100,
      "chip": "ym2612"
    },
    {
      "channel": 2,
      "note": 78,
      "start": 12.9276,
      "duration": 0.0156,
      "velocity": 100,
      "chip": "ym2612"
    },
    {
      "channel": 4,
      "note": 59,
      "start": 12.9288,
      "duration": 0.0161,
      "velocity": 100,
      "chip": "ym2612"
    },
    {
      "channel": 0,
      "note": 45,
      "start": 12.9396,
      "duration": 0.0179,
      "velocity": 115,
      "chip": "ym2612"
    },
    {
      "channel": 5,
      "note": 76,
      "start": 12.9408,
      "duration": 0.0179,
      "velocity": 83,
      "chip": "ym2612"
    },
    {
      "channel": 3,
      "note": 74,
      "start": 12.942,
      "duration": 0.0179,
      "velocity": 100,
      "chip": "ym2612"
    },
    {
      "channel": 2,
      "note": 78,
      "start": 12.9432,
      "duration": 0.0184,
      "velocity": 100,
      "chip": "ym2612"
    },
    {
      "channel": 4,
      "note": 59,
      "start": 12.9449,
      "duration": 0.0181,
      "velocity": 100,
      "chip": "ym2612"
    },
    {
      "channel": 0,
      "note": 36,
      "start": 12.9575,
      "duration": 0.0143,
      "velocity": 115,
      "chip": "ym2612"
    },
    {
      "channel": 5,
      "note": 76,
      "start": 12.9587,
      "duration": 0.0144,
      "velocity": 83,
      "chip": "ym2612"
    },
    {
      "channel": 3,
      "note": 74,
      "start": 12.9599,
      "duration": 0.0144,
      "velocity": 100,
      "chip": "ym2612"
    },
    {
      "channel": 2,
      "note": 78,
      "start": 12.9616,
      "duration": 0.0138,
      "velocity": 100,
      "chip": "ym2612"
    },
    {
      "channel": 4,
      "note": 54,
      "start": 12.9631,
      "duration": 0.0137,
      "velocity": 100,
      "chip": "ym2612"
    },
    {
      "channel": 1,
      "note": 78,
      "start": 12.9646,
      "duration": 0.0139,
      "velocity": 83,
      "chip": "ym2612"
    },
    {
      "channel": 0,
      "note": 36,
      "start": 12.9718,
      "duration": 0.0161,
      "velocity": 115,
      "chip": "ym2612"
    },
    {
      "channel": 5,
      "note": 76,
      "start": 12.9731,
      "duration": 0.016,
      "velocity": 83,
      "chip": "ym2612"
    },
    {
      "channel": 3,
      "note": 74,
      "start": 12.9743,
      "duration": 0.016,
      "velocity": 100,
      "chip": "ym2612"
    },
    {
      "channel": 2,
      "note": 78,
      "start": 12.9754,
      "duration": 0.016,
      "velocity": 100,
      "chip": "ym2612"
    },
    {
      "channel": 4,
      "note": 54,
      "start": 12.9769,
      "duration": 0.0157,
      "velocity": 100,
      "chip": "ym2612"
    },
    {
      "channel": 1,
      "note": 78,
      "start": 12.9785,
      "duration": 0.0158,
      "velocity": 83,
      "chip": "ym2612"
    },
    {
      "channel": 0,
      "note": 37,
      "start": 12.9879,
      "duration": 0.0161,
      "velocity": 115,
      "chip": "ym2612"
    },
    {
      "channel": 3,
      "note": 74,
      "start": 12.9903,
      "duration": 0.0161,
      "velocity": 100,
      "chip": "ym2612"
    },
    {
      "channel": 2,
      "note": 78,
      "start": 12.9914,
      "duration": 0.0161,
      "velocity": 100,
      "chip": "ym2612"
    },
    {
      "channel": 4,
      "note": 54,
      "start": 12.9926,
      "duration": 0.0161,
      "velocity": 100,
      "chip": "ym2612"
    },
    {
      "channel": 1,
      "note": 78,
      "start": 12.9943,
      "duration": 0.0156,
      "velocity": 83,
      "chip": "ym2612"
    },
    {
      "channel": 0,
      "note": 37,
      "start": 13.004,
      "duration": 0.0161,
      "velocity": 115,
      "chip": "ym2612"
    },
    {
      "channel": 3,
      "note": 74,
      "start": 13.0064,
      "duration": 0.0163,
      "velocity": 100,
      "chip": "ym2612"
    },
    {
      "channel": 2,
      "note": 78,
      "start": 13.0075,
      "duration": 0.0164,
      "velocity": 100,
      "chip": "ym2612"
    },
    {
      "channel": 4,
      "note": 54,
      "start": 13.0087,
      "duration": 0.0164,
      "velocity": 100,
      "chip": "ym2612"
    },
    {
      "channel": 1,
      "note": 78,
      "start": 13.0099,
      "duration": 0.0163,
      "velocity": 83,
      "chip": "ym2612"
    },
    {
      "channel": 0,
      "note": 38,
      "start": 13.0201,
      "duration": 0.0161,
      "velocity": 115,
      "chip": "ym2612"
    },
    {
      "channel": 5,
      "note": 78,
      "start": 13.0216,
      "duration": 0.0159,
      "velocity": 83,
      "chip": "ym2612"
    },
    {
      "channel": 3,
      "note": 74,
      "start": 13.0227,
      "duration": 0.0159,
      "velocity": 100,
      "chip": "ym2612"
    },
    {
      "channel": 2,
      "note": 78,
      "start": 13.0239,
      "duration": 0.0158,
      "velocity": 100,
      "chip": "ym2612"
    },
    {
      "channel": 4,
      "note": 54,
      "start": 13.0251,
      "duration": 0.0159,
      "velocity": 100,
      "chip": "ym2612"
    },
    {
      "channel": 1,
      "note": 78,
      "start": 13.0262,
      "duration": 0.0159,
      "velocity": 83,
      "chip": "ym2612"
    },
    {
      "channel": 0,
      "note": 38,
      "start": 13.0362,
      "duration": 0.0161,
      "velocity": 115,
      "chip": "ym2612"
    },
    {
      "channel": 5,
      "note": 78,
      "start": 13.0375,
      "duration": 0.016,
      "velocity": 83,
      "chip": "ym2612"
    },
    {
      "channel": 3,
      "note": 74,
      "start": 13.0386,
      "duration": 0.016,
      "velocity": 100,
      "chip": "ym2612"
    },
    {
      "channel": 2,
      "note": 78,
      "start": 13.0398,
      "duration": 0.0161,
      "velocity": 100,
      "chip": "ym2612"
    },
    {
      "channel": 4,
      "note": 54,
      "start": 13.0409,
      "duration": 0.0161,
      "velocity": 100,
      "chip": "ym2612"
    },
    {
      "channel": 1,
      "note": 78,
      "start": 13.0421,
      "duration": 0.0161,
      "velocity": 83,
      "chip": "ym2612"
    },
    {
      "channel": 0,
      "note": 39,
      "start": 13.0523,
      "duration": 0.0179,
      "velocity": 124,
      "chip": "ym2612"
    },
    {
      "channel": 5,
      "note": 78,
      "start": 13.0535,
      "duration": 0.018,
      "velocity": 83,
      "chip": "ym2612"
    },
    {
      "channel": 4,
      "note": 54,
      "start": 13.057,
      "duration": 0.0186,
      "velocity": 100,
      "chip": "ym2612"
    },
    {
      "channel": 1,
      "note": 78,
      "start": 13.0582,
      "duration": 0.0188,
      "velocity": 83,
      "chip": "ym2612"
    },
    {
      "channel": 0,
      "note": 84,
      "start": 13.0703,
      "duration": 0.0142,
      "velocity": 124,
      "chip": "ym2612"
    },
    {
      "channel": 5,
      "note": 78,
      "start": 13.0715,
      "duration": 0.0142,
      "velocity": 83,
      "chip": "ym2612"
    },
    {
      "channel": 3,
      "note": 74,
      "start": 13.073,
      "duration": 0.014,
      "velocity": 100,
      "chip": "ym2612"
    },
    {
      "channel": 2,
      "note": 78,
      "start": 13.0744,
      "duration": 0.0138,
      "velocity": 100,
      "chip": "ym2612"
    },
    {
      "channel": 4,
      "note": 54,
      "start": 13.0756,
      "duration": 0.0137,
      "velocity": 100,
      "chip": "ym2612"
    },
    {
      "channel": 1,
      "note": 78,
      "start": 13.0771,
      "duration": 0.0135,
      "velocity": 83,
      "chip": "ym2612"
    },
    {
      "channel": 0,
      "note": 82,
      "start": 13.0846,
      "duration": 0.0161,
      "velocity": 124,
      "chip": "ym2612"
    },
    {
      "channel": 5,
      "note": 78,
      "start": 13.0858,
      "duration": 0.016,
      "velocity": 83,
      "chip": "ym2612"
    },
    {
      "channel": 3,
      "note": 74,
      "start": 13.087,
      "duration": 0.016,
      "velocity": 100,
      "chip": "ym2612"
    },
    {
      "channel": 2,
      "note": 78,
      "start": 13.0883,
      "duration": 0.0159,
      "velocity": 100,
      "chip": "ym2612"
    },
    {
      "channel": 4,
      "note": 54,
      "start": 13.0894,
      "duration": 0.0159,
      "velocity": 100,
      "chip": "ym2612"
    },
    {
      "channel": 1,
      "note": 78,
      "start": 13.0905,
      "duration": 0.016,
      "velocity": 83,
      "chip": "ym2612"
    },
    {
      "channel": 0,
      "note": 80,
      "start": 13.1007,
      "duration": 0.0161,
      "velocity": 124,
      "chip": "ym2612"
    },
    {
      "channel": 5,
      "note": 78,
      "start": 13.1018,
      "duration": 0.0162,
      "velocity": 83,
      "chip": "ym2612"
    },
    {
      "channel": 3,
      "note": 74,
      "start": 13.103,
      "duration": 0.0161,
      "velocity": 100,
      "chip": "ym2612"
    },
    {
      "channel": 2,
      "note": 78,
      "start": 13.1041,
      "duration": 0.0161,
      "velocity": 100,
      "chip": "ym2612"
    },
    {
      "channel": 4,
      "note": 54,
      "start": 13.1053,
      "duration": 0.0161,
      "velocity": 100,
      "chip": "ym2612"
    },
    {
      "channel": 1,
      "note": 78,
      "start": 13.1065,
      "duration": 0.0161,
      "velocity": 83,
      "chip": "ym2612"
    },
    {
      "channel": 0,
      "note": 77,
      "start": 13.1168,
      "duration": 0.0161,
      "velocity": 124,
      "chip": "ym2612"
    },
    {
      "channel": 5,
      "note": 78,
      "start": 13.118,
      "duration": 0.016,
      "velocity": 83,
      "chip": "ym2612"
    },
    {
      "channel": 3,
      "note": 74,
      "start": 13.1191,
      "duration": 0.0161,
      "velocity": 100,
      "chip": "ym2612"
    },
    {
      "channel": 2,
      "note": 78,
      "start": 13.1202,
      "duration": 0.0161,
      "velocity": 100,
      "chip": "ym2612"
    },
    {
      "channel": 4,
      "note": 54,
      "start": 13.1214,
      "duration": 0.0161,
      "velocity": 100,
      "chip": "ym2612"
    },
    {
      "channel": 1,
      "note": 78,
      "start": 13.1226,
      "duration": 0.0161,
      "velocity": 83,
      "chip": "ym2612"
    },
    {
      "channel": 0,
      "note": 75,
      "start": 13.1328,
      "duration": 0.0161,
      "velocity": 124,
      "chip": "ym2612"
    },
    {
      "channel": 5,
      "note": 78,
      "start": 13.134,
      "duration": 0.0161,
      "velocity": 83,
      "chip": "ym2612"
    },
    {
      "channel": 3,
      "note": 74,
      "start": 13.1352,
      "duration": 0.0161,
      "velocity": 100,
      "chip": "ym2612"
    },
    {
      "channel": 2,
      "note": 78,
      "start": 13.1363,
      "duration": 0.0161,
      "velocity": 100,
      "chip": "ym2612"
    },
    {
      "channel": 4,
      "note": 54,
      "start": 13.1375,
      "duration": 0.0161,
      "velocity": 100,
      "chip": "ym2612"
    },
    {
      "channel": 1,
      "note": 78,
      "start": 13.1387,
      "duration": 0.0161,
      "velocity": 83,
      "chip": "ym2612"
    },
    {
      "channel": 0,
      "note": 72,
      "start": 13.1489,
      "duration": 0.0161,
      "velocity": 124,
      "chip": "ym2612"
    },
    {
      "channel": 5,
      "note": 78,
      "start": 13.1501,
      "duration": 0.0161,
      "velocity": 83,
      "chip": "ym2612"
    },
    {
      "channel": 3,
      "note": 74,
      "start": 13.1513,
      "duration": 0.0161,
      "velocity": 100,
      "chip": "ym2612"
    },
    {
      "channel": 2,
      "note": 78,
      "start": 13.1524,
      "duration": 0.0161,
      "velocity": 100,
      "chip": "ym2612"
    },
    {
      "channel": 4,
      "note": 54,
      "start": 13.1536,
      "duration": 0.0161,
      "velocity": 100,
      "chip": "ym2612"
    },
    {
      "channel": 1,
      "note": 78,
      "start": 13.1548,
      "duration": 0.0161,
      "velocity": 83,
      "chip": "ym2612"
    },
    {
      "channel": 0,
      "note": 70,
      "start": 13.165,
      "duration": 0.0161,
      "velocity": 124,
      "chip": "ym2612"
    },
    {
      "channel": 5,
      "note": 78,
      "start": 13.1662,
      "duration": 0.0161,
      "velocity": 83,
      "chip": "ym2612"
    },
    {
      "channel": 3,
      "note": 74,
      "start": 13.1674,
      "duration": 0.0161,
      "velocity": 100,
      "chip": "ym2612"
    },
    {
      "channel": 2,
      "note": 78,
      "start": 13.1685,
      "duration": 0.0161,
      "velocity": 100,
      "chip": "ym2612"
    },
    {
      "channel": 4,
      "note": 54,
      "start": 13.1697,
      "duration": 0.0161,
      "velocity": 100,
      "chip": "ym2612"
    },
    {
      "channel": 1,
      "note": 78,
      "start": 13.1709,
      "duration": 0.0161,
      "velocity": 83,
      "chip": "ym2612"
    },
    {
      "channel": 0,
      "note": 68,
      "start": 13.1811,
      "duration": 0.0161,
      "velocity": 124,
      "chip": "ym2612"
    },
    {
      "channel": 5,
      "note": 78,
      "start": 13.1823,
      "duration": 0.0161,
      "velocity": 83,
      "chip": "ym2612"
    },
    {
      "channel": 3,
      "note": 74,
      "start": 13.1835,
      "duration": 0.0161,
      "velocity": 100,
      "chip": "ym2612"
    },
    {
      "channel": 2,
      "note": 78,
      "start": 13.1846,
      "duration": 0.0161,
      "velocity": 100,
      "chip": "ym2612"
    },
    {
      "channel": 4,
      "note": 54,
      "start": 13.1858,
      "duration": 0.0162,
      "velocity": 100,
      "chip": "ym2612"
    },
    {
      "channel": 1,
      "note": 78,
      "start": 13.187,
      "duration": 0.0161,
      "velocity": 83,
      "chip": "ym2612"
    },
    {
      "channel": 0,
      "note": 65,
      "start": 13.1972,
      "duration": 0.0162,
      "velocity": 124,
      "chip": "ym2612"
    },
    {
      "channel": 5,
      "note": 78,
      "start": 13.1984,
      "duration": 0.0161,
      "velocity": 83,
      "chip": "ym2612"
    },
    {
      "channel": 3,
      "note": 74,
      "start": 13.1996,
      "duration": 0.0162,
      "velocity": 100,
      "chip": "ym2612"
    },
    {
      "channel": 2,
      "note": 78,
      "start": 13.2008,
      "duration": 0.0162,
      "velocity": 100,
      "chip": "ym2612"
    },
    {
      "channel": 4,
      "note": 54,
      "start": 13.2019,
      "duration": 0.0161,
      "velocity": 100,
      "chip": "ym2612"
    },
    {
      "channel": 1,
      "note": 78,
      "start": 13.2031,
      "duration": 0.0162,
      "velocity": 83,
      "chip": "ym2612"
    },
    {
      "channel": 0,
      "note": 63,
      "start": 13.2134,
      "duration": 0.0154,
      "velocity": 1,
      "chip": "ym2612"
    },
    {
      "channel": 5,
      "note": 78,
      "start": 13.2146,
      "duration": 0.0153,
      "velocity": 83,
      "chip": "ym2612"
    },
    {
      "channel": 3,
      "note": 74,
      "start": 13.2158,
      "duration": 0.0154,
      "velocity": 100,
      "chip": "ym2612"
    },
    {
      "channel": 2,
      "note": 78,
      "start": 13.2169,
      "duration": 0.0153,
      "velocity": 100,
      "chip": "ym2612"
    },
    {
      "channel": 4,
      "note": 54,
      "start": 13.2181,
      "duration": 0.0154,
      "velocity": 100,
      "chip": "ym2612"
    },
    {
      "channel": 1,
      "note": 78,
      "start": 13.2193,
      "duration": 0.0153,
      "velocity": 83,
      "chip": "ym2612"
    },
    {
      "channel": 5,
      "note": 78,
      "start": 13.2299,
      "duration": 0.0155,
      "velocity": 83,
      "chip": "ym2612"
    },
    {
      "channel": 3,
      "note": 74,
      "start": 13.2311,
      "duration": 0.0154,
      "velocity": 100,
      "chip": "ym2612"
    },
    {
      "channel": 2,
      "note": 78,
      "start": 13.2323,
      "duration": 0.0155,
      "velocity": 100,
      "chip": "ym2612"
    },
    {
      "channel": 4,
      "note": 54,
      "start": 13.2334,
      "duration": 0.0156,
      "velocity": 100,
      "chip": "ym2612"
    },
    {
      "channel": 1,
      "note": 78,
      "start": 13.2346,
      "duration": 0.0156,
      "velocity": 83,
      "chip": "ym2612"
    },
    {
      "channel": 5,
      "note": 78,
      "start": 13.2454,
      "duration": 0.0163,
      "velocity": 83,
      "chip": "ym2612"
    },
    {
      "channel": 3,
      "note": 74,
      "start": 13.2466,
      "duration": 0.0163,
      "velocity": 100,
      "chip": "ym2612"
    },
    {
      "channel": 2,
      "note": 78,
      "start": 13.2477,
      "duration": 0.0163,
      "velocity": 100,
      "chip": "ym2612"
    },
    {
      "channel": 4,
      "note": 54,
      "start": 13.249,
      "duration": 0.0162,
      "velocity": 100,
      "chip": "ym2612"
    },
    {
      "channel": 1,
      "note": 78,
      "start": 13.2502,
      "duration": 0.0162,
      "velocity": 83,
      "chip": "ym2612"
    },
    {
      "channel": 5,
      "note": 78,
      "start": 13.2617,
      "duration": 0.016,
      "velocity": 83,
      "chip": "ym2612"
    },
    {
      "channel": 3,
      "note": 74,
      "start": 13.2629,
      "duration": 0.0162,
      "velocity": 100,
      "chip": "ym2612"
    },
    {
      "channel": 2,
      "note": 78,
      "start": 13.264,
      "duration": 0.0161,
      "velocity": 100,
      "chip": "ym2612"
    },
    {
      "channel": 4,
      "note": 54,
      "start": 13.2652,
      "duration": 0.0162,
      "velocity": 100,
      "chip": "ym2612"
    },
    {
      "channel": 5,
      "note": 78,
      "start": 13.2778,
      "duration": 0.0158,
      "velocity": 83,
      "chip": "ym2612"
    },
    {
      "channel": 4,
      "note": 54,
      "start": 13.2814,
      "duration": 0.0171,
      "velocity": 100,
      "chip": "ym2612"
    },
    {
      "channel": 5,
      "note": 78,
      "start": 13.2936,
      "duration": 0.0159,
      "velocity": 83,
      "chip": "ym2612"
    },
    {
      "channel": 3,
      "note": 74,
      "start": 13.2955,
      "duration": 0.0157,
      "velocity": 100,
      "chip": "ym2612"
    },
    {
      "channel": 2,
      "note": 78,
      "start": 13.297,
      "duration": 0.0155,
      "velocity": 100,
      "chip": "ym2612"
    },
    {
      "channel": 4,
      "note": 57,
      "start": 13.2985,
      "duration": 0.0151,
      "velocity": 100,
      "chip": "ym2612"
    },
    {
      "channel": 1,
      "note": 74,
      "start": 13.3,
      "duration": 0.0149,
      "velocity": 83,
      "chip": "ym2612"
    },
    {
      "channel": 5,
      "note": 78,
      "start": 13.3094,
      "duration": 0.0161,
      "velocity": 83,
      "chip": "ym2612"
    },
    {
      "channel": 3,
      "note": 74,
      "start": 13.3112,
      "duration": 0.0157,
      "velocity": 100,
      "chip": "ym2612"
    },
    {
      "channel": 2,
      "note": 78,
      "start": 13.3125,
      "duration": 0.016,
      "velocity": 100,
      "chip": "ym2612"
    },
    {
      "channel": 4,
      "note": 57,
      "start": 13.3137,
      "duration": 0.0159,
      "velocity": 100,
      "chip": "ym2612"
    },
    {
      "channel": 1,
      "note": 74,
      "start": 13.315,
      "duration": 0.0159,
      "velocity": 83,
      "chip": "ym2612"
    },
    {
      "channel": 3,
      "note": 74,
      "start": 13.3269,
      "duration": 0.0159,
      "velocity": 100,
      "chip": "ym2612"
    },
    {
      "channel": 2,
      "note": 78,
      "start": 13.3285,
      "duration": 0.016,
      "velocity": 100,
      "chip": "ym2612"
    },
    {
      "channel": 4,
      "note": 57,
      "start": 13.3296,
      "duration": 0.0161,
      "velocity": 100,
      "chip": "ym2612"
    },
    {
      "channel": 1,
      "note": 74,
      "start": 13.3308,
      "duration": 0.0161,
      "velocity": 83,
      "chip": "ym2612"
    },
    {
      "channel": 3,
      "note": 74,
      "start": 13.3428,
      "duration": 0.0163,
      "velocity": 100,
      "chip": "ym2612"
    },
    {
      "channel": 2,
      "note": 78,
      "start": 13.3445,
      "duration": 0.0164,
      "velocity": 100,
      "chip": "ym2612"
    },
    {
      "channel": 4,
      "note": 57,
      "start": 13.3457,
      "duration": 0.0164,
      "velocity": 100,
      "chip": "ym2612"
    },
    {
      "channel": 1,
      "note": 74,
      "start": 13.3469,
      "duration": 0.0164,
      "velocity": 83,
      "chip": "ym2612"
    },
    {
      "channel": 5,
      "note": 74,
      "start": 13.358,
      "duration": 0.0159,
      "velocity": 83,
      "chip": "ym2612"
    },
    {
      "channel": 3,
      "note": 74,
      "start": 13.3592,
      "duration": 0.0159,
      "velocity": 100,
      "chip": "ym2612"
    },
    {
      "channel": 2,
      "note": 78,
      "start": 13.3609,
      "duration": 0.0154,
      "velocity": 100,
      "chip": "ym2612"
    },
    {
      "channel": 4,
      "note": 57,
      "start": 13.3621,
      "duration": 0.0158,
      "velocity": 100,
      "chip": "ym2612"
    },
    {
      "channel": 1,
      "note": 74,
      "start": 13.3633,
      "duration": 0.0159,
      "velocity": 83,
      "chip": "ym2612"
    },
    {
      "channel": 5,
      "note": 74,
      "start": 13.3739,
      "duration": 0.016,
      "velocity": 83,
      "chip": "ym2612"
    },
    {
      "channel": 3,
      "note": 74,
      "start": 13.3751,
      "duration": 0.016,
      "velocity": 100,
      "chip": "ym2612"
    },
    {
      "channel": 2,
      "note": 78,
      "start": 13.3762,
      "duration": 0.016,
      "velocity": 100,
      "chip": "ym2612"
    },
    {
      "channel": 4,
      "note": 57,
      "start": 13.3779,
      "duration": 0.0158,
      "velocity": 100,
      "chip": "ym2612"
    },
    {
      "channel": 1,
      "note": 74,
      "start": 13.3792,
      "duration": 0.0161,
      "velocity": 83,
      "chip": "ym2612"
    },
    {
      "channel": 5,
      "note": 74,
      "start": 13.39,
      "duration": 0.0161,
      "velocity": 83,
      "chip": "ym2612"
    },
    {
      "channel": 3,
      "note": 74,
      "start": 13.3911,
      "duration": 0.0161,
      "velocity": 100,
      "chip": "ym2612"
    },
    {
      "channel": 2,
      "note": 78,
      "start": 13.3922,
      "duration": 0.0161,
      "velocity": 100,
      "chip": "ym2612"
    },
    {
      "channel": 4,
      "note": 57,
      "start": 13.3937,
      "duration": 0.0159,
      "velocity": 100,
      "chip": "ym2612"
    },
    {
      "channel": 1,
      "note": 74,
      "start": 13.3952,
      "duration": 0.016,
      "velocity": 83,
      "chip": "ym2612"
    },
    {
      "channel": 5,
      "note": 74,
      "start": 13.4061,
      "duration": 0.0161,
      "velocity": 83,
      "chip": "ym2612"
    },
    {
      "channel": 3,
      "note": 74,
      "start": 13.4072,
      "duration": 0.0161,
      "velocity": 100,
      "chip": "ym2612"
    },
    {
      "channel": 2,
      "note": 78,
      "start": 13.4083,
      "duration": 0.0161,
      "velocity": 100,
      "chip": "ym2612"
    },
    {
      "channel": 4,
      "note": 57,
      "start": 13.4095,
      "duration": 0.0161,
      "velocity": 100,
      "chip": "ym2612"
    },
    {
      "channel": 1,
      "note": 74,
      "start": 13.4113,
      "duration": 0.0158,
      "velocity": 83,
      "chip": "ym2612"
    },
    {
      "channel": 5,
      "note": 74,
      "start": 13.4222,
      "duration": 0.0161,
      "velocity": 83,
      "chip": "ym2612"
    },
    {
      "channel": 3,
      "note": 74,
      "start": 13.4233,
      "duration": 0.0161,
      "velocity": 100,
      "chip": "ym2612"
    },
    {
      "channel": 2,
      "note": 78,
      "start": 13.4244,
      "duration": 0.0161,
      "velocity": 100,
      "chip": "ym2612"
    },
    {
      "channel": 4,
      "note": 57,
      "start": 13.4256,
      "duration": 0.0161,
      "velocity": 100,
      "chip": "ym2612"
    },
    {
      "channel": 1,
      "note": 74,
      "start": 13.4271,
      "duration": 0.0159,
      "velocity": 83,
      "chip": "ym2612"
    },
    {
      "channel": 5,
      "note": 74,
      "start": 13.4383,
      "duration": 0.0161,
      "velocity": 83,
      "chip": "ym2612"
    },
    {
      "channel": 3,
      "note": 74,
      "start": 13.4394,
      "duration": 0.0162,
      "velocity": 100,
      "chip": "ym2612"
    },
    {
      "channel": 2,
      "note": 78,
      "start": 13.4405,
      "duration": 0.0161,
      "velocity": 100,
      "chip": "ym2612"
    },
    {
      "channel": 4,
      "note": 57,
      "start": 13.4417,
      "duration": 0.0161,
      "velocity": 100,
      "chip": "ym2612"
    },
    {
      "channel": 1,
      "note": 74,
      "start": 13.4429,
      "duration": 0.0161,
      "velocity": 83,
      "chip": "ym2612"
    },
    {
      "channel": 5,
      "note": 74,
      "start": 13.4544,
      "duration": 0.016,
      "velocity": 83,
      "chip": "ym2612"
    },
    {
      "channel": 3,
      "note": 74,
      "start": 13.4556,
      "duration": 0.0161,
      "velocity": 100,
      "chip": "ym2612"
    },
    {
      "channel": 2,
      "note": 78,
      "start": 13.4567,
      "duration": 0.0161,
      "velocity": 100,
      "chip": "ym2612"
    },
    {
      "channel": 4,
      "note": 57,
      "start": 13.4578,
      "duration": 0.0161,
      "velocity": 100,
      "chip": "ym2612"
    },
    {
      "channel": 1,
      "note": 74,
      "start": 13.459,
      "duration": 0.016,
      "velocity": 83,
      "chip": "ym2612"
    },
    {
      "channel": 5,
      "note": 74,
      "start": 13.4704,
      "duration": 0.0161,
      "velocity": 83,
      "chip": "ym2612"
    },
    {
      "channel": 3,
      "note": 74,
      "start": 13.4717,
      "duration": 0.0161,
      "velocity": 100,
      "chip": "ym2612"
    },
    {
      "channel": 2,
      "note": 78,
      "start": 13.4728,
      "duration": 0.0161,
      "velocity": 100,
      "chip": "ym2612"
    },
    {
      "channel": 4,
      "note": 57,
      "start": 13.4739,
      "duration": 0.0161,
      "velocity": 100,
      "chip": "ym2612"
    },
    {
      "channel": 1,
      "note": 74,
      "start": 13.4751,
      "duration": 0.0162,
      "velocity": 83,
      "chip": "ym2612"
    },
    {
      "channel": 5,
      "note": 74,
      "start": 13.4865,
      "duration": 0.0162,
      "velocity": 83,
      "chip": "ym2612"
    },
    {
      "channel": 3,
      "note": 74,
      "start": 13.4877,
      "duration": 0.0161,
      "velocity": 100,
      "chip": "ym2612"
    },
    {
      "channel": 2,
      "note": 78,
      "start": 13.4889,
      "duration": 0.0161,
      "velocity": 100,
      "chip": "ym2612"
    },
    {
      "channel": 4,
      "note": 57,
      "start": 13.49,
      "duration": 0.0162,
      "velocity": 100,
      "chip": "ym2612"
    },
    {
      "channel": 1,
      "note": 74,
      "start": 13.4912,
      "duration": 0.0161,
      "velocity": 83,
      "chip": "ym2612"
    },
    {
      "channel": 5,
      "note": 74,
      "start": 13.5027,
      "duration": 0.0196,
      "velocity": 83,
      "chip": "ym2612"
    },
    {
      "channel": 4,
      "note": 57,
      "start": 13.5062,
      "duration": 0.0207,
      "velocity": 100,
      "chip": "ym2612"
    },
    {
      "channel": 1,
      "note": 74,
      "start": 13.5073,
      "duration": 0.0212,
      "velocity": 83,
      "chip": "ym2612"
    },
    {
      "channel": 0,
      "note": 36,
      "start": 13.5211,
      "duration": 0.0143,
      "velocity": 115,
      "chip": "ym2612"
    },
    {
      "channel": 5,
      "note": 74,
      "start": 13.5223,
      "duration": 0.0143,
      "velocity": 83,
      "chip": "ym2612"
    },
    {
      "channel": 3,
      "note": 74,
      "start": 13.5238,
      "duration": 0.014,
      "velocity": 100,
      "chip": "ym2612"
    },
    {
      "channel": 2,
      "note": 78,
      "start": 13.5253,
      "duration": 0.0138,
      "velocity": 100,
      "chip": "ym2612"
    },
    {
      "channel": 4,
      "note": 59,
      "start": 13.527,
      "duration": 0.0133,
      "velocity": 100,
      "chip": "ym2612"
    },
    {
      "channel": 1,
      "note": 74,
      "start": 13.5286,
      "duration": 0.0129,
      "velocity": 83,
      "chip": "ym2612"
    },
    {
      "channel": 0,
      "note": 36,
      "start": 13.5354,
      "duration": 0.016,
      "velocity": 115,
      "chip": "ym2612"
    },
    {
      "channel": 5,
      "note": 74,
      "start": 13.5366,
      "duration": 0.0161,
      "velocity": 83,
      "chip": "ym2612"
    },
    {
      "channel": 3,
      "note": 74,
      "start": 13.5378,
      "duration": 0.016,
      "velocity": 100,
      "chip": "ym2612"
    },
    {
      "channel": 2,
      "note": 78,
      "start": 13.5391,
      "duration": 0.0159,
      "velocity": 100,
      "chip": "ym2612"
    },
    {
      "channel": 4,
      "note": 59,
      "start": 13.5403,
      "duration": 0.0158,
      "velocity": 100,
      "chip": "ym2612"
    },
    {
      "channel": 1,
      "note": 74,
      "start": 13.5414,
      "duration": 0.0159,
      "velocity": 83,
      "chip": "ym2612"
    },
    {
      "channel": 0,
      "note": 37,
      "start": 13.5514,
      "duration": 0.0162,
      "velocity": 115,
      "chip": "ym2612"
    },
    {
      "channel": 5,
      "note": 74,
      "start": 13.5527,
      "duration": 0.016,
      "velocity": 83,
      "chip": "ym2612"
    },
    {
      "channel": 3,
      "note": 74,
      "start": 13.5538,
      "duration": 0.0161,
      "velocity": 100,
      "chip": "ym2612"
    },
    {
      "channel": 2,
      "note": 78,
      "start": 13.555,
      "duration": 0.0161,
      "velocity": 100,
      "chip": "ym2612"
    },
    {
      "channel": 4,
      "note": 59,
      "start": 13.5561,
      "duration": 0.0161,
      "velocity": 100,
      "chip": "ym2612"
    },
    {
      "channel": 1,
      "note": 74,
      "start": 13.5573,
      "duration": 0.016,
      "velocity": 83,
      "chip": "ym2612"
    },
    {
      "channel": 0,
      "note": 37,
      "start": 13.5676,
      "duration": 0.0161,
      "velocity": 115,
      "chip": "ym2612"
    },
    {
      "channel": 5,
      "note": 74,
      "start": 13.5687,
      "duration": 0.0161,
      "velocity": 83,
      "chip": "ym2612"
    },
    {
      "channel": 3,
      "note": 74,
      "start": 13.5699,
      "duration": 0.0161,
      "velocity": 100,
      "chip": "ym2612"
    },
    {
      "channel": 2,
      "note": 78,
      "start": 13.5711,
      "duration": 0.0161,
      "velocity": 100,
      "chip": "ym2612"
    },
    {
      "channel": 4,
      "note": 59,
      "start": 13.5722,
      "duration": 0.0161,
      "velocity": 100,
      "chip": "ym2612"
    },
    {
      "channel": 1,
      "note": 74,
      "start": 13.5734,
      "duration": 0.0162,
      "velocity": 83,
      "chip": "ym2612"
    },
    {
      "channel": 0,
      "note": 38,
      "start": 13.5837,
      "duration": 0.0161,
      "velocity": 115,
      "chip": "ym2612"
    },
    {
      "channel": 5,
      "note": 74,
      "start": 13.5848,
      "duration": 0.0162,
      "velocity": 83,
      "chip": "ym2612"
    },
    {
      "channel": 3,
      "note": 74,
      "start": 13.586,
      "duration": 0.0161,
      "velocity": 100,
      "chip": "ym2612"
    },
    {
      "channel": 2,
      "note": 78,
      "start": 13.5872,
      "duration": 0.0161,
      "velocity": 100,
      "chip": "ym2612"
    },
    {
      "channel": 4,
      "note": 59,
      "start": 13.5883,
      "duration": 0.0161,
      "velocity": 100,
      "chip": "ym2612"
    },
    {
      "channel": 1,
      "note": 74,
      "start": 13.5895,
      "duration": 0.0161,
      "velocity": 83,
      "chip": "ym2612"
    },
    {
      "channel": 0,
      "note": 38,
      "start": 13.5998,
      "duration": 0.0161,
      "velocity": 115,
      "chip": "ym2612"
    },
    {
      "channel": 5,
      "note": 74,
      "start": 13.601,
      "duration": 0.0161,
      "velocity": 83,
      "chip": "ym2612"
    },
    {
      "channel": 3,
      "note": 74,
      "start": 13.6021,
      "duration": 0.0161,
      "velocity": 100,
      "chip": "ym2612"
    },
    {
      "channel": 2,
      "note": 78,
      "start": 13.6033,
      "duration": 0.0161,
      "velocity": 100,
      "chip": "ym2612"
    },
    {
      "channel": 4,
      "note": 59,
      "start": 13.6044,
      "duration": 0.0161,
      "velocity": 100,
      "chip": "ym2612"
    },
    {
      "channel": 1,
      "note": 74,
      "start": 13.6056,
      "duration": 0.0161,
      "velocity": 83,
      "chip": "ym2612"
    },
    {
      "channel": 0,
      "note": 39,
      "start": 13.6159,
      "duration": 0.0161,
      "velocity": 115,
      "chip": "ym2612"
    },
    {
      "channel": 5,
      "note": 74,
      "start": 13.6171,
      "duration": 0.0161,
      "velocity": 83,
      "chip": "ym2612"
    },
    {
      "channel": 3,
      "note": 74,
      "start": 13.6182,
      "duration": 0.0161,
      "velocity": 100,
      "chip": "ym2612"
    },
    {
      "channel": 2,
      "note": 78,
      "start": 13.6194,
      "duration": 0.0161,
      "velocity": 100,
      "chip": "ym2612"
    },
    {
      "channel": 4,
      "note": 59,
      "start": 13.6205,
      "duration": 0.0161,
      "velocity": 100,
      "chip": "ym2612"
    },
    {
      "channel": 1,
      "note": 74,
      "start": 13.6217,
      "duration": 0.0161,
      "velocity": 83,
      "chip": "ym2612"
    },
    {
      "channel": 0,
      "note": 39,
      "start": 13.632,
      "duration": 0.0161,
      "velocity": 115,
      "chip": "ym2612"
    },
    {
      "channel": 5,
      "note": 74,
      "start": 13.6332,
      "duration": 0.0161,
      "velocity": 83,
      "chip": "ym2612"
    },
    {
      "channel": 3,
      "note": 74,
      "start": 13.6343,
      "duration": 0.0161,
      "velocity": 100,
      "chip": "ym2612"
    },
    {
      "channel": 2,
      "note": 78,
      "start": 13.6354,
      "duration": 0.0162,
      "velocity": 100,
      "chip": "ym2612"
    },
    {
      "channel": 4,
      "note": 59,
      "start": 13.6366,
      "duration": 0.0161,
      "velocity": 100,
      "chip": "ym2612"
    },
    {
      "channel": 1,
      "note": 74,
      "start": 13.6378,
      "duration": 0.0161,
      "velocity": 83,
      "chip": "ym2612"
    },
    {
      "channel": 0,
      "note": 40,
      "start": 13.648,
      "duration": 0.0161,
      "velocity": 115,
      "chip": "ym2612"
    },
    {
      "channel": 5,
      "note": 74,
      "start": 13.6493,
      "duration": 0.0161,
      "velocity": 83,
      "chip": "ym2612"
    },
    {
      "channel": 3,
      "note": 74,
      "start": 13.6505,
      "duration": 0.016,
      "velocity": 100,
      "chip": "ym2612"
    },
    {
      "channel": 2,
      "note": 78,
      "start": 13.6516,
      "duration": 0.0161,
      "velocity": 100,
      "chip": "ym2612"
    },
    {
      "channel": 4,
      "note": 59,
      "start": 13.6527,
      "duration": 0.0161,
      "velocity": 100,
      "chip": "ym2612"
    },
    {
      "channel": 1,
      "note": 74,
      "start": 13.6539,
      "duration": 0.0161,
      "velocity": 83,
      "chip": "ym2612"
    },
    {
      "channel": 0,
      "note": 40,
      "start": 13.6641,
      "duration": 0.0161,
      "velocity": 115,
      "chip": "ym2612"
    },
    {
      "channel": 5,
      "note": 74,
      "start": 13.6654,
      "duration": 0.0161,
      "velocity": 83,
      "chip": "ym2612"
    },
    {
      "channel": 3,
      "note": 74,
      "start": 13.6665,
      "duration": 0.0162,
      "velocity": 100,
      "chip": "ym2612"
    },
    {
      "channel": 2,
      "note": 78,
      "start": 13.6677,
      "duration": 0.0161,
      "velocity": 100,
      "chip": "ym2612"
    },
    {
      "channel": 4,
      "note": 59,
      "start": 13.6688,
      "duration": 0.0162,
      "velocity": 100,
      "chip": "ym2612"
    },
    {
      "channel": 1,
      "note": 74,
      "start": 13.67,
      "duration": 0.0162,
      "velocity": 83,
      "chip": "ym2612"
    },
    {
      "channel": 0,
      "note": 40,
      "start": 13.6803,
      "duration": 0.0161,
      "velocity": 115,
      "chip": "ym2612"
    },
    {
      "channel": 5,
      "note": 74,
      "start": 13.6815,
      "duration": 0.0161,
      "velocity": 83,
      "chip": "ym2612"
    },
    {
      "channel": 3,
      "note": 74,
      "start": 13.6827,
      "duration": 0.0161,
      "velocity": 100,
      "chip": "ym2612"
    },
    {
      "channel": 2,
      "note": 78,
      "start": 13.6839,
      "duration": 0.0161,
      "velocity": 100,
      "chip": "ym2612"
    },
    {
      "channel": 4,
      "note": 59,
      "start": 13.685,
      "duration": 0.0161,
      "velocity": 100,
      "chip": "ym2612"
    },
    {
      "channel": 1,
      "note": 74,
      "start": 13.6862,
      "duration": 0.016,
      "velocity": 83,
      "chip": "ym2612"
    },
    {
      "channel": 0,
      "note": 41,
      "start": 13.6964,
      "duration": 0.0165,
      "velocity": 115,
      "chip": "ym2612"
    },
    {
      "channel": 5,
      "note": 74,
      "start": 13.6976,
      "duration": 0.0165,
      "velocity": 83,
      "chip": "ym2612"
    },
    {
      "channel": 3,
      "note": 74,
      "start": 13.6988,
      "duration": 0.0164,
      "velocity": 100,
      "chip": "ym2612"
    },
    {
      "channel": 2,
      "note": 78,
      "start": 13.7,
      "duration": 0.0164,
      "velocity": 100,
      "chip": "ym2612"
    },
    {
      "channel": 4,
      "note": 59,
      "start": 13.7011,
      "duration": 0.0164,
      "velocity": 100,
      "chip": "ym2612"
    },
    {
      "channel": 1,
      "note": 74,
      "start": 13.7022,
      "duration": 0.0165,
      "velocity": 83,
      "chip": "ym2612"
    },
    {
      "channel": 0,
      "note": 41,
      "start": 13.7129,
      "duration": 0.0163,
      "velocity": 115,
      "chip": "ym2612"
    },
    {
      "channel": 5,
      "note": 74,
      "start": 13.7141,
      "duration": 0.0163,
      "velocity": 83,
      "chip": "ym2612"
    },
    {
      "channel": 3,
      "note": 74,
      "start": 13.7152,
      "duration": 0.0163,
      "velocity": 100,
      "chip": "ym2612"
    },
    {
      "channel": 2,
      "note": 78,
      "start": 13.7164,
      "duration": 0.0163,
      "velocity": 100,
      "chip": "ym2612"
    },
    {
      "channel": 4,
      "note": 59,
      "start": 13.7175,
      "duration": 0.0163,
      "velocity": 100,
      "chip": "ym2612"
    },
    {
      "channel": 1,
      "note": 74,
      "start": 13.7187,
      "duration": 0.0163,
      "velocity": 83,
      "chip": "ym2612"
    },
    {
      "channel": 0,
      "note": 42,
      "start": 13.7292,
      "duration": 0.0161,
      "velocity": 115,
      "chip": "ym2612"
    },
    {
      "channel": 5,
      "note": 74,
      "start": 13.7304,
      "duration": 0.0161,
      "velocity": 83,
      "chip": "ym2612"
    },
    {
      "channel": 4,
      "note": 59,
      "start": 13.7339,
      "duration": 0.017,
      "velocity": 100,
      "chip": "ym2612"
    },
    {
      "channel": 1,
      "note": 74,
      "start": 13.735,
      "duration": 0.017,
      "velocity": 83,
      "chip": "ym2612"
    },
    {
      "channel": 0,
      "note": 42,
      "start": 13.7452,
      "duration": 0.016,
      "velocity": 115,
      "chip": "ym2612"
    },
    {
      "channel": 5,
      "note": 74,
      "start": 13.7465,
      "duration": 0.0161,
      "velocity": 83,
      "chip": "ym2612"
    },
    {
      "channel": 3,
      "note": 74,
      "start": 13.7481,
      "duration": 0.0156,
      "velocity": 100,
      "chip": "ym2612"
    },
    {
      "channel": 2,
      "note": 78,
      "start": 13.7497,
      "duration": 0.0153,
      "velocity": 100,
      "chip": "ym2612"
    },
    {
      "channel": 4,
      "note": 59,
      "start": 13.7508,
      "duration": 0.0153,
      "velocity": 100,
      "chip": "ym2612"
    },
    {
      "channel": 1,
      "note": 74,
      "start": 13.752,
      "duration": 0.0152,
      "velocity": 83,
      "chip": "ym2612"
    },
    {
      "channel": 0,
      "note": 43,
      "start": 13.7613,
      "duration": 0.0158,
      "velocity": 115,
      "chip": "ym2612"
    },
    {
      "channel": 5,
      "note": 74,
      "start": 13.7625,
      "duration": 0.0161,
      "velocity": 83,
      "chip": "ym2612"
    },
    {
      "channel": 3,
      "note": 74,
      "start": 13.7638,
      "duration": 0.016,
      "velocity": 100,
      "chip": "ym2612"
    },
    {
      "channel": 2,
      "note": 78,
      "start": 13.765,
      "duration": 0.016,
      "velocity": 100,
      "chip": "ym2612"
    },
    {
      "channel": 4,
      "note": 59,
      "start": 13.7661,
      "duration": 0.016,
      "velocity": 100,
      "chip": "ym2612"
    },
    {
      "channel": 1,
      "note": 74,
      "start": 13.7673,
      "duration": 0.0161,
      "velocity": 83,
      "chip": "ym2612"
    },
    {
      "channel": 0,
      "note": 43,
      "start": 13.7771,
      "duration": 0.0159,
      "velocity": 115,
      "chip": "ym2612"
    },
    {
      "channel": 5,
      "note": 74,
      "start": 13.7786,
      "duration": 0.016,
      "velocity": 83,
      "chip": "ym2612"
    },
    {
      "channel": 3,
      "note": 74,
      "start": 13.7798,
      "duration": 0.0161,
      "velocity": 100,
      "chip": "ym2612"
    },
    {
      "channel": 2,
      "note": 78,
      "start": 13.7809,
      "duration": 0.0161,
      "velocity": 100,
      "chip": "ym2612"
    },
    {
      "channel": 4,
      "note": 59,
      "start": 13.7821,
      "duration": 0.0161,
      "velocity": 100,
      "chip": "ym2612"
    },
    {
      "channel": 1,
      "note": 74,
      "start": 13.7834,
      "duration": 0.016,
      "velocity": 83,
      "chip": "ym2612"
    },
    {
      "channel": 0,
      "note": 44,
      "start": 13.7929,
      "duration": 0.0161,
      "velocity": 115,
      "chip": "ym2612"
    },
    {
      "channel": 5,
      "note": 74,
      "start": 13.7947,
      "duration": 0.0159,
      "velocity": 83,
      "chip": "ym2612"
    },
    {
      "channel": 3,
      "note": 74,
      "start": 13.7959,
      "duration": 0.0162,
      "velocity": 100,
      "chip": "ym2612"
    },
    {
      "channel": 2,
      "note": 78,
      "start": 13.797,
      "duration": 0.0161,
      "velocity": 100,
      "chip": "ym2612"
    },
    {
      "channel": 4,
      "note": 59,
      "start": 13.7982,
      "duration": 0.0162,
      "velocity": 100,
      "chip": "ym2612"
    },
    {
      "channel": 1,
      "note": 74,
      "start": 13.7994,
      "duration": 0.0162,
      "velocity": 83,
      "chip": "ym2612"
    },
    {
      "channel": 0,
      "note": 44,
      "start": 13.809,
      "duration": 0.0161,
      "velocity": 115,
      "chip": "ym2612"
    },
    {
      "channel": 5,
      "note": 74,
      "start": 13.8105,
      "duration": 0.0158,
      "velocity": 83,
      "chip": "ym2612"
    },
    {
      "channel": 3,
      "note": 74,
      "start": 13.812,
      "duration": 0.016,
      "velocity": 100,
      "chip": "ym2612"
    },
    {
      "channel": 2,
      "note": 78,
      "start": 13.8132,
      "duration": 0.0161,
      "velocity": 100,
      "chip": "ym2612"
    },
    {
      "channel": 4,
      "note": 59,
      "start": 13.8144,
      "duration": 0.0161,
      "velocity": 100,
      "chip": "ym2612"
    },
    {
      "channel": 1,
      "note": 74,
      "start": 13.8156,
      "duration": 0.016,
      "velocity": 83,
      "chip": "ym2612"
    },
    {
      "channel": 0,
      "note": 44,
      "start": 13.8251,
      "duration": 0.0161,
      "velocity": 115,
      "chip": "ym2612"
    },
    {
      "channel": 5,
      "note": 74,
      "start": 13.8263,
      "duration": 0.0162,
      "velocity": 83,
      "chip": "ym2612"
    },
    {
      "channel": 3,
      "note": 74,
      "start": 13.8281,
      "duration": 0.0158,
      "velocity": 100,
      "chip": "ym2612"
    },
    {
      "channel": 2,
      "note": 78,
      "start": 13.8293,
      "duration": 0.0161,
      "velocity": 100,
      "chip": "ym2612"
    },
    {
      "channel": 4,
      "note": 59,
      "start": 13.8305,
      "duration": 0.0162,
      "velocity": 100,
      "chip": "ym2612"
    },
    {
      "channel": 1,
      "note": 74,
      "start": 13.8316,
      "duration": 0.0162,
      "velocity": 83,
      "chip": "ym2612"
    },
    {
      "channel": 0,
      "note": 45,
      "start": 13.8412,
      "duration": 0.0179,
      "velocity": 115,
      "chip": "ym2612"
    },
    {
      "channel": 5,
      "note": 74,
      "start": 13.8425,
      "duration": 0.0181,
      "velocity": 83,
      "chip": "ym2612"
    },
    {
      "channel": 3,
      "note": 74,
      "start": 13.8439,
      "duration": 0.0183,
      "velocity": 100,
      "chip": "ym2612"
    },
    {
      "channel": 2,
      "note": 78,
      "start": 13.8454,
      "duration": 0.0179,
      "velocity": 100,
      "chip": "ym2612"
    },
    {
      "channel": 4,
      "note": 59,
      "start": 13.8466,
      "duration": 0.0181,
      "velocity": 100,
      "chip": "ym2612"
    },
    {
      "channel": 1,
      "note": 74,
      "start": 13.8478,
      "duration": 0.0182,
      "velocity": 83,
      "chip": "ym2612"
    },
    {
      "channel": 0,
      "note": 36,
      "start": 13.8593,
      "duration": 0.0143,
      "velocity": 115,
      "chip": "ym2612"
    },
    {
      "channel": 5,
      "note": 74,
      "start": 13.8606,
      "duration": 0.0141,
      "velocity": 83,
      "chip": "ym2612"
    },
    {
      "channel": 3,
      "note": 74,
      "start": 13.8622,
      "duration": 0.0137,
      "velocity": 100,
      "chip": "ym2612"
    },
    {
      "channel": 2,
      "note": 78,
      "start": 13.8633,
      "duration": 0.0139,
      "velocity": 100,
      "chip": "ym2612"
    },
    {
      "channel": 4,
      "note": 54,
      "start": 13.8648,
      "duration": 0.0141,
      "velocity": 100,
      "chip": "ym2612"
    },
    {
      "channel": 1,
      "note": 74,
      "start": 13.866,
      "duration": 0.0141,
      "velocity": 83,
      "chip": "ym2612"
    },
    {
      "channel": 0,
      "note": 36,
      "start": 13.8736,
      "duration": 0.016,
      "velocity": 115,
      "chip": "ym2612"
    },
    {
      "channel": 5,
      "note": 74,
      "start": 13.8747,
      "duration": 0.0161,
      "velocity": 83,
      "chip": "ym2612"
    },
    {
      "channel": 3,
      "note": 74,
      "start": 13.8759,
      "duration": 0.016,
      "velocity": 100,
      "chip": "ym2612"
    },
    {
      "channel": 2,
      "note": 78,
      "start": 13.8772,
      "duration": 0.0159,
      "velocity": 100,
      "chip": "ym2612"
    },
    {
      "channel": 4,
      "note": 54,
      "start": 13.8788,
      "duration": 0.016,
      "velocity": 100,
      "chip": "ym2612"
    },
    {
      "channel": 1,
      "note": 74,
      "start": 13.8801,
      "duration": 0.0159,
      "velocity": 83,
      "chip": "ym2612"
    },
    {
      "channel": 0,
      "note": 37,
      "start": 13.8896,
      "duration": 0.0161,
      "velocity": 115,
      "chip": "ym2612"
    },
    {
      "channel": 5,
      "note": 74,
      "start": 13.8908,
      "duration": 0.0161,
      "velocity": 83,
      "chip": "ym2612"
    },
    {
      "channel": 3,
      "note": 74,
      "start": 13.8919,
      "duration": 0.0161,
      "velocity": 100,
      "chip": "ym2612"
    },
    {
      "channel": 2,
      "note": 78,
      "start": 13.8931,
      "duration": 0.0161,
      "velocity": 100,
      "chip": "ym2612"
    },
    {
      "channel": 4,
      "note": 54,
      "start": 13.8948,
      "duration": 0.0157,
      "velocity": 100,
      "chip": "ym2612"
    },
    {
      "channel": 1,
      "note": 74,
      "start": 13.896,
      "duration": 0.0161,
      "velocity": 83,
      "chip": "ym2612"
    },
    {
      "channel": 0,
      "note": 37,
      "start": 13.9057,
      "duration": 0.0161,
      "velocity": 115,
      "chip": "ym2612"
    },
    {
      "channel": 5,
      "note": 74,
      "start": 13.9069,
      "duration": 0.0161,
      "velocity": 83,
      "chip": "ym2612"
    },
    {
      "channel": 3,
      "note": 74,
      "start": 13.908,
      "duration": 0.0161,
      "velocity": 100,
      "chip": "ym2612"
    },
    {
      "channel": 2,
      "note": 78,
      "start": 13.9092,
      "duration": 0.0161,
      "velocity": 100,
      "chip": "ym2612"
    },
    {
      "channel": 4,
      "note": 54,
      "start": 13.9105,
      "duration": 0.0159,
      "velocity": 100,
      "chip": "ym2612"
    },
    {
      "channel": 1,
      "note": 74,
      "start": 13.9121,
      "duration": 0.016,
      "velocity": 83,
      "chip": "ym2612"
    },
    {
      "channel": 0,
      "note": 38,
      "start": 13.9218,
      "duration": 0.0161,
      "velocity": 115,
      "chip": "ym2612"
    },
    {
      "channel": 5,
      "note": 74,
      "start": 13.923,
      "duration": 0.0161,
      "velocity": 83,
      "chip": "ym2612"
    },
    {
      "channel": 3,
      "note": 74,
      "start": 13.9241,
      "duration": 0.0162,
      "velocity": 100,
      "chip": "ym2612"
    },
    {
      "channel": 2,
      "note": 78,
      "start": 13.9253,
      "duration": 0.0162,
      "velocity": 100,
      "chip": "ym2612"
    },
    {
      "channel": 4,
      "note": 54,
      "start": 13.9264,
      "duration": 0.0162,
      "velocity": 100,
      "chip": "ym2612"
    },
    {
      "channel": 1,
      "note": 74,
      "start": 13.9281,
      "duration": 0.0161,
      "velocity": 83,
      "chip": "ym2612"
    },
    {
      "channel": 0,
      "note": 38,
      "start": 13.9379,
      "duration": 0.0161,
      "velocity": 115,
      "chip": "ym2612"
    },
    {
      "channel": 5,
      "note": 74,
      "start": 13.9391,
      "duration": 0.0161,
      "velocity": 83,
      "chip": "ym2612"
    },
    {
      "channel": 3,
      "note": 74,
      "start": 13.9403,
      "duration": 0.016,
      "velocity": 100,
      "chip": "ym2612"
    },
    {
      "channel": 2,
      "note": 78,
      "start": 13.9414,
      "duration": 0.0161,
      "velocity": 100,
      "chip": "ym2612"
    },
    {
      "channel": 4,
      "note": 54,
      "start": 13.9426,
      "duration": 0.0161,
      "velocity": 100,
      "chip": "ym2612"
    },
    {
      "channel": 1,
      "note": 74,
      "start": 13.9443,
      "duration": 0.0156,
      "velocity": 83,
      "chip": "ym2612"
    },
    {
      "channel": 0,
      "note": 39,
      "start": 13.954,
      "duration": 0.0179,
      "velocity": 124,
      "chip": "ym2612"
    },
    {
      "channel": 5,
      "note": 74,
      "start": 13.9552,
      "duration": 0.0179,
      "velocity": 83,
      "chip": "ym2612"
    },
    {
      "channel": 4,
      "note": 54,
      "start": 13.9587,
      "duration": 0.0192,
      "velocity": 100,
      "chip": "ym2612"
    },
    {
      "channel": 1,
      "note": 74,
      "start": 13.9599,
      "duration": 0.0192,
      "velocity": 83,
      "chip": "ym2612"
    },
    {
      "channel": 0,
      "note": 84,
      "start": 13.972,
      "duration": 0.0142,
      "velocity": 124,
      "chip": "ym2612"
    },
    {
      "channel": 5,
      "note": 74,
      "start": 13.9731,
      "duration": 0.0143,
      "velocity": 83,
      "chip": "ym2612"
    },
    {
      "channel": 3,
      "note": 74,
      "start": 13.9746,
      "duration": 0.014,
      "velocity": 100,
      "chip": "ym2612"
    },
    {
      "channel": 2,
      "note": 78,
      "start": 13.9761,
      "duration": 0.0138,
      "velocity": 100,
      "chip": "ym2612"
    },
    {
      "channel": 4,
      "note": 54,
      "start": 13.9778,
      "duration": 0.0132,
      "velocity": 100,
      "chip": "ym2612"
    },
    {
      "channel": 1,
      "note": 74,
      "start": 13.9791,
      "duration": 0.0131,
      "velocity": 83,
      "chip": "ym2612"
    },
    {
      "channel": 0,
      "note": 82,
      "start": 13.9862,
      "duration": 0.0161,
      "velocity": 124,
      "chip": "ym2612"
    },
    {
      "channel": 5,
      "note": 74,
      "start": 13.9874,
      "duration": 0.0161,
      "velocity": 83,
      "chip": "ym2612"
    },
    {
      "channel": 3,
      "note": 74,
      "start": 13.9886,
      "duration": 0.016,
      "velocity": 100,
      "chip": "ym2612"
    },
    {
      "channel": 2,
      "note": 78,
      "start": 13.9899,
      "duration": 0.0159,
      "velocity": 100,
      "chip": "ym2612"
    },
    {
      "channel": 4,
      "note": 54,
      "start": 13.991,
      "duration": 0.0159,
      "velocity": 100,
      "chip": "ym2612"
    },
    {
      "channel": 1,
      "note": 74,
      "start": 13.9922,
      "duration": 0.016,
      "velocity": 83,
      "chip": "ym2612"
    },
    {
      "channel": 0,
      "note": 80,
      "start": 14.0023,
      "duration": 0.0161,
      "velocity": 124,
      "chip": "ym2612"
    },
    {
      "channel": 5,
      "note": 74,
      "start": 14.0035,
      "duration": 0.0161,
      "velocity": 83,
      "chip": "ym2612"
    },
    {
      "channel": 3,
      "note": 74,
      "start": 14.0047,
      "duration": 0.0161,
      "velocity": 100,
      "chip": "ym2612"
    },
    {
      "channel": 2,
      "note": 78,
      "start": 14.0058,
      "duration": 0.0161,
      "velocity": 100,
      "chip": "ym2612"
    },
    {
      "channel": 4,
      "note": 54,
      "start": 14.007,
      "duration": 0.0161,
      "velocity": 100,
      "chip": "ym2612"
    },
    {
      "channel": 1,
      "note": 74,
      "start": 14.0082,
      "duration": 0.0161,
      "velocity": 83,
      "chip": "ym2612"
    },
    {
      "channel": 0,
      "note": 77,
      "start": 14.0184,
      "duration": 0.0161,
      "velocity": 124,
      "chip": "ym2612"
    },
    {
      "channel": 5,
      "note": 74,
      "start": 14.0196,
      "duration": 0.0161,
      "velocity": 83,
      "chip": "ym2612"
    },
    {
      "channel": 3,
      "note": 74,
      "start": 14.0207,
      "duration": 0.0161,
      "velocity": 100,
      "chip": "ym2612"
    },
    {
      "channel": 2,
      "note": 78,
      "start": 14.0219,
      "duration": 0.0161,
      "velocity": 100,
      "chip": "ym2612"
    },
    {
      "channel": 4,
      "note": 54,
      "start": 14.023,
      "duration": 0.0161,
      "velocity": 100,
      "chip": "ym2612"
    },
    {
      "channel": 1,
      "note": 74,
      "start": 14.0243,
      "duration": 0.0161,
      "velocity": 83,
      "chip": "ym2612"
    },
    {
      "channel": 0,
      "note": 75,
      "start": 14.0345,
      "duration": 0.0161,
      "velocity": 124,
      "chip": "ym2612"
    },
    {
      "channel": 5,
      "note": 74,
      "start": 14.0357,
      "duration": 0.0161,
      "velocity": 83,
      "chip": "ym2612"
    },
    {
      "channel": 3,
      "note": 74,
      "start": 14.0368,
      "duration": 0.0161,
      "velocity": 100,
      "chip": "ym2612"
    },
    {
      "channel": 2,
      "note": 78,
      "start": 14.038,
      "duration": 0.0161,
      "velocity": 100,
      "chip": "ym2612"
    },
    {
      "channel": 4,
      "note": 54,
      "start": 14.0391,
      "duration": 0.0161,
      "velocity": 100,
      "chip": "ym2612"
    },
    {
      "channel": 1,
      "note": 74,
      "start": 14.0403,
      "duration": 0.0161,
      "velocity": 83,
      "chip": "ym2612"
    },
    {
      "channel": 0,
      "note": 72,
      "start": 14.0506,
      "duration": 0.0161,
      "velocity": 124,
      "chip": "ym2612"
    },
    {
      "channel": 5,
      "note": 74,
      "start": 14.0518,
      "duration": 0.0161,
      "velocity": 83,
      "chip": "ym2612"
    },
    {
      "channel": 3,
      "note": 74,
      "start": 14.0529,
      "duration": 0.0161,
      "velocity": 100,
      "chip": "ym2612"
    },
    {
      "channel": 2,
      "note": 78,
      "start": 14.0541,
      "duration": 0.0161,
      "velocity": 100,
      "chip": "ym2612"
    },
    {
      "channel": 4,
      "note": 54,
      "start": 14.0552,
      "duration": 0.0161,
      "velocity": 100,
      "chip": "ym2612"
    },
    {
      "channel": 1,
      "note": 74,
      "start": 14.0564,
      "duration": 0.0161,
      "velocity": 83,
      "chip": "ym2612"
    },
    {
      "channel": 0,
      "note": 70,
      "start": 14.0667,
      "duration": 0.0161,
      "velocity": 124,
      "chip": "ym2612"
    },
    {
      "channel": 5,
      "note": 74,
      "start": 14.0679,
      "duration": 0.0161,
      "velocity": 83,
      "chip": "ym2612"
    },
    {
      "channel": 3,
      "note": 74,
      "start": 14.069,
      "duration": 0.0161,
      "velocity": 100,
      "chip": "ym2612"
    },
    {
      "channel": 2,
      "note": 78,
      "start": 14.0702,
      "duration": 0.0161,
      "velocity": 100,
      "chip": "ym2612"
    },
    {
      "channel": 4,
      "note": 54,
      "start": 14.0713,
      "duration": 0.0161,
      "velocity": 100,
      "chip": "ym2612"
    },
    {
      "channel": 1,
      "note": 74,
      "start": 14.0725,
      "duration": 0.0161,
      "velocity": 83,
      "chip": "ym2612"
    },
    {
      "channel": 0,
      "note": 68,
      "start": 14.0828,
      "duration": 0.0161,
      "velocity": 124,
      "chip": "ym2612"
    },
    {
      "channel": 5,
      "note": 74,
      "start": 14.084,
      "duration": 0.0161,
      "velocity": 83,
      "chip": "ym2612"
    },
    {
      "channel": 3,
      "note": 74,
      "start": 14.0851,
      "duration": 0.0161,
      "velocity": 100,
      "chip": "ym2612"
    },
    {
      "channel": 2,
      "note": 78,
      "start": 14.0863,
      "duration": 0.0161,
      "velocity": 100,
      "chip": "ym2612"
    },
    {
      "channel": 4,
      "note": 54,
      "start": 14.0874,
      "duration": 0.0162,
      "velocity": 100,
      "chip": "ym2612"
    },
    {
      "channel": 1,
      "note": 74,
      "start": 14.0886,
      "duration": 0.0161,
      "velocity": 83,
      "chip": "ym2612"
    },
    {
      "channel": 0,
      "note": 65,
      "start": 14.0989,
      "duration": 0.0161,
      "velocity": 124,
      "chip": "ym2612"
    },
    {
      "channel": 5,
      "note": 74,
      "start": 14.1001,
      "duration": 0.0161,
      "velocity": 83,
      "chip": "ym2612"
    },
    {
      "channel": 3,
      "note": 74,
      "start": 14.1012,
      "duration": 0.0161,
      "velocity": 100,
      "chip": "ym2612"
    },
    {
      "channel": 2,
      "note": 78,
      "start": 14.1024,
      "duration": 0.0161,
      "velocity": 100,
      "chip": "ym2612"
    },
    {
      "channel": 4,
      "note": 54,
      "start": 14.1036,
      "duration": 0.0161,
      "velocity": 100,
      "chip": "ym2612"
    },
    {
      "channel": 1,
      "note": 74,
      "start": 14.1047,
      "duration": 0.0161,
      "velocity": 83,
      "chip": "ym2612"
    },
    {
      "channel": 0,
      "note": 63,
      "start": 14.115,
      "duration": 0.0153,
      "velocity": 1,
      "chip": "ym2612"
    },
    {
      "channel": 5,
      "note": 74,
      "start": 14.1162,
      "duration": 0.0153,
      "velocity": 83,
      "chip": "ym2612"
    },
    {
      "channel": 3,
      "note": 74,
      "start": 14.1173,
      "duration": 0.0153,
      "velocity": 100,
      "chip": "ym2612"
    },
    {
      "channel": 2,
      "note": 78,
      "start": 14.1185,
      "duration": 0.0153,
      "velocity": 100,
      "chip": "ym2612"
    },
    {
      "channel": 4,
      "note": 54,
      "start": 14.1197,
      "duration": 0.0153,
      "velocity": 100,
      "chip": "ym2612"
    },
    {
      "channel": 1,
      "note": 74,
      "start": 14.1208,
      "duration": 0.0153,
      "velocity": 83,
      "chip": "ym2612"
    },
    {
      "channel": 5,
      "note": 74,
      "start": 14.1315,
      "duration": 0.0153,
      "velocity": 83,
      "chip": "ym2612"
    },
    {
      "channel": 3,
      "note": 74,
      "start": 14.1327,
      "duration": 0.0152,
      "velocity": 100,
      "chip": "ym2612"
    },
    {
      "channel": 2,
      "note": 78,
      "start": 14.1338,
      "duration": 0.0152,
      "velocity": 100,
      "chip": "ym2612"
    },
    {
      "channel": 4,
      "note": 54,
      "start": 14.1349,
      "duration": 0.0153,
      "velocity": 100,
      "chip": "ym2612"
    },
    {
      "channel": 1,
      "note": 74,
      "start": 14.1361,
      "duration": 0.0153,
      "velocity": 83,
      "chip": "ym2612"
    },
    {
      "channel": 5,
      "note": 74,
      "start": 14.1467,
      "duration": 0.0161,
      "velocity": 83,
      "chip": "ym2612"
    },
    {
      "channel": 3,
      "note": 74,
      "start": 14.1478,
      "duration": 0.0162,
      "velocity": 100,
      "chip": "ym2612"
    },
    {
      "channel": 2,
      "note": 78,
      "start": 14.149,
      "duration": 0.0161,
      "velocity": 100,
      "chip": "ym2612"
    },
    {
      "channel": 4,
      "note": 54,
      "start": 14.1503,
      "duration": 0.0161,
      "velocity": 100,
      "chip": "ym2612"
    },
    {
      "channel": 1,
      "note": 74,
      "start": 14.1514,
      "duration": 0.0162,
      "velocity": 83,
      "chip": "ym2612"
    },
    {
      "channel": 5,
      "note": 74,
      "start": 14.1629,
      "duration": 0.0163,
      "velocity": 83,
      "chip": "ym2612"
    },
    {
      "channel": 3,
      "note": 74,
      "start": 14.164,
      "duration": 0.0164,
      "velocity": 100,
      "chip": "ym2612"
    },
    {
      "channel": 2,
      "note": 78,
      "start": 14.1651,
      "duration": 0.0164,
      "velocity": 100,
      "chip": "ym2612"
    },
    {
      "channel": 4,
      "note": 54,
      "start": 14.1664,
      "duration": 0.0164,
      "velocity": 100,
      "chip": "ym2612"
    },
    {
      "channel": 5,
      "note": 74,
      "start": 14.1792,
      "duration": 0.0163,
      "velocity": 83,
      "chip": "ym2612"
    },
    {
      "channel": 4,
      "note": 54,
      "start": 14.1828,
      "duration": 0.0174,
      "velocity": 100,
      "chip": "ym2612"
    },
    {
      "channel": 5,
      "note": 74,
      "start": 14.1956,
      "duration": 0.0162,
      "velocity": 83,
      "chip": "ym2612"
    },
    {
      "channel": 3,
      "note": 74,
      "start": 14.1971,
      "duration": 0.0158,
      "velocity": 100,
      "chip": "ym2612"
    },
    {
      "channel": 2,
      "note": 78,
      "start": 14.1987,
      "duration": 0.0155,
      "velocity": 100,
      "chip": "ym2612"
    },
    {
      "channel": 4,
      "note": 59,
      "start": 14.2001,
      "duration": 0.0152,
      "velocity": 100,
      "chip": "ym2612"
    },
    {
      "channel": 1,
      "note": 69,
      "start": 14.2017,
      "duration": 0.0149,
      "velocity": 83,
      "chip": "ym2612"
    },
    {
      "channel": 5,
      "note": 74,
      "start": 14.2117,
      "duration": 0.016,
      "velocity": 83,
      "chip": "ym2612"
    },
    {
      "channel": 3,
      "note": 74,
      "start": 14.2129,
      "duration": 0.016,
      "velocity": 100,
      "chip": "ym2612"
    },
    {
      "channel": 2,
      "note": 78,
      "start": 14.2141,
      "duration": 0.016,
      "velocity": 100,
      "chip": "ym2612"
    },
    {
      "channel": 4,
      "note": 59,
      "start": 14.2154,
      "duration": 0.016,
      "velocity": 100,
      "chip": "ym2612"
    },
    {
      "channel": 1,
      "note": 69,
      "start": 14.2166,
      "duration": 0.0158,
      "velocity": 83,
      "chip": "ym2612"
    },
    {
      "channel": 3,
      "note": 74,
      "start": 14.229,
      "duration": 0.0161,
      "velocity": 100,
      "chip": "ym2612"
    },
    {
      "channel": 2,
      "note": 78,
      "start": 14.2302,
      "duration": 0.016,
      "velocity": 100,
      "chip": "ym2612"
    },
    {
      "channel": 4,
      "note": 59,
      "start": 14.2313,
      "duration": 0.016,
      "velocity": 100,
      "chip": "ym2612"
    },
    {
      "channel": 1,
      "note": 69,
      "start": 14.2324,
      "duration": 0.0161,
      "velocity": 83,
      "chip": "ym2612"
    },
    {
      "channel": 3,
      "note": 74,
      "start": 14.2451,
      "duration": 0.0163,
      "velocity": 100,
      "chip": "ym2612"
    },
    {
      "channel": 2,
      "note": 78,
      "start": 14.2462,
      "duration": 0.0164,
      "velocity": 100,
      "chip": "ym2612"
    },
    {
      "channel": 4,
      "note": 59,
      "start": 14.2473,
      "duration": 0.0164,
      "velocity": 100,
      "chip": "ym2612"
    },
    {
      "channel": 1,
      "note": 69,
      "start": 14.2485,
      "duration": 0.0164,
      "velocity": 83,
      "chip": "ym2612"
    },
    {
      "channel": 5,
      "note": 69,
      "start": 14.2597,
      "duration": 0.0159,
      "velocity": 83,
      "chip": "ym2612"
    },
    {
      "channel": 3,
      "note": 74,
      "start": 14.2614,
      "duration": 0.0153,
      "velocity": 100,
      "chip": "ym2612"
    },
    {
      "channel": 2,
      "note": 78,
      "start": 14.2626,
      "duration": 0.0159,
      "velocity": 100,
      "chip": "ym2612"
    },
    {
      "channel": 4,
      "note": 59,
      "start": 14.2638,
      "duration": 0.0158,
      "velocity": 100,
      "chip": "ym2612"
    },
    {
      "channel": 1,
      "note": 69,
      "start": 14.265,
      "duration": 0.0159,
      "velocity": 83,
      "chip": "ym2612"
    },
    {
      "channel": 5,
      "note": 69,
      "start": 14.2756,
      "duration": 0.016,
      "velocity": 83,
      "chip": "ym2612"
    },
    {
      "channel": 3,
      "note": 74,
      "start": 14.2767,
      "duration": 0.016,
      "velocity": 100,
      "chip": "ym2612"
    },
    {
      "channel": 2,
      "note": 78,
      "start": 14.2785,
      "duration": 0.016,
      "velocity": 100,
      "chip": "ym2612"
    },
    {
      "channel": 4,
      "note": 59,
      "start": 14.2796,
      "duration": 0.0161,
      "velocity": 100,
      "chip": "ym2612"
    },
    {
      "channel": 1,
      "note": 69,
      "start": 14.2808,
      "duration": 0.0161,
      "velocity": 83,
      "chip": "ym2612"
    },
    {
      "channel": 5,
      "note": 69,
      "start": 14.2916,
      "duration": 0.0161,
      "velocity": 83,
      "chip": "ym2612"
    },
    {
      "channel": 3,
      "note": 74,
      "start": 14.2928,
      "duration": 0.0161,
      "velocity": 100,
      "chip": "ym2612"
    },
    {
      "channel": 2,
      "note": 78,
      "start": 14.2945,
      "duration": 0.0155,
      "velocity": 100,
      "chip": "ym2612"
    },
    {
      "channel": 4,
      "note": 59,
      "start": 14.2957,
      "duration": 0.0161,
      "velocity": 100,
      "chip": "ym2612"
    },
    {
      "channel": 1,
      "note": 69,
      "start": 14.2969,
      "duration": 0.016,
      "velocity": 83,
      "chip": "ym2612"
    },
    {
      "channel": 5,
      "note": 69,
      "start": 14.3077,
      "duration": 0.0161,
      "velocity": 83,
      "chip": "ym2612"
    },
    {
      "channel": 3,
      "note": 74,
      "start": 14.3089,
      "duration": 0.0161,
      "velocity": 100,
      "chip": "ym2612"
    },
    {
      "channel": 2,
      "note": 78,
      "start": 14.31,
      "duration": 0.0161,
      "velocity": 100,
      "chip": "ym2612"
    },
    {
      "channel": 4,
      "note": 59,
      "start": 14.3118,
      "duration": 0.016,
      "velocity": 100,
      "chip": "ym2612"
    },
    {
      "channel": 1,
      "note": 69,
      "start": 14.3129,
      "duration": 0.0162,
      "velocity": 83,
      "chip": "ym2612"
    },
    {
      "channel": 5,
      "note": 69,
      "start": 14.3238,
      "duration": 0.0161,
      "velocity": 83,
      "chip": "ym2612"
    },
    {
      "channel": 3,
      "note": 74,
      "start": 14.3249,
      "duration": 0.0161,
      "velocity": 100,
      "chip": "ym2612"
    },
    {
      "channel": 2,
      "note": 78,
      "start": 14.3261,
      "duration": 0.0161,
      "velocity": 100,
      "chip": "ym2612"
    },
    {
      "channel": 4,
      "note": 59,
      "start": 14.3278,
      "duration": 0.0156,
      "velocity": 100,
      "chip": "ym2612"
    },
    {
      "channel": 1,
      "note": 69,
      "start": 14.3291,
      "duration": 0.0161,
      "velocity": 83,
      "chip": "ym2612"
    },
    {
      "channel": 5,
      "note": 69,
      "start": 14.3399,
      "duration": 0.0161,
      "velocity": 83,
      "chip": "ym2612"
    },
    {
      "channel": 3,
      "note": 74,
      "start": 14.341,
      "duration": 0.0162,
      "velocity": 100,
      "chip": "ym2612"
    },
    {
      "channel": 2,
      "note": 78,
      "start": 14.3422,
      "duration": 0.0161,
      "velocity": 100,
      "chip": "ym2612"
    },
    {
      "channel": 4,
      "note": 59,
      "start": 14.3434,
      "duration": 0.0161,
      "velocity": 100,
      "chip": "ym2612"
    },
    {
      "channel": 1,
      "note": 69,
      "start": 14.3452,
      "duration": 0.016,
      "velocity": 83,
      "chip": "ym2612"
    },
    {
      "channel": 5,
      "note": 69,
      "start": 14.3561,
      "duration": 0.016,
      "velocity": 83,
      "chip": "ym2612"
    },
    {
      "channel": 3,
      "note": 74,
      "start": 14.3572,
      "duration": 0.0161,
      "velocity": 100,
      "chip": "ym2612"
    },
    {
      "channel": 2,
      "note": 78,
      "start": 14.3583,
      "duration": 0.0161,
      "velocity": 100,
      "chip": "ym2612"
    },
    {
      "channel": 4,
      "note": 59,
      "start": 14.3595,
      "duration": 0.0161,
      "velocity": 100,
      "chip": "ym2612"
    },
    {
      "channel": 1,
      "note": 69,
      "start": 14.3612,
      "duration": 0.0158,
      "velocity": 83,
      "chip": "ym2612"
    },
    {
      "channel": 5,
      "note": 69,
      "start": 14.3721,
      "duration": 0.0161,
      "velocity": 83,
      "chip": "ym2612"
    },
    {
      "channel": 3,
      "note": 74,
      "start": 14.3733,
      "duration": 0.0161,
      "velocity": 100,
      "chip": "ym2612"
    },
    {
      "channel": 2,
      "note": 78,
      "start": 14.3744,
      "duration": 0.0161,
      "velocity": 100,
      "chip": "ym2612"
    },
    {
      "channel": 4,
      "note": 59,
      "start": 14.3756,
      "duration": 0.0161,
      "velocity": 100,
      "chip": "ym2612"
    },
    {
      "channel": 1,
      "note": 69,
      "start": 14.377,
      "duration": 0.0159,
      "velocity": 83,
      "chip": "ym2612"
    },
    {
      "channel": 5,
      "note": 69,
      "start": 14.3882,
      "duration": 0.0161,
      "velocity": 83,
      "chip": "ym2612"
    },
    {
      "channel": 3,
      "note": 74,
      "start": 14.3894,
      "duration": 0.0161,
      "velocity": 100,
      "chip": "ym2612"
    },
    {
      "channel": 2,
      "note": 78,
      "start": 14.3905,
      "duration": 0.0161,
      "velocity": 100,
      "chip": "ym2612"
    },
    {
      "channel": 4,
      "note": 59,
      "start": 14.3917,
      "duration": 0.0162,
      "velocity": 100,
      "chip": "ym2612"
    },
    {
      "channel": 5,
      "note": 69,
      "start": 14.4043,
      "duration": 0.0196,
      "velocity": 83,
      "chip": "ym2612"
    },
    {
      "channel": 4,
      "note": 59,
      "start": 14.4078,
      "duration": 0.0212,
      "velocity": 100,
      "chip": "ym2612"
    },
    {
      "channel": 0,
      "note": 36,
      "start": 14.4227,
      "duration": 0.0143,
      "velocity": 115,
      "chip": "ym2612"
    },
    {
      "channel": 5,
      "note": 69,
      "start": 14.4239,
      "duration": 0.0143,
      "velocity": 83,
      "chip": "ym2612"
    },
    {
      "channel": 3,
      "note": 74,
      "start": 14.4255,
      "duration": 0.0141,
      "velocity": 100,
      "chip": "ym2612"
    },
    {
      "channel": 2,
      "note": 78,
      "start": 14.4272,
      "duration": 0.0135,
      "velocity": 100,
      "chip": "ym2612"
    },
    {
      "channel": 4,
      "note": 55,
      "start": 14.429,
      "duration": 0.0129,
      "velocity": 100,
      "chip": "ym2612"
    },
    {
      "channel": 1,
      "note": 71,
      "start": 14.4306,
      "duration": 0.0126,
      "velocity": 83,
      "chip": "ym2612"
    },
    {
      "channel": 0,
      "note": 36,
      "start": 14.437,
      "duration": 0.016,
      "velocity": 115,
      "chip": "ym2612"
    },
    {
      "channel": 5,
      "note": 69,
      "start": 14.4383,
      "duration": 0.0161,
      "velocity": 83,
      "chip": "ym2612"
    },
    {
      "channel": 3,
      "note": 74,
      "start": 14.4395,
      "duration": 0.016,
      "velocity": 100,
      "chip": "ym2612"
    },
    {
      "channel": 2,
      "note": 78,
      "start": 14.4407,
      "duration": 0.0159,
      "velocity": 100,
      "chip": "ym2612"
    },
    {
      "channel": 4,
      "note": 55,
      "start": 14.4419,
      "duration": 0.0159,
      "velocity": 100,
      "chip": "ym2612"
    },
    {
      "channel": 1,
      "note": 71,
      "start": 14.4432,
      "duration": 0.0158,
      "velocity": 83,
      "chip": "ym2612"
    },
    {
      "channel": 0,
      "note": 37,
      "start": 14.4531,
      "duration": 0.0162,
      "velocity": 115,
      "chip": "ym2612"
    },
    {
      "channel": 3,
      "note": 74,
      "start": 14.4555,
      "duration": 0.0161,
      "velocity": 100,
      "chip": "ym2612"
    },
    {
      "channel": 2,
      "note": 78,
      "start": 14.4566,
      "duration": 0.0161,
      "velocity": 100,
      "chip": "ym2612"
    },
    {
      "channel": 4,
      "note": 55,
      "start": 14.4578,
      "duration": 0.0161,
      "velocity": 100,
      "chip": "ym2612"
    },
    {
      "channel": 1,
      "note": 71,
      "start": 14.459,
      "duration": 0.0161,
      "velocity": 83,
      "chip": "ym2612"
    },
    {
      "channel": 0,
      "note": 37,
      "start": 14.4692,
      "duration": 0.0161,
      "velocity": 115,
      "chip": "ym2612"
    },
    {
      "channel": 3,
      "note": 74,
      "start": 14.4716,
      "duration": 0.0165,
      "velocity": 100,
      "chip": "ym2612"
    },
    {
      "channel": 2,
      "note": 78,
      "start": 14.4727,
      "duration": 0.0165,
      "velocity": 100,
      "chip": "ym2612"
    },
    {
      "channel": 4,
      "note": 55,
      "start": 14.4739,
      "duration": 0.0165,
      "velocity": 100,
      "chip": "ym2612"
    },
    {
      "channel": 1,
      "note": 71,
      "start": 14.4751,
      "duration": 0.0165,
      "velocity": 83,
      "chip": "ym2612"
    },
    {
      "channel": 0,
      "note": 38,
      "start": 14.4853,
      "duration": 0.0161,
      "velocity": 115,
      "chip": "ym2612"
    },
    {
      "channel": 5,
      "note": 71,
      "start": 14.4869,
      "duration": 0.0158,
      "velocity": 83,
      "chip": "ym2612"
    },
    {
      "channel": 3,
      "note": 74,
      "start": 14.488,
      "duration": 0.0158,
      "velocity": 100,
      "chip": "ym2612"
    },
    {
      "channel": 2,
      "note": 78,
      "start": 14.4892,
      "duration": 0.0158,
      "velocity": 100,
      "chip": "ym2612"
    },
    {
      "channel": 4,
      "note": 55,
      "start": 14.4904,
      "duration": 0.0157,
      "velocity": 100,
      "chip": "ym2612"
    },
    {
      "channel": 1,
      "note": 71,
      "start": 14.4916,
      "duration": 0.0158,
      "velocity": 83,
      "chip": "ym2612"
    },
    {
      "channel": 0,
      "note": 38,
      "start": 14.5014,
      "duration": 0.0161,
      "velocity": 115,
      "chip": "ym2612"
    },
    {
      "channel": 5,
      "note": 71,
      "start": 14.5027,
      "duration": 0.016,
      "velocity": 83,
      "chip": "ym2612"
    },
    {
      "channel": 3,
      "note": 74,
      "start": 14.5038,
      "duration": 0.016,
      "velocity": 100,
      "chip": "ym2612"
    },
    {
      "channel": 2,
      "note": 78,
      "start": 14.505,
      "duration": 0.016,
      "velocity": 100,
      "chip": "ym2612"
    },
    {
      "channel": 4,
      "note": 55,
      "start": 14.5061,
      "duration": 0.016,
      "velocity": 100,
      "chip": "ym2612"
    },
    {
      "channel": 1,
      "note": 71,
      "start": 14.5073,
      "duration": 0.016,
      "velocity": 83,
      "chip": "ym2612"
    },
    {
      "channel": 0,
      "note": 39,
      "start": 14.5175,
      "duration": 0.0161,
      "velocity": 115,
      "chip": "ym2612"
    },
    {
      "channel": 5,
      "note": 71,
      "start": 14.5187,
      "duration": 0.0161,
      "velocity": 83,
      "chip": "ym2612"
    },
    {
      "channel": 3,
      "note": 74,
      "start": 14.5199,
      "duration": 0.0161,
      "velocity": 100,
      "chip": "ym2612"
    },
    {
      "channel": 2,
      "note": 78,
      "start": 14.521,
      "duration": 0.0162,
      "velocity": 100,
      "chip": "ym2612"
    },
    {
      "channel": 4,
      "note": 55,
      "start": 14.5222,
      "duration": 0.0162,
      "velocity": 100,
      "chip": "ym2612"
    },
    {
      "channel": 1,
      "note": 71,
      "start": 14.5234,
      "duration": 0.0161,
      "velocity": 83,
      "chip": "ym2612"
    },
    {
      "channel": 0,
      "note": 39,
      "start": 14.5336,
      "duration": 0.0161,
      "velocity": 115,
      "chip": "ym2612"
    },
    {
      "channel": 5,
      "note": 71,
      "start": 14.5348,
      "duration": 0.0161,
      "velocity": 83,
      "chip": "ym2612"
    },
    {
      "channel": 3,
      "note": 74,
      "start": 14.536,
      "duration": 0.0161,
      "velocity": 100,
      "chip": "ym2612"
    },
    {
      "channel": 2,
      "note": 78,
      "start": 14.5372,
      "duration": 0.0161,
      "velocity": 100,
      "chip": "ym2612"
    },
    {
      "channel": 4,
      "note": 55,
      "start": 14.5383,
      "duration": 0.0161,
      "velocity": 100,
      "chip": "ym2612"
    },
    {
      "channel": 1,
      "note": 71,
      "start": 14.5395,
      "duration": 0.0161,
      "velocity": 83,
      "chip": "ym2612"
    },
    {
      "channel": 0,
      "note": 40,
      "start": 14.5497,
      "duration": 0.0161,
      "velocity": 115,
      "chip": "ym2612"
    },
    {
      "channel": 5,
      "note": 71,
      "start": 14.5509,
      "duration": 0.0161,
      "velocity": 83,
      "chip": "ym2612"
    },
    {
      "channel": 3,
      "note": 74,
      "start": 14.552,
      "duration": 0.0161,
      "velocity": 100,
      "chip": "ym2612"
    },
    {
      "channel": 2,
      "note": 78,
      "start": 14.5533,
      "duration": 0.0161,
      "velocity": 100,
      "chip": "ym2612"
    },
    {
      "channel": 4,
      "note": 55,
      "start": 14.5544,
      "duration": 0.0161,
      "velocity": 100,
      "chip": "ym2612"
    },
    {
      "channel": 1,
      "note": 71,
      "start": 14.5556,
      "duration": 0.0161,
      "velocity": 83,
      "chip": "ym2612"
    },
    {
      "channel": 0,
      "note": 40,
      "start": 14.5658,
      "duration": 0.0161,
      "velocity": 115,
      "chip": "ym2612"
    },
    {
      "channel": 5,
      "note": 71,
      "start": 14.567,
      "duration": 0.0161,
      "velocity": 83,
      "chip": "ym2612"
    },
    {
      "channel": 3,
      "note": 74,
      "start": 14.5681,
      "duration": 0.0162,
      "velocity": 100,
      "chip": "ym2612"
    },
    {
      "channel": 2,
      "note": 78,
      "start": 14.5694,
      "duration": 0.0161,
      "velocity": 100,
      "chip": "ym2612"
    },
    {
      "channel": 4,
      "note": 55,
      "start": 14.5705,
      "duration": 0.0161,
      "velocity": 100,
      "chip": "ym2612"
    },
    {
      "channel": 1,
      "note": 71,
      "start": 14.5717,
      "duration": 0.0161,
      "velocity": 83,
      "chip": "ym2612"
    },
    {
      "channel": 0,
      "note": 40,
      "start": 14.5819,
      "duration": 0.0161,
      "velocity": 115,
      "chip": "ym2612"
    },
    {
      "channel": 5,
      "note": 71,
      "start": 14.5832,
      "duration": 0.016,
      "velocity": 83,
      "chip": "ym2612"
    },
    {
      "channel": 3,
      "note": 74,
      "start": 14.5843,
      "duration": 0.0161,
      "velocity": 100,
      "chip": "ym2612"
    },
    {
      "channel": 2,
      "note": 78,
      "start": 14.5854,
      "duration": 0.0161,
      "velocity": 100,
      "chip": "ym2612"
    },
    {
      "channel": 4,
      "note": 55,
      "start": 14.5866,
      "duration": 0.0161,
      "velocity": 100,
      "chip": "ym2612"
    },
    {
      "channel": 1,
      "note": 71,
      "start": 14.5878,
      "duration": 0.0161,
      "velocity": 83,
      "chip": "ym2612"
    },
    {
      "channel": 0,
      "note": 41,
      "start": 14.598,
      "duration": 0.0162,
      "velocity": 115,
      "chip": "ym2612"
    },
    {
      "channel": 5,
      "note": 71,
      "start": 14.5992,
      "duration": 0.0161,
      "velocity": 83,
      "chip": "ym2612"
    },
    {
      "channel": 3,
      "note": 74,
      "start": 14.6004,
      "duration": 0.0161,
      "velocity": 100,
      "chip": "ym2612"
    },
    {
      "channel": 2,
      "note": 78,
      "start": 14.6015,
      "duration": 0.0161,
      "velocity": 100,
      "chip": "ym2612"
    },
    {
      "channel": 4,
      "note": 55,
      "start": 14.6027,
      "duration": 0.0161,
      "velocity": 100,
      "chip": "ym2612"
    },
    {
      "channel": 1,
      "note": 71,
      "start": 14.6039,
      "duration": 0.0161,
      "velocity": 83,
      "chip": "ym2612"
    },
    {
      "channel": 0,
      "note": 41,
      "start": 14.6141,
      "duration": 0.0161,
      "velocity": 115,
      "chip": "ym2612"
    },
    {
      "channel": 5,
      "note": 71,
      "start": 14.6153,
      "duration": 0.0162,
      "velocity": 83,
      "chip": "ym2612"
    },
    {
      "channel": 3,
      "note": 74,
      "start": 14.6165,
      "duration": 0.0162,
      "velocity": 100,
      "chip": "ym2612"
    },
    {
      "channel": 2,
      "note": 78,
      "start": 14.6176,
      "duration": 0.0161,
      "velocity": 100,
      "chip": "ym2612"
    },
    {
      "channel": 4,
      "note": 55,
      "start": 14.6188,
      "duration": 0.0162,
      "velocity": 100,
      "chip": "ym2612"
    },
    {
      "channel": 1,
      "note": 71,
      "start": 14.62,
      "duration": 0.0161,
      "velocity": 83,
      "chip": "ym2612"
    },
    {
      "channel": 0,
      "note": 42,
      "start": 14.6303,
      "duration": 0.0161,
      "velocity": 115,
      "chip": "ym2612"
    },
    {
      "channel": 5,
      "note": 71,
      "start": 14.6315,
      "duration": 0.0161,
      "velocity": 83,
      "chip": "ym2612"
    },
    {
      "channel": 4,
      "note": 55,
      "start": 14.635,
      "duration": 0.017,
      "velocity": 100,
      "chip": "ym2612"
    },
    {
      "channel": 1,
      "note": 71,
      "start": 14.6361,
      "duration": 0.0171,
      "velocity": 83,
      "chip": "ym2612"
    },
    {
      "channel": 0,
      "note": 42,
      "start": 14.6464,
      "duration": 0.0164,
      "velocity": 115,
      "chip": "ym2612"
    },
    {
      "channel": 5,
      "note": 71,
      "start": 14.6476,
      "duration": 0.0164,
      "velocity": 83,
      "chip": "ym2612"
    },
    {
      "channel": 3,
      "note": 71,
      "start": 14.6493,
      "duration": 0.016,
      "velocity": 100,
      "chip": "ym2612"
    },
    {
      "channel": 2,
      "note": 74,
      "start": 14.6509,
      "duration": 0.0155,
      "velocity": 100,
      "chip": "ym2612"
    },
    {
      "channel": 4,
      "note": 55,
      "start": 14.652,
      "duration": 0.0155,
      "velocity": 100,
      "chip": "ym2612"
    },
    {
      "channel": 1,
      "note": 71,
      "start": 14.6533,
      "duration": 0.0155,
      "velocity": 83,
      "chip": "ym2612"
    },
    {
      "channel": 0,
      "note": 43,
      "start": 14.6628,
      "duration": 0.0163,
      "velocity": 115,
      "chip": "ym2612"
    },
    {
      "channel": 5,
      "note": 71,
      "start": 14.664,
      "duration": 0.0163,
      "velocity": 83,
      "chip": "ym2612"
    },
    {
      "channel": 3,
      "note": 71,
      "start": 14.6652,
      "duration": 0.0163,
      "velocity": 100,
      "chip": "ym2612"
    },
    {
      "channel": 2,
      "note": 74,
      "start": 14.6664,
      "duration": 0.0162,
      "velocity": 100,
      "chip": "ym2612"
    },
    {
      "channel": 4,
      "note": 55,
      "start": 14.6676,
      "duration": 0.0162,
      "velocity": 100,
      "chip": "ym2612"
    },
    {
      "channel": 1,
      "note": 71,
      "start": 14.6688,
      "duration": 0.0162,
      "velocity": 83,
      "chip": "ym2612"
    },
    {
      "channel": 0,
      "note": 43,
      "start": 14.6791,
      "duration": 0.0161,
      "velocity": 115,
      "chip": "ym2612"
    },
    {
      "channel": 5,
      "note": 71,
      "start": 14.6804,
      "duration": 0.016,
      "velocity": 83,
      "chip": "ym2612"
    },
    {
      "channel": 3,
      "note": 71,
      "start": 14.6815,
      "duration": 0.0161,
      "velocity": 100,
      "chip": "ym2612"
    },
    {
      "channel": 2,
      "note": 74,
      "start": 14.6827,
      "duration": 0.0161,
      "velocity": 100,
      "chip": "ym2612"
    },
    {
      "channel": 4,
      "note": 55,
      "start": 14.6838,
      "duration": 0.0161,
      "velocity": 100,
      "chip": "ym2612"
    },
    {
      "channel": 1,
      "note": 71,
      "start": 14.685,
      "duration": 0.0161,
      "velocity": 83,
      "chip": "ym2612"
    },
    {
      "channel": 0,
      "note": 44,
      "start": 14.6952,
      "duration": 0.016,
      "velocity": 115,
      "chip": "ym2612"
    },
    {
      "channel": 5,
      "note": 71,
      "start": 14.6964,
      "duration": 0.0161,
      "velocity": 83,
      "chip": "ym2612"
    },
    {
      "channel": 3,
      "note": 71,
      "start": 14.6976,
      "duration": 0.0161,
      "velocity": 100,
      "chip": "ym2612"
    },
    {
      "channel": 2,
      "note": 74,
      "start": 14.6988,
      "duration": 0.0161,
      "velocity": 100,
      "chip": "ym2612"
    },
    {
      "channel": 4,
      "note": 55,
      "start": 14.6999,
      "duration": 0.0162,
      "velocity": 100,
      "chip": "ym2612"
    },
    {
      "channel": 1,
      "note": 71,
      "start": 14.7011,
      "duration": 0.0162,
      "velocity": 83,
      "chip": "ym2612"
    },
    {
      "channel": 0,
      "note": 44,
      "start": 14.7113,
      "duration": 0.0158,
      "velocity": 115,
      "chip": "ym2612"
    },
    {
      "channel": 5,
      "note": 71,
      "start": 14.7125,
      "duration": 0.0161,
      "velocity": 83,
      "chip": "ym2612"
    },
    {
      "channel": 3,
      "note": 71,
      "start": 14.7137,
      "duration": 0.0161,
      "velocity": 100,
      "chip": "ym2612"
    },
    {
      "channel": 2,
      "note": 74,
      "start": 14.7148,
      "duration": 0.0161,
      "velocity": 100,
      "chip": "ym2612"
    },
    {
      "channel": 4,
      "note": 55,
      "start": 14.7161,
      "duration": 0.0161,
      "velocity": 100,
      "chip": "ym2612"
    },
    {
      "channel": 1,
      "note": 71,
      "start": 14.7173,
      "duration": 0.0161,
      "velocity": 83,
      "chip": "ym2612"
    },
    {
      "channel": 0,
      "note": 44,
      "start": 14.7271,
      "duration": 0.0159,
      "velocity": 115,
      "chip": "ym2612"
    },
    {
      "channel": 5,
      "note": 71,
      "start": 14.7286,
      "duration": 0.016,
      "velocity": 83,
      "chip": "ym2612"
    },
    {
      "channel": 3,
      "note": 71,
      "start": 14.7298,
      "duration": 0.0161,
      "velocity": 100,
      "chip": "ym2612"
    },
    {
      "channel": 2,
      "note": 74,
      "start": 14.7309,
      "duration": 0.0161,
      "velocity": 100,
      "chip": "ym2612"
    },
    {
      "channel": 4,
      "note": 55,
      "start": 14.7321,
      "duration": 0.0161,
      "velocity": 100,
      "chip": "ym2612"
    },
    {
      "channel": 0,
      "note": 45,
      "start": 14.7429,
      "duration": 0.0184,
      "velocity": 115,
      "chip": "ym2612"
    },
    {
      "channel": 5,
      "note": 71,
      "start": 14.7447,
      "duration": 0.018,
      "velocity": 83,
      "chip": "ym2612"
    },
    {
      "channel": 3,
      "note": 71,
      "start": 14.7459,
      "duration": 0.0179,
      "velocity": 100,
      "chip": "ym2612"
    },
    {
      "channel": 2,
      "note": 74,
      "start": 14.747,
      "duration": 0.0179,
      "velocity": 100,
      "chip": "ym2612"
    },
    {
      "channel": 4,
      "note": 55,
      "start": 14.7482,
      "duration": 0.0181,
      "velocity": 100,
      "chip": "ym2612"
    },
    {
      "channel": 0,
      "note": 36,
      "start": 14.7614,
      "duration": 0.0138,
      "velocity": 115,
      "chip": "ym2612"
    },
    {
      "channel": 5,
      "note": 71,
      "start": 14.7627,
      "duration": 0.0137,
      "velocity": 83,
      "chip": "ym2612"
    },
    {
      "channel": 3,
      "note": 71,
      "start": 14.7638,
      "duration": 0.0143,
      "velocity": 100,
      "chip": "ym2612"
    },
    {
      "channel": 2,
      "note": 74,
      "start": 14.765,
      "duration": 0.0144,
      "velocity": 100,
      "chip": "ym2612"
    },
    {
      "channel": 4,
      "note": 50,
      "start": 14.7664,
      "duration": 0.0141,
      "velocity": 100,
      "chip": "ym2612"
    },
    {
      "channel": 1,
      "note": 74,
      "start": 14.7679,
      "duration": 0.0139,
      "velocity": 83,
      "chip": "ym2612"
    },
    {
      "channel": 0,
      "note": 36,
      "start": 14.7752,
      "duration": 0.016,
      "velocity": 115,
      "chip": "ym2612"
    },
    {
      "channel": 5,
      "note": 71,
      "start": 14.7764,
      "duration": 0.016,
      "velocity": 83,
      "chip": "ym2612"
    },
    {
      "channel": 3,
      "note": 71,
      "start": 14.7781,
      "duration": 0.0157,
      "velocity": 100,
      "chip": "ym2612"
    },
    {
      "channel": 2,
      "note": 74,
      "start": 14.7793,
      "duration": 0.016,
      "velocity": 100,
      "chip": "ym2612"
    },
    {
      "channel": 4,
      "note": 50,
      "start": 14.7805,
      "duration": 0.016,
      "velocity": 100,
      "chip": "ym2612"
    },
    {
      "channel": 1,
      "note": 74,
      "start": 14.7818,
      "duration": 0.0159,
      "velocity": 83,
      "chip": "ym2612"
    },
    {
      "channel": 0,
      "note": 37,
      "start": 14.7912,
      "duration": 0.0161,
      "velocity": 115,
      "chip": "ym2612"
    },
    {
      "channel": 3,
      "note": 71,
      "start": 14.7938,
      "duration": 0.0159,
      "velocity": 100,
      "chip": "ym2612"
    },
    {
      "channel": 2,
      "note": 74,
      "start": 14.7953,
      "duration": 0.016,
      "velocity": 100,
      "chip": "ym2612"
    },
    {
      "channel": 4,
      "note": 50,
      "start": 14.7965,
      "duration": 0.0161,
      "velocity": 100,
      "chip": "ym2612"
    },
    {
      "channel": 1,
      "note": 74,
      "start": 14.7977,
      "duration": 0.0161,
      "velocity": 83,
      "chip": "ym2612"
    },
    {
      "channel": 0,
      "note": 37,
      "start": 14.8073,
      "duration": 0.0161,
      "velocity": 115,
      "chip": "ym2612"
    },
    {
      "channel": 3,
      "note": 71,
      "start": 14.8097,
      "duration": 0.0164,
      "velocity": 100,
      "chip": "ym2612"
    },
    {
      "channel": 2,
      "note": 74,
      "start": 14.8113,
      "duration": 0.0165,
      "velocity": 100,
      "chip": "ym2612"
    },
    {
      "channel": 4,
      "note": 50,
      "start": 14.8126,
      "duration": 0.0164,
      "velocity": 100,
      "chip": "ym2612"
    },
    {
      "channel": 1,
      "note": 74,
      "start": 14.8138,
      "duration": 0.0164,
      "velocity": 83,
      "chip": "ym2612"
    },
    {
      "channel": 0,
      "note": 38,
      "start": 14.8234,
      "duration": 0.0161,
      "velocity": 115,
      "chip": "ym2612"
    },
    {
      "channel": 5,
      "note": 74,
      "start": 14.8249,
      "duration": 0.0159,
      "velocity": 83,
      "chip": "ym2612"
    },
    {
      "channel": 3,
      "note": 71,
      "start": 14.8261,
      "duration": 0.0158,
      "velocity": 100,
      "chip": "ym2612"
    },
    {
      "channel": 2,
      "note": 74,
      "start": 14.8278,
      "duration": 0.0153,
      "velocity": 100,
      "chip": "ym2612"
    },
    {
      "channel": 4,
      "note": 50,
      "start": 14.829,
      "duration": 0.0158,
      "velocity": 100,
      "chip": "ym2612"
    },
    {
      "channel": 1,
      "note": 74,
      "start": 14.8302,
      "duration": 0.0159,
      "velocity": 83,
      "chip": "ym2612"
    },
    {
      "channel": 0,
      "note": 38,
      "start": 14.8395,
      "duration": 0.0161,
      "velocity": 115,
      "chip": "ym2612"
    },
    {
      "channel": 5,
      "note": 74,
      "start": 14.8408,
      "duration": 0.016,
      "velocity": 83,
      "chip": "ym2612"
    },
    {
      "channel": 3,
      "note": 71,
      "start": 14.8419,
      "duration": 0.016,
      "velocity": 100,
      "chip": "ym2612"
    },
    {
      "channel": 2,
      "note": 74,
      "start": 14.8432,
      "duration": 0.016,
      "velocity": 100,
      "chip": "ym2612"
    },
    {
      "channel": 4,
      "note": 50,
      "start": 14.8448,
      "duration": 0.0158,
      "velocity": 100,
      "chip": "ym2612"
    },
    {
      "channel": 1,
      "note": 74,
      "start": 14.8461,
      "duration": 0.0161,
      "velocity": 83,
      "chip": "ym2612"
    },
    {
      "channel": 0,
      "note": 39,
      "start": 14.8556,
      "duration": 0.0179,
      "velocity": 124,
      "chip": "ym2612"
    },
    {
      "channel": 5,
      "note": 74,
      "start": 14.8568,
      "duration": 0.018,
      "velocity": 83,
      "chip": "ym2612"
    },
    {
      "channel": 4,
      "note": 50,
      "start": 14.8606,
      "duration": 0.019,
      "velocity": 100,
      "chip": "ym2612"
    },
    {
      "channel": 1,
      "note": 74,
      "start": 14.8622,
      "duration": 0.0186,
      "velocity": 83,
      "chip": "ym2612"
    },
    {
      "channel": 0,
      "note": 84,
      "start": 14.8736,
      "duration": 0.0142,
      "velocity": 124,
      "chip": "ym2612"
    },
    {
      "channel": 5,
      "note": 74,
      "start": 14.8748,
      "duration": 0.0142,
      "velocity": 83,
      "chip": "ym2612"
    },
    {
      "channel": 3,
      "note": 71,
      "start": 14.8763,
      "duration": 0.014,
      "velocity": 100,
      "chip": "ym2612"
    },
    {
      "channel": 2,
      "note": 74,
      "start": 14.8784,
      "duration": 0.0132,
      "velocity": 100,
      "chip": "ym2612"
    },
    {
      "channel": 4,
      "note": 50,
      "start": 14.8795,
      "duration": 0.0132,
      "velocity": 100,
      "chip": "ym2612"
    },
    {
      "channel": 1,
      "note": 74,
      "start": 14.8807,
      "duration": 0.0137,
      "velocity": 83,
      "chip": "ym2612"
    },
    {
      "channel": 0,
      "note": 82,
      "start": 14.8879,
      "duration": 0.0161,
      "velocity": 124,
      "chip": "ym2612"
    },
    {
      "channel": 5,
      "note": 74,
      "start": 14.8891,
      "duration": 0.0161,
      "velocity": 83,
      "chip": "ym2612"
    },
    {
      "channel": 3,
      "note": 71,
      "start": 14.8903,
      "duration": 0.016,
      "velocity": 100,
      "chip": "ym2612"
    },
    {
      "channel": 2,
      "note": 74,
      "start": 14.8916,
      "duration": 0.0159,
      "velocity": 100,
      "chip": "ym2612"
    },
    {
      "channel": 4,
      "note": 50,
      "start": 14.8927,
      "duration": 0.0159,
      "velocity": 100,
      "chip": "ym2612"
    },
    {
      "channel": 1,
      "note": 74,
      "start": 14.8944,
      "duration": 0.0154,
      "velocity": 83,
      "chip": "ym2612"
    },
    {
      "channel": 0,
      "note": 80,
      "start": 14.904,
      "duration": 0.0161,
      "velocity": 124,
      "chip": "ym2612"
    },
    {
      "channel": 5,
      "note": 74,
      "start": 14.9052,
      "duration": 0.0161,
      "velocity": 83,
      "chip": "ym2612"
    },
    {
      "channel": 3,
      "note": 71,
      "start": 14.9063,
      "duration": 0.0161,
      "velocity": 100,
      "chip": "ym2612"
    },
    {
      "channel": 2,
      "note": 74,
      "start": 14.9075,
      "duration": 0.0161,
      "velocity": 100,
      "chip": "ym2612"
    },
    {
      "channel": 4,
      "note": 50,
      "start": 14.9086,
      "duration": 0.0161,
      "velocity": 100,
      "chip": "ym2612"
    },
    {
      "channel": 1,
      "note": 74,
      "start": 14.9098,
      "duration": 0.0161,
      "velocity": 83,
      "chip": "ym2612"
    },
    {
      "channel": 0,
      "note": 77,
      "start": 14.92,
      "duration": 0.0161,
      "velocity": 124,
      "chip": "ym2612"
    },
    {
      "channel": 5,
      "note": 74,
      "start": 14.9213,
      "duration": 0.0161,
      "velocity": 83,
      "chip": "ym2612"
    },
    {
      "channel": 3,
      "note": 71,
      "start": 14.9224,
      "duration": 0.0161,
      "velocity": 100,
      "chip": "ym2612"
    },
    {
      "channel": 2,
      "note": 74,
      "start": 14.9236,
      "duration": 0.0161,
      "velocity": 100,
      "chip": "ym2612"
    },
    {
      "channel": 4,
      "note": 50,
      "start": 14.9247,
      "duration": 0.0161,
      "velocity": 100,
      "chip": "ym2612"
    },
    {
      "channel": 1,
      "note": 74,
      "start": 14.9259,
      "duration": 0.0161,
      "velocity": 83,
      "chip": "ym2612"
    },
    {
      "channel": 0,
      "note": 75,
      "start": 14.9361,
      "duration": 0.0161,
      "velocity": 124,
      "chip": "ym2612"
    },
    {
      "channel": 5,
      "note": 74,
      "start": 14.9373,
      "duration": 0.0161,
      "velocity": 83,
      "chip": "ym2612"
    },
    {
      "channel": 3,
      "note": 71,
      "start": 14.9385,
      "duration": 0.0161,
      "velocity": 100,
      "chip": "ym2612"
    },
    {
      "channel": 2,
      "note": 74,
      "start": 14.9396,
      "duration": 0.0161,
      "velocity": 100,
      "chip": "ym2612"
    },
    {
      "channel": 4,
      "note": 50,
      "start": 14.9408,
      "duration": 0.0161,
      "velocity": 100,
      "chip": "ym2612"
    },
    {
      "channel": 1,
      "note": 74,
      "start": 14.942,
      "duration": 0.0161,
      "velocity": 83,
      "chip": "ym2612"
    },
    {
      "channel": 0,
      "note": 72,
      "start": 14.9522,
      "duration": 0.0161,
      "velocity": 124,
      "chip": "ym2612"
    },
    {
      "channel": 5,
      "note": 74,
      "start": 14.9534,
      "duration": 0.0161,
      "velocity": 83,
      "chip": "ym2612"
    },
    {
      "channel": 3,
      "note": 71,
      "start": 14.9546,
      "duration": 0.0161,
      "velocity": 100,
      "chip": "ym2612"
    },
    {
      "channel": 2,
      "note": 74,
      "start": 14.9557,
      "duration": 0.0162,
      "velocity": 100,
      "chip": "ym2612"
    },
    {
      "channel": 4,
      "note": 50,
      "start": 14.9569,
      "duration": 0.0161,
      "velocity": 100,
      "chip": "ym2612"
    },
    {
      "channel": 1,
      "note": 74,
      "start": 14.9581,
      "duration": 0.0161,
      "velocity": 83,
      "chip": "ym2612"
    },
    {
      "channel": 0,
      "note": 70,
      "start": 14.9683,
      "duration": 0.0161,
      "velocity": 124,
      "chip": "ym2612"
    },
    {
      "channel": 5,
      "note": 74,
      "start": 14.9695,
      "duration": 0.0161,
      "velocity": 83,
      "chip": "ym2612"
    },
    {
      "channel": 3,
      "note": 71,
      "start": 14.9707,
      "duration": 0.0161,
      "velocity": 100,
      "chip": "ym2612"
    },
    {
      "channel": 2,
      "note": 74,
      "start": 14.9719,
      "duration": 0.0161,
      "velocity": 100,
      "chip": "ym2612"
    },
    {
      "channel": 4,
      "note": 50,
      "start": 14.973,
      "duration": 0.0161,
      "velocity": 100,
      "chip": "ym2612"
    },
    {
      "channel": 1,
      "note": 74,
      "start": 14.9742,
      "duration": 0.0161,
      "velocity": 83,
      "chip": "ym2612"
    },
    {
      "channel": 0,
      "note": 68,
      "start": 14.9844,
      "duration": 0.0161,
      "velocity": 124,
      "chip": "ym2612"
    },
    {
      "channel": 5,
      "note": 74,
      "start": 14.9856,
      "duration": 0.0161,
      "velocity": 83,
      "chip": "ym2612"
    },
    {
      "channel": 3,
      "note": 71,
      "start": 14.9868,
      "duration": 0.0161,
      "velocity": 100,
      "chip": "ym2612"
    },
    {
      "channel": 2,
      "note": 74,
      "start": 14.988,
      "duration": 0.0161,
      "velocity": 100,
      "chip": "ym2612"
    },
    {
      "channel": 4,
      "note": 50,
      "start": 14.9891,
      "duration": 0.0161,
      "velocity": 100,
      "chip": "ym2612"
    },
    {
      "channel": 1,
      "note": 74,
      "start": 14.9903,
      "duration": 0.0161,
      "velocity": 83,
      "chip": "ym2612"
    },
    {
      "channel": 0,
      "note": 65,
      "start": 15.0005,
      "duration": 0.0161,
      "velocity": 124,
      "chip": "ym2612"
    },
    {
      "channel": 5,
      "note": 74,
      "start": 15.0017,
      "duration": 0.0161,
      "velocity": 83,
      "chip": "ym2612"
    },
    {
      "channel": 3,
      "note": 71,
      "start": 15.0029,
      "duration": 0.0162,
      "velocity": 100,
      "chip": "ym2612"
    },
    {
      "channel": 2,
      "note": 74,
      "start": 15.0041,
      "duration": 0.0161,
      "velocity": 100,
      "chip": "ym2612"
    },
    {
      "channel": 4,
      "note": 50,
      "start": 15.0052,
      "duration": 0.0161,
      "velocity": 100,
      "chip": "ym2612"
    },
    {
      "channel": 1,
      "note": 74,
      "start": 15.0064,
      "duration": 0.0162,
      "velocity": 83,
      "chip": "ym2612"
    },
    {
      "channel": 0,
      "note": 63,
      "start": 15.0166,
      "duration": 0.0153,
      "velocity": 1,
      "chip": "ym2612"
    },
    {
      "channel": 5,
      "note": 74,
      "start": 15.0178,
      "duration": 0.0153,
      "velocity": 83,
      "chip": "ym2612"
    },
    {
      "channel": 3,
      "note": 71,
      "start": 15.019,
      "duration": 0.0153,
      "velocity": 100,
      "chip": "ym2612"
    },
    {
      "channel": 2,
      "note": 74,
      "start": 15.0202,
      "duration": 0.0153,
      "velocity": 100,
      "chip": "ym2612"
    },
    {
      "channel": 4,
      "note": 50,
      "start": 15.0213,
      "duration": 0.0153,
      "velocity": 100,
      "chip": "ym2612"
    },
    {
      "channel": 1,
      "note": 74,
      "start": 15.0225,
      "duration": 0.0153,
      "velocity": 83,
      "chip": "ym2612"
    },
    {
      "channel": 5,
      "note": 74,
      "start": 15.0331,
      "duration": 0.0153,
      "velocity": 83,
      "chip": "ym2612"
    },
    {
      "channel": 3,
      "note": 71,
      "start": 15.0343,
      "duration": 0.0152,
      "velocity": 100,
      "chip": "ym2612"
    },
    {
      "channel": 2,
      "note": 74,
      "start": 15.0354,
      "duration": 0.0152,
      "velocity": 100,
      "chip": "ym2612"
    },
    {
      "channel": 4,
      "note": 50,
      "start": 15.0366,
      "duration": 0.0153,
      "velocity": 100,
      "chip": "ym2612"
    },
    {
      "channel": 1,
      "note": 74,
      "start": 15.0378,
      "duration": 0.0153,
      "velocity": 83,
      "chip": "ym2612"
    },
    {
      "channel": 5,
      "note": 74,
      "start": 15.0484,
      "duration": 0.0161,
      "velocity": 83,
      "chip": "ym2612"
    },
    {
      "channel": 3,
      "note": 71,
      "start": 15.0495,
      "duration": 0.0161,
      "velocity": 100,
      "chip": "ym2612"
    },
    {
      "channel": 2,
      "note": 74,
      "start": 15.0507,
      "duration": 0.0161,
      "velocity": 100,
      "chip": "ym2612"
    },
    {
      "channel": 4,
      "note": 50,
      "start": 15.0519,
      "duration": 0.0161,
      "velocity": 100,
      "chip": "ym2612"
    },
    {
      "channel": 1,
      "note": 74,
      "start": 15.0531,
      "duration": 0.0161,
      "velocity": 83,
      "chip": "ym2612"
    },
    {
      "channel": 5,
      "note": 74,
      "start": 15.0645,
      "duration": 0.0161,
      "velocity": 83,
      "chip": "ym2612"
    },
    {
      "channel": 3,
      "note": 71,
      "start": 15.0656,
      "duration": 0.0162,
      "velocity": 100,
      "chip": "ym2612"
    },
    {
      "channel": 2,
      "note": 74,
      "start": 15.0668,
      "duration": 0.0161,
      "velocity": 100,
      "chip": "ym2612"
    },
    {
      "channel": 4,
      "note": 50,
      "start": 15.068,
      "duration": 0.0161,
      "velocity": 100,
      "chip": "ym2612"
    },
    {
      "channel": 5,
      "note": 74,
      "start": 15.0805,
      "duration": 0.0162,
      "velocity": 83,
      "chip": "ym2612"
    },
    {
      "channel": 4,
      "note": 50,
      "start": 15.0841,
      "duration": 0.0172,
      "velocity": 100,
      "chip": "ym2612"
    },
    {
      "channel": 5,
      "note": 74,
      "start": 15.0967,
      "duration": 0.0161,
      "velocity": 83,
      "chip": "ym2612"
    },
    {
      "channel": 3,
      "note": 71,
      "start": 15.0983,
      "duration": 0.0158,
      "velocity": 100,
      "chip": "ym2612"
    },
    {
      "channel": 2,
      "note": 74,
      "start": 15.0998,
      "duration": 0.0155,
      "velocity": 100,
      "chip": "ym2612"
    },
    {
      "channel": 4,
      "note": 55,
      "start": 15.1014,
      "duration": 0.0151,
      "velocity": 100,
      "chip": "ym2612"
    },
    {
      "channel": 1,
      "note": 71,
      "start": 15.1028,
      "duration": 0.0149,
      "velocity": 83,
      "chip": "ym2612"
    },
    {
      "channel": 5,
      "note": 74,
      "start": 15.1129,
      "duration": 0.0163,
      "velocity": 83,
      "chip": "ym2612"
    },
    {
      "channel": 3,
      "note": 71,
      "start": 15.1141,
      "duration": 0.0163,
      "velocity": 100,
      "chip": "ym2612"
    },
    {
      "channel": 2,
      "note": 74,
      "start": 15.1153,
      "duration": 0.0162,
      "velocity": 100,
      "chip": "ym2612"
    },
    {
      "channel": 4,
      "note": 55,
      "start": 15.1165,
      "duration": 0.0162,
      "velocity": 100,
      "chip": "ym2612"
    },
    {
      "channel": 1,
      "note": 71,
      "start": 15.1178,
      "duration": 0.0161,
      "velocity": 83,
      "chip": "ym2612"
    },
    {
      "channel": 3,
      "note": 71,
      "start": 15.1304,
      "duration": 0.0163,
      "velocity": 100,
      "chip": "ym2612"
    },
    {
      "channel": 2,
      "note": 74,
      "start": 15.1315,
      "duration": 0.0163,
      "velocity": 100,
      "chip": "ym2612"
    },
    {
      "channel": 4,
      "note": 55,
      "start": 15.1327,
      "duration": 0.0163,
      "velocity": 100,
      "chip": "ym2612"
    },
    {
      "channel": 1,
      "note": 71,
      "start": 15.1339,
      "duration": 0.0163,
      "velocity": 83,
      "chip": "ym2612"
    },
    {
      "channel": 3,
      "note": 71,
      "start": 15.1467,
      "duration": 0.0164,
      "velocity": 100,
      "chip": "ym2612"
    },
    {
      "channel": 2,
      "note": 74,
      "start": 15.1478,
      "duration": 0.0164,
      "velocity": 100,
      "chip": "ym2612"
    },
    {
      "channel": 4,
      "note": 55,
      "start": 15.149,
      "duration": 0.0165,
      "velocity": 100,
      "chip": "ym2612"
    },
    {
      "channel": 1,
      "note": 71,
      "start": 15.1502,
      "duration": 0.0164,
      "velocity": 83,
      "chip": "ym2612"
    },
    {
      "channel": 5,
      "note": 71,
      "start": 15.162,
      "duration": 0.0158,
      "velocity": 83,
      "chip": "ym2612"
    },
    {
      "channel": 3,
      "note": 71,
      "start": 15.1631,
      "duration": 0.0158,
      "velocity": 100,
      "chip": "ym2612"
    },
    {
      "channel": 2,
      "note": 74,
      "start": 15.1643,
      "duration": 0.0159,
      "velocity": 100,
      "chip": "ym2612"
    },
    {
      "channel": 4,
      "note": 55,
      "start": 15.1655,
      "duration": 0.0159,
      "velocity": 100,
      "chip": "ym2612"
    },
    {
      "channel": 1,
      "note": 71,
      "start": 15.1666,
      "duration": 0.0158,
      "velocity": 83,
      "chip": "ym2612"
    },
    {
      "channel": 5,
      "note": 71,
      "start": 15.1778,
      "duration": 0.0155,
      "velocity": 83,
      "chip": "ym2612"
    },
    {
      "channel": 3,
      "note": 71,
      "start": 15.179,
      "duration": 0.016,
      "velocity": 100,
      "chip": "ym2612"
    },
    {
      "channel": 2,
      "note": 74,
      "start": 15.1802,
      "duration": 0.016,
      "velocity": 100,
      "chip": "ym2612"
    },
    {
      "channel": 4,
      "note": 55,
      "start": 15.1813,
      "duration": 0.016,
      "velocity": 100,
      "chip": "ym2612"
    },
    {
      "channel": 1,
      "note": 71,
      "start": 15.1824,
      "duration": 0.0161,
      "velocity": 83,
      "chip": "ym2612"
    },
    {
      "channel": 5,
      "note": 71,
      "start": 15.1933,
      "duration": 0.0161,
      "velocity": 83,
      "chip": "ym2612"
    },
    {
      "channel": 3,
      "note": 71,
      "start": 15.195,
      "duration": 0.0161,
      "velocity": 100,
      "chip": "ym2612"
    },
    {
      "channel": 2,
      "note": 74,
      "start": 15.1962,
      "duration": 0.0161,
      "velocity": 100,
      "chip": "ym2612"
    },
    {
      "channel": 4,
      "note": 55,
      "start": 15.1973,
      "duration": 0.0161,
      "velocity": 100,
      "chip": "ym2612"
    },
    {
      "channel": 1,
      "note": 71,
      "start": 15.1985,
      "duration": 0.016,
      "velocity": 83,
      "chip": "ym2612"
    },
    {
      "channel": 5,
      "note": 71,
      "start": 15.2094,
      "duration": 0.0161,
      "velocity": 83,
      "chip": "ym2612"
    },
    {
      "channel": 3,
      "note": 71,
      "start": 15.2111,
      "duration": 0.0156,
      "velocity": 100,
      "chip": "ym2612"
    },
    {
      "channel": 2,
      "note": 74,
      "start": 15.2123,
      "duration": 0.016,
      "velocity": 100,
      "chip": "ym2612"
    },
    {
      "channel": 4,
      "note": 55,
      "start": 15.2134,
      "duration": 0.0161,
      "velocity": 100,
      "chip": "ym2612"
    },
    {
      "channel": 1,
      "note": 71,
      "start": 15.2146,
      "duration": 0.0162,
      "velocity": 83,
      "chip": "ym2612"
    },
    {
      "channel": 5,
      "note": 71,
      "start": 15.2255,
      "duration": 0.0161,
      "velocity": 83,
      "chip": "ym2612"
    },
    {
      "channel": 3,
      "note": 71,
      "start": 15.2267,
      "duration": 0.0161,
      "velocity": 100,
      "chip": "ym2612"
    },
    {
      "channel": 2,
      "note": 74,
      "start": 15.2283,
      "duration": 0.0161,
      "velocity": 100,
      "chip": "ym2612"
    },
    {
      "channel": 4,
      "note": 55,
      "start": 15.2295,
      "duration": 0.0161,
      "velocity": 100,
      "chip": "ym2612"
    },
    {
      "channel": 1,
      "note": 71,
      "start": 15.2307,
      "duration": 0.0161,
      "velocity": 83,
      "chip": "ym2612"
    },
    {
      "channel": 5,
      "note": 71,
      "start": 15.2416,
      "duration": 0.0161,
      "velocity": 83,
      "chip": "ym2612"
    },
    {
      "channel": 3,
      "note": 71,
      "start": 15.2428,
      "duration": 0.0161,
      "velocity": 100,
      "chip": "ym2612"
    },
    {
      "channel": 2,
      "note": 74,
      "start": 15.2444,
      "duration": 0.0156,
      "velocity": 100,
      "chip": "ym2612"
    },
    {
      "channel": 4,
      "note": 55,
      "start": 15.2456,
      "duration": 0.0161,
      "velocity": 100,
      "chip": "ym2612"
    },
    {
      "channel": 1,
      "note": 71,
      "start": 15.2468,
      "duration": 0.0161,
      "velocity": 83,
      "chip": "ym2612"
    },
    {
      "channel": 5,
      "note": 71,
      "start": 15.2577,
      "duration": 0.016,
      "velocity": 83,
      "chip": "ym2612"
    },
    {
      "channel": 3,
      "note": 71,
      "start": 15.2589,
      "duration": 0.0161,
      "velocity": 100,
      "chip": "ym2612"
    },
    {
      "channel": 2,
      "note": 74,
      "start": 15.26,
      "duration": 0.0161,
      "velocity": 100,
      "chip": "ym2612"
    },
    {
      "channel": 4,
      "note": 55,
      "start": 15.2617,
      "duration": 0.016,
      "velocity": 100,
      "chip": "ym2612"
    },
    {
      "channel": 1,
      "note": 71,
      "start": 15.2629,
      "duration": 0.0161,
      "velocity": 83,
      "chip": "ym2612"
    },
    {
      "channel": 5,
      "note": 71,
      "start": 15.2737,
      "duration": 0.0161,
      "velocity": 83,
      "chip": "ym2612"
    },
    {
      "channel": 3,
      "note": 71,
      "start": 15.2749,
      "duration": 0.0161,
      "velocity": 100,
      "chip": "ym2612"
    },
    {
      "channel": 2,
      "note": 74,
      "start": 15.2761,
      "duration": 0.0161,
      "velocity": 100,
      "chip": "ym2612"
    },
    {
      "channel": 4,
      "note": 55,
      "start": 15.2778,
      "duration": 0.0156,
      "velocity": 100,
      "chip": "ym2612"
    },
    {
      "channel": 1,
      "note": 71,
      "start": 15.279,
      "duration": 0.0161,
      "velocity": 83,
      "chip": "ym2612"
    },
    {
      "channel": 5,
      "note": 71,
      "start": 15.2898,
      "duration": 0.0161,
      "velocity": 83,
      "chip": "ym2612"
    },
    {
      "channel": 3,
      "note": 71,
      "start": 15.291,
      "duration": 0.0161,
      "velocity": 100,
      "chip": "ym2612"
    },
    {
      "channel": 2,
      "note": 74,
      "start": 15.2922,
      "duration": 0.0161,
      "velocity": 100,
      "chip": "ym2612"
    },
    {
      "channel": 4,
      "note": 55,
      "start": 15.2933,
      "duration": 0.0162,
      "velocity": 100,
      "chip": "ym2612"
    },
    {
      "channel": 1,
      "note": 71,
      "start": 15.2951,
      "duration": 0.0161,
      "velocity": 83,
      "chip": "ym2612"
    },
    {
      "channel": 5,
      "note": 71,
      "start": 15.306,
      "duration": 0.0197,
      "velocity": 83,
      "chip": "ym2612"
    },
    {
      "channel": 4,
      "note": 55,
      "start": 15.3095,
      "duration": 0.0212,
      "velocity": 100,
      "chip": "ym2612"
    },
    {
      "channel": 1,
      "note": 71,
      "start": 15.3112,
      "duration": 0.0207,
      "velocity": 83,
      "chip": "ym2612"
    },
    {
      "channel": 0,
      "note": 36,
      "start": 15.3244,
      "duration": 0.0142,
      "velocity": 115,
      "chip": "ym2612"
    },
    {
      "channel": 5,
      "note": 71,
      "start": 15.3256,
      "duration": 0.0143,
      "velocity": 83,
      "chip": "ym2612"
    },
    {
      "channel": 3,
      "note": 71,
      "start": 15.3276,
      "duration": 0.0136,
      "velocity": 100,
      "chip": "ym2612"
    },
    {
      "channel": 2,
      "note": 74,
      "start": 15.3292,
      "duration": 0.0132,
      "velocity": 100,
      "chip": "ym2612"
    },
    {
      "channel": 4,
      "note": 57,
      "start": 15.3307,
      "duration": 0.0131,
      "velocity": 100,
      "chip": "ym2612"
    },
    {
      "channel": 1,
      "note": 71,
      "start": 15.3319,
      "duration": 0.0135,
      "velocity": 83,
      "chip": "ym2612"
    },
    {
      "channel": 0,
      "note": 36,
      "start": 15.3387,
      "duration": 0.0161,
      "velocity": 115,
      "chip": "ym2612"
    },
    {
      "channel": 5,
      "note": 71,
      "start": 15.3399,
      "duration": 0.0161,
      "velocity": 83,
      "chip": "ym2612"
    },
    {
      "channel": 3,
      "note": 71,
      "start": 15.3412,
      "duration": 0.016,
      "velocity": 100,
      "chip": "ym2612"
    },
    {
      "channel": 2,
      "note": 74,
      "start": 15.3424,
      "duration": 0.0159,
      "velocity": 100,
      "chip": "ym2612"
    },
    {
      "channel": 4,
      "note": 57,
      "start": 15.3438,
      "duration": 0.0156,
      "velocity": 100,
      "chip": "ym2612"
    },
    {
      "channel": 1,
      "note": 71,
      "start": 15.3454,
      "duration": 0.0158,
      "velocity": 83,
      "chip": "ym2612"
    },
    {
      "channel": 0,
      "note": 37,
      "start": 15.3548,
      "duration": 0.0161,
      "velocity": 115,
      "chip": "ym2612"
    },
    {
      "channel": 5,
      "note": 71,
      "start": 15.356,
      "duration": 0.016,
      "velocity": 83,
      "chip": "ym2612"
    },
    {
      "channel": 3,
      "note": 71,
      "start": 15.3571,
      "duration": 0.0161,
      "velocity": 100,
      "chip": "ym2612"
    },
    {
      "channel": 2,
      "note": 74,
      "start": 15.3583,
      "duration": 0.0161,
      "velocity": 100,
      "chip": "ym2612"
    },
    {
      "channel": 4,
      "note": 57,
      "start": 15.3594,
      "duration": 0.0161,
      "velocity": 100,
      "chip": "ym2612"
    },
    {
      "channel": 1,
      "note": 71,
      "start": 15.3612,
      "duration": 0.0155,
      "velocity": 83,
      "chip": "ym2612"
    },
    {
      "channel": 0,
      "note": 37,
      "start": 15.3709,
      "duration": 0.0161,
      "velocity": 115,
      "chip": "ym2612"
    },
    {
      "channel": 5,
      "note": 71,
      "start": 15.372,
      "duration": 0.0162,
      "velocity": 83,
      "chip": "ym2612"
    },
    {
      "channel": 3,
      "note": 71,
      "start": 15.3732,
      "duration": 0.0161,
      "velocity": 100,
      "chip": "ym2612"
    },
    {
      "channel": 2,
      "note": 74,
      "start": 15.3744,
      "duration": 0.0161,
      "velocity": 100,
      "chip": "ym2612"
    },
    {
      "channel": 4,
      "note": 57,
      "start": 15.3755,
      "duration": 0.0161,
      "velocity": 100,
      "chip": "ym2612"
    },
    {
      "channel": 1,
      "note": 71,
      "start": 15.3767,
      "duration": 0.0162,
      "velocity": 83,
      "chip": "ym2612"
    },
    {
      "channel": 0,
      "note": 38,
      "start": 15.387,
      "duration": 0.0161,
      "velocity": 115,
      "chip": "ym2612"
    },
    {
      "channel": 5,
      "note": 71,
      "start": 15.3882,
      "duration": 0.0161,
      "velocity": 83,
      "chip": "ym2612"
    },
    {
      "channel": 3,
      "note": 71,
      "start": 15.3893,
      "duration": 0.0161,
      "velocity": 100,
      "chip": "ym2612"
    },
    {
      "channel": 2,
      "note": 74,
      "start": 15.3905,
      "duration": 0.0161,
      "velocity": 100,
      "chip": "ym2612"
    },
    {
      "channel": 4,
      "note": 57,
      "start": 15.3916,
      "duration": 0.0161,
      "velocity": 100,
      "chip": "ym2612"
    },
    {
      "channel": 1,
      "note": 71,
      "start": 15.3928,
      "duration": 0.0161,
      "velocity": 83,
      "chip": "ym2612"
    },
    {
      "channel": 0,
      "note": 38,
      "start": 15.4031,
      "duration": 0.0161,
      "velocity": 115,
      "chip": "ym2612"
    },
    {
      "channel": 5,
      "note": 71,
      "start": 15.4043,
      "duration": 0.0161,
      "velocity": 83,
      "chip": "ym2612"
    },
    {
      "channel": 3,
      "note": 71,
      "start": 15.4054,
      "duration": 0.0161,
      "velocity": 100,
      "chip": "ym2612"
    },
    {
      "channel": 2,
      "note": 74,
      "start": 15.4066,
      "duration": 0.0161,
      "velocity": 100,
      "chip": "ym2612"
    },
    {
      "channel": 4,
      "note": 57,
      "start": 15.4077,
      "duration": 0.0162,
      "velocity": 100,
      "chip": "ym2612"
    },
    {
      "channel": 1,
      "note": 71,
      "start": 15.4089,
      "duration": 0.0161,
      "velocity": 83,
      "chip": "ym2612"
    },
    {
      "channel": 0,
      "note": 39,
      "start": 15.4192,
      "duration": 0.0161,
      "velocity": 115,
      "chip": "ym2612"
    },
    {
      "channel": 5,
      "note": 71,
      "start": 15.4204,
      "duration": 0.0161,
      "velocity": 83,
      "chip": "ym2612"
    },
    {
      "channel": 3,
      "note": 71,
      "start": 15.4215,
      "duration": 0.0161,
      "velocity": 100,
      "chip": "ym2612"
    },
    {
      "channel": 2,
      "note": 74,
      "start": 15.4227,
      "duration": 0.0161,
      "velocity": 100,
      "chip": "ym2612"
    },
    {
      "channel": 4,
      "note": 57,
      "start": 15.4239,
      "duration": 0.0161,
      "velocity": 100,
      "chip": "ym2612"
    },
    {
      "channel": 1,
      "note": 71,
      "start": 15.425,
      "duration": 0.0161,
      "velocity": 83,
      "chip": "ym2612"
    },
    {
      "channel": 0,
      "note": 39,
      "start": 15.4353,
      "duration": 0.0161,
      "velocity": 115,
      "chip": "ym2612"
    },
    {
      "channel": 5,
      "note": 71,
      "start": 15.4365,
      "duration": 0.0162,
      "velocity": 83,
      "chip": "ym2612"
    },
    {
      "channel": 3,
      "note": 71,
      "start": 15.4376,
      "duration": 0.0161,
      "velocity": 100,
      "chip": "ym2612"
    },
    {
      "channel": 2,
      "note": 74,
      "start": 15.4388,
      "duration": 0.0161,
      "velocity": 100,
      "chip": "ym2612"
    },
    {
      "channel": 4,
      "note": 57,
      "start": 15.44,
      "duration": 0.0161,
      "velocity": 100,
      "chip": "ym2612"
    },
    {
      "channel": 1,
      "note": 71,
      "start": 15.4411,
      "duration": 0.0162,
      "velocity": 83,
      "chip": "ym2612"
    },
    {
      "channel": 0,
      "note": 40,
      "start": 15.4514,
      "duration": 0.0161,
      "velocity": 115,
      "chip": "ym2612"
    },
    {
      "channel": 5,
      "note": 71,
      "start": 15.4526,
      "duration": 0.016,
      "velocity": 83,
      "chip": "ym2612"
    },
    {
      "channel": 3,
      "note": 71,
      "start": 15.4538,
      "duration": 0.0161,
      "velocity": 100,
      "chip": "ym2612"
    },
    {
      "channel": 2,
      "note": 74,
      "start": 15.4549,
      "duration": 0.0161,
      "velocity": 100,
      "chip": "ym2612"
    },
    {
      "channel": 4,
      "note": 57,
      "start": 15.4561,
      "duration": 0.0161,
      "velocity": 100,
      "chip": "ym2612"
    },
    {
      "channel": 1,
      "note": 71,
      "start": 15.4573,
      "duration": 0.016,
      "velocity": 83,
      "chip": "ym2612"
    },
    {
      "channel": 0,
      "note": 40,
      "start": 15.4674,
      "duration": 0.0161,
      "velocity": 115,
      "chip": "ym2612"
    },
    {
      "channel": 5,
      "note": 71,
      "start": 15.4687,
      "duration": 0.0161,
      "velocity": 83,
      "chip": "ym2612"
    },
    {
      "channel": 3,
      "note": 71,
      "start": 15.4699,
      "duration": 0.0161,
      "velocity": 100,
      "chip": "ym2612"
    },
    {
      "channel": 2,
      "note": 74,
      "start": 15.471,
      "duration": 0.0161,
      "velocity": 100,
      "chip": "ym2612"
    },
    {
      "channel": 4,
      "note": 57,
      "start": 15.4722,
      "duration": 0.0161,
      "velocity": 100,
      "chip": "ym2612"
    },
    {
      "channel": 1,
      "note": 71,
      "start": 15.4733,
      "duration": 0.0162,
      "velocity": 83,
      "chip": "ym2612"
    },
    {
      "channel": 0,
      "note": 40,
      "start": 15.4835,
      "duration": 0.0162,
      "velocity": 115,
      "chip": "ym2612"
    },
    {
      "channel": 5,
      "note": 71,
      "start": 15.4847,
      "duration": 0.0161,
      "velocity": 83,
      "chip": "ym2612"
    },
    {
      "channel": 3,
      "note": 71,
      "start": 15.486,
      "duration": 0.0161,
      "velocity": 100,
      "chip": "ym2612"
    },
    {
      "channel": 2,
      "note": 74,
      "start": 15.4871,
      "duration": 0.0161,
      "velocity": 100,
      "chip": "ym2612"
    },
    {
      "channel": 4,
      "note": 57,
      "start": 15.4883,
      "duration": 0.0161,
      "velocity": 100,
      "chip": "ym2612"
    },
    {
      "channel": 1,
      "note": 71,
      "start": 15.4895,
      "duration": 0.016,
      "velocity": 83,
      "chip": "ym2612"
    },
    {
      "channel": 0,
      "note": 41,
      "start": 15.4997,
      "duration": 0.0161,
      "velocity": 115,
      "chip": "ym2612"
    },
    {
      "channel": 5,
      "note": 71,
      "start": 15.5008,
      "duration": 0.0162,
      "velocity": 83,
      "chip": "ym2612"
    },
    {
      "channel": 3,
      "note": 71,
      "start": 15.502,
      "duration": 0.0161,
      "velocity": 100,
      "chip": "ym2612"
    },
    {
      "channel": 2,
      "note": 74,
      "start": 15.5032,
      "duration": 0.0161,
      "velocity": 100,
      "chip": "ym2612"
    },
    {
      "channel": 4,
      "note": 57,
      "start": 15.5043,
      "duration": 0.0161,
      "velocity": 100,
      "chip": "ym2612"
    },
    {
      "channel": 1,
      "note": 71,
      "start": 15.5055,
      "duration": 0.0162,
      "velocity": 83,
      "chip": "ym2612"
    },
    {
      "channel": 0,
      "note": 41,
      "start": 15.5158,
      "duration": 0.0161,
      "velocity": 115,
      "chip": "ym2612"
    },
    {
      "channel": 5,
      "note": 71,
      "start": 15.517,
      "duration": 0.0161,
      "velocity": 83,
      "chip": "ym2612"
    },
    {
      "channel": 3,
      "note": 71,
      "start": 15.5181,
      "duration": 0.0161,
      "velocity": 100,
      "chip": "ym2612"
    },
    {
      "channel": 2,
      "note": 74,
      "start": 15.5193,
      "duration": 0.0161,
      "velocity": 100,
      "chip": "ym2612"
    },
    {
      "channel": 4,
      "note": 57,
      "start": 15.5204,
      "duration": 0.0162,
      "velocity": 100,
      "chip": "ym2612"
    },
    {
      "channel": 0,
      "note": 42,
      "start": 15.5319,
      "duration": 0.0161,
      "velocity": 115,
      "chip": "ym2612"
    },
    {
      "channel": 5,
      "note": 71,
      "start": 15.5331,
      "duration": 0.0161,
      "velocity": 83,
      "chip": "ym2612"
    },
    {
      "channel": 4,
      "note": 57,
      "start": 15.5366,
      "duration": 0.0168,
      "velocity": 100,
      "chip": "ym2612"
    },
    {
      "channel": 0,
      "note": 42,
      "start": 15.548,
      "duration": 0.0161,
      "velocity": 115,
      "chip": "ym2612"
    },
    {
      "channel": 5,
      "note": 71,
      "start": 15.5492,
      "duration": 0.0161,
      "velocity": 83,
      "chip": "ym2612"
    },
    {
      "channel": 3,
      "note": 73,
      "start": 15.5507,
      "duration": 0.0158,
      "velocity": 100,
      "chip": "ym2612"
    },
    {
      "channel": 2,
      "note": 76,
      "start": 15.5523,
      "duration": 0.0154,
      "velocity": 100,
      "chip": "ym2612"
    },
    {
      "channel": 4,
      "note": 57,
      "start": 15.5534,
      "duration": 0.0155,
      "velocity": 100,
      "chip": "ym2612"
    },
    {
      "channel": 1,
      "note": 76,
      "start": 15.5549,
      "duration": 0.0153,
      "velocity": 83,
      "chip": "ym2612"
    },
    {
      "channel": 0,
      "note": 43,
      "start": 15.5641,
      "duration": 0.0161,
      "velocity": 115,
      "chip": "ym2612"
    },
    {
      "channel": 5,
      "note": 71,
      "start": 15.5653,
      "duration": 0.0162,
      "velocity": 83,
      "chip": "ym2612"
    },
    {
      "channel": 3,
      "note": 73,
      "start": 15.5665,
      "duration": 0.0161,
      "velocity": 100,
      "chip": "ym2612"
    },
    {
      "channel": 2,
      "note": 76,
      "start": 15.5678,
      "duration": 0.016,
      "velocity": 100,
      "chip": "ym2612"
    },
    {
      "channel": 4,
      "note": 57,
      "start": 15.5689,
      "duration": 0.016,
      "velocity": 100,
      "chip": "ym2612"
    },
    {
      "channel": 1,
      "note": 76,
      "start": 15.5702,
      "duration": 0.0159,
      "velocity": 83,
      "chip": "ym2612"
    },
    {
      "channel": 0,
      "note": 43,
      "start": 15.5802,
      "duration": 0.0162,
      "velocity": 115,
      "chip": "ym2612"
    },
    {
      "channel": 3,
      "note": 73,
      "start": 15.5826,
      "duration": 0.0161,
      "velocity": 100,
      "chip": "ym2612"
    },
    {
      "channel": 2,
      "note": 76,
      "start": 15.5838,
      "duration": 0.0161,
      "velocity": 100,
      "chip": "ym2612"
    },
    {
      "channel": 4,
      "note": 57,
      "start": 15.5849,
      "duration": 0.0161,
      "velocity": 100,
      "chip": "ym2612"
    },
    {
      "channel": 1,
      "note": 76,
      "start": 15.5861,
      "duration": 0.0161,
      "velocity": 83,
      "chip": "ym2612"
    },
    {
      "channel": 0,
      "note": 44,
      "start": 15.5964,
      "duration": 0.0164,
      "velocity": 115,
      "chip": "ym2612"
    },
    {
      "channel": 3,
      "note": 73,
      "start": 15.5987,
      "duration": 0.0167,
      "velocity": 100,
      "chip": "ym2612"
    },
    {
      "channel": 2,
      "note": 76,
      "start": 15.5999,
      "duration": 0.0167,
      "velocity": 100,
      "chip": "ym2612"
    },
    {
      "channel": 4,
      "note": 57,
      "start": 15.601,
      "duration": 0.0168,
      "velocity": 100,
      "chip": "ym2612"
    },
    {
      "channel": 1,
      "note": 76,
      "start": 15.6022,
      "duration": 0.0168,
      "velocity": 83,
      "chip": "ym2612"
    },
    {
      "channel": 0,
      "note": 44,
      "start": 15.6128,
      "duration": 0.0163,
      "velocity": 115,
      "chip": "ym2612"
    },
    {
      "channel": 5,
      "note": 76,
      "start": 15.6143,
      "duration": 0.0161,
      "velocity": 83,
      "chip": "ym2612"
    },
    {
      "channel": 3,
      "note": 73,
      "start": 15.6154,
      "duration": 0.0161,
      "velocity": 100,
      "chip": "ym2612"
    },
    {
      "channel": 2,
      "note": 76,
      "start": 15.6166,
      "duration": 0.0161,
      "velocity": 100,
      "chip": "ym2612"
    },
    {
      "channel": 4,
      "note": 57,
      "start": 15.6178,
      "duration": 0.016,
      "velocity": 100,
      "chip": "ym2612"
    },
    {
      "channel": 1,
      "note": 76,
      "start": 15.619,
      "duration": 0.0161,
      "velocity": 83,
      "chip": "ym2612"
    },
    {
      "channel": 0,
      "note": 44,
      "start": 15.6291,
      "duration": 0.0161,
      "velocity": 115,
      "chip": "ym2612"
    },
    {
      "channel": 5,
      "note": 76,
      "start": 15.6304,
      "duration": 0.016,
      "velocity": 83,
      "chip": "ym2612"
    },
    {
      "channel": 3,
      "note": 73,
      "start": 15.6315,
      "duration": 0.016,
      "velocity": 100,
      "chip": "ym2612"
    },
    {
      "channel": 2,
      "note": 76,
      "start": 15.6327,
      "duration": 0.016,
      "velocity": 100,
      "chip": "ym2612"
    },
    {
      "channel": 4,
      "note": 57,
      "start": 15.6339,
      "duration": 0.016,
      "velocity": 100,
      "chip": "ym2612"
    },
    {
      "channel": 0,
      "note": 45,
      "start": 15.6452,
      "duration": 0.0179,
      "velocity": 115,
      "chip": "ym2612"
    },
    {
      "channel": 5,
      "note": 76,
      "start": 15.6464,
      "duration": 0.0179,
      "velocity": 83,
      "chip": "ym2612"
    },
    {
      "channel": 3,
      "note": 73,
      "start": 15.6475,
      "duration": 0.0179,
      "velocity": 100,
      "chip": "ym2612"
    },
    {
      "channel": 2,
      "note": 76,
      "start": 15.6487,
      "duration": 0.0179,
      "velocity": 100,
      "chip": "ym2612"
    },
    {
      "channel": 4,
      "note": 57,
      "start": 15.6499,
      "duration": 0.0182,
      "velocity": 100,
      "chip": "ym2612"
    },
    {
      "channel": 0,
      "note": 36,
      "start": 15.6631,
      "duration": 0.0139,
      "velocity": 115,
      "chip": "ym2612"
    },
    {
      "channel": 5,
      "note": 76,
      "start": 15.6643,
      "duration": 0.0143,
      "velocity": 83,
      "chip": "ym2612"
    },
    {
      "channel": 3,
      "note": 73,
      "start": 15.6655,
      "duration": 0.0143,
      "velocity": 100,
      "chip": "ym2612"
    },
    {
      "channel": 2,
      "note": 76,
      "start": 15.6666,
      "duration": 0.0143,
      "velocity": 100,
      "chip": "ym2612"
    },
    {
      "channel": 4,
      "note": 52,
      "start": 15.6681,
      "duration": 0.0141,
      "velocity": 100,
      "chip": "ym2612"
    },
    {
      "channel": 1,
      "note": 77,
      "start": 15.6696,
      "duration": 0.0138,
      "velocity": 83,
      "chip": "ym2612"
    },
    {
      "channel": 0,
      "note": 36,
      "start": 15.6771,
      "duration": 0.0159,
      "velocity": 115,
      "chip": "ym2612"
    },
    {
      "channel": 5,
      "note": 76,
      "start": 15.6786,
      "duration": 0.016,
      "velocity": 83,
      "chip": "ym2612"
    },
    {
      "channel": 3,
      "note": 73,
      "start": 15.6798,
      "duration": 0.016,
      "velocity": 100,
      "chip": "ym2612"
    },
    {
      "channel": 2,
      "note": 76,
      "start": 15.6809,
      "duration": 0.0161,
      "velocity": 100,
      "chip": "ym2612"
    },
    {
      "channel": 4,
      "note": 52,
      "start": 15.6822,
      "duration": 0.016,
      "velocity": 100,
      "chip": "ym2612"
    },
    {
      "channel": 1,
      "note": 77,
      "start": 15.6834,
      "duration": 0.0159,
      "velocity": 83,
      "chip": "ym2612"
    },
    {
      "channel": 0,
      "note": 37,
      "start": 15.6929,
      "duration": 0.0161,
      "velocity": 115,
      "chip": "ym2612"
    },
    {
      "channel": 3,
      "note": 73,
      "start": 15.6958,
      "duration": 0.0161,
      "velocity": 100,
      "chip": "ym2612"
    },
    {
      "channel": 2,
      "note": 76,
      "start": 15.697,
      "duration": 0.0161,
      "velocity": 100,
      "chip": "ym2612"
    },
    {
      "channel": 4,
      "note": 52,
      "start": 15.6982,
      "duration": 0.0161,
      "velocity": 100,
      "chip": "ym2612"
    },
    {
      "channel": 1,
      "note": 77,
      "start": 15.6993,
      "duration": 0.0161,
      "velocity": 83,
      "chip": "ym2612"
    },
    {
      "channel": 0,
      "note": 37,
      "start": 15.709,
      "duration": 0.0161,
      "velocity": 115,
      "chip": "ym2612"
    },
    {
      "channel": 3,
      "note": 73,
      "start": 15.7119,
      "duration": 0.0164,
      "velocity": 100,
      "chip": "ym2612"
    },
    {
      "channel": 2,
      "note": 76,
      "start": 15.7131,
      "duration": 0.0164,
      "velocity": 100,
      "chip": "ym2612"
    },
    {
      "channel": 4,
      "note": 52,
      "start": 15.7143,
      "duration": 0.0164,
      "velocity": 100,
      "chip": "ym2612"
    },
    {
      "channel": 1,
      "note": 77,
      "start": 15.7154,
      "duration": 0.0164,
      "velocity": 83,
      "chip": "ym2612"
    },
    {
      "channel": 0,
      "note": 38,
      "start": 15.7251,
      "duration": 0.0161,
      "velocity": 115,
      "chip": "ym2612"
    },
    {
      "channel": 5,
      "note": 77,
      "start": 15.7266,
      "duration": 0.0159,
      "velocity": 83,
      "chip": "ym2612"
    },
    {
      "channel": 3,
      "note": 73,
      "start": 15.7283,
      "duration": 0.0155,
      "velocity": 100,
      "chip": "ym2612"
    },
    {
      "channel": 2,
      "note": 76,
      "start": 15.7295,
      "duration": 0.0159,
      "velocity": 100,
      "chip": "ym2612"
    },
    {
      "channel": 4,
      "note": 52,
      "start": 15.7307,
      "duration": 0.0158,
      "velocity": 100,
      "chip": "ym2612"
    },
    {
      "channel": 1,
      "note": 77,
      "start": 15.7318,
      "duration": 0.0159,
      "velocity": 83,
      "chip": "ym2612"
    },
    {
      "channel": 0,
      "note": 38,
      "start": 15.7412,
      "duration": 0.0161,
      "velocity": 115,
      "chip": "ym2612"
    },
    {
      "channel": 5,
      "note": 77,
      "start": 15.7424,
      "duration": 0.016,
      "velocity": 83,
      "chip": "ym2612"
    },
    {
      "channel": 3,
      "note": 73,
      "start": 15.7439,
      "duration": 0.0158,
      "velocity": 100,
      "chip": "ym2612"
    },
    {
      "channel": 2,
      "note": 76,
      "start": 15.7454,
      "duration": 0.016,
      "velocity": 100,
      "chip": "ym2612"
    },
    {
      "channel": 4,
      "note": 52,
      "start": 15.7465,
      "duration": 0.016,
      "velocity": 100,
      "chip": "ym2612"
    },
    {
      "channel": 0,
      "note": 39,
      "start": 15.7573,
      "duration": 0.0179,
      "velocity": 124,
      "chip": "ym2612"
    },
    {
      "channel": 5,
      "note": 77,
      "start": 15.7585,
      "duration": 0.018,
      "velocity": 83,
      "chip": "ym2612"
    },
    {
      "channel": 4,
      "note": 52,
      "start": 15.7625,
      "duration": 0.0186,
      "velocity": 100,
      "chip": "ym2612"
    },
    {
      "channel": 0,
      "note": 84,
      "start": 15.7753,
      "duration": 0.0143,
      "velocity": 124,
      "chip": "ym2612"
    },
    {
      "channel": 5,
      "note": 77,
      "start": 15.7765,
      "duration": 0.0143,
      "velocity": 83,
      "chip": "ym2612"
    },
    {
      "channel": 3,
      "note": 73,
      "start": 15.7785,
      "duration": 0.0135,
      "velocity": 100,
      "chip": "ym2612"
    },
    {
      "channel": 2,
      "note": 76,
      "start": 15.78,
      "duration": 0.0132,
      "velocity": 100,
      "chip": "ym2612"
    },
    {
      "channel": 4,
      "note": 52,
      "start": 15.7812,
      "duration": 0.0137,
      "velocity": 100,
      "chip": "ym2612"
    },
    {
      "channel": 1,
      "note": 78,
      "start": 15.7827,
      "duration": 0.0135,
      "velocity": 83,
      "chip": "ym2612"
    },
    {
      "channel": 0,
      "note": 82,
      "start": 15.7896,
      "duration": 0.016,
      "velocity": 124,
      "chip": "ym2612"
    },
    {
      "channel": 5,
      "note": 77,
      "start": 15.7908,
      "duration": 0.016,
      "velocity": 83,
      "chip": "ym2612"
    },
    {
      "channel": 3,
      "note": 73,
      "start": 15.792,
      "duration": 0.016,
      "velocity": 100,
      "chip": "ym2612"
    },
    {
      "channel": 2,
      "note": 76,
      "start": 15.7932,
      "duration": 0.0159,
      "velocity": 100,
      "chip": "ym2612"
    },
    {
      "channel": 4,
      "note": 52,
      "start": 15.7949,
      "duration": 0.0156,
      "velocity": 100,
      "chip": "ym2612"
    },
    {
      "channel": 1,
      "note": 78,
      "start": 15.7962,
      "duration": 0.0159,
      "velocity": 83,
      "chip": "ym2612"
    },
    {
      "channel": 0,
      "note": 80,
      "start": 15.8056,
      "duration": 0.0161,
      "velocity": 124,
      "chip": "ym2612"
    },
    {
      "channel": 3,
      "note": 73,
      "start": 15.808,
      "duration": 0.0161,
      "velocity": 100,
      "chip": "ym2612"
    },
    {
      "channel": 2,
      "note": 76,
      "start": 15.8091,
      "duration": 0.0161,
      "velocity": 100,
      "chip": "ym2612"
    },
    {
      "channel": 4,
      "note": 52,
      "start": 15.8105,
      "duration": 0.0158,
      "velocity": 100,
      "chip": "ym2612"
    },
    {
      "channel": 1,
      "note": 78,
      "start": 15.8121,
      "duration": 0.0161,
      "velocity": 83,
      "chip": "ym2612"
    },
    {
      "channel": 0,
      "note": 77,
      "start": 15.8217,
      "duration": 0.0161,
      "velocity": 124,
      "chip": "ym2612"
    },
    {
      "channel": 3,
      "note": 73,
      "start": 15.8241,
      "duration": 0.0164,
      "velocity": 100,
      "chip": "ym2612"
    },
    {
      "channel": 2,
      "note": 76,
      "start": 15.8252,
      "duration": 0.0164,
      "velocity": 100,
      "chip": "ym2612"
    },
    {
      "channel": 4,
      "note": 52,
      "start": 15.8263,
      "duration": 0.0164,
      "velocity": 100,
      "chip": "ym2612"
    },
    {
      "channel": 1,
      "note": 78,
      "start": 15.8282,
      "duration": 0.0163,
      "velocity": 83,
      "chip": "ym2612"
    },
    {
      "channel": 0,
      "note": 75,
      "start": 15.8378,
      "duration": 0.0161,
      "velocity": 124,
      "chip": "ym2612"
    },
    {
      "channel": 5,
      "note": 78,
      "start": 15.8393,
      "duration": 0.0159,
      "velocity": 83,
      "chip": "ym2612"
    },
    {
      "channel": 3,
      "note": 73,
      "start": 15.8405,
      "duration": 0.0158,
      "velocity": 100,
      "chip": "ym2612"
    },
    {
      "channel": 2,
      "note": 76,
      "start": 15.8416,
      "duration": 0.0159,
      "velocity": 100,
      "chip": "ym2612"
    },
    {
      "channel": 4,
      "note": 52,
      "start": 15.8428,
      "duration": 0.0158,
      "velocity": 100,
      "chip": "ym2612"
    },
    {
      "channel": 1,
      "note": 78,
      "start": 15.8445,
      "duration": 0.0153,
      "velocity": 83,
      "chip": "ym2612"
    },
    {
      "channel": 0,
      "note": 72,
      "start": 15.8539,
      "duration": 0.0161,
      "velocity": 124,
      "chip": "ym2612"
    },
    {
      "channel": 5,
      "note": 78,
      "start": 15.8552,
      "duration": 0.016,
      "velocity": 83,
      "chip": "ym2612"
    },
    {
      "channel": 3,
      "note": 73,
      "start": 15.8563,
      "duration": 0.016,
      "velocity": 100,
      "chip": "ym2612"
    },
    {
      "channel": 2,
      "note": 76,
      "start": 15.8575,
      "duration": 0.0161,
      "velocity": 100,
      "chip": "ym2612"
    },
    {
      "channel": 4,
      "note": 52,
      "start": 15.8586,
      "duration": 0.0161,
      "velocity": 100,
      "chip": "ym2612"
    },
    {
      "channel": 0,
      "note": 70,
      "start": 15.87,
      "duration": 0.0161,
      "velocity": 124,
      "chip": "ym2612"
    },
    {
      "channel": 5,
      "note": 78,
      "start": 15.8712,
      "duration": 0.0161,
      "velocity": 83,
      "chip": "ym2612"
    },
    {
      "channel": 3,
      "note": 73,
      "start": 15.8723,
      "duration": 0.0161,
      "velocity": 100,
      "chip": "ym2612"
    },
    {
      "channel": 2,
      "note": 76,
      "start": 15.8736,
      "duration": 0.0161,
      "velocity": 100,
      "chip": "ym2612"
    },
    {
      "channel": 4,
      "note": 52,
      "start": 15.8747,
      "duration": 0.0161,
      "velocity": 100,
      "chip": "ym2612"
    },
    {
      "channel": 0,
      "note": 68,
      "start": 15.8861,
      "duration": 0.0161,
      "velocity": 124,
      "chip": "ym2612"
    },
    {
      "channel": 5,
      "note": 78,
      "start": 15.8873,
      "duration": 0.0161,
      "velocity": 83,
      "chip": "ym2612"
    },
    {
      "channel": 3,
      "note": 73,
      "start": 15.8884,
      "duration": 0.0161,
      "velocity": 100,
      "chip": "ym2612"
    },
    {
      "channel": 2,
      "note": 76,
      "start": 15.8896,
      "duration": 0.0161,
      "velocity": 100,
      "chip": "ym2612"
    },
    {
      "channel": 4,
      "note": 52,
      "start": 15.8908,
      "duration": 0.0161,
      "velocity": 100,
      "chip": "ym2612"
    },
    {
      "channel": 1,
      "note": 81,
      "start": 15.8922,
      "duration": 0.0159,
      "velocity": 83,
      "chip": "ym2612"
    },
    {
      "channel": 0,
      "note": 65,
      "start": 15.9022,
      "duration": 0.0161,
      "velocity": 124,
      "chip": "ym2612"
    },
    {
      "channel": 5,
      "note": 78,
      "start": 15.9034,
      "duration": 0.0161,
      "velocity": 83,
      "chip": "ym2612"
    },
    {
      "channel": 3,
      "note": 73,
      "start": 15.9045,
      "duration": 0.0161,
      "velocity": 100,
      "chip": "ym2612"
    },
    {
      "channel": 2,
      "note": 76,
      "start": 15.9057,
      "duration": 0.0161,
      "velocity": 100,
      "chip": "ym2612"
    },
    {
      "channel": 4,
      "note": 52,
      "start": 15.9069,
      "duration": 0.0161,
      "velocity": 100,
      "chip": "ym2612"
    },
    {
      "channel": 1,
      "note": 81,
      "start": 15.9082,
      "duration": 0.016,
      "velocity": 83,
      "chip": "ym2612"
    },
    {
      "channel": 0,
      "note": 63,
      "start": 15.9183,
      "duration": 0.0153,
      "velocity": 1,
      "chip": "ym2612"
    },
    {
      "channel": 3,
      "note": 73,
      "start": 15.9207,
      "duration": 0.0153,
      "velocity": 100,
      "chip": "ym2612"
    },
    {
      "channel": 2,
      "note": 76,
      "start": 15.9218,
      "duration": 0.0153,
      "velocity": 100,
      "chip": "ym2612"
    },
    {
      "channel": 4,
      "note": 52,
      "start": 15.923,
      "duration": 0.0153,
      "velocity": 100,
      "chip": "ym2612"
    },
    {
      "channel": 1,
      "note": 81,
      "start": 15.9242,
      "duration": 0.0153,
      "velocity": 83,
      "chip": "ym2612"
    },
    {
      "channel": 3,
      "note": 73,
      "start": 15.936,
      "duration": 0.0155,
      "velocity": 100,
      "chip": "ym2612"
    },
    {
      "channel": 2,
      "note": 76,
      "start": 15.9371,
      "duration": 0.0155,
      "velocity": 100,
      "chip": "ym2612"
    },
    {
      "channel": 4,
      "note": 52,
      "start": 15.9383,
      "duration": 0.0156,
      "velocity": 100,
      "chip": "ym2612"
    },
    {
      "channel": 1,
      "note": 81,
      "start": 15.9395,
      "duration": 0.0156,
      "velocity": 83,
      "chip": "ym2612"
    },
    {
      "channel": 5,
      "note": 81,
      "start": 15.9503,
      "duration": 0.0158,
      "velocity": 83,
      "chip": "ym2612"
    },
    {
      "channel": 3,
      "note": 73,
      "start": 15.9515,
      "duration": 0.0159,
      "velocity": 100,
      "chip": "ym2612"
    },
    {
      "channel": 2,
      "note": 76,
      "start": 15.9526,
      "duration": 0.0159,
      "velocity": 100,
      "chip": "ym2612"
    },
    {
      "channel": 4,
      "note": 52,
      "start": 15.9538,
      "duration": 0.0159,
      "velocity": 100,
      "chip": "ym2612"
    },
    {
      "channel": 1,
      "note": 81,
      "start": 15.955,
      "duration": 0.0159,
      "velocity": 83,
      "chip": "ym2612"
    },
    {
      "channel": 5,
      "note": 81,
      "start": 15.9662,
      "duration": 0.016,
      "velocity": 83,
      "chip": "ym2612"
    },
    {
      "channel": 3,
      "note": 73,
      "start": 15.9673,
      "duration": 0.0161,
      "velocity": 100,
      "chip": "ym2612"
    },
    {
      "channel": 2,
      "note": 76,
      "start": 15.9685,
      "duration": 0.016,
      "velocity": 100,
      "chip": "ym2612"
    },
    {
      "channel": 4,
      "note": 52,
      "start": 15.9697,
      "duration": 0.016,
      "velocity": 100,
      "chip": "ym2612"
    },
    {
      "channel": 1,
      "note": 81,
      "start": 15.9709,
      "duration": 0.0161,
      "velocity": 83,
      "chip": "ym2612"
    },
    {
      "channel": 5,
      "note": 81,
      "start": 15.9822,
      "duration": 0.0161,
      "velocity": 83,
      "chip": "ym2612"
    },
    {
      "channel": 4,
      "note": 52,
      "start": 15.9858,
      "duration": 0.0171,
      "velocity": 100,
      "chip": "ym2612"
    },
    {
      "channel": 1,
      "note": 81,
      "start": 15.987,
      "duration": 0.0172,
      "velocity": 83,
      "chip": "ym2612"
    },
    {
      "channel": 5,
      "note": 81,
      "start": 15.9983,
      "duration": 0.0161,
      "velocity": 83,
      "chip": "ym2612"
    },
    {
      "channel": 3,
      "note": 73,
      "start": 15.9999,
      "duration": 0.0158,
      "velocity": 100,
      "chip": "ym2612"
    },
    {
      "channel": 2,
      "note": 76,
      "start": 16.0014,
      "duration": 0.0155,
      "velocity": 100,
      "chip": "ym2612"
    },
    {
      "channel": 4,
      "note": 57,
      "start": 16.0029,
      "duration": 0.0151,
      "velocity": 100,
      "chip": "ym2612"
    },
    {
      "channel": 1,
      "note": 81,
      "start": 16.0041,
      "duration": 0.0151,
      "velocity": 83,
      "chip": "ym2612"
    },
    {
      "channel": 5,
      "note": 81,
      "start": 16.0144,
      "duration": 0.0161,
      "velocity": 83,
      "chip": "ym2612"
    },
    {
      "channel": 3,
      "note": 73,
      "start": 16.0157,
      "duration": 0.016,
      "velocity": 100,
      "chip": "ym2612"
    },
    {
      "channel": 2,
      "note": 76,
      "start": 16.0169,
      "duration": 0.016,
      "velocity": 100,
      "chip": "ym2612"
    },
    {
      "channel": 4,
      "note": 57,
      "start": 16.0181,
      "duration": 0.0159,
      "velocity": 100,
      "chip": "ym2612"
    },
    {
      "channel": 1,
      "note": 81,
      "start": 16.0192,
      "duration": 0.0159,
      "velocity": 83,
      "chip": "ym2612"
    },
    {
      "channel": 5,
      "note": 81,
      "start": 16.0305,
      "duration": 0.0162,
      "velocity": 83,
      "chip": "ym2612"
    },
    {
      "channel": 3,
      "note": 73,
      "start": 16.0317,
      "duration": 0.0161,
      "velocity": 100,
      "chip": "ym2612"
    },
    {
      "channel": 2,
      "note": 76,
      "start": 16.0328,
      "duration": 0.0161,
      "velocity": 100,
      "chip": "ym2612"
    },
    {
      "channel": 4,
      "note": 57,
      "start": 16.034,
      "duration": 0.0161,
      "velocity": 100,
      "chip": "ym2612"
    },
    {
      "channel": 1,
      "note": 81,
      "start": 16.0351,
      "duration": 0.0162,
      "velocity": 83,
      "chip": "ym2612"
    },
    {
      "channel": 5,
      "note": 81,
      "start": 16.0466,
      "duration": 0.0162,
      "velocity": 83,
      "chip": "ym2612"
    },
    {
      "channel": 3,
      "note": 73,
      "start": 16.0478,
      "duration": 0.0161,
      "velocity": 100,
      "chip": "ym2612"
    },
    {
      "channel": 2,
      "note": 76,
      "start": 16.0489,
      "duration": 0.0162,
      "velocity": 100,
      "chip": "ym2612"
    },
    {
      "channel": 4,
      "note": 57,
      "start": 16.0501,
      "duration": 0.0161,
      "velocity": 100,
      "chip": "ym2612"
    },
    {
      "channel": 1,
      "note": 81,
      "start": 16.0513,
      "duration": 0.0161,
      "velocity": 83,
      "chip": "ym2612"
    },
    {
      "channel": 5,
      "note": 81,
      "start": 16.0628,
      "duration": 0.0163,
      "velocity": 83,
      "chip": "ym2612"
    },
    {
      "channel": 3,
      "note": 73,
      "start": 16.0639,
      "duration": 0.0163,
      "velocity": 100,
      "chip": "ym2612"
    },
    {
      "channel": 2,
      "note": 76,
      "start": 16.0651,
      "duration": 0.0163,
      "velocity": 100,
      "chip": "ym2612"
    },
    {
      "channel": 4,
      "note": 57,
      "start": 16.0662,
      "duration": 0.0163,
      "velocity": 100,
      "chip": "ym2612"
    },
    {
      "channel": 1,
      "note": 81,
      "start": 16.0674,
      "duration": 0.0163,
      "velocity": 83,
      "chip": "ym2612"
    },
    {
      "channel": 5,
      "note": 81,
      "start": 16.0791,
      "duration": 0.0163,
      "velocity": 83,
      "chip": "ym2612"
    },
    {
      "channel": 3,
      "note": 73,
      "start": 16.0802,
      "duration": 0.0163,
      "velocity": 100,
      "chip": "ym2612"
    },
    {
      "channel": 2,
      "note": 76,
      "start": 16.0814,
      "duration": 0.0163,
      "velocity": 100,
      "chip": "ym2612"
    },
    {
      "channel": 4,
      "note": 57,
      "start": 16.0825,
      "duration": 0.0163,
      "velocity": 100,
      "chip": "ym2612"
    },
    {
      "channel": 5,
      "note": 81,
      "start": 16.0954,
      "duration": 0.0163,
      "velocity": 83,
      "chip": "ym2612"
    },
    {
      "channel": 3,
      "note": 73,
      "start": 16.0966,
      "duration": 0.0162,
      "velocity": 100,
      "chip": "ym2612"
    },
    {
      "channel": 2,
      "note": 76,
      "start": 16.0977,
      "duration": 0.0162,
      "velocity": 100,
      "chip": "ym2612"
    },
    {
      "channel": 4,
      "note": 57,
      "start": 16.0989,
      "duration": 0.0162,
      "velocity": 100,
      "chip": "ym2612"
    },
    {
      "channel": 5,
      "note": 81,
      "start": 16.1117,
      "duration": 0.016,
      "velocity": 83,
      "chip": "ym2612"
    },
    {
      "channel": 3,
      "note": 73,
      "start": 16.1128,
      "duration": 0.0161,
      "velocity": 100,
      "chip": "ym2612"
    },
    {
      "channel": 2,
      "note": 76,
      "start": 16.1139,
      "duration": 0.0161,
      "velocity": 100,
      "chip": "ym2612"
    },
    {
      "channel": 4,
      "note": 57,
      "start": 16.1151,
      "duration": 0.0161,
      "velocity": 100,
      "chip": "ym2612"
    },
    {
      "channel": 1,
      "note": 74,
      "start": 16.1166,
      "duration": 0.0159,
      "velocity": 83,
      "chip": "ym2612"
    },
    {
      "channel": 5,
      "note": 81,
      "start": 16.1277,
      "duration": 0.0156,
      "velocity": 83,
      "chip": "ym2612"
    },
    {
      "channel": 3,
      "note": 73,
      "start": 16.1289,
      "duration": 0.0161,
      "velocity": 100,
      "chip": "ym2612"
    },
    {
      "channel": 2,
      "note": 76,
      "start": 16.13,
      "duration": 0.0161,
      "velocity": 100,
      "chip": "ym2612"
    },
    {
      "channel": 4,
      "note": 57,
      "start": 16.1312,
      "duration": 0.0162,
      "velocity": 100,
      "chip": "ym2612"
    },
    {
      "channel": 1,
      "note": 74,
      "start": 16.1324,
      "duration": 0.016,
      "velocity": 83,
      "chip": "ym2612"
    },
    {
      "channel": 3,
      "note": 73,
      "start": 16.145,
      "duration": 0.016,
      "velocity": 100,
      "chip": "ym2612"
    },
    {
      "channel": 2,
      "note": 76,
      "start": 16.1462,
      "duration": 0.016,
      "velocity": 100,
      "chip": "ym2612"
    },
    {
      "channel": 4,
      "note": 57,
      "start": 16.1473,
      "duration": 0.016,
      "velocity": 100,
      "chip": "ym2612"
    },
    {
      "channel": 1,
      "note": 74,
      "start": 16.1485,
      "duration": 0.0161,
      "velocity": 83,
      "chip": "ym2612"
    },
    {
      "channel": 3,
      "note": 73,
      "start": 16.161,
      "duration": 0.0161,
      "velocity": 100,
      "chip": "ym2612"
    },
    {
      "channel": 2,
      "note": 76,
      "start": 16.1622,
      "duration": 0.0164,
      "velocity": 100,
      "chip": "ym2612"
    },
    {
      "channel": 4,
      "note": 57,
      "start": 16.1634,
      "duration": 0.0164,
      "velocity": 100,
      "chip": "ym2612"
    },
    {
      "channel": 1,
      "note": 74,
      "start": 16.1646,
      "duration": 0.0164,
      "velocity": 83,
      "chip": "ym2612"
    },
    {
      "channel": 5,
      "note": 74,
      "start": 16.1757,
      "duration": 0.0159,
      "velocity": 83,
      "chip": "ym2612"
    },
    {
      "channel": 3,
      "note": 73,
      "start": 16.1771,
      "duration": 0.0156,
      "velocity": 100,
      "chip": "ym2612"
    },
    {
      "channel": 2,
      "note": 76,
      "start": 16.1786,
      "duration": 0.0159,
      "velocity": 100,
      "chip": "ym2612"
    },
    {
      "channel": 4,
      "note": 57,
      "start": 16.1798,
      "duration": 0.0159,
      "velocity": 100,
      "chip": "ym2612"
    },
    {
      "channel": 1,
      "note": 74,
      "start": 16.181,
      "duration": 0.0158,
      "velocity": 83,
      "chip": "ym2612"
    },
    {
      "channel": 5,
      "note": 74,
      "start": 16.1916,
      "duration": 0.016,
      "velocity": 83,
      "chip": "ym2612"
    },
    {
      "channel": 3,
      "note": 73,
      "start": 16.1928,
      "duration": 0.016,
      "velocity": 100,
      "chip": "ym2612"
    },
    {
      "channel": 2,
      "note": 76,
      "start": 16.1945,
      "duration": 0.0157,
      "velocity": 100,
      "chip": "ym2612"
    },
    {
      "channel": 4,
      "note": 57,
      "start": 16.1957,
      "duration": 0.016,
      "velocity": 100,
      "chip": "ym2612"
    },
    {
      "channel": 1,
      "note": 74,
      "start": 16.1968,
      "duration": 0.0161,
      "velocity": 83,
      "chip": "ym2612"
    },
    {
      "channel": 5,
      "note": 74,
      "start": 16.2076,
      "duration": 0.0161,
      "velocity": 83,
      "chip": "ym2612"
    },
    {
      "channel": 4,
      "note": 57,
      "start": 16.2117,
      "duration": 0.0168,
      "velocity": 100,
      "chip": "ym2612"
    },
    {
      "channel": 1,
      "note": 74,
      "start": 16.2129,
      "duration": 0.0168,
      "velocity": 83,
      "chip": "ym2612"
    },
    {
      "channel": 5,
      "note": 74,
      "start": 16.2237,
      "duration": 0.0161,
      "velocity": 83,
      "chip": "ym2612"
    },
    {
      "channel": 3,
      "note": 73,
      "start": 16.2252,
      "duration": 0.0158,
      "velocity": 100,
      "chip": "ym2612"
    },
    {
      "channel": 2,
      "note": 76,
      "start": 16.2269,
      "duration": 0.0153,
      "velocity": 100,
      "chip": "ym2612"
    },
    {
      "channel": 4,
      "note": 57,
      "start": 16.2286,
      "duration": 0.0151,
      "velocity": 100,
      "chip": "ym2612"
    },
    {
      "channel": 1,
      "note": 74,
      "start": 16.2297,
      "duration": 0.0155,
      "velocity": 83,
      "chip": "ym2612"
    },
    {
      "channel": 5,
      "note": 74,
      "start": 16.2398,
      "duration": 0.0161,
      "velocity": 83,
      "chip": "ym2612"
    },
    {
      "channel": 3,
      "note": 73,
      "start": 16.241,
      "duration": 0.016,
      "velocity": 100,
      "chip": "ym2612"
    },
    {
      "channel": 2,
      "note": 76,
      "start": 16.2422,
      "duration": 0.016,
      "velocity": 100,
      "chip": "ym2612"
    },
    {
      "channel": 4,
      "note": 57,
      "start": 16.2437,
      "duration": 0.0159,
      "velocity": 100,
      "chip": "ym2612"
    },
    {
      "channel": 1,
      "note": 74,
      "start": 16.2452,
      "duration": 0.016,
      "velocity": 83,
      "chip": "ym2612"
    },
    {
      "channel": 5,
      "note": 74,
      "start": 16.2559,
      "duration": 0.0161,
      "velocity": 83,
      "chip": "ym2612"
    },
    {
      "channel": 3,
      "note": 73,
      "start": 16.2571,
      "duration": 0.0162,
      "velocity": 100,
      "chip": "ym2612"
    },
    {
      "channel": 2,
      "note": 76,
      "start": 16.2583,
      "duration": 0.0161,
      "velocity": 100,
      "chip": "ym2612"
    },
    {
      "channel": 4,
      "note": 57,
      "start": 16.2595,
      "duration": 0.016,
      "velocity": 100,
      "chip": "ym2612"
    },
    {
      "channel": 1,
      "note": 74,
      "start": 16.2612,
      "duration": 0.0157,
      "velocity": 83,
      "chip": "ym2612"
    },
    {
      "channel": 5,
      "note": 74,
      "start": 16.2721,
      "duration": 0.016,
      "velocity": 83,
      "chip": "ym2612"
    },
    {
      "channel": 3,
      "note": 73,
      "start": 16.2732,
      "duration": 0.0161,
      "velocity": 100,
      "chip": "ym2612"
    },
    {
      "channel": 2,
      "note": 76,
      "start": 16.2744,
      "duration": 0.0161,
      "velocity": 100,
      "chip": "ym2612"
    },
    {
      "channel": 4,
      "note": 57,
      "start": 16.2755,
      "duration": 0.0161,
      "velocity": 100,
      "chip": "ym2612"
    },
    {
      "channel": 1,
      "note": 74,
      "start": 16.2769,
      "duration": 0.0159,
      "velocity": 83,
      "chip": "ym2612"
    },
    {
      "channel": 5,
      "note": 74,
      "start": 16.2881,
      "duration": 0.0161,
      "velocity": 83,
      "chip": "ym2612"
    },
    {
      "channel": 3,
      "note": 73,
      "start": 16.2893,
      "duration": 0.0161,
      "velocity": 100,
      "chip": "ym2612"
    },
    {
      "channel": 2,
      "note": 76,
      "start": 16.2905,
      "duration": 0.0161,
      "velocity": 100,
      "chip": "ym2612"
    },
    {
      "channel": 4,
      "note": 57,
      "start": 16.2916,
      "duration": 0.0161,
      "velocity": 100,
      "chip": "ym2612"
    },
    {
      "channel": 1,
      "note": 74,
      "start": 16.2928,
      "duration": 0.0161,
      "velocity": 83,
      "chip": "ym2612"
    },
    {
      "channel": 5,
      "note": 74,
      "start": 16.3042,
      "duration": 0.0161,
      "velocity": 83,
      "chip": "ym2612"
    },
    {
      "channel": 3,
      "note": 73,
      "start": 16.3054,
      "duration": 0.0161,
      "velocity": 100,
      "chip": "ym2612"
    },
    {
      "channel": 2,
      "note": 76,
      "start": 16.3066,
      "duration": 0.0161,
      "velocity": 100,
      "chip": "ym2612"
    },
    {
      "channel": 4,
      "note": 57,
      "start": 16.3077,
      "duration": 0.0161,
      "velocity": 100,
      "chip": "ym2612"
    },
    {
      "channel": 1,
      "note": 74,
      "start": 16.3089,
      "duration": 0.0161,
      "velocity": 83,
      "chip": "ym2612"
    },
    {
      "channel": 5,
      "note": 74,
      "start": 16.3204,
      "duration": 0.0161,
      "velocity": 83,
      "chip": "ym2612"
    },
    {
      "channel": 3,
      "note": 73,
      "start": 16.3215,
      "duration": 0.0161,
      "velocity": 100,
      "chip": "ym2612"
    },
    {
      "channel": 2,
      "note": 76,
      "start": 16.3227,
      "duration": 0.0161,
      "velocity": 100,
      "chip": "ym2612"
    },
    {
      "channel": 4,
      "note": 57,
      "start": 16.3238,
      "duration": 0.0161,
      "velocity": 100,
      "chip": "ym2612"
    },
    {
      "channel": 1,
      "note": 74,
      "start": 16.325,
      "duration": 0.0162,
      "velocity": 83,
      "chip": "ym2612"
    },
    {
      "channel": 5,
      "note": 74,
      "start": 16.3365,
      "duration": 0.0161,
      "velocity": 83,
      "chip": "ym2612"
    },
    {
      "channel": 3,
      "note": 73,
      "start": 16.3376,
      "duration": 0.0161,
      "velocity": 100,
      "chip": "ym2612"
    },
    {
      "channel": 2,
      "note": 76,
      "start": 16.3388,
      "duration": 0.0161,
      "velocity": 100,
      "chip": "ym2612"
    },
    {
      "channel": 4,
      "note": 57,
      "start": 16.34,
      "duration": 0.0162,
      "velocity": 100,
      "chip": "ym2612"
    },
    {
      "channel": 1,
      "note": 74,
      "start": 16.3412,
      "duration": 0.0161,
      "velocity": 83,
      "chip": "ym2612"
    },
    {
      "channel": 5,
      "note": 74,
      "start": 16.3526,
      "duration": 0.0161,
      "velocity": 83,
      "chip": "ym2612"
    },
    {
      "channel": 3,
      "note": 73,
      "start": 16.3537,
      "duration": 0.0161,
      "velocity": 100,
      "chip": "ym2612"
    },
    {
      "channel": 2,
      "note": 76,
      "start": 16.3549,
      "duration": 0.0161,
      "velocity": 100,
      "chip": "ym2612"
    },
    {
      "channel": 4,
      "note": 57,
      "start": 16.3561,
      "duration": 0.0161,
      "velocity": 100,
      "chip": "ym2612"
    },
    {
      "channel": 1,
      "note": 74,
      "start": 16.3573,
      "duration": 0.0161,
      "velocity": 83,
      "chip": "ym2612"
    },
    {
      "channel": 5,
      "note": 74,
      "start": 16.3687,
      "duration": 0.0161,
      "velocity": 83,
      "chip": "ym2612"
    },
    {
      "channel": 3,
      "note": 73,
      "start": 16.3698,
      "duration": 0.0161,
      "velocity": 100,
      "chip": "ym2612"
    },
    {
      "channel": 2,
      "note": 76,
      "start": 16.371,
      "duration": 0.016,
      "velocity": 100,
      "chip": "ym2612"
    },
    {
      "channel": 4,
      "note": 57,
      "start": 16.3722,
      "duration": 0.0161,
      "velocity": 100,
      "chip": "ym2612"
    },
    {
      "channel": 1,
      "note": 74,
      "start": 16.3734,
      "duration": 0.0161,
      "velocity": 83,
      "chip": "ym2612"
    },
    {
      "channel": 5,
      "note": 74,
      "start": 16.3847,
      "duration": 0.0161,
      "velocity": 83,
      "chip": "ym2612"
    },
    {
      "channel": 3,
      "note": 73,
      "start": 16.3859,
      "duration": 0.0161,
      "velocity": 100,
      "chip": "ym2612"
    },
    {
      "channel": 2,
      "note": 76,
      "start": 16.387,
      "duration": 0.0162,
      "velocity": 100,
      "chip": "ym2612"
    },
    {
      "channel": 4,
      "note": 57,
      "start": 16.3883,
      "duration": 0.0161,
      "velocity": 100,
      "chip": "ym2612"
    },
    {
      "channel": 1,
      "note": 74,
      "start": 16.3895,
      "duration": 0.0161,
      "velocity": 83,
      "chip": "ym2612"
    },
    {
      "channel": 5,
      "note": 74,
      "start": 16.4008,
      "duration": 0.0161,
      "velocity": 83,
      "chip": "ym2612"
    },
    {
      "channel": 3,
      "note": 73,
      "start": 16.402,
      "duration": 0.0161,
      "velocity": 100,
      "chip": "ym2612"
    },
    {
      "channel": 2,
      "note": 76,
      "start": 16.4032,
      "duration": 0.0161,
      "velocity": 100,
      "chip": "ym2612"
    },
    {
      "channel": 4,
      "note": 57,
      "start": 16.4044,
      "duration": 0.0161,
      "velocity": 100,
      "chip": "ym2612"
    },
    {
      "channel": 1,
      "note": 74,
      "start": 16.4056,
      "duration": 0.0161,
      "velocity": 83,
      "chip": "ym2612"
    },
    {
      "channel": 5,
      "note": 74,
      "start": 16.4169,
      "duration": 0.0161,
      "velocity": 83,
      "chip": "ym2612"
    },
    {
      "channel": 3,
      "note": 73,
      "start": 16.4181,
      "duration": 0.0161,
      "velocity": 100,
      "chip": "ym2612"
    },
    {
      "channel": 2,
      "note": 76,
      "start": 16.4193,
      "duration": 0.0161,
      "velocity": 100,
      "chip": "ym2612"
    },
    {
      "channel": 4,
      "note": 57,
      "start": 16.4205,
      "duration": 0.0162,
      "velocity": 100,
      "chip": "ym2612"
    },
    {
      "channel": 1,
      "note": 74,
      "start": 16.4217,
      "duration": 0.0161,
      "velocity": 83,
      "chip": "ym2612"
    },
    {
      "channel": 5,
      "note": 74,
      "start": 16.433,
      "duration": 0.0197,
      "velocity": 83,
      "chip": "ym2612"
    },
    {
      "channel": 4,
      "note": 57,
      "start": 16.4367,
      "duration": 0.0207,
      "velocity": 100,
      "chip": "ym2612"
    },
    {
      "channel": 1,
      "note": 74,
      "start": 16.4378,
      "duration": 0.0207,
      "velocity": 83,
      "chip": "ym2612"
    },
    {
      "channel": 0,
      "note": 36,
      "start": 16.4515,
      "duration": 0.0143,
      "velocity": 115,
      "chip": "ym2612"
    },
    {
      "channel": 5,
      "note": 74,
      "start": 16.4527,
      "duration": 0.0143,
      "velocity": 83,
      "chip": "ym2612"
    },
    {
      "channel": 3,
      "note": 66,
      "start": 16.4543,
      "duration": 0.014,
      "velocity": 100,
      "chip": "ym2612"
    },
    {
      "channel": 2,
      "note": 74,
      "start": 16.4559,
      "duration": 0.0136,
      "velocity": 100,
      "chip": "ym2612"
    },
    {
      "channel": 4,
      "note": 50,
      "start": 16.4573,
      "duration": 0.0134,
      "velocity": 100,
      "chip": "ym2612"
    },
    {
      "channel": 1,
      "note": 74,
      "start": 16.4585,
      "duration": 0.0133,
      "velocity": 83,
      "chip": "ym2612"
    },
    {
      "channel": 0,
      "note": 36,
      "start": 16.4658,
      "duration": 0.016,
      "velocity": 115,
      "chip": "ym2612"
    },
    {
      "channel": 5,
      "note": 74,
      "start": 16.467,
      "duration": 0.016,
      "velocity": 83,
      "chip": "ym2612"
    },
    {
      "channel": 3,
      "note": 66,
      "start": 16.4683,
      "duration": 0.0159,
      "velocity": 100,
      "chip": "ym2612"
    },
    {
      "channel": 2,
      "note": 74,
      "start": 16.4695,
      "duration": 0.0159,
      "velocity": 100,
      "chip": "ym2612"
    },
    {
      "channel": 4,
      "note": 50,
      "start": 16.4707,
      "duration": 0.0159,
      "velocity": 100,
      "chip": "ym2612"
    },
    {
      "channel": 1,
      "note": 74,
      "start": 16.4718,
      "duration": 0.0158,
      "velocity": 83,
      "chip": "ym2612"
    },
    {
      "channel": 0,
      "note": 37,
      "start": 16.4818,
      "duration": 0.0161,
      "velocity": 115,
      "chip": "ym2612"
    },
    {
      "channel": 5,
      "note": 74,
      "start": 16.483,
      "duration": 0.0161,
      "velocity": 83,
      "chip": "ym2612"
    },
    {
      "channel": 3,
      "note": 66,
      "start": 16.4842,
      "duration": 0.0162,
      "velocity": 100,
      "chip": "ym2612"
    },
    {
      "channel": 2,
      "note": 74,
      "start": 16.4853,
      "duration": 0.0161,
      "velocity": 100,
      "chip": "ym2612"
    },
    {
      "channel": 4,
      "note": 50,
      "start": 16.4865,
      "duration": 0.0161,
      "velocity": 100,
      "chip": "ym2612"
    },
    {
      "channel": 1,
      "note": 74,
      "start": 16.4877,
      "duration": 0.0162,
      "velocity": 83,
      "chip": "ym2612"
    },
    {
      "channel": 0,
      "note": 37,
      "start": 16.4979,
      "duration": 0.0161,
      "velocity": 115,
      "chip": "ym2612"
    },
    {
      "channel": 5,
      "note": 74,
      "start": 16.4991,
      "duration": 0.0161,
      "velocity": 83,
      "chip": "ym2612"
    },
    {
      "channel": 3,
      "note": 66,
      "start": 16.5003,
      "duration": 0.0161,
      "velocity": 100,
      "chip": "ym2612"
    },
    {
      "channel": 2,
      "note": 74,
      "start": 16.5015,
      "duration": 0.0161,
      "velocity": 100,
      "chip": "ym2612"
    },
    {
      "channel": 4,
      "note": 50,
      "start": 16.5026,
      "duration": 0.0161,
      "velocity": 100,
      "chip": "ym2612"
    },
    {
      "channel": 1,
      "note": 74,
      "start": 16.5038,
      "duration": 0.016,
      "velocity": 83,
      "chip": "ym2612"
    },
    {
      "channel": 0,
      "note": 38,
      "start": 16.514,
      "duration": 0.0161,
      "velocity": 115,
      "chip": "ym2612"
    },
    {
      "channel": 5,
      "note": 74,
      "start": 16.5152,
      "duration": 0.0161,
      "velocity": 83,
      "chip": "ym2612"
    },
    {
      "channel": 3,
      "note": 66,
      "start": 16.5164,
      "duration": 0.0161,
      "velocity": 100,
      "chip": "ym2612"
    },
    {
      "channel": 2,
      "note": 74,
      "start": 16.5176,
      "duration": 0.0161,
      "velocity": 100,
      "chip": "ym2612"
    },
    {
      "channel": 4,
      "note": 50,
      "start": 16.5187,
      "duration": 0.0161,
      "velocity": 100,
      "chip": "ym2612"
    },
    {
      "channel": 1,
      "note": 74,
      "start": 16.5199,
      "duration": 0.0161,
      "velocity": 83,
      "chip": "ym2612"
    },
    {
      "channel": 0,
      "note": 38,
      "start": 16.5302,
      "duration": 0.0162,
      "velocity": 115,
      "chip": "ym2612"
    },
    {
      "channel": 5,
      "note": 74,
      "start": 16.5313,
      "duration": 0.0162,
      "velocity": 83,
      "chip": "ym2612"
    },
    {
      "channel": 3,
      "note": 66,
      "start": 16.5325,
      "duration": 0.0162,
      "velocity": 100,
      "chip": "ym2612"
    },
    {
      "channel": 2,
      "note": 74,
      "start": 16.5337,
      "duration": 0.0161,
      "velocity": 100,
      "chip": "ym2612"
    },
    {
      "channel": 4,
      "note": 50,
      "start": 16.5348,
      "duration": 0.0162,
      "velocity": 100,
      "chip": "ym2612"
    },
    {
      "channel": 1,
      "note": 74,
      "start": 16.536,
      "duration": 0.0162,
      "velocity": 83,
      "chip": "ym2612"
    },
    {
      "channel": 0,
      "note": 39,
      "start": 16.5463,
      "duration": 0.0164,
      "velocity": 115,
      "chip": "ym2612"
    },
    {
      "channel": 5,
      "note": 74,
      "start": 16.5475,
      "duration": 0.0164,
      "velocity": 83,
      "chip": "ym2612"
    },
    {
      "channel": 4,
      "note": 50,
      "start": 16.551,
      "duration": 0.0171,
      "velocity": 100,
      "chip": "ym2612"
    },
    {
      "channel": 1,
      "note": 74,
      "start": 16.5522,
      "duration": 0.0171,
      "velocity": 83,
      "chip": "ym2612"
    },
    {
      "channel": 0,
      "note": 39,
      "start": 16.5627,
      "duration": 0.0163,
      "velocity": 115,
      "chip": "ym2612"
    },
    {
      "channel": 5,
      "note": 74,
      "start": 16.5639,
      "duration": 0.0163,
      "velocity": 83,
      "chip": "ym2612"
    },
    {
      "channel": 3,
      "note": 66,
      "start": 16.5654,
      "duration": 0.016,
      "velocity": 100,
      "chip": "ym2612"
    },
    {
      "channel": 2,
      "note": 74,
      "start": 16.5669,
      "duration": 0.0158,
      "velocity": 100,
      "chip": "ym2612"
    },
    {
      "channel": 4,
      "note": 50,
      "start": 16.5681,
      "duration": 0.0157,
      "velocity": 100,
      "chip": "ym2612"
    },
    {
      "channel": 1,
      "note": 74,
      "start": 16.5693,
      "duration": 0.0158,
      "velocity": 83,
      "chip": "ym2612"
    },
    {
      "channel": 0,
      "note": 40,
      "start": 16.579,
      "duration": 0.0161,
      "velocity": 115,
      "chip": "ym2612"
    },
    {
      "channel": 5,
      "note": 74,
      "start": 16.5802,
      "duration": 0.0161,
      "velocity": 83,
      "chip": "ym2612"
    },
    {
      "channel": 3,
      "note": 66,
      "start": 16.5815,
      "duration": 0.016,
      "velocity": 100,
      "chip": "ym2612"
    },
    {
      "channel": 2,
      "note": 74,
      "start": 16.5827,
      "duration": 0.016,
      "velocity": 100,
      "chip": "ym2612"
    },
    {
      "channel": 4,
      "note": 50,
      "start": 16.5839,
      "duration": 0.016,
      "velocity": 100,
      "chip": "ym2612"
    },
    {
      "channel": 1,
      "note": 74,
      "start": 16.5851,
      "duration": 0.016,
      "velocity": 83,
      "chip": "ym2612"
    },
    {
      "channel": 0,
      "note": 40,
      "start": 16.5951,
      "duration": 0.0161,
      "velocity": 115,
      "chip": "ym2612"
    },
    {
      "channel": 5,
      "note": 74,
      "start": 16.5963,
      "duration": 0.0161,
      "velocity": 83,
      "chip": "ym2612"
    },
    {
      "channel": 3,
      "note": 66,
      "start": 16.5975,
      "duration": 0.0161,
      "velocity": 100,
      "chip": "ym2612"
    },
    {
      "channel": 2,
      "note": 74,
      "start": 16.5986,
      "duration": 0.0162,
      "velocity": 100,
      "chip": "ym2612"
    },
    {
      "channel": 4,
      "note": 50,
      "start": 16.5999,
      "duration": 0.016,
      "velocity": 100,
      "chip": "ym2612"
    },
    {
      "channel": 1,
      "note": 74,
      "start": 16.6011,
      "duration": 0.016,
      "velocity": 83,
      "chip": "ym2612"
    },
    {
      "channel": 0,
      "note": 40,
      "start": 16.6112,
      "duration": 0.0158,
      "velocity": 115,
      "chip": "ym2612"
    },
    {
      "channel": 5,
      "note": 74,
      "start": 16.6124,
      "duration": 0.0161,
      "velocity": 83,
      "chip": "ym2612"
    },
    {
      "channel": 3,
      "note": 66,
      "start": 16.6136,
      "duration": 0.0161,
      "velocity": 100,
      "chip": "ym2612"
    },
    {
      "channel": 2,
      "note": 74,
      "start": 16.6148,
      "duration": 0.0161,
      "velocity": 100,
      "chip": "ym2612"
    },
    {
      "channel": 4,
      "note": 50,
      "start": 16.6159,
      "duration": 0.0161,
      "velocity": 100,
      "chip": "ym2612"
    },
    {
      "channel": 1,
      "note": 74,
      "start": 16.6171,
      "duration": 0.0161,
      "velocity": 83,
      "chip": "ym2612"
    },
    {
      "channel": 0,
      "note": 41,
      "start": 16.627,
      "duration": 0.0159,
      "velocity": 115,
      "chip": "ym2612"
    },
    {
      "channel": 5,
      "note": 74,
      "start": 16.6286,
      "duration": 0.016,
      "velocity": 83,
      "chip": "ym2612"
    },
    {
      "channel": 3,
      "note": 66,
      "start": 16.6297,
      "duration": 0.0161,
      "velocity": 100,
      "chip": "ym2612"
    },
    {
      "channel": 2,
      "note": 74,
      "start": 16.6309,
      "duration": 0.0161,
      "velocity": 100,
      "chip": "ym2612"
    },
    {
      "channel": 4,
      "note": 50,
      "start": 16.632,
      "duration": 0.0161,
      "velocity": 100,
      "chip": "ym2612"
    },
    {
      "channel": 1,
      "note": 74,
      "start": 16.6332,
      "duration": 0.0161,
      "velocity": 83,
      "chip": "ym2612"
    },
    {
      "channel": 0,
      "note": 41,
      "start": 16.6428,
      "duration": 0.0161,
      "velocity": 115,
      "chip": "ym2612"
    },
    {
      "channel": 5,
      "note": 74,
      "start": 16.6446,
      "duration": 0.0158,
      "velocity": 83,
      "chip": "ym2612"
    },
    {
      "channel": 3,
      "note": 66,
      "start": 16.6458,
      "duration": 0.0161,
      "velocity": 100,
      "chip": "ym2612"
    },
    {
      "channel": 2,
      "note": 74,
      "start": 16.647,
      "duration": 0.0161,
      "velocity": 100,
      "chip": "ym2612"
    },
    {
      "channel": 4,
      "note": 50,
      "start": 16.6481,
      "duration": 0.0161,
      "velocity": 100,
      "chip": "ym2612"
    },
    {
      "channel": 1,
      "note": 74,
      "start": 16.6493,
      "duration": 0.0161,
      "velocity": 83,
      "chip": "ym2612"
    },
    {
      "channel": 0,
      "note": 42,
      "start": 16.6589,
      "duration": 0.0161,
      "velocity": 115,
      "chip": "ym2612"
    },
    {
      "channel": 5,
      "note": 74,
      "start": 16.6604,
      "duration": 0.0159,
      "velocity": 83,
      "chip": "ym2612"
    },
    {
      "channel": 4,
      "note": 50,
      "start": 16.6643,
      "duration": 0.0164,
      "velocity": 100,
      "chip": "ym2612"
    },
    {
      "channel": 1,
      "note": 74,
      "start": 16.6654,
      "duration": 0.0165,
      "velocity": 83,
      "chip": "ym2612"
    },
    {
      "channel": 0,
      "note": 42,
      "start": 16.675,
      "duration": 0.0162,
      "velocity": 115,
      "chip": "ym2612"
    },
    {
      "channel": 5,
      "note": 74,
      "start": 16.6762,
      "duration": 0.0161,
      "velocity": 83,
      "chip": "ym2612"
    },
    {
      "channel": 4,
      "note": 50,
      "start": 16.6807,
      "duration": 0.0159,
      "velocity": 100,
      "chip": "ym2612"
    },
    {
      "channel": 1,
      "note": 74,
      "start": 16.6819,
      "duration": 0.0159,
      "velocity": 83,
      "chip": "ym2612"
    },
    {
      "channel": 0,
      "note": 43,
      "start": 16.6912,
      "duration": 0.0161,
      "velocity": 115,
      "chip": "ym2612"
    },
    {
      "channel": 5,
      "note": 74,
      "start": 16.6923,
      "duration": 0.0162,
      "velocity": 83,
      "chip": "ym2612"
    },
    {
      "channel": 4,
      "note": 50,
      "start": 16.6966,
      "duration": 0.016,
      "velocity": 100,
      "chip": "ym2612"
    },
    {
      "channel": 1,
      "note": 74,
      "start": 16.6978,
      "duration": 0.016,
      "velocity": 83,
      "chip": "ym2612"
    },
    {
      "channel": 0,
      "note": 43,
      "start": 16.7073,
      "duration": 0.0161,
      "velocity": 115,
      "chip": "ym2612"
    },
    {
      "channel": 5,
      "note": 74,
      "start": 16.7085,
      "duration": 0.0161,
      "velocity": 83,
      "chip": "ym2612"
    },
    {
      "channel": 4,
      "note": 50,
      "start": 16.7126,
      "duration": 0.0161,
      "velocity": 100,
      "chip": "ym2612"
    },
    {
      "channel": 1,
      "note": 74,
      "start": 16.7138,
      "duration": 0.0161,
      "velocity": 83,
      "chip": "ym2612"
    },
    {
      "channel": 0,
      "note": 44,
      "start": 16.7234,
      "duration": 0.0161,
      "velocity": 115,
      "chip": "ym2612"
    },
    {
      "channel": 5,
      "note": 74,
      "start": 16.7246,
      "duration": 0.0161,
      "velocity": 83,
      "chip": "ym2612"
    },
    {
      "channel": 4,
      "note": 50,
      "start": 16.7287,
      "duration": 0.0161,
      "velocity": 100,
      "chip": "ym2612"
    },
    {
      "channel": 1,
      "note": 74,
      "start": 16.7298,
      "duration": 0.0161,
      "velocity": 83,
      "chip": "ym2612"
    },
    {
      "channel": 0,
      "note": 44,
      "start": 16.7395,
      "duration": 0.0161,
      "velocity": 115,
      "chip": "ym2612"
    },
    {
      "channel": 5,
      "note": 74,
      "start": 16.7407,
      "duration": 0.0161,
      "velocity": 83,
      "chip": "ym2612"
    },
    {
      "channel": 4,
      "note": 50,
      "start": 16.7448,
      "duration": 0.016,
      "velocity": 100,
      "chip": "ym2612"
    },
    {
      "channel": 1,
      "note": 74,
      "start": 16.7459,
      "duration": 0.0162,
      "velocity": 83,
      "chip": "ym2612"
    },
    {
      "channel": 0,
      "note": 44,
      "start": 16.7556,
      "duration": 0.0161,
      "velocity": 115,
      "chip": "ym2612"
    },
    {
      "channel": 5,
      "note": 74,
      "start": 16.7568,
      "duration": 0.0161,
      "velocity": 83,
      "chip": "ym2612"
    },
    {
      "channel": 4,
      "note": 50,
      "start": 16.7608,
      "duration": 0.0156,
      "velocity": 100,
      "chip": "ym2612"
    },
    {
      "channel": 1,
      "note": 74,
      "start": 16.7621,
      "duration": 0.0161,
      "velocity": 83,
      "chip": "ym2612"
    },
    {
      "channel": 0,
      "note": 45,
      "start": 16.7717,
      "duration": 0.0179,
      "velocity": 115,
      "chip": "ym2612"
    },
    {
      "channel": 5,
      "note": 74,
      "start": 16.7729,
      "duration": 0.0179,
      "velocity": 83,
      "chip": "ym2612"
    },
    {
      "channel": 4,
      "note": 50,
      "start": 16.7764,
      "duration": 0.0195,
      "velocity": 100,
      "chip": "ym2612"
    },
    {
      "channel": 1,
      "note": 74,
      "start": 16.7782,
      "duration": 0.019,
      "velocity": 83,
      "chip": "ym2612"
    },
    {
      "channel": 0,
      "note": 36,
      "start": 16.7896,
      "duration": 0.0143,
      "velocity": 115,
      "chip": "ym2612"
    },
    {
      "channel": 5,
      "note": 74,
      "start": 16.7908,
      "duration": 0.0143,
      "velocity": 83,
      "chip": "ym2612"
    },
    {
      "channel": 3,
      "note": 66,
      "start": 16.7924,
      "duration": 0.014,
      "velocity": 100,
      "chip": "ym2612"
    },
    {
      "channel": 2,
      "note": 74,
      "start": 16.7944,
      "duration": 0.0132,
      "velocity": 100,
      "chip": "ym2612"
    },
    {
      "channel": 4,
      "note": 50,
      "start": 16.7959,
      "duration": 0.0129,
      "velocity": 100,
      "chip": "ym2612"
    },
    {
      "channel": 1,
      "note": 74,
      "start": 16.7971,
      "duration": 0.0128,
      "velocity": 83,
      "chip": "ym2612"
    },
    {
      "channel": 0,
      "note": 36,
      "start": 16.8039,
      "duration": 0.0161,
      "velocity": 115,
      "chip": "ym2612"
    },
    {
      "channel": 5,
      "note": 74,
      "start": 16.8051,
      "duration": 0.016,
      "velocity": 83,
      "chip": "ym2612"
    },
    {
      "channel": 3,
      "note": 66,
      "start": 16.8064,
      "duration": 0.016,
      "velocity": 100,
      "chip": "ym2612"
    },
    {
      "channel": 2,
      "note": 74,
      "start": 16.8076,
      "duration": 0.0159,
      "velocity": 100,
      "chip": "ym2612"
    },
    {
      "channel": 4,
      "note": 50,
      "start": 16.8088,
      "duration": 0.0158,
      "velocity": 100,
      "chip": "ym2612"
    },
    {
      "channel": 1,
      "note": 74,
      "start": 16.8099,
      "duration": 0.0159,
      "velocity": 83,
      "chip": "ym2612"
    },
    {
      "channel": 0,
      "note": 37,
      "start": 16.82,
      "duration": 0.0161,
      "velocity": 115,
      "chip": "ym2612"
    },
    {
      "channel": 5,
      "note": 74,
      "start": 16.8211,
      "duration": 0.0161,
      "velocity": 83,
      "chip": "ym2612"
    },
    {
      "channel": 3,
      "note": 66,
      "start": 16.8223,
      "duration": 0.0161,
      "velocity": 100,
      "chip": "ym2612"
    },
    {
      "channel": 2,
      "note": 74,
      "start": 16.8235,
      "duration": 0.0161,
      "velocity": 100,
      "chip": "ym2612"
    },
    {
      "channel": 4,
      "note": 50,
      "start": 16.8246,
      "duration": 0.0161,
      "velocity": 100,
      "chip": "ym2612"
    },
    {
      "channel": 1,
      "note": 74,
      "start": 16.8258,
      "duration": 0.0161,
      "velocity": 83,
      "chip": "ym2612"
    },
    {
      "channel": 0,
      "note": 37,
      "start": 16.8361,
      "duration": 0.0161,
      "velocity": 115,
      "chip": "ym2612"
    },
    {
      "channel": 5,
      "note": 74,
      "start": 16.8372,
      "duration": 0.0161,
      "velocity": 83,
      "chip": "ym2612"
    },
    {
      "channel": 3,
      "note": 66,
      "start": 16.8384,
      "duration": 0.0161,
      "velocity": 100,
      "chip": "ym2612"
    },
    {
      "channel": 2,
      "note": 74,
      "start": 16.8396,
      "duration": 0.0161,
      "velocity": 100,
      "chip": "ym2612"
    },
    {
      "channel": 4,
      "note": 50,
      "start": 16.8407,
      "duration": 0.0161,
      "velocity": 100,
      "chip": "ym2612"
    },
    {
      "channel": 1,
      "note": 74,
      "start": 16.8419,
      "duration": 0.0161,
      "velocity": 83,
      "chip": "ym2612"
    },
    {
      "channel": 0,
      "note": 38,
      "start": 16.8522,
      "duration": 0.0161,
      "velocity": 115,
      "chip": "ym2612"
    },
    {
      "channel": 5,
      "note": 74,
      "start": 16.8534,
      "duration": 0.0161,
      "velocity": 83,
      "chip": "ym2612"
    },
    {
      "channel": 3,
      "note": 66,
      "start": 16.8545,
      "duration": 0.0161,
      "velocity": 100,
      "chip": "ym2612"
    },
    {
      "channel": 2,
      "note": 74,
      "start": 16.8557,
      "duration": 0.0161,
      "velocity": 100,
      "chip": "ym2612"
    },
    {
      "channel": 4,
      "note": 50,
      "start": 16.8568,
      "duration": 0.0161,
      "velocity": 100,
      "chip": "ym2612"
    },
    {
      "channel": 1,
      "note": 74,
      "start": 16.858,
      "duration": 0.0161,
      "velocity": 83,
      "chip": "ym2612"
    },
    {
      "channel": 0,
      "note": 38,
      "start": 16.8683,
      "duration": 0.0161,
      "velocity": 115,
      "chip": "ym2612"
    },
    {
      "channel": 5,
      "note": 74,
      "start": 16.8695,
      "duration": 0.016,
      "velocity": 83,
      "chip": "ym2612"
    },
    {
      "channel": 3,
      "note": 66,
      "start": 16.8706,
      "duration": 0.0161,
      "velocity": 100,
      "chip": "ym2612"
    },
    {
      "channel": 2,
      "note": 74,
      "start": 16.8718,
      "duration": 0.0161,
      "velocity": 100,
      "chip": "ym2612"
    },
    {
      "channel": 4,
      "note": 50,
      "start": 16.8729,
      "duration": 0.0161,
      "velocity": 100,
      "chip": "ym2612"
    },
    {
      "channel": 1,
      "note": 74,
      "start": 16.8741,
      "duration": 0.0161,
      "velocity": 83,
      "chip": "ym2612"
    },
    {
      "channel": 0,
      "note": 39,
      "start": 16.8844,
      "duration": 0.0161,
      "velocity": 115,
      "chip": "ym2612"
    },
    {
      "channel": 5,
      "note": 74,
      "start": 16.8855,
      "duration": 0.0162,
      "velocity": 83,
      "chip": "ym2612"
    },
    {
      "channel": 4,
      "note": 50,
      "start": 16.889,
      "duration": 0.0169,
      "velocity": 100,
      "chip": "ym2612"
    },
    {
      "channel": 1,
      "note": 74,
      "start": 16.8902,
      "duration": 0.0168,
      "velocity": 83,
      "chip": "ym2612"
    },
    {
      "channel": 0,
      "note": 39,
      "start": 16.9005,
      "duration": 0.0161,
      "velocity": 115,
      "chip": "ym2612"
    },
    {
      "channel": 5,
      "note": 74,
      "start": 16.9017,
      "duration": 0.0161,
      "velocity": 83,
      "chip": "ym2612"
    },
    {
      "channel": 3,
      "note": 66,
      "start": 16.9031,
      "duration": 0.0159,
      "velocity": 100,
      "chip": "ym2612"
    },
    {
      "channel": 2,
      "note": 74,
      "start": 16.9047,
      "duration": 0.0155,
      "velocity": 100,
      "chip": "ym2612"
    },
    {
      "channel": 4,
      "note": 50,
      "start": 16.9059,
      "duration": 0.0155,
      "velocity": 100,
      "chip": "ym2612"
    },
    {
      "channel": 1,
      "note": 74,
      "start": 16.9071,
      "duration": 0.0155,
      "velocity": 83,
      "chip": "ym2612"
    },
    {
      "channel": 0,
      "note": 40,
      "start": 16.9166,
      "duration": 0.0161,
      "velocity": 115,
      "chip": "ym2612"
    },
    {
      "channel": 5,
      "note": 74,
      "start": 16.9178,
      "duration": 0.0161,
      "velocity": 83,
      "chip": "ym2612"
    },
    {
      "channel": 3,
      "note": 66,
      "start": 16.919,
      "duration": 0.016,
      "velocity": 100,
      "chip": "ym2612"
    },
    {
      "channel": 2,
      "note": 74,
      "start": 16.9202,
      "duration": 0.016,
      "velocity": 100,
      "chip": "ym2612"
    },
    {
      "channel": 4,
      "note": 50,
      "start": 16.9214,
      "duration": 0.016,
      "velocity": 100,
      "chip": "ym2612"
    },
    {
      "channel": 1,
      "note": 74,
      "start": 16.9226,
      "duration": 0.016,
      "velocity": 83,
      "chip": "ym2612"
    },
    {
      "channel": 0,
      "note": 40,
      "start": 16.9327,
      "duration": 0.0161,
      "velocity": 115,
      "chip": "ym2612"
    },
    {
      "channel": 5,
      "note": 74,
      "start": 16.9339,
      "duration": 0.0161,
      "velocity": 83,
      "chip": "ym2612"
    },
    {
      "channel": 3,
      "note": 66,
      "start": 16.935,
      "duration": 0.0161,
      "velocity": 100,
      "chip": "ym2612"
    },
    {
      "channel": 2,
      "note": 74,
      "start": 16.9361,
      "duration": 0.0162,
      "velocity": 100,
      "chip": "ym2612"
    },
    {
      "channel": 4,
      "note": 50,
      "start": 16.9374,
      "duration": 0.016,
      "velocity": 100,
      "chip": "ym2612"
    },
    {
      "channel": 1,
      "note": 74,
      "start": 16.9386,
      "duration": 0.016,
      "velocity": 83,
      "chip": "ym2612"
    },
    {
      "channel": 0,
      "note": 40,
      "start": 16.9488,
      "duration": 0.0161,
      "velocity": 115,
      "chip": "ym2612"
    },
    {
      "channel": 5,
      "note": 74,
      "start": 16.95,
      "duration": 0.0161,
      "velocity": 83,
      "chip": "ym2612"
    },
    {
      "channel": 3,
      "note": 66,
      "start": 16.9512,
      "duration": 0.0161,
      "velocity": 100,
      "chip": "ym2612"
    },
    {
      "channel": 2,
      "note": 74,
      "start": 16.9523,
      "duration": 0.0161,
      "velocity": 100,
      "chip": "ym2612"
    },
    {
      "channel": 4,
      "note": 50,
      "start": 16.9534,
      "duration": 0.0161,
      "velocity": 100,
      "chip": "ym2612"
    },
    {
      "channel": 1,
      "note": 74,
      "start": 16.9546,
      "duration": 0.0161,
      "velocity": 83,
      "chip": "ym2612"
    },
    {
      "channel": 0,
      "note": 41,
      "start": 16.9649,
      "duration": 0.0161,
      "velocity": 115,
      "chip": "ym2612"
    },
    {
      "channel": 5,
      "note": 74,
      "start": 16.9661,
      "duration": 0.0161,
      "velocity": 83,
      "chip": "ym2612"
    },
    {
      "channel": 3,
      "note": 66,
      "start": 16.9673,
      "duration": 0.0161,
      "velocity": 100,
      "chip": "ym2612"
    },
    {
      "channel": 2,
      "note": 74,
      "start": 16.9684,
      "duration": 0.0161,
      "velocity": 100,
      "chip": "ym2612"
    },
    {
      "channel": 4,
      "note": 50,
      "start": 16.9695,
      "duration": 0.0161,
      "velocity": 100,
      "chip": "ym2612"
    },
    {
      "channel": 1,
      "note": 74,
      "start": 16.9707,
      "duration": 0.0162,
      "velocity": 83,
      "chip": "ym2612"
    },
    {
      "channel": 0,
      "note": 41,
      "start": 16.981,
      "duration": 0.0161,
      "velocity": 115,
      "chip": "ym2612"
    },
    {
      "channel": 5,
      "note": 74,
      "start": 16.9821,
      "duration": 0.0162,
      "velocity": 83,
      "chip": "ym2612"
    },
    {
      "channel": 3,
      "note": 66,
      "start": 16.9834,
      "duration": 0.0161,
      "velocity": 100,
      "chip": "ym2612"
    },
    {
      "channel": 2,
      "note": 74,
      "start": 16.9845,
      "duration": 0.0161,
      "velocity": 100,
      "chip": "ym2612"
    },
    {
      "channel": 4,
      "note": 50,
      "start": 16.9856,
      "duration": 0.0161,
      "velocity": 100,
      "chip": "ym2612"
    },
    {
      "channel": 1,
      "note": 74,
      "start": 16.9868,
      "duration": 0.0161,
      "velocity": 83,
      "chip": "ym2612"
    },
    {
      "channel": 0,
      "note": 42,
      "start": 16.9971,
      "duration": 0.0179,
      "velocity": 115,
      "chip": "ym2612"
    },
    {
      "channel": 5,
      "note": 74,
      "start": 16.9983,
      "duration": 0.018,
      "velocity": 83,
      "chip": "ym2612"
    },
    {
      "channel": 4,
      "note": 50,
      "start": 17.0018,
      "duration": 0.019,
      "velocity": 100,
      "chip": "ym2612"
    },
    {
      "channel": 1,
      "note": 74,
      "start": 17.0029,
      "duration": 0.0191,
      "velocity": 83,
      "chip": "ym2612"
    },
    {
      "channel": 0,
      "note": 36,
      "start": 17.0151,
      "duration": 0.0146,
      "velocity": 115,
      "chip": "ym2612"
    },
    {
      "channel": 5,
      "note": 74,
      "start": 17.0163,
      "duration": 0.0146,
      "velocity": 83,
      "chip": "ym2612"
    },
    {
      "channel": 3,
      "note": 66,
      "start": 17.0178,
      "duration": 0.0143,
      "velocity": 100,
      "chip": "ym2612"
    },
    {
      "channel": 2,
      "note": 74,
      "start": 17.0194,
      "duration": 0.014,
      "velocity": 100,
      "chip": "ym2612"
    },
    {
      "channel": 4,
      "note": 50,
      "start": 17.0208,
      "duration": 0.0138,
      "velocity": 100,
      "chip": "ym2612"
    },
    {
      "channel": 1,
      "note": 74,
      "start": 17.022,
      "duration": 0.0137,
      "velocity": 83,
      "chip": "ym2612"
    },
    {
      "channel": 0,
      "note": 36,
      "start": 17.0297,
      "duration": 0.0162,
      "velocity": 115,
      "chip": "ym2612"
    },
    {
      "channel": 5,
      "note": 74,
      "start": 17.0309,
      "duration": 0.0162,
      "velocity": 83,
      "chip": "ym2612"
    },
    {
      "channel": 3,
      "note": 66,
      "start": 17.0321,
      "duration": 0.0162,
      "velocity": 100,
      "chip": "ym2612"
    },
    {
      "channel": 2,
      "note": 74,
      "start": 17.0334,
      "duration": 0.0161,
      "velocity": 100,
      "chip": "ym2612"
    },
    {
      "channel": 4,
      "note": 50,
      "start": 17.0346,
      "duration": 0.016,
      "velocity": 100,
      "chip": "ym2612"
    },
    {
      "channel": 1,
      "note": 74,
      "start": 17.0358,
      "duration": 0.016,
      "velocity": 83,
      "chip": "ym2612"
    },
    {
      "channel": 0,
      "note": 37,
      "start": 17.0459,
      "duration": 0.0162,
      "velocity": 115,
      "chip": "ym2612"
    },
    {
      "channel": 5,
      "note": 74,
      "start": 17.0471,
      "duration": 0.0161,
      "velocity": 83,
      "chip": "ym2612"
    },
    {
      "channel": 3,
      "note": 66,
      "start": 17.0484,
      "duration": 0.0161,
      "velocity": 100,
      "chip": "ym2612"
    },
    {
      "channel": 2,
      "note": 74,
      "start": 17.0495,
      "duration": 0.0161,
      "velocity": 100,
      "chip": "ym2612"
    },
    {
      "channel": 4,
      "note": 50,
      "start": 17.0507,
      "duration": 0.0161,
      "velocity": 100,
      "chip": "ym2612"
    },
    {
      "channel": 1,
      "note": 74,
      "start": 17.0518,
      "duration": 0.0161,
      "velocity": 83,
      "chip": "ym2612"
    },
    {
      "channel": 0,
      "note": 37,
      "start": 17.0621,
      "duration": 0.016,
      "velocity": 115,
      "chip": "ym2612"
    },
    {
      "channel": 5,
      "note": 74,
      "start": 17.0632,
      "duration": 0.0161,
      "velocity": 83,
      "chip": "ym2612"
    },
    {
      "channel": 3,
      "note": 66,
      "start": 17.0645,
      "duration": 0.0161,
      "velocity": 100,
      "chip": "ym2612"
    },
    {
      "channel": 2,
      "note": 74,
      "start": 17.0656,
      "duration": 0.0161,
      "velocity": 100,
      "chip": "ym2612"
    },
    {
      "channel": 4,
      "note": 50,
      "start": 17.0668,
      "duration": 0.0161,
      "velocity": 100,
      "chip": "ym2612"
    },
    {
      "channel": 1,
      "note": 74,
      "start": 17.0679,
      "duration": 0.0162,
      "velocity": 83,
      "chip": "ym2612"
    },
    {
      "channel": 0,
      "note": 38,
      "start": 17.0781,
      "duration": 0.0158,
      "velocity": 115,
      "chip": "ym2612"
    },
    {
      "channel": 5,
      "note": 74,
      "start": 17.0793,
      "duration": 0.0162,
      "velocity": 83,
      "chip": "ym2612"
    },
    {
      "channel": 3,
      "note": 66,
      "start": 17.0805,
      "duration": 0.0161,
      "velocity": 100,
      "chip": "ym2612"
    },
    {
      "channel": 2,
      "note": 74,
      "start": 17.0817,
      "duration": 0.0161,
      "velocity": 100,
      "chip": "ym2612"
    },
    {
      "channel": 4,
      "note": 50,
      "start": 17.0828,
      "duration": 0.0161,
      "velocity": 100,
      "chip": "ym2612"
    },
    {
      "channel": 1,
      "note": 74,
      "start": 17.0841,
      "duration": 0.0161,
      "velocity": 83,
      "chip": "ym2612"
    },
    {
      "channel": 0,
      "note": 38,
      "start": 17.0939,
      "duration": 0.0159,
      "velocity": 115,
      "chip": "ym2612"
    },
    {
      "channel": 5,
      "note": 74,
      "start": 17.0955,
      "duration": 0.016,
      "velocity": 83,
      "chip": "ym2612"
    },
    {
      "channel": 3,
      "note": 66,
      "start": 17.0966,
      "duration": 0.0161,
      "velocity": 100,
      "chip": "ym2612"
    },
    {
      "channel": 2,
      "note": 74,
      "start": 17.0978,
      "duration": 0.0161,
      "velocity": 100,
      "chip": "ym2612"
    },
    {
      "channel": 4,
      "note": 50,
      "start": 17.0989,
      "duration": 0.0162,
      "velocity": 100,
      "chip": "ym2612"
    },
    {
      "channel": 0,
      "note": 39,
      "start": 17.1098,
      "duration": 0.0162,
      "velocity": 115,
      "chip": "ym2612"
    },
    {
      "channel": 5,
      "note": 74,
      "start": 17.1115,
      "duration": 0.0158,
      "velocity": 83,
      "chip": "ym2612"
    },
    {
      "channel": 4,
      "note": 50,
      "start": 17.1151,
      "duration": 0.0168,
      "velocity": 100,
      "chip": "ym2612"
    },
    {
      "channel": 0,
      "note": 39,
      "start": 17.1259,
      "duration": 0.0161,
      "velocity": 115,
      "chip": "ym2612"
    },
    {
      "channel": 5,
      "note": 74,
      "start": 17.1273,
      "duration": 0.0159,
      "velocity": 83,
      "chip": "ym2612"
    },
    {
      "channel": 3,
      "note": 66,
      "start": 17.1292,
      "duration": 0.0158,
      "velocity": 100,
      "chip": "ym2612"
    },
    {
      "channel": 2,
      "note": 74,
      "start": 17.1306,
      "duration": 0.0156,
      "velocity": 100,
      "chip": "ym2612"
    },
    {
      "channel": 4,
      "note": 50,
      "start": 17.1319,
      "duration": 0.0155,
      "velocity": 100,
      "chip": "ym2612"
    },
    {
      "channel": 0,
      "note": 40,
      "start": 17.142,
      "duration": 0.0161,
      "velocity": 115,
      "chip": "ym2612"
    },
    {
      "channel": 5,
      "note": 74,
      "start": 17.1432,
      "duration": 0.0161,
      "velocity": 83,
      "chip": "ym2612"
    },
    {
      "channel": 3,
      "note": 66,
      "start": 17.145,
      "duration": 0.016,
      "velocity": 100,
      "chip": "ym2612"
    },
    {
      "channel": 2,
      "note": 74,
      "start": 17.1462,
      "duration": 0.016,
      "velocity": 100,
      "chip": "ym2612"
    },
    {
      "channel": 4,
      "note": 50,
      "start": 17.1474,
      "duration": 0.016,
      "velocity": 100,
      "chip": "ym2612"
    },
    {
      "channel": 0,
      "note": 40,
      "start": 17.1581,
      "duration": 0.0161,
      "velocity": 115,
      "chip": "ym2612"
    },
    {
      "channel": 3,
      "note": 66,
      "start": 17.161,
      "duration": 0.0156,
      "velocity": 100,
      "chip": "ym2612"
    },
    {
      "channel": 2,
      "note": 74,
      "start": 17.1622,
      "duration": 0.0161,
      "velocity": 100,
      "chip": "ym2612"
    },
    {
      "channel": 4,
      "note": 50,
      "start": 17.1634,
      "duration": 0.016,
      "velocity": 100,
      "chip": "ym2612"
    },
    {
      "channel": 0,
      "note": 40,
      "start": 17.1742,
      "duration": 0.0161,
      "velocity": 115,
      "chip": "ym2612"
    },
    {
      "channel": 3,
      "note": 66,
      "start": 17.1766,
      "duration": 0.0162,
      "velocity": 100,
      "chip": "ym2612"
    },
    {
      "channel": 2,
      "note": 74,
      "start": 17.1783,
      "duration": 0.0162,
      "velocity": 100,
      "chip": "ym2612"
    },
    {
      "channel": 4,
      "note": 50,
      "start": 17.1794,
      "duration": 0.0163,
      "velocity": 100,
      "chip": "ym2612"
    },
    {
      "channel": 0,
      "note": 41,
      "start": 17.1903,
      "duration": 0.0161,
      "velocity": 115,
      "chip": "ym2612"
    },
    {
      "channel": 3,
      "note": 66,
      "start": 17.1928,
      "duration": 0.016,
      "velocity": 100,
      "chip": "ym2612"
    },
    {
      "channel": 2,
      "note": 74,
      "start": 17.1945,
      "duration": 0.0154,
      "velocity": 100,
      "chip": "ym2612"
    },
    {
      "channel": 4,
      "note": 50,
      "start": 17.1957,
      "duration": 0.016,
      "velocity": 100,
      "chip": "ym2612"
    },
    {
      "channel": 0,
      "note": 41,
      "start": 17.2064,
      "duration": 0.0161,
      "velocity": 115,
      "chip": "ym2612"
    },
    {
      "channel": 3,
      "note": 66,
      "start": 17.2087,
      "duration": 0.0161,
      "velocity": 100,
      "chip": "ym2612"
    },
    {
      "channel": 2,
      "note": 74,
      "start": 17.2099,
      "duration": 0.0161,
      "velocity": 100,
      "chip": "ym2612"
    },
    {
      "channel": 4,
      "note": 50,
      "start": 17.2117,
      "duration": 0.0161,
      "velocity": 100,
      "chip": "ym2612"
    },
    {
      "channel": 0,
      "note": 42,
      "start": 17.2225,
      "duration": 0.0161,
      "velocity": 115,
      "chip": "ym2612"
    },
    {
      "channel": 4,
      "note": 50,
      "start": 17.2278,
      "duration": 0.0162,
      "velocity": 100,
      "chip": "ym2612"
    },
    {
      "channel": 0,
      "note": 42,
      "start": 17.2386,
      "duration": 0.0161,
      "velocity": 115,
      "chip": "ym2612"
    },
    {
      "channel": 4,
      "note": 50,
      "start": 17.244,
      "duration": 0.0155,
      "velocity": 100,
      "chip": "ym2612"
    },
    {
      "channel": 0,
      "note": 43,
      "start": 17.2547,
      "duration": 0.0161,
      "velocity": 115,
      "chip": "ym2612"
    },
    {
      "channel": 4,
      "note": 50,
      "start": 17.2595,
      "duration": 0.016,
      "velocity": 100,
      "chip": "ym2612"
    },
    {
      "channel": 0,
      "note": 43,
      "start": 17.2708,
      "duration": 0.0161,
      "velocity": 115,
      "chip": "ym2612"
    },
    {
      "channel": 4,
      "note": 50,
      "start": 17.2755,
      "duration": 0.0161,
      "velocity": 100,
      "chip": "ym2612"
    },
    {
      "channel": 0,
      "note": 44,
      "start": 17.2869,
      "duration": 0.0161,
      "velocity": 115,
      "chip": "ym2612"
    },
    {
      "channel": 4,
      "note": 50,
      "start": 17.2916,
      "duration": 0.0161,
      "velocity": 100,
      "chip": "ym2612"
    },
    {
      "channel": 0,
      "note": 44,
      "start": 17.303,
      "duration": 0.0161,
      "velocity": 115,
      "chip": "ym2612"
    },
    {
      "channel": 4,
      "note": 50,
      "start": 17.3077,
      "duration": 0.0161,
      "velocity": 100,
      "chip": "ym2612"
    },
    {
      "channel": 0,
      "note": 44,
      "start": 17.3191,
      "duration": 0.0161,
      "velocity": 115,
      "chip": "ym2612"
    },
    {
      "channel": 4,
      "note": 50,
      "start": 17.3238,
      "duration": 0.0161,
      "velocity": 100,
      "chip": "ym2612"
    },
    {
      "channel": 0,
      "note": 45,
      "start": 17.3352,
      "duration": 0.0161,
      "velocity": 115,
      "chip": "ym2612"
    },
    {
      "channel": 4,
      "note": 50,
      "start": 17.3399,
      "duration": 0.0161,
      "velocity": 100,
      "chip": "ym2612"
    },
    {
      "channel": 0,
      "note": 45,
      "start": 17.3513,
      "duration": 0.0161,
      "velocity": 115,
      "chip": "ym2612"
    },
    {
      "channel": 4,
      "note": 50,
      "start": 17.3561,
      "duration": 0.0161,
      "velocity": 100,
      "chip": "ym2612"
    },
    {
      "channel": 0,
      "note": 46,
      "start": 17.3674,
      "duration": 0.0161,
      "velocity": 115,
      "chip": "ym2612"
    },
    {
      "channel": 4,
      "note": 50,
      "start": 17.3722,
      "duration": 0.0161,
      "velocity": 100,
      "chip": "ym2612"
    },
    {
      "channel": 0,
      "note": 46,
      "start": 17.3835,
      "duration": 0.0161,
      "velocity": 115,
      "chip": "ym2612"
    },
    {
      "channel": 4,
      "note": 50,
      "start": 17.3883,
      "duration": 0.0161,
      "velocity": 100,
      "chip": "ym2612"
    },
    {
      "channel": 0,
      "note": 47,
      "start": 17.3996,
      "duration": 0.0162,
      "velocity": 115,
      "chip": "ym2612"
    },
    {
      "channel": 4,
      "note": 50,
      "start": 17.4043,
      "duration": 0.0161,
      "velocity": 100,
      "chip": "ym2612"
    },
    {
      "channel": 0,
      "note": 47,
      "start": 17.4157,
      "duration": 0.0161,
      "velocity": 115,
      "chip": "ym2612"
    },
    {
      "channel": 4,
      "note": 50,
      "start": 17.4204,
      "duration": 0.0161,
      "velocity": 100,
      "chip": "ym2612"
    },
    {
      "channel": 0,
      "note": 47,
      "start": 17.4318,
      "duration": 0.0161,
      "velocity": 115,
      "chip": "ym2612"
    },
    {
      "channel": 4,
      "note": 50,
      "start": 17.4365,
      "duration": 0.0161,
      "velocity": 100,
      "chip": "ym2612"
    },
    {
      "channel": 0,
      "note": 48,
      "start": 17.4479,
      "duration": 0.0179,
      "velocity": 127,
      "chip": "ym2612"
    },
    {
      "channel": 4,
      "note": 50,
      "start": 17.4526,
      "duration": 0.0179,
      "velocity": 100,
      "chip": "ym2612"
    },
    {
      "channel": 0,
      "note": 88,
      "start": 17.4659,
      "duration": 0.0144,
      "velocity": 127,
      "chip": "ym2612"
    },
    {
      "channel": 4,
      "note": 50,
      "start": 17.4706,
      "duration": 0.0144,
      "velocity": 100,
      "chip": "ym2612"
    },
    {
      "channel": 1,
      "note": 86,
      "start": 17.4734,
      "duration": 0.0128,
      "velocity": 87,
      "chip": "ym2612"
    },
    {
      "channel": 0,
      "note": 86,
      "start": 17.4802,
      "duration": 0.0162,
      "velocity": 127,
      "chip": "ym2612"
    },
    {
      "channel": 4,
      "note": 50,
      "start": 17.4849,
      "duration": 0.0161,
      "velocity": 100,
      "chip": "ym2612"
    },
    {
      "channel": 1,
      "note": 86,
      "start": 17.4862,
      "duration": 0.0161,
      "velocity": 87,
      "chip": "ym2612"
    },
    {
      "channel": 0,
      "note": 85,
      "start": 17.4964,
      "duration": 0.0163,
      "velocity": 127,
      "chip": "ym2612"
    },
    {
      "channel": 4,
      "note": 50,
      "start": 17.5011,
      "duration": 0.0163,
      "velocity": 100,
      "chip": "ym2612"
    },
    {
      "channel": 1,
      "note": 86,
      "start": 17.5023,
      "duration": 0.0163,
      "velocity": 87,
      "chip": "ym2612"
    },
    {
      "channel": 0,
      "note": 83,
      "start": 17.5127,
      "duration": 0.0163,
      "velocity": 127,
      "chip": "ym2612"
    },
    {
      "channel": 4,
      "note": 50,
      "start": 17.5174,
      "duration": 0.0163,
      "velocity": 100,
      "chip": "ym2612"
    },
    {
      "channel": 1,
      "note": 86,
      "start": 17.5186,
      "duration": 0.0163,
      "velocity": 87,
      "chip": "ym2612"
    },
    {
      "channel": 0,
      "note": 81,
      "start": 17.529,
      "duration": 0.0162,
      "velocity": 127,
      "chip": "ym2612"
    },
    {
      "channel": 4,
      "note": 50,
      "start": 17.5337,
      "duration": 0.0161,
      "velocity": 100,
      "chip": "ym2612"
    },
    {
      "channel": 1,
      "note": 86,
      "start": 17.5349,
      "duration": 0.0161,
      "velocity": 87,
      "chip": "ym2612"
    },
    {
      "channel": 0,
      "note": 80,
      "start": 17.5451,
      "duration": 0.016,
      "velocity": 127,
      "chip": "ym2612"
    },
    {
      "channel": 4,
      "note": 50,
      "start": 17.5498,
      "duration": 0.0161,
      "velocity": 100,
      "chip": "ym2612"
    },
    {
      "channel": 0,
      "note": 78,
      "start": 17.5612,
      "duration": 0.018,
      "velocity": 127,
      "chip": "ym2612"
    },
    {
      "channel": 4,
      "note": 50,
      "start": 17.5659,
      "duration": 0.0181,
      "velocity": 100,
      "chip": "ym2612"
    },
    {
      "channel": 0,
      "note": 84,
      "start": 17.5792,
      "duration": 0.0137,
      "velocity": 127,
      "chip": "ym2612"
    },
    {
      "channel": 4,
      "note": 50,
      "start": 17.584,
      "duration": 0.0142,
      "velocity": 100,
      "chip": "ym2612"
    },
    {
      "channel": 1,
      "note": 88,
      "start": 17.5855,
      "duration": 0.0139,
      "velocity": 87,
      "chip": "ym2612"
    },
    {
      "channel": 0,
      "note": 82,
      "start": 17.5929,
      "duration": 0.016,
      "velocity": 127,
      "chip": "ym2612"
    },
    {
      "channel": 4,
      "note": 50,
      "start": 17.5982,
      "duration": 0.016,
      "velocity": 100,
      "chip": "ym2612"
    },
    {
      "channel": 1,
      "note": 88,
      "start": 17.5994,
      "duration": 0.016,
      "velocity": 87,
      "chip": "ym2612"
    },
    {
      "channel": 0,
      "note": 81,
      "start": 17.6089,
      "duration": 0.0161,
      "velocity": 127,
      "chip": "ym2612"
    },
    {
      "channel": 4,
      "note": 50,
      "start": 17.6143,
      "duration": 0.0161,
      "velocity": 100,
      "chip": "ym2612"
    },
    {
      "channel": 1,
      "note": 88,
      "start": 17.6154,
      "duration": 0.0161,
      "velocity": 87,
      "chip": "ym2612"
    },
    {
      "channel": 0,
      "note": 79,
      "start": 17.625,
      "duration": 0.0161,
      "velocity": 127,
      "chip": "ym2612"
    },
    {
      "channel": 4,
      "note": 50,
      "start": 17.6304,
      "duration": 0.0161,
      "velocity": 100,
      "chip": "ym2612"
    },
    {
      "channel": 1,
      "note": 88,
      "start": 17.6315,
      "duration": 0.0161,
      "velocity": 87,
      "chip": "ym2612"
    },
    {
      "channel": 0,
      "note": 77,
      "start": 17.6411,
      "duration": 0.0161,
      "velocity": 127,
      "chip": "ym2612"
    },
    {
      "channel": 4,
      "note": 50,
      "start": 17.6465,
      "duration": 0.0179,
      "velocity": 100,
      "chip": "ym2612"
    },
    {
      "channel": 1,
      "note": 88,
      "start": 17.6476,
      "duration": 0.018,
      "velocity": 87,
      "chip": "ym2612"
    },
    {
      "channel": 0,
      "note": 76,
      "start": 17.6572,
      "duration": 0.0161,
      "velocity": 127,
      "chip": "ym2612"
    },
    {
      "channel": 5,
      "note": 86,
      "start": 17.6605,
      "duration": 0.0141,
      "velocity": 87,
      "chip": "ym2612"
    },
    {
      "channel": 4,
      "note": 50,
      "start": 17.6644,
      "duration": 0.0143,
      "velocity": 100,
      "chip": "ym2612"
    },
    {
      "channel": 1,
      "note": 88,
      "start": 17.6656,
      "duration": 0.0142,
      "velocity": 87,
      "chip": "ym2612"
    },
    {
      "channel": 0,
      "note": 74,
      "start": 17.6733,
      "duration": 0.0161,
      "velocity": 127,
      "chip": "ym2612"
    },
    {
      "channel": 5,
      "note": 86,
      "start": 17.6746,
      "duration": 0.016,
      "velocity": 87,
      "chip": "ym2612"
    },
    {
      "channel": 4,
      "note": 50,
      "start": 17.6787,
      "duration": 0.016,
      "velocity": 100,
      "chip": "ym2612"
    },
    {
      "channel": 1,
      "note": 88,
      "start": 17.6798,
      "duration": 0.0162,
      "velocity": 87,
      "chip": "ym2612"
    },
    {
      "channel": 0,
      "note": 72,
      "start": 17.6894,
      "duration": 0.0161,
      "velocity": 127,
      "chip": "ym2612"
    },
    {
      "channel": 5,
      "note": 86,
      "start": 17.6906,
      "duration": 0.0161,
      "velocity": 87,
      "chip": "ym2612"
    },
    {
      "channel": 4,
      "note": 50,
      "start": 17.6947,
      "duration": 0.0158,
      "velocity": 100,
      "chip": "ym2612"
    },
    {
      "channel": 1,
      "note": 88,
      "start": 17.696,
      "duration": 0.016,
      "velocity": 87,
      "chip": "ym2612"
    },
    {
      "channel": 0,
      "note": 71,
      "start": 17.7055,
      "duration": 0.0162,
      "velocity": 127,
      "chip": "ym2612"
    },
    {
      "channel": 5,
      "note": 86,
      "start": 17.7067,
      "duration": 0.0161,
      "velocity": 87,
      "chip": "ym2612"
    },
    {
      "channel": 4,
      "note": 50,
      "start": 17.7105,
      "duration": 0.0159,
      "velocity": 100,
      "chip": "ym2612"
    },
    {
      "channel": 1,
      "note": 88,
      "start": 17.712,
      "duration": 0.016,
      "velocity": 87,
      "chip": "ym2612"
    },
    {
      "channel": 0,
      "note": 69,
      "start": 17.7217,
      "duration": 0.0161,
      "velocity": 127,
      "chip": "ym2612"
    },
    {
      "channel": 5,
      "note": 86,
      "start": 17.7228,
      "duration": 0.0161,
      "velocity": 87,
      "chip": "ym2612"
    },
    {
      "channel": 4,
      "note": 50,
      "start": 17.7263,
      "duration": 0.0161,
      "velocity": 100,
      "chip": "ym2612"
    },
    {
      "channel": 1,
      "note": 88,
      "start": 17.7281,
      "duration": 0.0158,
      "velocity": 87,
      "chip": "ym2612"
    },
    {
      "channel": 0,
      "note": 67,
      "start": 17.7377,
      "duration": 0.0161,
      "velocity": 127,
      "chip": "ym2612"
    },
    {
      "channel": 4,
      "note": 50,
      "start": 17.7424,
      "duration": 0.0161,
      "velocity": 100,
      "chip": "ym2612"
    },
    {
      "channel": 1,
      "note": 88,
      "start": 17.7439,
      "duration": 0.0159,
      "velocity": 87,
      "chip": "ym2612"
    },
    {
      "channel": 0,
      "note": 66,
      "start": 17.7538,
      "duration": 0.0161,
      "velocity": 127,
      "chip": "ym2612"
    },
    {
      "channel": 4,
      "note": 50,
      "start": 17.7585,
      "duration": 0.0164,
      "velocity": 100,
      "chip": "ym2612"
    },
    {
      "channel": 1,
      "note": 88,
      "start": 17.7598,
      "duration": 0.0164,
      "velocity": 87,
      "chip": "ym2612"
    },
    {
      "channel": 0,
      "note": 64,
      "start": 17.7699,
      "duration": 0.0161,
      "velocity": 127,
      "chip": "ym2612"
    },
    {
      "channel": 5,
      "note": 88,
      "start": 17.7715,
      "duration": 0.0158,
      "velocity": 87,
      "chip": "ym2612"
    },
    {
      "channel": 4,
      "note": 50,
      "start": 17.7749,
      "duration": 0.0159,
      "velocity": 100,
      "chip": "ym2612"
    },
    {
      "channel": 0,
      "note": 62,
      "start": 17.786,
      "duration": 0.0179,
      "velocity": 127,
      "chip": "ym2612"
    },
    {
      "channel": 5,
      "note": 88,
      "start": 17.7872,
      "duration": 0.0179,
      "velocity": 87,
      "chip": "ym2612"
    },
    {
      "channel": 4,
      "note": 50,
      "start": 17.7908,
      "duration": 0.0179,
      "velocity": 100,
      "chip": "ym2612"
    },
    {
      "channel": 0,
      "note": 78,
      "start": 17.804,
      "duration": 0.0143,
      "velocity": 127,
      "chip": "ym2612"
    },
    {
      "channel": 5,
      "note": 88,
      "start": 17.8052,
      "duration": 0.0143,
      "velocity": 87,
      "chip": "ym2612"
    },
    {
      "channel": 4,
      "note": 50,
      "start": 17.8087,
      "duration": 0.0142,
      "velocity": 100,
      "chip": "ym2612"
    },
    {
      "channel": 1,
      "note": 89,
      "start": 17.8105,
      "duration": 0.0138,
      "velocity": 87,
      "chip": "ym2612"
    },
    {
      "channel": 0,
      "note": 76,
      "start": 17.8183,
      "duration": 0.016,
      "velocity": 127,
      "chip": "ym2612"
    },
    {
      "channel": 5,
      "note": 88,
      "start": 17.8195,
      "duration": 0.016,
      "velocity": 87,
      "chip": "ym2612"
    },
    {
      "channel": 4,
      "note": 50,
      "start": 17.823,
      "duration": 0.016,
      "velocity": 100,
      "chip": "ym2612"
    },
    {
      "channel": 1,
      "note": 89,
      "start": 17.8243,
      "duration": 0.016,
      "velocity": 87,
      "chip": "ym2612"
    },
    {
      "channel": 0,
      "note": 75,
      "start": 17.8343,
      "duration": 0.0161,
      "velocity": 127,
      "chip": "ym2612"
    },
    {
      "channel": 5,
      "note": 88,
      "start": 17.8355,
      "duration": 0.0161,
      "velocity": 87,
      "chip": "ym2612"
    },
    {
      "channel": 4,
      "note": 50,
      "start": 17.839,
      "duration": 0.0161,
      "velocity": 100,
      "chip": "ym2612"
    },
    {
      "channel": 1,
      "note": 89,
      "start": 17.8402,
      "duration": 0.0161,
      "velocity": 87,
      "chip": "ym2612"
    },
    {
      "channel": 0,
      "note": 73,
      "start": 17.8504,
      "duration": 0.0161,
      "velocity": 127,
      "chip": "ym2612"
    },
    {
      "channel": 5,
      "note": 88,
      "start": 17.8516,
      "duration": 0.0161,
      "velocity": 87,
      "chip": "ym2612"
    },
    {
      "channel": 4,
      "note": 50,
      "start": 17.8551,
      "duration": 0.0161,
      "velocity": 100,
      "chip": "ym2612"
    },
    {
      "channel": 1,
      "note": 89,
      "start": 17.8563,
      "duration": 0.0161,
      "velocity": 87,
      "chip": "ym2612"
    },
    {
      "channel": 0,
      "note": 71,
      "start": 17.8665,
      "duration": 0.0162,
      "velocity": 127,
      "chip": "ym2612"
    },
    {
      "channel": 5,
      "note": 88,
      "start": 17.8677,
      "duration": 0.0161,
      "velocity": 87,
      "chip": "ym2612"
    },
    {
      "channel": 4,
      "note": 50,
      "start": 17.8712,
      "duration": 0.0162,
      "velocity": 100,
      "chip": "ym2612"
    },
    {
      "channel": 1,
      "note": 89,
      "start": 17.8724,
      "duration": 0.0162,
      "velocity": 87,
      "chip": "ym2612"
    },
    {
      "channel": 0,
      "note": 70,
      "start": 17.8827,
      "duration": 0.0161,
      "velocity": 127,
      "chip": "ym2612"
    },
    {
      "channel": 5,
      "note": 88,
      "start": 17.8839,
      "duration": 0.0161,
      "velocity": 87,
      "chip": "ym2612"
    },
    {
      "channel": 4,
      "note": 50,
      "start": 17.8874,
      "duration": 0.016,
      "velocity": 100,
      "chip": "ym2612"
    },
    {
      "channel": 1,
      "note": 89,
      "start": 17.8886,
      "duration": 0.0161,
      "velocity": 87,
      "chip": "ym2612"
    },
    {
      "channel": 0,
      "note": 68,
      "start": 17.8988,
      "duration": 0.0161,
      "velocity": 127,
      "chip": "ym2612"
    },
    {
      "channel": 5,
      "note": 88,
      "start": 17.9,
      "duration": 0.0161,
      "velocity": 87,
      "chip": "ym2612"
    },
    {
      "channel": 4,
      "note": 50,
      "start": 17.9034,
      "duration": 0.0161,
      "velocity": 100,
      "chip": "ym2612"
    },
    {
      "channel": 1,
      "note": 89,
      "start": 17.9047,
      "duration": 0.0161,
      "velocity": 87,
      "chip": "ym2612"
    },
    {
      "channel": 0,
      "note": 66,
      "start": 17.9148,
      "duration": 0.0161,
      "velocity": 127,
      "chip": "ym2612"
    },
    {
      "channel": 5,
      "note": 88,
      "start": 17.9161,
      "duration": 0.0161,
      "velocity": 87,
      "chip": "ym2612"
    },
    {
      "channel": 4,
      "note": 50,
      "start": 17.9195,
      "duration": 0.0161,
      "velocity": 100,
      "chip": "ym2612"
    },
    {
      "channel": 1,
      "note": 89,
      "start": 17.9208,
      "duration": 0.0161,
      "velocity": 87,
      "chip": "ym2612"
    },
    {
      "channel": 0,
      "note": 65,
      "start": 17.9309,
      "duration": 0.0161,
      "velocity": 127,
      "chip": "ym2612"
    },
    {
      "channel": 5,
      "note": 88,
      "start": 17.9321,
      "duration": 0.0161,
      "velocity": 87,
      "chip": "ym2612"
    },
    {
      "channel": 4,
      "note": 50,
      "start": 17.9356,
      "duration": 0.0161,
      "velocity": 100,
      "chip": "ym2612"
    },
    {
      "channel": 1,
      "note": 89,
      "start": 17.9369,
      "duration": 0.0161,
      "velocity": 87,
      "chip": "ym2612"
    },
    {
      "channel": 0,
      "note": 63,
      "start": 17.947,
      "duration": 0.0161,
      "velocity": 127,
      "chip": "ym2612"
    },
    {
      "channel": 5,
      "note": 88,
      "start": 17.9482,
      "duration": 0.0162,
      "velocity": 87,
      "chip": "ym2612"
    },
    {
      "channel": 4,
      "note": 50,
      "start": 17.9518,
      "duration": 0.0161,
      "velocity": 100,
      "chip": "ym2612"
    },
    {
      "channel": 1,
      "note": 89,
      "start": 17.953,
      "duration": 0.0161,
      "velocity": 87,
      "chip": "ym2612"
    },
    {
      "channel": 0,
      "note": 61,
      "start": 17.9632,
      "duration": 0.0164,
      "velocity": 127,
      "chip": "ym2612"
    },
    {
      "channel": 4,
      "note": 50,
      "start": 17.9679,
      "duration": 0.0164,
      "velocity": 100,
      "chip": "ym2612"
    },
    {
      "channel": 1,
      "note": 89,
      "start": 17.9691,
      "duration": 0.0165,
      "velocity": 87,
      "chip": "ym2612"
    },
    {
      "channel": 0,
      "note": 60,
      "start": 17.9796,
      "duration": 0.0163,
      "velocity": 127,
      "chip": "ym2612"
    },
    {
      "channel": 4,
      "note": 50,
      "start": 17.9843,
      "duration": 0.0167,
      "velocity": 100,
      "chip": "ym2612"
    },
    {
      "channel": 1,
      "note": 89,
      "start": 17.9856,
      "duration": 0.0165,
      "velocity": 87,
      "chip": "ym2612"
    },
    {
      "channel": 0,
      "note": 58,
      "start": 17.9959,
      "duration": 0.0161,
      "velocity": 127,
      "chip": "ym2612"
    },
    {
      "channel": 5,
      "note": 89,
      "start": 17.9974,
      "duration": 0.0158,
      "velocity": 87,
      "chip": "ym2612"
    },
    {
      "channel": 4,
      "note": 50,
      "start": 18.001,
      "duration": 0.0158,
      "velocity": 100,
      "chip": "ym2612"
    },
    {
      "channel": 0,
      "note": 56,
      "start": 18.012,
      "duration": 0.0179,
      "velocity": 115,
      "chip": "ym2612"
    },
    {
      "channel": 5,
      "note": 89,
      "start": 18.0132,
      "duration": 0.0179,
      "velocity": 87,
      "chip": "ym2612"
    },
    {
      "channel": 4,
      "note": 50,
      "start": 18.0168,
      "duration": 0.0199,
      "velocity": 100,
      "chip": "ym2612"
    },
    {
      "channel": 0,
      "note": 36,
      "start": 18.03,
      "duration": 0.0139,
      "velocity": 115,
      "chip": "ym2612"
    },
    {
      "channel": 5,
      "note": 89,
      "start": 18.0312,
      "duration": 0.0143,
      "velocity": 87,
      "chip": "ym2612"
    },
    {
      "channel": 2,
      "note": 78,
      "start": 18.0353,
      "duration": 0.0126,
      "velocity": 96,
      "chip": "ym2612"
    },
    {
      "channel": 4,
      "note": 54,
      "start": 18.0368,
      "duration": 0.0123,
      "velocity": 100,
      "chip": "ym2612"
    },
    {
      "channel": 1,
      "note": 90,
      "start": 18.0383,
      "duration": 0.0122,
      "velocity": 87,
      "chip": "ym2612"
    },
    {
      "channel": 0,
      "note": 36,
      "start": 18.0439,
      "duration": 0.0159,
      "velocity": 115,
      "chip": "ym2612"
    },
    {
      "channel": 5,
      "note": 89,
      "start": 18.0455,
      "duration": 0.016,
      "velocity": 87,
      "chip": "ym2612"
    },
    {
      "channel": 2,
      "note": 78,
      "start": 18.0479,
      "duration": 0.016,
      "velocity": 96,
      "chip": "ym2612"
    },
    {
      "channel": 4,
      "note": 54,
      "start": 18.0491,
      "duration": 0.016,
      "velocity": 100,
      "chip": "ym2612"
    },
    {
      "channel": 1,
      "note": 90,
      "start": 18.0504,
      "duration": 0.0158,
      "velocity": 87,
      "chip": "ym2612"
    },
    {
      "channel": 0,
      "note": 37,
      "start": 18.0598,
      "duration": 0.0161,
      "velocity": 115,
      "chip": "ym2612"
    },
    {
      "channel": 5,
      "note": 89,
      "start": 18.0615,
      "duration": 0.0158,
      "velocity": 87,
      "chip": "ym2612"
    },
    {
      "channel": 2,
      "note": 78,
      "start": 18.0639,
      "duration": 0.0162,
      "velocity": 96,
      "chip": "ym2612"
    },
    {
      "channel": 4,
      "note": 54,
      "start": 18.0651,
      "duration": 0.0161,
      "velocity": 100,
      "chip": "ym2612"
    },
    {
      "channel": 1,
      "note": 90,
      "start": 18.0662,
      "duration": 0.0161,
      "velocity": 87,
      "chip": "ym2612"
    },
    {
      "channel": 0,
      "note": 37,
      "start": 18.0759,
      "duration": 0.0161,
      "velocity": 115,
      "chip": "ym2612"
    },
    {
      "channel": 5,
      "note": 89,
      "start": 18.0772,
      "duration": 0.0159,
      "velocity": 87,
      "chip": "ym2612"
    },
    {
      "channel": 2,
      "note": 78,
      "start": 18.08,
      "duration": 0.0177,
      "velocity": 96,
      "chip": "ym2612"
    },
    {
      "channel": 4,
      "note": 54,
      "start": 18.0812,
      "duration": 0.0178,
      "velocity": 100,
      "chip": "ym2612"
    },
    {
      "channel": 1,
      "note": 90,
      "start": 18.0823,
      "duration": 0.0178,
      "velocity": 87,
      "chip": "ym2612"
    },
    {
      "channel": 0,
      "note": 38,
      "start": 18.0919,
      "duration": 0.0161,
      "velocity": 115,
      "chip": "ym2612"
    },
    {
      "channel": 5,
      "note": 89,
      "start": 18.0932,
      "duration": 0.0161,
      "velocity": 87,
      "chip": "ym2612"
    },
    {
      "channel": 3,
      "note": 78,
      "start": 18.0966,
      "duration": 0.0144,
      "velocity": 96,
      "chip": "ym2612"
    },
    {
      "channel": 2,
      "note": 78,
      "start": 18.0977,
      "duration": 0.0146,
      "velocity": 96,
      "chip": "ym2612"
    },
    {
      "channel": 4,
      "note": 54,
      "start": 18.0989,
      "duration": 0.0145,
      "velocity": 100,
      "chip": "ym2612"
    },
    {
      "channel": 1,
      "note": 90,
      "start": 18.1001,
      "duration": 0.0145,
      "velocity": 87,
      "chip": "ym2612"
    },
    {
      "channel": 0,
      "note": 38,
      "start": 18.108,
      "duration": 0.0161,
      "velocity": 115,
      "chip": "ym2612"
    },
    {
      "channel": 5,
      "note": 89,
      "start": 18.1093,
      "duration": 0.0161,
      "velocity": 87,
      "chip": "ym2612"
    },
    {
      "channel": 3,
      "note": 78,
      "start": 18.111,
      "duration": 0.0155,
      "velocity": 96,
      "chip": "ym2612"
    },
    {
      "channel": 2,
      "note": 78,
      "start": 18.1123,
      "duration": 0.016,
      "velocity": 96,
      "chip": "ym2612"
    },
    {
      "channel": 4,
      "note": 54,
      "start": 18.1134,
      "duration": 0.016,
      "velocity": 100,
      "chip": "ym2612"
    },
    {
      "channel": 1,
      "note": 90,
      "start": 18.1146,
      "duration": 0.0161,
      "velocity": 87,
      "chip": "ym2612"
    },
    {
      "channel": 0,
      "note": 39,
      "start": 18.1241,
      "duration": 0.0161,
      "velocity": 115,
      "chip": "ym2612"
    },
    {
      "channel": 5,
      "note": 89,
      "start": 18.1254,
      "duration": 0.0161,
      "velocity": 87,
      "chip": "ym2612"
    },
    {
      "channel": 3,
      "note": 78,
      "start": 18.1266,
      "duration": 0.0161,
      "velocity": 96,
      "chip": "ym2612"
    },
    {
      "channel": 4,
      "note": 54,
      "start": 18.1295,
      "duration": 0.0163,
      "velocity": 100,
      "chip": "ym2612"
    },
    {
      "channel": 1,
      "note": 90,
      "start": 18.1307,
      "duration": 0.0163,
      "velocity": 87,
      "chip": "ym2612"
    },
    {
      "channel": 0,
      "note": 39,
      "start": 18.1402,
      "duration": 0.0161,
      "velocity": 115,
      "chip": "ym2612"
    },
    {
      "channel": 5,
      "note": 89,
      "start": 18.1415,
      "duration": 0.0161,
      "velocity": 87,
      "chip": "ym2612"
    },
    {
      "channel": 3,
      "note": 78,
      "start": 18.1426,
      "duration": 0.0161,
      "velocity": 96,
      "chip": "ym2612"
    },
    {
      "channel": 2,
      "note": 70,
      "start": 18.1446,
      "duration": 0.0153,
      "velocity": 96,
      "chip": "ym2612"
    },
    {
      "channel": 4,
      "note": 54,
      "start": 18.1458,
      "duration": 0.0158,
      "velocity": 100,
      "chip": "ym2612"
    },
    {
      "channel": 1,
      "note": 90,
      "start": 18.147,
      "duration": 0.0158,
      "velocity": 87,
      "chip": "ym2612"
    },
    {
      "channel": 0,
      "note": 40,
      "start": 18.1564,
      "duration": 0.0161,
      "velocity": 115,
      "chip": "ym2612"
    },
    {
      "channel": 5,
      "note": 89,
      "start": 18.1576,
      "duration": 0.0161,
      "velocity": 87,
      "chip": "ym2612"
    },
    {
      "channel": 3,
      "note": 78,
      "start": 18.1587,
      "duration": 0.0161,
      "velocity": 96,
      "chip": "ym2612"
    },
    {
      "channel": 2,
      "note": 70,
      "start": 18.1599,
      "duration": 0.016,
      "velocity": 96,
      "chip": "ym2612"
    },
    {
      "channel": 4,
      "note": 54,
      "start": 18.1617,
      "duration": 0.016,
      "velocity": 100,
      "chip": "ym2612"
    },
    {
      "channel": 1,
      "note": 90,
      "start": 18.1629,
      "duration": 0.016,
      "velocity": 87,
      "chip": "ym2612"
    },
    {
      "channel": 0,
      "note": 40,
      "start": 18.1725,
      "duration": 0.0161,
      "velocity": 115,
      "chip": "ym2612"
    },
    {
      "channel": 5,
      "note": 89,
      "start": 18.1737,
      "duration": 0.016,
      "velocity": 87,
      "chip": "ym2612"
    },
    {
      "channel": 3,
      "note": 78,
      "start": 18.1748,
      "duration": 0.0161,
      "velocity": 96,
      "chip": "ym2612"
    },
    {
      "channel": 2,
      "note": 70,
      "start": 18.176,
      "duration": 0.0161,
      "velocity": 96,
      "chip": "ym2612"
    },
    {
      "channel": 4,
      "note": 54,
      "start": 18.1777,
      "duration": 0.0155,
      "velocity": 100,
      "chip": "ym2612"
    },
    {
      "channel": 1,
      "note": 90,
      "start": 18.1789,
      "duration": 0.0161,
      "velocity": 87,
      "chip": "ym2612"
    },
    {
      "channel": 0,
      "note": 40,
      "start": 18.1886,
      "duration": 0.0161,
      "velocity": 115,
      "chip": "ym2612"
    },
    {
      "channel": 2,
      "note": 70,
      "start": 18.1921,
      "duration": 0.0163,
      "velocity": 96,
      "chip": "ym2612"
    },
    {
      "channel": 4,
      "note": 54,
      "start": 18.1932,
      "duration": 0.0163,
      "velocity": 100,
      "chip": "ym2612"
    },
    {
      "channel": 1,
      "note": 90,
      "start": 18.195,
      "duration": 0.0163,
      "velocity": 87,
      "chip": "ym2612"
    },
    {
      "channel": 0,
      "note": 41,
      "start": 18.2047,
      "duration": 0.0161,
      "velocity": 115,
      "chip": "ym2612"
    },
    {
      "channel": 3,
      "note": 70,
      "start": 18.2073,
      "duration": 0.0161,
      "velocity": 96,
      "chip": "ym2612"
    },
    {
      "channel": 2,
      "note": 70,
      "start": 18.2084,
      "duration": 0.0162,
      "velocity": 96,
      "chip": "ym2612"
    },
    {
      "channel": 4,
      "note": 54,
      "start": 18.2096,
      "duration": 0.0162,
      "velocity": 100,
      "chip": "ym2612"
    },
    {
      "channel": 1,
      "note": 90,
      "start": 18.2113,
      "duration": 0.0159,
      "velocity": 87,
      "chip": "ym2612"
    },
    {
      "channel": 0,
      "note": 41,
      "start": 18.2207,
      "duration": 0.0161,
      "velocity": 115,
      "chip": "ym2612"
    },
    {
      "channel": 5,
      "note": 90,
      "start": 18.2222,
      "duration": 0.0159,
      "velocity": 87,
      "chip": "ym2612"
    },
    {
      "channel": 3,
      "note": 70,
      "start": 18.2234,
      "duration": 0.0159,
      "velocity": 96,
      "chip": "ym2612"
    },
    {
      "channel": 2,
      "note": 70,
      "start": 18.2246,
      "duration": 0.0158,
      "velocity": 96,
      "chip": "ym2612"
    },
    {
      "channel": 4,
      "note": 54,
      "start": 18.2258,
      "duration": 0.0158,
      "velocity": 100,
      "chip": "ym2612"
    },
    {
      "channel": 1,
      "note": 90,
      "start": 18.2271,
      "duration": 0.0156,
      "velocity": 87,
      "chip": "ym2612"
    },
    {
      "channel": 0,
      "note": 42,
      "start": 18.2368,
      "duration": 0.0161,
      "velocity": 115,
      "chip": "ym2612"
    },
    {
      "channel": 5,
      "note": 90,
      "start": 18.2381,
      "duration": 0.016,
      "velocity": 87,
      "chip": "ym2612"
    },
    {
      "channel": 3,
      "note": 70,
      "start": 18.2393,
      "duration": 0.016,
      "velocity": 96,
      "chip": "ym2612"
    },
    {
      "channel": 4,
      "note": 54,
      "start": 18.2416,
      "duration": 0.0163,
      "velocity": 100,
      "chip": "ym2612"
    },
    {
      "channel": 1,
      "note": 90,
      "start": 18.2428,
      "duration": 0.0163,
      "velocity": 87,
      "chip": "ym2612"
    },
    {
      "channel": 0,
      "note": 42,
      "start": 18.2529,
      "duration": 0.0161,
      "velocity": 115,
      "chip": "ym2612"
    },
    {
      "channel": 5,
      "note": 90,
      "start": 18.2541,
      "duration": 0.0161,
      "velocity": 87,
      "chip": "ym2612"
    },
    {
      "channel": 3,
      "note": 70,
      "start": 18.2553,
      "duration": 0.0161,
      "velocity": 96,
      "chip": "ym2612"
    },
    {
      "channel": 2,
      "note": 71,
      "start": 18.2568,
      "duration": 0.0159,
      "velocity": 96,
      "chip": "ym2612"
    },
    {
      "channel": 4,
      "note": 54,
      "start": 18.2579,
      "duration": 0.0158,
      "velocity": 100,
      "chip": "ym2612"
    },
    {
      "channel": 1,
      "note": 90,
      "start": 18.2591,
      "duration": 0.0158,
      "velocity": 87,
      "chip": "ym2612"
    },
    {
      "channel": 0,
      "note": 43,
      "start": 18.269,
      "duration": 0.0161,
      "velocity": 115,
      "chip": "ym2612"
    },
    {
      "channel": 5,
      "note": 90,
      "start": 18.2702,
      "duration": 0.0161,
      "velocity": 87,
      "chip": "ym2612"
    },
    {
      "channel": 3,
      "note": 70,
      "start": 18.2714,
      "duration": 0.0161,
      "velocity": 96,
      "chip": "ym2612"
    },
    {
      "channel": 2,
      "note": 71,
      "start": 18.2726,
      "duration": 0.016,
      "velocity": 96,
      "chip": "ym2612"
    },
    {
      "channel": 4,
      "note": 54,
      "start": 18.2737,
      "duration": 0.016,
      "velocity": 100,
      "chip": "ym2612"
    },
    {
      "channel": 1,
      "note": 90,
      "start": 18.2749,
      "duration": 0.016,
      "velocity": 87,
      "chip": "ym2612"
    },
    {
      "channel": 0,
      "note": 43,
      "start": 18.2851,
      "duration": 0.0162,
      "velocity": 115,
      "chip": "ym2612"
    },
    {
      "channel": 5,
      "note": 90,
      "start": 18.2863,
      "duration": 0.0161,
      "velocity": 87,
      "chip": "ym2612"
    },
    {
      "channel": 3,
      "note": 70,
      "start": 18.2875,
      "duration": 0.0161,
      "velocity": 96,
      "chip": "ym2612"
    },
    {
      "channel": 2,
      "note": 71,
      "start": 18.2886,
      "duration": 0.0161,
      "velocity": 96,
      "chip": "ym2612"
    },
    {
      "channel": 4,
      "note": 54,
      "start": 18.2898,
      "duration": 0.0162,
      "velocity": 100,
      "chip": "ym2612"
    },
    {
      "channel": 1,
      "note": 90,
      "start": 18.291,
      "duration": 0.0161,
      "velocity": 87,
      "chip": "ym2612"
    },
    {
      "channel": 0,
      "note": 44,
      "start": 18.3013,
      "duration": 0.0161,
      "velocity": 115,
      "chip": "ym2612"
    },
    {
      "channel": 5,
      "note": 90,
      "start": 18.3024,
      "duration": 0.0161,
      "velocity": 87,
      "chip": "ym2612"
    },
    {
      "channel": 2,
      "note": 71,
      "start": 18.3048,
      "duration": 0.0163,
      "velocity": 96,
      "chip": "ym2612"
    },
    {
      "channel": 4,
      "note": 54,
      "start": 18.3059,
      "duration": 0.0163,
      "velocity": 100,
      "chip": "ym2612"
    },
    {
      "channel": 1,
      "note": 90,
      "start": 18.3071,
      "duration": 0.0164,
      "velocity": 87,
      "chip": "ym2612"
    },
    {
      "channel": 0,
      "note": 44,
      "start": 18.3174,
      "duration": 0.0161,
      "velocity": 115,
      "chip": "ym2612"
    },
    {
      "channel": 5,
      "note": 90,
      "start": 18.3185,
      "duration": 0.0161,
      "velocity": 87,
      "chip": "ym2612"
    },
    {
      "channel": 3,
      "note": 71,
      "start": 18.32,
      "duration": 0.0158,
      "velocity": 96,
      "chip": "ym2612"
    },
    {
      "channel": 2,
      "note": 71,
      "start": 18.3211,
      "duration": 0.0159,
      "velocity": 96,
      "chip": "ym2612"
    },
    {
      "channel": 4,
      "note": 54,
      "start": 18.3223,
      "duration": 0.0159,
      "velocity": 100,
      "chip": "ym2612"
    },
    {
      "channel": 1,
      "note": 90,
      "start": 18.3235,
      "duration": 0.0158,
      "velocity": 87,
      "chip": "ym2612"
    },
    {
      "channel": 0,
      "note": 44,
      "start": 18.3335,
      "duration": 0.0161,
      "velocity": 115,
      "chip": "ym2612"
    },
    {
      "channel": 5,
      "note": 90,
      "start": 18.3346,
      "duration": 0.0161,
      "velocity": 87,
      "chip": "ym2612"
    },
    {
      "channel": 3,
      "note": 71,
      "start": 18.3358,
      "duration": 0.0161,
      "velocity": 96,
      "chip": "ym2612"
    },
    {
      "channel": 2,
      "note": 71,
      "start": 18.337,
      "duration": 0.016,
      "velocity": 96,
      "chip": "ym2612"
    },
    {
      "channel": 4,
      "note": 54,
      "start": 18.3382,
      "duration": 0.016,
      "velocity": 100,
      "chip": "ym2612"
    },
    {
      "channel": 1,
      "note": 90,
      "start": 18.3393,
      "duration": 0.0161,
      "velocity": 87,
      "chip": "ym2612"
    },
    {
      "channel": 0,
      "note": 45,
      "start": 18.3496,
      "duration": 0.0179,
      "velocity": 115,
      "chip": "ym2612"
    },
    {
      "channel": 5,
      "note": 90,
      "start": 18.3507,
      "duration": 0.018,
      "velocity": 87,
      "chip": "ym2612"
    },
    {
      "channel": 3,
      "note": 71,
      "start": 18.3519,
      "duration": 0.0179,
      "velocity": 96,
      "chip": "ym2612"
    },
    {
      "channel": 4,
      "note": 54,
      "start": 18.3542,
      "duration": 0.0185,
      "velocity": 100,
      "chip": "ym2612"
    },
    {
      "channel": 1,
      "note": 90,
      "start": 18.3554,
      "duration": 0.0185,
      "velocity": 87,
      "chip": "ym2612"
    },
    {
      "channel": 0,
      "note": 36,
      "start": 18.3675,
      "duration": 0.0143,
      "velocity": 115,
      "chip": "ym2612"
    },
    {
      "channel": 5,
      "note": 90,
      "start": 18.3687,
      "duration": 0.0143,
      "velocity": 87,
      "chip": "ym2612"
    },
    {
      "channel": 3,
      "note": 71,
      "start": 18.3699,
      "duration": 0.0143,
      "velocity": 96,
      "chip": "ym2612"
    },
    {
      "channel": 2,
      "note": 78,
      "start": 18.3713,
      "duration": 0.014,
      "velocity": 96,
      "chip": "ym2612"
    },
    {
      "channel": 4,
      "note": 61,
      "start": 18.3728,
      "duration": 0.0138,
      "velocity": 100,
      "chip": "ym2612"
    },
    {
      "channel": 1,
      "note": 90,
      "start": 18.3739,
      "duration": 0.0139,
      "velocity": 87,
      "chip": "ym2612"
    },
    {
      "channel": 0,
      "note": 36,
      "start": 18.3818,
      "duration": 0.016,
      "velocity": 115,
      "chip": "ym2612"
    },
    {
      "channel": 5,
      "note": 90,
      "start": 18.383,
      "duration": 0.016,
      "velocity": 87,
      "chip": "ym2612"
    },
    {
      "channel": 3,
      "note": 71,
      "start": 18.3842,
      "duration": 0.016,
      "velocity": 96,
      "chip": "ym2612"
    },
    {
      "channel": 2,
      "note": 78,
      "start": 18.3854,
      "duration": 0.016,
      "velocity": 96,
      "chip": "ym2612"
    },
    {
      "channel": 4,
      "note": 61,
      "start": 18.3866,
      "duration": 0.0159,
      "velocity": 100,
      "chip": "ym2612"
    },
    {
      "channel": 1,
      "note": 90,
      "start": 18.3878,
      "duration": 0.0159,
      "velocity": 87,
      "chip": "ym2612"
    },
    {
      "channel": 0,
      "note": 37,
      "start": 18.3978,
      "duration": 0.0161,
      "velocity": 115,
      "chip": "ym2612"
    },
    {
      "channel": 5,
      "note": 90,
      "start": 18.3991,
      "duration": 0.0161,
      "velocity": 87,
      "chip": "ym2612"
    },
    {
      "channel": 3,
      "note": 71,
      "start": 18.4002,
      "duration": 0.0161,
      "velocity": 96,
      "chip": "ym2612"
    },
    {
      "channel": 2,
      "note": 78,
      "start": 18.4014,
      "duration": 0.0161,
      "velocity": 96,
      "chip": "ym2612"
    },
    {
      "channel": 4,
      "note": 61,
      "start": 18.4025,
      "duration": 0.0162,
      "velocity": 100,
      "chip": "ym2612"
    },
    {
      "channel": 1,
      "note": 90,
      "start": 18.4037,
      "duration": 0.0162,
      "velocity": 87,
      "chip": "ym2612"
    },
    {
      "channel": 0,
      "note": 37,
      "start": 18.4139,
      "duration": 0.0162,
      "velocity": 115,
      "chip": "ym2612"
    },
    {
      "channel": 5,
      "note": 90,
      "start": 18.4151,
      "duration": 0.0162,
      "velocity": 87,
      "chip": "ym2612"
    },
    {
      "channel": 2,
      "note": 78,
      "start": 18.4175,
      "duration": 0.0164,
      "velocity": 96,
      "chip": "ym2612"
    },
    {
      "channel": 4,
      "note": 61,
      "start": 18.4187,
      "duration": 0.0164,
      "velocity": 100,
      "chip": "ym2612"
    },
    {
      "channel": 1,
      "note": 90,
      "start": 18.4199,
      "duration": 0.0163,
      "velocity": 87,
      "chip": "ym2612"
    },
    {
      "channel": 0,
      "note": 38,
      "start": 18.4301,
      "duration": 0.0163,
      "velocity": 115,
      "chip": "ym2612"
    },
    {
      "channel": 5,
      "note": 90,
      "start": 18.4313,
      "duration": 0.0163,
      "velocity": 87,
      "chip": "ym2612"
    },
    {
      "channel": 3,
      "note": 78,
      "start": 18.4328,
      "duration": 0.016,
      "velocity": 96,
      "chip": "ym2612"
    },
    {
      "channel": 2,
      "note": 78,
      "start": 18.4339,
      "duration": 0.016,
      "velocity": 96,
      "chip": "ym2612"
    },
    {
      "channel": 4,
      "note": 61,
      "start": 18.4351,
      "duration": 0.016,
      "velocity": 100,
      "chip": "ym2612"
    },
    {
      "channel": 1,
      "note": 90,
      "start": 18.4362,
      "duration": 0.0161,
      "velocity": 87,
      "chip": "ym2612"
    },
    {
      "channel": 0,
      "note": 38,
      "start": 18.4464,
      "duration": 0.0163,
      "velocity": 115,
      "chip": "ym2612"
    },
    {
      "channel": 5,
      "note": 90,
      "start": 18.4476,
      "duration": 0.0163,
      "velocity": 87,
      "chip": "ym2612"
    },
    {
      "channel": 3,
      "note": 78,
      "start": 18.4488,
      "duration": 0.0163,
      "velocity": 96,
      "chip": "ym2612"
    },
    {
      "channel": 2,
      "note": 78,
      "start": 18.45,
      "duration": 0.0163,
      "velocity": 96,
      "chip": "ym2612"
    },
    {
      "channel": 4,
      "note": 61,
      "start": 18.4511,
      "duration": 0.0163,
      "velocity": 100,
      "chip": "ym2612"
    },
    {
      "channel": 1,
      "note": 90,
      "start": 18.4523,
      "duration": 0.0163,
      "velocity": 87,
      "chip": "ym2612"
    },
    {
      "channel": 0,
      "note": 39,
      "start": 18.4627,
      "duration": 0.0181,
      "velocity": 115,
      "chip": "ym2612"
    },
    {
      "channel": 5,
      "note": 90,
      "start": 18.4639,
      "duration": 0.0181,
      "velocity": 87,
      "chip": "ym2612"
    },
    {
      "channel": 3,
      "note": 78,
      "start": 18.4651,
      "duration": 0.0181,
      "velocity": 96,
      "chip": "ym2612"
    },
    {
      "channel": 4,
      "note": 61,
      "start": 18.4674,
      "duration": 0.0185,
      "velocity": 100,
      "chip": "ym2612"
    },
    {
      "channel": 1,
      "note": 90,
      "start": 18.4686,
      "duration": 0.0186,
      "velocity": 87,
      "chip": "ym2612"
    },
    {
      "channel": 0,
      "note": 36,
      "start": 18.4808,
      "duration": 0.0143,
      "velocity": 115,
      "chip": "ym2612"
    },
    {
      "channel": 5,
      "note": 90,
      "start": 18.482,
      "duration": 0.0143,
      "velocity": 87,
      "chip": "ym2612"
    },
    {
      "channel": 3,
      "note": 78,
      "start": 18.4832,
      "duration": 0.0143,
      "velocity": 96,
      "chip": "ym2612"
    },
    {
      "channel": 4,
      "note": 61,
      "start": 18.486,
      "duration": 0.014,
      "velocity": 100,
      "chip": "ym2612"
    },
    {
      "channel": 1,
      "note": 90,
      "start": 18.4872,
      "duration": 0.014,
      "velocity": 87,
      "chip": "ym2612"
    },
    {
      "channel": 0,
      "note": 36,
      "start": 18.4951,
      "duration": 0.016,
      "velocity": 115,
      "chip": "ym2612"
    },
    {
      "channel": 5,
      "note": 90,
      "start": 18.4963,
      "duration": 0.016,
      "velocity": 87,
      "chip": "ym2612"
    },
    {
      "channel": 3,
      "note": 78,
      "start": 18.4975,
      "duration": 0.016,
      "velocity": 96,
      "chip": "ym2612"
    },
    {
      "channel": 4,
      "note": 61,
      "start": 18.5,
      "duration": 0.016,
      "velocity": 100,
      "chip": "ym2612"
    },
    {
      "channel": 1,
      "note": 90,
      "start": 18.5012,
      "duration": 0.016,
      "velocity": 87,
      "chip": "ym2612"
    },
    {
      "channel": 0,
      "note": 37,
      "start": 18.5111,
      "duration": 0.0156,
      "velocity": 115,
      "chip": "ym2612"
    },
    {
      "channel": 5,
      "note": 90,
      "start": 18.5124,
      "duration": 0.0161,
      "velocity": 87,
      "chip": "ym2612"
    },
    {
      "channel": 3,
      "note": 78,
      "start": 18.5136,
      "duration": 0.016,
      "velocity": 96,
      "chip": "ym2612"
    },
    {
      "channel": 4,
      "note": 61,
      "start": 18.5159,
      "duration": 0.0161,
      "velocity": 100,
      "chip": "ym2612"
    },
    {
      "channel": 1,
      "note": 90,
      "start": 18.5171,
      "duration": 0.0161,
      "velocity": 87,
      "chip": "ym2612"
    },
    {
      "channel": 0,
      "note": 37,
      "start": 18.5267,
      "duration": 0.0161,
      "velocity": 115,
      "chip": "ym2612"
    },
    {
      "channel": 5,
      "note": 90,
      "start": 18.5285,
      "duration": 0.016,
      "velocity": 87,
      "chip": "ym2612"
    },
    {
      "channel": 4,
      "note": 61,
      "start": 18.532,
      "duration": 0.0162,
      "velocity": 100,
      "chip": "ym2612"
    },
    {
      "channel": 1,
      "note": 90,
      "start": 18.5332,
      "duration": 0.0162,
      "velocity": 87,
      "chip": "ym2612"
    },
    {
      "channel": 0,
      "note": 38,
      "start": 18.5428,
      "duration": 0.0161,
      "velocity": 115,
      "chip": "ym2612"
    },
    {
      "channel": 5,
      "note": 90,
      "start": 18.5445,
      "duration": 0.0156,
      "velocity": 87,
      "chip": "ym2612"
    },
    {
      "channel": 4,
      "note": 61,
      "start": 18.5482,
      "duration": 0.016,
      "velocity": 100,
      "chip": "ym2612"
    },
    {
      "channel": 1,
      "note": 90,
      "start": 18.5494,
      "duration": 0.016,
      "velocity": 87,
      "chip": "ym2612"
    },
    {
      "channel": 0,
      "note": 38,
      "start": 18.5589,
      "duration": 0.0161,
      "velocity": 115,
      "chip": "ym2612"
    },
    {
      "channel": 5,
      "note": 90,
      "start": 18.5601,
      "duration": 0.0161,
      "velocity": 87,
      "chip": "ym2612"
    },
    {
      "channel": 4,
      "note": 61,
      "start": 18.5642,
      "duration": 0.0162,
      "velocity": 100,
      "chip": "ym2612"
    },
    {
      "channel": 1,
      "note": 90,
      "start": 18.5654,
      "duration": 0.0161,
      "velocity": 87,
      "chip": "ym2612"
    },
    {
      "channel": 0,
      "note": 39,
      "start": 18.5749,
      "duration": 0.0161,
      "velocity": 115,
      "chip": "ym2612"
    },
    {
      "channel": 5,
      "note": 90,
      "start": 18.5762,
      "duration": 0.0161,
      "velocity": 87,
      "chip": "ym2612"
    },
    {
      "channel": 4,
      "note": 61,
      "start": 18.5804,
      "duration": 0.0163,
      "velocity": 100,
      "chip": "ym2612"
    },
    {
      "channel": 1,
      "note": 90,
      "start": 18.5816,
      "duration": 0.0163,
      "velocity": 87,
      "chip": "ym2612"
    },
    {
      "channel": 0,
      "note": 39,
      "start": 18.591,
      "duration": 0.0162,
      "velocity": 115,
      "chip": "ym2612"
    },
    {
      "channel": 5,
      "note": 90,
      "start": 18.5922,
      "duration": 0.0162,
      "velocity": 87,
      "chip": "ym2612"
    },
    {
      "channel": 2,
      "note": 70,
      "start": 18.5955,
      "duration": 0.0158,
      "velocity": 96,
      "chip": "ym2612"
    },
    {
      "channel": 4,
      "note": 61,
      "start": 18.5966,
      "duration": 0.0159,
      "velocity": 100,
      "chip": "ym2612"
    },
    {
      "channel": 1,
      "note": 90,
      "start": 18.5979,
      "duration": 0.0159,
      "velocity": 87,
      "chip": "ym2612"
    },
    {
      "channel": 0,
      "note": 40,
      "start": 18.6072,
      "duration": 0.0161,
      "velocity": 115,
      "chip": "ym2612"
    },
    {
      "channel": 5,
      "note": 90,
      "start": 18.6084,
      "duration": 0.016,
      "velocity": 87,
      "chip": "ym2612"
    },
    {
      "channel": 2,
      "note": 70,
      "start": 18.6113,
      "duration": 0.0156,
      "velocity": 96,
      "chip": "ym2612"
    },
    {
      "channel": 4,
      "note": 61,
      "start": 18.6125,
      "duration": 0.016,
      "velocity": 100,
      "chip": "ym2612"
    },
    {
      "channel": 1,
      "note": 90,
      "start": 18.6138,
      "duration": 0.016,
      "velocity": 87,
      "chip": "ym2612"
    },
    {
      "channel": 0,
      "note": 40,
      "start": 18.6233,
      "duration": 0.0161,
      "velocity": 115,
      "chip": "ym2612"
    },
    {
      "channel": 5,
      "note": 90,
      "start": 18.6244,
      "duration": 0.0161,
      "velocity": 87,
      "chip": "ym2612"
    },
    {
      "channel": 2,
      "note": 70,
      "start": 18.627,
      "duration": 0.0159,
      "velocity": 96,
      "chip": "ym2612"
    },
    {
      "channel": 4,
      "note": 61,
      "start": 18.6285,
      "duration": 0.0161,
      "velocity": 100,
      "chip": "ym2612"
    },
    {
      "channel": 1,
      "note": 90,
      "start": 18.6298,
      "duration": 0.0161,
      "velocity": 87,
      "chip": "ym2612"
    },
    {
      "channel": 0,
      "note": 40,
      "start": 18.6394,
      "duration": 0.0161,
      "velocity": 115,
      "chip": "ym2612"
    },
    {
      "channel": 5,
      "note": 90,
      "start": 18.6405,
      "duration": 0.0161,
      "velocity": 87,
      "chip": "ym2612"
    },
    {
      "channel": 2,
      "note": 70,
      "start": 18.6429,
      "duration": 0.0164,
      "velocity": 96,
      "chip": "ym2612"
    },
    {
      "channel": 4,
      "note": 61,
      "start": 18.6446,
      "duration": 0.0163,
      "velocity": 100,
      "chip": "ym2612"
    },
    {
      "channel": 1,
      "note": 90,
      "start": 18.6459,
      "duration": 0.0163,
      "velocity": 87,
      "chip": "ym2612"
    },
    {
      "channel": 0,
      "note": 41,
      "start": 18.6555,
      "duration": 0.0161,
      "velocity": 115,
      "chip": "ym2612"
    },
    {
      "channel": 5,
      "note": 90,
      "start": 18.6566,
      "duration": 0.0162,
      "velocity": 87,
      "chip": "ym2612"
    },
    {
      "channel": 3,
      "note": 70,
      "start": 18.6581,
      "duration": 0.0159,
      "velocity": 96,
      "chip": "ym2612"
    },
    {
      "channel": 2,
      "note": 70,
      "start": 18.6593,
      "duration": 0.0159,
      "velocity": 96,
      "chip": "ym2612"
    },
    {
      "channel": 4,
      "note": 61,
      "start": 18.661,
      "duration": 0.0153,
      "velocity": 100,
      "chip": "ym2612"
    },
    {
      "channel": 1,
      "note": 90,
      "start": 18.6623,
      "duration": 0.0158,
      "velocity": 87,
      "chip": "ym2612"
    },
    {
      "channel": 0,
      "note": 41,
      "start": 18.6716,
      "duration": 0.0161,
      "velocity": 115,
      "chip": "ym2612"
    },
    {
      "channel": 5,
      "note": 90,
      "start": 18.6728,
      "duration": 0.0161,
      "velocity": 87,
      "chip": "ym2612"
    },
    {
      "channel": 3,
      "note": 70,
      "start": 18.674,
      "duration": 0.016,
      "velocity": 96,
      "chip": "ym2612"
    },
    {
      "channel": 2,
      "note": 70,
      "start": 18.6751,
      "duration": 0.0161,
      "velocity": 96,
      "chip": "ym2612"
    },
    {
      "channel": 4,
      "note": 61,
      "start": 18.6763,
      "duration": 0.0161,
      "velocity": 100,
      "chip": "ym2612"
    },
    {
      "channel": 0,
      "note": 42,
      "start": 18.6877,
      "duration": 0.018,
      "velocity": 124,
      "chip": "ym2612"
    },
    {
      "channel": 5,
      "note": 90,
      "start": 18.6889,
      "duration": 0.0179,
      "velocity": 87,
      "chip": "ym2612"
    },
    {
      "channel": 3,
      "note": 70,
      "start": 18.69,
      "duration": 0.018,
      "velocity": 96,
      "chip": "ym2612"
    },
    {
      "channel": 4,
      "note": 61,
      "start": 18.6924,
      "duration": 0.0186,
      "velocity": 100,
      "chip": "ym2612"
    },
    {
      "channel": 0,
      "note": 84,
      "start": 18.7057,
      "duration": 0.0143,
      "velocity": 124,
      "chip": "ym2612"
    },
    {
      "channel": 5,
      "note": 90,
      "start": 18.7068,
      "duration": 0.0143,
      "velocity": 87,
      "chip": "ym2612"
    },
    {
      "channel": 3,
      "note": 70,
      "start": 18.708,
      "duration": 0.0143,
      "velocity": 96,
      "chip": "ym2612"
    },
    {
      "channel": 4,
      "note": 61,
      "start": 18.711,
      "duration": 0.0137,
      "velocity": 100,
      "chip": "ym2612"
    },
    {
      "channel": 1,
      "note": 85,
      "start": 18.7126,
      "duration": 0.0134,
      "velocity": 87,
      "chip": "ym2612"
    },
    {
      "channel": 0,
      "note": 82,
      "start": 18.7199,
      "duration": 0.0161,
      "velocity": 124,
      "chip": "ym2612"
    },
    {
      "channel": 5,
      "note": 90,
      "start": 18.7211,
      "duration": 0.016,
      "velocity": 87,
      "chip": "ym2612"
    },
    {
      "channel": 3,
      "note": 70,
      "start": 18.7223,
      "duration": 0.016,
      "velocity": 96,
      "chip": "ym2612"
    },
    {
      "channel": 4,
      "note": 61,
      "start": 18.7247,
      "duration": 0.016,
      "velocity": 100,
      "chip": "ym2612"
    },
    {
      "channel": 1,
      "note": 85,
      "start": 18.726,
      "duration": 0.016,
      "velocity": 87,
      "chip": "ym2612"
    },
    {
      "channel": 0,
      "note": 80,
      "start": 18.736,
      "duration": 0.0161,
      "velocity": 124,
      "chip": "ym2612"
    },
    {
      "channel": 5,
      "note": 90,
      "start": 18.7372,
      "duration": 0.0161,
      "velocity": 87,
      "chip": "ym2612"
    },
    {
      "channel": 3,
      "note": 70,
      "start": 18.7384,
      "duration": 0.0161,
      "velocity": 96,
      "chip": "ym2612"
    },
    {
      "channel": 4,
      "note": 61,
      "start": 18.7407,
      "duration": 0.0162,
      "velocity": 100,
      "chip": "ym2612"
    },
    {
      "channel": 1,
      "note": 85,
      "start": 18.7419,
      "duration": 0.0161,
      "velocity": 87,
      "chip": "ym2612"
    },
    {
      "channel": 0,
      "note": 77,
      "start": 18.7521,
      "duration": 0.0161,
      "velocity": 124,
      "chip": "ym2612"
    },
    {
      "channel": 5,
      "note": 90,
      "start": 18.7533,
      "duration": 0.0161,
      "velocity": 87,
      "chip": "ym2612"
    },
    {
      "channel": 4,
      "note": 61,
      "start": 18.7569,
      "duration": 0.0161,
      "velocity": 100,
      "chip": "ym2612"
    },
    {
      "channel": 1,
      "note": 85,
      "start": 18.758,
      "duration": 0.0162,
      "velocity": 87,
      "chip": "ym2612"
    },
    {
      "channel": 0,
      "note": 75,
      "start": 18.7682,
      "duration": 0.0161,
      "velocity": 124,
      "chip": "ym2612"
    },
    {
      "channel": 5,
      "note": 90,
      "start": 18.7694,
      "duration": 0.0162,
      "velocity": 87,
      "chip": "ym2612"
    },
    {
      "channel": 4,
      "note": 61,
      "start": 18.773,
      "duration": 0.0161,
      "velocity": 100,
      "chip": "ym2612"
    },
    {
      "channel": 1,
      "note": 85,
      "start": 18.7743,
      "duration": 0.016,
      "velocity": 87,
      "chip": "ym2612"
    },
    {
      "channel": 0,
      "note": 72,
      "start": 18.7843,
      "duration": 0.0161,
      "velocity": 124,
      "chip": "ym2612"
    },
    {
      "channel": 5,
      "note": 90,
      "start": 18.7856,
      "duration": 0.016,
      "velocity": 87,
      "chip": "ym2612"
    },
    {
      "channel": 4,
      "note": 61,
      "start": 18.7891,
      "duration": 0.0161,
      "velocity": 100,
      "chip": "ym2612"
    },
    {
      "channel": 1,
      "note": 85,
      "start": 18.7903,
      "duration": 0.0161,
      "velocity": 87,
      "chip": "ym2612"
    },
    {
      "channel": 0,
      "note": 70,
      "start": 18.8004,
      "duration": 0.0161,
      "velocity": 124,
      "chip": "ym2612"
    },
    {
      "channel": 5,
      "note": 90,
      "start": 18.8016,
      "duration": 0.0161,
      "velocity": 87,
      "chip": "ym2612"
    },
    {
      "channel": 4,
      "note": 61,
      "start": 18.8052,
      "duration": 0.0165,
      "velocity": 100,
      "chip": "ym2612"
    },
    {
      "channel": 1,
      "note": 85,
      "start": 18.8064,
      "duration": 0.0166,
      "velocity": 87,
      "chip": "ym2612"
    },
    {
      "channel": 0,
      "note": 68,
      "start": 18.8165,
      "duration": 0.0161,
      "velocity": 124,
      "chip": "ym2612"
    },
    {
      "channel": 5,
      "note": 90,
      "start": 18.8177,
      "duration": 0.0161,
      "velocity": 87,
      "chip": "ym2612"
    },
    {
      "channel": 2,
      "note": 73,
      "start": 18.8204,
      "duration": 0.0159,
      "velocity": 96,
      "chip": "ym2612"
    },
    {
      "channel": 4,
      "note": 54,
      "start": 18.8218,
      "duration": 0.0156,
      "velocity": 100,
      "chip": "ym2612"
    },
    {
      "channel": 1,
      "note": 85,
      "start": 18.823,
      "duration": 0.0157,
      "velocity": 87,
      "chip": "ym2612"
    },
    {
      "channel": 0,
      "note": 65,
      "start": 18.8326,
      "duration": 0.0161,
      "velocity": 124,
      "chip": "ym2612"
    },
    {
      "channel": 5,
      "note": 90,
      "start": 18.8339,
      "duration": 0.0161,
      "velocity": 87,
      "chip": "ym2612"
    },
    {
      "channel": 2,
      "note": 73,
      "start": 18.8362,
      "duration": 0.0161,
      "velocity": 96,
      "chip": "ym2612"
    },
    {
      "channel": 4,
      "note": 54,
      "start": 18.8374,
      "duration": 0.016,
      "velocity": 100,
      "chip": "ym2612"
    },
    {
      "channel": 1,
      "note": 85,
      "start": 18.8386,
      "duration": 0.016,
      "velocity": 87,
      "chip": "ym2612"
    },
    {
      "channel": 0,
      "note": 63,
      "start": 18.8487,
      "duration": 0.0153,
      "velocity": 1,
      "chip": "ym2612"
    },
    {
      "channel": 5,
      "note": 90,
      "start": 18.85,
      "duration": 0.0152,
      "velocity": 87,
      "chip": "ym2612"
    },
    {
      "channel": 2,
      "note": 73,
      "start": 18.8523,
      "duration": 0.0152,
      "velocity": 96,
      "chip": "ym2612"
    },
    {
      "channel": 4,
      "note": 54,
      "start": 18.8534,
      "duration": 0.0152,
      "velocity": 100,
      "chip": "ym2612"
    },
    {
      "channel": 1,
      "note": 85,
      "start": 18.8546,
      "duration": 0.0153,
      "velocity": 87,
      "chip": "ym2612"
    },
    {
      "channel": 2,
      "note": 73,
      "start": 18.8675,
      "duration": 0.0155,
      "velocity": 96,
      "chip": "ym2612"
    },
    {
      "channel": 4,
      "note": 54,
      "start": 18.8687,
      "duration": 0.0155,
      "velocity": 100,
      "chip": "ym2612"
    },
    {
      "channel": 1,
      "note": 85,
      "start": 18.8699,
      "duration": 0.0155,
      "velocity": 87,
      "chip": "ym2612"
    },
    {
      "channel": 3,
      "note": 73,
      "start": 18.8819,
      "duration": 0.0162,
      "velocity": 96,
      "chip": "ym2612"
    },
    {
      "channel": 2,
      "note": 73,
      "start": 18.883,
      "duration": 0.0162,
      "velocity": 96,
      "chip": "ym2612"
    },
    {
      "channel": 4,
      "note": 54,
      "start": 18.8842,
      "duration": 0.0162,
      "velocity": 100,
      "chip": "ym2612"
    },
    {
      "channel": 1,
      "note": 85,
      "start": 18.8854,
      "duration": 0.0162,
      "velocity": 87,
      "chip": "ym2612"
    },
    {
      "channel": 5,
      "note": 85,
      "start": 18.8968,
      "duration": 0.0159,
      "velocity": 87,
      "chip": "ym2612"
    },
    {
      "channel": 3,
      "note": 73,
      "start": 18.898,
      "duration": 0.0158,
      "velocity": 96,
      "chip": "ym2612"
    },
    {
      "channel": 2,
      "note": 73,
      "start": 18.8993,
      "duration": 0.0158,
      "velocity": 96,
      "chip": "ym2612"
    },
    {
      "channel": 4,
      "note": 54,
      "start": 18.9004,
      "duration": 0.0158,
      "velocity": 100,
      "chip": "ym2612"
    },
    {
      "channel": 5,
      "note": 85,
      "start": 18.9127,
      "duration": 0.0198,
      "velocity": 87,
      "chip": "ym2612"
    },
    {
      "channel": 3,
      "note": 73,
      "start": 18.9139,
      "duration": 0.0199,
      "velocity": 96,
      "chip": "ym2612"
    },
    {
      "channel": 4,
      "note": 54,
      "start": 18.9162,
      "duration": 0.0204,
      "velocity": 100,
      "chip": "ym2612"
    },
    {
      "channel": 0,
      "note": 36,
      "start": 18.9315,
      "duration": 0.0145,
      "velocity": 115,
      "chip": "ym2612"
    },
    {
      "channel": 5,
      "note": 85,
      "start": 18.9326,
      "duration": 0.0146,
      "velocity": 87,
      "chip": "ym2612"
    },
    {
      "channel": 3,
      "note": 73,
      "start": 18.9337,
      "duration": 0.0146,
      "velocity": 96,
      "chip": "ym2612"
    },
    {
      "channel": 2,
      "note": 78,
      "start": 18.9353,
      "duration": 0.0142,
      "velocity": 96,
      "chip": "ym2612"
    },
    {
      "channel": 4,
      "note": 54,
      "start": 18.9367,
      "duration": 0.014,
      "velocity": 100,
      "chip": "ym2612"
    },
    {
      "channel": 1,
      "note": 91,
      "start": 18.9383,
      "duration": 0.0137,
      "velocity": 87,
      "chip": "ym2612"
    },
    {
      "channel": 0,
      "note": 36,
      "start": 18.9459,
      "duration": 0.016,
      "velocity": 115,
      "chip": "ym2612"
    },
    {
      "channel": 5,
      "note": 85,
      "start": 18.9471,
      "duration": 0.016,
      "velocity": 87,
      "chip": "ym2612"
    },
    {
      "channel": 3,
      "note": 73,
      "start": 18.9483,
      "duration": 0.016,
      "velocity": 96,
      "chip": "ym2612"
    },
    {
      "channel": 2,
      "note": 78,
      "start": 18.9495,
      "duration": 0.016,
      "velocity": 96,
      "chip": "ym2612"
    },
    {
      "channel": 4,
      "note": 54,
      "start": 18.9507,
      "duration": 0.0159,
      "velocity": 100,
      "chip": "ym2612"
    },
    {
      "channel": 1,
      "note": 91,
      "start": 18.952,
      "duration": 0.0158,
      "velocity": 87,
      "chip": "ym2612"
    },
    {
      "channel": 0,
      "note": 37,
      "start": 18.962,
      "duration": 0.0161,
      "velocity": 115,
      "chip": "ym2612"
    },
    {
      "channel": 5,
      "note": 85,
      "start": 18.9632,
      "duration": 0.0161,
      "velocity": 87,
      "chip": "ym2612"
    },
    {
      "channel": 3,
      "note": 73,
      "start": 18.9643,
      "duration": 0.0161,
      "velocity": 96,
      "chip": "ym2612"
    },
    {
      "channel": 2,
      "note": 78,
      "start": 18.9655,
      "duration": 0.0162,
      "velocity": 96,
      "chip": "ym2612"
    },
    {
      "channel": 4,
      "note": 54,
      "start": 18.9666,
      "duration": 0.0161,
      "velocity": 100,
      "chip": "ym2612"
    },
    {
      "channel": 1,
      "note": 91,
      "start": 18.9678,
      "duration": 0.0161,
      "velocity": 87,
      "chip": "ym2612"
    },
    {
      "channel": 0,
      "note": 37,
      "start": 18.9781,
      "duration": 0.0158,
      "velocity": 115,
      "chip": "ym2612"
    },
    {
      "channel": 5,
      "note": 85,
      "start": 18.9793,
      "duration": 0.0161,
      "velocity": 87,
      "chip": "ym2612"
    },
    {
      "channel": 2,
      "note": 78,
      "start": 18.9816,
      "duration": 0.0164,
      "velocity": 96,
      "chip": "ym2612"
    },
    {
      "channel": 4,
      "note": 54,
      "start": 18.9828,
      "duration": 0.0164,
      "velocity": 100,
      "chip": "ym2612"
    },
    {
      "channel": 1,
      "note": 91,
      "start": 18.9839,
      "duration": 0.0165,
      "velocity": 87,
      "chip": "ym2612"
    },
    {
      "channel": 0,
      "note": 38,
      "start": 18.9939,
      "duration": 0.0158,
      "velocity": 115,
      "chip": "ym2612"
    },
    {
      "channel": 5,
      "note": 85,
      "start": 18.9954,
      "duration": 0.016,
      "velocity": 87,
      "chip": "ym2612"
    },
    {
      "channel": 3,
      "note": 78,
      "start": 18.9969,
      "duration": 0.0158,
      "velocity": 96,
      "chip": "ym2612"
    },
    {
      "channel": 2,
      "note": 78,
      "start": 18.998,
      "duration": 0.0158,
      "velocity": 96,
      "chip": "ym2612"
    },
    {
      "channel": 4,
      "note": 54,
      "start": 18.9992,
      "duration": 0.0159,
      "velocity": 100,
      "chip": "ym2612"
    },
    {
      "channel": 1,
      "note": 91,
      "start": 19.0004,
      "duration": 0.0158,
      "velocity": 87,
      "chip": "ym2612"
    },
    {
      "channel": 0,
      "note": 38,
      "start": 19.0097,
      "duration": 0.0161,
      "velocity": 115,
      "chip": "ym2612"
    },
    {
      "channel": 5,
      "note": 85,
      "start": 19.0114,
      "duration": 0.0158,
      "velocity": 87,
      "chip": "ym2612"
    },
    {
      "channel": 3,
      "note": 78,
      "start": 19.0127,
      "duration": 0.016,
      "velocity": 96,
      "chip": "ym2612"
    },
    {
      "channel": 2,
      "note": 78,
      "start": 19.0139,
      "duration": 0.016,
      "velocity": 96,
      "chip": "ym2612"
    },
    {
      "channel": 4,
      "note": 54,
      "start": 19.015,
      "duration": 0.016,
      "velocity": 100,
      "chip": "ym2612"
    },
    {
      "channel": 1,
      "note": 91,
      "start": 19.0162,
      "duration": 0.0161,
      "velocity": 87,
      "chip": "ym2612"
    },
    {
      "channel": 0,
      "note": 39,
      "start": 19.0258,
      "duration": 0.0161,
      "velocity": 115,
      "chip": "ym2612"
    },
    {
      "channel": 5,
      "note": 85,
      "start": 19.0272,
      "duration": 0.0159,
      "velocity": 87,
      "chip": "ym2612"
    },
    {
      "channel": 3,
      "note": 78,
      "start": 19.0287,
      "duration": 0.0161,
      "velocity": 96,
      "chip": "ym2612"
    },
    {
      "channel": 4,
      "note": 54,
      "start": 19.0311,
      "duration": 0.0164,
      "velocity": 100,
      "chip": "ym2612"
    },
    {
      "channel": 1,
      "note": 91,
      "start": 19.0323,
      "duration": 0.0164,
      "velocity": 87,
      "chip": "ym2612"
    },
    {
      "channel": 0,
      "note": 39,
      "start": 19.0419,
      "duration": 0.0161,
      "velocity": 115,
      "chip": "ym2612"
    },
    {
      "channel": 5,
      "note": 85,
      "start": 19.0431,
      "duration": 0.0161,
      "velocity": 87,
      "chip": "ym2612"
    },
    {
      "channel": 3,
      "note": 78,
      "start": 19.0448,
      "duration": 0.0158,
      "velocity": 96,
      "chip": "ym2612"
    },
    {
      "channel": 2,
      "note": 70,
      "start": 19.0463,
      "duration": 0.0159,
      "velocity": 96,
      "chip": "ym2612"
    },
    {
      "channel": 4,
      "note": 54,
      "start": 19.0475,
      "duration": 0.0158,
      "velocity": 100,
      "chip": "ym2612"
    },
    {
      "channel": 1,
      "note": 91,
      "start": 19.0487,
      "duration": 0.0158,
      "velocity": 87,
      "chip": "ym2612"
    },
    {
      "channel": 0,
      "note": 40,
      "start": 19.058,
      "duration": 0.0161,
      "velocity": 115,
      "chip": "ym2612"
    },
    {
      "channel": 5,
      "note": 85,
      "start": 19.0592,
      "duration": 0.0161,
      "velocity": 87,
      "chip": "ym2612"
    },
    {
      "channel": 3,
      "note": 78,
      "start": 19.0606,
      "duration": 0.0159,
      "velocity": 96,
      "chip": "ym2612"
    },
    {
      "channel": 2,
      "note": 70,
      "start": 19.0622,
      "duration": 0.016,
      "velocity": 96,
      "chip": "ym2612"
    },
    {
      "channel": 4,
      "note": 54,
      "start": 19.0633,
      "duration": 0.016,
      "velocity": 100,
      "chip": "ym2612"
    },
    {
      "channel": 1,
      "note": 91,
      "start": 19.0645,
      "duration": 0.016,
      "velocity": 87,
      "chip": "ym2612"
    },
    {
      "channel": 0,
      "note": 40,
      "start": 19.0741,
      "duration": 0.0161,
      "velocity": 115,
      "chip": "ym2612"
    },
    {
      "channel": 5,
      "note": 85,
      "start": 19.0753,
      "duration": 0.0161,
      "velocity": 87,
      "chip": "ym2612"
    },
    {
      "channel": 3,
      "note": 78,
      "start": 19.0764,
      "duration": 0.0162,
      "velocity": 96,
      "chip": "ym2612"
    },
    {
      "channel": 2,
      "note": 70,
      "start": 19.0781,
      "duration": 0.0158,
      "velocity": 96,
      "chip": "ym2612"
    },
    {
      "channel": 4,
      "note": 54,
      "start": 19.0793,
      "duration": 0.0161,
      "velocity": 100,
      "chip": "ym2612"
    },
    {
      "channel": 1,
      "note": 91,
      "start": 19.0805,
      "duration": 0.0162,
      "velocity": 87,
      "chip": "ym2612"
    },
    {
      "channel": 0,
      "note": 40,
      "start": 19.0902,
      "duration": 0.0161,
      "velocity": 115,
      "chip": "ym2612"
    },
    {
      "channel": 2,
      "note": 70,
      "start": 19.094,
      "duration": 0.0161,
      "velocity": 96,
      "chip": "ym2612"
    },
    {
      "channel": 4,
      "note": 54,
      "start": 19.0954,
      "duration": 0.0164,
      "velocity": 100,
      "chip": "ym2612"
    },
    {
      "channel": 1,
      "note": 91,
      "start": 19.0967,
      "duration": 0.0163,
      "velocity": 87,
      "chip": "ym2612"
    },
    {
      "channel": 0,
      "note": 41,
      "start": 19.1063,
      "duration": 0.0161,
      "velocity": 115,
      "chip": "ym2612"
    },
    {
      "channel": 3,
      "note": 70,
      "start": 19.1089,
      "duration": 0.0162,
      "velocity": 96,
      "chip": "ym2612"
    },
    {
      "channel": 2,
      "note": 70,
      "start": 19.1101,
      "duration": 0.0163,
      "velocity": 96,
      "chip": "ym2612"
    },
    {
      "channel": 4,
      "note": 54,
      "start": 19.1119,
      "duration": 0.0161,
      "velocity": 100,
      "chip": "ym2612"
    },
    {
      "channel": 1,
      "note": 91,
      "start": 19.1131,
      "duration": 0.0162,
      "velocity": 87,
      "chip": "ym2612"
    },
    {
      "channel": 0,
      "note": 41,
      "start": 19.1224,
      "duration": 0.0161,
      "velocity": 115,
      "chip": "ym2612"
    },
    {
      "channel": 5,
      "note": 91,
      "start": 19.1239,
      "duration": 0.0158,
      "velocity": 87,
      "chip": "ym2612"
    },
    {
      "channel": 3,
      "note": 70,
      "start": 19.1251,
      "duration": 0.0158,
      "velocity": 96,
      "chip": "ym2612"
    },
    {
      "channel": 2,
      "note": 70,
      "start": 19.1263,
      "duration": 0.0157,
      "velocity": 96,
      "chip": "ym2612"
    },
    {
      "channel": 4,
      "note": 54,
      "start": 19.128,
      "duration": 0.0153,
      "velocity": 100,
      "chip": "ym2612"
    },
    {
      "channel": 0,
      "note": 42,
      "start": 19.1385,
      "duration": 0.0179,
      "velocity": 124,
      "chip": "ym2612"
    },
    {
      "channel": 5,
      "note": 91,
      "start": 19.1398,
      "duration": 0.0179,
      "velocity": 87,
      "chip": "ym2612"
    },
    {
      "channel": 3,
      "note": 70,
      "start": 19.1409,
      "duration": 0.0179,
      "velocity": 96,
      "chip": "ym2612"
    },
    {
      "channel": 4,
      "note": 54,
      "start": 19.1433,
      "duration": 0.0188,
      "velocity": 100,
      "chip": "ym2612"
    },
    {
      "channel": 0,
      "note": 84,
      "start": 19.1565,
      "duration": 0.0142,
      "velocity": 124,
      "chip": "ym2612"
    },
    {
      "channel": 5,
      "note": 91,
      "start": 19.1576,
      "duration": 0.0143,
      "velocity": 87,
      "chip": "ym2612"
    },
    {
      "channel": 3,
      "note": 70,
      "start": 19.1588,
      "duration": 0.0143,
      "velocity": 96,
      "chip": "ym2612"
    },
    {
      "channel": 2,
      "note": 71,
      "start": 19.1605,
      "duration": 0.0139,
      "velocity": 96,
      "chip": "ym2612"
    },
    {
      "channel": 4,
      "note": 54,
      "start": 19.162,
      "duration": 0.0134,
      "velocity": 100,
      "chip": "ym2612"
    },
    {
      "channel": 1,
      "note": 90,
      "start": 19.1635,
      "duration": 0.0132,
      "velocity": 87,
      "chip": "ym2612"
    },
    {
      "channel": 0,
      "note": 82,
      "start": 19.1707,
      "duration": 0.0161,
      "velocity": 124,
      "chip": "ym2612"
    },
    {
      "channel": 5,
      "note": 91,
      "start": 19.172,
      "duration": 0.016,
      "velocity": 87,
      "chip": "ym2612"
    },
    {
      "channel": 3,
      "note": 70,
      "start": 19.1731,
      "duration": 0.016,
      "velocity": 96,
      "chip": "ym2612"
    },
    {
      "channel": 2,
      "note": 71,
      "start": 19.1743,
      "duration": 0.016,
      "velocity": 96,
      "chip": "ym2612"
    },
    {
      "channel": 4,
      "note": 54,
      "start": 19.1755,
      "duration": 0.016,
      "velocity": 100,
      "chip": "ym2612"
    },
    {
      "channel": 1,
      "note": 90,
      "start": 19.1767,
      "duration": 0.0159,
      "velocity": 87,
      "chip": "ym2612"
    },
    {
      "channel": 0,
      "note": 80,
      "start": 19.1868,
      "duration": 0.0161,
      "velocity": 124,
      "chip": "ym2612"
    },
    {
      "channel": 5,
      "note": 91,
      "start": 19.188,
      "duration": 0.0161,
      "velocity": 87,
      "chip": "ym2612"
    },
    {
      "channel": 3,
      "note": 70,
      "start": 19.1891,
      "duration": 0.0161,
      "velocity": 96,
      "chip": "ym2612"
    },
    {
      "channel": 2,
      "note": 71,
      "start": 19.1903,
      "duration": 0.0161,
      "velocity": 96,
      "chip": "ym2612"
    },
    {
      "channel": 4,
      "note": 54,
      "start": 19.1915,
      "duration": 0.0161,
      "velocity": 100,
      "chip": "ym2612"
    },
    {
      "channel": 1,
      "note": 90,
      "start": 19.1926,
      "duration": 0.0161,
      "velocity": 87,
      "chip": "ym2612"
    },
    {
      "channel": 0,
      "note": 77,
      "start": 19.2029,
      "duration": 0.0161,
      "velocity": 124,
      "chip": "ym2612"
    },
    {
      "channel": 5,
      "note": 91,
      "start": 19.2041,
      "duration": 0.0161,
      "velocity": 87,
      "chip": "ym2612"
    },
    {
      "channel": 2,
      "note": 71,
      "start": 19.2064,
      "duration": 0.0163,
      "velocity": 96,
      "chip": "ym2612"
    },
    {
      "channel": 4,
      "note": 54,
      "start": 19.2076,
      "duration": 0.0164,
      "velocity": 100,
      "chip": "ym2612"
    },
    {
      "channel": 1,
      "note": 90,
      "start": 19.2087,
      "duration": 0.0164,
      "velocity": 87,
      "chip": "ym2612"
    },
    {
      "channel": 0,
      "note": 75,
      "start": 19.219,
      "duration": 0.0161,
      "velocity": 124,
      "chip": "ym2612"
    },
    {
      "channel": 5,
      "note": 91,
      "start": 19.2202,
      "duration": 0.0162,
      "velocity": 87,
      "chip": "ym2612"
    },
    {
      "channel": 3,
      "note": 71,
      "start": 19.2217,
      "duration": 0.016,
      "velocity": 96,
      "chip": "ym2612"
    },
    {
      "channel": 2,
      "note": 71,
      "start": 19.2228,
      "duration": 0.016,
      "velocity": 96,
      "chip": "ym2612"
    },
    {
      "channel": 4,
      "note": 54,
      "start": 19.224,
      "duration": 0.0159,
      "velocity": 100,
      "chip": "ym2612"
    },
    {
      "channel": 1,
      "note": 90,
      "start": 19.2251,
      "duration": 0.016,
      "velocity": 87,
      "chip": "ym2612"
    },
    {
      "channel": 0,
      "note": 72,
      "start": 19.2351,
      "duration": 0.0161,
      "velocity": 124,
      "chip": "ym2612"
    },
    {
      "channel": 5,
      "note": 91,
      "start": 19.2364,
      "duration": 0.016,
      "velocity": 87,
      "chip": "ym2612"
    },
    {
      "channel": 3,
      "note": 71,
      "start": 19.2376,
      "duration": 0.016,
      "velocity": 96,
      "chip": "ym2612"
    },
    {
      "channel": 2,
      "note": 71,
      "start": 19.2388,
      "duration": 0.016,
      "velocity": 96,
      "chip": "ym2612"
    },
    {
      "channel": 4,
      "note": 54,
      "start": 19.2399,
      "duration": 0.016,
      "velocity": 100,
      "chip": "ym2612"
    },
    {
      "channel": 1,
      "note": 90,
      "start": 19.2411,
      "duration": 0.016,
      "velocity": 87,
      "chip": "ym2612"
    },
    {
      "channel": 0,
      "note": 70,
      "start": 19.2512,
      "duration": 0.0161,
      "velocity": 124,
      "chip": "ym2612"
    },
    {
      "channel": 5,
      "note": 91,
      "start": 19.2524,
      "duration": 0.0161,
      "velocity": 87,
      "chip": "ym2612"
    },
    {
      "channel": 3,
      "note": 71,
      "start": 19.2536,
      "duration": 0.0161,
      "velocity": 96,
      "chip": "ym2612"
    },
    {
      "channel": 4,
      "note": 54,
      "start": 19.2559,
      "duration": 0.0167,
      "velocity": 100,
      "chip": "ym2612"
    },
    {
      "channel": 1,
      "note": 90,
      "start": 19.2571,
      "duration": 0.0168,
      "velocity": 87,
      "chip": "ym2612"
    },
    {
      "channel": 0,
      "note": 68,
      "start": 19.2673,
      "duration": 0.0161,
      "velocity": 124,
      "chip": "ym2612"
    },
    {
      "channel": 5,
      "note": 91,
      "start": 19.2685,
      "duration": 0.0161,
      "velocity": 87,
      "chip": "ym2612"
    },
    {
      "channel": 3,
      "note": 71,
      "start": 19.2697,
      "duration": 0.0161,
      "velocity": 96,
      "chip": "ym2612"
    },
    {
      "channel": 2,
      "note": 78,
      "start": 19.2712,
      "duration": 0.0158,
      "velocity": 96,
      "chip": "ym2612"
    },
    {
      "channel": 4,
      "note": 61,
      "start": 19.2726,
      "duration": 0.0156,
      "velocity": 100,
      "chip": "ym2612"
    },
    {
      "channel": 1,
      "note": 90,
      "start": 19.2739,
      "duration": 0.0156,
      "velocity": 87,
      "chip": "ym2612"
    },
    {
      "channel": 0,
      "note": 65,
      "start": 19.2834,
      "duration": 0.0161,
      "velocity": 124,
      "chip": "ym2612"
    },
    {
      "channel": 5,
      "note": 91,
      "start": 19.2846,
      "duration": 0.0161,
      "velocity": 87,
      "chip": "ym2612"
    },
    {
      "channel": 3,
      "note": 71,
      "start": 19.2858,
      "duration": 0.0161,
      "velocity": 96,
      "chip": "ym2612"
    },
    {
      "channel": 2,
      "note": 78,
      "start": 19.287,
      "duration": 0.016,
      "velocity": 96,
      "chip": "ym2612"
    },
    {
      "channel": 4,
      "note": 61,
      "start": 19.2883,
      "duration": 0.016,
      "velocity": 100,
      "chip": "ym2612"
    },
    {
      "channel": 1,
      "note": 90,
      "start": 19.2895,
      "duration": 0.016,
      "velocity": 87,
      "chip": "ym2612"
    },
    {
      "channel": 0,
      "note": 63,
      "start": 19.2995,
      "duration": 0.0153,
      "velocity": 1,
      "chip": "ym2612"
    },
    {
      "channel": 5,
      "note": 91,
      "start": 19.3008,
      "duration": 0.0152,
      "velocity": 87,
      "chip": "ym2612"
    },
    {
      "channel": 3,
      "note": 71,
      "start": 19.3019,
      "duration": 0.0152,
      "velocity": 96,
      "chip": "ym2612"
    },
    {
      "channel": 2,
      "note": 78,
      "start": 19.3031,
      "duration": 0.0153,
      "velocity": 96,
      "chip": "ym2612"
    },
    {
      "channel": 4,
      "note": 61,
      "start": 19.3042,
      "duration": 0.0153,
      "velocity": 100,
      "chip": "ym2612"
    },
    {
      "channel": 1,
      "note": 90,
      "start": 19.3055,
      "duration": 0.0152,
      "velocity": 87,
      "chip": "ym2612"
    },
    {
      "channel": 2,
      "note": 78,
      "start": 19.3183,
      "duration": 0.0154,
      "velocity": 96,
      "chip": "ym2612"
    },
    {
      "channel": 4,
      "note": 61,
      "start": 19.3195,
      "duration": 0.0155,
      "velocity": 100,
      "chip": "ym2612"
    },
    {
      "channel": 1,
      "note": 90,
      "start": 19.3207,
      "duration": 0.0155,
      "velocity": 87,
      "chip": "ym2612"
    },
    {
      "channel": 3,
      "note": 78,
      "start": 19.3327,
      "duration": 0.0162,
      "velocity": 96,
      "chip": "ym2612"
    },
    {
      "channel": 2,
      "note": 78,
      "start": 19.3338,
      "duration": 0.0162,
      "velocity": 96,
      "chip": "ym2612"
    },
    {
      "channel": 4,
      "note": 61,
      "start": 19.335,
      "duration": 0.0161,
      "velocity": 100,
      "chip": "ym2612"
    },
    {
      "channel": 1,
      "note": 90,
      "start": 19.3362,
      "duration": 0.0162,
      "velocity": 87,
      "chip": "ym2612"
    },
    {
      "channel": 5,
      "note": 90,
      "start": 19.3477,
      "duration": 0.0159,
      "velocity": 87,
      "chip": "ym2612"
    },
    {
      "channel": 3,
      "note": 78,
      "start": 19.3489,
      "duration": 0.0159,
      "velocity": 96,
      "chip": "ym2612"
    },
    {
      "channel": 2,
      "note": 78,
      "start": 19.35,
      "duration": 0.0158,
      "velocity": 96,
      "chip": "ym2612"
    },
    {
      "channel": 4,
      "note": 61,
      "start": 19.3512,
      "duration": 0.0159,
      "velocity": 100,
      "chip": "ym2612"
    },
    {
      "channel": 5,
      "note": 90,
      "start": 19.3636,
      "duration": 0.0195,
      "velocity": 87,
      "chip": "ym2612"
    },
    {
      "channel": 3,
      "note": 78,
      "start": 19.3647,
      "duration": 0.0195,
      "velocity": 96,
      "chip": "ym2612"
    },
    {
      "channel": 4,
      "note": 61,
      "start": 19.3671,
      "duration": 0.02,
      "velocity": 100,
      "chip": "ym2612"
    },
    {
      "channel": 0,
      "note": 36,
      "start": 19.382,
      "duration": 0.0144,
      "velocity": 115,
      "chip": "ym2612"
    },
    {
      "channel": 5,
      "note": 90,
      "start": 19.3831,
      "duration": 0.0145,
      "velocity": 87,
      "chip": "ym2612"
    },
    {
      "channel": 3,
      "note": 78,
      "start": 19.3842,
      "duration": 0.0145,
      "velocity": 96,
      "chip": "ym2612"
    },
    {
      "channel": 4,
      "note": 54,
      "start": 19.3871,
      "duration": 0.0141,
      "velocity": 100,
      "chip": "ym2612"
    },
    {
      "channel": 1,
      "note": 88,
      "start": 19.3886,
      "duration": 0.0138,
      "velocity": 87,
      "chip": "ym2612"
    },
    {
      "channel": 0,
      "note": 36,
      "start": 19.3964,
      "duration": 0.0163,
      "velocity": 115,
      "chip": "ym2612"
    },
    {
      "channel": 5,
      "note": 90,
      "start": 19.3976,
      "duration": 0.0162,
      "velocity": 87,
      "chip": "ym2612"
    },
    {
      "channel": 3,
      "note": 78,
      "start": 19.3988,
      "duration": 0.0163,
      "velocity": 96,
      "chip": "ym2612"
    },
    {
      "channel": 4,
      "note": 54,
      "start": 19.4012,
      "duration": 0.0162,
      "velocity": 100,
      "chip": "ym2612"
    },
    {
      "channel": 1,
      "note": 88,
      "start": 19.4024,
      "duration": 0.0162,
      "velocity": 87,
      "chip": "ym2612"
    },
    {
      "channel": 0,
      "note": 37,
      "start": 19.4127,
      "duration": 0.0163,
      "velocity": 115,
      "chip": "ym2612"
    },
    {
      "channel": 5,
      "note": 90,
      "start": 19.4138,
      "duration": 0.0163,
      "velocity": 87,
      "chip": "ym2612"
    },
    {
      "channel": 3,
      "note": 78,
      "start": 19.415,
      "duration": 0.0162,
      "velocity": 96,
      "chip": "ym2612"
    },
    {
      "channel": 4,
      "note": 54,
      "start": 19.4174,
      "duration": 0.0163,
      "velocity": 100,
      "chip": "ym2612"
    },
    {
      "channel": 1,
      "note": 88,
      "start": 19.4186,
      "duration": 0.0163,
      "velocity": 87,
      "chip": "ym2612"
    },
    {
      "channel": 0,
      "note": 37,
      "start": 19.429,
      "duration": 0.0161,
      "velocity": 115,
      "chip": "ym2612"
    },
    {
      "channel": 5,
      "note": 90,
      "start": 19.4301,
      "duration": 0.0161,
      "velocity": 87,
      "chip": "ym2612"
    },
    {
      "channel": 4,
      "note": 54,
      "start": 19.4337,
      "duration": 0.0161,
      "velocity": 100,
      "chip": "ym2612"
    },
    {
      "channel": 1,
      "note": 88,
      "start": 19.4349,
      "duration": 0.0162,
      "velocity": 87,
      "chip": "ym2612"
    },
    {
      "channel": 0,
      "note": 38,
      "start": 19.4451,
      "duration": 0.016,
      "velocity": 115,
      "chip": "ym2612"
    },
    {
      "channel": 5,
      "note": 90,
      "start": 19.4462,
      "duration": 0.0162,
      "velocity": 87,
      "chip": "ym2612"
    },
    {
      "channel": 4,
      "note": 54,
      "start": 19.4498,
      "duration": 0.0161,
      "velocity": 100,
      "chip": "ym2612"
    },
    {
      "channel": 1,
      "note": 88,
      "start": 19.451,
      "duration": 0.0161,
      "velocity": 87,
      "chip": "ym2612"
    },
    {
      "channel": 0,
      "note": 38,
      "start": 19.4611,
      "duration": 0.0155,
      "velocity": 115,
      "chip": "ym2612"
    },
    {
      "channel": 5,
      "note": 90,
      "start": 19.4624,
      "duration": 0.0161,
      "velocity": 87,
      "chip": "ym2612"
    },
    {
      "channel": 4,
      "note": 54,
      "start": 19.4659,
      "duration": 0.0161,
      "velocity": 100,
      "chip": "ym2612"
    },
    {
      "channel": 0,
      "note": 39,
      "start": 19.4766,
      "duration": 0.0185,
      "velocity": 127,
      "chip": "ym2612"
    },
    {
      "channel": 5,
      "note": 90,
      "start": 19.4785,
      "duration": 0.018,
      "velocity": 87,
      "chip": "ym2612"
    },
    {
      "channel": 4,
      "note": 54,
      "start": 19.482,
      "duration": 0.0183,
      "velocity": 100,
      "chip": "ym2612"
    },
    {
      "channel": 0,
      "note": 84,
      "start": 19.4952,
      "duration": 0.0137,
      "velocity": 127,
      "chip": "ym2612"
    },
    {
      "channel": 5,
      "note": 90,
      "start": 19.4965,
      "duration": 0.0139,
      "velocity": 87,
      "chip": "ym2612"
    },
    {
      "channel": 2,
      "note": 70,
      "start": 19.4991,
      "duration": 0.0141,
      "velocity": 96,
      "chip": "ym2612"
    },
    {
      "channel": 4,
      "note": 54,
      "start": 19.5003,
      "duration": 0.0141,
      "velocity": 100,
      "chip": "ym2612"
    },
    {
      "channel": 1,
      "note": 90,
      "start": 19.5018,
      "duration": 0.0137,
      "velocity": 87,
      "chip": "ym2612"
    },
    {
      "channel": 0,
      "note": 82,
      "start": 19.5089,
      "duration": 0.016,
      "velocity": 127,
      "chip": "ym2612"
    },
    {
      "channel": 5,
      "note": 90,
      "start": 19.5103,
      "duration": 0.0159,
      "velocity": 87,
      "chip": "ym2612"
    },
    {
      "channel": 2,
      "note": 70,
      "start": 19.5131,
      "duration": 0.016,
      "velocity": 96,
      "chip": "ym2612"
    },
    {
      "channel": 4,
      "note": 54,
      "start": 19.5143,
      "duration": 0.016,
      "velocity": 100,
      "chip": "ym2612"
    },
    {
      "channel": 1,
      "note": 90,
      "start": 19.5155,
      "duration": 0.016,
      "velocity": 87,
      "chip": "ym2612"
    },
    {
      "channel": 0,
      "note": 81,
      "start": 19.5249,
      "duration": 0.0161,
      "velocity": 127,
      "chip": "ym2612"
    },
    {
      "channel": 5,
      "note": 90,
      "start": 19.5262,
      "duration": 0.016,
      "velocity": 87,
      "chip": "ym2612"
    },
    {
      "channel": 2,
      "note": 70,
      "start": 19.5291,
      "duration": 0.016,
      "velocity": 96,
      "chip": "ym2612"
    },
    {
      "channel": 4,
      "note": 54,
      "start": 19.5303,
      "duration": 0.016,
      "velocity": 100,
      "chip": "ym2612"
    },
    {
      "channel": 1,
      "note": 90,
      "start": 19.5315,
      "duration": 0.016,
      "velocity": 87,
      "chip": "ym2612"
    },
    {
      "channel": 0,
      "note": 79,
      "start": 19.541,
      "duration": 0.0161,
      "velocity": 127,
      "chip": "ym2612"
    },
    {
      "channel": 2,
      "note": 70,
      "start": 19.5451,
      "duration": 0.0163,
      "velocity": 96,
      "chip": "ym2612"
    },
    {
      "channel": 4,
      "note": 54,
      "start": 19.5463,
      "duration": 0.0163,
      "velocity": 100,
      "chip": "ym2612"
    },
    {
      "channel": 1,
      "note": 90,
      "start": 19.5475,
      "duration": 0.0163,
      "velocity": 87,
      "chip": "ym2612"
    },
    {
      "channel": 0,
      "note": 77,
      "start": 19.5571,
      "duration": 0.0161,
      "velocity": 127,
      "chip": "ym2612"
    },
    {
      "channel": 3,
      "note": 70,
      "start": 19.5598,
      "duration": 0.0162,
      "velocity": 96,
      "chip": "ym2612"
    },
    {
      "channel": 2,
      "note": 70,
      "start": 19.5615,
      "duration": 0.0162,
      "velocity": 96,
      "chip": "ym2612"
    },
    {
      "channel": 4,
      "note": 54,
      "start": 19.5627,
      "duration": 0.0162,
      "velocity": 100,
      "chip": "ym2612"
    },
    {
      "channel": 1,
      "note": 90,
      "start": 19.5638,
      "duration": 0.0163,
      "velocity": 87,
      "chip": "ym2612"
    },
    {
      "channel": 0,
      "note": 76,
      "start": 19.5732,
      "duration": 0.0161,
      "velocity": 127,
      "chip": "ym2612"
    },
    {
      "channel": 5,
      "note": 88,
      "start": 19.5748,
      "duration": 0.0159,
      "velocity": 87,
      "chip": "ym2612"
    },
    {
      "channel": 3,
      "note": 70,
      "start": 19.576,
      "duration": 0.0158,
      "velocity": 96,
      "chip": "ym2612"
    },
    {
      "channel": 2,
      "note": 70,
      "start": 19.5777,
      "duration": 0.0152,
      "velocity": 96,
      "chip": "ym2612"
    },
    {
      "channel": 4,
      "note": 54,
      "start": 19.5789,
      "duration": 0.0157,
      "velocity": 100,
      "chip": "ym2612"
    },
    {
      "channel": 1,
      "note": 90,
      "start": 19.5801,
      "duration": 0.0157,
      "velocity": 87,
      "chip": "ym2612"
    },
    {
      "channel": 0,
      "note": 74,
      "start": 19.5893,
      "duration": 0.018,
      "velocity": 127,
      "chip": "ym2612"
    },
    {
      "channel": 5,
      "note": 88,
      "start": 19.5906,
      "duration": 0.0179,
      "velocity": 87,
      "chip": "ym2612"
    },
    {
      "channel": 3,
      "note": 70,
      "start": 19.5917,
      "duration": 0.0179,
      "velocity": 96,
      "chip": "ym2612"
    },
    {
      "channel": 4,
      "note": 54,
      "start": 19.5946,
      "duration": 0.0184,
      "velocity": 100,
      "chip": "ym2612"
    },
    {
      "channel": 1,
      "note": 90,
      "start": 19.5958,
      "duration": 0.0185,
      "velocity": 87,
      "chip": "ym2612"
    },
    {
      "channel": 0,
      "note": 78,
      "start": 19.6073,
      "duration": 0.0143,
      "velocity": 127,
      "chip": "ym2612"
    },
    {
      "channel": 5,
      "note": 88,
      "start": 19.6085,
      "duration": 0.0142,
      "velocity": 87,
      "chip": "ym2612"
    },
    {
      "channel": 3,
      "note": 70,
      "start": 19.6097,
      "duration": 0.0143,
      "velocity": 96,
      "chip": "ym2612"
    },
    {
      "channel": 4,
      "note": 61,
      "start": 19.6131,
      "duration": 0.0134,
      "velocity": 100,
      "chip": "ym2612"
    },
    {
      "channel": 1,
      "note": 90,
      "start": 19.6143,
      "duration": 0.0138,
      "velocity": 87,
      "chip": "ym2612"
    },
    {
      "channel": 0,
      "note": 76,
      "start": 19.6216,
      "duration": 0.016,
      "velocity": 127,
      "chip": "ym2612"
    },
    {
      "channel": 5,
      "note": 88,
      "start": 19.6228,
      "duration": 0.016,
      "velocity": 87,
      "chip": "ym2612"
    },
    {
      "channel": 3,
      "note": 70,
      "start": 19.6239,
      "duration": 0.016,
      "velocity": 96,
      "chip": "ym2612"
    },
    {
      "channel": 4,
      "note": 61,
      "start": 19.6264,
      "duration": 0.016,
      "velocity": 100,
      "chip": "ym2612"
    },
    {
      "channel": 1,
      "note": 90,
      "start": 19.6281,
      "duration": 0.0156,
      "velocity": 87,
      "chip": "ym2612"
    },
    {
      "channel": 0,
      "note": 75,
      "start": 19.6376,
      "duration": 0.0161,
      "velocity": 127,
      "chip": "ym2612"
    },
    {
      "channel": 5,
      "note": 88,
      "start": 19.6388,
      "duration": 0.0161,
      "velocity": 87,
      "chip": "ym2612"
    },
    {
      "channel": 3,
      "note": 70,
      "start": 19.64,
      "duration": 0.0162,
      "velocity": 96,
      "chip": "ym2612"
    },
    {
      "channel": 4,
      "note": 61,
      "start": 19.6424,
      "duration": 0.0162,
      "velocity": 100,
      "chip": "ym2612"
    },
    {
      "channel": 1,
      "note": 90,
      "start": 19.6438,
      "duration": 0.016,
      "velocity": 87,
      "chip": "ym2612"
    },
    {
      "channel": 0,
      "note": 73,
      "start": 19.6538,
      "duration": 0.0161,
      "velocity": 127,
      "chip": "ym2612"
    },
    {
      "channel": 4,
      "note": 61,
      "start": 19.6585,
      "duration": 0.0161,
      "velocity": 100,
      "chip": "ym2612"
    },
    {
      "channel": 1,
      "note": 90,
      "start": 19.6598,
      "duration": 0.0162,
      "velocity": 87,
      "chip": "ym2612"
    },
    {
      "channel": 0,
      "note": 71,
      "start": 19.6699,
      "duration": 0.0161,
      "velocity": 127,
      "chip": "ym2612"
    },
    {
      "channel": 4,
      "note": 61,
      "start": 19.6746,
      "duration": 0.0164,
      "velocity": 100,
      "chip": "ym2612"
    },
    {
      "channel": 1,
      "note": 90,
      "start": 19.6759,
      "duration": 0.0163,
      "velocity": 87,
      "chip": "ym2612"
    },
    {
      "channel": 0,
      "note": 70,
      "start": 19.686,
      "duration": 0.0161,
      "velocity": 127,
      "chip": "ym2612"
    },
    {
      "channel": 5,
      "note": 90,
      "start": 19.6875,
      "duration": 0.0158,
      "velocity": 87,
      "chip": "ym2612"
    },
    {
      "channel": 4,
      "note": 61,
      "start": 19.691,
      "duration": 0.0159,
      "velocity": 100,
      "chip": "ym2612"
    },
    {
      "channel": 0,
      "note": 68,
      "start": 19.702,
      "duration": 0.0161,
      "velocity": 127,
      "chip": "ym2612"
    },
    {
      "channel": 5,
      "note": 90,
      "start": 19.7033,
      "duration": 0.0161,
      "velocity": 87,
      "chip": "ym2612"
    },
    {
      "channel": 4,
      "note": 61,
      "start": 19.7069,
      "duration": 0.0163,
      "velocity": 100,
      "chip": "ym2612"
    },
    {
      "channel": 0,
      "note": 66,
      "start": 19.7181,
      "duration": 0.0161,
      "velocity": 127,
      "chip": "ym2612"
    },
    {
      "channel": 5,
      "note": 90,
      "start": 19.7194,
      "duration": 0.0161,
      "velocity": 87,
      "chip": "ym2612"
    },
    {
      "channel": 2,
      "note": 73,
      "start": 19.722,
      "duration": 0.0158,
      "velocity": 96,
      "chip": "ym2612"
    },
    {
      "channel": 4,
      "note": 61,
      "start": 19.7232,
      "duration": 0.0158,
      "velocity": 100,
      "chip": "ym2612"
    },
    {
      "channel": 1,
      "note": 88,
      "start": 19.7248,
      "duration": 0.0155,
      "velocity": 87,
      "chip": "ym2612"
    },
    {
      "channel": 0,
      "note": 65,
      "start": 19.7342,
      "duration": 0.0161,
      "velocity": 127,
      "chip": "ym2612"
    },
    {
      "channel": 5,
      "note": 90,
      "start": 19.7354,
      "duration": 0.0161,
      "velocity": 87,
      "chip": "ym2612"
    },
    {
      "channel": 2,
      "note": 73,
      "start": 19.7378,
      "duration": 0.016,
      "velocity": 96,
      "chip": "ym2612"
    },
    {
      "channel": 4,
      "note": 61,
      "start": 19.739,
      "duration": 0.016,
      "velocity": 100,
      "chip": "ym2612"
    },
    {
      "channel": 1,
      "note": 88,
      "start": 19.7403,
      "duration": 0.016,
      "velocity": 87,
      "chip": "ym2612"
    },
    {
      "channel": 0,
      "note": 63,
      "start": 19.7503,
      "duration": 0.0161,
      "velocity": 127,
      "chip": "ym2612"
    },
    {
      "channel": 5,
      "note": 90,
      "start": 19.7515,
      "duration": 0.0161,
      "velocity": 87,
      "chip": "ym2612"
    },
    {
      "channel": 2,
      "note": 73,
      "start": 19.7538,
      "duration": 0.0161,
      "velocity": 96,
      "chip": "ym2612"
    },
    {
      "channel": 4,
      "note": 61,
      "start": 19.755,
      "duration": 0.0161,
      "velocity": 100,
      "chip": "ym2612"
    },
    {
      "channel": 1,
      "note": 88,
      "start": 19.7563,
      "duration": 0.016,
      "velocity": 87,
      "chip": "ym2612"
    },
    {
      "channel": 0,
      "note": 61,
      "start": 19.7664,
      "duration": 0.0161,
      "velocity": 127,
      "chip": "ym2612"
    },
    {
      "channel": 5,
      "note": 90,
      "start": 19.7676,
      "duration": 0.0161,
      "velocity": 87,
      "chip": "ym2612"
    },
    {
      "channel": 2,
      "note": 73,
      "start": 19.7699,
      "duration": 0.0164,
      "velocity": 96,
      "chip": "ym2612"
    },
    {
      "channel": 4,
      "note": 61,
      "start": 19.7711,
      "duration": 0.0163,
      "velocity": 100,
      "chip": "ym2612"
    },
    {
      "channel": 1,
      "note": 88,
      "start": 19.7723,
      "duration": 0.0164,
      "velocity": 87,
      "chip": "ym2612"
    },
    {
      "channel": 0,
      "note": 60,
      "start": 19.7825,
      "duration": 0.0161,
      "velocity": 127,
      "chip": "ym2612"
    },
    {
      "channel": 5,
      "note": 90,
      "start": 19.7837,
      "duration": 0.0161,
      "velocity": 87,
      "chip": "ym2612"
    },
    {
      "channel": 3,
      "note": 73,
      "start": 19.7852,
      "duration": 0.0159,
      "velocity": 96,
      "chip": "ym2612"
    },
    {
      "channel": 2,
      "note": 73,
      "start": 19.7863,
      "duration": 0.016,
      "velocity": 96,
      "chip": "ym2612"
    },
    {
      "channel": 4,
      "note": 61,
      "start": 19.7875,
      "duration": 0.016,
      "velocity": 100,
      "chip": "ym2612"
    },
    {
      "channel": 1,
      "note": 88,
      "start": 19.7887,
      "duration": 0.0159,
      "velocity": 87,
      "chip": "ym2612"
    },
    {
      "channel": 0,
      "note": 58,
      "start": 19.7986,
      "duration": 0.0162,
      "velocity": 127,
      "chip": "ym2612"
    },
    {
      "channel": 5,
      "note": 90,
      "start": 19.7999,
      "duration": 0.0161,
      "velocity": 87,
      "chip": "ym2612"
    },
    {
      "channel": 3,
      "note": 73,
      "start": 19.8011,
      "duration": 0.016,
      "velocity": 96,
      "chip": "ym2612"
    },
    {
      "channel": 2,
      "note": 73,
      "start": 19.8023,
      "duration": 0.016,
      "velocity": 96,
      "chip": "ym2612"
    },
    {
      "channel": 4,
      "note": 61,
      "start": 19.8034,
      "duration": 0.016,
      "velocity": 100,
      "chip": "ym2612"
    },
    {
      "channel": 1,
      "note": 88,
      "start": 19.8046,
      "duration": 0.016,
      "velocity": 87,
      "chip": "ym2612"
    },
    {
      "channel": 0,
      "note": 56,
      "start": 19.8148,
      "duration": 0.0179,
      "velocity": 115,
      "chip": "ym2612"
    },
    {
      "channel": 5,
      "note": 90,
      "start": 19.816,
      "duration": 0.0179,
      "velocity": 87,
      "chip": "ym2612"
    },
    {
      "channel": 3,
      "note": 73,
      "start": 19.8171,
      "duration": 0.018,
      "velocity": 96,
      "chip": "ym2612"
    },
    {
      "channel": 4,
      "note": 61,
      "start": 19.8195,
      "duration": 0.0186,
      "velocity": 100,
      "chip": "ym2612"
    },
    {
      "channel": 1,
      "note": 88,
      "start": 19.8206,
      "duration": 0.0186,
      "velocity": 87,
      "chip": "ym2612"
    },
    {
      "channel": 0,
      "note": 36,
      "start": 19.8327,
      "duration": 0.0143,
      "velocity": 115,
      "chip": "ym2612"
    },
    {
      "channel": 5,
      "note": 90,
      "start": 19.8339,
      "duration": 0.0144,
      "velocity": 87,
      "chip": "ym2612"
    },
    {
      "channel": 3,
      "note": 73,
      "start": 19.8351,
      "duration": 0.0143,
      "velocity": 96,
      "chip": "ym2612"
    },
    {
      "channel": 2,
      "note": 78,
      "start": 19.8367,
      "duration": 0.014,
      "velocity": 96,
      "chip": "ym2612"
    },
    {
      "channel": 4,
      "note": 59,
      "start": 19.8381,
      "duration": 0.0137,
      "velocity": 100,
      "chip": "ym2612"
    },
    {
      "channel": 1,
      "note": 88,
      "start": 19.8393,
      "duration": 0.0138,
      "velocity": 87,
      "chip": "ym2612"
    },
    {
      "channel": 0,
      "note": 36,
      "start": 19.847,
      "duration": 0.0161,
      "velocity": 115,
      "chip": "ym2612"
    },
    {
      "channel": 5,
      "note": 90,
      "start": 19.8483,
      "duration": 0.0161,
      "velocity": 87,
      "chip": "ym2612"
    },
    {
      "channel": 3,
      "note": 73,
      "start": 19.8494,
      "duration": 0.0161,
      "velocity": 96,
      "chip": "ym2612"
    },
    {
      "channel": 2,
      "note": 78,
      "start": 19.8507,
      "duration": 0.016,
      "velocity": 96,
      "chip": "ym2612"
    },
    {
      "channel": 4,
      "note": 59,
      "start": 19.8519,
      "duration": 0.016,
      "velocity": 100,
      "chip": "ym2612"
    },
    {
      "channel": 1,
      "note": 88,
      "start": 19.8531,
      "duration": 0.016,
      "velocity": 87,
      "chip": "ym2612"
    },
    {
      "channel": 0,
      "note": 37,
      "start": 19.8631,
      "duration": 0.0164,
      "velocity": 115,
      "chip": "ym2612"
    },
    {
      "channel": 5,
      "note": 90,
      "start": 19.8644,
      "duration": 0.0163,
      "velocity": 87,
      "chip": "ym2612"
    },
    {
      "channel": 3,
      "note": 73,
      "start": 19.8655,
      "duration": 0.0163,
      "velocity": 96,
      "chip": "ym2612"
    },
    {
      "channel": 2,
      "note": 78,
      "start": 19.8667,
      "duration": 0.0164,
      "velocity": 96,
      "chip": "ym2612"
    },
    {
      "channel": 4,
      "note": 59,
      "start": 19.8678,
      "duration": 0.0164,
      "velocity": 100,
      "chip": "ym2612"
    },
    {
      "channel": 1,
      "note": 88,
      "start": 19.869,
      "duration": 0.0163,
      "velocity": 87,
      "chip": "ym2612"
    },
    {
      "channel": 0,
      "note": 37,
      "start": 19.8795,
      "duration": 0.0163,
      "velocity": 115,
      "chip": "ym2612"
    },
    {
      "channel": 2,
      "note": 78,
      "start": 19.8831,
      "duration": 0.0166,
      "velocity": 96,
      "chip": "ym2612"
    },
    {
      "channel": 4,
      "note": 59,
      "start": 19.8842,
      "duration": 0.0166,
      "velocity": 100,
      "chip": "ym2612"
    },
    {
      "channel": 1,
      "note": 88,
      "start": 19.8854,
      "duration": 0.0167,
      "velocity": 87,
      "chip": "ym2612"
    },
    {
      "channel": 0,
      "note": 38,
      "start": 19.8959,
      "duration": 0.0161,
      "velocity": 115,
      "chip": "ym2612"
    },
    {
      "channel": 3,
      "note": 78,
      "start": 19.8985,
      "duration": 0.0162,
      "velocity": 96,
      "chip": "ym2612"
    },
    {
      "channel": 2,
      "note": 78,
      "start": 19.8997,
      "duration": 0.0162,
      "velocity": 96,
      "chip": "ym2612"
    },
    {
      "channel": 4,
      "note": 59,
      "start": 19.9008,
      "duration": 0.0162,
      "velocity": 100,
      "chip": "ym2612"
    },
    {
      "channel": 1,
      "note": 88,
      "start": 19.902,
      "duration": 0.0162,
      "velocity": 87,
      "chip": "ym2612"
    },
    {
      "channel": 0,
      "note": 38,
      "start": 19.912,
      "duration": 0.016,
      "velocity": 115,
      "chip": "ym2612"
    },
    {
      "channel": 5,
      "note": 88,
      "start": 19.9135,
      "duration": 0.0158,
      "velocity": 87,
      "chip": "ym2612"
    },
    {
      "channel": 3,
      "note": 78,
      "start": 19.9147,
      "duration": 0.0158,
      "velocity": 96,
      "chip": "ym2612"
    },
    {
      "channel": 2,
      "note": 78,
      "start": 19.9159,
      "duration": 0.0157,
      "velocity": 96,
      "chip": "ym2612"
    },
    {
      "channel": 4,
      "note": 59,
      "start": 19.9171,
      "duration": 0.0157,
      "velocity": 100,
      "chip": "ym2612"
    },
    {
      "channel": 1,
      "note": 88,
      "start": 19.9182,
      "duration": 0.0158,
      "velocity": 87,
      "chip": "ym2612"
    },
    {
      "channel": 0,
      "note": 39,
      "start": 19.928,
      "duration": 0.0158,
      "velocity": 115,
      "chip": "ym2612"
    },
    {
      "channel": 5,
      "note": 88,
      "start": 19.9293,
      "duration": 0.016,
      "velocity": 87,
      "chip": "ym2612"
    },
    {
      "channel": 3,
      "note": 78,
      "start": 19.9305,
      "duration": 0.016,
      "velocity": 96,
      "chip": "ym2612"
    },
    {
      "channel": 4,
      "note": 59,
      "start": 19.9328,
      "duration": 0.0163,
      "velocity": 100,
      "chip": "ym2612"
    },
    {
      "channel": 1,
      "note": 88,
      "start": 19.934,
      "duration": 0.0163,
      "velocity": 87,
      "chip": "ym2612"
    },
    {
      "channel": 0,
      "note": 39,
      "start": 19.9438,
      "duration": 0.0159,
      "velocity": 115,
      "chip": "ym2612"
    },
    {
      "channel": 5,
      "note": 88,
      "start": 19.9453,
      "duration": 0.0161,
      "velocity": 87,
      "chip": "ym2612"
    },
    {
      "channel": 3,
      "note": 78,
      "start": 19.9465,
      "duration": 0.0161,
      "velocity": 96,
      "chip": "ym2612"
    },
    {
      "channel": 2,
      "note": 71,
      "start": 19.948,
      "duration": 0.0158,
      "velocity": 96,
      "chip": "ym2612"
    },
    {
      "channel": 4,
      "note": 59,
      "start": 19.9491,
      "duration": 0.0159,
      "velocity": 100,
      "chip": "ym2612"
    },
    {
      "channel": 1,
      "note": 88,
      "start": 19.9503,
      "duration": 0.0159,
      "velocity": 87,
      "chip": "ym2612"
    },
    {
      "channel": 0,
      "note": 40,
      "start": 19.9597,
      "duration": 0.0161,
      "velocity": 115,
      "chip": "ym2612"
    },
    {
      "channel": 5,
      "note": 88,
      "start": 19.9614,
      "duration": 0.0157,
      "velocity": 87,
      "chip": "ym2612"
    },
    {
      "channel": 3,
      "note": 78,
      "start": 19.9626,
      "duration": 0.0161,
      "velocity": 96,
      "chip": "ym2612"
    },
    {
      "channel": 2,
      "note": 71,
      "start": 19.9638,
      "duration": 0.016,
      "velocity": 96,
      "chip": "ym2612"
    },
    {
      "channel": 4,
      "note": 59,
      "start": 19.965,
      "duration": 0.016,
      "velocity": 100,
      "chip": "ym2612"
    },
    {
      "channel": 1,
      "note": 88,
      "start": 19.9662,
      "duration": 0.016,
      "velocity": 87,
      "chip": "ym2612"
    },
    {
      "channel": 0,
      "note": 40,
      "start": 19.9758,
      "duration": 0.0161,
      "velocity": 115,
      "chip": "ym2612"
    },
    {
      "channel": 5,
      "note": 88,
      "start": 19.9771,
      "duration": 0.0159,
      "velocity": 87,
      "chip": "ym2612"
    },
    {
      "channel": 3,
      "note": 78,
      "start": 19.9787,
      "duration": 0.0161,
      "velocity": 96,
      "chip": "ym2612"
    },
    {
      "channel": 2,
      "note": 71,
      "start": 19.9798,
      "duration": 0.0162,
      "velocity": 96,
      "chip": "ym2612"
    },
    {
      "channel": 4,
      "note": 59,
      "start": 19.981,
      "duration": 0.0161,
      "velocity": 100,
      "chip": "ym2612"
    },
    {
      "channel": 1,
      "note": 88,
      "start": 19.9822,
      "duration": 0.0161,
      "velocity": 87,
      "chip": "ym2612"
    },
    {
      "channel": 0,
      "note": 40,
      "start": 19.9919,
      "duration": 0.0161,
      "velocity": 115,
      "chip": "ym2612"
    },
    {
      "channel": 5,
      "note": 88,
      "start": 19.993,
      "duration": 0.0162,
      "velocity": 87,
      "chip": "ym2612"
    },
    {
      "channel": 2,
      "note": 71,
      "start": 19.996,
      "duration": 0.0163,
      "velocity": 96,
      "chip": "ym2612"
    },
    {
      "channel": 4,
      "note": 59,
      "start": 19.9971,
      "duration": 0.0163,
      "velocity": 100,
      "chip": "ym2612"
    },
    {
      "channel": 1,
      "note": 88,
      "start": 19.9983,
      "duration": 0.0164,
      "velocity": 87,
      "chip": "ym2612"
    },
    {
      "channel": 0,
      "note": 41,
      "start": 20.008,
      "duration": 0.0161,
      "velocity": 115,
      "chip": "ym2612"
    },
    {
      "channel": 5,
      "note": 88,
      "start": 20.0092,
      "duration": 0.0161,
      "velocity": 87,
      "chip": "ym2612"
    },
    {
      "channel": 3,
      "note": 71,
      "start": 20.0112,
      "duration": 0.0153,
      "velocity": 96,
      "chip": "ym2612"
    },
    {
      "channel": 2,
      "note": 71,
      "start": 20.0124,
      "duration": 0.0158,
      "velocity": 96,
      "chip": "ym2612"
    },
    {
      "channel": 4,
      "note": 59,
      "start": 20.0135,
      "duration": 0.0159,
      "velocity": 100,
      "chip": "ym2612"
    },
    {
      "channel": 1,
      "note": 88,
      "start": 20.0147,
      "duration": 0.0158,
      "velocity": 87,
      "chip": "ym2612"
    },
    {
      "channel": 0,
      "note": 41,
      "start": 20.0241,
      "duration": 0.0161,
      "velocity": 115,
      "chip": "ym2612"
    },
    {
      "channel": 5,
      "note": 88,
      "start": 20.0253,
      "duration": 0.0161,
      "velocity": 87,
      "chip": "ym2612"
    },
    {
      "channel": 3,
      "note": 71,
      "start": 20.0265,
      "duration": 0.016,
      "velocity": 96,
      "chip": "ym2612"
    },
    {
      "channel": 2,
      "note": 71,
      "start": 20.0282,
      "duration": 0.016,
      "velocity": 96,
      "chip": "ym2612"
    },
    {
      "channel": 4,
      "note": 59,
      "start": 20.0294,
      "duration": 0.016,
      "velocity": 100,
      "chip": "ym2612"
    },
    {
      "channel": 1,
      "note": 88,
      "start": 20.0305,
      "duration": 0.016,
      "velocity": 87,
      "chip": "ym2612"
    },
    {
      "channel": 0,
      "note": 42,
      "start": 20.0402,
      "duration": 0.0161,
      "velocity": 115,
      "chip": "ym2612"
    },
    {
      "channel": 5,
      "note": 88,
      "start": 20.0414,
      "duration": 0.0161,
      "velocity": 87,
      "chip": "ym2612"
    },
    {
      "channel": 3,
      "note": 71,
      "start": 20.0425,
      "duration": 0.0161,
      "velocity": 96,
      "chip": "ym2612"
    },
    {
      "channel": 4,
      "note": 59,
      "start": 20.0454,
      "duration": 0.0163,
      "velocity": 100,
      "chip": "ym2612"
    },
    {
      "channel": 1,
      "note": 88,
      "start": 20.0466,
      "duration": 0.0164,
      "velocity": 87,
      "chip": "ym2612"
    },
    {
      "channel": 0,
      "note": 42,
      "start": 20.0563,
      "duration": 0.0161,
      "velocity": 115,
      "chip": "ym2612"
    },
    {
      "channel": 5,
      "note": 88,
      "start": 20.0575,
      "duration": 0.0161,
      "velocity": 87,
      "chip": "ym2612"
    },
    {
      "channel": 3,
      "note": 71,
      "start": 20.0586,
      "duration": 0.0161,
      "velocity": 96,
      "chip": "ym2612"
    },
    {
      "channel": 2,
      "note": 74,
      "start": 20.0602,
      "duration": 0.0157,
      "velocity": 96,
      "chip": "ym2612"
    },
    {
      "channel": 4,
      "note": 59,
      "start": 20.0618,
      "duration": 0.0158,
      "velocity": 100,
      "chip": "ym2612"
    },
    {
      "channel": 1,
      "note": 88,
      "start": 20.063,
      "duration": 0.0159,
      "velocity": 87,
      "chip": "ym2612"
    },
    {
      "channel": 0,
      "note": 43,
      "start": 20.0723,
      "duration": 0.0162,
      "velocity": 115,
      "chip": "ym2612"
    },
    {
      "channel": 5,
      "note": 88,
      "start": 20.0736,
      "duration": 0.0161,
      "velocity": 87,
      "chip": "ym2612"
    },
    {
      "channel": 3,
      "note": 71,
      "start": 20.0747,
      "duration": 0.0161,
      "velocity": 96,
      "chip": "ym2612"
    },
    {
      "channel": 2,
      "note": 74,
      "start": 20.0759,
      "duration": 0.016,
      "velocity": 96,
      "chip": "ym2612"
    },
    {
      "channel": 4,
      "note": 59,
      "start": 20.0776,
      "duration": 0.0155,
      "velocity": 100,
      "chip": "ym2612"
    },
    {
      "channel": 1,
      "note": 88,
      "start": 20.0788,
      "duration": 0.0161,
      "velocity": 87,
      "chip": "ym2612"
    },
    {
      "channel": 0,
      "note": 43,
      "start": 20.0885,
      "duration": 0.0161,
      "velocity": 115,
      "chip": "ym2612"
    },
    {
      "channel": 5,
      "note": 88,
      "start": 20.0896,
      "duration": 0.0161,
      "velocity": 87,
      "chip": "ym2612"
    },
    {
      "channel": 3,
      "note": 71,
      "start": 20.0908,
      "duration": 0.0161,
      "velocity": 96,
      "chip": "ym2612"
    },
    {
      "channel": 2,
      "note": 74,
      "start": 20.0919,
      "duration": 0.0162,
      "velocity": 96,
      "chip": "ym2612"
    },
    {
      "channel": 4,
      "note": 59,
      "start": 20.0931,
      "duration": 0.0162,
      "velocity": 100,
      "chip": "ym2612"
    },
    {
      "channel": 1,
      "note": 88,
      "start": 20.0949,
      "duration": 0.016,
      "velocity": 87,
      "chip": "ym2612"
    },
    {
      "channel": 0,
      "note": 44,
      "start": 20.1046,
      "duration": 0.0161,
      "velocity": 115,
      "chip": "ym2612"
    },
    {
      "channel": 5,
      "note": 88,
      "start": 20.1057,
      "duration": 0.0161,
      "velocity": 87,
      "chip": "ym2612"
    },
    {
      "channel": 2,
      "note": 74,
      "start": 20.1081,
      "duration": 0.0163,
      "velocity": 96,
      "chip": "ym2612"
    },
    {
      "channel": 4,
      "note": 59,
      "start": 20.1093,
      "duration": 0.0164,
      "velocity": 100,
      "chip": "ym2612"
    },
    {
      "channel": 1,
      "note": 88,
      "start": 20.111,
      "duration": 0.0161,
      "velocity": 87,
      "chip": "ym2612"
    },
    {
      "channel": 0,
      "note": 44,
      "start": 20.1207,
      "duration": 0.0161,
      "velocity": 115,
      "chip": "ym2612"
    },
    {
      "channel": 5,
      "note": 88,
      "start": 20.1218,
      "duration": 0.0161,
      "velocity": 87,
      "chip": "ym2612"
    },
    {
      "channel": 3,
      "note": 74,
      "start": 20.1233,
      "duration": 0.0159,
      "velocity": 96,
      "chip": "ym2612"
    },
    {
      "channel": 2,
      "note": 74,
      "start": 20.1244,
      "duration": 0.0159,
      "velocity": 96,
      "chip": "ym2612"
    },
    {
      "channel": 4,
      "note": 59,
      "start": 20.1256,
      "duration": 0.0159,
      "velocity": 100,
      "chip": "ym2612"
    },
    {
      "channel": 1,
      "note": 88,
      "start": 20.1271,
      "duration": 0.0156,
      "velocity": 87,
      "chip": "ym2612"
    },
    {
      "channel": 0,
      "note": 44,
      "start": 20.1368,
      "duration": 0.0161,
      "velocity": 115,
      "chip": "ym2612"
    },
    {
      "channel": 5,
      "note": 88,
      "start": 20.1379,
      "duration": 0.0161,
      "velocity": 87,
      "chip": "ym2612"
    },
    {
      "channel": 3,
      "note": 74,
      "start": 20.1392,
      "duration": 0.016,
      "velocity": 96,
      "chip": "ym2612"
    },
    {
      "channel": 2,
      "note": 74,
      "start": 20.1403,
      "duration": 0.016,
      "velocity": 96,
      "chip": "ym2612"
    },
    {
      "channel": 4,
      "note": 59,
      "start": 20.1415,
      "duration": 0.0161,
      "velocity": 100,
      "chip": "ym2612"
    },
    {
      "channel": 1,
      "note": 88,
      "start": 20.1427,
      "duration": 0.016,
      "velocity": 87,
      "chip": "ym2612"
    },
    {
      "channel": 0,
      "note": 45,
      "start": 20.1529,
      "duration": 0.0179,
      "velocity": 115,
      "chip": "ym2612"
    },
    {
      "channel": 5,
      "note": 88,
      "start": 20.1541,
      "duration": 0.0179,
      "velocity": 87,
      "chip": "ym2612"
    },
    {
      "channel": 3,
      "note": 74,
      "start": 20.1552,
      "duration": 0.0179,
      "velocity": 96,
      "chip": "ym2612"
    },
    {
      "channel": 4,
      "note": 59,
      "start": 20.1576,
      "duration": 0.0184,
      "velocity": 100,
      "chip": "ym2612"
    },
    {
      "channel": 1,
      "note": 88,
      "start": 20.1587,
      "duration": 0.0191,
      "velocity": 87,
      "chip": "ym2612"
    },
    {
      "channel": 0,
      "note": 36,
      "start": 20.1708,
      "duration": 0.0143,
      "velocity": 115,
      "chip": "ym2612"
    },
    {
      "channel": 5,
      "note": 88,
      "start": 20.172,
      "duration": 0.0143,
      "velocity": 87,
      "chip": "ym2612"
    },
    {
      "channel": 3,
      "note": 74,
      "start": 20.1732,
      "duration": 0.0143,
      "velocity": 96,
      "chip": "ym2612"
    },
    {
      "channel": 2,
      "note": 78,
      "start": 20.1746,
      "duration": 0.0141,
      "velocity": 96,
      "chip": "ym2612"
    },
    {
      "channel": 4,
      "note": 54,
      "start": 20.1761,
      "duration": 0.0138,
      "velocity": 100,
      "chip": "ym2612"
    },
    {
      "channel": 1,
      "note": 88,
      "start": 20.1778,
      "duration": 0.0133,
      "velocity": 87,
      "chip": "ym2612"
    },
    {
      "channel": 0,
      "note": 36,
      "start": 20.1851,
      "duration": 0.016,
      "velocity": 115,
      "chip": "ym2612"
    },
    {
      "channel": 5,
      "note": 88,
      "start": 20.1863,
      "duration": 0.016,
      "velocity": 87,
      "chip": "ym2612"
    },
    {
      "channel": 3,
      "note": 74,
      "start": 20.1875,
      "duration": 0.016,
      "velocity": 96,
      "chip": "ym2612"
    },
    {
      "channel": 2,
      "note": 78,
      "start": 20.1887,
      "duration": 0.016,
      "velocity": 96,
      "chip": "ym2612"
    },
    {
      "channel": 4,
      "note": 54,
      "start": 20.1899,
      "duration": 0.0159,
      "velocity": 100,
      "chip": "ym2612"
    },
    {
      "channel": 1,
      "note": 88,
      "start": 20.1911,
      "duration": 0.0159,
      "velocity": 87,
      "chip": "ym2612"
    },
    {
      "channel": 0,
      "note": 37,
      "start": 20.2012,
      "duration": 0.0161,
      "velocity": 115,
      "chip": "ym2612"
    },
    {
      "channel": 5,
      "note": 88,
      "start": 20.2024,
      "duration": 0.0161,
      "velocity": 87,
      "chip": "ym2612"
    },
    {
      "channel": 3,
      "note": 74,
      "start": 20.2035,
      "duration": 0.0161,
      "velocity": 96,
      "chip": "ym2612"
    },
    {
      "channel": 2,
      "note": 78,
      "start": 20.2047,
      "duration": 0.0161,
      "velocity": 96,
      "chip": "ym2612"
    },
    {
      "channel": 4,
      "note": 54,
      "start": 20.2058,
      "duration": 0.0162,
      "velocity": 100,
      "chip": "ym2612"
    },
    {
      "channel": 1,
      "note": 88,
      "start": 20.207,
      "duration": 0.0162,
      "velocity": 87,
      "chip": "ym2612"
    },
    {
      "channel": 0,
      "note": 37,
      "start": 20.2173,
      "duration": 0.0162,
      "velocity": 115,
      "chip": "ym2612"
    },
    {
      "channel": 5,
      "note": 88,
      "start": 20.2185,
      "duration": 0.0161,
      "velocity": 87,
      "chip": "ym2612"
    },
    {
      "channel": 2,
      "note": 78,
      "start": 20.2208,
      "duration": 0.0163,
      "velocity": 96,
      "chip": "ym2612"
    },
    {
      "channel": 4,
      "note": 54,
      "start": 20.222,
      "duration": 0.0163,
      "velocity": 100,
      "chip": "ym2612"
    },
    {
      "channel": 1,
      "note": 88,
      "start": 20.2232,
      "duration": 0.0163,
      "velocity": 87,
      "chip": "ym2612"
    },
    {
      "channel": 0,
      "note": 38,
      "start": 20.2334,
      "duration": 0.0161,
      "velocity": 115,
      "chip": "ym2612"
    },
    {
      "channel": 5,
      "note": 88,
      "start": 20.2346,
      "duration": 0.0161,
      "velocity": 87,
      "chip": "ym2612"
    },
    {
      "channel": 3,
      "note": 78,
      "start": 20.236,
      "duration": 0.0159,
      "velocity": 96,
      "chip": "ym2612"
    },
    {
      "channel": 2,
      "note": 78,
      "start": 20.2372,
      "duration": 0.0159,
      "velocity": 96,
      "chip": "ym2612"
    },
    {
      "channel": 4,
      "note": 54,
      "start": 20.2383,
      "duration": 0.0159,
      "velocity": 100,
      "chip": "ym2612"
    },
    {
      "channel": 1,
      "note": 88,
      "start": 20.2395,
      "duration": 0.0159,
      "velocity": 87,
      "chip": "ym2612"
    },
    {
      "channel": 0,
      "note": 38,
      "start": 20.2495,
      "duration": 0.0161,
      "velocity": 115,
      "chip": "ym2612"
    },
    {
      "channel": 5,
      "note": 88,
      "start": 20.2507,
      "duration": 0.0161,
      "velocity": 87,
      "chip": "ym2612"
    },
    {
      "channel": 3,
      "note": 78,
      "start": 20.2519,
      "duration": 0.016,
      "velocity": 96,
      "chip": "ym2612"
    },
    {
      "channel": 2,
      "note": 78,
      "start": 20.2531,
      "duration": 0.016,
      "velocity": 96,
      "chip": "ym2612"
    },
    {
      "channel": 4,
      "note": 54,
      "start": 20.2542,
      "duration": 0.016,
      "velocity": 100,
      "chip": "ym2612"
    },
    {
      "channel": 1,
      "note": 88,
      "start": 20.2554,
      "duration": 0.016,
      "velocity": 87,
      "chip": "ym2612"
    },
    {
      "channel": 0,
      "note": 39,
      "start": 20.2656,
      "duration": 0.0179,
      "velocity": 115,
      "chip": "ym2612"
    },
    {
      "channel": 5,
      "note": 88,
      "start": 20.2668,
      "duration": 0.018,
      "velocity": 87,
      "chip": "ym2612"
    },
    {
      "channel": 3,
      "note": 78,
      "start": 20.268,
      "duration": 0.0179,
      "velocity": 96,
      "chip": "ym2612"
    },
    {
      "channel": 4,
      "note": 54,
      "start": 20.2702,
      "duration": 0.0184,
      "velocity": 100,
      "chip": "ym2612"
    },
    {
      "channel": 1,
      "note": 88,
      "start": 20.2715,
      "duration": 0.0184,
      "velocity": 87,
      "chip": "ym2612"
    },
    {
      "channel": 0,
      "note": 36,
      "start": 20.2835,
      "duration": 0.0143,
      "velocity": 115,
      "chip": "ym2612"
    },
    {
      "channel": 5,
      "note": 88,
      "start": 20.2847,
      "duration": 0.0143,
      "velocity": 87,
      "chip": "ym2612"
    },
    {
      "channel": 3,
      "note": 78,
      "start": 20.2859,
      "duration": 0.0143,
      "velocity": 96,
      "chip": "ym2612"
    },
    {
      "channel": 4,
      "note": 54,
      "start": 20.2887,
      "duration": 0.014,
      "velocity": 100,
      "chip": "ym2612"
    },
    {
      "channel": 1,
      "note": 88,
      "start": 20.2898,
      "duration": 0.014,
      "velocity": 87,
      "chip": "ym2612"
    },
    {
      "channel": 0,
      "note": 36,
      "start": 20.2978,
      "duration": 0.016,
      "velocity": 115,
      "chip": "ym2612"
    },
    {
      "channel": 5,
      "note": 88,
      "start": 20.2991,
      "duration": 0.016,
      "velocity": 87,
      "chip": "ym2612"
    },
    {
      "channel": 3,
      "note": 78,
      "start": 20.3002,
      "duration": 0.016,
      "velocity": 96,
      "chip": "ym2612"
    },
    {
      "channel": 4,
      "note": 54,
      "start": 20.3027,
      "duration": 0.016,
      "velocity": 100,
      "chip": "ym2612"
    },
    {
      "channel": 1,
      "note": 88,
      "start": 20.3038,
      "duration": 0.016,
      "velocity": 87,
      "chip": "ym2612"
    },
    {
      "channel": 0,
      "note": 37,
      "start": 20.3139,
      "duration": 0.0162,
      "velocity": 115,
      "chip": "ym2612"
    },
    {
      "channel": 5,
      "note": 88,
      "start": 20.3151,
      "duration": 0.0161,
      "velocity": 87,
      "chip": "ym2612"
    },
    {
      "channel": 3,
      "note": 78,
      "start": 20.3162,
      "duration": 0.0162,
      "velocity": 96,
      "chip": "ym2612"
    },
    {
      "channel": 4,
      "note": 54,
      "start": 20.3187,
      "duration": 0.0161,
      "velocity": 100,
      "chip": "ym2612"
    },
    {
      "channel": 1,
      "note": 88,
      "start": 20.3199,
      "duration": 0.0162,
      "velocity": 87,
      "chip": "ym2612"
    },
    {
      "channel": 0,
      "note": 37,
      "start": 20.33,
      "duration": 0.0163,
      "velocity": 115,
      "chip": "ym2612"
    },
    {
      "channel": 5,
      "note": 88,
      "start": 20.3312,
      "duration": 0.0163,
      "velocity": 87,
      "chip": "ym2612"
    },
    {
      "channel": 4,
      "note": 54,
      "start": 20.3348,
      "duration": 0.0164,
      "velocity": 100,
      "chip": "ym2612"
    },
    {
      "channel": 1,
      "note": 88,
      "start": 20.336,
      "duration": 0.0164,
      "velocity": 87,
      "chip": "ym2612"
    },
    {
      "channel": 0,
      "note": 38,
      "start": 20.3464,
      "duration": 0.0163,
      "velocity": 115,
      "chip": "ym2612"
    },
    {
      "channel": 5,
      "note": 88,
      "start": 20.3476,
      "duration": 0.0163,
      "velocity": 87,
      "chip": "ym2612"
    },
    {
      "channel": 4,
      "note": 54,
      "start": 20.3512,
      "duration": 0.0162,
      "velocity": 100,
      "chip": "ym2612"
    },
    {
      "channel": 1,
      "note": 88,
      "start": 20.3524,
      "duration": 0.0162,
      "velocity": 87,
      "chip": "ym2612"
    },
    {
      "channel": 0,
      "note": 38,
      "start": 20.3627,
      "duration": 0.0161,
      "velocity": 115,
      "chip": "ym2612"
    },
    {
      "channel": 5,
      "note": 88,
      "start": 20.3639,
      "duration": 0.0162,
      "velocity": 87,
      "chip": "ym2612"
    },
    {
      "channel": 4,
      "note": 54,
      "start": 20.3674,
      "duration": 0.0162,
      "velocity": 100,
      "chip": "ym2612"
    },
    {
      "channel": 1,
      "note": 88,
      "start": 20.3687,
      "duration": 0.0162,
      "velocity": 87,
      "chip": "ym2612"
    },
    {
      "channel": 0,
      "note": 39,
      "start": 20.3789,
      "duration": 0.0161,
      "velocity": 115,
      "chip": "ym2612"
    },
    {
      "channel": 5,
      "note": 88,
      "start": 20.3801,
      "duration": 0.016,
      "velocity": 87,
      "chip": "ym2612"
    },
    {
      "channel": 4,
      "note": 54,
      "start": 20.3837,
      "duration": 0.0163,
      "velocity": 100,
      "chip": "ym2612"
    },
    {
      "channel": 1,
      "note": 88,
      "start": 20.3849,
      "duration": 0.0163,
      "velocity": 87,
      "chip": "ym2612"
    },
    {
      "channel": 0,
      "note": 39,
      "start": 20.395,
      "duration": 0.016,
      "velocity": 115,
      "chip": "ym2612"
    },
    {
      "channel": 5,
      "note": 88,
      "start": 20.3961,
      "duration": 0.0161,
      "velocity": 87,
      "chip": "ym2612"
    },
    {
      "channel": 2,
      "note": 71,
      "start": 20.3988,
      "duration": 0.0159,
      "velocity": 96,
      "chip": "ym2612"
    },
    {
      "channel": 4,
      "note": 54,
      "start": 20.4,
      "duration": 0.0159,
      "velocity": 100,
      "chip": "ym2612"
    },
    {
      "channel": 1,
      "note": 88,
      "start": 20.4012,
      "duration": 0.0159,
      "velocity": 87,
      "chip": "ym2612"
    },
    {
      "channel": 0,
      "note": 40,
      "start": 20.411,
      "duration": 0.0156,
      "velocity": 115,
      "chip": "ym2612"
    },
    {
      "channel": 5,
      "note": 88,
      "start": 20.4123,
      "duration": 0.016,
      "velocity": 87,
      "chip": "ym2612"
    },
    {
      "channel": 2,
      "note": 71,
      "start": 20.4146,
      "duration": 0.016,
      "velocity": 96,
      "chip": "ym2612"
    },
    {
      "channel": 4,
      "note": 54,
      "start": 20.4159,
      "duration": 0.016,
      "velocity": 100,
      "chip": "ym2612"
    },
    {
      "channel": 1,
      "note": 88,
      "start": 20.4171,
      "duration": 0.016,
      "velocity": 87,
      "chip": "ym2612"
    },
    {
      "channel": 0,
      "note": 40,
      "start": 20.4266,
      "duration": 0.0161,
      "velocity": 115,
      "chip": "ym2612"
    },
    {
      "channel": 5,
      "note": 88,
      "start": 20.4283,
      "duration": 0.0161,
      "velocity": 87,
      "chip": "ym2612"
    },
    {
      "channel": 2,
      "note": 71,
      "start": 20.4307,
      "duration": 0.0161,
      "velocity": 96,
      "chip": "ym2612"
    },
    {
      "channel": 4,
      "note": 54,
      "start": 20.4318,
      "duration": 0.0162,
      "velocity": 100,
      "chip": "ym2612"
    },
    {
      "channel": 1,
      "note": 88,
      "start": 20.4331,
      "duration": 0.0161,
      "velocity": 87,
      "chip": "ym2612"
    },
    {
      "channel": 0,
      "note": 40,
      "start": 20.4427,
      "duration": 0.0161,
      "velocity": 115,
      "chip": "ym2612"
    },
    {
      "channel": 5,
      "note": 88,
      "start": 20.4444,
      "duration": 0.0156,
      "velocity": 87,
      "chip": "ym2612"
    },
    {
      "channel": 2,
      "note": 71,
      "start": 20.4468,
      "duration": 0.0164,
      "velocity": 96,
      "chip": "ym2612"
    },
    {
      "channel": 4,
      "note": 54,
      "start": 20.448,
      "duration": 0.0164,
      "velocity": 100,
      "chip": "ym2612"
    },
    {
      "channel": 1,
      "note": 88,
      "start": 20.4492,
      "duration": 0.0164,
      "velocity": 87,
      "chip": "ym2612"
    },
    {
      "channel": 0,
      "note": 41,
      "start": 20.4588,
      "duration": 0.0161,
      "velocity": 115,
      "chip": "ym2612"
    },
    {
      "channel": 5,
      "note": 88,
      "start": 20.46,
      "duration": 0.0161,
      "velocity": 87,
      "chip": "ym2612"
    },
    {
      "channel": 3,
      "note": 71,
      "start": 20.462,
      "duration": 0.0158,
      "velocity": 96,
      "chip": "ym2612"
    },
    {
      "channel": 2,
      "note": 71,
      "start": 20.4632,
      "duration": 0.0159,
      "velocity": 96,
      "chip": "ym2612"
    },
    {
      "channel": 4,
      "note": 54,
      "start": 20.4644,
      "duration": 0.0158,
      "velocity": 100,
      "chip": "ym2612"
    },
    {
      "channel": 1,
      "note": 88,
      "start": 20.4656,
      "duration": 0.0159,
      "velocity": 87,
      "chip": "ym2612"
    },
    {
      "channel": 0,
      "note": 41,
      "start": 20.4749,
      "duration": 0.0161,
      "velocity": 115,
      "chip": "ym2612"
    },
    {
      "channel": 5,
      "note": 88,
      "start": 20.4761,
      "duration": 0.0161,
      "velocity": 87,
      "chip": "ym2612"
    },
    {
      "channel": 3,
      "note": 71,
      "start": 20.4779,
      "duration": 0.0155,
      "velocity": 96,
      "chip": "ym2612"
    },
    {
      "channel": 2,
      "note": 71,
      "start": 20.4791,
      "duration": 0.016,
      "velocity": 96,
      "chip": "ym2612"
    },
    {
      "channel": 4,
      "note": 54,
      "start": 20.4802,
      "duration": 0.016,
      "velocity": 100,
      "chip": "ym2612"
    },
    {
      "channel": 0,
      "note": 42,
      "start": 20.491,
      "duration": 0.0179,
      "velocity": 124,
      "chip": "ym2612"
    },
    {
      "channel": 5,
      "note": 88,
      "start": 20.4922,
      "duration": 0.0182,
      "velocity": 87,
      "chip": "ym2612"
    },
    {
      "channel": 3,
      "note": 71,
      "start": 20.4933,
      "duration": 0.0186,
      "velocity": 96,
      "chip": "ym2612"
    },
    {
      "channel": 4,
      "note": 54,
      "start": 20.4963,
      "duration": 0.0181,
      "velocity": 100,
      "chip": "ym2612"
    },
    {
      "channel": 0,
      "note": 84,
      "start": 20.509,
      "duration": 0.0143,
      "velocity": 124,
      "chip": "ym2612"
    },
    {
      "channel": 5,
      "note": 88,
      "start": 20.5104,
      "duration": 0.0141,
      "velocity": 87,
      "chip": "ym2612"
    },
    {
      "channel": 3,
      "note": 71,
      "start": 20.5119,
      "duration": 0.0137,
      "velocity": 96,
      "chip": "ym2612"
    },
    {
      "channel": 4,
      "note": 54,
      "start": 20.5144,
      "duration": 0.0142,
      "velocity": 100,
      "chip": "ym2612"
    },
    {
      "channel": 1,
      "note": 86,
      "start": 20.5159,
      "duration": 0.0139,
      "velocity": 87,
      "chip": "ym2612"
    },
    {
      "channel": 0,
      "note": 82,
      "start": 20.5233,
      "duration": 0.016,
      "velocity": 124,
      "chip": "ym2612"
    },
    {
      "channel": 5,
      "note": 88,
      "start": 20.5244,
      "duration": 0.0161,
      "velocity": 87,
      "chip": "ym2612"
    },
    {
      "channel": 3,
      "note": 71,
      "start": 20.5256,
      "duration": 0.016,
      "velocity": 96,
      "chip": "ym2612"
    },
    {
      "channel": 4,
      "note": 54,
      "start": 20.5286,
      "duration": 0.016,
      "velocity": 100,
      "chip": "ym2612"
    },
    {
      "channel": 1,
      "note": 86,
      "start": 20.5298,
      "duration": 0.016,
      "velocity": 87,
      "chip": "ym2612"
    },
    {
      "channel": 0,
      "note": 80,
      "start": 20.5393,
      "duration": 0.0161,
      "velocity": 124,
      "chip": "ym2612"
    },
    {
      "channel": 5,
      "note": 88,
      "start": 20.5405,
      "duration": 0.0161,
      "velocity": 87,
      "chip": "ym2612"
    },
    {
      "channel": 3,
      "note": 71,
      "start": 20.5417,
      "duration": 0.0161,
      "velocity": 96,
      "chip": "ym2612"
    },
    {
      "channel": 4,
      "note": 54,
      "start": 20.5446,
      "duration": 0.0158,
      "velocity": 100,
      "chip": "ym2612"
    },
    {
      "channel": 1,
      "note": 86,
      "start": 20.5458,
      "duration": 0.0161,
      "velocity": 87,
      "chip": "ym2612"
    },
    {
      "channel": 0,
      "note": 77,
      "start": 20.5554,
      "duration": 0.0161,
      "velocity": 124,
      "chip": "ym2612"
    },
    {
      "channel": 5,
      "note": 88,
      "start": 20.5566,
      "duration": 0.0161,
      "velocity": 87,
      "chip": "ym2612"
    },
    {
      "channel": 4,
      "note": 54,
      "start": 20.5604,
      "duration": 0.016,
      "velocity": 100,
      "chip": "ym2612"
    },
    {
      "channel": 1,
      "note": 86,
      "start": 20.562,
      "duration": 0.0161,
      "velocity": 87,
      "chip": "ym2612"
    },
    {
      "channel": 0,
      "note": 75,
      "start": 20.5715,
      "duration": 0.0161,
      "velocity": 124,
      "chip": "ym2612"
    },
    {
      "channel": 5,
      "note": 88,
      "start": 20.5727,
      "duration": 0.0162,
      "velocity": 87,
      "chip": "ym2612"
    },
    {
      "channel": 4,
      "note": 54,
      "start": 20.5763,
      "duration": 0.0161,
      "velocity": 100,
      "chip": "ym2612"
    },
    {
      "channel": 1,
      "note": 86,
      "start": 20.5781,
      "duration": 0.0157,
      "velocity": 87,
      "chip": "ym2612"
    },
    {
      "channel": 0,
      "note": 72,
      "start": 20.5876,
      "duration": 0.0161,
      "velocity": 124,
      "chip": "ym2612"
    },
    {
      "channel": 5,
      "note": 88,
      "start": 20.5889,
      "duration": 0.0161,
      "velocity": 87,
      "chip": "ym2612"
    },
    {
      "channel": 4,
      "note": 54,
      "start": 20.5924,
      "duration": 0.0161,
      "velocity": 100,
      "chip": "ym2612"
    },
    {
      "channel": 1,
      "note": 86,
      "start": 20.5938,
      "duration": 0.016,
      "velocity": 87,
      "chip": "ym2612"
    },
    {
      "channel": 0,
      "note": 70,
      "start": 20.6037,
      "duration": 0.0161,
      "velocity": 124,
      "chip": "ym2612"
    },
    {
      "channel": 5,
      "note": 88,
      "start": 20.605,
      "duration": 0.0161,
      "velocity": 87,
      "chip": "ym2612"
    },
    {
      "channel": 4,
      "note": 54,
      "start": 20.6085,
      "duration": 0.0165,
      "velocity": 100,
      "chip": "ym2612"
    },
    {
      "channel": 1,
      "note": 86,
      "start": 20.6098,
      "duration": 0.0165,
      "velocity": 87,
      "chip": "ym2612"
    },
    {
      "channel": 0,
      "note": 68,
      "start": 20.6198,
      "duration": 0.0161,
      "velocity": 124,
      "chip": "ym2612"
    },
    {
      "channel": 5,
      "note": 88,
      "start": 20.6211,
      "duration": 0.0161,
      "velocity": 87,
      "chip": "ym2612"
    },
    {
      "channel": 2,
      "note": 74,
      "start": 20.6237,
      "duration": 0.0159,
      "velocity": 96,
      "chip": "ym2612"
    },
    {
      "channel": 4,
      "note": 54,
      "start": 20.6251,
      "duration": 0.0156,
      "velocity": 100,
      "chip": "ym2612"
    },
    {
      "channel": 1,
      "note": 86,
      "start": 20.6263,
      "duration": 0.0156,
      "velocity": 87,
      "chip": "ym2612"
    },
    {
      "channel": 0,
      "note": 65,
      "start": 20.6359,
      "duration": 0.0161,
      "velocity": 124,
      "chip": "ym2612"
    },
    {
      "channel": 5,
      "note": 88,
      "start": 20.6372,
      "duration": 0.0161,
      "velocity": 87,
      "chip": "ym2612"
    },
    {
      "channel": 2,
      "note": 74,
      "start": 20.6395,
      "duration": 0.0161,
      "velocity": 96,
      "chip": "ym2612"
    },
    {
      "channel": 4,
      "note": 54,
      "start": 20.6407,
      "duration": 0.016,
      "velocity": 100,
      "chip": "ym2612"
    },
    {
      "channel": 1,
      "note": 86,
      "start": 20.6419,
      "duration": 0.016,
      "velocity": 87,
      "chip": "ym2612"
    },
    {
      "channel": 0,
      "note": 63,
      "start": 20.652,
      "duration": 0.0153,
      "velocity": 1,
      "chip": "ym2612"
    },
    {
      "channel": 5,
      "note": 88,
      "start": 20.6533,
      "duration": 0.0153,
      "velocity": 87,
      "chip": "ym2612"
    },
    {
      "channel": 2,
      "note": 74,
      "start": 20.6556,
      "duration": 0.0152,
      "velocity": 96,
      "chip": "ym2612"
    },
    {
      "channel": 4,
      "note": 54,
      "start": 20.6568,
      "duration": 0.0153,
      "velocity": 100,
      "chip": "ym2612"
    },
    {
      "channel": 1,
      "note": 86,
      "start": 20.6579,
      "duration": 0.0153,
      "velocity": 87,
      "chip": "ym2612"
    },
    {
      "channel": 2,
      "note": 74,
      "start": 20.6708,
      "duration": 0.0155,
      "velocity": 96,
      "chip": "ym2612"
    },
    {
      "channel": 4,
      "note": 54,
      "start": 20.672,
      "duration": 0.0155,
      "velocity": 100,
      "chip": "ym2612"
    },
    {
      "channel": 1,
      "note": 86,
      "start": 20.6732,
      "duration": 0.0155,
      "velocity": 87,
      "chip": "ym2612"
    },
    {
      "channel": 3,
      "note": 74,
      "start": 20.6852,
      "duration": 0.0163,
      "velocity": 96,
      "chip": "ym2612"
    },
    {
      "channel": 2,
      "note": 74,
      "start": 20.6863,
      "duration": 0.0163,
      "velocity": 96,
      "chip": "ym2612"
    },
    {
      "channel": 4,
      "note": 54,
      "start": 20.6875,
      "duration": 0.0163,
      "velocity": 100,
      "chip": "ym2612"
    },
    {
      "channel": 1,
      "note": 86,
      "start": 20.6887,
      "duration": 0.0162,
      "velocity": 87,
      "chip": "ym2612"
    },
    {
      "channel": 5,
      "note": 86,
      "start": 20.7002,
      "duration": 0.0158,
      "velocity": 87,
      "chip": "ym2612"
    },
    {
      "channel": 3,
      "note": 74,
      "start": 20.7015,
      "duration": 0.0156,
      "velocity": 96,
      "chip": "ym2612"
    },
    {
      "channel": 2,
      "note": 74,
      "start": 20.7026,
      "duration": 0.0156,
      "velocity": 96,
      "chip": "ym2612"
    },
    {
      "channel": 4,
      "note": 54,
      "start": 20.7038,
      "duration": 0.0157,
      "velocity": 100,
      "chip": "ym2612"
    },
    {
      "channel": 1,
      "note": 86,
      "start": 20.7049,
      "duration": 0.0157,
      "velocity": 87,
      "chip": "ym2612"
    },
    {
      "channel": 5,
      "note": 86,
      "start": 20.716,
      "duration": 0.0196,
      "velocity": 87,
      "chip": "ym2612"
    },
    {
      "channel": 3,
      "note": 74,
      "start": 20.7171,
      "duration": 0.0196,
      "velocity": 96,
      "chip": "ym2612"
    },
    {
      "channel": 4,
      "note": 54,
      "start": 20.7195,
      "duration": 0.0202,
      "velocity": 100,
      "chip": "ym2612"
    },
    {
      "channel": 1,
      "note": 86,
      "start": 20.7206,
      "duration": 0.0202,
      "velocity": 87,
      "chip": "ym2612"
    },
    {
      "channel": 0,
      "note": 36,
      "start": 20.7344,
      "duration": 0.0143,
      "velocity": 115,
      "chip": "ym2612"
    },
    {
      "channel": 5,
      "note": 86,
      "start": 20.7356,
      "duration": 0.0143,
      "velocity": 87,
      "chip": "ym2612"
    },
    {
      "channel": 3,
      "note": 74,
      "start": 20.7367,
      "duration": 0.0143,
      "velocity": 96,
      "chip": "ym2612"
    },
    {
      "channel": 2,
      "note": 78,
      "start": 20.7383,
      "duration": 0.014,
      "velocity": 96,
      "chip": "ym2612"
    },
    {
      "channel": 4,
      "note": 59,
      "start": 20.7397,
      "duration": 0.0137,
      "velocity": 100,
      "chip": "ym2612"
    },
    {
      "channel": 1,
      "note": 86,
      "start": 20.7409,
      "duration": 0.0138,
      "velocity": 87,
      "chip": "ym2612"
    },
    {
      "channel": 0,
      "note": 36,
      "start": 20.7487,
      "duration": 0.016,
      "velocity": 115,
      "chip": "ym2612"
    },
    {
      "channel": 5,
      "note": 86,
      "start": 20.7499,
      "duration": 0.016,
      "velocity": 87,
      "chip": "ym2612"
    },
    {
      "channel": 3,
      "note": 74,
      "start": 20.751,
      "duration": 0.016,
      "velocity": 96,
      "chip": "ym2612"
    },
    {
      "channel": 2,
      "note": 78,
      "start": 20.7522,
      "duration": 0.016,
      "velocity": 96,
      "chip": "ym2612"
    },
    {
      "channel": 4,
      "note": 59,
      "start": 20.7534,
      "duration": 0.0159,
      "velocity": 100,
      "chip": "ym2612"
    },
    {
      "channel": 1,
      "note": 86,
      "start": 20.7547,
      "duration": 0.0159,
      "velocity": 87,
      "chip": "ym2612"
    },
    {
      "channel": 0,
      "note": 37,
      "start": 20.7647,
      "duration": 0.0161,
      "velocity": 115,
      "chip": "ym2612"
    },
    {
      "channel": 5,
      "note": 86,
      "start": 20.7659,
      "duration": 0.0161,
      "velocity": 87,
      "chip": "ym2612"
    },
    {
      "channel": 3,
      "note": 74,
      "start": 20.7671,
      "duration": 0.0161,
      "velocity": 96,
      "chip": "ym2612"
    },
    {
      "channel": 2,
      "note": 78,
      "start": 20.7682,
      "duration": 0.0161,
      "velocity": 96,
      "chip": "ym2612"
    },
    {
      "channel": 4,
      "note": 59,
      "start": 20.7694,
      "duration": 0.0161,
      "velocity": 100,
      "chip": "ym2612"
    },
    {
      "channel": 1,
      "note": 86,
      "start": 20.7706,
      "duration": 0.0161,
      "velocity": 87,
      "chip": "ym2612"
    },
    {
      "channel": 0,
      "note": 37,
      "start": 20.7808,
      "duration": 0.0161,
      "velocity": 115,
      "chip": "ym2612"
    },
    {
      "channel": 5,
      "note": 86,
      "start": 20.782,
      "duration": 0.0161,
      "velocity": 87,
      "chip": "ym2612"
    },
    {
      "channel": 2,
      "note": 78,
      "start": 20.7843,
      "duration": 0.0165,
      "velocity": 96,
      "chip": "ym2612"
    },
    {
      "channel": 4,
      "note": 59,
      "start": 20.7855,
      "duration": 0.0165,
      "velocity": 100,
      "chip": "ym2612"
    },
    {
      "channel": 1,
      "note": 86,
      "start": 20.7867,
      "duration": 0.0165,
      "velocity": 87,
      "chip": "ym2612"
    },
    {
      "channel": 0,
      "note": 38,
      "start": 20.797,
      "duration": 0.0162,
      "velocity": 115,
      "chip": "ym2612"
    },
    {
      "channel": 5,
      "note": 86,
      "start": 20.7982,
      "duration": 0.0161,
      "velocity": 87,
      "chip": "ym2612"
    },
    {
      "channel": 3,
      "note": 78,
      "start": 20.7997,
      "duration": 0.0158,
      "velocity": 96,
      "chip": "ym2612"
    },
    {
      "channel": 2,
      "note": 78,
      "start": 20.8008,
      "duration": 0.0158,
      "velocity": 96,
      "chip": "ym2612"
    },
    {
      "channel": 4,
      "note": 59,
      "start": 20.802,
      "duration": 0.0158,
      "velocity": 100,
      "chip": "ym2612"
    },
    {
      "channel": 1,
      "note": 86,
      "start": 20.8032,
      "duration": 0.0158,
      "velocity": 87,
      "chip": "ym2612"
    },
    {
      "channel": 0,
      "note": 38,
      "start": 20.8131,
      "duration": 0.0164,
      "velocity": 115,
      "chip": "ym2612"
    },
    {
      "channel": 5,
      "note": 86,
      "start": 20.8143,
      "duration": 0.0164,
      "velocity": 87,
      "chip": "ym2612"
    },
    {
      "channel": 3,
      "note": 78,
      "start": 20.8155,
      "duration": 0.0163,
      "velocity": 96,
      "chip": "ym2612"
    },
    {
      "channel": 2,
      "note": 78,
      "start": 20.8166,
      "duration": 0.0164,
      "velocity": 96,
      "chip": "ym2612"
    },
    {
      "channel": 4,
      "note": 59,
      "start": 20.8178,
      "duration": 0.0164,
      "velocity": 100,
      "chip": "ym2612"
    },
    {
      "channel": 1,
      "note": 86,
      "start": 20.819,
      "duration": 0.0163,
      "velocity": 87,
      "chip": "ym2612"
    },
    {
      "channel": 0,
      "note": 39,
      "start": 20.8295,
      "duration": 0.0163,
      "velocity": 115,
      "chip": "ym2612"
    },
    {
      "channel": 5,
      "note": 86,
      "start": 20.8307,
      "duration": 0.0163,
      "velocity": 87,
      "chip": "ym2612"
    },
    {
      "channel": 3,
      "note": 78,
      "start": 20.8318,
      "duration": 0.0163,
      "velocity": 96,
      "chip": "ym2612"
    },
    {
      "channel": 4,
      "note": 59,
      "start": 20.8342,
      "duration": 0.0166,
      "velocity": 100,
      "chip": "ym2612"
    },
    {
      "channel": 1,
      "note": 86,
      "start": 20.8353,
      "duration": 0.0166,
      "velocity": 87,
      "chip": "ym2612"
    },
    {
      "channel": 0,
      "note": 39,
      "start": 20.8458,
      "duration": 0.0161,
      "velocity": 115,
      "chip": "ym2612"
    },
    {
      "channel": 5,
      "note": 86,
      "start": 20.847,
      "duration": 0.0162,
      "velocity": 87,
      "chip": "ym2612"
    },
    {
      "channel": 3,
      "note": 78,
      "start": 20.8482,
      "duration": 0.0161,
      "velocity": 96,
      "chip": "ym2612"
    },
    {
      "channel": 2,
      "note": 71,
      "start": 20.8496,
      "duration": 0.0158,
      "velocity": 96,
      "chip": "ym2612"
    },
    {
      "channel": 4,
      "note": 59,
      "start": 20.8508,
      "duration": 0.0159,
      "velocity": 100,
      "chip": "ym2612"
    },
    {
      "channel": 1,
      "note": 86,
      "start": 20.8519,
      "duration": 0.0159,
      "velocity": 87,
      "chip": "ym2612"
    },
    {
      "channel": 0,
      "note": 40,
      "start": 20.8619,
      "duration": 0.016,
      "velocity": 115,
      "chip": "ym2612"
    },
    {
      "channel": 5,
      "note": 86,
      "start": 20.8631,
      "duration": 0.0161,
      "velocity": 87,
      "chip": "ym2612"
    },
    {
      "channel": 3,
      "note": 78,
      "start": 20.8643,
      "duration": 0.0161,
      "velocity": 96,
      "chip": "ym2612"
    },
    {
      "channel": 2,
      "note": 71,
      "start": 20.8655,
      "duration": 0.016,
      "velocity": 96,
      "chip": "ym2612"
    },
    {
      "channel": 4,
      "note": 59,
      "start": 20.8666,
      "duration": 0.016,
      "velocity": 100,
      "chip": "ym2612"
    },
    {
      "channel": 1,
      "note": 86,
      "start": 20.8678,
      "duration": 0.016,
      "velocity": 87,
      "chip": "ym2612"
    },
    {
      "channel": 0,
      "note": 40,
      "start": 20.8779,
      "duration": 0.0159,
      "velocity": 115,
      "chip": "ym2612"
    },
    {
      "channel": 5,
      "note": 86,
      "start": 20.8792,
      "duration": 0.0161,
      "velocity": 87,
      "chip": "ym2612"
    },
    {
      "channel": 3,
      "note": 78,
      "start": 20.8804,
      "duration": 0.0161,
      "velocity": 96,
      "chip": "ym2612"
    },
    {
      "channel": 2,
      "note": 71,
      "start": 20.8815,
      "duration": 0.0162,
      "velocity": 96,
      "chip": "ym2612"
    },
    {
      "channel": 4,
      "note": 59,
      "start": 20.8827,
      "duration": 0.0161,
      "velocity": 100,
      "chip": "ym2612"
    },
    {
      "channel": 1,
      "note": 86,
      "start": 20.8839,
      "duration": 0.0161,
      "velocity": 87,
      "chip": "ym2612"
    },
    {
      "channel": 0,
      "note": 40,
      "start": 20.8938,
      "duration": 0.0158,
      "velocity": 115,
      "chip": "ym2612"
    },
    {
      "channel": 5,
      "note": 86,
      "start": 20.8953,
      "duration": 0.016,
      "velocity": 87,
      "chip": "ym2612"
    },
    {
      "channel": 2,
      "note": 71,
      "start": 20.8977,
      "duration": 0.0163,
      "velocity": 96,
      "chip": "ym2612"
    },
    {
      "channel": 4,
      "note": 59,
      "start": 20.8988,
      "duration": 0.0163,
      "velocity": 100,
      "chip": "ym2612"
    },
    {
      "channel": 1,
      "note": 86,
      "start": 20.9,
      "duration": 0.0164,
      "velocity": 87,
      "chip": "ym2612"
    },
    {
      "channel": 0,
      "note": 41,
      "start": 20.9096,
      "duration": 0.0161,
      "velocity": 115,
      "chip": "ym2612"
    },
    {
      "channel": 5,
      "note": 86,
      "start": 20.9113,
      "duration": 0.0158,
      "velocity": 87,
      "chip": "ym2612"
    },
    {
      "channel": 3,
      "note": 71,
      "start": 20.9129,
      "duration": 0.0159,
      "velocity": 96,
      "chip": "ym2612"
    },
    {
      "channel": 2,
      "note": 71,
      "start": 20.914,
      "duration": 0.0159,
      "velocity": 96,
      "chip": "ym2612"
    },
    {
      "channel": 4,
      "note": 59,
      "start": 20.9151,
      "duration": 0.0159,
      "velocity": 100,
      "chip": "ym2612"
    },
    {
      "channel": 1,
      "note": 86,
      "start": 20.9164,
      "duration": 0.0158,
      "velocity": 87,
      "chip": "ym2612"
    },
    {
      "channel": 0,
      "note": 41,
      "start": 20.9257,
      "duration": 0.0161,
      "velocity": 115,
      "chip": "ym2612"
    },
    {
      "channel": 5,
      "note": 86,
      "start": 20.9271,
      "duration": 0.0159,
      "velocity": 87,
      "chip": "ym2612"
    },
    {
      "channel": 3,
      "note": 71,
      "start": 20.9287,
      "duration": 0.016,
      "velocity": 96,
      "chip": "ym2612"
    },
    {
      "channel": 2,
      "note": 71,
      "start": 20.9299,
      "duration": 0.016,
      "velocity": 96,
      "chip": "ym2612"
    },
    {
      "channel": 4,
      "note": 59,
      "start": 20.9311,
      "duration": 0.016,
      "velocity": 100,
      "chip": "ym2612"
    },
    {
      "channel": 1,
      "note": 86,
      "start": 20.9322,
      "duration": 0.0161,
      "velocity": 87,
      "chip": "ym2612"
    },
    {
      "channel": 0,
      "note": 42,
      "start": 20.9418,
      "duration": 0.018,
      "velocity": 127,
      "chip": "ym2612"
    },
    {
      "channel": 5,
      "note": 86,
      "start": 20.943,
      "duration": 0.0185,
      "velocity": 87,
      "chip": "ym2612"
    },
    {
      "channel": 3,
      "note": 71,
      "start": 20.9447,
      "duration": 0.018,
      "velocity": 96,
      "chip": "ym2612"
    },
    {
      "channel": 4,
      "note": 59,
      "start": 20.9471,
      "duration": 0.0183,
      "velocity": 100,
      "chip": "ym2612"
    },
    {
      "channel": 1,
      "note": 86,
      "start": 20.9483,
      "duration": 0.0183,
      "velocity": 87,
      "chip": "ym2612"
    },
    {
      "channel": 0,
      "note": 84,
      "start": 20.9598,
      "duration": 0.0142,
      "velocity": 127,
      "chip": "ym2612"
    },
    {
      "channel": 5,
      "note": 86,
      "start": 20.9615,
      "duration": 0.0137,
      "velocity": 87,
      "chip": "ym2612"
    },
    {
      "channel": 3,
      "note": 71,
      "start": 20.9627,
      "duration": 0.0137,
      "velocity": 96,
      "chip": "ym2612"
    },
    {
      "channel": 2,
      "note": 74,
      "start": 20.9642,
      "duration": 0.014,
      "velocity": 96,
      "chip": "ym2612"
    },
    {
      "channel": 4,
      "note": 59,
      "start": 20.9654,
      "duration": 0.0141,
      "velocity": 100,
      "chip": "ym2612"
    },
    {
      "channel": 1,
      "note": 85,
      "start": 20.9666,
      "duration": 0.014,
      "velocity": 87,
      "chip": "ym2612"
    },
    {
      "channel": 0,
      "note": 82,
      "start": 20.9741,
      "duration": 0.0161,
      "velocity": 127,
      "chip": "ym2612"
    },
    {
      "channel": 5,
      "note": 86,
      "start": 20.9753,
      "duration": 0.016,
      "velocity": 87,
      "chip": "ym2612"
    },
    {
      "channel": 3,
      "note": 71,
      "start": 20.9764,
      "duration": 0.016,
      "velocity": 96,
      "chip": "ym2612"
    },
    {
      "channel": 2,
      "note": 74,
      "start": 20.9782,
      "duration": 0.0157,
      "velocity": 96,
      "chip": "ym2612"
    },
    {
      "channel": 4,
      "note": 59,
      "start": 20.9794,
      "duration": 0.016,
      "velocity": 100,
      "chip": "ym2612"
    },
    {
      "channel": 1,
      "note": 86,
      "start": 20.9806,
      "duration": 0.016,
      "velocity": 87,
      "chip": "ym2612"
    },
    {
      "channel": 0,
      "note": 81,
      "start": 20.9902,
      "duration": 0.0161,
      "velocity": 127,
      "chip": "ym2612"
    },
    {
      "channel": 5,
      "note": 86,
      "start": 20.9913,
      "duration": 0.0161,
      "velocity": 87,
      "chip": "ym2612"
    },
    {
      "channel": 3,
      "note": 71,
      "start": 20.9924,
      "duration": 0.0161,
      "velocity": 96,
      "chip": "ym2612"
    },
    {
      "channel": 2,
      "note": 74,
      "start": 20.9939,
      "duration": 0.0159,
      "velocity": 96,
      "chip": "ym2612"
    },
    {
      "channel": 4,
      "note": 59,
      "start": 20.9954,
      "duration": 0.016,
      "velocity": 100,
      "chip": "ym2612"
    },
    {
      "channel": 1,
      "note": 86,
      "start": 20.9966,
      "duration": 0.0161,
      "velocity": 87,
      "chip": "ym2612"
    },
    {
      "channel": 0,
      "note": 79,
      "start": 21.0063,
      "duration": 0.0161,
      "velocity": 127,
      "chip": "ym2612"
    },
    {
      "channel": 5,
      "note": 86,
      "start": 21.0074,
      "duration": 0.0161,
      "velocity": 87,
      "chip": "ym2612"
    },
    {
      "channel": 2,
      "note": 74,
      "start": 21.0098,
      "duration": 0.0163,
      "velocity": 96,
      "chip": "ym2612"
    },
    {
      "channel": 4,
      "note": 59,
      "start": 21.0114,
      "duration": 0.0164,
      "velocity": 100,
      "chip": "ym2612"
    },
    {
      "channel": 1,
      "note": 86,
      "start": 21.0127,
      "duration": 0.0164,
      "velocity": 87,
      "chip": "ym2612"
    },
    {
      "channel": 0,
      "note": 77,
      "start": 21.0223,
      "duration": 0.0161,
      "velocity": 127,
      "chip": "ym2612"
    },
    {
      "channel": 5,
      "note": 86,
      "start": 21.0235,
      "duration": 0.0161,
      "velocity": 87,
      "chip": "ym2612"
    },
    {
      "channel": 3,
      "note": 74,
      "start": 21.0249,
      "duration": 0.0159,
      "velocity": 96,
      "chip": "ym2612"
    },
    {
      "channel": 2,
      "note": 74,
      "start": 21.0261,
      "duration": 0.0159,
      "velocity": 96,
      "chip": "ym2612"
    },
    {
      "channel": 4,
      "note": 59,
      "start": 21.0278,
      "duration": 0.0153,
      "velocity": 100,
      "chip": "ym2612"
    },
    {
      "channel": 1,
      "note": 86,
      "start": 21.0292,
      "duration": 0.0158,
      "velocity": 87,
      "chip": "ym2612"
    },
    {
      "channel": 0,
      "note": 76,
      "start": 21.0384,
      "duration": 0.0161,
      "velocity": 127,
      "chip": "ym2612"
    },
    {
      "channel": 5,
      "note": 86,
      "start": 21.0396,
      "duration": 0.0161,
      "velocity": 87,
      "chip": "ym2612"
    },
    {
      "channel": 3,
      "note": 74,
      "start": 21.0409,
      "duration": 0.0161,
      "velocity": 96,
      "chip": "ym2612"
    },
    {
      "channel": 2,
      "note": 74,
      "start": 21.042,
      "duration": 0.0161,
      "velocity": 96,
      "chip": "ym2612"
    },
    {
      "channel": 4,
      "note": 59,
      "start": 21.0432,
      "duration": 0.0161,
      "velocity": 100,
      "chip": "ym2612"
    },
    {
      "channel": 0,
      "note": 74,
      "start": 21.0545,
      "duration": 0.0161,
      "velocity": 127,
      "chip": "ym2612"
    },
    {
      "channel": 5,
      "note": 86,
      "start": 21.0557,
      "duration": 0.0161,
      "velocity": 87,
      "chip": "ym2612"
    },
    {
      "channel": 3,
      "note": 74,
      "start": 21.057,
      "duration": 0.0161,
      "velocity": 96,
      "chip": "ym2612"
    },
    {
      "channel": 4,
      "note": 59,
      "start": 21.0593,
      "duration": 0.0167,
      "velocity": 100,
      "chip": "ym2612"
    },
    {
      "channel": 0,
      "note": 72,
      "start": 21.0706,
      "duration": 0.0161,
      "velocity": 127,
      "chip": "ym2612"
    },
    {
      "channel": 5,
      "note": 86,
      "start": 21.0718,
      "duration": 0.0161,
      "velocity": 87,
      "chip": "ym2612"
    },
    {
      "channel": 3,
      "note": 74,
      "start": 21.073,
      "duration": 0.0161,
      "velocity": 96,
      "chip": "ym2612"
    },
    {
      "channel": 2,
      "note": 78,
      "start": 21.0745,
      "duration": 0.0158,
      "velocity": 96,
      "chip": "ym2612"
    },
    {
      "channel": 4,
      "note": 54,
      "start": 21.0759,
      "duration": 0.0156,
      "velocity": 100,
      "chip": "ym2612"
    },
    {
      "channel": 1,
      "note": 83,
      "start": 21.078,
      "duration": 0.0148,
      "velocity": 87,
      "chip": "ym2612"
    },
    {
      "channel": 0,
      "note": 71,
      "start": 21.0867,
      "duration": 0.0161,
      "velocity": 127,
      "chip": "ym2612"
    },
    {
      "channel": 5,
      "note": 86,
      "start": 21.0879,
      "duration": 0.0161,
      "velocity": 87,
      "chip": "ym2612"
    },
    {
      "channel": 3,
      "note": 74,
      "start": 21.0891,
      "duration": 0.0161,
      "velocity": 96,
      "chip": "ym2612"
    },
    {
      "channel": 2,
      "note": 78,
      "start": 21.0903,
      "duration": 0.016,
      "velocity": 96,
      "chip": "ym2612"
    },
    {
      "channel": 4,
      "note": 54,
      "start": 21.0916,
      "duration": 0.016,
      "velocity": 100,
      "chip": "ym2612"
    },
    {
      "channel": 1,
      "note": 83,
      "start": 21.0928,
      "duration": 0.0158,
      "velocity": 87,
      "chip": "ym2612"
    },
    {
      "channel": 0,
      "note": 69,
      "start": 21.1028,
      "duration": 0.0161,
      "velocity": 127,
      "chip": "ym2612"
    },
    {
      "channel": 5,
      "note": 86,
      "start": 21.104,
      "duration": 0.0161,
      "velocity": 87,
      "chip": "ym2612"
    },
    {
      "channel": 3,
      "note": 74,
      "start": 21.1052,
      "duration": 0.0161,
      "velocity": 96,
      "chip": "ym2612"
    },
    {
      "channel": 2,
      "note": 78,
      "start": 21.1064,
      "duration": 0.0161,
      "velocity": 96,
      "chip": "ym2612"
    },
    {
      "channel": 4,
      "note": 54,
      "start": 21.1075,
      "duration": 0.0161,
      "velocity": 100,
      "chip": "ym2612"
    },
    {
      "channel": 1,
      "note": 83,
      "start": 21.1087,
      "duration": 0.0162,
      "velocity": 87,
      "chip": "ym2612"
    },
    {
      "channel": 0,
      "note": 67,
      "start": 21.1189,
      "duration": 0.0161,
      "velocity": 127,
      "chip": "ym2612"
    },
    {
      "channel": 5,
      "note": 86,
      "start": 21.1201,
      "duration": 0.0161,
      "velocity": 87,
      "chip": "ym2612"
    },
    {
      "channel": 2,
      "note": 78,
      "start": 21.1225,
      "duration": 0.0164,
      "velocity": 96,
      "chip": "ym2612"
    },
    {
      "channel": 4,
      "note": 54,
      "start": 21.1236,
      "duration": 0.0164,
      "velocity": 100,
      "chip": "ym2612"
    },
    {
      "channel": 1,
      "note": 83,
      "start": 21.1248,
      "duration": 0.0163,
      "velocity": 87,
      "chip": "ym2612"
    },
    {
      "channel": 0,
      "note": 66,
      "start": 21.1351,
      "duration": 0.0161,
      "velocity": 127,
      "chip": "ym2612"
    },
    {
      "channel": 5,
      "note": 86,
      "start": 21.1362,
      "duration": 0.0162,
      "velocity": 87,
      "chip": "ym2612"
    },
    {
      "channel": 3,
      "note": 78,
      "start": 21.1377,
      "duration": 0.016,
      "velocity": 96,
      "chip": "ym2612"
    },
    {
      "channel": 2,
      "note": 78,
      "start": 21.1389,
      "duration": 0.0159,
      "velocity": 96,
      "chip": "ym2612"
    },
    {
      "channel": 4,
      "note": 54,
      "start": 21.14,
      "duration": 0.0159,
      "velocity": 100,
      "chip": "ym2612"
    },
    {
      "channel": 1,
      "note": 83,
      "start": 21.1412,
      "duration": 0.016,
      "velocity": 87,
      "chip": "ym2612"
    },
    {
      "channel": 0,
      "note": 64,
      "start": 21.1512,
      "duration": 0.0161,
      "velocity": 127,
      "chip": "ym2612"
    },
    {
      "channel": 5,
      "note": 86,
      "start": 21.1524,
      "duration": 0.016,
      "velocity": 87,
      "chip": "ym2612"
    },
    {
      "channel": 3,
      "note": 78,
      "start": 21.1537,
      "duration": 0.016,
      "velocity": 96,
      "chip": "ym2612"
    },
    {
      "channel": 2,
      "note": 78,
      "start": 21.1548,
      "duration": 0.016,
      "velocity": 96,
      "chip": "ym2612"
    },
    {
      "channel": 4,
      "note": 54,
      "start": 21.1559,
      "duration": 0.016,
      "velocity": 100,
      "chip": "ym2612"
    },
    {
      "channel": 0,
      "note": 62,
      "start": 21.1673,
      "duration": 0.0179,
      "velocity": 127,
      "chip": "ym2612"
    },
    {
      "channel": 5,
      "note": 86,
      "start": 21.1685,
      "duration": 0.0181,
      "velocity": 87,
      "chip": "ym2612"
    },
    {
      "channel": 3,
      "note": 78,
      "start": 21.1697,
      "duration": 0.018,
      "velocity": 96,
      "chip": "ym2612"
    },
    {
      "channel": 4,
      "note": 54,
      "start": 21.172,
      "duration": 0.0185,
      "velocity": 100,
      "chip": "ym2612"
    },
    {
      "channel": 0,
      "note": 84,
      "start": 21.1853,
      "duration": 0.0142,
      "velocity": 127,
      "chip": "ym2612"
    },
    {
      "channel": 5,
      "note": 86,
      "start": 21.1865,
      "duration": 0.0142,
      "velocity": 87,
      "chip": "ym2612"
    },
    {
      "channel": 3,
      "note": 78,
      "start": 21.1877,
      "duration": 0.0143,
      "velocity": 96,
      "chip": "ym2612"
    },
    {
      "channel": 4,
      "note": 54,
      "start": 21.1905,
      "duration": 0.0139,
      "velocity": 100,
      "chip": "ym2612"
    },
    {
      "channel": 1,
      "note": 85,
      "start": 21.192,
      "duration": 0.0136,
      "velocity": 87,
      "chip": "ym2612"
    },
    {
      "channel": 0,
      "note": 82,
      "start": 21.1995,
      "duration": 0.016,
      "velocity": 127,
      "chip": "ym2612"
    },
    {
      "channel": 5,
      "note": 86,
      "start": 21.2008,
      "duration": 0.016,
      "velocity": 87,
      "chip": "ym2612"
    },
    {
      "channel": 3,
      "note": 78,
      "start": 21.2019,
      "duration": 0.0161,
      "velocity": 96,
      "chip": "ym2612"
    },
    {
      "channel": 4,
      "note": 54,
      "start": 21.2044,
      "duration": 0.016,
      "velocity": 100,
      "chip": "ym2612"
    },
    {
      "channel": 1,
      "note": 85,
      "start": 21.2056,
      "duration": 0.016,
      "velocity": 87,
      "chip": "ym2612"
    },
    {
      "channel": 0,
      "note": 81,
      "start": 21.2155,
      "duration": 0.0161,
      "velocity": 127,
      "chip": "ym2612"
    },
    {
      "channel": 5,
      "note": 86,
      "start": 21.2168,
      "duration": 0.016,
      "velocity": 87,
      "chip": "ym2612"
    },
    {
      "channel": 3,
      "note": 78,
      "start": 21.218,
      "duration": 0.016,
      "velocity": 96,
      "chip": "ym2612"
    },
    {
      "channel": 4,
      "note": 54,
      "start": 21.2204,
      "duration": 0.0161,
      "velocity": 100,
      "chip": "ym2612"
    },
    {
      "channel": 1,
      "note": 85,
      "start": 21.2216,
      "duration": 0.016,
      "velocity": 87,
      "chip": "ym2612"
    },
    {
      "channel": 0,
      "note": 79,
      "start": 21.2316,
      "duration": 0.0161,
      "velocity": 127,
      "chip": "ym2612"
    },
    {
      "channel": 4,
      "note": 54,
      "start": 21.2365,
      "duration": 0.0161,
      "velocity": 100,
      "chip": "ym2612"
    },
    {
      "channel": 1,
      "note": 85,
      "start": 21.2376,
      "duration": 0.0161,
      "velocity": 87,
      "chip": "ym2612"
    },
    {
      "channel": 0,
      "note": 77,
      "start": 21.2477,
      "duration": 0.0161,
      "velocity": 127,
      "chip": "ym2612"
    },
    {
      "channel": 4,
      "note": 54,
      "start": 21.2526,
      "duration": 0.0163,
      "velocity": 100,
      "chip": "ym2612"
    },
    {
      "channel": 1,
      "note": 85,
      "start": 21.2538,
      "duration": 0.0163,
      "velocity": 87,
      "chip": "ym2612"
    },
    {
      "channel": 0,
      "note": 76,
      "start": 21.2638,
      "duration": 0.0162,
      "velocity": 127,
      "chip": "ym2612"
    },
    {
      "channel": 5,
      "note": 83,
      "start": 21.2654,
      "duration": 0.0159,
      "velocity": 87,
      "chip": "ym2612"
    },
    {
      "channel": 4,
      "note": 54,
      "start": 21.2689,
      "duration": 0.0159,
      "velocity": 100,
      "chip": "ym2612"
    },
    {
      "channel": 1,
      "note": 85,
      "start": 21.2701,
      "duration": 0.0159,
      "velocity": 87,
      "chip": "ym2612"
    },
    {
      "channel": 0,
      "note": 74,
      "start": 21.28,
      "duration": 0.0182,
      "velocity": 127,
      "chip": "ym2612"
    },
    {
      "channel": 5,
      "note": 83,
      "start": 21.2812,
      "duration": 0.0182,
      "velocity": 87,
      "chip": "ym2612"
    },
    {
      "channel": 4,
      "note": 54,
      "start": 21.2848,
      "duration": 0.0185,
      "velocity": 100,
      "chip": "ym2612"
    },
    {
      "channel": 1,
      "note": 85,
      "start": 21.286,
      "duration": 0.0185,
      "velocity": 87,
      "chip": "ym2612"
    },
    {
      "channel": 0,
      "note": 84,
      "start": 21.2983,
      "duration": 0.0144,
      "velocity": 127,
      "chip": "ym2612"
    },
    {
      "channel": 5,
      "note": 83,
      "start": 21.2994,
      "duration": 0.0145,
      "velocity": 87,
      "chip": "ym2612"
    },
    {
      "channel": 2,
      "note": 71,
      "start": 21.3021,
      "duration": 0.0142,
      "velocity": 96,
      "chip": "ym2612"
    },
    {
      "channel": 4,
      "note": 54,
      "start": 21.3033,
      "duration": 0.0142,
      "velocity": 100,
      "chip": "ym2612"
    },
    {
      "channel": 1,
      "note": 85,
      "start": 21.3045,
      "duration": 0.0142,
      "velocity": 87,
      "chip": "ym2612"
    },
    {
      "channel": 0,
      "note": 82,
      "start": 21.3127,
      "duration": 0.0161,
      "velocity": 127,
      "chip": "ym2612"
    },
    {
      "channel": 5,
      "note": 83,
      "start": 21.3139,
      "duration": 0.0161,
      "velocity": 87,
      "chip": "ym2612"
    },
    {
      "channel": 2,
      "note": 71,
      "start": 21.3163,
      "duration": 0.016,
      "velocity": 96,
      "chip": "ym2612"
    },
    {
      "channel": 4,
      "note": 54,
      "start": 21.3175,
      "duration": 0.016,
      "velocity": 100,
      "chip": "ym2612"
    },
    {
      "channel": 1,
      "note": 85,
      "start": 21.3187,
      "duration": 0.0161,
      "velocity": 87,
      "chip": "ym2612"
    },
    {
      "channel": 0,
      "note": 81,
      "start": 21.3288,
      "duration": 0.016,
      "velocity": 127,
      "chip": "ym2612"
    },
    {
      "channel": 5,
      "note": 83,
      "start": 21.33,
      "duration": 0.0161,
      "velocity": 87,
      "chip": "ym2612"
    },
    {
      "channel": 2,
      "note": 71,
      "start": 21.3323,
      "duration": 0.0161,
      "velocity": 96,
      "chip": "ym2612"
    },
    {
      "channel": 4,
      "note": 54,
      "start": 21.3335,
      "duration": 0.0161,
      "velocity": 100,
      "chip": "ym2612"
    },
    {
      "channel": 1,
      "note": 85,
      "start": 21.3348,
      "duration": 0.016,
      "velocity": 87,
      "chip": "ym2612"
    },
    {
      "channel": 0,
      "note": 79,
      "start": 21.3449,
      "duration": 0.0162,
      "velocity": 127,
      "chip": "ym2612"
    },
    {
      "channel": 2,
      "note": 71,
      "start": 21.3485,
      "duration": 0.0163,
      "velocity": 96,
      "chip": "ym2612"
    },
    {
      "channel": 4,
      "note": 54,
      "start": 21.3496,
      "duration": 0.0163,
      "velocity": 100,
      "chip": "ym2612"
    },
    {
      "channel": 1,
      "note": 85,
      "start": 21.3508,
      "duration": 0.0164,
      "velocity": 87,
      "chip": "ym2612"
    },
    {
      "channel": 0,
      "note": 77,
      "start": 21.361,
      "duration": 0.0155,
      "velocity": 127,
      "chip": "ym2612"
    },
    {
      "channel": 3,
      "note": 71,
      "start": 21.3637,
      "duration": 0.0162,
      "velocity": 96,
      "chip": "ym2612"
    },
    {
      "channel": 2,
      "note": 71,
      "start": 21.3648,
      "duration": 0.0162,
      "velocity": 96,
      "chip": "ym2612"
    },
    {
      "channel": 4,
      "note": 54,
      "start": 21.366,
      "duration": 0.0162,
      "velocity": 100,
      "chip": "ym2612"
    },
    {
      "channel": 1,
      "note": 85,
      "start": 21.3673,
      "duration": 0.0162,
      "velocity": 87,
      "chip": "ym2612"
    },
    {
      "channel": 0,
      "note": 76,
      "start": 21.3766,
      "duration": 0.0161,
      "velocity": 127,
      "chip": "ym2612"
    },
    {
      "channel": 5,
      "note": 85,
      "start": 21.3787,
      "duration": 0.0157,
      "velocity": 87,
      "chip": "ym2612"
    },
    {
      "channel": 3,
      "note": 71,
      "start": 21.3799,
      "duration": 0.0157,
      "velocity": 96,
      "chip": "ym2612"
    },
    {
      "channel": 2,
      "note": 71,
      "start": 21.3811,
      "duration": 0.0158,
      "velocity": 96,
      "chip": "ym2612"
    },
    {
      "channel": 4,
      "note": 54,
      "start": 21.3822,
      "duration": 0.0158,
      "velocity": 100,
      "chip": "ym2612"
    },
    {
      "channel": 0,
      "note": 74,
      "start": 21.3926,
      "duration": 0.0185,
      "velocity": 127,
      "chip": "ym2612"
    },
    {
      "channel": 5,
      "note": 85,
      "start": 21.3944,
      "duration": 0.018,
      "velocity": 87,
      "chip": "ym2612"
    },
    {
      "channel": 3,
      "note": 71,
      "start": 21.3956,
      "duration": 0.018,
      "velocity": 96,
      "chip": "ym2612"
    },
    {
      "channel": 4,
      "note": 54,
      "start": 21.398,
      "duration": 0.0183,
      "velocity": 100,
      "chip": "ym2612"
    },
    {
      "channel": 0,
      "note": 78,
      "start": 21.4112,
      "duration": 0.0137,
      "velocity": 127,
      "chip": "ym2612"
    },
    {
      "channel": 5,
      "note": 85,
      "start": 21.4124,
      "duration": 0.0137,
      "velocity": 87,
      "chip": "ym2612"
    },
    {
      "channel": 3,
      "note": 71,
      "start": 21.4136,
      "duration": 0.0142,
      "velocity": 96,
      "chip": "ym2612"
    },
    {
      "channel": 4,
      "note": 59,
      "start": 21.4164,
      "duration": 0.0139,
      "velocity": 100,
      "chip": "ym2612"
    },
    {
      "channel": 1,
      "note": 86,
      "start": 21.4178,
      "duration": 0.0137,
      "velocity": 87,
      "chip": "ym2612"
    },
    {
      "channel": 0,
      "note": 76,
      "start": 21.4249,
      "duration": 0.016,
      "velocity": 127,
      "chip": "ym2612"
    },
    {
      "channel": 5,
      "note": 85,
      "start": 21.4261,
      "duration": 0.016,
      "velocity": 87,
      "chip": "ym2612"
    },
    {
      "channel": 3,
      "note": 71,
      "start": 21.4278,
      "duration": 0.0154,
      "velocity": 96,
      "chip": "ym2612"
    },
    {
      "channel": 4,
      "note": 59,
      "start": 21.4303,
      "duration": 0.016,
      "velocity": 100,
      "chip": "ym2612"
    },
    {
      "channel": 1,
      "note": 86,
      "start": 21.4316,
      "duration": 0.0159,
      "velocity": 87,
      "chip": "ym2612"
    },
    {
      "channel": 0,
      "note": 75,
      "start": 21.441,
      "duration": 0.0161,
      "velocity": 127,
      "chip": "ym2612"
    },
    {
      "channel": 5,
      "note": 85,
      "start": 21.4421,
      "duration": 0.0161,
      "velocity": 87,
      "chip": "ym2612"
    },
    {
      "channel": 3,
      "note": 71,
      "start": 21.4433,
      "duration": 0.0161,
      "velocity": 96,
      "chip": "ym2612"
    },
    {
      "channel": 4,
      "note": 59,
      "start": 21.4463,
      "duration": 0.0161,
      "velocity": 100,
      "chip": "ym2612"
    },
    {
      "channel": 1,
      "note": 86,
      "start": 21.4475,
      "duration": 0.0161,
      "velocity": 87,
      "chip": "ym2612"
    },
    {
      "channel": 0,
      "note": 73,
      "start": 21.4571,
      "duration": 0.0161,
      "velocity": 127,
      "chip": "ym2612"
    },
    {
      "channel": 5,
      "note": 85,
      "start": 21.4582,
      "duration": 0.0161,
      "velocity": 87,
      "chip": "ym2612"
    },
    {
      "channel": 4,
      "note": 59,
      "start": 21.4624,
      "duration": 0.0162,
      "velocity": 100,
      "chip": "ym2612"
    },
    {
      "channel": 1,
      "note": 86,
      "start": 21.4636,
      "duration": 0.0162,
      "velocity": 87,
      "chip": "ym2612"
    },
    {
      "channel": 0,
      "note": 71,
      "start": 21.4732,
      "duration": 0.0161,
      "velocity": 127,
      "chip": "ym2612"
    },
    {
      "channel": 5,
      "note": 85,
      "start": 21.4744,
      "duration": 0.0162,
      "velocity": 87,
      "chip": "ym2612"
    },
    {
      "channel": 4,
      "note": 59,
      "start": 21.4786,
      "duration": 0.016,
      "velocity": 100,
      "chip": "ym2612"
    },
    {
      "channel": 1,
      "note": 86,
      "start": 21.4798,
      "duration": 0.016,
      "velocity": 87,
      "chip": "ym2612"
    },
    {
      "channel": 0,
      "note": 70,
      "start": 21.4893,
      "duration": 0.0161,
      "velocity": 127,
      "chip": "ym2612"
    },
    {
      "channel": 5,
      "note": 85,
      "start": 21.4905,
      "duration": 0.016,
      "velocity": 87,
      "chip": "ym2612"
    },
    {
      "channel": 4,
      "note": 59,
      "start": 21.4946,
      "duration": 0.0158,
      "velocity": 100,
      "chip": "ym2612"
    },
    {
      "channel": 1,
      "note": 86,
      "start": 21.4958,
      "duration": 0.0161,
      "velocity": 87,
      "chip": "ym2612"
    },
    {
      "channel": 0,
      "note": 68,
      "start": 21.5054,
      "duration": 0.0161,
      "velocity": 127,
      "chip": "ym2612"
    },
    {
      "channel": 5,
      "note": 85,
      "start": 21.5066,
      "duration": 0.0161,
      "velocity": 87,
      "chip": "ym2612"
    },
    {
      "channel": 4,
      "note": 59,
      "start": 21.5104,
      "duration": 0.0162,
      "velocity": 100,
      "chip": "ym2612"
    },
    {
      "channel": 1,
      "note": 86,
      "start": 21.5119,
      "duration": 0.0165,
      "velocity": 87,
      "chip": "ym2612"
    },
    {
      "channel": 0,
      "note": 66,
      "start": 21.5215,
      "duration": 0.0161,
      "velocity": 127,
      "chip": "ym2612"
    },
    {
      "channel": 5,
      "note": 85,
      "start": 21.5227,
      "duration": 0.0161,
      "velocity": 87,
      "chip": "ym2612"
    },
    {
      "channel": 2,
      "note": 74,
      "start": 21.5253,
      "duration": 0.0159,
      "velocity": 96,
      "chip": "ym2612"
    },
    {
      "channel": 4,
      "note": 59,
      "start": 21.5266,
      "duration": 0.0158,
      "velocity": 100,
      "chip": "ym2612"
    },
    {
      "channel": 1,
      "note": 86,
      "start": 21.5284,
      "duration": 0.0154,
      "velocity": 87,
      "chip": "ym2612"
    },
    {
      "channel": 0,
      "note": 65,
      "start": 21.5376,
      "duration": 0.0161,
      "velocity": 127,
      "chip": "ym2612"
    },
    {
      "channel": 5,
      "note": 85,
      "start": 21.5388,
      "duration": 0.0162,
      "velocity": 87,
      "chip": "ym2612"
    },
    {
      "channel": 2,
      "note": 74,
      "start": 21.5412,
      "duration": 0.016,
      "velocity": 96,
      "chip": "ym2612"
    },
    {
      "channel": 4,
      "note": 59,
      "start": 21.5424,
      "duration": 0.016,
      "velocity": 100,
      "chip": "ym2612"
    },
    {
      "channel": 1,
      "note": 86,
      "start": 21.5438,
      "duration": 0.0159,
      "velocity": 87,
      "chip": "ym2612"
    },
    {
      "channel": 0,
      "note": 63,
      "start": 21.5537,
      "duration": 0.0161,
      "velocity": 127,
      "chip": "ym2612"
    },
    {
      "channel": 5,
      "note": 85,
      "start": 21.5549,
      "duration": 0.016,
      "velocity": 87,
      "chip": "ym2612"
    },
    {
      "channel": 2,
      "note": 74,
      "start": 21.5572,
      "duration": 0.0161,
      "velocity": 96,
      "chip": "ym2612"
    },
    {
      "channel": 4,
      "note": 59,
      "start": 21.5584,
      "duration": 0.016,
      "velocity": 100,
      "chip": "ym2612"
    },
    {
      "channel": 1,
      "note": 86,
      "start": 21.5597,
      "duration": 0.016,
      "velocity": 87,
      "chip": "ym2612"
    },
    {
      "channel": 0,
      "note": 61,
      "start": 21.5697,
      "duration": 0.0162,
      "velocity": 127,
      "chip": "ym2612"
    },
    {
      "channel": 2,
      "note": 74,
      "start": 21.5733,
      "duration": 0.0163,
      "velocity": 96,
      "chip": "ym2612"
    },
    {
      "channel": 4,
      "note": 59,
      "start": 21.5744,
      "duration": 0.0163,
      "velocity": 100,
      "chip": "ym2612"
    },
    {
      "channel": 1,
      "note": 86,
      "start": 21.5756,
      "duration": 0.0164,
      "velocity": 87,
      "chip": "ym2612"
    },
    {
      "channel": 0,
      "note": 60,
      "start": 21.5859,
      "duration": 0.0161,
      "velocity": 127,
      "chip": "ym2612"
    },
    {
      "channel": 3,
      "note": 74,
      "start": 21.5885,
      "duration": 0.0162,
      "velocity": 96,
      "chip": "ym2612"
    },
    {
      "channel": 2,
      "note": 74,
      "start": 21.5896,
      "duration": 0.0162,
      "velocity": 96,
      "chip": "ym2612"
    },
    {
      "channel": 4,
      "note": 59,
      "start": 21.5908,
      "duration": 0.0162,
      "velocity": 100,
      "chip": "ym2612"
    },
    {
      "channel": 1,
      "note": 86,
      "start": 21.5921,
      "duration": 0.0161,
      "velocity": 87,
      "chip": "ym2612"
    },
    {
      "channel": 0,
      "note": 58,
      "start": 21.602,
      "duration": 0.0161,
      "velocity": 127,
      "chip": "ym2612"
    },
    {
      "channel": 5,
      "note": 86,
      "start": 21.6034,
      "duration": 0.0159,
      "velocity": 87,
      "chip": "ym2612"
    },
    {
      "channel": 3,
      "note": 74,
      "start": 21.6047,
      "duration": 0.0158,
      "velocity": 96,
      "chip": "ym2612"
    },
    {
      "channel": 2,
      "note": 74,
      "start": 21.6059,
      "duration": 0.0158,
      "velocity": 96,
      "chip": "ym2612"
    },
    {
      "channel": 4,
      "note": 59,
      "start": 21.607,
      "duration": 0.0158,
      "velocity": 100,
      "chip": "ym2612"
    },
    {
      "channel": 0,
      "note": 56,
      "start": 21.6181,
      "duration": 0.018,
      "velocity": 115,
      "chip": "ym2612"
    },
    {
      "channel": 5,
      "note": 86,
      "start": 21.6193,
      "duration": 0.0179,
      "velocity": 87,
      "chip": "ym2612"
    },
    {
      "channel": 3,
      "note": 74,
      "start": 21.6204,
      "duration": 0.0179,
      "velocity": 96,
      "chip": "ym2612"
    },
    {
      "channel": 4,
      "note": 59,
      "start": 21.6228,
      "duration": 0.0186,
      "velocity": 100,
      "chip": "ym2612"
    },
    {
      "channel": 0,
      "note": 36,
      "start": 21.636,
      "duration": 0.0143,
      "velocity": 115,
      "chip": "ym2612"
    },
    {
      "channel": 5,
      "note": 86,
      "start": 21.6372,
      "duration": 0.0143,
      "velocity": 87,
      "chip": "ym2612"
    },
    {
      "channel": 3,
      "note": 74,
      "start": 21.6384,
      "duration": 0.0143,
      "velocity": 96,
      "chip": "ym2612"
    },
    {
      "channel": 2,
      "note": 76,
      "start": 21.6399,
      "duration": 0.014,
      "velocity": 96,
      "chip": "ym2612"
    },
    {
      "channel": 4,
      "note": 59,
      "start": 21.6414,
      "duration": 0.0137,
      "velocity": 100,
      "chip": "ym2612"
    },
    {
      "channel": 1,
      "note": 88,
      "start": 21.6429,
      "duration": 0.0134,
      "velocity": 87,
      "chip": "ym2612"
    },
    {
      "channel": 0,
      "note": 36,
      "start": 21.6503,
      "duration": 0.016,
      "velocity": 115,
      "chip": "ym2612"
    },
    {
      "channel": 5,
      "note": 86,
      "start": 21.6515,
      "duration": 0.016,
      "velocity": 87,
      "chip": "ym2612"
    },
    {
      "channel": 3,
      "note": 74,
      "start": 21.6527,
      "duration": 0.016,
      "velocity": 96,
      "chip": "ym2612"
    },
    {
      "channel": 2,
      "note": 76,
      "start": 21.6539,
      "duration": 0.016,
      "velocity": 96,
      "chip": "ym2612"
    },
    {
      "channel": 4,
      "note": 59,
      "start": 21.6551,
      "duration": 0.0159,
      "velocity": 100,
      "chip": "ym2612"
    },
    {
      "channel": 1,
      "note": 88,
      "start": 21.6564,
      "duration": 0.0159,
      "velocity": 87,
      "chip": "ym2612"
    },
    {
      "channel": 0,
      "note": 37,
      "start": 21.6664,
      "duration": 0.0161,
      "velocity": 115,
      "chip": "ym2612"
    },
    {
      "channel": 5,
      "note": 86,
      "start": 21.6676,
      "duration": 0.0161,
      "velocity": 87,
      "chip": "ym2612"
    },
    {
      "channel": 3,
      "note": 74,
      "start": 21.6687,
      "duration": 0.0161,
      "velocity": 96,
      "chip": "ym2612"
    },
    {
      "channel": 2,
      "note": 76,
      "start": 21.6699,
      "duration": 0.0161,
      "velocity": 96,
      "chip": "ym2612"
    },
    {
      "channel": 4,
      "note": 59,
      "start": 21.671,
      "duration": 0.0162,
      "velocity": 100,
      "chip": "ym2612"
    },
    {
      "channel": 1,
      "note": 88,
      "start": 21.6722,
      "duration": 0.0161,
      "velocity": 87,
      "chip": "ym2612"
    },
    {
      "channel": 0,
      "note": 37,
      "start": 21.6824,
      "duration": 0.0161,
      "velocity": 115,
      "chip": "ym2612"
    },
    {
      "channel": 5,
      "note": 86,
      "start": 21.6837,
      "duration": 0.0161,
      "velocity": 87,
      "chip": "ym2612"
    },
    {
      "channel": 2,
      "note": 76,
      "start": 21.686,
      "duration": 0.0165,
      "velocity": 96,
      "chip": "ym2612"
    },
    {
      "channel": 4,
      "note": 59,
      "start": 21.6872,
      "duration": 0.0164,
      "velocity": 100,
      "chip": "ym2612"
    },
    {
      "channel": 1,
      "note": 88,
      "start": 21.6883,
      "duration": 0.0165,
      "velocity": 87,
      "chip": "ym2612"
    },
    {
      "channel": 0,
      "note": 38,
      "start": 21.6985,
      "duration": 0.0162,
      "velocity": 115,
      "chip": "ym2612"
    },
    {
      "channel": 5,
      "note": 86,
      "start": 21.6998,
      "duration": 0.0161,
      "velocity": 87,
      "chip": "ym2612"
    },
    {
      "channel": 3,
      "note": 76,
      "start": 21.7013,
      "duration": 0.0159,
      "velocity": 96,
      "chip": "ym2612"
    },
    {
      "channel": 2,
      "note": 76,
      "start": 21.7024,
      "duration": 0.0159,
      "velocity": 96,
      "chip": "ym2612"
    },
    {
      "channel": 4,
      "note": 59,
      "start": 21.7036,
      "duration": 0.0159,
      "velocity": 100,
      "chip": "ym2612"
    },
    {
      "channel": 1,
      "note": 88,
      "start": 21.7048,
      "duration": 0.0159,
      "velocity": 87,
      "chip": "ym2612"
    },
    {
      "channel": 0,
      "note": 38,
      "start": 21.7147,
      "duration": 0.0161,
      "velocity": 115,
      "chip": "ym2612"
    },
    {
      "channel": 5,
      "note": 86,
      "start": 21.7159,
      "duration": 0.0161,
      "velocity": 87,
      "chip": "ym2612"
    },
    {
      "channel": 3,
      "note": 76,
      "start": 21.7172,
      "duration": 0.016,
      "velocity": 96,
      "chip": "ym2612"
    },
    {
      "channel": 2,
      "note": 76,
      "start": 21.7183,
      "duration": 0.016,
      "velocity": 96,
      "chip": "ym2612"
    },
    {
      "channel": 4,
      "note": 59,
      "start": 21.7195,
      "duration": 0.016,
      "velocity": 100,
      "chip": "ym2612"
    },
    {
      "channel": 1,
      "note": 88,
      "start": 21.7206,
      "duration": 0.016,
      "velocity": 87,
      "chip": "ym2612"
    },
    {
      "channel": 0,
      "note": 39,
      "start": 21.7308,
      "duration": 0.0161,
      "velocity": 115,
      "chip": "ym2612"
    },
    {
      "channel": 5,
      "note": 86,
      "start": 21.732,
      "duration": 0.0161,
      "velocity": 87,
      "chip": "ym2612"
    },
    {
      "channel": 3,
      "note": 76,
      "start": 21.7332,
      "duration": 0.0162,
      "velocity": 96,
      "chip": "ym2612"
    },
    {
      "channel": 4,
      "note": 59,
      "start": 21.7355,
      "duration": 0.0164,
      "velocity": 100,
      "chip": "ym2612"
    },
    {
      "channel": 1,
      "note": 88,
      "start": 21.7367,
      "duration": 0.0164,
      "velocity": 87,
      "chip": "ym2612"
    },
    {
      "channel": 0,
      "note": 39,
      "start": 21.747,
      "duration": 0.0161,
      "velocity": 115,
      "chip": "ym2612"
    },
    {
      "channel": 5,
      "note": 86,
      "start": 21.7482,
      "duration": 0.0161,
      "velocity": 87,
      "chip": "ym2612"
    },
    {
      "channel": 3,
      "note": 76,
      "start": 21.7493,
      "duration": 0.0161,
      "velocity": 96,
      "chip": "ym2612"
    },
    {
      "channel": 2,
      "note": 68,
      "start": 21.7508,
      "duration": 0.0159,
      "velocity": 96,
      "chip": "ym2612"
    },
    {
      "channel": 4,
      "note": 59,
      "start": 21.7519,
      "duration": 0.0159,
      "velocity": 100,
      "chip": "ym2612"
    },
    {
      "channel": 1,
      "note": 88,
      "start": 21.7531,
      "duration": 0.0159,
      "velocity": 87,
      "chip": "ym2612"
    },
    {
      "channel": 0,
      "note": 40,
      "start": 21.7631,
      "duration": 0.0164,
      "velocity": 115,
      "chip": "ym2612"
    },
    {
      "channel": 5,
      "note": 86,
      "start": 21.7643,
      "duration": 0.0165,
      "velocity": 87,
      "chip": "ym2612"
    },
    {
      "channel": 3,
      "note": 76,
      "start": 21.7654,
      "duration": 0.0165,
      "velocity": 96,
      "chip": "ym2612"
    },
    {
      "channel": 2,
      "note": 68,
      "start": 21.7666,
      "duration": 0.0164,
      "velocity": 96,
      "chip": "ym2612"
    },
    {
      "channel": 4,
      "note": 59,
      "start": 21.7678,
      "duration": 0.0163,
      "velocity": 100,
      "chip": "ym2612"
    },
    {
      "channel": 1,
      "note": 88,
      "start": 21.769,
      "duration": 0.0164,
      "velocity": 87,
      "chip": "ym2612"
    },
    {
      "channel": 0,
      "note": 40,
      "start": 21.7795,
      "duration": 0.0163,
      "velocity": 115,
      "chip": "ym2612"
    },
    {
      "channel": 5,
      "note": 86,
      "start": 21.7807,
      "duration": 0.0162,
      "velocity": 87,
      "chip": "ym2612"
    },
    {
      "channel": 3,
      "note": 76,
      "start": 21.7819,
      "duration": 0.0163,
      "velocity": 96,
      "chip": "ym2612"
    },
    {
      "channel": 2,
      "note": 68,
      "start": 21.783,
      "duration": 0.0163,
      "velocity": 96,
      "chip": "ym2612"
    },
    {
      "channel": 4,
      "note": 59,
      "start": 21.7842,
      "duration": 0.0163,
      "velocity": 100,
      "chip": "ym2612"
    },
    {
      "channel": 1,
      "note": 88,
      "start": 21.7854,
      "duration": 0.0163,
      "velocity": 87,
      "chip": "ym2612"
    },
    {
      "channel": 0,
      "note": 40,
      "start": 21.7958,
      "duration": 0.0161,
      "velocity": 115,
      "chip": "ym2612"
    },
    {
      "channel": 2,
      "note": 68,
      "start": 21.7993,
      "duration": 0.0163,
      "velocity": 96,
      "chip": "ym2612"
    },
    {
      "channel": 4,
      "note": 59,
      "start": 21.8005,
      "duration": 0.0163,
      "velocity": 100,
      "chip": "ym2612"
    },
    {
      "channel": 1,
      "note": 88,
      "start": 21.8017,
      "duration": 0.0163,
      "velocity": 87,
      "chip": "ym2612"
    },
    {
      "channel": 0,
      "note": 41,
      "start": 21.8119,
      "duration": 0.016,
      "velocity": 115,
      "chip": "ym2612"
    },
    {
      "channel": 3,
      "note": 68,
      "start": 21.8145,
      "duration": 0.0162,
      "velocity": 96,
      "chip": "ym2612"
    },
    {
      "channel": 2,
      "note": 68,
      "start": 21.8157,
      "duration": 0.0162,
      "velocity": 96,
      "chip": "ym2612"
    },
    {
      "channel": 4,
      "note": 59,
      "start": 21.8168,
      "duration": 0.0162,
      "velocity": 100,
      "chip": "ym2612"
    },
    {
      "channel": 1,
      "note": 88,
      "start": 21.818,
      "duration": 0.0161,
      "velocity": 87,
      "chip": "ym2612"
    },
    {
      "channel": 0,
      "note": 41,
      "start": 21.8279,
      "duration": 0.0158,
      "velocity": 115,
      "chip": "ym2612"
    },
    {
      "channel": 5,
      "note": 88,
      "start": 21.8295,
      "duration": 0.0158,
      "velocity": 87,
      "chip": "ym2612"
    },
    {
      "channel": 3,
      "note": 68,
      "start": 21.8307,
      "duration": 0.0157,
      "velocity": 96,
      "chip": "ym2612"
    },
    {
      "channel": 2,
      "note": 68,
      "start": 21.8319,
      "duration": 0.0158,
      "velocity": 96,
      "chip": "ym2612"
    },
    {
      "channel": 4,
      "note": 59,
      "start": 21.833,
      "duration": 0.0158,
      "velocity": 100,
      "chip": "ym2612"
    },
    {
      "channel": 1,
      "note": 88,
      "start": 21.8342,
      "duration": 0.0158,
      "velocity": 87,
      "chip": "ym2612"
    },
    {
      "channel": 0,
      "note": 42,
      "start": 21.8437,
      "duration": 0.0159,
      "velocity": 115,
      "chip": "ym2612"
    },
    {
      "channel": 5,
      "note": 88,
      "start": 21.8453,
      "duration": 0.016,
      "velocity": 87,
      "chip": "ym2612"
    },
    {
      "channel": 3,
      "note": 68,
      "start": 21.8465,
      "duration": 0.0161,
      "velocity": 96,
      "chip": "ym2612"
    },
    {
      "channel": 4,
      "note": 59,
      "start": 21.8488,
      "duration": 0.0163,
      "velocity": 100,
      "chip": "ym2612"
    },
    {
      "channel": 1,
      "note": 88,
      "start": 21.85,
      "duration": 0.0163,
      "velocity": 87,
      "chip": "ym2612"
    },
    {
      "channel": 0,
      "note": 42,
      "start": 21.8596,
      "duration": 0.0161,
      "velocity": 115,
      "chip": "ym2612"
    },
    {
      "channel": 5,
      "note": 88,
      "start": 21.8613,
      "duration": 0.0158,
      "velocity": 87,
      "chip": "ym2612"
    },
    {
      "channel": 3,
      "note": 68,
      "start": 21.8625,
      "duration": 0.0161,
      "velocity": 96,
      "chip": "ym2612"
    },
    {
      "channel": 2,
      "note": 71,
      "start": 21.864,
      "duration": 0.0158,
      "velocity": 96,
      "chip": "ym2612"
    },
    {
      "channel": 4,
      "note": 59,
      "start": 21.8651,
      "duration": 0.0159,
      "velocity": 100,
      "chip": "ym2612"
    },
    {
      "channel": 1,
      "note": 88,
      "start": 21.8663,
      "duration": 0.0159,
      "velocity": 87,
      "chip": "ym2612"
    },
    {
      "channel": 0,
      "note": 43,
      "start": 21.8757,
      "duration": 0.0161,
      "velocity": 115,
      "chip": "ym2612"
    },
    {
      "channel": 5,
      "note": 88,
      "start": 21.8771,
      "duration": 0.0159,
      "velocity": 87,
      "chip": "ym2612"
    },
    {
      "channel": 3,
      "note": 68,
      "start": 21.8786,
      "duration": 0.016,
      "velocity": 96,
      "chip": "ym2612"
    },
    {
      "channel": 2,
      "note": 71,
      "start": 21.8798,
      "duration": 0.016,
      "velocity": 96,
      "chip": "ym2612"
    },
    {
      "channel": 4,
      "note": 59,
      "start": 21.881,
      "duration": 0.016,
      "velocity": 100,
      "chip": "ym2612"
    },
    {
      "channel": 1,
      "note": 88,
      "start": 21.8822,
      "duration": 0.016,
      "velocity": 87,
      "chip": "ym2612"
    },
    {
      "channel": 0,
      "note": 43,
      "start": 21.8918,
      "duration": 0.0161,
      "velocity": 115,
      "chip": "ym2612"
    },
    {
      "channel": 5,
      "note": 88,
      "start": 21.8929,
      "duration": 0.0161,
      "velocity": 87,
      "chip": "ym2612"
    },
    {
      "channel": 3,
      "note": 68,
      "start": 21.8947,
      "duration": 0.0158,
      "velocity": 96,
      "chip": "ym2612"
    },
    {
      "channel": 2,
      "note": 71,
      "start": 21.8959,
      "duration": 0.0161,
      "velocity": 96,
      "chip": "ym2612"
    },
    {
      "channel": 4,
      "note": 59,
      "start": 21.897,
      "duration": 0.0161,
      "velocity": 100,
      "chip": "ym2612"
    },
    {
      "channel": 1,
      "note": 88,
      "start": 21.8982,
      "duration": 0.0162,
      "velocity": 87,
      "chip": "ym2612"
    },
    {
      "channel": 0,
      "note": 44,
      "start": 21.9079,
      "duration": 0.0161,
      "velocity": 115,
      "chip": "ym2612"
    },
    {
      "channel": 5,
      "note": 88,
      "start": 21.909,
      "duration": 0.0162,
      "velocity": 87,
      "chip": "ym2612"
    },
    {
      "channel": 2,
      "note": 71,
      "start": 21.912,
      "duration": 0.0164,
      "velocity": 96,
      "chip": "ym2612"
    },
    {
      "channel": 4,
      "note": 59,
      "start": 21.9131,
      "duration": 0.0164,
      "velocity": 100,
      "chip": "ym2612"
    },
    {
      "channel": 1,
      "note": 88,
      "start": 21.9143,
      "duration": 0.0164,
      "velocity": 87,
      "chip": "ym2612"
    },
    {
      "channel": 0,
      "note": 44,
      "start": 21.924,
      "duration": 0.0161,
      "velocity": 115,
      "chip": "ym2612"
    },
    {
      "channel": 5,
      "note": 88,
      "start": 21.9252,
      "duration": 0.0161,
      "velocity": 87,
      "chip": "ym2612"
    },
    {
      "channel": 3,
      "note": 71,
      "start": 21.9267,
      "duration": 0.0159,
      "velocity": 96,
      "chip": "ym2612"
    },
    {
      "channel": 2,
      "note": 71,
      "start": 21.9284,
      "duration": 0.0155,
      "velocity": 96,
      "chip": "ym2612"
    },
    {
      "channel": 4,
      "note": 59,
      "start": 21.9295,
      "duration": 0.0159,
      "velocity": 100,
      "chip": "ym2612"
    },
    {
      "channel": 1,
      "note": 88,
      "start": 21.9307,
      "duration": 0.0158,
      "velocity": 87,
      "chip": "ym2612"
    },
    {
      "channel": 0,
      "note": 44,
      "start": 21.9401,
      "duration": 0.0161,
      "velocity": 115,
      "chip": "ym2612"
    },
    {
      "channel": 5,
      "note": 88,
      "start": 21.9413,
      "duration": 0.0161,
      "velocity": 87,
      "chip": "ym2612"
    },
    {
      "channel": 3,
      "note": 71,
      "start": 21.9425,
      "duration": 0.016,
      "velocity": 96,
      "chip": "ym2612"
    },
    {
      "channel": 2,
      "note": 71,
      "start": 21.9439,
      "duration": 0.0158,
      "velocity": 96,
      "chip": "ym2612"
    },
    {
      "channel": 4,
      "note": 59,
      "start": 21.9454,
      "duration": 0.016,
      "velocity": 100,
      "chip": "ym2612"
    },
    {
      "channel": 1,
      "note": 88,
      "start": 21.9466,
      "duration": 0.0161,
      "velocity": 87,
      "chip": "ym2612"
    },
    {
      "channel": 0,
      "note": 45,
      "start": 21.9562,
      "duration": 0.0179,
      "velocity": 115,
      "chip": "ym2612"
    },
    {
      "channel": 5,
      "note": 88,
      "start": 21.9574,
      "duration": 0.0179,
      "velocity": 87,
      "chip": "ym2612"
    },
    {
      "channel": 3,
      "note": 71,
      "start": 21.9585,
      "duration": 0.0179,
      "velocity": 96,
      "chip": "ym2612"
    },
    {
      "channel": 4,
      "note": 59,
      "start": 21.9614,
      "duration": 0.0185,
      "velocity": 100,
      "chip": "ym2612"
    },
    {
      "channel": 1,
      "note": 88,
      "start": 21.9627,
      "duration": 0.0185,
      "velocity": 87,
      "chip": "ym2612"
    },
    {
      "channel": 0,
      "note": 36,
      "start": 21.9741,
      "duration": 0.0143,
      "velocity": 115,
      "chip": "ym2612"
    },
    {
      "channel": 5,
      "note": 88,
      "start": 21.9753,
      "duration": 0.0143,
      "velocity": 87,
      "chip": "ym2612"
    },
    {
      "channel": 3,
      "note": 71,
      "start": 21.9765,
      "duration": 0.0143,
      "velocity": 96,
      "chip": "ym2612"
    },
    {
      "channel": 2,
      "note": 76,
      "start": 21.9785,
      "duration": 0.0135,
      "velocity": 96,
      "chip": "ym2612"
    },
    {
      "channel": 4,
      "note": 52,
      "start": 21.98,
      "duration": 0.0132,
      "velocity": 100,
      "chip": "ym2612"
    },
    {
      "channel": 1,
      "note": 88,
      "start": 21.9812,
      "duration": 0.0139,
      "velocity": 87,
      "chip": "ym2612"
    },
    {
      "channel": 0,
      "note": 36,
      "start": 21.9884,
      "duration": 0.0161,
      "velocity": 115,
      "chip": "ym2612"
    },
    {
      "channel": 5,
      "note": 88,
      "start": 21.9896,
      "duration": 0.016,
      "velocity": 87,
      "chip": "ym2612"
    },
    {
      "channel": 3,
      "note": 71,
      "start": 21.9908,
      "duration": 0.016,
      "velocity": 96,
      "chip": "ym2612"
    },
    {
      "channel": 2,
      "note": 76,
      "start": 21.992,
      "duration": 0.016,
      "velocity": 96,
      "chip": "ym2612"
    },
    {
      "channel": 4,
      "note": 52,
      "start": 21.9932,
      "duration": 0.0159,
      "velocity": 100,
      "chip": "ym2612"
    },
    {
      "channel": 1,
      "note": 88,
      "start": 21.9951,
      "duration": 0.0155,
      "velocity": 87,
      "chip": "ym2612"
    },
    {
      "channel": 0,
      "note": 37,
      "start": 22.0045,
      "duration": 0.0161,
      "velocity": 115,
      "chip": "ym2612"
    },
    {
      "channel": 5,
      "note": 88,
      "start": 22.0057,
      "duration": 0.0161,
      "velocity": 87,
      "chip": "ym2612"
    },
    {
      "channel": 3,
      "note": 71,
      "start": 22.0068,
      "duration": 0.0161,
      "velocity": 96,
      "chip": "ym2612"
    },
    {
      "channel": 2,
      "note": 76,
      "start": 22.008,
      "duration": 0.0162,
      "velocity": 96,
      "chip": "ym2612"
    },
    {
      "channel": 4,
      "note": 52,
      "start": 22.0091,
      "duration": 0.0161,
      "velocity": 100,
      "chip": "ym2612"
    },
    {
      "channel": 1,
      "note": 88,
      "start": 22.0106,
      "duration": 0.0159,
      "velocity": 87,
      "chip": "ym2612"
    },
    {
      "channel": 0,
      "note": 37,
      "start": 22.0206,
      "duration": 0.0161,
      "velocity": 115,
      "chip": "ym2612"
    },
    {
      "channel": 5,
      "note": 88,
      "start": 22.0218,
      "duration": 0.0161,
      "velocity": 87,
      "chip": "ym2612"
    },
    {
      "channel": 2,
      "note": 76,
      "start": 22.0241,
      "duration": 0.0163,
      "velocity": 96,
      "chip": "ym2612"
    },
    {
      "channel": 4,
      "note": 52,
      "start": 22.0253,
      "duration": 0.0163,
      "velocity": 100,
      "chip": "ym2612"
    },
    {
      "channel": 1,
      "note": 88,
      "start": 22.0265,
      "duration": 0.0163,
      "velocity": 87,
      "chip": "ym2612"
    },
    {
      "channel": 0,
      "note": 38,
      "start": 22.0367,
      "duration": 0.0161,
      "velocity": 115,
      "chip": "ym2612"
    },
    {
      "channel": 5,
      "note": 88,
      "start": 22.0379,
      "duration": 0.0161,
      "velocity": 87,
      "chip": "ym2612"
    },
    {
      "channel": 3,
      "note": 76,
      "start": 22.0393,
      "duration": 0.0159,
      "velocity": 96,
      "chip": "ym2612"
    },
    {
      "channel": 2,
      "note": 76,
      "start": 22.0405,
      "duration": 0.0159,
      "velocity": 96,
      "chip": "ym2612"
    },
    {
      "channel": 4,
      "note": 52,
      "start": 22.0416,
      "duration": 0.0159,
      "velocity": 100,
      "chip": "ym2612"
    },
    {
      "channel": 1,
      "note": 88,
      "start": 22.0428,
      "duration": 0.0159,
      "velocity": 87,
      "chip": "ym2612"
    },
    {
      "channel": 0,
      "note": 38,
      "start": 22.0528,
      "duration": 0.0161,
      "velocity": 115,
      "chip": "ym2612"
    },
    {
      "channel": 5,
      "note": 88,
      "start": 22.054,
      "duration": 0.0161,
      "velocity": 87,
      "chip": "ym2612"
    },
    {
      "channel": 3,
      "note": 76,
      "start": 22.0552,
      "duration": 0.016,
      "velocity": 96,
      "chip": "ym2612"
    },
    {
      "channel": 2,
      "note": 76,
      "start": 22.0564,
      "duration": 0.016,
      "velocity": 96,
      "chip": "ym2612"
    },
    {
      "channel": 4,
      "note": 52,
      "start": 22.0575,
      "duration": 0.0161,
      "velocity": 100,
      "chip": "ym2612"
    },
    {
      "channel": 1,
      "note": 88,
      "start": 22.0587,
      "duration": 0.016,
      "velocity": 87,
      "chip": "ym2612"
    },
    {
      "channel": 0,
      "note": 39,
      "start": 22.0689,
      "duration": 0.0179,
      "velocity": 115,
      "chip": "ym2612"
    },
    {
      "channel": 5,
      "note": 88,
      "start": 22.0701,
      "duration": 0.0179,
      "velocity": 87,
      "chip": "ym2612"
    },
    {
      "channel": 3,
      "note": 76,
      "start": 22.0713,
      "duration": 0.018,
      "velocity": 96,
      "chip": "ym2612"
    },
    {
      "channel": 4,
      "note": 52,
      "start": 22.0736,
      "duration": 0.0183,
      "velocity": 100,
      "chip": "ym2612"
    },
    {
      "channel": 1,
      "note": 88,
      "start": 22.0748,
      "duration": 0.0185,
      "velocity": 87,
      "chip": "ym2612"
    },
    {
      "channel": 0,
      "note": 36,
      "start": 22.0868,
      "duration": 0.0143,
      "velocity": 115,
      "chip": "ym2612"
    },
    {
      "channel": 5,
      "note": 88,
      "start": 22.088,
      "duration": 0.0143,
      "velocity": 87,
      "chip": "ym2612"
    },
    {
      "channel": 3,
      "note": 76,
      "start": 22.0893,
      "duration": 0.0143,
      "velocity": 96,
      "chip": "ym2612"
    },
    {
      "channel": 4,
      "note": 52,
      "start": 22.092,
      "duration": 0.014,
      "velocity": 100,
      "chip": "ym2612"
    },
    {
      "channel": 1,
      "note": 88,
      "start": 22.0932,
      "duration": 0.014,
      "velocity": 87,
      "chip": "ym2612"
    },
    {
      "channel": 0,
      "note": 36,
      "start": 22.1012,
      "duration": 0.016,
      "velocity": 115,
      "chip": "ym2612"
    },
    {
      "channel": 5,
      "note": 88,
      "start": 22.1024,
      "duration": 0.016,
      "velocity": 87,
      "chip": "ym2612"
    },
    {
      "channel": 3,
      "note": 76,
      "start": 22.1036,
      "duration": 0.016,
      "velocity": 96,
      "chip": "ym2612"
    },
    {
      "channel": 4,
      "note": 52,
      "start": 22.106,
      "duration": 0.016,
      "velocity": 100,
      "chip": "ym2612"
    },
    {
      "channel": 1,
      "note": 88,
      "start": 22.1072,
      "duration": 0.016,
      "velocity": 87,
      "chip": "ym2612"
    },
    {
      "channel": 0,
      "note": 37,
      "start": 22.1172,
      "duration": 0.0161,
      "velocity": 115,
      "chip": "ym2612"
    },
    {
      "channel": 5,
      "note": 88,
      "start": 22.1184,
      "duration": 0.0161,
      "velocity": 87,
      "chip": "ym2612"
    },
    {
      "channel": 3,
      "note": 76,
      "start": 22.1196,
      "duration": 0.0161,
      "velocity": 96,
      "chip": "ym2612"
    },
    {
      "channel": 4,
      "note": 52,
      "start": 22.122,
      "duration": 0.0161,
      "velocity": 100,
      "chip": "ym2612"
    },
    {
      "channel": 1,
      "note": 88,
      "start": 22.1232,
      "duration": 0.0161,
      "velocity": 87,
      "chip": "ym2612"
    },
    {
      "channel": 0,
      "note": 37,
      "start": 22.1333,
      "duration": 0.0161,
      "velocity": 115,
      "chip": "ym2612"
    },
    {
      "channel": 5,
      "note": 88,
      "start": 22.1345,
      "duration": 0.0161,
      "velocity": 87,
      "chip": "ym2612"
    },
    {
      "channel": 4,
      "note": 52,
      "start": 22.1381,
      "duration": 0.0162,
      "velocity": 100,
      "chip": "ym2612"
    },
    {
      "channel": 1,
      "note": 88,
      "start": 22.1393,
      "duration": 0.0161,
      "velocity": 87,
      "chip": "ym2612"
    },
    {
      "channel": 0,
      "note": 38,
      "start": 22.1494,
      "duration": 0.0161,
      "velocity": 115,
      "chip": "ym2612"
    },
    {
      "channel": 5,
      "note": 88,
      "start": 22.1506,
      "duration": 0.0161,
      "velocity": 87,
      "chip": "ym2612"
    },
    {
      "channel": 4,
      "note": 52,
      "start": 22.1543,
      "duration": 0.016,
      "velocity": 100,
      "chip": "ym2612"
    },
    {
      "channel": 1,
      "note": 88,
      "start": 22.1554,
      "duration": 0.016,
      "velocity": 87,
      "chip": "ym2612"
    },
    {
      "channel": 0,
      "note": 38,
      "start": 22.1655,
      "duration": 0.0161,
      "velocity": 115,
      "chip": "ym2612"
    },
    {
      "channel": 5,
      "note": 88,
      "start": 22.1667,
      "duration": 0.0161,
      "velocity": 87,
      "chip": "ym2612"
    },
    {
      "channel": 4,
      "note": 52,
      "start": 22.1702,
      "duration": 0.0161,
      "velocity": 100,
      "chip": "ym2612"
    },
    {
      "channel": 1,
      "note": 88,
      "start": 22.1715,
      "duration": 0.0162,
      "velocity": 87,
      "chip": "ym2612"
    },
    {
      "channel": 0,
      "note": 39,
      "start": 22.1816,
      "duration": 0.0161,
      "velocity": 115,
      "chip": "ym2612"
    },
    {
      "channel": 5,
      "note": 88,
      "start": 22.1828,
      "duration": 0.0161,
      "velocity": 87,
      "chip": "ym2612"
    },
    {
      "channel": 4,
      "note": 52,
      "start": 22.1864,
      "duration": 0.0163,
      "velocity": 100,
      "chip": "ym2612"
    },
    {
      "channel": 1,
      "note": 88,
      "start": 22.1876,
      "duration": 0.0163,
      "velocity": 87,
      "chip": "ym2612"
    },
    {
      "channel": 0,
      "note": 39,
      "start": 22.1977,
      "duration": 0.0161,
      "velocity": 115,
      "chip": "ym2612"
    },
    {
      "channel": 5,
      "note": 88,
      "start": 22.1989,
      "duration": 0.0162,
      "velocity": 87,
      "chip": "ym2612"
    },
    {
      "channel": 2,
      "note": 68,
      "start": 22.2015,
      "duration": 0.0159,
      "velocity": 96,
      "chip": "ym2612"
    },
    {
      "channel": 4,
      "note": 52,
      "start": 22.2027,
      "duration": 0.0158,
      "velocity": 100,
      "chip": "ym2612"
    },
    {
      "channel": 1,
      "note": 88,
      "start": 22.204,
      "duration": 0.0158,
      "velocity": 87,
      "chip": "ym2612"
    },
    {
      "channel": 0,
      "note": 40,
      "start": 22.2138,
      "duration": 0.0162,
      "velocity": 115,
      "chip": "ym2612"
    },
    {
      "channel": 5,
      "note": 88,
      "start": 22.215,
      "duration": 0.0161,
      "velocity": 87,
      "chip": "ym2612"
    },
    {
      "channel": 2,
      "note": 68,
      "start": 22.2174,
      "duration": 0.0161,
      "velocity": 96,
      "chip": "ym2612"
    },
    {
      "channel": 4,
      "note": 52,
      "start": 22.2185,
      "duration": 0.0161,
      "velocity": 100,
      "chip": "ym2612"
    },
    {
      "channel": 1,
      "note": 88,
      "start": 22.2198,
      "duration": 0.0161,
      "velocity": 87,
      "chip": "ym2612"
    },
    {
      "channel": 0,
      "note": 40,
      "start": 22.23,
      "duration": 0.0164,
      "velocity": 115,
      "chip": "ym2612"
    },
    {
      "channel": 5,
      "note": 88,
      "start": 22.2312,
      "duration": 0.0164,
      "velocity": 87,
      "chip": "ym2612"
    },
    {
      "channel": 2,
      "note": 68,
      "start": 22.2335,
      "duration": 0.0164,
      "velocity": 96,
      "chip": "ym2612"
    },
    {
      "channel": 4,
      "note": 52,
      "start": 22.2346,
      "duration": 0.0164,
      "velocity": 100,
      "chip": "ym2612"
    },
    {
      "channel": 1,
      "note": 88,
      "start": 22.2359,
      "duration": 0.0164,
      "velocity": 87,
      "chip": "ym2612"
    },
    {
      "channel": 0,
      "note": 40,
      "start": 22.2464,
      "duration": 0.0163,
      "velocity": 115,
      "chip": "ym2612"
    },
    {
      "channel": 5,
      "note": 88,
      "start": 22.2476,
      "duration": 0.0163,
      "velocity": 87,
      "chip": "ym2612"
    },
    {
      "channel": 2,
      "note": 68,
      "start": 22.2499,
      "duration": 0.0166,
      "velocity": 96,
      "chip": "ym2612"
    },
    {
      "channel": 4,
      "note": 52,
      "start": 22.251,
      "duration": 0.0166,
      "velocity": 100,
      "chip": "ym2612"
    },
    {
      "channel": 1,
      "note": 88,
      "start": 22.2523,
      "duration": 0.0166,
      "velocity": 87,
      "chip": "ym2612"
    },
    {
      "channel": 0,
      "note": 41,
      "start": 22.2627,
      "duration": 0.0161,
      "velocity": 115,
      "chip": "ym2612"
    },
    {
      "channel": 5,
      "note": 88,
      "start": 22.2639,
      "duration": 0.0162,
      "velocity": 87,
      "chip": "ym2612"
    },
    {
      "channel": 3,
      "note": 68,
      "start": 22.2654,
      "duration": 0.0159,
      "velocity": 96,
      "chip": "ym2612"
    },
    {
      "channel": 2,
      "note": 68,
      "start": 22.2665,
      "duration": 0.0159,
      "velocity": 96,
      "chip": "ym2612"
    },
    {
      "channel": 4,
      "note": 52,
      "start": 22.2676,
      "duration": 0.0159,
      "velocity": 100,
      "chip": "ym2612"
    },
    {
      "channel": 1,
      "note": 88,
      "start": 22.2689,
      "duration": 0.0158,
      "velocity": 87,
      "chip": "ym2612"
    },
    {
      "channel": 0,
      "note": 41,
      "start": 22.2788,
      "duration": 0.016,
      "velocity": 115,
      "chip": "ym2612"
    },
    {
      "channel": 5,
      "note": 88,
      "start": 22.28,
      "duration": 0.0161,
      "velocity": 87,
      "chip": "ym2612"
    },
    {
      "channel": 3,
      "note": 68,
      "start": 22.2812,
      "duration": 0.016,
      "velocity": 96,
      "chip": "ym2612"
    },
    {
      "channel": 2,
      "note": 68,
      "start": 22.2824,
      "duration": 0.016,
      "velocity": 96,
      "chip": "ym2612"
    },
    {
      "channel": 4,
      "note": 52,
      "start": 22.2835,
      "duration": 0.016,
      "velocity": 100,
      "chip": "ym2612"
    },
    {
      "channel": 0,
      "note": 42,
      "start": 22.2949,
      "duration": 0.018,
      "velocity": 124,
      "chip": "ym2612"
    },
    {
      "channel": 5,
      "note": 88,
      "start": 22.2961,
      "duration": 0.0179,
      "velocity": 87,
      "chip": "ym2612"
    },
    {
      "channel": 3,
      "note": 68,
      "start": 22.2973,
      "duration": 0.0179,
      "velocity": 96,
      "chip": "ym2612"
    },
    {
      "channel": 4,
      "note": 52,
      "start": 22.2996,
      "duration": 0.0181,
      "velocity": 100,
      "chip": "ym2612"
    },
    {
      "channel": 0,
      "note": 84,
      "start": 22.3129,
      "duration": 0.0137,
      "velocity": 124,
      "chip": "ym2612"
    },
    {
      "channel": 5,
      "note": 88,
      "start": 22.3141,
      "duration": 0.0143,
      "velocity": 87,
      "chip": "ym2612"
    },
    {
      "channel": 3,
      "note": 68,
      "start": 22.3152,
      "duration": 0.0143,
      "velocity": 96,
      "chip": "ym2612"
    },
    {
      "channel": 4,
      "note": 52,
      "start": 22.3177,
      "duration": 0.0142,
      "velocity": 100,
      "chip": "ym2612"
    },
    {
      "channel": 1,
      "note": 83,
      "start": 22.3192,
      "duration": 0.0139,
      "velocity": 87,
      "chip": "ym2612"
    },
    {
      "channel": 0,
      "note": 82,
      "start": 22.3266,
      "duration": 0.016,
      "velocity": 124,
      "chip": "ym2612"
    },
    {
      "channel": 5,
      "note": 88,
      "start": 22.3284,
      "duration": 0.016,
      "velocity": 87,
      "chip": "ym2612"
    },
    {
      "channel": 3,
      "note": 68,
      "start": 22.3295,
      "duration": 0.016,
      "velocity": 96,
      "chip": "ym2612"
    },
    {
      "channel": 4,
      "note": 52,
      "start": 22.3319,
      "duration": 0.0161,
      "velocity": 100,
      "chip": "ym2612"
    },
    {
      "channel": 1,
      "note": 83,
      "start": 22.3332,
      "duration": 0.016,
      "velocity": 87,
      "chip": "ym2612"
    },
    {
      "channel": 0,
      "note": 80,
      "start": 22.3426,
      "duration": 0.0161,
      "velocity": 124,
      "chip": "ym2612"
    },
    {
      "channel": 5,
      "note": 88,
      "start": 22.3444,
      "duration": 0.0156,
      "velocity": 87,
      "chip": "ym2612"
    },
    {
      "channel": 3,
      "note": 68,
      "start": 22.3456,
      "duration": 0.0161,
      "velocity": 96,
      "chip": "ym2612"
    },
    {
      "channel": 4,
      "note": 52,
      "start": 22.348,
      "duration": 0.0161,
      "velocity": 100,
      "chip": "ym2612"
    },
    {
      "channel": 1,
      "note": 83,
      "start": 22.3491,
      "duration": 0.0162,
      "velocity": 87,
      "chip": "ym2612"
    },
    {
      "channel": 0,
      "note": 77,
      "start": 22.3587,
      "duration": 0.0161,
      "velocity": 124,
      "chip": "ym2612"
    },
    {
      "channel": 5,
      "note": 88,
      "start": 22.3599,
      "duration": 0.0161,
      "velocity": 87,
      "chip": "ym2612"
    },
    {
      "channel": 4,
      "note": 52,
      "start": 22.3641,
      "duration": 0.0162,
      "velocity": 100,
      "chip": "ym2612"
    },
    {
      "channel": 1,
      "note": 83,
      "start": 22.3653,
      "duration": 0.0162,
      "velocity": 87,
      "chip": "ym2612"
    },
    {
      "channel": 0,
      "note": 75,
      "start": 22.3748,
      "duration": 0.0161,
      "velocity": 124,
      "chip": "ym2612"
    },
    {
      "channel": 5,
      "note": 88,
      "start": 22.376,
      "duration": 0.0162,
      "velocity": 87,
      "chip": "ym2612"
    },
    {
      "channel": 4,
      "note": 52,
      "start": 22.3803,
      "duration": 0.0161,
      "velocity": 100,
      "chip": "ym2612"
    },
    {
      "channel": 1,
      "note": 83,
      "start": 22.3815,
      "duration": 0.0161,
      "velocity": 87,
      "chip": "ym2612"
    },
    {
      "channel": 0,
      "note": 72,
      "start": 22.3909,
      "duration": 0.0161,
      "velocity": 124,
      "chip": "ym2612"
    },
    {
      "channel": 5,
      "note": 88,
      "start": 22.3922,
      "duration": 0.0161,
      "velocity": 87,
      "chip": "ym2612"
    },
    {
      "channel": 4,
      "note": 52,
      "start": 22.3964,
      "duration": 0.016,
      "velocity": 100,
      "chip": "ym2612"
    },
    {
      "channel": 1,
      "note": 83,
      "start": 22.3975,
      "duration": 0.0161,
      "velocity": 87,
      "chip": "ym2612"
    },
    {
      "channel": 0,
      "note": 70,
      "start": 22.407,
      "duration": 0.0161,
      "velocity": 124,
      "chip": "ym2612"
    },
    {
      "channel": 5,
      "note": 88,
      "start": 22.4083,
      "duration": 0.0161,
      "velocity": 87,
      "chip": "ym2612"
    },
    {
      "channel": 4,
      "note": 52,
      "start": 22.4124,
      "duration": 0.0165,
      "velocity": 100,
      "chip": "ym2612"
    },
    {
      "channel": 1,
      "note": 83,
      "start": 22.4136,
      "duration": 0.0165,
      "velocity": 87,
      "chip": "ym2612"
    },
    {
      "channel": 0,
      "note": 68,
      "start": 22.4231,
      "duration": 0.0161,
      "velocity": 124,
      "chip": "ym2612"
    },
    {
      "channel": 5,
      "note": 88,
      "start": 22.4244,
      "duration": 0.0161,
      "velocity": 87,
      "chip": "ym2612"
    },
    {
      "channel": 2,
      "note": 71,
      "start": 22.4272,
      "duration": 0.0156,
      "velocity": 96,
      "chip": "ym2612"
    },
    {
      "channel": 4,
      "note": 52,
      "start": 22.429,
      "duration": 0.0156,
      "velocity": 100,
      "chip": "ym2612"
    },
    {
      "channel": 1,
      "note": 83,
      "start": 22.4302,
      "duration": 0.0157,
      "velocity": 87,
      "chip": "ym2612"
    },
    {
      "channel": 0,
      "note": 65,
      "start": 22.4392,
      "duration": 0.0161,
      "velocity": 124,
      "chip": "ym2612"
    },
    {
      "channel": 5,
      "note": 88,
      "start": 22.4405,
      "duration": 0.0161,
      "velocity": 87,
      "chip": "ym2612"
    },
    {
      "channel": 2,
      "note": 71,
      "start": 22.4428,
      "duration": 0.0161,
      "velocity": 96,
      "chip": "ym2612"
    },
    {
      "channel": 4,
      "note": 52,
      "start": 22.4446,
      "duration": 0.0155,
      "velocity": 100,
      "chip": "ym2612"
    },
    {
      "channel": 1,
      "note": 83,
      "start": 22.4458,
      "duration": 0.016,
      "velocity": 87,
      "chip": "ym2612"
    },
    {
      "channel": 0,
      "note": 63,
      "start": 22.4554,
      "duration": 0.0153,
      "velocity": 1,
      "chip": "ym2612"
    },
    {
      "channel": 5,
      "note": 88,
      "start": 22.4566,
      "duration": 0.0152,
      "velocity": 87,
      "chip": "ym2612"
    },
    {
      "channel": 2,
      "note": 71,
      "start": 22.4589,
      "duration": 0.0153,
      "velocity": 96,
      "chip": "ym2612"
    },
    {
      "channel": 4,
      "note": 52,
      "start": 22.4601,
      "duration": 0.0153,
      "velocity": 100,
      "chip": "ym2612"
    },
    {
      "channel": 1,
      "note": 83,
      "start": 22.4619,
      "duration": 0.0146,
      "velocity": 87,
      "chip": "ym2612"
    },
    {
      "channel": 2,
      "note": 71,
      "start": 22.4742,
      "duration": 0.0154,
      "velocity": 96,
      "chip": "ym2612"
    },
    {
      "channel": 4,
      "note": 52,
      "start": 22.4753,
      "duration": 0.0155,
      "velocity": 100,
      "chip": "ym2612"
    },
    {
      "channel": 1,
      "note": 83,
      "start": 22.4765,
      "duration": 0.0155,
      "velocity": 87,
      "chip": "ym2612"
    },
    {
      "channel": 3,
      "note": 71,
      "start": 22.4885,
      "duration": 0.0162,
      "velocity": 96,
      "chip": "ym2612"
    },
    {
      "channel": 2,
      "note": 71,
      "start": 22.4896,
      "duration": 0.0162,
      "velocity": 96,
      "chip": "ym2612"
    },
    {
      "channel": 4,
      "note": 52,
      "start": 22.4908,
      "duration": 0.0162,
      "velocity": 100,
      "chip": "ym2612"
    },
    {
      "channel": 1,
      "note": 83,
      "start": 22.492,
      "duration": 0.0162,
      "velocity": 87,
      "chip": "ym2612"
    },
    {
      "channel": 5,
      "note": 83,
      "start": 22.5034,
      "duration": 0.0159,
      "velocity": 87,
      "chip": "ym2612"
    },
    {
      "channel": 3,
      "note": 71,
      "start": 22.5047,
      "duration": 0.0157,
      "velocity": 96,
      "chip": "ym2612"
    },
    {
      "channel": 2,
      "note": 71,
      "start": 22.5059,
      "duration": 0.0158,
      "velocity": 96,
      "chip": "ym2612"
    },
    {
      "channel": 4,
      "note": 52,
      "start": 22.507,
      "duration": 0.0158,
      "velocity": 100,
      "chip": "ym2612"
    },
    {
      "channel": 1,
      "note": 83,
      "start": 22.5082,
      "duration": 0.0157,
      "velocity": 87,
      "chip": "ym2612"
    },
    {
      "channel": 5,
      "note": 83,
      "start": 22.5193,
      "duration": 0.0196,
      "velocity": 87,
      "chip": "ym2612"
    },
    {
      "channel": 3,
      "note": 71,
      "start": 22.5204,
      "duration": 0.0196,
      "velocity": 96,
      "chip": "ym2612"
    },
    {
      "channel": 4,
      "note": 52,
      "start": 22.5228,
      "duration": 0.0202,
      "velocity": 100,
      "chip": "ym2612"
    },
    {
      "channel": 1,
      "note": 83,
      "start": 22.5239,
      "duration": 0.0208,
      "velocity": 87,
      "chip": "ym2612"
    },
    {
      "channel": 0,
      "note": 36,
      "start": 22.5377,
      "duration": 0.0143,
      "velocity": 115,
      "chip": "ym2612"
    },
    {
      "channel": 5,
      "note": 83,
      "start": 22.5389,
      "duration": 0.0143,
      "velocity": 87,
      "chip": "ym2612"
    },
    {
      "channel": 3,
      "note": 71,
      "start": 22.54,
      "duration": 0.0143,
      "velocity": 96,
      "chip": "ym2612"
    },
    {
      "channel": 2,
      "note": 76,
      "start": 22.5416,
      "duration": 0.014,
      "velocity": 96,
      "chip": "ym2612"
    },
    {
      "channel": 4,
      "note": 59,
      "start": 22.543,
      "duration": 0.0137,
      "velocity": 100,
      "chip": "ym2612"
    },
    {
      "channel": 1,
      "note": 83,
      "start": 22.5447,
      "duration": 0.0132,
      "velocity": 87,
      "chip": "ym2612"
    },
    {
      "channel": 0,
      "note": 36,
      "start": 22.552,
      "duration": 0.016,
      "velocity": 115,
      "chip": "ym2612"
    },
    {
      "channel": 5,
      "note": 83,
      "start": 22.5532,
      "duration": 0.016,
      "velocity": 87,
      "chip": "ym2612"
    },
    {
      "channel": 3,
      "note": 71,
      "start": 22.5543,
      "duration": 0.016,
      "velocity": 96,
      "chip": "ym2612"
    },
    {
      "channel": 2,
      "note": 76,
      "start": 22.5556,
      "duration": 0.016,
      "velocity": 96,
      "chip": "ym2612"
    },
    {
      "channel": 4,
      "note": 59,
      "start": 22.5568,
      "duration": 0.0159,
      "velocity": 100,
      "chip": "ym2612"
    },
    {
      "channel": 1,
      "note": 83,
      "start": 22.558,
      "duration": 0.0159,
      "velocity": 87,
      "chip": "ym2612"
    },
    {
      "channel": 0,
      "note": 37,
      "start": 22.568,
      "duration": 0.0161,
      "velocity": 115,
      "chip": "ym2612"
    },
    {
      "channel": 5,
      "note": 83,
      "start": 22.5692,
      "duration": 0.0161,
      "velocity": 87,
      "chip": "ym2612"
    },
    {
      "channel": 3,
      "note": 71,
      "start": 22.5704,
      "duration": 0.0161,
      "velocity": 96,
      "chip": "ym2612"
    },
    {
      "channel": 2,
      "note": 76,
      "start": 22.5715,
      "duration": 0.0161,
      "velocity": 96,
      "chip": "ym2612"
    },
    {
      "channel": 4,
      "note": 59,
      "start": 22.5727,
      "duration": 0.0162,
      "velocity": 100,
      "chip": "ym2612"
    },
    {
      "channel": 1,
      "note": 83,
      "start": 22.5739,
      "duration": 0.0161,
      "velocity": 87,
      "chip": "ym2612"
    },
    {
      "channel": 0,
      "note": 37,
      "start": 22.5841,
      "duration": 0.0162,
      "velocity": 115,
      "chip": "ym2612"
    },
    {
      "channel": 5,
      "note": 83,
      "start": 22.5853,
      "duration": 0.0161,
      "velocity": 87,
      "chip": "ym2612"
    },
    {
      "channel": 2,
      "note": 76,
      "start": 22.5877,
      "duration": 0.0164,
      "velocity": 96,
      "chip": "ym2612"
    },
    {
      "channel": 4,
      "note": 59,
      "start": 22.5888,
      "duration": 0.0164,
      "velocity": 100,
      "chip": "ym2612"
    },
    {
      "channel": 1,
      "note": 83,
      "start": 22.59,
      "duration": 0.0165,
      "velocity": 87,
      "chip": "ym2612"
    },
    {
      "channel": 0,
      "note": 38,
      "start": 22.6003,
      "duration": 0.0161,
      "velocity": 115,
      "chip": "ym2612"
    },
    {
      "channel": 5,
      "note": 83,
      "start": 22.6014,
      "duration": 0.0161,
      "velocity": 87,
      "chip": "ym2612"
    },
    {
      "channel": 3,
      "note": 76,
      "start": 22.6029,
      "duration": 0.0158,
      "velocity": 96,
      "chip": "ym2612"
    },
    {
      "channel": 2,
      "note": 76,
      "start": 22.6041,
      "duration": 0.0159,
      "velocity": 96,
      "chip": "ym2612"
    },
    {
      "channel": 4,
      "note": 59,
      "start": 22.6052,
      "duration": 0.0158,
      "velocity": 100,
      "chip": "ym2612"
    },
    {
      "channel": 1,
      "note": 83,
      "start": 22.6064,
      "duration": 0.0158,
      "velocity": 87,
      "chip": "ym2612"
    },
    {
      "channel": 0,
      "note": 38,
      "start": 22.6164,
      "duration": 0.0161,
      "velocity": 115,
      "chip": "ym2612"
    },
    {
      "channel": 5,
      "note": 83,
      "start": 22.6175,
      "duration": 0.0161,
      "velocity": 87,
      "chip": "ym2612"
    },
    {
      "channel": 3,
      "note": 76,
      "start": 22.6187,
      "duration": 0.0161,
      "velocity": 96,
      "chip": "ym2612"
    },
    {
      "channel": 2,
      "note": 76,
      "start": 22.6199,
      "duration": 0.016,
      "velocity": 96,
      "chip": "ym2612"
    },
    {
      "channel": 4,
      "note": 59,
      "start": 22.6211,
      "duration": 0.016,
      "velocity": 100,
      "chip": "ym2612"
    },
    {
      "channel": 1,
      "note": 83,
      "start": 22.6222,
      "duration": 0.0161,
      "velocity": 87,
      "chip": "ym2612"
    },
    {
      "channel": 0,
      "note": 39,
      "start": 22.6324,
      "duration": 0.0161,
      "velocity": 115,
      "chip": "ym2612"
    },
    {
      "channel": 5,
      "note": 83,
      "start": 22.6336,
      "duration": 0.0161,
      "velocity": 87,
      "chip": "ym2612"
    },
    {
      "channel": 3,
      "note": 76,
      "start": 22.6348,
      "duration": 0.016,
      "velocity": 96,
      "chip": "ym2612"
    },
    {
      "channel": 4,
      "note": 59,
      "start": 22.6371,
      "duration": 0.0163,
      "velocity": 100,
      "chip": "ym2612"
    },
    {
      "channel": 1,
      "note": 83,
      "start": 22.6383,
      "duration": 0.0164,
      "velocity": 87,
      "chip": "ym2612"
    },
    {
      "channel": 0,
      "note": 39,
      "start": 22.6485,
      "duration": 0.0161,
      "velocity": 115,
      "chip": "ym2612"
    },
    {
      "channel": 5,
      "note": 83,
      "start": 22.6497,
      "duration": 0.0161,
      "velocity": 87,
      "chip": "ym2612"
    },
    {
      "channel": 3,
      "note": 76,
      "start": 22.6508,
      "duration": 0.0162,
      "velocity": 96,
      "chip": "ym2612"
    },
    {
      "channel": 2,
      "note": 68,
      "start": 22.6523,
      "duration": 0.0159,
      "velocity": 96,
      "chip": "ym2612"
    },
    {
      "channel": 4,
      "note": 59,
      "start": 22.6534,
      "duration": 0.0159,
      "velocity": 100,
      "chip": "ym2612"
    },
    {
      "channel": 1,
      "note": 83,
      "start": 22.6547,
      "duration": 0.0159,
      "velocity": 87,
      "chip": "ym2612"
    },
    {
      "channel": 0,
      "note": 40,
      "start": 22.6646,
      "duration": 0.0161,
      "velocity": 115,
      "chip": "ym2612"
    },
    {
      "channel": 5,
      "note": 83,
      "start": 22.6658,
      "duration": 0.0162,
      "velocity": 87,
      "chip": "ym2612"
    },
    {
      "channel": 3,
      "note": 76,
      "start": 22.667,
      "duration": 0.0161,
      "velocity": 96,
      "chip": "ym2612"
    },
    {
      "channel": 2,
      "note": 68,
      "start": 22.6682,
      "duration": 0.016,
      "velocity": 96,
      "chip": "ym2612"
    },
    {
      "channel": 4,
      "note": 59,
      "start": 22.6694,
      "duration": 0.016,
      "velocity": 100,
      "chip": "ym2612"
    },
    {
      "channel": 1,
      "note": 83,
      "start": 22.6706,
      "duration": 0.016,
      "velocity": 87,
      "chip": "ym2612"
    },
    {
      "channel": 0,
      "note": 40,
      "start": 22.6807,
      "duration": 0.0161,
      "velocity": 115,
      "chip": "ym2612"
    },
    {
      "channel": 5,
      "note": 83,
      "start": 22.682,
      "duration": 0.0162,
      "velocity": 87,
      "chip": "ym2612"
    },
    {
      "channel": 3,
      "note": 76,
      "start": 22.6831,
      "duration": 0.0161,
      "velocity": 96,
      "chip": "ym2612"
    },
    {
      "channel": 2,
      "note": 68,
      "start": 22.6842,
      "duration": 0.0162,
      "velocity": 96,
      "chip": "ym2612"
    },
    {
      "channel": 4,
      "note": 59,
      "start": 22.6854,
      "duration": 0.0162,
      "velocity": 100,
      "chip": "ym2612"
    },
    {
      "channel": 1,
      "note": 83,
      "start": 22.6866,
      "duration": 0.0162,
      "velocity": 87,
      "chip": "ym2612"
    },
    {
      "channel": 0,
      "note": 40,
      "start": 22.6969,
      "duration": 0.0162,
      "velocity": 115,
      "chip": "ym2612"
    },
    {
      "channel": 5,
      "note": 83,
      "start": 22.6981,
      "duration": 0.0161,
      "velocity": 87,
      "chip": "ym2612"
    },
    {
      "channel": 2,
      "note": 68,
      "start": 22.7005,
      "duration": 0.0163,
      "velocity": 96,
      "chip": "ym2612"
    },
    {
      "channel": 4,
      "note": 59,
      "start": 22.7016,
      "duration": 0.0163,
      "velocity": 100,
      "chip": "ym2612"
    },
    {
      "channel": 1,
      "note": 83,
      "start": 22.7028,
      "duration": 0.0163,
      "velocity": 87,
      "chip": "ym2612"
    },
    {
      "channel": 0,
      "note": 41,
      "start": 22.7131,
      "duration": 0.0163,
      "velocity": 115,
      "chip": "ym2612"
    },
    {
      "channel": 5,
      "note": 83,
      "start": 22.7142,
      "duration": 0.0164,
      "velocity": 87,
      "chip": "ym2612"
    },
    {
      "channel": 3,
      "note": 68,
      "start": 22.7157,
      "duration": 0.0161,
      "velocity": 96,
      "chip": "ym2612"
    },
    {
      "channel": 2,
      "note": 68,
      "start": 22.7168,
      "duration": 0.0162,
      "velocity": 96,
      "chip": "ym2612"
    },
    {
      "channel": 4,
      "note": 59,
      "start": 22.718,
      "duration": 0.0161,
      "velocity": 100,
      "chip": "ym2612"
    },
    {
      "channel": 1,
      "note": 83,
      "start": 22.7192,
      "duration": 0.0162,
      "velocity": 87,
      "chip": "ym2612"
    },
    {
      "channel": 0,
      "note": 41,
      "start": 22.7294,
      "duration": 0.0163,
      "velocity": 115,
      "chip": "ym2612"
    },
    {
      "channel": 5,
      "note": 83,
      "start": 22.7306,
      "duration": 0.0163,
      "velocity": 87,
      "chip": "ym2612"
    },
    {
      "channel": 3,
      "note": 68,
      "start": 22.7318,
      "duration": 0.0163,
      "velocity": 96,
      "chip": "ym2612"
    },
    {
      "channel": 2,
      "note": 68,
      "start": 22.733,
      "duration": 0.0163,
      "velocity": 96,
      "chip": "ym2612"
    },
    {
      "channel": 4,
      "note": 59,
      "start": 22.7341,
      "duration": 0.0163,
      "velocity": 100,
      "chip": "ym2612"
    },
    {
      "channel": 0,
      "note": 42,
      "start": 22.7458,
      "duration": 0.0179,
      "velocity": 124,
      "chip": "ym2612"
    },
    {
      "channel": 5,
      "note": 83,
      "start": 22.7469,
      "duration": 0.018,
      "velocity": 87,
      "chip": "ym2612"
    },
    {
      "channel": 3,
      "note": 68,
      "start": 22.7481,
      "duration": 0.0179,
      "velocity": 96,
      "chip": "ym2612"
    },
    {
      "channel": 4,
      "note": 59,
      "start": 22.7504,
      "duration": 0.0183,
      "velocity": 100,
      "chip": "ym2612"
    },
    {
      "channel": 0,
      "note": 84,
      "start": 22.7637,
      "duration": 0.0142,
      "velocity": 124,
      "chip": "ym2612"
    },
    {
      "channel": 5,
      "note": 83,
      "start": 22.7649,
      "duration": 0.0143,
      "velocity": 87,
      "chip": "ym2612"
    },
    {
      "channel": 3,
      "note": 68,
      "start": 22.7661,
      "duration": 0.0143,
      "velocity": 96,
      "chip": "ym2612"
    },
    {
      "channel": 2,
      "note": 71,
      "start": 22.7675,
      "duration": 0.0141,
      "velocity": 96,
      "chip": "ym2612"
    },
    {
      "channel": 4,
      "note": 59,
      "start": 22.7687,
      "duration": 0.0141,
      "velocity": 100,
      "chip": "ym2612"
    },
    {
      "channel": 1,
      "note": 83,
      "start": 22.7701,
      "duration": 0.0138,
      "velocity": 87,
      "chip": "ym2612"
    },
    {
      "channel": 0,
      "note": 82,
      "start": 22.7779,
      "duration": 0.0157,
      "velocity": 124,
      "chip": "ym2612"
    },
    {
      "channel": 5,
      "note": 83,
      "start": 22.7792,
      "duration": 0.0161,
      "velocity": 87,
      "chip": "ym2612"
    },
    {
      "channel": 3,
      "note": 68,
      "start": 22.7804,
      "duration": 0.016,
      "velocity": 96,
      "chip": "ym2612"
    },
    {
      "channel": 2,
      "note": 71,
      "start": 22.7816,
      "duration": 0.016,
      "velocity": 96,
      "chip": "ym2612"
    },
    {
      "channel": 4,
      "note": 59,
      "start": 22.7827,
      "duration": 0.016,
      "velocity": 100,
      "chip": "ym2612"
    },
    {
      "channel": 1,
      "note": 83,
      "start": 22.7839,
      "duration": 0.016,
      "velocity": 87,
      "chip": "ym2612"
    },
    {
      "channel": 0,
      "note": 80,
      "start": 22.7937,
      "duration": 0.0159,
      "velocity": 124,
      "chip": "ym2612"
    },
    {
      "channel": 5,
      "note": 83,
      "start": 22.7952,
      "duration": 0.016,
      "velocity": 87,
      "chip": "ym2612"
    },
    {
      "channel": 3,
      "note": 68,
      "start": 22.7964,
      "duration": 0.0161,
      "velocity": 96,
      "chip": "ym2612"
    },
    {
      "channel": 2,
      "note": 71,
      "start": 22.7975,
      "duration": 0.0161,
      "velocity": 96,
      "chip": "ym2612"
    },
    {
      "channel": 4,
      "note": 59,
      "start": 22.7987,
      "duration": 0.0161,
      "velocity": 100,
      "chip": "ym2612"
    },
    {
      "channel": 1,
      "note": 83,
      "start": 22.7999,
      "duration": 0.0161,
      "velocity": 87,
      "chip": "ym2612"
    },
    {
      "channel": 0,
      "note": 77,
      "start": 22.8096,
      "duration": 0.0161,
      "velocity": 124,
      "chip": "ym2612"
    },
    {
      "channel": 5,
      "note": 83,
      "start": 22.8113,
      "duration": 0.0158,
      "velocity": 87,
      "chip": "ym2612"
    },
    {
      "channel": 2,
      "note": 71,
      "start": 22.8136,
      "duration": 0.0164,
      "velocity": 96,
      "chip": "ym2612"
    },
    {
      "channel": 4,
      "note": 59,
      "start": 22.8148,
      "duration": 0.0164,
      "velocity": 100,
      "chip": "ym2612"
    },
    {
      "channel": 1,
      "note": 83,
      "start": 22.816,
      "duration": 0.0164,
      "velocity": 87,
      "chip": "ym2612"
    },
    {
      "channel": 0,
      "note": 75,
      "start": 22.8256,
      "duration": 0.0161,
      "velocity": 124,
      "chip": "ym2612"
    },
    {
      "channel": 5,
      "note": 83,
      "start": 22.8271,
      "duration": 0.016,
      "velocity": 87,
      "chip": "ym2612"
    },
    {
      "channel": 3,
      "note": 71,
      "start": 22.8289,
      "duration": 0.0159,
      "velocity": 96,
      "chip": "ym2612"
    },
    {
      "channel": 2,
      "note": 71,
      "start": 22.83,
      "duration": 0.016,
      "velocity": 96,
      "chip": "ym2612"
    },
    {
      "channel": 4,
      "note": 59,
      "start": 22.8312,
      "duration": 0.016,
      "velocity": 100,
      "chip": "ym2612"
    },
    {
      "channel": 1,
      "note": 83,
      "start": 22.8324,
      "duration": 0.0159,
      "velocity": 87,
      "chip": "ym2612"
    },
    {
      "channel": 0,
      "note": 72,
      "start": 22.8417,
      "duration": 0.0161,
      "velocity": 124,
      "chip": "ym2612"
    },
    {
      "channel": 5,
      "note": 83,
      "start": 22.843,
      "duration": 0.0161,
      "velocity": 87,
      "chip": "ym2612"
    },
    {
      "channel": 3,
      "note": 71,
      "start": 22.8448,
      "duration": 0.0156,
      "velocity": 96,
      "chip": "ym2612"
    },
    {
      "channel": 2,
      "note": 71,
      "start": 22.846,
      "duration": 0.016,
      "velocity": 96,
      "chip": "ym2612"
    },
    {
      "channel": 4,
      "note": 59,
      "start": 22.8471,
      "duration": 0.016,
      "velocity": 100,
      "chip": "ym2612"
    },
    {
      "channel": 1,
      "note": 83,
      "start": 22.8483,
      "duration": 0.016,
      "velocity": 87,
      "chip": "ym2612"
    },
    {
      "channel": 0,
      "note": 70,
      "start": 22.8578,
      "duration": 0.0161,
      "velocity": 124,
      "chip": "ym2612"
    },
    {
      "channel": 5,
      "note": 83,
      "start": 22.8591,
      "duration": 0.0161,
      "velocity": 87,
      "chip": "ym2612"
    },
    {
      "channel": 3,
      "note": 71,
      "start": 22.8605,
      "duration": 0.0159,
      "velocity": 96,
      "chip": "ym2612"
    },
    {
      "channel": 4,
      "note": 59,
      "start": 22.8632,
      "duration": 0.0166,
      "velocity": 100,
      "chip": "ym2612"
    },
    {
      "channel": 1,
      "note": 83,
      "start": 22.8643,
      "duration": 0.0168,
      "velocity": 87,
      "chip": "ym2612"
    },
    {
      "channel": 0,
      "note": 68,
      "start": 22.8739,
      "duration": 0.0161,
      "velocity": 124,
      "chip": "ym2612"
    },
    {
      "channel": 5,
      "note": 83,
      "start": 22.8752,
      "duration": 0.0161,
      "velocity": 87,
      "chip": "ym2612"
    },
    {
      "channel": 3,
      "note": 71,
      "start": 22.8763,
      "duration": 0.0161,
      "velocity": 96,
      "chip": "ym2612"
    },
    {
      "channel": 2,
      "note": 76,
      "start": 22.8784,
      "duration": 0.0155,
      "velocity": 96,
      "chip": "ym2612"
    },
    {
      "channel": 4,
      "note": 52,
      "start": 22.8798,
      "duration": 0.0157,
      "velocity": 100,
      "chip": "ym2612"
    },
    {
      "channel": 1,
      "note": 83,
      "start": 22.8811,
      "duration": 0.0156,
      "velocity": 87,
      "chip": "ym2612"
    },
    {
      "channel": 0,
      "note": 65,
      "start": 22.8901,
      "duration": 0.0161,
      "velocity": 124,
      "chip": "ym2612"
    },
    {
      "channel": 5,
      "note": 83,
      "start": 22.8913,
      "duration": 0.0161,
      "velocity": 87,
      "chip": "ym2612"
    },
    {
      "channel": 3,
      "note": 71,
      "start": 22.8924,
      "duration": 0.0161,
      "velocity": 96,
      "chip": "ym2612"
    },
    {
      "channel": 2,
      "note": 76,
      "start": 22.8939,
      "duration": 0.0158,
      "velocity": 96,
      "chip": "ym2612"
    },
    {
      "channel": 4,
      "note": 52,
      "start": 22.8955,
      "duration": 0.0159,
      "velocity": 100,
      "chip": "ym2612"
    },
    {
      "channel": 1,
      "note": 83,
      "start": 22.8967,
      "duration": 0.016,
      "velocity": 87,
      "chip": "ym2612"
    },
    {
      "channel": 0,
      "note": 63,
      "start": 22.9062,
      "duration": 0.0153,
      "velocity": 1,
      "chip": "ym2612"
    },
    {
      "channel": 5,
      "note": 83,
      "start": 22.9074,
      "duration": 0.0152,
      "velocity": 87,
      "chip": "ym2612"
    },
    {
      "channel": 3,
      "note": 71,
      "start": 22.9085,
      "duration": 0.0153,
      "velocity": 96,
      "chip": "ym2612"
    },
    {
      "channel": 2,
      "note": 76,
      "start": 22.9097,
      "duration": 0.0153,
      "velocity": 96,
      "chip": "ym2612"
    },
    {
      "channel": 4,
      "note": 52,
      "start": 22.9114,
      "duration": 0.0147,
      "velocity": 100,
      "chip": "ym2612"
    },
    {
      "channel": 1,
      "note": 83,
      "start": 22.9127,
      "duration": 0.0152,
      "velocity": 87,
      "chip": "ym2612"
    },
    {
      "channel": 2,
      "note": 76,
      "start": 22.9249,
      "duration": 0.0155,
      "velocity": 96,
      "chip": "ym2612"
    },
    {
      "channel": 4,
      "note": 52,
      "start": 22.9261,
      "duration": 0.0155,
      "velocity": 100,
      "chip": "ym2612"
    },
    {
      "channel": 1,
      "note": 83,
      "start": 22.9279,
      "duration": 0.015,
      "velocity": 87,
      "chip": "ym2612"
    },
    {
      "channel": 3,
      "note": 76,
      "start": 22.9393,
      "duration": 0.0162,
      "velocity": 96,
      "chip": "ym2612"
    },
    {
      "channel": 2,
      "note": 76,
      "start": 22.9405,
      "duration": 0.0161,
      "velocity": 96,
      "chip": "ym2612"
    },
    {
      "channel": 4,
      "note": 52,
      "start": 22.9416,
      "duration": 0.0162,
      "velocity": 100,
      "chip": "ym2612"
    },
    {
      "channel": 1,
      "note": 83,
      "start": 22.9429,
      "duration": 0.0161,
      "velocity": 87,
      "chip": "ym2612"
    },
    {
      "channel": 5,
      "note": 83,
      "start": 22.9543,
      "duration": 0.0158,
      "velocity": 87,
      "chip": "ym2612"
    },
    {
      "channel": 3,
      "note": 76,
      "start": 22.9555,
      "duration": 0.0158,
      "velocity": 96,
      "chip": "ym2612"
    },
    {
      "channel": 2,
      "note": 76,
      "start": 22.9566,
      "duration": 0.0159,
      "velocity": 96,
      "chip": "ym2612"
    },
    {
      "channel": 4,
      "note": 52,
      "start": 22.9578,
      "duration": 0.0159,
      "velocity": 100,
      "chip": "ym2612"
    },
    {
      "channel": 5,
      "note": 83,
      "start": 22.9701,
      "duration": 0.0196,
      "velocity": 87,
      "chip": "ym2612"
    },
    {
      "channel": 3,
      "note": 76,
      "start": 22.9713,
      "duration": 0.0196,
      "velocity": 96,
      "chip": "ym2612"
    },
    {
      "channel": 4,
      "note": 52,
      "start": 22.9736,
      "duration": 0.0202,
      "velocity": 100,
      "chip": "ym2612"
    },
    {
      "channel": 0,
      "note": 36,
      "start": 22.9885,
      "duration": 0.0143,
      "velocity": 115,
      "chip": "ym2612"
    },
    {
      "channel": 5,
      "note": 83,
      "start": 22.9897,
      "duration": 0.0143,
      "velocity": 87,
      "chip": "ym2612"
    },
    {
      "channel": 3,
      "note": 76,
      "start": 22.9909,
      "duration": 0.0143,
      "velocity": 96,
      "chip": "ym2612"
    },
    {
      "channel": 4,
      "note": 52,
      "start": 22.9939,
      "duration": 0.0137,
      "velocity": 100,
      "chip": "ym2612"
    },
    {
      "channel": 1,
      "note": 85,
      "start": 22.9958,
      "duration": 0.0131,
      "velocity": 87,
      "chip": "ym2612"
    },
    {
      "channel": 0,
      "note": 36,
      "start": 23.0028,
      "duration": 0.016,
      "velocity": 115,
      "chip": "ym2612"
    },
    {
      "channel": 5,
      "note": 83,
      "start": 23.004,
      "duration": 0.016,
      "velocity": 87,
      "chip": "ym2612"
    },
    {
      "channel": 3,
      "note": 76,
      "start": 23.0052,
      "duration": 0.016,
      "velocity": 96,
      "chip": "ym2612"
    },
    {
      "channel": 4,
      "note": 52,
      "start": 23.0076,
      "duration": 0.016,
      "velocity": 100,
      "chip": "ym2612"
    },
    {
      "channel": 1,
      "note": 85,
      "start": 23.0089,
      "duration": 0.0159,
      "velocity": 87,
      "chip": "ym2612"
    },
    {
      "channel": 0,
      "note": 37,
      "start": 23.0188,
      "duration": 0.0162,
      "velocity": 115,
      "chip": "ym2612"
    },
    {
      "channel": 5,
      "note": 83,
      "start": 23.02,
      "duration": 0.0161,
      "velocity": 87,
      "chip": "ym2612"
    },
    {
      "channel": 3,
      "note": 76,
      "start": 23.0212,
      "duration": 0.0161,
      "velocity": 96,
      "chip": "ym2612"
    },
    {
      "channel": 4,
      "note": 52,
      "start": 23.0236,
      "duration": 0.0161,
      "velocity": 100,
      "chip": "ym2612"
    },
    {
      "channel": 1,
      "note": 85,
      "start": 23.0248,
      "duration": 0.0162,
      "velocity": 87,
      "chip": "ym2612"
    },
    {
      "channel": 0,
      "note": 37,
      "start": 23.035,
      "duration": 0.0161,
      "velocity": 115,
      "chip": "ym2612"
    },
    {
      "channel": 5,
      "note": 83,
      "start": 23.0361,
      "duration": 0.0161,
      "velocity": 87,
      "chip": "ym2612"
    },
    {
      "channel": 4,
      "note": 52,
      "start": 23.0397,
      "duration": 0.0162,
      "velocity": 100,
      "chip": "ym2612"
    },
    {
      "channel": 1,
      "note": 85,
      "start": 23.0409,
      "duration": 0.0161,
      "velocity": 87,
      "chip": "ym2612"
    },
    {
      "channel": 0,
      "note": 38,
      "start": 23.0511,
      "duration": 0.0161,
      "velocity": 115,
      "chip": "ym2612"
    },
    {
      "channel": 5,
      "note": 83,
      "start": 23.0522,
      "duration": 0.0161,
      "velocity": 87,
      "chip": "ym2612"
    },
    {
      "channel": 4,
      "note": 52,
      "start": 23.0559,
      "duration": 0.0161,
      "velocity": 100,
      "chip": "ym2612"
    },
    {
      "channel": 1,
      "note": 85,
      "start": 23.0571,
      "duration": 0.0161,
      "velocity": 87,
      "chip": "ym2612"
    },
    {
      "channel": 0,
      "note": 38,
      "start": 23.0672,
      "duration": 0.0161,
      "velocity": 115,
      "chip": "ym2612"
    },
    {
      "channel": 5,
      "note": 83,
      "start": 23.0684,
      "duration": 0.0161,
      "velocity": 87,
      "chip": "ym2612"
    },
    {
      "channel": 4,
      "note": 52,
      "start": 23.072,
      "duration": 0.0161,
      "velocity": 100,
      "chip": "ym2612"
    },
    {
      "channel": 1,
      "note": 85,
      "start": 23.0732,
      "duration": 0.0161,
      "velocity": 87,
      "chip": "ym2612"
    },
    {
      "channel": 0,
      "note": 39,
      "start": 23.0833,
      "duration": 0.0179,
      "velocity": 127,
      "chip": "ym2612"
    },
    {
      "channel": 5,
      "note": 83,
      "start": 23.0845,
      "duration": 0.018,
      "velocity": 87,
      "chip": "ym2612"
    },
    {
      "channel": 4,
      "note": 52,
      "start": 23.088,
      "duration": 0.0183,
      "velocity": 100,
      "chip": "ym2612"
    },
    {
      "channel": 1,
      "note": 85,
      "start": 23.0893,
      "duration": 0.0183,
      "velocity": 87,
      "chip": "ym2612"
    },
    {
      "channel": 0,
      "note": 84,
      "start": 23.1013,
      "duration": 0.0142,
      "velocity": 127,
      "chip": "ym2612"
    },
    {
      "channel": 5,
      "note": 83,
      "start": 23.1025,
      "duration": 0.0143,
      "velocity": 87,
      "chip": "ym2612"
    },
    {
      "channel": 2,
      "note": 68,
      "start": 23.1051,
      "duration": 0.0141,
      "velocity": 96,
      "chip": "ym2612"
    },
    {
      "channel": 4,
      "note": 52,
      "start": 23.1063,
      "duration": 0.0141,
      "velocity": 100,
      "chip": "ym2612"
    },
    {
      "channel": 1,
      "note": 85,
      "start": 23.1076,
      "duration": 0.014,
      "velocity": 87,
      "chip": "ym2612"
    },
    {
      "channel": 0,
      "note": 82,
      "start": 23.1155,
      "duration": 0.016,
      "velocity": 127,
      "chip": "ym2612"
    },
    {
      "channel": 5,
      "note": 83,
      "start": 23.1168,
      "duration": 0.0161,
      "velocity": 87,
      "chip": "ym2612"
    },
    {
      "channel": 2,
      "note": 68,
      "start": 23.1192,
      "duration": 0.016,
      "velocity": 96,
      "chip": "ym2612"
    },
    {
      "channel": 4,
      "note": 52,
      "start": 23.1204,
      "duration": 0.016,
      "velocity": 100,
      "chip": "ym2612"
    },
    {
      "channel": 1,
      "note": 85,
      "start": 23.1216,
      "duration": 0.016,
      "velocity": 87,
      "chip": "ym2612"
    },
    {
      "channel": 0,
      "note": 81,
      "start": 23.1316,
      "duration": 0.0161,
      "velocity": 127,
      "chip": "ym2612"
    },
    {
      "channel": 5,
      "note": 83,
      "start": 23.1328,
      "duration": 0.016,
      "velocity": 87,
      "chip": "ym2612"
    },
    {
      "channel": 2,
      "note": 68,
      "start": 23.1351,
      "duration": 0.0161,
      "velocity": 96,
      "chip": "ym2612"
    },
    {
      "channel": 4,
      "note": 52,
      "start": 23.1363,
      "duration": 0.016,
      "velocity": 100,
      "chip": "ym2612"
    },
    {
      "channel": 1,
      "note": 85,
      "start": 23.1376,
      "duration": 0.016,
      "velocity": 87,
      "chip": "ym2612"
    },
    {
      "channel": 0,
      "note": 79,
      "start": 23.1477,
      "duration": 0.0161,
      "velocity": 127,
      "chip": "ym2612"
    },
    {
      "channel": 2,
      "note": 68,
      "start": 23.1512,
      "duration": 0.0163,
      "velocity": 96,
      "chip": "ym2612"
    },
    {
      "channel": 4,
      "note": 52,
      "start": 23.1524,
      "duration": 0.0163,
      "velocity": 100,
      "chip": "ym2612"
    },
    {
      "channel": 1,
      "note": 85,
      "start": 23.1536,
      "duration": 0.0164,
      "velocity": 87,
      "chip": "ym2612"
    },
    {
      "channel": 0,
      "note": 77,
      "start": 23.1638,
      "duration": 0.0161,
      "velocity": 127,
      "chip": "ym2612"
    },
    {
      "channel": 3,
      "note": 68,
      "start": 23.1664,
      "duration": 0.0162,
      "velocity": 96,
      "chip": "ym2612"
    },
    {
      "channel": 2,
      "note": 68,
      "start": 23.1676,
      "duration": 0.0162,
      "velocity": 96,
      "chip": "ym2612"
    },
    {
      "channel": 4,
      "note": 52,
      "start": 23.1687,
      "duration": 0.0162,
      "velocity": 100,
      "chip": "ym2612"
    },
    {
      "channel": 1,
      "note": 85,
      "start": 23.17,
      "duration": 0.0161,
      "velocity": 87,
      "chip": "ym2612"
    },
    {
      "channel": 0,
      "note": 76,
      "start": 23.1799,
      "duration": 0.0164,
      "velocity": 127,
      "chip": "ym2612"
    },
    {
      "channel": 5,
      "note": 85,
      "start": 23.1815,
      "duration": 0.0161,
      "velocity": 87,
      "chip": "ym2612"
    },
    {
      "channel": 3,
      "note": 68,
      "start": 23.1827,
      "duration": 0.0161,
      "velocity": 96,
      "chip": "ym2612"
    },
    {
      "channel": 2,
      "note": 68,
      "start": 23.1838,
      "duration": 0.0161,
      "velocity": 96,
      "chip": "ym2612"
    },
    {
      "channel": 4,
      "note": 52,
      "start": 23.1849,
      "duration": 0.0161,
      "velocity": 100,
      "chip": "ym2612"
    },
    {
      "channel": 0,
      "note": 74,
      "start": 23.1963,
      "duration": 0.0182,
      "velocity": 127,
      "chip": "ym2612"
    },
    {
      "channel": 5,
      "note": 85,
      "start": 23.1976,
      "duration": 0.0181,
      "velocity": 87,
      "chip": "ym2612"
    },
    {
      "channel": 3,
      "note": 68,
      "start": 23.1988,
      "duration": 0.0182,
      "velocity": 96,
      "chip": "ym2612"
    },
    {
      "channel": 4,
      "note": 52,
      "start": 23.201,
      "duration": 0.0186,
      "velocity": 100,
      "chip": "ym2612"
    },
    {
      "channel": 0,
      "note": 78,
      "start": 23.2146,
      "duration": 0.0143,
      "velocity": 127,
      "chip": "ym2612"
    },
    {
      "channel": 5,
      "note": 85,
      "start": 23.2157,
      "duration": 0.0142,
      "velocity": 87,
      "chip": "ym2612"
    },
    {
      "channel": 3,
      "note": 68,
      "start": 23.2169,
      "duration": 0.0142,
      "velocity": 96,
      "chip": "ym2612"
    },
    {
      "channel": 4,
      "note": 59,
      "start": 23.2197,
      "duration": 0.0139,
      "velocity": 100,
      "chip": "ym2612"
    },
    {
      "channel": 1,
      "note": 86,
      "start": 23.2211,
      "duration": 0.0137,
      "velocity": 87,
      "chip": "ym2612"
    },
    {
      "channel": 0,
      "note": 76,
      "start": 23.2288,
      "duration": 0.016,
      "velocity": 127,
      "chip": "ym2612"
    },
    {
      "channel": 5,
      "note": 85,
      "start": 23.23,
      "duration": 0.0161,
      "velocity": 87,
      "chip": "ym2612"
    },
    {
      "channel": 3,
      "note": 68,
      "start": 23.2312,
      "duration": 0.016,
      "velocity": 96,
      "chip": "ym2612"
    },
    {
      "channel": 4,
      "note": 59,
      "start": 23.2336,
      "duration": 0.016,
      "velocity": 100,
      "chip": "ym2612"
    },
    {
      "channel": 1,
      "note": 86,
      "start": 23.2349,
      "duration": 0.0159,
      "velocity": 87,
      "chip": "ym2612"
    },
    {
      "channel": 0,
      "note": 75,
      "start": 23.2448,
      "duration": 0.0158,
      "velocity": 127,
      "chip": "ym2612"
    },
    {
      "channel": 5,
      "note": 85,
      "start": 23.2461,
      "duration": 0.0161,
      "velocity": 87,
      "chip": "ym2612"
    },
    {
      "channel": 3,
      "note": 68,
      "start": 23.2472,
      "duration": 0.0161,
      "velocity": 96,
      "chip": "ym2612"
    },
    {
      "channel": 4,
      "note": 59,
      "start": 23.2496,
      "duration": 0.0162,
      "velocity": 100,
      "chip": "ym2612"
    },
    {
      "channel": 1,
      "note": 86,
      "start": 23.2508,
      "duration": 0.0161,
      "velocity": 87,
      "chip": "ym2612"
    },
    {
      "channel": 0,
      "note": 73,
      "start": 23.2606,
      "duration": 0.0159,
      "velocity": 127,
      "chip": "ym2612"
    },
    {
      "channel": 5,
      "note": 85,
      "start": 23.2622,
      "duration": 0.016,
      "velocity": 87,
      "chip": "ym2612"
    },
    {
      "channel": 4,
      "note": 59,
      "start": 23.2657,
      "duration": 0.0161,
      "velocity": 100,
      "chip": "ym2612"
    },
    {
      "channel": 1,
      "note": 86,
      "start": 23.2669,
      "duration": 0.0162,
      "velocity": 87,
      "chip": "ym2612"
    },
    {
      "channel": 0,
      "note": 71,
      "start": 23.2765,
      "duration": 0.0161,
      "velocity": 127,
      "chip": "ym2612"
    },
    {
      "channel": 5,
      "note": 85,
      "start": 23.2782,
      "duration": 0.0162,
      "velocity": 87,
      "chip": "ym2612"
    },
    {
      "channel": 4,
      "note": 59,
      "start": 23.2819,
      "duration": 0.0161,
      "velocity": 100,
      "chip": "ym2612"
    },
    {
      "channel": 1,
      "note": 86,
      "start": 23.283,
      "duration": 0.0161,
      "velocity": 87,
      "chip": "ym2612"
    },
    {
      "channel": 0,
      "note": 70,
      "start": 23.2926,
      "duration": 0.0161,
      "velocity": 127,
      "chip": "ym2612"
    },
    {
      "channel": 5,
      "note": 85,
      "start": 23.2944,
      "duration": 0.0155,
      "velocity": 87,
      "chip": "ym2612"
    },
    {
      "channel": 4,
      "note": 59,
      "start": 23.298,
      "duration": 0.0161,
      "velocity": 100,
      "chip": "ym2612"
    },
    {
      "channel": 1,
      "note": 86,
      "start": 23.2992,
      "duration": 0.016,
      "velocity": 87,
      "chip": "ym2612"
    },
    {
      "channel": 0,
      "note": 68,
      "start": 23.3087,
      "duration": 0.0161,
      "velocity": 127,
      "chip": "ym2612"
    },
    {
      "channel": 5,
      "note": 85,
      "start": 23.3099,
      "duration": 0.0161,
      "velocity": 87,
      "chip": "ym2612"
    },
    {
      "channel": 4,
      "note": 59,
      "start": 23.3141,
      "duration": 0.0163,
      "velocity": 100,
      "chip": "ym2612"
    },
    {
      "channel": 1,
      "note": 86,
      "start": 23.3152,
      "duration": 0.0165,
      "velocity": 87,
      "chip": "ym2612"
    },
    {
      "channel": 0,
      "note": 66,
      "start": 23.3248,
      "duration": 0.0161,
      "velocity": 127,
      "chip": "ym2612"
    },
    {
      "channel": 5,
      "note": 85,
      "start": 23.326,
      "duration": 0.0162,
      "velocity": 87,
      "chip": "ym2612"
    },
    {
      "channel": 2,
      "note": 71,
      "start": 23.3292,
      "duration": 0.0159,
      "velocity": 96,
      "chip": "ym2612"
    },
    {
      "channel": 4,
      "note": 59,
      "start": 23.3304,
      "duration": 0.0158,
      "velocity": 100,
      "chip": "ym2612"
    },
    {
      "channel": 1,
      "note": 86,
      "start": 23.3317,
      "duration": 0.0158,
      "velocity": 87,
      "chip": "ym2612"
    },
    {
      "channel": 0,
      "note": 65,
      "start": 23.3409,
      "duration": 0.0161,
      "velocity": 127,
      "chip": "ym2612"
    },
    {
      "channel": 5,
      "note": 85,
      "start": 23.3421,
      "duration": 0.0161,
      "velocity": 87,
      "chip": "ym2612"
    },
    {
      "channel": 2,
      "note": 71,
      "start": 23.3451,
      "duration": 0.016,
      "velocity": 96,
      "chip": "ym2612"
    },
    {
      "channel": 4,
      "note": 59,
      "start": 23.3463,
      "duration": 0.0161,
      "velocity": 100,
      "chip": "ym2612"
    },
    {
      "channel": 1,
      "note": 86,
      "start": 23.3475,
      "duration": 0.016,
      "velocity": 87,
      "chip": "ym2612"
    },
    {
      "channel": 0,
      "note": 63,
      "start": 23.357,
      "duration": 0.0161,
      "velocity": 127,
      "chip": "ym2612"
    },
    {
      "channel": 5,
      "note": 85,
      "start": 23.3582,
      "duration": 0.016,
      "velocity": 87,
      "chip": "ym2612"
    },
    {
      "channel": 2,
      "note": 71,
      "start": 23.3611,
      "duration": 0.0158,
      "velocity": 96,
      "chip": "ym2612"
    },
    {
      "channel": 4,
      "note": 59,
      "start": 23.3624,
      "duration": 0.016,
      "velocity": 100,
      "chip": "ym2612"
    },
    {
      "channel": 1,
      "note": 86,
      "start": 23.3636,
      "duration": 0.016,
      "velocity": 87,
      "chip": "ym2612"
    },
    {
      "channel": 0,
      "note": 61,
      "start": 23.3731,
      "duration": 0.0161,
      "velocity": 127,
      "chip": "ym2612"
    },
    {
      "channel": 2,
      "note": 71,
      "start": 23.3769,
      "duration": 0.0161,
      "velocity": 96,
      "chip": "ym2612"
    },
    {
      "channel": 4,
      "note": 59,
      "start": 23.3784,
      "duration": 0.0163,
      "velocity": 100,
      "chip": "ym2612"
    },
    {
      "channel": 1,
      "note": 86,
      "start": 23.3796,
      "duration": 0.0163,
      "velocity": 87,
      "chip": "ym2612"
    },
    {
      "channel": 0,
      "note": 60,
      "start": 23.3892,
      "duration": 0.0161,
      "velocity": 127,
      "chip": "ym2612"
    },
    {
      "channel": 3,
      "note": 71,
      "start": 23.3918,
      "duration": 0.0161,
      "velocity": 96,
      "chip": "ym2612"
    },
    {
      "channel": 2,
      "note": 71,
      "start": 23.3929,
      "duration": 0.0162,
      "velocity": 96,
      "chip": "ym2612"
    },
    {
      "channel": 4,
      "note": 59,
      "start": 23.3947,
      "duration": 0.0162,
      "velocity": 100,
      "chip": "ym2612"
    },
    {
      "channel": 1,
      "note": 86,
      "start": 23.3959,
      "duration": 0.0162,
      "velocity": 87,
      "chip": "ym2612"
    },
    {
      "channel": 0,
      "note": 58,
      "start": 23.4053,
      "duration": 0.0161,
      "velocity": 127,
      "chip": "ym2612"
    },
    {
      "channel": 5,
      "note": 86,
      "start": 23.4068,
      "duration": 0.0159,
      "velocity": 87,
      "chip": "ym2612"
    },
    {
      "channel": 3,
      "note": 71,
      "start": 23.408,
      "duration": 0.0159,
      "velocity": 96,
      "chip": "ym2612"
    },
    {
      "channel": 2,
      "note": 71,
      "start": 23.4092,
      "duration": 0.0158,
      "velocity": 96,
      "chip": "ym2612"
    },
    {
      "channel": 4,
      "note": 59,
      "start": 23.4108,
      "duration": 0.0153,
      "velocity": 100,
      "chip": "ym2612"
    },
    {
      "channel": 0,
      "note": 56,
      "start": 23.4214,
      "duration": 0.0179,
      "velocity": 124,
      "chip": "ym2612"
    },
    {
      "channel": 5,
      "note": 86,
      "start": 23.4227,
      "duration": 0.0179,
      "velocity": 87,
      "chip": "ym2612"
    },
    {
      "channel": 3,
      "note": 71,
      "start": 23.4238,
      "duration": 0.0179,
      "velocity": 96,
      "chip": "ym2612"
    },
    {
      "channel": 4,
      "note": 59,
      "start": 23.4262,
      "duration": 0.0191,
      "velocity": 100,
      "chip": "ym2612"
    },
    {
      "channel": 0,
      "note": 84,
      "start": 23.4394,
      "duration": 0.0143,
      "velocity": 124,
      "chip": "ym2612"
    },
    {
      "channel": 5,
      "note": 86,
      "start": 23.4405,
      "duration": 0.0143,
      "velocity": 87,
      "chip": "ym2612"
    },
    {
      "channel": 3,
      "note": 71,
      "start": 23.4417,
      "duration": 0.0143,
      "velocity": 96,
      "chip": "ym2612"
    },
    {
      "channel": 2,
      "note": 78,
      "start": 23.4433,
      "duration": 0.0139,
      "velocity": 96,
      "chip": "ym2612"
    },
    {
      "channel": 4,
      "note": 57,
      "start": 23.4454,
      "duration": 0.013,
      "velocity": 100,
      "chip": "ym2612"
    },
    {
      "channel": 1,
      "note": 90,
      "start": 23.4469,
      "duration": 0.0128,
      "velocity": 87,
      "chip": "ym2612"
    },
    {
      "channel": 0,
      "note": 82,
      "start": 23.4537,
      "duration": 0.0161,
      "velocity": 124,
      "chip": "ym2612"
    },
    {
      "channel": 5,
      "note": 86,
      "start": 23.4549,
      "duration": 0.016,
      "velocity": 87,
      "chip": "ym2612"
    },
    {
      "channel": 3,
      "note": 71,
      "start": 23.456,
      "duration": 0.016,
      "velocity": 96,
      "chip": "ym2612"
    },
    {
      "channel": 2,
      "note": 78,
      "start": 23.4572,
      "duration": 0.016,
      "velocity": 96,
      "chip": "ym2612"
    },
    {
      "channel": 4,
      "note": 57,
      "start": 23.4584,
      "duration": 0.016,
      "velocity": 100,
      "chip": "ym2612"
    },
    {
      "channel": 1,
      "note": 90,
      "start": 23.4597,
      "duration": 0.0159,
      "velocity": 87,
      "chip": "ym2612"
    },
    {
      "channel": 0,
      "note": 80,
      "start": 23.4697,
      "duration": 0.0161,
      "velocity": 124,
      "chip": "ym2612"
    },
    {
      "channel": 5,
      "note": 86,
      "start": 23.4709,
      "duration": 0.0161,
      "velocity": 87,
      "chip": "ym2612"
    },
    {
      "channel": 3,
      "note": 71,
      "start": 23.472,
      "duration": 0.0161,
      "velocity": 96,
      "chip": "ym2612"
    },
    {
      "channel": 2,
      "note": 78,
      "start": 23.4732,
      "duration": 0.0161,
      "velocity": 96,
      "chip": "ym2612"
    },
    {
      "channel": 4,
      "note": 57,
      "start": 23.4744,
      "duration": 0.0161,
      "velocity": 100,
      "chip": "ym2612"
    },
    {
      "channel": 1,
      "note": 90,
      "start": 23.4755,
      "duration": 0.0161,
      "velocity": 87,
      "chip": "ym2612"
    },
    {
      "channel": 0,
      "note": 77,
      "start": 23.4858,
      "duration": 0.0161,
      "velocity": 124,
      "chip": "ym2612"
    },
    {
      "channel": 5,
      "note": 86,
      "start": 23.487,
      "duration": 0.0161,
      "velocity": 87,
      "chip": "ym2612"
    },
    {
      "channel": 2,
      "note": 78,
      "start": 23.4893,
      "duration": 0.0165,
      "velocity": 96,
      "chip": "ym2612"
    },
    {
      "channel": 4,
      "note": 57,
      "start": 23.4905,
      "duration": 0.0165,
      "velocity": 100,
      "chip": "ym2612"
    },
    {
      "channel": 1,
      "note": 90,
      "start": 23.4916,
      "duration": 0.0165,
      "velocity": 87,
      "chip": "ym2612"
    },
    {
      "channel": 0,
      "note": 75,
      "start": 23.5019,
      "duration": 0.0161,
      "velocity": 124,
      "chip": "ym2612"
    },
    {
      "channel": 5,
      "note": 86,
      "start": 23.5031,
      "duration": 0.0162,
      "velocity": 87,
      "chip": "ym2612"
    },
    {
      "channel": 3,
      "note": 78,
      "start": 23.5047,
      "duration": 0.0158,
      "velocity": 96,
      "chip": "ym2612"
    },
    {
      "channel": 2,
      "note": 78,
      "start": 23.5058,
      "duration": 0.0159,
      "velocity": 96,
      "chip": "ym2612"
    },
    {
      "channel": 4,
      "note": 57,
      "start": 23.507,
      "duration": 0.0158,
      "velocity": 100,
      "chip": "ym2612"
    },
    {
      "channel": 1,
      "note": 90,
      "start": 23.5081,
      "duration": 0.0159,
      "velocity": 87,
      "chip": "ym2612"
    },
    {
      "channel": 0,
      "note": 72,
      "start": 23.518,
      "duration": 0.0161,
      "velocity": 124,
      "chip": "ym2612"
    },
    {
      "channel": 5,
      "note": 86,
      "start": 23.5193,
      "duration": 0.016,
      "velocity": 87,
      "chip": "ym2612"
    },
    {
      "channel": 3,
      "note": 78,
      "start": 23.5205,
      "duration": 0.016,
      "velocity": 96,
      "chip": "ym2612"
    },
    {
      "channel": 2,
      "note": 78,
      "start": 23.5217,
      "duration": 0.016,
      "velocity": 96,
      "chip": "ym2612"
    },
    {
      "channel": 4,
      "note": 57,
      "start": 23.5228,
      "duration": 0.016,
      "velocity": 100,
      "chip": "ym2612"
    },
    {
      "channel": 1,
      "note": 90,
      "start": 23.524,
      "duration": 0.016,
      "velocity": 87,
      "chip": "ym2612"
    },
    {
      "channel": 0,
      "note": 70,
      "start": 23.5341,
      "duration": 0.0179,
      "velocity": 115,
      "chip": "ym2612"
    },
    {
      "channel": 5,
      "note": 86,
      "start": 23.5353,
      "duration": 0.0179,
      "velocity": 87,
      "chip": "ym2612"
    },
    {
      "channel": 3,
      "note": 78,
      "start": 23.5365,
      "duration": 0.018,
      "velocity": 96,
      "chip": "ym2612"
    },
    {
      "channel": 4,
      "note": 57,
      "start": 23.5388,
      "duration": 0.0183,
      "velocity": 100,
      "chip": "ym2612"
    },
    {
      "channel": 1,
      "note": 90,
      "start": 23.54,
      "duration": 0.0183,
      "velocity": 87,
      "chip": "ym2612"
    },
    {
      "channel": 0,
      "note": 36,
      "start": 23.552,
      "duration": 0.0143,
      "velocity": 115,
      "chip": "ym2612"
    },
    {
      "channel": 5,
      "note": 86,
      "start": 23.5533,
      "duration": 0.0143,
      "velocity": 87,
      "chip": "ym2612"
    },
    {
      "channel": 3,
      "note": 78,
      "start": 23.5545,
      "duration": 0.0143,
      "velocity": 96,
      "chip": "ym2612"
    },
    {
      "channel": 2,
      "note": 67,
      "start": 23.5559,
      "duration": 0.0141,
      "velocity": 96,
      "chip": "ym2612"
    },
    {
      "channel": 4,
      "note": 57,
      "start": 23.5571,
      "duration": 0.0141,
      "velocity": 100,
      "chip": "ym2612"
    },
    {
      "channel": 1,
      "note": 90,
      "start": 23.5582,
      "duration": 0.0141,
      "velocity": 87,
      "chip": "ym2612"
    },
    {
      "channel": 0,
      "note": 36,
      "start": 23.5664,
      "duration": 0.016,
      "velocity": 115,
      "chip": "ym2612"
    },
    {
      "channel": 5,
      "note": 86,
      "start": 23.5676,
      "duration": 0.0161,
      "velocity": 87,
      "chip": "ym2612"
    },
    {
      "channel": 3,
      "note": 78,
      "start": 23.5688,
      "duration": 0.016,
      "velocity": 96,
      "chip": "ym2612"
    },
    {
      "channel": 2,
      "note": 67,
      "start": 23.57,
      "duration": 0.016,
      "velocity": 96,
      "chip": "ym2612"
    },
    {
      "channel": 4,
      "note": 57,
      "start": 23.5711,
      "duration": 0.016,
      "velocity": 100,
      "chip": "ym2612"
    },
    {
      "channel": 1,
      "note": 90,
      "start": 23.5723,
      "duration": 0.016,
      "velocity": 87,
      "chip": "ym2612"
    },
    {
      "channel": 0,
      "note": 37,
      "start": 23.5824,
      "duration": 0.0161,
      "velocity": 115,
      "chip": "ym2612"
    },
    {
      "channel": 5,
      "note": 86,
      "start": 23.5837,
      "duration": 0.016,
      "velocity": 87,
      "chip": "ym2612"
    },
    {
      "channel": 3,
      "note": 78,
      "start": 23.5848,
      "duration": 0.016,
      "velocity": 96,
      "chip": "ym2612"
    },
    {
      "channel": 2,
      "note": 67,
      "start": 23.586,
      "duration": 0.0161,
      "velocity": 96,
      "chip": "ym2612"
    },
    {
      "channel": 4,
      "note": 57,
      "start": 23.5871,
      "duration": 0.0161,
      "velocity": 100,
      "chip": "ym2612"
    },
    {
      "channel": 1,
      "note": 90,
      "start": 23.5883,
      "duration": 0.016,
      "velocity": 87,
      "chip": "ym2612"
    },
    {
      "channel": 0,
      "note": 37,
      "start": 23.5985,
      "duration": 0.0161,
      "velocity": 115,
      "chip": "ym2612"
    },
    {
      "channel": 2,
      "note": 67,
      "start": 23.602,
      "duration": 0.0163,
      "velocity": 96,
      "chip": "ym2612"
    },
    {
      "channel": 4,
      "note": 57,
      "start": 23.6032,
      "duration": 0.0163,
      "velocity": 100,
      "chip": "ym2612"
    },
    {
      "channel": 1,
      "note": 90,
      "start": 23.6043,
      "duration": 0.0163,
      "velocity": 87,
      "chip": "ym2612"
    },
    {
      "channel": 0,
      "note": 38,
      "start": 23.6146,
      "duration": 0.0162,
      "velocity": 115,
      "chip": "ym2612"
    },
    {
      "channel": 3,
      "note": 67,
      "start": 23.6173,
      "duration": 0.0162,
      "velocity": 96,
      "chip": "ym2612"
    },
    {
      "channel": 2,
      "note": 67,
      "start": 23.6184,
      "duration": 0.0163,
      "velocity": 96,
      "chip": "ym2612"
    },
    {
      "channel": 4,
      "note": 57,
      "start": 23.6195,
      "duration": 0.0163,
      "velocity": 100,
      "chip": "ym2612"
    },
    {
      "channel": 1,
      "note": 90,
      "start": 23.6207,
      "duration": 0.0163,
      "velocity": 87,
      "chip": "ym2612"
    },
    {
      "channel": 0,
      "note": 38,
      "start": 23.6307,
      "duration": 0.0161,
      "velocity": 115,
      "chip": "ym2612"
    },
    {
      "channel": 5,
      "note": 90,
      "start": 23.6323,
      "duration": 0.0158,
      "velocity": 87,
      "chip": "ym2612"
    },
    {
      "channel": 3,
      "note": 67,
      "start": 23.6335,
      "duration": 0.0157,
      "velocity": 96,
      "chip": "ym2612"
    },
    {
      "channel": 2,
      "note": 67,
      "start": 23.6347,
      "duration": 0.0157,
      "velocity": 96,
      "chip": "ym2612"
    },
    {
      "channel": 4,
      "note": 57,
      "start": 23.6358,
      "duration": 0.0157,
      "velocity": 100,
      "chip": "ym2612"
    },
    {
      "channel": 1,
      "note": 90,
      "start": 23.637,
      "duration": 0.0157,
      "velocity": 87,
      "chip": "ym2612"
    },
    {
      "channel": 0,
      "note": 39,
      "start": 23.6468,
      "duration": 0.0162,
      "velocity": 115,
      "chip": "ym2612"
    },
    {
      "channel": 5,
      "note": 90,
      "start": 23.648,
      "duration": 0.0161,
      "velocity": 87,
      "chip": "ym2612"
    },
    {
      "channel": 3,
      "note": 67,
      "start": 23.6492,
      "duration": 0.0161,
      "velocity": 96,
      "chip": "ym2612"
    },
    {
      "channel": 4,
      "note": 57,
      "start": 23.6515,
      "duration": 0.0163,
      "velocity": 100,
      "chip": "ym2612"
    },
    {
      "channel": 1,
      "note": 90,
      "start": 23.6527,
      "duration": 0.0164,
      "velocity": 87,
      "chip": "ym2612"
    },
    {
      "channel": 0,
      "note": 39,
      "start": 23.663,
      "duration": 0.0164,
      "velocity": 115,
      "chip": "ym2612"
    },
    {
      "channel": 5,
      "note": 90,
      "start": 23.6641,
      "duration": 0.0164,
      "velocity": 87,
      "chip": "ym2612"
    },
    {
      "channel": 3,
      "note": 67,
      "start": 23.6653,
      "duration": 0.0165,
      "velocity": 96,
      "chip": "ym2612"
    },
    {
      "channel": 2,
      "note": 73,
      "start": 23.6668,
      "duration": 0.0162,
      "velocity": 96,
      "chip": "ym2612"
    },
    {
      "channel": 4,
      "note": 57,
      "start": 23.6679,
      "duration": 0.0162,
      "velocity": 100,
      "chip": "ym2612"
    },
    {
      "channel": 1,
      "note": 90,
      "start": 23.6691,
      "duration": 0.0162,
      "velocity": 87,
      "chip": "ym2612"
    },
    {
      "channel": 0,
      "note": 40,
      "start": 23.6794,
      "duration": 0.0163,
      "velocity": 115,
      "chip": "ym2612"
    },
    {
      "channel": 5,
      "note": 90,
      "start": 23.6805,
      "duration": 0.0163,
      "velocity": 87,
      "chip": "ym2612"
    },
    {
      "channel": 3,
      "note": 67,
      "start": 23.6818,
      "duration": 0.0163,
      "velocity": 96,
      "chip": "ym2612"
    },
    {
      "channel": 2,
      "note": 73,
      "start": 23.683,
      "duration": 0.0162,
      "velocity": 96,
      "chip": "ym2612"
    },
    {
      "channel": 4,
      "note": 57,
      "start": 23.6841,
      "duration": 0.0162,
      "velocity": 100,
      "chip": "ym2612"
    },
    {
      "channel": 1,
      "note": 90,
      "start": 23.6853,
      "duration": 0.0162,
      "velocity": 87,
      "chip": "ym2612"
    },
    {
      "channel": 0,
      "note": 40,
      "start": 23.6957,
      "duration": 0.0162,
      "velocity": 115,
      "chip": "ym2612"
    },
    {
      "channel": 5,
      "note": 90,
      "start": 23.6969,
      "duration": 0.0161,
      "velocity": 87,
      "chip": "ym2612"
    },
    {
      "channel": 3,
      "note": 67,
      "start": 23.698,
      "duration": 0.0161,
      "velocity": 96,
      "chip": "ym2612"
    },
    {
      "channel": 2,
      "note": 73,
      "start": 23.6992,
      "duration": 0.0162,
      "velocity": 96,
      "chip": "ym2612"
    },
    {
      "channel": 4,
      "note": 57,
      "start": 23.7003,
      "duration": 0.0161,
      "velocity": 100,
      "chip": "ym2612"
    },
    {
      "channel": 1,
      "note": 90,
      "start": 23.7015,
      "duration": 0.0162,
      "velocity": 87,
      "chip": "ym2612"
    },
    {
      "channel": 0,
      "note": 40,
      "start": 23.7119,
      "duration": 0.016,
      "velocity": 115,
      "chip": "ym2612"
    },
    {
      "channel": 5,
      "note": 90,
      "start": 23.713,
      "duration": 0.0161,
      "velocity": 87,
      "chip": "ym2612"
    },
    {
      "channel": 2,
      "note": 73,
      "start": 23.7154,
      "duration": 0.0163,
      "velocity": 96,
      "chip": "ym2612"
    },
    {
      "channel": 4,
      "note": 57,
      "start": 23.7165,
      "duration": 0.0163,
      "velocity": 100,
      "chip": "ym2612"
    },
    {
      "channel": 1,
      "note": 90,
      "start": 23.7178,
      "duration": 0.0163,
      "velocity": 87,
      "chip": "ym2612"
    },
    {
      "channel": 0,
      "note": 41,
      "start": 23.7279,
      "duration": 0.0158,
      "velocity": 115,
      "chip": "ym2612"
    },
    {
      "channel": 5,
      "note": 90,
      "start": 23.7291,
      "duration": 0.0161,
      "velocity": 87,
      "chip": "ym2612"
    },
    {
      "channel": 3,
      "note": 73,
      "start": 23.7305,
      "duration": 0.0159,
      "velocity": 96,
      "chip": "ym2612"
    },
    {
      "channel": 2,
      "note": 73,
      "start": 23.7317,
      "duration": 0.0159,
      "velocity": 96,
      "chip": "ym2612"
    },
    {
      "channel": 4,
      "note": 57,
      "start": 23.7328,
      "duration": 0.0159,
      "velocity": 100,
      "chip": "ym2612"
    },
    {
      "channel": 1,
      "note": 90,
      "start": 23.7341,
      "duration": 0.0159,
      "velocity": 87,
      "chip": "ym2612"
    },
    {
      "channel": 0,
      "note": 41,
      "start": 23.7437,
      "duration": 0.0159,
      "velocity": 115,
      "chip": "ym2612"
    },
    {
      "channel": 5,
      "note": 90,
      "start": 23.7452,
      "duration": 0.016,
      "velocity": 87,
      "chip": "ym2612"
    },
    {
      "channel": 3,
      "note": 73,
      "start": 23.7465,
      "duration": 0.016,
      "velocity": 96,
      "chip": "ym2612"
    },
    {
      "channel": 2,
      "note": 73,
      "start": 23.7476,
      "duration": 0.016,
      "velocity": 96,
      "chip": "ym2612"
    },
    {
      "channel": 4,
      "note": 57,
      "start": 23.7488,
      "duration": 0.016,
      "velocity": 100,
      "chip": "ym2612"
    },
    {
      "channel": 0,
      "note": 42,
      "start": 23.7595,
      "duration": 0.0184,
      "velocity": 124,
      "chip": "ym2612"
    },
    {
      "channel": 5,
      "note": 90,
      "start": 23.7612,
      "duration": 0.018,
      "velocity": 87,
      "chip": "ym2612"
    },
    {
      "channel": 3,
      "note": 73,
      "start": 23.7625,
      "duration": 0.0179,
      "velocity": 96,
      "chip": "ym2612"
    },
    {
      "channel": 4,
      "note": 57,
      "start": 23.7648,
      "duration": 0.0185,
      "velocity": 100,
      "chip": "ym2612"
    },
    {
      "channel": 0,
      "note": 84,
      "start": 23.7781,
      "duration": 0.0137,
      "velocity": 124,
      "chip": "ym2612"
    },
    {
      "channel": 5,
      "note": 90,
      "start": 23.7792,
      "duration": 0.0137,
      "velocity": 87,
      "chip": "ym2612"
    },
    {
      "channel": 3,
      "note": 73,
      "start": 23.7804,
      "duration": 0.0142,
      "velocity": 96,
      "chip": "ym2612"
    },
    {
      "channel": 2,
      "note": 78,
      "start": 23.7819,
      "duration": 0.0141,
      "velocity": 96,
      "chip": "ym2612"
    },
    {
      "channel": 4,
      "note": 52,
      "start": 23.7833,
      "duration": 0.0139,
      "velocity": 100,
      "chip": "ym2612"
    },
    {
      "channel": 1,
      "note": 90,
      "start": 23.7847,
      "duration": 0.0137,
      "velocity": 87,
      "chip": "ym2612"
    },
    {
      "channel": 0,
      "note": 82,
      "start": 23.7918,
      "duration": 0.016,
      "velocity": 124,
      "chip": "ym2612"
    },
    {
      "channel": 5,
      "note": 90,
      "start": 23.7929,
      "duration": 0.016,
      "velocity": 87,
      "chip": "ym2612"
    },
    {
      "channel": 3,
      "note": 73,
      "start": 23.7947,
      "duration": 0.0157,
      "velocity": 96,
      "chip": "ym2612"
    },
    {
      "channel": 2,
      "note": 78,
      "start": 23.7959,
      "duration": 0.016,
      "velocity": 96,
      "chip": "ym2612"
    },
    {
      "channel": 4,
      "note": 52,
      "start": 23.7971,
      "duration": 0.0159,
      "velocity": 100,
      "chip": "ym2612"
    },
    {
      "channel": 1,
      "note": 90,
      "start": 23.7984,
      "duration": 0.0158,
      "velocity": 87,
      "chip": "ym2612"
    },
    {
      "channel": 0,
      "note": 80,
      "start": 23.8078,
      "duration": 0.0161,
      "velocity": 124,
      "chip": "ym2612"
    },
    {
      "channel": 5,
      "note": 90,
      "start": 23.809,
      "duration": 0.0161,
      "velocity": 87,
      "chip": "ym2612"
    },
    {
      "channel": 3,
      "note": 73,
      "start": 23.8104,
      "duration": 0.0159,
      "velocity": 96,
      "chip": "ym2612"
    },
    {
      "channel": 2,
      "note": 78,
      "start": 23.8119,
      "duration": 0.0161,
      "velocity": 96,
      "chip": "ym2612"
    },
    {
      "channel": 4,
      "note": 52,
      "start": 23.8131,
      "duration": 0.0161,
      "velocity": 100,
      "chip": "ym2612"
    },
    {
      "channel": 1,
      "note": 90,
      "start": 23.8143,
      "duration": 0.0161,
      "velocity": 87,
      "chip": "ym2612"
    },
    {
      "channel": 0,
      "note": 77,
      "start": 23.8239,
      "duration": 0.0161,
      "velocity": 124,
      "chip": "ym2612"
    },
    {
      "channel": 5,
      "note": 90,
      "start": 23.8251,
      "duration": 0.0161,
      "velocity": 87,
      "chip": "ym2612"
    },
    {
      "channel": 2,
      "note": 78,
      "start": 23.828,
      "duration": 0.0163,
      "velocity": 96,
      "chip": "ym2612"
    },
    {
      "channel": 4,
      "note": 52,
      "start": 23.8292,
      "duration": 0.0163,
      "velocity": 100,
      "chip": "ym2612"
    },
    {
      "channel": 1,
      "note": 90,
      "start": 23.8304,
      "duration": 0.0163,
      "velocity": 87,
      "chip": "ym2612"
    },
    {
      "channel": 0,
      "note": 75,
      "start": 23.84,
      "duration": 0.0161,
      "velocity": 124,
      "chip": "ym2612"
    },
    {
      "channel": 5,
      "note": 90,
      "start": 23.8412,
      "duration": 0.0161,
      "velocity": 87,
      "chip": "ym2612"
    },
    {
      "channel": 3,
      "note": 78,
      "start": 23.8426,
      "duration": 0.0159,
      "velocity": 96,
      "chip": "ym2612"
    },
    {
      "channel": 2,
      "note": 78,
      "start": 23.8444,
      "duration": 0.0154,
      "velocity": 96,
      "chip": "ym2612"
    },
    {
      "channel": 4,
      "note": 52,
      "start": 23.8456,
      "duration": 0.0159,
      "velocity": 100,
      "chip": "ym2612"
    },
    {
      "channel": 1,
      "note": 90,
      "start": 23.8467,
      "duration": 0.0159,
      "velocity": 87,
      "chip": "ym2612"
    },
    {
      "channel": 0,
      "note": 72,
      "start": 23.8561,
      "duration": 0.0161,
      "velocity": 124,
      "chip": "ym2612"
    },
    {
      "channel": 5,
      "note": 90,
      "start": 23.8573,
      "duration": 0.0161,
      "velocity": 87,
      "chip": "ym2612"
    },
    {
      "channel": 3,
      "note": 78,
      "start": 23.8585,
      "duration": 0.0161,
      "velocity": 96,
      "chip": "ym2612"
    },
    {
      "channel": 2,
      "note": 78,
      "start": 23.8598,
      "duration": 0.016,
      "velocity": 96,
      "chip": "ym2612"
    },
    {
      "channel": 4,
      "note": 52,
      "start": 23.8615,
      "duration": 0.0157,
      "velocity": 100,
      "chip": "ym2612"
    },
    {
      "channel": 1,
      "note": 90,
      "start": 23.8626,
      "duration": 0.0161,
      "velocity": 87,
      "chip": "ym2612"
    },
    {
      "channel": 0,
      "note": 70,
      "start": 23.8722,
      "duration": 0.0179,
      "velocity": 115,
      "chip": "ym2612"
    },
    {
      "channel": 5,
      "note": 90,
      "start": 23.8734,
      "duration": 0.0179,
      "velocity": 87,
      "chip": "ym2612"
    },
    {
      "channel": 3,
      "note": 78,
      "start": 23.8746,
      "duration": 0.018,
      "velocity": 96,
      "chip": "ym2612"
    },
    {
      "channel": 4,
      "note": 52,
      "start": 23.8772,
      "duration": 0.0187,
      "velocity": 100,
      "chip": "ym2612"
    },
    {
      "channel": 1,
      "note": 90,
      "start": 23.8787,
      "duration": 0.0184,
      "velocity": 87,
      "chip": "ym2612"
    },
    {
      "channel": 0,
      "note": 36,
      "start": 23.8902,
      "duration": 0.0142,
      "velocity": 115,
      "chip": "ym2612"
    },
    {
      "channel": 5,
      "note": 90,
      "start": 23.8914,
      "duration": 0.0144,
      "velocity": 87,
      "chip": "ym2612"
    },
    {
      "channel": 3,
      "note": 78,
      "start": 23.8926,
      "duration": 0.0144,
      "velocity": 96,
      "chip": "ym2612"
    },
    {
      "channel": 4,
      "note": 52,
      "start": 23.8959,
      "duration": 0.0134,
      "velocity": 100,
      "chip": "ym2612"
    },
    {
      "channel": 1,
      "note": 90,
      "start": 23.8971,
      "duration": 0.014,
      "velocity": 87,
      "chip": "ym2612"
    },
    {
      "channel": 0,
      "note": 36,
      "start": 23.9045,
      "duration": 0.016,
      "velocity": 115,
      "chip": "ym2612"
    },
    {
      "channel": 5,
      "note": 90,
      "start": 23.9057,
      "duration": 0.016,
      "velocity": 87,
      "chip": "ym2612"
    },
    {
      "channel": 3,
      "note": 78,
      "start": 23.907,
      "duration": 0.016,
      "velocity": 96,
      "chip": "ym2612"
    },
    {
      "channel": 4,
      "note": 52,
      "start": 23.9094,
      "duration": 0.016,
      "velocity": 100,
      "chip": "ym2612"
    },
    {
      "channel": 1,
      "note": 90,
      "start": 23.9111,
      "duration": 0.0155,
      "velocity": 87,
      "chip": "ym2612"
    },
    {
      "channel": 0,
      "note": 37,
      "start": 23.9205,
      "duration": 0.0162,
      "velocity": 115,
      "chip": "ym2612"
    },
    {
      "channel": 5,
      "note": 90,
      "start": 23.9218,
      "duration": 0.0161,
      "velocity": 87,
      "chip": "ym2612"
    },
    {
      "channel": 3,
      "note": 78,
      "start": 23.9229,
      "duration": 0.0161,
      "velocity": 96,
      "chip": "ym2612"
    },
    {
      "channel": 4,
      "note": 52,
      "start": 23.9253,
      "duration": 0.0162,
      "velocity": 100,
      "chip": "ym2612"
    },
    {
      "channel": 1,
      "note": 90,
      "start": 23.9266,
      "duration": 0.0161,
      "velocity": 87,
      "chip": "ym2612"
    },
    {
      "channel": 0,
      "note": 37,
      "start": 23.9367,
      "duration": 0.0161,
      "velocity": 115,
      "chip": "ym2612"
    },
    {
      "channel": 4,
      "note": 52,
      "start": 23.9415,
      "duration": 0.0161,
      "velocity": 100,
      "chip": "ym2612"
    },
    {
      "channel": 1,
      "note": 90,
      "start": 23.9426,
      "duration": 0.0162,
      "velocity": 87,
      "chip": "ym2612"
    },
    {
      "channel": 0,
      "note": 38,
      "start": 23.9527,
      "duration": 0.0161,
      "velocity": 115,
      "chip": "ym2612"
    },
    {
      "channel": 4,
      "note": 52,
      "start": 23.9576,
      "duration": 0.0163,
      "velocity": 100,
      "chip": "ym2612"
    },
    {
      "channel": 1,
      "note": 90,
      "start": 23.9588,
      "duration": 0.0162,
      "velocity": 87,
      "chip": "ym2612"
    },
    {
      "channel": 0,
      "note": 38,
      "start": 23.9688,
      "duration": 0.0161,
      "velocity": 115,
      "chip": "ym2612"
    },
    {
      "channel": 5,
      "note": 90,
      "start": 23.9703,
      "duration": 0.0158,
      "velocity": 87,
      "chip": "ym2612"
    },
    {
      "channel": 4,
      "note": 52,
      "start": 23.9739,
      "duration": 0.0159,
      "velocity": 100,
      "chip": "ym2612"
    },
    {
      "channel": 1,
      "note": 90,
      "start": 23.975,
      "duration": 0.0159,
      "velocity": 87,
      "chip": "ym2612"
    },
    {
      "channel": 0,
      "note": 39,
      "start": 23.9849,
      "duration": 0.0161,
      "velocity": 115,
      "chip": "ym2612"
    },
    {
      "channel": 5,
      "note": 90,
      "start": 23.9861,
      "duration": 0.016,
      "velocity": 87,
      "chip": "ym2612"
    },
    {
      "channel": 4,
      "note": 52,
      "start": 23.9898,
      "duration": 0.0162,
      "velocity": 100,
      "chip": "ym2612"
    },
    {
      "channel": 1,
      "note": 90,
      "start": 23.9909,
      "duration": 0.0162,
      "velocity": 87,
      "chip": "ym2612"
    },
    {
      "channel": 0,
      "note": 39,
      "start": 24.001,
      "duration": 0.0161,
      "velocity": 115,
      "chip": "ym2612"
    },
    {
      "channel": 5,
      "note": 90,
      "start": 24.0022,
      "duration": 0.0162,
      "velocity": 87,
      "chip": "ym2612"
    },
    {
      "channel": 2,
      "note": 67,
      "start": 24.0049,
      "duration": 0.0158,
      "velocity": 96,
      "chip": "ym2612"
    },
    {
      "channel": 4,
      "note": 52,
      "start": 24.006,
      "duration": 0.0159,
      "velocity": 100,
      "chip": "ym2612"
    },
    {
      "channel": 1,
      "note": 90,
      "start": 24.0071,
      "duration": 0.0159,
      "velocity": 87,
      "chip": "ym2612"
    },
    {
      "channel": 0,
      "note": 40,
      "start": 24.0171,
      "duration": 0.0161,
      "velocity": 115,
      "chip": "ym2612"
    },
    {
      "channel": 5,
      "note": 90,
      "start": 24.0183,
      "duration": 0.0161,
      "velocity": 87,
      "chip": "ym2612"
    },
    {
      "channel": 2,
      "note": 67,
      "start": 24.0207,
      "duration": 0.016,
      "velocity": 96,
      "chip": "ym2612"
    },
    {
      "channel": 4,
      "note": 52,
      "start": 24.0218,
      "duration": 0.016,
      "velocity": 100,
      "chip": "ym2612"
    },
    {
      "channel": 1,
      "note": 90,
      "start": 24.023,
      "duration": 0.016,
      "velocity": 87,
      "chip": "ym2612"
    },
    {
      "channel": 0,
      "note": 40,
      "start": 24.0332,
      "duration": 0.0161,
      "velocity": 115,
      "chip": "ym2612"
    },
    {
      "channel": 5,
      "note": 90,
      "start": 24.0344,
      "duration": 0.0161,
      "velocity": 87,
      "chip": "ym2612"
    },
    {
      "channel": 2,
      "note": 67,
      "start": 24.0367,
      "duration": 0.0162,
      "velocity": 96,
      "chip": "ym2612"
    },
    {
      "channel": 4,
      "note": 52,
      "start": 24.0379,
      "duration": 0.0161,
      "velocity": 100,
      "chip": "ym2612"
    },
    {
      "channel": 1,
      "note": 90,
      "start": 24.0391,
      "duration": 0.0162,
      "velocity": 87,
      "chip": "ym2612"
    },
    {
      "channel": 0,
      "note": 40,
      "start": 24.0493,
      "duration": 0.0161,
      "velocity": 115,
      "chip": "ym2612"
    },
    {
      "channel": 5,
      "note": 90,
      "start": 24.0505,
      "duration": 0.0161,
      "velocity": 87,
      "chip": "ym2612"
    },
    {
      "channel": 2,
      "note": 67,
      "start": 24.0529,
      "duration": 0.0163,
      "velocity": 96,
      "chip": "ym2612"
    },
    {
      "channel": 4,
      "note": 52,
      "start": 24.054,
      "duration": 0.0163,
      "velocity": 100,
      "chip": "ym2612"
    },
    {
      "channel": 1,
      "note": 90,
      "start": 24.0553,
      "duration": 0.0163,
      "velocity": 87,
      "chip": "ym2612"
    },
    {
      "channel": 0,
      "note": 41,
      "start": 24.0654,
      "duration": 0.0161,
      "velocity": 115,
      "chip": "ym2612"
    },
    {
      "channel": 5,
      "note": 90,
      "start": 24.0666,
      "duration": 0.0161,
      "velocity": 87,
      "chip": "ym2612"
    },
    {
      "channel": 3,
      "note": 67,
      "start": 24.0681,
      "duration": 0.0159,
      "velocity": 96,
      "chip": "ym2612"
    },
    {
      "channel": 2,
      "note": 67,
      "start": 24.0692,
      "duration": 0.0158,
      "velocity": 96,
      "chip": "ym2612"
    },
    {
      "channel": 4,
      "note": 52,
      "start": 24.0704,
      "duration": 0.0159,
      "velocity": 100,
      "chip": "ym2612"
    },
    {
      "channel": 1,
      "note": 90,
      "start": 24.0717,
      "duration": 0.0158,
      "velocity": 87,
      "chip": "ym2612"
    },
    {
      "channel": 0,
      "note": 41,
      "start": 24.0816,
      "duration": 0.0161,
      "velocity": 115,
      "chip": "ym2612"
    },
    {
      "channel": 5,
      "note": 90,
      "start": 24.0827,
      "duration": 0.0161,
      "velocity": 87,
      "chip": "ym2612"
    },
    {
      "channel": 3,
      "note": 67,
      "start": 24.0839,
      "duration": 0.016,
      "velocity": 96,
      "chip": "ym2612"
    },
    {
      "channel": 2,
      "note": 67,
      "start": 24.0851,
      "duration": 0.0161,
      "velocity": 96,
      "chip": "ym2612"
    },
    {
      "channel": 4,
      "note": 52,
      "start": 24.0862,
      "duration": 0.0161,
      "velocity": 100,
      "chip": "ym2612"
    },
    {
      "channel": 0,
      "note": 42,
      "start": 24.0977,
      "duration": 0.0179,
      "velocity": 124,
      "chip": "ym2612"
    },
    {
      "channel": 5,
      "note": 90,
      "start": 24.0988,
      "duration": 0.018,
      "velocity": 87,
      "chip": "ym2612"
    },
    {
      "channel": 3,
      "note": 67,
      "start": 24.1,
      "duration": 0.0179,
      "velocity": 96,
      "chip": "ym2612"
    },
    {
      "channel": 4,
      "note": 52,
      "start": 24.1023,
      "duration": 0.018,
      "velocity": 100,
      "chip": "ym2612"
    },
    {
      "channel": 0,
      "note": 84,
      "start": 24.1156,
      "duration": 0.0144,
      "velocity": 124,
      "chip": "ym2612"
    },
    {
      "channel": 5,
      "note": 90,
      "start": 24.1168,
      "duration": 0.0144,
      "velocity": 87,
      "chip": "ym2612"
    },
    {
      "channel": 3,
      "note": 67,
      "start": 24.1179,
      "duration": 0.0144,
      "velocity": 96,
      "chip": "ym2612"
    },
    {
      "channel": 4,
      "note": 52,
      "start": 24.1204,
      "duration": 0.0143,
      "velocity": 100,
      "chip": "ym2612"
    },
    {
      "channel": 1,
      "note": 88,
      "start": 24.122,
      "duration": 0.0139,
      "velocity": 87,
      "chip": "ym2612"
    },
    {
      "channel": 0,
      "note": 82,
      "start": 24.13,
      "duration": 0.0163,
      "velocity": 124,
      "chip": "ym2612"
    },
    {
      "channel": 5,
      "note": 90,
      "start": 24.1311,
      "duration": 0.0163,
      "velocity": 87,
      "chip": "ym2612"
    },
    {
      "channel": 3,
      "note": 67,
      "start": 24.1323,
      "duration": 0.0163,
      "velocity": 96,
      "chip": "ym2612"
    },
    {
      "channel": 4,
      "note": 52,
      "start": 24.1347,
      "duration": 0.0162,
      "velocity": 100,
      "chip": "ym2612"
    },
    {
      "channel": 1,
      "note": 88,
      "start": 24.1359,
      "duration": 0.0162,
      "velocity": 87,
      "chip": "ym2612"
    },
    {
      "channel": 0,
      "note": 80,
      "start": 24.1463,
      "duration": 0.0163,
      "velocity": 124,
      "chip": "ym2612"
    },
    {
      "channel": 5,
      "note": 90,
      "start": 24.1474,
      "duration": 0.0163,
      "velocity": 87,
      "chip": "ym2612"
    },
    {
      "channel": 3,
      "note": 67,
      "start": 24.1485,
      "duration": 0.0163,
      "velocity": 96,
      "chip": "ym2612"
    },
    {
      "channel": 4,
      "note": 52,
      "start": 24.1509,
      "duration": 0.0164,
      "velocity": 100,
      "chip": "ym2612"
    },
    {
      "channel": 1,
      "note": 88,
      "start": 24.1521,
      "duration": 0.0163,
      "velocity": 87,
      "chip": "ym2612"
    },
    {
      "channel": 0,
      "note": 77,
      "start": 24.1625,
      "duration": 0.0162,
      "velocity": 124,
      "chip": "ym2612"
    },
    {
      "channel": 5,
      "note": 90,
      "start": 24.1638,
      "duration": 0.0161,
      "velocity": 87,
      "chip": "ym2612"
    },
    {
      "channel": 4,
      "note": 52,
      "start": 24.1673,
      "duration": 0.0162,
      "velocity": 100,
      "chip": "ym2612"
    },
    {
      "channel": 1,
      "note": 88,
      "start": 24.1685,
      "duration": 0.0163,
      "velocity": 87,
      "chip": "ym2612"
    },
    {
      "channel": 0,
      "note": 75,
      "start": 24.1788,
      "duration": 0.0161,
      "velocity": 124,
      "chip": "ym2612"
    },
    {
      "channel": 5,
      "note": 90,
      "start": 24.1799,
      "duration": 0.0162,
      "velocity": 87,
      "chip": "ym2612"
    },
    {
      "channel": 4,
      "note": 52,
      "start": 24.1835,
      "duration": 0.016,
      "velocity": 100,
      "chip": "ym2612"
    },
    {
      "channel": 1,
      "note": 88,
      "start": 24.1847,
      "duration": 0.016,
      "velocity": 87,
      "chip": "ym2612"
    },
    {
      "channel": 0,
      "note": 72,
      "start": 24.1949,
      "duration": 0.016,
      "velocity": 124,
      "chip": "ym2612"
    },
    {
      "channel": 5,
      "note": 90,
      "start": 24.1961,
      "duration": 0.016,
      "velocity": 87,
      "chip": "ym2612"
    },
    {
      "channel": 4,
      "note": 52,
      "start": 24.1996,
      "duration": 0.0161,
      "velocity": 100,
      "chip": "ym2612"
    },
    {
      "channel": 1,
      "note": 88,
      "start": 24.2008,
      "duration": 0.0161,
      "velocity": 87,
      "chip": "ym2612"
    },
    {
      "channel": 0,
      "note": 70,
      "start": 24.2109,
      "duration": 0.0156,
      "velocity": 124,
      "chip": "ym2612"
    },
    {
      "channel": 5,
      "note": 90,
      "start": 24.2121,
      "duration": 0.0161,
      "velocity": 87,
      "chip": "ym2612"
    },
    {
      "channel": 4,
      "note": 52,
      "start": 24.2157,
      "duration": 0.0166,
      "velocity": 100,
      "chip": "ym2612"
    },
    {
      "channel": 1,
      "note": 88,
      "start": 24.2169,
      "duration": 0.0166,
      "velocity": 87,
      "chip": "ym2612"
    },
    {
      "channel": 0,
      "note": 68,
      "start": 24.2265,
      "duration": 0.0161,
      "velocity": 124,
      "chip": "ym2612"
    },
    {
      "channel": 5,
      "note": 90,
      "start": 24.2283,
      "duration": 0.0161,
      "velocity": 87,
      "chip": "ym2612"
    },
    {
      "channel": 2,
      "note": 73,
      "start": 24.2309,
      "duration": 0.0159,
      "velocity": 96,
      "chip": "ym2612"
    },
    {
      "channel": 4,
      "note": 52,
      "start": 24.2323,
      "duration": 0.0157,
      "velocity": 100,
      "chip": "ym2612"
    },
    {
      "channel": 1,
      "note": 88,
      "start": 24.2335,
      "duration": 0.0157,
      "velocity": 87,
      "chip": "ym2612"
    },
    {
      "channel": 0,
      "note": 65,
      "start": 24.2426,
      "duration": 0.0161,
      "velocity": 124,
      "chip": "ym2612"
    },
    {
      "channel": 5,
      "note": 90,
      "start": 24.2444,
      "duration": 0.0155,
      "velocity": 87,
      "chip": "ym2612"
    },
    {
      "channel": 2,
      "note": 73,
      "start": 24.2468,
      "duration": 0.016,
      "velocity": 96,
      "chip": "ym2612"
    },
    {
      "channel": 4,
      "note": 52,
      "start": 24.248,
      "duration": 0.0159,
      "velocity": 100,
      "chip": "ym2612"
    },
    {
      "channel": 1,
      "note": 88,
      "start": 24.2492,
      "duration": 0.016,
      "velocity": 87,
      "chip": "ym2612"
    },
    {
      "channel": 0,
      "note": 63,
      "start": 24.2587,
      "duration": 0.0153,
      "velocity": 1,
      "chip": "ym2612"
    },
    {
      "channel": 5,
      "note": 90,
      "start": 24.2599,
      "duration": 0.0153,
      "velocity": 87,
      "chip": "ym2612"
    },
    {
      "channel": 2,
      "note": 73,
      "start": 24.2628,
      "duration": 0.0153,
      "velocity": 96,
      "chip": "ym2612"
    },
    {
      "channel": 4,
      "note": 52,
      "start": 24.2639,
      "duration": 0.0153,
      "velocity": 100,
      "chip": "ym2612"
    },
    {
      "channel": 1,
      "note": 88,
      "start": 24.2651,
      "duration": 0.0153,
      "velocity": 87,
      "chip": "ym2612"
    },
    {
      "channel": 2,
      "note": 73,
      "start": 24.2781,
      "duration": 0.0149,
      "velocity": 96,
      "chip": "ym2612"
    },
    {
      "channel": 4,
      "note": 52,
      "start": 24.2793,
      "duration": 0.0155,
      "velocity": 100,
      "chip": "ym2612"
    },
    {
      "channel": 1,
      "note": 88,
      "start": 24.2805,
      "duration": 0.0155,
      "velocity": 87,
      "chip": "ym2612"
    },
    {
      "channel": 3,
      "note": 73,
      "start": 24.2919,
      "duration": 0.0162,
      "velocity": 96,
      "chip": "ym2612"
    },
    {
      "channel": 2,
      "note": 73,
      "start": 24.293,
      "duration": 0.0162,
      "velocity": 96,
      "chip": "ym2612"
    },
    {
      "channel": 4,
      "note": 52,
      "start": 24.2947,
      "duration": 0.0161,
      "velocity": 100,
      "chip": "ym2612"
    },
    {
      "channel": 1,
      "note": 88,
      "start": 24.2959,
      "duration": 0.0162,
      "velocity": 87,
      "chip": "ym2612"
    },
    {
      "channel": 5,
      "note": 88,
      "start": 24.3068,
      "duration": 0.0158,
      "velocity": 87,
      "chip": "ym2612"
    },
    {
      "channel": 3,
      "note": 73,
      "start": 24.3081,
      "duration": 0.0157,
      "velocity": 96,
      "chip": "ym2612"
    },
    {
      "channel": 2,
      "note": 73,
      "start": 24.3093,
      "duration": 0.0157,
      "velocity": 96,
      "chip": "ym2612"
    },
    {
      "channel": 4,
      "note": 52,
      "start": 24.3109,
      "duration": 0.0152,
      "velocity": 100,
      "chip": "ym2612"
    },
    {
      "channel": 1,
      "note": 88,
      "start": 24.3122,
      "duration": 0.0156,
      "velocity": 87,
      "chip": "ym2612"
    },
    {
      "channel": 5,
      "note": 88,
      "start": 24.3226,
      "duration": 0.016,
      "velocity": 87,
      "chip": "ym2612"
    },
    {
      "channel": 3,
      "note": 73,
      "start": 24.3238,
      "duration": 0.016,
      "velocity": 96,
      "chip": "ym2612"
    },
    {
      "channel": 4,
      "note": 52,
      "start": 24.3261,
      "duration": 0.0167,
      "velocity": 100,
      "chip": "ym2612"
    },
    {
      "channel": 1,
      "note": 88,
      "start": 24.3278,
      "duration": 0.0167,
      "velocity": 87,
      "chip": "ym2612"
    },
    {
      "channel": 5,
      "note": 88,
      "start": 24.3386,
      "duration": 0.0161,
      "velocity": 87,
      "chip": "ym2612"
    },
    {
      "channel": 3,
      "note": 73,
      "start": 24.3398,
      "duration": 0.0161,
      "velocity": 96,
      "chip": "ym2612"
    },
    {
      "channel": 2,
      "note": 76,
      "start": 24.3414,
      "duration": 0.0158,
      "velocity": 96,
      "chip": "ym2612"
    },
    {
      "channel": 4,
      "note": 57,
      "start": 24.3428,
      "duration": 0.0156,
      "velocity": 100,
      "chip": "ym2612"
    },
    {
      "channel": 1,
      "note": 88,
      "start": 24.3445,
      "duration": 0.015,
      "velocity": 87,
      "chip": "ym2612"
    },
    {
      "channel": 5,
      "note": 88,
      "start": 24.3547,
      "duration": 0.0162,
      "velocity": 87,
      "chip": "ym2612"
    },
    {
      "channel": 3,
      "note": 73,
      "start": 24.3559,
      "duration": 0.0161,
      "velocity": 96,
      "chip": "ym2612"
    },
    {
      "channel": 2,
      "note": 76,
      "start": 24.3571,
      "duration": 0.016,
      "velocity": 96,
      "chip": "ym2612"
    },
    {
      "channel": 4,
      "note": 57,
      "start": 24.3583,
      "duration": 0.016,
      "velocity": 100,
      "chip": "ym2612"
    },
    {
      "channel": 1,
      "note": 88,
      "start": 24.3595,
      "duration": 0.016,
      "velocity": 87,
      "chip": "ym2612"
    },
    {
      "channel": 5,
      "note": 88,
      "start": 24.3709,
      "duration": 0.0161,
      "velocity": 87,
      "chip": "ym2612"
    },
    {
      "channel": 3,
      "note": 73,
      "start": 24.372,
      "duration": 0.0161,
      "velocity": 96,
      "chip": "ym2612"
    },
    {
      "channel": 2,
      "note": 76,
      "start": 24.3732,
      "duration": 0.0161,
      "velocity": 96,
      "chip": "ym2612"
    },
    {
      "channel": 4,
      "note": 57,
      "start": 24.3743,
      "duration": 0.0162,
      "velocity": 100,
      "chip": "ym2612"
    },
    {
      "channel": 1,
      "note": 88,
      "start": 24.3755,
      "duration": 0.0161,
      "velocity": 87,
      "chip": "ym2612"
    },
    {
      "channel": 5,
      "note": 88,
      "start": 24.387,
      "duration": 0.0161,
      "velocity": 87,
      "chip": "ym2612"
    },
    {
      "channel": 2,
      "note": 76,
      "start": 24.3893,
      "duration": 0.0164,
      "velocity": 96,
      "chip": "ym2612"
    },
    {
      "channel": 4,
      "note": 57,
      "start": 24.3905,
      "duration": 0.0164,
      "velocity": 100,
      "chip": "ym2612"
    },
    {
      "channel": 1,
      "note": 88,
      "start": 24.3916,
      "duration": 0.0165,
      "velocity": 87,
      "chip": "ym2612"
    },
    {
      "channel": 5,
      "note": 88,
      "start": 24.4031,
      "duration": 0.0161,
      "velocity": 87,
      "chip": "ym2612"
    },
    {
      "channel": 3,
      "note": 76,
      "start": 24.4046,
      "duration": 0.0158,
      "velocity": 96,
      "chip": "ym2612"
    },
    {
      "channel": 2,
      "note": 76,
      "start": 24.4057,
      "duration": 0.0158,
      "velocity": 96,
      "chip": "ym2612"
    },
    {
      "channel": 4,
      "note": 57,
      "start": 24.4069,
      "duration": 0.0158,
      "velocity": 100,
      "chip": "ym2612"
    },
    {
      "channel": 1,
      "note": 88,
      "start": 24.4081,
      "duration": 0.0158,
      "velocity": 87,
      "chip": "ym2612"
    },
    {
      "channel": 5,
      "note": 88,
      "start": 24.4192,
      "duration": 0.0161,
      "velocity": 87,
      "chip": "ym2612"
    },
    {
      "channel": 3,
      "note": 76,
      "start": 24.4204,
      "duration": 0.016,
      "velocity": 96,
      "chip": "ym2612"
    },
    {
      "channel": 2,
      "note": 76,
      "start": 24.4215,
      "duration": 0.0161,
      "velocity": 96,
      "chip": "ym2612"
    },
    {
      "channel": 4,
      "note": 57,
      "start": 24.4227,
      "duration": 0.0161,
      "velocity": 100,
      "chip": "ym2612"
    },
    {
      "channel": 1,
      "note": 88,
      "start": 24.4239,
      "duration": 0.016,
      "velocity": 87,
      "chip": "ym2612"
    },
    {
      "channel": 5,
      "note": 88,
      "start": 24.4353,
      "duration": 0.0197,
      "velocity": 87,
      "chip": "ym2612"
    },
    {
      "channel": 3,
      "note": 76,
      "start": 24.4364,
      "duration": 0.0197,
      "velocity": 96,
      "chip": "ym2612"
    },
    {
      "channel": 4,
      "note": 57,
      "start": 24.4388,
      "duration": 0.02,
      "velocity": 100,
      "chip": "ym2612"
    },
    {
      "channel": 1,
      "note": 88,
      "start": 24.4399,
      "duration": 0.02,
      "velocity": 87,
      "chip": "ym2612"
    },
    {
      "channel": 0,
      "note": 88,
      "start": 24.4538,
      "duration": 0.0143,
      "velocity": 127,
      "chip": "ym2612"
    },
    {
      "channel": 5,
      "note": 88,
      "start": 24.4549,
      "duration": 0.0143,
      "velocity": 87,
      "chip": "ym2612"
    },
    {
      "channel": 3,
      "note": 76,
      "start": 24.4561,
      "duration": 0.0142,
      "velocity": 96,
      "chip": "ym2612"
    },
    {
      "channel": 2,
      "note": 67,
      "start": 24.4576,
      "duration": 0.014,
      "velocity": 96,
      "chip": "ym2612"
    },
    {
      "channel": 4,
      "note": 57,
      "start": 24.4587,
      "duration": 0.014,
      "velocity": 100,
      "chip": "ym2612"
    },
    {
      "channel": 1,
      "note": 88,
      "start": 24.4599,
      "duration": 0.0141,
      "velocity": 87,
      "chip": "ym2612"
    },
    {
      "channel": 0,
      "note": 86,
      "start": 24.468,
      "duration": 0.016,
      "velocity": 127,
      "chip": "ym2612"
    },
    {
      "channel": 5,
      "note": 88,
      "start": 24.4692,
      "duration": 0.016,
      "velocity": 87,
      "chip": "ym2612"
    },
    {
      "channel": 3,
      "note": 76,
      "start": 24.4704,
      "duration": 0.016,
      "velocity": 96,
      "chip": "ym2612"
    },
    {
      "channel": 2,
      "note": 67,
      "start": 24.4716,
      "duration": 0.016,
      "velocity": 96,
      "chip": "ym2612"
    },
    {
      "channel": 4,
      "note": 57,
      "start": 24.4727,
      "duration": 0.016,
      "velocity": 100,
      "chip": "ym2612"
    },
    {
      "channel": 1,
      "note": 88,
      "start": 24.4739,
      "duration": 0.016,
      "velocity": 87,
      "chip": "ym2612"
    },
    {
      "channel": 0,
      "note": 85,
      "start": 24.4841,
      "duration": 0.0161,
      "velocity": 127,
      "chip": "ym2612"
    },
    {
      "channel": 5,
      "note": 88,
      "start": 24.4853,
      "duration": 0.0161,
      "velocity": 87,
      "chip": "ym2612"
    },
    {
      "channel": 3,
      "note": 76,
      "start": 24.4864,
      "duration": 0.0161,
      "velocity": 96,
      "chip": "ym2612"
    },
    {
      "channel": 2,
      "note": 67,
      "start": 24.4876,
      "duration": 0.0161,
      "velocity": 96,
      "chip": "ym2612"
    },
    {
      "channel": 4,
      "note": 57,
      "start": 24.4887,
      "duration": 0.0161,
      "velocity": 100,
      "chip": "ym2612"
    },
    {
      "channel": 1,
      "note": 88,
      "start": 24.4899,
      "duration": 0.0161,
      "velocity": 87,
      "chip": "ym2612"
    },
    {
      "channel": 0,
      "note": 83,
      "start": 24.5001,
      "duration": 0.0161,
      "velocity": 127,
      "chip": "ym2612"
    },
    {
      "channel": 5,
      "note": 88,
      "start": 24.5014,
      "duration": 0.0161,
      "velocity": 87,
      "chip": "ym2612"
    },
    {
      "channel": 2,
      "note": 67,
      "start": 24.5037,
      "duration": 0.0164,
      "velocity": 96,
      "chip": "ym2612"
    },
    {
      "channel": 4,
      "note": 57,
      "start": 24.5048,
      "duration": 0.0164,
      "velocity": 100,
      "chip": "ym2612"
    },
    {
      "channel": 1,
      "note": 88,
      "start": 24.506,
      "duration": 0.0164,
      "velocity": 87,
      "chip": "ym2612"
    },
    {
      "channel": 0,
      "note": 81,
      "start": 24.5162,
      "duration": 0.0162,
      "velocity": 127,
      "chip": "ym2612"
    },
    {
      "channel": 5,
      "note": 88,
      "start": 24.5174,
      "duration": 0.0161,
      "velocity": 87,
      "chip": "ym2612"
    },
    {
      "channel": 3,
      "note": 67,
      "start": 24.5189,
      "duration": 0.0158,
      "velocity": 96,
      "chip": "ym2612"
    },
    {
      "channel": 2,
      "note": 67,
      "start": 24.52,
      "duration": 0.0159,
      "velocity": 96,
      "chip": "ym2612"
    },
    {
      "channel": 4,
      "note": 57,
      "start": 24.5212,
      "duration": 0.0159,
      "velocity": 100,
      "chip": "ym2612"
    },
    {
      "channel": 1,
      "note": 88,
      "start": 24.5224,
      "duration": 0.0159,
      "velocity": 87,
      "chip": "ym2612"
    },
    {
      "channel": 0,
      "note": 80,
      "start": 24.5324,
      "duration": 0.0161,
      "velocity": 127,
      "chip": "ym2612"
    },
    {
      "channel": 5,
      "note": 88,
      "start": 24.5335,
      "duration": 0.0161,
      "velocity": 87,
      "chip": "ym2612"
    },
    {
      "channel": 3,
      "note": 67,
      "start": 24.5347,
      "duration": 0.016,
      "velocity": 96,
      "chip": "ym2612"
    },
    {
      "channel": 2,
      "note": 67,
      "start": 24.536,
      "duration": 0.016,
      "velocity": 96,
      "chip": "ym2612"
    },
    {
      "channel": 4,
      "note": 57,
      "start": 24.5371,
      "duration": 0.016,
      "velocity": 100,
      "chip": "ym2612"
    },
    {
      "channel": 1,
      "note": 88,
      "start": 24.5383,
      "duration": 0.016,
      "velocity": 87,
      "chip": "ym2612"
    },
    {
      "channel": 0,
      "note": 78,
      "start": 24.5485,
      "duration": 0.018,
      "velocity": 127,
      "chip": "ym2612"
    },
    {
      "channel": 5,
      "note": 88,
      "start": 24.5496,
      "duration": 0.018,
      "velocity": 87,
      "chip": "ym2612"
    },
    {
      "channel": 3,
      "note": 67,
      "start": 24.5508,
      "duration": 0.018,
      "velocity": 96,
      "chip": "ym2612"
    },
    {
      "channel": 4,
      "note": 57,
      "start": 24.5531,
      "duration": 0.0183,
      "velocity": 100,
      "chip": "ym2612"
    },
    {
      "channel": 1,
      "note": 88,
      "start": 24.5543,
      "duration": 0.0183,
      "velocity": 87,
      "chip": "ym2612"
    },
    {
      "channel": 0,
      "note": 88,
      "start": 24.5664,
      "duration": 0.0143,
      "velocity": 127,
      "chip": "ym2612"
    },
    {
      "channel": 5,
      "note": 88,
      "start": 24.5676,
      "duration": 0.0142,
      "velocity": 87,
      "chip": "ym2612"
    },
    {
      "channel": 3,
      "note": 67,
      "start": 24.5688,
      "duration": 0.0143,
      "velocity": 96,
      "chip": "ym2612"
    },
    {
      "channel": 2,
      "note": 69,
      "start": 24.5702,
      "duration": 0.014,
      "velocity": 96,
      "chip": "ym2612"
    },
    {
      "channel": 4,
      "note": 57,
      "start": 24.5714,
      "duration": 0.0141,
      "velocity": 100,
      "chip": "ym2612"
    },
    {
      "channel": 1,
      "note": 88,
      "start": 24.5725,
      "duration": 0.0141,
      "velocity": 87,
      "chip": "ym2612"
    },
    {
      "channel": 0,
      "note": 86,
      "start": 24.5807,
      "duration": 0.016,
      "velocity": 127,
      "chip": "ym2612"
    },
    {
      "channel": 5,
      "note": 88,
      "start": 24.5819,
      "duration": 0.016,
      "velocity": 87,
      "chip": "ym2612"
    },
    {
      "channel": 3,
      "note": 67,
      "start": 24.583,
      "duration": 0.0161,
      "velocity": 96,
      "chip": "ym2612"
    },
    {
      "channel": 2,
      "note": 69,
      "start": 24.5842,
      "duration": 0.016,
      "velocity": 96,
      "chip": "ym2612"
    },
    {
      "channel": 4,
      "note": 57,
      "start": 24.5854,
      "duration": 0.016,
      "velocity": 100,
      "chip": "ym2612"
    },
    {
      "channel": 1,
      "note": 88,
      "start": 24.5866,
      "duration": 0.016,
      "velocity": 87,
      "chip": "ym2612"
    },
    {
      "channel": 0,
      "note": 85,
      "start": 24.5968,
      "duration": 0.0161,
      "velocity": 127,
      "chip": "ym2612"
    },
    {
      "channel": 5,
      "note": 88,
      "start": 24.5979,
      "duration": 0.0162,
      "velocity": 87,
      "chip": "ym2612"
    },
    {
      "channel": 3,
      "note": 67,
      "start": 24.5991,
      "duration": 0.0162,
      "velocity": 96,
      "chip": "ym2612"
    },
    {
      "channel": 2,
      "note": 69,
      "start": 24.6003,
      "duration": 0.0162,
      "velocity": 96,
      "chip": "ym2612"
    },
    {
      "channel": 4,
      "note": 57,
      "start": 24.6014,
      "duration": 0.0162,
      "velocity": 100,
      "chip": "ym2612"
    },
    {
      "channel": 1,
      "note": 88,
      "start": 24.6026,
      "duration": 0.0162,
      "velocity": 87,
      "chip": "ym2612"
    },
    {
      "channel": 0,
      "note": 83,
      "start": 24.6129,
      "duration": 0.0164,
      "velocity": 127,
      "chip": "ym2612"
    },
    {
      "channel": 5,
      "note": 88,
      "start": 24.6141,
      "duration": 0.0164,
      "velocity": 87,
      "chip": "ym2612"
    },
    {
      "channel": 2,
      "note": 69,
      "start": 24.6164,
      "duration": 0.0167,
      "velocity": 96,
      "chip": "ym2612"
    },
    {
      "channel": 4,
      "note": 57,
      "start": 24.6176,
      "duration": 0.0167,
      "velocity": 100,
      "chip": "ym2612"
    },
    {
      "channel": 1,
      "note": 88,
      "start": 24.6188,
      "duration": 0.0166,
      "velocity": 87,
      "chip": "ym2612"
    },
    {
      "channel": 0,
      "note": 81,
      "start": 24.6293,
      "duration": 0.0163,
      "velocity": 127,
      "chip": "ym2612"
    },
    {
      "channel": 5,
      "note": 88,
      "start": 24.6305,
      "duration": 0.0163,
      "velocity": 87,
      "chip": "ym2612"
    },
    {
      "channel": 3,
      "note": 69,
      "start": 24.632,
      "duration": 0.0161,
      "velocity": 96,
      "chip": "ym2612"
    },
    {
      "channel": 2,
      "note": 69,
      "start": 24.6332,
      "duration": 0.0161,
      "velocity": 96,
      "chip": "ym2612"
    },
    {
      "channel": 4,
      "note": 57,
      "start": 24.6343,
      "duration": 0.0161,
      "velocity": 100,
      "chip": "ym2612"
    },
    {
      "channel": 1,
      "note": 88,
      "start": 24.6354,
      "duration": 0.0161,
      "velocity": 87,
      "chip": "ym2612"
    },
    {
      "channel": 0,
      "note": 80,
      "start": 24.6456,
      "duration": 0.0162,
      "velocity": 127,
      "chip": "ym2612"
    },
    {
      "channel": 5,
      "note": 88,
      "start": 24.6468,
      "duration": 0.0161,
      "velocity": 87,
      "chip": "ym2612"
    },
    {
      "channel": 3,
      "note": 69,
      "start": 24.6481,
      "duration": 0.016,
      "velocity": 96,
      "chip": "ym2612"
    },
    {
      "channel": 2,
      "note": 69,
      "start": 24.6493,
      "duration": 0.016,
      "velocity": 96,
      "chip": "ym2612"
    },
    {
      "channel": 4,
      "note": 57,
      "start": 24.6504,
      "duration": 0.016,
      "velocity": 100,
      "chip": "ym2612"
    },
    {
      "channel": 1,
      "note": 88,
      "start": 24.6515,
      "duration": 0.0161,
      "velocity": 87,
      "chip": "ym2612"
    },
    {
      "channel": 0,
      "note": 78,
      "start": 24.6618,
      "duration": 0.0179,
      "velocity": 127,
      "chip": "ym2612"
    },
    {
      "channel": 5,
      "note": 88,
      "start": 24.6629,
      "duration": 0.018,
      "velocity": 87,
      "chip": "ym2612"
    },
    {
      "channel": 3,
      "note": 69,
      "start": 24.6641,
      "duration": 0.0179,
      "velocity": 96,
      "chip": "ym2612"
    },
    {
      "channel": 4,
      "note": 57,
      "start": 24.6664,
      "duration": 0.0185,
      "velocity": 100,
      "chip": "ym2612"
    },
    {
      "channel": 1,
      "note": 88,
      "start": 24.6676,
      "duration": 0.0186,
      "velocity": 87,
      "chip": "ym2612"
    },
    {
      "channel": 0,
      "note": 88,
      "start": 24.6797,
      "duration": 0.0139,
      "velocity": 127,
      "chip": "ym2612"
    },
    {
      "channel": 5,
      "note": 88,
      "start": 24.6809,
      "duration": 0.0143,
      "velocity": 87,
      "chip": "ym2612"
    },
    {
      "channel": 3,
      "note": 69,
      "start": 24.6821,
      "duration": 0.0143,
      "velocity": 96,
      "chip": "ym2612"
    },
    {
      "channel": 2,
      "note": 76,
      "start": 24.6835,
      "duration": 0.0141,
      "velocity": 96,
      "chip": "ym2612"
    },
    {
      "channel": 4,
      "note": 52,
      "start": 24.685,
      "duration": 0.0138,
      "velocity": 100,
      "chip": "ym2612"
    },
    {
      "channel": 1,
      "note": 88,
      "start": 24.6862,
      "duration": 0.0138,
      "velocity": 87,
      "chip": "ym2612"
    },
    {
      "channel": 0,
      "note": 86,
      "start": 24.6937,
      "duration": 0.0159,
      "velocity": 127,
      "chip": "ym2612"
    },
    {
      "channel": 5,
      "note": 88,
      "start": 24.6952,
      "duration": 0.016,
      "velocity": 87,
      "chip": "ym2612"
    },
    {
      "channel": 3,
      "note": 69,
      "start": 24.6964,
      "duration": 0.016,
      "velocity": 96,
      "chip": "ym2612"
    },
    {
      "channel": 2,
      "note": 76,
      "start": 24.6976,
      "duration": 0.016,
      "velocity": 96,
      "chip": "ym2612"
    },
    {
      "channel": 4,
      "note": 52,
      "start": 24.6988,
      "duration": 0.0159,
      "velocity": 100,
      "chip": "ym2612"
    },
    {
      "channel": 1,
      "note": 88,
      "start": 24.7,
      "duration": 0.0159,
      "velocity": 87,
      "chip": "ym2612"
    },
    {
      "channel": 0,
      "note": 85,
      "start": 24.7095,
      "duration": 0.0161,
      "velocity": 127,
      "chip": "ym2612"
    },
    {
      "channel": 5,
      "note": 88,
      "start": 24.7112,
      "duration": 0.0158,
      "velocity": 87,
      "chip": "ym2612"
    },
    {
      "channel": 3,
      "note": 69,
      "start": 24.7124,
      "duration": 0.0161,
      "velocity": 96,
      "chip": "ym2612"
    },
    {
      "channel": 2,
      "note": 76,
      "start": 24.7136,
      "duration": 0.0162,
      "velocity": 96,
      "chip": "ym2612"
    },
    {
      "channel": 4,
      "note": 52,
      "start": 24.7147,
      "duration": 0.0161,
      "velocity": 100,
      "chip": "ym2612"
    },
    {
      "channel": 1,
      "note": 88,
      "start": 24.7159,
      "duration": 0.0161,
      "velocity": 87,
      "chip": "ym2612"
    },
    {
      "channel": 0,
      "note": 83,
      "start": 24.7256,
      "duration": 0.0161,
      "velocity": 127,
      "chip": "ym2612"
    },
    {
      "channel": 5,
      "note": 88,
      "start": 24.727,
      "duration": 0.0159,
      "velocity": 87,
      "chip": "ym2612"
    },
    {
      "channel": 2,
      "note": 76,
      "start": 24.7297,
      "duration": 0.0163,
      "velocity": 96,
      "chip": "ym2612"
    },
    {
      "channel": 4,
      "note": 52,
      "start": 24.7309,
      "duration": 0.0163,
      "velocity": 100,
      "chip": "ym2612"
    },
    {
      "channel": 1,
      "note": 88,
      "start": 24.732,
      "duration": 0.0164,
      "velocity": 87,
      "chip": "ym2612"
    },
    {
      "channel": 0,
      "note": 81,
      "start": 24.7417,
      "duration": 0.0161,
      "velocity": 127,
      "chip": "ym2612"
    },
    {
      "channel": 5,
      "note": 88,
      "start": 24.7429,
      "duration": 0.0161,
      "velocity": 87,
      "chip": "ym2612"
    },
    {
      "channel": 3,
      "note": 76,
      "start": 24.7449,
      "duration": 0.0155,
      "velocity": 96,
      "chip": "ym2612"
    },
    {
      "channel": 2,
      "note": 76,
      "start": 24.7461,
      "duration": 0.0159,
      "velocity": 96,
      "chip": "ym2612"
    },
    {
      "channel": 4,
      "note": 52,
      "start": 24.7472,
      "duration": 0.0159,
      "velocity": 100,
      "chip": "ym2612"
    },
    {
      "channel": 1,
      "note": 88,
      "start": 24.7484,
      "duration": 0.0158,
      "velocity": 87,
      "chip": "ym2612"
    },
    {
      "channel": 0,
      "note": 80,
      "start": 24.7578,
      "duration": 0.0161,
      "velocity": 127,
      "chip": "ym2612"
    },
    {
      "channel": 5,
      "note": 88,
      "start": 24.759,
      "duration": 0.0161,
      "velocity": 87,
      "chip": "ym2612"
    },
    {
      "channel": 3,
      "note": 76,
      "start": 24.7604,
      "duration": 0.0159,
      "velocity": 96,
      "chip": "ym2612"
    },
    {
      "channel": 2,
      "note": 76,
      "start": 24.762,
      "duration": 0.016,
      "velocity": 96,
      "chip": "ym2612"
    },
    {
      "channel": 4,
      "note": 52,
      "start": 24.7631,
      "duration": 0.0161,
      "velocity": 100,
      "chip": "ym2612"
    },
    {
      "channel": 1,
      "note": 88,
      "start": 24.7643,
      "duration": 0.0162,
      "velocity": 87,
      "chip": "ym2612"
    },
    {
      "channel": 0,
      "note": 78,
      "start": 24.7739,
      "duration": 0.018,
      "velocity": 127,
      "chip": "ym2612"
    },
    {
      "channel": 5,
      "note": 88,
      "start": 24.7751,
      "duration": 0.018,
      "velocity": 87,
      "chip": "ym2612"
    },
    {
      "channel": 3,
      "note": 76,
      "start": 24.7763,
      "duration": 0.0185,
      "velocity": 96,
      "chip": "ym2612"
    },
    {
      "channel": 4,
      "note": 52,
      "start": 24.7792,
      "duration": 0.0184,
      "velocity": 100,
      "chip": "ym2612"
    },
    {
      "channel": 1,
      "note": 88,
      "start": 24.7804,
      "duration": 0.0184,
      "velocity": 87,
      "chip": "ym2612"
    },
    {
      "channel": 0,
      "note": 84,
      "start": 24.7919,
      "duration": 0.0142,
      "velocity": 127,
      "chip": "ym2612"
    },
    {
      "channel": 5,
      "note": 88,
      "start": 24.7931,
      "duration": 0.0142,
      "velocity": 87,
      "chip": "ym2612"
    },
    {
      "channel": 3,
      "note": 76,
      "start": 24.7948,
      "duration": 0.0137,
      "velocity": 96,
      "chip": "ym2612"
    },
    {
      "channel": 4,
      "note": 52,
      "start": 24.7977,
      "duration": 0.0139,
      "velocity": 100,
      "chip": "ym2612"
    },
    {
      "channel": 1,
      "note": 88,
      "start": 24.7989,
      "duration": 0.0139,
      "velocity": 87,
      "chip": "ym2612"
    },
    {
      "channel": 0,
      "note": 82,
      "start": 24.8061,
      "duration": 0.016,
      "velocity": 127,
      "chip": "ym2612"
    },
    {
      "channel": 5,
      "note": 88,
      "start": 24.8073,
      "duration": 0.016,
      "velocity": 87,
      "chip": "ym2612"
    },
    {
      "channel": 3,
      "note": 76,
      "start": 24.8085,
      "duration": 0.016,
      "velocity": 96,
      "chip": "ym2612"
    },
    {
      "channel": 4,
      "note": 52,
      "start": 24.8115,
      "duration": 0.0157,
      "velocity": 100,
      "chip": "ym2612"
    },
    {
      "channel": 1,
      "note": 88,
      "start": 24.8127,
      "duration": 0.016,
      "velocity": 87,
      "chip": "ym2612"
    },
    {
      "channel": 0,
      "note": 81,
      "start": 24.8222,
      "duration": 0.0162,
      "velocity": 127,
      "chip": "ym2612"
    },
    {
      "channel": 5,
      "note": 88,
      "start": 24.8234,
      "duration": 0.0161,
      "velocity": 87,
      "chip": "ym2612"
    },
    {
      "channel": 3,
      "note": 76,
      "start": 24.8246,
      "duration": 0.0161,
      "velocity": 96,
      "chip": "ym2612"
    },
    {
      "channel": 4,
      "note": 52,
      "start": 24.8272,
      "duration": 0.0159,
      "velocity": 100,
      "chip": "ym2612"
    },
    {
      "channel": 1,
      "note": 88,
      "start": 24.8287,
      "duration": 0.0161,
      "velocity": 87,
      "chip": "ym2612"
    },
    {
      "channel": 0,
      "note": 79,
      "start": 24.8383,
      "duration": 0.0161,
      "velocity": 127,
      "chip": "ym2612"
    },
    {
      "channel": 5,
      "note": 88,
      "start": 24.8395,
      "duration": 0.0161,
      "velocity": 87,
      "chip": "ym2612"
    },
    {
      "channel": 4,
      "note": 52,
      "start": 24.8431,
      "duration": 0.0162,
      "velocity": 100,
      "chip": "ym2612"
    },
    {
      "channel": 1,
      "note": 88,
      "start": 24.8448,
      "duration": 0.0161,
      "velocity": 87,
      "chip": "ym2612"
    },
    {
      "channel": 0,
      "note": 77,
      "start": 24.8544,
      "duration": 0.0161,
      "velocity": 127,
      "chip": "ym2612"
    },
    {
      "channel": 5,
      "note": 88,
      "start": 24.8556,
      "duration": 0.0161,
      "velocity": 87,
      "chip": "ym2612"
    },
    {
      "channel": 4,
      "note": 52,
      "start": 24.8593,
      "duration": 0.016,
      "velocity": 100,
      "chip": "ym2612"
    },
    {
      "channel": 1,
      "note": 88,
      "start": 24.861,
      "duration": 0.0155,
      "velocity": 87,
      "chip": "ym2612"
    },
    {
      "channel": 0,
      "note": 76,
      "start": 24.8705,
      "duration": 0.0161,
      "velocity": 127,
      "chip": "ym2612"
    },
    {
      "channel": 5,
      "note": 88,
      "start": 24.8717,
      "duration": 0.0161,
      "velocity": 87,
      "chip": "ym2612"
    },
    {
      "channel": 4,
      "note": 52,
      "start": 24.8752,
      "duration": 0.0161,
      "velocity": 100,
      "chip": "ym2612"
    },
    {
      "channel": 1,
      "note": 88,
      "start": 24.8764,
      "duration": 0.0162,
      "velocity": 87,
      "chip": "ym2612"
    },
    {
      "channel": 0,
      "note": 74,
      "start": 24.8866,
      "duration": 0.0179,
      "velocity": 127,
      "chip": "ym2612"
    },
    {
      "channel": 5,
      "note": 88,
      "start": 24.8878,
      "duration": 0.018,
      "velocity": 87,
      "chip": "ym2612"
    },
    {
      "channel": 4,
      "note": 52,
      "start": 24.8914,
      "duration": 0.0183,
      "velocity": 100,
      "chip": "ym2612"
    },
    {
      "channel": 1,
      "note": 88,
      "start": 24.8926,
      "duration": 0.0188,
      "velocity": 87,
      "chip": "ym2612"
    },
    {
      "channel": 0,
      "note": 84,
      "start": 24.9046,
      "duration": 0.0142,
      "velocity": 127,
      "chip": "ym2612"
    },
    {
      "channel": 5,
      "note": 88,
      "start": 24.9058,
      "duration": 0.0142,
      "velocity": 87,
      "chip": "ym2612"
    },
    {
      "channel": 2,
      "note": 67,
      "start": 24.9084,
      "duration": 0.014,
      "velocity": 96,
      "chip": "ym2612"
    },
    {
      "channel": 4,
      "note": 52,
      "start": 24.9096,
      "duration": 0.014,
      "velocity": 100,
      "chip": "ym2612"
    },
    {
      "channel": 1,
      "note": 88,
      "start": 24.9114,
      "duration": 0.0134,
      "velocity": 87,
      "chip": "ym2612"
    },
    {
      "channel": 0,
      "note": 82,
      "start": 24.9188,
      "duration": 0.016,
      "velocity": 127,
      "chip": "ym2612"
    },
    {
      "channel": 5,
      "note": 88,
      "start": 24.92,
      "duration": 0.016,
      "velocity": 87,
      "chip": "ym2612"
    },
    {
      "channel": 2,
      "note": 67,
      "start": 24.9224,
      "duration": 0.016,
      "velocity": 96,
      "chip": "ym2612"
    },
    {
      "channel": 4,
      "note": 52,
      "start": 24.9236,
      "duration": 0.016,
      "velocity": 100,
      "chip": "ym2612"
    },
    {
      "channel": 1,
      "note": 88,
      "start": 24.9248,
      "duration": 0.016,
      "velocity": 87,
      "chip": "ym2612"
    },
    {
      "channel": 0,
      "note": 81,
      "start": 24.9349,
      "duration": 0.0161,
      "velocity": 127,
      "chip": "ym2612"
    },
    {
      "channel": 5,
      "note": 88,
      "start": 24.9361,
      "duration": 0.0161,
      "velocity": 87,
      "chip": "ym2612"
    },
    {
      "channel": 2,
      "note": 67,
      "start": 24.9384,
      "duration": 0.0161,
      "velocity": 96,
      "chip": "ym2612"
    },
    {
      "channel": 4,
      "note": 52,
      "start": 24.9396,
      "duration": 0.016,
      "velocity": 100,
      "chip": "ym2612"
    },
    {
      "channel": 1,
      "note": 88,
      "start": 24.9409,
      "duration": 0.016,
      "velocity": 87,
      "chip": "ym2612"
    },
    {
      "channel": 0,
      "note": 79,
      "start": 24.951,
      "duration": 0.0161,
      "velocity": 127,
      "chip": "ym2612"
    },
    {
      "channel": 5,
      "note": 88,
      "start": 24.9522,
      "duration": 0.0162,
      "velocity": 87,
      "chip": "ym2612"
    },
    {
      "channel": 2,
      "note": 67,
      "start": 24.9545,
      "duration": 0.0164,
      "velocity": 96,
      "chip": "ym2612"
    },
    {
      "channel": 4,
      "note": 52,
      "start": 24.9557,
      "duration": 0.0164,
      "velocity": 100,
      "chip": "ym2612"
    },
    {
      "channel": 1,
      "note": 88,
      "start": 24.9569,
      "duration": 0.0163,
      "velocity": 87,
      "chip": "ym2612"
    },
    {
      "channel": 0,
      "note": 77,
      "start": 24.9671,
      "duration": 0.0161,
      "velocity": 127,
      "chip": "ym2612"
    },
    {
      "channel": 5,
      "note": 88,
      "start": 24.9683,
      "duration": 0.016,
      "velocity": 87,
      "chip": "ym2612"
    },
    {
      "channel": 3,
      "note": 67,
      "start": 24.9698,
      "duration": 0.0159,
      "velocity": 96,
      "chip": "ym2612"
    },
    {
      "channel": 2,
      "note": 67,
      "start": 24.971,
      "duration": 0.0158,
      "velocity": 96,
      "chip": "ym2612"
    },
    {
      "channel": 4,
      "note": 52,
      "start": 24.9721,
      "duration": 0.0159,
      "velocity": 100,
      "chip": "ym2612"
    },
    {
      "channel": 1,
      "note": 88,
      "start": 24.9732,
      "duration": 0.0159,
      "velocity": 87,
      "chip": "ym2612"
    },
    {
      "channel": 0,
      "note": 76,
      "start": 24.9832,
      "duration": 0.0161,
      "velocity": 127,
      "chip": "ym2612"
    },
    {
      "channel": 5,
      "note": 88,
      "start": 24.9844,
      "duration": 0.0161,
      "velocity": 87,
      "chip": "ym2612"
    },
    {
      "channel": 3,
      "note": 67,
      "start": 24.9856,
      "duration": 0.016,
      "velocity": 96,
      "chip": "ym2612"
    },
    {
      "channel": 2,
      "note": 67,
      "start": 24.9868,
      "duration": 0.016,
      "velocity": 96,
      "chip": "ym2612"
    },
    {
      "channel": 4,
      "note": 52,
      "start": 24.9879,
      "duration": 0.016,
      "velocity": 100,
      "chip": "ym2612"
    },
    {
      "channel": 1,
      "note": 88,
      "start": 24.9891,
      "duration": 0.016,
      "velocity": 87,
      "chip": "ym2612"
    },
    {
      "channel": 0,
      "note": 74,
      "start": 24.9993,
      "duration": 0.0179,
      "velocity": 127,
      "chip": "ym2612"
    },
    {
      "channel": 5,
      "note": 88,
      "start": 25.0005,
      "duration": 0.0181,
      "velocity": 87,
      "chip": "ym2612"
    },
    {
      "channel": 3,
      "note": 67,
      "start": 25.0017,
      "duration": 0.018,
      "velocity": 96,
      "chip": "ym2612"
    },
    {
      "channel": 4,
      "note": 52,
      "start": 25.004,
      "duration": 0.0184,
      "velocity": 100,
      "chip": "ym2612"
    },
    {
      "channel": 1,
      "note": 88,
      "start": 25.0052,
      "duration": 0.0185,
      "velocity": 87,
      "chip": "ym2612"
    },
    {
      "channel": 0,
      "note": 78,
      "start": 25.0173,
      "duration": 0.0142,
      "velocity": 127,
      "chip": "ym2612"
    },
    {
      "channel": 5,
      "note": 88,
      "start": 25.0185,
      "duration": 0.0142,
      "velocity": 87,
      "chip": "ym2612"
    },
    {
      "channel": 3,
      "note": 67,
      "start": 25.0197,
      "duration": 0.0142,
      "velocity": 96,
      "chip": "ym2612"
    },
    {
      "channel": 4,
      "note": 57,
      "start": 25.0224,
      "duration": 0.0139,
      "velocity": 100,
      "chip": "ym2612"
    },
    {
      "channel": 1,
      "note": 88,
      "start": 25.0237,
      "duration": 0.0139,
      "velocity": 87,
      "chip": "ym2612"
    },
    {
      "channel": 0,
      "note": 76,
      "start": 25.0316,
      "duration": 0.016,
      "velocity": 127,
      "chip": "ym2612"
    },
    {
      "channel": 5,
      "note": 88,
      "start": 25.0327,
      "duration": 0.0161,
      "velocity": 87,
      "chip": "ym2612"
    },
    {
      "channel": 3,
      "note": 67,
      "start": 25.0339,
      "duration": 0.0161,
      "velocity": 96,
      "chip": "ym2612"
    },
    {
      "channel": 4,
      "note": 57,
      "start": 25.0363,
      "duration": 0.016,
      "velocity": 100,
      "chip": "ym2612"
    },
    {
      "channel": 1,
      "note": 88,
      "start": 25.0376,
      "duration": 0.016,
      "velocity": 87,
      "chip": "ym2612"
    },
    {
      "channel": 0,
      "note": 75,
      "start": 25.0476,
      "duration": 0.0161,
      "velocity": 127,
      "chip": "ym2612"
    },
    {
      "channel": 5,
      "note": 88,
      "start": 25.0488,
      "duration": 0.0161,
      "velocity": 87,
      "chip": "ym2612"
    },
    {
      "channel": 3,
      "note": 67,
      "start": 25.05,
      "duration": 0.0161,
      "velocity": 96,
      "chip": "ym2612"
    },
    {
      "channel": 4,
      "note": 57,
      "start": 25.0524,
      "duration": 0.0161,
      "velocity": 100,
      "chip": "ym2612"
    },
    {
      "channel": 1,
      "note": 88,
      "start": 25.0537,
      "duration": 0.0161,
      "velocity": 87,
      "chip": "ym2612"
    },
    {
      "channel": 0,
      "note": 73,
      "start": 25.0637,
      "duration": 0.0161,
      "velocity": 127,
      "chip": "ym2612"
    },
    {
      "channel": 5,
      "note": 88,
      "start": 25.0649,
      "duration": 0.0162,
      "velocity": 87,
      "chip": "ym2612"
    },
    {
      "channel": 4,
      "note": 57,
      "start": 25.0685,
      "duration": 0.0162,
      "velocity": 100,
      "chip": "ym2612"
    },
    {
      "channel": 1,
      "note": 88,
      "start": 25.0697,
      "duration": 0.0162,
      "velocity": 87,
      "chip": "ym2612"
    },
    {
      "channel": 0,
      "note": 71,
      "start": 25.0798,
      "duration": 0.0164,
      "velocity": 127,
      "chip": "ym2612"
    },
    {
      "channel": 5,
      "note": 88,
      "start": 25.0811,
      "duration": 0.0164,
      "velocity": 87,
      "chip": "ym2612"
    },
    {
      "channel": 4,
      "note": 57,
      "start": 25.0847,
      "duration": 0.0163,
      "velocity": 100,
      "chip": "ym2612"
    },
    {
      "channel": 1,
      "note": 88,
      "start": 25.086,
      "duration": 0.0163,
      "velocity": 87,
      "chip": "ym2612"
    },
    {
      "channel": 0,
      "note": 70,
      "start": 25.0963,
      "duration": 0.0163,
      "velocity": 127,
      "chip": "ym2612"
    },
    {
      "channel": 5,
      "note": 88,
      "start": 25.0975,
      "duration": 0.0163,
      "velocity": 87,
      "chip": "ym2612"
    },
    {
      "channel": 4,
      "note": 57,
      "start": 25.101,
      "duration": 0.0163,
      "velocity": 100,
      "chip": "ym2612"
    },
    {
      "channel": 1,
      "note": 88,
      "start": 25.1022,
      "duration": 0.0163,
      "velocity": 87,
      "chip": "ym2612"
    },
    {
      "channel": 0,
      "note": 68,
      "start": 25.1126,
      "duration": 0.0179,
      "velocity": 127,
      "chip": "ym2612"
    },
    {
      "channel": 5,
      "note": 88,
      "start": 25.1138,
      "duration": 0.018,
      "velocity": 87,
      "chip": "ym2612"
    },
    {
      "channel": 4,
      "note": 57,
      "start": 25.1173,
      "duration": 0.0183,
      "velocity": 100,
      "chip": "ym2612"
    },
    {
      "channel": 1,
      "note": 88,
      "start": 25.1185,
      "duration": 0.0183,
      "velocity": 87,
      "chip": "ym2612"
    },
    {
      "channel": 0,
      "note": 78,
      "start": 25.1306,
      "duration": 0.0142,
      "velocity": 127,
      "chip": "ym2612"
    },
    {
      "channel": 5,
      "note": 88,
      "start": 25.1318,
      "duration": 0.0143,
      "velocity": 87,
      "chip": "ym2612"
    },
    {
      "channel": 2,
      "note": 69,
      "start": 25.1344,
      "duration": 0.014,
      "velocity": 96,
      "chip": "ym2612"
    },
    {
      "channel": 4,
      "note": 57,
      "start": 25.1356,
      "duration": 0.014,
      "velocity": 100,
      "chip": "ym2612"
    },
    {
      "channel": 1,
      "note": 88,
      "start": 25.1368,
      "duration": 0.0139,
      "velocity": 87,
      "chip": "ym2612"
    },
    {
      "channel": 0,
      "note": 76,
      "start": 25.1448,
      "duration": 0.0157,
      "velocity": 127,
      "chip": "ym2612"
    },
    {
      "channel": 5,
      "note": 88,
      "start": 25.1461,
      "duration": 0.016,
      "velocity": 87,
      "chip": "ym2612"
    },
    {
      "channel": 2,
      "note": 69,
      "start": 25.1484,
      "duration": 0.016,
      "velocity": 96,
      "chip": "ym2612"
    },
    {
      "channel": 4,
      "note": 57,
      "start": 25.1496,
      "duration": 0.016,
      "velocity": 100,
      "chip": "ym2612"
    },
    {
      "channel": 1,
      "note": 88,
      "start": 25.1508,
      "duration": 0.016,
      "velocity": 87,
      "chip": "ym2612"
    },
    {
      "channel": 0,
      "note": 75,
      "start": 25.1605,
      "duration": 0.0159,
      "velocity": 127,
      "chip": "ym2612"
    },
    {
      "channel": 5,
      "note": 88,
      "start": 25.1621,
      "duration": 0.016,
      "velocity": 87,
      "chip": "ym2612"
    },
    {
      "channel": 2,
      "note": 69,
      "start": 25.1644,
      "duration": 0.0161,
      "velocity": 96,
      "chip": "ym2612"
    },
    {
      "channel": 4,
      "note": 57,
      "start": 25.1656,
      "duration": 0.0161,
      "velocity": 100,
      "chip": "ym2612"
    },
    {
      "channel": 1,
      "note": 88,
      "start": 25.1668,
      "duration": 0.016,
      "velocity": 87,
      "chip": "ym2612"
    },
    {
      "channel": 0,
      "note": 73,
      "start": 25.1764,
      "duration": 0.0161,
      "velocity": 127,
      "chip": "ym2612"
    },
    {
      "channel": 5,
      "note": 88,
      "start": 25.1781,
      "duration": 0.0158,
      "velocity": 87,
      "chip": "ym2612"
    },
    {
      "channel": 2,
      "note": 69,
      "start": 25.1805,
      "duration": 0.0163,
      "velocity": 96,
      "chip": "ym2612"
    },
    {
      "channel": 4,
      "note": 57,
      "start": 25.1817,
      "duration": 0.0163,
      "velocity": 100,
      "chip": "ym2612"
    },
    {
      "channel": 1,
      "note": 88,
      "start": 25.1828,
      "duration": 0.0164,
      "velocity": 87,
      "chip": "ym2612"
    },
    {
      "channel": 0,
      "note": 71,
      "start": 25.1925,
      "duration": 0.0161,
      "velocity": 127,
      "chip": "ym2612"
    },
    {
      "channel": 5,
      "note": 88,
      "start": 25.1939,
      "duration": 0.016,
      "velocity": 87,
      "chip": "ym2612"
    },
    {
      "channel": 3,
      "note": 69,
      "start": 25.1958,
      "duration": 0.016,
      "velocity": 96,
      "chip": "ym2612"
    },
    {
      "channel": 2,
      "note": 69,
      "start": 25.1969,
      "duration": 0.016,
      "velocity": 96,
      "chip": "ym2612"
    },
    {
      "channel": 4,
      "note": 57,
      "start": 25.198,
      "duration": 0.016,
      "velocity": 100,
      "chip": "ym2612"
    },
    {
      "channel": 1,
      "note": 88,
      "start": 25.1993,
      "duration": 0.016,
      "velocity": 87,
      "chip": "ym2612"
    },
    {
      "channel": 0,
      "note": 70,
      "start": 25.2086,
      "duration": 0.0161,
      "velocity": 127,
      "chip": "ym2612"
    },
    {
      "channel": 5,
      "note": 88,
      "start": 25.2099,
      "duration": 0.0161,
      "velocity": 87,
      "chip": "ym2612"
    },
    {
      "channel": 3,
      "note": 69,
      "start": 25.2117,
      "duration": 0.0159,
      "velocity": 96,
      "chip": "ym2612"
    },
    {
      "channel": 2,
      "note": 69,
      "start": 25.2129,
      "duration": 0.016,
      "velocity": 96,
      "chip": "ym2612"
    },
    {
      "channel": 4,
      "note": 57,
      "start": 25.214,
      "duration": 0.016,
      "velocity": 100,
      "chip": "ym2612"
    },
    {
      "channel": 0,
      "note": 68,
      "start": 25.2247,
      "duration": 0.0179,
      "velocity": 115,
      "chip": "ym2612"
    },
    {
      "channel": 5,
      "note": 88,
      "start": 25.226,
      "duration": 0.0185,
      "velocity": 87,
      "chip": "ym2612"
    },
    {
      "channel": 3,
      "note": 69,
      "start": 25.2276,
      "duration": 0.0181,
      "velocity": 96,
      "chip": "ym2612"
    },
    {
      "channel": 4,
      "note": 57,
      "start": 25.23,
      "duration": 0.02,
      "velocity": 100,
      "chip": "ym2612"
    },
    {
      "channel": 0,
      "note": 36,
      "start": 25.2427,
      "duration": 0.0143,
      "velocity": 115,
      "chip": "ym2612"
    },
    {
      "channel": 5,
      "note": 88,
      "start": 25.2445,
      "duration": 0.0137,
      "velocity": 87,
      "chip": "ym2612"
    },
    {
      "channel": 3,
      "note": 69,
      "start": 25.2457,
      "duration": 0.0137,
      "velocity": 96,
      "chip": "ym2612"
    },
    {
      "channel": 2,
      "note": 78,
      "start": 25.2485,
      "duration": 0.0126,
      "velocity": 96,
      "chip": "ym2612"
    },
    {
      "channel": 4,
      "note": 54,
      "start": 25.2501,
      "duration": 0.0124,
      "velocity": 100,
      "chip": "ym2612"
    },
    {
      "channel": 1,
      "note": 90,
      "start": 25.2517,
      "duration": 0.012,
      "velocity": 87,
      "chip": "ym2612"
    },
    {
      "channel": 0,
      "note": 36,
      "start": 25.257,
      "duration": 0.016,
      "velocity": 115,
      "chip": "ym2612"
    },
    {
      "channel": 5,
      "note": 88,
      "start": 25.2582,
      "duration": 0.0161,
      "velocity": 87,
      "chip": "ym2612"
    },
    {
      "channel": 3,
      "note": 69,
      "start": 25.2594,
      "duration": 0.016,
      "velocity": 96,
      "chip": "ym2612"
    },
    {
      "channel": 2,
      "note": 78,
      "start": 25.2612,
      "duration": 0.0154,
      "velocity": 96,
      "chip": "ym2612"
    },
    {
      "channel": 4,
      "note": 54,
      "start": 25.2625,
      "duration": 0.0159,
      "velocity": 100,
      "chip": "ym2612"
    },
    {
      "channel": 1,
      "note": 90,
      "start": 25.2637,
      "duration": 0.0158,
      "velocity": 87,
      "chip": "ym2612"
    },
    {
      "channel": 0,
      "note": 37,
      "start": 25.273,
      "duration": 0.0161,
      "velocity": 115,
      "chip": "ym2612"
    },
    {
      "channel": 5,
      "note": 88,
      "start": 25.2743,
      "duration": 0.016,
      "velocity": 87,
      "chip": "ym2612"
    },
    {
      "channel": 3,
      "note": 69,
      "start": 25.2755,
      "duration": 0.016,
      "velocity": 96,
      "chip": "ym2612"
    },
    {
      "channel": 2,
      "note": 78,
      "start": 25.2766,
      "duration": 0.016,
      "velocity": 96,
      "chip": "ym2612"
    },
    {
      "channel": 4,
      "note": 54,
      "start": 25.2784,
      "duration": 0.016,
      "velocity": 100,
      "chip": "ym2612"
    },
    {
      "channel": 1,
      "note": 90,
      "start": 25.2795,
      "duration": 0.016,
      "velocity": 87,
      "chip": "ym2612"
    },
    {
      "channel": 0,
      "note": 37,
      "start": 25.2891,
      "duration": 0.0161,
      "velocity": 115,
      "chip": "ym2612"
    },
    {
      "channel": 5,
      "note": 88,
      "start": 25.2903,
      "duration": 0.016,
      "velocity": 87,
      "chip": "ym2612"
    },
    {
      "channel": 2,
      "note": 78,
      "start": 25.2926,
      "duration": 0.0165,
      "velocity": 96,
      "chip": "ym2612"
    },
    {
      "channel": 4,
      "note": 54,
      "start": 25.2944,
      "duration": 0.0162,
      "velocity": 100,
      "chip": "ym2612"
    },
    {
      "channel": 1,
      "note": 90,
      "start": 25.2956,
      "duration": 0.0165,
      "velocity": 87,
      "chip": "ym2612"
    },
    {
      "channel": 0,
      "note": 38,
      "start": 25.3052,
      "duration": 0.0161,
      "velocity": 115,
      "chip": "ym2612"
    },
    {
      "channel": 5,
      "note": 88,
      "start": 25.3064,
      "duration": 0.0162,
      "velocity": 87,
      "chip": "ym2612"
    },
    {
      "channel": 3,
      "note": 78,
      "start": 25.308,
      "duration": 0.0158,
      "velocity": 96,
      "chip": "ym2612"
    },
    {
      "channel": 2,
      "note": 78,
      "start": 25.3091,
      "duration": 0.0158,
      "velocity": 96,
      "chip": "ym2612"
    },
    {
      "channel": 4,
      "note": 54,
      "start": 25.3105,
      "duration": 0.0155,
      "velocity": 100,
      "chip": "ym2612"
    },
    {
      "channel": 1,
      "note": 90,
      "start": 25.312,
      "duration": 0.0157,
      "velocity": 87,
      "chip": "ym2612"
    },
    {
      "channel": 0,
      "note": 38,
      "start": 25.3213,
      "duration": 0.0161,
      "velocity": 115,
      "chip": "ym2612"
    },
    {
      "channel": 5,
      "note": 88,
      "start": 25.3225,
      "duration": 0.0161,
      "velocity": 87,
      "chip": "ym2612"
    },
    {
      "channel": 3,
      "note": 78,
      "start": 25.3237,
      "duration": 0.016,
      "velocity": 96,
      "chip": "ym2612"
    },
    {
      "channel": 2,
      "note": 78,
      "start": 25.3249,
      "duration": 0.0161,
      "velocity": 96,
      "chip": "ym2612"
    },
    {
      "channel": 4,
      "note": 54,
      "start": 25.326,
      "duration": 0.0161,
      "velocity": 100,
      "chip": "ym2612"
    },
    {
      "channel": 1,
      "note": 90,
      "start": 25.3278,
      "duration": 0.0155,
      "velocity": 87,
      "chip": "ym2612"
    },
    {
      "channel": 0,
      "note": 39,
      "start": 25.3374,
      "duration": 0.0161,
      "velocity": 115,
      "chip": "ym2612"
    },
    {
      "channel": 5,
      "note": 88,
      "start": 25.3386,
      "duration": 0.0161,
      "velocity": 87,
      "chip": "ym2612"
    },
    {
      "channel": 3,
      "note": 78,
      "start": 25.3398,
      "duration": 0.0161,
      "velocity": 96,
      "chip": "ym2612"
    },
    {
      "channel": 4,
      "note": 54,
      "start": 25.3421,
      "duration": 0.0163,
      "velocity": 100,
      "chip": "ym2612"
    },
    {
      "channel": 1,
      "note": 90,
      "start": 25.3433,
      "duration": 0.0164,
      "velocity": 87,
      "chip": "ym2612"
    },
    {
      "channel": 0,
      "note": 39,
      "start": 25.3535,
      "duration": 0.0161,
      "velocity": 115,
      "chip": "ym2612"
    },
    {
      "channel": 5,
      "note": 88,
      "start": 25.3547,
      "duration": 0.0161,
      "velocity": 87,
      "chip": "ym2612"
    },
    {
      "channel": 3,
      "note": 78,
      "start": 25.3559,
      "duration": 0.0161,
      "velocity": 96,
      "chip": "ym2612"
    },
    {
      "channel": 2,
      "note": 70,
      "start": 25.3573,
      "duration": 0.0159,
      "velocity": 96,
      "chip": "ym2612"
    },
    {
      "channel": 4,
      "note": 54,
      "start": 25.3585,
      "duration": 0.0159,
      "velocity": 100,
      "chip": "ym2612"
    },
    {
      "channel": 1,
      "note": 90,
      "start": 25.3597,
      "duration": 0.0159,
      "velocity": 87,
      "chip": "ym2612"
    },
    {
      "channel": 0,
      "note": 40,
      "start": 25.3696,
      "duration": 0.0161,
      "velocity": 115,
      "chip": "ym2612"
    },
    {
      "channel": 5,
      "note": 88,
      "start": 25.3708,
      "duration": 0.0161,
      "velocity": 87,
      "chip": "ym2612"
    },
    {
      "channel": 3,
      "note": 78,
      "start": 25.372,
      "duration": 0.0161,
      "velocity": 96,
      "chip": "ym2612"
    },
    {
      "channel": 2,
      "note": 70,
      "start": 25.3732,
      "duration": 0.016,
      "velocity": 96,
      "chip": "ym2612"
    },
    {
      "channel": 4,
      "note": 54,
      "start": 25.3744,
      "duration": 0.016,
      "velocity": 100,
      "chip": "ym2612"
    },
    {
      "channel": 1,
      "note": 90,
      "start": 25.3756,
      "duration": 0.016,
      "velocity": 87,
      "chip": "ym2612"
    },
    {
      "channel": 0,
      "note": 40,
      "start": 25.3857,
      "duration": 0.0161,
      "velocity": 115,
      "chip": "ym2612"
    },
    {
      "channel": 5,
      "note": 88,
      "start": 25.3869,
      "duration": 0.0161,
      "velocity": 87,
      "chip": "ym2612"
    },
    {
      "channel": 3,
      "note": 78,
      "start": 25.3881,
      "duration": 0.0161,
      "velocity": 96,
      "chip": "ym2612"
    },
    {
      "channel": 2,
      "note": 70,
      "start": 25.3893,
      "duration": 0.0161,
      "velocity": 96,
      "chip": "ym2612"
    },
    {
      "channel": 4,
      "note": 54,
      "start": 25.3904,
      "duration": 0.0161,
      "velocity": 100,
      "chip": "ym2612"
    },
    {
      "channel": 1,
      "note": 90,
      "start": 25.3916,
      "duration": 0.0161,
      "velocity": 87,
      "chip": "ym2612"
    },
    {
      "channel": 0,
      "note": 40,
      "start": 25.4018,
      "duration": 0.0162,
      "velocity": 115,
      "chip": "ym2612"
    },
    {
      "channel": 2,
      "note": 70,
      "start": 25.4054,
      "duration": 0.0163,
      "velocity": 96,
      "chip": "ym2612"
    },
    {
      "channel": 4,
      "note": 54,
      "start": 25.4065,
      "duration": 0.0164,
      "velocity": 100,
      "chip": "ym2612"
    },
    {
      "channel": 1,
      "note": 90,
      "start": 25.4077,
      "duration": 0.0163,
      "velocity": 87,
      "chip": "ym2612"
    },
    {
      "channel": 0,
      "note": 41,
      "start": 25.418,
      "duration": 0.0161,
      "velocity": 115,
      "chip": "ym2612"
    },
    {
      "channel": 3,
      "note": 70,
      "start": 25.4206,
      "duration": 0.0163,
      "velocity": 96,
      "chip": "ym2612"
    },
    {
      "channel": 2,
      "note": 70,
      "start": 25.4217,
      "duration": 0.0163,
      "velocity": 96,
      "chip": "ym2612"
    },
    {
      "channel": 4,
      "note": 54,
      "start": 25.4229,
      "duration": 0.0162,
      "velocity": 100,
      "chip": "ym2612"
    },
    {
      "channel": 1,
      "note": 90,
      "start": 25.4241,
      "duration": 0.0163,
      "velocity": 87,
      "chip": "ym2612"
    },
    {
      "channel": 0,
      "note": 41,
      "start": 25.4341,
      "duration": 0.0161,
      "velocity": 115,
      "chip": "ym2612"
    },
    {
      "channel": 5,
      "note": 90,
      "start": 25.4356,
      "duration": 0.0157,
      "velocity": 87,
      "chip": "ym2612"
    },
    {
      "channel": 3,
      "note": 70,
      "start": 25.4368,
      "duration": 0.0156,
      "velocity": 96,
      "chip": "ym2612"
    },
    {
      "channel": 2,
      "note": 70,
      "start": 25.438,
      "duration": 0.0157,
      "velocity": 96,
      "chip": "ym2612"
    },
    {
      "channel": 4,
      "note": 54,
      "start": 25.4391,
      "duration": 0.0157,
      "velocity": 100,
      "chip": "ym2612"
    },
    {
      "channel": 1,
      "note": 90,
      "start": 25.4403,
      "duration": 0.0156,
      "velocity": 87,
      "chip": "ym2612"
    },
    {
      "channel": 0,
      "note": 42,
      "start": 25.4501,
      "duration": 0.0161,
      "velocity": 115,
      "chip": "ym2612"
    },
    {
      "channel": 5,
      "note": 90,
      "start": 25.4514,
      "duration": 0.016,
      "velocity": 87,
      "chip": "ym2612"
    },
    {
      "channel": 3,
      "note": 70,
      "start": 25.4525,
      "duration": 0.0161,
      "velocity": 96,
      "chip": "ym2612"
    },
    {
      "channel": 4,
      "note": 54,
      "start": 25.4549,
      "duration": 0.0163,
      "velocity": 100,
      "chip": "ym2612"
    },
    {
      "channel": 1,
      "note": 90,
      "start": 25.456,
      "duration": 0.0163,
      "velocity": 87,
      "chip": "ym2612"
    },
    {
      "channel": 0,
      "note": 42,
      "start": 25.4662,
      "duration": 0.0161,
      "velocity": 115,
      "chip": "ym2612"
    },
    {
      "channel": 5,
      "note": 90,
      "start": 25.4674,
      "duration": 0.0161,
      "velocity": 87,
      "chip": "ym2612"
    },
    {
      "channel": 3,
      "note": 70,
      "start": 25.4686,
      "duration": 0.0161,
      "velocity": 96,
      "chip": "ym2612"
    },
    {
      "channel": 2,
      "note": 71,
      "start": 25.47,
      "duration": 0.0159,
      "velocity": 96,
      "chip": "ym2612"
    },
    {
      "channel": 4,
      "note": 54,
      "start": 25.4712,
      "duration": 0.0158,
      "velocity": 100,
      "chip": "ym2612"
    },
    {
      "channel": 1,
      "note": 90,
      "start": 25.4723,
      "duration": 0.0159,
      "velocity": 87,
      "chip": "ym2612"
    },
    {
      "channel": 0,
      "note": 43,
      "start": 25.4823,
      "duration": 0.0161,
      "velocity": 115,
      "chip": "ym2612"
    },
    {
      "channel": 5,
      "note": 90,
      "start": 25.4835,
      "duration": 0.0162,
      "velocity": 87,
      "chip": "ym2612"
    },
    {
      "channel": 3,
      "note": 70,
      "start": 25.4847,
      "duration": 0.0161,
      "velocity": 96,
      "chip": "ym2612"
    },
    {
      "channel": 2,
      "note": 71,
      "start": 25.4859,
      "duration": 0.016,
      "velocity": 96,
      "chip": "ym2612"
    },
    {
      "channel": 4,
      "note": 54,
      "start": 25.487,
      "duration": 0.016,
      "velocity": 100,
      "chip": "ym2612"
    },
    {
      "channel": 1,
      "note": 90,
      "start": 25.4883,
      "duration": 0.016,
      "velocity": 87,
      "chip": "ym2612"
    },
    {
      "channel": 0,
      "note": 43,
      "start": 25.4984,
      "duration": 0.0161,
      "velocity": 115,
      "chip": "ym2612"
    },
    {
      "channel": 5,
      "note": 90,
      "start": 25.4996,
      "duration": 0.0161,
      "velocity": 87,
      "chip": "ym2612"
    },
    {
      "channel": 3,
      "note": 70,
      "start": 25.5008,
      "duration": 0.0161,
      "velocity": 96,
      "chip": "ym2612"
    },
    {
      "channel": 2,
      "note": 71,
      "start": 25.5019,
      "duration": 0.0161,
      "velocity": 96,
      "chip": "ym2612"
    },
    {
      "channel": 4,
      "note": 54,
      "start": 25.5031,
      "duration": 0.0162,
      "velocity": 100,
      "chip": "ym2612"
    },
    {
      "channel": 1,
      "note": 90,
      "start": 25.5043,
      "duration": 0.0161,
      "velocity": 87,
      "chip": "ym2612"
    },
    {
      "channel": 0,
      "note": 44,
      "start": 25.5145,
      "duration": 0.0161,
      "velocity": 115,
      "chip": "ym2612"
    },
    {
      "channel": 5,
      "note": 90,
      "start": 25.5157,
      "duration": 0.0161,
      "velocity": 87,
      "chip": "ym2612"
    },
    {
      "channel": 2,
      "note": 71,
      "start": 25.518,
      "duration": 0.0164,
      "velocity": 96,
      "chip": "ym2612"
    },
    {
      "channel": 4,
      "note": 54,
      "start": 25.5192,
      "duration": 0.0163,
      "velocity": 100,
      "chip": "ym2612"
    },
    {
      "channel": 1,
      "note": 90,
      "start": 25.5204,
      "duration": 0.0164,
      "velocity": 87,
      "chip": "ym2612"
    },
    {
      "channel": 0,
      "note": 44,
      "start": 25.5306,
      "duration": 0.0162,
      "velocity": 115,
      "chip": "ym2612"
    },
    {
      "channel": 5,
      "note": 90,
      "start": 25.5318,
      "duration": 0.0162,
      "velocity": 87,
      "chip": "ym2612"
    },
    {
      "channel": 3,
      "note": 71,
      "start": 25.5333,
      "duration": 0.0159,
      "velocity": 96,
      "chip": "ym2612"
    },
    {
      "channel": 2,
      "note": 71,
      "start": 25.5344,
      "duration": 0.0159,
      "velocity": 96,
      "chip": "ym2612"
    },
    {
      "channel": 4,
      "note": 54,
      "start": 25.5356,
      "duration": 0.0159,
      "velocity": 100,
      "chip": "ym2612"
    },
    {
      "channel": 1,
      "note": 90,
      "start": 25.5368,
      "duration": 0.0159,
      "velocity": 87,
      "chip": "ym2612"
    },
    {
      "channel": 0,
      "note": 44,
      "start": 25.5468,
      "duration": 0.0163,
      "velocity": 115,
      "chip": "ym2612"
    },
    {
      "channel": 5,
      "note": 90,
      "start": 25.548,
      "duration": 0.0162,
      "velocity": 87,
      "chip": "ym2612"
    },
    {
      "channel": 3,
      "note": 71,
      "start": 25.5492,
      "duration": 0.0162,
      "velocity": 96,
      "chip": "ym2612"
    },
    {
      "channel": 2,
      "note": 71,
      "start": 25.5503,
      "duration": 0.0162,
      "velocity": 96,
      "chip": "ym2612"
    },
    {
      "channel": 4,
      "note": 54,
      "start": 25.5515,
      "duration": 0.0162,
      "velocity": 100,
      "chip": "ym2612"
    },
    {
      "channel": 1,
      "note": 90,
      "start": 25.5527,
      "duration": 0.0162,
      "velocity": 87,
      "chip": "ym2612"
    },
    {
      "channel": 0,
      "note": 45,
      "start": 25.5631,
      "duration": 0.0181,
      "velocity": 115,
      "chip": "ym2612"
    },
    {
      "channel": 5,
      "note": 90,
      "start": 25.5642,
      "duration": 0.0182,
      "velocity": 87,
      "chip": "ym2612"
    },
    {
      "channel": 3,
      "note": 71,
      "start": 25.5654,
      "duration": 0.0181,
      "velocity": 96,
      "chip": "ym2612"
    },
    {
      "channel": 4,
      "note": 54,
      "start": 25.5677,
      "duration": 0.0187,
      "velocity": 100,
      "chip": "ym2612"
    },
    {
      "channel": 1,
      "note": 90,
      "start": 25.5689,
      "duration": 0.0188,
      "velocity": 87,
      "chip": "ym2612"
    },
    {
      "channel": 0,
      "note": 36,
      "start": 25.5812,
      "duration": 0.0144,
      "velocity": 115,
      "chip": "ym2612"
    },
    {
      "channel": 5,
      "note": 90,
      "start": 25.5824,
      "duration": 0.0145,
      "velocity": 87,
      "chip": "ym2612"
    },
    {
      "channel": 3,
      "note": 71,
      "start": 25.5835,
      "duration": 0.0145,
      "velocity": 96,
      "chip": "ym2612"
    },
    {
      "channel": 2,
      "note": 78,
      "start": 25.585,
      "duration": 0.0142,
      "velocity": 96,
      "chip": "ym2612"
    },
    {
      "channel": 4,
      "note": 61,
      "start": 25.5865,
      "duration": 0.014,
      "velocity": 100,
      "chip": "ym2612"
    },
    {
      "channel": 1,
      "note": 90,
      "start": 25.5877,
      "duration": 0.014,
      "velocity": 87,
      "chip": "ym2612"
    },
    {
      "channel": 0,
      "note": 36,
      "start": 25.5957,
      "duration": 0.016,
      "velocity": 115,
      "chip": "ym2612"
    },
    {
      "channel": 5,
      "note": 90,
      "start": 25.5969,
      "duration": 0.016,
      "velocity": 87,
      "chip": "ym2612"
    },
    {
      "channel": 3,
      "note": 71,
      "start": 25.598,
      "duration": 0.016,
      "velocity": 96,
      "chip": "ym2612"
    },
    {
      "channel": 2,
      "note": 78,
      "start": 25.5993,
      "duration": 0.016,
      "velocity": 96,
      "chip": "ym2612"
    },
    {
      "channel": 4,
      "note": 61,
      "start": 25.6005,
      "duration": 0.0159,
      "velocity": 100,
      "chip": "ym2612"
    },
    {
      "channel": 1,
      "note": 90,
      "start": 25.6017,
      "duration": 0.0159,
      "velocity": 87,
      "chip": "ym2612"
    },
    {
      "channel": 0,
      "note": 37,
      "start": 25.6117,
      "duration": 0.0161,
      "velocity": 115,
      "chip": "ym2612"
    },
    {
      "channel": 5,
      "note": 90,
      "start": 25.6129,
      "duration": 0.0161,
      "velocity": 87,
      "chip": "ym2612"
    },
    {
      "channel": 3,
      "note": 71,
      "start": 25.6141,
      "duration": 0.0161,
      "velocity": 96,
      "chip": "ym2612"
    },
    {
      "channel": 2,
      "note": 78,
      "start": 25.6152,
      "duration": 0.0162,
      "velocity": 96,
      "chip": "ym2612"
    },
    {
      "channel": 4,
      "note": 61,
      "start": 25.6164,
      "duration": 0.0161,
      "velocity": 100,
      "chip": "ym2612"
    },
    {
      "channel": 1,
      "note": 90,
      "start": 25.6176,
      "duration": 0.0161,
      "velocity": 87,
      "chip": "ym2612"
    },
    {
      "channel": 0,
      "note": 37,
      "start": 25.6278,
      "duration": 0.0155,
      "velocity": 115,
      "chip": "ym2612"
    },
    {
      "channel": 5,
      "note": 90,
      "start": 25.629,
      "duration": 0.0161,
      "velocity": 87,
      "chip": "ym2612"
    },
    {
      "channel": 2,
      "note": 78,
      "start": 25.6314,
      "duration": 0.0163,
      "velocity": 96,
      "chip": "ym2612"
    },
    {
      "channel": 4,
      "note": 61,
      "start": 25.6325,
      "duration": 0.0163,
      "velocity": 100,
      "chip": "ym2612"
    },
    {
      "channel": 1,
      "note": 90,
      "start": 25.6337,
      "duration": 0.0164,
      "velocity": 87,
      "chip": "ym2612"
    },
    {
      "channel": 0,
      "note": 38,
      "start": 25.6433,
      "duration": 0.0161,
      "velocity": 115,
      "chip": "ym2612"
    },
    {
      "channel": 5,
      "note": 90,
      "start": 25.6451,
      "duration": 0.016,
      "velocity": 87,
      "chip": "ym2612"
    },
    {
      "channel": 3,
      "note": 78,
      "start": 25.6466,
      "duration": 0.0159,
      "velocity": 96,
      "chip": "ym2612"
    },
    {
      "channel": 2,
      "note": 78,
      "start": 25.6477,
      "duration": 0.0158,
      "velocity": 96,
      "chip": "ym2612"
    },
    {
      "channel": 4,
      "note": 61,
      "start": 25.6489,
      "duration": 0.0159,
      "velocity": 100,
      "chip": "ym2612"
    },
    {
      "channel": 1,
      "note": 90,
      "start": 25.6501,
      "duration": 0.0158,
      "velocity": 87,
      "chip": "ym2612"
    },
    {
      "channel": 0,
      "note": 38,
      "start": 25.6594,
      "duration": 0.0161,
      "velocity": 115,
      "chip": "ym2612"
    },
    {
      "channel": 5,
      "note": 90,
      "start": 25.6612,
      "duration": 0.0156,
      "velocity": 87,
      "chip": "ym2612"
    },
    {
      "channel": 3,
      "note": 78,
      "start": 25.6624,
      "duration": 0.016,
      "velocity": 96,
      "chip": "ym2612"
    },
    {
      "channel": 2,
      "note": 78,
      "start": 25.6636,
      "duration": 0.0161,
      "velocity": 96,
      "chip": "ym2612"
    },
    {
      "channel": 4,
      "note": 61,
      "start": 25.6648,
      "duration": 0.016,
      "velocity": 100,
      "chip": "ym2612"
    },
    {
      "channel": 1,
      "note": 90,
      "start": 25.6659,
      "duration": 0.0161,
      "velocity": 87,
      "chip": "ym2612"
    },
    {
      "channel": 0,
      "note": 39,
      "start": 25.6755,
      "duration": 0.0181,
      "velocity": 115,
      "chip": "ym2612"
    },
    {
      "channel": 5,
      "note": 90,
      "start": 25.6767,
      "duration": 0.0185,
      "velocity": 87,
      "chip": "ym2612"
    },
    {
      "channel": 3,
      "note": 78,
      "start": 25.6785,
      "duration": 0.018,
      "velocity": 96,
      "chip": "ym2612"
    },
    {
      "channel": 4,
      "note": 61,
      "start": 25.6808,
      "duration": 0.0183,
      "velocity": 100,
      "chip": "ym2612"
    },
    {
      "channel": 1,
      "note": 90,
      "start": 25.682,
      "duration": 0.0184,
      "velocity": 87,
      "chip": "ym2612"
    },
    {
      "channel": 0,
      "note": 36,
      "start": 25.6937,
      "duration": 0.0141,
      "velocity": 115,
      "chip": "ym2612"
    },
    {
      "channel": 5,
      "note": 90,
      "start": 25.6952,
      "duration": 0.0137,
      "velocity": 87,
      "chip": "ym2612"
    },
    {
      "channel": 3,
      "note": 78,
      "start": 25.6965,
      "duration": 0.0139,
      "velocity": 96,
      "chip": "ym2612"
    },
    {
      "channel": 4,
      "note": 61,
      "start": 25.6992,
      "duration": 0.014,
      "velocity": 100,
      "chip": "ym2612"
    },
    {
      "channel": 1,
      "note": 90,
      "start": 25.7005,
      "duration": 0.014,
      "velocity": 87,
      "chip": "ym2612"
    },
    {
      "channel": 0,
      "note": 36,
      "start": 25.7078,
      "duration": 0.016,
      "velocity": 115,
      "chip": "ym2612"
    },
    {
      "channel": 5,
      "note": 90,
      "start": 25.709,
      "duration": 0.016,
      "velocity": 87,
      "chip": "ym2612"
    },
    {
      "channel": 3,
      "note": 78,
      "start": 25.7104,
      "duration": 0.0158,
      "velocity": 96,
      "chip": "ym2612"
    },
    {
      "channel": 4,
      "note": 61,
      "start": 25.7132,
      "duration": 0.016,
      "velocity": 100,
      "chip": "ym2612"
    },
    {
      "channel": 1,
      "note": 90,
      "start": 25.7145,
      "duration": 0.016,
      "velocity": 87,
      "chip": "ym2612"
    },
    {
      "channel": 0,
      "note": 37,
      "start": 25.7239,
      "duration": 0.0161,
      "velocity": 115,
      "chip": "ym2612"
    },
    {
      "channel": 5,
      "note": 90,
      "start": 25.725,
      "duration": 0.0161,
      "velocity": 87,
      "chip": "ym2612"
    },
    {
      "channel": 3,
      "note": 78,
      "start": 25.7262,
      "duration": 0.0161,
      "velocity": 96,
      "chip": "ym2612"
    },
    {
      "channel": 4,
      "note": 61,
      "start": 25.7292,
      "duration": 0.0161,
      "velocity": 100,
      "chip": "ym2612"
    },
    {
      "channel": 1,
      "note": 90,
      "start": 25.7304,
      "duration": 0.0161,
      "velocity": 87,
      "chip": "ym2612"
    },
    {
      "channel": 0,
      "note": 37,
      "start": 25.74,
      "duration": 0.0161,
      "velocity": 115,
      "chip": "ym2612"
    },
    {
      "channel": 5,
      "note": 90,
      "start": 25.7411,
      "duration": 0.0161,
      "velocity": 87,
      "chip": "ym2612"
    },
    {
      "channel": 4,
      "note": 61,
      "start": 25.7453,
      "duration": 0.0161,
      "velocity": 100,
      "chip": "ym2612"
    },
    {
      "channel": 1,
      "note": 90,
      "start": 25.7465,
      "duration": 0.0162,
      "velocity": 87,
      "chip": "ym2612"
    },
    {
      "channel": 0,
      "note": 38,
      "start": 25.7561,
      "duration": 0.0161,
      "velocity": 115,
      "chip": "ym2612"
    },
    {
      "channel": 5,
      "note": 90,
      "start": 25.7572,
      "duration": 0.0161,
      "velocity": 87,
      "chip": "ym2612"
    },
    {
      "channel": 4,
      "note": 61,
      "start": 25.7614,
      "duration": 0.0157,
      "velocity": 100,
      "chip": "ym2612"
    },
    {
      "channel": 1,
      "note": 90,
      "start": 25.7627,
      "duration": 0.016,
      "velocity": 87,
      "chip": "ym2612"
    },
    {
      "channel": 0,
      "note": 38,
      "start": 25.7722,
      "duration": 0.0161,
      "velocity": 115,
      "chip": "ym2612"
    },
    {
      "channel": 5,
      "note": 90,
      "start": 25.7734,
      "duration": 0.0161,
      "velocity": 87,
      "chip": "ym2612"
    },
    {
      "channel": 4,
      "note": 61,
      "start": 25.7771,
      "duration": 0.0159,
      "velocity": 100,
      "chip": "ym2612"
    },
    {
      "channel": 1,
      "note": 90,
      "start": 25.7787,
      "duration": 0.016,
      "velocity": 87,
      "chip": "ym2612"
    },
    {
      "channel": 0,
      "note": 39,
      "start": 25.7883,
      "duration": 0.0161,
      "velocity": 115,
      "chip": "ym2612"
    },
    {
      "channel": 5,
      "note": 90,
      "start": 25.7895,
      "duration": 0.0161,
      "velocity": 87,
      "chip": "ym2612"
    },
    {
      "channel": 4,
      "note": 61,
      "start": 25.793,
      "duration": 0.0163,
      "velocity": 100,
      "chip": "ym2612"
    },
    {
      "channel": 1,
      "note": 90,
      "start": 25.7947,
      "duration": 0.0163,
      "velocity": 87,
      "chip": "ym2612"
    },
    {
      "channel": 0,
      "note": 39,
      "start": 25.8043,
      "duration": 0.0161,
      "velocity": 115,
      "chip": "ym2612"
    },
    {
      "channel": 5,
      "note": 90,
      "start": 25.8056,
      "duration": 0.0161,
      "velocity": 87,
      "chip": "ym2612"
    },
    {
      "channel": 2,
      "note": 70,
      "start": 25.8082,
      "duration": 0.0159,
      "velocity": 96,
      "chip": "ym2612"
    },
    {
      "channel": 4,
      "note": 61,
      "start": 25.8093,
      "duration": 0.0159,
      "velocity": 100,
      "chip": "ym2612"
    },
    {
      "channel": 1,
      "note": 90,
      "start": 25.8111,
      "duration": 0.0153,
      "velocity": 87,
      "chip": "ym2612"
    },
    {
      "channel": 0,
      "note": 40,
      "start": 25.8204,
      "duration": 0.0162,
      "velocity": 115,
      "chip": "ym2612"
    },
    {
      "channel": 5,
      "note": 90,
      "start": 25.8217,
      "duration": 0.0161,
      "velocity": 87,
      "chip": "ym2612"
    },
    {
      "channel": 2,
      "note": 70,
      "start": 25.8241,
      "duration": 0.016,
      "velocity": 96,
      "chip": "ym2612"
    },
    {
      "channel": 4,
      "note": 61,
      "start": 25.8252,
      "duration": 0.016,
      "velocity": 100,
      "chip": "ym2612"
    },
    {
      "channel": 1,
      "note": 90,
      "start": 25.8263,
      "duration": 0.016,
      "velocity": 87,
      "chip": "ym2612"
    },
    {
      "channel": 0,
      "note": 40,
      "start": 25.8366,
      "duration": 0.0161,
      "velocity": 115,
      "chip": "ym2612"
    },
    {
      "channel": 5,
      "note": 90,
      "start": 25.8377,
      "duration": 0.0161,
      "velocity": 87,
      "chip": "ym2612"
    },
    {
      "channel": 2,
      "note": 70,
      "start": 25.8401,
      "duration": 0.0161,
      "velocity": 96,
      "chip": "ym2612"
    },
    {
      "channel": 4,
      "note": 61,
      "start": 25.8412,
      "duration": 0.0161,
      "velocity": 100,
      "chip": "ym2612"
    },
    {
      "channel": 1,
      "note": 90,
      "start": 25.8424,
      "duration": 0.0162,
      "velocity": 87,
      "chip": "ym2612"
    },
    {
      "channel": 0,
      "note": 40,
      "start": 25.8527,
      "duration": 0.0161,
      "velocity": 115,
      "chip": "ym2612"
    },
    {
      "channel": 5,
      "note": 90,
      "start": 25.8538,
      "duration": 0.0161,
      "velocity": 87,
      "chip": "ym2612"
    },
    {
      "channel": 2,
      "note": 70,
      "start": 25.8562,
      "duration": 0.0164,
      "velocity": 96,
      "chip": "ym2612"
    },
    {
      "channel": 4,
      "note": 61,
      "start": 25.8573,
      "duration": 0.0164,
      "velocity": 100,
      "chip": "ym2612"
    },
    {
      "channel": 1,
      "note": 90,
      "start": 25.8585,
      "duration": 0.0163,
      "velocity": 87,
      "chip": "ym2612"
    },
    {
      "channel": 0,
      "note": 41,
      "start": 25.8688,
      "duration": 0.0161,
      "velocity": 115,
      "chip": "ym2612"
    },
    {
      "channel": 5,
      "note": 90,
      "start": 25.8699,
      "duration": 0.0162,
      "velocity": 87,
      "chip": "ym2612"
    },
    {
      "channel": 3,
      "note": 70,
      "start": 25.8714,
      "duration": 0.016,
      "velocity": 96,
      "chip": "ym2612"
    },
    {
      "channel": 2,
      "note": 70,
      "start": 25.8726,
      "duration": 0.0159,
      "velocity": 96,
      "chip": "ym2612"
    },
    {
      "channel": 4,
      "note": 61,
      "start": 25.8737,
      "duration": 0.0159,
      "velocity": 100,
      "chip": "ym2612"
    },
    {
      "channel": 1,
      "note": 90,
      "start": 25.8749,
      "duration": 0.016,
      "velocity": 87,
      "chip": "ym2612"
    },
    {
      "channel": 0,
      "note": 41,
      "start": 25.8849,
      "duration": 0.0161,
      "velocity": 115,
      "chip": "ym2612"
    },
    {
      "channel": 5,
      "note": 90,
      "start": 25.8861,
      "duration": 0.016,
      "velocity": 87,
      "chip": "ym2612"
    },
    {
      "channel": 3,
      "note": 70,
      "start": 25.8873,
      "duration": 0.016,
      "velocity": 96,
      "chip": "ym2612"
    },
    {
      "channel": 2,
      "note": 70,
      "start": 25.8885,
      "duration": 0.016,
      "velocity": 96,
      "chip": "ym2612"
    },
    {
      "channel": 4,
      "note": 61,
      "start": 25.8896,
      "duration": 0.016,
      "velocity": 100,
      "chip": "ym2612"
    },
    {
      "channel": 0,
      "note": 42,
      "start": 25.901,
      "duration": 0.0179,
      "velocity": 124,
      "chip": "ym2612"
    },
    {
      "channel": 5,
      "note": 90,
      "start": 25.9022,
      "duration": 0.018,
      "velocity": 87,
      "chip": "ym2612"
    },
    {
      "channel": 3,
      "note": 70,
      "start": 25.9034,
      "duration": 0.018,
      "velocity": 96,
      "chip": "ym2612"
    },
    {
      "channel": 4,
      "note": 61,
      "start": 25.9057,
      "duration": 0.0181,
      "velocity": 100,
      "chip": "ym2612"
    },
    {
      "channel": 0,
      "note": 84,
      "start": 25.9189,
      "duration": 0.0143,
      "velocity": 124,
      "chip": "ym2612"
    },
    {
      "channel": 5,
      "note": 90,
      "start": 25.9202,
      "duration": 0.0143,
      "velocity": 87,
      "chip": "ym2612"
    },
    {
      "channel": 3,
      "note": 70,
      "start": 25.9213,
      "duration": 0.0143,
      "velocity": 96,
      "chip": "ym2612"
    },
    {
      "channel": 4,
      "note": 61,
      "start": 25.9238,
      "duration": 0.0142,
      "velocity": 100,
      "chip": "ym2612"
    },
    {
      "channel": 1,
      "note": 85,
      "start": 25.9253,
      "duration": 0.0139,
      "velocity": 87,
      "chip": "ym2612"
    },
    {
      "channel": 0,
      "note": 82,
      "start": 25.9332,
      "duration": 0.016,
      "velocity": 124,
      "chip": "ym2612"
    },
    {
      "channel": 5,
      "note": 90,
      "start": 25.9345,
      "duration": 0.016,
      "velocity": 87,
      "chip": "ym2612"
    },
    {
      "channel": 3,
      "note": 70,
      "start": 25.9356,
      "duration": 0.0161,
      "velocity": 96,
      "chip": "ym2612"
    },
    {
      "channel": 4,
      "note": 61,
      "start": 25.938,
      "duration": 0.016,
      "velocity": 100,
      "chip": "ym2612"
    },
    {
      "channel": 1,
      "note": 85,
      "start": 25.9393,
      "duration": 0.016,
      "velocity": 87,
      "chip": "ym2612"
    },
    {
      "channel": 0,
      "note": 80,
      "start": 25.9493,
      "duration": 0.0162,
      "velocity": 124,
      "chip": "ym2612"
    },
    {
      "channel": 5,
      "note": 90,
      "start": 25.9505,
      "duration": 0.016,
      "velocity": 87,
      "chip": "ym2612"
    },
    {
      "channel": 3,
      "note": 70,
      "start": 25.9517,
      "duration": 0.016,
      "velocity": 96,
      "chip": "ym2612"
    },
    {
      "channel": 4,
      "note": 61,
      "start": 25.9541,
      "duration": 0.0161,
      "velocity": 100,
      "chip": "ym2612"
    },
    {
      "channel": 1,
      "note": 85,
      "start": 25.9553,
      "duration": 0.016,
      "velocity": 87,
      "chip": "ym2612"
    },
    {
      "channel": 0,
      "note": 77,
      "start": 25.9654,
      "duration": 0.0161,
      "velocity": 124,
      "chip": "ym2612"
    },
    {
      "channel": 5,
      "note": 90,
      "start": 25.9666,
      "duration": 0.0161,
      "velocity": 87,
      "chip": "ym2612"
    },
    {
      "channel": 4,
      "note": 61,
      "start": 25.9702,
      "duration": 0.0162,
      "velocity": 100,
      "chip": "ym2612"
    },
    {
      "channel": 1,
      "note": 85,
      "start": 25.9713,
      "duration": 0.0161,
      "velocity": 87,
      "chip": "ym2612"
    },
    {
      "channel": 0,
      "note": 75,
      "start": 25.9815,
      "duration": 0.0161,
      "velocity": 124,
      "chip": "ym2612"
    },
    {
      "channel": 5,
      "note": 90,
      "start": 25.9827,
      "duration": 0.0161,
      "velocity": 87,
      "chip": "ym2612"
    },
    {
      "channel": 4,
      "note": 61,
      "start": 25.9863,
      "duration": 0.016,
      "velocity": 100,
      "chip": "ym2612"
    },
    {
      "channel": 1,
      "note": 85,
      "start": 25.9875,
      "duration": 0.016,
      "velocity": 87,
      "chip": "ym2612"
    },
    {
      "channel": 0,
      "note": 72,
      "start": 25.9976,
      "duration": 0.0161,
      "velocity": 124,
      "chip": "ym2612"
    },
    {
      "channel": 5,
      "note": 90,
      "start": 25.9988,
      "duration": 0.0161,
      "velocity": 87,
      "chip": "ym2612"
    },
    {
      "channel": 4,
      "note": 61,
      "start": 26.0023,
      "duration": 0.0161,
      "velocity": 100,
      "chip": "ym2612"
    },
    {
      "channel": 1,
      "note": 85,
      "start": 26.0035,
      "duration": 0.0161,
      "velocity": 87,
      "chip": "ym2612"
    },
    {
      "channel": 0,
      "note": 70,
      "start": 26.0137,
      "duration": 0.0161,
      "velocity": 124,
      "chip": "ym2612"
    },
    {
      "channel": 5,
      "note": 90,
      "start": 26.0148,
      "duration": 0.0162,
      "velocity": 87,
      "chip": "ym2612"
    },
    {
      "channel": 4,
      "note": 61,
      "start": 26.0185,
      "duration": 0.0166,
      "velocity": 100,
      "chip": "ym2612"
    },
    {
      "channel": 1,
      "note": 85,
      "start": 26.0196,
      "duration": 0.0167,
      "velocity": 87,
      "chip": "ym2612"
    },
    {
      "channel": 0,
      "note": 68,
      "start": 26.0298,
      "duration": 0.0164,
      "velocity": 124,
      "chip": "ym2612"
    },
    {
      "channel": 5,
      "note": 90,
      "start": 26.031,
      "duration": 0.0164,
      "velocity": 87,
      "chip": "ym2612"
    },
    {
      "channel": 2,
      "note": 73,
      "start": 26.0337,
      "duration": 0.0161,
      "velocity": 96,
      "chip": "ym2612"
    },
    {
      "channel": 4,
      "note": 54,
      "start": 26.0351,
      "duration": 0.016,
      "velocity": 100,
      "chip": "ym2612"
    },
    {
      "channel": 1,
      "note": 85,
      "start": 26.0363,
      "duration": 0.016,
      "velocity": 87,
      "chip": "ym2612"
    },
    {
      "channel": 0,
      "note": 65,
      "start": 26.0463,
      "duration": 0.0163,
      "velocity": 124,
      "chip": "ym2612"
    },
    {
      "channel": 5,
      "note": 90,
      "start": 26.0474,
      "duration": 0.0163,
      "velocity": 87,
      "chip": "ym2612"
    },
    {
      "channel": 2,
      "note": 73,
      "start": 26.0498,
      "duration": 0.0163,
      "velocity": 96,
      "chip": "ym2612"
    },
    {
      "channel": 4,
      "note": 54,
      "start": 26.051,
      "duration": 0.0162,
      "velocity": 100,
      "chip": "ym2612"
    },
    {
      "channel": 1,
      "note": 85,
      "start": 26.0522,
      "duration": 0.0161,
      "velocity": 87,
      "chip": "ym2612"
    },
    {
      "channel": 0,
      "note": 63,
      "start": 26.0625,
      "duration": 0.0153,
      "velocity": 1,
      "chip": "ym2612"
    },
    {
      "channel": 5,
      "note": 90,
      "start": 26.0638,
      "duration": 0.0153,
      "velocity": 87,
      "chip": "ym2612"
    },
    {
      "channel": 2,
      "note": 73,
      "start": 26.0661,
      "duration": 0.0153,
      "velocity": 96,
      "chip": "ym2612"
    },
    {
      "channel": 4,
      "note": 54,
      "start": 26.0673,
      "duration": 0.0153,
      "velocity": 100,
      "chip": "ym2612"
    },
    {
      "channel": 1,
      "note": 85,
      "start": 26.0684,
      "duration": 0.0154,
      "velocity": 87,
      "chip": "ym2612"
    },
    {
      "channel": 2,
      "note": 73,
      "start": 26.0814,
      "duration": 0.0155,
      "velocity": 96,
      "chip": "ym2612"
    },
    {
      "channel": 4,
      "note": 54,
      "start": 26.0826,
      "duration": 0.0155,
      "velocity": 100,
      "chip": "ym2612"
    },
    {
      "channel": 1,
      "note": 85,
      "start": 26.0837,
      "duration": 0.0155,
      "velocity": 87,
      "chip": "ym2612"
    },
    {
      "channel": 3,
      "note": 73,
      "start": 26.0958,
      "duration": 0.0162,
      "velocity": 96,
      "chip": "ym2612"
    },
    {
      "channel": 2,
      "note": 73,
      "start": 26.0969,
      "duration": 0.0162,
      "velocity": 96,
      "chip": "ym2612"
    },
    {
      "channel": 4,
      "note": 54,
      "start": 26.098,
      "duration": 0.0162,
      "velocity": 100,
      "chip": "ym2612"
    },
    {
      "channel": 1,
      "note": 85,
      "start": 26.0993,
      "duration": 0.0162,
      "velocity": 87,
      "chip": "ym2612"
    },
    {
      "channel": 5,
      "note": 85,
      "start": 26.1103,
      "duration": 0.0156,
      "velocity": 87,
      "chip": "ym2612"
    },
    {
      "channel": 3,
      "note": 73,
      "start": 26.112,
      "duration": 0.0153,
      "velocity": 96,
      "chip": "ym2612"
    },
    {
      "channel": 2,
      "note": 73,
      "start": 26.1131,
      "duration": 0.0157,
      "velocity": 96,
      "chip": "ym2612"
    },
    {
      "channel": 4,
      "note": 54,
      "start": 26.1143,
      "duration": 0.0158,
      "velocity": 100,
      "chip": "ym2612"
    },
    {
      "channel": 5,
      "note": 85,
      "start": 26.1259,
      "duration": 0.0202,
      "velocity": 87,
      "chip": "ym2612"
    },
    {
      "channel": 3,
      "note": 73,
      "start": 26.1273,
      "duration": 0.02,
      "velocity": 96,
      "chip": "ym2612"
    },
    {
      "channel": 4,
      "note": 54,
      "start": 26.13,
      "duration": 0.0202,
      "velocity": 100,
      "chip": "ym2612"
    },
    {
      "channel": 0,
      "note": 36,
      "start": 26.1449,
      "duration": 0.0138,
      "velocity": 115,
      "chip": "ym2612"
    },
    {
      "channel": 5,
      "note": 85,
      "start": 26.1461,
      "duration": 0.0137,
      "velocity": 87,
      "chip": "ym2612"
    },
    {
      "channel": 3,
      "note": 73,
      "start": 26.1473,
      "duration": 0.0142,
      "velocity": 96,
      "chip": "ym2612"
    },
    {
      "channel": 2,
      "note": 78,
      "start": 26.1488,
      "duration": 0.014,
      "velocity": 96,
      "chip": "ym2612"
    },
    {
      "channel": 4,
      "note": 54,
      "start": 26.1502,
      "duration": 0.0138,
      "velocity": 100,
      "chip": "ym2612"
    },
    {
      "channel": 1,
      "note": 91,
      "start": 26.1517,
      "duration": 0.0136,
      "velocity": 87,
      "chip": "ym2612"
    },
    {
      "channel": 0,
      "note": 36,
      "start": 26.1587,
      "duration": 0.016,
      "velocity": 115,
      "chip": "ym2612"
    },
    {
      "channel": 5,
      "note": 85,
      "start": 26.1598,
      "duration": 0.016,
      "velocity": 87,
      "chip": "ym2612"
    },
    {
      "channel": 3,
      "note": 73,
      "start": 26.1615,
      "duration": 0.0157,
      "velocity": 96,
      "chip": "ym2612"
    },
    {
      "channel": 2,
      "note": 78,
      "start": 26.1628,
      "duration": 0.016,
      "velocity": 96,
      "chip": "ym2612"
    },
    {
      "channel": 4,
      "note": 54,
      "start": 26.164,
      "duration": 0.0159,
      "velocity": 100,
      "chip": "ym2612"
    },
    {
      "channel": 1,
      "note": 91,
      "start": 26.1653,
      "duration": 0.0158,
      "velocity": 87,
      "chip": "ym2612"
    },
    {
      "channel": 0,
      "note": 37,
      "start": 26.1747,
      "duration": 0.0161,
      "velocity": 115,
      "chip": "ym2612"
    },
    {
      "channel": 5,
      "note": 85,
      "start": 26.1759,
      "duration": 0.0161,
      "velocity": 87,
      "chip": "ym2612"
    },
    {
      "channel": 3,
      "note": 73,
      "start": 26.1772,
      "duration": 0.0159,
      "velocity": 96,
      "chip": "ym2612"
    },
    {
      "channel": 2,
      "note": 78,
      "start": 26.1788,
      "duration": 0.016,
      "velocity": 96,
      "chip": "ym2612"
    },
    {
      "channel": 4,
      "note": 54,
      "start": 26.1799,
      "duration": 0.0161,
      "velocity": 100,
      "chip": "ym2612"
    },
    {
      "channel": 1,
      "note": 91,
      "start": 26.1811,
      "duration": 0.0161,
      "velocity": 87,
      "chip": "ym2612"
    },
    {
      "channel": 0,
      "note": 37,
      "start": 26.1908,
      "duration": 0.0161,
      "velocity": 115,
      "chip": "ym2612"
    },
    {
      "channel": 5,
      "note": 85,
      "start": 26.1919,
      "duration": 0.0161,
      "velocity": 87,
      "chip": "ym2612"
    },
    {
      "channel": 2,
      "note": 78,
      "start": 26.1948,
      "duration": 0.0165,
      "velocity": 96,
      "chip": "ym2612"
    },
    {
      "channel": 4,
      "note": 54,
      "start": 26.196,
      "duration": 0.0165,
      "velocity": 100,
      "chip": "ym2612"
    },
    {
      "channel": 1,
      "note": 91,
      "start": 26.1972,
      "duration": 0.0164,
      "velocity": 87,
      "chip": "ym2612"
    },
    {
      "channel": 0,
      "note": 38,
      "start": 26.2069,
      "duration": 0.0161,
      "velocity": 115,
      "chip": "ym2612"
    },
    {
      "channel": 5,
      "note": 85,
      "start": 26.208,
      "duration": 0.0161,
      "velocity": 87,
      "chip": "ym2612"
    },
    {
      "channel": 3,
      "note": 78,
      "start": 26.2096,
      "duration": 0.0158,
      "velocity": 96,
      "chip": "ym2612"
    },
    {
      "channel": 2,
      "note": 78,
      "start": 26.2113,
      "duration": 0.0153,
      "velocity": 96,
      "chip": "ym2612"
    },
    {
      "channel": 4,
      "note": 54,
      "start": 26.2125,
      "duration": 0.0157,
      "velocity": 100,
      "chip": "ym2612"
    },
    {
      "channel": 1,
      "note": 91,
      "start": 26.2136,
      "duration": 0.0159,
      "velocity": 87,
      "chip": "ym2612"
    },
    {
      "channel": 0,
      "note": 38,
      "start": 26.223,
      "duration": 0.0161,
      "velocity": 115,
      "chip": "ym2612"
    },
    {
      "channel": 5,
      "note": 85,
      "start": 26.2241,
      "duration": 0.0162,
      "velocity": 87,
      "chip": "ym2612"
    },
    {
      "channel": 3,
      "note": 78,
      "start": 26.2254,
      "duration": 0.016,
      "velocity": 96,
      "chip": "ym2612"
    },
    {
      "channel": 2,
      "note": 78,
      "start": 26.2266,
      "duration": 0.016,
      "velocity": 96,
      "chip": "ym2612"
    },
    {
      "channel": 4,
      "note": 54,
      "start": 26.2282,
      "duration": 0.0158,
      "velocity": 100,
      "chip": "ym2612"
    },
    {
      "channel": 1,
      "note": 91,
      "start": 26.2295,
      "duration": 0.016,
      "velocity": 87,
      "chip": "ym2612"
    },
    {
      "channel": 0,
      "note": 39,
      "start": 26.2391,
      "duration": 0.0161,
      "velocity": 115,
      "chip": "ym2612"
    },
    {
      "channel": 5,
      "note": 85,
      "start": 26.2403,
      "duration": 0.0161,
      "velocity": 87,
      "chip": "ym2612"
    },
    {
      "channel": 3,
      "note": 78,
      "start": 26.2414,
      "duration": 0.0161,
      "velocity": 96,
      "chip": "ym2612"
    },
    {
      "channel": 4,
      "note": 54,
      "start": 26.244,
      "duration": 0.0163,
      "velocity": 100,
      "chip": "ym2612"
    },
    {
      "channel": 1,
      "note": 91,
      "start": 26.2455,
      "duration": 0.0165,
      "velocity": 87,
      "chip": "ym2612"
    },
    {
      "channel": 0,
      "note": 39,
      "start": 26.2552,
      "duration": 0.0161,
      "velocity": 115,
      "chip": "ym2612"
    },
    {
      "channel": 5,
      "note": 85,
      "start": 26.2564,
      "duration": 0.0161,
      "velocity": 87,
      "chip": "ym2612"
    },
    {
      "channel": 3,
      "note": 78,
      "start": 26.2575,
      "duration": 0.0161,
      "velocity": 96,
      "chip": "ym2612"
    },
    {
      "channel": 2,
      "note": 70,
      "start": 26.259,
      "duration": 0.0159,
      "velocity": 96,
      "chip": "ym2612"
    },
    {
      "channel": 4,
      "note": 54,
      "start": 26.2603,
      "duration": 0.0156,
      "velocity": 100,
      "chip": "ym2612"
    },
    {
      "channel": 1,
      "note": 91,
      "start": 26.262,
      "duration": 0.0158,
      "velocity": 87,
      "chip": "ym2612"
    },
    {
      "channel": 0,
      "note": 40,
      "start": 26.2713,
      "duration": 0.0161,
      "velocity": 115,
      "chip": "ym2612"
    },
    {
      "channel": 5,
      "note": 85,
      "start": 26.2725,
      "duration": 0.0161,
      "velocity": 87,
      "chip": "ym2612"
    },
    {
      "channel": 3,
      "note": 78,
      "start": 26.2736,
      "duration": 0.0161,
      "velocity": 96,
      "chip": "ym2612"
    },
    {
      "channel": 2,
      "note": 70,
      "start": 26.2748,
      "duration": 0.016,
      "velocity": 96,
      "chip": "ym2612"
    },
    {
      "channel": 4,
      "note": 54,
      "start": 26.276,
      "duration": 0.016,
      "velocity": 100,
      "chip": "ym2612"
    },
    {
      "channel": 1,
      "note": 91,
      "start": 26.2778,
      "duration": 0.0155,
      "velocity": 87,
      "chip": "ym2612"
    },
    {
      "channel": 0,
      "note": 40,
      "start": 26.2873,
      "duration": 0.0162,
      "velocity": 115,
      "chip": "ym2612"
    },
    {
      "channel": 5,
      "note": 85,
      "start": 26.2886,
      "duration": 0.0161,
      "velocity": 87,
      "chip": "ym2612"
    },
    {
      "channel": 3,
      "note": 78,
      "start": 26.2897,
      "duration": 0.0162,
      "velocity": 96,
      "chip": "ym2612"
    },
    {
      "channel": 2,
      "note": 70,
      "start": 26.2909,
      "duration": 0.0161,
      "velocity": 96,
      "chip": "ym2612"
    },
    {
      "channel": 4,
      "note": 54,
      "start": 26.292,
      "duration": 0.0162,
      "velocity": 100,
      "chip": "ym2612"
    },
    {
      "channel": 1,
      "note": 91,
      "start": 26.2933,
      "duration": 0.0161,
      "velocity": 87,
      "chip": "ym2612"
    },
    {
      "channel": 0,
      "note": 40,
      "start": 26.3035,
      "duration": 0.0161,
      "velocity": 115,
      "chip": "ym2612"
    },
    {
      "channel": 2,
      "note": 70,
      "start": 26.307,
      "duration": 0.0163,
      "velocity": 96,
      "chip": "ym2612"
    },
    {
      "channel": 4,
      "note": 54,
      "start": 26.3082,
      "duration": 0.0163,
      "velocity": 100,
      "chip": "ym2612"
    },
    {
      "channel": 1,
      "note": 91,
      "start": 26.3094,
      "duration": 0.0164,
      "velocity": 87,
      "chip": "ym2612"
    },
    {
      "channel": 0,
      "note": 41,
      "start": 26.3196,
      "duration": 0.0161,
      "velocity": 115,
      "chip": "ym2612"
    },
    {
      "channel": 3,
      "note": 70,
      "start": 26.3222,
      "duration": 0.0162,
      "velocity": 96,
      "chip": "ym2612"
    },
    {
      "channel": 2,
      "note": 70,
      "start": 26.3234,
      "duration": 0.0162,
      "velocity": 96,
      "chip": "ym2612"
    },
    {
      "channel": 4,
      "note": 54,
      "start": 26.3245,
      "duration": 0.0162,
      "velocity": 100,
      "chip": "ym2612"
    },
    {
      "channel": 1,
      "note": 91,
      "start": 26.3258,
      "duration": 0.0161,
      "velocity": 87,
      "chip": "ym2612"
    },
    {
      "channel": 0,
      "note": 41,
      "start": 26.3357,
      "duration": 0.0161,
      "velocity": 115,
      "chip": "ym2612"
    },
    {
      "channel": 5,
      "note": 91,
      "start": 26.3372,
      "duration": 0.0158,
      "velocity": 87,
      "chip": "ym2612"
    },
    {
      "channel": 3,
      "note": 70,
      "start": 26.3384,
      "duration": 0.0158,
      "velocity": 96,
      "chip": "ym2612"
    },
    {
      "channel": 2,
      "note": 70,
      "start": 26.3396,
      "duration": 0.0158,
      "velocity": 96,
      "chip": "ym2612"
    },
    {
      "channel": 4,
      "note": 54,
      "start": 26.3407,
      "duration": 0.0158,
      "velocity": 100,
      "chip": "ym2612"
    },
    {
      "channel": 0,
      "note": 42,
      "start": 26.3518,
      "duration": 0.0179,
      "velocity": 124,
      "chip": "ym2612"
    },
    {
      "channel": 5,
      "note": 91,
      "start": 26.353,
      "duration": 0.0179,
      "velocity": 87,
      "chip": "ym2612"
    },
    {
      "channel": 3,
      "note": 70,
      "start": 26.3542,
      "duration": 0.0179,
      "velocity": 96,
      "chip": "ym2612"
    },
    {
      "channel": 4,
      "note": 54,
      "start": 26.3565,
      "duration": 0.0182,
      "velocity": 100,
      "chip": "ym2612"
    },
    {
      "channel": 0,
      "note": 84,
      "start": 26.3697,
      "duration": 0.0143,
      "velocity": 124,
      "chip": "ym2612"
    },
    {
      "channel": 5,
      "note": 91,
      "start": 26.371,
      "duration": 0.0143,
      "velocity": 87,
      "chip": "ym2612"
    },
    {
      "channel": 3,
      "note": 70,
      "start": 26.3721,
      "duration": 0.0143,
      "velocity": 96,
      "chip": "ym2612"
    },
    {
      "channel": 2,
      "note": 71,
      "start": 26.3736,
      "duration": 0.0141,
      "velocity": 96,
      "chip": "ym2612"
    },
    {
      "channel": 4,
      "note": 54,
      "start": 26.3747,
      "duration": 0.0141,
      "velocity": 100,
      "chip": "ym2612"
    },
    {
      "channel": 1,
      "note": 90,
      "start": 26.3762,
      "duration": 0.0139,
      "velocity": 87,
      "chip": "ym2612"
    },
    {
      "channel": 0,
      "note": 82,
      "start": 26.3841,
      "duration": 0.016,
      "velocity": 124,
      "chip": "ym2612"
    },
    {
      "channel": 5,
      "note": 91,
      "start": 26.3853,
      "duration": 0.016,
      "velocity": 87,
      "chip": "ym2612"
    },
    {
      "channel": 3,
      "note": 70,
      "start": 26.3864,
      "duration": 0.016,
      "velocity": 96,
      "chip": "ym2612"
    },
    {
      "channel": 2,
      "note": 71,
      "start": 26.3876,
      "duration": 0.016,
      "velocity": 96,
      "chip": "ym2612"
    },
    {
      "channel": 4,
      "note": 54,
      "start": 26.3888,
      "duration": 0.016,
      "velocity": 100,
      "chip": "ym2612"
    },
    {
      "channel": 1,
      "note": 90,
      "start": 26.39,
      "duration": 0.0159,
      "velocity": 87,
      "chip": "ym2612"
    },
    {
      "channel": 0,
      "note": 80,
      "start": 26.4001,
      "duration": 0.0161,
      "velocity": 124,
      "chip": "ym2612"
    },
    {
      "channel": 5,
      "note": 91,
      "start": 26.4013,
      "duration": 0.0161,
      "velocity": 87,
      "chip": "ym2612"
    },
    {
      "channel": 3,
      "note": 70,
      "start": 26.4024,
      "duration": 0.0161,
      "velocity": 96,
      "chip": "ym2612"
    },
    {
      "channel": 2,
      "note": 71,
      "start": 26.4036,
      "duration": 0.0161,
      "velocity": 96,
      "chip": "ym2612"
    },
    {
      "channel": 4,
      "note": 54,
      "start": 26.4047,
      "duration": 0.0162,
      "velocity": 100,
      "chip": "ym2612"
    },
    {
      "channel": 1,
      "note": 90,
      "start": 26.4059,
      "duration": 0.0161,
      "velocity": 87,
      "chip": "ym2612"
    },
    {
      "channel": 0,
      "note": 77,
      "start": 26.4162,
      "duration": 0.0162,
      "velocity": 124,
      "chip": "ym2612"
    },
    {
      "channel": 5,
      "note": 91,
      "start": 26.4174,
      "duration": 0.0161,
      "velocity": 87,
      "chip": "ym2612"
    },
    {
      "channel": 2,
      "note": 71,
      "start": 26.4197,
      "duration": 0.0163,
      "velocity": 96,
      "chip": "ym2612"
    },
    {
      "channel": 4,
      "note": 54,
      "start": 26.4209,
      "duration": 0.0163,
      "velocity": 100,
      "chip": "ym2612"
    },
    {
      "channel": 1,
      "note": 90,
      "start": 26.422,
      "duration": 0.0164,
      "velocity": 87,
      "chip": "ym2612"
    },
    {
      "channel": 0,
      "note": 75,
      "start": 26.4323,
      "duration": 0.0161,
      "velocity": 124,
      "chip": "ym2612"
    },
    {
      "channel": 5,
      "note": 91,
      "start": 26.4335,
      "duration": 0.0162,
      "velocity": 87,
      "chip": "ym2612"
    },
    {
      "channel": 3,
      "note": 71,
      "start": 26.4349,
      "duration": 0.016,
      "velocity": 96,
      "chip": "ym2612"
    },
    {
      "channel": 2,
      "note": 71,
      "start": 26.4361,
      "duration": 0.016,
      "velocity": 96,
      "chip": "ym2612"
    },
    {
      "channel": 4,
      "note": 54,
      "start": 26.4372,
      "duration": 0.016,
      "velocity": 100,
      "chip": "ym2612"
    },
    {
      "channel": 1,
      "note": 90,
      "start": 26.4384,
      "duration": 0.016,
      "velocity": 87,
      "chip": "ym2612"
    },
    {
      "channel": 0,
      "note": 72,
      "start": 26.4484,
      "duration": 0.0161,
      "velocity": 124,
      "chip": "ym2612"
    },
    {
      "channel": 5,
      "note": 91,
      "start": 26.4496,
      "duration": 0.0161,
      "velocity": 87,
      "chip": "ym2612"
    },
    {
      "channel": 3,
      "note": 71,
      "start": 26.4509,
      "duration": 0.016,
      "velocity": 96,
      "chip": "ym2612"
    },
    {
      "channel": 2,
      "note": 71,
      "start": 26.452,
      "duration": 0.016,
      "velocity": 96,
      "chip": "ym2612"
    },
    {
      "channel": 4,
      "note": 54,
      "start": 26.4532,
      "duration": 0.016,
      "velocity": 100,
      "chip": "ym2612"
    },
    {
      "channel": 1,
      "note": 90,
      "start": 26.4544,
      "duration": 0.016,
      "velocity": 87,
      "chip": "ym2612"
    },
    {
      "channel": 0,
      "note": 70,
      "start": 26.4645,
      "duration": 0.0161,
      "velocity": 124,
      "chip": "ym2612"
    },
    {
      "channel": 5,
      "note": 91,
      "start": 26.4657,
      "duration": 0.0161,
      "velocity": 87,
      "chip": "ym2612"
    },
    {
      "channel": 3,
      "note": 71,
      "start": 26.4669,
      "duration": 0.0161,
      "velocity": 96,
      "chip": "ym2612"
    },
    {
      "channel": 4,
      "note": 54,
      "start": 26.4692,
      "duration": 0.0166,
      "velocity": 100,
      "chip": "ym2612"
    },
    {
      "channel": 1,
      "note": 90,
      "start": 26.4704,
      "duration": 0.0168,
      "velocity": 87,
      "chip": "ym2612"
    },
    {
      "channel": 0,
      "note": 68,
      "start": 26.4806,
      "duration": 0.0162,
      "velocity": 124,
      "chip": "ym2612"
    },
    {
      "channel": 5,
      "note": 91,
      "start": 26.4818,
      "duration": 0.0162,
      "velocity": 87,
      "chip": "ym2612"
    },
    {
      "channel": 3,
      "note": 71,
      "start": 26.483,
      "duration": 0.0161,
      "velocity": 96,
      "chip": "ym2612"
    },
    {
      "channel": 2,
      "note": 78,
      "start": 26.4844,
      "duration": 0.0159,
      "velocity": 96,
      "chip": "ym2612"
    },
    {
      "channel": 4,
      "note": 61,
      "start": 26.4859,
      "duration": 0.0156,
      "velocity": 100,
      "chip": "ym2612"
    },
    {
      "channel": 1,
      "note": 90,
      "start": 26.4872,
      "duration": 0.0156,
      "velocity": 87,
      "chip": "ym2612"
    },
    {
      "channel": 0,
      "note": 65,
      "start": 26.4968,
      "duration": 0.0163,
      "velocity": 124,
      "chip": "ym2612"
    },
    {
      "channel": 5,
      "note": 91,
      "start": 26.498,
      "duration": 0.0163,
      "velocity": 87,
      "chip": "ym2612"
    },
    {
      "channel": 3,
      "note": 71,
      "start": 26.4991,
      "duration": 0.0163,
      "velocity": 96,
      "chip": "ym2612"
    },
    {
      "channel": 2,
      "note": 78,
      "start": 26.5003,
      "duration": 0.0162,
      "velocity": 96,
      "chip": "ym2612"
    },
    {
      "channel": 4,
      "note": 61,
      "start": 26.5015,
      "duration": 0.0162,
      "velocity": 100,
      "chip": "ym2612"
    },
    {
      "channel": 1,
      "note": 90,
      "start": 26.5028,
      "duration": 0.0162,
      "velocity": 87,
      "chip": "ym2612"
    },
    {
      "channel": 0,
      "note": 63,
      "start": 26.5131,
      "duration": 0.0155,
      "velocity": 1,
      "chip": "ym2612"
    },
    {
      "channel": 5,
      "note": 91,
      "start": 26.5143,
      "duration": 0.0155,
      "velocity": 87,
      "chip": "ym2612"
    },
    {
      "channel": 3,
      "note": 71,
      "start": 26.5154,
      "duration": 0.0154,
      "velocity": 96,
      "chip": "ym2612"
    },
    {
      "channel": 2,
      "note": 78,
      "start": 26.5166,
      "duration": 0.0155,
      "velocity": 96,
      "chip": "ym2612"
    },
    {
      "channel": 4,
      "note": 61,
      "start": 26.5177,
      "duration": 0.0155,
      "velocity": 100,
      "chip": "ym2612"
    },
    {
      "channel": 1,
      "note": 90,
      "start": 26.519,
      "duration": 0.0154,
      "velocity": 87,
      "chip": "ym2612"
    },
    {
      "channel": 2,
      "note": 78,
      "start": 26.5321,
      "duration": 0.0156,
      "velocity": 96,
      "chip": "ym2612"
    },
    {
      "channel": 4,
      "note": 61,
      "start": 26.5332,
      "duration": 0.0156,
      "velocity": 100,
      "chip": "ym2612"
    },
    {
      "channel": 1,
      "note": 90,
      "start": 26.5344,
      "duration": 0.0157,
      "velocity": 87,
      "chip": "ym2612"
    },
    {
      "channel": 3,
      "note": 78,
      "start": 26.5466,
      "duration": 0.0162,
      "velocity": 96,
      "chip": "ym2612"
    },
    {
      "channel": 2,
      "note": 78,
      "start": 26.5477,
      "duration": 0.0161,
      "velocity": 96,
      "chip": "ym2612"
    },
    {
      "channel": 4,
      "note": 61,
      "start": 26.5489,
      "duration": 0.0162,
      "velocity": 100,
      "chip": "ym2612"
    },
    {
      "channel": 1,
      "note": 90,
      "start": 26.5501,
      "duration": 0.0161,
      "velocity": 87,
      "chip": "ym2612"
    },
    {
      "channel": 5,
      "note": 90,
      "start": 26.5615,
      "duration": 0.0155,
      "velocity": 87,
      "chip": "ym2612"
    },
    {
      "channel": 3,
      "note": 78,
      "start": 26.5627,
      "duration": 0.0158,
      "velocity": 96,
      "chip": "ym2612"
    },
    {
      "channel": 2,
      "note": 78,
      "start": 26.5639,
      "duration": 0.0159,
      "velocity": 96,
      "chip": "ym2612"
    },
    {
      "channel": 4,
      "note": 61,
      "start": 26.565,
      "duration": 0.0158,
      "velocity": 100,
      "chip": "ym2612"
    },
    {
      "channel": 5,
      "note": 90,
      "start": 26.577,
      "duration": 0.0199,
      "velocity": 87,
      "chip": "ym2612"
    },
    {
      "channel": 3,
      "note": 78,
      "start": 26.5785,
      "duration": 0.0196,
      "velocity": 96,
      "chip": "ym2612"
    },
    {
      "channel": 4,
      "note": 61,
      "start": 26.5809,
      "duration": 0.02,
      "velocity": 100,
      "chip": "ym2612"
    },
    {
      "channel": 0,
      "note": 36,
      "start": 26.5958,
      "duration": 0.0137,
      "velocity": 115,
      "chip": "ym2612"
    },
    {
      "channel": 5,
      "note": 90,
      "start": 26.5969,
      "duration": 0.0143,
      "velocity": 87,
      "chip": "ym2612"
    },
    {
      "channel": 3,
      "note": 78,
      "start": 26.5981,
      "duration": 0.0143,
      "velocity": 96,
      "chip": "ym2612"
    },
    {
      "channel": 4,
      "note": 54,
      "start": 26.6009,
      "duration": 0.0139,
      "velocity": 100,
      "chip": "ym2612"
    },
    {
      "channel": 1,
      "note": 88,
      "start": 26.6024,
      "duration": 0.0137,
      "velocity": 87,
      "chip": "ym2612"
    },
    {
      "channel": 0,
      "note": 36,
      "start": 26.6095,
      "duration": 0.016,
      "velocity": 115,
      "chip": "ym2612"
    },
    {
      "channel": 5,
      "note": 90,
      "start": 26.6112,
      "duration": 0.0155,
      "velocity": 87,
      "chip": "ym2612"
    },
    {
      "channel": 3,
      "note": 78,
      "start": 26.6124,
      "duration": 0.016,
      "velocity": 96,
      "chip": "ym2612"
    },
    {
      "channel": 4,
      "note": 54,
      "start": 26.6148,
      "duration": 0.016,
      "velocity": 100,
      "chip": "ym2612"
    },
    {
      "channel": 1,
      "note": 88,
      "start": 26.6161,
      "duration": 0.0159,
      "velocity": 87,
      "chip": "ym2612"
    },
    {
      "channel": 0,
      "note": 37,
      "start": 26.6255,
      "duration": 0.0161,
      "velocity": 115,
      "chip": "ym2612"
    },
    {
      "channel": 5,
      "note": 90,
      "start": 26.6267,
      "duration": 0.0161,
      "velocity": 87,
      "chip": "ym2612"
    },
    {
      "channel": 3,
      "note": 78,
      "start": 26.6285,
      "duration": 0.016,
      "velocity": 96,
      "chip": "ym2612"
    },
    {
      "channel": 4,
      "note": 54,
      "start": 26.6308,
      "duration": 0.0161,
      "velocity": 100,
      "chip": "ym2612"
    },
    {
      "channel": 1,
      "note": 88,
      "start": 26.632,
      "duration": 0.0161,
      "velocity": 87,
      "chip": "ym2612"
    },
    {
      "channel": 0,
      "note": 37,
      "start": 26.6416,
      "duration": 0.0161,
      "velocity": 115,
      "chip": "ym2612"
    },
    {
      "channel": 5,
      "note": 90,
      "start": 26.6428,
      "duration": 0.0161,
      "velocity": 87,
      "chip": "ym2612"
    },
    {
      "channel": 4,
      "note": 54,
      "start": 26.647,
      "duration": 0.0162,
      "velocity": 100,
      "chip": "ym2612"
    },
    {
      "channel": 1,
      "note": 88,
      "start": 26.6481,
      "duration": 0.0162,
      "velocity": 87,
      "chip": "ym2612"
    },
    {
      "channel": 0,
      "note": 38,
      "start": 26.6577,
      "duration": 0.0161,
      "velocity": 115,
      "chip": "ym2612"
    },
    {
      "channel": 5,
      "note": 90,
      "start": 26.6589,
      "duration": 0.0162,
      "velocity": 87,
      "chip": "ym2612"
    },
    {
      "channel": 4,
      "note": 54,
      "start": 26.6631,
      "duration": 0.0161,
      "velocity": 100,
      "chip": "ym2612"
    },
    {
      "channel": 1,
      "note": 88,
      "start": 26.6643,
      "duration": 0.0161,
      "velocity": 87,
      "chip": "ym2612"
    },
    {
      "channel": 0,
      "note": 38,
      "start": 26.6738,
      "duration": 0.0161,
      "velocity": 115,
      "chip": "ym2612"
    },
    {
      "channel": 5,
      "note": 90,
      "start": 26.6751,
      "duration": 0.016,
      "velocity": 87,
      "chip": "ym2612"
    },
    {
      "channel": 4,
      "note": 54,
      "start": 26.6792,
      "duration": 0.0161,
      "velocity": 100,
      "chip": "ym2612"
    },
    {
      "channel": 0,
      "note": 39,
      "start": 26.6899,
      "duration": 0.018,
      "velocity": 127,
      "chip": "ym2612"
    },
    {
      "channel": 5,
      "note": 90,
      "start": 26.6911,
      "duration": 0.018,
      "velocity": 87,
      "chip": "ym2612"
    },
    {
      "channel": 4,
      "note": 54,
      "start": 26.6953,
      "duration": 0.0183,
      "velocity": 100,
      "chip": "ym2612"
    },
    {
      "channel": 0,
      "note": 84,
      "start": 26.7079,
      "duration": 0.0142,
      "velocity": 127,
      "chip": "ym2612"
    },
    {
      "channel": 5,
      "note": 90,
      "start": 26.7091,
      "duration": 0.0142,
      "velocity": 87,
      "chip": "ym2612"
    },
    {
      "channel": 2,
      "note": 70,
      "start": 26.7124,
      "duration": 0.0134,
      "velocity": 96,
      "chip": "ym2612"
    },
    {
      "channel": 4,
      "note": 54,
      "start": 26.7136,
      "duration": 0.0139,
      "velocity": 100,
      "chip": "ym2612"
    },
    {
      "channel": 1,
      "note": 90,
      "start": 26.7151,
      "duration": 0.0137,
      "velocity": 87,
      "chip": "ym2612"
    },
    {
      "channel": 0,
      "note": 82,
      "start": 26.7222,
      "duration": 0.016,
      "velocity": 127,
      "chip": "ym2612"
    },
    {
      "channel": 5,
      "note": 90,
      "start": 26.7234,
      "duration": 0.0161,
      "velocity": 87,
      "chip": "ym2612"
    },
    {
      "channel": 2,
      "note": 70,
      "start": 26.7258,
      "duration": 0.016,
      "velocity": 96,
      "chip": "ym2612"
    },
    {
      "channel": 4,
      "note": 54,
      "start": 26.7275,
      "duration": 0.0154,
      "velocity": 100,
      "chip": "ym2612"
    },
    {
      "channel": 1,
      "note": 90,
      "start": 26.7288,
      "duration": 0.016,
      "velocity": 87,
      "chip": "ym2612"
    },
    {
      "channel": 0,
      "note": 81,
      "start": 26.7382,
      "duration": 0.0161,
      "velocity": 127,
      "chip": "ym2612"
    },
    {
      "channel": 5,
      "note": 90,
      "start": 26.7395,
      "duration": 0.016,
      "velocity": 87,
      "chip": "ym2612"
    },
    {
      "channel": 2,
      "note": 70,
      "start": 26.7417,
      "duration": 0.0161,
      "velocity": 96,
      "chip": "ym2612"
    },
    {
      "channel": 4,
      "note": 54,
      "start": 26.7429,
      "duration": 0.016,
      "velocity": 100,
      "chip": "ym2612"
    },
    {
      "channel": 1,
      "note": 90,
      "start": 26.7447,
      "duration": 0.0156,
      "velocity": 87,
      "chip": "ym2612"
    },
    {
      "channel": 0,
      "note": 79,
      "start": 26.7543,
      "duration": 0.0161,
      "velocity": 127,
      "chip": "ym2612"
    },
    {
      "channel": 2,
      "note": 70,
      "start": 26.7578,
      "duration": 0.0163,
      "velocity": 96,
      "chip": "ym2612"
    },
    {
      "channel": 4,
      "note": 54,
      "start": 26.759,
      "duration": 0.0163,
      "velocity": 100,
      "chip": "ym2612"
    },
    {
      "channel": 1,
      "note": 90,
      "start": 26.7604,
      "duration": 0.0162,
      "velocity": 87,
      "chip": "ym2612"
    },
    {
      "channel": 0,
      "note": 77,
      "start": 26.7704,
      "duration": 0.0161,
      "velocity": 127,
      "chip": "ym2612"
    },
    {
      "channel": 3,
      "note": 70,
      "start": 26.773,
      "duration": 0.0162,
      "velocity": 96,
      "chip": "ym2612"
    },
    {
      "channel": 2,
      "note": 70,
      "start": 26.7742,
      "duration": 0.0162,
      "velocity": 96,
      "chip": "ym2612"
    },
    {
      "channel": 4,
      "note": 54,
      "start": 26.7753,
      "duration": 0.0162,
      "velocity": 100,
      "chip": "ym2612"
    },
    {
      "channel": 1,
      "note": 90,
      "start": 26.7766,
      "duration": 0.0162,
      "velocity": 87,
      "chip": "ym2612"
    },
    {
      "channel": 0,
      "note": 76,
      "start": 26.7865,
      "duration": 0.0161,
      "velocity": 127,
      "chip": "ym2612"
    },
    {
      "channel": 5,
      "note": 88,
      "start": 26.788,
      "duration": 0.0158,
      "velocity": 87,
      "chip": "ym2612"
    },
    {
      "channel": 3,
      "note": 70,
      "start": 26.7893,
      "duration": 0.0157,
      "velocity": 96,
      "chip": "ym2612"
    },
    {
      "channel": 2,
      "note": 70,
      "start": 26.7904,
      "duration": 0.0158,
      "velocity": 96,
      "chip": "ym2612"
    },
    {
      "channel": 4,
      "note": 54,
      "start": 26.7916,
      "duration": 0.0158,
      "velocity": 100,
      "chip": "ym2612"
    },
    {
      "channel": 1,
      "note": 90,
      "start": 26.7928,
      "duration": 0.0157,
      "velocity": 87,
      "chip": "ym2612"
    },
    {
      "channel": 0,
      "note": 74,
      "start": 26.8026,
      "duration": 0.0179,
      "velocity": 127,
      "chip": "ym2612"
    },
    {
      "channel": 5,
      "note": 88,
      "start": 26.8038,
      "duration": 0.0179,
      "velocity": 87,
      "chip": "ym2612"
    },
    {
      "channel": 3,
      "note": 70,
      "start": 26.805,
      "duration": 0.018,
      "velocity": 96,
      "chip": "ym2612"
    },
    {
      "channel": 4,
      "note": 54,
      "start": 26.8073,
      "duration": 0.0183,
      "velocity": 100,
      "chip": "ym2612"
    },
    {
      "channel": 1,
      "note": 90,
      "start": 26.8085,
      "duration": 0.0187,
      "velocity": 87,
      "chip": "ym2612"
    },
    {
      "channel": 0,
      "note": 78,
      "start": 26.8206,
      "duration": 0.0142,
      "velocity": 127,
      "chip": "ym2612"
    },
    {
      "channel": 5,
      "note": 88,
      "start": 26.8218,
      "duration": 0.0143,
      "velocity": 87,
      "chip": "ym2612"
    },
    {
      "channel": 3,
      "note": 70,
      "start": 26.823,
      "duration": 0.0143,
      "velocity": 96,
      "chip": "ym2612"
    },
    {
      "channel": 4,
      "note": 61,
      "start": 26.8257,
      "duration": 0.014,
      "velocity": 100,
      "chip": "ym2612"
    },
    {
      "channel": 1,
      "note": 90,
      "start": 26.8272,
      "duration": 0.0137,
      "velocity": 87,
      "chip": "ym2612"
    },
    {
      "channel": 0,
      "note": 76,
      "start": 26.8349,
      "duration": 0.016,
      "velocity": 127,
      "chip": "ym2612"
    },
    {
      "channel": 5,
      "note": 88,
      "start": 26.8361,
      "duration": 0.016,
      "velocity": 87,
      "chip": "ym2612"
    },
    {
      "channel": 3,
      "note": 70,
      "start": 26.8372,
      "duration": 0.016,
      "velocity": 96,
      "chip": "ym2612"
    },
    {
      "channel": 4,
      "note": 61,
      "start": 26.8397,
      "duration": 0.016,
      "velocity": 100,
      "chip": "ym2612"
    },
    {
      "channel": 1,
      "note": 90,
      "start": 26.8409,
      "duration": 0.016,
      "velocity": 87,
      "chip": "ym2612"
    },
    {
      "channel": 0,
      "note": 75,
      "start": 26.8509,
      "duration": 0.0161,
      "velocity": 127,
      "chip": "ym2612"
    },
    {
      "channel": 5,
      "note": 88,
      "start": 26.8521,
      "duration": 0.0161,
      "velocity": 87,
      "chip": "ym2612"
    },
    {
      "channel": 3,
      "note": 70,
      "start": 26.8533,
      "duration": 0.0161,
      "velocity": 96,
      "chip": "ym2612"
    },
    {
      "channel": 4,
      "note": 61,
      "start": 26.8557,
      "duration": 0.0161,
      "velocity": 100,
      "chip": "ym2612"
    },
    {
      "channel": 1,
      "note": 90,
      "start": 26.8569,
      "duration": 0.0161,
      "velocity": 87,
      "chip": "ym2612"
    },
    {
      "channel": 0,
      "note": 73,
      "start": 26.867,
      "duration": 0.0161,
      "velocity": 127,
      "chip": "ym2612"
    },
    {
      "channel": 4,
      "note": 61,
      "start": 26.8718,
      "duration": 0.0162,
      "velocity": 100,
      "chip": "ym2612"
    },
    {
      "channel": 1,
      "note": 90,
      "start": 26.873,
      "duration": 0.0162,
      "velocity": 87,
      "chip": "ym2612"
    },
    {
      "channel": 0,
      "note": 71,
      "start": 26.8831,
      "duration": 0.0161,
      "velocity": 127,
      "chip": "ym2612"
    },
    {
      "channel": 4,
      "note": 61,
      "start": 26.8879,
      "duration": 0.0163,
      "velocity": 100,
      "chip": "ym2612"
    },
    {
      "channel": 1,
      "note": 90,
      "start": 26.8892,
      "duration": 0.0163,
      "velocity": 87,
      "chip": "ym2612"
    },
    {
      "channel": 0,
      "note": 70,
      "start": 26.8992,
      "duration": 0.0162,
      "velocity": 127,
      "chip": "ym2612"
    },
    {
      "channel": 5,
      "note": 90,
      "start": 26.9007,
      "duration": 0.0158,
      "velocity": 87,
      "chip": "ym2612"
    },
    {
      "channel": 4,
      "note": 61,
      "start": 26.9043,
      "duration": 0.0158,
      "velocity": 100,
      "chip": "ym2612"
    },
    {
      "channel": 0,
      "note": 68,
      "start": 26.9154,
      "duration": 0.0161,
      "velocity": 127,
      "chip": "ym2612"
    },
    {
      "channel": 5,
      "note": 90,
      "start": 26.9166,
      "duration": 0.016,
      "velocity": 87,
      "chip": "ym2612"
    },
    {
      "channel": 4,
      "note": 61,
      "start": 26.9201,
      "duration": 0.0163,
      "velocity": 100,
      "chip": "ym2612"
    },
    {
      "channel": 0,
      "note": 66,
      "start": 26.9315,
      "duration": 0.0161,
      "velocity": 127,
      "chip": "ym2612"
    },
    {
      "channel": 5,
      "note": 90,
      "start": 26.9326,
      "duration": 0.0161,
      "velocity": 87,
      "chip": "ym2612"
    },
    {
      "channel": 2,
      "note": 73,
      "start": 26.9352,
      "duration": 0.0159,
      "velocity": 96,
      "chip": "ym2612"
    },
    {
      "channel": 4,
      "note": 61,
      "start": 26.9364,
      "duration": 0.0159,
      "velocity": 100,
      "chip": "ym2612"
    },
    {
      "channel": 1,
      "note": 88,
      "start": 26.938,
      "duration": 0.0155,
      "velocity": 87,
      "chip": "ym2612"
    },
    {
      "channel": 0,
      "note": 65,
      "start": 26.9475,
      "duration": 0.0162,
      "velocity": 127,
      "chip": "ym2612"
    },
    {
      "channel": 5,
      "note": 90,
      "start": 26.9487,
      "duration": 0.0161,
      "velocity": 87,
      "chip": "ym2612"
    },
    {
      "channel": 2,
      "note": 73,
      "start": 26.9511,
      "duration": 0.0161,
      "velocity": 96,
      "chip": "ym2612"
    },
    {
      "channel": 4,
      "note": 61,
      "start": 26.9523,
      "duration": 0.0161,
      "velocity": 100,
      "chip": "ym2612"
    },
    {
      "channel": 1,
      "note": 88,
      "start": 26.9535,
      "duration": 0.016,
      "velocity": 87,
      "chip": "ym2612"
    },
    {
      "channel": 0,
      "note": 63,
      "start": 26.9637,
      "duration": 0.0161,
      "velocity": 127,
      "chip": "ym2612"
    },
    {
      "channel": 5,
      "note": 90,
      "start": 26.9648,
      "duration": 0.0161,
      "velocity": 87,
      "chip": "ym2612"
    },
    {
      "channel": 2,
      "note": 73,
      "start": 26.9672,
      "duration": 0.0161,
      "velocity": 96,
      "chip": "ym2612"
    },
    {
      "channel": 4,
      "note": 61,
      "start": 26.9684,
      "duration": 0.016,
      "velocity": 100,
      "chip": "ym2612"
    },
    {
      "channel": 1,
      "note": 88,
      "start": 26.9695,
      "duration": 0.0161,
      "velocity": 87,
      "chip": "ym2612"
    },
    {
      "channel": 0,
      "note": 61,
      "start": 26.9798,
      "duration": 0.0164,
      "velocity": 127,
      "chip": "ym2612"
    },
    {
      "channel": 5,
      "note": 90,
      "start": 26.9809,
      "duration": 0.0165,
      "velocity": 87,
      "chip": "ym2612"
    },
    {
      "channel": 2,
      "note": 73,
      "start": 26.9833,
      "duration": 0.0167,
      "velocity": 96,
      "chip": "ym2612"
    },
    {
      "channel": 4,
      "note": 61,
      "start": 26.9844,
      "duration": 0.0167,
      "velocity": 100,
      "chip": "ym2612"
    },
    {
      "channel": 1,
      "note": 88,
      "start": 26.9856,
      "duration": 0.0167,
      "velocity": 87,
      "chip": "ym2612"
    },
    {
      "channel": 0,
      "note": 60,
      "start": 26.9962,
      "duration": 0.0163,
      "velocity": 127,
      "chip": "ym2612"
    },
    {
      "channel": 5,
      "note": 90,
      "start": 26.9974,
      "duration": 0.0163,
      "velocity": 87,
      "chip": "ym2612"
    },
    {
      "channel": 3,
      "note": 73,
      "start": 26.9989,
      "duration": 0.0162,
      "velocity": 96,
      "chip": "ym2612"
    },
    {
      "channel": 2,
      "note": 73,
      "start": 27.0,
      "duration": 0.0161,
      "velocity": 96,
      "chip": "ym2612"
    },
    {
      "channel": 4,
      "note": 61,
      "start": 27.0012,
      "duration": 0.0162,
      "velocity": 100,
      "chip": "ym2612"
    },
    {
      "channel": 1,
      "note": 88,
      "start": 27.0023,
      "duration": 0.0161,
      "velocity": 87,
      "chip": "ym2612"
    },
    {
      "channel": 0,
      "note": 58,
      "start": 27.0125,
      "duration": 0.0161,
      "velocity": 127,
      "chip": "ym2612"
    },
    {
      "channel": 5,
      "note": 90,
      "start": 27.0138,
      "duration": 0.0161,
      "velocity": 87,
      "chip": "ym2612"
    },
    {
      "channel": 3,
      "note": 73,
      "start": 27.015,
      "duration": 0.016,
      "velocity": 96,
      "chip": "ym2612"
    },
    {
      "channel": 2,
      "note": 73,
      "start": 27.0162,
      "duration": 0.016,
      "velocity": 96,
      "chip": "ym2612"
    },
    {
      "channel": 4,
      "note": 61,
      "start": 27.0173,
      "duration": 0.016,
      "velocity": 100,
      "chip": "ym2612"
    },
    {
      "channel": 1,
      "note": 88,
      "start": 27.0185,
      "duration": 0.016,
      "velocity": 87,
      "chip": "ym2612"
    },
    {
      "channel": 0,
      "note": 56,
      "start": 27.0286,
      "duration": 0.0179,
      "velocity": 115,
      "chip": "ym2612"
    },
    {
      "channel": 5,
      "note": 90,
      "start": 27.0298,
      "duration": 0.018,
      "velocity": 87,
      "chip": "ym2612"
    },
    {
      "channel": 3,
      "note": 73,
      "start": 27.031,
      "duration": 0.0179,
      "velocity": 96,
      "chip": "ym2612"
    },
    {
      "channel": 4,
      "note": 61,
      "start": 27.0334,
      "duration": 0.0186,
      "velocity": 100,
      "chip": "ym2612"
    },
    {
      "channel": 1,
      "note": 88,
      "start": 27.0345,
      "duration": 0.0186,
      "velocity": 87,
      "chip": "ym2612"
    },
    {
      "channel": 0,
      "note": 36,
      "start": 27.0466,
      "duration": 0.0139,
      "velocity": 115,
      "chip": "ym2612"
    },
    {
      "channel": 5,
      "note": 90,
      "start": 27.0478,
      "duration": 0.0144,
      "velocity": 87,
      "chip": "ym2612"
    },
    {
      "channel": 3,
      "note": 73,
      "start": 27.0489,
      "duration": 0.0144,
      "velocity": 96,
      "chip": "ym2612"
    },
    {
      "channel": 2,
      "note": 78,
      "start": 27.0505,
      "duration": 0.0141,
      "velocity": 96,
      "chip": "ym2612"
    },
    {
      "channel": 4,
      "note": 59,
      "start": 27.0519,
      "duration": 0.0138,
      "velocity": 100,
      "chip": "ym2612"
    },
    {
      "channel": 1,
      "note": 88,
      "start": 27.0531,
      "duration": 0.0138,
      "velocity": 87,
      "chip": "ym2612"
    },
    {
      "channel": 0,
      "note": 36,
      "start": 27.0605,
      "duration": 0.0158,
      "velocity": 115,
      "chip": "ym2612"
    },
    {
      "channel": 5,
      "note": 90,
      "start": 27.0622,
      "duration": 0.0159,
      "velocity": 87,
      "chip": "ym2612"
    },
    {
      "channel": 3,
      "note": 73,
      "start": 27.0633,
      "duration": 0.016,
      "velocity": 96,
      "chip": "ym2612"
    },
    {
      "channel": 2,
      "note": 78,
      "start": 27.0645,
      "duration": 0.016,
      "velocity": 96,
      "chip": "ym2612"
    },
    {
      "channel": 4,
      "note": 59,
      "start": 27.0657,
      "duration": 0.0159,
      "velocity": 100,
      "chip": "ym2612"
    },
    {
      "channel": 1,
      "note": 88,
      "start": 27.0669,
      "duration": 0.0158,
      "velocity": 87,
      "chip": "ym2612"
    },
    {
      "channel": 0,
      "note": 37,
      "start": 27.0763,
      "duration": 0.0161,
      "velocity": 115,
      "chip": "ym2612"
    },
    {
      "channel": 5,
      "note": 90,
      "start": 27.0781,
      "duration": 0.0158,
      "velocity": 87,
      "chip": "ym2612"
    },
    {
      "channel": 3,
      "note": 73,
      "start": 27.0793,
      "duration": 0.016,
      "velocity": 96,
      "chip": "ym2612"
    },
    {
      "channel": 2,
      "note": 78,
      "start": 27.0805,
      "duration": 0.0161,
      "velocity": 96,
      "chip": "ym2612"
    },
    {
      "channel": 4,
      "note": 59,
      "start": 27.0816,
      "duration": 0.0161,
      "velocity": 100,
      "chip": "ym2612"
    },
    {
      "channel": 1,
      "note": 88,
      "start": 27.0828,
      "duration": 0.0161,
      "velocity": 87,
      "chip": "ym2612"
    },
    {
      "channel": 0,
      "note": 37,
      "start": 27.0924,
      "duration": 0.0161,
      "velocity": 115,
      "chip": "ym2612"
    },
    {
      "channel": 2,
      "note": 78,
      "start": 27.0966,
      "duration": 0.0164,
      "velocity": 96,
      "chip": "ym2612"
    },
    {
      "channel": 4,
      "note": 59,
      "start": 27.0977,
      "duration": 0.0164,
      "velocity": 100,
      "chip": "ym2612"
    },
    {
      "channel": 1,
      "note": 88,
      "start": 27.0989,
      "duration": 0.0165,
      "velocity": 87,
      "chip": "ym2612"
    },
    {
      "channel": 0,
      "note": 38,
      "start": 27.1085,
      "duration": 0.0161,
      "velocity": 115,
      "chip": "ym2612"
    },
    {
      "channel": 3,
      "note": 78,
      "start": 27.1119,
      "duration": 0.0161,
      "velocity": 96,
      "chip": "ym2612"
    },
    {
      "channel": 2,
      "note": 78,
      "start": 27.113,
      "duration": 0.0162,
      "velocity": 96,
      "chip": "ym2612"
    },
    {
      "channel": 4,
      "note": 59,
      "start": 27.1141,
      "duration": 0.0162,
      "velocity": 100,
      "chip": "ym2612"
    },
    {
      "channel": 1,
      "note": 88,
      "start": 27.1154,
      "duration": 0.0161,
      "velocity": 87,
      "chip": "ym2612"
    },
    {
      "channel": 0,
      "note": 38,
      "start": 27.1246,
      "duration": 0.0161,
      "velocity": 115,
      "chip": "ym2612"
    },
    {
      "channel": 5,
      "note": 88,
      "start": 27.1262,
      "duration": 0.0158,
      "velocity": 87,
      "chip": "ym2612"
    },
    {
      "channel": 3,
      "note": 78,
      "start": 27.128,
      "duration": 0.0151,
      "velocity": 96,
      "chip": "ym2612"
    },
    {
      "channel": 2,
      "note": 78,
      "start": 27.1292,
      "duration": 0.0156,
      "velocity": 96,
      "chip": "ym2612"
    },
    {
      "channel": 4,
      "note": 59,
      "start": 27.1304,
      "duration": 0.0157,
      "velocity": 100,
      "chip": "ym2612"
    },
    {
      "channel": 1,
      "note": 88,
      "start": 27.1315,
      "duration": 0.0157,
      "velocity": 87,
      "chip": "ym2612"
    },
    {
      "channel": 0,
      "note": 39,
      "start": 27.1407,
      "duration": 0.0161,
      "velocity": 115,
      "chip": "ym2612"
    },
    {
      "channel": 5,
      "note": 88,
      "start": 27.142,
      "duration": 0.016,
      "velocity": 87,
      "chip": "ym2612"
    },
    {
      "channel": 3,
      "note": 78,
      "start": 27.1432,
      "duration": 0.016,
      "velocity": 96,
      "chip": "ym2612"
    },
    {
      "channel": 4,
      "note": 59,
      "start": 27.1461,
      "duration": 0.0163,
      "velocity": 100,
      "chip": "ym2612"
    },
    {
      "channel": 1,
      "note": 88,
      "start": 27.1472,
      "duration": 0.0163,
      "velocity": 87,
      "chip": "ym2612"
    },
    {
      "channel": 0,
      "note": 39,
      "start": 27.1568,
      "duration": 0.0161,
      "velocity": 115,
      "chip": "ym2612"
    },
    {
      "channel": 5,
      "note": 88,
      "start": 27.158,
      "duration": 0.0161,
      "velocity": 87,
      "chip": "ym2612"
    },
    {
      "channel": 3,
      "note": 78,
      "start": 27.1592,
      "duration": 0.0161,
      "velocity": 96,
      "chip": "ym2612"
    },
    {
      "channel": 2,
      "note": 71,
      "start": 27.1612,
      "duration": 0.0153,
      "velocity": 96,
      "chip": "ym2612"
    },
    {
      "channel": 4,
      "note": 59,
      "start": 27.1624,
      "duration": 0.0158,
      "velocity": 100,
      "chip": "ym2612"
    },
    {
      "channel": 1,
      "note": 88,
      "start": 27.1636,
      "duration": 0.0159,
      "velocity": 87,
      "chip": "ym2612"
    },
    {
      "channel": 0,
      "note": 40,
      "start": 27.1729,
      "duration": 0.0161,
      "velocity": 115,
      "chip": "ym2612"
    },
    {
      "channel": 5,
      "note": 88,
      "start": 27.1741,
      "duration": 0.0161,
      "velocity": 87,
      "chip": "ym2612"
    },
    {
      "channel": 3,
      "note": 78,
      "start": 27.1753,
      "duration": 0.0161,
      "velocity": 96,
      "chip": "ym2612"
    },
    {
      "channel": 2,
      "note": 71,
      "start": 27.1765,
      "duration": 0.016,
      "velocity": 96,
      "chip": "ym2612"
    },
    {
      "channel": 4,
      "note": 59,
      "start": 27.1782,
      "duration": 0.0157,
      "velocity": 100,
      "chip": "ym2612"
    },
    {
      "channel": 1,
      "note": 88,
      "start": 27.1794,
      "duration": 0.016,
      "velocity": 87,
      "chip": "ym2612"
    },
    {
      "channel": 0,
      "note": 40,
      "start": 27.1891,
      "duration": 0.0161,
      "velocity": 115,
      "chip": "ym2612"
    },
    {
      "channel": 5,
      "note": 88,
      "start": 27.1902,
      "duration": 0.0161,
      "velocity": 87,
      "chip": "ym2612"
    },
    {
      "channel": 3,
      "note": 78,
      "start": 27.1914,
      "duration": 0.0161,
      "velocity": 96,
      "chip": "ym2612"
    },
    {
      "channel": 2,
      "note": 71,
      "start": 27.1925,
      "duration": 0.0161,
      "velocity": 96,
      "chip": "ym2612"
    },
    {
      "channel": 4,
      "note": 59,
      "start": 27.1939,
      "duration": 0.0159,
      "velocity": 100,
      "chip": "ym2612"
    },
    {
      "channel": 1,
      "note": 88,
      "start": 27.1954,
      "duration": 0.016,
      "velocity": 87,
      "chip": "ym2612"
    },
    {
      "channel": 0,
      "note": 40,
      "start": 27.2052,
      "duration": 0.0161,
      "velocity": 115,
      "chip": "ym2612"
    },
    {
      "channel": 5,
      "note": 88,
      "start": 27.2063,
      "duration": 0.0161,
      "velocity": 87,
      "chip": "ym2612"
    },
    {
      "channel": 2,
      "note": 71,
      "start": 27.2087,
      "duration": 0.0163,
      "velocity": 96,
      "chip": "ym2612"
    },
    {
      "channel": 4,
      "note": 59,
      "start": 27.2098,
      "duration": 0.0163,
      "velocity": 100,
      "chip": "ym2612"
    },
    {
      "channel": 1,
      "note": 88,
      "start": 27.2115,
      "duration": 0.0164,
      "velocity": 87,
      "chip": "ym2612"
    },
    {
      "channel": 0,
      "note": 41,
      "start": 27.2213,
      "duration": 0.0161,
      "velocity": 115,
      "chip": "ym2612"
    },
    {
      "channel": 5,
      "note": 88,
      "start": 27.2224,
      "duration": 0.0161,
      "velocity": 87,
      "chip": "ym2612"
    },
    {
      "channel": 3,
      "note": 71,
      "start": 27.2239,
      "duration": 0.0159,
      "velocity": 96,
      "chip": "ym2612"
    },
    {
      "channel": 2,
      "note": 71,
      "start": 27.225,
      "duration": 0.0159,
      "velocity": 96,
      "chip": "ym2612"
    },
    {
      "channel": 4,
      "note": 59,
      "start": 27.2262,
      "duration": 0.0159,
      "velocity": 100,
      "chip": "ym2612"
    },
    {
      "channel": 1,
      "note": 88,
      "start": 27.2279,
      "duration": 0.0154,
      "velocity": 87,
      "chip": "ym2612"
    },
    {
      "channel": 0,
      "note": 41,
      "start": 27.2373,
      "duration": 0.0161,
      "velocity": 115,
      "chip": "ym2612"
    },
    {
      "channel": 5,
      "note": 88,
      "start": 27.2385,
      "duration": 0.0162,
      "velocity": 87,
      "chip": "ym2612"
    },
    {
      "channel": 3,
      "note": 71,
      "start": 27.2398,
      "duration": 0.016,
      "velocity": 96,
      "chip": "ym2612"
    },
    {
      "channel": 2,
      "note": 71,
      "start": 27.2409,
      "duration": 0.016,
      "velocity": 96,
      "chip": "ym2612"
    },
    {
      "channel": 4,
      "note": 59,
      "start": 27.2421,
      "duration": 0.0161,
      "velocity": 100,
      "chip": "ym2612"
    },
    {
      "channel": 1,
      "note": 88,
      "start": 27.2432,
      "duration": 0.0161,
      "velocity": 87,
      "chip": "ym2612"
    },
    {
      "channel": 0,
      "note": 42,
      "start": 27.2534,
      "duration": 0.0161,
      "velocity": 115,
      "chip": "ym2612"
    },
    {
      "channel": 5,
      "note": 88,
      "start": 27.2547,
      "duration": 0.0161,
      "velocity": 87,
      "chip": "ym2612"
    },
    {
      "channel": 3,
      "note": 71,
      "start": 27.2558,
      "duration": 0.0161,
      "velocity": 96,
      "chip": "ym2612"
    },
    {
      "channel": 4,
      "note": 59,
      "start": 27.2582,
      "duration": 0.0163,
      "velocity": 100,
      "chip": "ym2612"
    },
    {
      "channel": 1,
      "note": 88,
      "start": 27.2593,
      "duration": 0.0163,
      "velocity": 87,
      "chip": "ym2612"
    },
    {
      "channel": 0,
      "note": 42,
      "start": 27.2695,
      "duration": 0.0161,
      "velocity": 115,
      "chip": "ym2612"
    },
    {
      "channel": 5,
      "note": 88,
      "start": 27.2707,
      "duration": 0.0161,
      "velocity": 87,
      "chip": "ym2612"
    },
    {
      "channel": 3,
      "note": 71,
      "start": 27.2719,
      "duration": 0.0161,
      "velocity": 96,
      "chip": "ym2612"
    },
    {
      "channel": 2,
      "note": 74,
      "start": 27.2734,
      "duration": 0.0159,
      "velocity": 96,
      "chip": "ym2612"
    },
    {
      "channel": 4,
      "note": 59,
      "start": 27.2745,
      "duration": 0.0158,
      "velocity": 100,
      "chip": "ym2612"
    },
    {
      "channel": 1,
      "note": 88,
      "start": 27.2756,
      "duration": 0.0159,
      "velocity": 87,
      "chip": "ym2612"
    },
    {
      "channel": 0,
      "note": 43,
      "start": 27.2856,
      "duration": 0.0161,
      "velocity": 115,
      "chip": "ym2612"
    },
    {
      "channel": 5,
      "note": 88,
      "start": 27.2868,
      "duration": 0.0161,
      "velocity": 87,
      "chip": "ym2612"
    },
    {
      "channel": 3,
      "note": 71,
      "start": 27.288,
      "duration": 0.0161,
      "velocity": 96,
      "chip": "ym2612"
    },
    {
      "channel": 2,
      "note": 74,
      "start": 27.2892,
      "duration": 0.016,
      "velocity": 96,
      "chip": "ym2612"
    },
    {
      "channel": 4,
      "note": 59,
      "start": 27.2903,
      "duration": 0.016,
      "velocity": 100,
      "chip": "ym2612"
    },
    {
      "channel": 1,
      "note": 88,
      "start": 27.2916,
      "duration": 0.016,
      "velocity": 87,
      "chip": "ym2612"
    },
    {
      "channel": 0,
      "note": 43,
      "start": 27.3017,
      "duration": 0.0162,
      "velocity": 115,
      "chip": "ym2612"
    },
    {
      "channel": 5,
      "note": 88,
      "start": 27.3029,
      "duration": 0.0161,
      "velocity": 87,
      "chip": "ym2612"
    },
    {
      "channel": 3,
      "note": 71,
      "start": 27.3041,
      "duration": 0.0161,
      "velocity": 96,
      "chip": "ym2612"
    },
    {
      "channel": 2,
      "note": 74,
      "start": 27.3052,
      "duration": 0.0161,
      "velocity": 96,
      "chip": "ym2612"
    },
    {
      "channel": 4,
      "note": 59,
      "start": 27.3064,
      "duration": 0.0162,
      "velocity": 100,
      "chip": "ym2612"
    },
    {
      "channel": 1,
      "note": 88,
      "start": 27.3076,
      "duration": 0.0161,
      "velocity": 87,
      "chip": "ym2612"
    },
    {
      "channel": 0,
      "note": 44,
      "start": 27.3179,
      "duration": 0.0161,
      "velocity": 115,
      "chip": "ym2612"
    },
    {
      "channel": 5,
      "note": 88,
      "start": 27.319,
      "duration": 0.0161,
      "velocity": 87,
      "chip": "ym2612"
    },
    {
      "channel": 2,
      "note": 74,
      "start": 27.3214,
      "duration": 0.0163,
      "velocity": 96,
      "chip": "ym2612"
    },
    {
      "channel": 4,
      "note": 59,
      "start": 27.3225,
      "duration": 0.0163,
      "velocity": 100,
      "chip": "ym2612"
    },
    {
      "channel": 1,
      "note": 88,
      "start": 27.3237,
      "duration": 0.0164,
      "velocity": 87,
      "chip": "ym2612"
    },
    {
      "channel": 0,
      "note": 44,
      "start": 27.334,
      "duration": 0.0161,
      "velocity": 115,
      "chip": "ym2612"
    },
    {
      "channel": 5,
      "note": 88,
      "start": 27.3351,
      "duration": 0.0161,
      "velocity": 87,
      "chip": "ym2612"
    },
    {
      "channel": 3,
      "note": 74,
      "start": 27.3366,
      "duration": 0.0158,
      "velocity": 96,
      "chip": "ym2612"
    },
    {
      "channel": 2,
      "note": 74,
      "start": 27.3377,
      "duration": 0.0159,
      "velocity": 96,
      "chip": "ym2612"
    },
    {
      "channel": 4,
      "note": 59,
      "start": 27.3389,
      "duration": 0.0159,
      "velocity": 100,
      "chip": "ym2612"
    },
    {
      "channel": 1,
      "note": 88,
      "start": 27.3401,
      "duration": 0.0159,
      "velocity": 87,
      "chip": "ym2612"
    },
    {
      "channel": 0,
      "note": 44,
      "start": 27.3501,
      "duration": 0.0161,
      "velocity": 115,
      "chip": "ym2612"
    },
    {
      "channel": 5,
      "note": 88,
      "start": 27.3512,
      "duration": 0.0161,
      "velocity": 87,
      "chip": "ym2612"
    },
    {
      "channel": 3,
      "note": 74,
      "start": 27.3524,
      "duration": 0.0161,
      "velocity": 96,
      "chip": "ym2612"
    },
    {
      "channel": 2,
      "note": 74,
      "start": 27.3537,
      "duration": 0.016,
      "velocity": 96,
      "chip": "ym2612"
    },
    {
      "channel": 4,
      "note": 59,
      "start": 27.3548,
      "duration": 0.016,
      "velocity": 100,
      "chip": "ym2612"
    },
    {
      "channel": 1,
      "note": 88,
      "start": 27.3559,
      "duration": 0.0161,
      "velocity": 87,
      "chip": "ym2612"
    },
    {
      "channel": 0,
      "note": 45,
      "start": 27.3662,
      "duration": 0.0179,
      "velocity": 115,
      "chip": "ym2612"
    },
    {
      "channel": 5,
      "note": 88,
      "start": 27.3673,
      "duration": 0.018,
      "velocity": 87,
      "chip": "ym2612"
    },
    {
      "channel": 3,
      "note": 74,
      "start": 27.3685,
      "duration": 0.0179,
      "velocity": 96,
      "chip": "ym2612"
    },
    {
      "channel": 4,
      "note": 59,
      "start": 27.3708,
      "duration": 0.0185,
      "velocity": 100,
      "chip": "ym2612"
    },
    {
      "channel": 1,
      "note": 88,
      "start": 27.372,
      "duration": 0.0185,
      "velocity": 87,
      "chip": "ym2612"
    },
    {
      "channel": 0,
      "note": 36,
      "start": 27.3841,
      "duration": 0.0143,
      "velocity": 115,
      "chip": "ym2612"
    },
    {
      "channel": 5,
      "note": 88,
      "start": 27.3853,
      "duration": 0.0142,
      "velocity": 87,
      "chip": "ym2612"
    },
    {
      "channel": 3,
      "note": 74,
      "start": 27.3865,
      "duration": 0.0143,
      "velocity": 96,
      "chip": "ym2612"
    },
    {
      "channel": 2,
      "note": 78,
      "start": 27.3879,
      "duration": 0.0141,
      "velocity": 96,
      "chip": "ym2612"
    },
    {
      "channel": 4,
      "note": 54,
      "start": 27.3894,
      "duration": 0.0138,
      "velocity": 100,
      "chip": "ym2612"
    },
    {
      "channel": 1,
      "note": 88,
      "start": 27.3905,
      "duration": 0.0139,
      "velocity": 87,
      "chip": "ym2612"
    },
    {
      "channel": 0,
      "note": 36,
      "start": 27.3984,
      "duration": 0.016,
      "velocity": 115,
      "chip": "ym2612"
    },
    {
      "channel": 5,
      "note": 88,
      "start": 27.3996,
      "duration": 0.0161,
      "velocity": 87,
      "chip": "ym2612"
    },
    {
      "channel": 3,
      "note": 74,
      "start": 27.4008,
      "duration": 0.016,
      "velocity": 96,
      "chip": "ym2612"
    },
    {
      "channel": 2,
      "note": 78,
      "start": 27.402,
      "duration": 0.016,
      "velocity": 96,
      "chip": "ym2612"
    },
    {
      "channel": 4,
      "note": 54,
      "start": 27.4032,
      "duration": 0.0159,
      "velocity": 100,
      "chip": "ym2612"
    },
    {
      "channel": 1,
      "note": 88,
      "start": 27.4044,
      "duration": 0.0159,
      "velocity": 87,
      "chip": "ym2612"
    },
    {
      "channel": 0,
      "note": 37,
      "start": 27.4145,
      "duration": 0.0161,
      "velocity": 115,
      "chip": "ym2612"
    },
    {
      "channel": 5,
      "note": 88,
      "start": 27.4157,
      "duration": 0.0161,
      "velocity": 87,
      "chip": "ym2612"
    },
    {
      "channel": 3,
      "note": 74,
      "start": 27.4168,
      "duration": 0.0161,
      "velocity": 96,
      "chip": "ym2612"
    },
    {
      "channel": 2,
      "note": 78,
      "start": 27.418,
      "duration": 0.0161,
      "velocity": 96,
      "chip": "ym2612"
    },
    {
      "channel": 4,
      "note": 54,
      "start": 27.4191,
      "duration": 0.0162,
      "velocity": 100,
      "chip": "ym2612"
    },
    {
      "channel": 1,
      "note": 88,
      "start": 27.4203,
      "duration": 0.0161,
      "velocity": 87,
      "chip": "ym2612"
    },
    {
      "channel": 0,
      "note": 37,
      "start": 27.4305,
      "duration": 0.0162,
      "velocity": 115,
      "chip": "ym2612"
    },
    {
      "channel": 5,
      "note": 88,
      "start": 27.4318,
      "duration": 0.0161,
      "velocity": 87,
      "chip": "ym2612"
    },
    {
      "channel": 2,
      "note": 78,
      "start": 27.4341,
      "duration": 0.0165,
      "velocity": 96,
      "chip": "ym2612"
    },
    {
      "channel": 4,
      "note": 54,
      "start": 27.4353,
      "duration": 0.0164,
      "velocity": 100,
      "chip": "ym2612"
    },
    {
      "channel": 1,
      "note": 88,
      "start": 27.4365,
      "duration": 0.0164,
      "velocity": 87,
      "chip": "ym2612"
    },
    {
      "channel": 0,
      "note": 38,
      "start": 27.4467,
      "duration": 0.0163,
      "velocity": 115,
      "chip": "ym2612"
    },
    {
      "channel": 5,
      "note": 88,
      "start": 27.4479,
      "duration": 0.0163,
      "velocity": 87,
      "chip": "ym2612"
    },
    {
      "channel": 3,
      "note": 78,
      "start": 27.4494,
      "duration": 0.0161,
      "velocity": 96,
      "chip": "ym2612"
    },
    {
      "channel": 2,
      "note": 78,
      "start": 27.4505,
      "duration": 0.0161,
      "velocity": 96,
      "chip": "ym2612"
    },
    {
      "channel": 4,
      "note": 54,
      "start": 27.4517,
      "duration": 0.0161,
      "velocity": 100,
      "chip": "ym2612"
    },
    {
      "channel": 1,
      "note": 88,
      "start": 27.4529,
      "duration": 0.0161,
      "velocity": 87,
      "chip": "ym2612"
    },
    {
      "channel": 0,
      "note": 38,
      "start": 27.463,
      "duration": 0.0163,
      "velocity": 115,
      "chip": "ym2612"
    },
    {
      "channel": 5,
      "note": 88,
      "start": 27.4642,
      "duration": 0.0163,
      "velocity": 87,
      "chip": "ym2612"
    },
    {
      "channel": 3,
      "note": 78,
      "start": 27.4655,
      "duration": 0.0162,
      "velocity": 96,
      "chip": "ym2612"
    },
    {
      "channel": 2,
      "note": 78,
      "start": 27.4666,
      "duration": 0.0163,
      "velocity": 96,
      "chip": "ym2612"
    },
    {
      "channel": 4,
      "note": 54,
      "start": 27.4678,
      "duration": 0.0163,
      "velocity": 100,
      "chip": "ym2612"
    },
    {
      "channel": 1,
      "note": 88,
      "start": 27.469,
      "duration": 0.0163,
      "velocity": 87,
      "chip": "ym2612"
    },
    {
      "channel": 0,
      "note": 39,
      "start": 27.4793,
      "duration": 0.0181,
      "velocity": 115,
      "chip": "ym2612"
    },
    {
      "channel": 5,
      "note": 88,
      "start": 27.4805,
      "duration": 0.0181,
      "velocity": 87,
      "chip": "ym2612"
    },
    {
      "channel": 3,
      "note": 78,
      "start": 27.4817,
      "duration": 0.0181,
      "velocity": 96,
      "chip": "ym2612"
    },
    {
      "channel": 4,
      "note": 54,
      "start": 27.4841,
      "duration": 0.0184,
      "velocity": 100,
      "chip": "ym2612"
    },
    {
      "channel": 1,
      "note": 88,
      "start": 27.4853,
      "duration": 0.0185,
      "velocity": 87,
      "chip": "ym2612"
    },
    {
      "channel": 0,
      "note": 36,
      "start": 27.4974,
      "duration": 0.0143,
      "velocity": 115,
      "chip": "ym2612"
    },
    {
      "channel": 5,
      "note": 88,
      "start": 27.4986,
      "duration": 0.0143,
      "velocity": 87,
      "chip": "ym2612"
    },
    {
      "channel": 3,
      "note": 78,
      "start": 27.4998,
      "duration": 0.0143,
      "velocity": 96,
      "chip": "ym2612"
    },
    {
      "channel": 4,
      "note": 54,
      "start": 27.5026,
      "duration": 0.014,
      "velocity": 100,
      "chip": "ym2612"
    },
    {
      "channel": 1,
      "note": 88,
      "start": 27.5038,
      "duration": 0.014,
      "velocity": 87,
      "chip": "ym2612"
    },
    {
      "channel": 0,
      "note": 36,
      "start": 27.5117,
      "duration": 0.016,
      "velocity": 115,
      "chip": "ym2612"
    },
    {
      "channel": 5,
      "note": 88,
      "start": 27.5129,
      "duration": 0.016,
      "velocity": 87,
      "chip": "ym2612"
    },
    {
      "channel": 3,
      "note": 78,
      "start": 27.5141,
      "duration": 0.016,
      "velocity": 96,
      "chip": "ym2612"
    },
    {
      "channel": 4,
      "note": 54,
      "start": 27.5166,
      "duration": 0.016,
      "velocity": 100,
      "chip": "ym2612"
    },
    {
      "channel": 1,
      "note": 88,
      "start": 27.5178,
      "duration": 0.016,
      "velocity": 87,
      "chip": "ym2612"
    },
    {
      "channel": 0,
      "note": 37,
      "start": 27.5277,
      "duration": 0.0156,
      "velocity": 115,
      "chip": "ym2612"
    },
    {
      "channel": 5,
      "note": 88,
      "start": 27.529,
      "duration": 0.0161,
      "velocity": 87,
      "chip": "ym2612"
    },
    {
      "channel": 3,
      "note": 78,
      "start": 27.5301,
      "duration": 0.0161,
      "velocity": 96,
      "chip": "ym2612"
    },
    {
      "channel": 4,
      "note": 54,
      "start": 27.5325,
      "duration": 0.0161,
      "velocity": 100,
      "chip": "ym2612"
    },
    {
      "channel": 1,
      "note": 88,
      "start": 27.5337,
      "duration": 0.0161,
      "velocity": 87,
      "chip": "ym2612"
    },
    {
      "channel": 0,
      "note": 37,
      "start": 27.5433,
      "duration": 0.0161,
      "velocity": 115,
      "chip": "ym2612"
    },
    {
      "channel": 5,
      "note": 88,
      "start": 27.5451,
      "duration": 0.0161,
      "velocity": 87,
      "chip": "ym2612"
    },
    {
      "channel": 4,
      "note": 54,
      "start": 27.5486,
      "duration": 0.0162,
      "velocity": 100,
      "chip": "ym2612"
    },
    {
      "channel": 1,
      "note": 88,
      "start": 27.5498,
      "duration": 0.0162,
      "velocity": 87,
      "chip": "ym2612"
    },
    {
      "channel": 0,
      "note": 38,
      "start": 27.5594,
      "duration": 0.0161,
      "velocity": 115,
      "chip": "ym2612"
    },
    {
      "channel": 5,
      "note": 88,
      "start": 27.5612,
      "duration": 0.0155,
      "velocity": 87,
      "chip": "ym2612"
    },
    {
      "channel": 4,
      "note": 54,
      "start": 27.5648,
      "duration": 0.016,
      "velocity": 100,
      "chip": "ym2612"
    },
    {
      "channel": 1,
      "note": 88,
      "start": 27.5661,
      "duration": 0.016,
      "velocity": 87,
      "chip": "ym2612"
    },
    {
      "channel": 0,
      "note": 38,
      "start": 27.5755,
      "duration": 0.0161,
      "velocity": 115,
      "chip": "ym2612"
    },
    {
      "channel": 5,
      "note": 88,
      "start": 27.5767,
      "duration": 0.0161,
      "velocity": 87,
      "chip": "ym2612"
    },
    {
      "channel": 4,
      "note": 54,
      "start": 27.5809,
      "duration": 0.0161,
      "velocity": 100,
      "chip": "ym2612"
    },
    {
      "channel": 1,
      "note": 88,
      "start": 27.582,
      "duration": 0.0161,
      "velocity": 87,
      "chip": "ym2612"
    },
    {
      "channel": 0,
      "note": 39,
      "start": 27.5916,
      "duration": 0.0161,
      "velocity": 115,
      "chip": "ym2612"
    },
    {
      "channel": 5,
      "note": 88,
      "start": 27.5928,
      "duration": 0.0161,
      "velocity": 87,
      "chip": "ym2612"
    },
    {
      "channel": 4,
      "note": 54,
      "start": 27.597,
      "duration": 0.0163,
      "velocity": 100,
      "chip": "ym2612"
    },
    {
      "channel": 1,
      "note": 88,
      "start": 27.5982,
      "duration": 0.0163,
      "velocity": 87,
      "chip": "ym2612"
    },
    {
      "channel": 0,
      "note": 39,
      "start": 27.6076,
      "duration": 0.0162,
      "velocity": 115,
      "chip": "ym2612"
    },
    {
      "channel": 5,
      "note": 88,
      "start": 27.6089,
      "duration": 0.0161,
      "velocity": 87,
      "chip": "ym2612"
    },
    {
      "channel": 2,
      "note": 71,
      "start": 27.6121,
      "duration": 0.0158,
      "velocity": 96,
      "chip": "ym2612"
    },
    {
      "channel": 4,
      "note": 54,
      "start": 27.6132,
      "duration": 0.0159,
      "velocity": 100,
      "chip": "ym2612"
    },
    {
      "channel": 1,
      "note": 88,
      "start": 27.6145,
      "duration": 0.0159,
      "velocity": 87,
      "chip": "ym2612"
    },
    {
      "channel": 0,
      "note": 40,
      "start": 27.6238,
      "duration": 0.0161,
      "velocity": 115,
      "chip": "ym2612"
    },
    {
      "channel": 5,
      "note": 88,
      "start": 27.625,
      "duration": 0.016,
      "velocity": 87,
      "chip": "ym2612"
    },
    {
      "channel": 2,
      "note": 71,
      "start": 27.6279,
      "duration": 0.0155,
      "velocity": 96,
      "chip": "ym2612"
    },
    {
      "channel": 4,
      "note": 54,
      "start": 27.6292,
      "duration": 0.016,
      "velocity": 100,
      "chip": "ym2612"
    },
    {
      "channel": 1,
      "note": 88,
      "start": 27.6304,
      "duration": 0.016,
      "velocity": 87,
      "chip": "ym2612"
    },
    {
      "channel": 0,
      "note": 40,
      "start": 27.6399,
      "duration": 0.0161,
      "velocity": 115,
      "chip": "ym2612"
    },
    {
      "channel": 5,
      "note": 88,
      "start": 27.641,
      "duration": 0.0161,
      "velocity": 87,
      "chip": "ym2612"
    },
    {
      "channel": 2,
      "note": 71,
      "start": 27.6434,
      "duration": 0.0161,
      "velocity": 96,
      "chip": "ym2612"
    },
    {
      "channel": 4,
      "note": 54,
      "start": 27.6451,
      "duration": 0.0161,
      "velocity": 100,
      "chip": "ym2612"
    },
    {
      "channel": 1,
      "note": 88,
      "start": 27.6464,
      "duration": 0.0161,
      "velocity": 87,
      "chip": "ym2612"
    },
    {
      "channel": 0,
      "note": 40,
      "start": 27.656,
      "duration": 0.0161,
      "velocity": 115,
      "chip": "ym2612"
    },
    {
      "channel": 5,
      "note": 88,
      "start": 27.6571,
      "duration": 0.0161,
      "velocity": 87,
      "chip": "ym2612"
    },
    {
      "channel": 2,
      "note": 71,
      "start": 27.6595,
      "duration": 0.0164,
      "velocity": 96,
      "chip": "ym2612"
    },
    {
      "channel": 4,
      "note": 54,
      "start": 27.6612,
      "duration": 0.016,
      "velocity": 100,
      "chip": "ym2612"
    },
    {
      "channel": 1,
      "note": 88,
      "start": 27.6625,
      "duration": 0.0164,
      "velocity": 87,
      "chip": "ym2612"
    },
    {
      "channel": 0,
      "note": 41,
      "start": 27.6721,
      "duration": 0.0161,
      "velocity": 115,
      "chip": "ym2612"
    },
    {
      "channel": 5,
      "note": 88,
      "start": 27.6732,
      "duration": 0.0161,
      "velocity": 87,
      "chip": "ym2612"
    },
    {
      "channel": 3,
      "note": 71,
      "start": 27.6747,
      "duration": 0.0159,
      "velocity": 96,
      "chip": "ym2612"
    },
    {
      "channel": 2,
      "note": 71,
      "start": 27.6759,
      "duration": 0.0158,
      "velocity": 96,
      "chip": "ym2612"
    },
    {
      "channel": 4,
      "note": 54,
      "start": 27.6772,
      "duration": 0.0157,
      "velocity": 100,
      "chip": "ym2612"
    },
    {
      "channel": 1,
      "note": 88,
      "start": 27.6789,
      "duration": 0.0158,
      "velocity": 87,
      "chip": "ym2612"
    },
    {
      "channel": 0,
      "note": 41,
      "start": 27.6882,
      "duration": 0.0161,
      "velocity": 115,
      "chip": "ym2612"
    },
    {
      "channel": 5,
      "note": 88,
      "start": 27.6894,
      "duration": 0.0161,
      "velocity": 87,
      "chip": "ym2612"
    },
    {
      "channel": 3,
      "note": 71,
      "start": 27.6906,
      "duration": 0.016,
      "velocity": 96,
      "chip": "ym2612"
    },
    {
      "channel": 2,
      "note": 71,
      "start": 27.6917,
      "duration": 0.0161,
      "velocity": 96,
      "chip": "ym2612"
    },
    {
      "channel": 4,
      "note": 54,
      "start": 27.6929,
      "duration": 0.0161,
      "velocity": 100,
      "chip": "ym2612"
    },
    {
      "channel": 0,
      "note": 42,
      "start": 27.7043,
      "duration": 0.0179,
      "velocity": 124,
      "chip": "ym2612"
    },
    {
      "channel": 5,
      "note": 88,
      "start": 27.7055,
      "duration": 0.0179,
      "velocity": 87,
      "chip": "ym2612"
    },
    {
      "channel": 3,
      "note": 71,
      "start": 27.7066,
      "duration": 0.018,
      "velocity": 96,
      "chip": "ym2612"
    },
    {
      "channel": 4,
      "note": 54,
      "start": 27.709,
      "duration": 0.0183,
      "velocity": 100,
      "chip": "ym2612"
    },
    {
      "channel": 0,
      "note": 84,
      "start": 27.7223,
      "duration": 0.0142,
      "velocity": 124,
      "chip": "ym2612"
    },
    {
      "channel": 5,
      "note": 88,
      "start": 27.7234,
      "duration": 0.0143,
      "velocity": 87,
      "chip": "ym2612"
    },
    {
      "channel": 3,
      "note": 71,
      "start": 27.7246,
      "duration": 0.0143,
      "velocity": 96,
      "chip": "ym2612"
    },
    {
      "channel": 4,
      "note": 54,
      "start": 27.7273,
      "duration": 0.014,
      "velocity": 100,
      "chip": "ym2612"
    },
    {
      "channel": 1,
      "note": 86,
      "start": 27.7293,
      "duration": 0.0133,
      "velocity": 87,
      "chip": "ym2612"
    },
    {
      "channel": 0,
      "note": 82,
      "start": 27.7365,
      "duration": 0.0161,
      "velocity": 124,
      "chip": "ym2612"
    },
    {
      "channel": 5,
      "note": 88,
      "start": 27.7377,
      "duration": 0.016,
      "velocity": 87,
      "chip": "ym2612"
    },
    {
      "channel": 3,
      "note": 71,
      "start": 27.739,
      "duration": 0.016,
      "velocity": 96,
      "chip": "ym2612"
    },
    {
      "channel": 4,
      "note": 54,
      "start": 27.7413,
      "duration": 0.016,
      "velocity": 100,
      "chip": "ym2612"
    },
    {
      "channel": 1,
      "note": 86,
      "start": 27.7426,
      "duration": 0.016,
      "velocity": 87,
      "chip": "ym2612"
    },
    {
      "channel": 0,
      "note": 80,
      "start": 27.7526,
      "duration": 0.0161,
      "velocity": 124,
      "chip": "ym2612"
    },
    {
      "channel": 5,
      "note": 88,
      "start": 27.7538,
      "duration": 0.0161,
      "velocity": 87,
      "chip": "ym2612"
    },
    {
      "channel": 3,
      "note": 71,
      "start": 27.755,
      "duration": 0.0161,
      "velocity": 96,
      "chip": "ym2612"
    },
    {
      "channel": 4,
      "note": 54,
      "start": 27.7573,
      "duration": 0.0162,
      "velocity": 100,
      "chip": "ym2612"
    },
    {
      "channel": 1,
      "note": 86,
      "start": 27.7585,
      "duration": 0.0161,
      "velocity": 87,
      "chip": "ym2612"
    },
    {
      "channel": 0,
      "note": 77,
      "start": 27.7687,
      "duration": 0.0161,
      "velocity": 124,
      "chip": "ym2612"
    },
    {
      "channel": 5,
      "note": 88,
      "start": 27.7699,
      "duration": 0.0162,
      "velocity": 87,
      "chip": "ym2612"
    },
    {
      "channel": 4,
      "note": 54,
      "start": 27.7735,
      "duration": 0.0161,
      "velocity": 100,
      "chip": "ym2612"
    },
    {
      "channel": 1,
      "note": 86,
      "start": 27.7746,
      "duration": 0.0162,
      "velocity": 87,
      "chip": "ym2612"
    },
    {
      "channel": 0,
      "note": 75,
      "start": 27.7848,
      "duration": 0.0161,
      "velocity": 124,
      "chip": "ym2612"
    },
    {
      "channel": 5,
      "note": 88,
      "start": 27.786,
      "duration": 0.0161,
      "velocity": 87,
      "chip": "ym2612"
    },
    {
      "channel": 4,
      "note": 54,
      "start": 27.7896,
      "duration": 0.0161,
      "velocity": 100,
      "chip": "ym2612"
    },
    {
      "channel": 1,
      "note": 86,
      "start": 27.7909,
      "duration": 0.016,
      "velocity": 87,
      "chip": "ym2612"
    },
    {
      "channel": 0,
      "note": 72,
      "start": 27.8009,
      "duration": 0.0161,
      "velocity": 124,
      "chip": "ym2612"
    },
    {
      "channel": 5,
      "note": 88,
      "start": 27.8022,
      "duration": 0.016,
      "velocity": 87,
      "chip": "ym2612"
    },
    {
      "channel": 4,
      "note": 54,
      "start": 27.8057,
      "duration": 0.0161,
      "velocity": 100,
      "chip": "ym2612"
    },
    {
      "channel": 1,
      "note": 86,
      "start": 27.8069,
      "duration": 0.0161,
      "velocity": 87,
      "chip": "ym2612"
    },
    {
      "channel": 0,
      "note": 70,
      "start": 27.817,
      "duration": 0.0161,
      "velocity": 124,
      "chip": "ym2612"
    },
    {
      "channel": 5,
      "note": 88,
      "start": 27.8182,
      "duration": 0.0161,
      "velocity": 87,
      "chip": "ym2612"
    },
    {
      "channel": 4,
      "note": 54,
      "start": 27.8218,
      "duration": 0.0165,
      "velocity": 100,
      "chip": "ym2612"
    },
    {
      "channel": 1,
      "note": 86,
      "start": 27.823,
      "duration": 0.0166,
      "velocity": 87,
      "chip": "ym2612"
    },
    {
      "channel": 0,
      "note": 68,
      "start": 27.8331,
      "duration": 0.0161,
      "velocity": 124,
      "chip": "ym2612"
    },
    {
      "channel": 5,
      "note": 88,
      "start": 27.8343,
      "duration": 0.0161,
      "velocity": 87,
      "chip": "ym2612"
    },
    {
      "channel": 2,
      "note": 74,
      "start": 27.837,
      "duration": 0.0158,
      "velocity": 96,
      "chip": "ym2612"
    },
    {
      "channel": 4,
      "note": 54,
      "start": 27.8384,
      "duration": 0.0156,
      "velocity": 100,
      "chip": "ym2612"
    },
    {
      "channel": 1,
      "note": 86,
      "start": 27.8396,
      "duration": 0.0156,
      "velocity": 87,
      "chip": "ym2612"
    },
    {
      "channel": 0,
      "note": 65,
      "start": 27.8492,
      "duration": 0.0161,
      "velocity": 124,
      "chip": "ym2612"
    },
    {
      "channel": 5,
      "note": 88,
      "start": 27.8505,
      "duration": 0.0161,
      "velocity": 87,
      "chip": "ym2612"
    },
    {
      "channel": 2,
      "note": 74,
      "start": 27.8528,
      "duration": 0.0161,
      "velocity": 96,
      "chip": "ym2612"
    },
    {
      "channel": 4,
      "note": 54,
      "start": 27.854,
      "duration": 0.016,
      "velocity": 100,
      "chip": "ym2612"
    },
    {
      "channel": 1,
      "note": 86,
      "start": 27.8552,
      "duration": 0.016,
      "velocity": 87,
      "chip": "ym2612"
    },
    {
      "channel": 0,
      "note": 63,
      "start": 27.8653,
      "duration": 0.0153,
      "velocity": 1,
      "chip": "ym2612"
    },
    {
      "channel": 5,
      "note": 88,
      "start": 27.8666,
      "duration": 0.0152,
      "velocity": 87,
      "chip": "ym2612"
    },
    {
      "channel": 2,
      "note": 74,
      "start": 27.8689,
      "duration": 0.0152,
      "velocity": 96,
      "chip": "ym2612"
    },
    {
      "channel": 4,
      "note": 54,
      "start": 27.87,
      "duration": 0.0152,
      "velocity": 100,
      "chip": "ym2612"
    },
    {
      "channel": 1,
      "note": 86,
      "start": 27.8712,
      "duration": 0.0153,
      "velocity": 87,
      "chip": "ym2612"
    },
    {
      "channel": 2,
      "note": 74,
      "start": 27.8841,
      "duration": 0.0155,
      "velocity": 96,
      "chip": "ym2612"
    },
    {
      "channel": 4,
      "note": 54,
      "start": 27.8853,
      "duration": 0.0155,
      "velocity": 100,
      "chip": "ym2612"
    },
    {
      "channel": 1,
      "note": 86,
      "start": 27.8865,
      "duration": 0.0155,
      "velocity": 87,
      "chip": "ym2612"
    },
    {
      "channel": 3,
      "note": 74,
      "start": 27.8985,
      "duration": 0.0163,
      "velocity": 96,
      "chip": "ym2612"
    },
    {
      "channel": 2,
      "note": 74,
      "start": 27.8996,
      "duration": 0.0164,
      "velocity": 96,
      "chip": "ym2612"
    },
    {
      "channel": 4,
      "note": 54,
      "start": 27.9008,
      "duration": 0.0164,
      "velocity": 100,
      "chip": "ym2612"
    },
    {
      "channel": 1,
      "note": 86,
      "start": 27.902,
      "duration": 0.0163,
      "velocity": 87,
      "chip": "ym2612"
    },
    {
      "channel": 5,
      "note": 86,
      "start": 27.9136,
      "duration": 0.0157,
      "velocity": 87,
      "chip": "ym2612"
    },
    {
      "channel": 3,
      "note": 74,
      "start": 27.9148,
      "duration": 0.0156,
      "velocity": 96,
      "chip": "ym2612"
    },
    {
      "channel": 2,
      "note": 74,
      "start": 27.9161,
      "duration": 0.0156,
      "velocity": 96,
      "chip": "ym2612"
    },
    {
      "channel": 4,
      "note": 54,
      "start": 27.9172,
      "duration": 0.0156,
      "velocity": 100,
      "chip": "ym2612"
    },
    {
      "channel": 1,
      "note": 86,
      "start": 27.9183,
      "duration": 0.0156,
      "velocity": 87,
      "chip": "ym2612"
    },
    {
      "channel": 5,
      "note": 86,
      "start": 27.9293,
      "duration": 0.0199,
      "velocity": 87,
      "chip": "ym2612"
    },
    {
      "channel": 3,
      "note": 74,
      "start": 27.9305,
      "duration": 0.0199,
      "velocity": 96,
      "chip": "ym2612"
    },
    {
      "channel": 4,
      "note": 54,
      "start": 27.9328,
      "duration": 0.0205,
      "velocity": 100,
      "chip": "ym2612"
    },
    {
      "channel": 1,
      "note": 86,
      "start": 27.934,
      "duration": 0.0205,
      "velocity": 87,
      "chip": "ym2612"
    },
    {
      "channel": 0,
      "note": 36,
      "start": 27.948,
      "duration": 0.0145,
      "velocity": 115,
      "chip": "ym2612"
    },
    {
      "channel": 5,
      "note": 86,
      "start": 27.9493,
      "duration": 0.0145,
      "velocity": 87,
      "chip": "ym2612"
    },
    {
      "channel": 3,
      "note": 74,
      "start": 27.9504,
      "duration": 0.0145,
      "velocity": 96,
      "chip": "ym2612"
    },
    {
      "channel": 2,
      "note": 78,
      "start": 27.9519,
      "duration": 0.0142,
      "velocity": 96,
      "chip": "ym2612"
    },
    {
      "channel": 4,
      "note": 59,
      "start": 27.9534,
      "duration": 0.0139,
      "velocity": 100,
      "chip": "ym2612"
    },
    {
      "channel": 1,
      "note": 86,
      "start": 27.9545,
      "duration": 0.014,
      "velocity": 87,
      "chip": "ym2612"
    },
    {
      "channel": 0,
      "note": 36,
      "start": 27.9625,
      "duration": 0.016,
      "velocity": 115,
      "chip": "ym2612"
    },
    {
      "channel": 5,
      "note": 86,
      "start": 27.9638,
      "duration": 0.016,
      "velocity": 87,
      "chip": "ym2612"
    },
    {
      "channel": 3,
      "note": 74,
      "start": 27.9649,
      "duration": 0.016,
      "velocity": 96,
      "chip": "ym2612"
    },
    {
      "channel": 2,
      "note": 78,
      "start": 27.9661,
      "duration": 0.016,
      "velocity": 96,
      "chip": "ym2612"
    },
    {
      "channel": 4,
      "note": 59,
      "start": 27.9673,
      "duration": 0.0159,
      "velocity": 100,
      "chip": "ym2612"
    },
    {
      "channel": 1,
      "note": 86,
      "start": 27.9685,
      "duration": 0.0159,
      "velocity": 87,
      "chip": "ym2612"
    },
    {
      "channel": 0,
      "note": 37,
      "start": 27.9786,
      "duration": 0.016,
      "velocity": 115,
      "chip": "ym2612"
    },
    {
      "channel": 5,
      "note": 86,
      "start": 27.9798,
      "duration": 0.0161,
      "velocity": 87,
      "chip": "ym2612"
    },
    {
      "channel": 3,
      "note": 74,
      "start": 27.9809,
      "duration": 0.0161,
      "velocity": 96,
      "chip": "ym2612"
    },
    {
      "channel": 2,
      "note": 78,
      "start": 27.9821,
      "duration": 0.0161,
      "velocity": 96,
      "chip": "ym2612"
    },
    {
      "channel": 4,
      "note": 59,
      "start": 27.9832,
      "duration": 0.0162,
      "velocity": 100,
      "chip": "ym2612"
    },
    {
      "channel": 1,
      "note": 86,
      "start": 27.9844,
      "duration": 0.0161,
      "velocity": 87,
      "chip": "ym2612"
    },
    {
      "channel": 0,
      "note": 37,
      "start": 27.9946,
      "duration": 0.0159,
      "velocity": 115,
      "chip": "ym2612"
    },
    {
      "channel": 5,
      "note": 86,
      "start": 27.9959,
      "duration": 0.0161,
      "velocity": 87,
      "chip": "ym2612"
    },
    {
      "channel": 2,
      "note": 78,
      "start": 27.9982,
      "duration": 0.0165,
      "velocity": 96,
      "chip": "ym2612"
    },
    {
      "channel": 4,
      "note": 59,
      "start": 27.9994,
      "duration": 0.0164,
      "velocity": 100,
      "chip": "ym2612"
    },
    {
      "channel": 1,
      "note": 86,
      "start": 28.0005,
      "duration": 0.0165,
      "velocity": 87,
      "chip": "ym2612"
    },
    {
      "channel": 0,
      "note": 38,
      "start": 28.0105,
      "duration": 0.0158,
      "velocity": 115,
      "chip": "ym2612"
    },
    {
      "channel": 5,
      "note": 86,
      "start": 28.012,
      "duration": 0.016,
      "velocity": 87,
      "chip": "ym2612"
    },
    {
      "channel": 3,
      "note": 78,
      "start": 28.0135,
      "duration": 0.0158,
      "velocity": 96,
      "chip": "ym2612"
    },
    {
      "channel": 2,
      "note": 78,
      "start": 28.0146,
      "duration": 0.0158,
      "velocity": 96,
      "chip": "ym2612"
    },
    {
      "channel": 4,
      "note": 59,
      "start": 28.0158,
      "duration": 0.0159,
      "velocity": 100,
      "chip": "ym2612"
    },
    {
      "channel": 1,
      "note": 86,
      "start": 28.017,
      "duration": 0.0158,
      "velocity": 87,
      "chip": "ym2612"
    },
    {
      "channel": 0,
      "note": 38,
      "start": 28.0263,
      "duration": 0.0161,
      "velocity": 115,
      "chip": "ym2612"
    },
    {
      "channel": 5,
      "note": 86,
      "start": 28.028,
      "duration": 0.0158,
      "velocity": 87,
      "chip": "ym2612"
    },
    {
      "channel": 3,
      "note": 78,
      "start": 28.0293,
      "duration": 0.016,
      "velocity": 96,
      "chip": "ym2612"
    },
    {
      "channel": 2,
      "note": 78,
      "start": 28.0305,
      "duration": 0.016,
      "velocity": 96,
      "chip": "ym2612"
    },
    {
      "channel": 4,
      "note": 59,
      "start": 28.0316,
      "duration": 0.016,
      "velocity": 100,
      "chip": "ym2612"
    },
    {
      "channel": 1,
      "note": 86,
      "start": 28.0328,
      "duration": 0.0161,
      "velocity": 87,
      "chip": "ym2612"
    },
    {
      "channel": 0,
      "note": 39,
      "start": 28.0424,
      "duration": 0.0162,
      "velocity": 115,
      "chip": "ym2612"
    },
    {
      "channel": 5,
      "note": 86,
      "start": 28.0438,
      "duration": 0.0159,
      "velocity": 87,
      "chip": "ym2612"
    },
    {
      "channel": 3,
      "note": 78,
      "start": 28.0453,
      "duration": 0.0161,
      "velocity": 96,
      "chip": "ym2612"
    },
    {
      "channel": 4,
      "note": 59,
      "start": 28.0477,
      "duration": 0.0164,
      "velocity": 100,
      "chip": "ym2612"
    },
    {
      "channel": 1,
      "note": 86,
      "start": 28.0489,
      "duration": 0.0165,
      "velocity": 87,
      "chip": "ym2612"
    },
    {
      "channel": 0,
      "note": 39,
      "start": 28.0585,
      "duration": 0.0161,
      "velocity": 115,
      "chip": "ym2612"
    },
    {
      "channel": 5,
      "note": 86,
      "start": 28.0597,
      "duration": 0.0161,
      "velocity": 87,
      "chip": "ym2612"
    },
    {
      "channel": 3,
      "note": 78,
      "start": 28.0614,
      "duration": 0.0157,
      "velocity": 96,
      "chip": "ym2612"
    },
    {
      "channel": 2,
      "note": 71,
      "start": 28.0629,
      "duration": 0.0159,
      "velocity": 96,
      "chip": "ym2612"
    },
    {
      "channel": 4,
      "note": 59,
      "start": 28.0641,
      "duration": 0.0158,
      "velocity": 100,
      "chip": "ym2612"
    },
    {
      "channel": 1,
      "note": 85,
      "start": 28.0654,
      "duration": 0.0158,
      "velocity": 87,
      "chip": "ym2612"
    },
    {
      "channel": 0,
      "note": 40,
      "start": 28.0746,
      "duration": 0.0161,
      "velocity": 115,
      "chip": "ym2612"
    },
    {
      "channel": 5,
      "note": 86,
      "start": 28.0758,
      "duration": 0.0161,
      "velocity": 87,
      "chip": "ym2612"
    },
    {
      "channel": 3,
      "note": 78,
      "start": 28.0771,
      "duration": 0.0159,
      "velocity": 96,
      "chip": "ym2612"
    },
    {
      "channel": 2,
      "note": 71,
      "start": 28.0788,
      "duration": 0.016,
      "velocity": 96,
      "chip": "ym2612"
    },
    {
      "channel": 4,
      "note": 59,
      "start": 28.0799,
      "duration": 0.016,
      "velocity": 100,
      "chip": "ym2612"
    },
    {
      "channel": 1,
      "note": 86,
      "start": 28.0811,
      "duration": 0.0161,
      "velocity": 87,
      "chip": "ym2612"
    },
    {
      "channel": 0,
      "note": 40,
      "start": 28.0907,
      "duration": 0.0161,
      "velocity": 115,
      "chip": "ym2612"
    },
    {
      "channel": 5,
      "note": 86,
      "start": 28.0919,
      "duration": 0.0161,
      "velocity": 87,
      "chip": "ym2612"
    },
    {
      "channel": 3,
      "note": 78,
      "start": 28.093,
      "duration": 0.0161,
      "velocity": 96,
      "chip": "ym2612"
    },
    {
      "channel": 2,
      "note": 71,
      "start": 28.0947,
      "duration": 0.0158,
      "velocity": 96,
      "chip": "ym2612"
    },
    {
      "channel": 4,
      "note": 59,
      "start": 28.0959,
      "duration": 0.0161,
      "velocity": 100,
      "chip": "ym2612"
    },
    {
      "channel": 1,
      "note": 86,
      "start": 28.0972,
      "duration": 0.0161,
      "velocity": 87,
      "chip": "ym2612"
    },
    {
      "channel": 0,
      "note": 40,
      "start": 28.1068,
      "duration": 0.0161,
      "velocity": 115,
      "chip": "ym2612"
    },
    {
      "channel": 5,
      "note": 86,
      "start": 28.108,
      "duration": 0.0161,
      "velocity": 87,
      "chip": "ym2612"
    },
    {
      "channel": 2,
      "note": 71,
      "start": 28.1105,
      "duration": 0.0161,
      "velocity": 96,
      "chip": "ym2612"
    },
    {
      "channel": 4,
      "note": 59,
      "start": 28.112,
      "duration": 0.0164,
      "velocity": 100,
      "chip": "ym2612"
    },
    {
      "channel": 1,
      "note": 86,
      "start": 28.1133,
      "duration": 0.0164,
      "velocity": 87,
      "chip": "ym2612"
    },
    {
      "channel": 0,
      "note": 41,
      "start": 28.1229,
      "duration": 0.0161,
      "velocity": 115,
      "chip": "ym2612"
    },
    {
      "channel": 5,
      "note": 86,
      "start": 28.1241,
      "duration": 0.0162,
      "velocity": 87,
      "chip": "ym2612"
    },
    {
      "channel": 3,
      "note": 71,
      "start": 28.1255,
      "duration": 0.0159,
      "velocity": 96,
      "chip": "ym2612"
    },
    {
      "channel": 2,
      "note": 71,
      "start": 28.1267,
      "duration": 0.016,
      "velocity": 96,
      "chip": "ym2612"
    },
    {
      "channel": 4,
      "note": 59,
      "start": 28.1285,
      "duration": 0.0155,
      "velocity": 100,
      "chip": "ym2612"
    },
    {
      "channel": 1,
      "note": 86,
      "start": 28.1297,
      "duration": 0.0158,
      "velocity": 87,
      "chip": "ym2612"
    },
    {
      "channel": 0,
      "note": 41,
      "start": 28.139,
      "duration": 0.0161,
      "velocity": 115,
      "chip": "ym2612"
    },
    {
      "channel": 5,
      "note": 86,
      "start": 28.1402,
      "duration": 0.0161,
      "velocity": 87,
      "chip": "ym2612"
    },
    {
      "channel": 3,
      "note": 71,
      "start": 28.1414,
      "duration": 0.016,
      "velocity": 96,
      "chip": "ym2612"
    },
    {
      "channel": 2,
      "note": 71,
      "start": 28.1426,
      "duration": 0.016,
      "velocity": 96,
      "chip": "ym2612"
    },
    {
      "channel": 4,
      "note": 59,
      "start": 28.144,
      "duration": 0.0159,
      "velocity": 100,
      "chip": "ym2612"
    },
    {
      "channel": 0,
      "note": 42,
      "start": 28.1551,
      "duration": 0.018,
      "velocity": 127,
      "chip": "ym2612"
    },
    {
      "channel": 5,
      "note": 86,
      "start": 28.1563,
      "duration": 0.018,
      "velocity": 87,
      "chip": "ym2612"
    },
    {
      "channel": 3,
      "note": 71,
      "start": 28.1575,
      "duration": 0.018,
      "velocity": 96,
      "chip": "ym2612"
    },
    {
      "channel": 4,
      "note": 59,
      "start": 28.1598,
      "duration": 0.0189,
      "velocity": 100,
      "chip": "ym2612"
    },
    {
      "channel": 0,
      "note": 84,
      "start": 28.1731,
      "duration": 0.0142,
      "velocity": 127,
      "chip": "ym2612"
    },
    {
      "channel": 5,
      "note": 86,
      "start": 28.1743,
      "duration": 0.0143,
      "velocity": 87,
      "chip": "ym2612"
    },
    {
      "channel": 3,
      "note": 71,
      "start": 28.1755,
      "duration": 0.0142,
      "velocity": 96,
      "chip": "ym2612"
    },
    {
      "channel": 2,
      "note": 74,
      "start": 28.1771,
      "duration": 0.0138,
      "velocity": 96,
      "chip": "ym2612"
    },
    {
      "channel": 4,
      "note": 59,
      "start": 28.1787,
      "duration": 0.0134,
      "velocity": 100,
      "chip": "ym2612"
    },
    {
      "channel": 1,
      "note": 86,
      "start": 28.1802,
      "duration": 0.0132,
      "velocity": 87,
      "chip": "ym2612"
    },
    {
      "channel": 0,
      "note": 82,
      "start": 28.1873,
      "duration": 0.016,
      "velocity": 127,
      "chip": "ym2612"
    },
    {
      "channel": 5,
      "note": 86,
      "start": 28.1886,
      "duration": 0.016,
      "velocity": 87,
      "chip": "ym2612"
    },
    {
      "channel": 3,
      "note": 71,
      "start": 28.1897,
      "duration": 0.0161,
      "velocity": 96,
      "chip": "ym2612"
    },
    {
      "channel": 2,
      "note": 74,
      "start": 28.1909,
      "duration": 0.016,
      "velocity": 96,
      "chip": "ym2612"
    },
    {
      "channel": 4,
      "note": 59,
      "start": 28.1921,
      "duration": 0.016,
      "velocity": 100,
      "chip": "ym2612"
    },
    {
      "channel": 1,
      "note": 86,
      "start": 28.1933,
      "duration": 0.0159,
      "velocity": 87,
      "chip": "ym2612"
    },
    {
      "channel": 0,
      "note": 81,
      "start": 28.2034,
      "duration": 0.0161,
      "velocity": 127,
      "chip": "ym2612"
    },
    {
      "channel": 5,
      "note": 86,
      "start": 28.2046,
      "duration": 0.0161,
      "velocity": 87,
      "chip": "ym2612"
    },
    {
      "channel": 3,
      "note": 71,
      "start": 28.2058,
      "duration": 0.0161,
      "velocity": 96,
      "chip": "ym2612"
    },
    {
      "channel": 2,
      "note": 74,
      "start": 28.207,
      "duration": 0.0161,
      "velocity": 96,
      "chip": "ym2612"
    },
    {
      "channel": 4,
      "note": 59,
      "start": 28.2081,
      "duration": 0.0161,
      "velocity": 100,
      "chip": "ym2612"
    },
    {
      "channel": 1,
      "note": 86,
      "start": 28.2093,
      "duration": 0.0161,
      "velocity": 87,
      "chip": "ym2612"
    },
    {
      "channel": 0,
      "note": 79,
      "start": 28.2195,
      "duration": 0.0162,
      "velocity": 127,
      "chip": "ym2612"
    },
    {
      "channel": 5,
      "note": 86,
      "start": 28.2207,
      "duration": 0.0161,
      "velocity": 87,
      "chip": "ym2612"
    },
    {
      "channel": 2,
      "note": 74,
      "start": 28.223,
      "duration": 0.0164,
      "velocity": 96,
      "chip": "ym2612"
    },
    {
      "channel": 4,
      "note": 59,
      "start": 28.2242,
      "duration": 0.0164,
      "velocity": 100,
      "chip": "ym2612"
    },
    {
      "channel": 1,
      "note": 86,
      "start": 28.2254,
      "duration": 0.0163,
      "velocity": 87,
      "chip": "ym2612"
    },
    {
      "channel": 0,
      "note": 77,
      "start": 28.2356,
      "duration": 0.0161,
      "velocity": 127,
      "chip": "ym2612"
    },
    {
      "channel": 5,
      "note": 86,
      "start": 28.2368,
      "duration": 0.0162,
      "velocity": 87,
      "chip": "ym2612"
    },
    {
      "channel": 3,
      "note": 74,
      "start": 28.2383,
      "duration": 0.016,
      "velocity": 96,
      "chip": "ym2612"
    },
    {
      "channel": 2,
      "note": 74,
      "start": 28.2395,
      "duration": 0.0159,
      "velocity": 96,
      "chip": "ym2612"
    },
    {
      "channel": 4,
      "note": 59,
      "start": 28.2406,
      "duration": 0.0159,
      "velocity": 100,
      "chip": "ym2612"
    },
    {
      "channel": 1,
      "note": 86,
      "start": 28.2417,
      "duration": 0.016,
      "velocity": 87,
      "chip": "ym2612"
    },
    {
      "channel": 0,
      "note": 76,
      "start": 28.2517,
      "duration": 0.0161,
      "velocity": 127,
      "chip": "ym2612"
    },
    {
      "channel": 5,
      "note": 86,
      "start": 28.253,
      "duration": 0.016,
      "velocity": 87,
      "chip": "ym2612"
    },
    {
      "channel": 3,
      "note": 74,
      "start": 28.2542,
      "duration": 0.016,
      "velocity": 96,
      "chip": "ym2612"
    },
    {
      "channel": 2,
      "note": 74,
      "start": 28.2554,
      "duration": 0.016,
      "velocity": 96,
      "chip": "ym2612"
    },
    {
      "channel": 4,
      "note": 59,
      "start": 28.2565,
      "duration": 0.016,
      "velocity": 100,
      "chip": "ym2612"
    },
    {
      "channel": 1,
      "note": 86,
      "start": 28.2577,
      "duration": 0.016,
      "velocity": 87,
      "chip": "ym2612"
    },
    {
      "channel": 0,
      "note": 74,
      "start": 28.2678,
      "duration": 0.0161,
      "velocity": 127,
      "chip": "ym2612"
    },
    {
      "channel": 5,
      "note": 86,
      "start": 28.269,
      "duration": 0.0161,
      "velocity": 87,
      "chip": "ym2612"
    },
    {
      "channel": 3,
      "note": 74,
      "start": 28.2702,
      "duration": 0.0161,
      "velocity": 96,
      "chip": "ym2612"
    },
    {
      "channel": 4,
      "note": 59,
      "start": 28.2725,
      "duration": 0.0167,
      "velocity": 100,
      "chip": "ym2612"
    },
    {
      "channel": 1,
      "note": 86,
      "start": 28.2737,
      "duration": 0.0167,
      "velocity": 87,
      "chip": "ym2612"
    },
    {
      "channel": 0,
      "note": 72,
      "start": 28.2839,
      "duration": 0.0161,
      "velocity": 127,
      "chip": "ym2612"
    },
    {
      "channel": 5,
      "note": 86,
      "start": 28.2851,
      "duration": 0.0162,
      "velocity": 87,
      "chip": "ym2612"
    },
    {
      "channel": 3,
      "note": 74,
      "start": 28.2863,
      "duration": 0.0161,
      "velocity": 96,
      "chip": "ym2612"
    },
    {
      "channel": 2,
      "note": 78,
      "start": 28.2878,
      "duration": 0.0159,
      "velocity": 96,
      "chip": "ym2612"
    },
    {
      "channel": 4,
      "note": 54,
      "start": 28.2892,
      "duration": 0.0157,
      "velocity": 100,
      "chip": "ym2612"
    },
    {
      "channel": 1,
      "note": 86,
      "start": 28.2905,
      "duration": 0.0156,
      "velocity": 87,
      "chip": "ym2612"
    },
    {
      "channel": 0,
      "note": 71,
      "start": 28.3,
      "duration": 0.0161,
      "velocity": 127,
      "chip": "ym2612"
    },
    {
      "channel": 5,
      "note": 86,
      "start": 28.3013,
      "duration": 0.0161,
      "velocity": 87,
      "chip": "ym2612"
    },
    {
      "channel": 3,
      "note": 74,
      "start": 28.3025,
      "duration": 0.0161,
      "velocity": 96,
      "chip": "ym2612"
    },
    {
      "channel": 2,
      "note": 78,
      "start": 28.3037,
      "duration": 0.016,
      "velocity": 96,
      "chip": "ym2612"
    },
    {
      "channel": 4,
      "note": 54,
      "start": 28.3049,
      "duration": 0.016,
      "velocity": 100,
      "chip": "ym2612"
    },
    {
      "channel": 1,
      "note": 86,
      "start": 28.3061,
      "duration": 0.016,
      "velocity": 87,
      "chip": "ym2612"
    },
    {
      "channel": 0,
      "note": 69,
      "start": 28.3161,
      "duration": 0.0161,
      "velocity": 127,
      "chip": "ym2612"
    },
    {
      "channel": 5,
      "note": 86,
      "start": 28.3174,
      "duration": 0.016,
      "velocity": 87,
      "chip": "ym2612"
    },
    {
      "channel": 3,
      "note": 74,
      "start": 28.3186,
      "duration": 0.016,
      "velocity": 96,
      "chip": "ym2612"
    },
    {
      "channel": 2,
      "note": 78,
      "start": 28.3197,
      "duration": 0.016,
      "velocity": 96,
      "chip": "ym2612"
    },
    {
      "channel": 4,
      "note": 54,
      "start": 28.3209,
      "duration": 0.016,
      "velocity": 100,
      "chip": "ym2612"
    },
    {
      "channel": 1,
      "note": 86,
      "start": 28.3221,
      "duration": 0.016,
      "velocity": 87,
      "chip": "ym2612"
    },
    {
      "channel": 0,
      "note": 67,
      "start": 28.3322,
      "duration": 0.0161,
      "velocity": 127,
      "chip": "ym2612"
    },
    {
      "channel": 2,
      "note": 78,
      "start": 28.3358,
      "duration": 0.0163,
      "velocity": 96,
      "chip": "ym2612"
    },
    {
      "channel": 4,
      "note": 54,
      "start": 28.3369,
      "duration": 0.0163,
      "velocity": 100,
      "chip": "ym2612"
    },
    {
      "channel": 1,
      "note": 86,
      "start": 28.3381,
      "duration": 0.0164,
      "velocity": 87,
      "chip": "ym2612"
    },
    {
      "channel": 0,
      "note": 66,
      "start": 28.3483,
      "duration": 0.0161,
      "velocity": 127,
      "chip": "ym2612"
    },
    {
      "channel": 3,
      "note": 78,
      "start": 28.351,
      "duration": 0.0161,
      "velocity": 96,
      "chip": "ym2612"
    },
    {
      "channel": 2,
      "note": 78,
      "start": 28.3521,
      "duration": 0.0162,
      "velocity": 96,
      "chip": "ym2612"
    },
    {
      "channel": 4,
      "note": 54,
      "start": 28.3533,
      "duration": 0.0161,
      "velocity": 100,
      "chip": "ym2612"
    },
    {
      "channel": 1,
      "note": 86,
      "start": 28.3545,
      "duration": 0.0161,
      "velocity": 87,
      "chip": "ym2612"
    },
    {
      "channel": 0,
      "note": 64,
      "start": 28.3644,
      "duration": 0.0161,
      "velocity": 127,
      "chip": "ym2612"
    },
    {
      "channel": 5,
      "note": 86,
      "start": 28.3659,
      "duration": 0.0159,
      "velocity": 87,
      "chip": "ym2612"
    },
    {
      "channel": 3,
      "note": 78,
      "start": 28.3671,
      "duration": 0.0158,
      "velocity": 96,
      "chip": "ym2612"
    },
    {
      "channel": 2,
      "note": 78,
      "start": 28.3683,
      "duration": 0.0158,
      "velocity": 96,
      "chip": "ym2612"
    },
    {
      "channel": 4,
      "note": 54,
      "start": 28.3694,
      "duration": 0.0159,
      "velocity": 100,
      "chip": "ym2612"
    },
    {
      "channel": 0,
      "note": 62,
      "start": 28.3805,
      "duration": 0.018,
      "velocity": 127,
      "chip": "ym2612"
    },
    {
      "channel": 5,
      "note": 86,
      "start": 28.3818,
      "duration": 0.018,
      "velocity": 87,
      "chip": "ym2612"
    },
    {
      "channel": 3,
      "note": 78,
      "start": 28.3829,
      "duration": 0.0181,
      "velocity": 96,
      "chip": "ym2612"
    },
    {
      "channel": 4,
      "note": 54,
      "start": 28.3853,
      "duration": 0.0184,
      "velocity": 100,
      "chip": "ym2612"
    },
    {
      "channel": 0,
      "note": 84,
      "start": 28.3986,
      "duration": 0.0144,
      "velocity": 127,
      "chip": "ym2612"
    },
    {
      "channel": 5,
      "note": 86,
      "start": 28.3998,
      "duration": 0.0145,
      "velocity": 87,
      "chip": "ym2612"
    },
    {
      "channel": 3,
      "note": 78,
      "start": 28.401,
      "duration": 0.0144,
      "velocity": 96,
      "chip": "ym2612"
    },
    {
      "channel": 4,
      "note": 54,
      "start": 28.4038,
      "duration": 0.0141,
      "velocity": 100,
      "chip": "ym2612"
    },
    {
      "channel": 1,
      "note": 85,
      "start": 28.4052,
      "duration": 0.0139,
      "velocity": 87,
      "chip": "ym2612"
    },
    {
      "channel": 0,
      "note": 82,
      "start": 28.4131,
      "duration": 0.0163,
      "velocity": 127,
      "chip": "ym2612"
    },
    {
      "channel": 5,
      "note": 86,
      "start": 28.4143,
      "duration": 0.0162,
      "velocity": 87,
      "chip": "ym2612"
    },
    {
      "channel": 3,
      "note": 78,
      "start": 28.4154,
      "duration": 0.0162,
      "velocity": 96,
      "chip": "ym2612"
    },
    {
      "channel": 4,
      "note": 54,
      "start": 28.4179,
      "duration": 0.0162,
      "velocity": 100,
      "chip": "ym2612"
    },
    {
      "channel": 1,
      "note": 85,
      "start": 28.4191,
      "duration": 0.0162,
      "velocity": 87,
      "chip": "ym2612"
    },
    {
      "channel": 0,
      "note": 81,
      "start": 28.4293,
      "duration": 0.0162,
      "velocity": 127,
      "chip": "ym2612"
    },
    {
      "channel": 5,
      "note": 86,
      "start": 28.4305,
      "duration": 0.0162,
      "velocity": 87,
      "chip": "ym2612"
    },
    {
      "channel": 3,
      "note": 78,
      "start": 28.4316,
      "duration": 0.0162,
      "velocity": 96,
      "chip": "ym2612"
    },
    {
      "channel": 4,
      "note": 54,
      "start": 28.4341,
      "duration": 0.0162,
      "velocity": 100,
      "chip": "ym2612"
    },
    {
      "channel": 1,
      "note": 85,
      "start": 28.4353,
      "duration": 0.0162,
      "velocity": 87,
      "chip": "ym2612"
    },
    {
      "channel": 0,
      "note": 79,
      "start": 28.4455,
      "duration": 0.0161,
      "velocity": 127,
      "chip": "ym2612"
    },
    {
      "channel": 5,
      "note": 86,
      "start": 28.4467,
      "duration": 0.0161,
      "velocity": 87,
      "chip": "ym2612"
    },
    {
      "channel": 4,
      "note": 54,
      "start": 28.4503,
      "duration": 0.0162,
      "velocity": 100,
      "chip": "ym2612"
    },
    {
      "channel": 1,
      "note": 85,
      "start": 28.4515,
      "duration": 0.0162,
      "velocity": 87,
      "chip": "ym2612"
    },
    {
      "channel": 0,
      "note": 77,
      "start": 28.4617,
      "duration": 0.016,
      "velocity": 127,
      "chip": "ym2612"
    },
    {
      "channel": 5,
      "note": 86,
      "start": 28.4628,
      "duration": 0.0161,
      "velocity": 87,
      "chip": "ym2612"
    },
    {
      "channel": 4,
      "note": 54,
      "start": 28.4664,
      "duration": 0.0161,
      "velocity": 100,
      "chip": "ym2612"
    },
    {
      "channel": 1,
      "note": 85,
      "start": 28.4676,
      "duration": 0.0161,
      "velocity": 87,
      "chip": "ym2612"
    },
    {
      "channel": 0,
      "note": 76,
      "start": 28.4777,
      "duration": 0.0155,
      "velocity": 127,
      "chip": "ym2612"
    },
    {
      "channel": 5,
      "note": 86,
      "start": 28.479,
      "duration": 0.0161,
      "velocity": 87,
      "chip": "ym2612"
    },
    {
      "channel": 4,
      "note": 54,
      "start": 28.4825,
      "duration": 0.0161,
      "velocity": 100,
      "chip": "ym2612"
    },
    {
      "channel": 1,
      "note": 85,
      "start": 28.4837,
      "duration": 0.0161,
      "velocity": 87,
      "chip": "ym2612"
    },
    {
      "channel": 0,
      "note": 74,
      "start": 28.4932,
      "duration": 0.0186,
      "velocity": 127,
      "chip": "ym2612"
    },
    {
      "channel": 5,
      "note": 86,
      "start": 28.4951,
      "duration": 0.018,
      "velocity": 87,
      "chip": "ym2612"
    },
    {
      "channel": 4,
      "note": 54,
      "start": 28.4986,
      "duration": 0.0183,
      "velocity": 100,
      "chip": "ym2612"
    },
    {
      "channel": 1,
      "note": 85,
      "start": 28.4998,
      "duration": 0.0183,
      "velocity": 87,
      "chip": "ym2612"
    },
    {
      "channel": 0,
      "note": 84,
      "start": 28.5119,
      "duration": 0.0136,
      "velocity": 127,
      "chip": "ym2612"
    },
    {
      "channel": 5,
      "note": 86,
      "start": 28.5131,
      "duration": 0.0136,
      "velocity": 87,
      "chip": "ym2612"
    },
    {
      "channel": 2,
      "note": 71,
      "start": 28.5157,
      "duration": 0.014,
      "velocity": 96,
      "chip": "ym2612"
    },
    {
      "channel": 4,
      "note": 54,
      "start": 28.5169,
      "duration": 0.014,
      "velocity": 100,
      "chip": "ym2612"
    },
    {
      "channel": 1,
      "note": 85,
      "start": 28.5181,
      "duration": 0.0139,
      "velocity": 87,
      "chip": "ym2612"
    },
    {
      "channel": 0,
      "note": 82,
      "start": 28.5255,
      "duration": 0.0161,
      "velocity": 127,
      "chip": "ym2612"
    },
    {
      "channel": 5,
      "note": 86,
      "start": 28.5267,
      "duration": 0.0161,
      "velocity": 87,
      "chip": "ym2612"
    },
    {
      "channel": 2,
      "note": 71,
      "start": 28.5297,
      "duration": 0.016,
      "velocity": 96,
      "chip": "ym2612"
    },
    {
      "channel": 4,
      "note": 54,
      "start": 28.5309,
      "duration": 0.016,
      "velocity": 100,
      "chip": "ym2612"
    },
    {
      "channel": 1,
      "note": 85,
      "start": 28.5321,
      "duration": 0.016,
      "velocity": 87,
      "chip": "ym2612"
    },
    {
      "channel": 0,
      "note": 81,
      "start": 28.5416,
      "duration": 0.0161,
      "velocity": 127,
      "chip": "ym2612"
    },
    {
      "channel": 5,
      "note": 86,
      "start": 28.5428,
      "duration": 0.016,
      "velocity": 87,
      "chip": "ym2612"
    },
    {
      "channel": 2,
      "note": 71,
      "start": 28.5457,
      "duration": 0.016,
      "velocity": 96,
      "chip": "ym2612"
    },
    {
      "channel": 4,
      "note": 54,
      "start": 28.5469,
      "duration": 0.016,
      "velocity": 100,
      "chip": "ym2612"
    },
    {
      "channel": 1,
      "note": 85,
      "start": 28.5481,
      "duration": 0.016,
      "velocity": 87,
      "chip": "ym2612"
    },
    {
      "channel": 0,
      "note": 79,
      "start": 28.5576,
      "duration": 0.0161,
      "velocity": 127,
      "chip": "ym2612"
    },
    {
      "channel": 2,
      "note": 71,
      "start": 28.5617,
      "duration": 0.0164,
      "velocity": 96,
      "chip": "ym2612"
    },
    {
      "channel": 4,
      "note": 54,
      "start": 28.5629,
      "duration": 0.0163,
      "velocity": 100,
      "chip": "ym2612"
    },
    {
      "channel": 1,
      "note": 85,
      "start": 28.5641,
      "duration": 0.0163,
      "velocity": 87,
      "chip": "ym2612"
    },
    {
      "channel": 0,
      "note": 77,
      "start": 28.5737,
      "duration": 0.0161,
      "velocity": 127,
      "chip": "ym2612"
    },
    {
      "channel": 3,
      "note": 71,
      "start": 28.5763,
      "duration": 0.0162,
      "velocity": 96,
      "chip": "ym2612"
    },
    {
      "channel": 2,
      "note": 71,
      "start": 28.5781,
      "duration": 0.0158,
      "velocity": 96,
      "chip": "ym2612"
    },
    {
      "channel": 4,
      "note": 54,
      "start": 28.5793,
      "duration": 0.0162,
      "velocity": 100,
      "chip": "ym2612"
    },
    {
      "channel": 1,
      "note": 85,
      "start": 28.5805,
      "duration": 0.0162,
      "velocity": 87,
      "chip": "ym2612"
    },
    {
      "channel": 0,
      "note": 76,
      "start": 28.5898,
      "duration": 0.0161,
      "velocity": 127,
      "chip": "ym2612"
    },
    {
      "channel": 5,
      "note": 85,
      "start": 28.5913,
      "duration": 0.0159,
      "velocity": 87,
      "chip": "ym2612"
    },
    {
      "channel": 3,
      "note": 71,
      "start": 28.5926,
      "duration": 0.0158,
      "velocity": 96,
      "chip": "ym2612"
    },
    {
      "channel": 2,
      "note": 71,
      "start": 28.5939,
      "duration": 0.0156,
      "velocity": 96,
      "chip": "ym2612"
    },
    {
      "channel": 4,
      "note": 54,
      "start": 28.5954,
      "duration": 0.0158,
      "velocity": 100,
      "chip": "ym2612"
    },
    {
      "channel": 0,
      "note": 74,
      "start": 28.6059,
      "duration": 0.018,
      "velocity": 127,
      "chip": "ym2612"
    },
    {
      "channel": 5,
      "note": 85,
      "start": 28.6072,
      "duration": 0.0179,
      "velocity": 87,
      "chip": "ym2612"
    },
    {
      "channel": 3,
      "note": 71,
      "start": 28.6083,
      "duration": 0.0179,
      "velocity": 96,
      "chip": "ym2612"
    },
    {
      "channel": 4,
      "note": 54,
      "start": 28.6112,
      "duration": 0.0184,
      "velocity": 100,
      "chip": "ym2612"
    },
    {
      "channel": 0,
      "note": 78,
      "start": 28.6239,
      "duration": 0.0142,
      "velocity": 127,
      "chip": "ym2612"
    },
    {
      "channel": 5,
      "note": 85,
      "start": 28.6251,
      "duration": 0.0142,
      "velocity": 87,
      "chip": "ym2612"
    },
    {
      "channel": 3,
      "note": 71,
      "start": 28.6263,
      "duration": 0.0143,
      "velocity": 96,
      "chip": "ym2612"
    },
    {
      "channel": 4,
      "note": 59,
      "start": 28.6297,
      "duration": 0.0134,
      "velocity": 100,
      "chip": "ym2612"
    },
    {
      "channel": 1,
      "note": 86,
      "start": 28.6311,
      "duration": 0.0136,
      "velocity": 87,
      "chip": "ym2612"
    },
    {
      "channel": 0,
      "note": 76,
      "start": 28.6382,
      "duration": 0.016,
      "velocity": 127,
      "chip": "ym2612"
    },
    {
      "channel": 5,
      "note": 85,
      "start": 28.6394,
      "duration": 0.016,
      "velocity": 87,
      "chip": "ym2612"
    },
    {
      "channel": 3,
      "note": 71,
      "start": 28.6405,
      "duration": 0.016,
      "velocity": 96,
      "chip": "ym2612"
    },
    {
      "channel": 4,
      "note": 59,
      "start": 28.643,
      "duration": 0.016,
      "velocity": 100,
      "chip": "ym2612"
    },
    {
      "channel": 1,
      "note": 86,
      "start": 28.6447,
      "duration": 0.0156,
      "velocity": 87,
      "chip": "ym2612"
    },
    {
      "channel": 0,
      "note": 75,
      "start": 28.6542,
      "duration": 0.0161,
      "velocity": 127,
      "chip": "ym2612"
    },
    {
      "channel": 5,
      "note": 85,
      "start": 28.6554,
      "duration": 0.0161,
      "velocity": 87,
      "chip": "ym2612"
    },
    {
      "channel": 3,
      "note": 71,
      "start": 28.6566,
      "duration": 0.0161,
      "velocity": 96,
      "chip": "ym2612"
    },
    {
      "channel": 4,
      "note": 59,
      "start": 28.659,
      "duration": 0.0161,
      "velocity": 100,
      "chip": "ym2612"
    },
    {
      "channel": 1,
      "note": 86,
      "start": 28.6603,
      "duration": 0.016,
      "velocity": 87,
      "chip": "ym2612"
    },
    {
      "channel": 0,
      "note": 73,
      "start": 28.6704,
      "duration": 0.0161,
      "velocity": 127,
      "chip": "ym2612"
    },
    {
      "channel": 5,
      "note": 85,
      "start": 28.6715,
      "duration": 0.0161,
      "velocity": 87,
      "chip": "ym2612"
    },
    {
      "channel": 4,
      "note": 59,
      "start": 28.6751,
      "duration": 0.0162,
      "velocity": 100,
      "chip": "ym2612"
    },
    {
      "channel": 1,
      "note": 86,
      "start": 28.6763,
      "duration": 0.0162,
      "velocity": 87,
      "chip": "ym2612"
    },
    {
      "channel": 0,
      "note": 71,
      "start": 28.6865,
      "duration": 0.0161,
      "velocity": 127,
      "chip": "ym2612"
    },
    {
      "channel": 5,
      "note": 85,
      "start": 28.6876,
      "duration": 0.0161,
      "velocity": 87,
      "chip": "ym2612"
    },
    {
      "channel": 4,
      "note": 59,
      "start": 28.6912,
      "duration": 0.0161,
      "velocity": 100,
      "chip": "ym2612"
    },
    {
      "channel": 1,
      "note": 86,
      "start": 28.6924,
      "duration": 0.0161,
      "velocity": 87,
      "chip": "ym2612"
    },
    {
      "channel": 0,
      "note": 70,
      "start": 28.7026,
      "duration": 0.0161,
      "velocity": 127,
      "chip": "ym2612"
    },
    {
      "channel": 5,
      "note": 85,
      "start": 28.7038,
      "duration": 0.0161,
      "velocity": 87,
      "chip": "ym2612"
    },
    {
      "channel": 4,
      "note": 59,
      "start": 28.7073,
      "duration": 0.0161,
      "velocity": 100,
      "chip": "ym2612"
    },
    {
      "channel": 1,
      "note": 86,
      "start": 28.7085,
      "duration": 0.016,
      "velocity": 87,
      "chip": "ym2612"
    },
    {
      "channel": 0,
      "note": 68,
      "start": 28.7187,
      "duration": 0.0161,
      "velocity": 127,
      "chip": "ym2612"
    },
    {
      "channel": 5,
      "note": 85,
      "start": 28.7199,
      "duration": 0.0161,
      "velocity": 87,
      "chip": "ym2612"
    },
    {
      "channel": 4,
      "note": 59,
      "start": 28.7234,
      "duration": 0.0164,
      "velocity": 100,
      "chip": "ym2612"
    },
    {
      "channel": 1,
      "note": 86,
      "start": 28.7246,
      "duration": 0.0165,
      "velocity": 87,
      "chip": "ym2612"
    },
    {
      "channel": 0,
      "note": 66,
      "start": 28.7347,
      "duration": 0.0161,
      "velocity": 127,
      "chip": "ym2612"
    },
    {
      "channel": 5,
      "note": 85,
      "start": 28.736,
      "duration": 0.0161,
      "velocity": 87,
      "chip": "ym2612"
    },
    {
      "channel": 2,
      "note": 74,
      "start": 28.7386,
      "duration": 0.0158,
      "velocity": 96,
      "chip": "ym2612"
    },
    {
      "channel": 4,
      "note": 59,
      "start": 28.7398,
      "duration": 0.0158,
      "velocity": 100,
      "chip": "ym2612"
    },
    {
      "channel": 1,
      "note": 86,
      "start": 28.741,
      "duration": 0.0159,
      "velocity": 87,
      "chip": "ym2612"
    },
    {
      "channel": 0,
      "note": 65,
      "start": 28.7508,
      "duration": 0.0161,
      "velocity": 127,
      "chip": "ym2612"
    },
    {
      "channel": 5,
      "note": 85,
      "start": 28.752,
      "duration": 0.0162,
      "velocity": 87,
      "chip": "ym2612"
    },
    {
      "channel": 2,
      "note": 74,
      "start": 28.7545,
      "duration": 0.016,
      "velocity": 96,
      "chip": "ym2612"
    },
    {
      "channel": 4,
      "note": 59,
      "start": 28.7557,
      "duration": 0.016,
      "velocity": 100,
      "chip": "ym2612"
    },
    {
      "channel": 1,
      "note": 86,
      "start": 28.7569,
      "duration": 0.0161,
      "velocity": 87,
      "chip": "ym2612"
    },
    {
      "channel": 0,
      "note": 63,
      "start": 28.7669,
      "duration": 0.0161,
      "velocity": 127,
      "chip": "ym2612"
    },
    {
      "channel": 5,
      "note": 85,
      "start": 28.7682,
      "duration": 0.016,
      "velocity": 87,
      "chip": "ym2612"
    },
    {
      "channel": 2,
      "note": 74,
      "start": 28.7705,
      "duration": 0.0161,
      "velocity": 96,
      "chip": "ym2612"
    },
    {
      "channel": 4,
      "note": 59,
      "start": 28.7717,
      "duration": 0.016,
      "velocity": 100,
      "chip": "ym2612"
    },
    {
      "channel": 1,
      "note": 86,
      "start": 28.773,
      "duration": 0.016,
      "velocity": 87,
      "chip": "ym2612"
    },
    {
      "channel": 0,
      "note": 61,
      "start": 28.783,
      "duration": 0.0161,
      "velocity": 127,
      "chip": "ym2612"
    },
    {
      "channel": 2,
      "note": 74,
      "start": 28.7866,
      "duration": 0.0163,
      "velocity": 96,
      "chip": "ym2612"
    },
    {
      "channel": 4,
      "note": 59,
      "start": 28.7877,
      "duration": 0.0163,
      "velocity": 100,
      "chip": "ym2612"
    },
    {
      "channel": 1,
      "note": 86,
      "start": 28.789,
      "duration": 0.0164,
      "velocity": 87,
      "chip": "ym2612"
    },
    {
      "channel": 0,
      "note": 60,
      "start": 28.7991,
      "duration": 0.0161,
      "velocity": 127,
      "chip": "ym2612"
    },
    {
      "channel": 3,
      "note": 74,
      "start": 28.8018,
      "duration": 0.0162,
      "velocity": 96,
      "chip": "ym2612"
    },
    {
      "channel": 2,
      "note": 74,
      "start": 28.8029,
      "duration": 0.0161,
      "velocity": 96,
      "chip": "ym2612"
    },
    {
      "channel": 4,
      "note": 59,
      "start": 28.8041,
      "duration": 0.0162,
      "velocity": 100,
      "chip": "ym2612"
    },
    {
      "channel": 1,
      "note": 86,
      "start": 28.8054,
      "duration": 0.0161,
      "velocity": 87,
      "chip": "ym2612"
    },
    {
      "channel": 0,
      "note": 58,
      "start": 28.8152,
      "duration": 0.0162,
      "velocity": 127,
      "chip": "ym2612"
    },
    {
      "channel": 5,
      "note": 86,
      "start": 28.8168,
      "duration": 0.0158,
      "velocity": 87,
      "chip": "ym2612"
    },
    {
      "channel": 3,
      "note": 74,
      "start": 28.818,
      "duration": 0.0158,
      "velocity": 96,
      "chip": "ym2612"
    },
    {
      "channel": 2,
      "note": 74,
      "start": 28.8191,
      "duration": 0.0159,
      "velocity": 96,
      "chip": "ym2612"
    },
    {
      "channel": 4,
      "note": 59,
      "start": 28.8202,
      "duration": 0.0158,
      "velocity": 100,
      "chip": "ym2612"
    },
    {
      "channel": 0,
      "note": 56,
      "start": 28.8314,
      "duration": 0.0179,
      "velocity": 115,
      "chip": "ym2612"
    },
    {
      "channel": 5,
      "note": 86,
      "start": 28.8326,
      "duration": 0.0179,
      "velocity": 87,
      "chip": "ym2612"
    },
    {
      "channel": 3,
      "note": 74,
      "start": 28.8337,
      "duration": 0.0179,
      "velocity": 96,
      "chip": "ym2612"
    },
    {
      "channel": 4,
      "note": 59,
      "start": 28.8361,
      "duration": 0.0186,
      "velocity": 100,
      "chip": "ym2612"
    },
    {
      "channel": 0,
      "note": 36,
      "start": 28.8493,
      "duration": 0.0144,
      "velocity": 115,
      "chip": "ym2612"
    },
    {
      "channel": 5,
      "note": 86,
      "start": 28.8505,
      "duration": 0.0144,
      "velocity": 87,
      "chip": "ym2612"
    },
    {
      "channel": 3,
      "note": 74,
      "start": 28.8516,
      "duration": 0.0144,
      "velocity": 96,
      "chip": "ym2612"
    },
    {
      "channel": 2,
      "note": 76,
      "start": 28.8531,
      "duration": 0.0141,
      "velocity": 96,
      "chip": "ym2612"
    },
    {
      "channel": 4,
      "note": 52,
      "start": 28.8547,
      "duration": 0.0138,
      "velocity": 100,
      "chip": "ym2612"
    },
    {
      "channel": 1,
      "note": 83,
      "start": 28.8562,
      "duration": 0.0135,
      "velocity": 87,
      "chip": "ym2612"
    },
    {
      "channel": 0,
      "note": 36,
      "start": 28.8637,
      "duration": 0.016,
      "velocity": 115,
      "chip": "ym2612"
    },
    {
      "channel": 5,
      "note": 86,
      "start": 28.8648,
      "duration": 0.016,
      "velocity": 87,
      "chip": "ym2612"
    },
    {
      "channel": 3,
      "note": 74,
      "start": 28.8661,
      "duration": 0.016,
      "velocity": 96,
      "chip": "ym2612"
    },
    {
      "channel": 2,
      "note": 76,
      "start": 28.8673,
      "duration": 0.016,
      "velocity": 96,
      "chip": "ym2612"
    },
    {
      "channel": 4,
      "note": 52,
      "start": 28.8685,
      "duration": 0.0159,
      "velocity": 100,
      "chip": "ym2612"
    },
    {
      "channel": 1,
      "note": 83,
      "start": 28.8697,
      "duration": 0.0159,
      "velocity": 87,
      "chip": "ym2612"
    },
    {
      "channel": 0,
      "note": 37,
      "start": 28.8797,
      "duration": 0.0164,
      "velocity": 115,
      "chip": "ym2612"
    },
    {
      "channel": 5,
      "note": 86,
      "start": 28.8809,
      "duration": 0.0165,
      "velocity": 87,
      "chip": "ym2612"
    },
    {
      "channel": 3,
      "note": 74,
      "start": 28.8821,
      "duration": 0.0164,
      "velocity": 96,
      "chip": "ym2612"
    },
    {
      "channel": 2,
      "note": 76,
      "start": 28.8832,
      "duration": 0.0165,
      "velocity": 96,
      "chip": "ym2612"
    },
    {
      "channel": 4,
      "note": 52,
      "start": 28.8844,
      "duration": 0.0165,
      "velocity": 100,
      "chip": "ym2612"
    },
    {
      "channel": 1,
      "note": 83,
      "start": 28.8856,
      "duration": 0.0164,
      "velocity": 87,
      "chip": "ym2612"
    },
    {
      "channel": 0,
      "note": 37,
      "start": 28.8961,
      "duration": 0.0163,
      "velocity": 115,
      "chip": "ym2612"
    },
    {
      "channel": 5,
      "note": 86,
      "start": 28.8973,
      "duration": 0.0163,
      "velocity": 87,
      "chip": "ym2612"
    },
    {
      "channel": 2,
      "note": 76,
      "start": 28.8997,
      "duration": 0.0166,
      "velocity": 96,
      "chip": "ym2612"
    },
    {
      "channel": 4,
      "note": 52,
      "start": 28.9008,
      "duration": 0.0166,
      "velocity": 100,
      "chip": "ym2612"
    },
    {
      "channel": 1,
      "note": 83,
      "start": 28.902,
      "duration": 0.0167,
      "velocity": 87,
      "chip": "ym2612"
    },
    {
      "channel": 0,
      "note": 38,
      "start": 28.9125,
      "duration": 0.0161,
      "velocity": 115,
      "chip": "ym2612"
    },
    {
      "channel": 5,
      "note": 86,
      "start": 28.9136,
      "duration": 0.0162,
      "velocity": 87,
      "chip": "ym2612"
    },
    {
      "channel": 3,
      "note": 76,
      "start": 28.9151,
      "duration": 0.0159,
      "velocity": 96,
      "chip": "ym2612"
    },
    {
      "channel": 2,
      "note": 76,
      "start": 28.9163,
      "duration": 0.0159,
      "velocity": 96,
      "chip": "ym2612"
    },
    {
      "channel": 4,
      "note": 52,
      "start": 28.9174,
      "duration": 0.0159,
      "velocity": 100,
      "chip": "ym2612"
    },
    {
      "channel": 1,
      "note": 83,
      "start": 28.9187,
      "duration": 0.0159,
      "velocity": 87,
      "chip": "ym2612"
    },
    {
      "channel": 0,
      "note": 38,
      "start": 28.9286,
      "duration": 0.016,
      "velocity": 115,
      "chip": "ym2612"
    },
    {
      "channel": 5,
      "note": 86,
      "start": 28.9298,
      "duration": 0.0161,
      "velocity": 87,
      "chip": "ym2612"
    },
    {
      "channel": 3,
      "note": 76,
      "start": 28.9311,
      "duration": 0.016,
      "velocity": 96,
      "chip": "ym2612"
    },
    {
      "channel": 2,
      "note": 76,
      "start": 28.9322,
      "duration": 0.016,
      "velocity": 96,
      "chip": "ym2612"
    },
    {
      "channel": 4,
      "note": 52,
      "start": 28.9334,
      "duration": 0.016,
      "velocity": 100,
      "chip": "ym2612"
    },
    {
      "channel": 1,
      "note": 83,
      "start": 28.9346,
      "duration": 0.016,
      "velocity": 87,
      "chip": "ym2612"
    },
    {
      "channel": 0,
      "note": 39,
      "start": 28.9446,
      "duration": 0.0158,
      "velocity": 115,
      "chip": "ym2612"
    },
    {
      "channel": 5,
      "note": 86,
      "start": 28.9459,
      "duration": 0.016,
      "velocity": 87,
      "chip": "ym2612"
    },
    {
      "channel": 3,
      "note": 76,
      "start": 28.947,
      "duration": 0.0161,
      "velocity": 96,
      "chip": "ym2612"
    },
    {
      "channel": 4,
      "note": 52,
      "start": 28.9494,
      "duration": 0.0163,
      "velocity": 100,
      "chip": "ym2612"
    },
    {
      "channel": 1,
      "note": 83,
      "start": 28.9505,
      "duration": 0.0164,
      "velocity": 87,
      "chip": "ym2612"
    },
    {
      "channel": 0,
      "note": 39,
      "start": 28.9604,
      "duration": 0.0159,
      "velocity": 115,
      "chip": "ym2612"
    },
    {
      "channel": 5,
      "note": 86,
      "start": 28.9619,
      "duration": 0.0161,
      "velocity": 87,
      "chip": "ym2612"
    },
    {
      "channel": 3,
      "note": 76,
      "start": 28.9631,
      "duration": 0.0161,
      "velocity": 96,
      "chip": "ym2612"
    },
    {
      "channel": 2,
      "note": 68,
      "start": 28.9646,
      "duration": 0.0159,
      "velocity": 96,
      "chip": "ym2612"
    },
    {
      "channel": 4,
      "note": 52,
      "start": 28.9657,
      "duration": 0.0159,
      "velocity": 100,
      "chip": "ym2612"
    },
    {
      "channel": 1,
      "note": 83,
      "start": 28.9669,
      "duration": 0.0158,
      "velocity": 87,
      "chip": "ym2612"
    },
    {
      "channel": 0,
      "note": 40,
      "start": 28.9763,
      "duration": 0.0161,
      "velocity": 115,
      "chip": "ym2612"
    },
    {
      "channel": 5,
      "note": 86,
      "start": 28.978,
      "duration": 0.0158,
      "velocity": 87,
      "chip": "ym2612"
    },
    {
      "channel": 3,
      "note": 76,
      "start": 28.9793,
      "duration": 0.0161,
      "velocity": 96,
      "chip": "ym2612"
    },
    {
      "channel": 2,
      "note": 68,
      "start": 28.9805,
      "duration": 0.016,
      "velocity": 96,
      "chip": "ym2612"
    },
    {
      "channel": 4,
      "note": 52,
      "start": 28.9816,
      "duration": 0.016,
      "velocity": 100,
      "chip": "ym2612"
    },
    {
      "channel": 1,
      "note": 83,
      "start": 28.9828,
      "duration": 0.0161,
      "velocity": 87,
      "chip": "ym2612"
    },
    {
      "channel": 0,
      "note": 40,
      "start": 28.9924,
      "duration": 0.0161,
      "velocity": 115,
      "chip": "ym2612"
    },
    {
      "channel": 5,
      "note": 86,
      "start": 28.9938,
      "duration": 0.0158,
      "velocity": 87,
      "chip": "ym2612"
    },
    {
      "channel": 3,
      "note": 76,
      "start": 28.9954,
      "duration": 0.016,
      "velocity": 96,
      "chip": "ym2612"
    },
    {
      "channel": 2,
      "note": 68,
      "start": 28.9965,
      "duration": 0.0161,
      "velocity": 96,
      "chip": "ym2612"
    },
    {
      "channel": 4,
      "note": 52,
      "start": 28.9977,
      "duration": 0.0161,
      "velocity": 100,
      "chip": "ym2612"
    },
    {
      "channel": 1,
      "note": 83,
      "start": 28.9989,
      "duration": 0.016,
      "velocity": 87,
      "chip": "ym2612"
    },
    {
      "channel": 0,
      "note": 40,
      "start": 29.0085,
      "duration": 0.0161,
      "velocity": 115,
      "chip": "ym2612"
    },
    {
      "channel": 2,
      "note": 68,
      "start": 29.0126,
      "duration": 0.0163,
      "velocity": 96,
      "chip": "ym2612"
    },
    {
      "channel": 4,
      "note": 52,
      "start": 29.0138,
      "duration": 0.0163,
      "velocity": 100,
      "chip": "ym2612"
    },
    {
      "channel": 1,
      "note": 83,
      "start": 29.0149,
      "duration": 0.0163,
      "velocity": 87,
      "chip": "ym2612"
    },
    {
      "channel": 0,
      "note": 41,
      "start": 29.0246,
      "duration": 0.0161,
      "velocity": 115,
      "chip": "ym2612"
    },
    {
      "channel": 3,
      "note": 68,
      "start": 29.0278,
      "duration": 0.0159,
      "velocity": 96,
      "chip": "ym2612"
    },
    {
      "channel": 2,
      "note": 68,
      "start": 29.029,
      "duration": 0.0162,
      "velocity": 96,
      "chip": "ym2612"
    },
    {
      "channel": 4,
      "note": 52,
      "start": 29.0301,
      "duration": 0.0162,
      "velocity": 100,
      "chip": "ym2612"
    },
    {
      "channel": 1,
      "note": 83,
      "start": 29.0312,
      "duration": 0.0163,
      "velocity": 87,
      "chip": "ym2612"
    },
    {
      "channel": 0,
      "note": 41,
      "start": 29.0407,
      "duration": 0.0161,
      "velocity": 115,
      "chip": "ym2612"
    },
    {
      "channel": 5,
      "note": 83,
      "start": 29.0422,
      "duration": 0.0158,
      "velocity": 87,
      "chip": "ym2612"
    },
    {
      "channel": 3,
      "note": 68,
      "start": 29.0437,
      "duration": 0.0155,
      "velocity": 96,
      "chip": "ym2612"
    },
    {
      "channel": 2,
      "note": 68,
      "start": 29.0452,
      "duration": 0.0154,
      "velocity": 96,
      "chip": "ym2612"
    },
    {
      "channel": 4,
      "note": 52,
      "start": 29.0463,
      "duration": 0.0158,
      "velocity": 100,
      "chip": "ym2612"
    },
    {
      "channel": 1,
      "note": 83,
      "start": 29.0475,
      "duration": 0.0157,
      "velocity": 87,
      "chip": "ym2612"
    },
    {
      "channel": 0,
      "note": 42,
      "start": 29.0568,
      "duration": 0.0161,
      "velocity": 115,
      "chip": "ym2612"
    },
    {
      "channel": 5,
      "note": 83,
      "start": 29.058,
      "duration": 0.016,
      "velocity": 87,
      "chip": "ym2612"
    },
    {
      "channel": 3,
      "note": 68,
      "start": 29.0592,
      "duration": 0.016,
      "velocity": 96,
      "chip": "ym2612"
    },
    {
      "channel": 4,
      "note": 52,
      "start": 29.0621,
      "duration": 0.0163,
      "velocity": 100,
      "chip": "ym2612"
    },
    {
      "channel": 1,
      "note": 83,
      "start": 29.0632,
      "duration": 0.0163,
      "velocity": 87,
      "chip": "ym2612"
    },
    {
      "channel": 0,
      "note": 42,
      "start": 29.0729,
      "duration": 0.0161,
      "velocity": 115,
      "chip": "ym2612"
    },
    {
      "channel": 5,
      "note": 83,
      "start": 29.0741,
      "duration": 0.0161,
      "velocity": 87,
      "chip": "ym2612"
    },
    {
      "channel": 3,
      "note": 68,
      "start": 29.0752,
      "duration": 0.0161,
      "velocity": 96,
      "chip": "ym2612"
    },
    {
      "channel": 2,
      "note": 71,
      "start": 29.0767,
      "duration": 0.0159,
      "velocity": 96,
      "chip": "ym2612"
    },
    {
      "channel": 4,
      "note": 52,
      "start": 29.0784,
      "duration": 0.0155,
      "velocity": 100,
      "chip": "ym2612"
    },
    {
      "channel": 1,
      "note": 83,
      "start": 29.0796,
      "duration": 0.0159,
      "velocity": 87,
      "chip": "ym2612"
    },
    {
      "channel": 0,
      "note": 43,
      "start": 29.089,
      "duration": 0.0161,
      "velocity": 115,
      "chip": "ym2612"
    },
    {
      "channel": 5,
      "note": 83,
      "start": 29.0902,
      "duration": 0.0161,
      "velocity": 87,
      "chip": "ym2612"
    },
    {
      "channel": 3,
      "note": 68,
      "start": 29.0913,
      "duration": 0.0161,
      "velocity": 96,
      "chip": "ym2612"
    },
    {
      "channel": 2,
      "note": 71,
      "start": 29.0925,
      "duration": 0.016,
      "velocity": 96,
      "chip": "ym2612"
    },
    {
      "channel": 4,
      "note": 52,
      "start": 29.0939,
      "duration": 0.0158,
      "velocity": 100,
      "chip": "ym2612"
    },
    {
      "channel": 1,
      "note": 83,
      "start": 29.0954,
      "duration": 0.016,
      "velocity": 87,
      "chip": "ym2612"
    },
    {
      "channel": 0,
      "note": 43,
      "start": 29.1051,
      "duration": 0.0161,
      "velocity": 115,
      "chip": "ym2612"
    },
    {
      "channel": 5,
      "note": 83,
      "start": 29.1063,
      "duration": 0.0161,
      "velocity": 87,
      "chip": "ym2612"
    },
    {
      "channel": 3,
      "note": 68,
      "start": 29.1074,
      "duration": 0.0161,
      "velocity": 96,
      "chip": "ym2612"
    },
    {
      "channel": 2,
      "note": 71,
      "start": 29.1085,
      "duration": 0.0161,
      "velocity": 96,
      "chip": "ym2612"
    },
    {
      "channel": 4,
      "note": 52,
      "start": 29.1097,
      "duration": 0.0162,
      "velocity": 100,
      "chip": "ym2612"
    },
    {
      "channel": 1,
      "note": 83,
      "start": 29.1115,
      "duration": 0.0158,
      "velocity": 87,
      "chip": "ym2612"
    },
    {
      "channel": 0,
      "note": 44,
      "start": 29.1212,
      "duration": 0.0161,
      "velocity": 115,
      "chip": "ym2612"
    },
    {
      "channel": 5,
      "note": 83,
      "start": 29.1223,
      "duration": 0.0161,
      "velocity": 87,
      "chip": "ym2612"
    },
    {
      "channel": 2,
      "note": 71,
      "start": 29.1247,
      "duration": 0.0163,
      "velocity": 96,
      "chip": "ym2612"
    },
    {
      "channel": 4,
      "note": 52,
      "start": 29.1259,
      "duration": 0.0163,
      "velocity": 100,
      "chip": "ym2612"
    },
    {
      "channel": 1,
      "note": 83,
      "start": 29.1273,
      "duration": 0.0163,
      "velocity": 87,
      "chip": "ym2612"
    },
    {
      "channel": 0,
      "note": 44,
      "start": 29.1373,
      "duration": 0.0161,
      "velocity": 115,
      "chip": "ym2612"
    },
    {
      "channel": 5,
      "note": 83,
      "start": 29.1384,
      "duration": 0.0161,
      "velocity": 87,
      "chip": "ym2612"
    },
    {
      "channel": 3,
      "note": 71,
      "start": 29.1399,
      "duration": 0.0158,
      "velocity": 96,
      "chip": "ym2612"
    },
    {
      "channel": 2,
      "note": 71,
      "start": 29.141,
      "duration": 0.0159,
      "velocity": 96,
      "chip": "ym2612"
    },
    {
      "channel": 4,
      "note": 52,
      "start": 29.1422,
      "duration": 0.0159,
      "velocity": 100,
      "chip": "ym2612"
    },
    {
      "channel": 1,
      "note": 83,
      "start": 29.1437,
      "duration": 0.0156,
      "velocity": 87,
      "chip": "ym2612"
    },
    {
      "channel": 0,
      "note": 44,
      "start": 29.1534,
      "duration": 0.0161,
      "velocity": 115,
      "chip": "ym2612"
    },
    {
      "channel": 5,
      "note": 83,
      "start": 29.1545,
      "duration": 0.0161,
      "velocity": 87,
      "chip": "ym2612"
    },
    {
      "channel": 3,
      "note": 71,
      "start": 29.1557,
      "duration": 0.0161,
      "velocity": 96,
      "chip": "ym2612"
    },
    {
      "channel": 2,
      "note": 71,
      "start": 29.157,
      "duration": 0.016,
      "velocity": 96,
      "chip": "ym2612"
    },
    {
      "channel": 4,
      "note": 52,
      "start": 29.1581,
      "duration": 0.0161,
      "velocity": 100,
      "chip": "ym2612"
    },
    {
      "channel": 0,
      "note": 45,
      "start": 29.1695,
      "duration": 0.0179,
      "velocity": 115,
      "chip": "ym2612"
    },
    {
      "channel": 5,
      "note": 83,
      "start": 29.1707,
      "duration": 0.018,
      "velocity": 87,
      "chip": "ym2612"
    },
    {
      "channel": 3,
      "note": 71,
      "start": 29.1718,
      "duration": 0.0179,
      "velocity": 96,
      "chip": "ym2612"
    },
    {
      "channel": 4,
      "note": 52,
      "start": 29.1742,
      "duration": 0.0184,
      "velocity": 100,
      "chip": "ym2612"
    },
    {
      "channel": 0,
      "note": 36,
      "start": 29.1874,
      "duration": 0.0143,
      "velocity": 115,
      "chip": "ym2612"
    },
    {
      "channel": 5,
      "note": 83,
      "start": 29.1886,
      "duration": 0.0143,
      "velocity": 87,
      "chip": "ym2612"
    },
    {
      "channel": 3,
      "note": 71,
      "start": 29.1898,
      "duration": 0.0143,
      "velocity": 96,
      "chip": "ym2612"
    },
    {
      "channel": 2,
      "note": 76,
      "start": 29.1912,
      "duration": 0.0141,
      "velocity": 96,
      "chip": "ym2612"
    },
    {
      "channel": 4,
      "note": 59,
      "start": 29.1927,
      "duration": 0.0138,
      "velocity": 100,
      "chip": "ym2612"
    },
    {
      "channel": 1,
      "note": 85,
      "start": 29.1947,
      "duration": 0.0131,
      "velocity": 87,
      "chip": "ym2612"
    },
    {
      "channel": 0,
      "note": 36,
      "start": 29.2017,
      "duration": 0.016,
      "velocity": 115,
      "chip": "ym2612"
    },
    {
      "channel": 5,
      "note": 83,
      "start": 29.2029,
      "duration": 0.016,
      "velocity": 87,
      "chip": "ym2612"
    },
    {
      "channel": 3,
      "note": 71,
      "start": 29.2041,
      "duration": 0.016,
      "velocity": 96,
      "chip": "ym2612"
    },
    {
      "channel": 2,
      "note": 76,
      "start": 29.2053,
      "duration": 0.016,
      "velocity": 96,
      "chip": "ym2612"
    },
    {
      "channel": 4,
      "note": 59,
      "start": 29.2065,
      "duration": 0.0159,
      "velocity": 100,
      "chip": "ym2612"
    },
    {
      "channel": 1,
      "note": 85,
      "start": 29.2078,
      "duration": 0.0159,
      "velocity": 87,
      "chip": "ym2612"
    },
    {
      "channel": 0,
      "note": 37,
      "start": 29.2178,
      "duration": 0.0161,
      "velocity": 115,
      "chip": "ym2612"
    },
    {
      "channel": 5,
      "note": 83,
      "start": 29.219,
      "duration": 0.0161,
      "velocity": 87,
      "chip": "ym2612"
    },
    {
      "channel": 3,
      "note": 71,
      "start": 29.2201,
      "duration": 0.0161,
      "velocity": 96,
      "chip": "ym2612"
    },
    {
      "channel": 2,
      "note": 76,
      "start": 29.2213,
      "duration": 0.0161,
      "velocity": 96,
      "chip": "ym2612"
    },
    {
      "channel": 4,
      "note": 59,
      "start": 29.2224,
      "duration": 0.0162,
      "velocity": 100,
      "chip": "ym2612"
    },
    {
      "channel": 1,
      "note": 85,
      "start": 29.2236,
      "duration": 0.0161,
      "velocity": 87,
      "chip": "ym2612"
    },
    {
      "channel": 0,
      "note": 37,
      "start": 29.2339,
      "duration": 0.0161,
      "velocity": 115,
      "chip": "ym2612"
    },
    {
      "channel": 5,
      "note": 83,
      "start": 29.2351,
      "duration": 0.0161,
      "velocity": 87,
      "chip": "ym2612"
    },
    {
      "channel": 2,
      "note": 76,
      "start": 29.2374,
      "duration": 0.0163,
      "velocity": 96,
      "chip": "ym2612"
    },
    {
      "channel": 4,
      "note": 59,
      "start": 29.2386,
      "duration": 0.0163,
      "velocity": 100,
      "chip": "ym2612"
    },
    {
      "channel": 1,
      "note": 85,
      "start": 29.2397,
      "duration": 0.0164,
      "velocity": 87,
      "chip": "ym2612"
    },
    {
      "channel": 0,
      "note": 38,
      "start": 29.25,
      "duration": 0.0161,
      "velocity": 115,
      "chip": "ym2612"
    },
    {
      "channel": 5,
      "note": 83,
      "start": 29.2512,
      "duration": 0.0161,
      "velocity": 87,
      "chip": "ym2612"
    },
    {
      "channel": 3,
      "note": 76,
      "start": 29.2526,
      "duration": 0.0159,
      "velocity": 96,
      "chip": "ym2612"
    },
    {
      "channel": 2,
      "note": 76,
      "start": 29.2538,
      "duration": 0.0159,
      "velocity": 96,
      "chip": "ym2612"
    },
    {
      "channel": 4,
      "note": 59,
      "start": 29.2549,
      "duration": 0.0159,
      "velocity": 100,
      "chip": "ym2612"
    },
    {
      "channel": 1,
      "note": 85,
      "start": 29.2561,
      "duration": 0.0159,
      "velocity": 87,
      "chip": "ym2612"
    },
    {
      "channel": 0,
      "note": 38,
      "start": 29.2661,
      "duration": 0.0161,
      "velocity": 115,
      "chip": "ym2612"
    },
    {
      "channel": 5,
      "note": 83,
      "start": 29.2673,
      "duration": 0.0161,
      "velocity": 87,
      "chip": "ym2612"
    },
    {
      "channel": 3,
      "note": 76,
      "start": 29.2685,
      "duration": 0.016,
      "velocity": 96,
      "chip": "ym2612"
    },
    {
      "channel": 2,
      "note": 76,
      "start": 29.2697,
      "duration": 0.016,
      "velocity": 96,
      "chip": "ym2612"
    },
    {
      "channel": 4,
      "note": 59,
      "start": 29.2708,
      "duration": 0.016,
      "velocity": 100,
      "chip": "ym2612"
    },
    {
      "channel": 1,
      "note": 85,
      "start": 29.272,
      "duration": 0.0161,
      "velocity": 87,
      "chip": "ym2612"
    },
    {
      "channel": 0,
      "note": 39,
      "start": 29.2822,
      "duration": 0.0179,
      "velocity": 115,
      "chip": "ym2612"
    },
    {
      "channel": 5,
      "note": 83,
      "start": 29.2834,
      "duration": 0.018,
      "velocity": 87,
      "chip": "ym2612"
    },
    {
      "channel": 3,
      "note": 76,
      "start": 29.2846,
      "duration": 0.0179,
      "velocity": 96,
      "chip": "ym2612"
    },
    {
      "channel": 4,
      "note": 59,
      "start": 29.2868,
      "duration": 0.0184,
      "velocity": 100,
      "chip": "ym2612"
    },
    {
      "channel": 1,
      "note": 85,
      "start": 29.288,
      "duration": 0.0184,
      "velocity": 87,
      "chip": "ym2612"
    },
    {
      "channel": 0,
      "note": 36,
      "start": 29.3001,
      "duration": 0.0143,
      "velocity": 115,
      "chip": "ym2612"
    },
    {
      "channel": 5,
      "note": 83,
      "start": 29.3014,
      "duration": 0.0144,
      "velocity": 87,
      "chip": "ym2612"
    },
    {
      "channel": 3,
      "note": 76,
      "start": 29.3025,
      "duration": 0.0144,
      "velocity": 96,
      "chip": "ym2612"
    },
    {
      "channel": 4,
      "note": 59,
      "start": 29.3053,
      "duration": 0.0141,
      "velocity": 100,
      "chip": "ym2612"
    },
    {
      "channel": 1,
      "note": 85,
      "start": 29.3064,
      "duration": 0.0141,
      "velocity": 87,
      "chip": "ym2612"
    },
    {
      "channel": 0,
      "note": 36,
      "start": 29.3145,
      "duration": 0.016,
      "velocity": 115,
      "chip": "ym2612"
    },
    {
      "channel": 5,
      "note": 83,
      "start": 29.3157,
      "duration": 0.016,
      "velocity": 87,
      "chip": "ym2612"
    },
    {
      "channel": 3,
      "note": 76,
      "start": 29.3169,
      "duration": 0.016,
      "velocity": 96,
      "chip": "ym2612"
    },
    {
      "channel": 4,
      "note": 59,
      "start": 29.3194,
      "duration": 0.016,
      "velocity": 100,
      "chip": "ym2612"
    },
    {
      "channel": 1,
      "note": 85,
      "start": 29.3205,
      "duration": 0.016,
      "velocity": 87,
      "chip": "ym2612"
    },
    {
      "channel": 0,
      "note": 37,
      "start": 29.3305,
      "duration": 0.0162,
      "velocity": 115,
      "chip": "ym2612"
    },
    {
      "channel": 5,
      "note": 83,
      "start": 29.3318,
      "duration": 0.0161,
      "velocity": 87,
      "chip": "ym2612"
    },
    {
      "channel": 3,
      "note": 76,
      "start": 29.3329,
      "duration": 0.0162,
      "velocity": 96,
      "chip": "ym2612"
    },
    {
      "channel": 4,
      "note": 59,
      "start": 29.3353,
      "duration": 0.0161,
      "velocity": 100,
      "chip": "ym2612"
    },
    {
      "channel": 1,
      "note": 85,
      "start": 29.3365,
      "duration": 0.0162,
      "velocity": 87,
      "chip": "ym2612"
    },
    {
      "channel": 0,
      "note": 37,
      "start": 29.3466,
      "duration": 0.0164,
      "velocity": 115,
      "chip": "ym2612"
    },
    {
      "channel": 4,
      "note": 59,
      "start": 29.3515,
      "duration": 0.0165,
      "velocity": 100,
      "chip": "ym2612"
    },
    {
      "channel": 1,
      "note": 85,
      "start": 29.3527,
      "duration": 0.0165,
      "velocity": 87,
      "chip": "ym2612"
    },
    {
      "channel": 0,
      "note": 38,
      "start": 29.3631,
      "duration": 0.0163,
      "velocity": 115,
      "chip": "ym2612"
    },
    {
      "channel": 4,
      "note": 59,
      "start": 29.368,
      "duration": 0.0164,
      "velocity": 100,
      "chip": "ym2612"
    },
    {
      "channel": 1,
      "note": 85,
      "start": 29.3692,
      "duration": 0.0164,
      "velocity": 87,
      "chip": "ym2612"
    },
    {
      "channel": 0,
      "note": 38,
      "start": 29.3793,
      "duration": 0.0162,
      "velocity": 115,
      "chip": "ym2612"
    },
    {
      "channel": 5,
      "note": 85,
      "start": 29.3808,
      "duration": 0.0159,
      "velocity": 87,
      "chip": "ym2612"
    },
    {
      "channel": 4,
      "note": 59,
      "start": 29.3844,
      "duration": 0.016,
      "velocity": 100,
      "chip": "ym2612"
    },
    {
      "channel": 1,
      "note": 85,
      "start": 29.3856,
      "duration": 0.0159,
      "velocity": 87,
      "chip": "ym2612"
    },
    {
      "channel": 0,
      "note": 39,
      "start": 29.3955,
      "duration": 0.016,
      "velocity": 115,
      "chip": "ym2612"
    },
    {
      "channel": 5,
      "note": 85,
      "start": 29.3967,
      "duration": 0.016,
      "velocity": 87,
      "chip": "ym2612"
    },
    {
      "channel": 4,
      "note": 59,
      "start": 29.4003,
      "duration": 0.0162,
      "velocity": 100,
      "chip": "ym2612"
    },
    {
      "channel": 1,
      "note": 85,
      "start": 29.4015,
      "duration": 0.0162,
      "velocity": 87,
      "chip": "ym2612"
    },
    {
      "channel": 0,
      "note": 39,
      "start": 29.4115,
      "duration": 0.0161,
      "velocity": 115,
      "chip": "ym2612"
    },
    {
      "channel": 5,
      "note": 85,
      "start": 29.4127,
      "duration": 0.0161,
      "velocity": 87,
      "chip": "ym2612"
    },
    {
      "channel": 2,
      "note": 68,
      "start": 29.4154,
      "duration": 0.0158,
      "velocity": 96,
      "chip": "ym2612"
    },
    {
      "channel": 4,
      "note": 59,
      "start": 29.4166,
      "duration": 0.0159,
      "velocity": 100,
      "chip": "ym2612"
    },
    {
      "channel": 1,
      "note": 85,
      "start": 29.4177,
      "duration": 0.0158,
      "velocity": 87,
      "chip": "ym2612"
    },
    {
      "channel": 0,
      "note": 40,
      "start": 29.4276,
      "duration": 0.0156,
      "velocity": 115,
      "chip": "ym2612"
    },
    {
      "channel": 5,
      "note": 85,
      "start": 29.4288,
      "duration": 0.016,
      "velocity": 87,
      "chip": "ym2612"
    },
    {
      "channel": 2,
      "note": 68,
      "start": 29.4312,
      "duration": 0.016,
      "velocity": 96,
      "chip": "ym2612"
    },
    {
      "channel": 4,
      "note": 59,
      "start": 29.4324,
      "duration": 0.016,
      "velocity": 100,
      "chip": "ym2612"
    },
    {
      "channel": 1,
      "note": 85,
      "start": 29.4335,
      "duration": 0.016,
      "velocity": 87,
      "chip": "ym2612"
    },
    {
      "channel": 0,
      "note": 40,
      "start": 29.4432,
      "duration": 0.0161,
      "velocity": 115,
      "chip": "ym2612"
    },
    {
      "channel": 5,
      "note": 85,
      "start": 29.4449,
      "duration": 0.0162,
      "velocity": 87,
      "chip": "ym2612"
    },
    {
      "channel": 2,
      "note": 68,
      "start": 29.4473,
      "duration": 0.0161,
      "velocity": 96,
      "chip": "ym2612"
    },
    {
      "channel": 4,
      "note": 59,
      "start": 29.4484,
      "duration": 0.0161,
      "velocity": 100,
      "chip": "ym2612"
    },
    {
      "channel": 1,
      "note": 85,
      "start": 29.4496,
      "duration": 0.0162,
      "velocity": 87,
      "chip": "ym2612"
    },
    {
      "channel": 0,
      "note": 40,
      "start": 29.4593,
      "duration": 0.0161,
      "velocity": 115,
      "chip": "ym2612"
    },
    {
      "channel": 5,
      "note": 85,
      "start": 29.461,
      "duration": 0.0156,
      "velocity": 87,
      "chip": "ym2612"
    },
    {
      "channel": 2,
      "note": 68,
      "start": 29.4634,
      "duration": 0.0164,
      "velocity": 96,
      "chip": "ym2612"
    },
    {
      "channel": 4,
      "note": 59,
      "start": 29.4645,
      "duration": 0.0164,
      "velocity": 100,
      "chip": "ym2612"
    },
    {
      "channel": 1,
      "note": 85,
      "start": 29.4658,
      "duration": 0.0164,
      "velocity": 87,
      "chip": "ym2612"
    },
    {
      "channel": 0,
      "note": 41,
      "start": 29.4754,
      "duration": 0.0161,
      "velocity": 115,
      "chip": "ym2612"
    },
    {
      "channel": 5,
      "note": 85,
      "start": 29.4766,
      "duration": 0.0161,
      "velocity": 87,
      "chip": "ym2612"
    },
    {
      "channel": 3,
      "note": 68,
      "start": 29.4786,
      "duration": 0.0158,
      "velocity": 96,
      "chip": "ym2612"
    },
    {
      "channel": 2,
      "note": 68,
      "start": 29.4798,
      "duration": 0.0158,
      "velocity": 96,
      "chip": "ym2612"
    },
    {
      "channel": 4,
      "note": 59,
      "start": 29.4809,
      "duration": 0.0159,
      "velocity": 100,
      "chip": "ym2612"
    },
    {
      "channel": 1,
      "note": 85,
      "start": 29.4822,
      "duration": 0.0159,
      "velocity": 87,
      "chip": "ym2612"
    },
    {
      "channel": 0,
      "note": 41,
      "start": 29.4915,
      "duration": 0.0161,
      "velocity": 115,
      "chip": "ym2612"
    },
    {
      "channel": 5,
      "note": 85,
      "start": 29.4927,
      "duration": 0.0161,
      "velocity": 87,
      "chip": "ym2612"
    },
    {
      "channel": 3,
      "note": 68,
      "start": 29.4944,
      "duration": 0.0155,
      "velocity": 96,
      "chip": "ym2612"
    },
    {
      "channel": 2,
      "note": 68,
      "start": 29.4956,
      "duration": 0.0161,
      "velocity": 96,
      "chip": "ym2612"
    },
    {
      "channel": 4,
      "note": 59,
      "start": 29.4968,
      "duration": 0.0161,
      "velocity": 100,
      "chip": "ym2612"
    },
    {
      "channel": 0,
      "note": 42,
      "start": 29.5076,
      "duration": 0.0179,
      "velocity": 124,
      "chip": "ym2612"
    },
    {
      "channel": 5,
      "note": 85,
      "start": 29.5088,
      "duration": 0.0179,
      "velocity": 87,
      "chip": "ym2612"
    },
    {
      "channel": 3,
      "note": 68,
      "start": 29.5099,
      "duration": 0.0186,
      "velocity": 96,
      "chip": "ym2612"
    },
    {
      "channel": 4,
      "note": 59,
      "start": 29.5129,
      "duration": 0.0181,
      "velocity": 100,
      "chip": "ym2612"
    },
    {
      "channel": 0,
      "note": 84,
      "start": 29.5256,
      "duration": 0.0143,
      "velocity": 124,
      "chip": "ym2612"
    },
    {
      "channel": 5,
      "note": 85,
      "start": 29.5267,
      "duration": 0.0143,
      "velocity": 87,
      "chip": "ym2612"
    },
    {
      "channel": 3,
      "note": 68,
      "start": 29.5285,
      "duration": 0.0137,
      "velocity": 96,
      "chip": "ym2612"
    },
    {
      "channel": 4,
      "note": 59,
      "start": 29.5309,
      "duration": 0.0143,
      "velocity": 100,
      "chip": "ym2612"
    },
    {
      "channel": 1,
      "note": 86,
      "start": 29.5324,
      "duration": 0.0139,
      "velocity": 87,
      "chip": "ym2612"
    },
    {
      "channel": 0,
      "note": 82,
      "start": 29.5398,
      "duration": 0.0161,
      "velocity": 124,
      "chip": "ym2612"
    },
    {
      "channel": 5,
      "note": 85,
      "start": 29.541,
      "duration": 0.016,
      "velocity": 87,
      "chip": "ym2612"
    },
    {
      "channel": 3,
      "note": 68,
      "start": 29.5422,
      "duration": 0.0161,
      "velocity": 96,
      "chip": "ym2612"
    },
    {
      "channel": 4,
      "note": 59,
      "start": 29.5452,
      "duration": 0.016,
      "velocity": 100,
      "chip": "ym2612"
    },
    {
      "channel": 1,
      "note": 86,
      "start": 29.5464,
      "duration": 0.016,
      "velocity": 87,
      "chip": "ym2612"
    },
    {
      "channel": 0,
      "note": 80,
      "start": 29.5559,
      "duration": 0.0161,
      "velocity": 124,
      "chip": "ym2612"
    },
    {
      "channel": 5,
      "note": 85,
      "start": 29.5571,
      "duration": 0.0161,
      "velocity": 87,
      "chip": "ym2612"
    },
    {
      "channel": 3,
      "note": 68,
      "start": 29.5583,
      "duration": 0.0161,
      "velocity": 96,
      "chip": "ym2612"
    },
    {
      "channel": 4,
      "note": 59,
      "start": 29.5612,
      "duration": 0.0158,
      "velocity": 100,
      "chip": "ym2612"
    },
    {
      "channel": 1,
      "note": 86,
      "start": 29.5624,
      "duration": 0.0161,
      "velocity": 87,
      "chip": "ym2612"
    },
    {
      "channel": 0,
      "note": 77,
      "start": 29.572,
      "duration": 0.0161,
      "velocity": 124,
      "chip": "ym2612"
    },
    {
      "channel": 5,
      "note": 85,
      "start": 29.5732,
      "duration": 0.0161,
      "velocity": 87,
      "chip": "ym2612"
    },
    {
      "channel": 4,
      "note": 59,
      "start": 29.577,
      "duration": 0.0159,
      "velocity": 100,
      "chip": "ym2612"
    },
    {
      "channel": 1,
      "note": 86,
      "start": 29.5785,
      "duration": 0.0161,
      "velocity": 87,
      "chip": "ym2612"
    },
    {
      "channel": 0,
      "note": 75,
      "start": 29.5881,
      "duration": 0.0161,
      "velocity": 124,
      "chip": "ym2612"
    },
    {
      "channel": 5,
      "note": 85,
      "start": 29.5893,
      "duration": 0.0161,
      "velocity": 87,
      "chip": "ym2612"
    },
    {
      "channel": 4,
      "note": 59,
      "start": 29.5929,
      "duration": 0.016,
      "velocity": 100,
      "chip": "ym2612"
    },
    {
      "channel": 1,
      "note": 86,
      "start": 29.5946,
      "duration": 0.0157,
      "velocity": 87,
      "chip": "ym2612"
    },
    {
      "channel": 0,
      "note": 72,
      "start": 29.6042,
      "duration": 0.0161,
      "velocity": 124,
      "chip": "ym2612"
    },
    {
      "channel": 5,
      "note": 85,
      "start": 29.6054,
      "duration": 0.0161,
      "velocity": 87,
      "chip": "ym2612"
    },
    {
      "channel": 4,
      "note": 59,
      "start": 29.6089,
      "duration": 0.0162,
      "velocity": 100,
      "chip": "ym2612"
    },
    {
      "channel": 1,
      "note": 86,
      "start": 29.6103,
      "duration": 0.016,
      "velocity": 87,
      "chip": "ym2612"
    },
    {
      "channel": 0,
      "note": 70,
      "start": 29.6203,
      "duration": 0.0161,
      "velocity": 124,
      "chip": "ym2612"
    },
    {
      "channel": 5,
      "note": 85,
      "start": 29.6215,
      "duration": 0.0161,
      "velocity": 87,
      "chip": "ym2612"
    },
    {
      "channel": 4,
      "note": 59,
      "start": 29.6251,
      "duration": 0.0165,
      "velocity": 100,
      "chip": "ym2612"
    },
    {
      "channel": 1,
      "note": 86,
      "start": 29.6263,
      "duration": 0.0166,
      "velocity": 87,
      "chip": "ym2612"
    },
    {
      "channel": 0,
      "note": 68,
      "start": 29.6364,
      "duration": 0.0161,
      "velocity": 124,
      "chip": "ym2612"
    },
    {
      "channel": 5,
      "note": 85,
      "start": 29.6376,
      "duration": 0.0161,
      "velocity": 87,
      "chip": "ym2612"
    },
    {
      "channel": 2,
      "note": 71,
      "start": 29.6402,
      "duration": 0.016,
      "velocity": 96,
      "chip": "ym2612"
    },
    {
      "channel": 4,
      "note": 52,
      "start": 29.6417,
      "duration": 0.0157,
      "velocity": 100,
      "chip": "ym2612"
    },
    {
      "channel": 1,
      "note": 86,
      "start": 29.6428,
      "duration": 0.0158,
      "velocity": 87,
      "chip": "ym2612"
    },
    {
      "channel": 0,
      "note": 65,
      "start": 29.6525,
      "duration": 0.0161,
      "velocity": 124,
      "chip": "ym2612"
    },
    {
      "channel": 5,
      "note": 85,
      "start": 29.6538,
      "duration": 0.0161,
      "velocity": 87,
      "chip": "ym2612"
    },
    {
      "channel": 2,
      "note": 71,
      "start": 29.6562,
      "duration": 0.016,
      "velocity": 96,
      "chip": "ym2612"
    },
    {
      "channel": 4,
      "note": 52,
      "start": 29.6574,
      "duration": 0.0159,
      "velocity": 100,
      "chip": "ym2612"
    },
    {
      "channel": 1,
      "note": 86,
      "start": 29.6586,
      "duration": 0.0159,
      "velocity": 87,
      "chip": "ym2612"
    },
    {
      "channel": 0,
      "note": 63,
      "start": 29.6686,
      "duration": 0.0153,
      "velocity": 1,
      "chip": "ym2612"
    },
    {
      "channel": 5,
      "note": 85,
      "start": 29.6699,
      "duration": 0.0153,
      "velocity": 87,
      "chip": "ym2612"
    },
    {
      "channel": 2,
      "note": 71,
      "start": 29.6722,
      "duration": 0.0153,
      "velocity": 96,
      "chip": "ym2612"
    },
    {
      "channel": 4,
      "note": 52,
      "start": 29.6733,
      "duration": 0.0154,
      "velocity": 100,
      "chip": "ym2612"
    },
    {
      "channel": 1,
      "note": 86,
      "start": 29.6745,
      "duration": 0.0153,
      "velocity": 87,
      "chip": "ym2612"
    },
    {
      "channel": 2,
      "note": 71,
      "start": 29.6875,
      "duration": 0.0155,
      "velocity": 96,
      "chip": "ym2612"
    },
    {
      "channel": 4,
      "note": 52,
      "start": 29.6886,
      "duration": 0.0155,
      "velocity": 100,
      "chip": "ym2612"
    },
    {
      "channel": 1,
      "note": 86,
      "start": 29.6898,
      "duration": 0.0155,
      "velocity": 87,
      "chip": "ym2612"
    },
    {
      "channel": 3,
      "note": 71,
      "start": 29.7019,
      "duration": 0.0161,
      "velocity": 96,
      "chip": "ym2612"
    },
    {
      "channel": 2,
      "note": 71,
      "start": 29.703,
      "duration": 0.0161,
      "velocity": 96,
      "chip": "ym2612"
    },
    {
      "channel": 4,
      "note": 52,
      "start": 29.7041,
      "duration": 0.0161,
      "velocity": 100,
      "chip": "ym2612"
    },
    {
      "channel": 1,
      "note": 86,
      "start": 29.7053,
      "duration": 0.0161,
      "velocity": 87,
      "chip": "ym2612"
    },
    {
      "channel": 5,
      "note": 86,
      "start": 29.7167,
      "duration": 0.0159,
      "velocity": 87,
      "chip": "ym2612"
    },
    {
      "channel": 3,
      "note": 71,
      "start": 29.718,
      "duration": 0.0158,
      "velocity": 96,
      "chip": "ym2612"
    },
    {
      "channel": 2,
      "note": 71,
      "start": 29.7191,
      "duration": 0.0158,
      "velocity": 96,
      "chip": "ym2612"
    },
    {
      "channel": 4,
      "note": 52,
      "start": 29.7202,
      "duration": 0.0158,
      "velocity": 100,
      "chip": "ym2612"
    },
    {
      "channel": 1,
      "note": 86,
      "start": 29.7215,
      "duration": 0.0158,
      "velocity": 87,
      "chip": "ym2612"
    },
    {
      "channel": 5,
      "note": 86,
      "start": 29.7326,
      "duration": 0.0196,
      "velocity": 87,
      "chip": "ym2612"
    },
    {
      "channel": 3,
      "note": 71,
      "start": 29.7337,
      "duration": 0.0196,
      "velocity": 96,
      "chip": "ym2612"
    },
    {
      "channel": 4,
      "note": 52,
      "start": 29.7361,
      "duration": 0.0202,
      "velocity": 100,
      "chip": "ym2612"
    },
    {
      "channel": 1,
      "note": 86,
      "start": 29.7372,
      "duration": 0.0202,
      "velocity": 87,
      "chip": "ym2612"
    },
    {
      "channel": 0,
      "note": 36,
      "start": 29.751,
      "duration": 0.0143,
      "velocity": 115,
      "chip": "ym2612"
    },
    {
      "channel": 5,
      "note": 86,
      "start": 29.7522,
      "duration": 0.0143,
      "velocity": 87,
      "chip": "ym2612"
    },
    {
      "channel": 3,
      "note": 71,
      "start": 29.7533,
      "duration": 0.0143,
      "velocity": 96,
      "chip": "ym2612"
    },
    {
      "channel": 2,
      "note": 76,
      "start": 29.7549,
      "duration": 0.014,
      "velocity": 96,
      "chip": "ym2612"
    },
    {
      "channel": 4,
      "note": 52,
      "start": 29.7563,
      "duration": 0.0137,
      "velocity": 100,
      "chip": "ym2612"
    },
    {
      "channel": 1,
      "note": 86,
      "start": 29.7575,
      "duration": 0.0138,
      "velocity": 87,
      "chip": "ym2612"
    },
    {
      "channel": 0,
      "note": 36,
      "start": 29.7653,
      "duration": 0.016,
      "velocity": 115,
      "chip": "ym2612"
    },
    {
      "channel": 5,
      "note": 86,
      "start": 29.7664,
      "duration": 0.0161,
      "velocity": 87,
      "chip": "ym2612"
    },
    {
      "channel": 3,
      "note": 71,
      "start": 29.7676,
      "duration": 0.016,
      "velocity": 96,
      "chip": "ym2612"
    },
    {
      "channel": 2,
      "note": 76,
      "start": 29.7688,
      "duration": 0.016,
      "velocity": 96,
      "chip": "ym2612"
    },
    {
      "channel": 4,
      "note": 52,
      "start": 29.77,
      "duration": 0.0159,
      "velocity": 100,
      "chip": "ym2612"
    },
    {
      "channel": 1,
      "note": 86,
      "start": 29.7713,
      "duration": 0.0159,
      "velocity": 87,
      "chip": "ym2612"
    },
    {
      "channel": 0,
      "note": 37,
      "start": 29.7813,
      "duration": 0.0161,
      "velocity": 115,
      "chip": "ym2612"
    },
    {
      "channel": 5,
      "note": 86,
      "start": 29.7825,
      "duration": 0.0161,
      "velocity": 87,
      "chip": "ym2612"
    },
    {
      "channel": 3,
      "note": 71,
      "start": 29.7837,
      "duration": 0.0161,
      "velocity": 96,
      "chip": "ym2612"
    },
    {
      "channel": 2,
      "note": 76,
      "start": 29.7848,
      "duration": 0.0161,
      "velocity": 96,
      "chip": "ym2612"
    },
    {
      "channel": 4,
      "note": 52,
      "start": 29.786,
      "duration": 0.0161,
      "velocity": 100,
      "chip": "ym2612"
    },
    {
      "channel": 1,
      "note": 86,
      "start": 29.7872,
      "duration": 0.0161,
      "velocity": 87,
      "chip": "ym2612"
    },
    {
      "channel": 0,
      "note": 37,
      "start": 29.7974,
      "duration": 0.0161,
      "velocity": 115,
      "chip": "ym2612"
    },
    {
      "channel": 5,
      "note": 86,
      "start": 29.7986,
      "duration": 0.0162,
      "velocity": 87,
      "chip": "ym2612"
    },
    {
      "channel": 2,
      "note": 76,
      "start": 29.8009,
      "duration": 0.0165,
      "velocity": 96,
      "chip": "ym2612"
    },
    {
      "channel": 4,
      "note": 52,
      "start": 29.8021,
      "duration": 0.0165,
      "velocity": 100,
      "chip": "ym2612"
    },
    {
      "channel": 1,
      "note": 86,
      "start": 29.8033,
      "duration": 0.0165,
      "velocity": 87,
      "chip": "ym2612"
    },
    {
      "channel": 0,
      "note": 38,
      "start": 29.8136,
      "duration": 0.0162,
      "velocity": 115,
      "chip": "ym2612"
    },
    {
      "channel": 5,
      "note": 86,
      "start": 29.8148,
      "duration": 0.0161,
      "velocity": 87,
      "chip": "ym2612"
    },
    {
      "channel": 3,
      "note": 76,
      "start": 29.8163,
      "duration": 0.0158,
      "velocity": 96,
      "chip": "ym2612"
    },
    {
      "channel": 2,
      "note": 76,
      "start": 29.8174,
      "duration": 0.0159,
      "velocity": 96,
      "chip": "ym2612"
    },
    {
      "channel": 4,
      "note": 52,
      "start": 29.8186,
      "duration": 0.0158,
      "velocity": 100,
      "chip": "ym2612"
    },
    {
      "channel": 1,
      "note": 86,
      "start": 29.8198,
      "duration": 0.0159,
      "velocity": 87,
      "chip": "ym2612"
    },
    {
      "channel": 0,
      "note": 38,
      "start": 29.8297,
      "duration": 0.0164,
      "velocity": 115,
      "chip": "ym2612"
    },
    {
      "channel": 5,
      "note": 86,
      "start": 29.8309,
      "duration": 0.0163,
      "velocity": 87,
      "chip": "ym2612"
    },
    {
      "channel": 3,
      "note": 76,
      "start": 29.8321,
      "duration": 0.0163,
      "velocity": 96,
      "chip": "ym2612"
    },
    {
      "channel": 2,
      "note": 76,
      "start": 29.8333,
      "duration": 0.0163,
      "velocity": 96,
      "chip": "ym2612"
    },
    {
      "channel": 4,
      "note": 52,
      "start": 29.8344,
      "duration": 0.0163,
      "velocity": 100,
      "chip": "ym2612"
    },
    {
      "channel": 1,
      "note": 86,
      "start": 29.8356,
      "duration": 0.0163,
      "velocity": 87,
      "chip": "ym2612"
    },
    {
      "channel": 0,
      "note": 39,
      "start": 29.8461,
      "duration": 0.0163,
      "velocity": 115,
      "chip": "ym2612"
    },
    {
      "channel": 5,
      "note": 86,
      "start": 29.8473,
      "duration": 0.0163,
      "velocity": 87,
      "chip": "ym2612"
    },
    {
      "channel": 3,
      "note": 76,
      "start": 29.8484,
      "duration": 0.0163,
      "velocity": 96,
      "chip": "ym2612"
    },
    {
      "channel": 4,
      "note": 52,
      "start": 29.8508,
      "duration": 0.0166,
      "velocity": 100,
      "chip": "ym2612"
    },
    {
      "channel": 1,
      "note": 86,
      "start": 29.852,
      "duration": 0.0165,
      "velocity": 87,
      "chip": "ym2612"
    },
    {
      "channel": 0,
      "note": 39,
      "start": 29.8624,
      "duration": 0.0161,
      "velocity": 115,
      "chip": "ym2612"
    },
    {
      "channel": 5,
      "note": 86,
      "start": 29.8636,
      "duration": 0.0162,
      "velocity": 87,
      "chip": "ym2612"
    },
    {
      "channel": 3,
      "note": 76,
      "start": 29.8648,
      "duration": 0.0161,
      "velocity": 96,
      "chip": "ym2612"
    },
    {
      "channel": 2,
      "note": 68,
      "start": 29.8662,
      "duration": 0.0159,
      "velocity": 96,
      "chip": "ym2612"
    },
    {
      "channel": 4,
      "note": 52,
      "start": 29.8674,
      "duration": 0.0158,
      "velocity": 100,
      "chip": "ym2612"
    },
    {
      "channel": 1,
      "note": 85,
      "start": 29.8685,
      "duration": 0.0159,
      "velocity": 87,
      "chip": "ym2612"
    },
    {
      "channel": 0,
      "note": 40,
      "start": 29.8785,
      "duration": 0.016,
      "velocity": 115,
      "chip": "ym2612"
    },
    {
      "channel": 5,
      "note": 86,
      "start": 29.8797,
      "duration": 0.0161,
      "velocity": 87,
      "chip": "ym2612"
    },
    {
      "channel": 3,
      "note": 76,
      "start": 29.8809,
      "duration": 0.0161,
      "velocity": 96,
      "chip": "ym2612"
    },
    {
      "channel": 2,
      "note": 68,
      "start": 29.8821,
      "duration": 0.016,
      "velocity": 96,
      "chip": "ym2612"
    },
    {
      "channel": 4,
      "note": 52,
      "start": 29.8832,
      "duration": 0.016,
      "velocity": 100,
      "chip": "ym2612"
    },
    {
      "channel": 1,
      "note": 86,
      "start": 29.8844,
      "duration": 0.016,
      "velocity": 87,
      "chip": "ym2612"
    },
    {
      "channel": 0,
      "note": 40,
      "start": 29.8945,
      "duration": 0.0159,
      "velocity": 115,
      "chip": "ym2612"
    },
    {
      "channel": 5,
      "note": 86,
      "start": 29.8958,
      "duration": 0.0161,
      "velocity": 87,
      "chip": "ym2612"
    },
    {
      "channel": 3,
      "note": 76,
      "start": 29.897,
      "duration": 0.0161,
      "velocity": 96,
      "chip": "ym2612"
    },
    {
      "channel": 2,
      "note": 68,
      "start": 29.8981,
      "duration": 0.0161,
      "velocity": 96,
      "chip": "ym2612"
    },
    {
      "channel": 4,
      "note": 52,
      "start": 29.8993,
      "duration": 0.0162,
      "velocity": 100,
      "chip": "ym2612"
    },
    {
      "channel": 1,
      "note": 86,
      "start": 29.9005,
      "duration": 0.0162,
      "velocity": 87,
      "chip": "ym2612"
    },
    {
      "channel": 0,
      "note": 40,
      "start": 29.9104,
      "duration": 0.0159,
      "velocity": 115,
      "chip": "ym2612"
    },
    {
      "channel": 5,
      "note": 86,
      "start": 29.9119,
      "duration": 0.016,
      "velocity": 87,
      "chip": "ym2612"
    },
    {
      "channel": 2,
      "note": 68,
      "start": 29.9143,
      "duration": 0.0163,
      "velocity": 96,
      "chip": "ym2612"
    },
    {
      "channel": 4,
      "note": 52,
      "start": 29.9154,
      "duration": 0.0163,
      "velocity": 100,
      "chip": "ym2612"
    },
    {
      "channel": 1,
      "note": 86,
      "start": 29.9167,
      "duration": 0.0163,
      "velocity": 87,
      "chip": "ym2612"
    },
    {
      "channel": 0,
      "note": 41,
      "start": 29.9262,
      "duration": 0.0161,
      "velocity": 115,
      "chip": "ym2612"
    },
    {
      "channel": 5,
      "note": 86,
      "start": 29.9279,
      "duration": 0.0158,
      "velocity": 87,
      "chip": "ym2612"
    },
    {
      "channel": 3,
      "note": 68,
      "start": 29.9295,
      "duration": 0.0159,
      "velocity": 96,
      "chip": "ym2612"
    },
    {
      "channel": 2,
      "note": 68,
      "start": 29.9306,
      "duration": 0.0159,
      "velocity": 96,
      "chip": "ym2612"
    },
    {
      "channel": 4,
      "note": 52,
      "start": 29.9318,
      "duration": 0.0159,
      "velocity": 100,
      "chip": "ym2612"
    },
    {
      "channel": 1,
      "note": 86,
      "start": 29.933,
      "duration": 0.0159,
      "velocity": 87,
      "chip": "ym2612"
    },
    {
      "channel": 0,
      "note": 41,
      "start": 29.9423,
      "duration": 0.0161,
      "velocity": 115,
      "chip": "ym2612"
    },
    {
      "channel": 5,
      "note": 86,
      "start": 29.9437,
      "duration": 0.0159,
      "velocity": 87,
      "chip": "ym2612"
    },
    {
      "channel": 3,
      "note": 68,
      "start": 29.9454,
      "duration": 0.016,
      "velocity": 96,
      "chip": "ym2612"
    },
    {
      "channel": 2,
      "note": 68,
      "start": 29.9465,
      "duration": 0.016,
      "velocity": 96,
      "chip": "ym2612"
    },
    {
      "channel": 4,
      "note": 52,
      "start": 29.9477,
      "duration": 0.0161,
      "velocity": 100,
      "chip": "ym2612"
    },
    {
      "channel": 0,
      "note": 42,
      "start": 29.9584,
      "duration": 0.0179,
      "velocity": 124,
      "chip": "ym2612"
    },
    {
      "channel": 5,
      "note": 86,
      "start": 29.9596,
      "duration": 0.0185,
      "velocity": 87,
      "chip": "ym2612"
    },
    {
      "channel": 3,
      "note": 68,
      "start": 29.9613,
      "duration": 0.018,
      "velocity": 96,
      "chip": "ym2612"
    },
    {
      "channel": 4,
      "note": 52,
      "start": 29.9638,
      "duration": 0.0182,
      "velocity": 100,
      "chip": "ym2612"
    },
    {
      "channel": 0,
      "note": 84,
      "start": 29.9764,
      "duration": 0.0143,
      "velocity": 124,
      "chip": "ym2612"
    },
    {
      "channel": 5,
      "note": 86,
      "start": 29.9781,
      "duration": 0.0137,
      "velocity": 87,
      "chip": "ym2612"
    },
    {
      "channel": 3,
      "note": 68,
      "start": 29.9793,
      "duration": 0.0137,
      "velocity": 96,
      "chip": "ym2612"
    },
    {
      "channel": 2,
      "note": 71,
      "start": 29.9808,
      "duration": 0.014,
      "velocity": 96,
      "chip": "ym2612"
    },
    {
      "channel": 4,
      "note": 52,
      "start": 29.982,
      "duration": 0.0141,
      "velocity": 100,
      "chip": "ym2612"
    },
    {
      "channel": 1,
      "note": 83,
      "start": 29.9835,
      "duration": 0.0138,
      "velocity": 87,
      "chip": "ym2612"
    },
    {
      "channel": 0,
      "note": 82,
      "start": 29.9907,
      "duration": 0.016,
      "velocity": 124,
      "chip": "ym2612"
    },
    {
      "channel": 5,
      "note": 86,
      "start": 29.9919,
      "duration": 0.016,
      "velocity": 87,
      "chip": "ym2612"
    },
    {
      "channel": 3,
      "note": 68,
      "start": 29.9931,
      "duration": 0.016,
      "velocity": 96,
      "chip": "ym2612"
    },
    {
      "channel": 2,
      "note": 71,
      "start": 29.9948,
      "duration": 0.0156,
      "velocity": 96,
      "chip": "ym2612"
    },
    {
      "channel": 4,
      "note": 52,
      "start": 29.996,
      "duration": 0.016,
      "velocity": 100,
      "chip": "ym2612"
    },
    {
      "channel": 1,
      "note": 83,
      "start": 29.9973,
      "duration": 0.0159,
      "velocity": 87,
      "chip": "ym2612"
    },
    {
      "channel": 0,
      "note": 80,
      "start": 30.0068,
      "duration": 0.0161,
      "velocity": 124,
      "chip": "ym2612"
    },
    {
      "channel": 5,
      "note": 86,
      "start": 30.0079,
      "duration": 0.0161,
      "velocity": 87,
      "chip": "ym2612"
    },
    {
      "channel": 3,
      "note": 68,
      "start": 30.0091,
      "duration": 0.0161,
      "velocity": 96,
      "chip": "ym2612"
    },
    {
      "channel": 2,
      "note": 71,
      "start": 30.0105,
      "duration": 0.0159,
      "velocity": 96,
      "chip": "ym2612"
    },
    {
      "channel": 4,
      "note": 52,
      "start": 30.012,
      "duration": 0.0161,
      "velocity": 100,
      "chip": "ym2612"
    },
    {
      "channel": 1,
      "note": 83,
      "start": 30.0132,
      "duration": 0.0161,
      "velocity": 87,
      "chip": "ym2612"
    },
    {
      "channel": 0,
      "note": 77,
      "start": 30.0229,
      "duration": 0.0161,
      "velocity": 124,
      "chip": "ym2612"
    },
    {
      "channel": 5,
      "note": 86,
      "start": 30.0241,
      "duration": 0.0161,
      "velocity": 87,
      "chip": "ym2612"
    },
    {
      "channel": 2,
      "note": 71,
      "start": 30.0263,
      "duration": 0.0164,
      "velocity": 96,
      "chip": "ym2612"
    },
    {
      "channel": 4,
      "note": 52,
      "start": 30.0281,
      "duration": 0.0163,
      "velocity": 100,
      "chip": "ym2612"
    },
    {
      "channel": 1,
      "note": 83,
      "start": 30.0293,
      "duration": 0.0164,
      "velocity": 87,
      "chip": "ym2612"
    },
    {
      "channel": 0,
      "note": 75,
      "start": 30.039,
      "duration": 0.0161,
      "velocity": 124,
      "chip": "ym2612"
    },
    {
      "channel": 5,
      "note": 86,
      "start": 30.0402,
      "duration": 0.0161,
      "velocity": 87,
      "chip": "ym2612"
    },
    {
      "channel": 3,
      "note": 71,
      "start": 30.0416,
      "duration": 0.0159,
      "velocity": 96,
      "chip": "ym2612"
    },
    {
      "channel": 2,
      "note": 71,
      "start": 30.0428,
      "duration": 0.0158,
      "velocity": 96,
      "chip": "ym2612"
    },
    {
      "channel": 4,
      "note": 52,
      "start": 30.0444,
      "duration": 0.0153,
      "velocity": 100,
      "chip": "ym2612"
    },
    {
      "channel": 1,
      "note": 83,
      "start": 30.0457,
      "duration": 0.0158,
      "velocity": 87,
      "chip": "ym2612"
    },
    {
      "channel": 0,
      "note": 72,
      "start": 30.055,
      "duration": 0.0161,
      "velocity": 124,
      "chip": "ym2612"
    },
    {
      "channel": 5,
      "note": 86,
      "start": 30.0563,
      "duration": 0.0161,
      "velocity": 87,
      "chip": "ym2612"
    },
    {
      "channel": 3,
      "note": 71,
      "start": 30.0575,
      "duration": 0.016,
      "velocity": 96,
      "chip": "ym2612"
    },
    {
      "channel": 2,
      "note": 71,
      "start": 30.0586,
      "duration": 0.0161,
      "velocity": 96,
      "chip": "ym2612"
    },
    {
      "channel": 4,
      "note": 52,
      "start": 30.0598,
      "duration": 0.0161,
      "velocity": 100,
      "chip": "ym2612"
    },
    {
      "channel": 0,
      "note": 70,
      "start": 30.0711,
      "duration": 0.0161,
      "velocity": 124,
      "chip": "ym2612"
    },
    {
      "channel": 5,
      "note": 86,
      "start": 30.0723,
      "duration": 0.0161,
      "velocity": 87,
      "chip": "ym2612"
    },
    {
      "channel": 3,
      "note": 71,
      "start": 30.0735,
      "duration": 0.0161,
      "velocity": 96,
      "chip": "ym2612"
    },
    {
      "channel": 4,
      "note": 52,
      "start": 30.0759,
      "duration": 0.0166,
      "velocity": 100,
      "chip": "ym2612"
    },
    {
      "channel": 0,
      "note": 68,
      "start": 30.0872,
      "duration": 0.0161,
      "velocity": 124,
      "chip": "ym2612"
    },
    {
      "channel": 5,
      "note": 86,
      "start": 30.0884,
      "duration": 0.0162,
      "velocity": 87,
      "chip": "ym2612"
    },
    {
      "channel": 3,
      "note": 71,
      "start": 30.0896,
      "duration": 0.0162,
      "velocity": 96,
      "chip": "ym2612"
    },
    {
      "channel": 2,
      "note": 76,
      "start": 30.091,
      "duration": 0.016,
      "velocity": 96,
      "chip": "ym2612"
    },
    {
      "channel": 4,
      "note": 59,
      "start": 30.0925,
      "duration": 0.0157,
      "velocity": 100,
      "chip": "ym2612"
    },
    {
      "channel": 1,
      "note": 85,
      "start": 30.0945,
      "duration": 0.015,
      "velocity": 87,
      "chip": "ym2612"
    },
    {
      "channel": 0,
      "note": 65,
      "start": 30.1033,
      "duration": 0.0161,
      "velocity": 124,
      "chip": "ym2612"
    },
    {
      "channel": 5,
      "note": 86,
      "start": 30.1047,
      "duration": 0.016,
      "velocity": 87,
      "chip": "ym2612"
    },
    {
      "channel": 3,
      "note": 71,
      "start": 30.1058,
      "duration": 0.016,
      "velocity": 96,
      "chip": "ym2612"
    },
    {
      "channel": 2,
      "note": 76,
      "start": 30.107,
      "duration": 0.016,
      "velocity": 96,
      "chip": "ym2612"
    },
    {
      "channel": 4,
      "note": 59,
      "start": 30.1082,
      "duration": 0.0159,
      "velocity": 100,
      "chip": "ym2612"
    },
    {
      "channel": 1,
      "note": 85,
      "start": 30.1095,
      "duration": 0.0158,
      "velocity": 87,
      "chip": "ym2612"
    },
    {
      "channel": 0,
      "note": 63,
      "start": 30.1194,
      "duration": 0.0153,
      "velocity": 1,
      "chip": "ym2612"
    },
    {
      "channel": 5,
      "note": 86,
      "start": 30.1207,
      "duration": 0.0153,
      "velocity": 87,
      "chip": "ym2612"
    },
    {
      "channel": 3,
      "note": 71,
      "start": 30.1218,
      "duration": 0.0153,
      "velocity": 96,
      "chip": "ym2612"
    },
    {
      "channel": 2,
      "note": 76,
      "start": 30.123,
      "duration": 0.0154,
      "velocity": 96,
      "chip": "ym2612"
    },
    {
      "channel": 4,
      "note": 59,
      "start": 30.1241,
      "duration": 0.0153,
      "velocity": 100,
      "chip": "ym2612"
    },
    {
      "channel": 1,
      "note": 85,
      "start": 30.1253,
      "duration": 0.0153,
      "velocity": 87,
      "chip": "ym2612"
    },
    {
      "channel": 2,
      "note": 76,
      "start": 30.1383,
      "duration": 0.0155,
      "velocity": 96,
      "chip": "ym2612"
    },
    {
      "channel": 4,
      "note": 59,
      "start": 30.1395,
      "duration": 0.0155,
      "velocity": 100,
      "chip": "ym2612"
    },
    {
      "channel": 1,
      "note": 85,
      "start": 30.1407,
      "duration": 0.0155,
      "velocity": 87,
      "chip": "ym2612"
    },
    {
      "channel": 3,
      "note": 76,
      "start": 30.1527,
      "duration": 0.0161,
      "velocity": 96,
      "chip": "ym2612"
    },
    {
      "channel": 2,
      "note": 76,
      "start": 30.1538,
      "duration": 0.0162,
      "velocity": 96,
      "chip": "ym2612"
    },
    {
      "channel": 4,
      "note": 59,
      "start": 30.155,
      "duration": 0.0162,
      "velocity": 100,
      "chip": "ym2612"
    },
    {
      "channel": 1,
      "note": 85,
      "start": 30.1562,
      "duration": 0.0161,
      "velocity": 87,
      "chip": "ym2612"
    },
    {
      "channel": 5,
      "note": 83,
      "start": 30.1676,
      "duration": 0.0158,
      "velocity": 87,
      "chip": "ym2612"
    },
    {
      "channel": 3,
      "note": 76,
      "start": 30.1688,
      "duration": 0.0157,
      "velocity": 96,
      "chip": "ym2612"
    },
    {
      "channel": 2,
      "note": 76,
      "start": 30.17,
      "duration": 0.0157,
      "velocity": 96,
      "chip": "ym2612"
    },
    {
      "channel": 4,
      "note": 59,
      "start": 30.1712,
      "duration": 0.0157,
      "velocity": 100,
      "chip": "ym2612"
    },
    {
      "channel": 5,
      "note": 83,
      "start": 30.1834,
      "duration": 0.0196,
      "velocity": 87,
      "chip": "ym2612"
    },
    {
      "channel": 3,
      "note": 76,
      "start": 30.1846,
      "duration": 0.0196,
      "velocity": 96,
      "chip": "ym2612"
    },
    {
      "channel": 4,
      "note": 59,
      "start": 30.1869,
      "duration": 0.02,
      "velocity": 100,
      "chip": "ym2612"
    },
    {
      "channel": 0,
      "note": 36,
      "start": 30.2018,
      "duration": 0.0143,
      "velocity": 115,
      "chip": "ym2612"
    },
    {
      "channel": 5,
      "note": 83,
      "start": 30.203,
      "duration": 0.0143,
      "velocity": 87,
      "chip": "ym2612"
    },
    {
      "channel": 3,
      "note": 76,
      "start": 30.2041,
      "duration": 0.0143,
      "velocity": 96,
      "chip": "ym2612"
    },
    {
      "channel": 4,
      "note": 52,
      "start": 30.207,
      "duration": 0.014,
      "velocity": 100,
      "chip": "ym2612"
    },
    {
      "channel": 1,
      "note": 86,
      "start": 30.2084,
      "duration": 0.0137,
      "velocity": 87,
      "chip": "ym2612"
    },
    {
      "channel": 0,
      "note": 36,
      "start": 30.2161,
      "duration": 0.016,
      "velocity": 115,
      "chip": "ym2612"
    },
    {
      "channel": 5,
      "note": 83,
      "start": 30.2173,
      "duration": 0.016,
      "velocity": 87,
      "chip": "ym2612"
    },
    {
      "channel": 3,
      "note": 76,
      "start": 30.2185,
      "duration": 0.016,
      "velocity": 96,
      "chip": "ym2612"
    },
    {
      "channel": 4,
      "note": 52,
      "start": 30.221,
      "duration": 0.016,
      "velocity": 100,
      "chip": "ym2612"
    },
    {
      "channel": 1,
      "note": 86,
      "start": 30.2222,
      "duration": 0.0159,
      "velocity": 87,
      "chip": "ym2612"
    },
    {
      "channel": 0,
      "note": 37,
      "start": 30.2321,
      "duration": 0.0161,
      "velocity": 115,
      "chip": "ym2612"
    },
    {
      "channel": 5,
      "note": 83,
      "start": 30.2334,
      "duration": 0.0161,
      "velocity": 87,
      "chip": "ym2612"
    },
    {
      "channel": 3,
      "note": 76,
      "start": 30.2345,
      "duration": 0.0161,
      "velocity": 96,
      "chip": "ym2612"
    },
    {
      "channel": 4,
      "note": 52,
      "start": 30.2369,
      "duration": 0.0161,
      "velocity": 100,
      "chip": "ym2612"
    },
    {
      "channel": 1,
      "note": 86,
      "start": 30.238,
      "duration": 0.0162,
      "velocity": 87,
      "chip": "ym2612"
    },
    {
      "channel": 0,
      "note": 37,
      "start": 30.2482,
      "duration": 0.0161,
      "velocity": 115,
      "chip": "ym2612"
    },
    {
      "channel": 4,
      "note": 52,
      "start": 30.253,
      "duration": 0.0161,
      "velocity": 100,
      "chip": "ym2612"
    },
    {
      "channel": 1,
      "note": 86,
      "start": 30.2542,
      "duration": 0.0161,
      "velocity": 87,
      "chip": "ym2612"
    },
    {
      "channel": 0,
      "note": 38,
      "start": 30.2643,
      "duration": 0.0161,
      "velocity": 115,
      "chip": "ym2612"
    },
    {
      "channel": 4,
      "note": 52,
      "start": 30.2692,
      "duration": 0.0163,
      "velocity": 100,
      "chip": "ym2612"
    },
    {
      "channel": 1,
      "note": 86,
      "start": 30.2704,
      "duration": 0.0163,
      "velocity": 87,
      "chip": "ym2612"
    },
    {
      "channel": 0,
      "note": 38,
      "start": 30.2804,
      "duration": 0.0162,
      "velocity": 115,
      "chip": "ym2612"
    },
    {
      "channel": 5,
      "note": 85,
      "start": 30.282,
      "duration": 0.0159,
      "velocity": 87,
      "chip": "ym2612"
    },
    {
      "channel": 4,
      "note": 52,
      "start": 30.2855,
      "duration": 0.0159,
      "velocity": 100,
      "chip": "ym2612"
    },
    {
      "channel": 0,
      "note": 39,
      "start": 30.2966,
      "duration": 0.0183,
      "velocity": 127,
      "chip": "ym2612"
    },
    {
      "channel": 5,
      "note": 85,
      "start": 30.2978,
      "duration": 0.0183,
      "velocity": 87,
      "chip": "ym2612"
    },
    {
      "channel": 4,
      "note": 52,
      "start": 30.3014,
      "duration": 0.0186,
      "velocity": 100,
      "chip": "ym2612"
    },
    {
      "channel": 0,
      "note": 84,
      "start": 30.315,
      "duration": 0.0144,
      "velocity": 127,
      "chip": "ym2612"
    },
    {
      "channel": 5,
      "note": 85,
      "start": 30.3161,
      "duration": 0.0145,
      "velocity": 87,
      "chip": "ym2612"
    },
    {
      "channel": 2,
      "note": 68,
      "start": 30.3188,
      "duration": 0.0142,
      "velocity": 96,
      "chip": "ym2612"
    },
    {
      "channel": 4,
      "note": 52,
      "start": 30.32,
      "duration": 0.0142,
      "velocity": 100,
      "chip": "ym2612"
    },
    {
      "channel": 1,
      "note": 83,
      "start": 30.3215,
      "duration": 0.0139,
      "velocity": 87,
      "chip": "ym2612"
    },
    {
      "channel": 0,
      "note": 82,
      "start": 30.3294,
      "duration": 0.016,
      "velocity": 127,
      "chip": "ym2612"
    },
    {
      "channel": 5,
      "note": 85,
      "start": 30.3306,
      "duration": 0.016,
      "velocity": 87,
      "chip": "ym2612"
    },
    {
      "channel": 2,
      "note": 68,
      "start": 30.333,
      "duration": 0.016,
      "velocity": 96,
      "chip": "ym2612"
    },
    {
      "channel": 4,
      "note": 52,
      "start": 30.3342,
      "duration": 0.016,
      "velocity": 100,
      "chip": "ym2612"
    },
    {
      "channel": 1,
      "note": 83,
      "start": 30.3354,
      "duration": 0.016,
      "velocity": 87,
      "chip": "ym2612"
    },
    {
      "channel": 0,
      "note": 81,
      "start": 30.3454,
      "duration": 0.016,
      "velocity": 127,
      "chip": "ym2612"
    },
    {
      "channel": 5,
      "note": 85,
      "start": 30.3466,
      "duration": 0.0161,
      "velocity": 87,
      "chip": "ym2612"
    },
    {
      "channel": 2,
      "note": 68,
      "start": 30.3489,
      "duration": 0.0162,
      "velocity": 96,
      "chip": "ym2612"
    },
    {
      "channel": 4,
      "note": 52,
      "start": 30.3501,
      "duration": 0.0161,
      "velocity": 100,
      "chip": "ym2612"
    },
    {
      "channel": 1,
      "note": 83,
      "start": 30.3514,
      "duration": 0.016,
      "velocity": 87,
      "chip": "ym2612"
    },
    {
      "channel": 0,
      "note": 79,
      "start": 30.3615,
      "duration": 0.0158,
      "velocity": 127,
      "chip": "ym2612"
    },
    {
      "channel": 2,
      "note": 68,
      "start": 30.3651,
      "duration": 0.0163,
      "velocity": 96,
      "chip": "ym2612"
    },
    {
      "channel": 4,
      "note": 52,
      "start": 30.3662,
      "duration": 0.0163,
      "velocity": 100,
      "chip": "ym2612"
    },
    {
      "channel": 1,
      "note": 83,
      "start": 30.3674,
      "duration": 0.0164,
      "velocity": 87,
      "chip": "ym2612"
    },
    {
      "channel": 0,
      "note": 77,
      "start": 30.3773,
      "duration": 0.0159,
      "velocity": 127,
      "chip": "ym2612"
    },
    {
      "channel": 3,
      "note": 68,
      "start": 30.3803,
      "duration": 0.0162,
      "velocity": 96,
      "chip": "ym2612"
    },
    {
      "channel": 2,
      "note": 68,
      "start": 30.3815,
      "duration": 0.0161,
      "velocity": 96,
      "chip": "ym2612"
    },
    {
      "channel": 4,
      "note": 52,
      "start": 30.3826,
      "duration": 0.0162,
      "velocity": 100,
      "chip": "ym2612"
    },
    {
      "channel": 1,
      "note": 83,
      "start": 30.3838,
      "duration": 0.0162,
      "velocity": 87,
      "chip": "ym2612"
    },
    {
      "channel": 0,
      "note": 76,
      "start": 30.3932,
      "duration": 0.0161,
      "velocity": 127,
      "chip": "ym2612"
    },
    {
      "channel": 5,
      "note": 86,
      "start": 30.3952,
      "duration": 0.0158,
      "velocity": 87,
      "chip": "ym2612"
    },
    {
      "channel": 3,
      "note": 68,
      "start": 30.3965,
      "duration": 0.0158,
      "velocity": 96,
      "chip": "ym2612"
    },
    {
      "channel": 2,
      "note": 68,
      "start": 30.3976,
      "duration": 0.0159,
      "velocity": 96,
      "chip": "ym2612"
    },
    {
      "channel": 4,
      "note": 52,
      "start": 30.3988,
      "duration": 0.0158,
      "velocity": 100,
      "chip": "ym2612"
    },
    {
      "channel": 0,
      "note": 74,
      "start": 30.4093,
      "duration": 0.0185,
      "velocity": 127,
      "chip": "ym2612"
    },
    {
      "channel": 5,
      "note": 86,
      "start": 30.411,
      "duration": 0.018,
      "velocity": 87,
      "chip": "ym2612"
    },
    {
      "channel": 3,
      "note": 68,
      "start": 30.4122,
      "duration": 0.018,
      "velocity": 96,
      "chip": "ym2612"
    },
    {
      "channel": 4,
      "note": 52,
      "start": 30.4146,
      "duration": 0.0183,
      "velocity": 100,
      "chip": "ym2612"
    },
    {
      "channel": 0,
      "note": 78,
      "start": 30.4278,
      "duration": 0.0137,
      "velocity": 127,
      "chip": "ym2612"
    },
    {
      "channel": 5,
      "note": 86,
      "start": 30.429,
      "duration": 0.0137,
      "velocity": 87,
      "chip": "ym2612"
    },
    {
      "channel": 3,
      "note": 68,
      "start": 30.4302,
      "duration": 0.0141,
      "velocity": 96,
      "chip": "ym2612"
    },
    {
      "channel": 4,
      "note": 59,
      "start": 30.433,
      "duration": 0.0139,
      "velocity": 100,
      "chip": "ym2612"
    },
    {
      "channel": 1,
      "note": 85,
      "start": 30.4344,
      "duration": 0.0137,
      "velocity": 87,
      "chip": "ym2612"
    },
    {
      "channel": 0,
      "note": 76,
      "start": 30.4415,
      "duration": 0.0161,
      "velocity": 127,
      "chip": "ym2612"
    },
    {
      "channel": 5,
      "note": 86,
      "start": 30.4427,
      "duration": 0.016,
      "velocity": 87,
      "chip": "ym2612"
    },
    {
      "channel": 3,
      "note": 68,
      "start": 30.4444,
      "duration": 0.0155,
      "velocity": 96,
      "chip": "ym2612"
    },
    {
      "channel": 4,
      "note": 59,
      "start": 30.4469,
      "duration": 0.016,
      "velocity": 100,
      "chip": "ym2612"
    },
    {
      "channel": 1,
      "note": 85,
      "start": 30.4481,
      "duration": 0.016,
      "velocity": 87,
      "chip": "ym2612"
    },
    {
      "channel": 0,
      "note": 75,
      "start": 30.4576,
      "duration": 0.0161,
      "velocity": 127,
      "chip": "ym2612"
    },
    {
      "channel": 5,
      "note": 86,
      "start": 30.4587,
      "duration": 0.0161,
      "velocity": 87,
      "chip": "ym2612"
    },
    {
      "channel": 3,
      "note": 68,
      "start": 30.4599,
      "duration": 0.0161,
      "velocity": 96,
      "chip": "ym2612"
    },
    {
      "channel": 4,
      "note": 59,
      "start": 30.4629,
      "duration": 0.0162,
      "velocity": 100,
      "chip": "ym2612"
    },
    {
      "channel": 1,
      "note": 85,
      "start": 30.4641,
      "duration": 0.0161,
      "velocity": 87,
      "chip": "ym2612"
    },
    {
      "channel": 0,
      "note": 73,
      "start": 30.4737,
      "duration": 0.0161,
      "velocity": 127,
      "chip": "ym2612"
    },
    {
      "channel": 4,
      "note": 59,
      "start": 30.479,
      "duration": 0.0162,
      "velocity": 100,
      "chip": "ym2612"
    },
    {
      "channel": 1,
      "note": 85,
      "start": 30.4802,
      "duration": 0.0162,
      "velocity": 87,
      "chip": "ym2612"
    },
    {
      "channel": 0,
      "note": 71,
      "start": 30.4898,
      "duration": 0.0161,
      "velocity": 127,
      "chip": "ym2612"
    },
    {
      "channel": 4,
      "note": 59,
      "start": 30.4952,
      "duration": 0.0162,
      "velocity": 100,
      "chip": "ym2612"
    },
    {
      "channel": 1,
      "note": 85,
      "start": 30.4963,
      "duration": 0.0163,
      "velocity": 87,
      "chip": "ym2612"
    },
    {
      "channel": 0,
      "note": 70,
      "start": 30.5059,
      "duration": 0.0161,
      "velocity": 127,
      "chip": "ym2612"
    },
    {
      "channel": 5,
      "note": 83,
      "start": 30.5073,
      "duration": 0.0159,
      "velocity": 87,
      "chip": "ym2612"
    },
    {
      "channel": 4,
      "note": 59,
      "start": 30.5114,
      "duration": 0.0156,
      "velocity": 100,
      "chip": "ym2612"
    },
    {
      "channel": 0,
      "note": 68,
      "start": 30.522,
      "duration": 0.0161,
      "velocity": 127,
      "chip": "ym2612"
    },
    {
      "channel": 5,
      "note": 83,
      "start": 30.5232,
      "duration": 0.016,
      "velocity": 87,
      "chip": "ym2612"
    },
    {
      "channel": 4,
      "note": 59,
      "start": 30.527,
      "duration": 0.0161,
      "velocity": 100,
      "chip": "ym2612"
    },
    {
      "channel": 0,
      "note": 66,
      "start": 30.538,
      "duration": 0.0161,
      "velocity": 127,
      "chip": "ym2612"
    },
    {
      "channel": 5,
      "note": 83,
      "start": 30.5393,
      "duration": 0.0161,
      "velocity": 87,
      "chip": "ym2612"
    },
    {
      "channel": 2,
      "note": 71,
      "start": 30.5419,
      "duration": 0.0158,
      "velocity": 96,
      "chip": "ym2612"
    },
    {
      "channel": 4,
      "note": 59,
      "start": 30.5431,
      "duration": 0.0158,
      "velocity": 100,
      "chip": "ym2612"
    },
    {
      "channel": 1,
      "note": 86,
      "start": 30.5452,
      "duration": 0.0152,
      "velocity": 87,
      "chip": "ym2612"
    },
    {
      "channel": 0,
      "note": 65,
      "start": 30.5541,
      "duration": 0.0161,
      "velocity": 127,
      "chip": "ym2612"
    },
    {
      "channel": 5,
      "note": 83,
      "start": 30.5554,
      "duration": 0.0161,
      "velocity": 87,
      "chip": "ym2612"
    },
    {
      "channel": 2,
      "note": 71,
      "start": 30.5577,
      "duration": 0.016,
      "velocity": 96,
      "chip": "ym2612"
    },
    {
      "channel": 4,
      "note": 59,
      "start": 30.5589,
      "duration": 0.016,
      "velocity": 100,
      "chip": "ym2612"
    },
    {
      "channel": 1,
      "note": 86,
      "start": 30.5604,
      "duration": 0.0158,
      "velocity": 87,
      "chip": "ym2612"
    },
    {
      "channel": 0,
      "note": 63,
      "start": 30.5702,
      "duration": 0.0161,
      "velocity": 127,
      "chip": "ym2612"
    },
    {
      "channel": 5,
      "note": 83,
      "start": 30.5715,
      "duration": 0.0161,
      "velocity": 87,
      "chip": "ym2612"
    },
    {
      "channel": 2,
      "note": 71,
      "start": 30.5737,
      "duration": 0.0162,
      "velocity": 96,
      "chip": "ym2612"
    },
    {
      "channel": 4,
      "note": 59,
      "start": 30.5749,
      "duration": 0.0161,
      "velocity": 100,
      "chip": "ym2612"
    },
    {
      "channel": 1,
      "note": 86,
      "start": 30.5762,
      "duration": 0.016,
      "velocity": 87,
      "chip": "ym2612"
    },
    {
      "channel": 0,
      "note": 61,
      "start": 30.5863,
      "duration": 0.0161,
      "velocity": 127,
      "chip": "ym2612"
    },
    {
      "channel": 2,
      "note": 71,
      "start": 30.5899,
      "duration": 0.0163,
      "velocity": 96,
      "chip": "ym2612"
    },
    {
      "channel": 4,
      "note": 59,
      "start": 30.591,
      "duration": 0.0163,
      "velocity": 100,
      "chip": "ym2612"
    },
    {
      "channel": 1,
      "note": 86,
      "start": 30.5922,
      "duration": 0.0164,
      "velocity": 87,
      "chip": "ym2612"
    },
    {
      "channel": 0,
      "note": 60,
      "start": 30.6024,
      "duration": 0.0162,
      "velocity": 127,
      "chip": "ym2612"
    },
    {
      "channel": 3,
      "note": 71,
      "start": 30.6051,
      "duration": 0.0162,
      "velocity": 96,
      "chip": "ym2612"
    },
    {
      "channel": 2,
      "note": 71,
      "start": 30.6063,
      "duration": 0.0162,
      "velocity": 96,
      "chip": "ym2612"
    },
    {
      "channel": 4,
      "note": 59,
      "start": 30.6074,
      "duration": 0.0162,
      "velocity": 100,
      "chip": "ym2612"
    },
    {
      "channel": 1,
      "note": 86,
      "start": 30.6086,
      "duration": 0.0162,
      "velocity": 87,
      "chip": "ym2612"
    },
    {
      "channel": 0,
      "note": 58,
      "start": 30.6186,
      "duration": 0.0161,
      "velocity": 127,
      "chip": "ym2612"
    },
    {
      "channel": 5,
      "note": 85,
      "start": 30.62,
      "duration": 0.0159,
      "velocity": 87,
      "chip": "ym2612"
    },
    {
      "channel": 3,
      "note": 71,
      "start": 30.6213,
      "duration": 0.0158,
      "velocity": 96,
      "chip": "ym2612"
    },
    {
      "channel": 2,
      "note": 71,
      "start": 30.6225,
      "duration": 0.0158,
      "velocity": 96,
      "chip": "ym2612"
    },
    {
      "channel": 4,
      "note": 59,
      "start": 30.6236,
      "duration": 0.0158,
      "velocity": 100,
      "chip": "ym2612"
    },
    {
      "channel": 0,
      "note": 56,
      "start": 30.6347,
      "duration": 0.0179,
      "velocity": 115,
      "chip": "ym2612"
    },
    {
      "channel": 5,
      "note": 85,
      "start": 30.6359,
      "duration": 0.0179,
      "velocity": 87,
      "chip": "ym2612"
    },
    {
      "channel": 3,
      "note": 71,
      "start": 30.637,
      "duration": 0.018,
      "velocity": 96,
      "chip": "ym2612"
    },
    {
      "channel": 4,
      "note": 59,
      "start": 30.6394,
      "duration": 0.0186,
      "velocity": 100,
      "chip": "ym2612"
    },
    {
      "channel": 0,
      "note": 36,
      "start": 30.6526,
      "duration": 0.0143,
      "velocity": 115,
      "chip": "ym2612"
    },
    {
      "channel": 5,
      "note": 85,
      "start": 30.6538,
      "duration": 0.0143,
      "velocity": 87,
      "chip": "ym2612"
    },
    {
      "channel": 3,
      "note": 71,
      "start": 30.655,
      "duration": 0.0143,
      "velocity": 96,
      "chip": "ym2612"
    },
    {
      "channel": 2,
      "note": 76,
      "start": 30.6566,
      "duration": 0.0139,
      "velocity": 96,
      "chip": "ym2612"
    },
    {
      "channel": 4,
      "note": 57,
      "start": 30.658,
      "duration": 0.0137,
      "velocity": 100,
      "chip": "ym2612"
    },
    {
      "channel": 1,
      "note": 85,
      "start": 30.6596,
      "duration": 0.0134,
      "velocity": 87,
      "chip": "ym2612"
    },
    {
      "channel": 0,
      "note": 36,
      "start": 30.6669,
      "duration": 0.016,
      "velocity": 115,
      "chip": "ym2612"
    },
    {
      "channel": 5,
      "note": 85,
      "start": 30.6681,
      "duration": 0.016,
      "velocity": 87,
      "chip": "ym2612"
    },
    {
      "channel": 3,
      "note": 71,
      "start": 30.6693,
      "duration": 0.016,
      "velocity": 96,
      "chip": "ym2612"
    },
    {
      "channel": 2,
      "note": 76,
      "start": 30.6705,
      "duration": 0.016,
      "velocity": 96,
      "chip": "ym2612"
    },
    {
      "channel": 4,
      "note": 57,
      "start": 30.6717,
      "duration": 0.0159,
      "velocity": 100,
      "chip": "ym2612"
    },
    {
      "channel": 1,
      "note": 85,
      "start": 30.673,
      "duration": 0.0159,
      "velocity": 87,
      "chip": "ym2612"
    },
    {
      "channel": 0,
      "note": 37,
      "start": 30.683,
      "duration": 0.0161,
      "velocity": 115,
      "chip": "ym2612"
    },
    {
      "channel": 5,
      "note": 85,
      "start": 30.6842,
      "duration": 0.0161,
      "velocity": 87,
      "chip": "ym2612"
    },
    {
      "channel": 3,
      "note": 71,
      "start": 30.6853,
      "duration": 0.0161,
      "velocity": 96,
      "chip": "ym2612"
    },
    {
      "channel": 2,
      "note": 76,
      "start": 30.6865,
      "duration": 0.0162,
      "velocity": 96,
      "chip": "ym2612"
    },
    {
      "channel": 4,
      "note": 57,
      "start": 30.6876,
      "duration": 0.0161,
      "velocity": 100,
      "chip": "ym2612"
    },
    {
      "channel": 1,
      "note": 85,
      "start": 30.6888,
      "duration": 0.0161,
      "velocity": 87,
      "chip": "ym2612"
    },
    {
      "channel": 0,
      "note": 37,
      "start": 30.6991,
      "duration": 0.0161,
      "velocity": 115,
      "chip": "ym2612"
    },
    {
      "channel": 2,
      "note": 76,
      "start": 30.7026,
      "duration": 0.0165,
      "velocity": 96,
      "chip": "ym2612"
    },
    {
      "channel": 4,
      "note": 57,
      "start": 30.7038,
      "duration": 0.0165,
      "velocity": 100,
      "chip": "ym2612"
    },
    {
      "channel": 1,
      "note": 85,
      "start": 30.7049,
      "duration": 0.0165,
      "velocity": 87,
      "chip": "ym2612"
    },
    {
      "channel": 0,
      "note": 38,
      "start": 30.7151,
      "duration": 0.0162,
      "velocity": 115,
      "chip": "ym2612"
    },
    {
      "channel": 3,
      "note": 76,
      "start": 30.718,
      "duration": 0.016,
      "velocity": 96,
      "chip": "ym2612"
    },
    {
      "channel": 2,
      "note": 76,
      "start": 30.7191,
      "duration": 0.016,
      "velocity": 96,
      "chip": "ym2612"
    },
    {
      "channel": 4,
      "note": 57,
      "start": 30.7202,
      "duration": 0.016,
      "velocity": 100,
      "chip": "ym2612"
    },
    {
      "channel": 1,
      "note": 85,
      "start": 30.7214,
      "duration": 0.0161,
      "velocity": 87,
      "chip": "ym2612"
    },
    {
      "channel": 0,
      "note": 38,
      "start": 30.7313,
      "duration": 0.0161,
      "velocity": 115,
      "chip": "ym2612"
    },
    {
      "channel": 5,
      "note": 86,
      "start": 30.7328,
      "duration": 0.0159,
      "velocity": 87,
      "chip": "ym2612"
    },
    {
      "channel": 3,
      "note": 76,
      "start": 30.734,
      "duration": 0.0158,
      "velocity": 96,
      "chip": "ym2612"
    },
    {
      "channel": 2,
      "note": 76,
      "start": 30.7351,
      "duration": 0.0159,
      "velocity": 96,
      "chip": "ym2612"
    },
    {
      "channel": 4,
      "note": 57,
      "start": 30.7363,
      "duration": 0.0158,
      "velocity": 100,
      "chip": "ym2612"
    },
    {
      "channel": 1,
      "note": 85,
      "start": 30.7375,
      "duration": 0.0158,
      "velocity": 87,
      "chip": "ym2612"
    },
    {
      "channel": 0,
      "note": 39,
      "start": 30.7474,
      "duration": 0.0161,
      "velocity": 115,
      "chip": "ym2612"
    },
    {
      "channel": 5,
      "note": 86,
      "start": 30.7486,
      "duration": 0.0161,
      "velocity": 87,
      "chip": "ym2612"
    },
    {
      "channel": 3,
      "note": 76,
      "start": 30.7498,
      "duration": 0.0161,
      "velocity": 96,
      "chip": "ym2612"
    },
    {
      "channel": 4,
      "note": 57,
      "start": 30.7521,
      "duration": 0.0163,
      "velocity": 100,
      "chip": "ym2612"
    },
    {
      "channel": 1,
      "note": 85,
      "start": 30.7533,
      "duration": 0.0164,
      "velocity": 87,
      "chip": "ym2612"
    },
    {
      "channel": 0,
      "note": 39,
      "start": 30.7636,
      "duration": 0.0162,
      "velocity": 115,
      "chip": "ym2612"
    },
    {
      "channel": 5,
      "note": 86,
      "start": 30.7647,
      "duration": 0.0161,
      "velocity": 87,
      "chip": "ym2612"
    },
    {
      "channel": 3,
      "note": 76,
      "start": 30.7659,
      "duration": 0.0162,
      "velocity": 96,
      "chip": "ym2612"
    },
    {
      "channel": 2,
      "note": 67,
      "start": 30.7673,
      "duration": 0.0159,
      "velocity": 96,
      "chip": "ym2612"
    },
    {
      "channel": 4,
      "note": 57,
      "start": 30.7685,
      "duration": 0.0159,
      "velocity": 100,
      "chip": "ym2612"
    },
    {
      "channel": 1,
      "note": 85,
      "start": 30.7697,
      "duration": 0.0159,
      "velocity": 87,
      "chip": "ym2612"
    },
    {
      "channel": 0,
      "note": 40,
      "start": 30.7797,
      "duration": 0.0163,
      "velocity": 115,
      "chip": "ym2612"
    },
    {
      "channel": 5,
      "note": 86,
      "start": 30.7809,
      "duration": 0.0163,
      "velocity": 87,
      "chip": "ym2612"
    },
    {
      "channel": 3,
      "note": 76,
      "start": 30.782,
      "duration": 0.0164,
      "velocity": 96,
      "chip": "ym2612"
    },
    {
      "channel": 2,
      "note": 67,
      "start": 30.7832,
      "duration": 0.0163,
      "velocity": 96,
      "chip": "ym2612"
    },
    {
      "channel": 4,
      "note": 57,
      "start": 30.7844,
      "duration": 0.0163,
      "velocity": 100,
      "chip": "ym2612"
    },
    {
      "channel": 1,
      "note": 85,
      "start": 30.7856,
      "duration": 0.0163,
      "velocity": 87,
      "chip": "ym2612"
    },
    {
      "channel": 0,
      "note": 40,
      "start": 30.7961,
      "duration": 0.0163,
      "velocity": 115,
      "chip": "ym2612"
    },
    {
      "channel": 5,
      "note": 86,
      "start": 30.7972,
      "duration": 0.0163,
      "velocity": 87,
      "chip": "ym2612"
    },
    {
      "channel": 3,
      "note": 76,
      "start": 30.7984,
      "duration": 0.0163,
      "velocity": 96,
      "chip": "ym2612"
    },
    {
      "channel": 2,
      "note": 67,
      "start": 30.7996,
      "duration": 0.0163,
      "velocity": 96,
      "chip": "ym2612"
    },
    {
      "channel": 4,
      "note": 57,
      "start": 30.8007,
      "duration": 0.0163,
      "velocity": 100,
      "chip": "ym2612"
    },
    {
      "channel": 1,
      "note": 85,
      "start": 30.8019,
      "duration": 0.0163,
      "velocity": 87,
      "chip": "ym2612"
    },
    {
      "channel": 0,
      "note": 40,
      "start": 30.8124,
      "duration": 0.0161,
      "velocity": 115,
      "chip": "ym2612"
    },
    {
      "channel": 2,
      "note": 67,
      "start": 30.8159,
      "duration": 0.0163,
      "velocity": 96,
      "chip": "ym2612"
    },
    {
      "channel": 4,
      "note": 57,
      "start": 30.8171,
      "duration": 0.0163,
      "velocity": 100,
      "chip": "ym2612"
    },
    {
      "channel": 1,
      "note": 85,
      "start": 30.8182,
      "duration": 0.0163,
      "velocity": 87,
      "chip": "ym2612"
    },
    {
      "channel": 0,
      "note": 41,
      "start": 30.8285,
      "duration": 0.0161,
      "velocity": 115,
      "chip": "ym2612"
    },
    {
      "channel": 3,
      "note": 67,
      "start": 30.8311,
      "duration": 0.0163,
      "velocity": 96,
      "chip": "ym2612"
    },
    {
      "channel": 2,
      "note": 67,
      "start": 30.8323,
      "duration": 0.0163,
      "velocity": 96,
      "chip": "ym2612"
    },
    {
      "channel": 4,
      "note": 57,
      "start": 30.8334,
      "duration": 0.0163,
      "velocity": 100,
      "chip": "ym2612"
    },
    {
      "channel": 1,
      "note": 85,
      "start": 30.8346,
      "duration": 0.0163,
      "velocity": 87,
      "chip": "ym2612"
    },
    {
      "channel": 0,
      "note": 41,
      "start": 30.8445,
      "duration": 0.0155,
      "velocity": 115,
      "chip": "ym2612"
    },
    {
      "channel": 5,
      "note": 85,
      "start": 30.8462,
      "duration": 0.0157,
      "velocity": 87,
      "chip": "ym2612"
    },
    {
      "channel": 3,
      "note": 67,
      "start": 30.8474,
      "duration": 0.0156,
      "velocity": 96,
      "chip": "ym2612"
    },
    {
      "channel": 2,
      "note": 67,
      "start": 30.8485,
      "duration": 0.0157,
      "velocity": 96,
      "chip": "ym2612"
    },
    {
      "channel": 4,
      "note": 57,
      "start": 30.8497,
      "duration": 0.0157,
      "velocity": 100,
      "chip": "ym2612"
    },
    {
      "channel": 1,
      "note": 85,
      "start": 30.8509,
      "duration": 0.0156,
      "velocity": 87,
      "chip": "ym2612"
    },
    {
      "channel": 0,
      "note": 42,
      "start": 30.8601,
      "duration": 0.0162,
      "velocity": 115,
      "chip": "ym2612"
    },
    {
      "channel": 5,
      "note": 85,
      "start": 30.8619,
      "duration": 0.016,
      "velocity": 87,
      "chip": "ym2612"
    },
    {
      "channel": 3,
      "note": 67,
      "start": 30.8631,
      "duration": 0.0161,
      "velocity": 96,
      "chip": "ym2612"
    },
    {
      "channel": 4,
      "note": 57,
      "start": 30.8654,
      "duration": 0.0163,
      "velocity": 100,
      "chip": "ym2612"
    },
    {
      "channel": 1,
      "note": 85,
      "start": 30.8666,
      "duration": 0.0163,
      "velocity": 87,
      "chip": "ym2612"
    },
    {
      "channel": 0,
      "note": 42,
      "start": 30.8762,
      "duration": 0.0161,
      "velocity": 115,
      "chip": "ym2612"
    },
    {
      "channel": 5,
      "note": 85,
      "start": 30.8779,
      "duration": 0.0158,
      "velocity": 87,
      "chip": "ym2612"
    },
    {
      "channel": 3,
      "note": 67,
      "start": 30.8792,
      "duration": 0.0161,
      "velocity": 96,
      "chip": "ym2612"
    },
    {
      "channel": 2,
      "note": 69,
      "start": 30.8806,
      "duration": 0.0159,
      "velocity": 96,
      "chip": "ym2612"
    },
    {
      "channel": 4,
      "note": 57,
      "start": 30.8818,
      "duration": 0.0158,
      "velocity": 100,
      "chip": "ym2612"
    },
    {
      "channel": 1,
      "note": 85,
      "start": 30.8829,
      "duration": 0.0159,
      "velocity": 87,
      "chip": "ym2612"
    },
    {
      "channel": 0,
      "note": 43,
      "start": 30.8923,
      "duration": 0.0161,
      "velocity": 115,
      "chip": "ym2612"
    },
    {
      "channel": 5,
      "note": 85,
      "start": 30.8937,
      "duration": 0.0159,
      "velocity": 87,
      "chip": "ym2612"
    },
    {
      "channel": 3,
      "note": 67,
      "start": 30.8952,
      "duration": 0.016,
      "velocity": 96,
      "chip": "ym2612"
    },
    {
      "channel": 2,
      "note": 69,
      "start": 30.8965,
      "duration": 0.016,
      "velocity": 96,
      "chip": "ym2612"
    },
    {
      "channel": 4,
      "note": 57,
      "start": 30.8976,
      "duration": 0.016,
      "velocity": 100,
      "chip": "ym2612"
    },
    {
      "channel": 1,
      "note": 85,
      "start": 30.8988,
      "duration": 0.016,
      "velocity": 87,
      "chip": "ym2612"
    },
    {
      "channel": 0,
      "note": 43,
      "start": 30.9084,
      "duration": 0.0161,
      "velocity": 115,
      "chip": "ym2612"
    },
    {
      "channel": 5,
      "note": 85,
      "start": 30.9096,
      "duration": 0.0161,
      "velocity": 87,
      "chip": "ym2612"
    },
    {
      "channel": 3,
      "note": 67,
      "start": 30.9113,
      "duration": 0.0158,
      "velocity": 96,
      "chip": "ym2612"
    },
    {
      "channel": 2,
      "note": 69,
      "start": 30.9125,
      "duration": 0.0161,
      "velocity": 96,
      "chip": "ym2612"
    },
    {
      "channel": 4,
      "note": 57,
      "start": 30.9136,
      "duration": 0.0161,
      "velocity": 100,
      "chip": "ym2612"
    },
    {
      "channel": 1,
      "note": 85,
      "start": 30.9148,
      "duration": 0.0162,
      "velocity": 87,
      "chip": "ym2612"
    },
    {
      "channel": 0,
      "note": 44,
      "start": 30.9245,
      "duration": 0.0161,
      "velocity": 115,
      "chip": "ym2612"
    },
    {
      "channel": 5,
      "note": 85,
      "start": 30.9256,
      "duration": 0.0161,
      "velocity": 87,
      "chip": "ym2612"
    },
    {
      "channel": 2,
      "note": 69,
      "start": 30.9286,
      "duration": 0.0163,
      "velocity": 96,
      "chip": "ym2612"
    },
    {
      "channel": 4,
      "note": 57,
      "start": 30.9297,
      "duration": 0.0164,
      "velocity": 100,
      "chip": "ym2612"
    },
    {
      "channel": 1,
      "note": 85,
      "start": 30.931,
      "duration": 0.0163,
      "velocity": 87,
      "chip": "ym2612"
    },
    {
      "channel": 0,
      "note": 44,
      "start": 30.9406,
      "duration": 0.0161,
      "velocity": 115,
      "chip": "ym2612"
    },
    {
      "channel": 5,
      "note": 85,
      "start": 30.9417,
      "duration": 0.0162,
      "velocity": 87,
      "chip": "ym2612"
    },
    {
      "channel": 3,
      "note": 69,
      "start": 30.9432,
      "duration": 0.0159,
      "velocity": 96,
      "chip": "ym2612"
    },
    {
      "channel": 2,
      "note": 69,
      "start": 30.9449,
      "duration": 0.0156,
      "velocity": 96,
      "chip": "ym2612"
    },
    {
      "channel": 4,
      "note": 57,
      "start": 30.9461,
      "duration": 0.0159,
      "velocity": 100,
      "chip": "ym2612"
    },
    {
      "channel": 1,
      "note": 85,
      "start": 30.9473,
      "duration": 0.0159,
      "velocity": 87,
      "chip": "ym2612"
    },
    {
      "channel": 0,
      "note": 44,
      "start": 30.9567,
      "duration": 0.0161,
      "velocity": 115,
      "chip": "ym2612"
    },
    {
      "channel": 5,
      "note": 85,
      "start": 30.9579,
      "duration": 0.0161,
      "velocity": 87,
      "chip": "ym2612"
    },
    {
      "channel": 3,
      "note": 69,
      "start": 30.9591,
      "duration": 0.016,
      "velocity": 96,
      "chip": "ym2612"
    },
    {
      "channel": 2,
      "note": 69,
      "start": 30.9605,
      "duration": 0.0158,
      "velocity": 96,
      "chip": "ym2612"
    },
    {
      "channel": 4,
      "note": 57,
      "start": 30.962,
      "duration": 0.016,
      "velocity": 100,
      "chip": "ym2612"
    },
    {
      "channel": 0,
      "note": 45,
      "start": 30.9728,
      "duration": 0.0179,
      "velocity": 115,
      "chip": "ym2612"
    },
    {
      "channel": 5,
      "note": 85,
      "start": 30.974,
      "duration": 0.0179,
      "velocity": 87,
      "chip": "ym2612"
    },
    {
      "channel": 3,
      "note": 69,
      "start": 30.9751,
      "duration": 0.0179,
      "velocity": 96,
      "chip": "ym2612"
    },
    {
      "channel": 4,
      "note": 57,
      "start": 30.978,
      "duration": 0.0185,
      "velocity": 100,
      "chip": "ym2612"
    },
    {
      "channel": 0,
      "note": 36,
      "start": 30.9907,
      "duration": 0.0143,
      "velocity": 115,
      "chip": "ym2612"
    },
    {
      "channel": 5,
      "note": 85,
      "start": 30.9919,
      "duration": 0.0143,
      "velocity": 87,
      "chip": "ym2612"
    },
    {
      "channel": 3,
      "note": 69,
      "start": 30.9931,
      "duration": 0.0143,
      "velocity": 96,
      "chip": "ym2612"
    },
    {
      "channel": 2,
      "note": 76,
      "start": 30.9951,
      "duration": 0.0135,
      "velocity": 96,
      "chip": "ym2612"
    },
    {
      "channel": 4,
      "note": 52,
      "start": 30.9966,
      "duration": 0.0132,
      "velocity": 100,
      "chip": "ym2612"
    },
    {
      "channel": 1,
      "note": 86,
      "start": 30.998,
      "duration": 0.0136,
      "velocity": 87,
      "chip": "ym2612"
    },
    {
      "channel": 0,
      "note": 36,
      "start": 31.005,
      "duration": 0.0161,
      "velocity": 115,
      "chip": "ym2612"
    },
    {
      "channel": 5,
      "note": 85,
      "start": 31.0063,
      "duration": 0.016,
      "velocity": 87,
      "chip": "ym2612"
    },
    {
      "channel": 3,
      "note": 69,
      "start": 31.0074,
      "duration": 0.016,
      "velocity": 96,
      "chip": "ym2612"
    },
    {
      "channel": 2,
      "note": 76,
      "start": 31.0086,
      "duration": 0.016,
      "velocity": 96,
      "chip": "ym2612"
    },
    {
      "channel": 4,
      "note": 52,
      "start": 31.0098,
      "duration": 0.0159,
      "velocity": 100,
      "chip": "ym2612"
    },
    {
      "channel": 1,
      "note": 86,
      "start": 31.0117,
      "duration": 0.0155,
      "velocity": 87,
      "chip": "ym2612"
    },
    {
      "channel": 0,
      "note": 37,
      "start": 31.0211,
      "duration": 0.0161,
      "velocity": 115,
      "chip": "ym2612"
    },
    {
      "channel": 5,
      "note": 85,
      "start": 31.0223,
      "duration": 0.0161,
      "velocity": 87,
      "chip": "ym2612"
    },
    {
      "channel": 3,
      "note": 69,
      "start": 31.0234,
      "duration": 0.0161,
      "velocity": 96,
      "chip": "ym2612"
    },
    {
      "channel": 2,
      "note": 76,
      "start": 31.0246,
      "duration": 0.0161,
      "velocity": 96,
      "chip": "ym2612"
    },
    {
      "channel": 4,
      "note": 52,
      "start": 31.0257,
      "duration": 0.0162,
      "velocity": 100,
      "chip": "ym2612"
    },
    {
      "channel": 1,
      "note": 86,
      "start": 31.0271,
      "duration": 0.0159,
      "velocity": 87,
      "chip": "ym2612"
    },
    {
      "channel": 0,
      "note": 37,
      "start": 31.0372,
      "duration": 0.0161,
      "velocity": 115,
      "chip": "ym2612"
    },
    {
      "channel": 5,
      "note": 85,
      "start": 31.0384,
      "duration": 0.0161,
      "velocity": 87,
      "chip": "ym2612"
    },
    {
      "channel": 2,
      "note": 76,
      "start": 31.0407,
      "duration": 0.0163,
      "velocity": 96,
      "chip": "ym2612"
    },
    {
      "channel": 4,
      "note": 52,
      "start": 31.0419,
      "duration": 0.0163,
      "velocity": 100,
      "chip": "ym2612"
    },
    {
      "channel": 1,
      "note": 86,
      "start": 31.043,
      "duration": 0.0164,
      "velocity": 87,
      "chip": "ym2612"
    },
    {
      "channel": 0,
      "note": 38,
      "start": 31.0533,
      "duration": 0.0161,
      "velocity": 115,
      "chip": "ym2612"
    },
    {
      "channel": 5,
      "note": 85,
      "start": 31.0545,
      "duration": 0.0161,
      "velocity": 87,
      "chip": "ym2612"
    },
    {
      "channel": 3,
      "note": 76,
      "start": 31.0559,
      "duration": 0.0159,
      "velocity": 96,
      "chip": "ym2612"
    },
    {
      "channel": 2,
      "note": 76,
      "start": 31.0571,
      "duration": 0.0159,
      "velocity": 96,
      "chip": "ym2612"
    },
    {
      "channel": 4,
      "note": 52,
      "start": 31.0582,
      "duration": 0.0159,
      "velocity": 100,
      "chip": "ym2612"
    },
    {
      "channel": 1,
      "note": 86,
      "start": 31.0594,
      "duration": 0.0159,
      "velocity": 87,
      "chip": "ym2612"
    },
    {
      "channel": 0,
      "note": 38,
      "start": 31.0694,
      "duration": 0.0161,
      "velocity": 115,
      "chip": "ym2612"
    },
    {
      "channel": 5,
      "note": 85,
      "start": 31.0706,
      "duration": 0.0161,
      "velocity": 87,
      "chip": "ym2612"
    },
    {
      "channel": 3,
      "note": 76,
      "start": 31.0718,
      "duration": 0.016,
      "velocity": 96,
      "chip": "ym2612"
    },
    {
      "channel": 2,
      "note": 76,
      "start": 31.073,
      "duration": 0.016,
      "velocity": 96,
      "chip": "ym2612"
    },
    {
      "channel": 4,
      "note": 52,
      "start": 31.0741,
      "duration": 0.016,
      "velocity": 100,
      "chip": "ym2612"
    },
    {
      "channel": 1,
      "note": 86,
      "start": 31.0753,
      "duration": 0.016,
      "velocity": 87,
      "chip": "ym2612"
    },
    {
      "channel": 0,
      "note": 39,
      "start": 31.0855,
      "duration": 0.0179,
      "velocity": 115,
      "chip": "ym2612"
    },
    {
      "channel": 5,
      "note": 85,
      "start": 31.0867,
      "duration": 0.018,
      "velocity": 87,
      "chip": "ym2612"
    },
    {
      "channel": 3,
      "note": 76,
      "start": 31.0879,
      "duration": 0.018,
      "velocity": 96,
      "chip": "ym2612"
    },
    {
      "channel": 4,
      "note": 52,
      "start": 31.0902,
      "duration": 0.0184,
      "velocity": 100,
      "chip": "ym2612"
    },
    {
      "channel": 1,
      "note": 86,
      "start": 31.0914,
      "duration": 0.0185,
      "velocity": 87,
      "chip": "ym2612"
    },
    {
      "channel": 0,
      "note": 36,
      "start": 31.1034,
      "duration": 0.0143,
      "velocity": 115,
      "chip": "ym2612"
    },
    {
      "channel": 5,
      "note": 85,
      "start": 31.1047,
      "duration": 0.0144,
      "velocity": 87,
      "chip": "ym2612"
    },
    {
      "channel": 3,
      "note": 76,
      "start": 31.1059,
      "duration": 0.0144,
      "velocity": 96,
      "chip": "ym2612"
    },
    {
      "channel": 4,
      "note": 52,
      "start": 31.1086,
      "duration": 0.0141,
      "velocity": 100,
      "chip": "ym2612"
    },
    {
      "channel": 1,
      "note": 86,
      "start": 31.1098,
      "duration": 0.0141,
      "velocity": 87,
      "chip": "ym2612"
    },
    {
      "channel": 0,
      "note": 36,
      "start": 31.1178,
      "duration": 0.016,
      "velocity": 115,
      "chip": "ym2612"
    },
    {
      "channel": 5,
      "note": 85,
      "start": 31.119,
      "duration": 0.016,
      "velocity": 87,
      "chip": "ym2612"
    },
    {
      "channel": 3,
      "note": 76,
      "start": 31.1202,
      "duration": 0.016,
      "velocity": 96,
      "chip": "ym2612"
    },
    {
      "channel": 4,
      "note": 52,
      "start": 31.1227,
      "duration": 0.016,
      "velocity": 100,
      "chip": "ym2612"
    },
    {
      "channel": 1,
      "note": 86,
      "start": 31.1239,
      "duration": 0.016,
      "velocity": 87,
      "chip": "ym2612"
    },
    {
      "channel": 0,
      "note": 37,
      "start": 31.1338,
      "duration": 0.0161,
      "velocity": 115,
      "chip": "ym2612"
    },
    {
      "channel": 5,
      "note": 85,
      "start": 31.1351,
      "duration": 0.0161,
      "velocity": 87,
      "chip": "ym2612"
    },
    {
      "channel": 3,
      "note": 76,
      "start": 31.1362,
      "duration": 0.0162,
      "velocity": 96,
      "chip": "ym2612"
    },
    {
      "channel": 4,
      "note": 52,
      "start": 31.1386,
      "duration": 0.0161,
      "velocity": 100,
      "chip": "ym2612"
    },
    {
      "channel": 1,
      "note": 86,
      "start": 31.1398,
      "duration": 0.0161,
      "velocity": 87,
      "chip": "ym2612"
    },
    {
      "channel": 0,
      "note": 37,
      "start": 31.1499,
      "duration": 0.0161,
      "velocity": 115,
      "chip": "ym2612"
    },
    {
      "channel": 4,
      "note": 52,
      "start": 31.1547,
      "duration": 0.0162,
      "velocity": 100,
      "chip": "ym2612"
    },
    {
      "channel": 1,
      "note": 86,
      "start": 31.1559,
      "duration": 0.0161,
      "velocity": 87,
      "chip": "ym2612"
    },
    {
      "channel": 0,
      "note": 38,
      "start": 31.166,
      "duration": 0.0161,
      "velocity": 115,
      "chip": "ym2612"
    },
    {
      "channel": 4,
      "note": 52,
      "start": 31.1709,
      "duration": 0.0163,
      "velocity": 100,
      "chip": "ym2612"
    },
    {
      "channel": 1,
      "note": 86,
      "start": 31.1721,
      "duration": 0.0162,
      "velocity": 87,
      "chip": "ym2612"
    },
    {
      "channel": 0,
      "note": 38,
      "start": 31.1821,
      "duration": 0.0161,
      "velocity": 115,
      "chip": "ym2612"
    },
    {
      "channel": 5,
      "note": 86,
      "start": 31.1836,
      "duration": 0.0158,
      "velocity": 87,
      "chip": "ym2612"
    },
    {
      "channel": 4,
      "note": 52,
      "start": 31.1872,
      "duration": 0.0159,
      "velocity": 100,
      "chip": "ym2612"
    },
    {
      "channel": 1,
      "note": 86,
      "start": 31.1883,
      "duration": 0.0159,
      "velocity": 87,
      "chip": "ym2612"
    },
    {
      "channel": 0,
      "note": 39,
      "start": 31.1982,
      "duration": 0.0161,
      "velocity": 115,
      "chip": "ym2612"
    },
    {
      "channel": 5,
      "note": 86,
      "start": 31.1994,
      "duration": 0.016,
      "velocity": 87,
      "chip": "ym2612"
    },
    {
      "channel": 4,
      "note": 52,
      "start": 31.203,
      "duration": 0.0162,
      "velocity": 100,
      "chip": "ym2612"
    },
    {
      "channel": 1,
      "note": 86,
      "start": 31.2042,
      "duration": 0.0162,
      "velocity": 87,
      "chip": "ym2612"
    },
    {
      "channel": 0,
      "note": 39,
      "start": 31.2143,
      "duration": 0.0161,
      "velocity": 115,
      "chip": "ym2612"
    },
    {
      "channel": 5,
      "note": 86,
      "start": 31.2155,
      "duration": 0.0161,
      "velocity": 87,
      "chip": "ym2612"
    },
    {
      "channel": 2,
      "note": 67,
      "start": 31.2181,
      "duration": 0.0159,
      "velocity": 96,
      "chip": "ym2612"
    },
    {
      "channel": 4,
      "note": 52,
      "start": 31.2192,
      "duration": 0.0159,
      "velocity": 100,
      "chip": "ym2612"
    },
    {
      "channel": 1,
      "note": 86,
      "start": 31.2204,
      "duration": 0.0159,
      "velocity": 87,
      "chip": "ym2612"
    },
    {
      "channel": 0,
      "note": 40,
      "start": 31.2304,
      "duration": 0.0161,
      "velocity": 115,
      "chip": "ym2612"
    },
    {
      "channel": 5,
      "note": 86,
      "start": 31.2316,
      "duration": 0.0162,
      "velocity": 87,
      "chip": "ym2612"
    },
    {
      "channel": 2,
      "note": 67,
      "start": 31.234,
      "duration": 0.0161,
      "velocity": 96,
      "chip": "ym2612"
    },
    {
      "channel": 4,
      "note": 52,
      "start": 31.2351,
      "duration": 0.0161,
      "velocity": 100,
      "chip": "ym2612"
    },
    {
      "channel": 1,
      "note": 86,
      "start": 31.2363,
      "duration": 0.0161,
      "velocity": 87,
      "chip": "ym2612"
    },
    {
      "channel": 0,
      "note": 40,
      "start": 31.2466,
      "duration": 0.0163,
      "velocity": 115,
      "chip": "ym2612"
    },
    {
      "channel": 5,
      "note": 86,
      "start": 31.2477,
      "duration": 0.0163,
      "velocity": 87,
      "chip": "ym2612"
    },
    {
      "channel": 2,
      "note": 67,
      "start": 31.2501,
      "duration": 0.0163,
      "velocity": 96,
      "chip": "ym2612"
    },
    {
      "channel": 4,
      "note": 52,
      "start": 31.2512,
      "duration": 0.0163,
      "velocity": 100,
      "chip": "ym2612"
    },
    {
      "channel": 1,
      "note": 86,
      "start": 31.2524,
      "duration": 0.0164,
      "velocity": 87,
      "chip": "ym2612"
    },
    {
      "channel": 0,
      "note": 40,
      "start": 31.2629,
      "duration": 0.0163,
      "velocity": 115,
      "chip": "ym2612"
    },
    {
      "channel": 5,
      "note": 86,
      "start": 31.2641,
      "duration": 0.0163,
      "velocity": 87,
      "chip": "ym2612"
    },
    {
      "channel": 2,
      "note": 67,
      "start": 31.2664,
      "duration": 0.0165,
      "velocity": 96,
      "chip": "ym2612"
    },
    {
      "channel": 4,
      "note": 52,
      "start": 31.2676,
      "duration": 0.0165,
      "velocity": 100,
      "chip": "ym2612"
    },
    {
      "channel": 1,
      "note": 86,
      "start": 31.2688,
      "duration": 0.0165,
      "velocity": 87,
      "chip": "ym2612"
    },
    {
      "channel": 0,
      "note": 41,
      "start": 31.2792,
      "duration": 0.0162,
      "velocity": 115,
      "chip": "ym2612"
    },
    {
      "channel": 5,
      "note": 86,
      "start": 31.2804,
      "duration": 0.0162,
      "velocity": 87,
      "chip": "ym2612"
    },
    {
      "channel": 3,
      "note": 67,
      "start": 31.2818,
      "duration": 0.016,
      "velocity": 96,
      "chip": "ym2612"
    },
    {
      "channel": 2,
      "note": 67,
      "start": 31.283,
      "duration": 0.016,
      "velocity": 96,
      "chip": "ym2612"
    },
    {
      "channel": 4,
      "note": 52,
      "start": 31.2841,
      "duration": 0.016,
      "velocity": 100,
      "chip": "ym2612"
    },
    {
      "channel": 1,
      "note": 86,
      "start": 31.2854,
      "duration": 0.016,
      "velocity": 87,
      "chip": "ym2612"
    },
    {
      "channel": 0,
      "note": 41,
      "start": 31.2954,
      "duration": 0.0161,
      "velocity": 115,
      "chip": "ym2612"
    },
    {
      "channel": 5,
      "note": 86,
      "start": 31.2966,
      "duration": 0.0161,
      "velocity": 87,
      "chip": "ym2612"
    },
    {
      "channel": 3,
      "note": 67,
      "start": 31.2978,
      "duration": 0.016,
      "velocity": 96,
      "chip": "ym2612"
    },
    {
      "channel": 2,
      "note": 67,
      "start": 31.299,
      "duration": 0.016,
      "velocity": 96,
      "chip": "ym2612"
    },
    {
      "channel": 4,
      "note": 52,
      "start": 31.3001,
      "duration": 0.016,
      "velocity": 100,
      "chip": "ym2612"
    },
    {
      "channel": 0,
      "note": 42,
      "start": 31.3115,
      "duration": 0.0179,
      "velocity": 124,
      "chip": "ym2612"
    },
    {
      "channel": 5,
      "note": 86,
      "start": 31.3127,
      "duration": 0.0179,
      "velocity": 87,
      "chip": "ym2612"
    },
    {
      "channel": 3,
      "note": 67,
      "start": 31.3138,
      "duration": 0.018,
      "velocity": 96,
      "chip": "ym2612"
    },
    {
      "channel": 4,
      "note": 52,
      "start": 31.3162,
      "duration": 0.0181,
      "velocity": 100,
      "chip": "ym2612"
    },
    {
      "channel": 0,
      "note": 84,
      "start": 31.3295,
      "duration": 0.0137,
      "velocity": 124,
      "chip": "ym2612"
    },
    {
      "channel": 5,
      "note": 86,
      "start": 31.3306,
      "duration": 0.0143,
      "velocity": 87,
      "chip": "ym2612"
    },
    {
      "channel": 3,
      "note": 67,
      "start": 31.3318,
      "duration": 0.0143,
      "velocity": 96,
      "chip": "ym2612"
    },
    {
      "channel": 4,
      "note": 52,
      "start": 31.3342,
      "duration": 0.0142,
      "velocity": 100,
      "chip": "ym2612"
    },
    {
      "channel": 1,
      "note": 88,
      "start": 31.3358,
      "duration": 0.0139,
      "velocity": 87,
      "chip": "ym2612"
    },
    {
      "channel": 0,
      "note": 82,
      "start": 31.3432,
      "duration": 0.016,
      "velocity": 124,
      "chip": "ym2612"
    },
    {
      "channel": 5,
      "note": 86,
      "start": 31.3449,
      "duration": 0.016,
      "velocity": 87,
      "chip": "ym2612"
    },
    {
      "channel": 3,
      "note": 67,
      "start": 31.3461,
      "duration": 0.016,
      "velocity": 96,
      "chip": "ym2612"
    },
    {
      "channel": 4,
      "note": 52,
      "start": 31.3485,
      "duration": 0.016,
      "velocity": 100,
      "chip": "ym2612"
    },
    {
      "channel": 1,
      "note": 88,
      "start": 31.3498,
      "duration": 0.016,
      "velocity": 87,
      "chip": "ym2612"
    },
    {
      "channel": 0,
      "note": 80,
      "start": 31.3593,
      "duration": 0.0161,
      "velocity": 124,
      "chip": "ym2612"
    },
    {
      "channel": 5,
      "note": 86,
      "start": 31.361,
      "duration": 0.0155,
      "velocity": 87,
      "chip": "ym2612"
    },
    {
      "channel": 3,
      "note": 67,
      "start": 31.3622,
      "duration": 0.0161,
      "velocity": 96,
      "chip": "ym2612"
    },
    {
      "channel": 4,
      "note": 52,
      "start": 31.3645,
      "duration": 0.0162,
      "velocity": 100,
      "chip": "ym2612"
    },
    {
      "channel": 1,
      "note": 88,
      "start": 31.3657,
      "duration": 0.0161,
      "velocity": 87,
      "chip": "ym2612"
    },
    {
      "channel": 0,
      "note": 77,
      "start": 31.3753,
      "duration": 0.0161,
      "velocity": 124,
      "chip": "ym2612"
    },
    {
      "channel": 5,
      "note": 86,
      "start": 31.3765,
      "duration": 0.0161,
      "velocity": 87,
      "chip": "ym2612"
    },
    {
      "channel": 4,
      "note": 52,
      "start": 31.3807,
      "duration": 0.0161,
      "velocity": 100,
      "chip": "ym2612"
    },
    {
      "channel": 1,
      "note": 88,
      "start": 31.3818,
      "duration": 0.0162,
      "velocity": 87,
      "chip": "ym2612"
    },
    {
      "channel": 0,
      "note": 75,
      "start": 31.3914,
      "duration": 0.0161,
      "velocity": 124,
      "chip": "ym2612"
    },
    {
      "channel": 5,
      "note": 86,
      "start": 31.3926,
      "duration": 0.0161,
      "velocity": 87,
      "chip": "ym2612"
    },
    {
      "channel": 4,
      "note": 52,
      "start": 31.3968,
      "duration": 0.016,
      "velocity": 100,
      "chip": "ym2612"
    },
    {
      "channel": 1,
      "note": 88,
      "start": 31.398,
      "duration": 0.0161,
      "velocity": 87,
      "chip": "ym2612"
    },
    {
      "channel": 0,
      "note": 72,
      "start": 31.4075,
      "duration": 0.0161,
      "velocity": 124,
      "chip": "ym2612"
    },
    {
      "channel": 5,
      "note": 86,
      "start": 31.4087,
      "duration": 0.0161,
      "velocity": 87,
      "chip": "ym2612"
    },
    {
      "channel": 4,
      "note": 52,
      "start": 31.4129,
      "duration": 0.0162,
      "velocity": 100,
      "chip": "ym2612"
    },
    {
      "channel": 1,
      "note": 88,
      "start": 31.4141,
      "duration": 0.0161,
      "velocity": 87,
      "chip": "ym2612"
    },
    {
      "channel": 0,
      "note": 70,
      "start": 31.4236,
      "duration": 0.0179,
      "velocity": 115,
      "chip": "ym2612"
    },
    {
      "channel": 5,
      "note": 86,
      "start": 31.4248,
      "duration": 0.0179,
      "velocity": 87,
      "chip": "ym2612"
    },
    {
      "channel": 4,
      "note": 52,
      "start": 31.429,
      "duration": 0.0185,
      "velocity": 100,
      "chip": "ym2612"
    },
    {
      "channel": 1,
      "note": 88,
      "start": 31.4302,
      "duration": 0.0185,
      "velocity": 87,
      "chip": "ym2612"
    },
    {
      "channel": 0,
      "note": 36,
      "start": 31.4416,
      "duration": 0.0143,
      "velocity": 115,
      "chip": "ym2612"
    },
    {
      "channel": 5,
      "note": 86,
      "start": 31.4428,
      "duration": 0.0144,
      "velocity": 87,
      "chip": "ym2612"
    },
    {
      "channel": 2,
      "note": 73,
      "start": 31.446,
      "duration": 0.0136,
      "velocity": 96,
      "chip": "ym2612"
    },
    {
      "channel": 4,
      "note": 57,
      "start": 31.4475,
      "duration": 0.0138,
      "velocity": 100,
      "chip": "ym2612"
    },
    {
      "channel": 1,
      "note": 88,
      "start": 31.4487,
      "duration": 0.0139,
      "velocity": 87,
      "chip": "ym2612"
    },
    {
      "channel": 0,
      "note": 36,
      "start": 31.4559,
      "duration": 0.0161,
      "velocity": 115,
      "chip": "ym2612"
    },
    {
      "channel": 5,
      "note": 86,
      "start": 31.4571,
      "duration": 0.016,
      "velocity": 87,
      "chip": "ym2612"
    },
    {
      "channel": 2,
      "note": 73,
      "start": 31.4596,
      "duration": 0.016,
      "velocity": 96,
      "chip": "ym2612"
    },
    {
      "channel": 4,
      "note": 57,
      "start": 31.4613,
      "duration": 0.0156,
      "velocity": 100,
      "chip": "ym2612"
    },
    {
      "channel": 1,
      "note": 88,
      "start": 31.4625,
      "duration": 0.0159,
      "velocity": 87,
      "chip": "ym2612"
    },
    {
      "channel": 0,
      "note": 37,
      "start": 31.472,
      "duration": 0.0161,
      "velocity": 115,
      "chip": "ym2612"
    },
    {
      "channel": 5,
      "note": 86,
      "start": 31.4732,
      "duration": 0.0161,
      "velocity": 87,
      "chip": "ym2612"
    },
    {
      "channel": 2,
      "note": 73,
      "start": 31.4755,
      "duration": 0.0161,
      "velocity": 96,
      "chip": "ym2612"
    },
    {
      "channel": 4,
      "note": 57,
      "start": 31.4769,
      "duration": 0.016,
      "velocity": 100,
      "chip": "ym2612"
    },
    {
      "channel": 1,
      "note": 88,
      "start": 31.4784,
      "duration": 0.0161,
      "velocity": 87,
      "chip": "ym2612"
    },
    {
      "channel": 0,
      "note": 37,
      "start": 31.488,
      "duration": 0.0161,
      "velocity": 115,
      "chip": "ym2612"
    },
    {
      "channel": 2,
      "note": 73,
      "start": 31.4916,
      "duration": 0.0163,
      "velocity": 96,
      "chip": "ym2612"
    },
    {
      "channel": 4,
      "note": 57,
      "start": 31.4928,
      "duration": 0.0163,
      "velocity": 100,
      "chip": "ym2612"
    },
    {
      "channel": 1,
      "note": 88,
      "start": 31.4945,
      "duration": 0.0163,
      "velocity": 87,
      "chip": "ym2612"
    },
    {
      "channel": 0,
      "note": 38,
      "start": 31.5041,
      "duration": 0.0161,
      "velocity": 115,
      "chip": "ym2612"
    },
    {
      "channel": 3,
      "note": 73,
      "start": 31.5068,
      "duration": 0.0162,
      "velocity": 96,
      "chip": "ym2612"
    },
    {
      "channel": 2,
      "note": 73,
      "start": 31.508,
      "duration": 0.0162,
      "velocity": 96,
      "chip": "ym2612"
    },
    {
      "channel": 4,
      "note": 57,
      "start": 31.5091,
      "duration": 0.0162,
      "velocity": 100,
      "chip": "ym2612"
    },
    {
      "channel": 1,
      "note": 88,
      "start": 31.5108,
      "duration": 0.0156,
      "velocity": 87,
      "chip": "ym2612"
    },
    {
      "channel": 0,
      "note": 38,
      "start": 31.5202,
      "duration": 0.0161,
      "velocity": 115,
      "chip": "ym2612"
    },
    {
      "channel": 5,
      "note": 88,
      "start": 31.5218,
      "duration": 0.0158,
      "velocity": 87,
      "chip": "ym2612"
    },
    {
      "channel": 3,
      "note": 73,
      "start": 31.523,
      "duration": 0.0157,
      "velocity": 96,
      "chip": "ym2612"
    },
    {
      "channel": 2,
      "note": 73,
      "start": 31.5242,
      "duration": 0.0157,
      "velocity": 96,
      "chip": "ym2612"
    },
    {
      "channel": 4,
      "note": 57,
      "start": 31.5253,
      "duration": 0.0157,
      "velocity": 100,
      "chip": "ym2612"
    },
    {
      "channel": 1,
      "note": 88,
      "start": 31.5265,
      "duration": 0.0158,
      "velocity": 87,
      "chip": "ym2612"
    },
    {
      "channel": 0,
      "note": 39,
      "start": 31.5363,
      "duration": 0.0161,
      "velocity": 115,
      "chip": "ym2612"
    },
    {
      "channel": 5,
      "note": 88,
      "start": 31.5376,
      "duration": 0.0161,
      "velocity": 87,
      "chip": "ym2612"
    },
    {
      "channel": 3,
      "note": 73,
      "start": 31.5388,
      "duration": 0.016,
      "velocity": 96,
      "chip": "ym2612"
    },
    {
      "channel": 4,
      "note": 57,
      "start": 31.541,
      "duration": 0.0165,
      "velocity": 100,
      "chip": "ym2612"
    },
    {
      "channel": 1,
      "note": 88,
      "start": 31.5422,
      "duration": 0.0164,
      "velocity": 87,
      "chip": "ym2612"
    },
    {
      "channel": 0,
      "note": 39,
      "start": 31.5524,
      "duration": 0.0161,
      "velocity": 115,
      "chip": "ym2612"
    },
    {
      "channel": 5,
      "note": 88,
      "start": 31.5537,
      "duration": 0.0161,
      "velocity": 87,
      "chip": "ym2612"
    },
    {
      "channel": 3,
      "note": 73,
      "start": 31.5548,
      "duration": 0.0161,
      "velocity": 96,
      "chip": "ym2612"
    },
    {
      "channel": 2,
      "note": 76,
      "start": 31.5563,
      "duration": 0.0158,
      "velocity": 96,
      "chip": "ym2612"
    },
    {
      "channel": 4,
      "note": 57,
      "start": 31.5575,
      "duration": 0.0158,
      "velocity": 100,
      "chip": "ym2612"
    },
    {
      "channel": 1,
      "note": 88,
      "start": 31.5587,
      "duration": 0.0159,
      "velocity": 87,
      "chip": "ym2612"
    },
    {
      "channel": 0,
      "note": 40,
      "start": 31.5685,
      "duration": 0.0161,
      "velocity": 115,
      "chip": "ym2612"
    },
    {
      "channel": 5,
      "note": 88,
      "start": 31.5697,
      "duration": 0.0161,
      "velocity": 87,
      "chip": "ym2612"
    },
    {
      "channel": 3,
      "note": 73,
      "start": 31.5709,
      "duration": 0.0161,
      "velocity": 96,
      "chip": "ym2612"
    },
    {
      "channel": 2,
      "note": 76,
      "start": 31.5721,
      "duration": 0.016,
      "velocity": 96,
      "chip": "ym2612"
    },
    {
      "channel": 4,
      "note": 57,
      "start": 31.5733,
      "duration": 0.016,
      "velocity": 100,
      "chip": "ym2612"
    },
    {
      "channel": 1,
      "note": 88,
      "start": 31.5745,
      "duration": 0.016,
      "velocity": 87,
      "chip": "ym2612"
    },
    {
      "channel": 0,
      "note": 40,
      "start": 31.5846,
      "duration": 0.0161,
      "velocity": 115,
      "chip": "ym2612"
    },
    {
      "channel": 5,
      "note": 88,
      "start": 31.5858,
      "duration": 0.0161,
      "velocity": 87,
      "chip": "ym2612"
    },
    {
      "channel": 3,
      "note": 73,
      "start": 31.587,
      "duration": 0.0161,
      "velocity": 96,
      "chip": "ym2612"
    },
    {
      "channel": 2,
      "note": 76,
      "start": 31.5881,
      "duration": 0.0162,
      "velocity": 96,
      "chip": "ym2612"
    },
    {
      "channel": 4,
      "note": 57,
      "start": 31.5893,
      "duration": 0.0161,
      "velocity": 100,
      "chip": "ym2612"
    },
    {
      "channel": 1,
      "note": 88,
      "start": 31.5905,
      "duration": 0.016,
      "velocity": 87,
      "chip": "ym2612"
    },
    {
      "channel": 0,
      "note": 40,
      "start": 31.6007,
      "duration": 0.0161,
      "velocity": 115,
      "chip": "ym2612"
    },
    {
      "channel": 5,
      "note": 88,
      "start": 31.6019,
      "duration": 0.0161,
      "velocity": 87,
      "chip": "ym2612"
    },
    {
      "channel": 2,
      "note": 76,
      "start": 31.6043,
      "duration": 0.0164,
      "velocity": 96,
      "chip": "ym2612"
    },
    {
      "channel": 4,
      "note": 57,
      "start": 31.6054,
      "duration": 0.0164,
      "velocity": 100,
      "chip": "ym2612"
    },
    {
      "channel": 1,
      "note": 88,
      "start": 31.6066,
      "duration": 0.0165,
      "velocity": 87,
      "chip": "ym2612"
    },
    {
      "channel": 0,
      "note": 41,
      "start": 31.6169,
      "duration": 0.0161,
      "velocity": 115,
      "chip": "ym2612"
    },
    {
      "channel": 5,
      "note": 88,
      "start": 31.618,
      "duration": 0.0161,
      "velocity": 87,
      "chip": "ym2612"
    },
    {
      "channel": 3,
      "note": 76,
      "start": 31.6195,
      "duration": 0.0158,
      "velocity": 96,
      "chip": "ym2612"
    },
    {
      "channel": 2,
      "note": 76,
      "start": 31.6207,
      "duration": 0.0158,
      "velocity": 96,
      "chip": "ym2612"
    },
    {
      "channel": 4,
      "note": 57,
      "start": 31.6218,
      "duration": 0.0158,
      "velocity": 100,
      "chip": "ym2612"
    },
    {
      "channel": 1,
      "note": 88,
      "start": 31.623,
      "duration": 0.0158,
      "velocity": 87,
      "chip": "ym2612"
    },
    {
      "channel": 0,
      "note": 41,
      "start": 31.633,
      "duration": 0.0161,
      "velocity": 115,
      "chip": "ym2612"
    },
    {
      "channel": 5,
      "note": 88,
      "start": 31.6341,
      "duration": 0.0161,
      "velocity": 87,
      "chip": "ym2612"
    },
    {
      "channel": 3,
      "note": 76,
      "start": 31.6353,
      "duration": 0.016,
      "velocity": 96,
      "chip": "ym2612"
    },
    {
      "channel": 2,
      "note": 76,
      "start": 31.6365,
      "duration": 0.0161,
      "velocity": 96,
      "chip": "ym2612"
    },
    {
      "channel": 4,
      "note": 57,
      "start": 31.6376,
      "duration": 0.0161,
      "velocity": 100,
      "chip": "ym2612"
    },
    {
      "channel": 1,
      "note": 88,
      "start": 31.6388,
      "duration": 0.016,
      "velocity": 87,
      "chip": "ym2612"
    },
    {
      "channel": 0,
      "note": 42,
      "start": 31.6491,
      "duration": 0.0179,
      "velocity": 127,
      "chip": "ym2612"
    },
    {
      "channel": 5,
      "note": 88,
      "start": 31.6502,
      "duration": 0.0179,
      "velocity": 87,
      "chip": "ym2612"
    },
    {
      "channel": 3,
      "note": 76,
      "start": 31.6514,
      "duration": 0.018,
      "velocity": 96,
      "chip": "ym2612"
    },
    {
      "channel": 4,
      "note": 57,
      "start": 31.6537,
      "duration": 0.0185,
      "velocity": 100,
      "chip": "ym2612"
    },
    {
      "channel": 1,
      "note": 88,
      "start": 31.6549,
      "duration": 0.0186,
      "velocity": 87,
      "chip": "ym2612"
    },
    {
      "channel": 0,
      "note": 88,
      "start": 31.667,
      "duration": 0.0143,
      "velocity": 127,
      "chip": "ym2612"
    },
    {
      "channel": 5,
      "note": 88,
      "start": 31.6681,
      "duration": 0.0143,
      "velocity": 87,
      "chip": "ym2612"
    },
    {
      "channel": 3,
      "note": 76,
      "start": 31.6694,
      "duration": 0.0142,
      "velocity": 96,
      "chip": "ym2612"
    },
    {
      "channel": 2,
      "note": 67,
      "start": 31.6708,
      "duration": 0.014,
      "velocity": 96,
      "chip": "ym2612"
    },
    {
      "channel": 4,
      "note": 57,
      "start": 31.6723,
      "duration": 0.0138,
      "velocity": 100,
      "chip": "ym2612"
    },
    {
      "channel": 1,
      "note": 88,
      "start": 31.6734,
      "duration": 0.0138,
      "velocity": 87,
      "chip": "ym2612"
    },
    {
      "channel": 0,
      "note": 86,
      "start": 31.6813,
      "duration": 0.016,
      "velocity": 127,
      "chip": "ym2612"
    },
    {
      "channel": 5,
      "note": 88,
      "start": 31.6824,
      "duration": 0.016,
      "velocity": 87,
      "chip": "ym2612"
    },
    {
      "channel": 3,
      "note": 76,
      "start": 31.6836,
      "duration": 0.0161,
      "velocity": 96,
      "chip": "ym2612"
    },
    {
      "channel": 2,
      "note": 67,
      "start": 31.6848,
      "duration": 0.016,
      "velocity": 96,
      "chip": "ym2612"
    },
    {
      "channel": 4,
      "note": 57,
      "start": 31.6861,
      "duration": 0.0159,
      "velocity": 100,
      "chip": "ym2612"
    },
    {
      "channel": 1,
      "note": 88,
      "start": 31.6872,
      "duration": 0.0159,
      "velocity": 87,
      "chip": "ym2612"
    },
    {
      "channel": 0,
      "note": 85,
      "start": 31.6973,
      "duration": 0.0179,
      "velocity": 127,
      "chip": "ym2612"
    },
    {
      "channel": 5,
      "note": 88,
      "start": 31.6985,
      "duration": 0.018,
      "velocity": 87,
      "chip": "ym2612"
    },
    {
      "channel": 3,
      "note": 76,
      "start": 31.6997,
      "duration": 0.018,
      "velocity": 96,
      "chip": "ym2612"
    },
    {
      "channel": 2,
      "note": 67,
      "start": 31.7008,
      "duration": 0.018,
      "velocity": 96,
      "chip": "ym2612"
    },
    {
      "channel": 4,
      "note": 57,
      "start": 31.702,
      "duration": 0.018,
      "velocity": 100,
      "chip": "ym2612"
    },
    {
      "channel": 1,
      "note": 88,
      "start": 31.7031,
      "duration": 0.0181,
      "velocity": 87,
      "chip": "ym2612"
    },
    {
      "channel": 0,
      "note": 88,
      "start": 31.7154,
      "duration": 0.0143,
      "velocity": 127,
      "chip": "ym2612"
    },
    {
      "channel": 5,
      "note": 88,
      "start": 31.7165,
      "duration": 0.0143,
      "velocity": 87,
      "chip": "ym2612"
    },
    {
      "channel": 2,
      "note": 67,
      "start": 31.7188,
      "duration": 0.0146,
      "velocity": 96,
      "chip": "ym2612"
    },
    {
      "channel": 4,
      "note": 57,
      "start": 31.72,
      "duration": 0.0146,
      "velocity": 100,
      "chip": "ym2612"
    },
    {
      "channel": 1,
      "note": 88,
      "start": 31.7212,
      "duration": 0.0146,
      "velocity": 87,
      "chip": "ym2612"
    },
    {
      "channel": 0,
      "note": 86,
      "start": 31.7297,
      "duration": 0.0163,
      "velocity": 127,
      "chip": "ym2612"
    },
    {
      "channel": 5,
      "note": 88,
      "start": 31.7308,
      "duration": 0.0164,
      "velocity": 87,
      "chip": "ym2612"
    },
    {
      "channel": 3,
      "note": 67,
      "start": 31.7323,
      "duration": 0.0162,
      "velocity": 96,
      "chip": "ym2612"
    },
    {
      "channel": 2,
      "note": 67,
      "start": 31.7335,
      "duration": 0.0161,
      "velocity": 96,
      "chip": "ym2612"
    },
    {
      "channel": 4,
      "note": 57,
      "start": 31.7346,
      "duration": 0.0161,
      "velocity": 100,
      "chip": "ym2612"
    },
    {
      "channel": 1,
      "note": 88,
      "start": 31.7358,
      "duration": 0.0162,
      "velocity": 87,
      "chip": "ym2612"
    },
    {
      "channel": 0,
      "note": 85,
      "start": 31.746,
      "duration": 0.0163,
      "velocity": 127,
      "chip": "ym2612"
    },
    {
      "channel": 5,
      "note": 88,
      "start": 31.7472,
      "duration": 0.0163,
      "velocity": 87,
      "chip": "ym2612"
    },
    {
      "channel": 3,
      "note": 67,
      "start": 31.7484,
      "duration": 0.0162,
      "velocity": 96,
      "chip": "ym2612"
    },
    {
      "channel": 2,
      "note": 67,
      "start": 31.7496,
      "duration": 0.0163,
      "velocity": 96,
      "chip": "ym2612"
    },
    {
      "channel": 4,
      "note": 57,
      "start": 31.7507,
      "duration": 0.0163,
      "velocity": 100,
      "chip": "ym2612"
    },
    {
      "channel": 1,
      "note": 88,
      "start": 31.7519,
      "duration": 0.0162,
      "velocity": 87,
      "chip": "ym2612"
    },
    {
      "channel": 0,
      "note": 83,
      "start": 31.7624,
      "duration": 0.0179,
      "velocity": 127,
      "chip": "ym2612"
    },
    {
      "channel": 5,
      "note": 88,
      "start": 31.7635,
      "duration": 0.018,
      "velocity": 87,
      "chip": "ym2612"
    },
    {
      "channel": 3,
      "note": 67,
      "start": 31.7646,
      "duration": 0.018,
      "velocity": 96,
      "chip": "ym2612"
    },
    {
      "channel": 4,
      "note": 57,
      "start": 31.767,
      "duration": 0.0186,
      "velocity": 100,
      "chip": "ym2612"
    },
    {
      "channel": 1,
      "note": 88,
      "start": 31.7681,
      "duration": 0.0186,
      "velocity": 87,
      "chip": "ym2612"
    },
    {
      "channel": 0,
      "note": 88,
      "start": 31.7803,
      "duration": 0.0142,
      "velocity": 127,
      "chip": "ym2612"
    },
    {
      "channel": 5,
      "note": 88,
      "start": 31.7815,
      "duration": 0.0143,
      "velocity": 87,
      "chip": "ym2612"
    },
    {
      "channel": 3,
      "note": 67,
      "start": 31.7827,
      "duration": 0.0143,
      "velocity": 96,
      "chip": "ym2612"
    },
    {
      "channel": 2,
      "note": 69,
      "start": 31.7841,
      "duration": 0.0141,
      "velocity": 96,
      "chip": "ym2612"
    },
    {
      "channel": 4,
      "note": 55,
      "start": 31.7856,
      "duration": 0.0138,
      "velocity": 100,
      "chip": "ym2612"
    },
    {
      "channel": 1,
      "note": 88,
      "start": 31.7868,
      "duration": 0.0138,
      "velocity": 87,
      "chip": "ym2612"
    },
    {
      "channel": 0,
      "note": 86,
      "start": 31.7945,
      "duration": 0.0157,
      "velocity": 127,
      "chip": "ym2612"
    },
    {
      "channel": 5,
      "note": 88,
      "start": 31.7958,
      "duration": 0.0161,
      "velocity": 87,
      "chip": "ym2612"
    },
    {
      "channel": 3,
      "note": 67,
      "start": 31.797,
      "duration": 0.016,
      "velocity": 96,
      "chip": "ym2612"
    },
    {
      "channel": 2,
      "note": 69,
      "start": 31.7982,
      "duration": 0.016,
      "velocity": 96,
      "chip": "ym2612"
    },
    {
      "channel": 4,
      "note": 55,
      "start": 31.7994,
      "duration": 0.0159,
      "velocity": 100,
      "chip": "ym2612"
    },
    {
      "channel": 1,
      "note": 88,
      "start": 31.8006,
      "duration": 0.0159,
      "velocity": 87,
      "chip": "ym2612"
    },
    {
      "channel": 0,
      "note": 85,
      "start": 31.8102,
      "duration": 0.0159,
      "velocity": 127,
      "chip": "ym2612"
    },
    {
      "channel": 5,
      "note": 88,
      "start": 31.8119,
      "duration": 0.016,
      "velocity": 87,
      "chip": "ym2612"
    },
    {
      "channel": 3,
      "note": 67,
      "start": 31.813,
      "duration": 0.0161,
      "velocity": 96,
      "chip": "ym2612"
    },
    {
      "channel": 2,
      "note": 69,
      "start": 31.8141,
      "duration": 0.0161,
      "velocity": 96,
      "chip": "ym2612"
    },
    {
      "channel": 4,
      "note": 55,
      "start": 31.8153,
      "duration": 0.0161,
      "velocity": 100,
      "chip": "ym2612"
    },
    {
      "channel": 1,
      "note": 88,
      "start": 31.8165,
      "duration": 0.0161,
      "velocity": 87,
      "chip": "ym2612"
    },
    {
      "channel": 0,
      "note": 83,
      "start": 31.8262,
      "duration": 0.0161,
      "velocity": 127,
      "chip": "ym2612"
    },
    {
      "channel": 5,
      "note": 88,
      "start": 31.8278,
      "duration": 0.0158,
      "velocity": 87,
      "chip": "ym2612"
    },
    {
      "channel": 2,
      "note": 69,
      "start": 31.8302,
      "duration": 0.0164,
      "velocity": 96,
      "chip": "ym2612"
    },
    {
      "channel": 4,
      "note": 55,
      "start": 31.8314,
      "duration": 0.0164,
      "velocity": 100,
      "chip": "ym2612"
    },
    {
      "channel": 1,
      "note": 88,
      "start": 31.8326,
      "duration": 0.0164,
      "velocity": 87,
      "chip": "ym2612"
    },
    {
      "channel": 0,
      "note": 81,
      "start": 31.8422,
      "duration": 0.0161,
      "velocity": 127,
      "chip": "ym2612"
    },
    {
      "channel": 5,
      "note": 88,
      "start": 31.8437,
      "duration": 0.0159,
      "velocity": 87,
      "chip": "ym2612"
    },
    {
      "channel": 3,
      "note": 69,
      "start": 31.8455,
      "duration": 0.0158,
      "velocity": 96,
      "chip": "ym2612"
    },
    {
      "channel": 2,
      "note": 69,
      "start": 31.8466,
      "duration": 0.0159,
      "velocity": 96,
      "chip": "ym2612"
    },
    {
      "channel": 4,
      "note": 55,
      "start": 31.8478,
      "duration": 0.0159,
      "velocity": 100,
      "chip": "ym2612"
    },
    {
      "channel": 1,
      "note": 88,
      "start": 31.849,
      "duration": 0.0158,
      "velocity": 87,
      "chip": "ym2612"
    },
    {
      "channel": 0,
      "note": 80,
      "start": 31.8583,
      "duration": 0.0161,
      "velocity": 127,
      "chip": "ym2612"
    },
    {
      "channel": 5,
      "note": 88,
      "start": 31.8596,
      "duration": 0.0161,
      "velocity": 87,
      "chip": "ym2612"
    },
    {
      "channel": 3,
      "note": 69,
      "start": 31.8613,
      "duration": 0.0157,
      "velocity": 96,
      "chip": "ym2612"
    },
    {
      "channel": 2,
      "note": 69,
      "start": 31.8625,
      "duration": 0.016,
      "velocity": 96,
      "chip": "ym2612"
    },
    {
      "channel": 4,
      "note": 55,
      "start": 31.8637,
      "duration": 0.016,
      "velocity": 100,
      "chip": "ym2612"
    },
    {
      "channel": 1,
      "note": 88,
      "start": 31.8648,
      "duration": 0.0161,
      "velocity": 87,
      "chip": "ym2612"
    },
    {
      "channel": 0,
      "note": 78,
      "start": 31.8744,
      "duration": 0.0179,
      "velocity": 127,
      "chip": "ym2612"
    },
    {
      "channel": 5,
      "note": 88,
      "start": 31.8756,
      "duration": 0.0182,
      "velocity": 87,
      "chip": "ym2612"
    },
    {
      "channel": 3,
      "note": 69,
      "start": 31.877,
      "duration": 0.0184,
      "velocity": 96,
      "chip": "ym2612"
    },
    {
      "channel": 4,
      "note": 55,
      "start": 31.8797,
      "duration": 0.0183,
      "velocity": 100,
      "chip": "ym2612"
    },
    {
      "channel": 1,
      "note": 88,
      "start": 31.8809,
      "duration": 0.0183,
      "velocity": 87,
      "chip": "ym2612"
    },
    {
      "channel": 0,
      "note": 88,
      "start": 31.8924,
      "duration": 0.0142,
      "velocity": 127,
      "chip": "ym2612"
    },
    {
      "channel": 5,
      "note": 88,
      "start": 31.8939,
      "duration": 0.0141,
      "velocity": 87,
      "chip": "ym2612"
    },
    {
      "channel": 3,
      "note": 69,
      "start": 31.8954,
      "duration": 0.0137,
      "velocity": 96,
      "chip": "ym2612"
    },
    {
      "channel": 2,
      "note": 76,
      "start": 31.8968,
      "duration": 0.0137,
      "velocity": 96,
      "chip": "ym2612"
    },
    {
      "channel": 4,
      "note": 55,
      "start": 31.898,
      "duration": 0.0141,
      "velocity": 100,
      "chip": "ym2612"
    },
    {
      "channel": 1,
      "note": 88,
      "start": 31.8993,
      "duration": 0.014,
      "velocity": 87,
      "chip": "ym2612"
    },
    {
      "channel": 0,
      "note": 86,
      "start": 31.9067,
      "duration": 0.016,
      "velocity": 127,
      "chip": "ym2612"
    },
    {
      "channel": 5,
      "note": 88,
      "start": 31.9079,
      "duration": 0.016,
      "velocity": 87,
      "chip": "ym2612"
    },
    {
      "channel": 3,
      "note": 69,
      "start": 31.909,
      "duration": 0.016,
      "velocity": 96,
      "chip": "ym2612"
    },
    {
      "channel": 2,
      "note": 76,
      "start": 31.9105,
      "duration": 0.0157,
      "velocity": 96,
      "chip": "ym2612"
    },
    {
      "channel": 4,
      "note": 55,
      "start": 31.9121,
      "duration": 0.0159,
      "velocity": 100,
      "chip": "ym2612"
    },
    {
      "channel": 1,
      "note": 88,
      "start": 31.9132,
      "duration": 0.016,
      "velocity": 87,
      "chip": "ym2612"
    },
    {
      "channel": 0,
      "note": 85,
      "start": 31.9227,
      "duration": 0.0162,
      "velocity": 127,
      "chip": "ym2612"
    },
    {
      "channel": 5,
      "note": 88,
      "start": 31.9239,
      "duration": 0.0161,
      "velocity": 87,
      "chip": "ym2612"
    },
    {
      "channel": 3,
      "note": 69,
      "start": 31.9251,
      "duration": 0.0161,
      "velocity": 96,
      "chip": "ym2612"
    },
    {
      "channel": 2,
      "note": 76,
      "start": 31.9262,
      "duration": 0.0161,
      "velocity": 96,
      "chip": "ym2612"
    },
    {
      "channel": 4,
      "note": 55,
      "start": 31.928,
      "duration": 0.0157,
      "velocity": 100,
      "chip": "ym2612"
    },
    {
      "channel": 1,
      "note": 88,
      "start": 31.9292,
      "duration": 0.0161,
      "velocity": 87,
      "chip": "ym2612"
    },
    {
      "channel": 0,
      "note": 83,
      "start": 31.9389,
      "duration": 0.0161,
      "velocity": 127,
      "chip": "ym2612"
    },
    {
      "channel": 5,
      "note": 88,
      "start": 31.94,
      "duration": 0.0161,
      "velocity": 87,
      "chip": "ym2612"
    },
    {
      "channel": 2,
      "note": 76,
      "start": 31.9424,
      "duration": 0.0163,
      "velocity": 96,
      "chip": "ym2612"
    },
    {
      "channel": 4,
      "note": 55,
      "start": 31.9437,
      "duration": 0.0162,
      "velocity": 100,
      "chip": "ym2612"
    },
    {
      "channel": 1,
      "note": 88,
      "start": 31.9453,
      "duration": 0.0164,
      "velocity": 87,
      "chip": "ym2612"
    },
    {
      "channel": 0,
      "note": 81,
      "start": 31.955,
      "duration": 0.0161,
      "velocity": 127,
      "chip": "ym2612"
    },
    {
      "channel": 5,
      "note": 88,
      "start": 31.9561,
      "duration": 0.0161,
      "velocity": 87,
      "chip": "ym2612"
    },
    {
      "channel": 3,
      "note": 76,
      "start": 31.9576,
      "duration": 0.0159,
      "velocity": 96,
      "chip": "ym2612"
    },
    {
      "channel": 2,
      "note": 76,
      "start": 31.9587,
      "duration": 0.0159,
      "velocity": 96,
      "chip": "ym2612"
    },
    {
      "channel": 4,
      "note": 55,
      "start": 31.9599,
      "duration": 0.0159,
      "velocity": 100,
      "chip": "ym2612"
    },
    {
      "channel": 1,
      "note": 88,
      "start": 31.9617,
      "duration": 0.0158,
      "velocity": 87,
      "chip": "ym2612"
    },
    {
      "channel": 0,
      "note": 80,
      "start": 31.9711,
      "duration": 0.0161,
      "velocity": 127,
      "chip": "ym2612"
    },
    {
      "channel": 5,
      "note": 88,
      "start": 31.9722,
      "duration": 0.0161,
      "velocity": 87,
      "chip": "ym2612"
    },
    {
      "channel": 3,
      "note": 76,
      "start": 31.9735,
      "duration": 0.016,
      "velocity": 96,
      "chip": "ym2612"
    },
    {
      "channel": 2,
      "note": 76,
      "start": 31.9746,
      "duration": 0.016,
      "velocity": 96,
      "chip": "ym2612"
    },
    {
      "channel": 4,
      "note": 55,
      "start": 31.9758,
      "duration": 0.0161,
      "velocity": 100,
      "chip": "ym2612"
    },
    {
      "channel": 1,
      "note": 88,
      "start": 31.9776,
      "duration": 0.0155,
      "velocity": 87,
      "chip": "ym2612"
    },
    {
      "channel": 0,
      "note": 78,
      "start": 31.9872,
      "duration": 0.0179,
      "velocity": 127,
      "chip": "ym2612"
    },
    {
      "channel": 5,
      "note": 88,
      "start": 31.9884,
      "duration": 0.018,
      "velocity": 87,
      "chip": "ym2612"
    },
    {
      "channel": 3,
      "note": 76,
      "start": 31.9895,
      "duration": 0.018,
      "velocity": 96,
      "chip": "ym2612"
    },
    {
      "channel": 4,
      "note": 55,
      "start": 31.9919,
      "duration": 0.0186,
      "velocity": 100,
      "chip": "ym2612"
    },
    {
      "channel": 1,
      "note": 88,
      "start": 31.993,
      "duration": 0.0191,
      "velocity": 87,
      "chip": "ym2612"
    },
    {
      "channel": 0,
      "note": 84,
      "start": 32.0052,
      "duration": 0.0142,
      "velocity": 127,
      "chip": "ym2612"
    },
    {
      "channel": 5,
      "note": 88,
      "start": 32.0064,
      "duration": 0.0143,
      "velocity": 87,
      "chip": "ym2612"
    },
    {
      "channel": 3,
      "note": 76,
      "start": 32.0075,
      "duration": 0.0142,
      "velocity": 96,
      "chip": "ym2612"
    },
    {
      "channel": 4,
      "note": 54,
      "start": 32.0105,
      "duration": 0.0137,
      "velocity": 100,
      "chip": "ym2612"
    },
    {
      "channel": 1,
      "note": 88,
      "start": 32.0121,
      "duration": 0.0134,
      "velocity": 87,
      "chip": "ym2612"
    },
    {
      "channel": 0,
      "note": 82,
      "start": 32.0194,
      "duration": 0.016,
      "velocity": 127,
      "chip": "ym2612"
    },
    {
      "channel": 5,
      "note": 88,
      "start": 32.0206,
      "duration": 0.016,
      "velocity": 87,
      "chip": "ym2612"
    },
    {
      "channel": 3,
      "note": 76,
      "start": 32.0218,
      "duration": 0.0161,
      "velocity": 96,
      "chip": "ym2612"
    },
    {
      "channel": 4,
      "note": 54,
      "start": 32.0243,
      "duration": 0.016,
      "velocity": 100,
      "chip": "ym2612"
    },
    {
      "channel": 1,
      "note": 88,
      "start": 32.0255,
      "duration": 0.016,
      "velocity": 87,
      "chip": "ym2612"
    },
    {
      "channel": 0,
      "note": 81,
      "start": 32.0354,
      "duration": 0.0161,
      "velocity": 127,
      "chip": "ym2612"
    },
    {
      "channel": 5,
      "note": 88,
      "start": 32.0367,
      "duration": 0.0161,
      "velocity": 87,
      "chip": "ym2612"
    },
    {
      "channel": 3,
      "note": 76,
      "start": 32.0379,
      "duration": 0.0161,
      "velocity": 96,
      "chip": "ym2612"
    },
    {
      "channel": 4,
      "note": 54,
      "start": 32.0402,
      "duration": 0.0161,
      "velocity": 100,
      "chip": "ym2612"
    },
    {
      "channel": 1,
      "note": 88,
      "start": 32.0414,
      "duration": 0.0161,
      "velocity": 87,
      "chip": "ym2612"
    },
    {
      "channel": 0,
      "note": 79,
      "start": 32.0515,
      "duration": 0.0161,
      "velocity": 127,
      "chip": "ym2612"
    },
    {
      "channel": 5,
      "note": 88,
      "start": 32.0527,
      "duration": 0.0161,
      "velocity": 87,
      "chip": "ym2612"
    },
    {
      "channel": 4,
      "note": 54,
      "start": 32.0564,
      "duration": 0.0162,
      "velocity": 100,
      "chip": "ym2612"
    },
    {
      "channel": 1,
      "note": 88,
      "start": 32.0575,
      "duration": 0.0161,
      "velocity": 87,
      "chip": "ym2612"
    },
    {
      "channel": 0,
      "note": 77,
      "start": 32.0676,
      "duration": 0.0161,
      "velocity": 127,
      "chip": "ym2612"
    },
    {
      "channel": 5,
      "note": 88,
      "start": 32.0688,
      "duration": 0.0161,
      "velocity": 87,
      "chip": "ym2612"
    },
    {
      "channel": 4,
      "note": 54,
      "start": 32.0725,
      "duration": 0.016,
      "velocity": 100,
      "chip": "ym2612"
    },
    {
      "channel": 1,
      "note": 88,
      "start": 32.0737,
      "duration": 0.016,
      "velocity": 87,
      "chip": "ym2612"
    },
    {
      "channel": 0,
      "note": 76,
      "start": 32.0838,
      "duration": 0.0161,
      "velocity": 127,
      "chip": "ym2612"
    },
    {
      "channel": 5,
      "note": 88,
      "start": 32.0849,
      "duration": 0.0161,
      "velocity": 87,
      "chip": "ym2612"
    },
    {
      "channel": 4,
      "note": 54,
      "start": 32.0885,
      "duration": 0.0162,
      "velocity": 100,
      "chip": "ym2612"
    },
    {
      "channel": 1,
      "note": 88,
      "start": 32.0897,
      "duration": 0.0162,
      "velocity": 87,
      "chip": "ym2612"
    },
    {
      "channel": 0,
      "note": 74,
      "start": 32.0999,
      "duration": 0.0179,
      "velocity": 127,
      "chip": "ym2612"
    },
    {
      "channel": 5,
      "note": 88,
      "start": 32.101,
      "duration": 0.018,
      "velocity": 87,
      "chip": "ym2612"
    },
    {
      "channel": 4,
      "note": 54,
      "start": 32.1047,
      "duration": 0.0183,
      "velocity": 100,
      "chip": "ym2612"
    },
    {
      "channel": 1,
      "note": 88,
      "start": 32.1059,
      "duration": 0.0183,
      "velocity": 87,
      "chip": "ym2612"
    },
    {
      "channel": 0,
      "note": 84,
      "start": 32.1179,
      "duration": 0.0142,
      "velocity": 127,
      "chip": "ym2612"
    },
    {
      "channel": 5,
      "note": 88,
      "start": 32.1191,
      "duration": 0.0143,
      "velocity": 87,
      "chip": "ym2612"
    },
    {
      "channel": 2,
      "note": 67,
      "start": 32.1217,
      "duration": 0.014,
      "velocity": 96,
      "chip": "ym2612"
    },
    {
      "channel": 4,
      "note": 54,
      "start": 32.1229,
      "duration": 0.014,
      "velocity": 100,
      "chip": "ym2612"
    },
    {
      "channel": 1,
      "note": 88,
      "start": 32.1241,
      "duration": 0.014,
      "velocity": 87,
      "chip": "ym2612"
    },
    {
      "channel": 0,
      "note": 82,
      "start": 32.1321,
      "duration": 0.016,
      "velocity": 127,
      "chip": "ym2612"
    },
    {
      "channel": 5,
      "note": 88,
      "start": 32.1334,
      "duration": 0.016,
      "velocity": 87,
      "chip": "ym2612"
    },
    {
      "channel": 2,
      "note": 67,
      "start": 32.1357,
      "duration": 0.016,
      "velocity": 96,
      "chip": "ym2612"
    },
    {
      "channel": 4,
      "note": 54,
      "start": 32.1369,
      "duration": 0.016,
      "velocity": 100,
      "chip": "ym2612"
    },
    {
      "channel": 1,
      "note": 88,
      "start": 32.1381,
      "duration": 0.016,
      "velocity": 87,
      "chip": "ym2612"
    },
    {
      "channel": 0,
      "note": 81,
      "start": 32.1482,
      "duration": 0.0161,
      "velocity": 127,
      "chip": "ym2612"
    },
    {
      "channel": 5,
      "note": 88,
      "start": 32.1494,
      "duration": 0.0161,
      "velocity": 87,
      "chip": "ym2612"
    },
    {
      "channel": 2,
      "note": 67,
      "start": 32.1517,
      "duration": 0.0161,
      "velocity": 96,
      "chip": "ym2612"
    },
    {
      "channel": 4,
      "note": 54,
      "start": 32.1529,
      "duration": 0.016,
      "velocity": 100,
      "chip": "ym2612"
    },
    {
      "channel": 1,
      "note": 88,
      "start": 32.1541,
      "duration": 0.0161,
      "velocity": 87,
      "chip": "ym2612"
    },
    {
      "channel": 0,
      "note": 79,
      "start": 32.1643,
      "duration": 0.0161,
      "velocity": 127,
      "chip": "ym2612"
    },
    {
      "channel": 5,
      "note": 88,
      "start": 32.1655,
      "duration": 0.0161,
      "velocity": 87,
      "chip": "ym2612"
    },
    {
      "channel": 2,
      "note": 67,
      "start": 32.1678,
      "duration": 0.0163,
      "velocity": 96,
      "chip": "ym2612"
    },
    {
      "channel": 4,
      "note": 54,
      "start": 32.169,
      "duration": 0.0163,
      "velocity": 100,
      "chip": "ym2612"
    },
    {
      "channel": 1,
      "note": 88,
      "start": 32.1702,
      "duration": 0.0163,
      "velocity": 87,
      "chip": "ym2612"
    },
    {
      "channel": 0,
      "note": 77,
      "start": 32.1804,
      "duration": 0.0161,
      "velocity": 127,
      "chip": "ym2612"
    },
    {
      "channel": 5,
      "note": 88,
      "start": 32.1816,
      "duration": 0.0162,
      "velocity": 87,
      "chip": "ym2612"
    },
    {
      "channel": 3,
      "note": 67,
      "start": 32.183,
      "duration": 0.0159,
      "velocity": 96,
      "chip": "ym2612"
    },
    {
      "channel": 2,
      "note": 67,
      "start": 32.1842,
      "duration": 0.016,
      "velocity": 96,
      "chip": "ym2612"
    },
    {
      "channel": 4,
      "note": 54,
      "start": 32.1853,
      "duration": 0.016,
      "velocity": 100,
      "chip": "ym2612"
    },
    {
      "channel": 1,
      "note": 88,
      "start": 32.1865,
      "duration": 0.0159,
      "velocity": 87,
      "chip": "ym2612"
    },
    {
      "channel": 0,
      "note": 76,
      "start": 32.1965,
      "duration": 0.0163,
      "velocity": 127,
      "chip": "ym2612"
    },
    {
      "channel": 5,
      "note": 88,
      "start": 32.1977,
      "duration": 0.0163,
      "velocity": 87,
      "chip": "ym2612"
    },
    {
      "channel": 3,
      "note": 67,
      "start": 32.1989,
      "duration": 0.0163,
      "velocity": 96,
      "chip": "ym2612"
    },
    {
      "channel": 2,
      "note": 67,
      "start": 32.2001,
      "duration": 0.0163,
      "velocity": 96,
      "chip": "ym2612"
    },
    {
      "channel": 4,
      "note": 54,
      "start": 32.2013,
      "duration": 0.0163,
      "velocity": 100,
      "chip": "ym2612"
    },
    {
      "channel": 1,
      "note": 88,
      "start": 32.2024,
      "duration": 0.0163,
      "velocity": 87,
      "chip": "ym2612"
    },
    {
      "channel": 0,
      "note": 74,
      "start": 32.2129,
      "duration": 0.0182,
      "velocity": 127,
      "chip": "ym2612"
    },
    {
      "channel": 5,
      "note": 88,
      "start": 32.2141,
      "duration": 0.0183,
      "velocity": 87,
      "chip": "ym2612"
    },
    {
      "channel": 3,
      "note": 67,
      "start": 32.2153,
      "duration": 0.0182,
      "velocity": 96,
      "chip": "ym2612"
    },
    {
      "channel": 4,
      "note": 54,
      "start": 32.2176,
      "duration": 0.0186,
      "velocity": 100,
      "chip": "ym2612"
    },
    {
      "channel": 1,
      "note": 88,
      "start": 32.2188,
      "duration": 0.0186,
      "velocity": 87,
      "chip": "ym2612"
    },
    {
      "channel": 0,
      "note": 78,
      "start": 32.2311,
      "duration": 0.0143,
      "velocity": 127,
      "chip": "ym2612"
    },
    {
      "channel": 5,
      "note": 88,
      "start": 32.2323,
      "duration": 0.0143,
      "velocity": 87,
      "chip": "ym2612"
    },
    {
      "channel": 3,
      "note": 67,
      "start": 32.2335,
      "duration": 0.0143,
      "velocity": 96,
      "chip": "ym2612"
    },
    {
      "channel": 4,
      "note": 52,
      "start": 32.2362,
      "duration": 0.014,
      "velocity": 100,
      "chip": "ym2612"
    },
    {
      "channel": 1,
      "note": 88,
      "start": 32.2374,
      "duration": 0.014,
      "velocity": 87,
      "chip": "ym2612"
    },
    {
      "channel": 0,
      "note": 76,
      "start": 32.2454,
      "duration": 0.016,
      "velocity": 127,
      "chip": "ym2612"
    },
    {
      "channel": 5,
      "note": 88,
      "start": 32.2466,
      "duration": 0.016,
      "velocity": 87,
      "chip": "ym2612"
    },
    {
      "channel": 3,
      "note": 67,
      "start": 32.2478,
      "duration": 0.016,
      "velocity": 96,
      "chip": "ym2612"
    },
    {
      "channel": 4,
      "note": 52,
      "start": 32.2502,
      "duration": 0.016,
      "velocity": 100,
      "chip": "ym2612"
    },
    {
      "channel": 1,
      "note": 88,
      "start": 32.2514,
      "duration": 0.016,
      "velocity": 87,
      "chip": "ym2612"
    },
    {
      "channel": 0,
      "note": 75,
      "start": 32.2615,
      "duration": 0.016,
      "velocity": 127,
      "chip": "ym2612"
    },
    {
      "channel": 5,
      "note": 88,
      "start": 32.2627,
      "duration": 0.0161,
      "velocity": 87,
      "chip": "ym2612"
    },
    {
      "channel": 3,
      "note": 67,
      "start": 32.2638,
      "duration": 0.0161,
      "velocity": 96,
      "chip": "ym2612"
    },
    {
      "channel": 4,
      "note": 52,
      "start": 32.2662,
      "duration": 0.0161,
      "velocity": 100,
      "chip": "ym2612"
    },
    {
      "channel": 1,
      "note": 88,
      "start": 32.2674,
      "duration": 0.0161,
      "velocity": 87,
      "chip": "ym2612"
    },
    {
      "channel": 0,
      "note": 73,
      "start": 32.2775,
      "duration": 0.0156,
      "velocity": 127,
      "chip": "ym2612"
    },
    {
      "channel": 5,
      "note": 88,
      "start": 32.2788,
      "duration": 0.016,
      "velocity": 87,
      "chip": "ym2612"
    },
    {
      "channel": 4,
      "note": 52,
      "start": 32.2823,
      "duration": 0.0162,
      "velocity": 100,
      "chip": "ym2612"
    },
    {
      "channel": 1,
      "note": 88,
      "start": 32.2835,
      "duration": 0.0162,
      "velocity": 87,
      "chip": "ym2612"
    },
    {
      "channel": 0,
      "note": 71,
      "start": 32.2931,
      "duration": 0.0161,
      "velocity": 127,
      "chip": "ym2612"
    },
    {
      "channel": 5,
      "note": 88,
      "start": 32.2948,
      "duration": 0.0161,
      "velocity": 87,
      "chip": "ym2612"
    },
    {
      "channel": 4,
      "note": 52,
      "start": 32.2985,
      "duration": 0.016,
      "velocity": 100,
      "chip": "ym2612"
    },
    {
      "channel": 1,
      "note": 88,
      "start": 32.2997,
      "duration": 0.016,
      "velocity": 87,
      "chip": "ym2612"
    },
    {
      "channel": 0,
      "note": 70,
      "start": 32.3092,
      "duration": 0.0161,
      "velocity": 127,
      "chip": "ym2612"
    },
    {
      "channel": 5,
      "note": 88,
      "start": 32.311,
      "duration": 0.0155,
      "velocity": 87,
      "chip": "ym2612"
    },
    {
      "channel": 4,
      "note": 52,
      "start": 32.3145,
      "duration": 0.0161,
      "velocity": 100,
      "chip": "ym2612"
    },
    {
      "channel": 1,
      "note": 88,
      "start": 32.3157,
      "duration": 0.0161,
      "velocity": 87,
      "chip": "ym2612"
    },
    {
      "channel": 0,
      "note": 68,
      "start": 32.3253,
      "duration": 0.018,
      "velocity": 127,
      "chip": "ym2612"
    },
    {
      "channel": 5,
      "note": 88,
      "start": 32.3265,
      "duration": 0.0186,
      "velocity": 87,
      "chip": "ym2612"
    },
    {
      "channel": 4,
      "note": 52,
      "start": 32.3306,
      "duration": 0.0183,
      "velocity": 100,
      "chip": "ym2612"
    },
    {
      "channel": 1,
      "note": 88,
      "start": 32.3319,
      "duration": 0.0183,
      "velocity": 87,
      "chip": "ym2612"
    },
    {
      "channel": 0,
      "note": 78,
      "start": 32.3435,
      "duration": 0.014,
      "velocity": 127,
      "chip": "ym2612"
    },
    {
      "channel": 5,
      "note": 88,
      "start": 32.3451,
      "duration": 0.0137,
      "velocity": 87,
      "chip": "ym2612"
    },
    {
      "channel": 2,
      "note": 73,
      "start": 32.3477,
      "duration": 0.0141,
      "velocity": 96,
      "chip": "ym2612"
    },
    {
      "channel": 4,
      "note": 52,
      "start": 32.3489,
      "duration": 0.014,
      "velocity": 100,
      "chip": "ym2612"
    },
    {
      "channel": 1,
      "note": 88,
      "start": 32.3501,
      "duration": 0.014,
      "velocity": 87,
      "chip": "ym2612"
    },
    {
      "channel": 0,
      "note": 76,
      "start": 32.3575,
      "duration": 0.0161,
      "velocity": 127,
      "chip": "ym2612"
    },
    {
      "channel": 5,
      "note": 88,
      "start": 32.3587,
      "duration": 0.016,
      "velocity": 87,
      "chip": "ym2612"
    },
    {
      "channel": 2,
      "note": 73,
      "start": 32.3617,
      "duration": 0.0159,
      "velocity": 96,
      "chip": "ym2612"
    },
    {
      "channel": 4,
      "note": 52,
      "start": 32.3629,
      "duration": 0.016,
      "velocity": 100,
      "chip": "ym2612"
    },
    {
      "channel": 1,
      "note": 88,
      "start": 32.3641,
      "duration": 0.016,
      "velocity": 87,
      "chip": "ym2612"
    },
    {
      "channel": 0,
      "note": 75,
      "start": 32.3736,
      "duration": 0.0161,
      "velocity": 127,
      "chip": "ym2612"
    },
    {
      "channel": 5,
      "note": 88,
      "start": 32.3748,
      "duration": 0.0161,
      "velocity": 87,
      "chip": "ym2612"
    },
    {
      "channel": 2,
      "note": 73,
      "start": 32.3776,
      "duration": 0.0156,
      "velocity": 96,
      "chip": "ym2612"
    },
    {
      "channel": 4,
      "note": 52,
      "start": 32.3789,
      "duration": 0.0161,
      "velocity": 100,
      "chip": "ym2612"
    },
    {
      "channel": 1,
      "note": 88,
      "start": 32.3802,
      "duration": 0.0161,
      "velocity": 87,
      "chip": "ym2612"
    },
    {
      "channel": 0,
      "note": 73,
      "start": 32.3897,
      "duration": 0.0161,
      "velocity": 127,
      "chip": "ym2612"
    },
    {
      "channel": 5,
      "note": 88,
      "start": 32.3909,
      "duration": 0.0161,
      "velocity": 87,
      "chip": "ym2612"
    },
    {
      "channel": 2,
      "note": 73,
      "start": 32.3932,
      "duration": 0.0164,
      "velocity": 96,
      "chip": "ym2612"
    },
    {
      "channel": 4,
      "note": 52,
      "start": 32.395,
      "duration": 0.0163,
      "velocity": 100,
      "chip": "ym2612"
    },
    {
      "channel": 1,
      "note": 88,
      "start": 32.3963,
      "duration": 0.0163,
      "velocity": 87,
      "chip": "ym2612"
    },
    {
      "channel": 0,
      "note": 71,
      "start": 32.4058,
      "duration": 0.0161,
      "velocity": 127,
      "chip": "ym2612"
    },
    {
      "channel": 5,
      "note": 88,
      "start": 32.407,
      "duration": 0.0161,
      "velocity": 87,
      "chip": "ym2612"
    },
    {
      "channel": 3,
      "note": 73,
      "start": 32.4084,
      "duration": 0.0159,
      "velocity": 96,
      "chip": "ym2612"
    },
    {
      "channel": 2,
      "note": 73,
      "start": 32.4096,
      "duration": 0.0159,
      "velocity": 96,
      "chip": "ym2612"
    },
    {
      "channel": 4,
      "note": 52,
      "start": 32.4113,
      "duration": 0.0156,
      "velocity": 100,
      "chip": "ym2612"
    },
    {
      "channel": 0,
      "note": 70,
      "start": 32.4219,
      "duration": 0.0161,
      "velocity": 127,
      "chip": "ym2612"
    },
    {
      "channel": 5,
      "note": 88,
      "start": 32.4231,
      "duration": 0.0161,
      "velocity": 87,
      "chip": "ym2612"
    },
    {
      "channel": 3,
      "note": 73,
      "start": 32.4243,
      "duration": 0.016,
      "velocity": 96,
      "chip": "ym2612"
    },
    {
      "channel": 2,
      "note": 73,
      "start": 32.4255,
      "duration": 0.016,
      "velocity": 96,
      "chip": "ym2612"
    },
    {
      "channel": 4,
      "note": 52,
      "start": 32.4269,
      "duration": 0.0158,
      "velocity": 100,
      "chip": "ym2612"
    },
    {
      "channel": 0,
      "note": 68,
      "start": 32.438,
      "duration": 0.0209,
      "velocity": 115,
      "chip": "ym2612"
    },
    {
      "channel": 5,
      "note": 88,
      "start": 32.4392,
      "duration": 0.0211,
      "velocity": 87,
      "chip": "ym2612"
    },
    {
      "channel": 3,
      "note": 73,
      "start": 32.4403,
      "duration": 0.0215,
      "velocity": 96,
      "chip": "ym2612"
    },
    {
      "channel": 4,
      "note": 52,
      "start": 32.4427,
      "duration": 0.0235,
      "velocity": 100,
      "chip": "ym2612"
    },
    {
      "channel": 1,
      "note": 79,
      "start": 32.4554,
      "duration": 0.0144,
      "velocity": 127,
      "chip": "ym2612"
    },
    {
      "channel": 0,
      "note": 36,
      "start": 32.4589,
      "duration": 0.0126,
      "velocity": 115,
      "chip": "ym2612"
    },
    {
      "channel": 5,
      "note": 88,
      "start": 32.4603,
      "duration": 0.0124,
      "velocity": 87,
      "chip": "ym2612"
    },
    {
      "channel": 3,
      "note": 73,
      "start": 32.4619,
      "duration": 0.0121,
      "velocity": 96,
      "chip": "ym2612"
    },
    {
      "channel": 2,
      "note": 76,
      "start": 32.4648,
      "duration": 0.0104,
      "velocity": 105,
      "chip": "ym2612"
    },
    {
      "channel": 4,
      "note": 50,
      "start": 32.4663,
      "duration": 0.01,
      "velocity": 100,
      "chip": "ym2612"
    },
    {
      "channel": 1,
      "note": 79,
      "start": 32.4698,
      "duration": 0.0159,
      "velocity": 127,
      "chip": "ym2612"
    },
    {
      "channel": 0,
      "note": 36,
      "start": 32.4715,
      "duration": 0.0159,
      "velocity": 115,
      "chip": "ym2612"
    },
    {
      "channel": 5,
      "note": 88,
      "start": 32.4727,
      "duration": 0.0159,
      "velocity": 87,
      "chip": "ym2612"
    },
    {
      "channel": 3,
      "note": 73,
      "start": 32.4739,
      "duration": 0.0158,
      "velocity": 96,
      "chip": "ym2612"
    },
    {
      "channel": 2,
      "note": 76,
      "start": 32.4751,
      "duration": 0.0158,
      "velocity": 105,
      "chip": "ym2612"
    },
    {
      "channel": 4,
      "note": 50,
      "start": 32.4763,
      "duration": 0.0158,
      "velocity": 100,
      "chip": "ym2612"
    },
    {
      "channel": 1,
      "note": 79,
      "start": 32.4857,
      "duration": 0.0161,
      "velocity": 127,
      "chip": "ym2612"
    },
    {
      "channel": 0,
      "note": 37,
      "start": 32.4874,
      "duration": 0.0161,
      "velocity": 115,
      "chip": "ym2612"
    },
    {
      "channel": 5,
      "note": 88,
      "start": 32.4886,
      "duration": 0.0161,
      "velocity": 87,
      "chip": "ym2612"
    },
    {
      "channel": 3,
      "note": 73,
      "start": 32.4898,
      "duration": 0.0162,
      "velocity": 96,
      "chip": "ym2612"
    },
    {
      "channel": 2,
      "note": 76,
      "start": 32.4909,
      "duration": 0.0161,
      "velocity": 105,
      "chip": "ym2612"
    },
    {
      "channel": 4,
      "note": 50,
      "start": 32.4921,
      "duration": 0.0161,
      "velocity": 100,
      "chip": "ym2612"
    },
    {
      "channel": 1,
      "note": 79,
      "start": 32.5019,
      "duration": 0.0161,
      "velocity": 127,
      "chip": "ym2612"
    },
    {
      "channel": 0,
      "note": 37,
      "start": 32.5035,
      "duration": 0.0161,
      "velocity": 115,
      "chip": "ym2612"
    },
    {
      "channel": 5,
      "note": 88,
      "start": 32.5047,
      "duration": 0.0162,
      "velocity": 87,
      "chip": "ym2612"
    },
    {
      "channel": 2,
      "note": 76,
      "start": 32.5071,
      "duration": 0.0163,
      "velocity": 105,
      "chip": "ym2612"
    },
    {
      "channel": 4,
      "note": 50,
      "start": 32.5082,
      "duration": 0.0163,
      "velocity": 100,
      "chip": "ym2612"
    },
    {
      "channel": 1,
      "note": 79,
      "start": 32.518,
      "duration": 0.0161,
      "velocity": 127,
      "chip": "ym2612"
    },
    {
      "channel": 0,
      "note": 38,
      "start": 32.5196,
      "duration": 0.0161,
      "velocity": 115,
      "chip": "ym2612"
    },
    {
      "channel": 5,
      "note": 88,
      "start": 32.5209,
      "duration": 0.0161,
      "velocity": 87,
      "chip": "ym2612"
    },
    {
      "channel": 2,
      "note": 76,
      "start": 32.5234,
      "duration": 0.016,
      "velocity": 105,
      "chip": "ym2612"
    },
    {
      "channel": 4,
      "note": 50,
      "start": 32.5246,
      "duration": 0.016,
      "velocity": 100,
      "chip": "ym2612"
    },
    {
      "channel": 1,
      "note": 79,
      "start": 32.5341,
      "duration": 0.0161,
      "velocity": 127,
      "chip": "ym2612"
    },
    {
      "channel": 0,
      "note": 38,
      "start": 32.5357,
      "duration": 0.0161,
      "velocity": 115,
      "chip": "ym2612"
    },
    {
      "channel": 5,
      "note": 88,
      "start": 32.537,
      "duration": 0.0161,
      "velocity": 87,
      "chip": "ym2612"
    },
    {
      "channel": 2,
      "note": 76,
      "start": 32.5394,
      "duration": 0.0161,
      "velocity": 105,
      "chip": "ym2612"
    },
    {
      "channel": 4,
      "note": 50,
      "start": 32.5405,
      "duration": 0.0161,
      "velocity": 100,
      "chip": "ym2612"
    },
    {
      "channel": 1,
      "note": 79,
      "start": 32.5501,
      "duration": 0.0161,
      "velocity": 127,
      "chip": "ym2612"
    },
    {
      "channel": 0,
      "note": 39,
      "start": 32.5519,
      "duration": 0.0161,
      "velocity": 115,
      "chip": "ym2612"
    },
    {
      "channel": 5,
      "note": 88,
      "start": 32.5531,
      "duration": 0.0161,
      "velocity": 87,
      "chip": "ym2612"
    },
    {
      "channel": 2,
      "note": 76,
      "start": 32.5555,
      "duration": 0.0161,
      "velocity": 105,
      "chip": "ym2612"
    },
    {
      "channel": 4,
      "note": 50,
      "start": 32.5566,
      "duration": 0.0161,
      "velocity": 100,
      "chip": "ym2612"
    },
    {
      "channel": 1,
      "note": 79,
      "start": 32.5662,
      "duration": 0.0161,
      "velocity": 127,
      "chip": "ym2612"
    },
    {
      "channel": 0,
      "note": 39,
      "start": 32.568,
      "duration": 0.0161,
      "velocity": 115,
      "chip": "ym2612"
    },
    {
      "channel": 5,
      "note": 88,
      "start": 32.5692,
      "duration": 0.0162,
      "velocity": 87,
      "chip": "ym2612"
    },
    {
      "channel": 2,
      "note": 76,
      "start": 32.5716,
      "duration": 0.0161,
      "velocity": 105,
      "chip": "ym2612"
    },
    {
      "channel": 4,
      "note": 50,
      "start": 32.5727,
      "duration": 0.0162,
      "velocity": 100,
      "chip": "ym2612"
    },
    {
      "channel": 1,
      "note": 79,
      "start": 32.5823,
      "duration": 0.0161,
      "velocity": 127,
      "chip": "ym2612"
    },
    {
      "channel": 0,
      "note": 40,
      "start": 32.5841,
      "duration": 0.0161,
      "velocity": 115,
      "chip": "ym2612"
    },
    {
      "channel": 5,
      "note": 88,
      "start": 32.5853,
      "duration": 0.016,
      "velocity": 87,
      "chip": "ym2612"
    },
    {
      "channel": 2,
      "note": 76,
      "start": 32.5877,
      "duration": 0.0161,
      "velocity": 105,
      "chip": "ym2612"
    },
    {
      "channel": 4,
      "note": 50,
      "start": 32.5889,
      "duration": 0.016,
      "velocity": 100,
      "chip": "ym2612"
    },
    {
      "channel": 1,
      "note": 79,
      "start": 32.5984,
      "duration": 0.0161,
      "velocity": 127,
      "chip": "ym2612"
    },
    {
      "channel": 0,
      "note": 40,
      "start": 32.6001,
      "duration": 0.0161,
      "velocity": 115,
      "chip": "ym2612"
    },
    {
      "channel": 2,
      "note": 76,
      "start": 32.6038,
      "duration": 0.0161,
      "velocity": 105,
      "chip": "ym2612"
    },
    {
      "channel": 4,
      "note": 50,
      "start": 32.6049,
      "duration": 0.0161,
      "velocity": 100,
      "chip": "ym2612"
    },
    {
      "channel": 1,
      "note": 79,
      "start": 32.6145,
      "duration": 0.0161,
      "velocity": 127,
      "chip": "ym2612"
    },
    {
      "channel": 0,
      "note": 40,
      "start": 32.6162,
      "duration": 0.0161,
      "velocity": 115,
      "chip": "ym2612"
    },
    {
      "channel": 2,
      "note": 76,
      "start": 32.6199,
      "duration": 0.0163,
      "velocity": 105,
      "chip": "ym2612"
    },
    {
      "channel": 4,
      "note": 50,
      "start": 32.621,
      "duration": 0.0163,
      "velocity": 100,
      "chip": "ym2612"
    },
    {
      "channel": 1,
      "note": 79,
      "start": 32.6306,
      "duration": 0.0161,
      "velocity": 127,
      "chip": "ym2612"
    },
    {
      "channel": 0,
      "note": 41,
      "start": 32.6323,
      "duration": 0.0161,
      "velocity": 115,
      "chip": "ym2612"
    },
    {
      "channel": 4,
      "note": 50,
      "start": 32.6373,
      "duration": 0.016,
      "velocity": 100,
      "chip": "ym2612"
    },
    {
      "channel": 1,
      "note": 79,
      "start": 32.6467,
      "duration": 0.0162,
      "velocity": 127,
      "chip": "ym2612"
    },
    {
      "channel": 0,
      "note": 41,
      "start": 32.6484,
      "duration": 0.0161,
      "velocity": 115,
      "chip": "ym2612"
    },
    {
      "channel": 4,
      "note": 50,
      "start": 32.6533,
      "duration": 0.0161,
      "velocity": 100,
      "chip": "ym2612"
    },
    {
      "channel": 1,
      "note": 79,
      "start": 32.6629,
      "duration": 0.0162,
      "velocity": 127,
      "chip": "ym2612"
    },
    {
      "channel": 0,
      "note": 42,
      "start": 32.6646,
      "duration": 0.0163,
      "velocity": 115,
      "chip": "ym2612"
    },
    {
      "channel": 4,
      "note": 50,
      "start": 32.6694,
      "duration": 0.0166,
      "velocity": 100,
      "chip": "ym2612"
    },
    {
      "channel": 1,
      "note": 79,
      "start": 32.6792,
      "duration": 0.0163,
      "velocity": 127,
      "chip": "ym2612"
    },
    {
      "channel": 0,
      "note": 42,
      "start": 32.6809,
      "duration": 0.0163,
      "velocity": 115,
      "chip": "ym2612"
    },
    {
      "channel": 2,
      "note": 76,
      "start": 32.6848,
      "duration": 0.016,
      "velocity": 105,
      "chip": "ym2612"
    },
    {
      "channel": 4,
      "note": 50,
      "start": 32.686,
      "duration": 0.0161,
      "velocity": 100,
      "chip": "ym2612"
    },
    {
      "channel": 1,
      "note": 79,
      "start": 32.6954,
      "duration": 0.0163,
      "velocity": 127,
      "chip": "ym2612"
    },
    {
      "channel": 0,
      "note": 43,
      "start": 32.6971,
      "duration": 0.0163,
      "velocity": 115,
      "chip": "ym2612"
    },
    {
      "channel": 2,
      "note": 76,
      "start": 32.7008,
      "duration": 0.0162,
      "velocity": 105,
      "chip": "ym2612"
    },
    {
      "channel": 4,
      "note": 50,
      "start": 32.702,
      "duration": 0.0162,
      "velocity": 100,
      "chip": "ym2612"
    },
    {
      "channel": 1,
      "note": 79,
      "start": 32.7117,
      "duration": 0.0161,
      "velocity": 127,
      "chip": "ym2612"
    },
    {
      "channel": 0,
      "note": 43,
      "start": 32.7134,
      "duration": 0.0161,
      "velocity": 115,
      "chip": "ym2612"
    },
    {
      "channel": 2,
      "note": 76,
      "start": 32.7171,
      "duration": 0.0161,
      "velocity": 105,
      "chip": "ym2612"
    },
    {
      "channel": 4,
      "note": 50,
      "start": 32.7182,
      "duration": 0.0162,
      "velocity": 100,
      "chip": "ym2612"
    },
    {
      "channel": 1,
      "note": 79,
      "start": 32.7278,
      "duration": 0.0153,
      "velocity": 1,
      "chip": "ym2612"
    },
    {
      "channel": 0,
      "note": 44,
      "start": 32.7295,
      "duration": 0.0159,
      "velocity": 115,
      "chip": "ym2612"
    },
    {
      "channel": 2,
      "note": 76,
      "start": 32.7332,
      "duration": 0.0158,
      "velocity": 105,
      "chip": "ym2612"
    },
    {
      "channel": 4,
      "note": 50,
      "start": 32.7344,
      "duration": 0.0158,
      "velocity": 100,
      "chip": "ym2612"
    },
    {
      "channel": 0,
      "note": 44,
      "start": 32.7454,
      "duration": 0.0146,
      "velocity": 115,
      "chip": "ym2612"
    },
    {
      "channel": 4,
      "note": 50,
      "start": 32.7501,
      "duration": 0.0153,
      "velocity": 100,
      "chip": "ym2612"
    },
    {
      "channel": 0,
      "note": 44,
      "start": 32.76,
      "duration": 0.0161,
      "velocity": 115,
      "chip": "ym2612"
    },
    {
      "channel": 4,
      "note": 50,
      "start": 32.7654,
      "duration": 0.0161,
      "velocity": 100,
      "chip": "ym2612"
    },
    {
      "channel": 0,
      "note": 45,
      "start": 32.7761,
      "duration": 0.0215,
      "velocity": 115,
      "chip": "ym2612"
    },
    {
      "channel": 4,
      "note": 50,
      "start": 32.7815,
      "duration": 0.0215,
      "velocity": 100,
      "chip": "ym2612"
    },
    {
      "channel": 1,
      "note": 79,
      "start": 32.7937,
      "duration": 0.0142,
      "velocity": 127,
      "chip": "ym2612"
    },
    {
      "channel": 0,
      "note": 36,
      "start": 32.7977,
      "duration": 0.0119,
      "velocity": 115,
      "chip": "ym2612"
    },
    {
      "channel": 2,
      "note": 76,
      "start": 32.8015,
      "duration": 0.0123,
      "velocity": 105,
      "chip": "ym2612"
    },
    {
      "channel": 4,
      "note": 57,
      "start": 32.803,
      "duration": 0.0121,
      "velocity": 100,
      "chip": "ym2612"
    },
    {
      "channel": 1,
      "note": 79,
      "start": 32.8078,
      "duration": 0.016,
      "velocity": 127,
      "chip": "ym2612"
    },
    {
      "channel": 0,
      "note": 36,
      "start": 32.8096,
      "duration": 0.016,
      "velocity": 115,
      "chip": "ym2612"
    },
    {
      "channel": 2,
      "note": 76,
      "start": 32.8139,
      "duration": 0.0159,
      "velocity": 105,
      "chip": "ym2612"
    },
    {
      "channel": 4,
      "note": 57,
      "start": 32.8151,
      "duration": 0.0158,
      "velocity": 100,
      "chip": "ym2612"
    },
    {
      "channel": 1,
      "note": 79,
      "start": 32.8239,
      "duration": 0.0161,
      "velocity": 127,
      "chip": "ym2612"
    },
    {
      "channel": 0,
      "note": 37,
      "start": 32.8255,
      "duration": 0.0161,
      "velocity": 115,
      "chip": "ym2612"
    },
    {
      "channel": 2,
      "note": 76,
      "start": 32.8298,
      "duration": 0.0161,
      "velocity": 105,
      "chip": "ym2612"
    },
    {
      "channel": 4,
      "note": 57,
      "start": 32.8309,
      "duration": 0.0161,
      "velocity": 100,
      "chip": "ym2612"
    },
    {
      "channel": 1,
      "note": 79,
      "start": 32.84,
      "duration": 0.0161,
      "velocity": 127,
      "chip": "ym2612"
    },
    {
      "channel": 0,
      "note": 37,
      "start": 32.8416,
      "duration": 0.0162,
      "velocity": 115,
      "chip": "ym2612"
    },
    {
      "channel": 2,
      "note": 76,
      "start": 32.8459,
      "duration": 0.0161,
      "velocity": 105,
      "chip": "ym2612"
    },
    {
      "channel": 4,
      "note": 57,
      "start": 32.847,
      "duration": 0.0161,
      "velocity": 100,
      "chip": "ym2612"
    },
    {
      "channel": 1,
      "note": 79,
      "start": 32.8561,
      "duration": 0.0161,
      "velocity": 127,
      "chip": "ym2612"
    },
    {
      "channel": 0,
      "note": 38,
      "start": 32.8578,
      "duration": 0.0161,
      "velocity": 115,
      "chip": "ym2612"
    },
    {
      "channel": 4,
      "note": 57,
      "start": 32.8632,
      "duration": 0.016,
      "velocity": 100,
      "chip": "ym2612"
    },
    {
      "channel": 1,
      "note": 79,
      "start": 32.8722,
      "duration": 0.0161,
      "velocity": 127,
      "chip": "ym2612"
    },
    {
      "channel": 0,
      "note": 38,
      "start": 32.8739,
      "duration": 0.0161,
      "velocity": 115,
      "chip": "ym2612"
    },
    {
      "channel": 4,
      "note": 57,
      "start": 32.8792,
      "duration": 0.0162,
      "velocity": 100,
      "chip": "ym2612"
    },
    {
      "channel": 1,
      "note": 79,
      "start": 32.8883,
      "duration": 0.0161,
      "velocity": 127,
      "chip": "ym2612"
    },
    {
      "channel": 0,
      "note": 39,
      "start": 32.89,
      "duration": 0.0179,
      "velocity": 115,
      "chip": "ym2612"
    },
    {
      "channel": 4,
      "note": 57,
      "start": 32.8954,
      "duration": 0.0186,
      "velocity": 100,
      "chip": "ym2612"
    },
    {
      "channel": 1,
      "note": 79,
      "start": 32.9043,
      "duration": 0.0161,
      "velocity": 127,
      "chip": "ym2612"
    },
    {
      "channel": 0,
      "note": 36,
      "start": 32.9079,
      "duration": 0.0143,
      "velocity": 115,
      "chip": "ym2612"
    },
    {
      "channel": 2,
      "note": 76,
      "start": 32.9125,
      "duration": 0.0134,
      "velocity": 105,
      "chip": "ym2612"
    },
    {
      "channel": 4,
      "note": 57,
      "start": 32.914,
      "duration": 0.0137,
      "velocity": 100,
      "chip": "ym2612"
    },
    {
      "channel": 1,
      "note": 79,
      "start": 32.9204,
      "duration": 0.0161,
      "velocity": 127,
      "chip": "ym2612"
    },
    {
      "channel": 0,
      "note": 36,
      "start": 32.9222,
      "duration": 0.016,
      "velocity": 115,
      "chip": "ym2612"
    },
    {
      "channel": 2,
      "note": 76,
      "start": 32.9259,
      "duration": 0.016,
      "velocity": 105,
      "chip": "ym2612"
    },
    {
      "channel": 4,
      "note": 57,
      "start": 32.9277,
      "duration": 0.0154,
      "velocity": 100,
      "chip": "ym2612"
    },
    {
      "channel": 1,
      "note": 79,
      "start": 32.9365,
      "duration": 0.0162,
      "velocity": 127,
      "chip": "ym2612"
    },
    {
      "channel": 0,
      "note": 37,
      "start": 32.9383,
      "duration": 0.0161,
      "velocity": 115,
      "chip": "ym2612"
    },
    {
      "channel": 2,
      "note": 76,
      "start": 32.9419,
      "duration": 0.0161,
      "velocity": 105,
      "chip": "ym2612"
    },
    {
      "channel": 4,
      "note": 57,
      "start": 32.9431,
      "duration": 0.0161,
      "velocity": 100,
      "chip": "ym2612"
    },
    {
      "channel": 1,
      "note": 79,
      "start": 32.9527,
      "duration": 0.0161,
      "velocity": 127,
      "chip": "ym2612"
    },
    {
      "channel": 0,
      "note": 37,
      "start": 32.9543,
      "duration": 0.0161,
      "velocity": 115,
      "chip": "ym2612"
    },
    {
      "channel": 2,
      "note": 76,
      "start": 32.958,
      "duration": 0.0161,
      "velocity": 105,
      "chip": "ym2612"
    },
    {
      "channel": 4,
      "note": 57,
      "start": 32.9592,
      "duration": 0.0161,
      "velocity": 100,
      "chip": "ym2612"
    },
    {
      "channel": 1,
      "note": 79,
      "start": 32.9688,
      "duration": 0.0161,
      "velocity": 127,
      "chip": "ym2612"
    },
    {
      "channel": 0,
      "note": 38,
      "start": 32.9704,
      "duration": 0.0161,
      "velocity": 115,
      "chip": "ym2612"
    },
    {
      "channel": 2,
      "note": 76,
      "start": 32.9741,
      "duration": 0.0161,
      "velocity": 105,
      "chip": "ym2612"
    },
    {
      "channel": 4,
      "note": 57,
      "start": 32.9753,
      "duration": 0.0161,
      "velocity": 100,
      "chip": "ym2612"
    },
    {
      "channel": 1,
      "note": 79,
      "start": 32.9849,
      "duration": 0.0161,
      "velocity": 127,
      "chip": "ym2612"
    },
    {
      "channel": 0,
      "note": 38,
      "start": 32.9865,
      "duration": 0.0162,
      "velocity": 115,
      "chip": "ym2612"
    },
    {
      "channel": 2,
      "note": 76,
      "start": 32.9902,
      "duration": 0.0161,
      "velocity": 105,
      "chip": "ym2612"
    },
    {
      "channel": 4,
      "note": 57,
      "start": 32.9914,
      "duration": 0.0161,
      "velocity": 100,
      "chip": "ym2612"
    },
    {
      "channel": 1,
      "note": 79,
      "start": 33.001,
      "duration": 0.0179,
      "velocity": 127,
      "chip": "ym2612"
    },
    {
      "channel": 0,
      "note": 39,
      "start": 33.0027,
      "duration": 0.0179,
      "velocity": 115,
      "chip": "ym2612"
    },
    {
      "channel": 2,
      "note": 76,
      "start": 33.0063,
      "duration": 0.0179,
      "velocity": 105,
      "chip": "ym2612"
    },
    {
      "channel": 4,
      "note": 57,
      "start": 33.0075,
      "duration": 0.0179,
      "velocity": 100,
      "chip": "ym2612"
    },
    {
      "channel": 1,
      "note": 79,
      "start": 33.0188,
      "duration": 0.0144,
      "velocity": 127,
      "chip": "ym2612"
    },
    {
      "channel": 0,
      "note": 39,
      "start": 33.0206,
      "duration": 0.0144,
      "velocity": 115,
      "chip": "ym2612"
    },
    {
      "channel": 2,
      "note": 76,
      "start": 33.0242,
      "duration": 0.0144,
      "velocity": 105,
      "chip": "ym2612"
    },
    {
      "channel": 4,
      "note": 57,
      "start": 33.0254,
      "duration": 0.0143,
      "velocity": 100,
      "chip": "ym2612"
    },
    {
      "channel": 1,
      "note": 79,
      "start": 33.0332,
      "duration": 0.016,
      "velocity": 127,
      "chip": "ym2612"
    },
    {
      "channel": 0,
      "note": 40,
      "start": 33.0349,
      "duration": 0.016,
      "velocity": 115,
      "chip": "ym2612"
    },
    {
      "channel": 2,
      "note": 76,
      "start": 33.0386,
      "duration": 0.016,
      "velocity": 105,
      "chip": "ym2612"
    },
    {
      "channel": 4,
      "note": 57,
      "start": 33.0397,
      "duration": 0.0161,
      "velocity": 100,
      "chip": "ym2612"
    },
    {
      "channel": 1,
      "note": 79,
      "start": 33.0493,
      "duration": 0.0161,
      "velocity": 127,
      "chip": "ym2612"
    },
    {
      "channel": 0,
      "note": 40,
      "start": 33.051,
      "duration": 0.0161,
      "velocity": 115,
      "chip": "ym2612"
    },
    {
      "channel": 2,
      "note": 76,
      "start": 33.0546,
      "duration": 0.0161,
      "velocity": 105,
      "chip": "ym2612"
    },
    {
      "channel": 4,
      "note": 57,
      "start": 33.0558,
      "duration": 0.0161,
      "velocity": 100,
      "chip": "ym2612"
    },
    {
      "channel": 1,
      "note": 79,
      "start": 33.0654,
      "duration": 0.0161,
      "velocity": 127,
      "chip": "ym2612"
    },
    {
      "channel": 0,
      "note": 40,
      "start": 33.0671,
      "duration": 0.0161,
      "velocity": 115,
      "chip": "ym2612"
    },
    {
      "channel": 2,
      "note": 76,
      "start": 33.0707,
      "duration": 0.0161,
      "velocity": 105,
      "chip": "ym2612"
    },
    {
      "channel": 4,
      "note": 57,
      "start": 33.0719,
      "duration": 0.0161,
      "velocity": 100,
      "chip": "ym2612"
    },
    {
      "channel": 1,
      "note": 79,
      "start": 33.0815,
      "duration": 0.0161,
      "velocity": 127,
      "chip": "ym2612"
    },
    {
      "channel": 0,
      "note": 41,
      "start": 33.0832,
      "duration": 0.0161,
      "velocity": 115,
      "chip": "ym2612"
    },
    {
      "channel": 4,
      "note": 57,
      "start": 33.088,
      "duration": 0.0161,
      "velocity": 100,
      "chip": "ym2612"
    },
    {
      "channel": 1,
      "note": 79,
      "start": 33.0976,
      "duration": 0.0161,
      "velocity": 127,
      "chip": "ym2612"
    },
    {
      "channel": 0,
      "note": 41,
      "start": 33.0993,
      "duration": 0.0161,
      "velocity": 115,
      "chip": "ym2612"
    },
    {
      "channel": 4,
      "note": 57,
      "start": 33.1041,
      "duration": 0.0161,
      "velocity": 100,
      "chip": "ym2612"
    },
    {
      "channel": 1,
      "note": 79,
      "start": 33.1137,
      "duration": 0.0178,
      "velocity": 127,
      "chip": "ym2612"
    },
    {
      "channel": 0,
      "note": 42,
      "start": 33.1154,
      "duration": 0.0197,
      "velocity": 124,
      "chip": "ym2612"
    },
    {
      "channel": 4,
      "note": 57,
      "start": 33.1202,
      "duration": 0.02,
      "velocity": 100,
      "chip": "ym2612"
    },
    {
      "channel": 1,
      "note": 72,
      "start": 33.1316,
      "duration": 0.0144,
      "velocity": 127,
      "chip": "ym2612"
    },
    {
      "channel": 0,
      "note": 84,
      "start": 33.1351,
      "duration": 0.0126,
      "velocity": 124,
      "chip": "ym2612"
    },
    {
      "channel": 2,
      "note": 76,
      "start": 33.1391,
      "duration": 0.0124,
      "velocity": 105,
      "chip": "ym2612"
    },
    {
      "channel": 4,
      "note": 57,
      "start": 33.1402,
      "duration": 0.0124,
      "velocity": 100,
      "chip": "ym2612"
    },
    {
      "channel": 1,
      "note": 72,
      "start": 33.146,
      "duration": 0.0163,
      "velocity": 127,
      "chip": "ym2612"
    },
    {
      "channel": 0,
      "note": 82,
      "start": 33.1477,
      "duration": 0.0163,
      "velocity": 124,
      "chip": "ym2612"
    },
    {
      "channel": 2,
      "note": 76,
      "start": 33.1515,
      "duration": 0.0162,
      "velocity": 105,
      "chip": "ym2612"
    },
    {
      "channel": 4,
      "note": 57,
      "start": 33.1526,
      "duration": 0.0162,
      "velocity": 100,
      "chip": "ym2612"
    },
    {
      "channel": 1,
      "note": 72,
      "start": 33.1624,
      "duration": 0.0163,
      "velocity": 127,
      "chip": "ym2612"
    },
    {
      "channel": 0,
      "note": 80,
      "start": 33.1641,
      "duration": 0.0163,
      "velocity": 124,
      "chip": "ym2612"
    },
    {
      "channel": 2,
      "note": 76,
      "start": 33.1677,
      "duration": 0.0163,
      "velocity": 105,
      "chip": "ym2612"
    },
    {
      "channel": 4,
      "note": 57,
      "start": 33.1688,
      "duration": 0.0163,
      "velocity": 100,
      "chip": "ym2612"
    },
    {
      "channel": 1,
      "note": 72,
      "start": 33.1786,
      "duration": 0.0162,
      "velocity": 127,
      "chip": "ym2612"
    },
    {
      "channel": 0,
      "note": 77,
      "start": 33.1804,
      "duration": 0.0161,
      "velocity": 124,
      "chip": "ym2612"
    },
    {
      "channel": 2,
      "note": 76,
      "start": 33.1841,
      "duration": 0.0161,
      "velocity": 105,
      "chip": "ym2612"
    },
    {
      "channel": 4,
      "note": 57,
      "start": 33.1852,
      "duration": 0.0161,
      "velocity": 100,
      "chip": "ym2612"
    },
    {
      "channel": 1,
      "note": 72,
      "start": 33.1948,
      "duration": 0.0156,
      "velocity": 127,
      "chip": "ym2612"
    },
    {
      "channel": 0,
      "note": 75,
      "start": 33.1965,
      "duration": 0.0161,
      "velocity": 124,
      "chip": "ym2612"
    },
    {
      "channel": 4,
      "note": 57,
      "start": 33.2013,
      "duration": 0.0161,
      "velocity": 100,
      "chip": "ym2612"
    },
    {
      "channel": 1,
      "note": 72,
      "start": 33.2105,
      "duration": 0.0159,
      "velocity": 127,
      "chip": "ym2612"
    },
    {
      "channel": 0,
      "note": 72,
      "start": 33.2125,
      "duration": 0.0162,
      "velocity": 124,
      "chip": "ym2612"
    },
    {
      "channel": 4,
      "note": 57,
      "start": 33.2174,
      "duration": 0.0161,
      "velocity": 100,
      "chip": "ym2612"
    },
    {
      "channel": 1,
      "note": 72,
      "start": 33.2263,
      "duration": 0.0161,
      "velocity": 127,
      "chip": "ym2612"
    },
    {
      "channel": 0,
      "note": 70,
      "start": 33.2287,
      "duration": 0.0179,
      "velocity": 115,
      "chip": "ym2612"
    },
    {
      "channel": 4,
      "note": 57,
      "start": 33.2335,
      "duration": 0.0185,
      "velocity": 100,
      "chip": "ym2612"
    },
    {
      "channel": 1,
      "note": 72,
      "start": 33.2424,
      "duration": 0.0161,
      "velocity": 127,
      "chip": "ym2612"
    },
    {
      "channel": 0,
      "note": 36,
      "start": 33.2466,
      "duration": 0.0142,
      "velocity": 115,
      "chip": "ym2612"
    },
    {
      "channel": 2,
      "note": 76,
      "start": 33.2505,
      "duration": 0.0141,
      "velocity": 105,
      "chip": "ym2612"
    },
    {
      "channel": 4,
      "note": 50,
      "start": 33.252,
      "duration": 0.0138,
      "velocity": 100,
      "chip": "ym2612"
    },
    {
      "channel": 1,
      "note": 72,
      "start": 33.2586,
      "duration": 0.0161,
      "velocity": 127,
      "chip": "ym2612"
    },
    {
      "channel": 0,
      "note": 36,
      "start": 33.2609,
      "duration": 0.0155,
      "velocity": 115,
      "chip": "ym2612"
    },
    {
      "channel": 2,
      "note": 76,
      "start": 33.2646,
      "duration": 0.016,
      "velocity": 105,
      "chip": "ym2612"
    },
    {
      "channel": 4,
      "note": 50,
      "start": 33.2659,
      "duration": 0.0159,
      "velocity": 100,
      "chip": "ym2612"
    },
    {
      "channel": 1,
      "note": 72,
      "start": 33.2747,
      "duration": 0.0161,
      "velocity": 127,
      "chip": "ym2612"
    },
    {
      "channel": 0,
      "note": 37,
      "start": 33.2763,
      "duration": 0.0162,
      "velocity": 115,
      "chip": "ym2612"
    },
    {
      "channel": 2,
      "note": 76,
      "start": 33.2806,
      "duration": 0.0161,
      "velocity": 105,
      "chip": "ym2612"
    },
    {
      "channel": 4,
      "note": 50,
      "start": 33.2818,
      "duration": 0.0161,
      "velocity": 100,
      "chip": "ym2612"
    },
    {
      "channel": 1,
      "note": 72,
      "start": 33.2908,
      "duration": 0.0161,
      "velocity": 127,
      "chip": "ym2612"
    },
    {
      "channel": 0,
      "note": 37,
      "start": 33.2925,
      "duration": 0.0161,
      "velocity": 115,
      "chip": "ym2612"
    },
    {
      "channel": 2,
      "note": 76,
      "start": 33.2967,
      "duration": 0.0161,
      "velocity": 105,
      "chip": "ym2612"
    },
    {
      "channel": 4,
      "note": 50,
      "start": 33.2979,
      "duration": 0.0161,
      "velocity": 100,
      "chip": "ym2612"
    },
    {
      "channel": 1,
      "note": 72,
      "start": 33.3069,
      "duration": 0.0161,
      "velocity": 127,
      "chip": "ym2612"
    },
    {
      "channel": 0,
      "note": 38,
      "start": 33.3086,
      "duration": 0.0161,
      "velocity": 115,
      "chip": "ym2612"
    },
    {
      "channel": 4,
      "note": 50,
      "start": 33.314,
      "duration": 0.016,
      "velocity": 100,
      "chip": "ym2612"
    },
    {
      "channel": 1,
      "note": 72,
      "start": 33.323,
      "duration": 0.0161,
      "velocity": 127,
      "chip": "ym2612"
    },
    {
      "channel": 0,
      "note": 38,
      "start": 33.3247,
      "duration": 0.0161,
      "velocity": 115,
      "chip": "ym2612"
    },
    {
      "channel": 4,
      "note": 50,
      "start": 33.33,
      "duration": 0.0161,
      "velocity": 100,
      "chip": "ym2612"
    },
    {
      "channel": 1,
      "note": 72,
      "start": 33.3391,
      "duration": 0.0161,
      "velocity": 127,
      "chip": "ym2612"
    },
    {
      "channel": 0,
      "note": 39,
      "start": 33.3408,
      "duration": 0.0161,
      "velocity": 115,
      "chip": "ym2612"
    },
    {
      "channel": 4,
      "note": 50,
      "start": 33.3462,
      "duration": 0.0166,
      "velocity": 100,
      "chip": "ym2612"
    },
    {
      "channel": 1,
      "note": 72,
      "start": 33.3552,
      "duration": 0.0161,
      "velocity": 127,
      "chip": "ym2612"
    },
    {
      "channel": 0,
      "note": 39,
      "start": 33.3569,
      "duration": 0.0161,
      "velocity": 115,
      "chip": "ym2612"
    },
    {
      "channel": 2,
      "note": 76,
      "start": 33.3615,
      "duration": 0.0154,
      "velocity": 105,
      "chip": "ym2612"
    },
    {
      "channel": 4,
      "note": 50,
      "start": 33.3628,
      "duration": 0.0157,
      "velocity": 100,
      "chip": "ym2612"
    },
    {
      "channel": 1,
      "note": 72,
      "start": 33.3713,
      "duration": 0.0161,
      "velocity": 127,
      "chip": "ym2612"
    },
    {
      "channel": 0,
      "note": 40,
      "start": 33.373,
      "duration": 0.0161,
      "velocity": 115,
      "chip": "ym2612"
    },
    {
      "channel": 2,
      "note": 76,
      "start": 33.3769,
      "duration": 0.0159,
      "velocity": 105,
      "chip": "ym2612"
    },
    {
      "channel": 4,
      "note": 50,
      "start": 33.3785,
      "duration": 0.016,
      "velocity": 100,
      "chip": "ym2612"
    },
    {
      "channel": 1,
      "note": 72,
      "start": 33.3873,
      "duration": 0.0162,
      "velocity": 127,
      "chip": "ym2612"
    },
    {
      "channel": 0,
      "note": 40,
      "start": 33.3891,
      "duration": 0.0161,
      "velocity": 115,
      "chip": "ym2612"
    },
    {
      "channel": 2,
      "note": 76,
      "start": 33.3928,
      "duration": 0.0161,
      "velocity": 105,
      "chip": "ym2612"
    },
    {
      "channel": 4,
      "note": 50,
      "start": 33.3945,
      "duration": 0.0157,
      "velocity": 100,
      "chip": "ym2612"
    },
    {
      "channel": 1,
      "note": 72,
      "start": 33.4035,
      "duration": 0.0159,
      "velocity": 1,
      "chip": "ym2612"
    },
    {
      "channel": 0,
      "note": 40,
      "start": 33.4052,
      "duration": 0.0158,
      "velocity": 115,
      "chip": "ym2612"
    },
    {
      "channel": 2,
      "note": 76,
      "start": 33.4089,
      "duration": 0.0158,
      "velocity": 105,
      "chip": "ym2612"
    },
    {
      "channel": 4,
      "note": 50,
      "start": 33.4102,
      "duration": 0.0156,
      "velocity": 100,
      "chip": "ym2612"
    },
    {
      "channel": 0,
      "note": 41,
      "start": 33.421,
      "duration": 0.0153,
      "velocity": 115,
      "chip": "ym2612"
    },
    {
      "channel": 2,
      "note": 76,
      "start": 33.4247,
      "duration": 0.0152,
      "velocity": 105,
      "chip": "ym2612"
    },
    {
      "channel": 4,
      "note": 50,
      "start": 33.4259,
      "duration": 0.0152,
      "velocity": 100,
      "chip": "ym2612"
    },
    {
      "channel": 0,
      "note": 41,
      "start": 33.4363,
      "duration": 0.0161,
      "velocity": 115,
      "chip": "ym2612"
    },
    {
      "channel": 2,
      "note": 76,
      "start": 33.4399,
      "duration": 0.0161,
      "velocity": 105,
      "chip": "ym2612"
    },
    {
      "channel": 4,
      "note": 50,
      "start": 33.441,
      "duration": 0.0161,
      "velocity": 100,
      "chip": "ym2612"
    },
    {
      "channel": 0,
      "note": 42,
      "start": 33.4524,
      "duration": 0.0208,
      "velocity": 115,
      "chip": "ym2612"
    },
    {
      "channel": 2,
      "note": 76,
      "start": 33.456,
      "duration": 0.0211,
      "velocity": 105,
      "chip": "ym2612"
    },
    {
      "channel": 4,
      "note": 50,
      "start": 33.4571,
      "duration": 0.0217,
      "velocity": 100,
      "chip": "ym2612"
    },
    {
      "channel": 1,
      "note": 72,
      "start": 33.4697,
      "duration": 0.0144,
      "velocity": 127,
      "chip": "ym2612"
    },
    {
      "channel": 0,
      "note": 36,
      "start": 33.4732,
      "duration": 0.0126,
      "velocity": 115,
      "chip": "ym2612"
    },
    {
      "channel": 2,
      "note": 76,
      "start": 33.4771,
      "duration": 0.0124,
      "velocity": 105,
      "chip": "ym2612"
    },
    {
      "channel": 4,
      "note": 50,
      "start": 33.479,
      "duration": 0.0117,
      "velocity": 100,
      "chip": "ym2612"
    },
    {
      "channel": 1,
      "note": 72,
      "start": 33.4841,
      "duration": 0.016,
      "velocity": 127,
      "chip": "ym2612"
    },
    {
      "channel": 0,
      "note": 36,
      "start": 33.4858,
      "duration": 0.016,
      "velocity": 115,
      "chip": "ym2612"
    },
    {
      "channel": 2,
      "note": 76,
      "start": 33.4895,
      "duration": 0.016,
      "velocity": 105,
      "chip": "ym2612"
    },
    {
      "channel": 4,
      "note": 50,
      "start": 33.4907,
      "duration": 0.016,
      "velocity": 100,
      "chip": "ym2612"
    },
    {
      "channel": 1,
      "note": 72,
      "start": 33.5001,
      "duration": 0.0161,
      "velocity": 127,
      "chip": "ym2612"
    },
    {
      "channel": 0,
      "note": 37,
      "start": 33.5018,
      "duration": 0.0161,
      "velocity": 115,
      "chip": "ym2612"
    },
    {
      "channel": 2,
      "note": 76,
      "start": 33.5054,
      "duration": 0.0162,
      "velocity": 105,
      "chip": "ym2612"
    },
    {
      "channel": 4,
      "note": 50,
      "start": 33.5066,
      "duration": 0.0161,
      "velocity": 100,
      "chip": "ym2612"
    },
    {
      "channel": 1,
      "note": 72,
      "start": 33.5162,
      "duration": 0.0161,
      "velocity": 127,
      "chip": "ym2612"
    },
    {
      "channel": 0,
      "note": 37,
      "start": 33.5179,
      "duration": 0.0161,
      "velocity": 115,
      "chip": "ym2612"
    },
    {
      "channel": 2,
      "note": 76,
      "start": 33.5216,
      "duration": 0.0161,
      "velocity": 105,
      "chip": "ym2612"
    },
    {
      "channel": 4,
      "note": 50,
      "start": 33.5227,
      "duration": 0.0161,
      "velocity": 100,
      "chip": "ym2612"
    },
    {
      "channel": 1,
      "note": 72,
      "start": 33.5323,
      "duration": 0.0162,
      "velocity": 127,
      "chip": "ym2612"
    },
    {
      "channel": 0,
      "note": 38,
      "start": 33.534,
      "duration": 0.0161,
      "velocity": 115,
      "chip": "ym2612"
    },
    {
      "channel": 4,
      "note": 50,
      "start": 33.5388,
      "duration": 0.0161,
      "velocity": 100,
      "chip": "ym2612"
    },
    {
      "channel": 1,
      "note": 72,
      "start": 33.5484,
      "duration": 0.0161,
      "velocity": 127,
      "chip": "ym2612"
    },
    {
      "channel": 0,
      "note": 38,
      "start": 33.5501,
      "duration": 0.0161,
      "velocity": 115,
      "chip": "ym2612"
    },
    {
      "channel": 4,
      "note": 50,
      "start": 33.5549,
      "duration": 0.0161,
      "velocity": 100,
      "chip": "ym2612"
    },
    {
      "channel": 1,
      "note": 72,
      "start": 33.5645,
      "duration": 0.0178,
      "velocity": 127,
      "chip": "ym2612"
    },
    {
      "channel": 0,
      "note": 39,
      "start": 33.5662,
      "duration": 0.0197,
      "velocity": 115,
      "chip": "ym2612"
    },
    {
      "channel": 4,
      "note": 50,
      "start": 33.571,
      "duration": 0.0204,
      "velocity": 100,
      "chip": "ym2612"
    },
    {
      "channel": 1,
      "note": 72,
      "start": 33.5824,
      "duration": 0.0144,
      "velocity": 127,
      "chip": "ym2612"
    },
    {
      "channel": 0,
      "note": 36,
      "start": 33.586,
      "duration": 0.0126,
      "velocity": 115,
      "chip": "ym2612"
    },
    {
      "channel": 2,
      "note": 76,
      "start": 33.5899,
      "duration": 0.0123,
      "velocity": 105,
      "chip": "ym2612"
    },
    {
      "channel": 4,
      "note": 57,
      "start": 33.5914,
      "duration": 0.0121,
      "velocity": 100,
      "chip": "ym2612"
    },
    {
      "channel": 1,
      "note": 72,
      "start": 33.5968,
      "duration": 0.016,
      "velocity": 127,
      "chip": "ym2612"
    },
    {
      "channel": 0,
      "note": 36,
      "start": 33.5985,
      "duration": 0.016,
      "velocity": 115,
      "chip": "ym2612"
    },
    {
      "channel": 2,
      "note": 76,
      "start": 33.6022,
      "duration": 0.016,
      "velocity": 105,
      "chip": "ym2612"
    },
    {
      "channel": 4,
      "note": 57,
      "start": 33.6034,
      "duration": 0.0159,
      "velocity": 100,
      "chip": "ym2612"
    },
    {
      "channel": 1,
      "note": 72,
      "start": 33.6128,
      "duration": 0.0161,
      "velocity": 127,
      "chip": "ym2612"
    },
    {
      "channel": 0,
      "note": 37,
      "start": 33.6145,
      "duration": 0.0162,
      "velocity": 115,
      "chip": "ym2612"
    },
    {
      "channel": 2,
      "note": 76,
      "start": 33.6182,
      "duration": 0.0162,
      "velocity": 105,
      "chip": "ym2612"
    },
    {
      "channel": 4,
      "note": 57,
      "start": 33.6194,
      "duration": 0.0161,
      "velocity": 100,
      "chip": "ym2612"
    },
    {
      "channel": 1,
      "note": 72,
      "start": 33.629,
      "duration": 0.0164,
      "velocity": 127,
      "chip": "ym2612"
    },
    {
      "channel": 0,
      "note": 37,
      "start": 33.6307,
      "duration": 0.0164,
      "velocity": 115,
      "chip": "ym2612"
    },
    {
      "channel": 2,
      "note": 76,
      "start": 33.6344,
      "duration": 0.0164,
      "velocity": 105,
      "chip": "ym2612"
    },
    {
      "channel": 4,
      "note": 57,
      "start": 33.6355,
      "duration": 0.0164,
      "velocity": 100,
      "chip": "ym2612"
    },
    {
      "channel": 1,
      "note": 72,
      "start": 33.6454,
      "duration": 0.0163,
      "velocity": 127,
      "chip": "ym2612"
    },
    {
      "channel": 0,
      "note": 38,
      "start": 33.6471,
      "duration": 0.0163,
      "velocity": 115,
      "chip": "ym2612"
    },
    {
      "channel": 4,
      "note": 57,
      "start": 33.6519,
      "duration": 0.0163,
      "velocity": 100,
      "chip": "ym2612"
    },
    {
      "channel": 1,
      "note": 72,
      "start": 33.6617,
      "duration": 0.016,
      "velocity": 127,
      "chip": "ym2612"
    },
    {
      "channel": 0,
      "note": 38,
      "start": 33.6634,
      "duration": 0.0161,
      "velocity": 115,
      "chip": "ym2612"
    },
    {
      "channel": 4,
      "note": 57,
      "start": 33.6682,
      "duration": 0.0161,
      "velocity": 100,
      "chip": "ym2612"
    },
    {
      "channel": 1,
      "note": 72,
      "start": 33.6778,
      "duration": 0.0158,
      "velocity": 127,
      "chip": "ym2612"
    },
    {
      "channel": 0,
      "note": 39,
      "start": 33.6795,
      "duration": 0.0161,
      "velocity": 115,
      "chip": "ym2612"
    },
    {
      "channel": 4,
      "note": 57,
      "start": 33.6843,
      "duration": 0.0165,
      "velocity": 100,
      "chip": "ym2612"
    },
    {
      "channel": 1,
      "note": 72,
      "start": 33.6935,
      "duration": 0.0159,
      "velocity": 127,
      "chip": "ym2612"
    },
    {
      "channel": 0,
      "note": 39,
      "start": 33.6956,
      "duration": 0.0161,
      "velocity": 115,
      "chip": "ym2612"
    },
    {
      "channel": 2,
      "note": 76,
      "start": 33.6995,
      "duration": 0.0159,
      "velocity": 105,
      "chip": "ym2612"
    },
    {
      "channel": 4,
      "note": 57,
      "start": 33.7008,
      "duration": 0.0159,
      "velocity": 100,
      "chip": "ym2612"
    },
    {
      "channel": 1,
      "note": 72,
      "start": 33.7094,
      "duration": 0.0161,
      "velocity": 127,
      "chip": "ym2612"
    },
    {
      "channel": 0,
      "note": 40,
      "start": 33.7117,
      "duration": 0.016,
      "velocity": 115,
      "chip": "ym2612"
    },
    {
      "channel": 2,
      "note": 76,
      "start": 33.7154,
      "duration": 0.016,
      "velocity": 105,
      "chip": "ym2612"
    },
    {
      "channel": 4,
      "note": 57,
      "start": 33.7166,
      "duration": 0.016,
      "velocity": 100,
      "chip": "ym2612"
    },
    {
      "channel": 1,
      "note": 72,
      "start": 33.7255,
      "duration": 0.0161,
      "velocity": 127,
      "chip": "ym2612"
    },
    {
      "channel": 0,
      "note": 40,
      "start": 33.7278,
      "duration": 0.0158,
      "velocity": 115,
      "chip": "ym2612"
    },
    {
      "channel": 2,
      "note": 76,
      "start": 33.7315,
      "duration": 0.0161,
      "velocity": 105,
      "chip": "ym2612"
    },
    {
      "channel": 4,
      "note": 57,
      "start": 33.7327,
      "duration": 0.0161,
      "velocity": 100,
      "chip": "ym2612"
    },
    {
      "channel": 1,
      "note": 72,
      "start": 33.7416,
      "duration": 0.0161,
      "velocity": 127,
      "chip": "ym2612"
    },
    {
      "channel": 0,
      "note": 40,
      "start": 33.7435,
      "duration": 0.0159,
      "velocity": 115,
      "chip": "ym2612"
    },
    {
      "channel": 2,
      "note": 76,
      "start": 33.7475,
      "duration": 0.0161,
      "velocity": 105,
      "chip": "ym2612"
    },
    {
      "channel": 4,
      "note": 57,
      "start": 33.7488,
      "duration": 0.0161,
      "velocity": 100,
      "chip": "ym2612"
    },
    {
      "channel": 1,
      "note": 72,
      "start": 33.7577,
      "duration": 0.0161,
      "velocity": 127,
      "chip": "ym2612"
    },
    {
      "channel": 0,
      "note": 41,
      "start": 33.7594,
      "duration": 0.0161,
      "velocity": 115,
      "chip": "ym2612"
    },
    {
      "channel": 4,
      "note": 57,
      "start": 33.7648,
      "duration": 0.0161,
      "velocity": 100,
      "chip": "ym2612"
    },
    {
      "channel": 1,
      "note": 72,
      "start": 33.7738,
      "duration": 0.0161,
      "velocity": 127,
      "chip": "ym2612"
    },
    {
      "channel": 0,
      "note": 41,
      "start": 33.7755,
      "duration": 0.0161,
      "velocity": 115,
      "chip": "ym2612"
    },
    {
      "channel": 4,
      "note": 57,
      "start": 33.7809,
      "duration": 0.0161,
      "velocity": 100,
      "chip": "ym2612"
    },
    {
      "channel": 1,
      "note": 72,
      "start": 33.7899,
      "duration": 0.0178,
      "velocity": 127,
      "chip": "ym2612"
    },
    {
      "channel": 0,
      "note": 42,
      "start": 33.7916,
      "duration": 0.0202,
      "velocity": 115,
      "chip": "ym2612"
    },
    {
      "channel": 4,
      "note": 57,
      "start": 33.797,
      "duration": 0.0204,
      "velocity": 100,
      "chip": "ym2612"
    },
    {
      "channel": 1,
      "note": 72,
      "start": 33.8078,
      "duration": 0.0144,
      "velocity": 127,
      "chip": "ym2612"
    },
    {
      "channel": 0,
      "note": 36,
      "start": 33.8119,
      "duration": 0.012,
      "velocity": 115,
      "chip": "ym2612"
    },
    {
      "channel": 2,
      "note": 76,
      "start": 33.816,
      "duration": 0.0123,
      "velocity": 105,
      "chip": "ym2612"
    },
    {
      "channel": 4,
      "note": 50,
      "start": 33.8174,
      "duration": 0.0121,
      "velocity": 100,
      "chip": "ym2612"
    },
    {
      "channel": 1,
      "note": 72,
      "start": 33.8222,
      "duration": 0.0161,
      "velocity": 127,
      "chip": "ym2612"
    },
    {
      "channel": 0,
      "note": 36,
      "start": 33.8239,
      "duration": 0.016,
      "velocity": 115,
      "chip": "ym2612"
    },
    {
      "channel": 2,
      "note": 76,
      "start": 33.8283,
      "duration": 0.0155,
      "velocity": 105,
      "chip": "ym2612"
    },
    {
      "channel": 4,
      "note": 50,
      "start": 33.8295,
      "duration": 0.0158,
      "velocity": 100,
      "chip": "ym2612"
    },
    {
      "channel": 1,
      "note": 72,
      "start": 33.8383,
      "duration": 0.0161,
      "velocity": 127,
      "chip": "ym2612"
    },
    {
      "channel": 0,
      "note": 37,
      "start": 33.8399,
      "duration": 0.0161,
      "velocity": 115,
      "chip": "ym2612"
    },
    {
      "channel": 2,
      "note": 76,
      "start": 33.8438,
      "duration": 0.0159,
      "velocity": 105,
      "chip": "ym2612"
    },
    {
      "channel": 4,
      "note": 50,
      "start": 33.8453,
      "duration": 0.0161,
      "velocity": 100,
      "chip": "ym2612"
    },
    {
      "channel": 1,
      "note": 72,
      "start": 33.8543,
      "duration": 0.0161,
      "velocity": 127,
      "chip": "ym2612"
    },
    {
      "channel": 0,
      "note": 37,
      "start": 33.856,
      "duration": 0.0161,
      "velocity": 115,
      "chip": "ym2612"
    },
    {
      "channel": 2,
      "note": 76,
      "start": 33.8597,
      "duration": 0.0161,
      "velocity": 105,
      "chip": "ym2612"
    },
    {
      "channel": 4,
      "note": 50,
      "start": 33.8614,
      "duration": 0.0157,
      "velocity": 100,
      "chip": "ym2612"
    },
    {
      "channel": 1,
      "note": 72,
      "start": 33.8704,
      "duration": 0.0161,
      "velocity": 127,
      "chip": "ym2612"
    },
    {
      "channel": 0,
      "note": 38,
      "start": 33.8721,
      "duration": 0.0161,
      "velocity": 115,
      "chip": "ym2612"
    },
    {
      "channel": 2,
      "note": 76,
      "start": 33.8758,
      "duration": 0.0161,
      "velocity": 105,
      "chip": "ym2612"
    },
    {
      "channel": 4,
      "note": 50,
      "start": 33.8771,
      "duration": 0.0159,
      "velocity": 100,
      "chip": "ym2612"
    },
    {
      "channel": 1,
      "note": 72,
      "start": 33.8865,
      "duration": 0.0161,
      "velocity": 127,
      "chip": "ym2612"
    },
    {
      "channel": 0,
      "note": 38,
      "start": 33.8882,
      "duration": 0.0161,
      "velocity": 115,
      "chip": "ym2612"
    },
    {
      "channel": 2,
      "note": 76,
      "start": 33.8919,
      "duration": 0.0161,
      "velocity": 105,
      "chip": "ym2612"
    },
    {
      "channel": 4,
      "note": 50,
      "start": 33.893,
      "duration": 0.0161,
      "velocity": 100,
      "chip": "ym2612"
    },
    {
      "channel": 1,
      "note": 72,
      "start": 33.9026,
      "duration": 0.0161,
      "velocity": 127,
      "chip": "ym2612"
    },
    {
      "channel": 0,
      "note": 39,
      "start": 33.9043,
      "duration": 0.0161,
      "velocity": 115,
      "chip": "ym2612"
    },
    {
      "channel": 2,
      "note": 76,
      "start": 33.908,
      "duration": 0.0161,
      "velocity": 105,
      "chip": "ym2612"
    },
    {
      "channel": 4,
      "note": 50,
      "start": 33.9091,
      "duration": 0.0162,
      "velocity": 100,
      "chip": "ym2612"
    },
    {
      "channel": 1,
      "note": 72,
      "start": 33.9187,
      "duration": 0.0161,
      "velocity": 127,
      "chip": "ym2612"
    },
    {
      "channel": 0,
      "note": 39,
      "start": 33.9204,
      "duration": 0.0161,
      "velocity": 115,
      "chip": "ym2612"
    },
    {
      "channel": 2,
      "note": 76,
      "start": 33.9241,
      "duration": 0.0161,
      "velocity": 105,
      "chip": "ym2612"
    },
    {
      "channel": 4,
      "note": 50,
      "start": 33.9253,
      "duration": 0.016,
      "velocity": 100,
      "chip": "ym2612"
    },
    {
      "channel": 1,
      "note": 72,
      "start": 33.9348,
      "duration": 0.0161,
      "velocity": 127,
      "chip": "ym2612"
    },
    {
      "channel": 0,
      "note": 40,
      "start": 33.9365,
      "duration": 0.0161,
      "velocity": 115,
      "chip": "ym2612"
    },
    {
      "channel": 2,
      "note": 76,
      "start": 33.9402,
      "duration": 0.0161,
      "velocity": 105,
      "chip": "ym2612"
    },
    {
      "channel": 4,
      "note": 50,
      "start": 33.9414,
      "duration": 0.0162,
      "velocity": 100,
      "chip": "ym2612"
    },
    {
      "channel": 1,
      "note": 72,
      "start": 33.9509,
      "duration": 0.0161,
      "velocity": 127,
      "chip": "ym2612"
    },
    {
      "channel": 0,
      "note": 40,
      "start": 33.9526,
      "duration": 0.0161,
      "velocity": 115,
      "chip": "ym2612"
    },
    {
      "channel": 2,
      "note": 76,
      "start": 33.9563,
      "duration": 0.0161,
      "velocity": 105,
      "chip": "ym2612"
    },
    {
      "channel": 4,
      "note": 50,
      "start": 33.9575,
      "duration": 0.016,
      "velocity": 100,
      "chip": "ym2612"
    },
    {
      "channel": 1,
      "note": 72,
      "start": 33.967,
      "duration": 0.0161,
      "velocity": 127,
      "chip": "ym2612"
    },
    {
      "channel": 0,
      "note": 40,
      "start": 33.9687,
      "duration": 0.0161,
      "velocity": 115,
      "chip": "ym2612"
    },
    {
      "channel": 2,
      "note": 76,
      "start": 33.9724,
      "duration": 0.0161,
      "velocity": 105,
      "chip": "ym2612"
    },
    {
      "channel": 4,
      "note": 50,
      "start": 33.9736,
      "duration": 0.0161,
      "velocity": 100,
      "chip": "ym2612"
    },
    {
      "channel": 1,
      "note": 72,
      "start": 33.9832,
      "duration": 0.0161,
      "velocity": 127,
      "chip": "ym2612"
    },
    {
      "channel": 0,
      "note": 41,
      "start": 33.9848,
      "duration": 0.0161,
      "velocity": 115,
      "chip": "ym2612"
    },
    {
      "channel": 4,
      "note": 50,
      "start": 33.9896,
      "duration": 0.0161,
      "velocity": 100,
      "chip": "ym2612"
    },
    {
      "channel": 1,
      "note": 72,
      "start": 33.9993,
      "duration": 0.0161,
      "velocity": 127,
      "chip": "ym2612"
    },
    {
      "channel": 0,
      "note": 41,
      "start": 34.0009,
      "duration": 0.0161,
      "velocity": 115,
      "chip": "ym2612"
    },
    {
      "channel": 4,
      "note": 50,
      "start": 34.0057,
      "duration": 0.0161,
      "velocity": 100,
      "chip": "ym2612"
    },
    {
      "channel": 1,
      "note": 72,
      "start": 34.0154,
      "duration": 0.0179,
      "velocity": 127,
      "chip": "ym2612"
    },
    {
      "channel": 0,
      "note": 42,
      "start": 34.017,
      "duration": 0.0197,
      "velocity": 124,
      "chip": "ym2612"
    },
    {
      "channel": 4,
      "note": 50,
      "start": 34.0218,
      "duration": 0.0204,
      "velocity": 100,
      "chip": "ym2612"
    },
    {
      "channel": 1,
      "note": 79,
      "start": 34.0332,
      "duration": 0.0144,
      "velocity": 127,
      "chip": "ym2612"
    },
    {
      "channel": 0,
      "note": 84,
      "start": 34.0368,
      "duration": 0.0126,
      "velocity": 124,
      "chip": "ym2612"
    },
    {
      "channel": 2,
      "note": 76,
      "start": 34.0408,
      "duration": 0.0123,
      "velocity": 105,
      "chip": "ym2612"
    },
    {
      "channel": 4,
      "note": 57,
      "start": 34.0422,
      "duration": 0.012,
      "velocity": 100,
      "chip": "ym2612"
    },
    {
      "channel": 1,
      "note": 79,
      "start": 34.0476,
      "duration": 0.016,
      "velocity": 127,
      "chip": "ym2612"
    },
    {
      "channel": 0,
      "note": 82,
      "start": 34.0494,
      "duration": 0.016,
      "velocity": 124,
      "chip": "ym2612"
    },
    {
      "channel": 2,
      "note": 76,
      "start": 34.0531,
      "duration": 0.0159,
      "velocity": 105,
      "chip": "ym2612"
    },
    {
      "channel": 4,
      "note": 57,
      "start": 34.0543,
      "duration": 0.0158,
      "velocity": 100,
      "chip": "ym2612"
    },
    {
      "channel": 1,
      "note": 79,
      "start": 34.0636,
      "duration": 0.0161,
      "velocity": 127,
      "chip": "ym2612"
    },
    {
      "channel": 0,
      "note": 80,
      "start": 34.0654,
      "duration": 0.0161,
      "velocity": 124,
      "chip": "ym2612"
    },
    {
      "channel": 2,
      "note": 76,
      "start": 34.069,
      "duration": 0.0161,
      "velocity": 105,
      "chip": "ym2612"
    },
    {
      "channel": 4,
      "note": 57,
      "start": 34.0701,
      "duration": 0.0162,
      "velocity": 100,
      "chip": "ym2612"
    },
    {
      "channel": 1,
      "note": 79,
      "start": 34.0797,
      "duration": 0.0161,
      "velocity": 127,
      "chip": "ym2612"
    },
    {
      "channel": 0,
      "note": 77,
      "start": 34.0815,
      "duration": 0.0161,
      "velocity": 124,
      "chip": "ym2612"
    },
    {
      "channel": 2,
      "note": 76,
      "start": 34.0851,
      "duration": 0.0162,
      "velocity": 105,
      "chip": "ym2612"
    },
    {
      "channel": 4,
      "note": 57,
      "start": 34.0863,
      "duration": 0.0161,
      "velocity": 100,
      "chip": "ym2612"
    },
    {
      "channel": 1,
      "note": 79,
      "start": 34.0959,
      "duration": 0.0164,
      "velocity": 127,
      "chip": "ym2612"
    },
    {
      "channel": 0,
      "note": 75,
      "start": 34.0976,
      "duration": 0.0164,
      "velocity": 124,
      "chip": "ym2612"
    },
    {
      "channel": 4,
      "note": 57,
      "start": 34.1024,
      "duration": 0.0164,
      "velocity": 100,
      "chip": "ym2612"
    },
    {
      "channel": 1,
      "note": 79,
      "start": 34.1123,
      "duration": 0.0163,
      "velocity": 127,
      "chip": "ym2612"
    },
    {
      "channel": 0,
      "note": 72,
      "start": 34.114,
      "duration": 0.0163,
      "velocity": 124,
      "chip": "ym2612"
    },
    {
      "channel": 4,
      "note": 57,
      "start": 34.1188,
      "duration": 0.0163,
      "velocity": 100,
      "chip": "ym2612"
    },
    {
      "channel": 1,
      "note": 79,
      "start": 34.1286,
      "duration": 0.0161,
      "velocity": 127,
      "chip": "ym2612"
    },
    {
      "channel": 0,
      "note": 70,
      "start": 34.1304,
      "duration": 0.0161,
      "velocity": 124,
      "chip": "ym2612"
    },
    {
      "channel": 4,
      "note": 57,
      "start": 34.1351,
      "duration": 0.0165,
      "velocity": 100,
      "chip": "ym2612"
    },
    {
      "channel": 1,
      "note": 79,
      "start": 34.1447,
      "duration": 0.0157,
      "velocity": 127,
      "chip": "ym2612"
    },
    {
      "channel": 0,
      "note": 68,
      "start": 34.1465,
      "duration": 0.0161,
      "velocity": 124,
      "chip": "ym2612"
    },
    {
      "channel": 2,
      "note": 76,
      "start": 34.1504,
      "duration": 0.0158,
      "velocity": 105,
      "chip": "ym2612"
    },
    {
      "channel": 4,
      "note": 57,
      "start": 34.1516,
      "duration": 0.0158,
      "velocity": 100,
      "chip": "ym2612"
    },
    {
      "channel": 1,
      "note": 79,
      "start": 34.1605,
      "duration": 0.0159,
      "velocity": 127,
      "chip": "ym2612"
    },
    {
      "channel": 0,
      "note": 65,
      "start": 34.1625,
      "duration": 0.0161,
      "velocity": 124,
      "chip": "ym2612"
    },
    {
      "channel": 2,
      "note": 76,
      "start": 34.1662,
      "duration": 0.016,
      "velocity": 105,
      "chip": "ym2612"
    },
    {
      "channel": 4,
      "note": 57,
      "start": 34.1674,
      "duration": 0.016,
      "velocity": 100,
      "chip": "ym2612"
    },
    {
      "channel": 1,
      "note": 79,
      "start": 34.1763,
      "duration": 0.0161,
      "velocity": 127,
      "chip": "ym2612"
    },
    {
      "channel": 0,
      "note": 63,
      "start": 34.1786,
      "duration": 0.0149,
      "velocity": 1,
      "chip": "ym2612"
    },
    {
      "channel": 2,
      "note": 76,
      "start": 34.1823,
      "duration": 0.0153,
      "velocity": 105,
      "chip": "ym2612"
    },
    {
      "channel": 4,
      "note": 57,
      "start": 34.1835,
      "duration": 0.0153,
      "velocity": 100,
      "chip": "ym2612"
    },
    {
      "channel": 1,
      "note": 79,
      "start": 34.1924,
      "duration": 0.0161,
      "velocity": 127,
      "chip": "ym2612"
    },
    {
      "channel": 2,
      "note": 76,
      "start": 34.1975,
      "duration": 0.0153,
      "velocity": 105,
      "chip": "ym2612"
    },
    {
      "channel": 4,
      "note": 57,
      "start": 34.1988,
      "duration": 0.0152,
      "velocity": 100,
      "chip": "ym2612"
    },
    {
      "channel": 1,
      "note": 79,
      "start": 34.2085,
      "duration": 0.0161,
      "velocity": 127,
      "chip": "ym2612"
    },
    {
      "channel": 4,
      "note": 57,
      "start": 34.2139,
      "duration": 0.0161,
      "velocity": 100,
      "chip": "ym2612"
    },
    {
      "channel": 1,
      "note": 79,
      "start": 34.2246,
      "duration": 0.0161,
      "velocity": 127,
      "chip": "ym2612"
    },
    {
      "channel": 4,
      "note": 57,
      "start": 34.23,
      "duration": 0.0161,
      "velocity": 100,
      "chip": "ym2612"
    },
    {
      "channel": 1,
      "note": 79,
      "start": 34.2407,
      "duration": 0.0179,
      "velocity": 127,
      "chip": "ym2612"
    },
    {
      "channel": 4,
      "note": 57,
      "start": 34.2461,
      "duration": 0.0239,
      "velocity": 100,
      "chip": "ym2612"
    },
    {
      "channel": 1,
      "note": 79,
      "start": 34.2587,
      "duration": 0.015,
      "velocity": 127,
      "chip": "ym2612"
    },
    {
      "channel": 0,
      "note": 36,
      "start": 34.2628,
      "duration": 0.0125,
      "velocity": 115,
      "chip": "ym2612"
    },
    {
      "channel": 3,
      "note": 85,
      "start": 34.267,
      "duration": 0.0116,
      "velocity": 89,
      "chip": "ym2612"
    },
    {
      "channel": 2,
      "note": 76,
      "start": 34.2687,
      "duration": 0.0112,
      "velocity": 105,
      "chip": "ym2612"
    },
    {
      "channel": 4,
      "note": 59,
      "start": 34.2701,
      "duration": 0.011,
      "velocity": 100,
      "chip": "ym2612"
    },
    {
      "channel": 1,
      "note": 79,
      "start": 34.2736,
      "duration": 0.0154,
      "velocity": 127,
      "chip": "ym2612"
    },
    {
      "channel": 0,
      "note": 36,
      "start": 34.2753,
      "duration": 0.0154,
      "velocity": 115,
      "chip": "ym2612"
    },
    {
      "channel": 3,
      "note": 83,
      "start": 34.2786,
      "duration": 0.015,
      "velocity": 89,
      "chip": "ym2612"
    },
    {
      "channel": 2,
      "note": 76,
      "start": 34.2798,
      "duration": 0.0154,
      "velocity": 105,
      "chip": "ym2612"
    },
    {
      "channel": 4,
      "note": 59,
      "start": 34.2811,
      "duration": 0.0153,
      "velocity": 100,
      "chip": "ym2612"
    },
    {
      "channel": 1,
      "note": 79,
      "start": 34.2891,
      "duration": 0.0161,
      "velocity": 127,
      "chip": "ym2612"
    },
    {
      "channel": 0,
      "note": 37,
      "start": 34.2907,
      "duration": 0.0161,
      "velocity": 115,
      "chip": "ym2612"
    },
    {
      "channel": 3,
      "note": 85,
      "start": 34.2937,
      "duration": 0.0158,
      "velocity": 89,
      "chip": "ym2612"
    },
    {
      "channel": 2,
      "note": 76,
      "start": 34.2952,
      "duration": 0.016,
      "velocity": 105,
      "chip": "ym2612"
    },
    {
      "channel": 4,
      "note": 59,
      "start": 34.2964,
      "duration": 0.0161,
      "velocity": 100,
      "chip": "ym2612"
    },
    {
      "channel": 1,
      "note": 79,
      "start": 34.3052,
      "duration": 0.0161,
      "velocity": 127,
      "chip": "ym2612"
    },
    {
      "channel": 0,
      "note": 37,
      "start": 34.3068,
      "duration": 0.0161,
      "velocity": 115,
      "chip": "ym2612"
    },
    {
      "channel": 3,
      "note": 83,
      "start": 34.3096,
      "duration": 0.0161,
      "velocity": 89,
      "chip": "ym2612"
    },
    {
      "channel": 2,
      "note": 76,
      "start": 34.3113,
      "duration": 0.0158,
      "velocity": 105,
      "chip": "ym2612"
    },
    {
      "channel": 4,
      "note": 59,
      "start": 34.3125,
      "duration": 0.0161,
      "velocity": 100,
      "chip": "ym2612"
    },
    {
      "channel": 1,
      "note": 79,
      "start": 34.3213,
      "duration": 0.0161,
      "velocity": 127,
      "chip": "ym2612"
    },
    {
      "channel": 0,
      "note": 38,
      "start": 34.323,
      "duration": 0.0161,
      "velocity": 115,
      "chip": "ym2612"
    },
    {
      "channel": 3,
      "note": 85,
      "start": 34.3257,
      "duration": 0.016,
      "velocity": 89,
      "chip": "ym2612"
    },
    {
      "channel": 2,
      "note": 76,
      "start": 34.3271,
      "duration": 0.0159,
      "velocity": 105,
      "chip": "ym2612"
    },
    {
      "channel": 4,
      "note": 59,
      "start": 34.3286,
      "duration": 0.016,
      "velocity": 100,
      "chip": "ym2612"
    },
    {
      "channel": 1,
      "note": 79,
      "start": 34.3373,
      "duration": 0.0161,
      "velocity": 127,
      "chip": "ym2612"
    },
    {
      "channel": 0,
      "note": 38,
      "start": 34.3391,
      "duration": 0.0161,
      "velocity": 115,
      "chip": "ym2612"
    },
    {
      "channel": 3,
      "note": 83,
      "start": 34.3417,
      "duration": 0.0161,
      "velocity": 89,
      "chip": "ym2612"
    },
    {
      "channel": 2,
      "note": 76,
      "start": 34.3429,
      "duration": 0.0161,
      "velocity": 105,
      "chip": "ym2612"
    },
    {
      "channel": 4,
      "note": 59,
      "start": 34.3446,
      "duration": 0.0158,
      "velocity": 100,
      "chip": "ym2612"
    },
    {
      "channel": 1,
      "note": 79,
      "start": 34.3534,
      "duration": 0.0161,
      "velocity": 127,
      "chip": "ym2612"
    },
    {
      "channel": 0,
      "note": 39,
      "start": 34.3552,
      "duration": 0.0161,
      "velocity": 115,
      "chip": "ym2612"
    },
    {
      "channel": 3,
      "note": 85,
      "start": 34.3579,
      "duration": 0.016,
      "velocity": 89,
      "chip": "ym2612"
    },
    {
      "channel": 2,
      "note": 76,
      "start": 34.359,
      "duration": 0.016,
      "velocity": 105,
      "chip": "ym2612"
    },
    {
      "channel": 4,
      "note": 59,
      "start": 34.3604,
      "duration": 0.0159,
      "velocity": 100,
      "chip": "ym2612"
    },
    {
      "channel": 1,
      "note": 79,
      "start": 34.3695,
      "duration": 0.0161,
      "velocity": 127,
      "chip": "ym2612"
    },
    {
      "channel": 0,
      "note": 39,
      "start": 34.3713,
      "duration": 0.0161,
      "velocity": 115,
      "chip": "ym2612"
    },
    {
      "channel": 3,
      "note": 83,
      "start": 34.3739,
      "duration": 0.0161,
      "velocity": 89,
      "chip": "ym2612"
    },
    {
      "channel": 2,
      "note": 76,
      "start": 34.3751,
      "duration": 0.0162,
      "velocity": 105,
      "chip": "ym2612"
    },
    {
      "channel": 4,
      "note": 59,
      "start": 34.3763,
      "duration": 0.0162,
      "velocity": 100,
      "chip": "ym2612"
    },
    {
      "channel": 1,
      "note": 79,
      "start": 34.3856,
      "duration": 0.0161,
      "velocity": 127,
      "chip": "ym2612"
    },
    {
      "channel": 0,
      "note": 40,
      "start": 34.3873,
      "duration": 0.0161,
      "velocity": 115,
      "chip": "ym2612"
    },
    {
      "channel": 3,
      "note": 85,
      "start": 34.3901,
      "duration": 0.016,
      "velocity": 89,
      "chip": "ym2612"
    },
    {
      "channel": 2,
      "note": 76,
      "start": 34.3912,
      "duration": 0.016,
      "velocity": 105,
      "chip": "ym2612"
    },
    {
      "channel": 4,
      "note": 59,
      "start": 34.3924,
      "duration": 0.016,
      "velocity": 100,
      "chip": "ym2612"
    },
    {
      "channel": 1,
      "note": 79,
      "start": 34.4017,
      "duration": 0.0162,
      "velocity": 127,
      "chip": "ym2612"
    },
    {
      "channel": 0,
      "note": 40,
      "start": 34.4034,
      "duration": 0.0161,
      "velocity": 115,
      "chip": "ym2612"
    },
    {
      "channel": 3,
      "note": 83,
      "start": 34.4061,
      "duration": 0.0162,
      "velocity": 89,
      "chip": "ym2612"
    },
    {
      "channel": 2,
      "note": 76,
      "start": 34.4073,
      "duration": 0.0162,
      "velocity": 105,
      "chip": "ym2612"
    },
    {
      "channel": 4,
      "note": 59,
      "start": 34.4085,
      "duration": 0.0161,
      "velocity": 100,
      "chip": "ym2612"
    },
    {
      "channel": 1,
      "note": 79,
      "start": 34.4179,
      "duration": 0.0161,
      "velocity": 127,
      "chip": "ym2612"
    },
    {
      "channel": 0,
      "note": 40,
      "start": 34.4195,
      "duration": 0.0161,
      "velocity": 115,
      "chip": "ym2612"
    },
    {
      "channel": 3,
      "note": 85,
      "start": 34.4223,
      "duration": 0.016,
      "velocity": 89,
      "chip": "ym2612"
    },
    {
      "channel": 2,
      "note": 76,
      "start": 34.4235,
      "duration": 0.016,
      "velocity": 105,
      "chip": "ym2612"
    },
    {
      "channel": 4,
      "note": 59,
      "start": 34.4246,
      "duration": 0.016,
      "velocity": 100,
      "chip": "ym2612"
    },
    {
      "channel": 1,
      "note": 79,
      "start": 34.434,
      "duration": 0.0161,
      "velocity": 127,
      "chip": "ym2612"
    },
    {
      "channel": 0,
      "note": 41,
      "start": 34.4356,
      "duration": 0.0161,
      "velocity": 115,
      "chip": "ym2612"
    },
    {
      "channel": 3,
      "note": 83,
      "start": 34.4384,
      "duration": 0.0179,
      "velocity": 89,
      "chip": "ym2612"
    },
    {
      "channel": 4,
      "note": 59,
      "start": 34.4407,
      "duration": 0.0179,
      "velocity": 100,
      "chip": "ym2612"
    },
    {
      "channel": 1,
      "note": 79,
      "start": 34.4501,
      "duration": 0.0161,
      "velocity": 127,
      "chip": "ym2612"
    },
    {
      "channel": 0,
      "note": 41,
      "start": 34.4517,
      "duration": 0.0161,
      "velocity": 115,
      "chip": "ym2612"
    },
    {
      "channel": 5,
      "note": 85,
      "start": 34.4548,
      "duration": 0.0145,
      "velocity": 89,
      "chip": "ym2612"
    },
    {
      "channel": 3,
      "note": 85,
      "start": 34.4563,
      "duration": 0.0144,
      "velocity": 89,
      "chip": "ym2612"
    },
    {
      "channel": 4,
      "note": 59,
      "start": 34.4586,
      "duration": 0.0145,
      "velocity": 100,
      "chip": "ym2612"
    },
    {
      "channel": 1,
      "note": 79,
      "start": 34.4662,
      "duration": 0.0161,
      "velocity": 127,
      "chip": "ym2612"
    },
    {
      "channel": 0,
      "note": 42,
      "start": 34.4678,
      "duration": 0.0162,
      "velocity": 115,
      "chip": "ym2612"
    },
    {
      "channel": 5,
      "note": 83,
      "start": 34.4693,
      "duration": 0.0161,
      "velocity": 89,
      "chip": "ym2612"
    },
    {
      "channel": 3,
      "note": 83,
      "start": 34.4707,
      "duration": 0.0162,
      "velocity": 89,
      "chip": "ym2612"
    },
    {
      "channel": 4,
      "note": 59,
      "start": 34.4731,
      "duration": 0.0165,
      "velocity": 100,
      "chip": "ym2612"
    },
    {
      "channel": 1,
      "note": 79,
      "start": 34.4823,
      "duration": 0.0161,
      "velocity": 127,
      "chip": "ym2612"
    },
    {
      "channel": 0,
      "note": 42,
      "start": 34.484,
      "duration": 0.0161,
      "velocity": 115,
      "chip": "ym2612"
    },
    {
      "channel": 5,
      "note": 85,
      "start": 34.4855,
      "duration": 0.016,
      "velocity": 89,
      "chip": "ym2612"
    },
    {
      "channel": 3,
      "note": 85,
      "start": 34.487,
      "duration": 0.016,
      "velocity": 89,
      "chip": "ym2612"
    },
    {
      "channel": 2,
      "note": 76,
      "start": 34.4885,
      "duration": 0.0157,
      "velocity": 105,
      "chip": "ym2612"
    },
    {
      "channel": 4,
      "note": 59,
      "start": 34.4896,
      "duration": 0.0157,
      "velocity": 100,
      "chip": "ym2612"
    },
    {
      "channel": 1,
      "note": 79,
      "start": 34.4984,
      "duration": 0.0161,
      "velocity": 127,
      "chip": "ym2612"
    },
    {
      "channel": 0,
      "note": 43,
      "start": 34.5001,
      "duration": 0.0161,
      "velocity": 115,
      "chip": "ym2612"
    },
    {
      "channel": 5,
      "note": 83,
      "start": 34.5015,
      "duration": 0.0161,
      "velocity": 89,
      "chip": "ym2612"
    },
    {
      "channel": 3,
      "note": 83,
      "start": 34.503,
      "duration": 0.0161,
      "velocity": 89,
      "chip": "ym2612"
    },
    {
      "channel": 2,
      "note": 76,
      "start": 34.5042,
      "duration": 0.0161,
      "velocity": 105,
      "chip": "ym2612"
    },
    {
      "channel": 4,
      "note": 59,
      "start": 34.5054,
      "duration": 0.0162,
      "velocity": 100,
      "chip": "ym2612"
    },
    {
      "channel": 1,
      "note": 79,
      "start": 34.5145,
      "duration": 0.0161,
      "velocity": 127,
      "chip": "ym2612"
    },
    {
      "channel": 0,
      "note": 43,
      "start": 34.5162,
      "duration": 0.0161,
      "velocity": 115,
      "chip": "ym2612"
    },
    {
      "channel": 5,
      "note": 85,
      "start": 34.5177,
      "duration": 0.016,
      "velocity": 89,
      "chip": "ym2612"
    },
    {
      "channel": 3,
      "note": 85,
      "start": 34.5192,
      "duration": 0.0159,
      "velocity": 89,
      "chip": "ym2612"
    },
    {
      "channel": 2,
      "note": 76,
      "start": 34.5204,
      "duration": 0.016,
      "velocity": 105,
      "chip": "ym2612"
    },
    {
      "channel": 4,
      "note": 59,
      "start": 34.5215,
      "duration": 0.016,
      "velocity": 100,
      "chip": "ym2612"
    },
    {
      "channel": 1,
      "note": 79,
      "start": 34.5305,
      "duration": 0.0159,
      "velocity": 1,
      "chip": "ym2612"
    },
    {
      "channel": 0,
      "note": 44,
      "start": 34.5323,
      "duration": 0.0159,
      "velocity": 115,
      "chip": "ym2612"
    },
    {
      "channel": 5,
      "note": 83,
      "start": 34.5337,
      "duration": 0.0158,
      "velocity": 89,
      "chip": "ym2612"
    },
    {
      "channel": 3,
      "note": 83,
      "start": 34.5352,
      "duration": 0.0159,
      "velocity": 89,
      "chip": "ym2612"
    },
    {
      "channel": 2,
      "note": 76,
      "start": 34.5363,
      "duration": 0.016,
      "velocity": 105,
      "chip": "ym2612"
    },
    {
      "channel": 4,
      "note": 59,
      "start": 34.5375,
      "duration": 0.016,
      "velocity": 100,
      "chip": "ym2612"
    },
    {
      "channel": 0,
      "note": 44,
      "start": 34.5481,
      "duration": 0.0153,
      "velocity": 115,
      "chip": "ym2612"
    },
    {
      "channel": 5,
      "note": 85,
      "start": 34.5496,
      "duration": 0.0152,
      "velocity": 89,
      "chip": "ym2612"
    },
    {
      "channel": 3,
      "note": 85,
      "start": 34.5511,
      "duration": 0.0152,
      "velocity": 89,
      "chip": "ym2612"
    },
    {
      "channel": 4,
      "note": 59,
      "start": 34.5534,
      "duration": 0.0152,
      "velocity": 100,
      "chip": "ym2612"
    },
    {
      "channel": 0,
      "note": 44,
      "start": 34.5634,
      "duration": 0.0161,
      "velocity": 115,
      "chip": "ym2612"
    },
    {
      "channel": 5,
      "note": 83,
      "start": 34.5648,
      "duration": 0.0162,
      "velocity": 89,
      "chip": "ym2612"
    },
    {
      "channel": 3,
      "note": 83,
      "start": 34.5663,
      "duration": 0.0162,
      "velocity": 89,
      "chip": "ym2612"
    },
    {
      "channel": 4,
      "note": 59,
      "start": 34.5687,
      "duration": 0.0162,
      "velocity": 100,
      "chip": "ym2612"
    },
    {
      "channel": 0,
      "note": 45,
      "start": 34.5795,
      "duration": 0.0211,
      "velocity": 115,
      "chip": "ym2612"
    },
    {
      "channel": 5,
      "note": 85,
      "start": 34.5811,
      "duration": 0.021,
      "velocity": 89,
      "chip": "ym2612"
    },
    {
      "channel": 3,
      "note": 85,
      "start": 34.5826,
      "duration": 0.0211,
      "velocity": 89,
      "chip": "ym2612"
    },
    {
      "channel": 4,
      "note": 59,
      "start": 34.5849,
      "duration": 0.0216,
      "velocity": 100,
      "chip": "ym2612"
    },
    {
      "channel": 1,
      "note": 79,
      "start": 34.5971,
      "duration": 0.0146,
      "velocity": 127,
      "chip": "ym2612"
    },
    {
      "channel": 0,
      "note": 36,
      "start": 34.6007,
      "duration": 0.0128,
      "velocity": 115,
      "chip": "ym2612"
    },
    {
      "channel": 5,
      "note": 83,
      "start": 34.6022,
      "duration": 0.0128,
      "velocity": 89,
      "chip": "ym2612"
    },
    {
      "channel": 3,
      "note": 80,
      "start": 34.6037,
      "duration": 0.0128,
      "velocity": 89,
      "chip": "ym2612"
    },
    {
      "channel": 2,
      "note": 76,
      "start": 34.6051,
      "duration": 0.0126,
      "velocity": 105,
      "chip": "ym2612"
    },
    {
      "channel": 4,
      "note": 54,
      "start": 34.6066,
      "duration": 0.0123,
      "velocity": 100,
      "chip": "ym2612"
    },
    {
      "channel": 1,
      "note": 79,
      "start": 34.6117,
      "duration": 0.016,
      "velocity": 127,
      "chip": "ym2612"
    },
    {
      "channel": 0,
      "note": 36,
      "start": 34.6135,
      "duration": 0.016,
      "velocity": 115,
      "chip": "ym2612"
    },
    {
      "channel": 5,
      "note": 85,
      "start": 34.615,
      "duration": 0.0158,
      "velocity": 89,
      "chip": "ym2612"
    },
    {
      "channel": 3,
      "note": 78,
      "start": 34.6165,
      "duration": 0.0159,
      "velocity": 89,
      "chip": "ym2612"
    },
    {
      "channel": 2,
      "note": 76,
      "start": 34.6177,
      "duration": 0.0159,
      "velocity": 105,
      "chip": "ym2612"
    },
    {
      "channel": 4,
      "note": 54,
      "start": 34.6189,
      "duration": 0.0158,
      "velocity": 100,
      "chip": "ym2612"
    },
    {
      "channel": 1,
      "note": 79,
      "start": 34.6277,
      "duration": 0.0156,
      "velocity": 127,
      "chip": "ym2612"
    },
    {
      "channel": 0,
      "note": 37,
      "start": 34.6295,
      "duration": 0.0161,
      "velocity": 115,
      "chip": "ym2612"
    },
    {
      "channel": 5,
      "note": 83,
      "start": 34.6309,
      "duration": 0.0161,
      "velocity": 89,
      "chip": "ym2612"
    },
    {
      "channel": 3,
      "note": 80,
      "start": 34.6324,
      "duration": 0.016,
      "velocity": 89,
      "chip": "ym2612"
    },
    {
      "channel": 2,
      "note": 76,
      "start": 34.6336,
      "duration": 0.0161,
      "velocity": 105,
      "chip": "ym2612"
    },
    {
      "channel": 4,
      "note": 54,
      "start": 34.6347,
      "duration": 0.0161,
      "velocity": 100,
      "chip": "ym2612"
    },
    {
      "channel": 1,
      "note": 79,
      "start": 34.6433,
      "duration": 0.0161,
      "velocity": 127,
      "chip": "ym2612"
    },
    {
      "channel": 0,
      "note": 37,
      "start": 34.6456,
      "duration": 0.0161,
      "velocity": 115,
      "chip": "ym2612"
    },
    {
      "channel": 5,
      "note": 85,
      "start": 34.6471,
      "duration": 0.016,
      "velocity": 89,
      "chip": "ym2612"
    },
    {
      "channel": 3,
      "note": 78,
      "start": 34.6485,
      "duration": 0.0161,
      "velocity": 89,
      "chip": "ym2612"
    },
    {
      "channel": 2,
      "note": 76,
      "start": 34.6497,
      "duration": 0.0161,
      "velocity": 105,
      "chip": "ym2612"
    },
    {
      "channel": 4,
      "note": 54,
      "start": 34.6508,
      "duration": 0.0162,
      "velocity": 100,
      "chip": "ym2612"
    },
    {
      "channel": 1,
      "note": 79,
      "start": 34.6594,
      "duration": 0.0161,
      "velocity": 127,
      "chip": "ym2612"
    },
    {
      "channel": 0,
      "note": 38,
      "start": 34.6617,
      "duration": 0.016,
      "velocity": 115,
      "chip": "ym2612"
    },
    {
      "channel": 5,
      "note": 83,
      "start": 34.6631,
      "duration": 0.0161,
      "velocity": 89,
      "chip": "ym2612"
    },
    {
      "channel": 3,
      "note": 80,
      "start": 34.6646,
      "duration": 0.0161,
      "velocity": 89,
      "chip": "ym2612"
    },
    {
      "channel": 4,
      "note": 54,
      "start": 34.667,
      "duration": 0.0161,
      "velocity": 100,
      "chip": "ym2612"
    },
    {
      "channel": 1,
      "note": 79,
      "start": 34.6755,
      "duration": 0.0161,
      "velocity": 127,
      "chip": "ym2612"
    },
    {
      "channel": 0,
      "note": 38,
      "start": 34.6777,
      "duration": 0.0156,
      "velocity": 115,
      "chip": "ym2612"
    },
    {
      "channel": 5,
      "note": 85,
      "start": 34.6793,
      "duration": 0.016,
      "velocity": 89,
      "chip": "ym2612"
    },
    {
      "channel": 3,
      "note": 78,
      "start": 34.6807,
      "duration": 0.016,
      "velocity": 89,
      "chip": "ym2612"
    },
    {
      "channel": 4,
      "note": 54,
      "start": 34.6831,
      "duration": 0.016,
      "velocity": 100,
      "chip": "ym2612"
    },
    {
      "channel": 1,
      "note": 79,
      "start": 34.6916,
      "duration": 0.0161,
      "velocity": 127,
      "chip": "ym2612"
    },
    {
      "channel": 0,
      "note": 39,
      "start": 34.6933,
      "duration": 0.0185,
      "velocity": 115,
      "chip": "ym2612"
    },
    {
      "channel": 5,
      "note": 83,
      "start": 34.6953,
      "duration": 0.0179,
      "velocity": 89,
      "chip": "ym2612"
    },
    {
      "channel": 3,
      "note": 80,
      "start": 34.6968,
      "duration": 0.0179,
      "velocity": 89,
      "chip": "ym2612"
    },
    {
      "channel": 4,
      "note": 54,
      "start": 34.6991,
      "duration": 0.0186,
      "velocity": 100,
      "chip": "ym2612"
    },
    {
      "channel": 1,
      "note": 79,
      "start": 34.7076,
      "duration": 0.0161,
      "velocity": 127,
      "chip": "ym2612"
    },
    {
      "channel": 0,
      "note": 36,
      "start": 34.7118,
      "duration": 0.0137,
      "velocity": 115,
      "chip": "ym2612"
    },
    {
      "channel": 5,
      "note": 85,
      "start": 34.7133,
      "duration": 0.0139,
      "velocity": 89,
      "chip": "ym2612"
    },
    {
      "channel": 3,
      "note": 78,
      "start": 34.7148,
      "duration": 0.0143,
      "velocity": 89,
      "chip": "ym2612"
    },
    {
      "channel": 2,
      "note": 76,
      "start": 34.7164,
      "duration": 0.014,
      "velocity": 105,
      "chip": "ym2612"
    },
    {
      "channel": 4,
      "note": 54,
      "start": 34.7178,
      "duration": 0.0138,
      "velocity": 100,
      "chip": "ym2612"
    },
    {
      "channel": 1,
      "note": 79,
      "start": 34.7237,
      "duration": 0.0162,
      "velocity": 127,
      "chip": "ym2612"
    },
    {
      "channel": 0,
      "note": 36,
      "start": 34.7255,
      "duration": 0.016,
      "velocity": 115,
      "chip": "ym2612"
    },
    {
      "channel": 5,
      "note": 83,
      "start": 34.7276,
      "duration": 0.0155,
      "velocity": 89,
      "chip": "ym2612"
    },
    {
      "channel": 3,
      "note": 80,
      "start": 34.7291,
      "duration": 0.016,
      "velocity": 89,
      "chip": "ym2612"
    },
    {
      "channel": 2,
      "note": 76,
      "start": 34.7304,
      "duration": 0.016,
      "velocity": 105,
      "chip": "ym2612"
    },
    {
      "channel": 4,
      "note": 54,
      "start": 34.7316,
      "duration": 0.0159,
      "velocity": 100,
      "chip": "ym2612"
    },
    {
      "channel": 1,
      "note": 79,
      "start": 34.7399,
      "duration": 0.0161,
      "velocity": 127,
      "chip": "ym2612"
    },
    {
      "channel": 0,
      "note": 37,
      "start": 34.7416,
      "duration": 0.0161,
      "velocity": 115,
      "chip": "ym2612"
    },
    {
      "channel": 5,
      "note": 85,
      "start": 34.7431,
      "duration": 0.016,
      "velocity": 89,
      "chip": "ym2612"
    },
    {
      "channel": 3,
      "note": 78,
      "start": 34.7452,
      "duration": 0.016,
      "velocity": 89,
      "chip": "ym2612"
    },
    {
      "channel": 2,
      "note": 76,
      "start": 34.7463,
      "duration": 0.0161,
      "velocity": 105,
      "chip": "ym2612"
    },
    {
      "channel": 4,
      "note": 54,
      "start": 34.7475,
      "duration": 0.0161,
      "velocity": 100,
      "chip": "ym2612"
    },
    {
      "channel": 1,
      "note": 79,
      "start": 34.756,
      "duration": 0.0161,
      "velocity": 127,
      "chip": "ym2612"
    },
    {
      "channel": 0,
      "note": 37,
      "start": 34.7576,
      "duration": 0.0162,
      "velocity": 115,
      "chip": "ym2612"
    },
    {
      "channel": 5,
      "note": 83,
      "start": 34.7591,
      "duration": 0.0161,
      "velocity": 89,
      "chip": "ym2612"
    },
    {
      "channel": 3,
      "note": 80,
      "start": 34.7612,
      "duration": 0.0157,
      "velocity": 89,
      "chip": "ym2612"
    },
    {
      "channel": 2,
      "note": 76,
      "start": 34.7624,
      "duration": 0.0161,
      "velocity": 105,
      "chip": "ym2612"
    },
    {
      "channel": 4,
      "note": 54,
      "start": 34.7636,
      "duration": 0.0161,
      "velocity": 100,
      "chip": "ym2612"
    },
    {
      "channel": 1,
      "note": 79,
      "start": 34.7721,
      "duration": 0.0161,
      "velocity": 127,
      "chip": "ym2612"
    },
    {
      "channel": 0,
      "note": 38,
      "start": 34.7738,
      "duration": 0.0161,
      "velocity": 115,
      "chip": "ym2612"
    },
    {
      "channel": 5,
      "note": 85,
      "start": 34.7753,
      "duration": 0.016,
      "velocity": 89,
      "chip": "ym2612"
    },
    {
      "channel": 3,
      "note": 78,
      "start": 34.777,
      "duration": 0.0159,
      "velocity": 89,
      "chip": "ym2612"
    },
    {
      "channel": 2,
      "note": 76,
      "start": 34.7785,
      "duration": 0.0161,
      "velocity": 105,
      "chip": "ym2612"
    },
    {
      "channel": 4,
      "note": 54,
      "start": 34.7797,
      "duration": 0.0162,
      "velocity": 100,
      "chip": "ym2612"
    },
    {
      "channel": 1,
      "note": 79,
      "start": 34.7882,
      "duration": 0.0161,
      "velocity": 127,
      "chip": "ym2612"
    },
    {
      "channel": 0,
      "note": 38,
      "start": 34.7899,
      "duration": 0.0161,
      "velocity": 115,
      "chip": "ym2612"
    },
    {
      "channel": 5,
      "note": 80,
      "start": 34.7914,
      "duration": 0.016,
      "velocity": 89,
      "chip": "ym2612"
    },
    {
      "channel": 3,
      "note": 80,
      "start": 34.7929,
      "duration": 0.016,
      "velocity": 89,
      "chip": "ym2612"
    },
    {
      "channel": 2,
      "note": 76,
      "start": 34.7946,
      "duration": 0.0156,
      "velocity": 105,
      "chip": "ym2612"
    },
    {
      "channel": 4,
      "note": 54,
      "start": 34.7958,
      "duration": 0.016,
      "velocity": 100,
      "chip": "ym2612"
    },
    {
      "channel": 1,
      "note": 79,
      "start": 34.8043,
      "duration": 0.0179,
      "velocity": 127,
      "chip": "ym2612"
    },
    {
      "channel": 0,
      "note": 39,
      "start": 34.806,
      "duration": 0.018,
      "velocity": 115,
      "chip": "ym2612"
    },
    {
      "channel": 5,
      "note": 78,
      "start": 34.8075,
      "duration": 0.0179,
      "velocity": 89,
      "chip": "ym2612"
    },
    {
      "channel": 3,
      "note": 78,
      "start": 34.8089,
      "duration": 0.0182,
      "velocity": 89,
      "chip": "ym2612"
    },
    {
      "channel": 2,
      "note": 76,
      "start": 34.8102,
      "duration": 0.0185,
      "velocity": 105,
      "chip": "ym2612"
    },
    {
      "channel": 4,
      "note": 54,
      "start": 34.8119,
      "duration": 0.018,
      "velocity": 100,
      "chip": "ym2612"
    },
    {
      "channel": 1,
      "note": 79,
      "start": 34.8222,
      "duration": 0.0143,
      "velocity": 127,
      "chip": "ym2612"
    },
    {
      "channel": 0,
      "note": 39,
      "start": 34.8239,
      "duration": 0.0143,
      "velocity": 115,
      "chip": "ym2612"
    },
    {
      "channel": 5,
      "note": 80,
      "start": 34.8254,
      "duration": 0.0142,
      "velocity": 89,
      "chip": "ym2612"
    },
    {
      "channel": 3,
      "note": 80,
      "start": 34.8272,
      "duration": 0.0139,
      "velocity": 89,
      "chip": "ym2612"
    },
    {
      "channel": 2,
      "note": 76,
      "start": 34.8287,
      "duration": 0.0136,
      "velocity": 105,
      "chip": "ym2612"
    },
    {
      "channel": 4,
      "note": 54,
      "start": 34.8298,
      "duration": 0.0139,
      "velocity": 100,
      "chip": "ym2612"
    },
    {
      "channel": 1,
      "note": 79,
      "start": 34.8365,
      "duration": 0.016,
      "velocity": 127,
      "chip": "ym2612"
    },
    {
      "channel": 0,
      "note": 40,
      "start": 34.8383,
      "duration": 0.016,
      "velocity": 115,
      "chip": "ym2612"
    },
    {
      "channel": 5,
      "note": 78,
      "start": 34.8397,
      "duration": 0.016,
      "velocity": 89,
      "chip": "ym2612"
    },
    {
      "channel": 3,
      "note": 78,
      "start": 34.8412,
      "duration": 0.0161,
      "velocity": 89,
      "chip": "ym2612"
    },
    {
      "channel": 2,
      "note": 76,
      "start": 34.8423,
      "duration": 0.0162,
      "velocity": 105,
      "chip": "ym2612"
    },
    {
      "channel": 4,
      "note": 54,
      "start": 34.8437,
      "duration": 0.0159,
      "velocity": 100,
      "chip": "ym2612"
    },
    {
      "channel": 1,
      "note": 79,
      "start": 34.8526,
      "duration": 0.0161,
      "velocity": 127,
      "chip": "ym2612"
    },
    {
      "channel": 0,
      "note": 40,
      "start": 34.8543,
      "duration": 0.0161,
      "velocity": 115,
      "chip": "ym2612"
    },
    {
      "channel": 5,
      "note": 80,
      "start": 34.8558,
      "duration": 0.016,
      "velocity": 89,
      "chip": "ym2612"
    },
    {
      "channel": 3,
      "note": 80,
      "start": 34.8573,
      "duration": 0.016,
      "velocity": 89,
      "chip": "ym2612"
    },
    {
      "channel": 2,
      "note": 76,
      "start": 34.8585,
      "duration": 0.016,
      "velocity": 105,
      "chip": "ym2612"
    },
    {
      "channel": 4,
      "note": 54,
      "start": 34.8596,
      "duration": 0.016,
      "velocity": 100,
      "chip": "ym2612"
    },
    {
      "channel": 1,
      "note": 79,
      "start": 34.8687,
      "duration": 0.0161,
      "velocity": 127,
      "chip": "ym2612"
    },
    {
      "channel": 0,
      "note": 40,
      "start": 34.8704,
      "duration": 0.0161,
      "velocity": 115,
      "chip": "ym2612"
    },
    {
      "channel": 5,
      "note": 78,
      "start": 34.8718,
      "duration": 0.0162,
      "velocity": 89,
      "chip": "ym2612"
    },
    {
      "channel": 3,
      "note": 78,
      "start": 34.8733,
      "duration": 0.0162,
      "velocity": 89,
      "chip": "ym2612"
    },
    {
      "channel": 2,
      "note": 76,
      "start": 34.8745,
      "duration": 0.0162,
      "velocity": 105,
      "chip": "ym2612"
    },
    {
      "channel": 4,
      "note": 54,
      "start": 34.8756,
      "duration": 0.0162,
      "velocity": 100,
      "chip": "ym2612"
    },
    {
      "channel": 1,
      "note": 79,
      "start": 34.8848,
      "duration": 0.0161,
      "velocity": 127,
      "chip": "ym2612"
    },
    {
      "channel": 0,
      "note": 41,
      "start": 34.8865,
      "duration": 0.0161,
      "velocity": 115,
      "chip": "ym2612"
    },
    {
      "channel": 5,
      "note": 80,
      "start": 34.888,
      "duration": 0.016,
      "velocity": 89,
      "chip": "ym2612"
    },
    {
      "channel": 3,
      "note": 80,
      "start": 34.8895,
      "duration": 0.016,
      "velocity": 89,
      "chip": "ym2612"
    },
    {
      "channel": 4,
      "note": 54,
      "start": 34.8919,
      "duration": 0.016,
      "velocity": 100,
      "chip": "ym2612"
    },
    {
      "channel": 1,
      "note": 79,
      "start": 34.9009,
      "duration": 0.0161,
      "velocity": 127,
      "chip": "ym2612"
    },
    {
      "channel": 0,
      "note": 41,
      "start": 34.9026,
      "duration": 0.0161,
      "velocity": 115,
      "chip": "ym2612"
    },
    {
      "channel": 5,
      "note": 78,
      "start": 34.904,
      "duration": 0.0162,
      "velocity": 89,
      "chip": "ym2612"
    },
    {
      "channel": 3,
      "note": 78,
      "start": 34.9055,
      "duration": 0.0162,
      "velocity": 89,
      "chip": "ym2612"
    },
    {
      "channel": 4,
      "note": 54,
      "start": 34.9078,
      "duration": 0.0162,
      "velocity": 100,
      "chip": "ym2612"
    },
    {
      "channel": 1,
      "note": 79,
      "start": 34.917,
      "duration": 0.0178,
      "velocity": 127,
      "chip": "ym2612"
    },
    {
      "channel": 0,
      "note": 42,
      "start": 34.9187,
      "duration": 0.0197,
      "velocity": 124,
      "chip": "ym2612"
    },
    {
      "channel": 5,
      "note": 80,
      "start": 34.9202,
      "duration": 0.0197,
      "velocity": 89,
      "chip": "ym2612"
    },
    {
      "channel": 3,
      "note": 80,
      "start": 34.9217,
      "duration": 0.0197,
      "velocity": 89,
      "chip": "ym2612"
    },
    {
      "channel": 4,
      "note": 54,
      "start": 34.9241,
      "duration": 0.0205,
      "velocity": 100,
      "chip": "ym2612"
    },
    {
      "channel": 1,
      "note": 72,
      "start": 34.9349,
      "duration": 0.0144,
      "velocity": 127,
      "chip": "ym2612"
    },
    {
      "channel": 0,
      "note": 84,
      "start": 34.9384,
      "duration": 0.0126,
      "velocity": 124,
      "chip": "ym2612"
    },
    {
      "channel": 5,
      "note": 78,
      "start": 34.9399,
      "duration": 0.0126,
      "velocity": 89,
      "chip": "ym2612"
    },
    {
      "channel": 3,
      "note": 85,
      "start": 34.9414,
      "duration": 0.0125,
      "velocity": 89,
      "chip": "ym2612"
    },
    {
      "channel": 2,
      "note": 76,
      "start": 34.9429,
      "duration": 0.0123,
      "velocity": 105,
      "chip": "ym2612"
    },
    {
      "channel": 4,
      "note": 54,
      "start": 34.9446,
      "duration": 0.0118,
      "velocity": 100,
      "chip": "ym2612"
    },
    {
      "channel": 1,
      "note": 72,
      "start": 34.9493,
      "duration": 0.016,
      "velocity": 127,
      "chip": "ym2612"
    },
    {
      "channel": 0,
      "note": 82,
      "start": 34.951,
      "duration": 0.016,
      "velocity": 124,
      "chip": "ym2612"
    },
    {
      "channel": 5,
      "note": 80,
      "start": 34.9526,
      "duration": 0.0159,
      "velocity": 89,
      "chip": "ym2612"
    },
    {
      "channel": 3,
      "note": 83,
      "start": 34.954,
      "duration": 0.0159,
      "velocity": 89,
      "chip": "ym2612"
    },
    {
      "channel": 2,
      "note": 76,
      "start": 34.9552,
      "duration": 0.0159,
      "velocity": 105,
      "chip": "ym2612"
    },
    {
      "channel": 4,
      "note": 54,
      "start": 34.9564,
      "duration": 0.0159,
      "velocity": 100,
      "chip": "ym2612"
    },
    {
      "channel": 1,
      "note": 72,
      "start": 34.9653,
      "duration": 0.0161,
      "velocity": 127,
      "chip": "ym2612"
    },
    {
      "channel": 0,
      "note": 80,
      "start": 34.967,
      "duration": 0.0161,
      "velocity": 124,
      "chip": "ym2612"
    },
    {
      "channel": 5,
      "note": 78,
      "start": 34.9685,
      "duration": 0.0161,
      "velocity": 89,
      "chip": "ym2612"
    },
    {
      "channel": 3,
      "note": 85,
      "start": 34.97,
      "duration": 0.016,
      "velocity": 89,
      "chip": "ym2612"
    },
    {
      "channel": 2,
      "note": 76,
      "start": 34.9711,
      "duration": 0.0161,
      "velocity": 105,
      "chip": "ym2612"
    },
    {
      "channel": 4,
      "note": 54,
      "start": 34.9723,
      "duration": 0.0161,
      "velocity": 100,
      "chip": "ym2612"
    },
    {
      "channel": 1,
      "note": 72,
      "start": 34.9814,
      "duration": 0.0161,
      "velocity": 127,
      "chip": "ym2612"
    },
    {
      "channel": 0,
      "note": 77,
      "start": 34.9831,
      "duration": 0.0161,
      "velocity": 124,
      "chip": "ym2612"
    },
    {
      "channel": 5,
      "note": 80,
      "start": 34.9846,
      "duration": 0.016,
      "velocity": 89,
      "chip": "ym2612"
    },
    {
      "channel": 3,
      "note": 83,
      "start": 34.9861,
      "duration": 0.016,
      "velocity": 89,
      "chip": "ym2612"
    },
    {
      "channel": 2,
      "note": 76,
      "start": 34.9872,
      "duration": 0.0161,
      "velocity": 105,
      "chip": "ym2612"
    },
    {
      "channel": 4,
      "note": 54,
      "start": 34.9884,
      "duration": 0.0162,
      "velocity": 100,
      "chip": "ym2612"
    },
    {
      "channel": 1,
      "note": 72,
      "start": 34.9975,
      "duration": 0.0161,
      "velocity": 127,
      "chip": "ym2612"
    },
    {
      "channel": 0,
      "note": 75,
      "start": 34.9992,
      "duration": 0.0161,
      "velocity": 124,
      "chip": "ym2612"
    },
    {
      "channel": 5,
      "note": 78,
      "start": 35.0007,
      "duration": 0.0161,
      "velocity": 89,
      "chip": "ym2612"
    },
    {
      "channel": 3,
      "note": 85,
      "start": 35.0022,
      "duration": 0.016,
      "velocity": 89,
      "chip": "ym2612"
    },
    {
      "channel": 4,
      "note": 54,
      "start": 35.0045,
      "duration": 0.016,
      "velocity": 100,
      "chip": "ym2612"
    },
    {
      "channel": 1,
      "note": 72,
      "start": 35.0136,
      "duration": 0.0162,
      "velocity": 127,
      "chip": "ym2612"
    },
    {
      "channel": 0,
      "note": 72,
      "start": 35.0153,
      "duration": 0.0162,
      "velocity": 124,
      "chip": "ym2612"
    },
    {
      "channel": 5,
      "note": 80,
      "start": 35.0168,
      "duration": 0.0161,
      "velocity": 89,
      "chip": "ym2612"
    },
    {
      "channel": 3,
      "note": 83,
      "start": 35.0183,
      "duration": 0.0161,
      "velocity": 89,
      "chip": "ym2612"
    },
    {
      "channel": 4,
      "note": 54,
      "start": 35.0206,
      "duration": 0.0162,
      "velocity": 100,
      "chip": "ym2612"
    },
    {
      "channel": 1,
      "note": 72,
      "start": 35.0298,
      "duration": 0.0161,
      "velocity": 127,
      "chip": "ym2612"
    },
    {
      "channel": 0,
      "note": 70,
      "start": 35.0315,
      "duration": 0.0179,
      "velocity": 115,
      "chip": "ym2612"
    },
    {
      "channel": 5,
      "note": 78,
      "start": 35.0329,
      "duration": 0.018,
      "velocity": 89,
      "chip": "ym2612"
    },
    {
      "channel": 3,
      "note": 85,
      "start": 35.0344,
      "duration": 0.018,
      "velocity": 89,
      "chip": "ym2612"
    },
    {
      "channel": 4,
      "note": 54,
      "start": 35.0368,
      "duration": 0.0185,
      "velocity": 100,
      "chip": "ym2612"
    },
    {
      "channel": 1,
      "note": 72,
      "start": 35.0459,
      "duration": 0.0164,
      "velocity": 127,
      "chip": "ym2612"
    },
    {
      "channel": 0,
      "note": 36,
      "start": 35.0494,
      "duration": 0.0146,
      "velocity": 115,
      "chip": "ym2612"
    },
    {
      "channel": 5,
      "note": 80,
      "start": 35.051,
      "duration": 0.0145,
      "velocity": 89,
      "chip": "ym2612"
    },
    {
      "channel": 3,
      "note": 83,
      "start": 35.0524,
      "duration": 0.0146,
      "velocity": 89,
      "chip": "ym2612"
    },
    {
      "channel": 2,
      "note": 76,
      "start": 35.0538,
      "duration": 0.0144,
      "velocity": 105,
      "chip": "ym2612"
    },
    {
      "channel": 4,
      "note": 54,
      "start": 35.0554,
      "duration": 0.0141,
      "velocity": 100,
      "chip": "ym2612"
    },
    {
      "channel": 1,
      "note": 72,
      "start": 35.0623,
      "duration": 0.0163,
      "velocity": 127,
      "chip": "ym2612"
    },
    {
      "channel": 0,
      "note": 36,
      "start": 35.0641,
      "duration": 0.0162,
      "velocity": 115,
      "chip": "ym2612"
    },
    {
      "channel": 5,
      "note": 78,
      "start": 35.0655,
      "duration": 0.0162,
      "velocity": 89,
      "chip": "ym2612"
    },
    {
      "channel": 3,
      "note": 85,
      "start": 35.0671,
      "duration": 0.0161,
      "velocity": 89,
      "chip": "ym2612"
    },
    {
      "channel": 2,
      "note": 76,
      "start": 35.0683,
      "duration": 0.0161,
      "velocity": 105,
      "chip": "ym2612"
    },
    {
      "channel": 4,
      "note": 54,
      "start": 35.0695,
      "duration": 0.0161,
      "velocity": 100,
      "chip": "ym2612"
    },
    {
      "channel": 1,
      "note": 72,
      "start": 35.0786,
      "duration": 0.0161,
      "velocity": 127,
      "chip": "ym2612"
    },
    {
      "channel": 0,
      "note": 37,
      "start": 35.0803,
      "duration": 0.0161,
      "velocity": 115,
      "chip": "ym2612"
    },
    {
      "channel": 5,
      "note": 80,
      "start": 35.0818,
      "duration": 0.016,
      "velocity": 89,
      "chip": "ym2612"
    },
    {
      "channel": 3,
      "note": 83,
      "start": 35.0833,
      "duration": 0.016,
      "velocity": 89,
      "chip": "ym2612"
    },
    {
      "channel": 2,
      "note": 76,
      "start": 35.0844,
      "duration": 0.0161,
      "velocity": 105,
      "chip": "ym2612"
    },
    {
      "channel": 4,
      "note": 54,
      "start": 35.0856,
      "duration": 0.0161,
      "velocity": 100,
      "chip": "ym2612"
    },
    {
      "channel": 1,
      "note": 72,
      "start": 35.0947,
      "duration": 0.0158,
      "velocity": 127,
      "chip": "ym2612"
    },
    {
      "channel": 0,
      "note": 37,
      "start": 35.0964,
      "duration": 0.0161,
      "velocity": 115,
      "chip": "ym2612"
    },
    {
      "channel": 5,
      "note": 78,
      "start": 35.0978,
      "duration": 0.0162,
      "velocity": 89,
      "chip": "ym2612"
    },
    {
      "channel": 3,
      "note": 85,
      "start": 35.0994,
      "duration": 0.016,
      "velocity": 89,
      "chip": "ym2612"
    },
    {
      "channel": 2,
      "note": 76,
      "start": 35.1005,
      "duration": 0.0161,
      "velocity": 105,
      "chip": "ym2612"
    },
    {
      "channel": 4,
      "note": 54,
      "start": 35.1017,
      "duration": 0.0161,
      "velocity": 100,
      "chip": "ym2612"
    },
    {
      "channel": 1,
      "note": 72,
      "start": 35.1105,
      "duration": 0.0158,
      "velocity": 127,
      "chip": "ym2612"
    },
    {
      "channel": 0,
      "note": 38,
      "start": 35.1125,
      "duration": 0.0161,
      "velocity": 115,
      "chip": "ym2612"
    },
    {
      "channel": 5,
      "note": 80,
      "start": 35.114,
      "duration": 0.016,
      "velocity": 89,
      "chip": "ym2612"
    },
    {
      "channel": 3,
      "note": 83,
      "start": 35.1155,
      "duration": 0.0161,
      "velocity": 89,
      "chip": "ym2612"
    },
    {
      "channel": 4,
      "note": 54,
      "start": 35.1178,
      "duration": 0.0161,
      "velocity": 100,
      "chip": "ym2612"
    },
    {
      "channel": 1,
      "note": 72,
      "start": 35.1263,
      "duration": 0.0161,
      "velocity": 127,
      "chip": "ym2612"
    },
    {
      "channel": 0,
      "note": 38,
      "start": 35.1286,
      "duration": 0.0161,
      "velocity": 115,
      "chip": "ym2612"
    },
    {
      "channel": 5,
      "note": 85,
      "start": 35.1301,
      "duration": 0.016,
      "velocity": 89,
      "chip": "ym2612"
    },
    {
      "channel": 3,
      "note": 85,
      "start": 35.1316,
      "duration": 0.016,
      "velocity": 89,
      "chip": "ym2612"
    },
    {
      "channel": 4,
      "note": 54,
      "start": 35.1339,
      "duration": 0.016,
      "velocity": 100,
      "chip": "ym2612"
    },
    {
      "channel": 1,
      "note": 72,
      "start": 35.1424,
      "duration": 0.0161,
      "velocity": 127,
      "chip": "ym2612"
    },
    {
      "channel": 0,
      "note": 39,
      "start": 35.1447,
      "duration": 0.0158,
      "velocity": 115,
      "chip": "ym2612"
    },
    {
      "channel": 5,
      "note": 83,
      "start": 35.1462,
      "duration": 0.0161,
      "velocity": 89,
      "chip": "ym2612"
    },
    {
      "channel": 3,
      "note": 83,
      "start": 35.1477,
      "duration": 0.0161,
      "velocity": 89,
      "chip": "ym2612"
    },
    {
      "channel": 4,
      "note": 54,
      "start": 35.15,
      "duration": 0.0167,
      "velocity": 100,
      "chip": "ym2612"
    },
    {
      "channel": 1,
      "note": 72,
      "start": 35.1585,
      "duration": 0.0161,
      "velocity": 127,
      "chip": "ym2612"
    },
    {
      "channel": 0,
      "note": 39,
      "start": 35.1605,
      "duration": 0.0158,
      "velocity": 115,
      "chip": "ym2612"
    },
    {
      "channel": 5,
      "note": 85,
      "start": 35.1623,
      "duration": 0.016,
      "velocity": 89,
      "chip": "ym2612"
    },
    {
      "channel": 3,
      "note": 85,
      "start": 35.1638,
      "duration": 0.016,
      "velocity": 89,
      "chip": "ym2612"
    },
    {
      "channel": 2,
      "note": 76,
      "start": 35.1655,
      "duration": 0.0156,
      "velocity": 105,
      "chip": "ym2612"
    },
    {
      "channel": 4,
      "note": 54,
      "start": 35.1667,
      "duration": 0.0156,
      "velocity": 100,
      "chip": "ym2612"
    },
    {
      "channel": 1,
      "note": 72,
      "start": 35.1746,
      "duration": 0.0161,
      "velocity": 127,
      "chip": "ym2612"
    },
    {
      "channel": 0,
      "note": 40,
      "start": 35.1763,
      "duration": 0.0161,
      "velocity": 115,
      "chip": "ym2612"
    },
    {
      "channel": 5,
      "note": 83,
      "start": 35.1784,
      "duration": 0.016,
      "velocity": 89,
      "chip": "ym2612"
    },
    {
      "channel": 3,
      "note": 83,
      "start": 35.1798,
      "duration": 0.0162,
      "velocity": 89,
      "chip": "ym2612"
    },
    {
      "channel": 2,
      "note": 76,
      "start": 35.1811,
      "duration": 0.0161,
      "velocity": 105,
      "chip": "ym2612"
    },
    {
      "channel": 4,
      "note": 54,
      "start": 35.1823,
      "duration": 0.0162,
      "velocity": 100,
      "chip": "ym2612"
    },
    {
      "channel": 1,
      "note": 72,
      "start": 35.1907,
      "duration": 0.0161,
      "velocity": 127,
      "chip": "ym2612"
    },
    {
      "channel": 0,
      "note": 40,
      "start": 35.1924,
      "duration": 0.0162,
      "velocity": 115,
      "chip": "ym2612"
    },
    {
      "channel": 5,
      "note": 85,
      "start": 35.1945,
      "duration": 0.0154,
      "velocity": 89,
      "chip": "ym2612"
    },
    {
      "channel": 3,
      "note": 85,
      "start": 35.1961,
      "duration": 0.0159,
      "velocity": 89,
      "chip": "ym2612"
    },
    {
      "channel": 2,
      "note": 76,
      "start": 35.1972,
      "duration": 0.016,
      "velocity": 105,
      "chip": "ym2612"
    },
    {
      "channel": 4,
      "note": 54,
      "start": 35.1984,
      "duration": 0.0159,
      "velocity": 100,
      "chip": "ym2612"
    },
    {
      "channel": 1,
      "note": 72,
      "start": 35.2068,
      "duration": 0.0158,
      "velocity": 1,
      "chip": "ym2612"
    },
    {
      "channel": 0,
      "note": 40,
      "start": 35.2085,
      "duration": 0.0158,
      "velocity": 115,
      "chip": "ym2612"
    },
    {
      "channel": 5,
      "note": 83,
      "start": 35.21,
      "duration": 0.0159,
      "velocity": 89,
      "chip": "ym2612"
    },
    {
      "channel": 3,
      "note": 83,
      "start": 35.212,
      "duration": 0.0158,
      "velocity": 89,
      "chip": "ym2612"
    },
    {
      "channel": 2,
      "note": 76,
      "start": 35.2132,
      "duration": 0.016,
      "velocity": 105,
      "chip": "ym2612"
    },
    {
      "channel": 4,
      "note": 54,
      "start": 35.2143,
      "duration": 0.016,
      "velocity": 100,
      "chip": "ym2612"
    },
    {
      "channel": 0,
      "note": 41,
      "start": 35.2243,
      "duration": 0.0153,
      "velocity": 115,
      "chip": "ym2612"
    },
    {
      "channel": 5,
      "note": 85,
      "start": 35.2259,
      "duration": 0.0151,
      "velocity": 89,
      "chip": "ym2612"
    },
    {
      "channel": 3,
      "note": 85,
      "start": 35.2279,
      "duration": 0.0145,
      "velocity": 89,
      "chip": "ym2612"
    },
    {
      "channel": 2,
      "note": 76,
      "start": 35.2292,
      "duration": 0.0147,
      "velocity": 105,
      "chip": "ym2612"
    },
    {
      "channel": 4,
      "note": 54,
      "start": 35.2303,
      "duration": 0.0151,
      "velocity": 100,
      "chip": "ym2612"
    },
    {
      "channel": 0,
      "note": 41,
      "start": 35.2396,
      "duration": 0.0161,
      "velocity": 115,
      "chip": "ym2612"
    },
    {
      "channel": 5,
      "note": 83,
      "start": 35.241,
      "duration": 0.0161,
      "velocity": 89,
      "chip": "ym2612"
    },
    {
      "channel": 3,
      "note": 83,
      "start": 35.2425,
      "duration": 0.0161,
      "velocity": 89,
      "chip": "ym2612"
    },
    {
      "channel": 2,
      "note": 76,
      "start": 35.2439,
      "duration": 0.016,
      "velocity": 105,
      "chip": "ym2612"
    },
    {
      "channel": 4,
      "note": 54,
      "start": 35.2454,
      "duration": 0.0162,
      "velocity": 100,
      "chip": "ym2612"
    },
    {
      "channel": 0,
      "note": 42,
      "start": 35.2557,
      "duration": 0.0208,
      "velocity": 115,
      "chip": "ym2612"
    },
    {
      "channel": 5,
      "note": 85,
      "start": 35.2572,
      "duration": 0.0213,
      "velocity": 89,
      "chip": "ym2612"
    },
    {
      "channel": 3,
      "note": 85,
      "start": 35.2587,
      "duration": 0.0212,
      "velocity": 89,
      "chip": "ym2612"
    },
    {
      "channel": 2,
      "note": 76,
      "start": 35.2599,
      "duration": 0.0213,
      "velocity": 105,
      "chip": "ym2612"
    },
    {
      "channel": 4,
      "note": 54,
      "start": 35.2617,
      "duration": 0.021,
      "velocity": 100,
      "chip": "ym2612"
    },
    {
      "channel": 1,
      "note": 72,
      "start": 35.273,
      "duration": 0.0144,
      "velocity": 127,
      "chip": "ym2612"
    },
    {
      "channel": 0,
      "note": 36,
      "start": 35.2766,
      "duration": 0.0126,
      "velocity": 115,
      "chip": "ym2612"
    },
    {
      "channel": 5,
      "note": 83,
      "start": 35.2786,
      "duration": 0.012,
      "velocity": 89,
      "chip": "ym2612"
    },
    {
      "channel": 3,
      "note": 83,
      "start": 35.28,
      "duration": 0.0121,
      "velocity": 89,
      "chip": "ym2612"
    },
    {
      "channel": 2,
      "note": 76,
      "start": 35.2812,
      "duration": 0.0122,
      "velocity": 105,
      "chip": "ym2612"
    },
    {
      "channel": 4,
      "note": 59,
      "start": 35.2827,
      "duration": 0.0125,
      "velocity": 100,
      "chip": "ym2612"
    },
    {
      "channel": 1,
      "note": 72,
      "start": 35.2873,
      "duration": 0.016,
      "velocity": 127,
      "chip": "ym2612"
    },
    {
      "channel": 0,
      "note": 36,
      "start": 35.2891,
      "duration": 0.016,
      "velocity": 115,
      "chip": "ym2612"
    },
    {
      "channel": 5,
      "note": 85,
      "start": 35.2907,
      "duration": 0.0159,
      "velocity": 89,
      "chip": "ym2612"
    },
    {
      "channel": 3,
      "note": 85,
      "start": 35.2922,
      "duration": 0.0158,
      "velocity": 89,
      "chip": "ym2612"
    },
    {
      "channel": 2,
      "note": 76,
      "start": 35.2933,
      "duration": 0.0159,
      "velocity": 105,
      "chip": "ym2612"
    },
    {
      "channel": 4,
      "note": 59,
      "start": 35.2952,
      "duration": 0.0154,
      "velocity": 100,
      "chip": "ym2612"
    },
    {
      "channel": 1,
      "note": 72,
      "start": 35.3034,
      "duration": 0.0162,
      "velocity": 127,
      "chip": "ym2612"
    },
    {
      "channel": 0,
      "note": 37,
      "start": 35.3051,
      "duration": 0.0161,
      "velocity": 115,
      "chip": "ym2612"
    },
    {
      "channel": 5,
      "note": 83,
      "start": 35.3066,
      "duration": 0.0161,
      "velocity": 89,
      "chip": "ym2612"
    },
    {
      "channel": 3,
      "note": 83,
      "start": 35.308,
      "duration": 0.0162,
      "velocity": 89,
      "chip": "ym2612"
    },
    {
      "channel": 2,
      "note": 76,
      "start": 35.3092,
      "duration": 0.0162,
      "velocity": 105,
      "chip": "ym2612"
    },
    {
      "channel": 4,
      "note": 59,
      "start": 35.3106,
      "duration": 0.016,
      "velocity": 100,
      "chip": "ym2612"
    },
    {
      "channel": 1,
      "note": 72,
      "start": 35.3195,
      "duration": 0.0161,
      "velocity": 127,
      "chip": "ym2612"
    },
    {
      "channel": 0,
      "note": 37,
      "start": 35.3212,
      "duration": 0.0161,
      "velocity": 115,
      "chip": "ym2612"
    },
    {
      "channel": 5,
      "note": 85,
      "start": 35.3227,
      "duration": 0.016,
      "velocity": 89,
      "chip": "ym2612"
    },
    {
      "channel": 3,
      "note": 85,
      "start": 35.3243,
      "duration": 0.016,
      "velocity": 89,
      "chip": "ym2612"
    },
    {
      "channel": 2,
      "note": 76,
      "start": 35.3254,
      "duration": 0.016,
      "velocity": 105,
      "chip": "ym2612"
    },
    {
      "channel": 4,
      "note": 59,
      "start": 35.3266,
      "duration": 0.016,
      "velocity": 100,
      "chip": "ym2612"
    },
    {
      "channel": 1,
      "note": 72,
      "start": 35.3356,
      "duration": 0.0161,
      "velocity": 127,
      "chip": "ym2612"
    },
    {
      "channel": 0,
      "note": 38,
      "start": 35.3373,
      "duration": 0.0161,
      "velocity": 115,
      "chip": "ym2612"
    },
    {
      "channel": 5,
      "note": 83,
      "start": 35.3388,
      "duration": 0.0162,
      "velocity": 89,
      "chip": "ym2612"
    },
    {
      "channel": 3,
      "note": 83,
      "start": 35.3402,
      "duration": 0.0161,
      "velocity": 89,
      "chip": "ym2612"
    },
    {
      "channel": 4,
      "note": 59,
      "start": 35.3426,
      "duration": 0.0161,
      "velocity": 100,
      "chip": "ym2612"
    },
    {
      "channel": 1,
      "note": 72,
      "start": 35.3517,
      "duration": 0.0161,
      "velocity": 127,
      "chip": "ym2612"
    },
    {
      "channel": 0,
      "note": 38,
      "start": 35.3534,
      "duration": 0.0162,
      "velocity": 115,
      "chip": "ym2612"
    },
    {
      "channel": 5,
      "note": 85,
      "start": 35.3549,
      "duration": 0.016,
      "velocity": 89,
      "chip": "ym2612"
    },
    {
      "channel": 3,
      "note": 85,
      "start": 35.3564,
      "duration": 0.016,
      "velocity": 89,
      "chip": "ym2612"
    },
    {
      "channel": 4,
      "note": 59,
      "start": 35.3587,
      "duration": 0.016,
      "velocity": 100,
      "chip": "ym2612"
    },
    {
      "channel": 1,
      "note": 72,
      "start": 35.3678,
      "duration": 0.0178,
      "velocity": 127,
      "chip": "ym2612"
    },
    {
      "channel": 0,
      "note": 39,
      "start": 35.3695,
      "duration": 0.0197,
      "velocity": 115,
      "chip": "ym2612"
    },
    {
      "channel": 5,
      "note": 83,
      "start": 35.371,
      "duration": 0.0197,
      "velocity": 89,
      "chip": "ym2612"
    },
    {
      "channel": 3,
      "note": 83,
      "start": 35.3725,
      "duration": 0.0198,
      "velocity": 89,
      "chip": "ym2612"
    },
    {
      "channel": 4,
      "note": 59,
      "start": 35.3748,
      "duration": 0.0211,
      "velocity": 100,
      "chip": "ym2612"
    },
    {
      "channel": 1,
      "note": 72,
      "start": 35.3857,
      "duration": 0.0144,
      "velocity": 127,
      "chip": "ym2612"
    },
    {
      "channel": 0,
      "note": 36,
      "start": 35.3893,
      "duration": 0.0126,
      "velocity": 115,
      "chip": "ym2612"
    },
    {
      "channel": 5,
      "note": 85,
      "start": 35.3908,
      "duration": 0.0125,
      "velocity": 89,
      "chip": "ym2612"
    },
    {
      "channel": 3,
      "note": 85,
      "start": 35.3922,
      "duration": 0.0125,
      "velocity": 89,
      "chip": "ym2612"
    },
    {
      "channel": 2,
      "note": 76,
      "start": 35.3943,
      "duration": 0.0117,
      "velocity": 105,
      "chip": "ym2612"
    },
    {
      "channel": 4,
      "note": 54,
      "start": 35.3959,
      "duration": 0.0113,
      "velocity": 100,
      "chip": "ym2612"
    },
    {
      "channel": 1,
      "note": 72,
      "start": 35.4001,
      "duration": 0.016,
      "velocity": 127,
      "chip": "ym2612"
    },
    {
      "channel": 0,
      "note": 36,
      "start": 35.4019,
      "duration": 0.016,
      "velocity": 115,
      "chip": "ym2612"
    },
    {
      "channel": 5,
      "note": 83,
      "start": 35.4033,
      "duration": 0.016,
      "velocity": 89,
      "chip": "ym2612"
    },
    {
      "channel": 3,
      "note": 83,
      "start": 35.4048,
      "duration": 0.016,
      "velocity": 89,
      "chip": "ym2612"
    },
    {
      "channel": 2,
      "note": 76,
      "start": 35.406,
      "duration": 0.016,
      "velocity": 105,
      "chip": "ym2612"
    },
    {
      "channel": 4,
      "note": 54,
      "start": 35.4072,
      "duration": 0.016,
      "velocity": 100,
      "chip": "ym2612"
    },
    {
      "channel": 1,
      "note": 72,
      "start": 35.4161,
      "duration": 0.0161,
      "velocity": 127,
      "chip": "ym2612"
    },
    {
      "channel": 0,
      "note": 37,
      "start": 35.4178,
      "duration": 0.0161,
      "velocity": 115,
      "chip": "ym2612"
    },
    {
      "channel": 5,
      "note": 85,
      "start": 35.4194,
      "duration": 0.016,
      "velocity": 89,
      "chip": "ym2612"
    },
    {
      "channel": 3,
      "note": 85,
      "start": 35.4209,
      "duration": 0.0159,
      "velocity": 89,
      "chip": "ym2612"
    },
    {
      "channel": 2,
      "note": 76,
      "start": 35.422,
      "duration": 0.016,
      "velocity": 105,
      "chip": "ym2612"
    },
    {
      "channel": 4,
      "note": 54,
      "start": 35.4232,
      "duration": 0.016,
      "velocity": 100,
      "chip": "ym2612"
    },
    {
      "channel": 1,
      "note": 72,
      "start": 35.4322,
      "duration": 0.0161,
      "velocity": 127,
      "chip": "ym2612"
    },
    {
      "channel": 0,
      "note": 37,
      "start": 35.4339,
      "duration": 0.0161,
      "velocity": 115,
      "chip": "ym2612"
    },
    {
      "channel": 5,
      "note": 83,
      "start": 35.4354,
      "duration": 0.0161,
      "velocity": 89,
      "chip": "ym2612"
    },
    {
      "channel": 3,
      "note": 83,
      "start": 35.4368,
      "duration": 0.0162,
      "velocity": 89,
      "chip": "ym2612"
    },
    {
      "channel": 2,
      "note": 76,
      "start": 35.438,
      "duration": 0.0162,
      "velocity": 105,
      "chip": "ym2612"
    },
    {
      "channel": 4,
      "note": 54,
      "start": 35.4391,
      "duration": 0.0162,
      "velocity": 100,
      "chip": "ym2612"
    },
    {
      "channel": 1,
      "note": 72,
      "start": 35.4483,
      "duration": 0.0162,
      "velocity": 127,
      "chip": "ym2612"
    },
    {
      "channel": 0,
      "note": 38,
      "start": 35.45,
      "duration": 0.0161,
      "velocity": 115,
      "chip": "ym2612"
    },
    {
      "channel": 5,
      "note": 85,
      "start": 35.4515,
      "duration": 0.016,
      "velocity": 89,
      "chip": "ym2612"
    },
    {
      "channel": 3,
      "note": 85,
      "start": 35.4531,
      "duration": 0.016,
      "velocity": 89,
      "chip": "ym2612"
    },
    {
      "channel": 4,
      "note": 54,
      "start": 35.4554,
      "duration": 0.016,
      "velocity": 100,
      "chip": "ym2612"
    },
    {
      "channel": 1,
      "note": 72,
      "start": 35.4645,
      "duration": 0.0161,
      "velocity": 127,
      "chip": "ym2612"
    },
    {
      "channel": 0,
      "note": 38,
      "start": 35.4661,
      "duration": 0.0161,
      "velocity": 115,
      "chip": "ym2612"
    },
    {
      "channel": 5,
      "note": 83,
      "start": 35.4676,
      "duration": 0.0162,
      "velocity": 89,
      "chip": "ym2612"
    },
    {
      "channel": 3,
      "note": 83,
      "start": 35.469,
      "duration": 0.0161,
      "velocity": 89,
      "chip": "ym2612"
    },
    {
      "channel": 4,
      "note": 54,
      "start": 35.4714,
      "duration": 0.0162,
      "velocity": 100,
      "chip": "ym2612"
    },
    {
      "channel": 1,
      "note": 72,
      "start": 35.4805,
      "duration": 0.0161,
      "velocity": 127,
      "chip": "ym2612"
    },
    {
      "channel": 0,
      "note": 39,
      "start": 35.4822,
      "duration": 0.0161,
      "velocity": 115,
      "chip": "ym2612"
    },
    {
      "channel": 5,
      "note": 85,
      "start": 35.4837,
      "duration": 0.016,
      "velocity": 89,
      "chip": "ym2612"
    },
    {
      "channel": 3,
      "note": 85,
      "start": 35.4853,
      "duration": 0.016,
      "velocity": 89,
      "chip": "ym2612"
    },
    {
      "channel": 4,
      "note": 54,
      "start": 35.4876,
      "duration": 0.0164,
      "velocity": 100,
      "chip": "ym2612"
    },
    {
      "channel": 1,
      "note": 72,
      "start": 35.4966,
      "duration": 0.0162,
      "velocity": 127,
      "chip": "ym2612"
    },
    {
      "channel": 0,
      "note": 39,
      "start": 35.4983,
      "duration": 0.0162,
      "velocity": 115,
      "chip": "ym2612"
    },
    {
      "channel": 5,
      "note": 83,
      "start": 35.4998,
      "duration": 0.0162,
      "velocity": 89,
      "chip": "ym2612"
    },
    {
      "channel": 3,
      "note": 83,
      "start": 35.5012,
      "duration": 0.0163,
      "velocity": 89,
      "chip": "ym2612"
    },
    {
      "channel": 2,
      "note": 76,
      "start": 35.5027,
      "duration": 0.016,
      "velocity": 105,
      "chip": "ym2612"
    },
    {
      "channel": 4,
      "note": 54,
      "start": 35.504,
      "duration": 0.016,
      "velocity": 100,
      "chip": "ym2612"
    },
    {
      "channel": 1,
      "note": 72,
      "start": 35.5128,
      "duration": 0.0163,
      "velocity": 127,
      "chip": "ym2612"
    },
    {
      "channel": 0,
      "note": 40,
      "start": 35.5145,
      "duration": 0.0163,
      "velocity": 115,
      "chip": "ym2612"
    },
    {
      "channel": 5,
      "note": 85,
      "start": 35.516,
      "duration": 0.0163,
      "velocity": 89,
      "chip": "ym2612"
    },
    {
      "channel": 3,
      "note": 85,
      "start": 35.5175,
      "duration": 0.0162,
      "velocity": 89,
      "chip": "ym2612"
    },
    {
      "channel": 2,
      "note": 76,
      "start": 35.5187,
      "duration": 0.0162,
      "velocity": 105,
      "chip": "ym2612"
    },
    {
      "channel": 4,
      "note": 54,
      "start": 35.5199,
      "duration": 0.0162,
      "velocity": 100,
      "chip": "ym2612"
    },
    {
      "channel": 1,
      "note": 72,
      "start": 35.5292,
      "duration": 0.0163,
      "velocity": 127,
      "chip": "ym2612"
    },
    {
      "channel": 0,
      "note": 40,
      "start": 35.5309,
      "duration": 0.0163,
      "velocity": 115,
      "chip": "ym2612"
    },
    {
      "channel": 5,
      "note": 83,
      "start": 35.5323,
      "duration": 0.0163,
      "velocity": 89,
      "chip": "ym2612"
    },
    {
      "channel": 3,
      "note": 83,
      "start": 35.5338,
      "duration": 0.0163,
      "velocity": 89,
      "chip": "ym2612"
    },
    {
      "channel": 2,
      "note": 76,
      "start": 35.5349,
      "duration": 0.0164,
      "velocity": 105,
      "chip": "ym2612"
    },
    {
      "channel": 4,
      "note": 54,
      "start": 35.5361,
      "duration": 0.0163,
      "velocity": 100,
      "chip": "ym2612"
    },
    {
      "channel": 1,
      "note": 72,
      "start": 35.5455,
      "duration": 0.0161,
      "velocity": 127,
      "chip": "ym2612"
    },
    {
      "channel": 0,
      "note": 40,
      "start": 35.5471,
      "duration": 0.0162,
      "velocity": 115,
      "chip": "ym2612"
    },
    {
      "channel": 5,
      "note": 85,
      "start": 35.5487,
      "duration": 0.0161,
      "velocity": 89,
      "chip": "ym2612"
    },
    {
      "channel": 3,
      "note": 85,
      "start": 35.5502,
      "duration": 0.016,
      "velocity": 89,
      "chip": "ym2612"
    },
    {
      "channel": 2,
      "note": 76,
      "start": 35.5514,
      "duration": 0.0161,
      "velocity": 105,
      "chip": "ym2612"
    },
    {
      "channel": 4,
      "note": 54,
      "start": 35.5525,
      "duration": 0.0161,
      "velocity": 100,
      "chip": "ym2612"
    },
    {
      "channel": 1,
      "note": 72,
      "start": 35.5616,
      "duration": 0.0161,
      "velocity": 127,
      "chip": "ym2612"
    },
    {
      "channel": 0,
      "note": 41,
      "start": 35.5633,
      "duration": 0.0161,
      "velocity": 115,
      "chip": "ym2612"
    },
    {
      "channel": 5,
      "note": 83,
      "start": 35.5648,
      "duration": 0.0161,
      "velocity": 89,
      "chip": "ym2612"
    },
    {
      "channel": 3,
      "note": 83,
      "start": 35.5662,
      "duration": 0.0162,
      "velocity": 89,
      "chip": "ym2612"
    },
    {
      "channel": 4,
      "note": 54,
      "start": 35.5686,
      "duration": 0.0161,
      "velocity": 100,
      "chip": "ym2612"
    },
    {
      "channel": 1,
      "note": 72,
      "start": 35.5777,
      "duration": 0.0155,
      "velocity": 127,
      "chip": "ym2612"
    },
    {
      "channel": 0,
      "note": 41,
      "start": 35.5794,
      "duration": 0.0161,
      "velocity": 115,
      "chip": "ym2612"
    },
    {
      "channel": 5,
      "note": 85,
      "start": 35.5809,
      "duration": 0.016,
      "velocity": 89,
      "chip": "ym2612"
    },
    {
      "channel": 3,
      "note": 85,
      "start": 35.5824,
      "duration": 0.016,
      "velocity": 89,
      "chip": "ym2612"
    },
    {
      "channel": 4,
      "note": 54,
      "start": 35.5847,
      "duration": 0.016,
      "velocity": 100,
      "chip": "ym2612"
    },
    {
      "channel": 1,
      "note": 72,
      "start": 35.5932,
      "duration": 0.0184,
      "velocity": 127,
      "chip": "ym2612"
    },
    {
      "channel": 0,
      "note": 42,
      "start": 35.5956,
      "duration": 0.0197,
      "velocity": 115,
      "chip": "ym2612"
    },
    {
      "channel": 5,
      "note": 83,
      "start": 35.597,
      "duration": 0.0197,
      "velocity": 89,
      "chip": "ym2612"
    },
    {
      "channel": 3,
      "note": 83,
      "start": 35.5985,
      "duration": 0.0198,
      "velocity": 89,
      "chip": "ym2612"
    },
    {
      "channel": 4,
      "note": 54,
      "start": 35.6008,
      "duration": 0.0205,
      "velocity": 100,
      "chip": "ym2612"
    },
    {
      "channel": 1,
      "note": 72,
      "start": 35.6117,
      "duration": 0.0138,
      "velocity": 127,
      "chip": "ym2612"
    },
    {
      "channel": 0,
      "note": 36,
      "start": 35.6153,
      "duration": 0.0125,
      "velocity": 115,
      "chip": "ym2612"
    },
    {
      "channel": 5,
      "note": 85,
      "start": 35.6168,
      "duration": 0.0125,
      "velocity": 89,
      "chip": "ym2612"
    },
    {
      "channel": 3,
      "note": 85,
      "start": 35.6183,
      "duration": 0.0125,
      "velocity": 89,
      "chip": "ym2612"
    },
    {
      "channel": 2,
      "note": 76,
      "start": 35.6199,
      "duration": 0.0122,
      "velocity": 105,
      "chip": "ym2612"
    },
    {
      "channel": 4,
      "note": 59,
      "start": 35.6213,
      "duration": 0.0119,
      "velocity": 100,
      "chip": "ym2612"
    },
    {
      "channel": 1,
      "note": 72,
      "start": 35.6255,
      "duration": 0.016,
      "velocity": 127,
      "chip": "ym2612"
    },
    {
      "channel": 0,
      "note": 36,
      "start": 35.6278,
      "duration": 0.0154,
      "velocity": 115,
      "chip": "ym2612"
    },
    {
      "channel": 5,
      "note": 83,
      "start": 35.6293,
      "duration": 0.016,
      "velocity": 89,
      "chip": "ym2612"
    },
    {
      "channel": 3,
      "note": 83,
      "start": 35.6308,
      "duration": 0.016,
      "velocity": 89,
      "chip": "ym2612"
    },
    {
      "channel": 2,
      "note": 76,
      "start": 35.632,
      "duration": 0.016,
      "velocity": 105,
      "chip": "ym2612"
    },
    {
      "channel": 4,
      "note": 59,
      "start": 35.6332,
      "duration": 0.016,
      "velocity": 100,
      "chip": "ym2612"
    },
    {
      "channel": 1,
      "note": 72,
      "start": 35.6416,
      "duration": 0.0161,
      "velocity": 127,
      "chip": "ym2612"
    },
    {
      "channel": 0,
      "note": 37,
      "start": 35.6432,
      "duration": 0.0161,
      "velocity": 115,
      "chip": "ym2612"
    },
    {
      "channel": 5,
      "note": 85,
      "start": 35.6454,
      "duration": 0.0159,
      "velocity": 89,
      "chip": "ym2612"
    },
    {
      "channel": 3,
      "note": 85,
      "start": 35.6469,
      "duration": 0.0159,
      "velocity": 89,
      "chip": "ym2612"
    },
    {
      "channel": 2,
      "note": 76,
      "start": 35.648,
      "duration": 0.016,
      "velocity": 105,
      "chip": "ym2612"
    },
    {
      "channel": 4,
      "note": 59,
      "start": 35.6492,
      "duration": 0.016,
      "velocity": 100,
      "chip": "ym2612"
    },
    {
      "channel": 1,
      "note": 72,
      "start": 35.6576,
      "duration": 0.0161,
      "velocity": 127,
      "chip": "ym2612"
    },
    {
      "channel": 0,
      "note": 37,
      "start": 35.6593,
      "duration": 0.0162,
      "velocity": 115,
      "chip": "ym2612"
    },
    {
      "channel": 5,
      "note": 83,
      "start": 35.6613,
      "duration": 0.0158,
      "velocity": 89,
      "chip": "ym2612"
    },
    {
      "channel": 3,
      "note": 83,
      "start": 35.6629,
      "duration": 0.0162,
      "velocity": 89,
      "chip": "ym2612"
    },
    {
      "channel": 2,
      "note": 76,
      "start": 35.664,
      "duration": 0.0162,
      "velocity": 105,
      "chip": "ym2612"
    },
    {
      "channel": 4,
      "note": 59,
      "start": 35.6651,
      "duration": 0.0162,
      "velocity": 100,
      "chip": "ym2612"
    },
    {
      "channel": 1,
      "note": 72,
      "start": 35.6737,
      "duration": 0.0161,
      "velocity": 127,
      "chip": "ym2612"
    },
    {
      "channel": 0,
      "note": 38,
      "start": 35.6755,
      "duration": 0.0161,
      "velocity": 115,
      "chip": "ym2612"
    },
    {
      "channel": 5,
      "note": 85,
      "start": 35.6772,
      "duration": 0.0158,
      "velocity": 89,
      "chip": "ym2612"
    },
    {
      "channel": 3,
      "note": 85,
      "start": 35.6791,
      "duration": 0.016,
      "velocity": 89,
      "chip": "ym2612"
    },
    {
      "channel": 2,
      "note": 76,
      "start": 35.6802,
      "duration": 0.016,
      "velocity": 105,
      "chip": "ym2612"
    },
    {
      "channel": 4,
      "note": 59,
      "start": 35.6814,
      "duration": 0.016,
      "velocity": 100,
      "chip": "ym2612"
    },
    {
      "channel": 1,
      "note": 72,
      "start": 35.6898,
      "duration": 0.0161,
      "velocity": 127,
      "chip": "ym2612"
    },
    {
      "channel": 0,
      "note": 38,
      "start": 35.6916,
      "duration": 0.0161,
      "velocity": 115,
      "chip": "ym2612"
    },
    {
      "channel": 5,
      "note": 83,
      "start": 35.693,
      "duration": 0.0161,
      "velocity": 89,
      "chip": "ym2612"
    },
    {
      "channel": 3,
      "note": 83,
      "start": 35.6951,
      "duration": 0.0161,
      "velocity": 89,
      "chip": "ym2612"
    },
    {
      "channel": 2,
      "note": 76,
      "start": 35.6962,
      "duration": 0.0162,
      "velocity": 105,
      "chip": "ym2612"
    },
    {
      "channel": 4,
      "note": 59,
      "start": 35.6974,
      "duration": 0.0162,
      "velocity": 100,
      "chip": "ym2612"
    },
    {
      "channel": 1,
      "note": 72,
      "start": 35.7059,
      "duration": 0.0161,
      "velocity": 127,
      "chip": "ym2612"
    },
    {
      "channel": 0,
      "note": 39,
      "start": 35.7076,
      "duration": 0.0161,
      "velocity": 115,
      "chip": "ym2612"
    },
    {
      "channel": 5,
      "note": 85,
      "start": 35.7092,
      "duration": 0.016,
      "velocity": 89,
      "chip": "ym2612"
    },
    {
      "channel": 3,
      "note": 85,
      "start": 35.7112,
      "duration": 0.0154,
      "velocity": 89,
      "chip": "ym2612"
    },
    {
      "channel": 2,
      "note": 76,
      "start": 35.7124,
      "duration": 0.016,
      "velocity": 105,
      "chip": "ym2612"
    },
    {
      "channel": 4,
      "note": 59,
      "start": 35.7136,
      "duration": 0.016,
      "velocity": 100,
      "chip": "ym2612"
    },
    {
      "channel": 1,
      "note": 72,
      "start": 35.722,
      "duration": 0.0161,
      "velocity": 127,
      "chip": "ym2612"
    },
    {
      "channel": 0,
      "note": 39,
      "start": 35.7237,
      "duration": 0.0161,
      "velocity": 115,
      "chip": "ym2612"
    },
    {
      "channel": 5,
      "note": 83,
      "start": 35.7252,
      "duration": 0.0161,
      "velocity": 89,
      "chip": "ym2612"
    },
    {
      "channel": 3,
      "note": 83,
      "start": 35.7267,
      "duration": 0.0162,
      "velocity": 89,
      "chip": "ym2612"
    },
    {
      "channel": 2,
      "note": 76,
      "start": 35.7284,
      "duration": 0.0162,
      "velocity": 105,
      "chip": "ym2612"
    },
    {
      "channel": 4,
      "note": 59,
      "start": 35.7297,
      "duration": 0.0162,
      "velocity": 100,
      "chip": "ym2612"
    },
    {
      "channel": 1,
      "note": 72,
      "start": 35.7381,
      "duration": 0.0162,
      "velocity": 127,
      "chip": "ym2612"
    },
    {
      "channel": 0,
      "note": 40,
      "start": 35.7398,
      "duration": 0.0161,
      "velocity": 115,
      "chip": "ym2612"
    },
    {
      "channel": 5,
      "note": 85,
      "start": 35.7414,
      "duration": 0.016,
      "velocity": 89,
      "chip": "ym2612"
    },
    {
      "channel": 3,
      "note": 85,
      "start": 35.7429,
      "duration": 0.016,
      "velocity": 89,
      "chip": "ym2612"
    },
    {
      "channel": 2,
      "note": 76,
      "start": 35.7446,
      "duration": 0.0155,
      "velocity": 105,
      "chip": "ym2612"
    },
    {
      "channel": 4,
      "note": 59,
      "start": 35.7458,
      "duration": 0.016,
      "velocity": 100,
      "chip": "ym2612"
    },
    {
      "channel": 1,
      "note": 72,
      "start": 35.7543,
      "duration": 0.0161,
      "velocity": 127,
      "chip": "ym2612"
    },
    {
      "channel": 0,
      "note": 40,
      "start": 35.7559,
      "duration": 0.0161,
      "velocity": 115,
      "chip": "ym2612"
    },
    {
      "channel": 5,
      "note": 83,
      "start": 35.7574,
      "duration": 0.0162,
      "velocity": 89,
      "chip": "ym2612"
    },
    {
      "channel": 3,
      "note": 83,
      "start": 35.7589,
      "duration": 0.0161,
      "velocity": 89,
      "chip": "ym2612"
    },
    {
      "channel": 2,
      "note": 76,
      "start": 35.7601,
      "duration": 0.0162,
      "velocity": 105,
      "chip": "ym2612"
    },
    {
      "channel": 4,
      "note": 59,
      "start": 35.7619,
      "duration": 0.0161,
      "velocity": 100,
      "chip": "ym2612"
    },
    {
      "channel": 1,
      "note": 72,
      "start": 35.7704,
      "duration": 0.0161,
      "velocity": 127,
      "chip": "ym2612"
    },
    {
      "channel": 0,
      "note": 40,
      "start": 35.772,
      "duration": 0.0161,
      "velocity": 115,
      "chip": "ym2612"
    },
    {
      "channel": 5,
      "note": 85,
      "start": 35.7736,
      "duration": 0.016,
      "velocity": 89,
      "chip": "ym2612"
    },
    {
      "channel": 3,
      "note": 85,
      "start": 35.7751,
      "duration": 0.016,
      "velocity": 89,
      "chip": "ym2612"
    },
    {
      "channel": 2,
      "note": 76,
      "start": 35.7762,
      "duration": 0.016,
      "velocity": 105,
      "chip": "ym2612"
    },
    {
      "channel": 4,
      "note": 59,
      "start": 35.7779,
      "duration": 0.0155,
      "velocity": 100,
      "chip": "ym2612"
    },
    {
      "channel": 1,
      "note": 72,
      "start": 35.7865,
      "duration": 0.0161,
      "velocity": 127,
      "chip": "ym2612"
    },
    {
      "channel": 0,
      "note": 41,
      "start": 35.7881,
      "duration": 0.0162,
      "velocity": 115,
      "chip": "ym2612"
    },
    {
      "channel": 5,
      "note": 83,
      "start": 35.7896,
      "duration": 0.0161,
      "velocity": 89,
      "chip": "ym2612"
    },
    {
      "channel": 3,
      "note": 83,
      "start": 35.791,
      "duration": 0.0162,
      "velocity": 89,
      "chip": "ym2612"
    },
    {
      "channel": 4,
      "note": 59,
      "start": 35.7934,
      "duration": 0.0162,
      "velocity": 100,
      "chip": "ym2612"
    },
    {
      "channel": 1,
      "note": 72,
      "start": 35.8026,
      "duration": 0.0161,
      "velocity": 127,
      "chip": "ym2612"
    },
    {
      "channel": 0,
      "note": 41,
      "start": 35.8043,
      "duration": 0.0161,
      "velocity": 115,
      "chip": "ym2612"
    },
    {
      "channel": 5,
      "note": 85,
      "start": 35.8057,
      "duration": 0.016,
      "velocity": 89,
      "chip": "ym2612"
    },
    {
      "channel": 3,
      "note": 85,
      "start": 35.8073,
      "duration": 0.016,
      "velocity": 89,
      "chip": "ym2612"
    },
    {
      "channel": 4,
      "note": 59,
      "start": 35.8096,
      "duration": 0.016,
      "velocity": 100,
      "chip": "ym2612"
    },
    {
      "channel": 1,
      "note": 72,
      "start": 35.8187,
      "duration": 0.0179,
      "velocity": 127,
      "chip": "ym2612"
    },
    {
      "channel": 0,
      "note": 42,
      "start": 35.8204,
      "duration": 0.0197,
      "velocity": 124,
      "chip": "ym2612"
    },
    {
      "channel": 5,
      "note": 83,
      "start": 35.8218,
      "duration": 0.0198,
      "velocity": 89,
      "chip": "ym2612"
    },
    {
      "channel": 3,
      "note": 83,
      "start": 35.8233,
      "duration": 0.0199,
      "velocity": 89,
      "chip": "ym2612"
    },
    {
      "channel": 4,
      "note": 59,
      "start": 35.8256,
      "duration": 0.0211,
      "velocity": 100,
      "chip": "ym2612"
    },
    {
      "channel": 1,
      "note": 79,
      "start": 35.8366,
      "duration": 0.0143,
      "velocity": 127,
      "chip": "ym2612"
    },
    {
      "channel": 0,
      "note": 84,
      "start": 35.8402,
      "duration": 0.0125,
      "velocity": 124,
      "chip": "ym2612"
    },
    {
      "channel": 5,
      "note": 85,
      "start": 35.8417,
      "duration": 0.0124,
      "velocity": 89,
      "chip": "ym2612"
    },
    {
      "channel": 3,
      "note": 85,
      "start": 35.8432,
      "duration": 0.0124,
      "velocity": 89,
      "chip": "ym2612"
    },
    {
      "channel": 2,
      "note": 76,
      "start": 35.8452,
      "duration": 0.0116,
      "velocity": 105,
      "chip": "ym2612"
    },
    {
      "channel": 4,
      "note": 54,
      "start": 35.8467,
      "duration": 0.0113,
      "velocity": 100,
      "chip": "ym2612"
    },
    {
      "channel": 1,
      "note": 79,
      "start": 35.8509,
      "duration": 0.016,
      "velocity": 127,
      "chip": "ym2612"
    },
    {
      "channel": 0,
      "note": 82,
      "start": 35.8527,
      "duration": 0.016,
      "velocity": 124,
      "chip": "ym2612"
    },
    {
      "channel": 5,
      "note": 83,
      "start": 35.8541,
      "duration": 0.016,
      "velocity": 89,
      "chip": "ym2612"
    },
    {
      "channel": 3,
      "note": 83,
      "start": 35.8556,
      "duration": 0.016,
      "velocity": 89,
      "chip": "ym2612"
    },
    {
      "channel": 2,
      "note": 76,
      "start": 35.8568,
      "duration": 0.016,
      "velocity": 105,
      "chip": "ym2612"
    },
    {
      "channel": 4,
      "note": 54,
      "start": 35.858,
      "duration": 0.016,
      "velocity": 100,
      "chip": "ym2612"
    },
    {
      "channel": 1,
      "note": 79,
      "start": 35.8669,
      "duration": 0.0161,
      "velocity": 127,
      "chip": "ym2612"
    },
    {
      "channel": 0,
      "note": 80,
      "start": 35.8687,
      "duration": 0.0161,
      "velocity": 124,
      "chip": "ym2612"
    },
    {
      "channel": 5,
      "note": 85,
      "start": 35.8702,
      "duration": 0.016,
      "velocity": 89,
      "chip": "ym2612"
    },
    {
      "channel": 3,
      "note": 85,
      "start": 35.8717,
      "duration": 0.0159,
      "velocity": 89,
      "chip": "ym2612"
    },
    {
      "channel": 2,
      "note": 76,
      "start": 35.8729,
      "duration": 0.016,
      "velocity": 105,
      "chip": "ym2612"
    },
    {
      "channel": 4,
      "note": 54,
      "start": 35.874,
      "duration": 0.016,
      "velocity": 100,
      "chip": "ym2612"
    },
    {
      "channel": 1,
      "note": 79,
      "start": 35.883,
      "duration": 0.0161,
      "velocity": 127,
      "chip": "ym2612"
    },
    {
      "channel": 0,
      "note": 77,
      "start": 35.8847,
      "duration": 0.0161,
      "velocity": 124,
      "chip": "ym2612"
    },
    {
      "channel": 5,
      "note": 83,
      "start": 35.8862,
      "duration": 0.0161,
      "velocity": 89,
      "chip": "ym2612"
    },
    {
      "channel": 3,
      "note": 83,
      "start": 35.8877,
      "duration": 0.0162,
      "velocity": 89,
      "chip": "ym2612"
    },
    {
      "channel": 2,
      "note": 76,
      "start": 35.8888,
      "duration": 0.0162,
      "velocity": 105,
      "chip": "ym2612"
    },
    {
      "channel": 4,
      "note": 54,
      "start": 35.89,
      "duration": 0.0162,
      "velocity": 100,
      "chip": "ym2612"
    },
    {
      "channel": 1,
      "note": 79,
      "start": 35.8991,
      "duration": 0.0162,
      "velocity": 127,
      "chip": "ym2612"
    },
    {
      "channel": 0,
      "note": 75,
      "start": 35.9008,
      "duration": 0.0162,
      "velocity": 124,
      "chip": "ym2612"
    },
    {
      "channel": 5,
      "note": 85,
      "start": 35.9024,
      "duration": 0.016,
      "velocity": 89,
      "chip": "ym2612"
    },
    {
      "channel": 3,
      "note": 85,
      "start": 35.9039,
      "duration": 0.016,
      "velocity": 89,
      "chip": "ym2612"
    },
    {
      "channel": 4,
      "note": 54,
      "start": 35.9062,
      "duration": 0.016,
      "velocity": 100,
      "chip": "ym2612"
    },
    {
      "channel": 1,
      "note": 79,
      "start": 35.9153,
      "duration": 0.0161,
      "velocity": 127,
      "chip": "ym2612"
    },
    {
      "channel": 0,
      "note": 72,
      "start": 35.917,
      "duration": 0.016,
      "velocity": 124,
      "chip": "ym2612"
    },
    {
      "channel": 5,
      "note": 83,
      "start": 35.9185,
      "duration": 0.0161,
      "velocity": 89,
      "chip": "ym2612"
    },
    {
      "channel": 3,
      "note": 83,
      "start": 35.9199,
      "duration": 0.0161,
      "velocity": 89,
      "chip": "ym2612"
    },
    {
      "channel": 4,
      "note": 54,
      "start": 35.9222,
      "duration": 0.0161,
      "velocity": 100,
      "chip": "ym2612"
    },
    {
      "channel": 1,
      "note": 79,
      "start": 35.9314,
      "duration": 0.0161,
      "velocity": 127,
      "chip": "ym2612"
    },
    {
      "channel": 0,
      "note": 70,
      "start": 35.933,
      "duration": 0.0161,
      "velocity": 124,
      "chip": "ym2612"
    },
    {
      "channel": 5,
      "note": 85,
      "start": 35.9346,
      "duration": 0.016,
      "velocity": 89,
      "chip": "ym2612"
    },
    {
      "channel": 3,
      "note": 85,
      "start": 35.9361,
      "duration": 0.016,
      "velocity": 89,
      "chip": "ym2612"
    },
    {
      "channel": 4,
      "note": 54,
      "start": 35.9384,
      "duration": 0.0164,
      "velocity": 100,
      "chip": "ym2612"
    },
    {
      "channel": 1,
      "note": 79,
      "start": 35.9475,
      "duration": 0.0161,
      "velocity": 127,
      "chip": "ym2612"
    },
    {
      "channel": 0,
      "note": 68,
      "start": 35.9491,
      "duration": 0.0162,
      "velocity": 124,
      "chip": "ym2612"
    },
    {
      "channel": 5,
      "note": 83,
      "start": 35.9506,
      "duration": 0.0162,
      "velocity": 89,
      "chip": "ym2612"
    },
    {
      "channel": 3,
      "note": 83,
      "start": 35.952,
      "duration": 0.0162,
      "velocity": 89,
      "chip": "ym2612"
    },
    {
      "channel": 2,
      "note": 76,
      "start": 35.9535,
      "duration": 0.016,
      "velocity": 105,
      "chip": "ym2612"
    },
    {
      "channel": 4,
      "note": 54,
      "start": 35.9548,
      "duration": 0.016,
      "velocity": 100,
      "chip": "ym2612"
    },
    {
      "channel": 1,
      "note": 79,
      "start": 35.9636,
      "duration": 0.0162,
      "velocity": 127,
      "chip": "ym2612"
    },
    {
      "channel": 0,
      "note": 65,
      "start": 35.9653,
      "duration": 0.0162,
      "velocity": 124,
      "chip": "ym2612"
    },
    {
      "channel": 5,
      "note": 85,
      "start": 35.9668,
      "duration": 0.016,
      "velocity": 89,
      "chip": "ym2612"
    },
    {
      "channel": 3,
      "note": 85,
      "start": 35.9683,
      "duration": 0.016,
      "velocity": 89,
      "chip": "ym2612"
    },
    {
      "channel": 2,
      "note": 76,
      "start": 35.9695,
      "duration": 0.016,
      "velocity": 105,
      "chip": "ym2612"
    },
    {
      "channel": 4,
      "note": 54,
      "start": 35.9707,
      "duration": 0.016,
      "velocity": 100,
      "chip": "ym2612"
    },
    {
      "channel": 1,
      "note": 79,
      "start": 35.9797,
      "duration": 0.0161,
      "velocity": 127,
      "chip": "ym2612"
    },
    {
      "channel": 0,
      "note": 63,
      "start": 35.9815,
      "duration": 0.0153,
      "velocity": 1,
      "chip": "ym2612"
    },
    {
      "channel": 5,
      "note": 83,
      "start": 35.9829,
      "duration": 0.0153,
      "velocity": 89,
      "chip": "ym2612"
    },
    {
      "channel": 3,
      "note": 83,
      "start": 35.9844,
      "duration": 0.0153,
      "velocity": 89,
      "chip": "ym2612"
    },
    {
      "channel": 2,
      "note": 76,
      "start": 35.9855,
      "duration": 0.0154,
      "velocity": 105,
      "chip": "ym2612"
    },
    {
      "channel": 4,
      "note": 54,
      "start": 35.9867,
      "duration": 0.0153,
      "velocity": 100,
      "chip": "ym2612"
    },
    {
      "channel": 1,
      "note": 79,
      "start": 35.9958,
      "duration": 0.0164,
      "velocity": 127,
      "chip": "ym2612"
    },
    {
      "channel": 5,
      "note": 85,
      "start": 35.9982,
      "duration": 0.0155,
      "velocity": 89,
      "chip": "ym2612"
    },
    {
      "channel": 3,
      "note": 85,
      "start": 35.9997,
      "duration": 0.0154,
      "velocity": 89,
      "chip": "ym2612"
    },
    {
      "channel": 2,
      "note": 76,
      "start": 36.0009,
      "duration": 0.0155,
      "velocity": 105,
      "chip": "ym2612"
    },
    {
      "channel": 4,
      "note": 54,
      "start": 36.002,
      "duration": 0.0155,
      "velocity": 100,
      "chip": "ym2612"
    },
    {
      "channel": 1,
      "note": 79,
      "start": 36.0122,
      "duration": 0.0163,
      "velocity": 127,
      "chip": "ym2612"
    },
    {
      "channel": 5,
      "note": 83,
      "start": 36.0138,
      "duration": 0.0163,
      "velocity": 89,
      "chip": "ym2612"
    },
    {
      "channel": 3,
      "note": 83,
      "start": 36.0152,
      "duration": 0.0163,
      "velocity": 89,
      "chip": "ym2612"
    },
    {
      "channel": 4,
      "note": 54,
      "start": 36.0175,
      "duration": 0.0164,
      "velocity": 100,
      "chip": "ym2612"
    },
    {
      "channel": 1,
      "note": 79,
      "start": 36.0286,
      "duration": 0.016,
      "velocity": 127,
      "chip": "ym2612"
    },
    {
      "channel": 5,
      "note": 85,
      "start": 36.0301,
      "duration": 0.016,
      "velocity": 89,
      "chip": "ym2612"
    },
    {
      "channel": 3,
      "note": 85,
      "start": 36.0316,
      "duration": 0.0159,
      "velocity": 89,
      "chip": "ym2612"
    },
    {
      "channel": 4,
      "note": 54,
      "start": 36.0339,
      "duration": 0.016,
      "velocity": 100,
      "chip": "ym2612"
    },
    {
      "channel": 1,
      "note": 79,
      "start": 36.0446,
      "duration": 0.0179,
      "velocity": 127,
      "chip": "ym2612"
    },
    {
      "channel": 5,
      "note": 83,
      "start": 36.0461,
      "duration": 0.0214,
      "velocity": 89,
      "chip": "ym2612"
    },
    {
      "channel": 3,
      "note": 83,
      "start": 36.0476,
      "duration": 0.0214,
      "velocity": 89,
      "chip": "ym2612"
    },
    {
      "channel": 4,
      "note": 54,
      "start": 36.0499,
      "duration": 0.0221,
      "velocity": 100,
      "chip": "ym2612"
    },
    {
      "channel": 1,
      "note": 79,
      "start": 36.0625,
      "duration": 0.0138,
      "velocity": 127,
      "chip": "ym2612"
    },
    {
      "channel": 0,
      "note": 36,
      "start": 36.0661,
      "duration": 0.0126,
      "velocity": 115,
      "chip": "ym2612"
    },
    {
      "channel": 5,
      "note": 85,
      "start": 36.0676,
      "duration": 0.0125,
      "velocity": 89,
      "chip": "ym2612"
    },
    {
      "channel": 3,
      "note": 83,
      "start": 36.069,
      "duration": 0.0124,
      "velocity": 89,
      "chip": "ym2612"
    },
    {
      "channel": 2,
      "note": 76,
      "start": 36.0706,
      "duration": 0.012,
      "velocity": 105,
      "chip": "ym2612"
    },
    {
      "channel": 4,
      "note": 55,
      "start": 36.0721,
      "duration": 0.0117,
      "velocity": 100,
      "chip": "ym2612"
    },
    {
      "channel": 1,
      "note": 79,
      "start": 36.0763,
      "duration": 0.016,
      "velocity": 127,
      "chip": "ym2612"
    },
    {
      "channel": 0,
      "note": 36,
      "start": 36.0787,
      "duration": 0.0159,
      "velocity": 115,
      "chip": "ym2612"
    },
    {
      "channel": 5,
      "note": 83,
      "start": 36.0802,
      "duration": 0.016,
      "velocity": 89,
      "chip": "ym2612"
    },
    {
      "channel": 3,
      "note": 83,
      "start": 36.0814,
      "duration": 0.016,
      "velocity": 89,
      "chip": "ym2612"
    },
    {
      "channel": 2,
      "note": 76,
      "start": 36.0826,
      "duration": 0.0159,
      "velocity": 105,
      "chip": "ym2612"
    },
    {
      "channel": 4,
      "note": 55,
      "start": 36.0838,
      "duration": 0.0159,
      "velocity": 100,
      "chip": "ym2612"
    },
    {
      "channel": 1,
      "note": 79,
      "start": 36.0924,
      "duration": 0.0161,
      "velocity": 127,
      "chip": "ym2612"
    },
    {
      "channel": 0,
      "note": 37,
      "start": 36.0946,
      "duration": 0.0158,
      "velocity": 115,
      "chip": "ym2612"
    },
    {
      "channel": 5,
      "note": 85,
      "start": 36.0962,
      "duration": 0.016,
      "velocity": 89,
      "chip": "ym2612"
    },
    {
      "channel": 3,
      "note": 83,
      "start": 36.0973,
      "duration": 0.016,
      "velocity": 89,
      "chip": "ym2612"
    },
    {
      "channel": 2,
      "note": 76,
      "start": 36.0985,
      "duration": 0.016,
      "velocity": 105,
      "chip": "ym2612"
    },
    {
      "channel": 4,
      "note": 55,
      "start": 36.0996,
      "duration": 0.0161,
      "velocity": 100,
      "chip": "ym2612"
    },
    {
      "channel": 1,
      "note": 79,
      "start": 36.1085,
      "duration": 0.0161,
      "velocity": 127,
      "chip": "ym2612"
    },
    {
      "channel": 0,
      "note": 37,
      "start": 36.1104,
      "duration": 0.0159,
      "velocity": 115,
      "chip": "ym2612"
    },
    {
      "channel": 5,
      "note": 83,
      "start": 36.1122,
      "duration": 0.0161,
      "velocity": 89,
      "chip": "ym2612"
    },
    {
      "channel": 3,
      "note": 83,
      "start": 36.1134,
      "duration": 0.0161,
      "velocity": 89,
      "chip": "ym2612"
    },
    {
      "channel": 2,
      "note": 76,
      "start": 36.1145,
      "duration": 0.0162,
      "velocity": 105,
      "chip": "ym2612"
    },
    {
      "channel": 4,
      "note": 55,
      "start": 36.1157,
      "duration": 0.0161,
      "velocity": 100,
      "chip": "ym2612"
    },
    {
      "channel": 1,
      "note": 79,
      "start": 36.1246,
      "duration": 0.0161,
      "velocity": 127,
      "chip": "ym2612"
    },
    {
      "channel": 0,
      "note": 38,
      "start": 36.1263,
      "duration": 0.0161,
      "velocity": 115,
      "chip": "ym2612"
    },
    {
      "channel": 5,
      "note": 85,
      "start": 36.1284,
      "duration": 0.016,
      "velocity": 89,
      "chip": "ym2612"
    },
    {
      "channel": 3,
      "note": 83,
      "start": 36.1295,
      "duration": 0.0161,
      "velocity": 89,
      "chip": "ym2612"
    },
    {
      "channel": 2,
      "note": 76,
      "start": 36.1307,
      "duration": 0.016,
      "velocity": 105,
      "chip": "ym2612"
    },
    {
      "channel": 4,
      "note": 55,
      "start": 36.1319,
      "duration": 0.016,
      "velocity": 100,
      "chip": "ym2612"
    },
    {
      "channel": 1,
      "note": 79,
      "start": 36.1407,
      "duration": 0.0161,
      "velocity": 127,
      "chip": "ym2612"
    },
    {
      "channel": 0,
      "note": 38,
      "start": 36.1424,
      "duration": 0.0161,
      "velocity": 115,
      "chip": "ym2612"
    },
    {
      "channel": 5,
      "note": 83,
      "start": 36.1444,
      "duration": 0.0156,
      "velocity": 89,
      "chip": "ym2612"
    },
    {
      "channel": 3,
      "note": 83,
      "start": 36.1456,
      "duration": 0.0161,
      "velocity": 89,
      "chip": "ym2612"
    },
    {
      "channel": 2,
      "note": 76,
      "start": 36.1468,
      "duration": 0.0161,
      "velocity": 105,
      "chip": "ym2612"
    },
    {
      "channel": 4,
      "note": 55,
      "start": 36.1479,
      "duration": 0.0162,
      "velocity": 100,
      "chip": "ym2612"
    },
    {
      "channel": 1,
      "note": 79,
      "start": 36.1568,
      "duration": 0.0161,
      "velocity": 127,
      "chip": "ym2612"
    },
    {
      "channel": 0,
      "note": 39,
      "start": 36.1585,
      "duration": 0.0161,
      "velocity": 115,
      "chip": "ym2612"
    },
    {
      "channel": 5,
      "note": 85,
      "start": 36.16,
      "duration": 0.016,
      "velocity": 89,
      "chip": "ym2612"
    },
    {
      "channel": 3,
      "note": 83,
      "start": 36.1617,
      "duration": 0.016,
      "velocity": 89,
      "chip": "ym2612"
    },
    {
      "channel": 2,
      "note": 76,
      "start": 36.1629,
      "duration": 0.016,
      "velocity": 105,
      "chip": "ym2612"
    },
    {
      "channel": 4,
      "note": 55,
      "start": 36.1641,
      "duration": 0.016,
      "velocity": 100,
      "chip": "ym2612"
    },
    {
      "channel": 1,
      "note": 79,
      "start": 36.1729,
      "duration": 0.0161,
      "velocity": 127,
      "chip": "ym2612"
    },
    {
      "channel": 0,
      "note": 39,
      "start": 36.1746,
      "duration": 0.0161,
      "velocity": 115,
      "chip": "ym2612"
    },
    {
      "channel": 5,
      "note": 83,
      "start": 36.176,
      "duration": 0.0161,
      "velocity": 89,
      "chip": "ym2612"
    },
    {
      "channel": 3,
      "note": 83,
      "start": 36.1778,
      "duration": 0.0156,
      "velocity": 89,
      "chip": "ym2612"
    },
    {
      "channel": 2,
      "note": 76,
      "start": 36.179,
      "duration": 0.0162,
      "velocity": 105,
      "chip": "ym2612"
    },
    {
      "channel": 4,
      "note": 55,
      "start": 36.1801,
      "duration": 0.0161,
      "velocity": 100,
      "chip": "ym2612"
    },
    {
      "channel": 1,
      "note": 79,
      "start": 36.189,
      "duration": 0.0161,
      "velocity": 127,
      "chip": "ym2612"
    },
    {
      "channel": 0,
      "note": 40,
      "start": 36.1907,
      "duration": 0.0161,
      "velocity": 115,
      "chip": "ym2612"
    },
    {
      "channel": 5,
      "note": 85,
      "start": 36.1922,
      "duration": 0.016,
      "velocity": 89,
      "chip": "ym2612"
    },
    {
      "channel": 3,
      "note": 83,
      "start": 36.1933,
      "duration": 0.0161,
      "velocity": 89,
      "chip": "ym2612"
    },
    {
      "channel": 2,
      "note": 76,
      "start": 36.1951,
      "duration": 0.016,
      "velocity": 105,
      "chip": "ym2612"
    },
    {
      "channel": 4,
      "note": 55,
      "start": 36.1963,
      "duration": 0.016,
      "velocity": 100,
      "chip": "ym2612"
    },
    {
      "channel": 1,
      "note": 79,
      "start": 36.2051,
      "duration": 0.0161,
      "velocity": 127,
      "chip": "ym2612"
    },
    {
      "channel": 0,
      "note": 40,
      "start": 36.2068,
      "duration": 0.0161,
      "velocity": 115,
      "chip": "ym2612"
    },
    {
      "channel": 5,
      "note": 83,
      "start": 36.2082,
      "duration": 0.0161,
      "velocity": 89,
      "chip": "ym2612"
    },
    {
      "channel": 3,
      "note": 83,
      "start": 36.2094,
      "duration": 0.0161,
      "velocity": 89,
      "chip": "ym2612"
    },
    {
      "channel": 2,
      "note": 76,
      "start": 36.2111,
      "duration": 0.0156,
      "velocity": 105,
      "chip": "ym2612"
    },
    {
      "channel": 4,
      "note": 55,
      "start": 36.2123,
      "duration": 0.0162,
      "velocity": 100,
      "chip": "ym2612"
    },
    {
      "channel": 1,
      "note": 79,
      "start": 36.2212,
      "duration": 0.0161,
      "velocity": 127,
      "chip": "ym2612"
    },
    {
      "channel": 0,
      "note": 40,
      "start": 36.2229,
      "duration": 0.0161,
      "velocity": 115,
      "chip": "ym2612"
    },
    {
      "channel": 5,
      "note": 85,
      "start": 36.2244,
      "duration": 0.016,
      "velocity": 89,
      "chip": "ym2612"
    },
    {
      "channel": 3,
      "note": 83,
      "start": 36.2256,
      "duration": 0.016,
      "velocity": 89,
      "chip": "ym2612"
    },
    {
      "channel": 2,
      "note": 76,
      "start": 36.2267,
      "duration": 0.016,
      "velocity": 105,
      "chip": "ym2612"
    },
    {
      "channel": 4,
      "note": 55,
      "start": 36.2285,
      "duration": 0.016,
      "velocity": 100,
      "chip": "ym2612"
    },
    {
      "channel": 1,
      "note": 79,
      "start": 36.2373,
      "duration": 0.0161,
      "velocity": 127,
      "chip": "ym2612"
    },
    {
      "channel": 0,
      "note": 41,
      "start": 36.239,
      "duration": 0.0161,
      "velocity": 115,
      "chip": "ym2612"
    },
    {
      "channel": 5,
      "note": 83,
      "start": 36.2404,
      "duration": 0.016,
      "velocity": 89,
      "chip": "ym2612"
    },
    {
      "channel": 3,
      "note": 83,
      "start": 36.2416,
      "duration": 0.016,
      "velocity": 89,
      "chip": "ym2612"
    },
    {
      "channel": 4,
      "note": 55,
      "start": 36.2445,
      "duration": 0.0154,
      "velocity": 100,
      "chip": "ym2612"
    },
    {
      "channel": 1,
      "note": 79,
      "start": 36.2534,
      "duration": 0.0161,
      "velocity": 127,
      "chip": "ym2612"
    },
    {
      "channel": 0,
      "note": 41,
      "start": 36.2551,
      "duration": 0.0161,
      "velocity": 115,
      "chip": "ym2612"
    },
    {
      "channel": 5,
      "note": 83,
      "start": 36.2564,
      "duration": 0.016,
      "velocity": 89,
      "chip": "ym2612"
    },
    {
      "channel": 3,
      "note": 83,
      "start": 36.2576,
      "duration": 0.016,
      "velocity": 89,
      "chip": "ym2612"
    },
    {
      "channel": 4,
      "note": 55,
      "start": 36.2599,
      "duration": 0.016,
      "velocity": 100,
      "chip": "ym2612"
    },
    {
      "channel": 1,
      "note": 79,
      "start": 36.2695,
      "duration": 0.0161,
      "velocity": 127,
      "chip": "ym2612"
    },
    {
      "channel": 0,
      "note": 42,
      "start": 36.2712,
      "duration": 0.0161,
      "velocity": 115,
      "chip": "ym2612"
    },
    {
      "channel": 5,
      "note": 83,
      "start": 36.2724,
      "duration": 0.016,
      "velocity": 89,
      "chip": "ym2612"
    },
    {
      "channel": 3,
      "note": 83,
      "start": 36.2736,
      "duration": 0.016,
      "velocity": 89,
      "chip": "ym2612"
    },
    {
      "channel": 4,
      "note": 55,
      "start": 36.2759,
      "duration": 0.0163,
      "velocity": 100,
      "chip": "ym2612"
    },
    {
      "channel": 1,
      "note": 79,
      "start": 36.2856,
      "duration": 0.0161,
      "velocity": 127,
      "chip": "ym2612"
    },
    {
      "channel": 0,
      "note": 42,
      "start": 36.2873,
      "duration": 0.0161,
      "velocity": 115,
      "chip": "ym2612"
    },
    {
      "channel": 5,
      "note": 83,
      "start": 36.2884,
      "duration": 0.0161,
      "velocity": 89,
      "chip": "ym2612"
    },
    {
      "channel": 3,
      "note": 83,
      "start": 36.2896,
      "duration": 0.0161,
      "velocity": 89,
      "chip": "ym2612"
    },
    {
      "channel": 2,
      "note": 76,
      "start": 36.2911,
      "duration": 0.0159,
      "velocity": 105,
      "chip": "ym2612"
    },
    {
      "channel": 4,
      "note": 55,
      "start": 36.2922,
      "duration": 0.0159,
      "velocity": 100,
      "chip": "ym2612"
    },
    {
      "channel": 1,
      "note": 79,
      "start": 36.3017,
      "duration": 0.0161,
      "velocity": 127,
      "chip": "ym2612"
    },
    {
      "channel": 0,
      "note": 43,
      "start": 36.3034,
      "duration": 0.0161,
      "velocity": 115,
      "chip": "ym2612"
    },
    {
      "channel": 5,
      "note": 83,
      "start": 36.3045,
      "duration": 0.0161,
      "velocity": 89,
      "chip": "ym2612"
    },
    {
      "channel": 3,
      "note": 83,
      "start": 36.3057,
      "duration": 0.0161,
      "velocity": 89,
      "chip": "ym2612"
    },
    {
      "channel": 2,
      "note": 76,
      "start": 36.307,
      "duration": 0.016,
      "velocity": 105,
      "chip": "ym2612"
    },
    {
      "channel": 4,
      "note": 55,
      "start": 36.3081,
      "duration": 0.016,
      "velocity": 100,
      "chip": "ym2612"
    },
    {
      "channel": 1,
      "note": 79,
      "start": 36.3178,
      "duration": 0.0161,
      "velocity": 127,
      "chip": "ym2612"
    },
    {
      "channel": 0,
      "note": 43,
      "start": 36.3195,
      "duration": 0.0161,
      "velocity": 115,
      "chip": "ym2612"
    },
    {
      "channel": 5,
      "note": 83,
      "start": 36.3206,
      "duration": 0.0161,
      "velocity": 89,
      "chip": "ym2612"
    },
    {
      "channel": 3,
      "note": 83,
      "start": 36.3218,
      "duration": 0.0161,
      "velocity": 89,
      "chip": "ym2612"
    },
    {
      "channel": 2,
      "note": 76,
      "start": 36.323,
      "duration": 0.0161,
      "velocity": 105,
      "chip": "ym2612"
    },
    {
      "channel": 4,
      "note": 55,
      "start": 36.3241,
      "duration": 0.0161,
      "velocity": 100,
      "chip": "ym2612"
    },
    {
      "channel": 1,
      "note": 79,
      "start": 36.3339,
      "duration": 0.0159,
      "velocity": 1,
      "chip": "ym2612"
    },
    {
      "channel": 0,
      "note": 44,
      "start": 36.3356,
      "duration": 0.0158,
      "velocity": 115,
      "chip": "ym2612"
    },
    {
      "channel": 5,
      "note": 83,
      "start": 36.3367,
      "duration": 0.0159,
      "velocity": 89,
      "chip": "ym2612"
    },
    {
      "channel": 3,
      "note": 83,
      "start": 36.3379,
      "duration": 0.0158,
      "velocity": 89,
      "chip": "ym2612"
    },
    {
      "channel": 2,
      "note": 76,
      "start": 36.3391,
      "duration": 0.0159,
      "velocity": 105,
      "chip": "ym2612"
    },
    {
      "channel": 4,
      "note": 55,
      "start": 36.3402,
      "duration": 0.0158,
      "velocity": 100,
      "chip": "ym2612"
    },
    {
      "channel": 0,
      "note": 44,
      "start": 36.3514,
      "duration": 0.0153,
      "velocity": 115,
      "chip": "ym2612"
    },
    {
      "channel": 5,
      "note": 83,
      "start": 36.3526,
      "duration": 0.0153,
      "velocity": 89,
      "chip": "ym2612"
    },
    {
      "channel": 3,
      "note": 83,
      "start": 36.3537,
      "duration": 0.0153,
      "velocity": 89,
      "chip": "ym2612"
    },
    {
      "channel": 4,
      "note": 55,
      "start": 36.3561,
      "duration": 0.0152,
      "velocity": 100,
      "chip": "ym2612"
    },
    {
      "channel": 0,
      "note": 44,
      "start": 36.3667,
      "duration": 0.0161,
      "velocity": 115,
      "chip": "ym2612"
    },
    {
      "channel": 5,
      "note": 83,
      "start": 36.3678,
      "duration": 0.0161,
      "velocity": 89,
      "chip": "ym2612"
    },
    {
      "channel": 3,
      "note": 83,
      "start": 36.369,
      "duration": 0.0161,
      "velocity": 89,
      "chip": "ym2612"
    },
    {
      "channel": 4,
      "note": 55,
      "start": 36.3713,
      "duration": 0.0161,
      "velocity": 100,
      "chip": "ym2612"
    },
    {
      "channel": 0,
      "note": 45,
      "start": 36.3828,
      "duration": 0.0208,
      "velocity": 115,
      "chip": "ym2612"
    },
    {
      "channel": 5,
      "note": 83,
      "start": 36.3839,
      "duration": 0.0209,
      "velocity": 89,
      "chip": "ym2612"
    },
    {
      "channel": 3,
      "note": 83,
      "start": 36.3851,
      "duration": 0.0209,
      "velocity": 89,
      "chip": "ym2612"
    },
    {
      "channel": 4,
      "note": 55,
      "start": 36.3874,
      "duration": 0.0214,
      "velocity": 100,
      "chip": "ym2612"
    },
    {
      "channel": 1,
      "note": 79,
      "start": 36.4001,
      "duration": 0.0144,
      "velocity": 127,
      "chip": "ym2612"
    },
    {
      "channel": 0,
      "note": 36,
      "start": 36.4037,
      "duration": 0.0126,
      "velocity": 115,
      "chip": "ym2612"
    },
    {
      "channel": 5,
      "note": 83,
      "start": 36.4048,
      "duration": 0.0126,
      "velocity": 89,
      "chip": "ym2612"
    },
    {
      "channel": 3,
      "note": 83,
      "start": 36.4059,
      "duration": 0.0126,
      "velocity": 89,
      "chip": "ym2612"
    },
    {
      "channel": 2,
      "note": 76,
      "start": 36.4074,
      "duration": 0.0123,
      "velocity": 105,
      "chip": "ym2612"
    },
    {
      "channel": 4,
      "note": 50,
      "start": 36.4089,
      "duration": 0.0121,
      "velocity": 100,
      "chip": "ym2612"
    },
    {
      "channel": 1,
      "note": 79,
      "start": 36.4145,
      "duration": 0.016,
      "velocity": 127,
      "chip": "ym2612"
    },
    {
      "channel": 0,
      "note": 36,
      "start": 36.4162,
      "duration": 0.016,
      "velocity": 115,
      "chip": "ym2612"
    },
    {
      "channel": 5,
      "note": 83,
      "start": 36.4174,
      "duration": 0.016,
      "velocity": 89,
      "chip": "ym2612"
    },
    {
      "channel": 3,
      "note": 83,
      "start": 36.4185,
      "duration": 0.016,
      "velocity": 89,
      "chip": "ym2612"
    },
    {
      "channel": 2,
      "note": 76,
      "start": 36.4197,
      "duration": 0.016,
      "velocity": 105,
      "chip": "ym2612"
    },
    {
      "channel": 4,
      "note": 50,
      "start": 36.421,
      "duration": 0.0159,
      "velocity": 100,
      "chip": "ym2612"
    },
    {
      "channel": 1,
      "note": 79,
      "start": 36.4305,
      "duration": 0.0161,
      "velocity": 127,
      "chip": "ym2612"
    },
    {
      "channel": 0,
      "note": 37,
      "start": 36.4322,
      "duration": 0.0161,
      "velocity": 115,
      "chip": "ym2612"
    },
    {
      "channel": 5,
      "note": 83,
      "start": 36.4334,
      "duration": 0.0161,
      "velocity": 89,
      "chip": "ym2612"
    },
    {
      "channel": 3,
      "note": 83,
      "start": 36.4345,
      "duration": 0.0162,
      "velocity": 89,
      "chip": "ym2612"
    },
    {
      "channel": 2,
      "note": 76,
      "start": 36.4357,
      "duration": 0.0161,
      "velocity": 105,
      "chip": "ym2612"
    },
    {
      "channel": 4,
      "note": 50,
      "start": 36.4368,
      "duration": 0.0161,
      "velocity": 100,
      "chip": "ym2612"
    },
    {
      "channel": 1,
      "note": 79,
      "start": 36.4466,
      "duration": 0.0162,
      "velocity": 127,
      "chip": "ym2612"
    },
    {
      "channel": 0,
      "note": 37,
      "start": 36.4483,
      "duration": 0.0162,
      "velocity": 115,
      "chip": "ym2612"
    },
    {
      "channel": 5,
      "note": 83,
      "start": 36.4494,
      "duration": 0.0162,
      "velocity": 89,
      "chip": "ym2612"
    },
    {
      "channel": 3,
      "note": 83,
      "start": 36.4507,
      "duration": 0.0161,
      "velocity": 89,
      "chip": "ym2612"
    },
    {
      "channel": 2,
      "note": 76,
      "start": 36.4518,
      "duration": 0.0162,
      "velocity": 105,
      "chip": "ym2612"
    },
    {
      "channel": 4,
      "note": 50,
      "start": 36.4529,
      "duration": 0.0161,
      "velocity": 100,
      "chip": "ym2612"
    },
    {
      "channel": 1,
      "note": 79,
      "start": 36.4627,
      "duration": 0.0164,
      "velocity": 127,
      "chip": "ym2612"
    },
    {
      "channel": 0,
      "note": 38,
      "start": 36.4645,
      "duration": 0.0164,
      "velocity": 115,
      "chip": "ym2612"
    },
    {
      "channel": 5,
      "note": 83,
      "start": 36.4656,
      "duration": 0.0164,
      "velocity": 89,
      "chip": "ym2612"
    },
    {
      "channel": 3,
      "note": 83,
      "start": 36.4668,
      "duration": 0.0164,
      "velocity": 89,
      "chip": "ym2612"
    },
    {
      "channel": 4,
      "note": 50,
      "start": 36.4691,
      "duration": 0.0163,
      "velocity": 100,
      "chip": "ym2612"
    },
    {
      "channel": 1,
      "note": 79,
      "start": 36.4792,
      "duration": 0.0163,
      "velocity": 127,
      "chip": "ym2612"
    },
    {
      "channel": 0,
      "note": 38,
      "start": 36.4809,
      "duration": 0.0163,
      "velocity": 115,
      "chip": "ym2612"
    },
    {
      "channel": 5,
      "note": 83,
      "start": 36.482,
      "duration": 0.0163,
      "velocity": 89,
      "chip": "ym2612"
    },
    {
      "channel": 3,
      "note": 83,
      "start": 36.4832,
      "duration": 0.0163,
      "velocity": 89,
      "chip": "ym2612"
    },
    {
      "channel": 4,
      "note": 50,
      "start": 36.4854,
      "duration": 0.0163,
      "velocity": 100,
      "chip": "ym2612"
    },
    {
      "channel": 1,
      "note": 79,
      "start": 36.4955,
      "duration": 0.016,
      "velocity": 127,
      "chip": "ym2612"
    },
    {
      "channel": 0,
      "note": 39,
      "start": 36.4971,
      "duration": 0.018,
      "velocity": 115,
      "chip": "ym2612"
    },
    {
      "channel": 5,
      "note": 83,
      "start": 36.4984,
      "duration": 0.0179,
      "velocity": 89,
      "chip": "ym2612"
    },
    {
      "channel": 3,
      "note": 83,
      "start": 36.4995,
      "duration": 0.0179,
      "velocity": 89,
      "chip": "ym2612"
    },
    {
      "channel": 4,
      "note": 50,
      "start": 36.5018,
      "duration": 0.0186,
      "velocity": 100,
      "chip": "ym2612"
    },
    {
      "channel": 1,
      "note": 79,
      "start": 36.5115,
      "duration": 0.0158,
      "velocity": 127,
      "chip": "ym2612"
    },
    {
      "channel": 0,
      "note": 36,
      "start": 36.5151,
      "duration": 0.0143,
      "velocity": 115,
      "chip": "ym2612"
    },
    {
      "channel": 5,
      "note": 83,
      "start": 36.5163,
      "duration": 0.0143,
      "velocity": 89,
      "chip": "ym2612"
    },
    {
      "channel": 3,
      "note": 83,
      "start": 36.5174,
      "duration": 0.0143,
      "velocity": 89,
      "chip": "ym2612"
    },
    {
      "channel": 2,
      "note": 76,
      "start": 36.519,
      "duration": 0.014,
      "velocity": 105,
      "chip": "ym2612"
    },
    {
      "channel": 4,
      "note": 50,
      "start": 36.5204,
      "duration": 0.0138,
      "velocity": 100,
      "chip": "ym2612"
    },
    {
      "channel": 1,
      "note": 79,
      "start": 36.5273,
      "duration": 0.0159,
      "velocity": 127,
      "chip": "ym2612"
    },
    {
      "channel": 0,
      "note": 36,
      "start": 36.5295,
      "duration": 0.016,
      "velocity": 115,
      "chip": "ym2612"
    },
    {
      "channel": 5,
      "note": 83,
      "start": 36.5306,
      "duration": 0.016,
      "velocity": 89,
      "chip": "ym2612"
    },
    {
      "channel": 3,
      "note": 83,
      "start": 36.5318,
      "duration": 0.0161,
      "velocity": 89,
      "chip": "ym2612"
    },
    {
      "channel": 2,
      "note": 76,
      "start": 36.533,
      "duration": 0.016,
      "velocity": 105,
      "chip": "ym2612"
    },
    {
      "channel": 4,
      "note": 50,
      "start": 36.5342,
      "duration": 0.0159,
      "velocity": 100,
      "chip": "ym2612"
    },
    {
      "channel": 1,
      "note": 79,
      "start": 36.5432,
      "duration": 0.0161,
      "velocity": 127,
      "chip": "ym2612"
    },
    {
      "channel": 0,
      "note": 37,
      "start": 36.5455,
      "duration": 0.016,
      "velocity": 115,
      "chip": "ym2612"
    },
    {
      "channel": 5,
      "note": 83,
      "start": 36.5466,
      "duration": 0.0161,
      "velocity": 89,
      "chip": "ym2612"
    },
    {
      "channel": 3,
      "note": 83,
      "start": 36.5478,
      "duration": 0.016,
      "velocity": 89,
      "chip": "ym2612"
    },
    {
      "channel": 2,
      "note": 76,
      "start": 36.549,
      "duration": 0.0161,
      "velocity": 105,
      "chip": "ym2612"
    },
    {
      "channel": 4,
      "note": 50,
      "start": 36.5501,
      "duration": 0.0161,
      "velocity": 100,
      "chip": "ym2612"
    },
    {
      "channel": 1,
      "note": 79,
      "start": 36.5593,
      "duration": 0.0161,
      "velocity": 127,
      "chip": "ym2612"
    },
    {
      "channel": 0,
      "note": 37,
      "start": 36.5615,
      "duration": 0.0158,
      "velocity": 115,
      "chip": "ym2612"
    },
    {
      "channel": 5,
      "note": 83,
      "start": 36.5627,
      "duration": 0.0161,
      "velocity": 89,
      "chip": "ym2612"
    },
    {
      "channel": 3,
      "note": 83,
      "start": 36.5639,
      "duration": 0.0162,
      "velocity": 89,
      "chip": "ym2612"
    },
    {
      "channel": 2,
      "note": 76,
      "start": 36.5651,
      "duration": 0.0161,
      "velocity": 105,
      "chip": "ym2612"
    },
    {
      "channel": 4,
      "note": 50,
      "start": 36.5662,
      "duration": 0.0161,
      "velocity": 100,
      "chip": "ym2612"
    },
    {
      "channel": 1,
      "note": 79,
      "start": 36.5754,
      "duration": 0.0161,
      "velocity": 127,
      "chip": "ym2612"
    },
    {
      "channel": 0,
      "note": 38,
      "start": 36.5773,
      "duration": 0.0159,
      "velocity": 115,
      "chip": "ym2612"
    },
    {
      "channel": 5,
      "note": 83,
      "start": 36.5788,
      "duration": 0.016,
      "velocity": 89,
      "chip": "ym2612"
    },
    {
      "channel": 3,
      "note": 83,
      "start": 36.58,
      "duration": 0.0161,
      "velocity": 89,
      "chip": "ym2612"
    },
    {
      "channel": 2,
      "note": 76,
      "start": 36.5812,
      "duration": 0.0161,
      "velocity": 105,
      "chip": "ym2612"
    },
    {
      "channel": 4,
      "note": 50,
      "start": 36.5823,
      "duration": 0.0161,
      "velocity": 100,
      "chip": "ym2612"
    },
    {
      "channel": 1,
      "note": 79,
      "start": 36.5915,
      "duration": 0.0161,
      "velocity": 127,
      "chip": "ym2612"
    },
    {
      "channel": 0,
      "note": 38,
      "start": 36.5932,
      "duration": 0.0161,
      "velocity": 115,
      "chip": "ym2612"
    },
    {
      "channel": 5,
      "note": 83,
      "start": 36.5949,
      "duration": 0.0162,
      "velocity": 89,
      "chip": "ym2612"
    },
    {
      "channel": 3,
      "note": 83,
      "start": 36.5961,
      "duration": 0.0161,
      "velocity": 89,
      "chip": "ym2612"
    },
    {
      "channel": 2,
      "note": 76,
      "start": 36.5973,
      "duration": 0.0161,
      "velocity": 105,
      "chip": "ym2612"
    },
    {
      "channel": 4,
      "note": 50,
      "start": 36.5984,
      "duration": 0.0161,
      "velocity": 100,
      "chip": "ym2612"
    },
    {
      "channel": 1,
      "note": 79,
      "start": 36.6076,
      "duration": 0.0179,
      "velocity": 127,
      "chip": "ym2612"
    },
    {
      "channel": 0,
      "note": 39,
      "start": 36.6093,
      "duration": 0.0185,
      "velocity": 115,
      "chip": "ym2612"
    },
    {
      "channel": 5,
      "note": 83,
      "start": 36.611,
      "duration": 0.0179,
      "velocity": 89,
      "chip": "ym2612"
    },
    {
      "channel": 3,
      "note": 83,
      "start": 36.6122,
      "duration": 0.0179,
      "velocity": 89,
      "chip": "ym2612"
    },
    {
      "channel": 2,
      "note": 76,
      "start": 36.6134,
      "duration": 0.0179,
      "velocity": 105,
      "chip": "ym2612"
    },
    {
      "channel": 4,
      "note": 50,
      "start": 36.6145,
      "duration": 0.0179,
      "velocity": 100,
      "chip": "ym2612"
    },
    {
      "channel": 1,
      "note": 79,
      "start": 36.6255,
      "duration": 0.0143,
      "velocity": 127,
      "chip": "ym2612"
    },
    {
      "channel": 0,
      "note": 39,
      "start": 36.6278,
      "duration": 0.0138,
      "velocity": 115,
      "chip": "ym2612"
    },
    {
      "channel": 5,
      "note": 83,
      "start": 36.629,
      "duration": 0.0137,
      "velocity": 89,
      "chip": "ym2612"
    },
    {
      "channel": 3,
      "note": 83,
      "start": 36.6302,
      "duration": 0.0143,
      "velocity": 89,
      "chip": "ym2612"
    },
    {
      "channel": 2,
      "note": 76,
      "start": 36.6313,
      "duration": 0.0143,
      "velocity": 105,
      "chip": "ym2612"
    },
    {
      "channel": 4,
      "note": 50,
      "start": 36.6324,
      "duration": 0.0143,
      "velocity": 100,
      "chip": "ym2612"
    },
    {
      "channel": 1,
      "note": 79,
      "start": 36.6398,
      "duration": 0.0161,
      "velocity": 127,
      "chip": "ym2612"
    },
    {
      "channel": 0,
      "note": 40,
      "start": 36.6416,
      "duration": 0.016,
      "velocity": 115,
      "chip": "ym2612"
    },
    {
      "channel": 5,
      "note": 83,
      "start": 36.6427,
      "duration": 0.0161,
      "velocity": 89,
      "chip": "ym2612"
    },
    {
      "channel": 3,
      "note": 83,
      "start": 36.6444,
      "duration": 0.0155,
      "velocity": 89,
      "chip": "ym2612"
    },
    {
      "channel": 2,
      "note": 76,
      "start": 36.6456,
      "duration": 0.016,
      "velocity": 105,
      "chip": "ym2612"
    },
    {
      "channel": 4,
      "note": 50,
      "start": 36.6468,
      "duration": 0.0161,
      "velocity": 100,
      "chip": "ym2612"
    },
    {
      "channel": 1,
      "note": 79,
      "start": 36.6559,
      "duration": 0.0161,
      "velocity": 127,
      "chip": "ym2612"
    },
    {
      "channel": 0,
      "note": 40,
      "start": 36.6576,
      "duration": 0.0161,
      "velocity": 115,
      "chip": "ym2612"
    },
    {
      "channel": 5,
      "note": 83,
      "start": 36.6588,
      "duration": 0.0161,
      "velocity": 89,
      "chip": "ym2612"
    },
    {
      "channel": 3,
      "note": 83,
      "start": 36.6599,
      "duration": 0.0161,
      "velocity": 89,
      "chip": "ym2612"
    },
    {
      "channel": 2,
      "note": 76,
      "start": 36.6617,
      "duration": 0.0161,
      "velocity": 105,
      "chip": "ym2612"
    },
    {
      "channel": 4,
      "note": 50,
      "start": 36.6629,
      "duration": 0.0161,
      "velocity": 100,
      "chip": "ym2612"
    },
    {
      "channel": 1,
      "note": 79,
      "start": 36.672,
      "duration": 0.0161,
      "velocity": 127,
      "chip": "ym2612"
    },
    {
      "channel": 0,
      "note": 40,
      "start": 36.6737,
      "duration": 0.0162,
      "velocity": 115,
      "chip": "ym2612"
    },
    {
      "channel": 5,
      "note": 83,
      "start": 36.6749,
      "duration": 0.0161,
      "velocity": 89,
      "chip": "ym2612"
    },
    {
      "channel": 3,
      "note": 83,
      "start": 36.676,
      "duration": 0.0161,
      "velocity": 89,
      "chip": "ym2612"
    },
    {
      "channel": 2,
      "note": 76,
      "start": 36.6778,
      "duration": 0.0155,
      "velocity": 105,
      "chip": "ym2612"
    },
    {
      "channel": 4,
      "note": 50,
      "start": 36.679,
      "duration": 0.016,
      "velocity": 100,
      "chip": "ym2612"
    },
    {
      "channel": 1,
      "note": 79,
      "start": 36.6881,
      "duration": 0.0161,
      "velocity": 127,
      "chip": "ym2612"
    },
    {
      "channel": 0,
      "note": 41,
      "start": 36.6898,
      "duration": 0.0161,
      "velocity": 115,
      "chip": "ym2612"
    },
    {
      "channel": 5,
      "note": 83,
      "start": 36.691,
      "duration": 0.0161,
      "velocity": 89,
      "chip": "ym2612"
    },
    {
      "channel": 3,
      "note": 83,
      "start": 36.6921,
      "duration": 0.0161,
      "velocity": 89,
      "chip": "ym2612"
    },
    {
      "channel": 4,
      "note": 50,
      "start": 36.695,
      "duration": 0.0161,
      "velocity": 100,
      "chip": "ym2612"
    },
    {
      "channel": 1,
      "note": 79,
      "start": 36.7042,
      "duration": 0.0161,
      "velocity": 127,
      "chip": "ym2612"
    },
    {
      "channel": 0,
      "note": 41,
      "start": 36.7059,
      "duration": 0.0161,
      "velocity": 115,
      "chip": "ym2612"
    },
    {
      "channel": 5,
      "note": 83,
      "start": 36.7071,
      "duration": 0.0161,
      "velocity": 89,
      "chip": "ym2612"
    },
    {
      "channel": 3,
      "note": 83,
      "start": 36.7082,
      "duration": 0.0161,
      "velocity": 89,
      "chip": "ym2612"
    },
    {
      "channel": 4,
      "note": 50,
      "start": 36.7111,
      "duration": 0.0156,
      "velocity": 100,
      "chip": "ym2612"
    },
    {
      "channel": 1,
      "note": 79,
      "start": 36.7203,
      "duration": 0.0178,
      "velocity": 127,
      "chip": "ym2612"
    },
    {
      "channel": 0,
      "note": 42,
      "start": 36.722,
      "duration": 0.0197,
      "velocity": 124,
      "chip": "ym2612"
    },
    {
      "channel": 5,
      "note": 83,
      "start": 36.7232,
      "duration": 0.0197,
      "velocity": 89,
      "chip": "ym2612"
    },
    {
      "channel": 3,
      "note": 83,
      "start": 36.7243,
      "duration": 0.0203,
      "velocity": 89,
      "chip": "ym2612"
    },
    {
      "channel": 4,
      "note": 50,
      "start": 36.7267,
      "duration": 0.0206,
      "velocity": 100,
      "chip": "ym2612"
    },
    {
      "channel": 1,
      "note": 72,
      "start": 36.7382,
      "duration": 0.0144,
      "velocity": 127,
      "chip": "ym2612"
    },
    {
      "channel": 0,
      "note": 84,
      "start": 36.7417,
      "duration": 0.0126,
      "velocity": 124,
      "chip": "ym2612"
    },
    {
      "channel": 5,
      "note": 83,
      "start": 36.7429,
      "duration": 0.0126,
      "velocity": 89,
      "chip": "ym2612"
    },
    {
      "channel": 3,
      "note": 83,
      "start": 36.7446,
      "duration": 0.0121,
      "velocity": 89,
      "chip": "ym2612"
    },
    {
      "channel": 2,
      "note": 76,
      "start": 36.7461,
      "duration": 0.0118,
      "velocity": 105,
      "chip": "ym2612"
    },
    {
      "channel": 4,
      "note": 50,
      "start": 36.7473,
      "duration": 0.0118,
      "velocity": 100,
      "chip": "ym2612"
    },
    {
      "channel": 1,
      "note": 72,
      "start": 36.7526,
      "duration": 0.016,
      "velocity": 127,
      "chip": "ym2612"
    },
    {
      "channel": 0,
      "note": 82,
      "start": 36.7543,
      "duration": 0.016,
      "velocity": 124,
      "chip": "ym2612"
    },
    {
      "channel": 5,
      "note": 83,
      "start": 36.7555,
      "duration": 0.016,
      "velocity": 89,
      "chip": "ym2612"
    },
    {
      "channel": 3,
      "note": 83,
      "start": 36.7567,
      "duration": 0.016,
      "velocity": 89,
      "chip": "ym2612"
    },
    {
      "channel": 2,
      "note": 76,
      "start": 36.7579,
      "duration": 0.0159,
      "velocity": 105,
      "chip": "ym2612"
    },
    {
      "channel": 4,
      "note": 50,
      "start": 36.759,
      "duration": 0.0159,
      "velocity": 100,
      "chip": "ym2612"
    },
    {
      "channel": 1,
      "note": 72,
      "start": 36.7686,
      "duration": 0.0161,
      "velocity": 127,
      "chip": "ym2612"
    },
    {
      "channel": 0,
      "note": 80,
      "start": 36.7703,
      "duration": 0.0161,
      "velocity": 124,
      "chip": "ym2612"
    },
    {
      "channel": 5,
      "note": 83,
      "start": 36.7715,
      "duration": 0.0161,
      "velocity": 89,
      "chip": "ym2612"
    },
    {
      "channel": 3,
      "note": 83,
      "start": 36.7727,
      "duration": 0.0161,
      "velocity": 89,
      "chip": "ym2612"
    },
    {
      "channel": 2,
      "note": 76,
      "start": 36.7738,
      "duration": 0.0161,
      "velocity": 105,
      "chip": "ym2612"
    },
    {
      "channel": 4,
      "note": 50,
      "start": 36.7749,
      "duration": 0.0161,
      "velocity": 100,
      "chip": "ym2612"
    },
    {
      "channel": 1,
      "note": 72,
      "start": 36.7847,
      "duration": 0.0161,
      "velocity": 127,
      "chip": "ym2612"
    },
    {
      "channel": 0,
      "note": 77,
      "start": 36.7864,
      "duration": 0.0162,
      "velocity": 124,
      "chip": "ym2612"
    },
    {
      "channel": 5,
      "note": 83,
      "start": 36.7876,
      "duration": 0.0161,
      "velocity": 89,
      "chip": "ym2612"
    },
    {
      "channel": 3,
      "note": 83,
      "start": 36.7888,
      "duration": 0.0161,
      "velocity": 89,
      "chip": "ym2612"
    },
    {
      "channel": 2,
      "note": 76,
      "start": 36.7899,
      "duration": 0.0161,
      "velocity": 105,
      "chip": "ym2612"
    },
    {
      "channel": 4,
      "note": 50,
      "start": 36.791,
      "duration": 0.0162,
      "velocity": 100,
      "chip": "ym2612"
    },
    {
      "channel": 1,
      "note": 72,
      "start": 36.8008,
      "duration": 0.0161,
      "velocity": 127,
      "chip": "ym2612"
    },
    {
      "channel": 0,
      "note": 75,
      "start": 36.8026,
      "duration": 0.0161,
      "velocity": 124,
      "chip": "ym2612"
    },
    {
      "channel": 5,
      "note": 83,
      "start": 36.8037,
      "duration": 0.0161,
      "velocity": 89,
      "chip": "ym2612"
    },
    {
      "channel": 3,
      "note": 83,
      "start": 36.8049,
      "duration": 0.0161,
      "velocity": 89,
      "chip": "ym2612"
    },
    {
      "channel": 4,
      "note": 50,
      "start": 36.8072,
      "duration": 0.016,
      "velocity": 100,
      "chip": "ym2612"
    },
    {
      "channel": 1,
      "note": 72,
      "start": 36.8169,
      "duration": 0.0161,
      "velocity": 127,
      "chip": "ym2612"
    },
    {
      "channel": 0,
      "note": 72,
      "start": 36.8187,
      "duration": 0.0161,
      "velocity": 124,
      "chip": "ym2612"
    },
    {
      "channel": 5,
      "note": 83,
      "start": 36.8198,
      "duration": 0.0161,
      "velocity": 89,
      "chip": "ym2612"
    },
    {
      "channel": 3,
      "note": 83,
      "start": 36.821,
      "duration": 0.0161,
      "velocity": 89,
      "chip": "ym2612"
    },
    {
      "channel": 4,
      "note": 50,
      "start": 36.8232,
      "duration": 0.0161,
      "velocity": 100,
      "chip": "ym2612"
    },
    {
      "channel": 1,
      "note": 72,
      "start": 36.833,
      "duration": 0.0161,
      "velocity": 127,
      "chip": "ym2612"
    },
    {
      "channel": 0,
      "note": 70,
      "start": 36.8347,
      "duration": 0.0179,
      "velocity": 115,
      "chip": "ym2612"
    },
    {
      "channel": 5,
      "note": 83,
      "start": 36.8359,
      "duration": 0.0179,
      "velocity": 89,
      "chip": "ym2612"
    },
    {
      "channel": 3,
      "note": 83,
      "start": 36.837,
      "duration": 0.018,
      "velocity": 89,
      "chip": "ym2612"
    },
    {
      "channel": 4,
      "note": 50,
      "start": 36.8393,
      "duration": 0.0186,
      "velocity": 100,
      "chip": "ym2612"
    },
    {
      "channel": 1,
      "note": 72,
      "start": 36.8491,
      "duration": 0.0161,
      "velocity": 127,
      "chip": "ym2612"
    },
    {
      "channel": 0,
      "note": 36,
      "start": 36.8527,
      "duration": 0.0143,
      "velocity": 115,
      "chip": "ym2612"
    },
    {
      "channel": 5,
      "note": 83,
      "start": 36.8538,
      "duration": 0.0143,
      "velocity": 89,
      "chip": "ym2612"
    },
    {
      "channel": 3,
      "note": 83,
      "start": 36.855,
      "duration": 0.0143,
      "velocity": 89,
      "chip": "ym2612"
    },
    {
      "channel": 2,
      "note": 76,
      "start": 36.8564,
      "duration": 0.0141,
      "velocity": 105,
      "chip": "ym2612"
    },
    {
      "channel": 4,
      "note": 50,
      "start": 36.8579,
      "duration": 0.0139,
      "velocity": 100,
      "chip": "ym2612"
    },
    {
      "channel": 1,
      "note": 72,
      "start": 36.8652,
      "duration": 0.0161,
      "velocity": 127,
      "chip": "ym2612"
    },
    {
      "channel": 0,
      "note": 36,
      "start": 36.867,
      "duration": 0.016,
      "velocity": 115,
      "chip": "ym2612"
    },
    {
      "channel": 5,
      "note": 83,
      "start": 36.8681,
      "duration": 0.016,
      "velocity": 89,
      "chip": "ym2612"
    },
    {
      "channel": 3,
      "note": 83,
      "start": 36.8693,
      "duration": 0.016,
      "velocity": 89,
      "chip": "ym2612"
    },
    {
      "channel": 2,
      "note": 76,
      "start": 36.8705,
      "duration": 0.016,
      "velocity": 105,
      "chip": "ym2612"
    },
    {
      "channel": 4,
      "note": 50,
      "start": 36.8718,
      "duration": 0.0159,
      "velocity": 100,
      "chip": "ym2612"
    },
    {
      "channel": 1,
      "note": 72,
      "start": 36.8813,
      "duration": 0.0161,
      "velocity": 127,
      "chip": "ym2612"
    },
    {
      "channel": 0,
      "note": 37,
      "start": 36.883,
      "duration": 0.0161,
      "velocity": 115,
      "chip": "ym2612"
    },
    {
      "channel": 5,
      "note": 83,
      "start": 36.8842,
      "duration": 0.0161,
      "velocity": 89,
      "chip": "ym2612"
    },
    {
      "channel": 3,
      "note": 83,
      "start": 36.8853,
      "duration": 0.0161,
      "velocity": 89,
      "chip": "ym2612"
    },
    {
      "channel": 2,
      "note": 76,
      "start": 36.8865,
      "duration": 0.0161,
      "velocity": 105,
      "chip": "ym2612"
    },
    {
      "channel": 4,
      "note": 50,
      "start": 36.8877,
      "duration": 0.0161,
      "velocity": 100,
      "chip": "ym2612"
    },
    {
      "channel": 1,
      "note": 72,
      "start": 36.8974,
      "duration": 0.0161,
      "velocity": 127,
      "chip": "ym2612"
    },
    {
      "channel": 0,
      "note": 37,
      "start": 36.8991,
      "duration": 0.0161,
      "velocity": 115,
      "chip": "ym2612"
    },
    {
      "channel": 5,
      "note": 83,
      "start": 36.9003,
      "duration": 0.0161,
      "velocity": 89,
      "chip": "ym2612"
    },
    {
      "channel": 3,
      "note": 83,
      "start": 36.9015,
      "duration": 0.0161,
      "velocity": 89,
      "chip": "ym2612"
    },
    {
      "channel": 2,
      "note": 76,
      "start": 36.9026,
      "duration": 0.0161,
      "velocity": 105,
      "chip": "ym2612"
    },
    {
      "channel": 4,
      "note": 50,
      "start": 36.9038,
      "duration": 0.0161,
      "velocity": 100,
      "chip": "ym2612"
    },
    {
      "channel": 1,
      "note": 72,
      "start": 36.9135,
      "duration": 0.0162,
      "velocity": 127,
      "chip": "ym2612"
    },
    {
      "channel": 0,
      "note": 38,
      "start": 36.9152,
      "duration": 0.0162,
      "velocity": 115,
      "chip": "ym2612"
    },
    {
      "channel": 5,
      "note": 83,
      "start": 36.9164,
      "duration": 0.0161,
      "velocity": 89,
      "chip": "ym2612"
    },
    {
      "channel": 3,
      "note": 83,
      "start": 36.9176,
      "duration": 0.0162,
      "velocity": 89,
      "chip": "ym2612"
    },
    {
      "channel": 4,
      "note": 50,
      "start": 36.9199,
      "duration": 0.0162,
      "velocity": 100,
      "chip": "ym2612"
    },
    {
      "channel": 1,
      "note": 72,
      "start": 36.9297,
      "duration": 0.0162,
      "velocity": 127,
      "chip": "ym2612"
    },
    {
      "channel": 0,
      "note": 38,
      "start": 36.9314,
      "duration": 0.0161,
      "velocity": 115,
      "chip": "ym2612"
    },
    {
      "channel": 5,
      "note": 83,
      "start": 36.9325,
      "duration": 0.0162,
      "velocity": 89,
      "chip": "ym2612"
    },
    {
      "channel": 3,
      "note": 83,
      "start": 36.9337,
      "duration": 0.0161,
      "velocity": 89,
      "chip": "ym2612"
    },
    {
      "channel": 4,
      "note": 50,
      "start": 36.936,
      "duration": 0.0161,
      "velocity": 100,
      "chip": "ym2612"
    },
    {
      "channel": 1,
      "note": 72,
      "start": 36.9458,
      "duration": 0.0164,
      "velocity": 127,
      "chip": "ym2612"
    },
    {
      "channel": 0,
      "note": 39,
      "start": 36.9475,
      "duration": 0.0164,
      "velocity": 115,
      "chip": "ym2612"
    },
    {
      "channel": 5,
      "note": 83,
      "start": 36.9487,
      "duration": 0.0164,
      "velocity": 89,
      "chip": "ym2612"
    },
    {
      "channel": 3,
      "note": 83,
      "start": 36.9498,
      "duration": 0.0164,
      "velocity": 89,
      "chip": "ym2612"
    },
    {
      "channel": 4,
      "note": 50,
      "start": 36.9521,
      "duration": 0.017,
      "velocity": 100,
      "chip": "ym2612"
    },
    {
      "channel": 1,
      "note": 72,
      "start": 36.9622,
      "duration": 0.0163,
      "velocity": 127,
      "chip": "ym2612"
    },
    {
      "channel": 0,
      "note": 39,
      "start": 36.9639,
      "duration": 0.0163,
      "velocity": 115,
      "chip": "ym2612"
    },
    {
      "channel": 5,
      "note": 83,
      "start": 36.9651,
      "duration": 0.0163,
      "velocity": 89,
      "chip": "ym2612"
    },
    {
      "channel": 3,
      "note": 83,
      "start": 36.9662,
      "duration": 0.0163,
      "velocity": 89,
      "chip": "ym2612"
    },
    {
      "channel": 2,
      "note": 76,
      "start": 36.9678,
      "duration": 0.0159,
      "velocity": 105,
      "chip": "ym2612"
    },
    {
      "channel": 4,
      "note": 50,
      "start": 36.9691,
      "duration": 0.0159,
      "velocity": 100,
      "chip": "ym2612"
    },
    {
      "channel": 1,
      "note": 72,
      "start": 36.9785,
      "duration": 0.016,
      "velocity": 127,
      "chip": "ym2612"
    },
    {
      "channel": 0,
      "note": 40,
      "start": 36.9802,
      "duration": 0.0161,
      "velocity": 115,
      "chip": "ym2612"
    },
    {
      "channel": 5,
      "note": 83,
      "start": 36.9814,
      "duration": 0.0161,
      "velocity": 89,
      "chip": "ym2612"
    },
    {
      "channel": 3,
      "note": 83,
      "start": 36.9825,
      "duration": 0.0162,
      "velocity": 89,
      "chip": "ym2612"
    },
    {
      "channel": 2,
      "note": 76,
      "start": 36.9837,
      "duration": 0.0161,
      "velocity": 105,
      "chip": "ym2612"
    },
    {
      "channel": 4,
      "note": 50,
      "start": 36.9849,
      "duration": 0.0161,
      "velocity": 100,
      "chip": "ym2612"
    },
    {
      "channel": 1,
      "note": 72,
      "start": 36.9945,
      "duration": 0.0158,
      "velocity": 127,
      "chip": "ym2612"
    },
    {
      "channel": 0,
      "note": 40,
      "start": 36.9963,
      "duration": 0.0161,
      "velocity": 115,
      "chip": "ym2612"
    },
    {
      "channel": 5,
      "note": 83,
      "start": 36.9975,
      "duration": 0.0161,
      "velocity": 89,
      "chip": "ym2612"
    },
    {
      "channel": 3,
      "note": 83,
      "start": 36.9987,
      "duration": 0.0161,
      "velocity": 89,
      "chip": "ym2612"
    },
    {
      "channel": 2,
      "note": 76,
      "start": 36.9998,
      "duration": 0.0161,
      "velocity": 105,
      "chip": "ym2612"
    },
    {
      "channel": 4,
      "note": 50,
      "start": 37.001,
      "duration": 0.016,
      "velocity": 100,
      "chip": "ym2612"
    },
    {
      "channel": 1,
      "note": 72,
      "start": 37.0103,
      "duration": 0.0156,
      "velocity": 1,
      "chip": "ym2612"
    },
    {
      "channel": 0,
      "note": 40,
      "start": 37.0124,
      "duration": 0.0158,
      "velocity": 115,
      "chip": "ym2612"
    },
    {
      "channel": 5,
      "note": 83,
      "start": 37.0136,
      "duration": 0.0159,
      "velocity": 89,
      "chip": "ym2612"
    },
    {
      "channel": 3,
      "note": 83,
      "start": 37.0148,
      "duration": 0.0158,
      "velocity": 89,
      "chip": "ym2612"
    },
    {
      "channel": 2,
      "note": 76,
      "start": 37.0159,
      "duration": 0.0159,
      "velocity": 105,
      "chip": "ym2612"
    },
    {
      "channel": 4,
      "note": 50,
      "start": 37.0171,
      "duration": 0.0158,
      "velocity": 100,
      "chip": "ym2612"
    },
    {
      "channel": 0,
      "note": 41,
      "start": 37.0282,
      "duration": 0.0147,
      "velocity": 115,
      "chip": "ym2612"
    },
    {
      "channel": 5,
      "note": 83,
      "start": 37.0294,
      "duration": 0.0152,
      "velocity": 89,
      "chip": "ym2612"
    },
    {
      "channel": 3,
      "note": 83,
      "start": 37.0305,
      "duration": 0.0153,
      "velocity": 89,
      "chip": "ym2612"
    },
    {
      "channel": 2,
      "note": 76,
      "start": 37.0318,
      "duration": 0.0152,
      "velocity": 105,
      "chip": "ym2612"
    },
    {
      "channel": 4,
      "note": 50,
      "start": 37.0329,
      "duration": 0.0153,
      "velocity": 100,
      "chip": "ym2612"
    },
    {
      "channel": 0,
      "note": 41,
      "start": 37.0429,
      "duration": 0.0161,
      "velocity": 115,
      "chip": "ym2612"
    },
    {
      "channel": 5,
      "note": 83,
      "start": 37.0446,
      "duration": 0.0158,
      "velocity": 89,
      "chip": "ym2612"
    },
    {
      "channel": 3,
      "note": 83,
      "start": 37.0458,
      "duration": 0.0161,
      "velocity": 89,
      "chip": "ym2612"
    },
    {
      "channel": 2,
      "note": 76,
      "start": 37.047,
      "duration": 0.0162,
      "velocity": 105,
      "chip": "ym2612"
    },
    {
      "channel": 4,
      "note": 50,
      "start": 37.0482,
      "duration": 0.0161,
      "velocity": 100,
      "chip": "ym2612"
    },
    {
      "channel": 0,
      "note": 42,
      "start": 37.059,
      "duration": 0.0215,
      "velocity": 115,
      "chip": "ym2612"
    },
    {
      "channel": 5,
      "note": 83,
      "start": 37.0604,
      "duration": 0.0212,
      "velocity": 89,
      "chip": "ym2612"
    },
    {
      "channel": 3,
      "note": 83,
      "start": 37.0619,
      "duration": 0.0209,
      "velocity": 89,
      "chip": "ym2612"
    },
    {
      "channel": 2,
      "note": 76,
      "start": 37.0631,
      "duration": 0.0208,
      "velocity": 105,
      "chip": "ym2612"
    },
    {
      "channel": 4,
      "note": 50,
      "start": 37.0643,
      "duration": 0.0211,
      "velocity": 100,
      "chip": "ym2612"
    },
    {
      "channel": 1,
      "note": 72,
      "start": 37.0763,
      "duration": 0.0144,
      "velocity": 127,
      "chip": "ym2612"
    },
    {
      "channel": 0,
      "note": 36,
      "start": 37.0804,
      "duration": 0.012,
      "velocity": 115,
      "chip": "ym2612"
    },
    {
      "channel": 5,
      "note": 83,
      "start": 37.0816,
      "duration": 0.0122,
      "velocity": 89,
      "chip": "ym2612"
    },
    {
      "channel": 3,
      "note": 83,
      "start": 37.0828,
      "duration": 0.0126,
      "velocity": 89,
      "chip": "ym2612"
    },
    {
      "channel": 2,
      "note": 76,
      "start": 37.0839,
      "duration": 0.0126,
      "velocity": 105,
      "chip": "ym2612"
    },
    {
      "channel": 4,
      "note": 55,
      "start": 37.0854,
      "duration": 0.0123,
      "velocity": 100,
      "chip": "ym2612"
    },
    {
      "channel": 1,
      "note": 72,
      "start": 37.0907,
      "duration": 0.0161,
      "velocity": 127,
      "chip": "ym2612"
    },
    {
      "channel": 0,
      "note": 36,
      "start": 37.0924,
      "duration": 0.016,
      "velocity": 115,
      "chip": "ym2612"
    },
    {
      "channel": 5,
      "note": 83,
      "start": 37.0939,
      "duration": 0.0158,
      "velocity": 89,
      "chip": "ym2612"
    },
    {
      "channel": 3,
      "note": 83,
      "start": 37.0954,
      "duration": 0.0159,
      "velocity": 89,
      "chip": "ym2612"
    },
    {
      "channel": 2,
      "note": 76,
      "start": 37.0965,
      "duration": 0.016,
      "velocity": 105,
      "chip": "ym2612"
    },
    {
      "channel": 4,
      "note": 55,
      "start": 37.0977,
      "duration": 0.016,
      "velocity": 100,
      "chip": "ym2612"
    },
    {
      "channel": 1,
      "note": 72,
      "start": 37.1068,
      "duration": 0.0161,
      "velocity": 127,
      "chip": "ym2612"
    },
    {
      "channel": 0,
      "note": 37,
      "start": 37.1084,
      "duration": 0.0161,
      "velocity": 115,
      "chip": "ym2612"
    },
    {
      "channel": 5,
      "note": 83,
      "start": 37.1096,
      "duration": 0.0161,
      "velocity": 89,
      "chip": "ym2612"
    },
    {
      "channel": 3,
      "note": 83,
      "start": 37.1113,
      "duration": 0.0158,
      "velocity": 89,
      "chip": "ym2612"
    },
    {
      "channel": 2,
      "note": 76,
      "start": 37.1125,
      "duration": 0.0161,
      "velocity": 105,
      "chip": "ym2612"
    },
    {
      "channel": 4,
      "note": 55,
      "start": 37.1137,
      "duration": 0.0161,
      "velocity": 100,
      "chip": "ym2612"
    },
    {
      "channel": 1,
      "note": 72,
      "start": 37.1229,
      "duration": 0.0161,
      "velocity": 127,
      "chip": "ym2612"
    },
    {
      "channel": 0,
      "note": 37,
      "start": 37.1245,
      "duration": 0.0161,
      "velocity": 115,
      "chip": "ym2612"
    },
    {
      "channel": 5,
      "note": 83,
      "start": 37.1257,
      "duration": 0.0161,
      "velocity": 89,
      "chip": "ym2612"
    },
    {
      "channel": 3,
      "note": 83,
      "start": 37.1271,
      "duration": 0.0159,
      "velocity": 89,
      "chip": "ym2612"
    },
    {
      "channel": 2,
      "note": 76,
      "start": 37.1286,
      "duration": 0.016,
      "velocity": 105,
      "chip": "ym2612"
    },
    {
      "channel": 4,
      "note": 55,
      "start": 37.1298,
      "duration": 0.0161,
      "velocity": 100,
      "chip": "ym2612"
    },
    {
      "channel": 1,
      "note": 72,
      "start": 37.139,
      "duration": 0.0161,
      "velocity": 127,
      "chip": "ym2612"
    },
    {
      "channel": 0,
      "note": 38,
      "start": 37.1407,
      "duration": 0.0161,
      "velocity": 115,
      "chip": "ym2612"
    },
    {
      "channel": 5,
      "note": 83,
      "start": 37.1418,
      "duration": 0.0161,
      "velocity": 89,
      "chip": "ym2612"
    },
    {
      "channel": 3,
      "note": 83,
      "start": 37.1429,
      "duration": 0.0161,
      "velocity": 89,
      "chip": "ym2612"
    },
    {
      "channel": 4,
      "note": 55,
      "start": 37.1459,
      "duration": 0.0161,
      "velocity": 100,
      "chip": "ym2612"
    },
    {
      "channel": 1,
      "note": 72,
      "start": 37.155,
      "duration": 0.0161,
      "velocity": 127,
      "chip": "ym2612"
    },
    {
      "channel": 0,
      "note": 38,
      "start": 37.1568,
      "duration": 0.0161,
      "velocity": 115,
      "chip": "ym2612"
    },
    {
      "channel": 5,
      "note": 83,
      "start": 37.1579,
      "duration": 0.0161,
      "velocity": 89,
      "chip": "ym2612"
    },
    {
      "channel": 3,
      "note": 83,
      "start": 37.159,
      "duration": 0.0161,
      "velocity": 89,
      "chip": "ym2612"
    },
    {
      "channel": 4,
      "note": 55,
      "start": 37.162,
      "duration": 0.016,
      "velocity": 100,
      "chip": "ym2612"
    },
    {
      "channel": 1,
      "note": 72,
      "start": 37.1711,
      "duration": 0.0178,
      "velocity": 127,
      "chip": "ym2612"
    },
    {
      "channel": 0,
      "note": 39,
      "start": 37.1729,
      "duration": 0.0197,
      "velocity": 115,
      "chip": "ym2612"
    },
    {
      "channel": 5,
      "note": 83,
      "start": 37.174,
      "duration": 0.0199,
      "velocity": 89,
      "chip": "ym2612"
    },
    {
      "channel": 3,
      "note": 83,
      "start": 37.1751,
      "duration": 0.0204,
      "velocity": 89,
      "chip": "ym2612"
    },
    {
      "channel": 4,
      "note": 55,
      "start": 37.178,
      "duration": 0.0204,
      "velocity": 100,
      "chip": "ym2612"
    },
    {
      "channel": 1,
      "note": 72,
      "start": 37.189,
      "duration": 0.0144,
      "velocity": 127,
      "chip": "ym2612"
    },
    {
      "channel": 0,
      "note": 36,
      "start": 37.1926,
      "duration": 0.0126,
      "velocity": 115,
      "chip": "ym2612"
    },
    {
      "channel": 5,
      "note": 83,
      "start": 37.1939,
      "duration": 0.0124,
      "velocity": 89,
      "chip": "ym2612"
    },
    {
      "channel": 3,
      "note": 83,
      "start": 37.1955,
      "duration": 0.012,
      "velocity": 89,
      "chip": "ym2612"
    },
    {
      "channel": 2,
      "note": 76,
      "start": 37.197,
      "duration": 0.0118,
      "velocity": 105,
      "chip": "ym2612"
    },
    {
      "channel": 4,
      "note": 50,
      "start": 37.1984,
      "duration": 0.0115,
      "velocity": 100,
      "chip": "ym2612"
    },
    {
      "channel": 1,
      "note": 72,
      "start": 37.2034,
      "duration": 0.016,
      "velocity": 127,
      "chip": "ym2612"
    },
    {
      "channel": 0,
      "note": 36,
      "start": 37.2052,
      "duration": 0.016,
      "velocity": 115,
      "chip": "ym2612"
    },
    {
      "channel": 5,
      "note": 83,
      "start": 37.2063,
      "duration": 0.016,
      "velocity": 89,
      "chip": "ym2612"
    },
    {
      "channel": 3,
      "note": 83,
      "start": 37.2075,
      "duration": 0.016,
      "velocity": 89,
      "chip": "ym2612"
    },
    {
      "channel": 2,
      "note": 76,
      "start": 37.2087,
      "duration": 0.0159,
      "velocity": 105,
      "chip": "ym2612"
    },
    {
      "channel": 4,
      "note": 50,
      "start": 37.2099,
      "duration": 0.0159,
      "velocity": 100,
      "chip": "ym2612"
    },
    {
      "channel": 1,
      "note": 72,
      "start": 37.2194,
      "duration": 0.0162,
      "velocity": 127,
      "chip": "ym2612"
    },
    {
      "channel": 0,
      "note": 37,
      "start": 37.2211,
      "duration": 0.0161,
      "velocity": 115,
      "chip": "ym2612"
    },
    {
      "channel": 5,
      "note": 83,
      "start": 37.2223,
      "duration": 0.0161,
      "velocity": 89,
      "chip": "ym2612"
    },
    {
      "channel": 3,
      "note": 83,
      "start": 37.2235,
      "duration": 0.0161,
      "velocity": 89,
      "chip": "ym2612"
    },
    {
      "channel": 2,
      "note": 76,
      "start": 37.2246,
      "duration": 0.0161,
      "velocity": 105,
      "chip": "ym2612"
    },
    {
      "channel": 4,
      "note": 50,
      "start": 37.2258,
      "duration": 0.0161,
      "velocity": 100,
      "chip": "ym2612"
    },
    {
      "channel": 1,
      "note": 72,
      "start": 37.2356,
      "duration": 0.0161,
      "velocity": 127,
      "chip": "ym2612"
    },
    {
      "channel": 0,
      "note": 37,
      "start": 37.2372,
      "duration": 0.0161,
      "velocity": 115,
      "chip": "ym2612"
    },
    {
      "channel": 5,
      "note": 83,
      "start": 37.2384,
      "duration": 0.0161,
      "velocity": 89,
      "chip": "ym2612"
    },
    {
      "channel": 3,
      "note": 83,
      "start": 37.2396,
      "duration": 0.0161,
      "velocity": 89,
      "chip": "ym2612"
    },
    {
      "channel": 2,
      "note": 76,
      "start": 37.2407,
      "duration": 0.0161,
      "velocity": 105,
      "chip": "ym2612"
    },
    {
      "channel": 4,
      "note": 50,
      "start": 37.2419,
      "duration": 0.0161,
      "velocity": 100,
      "chip": "ym2612"
    },
    {
      "channel": 1,
      "note": 72,
      "start": 37.2517,
      "duration": 0.0161,
      "velocity": 127,
      "chip": "ym2612"
    },
    {
      "channel": 0,
      "note": 38,
      "start": 37.2533,
      "duration": 0.0161,
      "velocity": 115,
      "chip": "ym2612"
    },
    {
      "channel": 5,
      "note": 83,
      "start": 37.2545,
      "duration": 0.0161,
      "velocity": 89,
      "chip": "ym2612"
    },
    {
      "channel": 3,
      "note": 83,
      "start": 37.2557,
      "duration": 0.0161,
      "velocity": 89,
      "chip": "ym2612"
    },
    {
      "channel": 4,
      "note": 50,
      "start": 37.258,
      "duration": 0.016,
      "velocity": 100,
      "chip": "ym2612"
    },
    {
      "channel": 1,
      "note": 72,
      "start": 37.2678,
      "duration": 0.0161,
      "velocity": 127,
      "chip": "ym2612"
    },
    {
      "channel": 0,
      "note": 38,
      "start": 37.2694,
      "duration": 0.0162,
      "velocity": 115,
      "chip": "ym2612"
    },
    {
      "channel": 5,
      "note": 83,
      "start": 37.2706,
      "duration": 0.0161,
      "velocity": 89,
      "chip": "ym2612"
    },
    {
      "channel": 3,
      "note": 83,
      "start": 37.2718,
      "duration": 0.0161,
      "velocity": 89,
      "chip": "ym2612"
    },
    {
      "channel": 4,
      "note": 50,
      "start": 37.2741,
      "duration": 0.0162,
      "velocity": 100,
      "chip": "ym2612"
    },
    {
      "channel": 1,
      "note": 72,
      "start": 37.2839,
      "duration": 0.0161,
      "velocity": 127,
      "chip": "ym2612"
    },
    {
      "channel": 0,
      "note": 39,
      "start": 37.2856,
      "duration": 0.0161,
      "velocity": 115,
      "chip": "ym2612"
    },
    {
      "channel": 5,
      "note": 83,
      "start": 37.2867,
      "duration": 0.0161,
      "velocity": 89,
      "chip": "ym2612"
    },
    {
      "channel": 3,
      "note": 83,
      "start": 37.2879,
      "duration": 0.0161,
      "velocity": 89,
      "chip": "ym2612"
    },
    {
      "channel": 4,
      "note": 50,
      "start": 37.2902,
      "duration": 0.0164,
      "velocity": 100,
      "chip": "ym2612"
    },
    {
      "channel": 1,
      "note": 72,
      "start": 37.3,
      "duration": 0.0161,
      "velocity": 127,
      "chip": "ym2612"
    },
    {
      "channel": 0,
      "note": 39,
      "start": 37.3017,
      "duration": 0.0161,
      "velocity": 115,
      "chip": "ym2612"
    },
    {
      "channel": 5,
      "note": 83,
      "start": 37.3028,
      "duration": 0.0161,
      "velocity": 89,
      "chip": "ym2612"
    },
    {
      "channel": 3,
      "note": 83,
      "start": 37.304,
      "duration": 0.0161,
      "velocity": 89,
      "chip": "ym2612"
    },
    {
      "channel": 2,
      "note": 76,
      "start": 37.3054,
      "duration": 0.0159,
      "velocity": 105,
      "chip": "ym2612"
    },
    {
      "channel": 4,
      "note": 50,
      "start": 37.3066,
      "duration": 0.0159,
      "velocity": 100,
      "chip": "ym2612"
    },
    {
      "channel": 1,
      "note": 72,
      "start": 37.3161,
      "duration": 0.0161,
      "velocity": 127,
      "chip": "ym2612"
    },
    {
      "channel": 0,
      "note": 40,
      "start": 37.3178,
      "duration": 0.0161,
      "velocity": 115,
      "chip": "ym2612"
    },
    {
      "channel": 5,
      "note": 83,
      "start": 37.3189,
      "duration": 0.0161,
      "velocity": 89,
      "chip": "ym2612"
    },
    {
      "channel": 3,
      "note": 83,
      "start": 37.32,
      "duration": 0.0162,
      "velocity": 89,
      "chip": "ym2612"
    },
    {
      "channel": 2,
      "note": 76,
      "start": 37.3213,
      "duration": 0.016,
      "velocity": 105,
      "chip": "ym2612"
    },
    {
      "channel": 4,
      "note": 50,
      "start": 37.3225,
      "duration": 0.016,
      "velocity": 100,
      "chip": "ym2612"
    },
    {
      "channel": 1,
      "note": 72,
      "start": 37.3321,
      "duration": 0.0161,
      "velocity": 127,
      "chip": "ym2612"
    },
    {
      "channel": 0,
      "note": 40,
      "start": 37.3339,
      "duration": 0.0161,
      "velocity": 115,
      "chip": "ym2612"
    },
    {
      "channel": 5,
      "note": 83,
      "start": 37.335,
      "duration": 0.0161,
      "velocity": 89,
      "chip": "ym2612"
    },
    {
      "channel": 3,
      "note": 83,
      "start": 37.3362,
      "duration": 0.0161,
      "velocity": 89,
      "chip": "ym2612"
    },
    {
      "channel": 2,
      "note": 76,
      "start": 37.3373,
      "duration": 0.0161,
      "velocity": 105,
      "chip": "ym2612"
    },
    {
      "channel": 4,
      "note": 50,
      "start": 37.3386,
      "duration": 0.016,
      "velocity": 100,
      "chip": "ym2612"
    },
    {
      "channel": 1,
      "note": 72,
      "start": 37.3482,
      "duration": 0.0161,
      "velocity": 127,
      "chip": "ym2612"
    },
    {
      "channel": 0,
      "note": 40,
      "start": 37.35,
      "duration": 0.0161,
      "velocity": 115,
      "chip": "ym2612"
    },
    {
      "channel": 5,
      "note": 83,
      "start": 37.3511,
      "duration": 0.0161,
      "velocity": 89,
      "chip": "ym2612"
    },
    {
      "channel": 3,
      "note": 83,
      "start": 37.3523,
      "duration": 0.0161,
      "velocity": 89,
      "chip": "ym2612"
    },
    {
      "channel": 2,
      "note": 76,
      "start": 37.3534,
      "duration": 0.0161,
      "velocity": 105,
      "chip": "ym2612"
    },
    {
      "channel": 4,
      "note": 50,
      "start": 37.3546,
      "duration": 0.0161,
      "velocity": 100,
      "chip": "ym2612"
    },
    {
      "channel": 1,
      "note": 72,
      "start": 37.3643,
      "duration": 0.0161,
      "velocity": 127,
      "chip": "ym2612"
    },
    {
      "channel": 0,
      "note": 41,
      "start": 37.3661,
      "duration": 0.0161,
      "velocity": 115,
      "chip": "ym2612"
    },
    {
      "channel": 5,
      "note": 83,
      "start": 37.3672,
      "duration": 0.0161,
      "velocity": 89,
      "chip": "ym2612"
    },
    {
      "channel": 3,
      "note": 83,
      "start": 37.3684,
      "duration": 0.0161,
      "velocity": 89,
      "chip": "ym2612"
    },
    {
      "channel": 4,
      "note": 50,
      "start": 37.3707,
      "duration": 0.0161,
      "velocity": 100,
      "chip": "ym2612"
    },
    {
      "channel": 1,
      "note": 72,
      "start": 37.3804,
      "duration": 0.0161,
      "velocity": 127,
      "chip": "ym2612"
    },
    {
      "channel": 0,
      "note": 41,
      "start": 37.3821,
      "duration": 0.0161,
      "velocity": 115,
      "chip": "ym2612"
    },
    {
      "channel": 5,
      "note": 83,
      "start": 37.3833,
      "duration": 0.0161,
      "velocity": 89,
      "chip": "ym2612"
    },
    {
      "channel": 3,
      "note": 83,
      "start": 37.3845,
      "duration": 0.0161,
      "velocity": 89,
      "chip": "ym2612"
    },
    {
      "channel": 4,
      "note": 50,
      "start": 37.3868,
      "duration": 0.0161,
      "velocity": 100,
      "chip": "ym2612"
    },
    {
      "channel": 1,
      "note": 72,
      "start": 37.3966,
      "duration": 0.0179,
      "velocity": 127,
      "chip": "ym2612"
    },
    {
      "channel": 0,
      "note": 42,
      "start": 37.3982,
      "duration": 0.0198,
      "velocity": 115,
      "chip": "ym2612"
    },
    {
      "channel": 5,
      "note": 83,
      "start": 37.3994,
      "duration": 0.0198,
      "velocity": 89,
      "chip": "ym2612"
    },
    {
      "channel": 3,
      "note": 83,
      "start": 37.4006,
      "duration": 0.0198,
      "velocity": 89,
      "chip": "ym2612"
    },
    {
      "channel": 4,
      "note": 50,
      "start": 37.4029,
      "duration": 0.0205,
      "velocity": 100,
      "chip": "ym2612"
    },
    {
      "channel": 1,
      "note": 72,
      "start": 37.4145,
      "duration": 0.0146,
      "velocity": 127,
      "chip": "ym2612"
    },
    {
      "channel": 0,
      "note": 36,
      "start": 37.4181,
      "duration": 0.0129,
      "velocity": 115,
      "chip": "ym2612"
    },
    {
      "channel": 5,
      "note": 83,
      "start": 37.4192,
      "duration": 0.0129,
      "velocity": 89,
      "chip": "ym2612"
    },
    {
      "channel": 3,
      "note": 83,
      "start": 37.4204,
      "duration": 0.0129,
      "velocity": 89,
      "chip": "ym2612"
    },
    {
      "channel": 2,
      "note": 76,
      "start": 37.422,
      "duration": 0.0125,
      "velocity": 105,
      "chip": "ym2612"
    },
    {
      "channel": 4,
      "note": 55,
      "start": 37.4234,
      "duration": 0.0124,
      "velocity": 100,
      "chip": "ym2612"
    },
    {
      "channel": 1,
      "note": 72,
      "start": 37.4292,
      "duration": 0.0163,
      "velocity": 127,
      "chip": "ym2612"
    },
    {
      "channel": 0,
      "note": 36,
      "start": 37.4309,
      "duration": 0.0162,
      "velocity": 115,
      "chip": "ym2612"
    },
    {
      "channel": 5,
      "note": 83,
      "start": 37.4321,
      "duration": 0.0162,
      "velocity": 89,
      "chip": "ym2612"
    },
    {
      "channel": 3,
      "note": 83,
      "start": 37.4333,
      "duration": 0.0162,
      "velocity": 89,
      "chip": "ym2612"
    },
    {
      "channel": 2,
      "note": 76,
      "start": 37.4345,
      "duration": 0.0162,
      "velocity": 105,
      "chip": "ym2612"
    },
    {
      "channel": 4,
      "note": 55,
      "start": 37.4357,
      "duration": 0.0161,
      "velocity": 100,
      "chip": "ym2612"
    },
    {
      "channel": 1,
      "note": 72,
      "start": 37.4454,
      "duration": 0.016,
      "velocity": 127,
      "chip": "ym2612"
    },
    {
      "channel": 0,
      "note": 37,
      "start": 37.4471,
      "duration": 0.0161,
      "velocity": 115,
      "chip": "ym2612"
    },
    {
      "channel": 5,
      "note": 83,
      "start": 37.4483,
      "duration": 0.0161,
      "velocity": 89,
      "chip": "ym2612"
    },
    {
      "channel": 3,
      "note": 83,
      "start": 37.4495,
      "duration": 0.0161,
      "velocity": 89,
      "chip": "ym2612"
    },
    {
      "channel": 2,
      "note": 76,
      "start": 37.4507,
      "duration": 0.0161,
      "velocity": 105,
      "chip": "ym2612"
    },
    {
      "channel": 4,
      "note": 55,
      "start": 37.4518,
      "duration": 0.0161,
      "velocity": 100,
      "chip": "ym2612"
    },
    {
      "channel": 1,
      "note": 72,
      "start": 37.4615,
      "duration": 0.0158,
      "velocity": 127,
      "chip": "ym2612"
    },
    {
      "channel": 0,
      "note": 37,
      "start": 37.4632,
      "duration": 0.0161,
      "velocity": 115,
      "chip": "ym2612"
    },
    {
      "channel": 5,
      "note": 83,
      "start": 37.4644,
      "duration": 0.0161,
      "velocity": 89,
      "chip": "ym2612"
    },
    {
      "channel": 3,
      "note": 83,
      "start": 37.4656,
      "duration": 0.0161,
      "velocity": 89,
      "chip": "ym2612"
    },
    {
      "channel": 2,
      "note": 76,
      "start": 37.4668,
      "duration": 0.0161,
      "velocity": 105,
      "chip": "ym2612"
    },
    {
      "channel": 4,
      "note": 55,
      "start": 37.4679,
      "duration": 0.0161,
      "velocity": 100,
      "chip": "ym2612"
    },
    {
      "channel": 1,
      "note": 72,
      "start": 37.4772,
      "duration": 0.0159,
      "velocity": 127,
      "chip": "ym2612"
    },
    {
      "channel": 0,
      "note": 38,
      "start": 37.4793,
      "duration": 0.0162,
      "velocity": 115,
      "chip": "ym2612"
    },
    {
      "channel": 5,
      "note": 83,
      "start": 37.4805,
      "duration": 0.0161,
      "velocity": 89,
      "chip": "ym2612"
    },
    {
      "channel": 3,
      "note": 83,
      "start": 37.4817,
      "duration": 0.0161,
      "velocity": 89,
      "chip": "ym2612"
    },
    {
      "channel": 2,
      "note": 76,
      "start": 37.4828,
      "duration": 0.0161,
      "velocity": 105,
      "chip": "ym2612"
    },
    {
      "channel": 4,
      "note": 55,
      "start": 37.484,
      "duration": 0.0161,
      "velocity": 100,
      "chip": "ym2612"
    },
    {
      "channel": 1,
      "note": 72,
      "start": 37.4932,
      "duration": 0.0161,
      "velocity": 127,
      "chip": "ym2612"
    },
    {
      "channel": 0,
      "note": 38,
      "start": 37.4955,
      "duration": 0.016,
      "velocity": 115,
      "chip": "ym2612"
    },
    {
      "channel": 5,
      "note": 83,
      "start": 37.4966,
      "duration": 0.0161,
      "velocity": 89,
      "chip": "ym2612"
    },
    {
      "channel": 3,
      "note": 83,
      "start": 37.4978,
      "duration": 0.0161,
      "velocity": 89,
      "chip": "ym2612"
    },
    {
      "channel": 2,
      "note": 76,
      "start": 37.4989,
      "duration": 0.0161,
      "velocity": 105,
      "chip": "ym2612"
    },
    {
      "channel": 4,
      "note": 55,
      "start": 37.5001,
      "duration": 0.0161,
      "velocity": 100,
      "chip": "ym2612"
    },
    {
      "channel": 1,
      "note": 72,
      "start": 37.5093,
      "duration": 0.0161,
      "velocity": 127,
      "chip": "ym2612"
    },
    {
      "channel": 0,
      "note": 39,
      "start": 37.5115,
      "duration": 0.0158,
      "velocity": 115,
      "chip": "ym2612"
    },
    {
      "channel": 5,
      "note": 83,
      "start": 37.5127,
      "duration": 0.0161,
      "velocity": 89,
      "chip": "ym2612"
    },
    {
      "channel": 3,
      "note": 83,
      "start": 37.5139,
      "duration": 0.0161,
      "velocity": 89,
      "chip": "ym2612"
    },
    {
      "channel": 2,
      "note": 76,
      "start": 37.515,
      "duration": 0.0161,
      "velocity": 105,
      "chip": "ym2612"
    },
    {
      "channel": 4,
      "note": 55,
      "start": 37.5162,
      "duration": 0.0162,
      "velocity": 100,
      "chip": "ym2612"
    },
    {
      "channel": 1,
      "note": 72,
      "start": 37.5254,
      "duration": 0.0161,
      "velocity": 127,
      "chip": "ym2612"
    },
    {
      "channel": 0,
      "note": 39,
      "start": 37.5273,
      "duration": 0.0159,
      "velocity": 115,
      "chip": "ym2612"
    },
    {
      "channel": 5,
      "note": 83,
      "start": 37.5288,
      "duration": 0.016,
      "velocity": 89,
      "chip": "ym2612"
    },
    {
      "channel": 3,
      "note": 83,
      "start": 37.53,
      "duration": 0.0161,
      "velocity": 89,
      "chip": "ym2612"
    },
    {
      "channel": 2,
      "note": 76,
      "start": 37.5311,
      "duration": 0.0161,
      "velocity": 105,
      "chip": "ym2612"
    },
    {
      "channel": 4,
      "note": 55,
      "start": 37.5324,
      "duration": 0.016,
      "velocity": 100,
      "chip": "ym2612"
    },
    {
      "channel": 1,
      "note": 72,
      "start": 37.5415,
      "duration": 0.0161,
      "velocity": 127,
      "chip": "ym2612"
    },
    {
      "channel": 0,
      "note": 40,
      "start": 37.5432,
      "duration": 0.0161,
      "velocity": 115,
      "chip": "ym2612"
    },
    {
      "channel": 5,
      "note": 83,
      "start": 37.5449,
      "duration": 0.0158,
      "velocity": 89,
      "chip": "ym2612"
    },
    {
      "channel": 3,
      "note": 83,
      "start": 37.5461,
      "duration": 0.0161,
      "velocity": 89,
      "chip": "ym2612"
    },
    {
      "channel": 2,
      "note": 76,
      "start": 37.5472,
      "duration": 0.0161,
      "velocity": 105,
      "chip": "ym2612"
    },
    {
      "channel": 4,
      "note": 55,
      "start": 37.5484,
      "duration": 0.0161,
      "velocity": 100,
      "chip": "ym2612"
    },
    {
      "channel": 1,
      "note": 72,
      "start": 37.5576,
      "duration": 0.0161,
      "velocity": 127,
      "chip": "ym2612"
    },
    {
      "channel": 0,
      "note": 40,
      "start": 37.5593,
      "duration": 0.0161,
      "velocity": 115,
      "chip": "ym2612"
    },
    {
      "channel": 5,
      "note": 83,
      "start": 37.5606,
      "duration": 0.0159,
      "velocity": 89,
      "chip": "ym2612"
    },
    {
      "channel": 3,
      "note": 83,
      "start": 37.5622,
      "duration": 0.016,
      "velocity": 89,
      "chip": "ym2612"
    },
    {
      "channel": 2,
      "note": 76,
      "start": 37.5633,
      "duration": 0.0162,
      "velocity": 105,
      "chip": "ym2612"
    },
    {
      "channel": 4,
      "note": 55,
      "start": 37.5646,
      "duration": 0.016,
      "velocity": 100,
      "chip": "ym2612"
    },
    {
      "channel": 1,
      "note": 72,
      "start": 37.5737,
      "duration": 0.0161,
      "velocity": 127,
      "chip": "ym2612"
    },
    {
      "channel": 0,
      "note": 40,
      "start": 37.5754,
      "duration": 0.0161,
      "velocity": 115,
      "chip": "ym2612"
    },
    {
      "channel": 5,
      "note": 83,
      "start": 37.5766,
      "duration": 0.0161,
      "velocity": 89,
      "chip": "ym2612"
    },
    {
      "channel": 3,
      "note": 83,
      "start": 37.5782,
      "duration": 0.0161,
      "velocity": 89,
      "chip": "ym2612"
    },
    {
      "channel": 2,
      "note": 76,
      "start": 37.5795,
      "duration": 0.0161,
      "velocity": 105,
      "chip": "ym2612"
    },
    {
      "channel": 4,
      "note": 55,
      "start": 37.5806,
      "duration": 0.0161,
      "velocity": 100,
      "chip": "ym2612"
    },
    {
      "channel": 1,
      "note": 72,
      "start": 37.5898,
      "duration": 0.0161,
      "velocity": 127,
      "chip": "ym2612"
    },
    {
      "channel": 0,
      "note": 41,
      "start": 37.5915,
      "duration": 0.0161,
      "velocity": 115,
      "chip": "ym2612"
    },
    {
      "channel": 5,
      "note": 83,
      "start": 37.5926,
      "duration": 0.0161,
      "velocity": 89,
      "chip": "ym2612"
    },
    {
      "channel": 3,
      "note": 83,
      "start": 37.5943,
      "duration": 0.0156,
      "velocity": 89,
      "chip": "ym2612"
    },
    {
      "channel": 4,
      "note": 55,
      "start": 37.5967,
      "duration": 0.0161,
      "velocity": 100,
      "chip": "ym2612"
    },
    {
      "channel": 1,
      "note": 72,
      "start": 37.6059,
      "duration": 0.0161,
      "velocity": 127,
      "chip": "ym2612"
    },
    {
      "channel": 0,
      "note": 41,
      "start": 37.6076,
      "duration": 0.0161,
      "velocity": 115,
      "chip": "ym2612"
    },
    {
      "channel": 5,
      "note": 83,
      "start": 37.6087,
      "duration": 0.0161,
      "velocity": 89,
      "chip": "ym2612"
    },
    {
      "channel": 3,
      "note": 83,
      "start": 37.6099,
      "duration": 0.0161,
      "velocity": 89,
      "chip": "ym2612"
    },
    {
      "channel": 4,
      "note": 55,
      "start": 37.6128,
      "duration": 0.0161,
      "velocity": 100,
      "chip": "ym2612"
    },
    {
      "channel": 1,
      "note": 72,
      "start": 37.622,
      "duration": 0.0179,
      "velocity": 127,
      "chip": "ym2612"
    },
    {
      "channel": 0,
      "note": 42,
      "start": 37.6237,
      "duration": 0.0197,
      "velocity": 124,
      "chip": "ym2612"
    },
    {
      "channel": 5,
      "note": 83,
      "start": 37.6248,
      "duration": 0.0204,
      "velocity": 89,
      "chip": "ym2612"
    },
    {
      "channel": 3,
      "note": 83,
      "start": 37.626,
      "duration": 0.0204,
      "velocity": 89,
      "chip": "ym2612"
    },
    {
      "channel": 4,
      "note": 55,
      "start": 37.6289,
      "duration": 0.0204,
      "velocity": 100,
      "chip": "ym2612"
    },
    {
      "channel": 1,
      "note": 79,
      "start": 37.6399,
      "duration": 0.0143,
      "velocity": 127,
      "chip": "ym2612"
    },
    {
      "channel": 0,
      "note": 84,
      "start": 37.6437,
      "duration": 0.0123,
      "velocity": 124,
      "chip": "ym2612"
    },
    {
      "channel": 5,
      "note": 83,
      "start": 37.6452,
      "duration": 0.012,
      "velocity": 89,
      "chip": "ym2612"
    },
    {
      "channel": 3,
      "note": 83,
      "start": 37.6464,
      "duration": 0.012,
      "velocity": 89,
      "chip": "ym2612"
    },
    {
      "channel": 2,
      "note": 76,
      "start": 37.6478,
      "duration": 0.0117,
      "velocity": 105,
      "chip": "ym2612"
    },
    {
      "channel": 4,
      "note": 50,
      "start": 37.6493,
      "duration": 0.012,
      "velocity": 100,
      "chip": "ym2612"
    },
    {
      "channel": 1,
      "note": 79,
      "start": 37.6542,
      "duration": 0.016,
      "velocity": 127,
      "chip": "ym2612"
    },
    {
      "channel": 0,
      "note": 82,
      "start": 37.656,
      "duration": 0.016,
      "velocity": 124,
      "chip": "ym2612"
    },
    {
      "channel": 5,
      "note": 83,
      "start": 37.6571,
      "duration": 0.016,
      "velocity": 89,
      "chip": "ym2612"
    },
    {
      "channel": 3,
      "note": 83,
      "start": 37.6583,
      "duration": 0.016,
      "velocity": 89,
      "chip": "ym2612"
    },
    {
      "channel": 2,
      "note": 76,
      "start": 37.6596,
      "duration": 0.0159,
      "velocity": 105,
      "chip": "ym2612"
    },
    {
      "channel": 4,
      "note": 50,
      "start": 37.6613,
      "duration": 0.0153,
      "velocity": 100,
      "chip": "ym2612"
    },
    {
      "channel": 1,
      "note": 79,
      "start": 37.6702,
      "duration": 0.0161,
      "velocity": 127,
      "chip": "ym2612"
    },
    {
      "channel": 0,
      "note": 80,
      "start": 37.672,
      "duration": 0.0161,
      "velocity": 124,
      "chip": "ym2612"
    },
    {
      "channel": 5,
      "note": 83,
      "start": 37.6731,
      "duration": 0.0162,
      "velocity": 89,
      "chip": "ym2612"
    },
    {
      "channel": 3,
      "note": 83,
      "start": 37.6743,
      "duration": 0.0161,
      "velocity": 89,
      "chip": "ym2612"
    },
    {
      "channel": 2,
      "note": 76,
      "start": 37.6755,
      "duration": 0.0161,
      "velocity": 105,
      "chip": "ym2612"
    },
    {
      "channel": 4,
      "note": 50,
      "start": 37.6766,
      "duration": 0.0161,
      "velocity": 100,
      "chip": "ym2612"
    },
    {
      "channel": 1,
      "note": 79,
      "start": 37.6864,
      "duration": 0.0161,
      "velocity": 127,
      "chip": "ym2612"
    },
    {
      "channel": 0,
      "note": 77,
      "start": 37.6881,
      "duration": 0.0161,
      "velocity": 124,
      "chip": "ym2612"
    },
    {
      "channel": 5,
      "note": 83,
      "start": 37.6893,
      "duration": 0.0161,
      "velocity": 89,
      "chip": "ym2612"
    },
    {
      "channel": 3,
      "note": 83,
      "start": 37.6904,
      "duration": 0.0161,
      "velocity": 89,
      "chip": "ym2612"
    },
    {
      "channel": 2,
      "note": 76,
      "start": 37.6916,
      "duration": 0.0161,
      "velocity": 105,
      "chip": "ym2612"
    },
    {
      "channel": 4,
      "note": 50,
      "start": 37.6927,
      "duration": 0.0162,
      "velocity": 100,
      "chip": "ym2612"
    },
    {
      "channel": 1,
      "note": 79,
      "start": 37.7025,
      "duration": 0.0161,
      "velocity": 127,
      "chip": "ym2612"
    },
    {
      "channel": 0,
      "note": 75,
      "start": 37.7042,
      "duration": 0.0161,
      "velocity": 124,
      "chip": "ym2612"
    },
    {
      "channel": 5,
      "note": 83,
      "start": 37.7054,
      "duration": 0.0161,
      "velocity": 89,
      "chip": "ym2612"
    },
    {
      "channel": 3,
      "note": 83,
      "start": 37.7065,
      "duration": 0.0161,
      "velocity": 89,
      "chip": "ym2612"
    },
    {
      "channel": 4,
      "note": 50,
      "start": 37.7089,
      "duration": 0.016,
      "velocity": 100,
      "chip": "ym2612"
    },
    {
      "channel": 1,
      "note": 79,
      "start": 37.7186,
      "duration": 0.0161,
      "velocity": 127,
      "chip": "ym2612"
    },
    {
      "channel": 0,
      "note": 72,
      "start": 37.7203,
      "duration": 0.0161,
      "velocity": 124,
      "chip": "ym2612"
    },
    {
      "channel": 5,
      "note": 83,
      "start": 37.7215,
      "duration": 0.0161,
      "velocity": 89,
      "chip": "ym2612"
    },
    {
      "channel": 3,
      "note": 83,
      "start": 37.7226,
      "duration": 0.0161,
      "velocity": 89,
      "chip": "ym2612"
    },
    {
      "channel": 4,
      "note": 50,
      "start": 37.7249,
      "duration": 0.0161,
      "velocity": 100,
      "chip": "ym2612"
    },
    {
      "channel": 1,
      "note": 79,
      "start": 37.7347,
      "duration": 0.0161,
      "velocity": 127,
      "chip": "ym2612"
    },
    {
      "channel": 0,
      "note": 70,
      "start": 37.7364,
      "duration": 0.0161,
      "velocity": 124,
      "chip": "ym2612"
    },
    {
      "channel": 5,
      "note": 83,
      "start": 37.7376,
      "duration": 0.0161,
      "velocity": 89,
      "chip": "ym2612"
    },
    {
      "channel": 3,
      "note": 83,
      "start": 37.7387,
      "duration": 0.0161,
      "velocity": 89,
      "chip": "ym2612"
    },
    {
      "channel": 4,
      "note": 50,
      "start": 37.741,
      "duration": 0.0164,
      "velocity": 100,
      "chip": "ym2612"
    },
    {
      "channel": 1,
      "note": 79,
      "start": 37.7508,
      "duration": 0.0161,
      "velocity": 127,
      "chip": "ym2612"
    },
    {
      "channel": 0,
      "note": 68,
      "start": 37.7525,
      "duration": 0.0161,
      "velocity": 124,
      "chip": "ym2612"
    },
    {
      "channel": 5,
      "note": 83,
      "start": 37.7537,
      "duration": 0.0161,
      "velocity": 89,
      "chip": "ym2612"
    },
    {
      "channel": 3,
      "note": 83,
      "start": 37.7548,
      "duration": 0.0161,
      "velocity": 89,
      "chip": "ym2612"
    },
    {
      "channel": 2,
      "note": 76,
      "start": 37.7563,
      "duration": 0.0159,
      "velocity": 105,
      "chip": "ym2612"
    },
    {
      "channel": 4,
      "note": 50,
      "start": 37.7575,
      "duration": 0.0159,
      "velocity": 100,
      "chip": "ym2612"
    },
    {
      "channel": 1,
      "note": 79,
      "start": 37.7669,
      "duration": 0.0161,
      "velocity": 127,
      "chip": "ym2612"
    },
    {
      "channel": 0,
      "note": 65,
      "start": 37.7686,
      "duration": 0.0161,
      "velocity": 124,
      "chip": "ym2612"
    },
    {
      "channel": 5,
      "note": 83,
      "start": 37.7697,
      "duration": 0.0161,
      "velocity": 89,
      "chip": "ym2612"
    },
    {
      "channel": 3,
      "note": 83,
      "start": 37.7709,
      "duration": 0.0161,
      "velocity": 89,
      "chip": "ym2612"
    },
    {
      "channel": 2,
      "note": 76,
      "start": 37.7722,
      "duration": 0.016,
      "velocity": 105,
      "chip": "ym2612"
    },
    {
      "channel": 4,
      "note": 50,
      "start": 37.7734,
      "duration": 0.016,
      "velocity": 100,
      "chip": "ym2612"
    },
    {
      "channel": 1,
      "note": 79,
      "start": 37.783,
      "duration": 0.0161,
      "velocity": 127,
      "chip": "ym2612"
    },
    {
      "channel": 0,
      "note": 63,
      "start": 37.7847,
      "duration": 0.0153,
      "velocity": 1,
      "chip": "ym2612"
    },
    {
      "channel": 5,
      "note": 83,
      "start": 37.7858,
      "duration": 0.0153,
      "velocity": 89,
      "chip": "ym2612"
    },
    {
      "channel": 3,
      "note": 83,
      "start": 37.787,
      "duration": 0.0153,
      "velocity": 89,
      "chip": "ym2612"
    },
    {
      "channel": 2,
      "note": 76,
      "start": 37.7882,
      "duration": 0.0153,
      "velocity": 105,
      "chip": "ym2612"
    },
    {
      "channel": 4,
      "note": 50,
      "start": 37.7894,
      "duration": 0.0152,
      "velocity": 100,
      "chip": "ym2612"
    },
    {
      "channel": 1,
      "note": 79,
      "start": 37.7991,
      "duration": 0.0161,
      "velocity": 127,
      "chip": "ym2612"
    },
    {
      "channel": 5,
      "note": 83,
      "start": 37.8011,
      "duration": 0.0153,
      "velocity": 89,
      "chip": "ym2612"
    },
    {
      "channel": 3,
      "note": 83,
      "start": 37.8023,
      "duration": 0.0152,
      "velocity": 89,
      "chip": "ym2612"
    },
    {
      "channel": 2,
      "note": 76,
      "start": 37.8034,
      "duration": 0.0153,
      "velocity": 105,
      "chip": "ym2612"
    },
    {
      "channel": 4,
      "note": 50,
      "start": 37.8046,
      "duration": 0.0153,
      "velocity": 100,
      "chip": "ym2612"
    },
    {
      "channel": 1,
      "note": 79,
      "start": 37.8151,
      "duration": 0.0162,
      "velocity": 127,
      "chip": "ym2612"
    },
    {
      "channel": 5,
      "note": 83,
      "start": 37.8164,
      "duration": 0.0161,
      "velocity": 89,
      "chip": "ym2612"
    },
    {
      "channel": 3,
      "note": 83,
      "start": 37.8175,
      "duration": 0.0162,
      "velocity": 89,
      "chip": "ym2612"
    },
    {
      "channel": 4,
      "note": 50,
      "start": 37.8199,
      "duration": 0.0161,
      "velocity": 100,
      "chip": "ym2612"
    },
    {
      "channel": 1,
      "note": 79,
      "start": 37.8313,
      "duration": 0.0161,
      "velocity": 127,
      "chip": "ym2612"
    },
    {
      "channel": 5,
      "note": 83,
      "start": 37.8324,
      "duration": 0.0161,
      "velocity": 89,
      "chip": "ym2612"
    },
    {
      "channel": 3,
      "note": 83,
      "start": 37.8337,
      "duration": 0.0161,
      "velocity": 89,
      "chip": "ym2612"
    },
    {
      "channel": 4,
      "note": 50,
      "start": 37.836,
      "duration": 0.0161,
      "velocity": 100,
      "chip": "ym2612"
    },
    {
      "channel": 1,
      "note": 79,
      "start": 37.8474,
      "duration": 0.0178,
      "velocity": 127,
      "chip": "ym2612"
    },
    {
      "channel": 5,
      "note": 83,
      "start": 37.8485,
      "duration": 0.0215,
      "velocity": 89,
      "chip": "ym2612"
    },
    {
      "channel": 3,
      "note": 83,
      "start": 37.8498,
      "duration": 0.0216,
      "velocity": 89,
      "chip": "ym2612"
    },
    {
      "channel": 4,
      "note": 50,
      "start": 37.852,
      "duration": 0.0225,
      "velocity": 100,
      "chip": "ym2612"
    },
    {
      "channel": 1,
      "note": 79,
      "start": 37.8653,
      "duration": 0.0144,
      "velocity": 127,
      "chip": "ym2612"
    },
    {
      "channel": 0,
      "note": 36,
      "start": 37.8688,
      "duration": 0.0127,
      "velocity": 115,
      "chip": "ym2612"
    },
    {
      "channel": 5,
      "note": 83,
      "start": 37.87,
      "duration": 0.0127,
      "velocity": 89,
      "chip": "ym2612"
    },
    {
      "channel": 3,
      "note": 85,
      "start": 37.8715,
      "duration": 0.0126,
      "velocity": 89,
      "chip": "ym2612"
    },
    {
      "channel": 2,
      "note": 76,
      "start": 37.873,
      "duration": 0.0123,
      "velocity": 105,
      "chip": "ym2612"
    },
    {
      "channel": 4,
      "note": 57,
      "start": 37.8746,
      "duration": 0.012,
      "velocity": 100,
      "chip": "ym2612"
    },
    {
      "channel": 1,
      "note": 79,
      "start": 37.8797,
      "duration": 0.0161,
      "velocity": 127,
      "chip": "ym2612"
    },
    {
      "channel": 0,
      "note": 36,
      "start": 37.8815,
      "duration": 0.016,
      "velocity": 115,
      "chip": "ym2612"
    },
    {
      "channel": 5,
      "note": 83,
      "start": 37.8827,
      "duration": 0.016,
      "velocity": 89,
      "chip": "ym2612"
    },
    {
      "channel": 3,
      "note": 83,
      "start": 37.8841,
      "duration": 0.016,
      "velocity": 89,
      "chip": "ym2612"
    },
    {
      "channel": 2,
      "note": 76,
      "start": 37.8853,
      "duration": 0.016,
      "velocity": 105,
      "chip": "ym2612"
    },
    {
      "channel": 4,
      "note": 57,
      "start": 37.8865,
      "duration": 0.016,
      "velocity": 100,
      "chip": "ym2612"
    },
    {
      "channel": 1,
      "note": 79,
      "start": 37.8958,
      "duration": 0.0163,
      "velocity": 127,
      "chip": "ym2612"
    },
    {
      "channel": 0,
      "note": 37,
      "start": 37.8975,
      "duration": 0.0164,
      "velocity": 115,
      "chip": "ym2612"
    },
    {
      "channel": 5,
      "note": 83,
      "start": 37.8987,
      "duration": 0.0163,
      "velocity": 89,
      "chip": "ym2612"
    },
    {
      "channel": 3,
      "note": 85,
      "start": 37.9002,
      "duration": 0.0162,
      "velocity": 89,
      "chip": "ym2612"
    },
    {
      "channel": 2,
      "note": 76,
      "start": 37.9014,
      "duration": 0.0163,
      "velocity": 105,
      "chip": "ym2612"
    },
    {
      "channel": 4,
      "note": 57,
      "start": 37.9025,
      "duration": 0.0163,
      "velocity": 100,
      "chip": "ym2612"
    },
    {
      "channel": 1,
      "note": 79,
      "start": 37.9122,
      "duration": 0.0163,
      "velocity": 127,
      "chip": "ym2612"
    },
    {
      "channel": 0,
      "note": 37,
      "start": 37.9139,
      "duration": 0.0163,
      "velocity": 115,
      "chip": "ym2612"
    },
    {
      "channel": 5,
      "note": 83,
      "start": 37.915,
      "duration": 0.0163,
      "velocity": 89,
      "chip": "ym2612"
    },
    {
      "channel": 3,
      "note": 83,
      "start": 37.9165,
      "duration": 0.0163,
      "velocity": 89,
      "chip": "ym2612"
    },
    {
      "channel": 2,
      "note": 76,
      "start": 37.9176,
      "duration": 0.0164,
      "velocity": 105,
      "chip": "ym2612"
    },
    {
      "channel": 4,
      "note": 57,
      "start": 37.9188,
      "duration": 0.0164,
      "velocity": 100,
      "chip": "ym2612"
    },
    {
      "channel": 1,
      "note": 79,
      "start": 37.9285,
      "duration": 0.016,
      "velocity": 127,
      "chip": "ym2612"
    },
    {
      "channel": 0,
      "note": 38,
      "start": 37.9302,
      "duration": 0.0161,
      "velocity": 115,
      "chip": "ym2612"
    },
    {
      "channel": 5,
      "note": 83,
      "start": 37.9314,
      "duration": 0.0161,
      "velocity": 89,
      "chip": "ym2612"
    },
    {
      "channel": 3,
      "note": 85,
      "start": 37.9329,
      "duration": 0.016,
      "velocity": 89,
      "chip": "ym2612"
    },
    {
      "channel": 2,
      "note": 76,
      "start": 37.9341,
      "duration": 0.016,
      "velocity": 105,
      "chip": "ym2612"
    },
    {
      "channel": 4,
      "note": 57,
      "start": 37.9352,
      "duration": 0.016,
      "velocity": 100,
      "chip": "ym2612"
    },
    {
      "channel": 1,
      "note": 79,
      "start": 37.9445,
      "duration": 0.0158,
      "velocity": 127,
      "chip": "ym2612"
    },
    {
      "channel": 0,
      "note": 38,
      "start": 37.9463,
      "duration": 0.0162,
      "velocity": 115,
      "chip": "ym2612"
    },
    {
      "channel": 5,
      "note": 83,
      "start": 37.9475,
      "duration": 0.0161,
      "velocity": 89,
      "chip": "ym2612"
    },
    {
      "channel": 3,
      "note": 83,
      "start": 37.9489,
      "duration": 0.0161,
      "velocity": 89,
      "chip": "ym2612"
    },
    {
      "channel": 2,
      "note": 76,
      "start": 37.9501,
      "duration": 0.0161,
      "velocity": 105,
      "chip": "ym2612"
    },
    {
      "channel": 4,
      "note": 57,
      "start": 37.9512,
      "duration": 0.0162,
      "velocity": 100,
      "chip": "ym2612"
    },
    {
      "channel": 1,
      "note": 79,
      "start": 37.9603,
      "duration": 0.0159,
      "velocity": 127,
      "chip": "ym2612"
    },
    {
      "channel": 0,
      "note": 39,
      "start": 37.9624,
      "duration": 0.0161,
      "velocity": 115,
      "chip": "ym2612"
    },
    {
      "channel": 5,
      "note": 83,
      "start": 37.9636,
      "duration": 0.0161,
      "velocity": 89,
      "chip": "ym2612"
    },
    {
      "channel": 3,
      "note": 85,
      "start": 37.9651,
      "duration": 0.016,
      "velocity": 89,
      "chip": "ym2612"
    },
    {
      "channel": 2,
      "note": 76,
      "start": 37.9662,
      "duration": 0.016,
      "velocity": 105,
      "chip": "ym2612"
    },
    {
      "channel": 4,
      "note": 57,
      "start": 37.9674,
      "duration": 0.016,
      "velocity": 100,
      "chip": "ym2612"
    },
    {
      "channel": 1,
      "note": 79,
      "start": 37.9762,
      "duration": 0.0161,
      "velocity": 127,
      "chip": "ym2612"
    },
    {
      "channel": 0,
      "note": 39,
      "start": 37.9785,
      "duration": 0.016,
      "velocity": 115,
      "chip": "ym2612"
    },
    {
      "channel": 5,
      "note": 83,
      "start": 37.9797,
      "duration": 0.0161,
      "velocity": 89,
      "chip": "ym2612"
    },
    {
      "channel": 3,
      "note": 83,
      "start": 37.9811,
      "duration": 0.0161,
      "velocity": 89,
      "chip": "ym2612"
    },
    {
      "channel": 2,
      "note": 76,
      "start": 37.9823,
      "duration": 0.0162,
      "velocity": 105,
      "chip": "ym2612"
    },
    {
      "channel": 4,
      "note": 57,
      "start": 37.9834,
      "duration": 0.0161,
      "velocity": 100,
      "chip": "ym2612"
    },
    {
      "channel": 1,
      "note": 79,
      "start": 37.9923,
      "duration": 0.0161,
      "velocity": 127,
      "chip": "ym2612"
    },
    {
      "channel": 0,
      "note": 40,
      "start": 37.9945,
      "duration": 0.0155,
      "velocity": 115,
      "chip": "ym2612"
    },
    {
      "channel": 5,
      "note": 83,
      "start": 37.9958,
      "duration": 0.0161,
      "velocity": 89,
      "chip": "ym2612"
    },
    {
      "channel": 3,
      "note": 85,
      "start": 37.9973,
      "duration": 0.016,
      "velocity": 89,
      "chip": "ym2612"
    },
    {
      "channel": 2,
      "note": 76,
      "start": 37.9984,
      "duration": 0.016,
      "velocity": 105,
      "chip": "ym2612"
    },
    {
      "channel": 4,
      "note": 57,
      "start": 37.9996,
      "duration": 0.016,
      "velocity": 100,
      "chip": "ym2612"
    },
    {
      "channel": 1,
      "note": 79,
      "start": 38.0084,
      "duration": 0.0161,
      "velocity": 127,
      "chip": "ym2612"
    },
    {
      "channel": 0,
      "note": 40,
      "start": 38.0101,
      "duration": 0.0162,
      "velocity": 115,
      "chip": "ym2612"
    },
    {
      "channel": 5,
      "note": 83,
      "start": 38.0119,
      "duration": 0.016,
      "velocity": 89,
      "chip": "ym2612"
    },
    {
      "channel": 3,
      "note": 83,
      "start": 38.0133,
      "duration": 0.0161,
      "velocity": 89,
      "chip": "ym2612"
    },
    {
      "channel": 2,
      "note": 76,
      "start": 38.0145,
      "duration": 0.0161,
      "velocity": 105,
      "chip": "ym2612"
    },
    {
      "channel": 4,
      "note": 57,
      "start": 38.0156,
      "duration": 0.0162,
      "velocity": 100,
      "chip": "ym2612"
    },
    {
      "channel": 1,
      "note": 79,
      "start": 38.0245,
      "duration": 0.0161,
      "velocity": 127,
      "chip": "ym2612"
    },
    {
      "channel": 0,
      "note": 40,
      "start": 38.0262,
      "duration": 0.0161,
      "velocity": 115,
      "chip": "ym2612"
    },
    {
      "channel": 5,
      "note": 83,
      "start": 38.0279,
      "duration": 0.0158,
      "velocity": 89,
      "chip": "ym2612"
    },
    {
      "channel": 3,
      "note": 85,
      "start": 38.0295,
      "duration": 0.016,
      "velocity": 89,
      "chip": "ym2612"
    },
    {
      "channel": 2,
      "note": 76,
      "start": 38.0306,
      "duration": 0.0161,
      "velocity": 105,
      "chip": "ym2612"
    },
    {
      "channel": 4,
      "note": 57,
      "start": 38.0318,
      "duration": 0.0161,
      "velocity": 100,
      "chip": "ym2612"
    },
    {
      "channel": 1,
      "note": 79,
      "start": 38.0406,
      "duration": 0.0161,
      "velocity": 127,
      "chip": "ym2612"
    },
    {
      "channel": 0,
      "note": 41,
      "start": 38.0423,
      "duration": 0.0161,
      "velocity": 115,
      "chip": "ym2612"
    },
    {
      "channel": 5,
      "note": 83,
      "start": 38.0437,
      "duration": 0.0162,
      "velocity": 89,
      "chip": "ym2612"
    },
    {
      "channel": 3,
      "note": 83,
      "start": 38.0455,
      "duration": 0.0164,
      "velocity": 89,
      "chip": "ym2612"
    },
    {
      "channel": 4,
      "note": 57,
      "start": 38.0478,
      "duration": 0.0164,
      "velocity": 100,
      "chip": "ym2612"
    },
    {
      "channel": 1,
      "note": 79,
      "start": 38.0567,
      "duration": 0.0161,
      "velocity": 127,
      "chip": "ym2612"
    },
    {
      "channel": 0,
      "note": 41,
      "start": 38.0584,
      "duration": 0.0161,
      "velocity": 115,
      "chip": "ym2612"
    },
    {
      "channel": 5,
      "note": 85,
      "start": 38.0599,
      "duration": 0.016,
      "velocity": 89,
      "chip": "ym2612"
    },
    {
      "channel": 3,
      "note": 85,
      "start": 38.062,
      "duration": 0.016,
      "velocity": 89,
      "chip": "ym2612"
    },
    {
      "channel": 4,
      "note": 57,
      "start": 38.0643,
      "duration": 0.0161,
      "velocity": 100,
      "chip": "ym2612"
    },
    {
      "channel": 1,
      "note": 79,
      "start": 38.0728,
      "duration": 0.0161,
      "velocity": 127,
      "chip": "ym2612"
    },
    {
      "channel": 0,
      "note": 42,
      "start": 38.0745,
      "duration": 0.0161,
      "velocity": 115,
      "chip": "ym2612"
    },
    {
      "channel": 5,
      "note": 83,
      "start": 38.076,
      "duration": 0.0161,
      "velocity": 89,
      "chip": "ym2612"
    },
    {
      "channel": 3,
      "note": 83,
      "start": 38.0779,
      "duration": 0.0159,
      "velocity": 89,
      "chip": "ym2612"
    },
    {
      "channel": 4,
      "note": 57,
      "start": 38.0804,
      "duration": 0.0165,
      "velocity": 100,
      "chip": "ym2612"
    },
    {
      "channel": 1,
      "note": 79,
      "start": 38.0889,
      "duration": 0.0161,
      "velocity": 127,
      "chip": "ym2612"
    },
    {
      "channel": 0,
      "note": 42,
      "start": 38.0906,
      "duration": 0.0161,
      "velocity": 115,
      "chip": "ym2612"
    },
    {
      "channel": 5,
      "note": 85,
      "start": 38.0921,
      "duration": 0.016,
      "velocity": 89,
      "chip": "ym2612"
    },
    {
      "channel": 3,
      "note": 85,
      "start": 38.0939,
      "duration": 0.0157,
      "velocity": 89,
      "chip": "ym2612"
    },
    {
      "channel": 2,
      "note": 76,
      "start": 38.0957,
      "duration": 0.0157,
      "velocity": 105,
      "chip": "ym2612"
    },
    {
      "channel": 4,
      "note": 57,
      "start": 38.0969,
      "duration": 0.0157,
      "velocity": 100,
      "chip": "ym2612"
    },
    {
      "channel": 1,
      "note": 79,
      "start": 38.105,
      "duration": 0.0161,
      "velocity": 127,
      "chip": "ym2612"
    },
    {
      "channel": 0,
      "note": 43,
      "start": 38.1067,
      "duration": 0.0161,
      "velocity": 115,
      "chip": "ym2612"
    },
    {
      "channel": 5,
      "note": 83,
      "start": 38.1082,
      "duration": 0.0161,
      "velocity": 89,
      "chip": "ym2612"
    },
    {
      "channel": 3,
      "note": 83,
      "start": 38.1096,
      "duration": 0.0162,
      "velocity": 89,
      "chip": "ym2612"
    },
    {
      "channel": 2,
      "note": 76,
      "start": 38.1114,
      "duration": 0.0158,
      "velocity": 105,
      "chip": "ym2612"
    },
    {
      "channel": 4,
      "note": 57,
      "start": 38.1126,
      "duration": 0.0162,
      "velocity": 100,
      "chip": "ym2612"
    },
    {
      "channel": 1,
      "note": 79,
      "start": 38.1211,
      "duration": 0.0162,
      "velocity": 127,
      "chip": "ym2612"
    },
    {
      "channel": 0,
      "note": 43,
      "start": 38.1228,
      "duration": 0.0161,
      "velocity": 115,
      "chip": "ym2612"
    },
    {
      "channel": 5,
      "note": 85,
      "start": 38.1243,
      "duration": 0.016,
      "velocity": 89,
      "chip": "ym2612"
    },
    {
      "channel": 3,
      "note": 85,
      "start": 38.1259,
      "duration": 0.016,
      "velocity": 89,
      "chip": "ym2612"
    },
    {
      "channel": 2,
      "note": 76,
      "start": 38.1272,
      "duration": 0.0158,
      "velocity": 105,
      "chip": "ym2612"
    },
    {
      "channel": 4,
      "note": 57,
      "start": 38.1288,
      "duration": 0.0159,
      "velocity": 100,
      "chip": "ym2612"
    },
    {
      "channel": 1,
      "note": 79,
      "start": 38.1372,
      "duration": 0.0158,
      "velocity": 1,
      "chip": "ym2612"
    },
    {
      "channel": 0,
      "note": 44,
      "start": 38.1389,
      "duration": 0.0158,
      "velocity": 115,
      "chip": "ym2612"
    },
    {
      "channel": 5,
      "note": 83,
      "start": 38.1403,
      "duration": 0.0159,
      "velocity": 89,
      "chip": "ym2612"
    },
    {
      "channel": 3,
      "note": 83,
      "start": 38.1418,
      "duration": 0.0159,
      "velocity": 89,
      "chip": "ym2612"
    },
    {
      "channel": 2,
      "note": 76,
      "start": 38.143,
      "duration": 0.0159,
      "velocity": 105,
      "chip": "ym2612"
    },
    {
      "channel": 4,
      "note": 57,
      "start": 38.1447,
      "duration": 0.0154,
      "velocity": 100,
      "chip": "ym2612"
    },
    {
      "channel": 0,
      "note": 44,
      "start": 38.1547,
      "duration": 0.0153,
      "velocity": 115,
      "chip": "ym2612"
    },
    {
      "channel": 5,
      "note": 85,
      "start": 38.1563,
      "duration": 0.0151,
      "velocity": 89,
      "chip": "ym2612"
    },
    {
      "channel": 3,
      "note": 85,
      "start": 38.1578,
      "duration": 0.0151,
      "velocity": 89,
      "chip": "ym2612"
    },
    {
      "channel": 4,
      "note": 57,
      "start": 38.1601,
      "duration": 0.0151,
      "velocity": 100,
      "chip": "ym2612"
    },
    {
      "channel": 0,
      "note": 44,
      "start": 38.17,
      "duration": 0.0161,
      "velocity": 115,
      "chip": "ym2612"
    },
    {
      "channel": 5,
      "note": 83,
      "start": 38.1715,
      "duration": 0.0161,
      "velocity": 89,
      "chip": "ym2612"
    },
    {
      "channel": 3,
      "note": 83,
      "start": 38.1729,
      "duration": 0.0161,
      "velocity": 89,
      "chip": "ym2612"
    },
    {
      "channel": 4,
      "note": 57,
      "start": 38.1752,
      "duration": 0.0162,
      "velocity": 100,
      "chip": "ym2612"
    },
    {
      "channel": 0,
      "note": 45,
      "start": 38.1861,
      "duration": 0.0209,
      "velocity": 115,
      "chip": "ym2612"
    },
    {
      "channel": 5,
      "note": 85,
      "start": 38.1876,
      "duration": 0.0208,
      "velocity": 89,
      "chip": "ym2612"
    },
    {
      "channel": 3,
      "note": 85,
      "start": 38.1891,
      "duration": 0.0207,
      "velocity": 89,
      "chip": "ym2612"
    },
    {
      "channel": 4,
      "note": 57,
      "start": 38.1914,
      "duration": 0.022,
      "velocity": 100,
      "chip": "ym2612"
    },
    {
      "channel": 1,
      "note": 79,
      "start": 38.2034,
      "duration": 0.0143,
      "velocity": 127,
      "chip": "ym2612"
    },
    {
      "channel": 0,
      "note": 36,
      "start": 38.207,
      "duration": 0.0125,
      "velocity": 115,
      "chip": "ym2612"
    },
    {
      "channel": 5,
      "note": 83,
      "start": 38.2085,
      "duration": 0.0125,
      "velocity": 89,
      "chip": "ym2612"
    },
    {
      "channel": 3,
      "note": 83,
      "start": 38.2099,
      "duration": 0.0126,
      "velocity": 89,
      "chip": "ym2612"
    },
    {
      "channel": 2,
      "note": 76,
      "start": 38.212,
      "duration": 0.0118,
      "velocity": 105,
      "chip": "ym2612"
    },
    {
      "channel": 4,
      "note": 52,
      "start": 38.2134,
      "duration": 0.0116,
      "velocity": 100,
      "chip": "ym2612"
    },
    {
      "channel": 1,
      "note": 79,
      "start": 38.2178,
      "duration": 0.016,
      "velocity": 127,
      "chip": "ym2612"
    },
    {
      "channel": 0,
      "note": 36,
      "start": 38.2195,
      "duration": 0.016,
      "velocity": 115,
      "chip": "ym2612"
    },
    {
      "channel": 5,
      "note": 85,
      "start": 38.2211,
      "duration": 0.0159,
      "velocity": 89,
      "chip": "ym2612"
    },
    {
      "channel": 3,
      "note": 85,
      "start": 38.2226,
      "duration": 0.0158,
      "velocity": 89,
      "chip": "ym2612"
    },
    {
      "channel": 2,
      "note": 76,
      "start": 38.2238,
      "duration": 0.0158,
      "velocity": 105,
      "chip": "ym2612"
    },
    {
      "channel": 4,
      "note": 52,
      "start": 38.225,
      "duration": 0.0157,
      "velocity": 100,
      "chip": "ym2612"
    },
    {
      "channel": 1,
      "note": 79,
      "start": 38.2338,
      "duration": 0.0161,
      "velocity": 127,
      "chip": "ym2612"
    },
    {
      "channel": 0,
      "note": 37,
      "start": 38.2355,
      "duration": 0.0161,
      "velocity": 115,
      "chip": "ym2612"
    },
    {
      "channel": 5,
      "note": 83,
      "start": 38.237,
      "duration": 0.0161,
      "velocity": 89,
      "chip": "ym2612"
    },
    {
      "channel": 3,
      "note": 83,
      "start": 38.2384,
      "duration": 0.0162,
      "velocity": 89,
      "chip": "ym2612"
    },
    {
      "channel": 2,
      "note": 76,
      "start": 38.2396,
      "duration": 0.0162,
      "velocity": 105,
      "chip": "ym2612"
    },
    {
      "channel": 4,
      "note": 52,
      "start": 38.2407,
      "duration": 0.0162,
      "velocity": 100,
      "chip": "ym2612"
    },
    {
      "channel": 1,
      "note": 79,
      "start": 38.2499,
      "duration": 0.0162,
      "velocity": 127,
      "chip": "ym2612"
    },
    {
      "channel": 0,
      "note": 37,
      "start": 38.2516,
      "duration": 0.0161,
      "velocity": 115,
      "chip": "ym2612"
    },
    {
      "channel": 5,
      "note": 85,
      "start": 38.2531,
      "duration": 0.016,
      "velocity": 89,
      "chip": "ym2612"
    },
    {
      "channel": 3,
      "note": 85,
      "start": 38.2547,
      "duration": 0.016,
      "velocity": 89,
      "chip": "ym2612"
    },
    {
      "channel": 2,
      "note": 76,
      "start": 38.2558,
      "duration": 0.016,
      "velocity": 105,
      "chip": "ym2612"
    },
    {
      "channel": 4,
      "note": 52,
      "start": 38.257,
      "duration": 0.016,
      "velocity": 100,
      "chip": "ym2612"
    },
    {
      "channel": 1,
      "note": 79,
      "start": 38.2661,
      "duration": 0.0161,
      "velocity": 127,
      "chip": "ym2612"
    },
    {
      "channel": 0,
      "note": 38,
      "start": 38.2677,
      "duration": 0.0161,
      "velocity": 115,
      "chip": "ym2612"
    },
    {
      "channel": 5,
      "note": 83,
      "start": 38.2692,
      "duration": 0.0162,
      "velocity": 89,
      "chip": "ym2612"
    },
    {
      "channel": 3,
      "note": 83,
      "start": 38.2706,
      "duration": 0.0161,
      "velocity": 89,
      "chip": "ym2612"
    },
    {
      "channel": 4,
      "note": 52,
      "start": 38.273,
      "duration": 0.0162,
      "velocity": 100,
      "chip": "ym2612"
    },
    {
      "channel": 1,
      "note": 79,
      "start": 38.2821,
      "duration": 0.0161,
      "velocity": 127,
      "chip": "ym2612"
    },
    {
      "channel": 0,
      "note": 38,
      "start": 38.2838,
      "duration": 0.0161,
      "velocity": 115,
      "chip": "ym2612"
    },
    {
      "channel": 5,
      "note": 85,
      "start": 38.2853,
      "duration": 0.016,
      "velocity": 89,
      "chip": "ym2612"
    },
    {
      "channel": 3,
      "note": 85,
      "start": 38.2868,
      "duration": 0.016,
      "velocity": 89,
      "chip": "ym2612"
    },
    {
      "channel": 4,
      "note": 52,
      "start": 38.2891,
      "duration": 0.016,
      "velocity": 100,
      "chip": "ym2612"
    },
    {
      "channel": 1,
      "note": 79,
      "start": 38.2982,
      "duration": 0.0161,
      "velocity": 127,
      "chip": "ym2612"
    },
    {
      "channel": 0,
      "note": 39,
      "start": 38.2999,
      "duration": 0.0179,
      "velocity": 115,
      "chip": "ym2612"
    },
    {
      "channel": 5,
      "note": 83,
      "start": 38.3014,
      "duration": 0.018,
      "velocity": 89,
      "chip": "ym2612"
    },
    {
      "channel": 3,
      "note": 83,
      "start": 38.3028,
      "duration": 0.0181,
      "velocity": 89,
      "chip": "ym2612"
    },
    {
      "channel": 4,
      "note": 52,
      "start": 38.3052,
      "duration": 0.0187,
      "velocity": 100,
      "chip": "ym2612"
    },
    {
      "channel": 1,
      "note": 79,
      "start": 38.3143,
      "duration": 0.0161,
      "velocity": 127,
      "chip": "ym2612"
    },
    {
      "channel": 0,
      "note": 36,
      "start": 38.3179,
      "duration": 0.0143,
      "velocity": 115,
      "chip": "ym2612"
    },
    {
      "channel": 5,
      "note": 85,
      "start": 38.3194,
      "duration": 0.0142,
      "velocity": 89,
      "chip": "ym2612"
    },
    {
      "channel": 3,
      "note": 85,
      "start": 38.3209,
      "duration": 0.0142,
      "velocity": 89,
      "chip": "ym2612"
    },
    {
      "channel": 2,
      "note": 76,
      "start": 38.3225,
      "duration": 0.0139,
      "velocity": 105,
      "chip": "ym2612"
    },
    {
      "channel": 4,
      "note": 52,
      "start": 38.3239,
      "duration": 0.0136,
      "velocity": 100,
      "chip": "ym2612"
    },
    {
      "channel": 1,
      "note": 79,
      "start": 38.3304,
      "duration": 0.0161,
      "velocity": 127,
      "chip": "ym2612"
    },
    {
      "channel": 0,
      "note": 36,
      "start": 38.3322,
      "duration": 0.0161,
      "velocity": 115,
      "chip": "ym2612"
    },
    {
      "channel": 5,
      "note": 83,
      "start": 38.3337,
      "duration": 0.0161,
      "velocity": 89,
      "chip": "ym2612"
    },
    {
      "channel": 3,
      "note": 83,
      "start": 38.3351,
      "duration": 0.0162,
      "velocity": 89,
      "chip": "ym2612"
    },
    {
      "channel": 2,
      "note": 76,
      "start": 38.3363,
      "duration": 0.0161,
      "velocity": 105,
      "chip": "ym2612"
    },
    {
      "channel": 4,
      "note": 52,
      "start": 38.3376,
      "duration": 0.0161,
      "velocity": 100,
      "chip": "ym2612"
    },
    {
      "channel": 1,
      "note": 79,
      "start": 38.3466,
      "duration": 0.0161,
      "velocity": 127,
      "chip": "ym2612"
    },
    {
      "channel": 0,
      "note": 37,
      "start": 38.3483,
      "duration": 0.0161,
      "velocity": 115,
      "chip": "ym2612"
    },
    {
      "channel": 5,
      "note": 85,
      "start": 38.3498,
      "duration": 0.016,
      "velocity": 89,
      "chip": "ym2612"
    },
    {
      "channel": 3,
      "note": 85,
      "start": 38.3514,
      "duration": 0.0159,
      "velocity": 89,
      "chip": "ym2612"
    },
    {
      "channel": 2,
      "note": 76,
      "start": 38.3525,
      "duration": 0.016,
      "velocity": 105,
      "chip": "ym2612"
    },
    {
      "channel": 4,
      "note": 52,
      "start": 38.3537,
      "duration": 0.016,
      "velocity": 100,
      "chip": "ym2612"
    },
    {
      "channel": 1,
      "note": 79,
      "start": 38.3627,
      "duration": 0.0164,
      "velocity": 127,
      "chip": "ym2612"
    },
    {
      "channel": 0,
      "note": 37,
      "start": 38.3644,
      "duration": 0.0164,
      "velocity": 115,
      "chip": "ym2612"
    },
    {
      "channel": 5,
      "note": 83,
      "start": 38.3659,
      "duration": 0.0164,
      "velocity": 89,
      "chip": "ym2612"
    },
    {
      "channel": 3,
      "note": 83,
      "start": 38.3673,
      "duration": 0.0165,
      "velocity": 89,
      "chip": "ym2612"
    },
    {
      "channel": 2,
      "note": 76,
      "start": 38.3685,
      "duration": 0.0166,
      "velocity": 105,
      "chip": "ym2612"
    },
    {
      "channel": 4,
      "note": 52,
      "start": 38.3696,
      "duration": 0.0165,
      "velocity": 100,
      "chip": "ym2612"
    },
    {
      "channel": 1,
      "note": 79,
      "start": 38.3791,
      "duration": 0.0163,
      "velocity": 127,
      "chip": "ym2612"
    },
    {
      "channel": 0,
      "note": 38,
      "start": 38.3808,
      "duration": 0.0163,
      "velocity": 115,
      "chip": "ym2612"
    },
    {
      "channel": 5,
      "note": 85,
      "start": 38.3823,
      "duration": 0.0162,
      "velocity": 89,
      "chip": "ym2612"
    },
    {
      "channel": 3,
      "note": 85,
      "start": 38.3839,
      "duration": 0.0162,
      "velocity": 89,
      "chip": "ym2612"
    },
    {
      "channel": 2,
      "note": 76,
      "start": 38.385,
      "duration": 0.0162,
      "velocity": 105,
      "chip": "ym2612"
    },
    {
      "channel": 4,
      "note": 52,
      "start": 38.3861,
      "duration": 0.0162,
      "velocity": 100,
      "chip": "ym2612"
    },
    {
      "channel": 1,
      "note": 79,
      "start": 38.3954,
      "duration": 0.016,
      "velocity": 127,
      "chip": "ym2612"
    },
    {
      "channel": 0,
      "note": 38,
      "start": 38.3971,
      "duration": 0.0161,
      "velocity": 115,
      "chip": "ym2612"
    },
    {
      "channel": 5,
      "note": 83,
      "start": 38.3985,
      "duration": 0.0162,
      "velocity": 89,
      "chip": "ym2612"
    },
    {
      "channel": 3,
      "note": 83,
      "start": 38.4,
      "duration": 0.0161,
      "velocity": 89,
      "chip": "ym2612"
    },
    {
      "channel": 2,
      "note": 76,
      "start": 38.4012,
      "duration": 0.0162,
      "velocity": 105,
      "chip": "ym2612"
    },
    {
      "channel": 4,
      "note": 52,
      "start": 38.4024,
      "duration": 0.0162,
      "velocity": 100,
      "chip": "ym2612"
    },
    {
      "channel": 1,
      "note": 79,
      "start": 38.4115,
      "duration": 0.0179,
      "velocity": 127,
      "chip": "ym2612"
    },
    {
      "channel": 0,
      "note": 39,
      "start": 38.4132,
      "duration": 0.018,
      "velocity": 115,
      "chip": "ym2612"
    },
    {
      "channel": 5,
      "note": 85,
      "start": 38.4147,
      "duration": 0.0178,
      "velocity": 89,
      "chip": "ym2612"
    },
    {
      "channel": 3,
      "note": 85,
      "start": 38.4162,
      "duration": 0.0178,
      "velocity": 89,
      "chip": "ym2612"
    },
    {
      "channel": 2,
      "note": 76,
      "start": 38.4174,
      "duration": 0.0178,
      "velocity": 105,
      "chip": "ym2612"
    },
    {
      "channel": 4,
      "note": 52,
      "start": 38.4186,
      "duration": 0.0178,
      "velocity": 100,
      "chip": "ym2612"
    },
    {
      "channel": 1,
      "note": 79,
      "start": 38.4294,
      "duration": 0.0138,
      "velocity": 127,
      "chip": "ym2612"
    },
    {
      "channel": 0,
      "note": 39,
      "start": 38.4311,
      "duration": 0.0144,
      "velocity": 115,
      "chip": "ym2612"
    },
    {
      "channel": 5,
      "note": 83,
      "start": 38.4326,
      "duration": 0.0144,
      "velocity": 89,
      "chip": "ym2612"
    },
    {
      "channel": 3,
      "note": 83,
      "start": 38.4341,
      "duration": 0.0144,
      "velocity": 89,
      "chip": "ym2612"
    },
    {
      "channel": 2,
      "note": 76,
      "start": 38.4352,
      "duration": 0.0145,
      "velocity": 105,
      "chip": "ym2612"
    },
    {
      "channel": 4,
      "note": 52,
      "start": 38.4363,
      "duration": 0.0145,
      "velocity": 100,
      "chip": "ym2612"
    },
    {
      "channel": 1,
      "note": 79,
      "start": 38.4432,
      "duration": 0.016,
      "velocity": 127,
      "chip": "ym2612"
    },
    {
      "channel": 0,
      "note": 40,
      "start": 38.4455,
      "duration": 0.016,
      "velocity": 115,
      "chip": "ym2612"
    },
    {
      "channel": 5,
      "note": 85,
      "start": 38.447,
      "duration": 0.0159,
      "velocity": 89,
      "chip": "ym2612"
    },
    {
      "channel": 3,
      "note": 85,
      "start": 38.4485,
      "duration": 0.0159,
      "velocity": 89,
      "chip": "ym2612"
    },
    {
      "channel": 2,
      "note": 76,
      "start": 38.4497,
      "duration": 0.0159,
      "velocity": 105,
      "chip": "ym2612"
    },
    {
      "channel": 4,
      "note": 52,
      "start": 38.4508,
      "duration": 0.0159,
      "velocity": 100,
      "chip": "ym2612"
    },
    {
      "channel": 1,
      "note": 79,
      "start": 38.4593,
      "duration": 0.0161,
      "velocity": 127,
      "chip": "ym2612"
    },
    {
      "channel": 0,
      "note": 40,
      "start": 38.4615,
      "duration": 0.0158,
      "velocity": 115,
      "chip": "ym2612"
    },
    {
      "channel": 5,
      "note": 83,
      "start": 38.463,
      "duration": 0.0161,
      "velocity": 89,
      "chip": "ym2612"
    },
    {
      "channel": 3,
      "note": 83,
      "start": 38.4645,
      "duration": 0.0161,
      "velocity": 89,
      "chip": "ym2612"
    },
    {
      "channel": 2,
      "note": 76,
      "start": 38.4656,
      "duration": 0.0162,
      "velocity": 105,
      "chip": "ym2612"
    },
    {
      "channel": 4,
      "note": 52,
      "start": 38.4668,
      "duration": 0.0162,
      "velocity": 100,
      "chip": "ym2612"
    },
    {
      "channel": 1,
      "note": 79,
      "start": 38.4753,
      "duration": 0.0161,
      "velocity": 127,
      "chip": "ym2612"
    },
    {
      "channel": 0,
      "note": 40,
      "start": 38.4772,
      "duration": 0.0159,
      "velocity": 115,
      "chip": "ym2612"
    },
    {
      "channel": 5,
      "note": 85,
      "start": 38.4792,
      "duration": 0.0159,
      "velocity": 89,
      "chip": "ym2612"
    },
    {
      "channel": 3,
      "note": 85,
      "start": 38.4807,
      "duration": 0.0159,
      "velocity": 89,
      "chip": "ym2612"
    },
    {
      "channel": 2,
      "note": 76,
      "start": 38.4818,
      "duration": 0.016,
      "velocity": 105,
      "chip": "ym2612"
    },
    {
      "channel": 4,
      "note": 52,
      "start": 38.483,
      "duration": 0.016,
      "velocity": 100,
      "chip": "ym2612"
    },
    {
      "channel": 1,
      "note": 79,
      "start": 38.4914,
      "duration": 0.0161,
      "velocity": 127,
      "chip": "ym2612"
    },
    {
      "channel": 0,
      "note": 41,
      "start": 38.4932,
      "duration": 0.0161,
      "velocity": 115,
      "chip": "ym2612"
    },
    {
      "channel": 5,
      "note": 83,
      "start": 38.4951,
      "duration": 0.0161,
      "velocity": 89,
      "chip": "ym2612"
    },
    {
      "channel": 3,
      "note": 83,
      "start": 38.4966,
      "duration": 0.0162,
      "velocity": 89,
      "chip": "ym2612"
    },
    {
      "channel": 4,
      "note": 52,
      "start": 38.499,
      "duration": 0.0161,
      "velocity": 100,
      "chip": "ym2612"
    },
    {
      "channel": 1,
      "note": 79,
      "start": 38.5075,
      "duration": 0.0161,
      "velocity": 127,
      "chip": "ym2612"
    },
    {
      "channel": 0,
      "note": 41,
      "start": 38.5093,
      "duration": 0.0161,
      "velocity": 115,
      "chip": "ym2612"
    },
    {
      "channel": 5,
      "note": 85,
      "start": 38.5113,
      "duration": 0.0155,
      "velocity": 89,
      "chip": "ym2612"
    },
    {
      "channel": 3,
      "note": 85,
      "start": 38.5129,
      "duration": 0.016,
      "velocity": 89,
      "chip": "ym2612"
    },
    {
      "channel": 4,
      "note": 52,
      "start": 38.5151,
      "duration": 0.016,
      "velocity": 100,
      "chip": "ym2612"
    },
    {
      "channel": 1,
      "note": 79,
      "start": 38.5236,
      "duration": 0.0178,
      "velocity": 127,
      "chip": "ym2612"
    },
    {
      "channel": 0,
      "note": 42,
      "start": 38.5253,
      "duration": 0.0202,
      "velocity": 124,
      "chip": "ym2612"
    },
    {
      "channel": 5,
      "note": 83,
      "start": 38.5268,
      "duration": 0.0203,
      "velocity": 89,
      "chip": "ym2612"
    },
    {
      "channel": 3,
      "note": 83,
      "start": 38.5288,
      "duration": 0.0198,
      "velocity": 89,
      "chip": "ym2612"
    },
    {
      "channel": 4,
      "note": 52,
      "start": 38.5312,
      "duration": 0.0202,
      "velocity": 100,
      "chip": "ym2612"
    },
    {
      "channel": 1,
      "note": 72,
      "start": 38.5415,
      "duration": 0.0144,
      "velocity": 127,
      "chip": "ym2612"
    },
    {
      "channel": 0,
      "note": 84,
      "start": 38.5456,
      "duration": 0.012,
      "velocity": 124,
      "chip": "ym2612"
    },
    {
      "channel": 5,
      "note": 85,
      "start": 38.5471,
      "duration": 0.012,
      "velocity": 89,
      "chip": "ym2612"
    },
    {
      "channel": 3,
      "note": 80,
      "start": 38.5487,
      "duration": 0.0121,
      "velocity": 89,
      "chip": "ym2612"
    },
    {
      "channel": 2,
      "note": 76,
      "start": 38.5502,
      "duration": 0.0122,
      "velocity": 105,
      "chip": "ym2612"
    },
    {
      "channel": 4,
      "note": 52,
      "start": 38.5514,
      "duration": 0.0122,
      "velocity": 100,
      "chip": "ym2612"
    },
    {
      "channel": 1,
      "note": 72,
      "start": 38.5559,
      "duration": 0.0161,
      "velocity": 127,
      "chip": "ym2612"
    },
    {
      "channel": 0,
      "note": 82,
      "start": 38.5576,
      "duration": 0.016,
      "velocity": 124,
      "chip": "ym2612"
    },
    {
      "channel": 5,
      "note": 83,
      "start": 38.5591,
      "duration": 0.016,
      "velocity": 89,
      "chip": "ym2612"
    },
    {
      "channel": 3,
      "note": 78,
      "start": 38.5612,
      "duration": 0.0155,
      "velocity": 89,
      "chip": "ym2612"
    },
    {
      "channel": 2,
      "note": 76,
      "start": 38.5624,
      "duration": 0.016,
      "velocity": 105,
      "chip": "ym2612"
    },
    {
      "channel": 4,
      "note": 52,
      "start": 38.5636,
      "duration": 0.016,
      "velocity": 100,
      "chip": "ym2612"
    },
    {
      "channel": 1,
      "note": 72,
      "start": 38.572,
      "duration": 0.0161,
      "velocity": 127,
      "chip": "ym2612"
    },
    {
      "channel": 0,
      "note": 80,
      "start": 38.5737,
      "duration": 0.0161,
      "velocity": 124,
      "chip": "ym2612"
    },
    {
      "channel": 5,
      "note": 85,
      "start": 38.5751,
      "duration": 0.016,
      "velocity": 89,
      "chip": "ym2612"
    },
    {
      "channel": 3,
      "note": 80,
      "start": 38.5767,
      "duration": 0.016,
      "velocity": 89,
      "chip": "ym2612"
    },
    {
      "channel": 2,
      "note": 76,
      "start": 38.5784,
      "duration": 0.0156,
      "velocity": 105,
      "chip": "ym2612"
    },
    {
      "channel": 4,
      "note": 52,
      "start": 38.5796,
      "duration": 0.016,
      "velocity": 100,
      "chip": "ym2612"
    },
    {
      "channel": 1,
      "note": 72,
      "start": 38.588,
      "duration": 0.0161,
      "velocity": 127,
      "chip": "ym2612"
    },
    {
      "channel": 0,
      "note": 77,
      "start": 38.5898,
      "duration": 0.0161,
      "velocity": 124,
      "chip": "ym2612"
    },
    {
      "channel": 5,
      "note": 83,
      "start": 38.5912,
      "duration": 0.0161,
      "velocity": 89,
      "chip": "ym2612"
    },
    {
      "channel": 3,
      "note": 78,
      "start": 38.5927,
      "duration": 0.0162,
      "velocity": 89,
      "chip": "ym2612"
    },
    {
      "channel": 2,
      "note": 76,
      "start": 38.594,
      "duration": 0.016,
      "velocity": 105,
      "chip": "ym2612"
    },
    {
      "channel": 4,
      "note": 52,
      "start": 38.5956,
      "duration": 0.0162,
      "velocity": 100,
      "chip": "ym2612"
    },
    {
      "channel": 1,
      "note": 72,
      "start": 38.6041,
      "duration": 0.0161,
      "velocity": 127,
      "chip": "ym2612"
    },
    {
      "channel": 0,
      "note": 75,
      "start": 38.6059,
      "duration": 0.0161,
      "velocity": 124,
      "chip": "ym2612"
    },
    {
      "channel": 5,
      "note": 85,
      "start": 38.6073,
      "duration": 0.016,
      "velocity": 89,
      "chip": "ym2612"
    },
    {
      "channel": 3,
      "note": 80,
      "start": 38.6089,
      "duration": 0.016,
      "velocity": 89,
      "chip": "ym2612"
    },
    {
      "channel": 4,
      "note": 52,
      "start": 38.6117,
      "duration": 0.0156,
      "velocity": 100,
      "chip": "ym2612"
    },
    {
      "channel": 1,
      "note": 72,
      "start": 38.6202,
      "duration": 0.0161,
      "velocity": 127,
      "chip": "ym2612"
    },
    {
      "channel": 0,
      "note": 72,
      "start": 38.622,
      "duration": 0.0161,
      "velocity": 124,
      "chip": "ym2612"
    },
    {
      "channel": 5,
      "note": 83,
      "start": 38.6234,
      "duration": 0.0161,
      "velocity": 89,
      "chip": "ym2612"
    },
    {
      "channel": 3,
      "note": 78,
      "start": 38.6249,
      "duration": 0.0161,
      "velocity": 89,
      "chip": "ym2612"
    },
    {
      "channel": 4,
      "note": 52,
      "start": 38.6274,
      "duration": 0.016,
      "velocity": 100,
      "chip": "ym2612"
    },
    {
      "channel": 1,
      "note": 72,
      "start": 38.6363,
      "duration": 0.0161,
      "velocity": 127,
      "chip": "ym2612"
    },
    {
      "channel": 0,
      "note": 70,
      "start": 38.638,
      "duration": 0.0179,
      "velocity": 115,
      "chip": "ym2612"
    },
    {
      "channel": 5,
      "note": 85,
      "start": 38.6396,
      "duration": 0.0178,
      "velocity": 89,
      "chip": "ym2612"
    },
    {
      "channel": 3,
      "note": 80,
      "start": 38.641,
      "duration": 0.0178,
      "velocity": 89,
      "chip": "ym2612"
    },
    {
      "channel": 4,
      "note": 52,
      "start": 38.6434,
      "duration": 0.019,
      "velocity": 100,
      "chip": "ym2612"
    },
    {
      "channel": 1,
      "note": 72,
      "start": 38.6524,
      "duration": 0.0161,
      "velocity": 127,
      "chip": "ym2612"
    },
    {
      "channel": 0,
      "note": 36,
      "start": 38.656,
      "duration": 0.0143,
      "velocity": 115,
      "chip": "ym2612"
    },
    {
      "channel": 5,
      "note": 83,
      "start": 38.6575,
      "duration": 0.0143,
      "velocity": 89,
      "chip": "ym2612"
    },
    {
      "channel": 3,
      "note": 78,
      "start": 38.6589,
      "duration": 0.0144,
      "velocity": 89,
      "chip": "ym2612"
    },
    {
      "channel": 2,
      "note": 76,
      "start": 38.6606,
      "duration": 0.014,
      "velocity": 105,
      "chip": "ym2612"
    },
    {
      "channel": 4,
      "note": 52,
      "start": 38.6624,
      "duration": 0.0134,
      "velocity": 100,
      "chip": "ym2612"
    },
    {
      "channel": 1,
      "note": 72,
      "start": 38.6685,
      "duration": 0.0161,
      "velocity": 127,
      "chip": "ym2612"
    },
    {
      "channel": 0,
      "note": 36,
      "start": 38.6703,
      "duration": 0.016,
      "velocity": 115,
      "chip": "ym2612"
    },
    {
      "channel": 5,
      "note": 85,
      "start": 38.6718,
      "duration": 0.0159,
      "velocity": 89,
      "chip": "ym2612"
    },
    {
      "channel": 3,
      "note": 80,
      "start": 38.6734,
      "duration": 0.0159,
      "velocity": 89,
      "chip": "ym2612"
    },
    {
      "channel": 2,
      "note": 76,
      "start": 38.6746,
      "duration": 0.0158,
      "velocity": 105,
      "chip": "ym2612"
    },
    {
      "channel": 4,
      "note": 52,
      "start": 38.6758,
      "duration": 0.0158,
      "velocity": 100,
      "chip": "ym2612"
    },
    {
      "channel": 1,
      "note": 72,
      "start": 38.6846,
      "duration": 0.0161,
      "velocity": 127,
      "chip": "ym2612"
    },
    {
      "channel": 0,
      "note": 37,
      "start": 38.6863,
      "duration": 0.0161,
      "velocity": 115,
      "chip": "ym2612"
    },
    {
      "channel": 5,
      "note": 83,
      "start": 38.6878,
      "duration": 0.0161,
      "velocity": 89,
      "chip": "ym2612"
    },
    {
      "channel": 3,
      "note": 78,
      "start": 38.6893,
      "duration": 0.0161,
      "velocity": 89,
      "chip": "ym2612"
    },
    {
      "channel": 2,
      "note": 76,
      "start": 38.6904,
      "duration": 0.0162,
      "velocity": 105,
      "chip": "ym2612"
    },
    {
      "channel": 4,
      "note": 52,
      "start": 38.6916,
      "duration": 0.0162,
      "velocity": 100,
      "chip": "ym2612"
    },
    {
      "channel": 1,
      "note": 72,
      "start": 38.7007,
      "duration": 0.0161,
      "velocity": 127,
      "chip": "ym2612"
    },
    {
      "channel": 0,
      "note": 37,
      "start": 38.7024,
      "duration": 0.0161,
      "velocity": 115,
      "chip": "ym2612"
    },
    {
      "channel": 5,
      "note": 85,
      "start": 38.704,
      "duration": 0.016,
      "velocity": 89,
      "chip": "ym2612"
    },
    {
      "channel": 3,
      "note": 80,
      "start": 38.7055,
      "duration": 0.0159,
      "velocity": 89,
      "chip": "ym2612"
    },
    {
      "channel": 2,
      "note": 76,
      "start": 38.7066,
      "duration": 0.016,
      "velocity": 105,
      "chip": "ym2612"
    },
    {
      "channel": 4,
      "note": 52,
      "start": 38.7078,
      "duration": 0.016,
      "velocity": 100,
      "chip": "ym2612"
    },
    {
      "channel": 1,
      "note": 72,
      "start": 38.7168,
      "duration": 0.0162,
      "velocity": 127,
      "chip": "ym2612"
    },
    {
      "channel": 0,
      "note": 38,
      "start": 38.7185,
      "duration": 0.0161,
      "velocity": 115,
      "chip": "ym2612"
    },
    {
      "channel": 5,
      "note": 83,
      "start": 38.72,
      "duration": 0.0161,
      "velocity": 89,
      "chip": "ym2612"
    },
    {
      "channel": 3,
      "note": 78,
      "start": 38.7215,
      "duration": 0.0162,
      "velocity": 89,
      "chip": "ym2612"
    },
    {
      "channel": 4,
      "note": 52,
      "start": 38.7238,
      "duration": 0.0162,
      "velocity": 100,
      "chip": "ym2612"
    },
    {
      "channel": 1,
      "note": 72,
      "start": 38.733,
      "duration": 0.0161,
      "velocity": 127,
      "chip": "ym2612"
    },
    {
      "channel": 0,
      "note": 38,
      "start": 38.7346,
      "duration": 0.0161,
      "velocity": 115,
      "chip": "ym2612"
    },
    {
      "channel": 5,
      "note": 80,
      "start": 38.7362,
      "duration": 0.016,
      "velocity": 89,
      "chip": "ym2612"
    },
    {
      "channel": 3,
      "note": 80,
      "start": 38.7377,
      "duration": 0.0159,
      "velocity": 89,
      "chip": "ym2612"
    },
    {
      "channel": 4,
      "note": 52,
      "start": 38.74,
      "duration": 0.016,
      "velocity": 100,
      "chip": "ym2612"
    },
    {
      "channel": 1,
      "note": 72,
      "start": 38.7491,
      "duration": 0.0161,
      "velocity": 127,
      "chip": "ym2612"
    },
    {
      "channel": 0,
      "note": 39,
      "start": 38.7507,
      "duration": 0.0161,
      "velocity": 115,
      "chip": "ym2612"
    },
    {
      "channel": 5,
      "note": 78,
      "start": 38.7522,
      "duration": 0.0162,
      "velocity": 89,
      "chip": "ym2612"
    },
    {
      "channel": 3,
      "note": 78,
      "start": 38.7537,
      "duration": 0.0162,
      "velocity": 89,
      "chip": "ym2612"
    },
    {
      "channel": 4,
      "note": 52,
      "start": 38.756,
      "duration": 0.0167,
      "velocity": 100,
      "chip": "ym2612"
    },
    {
      "channel": 1,
      "note": 72,
      "start": 38.7651,
      "duration": 0.0161,
      "velocity": 127,
      "chip": "ym2612"
    },
    {
      "channel": 0,
      "note": 39,
      "start": 38.7669,
      "duration": 0.0161,
      "velocity": 115,
      "chip": "ym2612"
    },
    {
      "channel": 5,
      "note": 80,
      "start": 38.7683,
      "duration": 0.016,
      "velocity": 89,
      "chip": "ym2612"
    },
    {
      "channel": 3,
      "note": 80,
      "start": 38.7699,
      "duration": 0.016,
      "velocity": 89,
      "chip": "ym2612"
    },
    {
      "channel": 2,
      "note": 76,
      "start": 38.7715,
      "duration": 0.0156,
      "velocity": 105,
      "chip": "ym2612"
    },
    {
      "channel": 4,
      "note": 52,
      "start": 38.7727,
      "duration": 0.0156,
      "velocity": 100,
      "chip": "ym2612"
    },
    {
      "channel": 1,
      "note": 72,
      "start": 38.7812,
      "duration": 0.0161,
      "velocity": 127,
      "chip": "ym2612"
    },
    {
      "channel": 0,
      "note": 40,
      "start": 38.783,
      "duration": 0.0161,
      "velocity": 115,
      "chip": "ym2612"
    },
    {
      "channel": 5,
      "note": 78,
      "start": 38.7844,
      "duration": 0.0161,
      "velocity": 89,
      "chip": "ym2612"
    },
    {
      "channel": 3,
      "note": 78,
      "start": 38.7859,
      "duration": 0.0161,
      "velocity": 89,
      "chip": "ym2612"
    },
    {
      "channel": 2,
      "note": 76,
      "start": 38.7871,
      "duration": 0.0162,
      "velocity": 105,
      "chip": "ym2612"
    },
    {
      "channel": 4,
      "note": 52,
      "start": 38.7883,
      "duration": 0.0161,
      "velocity": 100,
      "chip": "ym2612"
    },
    {
      "channel": 1,
      "note": 72,
      "start": 38.7973,
      "duration": 0.0161,
      "velocity": 127,
      "chip": "ym2612"
    },
    {
      "channel": 0,
      "note": 40,
      "start": 38.7991,
      "duration": 0.0161,
      "velocity": 115,
      "chip": "ym2612"
    },
    {
      "channel": 5,
      "note": 80,
      "start": 38.8006,
      "duration": 0.016,
      "velocity": 89,
      "chip": "ym2612"
    },
    {
      "channel": 3,
      "note": 80,
      "start": 38.8021,
      "duration": 0.0159,
      "velocity": 89,
      "chip": "ym2612"
    },
    {
      "channel": 2,
      "note": 76,
      "start": 38.8033,
      "duration": 0.016,
      "velocity": 105,
      "chip": "ym2612"
    },
    {
      "channel": 4,
      "note": 52,
      "start": 38.8045,
      "duration": 0.0159,
      "velocity": 100,
      "chip": "ym2612"
    },
    {
      "channel": 1,
      "note": 72,
      "start": 38.8134,
      "duration": 0.0159,
      "velocity": 1,
      "chip": "ym2612"
    },
    {
      "channel": 0,
      "note": 40,
      "start": 38.8151,
      "duration": 0.0159,
      "velocity": 115,
      "chip": "ym2612"
    },
    {
      "channel": 5,
      "note": 78,
      "start": 38.8166,
      "duration": 0.0159,
      "velocity": 89,
      "chip": "ym2612"
    },
    {
      "channel": 3,
      "note": 78,
      "start": 38.8181,
      "duration": 0.016,
      "velocity": 89,
      "chip": "ym2612"
    },
    {
      "channel": 2,
      "note": 76,
      "start": 38.8192,
      "duration": 0.016,
      "velocity": 105,
      "chip": "ym2612"
    },
    {
      "channel": 4,
      "note": 52,
      "start": 38.8204,
      "duration": 0.016,
      "velocity": 100,
      "chip": "ym2612"
    },
    {
      "channel": 0,
      "note": 41,
      "start": 38.8311,
      "duration": 0.0154,
      "velocity": 115,
      "chip": "ym2612"
    },
    {
      "channel": 5,
      "note": 80,
      "start": 38.8325,
      "duration": 0.0154,
      "velocity": 89,
      "chip": "ym2612"
    },
    {
      "channel": 3,
      "note": 80,
      "start": 38.8341,
      "duration": 0.0153,
      "velocity": 89,
      "chip": "ym2612"
    },
    {
      "channel": 2,
      "note": 76,
      "start": 38.8353,
      "duration": 0.0153,
      "velocity": 105,
      "chip": "ym2612"
    },
    {
      "channel": 4,
      "note": 52,
      "start": 38.8364,
      "duration": 0.0153,
      "velocity": 100,
      "chip": "ym2612"
    },
    {
      "channel": 0,
      "note": 41,
      "start": 38.8465,
      "duration": 0.0163,
      "velocity": 115,
      "chip": "ym2612"
    },
    {
      "channel": 5,
      "note": 78,
      "start": 38.848,
      "duration": 0.0163,
      "velocity": 89,
      "chip": "ym2612"
    },
    {
      "channel": 3,
      "note": 78,
      "start": 38.8494,
      "duration": 0.0163,
      "velocity": 89,
      "chip": "ym2612"
    },
    {
      "channel": 2,
      "note": 76,
      "start": 38.8506,
      "duration": 0.0164,
      "velocity": 105,
      "chip": "ym2612"
    },
    {
      "channel": 4,
      "note": 52,
      "start": 38.8517,
      "duration": 0.0164,
      "velocity": 100,
      "chip": "ym2612"
    },
    {
      "channel": 0,
      "note": 42,
      "start": 38.8628,
      "duration": 0.0209,
      "velocity": 115,
      "chip": "ym2612"
    },
    {
      "channel": 5,
      "note": 80,
      "start": 38.8643,
      "duration": 0.0209,
      "velocity": 89,
      "chip": "ym2612"
    },
    {
      "channel": 3,
      "note": 80,
      "start": 38.8659,
      "duration": 0.0208,
      "velocity": 89,
      "chip": "ym2612"
    },
    {
      "channel": 2,
      "note": 76,
      "start": 38.867,
      "duration": 0.0209,
      "velocity": 105,
      "chip": "ym2612"
    },
    {
      "channel": 4,
      "note": 52,
      "start": 38.8681,
      "duration": 0.0211,
      "velocity": 100,
      "chip": "ym2612"
    },
    {
      "channel": 1,
      "note": 72,
      "start": 38.8802,
      "duration": 0.0143,
      "velocity": 127,
      "chip": "ym2612"
    },
    {
      "channel": 0,
      "note": 36,
      "start": 38.8838,
      "duration": 0.0126,
      "velocity": 115,
      "chip": "ym2612"
    },
    {
      "channel": 5,
      "note": 78,
      "start": 38.8853,
      "duration": 0.0126,
      "velocity": 89,
      "chip": "ym2612"
    },
    {
      "channel": 3,
      "note": 78,
      "start": 38.8867,
      "duration": 0.0127,
      "velocity": 89,
      "chip": "ym2612"
    },
    {
      "channel": 2,
      "note": 76,
      "start": 38.8879,
      "duration": 0.0127,
      "velocity": 105,
      "chip": "ym2612"
    },
    {
      "channel": 4,
      "note": 57,
      "start": 38.8893,
      "duration": 0.0125,
      "velocity": 100,
      "chip": "ym2612"
    },
    {
      "channel": 1,
      "note": 72,
      "start": 38.8945,
      "duration": 0.0155,
      "velocity": 127,
      "chip": "ym2612"
    },
    {
      "channel": 0,
      "note": 36,
      "start": 38.8964,
      "duration": 0.016,
      "velocity": 115,
      "chip": "ym2612"
    },
    {
      "channel": 5,
      "note": 80,
      "start": 38.8979,
      "duration": 0.0159,
      "velocity": 89,
      "chip": "ym2612"
    },
    {
      "channel": 3,
      "note": 80,
      "start": 38.8994,
      "duration": 0.0158,
      "velocity": 89,
      "chip": "ym2612"
    },
    {
      "channel": 2,
      "note": 76,
      "start": 38.9006,
      "duration": 0.0159,
      "velocity": 105,
      "chip": "ym2612"
    },
    {
      "channel": 4,
      "note": 57,
      "start": 38.9018,
      "duration": 0.0158,
      "velocity": 100,
      "chip": "ym2612"
    },
    {
      "channel": 1,
      "note": 72,
      "start": 38.9101,
      "duration": 0.0161,
      "velocity": 127,
      "chip": "ym2612"
    },
    {
      "channel": 0,
      "note": 37,
      "start": 38.9124,
      "duration": 0.016,
      "velocity": 115,
      "chip": "ym2612"
    },
    {
      "channel": 5,
      "note": 78,
      "start": 38.9138,
      "duration": 0.0161,
      "velocity": 89,
      "chip": "ym2612"
    },
    {
      "channel": 3,
      "note": 78,
      "start": 38.9153,
      "duration": 0.0162,
      "velocity": 89,
      "chip": "ym2612"
    },
    {
      "channel": 2,
      "note": 76,
      "start": 38.9164,
      "duration": 0.0162,
      "velocity": 105,
      "chip": "ym2612"
    },
    {
      "channel": 4,
      "note": 57,
      "start": 38.9176,
      "duration": 0.0162,
      "velocity": 100,
      "chip": "ym2612"
    },
    {
      "channel": 1,
      "note": 72,
      "start": 38.9262,
      "duration": 0.0161,
      "velocity": 127,
      "chip": "ym2612"
    },
    {
      "channel": 0,
      "note": 37,
      "start": 38.9284,
      "duration": 0.0161,
      "velocity": 115,
      "chip": "ym2612"
    },
    {
      "channel": 5,
      "note": 80,
      "start": 38.93,
      "duration": 0.016,
      "velocity": 89,
      "chip": "ym2612"
    },
    {
      "channel": 3,
      "note": 80,
      "start": 38.9315,
      "duration": 0.016,
      "velocity": 89,
      "chip": "ym2612"
    },
    {
      "channel": 2,
      "note": 76,
      "start": 38.9327,
      "duration": 0.016,
      "velocity": 105,
      "chip": "ym2612"
    },
    {
      "channel": 4,
      "note": 57,
      "start": 38.9338,
      "duration": 0.016,
      "velocity": 100,
      "chip": "ym2612"
    },
    {
      "channel": 1,
      "note": 72,
      "start": 38.9422,
      "duration": 0.0161,
      "velocity": 127,
      "chip": "ym2612"
    },
    {
      "channel": 0,
      "note": 38,
      "start": 38.9445,
      "duration": 0.0156,
      "velocity": 115,
      "chip": "ym2612"
    },
    {
      "channel": 5,
      "note": 78,
      "start": 38.946,
      "duration": 0.0162,
      "velocity": 89,
      "chip": "ym2612"
    },
    {
      "channel": 3,
      "note": 78,
      "start": 38.9475,
      "duration": 0.0162,
      "velocity": 89,
      "chip": "ym2612"
    },
    {
      "channel": 4,
      "note": 57,
      "start": 38.9498,
      "duration": 0.0162,
      "velocity": 100,
      "chip": "ym2612"
    },
    {
      "channel": 1,
      "note": 72,
      "start": 38.9583,
      "duration": 0.0161,
      "velocity": 127,
      "chip": "ym2612"
    },
    {
      "channel": 0,
      "note": 38,
      "start": 38.9601,
      "duration": 0.0161,
      "velocity": 115,
      "chip": "ym2612"
    },
    {
      "channel": 5,
      "note": 80,
      "start": 38.9622,
      "duration": 0.016,
      "velocity": 89,
      "chip": "ym2612"
    },
    {
      "channel": 3,
      "note": 80,
      "start": 38.9637,
      "duration": 0.016,
      "velocity": 89,
      "chip": "ym2612"
    },
    {
      "channel": 4,
      "note": 57,
      "start": 38.9661,
      "duration": 0.016,
      "velocity": 100,
      "chip": "ym2612"
    },
    {
      "channel": 1,
      "note": 72,
      "start": 38.9744,
      "duration": 0.0178,
      "velocity": 127,
      "chip": "ym2612"
    },
    {
      "channel": 0,
      "note": 39,
      "start": 38.9762,
      "duration": 0.0202,
      "velocity": 115,
      "chip": "ym2612"
    },
    {
      "channel": 5,
      "note": 78,
      "start": 38.9781,
      "duration": 0.0198,
      "velocity": 89,
      "chip": "ym2612"
    },
    {
      "channel": 3,
      "note": 78,
      "start": 38.9797,
      "duration": 0.0198,
      "velocity": 89,
      "chip": "ym2612"
    },
    {
      "channel": 4,
      "note": 57,
      "start": 38.982,
      "duration": 0.0204,
      "velocity": 100,
      "chip": "ym2612"
    },
    {
      "channel": 1,
      "note": 72,
      "start": 38.9923,
      "duration": 0.0144,
      "velocity": 127,
      "chip": "ym2612"
    },
    {
      "channel": 0,
      "note": 36,
      "start": 38.9965,
      "duration": 0.012,
      "velocity": 115,
      "chip": "ym2612"
    },
    {
      "channel": 5,
      "note": 80,
      "start": 38.998,
      "duration": 0.012,
      "velocity": 89,
      "chip": "ym2612"
    },
    {
      "channel": 3,
      "note": 80,
      "start": 38.9995,
      "duration": 0.0125,
      "velocity": 89,
      "chip": "ym2612"
    },
    {
      "channel": 2,
      "note": 76,
      "start": 39.001,
      "duration": 0.0123,
      "velocity": 105,
      "chip": "ym2612"
    },
    {
      "channel": 4,
      "note": 55,
      "start": 39.0025,
      "duration": 0.012,
      "velocity": 100,
      "chip": "ym2612"
    },
    {
      "channel": 1,
      "note": 72,
      "start": 39.0067,
      "duration": 0.0161,
      "velocity": 127,
      "chip": "ym2612"
    },
    {
      "channel": 0,
      "note": 36,
      "start": 39.0085,
      "duration": 0.016,
      "velocity": 115,
      "chip": "ym2612"
    },
    {
      "channel": 5,
      "note": 78,
      "start": 39.0099,
      "duration": 0.016,
      "velocity": 89,
      "chip": "ym2612"
    },
    {
      "channel": 3,
      "note": 78,
      "start": 39.012,
      "duration": 0.016,
      "velocity": 89,
      "chip": "ym2612"
    },
    {
      "channel": 2,
      "note": 76,
      "start": 39.0132,
      "duration": 0.016,
      "velocity": 105,
      "chip": "ym2612"
    },
    {
      "channel": 4,
      "note": 55,
      "start": 39.0145,
      "duration": 0.016,
      "velocity": 100,
      "chip": "ym2612"
    },
    {
      "channel": 1,
      "note": 72,
      "start": 39.0228,
      "duration": 0.0161,
      "velocity": 127,
      "chip": "ym2612"
    },
    {
      "channel": 0,
      "note": 37,
      "start": 39.0244,
      "duration": 0.0161,
      "velocity": 115,
      "chip": "ym2612"
    },
    {
      "channel": 5,
      "note": 80,
      "start": 39.026,
      "duration": 0.016,
      "velocity": 89,
      "chip": "ym2612"
    },
    {
      "channel": 3,
      "note": 80,
      "start": 39.0281,
      "duration": 0.0154,
      "velocity": 89,
      "chip": "ym2612"
    },
    {
      "channel": 2,
      "note": 76,
      "start": 39.0293,
      "duration": 0.016,
      "velocity": 105,
      "chip": "ym2612"
    },
    {
      "channel": 4,
      "note": 55,
      "start": 39.0304,
      "duration": 0.016,
      "velocity": 100,
      "chip": "ym2612"
    },
    {
      "channel": 1,
      "note": 72,
      "start": 39.0389,
      "duration": 0.0161,
      "velocity": 127,
      "chip": "ym2612"
    },
    {
      "channel": 0,
      "note": 37,
      "start": 39.0405,
      "duration": 0.0161,
      "velocity": 115,
      "chip": "ym2612"
    },
    {
      "channel": 5,
      "note": 78,
      "start": 39.042,
      "duration": 0.0162,
      "velocity": 89,
      "chip": "ym2612"
    },
    {
      "channel": 3,
      "note": 78,
      "start": 39.0435,
      "duration": 0.0162,
      "velocity": 89,
      "chip": "ym2612"
    },
    {
      "channel": 2,
      "note": 76,
      "start": 39.0452,
      "duration": 0.0162,
      "velocity": 105,
      "chip": "ym2612"
    },
    {
      "channel": 4,
      "note": 55,
      "start": 39.0464,
      "duration": 0.0162,
      "velocity": 100,
      "chip": "ym2612"
    },
    {
      "channel": 1,
      "note": 72,
      "start": 39.055,
      "duration": 0.0161,
      "velocity": 127,
      "chip": "ym2612"
    },
    {
      "channel": 0,
      "note": 38,
      "start": 39.0566,
      "duration": 0.0162,
      "velocity": 115,
      "chip": "ym2612"
    },
    {
      "channel": 5,
      "note": 80,
      "start": 39.0582,
      "duration": 0.016,
      "velocity": 89,
      "chip": "ym2612"
    },
    {
      "channel": 3,
      "note": 80,
      "start": 39.0597,
      "duration": 0.016,
      "velocity": 89,
      "chip": "ym2612"
    },
    {
      "channel": 4,
      "note": 55,
      "start": 39.0626,
      "duration": 0.016,
      "velocity": 100,
      "chip": "ym2612"
    },
    {
      "channel": 1,
      "note": 72,
      "start": 39.0711,
      "duration": 0.0161,
      "velocity": 127,
      "chip": "ym2612"
    },
    {
      "channel": 0,
      "note": 38,
      "start": 39.0728,
      "duration": 0.0161,
      "velocity": 115,
      "chip": "ym2612"
    },
    {
      "channel": 5,
      "note": 78,
      "start": 39.0743,
      "duration": 0.0161,
      "velocity": 89,
      "chip": "ym2612"
    },
    {
      "channel": 3,
      "note": 78,
      "start": 39.0757,
      "duration": 0.0162,
      "velocity": 89,
      "chip": "ym2612"
    },
    {
      "channel": 4,
      "note": 55,
      "start": 39.0786,
      "duration": 0.0162,
      "velocity": 100,
      "chip": "ym2612"
    },
    {
      "channel": 1,
      "note": 72,
      "start": 39.0872,
      "duration": 0.0161,
      "velocity": 127,
      "chip": "ym2612"
    },
    {
      "channel": 0,
      "note": 39,
      "start": 39.0889,
      "duration": 0.0161,
      "velocity": 115,
      "chip": "ym2612"
    },
    {
      "channel": 5,
      "note": 80,
      "start": 39.0904,
      "duration": 0.016,
      "velocity": 89,
      "chip": "ym2612"
    },
    {
      "channel": 3,
      "note": 80,
      "start": 39.0919,
      "duration": 0.0159,
      "velocity": 89,
      "chip": "ym2612"
    },
    {
      "channel": 4,
      "note": 55,
      "start": 39.0948,
      "duration": 0.0163,
      "velocity": 100,
      "chip": "ym2612"
    },
    {
      "channel": 1,
      "note": 72,
      "start": 39.1033,
      "duration": 0.0161,
      "velocity": 127,
      "chip": "ym2612"
    },
    {
      "channel": 0,
      "note": 39,
      "start": 39.105,
      "duration": 0.0161,
      "velocity": 115,
      "chip": "ym2612"
    },
    {
      "channel": 5,
      "note": 78,
      "start": 39.1064,
      "duration": 0.0161,
      "velocity": 89,
      "chip": "ym2612"
    },
    {
      "channel": 3,
      "note": 78,
      "start": 39.1079,
      "duration": 0.0161,
      "velocity": 89,
      "chip": "ym2612"
    },
    {
      "channel": 2,
      "note": 76,
      "start": 39.1094,
      "duration": 0.016,
      "velocity": 105,
      "chip": "ym2612"
    },
    {
      "channel": 4,
      "note": 55,
      "start": 39.1112,
      "duration": 0.0154,
      "velocity": 100,
      "chip": "ym2612"
    },
    {
      "channel": 1,
      "note": 72,
      "start": 39.1194,
      "duration": 0.0161,
      "velocity": 127,
      "chip": "ym2612"
    },
    {
      "channel": 0,
      "note": 40,
      "start": 39.1211,
      "duration": 0.0161,
      "velocity": 115,
      "chip": "ym2612"
    },
    {
      "channel": 5,
      "note": 80,
      "start": 39.1226,
      "duration": 0.016,
      "velocity": 89,
      "chip": "ym2612"
    },
    {
      "channel": 3,
      "note": 80,
      "start": 39.1241,
      "duration": 0.0159,
      "velocity": 89,
      "chip": "ym2612"
    },
    {
      "channel": 2,
      "note": 76,
      "start": 39.1253,
      "duration": 0.0159,
      "velocity": 105,
      "chip": "ym2612"
    },
    {
      "channel": 4,
      "note": 55,
      "start": 39.1266,
      "duration": 0.0159,
      "velocity": 100,
      "chip": "ym2612"
    },
    {
      "channel": 1,
      "note": 72,
      "start": 39.1354,
      "duration": 0.0161,
      "velocity": 127,
      "chip": "ym2612"
    },
    {
      "channel": 0,
      "note": 40,
      "start": 39.1372,
      "duration": 0.0161,
      "velocity": 115,
      "chip": "ym2612"
    },
    {
      "channel": 5,
      "note": 78,
      "start": 39.1386,
      "duration": 0.0161,
      "velocity": 89,
      "chip": "ym2612"
    },
    {
      "channel": 3,
      "note": 78,
      "start": 39.1401,
      "duration": 0.0162,
      "velocity": 89,
      "chip": "ym2612"
    },
    {
      "channel": 2,
      "note": 76,
      "start": 39.1412,
      "duration": 0.0162,
      "velocity": 105,
      "chip": "ym2612"
    },
    {
      "channel": 4,
      "note": 55,
      "start": 39.1424,
      "duration": 0.0161,
      "velocity": 100,
      "chip": "ym2612"
    },
    {
      "channel": 1,
      "note": 72,
      "start": 39.1515,
      "duration": 0.0162,
      "velocity": 127,
      "chip": "ym2612"
    },
    {
      "channel": 0,
      "note": 40,
      "start": 39.1533,
      "duration": 0.0161,
      "velocity": 115,
      "chip": "ym2612"
    },
    {
      "channel": 5,
      "note": 80,
      "start": 39.1548,
      "duration": 0.016,
      "velocity": 89,
      "chip": "ym2612"
    },
    {
      "channel": 3,
      "note": 80,
      "start": 39.1563,
      "duration": 0.016,
      "velocity": 89,
      "chip": "ym2612"
    },
    {
      "channel": 2,
      "note": 76,
      "start": 39.1575,
      "duration": 0.016,
      "velocity": 105,
      "chip": "ym2612"
    },
    {
      "channel": 4,
      "note": 55,
      "start": 39.1586,
      "duration": 0.016,
      "velocity": 100,
      "chip": "ym2612"
    },
    {
      "channel": 1,
      "note": 72,
      "start": 39.1677,
      "duration": 0.0161,
      "velocity": 127,
      "chip": "ym2612"
    },
    {
      "channel": 0,
      "note": 41,
      "start": 39.1694,
      "duration": 0.0161,
      "velocity": 115,
      "chip": "ym2612"
    },
    {
      "channel": 5,
      "note": 78,
      "start": 39.1708,
      "duration": 0.0162,
      "velocity": 89,
      "chip": "ym2612"
    },
    {
      "channel": 3,
      "note": 78,
      "start": 39.1723,
      "duration": 0.0162,
      "velocity": 89,
      "chip": "ym2612"
    },
    {
      "channel": 4,
      "note": 55,
      "start": 39.1746,
      "duration": 0.0162,
      "velocity": 100,
      "chip": "ym2612"
    },
    {
      "channel": 1,
      "note": 72,
      "start": 39.1838,
      "duration": 0.0161,
      "velocity": 127,
      "chip": "ym2612"
    },
    {
      "channel": 0,
      "note": 41,
      "start": 39.1854,
      "duration": 0.0161,
      "velocity": 115,
      "chip": "ym2612"
    },
    {
      "channel": 5,
      "note": 80,
      "start": 39.187,
      "duration": 0.016,
      "velocity": 89,
      "chip": "ym2612"
    },
    {
      "channel": 3,
      "note": 80,
      "start": 39.1885,
      "duration": 0.016,
      "velocity": 89,
      "chip": "ym2612"
    },
    {
      "channel": 4,
      "note": 55,
      "start": 39.1909,
      "duration": 0.016,
      "velocity": 100,
      "chip": "ym2612"
    },
    {
      "channel": 1,
      "note": 72,
      "start": 39.1999,
      "duration": 0.0178,
      "velocity": 127,
      "chip": "ym2612"
    },
    {
      "channel": 0,
      "note": 42,
      "start": 39.2015,
      "duration": 0.0197,
      "velocity": 115,
      "chip": "ym2612"
    },
    {
      "channel": 5,
      "note": 78,
      "start": 39.203,
      "duration": 0.0198,
      "velocity": 89,
      "chip": "ym2612"
    },
    {
      "channel": 3,
      "note": 78,
      "start": 39.2045,
      "duration": 0.0198,
      "velocity": 89,
      "chip": "ym2612"
    },
    {
      "channel": 4,
      "note": 55,
      "start": 39.2068,
      "duration": 0.021,
      "velocity": 100,
      "chip": "ym2612"
    },
    {
      "channel": 1,
      "note": 72,
      "start": 39.2178,
      "duration": 0.0144,
      "velocity": 127,
      "chip": "ym2612"
    },
    {
      "channel": 0,
      "note": 36,
      "start": 39.2213,
      "duration": 0.0126,
      "velocity": 115,
      "chip": "ym2612"
    },
    {
      "channel": 5,
      "note": 80,
      "start": 39.2229,
      "duration": 0.0125,
      "velocity": 89,
      "chip": "ym2612"
    },
    {
      "channel": 3,
      "note": 80,
      "start": 39.2243,
      "duration": 0.0125,
      "velocity": 89,
      "chip": "ym2612"
    },
    {
      "channel": 2,
      "note": 76,
      "start": 39.2259,
      "duration": 0.0121,
      "velocity": 105,
      "chip": "ym2612"
    },
    {
      "channel": 4,
      "note": 54,
      "start": 39.2279,
      "duration": 0.0114,
      "velocity": 100,
      "chip": "ym2612"
    },
    {
      "channel": 1,
      "note": 72,
      "start": 39.2321,
      "duration": 0.016,
      "velocity": 127,
      "chip": "ym2612"
    },
    {
      "channel": 0,
      "note": 36,
      "start": 39.2339,
      "duration": 0.016,
      "velocity": 115,
      "chip": "ym2612"
    },
    {
      "channel": 5,
      "note": 78,
      "start": 39.2354,
      "duration": 0.016,
      "velocity": 89,
      "chip": "ym2612"
    },
    {
      "channel": 3,
      "note": 78,
      "start": 39.2368,
      "duration": 0.016,
      "velocity": 89,
      "chip": "ym2612"
    },
    {
      "channel": 2,
      "note": 76,
      "start": 39.238,
      "duration": 0.016,
      "velocity": 105,
      "chip": "ym2612"
    },
    {
      "channel": 4,
      "note": 54,
      "start": 39.2393,
      "duration": 0.016,
      "velocity": 100,
      "chip": "ym2612"
    },
    {
      "channel": 1,
      "note": 72,
      "start": 39.2482,
      "duration": 0.0161,
      "velocity": 127,
      "chip": "ym2612"
    },
    {
      "channel": 0,
      "note": 37,
      "start": 39.2499,
      "duration": 0.0161,
      "velocity": 115,
      "chip": "ym2612"
    },
    {
      "channel": 5,
      "note": 80,
      "start": 39.2514,
      "duration": 0.016,
      "velocity": 89,
      "chip": "ym2612"
    },
    {
      "channel": 3,
      "note": 80,
      "start": 39.2529,
      "duration": 0.0159,
      "velocity": 89,
      "chip": "ym2612"
    },
    {
      "channel": 2,
      "note": 76,
      "start": 39.2541,
      "duration": 0.016,
      "velocity": 105,
      "chip": "ym2612"
    },
    {
      "channel": 4,
      "note": 54,
      "start": 39.2552,
      "duration": 0.016,
      "velocity": 100,
      "chip": "ym2612"
    },
    {
      "channel": 1,
      "note": 72,
      "start": 39.2643,
      "duration": 0.0161,
      "velocity": 127,
      "chip": "ym2612"
    },
    {
      "channel": 0,
      "note": 37,
      "start": 39.266,
      "duration": 0.0161,
      "velocity": 115,
      "chip": "ym2612"
    },
    {
      "channel": 5,
      "note": 78,
      "start": 39.2674,
      "duration": 0.0161,
      "velocity": 89,
      "chip": "ym2612"
    },
    {
      "channel": 3,
      "note": 78,
      "start": 39.2689,
      "duration": 0.0161,
      "velocity": 89,
      "chip": "ym2612"
    },
    {
      "channel": 2,
      "note": 76,
      "start": 39.27,
      "duration": 0.0162,
      "velocity": 105,
      "chip": "ym2612"
    },
    {
      "channel": 4,
      "note": 54,
      "start": 39.2712,
      "duration": 0.0162,
      "velocity": 100,
      "chip": "ym2612"
    },
    {
      "channel": 1,
      "note": 72,
      "start": 39.2804,
      "duration": 0.0161,
      "velocity": 127,
      "chip": "ym2612"
    },
    {
      "channel": 0,
      "note": 38,
      "start": 39.2821,
      "duration": 0.0161,
      "velocity": 115,
      "chip": "ym2612"
    },
    {
      "channel": 5,
      "note": 80,
      "start": 39.2836,
      "duration": 0.016,
      "velocity": 89,
      "chip": "ym2612"
    },
    {
      "channel": 3,
      "note": 80,
      "start": 39.2851,
      "duration": 0.016,
      "velocity": 89,
      "chip": "ym2612"
    },
    {
      "channel": 2,
      "note": 76,
      "start": 39.2863,
      "duration": 0.016,
      "velocity": 105,
      "chip": "ym2612"
    },
    {
      "channel": 4,
      "note": 54,
      "start": 39.2874,
      "duration": 0.016,
      "velocity": 100,
      "chip": "ym2612"
    },
    {
      "channel": 1,
      "note": 72,
      "start": 39.2965,
      "duration": 0.0162,
      "velocity": 127,
      "chip": "ym2612"
    },
    {
      "channel": 0,
      "note": 38,
      "start": 39.2982,
      "duration": 0.0162,
      "velocity": 115,
      "chip": "ym2612"
    },
    {
      "channel": 5,
      "note": 78,
      "start": 39.2996,
      "duration": 0.0162,
      "velocity": 89,
      "chip": "ym2612"
    },
    {
      "channel": 3,
      "note": 78,
      "start": 39.3011,
      "duration": 0.0163,
      "velocity": 89,
      "chip": "ym2612"
    },
    {
      "channel": 2,
      "note": 76,
      "start": 39.3022,
      "duration": 0.0163,
      "velocity": 105,
      "chip": "ym2612"
    },
    {
      "channel": 4,
      "note": 54,
      "start": 39.3034,
      "duration": 0.0163,
      "velocity": 100,
      "chip": "ym2612"
    },
    {
      "channel": 1,
      "note": 72,
      "start": 39.3127,
      "duration": 0.0164,
      "velocity": 127,
      "chip": "ym2612"
    },
    {
      "channel": 0,
      "note": 39,
      "start": 39.3143,
      "duration": 0.0164,
      "velocity": 115,
      "chip": "ym2612"
    },
    {
      "channel": 5,
      "note": 80,
      "start": 39.3159,
      "duration": 0.0163,
      "velocity": 89,
      "chip": "ym2612"
    },
    {
      "channel": 3,
      "note": 80,
      "start": 39.3174,
      "duration": 0.0163,
      "velocity": 89,
      "chip": "ym2612"
    },
    {
      "channel": 2,
      "note": 76,
      "start": 39.3185,
      "duration": 0.0163,
      "velocity": 105,
      "chip": "ym2612"
    },
    {
      "channel": 4,
      "note": 54,
      "start": 39.3197,
      "duration": 0.0163,
      "velocity": 100,
      "chip": "ym2612"
    },
    {
      "channel": 1,
      "note": 72,
      "start": 39.3291,
      "duration": 0.0163,
      "velocity": 127,
      "chip": "ym2612"
    },
    {
      "channel": 0,
      "note": 39,
      "start": 39.3307,
      "duration": 0.0163,
      "velocity": 115,
      "chip": "ym2612"
    },
    {
      "channel": 5,
      "note": 78,
      "start": 39.3322,
      "duration": 0.0163,
      "velocity": 89,
      "chip": "ym2612"
    },
    {
      "channel": 3,
      "note": 78,
      "start": 39.3337,
      "duration": 0.0164,
      "velocity": 89,
      "chip": "ym2612"
    },
    {
      "channel": 2,
      "note": 76,
      "start": 39.3349,
      "duration": 0.0164,
      "velocity": 105,
      "chip": "ym2612"
    },
    {
      "channel": 4,
      "note": 54,
      "start": 39.3361,
      "duration": 0.0164,
      "velocity": 100,
      "chip": "ym2612"
    },
    {
      "channel": 1,
      "note": 72,
      "start": 39.3454,
      "duration": 0.016,
      "velocity": 127,
      "chip": "ym2612"
    },
    {
      "channel": 0,
      "note": 40,
      "start": 39.3471,
      "duration": 0.0161,
      "velocity": 115,
      "chip": "ym2612"
    },
    {
      "channel": 5,
      "note": 80,
      "start": 39.3485,
      "duration": 0.016,
      "velocity": 89,
      "chip": "ym2612"
    },
    {
      "channel": 3,
      "note": 80,
      "start": 39.3501,
      "duration": 0.016,
      "velocity": 89,
      "chip": "ym2612"
    },
    {
      "channel": 2,
      "note": 76,
      "start": 39.3513,
      "duration": 0.016,
      "velocity": 105,
      "chip": "ym2612"
    },
    {
      "channel": 4,
      "note": 54,
      "start": 39.3525,
      "duration": 0.016,
      "velocity": 100,
      "chip": "ym2612"
    },
    {
      "channel": 1,
      "note": 72,
      "start": 39.3614,
      "duration": 0.0158,
      "velocity": 127,
      "chip": "ym2612"
    },
    {
      "channel": 0,
      "note": 40,
      "start": 39.3632,
      "duration": 0.0161,
      "velocity": 115,
      "chip": "ym2612"
    },
    {
      "channel": 5,
      "note": 78,
      "start": 39.3646,
      "duration": 0.0162,
      "velocity": 89,
      "chip": "ym2612"
    },
    {
      "channel": 3,
      "note": 78,
      "start": 39.3661,
      "duration": 0.0162,
      "velocity": 89,
      "chip": "ym2612"
    },
    {
      "channel": 2,
      "note": 76,
      "start": 39.3673,
      "duration": 0.0162,
      "velocity": 105,
      "chip": "ym2612"
    },
    {
      "channel": 4,
      "note": 54,
      "start": 39.3685,
      "duration": 0.0162,
      "velocity": 100,
      "chip": "ym2612"
    },
    {
      "channel": 1,
      "note": 72,
      "start": 39.3772,
      "duration": 0.0159,
      "velocity": 127,
      "chip": "ym2612"
    },
    {
      "channel": 0,
      "note": 40,
      "start": 39.3793,
      "duration": 0.0162,
      "velocity": 115,
      "chip": "ym2612"
    },
    {
      "channel": 5,
      "note": 80,
      "start": 39.3808,
      "duration": 0.016,
      "velocity": 89,
      "chip": "ym2612"
    },
    {
      "channel": 3,
      "note": 80,
      "start": 39.3823,
      "duration": 0.016,
      "velocity": 89,
      "chip": "ym2612"
    },
    {
      "channel": 2,
      "note": 76,
      "start": 39.3835,
      "duration": 0.016,
      "velocity": 105,
      "chip": "ym2612"
    },
    {
      "channel": 4,
      "note": 54,
      "start": 39.3847,
      "duration": 0.016,
      "velocity": 100,
      "chip": "ym2612"
    },
    {
      "channel": 1,
      "note": 72,
      "start": 39.3931,
      "duration": 0.0161,
      "velocity": 127,
      "chip": "ym2612"
    },
    {
      "channel": 0,
      "note": 41,
      "start": 39.3954,
      "duration": 0.016,
      "velocity": 115,
      "chip": "ym2612"
    },
    {
      "channel": 5,
      "note": 78,
      "start": 39.3969,
      "duration": 0.0161,
      "velocity": 89,
      "chip": "ym2612"
    },
    {
      "channel": 3,
      "note": 78,
      "start": 39.3984,
      "duration": 0.0161,
      "velocity": 89,
      "chip": "ym2612"
    },
    {
      "channel": 4,
      "note": 54,
      "start": 39.4007,
      "duration": 0.0162,
      "velocity": 100,
      "chip": "ym2612"
    },
    {
      "channel": 1,
      "note": 72,
      "start": 39.4092,
      "duration": 0.0161,
      "velocity": 127,
      "chip": "ym2612"
    },
    {
      "channel": 0,
      "note": 41,
      "start": 39.4115,
      "duration": 0.0157,
      "velocity": 115,
      "chip": "ym2612"
    },
    {
      "channel": 5,
      "note": 80,
      "start": 39.413,
      "duration": 0.016,
      "velocity": 89,
      "chip": "ym2612"
    },
    {
      "channel": 3,
      "note": 80,
      "start": 39.4145,
      "duration": 0.016,
      "velocity": 89,
      "chip": "ym2612"
    },
    {
      "channel": 4,
      "note": 54,
      "start": 39.4169,
      "duration": 0.016,
      "velocity": 100,
      "chip": "ym2612"
    },
    {
      "channel": 1,
      "note": 72,
      "start": 39.4253,
      "duration": 0.0179,
      "velocity": 127,
      "chip": "ym2612"
    },
    {
      "channel": 0,
      "note": 42,
      "start": 39.4272,
      "duration": 0.0202,
      "velocity": 124,
      "chip": "ym2612"
    },
    {
      "channel": 5,
      "note": 78,
      "start": 39.429,
      "duration": 0.0198,
      "velocity": 89,
      "chip": "ym2612"
    },
    {
      "channel": 3,
      "note": 78,
      "start": 39.4305,
      "duration": 0.0199,
      "velocity": 89,
      "chip": "ym2612"
    },
    {
      "channel": 4,
      "note": 54,
      "start": 39.4328,
      "duration": 0.0205,
      "velocity": 100,
      "chip": "ym2612"
    },
    {
      "channel": 1,
      "note": 79,
      "start": 39.4432,
      "duration": 0.0144,
      "velocity": 127,
      "chip": "ym2612"
    },
    {
      "channel": 0,
      "note": 84,
      "start": 39.4473,
      "duration": 0.012,
      "velocity": 124,
      "chip": "ym2612"
    },
    {
      "channel": 5,
      "note": 80,
      "start": 39.4489,
      "duration": 0.0124,
      "velocity": 89,
      "chip": "ym2612"
    },
    {
      "channel": 3,
      "note": 80,
      "start": 39.4504,
      "duration": 0.0124,
      "velocity": 89,
      "chip": "ym2612"
    },
    {
      "channel": 2,
      "note": 76,
      "start": 39.4519,
      "duration": 0.0122,
      "velocity": 105,
      "chip": "ym2612"
    },
    {
      "channel": 4,
      "note": 52,
      "start": 39.4534,
      "duration": 0.0119,
      "velocity": 100,
      "chip": "ym2612"
    },
    {
      "channel": 1,
      "note": 79,
      "start": 39.4576,
      "duration": 0.016,
      "velocity": 127,
      "chip": "ym2612"
    },
    {
      "channel": 0,
      "note": 82,
      "start": 39.4593,
      "duration": 0.016,
      "velocity": 124,
      "chip": "ym2612"
    },
    {
      "channel": 5,
      "note": 78,
      "start": 39.4613,
      "duration": 0.0156,
      "velocity": 89,
      "chip": "ym2612"
    },
    {
      "channel": 3,
      "note": 78,
      "start": 39.4629,
      "duration": 0.016,
      "velocity": 89,
      "chip": "ym2612"
    },
    {
      "channel": 2,
      "note": 76,
      "start": 39.4641,
      "duration": 0.016,
      "velocity": 105,
      "chip": "ym2612"
    },
    {
      "channel": 4,
      "note": 52,
      "start": 39.4653,
      "duration": 0.016,
      "velocity": 100,
      "chip": "ym2612"
    },
    {
      "channel": 1,
      "note": 79,
      "start": 39.4736,
      "duration": 0.0161,
      "velocity": 127,
      "chip": "ym2612"
    },
    {
      "channel": 0,
      "note": 80,
      "start": 39.4753,
      "duration": 0.0161,
      "velocity": 124,
      "chip": "ym2612"
    },
    {
      "channel": 5,
      "note": 80,
      "start": 39.4771,
      "duration": 0.0158,
      "velocity": 89,
      "chip": "ym2612"
    },
    {
      "channel": 3,
      "note": 80,
      "start": 39.479,
      "duration": 0.0159,
      "velocity": 89,
      "chip": "ym2612"
    },
    {
      "channel": 2,
      "note": 76,
      "start": 39.4801,
      "duration": 0.016,
      "velocity": 105,
      "chip": "ym2612"
    },
    {
      "channel": 4,
      "note": 52,
      "start": 39.4812,
      "duration": 0.016,
      "velocity": 100,
      "chip": "ym2612"
    },
    {
      "channel": 1,
      "note": 79,
      "start": 39.4897,
      "duration": 0.0161,
      "velocity": 127,
      "chip": "ym2612"
    },
    {
      "channel": 0,
      "note": 77,
      "start": 39.4914,
      "duration": 0.0161,
      "velocity": 124,
      "chip": "ym2612"
    },
    {
      "channel": 5,
      "note": 78,
      "start": 39.4929,
      "duration": 0.0161,
      "velocity": 89,
      "chip": "ym2612"
    },
    {
      "channel": 3,
      "note": 78,
      "start": 39.4949,
      "duration": 0.0162,
      "velocity": 89,
      "chip": "ym2612"
    },
    {
      "channel": 2,
      "note": 76,
      "start": 39.4961,
      "duration": 0.0163,
      "velocity": 105,
      "chip": "ym2612"
    },
    {
      "channel": 4,
      "note": 52,
      "start": 39.4972,
      "duration": 0.0163,
      "velocity": 100,
      "chip": "ym2612"
    },
    {
      "channel": 1,
      "note": 79,
      "start": 39.5058,
      "duration": 0.0161,
      "velocity": 127,
      "chip": "ym2612"
    },
    {
      "channel": 0,
      "note": 75,
      "start": 39.5075,
      "duration": 0.0161,
      "velocity": 124,
      "chip": "ym2612"
    },
    {
      "channel": 5,
      "note": 80,
      "start": 39.509,
      "duration": 0.016,
      "velocity": 89,
      "chip": "ym2612"
    },
    {
      "channel": 3,
      "note": 80,
      "start": 39.5111,
      "duration": 0.0154,
      "velocity": 89,
      "chip": "ym2612"
    },
    {
      "channel": 4,
      "note": 52,
      "start": 39.5135,
      "duration": 0.0159,
      "velocity": 100,
      "chip": "ym2612"
    },
    {
      "channel": 1,
      "note": 79,
      "start": 39.5219,
      "duration": 0.0161,
      "velocity": 127,
      "chip": "ym2612"
    },
    {
      "channel": 0,
      "note": 72,
      "start": 39.5236,
      "duration": 0.0161,
      "velocity": 124,
      "chip": "ym2612"
    },
    {
      "channel": 5,
      "note": 78,
      "start": 39.5251,
      "duration": 0.0161,
      "velocity": 89,
      "chip": "ym2612"
    },
    {
      "channel": 3,
      "note": 78,
      "start": 39.5266,
      "duration": 0.0161,
      "velocity": 89,
      "chip": "ym2612"
    },
    {
      "channel": 4,
      "note": 52,
      "start": 39.5294,
      "duration": 0.0162,
      "velocity": 100,
      "chip": "ym2612"
    },
    {
      "channel": 1,
      "note": 79,
      "start": 39.538,
      "duration": 0.0161,
      "velocity": 127,
      "chip": "ym2612"
    },
    {
      "channel": 0,
      "note": 70,
      "start": 39.5397,
      "duration": 0.0161,
      "velocity": 124,
      "chip": "ym2612"
    },
    {
      "channel": 5,
      "note": 80,
      "start": 39.5412,
      "duration": 0.016,
      "velocity": 89,
      "chip": "ym2612"
    },
    {
      "channel": 3,
      "note": 80,
      "start": 39.5428,
      "duration": 0.0159,
      "velocity": 89,
      "chip": "ym2612"
    },
    {
      "channel": 4,
      "note": 52,
      "start": 39.5456,
      "duration": 0.0164,
      "velocity": 100,
      "chip": "ym2612"
    },
    {
      "channel": 1,
      "note": 79,
      "start": 39.5541,
      "duration": 0.0161,
      "velocity": 127,
      "chip": "ym2612"
    },
    {
      "channel": 0,
      "note": 68,
      "start": 39.5558,
      "duration": 0.0161,
      "velocity": 124,
      "chip": "ym2612"
    },
    {
      "channel": 5,
      "note": 78,
      "start": 39.5573,
      "duration": 0.0161,
      "velocity": 89,
      "chip": "ym2612"
    },
    {
      "channel": 3,
      "note": 78,
      "start": 39.5587,
      "duration": 0.0162,
      "velocity": 89,
      "chip": "ym2612"
    },
    {
      "channel": 2,
      "note": 76,
      "start": 39.5604,
      "duration": 0.0158,
      "velocity": 105,
      "chip": "ym2612"
    },
    {
      "channel": 4,
      "note": 52,
      "start": 39.562,
      "duration": 0.0159,
      "velocity": 100,
      "chip": "ym2612"
    },
    {
      "channel": 1,
      "note": 79,
      "start": 39.5702,
      "duration": 0.0161,
      "velocity": 127,
      "chip": "ym2612"
    },
    {
      "channel": 0,
      "note": 65,
      "start": 39.5719,
      "duration": 0.0161,
      "velocity": 124,
      "chip": "ym2612"
    },
    {
      "channel": 5,
      "note": 80,
      "start": 39.5734,
      "duration": 0.016,
      "velocity": 89,
      "chip": "ym2612"
    },
    {
      "channel": 3,
      "note": 80,
      "start": 39.5749,
      "duration": 0.016,
      "velocity": 89,
      "chip": "ym2612"
    },
    {
      "channel": 2,
      "note": 76,
      "start": 39.5762,
      "duration": 0.016,
      "velocity": 105,
      "chip": "ym2612"
    },
    {
      "channel": 4,
      "note": 52,
      "start": 39.5779,
      "duration": 0.0154,
      "velocity": 100,
      "chip": "ym2612"
    },
    {
      "channel": 1,
      "note": 79,
      "start": 39.5863,
      "duration": 0.0161,
      "velocity": 127,
      "chip": "ym2612"
    },
    {
      "channel": 0,
      "note": 63,
      "start": 39.588,
      "duration": 0.0153,
      "velocity": 1,
      "chip": "ym2612"
    },
    {
      "channel": 5,
      "note": 78,
      "start": 39.5895,
      "duration": 0.0153,
      "velocity": 89,
      "chip": "ym2612"
    },
    {
      "channel": 3,
      "note": 78,
      "start": 39.5909,
      "duration": 0.0153,
      "velocity": 89,
      "chip": "ym2612"
    },
    {
      "channel": 2,
      "note": 76,
      "start": 39.5921,
      "duration": 0.0153,
      "velocity": 105,
      "chip": "ym2612"
    },
    {
      "channel": 4,
      "note": 52,
      "start": 39.5933,
      "duration": 0.0153,
      "velocity": 100,
      "chip": "ym2612"
    },
    {
      "channel": 1,
      "note": 79,
      "start": 39.6024,
      "duration": 0.0161,
      "velocity": 127,
      "chip": "ym2612"
    },
    {
      "channel": 5,
      "note": 80,
      "start": 39.6048,
      "duration": 0.0151,
      "velocity": 89,
      "chip": "ym2612"
    },
    {
      "channel": 3,
      "note": 80,
      "start": 39.6063,
      "duration": 0.0151,
      "velocity": 89,
      "chip": "ym2612"
    },
    {
      "channel": 2,
      "note": 76,
      "start": 39.6075,
      "duration": 0.0151,
      "velocity": 105,
      "chip": "ym2612"
    },
    {
      "channel": 4,
      "note": 52,
      "start": 39.6086,
      "duration": 0.0152,
      "velocity": 100,
      "chip": "ym2612"
    },
    {
      "channel": 1,
      "note": 79,
      "start": 39.6185,
      "duration": 0.0161,
      "velocity": 127,
      "chip": "ym2612"
    },
    {
      "channel": 5,
      "note": 78,
      "start": 39.62,
      "duration": 0.0161,
      "velocity": 89,
      "chip": "ym2612"
    },
    {
      "channel": 3,
      "note": 78,
      "start": 39.6215,
      "duration": 0.0162,
      "velocity": 89,
      "chip": "ym2612"
    },
    {
      "channel": 4,
      "note": 52,
      "start": 39.6238,
      "duration": 0.0161,
      "velocity": 100,
      "chip": "ym2612"
    },
    {
      "channel": 1,
      "note": 79,
      "start": 39.6346,
      "duration": 0.0161,
      "velocity": 127,
      "chip": "ym2612"
    },
    {
      "channel": 5,
      "note": 80,
      "start": 39.6361,
      "duration": 0.016,
      "velocity": 89,
      "chip": "ym2612"
    },
    {
      "channel": 3,
      "note": 80,
      "start": 39.6377,
      "duration": 0.016,
      "velocity": 89,
      "chip": "ym2612"
    },
    {
      "channel": 4,
      "note": 52,
      "start": 39.64,
      "duration": 0.016,
      "velocity": 100,
      "chip": "ym2612"
    },
    {
      "channel": 1,
      "note": 79,
      "start": 39.6507,
      "duration": 0.0179,
      "velocity": 127,
      "chip": "ym2612"
    },
    {
      "channel": 5,
      "note": 78,
      "start": 39.6522,
      "duration": 0.0215,
      "velocity": 89,
      "chip": "ym2612"
    },
    {
      "channel": 3,
      "note": 78,
      "start": 39.6537,
      "duration": 0.0214,
      "velocity": 89,
      "chip": "ym2612"
    },
    {
      "channel": 4,
      "note": 52,
      "start": 39.656,
      "duration": 0.0229,
      "velocity": 100,
      "chip": "ym2612"
    },
    {
      "channel": 1,
      "note": 79,
      "start": 39.6686,
      "duration": 0.0144,
      "velocity": 127,
      "chip": "ym2612"
    },
    {
      "channel": 0,
      "note": 36,
      "start": 39.6722,
      "duration": 0.0126,
      "velocity": 115,
      "chip": "ym2612"
    },
    {
      "channel": 5,
      "note": 80,
      "start": 39.6737,
      "duration": 0.0125,
      "velocity": 89,
      "chip": "ym2612"
    },
    {
      "channel": 3,
      "note": 78,
      "start": 39.6751,
      "duration": 0.0123,
      "velocity": 89,
      "chip": "ym2612"
    },
    {
      "channel": 2,
      "note": 76,
      "start": 39.6767,
      "duration": 0.012,
      "velocity": 105,
      "chip": "ym2612"
    },
    {
      "channel": 4,
      "note": 50,
      "start": 39.6789,
      "duration": 0.011,
      "velocity": 100,
      "chip": "ym2612"
    },
    {
      "channel": 1,
      "note": 79,
      "start": 39.683,
      "duration": 0.016,
      "velocity": 127,
      "chip": "ym2612"
    },
    {
      "channel": 0,
      "note": 36,
      "start": 39.6847,
      "duration": 0.016,
      "velocity": 115,
      "chip": "ym2612"
    },
    {
      "channel": 5,
      "note": 78,
      "start": 39.6862,
      "duration": 0.016,
      "velocity": 89,
      "chip": "ym2612"
    },
    {
      "channel": 3,
      "note": 78,
      "start": 39.6874,
      "duration": 0.016,
      "velocity": 89,
      "chip": "ym2612"
    },
    {
      "channel": 2,
      "note": 76,
      "start": 39.6886,
      "duration": 0.0159,
      "velocity": 105,
      "chip": "ym2612"
    },
    {
      "channel": 4,
      "note": 50,
      "start": 39.6899,
      "duration": 0.0158,
      "velocity": 100,
      "chip": "ym2612"
    },
    {
      "channel": 1,
      "note": 79,
      "start": 39.699,
      "duration": 0.0161,
      "velocity": 127,
      "chip": "ym2612"
    },
    {
      "channel": 0,
      "note": 37,
      "start": 39.7007,
      "duration": 0.0161,
      "velocity": 115,
      "chip": "ym2612"
    },
    {
      "channel": 5,
      "note": 80,
      "start": 39.7022,
      "duration": 0.016,
      "velocity": 89,
      "chip": "ym2612"
    },
    {
      "channel": 3,
      "note": 78,
      "start": 39.7034,
      "duration": 0.016,
      "velocity": 89,
      "chip": "ym2612"
    },
    {
      "channel": 2,
      "note": 76,
      "start": 39.7045,
      "duration": 0.016,
      "velocity": 105,
      "chip": "ym2612"
    },
    {
      "channel": 4,
      "note": 50,
      "start": 39.7057,
      "duration": 0.016,
      "velocity": 100,
      "chip": "ym2612"
    },
    {
      "channel": 1,
      "note": 79,
      "start": 39.7151,
      "duration": 0.0161,
      "velocity": 127,
      "chip": "ym2612"
    },
    {
      "channel": 0,
      "note": 37,
      "start": 39.7168,
      "duration": 0.0161,
      "velocity": 115,
      "chip": "ym2612"
    },
    {
      "channel": 5,
      "note": 78,
      "start": 39.7183,
      "duration": 0.0161,
      "velocity": 89,
      "chip": "ym2612"
    },
    {
      "channel": 3,
      "note": 78,
      "start": 39.7194,
      "duration": 0.0162,
      "velocity": 89,
      "chip": "ym2612"
    },
    {
      "channel": 2,
      "note": 76,
      "start": 39.7206,
      "duration": 0.0162,
      "velocity": 105,
      "chip": "ym2612"
    },
    {
      "channel": 4,
      "note": 50,
      "start": 39.7218,
      "duration": 0.0162,
      "velocity": 100,
      "chip": "ym2612"
    },
    {
      "channel": 1,
      "note": 79,
      "start": 39.7312,
      "duration": 0.0161,
      "velocity": 127,
      "chip": "ym2612"
    },
    {
      "channel": 0,
      "note": 38,
      "start": 39.7329,
      "duration": 0.0161,
      "velocity": 115,
      "chip": "ym2612"
    },
    {
      "channel": 5,
      "note": 80,
      "start": 39.7344,
      "duration": 0.016,
      "velocity": 89,
      "chip": "ym2612"
    },
    {
      "channel": 3,
      "note": 78,
      "start": 39.7356,
      "duration": 0.016,
      "velocity": 89,
      "chip": "ym2612"
    },
    {
      "channel": 2,
      "note": 76,
      "start": 39.7368,
      "duration": 0.016,
      "velocity": 105,
      "chip": "ym2612"
    },
    {
      "channel": 4,
      "note": 50,
      "start": 39.7379,
      "duration": 0.016,
      "velocity": 100,
      "chip": "ym2612"
    },
    {
      "channel": 1,
      "note": 79,
      "start": 39.7473,
      "duration": 0.0162,
      "velocity": 127,
      "chip": "ym2612"
    },
    {
      "channel": 0,
      "note": 38,
      "start": 39.749,
      "duration": 0.0161,
      "velocity": 115,
      "chip": "ym2612"
    },
    {
      "channel": 5,
      "note": 78,
      "start": 39.7505,
      "duration": 0.0162,
      "velocity": 89,
      "chip": "ym2612"
    },
    {
      "channel": 3,
      "note": 78,
      "start": 39.7517,
      "duration": 0.0161,
      "velocity": 89,
      "chip": "ym2612"
    },
    {
      "channel": 2,
      "note": 76,
      "start": 39.7528,
      "duration": 0.0162,
      "velocity": 105,
      "chip": "ym2612"
    },
    {
      "channel": 4,
      "note": 50,
      "start": 39.754,
      "duration": 0.0161,
      "velocity": 100,
      "chip": "ym2612"
    },
    {
      "channel": 1,
      "note": 79,
      "start": 39.7634,
      "duration": 0.0161,
      "velocity": 127,
      "chip": "ym2612"
    },
    {
      "channel": 0,
      "note": 39,
      "start": 39.7651,
      "duration": 0.0161,
      "velocity": 115,
      "chip": "ym2612"
    },
    {
      "channel": 5,
      "note": 80,
      "start": 39.7666,
      "duration": 0.0161,
      "velocity": 89,
      "chip": "ym2612"
    },
    {
      "channel": 3,
      "note": 78,
      "start": 39.7678,
      "duration": 0.0161,
      "velocity": 89,
      "chip": "ym2612"
    },
    {
      "channel": 2,
      "note": 76,
      "start": 39.769,
      "duration": 0.0161,
      "velocity": 105,
      "chip": "ym2612"
    },
    {
      "channel": 4,
      "note": 50,
      "start": 39.7701,
      "duration": 0.0161,
      "velocity": 100,
      "chip": "ym2612"
    },
    {
      "channel": 1,
      "note": 79,
      "start": 39.7796,
      "duration": 0.0162,
      "velocity": 127,
      "chip": "ym2612"
    },
    {
      "channel": 0,
      "note": 39,
      "start": 39.7812,
      "duration": 0.0163,
      "velocity": 115,
      "chip": "ym2612"
    },
    {
      "channel": 5,
      "note": 78,
      "start": 39.7827,
      "duration": 0.0163,
      "velocity": 89,
      "chip": "ym2612"
    },
    {
      "channel": 3,
      "note": 78,
      "start": 39.7839,
      "duration": 0.0163,
      "velocity": 89,
      "chip": "ym2612"
    },
    {
      "channel": 2,
      "note": 76,
      "start": 39.7851,
      "duration": 0.0163,
      "velocity": 105,
      "chip": "ym2612"
    },
    {
      "channel": 4,
      "note": 50,
      "start": 39.7862,
      "duration": 0.0163,
      "velocity": 100,
      "chip": "ym2612"
    },
    {
      "channel": 1,
      "note": 79,
      "start": 39.7958,
      "duration": 0.0163,
      "velocity": 127,
      "chip": "ym2612"
    },
    {
      "channel": 0,
      "note": 40,
      "start": 39.7975,
      "duration": 0.0163,
      "velocity": 115,
      "chip": "ym2612"
    },
    {
      "channel": 5,
      "note": 80,
      "start": 39.7991,
      "duration": 0.0162,
      "velocity": 89,
      "chip": "ym2612"
    },
    {
      "channel": 3,
      "note": 78,
      "start": 39.8002,
      "duration": 0.0163,
      "velocity": 89,
      "chip": "ym2612"
    },
    {
      "channel": 2,
      "note": 76,
      "start": 39.8014,
      "duration": 0.0163,
      "velocity": 105,
      "chip": "ym2612"
    },
    {
      "channel": 4,
      "note": 50,
      "start": 39.8025,
      "duration": 0.0163,
      "velocity": 100,
      "chip": "ym2612"
    },
    {
      "channel": 1,
      "note": 79,
      "start": 39.8122,
      "duration": 0.0162,
      "velocity": 127,
      "chip": "ym2612"
    },
    {
      "channel": 0,
      "note": 40,
      "start": 39.8138,
      "duration": 0.0163,
      "velocity": 115,
      "chip": "ym2612"
    },
    {
      "channel": 5,
      "note": 78,
      "start": 39.8153,
      "duration": 0.0163,
      "velocity": 89,
      "chip": "ym2612"
    },
    {
      "channel": 3,
      "note": 78,
      "start": 39.8165,
      "duration": 0.0163,
      "velocity": 89,
      "chip": "ym2612"
    },
    {
      "channel": 2,
      "note": 76,
      "start": 39.8176,
      "duration": 0.0163,
      "velocity": 105,
      "chip": "ym2612"
    },
    {
      "channel": 4,
      "note": 50,
      "start": 39.8188,
      "duration": 0.0163,
      "velocity": 100,
      "chip": "ym2612"
    },
    {
      "channel": 1,
      "note": 79,
      "start": 39.8284,
      "duration": 0.0161,
      "velocity": 127,
      "chip": "ym2612"
    },
    {
      "channel": 0,
      "note": 40,
      "start": 39.8301,
      "duration": 0.0161,
      "velocity": 115,
      "chip": "ym2612"
    },
    {
      "channel": 5,
      "note": 80,
      "start": 39.8316,
      "duration": 0.016,
      "velocity": 89,
      "chip": "ym2612"
    },
    {
      "channel": 3,
      "note": 78,
      "start": 39.8328,
      "duration": 0.016,
      "velocity": 89,
      "chip": "ym2612"
    },
    {
      "channel": 2,
      "note": 76,
      "start": 39.834,
      "duration": 0.016,
      "velocity": 105,
      "chip": "ym2612"
    },
    {
      "channel": 4,
      "note": 50,
      "start": 39.8351,
      "duration": 0.016,
      "velocity": 100,
      "chip": "ym2612"
    },
    {
      "channel": 1,
      "note": 79,
      "start": 39.8445,
      "duration": 0.0155,
      "velocity": 127,
      "chip": "ym2612"
    },
    {
      "channel": 0,
      "note": 41,
      "start": 39.8462,
      "duration": 0.0161,
      "velocity": 115,
      "chip": "ym2612"
    },
    {
      "channel": 5,
      "note": 78,
      "start": 39.8477,
      "duration": 0.016,
      "velocity": 89,
      "chip": "ym2612"
    },
    {
      "channel": 3,
      "note": 78,
      "start": 39.8489,
      "duration": 0.016,
      "velocity": 89,
      "chip": "ym2612"
    },
    {
      "channel": 4,
      "note": 50,
      "start": 39.8512,
      "duration": 0.016,
      "velocity": 100,
      "chip": "ym2612"
    },
    {
      "channel": 1,
      "note": 79,
      "start": 39.86,
      "duration": 0.0161,
      "velocity": 127,
      "chip": "ym2612"
    },
    {
      "channel": 0,
      "note": 41,
      "start": 39.8623,
      "duration": 0.0161,
      "velocity": 115,
      "chip": "ym2612"
    },
    {
      "channel": 5,
      "note": 78,
      "start": 39.8637,
      "duration": 0.016,
      "velocity": 89,
      "chip": "ym2612"
    },
    {
      "channel": 3,
      "note": 78,
      "start": 39.8649,
      "duration": 0.0159,
      "velocity": 89,
      "chip": "ym2612"
    },
    {
      "channel": 4,
      "note": 50,
      "start": 39.8672,
      "duration": 0.0159,
      "velocity": 100,
      "chip": "ym2612"
    },
    {
      "channel": 1,
      "note": 79,
      "start": 39.8761,
      "duration": 0.0161,
      "velocity": 127,
      "chip": "ym2612"
    },
    {
      "channel": 0,
      "note": 42,
      "start": 39.8784,
      "duration": 0.0161,
      "velocity": 115,
      "chip": "ym2612"
    },
    {
      "channel": 5,
      "note": 78,
      "start": 39.8797,
      "duration": 0.016,
      "velocity": 89,
      "chip": "ym2612"
    },
    {
      "channel": 3,
      "note": 78,
      "start": 39.8808,
      "duration": 0.016,
      "velocity": 89,
      "chip": "ym2612"
    },
    {
      "channel": 4,
      "note": 50,
      "start": 39.8831,
      "duration": 0.0164,
      "velocity": 100,
      "chip": "ym2612"
    },
    {
      "channel": 1,
      "note": 79,
      "start": 39.8922,
      "duration": 0.0161,
      "velocity": 127,
      "chip": "ym2612"
    },
    {
      "channel": 0,
      "note": 42,
      "start": 39.8945,
      "duration": 0.0155,
      "velocity": 115,
      "chip": "ym2612"
    },
    {
      "channel": 5,
      "note": 78,
      "start": 39.8957,
      "duration": 0.0161,
      "velocity": 89,
      "chip": "ym2612"
    },
    {
      "channel": 3,
      "note": 78,
      "start": 39.8968,
      "duration": 0.0161,
      "velocity": 89,
      "chip": "ym2612"
    },
    {
      "channel": 2,
      "note": 76,
      "start": 39.8984,
      "duration": 0.0158,
      "velocity": 105,
      "chip": "ym2612"
    },
    {
      "channel": 4,
      "note": 50,
      "start": 39.8995,
      "duration": 0.0159,
      "velocity": 100,
      "chip": "ym2612"
    },
    {
      "channel": 1,
      "note": 79,
      "start": 39.9083,
      "duration": 0.0161,
      "velocity": 127,
      "chip": "ym2612"
    },
    {
      "channel": 0,
      "note": 43,
      "start": 39.91,
      "duration": 0.0161,
      "velocity": 115,
      "chip": "ym2612"
    },
    {
      "channel": 5,
      "note": 78,
      "start": 39.9118,
      "duration": 0.016,
      "velocity": 89,
      "chip": "ym2612"
    },
    {
      "channel": 3,
      "note": 78,
      "start": 39.9129,
      "duration": 0.0161,
      "velocity": 89,
      "chip": "ym2612"
    },
    {
      "channel": 2,
      "note": 76,
      "start": 39.9141,
      "duration": 0.0161,
      "velocity": 105,
      "chip": "ym2612"
    },
    {
      "channel": 4,
      "note": 50,
      "start": 39.9154,
      "duration": 0.016,
      "velocity": 100,
      "chip": "ym2612"
    },
    {
      "channel": 1,
      "note": 79,
      "start": 39.9244,
      "duration": 0.0161,
      "velocity": 127,
      "chip": "ym2612"
    },
    {
      "channel": 0,
      "note": 43,
      "start": 39.9261,
      "duration": 0.0161,
      "velocity": 115,
      "chip": "ym2612"
    },
    {
      "channel": 5,
      "note": 78,
      "start": 39.9278,
      "duration": 0.0156,
      "velocity": 89,
      "chip": "ym2612"
    },
    {
      "channel": 3,
      "note": 78,
      "start": 39.929,
      "duration": 0.0162,
      "velocity": 89,
      "chip": "ym2612"
    },
    {
      "channel": 2,
      "note": 76,
      "start": 39.9302,
      "duration": 0.0161,
      "velocity": 105,
      "chip": "ym2612"
    },
    {
      "channel": 4,
      "note": 50,
      "start": 39.9314,
      "duration": 0.0161,
      "velocity": 100,
      "chip": "ym2612"
    },
    {
      "channel": 1,
      "note": 79,
      "start": 39.9405,
      "duration": 0.0158,
      "velocity": 1,
      "chip": "ym2612"
    },
    {
      "channel": 0,
      "note": 44,
      "start": 39.9422,
      "duration": 0.0158,
      "velocity": 115,
      "chip": "ym2612"
    },
    {
      "channel": 5,
      "note": 78,
      "start": 39.9434,
      "duration": 0.0159,
      "velocity": 89,
      "chip": "ym2612"
    },
    {
      "channel": 3,
      "note": 78,
      "start": 39.9452,
      "duration": 0.0154,
      "velocity": 89,
      "chip": "ym2612"
    },
    {
      "channel": 2,
      "note": 76,
      "start": 39.9463,
      "duration": 0.0159,
      "velocity": 105,
      "chip": "ym2612"
    },
    {
      "channel": 4,
      "note": 50,
      "start": 39.9475,
      "duration": 0.0158,
      "velocity": 100,
      "chip": "ym2612"
    },
    {
      "channel": 0,
      "note": 44,
      "start": 39.958,
      "duration": 0.0153,
      "velocity": 115,
      "chip": "ym2612"
    },
    {
      "channel": 5,
      "note": 78,
      "start": 39.9593,
      "duration": 0.0152,
      "velocity": 89,
      "chip": "ym2612"
    },
    {
      "channel": 3,
      "note": 78,
      "start": 39.9606,
      "duration": 0.0151,
      "velocity": 89,
      "chip": "ym2612"
    },
    {
      "channel": 4,
      "note": 50,
      "start": 39.9633,
      "duration": 0.0152,
      "velocity": 100,
      "chip": "ym2612"
    },
    {
      "channel": 0,
      "note": 44,
      "start": 39.9733,
      "duration": 0.0161,
      "velocity": 115,
      "chip": "ym2612"
    },
    {
      "channel": 5,
      "note": 78,
      "start": 39.9744,
      "duration": 0.0162,
      "velocity": 89,
      "chip": "ym2612"
    },
    {
      "channel": 3,
      "note": 78,
      "start": 39.9756,
      "duration": 0.0161,
      "velocity": 89,
      "chip": "ym2612"
    },
    {
      "channel": 4,
      "note": 50,
      "start": 39.9785,
      "duration": 0.0161,
      "velocity": 100,
      "chip": "ym2612"
    },
    {
      "channel": 0,
      "note": 45,
      "start": 39.9894,
      "duration": 0.0211,
      "velocity": 115,
      "chip": "ym2612"
    },
    {
      "channel": 5,
      "note": 78,
      "start": 39.9906,
      "duration": 0.0214,
      "velocity": 89,
      "chip": "ym2612"
    },
    {
      "channel": 3,
      "note": 78,
      "start": 39.9917,
      "duration": 0.0215,
      "velocity": 89,
      "chip": "ym2612"
    },
    {
      "channel": 4,
      "note": 50,
      "start": 39.9946,
      "duration": 0.0215,
      "velocity": 100,
      "chip": "ym2612"
    },
    {
      "channel": 1,
      "note": 79,
      "start": 40.0068,
      "duration": 0.0143,
      "velocity": 127,
      "chip": "ym2612"
    },
    {
      "channel": 0,
      "note": 36,
      "start": 40.0105,
      "duration": 0.0123,
      "velocity": 115,
      "chip": "ym2612"
    },
    {
      "channel": 5,
      "note": 78,
      "start": 40.012,
      "duration": 0.012,
      "velocity": 89,
      "chip": "ym2612"
    },
    {
      "channel": 3,
      "note": 78,
      "start": 40.0132,
      "duration": 0.012,
      "velocity": 89,
      "chip": "ym2612"
    },
    {
      "channel": 2,
      "note": 76,
      "start": 40.0147,
      "duration": 0.0117,
      "velocity": 105,
      "chip": "ym2612"
    },
    {
      "channel": 4,
      "note": 57,
      "start": 40.0162,
      "duration": 0.012,
      "velocity": 100,
      "chip": "ym2612"
    },
    {
      "channel": 1,
      "note": 79,
      "start": 40.0211,
      "duration": 0.016,
      "velocity": 127,
      "chip": "ym2612"
    },
    {
      "channel": 0,
      "note": 36,
      "start": 40.0229,
      "duration": 0.016,
      "velocity": 115,
      "chip": "ym2612"
    },
    {
      "channel": 5,
      "note": 78,
      "start": 40.0241,
      "duration": 0.016,
      "velocity": 89,
      "chip": "ym2612"
    },
    {
      "channel": 3,
      "note": 78,
      "start": 40.0252,
      "duration": 0.016,
      "velocity": 89,
      "chip": "ym2612"
    },
    {
      "channel": 2,
      "note": 76,
      "start": 40.0264,
      "duration": 0.0159,
      "velocity": 105,
      "chip": "ym2612"
    },
    {
      "channel": 4,
      "note": 57,
      "start": 40.0282,
      "duration": 0.0153,
      "velocity": 100,
      "chip": "ym2612"
    },
    {
      "channel": 1,
      "note": 79,
      "start": 40.0371,
      "duration": 0.0162,
      "velocity": 127,
      "chip": "ym2612"
    },
    {
      "channel": 0,
      "note": 37,
      "start": 40.0388,
      "duration": 0.0161,
      "velocity": 115,
      "chip": "ym2612"
    },
    {
      "channel": 5,
      "note": 78,
      "start": 40.04,
      "duration": 0.0161,
      "velocity": 89,
      "chip": "ym2612"
    },
    {
      "channel": 3,
      "note": 78,
      "start": 40.0412,
      "duration": 0.0161,
      "velocity": 89,
      "chip": "ym2612"
    },
    {
      "channel": 2,
      "note": 76,
      "start": 40.0423,
      "duration": 0.0161,
      "velocity": 105,
      "chip": "ym2612"
    },
    {
      "channel": 4,
      "note": 57,
      "start": 40.0435,
      "duration": 0.0161,
      "velocity": 100,
      "chip": "ym2612"
    },
    {
      "channel": 1,
      "note": 79,
      "start": 40.0533,
      "duration": 0.0161,
      "velocity": 127,
      "chip": "ym2612"
    },
    {
      "channel": 0,
      "note": 37,
      "start": 40.0549,
      "duration": 0.0161,
      "velocity": 115,
      "chip": "ym2612"
    },
    {
      "channel": 5,
      "note": 78,
      "start": 40.0561,
      "duration": 0.0161,
      "velocity": 89,
      "chip": "ym2612"
    },
    {
      "channel": 3,
      "note": 78,
      "start": 40.0573,
      "duration": 0.0161,
      "velocity": 89,
      "chip": "ym2612"
    },
    {
      "channel": 2,
      "note": 76,
      "start": 40.0584,
      "duration": 0.0161,
      "velocity": 105,
      "chip": "ym2612"
    },
    {
      "channel": 4,
      "note": 57,
      "start": 40.0596,
      "duration": 0.0161,
      "velocity": 100,
      "chip": "ym2612"
    },
    {
      "channel": 1,
      "note": 79,
      "start": 40.0694,
      "duration": 0.0161,
      "velocity": 127,
      "chip": "ym2612"
    },
    {
      "channel": 0,
      "note": 38,
      "start": 40.071,
      "duration": 0.0161,
      "velocity": 115,
      "chip": "ym2612"
    },
    {
      "channel": 5,
      "note": 78,
      "start": 40.0722,
      "duration": 0.0161,
      "velocity": 89,
      "chip": "ym2612"
    },
    {
      "channel": 3,
      "note": 78,
      "start": 40.0734,
      "duration": 0.0161,
      "velocity": 89,
      "chip": "ym2612"
    },
    {
      "channel": 4,
      "note": 57,
      "start": 40.0757,
      "duration": 0.016,
      "velocity": 100,
      "chip": "ym2612"
    },
    {
      "channel": 1,
      "note": 79,
      "start": 40.0854,
      "duration": 0.0161,
      "velocity": 127,
      "chip": "ym2612"
    },
    {
      "channel": 0,
      "note": 38,
      "start": 40.0871,
      "duration": 0.0162,
      "velocity": 115,
      "chip": "ym2612"
    },
    {
      "channel": 5,
      "note": 78,
      "start": 40.0883,
      "duration": 0.0161,
      "velocity": 89,
      "chip": "ym2612"
    },
    {
      "channel": 3,
      "note": 78,
      "start": 40.0895,
      "duration": 0.0161,
      "velocity": 89,
      "chip": "ym2612"
    },
    {
      "channel": 4,
      "note": 57,
      "start": 40.0917,
      "duration": 0.0162,
      "velocity": 100,
      "chip": "ym2612"
    },
    {
      "channel": 1,
      "note": 79,
      "start": 40.1015,
      "duration": 0.0161,
      "velocity": 127,
      "chip": "ym2612"
    },
    {
      "channel": 0,
      "note": 39,
      "start": 40.1033,
      "duration": 0.0179,
      "velocity": 115,
      "chip": "ym2612"
    },
    {
      "channel": 5,
      "note": 78,
      "start": 40.1044,
      "duration": 0.0179,
      "velocity": 89,
      "chip": "ym2612"
    },
    {
      "channel": 3,
      "note": 78,
      "start": 40.1056,
      "duration": 0.018,
      "velocity": 89,
      "chip": "ym2612"
    },
    {
      "channel": 4,
      "note": 57,
      "start": 40.1079,
      "duration": 0.0186,
      "velocity": 100,
      "chip": "ym2612"
    },
    {
      "channel": 1,
      "note": 79,
      "start": 40.1176,
      "duration": 0.0161,
      "velocity": 127,
      "chip": "ym2612"
    },
    {
      "channel": 0,
      "note": 36,
      "start": 40.1212,
      "duration": 0.0143,
      "velocity": 115,
      "chip": "ym2612"
    },
    {
      "channel": 5,
      "note": 78,
      "start": 40.1223,
      "duration": 0.0143,
      "velocity": 89,
      "chip": "ym2612"
    },
    {
      "channel": 3,
      "note": 78,
      "start": 40.1236,
      "duration": 0.0143,
      "velocity": 89,
      "chip": "ym2612"
    },
    {
      "channel": 2,
      "note": 76,
      "start": 40.1251,
      "duration": 0.014,
      "velocity": 105,
      "chip": "ym2612"
    },
    {
      "channel": 4,
      "note": 57,
      "start": 40.1266,
      "duration": 0.0137,
      "velocity": 100,
      "chip": "ym2612"
    },
    {
      "channel": 1,
      "note": 79,
      "start": 40.1337,
      "duration": 0.0161,
      "velocity": 127,
      "chip": "ym2612"
    },
    {
      "channel": 0,
      "note": 36,
      "start": 40.1355,
      "duration": 0.016,
      "velocity": 115,
      "chip": "ym2612"
    },
    {
      "channel": 5,
      "note": 78,
      "start": 40.1367,
      "duration": 0.016,
      "velocity": 89,
      "chip": "ym2612"
    },
    {
      "channel": 3,
      "note": 78,
      "start": 40.1379,
      "duration": 0.016,
      "velocity": 89,
      "chip": "ym2612"
    },
    {
      "channel": 2,
      "note": 76,
      "start": 40.1391,
      "duration": 0.016,
      "velocity": 105,
      "chip": "ym2612"
    },
    {
      "channel": 4,
      "note": 57,
      "start": 40.1403,
      "duration": 0.0159,
      "velocity": 100,
      "chip": "ym2612"
    },
    {
      "channel": 1,
      "note": 79,
      "start": 40.1498,
      "duration": 0.0161,
      "velocity": 127,
      "chip": "ym2612"
    },
    {
      "channel": 0,
      "note": 37,
      "start": 40.1515,
      "duration": 0.0161,
      "velocity": 115,
      "chip": "ym2612"
    },
    {
      "channel": 5,
      "note": 78,
      "start": 40.1527,
      "duration": 0.0161,
      "velocity": 89,
      "chip": "ym2612"
    },
    {
      "channel": 3,
      "note": 78,
      "start": 40.1539,
      "duration": 0.0161,
      "velocity": 89,
      "chip": "ym2612"
    },
    {
      "channel": 2,
      "note": 76,
      "start": 40.155,
      "duration": 0.0161,
      "velocity": 105,
      "chip": "ym2612"
    },
    {
      "channel": 4,
      "note": 57,
      "start": 40.1562,
      "duration": 0.0161,
      "velocity": 100,
      "chip": "ym2612"
    },
    {
      "channel": 1,
      "note": 79,
      "start": 40.1659,
      "duration": 0.0161,
      "velocity": 127,
      "chip": "ym2612"
    },
    {
      "channel": 0,
      "note": 37,
      "start": 40.1676,
      "duration": 0.0161,
      "velocity": 115,
      "chip": "ym2612"
    },
    {
      "channel": 5,
      "note": 78,
      "start": 40.1688,
      "duration": 0.0162,
      "velocity": 89,
      "chip": "ym2612"
    },
    {
      "channel": 3,
      "note": 78,
      "start": 40.17,
      "duration": 0.0161,
      "velocity": 89,
      "chip": "ym2612"
    },
    {
      "channel": 2,
      "note": 76,
      "start": 40.1711,
      "duration": 0.0161,
      "velocity": 105,
      "chip": "ym2612"
    },
    {
      "channel": 4,
      "note": 57,
      "start": 40.1723,
      "duration": 0.0161,
      "velocity": 100,
      "chip": "ym2612"
    },
    {
      "channel": 1,
      "note": 79,
      "start": 40.182,
      "duration": 0.0161,
      "velocity": 127,
      "chip": "ym2612"
    },
    {
      "channel": 0,
      "note": 38,
      "start": 40.1837,
      "duration": 0.0161,
      "velocity": 115,
      "chip": "ym2612"
    },
    {
      "channel": 5,
      "note": 78,
      "start": 40.1849,
      "duration": 0.0161,
      "velocity": 89,
      "chip": "ym2612"
    },
    {
      "channel": 3,
      "note": 78,
      "start": 40.1861,
      "duration": 0.0161,
      "velocity": 89,
      "chip": "ym2612"
    },
    {
      "channel": 2,
      "note": 76,
      "start": 40.1872,
      "duration": 0.0161,
      "velocity": 105,
      "chip": "ym2612"
    },
    {
      "channel": 4,
      "note": 57,
      "start": 40.1884,
      "duration": 0.0161,
      "velocity": 100,
      "chip": "ym2612"
    },
    {
      "channel": 1,
      "note": 79,
      "start": 40.1982,
      "duration": 0.0161,
      "velocity": 127,
      "chip": "ym2612"
    },
    {
      "channel": 0,
      "note": 38,
      "start": 40.1998,
      "duration": 0.0161,
      "velocity": 115,
      "chip": "ym2612"
    },
    {
      "channel": 5,
      "note": 78,
      "start": 40.201,
      "duration": 0.0161,
      "velocity": 89,
      "chip": "ym2612"
    },
    {
      "channel": 3,
      "note": 78,
      "start": 40.2022,
      "duration": 0.0161,
      "velocity": 89,
      "chip": "ym2612"
    },
    {
      "channel": 2,
      "note": 76,
      "start": 40.2033,
      "duration": 0.0161,
      "velocity": 105,
      "chip": "ym2612"
    },
    {
      "channel": 4,
      "note": 57,
      "start": 40.2045,
      "duration": 0.0161,
      "velocity": 100,
      "chip": "ym2612"
    },
    {
      "channel": 1,
      "note": 79,
      "start": 40.2143,
      "duration": 0.0178,
      "velocity": 127,
      "chip": "ym2612"
    },
    {
      "channel": 0,
      "note": 39,
      "start": 40.2159,
      "duration": 0.0179,
      "velocity": 115,
      "chip": "ym2612"
    },
    {
      "channel": 5,
      "note": 78,
      "start": 40.2171,
      "duration": 0.0179,
      "velocity": 89,
      "chip": "ym2612"
    },
    {
      "channel": 3,
      "note": 78,
      "start": 40.2183,
      "duration": 0.0179,
      "velocity": 89,
      "chip": "ym2612"
    },
    {
      "channel": 2,
      "note": 76,
      "start": 40.2194,
      "duration": 0.0179,
      "velocity": 105,
      "chip": "ym2612"
    },
    {
      "channel": 4,
      "note": 57,
      "start": 40.2206,
      "duration": 0.0179,
      "velocity": 100,
      "chip": "ym2612"
    },
    {
      "channel": 1,
      "note": 79,
      "start": 40.2321,
      "duration": 0.0144,
      "velocity": 127,
      "chip": "ym2612"
    },
    {
      "channel": 0,
      "note": 39,
      "start": 40.2339,
      "duration": 0.0144,
      "velocity": 115,
      "chip": "ym2612"
    },
    {
      "channel": 5,
      "note": 78,
      "start": 40.235,
      "duration": 0.0144,
      "velocity": 89,
      "chip": "ym2612"
    },
    {
      "channel": 3,
      "note": 78,
      "start": 40.2361,
      "duration": 0.0144,
      "velocity": 89,
      "chip": "ym2612"
    },
    {
      "channel": 2,
      "note": 76,
      "start": 40.2373,
      "duration": 0.0144,
      "velocity": 105,
      "chip": "ym2612"
    },
    {
      "channel": 4,
      "note": 57,
      "start": 40.2385,
      "duration": 0.0144,
      "velocity": 100,
      "chip": "ym2612"
    },
    {
      "channel": 1,
      "note": 79,
      "start": 40.2466,
      "duration": 0.016,
      "velocity": 127,
      "chip": "ym2612"
    },
    {
      "channel": 0,
      "note": 40,
      "start": 40.2483,
      "duration": 0.016,
      "velocity": 115,
      "chip": "ym2612"
    },
    {
      "channel": 5,
      "note": 78,
      "start": 40.2494,
      "duration": 0.016,
      "velocity": 89,
      "chip": "ym2612"
    },
    {
      "channel": 3,
      "note": 78,
      "start": 40.2506,
      "duration": 0.0161,
      "velocity": 89,
      "chip": "ym2612"
    },
    {
      "channel": 2,
      "note": 76,
      "start": 40.2517,
      "duration": 0.0161,
      "velocity": 105,
      "chip": "ym2612"
    },
    {
      "channel": 4,
      "note": 57,
      "start": 40.2529,
      "duration": 0.016,
      "velocity": 100,
      "chip": "ym2612"
    },
    {
      "channel": 1,
      "note": 79,
      "start": 40.2626,
      "duration": 0.0164,
      "velocity": 127,
      "chip": "ym2612"
    },
    {
      "channel": 0,
      "note": 40,
      "start": 40.2643,
      "duration": 0.0164,
      "velocity": 115,
      "chip": "ym2612"
    },
    {
      "channel": 5,
      "note": 78,
      "start": 40.2655,
      "duration": 0.0164,
      "velocity": 89,
      "chip": "ym2612"
    },
    {
      "channel": 3,
      "note": 78,
      "start": 40.2667,
      "duration": 0.0164,
      "velocity": 89,
      "chip": "ym2612"
    },
    {
      "channel": 2,
      "note": 76,
      "start": 40.2678,
      "duration": 0.0164,
      "velocity": 105,
      "chip": "ym2612"
    },
    {
      "channel": 4,
      "note": 57,
      "start": 40.269,
      "duration": 0.0164,
      "velocity": 100,
      "chip": "ym2612"
    },
    {
      "channel": 1,
      "note": 79,
      "start": 40.279,
      "duration": 0.0163,
      "velocity": 127,
      "chip": "ym2612"
    },
    {
      "channel": 0,
      "note": 40,
      "start": 40.2807,
      "duration": 0.0163,
      "velocity": 115,
      "chip": "ym2612"
    },
    {
      "channel": 5,
      "note": 78,
      "start": 40.2819,
      "duration": 0.0163,
      "velocity": 89,
      "chip": "ym2612"
    },
    {
      "channel": 3,
      "note": 78,
      "start": 40.2831,
      "duration": 0.0163,
      "velocity": 89,
      "chip": "ym2612"
    },
    {
      "channel": 2,
      "note": 76,
      "start": 40.2842,
      "duration": 0.0163,
      "velocity": 105,
      "chip": "ym2612"
    },
    {
      "channel": 4,
      "note": 57,
      "start": 40.2854,
      "duration": 0.0163,
      "velocity": 100,
      "chip": "ym2612"
    },
    {
      "channel": 1,
      "note": 79,
      "start": 40.2953,
      "duration": 0.0161,
      "velocity": 127,
      "chip": "ym2612"
    },
    {
      "channel": 0,
      "note": 41,
      "start": 40.297,
      "duration": 0.0161,
      "velocity": 115,
      "chip": "ym2612"
    },
    {
      "channel": 5,
      "note": 78,
      "start": 40.2982,
      "duration": 0.0161,
      "velocity": 89,
      "chip": "ym2612"
    },
    {
      "channel": 3,
      "note": 78,
      "start": 40.2994,
      "duration": 0.0161,
      "velocity": 89,
      "chip": "ym2612"
    },
    {
      "channel": 4,
      "note": 57,
      "start": 40.3017,
      "duration": 0.016,
      "velocity": 100,
      "chip": "ym2612"
    },
    {
      "channel": 1,
      "note": 79,
      "start": 40.3114,
      "duration": 0.0158,
      "velocity": 127,
      "chip": "ym2612"
    },
    {
      "channel": 0,
      "note": 41,
      "start": 40.3131,
      "duration": 0.0161,
      "velocity": 115,
      "chip": "ym2612"
    },
    {
      "channel": 5,
      "note": 78,
      "start": 40.3143,
      "duration": 0.0161,
      "velocity": 89,
      "chip": "ym2612"
    },
    {
      "channel": 3,
      "note": 78,
      "start": 40.3155,
      "duration": 0.0161,
      "velocity": 89,
      "chip": "ym2612"
    },
    {
      "channel": 4,
      "note": 57,
      "start": 40.3178,
      "duration": 0.0162,
      "velocity": 100,
      "chip": "ym2612"
    },
    {
      "channel": 1,
      "note": 79,
      "start": 40.3272,
      "duration": 0.0182,
      "velocity": 127,
      "chip": "ym2612"
    },
    {
      "channel": 0,
      "note": 42,
      "start": 40.3293,
      "duration": 0.0197,
      "velocity": 124,
      "chip": "ym2612"
    },
    {
      "channel": 5,
      "note": 78,
      "start": 40.3304,
      "duration": 0.0197,
      "velocity": 89,
      "chip": "ym2612"
    },
    {
      "channel": 3,
      "note": 78,
      "start": 40.3316,
      "duration": 0.0197,
      "velocity": 89,
      "chip": "ym2612"
    },
    {
      "channel": 4,
      "note": 57,
      "start": 40.3339,
      "duration": 0.02,
      "velocity": 100,
      "chip": "ym2612"
    },
    {
      "channel": 1,
      "note": 72,
      "start": 40.3454,
      "duration": 0.0138,
      "velocity": 127,
      "chip": "ym2612"
    },
    {
      "channel": 0,
      "note": 84,
      "start": 40.349,
      "duration": 0.0125,
      "velocity": 124,
      "chip": "ym2612"
    },
    {
      "channel": 5,
      "note": 78,
      "start": 40.3501,
      "duration": 0.0126,
      "velocity": 89,
      "chip": "ym2612"
    },
    {
      "channel": 3,
      "note": 78,
      "start": 40.3513,
      "duration": 0.0126,
      "velocity": 89,
      "chip": "ym2612"
    },
    {
      "channel": 2,
      "note": 76,
      "start": 40.3528,
      "duration": 0.0123,
      "velocity": 105,
      "chip": "ym2612"
    },
    {
      "channel": 4,
      "note": 57,
      "start": 40.354,
      "duration": 0.0123,
      "velocity": 100,
      "chip": "ym2612"
    },
    {
      "channel": 1,
      "note": 72,
      "start": 40.3593,
      "duration": 0.016,
      "velocity": 127,
      "chip": "ym2612"
    },
    {
      "channel": 0,
      "note": 82,
      "start": 40.3615,
      "duration": 0.0157,
      "velocity": 124,
      "chip": "ym2612"
    },
    {
      "channel": 5,
      "note": 78,
      "start": 40.3627,
      "duration": 0.016,
      "velocity": 89,
      "chip": "ym2612"
    },
    {
      "channel": 3,
      "note": 78,
      "start": 40.3639,
      "duration": 0.016,
      "velocity": 89,
      "chip": "ym2612"
    },
    {
      "channel": 2,
      "note": 76,
      "start": 40.3651,
      "duration": 0.016,
      "velocity": 105,
      "chip": "ym2612"
    },
    {
      "channel": 4,
      "note": 57,
      "start": 40.3663,
      "duration": 0.0159,
      "velocity": 100,
      "chip": "ym2612"
    },
    {
      "channel": 1,
      "note": 72,
      "start": 40.3753,
      "duration": 0.0161,
      "velocity": 127,
      "chip": "ym2612"
    },
    {
      "channel": 0,
      "note": 80,
      "start": 40.3772,
      "duration": 0.0159,
      "velocity": 124,
      "chip": "ym2612"
    },
    {
      "channel": 5,
      "note": 78,
      "start": 40.3787,
      "duration": 0.016,
      "velocity": 89,
      "chip": "ym2612"
    },
    {
      "channel": 3,
      "note": 78,
      "start": 40.3799,
      "duration": 0.0161,
      "velocity": 89,
      "chip": "ym2612"
    },
    {
      "channel": 2,
      "note": 76,
      "start": 40.3811,
      "duration": 0.0161,
      "velocity": 105,
      "chip": "ym2612"
    },
    {
      "channel": 4,
      "note": 57,
      "start": 40.3822,
      "duration": 0.0161,
      "velocity": 100,
      "chip": "ym2612"
    },
    {
      "channel": 1,
      "note": 72,
      "start": 40.3914,
      "duration": 0.0161,
      "velocity": 127,
      "chip": "ym2612"
    },
    {
      "channel": 0,
      "note": 77,
      "start": 40.3931,
      "duration": 0.0161,
      "velocity": 124,
      "chip": "ym2612"
    },
    {
      "channel": 5,
      "note": 78,
      "start": 40.3947,
      "duration": 0.0158,
      "velocity": 89,
      "chip": "ym2612"
    },
    {
      "channel": 3,
      "note": 78,
      "start": 40.396,
      "duration": 0.0161,
      "velocity": 89,
      "chip": "ym2612"
    },
    {
      "channel": 2,
      "note": 76,
      "start": 40.3971,
      "duration": 0.0161,
      "velocity": 105,
      "chip": "ym2612"
    },
    {
      "channel": 4,
      "note": 57,
      "start": 40.3983,
      "duration": 0.0162,
      "velocity": 100,
      "chip": "ym2612"
    },
    {
      "channel": 1,
      "note": 72,
      "start": 40.4075,
      "duration": 0.0161,
      "velocity": 127,
      "chip": "ym2612"
    },
    {
      "channel": 0,
      "note": 75,
      "start": 40.4092,
      "duration": 0.0161,
      "velocity": 124,
      "chip": "ym2612"
    },
    {
      "channel": 5,
      "note": 78,
      "start": 40.4106,
      "duration": 0.0159,
      "velocity": 89,
      "chip": "ym2612"
    },
    {
      "channel": 3,
      "note": 78,
      "start": 40.4121,
      "duration": 0.016,
      "velocity": 89,
      "chip": "ym2612"
    },
    {
      "channel": 4,
      "note": 57,
      "start": 40.4145,
      "duration": 0.016,
      "velocity": 100,
      "chip": "ym2612"
    },
    {
      "channel": 1,
      "note": 72,
      "start": 40.4236,
      "duration": 0.0161,
      "velocity": 127,
      "chip": "ym2612"
    },
    {
      "channel": 0,
      "note": 72,
      "start": 40.4253,
      "duration": 0.0161,
      "velocity": 124,
      "chip": "ym2612"
    },
    {
      "channel": 5,
      "note": 78,
      "start": 40.4264,
      "duration": 0.0161,
      "velocity": 89,
      "chip": "ym2612"
    },
    {
      "channel": 3,
      "note": 78,
      "start": 40.4281,
      "duration": 0.0158,
      "velocity": 89,
      "chip": "ym2612"
    },
    {
      "channel": 4,
      "note": 57,
      "start": 40.4305,
      "duration": 0.0161,
      "velocity": 100,
      "chip": "ym2612"
    },
    {
      "channel": 1,
      "note": 72,
      "start": 40.4396,
      "duration": 0.0161,
      "velocity": 127,
      "chip": "ym2612"
    },
    {
      "channel": 0,
      "note": 70,
      "start": 40.4414,
      "duration": 0.0179,
      "velocity": 115,
      "chip": "ym2612"
    },
    {
      "channel": 5,
      "note": 78,
      "start": 40.4425,
      "duration": 0.0182,
      "velocity": 89,
      "chip": "ym2612"
    },
    {
      "channel": 3,
      "note": 78,
      "start": 40.4439,
      "duration": 0.0183,
      "velocity": 89,
      "chip": "ym2612"
    },
    {
      "channel": 4,
      "note": 57,
      "start": 40.4466,
      "duration": 0.0186,
      "velocity": 100,
      "chip": "ym2612"
    },
    {
      "channel": 1,
      "note": 72,
      "start": 40.4557,
      "duration": 0.0161,
      "velocity": 127,
      "chip": "ym2612"
    },
    {
      "channel": 0,
      "note": 36,
      "start": 40.4593,
      "duration": 0.0143,
      "velocity": 115,
      "chip": "ym2612"
    },
    {
      "channel": 5,
      "note": 78,
      "start": 40.4607,
      "duration": 0.0141,
      "velocity": 89,
      "chip": "ym2612"
    },
    {
      "channel": 3,
      "note": 78,
      "start": 40.4622,
      "duration": 0.0137,
      "velocity": 89,
      "chip": "ym2612"
    },
    {
      "channel": 2,
      "note": 76,
      "start": 40.4637,
      "duration": 0.0137,
      "velocity": 105,
      "chip": "ym2612"
    },
    {
      "channel": 4,
      "note": 50,
      "start": 40.4651,
      "duration": 0.0139,
      "velocity": 100,
      "chip": "ym2612"
    },
    {
      "channel": 1,
      "note": 72,
      "start": 40.4718,
      "duration": 0.0161,
      "velocity": 127,
      "chip": "ym2612"
    },
    {
      "channel": 0,
      "note": 36,
      "start": 40.4736,
      "duration": 0.016,
      "velocity": 115,
      "chip": "ym2612"
    },
    {
      "channel": 5,
      "note": 78,
      "start": 40.4748,
      "duration": 0.016,
      "velocity": 89,
      "chip": "ym2612"
    },
    {
      "channel": 3,
      "note": 78,
      "start": 40.476,
      "duration": 0.016,
      "velocity": 89,
      "chip": "ym2612"
    },
    {
      "channel": 2,
      "note": 76,
      "start": 40.4774,
      "duration": 0.0157,
      "velocity": 105,
      "chip": "ym2612"
    },
    {
      "channel": 4,
      "note": 50,
      "start": 40.479,
      "duration": 0.0158,
      "velocity": 100,
      "chip": "ym2612"
    },
    {
      "channel": 1,
      "note": 72,
      "start": 40.4879,
      "duration": 0.0161,
      "velocity": 127,
      "chip": "ym2612"
    },
    {
      "channel": 0,
      "note": 37,
      "start": 40.4896,
      "duration": 0.0161,
      "velocity": 115,
      "chip": "ym2612"
    },
    {
      "channel": 5,
      "note": 78,
      "start": 40.4909,
      "duration": 0.0161,
      "velocity": 89,
      "chip": "ym2612"
    },
    {
      "channel": 3,
      "note": 78,
      "start": 40.492,
      "duration": 0.0161,
      "velocity": 89,
      "chip": "ym2612"
    },
    {
      "channel": 2,
      "note": 76,
      "start": 40.4932,
      "duration": 0.0161,
      "velocity": 105,
      "chip": "ym2612"
    },
    {
      "channel": 4,
      "note": 50,
      "start": 40.4949,
      "duration": 0.0158,
      "velocity": 100,
      "chip": "ym2612"
    },
    {
      "channel": 1,
      "note": 72,
      "start": 40.5041,
      "duration": 0.0161,
      "velocity": 127,
      "chip": "ym2612"
    },
    {
      "channel": 0,
      "note": 37,
      "start": 40.5057,
      "duration": 0.0161,
      "velocity": 115,
      "chip": "ym2612"
    },
    {
      "channel": 5,
      "note": 78,
      "start": 40.507,
      "duration": 0.0161,
      "velocity": 89,
      "chip": "ym2612"
    },
    {
      "channel": 3,
      "note": 78,
      "start": 40.5081,
      "duration": 0.0161,
      "velocity": 89,
      "chip": "ym2612"
    },
    {
      "channel": 2,
      "note": 76,
      "start": 40.5093,
      "duration": 0.0161,
      "velocity": 105,
      "chip": "ym2612"
    },
    {
      "channel": 4,
      "note": 50,
      "start": 40.5106,
      "duration": 0.0159,
      "velocity": 100,
      "chip": "ym2612"
    },
    {
      "channel": 1,
      "note": 72,
      "start": 40.5202,
      "duration": 0.0161,
      "velocity": 127,
      "chip": "ym2612"
    },
    {
      "channel": 0,
      "note": 38,
      "start": 40.5218,
      "duration": 0.0162,
      "velocity": 115,
      "chip": "ym2612"
    },
    {
      "channel": 5,
      "note": 78,
      "start": 40.523,
      "duration": 0.0161,
      "velocity": 89,
      "chip": "ym2612"
    },
    {
      "channel": 3,
      "note": 78,
      "start": 40.5242,
      "duration": 0.0161,
      "velocity": 89,
      "chip": "ym2612"
    },
    {
      "channel": 4,
      "note": 50,
      "start": 40.5266,
      "duration": 0.0161,
      "velocity": 100,
      "chip": "ym2612"
    },
    {
      "channel": 1,
      "note": 72,
      "start": 40.5363,
      "duration": 0.0161,
      "velocity": 127,
      "chip": "ym2612"
    },
    {
      "channel": 0,
      "note": 38,
      "start": 40.538,
      "duration": 0.0161,
      "velocity": 115,
      "chip": "ym2612"
    },
    {
      "channel": 5,
      "note": 78,
      "start": 40.5391,
      "duration": 0.0161,
      "velocity": 89,
      "chip": "ym2612"
    },
    {
      "channel": 3,
      "note": 78,
      "start": 40.5403,
      "duration": 0.0161,
      "velocity": 89,
      "chip": "ym2612"
    },
    {
      "channel": 4,
      "note": 50,
      "start": 40.5426,
      "duration": 0.016,
      "velocity": 100,
      "chip": "ym2612"
    },
    {
      "channel": 1,
      "note": 72,
      "start": 40.5524,
      "duration": 0.0161,
      "velocity": 127,
      "chip": "ym2612"
    },
    {
      "channel": 0,
      "note": 39,
      "start": 40.5541,
      "duration": 0.0161,
      "velocity": 115,
      "chip": "ym2612"
    },
    {
      "channel": 5,
      "note": 78,
      "start": 40.5552,
      "duration": 0.0161,
      "velocity": 89,
      "chip": "ym2612"
    },
    {
      "channel": 3,
      "note": 78,
      "start": 40.5564,
      "duration": 0.0162,
      "velocity": 89,
      "chip": "ym2612"
    },
    {
      "channel": 4,
      "note": 50,
      "start": 40.5587,
      "duration": 0.0167,
      "velocity": 100,
      "chip": "ym2612"
    },
    {
      "channel": 1,
      "note": 72,
      "start": 40.5685,
      "duration": 0.0161,
      "velocity": 127,
      "chip": "ym2612"
    },
    {
      "channel": 0,
      "note": 39,
      "start": 40.5702,
      "duration": 0.0161,
      "velocity": 115,
      "chip": "ym2612"
    },
    {
      "channel": 5,
      "note": 78,
      "start": 40.5713,
      "duration": 0.0161,
      "velocity": 89,
      "chip": "ym2612"
    },
    {
      "channel": 3,
      "note": 78,
      "start": 40.5725,
      "duration": 0.0161,
      "velocity": 89,
      "chip": "ym2612"
    },
    {
      "channel": 2,
      "note": 76,
      "start": 40.5741,
      "duration": 0.0157,
      "velocity": 105,
      "chip": "ym2612"
    },
    {
      "channel": 4,
      "note": 50,
      "start": 40.5753,
      "duration": 0.0157,
      "velocity": 100,
      "chip": "ym2612"
    },
    {
      "channel": 1,
      "note": 72,
      "start": 40.5846,
      "duration": 0.0161,
      "velocity": 127,
      "chip": "ym2612"
    },
    {
      "channel": 0,
      "note": 40,
      "start": 40.5863,
      "duration": 0.0161,
      "velocity": 115,
      "chip": "ym2612"
    },
    {
      "channel": 5,
      "note": 78,
      "start": 40.5874,
      "duration": 0.0161,
      "velocity": 89,
      "chip": "ym2612"
    },
    {
      "channel": 3,
      "note": 78,
      "start": 40.5886,
      "duration": 0.0161,
      "velocity": 89,
      "chip": "ym2612"
    },
    {
      "channel": 2,
      "note": 76,
      "start": 40.5898,
      "duration": 0.016,
      "velocity": 105,
      "chip": "ym2612"
    },
    {
      "channel": 4,
      "note": 50,
      "start": 40.591,
      "duration": 0.016,
      "velocity": 100,
      "chip": "ym2612"
    },
    {
      "channel": 1,
      "note": 72,
      "start": 40.6007,
      "duration": 0.0161,
      "velocity": 127,
      "chip": "ym2612"
    },
    {
      "channel": 0,
      "note": 40,
      "start": 40.6024,
      "duration": 0.0161,
      "velocity": 115,
      "chip": "ym2612"
    },
    {
      "channel": 5,
      "note": 78,
      "start": 40.6035,
      "duration": 0.0161,
      "velocity": 89,
      "chip": "ym2612"
    },
    {
      "channel": 3,
      "note": 78,
      "start": 40.6047,
      "duration": 0.0161,
      "velocity": 89,
      "chip": "ym2612"
    },
    {
      "channel": 2,
      "note": 76,
      "start": 40.6059,
      "duration": 0.0161,
      "velocity": 105,
      "chip": "ym2612"
    },
    {
      "channel": 4,
      "note": 50,
      "start": 40.6071,
      "duration": 0.016,
      "velocity": 100,
      "chip": "ym2612"
    },
    {
      "channel": 1,
      "note": 72,
      "start": 40.6168,
      "duration": 0.0158,
      "velocity": 1,
      "chip": "ym2612"
    },
    {
      "channel": 0,
      "note": 40,
      "start": 40.6185,
      "duration": 0.0159,
      "velocity": 115,
      "chip": "ym2612"
    },
    {
      "channel": 5,
      "note": 78,
      "start": 40.6196,
      "duration": 0.0158,
      "velocity": 89,
      "chip": "ym2612"
    },
    {
      "channel": 3,
      "note": 78,
      "start": 40.6208,
      "duration": 0.0159,
      "velocity": 89,
      "chip": "ym2612"
    },
    {
      "channel": 2,
      "note": 76,
      "start": 40.622,
      "duration": 0.0158,
      "velocity": 105,
      "chip": "ym2612"
    },
    {
      "channel": 4,
      "note": 50,
      "start": 40.6231,
      "duration": 0.0159,
      "velocity": 100,
      "chip": "ym2612"
    },
    {
      "channel": 0,
      "note": 41,
      "start": 40.6343,
      "duration": 0.0153,
      "velocity": 115,
      "chip": "ym2612"
    },
    {
      "channel": 5,
      "note": 78,
      "start": 40.6354,
      "duration": 0.0153,
      "velocity": 89,
      "chip": "ym2612"
    },
    {
      "channel": 3,
      "note": 78,
      "start": 40.6367,
      "duration": 0.0152,
      "velocity": 89,
      "chip": "ym2612"
    },
    {
      "channel": 2,
      "note": 76,
      "start": 40.6378,
      "duration": 0.0152,
      "velocity": 105,
      "chip": "ym2612"
    },
    {
      "channel": 4,
      "note": 50,
      "start": 40.639,
      "duration": 0.0153,
      "velocity": 100,
      "chip": "ym2612"
    },
    {
      "channel": 0,
      "note": 41,
      "start": 40.6496,
      "duration": 0.0161,
      "velocity": 115,
      "chip": "ym2612"
    },
    {
      "channel": 5,
      "note": 78,
      "start": 40.6507,
      "duration": 0.0161,
      "velocity": 89,
      "chip": "ym2612"
    },
    {
      "channel": 3,
      "note": 78,
      "start": 40.6519,
      "duration": 0.0161,
      "velocity": 89,
      "chip": "ym2612"
    },
    {
      "channel": 2,
      "note": 76,
      "start": 40.653,
      "duration": 0.0161,
      "velocity": 105,
      "chip": "ym2612"
    },
    {
      "channel": 4,
      "note": 50,
      "start": 40.6542,
      "duration": 0.0161,
      "velocity": 100,
      "chip": "ym2612"
    },
    {
      "channel": 0,
      "note": 42,
      "start": 40.6657,
      "duration": 0.0208,
      "velocity": 115,
      "chip": "ym2612"
    },
    {
      "channel": 5,
      "note": 78,
      "start": 40.6668,
      "duration": 0.0209,
      "velocity": 89,
      "chip": "ym2612"
    },
    {
      "channel": 3,
      "note": 78,
      "start": 40.668,
      "duration": 0.0209,
      "velocity": 89,
      "chip": "ym2612"
    },
    {
      "channel": 2,
      "note": 76,
      "start": 40.6692,
      "duration": 0.0208,
      "velocity": 105,
      "chip": "ym2612"
    },
    {
      "channel": 4,
      "note": 50,
      "start": 40.6703,
      "duration": 0.0211,
      "velocity": 100,
      "chip": "ym2612"
    },
    {
      "channel": 1,
      "note": 72,
      "start": 40.683,
      "duration": 0.0144,
      "velocity": 127,
      "chip": "ym2612"
    },
    {
      "channel": 0,
      "note": 36,
      "start": 40.6865,
      "duration": 0.0126,
      "velocity": 115,
      "chip": "ym2612"
    },
    {
      "channel": 5,
      "note": 78,
      "start": 40.6877,
      "duration": 0.0126,
      "velocity": 89,
      "chip": "ym2612"
    },
    {
      "channel": 3,
      "note": 78,
      "start": 40.6888,
      "duration": 0.0126,
      "velocity": 89,
      "chip": "ym2612"
    },
    {
      "channel": 2,
      "note": 76,
      "start": 40.69,
      "duration": 0.0126,
      "velocity": 105,
      "chip": "ym2612"
    },
    {
      "channel": 4,
      "note": 50,
      "start": 40.6915,
      "duration": 0.0123,
      "velocity": 100,
      "chip": "ym2612"
    },
    {
      "channel": 1,
      "note": 72,
      "start": 40.6973,
      "duration": 0.016,
      "velocity": 127,
      "chip": "ym2612"
    },
    {
      "channel": 0,
      "note": 36,
      "start": 40.6991,
      "duration": 0.016,
      "velocity": 115,
      "chip": "ym2612"
    },
    {
      "channel": 5,
      "note": 78,
      "start": 40.7003,
      "duration": 0.016,
      "velocity": 89,
      "chip": "ym2612"
    },
    {
      "channel": 3,
      "note": 78,
      "start": 40.7014,
      "duration": 0.016,
      "velocity": 89,
      "chip": "ym2612"
    },
    {
      "channel": 2,
      "note": 76,
      "start": 40.7026,
      "duration": 0.016,
      "velocity": 105,
      "chip": "ym2612"
    },
    {
      "channel": 4,
      "note": 50,
      "start": 40.7038,
      "duration": 0.0159,
      "velocity": 100,
      "chip": "ym2612"
    },
    {
      "channel": 1,
      "note": 72,
      "start": 40.7134,
      "duration": 0.0161,
      "velocity": 127,
      "chip": "ym2612"
    },
    {
      "channel": 0,
      "note": 37,
      "start": 40.7151,
      "duration": 0.0161,
      "velocity": 115,
      "chip": "ym2612"
    },
    {
      "channel": 5,
      "note": 78,
      "start": 40.7162,
      "duration": 0.0162,
      "velocity": 89,
      "chip": "ym2612"
    },
    {
      "channel": 3,
      "note": 78,
      "start": 40.7174,
      "duration": 0.0162,
      "velocity": 89,
      "chip": "ym2612"
    },
    {
      "channel": 2,
      "note": 76,
      "start": 40.7186,
      "duration": 0.0161,
      "velocity": 105,
      "chip": "ym2612"
    },
    {
      "channel": 4,
      "note": 50,
      "start": 40.7197,
      "duration": 0.0162,
      "velocity": 100,
      "chip": "ym2612"
    },
    {
      "channel": 1,
      "note": 72,
      "start": 40.7295,
      "duration": 0.0163,
      "velocity": 127,
      "chip": "ym2612"
    },
    {
      "channel": 0,
      "note": 37,
      "start": 40.7312,
      "duration": 0.0163,
      "velocity": 115,
      "chip": "ym2612"
    },
    {
      "channel": 5,
      "note": 78,
      "start": 40.7324,
      "duration": 0.0164,
      "velocity": 89,
      "chip": "ym2612"
    },
    {
      "channel": 3,
      "note": 78,
      "start": 40.7336,
      "duration": 0.0163,
      "velocity": 89,
      "chip": "ym2612"
    },
    {
      "channel": 2,
      "note": 76,
      "start": 40.7347,
      "duration": 0.0163,
      "velocity": 105,
      "chip": "ym2612"
    },
    {
      "channel": 4,
      "note": 50,
      "start": 40.7359,
      "duration": 0.0164,
      "velocity": 100,
      "chip": "ym2612"
    },
    {
      "channel": 1,
      "note": 72,
      "start": 40.7459,
      "duration": 0.0163,
      "velocity": 127,
      "chip": "ym2612"
    },
    {
      "channel": 0,
      "note": 38,
      "start": 40.7476,
      "duration": 0.0163,
      "velocity": 115,
      "chip": "ym2612"
    },
    {
      "channel": 5,
      "note": 78,
      "start": 40.7488,
      "duration": 0.0163,
      "velocity": 89,
      "chip": "ym2612"
    },
    {
      "channel": 3,
      "note": 78,
      "start": 40.75,
      "duration": 0.0163,
      "velocity": 89,
      "chip": "ym2612"
    },
    {
      "channel": 4,
      "note": 50,
      "start": 40.7523,
      "duration": 0.0163,
      "velocity": 100,
      "chip": "ym2612"
    },
    {
      "channel": 1,
      "note": 72,
      "start": 40.7622,
      "duration": 0.0161,
      "velocity": 127,
      "chip": "ym2612"
    },
    {
      "channel": 0,
      "note": 38,
      "start": 40.7639,
      "duration": 0.0161,
      "velocity": 115,
      "chip": "ym2612"
    },
    {
      "channel": 5,
      "note": 78,
      "start": 40.7651,
      "duration": 0.0161,
      "velocity": 89,
      "chip": "ym2612"
    },
    {
      "channel": 3,
      "note": 78,
      "start": 40.7663,
      "duration": 0.0161,
      "velocity": 89,
      "chip": "ym2612"
    },
    {
      "channel": 4,
      "note": 50,
      "start": 40.7686,
      "duration": 0.0161,
      "velocity": 100,
      "chip": "ym2612"
    },
    {
      "channel": 1,
      "note": 72,
      "start": 40.7783,
      "duration": 0.0179,
      "velocity": 127,
      "chip": "ym2612"
    },
    {
      "channel": 0,
      "note": 39,
      "start": 40.78,
      "duration": 0.0197,
      "velocity": 115,
      "chip": "ym2612"
    },
    {
      "channel": 5,
      "note": 78,
      "start": 40.7812,
      "duration": 0.0197,
      "velocity": 89,
      "chip": "ym2612"
    },
    {
      "channel": 3,
      "note": 78,
      "start": 40.7824,
      "duration": 0.0197,
      "velocity": 89,
      "chip": "ym2612"
    },
    {
      "channel": 4,
      "note": 50,
      "start": 40.7847,
      "duration": 0.0204,
      "velocity": 100,
      "chip": "ym2612"
    },
    {
      "channel": 1,
      "note": 72,
      "start": 40.7963,
      "duration": 0.0138,
      "velocity": 127,
      "chip": "ym2612"
    },
    {
      "channel": 0,
      "note": 36,
      "start": 40.7998,
      "duration": 0.0126,
      "velocity": 115,
      "chip": "ym2612"
    },
    {
      "channel": 5,
      "note": 78,
      "start": 40.801,
      "duration": 0.0126,
      "velocity": 89,
      "chip": "ym2612"
    },
    {
      "channel": 3,
      "note": 78,
      "start": 40.8021,
      "duration": 0.0126,
      "velocity": 89,
      "chip": "ym2612"
    },
    {
      "channel": 2,
      "note": 76,
      "start": 40.8037,
      "duration": 0.0123,
      "velocity": 105,
      "chip": "ym2612"
    },
    {
      "channel": 4,
      "note": 57,
      "start": 40.8051,
      "duration": 0.0121,
      "velocity": 100,
      "chip": "ym2612"
    },
    {
      "channel": 1,
      "note": 72,
      "start": 40.8101,
      "duration": 0.016,
      "velocity": 127,
      "chip": "ym2612"
    },
    {
      "channel": 0,
      "note": 36,
      "start": 40.8124,
      "duration": 0.0159,
      "velocity": 115,
      "chip": "ym2612"
    },
    {
      "channel": 5,
      "note": 78,
      "start": 40.8136,
      "duration": 0.016,
      "velocity": 89,
      "chip": "ym2612"
    },
    {
      "channel": 3,
      "note": 78,
      "start": 40.8147,
      "duration": 0.016,
      "velocity": 89,
      "chip": "ym2612"
    },
    {
      "channel": 2,
      "note": 76,
      "start": 40.8159,
      "duration": 0.016,
      "velocity": 105,
      "chip": "ym2612"
    },
    {
      "channel": 4,
      "note": 57,
      "start": 40.8172,
      "duration": 0.0159,
      "velocity": 100,
      "chip": "ym2612"
    },
    {
      "channel": 1,
      "note": 72,
      "start": 40.8261,
      "duration": 0.0161,
      "velocity": 127,
      "chip": "ym2612"
    },
    {
      "channel": 0,
      "note": 37,
      "start": 40.8283,
      "duration": 0.0158,
      "velocity": 115,
      "chip": "ym2612"
    },
    {
      "channel": 5,
      "note": 78,
      "start": 40.8295,
      "duration": 0.0161,
      "velocity": 89,
      "chip": "ym2612"
    },
    {
      "channel": 3,
      "note": 78,
      "start": 40.8307,
      "duration": 0.0161,
      "velocity": 89,
      "chip": "ym2612"
    },
    {
      "channel": 2,
      "note": 76,
      "start": 40.8319,
      "duration": 0.0161,
      "velocity": 105,
      "chip": "ym2612"
    },
    {
      "channel": 4,
      "note": 57,
      "start": 40.833,
      "duration": 0.0161,
      "velocity": 100,
      "chip": "ym2612"
    },
    {
      "channel": 1,
      "note": 72,
      "start": 40.8422,
      "duration": 0.0161,
      "velocity": 127,
      "chip": "ym2612"
    },
    {
      "channel": 0,
      "note": 37,
      "start": 40.8441,
      "duration": 0.0159,
      "velocity": 115,
      "chip": "ym2612"
    },
    {
      "channel": 5,
      "note": 78,
      "start": 40.8456,
      "duration": 0.016,
      "velocity": 89,
      "chip": "ym2612"
    },
    {
      "channel": 3,
      "note": 78,
      "start": 40.8468,
      "duration": 0.0161,
      "velocity": 89,
      "chip": "ym2612"
    },
    {
      "channel": 2,
      "note": 76,
      "start": 40.848,
      "duration": 0.0161,
      "velocity": 105,
      "chip": "ym2612"
    },
    {
      "channel": 4,
      "note": 57,
      "start": 40.8491,
      "duration": 0.0161,
      "velocity": 100,
      "chip": "ym2612"
    },
    {
      "channel": 1,
      "note": 72,
      "start": 40.8583,
      "duration": 0.0161,
      "velocity": 127,
      "chip": "ym2612"
    },
    {
      "channel": 0,
      "note": 38,
      "start": 40.86,
      "duration": 0.0161,
      "velocity": 115,
      "chip": "ym2612"
    },
    {
      "channel": 5,
      "note": 78,
      "start": 40.8617,
      "duration": 0.0158,
      "velocity": 89,
      "chip": "ym2612"
    },
    {
      "channel": 3,
      "note": 78,
      "start": 40.8629,
      "duration": 0.0161,
      "velocity": 89,
      "chip": "ym2612"
    },
    {
      "channel": 4,
      "note": 57,
      "start": 40.8652,
      "duration": 0.0161,
      "velocity": 100,
      "chip": "ym2612"
    },
    {
      "channel": 1,
      "note": 72,
      "start": 40.8744,
      "duration": 0.0161,
      "velocity": 127,
      "chip": "ym2612"
    },
    {
      "channel": 0,
      "note": 38,
      "start": 40.8761,
      "duration": 0.0161,
      "velocity": 115,
      "chip": "ym2612"
    },
    {
      "channel": 5,
      "note": 78,
      "start": 40.8774,
      "duration": 0.0159,
      "velocity": 89,
      "chip": "ym2612"
    },
    {
      "channel": 3,
      "note": 78,
      "start": 40.879,
      "duration": 0.016,
      "velocity": 89,
      "chip": "ym2612"
    },
    {
      "channel": 4,
      "note": 57,
      "start": 40.8813,
      "duration": 0.0161,
      "velocity": 100,
      "chip": "ym2612"
    },
    {
      "channel": 1,
      "note": 72,
      "start": 40.8905,
      "duration": 0.0161,
      "velocity": 127,
      "chip": "ym2612"
    },
    {
      "channel": 0,
      "note": 39,
      "start": 40.8922,
      "duration": 0.0161,
      "velocity": 115,
      "chip": "ym2612"
    },
    {
      "channel": 5,
      "note": 78,
      "start": 40.8933,
      "duration": 0.0161,
      "velocity": 89,
      "chip": "ym2612"
    },
    {
      "channel": 3,
      "note": 78,
      "start": 40.8951,
      "duration": 0.0161,
      "velocity": 89,
      "chip": "ym2612"
    },
    {
      "channel": 4,
      "note": 57,
      "start": 40.8974,
      "duration": 0.0165,
      "velocity": 100,
      "chip": "ym2612"
    },
    {
      "channel": 1,
      "note": 72,
      "start": 40.9066,
      "duration": 0.0161,
      "velocity": 127,
      "chip": "ym2612"
    },
    {
      "channel": 0,
      "note": 39,
      "start": 40.9083,
      "duration": 0.0161,
      "velocity": 115,
      "chip": "ym2612"
    },
    {
      "channel": 5,
      "note": 78,
      "start": 40.9094,
      "duration": 0.0161,
      "velocity": 89,
      "chip": "ym2612"
    },
    {
      "channel": 3,
      "note": 78,
      "start": 40.9112,
      "duration": 0.0156,
      "velocity": 89,
      "chip": "ym2612"
    },
    {
      "channel": 2,
      "note": 76,
      "start": 40.9127,
      "duration": 0.0159,
      "velocity": 105,
      "chip": "ym2612"
    },
    {
      "channel": 4,
      "note": 57,
      "start": 40.9139,
      "duration": 0.0159,
      "velocity": 100,
      "chip": "ym2612"
    },
    {
      "channel": 1,
      "note": 72,
      "start": 40.9227,
      "duration": 0.0162,
      "velocity": 127,
      "chip": "ym2612"
    },
    {
      "channel": 0,
      "note": 40,
      "start": 40.9244,
      "duration": 0.0161,
      "velocity": 115,
      "chip": "ym2612"
    },
    {
      "channel": 5,
      "note": 78,
      "start": 40.9256,
      "duration": 0.0161,
      "velocity": 89,
      "chip": "ym2612"
    },
    {
      "channel": 3,
      "note": 78,
      "start": 40.9267,
      "duration": 0.0161,
      "velocity": 89,
      "chip": "ym2612"
    },
    {
      "channel": 2,
      "note": 76,
      "start": 40.9285,
      "duration": 0.016,
      "velocity": 105,
      "chip": "ym2612"
    },
    {
      "channel": 4,
      "note": 57,
      "start": 40.9297,
      "duration": 0.0161,
      "velocity": 100,
      "chip": "ym2612"
    },
    {
      "channel": 1,
      "note": 72,
      "start": 40.9388,
      "duration": 0.0161,
      "velocity": 127,
      "chip": "ym2612"
    },
    {
      "channel": 0,
      "note": 40,
      "start": 40.9405,
      "duration": 0.0161,
      "velocity": 115,
      "chip": "ym2612"
    },
    {
      "channel": 5,
      "note": 78,
      "start": 40.9417,
      "duration": 0.0161,
      "velocity": 89,
      "chip": "ym2612"
    },
    {
      "channel": 3,
      "note": 78,
      "start": 40.9428,
      "duration": 0.0161,
      "velocity": 89,
      "chip": "ym2612"
    },
    {
      "channel": 2,
      "note": 76,
      "start": 40.9445,
      "duration": 0.0155,
      "velocity": 105,
      "chip": "ym2612"
    },
    {
      "channel": 4,
      "note": 57,
      "start": 40.9458,
      "duration": 0.016,
      "velocity": 100,
      "chip": "ym2612"
    },
    {
      "channel": 1,
      "note": 72,
      "start": 40.9549,
      "duration": 0.0161,
      "velocity": 127,
      "chip": "ym2612"
    },
    {
      "channel": 0,
      "note": 40,
      "start": 40.9566,
      "duration": 0.0161,
      "velocity": 115,
      "chip": "ym2612"
    },
    {
      "channel": 5,
      "note": 78,
      "start": 40.9578,
      "duration": 0.0161,
      "velocity": 89,
      "chip": "ym2612"
    },
    {
      "channel": 3,
      "note": 78,
      "start": 40.9589,
      "duration": 0.0161,
      "velocity": 89,
      "chip": "ym2612"
    },
    {
      "channel": 2,
      "note": 76,
      "start": 40.9601,
      "duration": 0.0161,
      "velocity": 105,
      "chip": "ym2612"
    },
    {
      "channel": 4,
      "note": 57,
      "start": 40.9618,
      "duration": 0.0161,
      "velocity": 100,
      "chip": "ym2612"
    },
    {
      "channel": 1,
      "note": 72,
      "start": 40.971,
      "duration": 0.0161,
      "velocity": 127,
      "chip": "ym2612"
    },
    {
      "channel": 0,
      "note": 41,
      "start": 40.9727,
      "duration": 0.0162,
      "velocity": 115,
      "chip": "ym2612"
    },
    {
      "channel": 5,
      "note": 78,
      "start": 40.9739,
      "duration": 0.0161,
      "velocity": 89,
      "chip": "ym2612"
    },
    {
      "channel": 3,
      "note": 78,
      "start": 40.975,
      "duration": 0.0161,
      "velocity": 89,
      "chip": "ym2612"
    },
    {
      "channel": 4,
      "note": 57,
      "start": 40.9779,
      "duration": 0.0156,
      "velocity": 100,
      "chip": "ym2612"
    },
    {
      "channel": 1,
      "note": 72,
      "start": 40.9871,
      "duration": 0.0161,
      "velocity": 127,
      "chip": "ym2612"
    },
    {
      "channel": 0,
      "note": 41,
      "start": 40.9888,
      "duration": 0.0161,
      "velocity": 115,
      "chip": "ym2612"
    },
    {
      "channel": 5,
      "note": 78,
      "start": 40.99,
      "duration": 0.0161,
      "velocity": 89,
      "chip": "ym2612"
    },
    {
      "channel": 3,
      "note": 78,
      "start": 40.9911,
      "duration": 0.0161,
      "velocity": 89,
      "chip": "ym2612"
    },
    {
      "channel": 4,
      "note": 57,
      "start": 40.9935,
      "duration": 0.0161,
      "velocity": 100,
      "chip": "ym2612"
    },
    {
      "channel": 1,
      "note": 72,
      "start": 41.0032,
      "duration": 0.0178,
      "velocity": 127,
      "chip": "ym2612"
    },
    {
      "channel": 0,
      "note": 42,
      "start": 41.0049,
      "duration": 0.0197,
      "velocity": 115,
      "chip": "ym2612"
    },
    {
      "channel": 5,
      "note": 78,
      "start": 41.0061,
      "duration": 0.0197,
      "velocity": 89,
      "chip": "ym2612"
    },
    {
      "channel": 3,
      "note": 78,
      "start": 41.0072,
      "duration": 0.02,
      "velocity": 89,
      "chip": "ym2612"
    },
    {
      "channel": 4,
      "note": 57,
      "start": 41.0096,
      "duration": 0.0209,
      "velocity": 100,
      "chip": "ym2612"
    },
    {
      "channel": 1,
      "note": 72,
      "start": 41.0211,
      "duration": 0.0144,
      "velocity": 127,
      "chip": "ym2612"
    },
    {
      "channel": 0,
      "note": 36,
      "start": 41.0246,
      "duration": 0.0126,
      "velocity": 115,
      "chip": "ym2612"
    },
    {
      "channel": 5,
      "note": 78,
      "start": 41.0258,
      "duration": 0.0126,
      "velocity": 89,
      "chip": "ym2612"
    },
    {
      "channel": 3,
      "note": 78,
      "start": 41.0272,
      "duration": 0.0124,
      "velocity": 89,
      "chip": "ym2612"
    },
    {
      "channel": 2,
      "note": 76,
      "start": 41.0291,
      "duration": 0.0117,
      "velocity": 105,
      "chip": "ym2612"
    },
    {
      "channel": 4,
      "note": 50,
      "start": 41.0305,
      "duration": 0.0115,
      "velocity": 100,
      "chip": "ym2612"
    },
    {
      "channel": 1,
      "note": 72,
      "start": 41.0354,
      "duration": 0.016,
      "velocity": 127,
      "chip": "ym2612"
    },
    {
      "channel": 0,
      "note": 36,
      "start": 41.0372,
      "duration": 0.016,
      "velocity": 115,
      "chip": "ym2612"
    },
    {
      "channel": 5,
      "note": 78,
      "start": 41.0384,
      "duration": 0.016,
      "velocity": 89,
      "chip": "ym2612"
    },
    {
      "channel": 3,
      "note": 78,
      "start": 41.0396,
      "duration": 0.016,
      "velocity": 89,
      "chip": "ym2612"
    },
    {
      "channel": 2,
      "note": 76,
      "start": 41.0408,
      "duration": 0.0159,
      "velocity": 105,
      "chip": "ym2612"
    },
    {
      "channel": 4,
      "note": 50,
      "start": 41.042,
      "duration": 0.0159,
      "velocity": 100,
      "chip": "ym2612"
    },
    {
      "channel": 1,
      "note": 72,
      "start": 41.0515,
      "duration": 0.0161,
      "velocity": 127,
      "chip": "ym2612"
    },
    {
      "channel": 0,
      "note": 37,
      "start": 41.0532,
      "duration": 0.0161,
      "velocity": 115,
      "chip": "ym2612"
    },
    {
      "channel": 5,
      "note": 78,
      "start": 41.0544,
      "duration": 0.0161,
      "velocity": 89,
      "chip": "ym2612"
    },
    {
      "channel": 3,
      "note": 78,
      "start": 41.0556,
      "duration": 0.0161,
      "velocity": 89,
      "chip": "ym2612"
    },
    {
      "channel": 2,
      "note": 76,
      "start": 41.0567,
      "duration": 0.0161,
      "velocity": 105,
      "chip": "ym2612"
    },
    {
      "channel": 4,
      "note": 50,
      "start": 41.0578,
      "duration": 0.0161,
      "velocity": 100,
      "chip": "ym2612"
    },
    {
      "channel": 1,
      "note": 72,
      "start": 41.0676,
      "duration": 0.0161,
      "velocity": 127,
      "chip": "ym2612"
    },
    {
      "channel": 0,
      "note": 37,
      "start": 41.0693,
      "duration": 0.0161,
      "velocity": 115,
      "chip": "ym2612"
    },
    {
      "channel": 5,
      "note": 78,
      "start": 41.0705,
      "duration": 0.0161,
      "velocity": 89,
      "chip": "ym2612"
    },
    {
      "channel": 3,
      "note": 78,
      "start": 41.0717,
      "duration": 0.0161,
      "velocity": 89,
      "chip": "ym2612"
    },
    {
      "channel": 2,
      "note": 76,
      "start": 41.0728,
      "duration": 0.0161,
      "velocity": 105,
      "chip": "ym2612"
    },
    {
      "channel": 4,
      "note": 50,
      "start": 41.0739,
      "duration": 0.0161,
      "velocity": 100,
      "chip": "ym2612"
    },
    {
      "channel": 1,
      "note": 72,
      "start": 41.0837,
      "duration": 0.0161,
      "velocity": 127,
      "chip": "ym2612"
    },
    {
      "channel": 0,
      "note": 38,
      "start": 41.0854,
      "duration": 0.0161,
      "velocity": 115,
      "chip": "ym2612"
    },
    {
      "channel": 5,
      "note": 78,
      "start": 41.0866,
      "duration": 0.0161,
      "velocity": 89,
      "chip": "ym2612"
    },
    {
      "channel": 3,
      "note": 78,
      "start": 41.0877,
      "duration": 0.0161,
      "velocity": 89,
      "chip": "ym2612"
    },
    {
      "channel": 2,
      "note": 76,
      "start": 41.0889,
      "duration": 0.0161,
      "velocity": 105,
      "chip": "ym2612"
    },
    {
      "channel": 4,
      "note": 50,
      "start": 41.09,
      "duration": 0.0161,
      "velocity": 100,
      "chip": "ym2612"
    },
    {
      "channel": 1,
      "note": 72,
      "start": 41.0998,
      "duration": 0.0161,
      "velocity": 127,
      "chip": "ym2612"
    },
    {
      "channel": 0,
      "note": 38,
      "start": 41.1015,
      "duration": 0.0161,
      "velocity": 115,
      "chip": "ym2612"
    },
    {
      "channel": 5,
      "note": 78,
      "start": 41.1027,
      "duration": 0.0161,
      "velocity": 89,
      "chip": "ym2612"
    },
    {
      "channel": 3,
      "note": 78,
      "start": 41.1038,
      "duration": 0.0161,
      "velocity": 89,
      "chip": "ym2612"
    },
    {
      "channel": 2,
      "note": 76,
      "start": 41.105,
      "duration": 0.0161,
      "velocity": 105,
      "chip": "ym2612"
    },
    {
      "channel": 4,
      "note": 50,
      "start": 41.1061,
      "duration": 0.0161,
      "velocity": 100,
      "chip": "ym2612"
    },
    {
      "channel": 1,
      "note": 72,
      "start": 41.1159,
      "duration": 0.0161,
      "velocity": 127,
      "chip": "ym2612"
    },
    {
      "channel": 0,
      "note": 39,
      "start": 41.1176,
      "duration": 0.0162,
      "velocity": 115,
      "chip": "ym2612"
    },
    {
      "channel": 5,
      "note": 78,
      "start": 41.1188,
      "duration": 0.0161,
      "velocity": 89,
      "chip": "ym2612"
    },
    {
      "channel": 3,
      "note": 78,
      "start": 41.1199,
      "duration": 0.0161,
      "velocity": 89,
      "chip": "ym2612"
    },
    {
      "channel": 2,
      "note": 76,
      "start": 41.1211,
      "duration": 0.0161,
      "velocity": 105,
      "chip": "ym2612"
    },
    {
      "channel": 4,
      "note": 50,
      "start": 41.1222,
      "duration": 0.0162,
      "velocity": 100,
      "chip": "ym2612"
    },
    {
      "channel": 1,
      "note": 72,
      "start": 41.132,
      "duration": 0.0161,
      "velocity": 127,
      "chip": "ym2612"
    },
    {
      "channel": 0,
      "note": 39,
      "start": 41.1337,
      "duration": 0.0161,
      "velocity": 115,
      "chip": "ym2612"
    },
    {
      "channel": 5,
      "note": 78,
      "start": 41.1349,
      "duration": 0.0161,
      "velocity": 89,
      "chip": "ym2612"
    },
    {
      "channel": 3,
      "note": 78,
      "start": 41.136,
      "duration": 0.0161,
      "velocity": 89,
      "chip": "ym2612"
    },
    {
      "channel": 2,
      "note": 76,
      "start": 41.1372,
      "duration": 0.0162,
      "velocity": 105,
      "chip": "ym2612"
    },
    {
      "channel": 4,
      "note": 50,
      "start": 41.1384,
      "duration": 0.0161,
      "velocity": 100,
      "chip": "ym2612"
    },
    {
      "channel": 1,
      "note": 72,
      "start": 41.1481,
      "duration": 0.0161,
      "velocity": 127,
      "chip": "ym2612"
    },
    {
      "channel": 0,
      "note": 40,
      "start": 41.1498,
      "duration": 0.0161,
      "velocity": 115,
      "chip": "ym2612"
    },
    {
      "channel": 5,
      "note": 78,
      "start": 41.151,
      "duration": 0.0161,
      "velocity": 89,
      "chip": "ym2612"
    },
    {
      "channel": 3,
      "note": 78,
      "start": 41.1521,
      "duration": 0.0162,
      "velocity": 89,
      "chip": "ym2612"
    },
    {
      "channel": 2,
      "note": 76,
      "start": 41.1533,
      "duration": 0.0161,
      "velocity": 105,
      "chip": "ym2612"
    },
    {
      "channel": 4,
      "note": 50,
      "start": 41.1545,
      "duration": 0.0161,
      "velocity": 100,
      "chip": "ym2612"
    },
    {
      "channel": 1,
      "note": 72,
      "start": 41.1642,
      "duration": 0.0161,
      "velocity": 127,
      "chip": "ym2612"
    },
    {
      "channel": 0,
      "note": 40,
      "start": 41.1659,
      "duration": 0.0161,
      "velocity": 115,
      "chip": "ym2612"
    },
    {
      "channel": 5,
      "note": 78,
      "start": 41.1671,
      "duration": 0.0161,
      "velocity": 89,
      "chip": "ym2612"
    },
    {
      "channel": 3,
      "note": 78,
      "start": 41.1683,
      "duration": 0.0161,
      "velocity": 89,
      "chip": "ym2612"
    },
    {
      "channel": 2,
      "note": 76,
      "start": 41.1694,
      "duration": 0.0161,
      "velocity": 105,
      "chip": "ym2612"
    },
    {
      "channel": 4,
      "note": 50,
      "start": 41.1706,
      "duration": 0.016,
      "velocity": 100,
      "chip": "ym2612"
    },
    {
      "channel": 1,
      "note": 72,
      "start": 41.1803,
      "duration": 0.0162,
      "velocity": 127,
      "chip": "ym2612"
    },
    {
      "channel": 0,
      "note": 40,
      "start": 41.182,
      "duration": 0.0161,
      "velocity": 115,
      "chip": "ym2612"
    },
    {
      "channel": 5,
      "note": 78,
      "start": 41.1832,
      "duration": 0.0162,
      "velocity": 89,
      "chip": "ym2612"
    },
    {
      "channel": 3,
      "note": 78,
      "start": 41.1844,
      "duration": 0.0161,
      "velocity": 89,
      "chip": "ym2612"
    },
    {
      "channel": 2,
      "note": 76,
      "start": 41.1855,
      "duration": 0.0162,
      "velocity": 105,
      "chip": "ym2612"
    },
    {
      "channel": 4,
      "note": 50,
      "start": 41.1867,
      "duration": 0.0161,
      "velocity": 100,
      "chip": "ym2612"
    },
    {
      "channel": 1,
      "note": 72,
      "start": 41.1965,
      "duration": 0.0161,
      "velocity": 127,
      "chip": "ym2612"
    },
    {
      "channel": 0,
      "note": 41,
      "start": 41.1982,
      "duration": 0.0161,
      "velocity": 115,
      "chip": "ym2612"
    },
    {
      "channel": 5,
      "note": 78,
      "start": 41.1993,
      "duration": 0.0161,
      "velocity": 89,
      "chip": "ym2612"
    },
    {
      "channel": 3,
      "note": 78,
      "start": 41.2005,
      "duration": 0.0161,
      "velocity": 89,
      "chip": "ym2612"
    },
    {
      "channel": 4,
      "note": 50,
      "start": 41.2028,
      "duration": 0.0161,
      "velocity": 100,
      "chip": "ym2612"
    },
    {
      "channel": 1,
      "note": 72,
      "start": 41.2125,
      "duration": 0.0165,
      "velocity": 127,
      "chip": "ym2612"
    },
    {
      "channel": 0,
      "note": 41,
      "start": 41.2143,
      "duration": 0.0164,
      "velocity": 115,
      "chip": "ym2612"
    },
    {
      "channel": 5,
      "note": 78,
      "start": 41.2155,
      "duration": 0.0164,
      "velocity": 89,
      "chip": "ym2612"
    },
    {
      "channel": 3,
      "note": 78,
      "start": 41.2166,
      "duration": 0.0164,
      "velocity": 89,
      "chip": "ym2612"
    },
    {
      "channel": 4,
      "note": 50,
      "start": 41.2189,
      "duration": 0.0164,
      "velocity": 100,
      "chip": "ym2612"
    },
    {
      "channel": 1,
      "note": 72,
      "start": 41.229,
      "duration": 0.018,
      "velocity": 127,
      "chip": "ym2612"
    },
    {
      "channel": 0,
      "note": 42,
      "start": 41.2307,
      "duration": 0.0199,
      "velocity": 124,
      "chip": "ym2612"
    },
    {
      "channel": 5,
      "note": 78,
      "start": 41.2319,
      "duration": 0.0199,
      "velocity": 89,
      "chip": "ym2612"
    },
    {
      "channel": 3,
      "note": 78,
      "start": 41.233,
      "duration": 0.0199,
      "velocity": 89,
      "chip": "ym2612"
    },
    {
      "channel": 4,
      "note": 50,
      "start": 41.2353,
      "duration": 0.0205,
      "velocity": 100,
      "chip": "ym2612"
    },
    {
      "channel": 1,
      "note": 79,
      "start": 41.2471,
      "duration": 0.0143,
      "velocity": 127,
      "chip": "ym2612"
    },
    {
      "channel": 0,
      "note": 84,
      "start": 41.2507,
      "duration": 0.0126,
      "velocity": 124,
      "chip": "ym2612"
    },
    {
      "channel": 5,
      "note": 78,
      "start": 41.2518,
      "duration": 0.0126,
      "velocity": 89,
      "chip": "ym2612"
    },
    {
      "channel": 3,
      "note": 78,
      "start": 41.2529,
      "duration": 0.0126,
      "velocity": 89,
      "chip": "ym2612"
    },
    {
      "channel": 2,
      "note": 76,
      "start": 41.2545,
      "duration": 0.0123,
      "velocity": 105,
      "chip": "ym2612"
    },
    {
      "channel": 4,
      "note": 57,
      "start": 41.2559,
      "duration": 0.0121,
      "velocity": 100,
      "chip": "ym2612"
    },
    {
      "channel": 1,
      "note": 79,
      "start": 41.2614,
      "duration": 0.0157,
      "velocity": 127,
      "chip": "ym2612"
    },
    {
      "channel": 0,
      "note": 82,
      "start": 41.2632,
      "duration": 0.016,
      "velocity": 124,
      "chip": "ym2612"
    },
    {
      "channel": 5,
      "note": 78,
      "start": 41.2644,
      "duration": 0.016,
      "velocity": 89,
      "chip": "ym2612"
    },
    {
      "channel": 3,
      "note": 78,
      "start": 41.2655,
      "duration": 0.016,
      "velocity": 89,
      "chip": "ym2612"
    },
    {
      "channel": 2,
      "note": 76,
      "start": 41.2668,
      "duration": 0.0159,
      "velocity": 105,
      "chip": "ym2612"
    },
    {
      "channel": 4,
      "note": 57,
      "start": 41.268,
      "duration": 0.0158,
      "velocity": 100,
      "chip": "ym2612"
    },
    {
      "channel": 1,
      "note": 79,
      "start": 41.2771,
      "duration": 0.0159,
      "velocity": 127,
      "chip": "ym2612"
    },
    {
      "channel": 0,
      "note": 80,
      "start": 41.2792,
      "duration": 0.0161,
      "velocity": 124,
      "chip": "ym2612"
    },
    {
      "channel": 5,
      "note": 78,
      "start": 41.2804,
      "duration": 0.0161,
      "velocity": 89,
      "chip": "ym2612"
    },
    {
      "channel": 3,
      "note": 78,
      "start": 41.2816,
      "duration": 0.0161,
      "velocity": 89,
      "chip": "ym2612"
    },
    {
      "channel": 2,
      "note": 76,
      "start": 41.2827,
      "duration": 0.0161,
      "velocity": 105,
      "chip": "ym2612"
    },
    {
      "channel": 4,
      "note": 57,
      "start": 41.2839,
      "duration": 0.0161,
      "velocity": 100,
      "chip": "ym2612"
    },
    {
      "channel": 1,
      "note": 79,
      "start": 41.293,
      "duration": 0.0161,
      "velocity": 127,
      "chip": "ym2612"
    },
    {
      "channel": 0,
      "note": 77,
      "start": 41.2953,
      "duration": 0.016,
      "velocity": 124,
      "chip": "ym2612"
    },
    {
      "channel": 5,
      "note": 78,
      "start": 41.2965,
      "duration": 0.0161,
      "velocity": 89,
      "chip": "ym2612"
    },
    {
      "channel": 3,
      "note": 78,
      "start": 41.2977,
      "duration": 0.0161,
      "velocity": 89,
      "chip": "ym2612"
    },
    {
      "channel": 2,
      "note": 76,
      "start": 41.2988,
      "duration": 0.0161,
      "velocity": 105,
      "chip": "ym2612"
    },
    {
      "channel": 4,
      "note": 57,
      "start": 41.3,
      "duration": 0.0161,
      "velocity": 100,
      "chip": "ym2612"
    },
    {
      "channel": 1,
      "note": 79,
      "start": 41.3091,
      "duration": 0.0161,
      "velocity": 127,
      "chip": "ym2612"
    },
    {
      "channel": 0,
      "note": 75,
      "start": 41.3113,
      "duration": 0.0159,
      "velocity": 124,
      "chip": "ym2612"
    },
    {
      "channel": 5,
      "note": 78,
      "start": 41.3126,
      "duration": 0.0161,
      "velocity": 89,
      "chip": "ym2612"
    },
    {
      "channel": 3,
      "note": 78,
      "start": 41.3138,
      "duration": 0.0161,
      "velocity": 89,
      "chip": "ym2612"
    },
    {
      "channel": 4,
      "note": 57,
      "start": 41.3161,
      "duration": 0.016,
      "velocity": 100,
      "chip": "ym2612"
    },
    {
      "channel": 1,
      "note": 79,
      "start": 41.3252,
      "duration": 0.0161,
      "velocity": 127,
      "chip": "ym2612"
    },
    {
      "channel": 0,
      "note": 72,
      "start": 41.3272,
      "duration": 0.0158,
      "velocity": 124,
      "chip": "ym2612"
    },
    {
      "channel": 5,
      "note": 78,
      "start": 41.3287,
      "duration": 0.016,
      "velocity": 89,
      "chip": "ym2612"
    },
    {
      "channel": 3,
      "note": 78,
      "start": 41.3298,
      "duration": 0.0161,
      "velocity": 89,
      "chip": "ym2612"
    },
    {
      "channel": 4,
      "note": 57,
      "start": 41.3321,
      "duration": 0.0161,
      "velocity": 100,
      "chip": "ym2612"
    },
    {
      "channel": 1,
      "note": 79,
      "start": 41.3413,
      "duration": 0.0161,
      "velocity": 127,
      "chip": "ym2612"
    },
    {
      "channel": 0,
      "note": 70,
      "start": 41.343,
      "duration": 0.0161,
      "velocity": 124,
      "chip": "ym2612"
    },
    {
      "channel": 5,
      "note": 78,
      "start": 41.3447,
      "duration": 0.0157,
      "velocity": 89,
      "chip": "ym2612"
    },
    {
      "channel": 3,
      "note": 78,
      "start": 41.3459,
      "duration": 0.0161,
      "velocity": 89,
      "chip": "ym2612"
    },
    {
      "channel": 4,
      "note": 57,
      "start": 41.3482,
      "duration": 0.0165,
      "velocity": 100,
      "chip": "ym2612"
    },
    {
      "channel": 1,
      "note": 79,
      "start": 41.3574,
      "duration": 0.0162,
      "velocity": 127,
      "chip": "ym2612"
    },
    {
      "channel": 0,
      "note": 68,
      "start": 41.3591,
      "duration": 0.0161,
      "velocity": 124,
      "chip": "ym2612"
    },
    {
      "channel": 5,
      "note": 78,
      "start": 41.3605,
      "duration": 0.016,
      "velocity": 89,
      "chip": "ym2612"
    },
    {
      "channel": 3,
      "note": 78,
      "start": 41.362,
      "duration": 0.016,
      "velocity": 89,
      "chip": "ym2612"
    },
    {
      "channel": 2,
      "note": 76,
      "start": 41.3635,
      "duration": 0.0159,
      "velocity": 105,
      "chip": "ym2612"
    },
    {
      "channel": 4,
      "note": 57,
      "start": 41.3647,
      "duration": 0.0159,
      "velocity": 100,
      "chip": "ym2612"
    },
    {
      "channel": 1,
      "note": 79,
      "start": 41.3736,
      "duration": 0.0161,
      "velocity": 127,
      "chip": "ym2612"
    },
    {
      "channel": 0,
      "note": 65,
      "start": 41.3752,
      "duration": 0.0161,
      "velocity": 124,
      "chip": "ym2612"
    },
    {
      "channel": 5,
      "note": 78,
      "start": 41.3764,
      "duration": 0.0161,
      "velocity": 89,
      "chip": "ym2612"
    },
    {
      "channel": 3,
      "note": 78,
      "start": 41.3781,
      "duration": 0.0158,
      "velocity": 89,
      "chip": "ym2612"
    },
    {
      "channel": 2,
      "note": 76,
      "start": 41.3794,
      "duration": 0.016,
      "velocity": 105,
      "chip": "ym2612"
    },
    {
      "channel": 4,
      "note": 57,
      "start": 41.3806,
      "duration": 0.016,
      "velocity": 100,
      "chip": "ym2612"
    },
    {
      "channel": 1,
      "note": 79,
      "start": 41.3896,
      "duration": 0.0161,
      "velocity": 127,
      "chip": "ym2612"
    },
    {
      "channel": 0,
      "note": 63,
      "start": 41.3913,
      "duration": 0.0153,
      "velocity": 1,
      "chip": "ym2612"
    },
    {
      "channel": 5,
      "note": 78,
      "start": 41.3925,
      "duration": 0.0153,
      "velocity": 89,
      "chip": "ym2612"
    },
    {
      "channel": 3,
      "note": 78,
      "start": 41.3939,
      "duration": 0.0151,
      "velocity": 89,
      "chip": "ym2612"
    },
    {
      "channel": 2,
      "note": 76,
      "start": 41.3954,
      "duration": 0.0146,
      "velocity": 105,
      "chip": "ym2612"
    },
    {
      "channel": 4,
      "note": 57,
      "start": 41.3966,
      "duration": 0.0152,
      "velocity": 100,
      "chip": "ym2612"
    },
    {
      "channel": 1,
      "note": 79,
      "start": 41.4057,
      "duration": 0.0161,
      "velocity": 127,
      "chip": "ym2612"
    },
    {
      "channel": 5,
      "note": 78,
      "start": 41.4078,
      "duration": 0.0152,
      "velocity": 89,
      "chip": "ym2612"
    },
    {
      "channel": 3,
      "note": 78,
      "start": 41.4089,
      "duration": 0.0153,
      "velocity": 89,
      "chip": "ym2612"
    },
    {
      "channel": 2,
      "note": 76,
      "start": 41.4101,
      "duration": 0.0153,
      "velocity": 105,
      "chip": "ym2612"
    },
    {
      "channel": 4,
      "note": 57,
      "start": 41.4119,
      "duration": 0.0146,
      "velocity": 100,
      "chip": "ym2612"
    },
    {
      "channel": 1,
      "note": 79,
      "start": 41.4218,
      "duration": 0.0161,
      "velocity": 127,
      "chip": "ym2612"
    },
    {
      "channel": 5,
      "note": 78,
      "start": 41.423,
      "duration": 0.0162,
      "velocity": 89,
      "chip": "ym2612"
    },
    {
      "channel": 3,
      "note": 78,
      "start": 41.4242,
      "duration": 0.0161,
      "velocity": 89,
      "chip": "ym2612"
    },
    {
      "channel": 4,
      "note": 57,
      "start": 41.4265,
      "duration": 0.0161,
      "velocity": 100,
      "chip": "ym2612"
    },
    {
      "channel": 1,
      "note": 79,
      "start": 41.4379,
      "duration": 0.0161,
      "velocity": 127,
      "chip": "ym2612"
    },
    {
      "channel": 5,
      "note": 78,
      "start": 41.4391,
      "duration": 0.0161,
      "velocity": 89,
      "chip": "ym2612"
    },
    {
      "channel": 3,
      "note": 78,
      "start": 41.4403,
      "duration": 0.0161,
      "velocity": 89,
      "chip": "ym2612"
    },
    {
      "channel": 4,
      "note": 57,
      "start": 41.4426,
      "duration": 0.0161,
      "velocity": 100,
      "chip": "ym2612"
    },
    {
      "channel": 1,
      "note": 79,
      "start": 41.454,
      "duration": 0.0179,
      "velocity": 127,
      "chip": "ym2612"
    },
    {
      "channel": 5,
      "note": 78,
      "start": 41.4552,
      "duration": 0.0214,
      "velocity": 89,
      "chip": "ym2612"
    },
    {
      "channel": 3,
      "note": 78,
      "start": 41.4564,
      "duration": 0.0223,
      "velocity": 89,
      "chip": "ym2612"
    },
    {
      "channel": 4,
      "note": 57,
      "start": 41.4587,
      "duration": 0.0231,
      "velocity": 100,
      "chip": "ym2612"
    },
    {
      "channel": 1,
      "note": 79,
      "start": 41.472,
      "duration": 0.0143,
      "velocity": 127,
      "chip": "ym2612"
    },
    {
      "channel": 0,
      "note": 36,
      "start": 41.4755,
      "duration": 0.0125,
      "velocity": 115,
      "chip": "ym2612"
    },
    {
      "channel": 5,
      "note": 78,
      "start": 41.4767,
      "duration": 0.0125,
      "velocity": 89,
      "chip": "ym2612"
    },
    {
      "channel": 3,
      "note": 85,
      "start": 41.4787,
      "duration": 0.0119,
      "velocity": 89,
      "chip": "ym2612"
    },
    {
      "channel": 2,
      "note": 76,
      "start": 41.4804,
      "duration": 0.0115,
      "velocity": 105,
      "chip": "ym2612"
    },
    {
      "channel": 4,
      "note": 59,
      "start": 41.4818,
      "duration": 0.0113,
      "velocity": 100,
      "chip": "ym2612"
    },
    {
      "channel": 1,
      "note": 79,
      "start": 41.4863,
      "duration": 0.016,
      "velocity": 127,
      "chip": "ym2612"
    },
    {
      "channel": 0,
      "note": 36,
      "start": 41.488,
      "duration": 0.016,
      "velocity": 115,
      "chip": "ym2612"
    },
    {
      "channel": 5,
      "note": 78,
      "start": 41.4892,
      "duration": 0.016,
      "velocity": 89,
      "chip": "ym2612"
    },
    {
      "channel": 3,
      "note": 83,
      "start": 41.4907,
      "duration": 0.016,
      "velocity": 89,
      "chip": "ym2612"
    },
    {
      "channel": 2,
      "note": 76,
      "start": 41.4919,
      "duration": 0.016,
      "velocity": 105,
      "chip": "ym2612"
    },
    {
      "channel": 4,
      "note": 59,
      "start": 41.4931,
      "duration": 0.016,
      "velocity": 100,
      "chip": "ym2612"
    },
    {
      "channel": 1,
      "note": 79,
      "start": 41.5023,
      "duration": 0.0161,
      "velocity": 127,
      "chip": "ym2612"
    },
    {
      "channel": 0,
      "note": 37,
      "start": 41.504,
      "duration": 0.0161,
      "velocity": 115,
      "chip": "ym2612"
    },
    {
      "channel": 5,
      "note": 78,
      "start": 41.5052,
      "duration": 0.0161,
      "velocity": 89,
      "chip": "ym2612"
    },
    {
      "channel": 3,
      "note": 85,
      "start": 41.5067,
      "duration": 0.016,
      "velocity": 89,
      "chip": "ym2612"
    },
    {
      "channel": 2,
      "note": 76,
      "start": 41.5079,
      "duration": 0.016,
      "velocity": 105,
      "chip": "ym2612"
    },
    {
      "channel": 4,
      "note": 59,
      "start": 41.509,
      "duration": 0.016,
      "velocity": 100,
      "chip": "ym2612"
    },
    {
      "channel": 1,
      "note": 79,
      "start": 41.5185,
      "duration": 0.0161,
      "velocity": 127,
      "chip": "ym2612"
    },
    {
      "channel": 0,
      "note": 37,
      "start": 41.5201,
      "duration": 0.0161,
      "velocity": 115,
      "chip": "ym2612"
    },
    {
      "channel": 5,
      "note": 78,
      "start": 41.5213,
      "duration": 0.0161,
      "velocity": 89,
      "chip": "ym2612"
    },
    {
      "channel": 3,
      "note": 83,
      "start": 41.5228,
      "duration": 0.0161,
      "velocity": 89,
      "chip": "ym2612"
    },
    {
      "channel": 2,
      "note": 76,
      "start": 41.5239,
      "duration": 0.0161,
      "velocity": 105,
      "chip": "ym2612"
    },
    {
      "channel": 4,
      "note": 59,
      "start": 41.5251,
      "duration": 0.0162,
      "velocity": 100,
      "chip": "ym2612"
    },
    {
      "channel": 1,
      "note": 79,
      "start": 41.5346,
      "duration": 0.0161,
      "velocity": 127,
      "chip": "ym2612"
    },
    {
      "channel": 0,
      "note": 38,
      "start": 41.5362,
      "duration": 0.0161,
      "velocity": 115,
      "chip": "ym2612"
    },
    {
      "channel": 5,
      "note": 78,
      "start": 41.5374,
      "duration": 0.0161,
      "velocity": 89,
      "chip": "ym2612"
    },
    {
      "channel": 3,
      "note": 85,
      "start": 41.539,
      "duration": 0.016,
      "velocity": 89,
      "chip": "ym2612"
    },
    {
      "channel": 2,
      "note": 76,
      "start": 41.5401,
      "duration": 0.016,
      "velocity": 105,
      "chip": "ym2612"
    },
    {
      "channel": 4,
      "note": 59,
      "start": 41.5412,
      "duration": 0.016,
      "velocity": 100,
      "chip": "ym2612"
    },
    {
      "channel": 1,
      "note": 79,
      "start": 41.5507,
      "duration": 0.0161,
      "velocity": 127,
      "chip": "ym2612"
    },
    {
      "channel": 0,
      "note": 38,
      "start": 41.5523,
      "duration": 0.0161,
      "velocity": 115,
      "chip": "ym2612"
    },
    {
      "channel": 5,
      "note": 78,
      "start": 41.5535,
      "duration": 0.0161,
      "velocity": 89,
      "chip": "ym2612"
    },
    {
      "channel": 3,
      "note": 83,
      "start": 41.555,
      "duration": 0.016,
      "velocity": 89,
      "chip": "ym2612"
    },
    {
      "channel": 2,
      "note": 76,
      "start": 41.5561,
      "duration": 0.016,
      "velocity": 105,
      "chip": "ym2612"
    },
    {
      "channel": 4,
      "note": 59,
      "start": 41.5573,
      "duration": 0.016,
      "velocity": 100,
      "chip": "ym2612"
    },
    {
      "channel": 1,
      "note": 79,
      "start": 41.5668,
      "duration": 0.0161,
      "velocity": 127,
      "chip": "ym2612"
    },
    {
      "channel": 0,
      "note": 39,
      "start": 41.5684,
      "duration": 0.0162,
      "velocity": 115,
      "chip": "ym2612"
    },
    {
      "channel": 5,
      "note": 78,
      "start": 41.5696,
      "duration": 0.0161,
      "velocity": 89,
      "chip": "ym2612"
    },
    {
      "channel": 3,
      "note": 83,
      "start": 41.571,
      "duration": 0.0162,
      "velocity": 89,
      "chip": "ym2612"
    },
    {
      "channel": 2,
      "note": 76,
      "start": 41.5721,
      "duration": 0.0163,
      "velocity": 105,
      "chip": "ym2612"
    },
    {
      "channel": 4,
      "note": 59,
      "start": 41.5733,
      "duration": 0.0162,
      "velocity": 100,
      "chip": "ym2612"
    },
    {
      "channel": 1,
      "note": 79,
      "start": 41.5828,
      "duration": 0.0161,
      "velocity": 127,
      "chip": "ym2612"
    },
    {
      "channel": 0,
      "note": 39,
      "start": 41.5846,
      "duration": 0.0161,
      "velocity": 115,
      "chip": "ym2612"
    },
    {
      "channel": 5,
      "note": 78,
      "start": 41.5857,
      "duration": 0.0161,
      "velocity": 89,
      "chip": "ym2612"
    },
    {
      "channel": 3,
      "note": 85,
      "start": 41.5872,
      "duration": 0.016,
      "velocity": 89,
      "chip": "ym2612"
    },
    {
      "channel": 2,
      "note": 76,
      "start": 41.5884,
      "duration": 0.016,
      "velocity": 105,
      "chip": "ym2612"
    },
    {
      "channel": 4,
      "note": 59,
      "start": 41.5895,
      "duration": 0.016,
      "velocity": 100,
      "chip": "ym2612"
    },
    {
      "channel": 1,
      "note": 79,
      "start": 41.5989,
      "duration": 0.0161,
      "velocity": 127,
      "chip": "ym2612"
    },
    {
      "channel": 0,
      "note": 40,
      "start": 41.6007,
      "duration": 0.0161,
      "velocity": 115,
      "chip": "ym2612"
    },
    {
      "channel": 5,
      "note": 78,
      "start": 41.6018,
      "duration": 0.0161,
      "velocity": 89,
      "chip": "ym2612"
    },
    {
      "channel": 3,
      "note": 83,
      "start": 41.6033,
      "duration": 0.0161,
      "velocity": 89,
      "chip": "ym2612"
    },
    {
      "channel": 2,
      "note": 76,
      "start": 41.6044,
      "duration": 0.0162,
      "velocity": 105,
      "chip": "ym2612"
    },
    {
      "channel": 4,
      "note": 59,
      "start": 41.6056,
      "duration": 0.0161,
      "velocity": 100,
      "chip": "ym2612"
    },
    {
      "channel": 1,
      "note": 79,
      "start": 41.615,
      "duration": 0.0161,
      "velocity": 127,
      "chip": "ym2612"
    },
    {
      "channel": 0,
      "note": 40,
      "start": 41.6168,
      "duration": 0.0161,
      "velocity": 115,
      "chip": "ym2612"
    },
    {
      "channel": 5,
      "note": 78,
      "start": 41.6179,
      "duration": 0.0161,
      "velocity": 89,
      "chip": "ym2612"
    },
    {
      "channel": 3,
      "note": 85,
      "start": 41.6194,
      "duration": 0.016,
      "velocity": 89,
      "chip": "ym2612"
    },
    {
      "channel": 2,
      "note": 76,
      "start": 41.6206,
      "duration": 0.016,
      "velocity": 105,
      "chip": "ym2612"
    },
    {
      "channel": 4,
      "note": 59,
      "start": 41.6217,
      "duration": 0.0161,
      "velocity": 100,
      "chip": "ym2612"
    },
    {
      "channel": 1,
      "note": 79,
      "start": 41.6311,
      "duration": 0.0161,
      "velocity": 127,
      "chip": "ym2612"
    },
    {
      "channel": 0,
      "note": 40,
      "start": 41.6328,
      "duration": 0.0161,
      "velocity": 115,
      "chip": "ym2612"
    },
    {
      "channel": 5,
      "note": 78,
      "start": 41.634,
      "duration": 0.0161,
      "velocity": 89,
      "chip": "ym2612"
    },
    {
      "channel": 3,
      "note": 83,
      "start": 41.6354,
      "duration": 0.0161,
      "velocity": 89,
      "chip": "ym2612"
    },
    {
      "channel": 2,
      "note": 76,
      "start": 41.6366,
      "duration": 0.0161,
      "velocity": 105,
      "chip": "ym2612"
    },
    {
      "channel": 4,
      "note": 59,
      "start": 41.6378,
      "duration": 0.0162,
      "velocity": 100,
      "chip": "ym2612"
    },
    {
      "channel": 1,
      "note": 79,
      "start": 41.6472,
      "duration": 0.0161,
      "velocity": 127,
      "chip": "ym2612"
    },
    {
      "channel": 0,
      "note": 41,
      "start": 41.6489,
      "duration": 0.0161,
      "velocity": 115,
      "chip": "ym2612"
    },
    {
      "channel": 5,
      "note": 78,
      "start": 41.6501,
      "duration": 0.0163,
      "velocity": 89,
      "chip": "ym2612"
    },
    {
      "channel": 3,
      "note": 85,
      "start": 41.6516,
      "duration": 0.0163,
      "velocity": 89,
      "chip": "ym2612"
    },
    {
      "channel": 4,
      "note": 59,
      "start": 41.654,
      "duration": 0.0163,
      "velocity": 100,
      "chip": "ym2612"
    },
    {
      "channel": 1,
      "note": 79,
      "start": 41.6633,
      "duration": 0.0162,
      "velocity": 127,
      "chip": "ym2612"
    },
    {
      "channel": 0,
      "note": 41,
      "start": 41.665,
      "duration": 0.0161,
      "velocity": 115,
      "chip": "ym2612"
    },
    {
      "channel": 5,
      "note": 85,
      "start": 41.6665,
      "duration": 0.0161,
      "velocity": 89,
      "chip": "ym2612"
    },
    {
      "channel": 3,
      "note": 83,
      "start": 41.668,
      "duration": 0.0161,
      "velocity": 89,
      "chip": "ym2612"
    },
    {
      "channel": 4,
      "note": 59,
      "start": 41.6702,
      "duration": 0.0161,
      "velocity": 100,
      "chip": "ym2612"
    },
    {
      "channel": 1,
      "note": 79,
      "start": 41.6795,
      "duration": 0.0163,
      "velocity": 127,
      "chip": "ym2612"
    },
    {
      "channel": 0,
      "note": 42,
      "start": 41.6812,
      "duration": 0.0163,
      "velocity": 115,
      "chip": "ym2612"
    },
    {
      "channel": 5,
      "note": 83,
      "start": 41.6827,
      "duration": 0.0163,
      "velocity": 89,
      "chip": "ym2612"
    },
    {
      "channel": 3,
      "note": 83,
      "start": 41.6841,
      "duration": 0.0163,
      "velocity": 89,
      "chip": "ym2612"
    },
    {
      "channel": 4,
      "note": 59,
      "start": 41.6863,
      "duration": 0.0167,
      "velocity": 100,
      "chip": "ym2612"
    },
    {
      "channel": 1,
      "note": 79,
      "start": 41.6958,
      "duration": 0.0163,
      "velocity": 127,
      "chip": "ym2612"
    },
    {
      "channel": 0,
      "note": 42,
      "start": 41.6975,
      "duration": 0.0163,
      "velocity": 115,
      "chip": "ym2612"
    },
    {
      "channel": 5,
      "note": 85,
      "start": 41.699,
      "duration": 0.0162,
      "velocity": 89,
      "chip": "ym2612"
    },
    {
      "channel": 3,
      "note": 83,
      "start": 41.7004,
      "duration": 0.0161,
      "velocity": 89,
      "chip": "ym2612"
    },
    {
      "channel": 2,
      "note": 76,
      "start": 41.7019,
      "duration": 0.0159,
      "velocity": 105,
      "chip": "ym2612"
    },
    {
      "channel": 4,
      "note": 59,
      "start": 41.7031,
      "duration": 0.0159,
      "velocity": 100,
      "chip": "ym2612"
    },
    {
      "channel": 1,
      "note": 79,
      "start": 41.7121,
      "duration": 0.0162,
      "velocity": 127,
      "chip": "ym2612"
    },
    {
      "channel": 0,
      "note": 43,
      "start": 41.7138,
      "duration": 0.0162,
      "velocity": 115,
      "chip": "ym2612"
    },
    {
      "channel": 5,
      "note": 83,
      "start": 41.7153,
      "duration": 0.0162,
      "velocity": 89,
      "chip": "ym2612"
    },
    {
      "channel": 3,
      "note": 83,
      "start": 41.7165,
      "duration": 0.0162,
      "velocity": 89,
      "chip": "ym2612"
    },
    {
      "channel": 2,
      "note": 76,
      "start": 41.7177,
      "duration": 0.0161,
      "velocity": 105,
      "chip": "ym2612"
    },
    {
      "channel": 4,
      "note": 59,
      "start": 41.7189,
      "duration": 0.0161,
      "velocity": 100,
      "chip": "ym2612"
    },
    {
      "channel": 1,
      "note": 79,
      "start": 41.7283,
      "duration": 0.016,
      "velocity": 127,
      "chip": "ym2612"
    },
    {
      "channel": 0,
      "note": 43,
      "start": 41.73,
      "duration": 0.0161,
      "velocity": 115,
      "chip": "ym2612"
    },
    {
      "channel": 5,
      "note": 85,
      "start": 41.7316,
      "duration": 0.016,
      "velocity": 89,
      "chip": "ym2612"
    },
    {
      "channel": 3,
      "note": 83,
      "start": 41.7327,
      "duration": 0.016,
      "velocity": 89,
      "chip": "ym2612"
    },
    {
      "channel": 2,
      "note": 76,
      "start": 41.7339,
      "duration": 0.0161,
      "velocity": 105,
      "chip": "ym2612"
    },
    {
      "channel": 4,
      "note": 59,
      "start": 41.7351,
      "duration": 0.016,
      "velocity": 100,
      "chip": "ym2612"
    },
    {
      "channel": 1,
      "note": 79,
      "start": 41.7444,
      "duration": 0.0153,
      "velocity": 1,
      "chip": "ym2612"
    },
    {
      "channel": 0,
      "note": 44,
      "start": 41.7461,
      "duration": 0.0158,
      "velocity": 115,
      "chip": "ym2612"
    },
    {
      "channel": 5,
      "note": 83,
      "start": 41.7476,
      "duration": 0.0157,
      "velocity": 89,
      "chip": "ym2612"
    },
    {
      "channel": 3,
      "note": 83,
      "start": 41.7488,
      "duration": 0.0158,
      "velocity": 89,
      "chip": "ym2612"
    },
    {
      "channel": 2,
      "note": 76,
      "start": 41.75,
      "duration": 0.0157,
      "velocity": 105,
      "chip": "ym2612"
    },
    {
      "channel": 4,
      "note": 59,
      "start": 41.7511,
      "duration": 0.0157,
      "velocity": 100,
      "chip": "ym2612"
    },
    {
      "channel": 0,
      "note": 44,
      "start": 41.7619,
      "duration": 0.0147,
      "velocity": 115,
      "chip": "ym2612"
    },
    {
      "channel": 5,
      "note": 83,
      "start": 41.7633,
      "duration": 0.0154,
      "velocity": 89,
      "chip": "ym2612"
    },
    {
      "channel": 3,
      "note": 83,
      "start": 41.7645,
      "duration": 0.0154,
      "velocity": 89,
      "chip": "ym2612"
    },
    {
      "channel": 4,
      "note": 59,
      "start": 41.7668,
      "duration": 0.0154,
      "velocity": 100,
      "chip": "ym2612"
    },
    {
      "channel": 0,
      "note": 44,
      "start": 41.7766,
      "duration": 0.0161,
      "velocity": 115,
      "chip": "ym2612"
    },
    {
      "channel": 5,
      "note": 85,
      "start": 41.7787,
      "duration": 0.016,
      "velocity": 89,
      "chip": "ym2612"
    },
    {
      "channel": 3,
      "note": 83,
      "start": 41.7799,
      "duration": 0.016,
      "velocity": 89,
      "chip": "ym2612"
    },
    {
      "channel": 4,
      "note": 59,
      "start": 41.7822,
      "duration": 0.016,
      "velocity": 100,
      "chip": "ym2612"
    },
    {
      "channel": 0,
      "note": 45,
      "start": 41.7927,
      "duration": 0.0215,
      "velocity": 115,
      "chip": "ym2612"
    },
    {
      "channel": 5,
      "note": 83,
      "start": 41.7947,
      "duration": 0.0209,
      "velocity": 89,
      "chip": "ym2612"
    },
    {
      "channel": 3,
      "note": 83,
      "start": 41.7959,
      "duration": 0.0212,
      "velocity": 89,
      "chip": "ym2612"
    },
    {
      "channel": 4,
      "note": 59,
      "start": 41.7982,
      "duration": 0.0218,
      "velocity": 100,
      "chip": "ym2612"
    },
    {
      "channel": 1,
      "note": 79,
      "start": 41.8101,
      "duration": 0.0143,
      "velocity": 127,
      "chip": "ym2612"
    },
    {
      "channel": 0,
      "note": 36,
      "start": 41.8142,
      "duration": 0.012,
      "velocity": 115,
      "chip": "ym2612"
    },
    {
      "channel": 5,
      "note": 85,
      "start": 41.8157,
      "duration": 0.0124,
      "velocity": 89,
      "chip": "ym2612"
    },
    {
      "channel": 3,
      "note": 85,
      "start": 41.8172,
      "duration": 0.0125,
      "velocity": 89,
      "chip": "ym2612"
    },
    {
      "channel": 2,
      "note": 76,
      "start": 41.8187,
      "duration": 0.0123,
      "velocity": 105,
      "chip": "ym2612"
    },
    {
      "channel": 4,
      "note": 54,
      "start": 41.8201,
      "duration": 0.012,
      "velocity": 100,
      "chip": "ym2612"
    },
    {
      "channel": 1,
      "note": 79,
      "start": 41.8244,
      "duration": 0.0161,
      "velocity": 127,
      "chip": "ym2612"
    },
    {
      "channel": 0,
      "note": 36,
      "start": 41.8262,
      "duration": 0.016,
      "velocity": 115,
      "chip": "ym2612"
    },
    {
      "channel": 5,
      "note": 83,
      "start": 41.8282,
      "duration": 0.0157,
      "velocity": 89,
      "chip": "ym2612"
    },
    {
      "channel": 3,
      "note": 83,
      "start": 41.8297,
      "duration": 0.016,
      "velocity": 89,
      "chip": "ym2612"
    },
    {
      "channel": 2,
      "note": 76,
      "start": 41.8309,
      "duration": 0.016,
      "velocity": 105,
      "chip": "ym2612"
    },
    {
      "channel": 4,
      "note": 54,
      "start": 41.8321,
      "duration": 0.016,
      "velocity": 100,
      "chip": "ym2612"
    },
    {
      "channel": 1,
      "note": 79,
      "start": 41.8405,
      "duration": 0.0161,
      "velocity": 127,
      "chip": "ym2612"
    },
    {
      "channel": 0,
      "note": 37,
      "start": 41.8421,
      "duration": 0.0161,
      "velocity": 115,
      "chip": "ym2612"
    },
    {
      "channel": 5,
      "note": 85,
      "start": 41.8439,
      "duration": 0.0158,
      "velocity": 89,
      "chip": "ym2612"
    },
    {
      "channel": 3,
      "note": 85,
      "start": 41.8458,
      "duration": 0.0159,
      "velocity": 89,
      "chip": "ym2612"
    },
    {
      "channel": 2,
      "note": 76,
      "start": 41.847,
      "duration": 0.016,
      "velocity": 105,
      "chip": "ym2612"
    },
    {
      "channel": 4,
      "note": 54,
      "start": 41.8481,
      "duration": 0.016,
      "velocity": 100,
      "chip": "ym2612"
    },
    {
      "channel": 1,
      "note": 79,
      "start": 41.8566,
      "duration": 0.0161,
      "velocity": 127,
      "chip": "ym2612"
    },
    {
      "channel": 0,
      "note": 37,
      "start": 41.8583,
      "duration": 0.0161,
      "velocity": 115,
      "chip": "ym2612"
    },
    {
      "channel": 5,
      "note": 83,
      "start": 41.8598,
      "duration": 0.016,
      "velocity": 89,
      "chip": "ym2612"
    },
    {
      "channel": 3,
      "note": 83,
      "start": 41.8618,
      "duration": 0.016,
      "velocity": 89,
      "chip": "ym2612"
    },
    {
      "channel": 2,
      "note": 76,
      "start": 41.8629,
      "duration": 0.016,
      "velocity": 105,
      "chip": "ym2612"
    },
    {
      "channel": 4,
      "note": 54,
      "start": 41.8641,
      "duration": 0.0161,
      "velocity": 100,
      "chip": "ym2612"
    },
    {
      "channel": 1,
      "note": 79,
      "start": 41.8727,
      "duration": 0.0161,
      "velocity": 127,
      "chip": "ym2612"
    },
    {
      "channel": 0,
      "note": 38,
      "start": 41.8744,
      "duration": 0.0161,
      "velocity": 115,
      "chip": "ym2612"
    },
    {
      "channel": 5,
      "note": 83,
      "start": 41.8757,
      "duration": 0.0161,
      "velocity": 89,
      "chip": "ym2612"
    },
    {
      "channel": 3,
      "note": 85,
      "start": 41.8778,
      "duration": 0.0155,
      "velocity": 89,
      "chip": "ym2612"
    },
    {
      "channel": 4,
      "note": 54,
      "start": 41.8802,
      "duration": 0.016,
      "velocity": 100,
      "chip": "ym2612"
    },
    {
      "channel": 1,
      "note": 79,
      "start": 41.8888,
      "duration": 0.0161,
      "velocity": 127,
      "chip": "ym2612"
    },
    {
      "channel": 0,
      "note": 38,
      "start": 41.8905,
      "duration": 0.0161,
      "velocity": 115,
      "chip": "ym2612"
    },
    {
      "channel": 5,
      "note": 83,
      "start": 41.8918,
      "duration": 0.016,
      "velocity": 89,
      "chip": "ym2612"
    },
    {
      "channel": 3,
      "note": 83,
      "start": 41.8933,
      "duration": 0.016,
      "velocity": 89,
      "chip": "ym2612"
    },
    {
      "channel": 4,
      "note": 54,
      "start": 41.8961,
      "duration": 0.0161,
      "velocity": 100,
      "chip": "ym2612"
    },
    {
      "channel": 1,
      "note": 79,
      "start": 41.9049,
      "duration": 0.0161,
      "velocity": 127,
      "chip": "ym2612"
    },
    {
      "channel": 0,
      "note": 39,
      "start": 41.9066,
      "duration": 0.0179,
      "velocity": 115,
      "chip": "ym2612"
    },
    {
      "channel": 5,
      "note": 83,
      "start": 41.9078,
      "duration": 0.0179,
      "velocity": 89,
      "chip": "ym2612"
    },
    {
      "channel": 3,
      "note": 85,
      "start": 41.9093,
      "duration": 0.018,
      "velocity": 89,
      "chip": "ym2612"
    },
    {
      "channel": 4,
      "note": 54,
      "start": 41.9122,
      "duration": 0.0185,
      "velocity": 100,
      "chip": "ym2612"
    },
    {
      "channel": 1,
      "note": 79,
      "start": 41.921,
      "duration": 0.0161,
      "velocity": 127,
      "chip": "ym2612"
    },
    {
      "channel": 0,
      "note": 36,
      "start": 41.9245,
      "duration": 0.0143,
      "velocity": 115,
      "chip": "ym2612"
    },
    {
      "channel": 5,
      "note": 83,
      "start": 41.9256,
      "duration": 0.0143,
      "velocity": 89,
      "chip": "ym2612"
    },
    {
      "channel": 3,
      "note": 83,
      "start": 41.9277,
      "duration": 0.0137,
      "velocity": 89,
      "chip": "ym2612"
    },
    {
      "channel": 2,
      "note": 76,
      "start": 41.9293,
      "duration": 0.0134,
      "velocity": 105,
      "chip": "ym2612"
    },
    {
      "channel": 4,
      "note": 54,
      "start": 41.9307,
      "duration": 0.0137,
      "velocity": 100,
      "chip": "ym2612"
    },
    {
      "channel": 1,
      "note": 79,
      "start": 41.937,
      "duration": 0.0161,
      "velocity": 127,
      "chip": "ym2612"
    },
    {
      "channel": 0,
      "note": 36,
      "start": 41.9388,
      "duration": 0.016,
      "velocity": 115,
      "chip": "ym2612"
    },
    {
      "channel": 5,
      "note": 83,
      "start": 41.94,
      "duration": 0.016,
      "velocity": 89,
      "chip": "ym2612"
    },
    {
      "channel": 3,
      "note": 85,
      "start": 41.9415,
      "duration": 0.016,
      "velocity": 89,
      "chip": "ym2612"
    },
    {
      "channel": 2,
      "note": 76,
      "start": 41.9427,
      "duration": 0.016,
      "velocity": 105,
      "chip": "ym2612"
    },
    {
      "channel": 4,
      "note": 54,
      "start": 41.9445,
      "duration": 0.0153,
      "velocity": 100,
      "chip": "ym2612"
    },
    {
      "channel": 1,
      "note": 79,
      "start": 41.9531,
      "duration": 0.0161,
      "velocity": 127,
      "chip": "ym2612"
    },
    {
      "channel": 0,
      "note": 37,
      "start": 41.9549,
      "duration": 0.0161,
      "velocity": 115,
      "chip": "ym2612"
    },
    {
      "channel": 5,
      "note": 83,
      "start": 41.956,
      "duration": 0.0161,
      "velocity": 89,
      "chip": "ym2612"
    },
    {
      "channel": 3,
      "note": 83,
      "start": 41.9575,
      "duration": 0.0162,
      "velocity": 89,
      "chip": "ym2612"
    },
    {
      "channel": 2,
      "note": 76,
      "start": 41.9587,
      "duration": 0.0161,
      "velocity": 105,
      "chip": "ym2612"
    },
    {
      "channel": 4,
      "note": 54,
      "start": 41.9598,
      "duration": 0.0161,
      "velocity": 100,
      "chip": "ym2612"
    },
    {
      "channel": 1,
      "note": 79,
      "start": 41.9692,
      "duration": 0.0161,
      "velocity": 127,
      "chip": "ym2612"
    },
    {
      "channel": 0,
      "note": 37,
      "start": 41.971,
      "duration": 0.0161,
      "velocity": 115,
      "chip": "ym2612"
    },
    {
      "channel": 5,
      "note": 83,
      "start": 41.9721,
      "duration": 0.0162,
      "velocity": 89,
      "chip": "ym2612"
    },
    {
      "channel": 3,
      "note": 85,
      "start": 41.9736,
      "duration": 0.016,
      "velocity": 89,
      "chip": "ym2612"
    },
    {
      "channel": 2,
      "note": 76,
      "start": 41.9748,
      "duration": 0.0161,
      "velocity": 105,
      "chip": "ym2612"
    },
    {
      "channel": 4,
      "note": 54,
      "start": 41.976,
      "duration": 0.016,
      "velocity": 100,
      "chip": "ym2612"
    },
    {
      "channel": 1,
      "note": 79,
      "start": 41.9854,
      "duration": 0.0161,
      "velocity": 127,
      "chip": "ym2612"
    },
    {
      "channel": 0,
      "note": 38,
      "start": 41.987,
      "duration": 0.0161,
      "velocity": 115,
      "chip": "ym2612"
    },
    {
      "channel": 5,
      "note": 83,
      "start": 41.9883,
      "duration": 0.0163,
      "velocity": 89,
      "chip": "ym2612"
    },
    {
      "channel": 3,
      "note": 83,
      "start": 41.9897,
      "duration": 0.0164,
      "velocity": 89,
      "chip": "ym2612"
    },
    {
      "channel": 2,
      "note": 76,
      "start": 41.9909,
      "duration": 0.0164,
      "velocity": 105,
      "chip": "ym2612"
    },
    {
      "channel": 4,
      "note": 54,
      "start": 41.992,
      "duration": 0.0165,
      "velocity": 100,
      "chip": "ym2612"
    },
    {
      "channel": 1,
      "note": 79,
      "start": 42.0015,
      "duration": 0.0161,
      "velocity": 127,
      "chip": "ym2612"
    },
    {
      "channel": 0,
      "note": 38,
      "start": 42.0031,
      "duration": 0.0162,
      "velocity": 115,
      "chip": "ym2612"
    },
    {
      "channel": 5,
      "note": 85,
      "start": 42.0046,
      "duration": 0.0161,
      "velocity": 89,
      "chip": "ym2612"
    },
    {
      "channel": 3,
      "note": 85,
      "start": 42.0061,
      "duration": 0.016,
      "velocity": 89,
      "chip": "ym2612"
    },
    {
      "channel": 2,
      "note": 76,
      "start": 42.0073,
      "duration": 0.0161,
      "velocity": 105,
      "chip": "ym2612"
    },
    {
      "channel": 4,
      "note": 54,
      "start": 42.0085,
      "duration": 0.016,
      "velocity": 100,
      "chip": "ym2612"
    },
    {
      "channel": 1,
      "note": 79,
      "start": 42.0176,
      "duration": 0.0179,
      "velocity": 127,
      "chip": "ym2612"
    },
    {
      "channel": 0,
      "note": 39,
      "start": 42.0193,
      "duration": 0.0179,
      "velocity": 115,
      "chip": "ym2612"
    },
    {
      "channel": 5,
      "note": 83,
      "start": 42.0207,
      "duration": 0.0179,
      "velocity": 89,
      "chip": "ym2612"
    },
    {
      "channel": 3,
      "note": 83,
      "start": 42.0222,
      "duration": 0.0179,
      "velocity": 89,
      "chip": "ym2612"
    },
    {
      "channel": 2,
      "note": 76,
      "start": 42.0234,
      "duration": 0.018,
      "velocity": 105,
      "chip": "ym2612"
    },
    {
      "channel": 4,
      "note": 54,
      "start": 42.0245,
      "duration": 0.018,
      "velocity": 100,
      "chip": "ym2612"
    },
    {
      "channel": 1,
      "note": 79,
      "start": 42.0354,
      "duration": 0.0144,
      "velocity": 127,
      "chip": "ym2612"
    },
    {
      "channel": 0,
      "note": 39,
      "start": 42.0372,
      "duration": 0.0144,
      "velocity": 115,
      "chip": "ym2612"
    },
    {
      "channel": 5,
      "note": 85,
      "start": 42.0387,
      "duration": 0.0143,
      "velocity": 89,
      "chip": "ym2612"
    },
    {
      "channel": 3,
      "note": 85,
      "start": 42.0402,
      "duration": 0.0142,
      "velocity": 89,
      "chip": "ym2612"
    },
    {
      "channel": 2,
      "note": 76,
      "start": 42.0414,
      "duration": 0.0143,
      "velocity": 105,
      "chip": "ym2612"
    },
    {
      "channel": 4,
      "note": 54,
      "start": 42.0425,
      "duration": 0.0142,
      "velocity": 100,
      "chip": "ym2612"
    },
    {
      "channel": 1,
      "note": 79,
      "start": 42.0498,
      "duration": 0.016,
      "velocity": 127,
      "chip": "ym2612"
    },
    {
      "channel": 0,
      "note": 40,
      "start": 42.0515,
      "duration": 0.016,
      "velocity": 115,
      "chip": "ym2612"
    },
    {
      "channel": 5,
      "note": 83,
      "start": 42.053,
      "duration": 0.016,
      "velocity": 89,
      "chip": "ym2612"
    },
    {
      "channel": 3,
      "note": 83,
      "start": 42.0545,
      "duration": 0.0161,
      "velocity": 89,
      "chip": "ym2612"
    },
    {
      "channel": 2,
      "note": 76,
      "start": 42.0556,
      "duration": 0.0161,
      "velocity": 105,
      "chip": "ym2612"
    },
    {
      "channel": 4,
      "note": 54,
      "start": 42.0568,
      "duration": 0.0162,
      "velocity": 100,
      "chip": "ym2612"
    },
    {
      "channel": 1,
      "note": 79,
      "start": 42.0659,
      "duration": 0.0161,
      "velocity": 127,
      "chip": "ym2612"
    },
    {
      "channel": 0,
      "note": 40,
      "start": 42.0676,
      "duration": 0.0161,
      "velocity": 115,
      "chip": "ym2612"
    },
    {
      "channel": 5,
      "note": 85,
      "start": 42.0691,
      "duration": 0.016,
      "velocity": 89,
      "chip": "ym2612"
    },
    {
      "channel": 3,
      "note": 85,
      "start": 42.0706,
      "duration": 0.0159,
      "velocity": 89,
      "chip": "ym2612"
    },
    {
      "channel": 2,
      "note": 76,
      "start": 42.0718,
      "duration": 0.016,
      "velocity": 105,
      "chip": "ym2612"
    },
    {
      "channel": 4,
      "note": 54,
      "start": 42.0729,
      "duration": 0.016,
      "velocity": 100,
      "chip": "ym2612"
    },
    {
      "channel": 1,
      "note": 79,
      "start": 42.082,
      "duration": 0.0161,
      "velocity": 127,
      "chip": "ym2612"
    },
    {
      "channel": 0,
      "note": 40,
      "start": 42.0837,
      "duration": 0.0161,
      "velocity": 115,
      "chip": "ym2612"
    },
    {
      "channel": 5,
      "note": 83,
      "start": 42.0851,
      "duration": 0.0161,
      "velocity": 89,
      "chip": "ym2612"
    },
    {
      "channel": 3,
      "note": 83,
      "start": 42.0866,
      "duration": 0.0161,
      "velocity": 89,
      "chip": "ym2612"
    },
    {
      "channel": 2,
      "note": 76,
      "start": 42.0877,
      "duration": 0.0162,
      "velocity": 105,
      "chip": "ym2612"
    },
    {
      "channel": 4,
      "note": 54,
      "start": 42.0889,
      "duration": 0.0162,
      "velocity": 100,
      "chip": "ym2612"
    },
    {
      "channel": 1,
      "note": 79,
      "start": 42.098,
      "duration": 0.0161,
      "velocity": 127,
      "chip": "ym2612"
    },
    {
      "channel": 0,
      "note": 41,
      "start": 42.0998,
      "duration": 0.0161,
      "velocity": 115,
      "chip": "ym2612"
    },
    {
      "channel": 5,
      "note": 85,
      "start": 42.1013,
      "duration": 0.016,
      "velocity": 89,
      "chip": "ym2612"
    },
    {
      "channel": 3,
      "note": 85,
      "start": 42.1028,
      "duration": 0.0159,
      "velocity": 89,
      "chip": "ym2612"
    },
    {
      "channel": 4,
      "note": 54,
      "start": 42.1051,
      "duration": 0.016,
      "velocity": 100,
      "chip": "ym2612"
    },
    {
      "channel": 1,
      "note": 79,
      "start": 42.1141,
      "duration": 0.0161,
      "velocity": 127,
      "chip": "ym2612"
    },
    {
      "channel": 0,
      "note": 41,
      "start": 42.1159,
      "duration": 0.0161,
      "velocity": 115,
      "chip": "ym2612"
    },
    {
      "channel": 5,
      "note": 83,
      "start": 42.1173,
      "duration": 0.0161,
      "velocity": 89,
      "chip": "ym2612"
    },
    {
      "channel": 3,
      "note": 83,
      "start": 42.1188,
      "duration": 0.0162,
      "velocity": 89,
      "chip": "ym2612"
    },
    {
      "channel": 4,
      "note": 54,
      "start": 42.1211,
      "duration": 0.0162,
      "velocity": 100,
      "chip": "ym2612"
    },
    {
      "channel": 1,
      "note": 79,
      "start": 42.1303,
      "duration": 0.0178,
      "velocity": 127,
      "chip": "ym2612"
    },
    {
      "channel": 0,
      "note": 42,
      "start": 42.132,
      "duration": 0.0197,
      "velocity": 124,
      "chip": "ym2612"
    },
    {
      "channel": 5,
      "note": 85,
      "start": 42.1335,
      "duration": 0.0197,
      "velocity": 89,
      "chip": "ym2612"
    },
    {
      "channel": 3,
      "note": 85,
      "start": 42.135,
      "duration": 0.0196,
      "velocity": 89,
      "chip": "ym2612"
    },
    {
      "channel": 4,
      "note": 54,
      "start": 42.1373,
      "duration": 0.02,
      "velocity": 100,
      "chip": "ym2612"
    },
    {
      "channel": 1,
      "note": 72,
      "start": 42.1482,
      "duration": 0.0144,
      "velocity": 127,
      "chip": "ym2612"
    },
    {
      "channel": 0,
      "note": 84,
      "start": 42.1517,
      "duration": 0.0127,
      "velocity": 124,
      "chip": "ym2612"
    },
    {
      "channel": 5,
      "note": 83,
      "start": 42.1532,
      "duration": 0.0127,
      "velocity": 89,
      "chip": "ym2612"
    },
    {
      "channel": 3,
      "note": 83,
      "start": 42.1547,
      "duration": 0.0127,
      "velocity": 89,
      "chip": "ym2612"
    },
    {
      "channel": 2,
      "note": 76,
      "start": 42.1561,
      "duration": 0.0125,
      "velocity": 105,
      "chip": "ym2612"
    },
    {
      "channel": 4,
      "note": 54,
      "start": 42.1573,
      "duration": 0.0125,
      "velocity": 100,
      "chip": "ym2612"
    },
    {
      "channel": 1,
      "note": 72,
      "start": 42.1626,
      "duration": 0.0163,
      "velocity": 127,
      "chip": "ym2612"
    },
    {
      "channel": 0,
      "note": 82,
      "start": 42.1644,
      "duration": 0.0163,
      "velocity": 124,
      "chip": "ym2612"
    },
    {
      "channel": 5,
      "note": 85,
      "start": 42.1659,
      "duration": 0.0162,
      "velocity": 89,
      "chip": "ym2612"
    },
    {
      "channel": 3,
      "note": 85,
      "start": 42.1674,
      "duration": 0.0161,
      "velocity": 89,
      "chip": "ym2612"
    },
    {
      "channel": 2,
      "note": 76,
      "start": 42.1687,
      "duration": 0.0161,
      "velocity": 105,
      "chip": "ym2612"
    },
    {
      "channel": 4,
      "note": 54,
      "start": 42.1698,
      "duration": 0.0161,
      "velocity": 100,
      "chip": "ym2612"
    },
    {
      "channel": 1,
      "note": 72,
      "start": 42.179,
      "duration": 0.0163,
      "velocity": 127,
      "chip": "ym2612"
    },
    {
      "channel": 0,
      "note": 80,
      "start": 42.1807,
      "duration": 0.0163,
      "velocity": 124,
      "chip": "ym2612"
    },
    {
      "channel": 5,
      "note": 83,
      "start": 42.1821,
      "duration": 0.0163,
      "velocity": 89,
      "chip": "ym2612"
    },
    {
      "channel": 3,
      "note": 83,
      "start": 42.1836,
      "duration": 0.0163,
      "velocity": 89,
      "chip": "ym2612"
    },
    {
      "channel": 2,
      "note": 76,
      "start": 42.1847,
      "duration": 0.0164,
      "velocity": 105,
      "chip": "ym2612"
    },
    {
      "channel": 4,
      "note": 54,
      "start": 42.1859,
      "duration": 0.0164,
      "velocity": 100,
      "chip": "ym2612"
    },
    {
      "channel": 1,
      "note": 72,
      "start": 42.1952,
      "duration": 0.0161,
      "velocity": 127,
      "chip": "ym2612"
    },
    {
      "channel": 0,
      "note": 77,
      "start": 42.197,
      "duration": 0.0161,
      "velocity": 124,
      "chip": "ym2612"
    },
    {
      "channel": 5,
      "note": 85,
      "start": 42.1985,
      "duration": 0.016,
      "velocity": 89,
      "chip": "ym2612"
    },
    {
      "channel": 3,
      "note": 85,
      "start": 42.2,
      "duration": 0.016,
      "velocity": 89,
      "chip": "ym2612"
    },
    {
      "channel": 2,
      "note": 76,
      "start": 42.2012,
      "duration": 0.016,
      "velocity": 105,
      "chip": "ym2612"
    },
    {
      "channel": 4,
      "note": 54,
      "start": 42.2023,
      "duration": 0.016,
      "velocity": 100,
      "chip": "ym2612"
    },
    {
      "channel": 1,
      "note": 72,
      "start": 42.2113,
      "duration": 0.0157,
      "velocity": 127,
      "chip": "ym2612"
    },
    {
      "channel": 0,
      "note": 75,
      "start": 42.2131,
      "duration": 0.0161,
      "velocity": 124,
      "chip": "ym2612"
    },
    {
      "channel": 5,
      "note": 83,
      "start": 42.2145,
      "duration": 0.0162,
      "velocity": 89,
      "chip": "ym2612"
    },
    {
      "channel": 3,
      "note": 83,
      "start": 42.216,
      "duration": 0.0161,
      "velocity": 89,
      "chip": "ym2612"
    },
    {
      "channel": 4,
      "note": 54,
      "start": 42.2183,
      "duration": 0.0161,
      "velocity": 100,
      "chip": "ym2612"
    },
    {
      "channel": 1,
      "note": 72,
      "start": 42.2271,
      "duration": 0.0159,
      "velocity": 127,
      "chip": "ym2612"
    },
    {
      "channel": 0,
      "note": 72,
      "start": 42.2292,
      "duration": 0.0161,
      "velocity": 124,
      "chip": "ym2612"
    },
    {
      "channel": 5,
      "note": 85,
      "start": 42.2307,
      "duration": 0.016,
      "velocity": 89,
      "chip": "ym2612"
    },
    {
      "channel": 3,
      "note": 85,
      "start": 42.2322,
      "duration": 0.016,
      "velocity": 89,
      "chip": "ym2612"
    },
    {
      "channel": 4,
      "note": 54,
      "start": 42.2345,
      "duration": 0.016,
      "velocity": 100,
      "chip": "ym2612"
    },
    {
      "channel": 1,
      "note": 72,
      "start": 42.2429,
      "duration": 0.0162,
      "velocity": 127,
      "chip": "ym2612"
    },
    {
      "channel": 0,
      "note": 70,
      "start": 42.2453,
      "duration": 0.0179,
      "velocity": 115,
      "chip": "ym2612"
    },
    {
      "channel": 5,
      "note": 83,
      "start": 42.2468,
      "duration": 0.0179,
      "velocity": 89,
      "chip": "ym2612"
    },
    {
      "channel": 3,
      "note": 83,
      "start": 42.2482,
      "duration": 0.018,
      "velocity": 89,
      "chip": "ym2612"
    },
    {
      "channel": 4,
      "note": 54,
      "start": 42.2505,
      "duration": 0.0187,
      "velocity": 100,
      "chip": "ym2612"
    },
    {
      "channel": 1,
      "note": 72,
      "start": 42.2591,
      "duration": 0.0161,
      "velocity": 127,
      "chip": "ym2612"
    },
    {
      "channel": 0,
      "note": 36,
      "start": 42.2632,
      "duration": 0.0139,
      "velocity": 115,
      "chip": "ym2612"
    },
    {
      "channel": 5,
      "note": 85,
      "start": 42.2648,
      "duration": 0.0142,
      "velocity": 89,
      "chip": "ym2612"
    },
    {
      "channel": 3,
      "note": 85,
      "start": 42.2663,
      "duration": 0.0141,
      "velocity": 89,
      "chip": "ym2612"
    },
    {
      "channel": 2,
      "note": 76,
      "start": 42.2678,
      "duration": 0.0139,
      "velocity": 105,
      "chip": "ym2612"
    },
    {
      "channel": 4,
      "note": 54,
      "start": 42.2692,
      "duration": 0.0137,
      "velocity": 100,
      "chip": "ym2612"
    },
    {
      "channel": 1,
      "note": 72,
      "start": 42.2752,
      "duration": 0.0161,
      "velocity": 127,
      "chip": "ym2612"
    },
    {
      "channel": 0,
      "note": 36,
      "start": 42.2772,
      "duration": 0.0158,
      "velocity": 115,
      "chip": "ym2612"
    },
    {
      "channel": 5,
      "note": 83,
      "start": 42.279,
      "duration": 0.016,
      "velocity": 89,
      "chip": "ym2612"
    },
    {
      "channel": 3,
      "note": 83,
      "start": 42.2805,
      "duration": 0.0161,
      "velocity": 89,
      "chip": "ym2612"
    },
    {
      "channel": 2,
      "note": 76,
      "start": 42.2817,
      "duration": 0.0161,
      "velocity": 105,
      "chip": "ym2612"
    },
    {
      "channel": 4,
      "note": 54,
      "start": 42.2829,
      "duration": 0.016,
      "velocity": 100,
      "chip": "ym2612"
    },
    {
      "channel": 1,
      "note": 72,
      "start": 42.2913,
      "duration": 0.0161,
      "velocity": 127,
      "chip": "ym2612"
    },
    {
      "channel": 0,
      "note": 37,
      "start": 42.2929,
      "duration": 0.0162,
      "velocity": 115,
      "chip": "ym2612"
    },
    {
      "channel": 5,
      "note": 85,
      "start": 42.2951,
      "duration": 0.016,
      "velocity": 89,
      "chip": "ym2612"
    },
    {
      "channel": 3,
      "note": 85,
      "start": 42.2966,
      "duration": 0.016,
      "velocity": 89,
      "chip": "ym2612"
    },
    {
      "channel": 2,
      "note": 76,
      "start": 42.2978,
      "duration": 0.016,
      "velocity": 105,
      "chip": "ym2612"
    },
    {
      "channel": 4,
      "note": 54,
      "start": 42.2989,
      "duration": 0.016,
      "velocity": 100,
      "chip": "ym2612"
    },
    {
      "channel": 1,
      "note": 72,
      "start": 42.3074,
      "duration": 0.0161,
      "velocity": 127,
      "chip": "ym2612"
    },
    {
      "channel": 0,
      "note": 37,
      "start": 42.3091,
      "duration": 0.0161,
      "velocity": 115,
      "chip": "ym2612"
    },
    {
      "channel": 5,
      "note": 83,
      "start": 42.3111,
      "duration": 0.0156,
      "velocity": 89,
      "chip": "ym2612"
    },
    {
      "channel": 3,
      "note": 83,
      "start": 42.3126,
      "duration": 0.0162,
      "velocity": 89,
      "chip": "ym2612"
    },
    {
      "channel": 2,
      "note": 76,
      "start": 42.3138,
      "duration": 0.0162,
      "velocity": 105,
      "chip": "ym2612"
    },
    {
      "channel": 4,
      "note": 54,
      "start": 42.3149,
      "duration": 0.0162,
      "velocity": 100,
      "chip": "ym2612"
    },
    {
      "channel": 1,
      "note": 72,
      "start": 42.3235,
      "duration": 0.0161,
      "velocity": 127,
      "chip": "ym2612"
    },
    {
      "channel": 0,
      "note": 38,
      "start": 42.3252,
      "duration": 0.0161,
      "velocity": 115,
      "chip": "ym2612"
    },
    {
      "channel": 5,
      "note": 85,
      "start": 42.3267,
      "duration": 0.016,
      "velocity": 89,
      "chip": "ym2612"
    },
    {
      "channel": 3,
      "note": 85,
      "start": 42.3288,
      "duration": 0.0159,
      "velocity": 89,
      "chip": "ym2612"
    },
    {
      "channel": 4,
      "note": 54,
      "start": 42.3311,
      "duration": 0.016,
      "velocity": 100,
      "chip": "ym2612"
    },
    {
      "channel": 1,
      "note": 72,
      "start": 42.3396,
      "duration": 0.0161,
      "velocity": 127,
      "chip": "ym2612"
    },
    {
      "channel": 0,
      "note": 38,
      "start": 42.3413,
      "duration": 0.0161,
      "velocity": 115,
      "chip": "ym2612"
    },
    {
      "channel": 5,
      "note": 83,
      "start": 42.3428,
      "duration": 0.0161,
      "velocity": 89,
      "chip": "ym2612"
    },
    {
      "channel": 3,
      "note": 83,
      "start": 42.3447,
      "duration": 0.0158,
      "velocity": 89,
      "chip": "ym2612"
    },
    {
      "channel": 4,
      "note": 54,
      "start": 42.3471,
      "duration": 0.0162,
      "velocity": 100,
      "chip": "ym2612"
    },
    {
      "channel": 1,
      "note": 72,
      "start": 42.3557,
      "duration": 0.0161,
      "velocity": 127,
      "chip": "ym2612"
    },
    {
      "channel": 0,
      "note": 39,
      "start": 42.3574,
      "duration": 0.0161,
      "velocity": 115,
      "chip": "ym2612"
    },
    {
      "channel": 5,
      "note": 85,
      "start": 42.3589,
      "duration": 0.016,
      "velocity": 89,
      "chip": "ym2612"
    },
    {
      "channel": 3,
      "note": 85,
      "start": 42.361,
      "duration": 0.0154,
      "velocity": 89,
      "chip": "ym2612"
    },
    {
      "channel": 4,
      "note": 54,
      "start": 42.3633,
      "duration": 0.0165,
      "velocity": 100,
      "chip": "ym2612"
    },
    {
      "channel": 1,
      "note": 72,
      "start": 42.3718,
      "duration": 0.0161,
      "velocity": 127,
      "chip": "ym2612"
    },
    {
      "channel": 0,
      "note": 39,
      "start": 42.3735,
      "duration": 0.0161,
      "velocity": 115,
      "chip": "ym2612"
    },
    {
      "channel": 5,
      "note": 83,
      "start": 42.3749,
      "duration": 0.0161,
      "velocity": 89,
      "chip": "ym2612"
    },
    {
      "channel": 3,
      "note": 83,
      "start": 42.3764,
      "duration": 0.0162,
      "velocity": 89,
      "chip": "ym2612"
    },
    {
      "channel": 2,
      "note": 76,
      "start": 42.3786,
      "duration": 0.0158,
      "velocity": 105,
      "chip": "ym2612"
    },
    {
      "channel": 4,
      "note": 54,
      "start": 42.3798,
      "duration": 0.0158,
      "velocity": 100,
      "chip": "ym2612"
    },
    {
      "channel": 1,
      "note": 72,
      "start": 42.3879,
      "duration": 0.0161,
      "velocity": 127,
      "chip": "ym2612"
    },
    {
      "channel": 0,
      "note": 40,
      "start": 42.3896,
      "duration": 0.0161,
      "velocity": 115,
      "chip": "ym2612"
    },
    {
      "channel": 5,
      "note": 85,
      "start": 42.3911,
      "duration": 0.016,
      "velocity": 89,
      "chip": "ym2612"
    },
    {
      "channel": 3,
      "note": 85,
      "start": 42.3926,
      "duration": 0.0159,
      "velocity": 89,
      "chip": "ym2612"
    },
    {
      "channel": 2,
      "note": 76,
      "start": 42.3944,
      "duration": 0.0153,
      "velocity": 105,
      "chip": "ym2612"
    },
    {
      "channel": 4,
      "note": 54,
      "start": 42.3956,
      "duration": 0.0159,
      "velocity": 100,
      "chip": "ym2612"
    },
    {
      "channel": 1,
      "note": 72,
      "start": 42.404,
      "duration": 0.0161,
      "velocity": 127,
      "chip": "ym2612"
    },
    {
      "channel": 0,
      "note": 40,
      "start": 42.4057,
      "duration": 0.0161,
      "velocity": 115,
      "chip": "ym2612"
    },
    {
      "channel": 5,
      "note": 83,
      "start": 42.4071,
      "duration": 0.0161,
      "velocity": 89,
      "chip": "ym2612"
    },
    {
      "channel": 3,
      "note": 83,
      "start": 42.4086,
      "duration": 0.0162,
      "velocity": 89,
      "chip": "ym2612"
    },
    {
      "channel": 2,
      "note": 76,
      "start": 42.4098,
      "duration": 0.0162,
      "velocity": 105,
      "chip": "ym2612"
    },
    {
      "channel": 4,
      "note": 54,
      "start": 42.4115,
      "duration": 0.0162,
      "velocity": 100,
      "chip": "ym2612"
    },
    {
      "channel": 1,
      "note": 72,
      "start": 42.4201,
      "duration": 0.0159,
      "velocity": 1,
      "chip": "ym2612"
    },
    {
      "channel": 0,
      "note": 40,
      "start": 42.4218,
      "duration": 0.0159,
      "velocity": 115,
      "chip": "ym2612"
    },
    {
      "channel": 5,
      "note": 85,
      "start": 42.4233,
      "duration": 0.0157,
      "velocity": 89,
      "chip": "ym2612"
    },
    {
      "channel": 3,
      "note": 85,
      "start": 42.4248,
      "duration": 0.0156,
      "velocity": 89,
      "chip": "ym2612"
    },
    {
      "channel": 2,
      "note": 76,
      "start": 42.426,
      "duration": 0.0157,
      "velocity": 105,
      "chip": "ym2612"
    },
    {
      "channel": 4,
      "note": 54,
      "start": 42.4277,
      "duration": 0.0151,
      "velocity": 100,
      "chip": "ym2612"
    },
    {
      "channel": 0,
      "note": 41,
      "start": 42.4376,
      "duration": 0.0153,
      "velocity": 115,
      "chip": "ym2612"
    },
    {
      "channel": 5,
      "note": 83,
      "start": 42.4391,
      "duration": 0.0153,
      "velocity": 89,
      "chip": "ym2612"
    },
    {
      "channel": 3,
      "note": 83,
      "start": 42.4405,
      "duration": 0.0153,
      "velocity": 89,
      "chip": "ym2612"
    },
    {
      "channel": 2,
      "note": 76,
      "start": 42.4417,
      "duration": 0.0154,
      "velocity": 105,
      "chip": "ym2612"
    },
    {
      "channel": 4,
      "note": 54,
      "start": 42.4428,
      "duration": 0.0154,
      "velocity": 100,
      "chip": "ym2612"
    },
    {
      "channel": 0,
      "note": 41,
      "start": 42.4529,
      "duration": 0.0161,
      "velocity": 115,
      "chip": "ym2612"
    },
    {
      "channel": 5,
      "note": 85,
      "start": 42.4544,
      "duration": 0.016,
      "velocity": 89,
      "chip": "ym2612"
    },
    {
      "channel": 3,
      "note": 85,
      "start": 42.4559,
      "duration": 0.016,
      "velocity": 89,
      "chip": "ym2612"
    },
    {
      "channel": 2,
      "note": 76,
      "start": 42.4571,
      "duration": 0.016,
      "velocity": 105,
      "chip": "ym2612"
    },
    {
      "channel": 4,
      "note": 54,
      "start": 42.4582,
      "duration": 0.016,
      "velocity": 100,
      "chip": "ym2612"
    },
    {
      "channel": 0,
      "note": 42,
      "start": 42.469,
      "duration": 0.0208,
      "velocity": 115,
      "chip": "ym2612"
    },
    {
      "channel": 5,
      "note": 83,
      "start": 42.4704,
      "duration": 0.0209,
      "velocity": 89,
      "chip": "ym2612"
    },
    {
      "channel": 3,
      "note": 83,
      "start": 42.4719,
      "duration": 0.0209,
      "velocity": 89,
      "chip": "ym2612"
    },
    {
      "channel": 2,
      "note": 76,
      "start": 42.473,
      "duration": 0.0215,
      "velocity": 105,
      "chip": "ym2612"
    },
    {
      "channel": 4,
      "note": 54,
      "start": 42.4742,
      "duration": 0.0219,
      "velocity": 100,
      "chip": "ym2612"
    },
    {
      "channel": 1,
      "note": 72,
      "start": 42.4863,
      "duration": 0.0144,
      "velocity": 127,
      "chip": "ym2612"
    },
    {
      "channel": 0,
      "note": 36,
      "start": 42.4898,
      "duration": 0.0126,
      "velocity": 115,
      "chip": "ym2612"
    },
    {
      "channel": 5,
      "note": 85,
      "start": 42.4914,
      "duration": 0.0125,
      "velocity": 89,
      "chip": "ym2612"
    },
    {
      "channel": 3,
      "note": 85,
      "start": 42.4928,
      "duration": 0.0125,
      "velocity": 89,
      "chip": "ym2612"
    },
    {
      "channel": 2,
      "note": 76,
      "start": 42.4945,
      "duration": 0.012,
      "velocity": 105,
      "chip": "ym2612"
    },
    {
      "channel": 4,
      "note": 59,
      "start": 42.4961,
      "duration": 0.0116,
      "velocity": 100,
      "chip": "ym2612"
    },
    {
      "channel": 1,
      "note": 72,
      "start": 42.5007,
      "duration": 0.016,
      "velocity": 127,
      "chip": "ym2612"
    },
    {
      "channel": 0,
      "note": 36,
      "start": 42.5024,
      "duration": 0.016,
      "velocity": 115,
      "chip": "ym2612"
    },
    {
      "channel": 5,
      "note": 83,
      "start": 42.5039,
      "duration": 0.016,
      "velocity": 89,
      "chip": "ym2612"
    },
    {
      "channel": 3,
      "note": 83,
      "start": 42.5054,
      "duration": 0.016,
      "velocity": 89,
      "chip": "ym2612"
    },
    {
      "channel": 2,
      "note": 76,
      "start": 42.5065,
      "duration": 0.0161,
      "velocity": 105,
      "chip": "ym2612"
    },
    {
      "channel": 4,
      "note": 59,
      "start": 42.5077,
      "duration": 0.016,
      "velocity": 100,
      "chip": "ym2612"
    },
    {
      "channel": 1,
      "note": 72,
      "start": 42.5167,
      "duration": 0.0161,
      "velocity": 127,
      "chip": "ym2612"
    },
    {
      "channel": 0,
      "note": 37,
      "start": 42.5184,
      "duration": 0.0161,
      "velocity": 115,
      "chip": "ym2612"
    },
    {
      "channel": 5,
      "note": 85,
      "start": 42.5199,
      "duration": 0.016,
      "velocity": 89,
      "chip": "ym2612"
    },
    {
      "channel": 3,
      "note": 85,
      "start": 42.5215,
      "duration": 0.0159,
      "velocity": 89,
      "chip": "ym2612"
    },
    {
      "channel": 2,
      "note": 76,
      "start": 42.5226,
      "duration": 0.016,
      "velocity": 105,
      "chip": "ym2612"
    },
    {
      "channel": 4,
      "note": 59,
      "start": 42.5237,
      "duration": 0.016,
      "velocity": 100,
      "chip": "ym2612"
    },
    {
      "channel": 1,
      "note": 72,
      "start": 42.5328,
      "duration": 0.0161,
      "velocity": 127,
      "chip": "ym2612"
    },
    {
      "channel": 0,
      "note": 37,
      "start": 42.5345,
      "duration": 0.0161,
      "velocity": 115,
      "chip": "ym2612"
    },
    {
      "channel": 5,
      "note": 83,
      "start": 42.536,
      "duration": 0.0161,
      "velocity": 89,
      "chip": "ym2612"
    },
    {
      "channel": 3,
      "note": 83,
      "start": 42.5374,
      "duration": 0.0162,
      "velocity": 89,
      "chip": "ym2612"
    },
    {
      "channel": 2,
      "note": 76,
      "start": 42.5386,
      "duration": 0.0162,
      "velocity": 105,
      "chip": "ym2612"
    },
    {
      "channel": 4,
      "note": 59,
      "start": 42.5397,
      "duration": 0.0162,
      "velocity": 100,
      "chip": "ym2612"
    },
    {
      "channel": 1,
      "note": 72,
      "start": 42.5489,
      "duration": 0.0162,
      "velocity": 127,
      "chip": "ym2612"
    },
    {
      "channel": 0,
      "note": 38,
      "start": 42.5506,
      "duration": 0.0161,
      "velocity": 115,
      "chip": "ym2612"
    },
    {
      "channel": 5,
      "note": 85,
      "start": 42.5521,
      "duration": 0.016,
      "velocity": 89,
      "chip": "ym2612"
    },
    {
      "channel": 3,
      "note": 85,
      "start": 42.5537,
      "duration": 0.016,
      "velocity": 89,
      "chip": "ym2612"
    },
    {
      "channel": 4,
      "note": 59,
      "start": 42.5559,
      "duration": 0.016,
      "velocity": 100,
      "chip": "ym2612"
    },
    {
      "channel": 1,
      "note": 72,
      "start": 42.565,
      "duration": 0.0161,
      "velocity": 127,
      "chip": "ym2612"
    },
    {
      "channel": 0,
      "note": 38,
      "start": 42.5667,
      "duration": 0.0161,
      "velocity": 115,
      "chip": "ym2612"
    },
    {
      "channel": 5,
      "note": 83,
      "start": 42.5681,
      "duration": 0.0162,
      "velocity": 89,
      "chip": "ym2612"
    },
    {
      "channel": 3,
      "note": 83,
      "start": 42.5696,
      "duration": 0.0161,
      "velocity": 89,
      "chip": "ym2612"
    },
    {
      "channel": 4,
      "note": 59,
      "start": 42.572,
      "duration": 0.0161,
      "velocity": 100,
      "chip": "ym2612"
    },
    {
      "channel": 1,
      "note": 72,
      "start": 42.5811,
      "duration": 0.0178,
      "velocity": 127,
      "chip": "ym2612"
    },
    {
      "channel": 0,
      "note": 39,
      "start": 42.5828,
      "duration": 0.0197,
      "velocity": 115,
      "chip": "ym2612"
    },
    {
      "channel": 5,
      "note": 85,
      "start": 42.5843,
      "duration": 0.0197,
      "velocity": 89,
      "chip": "ym2612"
    },
    {
      "channel": 3,
      "note": 85,
      "start": 42.5858,
      "duration": 0.0196,
      "velocity": 89,
      "chip": "ym2612"
    },
    {
      "channel": 4,
      "note": 59,
      "start": 42.5881,
      "duration": 0.0203,
      "velocity": 100,
      "chip": "ym2612"
    },
    {
      "channel": 1,
      "note": 72,
      "start": 42.599,
      "duration": 0.0144,
      "velocity": 127,
      "chip": "ym2612"
    },
    {
      "channel": 0,
      "note": 36,
      "start": 42.6026,
      "duration": 0.0126,
      "velocity": 115,
      "chip": "ym2612"
    },
    {
      "channel": 5,
      "note": 83,
      "start": 42.604,
      "duration": 0.0126,
      "velocity": 89,
      "chip": "ym2612"
    },
    {
      "channel": 3,
      "note": 83,
      "start": 42.6055,
      "duration": 0.0127,
      "velocity": 89,
      "chip": "ym2612"
    },
    {
      "channel": 2,
      "note": 76,
      "start": 42.607,
      "duration": 0.0124,
      "velocity": 105,
      "chip": "ym2612"
    },
    {
      "channel": 4,
      "note": 54,
      "start": 42.6084,
      "duration": 0.0122,
      "velocity": 100,
      "chip": "ym2612"
    },
    {
      "channel": 1,
      "note": 72,
      "start": 42.6134,
      "duration": 0.0161,
      "velocity": 127,
      "chip": "ym2612"
    },
    {
      "channel": 0,
      "note": 36,
      "start": 42.6151,
      "duration": 0.016,
      "velocity": 115,
      "chip": "ym2612"
    },
    {
      "channel": 5,
      "note": 85,
      "start": 42.6167,
      "duration": 0.0159,
      "velocity": 89,
      "chip": "ym2612"
    },
    {
      "channel": 3,
      "note": 85,
      "start": 42.6181,
      "duration": 0.0159,
      "velocity": 89,
      "chip": "ym2612"
    },
    {
      "channel": 2,
      "note": 76,
      "start": 42.6194,
      "duration": 0.0159,
      "velocity": 105,
      "chip": "ym2612"
    },
    {
      "channel": 4,
      "note": 54,
      "start": 42.6206,
      "duration": 0.0158,
      "velocity": 100,
      "chip": "ym2612"
    },
    {
      "channel": 1,
      "note": 72,
      "start": 42.6295,
      "duration": 0.0163,
      "velocity": 127,
      "chip": "ym2612"
    },
    {
      "channel": 0,
      "note": 37,
      "start": 42.6312,
      "duration": 0.0163,
      "velocity": 115,
      "chip": "ym2612"
    },
    {
      "channel": 5,
      "note": 83,
      "start": 42.6327,
      "duration": 0.0163,
      "velocity": 89,
      "chip": "ym2612"
    },
    {
      "channel": 3,
      "note": 83,
      "start": 42.6341,
      "duration": 0.0164,
      "velocity": 89,
      "chip": "ym2612"
    },
    {
      "channel": 2,
      "note": 76,
      "start": 42.6353,
      "duration": 0.0164,
      "velocity": 105,
      "chip": "ym2612"
    },
    {
      "channel": 4,
      "note": 54,
      "start": 42.6364,
      "duration": 0.0165,
      "velocity": 100,
      "chip": "ym2612"
    },
    {
      "channel": 1,
      "note": 72,
      "start": 42.6458,
      "duration": 0.0163,
      "velocity": 127,
      "chip": "ym2612"
    },
    {
      "channel": 0,
      "note": 37,
      "start": 42.6475,
      "duration": 0.0163,
      "velocity": 115,
      "chip": "ym2612"
    },
    {
      "channel": 5,
      "note": 85,
      "start": 42.649,
      "duration": 0.0163,
      "velocity": 89,
      "chip": "ym2612"
    },
    {
      "channel": 3,
      "note": 85,
      "start": 42.6505,
      "duration": 0.0162,
      "velocity": 89,
      "chip": "ym2612"
    },
    {
      "channel": 2,
      "note": 76,
      "start": 42.6517,
      "duration": 0.0163,
      "velocity": 105,
      "chip": "ym2612"
    },
    {
      "channel": 4,
      "note": 54,
      "start": 42.6529,
      "duration": 0.0162,
      "velocity": 100,
      "chip": "ym2612"
    },
    {
      "channel": 1,
      "note": 72,
      "start": 42.6622,
      "duration": 0.0161,
      "velocity": 127,
      "chip": "ym2612"
    },
    {
      "channel": 0,
      "note": 38,
      "start": 42.6638,
      "duration": 0.0162,
      "velocity": 115,
      "chip": "ym2612"
    },
    {
      "channel": 5,
      "note": 83,
      "start": 42.6653,
      "duration": 0.0162,
      "velocity": 89,
      "chip": "ym2612"
    },
    {
      "channel": 3,
      "note": 83,
      "start": 42.6668,
      "duration": 0.0162,
      "velocity": 89,
      "chip": "ym2612"
    },
    {
      "channel": 4,
      "note": 54,
      "start": 42.6691,
      "duration": 0.0162,
      "velocity": 100,
      "chip": "ym2612"
    },
    {
      "channel": 1,
      "note": 72,
      "start": 42.6783,
      "duration": 0.0161,
      "velocity": 127,
      "chip": "ym2612"
    },
    {
      "channel": 0,
      "note": 38,
      "start": 42.68,
      "duration": 0.0161,
      "velocity": 115,
      "chip": "ym2612"
    },
    {
      "channel": 5,
      "note": 85,
      "start": 42.6815,
      "duration": 0.016,
      "velocity": 89,
      "chip": "ym2612"
    },
    {
      "channel": 3,
      "note": 85,
      "start": 42.683,
      "duration": 0.016,
      "velocity": 89,
      "chip": "ym2612"
    },
    {
      "channel": 4,
      "note": 54,
      "start": 42.6853,
      "duration": 0.016,
      "velocity": 100,
      "chip": "ym2612"
    },
    {
      "channel": 1,
      "note": 72,
      "start": 42.6944,
      "duration": 0.0156,
      "velocity": 127,
      "chip": "ym2612"
    },
    {
      "channel": 0,
      "note": 39,
      "start": 42.6961,
      "duration": 0.0161,
      "velocity": 115,
      "chip": "ym2612"
    },
    {
      "channel": 5,
      "note": 83,
      "start": 42.6975,
      "duration": 0.0162,
      "velocity": 89,
      "chip": "ym2612"
    },
    {
      "channel": 3,
      "note": 83,
      "start": 42.699,
      "duration": 0.0162,
      "velocity": 89,
      "chip": "ym2612"
    },
    {
      "channel": 4,
      "note": 54,
      "start": 42.7014,
      "duration": 0.0166,
      "velocity": 100,
      "chip": "ym2612"
    },
    {
      "channel": 1,
      "note": 72,
      "start": 42.7099,
      "duration": 0.0161,
      "velocity": 127,
      "chip": "ym2612"
    },
    {
      "channel": 0,
      "note": 39,
      "start": 42.7122,
      "duration": 0.0161,
      "velocity": 115,
      "chip": "ym2612"
    },
    {
      "channel": 5,
      "note": 85,
      "start": 42.7138,
      "duration": 0.016,
      "velocity": 89,
      "chip": "ym2612"
    },
    {
      "channel": 3,
      "note": 85,
      "start": 42.7152,
      "duration": 0.016,
      "velocity": 89,
      "chip": "ym2612"
    },
    {
      "channel": 2,
      "note": 76,
      "start": 42.7167,
      "duration": 0.0158,
      "velocity": 105,
      "chip": "ym2612"
    },
    {
      "channel": 4,
      "note": 54,
      "start": 42.718,
      "duration": 0.0157,
      "velocity": 100,
      "chip": "ym2612"
    },
    {
      "channel": 1,
      "note": 72,
      "start": 42.726,
      "duration": 0.0161,
      "velocity": 127,
      "chip": "ym2612"
    },
    {
      "channel": 0,
      "note": 40,
      "start": 42.7283,
      "duration": 0.016,
      "velocity": 115,
      "chip": "ym2612"
    },
    {
      "channel": 5,
      "note": 83,
      "start": 42.7298,
      "duration": 0.0161,
      "velocity": 89,
      "chip": "ym2612"
    },
    {
      "channel": 3,
      "note": 83,
      "start": 42.7312,
      "duration": 0.0162,
      "velocity": 89,
      "chip": "ym2612"
    },
    {
      "channel": 2,
      "note": 76,
      "start": 42.7324,
      "duration": 0.0162,
      "velocity": 105,
      "chip": "ym2612"
    },
    {
      "channel": 4,
      "note": 54,
      "start": 42.7337,
      "duration": 0.0161,
      "velocity": 100,
      "chip": "ym2612"
    },
    {
      "channel": 1,
      "note": 72,
      "start": 42.7421,
      "duration": 0.0161,
      "velocity": 127,
      "chip": "ym2612"
    },
    {
      "channel": 0,
      "note": 40,
      "start": 42.7444,
      "duration": 0.0156,
      "velocity": 115,
      "chip": "ym2612"
    },
    {
      "channel": 5,
      "note": 85,
      "start": 42.7459,
      "duration": 0.016,
      "velocity": 89,
      "chip": "ym2612"
    },
    {
      "channel": 3,
      "note": 85,
      "start": 42.7474,
      "duration": 0.016,
      "velocity": 89,
      "chip": "ym2612"
    },
    {
      "channel": 2,
      "note": 76,
      "start": 42.7486,
      "duration": 0.016,
      "velocity": 105,
      "chip": "ym2612"
    },
    {
      "channel": 4,
      "note": 54,
      "start": 42.7498,
      "duration": 0.0159,
      "velocity": 100,
      "chip": "ym2612"
    },
    {
      "channel": 1,
      "note": 72,
      "start": 42.7582,
      "duration": 0.0161,
      "velocity": 127,
      "chip": "ym2612"
    },
    {
      "channel": 0,
      "note": 40,
      "start": 42.7599,
      "duration": 0.0161,
      "velocity": 115,
      "chip": "ym2612"
    },
    {
      "channel": 5,
      "note": 83,
      "start": 42.762,
      "duration": 0.016,
      "velocity": 89,
      "chip": "ym2612"
    },
    {
      "channel": 3,
      "note": 83,
      "start": 42.7634,
      "duration": 0.0161,
      "velocity": 89,
      "chip": "ym2612"
    },
    {
      "channel": 2,
      "note": 76,
      "start": 42.7646,
      "duration": 0.0162,
      "velocity": 105,
      "chip": "ym2612"
    },
    {
      "channel": 4,
      "note": 54,
      "start": 42.7657,
      "duration": 0.0162,
      "velocity": 100,
      "chip": "ym2612"
    },
    {
      "channel": 1,
      "note": 72,
      "start": 42.7743,
      "duration": 0.0161,
      "velocity": 127,
      "chip": "ym2612"
    },
    {
      "channel": 0,
      "note": 41,
      "start": 42.776,
      "duration": 0.0161,
      "velocity": 115,
      "chip": "ym2612"
    },
    {
      "channel": 5,
      "note": 85,
      "start": 42.7781,
      "duration": 0.0157,
      "velocity": 89,
      "chip": "ym2612"
    },
    {
      "channel": 3,
      "note": 85,
      "start": 42.7797,
      "duration": 0.016,
      "velocity": 89,
      "chip": "ym2612"
    },
    {
      "channel": 4,
      "note": 54,
      "start": 42.782,
      "duration": 0.016,
      "velocity": 100,
      "chip": "ym2612"
    },
    {
      "channel": 1,
      "note": 72,
      "start": 42.7904,
      "duration": 0.0161,
      "velocity": 127,
      "chip": "ym2612"
    },
    {
      "channel": 0,
      "note": 41,
      "start": 42.7921,
      "duration": 0.0161,
      "velocity": 115,
      "chip": "ym2612"
    },
    {
      "channel": 5,
      "note": 83,
      "start": 42.7938,
      "duration": 0.0159,
      "velocity": 89,
      "chip": "ym2612"
    },
    {
      "channel": 3,
      "note": 83,
      "start": 42.7956,
      "duration": 0.0162,
      "velocity": 89,
      "chip": "ym2612"
    },
    {
      "channel": 4,
      "note": 54,
      "start": 42.798,
      "duration": 0.0162,
      "velocity": 100,
      "chip": "ym2612"
    },
    {
      "channel": 1,
      "note": 72,
      "start": 42.8065,
      "duration": 0.0178,
      "velocity": 127,
      "chip": "ym2612"
    },
    {
      "channel": 0,
      "note": 42,
      "start": 42.8082,
      "duration": 0.0202,
      "velocity": 115,
      "chip": "ym2612"
    },
    {
      "channel": 5,
      "note": 85,
      "start": 42.8098,
      "duration": 0.0202,
      "velocity": 89,
      "chip": "ym2612"
    },
    {
      "channel": 3,
      "note": 85,
      "start": 42.8119,
      "duration": 0.0195,
      "velocity": 89,
      "chip": "ym2612"
    },
    {
      "channel": 4,
      "note": 54,
      "start": 42.8141,
      "duration": 0.0202,
      "velocity": 100,
      "chip": "ym2612"
    },
    {
      "channel": 1,
      "note": 72,
      "start": 42.8244,
      "duration": 0.0144,
      "velocity": 127,
      "chip": "ym2612"
    },
    {
      "channel": 0,
      "note": 36,
      "start": 42.8285,
      "duration": 0.0121,
      "velocity": 115,
      "chip": "ym2612"
    },
    {
      "channel": 5,
      "note": 83,
      "start": 42.83,
      "duration": 0.012,
      "velocity": 89,
      "chip": "ym2612"
    },
    {
      "channel": 3,
      "note": 83,
      "start": 42.8315,
      "duration": 0.0123,
      "velocity": 89,
      "chip": "ym2612"
    },
    {
      "channel": 2,
      "note": 76,
      "start": 42.833,
      "duration": 0.0125,
      "velocity": 105,
      "chip": "ym2612"
    },
    {
      "channel": 4,
      "note": 59,
      "start": 42.8344,
      "duration": 0.0122,
      "velocity": 100,
      "chip": "ym2612"
    },
    {
      "channel": 1,
      "note": 72,
      "start": 42.8388,
      "duration": 0.016,
      "velocity": 127,
      "chip": "ym2612"
    },
    {
      "channel": 0,
      "note": 36,
      "start": 42.8405,
      "duration": 0.016,
      "velocity": 115,
      "chip": "ym2612"
    },
    {
      "channel": 5,
      "note": 85,
      "start": 42.8421,
      "duration": 0.0159,
      "velocity": 89,
      "chip": "ym2612"
    },
    {
      "channel": 3,
      "note": 85,
      "start": 42.8438,
      "duration": 0.0156,
      "velocity": 89,
      "chip": "ym2612"
    },
    {
      "channel": 2,
      "note": 76,
      "start": 42.8454,
      "duration": 0.0157,
      "velocity": 105,
      "chip": "ym2612"
    },
    {
      "channel": 4,
      "note": 59,
      "start": 42.8466,
      "duration": 0.0157,
      "velocity": 100,
      "chip": "ym2612"
    },
    {
      "channel": 1,
      "note": 72,
      "start": 42.8548,
      "duration": 0.0162,
      "velocity": 127,
      "chip": "ym2612"
    },
    {
      "channel": 0,
      "note": 37,
      "start": 42.8565,
      "duration": 0.0161,
      "velocity": 115,
      "chip": "ym2612"
    },
    {
      "channel": 5,
      "note": 83,
      "start": 42.858,
      "duration": 0.0162,
      "velocity": 89,
      "chip": "ym2612"
    },
    {
      "channel": 3,
      "note": 83,
      "start": 42.8594,
      "duration": 0.0161,
      "velocity": 89,
      "chip": "ym2612"
    },
    {
      "channel": 2,
      "note": 76,
      "start": 42.8612,
      "duration": 0.0159,
      "velocity": 105,
      "chip": "ym2612"
    },
    {
      "channel": 4,
      "note": 59,
      "start": 42.8624,
      "duration": 0.0162,
      "velocity": 100,
      "chip": "ym2612"
    },
    {
      "channel": 1,
      "note": 72,
      "start": 42.871,
      "duration": 0.0161,
      "velocity": 127,
      "chip": "ym2612"
    },
    {
      "channel": 0,
      "note": 37,
      "start": 42.8726,
      "duration": 0.0161,
      "velocity": 115,
      "chip": "ym2612"
    },
    {
      "channel": 5,
      "note": 85,
      "start": 42.8741,
      "duration": 0.016,
      "velocity": 89,
      "chip": "ym2612"
    },
    {
      "channel": 3,
      "note": 85,
      "start": 42.8756,
      "duration": 0.016,
      "velocity": 89,
      "chip": "ym2612"
    },
    {
      "channel": 2,
      "note": 76,
      "start": 42.8771,
      "duration": 0.0158,
      "velocity": 105,
      "chip": "ym2612"
    },
    {
      "channel": 4,
      "note": 59,
      "start": 42.8786,
      "duration": 0.0159,
      "velocity": 100,
      "chip": "ym2612"
    },
    {
      "channel": 1,
      "note": 72,
      "start": 42.887,
      "duration": 0.0161,
      "velocity": 127,
      "chip": "ym2612"
    },
    {
      "channel": 0,
      "note": 38,
      "start": 42.8887,
      "duration": 0.0162,
      "velocity": 115,
      "chip": "ym2612"
    },
    {
      "channel": 5,
      "note": 83,
      "start": 42.8902,
      "duration": 0.0161,
      "velocity": 89,
      "chip": "ym2612"
    },
    {
      "channel": 3,
      "note": 83,
      "start": 42.8916,
      "duration": 0.0162,
      "velocity": 89,
      "chip": "ym2612"
    },
    {
      "channel": 2,
      "note": 76,
      "start": 42.8928,
      "duration": 0.0161,
      "velocity": 105,
      "chip": "ym2612"
    },
    {
      "channel": 4,
      "note": 59,
      "start": 42.8945,
      "duration": 0.0159,
      "velocity": 100,
      "chip": "ym2612"
    },
    {
      "channel": 1,
      "note": 72,
      "start": 42.9031,
      "duration": 0.0161,
      "velocity": 127,
      "chip": "ym2612"
    },
    {
      "channel": 0,
      "note": 38,
      "start": 42.9049,
      "duration": 0.0161,
      "velocity": 115,
      "chip": "ym2612"
    },
    {
      "channel": 5,
      "note": 85,
      "start": 42.9063,
      "duration": 0.016,
      "velocity": 89,
      "chip": "ym2612"
    },
    {
      "channel": 3,
      "note": 85,
      "start": 42.9078,
      "duration": 0.016,
      "velocity": 89,
      "chip": "ym2612"
    },
    {
      "channel": 2,
      "note": 76,
      "start": 42.909,
      "duration": 0.016,
      "velocity": 105,
      "chip": "ym2612"
    },
    {
      "channel": 4,
      "note": 59,
      "start": 42.9104,
      "duration": 0.0158,
      "velocity": 100,
      "chip": "ym2612"
    },
    {
      "channel": 1,
      "note": 72,
      "start": 42.9192,
      "duration": 0.0161,
      "velocity": 127,
      "chip": "ym2612"
    },
    {
      "channel": 0,
      "note": 39,
      "start": 42.921,
      "duration": 0.0161,
      "velocity": 115,
      "chip": "ym2612"
    },
    {
      "channel": 5,
      "note": 83,
      "start": 42.9224,
      "duration": 0.0161,
      "velocity": 89,
      "chip": "ym2612"
    },
    {
      "channel": 3,
      "note": 83,
      "start": 42.9239,
      "duration": 0.0161,
      "velocity": 89,
      "chip": "ym2612"
    },
    {
      "channel": 2,
      "note": 76,
      "start": 42.925,
      "duration": 0.0162,
      "velocity": 105,
      "chip": "ym2612"
    },
    {
      "channel": 4,
      "note": 59,
      "start": 42.9262,
      "duration": 0.0163,
      "velocity": 100,
      "chip": "ym2612"
    },
    {
      "channel": 1,
      "note": 72,
      "start": 42.9353,
      "duration": 0.0161,
      "velocity": 127,
      "chip": "ym2612"
    },
    {
      "channel": 0,
      "note": 39,
      "start": 42.937,
      "duration": 0.0161,
      "velocity": 115,
      "chip": "ym2612"
    },
    {
      "channel": 5,
      "note": 85,
      "start": 42.9386,
      "duration": 0.016,
      "velocity": 89,
      "chip": "ym2612"
    },
    {
      "channel": 3,
      "note": 85,
      "start": 42.94,
      "duration": 0.016,
      "velocity": 89,
      "chip": "ym2612"
    },
    {
      "channel": 2,
      "note": 76,
      "start": 42.9412,
      "duration": 0.016,
      "velocity": 105,
      "chip": "ym2612"
    },
    {
      "channel": 4,
      "note": 59,
      "start": 42.9424,
      "duration": 0.016,
      "velocity": 100,
      "chip": "ym2612"
    },
    {
      "channel": 1,
      "note": 72,
      "start": 42.9514,
      "duration": 0.0161,
      "velocity": 127,
      "chip": "ym2612"
    },
    {
      "channel": 0,
      "note": 40,
      "start": 42.9531,
      "duration": 0.0161,
      "velocity": 115,
      "chip": "ym2612"
    },
    {
      "channel": 5,
      "note": 83,
      "start": 42.9546,
      "duration": 0.0161,
      "velocity": 89,
      "chip": "ym2612"
    },
    {
      "channel": 3,
      "note": 83,
      "start": 42.9561,
      "duration": 0.0162,
      "velocity": 89,
      "chip": "ym2612"
    },
    {
      "channel": 2,
      "note": 76,
      "start": 42.9572,
      "duration": 0.0162,
      "velocity": 105,
      "chip": "ym2612"
    },
    {
      "channel": 4,
      "note": 59,
      "start": 42.9584,
      "duration": 0.0162,
      "velocity": 100,
      "chip": "ym2612"
    },
    {
      "channel": 1,
      "note": 72,
      "start": 42.9675,
      "duration": 0.0161,
      "velocity": 127,
      "chip": "ym2612"
    },
    {
      "channel": 0,
      "note": 40,
      "start": 42.9692,
      "duration": 0.0161,
      "velocity": 115,
      "chip": "ym2612"
    },
    {
      "channel": 5,
      "note": 85,
      "start": 42.9707,
      "duration": 0.016,
      "velocity": 89,
      "chip": "ym2612"
    },
    {
      "channel": 3,
      "note": 85,
      "start": 42.9723,
      "duration": 0.0159,
      "velocity": 89,
      "chip": "ym2612"
    },
    {
      "channel": 2,
      "note": 76,
      "start": 42.9734,
      "duration": 0.016,
      "velocity": 105,
      "chip": "ym2612"
    },
    {
      "channel": 4,
      "note": 59,
      "start": 42.9746,
      "duration": 0.0159,
      "velocity": 100,
      "chip": "ym2612"
    },
    {
      "channel": 1,
      "note": 72,
      "start": 42.9836,
      "duration": 0.0162,
      "velocity": 127,
      "chip": "ym2612"
    },
    {
      "channel": 0,
      "note": 40,
      "start": 42.9853,
      "duration": 0.0161,
      "velocity": 115,
      "chip": "ym2612"
    },
    {
      "channel": 5,
      "note": 83,
      "start": 42.9868,
      "duration": 0.0162,
      "velocity": 89,
      "chip": "ym2612"
    },
    {
      "channel": 3,
      "note": 83,
      "start": 42.9883,
      "duration": 0.0161,
      "velocity": 89,
      "chip": "ym2612"
    },
    {
      "channel": 2,
      "note": 76,
      "start": 42.9894,
      "duration": 0.0162,
      "velocity": 105,
      "chip": "ym2612"
    },
    {
      "channel": 4,
      "note": 59,
      "start": 42.9905,
      "duration": 0.0163,
      "velocity": 100,
      "chip": "ym2612"
    },
    {
      "channel": 1,
      "note": 72,
      "start": 42.9998,
      "duration": 0.0161,
      "velocity": 127,
      "chip": "ym2612"
    },
    {
      "channel": 0,
      "note": 41,
      "start": 43.0014,
      "duration": 0.0161,
      "velocity": 115,
      "chip": "ym2612"
    },
    {
      "channel": 5,
      "note": 85,
      "start": 43.0029,
      "duration": 0.016,
      "velocity": 89,
      "chip": "ym2612"
    },
    {
      "channel": 3,
      "note": 85,
      "start": 43.0045,
      "duration": 0.016,
      "velocity": 89,
      "chip": "ym2612"
    },
    {
      "channel": 4,
      "note": 59,
      "start": 43.0068,
      "duration": 0.016,
      "velocity": 100,
      "chip": "ym2612"
    },
    {
      "channel": 1,
      "note": 72,
      "start": 43.0159,
      "duration": 0.0161,
      "velocity": 127,
      "chip": "ym2612"
    },
    {
      "channel": 0,
      "note": 41,
      "start": 43.0175,
      "duration": 0.0161,
      "velocity": 115,
      "chip": "ym2612"
    },
    {
      "channel": 5,
      "note": 83,
      "start": 43.019,
      "duration": 0.0161,
      "velocity": 89,
      "chip": "ym2612"
    },
    {
      "channel": 3,
      "note": 83,
      "start": 43.0204,
      "duration": 0.0162,
      "velocity": 89,
      "chip": "ym2612"
    },
    {
      "channel": 4,
      "note": 59,
      "start": 43.0228,
      "duration": 0.0162,
      "velocity": 100,
      "chip": "ym2612"
    },
    {
      "channel": 1,
      "note": 72,
      "start": 43.032,
      "duration": 0.0178,
      "velocity": 127,
      "chip": "ym2612"
    },
    {
      "channel": 0,
      "note": 42,
      "start": 43.0336,
      "duration": 0.0197,
      "velocity": 124,
      "chip": "ym2612"
    },
    {
      "channel": 5,
      "note": 85,
      "start": 43.0351,
      "duration": 0.0197,
      "velocity": 89,
      "chip": "ym2612"
    },
    {
      "channel": 3,
      "note": 85,
      "start": 43.0367,
      "duration": 0.0196,
      "velocity": 89,
      "chip": "ym2612"
    },
    {
      "channel": 4,
      "note": 59,
      "start": 43.039,
      "duration": 0.0203,
      "velocity": 100,
      "chip": "ym2612"
    },
    {
      "channel": 1,
      "note": 79,
      "start": 43.0498,
      "duration": 0.0144,
      "velocity": 127,
      "chip": "ym2612"
    },
    {
      "channel": 0,
      "note": 84,
      "start": 43.0534,
      "duration": 0.0126,
      "velocity": 124,
      "chip": "ym2612"
    },
    {
      "channel": 5,
      "note": 83,
      "start": 43.0549,
      "duration": 0.0126,
      "velocity": 89,
      "chip": "ym2612"
    },
    {
      "channel": 3,
      "note": 83,
      "start": 43.0563,
      "duration": 0.0127,
      "velocity": 89,
      "chip": "ym2612"
    },
    {
      "channel": 2,
      "note": 76,
      "start": 43.0578,
      "duration": 0.0125,
      "velocity": 105,
      "chip": "ym2612"
    },
    {
      "channel": 4,
      "note": 54,
      "start": 43.0593,
      "duration": 0.0122,
      "velocity": 100,
      "chip": "ym2612"
    },
    {
      "channel": 1,
      "note": 79,
      "start": 43.0642,
      "duration": 0.016,
      "velocity": 127,
      "chip": "ym2612"
    },
    {
      "channel": 0,
      "note": 82,
      "start": 43.066,
      "duration": 0.016,
      "velocity": 124,
      "chip": "ym2612"
    },
    {
      "channel": 5,
      "note": 85,
      "start": 43.0675,
      "duration": 0.0159,
      "velocity": 89,
      "chip": "ym2612"
    },
    {
      "channel": 3,
      "note": 85,
      "start": 43.069,
      "duration": 0.0158,
      "velocity": 89,
      "chip": "ym2612"
    },
    {
      "channel": 2,
      "note": 76,
      "start": 43.0702,
      "duration": 0.0158,
      "velocity": 105,
      "chip": "ym2612"
    },
    {
      "channel": 4,
      "note": 54,
      "start": 43.0715,
      "duration": 0.0157,
      "velocity": 100,
      "chip": "ym2612"
    },
    {
      "channel": 1,
      "note": 79,
      "start": 43.0802,
      "duration": 0.0162,
      "velocity": 127,
      "chip": "ym2612"
    },
    {
      "channel": 0,
      "note": 80,
      "start": 43.082,
      "duration": 0.0162,
      "velocity": 124,
      "chip": "ym2612"
    },
    {
      "channel": 5,
      "note": 83,
      "start": 43.0834,
      "duration": 0.0161,
      "velocity": 89,
      "chip": "ym2612"
    },
    {
      "channel": 3,
      "note": 83,
      "start": 43.0849,
      "duration": 0.0162,
      "velocity": 89,
      "chip": "ym2612"
    },
    {
      "channel": 2,
      "note": 76,
      "start": 43.086,
      "duration": 0.0163,
      "velocity": 105,
      "chip": "ym2612"
    },
    {
      "channel": 4,
      "note": 54,
      "start": 43.0872,
      "duration": 0.0163,
      "velocity": 100,
      "chip": "ym2612"
    },
    {
      "channel": 1,
      "note": 79,
      "start": 43.0964,
      "duration": 0.0161,
      "velocity": 127,
      "chip": "ym2612"
    },
    {
      "channel": 0,
      "note": 77,
      "start": 43.0981,
      "duration": 0.0161,
      "velocity": 124,
      "chip": "ym2612"
    },
    {
      "channel": 5,
      "note": 85,
      "start": 43.0996,
      "duration": 0.016,
      "velocity": 89,
      "chip": "ym2612"
    },
    {
      "channel": 3,
      "note": 85,
      "start": 43.1012,
      "duration": 0.0159,
      "velocity": 89,
      "chip": "ym2612"
    },
    {
      "channel": 2,
      "note": 76,
      "start": 43.1023,
      "duration": 0.016,
      "velocity": 105,
      "chip": "ym2612"
    },
    {
      "channel": 4,
      "note": 54,
      "start": 43.1034,
      "duration": 0.016,
      "velocity": 100,
      "chip": "ym2612"
    },
    {
      "channel": 1,
      "note": 79,
      "start": 43.1125,
      "duration": 0.0164,
      "velocity": 127,
      "chip": "ym2612"
    },
    {
      "channel": 0,
      "note": 75,
      "start": 43.1142,
      "duration": 0.0164,
      "velocity": 124,
      "chip": "ym2612"
    },
    {
      "channel": 5,
      "note": 83,
      "start": 43.1157,
      "duration": 0.0164,
      "velocity": 89,
      "chip": "ym2612"
    },
    {
      "channel": 3,
      "note": 83,
      "start": 43.1171,
      "duration": 0.0165,
      "velocity": 89,
      "chip": "ym2612"
    },
    {
      "channel": 4,
      "note": 54,
      "start": 43.1195,
      "duration": 0.0165,
      "velocity": 100,
      "chip": "ym2612"
    },
    {
      "channel": 1,
      "note": 79,
      "start": 43.1289,
      "duration": 0.0163,
      "velocity": 127,
      "chip": "ym2612"
    },
    {
      "channel": 0,
      "note": 72,
      "start": 43.1306,
      "duration": 0.0163,
      "velocity": 124,
      "chip": "ym2612"
    },
    {
      "channel": 5,
      "note": 85,
      "start": 43.1321,
      "duration": 0.0162,
      "velocity": 89,
      "chip": "ym2612"
    },
    {
      "channel": 3,
      "note": 85,
      "start": 43.1337,
      "duration": 0.0161,
      "velocity": 89,
      "chip": "ym2612"
    },
    {
      "channel": 4,
      "note": 54,
      "start": 43.136,
      "duration": 0.0162,
      "velocity": 100,
      "chip": "ym2612"
    },
    {
      "channel": 1,
      "note": 79,
      "start": 43.1452,
      "duration": 0.016,
      "velocity": 127,
      "chip": "ym2612"
    },
    {
      "channel": 0,
      "note": 70,
      "start": 43.1469,
      "duration": 0.0162,
      "velocity": 124,
      "chip": "ym2612"
    },
    {
      "channel": 5,
      "note": 83,
      "start": 43.1484,
      "duration": 0.0161,
      "velocity": 89,
      "chip": "ym2612"
    },
    {
      "channel": 3,
      "note": 83,
      "start": 43.1498,
      "duration": 0.0162,
      "velocity": 89,
      "chip": "ym2612"
    },
    {
      "channel": 4,
      "note": 54,
      "start": 43.1522,
      "duration": 0.0166,
      "velocity": 100,
      "chip": "ym2612"
    },
    {
      "channel": 1,
      "note": 79,
      "start": 43.1613,
      "duration": 0.0158,
      "velocity": 127,
      "chip": "ym2612"
    },
    {
      "channel": 0,
      "note": 68,
      "start": 43.1631,
      "duration": 0.0161,
      "velocity": 124,
      "chip": "ym2612"
    },
    {
      "channel": 5,
      "note": 85,
      "start": 43.1646,
      "duration": 0.016,
      "velocity": 89,
      "chip": "ym2612"
    },
    {
      "channel": 3,
      "note": 85,
      "start": 43.1661,
      "duration": 0.016,
      "velocity": 89,
      "chip": "ym2612"
    },
    {
      "channel": 2,
      "note": 76,
      "start": 43.1675,
      "duration": 0.0158,
      "velocity": 105,
      "chip": "ym2612"
    },
    {
      "channel": 4,
      "note": 54,
      "start": 43.1688,
      "duration": 0.0157,
      "velocity": 100,
      "chip": "ym2612"
    },
    {
      "channel": 1,
      "note": 79,
      "start": 43.1771,
      "duration": 0.0159,
      "velocity": 127,
      "chip": "ym2612"
    },
    {
      "channel": 0,
      "note": 65,
      "start": 43.1792,
      "duration": 0.0161,
      "velocity": 124,
      "chip": "ym2612"
    },
    {
      "channel": 5,
      "note": 83,
      "start": 43.1806,
      "duration": 0.0161,
      "velocity": 89,
      "chip": "ym2612"
    },
    {
      "channel": 3,
      "note": 83,
      "start": 43.1821,
      "duration": 0.0161,
      "velocity": 89,
      "chip": "ym2612"
    },
    {
      "channel": 2,
      "note": 76,
      "start": 43.1833,
      "duration": 0.0161,
      "velocity": 105,
      "chip": "ym2612"
    },
    {
      "channel": 4,
      "note": 54,
      "start": 43.1845,
      "duration": 0.0162,
      "velocity": 100,
      "chip": "ym2612"
    },
    {
      "channel": 1,
      "note": 79,
      "start": 43.1929,
      "duration": 0.0161,
      "velocity": 127,
      "chip": "ym2612"
    },
    {
      "channel": 0,
      "note": 63,
      "start": 43.1952,
      "duration": 0.0147,
      "velocity": 1,
      "chip": "ym2612"
    },
    {
      "channel": 5,
      "note": 85,
      "start": 43.1968,
      "duration": 0.0151,
      "velocity": 89,
      "chip": "ym2612"
    },
    {
      "channel": 3,
      "note": 85,
      "start": 43.1982,
      "duration": 0.0151,
      "velocity": 89,
      "chip": "ym2612"
    },
    {
      "channel": 2,
      "note": 76,
      "start": 43.1994,
      "duration": 0.0151,
      "velocity": 105,
      "chip": "ym2612"
    },
    {
      "channel": 4,
      "note": 54,
      "start": 43.2007,
      "duration": 0.0151,
      "velocity": 100,
      "chip": "ym2612"
    },
    {
      "channel": 1,
      "note": 79,
      "start": 43.209,
      "duration": 0.0161,
      "velocity": 127,
      "chip": "ym2612"
    },
    {
      "channel": 5,
      "note": 83,
      "start": 43.212,
      "duration": 0.0146,
      "velocity": 89,
      "chip": "ym2612"
    },
    {
      "channel": 3,
      "note": 83,
      "start": 43.2134,
      "duration": 0.0153,
      "velocity": 89,
      "chip": "ym2612"
    },
    {
      "channel": 2,
      "note": 76,
      "start": 43.2146,
      "duration": 0.0154,
      "velocity": 105,
      "chip": "ym2612"
    },
    {
      "channel": 4,
      "note": 54,
      "start": 43.2157,
      "duration": 0.0154,
      "velocity": 100,
      "chip": "ym2612"
    },
    {
      "channel": 1,
      "note": 79,
      "start": 43.2251,
      "duration": 0.0161,
      "velocity": 127,
      "chip": "ym2612"
    },
    {
      "channel": 5,
      "note": 85,
      "start": 43.2267,
      "duration": 0.016,
      "velocity": 89,
      "chip": "ym2612"
    },
    {
      "channel": 3,
      "note": 85,
      "start": 43.2288,
      "duration": 0.0159,
      "velocity": 89,
      "chip": "ym2612"
    },
    {
      "channel": 4,
      "note": 54,
      "start": 43.2311,
      "duration": 0.016,
      "velocity": 100,
      "chip": "ym2612"
    },
    {
      "channel": 1,
      "note": 79,
      "start": 43.2412,
      "duration": 0.0161,
      "velocity": 127,
      "chip": "ym2612"
    },
    {
      "channel": 5,
      "note": 83,
      "start": 43.2428,
      "duration": 0.0161,
      "velocity": 89,
      "chip": "ym2612"
    },
    {
      "channel": 3,
      "note": 83,
      "start": 43.2447,
      "duration": 0.0157,
      "velocity": 89,
      "chip": "ym2612"
    },
    {
      "channel": 4,
      "note": 54,
      "start": 43.2471,
      "duration": 0.0161,
      "velocity": 100,
      "chip": "ym2612"
    },
    {
      "channel": 1,
      "note": 79,
      "start": 43.2573,
      "duration": 0.0179,
      "velocity": 127,
      "chip": "ym2612"
    },
    {
      "channel": 5,
      "note": 85,
      "start": 43.2589,
      "duration": 0.0219,
      "velocity": 89,
      "chip": "ym2612"
    },
    {
      "channel": 3,
      "note": 83,
      "start": 43.2605,
      "duration": 0.0217,
      "velocity": 89,
      "chip": "ym2612"
    },
    {
      "channel": 4,
      "note": 54,
      "start": 43.2632,
      "duration": 0.0221,
      "velocity": 100,
      "chip": "ym2612"
    },
    {
      "channel": 1,
      "note": 79,
      "start": 43.2753,
      "duration": 0.0143,
      "velocity": 127,
      "chip": "ym2612"
    },
    {
      "channel": 0,
      "note": 36,
      "start": 43.2794,
      "duration": 0.012,
      "velocity": 115,
      "chip": "ym2612"
    },
    {
      "channel": 5,
      "note": 83,
      "start": 43.2809,
      "duration": 0.012,
      "velocity": 89,
      "chip": "ym2612"
    },
    {
      "channel": 3,
      "note": 83,
      "start": 43.2822,
      "duration": 0.0125,
      "velocity": 89,
      "chip": "ym2612"
    },
    {
      "channel": 2,
      "note": 76,
      "start": 43.2838,
      "duration": 0.0122,
      "velocity": 105,
      "chip": "ym2612"
    },
    {
      "channel": 4,
      "note": 55,
      "start": 43.2853,
      "duration": 0.0119,
      "velocity": 100,
      "chip": "ym2612"
    },
    {
      "channel": 1,
      "note": 79,
      "start": 43.2896,
      "duration": 0.0161,
      "velocity": 127,
      "chip": "ym2612"
    },
    {
      "channel": 0,
      "note": 36,
      "start": 43.2914,
      "duration": 0.016,
      "velocity": 115,
      "chip": "ym2612"
    },
    {
      "channel": 5,
      "note": 85,
      "start": 43.2929,
      "duration": 0.0159,
      "velocity": 89,
      "chip": "ym2612"
    },
    {
      "channel": 3,
      "note": 83,
      "start": 43.2947,
      "duration": 0.0153,
      "velocity": 89,
      "chip": "ym2612"
    },
    {
      "channel": 2,
      "note": 76,
      "start": 43.2959,
      "duration": 0.0158,
      "velocity": 105,
      "chip": "ym2612"
    },
    {
      "channel": 4,
      "note": 55,
      "start": 43.2971,
      "duration": 0.0157,
      "velocity": 100,
      "chip": "ym2612"
    },
    {
      "channel": 1,
      "note": 79,
      "start": 43.3057,
      "duration": 0.0161,
      "velocity": 127,
      "chip": "ym2612"
    },
    {
      "channel": 0,
      "note": 37,
      "start": 43.3073,
      "duration": 0.0161,
      "velocity": 115,
      "chip": "ym2612"
    },
    {
      "channel": 5,
      "note": 83,
      "start": 43.3088,
      "duration": 0.0161,
      "velocity": 89,
      "chip": "ym2612"
    },
    {
      "channel": 3,
      "note": 83,
      "start": 43.31,
      "duration": 0.0162,
      "velocity": 89,
      "chip": "ym2612"
    },
    {
      "channel": 2,
      "note": 76,
      "start": 43.3117,
      "duration": 0.0161,
      "velocity": 105,
      "chip": "ym2612"
    },
    {
      "channel": 4,
      "note": 55,
      "start": 43.3129,
      "duration": 0.0162,
      "velocity": 100,
      "chip": "ym2612"
    },
    {
      "channel": 1,
      "note": 79,
      "start": 43.3218,
      "duration": 0.0161,
      "velocity": 127,
      "chip": "ym2612"
    },
    {
      "channel": 0,
      "note": 37,
      "start": 43.3234,
      "duration": 0.0162,
      "velocity": 115,
      "chip": "ym2612"
    },
    {
      "channel": 5,
      "note": 85,
      "start": 43.3249,
      "duration": 0.016,
      "velocity": 89,
      "chip": "ym2612"
    },
    {
      "channel": 3,
      "note": 83,
      "start": 43.3262,
      "duration": 0.016,
      "velocity": 89,
      "chip": "ym2612"
    },
    {
      "channel": 2,
      "note": 76,
      "start": 43.3278,
      "duration": 0.0155,
      "velocity": 105,
      "chip": "ym2612"
    },
    {
      "channel": 4,
      "note": 55,
      "start": 43.329,
      "duration": 0.0161,
      "velocity": 100,
      "chip": "ym2612"
    },
    {
      "channel": 1,
      "note": 79,
      "start": 43.3379,
      "duration": 0.0161,
      "velocity": 127,
      "chip": "ym2612"
    },
    {
      "channel": 0,
      "note": 38,
      "start": 43.3396,
      "duration": 0.016,
      "velocity": 115,
      "chip": "ym2612"
    },
    {
      "channel": 5,
      "note": 83,
      "start": 43.341,
      "duration": 0.0161,
      "velocity": 89,
      "chip": "ym2612"
    },
    {
      "channel": 3,
      "note": 83,
      "start": 43.3422,
      "duration": 0.0161,
      "velocity": 89,
      "chip": "ym2612"
    },
    {
      "channel": 2,
      "note": 76,
      "start": 43.3433,
      "duration": 0.0162,
      "velocity": 105,
      "chip": "ym2612"
    },
    {
      "channel": 4,
      "note": 55,
      "start": 43.3451,
      "duration": 0.016,
      "velocity": 100,
      "chip": "ym2612"
    },
    {
      "channel": 1,
      "note": 79,
      "start": 43.354,
      "duration": 0.0161,
      "velocity": 127,
      "chip": "ym2612"
    },
    {
      "channel": 0,
      "note": 38,
      "start": 43.3556,
      "duration": 0.0161,
      "velocity": 115,
      "chip": "ym2612"
    },
    {
      "channel": 5,
      "note": 85,
      "start": 43.3571,
      "duration": 0.016,
      "velocity": 89,
      "chip": "ym2612"
    },
    {
      "channel": 3,
      "note": 83,
      "start": 43.3583,
      "duration": 0.016,
      "velocity": 89,
      "chip": "ym2612"
    },
    {
      "channel": 2,
      "note": 76,
      "start": 43.3595,
      "duration": 0.016,
      "velocity": 105,
      "chip": "ym2612"
    },
    {
      "channel": 4,
      "note": 55,
      "start": 43.3612,
      "duration": 0.0156,
      "velocity": 100,
      "chip": "ym2612"
    },
    {
      "channel": 1,
      "note": 79,
      "start": 43.37,
      "duration": 0.0161,
      "velocity": 127,
      "chip": "ym2612"
    },
    {
      "channel": 0,
      "note": 39,
      "start": 43.3718,
      "duration": 0.0161,
      "velocity": 115,
      "chip": "ym2612"
    },
    {
      "channel": 5,
      "note": 83,
      "start": 43.3732,
      "duration": 0.0161,
      "velocity": 89,
      "chip": "ym2612"
    },
    {
      "channel": 3,
      "note": 83,
      "start": 43.3744,
      "duration": 0.0162,
      "velocity": 89,
      "chip": "ym2612"
    },
    {
      "channel": 2,
      "note": 76,
      "start": 43.3755,
      "duration": 0.0161,
      "velocity": 105,
      "chip": "ym2612"
    },
    {
      "channel": 4,
      "note": 55,
      "start": 43.3767,
      "duration": 0.0162,
      "velocity": 100,
      "chip": "ym2612"
    },
    {
      "channel": 1,
      "note": 79,
      "start": 43.3861,
      "duration": 0.0161,
      "velocity": 127,
      "chip": "ym2612"
    },
    {
      "channel": 0,
      "note": 39,
      "start": 43.3879,
      "duration": 0.0161,
      "velocity": 115,
      "chip": "ym2612"
    },
    {
      "channel": 5,
      "note": 85,
      "start": 43.3894,
      "duration": 0.016,
      "velocity": 89,
      "chip": "ym2612"
    },
    {
      "channel": 3,
      "note": 83,
      "start": 43.3905,
      "duration": 0.016,
      "velocity": 89,
      "chip": "ym2612"
    },
    {
      "channel": 2,
      "note": 76,
      "start": 43.3917,
      "duration": 0.016,
      "velocity": 105,
      "chip": "ym2612"
    },
    {
      "channel": 4,
      "note": 55,
      "start": 43.3929,
      "duration": 0.016,
      "velocity": 100,
      "chip": "ym2612"
    },
    {
      "channel": 1,
      "note": 79,
      "start": 43.4022,
      "duration": 0.0161,
      "velocity": 127,
      "chip": "ym2612"
    },
    {
      "channel": 0,
      "note": 40,
      "start": 43.404,
      "duration": 0.0161,
      "velocity": 115,
      "chip": "ym2612"
    },
    {
      "channel": 5,
      "note": 83,
      "start": 43.4054,
      "duration": 0.0161,
      "velocity": 89,
      "chip": "ym2612"
    },
    {
      "channel": 3,
      "note": 83,
      "start": 43.4066,
      "duration": 0.0161,
      "velocity": 89,
      "chip": "ym2612"
    },
    {
      "channel": 2,
      "note": 76,
      "start": 43.4077,
      "duration": 0.0162,
      "velocity": 105,
      "chip": "ym2612"
    },
    {
      "channel": 4,
      "note": 55,
      "start": 43.4089,
      "duration": 0.0162,
      "velocity": 100,
      "chip": "ym2612"
    },
    {
      "channel": 1,
      "note": 79,
      "start": 43.4183,
      "duration": 0.0161,
      "velocity": 127,
      "chip": "ym2612"
    },
    {
      "channel": 0,
      "note": 40,
      "start": 43.42,
      "duration": 0.0161,
      "velocity": 115,
      "chip": "ym2612"
    },
    {
      "channel": 5,
      "note": 85,
      "start": 43.4216,
      "duration": 0.016,
      "velocity": 89,
      "chip": "ym2612"
    },
    {
      "channel": 3,
      "note": 83,
      "start": 43.4227,
      "duration": 0.016,
      "velocity": 89,
      "chip": "ym2612"
    },
    {
      "channel": 2,
      "note": 76,
      "start": 43.4239,
      "duration": 0.0161,
      "velocity": 105,
      "chip": "ym2612"
    },
    {
      "channel": 4,
      "note": 55,
      "start": 43.4251,
      "duration": 0.016,
      "velocity": 100,
      "chip": "ym2612"
    },
    {
      "channel": 1,
      "note": 79,
      "start": 43.4344,
      "duration": 0.0162,
      "velocity": 127,
      "chip": "ym2612"
    },
    {
      "channel": 0,
      "note": 40,
      "start": 43.4361,
      "duration": 0.0161,
      "velocity": 115,
      "chip": "ym2612"
    },
    {
      "channel": 5,
      "note": 83,
      "start": 43.4376,
      "duration": 0.016,
      "velocity": 89,
      "chip": "ym2612"
    },
    {
      "channel": 3,
      "note": 83,
      "start": 43.4388,
      "duration": 0.016,
      "velocity": 89,
      "chip": "ym2612"
    },
    {
      "channel": 2,
      "note": 76,
      "start": 43.44,
      "duration": 0.016,
      "velocity": 105,
      "chip": "ym2612"
    },
    {
      "channel": 4,
      "note": 55,
      "start": 43.4411,
      "duration": 0.016,
      "velocity": 100,
      "chip": "ym2612"
    },
    {
      "channel": 1,
      "note": 79,
      "start": 43.4506,
      "duration": 0.0161,
      "velocity": 127,
      "chip": "ym2612"
    },
    {
      "channel": 0,
      "note": 41,
      "start": 43.4522,
      "duration": 0.0161,
      "velocity": 115,
      "chip": "ym2612"
    },
    {
      "channel": 5,
      "note": 83,
      "start": 43.4537,
      "duration": 0.016,
      "velocity": 89,
      "chip": "ym2612"
    },
    {
      "channel": 3,
      "note": 83,
      "start": 43.4548,
      "duration": 0.016,
      "velocity": 89,
      "chip": "ym2612"
    },
    {
      "channel": 4,
      "note": 55,
      "start": 43.4571,
      "duration": 0.016,
      "velocity": 100,
      "chip": "ym2612"
    },
    {
      "channel": 1,
      "note": 79,
      "start": 43.4667,
      "duration": 0.0161,
      "velocity": 127,
      "chip": "ym2612"
    },
    {
      "channel": 0,
      "note": 41,
      "start": 43.4683,
      "duration": 0.0161,
      "velocity": 115,
      "chip": "ym2612"
    },
    {
      "channel": 5,
      "note": 83,
      "start": 43.4697,
      "duration": 0.016,
      "velocity": 89,
      "chip": "ym2612"
    },
    {
      "channel": 3,
      "note": 83,
      "start": 43.4708,
      "duration": 0.016,
      "velocity": 89,
      "chip": "ym2612"
    },
    {
      "channel": 4,
      "note": 55,
      "start": 43.4732,
      "duration": 0.016,
      "velocity": 100,
      "chip": "ym2612"
    },
    {
      "channel": 1,
      "note": 79,
      "start": 43.4828,
      "duration": 0.0161,
      "velocity": 127,
      "chip": "ym2612"
    },
    {
      "channel": 0,
      "note": 42,
      "start": 43.4844,
      "duration": 0.0162,
      "velocity": 115,
      "chip": "ym2612"
    },
    {
      "channel": 5,
      "note": 83,
      "start": 43.4857,
      "duration": 0.016,
      "velocity": 89,
      "chip": "ym2612"
    },
    {
      "channel": 3,
      "note": 83,
      "start": 43.4868,
      "duration": 0.016,
      "velocity": 89,
      "chip": "ym2612"
    },
    {
      "channel": 4,
      "note": 55,
      "start": 43.4891,
      "duration": 0.0164,
      "velocity": 100,
      "chip": "ym2612"
    },
    {
      "channel": 1,
      "note": 79,
      "start": 43.4989,
      "duration": 0.0161,
      "velocity": 127,
      "chip": "ym2612"
    },
    {
      "channel": 0,
      "note": 42,
      "start": 43.5006,
      "duration": 0.0161,
      "velocity": 115,
      "chip": "ym2612"
    },
    {
      "channel": 5,
      "note": 83,
      "start": 43.5017,
      "duration": 0.0161,
      "velocity": 89,
      "chip": "ym2612"
    },
    {
      "channel": 3,
      "note": 83,
      "start": 43.5029,
      "duration": 0.0161,
      "velocity": 89,
      "chip": "ym2612"
    },
    {
      "channel": 2,
      "note": 76,
      "start": 43.5043,
      "duration": 0.0159,
      "velocity": 105,
      "chip": "ym2612"
    },
    {
      "channel": 4,
      "note": 55,
      "start": 43.5056,
      "duration": 0.0158,
      "velocity": 100,
      "chip": "ym2612"
    },
    {
      "channel": 1,
      "note": 79,
      "start": 43.515,
      "duration": 0.0161,
      "velocity": 127,
      "chip": "ym2612"
    },
    {
      "channel": 0,
      "note": 43,
      "start": 43.5167,
      "duration": 0.0161,
      "velocity": 115,
      "chip": "ym2612"
    },
    {
      "channel": 5,
      "note": 83,
      "start": 43.5178,
      "duration": 0.0161,
      "velocity": 89,
      "chip": "ym2612"
    },
    {
      "channel": 3,
      "note": 83,
      "start": 43.519,
      "duration": 0.0161,
      "velocity": 89,
      "chip": "ym2612"
    },
    {
      "channel": 2,
      "note": 76,
      "start": 43.5202,
      "duration": 0.0161,
      "velocity": 105,
      "chip": "ym2612"
    },
    {
      "channel": 4,
      "note": 55,
      "start": 43.5214,
      "duration": 0.016,
      "velocity": 100,
      "chip": "ym2612"
    },
    {
      "channel": 1,
      "note": 79,
      "start": 43.5311,
      "duration": 0.0161,
      "velocity": 127,
      "chip": "ym2612"
    },
    {
      "channel": 0,
      "note": 43,
      "start": 43.5328,
      "duration": 0.0161,
      "velocity": 115,
      "chip": "ym2612"
    },
    {
      "channel": 5,
      "note": 83,
      "start": 43.5339,
      "duration": 0.0161,
      "velocity": 89,
      "chip": "ym2612"
    },
    {
      "channel": 3,
      "note": 83,
      "start": 43.5351,
      "duration": 0.0162,
      "velocity": 89,
      "chip": "ym2612"
    },
    {
      "channel": 2,
      "note": 76,
      "start": 43.5363,
      "duration": 0.0161,
      "velocity": 105,
      "chip": "ym2612"
    },
    {
      "channel": 4,
      "note": 55,
      "start": 43.5374,
      "duration": 0.0161,
      "velocity": 100,
      "chip": "ym2612"
    },
    {
      "channel": 1,
      "note": 79,
      "start": 43.5471,
      "duration": 0.0159,
      "velocity": 1,
      "chip": "ym2612"
    },
    {
      "channel": 0,
      "note": 44,
      "start": 43.5489,
      "duration": 0.0159,
      "velocity": 115,
      "chip": "ym2612"
    },
    {
      "channel": 5,
      "note": 83,
      "start": 43.55,
      "duration": 0.0159,
      "velocity": 89,
      "chip": "ym2612"
    },
    {
      "channel": 3,
      "note": 83,
      "start": 43.5512,
      "duration": 0.0159,
      "velocity": 89,
      "chip": "ym2612"
    },
    {
      "channel": 2,
      "note": 76,
      "start": 43.5524,
      "duration": 0.0158,
      "velocity": 105,
      "chip": "ym2612"
    },
    {
      "channel": 4,
      "note": 55,
      "start": 43.5535,
      "duration": 0.0159,
      "velocity": 100,
      "chip": "ym2612"
    },
    {
      "channel": 0,
      "note": 44,
      "start": 43.5648,
      "duration": 0.0152,
      "velocity": 115,
      "chip": "ym2612"
    },
    {
      "channel": 5,
      "note": 83,
      "start": 43.5659,
      "duration": 0.0153,
      "velocity": 89,
      "chip": "ym2612"
    },
    {
      "channel": 3,
      "note": 83,
      "start": 43.5671,
      "duration": 0.0153,
      "velocity": 89,
      "chip": "ym2612"
    },
    {
      "channel": 4,
      "note": 55,
      "start": 43.5694,
      "duration": 0.0152,
      "velocity": 100,
      "chip": "ym2612"
    },
    {
      "channel": 0,
      "note": 44,
      "start": 43.58,
      "duration": 0.0165,
      "velocity": 115,
      "chip": "ym2612"
    },
    {
      "channel": 5,
      "note": 83,
      "start": 43.5812,
      "duration": 0.0164,
      "velocity": 89,
      "chip": "ym2612"
    },
    {
      "channel": 3,
      "note": 83,
      "start": 43.5823,
      "duration": 0.0164,
      "velocity": 89,
      "chip": "ym2612"
    },
    {
      "channel": 4,
      "note": 55,
      "start": 43.5846,
      "duration": 0.0165,
      "velocity": 100,
      "chip": "ym2612"
    },
    {
      "channel": 0,
      "note": 45,
      "start": 43.5965,
      "duration": 0.021,
      "velocity": 115,
      "chip": "ym2612"
    },
    {
      "channel": 5,
      "note": 83,
      "start": 43.5976,
      "duration": 0.0211,
      "velocity": 89,
      "chip": "ym2612"
    },
    {
      "channel": 3,
      "note": 83,
      "start": 43.5988,
      "duration": 0.0211,
      "velocity": 89,
      "chip": "ym2612"
    },
    {
      "channel": 4,
      "note": 55,
      "start": 43.6011,
      "duration": 0.0216,
      "velocity": 100,
      "chip": "ym2612"
    },
    {
      "channel": 1,
      "note": 79,
      "start": 43.6139,
      "duration": 0.0143,
      "velocity": 127,
      "chip": "ym2612"
    },
    {
      "channel": 0,
      "note": 36,
      "start": 43.6175,
      "duration": 0.0126,
      "velocity": 115,
      "chip": "ym2612"
    },
    {
      "channel": 5,
      "note": 83,
      "start": 43.6187,
      "duration": 0.0126,
      "velocity": 89,
      "chip": "ym2612"
    },
    {
      "channel": 3,
      "note": 83,
      "start": 43.6199,
      "duration": 0.0125,
      "velocity": 89,
      "chip": "ym2612"
    },
    {
      "channel": 2,
      "note": 76,
      "start": 43.6213,
      "duration": 0.0123,
      "velocity": 105,
      "chip": "ym2612"
    },
    {
      "channel": 4,
      "note": 50,
      "start": 43.6227,
      "duration": 0.0122,
      "velocity": 100,
      "chip": "ym2612"
    },
    {
      "channel": 1,
      "note": 79,
      "start": 43.6283,
      "duration": 0.0157,
      "velocity": 127,
      "chip": "ym2612"
    },
    {
      "channel": 0,
      "note": 36,
      "start": 43.6301,
      "duration": 0.016,
      "velocity": 115,
      "chip": "ym2612"
    },
    {
      "channel": 5,
      "note": 83,
      "start": 43.6312,
      "duration": 0.016,
      "velocity": 89,
      "chip": "ym2612"
    },
    {
      "channel": 3,
      "note": 83,
      "start": 43.6324,
      "duration": 0.016,
      "velocity": 89,
      "chip": "ym2612"
    },
    {
      "channel": 2,
      "note": 76,
      "start": 43.6336,
      "duration": 0.0159,
      "velocity": 105,
      "chip": "ym2612"
    },
    {
      "channel": 4,
      "note": 50,
      "start": 43.6349,
      "duration": 0.0159,
      "velocity": 100,
      "chip": "ym2612"
    },
    {
      "channel": 1,
      "note": 79,
      "start": 43.644,
      "duration": 0.0159,
      "velocity": 127,
      "chip": "ym2612"
    },
    {
      "channel": 0,
      "note": 37,
      "start": 43.6461,
      "duration": 0.0161,
      "velocity": 115,
      "chip": "ym2612"
    },
    {
      "channel": 5,
      "note": 83,
      "start": 43.6472,
      "duration": 0.0161,
      "velocity": 89,
      "chip": "ym2612"
    },
    {
      "channel": 3,
      "note": 83,
      "start": 43.6484,
      "duration": 0.0161,
      "velocity": 89,
      "chip": "ym2612"
    },
    {
      "channel": 2,
      "note": 76,
      "start": 43.6495,
      "duration": 0.0162,
      "velocity": 105,
      "chip": "ym2612"
    },
    {
      "channel": 4,
      "note": 50,
      "start": 43.6507,
      "duration": 0.0161,
      "velocity": 100,
      "chip": "ym2612"
    },
    {
      "channel": 1,
      "note": 79,
      "start": 43.6599,
      "duration": 0.0161,
      "velocity": 127,
      "chip": "ym2612"
    },
    {
      "channel": 0,
      "note": 37,
      "start": 43.6622,
      "duration": 0.016,
      "velocity": 115,
      "chip": "ym2612"
    },
    {
      "channel": 5,
      "note": 83,
      "start": 43.6633,
      "duration": 0.0162,
      "velocity": 89,
      "chip": "ym2612"
    },
    {
      "channel": 3,
      "note": 83,
      "start": 43.6645,
      "duration": 0.0161,
      "velocity": 89,
      "chip": "ym2612"
    },
    {
      "channel": 2,
      "note": 76,
      "start": 43.6657,
      "duration": 0.0161,
      "velocity": 105,
      "chip": "ym2612"
    },
    {
      "channel": 4,
      "note": 50,
      "start": 43.6668,
      "duration": 0.0162,
      "velocity": 100,
      "chip": "ym2612"
    },
    {
      "channel": 1,
      "note": 79,
      "start": 43.676,
      "duration": 0.0161,
      "velocity": 127,
      "chip": "ym2612"
    },
    {
      "channel": 0,
      "note": 38,
      "start": 43.6782,
      "duration": 0.0158,
      "velocity": 115,
      "chip": "ym2612"
    },
    {
      "channel": 5,
      "note": 83,
      "start": 43.6795,
      "duration": 0.0161,
      "velocity": 89,
      "chip": "ym2612"
    },
    {
      "channel": 3,
      "note": 83,
      "start": 43.6806,
      "duration": 0.0161,
      "velocity": 89,
      "chip": "ym2612"
    },
    {
      "channel": 4,
      "note": 50,
      "start": 43.683,
      "duration": 0.016,
      "velocity": 100,
      "chip": "ym2612"
    },
    {
      "channel": 1,
      "note": 79,
      "start": 43.6921,
      "duration": 0.0161,
      "velocity": 127,
      "chip": "ym2612"
    },
    {
      "channel": 0,
      "note": 38,
      "start": 43.694,
      "duration": 0.0159,
      "velocity": 115,
      "chip": "ym2612"
    },
    {
      "channel": 5,
      "note": 83,
      "start": 43.6956,
      "duration": 0.016,
      "velocity": 89,
      "chip": "ym2612"
    },
    {
      "channel": 3,
      "note": 83,
      "start": 43.6967,
      "duration": 0.0161,
      "velocity": 89,
      "chip": "ym2612"
    },
    {
      "channel": 4,
      "note": 50,
      "start": 43.699,
      "duration": 0.0161,
      "velocity": 100,
      "chip": "ym2612"
    },
    {
      "channel": 1,
      "note": 79,
      "start": 43.7082,
      "duration": 0.0161,
      "velocity": 127,
      "chip": "ym2612"
    },
    {
      "channel": 0,
      "note": 39,
      "start": 43.7099,
      "duration": 0.0184,
      "velocity": 115,
      "chip": "ym2612"
    },
    {
      "channel": 5,
      "note": 83,
      "start": 43.7116,
      "duration": 0.018,
      "velocity": 89,
      "chip": "ym2612"
    },
    {
      "channel": 3,
      "note": 83,
      "start": 43.7128,
      "duration": 0.0179,
      "velocity": 89,
      "chip": "ym2612"
    },
    {
      "channel": 4,
      "note": 50,
      "start": 43.7151,
      "duration": 0.0186,
      "velocity": 100,
      "chip": "ym2612"
    },
    {
      "channel": 1,
      "note": 79,
      "start": 43.7243,
      "duration": 0.0161,
      "velocity": 127,
      "chip": "ym2612"
    },
    {
      "channel": 0,
      "note": 36,
      "start": 43.7284,
      "duration": 0.0137,
      "velocity": 115,
      "chip": "ym2612"
    },
    {
      "channel": 5,
      "note": 83,
      "start": 43.7296,
      "duration": 0.0137,
      "velocity": 89,
      "chip": "ym2612"
    },
    {
      "channel": 3,
      "note": 83,
      "start": 43.7307,
      "duration": 0.0142,
      "velocity": 89,
      "chip": "ym2612"
    },
    {
      "channel": 2,
      "note": 76,
      "start": 43.7323,
      "duration": 0.0139,
      "velocity": 105,
      "chip": "ym2612"
    },
    {
      "channel": 4,
      "note": 50,
      "start": 43.7337,
      "duration": 0.0137,
      "velocity": 100,
      "chip": "ym2612"
    },
    {
      "channel": 1,
      "note": 79,
      "start": 43.7403,
      "duration": 0.0162,
      "velocity": 127,
      "chip": "ym2612"
    },
    {
      "channel": 0,
      "note": 36,
      "start": 43.7421,
      "duration": 0.016,
      "velocity": 115,
      "chip": "ym2612"
    },
    {
      "channel": 5,
      "note": 83,
      "start": 43.7433,
      "duration": 0.0161,
      "velocity": 89,
      "chip": "ym2612"
    },
    {
      "channel": 3,
      "note": 83,
      "start": 43.745,
      "duration": 0.0157,
      "velocity": 89,
      "chip": "ym2612"
    },
    {
      "channel": 2,
      "note": 76,
      "start": 43.7463,
      "duration": 0.016,
      "velocity": 105,
      "chip": "ym2612"
    },
    {
      "channel": 4,
      "note": 50,
      "start": 43.7475,
      "duration": 0.016,
      "velocity": 100,
      "chip": "ym2612"
    },
    {
      "channel": 1,
      "note": 79,
      "start": 43.7565,
      "duration": 0.0161,
      "velocity": 127,
      "chip": "ym2612"
    },
    {
      "channel": 0,
      "note": 37,
      "start": 43.7582,
      "duration": 0.0161,
      "velocity": 115,
      "chip": "ym2612"
    },
    {
      "channel": 5,
      "note": 83,
      "start": 43.7594,
      "duration": 0.0161,
      "velocity": 89,
      "chip": "ym2612"
    },
    {
      "channel": 3,
      "note": 83,
      "start": 43.7607,
      "duration": 0.0159,
      "velocity": 89,
      "chip": "ym2612"
    },
    {
      "channel": 2,
      "note": 76,
      "start": 43.7623,
      "duration": 0.016,
      "velocity": 105,
      "chip": "ym2612"
    },
    {
      "channel": 4,
      "note": 50,
      "start": 43.7634,
      "duration": 0.0161,
      "velocity": 100,
      "chip": "ym2612"
    },
    {
      "channel": 1,
      "note": 79,
      "start": 43.7726,
      "duration": 0.0161,
      "velocity": 127,
      "chip": "ym2612"
    },
    {
      "channel": 0,
      "note": 37,
      "start": 43.7743,
      "duration": 0.0161,
      "velocity": 115,
      "chip": "ym2612"
    },
    {
      "channel": 5,
      "note": 83,
      "start": 43.7755,
      "duration": 0.0161,
      "velocity": 89,
      "chip": "ym2612"
    },
    {
      "channel": 3,
      "note": 83,
      "start": 43.7766,
      "duration": 0.0161,
      "velocity": 89,
      "chip": "ym2612"
    },
    {
      "channel": 2,
      "note": 76,
      "start": 43.7783,
      "duration": 0.0158,
      "velocity": 105,
      "chip": "ym2612"
    },
    {
      "channel": 4,
      "note": 50,
      "start": 43.7795,
      "duration": 0.0161,
      "velocity": 100,
      "chip": "ym2612"
    },
    {
      "channel": 1,
      "note": 79,
      "start": 43.7887,
      "duration": 0.0161,
      "velocity": 127,
      "chip": "ym2612"
    },
    {
      "channel": 0,
      "note": 38,
      "start": 43.7903,
      "duration": 0.0162,
      "velocity": 115,
      "chip": "ym2612"
    },
    {
      "channel": 5,
      "note": 83,
      "start": 43.7916,
      "duration": 0.0161,
      "velocity": 89,
      "chip": "ym2612"
    },
    {
      "channel": 3,
      "note": 83,
      "start": 43.7927,
      "duration": 0.0161,
      "velocity": 89,
      "chip": "ym2612"
    },
    {
      "channel": 2,
      "note": 76,
      "start": 43.794,
      "duration": 0.0159,
      "velocity": 105,
      "chip": "ym2612"
    },
    {
      "channel": 4,
      "note": 50,
      "start": 43.7956,
      "duration": 0.016,
      "velocity": 100,
      "chip": "ym2612"
    },
    {
      "channel": 1,
      "note": 79,
      "start": 43.8048,
      "duration": 0.0161,
      "velocity": 127,
      "chip": "ym2612"
    },
    {
      "channel": 0,
      "note": 38,
      "start": 43.8065,
      "duration": 0.0161,
      "velocity": 115,
      "chip": "ym2612"
    },
    {
      "channel": 5,
      "note": 83,
      "start": 43.8076,
      "duration": 0.0161,
      "velocity": 89,
      "chip": "ym2612"
    },
    {
      "channel": 3,
      "note": 83,
      "start": 43.8088,
      "duration": 0.0161,
      "velocity": 89,
      "chip": "ym2612"
    },
    {
      "channel": 2,
      "note": 76,
      "start": 43.8099,
      "duration": 0.0161,
      "velocity": 105,
      "chip": "ym2612"
    },
    {
      "channel": 4,
      "note": 50,
      "start": 43.8117,
      "duration": 0.0158,
      "velocity": 100,
      "chip": "ym2612"
    },
    {
      "channel": 1,
      "note": 79,
      "start": 43.8209,
      "duration": 0.0179,
      "velocity": 127,
      "chip": "ym2612"
    },
    {
      "channel": 0,
      "note": 39,
      "start": 43.8226,
      "duration": 0.0179,
      "velocity": 115,
      "chip": "ym2612"
    },
    {
      "channel": 5,
      "note": 83,
      "start": 43.8237,
      "duration": 0.0179,
      "velocity": 89,
      "chip": "ym2612"
    },
    {
      "channel": 3,
      "note": 83,
      "start": 43.8249,
      "duration": 0.0179,
      "velocity": 89,
      "chip": "ym2612"
    },
    {
      "channel": 2,
      "note": 76,
      "start": 43.826,
      "duration": 0.0185,
      "velocity": 105,
      "chip": "ym2612"
    },
    {
      "channel": 4,
      "note": 50,
      "start": 43.8274,
      "duration": 0.0183,
      "velocity": 100,
      "chip": "ym2612"
    },
    {
      "channel": 1,
      "note": 79,
      "start": 43.8388,
      "duration": 0.0143,
      "velocity": 127,
      "chip": "ym2612"
    },
    {
      "channel": 0,
      "note": 39,
      "start": 43.8405,
      "duration": 0.0143,
      "velocity": 115,
      "chip": "ym2612"
    },
    {
      "channel": 5,
      "note": 83,
      "start": 43.8417,
      "duration": 0.0143,
      "velocity": 89,
      "chip": "ym2612"
    },
    {
      "channel": 3,
      "note": 83,
      "start": 43.8428,
      "duration": 0.0144,
      "velocity": 89,
      "chip": "ym2612"
    },
    {
      "channel": 2,
      "note": 76,
      "start": 43.8445,
      "duration": 0.0138,
      "velocity": 105,
      "chip": "ym2612"
    },
    {
      "channel": 4,
      "note": 50,
      "start": 43.8458,
      "duration": 0.0137,
      "velocity": 100,
      "chip": "ym2612"
    },
    {
      "channel": 1,
      "note": 79,
      "start": 43.8531,
      "duration": 0.016,
      "velocity": 127,
      "chip": "ym2612"
    },
    {
      "channel": 0,
      "note": 40,
      "start": 43.8549,
      "duration": 0.016,
      "velocity": 115,
      "chip": "ym2612"
    },
    {
      "channel": 5,
      "note": 83,
      "start": 43.856,
      "duration": 0.016,
      "velocity": 89,
      "chip": "ym2612"
    },
    {
      "channel": 3,
      "note": 83,
      "start": 43.8572,
      "duration": 0.016,
      "velocity": 89,
      "chip": "ym2612"
    },
    {
      "channel": 2,
      "note": 76,
      "start": 43.8583,
      "duration": 0.016,
      "velocity": 105,
      "chip": "ym2612"
    },
    {
      "channel": 4,
      "note": 50,
      "start": 43.8595,
      "duration": 0.016,
      "velocity": 100,
      "chip": "ym2612"
    },
    {
      "channel": 1,
      "note": 79,
      "start": 43.8692,
      "duration": 0.0161,
      "velocity": 127,
      "chip": "ym2612"
    },
    {
      "channel": 0,
      "note": 40,
      "start": 43.8709,
      "duration": 0.0161,
      "velocity": 115,
      "chip": "ym2612"
    },
    {
      "channel": 5,
      "note": 83,
      "start": 43.872,
      "duration": 0.0161,
      "velocity": 89,
      "chip": "ym2612"
    },
    {
      "channel": 3,
      "note": 83,
      "start": 43.8732,
      "duration": 0.0161,
      "velocity": 89,
      "chip": "ym2612"
    },
    {
      "channel": 2,
      "note": 76,
      "start": 43.8744,
      "duration": 0.0161,
      "velocity": 105,
      "chip": "ym2612"
    },
    {
      "channel": 4,
      "note": 50,
      "start": 43.8755,
      "duration": 0.0161,
      "velocity": 100,
      "chip": "ym2612"
    },
    {
      "channel": 1,
      "note": 79,
      "start": 43.8853,
      "duration": 0.0161,
      "velocity": 127,
      "chip": "ym2612"
    },
    {
      "channel": 0,
      "note": 40,
      "start": 43.887,
      "duration": 0.0161,
      "velocity": 115,
      "chip": "ym2612"
    },
    {
      "channel": 5,
      "note": 83,
      "start": 43.8881,
      "duration": 0.0162,
      "velocity": 89,
      "chip": "ym2612"
    },
    {
      "channel": 3,
      "note": 83,
      "start": 43.8893,
      "duration": 0.0161,
      "velocity": 89,
      "chip": "ym2612"
    },
    {
      "channel": 2,
      "note": 76,
      "start": 43.8905,
      "duration": 0.0161,
      "velocity": 105,
      "chip": "ym2612"
    },
    {
      "channel": 4,
      "note": 50,
      "start": 43.8916,
      "duration": 0.0162,
      "velocity": 100,
      "chip": "ym2612"
    },
    {
      "channel": 1,
      "note": 79,
      "start": 43.9014,
      "duration": 0.0161,
      "velocity": 127,
      "chip": "ym2612"
    },
    {
      "channel": 0,
      "note": 41,
      "start": 43.9031,
      "duration": 0.0161,
      "velocity": 115,
      "chip": "ym2612"
    },
    {
      "channel": 5,
      "note": 83,
      "start": 43.9043,
      "duration": 0.0161,
      "velocity": 89,
      "chip": "ym2612"
    },
    {
      "channel": 3,
      "note": 83,
      "start": 43.9054,
      "duration": 0.0161,
      "velocity": 89,
      "chip": "ym2612"
    },
    {
      "channel": 4,
      "note": 50,
      "start": 43.9078,
      "duration": 0.016,
      "velocity": 100,
      "chip": "ym2612"
    },
    {
      "channel": 1,
      "note": 79,
      "start": 43.9175,
      "duration": 0.0161,
      "velocity": 127,
      "chip": "ym2612"
    },
    {
      "channel": 0,
      "note": 41,
      "start": 43.9192,
      "duration": 0.0161,
      "velocity": 115,
      "chip": "ym2612"
    },
    {
      "channel": 5,
      "note": 83,
      "start": 43.9204,
      "duration": 0.0161,
      "velocity": 89,
      "chip": "ym2612"
    },
    {
      "channel": 3,
      "note": 83,
      "start": 43.9215,
      "duration": 0.0161,
      "velocity": 89,
      "chip": "ym2612"
    },
    {
      "channel": 4,
      "note": 50,
      "start": 43.9238,
      "duration": 0.0161,
      "velocity": 100,
      "chip": "ym2612"
    },
    {
      "channel": 1,
      "note": 79,
      "start": 43.9336,
      "duration": 0.0178,
      "velocity": 127,
      "chip": "ym2612"
    },
    {
      "channel": 0,
      "note": 42,
      "start": 43.9353,
      "duration": 0.0197,
      "velocity": 124,
      "chip": "ym2612"
    },
    {
      "channel": 5,
      "note": 83,
      "start": 43.9365,
      "duration": 0.0197,
      "velocity": 89,
      "chip": "ym2612"
    },
    {
      "channel": 3,
      "note": 83,
      "start": 43.9376,
      "duration": 0.0197,
      "velocity": 89,
      "chip": "ym2612"
    },
    {
      "channel": 4,
      "note": 50,
      "start": 43.9399,
      "duration": 0.0201,
      "velocity": 100,
      "chip": "ym2612"
    },
    {
      "channel": 1,
      "note": 72,
      "start": 43.9515,
      "duration": 0.0144,
      "velocity": 127,
      "chip": "ym2612"
    },
    {
      "channel": 0,
      "note": 84,
      "start": 43.955,
      "duration": 0.0126,
      "velocity": 124,
      "chip": "ym2612"
    },
    {
      "channel": 5,
      "note": 83,
      "start": 43.9562,
      "duration": 0.0126,
      "velocity": 89,
      "chip": "ym2612"
    },
    {
      "channel": 3,
      "note": 83,
      "start": 43.9573,
      "duration": 0.0126,
      "velocity": 89,
      "chip": "ym2612"
    },
    {
      "channel": 2,
      "note": 76,
      "start": 43.9589,
      "duration": 0.0123,
      "velocity": 105,
      "chip": "ym2612"
    },
    {
      "channel": 4,
      "note": 50,
      "start": 43.96,
      "duration": 0.0123,
      "velocity": 100,
      "chip": "ym2612"
    },
    {
      "channel": 1,
      "note": 72,
      "start": 43.9659,
      "duration": 0.016,
      "velocity": 127,
      "chip": "ym2612"
    },
    {
      "channel": 0,
      "note": 82,
      "start": 43.9676,
      "duration": 0.016,
      "velocity": 124,
      "chip": "ym2612"
    },
    {
      "channel": 5,
      "note": 83,
      "start": 43.9688,
      "duration": 0.016,
      "velocity": 89,
      "chip": "ym2612"
    },
    {
      "channel": 3,
      "note": 83,
      "start": 43.9699,
      "duration": 0.016,
      "velocity": 89,
      "chip": "ym2612"
    },
    {
      "channel": 2,
      "note": 76,
      "start": 43.9711,
      "duration": 0.016,
      "velocity": 105,
      "chip": "ym2612"
    },
    {
      "channel": 4,
      "note": 50,
      "start": 43.9723,
      "duration": 0.0159,
      "velocity": 100,
      "chip": "ym2612"
    },
    {
      "channel": 1,
      "note": 72,
      "start": 43.9819,
      "duration": 0.0161,
      "velocity": 127,
      "chip": "ym2612"
    },
    {
      "channel": 0,
      "note": 80,
      "start": 43.9836,
      "duration": 0.0161,
      "velocity": 124,
      "chip": "ym2612"
    },
    {
      "channel": 5,
      "note": 83,
      "start": 43.9847,
      "duration": 0.0161,
      "velocity": 89,
      "chip": "ym2612"
    },
    {
      "channel": 3,
      "note": 83,
      "start": 43.9859,
      "duration": 0.0161,
      "velocity": 89,
      "chip": "ym2612"
    },
    {
      "channel": 2,
      "note": 76,
      "start": 43.9871,
      "duration": 0.0161,
      "velocity": 105,
      "chip": "ym2612"
    },
    {
      "channel": 4,
      "note": 50,
      "start": 43.9883,
      "duration": 0.0161,
      "velocity": 100,
      "chip": "ym2612"
    },
    {
      "channel": 1,
      "note": 72,
      "start": 43.998,
      "duration": 0.0161,
      "velocity": 127,
      "chip": "ym2612"
    },
    {
      "channel": 0,
      "note": 77,
      "start": 43.9997,
      "duration": 0.0161,
      "velocity": 124,
      "chip": "ym2612"
    },
    {
      "channel": 5,
      "note": 83,
      "start": 44.0008,
      "duration": 0.0161,
      "velocity": 89,
      "chip": "ym2612"
    },
    {
      "channel": 3,
      "note": 83,
      "start": 44.002,
      "duration": 0.0161,
      "velocity": 89,
      "chip": "ym2612"
    },
    {
      "channel": 2,
      "note": 76,
      "start": 44.0032,
      "duration": 0.0161,
      "velocity": 105,
      "chip": "ym2612"
    },
    {
      "channel": 4,
      "note": 50,
      "start": 44.0043,
      "duration": 0.0161,
      "velocity": 100,
      "chip": "ym2612"
    },
    {
      "channel": 1,
      "note": 72,
      "start": 44.0141,
      "duration": 0.0161,
      "velocity": 127,
      "chip": "ym2612"
    },
    {
      "channel": 0,
      "note": 75,
      "start": 44.0158,
      "duration": 0.0161,
      "velocity": 124,
      "chip": "ym2612"
    },
    {
      "channel": 5,
      "note": 83,
      "start": 44.0169,
      "duration": 0.0161,
      "velocity": 89,
      "chip": "ym2612"
    },
    {
      "channel": 3,
      "note": 83,
      "start": 44.0181,
      "duration": 0.0161,
      "velocity": 89,
      "chip": "ym2612"
    },
    {
      "channel": 4,
      "note": 50,
      "start": 44.0204,
      "duration": 0.0161,
      "velocity": 100,
      "chip": "ym2612"
    },
    {
      "channel": 1,
      "note": 72,
      "start": 44.0302,
      "duration": 0.0162,
      "velocity": 127,
      "chip": "ym2612"
    },
    {
      "channel": 0,
      "note": 72,
      "start": 44.0319,
      "duration": 0.0162,
      "velocity": 124,
      "chip": "ym2612"
    },
    {
      "channel": 5,
      "note": 83,
      "start": 44.033,
      "duration": 0.0162,
      "velocity": 89,
      "chip": "ym2612"
    },
    {
      "channel": 3,
      "note": 83,
      "start": 44.0342,
      "duration": 0.0162,
      "velocity": 89,
      "chip": "ym2612"
    },
    {
      "channel": 4,
      "note": 50,
      "start": 44.0365,
      "duration": 0.0162,
      "velocity": 100,
      "chip": "ym2612"
    },
    {
      "channel": 1,
      "note": 72,
      "start": 44.0464,
      "duration": 0.0162,
      "velocity": 127,
      "chip": "ym2612"
    },
    {
      "channel": 0,
      "note": 70,
      "start": 44.048,
      "duration": 0.018,
      "velocity": 115,
      "chip": "ym2612"
    },
    {
      "channel": 5,
      "note": 83,
      "start": 44.0493,
      "duration": 0.0181,
      "velocity": 89,
      "chip": "ym2612"
    },
    {
      "channel": 3,
      "note": 83,
      "start": 44.0504,
      "duration": 0.0181,
      "velocity": 89,
      "chip": "ym2612"
    },
    {
      "channel": 4,
      "note": 50,
      "start": 44.0527,
      "duration": 0.0187,
      "velocity": 100,
      "chip": "ym2612"
    },
    {
      "channel": 1,
      "note": 72,
      "start": 44.0626,
      "duration": 0.0163,
      "velocity": 127,
      "chip": "ym2612"
    },
    {
      "channel": 0,
      "note": 36,
      "start": 44.0662,
      "duration": 0.0145,
      "velocity": 115,
      "chip": "ym2612"
    },
    {
      "channel": 5,
      "note": 83,
      "start": 44.0673,
      "duration": 0.0146,
      "velocity": 89,
      "chip": "ym2612"
    },
    {
      "channel": 3,
      "note": 83,
      "start": 44.0685,
      "duration": 0.0145,
      "velocity": 89,
      "chip": "ym2612"
    },
    {
      "channel": 2,
      "note": 76,
      "start": 44.0699,
      "duration": 0.0143,
      "velocity": 105,
      "chip": "ym2612"
    },
    {
      "channel": 4,
      "note": 50,
      "start": 44.0715,
      "duration": 0.014,
      "velocity": 100,
      "chip": "ym2612"
    },
    {
      "channel": 1,
      "note": 72,
      "start": 44.079,
      "duration": 0.0162,
      "velocity": 127,
      "chip": "ym2612"
    },
    {
      "channel": 0,
      "note": 36,
      "start": 44.0807,
      "duration": 0.0162,
      "velocity": 115,
      "chip": "ym2612"
    },
    {
      "channel": 5,
      "note": 83,
      "start": 44.0819,
      "duration": 0.0162,
      "velocity": 89,
      "chip": "ym2612"
    },
    {
      "channel": 3,
      "note": 83,
      "start": 44.083,
      "duration": 0.0162,
      "velocity": 89,
      "chip": "ym2612"
    },
    {
      "channel": 2,
      "note": 76,
      "start": 44.0842,
      "duration": 0.0162,
      "velocity": 105,
      "chip": "ym2612"
    },
    {
      "channel": 4,
      "note": 50,
      "start": 44.0854,
      "duration": 0.0161,
      "velocity": 100,
      "chip": "ym2612"
    },
    {
      "channel": 1,
      "note": 72,
      "start": 44.0951,
      "duration": 0.0161,
      "velocity": 127,
      "chip": "ym2612"
    },
    {
      "channel": 0,
      "note": 37,
      "start": 44.0969,
      "duration": 0.0161,
      "velocity": 115,
      "chip": "ym2612"
    },
    {
      "channel": 5,
      "note": 83,
      "start": 44.098,
      "duration": 0.0161,
      "velocity": 89,
      "chip": "ym2612"
    },
    {
      "channel": 3,
      "note": 83,
      "start": 44.0993,
      "duration": 0.0161,
      "velocity": 89,
      "chip": "ym2612"
    },
    {
      "channel": 2,
      "note": 76,
      "start": 44.1004,
      "duration": 0.0161,
      "velocity": 105,
      "chip": "ym2612"
    },
    {
      "channel": 4,
      "note": 50,
      "start": 44.1015,
      "duration": 0.0161,
      "velocity": 100,
      "chip": "ym2612"
    },
    {
      "channel": 1,
      "note": 72,
      "start": 44.1112,
      "duration": 0.0156,
      "velocity": 127,
      "chip": "ym2612"
    },
    {
      "channel": 0,
      "note": 37,
      "start": 44.113,
      "duration": 0.0161,
      "velocity": 115,
      "chip": "ym2612"
    },
    {
      "channel": 5,
      "note": 83,
      "start": 44.1141,
      "duration": 0.0161,
      "velocity": 89,
      "chip": "ym2612"
    },
    {
      "channel": 3,
      "note": 83,
      "start": 44.1154,
      "duration": 0.0161,
      "velocity": 89,
      "chip": "ym2612"
    },
    {
      "channel": 2,
      "note": 76,
      "start": 44.1165,
      "duration": 0.0161,
      "velocity": 105,
      "chip": "ym2612"
    },
    {
      "channel": 4,
      "note": 50,
      "start": 44.1176,
      "duration": 0.0161,
      "velocity": 100,
      "chip": "ym2612"
    },
    {
      "channel": 1,
      "note": 72,
      "start": 44.1268,
      "duration": 0.0161,
      "velocity": 127,
      "chip": "ym2612"
    },
    {
      "channel": 0,
      "note": 38,
      "start": 44.1291,
      "duration": 0.0161,
      "velocity": 115,
      "chip": "ym2612"
    },
    {
      "channel": 5,
      "note": 83,
      "start": 44.1303,
      "duration": 0.016,
      "velocity": 89,
      "chip": "ym2612"
    },
    {
      "channel": 3,
      "note": 83,
      "start": 44.1315,
      "duration": 0.0161,
      "velocity": 89,
      "chip": "ym2612"
    },
    {
      "channel": 4,
      "note": 50,
      "start": 44.1338,
      "duration": 0.016,
      "velocity": 100,
      "chip": "ym2612"
    },
    {
      "channel": 1,
      "note": 72,
      "start": 44.1429,
      "duration": 0.0161,
      "velocity": 127,
      "chip": "ym2612"
    },
    {
      "channel": 0,
      "note": 38,
      "start": 44.1452,
      "duration": 0.016,
      "velocity": 115,
      "chip": "ym2612"
    },
    {
      "channel": 5,
      "note": 83,
      "start": 44.1463,
      "duration": 0.0162,
      "velocity": 89,
      "chip": "ym2612"
    },
    {
      "channel": 3,
      "note": 83,
      "start": 44.1475,
      "duration": 0.0161,
      "velocity": 89,
      "chip": "ym2612"
    },
    {
      "channel": 4,
      "note": 50,
      "start": 44.1498,
      "duration": 0.0161,
      "velocity": 100,
      "chip": "ym2612"
    },
    {
      "channel": 1,
      "note": 72,
      "start": 44.159,
      "duration": 0.0161,
      "velocity": 127,
      "chip": "ym2612"
    },
    {
      "channel": 0,
      "note": 39,
      "start": 44.1612,
      "duration": 0.0156,
      "velocity": 115,
      "chip": "ym2612"
    },
    {
      "channel": 5,
      "note": 83,
      "start": 44.1625,
      "duration": 0.0161,
      "velocity": 89,
      "chip": "ym2612"
    },
    {
      "channel": 3,
      "note": 83,
      "start": 44.1636,
      "duration": 0.0161,
      "velocity": 89,
      "chip": "ym2612"
    },
    {
      "channel": 4,
      "note": 50,
      "start": 44.1659,
      "duration": 0.0167,
      "velocity": 100,
      "chip": "ym2612"
    },
    {
      "channel": 1,
      "note": 72,
      "start": 44.1751,
      "duration": 0.0161,
      "velocity": 127,
      "chip": "ym2612"
    },
    {
      "channel": 0,
      "note": 39,
      "start": 44.1768,
      "duration": 0.0161,
      "velocity": 115,
      "chip": "ym2612"
    },
    {
      "channel": 5,
      "note": 83,
      "start": 44.1786,
      "duration": 0.016,
      "velocity": 89,
      "chip": "ym2612"
    },
    {
      "channel": 3,
      "note": 83,
      "start": 44.1797,
      "duration": 0.0161,
      "velocity": 89,
      "chip": "ym2612"
    },
    {
      "channel": 2,
      "note": 76,
      "start": 44.1813,
      "duration": 0.0157,
      "velocity": 105,
      "chip": "ym2612"
    },
    {
      "channel": 4,
      "note": 50,
      "start": 44.1826,
      "duration": 0.0156,
      "velocity": 100,
      "chip": "ym2612"
    },
    {
      "channel": 1,
      "note": 72,
      "start": 44.1912,
      "duration": 0.0161,
      "velocity": 127,
      "chip": "ym2612"
    },
    {
      "channel": 0,
      "note": 40,
      "start": 44.1929,
      "duration": 0.0161,
      "velocity": 115,
      "chip": "ym2612"
    },
    {
      "channel": 5,
      "note": 83,
      "start": 44.1946,
      "duration": 0.0156,
      "velocity": 89,
      "chip": "ym2612"
    },
    {
      "channel": 3,
      "note": 83,
      "start": 44.1958,
      "duration": 0.0161,
      "velocity": 89,
      "chip": "ym2612"
    },
    {
      "channel": 2,
      "note": 76,
      "start": 44.197,
      "duration": 0.016,
      "velocity": 105,
      "chip": "ym2612"
    },
    {
      "channel": 4,
      "note": 50,
      "start": 44.1982,
      "duration": 0.0161,
      "velocity": 100,
      "chip": "ym2612"
    },
    {
      "channel": 1,
      "note": 72,
      "start": 44.2073,
      "duration": 0.0161,
      "velocity": 127,
      "chip": "ym2612"
    },
    {
      "channel": 0,
      "note": 40,
      "start": 44.209,
      "duration": 0.0161,
      "velocity": 115,
      "chip": "ym2612"
    },
    {
      "channel": 5,
      "note": 83,
      "start": 44.2102,
      "duration": 0.0161,
      "velocity": 89,
      "chip": "ym2612"
    },
    {
      "channel": 3,
      "note": 83,
      "start": 44.2119,
      "duration": 0.016,
      "velocity": 89,
      "chip": "ym2612"
    },
    {
      "channel": 2,
      "note": 76,
      "start": 44.2131,
      "duration": 0.0161,
      "velocity": 105,
      "chip": "ym2612"
    },
    {
      "channel": 4,
      "note": 50,
      "start": 44.2143,
      "duration": 0.016,
      "velocity": 100,
      "chip": "ym2612"
    },
    {
      "channel": 1,
      "note": 72,
      "start": 44.2234,
      "duration": 0.0159,
      "velocity": 1,
      "chip": "ym2612"
    },
    {
      "channel": 0,
      "note": 40,
      "start": 44.2251,
      "duration": 0.0159,
      "velocity": 115,
      "chip": "ym2612"
    },
    {
      "channel": 5,
      "note": 83,
      "start": 44.2263,
      "duration": 0.0159,
      "velocity": 89,
      "chip": "ym2612"
    },
    {
      "channel": 3,
      "note": 83,
      "start": 44.2279,
      "duration": 0.0153,
      "velocity": 89,
      "chip": "ym2612"
    },
    {
      "channel": 2,
      "note": 76,
      "start": 44.2292,
      "duration": 0.0158,
      "velocity": 105,
      "chip": "ym2612"
    },
    {
      "channel": 4,
      "note": 50,
      "start": 44.2304,
      "duration": 0.0158,
      "velocity": 100,
      "chip": "ym2612"
    },
    {
      "channel": 0,
      "note": 41,
      "start": 44.2409,
      "duration": 0.0153,
      "velocity": 115,
      "chip": "ym2612"
    },
    {
      "channel": 5,
      "note": 83,
      "start": 44.2421,
      "duration": 0.0152,
      "velocity": 89,
      "chip": "ym2612"
    },
    {
      "channel": 3,
      "note": 83,
      "start": 44.2433,
      "duration": 0.0152,
      "velocity": 89,
      "chip": "ym2612"
    },
    {
      "channel": 2,
      "note": 76,
      "start": 44.2449,
      "duration": 0.0148,
      "velocity": 105,
      "chip": "ym2612"
    },
    {
      "channel": 4,
      "note": 50,
      "start": 44.2462,
      "duration": 0.0151,
      "velocity": 100,
      "chip": "ym2612"
    },
    {
      "channel": 0,
      "note": 41,
      "start": 44.2562,
      "duration": 0.0161,
      "velocity": 115,
      "chip": "ym2612"
    },
    {
      "channel": 5,
      "note": 83,
      "start": 44.2573,
      "duration": 0.0161,
      "velocity": 89,
      "chip": "ym2612"
    },
    {
      "channel": 3,
      "note": 83,
      "start": 44.2585,
      "duration": 0.0161,
      "velocity": 89,
      "chip": "ym2612"
    },
    {
      "channel": 2,
      "note": 76,
      "start": 44.2597,
      "duration": 0.0161,
      "velocity": 105,
      "chip": "ym2612"
    },
    {
      "channel": 4,
      "note": 50,
      "start": 44.2613,
      "duration": 0.0158,
      "velocity": 100,
      "chip": "ym2612"
    },
    {
      "channel": 0,
      "note": 42,
      "start": 44.2723,
      "duration": 0.0208,
      "velocity": 115,
      "chip": "ym2612"
    },
    {
      "channel": 5,
      "note": 83,
      "start": 44.2734,
      "duration": 0.0214,
      "velocity": 89,
      "chip": "ym2612"
    },
    {
      "channel": 3,
      "note": 83,
      "start": 44.2746,
      "duration": 0.0214,
      "velocity": 89,
      "chip": "ym2612"
    },
    {
      "channel": 2,
      "note": 76,
      "start": 44.2758,
      "duration": 0.0214,
      "velocity": 105,
      "chip": "ym2612"
    },
    {
      "channel": 4,
      "note": 50,
      "start": 44.2771,
      "duration": 0.0215,
      "velocity": 100,
      "chip": "ym2612"
    },
    {
      "channel": 1,
      "note": 72,
      "start": 44.2896,
      "duration": 0.0144,
      "velocity": 127,
      "chip": "ym2612"
    },
    {
      "channel": 0,
      "note": 36,
      "start": 44.2932,
      "duration": 0.0126,
      "velocity": 115,
      "chip": "ym2612"
    },
    {
      "channel": 5,
      "note": 83,
      "start": 44.2948,
      "duration": 0.0121,
      "velocity": 89,
      "chip": "ym2612"
    },
    {
      "channel": 3,
      "note": 83,
      "start": 44.296,
      "duration": 0.0121,
      "velocity": 89,
      "chip": "ym2612"
    },
    {
      "channel": 2,
      "note": 76,
      "start": 44.2972,
      "duration": 0.012,
      "velocity": 105,
      "chip": "ym2612"
    },
    {
      "channel": 4,
      "note": 55,
      "start": 44.2987,
      "duration": 0.012,
      "velocity": 100,
      "chip": "ym2612"
    },
    {
      "channel": 1,
      "note": 72,
      "start": 44.304,
      "duration": 0.016,
      "velocity": 127,
      "chip": "ym2612"
    },
    {
      "channel": 0,
      "note": 36,
      "start": 44.3057,
      "duration": 0.016,
      "velocity": 115,
      "chip": "ym2612"
    },
    {
      "channel": 5,
      "note": 83,
      "start": 44.3069,
      "duration": 0.016,
      "velocity": 89,
      "chip": "ym2612"
    },
    {
      "channel": 3,
      "note": 83,
      "start": 44.3081,
      "duration": 0.016,
      "velocity": 89,
      "chip": "ym2612"
    },
    {
      "channel": 2,
      "note": 76,
      "start": 44.3093,
      "duration": 0.016,
      "velocity": 105,
      "chip": "ym2612"
    },
    {
      "channel": 4,
      "note": 55,
      "start": 44.3106,
      "duration": 0.0157,
      "velocity": 100,
      "chip": "ym2612"
    },
    {
      "channel": 1,
      "note": 72,
      "start": 44.32,
      "duration": 0.0161,
      "velocity": 127,
      "chip": "ym2612"
    },
    {
      "channel": 0,
      "note": 37,
      "start": 44.3217,
      "duration": 0.0161,
      "velocity": 115,
      "chip": "ym2612"
    },
    {
      "channel": 5,
      "note": 83,
      "start": 44.3229,
      "duration": 0.0161,
      "velocity": 89,
      "chip": "ym2612"
    },
    {
      "channel": 3,
      "note": 83,
      "start": 44.3241,
      "duration": 0.0161,
      "velocity": 89,
      "chip": "ym2612"
    },
    {
      "channel": 2,
      "note": 76,
      "start": 44.3252,
      "duration": 0.0161,
      "velocity": 105,
      "chip": "ym2612"
    },
    {
      "channel": 4,
      "note": 55,
      "start": 44.3263,
      "duration": 0.0161,
      "velocity": 100,
      "chip": "ym2612"
    },
    {
      "channel": 1,
      "note": 72,
      "start": 44.3361,
      "duration": 0.0162,
      "velocity": 127,
      "chip": "ym2612"
    },
    {
      "channel": 0,
      "note": 37,
      "start": 44.3378,
      "duration": 0.0161,
      "velocity": 115,
      "chip": "ym2612"
    },
    {
      "channel": 5,
      "note": 83,
      "start": 44.339,
      "duration": 0.0161,
      "velocity": 89,
      "chip": "ym2612"
    },
    {
      "channel": 3,
      "note": 83,
      "start": 44.3402,
      "duration": 0.0161,
      "velocity": 89,
      "chip": "ym2612"
    },
    {
      "channel": 2,
      "note": 76,
      "start": 44.3413,
      "duration": 0.0161,
      "velocity": 105,
      "chip": "ym2612"
    },
    {
      "channel": 4,
      "note": 55,
      "start": 44.3424,
      "duration": 0.0161,
      "velocity": 100,
      "chip": "ym2612"
    },
    {
      "channel": 1,
      "note": 72,
      "start": 44.3522,
      "duration": 0.0161,
      "velocity": 127,
      "chip": "ym2612"
    },
    {
      "channel": 0,
      "note": 38,
      "start": 44.3539,
      "duration": 0.0161,
      "velocity": 115,
      "chip": "ym2612"
    },
    {
      "channel": 5,
      "note": 83,
      "start": 44.3551,
      "duration": 0.0161,
      "velocity": 89,
      "chip": "ym2612"
    },
    {
      "channel": 3,
      "note": 83,
      "start": 44.3563,
      "duration": 0.0161,
      "velocity": 89,
      "chip": "ym2612"
    },
    {
      "channel": 4,
      "note": 55,
      "start": 44.3586,
      "duration": 0.016,
      "velocity": 100,
      "chip": "ym2612"
    },
    {
      "channel": 1,
      "note": 72,
      "start": 44.3683,
      "duration": 0.0161,
      "velocity": 127,
      "chip": "ym2612"
    },
    {
      "channel": 0,
      "note": 38,
      "start": 44.37,
      "duration": 0.0161,
      "velocity": 115,
      "chip": "ym2612"
    },
    {
      "channel": 5,
      "note": 83,
      "start": 44.3712,
      "duration": 0.0161,
      "velocity": 89,
      "chip": "ym2612"
    },
    {
      "channel": 3,
      "note": 83,
      "start": 44.3723,
      "duration": 0.0161,
      "velocity": 89,
      "chip": "ym2612"
    },
    {
      "channel": 4,
      "note": 55,
      "start": 44.3746,
      "duration": 0.0161,
      "velocity": 100,
      "chip": "ym2612"
    },
    {
      "channel": 1,
      "note": 72,
      "start": 44.3844,
      "duration": 0.0178,
      "velocity": 127,
      "chip": "ym2612"
    },
    {
      "channel": 0,
      "note": 39,
      "start": 44.3861,
      "duration": 0.0197,
      "velocity": 115,
      "chip": "ym2612"
    },
    {
      "channel": 5,
      "note": 83,
      "start": 44.3873,
      "duration": 0.0197,
      "velocity": 89,
      "chip": "ym2612"
    },
    {
      "channel": 3,
      "note": 83,
      "start": 44.3884,
      "duration": 0.0197,
      "velocity": 89,
      "chip": "ym2612"
    },
    {
      "channel": 4,
      "note": 55,
      "start": 44.3907,
      "duration": 0.0209,
      "velocity": 100,
      "chip": "ym2612"
    },
    {
      "channel": 1,
      "note": 72,
      "start": 44.4023,
      "duration": 0.0144,
      "velocity": 127,
      "chip": "ym2612"
    },
    {
      "channel": 0,
      "note": 36,
      "start": 44.4059,
      "duration": 0.0126,
      "velocity": 115,
      "chip": "ym2612"
    },
    {
      "channel": 5,
      "note": 83,
      "start": 44.407,
      "duration": 0.0126,
      "velocity": 89,
      "chip": "ym2612"
    },
    {
      "channel": 3,
      "note": 83,
      "start": 44.4082,
      "duration": 0.0126,
      "velocity": 89,
      "chip": "ym2612"
    },
    {
      "channel": 2,
      "note": 76,
      "start": 44.4097,
      "duration": 0.0123,
      "velocity": 105,
      "chip": "ym2612"
    },
    {
      "channel": 4,
      "note": 50,
      "start": 44.4117,
      "duration": 0.0115,
      "velocity": 100,
      "chip": "ym2612"
    },
    {
      "channel": 1,
      "note": 72,
      "start": 44.4167,
      "duration": 0.016,
      "velocity": 127,
      "chip": "ym2612"
    },
    {
      "channel": 0,
      "note": 36,
      "start": 44.4185,
      "duration": 0.016,
      "velocity": 115,
      "chip": "ym2612"
    },
    {
      "channel": 5,
      "note": 83,
      "start": 44.4196,
      "duration": 0.016,
      "velocity": 89,
      "chip": "ym2612"
    },
    {
      "channel": 3,
      "note": 83,
      "start": 44.4207,
      "duration": 0.016,
      "velocity": 89,
      "chip": "ym2612"
    },
    {
      "channel": 2,
      "note": 76,
      "start": 44.422,
      "duration": 0.0159,
      "velocity": 105,
      "chip": "ym2612"
    },
    {
      "channel": 4,
      "note": 50,
      "start": 44.4232,
      "duration": 0.0158,
      "velocity": 100,
      "chip": "ym2612"
    },
    {
      "channel": 1,
      "note": 72,
      "start": 44.4327,
      "duration": 0.0161,
      "velocity": 127,
      "chip": "ym2612"
    },
    {
      "channel": 0,
      "note": 37,
      "start": 44.4344,
      "duration": 0.0161,
      "velocity": 115,
      "chip": "ym2612"
    },
    {
      "channel": 5,
      "note": 83,
      "start": 44.4356,
      "duration": 0.0161,
      "velocity": 89,
      "chip": "ym2612"
    },
    {
      "channel": 3,
      "note": 83,
      "start": 44.4368,
      "duration": 0.0161,
      "velocity": 89,
      "chip": "ym2612"
    },
    {
      "channel": 2,
      "note": 76,
      "start": 44.4379,
      "duration": 0.0161,
      "velocity": 105,
      "chip": "ym2612"
    },
    {
      "channel": 4,
      "note": 50,
      "start": 44.4391,
      "duration": 0.0161,
      "velocity": 100,
      "chip": "ym2612"
    },
    {
      "channel": 1,
      "note": 72,
      "start": 44.4488,
      "duration": 0.0161,
      "velocity": 127,
      "chip": "ym2612"
    },
    {
      "channel": 0,
      "note": 37,
      "start": 44.4505,
      "duration": 0.0161,
      "velocity": 115,
      "chip": "ym2612"
    },
    {
      "channel": 5,
      "note": 83,
      "start": 44.4517,
      "duration": 0.0161,
      "velocity": 89,
      "chip": "ym2612"
    },
    {
      "channel": 3,
      "note": 83,
      "start": 44.4529,
      "duration": 0.0161,
      "velocity": 89,
      "chip": "ym2612"
    },
    {
      "channel": 2,
      "note": 76,
      "start": 44.454,
      "duration": 0.0161,
      "velocity": 105,
      "chip": "ym2612"
    },
    {
      "channel": 4,
      "note": 50,
      "start": 44.4552,
      "duration": 0.0161,
      "velocity": 100,
      "chip": "ym2612"
    },
    {
      "channel": 1,
      "note": 72,
      "start": 44.4649,
      "duration": 0.0161,
      "velocity": 127,
      "chip": "ym2612"
    },
    {
      "channel": 0,
      "note": 38,
      "start": 44.4666,
      "duration": 0.0161,
      "velocity": 115,
      "chip": "ym2612"
    },
    {
      "channel": 5,
      "note": 83,
      "start": 44.4678,
      "duration": 0.0161,
      "velocity": 89,
      "chip": "ym2612"
    },
    {
      "channel": 3,
      "note": 83,
      "start": 44.469,
      "duration": 0.0161,
      "velocity": 89,
      "chip": "ym2612"
    },
    {
      "channel": 4,
      "note": 50,
      "start": 44.4713,
      "duration": 0.0161,
      "velocity": 100,
      "chip": "ym2612"
    },
    {
      "channel": 1,
      "note": 72,
      "start": 44.481,
      "duration": 0.0161,
      "velocity": 127,
      "chip": "ym2612"
    },
    {
      "channel": 0,
      "note": 38,
      "start": 44.4827,
      "duration": 0.0161,
      "velocity": 115,
      "chip": "ym2612"
    },
    {
      "channel": 5,
      "note": 83,
      "start": 44.4839,
      "duration": 0.0162,
      "velocity": 89,
      "chip": "ym2612"
    },
    {
      "channel": 3,
      "note": 83,
      "start": 44.4851,
      "duration": 0.0161,
      "velocity": 89,
      "chip": "ym2612"
    },
    {
      "channel": 4,
      "note": 50,
      "start": 44.4873,
      "duration": 0.0161,
      "velocity": 100,
      "chip": "ym2612"
    },
    {
      "channel": 1,
      "note": 72,
      "start": 44.4971,
      "duration": 0.0161,
      "velocity": 127,
      "chip": "ym2612"
    },
    {
      "channel": 0,
      "note": 39,
      "start": 44.4988,
      "duration": 0.0161,
      "velocity": 115,
      "chip": "ym2612"
    },
    {
      "channel": 5,
      "note": 83,
      "start": 44.5,
      "duration": 0.0161,
      "velocity": 89,
      "chip": "ym2612"
    },
    {
      "channel": 3,
      "note": 83,
      "start": 44.5012,
      "duration": 0.0161,
      "velocity": 89,
      "chip": "ym2612"
    },
    {
      "channel": 4,
      "note": 50,
      "start": 44.5034,
      "duration": 0.0165,
      "velocity": 100,
      "chip": "ym2612"
    },
    {
      "channel": 1,
      "note": 72,
      "start": 44.5132,
      "duration": 0.0162,
      "velocity": 127,
      "chip": "ym2612"
    },
    {
      "channel": 0,
      "note": 39,
      "start": 44.5149,
      "duration": 0.0162,
      "velocity": 115,
      "chip": "ym2612"
    },
    {
      "channel": 5,
      "note": 83,
      "start": 44.5161,
      "duration": 0.0162,
      "velocity": 89,
      "chip": "ym2612"
    },
    {
      "channel": 3,
      "note": 83,
      "start": 44.5173,
      "duration": 0.0162,
      "velocity": 89,
      "chip": "ym2612"
    },
    {
      "channel": 2,
      "note": 76,
      "start": 44.5187,
      "duration": 0.0159,
      "velocity": 105,
      "chip": "ym2612"
    },
    {
      "channel": 4,
      "note": 50,
      "start": 44.5199,
      "duration": 0.0159,
      "velocity": 100,
      "chip": "ym2612"
    },
    {
      "channel": 1,
      "note": 72,
      "start": 44.5294,
      "duration": 0.0164,
      "velocity": 127,
      "chip": "ym2612"
    },
    {
      "channel": 0,
      "note": 40,
      "start": 44.5311,
      "duration": 0.0164,
      "velocity": 115,
      "chip": "ym2612"
    },
    {
      "channel": 5,
      "note": 83,
      "start": 44.5323,
      "duration": 0.0164,
      "velocity": 89,
      "chip": "ym2612"
    },
    {
      "channel": 3,
      "note": 83,
      "start": 44.5334,
      "duration": 0.0164,
      "velocity": 89,
      "chip": "ym2612"
    },
    {
      "channel": 2,
      "note": 76,
      "start": 44.5346,
      "duration": 0.0163,
      "velocity": 105,
      "chip": "ym2612"
    },
    {
      "channel": 4,
      "note": 50,
      "start": 44.5358,
      "duration": 0.0163,
      "velocity": 100,
      "chip": "ym2612"
    },
    {
      "channel": 1,
      "note": 72,
      "start": 44.5458,
      "duration": 0.0163,
      "velocity": 127,
      "chip": "ym2612"
    },
    {
      "channel": 0,
      "note": 40,
      "start": 44.5475,
      "duration": 0.0163,
      "velocity": 115,
      "chip": "ym2612"
    },
    {
      "channel": 5,
      "note": 83,
      "start": 44.5487,
      "duration": 0.0163,
      "velocity": 89,
      "chip": "ym2612"
    },
    {
      "channel": 3,
      "note": 83,
      "start": 44.5498,
      "duration": 0.0163,
      "velocity": 89,
      "chip": "ym2612"
    },
    {
      "channel": 2,
      "note": 76,
      "start": 44.551,
      "duration": 0.0163,
      "velocity": 105,
      "chip": "ym2612"
    },
    {
      "channel": 4,
      "note": 50,
      "start": 44.5522,
      "duration": 0.0163,
      "velocity": 100,
      "chip": "ym2612"
    },
    {
      "channel": 1,
      "note": 72,
      "start": 44.5621,
      "duration": 0.016,
      "velocity": 127,
      "chip": "ym2612"
    },
    {
      "channel": 0,
      "note": 40,
      "start": 44.5638,
      "duration": 0.0161,
      "velocity": 115,
      "chip": "ym2612"
    },
    {
      "channel": 5,
      "note": 83,
      "start": 44.565,
      "duration": 0.0161,
      "velocity": 89,
      "chip": "ym2612"
    },
    {
      "channel": 3,
      "note": 83,
      "start": 44.5662,
      "duration": 0.0161,
      "velocity": 89,
      "chip": "ym2612"
    },
    {
      "channel": 2,
      "note": 76,
      "start": 44.5673,
      "duration": 0.0161,
      "velocity": 105,
      "chip": "ym2612"
    },
    {
      "channel": 4,
      "note": 50,
      "start": 44.5685,
      "duration": 0.0161,
      "velocity": 100,
      "chip": "ym2612"
    },
    {
      "channel": 1,
      "note": 72,
      "start": 44.5781,
      "duration": 0.0158,
      "velocity": 127,
      "chip": "ym2612"
    },
    {
      "channel": 0,
      "note": 41,
      "start": 44.5799,
      "duration": 0.0162,
      "velocity": 115,
      "chip": "ym2612"
    },
    {
      "channel": 5,
      "note": 83,
      "start": 44.5811,
      "duration": 0.0161,
      "velocity": 89,
      "chip": "ym2612"
    },
    {
      "channel": 3,
      "note": 83,
      "start": 44.5823,
      "duration": 0.0161,
      "velocity": 89,
      "chip": "ym2612"
    },
    {
      "channel": 4,
      "note": 50,
      "start": 44.5846,
      "duration": 0.0161,
      "velocity": 100,
      "chip": "ym2612"
    },
    {
      "channel": 1,
      "note": 72,
      "start": 44.594,
      "duration": 0.0159,
      "velocity": 127,
      "chip": "ym2612"
    },
    {
      "channel": 0,
      "note": 41,
      "start": 44.5961,
      "duration": 0.0161,
      "velocity": 115,
      "chip": "ym2612"
    },
    {
      "channel": 5,
      "note": 83,
      "start": 44.5972,
      "duration": 0.0161,
      "velocity": 89,
      "chip": "ym2612"
    },
    {
      "channel": 3,
      "note": 83,
      "start": 44.5984,
      "duration": 0.0161,
      "velocity": 89,
      "chip": "ym2612"
    },
    {
      "channel": 4,
      "note": 50,
      "start": 44.6007,
      "duration": 0.0161,
      "velocity": 100,
      "chip": "ym2612"
    },
    {
      "channel": 1,
      "note": 72,
      "start": 44.6098,
      "duration": 0.0184,
      "velocity": 127,
      "chip": "ym2612"
    },
    {
      "channel": 0,
      "note": 42,
      "start": 44.6122,
      "duration": 0.0196,
      "velocity": 115,
      "chip": "ym2612"
    },
    {
      "channel": 5,
      "note": 83,
      "start": 44.6133,
      "duration": 0.0197,
      "velocity": 89,
      "chip": "ym2612"
    },
    {
      "channel": 3,
      "note": 83,
      "start": 44.6145,
      "duration": 0.0197,
      "velocity": 89,
      "chip": "ym2612"
    },
    {
      "channel": 4,
      "note": 50,
      "start": 44.6168,
      "duration": 0.0204,
      "velocity": 100,
      "chip": "ym2612"
    },
    {
      "channel": 1,
      "note": 72,
      "start": 44.6283,
      "duration": 0.0139,
      "velocity": 127,
      "chip": "ym2612"
    },
    {
      "channel": 0,
      "note": 36,
      "start": 44.6319,
      "duration": 0.0125,
      "velocity": 115,
      "chip": "ym2612"
    },
    {
      "channel": 5,
      "note": 83,
      "start": 44.633,
      "duration": 0.0126,
      "velocity": 89,
      "chip": "ym2612"
    },
    {
      "channel": 3,
      "note": 83,
      "start": 44.6342,
      "duration": 0.0126,
      "velocity": 89,
      "chip": "ym2612"
    },
    {
      "channel": 2,
      "note": 76,
      "start": 44.6358,
      "duration": 0.0122,
      "velocity": 105,
      "chip": "ym2612"
    },
    {
      "channel": 4,
      "note": 55,
      "start": 44.6372,
      "duration": 0.0121,
      "velocity": 100,
      "chip": "ym2612"
    },
    {
      "channel": 1,
      "note": 72,
      "start": 44.6421,
      "duration": 0.016,
      "velocity": 127,
      "chip": "ym2612"
    },
    {
      "channel": 0,
      "note": 36,
      "start": 44.6444,
      "duration": 0.0154,
      "velocity": 115,
      "chip": "ym2612"
    },
    {
      "channel": 5,
      "note": 83,
      "start": 44.6456,
      "duration": 0.0159,
      "velocity": 89,
      "chip": "ym2612"
    },
    {
      "channel": 3,
      "note": 83,
      "start": 44.6468,
      "duration": 0.016,
      "velocity": 89,
      "chip": "ym2612"
    },
    {
      "channel": 2,
      "note": 76,
      "start": 44.648,
      "duration": 0.0159,
      "velocity": 105,
      "chip": "ym2612"
    },
    {
      "channel": 4,
      "note": 55,
      "start": 44.6493,
      "duration": 0.0158,
      "velocity": 100,
      "chip": "ym2612"
    },
    {
      "channel": 1,
      "note": 72,
      "start": 44.6582,
      "duration": 0.0161,
      "velocity": 127,
      "chip": "ym2612"
    },
    {
      "channel": 0,
      "note": 37,
      "start": 44.6598,
      "duration": 0.0161,
      "velocity": 115,
      "chip": "ym2612"
    },
    {
      "channel": 5,
      "note": 83,
      "start": 44.6615,
      "duration": 0.0158,
      "velocity": 89,
      "chip": "ym2612"
    },
    {
      "channel": 3,
      "note": 83,
      "start": 44.6627,
      "duration": 0.0161,
      "velocity": 89,
      "chip": "ym2612"
    },
    {
      "channel": 2,
      "note": 76,
      "start": 44.6639,
      "duration": 0.0161,
      "velocity": 105,
      "chip": "ym2612"
    },
    {
      "channel": 4,
      "note": 55,
      "start": 44.665,
      "duration": 0.0161,
      "velocity": 100,
      "chip": "ym2612"
    },
    {
      "channel": 1,
      "note": 72,
      "start": 44.6743,
      "duration": 0.0161,
      "velocity": 127,
      "chip": "ym2612"
    },
    {
      "channel": 0,
      "note": 37,
      "start": 44.6759,
      "duration": 0.0161,
      "velocity": 115,
      "chip": "ym2612"
    },
    {
      "channel": 5,
      "note": 83,
      "start": 44.6773,
      "duration": 0.0159,
      "velocity": 89,
      "chip": "ym2612"
    },
    {
      "channel": 3,
      "note": 83,
      "start": 44.6788,
      "duration": 0.0161,
      "velocity": 89,
      "chip": "ym2612"
    },
    {
      "channel": 2,
      "note": 76,
      "start": 44.68,
      "duration": 0.0162,
      "velocity": 105,
      "chip": "ym2612"
    },
    {
      "channel": 4,
      "note": 55,
      "start": 44.6812,
      "duration": 0.0161,
      "velocity": 100,
      "chip": "ym2612"
    },
    {
      "channel": 1,
      "note": 72,
      "start": 44.6903,
      "duration": 0.0161,
      "velocity": 127,
      "chip": "ym2612"
    },
    {
      "channel": 0,
      "note": 38,
      "start": 44.6921,
      "duration": 0.0161,
      "velocity": 115,
      "chip": "ym2612"
    },
    {
      "channel": 5,
      "note": 83,
      "start": 44.6932,
      "duration": 0.0161,
      "velocity": 89,
      "chip": "ym2612"
    },
    {
      "channel": 3,
      "note": 83,
      "start": 44.6949,
      "duration": 0.0161,
      "velocity": 89,
      "chip": "ym2612"
    },
    {
      "channel": 2,
      "note": 76,
      "start": 44.6961,
      "duration": 0.0161,
      "velocity": 105,
      "chip": "ym2612"
    },
    {
      "channel": 4,
      "note": 55,
      "start": 44.6973,
      "duration": 0.0161,
      "velocity": 100,
      "chip": "ym2612"
    },
    {
      "channel": 1,
      "note": 72,
      "start": 44.7064,
      "duration": 0.0161,
      "velocity": 127,
      "chip": "ym2612"
    },
    {
      "channel": 0,
      "note": 38,
      "start": 44.7082,
      "duration": 0.0161,
      "velocity": 115,
      "chip": "ym2612"
    },
    {
      "channel": 5,
      "note": 83,
      "start": 44.7093,
      "duration": 0.0161,
      "velocity": 89,
      "chip": "ym2612"
    },
    {
      "channel": 3,
      "note": 83,
      "start": 44.711,
      "duration": 0.0156,
      "velocity": 89,
      "chip": "ym2612"
    },
    {
      "channel": 2,
      "note": 76,
      "start": 44.7122,
      "duration": 0.0161,
      "velocity": 105,
      "chip": "ym2612"
    },
    {
      "channel": 4,
      "note": 55,
      "start": 44.7134,
      "duration": 0.0161,
      "velocity": 100,
      "chip": "ym2612"
    },
    {
      "channel": 1,
      "note": 72,
      "start": 44.7225,
      "duration": 0.0161,
      "velocity": 127,
      "chip": "ym2612"
    },
    {
      "channel": 0,
      "note": 39,
      "start": 44.7243,
      "duration": 0.0161,
      "velocity": 115,
      "chip": "ym2612"
    },
    {
      "channel": 5,
      "note": 83,
      "start": 44.7254,
      "duration": 0.0161,
      "velocity": 89,
      "chip": "ym2612"
    },
    {
      "channel": 3,
      "note": 83,
      "start": 44.7266,
      "duration": 0.0161,
      "velocity": 89,
      "chip": "ym2612"
    },
    {
      "channel": 2,
      "note": 76,
      "start": 44.7283,
      "duration": 0.016,
      "velocity": 105,
      "chip": "ym2612"
    },
    {
      "channel": 4,
      "note": 55,
      "start": 44.7295,
      "duration": 0.0161,
      "velocity": 100,
      "chip": "ym2612"
    },
    {
      "channel": 1,
      "note": 72,
      "start": 44.7386,
      "duration": 0.0161,
      "velocity": 127,
      "chip": "ym2612"
    },
    {
      "channel": 0,
      "note": 39,
      "start": 44.7403,
      "duration": 0.0161,
      "velocity": 115,
      "chip": "ym2612"
    },
    {
      "channel": 5,
      "note": 83,
      "start": 44.7415,
      "duration": 0.0161,
      "velocity": 89,
      "chip": "ym2612"
    },
    {
      "channel": 3,
      "note": 83,
      "start": 44.7427,
      "duration": 0.0161,
      "velocity": 89,
      "chip": "ym2612"
    },
    {
      "channel": 2,
      "note": 76,
      "start": 44.7444,
      "duration": 0.0156,
      "velocity": 105,
      "chip": "ym2612"
    },
    {
      "channel": 4,
      "note": 55,
      "start": 44.7456,
      "duration": 0.0161,
      "velocity": 100,
      "chip": "ym2612"
    },
    {
      "channel": 1,
      "note": 72,
      "start": 44.7547,
      "duration": 0.0161,
      "velocity": 127,
      "chip": "ym2612"
    },
    {
      "channel": 0,
      "note": 40,
      "start": 44.7564,
      "duration": 0.0161,
      "velocity": 115,
      "chip": "ym2612"
    },
    {
      "channel": 5,
      "note": 83,
      "start": 44.7576,
      "duration": 0.0161,
      "velocity": 89,
      "chip": "ym2612"
    },
    {
      "channel": 3,
      "note": 83,
      "start": 44.7588,
      "duration": 0.0161,
      "velocity": 89,
      "chip": "ym2612"
    },
    {
      "channel": 2,
      "note": 76,
      "start": 44.7599,
      "duration": 0.0161,
      "velocity": 105,
      "chip": "ym2612"
    },
    {
      "channel": 4,
      "note": 55,
      "start": 44.7617,
      "duration": 0.016,
      "velocity": 100,
      "chip": "ym2612"
    },
    {
      "channel": 1,
      "note": 72,
      "start": 44.7708,
      "duration": 0.0162,
      "velocity": 127,
      "chip": "ym2612"
    },
    {
      "channel": 0,
      "note": 40,
      "start": 44.7725,
      "duration": 0.0161,
      "velocity": 115,
      "chip": "ym2612"
    },
    {
      "channel": 5,
      "note": 83,
      "start": 44.7737,
      "duration": 0.0162,
      "velocity": 89,
      "chip": "ym2612"
    },
    {
      "channel": 3,
      "note": 83,
      "start": 44.7749,
      "duration": 0.0161,
      "velocity": 89,
      "chip": "ym2612"
    },
    {
      "channel": 2,
      "note": 76,
      "start": 44.776,
      "duration": 0.0161,
      "velocity": 105,
      "chip": "ym2612"
    },
    {
      "channel": 4,
      "note": 55,
      "start": 44.7778,
      "duration": 0.0155,
      "velocity": 100,
      "chip": "ym2612"
    },
    {
      "channel": 1,
      "note": 72,
      "start": 44.787,
      "duration": 0.0161,
      "velocity": 127,
      "chip": "ym2612"
    },
    {
      "channel": 0,
      "note": 40,
      "start": 44.7886,
      "duration": 0.0161,
      "velocity": 115,
      "chip": "ym2612"
    },
    {
      "channel": 5,
      "note": 83,
      "start": 44.7898,
      "duration": 0.0161,
      "velocity": 89,
      "chip": "ym2612"
    },
    {
      "channel": 3,
      "note": 83,
      "start": 44.791,
      "duration": 0.0161,
      "velocity": 89,
      "chip": "ym2612"
    },
    {
      "channel": 2,
      "note": 76,
      "start": 44.7921,
      "duration": 0.0161,
      "velocity": 105,
      "chip": "ym2612"
    },
    {
      "channel": 4,
      "note": 55,
      "start": 44.7933,
      "duration": 0.0162,
      "velocity": 100,
      "chip": "ym2612"
    },
    {
      "channel": 1,
      "note": 72,
      "start": 44.8031,
      "duration": 0.0161,
      "velocity": 127,
      "chip": "ym2612"
    },
    {
      "channel": 0,
      "note": 41,
      "start": 44.8047,
      "duration": 0.0161,
      "velocity": 115,
      "chip": "ym2612"
    },
    {
      "channel": 5,
      "note": 83,
      "start": 44.8059,
      "duration": 0.0161,
      "velocity": 89,
      "chip": "ym2612"
    },
    {
      "channel": 3,
      "note": 83,
      "start": 44.8071,
      "duration": 0.0161,
      "velocity": 89,
      "chip": "ym2612"
    },
    {
      "channel": 4,
      "note": 55,
      "start": 44.8094,
      "duration": 0.016,
      "velocity": 100,
      "chip": "ym2612"
    },
    {
      "channel": 1,
      "note": 72,
      "start": 44.8192,
      "duration": 0.0161,
      "velocity": 127,
      "chip": "ym2612"
    },
    {
      "channel": 0,
      "note": 41,
      "start": 44.8208,
      "duration": 0.0162,
      "velocity": 115,
      "chip": "ym2612"
    },
    {
      "channel": 5,
      "note": 83,
      "start": 44.822,
      "duration": 0.0161,
      "velocity": 89,
      "chip": "ym2612"
    },
    {
      "channel": 3,
      "note": 83,
      "start": 44.8232,
      "duration": 0.0161,
      "velocity": 89,
      "chip": "ym2612"
    },
    {
      "channel": 4,
      "note": 55,
      "start": 44.8255,
      "duration": 0.0161,
      "velocity": 100,
      "chip": "ym2612"
    },
    {
      "channel": 1,
      "note": 72,
      "start": 44.8353,
      "duration": 0.0179,
      "velocity": 127,
      "chip": "ym2612"
    },
    {
      "channel": 0,
      "note": 42,
      "start": 44.837,
      "duration": 0.0196,
      "velocity": 124,
      "chip": "ym2612"
    },
    {
      "channel": 5,
      "note": 83,
      "start": 44.8381,
      "duration": 0.0197,
      "velocity": 89,
      "chip": "ym2612"
    },
    {
      "channel": 3,
      "note": 83,
      "start": 44.8393,
      "duration": 0.0198,
      "velocity": 89,
      "chip": "ym2612"
    },
    {
      "channel": 4,
      "note": 55,
      "start": 44.8416,
      "duration": 0.021,
      "velocity": 100,
      "chip": "ym2612"
    },
    {
      "channel": 1,
      "note": 79,
      "start": 44.8531,
      "duration": 0.0144,
      "velocity": 127,
      "chip": "ym2612"
    },
    {
      "channel": 0,
      "note": 84,
      "start": 44.8567,
      "duration": 0.0126,
      "velocity": 124,
      "chip": "ym2612"
    },
    {
      "channel": 5,
      "note": 83,
      "start": 44.8578,
      "duration": 0.0126,
      "velocity": 89,
      "chip": "ym2612"
    },
    {
      "channel": 3,
      "note": 83,
      "start": 44.859,
      "duration": 0.0125,
      "velocity": 89,
      "chip": "ym2612"
    },
    {
      "channel": 2,
      "note": 76,
      "start": 44.861,
      "duration": 0.0118,
      "velocity": 105,
      "chip": "ym2612"
    },
    {
      "channel": 4,
      "note": 50,
      "start": 44.8625,
      "duration": 0.0115,
      "velocity": 100,
      "chip": "ym2612"
    },
    {
      "channel": 1,
      "note": 79,
      "start": 44.8675,
      "duration": 0.016,
      "velocity": 127,
      "chip": "ym2612"
    },
    {
      "channel": 0,
      "note": 82,
      "start": 44.8693,
      "duration": 0.016,
      "velocity": 124,
      "chip": "ym2612"
    },
    {
      "channel": 5,
      "note": 83,
      "start": 44.8704,
      "duration": 0.016,
      "velocity": 89,
      "chip": "ym2612"
    },
    {
      "channel": 3,
      "note": 83,
      "start": 44.8716,
      "duration": 0.016,
      "velocity": 89,
      "chip": "ym2612"
    },
    {
      "channel": 2,
      "note": 76,
      "start": 44.8728,
      "duration": 0.016,
      "velocity": 105,
      "chip": "ym2612"
    },
    {
      "channel": 4,
      "note": 50,
      "start": 44.8741,
      "duration": 0.0159,
      "velocity": 100,
      "chip": "ym2612"
    },
    {
      "channel": 1,
      "note": 79,
      "start": 44.8835,
      "duration": 0.0161,
      "velocity": 127,
      "chip": "ym2612"
    },
    {
      "channel": 0,
      "note": 80,
      "start": 44.8853,
      "duration": 0.0161,
      "velocity": 124,
      "chip": "ym2612"
    },
    {
      "channel": 5,
      "note": 83,
      "start": 44.8864,
      "duration": 0.0161,
      "velocity": 89,
      "chip": "ym2612"
    },
    {
      "channel": 3,
      "note": 83,
      "start": 44.8876,
      "duration": 0.0161,
      "velocity": 89,
      "chip": "ym2612"
    },
    {
      "channel": 2,
      "note": 76,
      "start": 44.8888,
      "duration": 0.0161,
      "velocity": 105,
      "chip": "ym2612"
    },
    {
      "channel": 4,
      "note": 50,
      "start": 44.8899,
      "duration": 0.0161,
      "velocity": 100,
      "chip": "ym2612"
    },
    {
      "channel": 1,
      "note": 79,
      "start": 44.8996,
      "duration": 0.0161,
      "velocity": 127,
      "chip": "ym2612"
    },
    {
      "channel": 0,
      "note": 77,
      "start": 44.9014,
      "duration": 0.0161,
      "velocity": 124,
      "chip": "ym2612"
    },
    {
      "channel": 5,
      "note": 83,
      "start": 44.9025,
      "duration": 0.0161,
      "velocity": 89,
      "chip": "ym2612"
    },
    {
      "channel": 3,
      "note": 83,
      "start": 44.9037,
      "duration": 0.0161,
      "velocity": 89,
      "chip": "ym2612"
    },
    {
      "channel": 2,
      "note": 76,
      "start": 44.9049,
      "duration": 0.0161,
      "velocity": 105,
      "chip": "ym2612"
    },
    {
      "channel": 4,
      "note": 50,
      "start": 44.906,
      "duration": 0.0161,
      "velocity": 100,
      "chip": "ym2612"
    },
    {
      "channel": 1,
      "note": 79,
      "start": 44.9157,
      "duration": 0.0161,
      "velocity": 127,
      "chip": "ym2612"
    },
    {
      "channel": 0,
      "note": 75,
      "start": 44.9174,
      "duration": 0.0162,
      "velocity": 124,
      "chip": "ym2612"
    },
    {
      "channel": 5,
      "note": 83,
      "start": 44.9186,
      "duration": 0.0161,
      "velocity": 89,
      "chip": "ym2612"
    },
    {
      "channel": 3,
      "note": 83,
      "start": 44.9198,
      "duration": 0.0161,
      "velocity": 89,
      "chip": "ym2612"
    },
    {
      "channel": 4,
      "note": 50,
      "start": 44.9221,
      "duration": 0.0161,
      "velocity": 100,
      "chip": "ym2612"
    },
    {
      "channel": 1,
      "note": 79,
      "start": 44.9319,
      "duration": 0.0161,
      "velocity": 127,
      "chip": "ym2612"
    },
    {
      "channel": 0,
      "note": 72,
      "start": 44.9336,
      "duration": 0.016,
      "velocity": 124,
      "chip": "ym2612"
    },
    {
      "channel": 5,
      "note": 83,
      "start": 44.9347,
      "duration": 0.0161,
      "velocity": 89,
      "chip": "ym2612"
    },
    {
      "channel": 3,
      "note": 83,
      "start": 44.9359,
      "duration": 0.0161,
      "velocity": 89,
      "chip": "ym2612"
    },
    {
      "channel": 4,
      "note": 50,
      "start": 44.9382,
      "duration": 0.0161,
      "velocity": 100,
      "chip": "ym2612"
    },
    {
      "channel": 1,
      "note": 79,
      "start": 44.948,
      "duration": 0.0161,
      "velocity": 127,
      "chip": "ym2612"
    },
    {
      "channel": 0,
      "note": 70,
      "start": 44.9496,
      "duration": 0.0161,
      "velocity": 124,
      "chip": "ym2612"
    },
    {
      "channel": 5,
      "note": 83,
      "start": 44.9508,
      "duration": 0.0161,
      "velocity": 89,
      "chip": "ym2612"
    },
    {
      "channel": 3,
      "note": 83,
      "start": 44.952,
      "duration": 0.0161,
      "velocity": 89,
      "chip": "ym2612"
    },
    {
      "channel": 4,
      "note": 50,
      "start": 44.9543,
      "duration": 0.0165,
      "velocity": 100,
      "chip": "ym2612"
    },
    {
      "channel": 1,
      "note": 79,
      "start": 44.9641,
      "duration": 0.0161,
      "velocity": 127,
      "chip": "ym2612"
    },
    {
      "channel": 0,
      "note": 68,
      "start": 44.9657,
      "duration": 0.0161,
      "velocity": 124,
      "chip": "ym2612"
    },
    {
      "channel": 5,
      "note": 83,
      "start": 44.9669,
      "duration": 0.0161,
      "velocity": 89,
      "chip": "ym2612"
    },
    {
      "channel": 3,
      "note": 83,
      "start": 44.9681,
      "duration": 0.0161,
      "velocity": 89,
      "chip": "ym2612"
    },
    {
      "channel": 2,
      "note": 76,
      "start": 44.9695,
      "duration": 0.0158,
      "velocity": 105,
      "chip": "ym2612"
    },
    {
      "channel": 4,
      "note": 50,
      "start": 44.9707,
      "duration": 0.0159,
      "velocity": 100,
      "chip": "ym2612"
    },
    {
      "channel": 1,
      "note": 79,
      "start": 44.9802,
      "duration": 0.0162,
      "velocity": 127,
      "chip": "ym2612"
    },
    {
      "channel": 0,
      "note": 65,
      "start": 44.9819,
      "duration": 0.0162,
      "velocity": 124,
      "chip": "ym2612"
    },
    {
      "channel": 5,
      "note": 83,
      "start": 44.983,
      "duration": 0.0161,
      "velocity": 89,
      "chip": "ym2612"
    },
    {
      "channel": 3,
      "note": 83,
      "start": 44.9842,
      "duration": 0.0162,
      "velocity": 89,
      "chip": "ym2612"
    },
    {
      "channel": 2,
      "note": 76,
      "start": 44.9854,
      "duration": 0.0161,
      "velocity": 105,
      "chip": "ym2612"
    },
    {
      "channel": 4,
      "note": 50,
      "start": 44.9866,
      "duration": 0.0161,
      "velocity": 100,
      "chip": "ym2612"
    },
    {
      "channel": 1,
      "note": 79,
      "start": 44.9963,
      "duration": 0.0161,
      "velocity": 127,
      "chip": "ym2612"
    },
    {
      "channel": 0,
      "note": 63,
      "start": 44.998,
      "duration": 0.0153,
      "velocity": 1,
      "chip": "ym2612"
    },
    {
      "channel": 5,
      "note": 83,
      "start": 44.9992,
      "duration": 0.0153,
      "velocity": 89,
      "chip": "ym2612"
    },
    {
      "channel": 3,
      "note": 83,
      "start": 45.0003,
      "duration": 0.0153,
      "velocity": 89,
      "chip": "ym2612"
    },
    {
      "channel": 2,
      "note": 76,
      "start": 45.0015,
      "duration": 0.0153,
      "velocity": 105,
      "chip": "ym2612"
    },
    {
      "channel": 4,
      "note": 50,
      "start": 45.0027,
      "duration": 0.0153,
      "velocity": 100,
      "chip": "ym2612"
    },
    {
      "channel": 1,
      "note": 79,
      "start": 45.0124,
      "duration": 0.0164,
      "velocity": 127,
      "chip": "ym2612"
    },
    {
      "channel": 5,
      "note": 83,
      "start": 45.0145,
      "duration": 0.0156,
      "velocity": 89,
      "chip": "ym2612"
    },
    {
      "channel": 3,
      "note": 83,
      "start": 45.0157,
      "duration": 0.0155,
      "velocity": 89,
      "chip": "ym2612"
    },
    {
      "channel": 2,
      "note": 76,
      "start": 45.0168,
      "duration": 0.0156,
      "velocity": 105,
      "chip": "ym2612"
    },
    {
      "channel": 4,
      "note": 50,
      "start": 45.018,
      "duration": 0.0156,
      "velocity": 100,
      "chip": "ym2612"
    },
    {
      "channel": 1,
      "note": 79,
      "start": 45.0288,
      "duration": 0.0163,
      "velocity": 127,
      "chip": "ym2612"
    },
    {
      "channel": 5,
      "note": 83,
      "start": 45.03,
      "duration": 0.0163,
      "velocity": 89,
      "chip": "ym2612"
    },
    {
      "channel": 3,
      "note": 83,
      "start": 45.0312,
      "duration": 0.0163,
      "velocity": 89,
      "chip": "ym2612"
    },
    {
      "channel": 4,
      "note": 50,
      "start": 45.0335,
      "duration": 0.0163,
      "velocity": 100,
      "chip": "ym2612"
    },
    {
      "channel": 1,
      "note": 79,
      "start": 45.0452,
      "duration": 0.016,
      "velocity": 127,
      "chip": "ym2612"
    },
    {
      "channel": 5,
      "note": 83,
      "start": 45.0463,
      "duration": 0.0161,
      "velocity": 89,
      "chip": "ym2612"
    },
    {
      "channel": 3,
      "note": 83,
      "start": 45.0475,
      "duration": 0.0161,
      "velocity": 89,
      "chip": "ym2612"
    },
    {
      "channel": 4,
      "note": 50,
      "start": 45.0498,
      "duration": 0.0161,
      "velocity": 100,
      "chip": "ym2612"
    },
    {
      "channel": 1,
      "note": 79,
      "start": 45.0612,
      "duration": 0.018,
      "velocity": 127,
      "chip": "ym2612"
    },
    {
      "channel": 5,
      "note": 83,
      "start": 45.0624,
      "duration": 0.0214,
      "velocity": 89,
      "chip": "ym2612"
    },
    {
      "channel": 3,
      "note": 83,
      "start": 45.0636,
      "duration": 0.0216,
      "velocity": 89,
      "chip": "ym2612"
    },
    {
      "channel": 4,
      "note": 50,
      "start": 45.0659,
      "duration": 0.0224,
      "velocity": 100,
      "chip": "ym2612"
    },
    {
      "channel": 1,
      "note": 79,
      "start": 45.0792,
      "duration": 0.0138,
      "velocity": 127,
      "chip": "ym2612"
    },
    {
      "channel": 0,
      "note": 36,
      "start": 45.0827,
      "duration": 0.0126,
      "velocity": 115,
      "chip": "ym2612"
    },
    {
      "channel": 5,
      "note": 83,
      "start": 45.0839,
      "duration": 0.0126,
      "velocity": 89,
      "chip": "ym2612"
    },
    {
      "channel": 3,
      "note": 83,
      "start": 45.0853,
      "duration": 0.0124,
      "velocity": 89,
      "chip": "ym2612"
    },
    {
      "channel": 2,
      "note": 76,
      "start": 45.0868,
      "duration": 0.0121,
      "velocity": 105,
      "chip": "ym2612"
    },
    {
      "channel": 4,
      "note": 57,
      "start": 45.0883,
      "duration": 0.0118,
      "velocity": 100,
      "chip": "ym2612"
    },
    {
      "channel": 1,
      "note": 79,
      "start": 45.0929,
      "duration": 0.016,
      "velocity": 127,
      "chip": "ym2612"
    },
    {
      "channel": 0,
      "note": 36,
      "start": 45.0953,
      "duration": 0.0159,
      "velocity": 115,
      "chip": "ym2612"
    },
    {
      "channel": 5,
      "note": 83,
      "start": 45.0965,
      "duration": 0.016,
      "velocity": 89,
      "chip": "ym2612"
    },
    {
      "channel": 3,
      "note": 83,
      "start": 45.0977,
      "duration": 0.0159,
      "velocity": 89,
      "chip": "ym2612"
    },
    {
      "channel": 2,
      "note": 76,
      "start": 45.0989,
      "duration": 0.0158,
      "velocity": 105,
      "chip": "ym2612"
    },
    {
      "channel": 4,
      "note": 57,
      "start": 45.1001,
      "duration": 0.0158,
      "velocity": 100,
      "chip": "ym2612"
    },
    {
      "channel": 1,
      "note": 79,
      "start": 45.109,
      "duration": 0.0161,
      "velocity": 127,
      "chip": "ym2612"
    },
    {
      "channel": 0,
      "note": 37,
      "start": 45.1112,
      "duration": 0.0156,
      "velocity": 115,
      "chip": "ym2612"
    },
    {
      "channel": 5,
      "note": 83,
      "start": 45.1124,
      "duration": 0.0161,
      "velocity": 89,
      "chip": "ym2612"
    },
    {
      "channel": 3,
      "note": 83,
      "start": 45.1136,
      "duration": 0.0161,
      "velocity": 89,
      "chip": "ym2612"
    },
    {
      "channel": 2,
      "note": 76,
      "start": 45.1147,
      "duration": 0.0161,
      "velocity": 105,
      "chip": "ym2612"
    },
    {
      "channel": 4,
      "note": 57,
      "start": 45.1159,
      "duration": 0.0161,
      "velocity": 100,
      "chip": "ym2612"
    },
    {
      "channel": 1,
      "note": 79,
      "start": 45.1251,
      "duration": 0.0161,
      "velocity": 127,
      "chip": "ym2612"
    },
    {
      "channel": 0,
      "note": 37,
      "start": 45.1268,
      "duration": 0.0161,
      "velocity": 115,
      "chip": "ym2612"
    },
    {
      "channel": 5,
      "note": 83,
      "start": 45.1285,
      "duration": 0.016,
      "velocity": 89,
      "chip": "ym2612"
    },
    {
      "channel": 3,
      "note": 83,
      "start": 45.1297,
      "duration": 0.0162,
      "velocity": 89,
      "chip": "ym2612"
    },
    {
      "channel": 2,
      "note": 76,
      "start": 45.1309,
      "duration": 0.0161,
      "velocity": 105,
      "chip": "ym2612"
    },
    {
      "channel": 4,
      "note": 57,
      "start": 45.132,
      "duration": 0.0161,
      "velocity": 100,
      "chip": "ym2612"
    },
    {
      "channel": 1,
      "note": 79,
      "start": 45.1412,
      "duration": 0.0161,
      "velocity": 127,
      "chip": "ym2612"
    },
    {
      "channel": 0,
      "note": 38,
      "start": 45.1429,
      "duration": 0.0161,
      "velocity": 115,
      "chip": "ym2612"
    },
    {
      "channel": 5,
      "note": 83,
      "start": 45.1445,
      "duration": 0.0158,
      "velocity": 89,
      "chip": "ym2612"
    },
    {
      "channel": 3,
      "note": 83,
      "start": 45.1458,
      "duration": 0.0161,
      "velocity": 89,
      "chip": "ym2612"
    },
    {
      "channel": 2,
      "note": 76,
      "start": 45.147,
      "duration": 0.0161,
      "velocity": 105,
      "chip": "ym2612"
    },
    {
      "channel": 4,
      "note": 57,
      "start": 45.1481,
      "duration": 0.0161,
      "velocity": 100,
      "chip": "ym2612"
    },
    {
      "channel": 1,
      "note": 79,
      "start": 45.1573,
      "duration": 0.0161,
      "velocity": 127,
      "chip": "ym2612"
    },
    {
      "channel": 0,
      "note": 38,
      "start": 45.159,
      "duration": 0.0161,
      "velocity": 115,
      "chip": "ym2612"
    },
    {
      "channel": 5,
      "note": 83,
      "start": 45.1603,
      "duration": 0.0159,
      "velocity": 89,
      "chip": "ym2612"
    },
    {
      "channel": 3,
      "note": 83,
      "start": 45.1619,
      "duration": 0.016,
      "velocity": 89,
      "chip": "ym2612"
    },
    {
      "channel": 2,
      "note": 76,
      "start": 45.1631,
      "duration": 0.0161,
      "velocity": 105,
      "chip": "ym2612"
    },
    {
      "channel": 4,
      "note": 57,
      "start": 45.1642,
      "duration": 0.0161,
      "velocity": 100,
      "chip": "ym2612"
    },
    {
      "channel": 1,
      "note": 79,
      "start": 45.1734,
      "duration": 0.0161,
      "velocity": 127,
      "chip": "ym2612"
    },
    {
      "channel": 0,
      "note": 39,
      "start": 45.1751,
      "duration": 0.0161,
      "velocity": 115,
      "chip": "ym2612"
    },
    {
      "channel": 5,
      "note": 83,
      "start": 45.1762,
      "duration": 0.0161,
      "velocity": 89,
      "chip": "ym2612"
    },
    {
      "channel": 3,
      "note": 83,
      "start": 45.1779,
      "duration": 0.0158,
      "velocity": 89,
      "chip": "ym2612"
    },
    {
      "channel": 2,
      "note": 76,
      "start": 45.1792,
      "duration": 0.0161,
      "velocity": 105,
      "chip": "ym2612"
    },
    {
      "channel": 4,
      "note": 57,
      "start": 45.1803,
      "duration": 0.0161,
      "velocity": 100,
      "chip": "ym2612"
    },
    {
      "channel": 1,
      "note": 79,
      "start": 45.1895,
      "duration": 0.0161,
      "velocity": 127,
      "chip": "ym2612"
    },
    {
      "channel": 0,
      "note": 39,
      "start": 45.1912,
      "duration": 0.0161,
      "velocity": 115,
      "chip": "ym2612"
    },
    {
      "channel": 5,
      "note": 83,
      "start": 45.1923,
      "duration": 0.0161,
      "velocity": 89,
      "chip": "ym2612"
    },
    {
      "channel": 3,
      "note": 83,
      "start": 45.1937,
      "duration": 0.0159,
      "velocity": 89,
      "chip": "ym2612"
    },
    {
      "channel": 2,
      "note": 76,
      "start": 45.1952,
      "duration": 0.016,
      "velocity": 105,
      "chip": "ym2612"
    },
    {
      "channel": 4,
      "note": 57,
      "start": 45.1964,
      "duration": 0.0161,
      "velocity": 100,
      "chip": "ym2612"
    },
    {
      "channel": 1,
      "note": 79,
      "start": 45.2056,
      "duration": 0.0161,
      "velocity": 127,
      "chip": "ym2612"
    },
    {
      "channel": 0,
      "note": 40,
      "start": 45.2073,
      "duration": 0.0161,
      "velocity": 115,
      "chip": "ym2612"
    },
    {
      "channel": 5,
      "note": 83,
      "start": 45.2084,
      "duration": 0.0161,
      "velocity": 89,
      "chip": "ym2612"
    },
    {
      "channel": 3,
      "note": 83,
      "start": 45.2096,
      "duration": 0.0161,
      "velocity": 89,
      "chip": "ym2612"
    },
    {
      "channel": 2,
      "note": 76,
      "start": 45.2113,
      "duration": 0.0158,
      "velocity": 105,
      "chip": "ym2612"
    },
    {
      "channel": 4,
      "note": 57,
      "start": 45.2125,
      "duration": 0.016,
      "velocity": 100,
      "chip": "ym2612"
    },
    {
      "channel": 1,
      "note": 79,
      "start": 45.2217,
      "duration": 0.0161,
      "velocity": 127,
      "chip": "ym2612"
    },
    {
      "channel": 0,
      "note": 40,
      "start": 45.2234,
      "duration": 0.0161,
      "velocity": 115,
      "chip": "ym2612"
    },
    {
      "channel": 5,
      "note": 83,
      "start": 45.2245,
      "duration": 0.0161,
      "velocity": 89,
      "chip": "ym2612"
    },
    {
      "channel": 3,
      "note": 83,
      "start": 45.2257,
      "duration": 0.0161,
      "velocity": 89,
      "chip": "ym2612"
    },
    {
      "channel": 2,
      "note": 76,
      "start": 45.2271,
      "duration": 0.0159,
      "velocity": 105,
      "chip": "ym2612"
    },
    {
      "channel": 4,
      "note": 57,
      "start": 45.2285,
      "duration": 0.0161,
      "velocity": 100,
      "chip": "ym2612"
    },
    {
      "channel": 1,
      "note": 79,
      "start": 45.2378,
      "duration": 0.0161,
      "velocity": 127,
      "chip": "ym2612"
    },
    {
      "channel": 0,
      "note": 40,
      "start": 45.2395,
      "duration": 0.0161,
      "velocity": 115,
      "chip": "ym2612"
    },
    {
      "channel": 5,
      "note": 83,
      "start": 45.2407,
      "duration": 0.0161,
      "velocity": 89,
      "chip": "ym2612"
    },
    {
      "channel": 3,
      "note": 83,
      "start": 45.2418,
      "duration": 0.0161,
      "velocity": 89,
      "chip": "ym2612"
    },
    {
      "channel": 2,
      "note": 76,
      "start": 45.2429,
      "duration": 0.0161,
      "velocity": 105,
      "chip": "ym2612"
    },
    {
      "channel": 4,
      "note": 57,
      "start": 45.2447,
      "duration": 0.0158,
      "velocity": 100,
      "chip": "ym2612"
    },
    {
      "channel": 1,
      "note": 79,
      "start": 45.2539,
      "duration": 0.0161,
      "velocity": 127,
      "chip": "ym2612"
    },
    {
      "channel": 0,
      "note": 41,
      "start": 45.2556,
      "duration": 0.0161,
      "velocity": 115,
      "chip": "ym2612"
    },
    {
      "channel": 5,
      "note": 83,
      "start": 45.2568,
      "duration": 0.0163,
      "velocity": 89,
      "chip": "ym2612"
    },
    {
      "channel": 3,
      "note": 83,
      "start": 45.2579,
      "duration": 0.0163,
      "velocity": 89,
      "chip": "ym2612"
    },
    {
      "channel": 4,
      "note": 57,
      "start": 45.2605,
      "duration": 0.0161,
      "velocity": 100,
      "chip": "ym2612"
    },
    {
      "channel": 1,
      "note": 79,
      "start": 45.27,
      "duration": 0.0161,
      "velocity": 127,
      "chip": "ym2612"
    },
    {
      "channel": 0,
      "note": 41,
      "start": 45.2717,
      "duration": 0.0161,
      "velocity": 115,
      "chip": "ym2612"
    },
    {
      "channel": 5,
      "note": 83,
      "start": 45.273,
      "duration": 0.016,
      "velocity": 89,
      "chip": "ym2612"
    },
    {
      "channel": 3,
      "note": 83,
      "start": 45.2743,
      "duration": 0.0159,
      "velocity": 89,
      "chip": "ym2612"
    },
    {
      "channel": 4,
      "note": 57,
      "start": 45.2766,
      "duration": 0.0159,
      "velocity": 100,
      "chip": "ym2612"
    },
    {
      "channel": 1,
      "note": 79,
      "start": 45.2861,
      "duration": 0.0161,
      "velocity": 127,
      "chip": "ym2612"
    },
    {
      "channel": 0,
      "note": 42,
      "start": 45.2878,
      "duration": 0.0161,
      "velocity": 115,
      "chip": "ym2612"
    },
    {
      "channel": 5,
      "note": 83,
      "start": 45.289,
      "duration": 0.016,
      "velocity": 89,
      "chip": "ym2612"
    },
    {
      "channel": 3,
      "note": 83,
      "start": 45.2902,
      "duration": 0.016,
      "velocity": 89,
      "chip": "ym2612"
    },
    {
      "channel": 4,
      "note": 57,
      "start": 45.2924,
      "duration": 0.0164,
      "velocity": 100,
      "chip": "ym2612"
    },
    {
      "channel": 1,
      "note": 79,
      "start": 45.3022,
      "duration": 0.0161,
      "velocity": 127,
      "chip": "ym2612"
    },
    {
      "channel": 0,
      "note": 42,
      "start": 45.3039,
      "duration": 0.0161,
      "velocity": 115,
      "chip": "ym2612"
    },
    {
      "channel": 5,
      "note": 83,
      "start": 45.305,
      "duration": 0.0161,
      "velocity": 89,
      "chip": "ym2612"
    },
    {
      "channel": 3,
      "note": 83,
      "start": 45.3062,
      "duration": 0.0161,
      "velocity": 89,
      "chip": "ym2612"
    },
    {
      "channel": 2,
      "note": 76,
      "start": 45.3077,
      "duration": 0.0159,
      "velocity": 105,
      "chip": "ym2612"
    },
    {
      "channel": 4,
      "note": 57,
      "start": 45.3089,
      "duration": 0.0158,
      "velocity": 100,
      "chip": "ym2612"
    },
    {
      "channel": 1,
      "note": 79,
      "start": 45.3183,
      "duration": 0.0161,
      "velocity": 127,
      "chip": "ym2612"
    },
    {
      "channel": 0,
      "note": 43,
      "start": 45.32,
      "duration": 0.0161,
      "velocity": 115,
      "chip": "ym2612"
    },
    {
      "channel": 5,
      "note": 83,
      "start": 45.3211,
      "duration": 0.0161,
      "velocity": 89,
      "chip": "ym2612"
    },
    {
      "channel": 3,
      "note": 83,
      "start": 45.3223,
      "duration": 0.0161,
      "velocity": 89,
      "chip": "ym2612"
    },
    {
      "channel": 2,
      "note": 76,
      "start": 45.3236,
      "duration": 0.016,
      "velocity": 105,
      "chip": "ym2612"
    },
    {
      "channel": 4,
      "note": 57,
      "start": 45.3247,
      "duration": 0.016,
      "velocity": 100,
      "chip": "ym2612"
    },
    {
      "channel": 1,
      "note": 79,
      "start": 45.3344,
      "duration": 0.0161,
      "velocity": 127,
      "chip": "ym2612"
    },
    {
      "channel": 0,
      "note": 43,
      "start": 45.3361,
      "duration": 0.0161,
      "velocity": 115,
      "chip": "ym2612"
    },
    {
      "channel": 5,
      "note": 83,
      "start": 45.3372,
      "duration": 0.0161,
      "velocity": 89,
      "chip": "ym2612"
    },
    {
      "channel": 3,
      "note": 83,
      "start": 45.3384,
      "duration": 0.0161,
      "velocity": 89,
      "chip": "ym2612"
    },
    {
      "channel": 2,
      "note": 76,
      "start": 45.3396,
      "duration": 0.0161,
      "velocity": 105,
      "chip": "ym2612"
    },
    {
      "channel": 4,
      "note": 57,
      "start": 45.3407,
      "duration": 0.0161,
      "velocity": 100,
      "chip": "ym2612"
    },
    {
      "channel": 1,
      "note": 79,
      "start": 45.3505,
      "duration": 0.0159,
      "velocity": 1,
      "chip": "ym2612"
    },
    {
      "channel": 0,
      "note": 44,
      "start": 45.3522,
      "duration": 0.0159,
      "velocity": 115,
      "chip": "ym2612"
    },
    {
      "channel": 5,
      "note": 83,
      "start": 45.3533,
      "duration": 0.0158,
      "velocity": 89,
      "chip": "ym2612"
    },
    {
      "channel": 3,
      "note": 83,
      "start": 45.3545,
      "duration": 0.0158,
      "velocity": 89,
      "chip": "ym2612"
    },
    {
      "channel": 2,
      "note": 76,
      "start": 45.3557,
      "duration": 0.0159,
      "velocity": 105,
      "chip": "ym2612"
    },
    {
      "channel": 4,
      "note": 57,
      "start": 45.3568,
      "duration": 0.0158,
      "velocity": 100,
      "chip": "ym2612"
    },
    {
      "channel": 0,
      "note": 44,
      "start": 45.368,
      "duration": 0.0153,
      "velocity": 115,
      "chip": "ym2612"
    },
    {
      "channel": 5,
      "note": 83,
      "start": 45.3692,
      "duration": 0.0153,
      "velocity": 89,
      "chip": "ym2612"
    },
    {
      "channel": 3,
      "note": 83,
      "start": 45.3703,
      "duration": 0.0153,
      "velocity": 89,
      "chip": "ym2612"
    },
    {
      "channel": 4,
      "note": 57,
      "start": 45.3727,
      "duration": 0.0152,
      "velocity": 100,
      "chip": "ym2612"
    },
    {
      "channel": 0,
      "note": 44,
      "start": 45.3833,
      "duration": 0.0161,
      "velocity": 115,
      "chip": "ym2612"
    },
    {
      "channel": 5,
      "note": 83,
      "start": 45.3844,
      "duration": 0.0161,
      "velocity": 89,
      "chip": "ym2612"
    },
    {
      "channel": 3,
      "note": 83,
      "start": 45.3856,
      "duration": 0.0161,
      "velocity": 89,
      "chip": "ym2612"
    },
    {
      "channel": 4,
      "note": 57,
      "start": 45.3879,
      "duration": 0.0161,
      "velocity": 100,
      "chip": "ym2612"
    },
    {
      "channel": 0,
      "note": 45,
      "start": 45.3994,
      "duration": 0.0208,
      "velocity": 115,
      "chip": "ym2612"
    },
    {
      "channel": 5,
      "note": 83,
      "start": 45.4005,
      "duration": 0.0209,
      "velocity": 89,
      "chip": "ym2612"
    },
    {
      "channel": 3,
      "note": 83,
      "start": 45.4017,
      "duration": 0.0209,
      "velocity": 89,
      "chip": "ym2612"
    },
    {
      "channel": 4,
      "note": 57,
      "start": 45.404,
      "duration": 0.0214,
      "velocity": 100,
      "chip": "ym2612"
    },
    {
      "channel": 1,
      "note": 79,
      "start": 45.4167,
      "duration": 0.0144,
      "velocity": 127,
      "chip": "ym2612"
    },
    {
      "channel": 0,
      "note": 36,
      "start": 45.4202,
      "duration": 0.0126,
      "velocity": 115,
      "chip": "ym2612"
    },
    {
      "channel": 5,
      "note": 83,
      "start": 45.4214,
      "duration": 0.0126,
      "velocity": 89,
      "chip": "ym2612"
    },
    {
      "channel": 3,
      "note": 83,
      "start": 45.4225,
      "duration": 0.0126,
      "velocity": 89,
      "chip": "ym2612"
    },
    {
      "channel": 2,
      "note": 76,
      "start": 45.424,
      "duration": 0.0124,
      "velocity": 105,
      "chip": "ym2612"
    },
    {
      "channel": 4,
      "note": 52,
      "start": 45.4255,
      "duration": 0.0122,
      "velocity": 100,
      "chip": "ym2612"
    },
    {
      "channel": 1,
      "note": 79,
      "start": 45.4311,
      "duration": 0.016,
      "velocity": 127,
      "chip": "ym2612"
    },
    {
      "channel": 0,
      "note": 36,
      "start": 45.4328,
      "duration": 0.016,
      "velocity": 115,
      "chip": "ym2612"
    },
    {
      "channel": 5,
      "note": 83,
      "start": 45.434,
      "duration": 0.016,
      "velocity": 89,
      "chip": "ym2612"
    },
    {
      "channel": 3,
      "note": 83,
      "start": 45.4351,
      "duration": 0.016,
      "velocity": 89,
      "chip": "ym2612"
    },
    {
      "channel": 2,
      "note": 76,
      "start": 45.4363,
      "duration": 0.0159,
      "velocity": 105,
      "chip": "ym2612"
    },
    {
      "channel": 4,
      "note": 52,
      "start": 45.4376,
      "duration": 0.0158,
      "velocity": 100,
      "chip": "ym2612"
    },
    {
      "channel": 1,
      "note": 79,
      "start": 45.4471,
      "duration": 0.0161,
      "velocity": 127,
      "chip": "ym2612"
    },
    {
      "channel": 0,
      "note": 37,
      "start": 45.4488,
      "duration": 0.0161,
      "velocity": 115,
      "chip": "ym2612"
    },
    {
      "channel": 5,
      "note": 83,
      "start": 45.45,
      "duration": 0.0161,
      "velocity": 89,
      "chip": "ym2612"
    },
    {
      "channel": 3,
      "note": 83,
      "start": 45.4511,
      "duration": 0.0162,
      "velocity": 89,
      "chip": "ym2612"
    },
    {
      "channel": 2,
      "note": 76,
      "start": 45.4522,
      "duration": 0.0161,
      "velocity": 105,
      "chip": "ym2612"
    },
    {
      "channel": 4,
      "note": 52,
      "start": 45.4534,
      "duration": 0.0161,
      "velocity": 100,
      "chip": "ym2612"
    },
    {
      "channel": 1,
      "note": 79,
      "start": 45.4632,
      "duration": 0.0162,
      "velocity": 127,
      "chip": "ym2612"
    },
    {
      "channel": 0,
      "note": 37,
      "start": 45.4649,
      "duration": 0.0162,
      "velocity": 115,
      "chip": "ym2612"
    },
    {
      "channel": 5,
      "note": 83,
      "start": 45.4661,
      "duration": 0.0161,
      "velocity": 89,
      "chip": "ym2612"
    },
    {
      "channel": 3,
      "note": 83,
      "start": 45.4673,
      "duration": 0.0162,
      "velocity": 89,
      "chip": "ym2612"
    },
    {
      "channel": 2,
      "note": 76,
      "start": 45.4684,
      "duration": 0.0162,
      "velocity": 105,
      "chip": "ym2612"
    },
    {
      "channel": 4,
      "note": 52,
      "start": 45.4695,
      "duration": 0.0162,
      "velocity": 100,
      "chip": "ym2612"
    },
    {
      "channel": 1,
      "note": 79,
      "start": 45.4793,
      "duration": 0.0164,
      "velocity": 127,
      "chip": "ym2612"
    },
    {
      "channel": 0,
      "note": 38,
      "start": 45.4811,
      "duration": 0.0164,
      "velocity": 115,
      "chip": "ym2612"
    },
    {
      "channel": 5,
      "note": 83,
      "start": 45.4822,
      "duration": 0.0164,
      "velocity": 89,
      "chip": "ym2612"
    },
    {
      "channel": 3,
      "note": 83,
      "start": 45.4834,
      "duration": 0.0164,
      "velocity": 89,
      "chip": "ym2612"
    },
    {
      "channel": 4,
      "note": 52,
      "start": 45.4857,
      "duration": 0.0164,
      "velocity": 100,
      "chip": "ym2612"
    },
    {
      "channel": 1,
      "note": 79,
      "start": 45.4958,
      "duration": 0.0163,
      "velocity": 127,
      "chip": "ym2612"
    },
    {
      "channel": 0,
      "note": 38,
      "start": 45.4975,
      "duration": 0.0163,
      "velocity": 115,
      "chip": "ym2612"
    },
    {
      "channel": 5,
      "note": 83,
      "start": 45.4986,
      "duration": 0.0163,
      "velocity": 89,
      "chip": "ym2612"
    },
    {
      "channel": 3,
      "note": 83,
      "start": 45.4998,
      "duration": 0.0163,
      "velocity": 89,
      "chip": "ym2612"
    },
    {
      "channel": 4,
      "note": 52,
      "start": 45.5021,
      "duration": 0.0163,
      "velocity": 100,
      "chip": "ym2612"
    },
    {
      "channel": 1,
      "note": 79,
      "start": 45.5121,
      "duration": 0.016,
      "velocity": 127,
      "chip": "ym2612"
    },
    {
      "channel": 0,
      "note": 39,
      "start": 45.5138,
      "duration": 0.0179,
      "velocity": 115,
      "chip": "ym2612"
    },
    {
      "channel": 5,
      "note": 83,
      "start": 45.515,
      "duration": 0.0179,
      "velocity": 89,
      "chip": "ym2612"
    },
    {
      "channel": 3,
      "note": 83,
      "start": 45.5161,
      "duration": 0.018,
      "velocity": 89,
      "chip": "ym2612"
    },
    {
      "channel": 4,
      "note": 52,
      "start": 45.5184,
      "duration": 0.0186,
      "velocity": 100,
      "chip": "ym2612"
    },
    {
      "channel": 1,
      "note": 79,
      "start": 45.5281,
      "duration": 0.0158,
      "velocity": 127,
      "chip": "ym2612"
    },
    {
      "channel": 0,
      "note": 36,
      "start": 45.5318,
      "duration": 0.0143,
      "velocity": 115,
      "chip": "ym2612"
    },
    {
      "channel": 5,
      "note": 83,
      "start": 45.5329,
      "duration": 0.0143,
      "velocity": 89,
      "chip": "ym2612"
    },
    {
      "channel": 3,
      "note": 83,
      "start": 45.5341,
      "duration": 0.0143,
      "velocity": 89,
      "chip": "ym2612"
    },
    {
      "channel": 2,
      "note": 76,
      "start": 45.5356,
      "duration": 0.0139,
      "velocity": 105,
      "chip": "ym2612"
    },
    {
      "channel": 4,
      "note": 52,
      "start": 45.537,
      "duration": 0.0138,
      "velocity": 100,
      "chip": "ym2612"
    },
    {
      "channel": 1,
      "note": 79,
      "start": 45.5439,
      "duration": 0.0159,
      "velocity": 127,
      "chip": "ym2612"
    },
    {
      "channel": 0,
      "note": 36,
      "start": 45.5461,
      "duration": 0.016,
      "velocity": 115,
      "chip": "ym2612"
    },
    {
      "channel": 5,
      "note": 83,
      "start": 45.5472,
      "duration": 0.016,
      "velocity": 89,
      "chip": "ym2612"
    },
    {
      "channel": 3,
      "note": 83,
      "start": 45.5484,
      "duration": 0.016,
      "velocity": 89,
      "chip": "ym2612"
    },
    {
      "channel": 2,
      "note": 76,
      "start": 45.5496,
      "duration": 0.016,
      "velocity": 105,
      "chip": "ym2612"
    },
    {
      "channel": 4,
      "note": 52,
      "start": 45.5508,
      "duration": 0.0159,
      "velocity": 100,
      "chip": "ym2612"
    },
    {
      "channel": 1,
      "note": 79,
      "start": 45.5598,
      "duration": 0.0161,
      "velocity": 127,
      "chip": "ym2612"
    },
    {
      "channel": 0,
      "note": 37,
      "start": 45.5621,
      "duration": 0.016,
      "velocity": 115,
      "chip": "ym2612"
    },
    {
      "channel": 5,
      "note": 83,
      "start": 45.5632,
      "duration": 0.0161,
      "velocity": 89,
      "chip": "ym2612"
    },
    {
      "channel": 3,
      "note": 83,
      "start": 45.5644,
      "duration": 0.0161,
      "velocity": 89,
      "chip": "ym2612"
    },
    {
      "channel": 2,
      "note": 76,
      "start": 45.5656,
      "duration": 0.0161,
      "velocity": 105,
      "chip": "ym2612"
    },
    {
      "channel": 4,
      "note": 52,
      "start": 45.5668,
      "duration": 0.0161,
      "velocity": 100,
      "chip": "ym2612"
    },
    {
      "channel": 1,
      "note": 79,
      "start": 45.5759,
      "duration": 0.0161,
      "velocity": 127,
      "chip": "ym2612"
    },
    {
      "channel": 0,
      "note": 37,
      "start": 45.5781,
      "duration": 0.0158,
      "velocity": 115,
      "chip": "ym2612"
    },
    {
      "channel": 5,
      "note": 83,
      "start": 45.5793,
      "duration": 0.0161,
      "velocity": 89,
      "chip": "ym2612"
    },
    {
      "channel": 3,
      "note": 83,
      "start": 45.5805,
      "duration": 0.0161,
      "velocity": 89,
      "chip": "ym2612"
    },
    {
      "channel": 2,
      "note": 76,
      "start": 45.5817,
      "duration": 0.0161,
      "velocity": 105,
      "chip": "ym2612"
    },
    {
      "channel": 4,
      "note": 52,
      "start": 45.5828,
      "duration": 0.0161,
      "velocity": 100,
      "chip": "ym2612"
    },
    {
      "channel": 1,
      "note": 79,
      "start": 45.592,
      "duration": 0.0161,
      "velocity": 127,
      "chip": "ym2612"
    },
    {
      "channel": 0,
      "note": 38,
      "start": 45.5939,
      "duration": 0.0159,
      "velocity": 115,
      "chip": "ym2612"
    },
    {
      "channel": 5,
      "note": 83,
      "start": 45.5954,
      "duration": 0.016,
      "velocity": 89,
      "chip": "ym2612"
    },
    {
      "channel": 3,
      "note": 83,
      "start": 45.5966,
      "duration": 0.0161,
      "velocity": 89,
      "chip": "ym2612"
    },
    {
      "channel": 2,
      "note": 76,
      "start": 45.5978,
      "duration": 0.0161,
      "velocity": 105,
      "chip": "ym2612"
    },
    {
      "channel": 4,
      "note": 52,
      "start": 45.5989,
      "duration": 0.0161,
      "velocity": 100,
      "chip": "ym2612"
    },
    {
      "channel": 1,
      "note": 79,
      "start": 45.6081,
      "duration": 0.0161,
      "velocity": 127,
      "chip": "ym2612"
    },
    {
      "channel": 0,
      "note": 38,
      "start": 45.6098,
      "duration": 0.0161,
      "velocity": 115,
      "chip": "ym2612"
    },
    {
      "channel": 5,
      "note": 83,
      "start": 45.6115,
      "duration": 0.0158,
      "velocity": 89,
      "chip": "ym2612"
    },
    {
      "channel": 3,
      "note": 83,
      "start": 45.6127,
      "duration": 0.0161,
      "velocity": 89,
      "chip": "ym2612"
    },
    {
      "channel": 2,
      "note": 76,
      "start": 45.6139,
      "duration": 0.0161,
      "velocity": 105,
      "chip": "ym2612"
    },
    {
      "channel": 4,
      "note": 52,
      "start": 45.615,
      "duration": 0.0161,
      "velocity": 100,
      "chip": "ym2612"
    },
    {
      "channel": 1,
      "note": 79,
      "start": 45.6242,
      "duration": 0.0179,
      "velocity": 127,
      "chip": "ym2612"
    },
    {
      "channel": 0,
      "note": 39,
      "start": 45.6259,
      "duration": 0.0184,
      "velocity": 115,
      "chip": "ym2612"
    },
    {
      "channel": 5,
      "note": 83,
      "start": 45.6272,
      "duration": 0.0183,
      "velocity": 89,
      "chip": "ym2612"
    },
    {
      "channel": 3,
      "note": 83,
      "start": 45.6288,
      "duration": 0.0179,
      "velocity": 89,
      "chip": "ym2612"
    },
    {
      "channel": 2,
      "note": 76,
      "start": 45.63,
      "duration": 0.0179,
      "velocity": 105,
      "chip": "ym2612"
    },
    {
      "channel": 4,
      "note": 52,
      "start": 45.6311,
      "duration": 0.0179,
      "velocity": 100,
      "chip": "ym2612"
    },
    {
      "channel": 1,
      "note": 79,
      "start": 45.6421,
      "duration": 0.0143,
      "velocity": 127,
      "chip": "ym2612"
    },
    {
      "channel": 0,
      "note": 39,
      "start": 45.6444,
      "duration": 0.0138,
      "velocity": 115,
      "chip": "ym2612"
    },
    {
      "channel": 5,
      "note": 83,
      "start": 45.6456,
      "duration": 0.0137,
      "velocity": 89,
      "chip": "ym2612"
    },
    {
      "channel": 3,
      "note": 83,
      "start": 45.6467,
      "duration": 0.0143,
      "velocity": 89,
      "chip": "ym2612"
    },
    {
      "channel": 2,
      "note": 76,
      "start": 45.6479,
      "duration": 0.0143,
      "velocity": 105,
      "chip": "ym2612"
    },
    {
      "channel": 4,
      "note": 52,
      "start": 45.6491,
      "duration": 0.0143,
      "velocity": 100,
      "chip": "ym2612"
    },
    {
      "channel": 1,
      "note": 79,
      "start": 45.6564,
      "duration": 0.0161,
      "velocity": 127,
      "chip": "ym2612"
    },
    {
      "channel": 0,
      "note": 40,
      "start": 45.6582,
      "duration": 0.016,
      "velocity": 115,
      "chip": "ym2612"
    },
    {
      "channel": 5,
      "note": 83,
      "start": 45.6593,
      "duration": 0.0161,
      "velocity": 89,
      "chip": "ym2612"
    },
    {
      "channel": 3,
      "note": 83,
      "start": 45.661,
      "duration": 0.0155,
      "velocity": 89,
      "chip": "ym2612"
    },
    {
      "channel": 2,
      "note": 76,
      "start": 45.6622,
      "duration": 0.016,
      "velocity": 105,
      "chip": "ym2612"
    },
    {
      "channel": 4,
      "note": 52,
      "start": 45.6634,
      "duration": 0.0161,
      "velocity": 100,
      "chip": "ym2612"
    },
    {
      "channel": 1,
      "note": 79,
      "start": 45.6725,
      "duration": 0.0161,
      "velocity": 127,
      "chip": "ym2612"
    },
    {
      "channel": 0,
      "note": 40,
      "start": 45.6742,
      "duration": 0.0161,
      "velocity": 115,
      "chip": "ym2612"
    },
    {
      "channel": 5,
      "note": 83,
      "start": 45.6754,
      "duration": 0.0161,
      "velocity": 89,
      "chip": "ym2612"
    },
    {
      "channel": 3,
      "note": 83,
      "start": 45.6766,
      "duration": 0.0161,
      "velocity": 89,
      "chip": "ym2612"
    },
    {
      "channel": 2,
      "note": 76,
      "start": 45.6783,
      "duration": 0.0161,
      "velocity": 105,
      "chip": "ym2612"
    },
    {
      "channel": 4,
      "note": 52,
      "start": 45.6795,
      "duration": 0.0161,
      "velocity": 100,
      "chip": "ym2612"
    },
    {
      "channel": 1,
      "note": 79,
      "start": 45.6886,
      "duration": 0.0161,
      "velocity": 127,
      "chip": "ym2612"
    },
    {
      "channel": 0,
      "note": 40,
      "start": 45.6903,
      "duration": 0.0161,
      "velocity": 115,
      "chip": "ym2612"
    },
    {
      "channel": 5,
      "note": 83,
      "start": 45.6915,
      "duration": 0.0161,
      "velocity": 89,
      "chip": "ym2612"
    },
    {
      "channel": 3,
      "note": 83,
      "start": 45.6926,
      "duration": 0.0161,
      "velocity": 89,
      "chip": "ym2612"
    },
    {
      "channel": 2,
      "note": 76,
      "start": 45.6944,
      "duration": 0.0155,
      "velocity": 105,
      "chip": "ym2612"
    },
    {
      "channel": 4,
      "note": 52,
      "start": 45.6956,
      "duration": 0.0161,
      "velocity": 100,
      "chip": "ym2612"
    },
    {
      "channel": 1,
      "note": 79,
      "start": 45.7047,
      "duration": 0.0161,
      "velocity": 127,
      "chip": "ym2612"
    },
    {
      "channel": 0,
      "note": 41,
      "start": 45.7064,
      "duration": 0.0162,
      "velocity": 115,
      "chip": "ym2612"
    },
    {
      "channel": 5,
      "note": 83,
      "start": 45.7076,
      "duration": 0.0161,
      "velocity": 89,
      "chip": "ym2612"
    },
    {
      "channel": 3,
      "note": 83,
      "start": 45.7087,
      "duration": 0.0161,
      "velocity": 89,
      "chip": "ym2612"
    },
    {
      "channel": 4,
      "note": 52,
      "start": 45.7117,
      "duration": 0.016,
      "velocity": 100,
      "chip": "ym2612"
    },
    {
      "channel": 1,
      "note": 79,
      "start": 45.7208,
      "duration": 0.0161,
      "velocity": 127,
      "chip": "ym2612"
    },
    {
      "channel": 0,
      "note": 41,
      "start": 45.7225,
      "duration": 0.0161,
      "velocity": 115,
      "chip": "ym2612"
    },
    {
      "channel": 5,
      "note": 83,
      "start": 45.7237,
      "duration": 0.0161,
      "velocity": 89,
      "chip": "ym2612"
    },
    {
      "channel": 3,
      "note": 83,
      "start": 45.7248,
      "duration": 0.0161,
      "velocity": 89,
      "chip": "ym2612"
    },
    {
      "channel": 4,
      "note": 52,
      "start": 45.7277,
      "duration": 0.0156,
      "velocity": 100,
      "chip": "ym2612"
    },
    {
      "channel": 1,
      "note": 79,
      "start": 45.7369,
      "duration": 0.0178,
      "velocity": 127,
      "chip": "ym2612"
    },
    {
      "channel": 0,
      "note": 42,
      "start": 45.7386,
      "duration": 0.0196,
      "velocity": 124,
      "chip": "ym2612"
    },
    {
      "channel": 5,
      "note": 83,
      "start": 45.7398,
      "duration": 0.0197,
      "velocity": 89,
      "chip": "ym2612"
    },
    {
      "channel": 3,
      "note": 83,
      "start": 45.7409,
      "duration": 0.0203,
      "velocity": 89,
      "chip": "ym2612"
    },
    {
      "channel": 4,
      "note": 52,
      "start": 45.7433,
      "duration": 0.0206,
      "velocity": 100,
      "chip": "ym2612"
    },
    {
      "channel": 1,
      "note": 72,
      "start": 45.7548,
      "duration": 0.0144,
      "velocity": 127,
      "chip": "ym2612"
    },
    {
      "channel": 0,
      "note": 84,
      "start": 45.7583,
      "duration": 0.0126,
      "velocity": 124,
      "chip": "ym2612"
    },
    {
      "channel": 5,
      "note": 83,
      "start": 45.7595,
      "duration": 0.0126,
      "velocity": 89,
      "chip": "ym2612"
    },
    {
      "channel": 3,
      "note": 83,
      "start": 45.7612,
      "duration": 0.0121,
      "velocity": 89,
      "chip": "ym2612"
    },
    {
      "channel": 2,
      "note": 76,
      "start": 45.7627,
      "duration": 0.0118,
      "velocity": 105,
      "chip": "ym2612"
    },
    {
      "channel": 4,
      "note": 52,
      "start": 45.7639,
      "duration": 0.0118,
      "velocity": 100,
      "chip": "ym2612"
    },
    {
      "channel": 1,
      "note": 72,
      "start": 45.7692,
      "duration": 0.016,
      "velocity": 127,
      "chip": "ym2612"
    },
    {
      "channel": 0,
      "note": 82,
      "start": 45.771,
      "duration": 0.016,
      "velocity": 124,
      "chip": "ym2612"
    },
    {
      "channel": 5,
      "note": 83,
      "start": 45.7721,
      "duration": 0.016,
      "velocity": 89,
      "chip": "ym2612"
    },
    {
      "channel": 3,
      "note": 83,
      "start": 45.7733,
      "duration": 0.016,
      "velocity": 89,
      "chip": "ym2612"
    },
    {
      "channel": 2,
      "note": 76,
      "start": 45.7745,
      "duration": 0.0159,
      "velocity": 105,
      "chip": "ym2612"
    },
    {
      "channel": 4,
      "note": 52,
      "start": 45.7756,
      "duration": 0.0159,
      "velocity": 100,
      "chip": "ym2612"
    },
    {
      "channel": 1,
      "note": 72,
      "start": 45.7852,
      "duration": 0.0161,
      "velocity": 127,
      "chip": "ym2612"
    },
    {
      "channel": 0,
      "note": 80,
      "start": 45.7869,
      "duration": 0.0161,
      "velocity": 124,
      "chip": "ym2612"
    },
    {
      "channel": 5,
      "note": 83,
      "start": 45.788,
      "duration": 0.0161,
      "velocity": 89,
      "chip": "ym2612"
    },
    {
      "channel": 3,
      "note": 83,
      "start": 45.7893,
      "duration": 0.0161,
      "velocity": 89,
      "chip": "ym2612"
    },
    {
      "channel": 2,
      "note": 76,
      "start": 45.7904,
      "duration": 0.0161,
      "velocity": 105,
      "chip": "ym2612"
    },
    {
      "channel": 4,
      "note": 52,
      "start": 45.7916,
      "duration": 0.0161,
      "velocity": 100,
      "chip": "ym2612"
    },
    {
      "channel": 1,
      "note": 72,
      "start": 45.8013,
      "duration": 0.0161,
      "velocity": 127,
      "chip": "ym2612"
    },
    {
      "channel": 0,
      "note": 77,
      "start": 45.803,
      "duration": 0.0161,
      "velocity": 124,
      "chip": "ym2612"
    },
    {
      "channel": 5,
      "note": 83,
      "start": 45.8041,
      "duration": 0.0162,
      "velocity": 89,
      "chip": "ym2612"
    },
    {
      "channel": 3,
      "note": 83,
      "start": 45.8054,
      "duration": 0.0161,
      "velocity": 89,
      "chip": "ym2612"
    },
    {
      "channel": 2,
      "note": 76,
      "start": 45.8065,
      "duration": 0.0161,
      "velocity": 105,
      "chip": "ym2612"
    },
    {
      "channel": 4,
      "note": 52,
      "start": 45.8076,
      "duration": 0.0162,
      "velocity": 100,
      "chip": "ym2612"
    },
    {
      "channel": 1,
      "note": 72,
      "start": 45.8174,
      "duration": 0.0161,
      "velocity": 127,
      "chip": "ym2612"
    },
    {
      "channel": 0,
      "note": 75,
      "start": 45.8192,
      "duration": 0.0161,
      "velocity": 124,
      "chip": "ym2612"
    },
    {
      "channel": 5,
      "note": 83,
      "start": 45.8203,
      "duration": 0.0161,
      "velocity": 89,
      "chip": "ym2612"
    },
    {
      "channel": 3,
      "note": 83,
      "start": 45.8215,
      "duration": 0.0161,
      "velocity": 89,
      "chip": "ym2612"
    },
    {
      "channel": 4,
      "note": 52,
      "start": 45.8238,
      "duration": 0.016,
      "velocity": 100,
      "chip": "ym2612"
    },
    {
      "channel": 1,
      "note": 72,
      "start": 45.8335,
      "duration": 0.0161,
      "velocity": 127,
      "chip": "ym2612"
    },
    {
      "channel": 0,
      "note": 72,
      "start": 45.8353,
      "duration": 0.016,
      "velocity": 124,
      "chip": "ym2612"
    },
    {
      "channel": 5,
      "note": 83,
      "start": 45.8364,
      "duration": 0.0161,
      "velocity": 89,
      "chip": "ym2612"
    },
    {
      "channel": 3,
      "note": 83,
      "start": 45.8376,
      "duration": 0.0161,
      "velocity": 89,
      "chip": "ym2612"
    },
    {
      "channel": 4,
      "note": 52,
      "start": 45.8398,
      "duration": 0.0161,
      "velocity": 100,
      "chip": "ym2612"
    },
    {
      "channel": 1,
      "note": 72,
      "start": 45.8496,
      "duration": 0.0161,
      "velocity": 127,
      "chip": "ym2612"
    },
    {
      "channel": 0,
      "note": 70,
      "start": 45.8513,
      "duration": 0.0179,
      "velocity": 115,
      "chip": "ym2612"
    },
    {
      "channel": 5,
      "note": 83,
      "start": 45.8525,
      "duration": 0.0179,
      "velocity": 89,
      "chip": "ym2612"
    },
    {
      "channel": 3,
      "note": 83,
      "start": 45.8537,
      "duration": 0.0179,
      "velocity": 89,
      "chip": "ym2612"
    },
    {
      "channel": 4,
      "note": 52,
      "start": 45.8559,
      "duration": 0.0186,
      "velocity": 100,
      "chip": "ym2612"
    },
    {
      "channel": 1,
      "note": 72,
      "start": 45.8657,
      "duration": 0.0161,
      "velocity": 127,
      "chip": "ym2612"
    },
    {
      "channel": 0,
      "note": 36,
      "start": 45.8693,
      "duration": 0.0143,
      "velocity": 115,
      "chip": "ym2612"
    },
    {
      "channel": 5,
      "note": 83,
      "start": 45.8704,
      "duration": 0.0143,
      "velocity": 89,
      "chip": "ym2612"
    },
    {
      "channel": 3,
      "note": 83,
      "start": 45.8716,
      "duration": 0.0143,
      "velocity": 89,
      "chip": "ym2612"
    },
    {
      "channel": 2,
      "note": 76,
      "start": 45.873,
      "duration": 0.0141,
      "velocity": 105,
      "chip": "ym2612"
    },
    {
      "channel": 4,
      "note": 52,
      "start": 45.8745,
      "duration": 0.0139,
      "velocity": 100,
      "chip": "ym2612"
    },
    {
      "channel": 1,
      "note": 72,
      "start": 45.8818,
      "duration": 0.0161,
      "velocity": 127,
      "chip": "ym2612"
    },
    {
      "channel": 0,
      "note": 36,
      "start": 45.8836,
      "duration": 0.016,
      "velocity": 115,
      "chip": "ym2612"
    },
    {
      "channel": 5,
      "note": 83,
      "start": 45.8847,
      "duration": 0.016,
      "velocity": 89,
      "chip": "ym2612"
    },
    {
      "channel": 3,
      "note": 83,
      "start": 45.8859,
      "duration": 0.016,
      "velocity": 89,
      "chip": "ym2612"
    },
    {
      "channel": 2,
      "note": 76,
      "start": 45.8871,
      "duration": 0.016,
      "velocity": 105,
      "chip": "ym2612"
    },
    {
      "channel": 4,
      "note": 52,
      "start": 45.8884,
      "duration": 0.0159,
      "velocity": 100,
      "chip": "ym2612"
    },
    {
      "channel": 1,
      "note": 72,
      "start": 45.8979,
      "duration": 0.0161,
      "velocity": 127,
      "chip": "ym2612"
    },
    {
      "channel": 0,
      "note": 37,
      "start": 45.8996,
      "duration": 0.0161,
      "velocity": 115,
      "chip": "ym2612"
    },
    {
      "channel": 5,
      "note": 83,
      "start": 45.9008,
      "duration": 0.0161,
      "velocity": 89,
      "chip": "ym2612"
    },
    {
      "channel": 3,
      "note": 83,
      "start": 45.9019,
      "duration": 0.0161,
      "velocity": 89,
      "chip": "ym2612"
    },
    {
      "channel": 2,
      "note": 76,
      "start": 45.9031,
      "duration": 0.0162,
      "velocity": 105,
      "chip": "ym2612"
    },
    {
      "channel": 4,
      "note": 52,
      "start": 45.9043,
      "duration": 0.0161,
      "velocity": 100,
      "chip": "ym2612"
    },
    {
      "channel": 1,
      "note": 72,
      "start": 45.914,
      "duration": 0.0161,
      "velocity": 127,
      "chip": "ym2612"
    },
    {
      "channel": 0,
      "note": 37,
      "start": 45.9157,
      "duration": 0.0161,
      "velocity": 115,
      "chip": "ym2612"
    },
    {
      "channel": 5,
      "note": 83,
      "start": 45.9169,
      "duration": 0.0161,
      "velocity": 89,
      "chip": "ym2612"
    },
    {
      "channel": 3,
      "note": 83,
      "start": 45.918,
      "duration": 0.0161,
      "velocity": 89,
      "chip": "ym2612"
    },
    {
      "channel": 2,
      "note": 76,
      "start": 45.9192,
      "duration": 0.0161,
      "velocity": 105,
      "chip": "ym2612"
    },
    {
      "channel": 4,
      "note": 52,
      "start": 45.9204,
      "duration": 0.0161,
      "velocity": 100,
      "chip": "ym2612"
    },
    {
      "channel": 1,
      "note": 72,
      "start": 45.9301,
      "duration": 0.0161,
      "velocity": 127,
      "chip": "ym2612"
    },
    {
      "channel": 0,
      "note": 38,
      "start": 45.9318,
      "duration": 0.0162,
      "velocity": 115,
      "chip": "ym2612"
    },
    {
      "channel": 5,
      "note": 83,
      "start": 45.933,
      "duration": 0.0161,
      "velocity": 89,
      "chip": "ym2612"
    },
    {
      "channel": 3,
      "note": 83,
      "start": 45.9342,
      "duration": 0.0162,
      "velocity": 89,
      "chip": "ym2612"
    },
    {
      "channel": 4,
      "note": 52,
      "start": 45.9365,
      "duration": 0.0162,
      "velocity": 100,
      "chip": "ym2612"
    },
    {
      "channel": 1,
      "note": 72,
      "start": 45.9463,
      "duration": 0.0162,
      "velocity": 127,
      "chip": "ym2612"
    },
    {
      "channel": 0,
      "note": 38,
      "start": 45.948,
      "duration": 0.0162,
      "velocity": 115,
      "chip": "ym2612"
    },
    {
      "channel": 5,
      "note": 83,
      "start": 45.9491,
      "duration": 0.0162,
      "velocity": 89,
      "chip": "ym2612"
    },
    {
      "channel": 3,
      "note": 83,
      "start": 45.9503,
      "duration": 0.0161,
      "velocity": 89,
      "chip": "ym2612"
    },
    {
      "channel": 4,
      "note": 52,
      "start": 45.9526,
      "duration": 0.0161,
      "velocity": 100,
      "chip": "ym2612"
    },
    {
      "channel": 1,
      "note": 72,
      "start": 45.9625,
      "duration": 0.0163,
      "velocity": 127,
      "chip": "ym2612"
    },
    {
      "channel": 0,
      "note": 39,
      "start": 45.9641,
      "duration": 0.0163,
      "velocity": 115,
      "chip": "ym2612"
    },
    {
      "channel": 5,
      "note": 83,
      "start": 45.9654,
      "duration": 0.0163,
      "velocity": 89,
      "chip": "ym2612"
    },
    {
      "channel": 3,
      "note": 83,
      "start": 45.9665,
      "duration": 0.0163,
      "velocity": 89,
      "chip": "ym2612"
    },
    {
      "channel": 4,
      "note": 52,
      "start": 45.9688,
      "duration": 0.0169,
      "velocity": 100,
      "chip": "ym2612"
    },
    {
      "channel": 1,
      "note": 72,
      "start": 45.9788,
      "duration": 0.0163,
      "velocity": 127,
      "chip": "ym2612"
    },
    {
      "channel": 0,
      "note": 39,
      "start": 45.9805,
      "duration": 0.0163,
      "velocity": 115,
      "chip": "ym2612"
    },
    {
      "channel": 5,
      "note": 83,
      "start": 45.9817,
      "duration": 0.0163,
      "velocity": 89,
      "chip": "ym2612"
    },
    {
      "channel": 3,
      "note": 83,
      "start": 45.9828,
      "duration": 0.0163,
      "velocity": 89,
      "chip": "ym2612"
    },
    {
      "channel": 2,
      "note": 76,
      "start": 45.9844,
      "duration": 0.016,
      "velocity": 105,
      "chip": "ym2612"
    },
    {
      "channel": 4,
      "note": 52,
      "start": 45.9857,
      "duration": 0.0159,
      "velocity": 100,
      "chip": "ym2612"
    },
    {
      "channel": 1,
      "note": 72,
      "start": 45.9951,
      "duration": 0.016,
      "velocity": 127,
      "chip": "ym2612"
    },
    {
      "channel": 0,
      "note": 40,
      "start": 45.9968,
      "duration": 0.0161,
      "velocity": 115,
      "chip": "ym2612"
    },
    {
      "channel": 5,
      "note": 83,
      "start": 45.998,
      "duration": 0.0161,
      "velocity": 89,
      "chip": "ym2612"
    },
    {
      "channel": 3,
      "note": 83,
      "start": 45.9992,
      "duration": 0.0161,
      "velocity": 89,
      "chip": "ym2612"
    },
    {
      "channel": 2,
      "note": 76,
      "start": 46.0004,
      "duration": 0.016,
      "velocity": 105,
      "chip": "ym2612"
    },
    {
      "channel": 4,
      "note": 52,
      "start": 46.0016,
      "duration": 0.016,
      "velocity": 100,
      "chip": "ym2612"
    },
    {
      "channel": 1,
      "note": 72,
      "start": 46.0112,
      "duration": 0.0156,
      "velocity": 127,
      "chip": "ym2612"
    },
    {
      "channel": 0,
      "note": 40,
      "start": 46.0129,
      "duration": 0.0161,
      "velocity": 115,
      "chip": "ym2612"
    },
    {
      "channel": 5,
      "note": 83,
      "start": 46.0141,
      "duration": 0.0161,
      "velocity": 89,
      "chip": "ym2612"
    },
    {
      "channel": 3,
      "note": 83,
      "start": 46.0153,
      "duration": 0.016,
      "velocity": 89,
      "chip": "ym2612"
    },
    {
      "channel": 2,
      "note": 76,
      "start": 46.0164,
      "duration": 0.0161,
      "velocity": 105,
      "chip": "ym2612"
    },
    {
      "channel": 4,
      "note": 52,
      "start": 46.0176,
      "duration": 0.016,
      "velocity": 100,
      "chip": "ym2612"
    },
    {
      "channel": 1,
      "note": 72,
      "start": 46.0267,
      "duration": 0.0159,
      "velocity": 1,
      "chip": "ym2612"
    },
    {
      "channel": 0,
      "note": 40,
      "start": 46.029,
      "duration": 0.0158,
      "velocity": 115,
      "chip": "ym2612"
    },
    {
      "channel": 5,
      "note": 83,
      "start": 46.0302,
      "duration": 0.0159,
      "velocity": 89,
      "chip": "ym2612"
    },
    {
      "channel": 3,
      "note": 83,
      "start": 46.0313,
      "duration": 0.0159,
      "velocity": 89,
      "chip": "ym2612"
    },
    {
      "channel": 2,
      "note": 76,
      "start": 46.0325,
      "duration": 0.0159,
      "velocity": 105,
      "chip": "ym2612"
    },
    {
      "channel": 4,
      "note": 52,
      "start": 46.0337,
      "duration": 0.0158,
      "velocity": 100,
      "chip": "ym2612"
    },
    {
      "channel": 0,
      "note": 41,
      "start": 46.0448,
      "duration": 0.0147,
      "velocity": 115,
      "chip": "ym2612"
    },
    {
      "channel": 5,
      "note": 83,
      "start": 46.046,
      "duration": 0.0152,
      "velocity": 89,
      "chip": "ym2612"
    },
    {
      "channel": 3,
      "note": 83,
      "start": 46.0472,
      "duration": 0.0152,
      "velocity": 89,
      "chip": "ym2612"
    },
    {
      "channel": 2,
      "note": 76,
      "start": 46.0484,
      "duration": 0.0153,
      "velocity": 105,
      "chip": "ym2612"
    },
    {
      "channel": 4,
      "note": 52,
      "start": 46.0495,
      "duration": 0.0153,
      "velocity": 100,
      "chip": "ym2612"
    },
    {
      "channel": 0,
      "note": 41,
      "start": 46.0595,
      "duration": 0.0161,
      "velocity": 115,
      "chip": "ym2612"
    },
    {
      "channel": 5,
      "note": 83,
      "start": 46.0612,
      "duration": 0.0158,
      "velocity": 89,
      "chip": "ym2612"
    },
    {
      "channel": 3,
      "note": 83,
      "start": 46.0624,
      "duration": 0.0161,
      "velocity": 89,
      "chip": "ym2612"
    },
    {
      "channel": 2,
      "note": 76,
      "start": 46.0636,
      "duration": 0.016,
      "velocity": 105,
      "chip": "ym2612"
    },
    {
      "channel": 4,
      "note": 52,
      "start": 46.0648,
      "duration": 0.016,
      "velocity": 100,
      "chip": "ym2612"
    },
    {
      "channel": 0,
      "note": 42,
      "start": 46.0756,
      "duration": 0.0215,
      "velocity": 115,
      "chip": "ym2612"
    },
    {
      "channel": 5,
      "note": 83,
      "start": 46.077,
      "duration": 0.0212,
      "velocity": 89,
      "chip": "ym2612"
    },
    {
      "channel": 3,
      "note": 83,
      "start": 46.0785,
      "duration": 0.0209,
      "velocity": 89,
      "chip": "ym2612"
    },
    {
      "channel": 2,
      "note": 76,
      "start": 46.0797,
      "duration": 0.0209,
      "velocity": 105,
      "chip": "ym2612"
    },
    {
      "channel": 4,
      "note": 52,
      "start": 46.0808,
      "duration": 0.0212,
      "velocity": 100,
      "chip": "ym2612"
    },
    {
      "channel": 1,
      "note": 72,
      "start": 46.0929,
      "duration": 0.0144,
      "velocity": 127,
      "chip": "ym2612"
    },
    {
      "channel": 0,
      "note": 36,
      "start": 46.097,
      "duration": 0.012,
      "velocity": 115,
      "chip": "ym2612"
    },
    {
      "channel": 5,
      "note": 83,
      "start": 46.0982,
      "duration": 0.0122,
      "velocity": 89,
      "chip": "ym2612"
    },
    {
      "channel": 3,
      "note": 83,
      "start": 46.0994,
      "duration": 0.0126,
      "velocity": 89,
      "chip": "ym2612"
    },
    {
      "channel": 2,
      "note": 76,
      "start": 46.1005,
      "duration": 0.0126,
      "velocity": 105,
      "chip": "ym2612"
    },
    {
      "channel": 4,
      "note": 57,
      "start": 46.102,
      "duration": 0.0123,
      "velocity": 100,
      "chip": "ym2612"
    },
    {
      "channel": 1,
      "note": 72,
      "start": 46.1073,
      "duration": 0.0161,
      "velocity": 127,
      "chip": "ym2612"
    },
    {
      "channel": 0,
      "note": 36,
      "start": 46.109,
      "duration": 0.016,
      "velocity": 115,
      "chip": "ym2612"
    },
    {
      "channel": 5,
      "note": 83,
      "start": 46.1105,
      "duration": 0.0158,
      "velocity": 89,
      "chip": "ym2612"
    },
    {
      "channel": 3,
      "note": 83,
      "start": 46.112,
      "duration": 0.0159,
      "velocity": 89,
      "chip": "ym2612"
    },
    {
      "channel": 2,
      "note": 76,
      "start": 46.1131,
      "duration": 0.016,
      "velocity": 105,
      "chip": "ym2612"
    },
    {
      "channel": 4,
      "note": 57,
      "start": 46.1143,
      "duration": 0.016,
      "velocity": 100,
      "chip": "ym2612"
    },
    {
      "channel": 1,
      "note": 72,
      "start": 46.1234,
      "duration": 0.0161,
      "velocity": 127,
      "chip": "ym2612"
    },
    {
      "channel": 0,
      "note": 37,
      "start": 46.125,
      "duration": 0.0161,
      "velocity": 115,
      "chip": "ym2612"
    },
    {
      "channel": 5,
      "note": 83,
      "start": 46.1262,
      "duration": 0.0161,
      "velocity": 89,
      "chip": "ym2612"
    },
    {
      "channel": 3,
      "note": 83,
      "start": 46.1279,
      "duration": 0.0158,
      "velocity": 89,
      "chip": "ym2612"
    },
    {
      "channel": 2,
      "note": 76,
      "start": 46.1291,
      "duration": 0.0161,
      "velocity": 105,
      "chip": "ym2612"
    },
    {
      "channel": 4,
      "note": 57,
      "start": 46.1303,
      "duration": 0.0161,
      "velocity": 100,
      "chip": "ym2612"
    },
    {
      "channel": 1,
      "note": 72,
      "start": 46.1395,
      "duration": 0.0161,
      "velocity": 127,
      "chip": "ym2612"
    },
    {
      "channel": 0,
      "note": 37,
      "start": 46.1411,
      "duration": 0.0162,
      "velocity": 115,
      "chip": "ym2612"
    },
    {
      "channel": 5,
      "note": 83,
      "start": 46.1423,
      "duration": 0.0161,
      "velocity": 89,
      "chip": "ym2612"
    },
    {
      "channel": 3,
      "note": 83,
      "start": 46.1437,
      "duration": 0.0159,
      "velocity": 89,
      "chip": "ym2612"
    },
    {
      "channel": 2,
      "note": 76,
      "start": 46.1452,
      "duration": 0.016,
      "velocity": 105,
      "chip": "ym2612"
    },
    {
      "channel": 4,
      "note": 57,
      "start": 46.1464,
      "duration": 0.0161,
      "velocity": 100,
      "chip": "ym2612"
    },
    {
      "channel": 1,
      "note": 72,
      "start": 46.1556,
      "duration": 0.0161,
      "velocity": 127,
      "chip": "ym2612"
    },
    {
      "channel": 0,
      "note": 38,
      "start": 46.1573,
      "duration": 0.0161,
      "velocity": 115,
      "chip": "ym2612"
    },
    {
      "channel": 5,
      "note": 83,
      "start": 46.1584,
      "duration": 0.0161,
      "velocity": 89,
      "chip": "ym2612"
    },
    {
      "channel": 3,
      "note": 83,
      "start": 46.1596,
      "duration": 0.0161,
      "velocity": 89,
      "chip": "ym2612"
    },
    {
      "channel": 4,
      "note": 57,
      "start": 46.1625,
      "duration": 0.0161,
      "velocity": 100,
      "chip": "ym2612"
    },
    {
      "channel": 1,
      "note": 72,
      "start": 46.1717,
      "duration": 0.0161,
      "velocity": 127,
      "chip": "ym2612"
    },
    {
      "channel": 0,
      "note": 38,
      "start": 46.1734,
      "duration": 0.0161,
      "velocity": 115,
      "chip": "ym2612"
    },
    {
      "channel": 5,
      "note": 83,
      "start": 46.1745,
      "duration": 0.0161,
      "velocity": 89,
      "chip": "ym2612"
    },
    {
      "channel": 3,
      "note": 83,
      "start": 46.1756,
      "duration": 0.0161,
      "velocity": 89,
      "chip": "ym2612"
    },
    {
      "channel": 4,
      "note": 57,
      "start": 46.1786,
      "duration": 0.016,
      "velocity": 100,
      "chip": "ym2612"
    },
    {
      "channel": 1,
      "note": 72,
      "start": 46.1877,
      "duration": 0.0178,
      "velocity": 127,
      "chip": "ym2612"
    },
    {
      "channel": 0,
      "note": 39,
      "start": 46.1895,
      "duration": 0.0197,
      "velocity": 115,
      "chip": "ym2612"
    },
    {
      "channel": 5,
      "note": 83,
      "start": 46.1906,
      "duration": 0.0199,
      "velocity": 89,
      "chip": "ym2612"
    },
    {
      "channel": 3,
      "note": 83,
      "start": 46.1917,
      "duration": 0.0203,
      "velocity": 89,
      "chip": "ym2612"
    },
    {
      "channel": 4,
      "note": 57,
      "start": 46.1946,
      "duration": 0.0204,
      "velocity": 100,
      "chip": "ym2612"
    },
    {
      "channel": 1,
      "note": 72,
      "start": 46.2056,
      "duration": 0.0144,
      "velocity": 127,
      "chip": "ym2612"
    },
    {
      "channel": 0,
      "note": 36,
      "start": 46.2092,
      "duration": 0.0126,
      "velocity": 115,
      "chip": "ym2612"
    },
    {
      "channel": 5,
      "note": 83,
      "start": 46.2105,
      "duration": 0.0124,
      "velocity": 89,
      "chip": "ym2612"
    },
    {
      "channel": 3,
      "note": 83,
      "start": 46.212,
      "duration": 0.012,
      "velocity": 89,
      "chip": "ym2612"
    },
    {
      "channel": 2,
      "note": 76,
      "start": 46.2136,
      "duration": 0.0118,
      "velocity": 105,
      "chip": "ym2612"
    },
    {
      "channel": 4,
      "note": 55,
      "start": 46.215,
      "duration": 0.0115,
      "velocity": 100,
      "chip": "ym2612"
    },
    {
      "channel": 1,
      "note": 72,
      "start": 46.22,
      "duration": 0.016,
      "velocity": 127,
      "chip": "ym2612"
    },
    {
      "channel": 0,
      "note": 36,
      "start": 46.2218,
      "duration": 0.016,
      "velocity": 115,
      "chip": "ym2612"
    },
    {
      "channel": 5,
      "note": 83,
      "start": 46.2229,
      "duration": 0.016,
      "velocity": 89,
      "chip": "ym2612"
    },
    {
      "channel": 3,
      "note": 83,
      "start": 46.2241,
      "duration": 0.016,
      "velocity": 89,
      "chip": "ym2612"
    },
    {
      "channel": 2,
      "note": 76,
      "start": 46.2253,
      "duration": 0.0159,
      "velocity": 105,
      "chip": "ym2612"
    },
    {
      "channel": 4,
      "note": 55,
      "start": 46.2266,
      "duration": 0.0158,
      "velocity": 100,
      "chip": "ym2612"
    },
    {
      "channel": 1,
      "note": 72,
      "start": 46.236,
      "duration": 0.0161,
      "velocity": 127,
      "chip": "ym2612"
    },
    {
      "channel": 0,
      "note": 37,
      "start": 46.2377,
      "duration": 0.0161,
      "velocity": 115,
      "chip": "ym2612"
    },
    {
      "channel": 5,
      "note": 83,
      "start": 46.2389,
      "duration": 0.0161,
      "velocity": 89,
      "chip": "ym2612"
    },
    {
      "channel": 3,
      "note": 83,
      "start": 46.2401,
      "duration": 0.0161,
      "velocity": 89,
      "chip": "ym2612"
    },
    {
      "channel": 2,
      "note": 76,
      "start": 46.2412,
      "duration": 0.0161,
      "velocity": 105,
      "chip": "ym2612"
    },
    {
      "channel": 4,
      "note": 55,
      "start": 46.2424,
      "duration": 0.0161,
      "velocity": 100,
      "chip": "ym2612"
    },
    {
      "channel": 1,
      "note": 72,
      "start": 46.2521,
      "duration": 0.0162,
      "velocity": 127,
      "chip": "ym2612"
    },
    {
      "channel": 0,
      "note": 37,
      "start": 46.2538,
      "duration": 0.0161,
      "velocity": 115,
      "chip": "ym2612"
    },
    {
      "channel": 5,
      "note": 83,
      "start": 46.255,
      "duration": 0.0161,
      "velocity": 89,
      "chip": "ym2612"
    },
    {
      "channel": 3,
      "note": 83,
      "start": 46.2562,
      "duration": 0.0161,
      "velocity": 89,
      "chip": "ym2612"
    },
    {
      "channel": 2,
      "note": 76,
      "start": 46.2573,
      "duration": 0.0161,
      "velocity": 105,
      "chip": "ym2612"
    },
    {
      "channel": 4,
      "note": 55,
      "start": 46.2585,
      "duration": 0.0161,
      "velocity": 100,
      "chip": "ym2612"
    },
    {
      "channel": 1,
      "note": 72,
      "start": 46.2683,
      "duration": 0.0161,
      "velocity": 127,
      "chip": "ym2612"
    },
    {
      "channel": 0,
      "note": 38,
      "start": 46.2699,
      "duration": 0.0161,
      "velocity": 115,
      "chip": "ym2612"
    },
    {
      "channel": 5,
      "note": 83,
      "start": 46.2711,
      "duration": 0.0161,
      "velocity": 89,
      "chip": "ym2612"
    },
    {
      "channel": 3,
      "note": 83,
      "start": 46.2723,
      "duration": 0.0161,
      "velocity": 89,
      "chip": "ym2612"
    },
    {
      "channel": 4,
      "note": 55,
      "start": 46.2746,
      "duration": 0.016,
      "velocity": 100,
      "chip": "ym2612"
    },
    {
      "channel": 1,
      "note": 72,
      "start": 46.2844,
      "duration": 0.0161,
      "velocity": 127,
      "chip": "ym2612"
    },
    {
      "channel": 0,
      "note": 38,
      "start": 46.286,
      "duration": 0.0161,
      "velocity": 115,
      "chip": "ym2612"
    },
    {
      "channel": 5,
      "note": 83,
      "start": 46.2872,
      "duration": 0.0161,
      "velocity": 89,
      "chip": "ym2612"
    },
    {
      "channel": 3,
      "note": 83,
      "start": 46.2884,
      "duration": 0.0161,
      "velocity": 89,
      "chip": "ym2612"
    },
    {
      "channel": 4,
      "note": 55,
      "start": 46.2907,
      "duration": 0.0161,
      "velocity": 100,
      "chip": "ym2612"
    },
    {
      "channel": 1,
      "note": 72,
      "start": 46.3005,
      "duration": 0.0161,
      "velocity": 127,
      "chip": "ym2612"
    },
    {
      "channel": 0,
      "note": 39,
      "start": 46.3022,
      "duration": 0.0161,
      "velocity": 115,
      "chip": "ym2612"
    },
    {
      "channel": 5,
      "note": 83,
      "start": 46.3033,
      "duration": 0.0161,
      "velocity": 89,
      "chip": "ym2612"
    },
    {
      "channel": 3,
      "note": 83,
      "start": 46.3045,
      "duration": 0.0161,
      "velocity": 89,
      "chip": "ym2612"
    },
    {
      "channel": 4,
      "note": 55,
      "start": 46.3068,
      "duration": 0.0165,
      "velocity": 100,
      "chip": "ym2612"
    },
    {
      "channel": 1,
      "note": 72,
      "start": 46.3166,
      "duration": 0.0161,
      "velocity": 127,
      "chip": "ym2612"
    },
    {
      "channel": 0,
      "note": 39,
      "start": 46.3183,
      "duration": 0.0161,
      "velocity": 115,
      "chip": "ym2612"
    },
    {
      "channel": 5,
      "note": 83,
      "start": 46.3194,
      "duration": 0.0161,
      "velocity": 89,
      "chip": "ym2612"
    },
    {
      "channel": 3,
      "note": 83,
      "start": 46.3206,
      "duration": 0.0161,
      "velocity": 89,
      "chip": "ym2612"
    },
    {
      "channel": 2,
      "note": 76,
      "start": 46.322,
      "duration": 0.0159,
      "velocity": 105,
      "chip": "ym2612"
    },
    {
      "channel": 4,
      "note": 55,
      "start": 46.3232,
      "duration": 0.0158,
      "velocity": 100,
      "chip": "ym2612"
    },
    {
      "channel": 1,
      "note": 72,
      "start": 46.3327,
      "duration": 0.0161,
      "velocity": 127,
      "chip": "ym2612"
    },
    {
      "channel": 0,
      "note": 40,
      "start": 46.3344,
      "duration": 0.0161,
      "velocity": 115,
      "chip": "ym2612"
    },
    {
      "channel": 5,
      "note": 83,
      "start": 46.3355,
      "duration": 0.0161,
      "velocity": 89,
      "chip": "ym2612"
    },
    {
      "channel": 3,
      "note": 83,
      "start": 46.3367,
      "duration": 0.0161,
      "velocity": 89,
      "chip": "ym2612"
    },
    {
      "channel": 2,
      "note": 76,
      "start": 46.3379,
      "duration": 0.0161,
      "velocity": 105,
      "chip": "ym2612"
    },
    {
      "channel": 4,
      "note": 55,
      "start": 46.3391,
      "duration": 0.0161,
      "velocity": 100,
      "chip": "ym2612"
    },
    {
      "channel": 1,
      "note": 72,
      "start": 46.3488,
      "duration": 0.0161,
      "velocity": 127,
      "chip": "ym2612"
    },
    {
      "channel": 0,
      "note": 40,
      "start": 46.3505,
      "duration": 0.0161,
      "velocity": 115,
      "chip": "ym2612"
    },
    {
      "channel": 5,
      "note": 83,
      "start": 46.3516,
      "duration": 0.0161,
      "velocity": 89,
      "chip": "ym2612"
    },
    {
      "channel": 3,
      "note": 83,
      "start": 46.3527,
      "duration": 0.0162,
      "velocity": 89,
      "chip": "ym2612"
    },
    {
      "channel": 2,
      "note": 76,
      "start": 46.354,
      "duration": 0.0161,
      "velocity": 105,
      "chip": "ym2612"
    },
    {
      "channel": 4,
      "note": 55,
      "start": 46.3552,
      "duration": 0.016,
      "velocity": 100,
      "chip": "ym2612"
    },
    {
      "channel": 1,
      "note": 72,
      "start": 46.3648,
      "duration": 0.0161,
      "velocity": 127,
      "chip": "ym2612"
    },
    {
      "channel": 0,
      "note": 40,
      "start": 46.3666,
      "duration": 0.0161,
      "velocity": 115,
      "chip": "ym2612"
    },
    {
      "channel": 5,
      "note": 83,
      "start": 46.3677,
      "duration": 0.0161,
      "velocity": 89,
      "chip": "ym2612"
    },
    {
      "channel": 3,
      "note": 83,
      "start": 46.3689,
      "duration": 0.0161,
      "velocity": 89,
      "chip": "ym2612"
    },
    {
      "channel": 2,
      "note": 76,
      "start": 46.37,
      "duration": 0.0161,
      "velocity": 105,
      "chip": "ym2612"
    },
    {
      "channel": 4,
      "note": 55,
      "start": 46.3712,
      "duration": 0.0161,
      "velocity": 100,
      "chip": "ym2612"
    },
    {
      "channel": 1,
      "note": 72,
      "start": 46.3809,
      "duration": 0.0161,
      "velocity": 127,
      "chip": "ym2612"
    },
    {
      "channel": 0,
      "note": 41,
      "start": 46.3827,
      "duration": 0.0161,
      "velocity": 115,
      "chip": "ym2612"
    },
    {
      "channel": 5,
      "note": 83,
      "start": 46.3838,
      "duration": 0.0161,
      "velocity": 89,
      "chip": "ym2612"
    },
    {
      "channel": 3,
      "note": 83,
      "start": 46.385,
      "duration": 0.0161,
      "velocity": 89,
      "chip": "ym2612"
    },
    {
      "channel": 4,
      "note": 55,
      "start": 46.3873,
      "duration": 0.0161,
      "velocity": 100,
      "chip": "ym2612"
    },
    {
      "channel": 1,
      "note": 72,
      "start": 46.397,
      "duration": 0.0161,
      "velocity": 127,
      "chip": "ym2612"
    },
    {
      "channel": 0,
      "note": 41,
      "start": 46.3988,
      "duration": 0.0161,
      "velocity": 115,
      "chip": "ym2612"
    },
    {
      "channel": 5,
      "note": 83,
      "start": 46.3999,
      "duration": 0.0162,
      "velocity": 89,
      "chip": "ym2612"
    },
    {
      "channel": 3,
      "note": 83,
      "start": 46.4011,
      "duration": 0.0161,
      "velocity": 89,
      "chip": "ym2612"
    },
    {
      "channel": 4,
      "note": 55,
      "start": 46.4034,
      "duration": 0.0161,
      "velocity": 100,
      "chip": "ym2612"
    },
    {
      "channel": 1,
      "note": 72,
      "start": 46.4132,
      "duration": 0.0179,
      "velocity": 127,
      "chip": "ym2612"
    },
    {
      "channel": 0,
      "note": 42,
      "start": 46.4148,
      "duration": 0.0198,
      "velocity": 115,
      "chip": "ym2612"
    },
    {
      "channel": 5,
      "note": 83,
      "start": 46.4161,
      "duration": 0.0198,
      "velocity": 89,
      "chip": "ym2612"
    },
    {
      "channel": 3,
      "note": 83,
      "start": 46.4172,
      "duration": 0.0198,
      "velocity": 89,
      "chip": "ym2612"
    },
    {
      "channel": 4,
      "note": 55,
      "start": 46.4195,
      "duration": 0.0205,
      "velocity": 100,
      "chip": "ym2612"
    },
    {
      "channel": 1,
      "note": 72,
      "start": 46.4311,
      "duration": 0.0146,
      "velocity": 127,
      "chip": "ym2612"
    },
    {
      "channel": 0,
      "note": 36,
      "start": 46.4347,
      "duration": 0.0128,
      "velocity": 115,
      "chip": "ym2612"
    },
    {
      "channel": 5,
      "note": 83,
      "start": 46.4358,
      "duration": 0.0129,
      "velocity": 89,
      "chip": "ym2612"
    },
    {
      "channel": 3,
      "note": 83,
      "start": 46.437,
      "duration": 0.0128,
      "velocity": 89,
      "chip": "ym2612"
    },
    {
      "channel": 2,
      "note": 76,
      "start": 46.4386,
      "duration": 0.0125,
      "velocity": 105,
      "chip": "ym2612"
    },
    {
      "channel": 4,
      "note": 54,
      "start": 46.44,
      "duration": 0.0123,
      "velocity": 100,
      "chip": "ym2612"
    },
    {
      "channel": 1,
      "note": 72,
      "start": 46.4458,
      "duration": 0.0162,
      "velocity": 127,
      "chip": "ym2612"
    },
    {
      "channel": 0,
      "note": 36,
      "start": 46.4475,
      "duration": 0.0162,
      "velocity": 115,
      "chip": "ym2612"
    },
    {
      "channel": 5,
      "note": 83,
      "start": 46.4487,
      "duration": 0.0161,
      "velocity": 89,
      "chip": "ym2612"
    },
    {
      "channel": 3,
      "note": 83,
      "start": 46.4498,
      "duration": 0.0162,
      "velocity": 89,
      "chip": "ym2612"
    },
    {
      "channel": 2,
      "note": 76,
      "start": 46.451,
      "duration": 0.0161,
      "velocity": 105,
      "chip": "ym2612"
    },
    {
      "channel": 4,
      "note": 54,
      "start": 46.4522,
      "duration": 0.0161,
      "velocity": 100,
      "chip": "ym2612"
    },
    {
      "channel": 1,
      "note": 72,
      "start": 46.462,
      "duration": 0.0162,
      "velocity": 127,
      "chip": "ym2612"
    },
    {
      "channel": 0,
      "note": 37,
      "start": 46.4637,
      "duration": 0.0161,
      "velocity": 115,
      "chip": "ym2612"
    },
    {
      "channel": 5,
      "note": 83,
      "start": 46.4648,
      "duration": 0.0162,
      "velocity": 89,
      "chip": "ym2612"
    },
    {
      "channel": 3,
      "note": 83,
      "start": 46.466,
      "duration": 0.0162,
      "velocity": 89,
      "chip": "ym2612"
    },
    {
      "channel": 2,
      "note": 76,
      "start": 46.4672,
      "duration": 0.0162,
      "velocity": 105,
      "chip": "ym2612"
    },
    {
      "channel": 4,
      "note": 54,
      "start": 46.4683,
      "duration": 0.0161,
      "velocity": 100,
      "chip": "ym2612"
    },
    {
      "channel": 1,
      "note": 72,
      "start": 46.4781,
      "duration": 0.0161,
      "velocity": 127,
      "chip": "ym2612"
    },
    {
      "channel": 0,
      "note": 37,
      "start": 46.4798,
      "duration": 0.0161,
      "velocity": 115,
      "chip": "ym2612"
    },
    {
      "channel": 5,
      "note": 83,
      "start": 46.481,
      "duration": 0.0161,
      "velocity": 89,
      "chip": "ym2612"
    },
    {
      "channel": 3,
      "note": 83,
      "start": 46.4822,
      "duration": 0.0161,
      "velocity": 89,
      "chip": "ym2612"
    },
    {
      "channel": 2,
      "note": 76,
      "start": 46.4834,
      "duration": 0.0161,
      "velocity": 105,
      "chip": "ym2612"
    },
    {
      "channel": 4,
      "note": 54,
      "start": 46.4845,
      "duration": 0.0161,
      "velocity": 100,
      "chip": "ym2612"
    },
    {
      "channel": 1,
      "note": 72,
      "start": 46.4942,
      "duration": 0.0155,
      "velocity": 127,
      "chip": "ym2612"
    },
    {
      "channel": 0,
      "note": 38,
      "start": 46.4959,
      "duration": 0.0161,
      "velocity": 115,
      "chip": "ym2612"
    },
    {
      "channel": 5,
      "note": 83,
      "start": 46.4971,
      "duration": 0.0161,
      "velocity": 89,
      "chip": "ym2612"
    },
    {
      "channel": 3,
      "note": 83,
      "start": 46.4983,
      "duration": 0.0161,
      "velocity": 89,
      "chip": "ym2612"
    },
    {
      "channel": 2,
      "note": 76,
      "start": 46.4994,
      "duration": 0.0161,
      "velocity": 105,
      "chip": "ym2612"
    },
    {
      "channel": 4,
      "note": 54,
      "start": 46.5006,
      "duration": 0.0161,
      "velocity": 100,
      "chip": "ym2612"
    },
    {
      "channel": 1,
      "note": 72,
      "start": 46.5098,
      "duration": 0.0161,
      "velocity": 127,
      "chip": "ym2612"
    },
    {
      "channel": 0,
      "note": 38,
      "start": 46.512,
      "duration": 0.0161,
      "velocity": 115,
      "chip": "ym2612"
    },
    {
      "channel": 5,
      "note": 83,
      "start": 46.5132,
      "duration": 0.0162,
      "velocity": 89,
      "chip": "ym2612"
    },
    {
      "channel": 3,
      "note": 83,
      "start": 46.5144,
      "duration": 0.0161,
      "velocity": 89,
      "chip": "ym2612"
    },
    {
      "channel": 2,
      "note": 76,
      "start": 46.5155,
      "duration": 0.0161,
      "velocity": 105,
      "chip": "ym2612"
    },
    {
      "channel": 4,
      "note": 54,
      "start": 46.5167,
      "duration": 0.0161,
      "velocity": 100,
      "chip": "ym2612"
    },
    {
      "channel": 1,
      "note": 72,
      "start": 46.5259,
      "duration": 0.0161,
      "velocity": 127,
      "chip": "ym2612"
    },
    {
      "channel": 0,
      "note": 39,
      "start": 46.5282,
      "duration": 0.016,
      "velocity": 115,
      "chip": "ym2612"
    },
    {
      "channel": 5,
      "note": 83,
      "start": 46.5293,
      "duration": 0.0161,
      "velocity": 89,
      "chip": "ym2612"
    },
    {
      "channel": 3,
      "note": 83,
      "start": 46.5305,
      "duration": 0.0161,
      "velocity": 89,
      "chip": "ym2612"
    },
    {
      "channel": 2,
      "note": 76,
      "start": 46.5316,
      "duration": 0.0161,
      "velocity": 105,
      "chip": "ym2612"
    },
    {
      "channel": 4,
      "note": 54,
      "start": 46.5328,
      "duration": 0.0162,
      "velocity": 100,
      "chip": "ym2612"
    },
    {
      "channel": 1,
      "note": 72,
      "start": 46.5419,
      "duration": 0.0162,
      "velocity": 127,
      "chip": "ym2612"
    },
    {
      "channel": 0,
      "note": 39,
      "start": 46.5442,
      "duration": 0.0155,
      "velocity": 115,
      "chip": "ym2612"
    },
    {
      "channel": 5,
      "note": 83,
      "start": 46.5454,
      "duration": 0.016,
      "velocity": 89,
      "chip": "ym2612"
    },
    {
      "channel": 3,
      "note": 83,
      "start": 46.5466,
      "duration": 0.0161,
      "velocity": 89,
      "chip": "ym2612"
    },
    {
      "channel": 2,
      "note": 76,
      "start": 46.5477,
      "duration": 0.0161,
      "velocity": 105,
      "chip": "ym2612"
    },
    {
      "channel": 4,
      "note": 54,
      "start": 46.549,
      "duration": 0.016,
      "velocity": 100,
      "chip": "ym2612"
    },
    {
      "channel": 1,
      "note": 72,
      "start": 46.5581,
      "duration": 0.0161,
      "velocity": 127,
      "chip": "ym2612"
    },
    {
      "channel": 0,
      "note": 40,
      "start": 46.5598,
      "duration": 0.0161,
      "velocity": 115,
      "chip": "ym2612"
    },
    {
      "channel": 5,
      "note": 83,
      "start": 46.5615,
      "duration": 0.0161,
      "velocity": 89,
      "chip": "ym2612"
    },
    {
      "channel": 3,
      "note": 83,
      "start": 46.5627,
      "duration": 0.0161,
      "velocity": 89,
      "chip": "ym2612"
    },
    {
      "channel": 2,
      "note": 76,
      "start": 46.5638,
      "duration": 0.0161,
      "velocity": 105,
      "chip": "ym2612"
    },
    {
      "channel": 4,
      "note": 54,
      "start": 46.565,
      "duration": 0.0161,
      "velocity": 100,
      "chip": "ym2612"
    },
    {
      "channel": 1,
      "note": 72,
      "start": 46.5742,
      "duration": 0.0161,
      "velocity": 127,
      "chip": "ym2612"
    },
    {
      "channel": 0,
      "note": 40,
      "start": 46.5759,
      "duration": 0.0161,
      "velocity": 115,
      "chip": "ym2612"
    },
    {
      "channel": 5,
      "note": 83,
      "start": 46.5776,
      "duration": 0.0156,
      "velocity": 89,
      "chip": "ym2612"
    },
    {
      "channel": 3,
      "note": 83,
      "start": 46.5788,
      "duration": 0.0161,
      "velocity": 89,
      "chip": "ym2612"
    },
    {
      "channel": 2,
      "note": 76,
      "start": 46.5799,
      "duration": 0.0162,
      "velocity": 105,
      "chip": "ym2612"
    },
    {
      "channel": 4,
      "note": 54,
      "start": 46.5812,
      "duration": 0.016,
      "velocity": 100,
      "chip": "ym2612"
    },
    {
      "channel": 1,
      "note": 72,
      "start": 46.5903,
      "duration": 0.0161,
      "velocity": 127,
      "chip": "ym2612"
    },
    {
      "channel": 0,
      "note": 40,
      "start": 46.592,
      "duration": 0.0161,
      "velocity": 115,
      "chip": "ym2612"
    },
    {
      "channel": 5,
      "note": 83,
      "start": 46.5932,
      "duration": 0.0161,
      "velocity": 89,
      "chip": "ym2612"
    },
    {
      "channel": 3,
      "note": 83,
      "start": 46.5949,
      "duration": 0.016,
      "velocity": 89,
      "chip": "ym2612"
    },
    {
      "channel": 2,
      "note": 76,
      "start": 46.5961,
      "duration": 0.016,
      "velocity": 105,
      "chip": "ym2612"
    },
    {
      "channel": 4,
      "note": 54,
      "start": 46.5972,
      "duration": 0.0161,
      "velocity": 100,
      "chip": "ym2612"
    },
    {
      "channel": 1,
      "note": 72,
      "start": 46.6064,
      "duration": 0.0161,
      "velocity": 127,
      "chip": "ym2612"
    },
    {
      "channel": 0,
      "note": 41,
      "start": 46.6081,
      "duration": 0.0161,
      "velocity": 115,
      "chip": "ym2612"
    },
    {
      "channel": 5,
      "note": 83,
      "start": 46.6093,
      "duration": 0.0161,
      "velocity": 89,
      "chip": "ym2612"
    },
    {
      "channel": 3,
      "note": 83,
      "start": 46.6109,
      "duration": 0.0156,
      "velocity": 89,
      "chip": "ym2612"
    },
    {
      "channel": 4,
      "note": 54,
      "start": 46.6133,
      "duration": 0.0161,
      "velocity": 100,
      "chip": "ym2612"
    },
    {
      "channel": 1,
      "note": 72,
      "start": 46.6225,
      "duration": 0.0161,
      "velocity": 127,
      "chip": "ym2612"
    },
    {
      "channel": 0,
      "note": 41,
      "start": 46.6242,
      "duration": 0.0161,
      "velocity": 115,
      "chip": "ym2612"
    },
    {
      "channel": 5,
      "note": 83,
      "start": 46.6253,
      "duration": 0.0161,
      "velocity": 89,
      "chip": "ym2612"
    },
    {
      "channel": 3,
      "note": 83,
      "start": 46.6265,
      "duration": 0.0161,
      "velocity": 89,
      "chip": "ym2612"
    },
    {
      "channel": 4,
      "note": 54,
      "start": 46.6294,
      "duration": 0.0161,
      "velocity": 100,
      "chip": "ym2612"
    },
    {
      "channel": 1,
      "note": 72,
      "start": 46.6386,
      "duration": 0.0179,
      "velocity": 127,
      "chip": "ym2612"
    },
    {
      "channel": 0,
      "note": 42,
      "start": 46.6403,
      "duration": 0.0199,
      "velocity": 124,
      "chip": "ym2612"
    },
    {
      "channel": 5,
      "note": 83,
      "start": 46.6414,
      "duration": 0.0204,
      "velocity": 89,
      "chip": "ym2612"
    },
    {
      "channel": 3,
      "note": 83,
      "start": 46.6426,
      "duration": 0.0203,
      "velocity": 89,
      "chip": "ym2612"
    },
    {
      "channel": 4,
      "note": 54,
      "start": 46.6455,
      "duration": 0.0203,
      "velocity": 100,
      "chip": "ym2612"
    },
    {
      "channel": 1,
      "note": 79,
      "start": 46.6565,
      "duration": 0.0143,
      "velocity": 127,
      "chip": "ym2612"
    },
    {
      "channel": 0,
      "note": 84,
      "start": 46.6602,
      "duration": 0.0124,
      "velocity": 124,
      "chip": "ym2612"
    },
    {
      "channel": 5,
      "note": 83,
      "start": 46.6618,
      "duration": 0.012,
      "velocity": 89,
      "chip": "ym2612"
    },
    {
      "channel": 3,
      "note": 83,
      "start": 46.6629,
      "duration": 0.012,
      "velocity": 89,
      "chip": "ym2612"
    },
    {
      "channel": 2,
      "note": 76,
      "start": 46.6645,
      "duration": 0.0117,
      "velocity": 105,
      "chip": "ym2612"
    },
    {
      "channel": 4,
      "note": 52,
      "start": 46.6659,
      "duration": 0.012,
      "velocity": 100,
      "chip": "ym2612"
    },
    {
      "channel": 1,
      "note": 79,
      "start": 46.6708,
      "duration": 0.016,
      "velocity": 127,
      "chip": "ym2612"
    },
    {
      "channel": 0,
      "note": 82,
      "start": 46.6726,
      "duration": 0.016,
      "velocity": 124,
      "chip": "ym2612"
    },
    {
      "channel": 5,
      "note": 83,
      "start": 46.6737,
      "duration": 0.016,
      "velocity": 89,
      "chip": "ym2612"
    },
    {
      "channel": 3,
      "note": 83,
      "start": 46.6749,
      "duration": 0.016,
      "velocity": 89,
      "chip": "ym2612"
    },
    {
      "channel": 2,
      "note": 76,
      "start": 46.6762,
      "duration": 0.0159,
      "velocity": 105,
      "chip": "ym2612"
    },
    {
      "channel": 4,
      "note": 52,
      "start": 46.6779,
      "duration": 0.0154,
      "velocity": 100,
      "chip": "ym2612"
    },
    {
      "channel": 1,
      "note": 79,
      "start": 46.6868,
      "duration": 0.0162,
      "velocity": 127,
      "chip": "ym2612"
    },
    {
      "channel": 0,
      "note": 80,
      "start": 46.6886,
      "duration": 0.0161,
      "velocity": 124,
      "chip": "ym2612"
    },
    {
      "channel": 5,
      "note": 83,
      "start": 46.6897,
      "duration": 0.0162,
      "velocity": 89,
      "chip": "ym2612"
    },
    {
      "channel": 3,
      "note": 83,
      "start": 46.6909,
      "duration": 0.0161,
      "velocity": 89,
      "chip": "ym2612"
    },
    {
      "channel": 2,
      "note": 76,
      "start": 46.6921,
      "duration": 0.0161,
      "velocity": 105,
      "chip": "ym2612"
    },
    {
      "channel": 4,
      "note": 52,
      "start": 46.6932,
      "duration": 0.0161,
      "velocity": 100,
      "chip": "ym2612"
    },
    {
      "channel": 1,
      "note": 79,
      "start": 46.703,
      "duration": 0.0161,
      "velocity": 127,
      "chip": "ym2612"
    },
    {
      "channel": 0,
      "note": 77,
      "start": 46.7047,
      "duration": 0.0161,
      "velocity": 124,
      "chip": "ym2612"
    },
    {
      "channel": 5,
      "note": 83,
      "start": 46.7059,
      "duration": 0.0161,
      "velocity": 89,
      "chip": "ym2612"
    },
    {
      "channel": 3,
      "note": 83,
      "start": 46.707,
      "duration": 0.0161,
      "velocity": 89,
      "chip": "ym2612"
    },
    {
      "channel": 2,
      "note": 76,
      "start": 46.7082,
      "duration": 0.0161,
      "velocity": 105,
      "chip": "ym2612"
    },
    {
      "channel": 4,
      "note": 52,
      "start": 46.7093,
      "duration": 0.0162,
      "velocity": 100,
      "chip": "ym2612"
    },
    {
      "channel": 1,
      "note": 79,
      "start": 46.7191,
      "duration": 0.0161,
      "velocity": 127,
      "chip": "ym2612"
    },
    {
      "channel": 0,
      "note": 75,
      "start": 46.7208,
      "duration": 0.0161,
      "velocity": 124,
      "chip": "ym2612"
    },
    {
      "channel": 5,
      "note": 83,
      "start": 46.722,
      "duration": 0.0161,
      "velocity": 89,
      "chip": "ym2612"
    },
    {
      "channel": 3,
      "note": 83,
      "start": 46.7231,
      "duration": 0.0161,
      "velocity": 89,
      "chip": "ym2612"
    },
    {
      "channel": 4,
      "note": 52,
      "start": 46.7255,
      "duration": 0.016,
      "velocity": 100,
      "chip": "ym2612"
    },
    {
      "channel": 1,
      "note": 79,
      "start": 46.7352,
      "duration": 0.0161,
      "velocity": 127,
      "chip": "ym2612"
    },
    {
      "channel": 0,
      "note": 72,
      "start": 46.7369,
      "duration": 0.0161,
      "velocity": 124,
      "chip": "ym2612"
    },
    {
      "channel": 5,
      "note": 83,
      "start": 46.738,
      "duration": 0.0161,
      "velocity": 89,
      "chip": "ym2612"
    },
    {
      "channel": 3,
      "note": 83,
      "start": 46.7392,
      "duration": 0.0161,
      "velocity": 89,
      "chip": "ym2612"
    },
    {
      "channel": 4,
      "note": 52,
      "start": 46.7415,
      "duration": 0.0161,
      "velocity": 100,
      "chip": "ym2612"
    },
    {
      "channel": 1,
      "note": 79,
      "start": 46.7513,
      "duration": 0.0161,
      "velocity": 127,
      "chip": "ym2612"
    },
    {
      "channel": 0,
      "note": 70,
      "start": 46.753,
      "duration": 0.0161,
      "velocity": 124,
      "chip": "ym2612"
    },
    {
      "channel": 5,
      "note": 83,
      "start": 46.7541,
      "duration": 0.0161,
      "velocity": 89,
      "chip": "ym2612"
    },
    {
      "channel": 3,
      "note": 83,
      "start": 46.7553,
      "duration": 0.0161,
      "velocity": 89,
      "chip": "ym2612"
    },
    {
      "channel": 4,
      "note": 52,
      "start": 46.7576,
      "duration": 0.0165,
      "velocity": 100,
      "chip": "ym2612"
    },
    {
      "channel": 1,
      "note": 79,
      "start": 46.7674,
      "duration": 0.0161,
      "velocity": 127,
      "chip": "ym2612"
    },
    {
      "channel": 0,
      "note": 68,
      "start": 46.7691,
      "duration": 0.0161,
      "velocity": 124,
      "chip": "ym2612"
    },
    {
      "channel": 5,
      "note": 83,
      "start": 46.7702,
      "duration": 0.0161,
      "velocity": 89,
      "chip": "ym2612"
    },
    {
      "channel": 3,
      "note": 83,
      "start": 46.7714,
      "duration": 0.0161,
      "velocity": 89,
      "chip": "ym2612"
    },
    {
      "channel": 2,
      "note": 76,
      "start": 46.7729,
      "duration": 0.0158,
      "velocity": 105,
      "chip": "ym2612"
    },
    {
      "channel": 4,
      "note": 52,
      "start": 46.7741,
      "duration": 0.0159,
      "velocity": 100,
      "chip": "ym2612"
    },
    {
      "channel": 1,
      "note": 79,
      "start": 46.7835,
      "duration": 0.0161,
      "velocity": 127,
      "chip": "ym2612"
    },
    {
      "channel": 0,
      "note": 65,
      "start": 46.7852,
      "duration": 0.0161,
      "velocity": 124,
      "chip": "ym2612"
    },
    {
      "channel": 5,
      "note": 83,
      "start": 46.7863,
      "duration": 0.0161,
      "velocity": 89,
      "chip": "ym2612"
    },
    {
      "channel": 3,
      "note": 83,
      "start": 46.7875,
      "duration": 0.0161,
      "velocity": 89,
      "chip": "ym2612"
    },
    {
      "channel": 2,
      "note": 76,
      "start": 46.7887,
      "duration": 0.0161,
      "velocity": 105,
      "chip": "ym2612"
    },
    {
      "channel": 4,
      "note": 52,
      "start": 46.7899,
      "duration": 0.0161,
      "velocity": 100,
      "chip": "ym2612"
    },
    {
      "channel": 1,
      "note": 79,
      "start": 46.7996,
      "duration": 0.0161,
      "velocity": 127,
      "chip": "ym2612"
    },
    {
      "channel": 0,
      "note": 63,
      "start": 46.8013,
      "duration": 0.0153,
      "velocity": 1,
      "chip": "ym2612"
    },
    {
      "channel": 5,
      "note": 83,
      "start": 46.8024,
      "duration": 0.0153,
      "velocity": 89,
      "chip": "ym2612"
    },
    {
      "channel": 3,
      "note": 83,
      "start": 46.8036,
      "duration": 0.0153,
      "velocity": 89,
      "chip": "ym2612"
    },
    {
      "channel": 2,
      "note": 76,
      "start": 46.8048,
      "duration": 0.0153,
      "velocity": 105,
      "chip": "ym2612"
    },
    {
      "channel": 4,
      "note": 52,
      "start": 46.806,
      "duration": 0.0152,
      "velocity": 100,
      "chip": "ym2612"
    },
    {
      "channel": 1,
      "note": 79,
      "start": 46.8157,
      "duration": 0.0161,
      "velocity": 127,
      "chip": "ym2612"
    },
    {
      "channel": 5,
      "note": 83,
      "start": 46.8177,
      "duration": 0.0153,
      "velocity": 89,
      "chip": "ym2612"
    },
    {
      "channel": 3,
      "note": 83,
      "start": 46.8189,
      "duration": 0.0152,
      "velocity": 89,
      "chip": "ym2612"
    },
    {
      "channel": 2,
      "note": 76,
      "start": 46.82,
      "duration": 0.0153,
      "velocity": 105,
      "chip": "ym2612"
    },
    {
      "channel": 4,
      "note": 52,
      "start": 46.8212,
      "duration": 0.0153,
      "velocity": 100,
      "chip": "ym2612"
    },
    {
      "channel": 1,
      "note": 79,
      "start": 46.8318,
      "duration": 0.0161,
      "velocity": 127,
      "chip": "ym2612"
    },
    {
      "channel": 5,
      "note": 83,
      "start": 46.833,
      "duration": 0.0161,
      "velocity": 89,
      "chip": "ym2612"
    },
    {
      "channel": 3,
      "note": 83,
      "start": 46.8341,
      "duration": 0.0161,
      "velocity": 89,
      "chip": "ym2612"
    },
    {
      "channel": 4,
      "note": 52,
      "start": 46.8365,
      "duration": 0.0161,
      "velocity": 100,
      "chip": "ym2612"
    },
    {
      "channel": 1,
      "note": 79,
      "start": 46.8478,
      "duration": 0.0162,
      "velocity": 127,
      "chip": "ym2612"
    },
    {
      "channel": 5,
      "note": 83,
      "start": 46.8491,
      "duration": 0.0161,
      "velocity": 89,
      "chip": "ym2612"
    },
    {
      "channel": 3,
      "note": 83,
      "start": 46.8502,
      "duration": 0.0162,
      "velocity": 89,
      "chip": "ym2612"
    },
    {
      "channel": 4,
      "note": 52,
      "start": 46.8526,
      "duration": 0.0161,
      "velocity": 100,
      "chip": "ym2612"
    },
    {
      "channel": 1,
      "note": 79,
      "start": 46.864,
      "duration": 0.0184,
      "velocity": 124,
      "chip": "ym2612"
    },
    {
      "channel": 5,
      "note": 83,
      "start": 46.8651,
      "duration": 0.0239,
      "velocity": 100,
      "chip": "ym2612"
    },
    {
      "channel": 3,
      "note": 83,
      "start": 46.8664,
      "duration": 0.0254,
      "velocity": 100,
      "chip": "ym2612"
    },
    {
      "channel": 4,
      "note": 52,
      "start": 46.8687,
      "duration": 0.0283,
      "velocity": 100,
      "chip": "ym2612"
    },
    {
      "channel": 1,
      "note": 84,
      "start": 46.8825,
      "duration": 0.0181,
      "velocity": 124,
      "chip": "ym2612"
    },
    {
      "channel": 0,
      "note": 36,
      "start": 46.8861,
      "duration": 0.0162,
      "velocity": 115,
      "chip": "ym2612"
    },
    {
      "channel": 5,
      "note": 66,
      "start": 46.889,
      "duration": 0.0146,
      "velocity": 100,
      "chip": "ym2612"
    },
    {
      "channel": 3,
      "note": 74,
      "start": 46.8918,
      "duration": 0.013,
      "velocity": 100,
      "chip": "ym2612"
    },
    {
      "channel": 2,
      "note": 69,
      "start": 46.8954,
      "duration": 0.0106,
      "velocity": 100,
      "chip": "ym2612"
    },
    {
      "channel": 4,
      "note": 50,
      "start": 46.897,
      "duration": 0.0102,
      "velocity": 100,
      "chip": "ym2612"
    },
    {
      "channel": 1,
      "note": 82,
      "start": 46.9006,
      "duration": 0.0123,
      "velocity": 124,
      "chip": "ym2612"
    },
    {
      "channel": 0,
      "note": 36,
      "start": 46.9023,
      "duration": 0.0123,
      "velocity": 115,
      "chip": "ym2612"
    },
    {
      "channel": 5,
      "note": 66,
      "start": 46.9036,
      "duration": 0.0122,
      "velocity": 100,
      "chip": "ym2612"
    },
    {
      "channel": 3,
      "note": 74,
      "start": 46.9048,
      "duration": 0.0122,
      "velocity": 100,
      "chip": "ym2612"
    },
    {
      "channel": 2,
      "note": 69,
      "start": 46.906,
      "duration": 0.0121,
      "velocity": 100,
      "chip": "ym2612"
    },
    {
      "channel": 4,
      "note": 50,
      "start": 46.9072,
      "duration": 0.012,
      "velocity": 100,
      "chip": "ym2612"
    },
    {
      "channel": 1,
      "note": 80,
      "start": 46.9129,
      "duration": 0.0164,
      "velocity": 124,
      "chip": "ym2612"
    },
    {
      "channel": 0,
      "note": 37,
      "start": 46.9146,
      "duration": 0.0165,
      "velocity": 115,
      "chip": "ym2612"
    },
    {
      "channel": 5,
      "note": 66,
      "start": 46.9157,
      "duration": 0.0165,
      "velocity": 100,
      "chip": "ym2612"
    },
    {
      "channel": 3,
      "note": 74,
      "start": 46.9169,
      "duration": 0.0164,
      "velocity": 100,
      "chip": "ym2612"
    },
    {
      "channel": 2,
      "note": 69,
      "start": 46.9181,
      "duration": 0.0164,
      "velocity": 100,
      "chip": "ym2612"
    },
    {
      "channel": 4,
      "note": 50,
      "start": 46.9192,
      "duration": 0.0164,
      "velocity": 100,
      "chip": "ym2612"
    },
    {
      "channel": 1,
      "note": 77,
      "start": 46.9293,
      "duration": 0.0163,
      "velocity": 124,
      "chip": "ym2612"
    },
    {
      "channel": 0,
      "note": 37,
      "start": 46.9311,
      "duration": 0.0163,
      "velocity": 115,
      "chip": "ym2612"
    },
    {
      "channel": 5,
      "note": 66,
      "start": 46.9322,
      "duration": 0.0163,
      "velocity": 100,
      "chip": "ym2612"
    },
    {
      "channel": 3,
      "note": 74,
      "start": 46.9334,
      "duration": 0.0163,
      "velocity": 100,
      "chip": "ym2612"
    },
    {
      "channel": 2,
      "note": 69,
      "start": 46.9345,
      "duration": 0.0163,
      "velocity": 100,
      "chip": "ym2612"
    },
    {
      "channel": 4,
      "note": 50,
      "start": 46.9356,
      "duration": 0.0163,
      "velocity": 100,
      "chip": "ym2612"
    },
    {
      "channel": 1,
      "note": 75,
      "start": 46.9456,
      "duration": 0.0161,
      "velocity": 124,
      "chip": "ym2612"
    },
    {
      "channel": 0,
      "note": 38,
      "start": 46.9473,
      "duration": 0.0161,
      "velocity": 115,
      "chip": "ym2612"
    },
    {
      "channel": 5,
      "note": 66,
      "start": 46.9485,
      "duration": 0.0161,
      "velocity": 100,
      "chip": "ym2612"
    },
    {
      "channel": 3,
      "note": 74,
      "start": 46.9496,
      "duration": 0.0161,
      "velocity": 100,
      "chip": "ym2612"
    },
    {
      "channel": 2,
      "note": 69,
      "start": 46.9508,
      "duration": 0.0162,
      "velocity": 100,
      "chip": "ym2612"
    },
    {
      "channel": 4,
      "note": 50,
      "start": 46.9519,
      "duration": 0.0161,
      "velocity": 100,
      "chip": "ym2612"
    },
    {
      "channel": 1,
      "note": 72,
      "start": 46.9617,
      "duration": 0.016,
      "velocity": 124,
      "chip": "ym2612"
    },
    {
      "channel": 0,
      "note": 38,
      "start": 46.9634,
      "duration": 0.0161,
      "velocity": 115,
      "chip": "ym2612"
    },
    {
      "channel": 5,
      "note": 66,
      "start": 46.9646,
      "duration": 0.0161,
      "velocity": 100,
      "chip": "ym2612"
    },
    {
      "channel": 3,
      "note": 74,
      "start": 46.9657,
      "duration": 0.0161,
      "velocity": 100,
      "chip": "ym2612"
    },
    {
      "channel": 2,
      "note": 69,
      "start": 46.9669,
      "duration": 0.0161,
      "velocity": 100,
      "chip": "ym2612"
    },
    {
      "channel": 4,
      "note": 50,
      "start": 46.9681,
      "duration": 0.0161,
      "velocity": 100,
      "chip": "ym2612"
    },
    {
      "channel": 1,
      "note": 70,
      "start": 46.9778,
      "duration": 0.0158,
      "velocity": 124,
      "chip": "ym2612"
    },
    {
      "channel": 0,
      "note": 39,
      "start": 46.9795,
      "duration": 0.0161,
      "velocity": 115,
      "chip": "ym2612"
    },
    {
      "channel": 5,
      "note": 66,
      "start": 46.9807,
      "duration": 0.0161,
      "velocity": 100,
      "chip": "ym2612"
    },
    {
      "channel": 3,
      "note": 74,
      "start": 46.9818,
      "duration": 0.0163,
      "velocity": 100,
      "chip": "ym2612"
    },
    {
      "channel": 2,
      "note": 69,
      "start": 46.983,
      "duration": 0.0163,
      "velocity": 100,
      "chip": "ym2612"
    },
    {
      "channel": 4,
      "note": 50,
      "start": 46.9842,
      "duration": 0.0163,
      "velocity": 100,
      "chip": "ym2612"
    },
    {
      "channel": 1,
      "note": 68,
      "start": 46.9935,
      "duration": 0.0159,
      "velocity": 124,
      "chip": "ym2612"
    },
    {
      "channel": 0,
      "note": 39,
      "start": 46.9956,
      "duration": 0.0161,
      "velocity": 115,
      "chip": "ym2612"
    },
    {
      "channel": 5,
      "note": 66,
      "start": 46.9968,
      "duration": 0.0161,
      "velocity": 100,
      "chip": "ym2612"
    },
    {
      "channel": 3,
      "note": 74,
      "start": 46.9981,
      "duration": 0.016,
      "velocity": 100,
      "chip": "ym2612"
    },
    {
      "channel": 2,
      "note": 69,
      "start": 46.9993,
      "duration": 0.016,
      "velocity": 100,
      "chip": "ym2612"
    },
    {
      "channel": 4,
      "note": 50,
      "start": 47.0005,
      "duration": 0.016,
      "velocity": 100,
      "chip": "ym2612"
    },
    {
      "channel": 1,
      "note": 65,
      "start": 47.0094,
      "duration": 0.0161,
      "velocity": 124,
      "chip": "ym2612"
    },
    {
      "channel": 0,
      "note": 40,
      "start": 47.0117,
      "duration": 0.016,
      "velocity": 115,
      "chip": "ym2612"
    },
    {
      "channel": 5,
      "note": 66,
      "start": 47.0129,
      "duration": 0.0161,
      "velocity": 100,
      "chip": "ym2612"
    },
    {
      "channel": 3,
      "note": 74,
      "start": 47.0141,
      "duration": 0.0161,
      "velocity": 100,
      "chip": "ym2612"
    },
    {
      "channel": 2,
      "note": 69,
      "start": 47.0154,
      "duration": 0.0161,
      "velocity": 100,
      "chip": "ym2612"
    },
    {
      "channel": 4,
      "note": 50,
      "start": 47.0166,
      "duration": 0.0161,
      "velocity": 100,
      "chip": "ym2612"
    },
    {
      "channel": 1,
      "note": 63,
      "start": 47.0255,
      "duration": 0.0153,
      "velocity": 1,
      "chip": "ym2612"
    },
    {
      "channel": 0,
      "note": 40,
      "start": 47.0278,
      "duration": 0.0148,
      "velocity": 115,
      "chip": "ym2612"
    },
    {
      "channel": 5,
      "note": 66,
      "start": 47.029,
      "duration": 0.0153,
      "velocity": 100,
      "chip": "ym2612"
    },
    {
      "channel": 3,
      "note": 74,
      "start": 47.0302,
      "duration": 0.0153,
      "velocity": 100,
      "chip": "ym2612"
    },
    {
      "channel": 2,
      "note": 69,
      "start": 47.0315,
      "duration": 0.0153,
      "velocity": 100,
      "chip": "ym2612"
    },
    {
      "channel": 4,
      "note": 50,
      "start": 47.0327,
      "duration": 0.0153,
      "velocity": 100,
      "chip": "ym2612"
    },
    {
      "channel": 0,
      "note": 40,
      "start": 47.0425,
      "duration": 0.0153,
      "velocity": 115,
      "chip": "ym2612"
    },
    {
      "channel": 5,
      "note": 66,
      "start": 47.0443,
      "duration": 0.0147,
      "velocity": 100,
      "chip": "ym2612"
    },
    {
      "channel": 3,
      "note": 74,
      "start": 47.0455,
      "duration": 0.0149,
      "velocity": 100,
      "chip": "ym2612"
    },
    {
      "channel": 2,
      "note": 69,
      "start": 47.0467,
      "duration": 0.0153,
      "velocity": 100,
      "chip": "ym2612"
    },
    {
      "channel": 4,
      "note": 50,
      "start": 47.0479,
      "duration": 0.0152,
      "velocity": 100,
      "chip": "ym2612"
    },
    {
      "channel": 0,
      "note": 41,
      "start": 47.0578,
      "duration": 0.0161,
      "velocity": 115,
      "chip": "ym2612"
    },
    {
      "channel": 5,
      "note": 66,
      "start": 47.059,
      "duration": 0.0161,
      "velocity": 100,
      "chip": "ym2612"
    },
    {
      "channel": 3,
      "note": 74,
      "start": 47.0604,
      "duration": 0.0159,
      "velocity": 100,
      "chip": "ym2612"
    },
    {
      "channel": 2,
      "note": 69,
      "start": 47.062,
      "duration": 0.0162,
      "velocity": 100,
      "chip": "ym2612"
    },
    {
      "channel": 4,
      "note": 50,
      "start": 47.0631,
      "duration": 0.0161,
      "velocity": 100,
      "chip": "ym2612"
    },
    {
      "channel": 0,
      "note": 41,
      "start": 47.0739,
      "duration": 0.0161,
      "velocity": 115,
      "chip": "ym2612"
    },
    {
      "channel": 5,
      "note": 66,
      "start": 47.0751,
      "duration": 0.016,
      "velocity": 100,
      "chip": "ym2612"
    },
    {
      "channel": 3,
      "note": 74,
      "start": 47.0763,
      "duration": 0.016,
      "velocity": 100,
      "chip": "ym2612"
    },
    {
      "channel": 2,
      "note": 69,
      "start": 47.0781,
      "duration": 0.0155,
      "velocity": 100,
      "chip": "ym2612"
    },
    {
      "channel": 4,
      "note": 50,
      "start": 47.0793,
      "duration": 0.016,
      "velocity": 100,
      "chip": "ym2612"
    },
    {
      "channel": 0,
      "note": 42,
      "start": 47.09,
      "duration": 0.022,
      "velocity": 115,
      "chip": "ym2612"
    },
    {
      "channel": 3,
      "note": 74,
      "start": 47.0923,
      "duration": 0.0226,
      "velocity": 100,
      "chip": "ym2612"
    },
    {
      "channel": 4,
      "note": 50,
      "start": 47.0952,
      "duration": 0.0226,
      "velocity": 100,
      "chip": "ym2612"
    },
    {
      "channel": 1,
      "note": 84,
      "start": 47.1079,
      "duration": 0.0143,
      "velocity": 124,
      "chip": "ym2612"
    },
    {
      "channel": 0,
      "note": 36,
      "start": 47.112,
      "duration": 0.012,
      "velocity": 115,
      "chip": "ym2612"
    },
    {
      "channel": 5,
      "note": 66,
      "start": 47.1135,
      "duration": 0.0117,
      "velocity": 100,
      "chip": "ym2612"
    },
    {
      "channel": 3,
      "note": 74,
      "start": 47.115,
      "duration": 0.0115,
      "velocity": 100,
      "chip": "ym2612"
    },
    {
      "channel": 2,
      "note": 69,
      "start": 47.1164,
      "duration": 0.0117,
      "velocity": 100,
      "chip": "ym2612"
    },
    {
      "channel": 4,
      "note": 50,
      "start": 47.1179,
      "duration": 0.0116,
      "velocity": 100,
      "chip": "ym2612"
    },
    {
      "channel": 1,
      "note": 82,
      "start": 47.1222,
      "duration": 0.016,
      "velocity": 124,
      "chip": "ym2612"
    },
    {
      "channel": 0,
      "note": 36,
      "start": 47.124,
      "duration": 0.016,
      "velocity": 115,
      "chip": "ym2612"
    },
    {
      "channel": 5,
      "note": 66,
      "start": 47.1252,
      "duration": 0.0159,
      "velocity": 100,
      "chip": "ym2612"
    },
    {
      "channel": 3,
      "note": 74,
      "start": 47.1264,
      "duration": 0.0158,
      "velocity": 100,
      "chip": "ym2612"
    },
    {
      "channel": 2,
      "note": 69,
      "start": 47.1282,
      "duration": 0.0155,
      "velocity": 100,
      "chip": "ym2612"
    },
    {
      "channel": 4,
      "note": 50,
      "start": 47.1295,
      "duration": 0.0157,
      "velocity": 100,
      "chip": "ym2612"
    },
    {
      "channel": 1,
      "note": 80,
      "start": 47.1383,
      "duration": 0.0161,
      "velocity": 124,
      "chip": "ym2612"
    },
    {
      "channel": 0,
      "note": 37,
      "start": 47.14,
      "duration": 0.0161,
      "velocity": 115,
      "chip": "ym2612"
    },
    {
      "channel": 5,
      "note": 66,
      "start": 47.1411,
      "duration": 0.0161,
      "velocity": 100,
      "chip": "ym2612"
    },
    {
      "channel": 3,
      "note": 74,
      "start": 47.1422,
      "duration": 0.0161,
      "velocity": 100,
      "chip": "ym2612"
    },
    {
      "channel": 2,
      "note": 69,
      "start": 47.1437,
      "duration": 0.0159,
      "velocity": 100,
      "chip": "ym2612"
    },
    {
      "channel": 4,
      "note": 50,
      "start": 47.1452,
      "duration": 0.016,
      "velocity": 100,
      "chip": "ym2612"
    },
    {
      "channel": 1,
      "note": 77,
      "start": 47.1543,
      "duration": 0.0161,
      "velocity": 124,
      "chip": "ym2612"
    },
    {
      "channel": 0,
      "note": 37,
      "start": 47.1561,
      "duration": 0.0161,
      "velocity": 115,
      "chip": "ym2612"
    },
    {
      "channel": 5,
      "note": 66,
      "start": 47.1572,
      "duration": 0.0161,
      "velocity": 100,
      "chip": "ym2612"
    },
    {
      "channel": 3,
      "note": 74,
      "start": 47.1583,
      "duration": 0.0162,
      "velocity": 100,
      "chip": "ym2612"
    },
    {
      "channel": 2,
      "note": 69,
      "start": 47.1596,
      "duration": 0.0161,
      "velocity": 100,
      "chip": "ym2612"
    },
    {
      "channel": 4,
      "note": 50,
      "start": 47.1612,
      "duration": 0.0158,
      "velocity": 100,
      "chip": "ym2612"
    },
    {
      "channel": 1,
      "note": 75,
      "start": 47.1704,
      "duration": 0.0161,
      "velocity": 124,
      "chip": "ym2612"
    },
    {
      "channel": 0,
      "note": 38,
      "start": 47.1722,
      "duration": 0.0161,
      "velocity": 115,
      "chip": "ym2612"
    },
    {
      "channel": 5,
      "note": 66,
      "start": 47.1733,
      "duration": 0.0161,
      "velocity": 100,
      "chip": "ym2612"
    },
    {
      "channel": 3,
      "note": 74,
      "start": 47.1745,
      "duration": 0.0161,
      "velocity": 100,
      "chip": "ym2612"
    },
    {
      "channel": 2,
      "note": 69,
      "start": 47.1756,
      "duration": 0.0161,
      "velocity": 100,
      "chip": "ym2612"
    },
    {
      "channel": 4,
      "note": 50,
      "start": 47.177,
      "duration": 0.0159,
      "velocity": 100,
      "chip": "ym2612"
    },
    {
      "channel": 1,
      "note": 72,
      "start": 47.1865,
      "duration": 0.0162,
      "velocity": 124,
      "chip": "ym2612"
    },
    {
      "channel": 0,
      "note": 38,
      "start": 47.1883,
      "duration": 0.0161,
      "velocity": 115,
      "chip": "ym2612"
    },
    {
      "channel": 5,
      "note": 66,
      "start": 47.1894,
      "duration": 0.0161,
      "velocity": 100,
      "chip": "ym2612"
    },
    {
      "channel": 3,
      "note": 74,
      "start": 47.1906,
      "duration": 0.0161,
      "velocity": 100,
      "chip": "ym2612"
    },
    {
      "channel": 2,
      "note": 69,
      "start": 47.1917,
      "duration": 0.0161,
      "velocity": 100,
      "chip": "ym2612"
    },
    {
      "channel": 4,
      "note": 50,
      "start": 47.1929,
      "duration": 0.0161,
      "velocity": 100,
      "chip": "ym2612"
    },
    {
      "channel": 1,
      "note": 70,
      "start": 47.2027,
      "duration": 0.0161,
      "velocity": 124,
      "chip": "ym2612"
    },
    {
      "channel": 0,
      "note": 39,
      "start": 47.2043,
      "duration": 0.0161,
      "velocity": 115,
      "chip": "ym2612"
    },
    {
      "channel": 5,
      "note": 66,
      "start": 47.2055,
      "duration": 0.0162,
      "velocity": 100,
      "chip": "ym2612"
    },
    {
      "channel": 3,
      "note": 74,
      "start": 47.2067,
      "duration": 0.0162,
      "velocity": 100,
      "chip": "ym2612"
    },
    {
      "channel": 2,
      "note": 69,
      "start": 47.2078,
      "duration": 0.0163,
      "velocity": 100,
      "chip": "ym2612"
    },
    {
      "channel": 4,
      "note": 50,
      "start": 47.209,
      "duration": 0.0164,
      "velocity": 100,
      "chip": "ym2612"
    },
    {
      "channel": 1,
      "note": 68,
      "start": 47.2188,
      "duration": 0.0161,
      "velocity": 124,
      "chip": "ym2612"
    },
    {
      "channel": 0,
      "note": 39,
      "start": 47.2204,
      "duration": 0.0162,
      "velocity": 115,
      "chip": "ym2612"
    },
    {
      "channel": 5,
      "note": 66,
      "start": 47.2217,
      "duration": 0.016,
      "velocity": 100,
      "chip": "ym2612"
    },
    {
      "channel": 3,
      "note": 74,
      "start": 47.2229,
      "duration": 0.016,
      "velocity": 100,
      "chip": "ym2612"
    },
    {
      "channel": 2,
      "note": 69,
      "start": 47.2241,
      "duration": 0.016,
      "velocity": 100,
      "chip": "ym2612"
    },
    {
      "channel": 4,
      "note": 50,
      "start": 47.2254,
      "duration": 0.016,
      "velocity": 100,
      "chip": "ym2612"
    },
    {
      "channel": 1,
      "note": 65,
      "start": 47.2349,
      "duration": 0.0161,
      "velocity": 124,
      "chip": "ym2612"
    },
    {
      "channel": 0,
      "note": 40,
      "start": 47.2366,
      "duration": 0.0161,
      "velocity": 115,
      "chip": "ym2612"
    },
    {
      "channel": 5,
      "note": 66,
      "start": 47.2377,
      "duration": 0.0161,
      "velocity": 100,
      "chip": "ym2612"
    },
    {
      "channel": 3,
      "note": 74,
      "start": 47.239,
      "duration": 0.0161,
      "velocity": 100,
      "chip": "ym2612"
    },
    {
      "channel": 2,
      "note": 69,
      "start": 47.2402,
      "duration": 0.0161,
      "velocity": 100,
      "chip": "ym2612"
    },
    {
      "channel": 4,
      "note": 50,
      "start": 47.2414,
      "duration": 0.0162,
      "velocity": 100,
      "chip": "ym2612"
    },
    {
      "channel": 1,
      "note": 63,
      "start": 47.251,
      "duration": 0.0153,
      "velocity": 1,
      "chip": "ym2612"
    },
    {
      "channel": 0,
      "note": 40,
      "start": 47.2527,
      "duration": 0.0153,
      "velocity": 115,
      "chip": "ym2612"
    },
    {
      "channel": 5,
      "note": 66,
      "start": 47.2538,
      "duration": 0.0153,
      "velocity": 100,
      "chip": "ym2612"
    },
    {
      "channel": 3,
      "note": 74,
      "start": 47.255,
      "duration": 0.0153,
      "velocity": 100,
      "chip": "ym2612"
    },
    {
      "channel": 2,
      "note": 69,
      "start": 47.2563,
      "duration": 0.0153,
      "velocity": 100,
      "chip": "ym2612"
    },
    {
      "channel": 4,
      "note": 50,
      "start": 47.2575,
      "duration": 0.0152,
      "velocity": 100,
      "chip": "ym2612"
    },
    {
      "channel": 0,
      "note": 40,
      "start": 47.268,
      "duration": 0.0152,
      "velocity": 115,
      "chip": "ym2612"
    },
    {
      "channel": 5,
      "note": 66,
      "start": 47.2692,
      "duration": 0.0152,
      "velocity": 100,
      "chip": "ym2612"
    },
    {
      "channel": 3,
      "note": 74,
      "start": 47.2704,
      "duration": 0.0152,
      "velocity": 100,
      "chip": "ym2612"
    },
    {
      "channel": 2,
      "note": 69,
      "start": 47.2716,
      "duration": 0.0152,
      "velocity": 100,
      "chip": "ym2612"
    },
    {
      "channel": 4,
      "note": 50,
      "start": 47.2727,
      "duration": 0.0152,
      "velocity": 100,
      "chip": "ym2612"
    },
    {
      "channel": 0,
      "note": 41,
      "start": 47.2832,
      "duration": 0.0161,
      "velocity": 115,
      "chip": "ym2612"
    },
    {
      "channel": 5,
      "note": 66,
      "start": 47.2844,
      "duration": 0.0161,
      "velocity": 100,
      "chip": "ym2612"
    },
    {
      "channel": 3,
      "note": 74,
      "start": 47.2856,
      "duration": 0.0161,
      "velocity": 100,
      "chip": "ym2612"
    },
    {
      "channel": 2,
      "note": 69,
      "start": 47.2868,
      "duration": 0.0162,
      "velocity": 100,
      "chip": "ym2612"
    },
    {
      "channel": 4,
      "note": 50,
      "start": 47.2879,
      "duration": 0.0161,
      "velocity": 100,
      "chip": "ym2612"
    },
    {
      "channel": 0,
      "note": 41,
      "start": 47.2993,
      "duration": 0.0162,
      "velocity": 115,
      "chip": "ym2612"
    },
    {
      "channel": 5,
      "note": 66,
      "start": 47.3005,
      "duration": 0.016,
      "velocity": 100,
      "chip": "ym2612"
    },
    {
      "channel": 3,
      "note": 74,
      "start": 47.3017,
      "duration": 0.016,
      "velocity": 100,
      "chip": "ym2612"
    },
    {
      "channel": 2,
      "note": 69,
      "start": 47.3029,
      "duration": 0.016,
      "velocity": 100,
      "chip": "ym2612"
    },
    {
      "channel": 4,
      "note": 50,
      "start": 47.3041,
      "duration": 0.016,
      "velocity": 100,
      "chip": "ym2612"
    },
    {
      "channel": 0,
      "note": 42,
      "start": 47.3154,
      "duration": 0.0161,
      "velocity": 115,
      "chip": "ym2612"
    },
    {
      "channel": 3,
      "note": 74,
      "start": 47.3177,
      "duration": 0.0164,
      "velocity": 100,
      "chip": "ym2612"
    },
    {
      "channel": 4,
      "note": 50,
      "start": 47.32,
      "duration": 0.0167,
      "velocity": 100,
      "chip": "ym2612"
    },
    {
      "channel": 0,
      "note": 42,
      "start": 47.3315,
      "duration": 0.0161,
      "velocity": 115,
      "chip": "ym2612"
    },
    {
      "channel": 3,
      "note": 74,
      "start": 47.3341,
      "duration": 0.016,
      "velocity": 100,
      "chip": "ym2612"
    },
    {
      "channel": 4,
      "note": 50,
      "start": 47.3368,
      "duration": 0.0157,
      "velocity": 100,
      "chip": "ym2612"
    },
    {
      "channel": 0,
      "note": 43,
      "start": 47.3476,
      "duration": 0.0162,
      "velocity": 115,
      "chip": "ym2612"
    },
    {
      "channel": 3,
      "note": 74,
      "start": 47.3501,
      "duration": 0.0161,
      "velocity": 100,
      "chip": "ym2612"
    },
    {
      "channel": 4,
      "note": 50,
      "start": 47.3525,
      "duration": 0.0161,
      "velocity": 100,
      "chip": "ym2612"
    },
    {
      "channel": 0,
      "note": 43,
      "start": 47.3638,
      "duration": 0.0161,
      "velocity": 115,
      "chip": "ym2612"
    },
    {
      "channel": 3,
      "note": 74,
      "start": 47.3662,
      "duration": 0.0161,
      "velocity": 100,
      "chip": "ym2612"
    },
    {
      "channel": 4,
      "note": 50,
      "start": 47.3686,
      "duration": 0.0161,
      "velocity": 100,
      "chip": "ym2612"
    },
    {
      "channel": 0,
      "note": 44,
      "start": 47.3798,
      "duration": 0.0163,
      "velocity": 115,
      "chip": "ym2612"
    },
    {
      "channel": 3,
      "note": 74,
      "start": 47.3823,
      "duration": 0.0163,
      "velocity": 100,
      "chip": "ym2612"
    },
    {
      "channel": 4,
      "note": 50,
      "start": 47.3847,
      "duration": 0.0163,
      "velocity": 100,
      "chip": "ym2612"
    },
    {
      "channel": 0,
      "note": 44,
      "start": 47.3962,
      "duration": 0.0163,
      "velocity": 115,
      "chip": "ym2612"
    },
    {
      "channel": 3,
      "note": 74,
      "start": 47.3987,
      "duration": 0.0163,
      "velocity": 100,
      "chip": "ym2612"
    },
    {
      "channel": 4,
      "note": 50,
      "start": 47.4011,
      "duration": 0.0163,
      "velocity": 100,
      "chip": "ym2612"
    },
    {
      "channel": 0,
      "note": 44,
      "start": 47.4125,
      "duration": 0.0162,
      "velocity": 115,
      "chip": "ym2612"
    },
    {
      "channel": 3,
      "note": 74,
      "start": 47.415,
      "duration": 0.0161,
      "velocity": 100,
      "chip": "ym2612"
    },
    {
      "channel": 4,
      "note": 50,
      "start": 47.4174,
      "duration": 0.0162,
      "velocity": 100,
      "chip": "ym2612"
    },
    {
      "channel": 0,
      "note": 45,
      "start": 47.4287,
      "duration": 0.0214,
      "velocity": 115,
      "chip": "ym2612"
    },
    {
      "channel": 3,
      "note": 74,
      "start": 47.4312,
      "duration": 0.022,
      "velocity": 100,
      "chip": "ym2612"
    },
    {
      "channel": 4,
      "note": 50,
      "start": 47.4336,
      "duration": 0.0226,
      "velocity": 100,
      "chip": "ym2612"
    },
    {
      "channel": 1,
      "note": 84,
      "start": 47.4466,
      "duration": 0.0143,
      "velocity": 124,
      "chip": "ym2612"
    },
    {
      "channel": 0,
      "note": 36,
      "start": 47.4501,
      "duration": 0.0125,
      "velocity": 115,
      "chip": "ym2612"
    },
    {
      "channel": 5,
      "note": 66,
      "start": 47.4517,
      "duration": 0.0123,
      "velocity": 100,
      "chip": "ym2612"
    },
    {
      "channel": 3,
      "note": 74,
      "start": 47.4532,
      "duration": 0.012,
      "velocity": 100,
      "chip": "ym2612"
    },
    {
      "channel": 2,
      "note": 69,
      "start": 47.4547,
      "duration": 0.0117,
      "velocity": 100,
      "chip": "ym2612"
    },
    {
      "channel": 4,
      "note": 50,
      "start": 47.4563,
      "duration": 0.0113,
      "velocity": 100,
      "chip": "ym2612"
    },
    {
      "channel": 1,
      "note": 82,
      "start": 47.4609,
      "duration": 0.0155,
      "velocity": 124,
      "chip": "ym2612"
    },
    {
      "channel": 0,
      "note": 36,
      "start": 47.4627,
      "duration": 0.016,
      "velocity": 115,
      "chip": "ym2612"
    },
    {
      "channel": 5,
      "note": 66,
      "start": 47.4639,
      "duration": 0.0159,
      "velocity": 100,
      "chip": "ym2612"
    },
    {
      "channel": 3,
      "note": 74,
      "start": 47.4651,
      "duration": 0.0159,
      "velocity": 100,
      "chip": "ym2612"
    },
    {
      "channel": 2,
      "note": 69,
      "start": 47.4664,
      "duration": 0.0158,
      "velocity": 100,
      "chip": "ym2612"
    },
    {
      "channel": 4,
      "note": 50,
      "start": 47.4676,
      "duration": 0.0157,
      "velocity": 100,
      "chip": "ym2612"
    },
    {
      "channel": 1,
      "note": 80,
      "start": 47.4763,
      "duration": 0.0162,
      "velocity": 124,
      "chip": "ym2612"
    },
    {
      "channel": 0,
      "note": 37,
      "start": 47.4787,
      "duration": 0.016,
      "velocity": 115,
      "chip": "ym2612"
    },
    {
      "channel": 5,
      "note": 66,
      "start": 47.4798,
      "duration": 0.0161,
      "velocity": 100,
      "chip": "ym2612"
    },
    {
      "channel": 3,
      "note": 74,
      "start": 47.481,
      "duration": 0.0161,
      "velocity": 100,
      "chip": "ym2612"
    },
    {
      "channel": 2,
      "note": 69,
      "start": 47.4821,
      "duration": 0.0161,
      "velocity": 100,
      "chip": "ym2612"
    },
    {
      "channel": 4,
      "note": 50,
      "start": 47.4833,
      "duration": 0.0161,
      "velocity": 100,
      "chip": "ym2612"
    },
    {
      "channel": 1,
      "note": 77,
      "start": 47.4925,
      "duration": 0.0161,
      "velocity": 124,
      "chip": "ym2612"
    },
    {
      "channel": 0,
      "note": 37,
      "start": 47.4947,
      "duration": 0.0158,
      "velocity": 115,
      "chip": "ym2612"
    },
    {
      "channel": 5,
      "note": 66,
      "start": 47.4959,
      "duration": 0.0161,
      "velocity": 100,
      "chip": "ym2612"
    },
    {
      "channel": 3,
      "note": 74,
      "start": 47.4971,
      "duration": 0.0161,
      "velocity": 100,
      "chip": "ym2612"
    },
    {
      "channel": 2,
      "note": 69,
      "start": 47.4982,
      "duration": 0.0161,
      "velocity": 100,
      "chip": "ym2612"
    },
    {
      "channel": 4,
      "note": 50,
      "start": 47.4994,
      "duration": 0.0161,
      "velocity": 100,
      "chip": "ym2612"
    },
    {
      "channel": 1,
      "note": 75,
      "start": 47.5086,
      "duration": 0.0161,
      "velocity": 124,
      "chip": "ym2612"
    },
    {
      "channel": 0,
      "note": 38,
      "start": 47.5105,
      "duration": 0.0159,
      "velocity": 115,
      "chip": "ym2612"
    },
    {
      "channel": 5,
      "note": 66,
      "start": 47.512,
      "duration": 0.0161,
      "velocity": 100,
      "chip": "ym2612"
    },
    {
      "channel": 3,
      "note": 74,
      "start": 47.5132,
      "duration": 0.0161,
      "velocity": 100,
      "chip": "ym2612"
    },
    {
      "channel": 2,
      "note": 69,
      "start": 47.5143,
      "duration": 0.0161,
      "velocity": 100,
      "chip": "ym2612"
    },
    {
      "channel": 4,
      "note": 50,
      "start": 47.5155,
      "duration": 0.0162,
      "velocity": 100,
      "chip": "ym2612"
    },
    {
      "channel": 1,
      "note": 72,
      "start": 47.5247,
      "duration": 0.0161,
      "velocity": 124,
      "chip": "ym2612"
    },
    {
      "channel": 0,
      "note": 38,
      "start": 47.5264,
      "duration": 0.0161,
      "velocity": 115,
      "chip": "ym2612"
    },
    {
      "channel": 5,
      "note": 66,
      "start": 47.5281,
      "duration": 0.016,
      "velocity": 100,
      "chip": "ym2612"
    },
    {
      "channel": 3,
      "note": 74,
      "start": 47.5293,
      "duration": 0.0161,
      "velocity": 100,
      "chip": "ym2612"
    },
    {
      "channel": 2,
      "note": 69,
      "start": 47.5305,
      "duration": 0.0161,
      "velocity": 100,
      "chip": "ym2612"
    },
    {
      "channel": 4,
      "note": 50,
      "start": 47.5316,
      "duration": 0.0161,
      "velocity": 100,
      "chip": "ym2612"
    },
    {
      "channel": 1,
      "note": 70,
      "start": 47.5408,
      "duration": 0.0161,
      "velocity": 124,
      "chip": "ym2612"
    },
    {
      "channel": 0,
      "note": 39,
      "start": 47.5425,
      "duration": 0.0161,
      "velocity": 115,
      "chip": "ym2612"
    },
    {
      "channel": 5,
      "note": 66,
      "start": 47.5442,
      "duration": 0.0156,
      "velocity": 100,
      "chip": "ym2612"
    },
    {
      "channel": 3,
      "note": 74,
      "start": 47.5454,
      "duration": 0.0161,
      "velocity": 100,
      "chip": "ym2612"
    },
    {
      "channel": 2,
      "note": 69,
      "start": 47.5466,
      "duration": 0.016,
      "velocity": 100,
      "chip": "ym2612"
    },
    {
      "channel": 4,
      "note": 50,
      "start": 47.5477,
      "duration": 0.0161,
      "velocity": 100,
      "chip": "ym2612"
    },
    {
      "channel": 1,
      "note": 68,
      "start": 47.5569,
      "duration": 0.0161,
      "velocity": 124,
      "chip": "ym2612"
    },
    {
      "channel": 0,
      "note": 39,
      "start": 47.5586,
      "duration": 0.0161,
      "velocity": 115,
      "chip": "ym2612"
    },
    {
      "channel": 5,
      "note": 66,
      "start": 47.5598,
      "duration": 0.0161,
      "velocity": 100,
      "chip": "ym2612"
    },
    {
      "channel": 3,
      "note": 74,
      "start": 47.5615,
      "duration": 0.016,
      "velocity": 100,
      "chip": "ym2612"
    },
    {
      "channel": 2,
      "note": 69,
      "start": 47.5626,
      "duration": 0.0161,
      "velocity": 100,
      "chip": "ym2612"
    },
    {
      "channel": 4,
      "note": 50,
      "start": 47.5638,
      "duration": 0.016,
      "velocity": 100,
      "chip": "ym2612"
    },
    {
      "channel": 1,
      "note": 65,
      "start": 47.573,
      "duration": 0.0161,
      "velocity": 124,
      "chip": "ym2612"
    },
    {
      "channel": 0,
      "note": 40,
      "start": 47.5747,
      "duration": 0.0161,
      "velocity": 115,
      "chip": "ym2612"
    },
    {
      "channel": 5,
      "note": 66,
      "start": 47.5759,
      "duration": 0.0161,
      "velocity": 100,
      "chip": "ym2612"
    },
    {
      "channel": 3,
      "note": 74,
      "start": 47.5775,
      "duration": 0.0156,
      "velocity": 100,
      "chip": "ym2612"
    },
    {
      "channel": 2,
      "note": 69,
      "start": 47.5787,
      "duration": 0.0161,
      "velocity": 100,
      "chip": "ym2612"
    },
    {
      "channel": 4,
      "note": 50,
      "start": 47.5798,
      "duration": 0.0161,
      "velocity": 100,
      "chip": "ym2612"
    },
    {
      "channel": 1,
      "note": 63,
      "start": 47.5891,
      "duration": 0.0153,
      "velocity": 1,
      "chip": "ym2612"
    },
    {
      "channel": 0,
      "note": 40,
      "start": 47.5908,
      "duration": 0.0153,
      "velocity": 115,
      "chip": "ym2612"
    },
    {
      "channel": 5,
      "note": 66,
      "start": 47.5919,
      "duration": 0.0153,
      "velocity": 100,
      "chip": "ym2612"
    },
    {
      "channel": 3,
      "note": 74,
      "start": 47.5931,
      "duration": 0.0153,
      "velocity": 100,
      "chip": "ym2612"
    },
    {
      "channel": 2,
      "note": 69,
      "start": 47.5948,
      "duration": 0.0147,
      "velocity": 100,
      "chip": "ym2612"
    },
    {
      "channel": 4,
      "note": 50,
      "start": 47.5959,
      "duration": 0.0153,
      "velocity": 100,
      "chip": "ym2612"
    },
    {
      "channel": 0,
      "note": 40,
      "start": 47.6061,
      "duration": 0.0153,
      "velocity": 115,
      "chip": "ym2612"
    },
    {
      "channel": 5,
      "note": 66,
      "start": 47.6072,
      "duration": 0.0153,
      "velocity": 100,
      "chip": "ym2612"
    },
    {
      "channel": 3,
      "note": 74,
      "start": 47.6083,
      "duration": 0.0153,
      "velocity": 100,
      "chip": "ym2612"
    },
    {
      "channel": 2,
      "note": 69,
      "start": 47.6095,
      "duration": 0.0153,
      "velocity": 100,
      "chip": "ym2612"
    },
    {
      "channel": 4,
      "note": 50,
      "start": 47.6112,
      "duration": 0.0148,
      "velocity": 100,
      "chip": "ym2612"
    },
    {
      "channel": 0,
      "note": 41,
      "start": 47.6213,
      "duration": 0.0161,
      "velocity": 115,
      "chip": "ym2612"
    },
    {
      "channel": 5,
      "note": 66,
      "start": 47.6225,
      "duration": 0.0161,
      "velocity": 100,
      "chip": "ym2612"
    },
    {
      "channel": 3,
      "note": 74,
      "start": 47.6236,
      "duration": 0.0161,
      "velocity": 100,
      "chip": "ym2612"
    },
    {
      "channel": 2,
      "note": 69,
      "start": 47.6248,
      "duration": 0.0161,
      "velocity": 100,
      "chip": "ym2612"
    },
    {
      "channel": 4,
      "note": 50,
      "start": 47.626,
      "duration": 0.016,
      "velocity": 100,
      "chip": "ym2612"
    },
    {
      "channel": 0,
      "note": 41,
      "start": 47.6374,
      "duration": 0.0161,
      "velocity": 115,
      "chip": "ym2612"
    },
    {
      "channel": 5,
      "note": 66,
      "start": 47.6386,
      "duration": 0.0161,
      "velocity": 100,
      "chip": "ym2612"
    },
    {
      "channel": 3,
      "note": 74,
      "start": 47.6397,
      "duration": 0.0161,
      "velocity": 100,
      "chip": "ym2612"
    },
    {
      "channel": 2,
      "note": 69,
      "start": 47.6409,
      "duration": 0.0161,
      "velocity": 100,
      "chip": "ym2612"
    },
    {
      "channel": 4,
      "note": 50,
      "start": 47.6421,
      "duration": 0.0162,
      "velocity": 100,
      "chip": "ym2612"
    },
    {
      "channel": 0,
      "note": 42,
      "start": 47.6535,
      "duration": 0.0214,
      "velocity": 115,
      "chip": "ym2612"
    },
    {
      "channel": 3,
      "note": 74,
      "start": 47.6558,
      "duration": 0.0228,
      "velocity": 100,
      "chip": "ym2612"
    },
    {
      "channel": 4,
      "note": 50,
      "start": 47.6582,
      "duration": 0.0233,
      "velocity": 100,
      "chip": "ym2612"
    },
    {
      "channel": 1,
      "note": 84,
      "start": 47.6715,
      "duration": 0.0143,
      "velocity": 124,
      "chip": "ym2612"
    },
    {
      "channel": 0,
      "note": 36,
      "start": 47.675,
      "duration": 0.0125,
      "velocity": 115,
      "chip": "ym2612"
    },
    {
      "channel": 5,
      "note": 66,
      "start": 47.6766,
      "duration": 0.0122,
      "velocity": 100,
      "chip": "ym2612"
    },
    {
      "channel": 3,
      "note": 74,
      "start": 47.6786,
      "duration": 0.0113,
      "velocity": 100,
      "chip": "ym2612"
    },
    {
      "channel": 2,
      "note": 69,
      "start": 47.6802,
      "duration": 0.011,
      "velocity": 100,
      "chip": "ym2612"
    },
    {
      "channel": 4,
      "note": 50,
      "start": 47.6816,
      "duration": 0.0107,
      "velocity": 100,
      "chip": "ym2612"
    },
    {
      "channel": 1,
      "note": 82,
      "start": 47.6858,
      "duration": 0.016,
      "velocity": 124,
      "chip": "ym2612"
    },
    {
      "channel": 0,
      "note": 36,
      "start": 47.6876,
      "duration": 0.016,
      "velocity": 115,
      "chip": "ym2612"
    },
    {
      "channel": 5,
      "note": 66,
      "start": 47.6888,
      "duration": 0.0159,
      "velocity": 100,
      "chip": "ym2612"
    },
    {
      "channel": 3,
      "note": 74,
      "start": 47.69,
      "duration": 0.0159,
      "velocity": 100,
      "chip": "ym2612"
    },
    {
      "channel": 2,
      "note": 69,
      "start": 47.6912,
      "duration": 0.0158,
      "velocity": 100,
      "chip": "ym2612"
    },
    {
      "channel": 4,
      "note": 50,
      "start": 47.6924,
      "duration": 0.0157,
      "velocity": 100,
      "chip": "ym2612"
    },
    {
      "channel": 1,
      "note": 80,
      "start": 47.7018,
      "duration": 0.0161,
      "velocity": 124,
      "chip": "ym2612"
    },
    {
      "channel": 0,
      "note": 37,
      "start": 47.7035,
      "duration": 0.0161,
      "velocity": 115,
      "chip": "ym2612"
    },
    {
      "channel": 5,
      "note": 66,
      "start": 47.7047,
      "duration": 0.0161,
      "velocity": 100,
      "chip": "ym2612"
    },
    {
      "channel": 3,
      "note": 74,
      "start": 47.7058,
      "duration": 0.0161,
      "velocity": 100,
      "chip": "ym2612"
    },
    {
      "channel": 2,
      "note": 69,
      "start": 47.707,
      "duration": 0.0161,
      "velocity": 100,
      "chip": "ym2612"
    },
    {
      "channel": 4,
      "note": 50,
      "start": 47.7081,
      "duration": 0.0161,
      "velocity": 100,
      "chip": "ym2612"
    },
    {
      "channel": 1,
      "note": 77,
      "start": 47.7179,
      "duration": 0.0161,
      "velocity": 124,
      "chip": "ym2612"
    },
    {
      "channel": 0,
      "note": 37,
      "start": 47.7196,
      "duration": 0.0161,
      "velocity": 115,
      "chip": "ym2612"
    },
    {
      "channel": 5,
      "note": 66,
      "start": 47.7207,
      "duration": 0.0161,
      "velocity": 100,
      "chip": "ym2612"
    },
    {
      "channel": 3,
      "note": 74,
      "start": 47.7219,
      "duration": 0.0161,
      "velocity": 100,
      "chip": "ym2612"
    },
    {
      "channel": 2,
      "note": 69,
      "start": 47.723,
      "duration": 0.0162,
      "velocity": 100,
      "chip": "ym2612"
    },
    {
      "channel": 4,
      "note": 50,
      "start": 47.7242,
      "duration": 0.0162,
      "velocity": 100,
      "chip": "ym2612"
    },
    {
      "channel": 1,
      "note": 75,
      "start": 47.734,
      "duration": 0.0161,
      "velocity": 124,
      "chip": "ym2612"
    },
    {
      "channel": 0,
      "note": 38,
      "start": 47.7357,
      "duration": 0.0161,
      "velocity": 115,
      "chip": "ym2612"
    },
    {
      "channel": 5,
      "note": 66,
      "start": 47.7368,
      "duration": 0.0161,
      "velocity": 100,
      "chip": "ym2612"
    },
    {
      "channel": 3,
      "note": 74,
      "start": 47.738,
      "duration": 0.0161,
      "velocity": 100,
      "chip": "ym2612"
    },
    {
      "channel": 2,
      "note": 69,
      "start": 47.7392,
      "duration": 0.0161,
      "velocity": 100,
      "chip": "ym2612"
    },
    {
      "channel": 4,
      "note": 50,
      "start": 47.7404,
      "duration": 0.0161,
      "velocity": 100,
      "chip": "ym2612"
    },
    {
      "channel": 1,
      "note": 72,
      "start": 47.7501,
      "duration": 0.0161,
      "velocity": 124,
      "chip": "ym2612"
    },
    {
      "channel": 0,
      "note": 38,
      "start": 47.7518,
      "duration": 0.0161,
      "velocity": 115,
      "chip": "ym2612"
    },
    {
      "channel": 5,
      "note": 66,
      "start": 47.7529,
      "duration": 0.0161,
      "velocity": 100,
      "chip": "ym2612"
    },
    {
      "channel": 3,
      "note": 74,
      "start": 47.7541,
      "duration": 0.0162,
      "velocity": 100,
      "chip": "ym2612"
    },
    {
      "channel": 2,
      "note": 69,
      "start": 47.7553,
      "duration": 0.0161,
      "velocity": 100,
      "chip": "ym2612"
    },
    {
      "channel": 4,
      "note": 50,
      "start": 47.7565,
      "duration": 0.0161,
      "velocity": 100,
      "chip": "ym2612"
    },
    {
      "channel": 1,
      "note": 70,
      "start": 47.7662,
      "duration": 0.0161,
      "velocity": 124,
      "chip": "ym2612"
    },
    {
      "channel": 0,
      "note": 39,
      "start": 47.7679,
      "duration": 0.0161,
      "velocity": 115,
      "chip": "ym2612"
    },
    {
      "channel": 5,
      "note": 66,
      "start": 47.769,
      "duration": 0.0162,
      "velocity": 100,
      "chip": "ym2612"
    },
    {
      "channel": 3,
      "note": 74,
      "start": 47.7702,
      "duration": 0.0162,
      "velocity": 100,
      "chip": "ym2612"
    },
    {
      "channel": 2,
      "note": 69,
      "start": 47.7714,
      "duration": 0.0163,
      "velocity": 100,
      "chip": "ym2612"
    },
    {
      "channel": 4,
      "note": 50,
      "start": 47.7726,
      "duration": 0.0163,
      "velocity": 100,
      "chip": "ym2612"
    },
    {
      "channel": 1,
      "note": 68,
      "start": 47.7823,
      "duration": 0.0162,
      "velocity": 124,
      "chip": "ym2612"
    },
    {
      "channel": 0,
      "note": 39,
      "start": 47.784,
      "duration": 0.0161,
      "velocity": 115,
      "chip": "ym2612"
    },
    {
      "channel": 5,
      "note": 66,
      "start": 47.7853,
      "duration": 0.016,
      "velocity": 100,
      "chip": "ym2612"
    },
    {
      "channel": 3,
      "note": 74,
      "start": 47.7865,
      "duration": 0.016,
      "velocity": 100,
      "chip": "ym2612"
    },
    {
      "channel": 2,
      "note": 69,
      "start": 47.7877,
      "duration": 0.016,
      "velocity": 100,
      "chip": "ym2612"
    },
    {
      "channel": 4,
      "note": 50,
      "start": 47.789,
      "duration": 0.0159,
      "velocity": 100,
      "chip": "ym2612"
    },
    {
      "channel": 1,
      "note": 65,
      "start": 47.7984,
      "duration": 0.0161,
      "velocity": 124,
      "chip": "ym2612"
    },
    {
      "channel": 0,
      "note": 40,
      "start": 47.8001,
      "duration": 0.0161,
      "velocity": 115,
      "chip": "ym2612"
    },
    {
      "channel": 5,
      "note": 66,
      "start": 47.8013,
      "duration": 0.0161,
      "velocity": 100,
      "chip": "ym2612"
    },
    {
      "channel": 3,
      "note": 74,
      "start": 47.8025,
      "duration": 0.0161,
      "velocity": 100,
      "chip": "ym2612"
    },
    {
      "channel": 2,
      "note": 69,
      "start": 47.8037,
      "duration": 0.0161,
      "velocity": 100,
      "chip": "ym2612"
    },
    {
      "channel": 4,
      "note": 50,
      "start": 47.8049,
      "duration": 0.0161,
      "velocity": 100,
      "chip": "ym2612"
    },
    {
      "channel": 1,
      "note": 63,
      "start": 47.8145,
      "duration": 0.0153,
      "velocity": 1,
      "chip": "ym2612"
    },
    {
      "channel": 0,
      "note": 40,
      "start": 47.8162,
      "duration": 0.0153,
      "velocity": 115,
      "chip": "ym2612"
    },
    {
      "channel": 5,
      "note": 66,
      "start": 47.8174,
      "duration": 0.0153,
      "velocity": 100,
      "chip": "ym2612"
    },
    {
      "channel": 3,
      "note": 74,
      "start": 47.8186,
      "duration": 0.0153,
      "velocity": 100,
      "chip": "ym2612"
    },
    {
      "channel": 2,
      "note": 69,
      "start": 47.8198,
      "duration": 0.0153,
      "velocity": 100,
      "chip": "ym2612"
    },
    {
      "channel": 4,
      "note": 50,
      "start": 47.821,
      "duration": 0.0153,
      "velocity": 100,
      "chip": "ym2612"
    },
    {
      "channel": 0,
      "note": 40,
      "start": 47.8315,
      "duration": 0.0153,
      "velocity": 115,
      "chip": "ym2612"
    },
    {
      "channel": 5,
      "note": 66,
      "start": 47.8327,
      "duration": 0.0153,
      "velocity": 100,
      "chip": "ym2612"
    },
    {
      "channel": 3,
      "note": 74,
      "start": 47.8339,
      "duration": 0.0153,
      "velocity": 100,
      "chip": "ym2612"
    },
    {
      "channel": 2,
      "note": 69,
      "start": 47.8351,
      "duration": 0.0154,
      "velocity": 100,
      "chip": "ym2612"
    },
    {
      "channel": 4,
      "note": 50,
      "start": 47.8363,
      "duration": 0.0153,
      "velocity": 100,
      "chip": "ym2612"
    },
    {
      "channel": 0,
      "note": 41,
      "start": 47.8468,
      "duration": 0.0163,
      "velocity": 115,
      "chip": "ym2612"
    },
    {
      "channel": 5,
      "note": 66,
      "start": 47.848,
      "duration": 0.0163,
      "velocity": 100,
      "chip": "ym2612"
    },
    {
      "channel": 3,
      "note": 74,
      "start": 47.8492,
      "duration": 0.0163,
      "velocity": 100,
      "chip": "ym2612"
    },
    {
      "channel": 2,
      "note": 69,
      "start": 47.8504,
      "duration": 0.0163,
      "velocity": 100,
      "chip": "ym2612"
    },
    {
      "channel": 4,
      "note": 50,
      "start": 47.8516,
      "duration": 0.0163,
      "velocity": 100,
      "chip": "ym2612"
    },
    {
      "channel": 0,
      "note": 41,
      "start": 47.8631,
      "duration": 0.0163,
      "velocity": 115,
      "chip": "ym2612"
    },
    {
      "channel": 5,
      "note": 66,
      "start": 47.8643,
      "duration": 0.0162,
      "velocity": 100,
      "chip": "ym2612"
    },
    {
      "channel": 3,
      "note": 74,
      "start": 47.8655,
      "duration": 0.0162,
      "velocity": 100,
      "chip": "ym2612"
    },
    {
      "channel": 2,
      "note": 69,
      "start": 47.8667,
      "duration": 0.0161,
      "velocity": 100,
      "chip": "ym2612"
    },
    {
      "channel": 4,
      "note": 50,
      "start": 47.8679,
      "duration": 0.0162,
      "velocity": 100,
      "chip": "ym2612"
    },
    {
      "channel": 0,
      "note": 42,
      "start": 47.8793,
      "duration": 0.0163,
      "velocity": 115,
      "chip": "ym2612"
    },
    {
      "channel": 3,
      "note": 74,
      "start": 47.8817,
      "duration": 0.0165,
      "velocity": 100,
      "chip": "ym2612"
    },
    {
      "channel": 4,
      "note": 50,
      "start": 47.8841,
      "duration": 0.0168,
      "velocity": 100,
      "chip": "ym2612"
    },
    {
      "channel": 0,
      "note": 42,
      "start": 47.8956,
      "duration": 0.0161,
      "velocity": 115,
      "chip": "ym2612"
    },
    {
      "channel": 3,
      "note": 74,
      "start": 47.8982,
      "duration": 0.016,
      "velocity": 100,
      "chip": "ym2612"
    },
    {
      "channel": 4,
      "note": 50,
      "start": 47.9009,
      "duration": 0.0158,
      "velocity": 100,
      "chip": "ym2612"
    },
    {
      "channel": 0,
      "note": 43,
      "start": 47.9117,
      "duration": 0.016,
      "velocity": 115,
      "chip": "ym2612"
    },
    {
      "channel": 3,
      "note": 74,
      "start": 47.9142,
      "duration": 0.0161,
      "velocity": 100,
      "chip": "ym2612"
    },
    {
      "channel": 4,
      "note": 50,
      "start": 47.9167,
      "duration": 0.016,
      "velocity": 100,
      "chip": "ym2612"
    },
    {
      "channel": 0,
      "note": 43,
      "start": 47.9278,
      "duration": 0.0156,
      "velocity": 115,
      "chip": "ym2612"
    },
    {
      "channel": 3,
      "note": 74,
      "start": 47.9303,
      "duration": 0.0161,
      "velocity": 100,
      "chip": "ym2612"
    },
    {
      "channel": 4,
      "note": 50,
      "start": 47.9327,
      "duration": 0.0161,
      "velocity": 100,
      "chip": "ym2612"
    },
    {
      "channel": 0,
      "note": 44,
      "start": 47.9433,
      "duration": 0.0161,
      "velocity": 115,
      "chip": "ym2612"
    },
    {
      "channel": 3,
      "note": 74,
      "start": 47.9464,
      "duration": 0.0161,
      "velocity": 100,
      "chip": "ym2612"
    },
    {
      "channel": 4,
      "note": 50,
      "start": 47.9488,
      "duration": 0.0161,
      "velocity": 100,
      "chip": "ym2612"
    },
    {
      "channel": 0,
      "note": 44,
      "start": 47.9594,
      "duration": 0.0161,
      "velocity": 115,
      "chip": "ym2612"
    },
    {
      "channel": 3,
      "note": 74,
      "start": 47.9625,
      "duration": 0.0161,
      "velocity": 100,
      "chip": "ym2612"
    },
    {
      "channel": 4,
      "note": 50,
      "start": 47.9649,
      "duration": 0.0161,
      "velocity": 100,
      "chip": "ym2612"
    },
    {
      "channel": 0,
      "note": 44,
      "start": 47.9755,
      "duration": 0.0161,
      "velocity": 115,
      "chip": "ym2612"
    },
    {
      "channel": 3,
      "note": 74,
      "start": 47.9786,
      "duration": 0.016,
      "velocity": 100,
      "chip": "ym2612"
    },
    {
      "channel": 4,
      "note": 50,
      "start": 47.981,
      "duration": 0.0161,
      "velocity": 100,
      "chip": "ym2612"
    },
    {
      "channel": 0,
      "note": 45,
      "start": 47.9916,
      "duration": 0.0195,
      "velocity": 115,
      "chip": "ym2612"
    },
    {
      "channel": 3,
      "note": 74,
      "start": 47.9947,
      "duration": 0.0193,
      "velocity": 100,
      "chip": "ym2612"
    },
    {
      "channel": 4,
      "note": 50,
      "start": 47.9971,
      "duration": 0.0199,
      "velocity": 100,
      "chip": "ym2612"
    },
    {
      "channel": 1,
      "note": 72,
      "start": 48.0089,
      "duration": 0.0144,
      "velocity": 127,
      "chip": "ym2612"
    },
    {
      "channel": 0,
      "note": 45,
      "start": 48.0112,
      "duration": 0.0139,
      "velocity": 115,
      "chip": "ym2612"
    },
    {
      "channel": 3,
      "note": 69,
      "start": 48.014,
      "duration": 0.014,
      "velocity": 100,
      "chip": "ym2612"
    },
    {
      "channel": 2,
      "note": 69,
      "start": 48.0155,
      "duration": 0.0138,
      "velocity": 100,
      "chip": "ym2612"
    },
    {
      "channel": 4,
      "note": 57,
      "start": 48.017,
      "duration": 0.0135,
      "velocity": 100,
      "chip": "ym2612"
    },
    {
      "channel": 1,
      "note": 72,
      "start": 48.0233,
      "duration": 0.016,
      "velocity": 127,
      "chip": "ym2612"
    },
    {
      "channel": 0,
      "note": 46,
      "start": 48.025,
      "duration": 0.016,
      "velocity": 115,
      "chip": "ym2612"
    },
    {
      "channel": 3,
      "note": 69,
      "start": 48.028,
      "duration": 0.0156,
      "velocity": 100,
      "chip": "ym2612"
    },
    {
      "channel": 2,
      "note": 69,
      "start": 48.0293,
      "duration": 0.0159,
      "velocity": 100,
      "chip": "ym2612"
    },
    {
      "channel": 4,
      "note": 57,
      "start": 48.0305,
      "duration": 0.0159,
      "velocity": 100,
      "chip": "ym2612"
    },
    {
      "channel": 1,
      "note": 72,
      "start": 48.0393,
      "duration": 0.0162,
      "velocity": 127,
      "chip": "ym2612"
    },
    {
      "channel": 0,
      "note": 46,
      "start": 48.041,
      "duration": 0.0161,
      "velocity": 115,
      "chip": "ym2612"
    },
    {
      "channel": 3,
      "note": 69,
      "start": 48.0437,
      "duration": 0.0159,
      "velocity": 100,
      "chip": "ym2612"
    },
    {
      "channel": 2,
      "note": 69,
      "start": 48.0452,
      "duration": 0.016,
      "velocity": 100,
      "chip": "ym2612"
    },
    {
      "channel": 4,
      "note": 57,
      "start": 48.0464,
      "duration": 0.0161,
      "velocity": 100,
      "chip": "ym2612"
    },
    {
      "channel": 1,
      "note": 72,
      "start": 48.0555,
      "duration": 0.0161,
      "velocity": 127,
      "chip": "ym2612"
    },
    {
      "channel": 0,
      "note": 47,
      "start": 48.0571,
      "duration": 0.0161,
      "velocity": 115,
      "chip": "ym2612"
    },
    {
      "channel": 3,
      "note": 69,
      "start": 48.0596,
      "duration": 0.0161,
      "velocity": 100,
      "chip": "ym2612"
    },
    {
      "channel": 2,
      "note": 69,
      "start": 48.0613,
      "duration": 0.0158,
      "velocity": 100,
      "chip": "ym2612"
    },
    {
      "channel": 4,
      "note": 57,
      "start": 48.0625,
      "duration": 0.0161,
      "velocity": 100,
      "chip": "ym2612"
    },
    {
      "channel": 1,
      "note": 72,
      "start": 48.0716,
      "duration": 0.0161,
      "velocity": 127,
      "chip": "ym2612"
    },
    {
      "channel": 0,
      "note": 47,
      "start": 48.0733,
      "duration": 0.0161,
      "velocity": 115,
      "chip": "ym2612"
    },
    {
      "channel": 3,
      "note": 69,
      "start": 48.0756,
      "duration": 0.0161,
      "velocity": 100,
      "chip": "ym2612"
    },
    {
      "channel": 2,
      "note": 69,
      "start": 48.0771,
      "duration": 0.0159,
      "velocity": 100,
      "chip": "ym2612"
    },
    {
      "channel": 4,
      "note": 57,
      "start": 48.0786,
      "duration": 0.016,
      "velocity": 100,
      "chip": "ym2612"
    },
    {
      "channel": 1,
      "note": 72,
      "start": 48.0877,
      "duration": 0.0161,
      "velocity": 127,
      "chip": "ym2612"
    },
    {
      "channel": 0,
      "note": 47,
      "start": 48.0894,
      "duration": 0.0161,
      "velocity": 115,
      "chip": "ym2612"
    },
    {
      "channel": 3,
      "note": 69,
      "start": 48.0917,
      "duration": 0.0161,
      "velocity": 100,
      "chip": "ym2612"
    },
    {
      "channel": 2,
      "note": 69,
      "start": 48.0929,
      "duration": 0.0161,
      "velocity": 100,
      "chip": "ym2612"
    },
    {
      "channel": 4,
      "note": 57,
      "start": 48.0947,
      "duration": 0.0158,
      "velocity": 100,
      "chip": "ym2612"
    },
    {
      "channel": 1,
      "note": 72,
      "start": 48.1038,
      "duration": 0.0178,
      "velocity": 127,
      "chip": "ym2612"
    },
    {
      "channel": 0,
      "note": 48,
      "start": 48.1055,
      "duration": 0.0179,
      "velocity": 115,
      "chip": "ym2612"
    },
    {
      "channel": 3,
      "note": 69,
      "start": 48.1078,
      "duration": 0.0182,
      "velocity": 100,
      "chip": "ym2612"
    },
    {
      "channel": 4,
      "note": 57,
      "start": 48.1105,
      "duration": 0.0191,
      "velocity": 100,
      "chip": "ym2612"
    },
    {
      "channel": 1,
      "note": 72,
      "start": 48.1217,
      "duration": 0.0144,
      "velocity": 127,
      "chip": "ym2612"
    },
    {
      "channel": 0,
      "note": 48,
      "start": 48.1234,
      "duration": 0.0144,
      "velocity": 115,
      "chip": "ym2612"
    },
    {
      "channel": 3,
      "note": 69,
      "start": 48.1261,
      "duration": 0.0141,
      "velocity": 100,
      "chip": "ym2612"
    },
    {
      "channel": 2,
      "note": 69,
      "start": 48.1281,
      "duration": 0.0133,
      "velocity": 100,
      "chip": "ym2612"
    },
    {
      "channel": 4,
      "note": 57,
      "start": 48.1297,
      "duration": 0.013,
      "velocity": 100,
      "chip": "ym2612"
    },
    {
      "channel": 1,
      "note": 72,
      "start": 48.136,
      "duration": 0.016,
      "velocity": 127,
      "chip": "ym2612"
    },
    {
      "channel": 0,
      "note": 49,
      "start": 48.1377,
      "duration": 0.0152,
      "velocity": 1,
      "chip": "ym2612"
    },
    {
      "channel": 3,
      "note": 69,
      "start": 48.1402,
      "duration": 0.0151,
      "velocity": 100,
      "chip": "ym2612"
    },
    {
      "channel": 2,
      "note": 69,
      "start": 48.1414,
      "duration": 0.0151,
      "velocity": 100,
      "chip": "ym2612"
    },
    {
      "channel": 4,
      "note": 57,
      "start": 48.1426,
      "duration": 0.015,
      "velocity": 100,
      "chip": "ym2612"
    },
    {
      "channel": 1,
      "note": 72,
      "start": 48.152,
      "duration": 0.0161,
      "velocity": 127,
      "chip": "ym2612"
    },
    {
      "channel": 3,
      "note": 69,
      "start": 48.1554,
      "duration": 0.0152,
      "velocity": 100,
      "chip": "ym2612"
    },
    {
      "channel": 2,
      "note": 69,
      "start": 48.1565,
      "duration": 0.0153,
      "velocity": 100,
      "chip": "ym2612"
    },
    {
      "channel": 4,
      "note": 57,
      "start": 48.1576,
      "duration": 0.0153,
      "velocity": 100,
      "chip": "ym2612"
    },
    {
      "channel": 1,
      "note": 72,
      "start": 48.1681,
      "duration": 0.0162,
      "velocity": 127,
      "chip": "ym2612"
    },
    {
      "channel": 3,
      "note": 69,
      "start": 48.1706,
      "duration": 0.0161,
      "velocity": 100,
      "chip": "ym2612"
    },
    {
      "channel": 2,
      "note": 69,
      "start": 48.1718,
      "duration": 0.0161,
      "velocity": 100,
      "chip": "ym2612"
    },
    {
      "channel": 4,
      "note": 57,
      "start": 48.1729,
      "duration": 0.0161,
      "velocity": 100,
      "chip": "ym2612"
    },
    {
      "channel": 1,
      "note": 72,
      "start": 48.1843,
      "duration": 0.0161,
      "velocity": 127,
      "chip": "ym2612"
    },
    {
      "channel": 3,
      "note": 69,
      "start": 48.1867,
      "duration": 0.0161,
      "velocity": 100,
      "chip": "ym2612"
    },
    {
      "channel": 2,
      "note": 69,
      "start": 48.1879,
      "duration": 0.0161,
      "velocity": 100,
      "chip": "ym2612"
    },
    {
      "channel": 4,
      "note": 57,
      "start": 48.1891,
      "duration": 0.0161,
      "velocity": 100,
      "chip": "ym2612"
    },
    {
      "channel": 1,
      "note": 72,
      "start": 48.2004,
      "duration": 0.0161,
      "velocity": 127,
      "chip": "ym2612"
    },
    {
      "channel": 3,
      "note": 69,
      "start": 48.2028,
      "duration": 0.0161,
      "velocity": 100,
      "chip": "ym2612"
    },
    {
      "channel": 2,
      "note": 69,
      "start": 48.204,
      "duration": 0.0161,
      "velocity": 100,
      "chip": "ym2612"
    },
    {
      "channel": 4,
      "note": 57,
      "start": 48.2052,
      "duration": 0.0161,
      "velocity": 100,
      "chip": "ym2612"
    },
    {
      "channel": 1,
      "note": 72,
      "start": 48.2165,
      "duration": 0.0161,
      "velocity": 127,
      "chip": "ym2612"
    },
    {
      "channel": 3,
      "note": 69,
      "start": 48.2189,
      "duration": 0.0161,
      "velocity": 100,
      "chip": "ym2612"
    },
    {
      "channel": 2,
      "note": 69,
      "start": 48.22,
      "duration": 0.0163,
      "velocity": 100,
      "chip": "ym2612"
    },
    {
      "channel": 4,
      "note": 57,
      "start": 48.2213,
      "duration": 0.0163,
      "velocity": 100,
      "chip": "ym2612"
    },
    {
      "channel": 1,
      "note": 72,
      "start": 48.2326,
      "duration": 0.0161,
      "velocity": 127,
      "chip": "ym2612"
    },
    {
      "channel": 3,
      "note": 69,
      "start": 48.2351,
      "duration": 0.0161,
      "velocity": 100,
      "chip": "ym2612"
    },
    {
      "channel": 2,
      "note": 69,
      "start": 48.2363,
      "duration": 0.016,
      "velocity": 100,
      "chip": "ym2612"
    },
    {
      "channel": 4,
      "note": 57,
      "start": 48.2376,
      "duration": 0.0159,
      "velocity": 100,
      "chip": "ym2612"
    },
    {
      "channel": 1,
      "note": 72,
      "start": 48.2487,
      "duration": 0.0161,
      "velocity": 127,
      "chip": "ym2612"
    },
    {
      "channel": 3,
      "note": 69,
      "start": 48.2512,
      "duration": 0.0161,
      "velocity": 100,
      "chip": "ym2612"
    },
    {
      "channel": 2,
      "note": 69,
      "start": 48.2524,
      "duration": 0.0161,
      "velocity": 100,
      "chip": "ym2612"
    },
    {
      "channel": 4,
      "note": 57,
      "start": 48.2535,
      "duration": 0.0161,
      "velocity": 100,
      "chip": "ym2612"
    },
    {
      "channel": 1,
      "note": 72,
      "start": 48.2648,
      "duration": 0.0161,
      "velocity": 127,
      "chip": "ym2612"
    },
    {
      "channel": 3,
      "note": 69,
      "start": 48.2673,
      "duration": 0.0161,
      "velocity": 100,
      "chip": "ym2612"
    },
    {
      "channel": 2,
      "note": 69,
      "start": 48.2685,
      "duration": 0.0161,
      "velocity": 100,
      "chip": "ym2612"
    },
    {
      "channel": 4,
      "note": 57,
      "start": 48.2696,
      "duration": 0.0161,
      "velocity": 100,
      "chip": "ym2612"
    },
    {
      "channel": 1,
      "note": 72,
      "start": 48.2809,
      "duration": 0.0161,
      "velocity": 127,
      "chip": "ym2612"
    },
    {
      "channel": 3,
      "note": 69,
      "start": 48.2834,
      "duration": 0.0161,
      "velocity": 100,
      "chip": "ym2612"
    },
    {
      "channel": 2,
      "note": 69,
      "start": 48.2846,
      "duration": 0.0161,
      "velocity": 100,
      "chip": "ym2612"
    },
    {
      "channel": 4,
      "note": 57,
      "start": 48.2857,
      "duration": 0.0161,
      "velocity": 100,
      "chip": "ym2612"
    },
    {
      "channel": 1,
      "note": 72,
      "start": 48.297,
      "duration": 0.0161,
      "velocity": 127,
      "chip": "ym2612"
    },
    {
      "channel": 3,
      "note": 69,
      "start": 48.2994,
      "duration": 0.0161,
      "velocity": 100,
      "chip": "ym2612"
    },
    {
      "channel": 2,
      "note": 69,
      "start": 48.3007,
      "duration": 0.0161,
      "velocity": 100,
      "chip": "ym2612"
    },
    {
      "channel": 4,
      "note": 57,
      "start": 48.3019,
      "duration": 0.0162,
      "velocity": 100,
      "chip": "ym2612"
    },
    {
      "channel": 1,
      "note": 72,
      "start": 48.3131,
      "duration": 0.0161,
      "velocity": 127,
      "chip": "ym2612"
    },
    {
      "channel": 3,
      "note": 69,
      "start": 48.3155,
      "duration": 0.0161,
      "velocity": 100,
      "chip": "ym2612"
    },
    {
      "channel": 2,
      "note": 69,
      "start": 48.3168,
      "duration": 0.016,
      "velocity": 100,
      "chip": "ym2612"
    },
    {
      "channel": 4,
      "note": 57,
      "start": 48.318,
      "duration": 0.016,
      "velocity": 100,
      "chip": "ym2612"
    },
    {
      "channel": 1,
      "note": 72,
      "start": 48.3292,
      "duration": 0.0182,
      "velocity": 127,
      "chip": "ym2612"
    },
    {
      "channel": 3,
      "note": 69,
      "start": 48.3316,
      "duration": 0.0185,
      "velocity": 100,
      "chip": "ym2612"
    },
    {
      "channel": 4,
      "note": 57,
      "start": 48.3341,
      "duration": 0.0191,
      "velocity": 100,
      "chip": "ym2612"
    },
    {
      "channel": 1,
      "note": 72,
      "start": 48.3475,
      "duration": 0.0146,
      "velocity": 127,
      "chip": "ym2612"
    },
    {
      "channel": 3,
      "note": 69,
      "start": 48.3502,
      "duration": 0.0143,
      "velocity": 100,
      "chip": "ym2612"
    },
    {
      "channel": 2,
      "note": 69,
      "start": 48.3517,
      "duration": 0.0141,
      "velocity": 100,
      "chip": "ym2612"
    },
    {
      "channel": 4,
      "note": 57,
      "start": 48.3532,
      "duration": 0.0138,
      "velocity": 100,
      "chip": "ym2612"
    },
    {
      "channel": 1,
      "note": 72,
      "start": 48.362,
      "duration": 0.016,
      "velocity": 127,
      "chip": "ym2612"
    },
    {
      "channel": 3,
      "note": 69,
      "start": 48.3645,
      "duration": 0.016,
      "velocity": 100,
      "chip": "ym2612"
    },
    {
      "channel": 2,
      "note": 69,
      "start": 48.3657,
      "duration": 0.0159,
      "velocity": 100,
      "chip": "ym2612"
    },
    {
      "channel": 4,
      "note": 57,
      "start": 48.367,
      "duration": 0.0158,
      "velocity": 100,
      "chip": "ym2612"
    },
    {
      "channel": 1,
      "note": 72,
      "start": 48.378,
      "duration": 0.0158,
      "velocity": 127,
      "chip": "ym2612"
    },
    {
      "channel": 3,
      "note": 69,
      "start": 48.3805,
      "duration": 0.0161,
      "velocity": 100,
      "chip": "ym2612"
    },
    {
      "channel": 2,
      "note": 69,
      "start": 48.3816,
      "duration": 0.0162,
      "velocity": 100,
      "chip": "ym2612"
    },
    {
      "channel": 4,
      "note": 57,
      "start": 48.3828,
      "duration": 0.0161,
      "velocity": 100,
      "chip": "ym2612"
    },
    {
      "channel": 1,
      "note": 72,
      "start": 48.3938,
      "duration": 0.0159,
      "velocity": 127,
      "chip": "ym2612"
    },
    {
      "channel": 3,
      "note": 69,
      "start": 48.3966,
      "duration": 0.0162,
      "velocity": 100,
      "chip": "ym2612"
    },
    {
      "channel": 2,
      "note": 69,
      "start": 48.3978,
      "duration": 0.0161,
      "velocity": 100,
      "chip": "ym2612"
    },
    {
      "channel": 4,
      "note": 57,
      "start": 48.3989,
      "duration": 0.0162,
      "velocity": 100,
      "chip": "ym2612"
    },
    {
      "channel": 1,
      "note": 72,
      "start": 48.4097,
      "duration": 0.0161,
      "velocity": 127,
      "chip": "ym2612"
    },
    {
      "channel": 3,
      "note": 69,
      "start": 48.4127,
      "duration": 0.0161,
      "velocity": 100,
      "chip": "ym2612"
    },
    {
      "channel": 2,
      "note": 69,
      "start": 48.4139,
      "duration": 0.0161,
      "velocity": 100,
      "chip": "ym2612"
    },
    {
      "channel": 4,
      "note": 57,
      "start": 48.4151,
      "duration": 0.0161,
      "velocity": 100,
      "chip": "ym2612"
    },
    {
      "channel": 1,
      "note": 72,
      "start": 48.4258,
      "duration": 0.0161,
      "velocity": 127,
      "chip": "ym2612"
    },
    {
      "channel": 3,
      "note": 69,
      "start": 48.4288,
      "duration": 0.016,
      "velocity": 100,
      "chip": "ym2612"
    },
    {
      "channel": 2,
      "note": 69,
      "start": 48.43,
      "duration": 0.0161,
      "velocity": 100,
      "chip": "ym2612"
    },
    {
      "channel": 4,
      "note": 57,
      "start": 48.4312,
      "duration": 0.0161,
      "velocity": 100,
      "chip": "ym2612"
    },
    {
      "channel": 1,
      "note": 72,
      "start": 48.4419,
      "duration": 0.0178,
      "velocity": 127,
      "chip": "ym2612"
    },
    {
      "channel": 3,
      "note": 69,
      "start": 48.4449,
      "duration": 0.0181,
      "velocity": 100,
      "chip": "ym2612"
    },
    {
      "channel": 4,
      "note": 57,
      "start": 48.4473,
      "duration": 0.0187,
      "velocity": 100,
      "chip": "ym2612"
    },
    {
      "channel": 1,
      "note": 72,
      "start": 48.4598,
      "duration": 0.0144,
      "velocity": 127,
      "chip": "ym2612"
    },
    {
      "channel": 3,
      "note": 69,
      "start": 48.4631,
      "duration": 0.0136,
      "velocity": 100,
      "chip": "ym2612"
    },
    {
      "channel": 2,
      "note": 69,
      "start": 48.4645,
      "duration": 0.0139,
      "velocity": 100,
      "chip": "ym2612"
    },
    {
      "channel": 4,
      "note": 57,
      "start": 48.466,
      "duration": 0.0137,
      "velocity": 100,
      "chip": "ym2612"
    },
    {
      "channel": 1,
      "note": 72,
      "start": 48.4742,
      "duration": 0.016,
      "velocity": 127,
      "chip": "ym2612"
    },
    {
      "channel": 3,
      "note": 69,
      "start": 48.4767,
      "duration": 0.016,
      "velocity": 100,
      "chip": "ym2612"
    },
    {
      "channel": 2,
      "note": 69,
      "start": 48.4785,
      "duration": 0.0158,
      "velocity": 100,
      "chip": "ym2612"
    },
    {
      "channel": 4,
      "note": 57,
      "start": 48.4797,
      "duration": 0.0159,
      "velocity": 100,
      "chip": "ym2612"
    },
    {
      "channel": 1,
      "note": 72,
      "start": 48.4902,
      "duration": 0.0161,
      "velocity": 127,
      "chip": "ym2612"
    },
    {
      "channel": 3,
      "note": 69,
      "start": 48.4926,
      "duration": 0.0161,
      "velocity": 100,
      "chip": "ym2612"
    },
    {
      "channel": 2,
      "note": 69,
      "start": 48.4943,
      "duration": 0.0156,
      "velocity": 100,
      "chip": "ym2612"
    },
    {
      "channel": 4,
      "note": 57,
      "start": 48.4955,
      "duration": 0.0161,
      "velocity": 100,
      "chip": "ym2612"
    },
    {
      "channel": 1,
      "note": 72,
      "start": 48.5063,
      "duration": 0.0161,
      "velocity": 127,
      "chip": "ym2612"
    },
    {
      "channel": 3,
      "note": 69,
      "start": 48.5087,
      "duration": 0.0161,
      "velocity": 100,
      "chip": "ym2612"
    },
    {
      "channel": 2,
      "note": 69,
      "start": 48.5099,
      "duration": 0.0161,
      "velocity": 100,
      "chip": "ym2612"
    },
    {
      "channel": 4,
      "note": 57,
      "start": 48.5116,
      "duration": 0.0161,
      "velocity": 100,
      "chip": "ym2612"
    },
    {
      "channel": 1,
      "note": 72,
      "start": 48.5224,
      "duration": 0.0161,
      "velocity": 127,
      "chip": "ym2612"
    },
    {
      "channel": 3,
      "note": 69,
      "start": 48.5248,
      "duration": 0.0161,
      "velocity": 100,
      "chip": "ym2612"
    },
    {
      "channel": 2,
      "note": 69,
      "start": 48.526,
      "duration": 0.0161,
      "velocity": 100,
      "chip": "ym2612"
    },
    {
      "channel": 4,
      "note": 57,
      "start": 48.5277,
      "duration": 0.0155,
      "velocity": 100,
      "chip": "ym2612"
    },
    {
      "channel": 1,
      "note": 72,
      "start": 48.5385,
      "duration": 0.0161,
      "velocity": 127,
      "chip": "ym2612"
    },
    {
      "channel": 3,
      "note": 69,
      "start": 48.5409,
      "duration": 0.0161,
      "velocity": 100,
      "chip": "ym2612"
    },
    {
      "channel": 2,
      "note": 69,
      "start": 48.5421,
      "duration": 0.0161,
      "velocity": 100,
      "chip": "ym2612"
    },
    {
      "channel": 4,
      "note": 57,
      "start": 48.5432,
      "duration": 0.0161,
      "velocity": 100,
      "chip": "ym2612"
    },
    {
      "channel": 1,
      "note": 72,
      "start": 48.5546,
      "duration": 0.0161,
      "velocity": 127,
      "chip": "ym2612"
    },
    {
      "channel": 3,
      "note": 69,
      "start": 48.557,
      "duration": 0.0161,
      "velocity": 100,
      "chip": "ym2612"
    },
    {
      "channel": 2,
      "note": 69,
      "start": 48.5582,
      "duration": 0.0161,
      "velocity": 100,
      "chip": "ym2612"
    },
    {
      "channel": 4,
      "note": 57,
      "start": 48.5594,
      "duration": 0.0161,
      "velocity": 100,
      "chip": "ym2612"
    },
    {
      "channel": 1,
      "note": 72,
      "start": 48.5707,
      "duration": 0.0161,
      "velocity": 127,
      "chip": "ym2612"
    },
    {
      "channel": 3,
      "note": 69,
      "start": 48.5731,
      "duration": 0.0161,
      "velocity": 100,
      "chip": "ym2612"
    },
    {
      "channel": 2,
      "note": 69,
      "start": 48.5743,
      "duration": 0.0161,
      "velocity": 100,
      "chip": "ym2612"
    },
    {
      "channel": 4,
      "note": 57,
      "start": 48.5755,
      "duration": 0.0161,
      "velocity": 100,
      "chip": "ym2612"
    },
    {
      "channel": 1,
      "note": 72,
      "start": 48.5868,
      "duration": 0.0161,
      "velocity": 127,
      "chip": "ym2612"
    },
    {
      "channel": 3,
      "note": 69,
      "start": 48.5892,
      "duration": 0.0161,
      "velocity": 100,
      "chip": "ym2612"
    },
    {
      "channel": 2,
      "note": 69,
      "start": 48.5904,
      "duration": 0.016,
      "velocity": 100,
      "chip": "ym2612"
    },
    {
      "channel": 4,
      "note": 57,
      "start": 48.5916,
      "duration": 0.0161,
      "velocity": 100,
      "chip": "ym2612"
    },
    {
      "channel": 1,
      "note": 72,
      "start": 48.6029,
      "duration": 0.0161,
      "velocity": 127,
      "chip": "ym2612"
    },
    {
      "channel": 3,
      "note": 69,
      "start": 48.6053,
      "duration": 0.0161,
      "velocity": 100,
      "chip": "ym2612"
    },
    {
      "channel": 2,
      "note": 69,
      "start": 48.6064,
      "duration": 0.0162,
      "velocity": 100,
      "chip": "ym2612"
    },
    {
      "channel": 4,
      "note": 57,
      "start": 48.6076,
      "duration": 0.0161,
      "velocity": 100,
      "chip": "ym2612"
    },
    {
      "channel": 1,
      "note": 72,
      "start": 48.619,
      "duration": 0.0161,
      "velocity": 127,
      "chip": "ym2612"
    },
    {
      "channel": 3,
      "note": 69,
      "start": 48.6214,
      "duration": 0.0162,
      "velocity": 100,
      "chip": "ym2612"
    },
    {
      "channel": 2,
      "note": 69,
      "start": 48.6226,
      "duration": 0.0161,
      "velocity": 100,
      "chip": "ym2612"
    },
    {
      "channel": 4,
      "note": 57,
      "start": 48.6237,
      "duration": 0.0161,
      "velocity": 100,
      "chip": "ym2612"
    },
    {
      "channel": 1,
      "note": 72,
      "start": 48.6351,
      "duration": 0.0161,
      "velocity": 127,
      "chip": "ym2612"
    },
    {
      "channel": 3,
      "note": 69,
      "start": 48.6376,
      "duration": 0.0161,
      "velocity": 100,
      "chip": "ym2612"
    },
    {
      "channel": 2,
      "note": 69,
      "start": 48.6387,
      "duration": 0.0161,
      "velocity": 100,
      "chip": "ym2612"
    },
    {
      "channel": 4,
      "note": 57,
      "start": 48.6398,
      "duration": 0.0161,
      "velocity": 100,
      "chip": "ym2612"
    },
    {
      "channel": 1,
      "note": 72,
      "start": 48.6512,
      "duration": 0.0159,
      "velocity": 1,
      "chip": "ym2612"
    },
    {
      "channel": 3,
      "note": 69,
      "start": 48.6537,
      "duration": 0.0158,
      "velocity": 100,
      "chip": "ym2612"
    },
    {
      "channel": 2,
      "note": 69,
      "start": 48.6548,
      "duration": 0.0159,
      "velocity": 100,
      "chip": "ym2612"
    },
    {
      "channel": 4,
      "note": 57,
      "start": 48.6559,
      "duration": 0.0158,
      "velocity": 100,
      "chip": "ym2612"
    },
    {
      "channel": 3,
      "note": 69,
      "start": 48.6695,
      "duration": 0.0164,
      "velocity": 100,
      "chip": "ym2612"
    },
    {
      "channel": 4,
      "note": 57,
      "start": 48.6718,
      "duration": 0.0141,
      "velocity": 100,
      "chip": "ym2612"
    },
    {
      "channel": 0,
      "note": 36,
      "start": 48.6858,
      "duration": 0.0001,
      "velocity": 115,
      "chip": "ym2612"
    }
  ]
}