{
  "track_name": "02 - Prehistoric Stage Theme 1",
  "duration_sec": 147.847,
  "sample_rate": 44100,
  "note_count": 3443,
  "unique_pitches": 51,
  "pitch_range": 77,
  "avg_note_duration": 0.2521,
  "reconstruction_stats": {
    "notes_reconstructed": 3443,
    "keyon_events": 3443,
    "keyoff_events": 3288,
    "orphan_keyons": 5,
    "unique_pitches": 51,
    "pitch_range": 77,
    "avg_duration_sec": 0.2521
  },
  "metadata": {
    "source": "T\\The Second Samurai\\02 - Prehistoric Stage Theme 1.vgz"
  },
  "notes": [
    {
      "channel": 0,
      "note": 37,
      "start": 0.0,
      "duration": 0.3064,
      "velocity": 107,
      "chip": "ym2612"
    },
    {
      "channel": 1,
      "note": 85,
      "start": 0.0021,
      "duration": 1.7042,
      "velocity": 103,
      "chip": "ym2612"
    },
    {
      "channel": 2,
      "note": 76,
      "start": 0.0042,
      "duration": 1.7043,
      "velocity": 103,
      "chip": "ym2612"
    },
    {
      "channel": 4,
      "note": 110,
      "start": 0.0064,
      "duration": 0.0914,
      "velocity": 107,
      "chip": "ym2612"
    },
    {
      "channel": 3,
      "note": 80,
      "start": 0.0958,
      "duration": 1.6149,
      "velocity": 103,
      "chip": "ym2612"
    },
    {
      "channel": 4,
      "note": 110,
      "start": 0.098,
      "duration": 0.0902,
      "velocity": 107,
      "chip": "ym2612"
    },
    {
      "channel": 4,
      "note": 110,
      "start": 0.1883,
      "duration": 0.1188,
      "velocity": 107,
      "chip": "ym2612"
    },
    {
      "channel": 5,
      "note": 96,
      "start": 0.1905,
      "duration": 0.4236,
      "velocity": 127,
      "chip": "ym2612"
    },
    {
      "channel": 0,
      "note": 37,
      "start": 0.3066,
      "duration": 0.1198,
      "velocity": 107,
      "chip": "ym2612"
    },
    {
      "channel": 4,
      "note": 110,
      "start": 0.3073,
      "duration": 0.1214,
      "velocity": 127,
      "chip": "ym2612"
    },
    {
      "channel": 0,
      "note": 49,
      "start": 0.4265,
      "duration": 0.0933,
      "velocity": 107,
      "chip": "ym2612"
    },
    {
      "channel": 4,
      "note": 43,
      "start": 0.4289,
      "duration": 0.1846,
      "velocity": 107,
      "chip": "ym2612"
    },
    {
      "channel": 0,
      "note": 37,
      "start": 0.52,
      "duration": 0.2117,
      "velocity": 107,
      "chip": "ym2612"
    },
    {
      "channel": 4,
      "note": 110,
      "start": 0.6137,
      "duration": 0.1203,
      "velocity": 107,
      "chip": "ym2612"
    },
    {
      "channel": 5,
      "note": 96,
      "start": 0.6143,
      "duration": 0.4259,
      "velocity": 127,
      "chip": "ym2612"
    },
    {
      "channel": 0,
      "note": 49,
      "start": 0.7318,
      "duration": 0.2134,
      "velocity": 107,
      "chip": "ym2612"
    },
    {
      "channel": 4,
      "note": 110,
      "start": 0.7342,
      "duration": 0.1241,
      "velocity": 107,
      "chip": "ym2612"
    },
    {
      "channel": 4,
      "note": 110,
      "start": 0.8585,
      "duration": 0.0889,
      "velocity": 107,
      "chip": "ym2612"
    },
    {
      "channel": 0,
      "note": 49,
      "start": 0.9453,
      "duration": 0.0935,
      "velocity": 107,
      "chip": "ym2612"
    },
    {
      "channel": 4,
      "note": 110,
      "start": 0.9477,
      "duration": 0.0919,
      "velocity": 107,
      "chip": "ym2612"
    },
    {
      "channel": 0,
      "note": 47,
      "start": 1.039,
      "duration": 0.2398,
      "velocity": 107,
      "chip": "ym2612"
    },
    {
      "channel": 4,
      "note": 110,
      "start": 1.0397,
      "duration": 0.1193,
      "velocity": 107,
      "chip": "ym2612"
    },
    {
      "channel": 5,
      "note": 96,
      "start": 1.0403,
      "duration": 0.4266,
      "velocity": 127,
      "chip": "ym2612"
    },
    {
      "channel": 4,
      "note": 110,
      "start": 1.1592,
      "duration": 0.1219,
      "velocity": 127,
      "chip": "ym2612"
    },
    {
      "channel": 0,
      "note": 42,
      "start": 1.279,
      "duration": 0.0924,
      "velocity": 107,
      "chip": "ym2612"
    },
    {
      "channel": 4,
      "note": 43,
      "start": 1.2813,
      "duration": 0.185,
      "velocity": 107,
      "chip": "ym2612"
    },
    {
      "channel": 0,
      "note": 44,
      "start": 1.3715,
      "duration": 0.0925,
      "velocity": 107,
      "chip": "ym2612"
    },
    {
      "channel": 0,
      "note": 47,
      "start": 1.4642,
      "duration": 0.2399,
      "velocity": 107,
      "chip": "ym2612"
    },
    {
      "channel": 4,
      "note": 110,
      "start": 1.4666,
      "duration": 0.1193,
      "velocity": 107,
      "chip": "ym2612"
    },
    {
      "channel": 5,
      "note": 96,
      "start": 1.4671,
      "duration": 0.4267,
      "velocity": 127,
      "chip": "ym2612"
    },
    {
      "channel": 4,
      "note": 110,
      "start": 1.586,
      "duration": 0.1268,
      "velocity": 107,
      "chip": "ym2612"
    },
    {
      "channel": 0,
      "note": 37,
      "start": 1.7043,
      "duration": 0.3087,
      "velocity": 107,
      "chip": "ym2612"
    },
    {
      "channel": 1,
      "note": 83,
      "start": 1.7065,
      "duration": 1.7073,
      "velocity": 103,
      "chip": "ym2612"
    },
    {
      "channel": 2,
      "note": 80,
      "start": 1.7087,
      "duration": 1.7073,
      "velocity": 103,
      "chip": "ym2612"
    },
    {
      "channel": 3,
      "note": 76,
      "start": 1.7108,
      "duration": 1.7073,
      "velocity": 103,
      "chip": "ym2612"
    },
    {
      "channel": 4,
      "note": 110,
      "start": 1.713,
      "duration": 0.0876,
      "velocity": 107,
      "chip": "ym2612"
    },
    {
      "channel": 4,
      "note": 110,
      "start": 1.8008,
      "duration": 0.0924,
      "velocity": 107,
      "chip": "ym2612"
    },
    {
      "channel": 4,
      "note": 110,
      "start": 1.8934,
      "duration": 0.1203,
      "velocity": 107,
      "chip": "ym2612"
    },
    {
      "channel": 5,
      "note": 96,
      "start": 1.8939,
      "duration": 0.4267,
      "velocity": 127,
      "chip": "ym2612"
    },
    {
      "channel": 0,
      "note": 37,
      "start": 2.0131,
      "duration": 0.1199,
      "velocity": 107,
      "chip": "ym2612"
    },
    {
      "channel": 4,
      "note": 110,
      "start": 2.0139,
      "duration": 0.1214,
      "velocity": 127,
      "chip": "ym2612"
    },
    {
      "channel": 0,
      "note": 49,
      "start": 2.1331,
      "duration": 0.0933,
      "velocity": 107,
      "chip": "ym2612"
    },
    {
      "channel": 4,
      "note": 43,
      "start": 2.1355,
      "duration": 0.1846,
      "velocity": 107,
      "chip": "ym2612"
    },
    {
      "channel": 0,
      "note": 37,
      "start": 2.2266,
      "duration": 0.2117,
      "velocity": 107,
      "chip": "ym2612"
    },
    {
      "channel": 4,
      "note": 110,
      "start": 2.3202,
      "duration": 0.1203,
      "velocity": 127,
      "chip": "ym2612"
    },
    {
      "channel": 5,
      "note": 96,
      "start": 2.3208,
      "duration": 0.4261,
      "velocity": 127,
      "chip": "ym2612"
    },
    {
      "channel": 0,
      "note": 49,
      "start": 2.4384,
      "duration": 0.2141,
      "velocity": 107,
      "chip": "ym2612"
    },
    {
      "channel": 4,
      "note": 43,
      "start": 2.4408,
      "duration": 0.1241,
      "velocity": 107,
      "chip": "ym2612"
    },
    {
      "channel": 4,
      "note": 110,
      "start": 2.5651,
      "duration": 0.0898,
      "velocity": 127,
      "chip": "ym2612"
    },
    {
      "channel": 0,
      "note": 49,
      "start": 2.6527,
      "duration": 0.0913,
      "velocity": 107,
      "chip": "ym2612"
    },
    {
      "channel": 4,
      "note": 43,
      "start": 2.6551,
      "duration": 0.0913,
      "velocity": 107,
      "chip": "ym2612"
    },
    {
      "channel": 0,
      "note": 47,
      "start": 2.7442,
      "duration": 0.2398,
      "velocity": 107,
      "chip": "ym2612"
    },
    {
      "channel": 4,
      "note": 110,
      "start": 2.7465,
      "duration": 0.1177,
      "velocity": 107,
      "chip": "ym2612"
    },
    {
      "channel": 5,
      "note": 96,
      "start": 2.7471,
      "duration": 0.4274,
      "velocity": 127,
      "chip": "ym2612"
    },
    {
      "channel": 4,
      "note": 110,
      "start": 2.8644,
      "duration": 0.1219,
      "velocity": 127,
      "chip": "ym2612"
    },
    {
      "channel": 0,
      "note": 42,
      "start": 2.9842,
      "duration": 0.0933,
      "velocity": 107,
      "chip": "ym2612"
    },
    {
      "channel": 4,
      "note": 43,
      "start": 2.9865,
      "duration": 0.1873,
      "velocity": 107,
      "chip": "ym2612"
    },
    {
      "channel": 0,
      "note": 44,
      "start": 3.0776,
      "duration": 0.0939,
      "velocity": 107,
      "chip": "ym2612"
    },
    {
      "channel": 0,
      "note": 47,
      "start": 3.1717,
      "duration": 0.1198,
      "velocity": 107,
      "chip": "ym2612"
    },
    {
      "channel": 4,
      "note": 110,
      "start": 3.174,
      "duration": 0.1198,
      "velocity": 107,
      "chip": "ym2612"
    },
    {
      "channel": 5,
      "note": 96,
      "start": 3.1746,
      "duration": 0.4258,
      "velocity": 127,
      "chip": "ym2612"
    },
    {
      "channel": 0,
      "note": 49,
      "start": 3.2917,
      "duration": 0.1199,
      "velocity": 107,
      "chip": "ym2612"
    },
    {
      "channel": 4,
      "note": 110,
      "start": 3.294,
      "duration": 0.1263,
      "velocity": 107,
      "chip": "ym2612"
    },
    {
      "channel": 0,
      "note": 37,
      "start": 3.4118,
      "duration": 0.3078,
      "velocity": 107,
      "chip": "ym2612"
    },
    {
      "channel": 1,
      "note": 82,
      "start": 3.4139,
      "duration": 1.7036,
      "velocity": 103,
      "chip": "ym2612"
    },
    {
      "channel": 2,
      "note": 78,
      "start": 3.4161,
      "duration": 1.7035,
      "velocity": 103,
      "chip": "ym2612"
    },
    {
      "channel": 3,
      "note": 73,
      "start": 3.4183,
      "duration": 1.7036,
      "velocity": 103,
      "chip": "ym2612"
    },
    {
      "channel": 4,
      "note": 110,
      "start": 3.4205,
      "duration": 0.0884,
      "velocity": 107,
      "chip": "ym2612"
    },
    {
      "channel": 4,
      "note": 110,
      "start": 3.509,
      "duration": 0.0908,
      "velocity": 107,
      "chip": "ym2612"
    },
    {
      "channel": 4,
      "note": 110,
      "start": 3.5999,
      "duration": 0.1203,
      "velocity": 107,
      "chip": "ym2612"
    },
    {
      "channel": 5,
      "note": 96,
      "start": 3.6005,
      "duration": 0.427,
      "velocity": 127,
      "chip": "ym2612"
    },
    {
      "channel": 0,
      "note": 37,
      "start": 3.7197,
      "duration": 0.1199,
      "velocity": 107,
      "chip": "ym2612"
    },
    {
      "channel": 4,
      "note": 110,
      "start": 3.7204,
      "duration": 0.1214,
      "velocity": 127,
      "chip": "ym2612"
    },
    {
      "channel": 0,
      "note": 49,
      "start": 3.8397,
      "duration": 0.0935,
      "velocity": 107,
      "chip": "ym2612"
    },
    {
      "channel": 4,
      "note": 43,
      "start": 3.842,
      "duration": 0.1848,
      "velocity": 107,
      "chip": "ym2612"
    },
    {
      "channel": 0,
      "note": 37,
      "start": 3.9334,
      "duration": 0.2117,
      "velocity": 107,
      "chip": "ym2612"
    },
    {
      "channel": 4,
      "note": 110,
      "start": 4.0271,
      "duration": 0.1203,
      "velocity": 107,
      "chip": "ym2612"
    },
    {
      "channel": 5,
      "note": 96,
      "start": 4.0276,
      "duration": 0.4241,
      "velocity": 127,
      "chip": "ym2612"
    },
    {
      "channel": 0,
      "note": 49,
      "start": 4.1452,
      "duration": 0.2128,
      "velocity": 107,
      "chip": "ym2612"
    },
    {
      "channel": 4,
      "note": 110,
      "start": 4.1476,
      "duration": 0.1241,
      "velocity": 107,
      "chip": "ym2612"
    },
    {
      "channel": 4,
      "note": 110,
      "start": 4.2719,
      "duration": 0.0885,
      "velocity": 107,
      "chip": "ym2612"
    },
    {
      "channel": 0,
      "note": 49,
      "start": 4.3582,
      "duration": 0.0922,
      "velocity": 107,
      "chip": "ym2612"
    },
    {
      "channel": 4,
      "note": 110,
      "start": 4.3605,
      "duration": 0.0907,
      "velocity": 107,
      "chip": "ym2612"
    },
    {
      "channel": 0,
      "note": 47,
      "start": 4.4506,
      "duration": 0.2398,
      "velocity": 107,
      "chip": "ym2612"
    },
    {
      "channel": 4,
      "note": 110,
      "start": 4.4513,
      "duration": 0.1193,
      "velocity": 107,
      "chip": "ym2612"
    },
    {
      "channel": 5,
      "note": 96,
      "start": 4.4519,
      "duration": 0.4262,
      "velocity": 127,
      "chip": "ym2612"
    },
    {
      "channel": 4,
      "note": 110,
      "start": 4.5708,
      "duration": 0.1219,
      "velocity": 127,
      "chip": "ym2612"
    },
    {
      "channel": 0,
      "note": 42,
      "start": 4.6906,
      "duration": 0.0928,
      "velocity": 107,
      "chip": "ym2612"
    },
    {
      "channel": 4,
      "note": 43,
      "start": 4.6929,
      "duration": 0.1846,
      "velocity": 107,
      "chip": "ym2612"
    },
    {
      "channel": 0,
      "note": 44,
      "start": 4.7835,
      "duration": 0.0917,
      "velocity": 107,
      "chip": "ym2612"
    },
    {
      "channel": 0,
      "note": 47,
      "start": 4.8754,
      "duration": 0.2399,
      "velocity": 107,
      "chip": "ym2612"
    },
    {
      "channel": 4,
      "note": 110,
      "start": 4.8778,
      "duration": 0.1193,
      "velocity": 107,
      "chip": "ym2612"
    },
    {
      "channel": 5,
      "note": 96,
      "start": 4.8783,
      "duration": 0.4261,
      "velocity": 127,
      "chip": "ym2612"
    },
    {
      "channel": 4,
      "note": 110,
      "start": 4.9972,
      "duration": 0.1268,
      "velocity": 107,
      "chip": "ym2612"
    },
    {
      "channel": 0,
      "note": 37,
      "start": 5.1155,
      "duration": 0.3081,
      "velocity": 107,
      "chip": "ym2612"
    },
    {
      "channel": 1,
      "note": 85,
      "start": 5.1177,
      "duration": 0.8515,
      "velocity": 103,
      "chip": "ym2612"
    },
    {
      "channel": 2,
      "note": 83,
      "start": 5.1199,
      "duration": 0.8516,
      "velocity": 103,
      "chip": "ym2612"
    },
    {
      "channel": 3,
      "note": 76,
      "start": 5.122,
      "duration": 0.8516,
      "velocity": 103,
      "chip": "ym2612"
    },
    {
      "channel": 4,
      "note": 110,
      "start": 5.1242,
      "duration": 0.0874,
      "velocity": 107,
      "chip": "ym2612"
    },
    {
      "channel": 4,
      "note": 110,
      "start": 5.2118,
      "duration": 0.092,
      "velocity": 107,
      "chip": "ym2612"
    },
    {
      "channel": 4,
      "note": 110,
      "start": 5.304,
      "duration": 0.1203,
      "velocity": 107,
      "chip": "ym2612"
    },
    {
      "channel": 5,
      "note": 96,
      "start": 5.3046,
      "duration": 0.4253,
      "velocity": 127,
      "chip": "ym2612"
    },
    {
      "channel": 0,
      "note": 37,
      "start": 5.4238,
      "duration": 0.1199,
      "velocity": 107,
      "chip": "ym2612"
    },
    {
      "channel": 4,
      "note": 110,
      "start": 5.4245,
      "duration": 0.1263,
      "velocity": 127,
      "chip": "ym2612"
    },
    {
      "channel": 0,
      "note": 49,
      "start": 5.5439,
      "duration": 0.0925,
      "velocity": 107,
      "chip": "ym2612"
    },
    {
      "channel": 4,
      "note": 43,
      "start": 5.551,
      "duration": 0.1783,
      "velocity": 107,
      "chip": "ym2612"
    },
    {
      "channel": 0,
      "note": 37,
      "start": 5.6366,
      "duration": 0.2109,
      "velocity": 107,
      "chip": "ym2612"
    },
    {
      "channel": 4,
      "note": 110,
      "start": 5.7295,
      "duration": 0.1203,
      "velocity": 127,
      "chip": "ym2612"
    },
    {
      "channel": 5,
      "note": 96,
      "start": 5.73,
      "duration": 0.4258,
      "velocity": 127,
      "chip": "ym2612"
    },
    {
      "channel": 0,
      "note": 49,
      "start": 5.8476,
      "duration": 0.2126,
      "velocity": 107,
      "chip": "ym2612"
    },
    {
      "channel": 4,
      "note": 43,
      "start": 5.85,
      "duration": 0.1258,
      "velocity": 107,
      "chip": "ym2612"
    },
    {
      "channel": 1,
      "note": 78,
      "start": 5.9694,
      "duration": 0.8513,
      "velocity": 103,
      "chip": "ym2612"
    },
    {
      "channel": 2,
      "note": 87,
      "start": 5.9716,
      "duration": 0.8514,
      "velocity": 103,
      "chip": "ym2612"
    },
    {
      "channel": 3,
      "note": 83,
      "start": 5.9738,
      "duration": 0.8513,
      "velocity": 103,
      "chip": "ym2612"
    },
    {
      "channel": 4,
      "note": 110,
      "start": 5.9759,
      "duration": 0.0866,
      "velocity": 127,
      "chip": "ym2612"
    },
    {
      "channel": 0,
      "note": 49,
      "start": 6.0603,
      "duration": 0.0926,
      "velocity": 107,
      "chip": "ym2612"
    },
    {
      "channel": 4,
      "note": 43,
      "start": 6.0627,
      "duration": 0.0925,
      "velocity": 107,
      "chip": "ym2612"
    },
    {
      "channel": 0,
      "note": 47,
      "start": 6.1531,
      "duration": 0.1198,
      "velocity": 107,
      "chip": "ym2612"
    },
    {
      "channel": 4,
      "note": 110,
      "start": 6.1554,
      "duration": 0.1182,
      "velocity": 107,
      "chip": "ym2612"
    },
    {
      "channel": 5,
      "note": 96,
      "start": 6.156,
      "duration": 0.4254,
      "velocity": 127,
      "chip": "ym2612"
    },
    {
      "channel": 0,
      "note": 35,
      "start": 6.2731,
      "duration": 0.1199,
      "velocity": 107,
      "chip": "ym2612"
    },
    {
      "channel": 4,
      "note": 110,
      "start": 6.2738,
      "duration": 0.1263,
      "velocity": 127,
      "chip": "ym2612"
    },
    {
      "channel": 0,
      "note": 42,
      "start": 6.3932,
      "duration": 0.0932,
      "velocity": 107,
      "chip": "ym2612"
    },
    {
      "channel": 4,
      "note": 43,
      "start": 6.4003,
      "duration": 0.1805,
      "velocity": 107,
      "chip": "ym2612"
    },
    {
      "channel": 0,
      "note": 44,
      "start": 6.4865,
      "duration": 0.092,
      "velocity": 107,
      "chip": "ym2612"
    },
    {
      "channel": 0,
      "note": 47,
      "start": 6.5786,
      "duration": 0.1198,
      "velocity": 107,
      "chip": "ym2612"
    },
    {
      "channel": 4,
      "note": 110,
      "start": 6.581,
      "duration": 0.1198,
      "velocity": 127,
      "chip": "ym2612"
    },
    {
      "channel": 5,
      "note": 96,
      "start": 6.5816,
      "duration": 0.425,
      "velocity": 127,
      "chip": "ym2612"
    },
    {
      "channel": 0,
      "note": 49,
      "start": 6.6986,
      "duration": 0.12,
      "velocity": 107,
      "chip": "ym2612"
    },
    {
      "channel": 4,
      "note": 43,
      "start": 6.701,
      "duration": 0.1263,
      "velocity": 107,
      "chip": "ym2612"
    },
    {
      "channel": 0,
      "note": 37,
      "start": 6.8188,
      "duration": 0.3068,
      "velocity": 107,
      "chip": "ym2612"
    },
    {
      "channel": 1,
      "note": 88,
      "start": 6.8209,
      "duration": 1.7042,
      "velocity": 103,
      "chip": "ym2612"
    },
    {
      "channel": 2,
      "note": 85,
      "start": 6.8231,
      "duration": 1.7041,
      "velocity": 103,
      "chip": "ym2612"
    },
    {
      "channel": 3,
      "note": 80,
      "start": 6.8253,
      "duration": 1.7041,
      "velocity": 103,
      "chip": "ym2612"
    },
    {
      "channel": 4,
      "note": 110,
      "start": 6.8274,
      "duration": 0.0901,
      "velocity": 107,
      "chip": "ym2612"
    },
    {
      "channel": 4,
      "note": 110,
      "start": 6.9177,
      "duration": 0.0882,
      "velocity": 107,
      "chip": "ym2612"
    },
    {
      "channel": 4,
      "note": 110,
      "start": 7.0061,
      "duration": 0.1202,
      "velocity": 107,
      "chip": "ym2612"
    },
    {
      "channel": 5,
      "note": 96,
      "start": 7.0067,
      "duration": 0.4265,
      "velocity": 127,
      "chip": "ym2612"
    },
    {
      "channel": 0,
      "note": 37,
      "start": 7.1258,
      "duration": 0.1199,
      "velocity": 107,
      "chip": "ym2612"
    },
    {
      "channel": 4,
      "note": 110,
      "start": 7.1265,
      "duration": 0.1214,
      "velocity": 127,
      "chip": "ym2612"
    },
    {
      "channel": 0,
      "note": 49,
      "start": 7.2458,
      "duration": 0.0927,
      "velocity": 107,
      "chip": "ym2612"
    },
    {
      "channel": 4,
      "note": 43,
      "start": 7.2481,
      "duration": 0.1844,
      "velocity": 107,
      "chip": "ym2612"
    },
    {
      "channel": 0,
      "note": 37,
      "start": 7.3387,
      "duration": 0.2121,
      "velocity": 107,
      "chip": "ym2612"
    },
    {
      "channel": 4,
      "note": 110,
      "start": 7.4327,
      "duration": 0.1203,
      "velocity": 107,
      "chip": "ym2612"
    },
    {
      "channel": 5,
      "note": 96,
      "start": 7.4334,
      "duration": 0.4254,
      "velocity": 127,
      "chip": "ym2612"
    },
    {
      "channel": 0,
      "note": 49,
      "start": 7.5509,
      "duration": 0.2137,
      "velocity": 107,
      "chip": "ym2612"
    },
    {
      "channel": 4,
      "note": 110,
      "start": 7.5532,
      "duration": 0.1241,
      "velocity": 107,
      "chip": "ym2612"
    },
    {
      "channel": 4,
      "note": 110,
      "start": 7.6776,
      "duration": 0.0894,
      "velocity": 107,
      "chip": "ym2612"
    },
    {
      "channel": 0,
      "note": 49,
      "start": 7.7648,
      "duration": 0.0927,
      "velocity": 107,
      "chip": "ym2612"
    },
    {
      "channel": 4,
      "note": 110,
      "start": 7.7671,
      "duration": 0.0911,
      "velocity": 107,
      "chip": "ym2612"
    },
    {
      "channel": 0,
      "note": 47,
      "start": 7.8576,
      "duration": 0.2399,
      "velocity": 107,
      "chip": "ym2612"
    },
    {
      "channel": 4,
      "note": 110,
      "start": 7.8584,
      "duration": 0.1193,
      "velocity": 107,
      "chip": "ym2612"
    },
    {
      "channel": 5,
      "note": 96,
      "start": 7.859,
      "duration": 0.4267,
      "velocity": 127,
      "chip": "ym2612"
    },
    {
      "channel": 4,
      "note": 110,
      "start": 7.9779,
      "duration": 0.1219,
      "velocity": 127,
      "chip": "ym2612"
    },
    {
      "channel": 0,
      "note": 42,
      "start": 8.0976,
      "duration": 0.0933,
      "velocity": 107,
      "chip": "ym2612"
    },
    {
      "channel": 4,
      "note": 43,
      "start": 8.1,
      "duration": 0.1851,
      "velocity": 107,
      "chip": "ym2612"
    },
    {
      "channel": 0,
      "note": 44,
      "start": 8.1911,
      "duration": 0.0917,
      "velocity": 107,
      "chip": "ym2612"
    },
    {
      "channel": 0,
      "note": 47,
      "start": 8.2829,
      "duration": 0.2399,
      "velocity": 107,
      "chip": "ym2612"
    },
    {
      "channel": 4,
      "note": 110,
      "start": 8.2853,
      "duration": 0.1193,
      "velocity": 107,
      "chip": "ym2612"
    },
    {
      "channel": 5,
      "note": 96,
      "start": 8.2859,
      "duration": 0.4259,
      "velocity": 127,
      "chip": "ym2612"
    },
    {
      "channel": 4,
      "note": 110,
      "start": 8.4048,
      "duration": 0.1268,
      "velocity": 107,
      "chip": "ym2612"
    },
    {
      "channel": 0,
      "note": 37,
      "start": 8.5231,
      "duration": 0.3079,
      "velocity": 107,
      "chip": "ym2612"
    },
    {
      "channel": 1,
      "note": 87,
      "start": 8.5252,
      "duration": 0.8535,
      "velocity": 103,
      "chip": "ym2612"
    },
    {
      "channel": 2,
      "note": 83,
      "start": 8.5274,
      "duration": 0.8536,
      "velocity": 103,
      "chip": "ym2612"
    },
    {
      "channel": 3,
      "note": 78,
      "start": 8.5296,
      "duration": 0.8536,
      "velocity": 103,
      "chip": "ym2612"
    },
    {
      "channel": 4,
      "note": 110,
      "start": 8.5318,
      "duration": 0.088,
      "velocity": 107,
      "chip": "ym2612"
    },
    {
      "channel": 4,
      "note": 110,
      "start": 8.62,
      "duration": 0.0912,
      "velocity": 107,
      "chip": "ym2612"
    },
    {
      "channel": 4,
      "note": 110,
      "start": 8.7114,
      "duration": 0.1203,
      "velocity": 107,
      "chip": "ym2612"
    },
    {
      "channel": 5,
      "note": 96,
      "start": 8.7119,
      "duration": 0.4276,
      "velocity": 127,
      "chip": "ym2612"
    },
    {
      "channel": 0,
      "note": 37,
      "start": 8.8311,
      "duration": 0.1199,
      "velocity": 107,
      "chip": "ym2612"
    },
    {
      "channel": 4,
      "note": 110,
      "start": 8.8319,
      "duration": 0.1263,
      "velocity": 127,
      "chip": "ym2612"
    },
    {
      "channel": 0,
      "note": 49,
      "start": 8.9512,
      "duration": 0.0941,
      "velocity": 107,
      "chip": "ym2612"
    },
    {
      "channel": 4,
      "note": 43,
      "start": 8.9583,
      "duration": 0.1806,
      "velocity": 107,
      "chip": "ym2612"
    },
    {
      "channel": 0,
      "note": 37,
      "start": 9.0455,
      "duration": 0.2115,
      "velocity": 107,
      "chip": "ym2612"
    },
    {
      "channel": 4,
      "note": 110,
      "start": 9.139,
      "duration": 0.1203,
      "velocity": 127,
      "chip": "ym2612"
    },
    {
      "channel": 5,
      "note": 96,
      "start": 9.1396,
      "duration": 0.4264,
      "velocity": 127,
      "chip": "ym2612"
    },
    {
      "channel": 0,
      "note": 49,
      "start": 9.2571,
      "duration": 0.2126,
      "velocity": 107,
      "chip": "ym2612"
    },
    {
      "channel": 4,
      "note": 43,
      "start": 9.2595,
      "duration": 0.1258,
      "velocity": 107,
      "chip": "ym2612"
    },
    {
      "channel": 1,
      "note": 83,
      "start": 9.3789,
      "duration": 0.8511,
      "velocity": 103,
      "chip": "ym2612"
    },
    {
      "channel": 2,
      "note": 78,
      "start": 9.3811,
      "duration": 0.8511,
      "velocity": 103,
      "chip": "ym2612"
    },
    {
      "channel": 3,
      "note": 75,
      "start": 9.3833,
      "duration": 0.851,
      "velocity": 103,
      "chip": "ym2612"
    },
    {
      "channel": 4,
      "note": 110,
      "start": 9.3854,
      "duration": 0.0866,
      "velocity": 127,
      "chip": "ym2612"
    },
    {
      "channel": 0,
      "note": 49,
      "start": 9.4699,
      "duration": 0.0932,
      "velocity": 107,
      "chip": "ym2612"
    },
    {
      "channel": 4,
      "note": 43,
      "start": 9.4722,
      "duration": 0.0931,
      "velocity": 107,
      "chip": "ym2612"
    },
    {
      "channel": 0,
      "note": 47,
      "start": 9.5633,
      "duration": 0.2399,
      "velocity": 107,
      "chip": "ym2612"
    },
    {
      "channel": 4,
      "note": 110,
      "start": 9.5656,
      "duration": 0.1177,
      "velocity": 107,
      "chip": "ym2612"
    },
    {
      "channel": 5,
      "note": 96,
      "start": 9.5661,
      "duration": 0.4246,
      "velocity": 127,
      "chip": "ym2612"
    },
    {
      "channel": 4,
      "note": 110,
      "start": 9.6835,
      "duration": 0.1268,
      "velocity": 127,
      "chip": "ym2612"
    },
    {
      "channel": 0,
      "note": 42,
      "start": 9.8033,
      "duration": 0.0925,
      "velocity": 107,
      "chip": "ym2612"
    },
    {
      "channel": 4,
      "note": 43,
      "start": 9.8104,
      "duration": 0.1797,
      "velocity": 107,
      "chip": "ym2612"
    },
    {
      "channel": 0,
      "note": 44,
      "start": 9.896,
      "duration": 0.0918,
      "velocity": 107,
      "chip": "ym2612"
    },
    {
      "channel": 0,
      "note": 47,
      "start": 9.988,
      "duration": 0.1198,
      "velocity": 107,
      "chip": "ym2612"
    },
    {
      "channel": 4,
      "note": 110,
      "start": 9.9903,
      "duration": 0.1198,
      "velocity": 107,
      "chip": "ym2612"
    },
    {
      "channel": 5,
      "note": 96,
      "start": 9.9909,
      "duration": 0.4272,
      "velocity": 127,
      "chip": "ym2612"
    },
    {
      "channel": 0,
      "note": 49,
      "start": 10.1079,
      "duration": 0.1199,
      "velocity": 107,
      "chip": "ym2612"
    },
    {
      "channel": 4,
      "note": 110,
      "start": 10.1103,
      "duration": 0.1263,
      "velocity": 107,
      "chip": "ym2612"
    },
    {
      "channel": 0,
      "note": 42,
      "start": 10.228,
      "duration": 0.3093,
      "velocity": 107,
      "chip": "ym2612"
    },
    {
      "channel": 1,
      "note": 85,
      "start": 10.2301,
      "duration": 1.7078,
      "velocity": 103,
      "chip": "ym2612"
    },
    {
      "channel": 2,
      "note": 82,
      "start": 10.2323,
      "duration": 1.7078,
      "velocity": 103,
      "chip": "ym2612"
    },
    {
      "channel": 3,
      "note": 78,
      "start": 10.2346,
      "duration": 1.7078,
      "velocity": 103,
      "chip": "ym2612"
    },
    {
      "channel": 4,
      "note": 110,
      "start": 10.2367,
      "duration": 0.0881,
      "velocity": 107,
      "chip": "ym2612"
    },
    {
      "channel": 4,
      "note": 110,
      "start": 10.3249,
      "duration": 0.0925,
      "velocity": 107,
      "chip": "ym2612"
    },
    {
      "channel": 4,
      "note": 110,
      "start": 10.4177,
      "duration": 0.1203,
      "velocity": 107,
      "chip": "ym2612"
    },
    {
      "channel": 5,
      "note": 96,
      "start": 10.4182,
      "duration": 0.4266,
      "velocity": 127,
      "chip": "ym2612"
    },
    {
      "channel": 0,
      "note": 42,
      "start": 10.5374,
      "duration": 0.1199,
      "velocity": 107,
      "chip": "ym2612"
    },
    {
      "channel": 4,
      "note": 110,
      "start": 10.5382,
      "duration": 0.1214,
      "velocity": 127,
      "chip": "ym2612"
    },
    {
      "channel": 0,
      "note": 54,
      "start": 10.6574,
      "duration": 0.0931,
      "velocity": 107,
      "chip": "ym2612"
    },
    {
      "channel": 4,
      "note": 43,
      "start": 10.6598,
      "duration": 0.1845,
      "velocity": 107,
      "chip": "ym2612"
    },
    {
      "channel": 0,
      "note": 42,
      "start": 10.7507,
      "duration": 0.2117,
      "velocity": 107,
      "chip": "ym2612"
    },
    {
      "channel": 4,
      "note": 110,
      "start": 10.8444,
      "duration": 0.1203,
      "velocity": 107,
      "chip": "ym2612"
    },
    {
      "channel": 5,
      "note": 96,
      "start": 10.845,
      "duration": 0.4245,
      "velocity": 127,
      "chip": "ym2612"
    },
    {
      "channel": 0,
      "note": 54,
      "start": 10.9626,
      "duration": 0.2141,
      "velocity": 107,
      "chip": "ym2612"
    },
    {
      "channel": 4,
      "note": 110,
      "start": 10.9649,
      "duration": 0.1241,
      "velocity": 107,
      "chip": "ym2612"
    },
    {
      "channel": 4,
      "note": 110,
      "start": 11.0893,
      "duration": 0.0898,
      "velocity": 107,
      "chip": "ym2612"
    },
    {
      "channel": 0,
      "note": 54,
      "start": 11.1769,
      "duration": 0.0913,
      "velocity": 107,
      "chip": "ym2612"
    },
    {
      "channel": 4,
      "note": 110,
      "start": 11.1792,
      "duration": 0.0898,
      "velocity": 107,
      "chip": "ym2612"
    },
    {
      "channel": 0,
      "note": 52,
      "start": 11.2684,
      "duration": 0.2398,
      "velocity": 107,
      "chip": "ym2612"
    },
    {
      "channel": 4,
      "note": 110,
      "start": 11.2691,
      "duration": 0.1193,
      "velocity": 107,
      "chip": "ym2612"
    },
    {
      "channel": 5,
      "note": 96,
      "start": 11.2697,
      "duration": 0.429,
      "velocity": 127,
      "chip": "ym2612"
    },
    {
      "channel": 4,
      "note": 110,
      "start": 11.3886,
      "duration": 0.1219,
      "velocity": 127,
      "chip": "ym2612"
    },
    {
      "channel": 0,
      "note": 47,
      "start": 11.5083,
      "duration": 0.0933,
      "velocity": 107,
      "chip": "ym2612"
    },
    {
      "channel": 4,
      "note": 43,
      "start": 11.5107,
      "duration": 0.1873,
      "velocity": 107,
      "chip": "ym2612"
    },
    {
      "channel": 0,
      "note": 49,
      "start": 11.6018,
      "duration": 0.0939,
      "velocity": 107,
      "chip": "ym2612"
    },
    {
      "channel": 0,
      "note": 52,
      "start": 11.6959,
      "duration": 0.2399,
      "velocity": 107,
      "chip": "ym2612"
    },
    {
      "channel": 4,
      "note": 110,
      "start": 11.6982,
      "duration": 0.1193,
      "velocity": 107,
      "chip": "ym2612"
    },
    {
      "channel": 5,
      "note": 96,
      "start": 11.6988,
      "duration": 0.4258,
      "velocity": 127,
      "chip": "ym2612"
    },
    {
      "channel": 4,
      "note": 110,
      "start": 11.8177,
      "duration": 0.1268,
      "velocity": 107,
      "chip": "ym2612"
    },
    {
      "channel": 0,
      "note": 40,
      "start": 11.9359,
      "duration": 0.3078,
      "velocity": 107,
      "chip": "ym2612"
    },
    {
      "channel": 1,
      "note": 88,
      "start": 11.9381,
      "duration": 0.8536,
      "velocity": 103,
      "chip": "ym2612"
    },
    {
      "channel": 2,
      "note": 80,
      "start": 11.9403,
      "duration": 0.8536,
      "velocity": 103,
      "chip": "ym2612"
    },
    {
      "channel": 3,
      "note": 83,
      "start": 11.9425,
      "duration": 0.8536,
      "velocity": 103,
      "chip": "ym2612"
    },
    {
      "channel": 4,
      "note": 110,
      "start": 11.9446,
      "duration": 0.0884,
      "velocity": 107,
      "chip": "ym2612"
    },
    {
      "channel": 4,
      "note": 110,
      "start": 12.0332,
      "duration": 0.0908,
      "velocity": 107,
      "chip": "ym2612"
    },
    {
      "channel": 4,
      "note": 110,
      "start": 12.1241,
      "duration": 0.1203,
      "velocity": 107,
      "chip": "ym2612"
    },
    {
      "channel": 5,
      "note": 96,
      "start": 12.1247,
      "duration": 0.4276,
      "velocity": 127,
      "chip": "ym2612"
    },
    {
      "channel": 0,
      "note": 40,
      "start": 12.2439,
      "duration": 0.1199,
      "velocity": 107,
      "chip": "ym2612"
    },
    {
      "channel": 4,
      "note": 110,
      "start": 12.2446,
      "duration": 0.1263,
      "velocity": 127,
      "chip": "ym2612"
    },
    {
      "channel": 0,
      "note": 52,
      "start": 12.364,
      "duration": 0.0939,
      "velocity": 107,
      "chip": "ym2612"
    },
    {
      "channel": 4,
      "note": 43,
      "start": 12.3711,
      "duration": 0.1807,
      "velocity": 107,
      "chip": "ym2612"
    },
    {
      "channel": 0,
      "note": 40,
      "start": 12.458,
      "duration": 0.2119,
      "velocity": 107,
      "chip": "ym2612"
    },
    {
      "channel": 4,
      "note": 110,
      "start": 12.5519,
      "duration": 0.1203,
      "velocity": 127,
      "chip": "ym2612"
    },
    {
      "channel": 5,
      "note": 96,
      "start": 12.5525,
      "duration": 0.4256,
      "velocity": 127,
      "chip": "ym2612"
    },
    {
      "channel": 0,
      "note": 42,
      "start": 12.6701,
      "duration": 0.2137,
      "velocity": 107,
      "chip": "ym2612"
    },
    {
      "channel": 4,
      "note": 43,
      "start": 12.6724,
      "duration": 0.1258,
      "velocity": 107,
      "chip": "ym2612"
    },
    {
      "channel": 1,
      "note": 88,
      "start": 12.7919,
      "duration": 0.8515,
      "velocity": 103,
      "chip": "ym2612"
    },
    {
      "channel": 2,
      "note": 92,
      "start": 12.794,
      "duration": 0.8515,
      "velocity": 103,
      "chip": "ym2612"
    },
    {
      "channel": 3,
      "note": 83,
      "start": 12.7963,
      "duration": 0.9433,
      "velocity": 103,
      "chip": "ym2612"
    },
    {
      "channel": 4,
      "note": 110,
      "start": 12.7984,
      "duration": 0.0876,
      "velocity": 127,
      "chip": "ym2612"
    },
    {
      "channel": 0,
      "note": 42,
      "start": 12.8839,
      "duration": 0.2118,
      "velocity": 107,
      "chip": "ym2612"
    },
    {
      "channel": 4,
      "note": 43,
      "start": 12.8862,
      "duration": 0.0912,
      "velocity": 107,
      "chip": "ym2612"
    },
    {
      "channel": 4,
      "note": 110,
      "start": 12.9776,
      "duration": 0.1187,
      "velocity": 107,
      "chip": "ym2612"
    },
    {
      "channel": 5,
      "note": 96,
      "start": 12.9782,
      "duration": 0.4256,
      "velocity": 127,
      "chip": "ym2612"
    },
    {
      "channel": 0,
      "note": 42,
      "start": 13.0958,
      "duration": 0.1199,
      "velocity": 107,
      "chip": "ym2612"
    },
    {
      "channel": 4,
      "note": 110,
      "start": 13.0965,
      "duration": 0.1263,
      "velocity": 127,
      "chip": "ym2612"
    },
    {
      "channel": 0,
      "note": 54,
      "start": 13.2159,
      "duration": 0.0941,
      "velocity": 107,
      "chip": "ym2612"
    },
    {
      "channel": 4,
      "note": 43,
      "start": 13.223,
      "duration": 0.1803,
      "velocity": 107,
      "chip": "ym2612"
    },
    {
      "channel": 0,
      "note": 42,
      "start": 13.3102,
      "duration": 0.0908,
      "velocity": 107,
      "chip": "ym2612"
    },
    {
      "channel": 0,
      "note": 52,
      "start": 13.4011,
      "duration": 0.1199,
      "velocity": 107,
      "chip": "ym2612"
    },
    {
      "channel": 4,
      "note": 110,
      "start": 13.4035,
      "duration": 0.1198,
      "velocity": 127,
      "chip": "ym2612"
    },
    {
      "channel": 5,
      "note": 96,
      "start": 13.404,
      "duration": 0.4287,
      "velocity": 127,
      "chip": "ym2612"
    },
    {
      "channel": 0,
      "note": 54,
      "start": 13.5212,
      "duration": 0.12,
      "velocity": 107,
      "chip": "ym2612"
    },
    {
      "channel": 4,
      "note": 43,
      "start": 13.5235,
      "duration": 0.1243,
      "velocity": 107,
      "chip": "ym2612"
    },
    {
      "channel": 0,
      "note": 37,
      "start": 13.6414,
      "duration": 0.3089,
      "velocity": 107,
      "chip": "ym2612"
    },
    {
      "channel": 1,
      "note": 85,
      "start": 13.6435,
      "duration": 1.7061,
      "velocity": 103,
      "chip": "ym2612"
    },
    {
      "channel": 2,
      "note": 76,
      "start": 13.6456,
      "duration": 1.7061,
      "velocity": 103,
      "chip": "ym2612"
    },
    {
      "channel": 4,
      "note": 110,
      "start": 13.6479,
      "duration": 0.0939,
      "velocity": 107,
      "chip": "ym2612"
    },
    {
      "channel": 3,
      "note": 80,
      "start": 13.7398,
      "duration": 1.6142,
      "velocity": 103,
      "chip": "ym2612"
    },
    {
      "channel": 4,
      "note": 110,
      "start": 13.7419,
      "duration": 0.0902,
      "velocity": 107,
      "chip": "ym2612"
    },
    {
      "channel": 4,
      "note": 110,
      "start": 13.8323,
      "duration": 0.1187,
      "velocity": 107,
      "chip": "ym2612"
    },
    {
      "channel": 5,
      "note": 96,
      "start": 13.8329,
      "duration": 0.424,
      "velocity": 127,
      "chip": "ym2612"
    },
    {
      "channel": 0,
      "note": 37,
      "start": 13.9504,
      "duration": 0.1198,
      "velocity": 107,
      "chip": "ym2612"
    },
    {
      "channel": 4,
      "note": 110,
      "start": 13.9511,
      "duration": 0.1214,
      "velocity": 127,
      "chip": "ym2612"
    },
    {
      "channel": 0,
      "note": 49,
      "start": 14.0704,
      "duration": 0.0922,
      "velocity": 107,
      "chip": "ym2612"
    },
    {
      "channel": 4,
      "note": 43,
      "start": 14.0727,
      "duration": 0.1835,
      "velocity": 107,
      "chip": "ym2612"
    },
    {
      "channel": 0,
      "note": 37,
      "start": 14.1627,
      "duration": 0.2117,
      "velocity": 107,
      "chip": "ym2612"
    },
    {
      "channel": 4,
      "note": 110,
      "start": 14.2564,
      "duration": 0.1203,
      "velocity": 107,
      "chip": "ym2612"
    },
    {
      "channel": 5,
      "note": 96,
      "start": 14.2571,
      "duration": 0.4264,
      "velocity": 127,
      "chip": "ym2612"
    },
    {
      "channel": 0,
      "note": 49,
      "start": 14.3746,
      "duration": 0.2147,
      "velocity": 107,
      "chip": "ym2612"
    },
    {
      "channel": 4,
      "note": 110,
      "start": 14.377,
      "duration": 0.1241,
      "velocity": 107,
      "chip": "ym2612"
    },
    {
      "channel": 4,
      "note": 110,
      "start": 14.5013,
      "duration": 0.0903,
      "velocity": 107,
      "chip": "ym2612"
    },
    {
      "channel": 0,
      "note": 49,
      "start": 14.5895,
      "duration": 0.0927,
      "velocity": 107,
      "chip": "ym2612"
    },
    {
      "channel": 4,
      "note": 110,
      "start": 14.5918,
      "duration": 0.0911,
      "velocity": 107,
      "chip": "ym2612"
    },
    {
      "channel": 0,
      "note": 47,
      "start": 14.6823,
      "duration": 0.2399,
      "velocity": 107,
      "chip": "ym2612"
    },
    {
      "channel": 4,
      "note": 110,
      "start": 14.6831,
      "duration": 0.1193,
      "velocity": 107,
      "chip": "ym2612"
    },
    {
      "channel": 5,
      "note": 96,
      "start": 14.6837,
      "duration": 0.4266,
      "velocity": 127,
      "chip": "ym2612"
    },
    {
      "channel": 4,
      "note": 110,
      "start": 14.8026,
      "duration": 0.1219,
      "velocity": 127,
      "chip": "ym2612"
    },
    {
      "channel": 0,
      "note": 42,
      "start": 14.9223,
      "duration": 0.0931,
      "velocity": 107,
      "chip": "ym2612"
    },
    {
      "channel": 4,
      "note": 43,
      "start": 14.9247,
      "duration": 0.185,
      "velocity": 107,
      "chip": "ym2612"
    },
    {
      "channel": 0,
      "note": 44,
      "start": 15.0156,
      "duration": 0.0917,
      "velocity": 107,
      "chip": "ym2612"
    },
    {
      "channel": 0,
      "note": 47,
      "start": 15.1075,
      "duration": 0.2399,
      "velocity": 107,
      "chip": "ym2612"
    },
    {
      "channel": 4,
      "note": 110,
      "start": 15.1099,
      "duration": 0.1193,
      "velocity": 107,
      "chip": "ym2612"
    },
    {
      "channel": 5,
      "note": 96,
      "start": 15.1104,
      "duration": 0.4258,
      "velocity": 127,
      "chip": "ym2612"
    },
    {
      "channel": 4,
      "note": 110,
      "start": 15.2293,
      "duration": 0.1268,
      "velocity": 107,
      "chip": "ym2612"
    },
    {
      "channel": 0,
      "note": 37,
      "start": 15.3476,
      "duration": 0.3079,
      "velocity": 107,
      "chip": "ym2612"
    },
    {
      "channel": 1,
      "note": 83,
      "start": 15.3498,
      "duration": 1.704,
      "velocity": 103,
      "chip": "ym2612"
    },
    {
      "channel": 2,
      "note": 80,
      "start": 15.352,
      "duration": 1.704,
      "velocity": 103,
      "chip": "ym2612"
    },
    {
      "channel": 3,
      "note": 76,
      "start": 15.3541,
      "duration": 1.704,
      "velocity": 103,
      "chip": "ym2612"
    },
    {
      "channel": 4,
      "note": 110,
      "start": 15.3563,
      "duration": 0.088,
      "velocity": 107,
      "chip": "ym2612"
    },
    {
      "channel": 4,
      "note": 110,
      "start": 15.4445,
      "duration": 0.0912,
      "velocity": 107,
      "chip": "ym2612"
    },
    {
      "channel": 4,
      "note": 110,
      "start": 15.5359,
      "duration": 0.1203,
      "velocity": 107,
      "chip": "ym2612"
    },
    {
      "channel": 5,
      "note": 96,
      "start": 15.5364,
      "duration": 0.4265,
      "velocity": 127,
      "chip": "ym2612"
    },
    {
      "channel": 0,
      "note": 37,
      "start": 15.6556,
      "duration": 0.1199,
      "velocity": 107,
      "chip": "ym2612"
    },
    {
      "channel": 4,
      "note": 110,
      "start": 15.6564,
      "duration": 0.1214,
      "velocity": 127,
      "chip": "ym2612"
    },
    {
      "channel": 0,
      "note": 49,
      "start": 15.7756,
      "duration": 0.0927,
      "velocity": 107,
      "chip": "ym2612"
    },
    {
      "channel": 4,
      "note": 43,
      "start": 15.778,
      "duration": 0.1844,
      "velocity": 107,
      "chip": "ym2612"
    },
    {
      "channel": 0,
      "note": 37,
      "start": 15.8685,
      "duration": 0.2121,
      "velocity": 107,
      "chip": "ym2612"
    },
    {
      "channel": 4,
      "note": 110,
      "start": 15.9626,
      "duration": 0.1203,
      "velocity": 127,
      "chip": "ym2612"
    },
    {
      "channel": 5,
      "note": 96,
      "start": 15.9632,
      "duration": 0.4261,
      "velocity": 127,
      "chip": "ym2612"
    },
    {
      "channel": 0,
      "note": 49,
      "start": 16.0807,
      "duration": 0.2134,
      "velocity": 107,
      "chip": "ym2612"
    },
    {
      "channel": 4,
      "note": 43,
      "start": 16.0831,
      "duration": 0.1241,
      "velocity": 107,
      "chip": "ym2612"
    },
    {
      "channel": 4,
      "note": 110,
      "start": 16.2075,
      "duration": 0.089,
      "velocity": 127,
      "chip": "ym2612"
    },
    {
      "channel": 0,
      "note": 49,
      "start": 16.2943,
      "duration": 0.092,
      "velocity": 107,
      "chip": "ym2612"
    },
    {
      "channel": 4,
      "note": 43,
      "start": 16.2967,
      "duration": 0.0919,
      "velocity": 107,
      "chip": "ym2612"
    },
    {
      "channel": 0,
      "note": 47,
      "start": 16.3865,
      "duration": 0.2398,
      "velocity": 107,
      "chip": "ym2612"
    },
    {
      "channel": 4,
      "note": 110,
      "start": 16.3888,
      "duration": 0.1177,
      "velocity": 107,
      "chip": "ym2612"
    },
    {
      "channel": 5,
      "note": 96,
      "start": 16.3893,
      "duration": 0.4251,
      "velocity": 127,
      "chip": "ym2612"
    },
    {
      "channel": 4,
      "note": 110,
      "start": 16.5067,
      "duration": 0.1219,
      "velocity": 127,
      "chip": "ym2612"
    },
    {
      "channel": 0,
      "note": 42,
      "start": 16.6264,
      "duration": 0.0933,
      "velocity": 107,
      "chip": "ym2612"
    },
    {
      "channel": 4,
      "note": 43,
      "start": 16.6288,
      "duration": 0.1851,
      "velocity": 107,
      "chip": "ym2612"
    },
    {
      "channel": 0,
      "note": 44,
      "start": 16.7199,
      "duration": 0.0917,
      "velocity": 107,
      "chip": "ym2612"
    },
    {
      "channel": 0,
      "note": 47,
      "start": 16.8117,
      "duration": 0.1199,
      "velocity": 107,
      "chip": "ym2612"
    },
    {
      "channel": 4,
      "note": 110,
      "start": 16.8141,
      "duration": 0.1198,
      "velocity": 107,
      "chip": "ym2612"
    },
    {
      "channel": 5,
      "note": 96,
      "start": 16.8146,
      "duration": 0.4266,
      "velocity": 127,
      "chip": "ym2612"
    },
    {
      "channel": 0,
      "note": 49,
      "start": 16.9317,
      "duration": 0.1199,
      "velocity": 107,
      "chip": "ym2612"
    },
    {
      "channel": 4,
      "note": 110,
      "start": 16.9341,
      "duration": 0.1263,
      "velocity": 107,
      "chip": "ym2612"
    },
    {
      "channel": 0,
      "note": 37,
      "start": 17.0518,
      "duration": 0.3087,
      "velocity": 107,
      "chip": "ym2612"
    },
    {
      "channel": 1,
      "note": 82,
      "start": 17.0539,
      "duration": 1.7076,
      "velocity": 103,
      "chip": "ym2612"
    },
    {
      "channel": 2,
      "note": 78,
      "start": 17.0561,
      "duration": 1.7076,
      "velocity": 103,
      "chip": "ym2612"
    },
    {
      "channel": 3,
      "note": 73,
      "start": 17.0584,
      "duration": 1.7076,
      "velocity": 103,
      "chip": "ym2612"
    },
    {
      "channel": 4,
      "note": 110,
      "start": 17.0605,
      "duration": 0.088,
      "velocity": 107,
      "chip": "ym2612"
    },
    {
      "channel": 4,
      "note": 110,
      "start": 17.1486,
      "duration": 0.092,
      "velocity": 107,
      "chip": "ym2612"
    },
    {
      "channel": 4,
      "note": 110,
      "start": 17.2409,
      "duration": 0.1203,
      "velocity": 107,
      "chip": "ym2612"
    },
    {
      "channel": 5,
      "note": 96,
      "start": 17.2415,
      "duration": 0.4274,
      "velocity": 127,
      "chip": "ym2612"
    },
    {
      "channel": 0,
      "note": 37,
      "start": 17.3606,
      "duration": 0.1199,
      "velocity": 107,
      "chip": "ym2612"
    },
    {
      "channel": 4,
      "note": 110,
      "start": 17.3614,
      "duration": 0.1214,
      "velocity": 127,
      "chip": "ym2612"
    },
    {
      "channel": 0,
      "note": 49,
      "start": 17.4806,
      "duration": 0.0927,
      "velocity": 107,
      "chip": "ym2612"
    },
    {
      "channel": 4,
      "note": 43,
      "start": 17.483,
      "duration": 0.1853,
      "velocity": 107,
      "chip": "ym2612"
    },
    {
      "channel": 0,
      "note": 37,
      "start": 17.5735,
      "duration": 0.213,
      "velocity": 107,
      "chip": "ym2612"
    },
    {
      "channel": 4,
      "note": 110,
      "start": 17.6685,
      "duration": 0.1203,
      "velocity": 107,
      "chip": "ym2612"
    },
    {
      "channel": 5,
      "note": 96,
      "start": 17.6691,
      "duration": 0.426,
      "velocity": 127,
      "chip": "ym2612"
    },
    {
      "channel": 0,
      "note": 49,
      "start": 17.7867,
      "duration": 0.2134,
      "velocity": 107,
      "chip": "ym2612"
    },
    {
      "channel": 4,
      "note": 110,
      "start": 17.789,
      "duration": 0.1241,
      "velocity": 107,
      "chip": "ym2612"
    },
    {
      "channel": 4,
      "note": 110,
      "start": 17.9134,
      "duration": 0.089,
      "velocity": 107,
      "chip": "ym2612"
    },
    {
      "channel": 0,
      "note": 49,
      "start": 18.0002,
      "duration": 0.0935,
      "velocity": 107,
      "chip": "ym2612"
    },
    {
      "channel": 4,
      "note": 110,
      "start": 18.0026,
      "duration": 0.0919,
      "velocity": 107,
      "chip": "ym2612"
    },
    {
      "channel": 0,
      "note": 47,
      "start": 18.0939,
      "duration": 0.2398,
      "velocity": 107,
      "chip": "ym2612"
    },
    {
      "channel": 4,
      "note": 110,
      "start": 18.0946,
      "duration": 0.1193,
      "velocity": 107,
      "chip": "ym2612"
    },
    {
      "channel": 5,
      "note": 96,
      "start": 18.0952,
      "duration": 0.4269,
      "velocity": 127,
      "chip": "ym2612"
    },
    {
      "channel": 4,
      "note": 110,
      "start": 18.2141,
      "duration": 0.1219,
      "velocity": 127,
      "chip": "ym2612"
    },
    {
      "channel": 0,
      "note": 42,
      "start": 18.3339,
      "duration": 0.0927,
      "velocity": 107,
      "chip": "ym2612"
    },
    {
      "channel": 4,
      "note": 43,
      "start": 18.3363,
      "duration": 0.1853,
      "velocity": 107,
      "chip": "ym2612"
    },
    {
      "channel": 0,
      "note": 44,
      "start": 18.4267,
      "duration": 0.0925,
      "velocity": 107,
      "chip": "ym2612"
    },
    {
      "channel": 0,
      "note": 47,
      "start": 18.5194,
      "duration": 0.2399,
      "velocity": 107,
      "chip": "ym2612"
    },
    {
      "channel": 4,
      "note": 110,
      "start": 18.5218,
      "duration": 0.1193,
      "velocity": 107,
      "chip": "ym2612"
    },
    {
      "channel": 5,
      "note": 96,
      "start": 18.5223,
      "duration": 0.4278,
      "velocity": 127,
      "chip": "ym2612"
    },
    {
      "channel": 4,
      "note": 110,
      "start": 18.6412,
      "duration": 0.1268,
      "velocity": 107,
      "chip": "ym2612"
    },
    {
      "channel": 0,
      "note": 37,
      "start": 18.7595,
      "duration": 0.3098,
      "velocity": 107,
      "chip": "ym2612"
    },
    {
      "channel": 1,
      "note": 85,
      "start": 18.7617,
      "duration": 0.8549,
      "velocity": 103,
      "chip": "ym2612"
    },
    {
      "channel": 2,
      "note": 83,
      "start": 18.7639,
      "duration": 0.8549,
      "velocity": 103,
      "chip": "ym2612"
    },
    {
      "channel": 3,
      "note": 76,
      "start": 18.7661,
      "duration": 0.8549,
      "velocity": 103,
      "chip": "ym2612"
    },
    {
      "channel": 4,
      "note": 110,
      "start": 18.7682,
      "duration": 0.0888,
      "velocity": 107,
      "chip": "ym2612"
    },
    {
      "channel": 4,
      "note": 110,
      "start": 18.8572,
      "duration": 0.0924,
      "velocity": 107,
      "chip": "ym2612"
    },
    {
      "channel": 4,
      "note": 110,
      "start": 18.9497,
      "duration": 0.1203,
      "velocity": 107,
      "chip": "ym2612"
    },
    {
      "channel": 5,
      "note": 96,
      "start": 18.9503,
      "duration": 0.427,
      "velocity": 127,
      "chip": "ym2612"
    },
    {
      "channel": 0,
      "note": 37,
      "start": 19.0695,
      "duration": 0.1199,
      "velocity": 107,
      "chip": "ym2612"
    },
    {
      "channel": 4,
      "note": 110,
      "start": 19.0702,
      "duration": 0.1263,
      "velocity": 127,
      "chip": "ym2612"
    },
    {
      "channel": 0,
      "note": 49,
      "start": 19.1896,
      "duration": 0.0925,
      "velocity": 107,
      "chip": "ym2612"
    },
    {
      "channel": 4,
      "note": 43,
      "start": 19.1967,
      "duration": 0.18,
      "velocity": 107,
      "chip": "ym2612"
    },
    {
      "channel": 0,
      "note": 37,
      "start": 19.2823,
      "duration": 0.2125,
      "velocity": 107,
      "chip": "ym2612"
    },
    {
      "channel": 4,
      "note": 110,
      "start": 19.3769,
      "duration": 0.1202,
      "velocity": 127,
      "chip": "ym2612"
    },
    {
      "channel": 5,
      "note": 96,
      "start": 19.3775,
      "duration": 0.4292,
      "velocity": 127,
      "chip": "ym2612"
    },
    {
      "channel": 0,
      "note": 49,
      "start": 19.495,
      "duration": 0.2141,
      "velocity": 107,
      "chip": "ym2612"
    },
    {
      "channel": 4,
      "note": 43,
      "start": 19.4973,
      "duration": 0.1258,
      "velocity": 107,
      "chip": "ym2612"
    },
    {
      "channel": 1,
      "note": 78,
      "start": 19.6168,
      "duration": 0.856,
      "velocity": 103,
      "chip": "ym2612"
    },
    {
      "channel": 2,
      "note": 87,
      "start": 19.6189,
      "duration": 0.8561,
      "velocity": 103,
      "chip": "ym2612"
    },
    {
      "channel": 3,
      "note": 83,
      "start": 19.6212,
      "duration": 0.856,
      "velocity": 103,
      "chip": "ym2612"
    },
    {
      "channel": 4,
      "note": 110,
      "start": 19.6233,
      "duration": 0.0882,
      "velocity": 127,
      "chip": "ym2612"
    },
    {
      "channel": 0,
      "note": 49,
      "start": 19.7093,
      "duration": 0.0944,
      "velocity": 107,
      "chip": "ym2612"
    },
    {
      "channel": 4,
      "note": 43,
      "start": 19.7116,
      "duration": 0.0945,
      "velocity": 107,
      "chip": "ym2612"
    },
    {
      "channel": 0,
      "note": 47,
      "start": 19.8039,
      "duration": 0.1198,
      "velocity": 107,
      "chip": "ym2612"
    },
    {
      "channel": 4,
      "note": 110,
      "start": 19.8062,
      "duration": 0.1182,
      "velocity": 107,
      "chip": "ym2612"
    },
    {
      "channel": 5,
      "note": 96,
      "start": 19.8068,
      "duration": 0.4267,
      "velocity": 127,
      "chip": "ym2612"
    },
    {
      "channel": 0,
      "note": 35,
      "start": 19.9238,
      "duration": 0.1199,
      "velocity": 107,
      "chip": "ym2612"
    },
    {
      "channel": 4,
      "note": 110,
      "start": 19.9246,
      "duration": 0.1263,
      "velocity": 127,
      "chip": "ym2612"
    },
    {
      "channel": 0,
      "note": 42,
      "start": 20.0439,
      "duration": 0.0942,
      "velocity": 107,
      "chip": "ym2612"
    },
    {
      "channel": 4,
      "note": 43,
      "start": 20.051,
      "duration": 0.1818,
      "velocity": 107,
      "chip": "ym2612"
    },
    {
      "channel": 0,
      "note": 44,
      "start": 20.1383,
      "duration": 0.0922,
      "velocity": 107,
      "chip": "ym2612"
    },
    {
      "channel": 0,
      "note": 47,
      "start": 20.2307,
      "duration": 0.1198,
      "velocity": 107,
      "chip": "ym2612"
    },
    {
      "channel": 4,
      "note": 110,
      "start": 20.233,
      "duration": 0.1198,
      "velocity": 127,
      "chip": "ym2612"
    },
    {
      "channel": 5,
      "note": 96,
      "start": 20.2336,
      "duration": 0.4276,
      "velocity": 127,
      "chip": "ym2612"
    },
    {
      "channel": 0,
      "note": 49,
      "start": 20.3507,
      "duration": 0.12,
      "velocity": 107,
      "chip": "ym2612"
    },
    {
      "channel": 4,
      "note": 43,
      "start": 20.353,
      "duration": 0.1263,
      "velocity": 107,
      "chip": "ym2612"
    },
    {
      "channel": 0,
      "note": 37,
      "start": 20.4708,
      "duration": 0.3095,
      "velocity": 107,
      "chip": "ym2612"
    },
    {
      "channel": 1,
      "note": 88,
      "start": 20.4729,
      "duration": 1.7087,
      "velocity": 103,
      "chip": "ym2612"
    },
    {
      "channel": 2,
      "note": 85,
      "start": 20.4751,
      "duration": 1.7087,
      "velocity": 103,
      "chip": "ym2612"
    },
    {
      "channel": 3,
      "note": 80,
      "start": 20.4773,
      "duration": 1.7087,
      "velocity": 103,
      "chip": "ym2612"
    },
    {
      "channel": 4,
      "note": 110,
      "start": 20.4795,
      "duration": 0.0914,
      "velocity": 107,
      "chip": "ym2612"
    },
    {
      "channel": 4,
      "note": 110,
      "start": 20.571,
      "duration": 0.0895,
      "velocity": 107,
      "chip": "ym2612"
    },
    {
      "channel": 4,
      "note": 110,
      "start": 20.6607,
      "duration": 0.1202,
      "velocity": 107,
      "chip": "ym2612"
    },
    {
      "channel": 5,
      "note": 96,
      "start": 20.6614,
      "duration": 0.4267,
      "velocity": 127,
      "chip": "ym2612"
    },
    {
      "channel": 0,
      "note": 37,
      "start": 20.7804,
      "duration": 0.1199,
      "velocity": 107,
      "chip": "ym2612"
    },
    {
      "channel": 4,
      "note": 110,
      "start": 20.7812,
      "duration": 0.1214,
      "velocity": 127,
      "chip": "ym2612"
    },
    {
      "channel": 0,
      "note": 49,
      "start": 20.9004,
      "duration": 0.0928,
      "velocity": 107,
      "chip": "ym2612"
    },
    {
      "channel": 4,
      "note": 43,
      "start": 20.9028,
      "duration": 0.1847,
      "velocity": 107,
      "chip": "ym2612"
    },
    {
      "channel": 0,
      "note": 37,
      "start": 20.9934,
      "duration": 0.2122,
      "velocity": 107,
      "chip": "ym2612"
    },
    {
      "channel": 4,
      "note": 110,
      "start": 21.0877,
      "duration": 0.1203,
      "velocity": 107,
      "chip": "ym2612"
    },
    {
      "channel": 5,
      "note": 96,
      "start": 21.0883,
      "duration": 0.4272,
      "velocity": 127,
      "chip": "ym2612"
    },
    {
      "channel": 0,
      "note": 49,
      "start": 21.2058,
      "duration": 0.214,
      "velocity": 107,
      "chip": "ym2612"
    },
    {
      "channel": 4,
      "note": 110,
      "start": 21.2082,
      "duration": 0.1241,
      "velocity": 107,
      "chip": "ym2612"
    },
    {
      "channel": 4,
      "note": 110,
      "start": 21.3325,
      "duration": 0.0896,
      "velocity": 107,
      "chip": "ym2612"
    },
    {
      "channel": 0,
      "note": 49,
      "start": 21.42,
      "duration": 0.0943,
      "velocity": 107,
      "chip": "ym2612"
    },
    {
      "channel": 4,
      "note": 110,
      "start": 21.4224,
      "duration": 0.0926,
      "velocity": 107,
      "chip": "ym2612"
    },
    {
      "channel": 0,
      "note": 47,
      "start": 21.5144,
      "duration": 0.2399,
      "velocity": 107,
      "chip": "ym2612"
    },
    {
      "channel": 4,
      "note": 110,
      "start": 21.5152,
      "duration": 0.1193,
      "velocity": 107,
      "chip": "ym2612"
    },
    {
      "channel": 5,
      "note": 96,
      "start": 21.5158,
      "duration": 0.4265,
      "velocity": 127,
      "chip": "ym2612"
    },
    {
      "channel": 4,
      "note": 110,
      "start": 21.6347,
      "duration": 0.1219,
      "velocity": 127,
      "chip": "ym2612"
    },
    {
      "channel": 0,
      "note": 42,
      "start": 21.7544,
      "duration": 0.0927,
      "velocity": 107,
      "chip": "ym2612"
    },
    {
      "channel": 4,
      "note": 43,
      "start": 21.7568,
      "duration": 0.1849,
      "velocity": 107,
      "chip": "ym2612"
    },
    {
      "channel": 0,
      "note": 44,
      "start": 21.8473,
      "duration": 0.0921,
      "velocity": 107,
      "chip": "ym2612"
    },
    {
      "channel": 0,
      "note": 47,
      "start": 21.9395,
      "duration": 0.2399,
      "velocity": 107,
      "chip": "ym2612"
    },
    {
      "channel": 4,
      "note": 110,
      "start": 21.9419,
      "duration": 0.1193,
      "velocity": 107,
      "chip": "ym2612"
    },
    {
      "channel": 5,
      "note": 96,
      "start": 21.9425,
      "duration": 0.4257,
      "velocity": 127,
      "chip": "ym2612"
    },
    {
      "channel": 4,
      "note": 110,
      "start": 22.0614,
      "duration": 0.1268,
      "velocity": 107,
      "chip": "ym2612"
    },
    {
      "channel": 0,
      "note": 37,
      "start": 22.1797,
      "duration": 0.3078,
      "velocity": 107,
      "chip": "ym2612"
    },
    {
      "channel": 1,
      "note": 87,
      "start": 22.1818,
      "duration": 0.8538,
      "velocity": 103,
      "chip": "ym2612"
    },
    {
      "channel": 2,
      "note": 83,
      "start": 22.184,
      "duration": 0.8538,
      "velocity": 103,
      "chip": "ym2612"
    },
    {
      "channel": 3,
      "note": 78,
      "start": 22.1862,
      "duration": 0.8539,
      "velocity": 103,
      "chip": "ym2612"
    },
    {
      "channel": 4,
      "note": 110,
      "start": 22.1884,
      "duration": 0.0885,
      "velocity": 107,
      "chip": "ym2612"
    },
    {
      "channel": 4,
      "note": 110,
      "start": 22.2771,
      "duration": 0.0905,
      "velocity": 107,
      "chip": "ym2612"
    },
    {
      "channel": 4,
      "note": 110,
      "start": 22.3678,
      "duration": 0.1203,
      "velocity": 107,
      "chip": "ym2612"
    },
    {
      "channel": 5,
      "note": 96,
      "start": 22.3684,
      "duration": 0.428,
      "velocity": 127,
      "chip": "ym2612"
    },
    {
      "channel": 0,
      "note": 37,
      "start": 22.4876,
      "duration": 0.1199,
      "velocity": 107,
      "chip": "ym2612"
    },
    {
      "channel": 4,
      "note": 110,
      "start": 22.4883,
      "duration": 0.1263,
      "velocity": 127,
      "chip": "ym2612"
    },
    {
      "channel": 0,
      "note": 49,
      "start": 22.6077,
      "duration": 0.0944,
      "velocity": 107,
      "chip": "ym2612"
    },
    {
      "channel": 4,
      "note": 43,
      "start": 22.6148,
      "duration": 0.181,
      "velocity": 107,
      "chip": "ym2612"
    },
    {
      "channel": 0,
      "note": 37,
      "start": 22.7022,
      "duration": 0.2117,
      "velocity": 107,
      "chip": "ym2612"
    },
    {
      "channel": 4,
      "note": 110,
      "start": 22.7959,
      "duration": 0.1203,
      "velocity": 127,
      "chip": "ym2612"
    },
    {
      "channel": 5,
      "note": 96,
      "start": 22.7965,
      "duration": 0.4265,
      "velocity": 127,
      "chip": "ym2612"
    },
    {
      "channel": 0,
      "note": 49,
      "start": 22.9141,
      "duration": 0.2142,
      "velocity": 107,
      "chip": "ym2612"
    },
    {
      "channel": 4,
      "note": 43,
      "start": 22.9164,
      "duration": 0.1258,
      "velocity": 107,
      "chip": "ym2612"
    },
    {
      "channel": 1,
      "note": 83,
      "start": 23.0359,
      "duration": 0.8503,
      "velocity": 103,
      "chip": "ym2612"
    },
    {
      "channel": 2,
      "note": 78,
      "start": 23.038,
      "duration": 0.8503,
      "velocity": 103,
      "chip": "ym2612"
    },
    {
      "channel": 3,
      "note": 75,
      "start": 23.0402,
      "duration": 0.8504,
      "velocity": 103,
      "chip": "ym2612"
    },
    {
      "channel": 4,
      "note": 110,
      "start": 23.0424,
      "duration": 0.0882,
      "velocity": 127,
      "chip": "ym2612"
    },
    {
      "channel": 0,
      "note": 49,
      "start": 23.1283,
      "duration": 0.0918,
      "velocity": 107,
      "chip": "ym2612"
    },
    {
      "channel": 4,
      "note": 43,
      "start": 23.1307,
      "duration": 0.0917,
      "velocity": 107,
      "chip": "ym2612"
    },
    {
      "channel": 0,
      "note": 47,
      "start": 23.2202,
      "duration": 0.2399,
      "velocity": 107,
      "chip": "ym2612"
    },
    {
      "channel": 4,
      "note": 110,
      "start": 23.2226,
      "duration": 0.1177,
      "velocity": 107,
      "chip": "ym2612"
    },
    {
      "channel": 5,
      "note": 96,
      "start": 23.2232,
      "duration": 0.4237,
      "velocity": 127,
      "chip": "ym2612"
    },
    {
      "channel": 4,
      "note": 110,
      "start": 23.3405,
      "duration": 0.1268,
      "velocity": 127,
      "chip": "ym2612"
    },
    {
      "channel": 0,
      "note": 42,
      "start": 23.4604,
      "duration": 0.0925,
      "velocity": 107,
      "chip": "ym2612"
    },
    {
      "channel": 4,
      "note": 43,
      "start": 23.4675,
      "duration": 0.1788,
      "velocity": 107,
      "chip": "ym2612"
    },
    {
      "channel": 0,
      "note": 44,
      "start": 23.553,
      "duration": 0.0909,
      "velocity": 107,
      "chip": "ym2612"
    },
    {
      "channel": 0,
      "note": 47,
      "start": 23.6441,
      "duration": 0.1198,
      "velocity": 107,
      "chip": "ym2612"
    },
    {
      "channel": 4,
      "note": 110,
      "start": 23.6464,
      "duration": 0.1198,
      "velocity": 107,
      "chip": "ym2612"
    },
    {
      "channel": 5,
      "note": 96,
      "start": 23.647,
      "duration": 0.426,
      "velocity": 127,
      "chip": "ym2612"
    },
    {
      "channel": 0,
      "note": 49,
      "start": 23.7641,
      "duration": 0.1199,
      "velocity": 107,
      "chip": "ym2612"
    },
    {
      "channel": 4,
      "note": 110,
      "start": 23.7664,
      "duration": 0.1263,
      "velocity": 107,
      "chip": "ym2612"
    },
    {
      "channel": 0,
      "note": 42,
      "start": 23.8842,
      "duration": 0.308,
      "velocity": 107,
      "chip": "ym2612"
    },
    {
      "channel": 1,
      "note": 85,
      "start": 23.8863,
      "duration": 1.7059,
      "velocity": 103,
      "chip": "ym2612"
    },
    {
      "channel": 2,
      "note": 82,
      "start": 23.8885,
      "duration": 1.7059,
      "velocity": 103,
      "chip": "ym2612"
    },
    {
      "channel": 3,
      "note": 78,
      "start": 23.8907,
      "duration": 1.706,
      "velocity": 103,
      "chip": "ym2612"
    },
    {
      "channel": 4,
      "note": 110,
      "start": 23.8929,
      "duration": 0.0879,
      "velocity": 107,
      "chip": "ym2612"
    },
    {
      "channel": 4,
      "note": 110,
      "start": 23.981,
      "duration": 0.0914,
      "velocity": 107,
      "chip": "ym2612"
    },
    {
      "channel": 4,
      "note": 110,
      "start": 24.0726,
      "duration": 0.1203,
      "velocity": 107,
      "chip": "ym2612"
    },
    {
      "channel": 5,
      "note": 96,
      "start": 24.0732,
      "duration": 0.4272,
      "velocity": 127,
      "chip": "ym2612"
    },
    {
      "channel": 0,
      "note": 42,
      "start": 24.1923,
      "duration": 0.1199,
      "velocity": 107,
      "chip": "ym2612"
    },
    {
      "channel": 4,
      "note": 110,
      "start": 24.1931,
      "duration": 0.1214,
      "velocity": 127,
      "chip": "ym2612"
    },
    {
      "channel": 0,
      "note": 54,
      "start": 24.3123,
      "duration": 0.0926,
      "velocity": 107,
      "chip": "ym2612"
    },
    {
      "channel": 4,
      "note": 43,
      "start": 24.3147,
      "duration": 0.1851,
      "velocity": 107,
      "chip": "ym2612"
    },
    {
      "channel": 0,
      "note": 42,
      "start": 24.4051,
      "duration": 0.2129,
      "velocity": 107,
      "chip": "ym2612"
    },
    {
      "channel": 4,
      "note": 110,
      "start": 24.4999,
      "duration": 0.1203,
      "velocity": 107,
      "chip": "ym2612"
    },
    {
      "channel": 5,
      "note": 96,
      "start": 24.5005,
      "duration": 0.4255,
      "velocity": 127,
      "chip": "ym2612"
    },
    {
      "channel": 0,
      "note": 54,
      "start": 24.6181,
      "duration": 0.2137,
      "velocity": 107,
      "chip": "ym2612"
    },
    {
      "channel": 4,
      "note": 110,
      "start": 24.6205,
      "duration": 0.1241,
      "velocity": 107,
      "chip": "ym2612"
    },
    {
      "channel": 4,
      "note": 110,
      "start": 24.7448,
      "duration": 0.0894,
      "velocity": 107,
      "chip": "ym2612"
    },
    {
      "channel": 0,
      "note": 54,
      "start": 24.832,
      "duration": 0.0927,
      "velocity": 107,
      "chip": "ym2612"
    },
    {
      "channel": 4,
      "note": 110,
      "start": 24.8343,
      "duration": 0.0911,
      "velocity": 107,
      "chip": "ym2612"
    },
    {
      "channel": 0,
      "note": 52,
      "start": 24.9249,
      "duration": 0.2399,
      "velocity": 107,
      "chip": "ym2612"
    },
    {
      "channel": 4,
      "note": 110,
      "start": 24.9256,
      "duration": 0.1193,
      "velocity": 107,
      "chip": "ym2612"
    },
    {
      "channel": 5,
      "note": 96,
      "start": 24.9262,
      "duration": 0.4267,
      "velocity": 127,
      "chip": "ym2612"
    },
    {
      "channel": 4,
      "note": 110,
      "start": 25.0451,
      "duration": 0.1219,
      "velocity": 127,
      "chip": "ym2612"
    },
    {
      "channel": 0,
      "note": 47,
      "start": 25.1649,
      "duration": 0.0933,
      "velocity": 107,
      "chip": "ym2612"
    },
    {
      "channel": 4,
      "note": 43,
      "start": 25.1672,
      "duration": 0.1851,
      "velocity": 107,
      "chip": "ym2612"
    },
    {
      "channel": 0,
      "note": 49,
      "start": 25.2583,
      "duration": 0.0917,
      "velocity": 107,
      "chip": "ym2612"
    },
    {
      "channel": 0,
      "note": 52,
      "start": 25.3502,
      "duration": 0.2399,
      "velocity": 107,
      "chip": "ym2612"
    },
    {
      "channel": 4,
      "note": 110,
      "start": 25.3525,
      "duration": 0.1193,
      "velocity": 107,
      "chip": "ym2612"
    },
    {
      "channel": 5,
      "note": 96,
      "start": 25.3531,
      "duration": 0.4259,
      "velocity": 127,
      "chip": "ym2612"
    },
    {
      "channel": 4,
      "note": 110,
      "start": 25.472,
      "duration": 0.1268,
      "velocity": 107,
      "chip": "ym2612"
    },
    {
      "channel": 0,
      "note": 40,
      "start": 25.5903,
      "duration": 0.3079,
      "velocity": 107,
      "chip": "ym2612"
    },
    {
      "channel": 1,
      "note": 88,
      "start": 25.5924,
      "duration": 0.8535,
      "velocity": 103,
      "chip": "ym2612"
    },
    {
      "channel": 2,
      "note": 80,
      "start": 25.5946,
      "duration": 0.8536,
      "velocity": 103,
      "chip": "ym2612"
    },
    {
      "channel": 3,
      "note": 83,
      "start": 25.5968,
      "duration": 0.8536,
      "velocity": 103,
      "chip": "ym2612"
    },
    {
      "channel": 4,
      "note": 110,
      "start": 25.599,
      "duration": 0.088,
      "velocity": 107,
      "chip": "ym2612"
    },
    {
      "channel": 4,
      "note": 110,
      "start": 25.6872,
      "duration": 0.0912,
      "velocity": 107,
      "chip": "ym2612"
    },
    {
      "channel": 4,
      "note": 110,
      "start": 25.7786,
      "duration": 0.1203,
      "velocity": 107,
      "chip": "ym2612"
    },
    {
      "channel": 5,
      "note": 96,
      "start": 25.7791,
      "duration": 0.4276,
      "velocity": 127,
      "chip": "ym2612"
    },
    {
      "channel": 0,
      "note": 40,
      "start": 25.8983,
      "duration": 0.1199,
      "velocity": 107,
      "chip": "ym2612"
    },
    {
      "channel": 4,
      "note": 110,
      "start": 25.8991,
      "duration": 0.1263,
      "velocity": 127,
      "chip": "ym2612"
    },
    {
      "channel": 0,
      "note": 52,
      "start": 26.0184,
      "duration": 0.0941,
      "velocity": 107,
      "chip": "ym2612"
    },
    {
      "channel": 4,
      "note": 43,
      "start": 26.0255,
      "duration": 0.1806,
      "velocity": 107,
      "chip": "ym2612"
    },
    {
      "channel": 0,
      "note": 40,
      "start": 26.1127,
      "duration": 0.2115,
      "velocity": 107,
      "chip": "ym2612"
    },
    {
      "channel": 4,
      "note": 110,
      "start": 26.2062,
      "duration": 0.1203,
      "velocity": 127,
      "chip": "ym2612"
    },
    {
      "channel": 5,
      "note": 96,
      "start": 26.2068,
      "duration": 1.1363,
      "velocity": 127,
      "chip": "ym2612"
    },
    {
      "channel": 0,
      "note": 42,
      "start": 26.3244,
      "duration": 0.2091,
      "velocity": 107,
      "chip": "ym2612"
    },
    {
      "channel": 4,
      "note": 43,
      "start": 26.3267,
      "duration": 0.1258,
      "velocity": 107,
      "chip": "ym2612"
    },
    {
      "channel": 1,
      "note": 88,
      "start": 26.4461,
      "duration": 0.7098,
      "velocity": 103,
      "chip": "ym2612"
    },
    {
      "channel": 2,
      "note": 92,
      "start": 26.4483,
      "duration": 0.7098,
      "velocity": 103,
      "chip": "ym2612"
    },
    {
      "channel": 3,
      "note": 83,
      "start": 26.4505,
      "duration": 0.7098,
      "velocity": 103,
      "chip": "ym2612"
    },
    {
      "channel": 4,
      "note": 110,
      "start": 26.4527,
      "duration": 0.0831,
      "velocity": 127,
      "chip": "ym2612"
    },
    {
      "channel": 0,
      "note": 42,
      "start": 26.5336,
      "duration": 0.1761,
      "velocity": 107,
      "chip": "ym2612"
    },
    {
      "channel": 4,
      "note": 43,
      "start": 26.5359,
      "duration": 0.0879,
      "velocity": 107,
      "chip": "ym2612"
    },
    {
      "channel": 4,
      "note": 110,
      "start": 26.624,
      "duration": 0.0864,
      "velocity": 107,
      "chip": "ym2612"
    },
    {
      "channel": 0,
      "note": 42,
      "start": 26.7099,
      "duration": 0.0879,
      "velocity": 107,
      "chip": "ym2612"
    },
    {
      "channel": 4,
      "note": 110,
      "start": 26.7106,
      "duration": 0.0942,
      "velocity": 127,
      "chip": "ym2612"
    },
    {
      "channel": 0,
      "note": 54,
      "start": 26.7979,
      "duration": 0.0897,
      "velocity": 107,
      "chip": "ym2612"
    },
    {
      "channel": 4,
      "note": 43,
      "start": 26.805,
      "duration": 0.1731,
      "velocity": 107,
      "chip": "ym2612"
    },
    {
      "channel": 0,
      "note": 42,
      "start": 26.8877,
      "duration": 0.0881,
      "velocity": 107,
      "chip": "ym2612"
    },
    {
      "channel": 0,
      "note": 52,
      "start": 26.976,
      "duration": 0.0887,
      "velocity": 107,
      "chip": "ym2612"
    },
    {
      "channel": 4,
      "note": 110,
      "start": 26.9783,
      "duration": 0.0887,
      "velocity": 127,
      "chip": "ym2612"
    },
    {
      "channel": 0,
      "note": 54,
      "start": 27.0649,
      "duration": 0.0889,
      "velocity": 107,
      "chip": "ym2612"
    },
    {
      "channel": 4,
      "note": 43,
      "start": 27.0672,
      "duration": 0.0953,
      "velocity": 107,
      "chip": "ym2612"
    },
    {
      "channel": 0,
      "note": 37,
      "start": 27.1539,
      "duration": 0.1873,
      "velocity": 107,
      "chip": "ym2612"
    },
    {
      "channel": 1,
      "note": 49,
      "start": 27.1561,
      "duration": 0.091,
      "velocity": 103,
      "chip": "ym2612"
    },
    {
      "channel": 2,
      "note": 92,
      "start": 27.1583,
      "duration": 3.3346,
      "velocity": 103,
      "chip": "ym2612"
    },
    {
      "channel": 3,
      "note": 85,
      "start": 27.1605,
      "duration": 3.3346,
      "velocity": 103,
      "chip": "ym2612"
    },
    {
      "channel": 4,
      "note": 110,
      "start": 27.1626,
      "duration": 0.09,
      "velocity": 107,
      "chip": "ym2612"
    },
    {
      "channel": 1,
      "note": 61,
      "start": 27.2473,
      "duration": 0.0945,
      "velocity": 103,
      "chip": "ym2612"
    },
    {
      "channel": 4,
      "note": 110,
      "start": 27.2528,
      "duration": 0.0898,
      "velocity": 107,
      "chip": "ym2612"
    },
    {
      "channel": 0,
      "note": 37,
      "start": 27.3415,
      "duration": 0.423,
      "velocity": 107,
      "chip": "ym2612"
    },
    {
      "channel": 1,
      "note": 49,
      "start": 27.342,
      "duration": 0.1192,
      "velocity": 103,
      "chip": "ym2612"
    },
    {
      "channel": 4,
      "note": 110,
      "start": 27.3427,
      "duration": 0.1193,
      "velocity": 107,
      "chip": "ym2612"
    },
    {
      "channel": 5,
      "note": 96,
      "start": 27.3433,
      "duration": 0.4278,
      "velocity": 127,
      "chip": "ym2612"
    },
    {
      "channel": 1,
      "note": 59,
      "start": 27.4614,
      "duration": 0.1198,
      "velocity": 103,
      "chip": "ym2612"
    },
    {
      "channel": 4,
      "note": 110,
      "start": 27.4621,
      "duration": 0.1214,
      "velocity": 127,
      "chip": "ym2612"
    },
    {
      "channel": 1,
      "note": 61,
      "start": 27.5814,
      "duration": 0.0877,
      "velocity": 103,
      "chip": "ym2612"
    },
    {
      "channel": 4,
      "note": 43,
      "start": 27.5837,
      "duration": 0.1868,
      "velocity": 107,
      "chip": "ym2612"
    },
    {
      "channel": 1,
      "note": 49,
      "start": 27.6692,
      "duration": 0.0958,
      "velocity": 103,
      "chip": "ym2612"
    },
    {
      "channel": 0,
      "note": 35,
      "start": 27.7646,
      "duration": 0.1198,
      "velocity": 107,
      "chip": "ym2612"
    },
    {
      "channel": 1,
      "note": 61,
      "start": 27.7651,
      "duration": 0.1199,
      "velocity": 103,
      "chip": "ym2612"
    },
    {
      "channel": 4,
      "note": 110,
      "start": 27.7706,
      "duration": 0.1166,
      "velocity": 107,
      "chip": "ym2612"
    },
    {
      "channel": 5,
      "note": 96,
      "start": 27.7712,
      "duration": 0.3891,
      "velocity": 127,
      "chip": "ym2612"
    },
    {
      "channel": 0,
      "note": 37,
      "start": 27.8846,
      "duration": 0.0887,
      "velocity": 107,
      "chip": "ym2612"
    },
    {
      "channel": 1,
      "note": 49,
      "start": 27.8852,
      "duration": 0.0886,
      "velocity": 103,
      "chip": "ym2612"
    },
    {
      "channel": 4,
      "note": 110,
      "start": 27.8874,
      "duration": 0.0887,
      "velocity": 107,
      "chip": "ym2612"
    },
    {
      "channel": 0,
      "note": 40,
      "start": 27.9734,
      "duration": 0.1851,
      "velocity": 107,
      "chip": "ym2612"
    },
    {
      "channel": 1,
      "note": 59,
      "start": 27.974,
      "duration": 0.0922,
      "velocity": 103,
      "chip": "ym2612"
    },
    {
      "channel": 4,
      "note": 110,
      "start": 27.9763,
      "duration": 0.0921,
      "velocity": 107,
      "chip": "ym2612"
    },
    {
      "channel": 1,
      "note": 61,
      "start": 28.0663,
      "duration": 0.0928,
      "velocity": 103,
      "chip": "ym2612"
    },
    {
      "channel": 4,
      "note": 110,
      "start": 28.0686,
      "duration": 0.0912,
      "velocity": 107,
      "chip": "ym2612"
    },
    {
      "channel": 0,
      "note": 37,
      "start": 28.1587,
      "duration": 0.1198,
      "velocity": 107,
      "chip": "ym2612"
    },
    {
      "channel": 1,
      "note": 49,
      "start": 28.1593,
      "duration": 0.1198,
      "velocity": 103,
      "chip": "ym2612"
    },
    {
      "channel": 4,
      "note": 110,
      "start": 28.1599,
      "duration": 0.1198,
      "velocity": 107,
      "chip": "ym2612"
    },
    {
      "channel": 5,
      "note": 96,
      "start": 28.1605,
      "duration": 0.4247,
      "velocity": 127,
      "chip": "ym2612"
    },
    {
      "channel": 0,
      "note": 40,
      "start": 28.2787,
      "duration": 0.208,
      "velocity": 107,
      "chip": "ym2612"
    },
    {
      "channel": 1,
      "note": 61,
      "start": 28.2792,
      "duration": 0.1194,
      "velocity": 103,
      "chip": "ym2612"
    },
    {
      "channel": 4,
      "note": 110,
      "start": 28.2799,
      "duration": 0.1209,
      "velocity": 127,
      "chip": "ym2612"
    },
    {
      "channel": 1,
      "note": 49,
      "start": 28.3988,
      "duration": 0.0885,
      "velocity": 103,
      "chip": "ym2612"
    },
    {
      "channel": 4,
      "note": 43,
      "start": 28.401,
      "duration": 0.1835,
      "velocity": 107,
      "chip": "ym2612"
    },
    {
      "channel": 0,
      "note": 37,
      "start": 28.4869,
      "duration": 0.0948,
      "velocity": 107,
      "chip": "ym2612"
    },
    {
      "channel": 1,
      "note": 59,
      "start": 28.4875,
      "duration": 0.0948,
      "velocity": 103,
      "chip": "ym2612"
    },
    {
      "channel": 0,
      "note": 42,
      "start": 28.5819,
      "duration": 0.2398,
      "velocity": 107,
      "chip": "ym2612"
    },
    {
      "channel": 1,
      "note": 61,
      "start": 28.5825,
      "duration": 0.1193,
      "velocity": 103,
      "chip": "ym2612"
    },
    {
      "channel": 4,
      "note": 110,
      "start": 28.5847,
      "duration": 0.1193,
      "velocity": 107,
      "chip": "ym2612"
    },
    {
      "channel": 5,
      "note": 96,
      "start": 28.5853,
      "duration": 0.4241,
      "velocity": 127,
      "chip": "ym2612"
    },
    {
      "channel": 1,
      "note": 47,
      "start": 28.702,
      "duration": 0.1203,
      "velocity": 103,
      "chip": "ym2612"
    },
    {
      "channel": 4,
      "note": 110,
      "start": 28.7042,
      "duration": 0.1203,
      "velocity": 107,
      "chip": "ym2612"
    },
    {
      "channel": 0,
      "note": 37,
      "start": 28.8219,
      "duration": 0.1857,
      "velocity": 107,
      "chip": "ym2612"
    },
    {
      "channel": 1,
      "note": 49,
      "start": 28.8224,
      "duration": 0.0922,
      "velocity": 103,
      "chip": "ym2612"
    },
    {
      "channel": 4,
      "note": 110,
      "start": 28.8247,
      "duration": 0.0922,
      "velocity": 107,
      "chip": "ym2612"
    },
    {
      "channel": 1,
      "note": 61,
      "start": 28.9148,
      "duration": 0.0933,
      "velocity": 103,
      "chip": "ym2612"
    },
    {
      "channel": 4,
      "note": 110,
      "start": 28.9171,
      "duration": 0.0918,
      "velocity": 107,
      "chip": "ym2612"
    },
    {
      "channel": 0,
      "note": 37,
      "start": 29.0078,
      "duration": 0.4234,
      "velocity": 107,
      "chip": "ym2612"
    },
    {
      "channel": 1,
      "note": 49,
      "start": 29.0083,
      "duration": 0.1193,
      "velocity": 103,
      "chip": "ym2612"
    },
    {
      "channel": 4,
      "note": 110,
      "start": 29.009,
      "duration": 0.1193,
      "velocity": 107,
      "chip": "ym2612"
    },
    {
      "channel": 5,
      "note": 96,
      "start": 29.0096,
      "duration": 0.425,
      "velocity": 127,
      "chip": "ym2612"
    },
    {
      "channel": 1,
      "note": 59,
      "start": 29.1278,
      "duration": 0.1198,
      "velocity": 103,
      "chip": "ym2612"
    },
    {
      "channel": 4,
      "note": 110,
      "start": 29.1285,
      "duration": 0.1214,
      "velocity": 127,
      "chip": "ym2612"
    },
    {
      "channel": 1,
      "note": 61,
      "start": 29.2478,
      "duration": 0.0881,
      "velocity": 103,
      "chip": "ym2612"
    },
    {
      "channel": 4,
      "note": 43,
      "start": 29.2501,
      "duration": 0.1839,
      "velocity": 107,
      "chip": "ym2612"
    },
    {
      "channel": 1,
      "note": 49,
      "start": 29.3359,
      "duration": 0.0958,
      "velocity": 103,
      "chip": "ym2612"
    },
    {
      "channel": 0,
      "note": 35,
      "start": 29.4313,
      "duration": 0.1198,
      "velocity": 107,
      "chip": "ym2612"
    },
    {
      "channel": 1,
      "note": 61,
      "start": 29.4319,
      "duration": 0.1198,
      "velocity": 103,
      "chip": "ym2612"
    },
    {
      "channel": 4,
      "note": 110,
      "start": 29.4341,
      "duration": 0.1198,
      "velocity": 127,
      "chip": "ym2612"
    },
    {
      "channel": 5,
      "note": 96,
      "start": 29.4347,
      "duration": 0.4266,
      "velocity": 127,
      "chip": "ym2612"
    },
    {
      "channel": 0,
      "note": 37,
      "start": 29.5513,
      "duration": 0.1198,
      "velocity": 107,
      "chip": "ym2612"
    },
    {
      "channel": 1,
      "note": 49,
      "start": 29.5519,
      "duration": 0.1199,
      "velocity": 103,
      "chip": "ym2612"
    },
    {
      "channel": 4,
      "note": 43,
      "start": 29.5541,
      "duration": 0.1198,
      "velocity": 107,
      "chip": "ym2612"
    },
    {
      "channel": 0,
      "note": 40,
      "start": 29.6713,
      "duration": 0.1866,
      "velocity": 107,
      "chip": "ym2612"
    },
    {
      "channel": 1,
      "note": 59,
      "start": 29.6719,
      "duration": 0.0922,
      "velocity": 103,
      "chip": "ym2612"
    },
    {
      "channel": 4,
      "note": 110,
      "start": 29.6741,
      "duration": 0.0922,
      "velocity": 127,
      "chip": "ym2612"
    },
    {
      "channel": 1,
      "note": 61,
      "start": 29.7643,
      "duration": 0.0942,
      "velocity": 103,
      "chip": "ym2612"
    },
    {
      "channel": 4,
      "note": 43,
      "start": 29.7665,
      "duration": 0.0942,
      "velocity": 107,
      "chip": "ym2612"
    },
    {
      "channel": 0,
      "note": 37,
      "start": 29.8581,
      "duration": 0.1198,
      "velocity": 107,
      "chip": "ym2612"
    },
    {
      "channel": 1,
      "note": 49,
      "start": 29.8587,
      "duration": 0.1199,
      "velocity": 103,
      "chip": "ym2612"
    },
    {
      "channel": 4,
      "note": 110,
      "start": 29.861,
      "duration": 0.1182,
      "velocity": 107,
      "chip": "ym2612"
    },
    {
      "channel": 5,
      "note": 96,
      "start": 29.8615,
      "duration": 0.4231,
      "velocity": 127,
      "chip": "ym2612"
    },
    {
      "channel": 0,
      "note": 40,
      "start": 29.9781,
      "duration": 0.2078,
      "velocity": 107,
      "chip": "ym2612"
    },
    {
      "channel": 1,
      "note": 61,
      "start": 29.9787,
      "duration": 0.1194,
      "velocity": 103,
      "chip": "ym2612"
    },
    {
      "channel": 4,
      "note": 110,
      "start": 29.9794,
      "duration": 0.1209,
      "velocity": 127,
      "chip": "ym2612"
    },
    {
      "channel": 1,
      "note": 49,
      "start": 30.0982,
      "duration": 0.0883,
      "velocity": 103,
      "chip": "ym2612"
    },
    {
      "channel": 4,
      "note": 43,
      "start": 30.1005,
      "duration": 0.1836,
      "velocity": 107,
      "chip": "ym2612"
    },
    {
      "channel": 0,
      "note": 37,
      "start": 30.1862,
      "duration": 0.0951,
      "velocity": 107,
      "chip": "ym2612"
    },
    {
      "channel": 1,
      "note": 59,
      "start": 30.1868,
      "duration": 0.0951,
      "velocity": 103,
      "chip": "ym2612"
    },
    {
      "channel": 0,
      "note": 42,
      "start": 30.2814,
      "duration": 0.2088,
      "velocity": 107,
      "chip": "ym2612"
    },
    {
      "channel": 1,
      "note": 61,
      "start": 30.282,
      "duration": 0.1194,
      "velocity": 103,
      "chip": "ym2612"
    },
    {
      "channel": 4,
      "note": 110,
      "start": 30.2842,
      "duration": 0.1193,
      "velocity": 107,
      "chip": "ym2612"
    },
    {
      "channel": 5,
      "note": 96,
      "start": 30.2848,
      "duration": 0.3942,
      "velocity": 127,
      "chip": "ym2612"
    },
    {
      "channel": 1,
      "note": 47,
      "start": 30.4015,
      "duration": 0.0893,
      "velocity": 103,
      "chip": "ym2612"
    },
    {
      "channel": 4,
      "note": 110,
      "start": 30.4037,
      "duration": 0.0935,
      "velocity": 107,
      "chip": "ym2612"
    },
    {
      "channel": 0,
      "note": 37,
      "start": 30.4904,
      "duration": 0.1869,
      "velocity": 107,
      "chip": "ym2612"
    },
    {
      "channel": 1,
      "note": 49,
      "start": 30.491,
      "duration": 0.0936,
      "velocity": 103,
      "chip": "ym2612"
    },
    {
      "channel": 2,
      "note": 85,
      "start": 30.4931,
      "duration": 3.339,
      "velocity": 103,
      "chip": "ym2612"
    },
    {
      "channel": 3,
      "note": 90,
      "start": 30.4953,
      "duration": 3.339,
      "velocity": 103,
      "chip": "ym2612"
    },
    {
      "channel": 4,
      "note": 110,
      "start": 30.4975,
      "duration": 0.0894,
      "velocity": 107,
      "chip": "ym2612"
    },
    {
      "channel": 1,
      "note": 61,
      "start": 30.5847,
      "duration": 0.093,
      "velocity": 103,
      "chip": "ym2612"
    },
    {
      "channel": 4,
      "note": 110,
      "start": 30.587,
      "duration": 0.0915,
      "velocity": 107,
      "chip": "ym2612"
    },
    {
      "channel": 0,
      "note": 37,
      "start": 30.6774,
      "duration": 0.4234,
      "velocity": 107,
      "chip": "ym2612"
    },
    {
      "channel": 1,
      "note": 49,
      "start": 30.678,
      "duration": 0.1193,
      "velocity": 103,
      "chip": "ym2612"
    },
    {
      "channel": 4,
      "note": 110,
      "start": 30.6787,
      "duration": 0.1193,
      "velocity": 107,
      "chip": "ym2612"
    },
    {
      "channel": 5,
      "note": 96,
      "start": 30.6793,
      "duration": 0.4281,
      "velocity": 127,
      "chip": "ym2612"
    },
    {
      "channel": 1,
      "note": 59,
      "start": 30.7975,
      "duration": 0.1198,
      "velocity": 103,
      "chip": "ym2612"
    },
    {
      "channel": 4,
      "note": 110,
      "start": 30.7981,
      "duration": 0.1214,
      "velocity": 127,
      "chip": "ym2612"
    },
    {
      "channel": 1,
      "note": 61,
      "start": 30.9174,
      "duration": 0.0878,
      "velocity": 103,
      "chip": "ym2612"
    },
    {
      "channel": 4,
      "note": 43,
      "start": 30.9197,
      "duration": 0.1871,
      "velocity": 107,
      "chip": "ym2612"
    },
    {
      "channel": 1,
      "note": 49,
      "start": 31.0053,
      "duration": 0.0961,
      "velocity": 103,
      "chip": "ym2612"
    },
    {
      "channel": 0,
      "note": 35,
      "start": 31.101,
      "duration": 0.1198,
      "velocity": 107,
      "chip": "ym2612"
    },
    {
      "channel": 1,
      "note": 61,
      "start": 31.1015,
      "duration": 0.1199,
      "velocity": 103,
      "chip": "ym2612"
    },
    {
      "channel": 4,
      "note": 110,
      "start": 31.107,
      "duration": 0.1166,
      "velocity": 107,
      "chip": "ym2612"
    },
    {
      "channel": 5,
      "note": 96,
      "start": 31.1076,
      "duration": 0.3907,
      "velocity": 127,
      "chip": "ym2612"
    },
    {
      "channel": 0,
      "note": 37,
      "start": 31.221,
      "duration": 0.0883,
      "velocity": 107,
      "chip": "ym2612"
    },
    {
      "channel": 1,
      "note": 49,
      "start": 31.2216,
      "duration": 0.0883,
      "velocity": 103,
      "chip": "ym2612"
    },
    {
      "channel": 4,
      "note": 110,
      "start": 31.2238,
      "duration": 0.0883,
      "velocity": 107,
      "chip": "ym2612"
    },
    {
      "channel": 0,
      "note": 40,
      "start": 31.3095,
      "duration": 0.1871,
      "velocity": 107,
      "chip": "ym2612"
    },
    {
      "channel": 1,
      "note": 59,
      "start": 31.31,
      "duration": 0.0928,
      "velocity": 103,
      "chip": "ym2612"
    },
    {
      "channel": 4,
      "note": 110,
      "start": 31.3123,
      "duration": 0.0928,
      "velocity": 107,
      "chip": "ym2612"
    },
    {
      "channel": 1,
      "note": 61,
      "start": 31.4029,
      "duration": 0.0941,
      "velocity": 103,
      "chip": "ym2612"
    },
    {
      "channel": 4,
      "note": 110,
      "start": 31.4052,
      "duration": 0.0925,
      "velocity": 107,
      "chip": "ym2612"
    },
    {
      "channel": 0,
      "note": 37,
      "start": 31.4967,
      "duration": 0.1198,
      "velocity": 107,
      "chip": "ym2612"
    },
    {
      "channel": 1,
      "note": 49,
      "start": 31.4972,
      "duration": 0.1199,
      "velocity": 103,
      "chip": "ym2612"
    },
    {
      "channel": 4,
      "note": 110,
      "start": 31.4979,
      "duration": 0.1198,
      "velocity": 107,
      "chip": "ym2612"
    },
    {
      "channel": 5,
      "note": 96,
      "start": 31.4985,
      "duration": 0.4249,
      "velocity": 127,
      "chip": "ym2612"
    },
    {
      "channel": 0,
      "note": 40,
      "start": 31.6167,
      "duration": 0.208,
      "velocity": 107,
      "chip": "ym2612"
    },
    {
      "channel": 1,
      "note": 61,
      "start": 31.6172,
      "duration": 0.1194,
      "velocity": 103,
      "chip": "ym2612"
    },
    {
      "channel": 4,
      "note": 110,
      "start": 31.6179,
      "duration": 0.1209,
      "velocity": 127,
      "chip": "ym2612"
    },
    {
      "channel": 1,
      "note": 49,
      "start": 31.7368,
      "duration": 0.0885,
      "velocity": 103,
      "chip": "ym2612"
    },
    {
      "channel": 4,
      "note": 43,
      "start": 31.739,
      "duration": 0.1838,
      "velocity": 107,
      "chip": "ym2612"
    },
    {
      "channel": 0,
      "note": 37,
      "start": 31.8249,
      "duration": 0.0951,
      "velocity": 107,
      "chip": "ym2612"
    },
    {
      "channel": 1,
      "note": 59,
      "start": 31.8255,
      "duration": 0.0951,
      "velocity": 103,
      "chip": "ym2612"
    },
    {
      "channel": 0,
      "note": 42,
      "start": 31.9202,
      "duration": 0.2398,
      "velocity": 107,
      "chip": "ym2612"
    },
    {
      "channel": 1,
      "note": 61,
      "start": 31.9207,
      "duration": 0.1194,
      "velocity": 103,
      "chip": "ym2612"
    },
    {
      "channel": 4,
      "note": 110,
      "start": 31.923,
      "duration": 0.1193,
      "velocity": 107,
      "chip": "ym2612"
    },
    {
      "channel": 5,
      "note": 96,
      "start": 31.9236,
      "duration": 0.4255,
      "velocity": 127,
      "chip": "ym2612"
    },
    {
      "channel": 1,
      "note": 47,
      "start": 32.0402,
      "duration": 0.1203,
      "velocity": 103,
      "chip": "ym2612"
    },
    {
      "channel": 4,
      "note": 110,
      "start": 32.0425,
      "duration": 0.1203,
      "velocity": 107,
      "chip": "ym2612"
    },
    {
      "channel": 0,
      "note": 37,
      "start": 32.1602,
      "duration": 0.1871,
      "velocity": 107,
      "chip": "ym2612"
    },
    {
      "channel": 1,
      "note": 49,
      "start": 32.1607,
      "duration": 0.0936,
      "velocity": 103,
      "chip": "ym2612"
    },
    {
      "channel": 4,
      "note": 110,
      "start": 32.163,
      "duration": 0.0935,
      "velocity": 107,
      "chip": "ym2612"
    },
    {
      "channel": 1,
      "note": 61,
      "start": 32.2545,
      "duration": 0.0933,
      "velocity": 103,
      "chip": "ym2612"
    },
    {
      "channel": 4,
      "note": 110,
      "start": 32.2567,
      "duration": 0.0917,
      "velocity": 107,
      "chip": "ym2612"
    },
    {
      "channel": 0,
      "note": 37,
      "start": 32.3474,
      "duration": 0.423,
      "velocity": 107,
      "chip": "ym2612"
    },
    {
      "channel": 1,
      "note": 49,
      "start": 32.348,
      "duration": 0.1193,
      "velocity": 103,
      "chip": "ym2612"
    },
    {
      "channel": 4,
      "note": 110,
      "start": 32.3487,
      "duration": 0.1193,
      "velocity": 107,
      "chip": "ym2612"
    },
    {
      "channel": 5,
      "note": 96,
      "start": 32.3493,
      "duration": 0.4246,
      "velocity": 127,
      "chip": "ym2612"
    },
    {
      "channel": 1,
      "note": 59,
      "start": 32.4675,
      "duration": 0.1198,
      "velocity": 103,
      "chip": "ym2612"
    },
    {
      "channel": 4,
      "note": 110,
      "start": 32.4681,
      "duration": 0.1214,
      "velocity": 127,
      "chip": "ym2612"
    },
    {
      "channel": 1,
      "note": 61,
      "start": 32.5874,
      "duration": 0.0878,
      "velocity": 103,
      "chip": "ym2612"
    },
    {
      "channel": 4,
      "note": 43,
      "start": 32.5897,
      "duration": 0.1835,
      "velocity": 107,
      "chip": "ym2612"
    },
    {
      "channel": 1,
      "note": 49,
      "start": 32.6754,
      "duration": 0.0955,
      "velocity": 103,
      "chip": "ym2612"
    },
    {
      "channel": 0,
      "note": 35,
      "start": 32.7706,
      "duration": 0.1198,
      "velocity": 107,
      "chip": "ym2612"
    },
    {
      "channel": 1,
      "note": 61,
      "start": 32.7712,
      "duration": 0.1198,
      "velocity": 103,
      "chip": "ym2612"
    },
    {
      "channel": 4,
      "note": 110,
      "start": 32.7734,
      "duration": 0.1198,
      "velocity": 127,
      "chip": "ym2612"
    },
    {
      "channel": 5,
      "note": 96,
      "start": 32.774,
      "duration": 0.4267,
      "velocity": 127,
      "chip": "ym2612"
    },
    {
      "channel": 0,
      "note": 37,
      "start": 32.8906,
      "duration": 0.1198,
      "velocity": 107,
      "chip": "ym2612"
    },
    {
      "channel": 1,
      "note": 49,
      "start": 32.8911,
      "duration": 0.1199,
      "velocity": 103,
      "chip": "ym2612"
    },
    {
      "channel": 4,
      "note": 43,
      "start": 32.8934,
      "duration": 0.1198,
      "velocity": 107,
      "chip": "ym2612"
    },
    {
      "channel": 0,
      "note": 40,
      "start": 33.0106,
      "duration": 0.1867,
      "velocity": 107,
      "chip": "ym2612"
    },
    {
      "channel": 1,
      "note": 59,
      "start": 33.0111,
      "duration": 0.0923,
      "velocity": 103,
      "chip": "ym2612"
    },
    {
      "channel": 4,
      "note": 110,
      "start": 33.0134,
      "duration": 0.0923,
      "velocity": 127,
      "chip": "ym2612"
    },
    {
      "channel": 1,
      "note": 61,
      "start": 33.1036,
      "duration": 0.0942,
      "velocity": 103,
      "chip": "ym2612"
    },
    {
      "channel": 4,
      "note": 43,
      "start": 33.1059,
      "duration": 0.0942,
      "velocity": 107,
      "chip": "ym2612"
    },
    {
      "channel": 0,
      "note": 37,
      "start": 33.1974,
      "duration": 0.1198,
      "velocity": 107,
      "chip": "ym2612"
    },
    {
      "channel": 1,
      "note": 49,
      "start": 33.198,
      "duration": 0.1198,
      "velocity": 103,
      "chip": "ym2612"
    },
    {
      "channel": 4,
      "note": 110,
      "start": 33.2002,
      "duration": 0.1182,
      "velocity": 107,
      "chip": "ym2612"
    },
    {
      "channel": 5,
      "note": 96,
      "start": 33.2008,
      "duration": 0.423,
      "velocity": 127,
      "chip": "ym2612"
    },
    {
      "channel": 0,
      "note": 40,
      "start": 33.3174,
      "duration": 0.2082,
      "velocity": 107,
      "chip": "ym2612"
    },
    {
      "channel": 1,
      "note": 61,
      "start": 33.318,
      "duration": 0.1193,
      "velocity": 103,
      "chip": "ym2612"
    },
    {
      "channel": 4,
      "note": 110,
      "start": 33.3186,
      "duration": 0.1209,
      "velocity": 127,
      "chip": "ym2612"
    },
    {
      "channel": 1,
      "note": 49,
      "start": 33.4374,
      "duration": 0.0887,
      "velocity": 103,
      "chip": "ym2612"
    },
    {
      "channel": 4,
      "note": 43,
      "start": 33.4397,
      "duration": 0.1836,
      "velocity": 107,
      "chip": "ym2612"
    },
    {
      "channel": 0,
      "note": 37,
      "start": 33.5257,
      "duration": 0.0948,
      "velocity": 107,
      "chip": "ym2612"
    },
    {
      "channel": 1,
      "note": 59,
      "start": 33.5262,
      "duration": 0.0948,
      "velocity": 103,
      "chip": "ym2612"
    },
    {
      "channel": 0,
      "note": 42,
      "start": 33.6207,
      "duration": 0.2086,
      "velocity": 107,
      "chip": "ym2612"
    },
    {
      "channel": 1,
      "note": 61,
      "start": 33.6212,
      "duration": 0.1194,
      "velocity": 103,
      "chip": "ym2612"
    },
    {
      "channel": 4,
      "note": 110,
      "start": 33.6235,
      "duration": 0.1194,
      "velocity": 127,
      "chip": "ym2612"
    },
    {
      "channel": 5,
      "note": 96,
      "start": 33.6241,
      "duration": 0.394,
      "velocity": 127,
      "chip": "ym2612"
    },
    {
      "channel": 1,
      "note": 47,
      "start": 33.7408,
      "duration": 0.0891,
      "velocity": 103,
      "chip": "ym2612"
    },
    {
      "channel": 4,
      "note": 43,
      "start": 33.7431,
      "duration": 0.0934,
      "velocity": 107,
      "chip": "ym2612"
    },
    {
      "channel": 0,
      "note": 37,
      "start": 33.8295,
      "duration": 0.1868,
      "velocity": 107,
      "chip": "ym2612"
    },
    {
      "channel": 1,
      "note": 49,
      "start": 33.8301,
      "duration": 0.0917,
      "velocity": 103,
      "chip": "ym2612"
    },
    {
      "channel": 2,
      "note": 92,
      "start": 33.8323,
      "duration": 3.3346,
      "velocity": 103,
      "chip": "ym2612"
    },
    {
      "channel": 3,
      "note": 85,
      "start": 33.8345,
      "duration": 3.3346,
      "velocity": 103,
      "chip": "ym2612"
    },
    {
      "channel": 4,
      "note": 110,
      "start": 33.8366,
      "duration": 0.0906,
      "velocity": 107,
      "chip": "ym2612"
    },
    {
      "channel": 1,
      "note": 61,
      "start": 33.922,
      "duration": 0.0948,
      "velocity": 103,
      "chip": "ym2612"
    },
    {
      "channel": 4,
      "note": 110,
      "start": 33.9274,
      "duration": 0.09,
      "velocity": 107,
      "chip": "ym2612"
    },
    {
      "channel": 0,
      "note": 37,
      "start": 34.0164,
      "duration": 0.4235,
      "velocity": 107,
      "chip": "ym2612"
    },
    {
      "channel": 1,
      "note": 49,
      "start": 34.017,
      "duration": 0.1192,
      "velocity": 103,
      "chip": "ym2612"
    },
    {
      "channel": 4,
      "note": 110,
      "start": 34.0176,
      "duration": 0.1193,
      "velocity": 107,
      "chip": "ym2612"
    },
    {
      "channel": 5,
      "note": 96,
      "start": 34.0182,
      "duration": 0.4283,
      "velocity": 127,
      "chip": "ym2612"
    },
    {
      "channel": 1,
      "note": 59,
      "start": 34.1364,
      "duration": 0.1198,
      "velocity": 103,
      "chip": "ym2612"
    },
    {
      "channel": 4,
      "note": 110,
      "start": 34.137,
      "duration": 0.1214,
      "velocity": 127,
      "chip": "ym2612"
    },
    {
      "channel": 1,
      "note": 61,
      "start": 34.2563,
      "duration": 0.0882,
      "velocity": 103,
      "chip": "ym2612"
    },
    {
      "channel": 4,
      "note": 43,
      "start": 34.2586,
      "duration": 0.1873,
      "velocity": 107,
      "chip": "ym2612"
    },
    {
      "channel": 1,
      "note": 49,
      "start": 34.3446,
      "duration": 0.0958,
      "velocity": 103,
      "chip": "ym2612"
    },
    {
      "channel": 0,
      "note": 35,
      "start": 34.44,
      "duration": 0.1198,
      "velocity": 107,
      "chip": "ym2612"
    },
    {
      "channel": 1,
      "note": 61,
      "start": 34.4406,
      "duration": 0.1199,
      "velocity": 103,
      "chip": "ym2612"
    },
    {
      "channel": 4,
      "note": 110,
      "start": 34.4461,
      "duration": 0.1166,
      "velocity": 107,
      "chip": "ym2612"
    },
    {
      "channel": 5,
      "note": 96,
      "start": 34.4467,
      "duration": 0.3887,
      "velocity": 127,
      "chip": "ym2612"
    },
    {
      "channel": 0,
      "note": 37,
      "start": 34.56,
      "duration": 0.0888,
      "velocity": 107,
      "chip": "ym2612"
    },
    {
      "channel": 1,
      "note": 49,
      "start": 34.5606,
      "duration": 0.0887,
      "velocity": 103,
      "chip": "ym2612"
    },
    {
      "channel": 4,
      "note": 110,
      "start": 34.5629,
      "duration": 0.0888,
      "velocity": 107,
      "chip": "ym2612"
    },
    {
      "channel": 0,
      "note": 40,
      "start": 34.6489,
      "duration": 0.1847,
      "velocity": 107,
      "chip": "ym2612"
    },
    {
      "channel": 1,
      "note": 59,
      "start": 34.6495,
      "duration": 0.0916,
      "velocity": 103,
      "chip": "ym2612"
    },
    {
      "channel": 4,
      "note": 110,
      "start": 34.6518,
      "duration": 0.0916,
      "velocity": 107,
      "chip": "ym2612"
    },
    {
      "channel": 1,
      "note": 61,
      "start": 34.7412,
      "duration": 0.0929,
      "velocity": 103,
      "chip": "ym2612"
    },
    {
      "channel": 4,
      "note": 110,
      "start": 34.7436,
      "duration": 0.0913,
      "velocity": 107,
      "chip": "ym2612"
    },
    {
      "channel": 0,
      "note": 37,
      "start": 34.8338,
      "duration": 0.1198,
      "velocity": 107,
      "chip": "ym2612"
    },
    {
      "channel": 1,
      "note": 49,
      "start": 34.8343,
      "duration": 0.1199,
      "velocity": 103,
      "chip": "ym2612"
    },
    {
      "channel": 4,
      "note": 110,
      "start": 34.835,
      "duration": 0.1198,
      "velocity": 107,
      "chip": "ym2612"
    },
    {
      "channel": 5,
      "note": 96,
      "start": 34.8356,
      "duration": 0.425,
      "velocity": 127,
      "chip": "ym2612"
    },
    {
      "channel": 0,
      "note": 40,
      "start": 34.9538,
      "duration": 0.208,
      "velocity": 107,
      "chip": "ym2612"
    },
    {
      "channel": 1,
      "note": 61,
      "start": 34.9543,
      "duration": 0.1194,
      "velocity": 103,
      "chip": "ym2612"
    },
    {
      "channel": 4,
      "note": 110,
      "start": 34.955,
      "duration": 0.1209,
      "velocity": 127,
      "chip": "ym2612"
    },
    {
      "channel": 1,
      "note": 49,
      "start": 35.0739,
      "duration": 0.0885,
      "velocity": 103,
      "chip": "ym2612"
    },
    {
      "channel": 4,
      "note": 43,
      "start": 35.0761,
      "duration": 0.1839,
      "velocity": 107,
      "chip": "ym2612"
    },
    {
      "channel": 0,
      "note": 37,
      "start": 35.162,
      "duration": 0.0952,
      "velocity": 107,
      "chip": "ym2612"
    },
    {
      "channel": 1,
      "note": 59,
      "start": 35.1626,
      "duration": 0.0952,
      "velocity": 103,
      "chip": "ym2612"
    },
    {
      "channel": 0,
      "note": 42,
      "start": 35.2574,
      "duration": 0.2398,
      "velocity": 107,
      "chip": "ym2612"
    },
    {
      "channel": 1,
      "note": 61,
      "start": 35.258,
      "duration": 0.1194,
      "velocity": 103,
      "chip": "ym2612"
    },
    {
      "channel": 4,
      "note": 110,
      "start": 35.2602,
      "duration": 0.1193,
      "velocity": 107,
      "chip": "ym2612"
    },
    {
      "channel": 5,
      "note": 96,
      "start": 35.2608,
      "duration": 0.4241,
      "velocity": 127,
      "chip": "ym2612"
    },
    {
      "channel": 1,
      "note": 47,
      "start": 35.3775,
      "duration": 0.1203,
      "velocity": 103,
      "chip": "ym2612"
    },
    {
      "channel": 4,
      "note": 110,
      "start": 35.3798,
      "duration": 0.1203,
      "velocity": 107,
      "chip": "ym2612"
    },
    {
      "channel": 0,
      "note": 37,
      "start": 35.4974,
      "duration": 0.1857,
      "velocity": 107,
      "chip": "ym2612"
    },
    {
      "channel": 1,
      "note": 49,
      "start": 35.498,
      "duration": 0.0922,
      "velocity": 103,
      "chip": "ym2612"
    },
    {
      "channel": 4,
      "note": 110,
      "start": 35.5002,
      "duration": 0.0922,
      "velocity": 107,
      "chip": "ym2612"
    },
    {
      "channel": 1,
      "note": 61,
      "start": 35.5904,
      "duration": 0.0933,
      "velocity": 103,
      "chip": "ym2612"
    },
    {
      "channel": 4,
      "note": 110,
      "start": 35.5926,
      "duration": 0.0918,
      "velocity": 107,
      "chip": "ym2612"
    },
    {
      "channel": 0,
      "note": 37,
      "start": 35.6833,
      "duration": 0.423,
      "velocity": 107,
      "chip": "ym2612"
    },
    {
      "channel": 1,
      "note": 49,
      "start": 35.6839,
      "duration": 0.1193,
      "velocity": 103,
      "chip": "ym2612"
    },
    {
      "channel": 4,
      "note": 110,
      "start": 35.6846,
      "duration": 0.1193,
      "velocity": 107,
      "chip": "ym2612"
    },
    {
      "channel": 5,
      "note": 96,
      "start": 35.6851,
      "duration": 0.4245,
      "velocity": 127,
      "chip": "ym2612"
    },
    {
      "channel": 1,
      "note": 59,
      "start": 35.8034,
      "duration": 0.1198,
      "velocity": 103,
      "chip": "ym2612"
    },
    {
      "channel": 4,
      "note": 110,
      "start": 35.804,
      "duration": 0.1214,
      "velocity": 127,
      "chip": "ym2612"
    },
    {
      "channel": 1,
      "note": 61,
      "start": 35.9233,
      "duration": 0.0877,
      "velocity": 103,
      "chip": "ym2612"
    },
    {
      "channel": 4,
      "note": 43,
      "start": 35.9256,
      "duration": 0.1835,
      "velocity": 107,
      "chip": "ym2612"
    },
    {
      "channel": 1,
      "note": 49,
      "start": 36.0111,
      "duration": 0.0957,
      "velocity": 103,
      "chip": "ym2612"
    },
    {
      "channel": 0,
      "note": 35,
      "start": 36.1064,
      "duration": 0.1198,
      "velocity": 107,
      "chip": "ym2612"
    },
    {
      "channel": 1,
      "note": 61,
      "start": 36.107,
      "duration": 0.1199,
      "velocity": 103,
      "chip": "ym2612"
    },
    {
      "channel": 4,
      "note": 110,
      "start": 36.1093,
      "duration": 0.1198,
      "velocity": 127,
      "chip": "ym2612"
    },
    {
      "channel": 5,
      "note": 96,
      "start": 36.1098,
      "duration": 0.4255,
      "velocity": 127,
      "chip": "ym2612"
    },
    {
      "channel": 0,
      "note": 37,
      "start": 36.2264,
      "duration": 0.1198,
      "velocity": 107,
      "chip": "ym2612"
    },
    {
      "channel": 1,
      "note": 49,
      "start": 36.227,
      "duration": 0.1199,
      "velocity": 103,
      "chip": "ym2612"
    },
    {
      "channel": 4,
      "note": 43,
      "start": 36.2293,
      "duration": 0.1198,
      "velocity": 107,
      "chip": "ym2612"
    },
    {
      "channel": 0,
      "note": 40,
      "start": 36.3464,
      "duration": 0.1855,
      "velocity": 107,
      "chip": "ym2612"
    },
    {
      "channel": 1,
      "note": 59,
      "start": 36.347,
      "duration": 0.0922,
      "velocity": 103,
      "chip": "ym2612"
    },
    {
      "channel": 4,
      "note": 110,
      "start": 36.3493,
      "duration": 0.0922,
      "velocity": 127,
      "chip": "ym2612"
    },
    {
      "channel": 1,
      "note": 61,
      "start": 36.4394,
      "duration": 0.0932,
      "velocity": 103,
      "chip": "ym2612"
    },
    {
      "channel": 4,
      "note": 43,
      "start": 36.4416,
      "duration": 0.0932,
      "velocity": 107,
      "chip": "ym2612"
    },
    {
      "channel": 0,
      "note": 37,
      "start": 36.5322,
      "duration": 0.1198,
      "velocity": 107,
      "chip": "ym2612"
    },
    {
      "channel": 1,
      "note": 49,
      "start": 36.5327,
      "duration": 0.1199,
      "velocity": 103,
      "chip": "ym2612"
    },
    {
      "channel": 4,
      "note": 110,
      "start": 36.535,
      "duration": 0.1182,
      "velocity": 107,
      "chip": "ym2612"
    },
    {
      "channel": 5,
      "note": 96,
      "start": 36.5356,
      "duration": 0.4231,
      "velocity": 127,
      "chip": "ym2612"
    },
    {
      "channel": 0,
      "note": 40,
      "start": 36.6522,
      "duration": 0.208,
      "velocity": 107,
      "chip": "ym2612"
    },
    {
      "channel": 1,
      "note": 61,
      "start": 36.6527,
      "duration": 0.1194,
      "velocity": 103,
      "chip": "ym2612"
    },
    {
      "channel": 4,
      "note": 110,
      "start": 36.6534,
      "duration": 0.1209,
      "velocity": 127,
      "chip": "ym2612"
    },
    {
      "channel": 1,
      "note": 49,
      "start": 36.7722,
      "duration": 0.0885,
      "velocity": 103,
      "chip": "ym2612"
    },
    {
      "channel": 4,
      "note": 43,
      "start": 36.7745,
      "duration": 0.1836,
      "velocity": 107,
      "chip": "ym2612"
    },
    {
      "channel": 0,
      "note": 37,
      "start": 36.8604,
      "duration": 0.0949,
      "velocity": 107,
      "chip": "ym2612"
    },
    {
      "channel": 1,
      "note": 59,
      "start": 36.861,
      "duration": 0.0949,
      "velocity": 103,
      "chip": "ym2612"
    },
    {
      "channel": 0,
      "note": 42,
      "start": 36.9555,
      "duration": 0.2087,
      "velocity": 107,
      "chip": "ym2612"
    },
    {
      "channel": 1,
      "note": 61,
      "start": 36.956,
      "duration": 0.1194,
      "velocity": 103,
      "chip": "ym2612"
    },
    {
      "channel": 4,
      "note": 110,
      "start": 36.9583,
      "duration": 0.1193,
      "velocity": 107,
      "chip": "ym2612"
    },
    {
      "channel": 5,
      "note": 96,
      "start": 36.9589,
      "duration": 0.396,
      "velocity": 127,
      "chip": "ym2612"
    },
    {
      "channel": 1,
      "note": 47,
      "start": 37.0755,
      "duration": 0.0892,
      "velocity": 103,
      "chip": "ym2612"
    },
    {
      "channel": 4,
      "note": 110,
      "start": 37.0778,
      "duration": 0.0935,
      "velocity": 107,
      "chip": "ym2612"
    },
    {
      "channel": 0,
      "note": 37,
      "start": 37.1643,
      "duration": 0.1888,
      "velocity": 107,
      "chip": "ym2612"
    },
    {
      "channel": 1,
      "note": 49,
      "start": 37.1649,
      "duration": 0.0938,
      "velocity": 103,
      "chip": "ym2612"
    },
    {
      "channel": 2,
      "note": 85,
      "start": 37.1671,
      "duration": 3.339,
      "velocity": 103,
      "chip": "ym2612"
    },
    {
      "channel": 3,
      "note": 90,
      "start": 37.1693,
      "duration": 3.3391,
      "velocity": 103,
      "chip": "ym2612"
    },
    {
      "channel": 4,
      "note": 110,
      "start": 37.1714,
      "duration": 0.0895,
      "velocity": 107,
      "chip": "ym2612"
    },
    {
      "channel": 1,
      "note": 61,
      "start": 37.2589,
      "duration": 0.0948,
      "velocity": 103,
      "chip": "ym2612"
    },
    {
      "channel": 4,
      "note": 110,
      "start": 37.2611,
      "duration": 0.0932,
      "velocity": 107,
      "chip": "ym2612"
    },
    {
      "channel": 0,
      "note": 37,
      "start": 37.3533,
      "duration": 0.4231,
      "velocity": 107,
      "chip": "ym2612"
    },
    {
      "channel": 1,
      "note": 49,
      "start": 37.3538,
      "duration": 0.1194,
      "velocity": 103,
      "chip": "ym2612"
    },
    {
      "channel": 4,
      "note": 110,
      "start": 37.3545,
      "duration": 0.1194,
      "velocity": 107,
      "chip": "ym2612"
    },
    {
      "channel": 5,
      "note": 96,
      "start": 37.3551,
      "duration": 0.4279,
      "velocity": 127,
      "chip": "ym2612"
    },
    {
      "channel": 1,
      "note": 59,
      "start": 37.4733,
      "duration": 0.1198,
      "velocity": 103,
      "chip": "ym2612"
    },
    {
      "channel": 4,
      "note": 110,
      "start": 37.474,
      "duration": 0.1214,
      "velocity": 127,
      "chip": "ym2612"
    },
    {
      "channel": 1,
      "note": 61,
      "start": 37.5933,
      "duration": 0.0878,
      "velocity": 103,
      "chip": "ym2612"
    },
    {
      "channel": 4,
      "note": 43,
      "start": 37.5956,
      "duration": 0.1868,
      "velocity": 107,
      "chip": "ym2612"
    },
    {
      "channel": 1,
      "note": 49,
      "start": 37.6813,
      "duration": 0.0956,
      "velocity": 103,
      "chip": "ym2612"
    },
    {
      "channel": 0,
      "note": 35,
      "start": 37.7765,
      "duration": 0.1198,
      "velocity": 107,
      "chip": "ym2612"
    },
    {
      "channel": 1,
      "note": 61,
      "start": 37.7771,
      "duration": 0.1199,
      "velocity": 103,
      "chip": "ym2612"
    },
    {
      "channel": 4,
      "note": 110,
      "start": 37.7825,
      "duration": 0.1166,
      "velocity": 107,
      "chip": "ym2612"
    },
    {
      "channel": 5,
      "note": 96,
      "start": 37.7831,
      "duration": 0.3898,
      "velocity": 127,
      "chip": "ym2612"
    },
    {
      "channel": 0,
      "note": 37,
      "start": 37.8965,
      "duration": 0.0885,
      "velocity": 107,
      "chip": "ym2612"
    },
    {
      "channel": 1,
      "note": 49,
      "start": 37.8971,
      "duration": 0.0884,
      "velocity": 103,
      "chip": "ym2612"
    },
    {
      "channel": 4,
      "note": 110,
      "start": 37.8993,
      "duration": 0.0885,
      "velocity": 107,
      "chip": "ym2612"
    },
    {
      "channel": 0,
      "note": 40,
      "start": 37.9851,
      "duration": 0.1859,
      "velocity": 107,
      "chip": "ym2612"
    },
    {
      "channel": 1,
      "note": 59,
      "start": 37.9857,
      "duration": 0.0925,
      "velocity": 103,
      "chip": "ym2612"
    },
    {
      "channel": 4,
      "note": 110,
      "start": 37.988,
      "duration": 0.0925,
      "velocity": 107,
      "chip": "ym2612"
    },
    {
      "channel": 1,
      "note": 61,
      "start": 38.0784,
      "duration": 0.0933,
      "velocity": 103,
      "chip": "ym2612"
    },
    {
      "channel": 4,
      "note": 110,
      "start": 38.0807,
      "duration": 0.0917,
      "velocity": 107,
      "chip": "ym2612"
    },
    {
      "channel": 0,
      "note": 37,
      "start": 38.1713,
      "duration": 0.1198,
      "velocity": 107,
      "chip": "ym2612"
    },
    {
      "channel": 1,
      "note": 49,
      "start": 38.1719,
      "duration": 0.1198,
      "velocity": 103,
      "chip": "ym2612"
    },
    {
      "channel": 4,
      "note": 110,
      "start": 38.1725,
      "duration": 0.1198,
      "velocity": 107,
      "chip": "ym2612"
    },
    {
      "channel": 5,
      "note": 96,
      "start": 38.1731,
      "duration": 0.4248,
      "velocity": 127,
      "chip": "ym2612"
    },
    {
      "channel": 0,
      "note": 40,
      "start": 38.2913,
      "duration": 0.2079,
      "velocity": 107,
      "chip": "ym2612"
    },
    {
      "channel": 1,
      "note": 61,
      "start": 38.2918,
      "duration": 0.1194,
      "velocity": 103,
      "chip": "ym2612"
    },
    {
      "channel": 4,
      "note": 110,
      "start": 38.2925,
      "duration": 0.1209,
      "velocity": 127,
      "chip": "ym2612"
    },
    {
      "channel": 1,
      "note": 49,
      "start": 38.4113,
      "duration": 0.0884,
      "velocity": 103,
      "chip": "ym2612"
    },
    {
      "channel": 4,
      "note": 43,
      "start": 38.4136,
      "duration": 0.1837,
      "velocity": 107,
      "chip": "ym2612"
    },
    {
      "channel": 0,
      "note": 37,
      "start": 38.4994,
      "duration": 0.0951,
      "velocity": 107,
      "chip": "ym2612"
    },
    {
      "channel": 1,
      "note": 59,
      "start": 38.5,
      "duration": 0.0951,
      "velocity": 103,
      "chip": "ym2612"
    },
    {
      "channel": 0,
      "note": 42,
      "start": 38.5946,
      "duration": 0.2398,
      "velocity": 107,
      "chip": "ym2612"
    },
    {
      "channel": 1,
      "note": 61,
      "start": 38.5952,
      "duration": 0.1193,
      "velocity": 103,
      "chip": "ym2612"
    },
    {
      "channel": 4,
      "note": 110,
      "start": 38.5974,
      "duration": 0.1193,
      "velocity": 107,
      "chip": "ym2612"
    },
    {
      "channel": 5,
      "note": 96,
      "start": 38.598,
      "duration": 0.4253,
      "velocity": 127,
      "chip": "ym2612"
    },
    {
      "channel": 1,
      "note": 47,
      "start": 38.7147,
      "duration": 0.1203,
      "velocity": 103,
      "chip": "ym2612"
    },
    {
      "channel": 4,
      "note": 110,
      "start": 38.7169,
      "duration": 0.1203,
      "velocity": 107,
      "chip": "ym2612"
    },
    {
      "channel": 0,
      "note": 37,
      "start": 38.8346,
      "duration": 0.1869,
      "velocity": 107,
      "chip": "ym2612"
    },
    {
      "channel": 1,
      "note": 49,
      "start": 38.8351,
      "duration": 0.0933,
      "velocity": 103,
      "chip": "ym2612"
    },
    {
      "channel": 4,
      "note": 110,
      "start": 38.8374,
      "duration": 0.0933,
      "velocity": 107,
      "chip": "ym2612"
    },
    {
      "channel": 1,
      "note": 61,
      "start": 38.9287,
      "duration": 0.0934,
      "velocity": 103,
      "chip": "ym2612"
    },
    {
      "channel": 4,
      "note": 110,
      "start": 38.9309,
      "duration": 0.0918,
      "velocity": 107,
      "chip": "ym2612"
    },
    {
      "channel": 0,
      "note": 37,
      "start": 39.0216,
      "duration": 0.4228,
      "velocity": 107,
      "chip": "ym2612"
    },
    {
      "channel": 1,
      "note": 49,
      "start": 39.0222,
      "duration": 0.1193,
      "velocity": 103,
      "chip": "ym2612"
    },
    {
      "channel": 4,
      "note": 110,
      "start": 39.0229,
      "duration": 0.1193,
      "velocity": 107,
      "chip": "ym2612"
    },
    {
      "channel": 5,
      "note": 96,
      "start": 39.0235,
      "duration": 0.4244,
      "velocity": 127,
      "chip": "ym2612"
    },
    {
      "channel": 1,
      "note": 59,
      "start": 39.1417,
      "duration": 0.1198,
      "velocity": 103,
      "chip": "ym2612"
    },
    {
      "channel": 4,
      "note": 110,
      "start": 39.1423,
      "duration": 0.1214,
      "velocity": 127,
      "chip": "ym2612"
    },
    {
      "channel": 1,
      "note": 61,
      "start": 39.2616,
      "duration": 0.0876,
      "velocity": 103,
      "chip": "ym2612"
    },
    {
      "channel": 4,
      "note": 43,
      "start": 39.2639,
      "duration": 0.1833,
      "velocity": 107,
      "chip": "ym2612"
    },
    {
      "channel": 1,
      "note": 49,
      "start": 39.3494,
      "duration": 0.0956,
      "velocity": 103,
      "chip": "ym2612"
    },
    {
      "channel": 0,
      "note": 35,
      "start": 39.4446,
      "duration": 0.1198,
      "velocity": 107,
      "chip": "ym2612"
    },
    {
      "channel": 1,
      "note": 61,
      "start": 39.4452,
      "duration": 0.1198,
      "velocity": 103,
      "chip": "ym2612"
    },
    {
      "channel": 4,
      "note": 110,
      "start": 39.4474,
      "duration": 0.1198,
      "velocity": 127,
      "chip": "ym2612"
    },
    {
      "channel": 5,
      "note": 96,
      "start": 39.448,
      "duration": 0.4262,
      "velocity": 127,
      "chip": "ym2612"
    },
    {
      "channel": 0,
      "note": 37,
      "start": 39.5646,
      "duration": 0.1198,
      "velocity": 107,
      "chip": "ym2612"
    },
    {
      "channel": 1,
      "note": 49,
      "start": 39.5652,
      "duration": 0.1198,
      "velocity": 103,
      "chip": "ym2612"
    },
    {
      "channel": 4,
      "note": 43,
      "start": 39.5674,
      "duration": 0.1198,
      "velocity": 107,
      "chip": "ym2612"
    },
    {
      "channel": 0,
      "note": 40,
      "start": 39.6846,
      "duration": 0.1862,
      "velocity": 107,
      "chip": "ym2612"
    },
    {
      "channel": 1,
      "note": 59,
      "start": 39.6851,
      "duration": 0.092,
      "velocity": 103,
      "chip": "ym2612"
    },
    {
      "channel": 4,
      "note": 110,
      "start": 39.6874,
      "duration": 0.092,
      "velocity": 127,
      "chip": "ym2612"
    },
    {
      "channel": 1,
      "note": 61,
      "start": 39.7773,
      "duration": 0.0941,
      "velocity": 103,
      "chip": "ym2612"
    },
    {
      "channel": 4,
      "note": 43,
      "start": 39.7796,
      "duration": 0.0941,
      "velocity": 107,
      "chip": "ym2612"
    },
    {
      "channel": 0,
      "note": 37,
      "start": 39.871,
      "duration": 0.1198,
      "velocity": 107,
      "chip": "ym2612"
    },
    {
      "channel": 1,
      "note": 49,
      "start": 39.8716,
      "duration": 0.1199,
      "velocity": 103,
      "chip": "ym2612"
    },
    {
      "channel": 4,
      "note": 110,
      "start": 39.8739,
      "duration": 0.1183,
      "velocity": 107,
      "chip": "ym2612"
    },
    {
      "channel": 5,
      "note": 96,
      "start": 39.8744,
      "duration": 0.4232,
      "velocity": 127,
      "chip": "ym2612"
    },
    {
      "channel": 0,
      "note": 40,
      "start": 39.991,
      "duration": 0.2082,
      "velocity": 107,
      "chip": "ym2612"
    },
    {
      "channel": 1,
      "note": 61,
      "start": 39.9916,
      "duration": 0.1193,
      "velocity": 103,
      "chip": "ym2612"
    },
    {
      "channel": 4,
      "note": 110,
      "start": 39.9923,
      "duration": 0.1209,
      "velocity": 127,
      "chip": "ym2612"
    },
    {
      "channel": 1,
      "note": 49,
      "start": 40.1111,
      "duration": 0.0887,
      "velocity": 103,
      "chip": "ym2612"
    },
    {
      "channel": 4,
      "note": 43,
      "start": 40.1134,
      "duration": 0.1837,
      "velocity": 107,
      "chip": "ym2612"
    },
    {
      "channel": 0,
      "note": 37,
      "start": 40.1995,
      "duration": 0.0948,
      "velocity": 107,
      "chip": "ym2612"
    },
    {
      "channel": 1,
      "note": 59,
      "start": 40.2,
      "duration": 0.0948,
      "velocity": 103,
      "chip": "ym2612"
    },
    {
      "channel": 0,
      "note": 42,
      "start": 40.2944,
      "duration": 0.2089,
      "velocity": 107,
      "chip": "ym2612"
    },
    {
      "channel": 1,
      "note": 61,
      "start": 40.295,
      "duration": 0.1194,
      "velocity": 103,
      "chip": "ym2612"
    },
    {
      "channel": 4,
      "note": 110,
      "start": 40.2972,
      "duration": 0.1194,
      "velocity": 127,
      "chip": "ym2612"
    },
    {
      "channel": 5,
      "note": 96,
      "start": 40.2978,
      "duration": 0.4009,
      "velocity": 127,
      "chip": "ym2612"
    },
    {
      "channel": 1,
      "note": 47,
      "start": 40.4145,
      "duration": 0.0894,
      "velocity": 103,
      "chip": "ym2612"
    },
    {
      "channel": 4,
      "note": 43,
      "start": 40.4168,
      "duration": 0.0937,
      "velocity": 107,
      "chip": "ym2612"
    },
    {
      "channel": 0,
      "note": 37,
      "start": 40.5034,
      "duration": 0.1903,
      "velocity": 107,
      "chip": "ym2612"
    },
    {
      "channel": 1,
      "note": 49,
      "start": 40.5041,
      "duration": 0.094,
      "velocity": 103,
      "chip": "ym2612"
    },
    {
      "channel": 2,
      "note": 90,
      "start": 40.5063,
      "duration": 0.0051,
      "velocity": 103,
      "chip": "ym2612"
    },
    {
      "channel": 3,
      "note": 90,
      "start": 40.5085,
      "duration": 0.0032,
      "velocity": 103,
      "chip": "ym2612"
    },
    {
      "channel": 4,
      "note": 110,
      "start": 40.5107,
      "duration": 0.0907,
      "velocity": 107,
      "chip": "ym2612"
    },
    {
      "channel": 2,
      "note": 90,
      "start": 40.5114,
      "duration": 0.0088,
      "velocity": 103,
      "chip": "ym2612"
    },
    {
      "channel": 3,
      "note": 90,
      "start": 40.5117,
      "duration": 0.0088,
      "velocity": 103,
      "chip": "ym2612"
    },
    {
      "channel": 2,
      "note": 90,
      "start": 40.5202,
      "duration": 0.0154,
      "velocity": 103,
      "chip": "ym2612"
    },
    {
      "channel": 3,
      "note": 90,
      "start": 40.5205,
      "duration": 0.0154,
      "velocity": 103,
      "chip": "ym2612"
    },
    {
      "channel": 2,
      "note": 90,
      "start": 40.5356,
      "duration": 0.0151,
      "velocity": 103,
      "chip": "ym2612"
    },
    {
      "channel": 3,
      "note": 90,
      "start": 40.5359,
      "duration": 0.0151,
      "velocity": 103,
      "chip": "ym2612"
    },
    {
      "channel": 2,
      "note": 91,
      "start": 40.5507,
      "duration": 0.0155,
      "velocity": 103,
      "chip": "ym2612"
    },
    {
      "channel": 3,
      "note": 91,
      "start": 40.551,
      "duration": 0.0154,
      "velocity": 103,
      "chip": "ym2612"
    },
    {
      "channel": 2,
      "note": 91,
      "start": 40.5662,
      "duration": 0.0161,
      "velocity": 103,
      "chip": "ym2612"
    },
    {
      "channel": 3,
      "note": 91,
      "start": 40.5664,
      "duration": 0.0162,
      "velocity": 103,
      "chip": "ym2612"
    },
    {
      "channel": 2,
      "note": 91,
      "start": 40.5823,
      "duration": 0.0163,
      "velocity": 103,
      "chip": "ym2612"
    },
    {
      "channel": 3,
      "note": 91,
      "start": 40.5826,
      "duration": 0.0166,
      "velocity": 103,
      "chip": "ym2612"
    },
    {
      "channel": 1,
      "note": 61,
      "start": 40.5983,
      "duration": 0.0961,
      "velocity": 103,
      "chip": "ym2612"
    },
    {
      "channel": 2,
      "note": 92,
      "start": 40.5988,
      "duration": 0.2156,
      "velocity": 103,
      "chip": "ym2612"
    },
    {
      "channel": 3,
      "note": 92,
      "start": 40.5994,
      "duration": 0.2155,
      "velocity": 103,
      "chip": "ym2612"
    },
    {
      "channel": 4,
      "note": 110,
      "start": 40.6015,
      "duration": 0.0966,
      "velocity": 107,
      "chip": "ym2612"
    },
    {
      "channel": 0,
      "note": 37,
      "start": 40.6939,
      "duration": 0.4227,
      "velocity": 107,
      "chip": "ym2612"
    },
    {
      "channel": 1,
      "note": 49,
      "start": 40.6944,
      "duration": 0.1194,
      "velocity": 103,
      "chip": "ym2612"
    },
    {
      "channel": 4,
      "note": 110,
      "start": 40.6983,
      "duration": 0.1172,
      "velocity": 107,
      "chip": "ym2612"
    },
    {
      "channel": 5,
      "note": 96,
      "start": 40.6989,
      "duration": 0.4222,
      "velocity": 127,
      "chip": "ym2612"
    },
    {
      "channel": 1,
      "note": 59,
      "start": 40.814,
      "duration": 0.1198,
      "velocity": 103,
      "chip": "ym2612"
    },
    {
      "channel": 2,
      "note": 95,
      "start": 40.8145,
      "duration": 0.3032,
      "velocity": 103,
      "chip": "ym2612"
    },
    {
      "channel": 3,
      "note": 95,
      "start": 40.8151,
      "duration": 0.3032,
      "velocity": 103,
      "chip": "ym2612"
    },
    {
      "channel": 4,
      "note": 110,
      "start": 40.8156,
      "duration": 0.1204,
      "velocity": 127,
      "chip": "ym2612"
    },
    {
      "channel": 1,
      "note": 61,
      "start": 40.9339,
      "duration": 0.0877,
      "velocity": 103,
      "chip": "ym2612"
    },
    {
      "channel": 4,
      "note": 43,
      "start": 40.9362,
      "duration": 0.1843,
      "velocity": 107,
      "chip": "ym2612"
    },
    {
      "channel": 1,
      "note": 49,
      "start": 41.0218,
      "duration": 0.0954,
      "velocity": 103,
      "chip": "ym2612"
    },
    {
      "channel": 0,
      "note": 35,
      "start": 41.1168,
      "duration": 0.1198,
      "velocity": 107,
      "chip": "ym2612"
    },
    {
      "channel": 1,
      "note": 61,
      "start": 41.1174,
      "duration": 0.1199,
      "velocity": 103,
      "chip": "ym2612"
    },
    {
      "channel": 2,
      "note": 83,
      "start": 41.1179,
      "duration": 0.1198,
      "velocity": 103,
      "chip": "ym2612"
    },
    {
      "channel": 3,
      "note": 83,
      "start": 41.1185,
      "duration": 0.1198,
      "velocity": 103,
      "chip": "ym2612"
    },
    {
      "channel": 4,
      "note": 110,
      "start": 41.1207,
      "duration": 0.1198,
      "velocity": 107,
      "chip": "ym2612"
    },
    {
      "channel": 5,
      "note": 96,
      "start": 41.1213,
      "duration": 0.3923,
      "velocity": 127,
      "chip": "ym2612"
    },
    {
      "channel": 0,
      "note": 37,
      "start": 41.2368,
      "duration": 0.0881,
      "velocity": 107,
      "chip": "ym2612"
    },
    {
      "channel": 1,
      "note": 49,
      "start": 41.2374,
      "duration": 0.0881,
      "velocity": 103,
      "chip": "ym2612"
    },
    {
      "channel": 2,
      "note": 85,
      "start": 41.2379,
      "duration": 0.0882,
      "velocity": 103,
      "chip": "ym2612"
    },
    {
      "channel": 3,
      "note": 85,
      "start": 41.2385,
      "duration": 0.0881,
      "velocity": 103,
      "chip": "ym2612"
    },
    {
      "channel": 4,
      "note": 110,
      "start": 41.2406,
      "duration": 0.0881,
      "velocity": 107,
      "chip": "ym2612"
    },
    {
      "channel": 0,
      "note": 40,
      "start": 41.3251,
      "duration": 0.1857,
      "velocity": 107,
      "chip": "ym2612"
    },
    {
      "channel": 1,
      "note": 59,
      "start": 41.3257,
      "duration": 0.092,
      "velocity": 103,
      "chip": "ym2612"
    },
    {
      "channel": 2,
      "note": 92,
      "start": 41.3262,
      "duration": 0.1858,
      "velocity": 103,
      "chip": "ym2612"
    },
    {
      "channel": 3,
      "note": 92,
      "start": 41.3268,
      "duration": 0.1857,
      "velocity": 103,
      "chip": "ym2612"
    },
    {
      "channel": 4,
      "note": 110,
      "start": 41.329,
      "duration": 0.091,
      "velocity": 107,
      "chip": "ym2612"
    },
    {
      "channel": 1,
      "note": 61,
      "start": 41.4179,
      "duration": 0.0935,
      "velocity": 103,
      "chip": "ym2612"
    },
    {
      "channel": 4,
      "note": 110,
      "start": 41.4202,
      "duration": 0.0929,
      "velocity": 107,
      "chip": "ym2612"
    },
    {
      "channel": 0,
      "note": 37,
      "start": 41.511,
      "duration": 0.1198,
      "velocity": 107,
      "chip": "ym2612"
    },
    {
      "channel": 1,
      "note": 49,
      "start": 41.5116,
      "duration": 0.1198,
      "velocity": 103,
      "chip": "ym2612"
    },
    {
      "channel": 2,
      "note": 85,
      "start": 41.5121,
      "duration": 0.4231,
      "velocity": 103,
      "chip": "ym2612"
    },
    {
      "channel": 3,
      "note": 85,
      "start": 41.5127,
      "duration": 0.4231,
      "velocity": 103,
      "chip": "ym2612"
    },
    {
      "channel": 4,
      "note": 110,
      "start": 41.5133,
      "duration": 0.1188,
      "velocity": 107,
      "chip": "ym2612"
    },
    {
      "channel": 5,
      "note": 96,
      "start": 41.5139,
      "duration": 0.4247,
      "velocity": 127,
      "chip": "ym2612"
    },
    {
      "channel": 0,
      "note": 40,
      "start": 41.631,
      "duration": 0.2081,
      "velocity": 107,
      "chip": "ym2612"
    },
    {
      "channel": 1,
      "note": 61,
      "start": 41.6316,
      "duration": 0.1192,
      "velocity": 103,
      "chip": "ym2612"
    },
    {
      "channel": 4,
      "note": 110,
      "start": 41.6323,
      "duration": 0.1208,
      "velocity": 127,
      "chip": "ym2612"
    },
    {
      "channel": 1,
      "note": 49,
      "start": 41.751,
      "duration": 0.0887,
      "velocity": 103,
      "chip": "ym2612"
    },
    {
      "channel": 4,
      "note": 43,
      "start": 41.7533,
      "duration": 0.1847,
      "velocity": 107,
      "chip": "ym2612"
    },
    {
      "channel": 0,
      "note": 37,
      "start": 41.8393,
      "duration": 0.0949,
      "velocity": 107,
      "chip": "ym2612"
    },
    {
      "channel": 1,
      "note": 59,
      "start": 41.8398,
      "duration": 0.0949,
      "velocity": 103,
      "chip": "ym2612"
    },
    {
      "channel": 0,
      "note": 42,
      "start": 41.9344,
      "duration": 0.2398,
      "velocity": 107,
      "chip": "ym2612"
    },
    {
      "channel": 1,
      "note": 61,
      "start": 41.9349,
      "duration": 0.1194,
      "velocity": 103,
      "chip": "ym2612"
    },
    {
      "channel": 2,
      "note": 83,
      "start": 41.9354,
      "duration": 0.1194,
      "velocity": 103,
      "chip": "ym2612"
    },
    {
      "channel": 3,
      "note": 83,
      "start": 41.936,
      "duration": 0.1193,
      "velocity": 103,
      "chip": "ym2612"
    },
    {
      "channel": 4,
      "note": 110,
      "start": 41.9382,
      "duration": 0.1193,
      "velocity": 107,
      "chip": "ym2612"
    },
    {
      "channel": 5,
      "note": 96,
      "start": 41.9388,
      "duration": 0.4253,
      "velocity": 127,
      "chip": "ym2612"
    },
    {
      "channel": 1,
      "note": 47,
      "start": 42.0544,
      "duration": 0.1203,
      "velocity": 103,
      "chip": "ym2612"
    },
    {
      "channel": 2,
      "note": 85,
      "start": 42.0549,
      "duration": 0.1204,
      "velocity": 103,
      "chip": "ym2612"
    },
    {
      "channel": 3,
      "note": 85,
      "start": 42.0555,
      "duration": 0.1204,
      "velocity": 103,
      "chip": "ym2612"
    },
    {
      "channel": 4,
      "note": 110,
      "start": 42.0577,
      "duration": 0.1204,
      "velocity": 107,
      "chip": "ym2612"
    },
    {
      "channel": 0,
      "note": 37,
      "start": 42.1744,
      "duration": 0.188,
      "velocity": 107,
      "chip": "ym2612"
    },
    {
      "channel": 1,
      "note": 49,
      "start": 42.1749,
      "duration": 0.0933,
      "velocity": 103,
      "chip": "ym2612"
    },
    {
      "channel": 2,
      "note": 90,
      "start": 42.1755,
      "duration": 0.0035,
      "velocity": 103,
      "chip": "ym2612"
    },
    {
      "channel": 3,
      "note": 90,
      "start": 42.1761,
      "duration": 0.0032,
      "velocity": 103,
      "chip": "ym2612"
    },
    {
      "channel": 4,
      "note": 110,
      "start": 42.1783,
      "duration": 0.0933,
      "velocity": 107,
      "chip": "ym2612"
    },
    {
      "channel": 2,
      "note": 90,
      "start": 42.179,
      "duration": 0.012,
      "velocity": 103,
      "chip": "ym2612"
    },
    {
      "channel": 3,
      "note": 90,
      "start": 42.1793,
      "duration": 0.012,
      "velocity": 103,
      "chip": "ym2612"
    },
    {
      "channel": 2,
      "note": 90,
      "start": 42.191,
      "duration": 0.0154,
      "velocity": 103,
      "chip": "ym2612"
    },
    {
      "channel": 3,
      "note": 90,
      "start": 42.1912,
      "duration": 0.0154,
      "velocity": 103,
      "chip": "ym2612"
    },
    {
      "channel": 2,
      "note": 90,
      "start": 42.2064,
      "duration": 0.0154,
      "velocity": 103,
      "chip": "ym2612"
    },
    {
      "channel": 3,
      "note": 90,
      "start": 42.2067,
      "duration": 0.0153,
      "velocity": 103,
      "chip": "ym2612"
    },
    {
      "channel": 2,
      "note": 91,
      "start": 42.2217,
      "duration": 0.0154,
      "velocity": 103,
      "chip": "ym2612"
    },
    {
      "channel": 3,
      "note": 91,
      "start": 42.222,
      "duration": 0.0154,
      "velocity": 103,
      "chip": "ym2612"
    },
    {
      "channel": 2,
      "note": 91,
      "start": 42.2371,
      "duration": 0.0151,
      "velocity": 103,
      "chip": "ym2612"
    },
    {
      "channel": 3,
      "note": 91,
      "start": 42.2373,
      "duration": 0.0151,
      "velocity": 103,
      "chip": "ym2612"
    },
    {
      "channel": 2,
      "note": 91,
      "start": 42.2522,
      "duration": 0.0167,
      "velocity": 103,
      "chip": "ym2612"
    },
    {
      "channel": 3,
      "note": 91,
      "start": 42.2525,
      "duration": 0.0169,
      "velocity": 103,
      "chip": "ym2612"
    },
    {
      "channel": 1,
      "note": 61,
      "start": 42.2685,
      "duration": 0.0944,
      "velocity": 103,
      "chip": "ym2612"
    },
    {
      "channel": 2,
      "note": 92,
      "start": 42.269,
      "duration": 0.214,
      "velocity": 103,
      "chip": "ym2612"
    },
    {
      "channel": 3,
      "note": 92,
      "start": 42.2695,
      "duration": 0.214,
      "velocity": 103,
      "chip": "ym2612"
    },
    {
      "channel": 4,
      "note": 110,
      "start": 42.2717,
      "duration": 0.0918,
      "velocity": 107,
      "chip": "ym2612"
    },
    {
      "channel": 0,
      "note": 37,
      "start": 42.3625,
      "duration": 0.4229,
      "velocity": 107,
      "chip": "ym2612"
    },
    {
      "channel": 1,
      "note": 49,
      "start": 42.363,
      "duration": 0.1194,
      "velocity": 103,
      "chip": "ym2612"
    },
    {
      "channel": 4,
      "note": 110,
      "start": 42.3637,
      "duration": 0.1203,
      "velocity": 107,
      "chip": "ym2612"
    },
    {
      "channel": 5,
      "note": 96,
      "start": 42.3643,
      "duration": 0.4255,
      "velocity": 127,
      "chip": "ym2612"
    },
    {
      "channel": 1,
      "note": 59,
      "start": 42.4826,
      "duration": 0.1198,
      "velocity": 103,
      "chip": "ym2612"
    },
    {
      "channel": 2,
      "note": 95,
      "start": 42.4831,
      "duration": 0.3033,
      "velocity": 103,
      "chip": "ym2612"
    },
    {
      "channel": 3,
      "note": 95,
      "start": 42.4837,
      "duration": 0.3034,
      "velocity": 103,
      "chip": "ym2612"
    },
    {
      "channel": 4,
      "note": 110,
      "start": 42.4842,
      "duration": 0.1204,
      "velocity": 127,
      "chip": "ym2612"
    },
    {
      "channel": 1,
      "note": 61,
      "start": 42.6025,
      "duration": 0.0878,
      "velocity": 103,
      "chip": "ym2612"
    },
    {
      "channel": 4,
      "note": 43,
      "start": 42.6048,
      "duration": 0.1844,
      "velocity": 107,
      "chip": "ym2612"
    },
    {
      "channel": 1,
      "note": 49,
      "start": 42.6905,
      "duration": 0.0954,
      "velocity": 103,
      "chip": "ym2612"
    },
    {
      "channel": 0,
      "note": 35,
      "start": 42.7855,
      "duration": 0.1198,
      "velocity": 107,
      "chip": "ym2612"
    },
    {
      "channel": 1,
      "note": 61,
      "start": 42.7861,
      "duration": 0.1199,
      "velocity": 103,
      "chip": "ym2612"
    },
    {
      "channel": 2,
      "note": 83,
      "start": 42.7866,
      "duration": 0.1198,
      "velocity": 103,
      "chip": "ym2612"
    },
    {
      "channel": 3,
      "note": 83,
      "start": 42.7872,
      "duration": 0.1198,
      "velocity": 103,
      "chip": "ym2612"
    },
    {
      "channel": 4,
      "note": 110,
      "start": 42.7894,
      "duration": 0.1198,
      "velocity": 127,
      "chip": "ym2612"
    },
    {
      "channel": 5,
      "note": 96,
      "start": 42.79,
      "duration": 0.4277,
      "velocity": 127,
      "chip": "ym2612"
    },
    {
      "channel": 0,
      "note": 37,
      "start": 42.9055,
      "duration": 0.1198,
      "velocity": 107,
      "chip": "ym2612"
    },
    {
      "channel": 1,
      "note": 49,
      "start": 42.9061,
      "duration": 0.1199,
      "velocity": 103,
      "chip": "ym2612"
    },
    {
      "channel": 2,
      "note": 85,
      "start": 42.9066,
      "duration": 0.1198,
      "velocity": 103,
      "chip": "ym2612"
    },
    {
      "channel": 3,
      "note": 85,
      "start": 42.9072,
      "duration": 0.1198,
      "velocity": 103,
      "chip": "ym2612"
    },
    {
      "channel": 4,
      "note": 43,
      "start": 42.9093,
      "duration": 0.1199,
      "velocity": 107,
      "chip": "ym2612"
    },
    {
      "channel": 0,
      "note": 40,
      "start": 43.0255,
      "duration": 0.1878,
      "velocity": 107,
      "chip": "ym2612"
    },
    {
      "channel": 1,
      "note": 59,
      "start": 43.0261,
      "duration": 0.0932,
      "velocity": 103,
      "chip": "ym2612"
    },
    {
      "channel": 2,
      "note": 92,
      "start": 43.0266,
      "duration": 0.1878,
      "velocity": 103,
      "chip": "ym2612"
    },
    {
      "channel": 3,
      "note": 92,
      "start": 43.0272,
      "duration": 0.1877,
      "velocity": 103,
      "chip": "ym2612"
    },
    {
      "channel": 4,
      "note": 110,
      "start": 43.0293,
      "duration": 0.0922,
      "velocity": 127,
      "chip": "ym2612"
    },
    {
      "channel": 1,
      "note": 61,
      "start": 43.1194,
      "duration": 0.0944,
      "velocity": 103,
      "chip": "ym2612"
    },
    {
      "channel": 4,
      "note": 43,
      "start": 43.1217,
      "duration": 0.0954,
      "velocity": 107,
      "chip": "ym2612"
    },
    {
      "channel": 0,
      "note": 37,
      "start": 43.2134,
      "duration": 0.1198,
      "velocity": 107,
      "chip": "ym2612"
    },
    {
      "channel": 1,
      "note": 49,
      "start": 43.214,
      "duration": 0.1198,
      "velocity": 103,
      "chip": "ym2612"
    },
    {
      "channel": 2,
      "note": 85,
      "start": 43.2146,
      "duration": 0.6322,
      "velocity": 103,
      "chip": "ym2612"
    },
    {
      "channel": 3,
      "note": 85,
      "start": 43.2151,
      "duration": 0.6322,
      "velocity": 103,
      "chip": "ym2612"
    },
    {
      "channel": 4,
      "note": 110,
      "start": 43.2172,
      "duration": 0.1173,
      "velocity": 107,
      "chip": "ym2612"
    },
    {
      "channel": 5,
      "note": 96,
      "start": 43.2178,
      "duration": 0.4222,
      "velocity": 127,
      "chip": "ym2612"
    },
    {
      "channel": 0,
      "note": 40,
      "start": 43.3334,
      "duration": 0.208,
      "velocity": 107,
      "chip": "ym2612"
    },
    {
      "channel": 1,
      "note": 61,
      "start": 43.334,
      "duration": 0.1192,
      "velocity": 103,
      "chip": "ym2612"
    },
    {
      "channel": 4,
      "note": 110,
      "start": 43.3346,
      "duration": 0.1208,
      "velocity": 127,
      "chip": "ym2612"
    },
    {
      "channel": 1,
      "note": 49,
      "start": 43.4534,
      "duration": 0.0885,
      "velocity": 103,
      "chip": "ym2612"
    },
    {
      "channel": 4,
      "note": 43,
      "start": 43.4556,
      "duration": 0.1838,
      "velocity": 107,
      "chip": "ym2612"
    },
    {
      "channel": 0,
      "note": 37,
      "start": 43.5416,
      "duration": 0.0951,
      "velocity": 107,
      "chip": "ym2612"
    },
    {
      "channel": 1,
      "note": 59,
      "start": 43.5422,
      "duration": 0.0951,
      "velocity": 103,
      "chip": "ym2612"
    },
    {
      "channel": 0,
      "note": 42,
      "start": 43.6368,
      "duration": 0.2088,
      "velocity": 107,
      "chip": "ym2612"
    },
    {
      "channel": 1,
      "note": 61,
      "start": 43.6373,
      "duration": 0.1194,
      "velocity": 103,
      "chip": "ym2612"
    },
    {
      "channel": 4,
      "note": 110,
      "start": 43.6396,
      "duration": 0.1193,
      "velocity": 107,
      "chip": "ym2612"
    },
    {
      "channel": 5,
      "note": 96,
      "start": 43.6402,
      "duration": 0.3947,
      "velocity": 127,
      "chip": "ym2612"
    },
    {
      "channel": 1,
      "note": 47,
      "start": 43.7569,
      "duration": 0.0893,
      "velocity": 103,
      "chip": "ym2612"
    },
    {
      "channel": 4,
      "note": 110,
      "start": 43.7591,
      "duration": 0.0903,
      "velocity": 107,
      "chip": "ym2612"
    },
    {
      "channel": 0,
      "note": 37,
      "start": 43.8458,
      "duration": 0.1874,
      "velocity": 107,
      "chip": "ym2612"
    },
    {
      "channel": 1,
      "note": 49,
      "start": 43.8463,
      "duration": 0.0937,
      "velocity": 103,
      "chip": "ym2612"
    },
    {
      "channel": 2,
      "note": 90,
      "start": 43.8469,
      "duration": 0.0035,
      "velocity": 103,
      "chip": "ym2612"
    },
    {
      "channel": 3,
      "note": 90,
      "start": 43.8475,
      "duration": 0.0032,
      "velocity": 103,
      "chip": "ym2612"
    },
    {
      "channel": 4,
      "note": 110,
      "start": 43.8497,
      "duration": 0.0936,
      "velocity": 107,
      "chip": "ym2612"
    },
    {
      "channel": 2,
      "note": 90,
      "start": 43.8504,
      "duration": 0.012,
      "velocity": 103,
      "chip": "ym2612"
    },
    {
      "channel": 3,
      "note": 90,
      "start": 43.8507,
      "duration": 0.012,
      "velocity": 103,
      "chip": "ym2612"
    },
    {
      "channel": 2,
      "note": 90,
      "start": 43.8624,
      "duration": 0.0154,
      "velocity": 103,
      "chip": "ym2612"
    },
    {
      "channel": 3,
      "note": 90,
      "start": 43.8627,
      "duration": 0.0154,
      "velocity": 103,
      "chip": "ym2612"
    },
    {
      "channel": 2,
      "note": 90,
      "start": 43.8778,
      "duration": 0.0154,
      "velocity": 103,
      "chip": "ym2612"
    },
    {
      "channel": 3,
      "note": 90,
      "start": 43.8781,
      "duration": 0.0153,
      "velocity": 103,
      "chip": "ym2612"
    },
    {
      "channel": 2,
      "note": 91,
      "start": 43.8931,
      "duration": 0.0154,
      "velocity": 103,
      "chip": "ym2612"
    },
    {
      "channel": 3,
      "note": 91,
      "start": 43.8934,
      "duration": 0.0154,
      "velocity": 103,
      "chip": "ym2612"
    },
    {
      "channel": 2,
      "note": 91,
      "start": 43.9085,
      "duration": 0.0151,
      "velocity": 103,
      "chip": "ym2612"
    },
    {
      "channel": 3,
      "note": 91,
      "start": 43.9088,
      "duration": 0.0152,
      "velocity": 103,
      "chip": "ym2612"
    },
    {
      "channel": 2,
      "note": 91,
      "start": 43.9236,
      "duration": 0.017,
      "velocity": 103,
      "chip": "ym2612"
    },
    {
      "channel": 3,
      "note": 91,
      "start": 43.9239,
      "duration": 0.0172,
      "velocity": 103,
      "chip": "ym2612"
    },
    {
      "channel": 1,
      "note": 61,
      "start": 43.9402,
      "duration": 0.0935,
      "velocity": 103,
      "chip": "ym2612"
    },
    {
      "channel": 2,
      "note": 92,
      "start": 43.9408,
      "duration": 0.213,
      "velocity": 103,
      "chip": "ym2612"
    },
    {
      "channel": 3,
      "note": 92,
      "start": 43.9413,
      "duration": 0.213,
      "velocity": 103,
      "chip": "ym2612"
    },
    {
      "channel": 4,
      "note": 110,
      "start": 43.9435,
      "duration": 0.0908,
      "velocity": 107,
      "chip": "ym2612"
    },
    {
      "channel": 0,
      "note": 37,
      "start": 44.0333,
      "duration": 0.4227,
      "velocity": 107,
      "chip": "ym2612"
    },
    {
      "channel": 1,
      "note": 49,
      "start": 44.0338,
      "duration": 0.1194,
      "velocity": 103,
      "chip": "ym2612"
    },
    {
      "channel": 4,
      "note": 110,
      "start": 44.0345,
      "duration": 0.1203,
      "velocity": 107,
      "chip": "ym2612"
    },
    {
      "channel": 5,
      "note": 96,
      "start": 44.0351,
      "duration": 0.4254,
      "velocity": 127,
      "chip": "ym2612"
    },
    {
      "channel": 1,
      "note": 59,
      "start": 44.1534,
      "duration": 0.1198,
      "velocity": 103,
      "chip": "ym2612"
    },
    {
      "channel": 2,
      "note": 95,
      "start": 44.1539,
      "duration": 0.3032,
      "velocity": 103,
      "chip": "ym2612"
    },
    {
      "channel": 3,
      "note": 95,
      "start": 44.1545,
      "duration": 0.3032,
      "velocity": 103,
      "chip": "ym2612"
    },
    {
      "channel": 4,
      "note": 110,
      "start": 44.155,
      "duration": 0.1204,
      "velocity": 127,
      "chip": "ym2612"
    },
    {
      "channel": 1,
      "note": 61,
      "start": 44.2733,
      "duration": 0.0877,
      "velocity": 103,
      "chip": "ym2612"
    },
    {
      "channel": 4,
      "note": 43,
      "start": 44.2756,
      "duration": 0.1843,
      "velocity": 107,
      "chip": "ym2612"
    },
    {
      "channel": 1,
      "note": 49,
      "start": 44.3612,
      "duration": 0.0954,
      "velocity": 103,
      "chip": "ym2612"
    },
    {
      "channel": 0,
      "note": 35,
      "start": 44.4562,
      "duration": 0.1198,
      "velocity": 107,
      "chip": "ym2612"
    },
    {
      "channel": 1,
      "note": 61,
      "start": 44.4568,
      "duration": 0.1199,
      "velocity": 103,
      "chip": "ym2612"
    },
    {
      "channel": 2,
      "note": 83,
      "start": 44.4573,
      "duration": 0.1198,
      "velocity": 103,
      "chip": "ym2612"
    },
    {
      "channel": 3,
      "note": 83,
      "start": 44.4579,
      "duration": 0.1198,
      "velocity": 103,
      "chip": "ym2612"
    },
    {
      "channel": 4,
      "note": 110,
      "start": 44.4601,
      "duration": 0.1198,
      "velocity": 107,
      "chip": "ym2612"
    },
    {
      "channel": 5,
      "note": 96,
      "start": 44.4607,
      "duration": 0.3932,
      "velocity": 127,
      "chip": "ym2612"
    },
    {
      "channel": 0,
      "note": 37,
      "start": 44.5762,
      "duration": 0.0878,
      "velocity": 107,
      "chip": "ym2612"
    },
    {
      "channel": 1,
      "note": 49,
      "start": 44.5768,
      "duration": 0.0879,
      "velocity": 103,
      "chip": "ym2612"
    },
    {
      "channel": 2,
      "note": 85,
      "start": 44.5773,
      "duration": 0.0879,
      "velocity": 103,
      "chip": "ym2612"
    },
    {
      "channel": 3,
      "note": 85,
      "start": 44.5779,
      "duration": 0.0878,
      "velocity": 103,
      "chip": "ym2612"
    },
    {
      "channel": 4,
      "note": 110,
      "start": 44.58,
      "duration": 0.0879,
      "velocity": 107,
      "chip": "ym2612"
    },
    {
      "channel": 0,
      "note": 40,
      "start": 44.6642,
      "duration": 0.1868,
      "velocity": 107,
      "chip": "ym2612"
    },
    {
      "channel": 1,
      "note": 59,
      "start": 44.6648,
      "duration": 0.0931,
      "velocity": 103,
      "chip": "ym2612"
    },
    {
      "channel": 2,
      "note": 92,
      "start": 44.6653,
      "duration": 0.1869,
      "velocity": 103,
      "chip": "ym2612"
    },
    {
      "channel": 3,
      "note": 92,
      "start": 44.6659,
      "duration": 0.1868,
      "velocity": 103,
      "chip": "ym2612"
    },
    {
      "channel": 4,
      "note": 110,
      "start": 44.6681,
      "duration": 0.0921,
      "velocity": 107,
      "chip": "ym2612"
    },
    {
      "channel": 1,
      "note": 61,
      "start": 44.7581,
      "duration": 0.0935,
      "velocity": 103,
      "chip": "ym2612"
    },
    {
      "channel": 4,
      "note": 110,
      "start": 44.7604,
      "duration": 0.0929,
      "velocity": 107,
      "chip": "ym2612"
    },
    {
      "channel": 0,
      "note": 37,
      "start": 44.8512,
      "duration": 0.1198,
      "velocity": 107,
      "chip": "ym2612"
    },
    {
      "channel": 1,
      "note": 49,
      "start": 44.8518,
      "duration": 0.1198,
      "velocity": 103,
      "chip": "ym2612"
    },
    {
      "channel": 2,
      "note": 85,
      "start": 44.8523,
      "duration": 0.4229,
      "velocity": 103,
      "chip": "ym2612"
    },
    {
      "channel": 3,
      "note": 85,
      "start": 44.8529,
      "duration": 0.4229,
      "velocity": 103,
      "chip": "ym2612"
    },
    {
      "channel": 4,
      "note": 110,
      "start": 44.8535,
      "duration": 0.1188,
      "velocity": 107,
      "chip": "ym2612"
    },
    {
      "channel": 5,
      "note": 96,
      "start": 44.8541,
      "duration": 0.4245,
      "velocity": 127,
      "chip": "ym2612"
    },
    {
      "channel": 0,
      "note": 40,
      "start": 44.9712,
      "duration": 0.2078,
      "velocity": 107,
      "chip": "ym2612"
    },
    {
      "channel": 1,
      "note": 61,
      "start": 44.9718,
      "duration": 0.1192,
      "velocity": 103,
      "chip": "ym2612"
    },
    {
      "channel": 4,
      "note": 110,
      "start": 44.9725,
      "duration": 0.1208,
      "velocity": 127,
      "chip": "ym2612"
    },
    {
      "channel": 1,
      "note": 49,
      "start": 45.0912,
      "duration": 0.0884,
      "velocity": 103,
      "chip": "ym2612"
    },
    {
      "channel": 4,
      "note": 43,
      "start": 45.0935,
      "duration": 0.1845,
      "velocity": 107,
      "chip": "ym2612"
    },
    {
      "channel": 0,
      "note": 37,
      "start": 45.1793,
      "duration": 0.0949,
      "velocity": 107,
      "chip": "ym2612"
    },
    {
      "channel": 1,
      "note": 59,
      "start": 45.1799,
      "duration": 0.0949,
      "velocity": 103,
      "chip": "ym2612"
    },
    {
      "channel": 0,
      "note": 42,
      "start": 45.2743,
      "duration": 0.2398,
      "velocity": 107,
      "chip": "ym2612"
    },
    {
      "channel": 1,
      "note": 61,
      "start": 45.2749,
      "duration": 0.1194,
      "velocity": 103,
      "chip": "ym2612"
    },
    {
      "channel": 2,
      "note": 83,
      "start": 45.2754,
      "duration": 0.1194,
      "velocity": 103,
      "chip": "ym2612"
    },
    {
      "channel": 3,
      "note": 83,
      "start": 45.276,
      "duration": 0.1193,
      "velocity": 103,
      "chip": "ym2612"
    },
    {
      "channel": 4,
      "note": 110,
      "start": 45.2782,
      "duration": 0.1193,
      "velocity": 107,
      "chip": "ym2612"
    },
    {
      "channel": 5,
      "note": 96,
      "start": 45.2788,
      "duration": 0.4271,
      "velocity": 127,
      "chip": "ym2612"
    },
    {
      "channel": 1,
      "note": 47,
      "start": 45.3944,
      "duration": 0.1203,
      "velocity": 103,
      "chip": "ym2612"
    },
    {
      "channel": 2,
      "note": 85,
      "start": 45.3949,
      "duration": 0.1204,
      "velocity": 103,
      "chip": "ym2612"
    },
    {
      "channel": 3,
      "note": 85,
      "start": 45.3955,
      "duration": 0.1204,
      "velocity": 103,
      "chip": "ym2612"
    },
    {
      "channel": 4,
      "note": 110,
      "start": 45.3977,
      "duration": 0.1204,
      "velocity": 107,
      "chip": "ym2612"
    },
    {
      "channel": 0,
      "note": 37,
      "start": 45.5143,
      "duration": 0.1898,
      "velocity": 107,
      "chip": "ym2612"
    },
    {
      "channel": 1,
      "note": 49,
      "start": 45.5149,
      "duration": 0.0951,
      "velocity": 103,
      "chip": "ym2612"
    },
    {
      "channel": 2,
      "note": 90,
      "start": 45.5155,
      "duration": 0.0035,
      "velocity": 103,
      "chip": "ym2612"
    },
    {
      "channel": 3,
      "note": 90,
      "start": 45.5161,
      "duration": 0.0032,
      "velocity": 103,
      "chip": "ym2612"
    },
    {
      "channel": 4,
      "note": 110,
      "start": 45.5182,
      "duration": 0.0951,
      "velocity": 107,
      "chip": "ym2612"
    },
    {
      "channel": 2,
      "note": 90,
      "start": 45.519,
      "duration": 0.012,
      "velocity": 103,
      "chip": "ym2612"
    },
    {
      "channel": 3,
      "note": 90,
      "start": 45.5193,
      "duration": 0.012,
      "velocity": 103,
      "chip": "ym2612"
    },
    {
      "channel": 2,
      "note": 90,
      "start": 45.531,
      "duration": 0.0162,
      "velocity": 103,
      "chip": "ym2612"
    },
    {
      "channel": 3,
      "note": 90,
      "start": 45.5312,
      "duration": 0.0162,
      "velocity": 103,
      "chip": "ym2612"
    },
    {
      "channel": 2,
      "note": 90,
      "start": 45.5471,
      "duration": 0.0154,
      "velocity": 103,
      "chip": "ym2612"
    },
    {
      "channel": 3,
      "note": 90,
      "start": 45.5475,
      "duration": 0.0153,
      "velocity": 103,
      "chip": "ym2612"
    },
    {
      "channel": 2,
      "note": 91,
      "start": 45.5625,
      "duration": 0.0154,
      "velocity": 103,
      "chip": "ym2612"
    },
    {
      "channel": 3,
      "note": 91,
      "start": 45.5627,
      "duration": 0.0154,
      "velocity": 103,
      "chip": "ym2612"
    },
    {
      "channel": 2,
      "note": 91,
      "start": 45.5779,
      "duration": 0.0154,
      "velocity": 103,
      "chip": "ym2612"
    },
    {
      "channel": 3,
      "note": 91,
      "start": 45.5782,
      "duration": 0.0153,
      "velocity": 103,
      "chip": "ym2612"
    },
    {
      "channel": 2,
      "note": 91,
      "start": 45.5932,
      "duration": 0.0174,
      "velocity": 103,
      "chip": "ym2612"
    },
    {
      "channel": 3,
      "note": 91,
      "start": 45.5935,
      "duration": 0.0177,
      "velocity": 103,
      "chip": "ym2612"
    },
    {
      "channel": 1,
      "note": 61,
      "start": 45.6102,
      "duration": 0.0943,
      "velocity": 103,
      "chip": "ym2612"
    },
    {
      "channel": 2,
      "note": 92,
      "start": 45.6108,
      "duration": 0.2138,
      "velocity": 103,
      "chip": "ym2612"
    },
    {
      "channel": 3,
      "note": 92,
      "start": 45.6113,
      "duration": 0.2139,
      "velocity": 103,
      "chip": "ym2612"
    },
    {
      "channel": 4,
      "note": 110,
      "start": 45.6135,
      "duration": 0.0918,
      "velocity": 107,
      "chip": "ym2612"
    },
    {
      "channel": 0,
      "note": 37,
      "start": 45.7042,
      "duration": 0.4233,
      "velocity": 107,
      "chip": "ym2612"
    },
    {
      "channel": 1,
      "note": 49,
      "start": 45.7048,
      "duration": 0.1193,
      "velocity": 103,
      "chip": "ym2612"
    },
    {
      "channel": 4,
      "note": 110,
      "start": 45.7055,
      "duration": 0.1202,
      "velocity": 107,
      "chip": "ym2612"
    },
    {
      "channel": 5,
      "note": 96,
      "start": 45.7061,
      "duration": 0.4259,
      "velocity": 127,
      "chip": "ym2612"
    },
    {
      "channel": 1,
      "note": 59,
      "start": 45.8243,
      "duration": 0.1198,
      "velocity": 103,
      "chip": "ym2612"
    },
    {
      "channel": 2,
      "note": 95,
      "start": 45.8248,
      "duration": 0.3039,
      "velocity": 103,
      "chip": "ym2612"
    },
    {
      "channel": 3,
      "note": 95,
      "start": 45.8254,
      "duration": 0.3038,
      "velocity": 103,
      "chip": "ym2612"
    },
    {
      "channel": 4,
      "note": 110,
      "start": 45.8259,
      "duration": 0.1204,
      "velocity": 127,
      "chip": "ym2612"
    },
    {
      "channel": 1,
      "note": 61,
      "start": 45.9442,
      "duration": 0.0881,
      "velocity": 103,
      "chip": "ym2612"
    },
    {
      "channel": 4,
      "note": 43,
      "start": 45.9465,
      "duration": 0.1849,
      "velocity": 107,
      "chip": "ym2612"
    },
    {
      "channel": 1,
      "note": 49,
      "start": 46.0324,
      "duration": 0.0957,
      "velocity": 103,
      "chip": "ym2612"
    },
    {
      "channel": 0,
      "note": 35,
      "start": 46.1277,
      "duration": 0.1198,
      "velocity": 107,
      "chip": "ym2612"
    },
    {
      "channel": 1,
      "note": 61,
      "start": 46.1283,
      "duration": 0.1198,
      "velocity": 103,
      "chip": "ym2612"
    },
    {
      "channel": 2,
      "note": 83,
      "start": 46.1288,
      "duration": 0.1198,
      "velocity": 103,
      "chip": "ym2612"
    },
    {
      "channel": 3,
      "note": 83,
      "start": 46.1294,
      "duration": 0.1198,
      "velocity": 103,
      "chip": "ym2612"
    },
    {
      "channel": 4,
      "note": 110,
      "start": 46.1315,
      "duration": 0.1198,
      "velocity": 127,
      "chip": "ym2612"
    },
    {
      "channel": 5,
      "note": 96,
      "start": 46.1321,
      "duration": 0.4255,
      "velocity": 127,
      "chip": "ym2612"
    },
    {
      "channel": 0,
      "note": 37,
      "start": 46.2477,
      "duration": 0.1198,
      "velocity": 107,
      "chip": "ym2612"
    },
    {
      "channel": 1,
      "note": 49,
      "start": 46.2482,
      "duration": 0.1199,
      "velocity": 103,
      "chip": "ym2612"
    },
    {
      "channel": 2,
      "note": 85,
      "start": 46.2488,
      "duration": 0.1199,
      "velocity": 103,
      "chip": "ym2612"
    },
    {
      "channel": 3,
      "note": 85,
      "start": 46.2494,
      "duration": 0.1198,
      "velocity": 103,
      "chip": "ym2612"
    },
    {
      "channel": 4,
      "note": 43,
      "start": 46.2515,
      "duration": 0.1198,
      "velocity": 107,
      "chip": "ym2612"
    },
    {
      "channel": 0,
      "note": 40,
      "start": 46.3677,
      "duration": 0.1855,
      "velocity": 107,
      "chip": "ym2612"
    },
    {
      "channel": 1,
      "note": 59,
      "start": 46.3683,
      "duration": 0.0919,
      "velocity": 103,
      "chip": "ym2612"
    },
    {
      "channel": 2,
      "note": 92,
      "start": 46.3688,
      "duration": 0.1856,
      "velocity": 103,
      "chip": "ym2612"
    },
    {
      "channel": 3,
      "note": 92,
      "start": 46.3694,
      "duration": 0.1855,
      "velocity": 103,
      "chip": "ym2612"
    },
    {
      "channel": 4,
      "note": 110,
      "start": 46.3715,
      "duration": 0.0909,
      "velocity": 127,
      "chip": "ym2612"
    },
    {
      "channel": 1,
      "note": 61,
      "start": 46.4603,
      "duration": 0.0935,
      "velocity": 103,
      "chip": "ym2612"
    },
    {
      "channel": 4,
      "note": 43,
      "start": 46.4626,
      "duration": 0.0944,
      "velocity": 107,
      "chip": "ym2612"
    },
    {
      "channel": 0,
      "note": 37,
      "start": 46.5534,
      "duration": 0.1198,
      "velocity": 107,
      "chip": "ym2612"
    },
    {
      "channel": 1,
      "note": 49,
      "start": 46.554,
      "duration": 0.1198,
      "velocity": 103,
      "chip": "ym2612"
    },
    {
      "channel": 2,
      "note": 85,
      "start": 46.5545,
      "duration": 0.6323,
      "velocity": 103,
      "chip": "ym2612"
    },
    {
      "channel": 3,
      "note": 85,
      "start": 46.5551,
      "duration": 0.634,
      "velocity": 103,
      "chip": "ym2612"
    },
    {
      "channel": 4,
      "note": 110,
      "start": 46.5573,
      "duration": 0.1173,
      "velocity": 107,
      "chip": "ym2612"
    },
    {
      "channel": 5,
      "note": 96,
      "start": 46.5578,
      "duration": 0.4221,
      "velocity": 127,
      "chip": "ym2612"
    },
    {
      "channel": 0,
      "note": 40,
      "start": 46.6734,
      "duration": 0.2082,
      "velocity": 107,
      "chip": "ym2612"
    },
    {
      "channel": 1,
      "note": 61,
      "start": 46.674,
      "duration": 0.1192,
      "velocity": 103,
      "chip": "ym2612"
    },
    {
      "channel": 4,
      "note": 110,
      "start": 46.6746,
      "duration": 0.1208,
      "velocity": 127,
      "chip": "ym2612"
    },
    {
      "channel": 1,
      "note": 49,
      "start": 46.7934,
      "duration": 0.0887,
      "velocity": 103,
      "chip": "ym2612"
    },
    {
      "channel": 4,
      "note": 43,
      "start": 46.7957,
      "duration": 0.1837,
      "velocity": 107,
      "chip": "ym2612"
    },
    {
      "channel": 0,
      "note": 37,
      "start": 46.8818,
      "duration": 0.0948,
      "velocity": 107,
      "chip": "ym2612"
    },
    {
      "channel": 1,
      "note": 59,
      "start": 46.8823,
      "duration": 0.0948,
      "velocity": 103,
      "chip": "ym2612"
    },
    {
      "channel": 0,
      "note": 42,
      "start": 46.9767,
      "duration": 0.2089,
      "velocity": 107,
      "chip": "ym2612"
    },
    {
      "channel": 1,
      "note": 61,
      "start": 46.9773,
      "duration": 0.1194,
      "velocity": 103,
      "chip": "ym2612"
    },
    {
      "channel": 4,
      "note": 110,
      "start": 46.9795,
      "duration": 0.1194,
      "velocity": 127,
      "chip": "ym2612"
    },
    {
      "channel": 5,
      "note": 96,
      "start": 46.9801,
      "duration": 0.3997,
      "velocity": 127,
      "chip": "ym2612"
    },
    {
      "channel": 1,
      "note": 47,
      "start": 47.0968,
      "duration": 0.0894,
      "velocity": 103,
      "chip": "ym2612"
    },
    {
      "channel": 4,
      "note": 43,
      "start": 47.0991,
      "duration": 0.0922,
      "velocity": 107,
      "chip": "ym2612"
    },
    {
      "channel": 0,
      "note": 37,
      "start": 47.1858,
      "duration": 0.189,
      "velocity": 107,
      "chip": "ym2612"
    },
    {
      "channel": 1,
      "note": 49,
      "start": 47.1864,
      "duration": 0.095,
      "velocity": 103,
      "chip": "ym2612"
    },
    {
      "channel": 2,
      "note": 90,
      "start": 47.187,
      "duration": 0.0051,
      "velocity": 103,
      "chip": "ym2612"
    },
    {
      "channel": 3,
      "note": 90,
      "start": 47.1893,
      "duration": 0.0032,
      "velocity": 103,
      "chip": "ym2612"
    },
    {
      "channel": 4,
      "note": 110,
      "start": 47.1914,
      "duration": 0.0932,
      "velocity": 107,
      "chip": "ym2612"
    },
    {
      "channel": 2,
      "note": 90,
      "start": 47.1922,
      "duration": 0.0105,
      "velocity": 103,
      "chip": "ym2612"
    },
    {
      "channel": 3,
      "note": 90,
      "start": 47.1925,
      "duration": 0.0105,
      "velocity": 103,
      "chip": "ym2612"
    },
    {
      "channel": 2,
      "note": 90,
      "start": 47.2026,
      "duration": 0.0159,
      "velocity": 103,
      "chip": "ym2612"
    },
    {
      "channel": 3,
      "note": 90,
      "start": 47.2029,
      "duration": 0.0159,
      "velocity": 103,
      "chip": "ym2612"
    },
    {
      "channel": 2,
      "note": 90,
      "start": 47.2186,
      "duration": 0.0151,
      "velocity": 103,
      "chip": "ym2612"
    },
    {
      "channel": 3,
      "note": 90,
      "start": 47.2189,
      "duration": 0.0151,
      "velocity": 103,
      "chip": "ym2612"
    },
    {
      "channel": 2,
      "note": 91,
      "start": 47.2337,
      "duration": 0.0156,
      "velocity": 103,
      "chip": "ym2612"
    },
    {
      "channel": 3,
      "note": 91,
      "start": 47.234,
      "duration": 0.0155,
      "velocity": 103,
      "chip": "ym2612"
    },
    {
      "channel": 2,
      "note": 91,
      "start": 47.2493,
      "duration": 0.016,
      "velocity": 103,
      "chip": "ym2612"
    },
    {
      "channel": 3,
      "note": 91,
      "start": 47.2495,
      "duration": 0.0161,
      "velocity": 103,
      "chip": "ym2612"
    },
    {
      "channel": 2,
      "note": 91,
      "start": 47.2653,
      "duration": 0.0167,
      "velocity": 103,
      "chip": "ym2612"
    },
    {
      "channel": 3,
      "note": 91,
      "start": 47.2656,
      "duration": 0.0169,
      "velocity": 103,
      "chip": "ym2612"
    },
    {
      "channel": 1,
      "note": 61,
      "start": 47.2815,
      "duration": 0.0938,
      "velocity": 103,
      "chip": "ym2612"
    },
    {
      "channel": 2,
      "note": 92,
      "start": 47.2821,
      "duration": 0.2133,
      "velocity": 103,
      "chip": "ym2612"
    },
    {
      "channel": 3,
      "note": 92,
      "start": 47.2826,
      "duration": 0.2133,
      "velocity": 103,
      "chip": "ym2612"
    },
    {
      "channel": 4,
      "note": 110,
      "start": 47.2848,
      "duration": 0.0943,
      "velocity": 107,
      "chip": "ym2612"
    },
    {
      "channel": 0,
      "note": 37,
      "start": 47.375,
      "duration": 0.4227,
      "velocity": 107,
      "chip": "ym2612"
    },
    {
      "channel": 1,
      "note": 49,
      "start": 47.3755,
      "duration": 0.1193,
      "velocity": 103,
      "chip": "ym2612"
    },
    {
      "channel": 4,
      "note": 110,
      "start": 47.3793,
      "duration": 0.1171,
      "velocity": 107,
      "chip": "ym2612"
    },
    {
      "channel": 5,
      "note": 96,
      "start": 47.38,
      "duration": 0.4222,
      "velocity": 127,
      "chip": "ym2612"
    },
    {
      "channel": 1,
      "note": 59,
      "start": 47.495,
      "duration": 0.1198,
      "velocity": 103,
      "chip": "ym2612"
    },
    {
      "channel": 2,
      "note": 95,
      "start": 47.4955,
      "duration": 0.3032,
      "velocity": 103,
      "chip": "ym2612"
    },
    {
      "channel": 3,
      "note": 95,
      "start": 47.4961,
      "duration": 0.3032,
      "velocity": 103,
      "chip": "ym2612"
    },
    {
      "channel": 4,
      "note": 110,
      "start": 47.4966,
      "duration": 0.1204,
      "velocity": 127,
      "chip": "ym2612"
    },
    {
      "channel": 1,
      "note": 61,
      "start": 47.6149,
      "duration": 0.0877,
      "velocity": 103,
      "chip": "ym2612"
    },
    {
      "channel": 4,
      "note": 43,
      "start": 47.6172,
      "duration": 0.1843,
      "velocity": 107,
      "chip": "ym2612"
    },
    {
      "channel": 1,
      "note": 49,
      "start": 47.7028,
      "duration": 0.0954,
      "velocity": 103,
      "chip": "ym2612"
    },
    {
      "channel": 0,
      "note": 35,
      "start": 47.7978,
      "duration": 0.1198,
      "velocity": 107,
      "chip": "ym2612"
    },
    {
      "channel": 1,
      "note": 61,
      "start": 47.7984,
      "duration": 0.1199,
      "velocity": 103,
      "chip": "ym2612"
    },
    {
      "channel": 2,
      "note": 83,
      "start": 47.7989,
      "duration": 0.1198,
      "velocity": 103,
      "chip": "ym2612"
    },
    {
      "channel": 3,
      "note": 83,
      "start": 47.7995,
      "duration": 0.1198,
      "velocity": 103,
      "chip": "ym2612"
    },
    {
      "channel": 4,
      "note": 110,
      "start": 47.8017,
      "duration": 0.1198,
      "velocity": 107,
      "chip": "ym2612"
    },
    {
      "channel": 5,
      "note": 96,
      "start": 47.8023,
      "duration": 0.3923,
      "velocity": 127,
      "chip": "ym2612"
    },
    {
      "channel": 0,
      "note": 37,
      "start": 47.9178,
      "duration": 0.0881,
      "velocity": 107,
      "chip": "ym2612"
    },
    {
      "channel": 1,
      "note": 49,
      "start": 47.9184,
      "duration": 0.0881,
      "velocity": 103,
      "chip": "ym2612"
    },
    {
      "channel": 2,
      "note": 85,
      "start": 47.9189,
      "duration": 0.0882,
      "velocity": 103,
      "chip": "ym2612"
    },
    {
      "channel": 3,
      "note": 85,
      "start": 47.9195,
      "duration": 0.0881,
      "velocity": 103,
      "chip": "ym2612"
    },
    {
      "channel": 4,
      "note": 110,
      "start": 47.9216,
      "duration": 0.0881,
      "velocity": 107,
      "chip": "ym2612"
    },
    {
      "channel": 0,
      "note": 40,
      "start": 48.0061,
      "duration": 0.1857,
      "velocity": 107,
      "chip": "ym2612"
    },
    {
      "channel": 1,
      "note": 59,
      "start": 48.0067,
      "duration": 0.092,
      "velocity": 103,
      "chip": "ym2612"
    },
    {
      "channel": 2,
      "note": 92,
      "start": 48.0072,
      "duration": 0.1858,
      "velocity": 103,
      "chip": "ym2612"
    },
    {
      "channel": 3,
      "note": 92,
      "start": 48.0078,
      "duration": 0.1857,
      "velocity": 103,
      "chip": "ym2612"
    },
    {
      "channel": 4,
      "note": 110,
      "start": 48.01,
      "duration": 0.091,
      "velocity": 107,
      "chip": "ym2612"
    },
    {
      "channel": 1,
      "note": 61,
      "start": 48.0989,
      "duration": 0.0935,
      "velocity": 103,
      "chip": "ym2612"
    },
    {
      "channel": 4,
      "note": 110,
      "start": 48.1012,
      "duration": 0.0929,
      "velocity": 107,
      "chip": "ym2612"
    },
    {
      "channel": 0,
      "note": 37,
      "start": 48.192,
      "duration": 0.1198,
      "velocity": 107,
      "chip": "ym2612"
    },
    {
      "channel": 1,
      "note": 49,
      "start": 48.1926,
      "duration": 0.1198,
      "velocity": 103,
      "chip": "ym2612"
    },
    {
      "channel": 2,
      "note": 85,
      "start": 48.1931,
      "duration": 0.4231,
      "velocity": 103,
      "chip": "ym2612"
    },
    {
      "channel": 3,
      "note": 85,
      "start": 48.1937,
      "duration": 0.4231,
      "velocity": 103,
      "chip": "ym2612"
    },
    {
      "channel": 4,
      "note": 110,
      "start": 48.1943,
      "duration": 0.1188,
      "velocity": 107,
      "chip": "ym2612"
    },
    {
      "channel": 5,
      "note": 96,
      "start": 48.1949,
      "duration": 0.4247,
      "velocity": 127,
      "chip": "ym2612"
    },
    {
      "channel": 0,
      "note": 40,
      "start": 48.312,
      "duration": 0.2081,
      "velocity": 107,
      "chip": "ym2612"
    },
    {
      "channel": 1,
      "note": 61,
      "start": 48.3126,
      "duration": 0.1192,
      "velocity": 103,
      "chip": "ym2612"
    },
    {
      "channel": 4,
      "note": 110,
      "start": 48.3133,
      "duration": 0.1208,
      "velocity": 127,
      "chip": "ym2612"
    },
    {
      "channel": 1,
      "note": 49,
      "start": 48.432,
      "duration": 0.0887,
      "velocity": 103,
      "chip": "ym2612"
    },
    {
      "channel": 4,
      "note": 43,
      "start": 48.4343,
      "duration": 0.1847,
      "velocity": 107,
      "chip": "ym2612"
    },
    {
      "channel": 0,
      "note": 37,
      "start": 48.5203,
      "duration": 0.0949,
      "velocity": 107,
      "chip": "ym2612"
    },
    {
      "channel": 1,
      "note": 59,
      "start": 48.5208,
      "duration": 0.0949,
      "velocity": 103,
      "chip": "ym2612"
    },
    {
      "channel": 0,
      "note": 42,
      "start": 48.6154,
      "duration": 0.2398,
      "velocity": 107,
      "chip": "ym2612"
    },
    {
      "channel": 1,
      "note": 61,
      "start": 48.6159,
      "duration": 0.1194,
      "velocity": 103,
      "chip": "ym2612"
    },
    {
      "channel": 2,
      "note": 83,
      "start": 48.6164,
      "duration": 0.1194,
      "velocity": 103,
      "chip": "ym2612"
    },
    {
      "channel": 3,
      "note": 83,
      "start": 48.617,
      "duration": 0.1193,
      "velocity": 103,
      "chip": "ym2612"
    },
    {
      "channel": 4,
      "note": 110,
      "start": 48.6192,
      "duration": 0.1193,
      "velocity": 107,
      "chip": "ym2612"
    },
    {
      "channel": 5,
      "note": 96,
      "start": 48.6198,
      "duration": 0.4253,
      "velocity": 127,
      "chip": "ym2612"
    },
    {
      "channel": 1,
      "note": 47,
      "start": 48.7354,
      "duration": 0.1203,
      "velocity": 103,
      "chip": "ym2612"
    },
    {
      "channel": 2,
      "note": 85,
      "start": 48.7359,
      "duration": 0.1204,
      "velocity": 103,
      "chip": "ym2612"
    },
    {
      "channel": 3,
      "note": 85,
      "start": 48.7365,
      "duration": 0.1204,
      "velocity": 103,
      "chip": "ym2612"
    },
    {
      "channel": 4,
      "note": 110,
      "start": 48.7387,
      "duration": 0.1204,
      "velocity": 107,
      "chip": "ym2612"
    },
    {
      "channel": 0,
      "note": 37,
      "start": 48.8554,
      "duration": 0.188,
      "velocity": 107,
      "chip": "ym2612"
    },
    {
      "channel": 1,
      "note": 49,
      "start": 48.8559,
      "duration": 0.0933,
      "velocity": 103,
      "chip": "ym2612"
    },
    {
      "channel": 2,
      "note": 90,
      "start": 48.8565,
      "duration": 0.0035,
      "velocity": 103,
      "chip": "ym2612"
    },
    {
      "channel": 3,
      "note": 90,
      "start": 48.8571,
      "duration": 0.0032,
      "velocity": 103,
      "chip": "ym2612"
    },
    {
      "channel": 4,
      "note": 110,
      "start": 48.8593,
      "duration": 0.0933,
      "velocity": 107,
      "chip": "ym2612"
    },
    {
      "channel": 2,
      "note": 90,
      "start": 48.86,
      "duration": 0.012,
      "velocity": 103,
      "chip": "ym2612"
    },
    {
      "channel": 3,
      "note": 90,
      "start": 48.8603,
      "duration": 0.012,
      "velocity": 103,
      "chip": "ym2612"
    },
    {
      "channel": 2,
      "note": 90,
      "start": 48.872,
      "duration": 0.0154,
      "velocity": 103,
      "chip": "ym2612"
    },
    {
      "channel": 3,
      "note": 90,
      "start": 48.8722,
      "duration": 0.0154,
      "velocity": 103,
      "chip": "ym2612"
    },
    {
      "channel": 2,
      "note": 90,
      "start": 48.8874,
      "duration": 0.0154,
      "velocity": 103,
      "chip": "ym2612"
    },
    {
      "channel": 3,
      "note": 90,
      "start": 48.8877,
      "duration": 0.0153,
      "velocity": 103,
      "chip": "ym2612"
    },
    {
      "channel": 2,
      "note": 91,
      "start": 48.9027,
      "duration": 0.0154,
      "velocity": 103,
      "chip": "ym2612"
    },
    {
      "channel": 3,
      "note": 91,
      "start": 48.903,
      "duration": 0.0154,
      "velocity": 103,
      "chip": "ym2612"
    },
    {
      "channel": 2,
      "note": 91,
      "start": 48.9181,
      "duration": 0.0151,
      "velocity": 103,
      "chip": "ym2612"
    },
    {
      "channel": 3,
      "note": 91,
      "start": 48.9183,
      "duration": 0.0151,
      "velocity": 103,
      "chip": "ym2612"
    },
    {
      "channel": 2,
      "note": 91,
      "start": 48.9332,
      "duration": 0.0167,
      "velocity": 103,
      "chip": "ym2612"
    },
    {
      "channel": 3,
      "note": 91,
      "start": 48.9335,
      "duration": 0.0169,
      "velocity": 103,
      "chip": "ym2612"
    },
    {
      "channel": 1,
      "note": 61,
      "start": 48.9495,
      "duration": 0.0944,
      "velocity": 103,
      "chip": "ym2612"
    },
    {
      "channel": 2,
      "note": 92,
      "start": 48.95,
      "duration": 0.214,
      "velocity": 103,
      "chip": "ym2612"
    },
    {
      "channel": 3,
      "note": 92,
      "start": 48.9505,
      "duration": 0.214,
      "velocity": 103,
      "chip": "ym2612"
    },
    {
      "channel": 4,
      "note": 110,
      "start": 48.9527,
      "duration": 0.0918,
      "velocity": 107,
      "chip": "ym2612"
    },
    {
      "channel": 0,
      "note": 37,
      "start": 49.0435,
      "duration": 0.4229,
      "velocity": 107,
      "chip": "ym2612"
    },
    {
      "channel": 1,
      "note": 49,
      "start": 49.044,
      "duration": 0.1194,
      "velocity": 103,
      "chip": "ym2612"
    },
    {
      "channel": 4,
      "note": 110,
      "start": 49.0447,
      "duration": 0.1203,
      "velocity": 107,
      "chip": "ym2612"
    },
    {
      "channel": 5,
      "note": 96,
      "start": 49.0453,
      "duration": 0.4255,
      "velocity": 127,
      "chip": "ym2612"
    },
    {
      "channel": 1,
      "note": 59,
      "start": 49.1636,
      "duration": 0.1198,
      "velocity": 103,
      "chip": "ym2612"
    },
    {
      "channel": 2,
      "note": 95,
      "start": 49.1641,
      "duration": 0.3033,
      "velocity": 103,
      "chip": "ym2612"
    },
    {
      "channel": 3,
      "note": 95,
      "start": 49.1646,
      "duration": 0.3034,
      "velocity": 103,
      "chip": "ym2612"
    },
    {
      "channel": 4,
      "note": 110,
      "start": 49.1652,
      "duration": 0.1204,
      "velocity": 127,
      "chip": "ym2612"
    },
    {
      "channel": 1,
      "note": 61,
      "start": 49.2835,
      "duration": 0.0878,
      "velocity": 103,
      "chip": "ym2612"
    },
    {
      "channel": 4,
      "note": 43,
      "start": 49.2858,
      "duration": 0.1844,
      "velocity": 107,
      "chip": "ym2612"
    },
    {
      "channel": 1,
      "note": 49,
      "start": 49.3715,
      "duration": 0.0954,
      "velocity": 103,
      "chip": "ym2612"
    },
    {
      "channel": 0,
      "note": 35,
      "start": 49.4665,
      "duration": 0.1198,
      "velocity": 107,
      "chip": "ym2612"
    },
    {
      "channel": 1,
      "note": 61,
      "start": 49.4671,
      "duration": 0.1199,
      "velocity": 103,
      "chip": "ym2612"
    },
    {
      "channel": 2,
      "note": 83,
      "start": 49.4676,
      "duration": 0.1198,
      "velocity": 103,
      "chip": "ym2612"
    },
    {
      "channel": 3,
      "note": 83,
      "start": 49.4682,
      "duration": 0.1198,
      "velocity": 103,
      "chip": "ym2612"
    },
    {
      "channel": 4,
      "note": 110,
      "start": 49.4704,
      "duration": 0.1198,
      "velocity": 127,
      "chip": "ym2612"
    },
    {
      "channel": 5,
      "note": 96,
      "start": 49.471,
      "duration": 0.4277,
      "velocity": 127,
      "chip": "ym2612"
    },
    {
      "channel": 0,
      "note": 37,
      "start": 49.5865,
      "duration": 0.1198,
      "velocity": 107,
      "chip": "ym2612"
    },
    {
      "channel": 1,
      "note": 49,
      "start": 49.5871,
      "duration": 0.1199,
      "velocity": 103,
      "chip": "ym2612"
    },
    {
      "channel": 2,
      "note": 85,
      "start": 49.5876,
      "duration": 0.1198,
      "velocity": 103,
      "chip": "ym2612"
    },
    {
      "channel": 3,
      "note": 85,
      "start": 49.5882,
      "duration": 0.1198,
      "velocity": 103,
      "chip": "ym2612"
    },
    {
      "channel": 4,
      "note": 43,
      "start": 49.5903,
      "duration": 0.1199,
      "velocity": 107,
      "chip": "ym2612"
    },
    {
      "channel": 0,
      "note": 40,
      "start": 49.7065,
      "duration": 0.1878,
      "velocity": 107,
      "chip": "ym2612"
    },
    {
      "channel": 1,
      "note": 59,
      "start": 49.7071,
      "duration": 0.0932,
      "velocity": 103,
      "chip": "ym2612"
    },
    {
      "channel": 2,
      "note": 92,
      "start": 49.7076,
      "duration": 0.1878,
      "velocity": 103,
      "chip": "ym2612"
    },
    {
      "channel": 3,
      "note": 92,
      "start": 49.7082,
      "duration": 0.1877,
      "velocity": 103,
      "chip": "ym2612"
    },
    {
      "channel": 4,
      "note": 110,
      "start": 49.7103,
      "duration": 0.0922,
      "velocity": 127,
      "chip": "ym2612"
    },
    {
      "channel": 1,
      "note": 61,
      "start": 49.8004,
      "duration": 0.0944,
      "velocity": 103,
      "chip": "ym2612"
    },
    {
      "channel": 4,
      "note": 43,
      "start": 49.8027,
      "duration": 0.0954,
      "velocity": 107,
      "chip": "ym2612"
    },
    {
      "channel": 0,
      "note": 37,
      "start": 49.8944,
      "duration": 0.1198,
      "velocity": 107,
      "chip": "ym2612"
    },
    {
      "channel": 1,
      "note": 49,
      "start": 49.895,
      "duration": 0.1198,
      "velocity": 103,
      "chip": "ym2612"
    },
    {
      "channel": 2,
      "note": 85,
      "start": 49.8956,
      "duration": 0.6322,
      "velocity": 103,
      "chip": "ym2612"
    },
    {
      "channel": 3,
      "note": 85,
      "start": 49.8961,
      "duration": 0.6322,
      "velocity": 103,
      "chip": "ym2612"
    },
    {
      "channel": 4,
      "note": 110,
      "start": 49.8982,
      "duration": 0.1173,
      "velocity": 107,
      "chip": "ym2612"
    },
    {
      "channel": 5,
      "note": 96,
      "start": 49.8988,
      "duration": 0.4222,
      "velocity": 127,
      "chip": "ym2612"
    },
    {
      "channel": 0,
      "note": 40,
      "start": 50.0144,
      "duration": 0.208,
      "velocity": 107,
      "chip": "ym2612"
    },
    {
      "channel": 1,
      "note": 61,
      "start": 50.015,
      "duration": 0.1192,
      "velocity": 103,
      "chip": "ym2612"
    },
    {
      "channel": 4,
      "note": 110,
      "start": 50.0156,
      "duration": 0.1208,
      "velocity": 127,
      "chip": "ym2612"
    },
    {
      "channel": 1,
      "note": 49,
      "start": 50.1344,
      "duration": 0.0885,
      "velocity": 103,
      "chip": "ym2612"
    },
    {
      "channel": 4,
      "note": 43,
      "start": 50.1366,
      "duration": 0.1838,
      "velocity": 107,
      "chip": "ym2612"
    },
    {
      "channel": 0,
      "note": 37,
      "start": 50.2226,
      "duration": 0.0951,
      "velocity": 107,
      "chip": "ym2612"
    },
    {
      "channel": 1,
      "note": 59,
      "start": 50.2232,
      "duration": 0.0951,
      "velocity": 103,
      "chip": "ym2612"
    },
    {
      "channel": 0,
      "note": 42,
      "start": 50.3178,
      "duration": 0.2088,
      "velocity": 107,
      "chip": "ym2612"
    },
    {
      "channel": 1,
      "note": 61,
      "start": 50.3183,
      "duration": 0.1194,
      "velocity": 103,
      "chip": "ym2612"
    },
    {
      "channel": 4,
      "note": 110,
      "start": 50.3206,
      "duration": 0.1193,
      "velocity": 107,
      "chip": "ym2612"
    },
    {
      "channel": 5,
      "note": 96,
      "start": 50.3212,
      "duration": 0.3947,
      "velocity": 127,
      "chip": "ym2612"
    },
    {
      "channel": 1,
      "note": 47,
      "start": 50.4379,
      "duration": 0.0893,
      "velocity": 103,
      "chip": "ym2612"
    },
    {
      "channel": 4,
      "note": 110,
      "start": 50.4401,
      "duration": 0.0903,
      "velocity": 107,
      "chip": "ym2612"
    },
    {
      "channel": 0,
      "note": 37,
      "start": 50.5268,
      "duration": 0.1874,
      "velocity": 107,
      "chip": "ym2612"
    },
    {
      "channel": 1,
      "note": 49,
      "start": 50.5273,
      "duration": 0.0937,
      "velocity": 103,
      "chip": "ym2612"
    },
    {
      "channel": 2,
      "note": 90,
      "start": 50.5279,
      "duration": 0.0035,
      "velocity": 103,
      "chip": "ym2612"
    },
    {
      "channel": 3,
      "note": 90,
      "start": 50.5285,
      "duration": 0.0032,
      "velocity": 103,
      "chip": "ym2612"
    },
    {
      "channel": 4,
      "note": 110,
      "start": 50.5307,
      "duration": 0.0936,
      "velocity": 107,
      "chip": "ym2612"
    },
    {
      "channel": 2,
      "note": 90,
      "start": 50.5314,
      "duration": 0.012,
      "velocity": 103,
      "chip": "ym2612"
    },
    {
      "channel": 3,
      "note": 90,
      "start": 50.5317,
      "duration": 0.012,
      "velocity": 103,
      "chip": "ym2612"
    },
    {
      "channel": 2,
      "note": 90,
      "start": 50.5434,
      "duration": 0.0154,
      "velocity": 103,
      "chip": "ym2612"
    },
    {
      "channel": 3,
      "note": 90,
      "start": 50.5437,
      "duration": 0.0154,
      "velocity": 103,
      "chip": "ym2612"
    },
    {
      "channel": 2,
      "note": 90,
      "start": 50.5588,
      "duration": 0.0154,
      "velocity": 103,
      "chip": "ym2612"
    },
    {
      "channel": 3,
      "note": 90,
      "start": 50.5591,
      "duration": 0.0153,
      "velocity": 103,
      "chip": "ym2612"
    },
    {
      "channel": 2,
      "note": 91,
      "start": 50.5741,
      "duration": 0.0154,
      "velocity": 103,
      "chip": "ym2612"
    },
    {
      "channel": 3,
      "note": 91,
      "start": 50.5744,
      "duration": 0.0154,
      "velocity": 103,
      "chip": "ym2612"
    },
    {
      "channel": 2,
      "note": 91,
      "start": 50.5895,
      "duration": 0.0151,
      "velocity": 103,
      "chip": "ym2612"
    },
    {
      "channel": 3,
      "note": 91,
      "start": 50.5898,
      "duration": 0.0152,
      "velocity": 103,
      "chip": "ym2612"
    },
    {
      "channel": 2,
      "note": 91,
      "start": 50.6046,
      "duration": 0.017,
      "velocity": 103,
      "chip": "ym2612"
    },
    {
      "channel": 3,
      "note": 91,
      "start": 50.6049,
      "duration": 0.0172,
      "velocity": 103,
      "chip": "ym2612"
    },
    {
      "channel": 1,
      "note": 61,
      "start": 50.6212,
      "duration": 0.0935,
      "velocity": 103,
      "chip": "ym2612"
    },
    {
      "channel": 2,
      "note": 92,
      "start": 50.6218,
      "duration": 0.213,
      "velocity": 103,
      "chip": "ym2612"
    },
    {
      "channel": 3,
      "note": 92,
      "start": 50.6223,
      "duration": 0.213,
      "velocity": 103,
      "chip": "ym2612"
    },
    {
      "channel": 4,
      "note": 110,
      "start": 50.6245,
      "duration": 0.0908,
      "velocity": 107,
      "chip": "ym2612"
    },
    {
      "channel": 0,
      "note": 37,
      "start": 50.7143,
      "duration": 0.4227,
      "velocity": 107,
      "chip": "ym2612"
    },
    {
      "channel": 1,
      "note": 49,
      "start": 50.7148,
      "duration": 0.1194,
      "velocity": 103,
      "chip": "ym2612"
    },
    {
      "channel": 4,
      "note": 110,
      "start": 50.7155,
      "duration": 0.1203,
      "velocity": 107,
      "chip": "ym2612"
    },
    {
      "channel": 5,
      "note": 96,
      "start": 50.7161,
      "duration": 0.4254,
      "velocity": 127,
      "chip": "ym2612"
    },
    {
      "channel": 1,
      "note": 59,
      "start": 50.8344,
      "duration": 0.1198,
      "velocity": 103,
      "chip": "ym2612"
    },
    {
      "channel": 2,
      "note": 95,
      "start": 50.8349,
      "duration": 0.3032,
      "velocity": 103,
      "chip": "ym2612"
    },
    {
      "channel": 3,
      "note": 95,
      "start": 50.8355,
      "duration": 0.3032,
      "velocity": 103,
      "chip": "ym2612"
    },
    {
      "channel": 4,
      "note": 110,
      "start": 50.836,
      "duration": 0.1204,
      "velocity": 127,
      "chip": "ym2612"
    },
    {
      "channel": 1,
      "note": 61,
      "start": 50.9543,
      "duration": 0.0877,
      "velocity": 103,
      "chip": "ym2612"
    },
    {
      "channel": 4,
      "note": 43,
      "start": 50.9566,
      "duration": 0.1843,
      "velocity": 107,
      "chip": "ym2612"
    },
    {
      "channel": 1,
      "note": 49,
      "start": 51.0422,
      "duration": 0.0954,
      "velocity": 103,
      "chip": "ym2612"
    },
    {
      "channel": 0,
      "note": 35,
      "start": 51.1372,
      "duration": 0.1198,
      "velocity": 107,
      "chip": "ym2612"
    },
    {
      "channel": 1,
      "note": 61,
      "start": 51.1378,
      "duration": 0.1199,
      "velocity": 103,
      "chip": "ym2612"
    },
    {
      "channel": 2,
      "note": 83,
      "start": 51.1383,
      "duration": 0.1198,
      "velocity": 103,
      "chip": "ym2612"
    },
    {
      "channel": 3,
      "note": 83,
      "start": 51.1389,
      "duration": 0.1198,
      "velocity": 103,
      "chip": "ym2612"
    },
    {
      "channel": 4,
      "note": 110,
      "start": 51.1411,
      "duration": 0.1198,
      "velocity": 107,
      "chip": "ym2612"
    },
    {
      "channel": 5,
      "note": 96,
      "start": 51.1417,
      "duration": 0.3932,
      "velocity": 127,
      "chip": "ym2612"
    },
    {
      "channel": 0,
      "note": 37,
      "start": 51.2572,
      "duration": 0.0878,
      "velocity": 107,
      "chip": "ym2612"
    },
    {
      "channel": 1,
      "note": 49,
      "start": 51.2578,
      "duration": 0.0879,
      "velocity": 103,
      "chip": "ym2612"
    },
    {
      "channel": 2,
      "note": 85,
      "start": 51.2583,
      "duration": 0.0879,
      "velocity": 103,
      "chip": "ym2612"
    },
    {
      "channel": 3,
      "note": 85,
      "start": 51.2589,
      "duration": 0.0878,
      "velocity": 103,
      "chip": "ym2612"
    },
    {
      "channel": 4,
      "note": 110,
      "start": 51.261,
      "duration": 0.0879,
      "velocity": 107,
      "chip": "ym2612"
    },
    {
      "channel": 0,
      "note": 40,
      "start": 51.3452,
      "duration": 0.1868,
      "velocity": 107,
      "chip": "ym2612"
    },
    {
      "channel": 1,
      "note": 59,
      "start": 51.3458,
      "duration": 0.0931,
      "velocity": 103,
      "chip": "ym2612"
    },
    {
      "channel": 2,
      "note": 92,
      "start": 51.3463,
      "duration": 0.1869,
      "velocity": 103,
      "chip": "ym2612"
    },
    {
      "channel": 3,
      "note": 92,
      "start": 51.3469,
      "duration": 0.1868,
      "velocity": 103,
      "chip": "ym2612"
    },
    {
      "channel": 4,
      "note": 110,
      "start": 51.3491,
      "duration": 0.0921,
      "velocity": 107,
      "chip": "ym2612"
    },
    {
      "channel": 1,
      "note": 61,
      "start": 51.4391,
      "duration": 0.0935,
      "velocity": 103,
      "chip": "ym2612"
    },
    {
      "channel": 4,
      "note": 110,
      "start": 51.4414,
      "duration": 0.0929,
      "velocity": 107,
      "chip": "ym2612"
    },
    {
      "channel": 0,
      "note": 37,
      "start": 51.5322,
      "duration": 0.1198,
      "velocity": 107,
      "chip": "ym2612"
    },
    {
      "channel": 1,
      "note": 49,
      "start": 51.5328,
      "duration": 0.1198,
      "velocity": 103,
      "chip": "ym2612"
    },
    {
      "channel": 2,
      "note": 85,
      "start": 51.5333,
      "duration": 0.4229,
      "velocity": 103,
      "chip": "ym2612"
    },
    {
      "channel": 3,
      "note": 85,
      "start": 51.5339,
      "duration": 0.4229,
      "velocity": 103,
      "chip": "ym2612"
    },
    {
      "channel": 4,
      "note": 110,
      "start": 51.5345,
      "duration": 0.1188,
      "velocity": 107,
      "chip": "ym2612"
    },
    {
      "channel": 5,
      "note": 96,
      "start": 51.5351,
      "duration": 0.4245,
      "velocity": 127,
      "chip": "ym2612"
    },
    {
      "channel": 0,
      "note": 40,
      "start": 51.6522,
      "duration": 0.2078,
      "velocity": 107,
      "chip": "ym2612"
    },
    {
      "channel": 1,
      "note": 61,
      "start": 51.6528,
      "duration": 0.1192,
      "velocity": 103,
      "chip": "ym2612"
    },
    {
      "channel": 4,
      "note": 110,
      "start": 51.6535,
      "duration": 0.1208,
      "velocity": 127,
      "chip": "ym2612"
    },
    {
      "channel": 1,
      "note": 49,
      "start": 51.7722,
      "duration": 0.0884,
      "velocity": 103,
      "chip": "ym2612"
    },
    {
      "channel": 4,
      "note": 43,
      "start": 51.7745,
      "duration": 0.1845,
      "velocity": 107,
      "chip": "ym2612"
    },
    {
      "channel": 0,
      "note": 37,
      "start": 51.8603,
      "duration": 0.0949,
      "velocity": 107,
      "chip": "ym2612"
    },
    {
      "channel": 1,
      "note": 59,
      "start": 51.8609,
      "duration": 0.0949,
      "velocity": 103,
      "chip": "ym2612"
    },
    {
      "channel": 0,
      "note": 42,
      "start": 51.9553,
      "duration": 0.2398,
      "velocity": 107,
      "chip": "ym2612"
    },
    {
      "channel": 1,
      "note": 61,
      "start": 51.9559,
      "duration": 0.1194,
      "velocity": 103,
      "chip": "ym2612"
    },
    {
      "channel": 2,
      "note": 83,
      "start": 51.9564,
      "duration": 0.1194,
      "velocity": 103,
      "chip": "ym2612"
    },
    {
      "channel": 3,
      "note": 83,
      "start": 51.957,
      "duration": 0.1193,
      "velocity": 103,
      "chip": "ym2612"
    },
    {
      "channel": 4,
      "note": 110,
      "start": 51.9592,
      "duration": 0.1193,
      "velocity": 107,
      "chip": "ym2612"
    },
    {
      "channel": 5,
      "note": 96,
      "start": 51.9598,
      "duration": 0.4271,
      "velocity": 127,
      "chip": "ym2612"
    },
    {
      "channel": 1,
      "note": 47,
      "start": 52.0754,
      "duration": 0.1203,
      "velocity": 103,
      "chip": "ym2612"
    },
    {
      "channel": 2,
      "note": 85,
      "start": 52.0759,
      "duration": 0.1204,
      "velocity": 103,
      "chip": "ym2612"
    },
    {
      "channel": 3,
      "note": 85,
      "start": 52.0765,
      "duration": 0.1204,
      "velocity": 103,
      "chip": "ym2612"
    },
    {
      "channel": 4,
      "note": 110,
      "start": 52.0787,
      "duration": 0.1204,
      "velocity": 107,
      "chip": "ym2612"
    },
    {
      "channel": 0,
      "note": 37,
      "start": 52.1953,
      "duration": 0.1898,
      "velocity": 107,
      "chip": "ym2612"
    },
    {
      "channel": 1,
      "note": 49,
      "start": 52.1959,
      "duration": 0.0951,
      "velocity": 103,
      "chip": "ym2612"
    },
    {
      "channel": 2,
      "note": 90,
      "start": 52.1965,
      "duration": 0.0035,
      "velocity": 103,
      "chip": "ym2612"
    },
    {
      "channel": 3,
      "note": 90,
      "start": 52.1971,
      "duration": 0.0032,
      "velocity": 103,
      "chip": "ym2612"
    },
    {
      "channel": 4,
      "note": 110,
      "start": 52.1992,
      "duration": 0.0951,
      "velocity": 107,
      "chip": "ym2612"
    },
    {
      "channel": 2,
      "note": 90,
      "start": 52.2,
      "duration": 0.012,
      "velocity": 103,
      "chip": "ym2612"
    },
    {
      "channel": 3,
      "note": 90,
      "start": 52.2002,
      "duration": 0.012,
      "velocity": 103,
      "chip": "ym2612"
    },
    {
      "channel": 2,
      "note": 90,
      "start": 52.212,
      "duration": 0.0162,
      "velocity": 103,
      "chip": "ym2612"
    },
    {
      "channel": 3,
      "note": 90,
      "start": 52.2122,
      "duration": 0.0162,
      "velocity": 103,
      "chip": "ym2612"
    },
    {
      "channel": 2,
      "note": 90,
      "start": 52.2281,
      "duration": 0.0154,
      "velocity": 103,
      "chip": "ym2612"
    },
    {
      "channel": 3,
      "note": 90,
      "start": 52.2285,
      "duration": 0.0153,
      "velocity": 103,
      "chip": "ym2612"
    },
    {
      "channel": 2,
      "note": 91,
      "start": 52.2435,
      "duration": 0.0154,
      "velocity": 103,
      "chip": "ym2612"
    },
    {
      "channel": 3,
      "note": 91,
      "start": 52.2437,
      "duration": 0.0154,
      "velocity": 103,
      "chip": "ym2612"
    },
    {
      "channel": 2,
      "note": 91,
      "start": 52.2589,
      "duration": 0.0154,
      "velocity": 103,
      "chip": "ym2612"
    },
    {
      "channel": 3,
      "note": 91,
      "start": 52.2592,
      "duration": 0.0153,
      "velocity": 103,
      "chip": "ym2612"
    },
    {
      "channel": 2,
      "note": 91,
      "start": 52.2742,
      "duration": 0.0174,
      "velocity": 103,
      "chip": "ym2612"
    },
    {
      "channel": 3,
      "note": 91,
      "start": 52.2745,
      "duration": 0.0177,
      "velocity": 103,
      "chip": "ym2612"
    },
    {
      "channel": 1,
      "note": 61,
      "start": 52.2912,
      "duration": 0.0943,
      "velocity": 103,
      "chip": "ym2612"
    },
    {
      "channel": 2,
      "note": 92,
      "start": 52.2918,
      "duration": 0.2138,
      "velocity": 103,
      "chip": "ym2612"
    },
    {
      "channel": 3,
      "note": 92,
      "start": 52.2923,
      "duration": 0.2139,
      "velocity": 103,
      "chip": "ym2612"
    },
    {
      "channel": 4,
      "note": 110,
      "start": 52.2945,
      "duration": 0.0918,
      "velocity": 107,
      "chip": "ym2612"
    },
    {
      "channel": 0,
      "note": 37,
      "start": 52.3852,
      "duration": 0.4233,
      "velocity": 107,
      "chip": "ym2612"
    },
    {
      "channel": 1,
      "note": 49,
      "start": 52.3858,
      "duration": 0.1193,
      "velocity": 103,
      "chip": "ym2612"
    },
    {
      "channel": 4,
      "note": 110,
      "start": 52.3865,
      "duration": 0.1202,
      "velocity": 107,
      "chip": "ym2612"
    },
    {
      "channel": 5,
      "note": 96,
      "start": 52.3871,
      "duration": 0.4259,
      "velocity": 127,
      "chip": "ym2612"
    },
    {
      "channel": 1,
      "note": 59,
      "start": 52.5053,
      "duration": 0.1198,
      "velocity": 103,
      "chip": "ym2612"
    },
    {
      "channel": 2,
      "note": 95,
      "start": 52.5058,
      "duration": 0.3039,
      "velocity": 103,
      "chip": "ym2612"
    },
    {
      "channel": 3,
      "note": 95,
      "start": 52.5063,
      "duration": 0.3038,
      "velocity": 103,
      "chip": "ym2612"
    },
    {
      "channel": 4,
      "note": 110,
      "start": 52.5069,
      "duration": 0.1204,
      "velocity": 127,
      "chip": "ym2612"
    },
    {
      "channel": 1,
      "note": 61,
      "start": 52.6252,
      "duration": 0.0881,
      "velocity": 103,
      "chip": "ym2612"
    },
    {
      "channel": 4,
      "note": 43,
      "start": 52.6275,
      "duration": 0.1849,
      "velocity": 107,
      "chip": "ym2612"
    },
    {
      "channel": 1,
      "note": 49,
      "start": 52.7134,
      "duration": 0.0957,
      "velocity": 103,
      "chip": "ym2612"
    },
    {
      "channel": 0,
      "note": 35,
      "start": 52.8087,
      "duration": 0.1198,
      "velocity": 107,
      "chip": "ym2612"
    },
    {
      "channel": 1,
      "note": 61,
      "start": 52.8093,
      "duration": 0.1198,
      "velocity": 103,
      "chip": "ym2612"
    },
    {
      "channel": 2,
      "note": 83,
      "start": 52.8098,
      "duration": 0.1198,
      "velocity": 103,
      "chip": "ym2612"
    },
    {
      "channel": 3,
      "note": 83,
      "start": 52.8104,
      "duration": 0.1198,
      "velocity": 103,
      "chip": "ym2612"
    },
    {
      "channel": 4,
      "note": 110,
      "start": 52.8125,
      "duration": 0.1198,
      "velocity": 127,
      "chip": "ym2612"
    },
    {
      "channel": 5,
      "note": 96,
      "start": 52.8131,
      "duration": 0.4255,
      "velocity": 127,
      "chip": "ym2612"
    },
    {
      "channel": 0,
      "note": 37,
      "start": 52.9287,
      "duration": 0.1198,
      "velocity": 107,
      "chip": "ym2612"
    },
    {
      "channel": 1,
      "note": 49,
      "start": 52.9292,
      "duration": 0.1199,
      "velocity": 103,
      "chip": "ym2612"
    },
    {
      "channel": 2,
      "note": 85,
      "start": 52.9298,
      "duration": 0.1199,
      "velocity": 103,
      "chip": "ym2612"
    },
    {
      "channel": 3,
      "note": 85,
      "start": 52.9304,
      "duration": 0.1198,
      "velocity": 103,
      "chip": "ym2612"
    },
    {
      "channel": 4,
      "note": 43,
      "start": 52.9325,
      "duration": 0.1198,
      "velocity": 107,
      "chip": "ym2612"
    },
    {
      "channel": 0,
      "note": 40,
      "start": 53.0487,
      "duration": 0.1855,
      "velocity": 107,
      "chip": "ym2612"
    },
    {
      "channel": 1,
      "note": 59,
      "start": 53.0493,
      "duration": 0.0919,
      "velocity": 103,
      "chip": "ym2612"
    },
    {
      "channel": 2,
      "note": 92,
      "start": 53.0498,
      "duration": 0.1856,
      "velocity": 103,
      "chip": "ym2612"
    },
    {
      "channel": 3,
      "note": 92,
      "start": 53.0504,
      "duration": 0.1855,
      "velocity": 103,
      "chip": "ym2612"
    },
    {
      "channel": 4,
      "note": 110,
      "start": 53.0525,
      "duration": 0.0909,
      "velocity": 127,
      "chip": "ym2612"
    },
    {
      "channel": 1,
      "note": 61,
      "start": 53.1413,
      "duration": 0.0935,
      "velocity": 103,
      "chip": "ym2612"
    },
    {
      "channel": 4,
      "note": 43,
      "start": 53.1436,
      "duration": 0.0944,
      "velocity": 107,
      "chip": "ym2612"
    },
    {
      "channel": 0,
      "note": 37,
      "start": 53.2344,
      "duration": 0.1198,
      "velocity": 107,
      "chip": "ym2612"
    },
    {
      "channel": 1,
      "note": 49,
      "start": 53.235,
      "duration": 0.1198,
      "velocity": 103,
      "chip": "ym2612"
    },
    {
      "channel": 2,
      "note": 85,
      "start": 53.2355,
      "duration": 0.6339,
      "velocity": 111,
      "chip": "ym2612"
    },
    {
      "channel": 3,
      "note": 85,
      "start": 53.2361,
      "duration": 0.6354,
      "velocity": 1,
      "chip": "ym2612"
    },
    {
      "channel": 4,
      "note": 110,
      "start": 53.2383,
      "duration": 0.1173,
      "velocity": 107,
      "chip": "ym2612"
    },
    {
      "channel": 5,
      "note": 96,
      "start": 53.2388,
      "duration": 0.4221,
      "velocity": 127,
      "chip": "ym2612"
    },
    {
      "channel": 0,
      "note": 40,
      "start": 53.3544,
      "duration": 0.2082,
      "velocity": 107,
      "chip": "ym2612"
    },
    {
      "channel": 1,
      "note": 61,
      "start": 53.355,
      "duration": 0.1192,
      "velocity": 103,
      "chip": "ym2612"
    },
    {
      "channel": 4,
      "note": 110,
      "start": 53.3556,
      "duration": 0.1208,
      "velocity": 127,
      "chip": "ym2612"
    },
    {
      "channel": 1,
      "note": 49,
      "start": 53.4744,
      "duration": 0.0887,
      "velocity": 103,
      "chip": "ym2612"
    },
    {
      "channel": 4,
      "note": 43,
      "start": 53.4767,
      "duration": 0.1837,
      "velocity": 107,
      "chip": "ym2612"
    },
    {
      "channel": 0,
      "note": 37,
      "start": 53.5628,
      "duration": 0.0948,
      "velocity": 107,
      "chip": "ym2612"
    },
    {
      "channel": 1,
      "note": 59,
      "start": 53.5633,
      "duration": 0.0948,
      "velocity": 103,
      "chip": "ym2612"
    },
    {
      "channel": 0,
      "note": 42,
      "start": 53.6577,
      "duration": 0.2089,
      "velocity": 107,
      "chip": "ym2612"
    },
    {
      "channel": 1,
      "note": 61,
      "start": 53.6583,
      "duration": 0.1194,
      "velocity": 103,
      "chip": "ym2612"
    },
    {
      "channel": 4,
      "note": 110,
      "start": 53.6605,
      "duration": 0.1194,
      "velocity": 127,
      "chip": "ym2612"
    },
    {
      "channel": 5,
      "note": 96,
      "start": 53.6611,
      "duration": 0.3941,
      "velocity": 127,
      "chip": "ym2612"
    },
    {
      "channel": 1,
      "note": 47,
      "start": 53.7778,
      "duration": 0.0894,
      "velocity": 103,
      "chip": "ym2612"
    },
    {
      "channel": 4,
      "note": 43,
      "start": 53.7801,
      "duration": 0.0936,
      "velocity": 107,
      "chip": "ym2612"
    },
    {
      "channel": 0,
      "note": 35,
      "start": 53.8668,
      "duration": 0.1866,
      "velocity": 107,
      "chip": "ym2612"
    },
    {
      "channel": 1,
      "note": 47,
      "start": 53.8674,
      "duration": 0.0924,
      "velocity": 103,
      "chip": "ym2612"
    },
    {
      "channel": 2,
      "note": 59,
      "start": 53.8695,
      "duration": 0.6099,
      "velocity": 111,
      "chip": "ym2612"
    },
    {
      "channel": 3,
      "note": 43,
      "start": 53.8717,
      "duration": 0.4255,
      "velocity": 111,
      "chip": "ym2612"
    },
    {
      "channel": 4,
      "note": 110,
      "start": 53.8739,
      "duration": 0.0882,
      "velocity": 107,
      "chip": "ym2612"
    },
    {
      "channel": 1,
      "note": 59,
      "start": 53.96,
      "duration": 0.0939,
      "velocity": 103,
      "chip": "ym2612"
    },
    {
      "channel": 4,
      "note": 110,
      "start": 53.9623,
      "duration": 0.0923,
      "velocity": 107,
      "chip": "ym2612"
    },
    {
      "channel": 0,
      "note": 35,
      "start": 54.0535,
      "duration": 0.4232,
      "velocity": 107,
      "chip": "ym2612"
    },
    {
      "channel": 1,
      "note": 47,
      "start": 54.0541,
      "duration": 0.1193,
      "velocity": 103,
      "chip": "ym2612"
    },
    {
      "channel": 4,
      "note": 110,
      "start": 54.0547,
      "duration": 0.1193,
      "velocity": 107,
      "chip": "ym2612"
    },
    {
      "channel": 5,
      "note": 96,
      "start": 54.0554,
      "duration": 0.4269,
      "velocity": 127,
      "chip": "ym2612"
    },
    {
      "channel": 1,
      "note": 57,
      "start": 54.1735,
      "duration": 0.1198,
      "velocity": 103,
      "chip": "ym2612"
    },
    {
      "channel": 4,
      "note": 110,
      "start": 54.1742,
      "duration": 0.1251,
      "velocity": 127,
      "chip": "ym2612"
    },
    {
      "channel": 1,
      "note": 59,
      "start": 54.2935,
      "duration": 0.0886,
      "velocity": 103,
      "chip": "ym2612"
    },
    {
      "channel": 3,
      "note": 59,
      "start": 54.2973,
      "duration": 0.5764,
      "velocity": 111,
      "chip": "ym2612"
    },
    {
      "channel": 4,
      "note": 43,
      "start": 54.2995,
      "duration": 0.1821,
      "velocity": 107,
      "chip": "ym2612"
    },
    {
      "channel": 1,
      "note": 47,
      "start": 54.3823,
      "duration": 0.0949,
      "velocity": 103,
      "chip": "ym2612"
    },
    {
      "channel": 0,
      "note": 33,
      "start": 54.4768,
      "duration": 0.1199,
      "velocity": 107,
      "chip": "ym2612"
    },
    {
      "channel": 1,
      "note": 59,
      "start": 54.4774,
      "duration": 0.1198,
      "velocity": 103,
      "chip": "ym2612"
    },
    {
      "channel": 2,
      "note": 62,
      "start": 54.4795,
      "duration": 0.3937,
      "velocity": 111,
      "chip": "ym2612"
    },
    {
      "channel": 4,
      "note": 110,
      "start": 54.4818,
      "duration": 0.1178,
      "velocity": 107,
      "chip": "ym2612"
    },
    {
      "channel": 5,
      "note": 96,
      "start": 54.4824,
      "duration": 0.3925,
      "velocity": 127,
      "chip": "ym2612"
    },
    {
      "channel": 0,
      "note": 35,
      "start": 54.5968,
      "duration": 0.0886,
      "velocity": 107,
      "chip": "ym2612"
    },
    {
      "channel": 1,
      "note": 47,
      "start": 54.5974,
      "duration": 0.0885,
      "velocity": 103,
      "chip": "ym2612"
    },
    {
      "channel": 4,
      "note": 110,
      "start": 54.5997,
      "duration": 0.0885,
      "velocity": 107,
      "chip": "ym2612"
    },
    {
      "channel": 0,
      "note": 38,
      "start": 54.6856,
      "duration": 0.1866,
      "velocity": 107,
      "chip": "ym2612"
    },
    {
      "channel": 1,
      "note": 57,
      "start": 54.6861,
      "duration": 0.0924,
      "velocity": 103,
      "chip": "ym2612"
    },
    {
      "channel": 4,
      "note": 110,
      "start": 54.6884,
      "duration": 0.0923,
      "velocity": 107,
      "chip": "ym2612"
    },
    {
      "channel": 1,
      "note": 59,
      "start": 54.7786,
      "duration": 0.0941,
      "velocity": 103,
      "chip": "ym2612"
    },
    {
      "channel": 4,
      "note": 110,
      "start": 54.781,
      "duration": 0.0934,
      "velocity": 107,
      "chip": "ym2612"
    },
    {
      "channel": 0,
      "note": 35,
      "start": 54.8723,
      "duration": 0.1198,
      "velocity": 107,
      "chip": "ym2612"
    },
    {
      "channel": 1,
      "note": 47,
      "start": 54.8728,
      "duration": 0.1199,
      "velocity": 103,
      "chip": "ym2612"
    },
    {
      "channel": 2,
      "note": 66,
      "start": 54.8734,
      "duration": 0.2393,
      "velocity": 111,
      "chip": "ym2612"
    },
    {
      "channel": 3,
      "note": 62,
      "start": 54.874,
      "duration": 0.4229,
      "velocity": 111,
      "chip": "ym2612"
    },
    {
      "channel": 4,
      "note": 110,
      "start": 54.8746,
      "duration": 0.1188,
      "velocity": 107,
      "chip": "ym2612"
    },
    {
      "channel": 5,
      "note": 96,
      "start": 54.8751,
      "duration": 0.4246,
      "velocity": 127,
      "chip": "ym2612"
    },
    {
      "channel": 0,
      "note": 38,
      "start": 54.9923,
      "duration": 0.2077,
      "velocity": 107,
      "chip": "ym2612"
    },
    {
      "channel": 1,
      "note": 59,
      "start": 54.9928,
      "duration": 0.1194,
      "velocity": 103,
      "chip": "ym2612"
    },
    {
      "channel": 4,
      "note": 110,
      "start": 54.9935,
      "duration": 0.1214,
      "velocity": 127,
      "chip": "ym2612"
    },
    {
      "channel": 1,
      "note": 47,
      "start": 55.1123,
      "duration": 0.0883,
      "velocity": 103,
      "chip": "ym2612"
    },
    {
      "channel": 2,
      "note": 62,
      "start": 55.1129,
      "duration": 0.1835,
      "velocity": 111,
      "chip": "ym2612"
    },
    {
      "channel": 4,
      "note": 43,
      "start": 55.1151,
      "duration": 0.1841,
      "velocity": 107,
      "chip": "ym2612"
    },
    {
      "channel": 0,
      "note": 35,
      "start": 55.2002,
      "duration": 0.0951,
      "velocity": 107,
      "chip": "ym2612"
    },
    {
      "channel": 1,
      "note": 57,
      "start": 55.2007,
      "duration": 0.0951,
      "velocity": 103,
      "chip": "ym2612"
    },
    {
      "channel": 0,
      "note": 40,
      "start": 55.2955,
      "duration": 0.2398,
      "velocity": 107,
      "chip": "ym2612"
    },
    {
      "channel": 1,
      "note": 59,
      "start": 55.296,
      "duration": 0.1194,
      "velocity": 103,
      "chip": "ym2612"
    },
    {
      "channel": 2,
      "note": 59,
      "start": 55.2966,
      "duration": 0.2399,
      "velocity": 111,
      "chip": "ym2612"
    },
    {
      "channel": 3,
      "note": 66,
      "start": 55.2971,
      "duration": 0.2398,
      "velocity": 111,
      "chip": "ym2612"
    },
    {
      "channel": 4,
      "note": 110,
      "start": 55.2993,
      "duration": 0.1183,
      "velocity": 107,
      "chip": "ym2612"
    },
    {
      "channel": 5,
      "note": 96,
      "start": 55.2999,
      "duration": 0.4259,
      "velocity": 127,
      "chip": "ym2612"
    },
    {
      "channel": 1,
      "note": 45,
      "start": 55.4155,
      "duration": 0.1203,
      "velocity": 103,
      "chip": "ym2612"
    },
    {
      "channel": 4,
      "note": 110,
      "start": 55.4178,
      "duration": 0.1213,
      "velocity": 107,
      "chip": "ym2612"
    },
    {
      "channel": 0,
      "note": 35,
      "start": 55.5355,
      "duration": 0.1875,
      "velocity": 107,
      "chip": "ym2612"
    },
    {
      "channel": 1,
      "note": 47,
      "start": 55.5361,
      "duration": 0.0927,
      "velocity": 103,
      "chip": "ym2612"
    },
    {
      "channel": 2,
      "note": 69,
      "start": 55.5366,
      "duration": 0.1875,
      "velocity": 111,
      "chip": "ym2612"
    },
    {
      "channel": 3,
      "note": 62,
      "start": 55.5371,
      "duration": 0.1875,
      "velocity": 111,
      "chip": "ym2612"
    },
    {
      "channel": 4,
      "note": 110,
      "start": 55.5393,
      "duration": 0.0917,
      "velocity": 107,
      "chip": "ym2612"
    },
    {
      "channel": 1,
      "note": 59,
      "start": 55.6289,
      "duration": 0.0946,
      "velocity": 103,
      "chip": "ym2612"
    },
    {
      "channel": 4,
      "note": 110,
      "start": 55.6312,
      "duration": 0.0941,
      "velocity": 107,
      "chip": "ym2612"
    },
    {
      "channel": 0,
      "note": 35,
      "start": 55.7232,
      "duration": 0.4235,
      "velocity": 107,
      "chip": "ym2612"
    },
    {
      "channel": 1,
      "note": 47,
      "start": 55.7237,
      "duration": 0.1194,
      "velocity": 103,
      "chip": "ym2612"
    },
    {
      "channel": 2,
      "note": 68,
      "start": 55.7243,
      "duration": 0.1194,
      "velocity": 111,
      "chip": "ym2612"
    },
    {
      "channel": 3,
      "note": 59,
      "start": 55.7249,
      "duration": 0.2388,
      "velocity": 111,
      "chip": "ym2612"
    },
    {
      "channel": 4,
      "note": 110,
      "start": 55.7254,
      "duration": 0.1188,
      "velocity": 107,
      "chip": "ym2612"
    },
    {
      "channel": 5,
      "note": 96,
      "start": 55.726,
      "duration": 0.4246,
      "velocity": 127,
      "chip": "ym2612"
    },
    {
      "channel": 1,
      "note": 57,
      "start": 55.8432,
      "duration": 0.1198,
      "velocity": 103,
      "chip": "ym2612"
    },
    {
      "channel": 2,
      "note": 66,
      "start": 55.8438,
      "duration": 0.2083,
      "velocity": 111,
      "chip": "ym2612"
    },
    {
      "channel": 4,
      "note": 110,
      "start": 55.8444,
      "duration": 0.1214,
      "velocity": 127,
      "chip": "ym2612"
    },
    {
      "channel": 1,
      "note": 59,
      "start": 55.9632,
      "duration": 0.0883,
      "velocity": 103,
      "chip": "ym2612"
    },
    {
      "channel": 3,
      "note": 69,
      "start": 55.9638,
      "duration": 0.1841,
      "velocity": 111,
      "chip": "ym2612"
    },
    {
      "channel": 4,
      "note": 43,
      "start": 55.966,
      "duration": 0.184,
      "velocity": 107,
      "chip": "ym2612"
    },
    {
      "channel": 1,
      "note": 47,
      "start": 56.0517,
      "duration": 0.0956,
      "velocity": 103,
      "chip": "ym2612"
    },
    {
      "channel": 2,
      "note": 64,
      "start": 56.0522,
      "duration": 0.2155,
      "velocity": 111,
      "chip": "ym2612"
    },
    {
      "channel": 0,
      "note": 33,
      "start": 56.1468,
      "duration": 0.1198,
      "velocity": 107,
      "chip": "ym2612"
    },
    {
      "channel": 1,
      "note": 59,
      "start": 56.1474,
      "duration": 0.1198,
      "velocity": 103,
      "chip": "ym2612"
    },
    {
      "channel": 3,
      "note": 68,
      "start": 56.148,
      "duration": 0.1203,
      "velocity": 111,
      "chip": "ym2612"
    },
    {
      "channel": 4,
      "note": 110,
      "start": 56.1502,
      "duration": 0.1203,
      "velocity": 127,
      "chip": "ym2612"
    },
    {
      "channel": 5,
      "note": 96,
      "start": 56.1507,
      "duration": 0.4251,
      "velocity": 127,
      "chip": "ym2612"
    },
    {
      "channel": 0,
      "note": 35,
      "start": 56.2668,
      "duration": 0.1198,
      "velocity": 107,
      "chip": "ym2612"
    },
    {
      "channel": 1,
      "note": 47,
      "start": 56.2674,
      "duration": 0.1199,
      "velocity": 103,
      "chip": "ym2612"
    },
    {
      "channel": 2,
      "note": 69,
      "start": 56.2679,
      "duration": 0.212,
      "velocity": 111,
      "chip": "ym2612"
    },
    {
      "channel": 3,
      "note": 66,
      "start": 56.2685,
      "duration": 0.212,
      "velocity": 111,
      "chip": "ym2612"
    },
    {
      "channel": 4,
      "note": 43,
      "start": 56.2707,
      "duration": 0.1188,
      "velocity": 107,
      "chip": "ym2612"
    },
    {
      "channel": 0,
      "note": 38,
      "start": 56.3868,
      "duration": 0.1851,
      "velocity": 107,
      "chip": "ym2612"
    },
    {
      "channel": 1,
      "note": 57,
      "start": 56.3874,
      "duration": 0.0921,
      "velocity": 103,
      "chip": "ym2612"
    },
    {
      "channel": 4,
      "note": 110,
      "start": 56.3897,
      "duration": 0.093,
      "velocity": 127,
      "chip": "ym2612"
    },
    {
      "channel": 1,
      "note": 59,
      "start": 56.4795,
      "duration": 0.0929,
      "velocity": 103,
      "chip": "ym2612"
    },
    {
      "channel": 2,
      "note": 69,
      "start": 56.4801,
      "duration": 0.0929,
      "velocity": 111,
      "chip": "ym2612"
    },
    {
      "channel": 3,
      "note": 64,
      "start": 56.4807,
      "duration": 0.2124,
      "velocity": 111,
      "chip": "ym2612"
    },
    {
      "channel": 4,
      "note": 43,
      "start": 56.4829,
      "duration": 0.0924,
      "velocity": 107,
      "chip": "ym2612"
    },
    {
      "channel": 0,
      "note": 35,
      "start": 56.5721,
      "duration": 0.1198,
      "velocity": 107,
      "chip": "ym2612"
    },
    {
      "channel": 1,
      "note": 47,
      "start": 56.5727,
      "duration": 0.1198,
      "velocity": 103,
      "chip": "ym2612"
    },
    {
      "channel": 2,
      "note": 68,
      "start": 56.5732,
      "duration": 0.2394,
      "velocity": 111,
      "chip": "ym2612"
    },
    {
      "channel": 4,
      "note": 110,
      "start": 56.5754,
      "duration": 0.1182,
      "velocity": 107,
      "chip": "ym2612"
    },
    {
      "channel": 5,
      "note": 96,
      "start": 56.576,
      "duration": 0.4233,
      "velocity": 127,
      "chip": "ym2612"
    },
    {
      "channel": 0,
      "note": 38,
      "start": 56.6921,
      "duration": 0.2078,
      "velocity": 107,
      "chip": "ym2612"
    },
    {
      "channel": 1,
      "note": 59,
      "start": 56.6927,
      "duration": 0.1193,
      "velocity": 103,
      "chip": "ym2612"
    },
    {
      "channel": 3,
      "note": 69,
      "start": 56.6933,
      "duration": 0.2083,
      "velocity": 111,
      "chip": "ym2612"
    },
    {
      "channel": 4,
      "note": 110,
      "start": 56.6938,
      "duration": 0.1209,
      "velocity": 127,
      "chip": "ym2612"
    },
    {
      "channel": 1,
      "note": 47,
      "start": 56.8122,
      "duration": 0.0882,
      "velocity": 103,
      "chip": "ym2612"
    },
    {
      "channel": 2,
      "note": 66,
      "start": 56.8127,
      "duration": 0.0882,
      "velocity": 111,
      "chip": "ym2612"
    },
    {
      "channel": 4,
      "note": 43,
      "start": 56.8149,
      "duration": 0.1839,
      "velocity": 107,
      "chip": "ym2612"
    },
    {
      "channel": 0,
      "note": 35,
      "start": 56.9,
      "duration": 0.0949,
      "velocity": 107,
      "chip": "ym2612"
    },
    {
      "channel": 1,
      "note": 57,
      "start": 56.9006,
      "duration": 0.0949,
      "velocity": 103,
      "chip": "ym2612"
    },
    {
      "channel": 2,
      "note": 59,
      "start": 56.9012,
      "duration": 0.0949,
      "velocity": 111,
      "chip": "ym2612"
    },
    {
      "channel": 3,
      "note": 69,
      "start": 56.9017,
      "duration": 0.0949,
      "velocity": 111,
      "chip": "ym2612"
    },
    {
      "channel": 0,
      "note": 40,
      "start": 56.9951,
      "duration": 0.2084,
      "velocity": 107,
      "chip": "ym2612"
    },
    {
      "channel": 1,
      "note": 59,
      "start": 56.9956,
      "duration": 0.1194,
      "velocity": 103,
      "chip": "ym2612"
    },
    {
      "channel": 2,
      "note": 64,
      "start": 56.9962,
      "duration": 0.1194,
      "velocity": 111,
      "chip": "ym2612"
    },
    {
      "channel": 3,
      "note": 68,
      "start": 56.9968,
      "duration": 0.2079,
      "velocity": 111,
      "chip": "ym2612"
    },
    {
      "channel": 4,
      "note": 110,
      "start": 56.999,
      "duration": 0.1188,
      "velocity": 107,
      "chip": "ym2612"
    },
    {
      "channel": 5,
      "note": 96,
      "start": 56.9995,
      "duration": 0.3918,
      "velocity": 127,
      "chip": "ym2612"
    },
    {
      "channel": 1,
      "note": 45,
      "start": 57.1152,
      "duration": 0.0889,
      "velocity": 103,
      "chip": "ym2612"
    },
    {
      "channel": 2,
      "note": 66,
      "start": 57.1157,
      "duration": 3.4252,
      "velocity": 111,
      "chip": "ym2612"
    },
    {
      "channel": 4,
      "note": 110,
      "start": 57.1179,
      "duration": 0.0889,
      "velocity": 107,
      "chip": "ym2612"
    },
    {
      "channel": 0,
      "note": 35,
      "start": 57.2037,
      "duration": 0.1853,
      "velocity": 107,
      "chip": "ym2612"
    },
    {
      "channel": 1,
      "note": 47,
      "start": 57.2043,
      "duration": 0.092,
      "velocity": 103,
      "chip": "ym2612"
    },
    {
      "channel": 3,
      "note": 66,
      "start": 57.2049,
      "duration": 0.092,
      "velocity": 111,
      "chip": "ym2612"
    },
    {
      "channel": 4,
      "note": 110,
      "start": 57.2071,
      "duration": 0.092,
      "velocity": 107,
      "chip": "ym2612"
    },
    {
      "channel": 1,
      "note": 59,
      "start": 57.2965,
      "duration": 0.093,
      "velocity": 103,
      "chip": "ym2612"
    },
    {
      "channel": 3,
      "note": 59,
      "start": 57.2971,
      "duration": 0.0931,
      "velocity": 111,
      "chip": "ym2612"
    },
    {
      "channel": 4,
      "note": 110,
      "start": 57.2992,
      "duration": 0.0915,
      "velocity": 107,
      "chip": "ym2612"
    },
    {
      "channel": 0,
      "note": 35,
      "start": 57.3891,
      "duration": 0.4231,
      "velocity": 107,
      "chip": "ym2612"
    },
    {
      "channel": 1,
      "note": 47,
      "start": 57.3897,
      "duration": 0.1194,
      "velocity": 103,
      "chip": "ym2612"
    },
    {
      "channel": 3,
      "note": 64,
      "start": 57.3904,
      "duration": 0.1209,
      "velocity": 111,
      "chip": "ym2612"
    },
    {
      "channel": 4,
      "note": 110,
      "start": 57.3909,
      "duration": 0.121,
      "velocity": 107,
      "chip": "ym2612"
    },
    {
      "channel": 5,
      "note": 96,
      "start": 57.3915,
      "duration": 0.4242,
      "velocity": 127,
      "chip": "ym2612"
    },
    {
      "channel": 1,
      "note": 57,
      "start": 57.5093,
      "duration": 0.1198,
      "velocity": 103,
      "chip": "ym2612"
    },
    {
      "channel": 3,
      "note": 66,
      "start": 57.5115,
      "duration": 3.0316,
      "velocity": 1,
      "chip": "ym2612"
    },
    {
      "channel": 4,
      "note": 110,
      "start": 57.512,
      "duration": 0.1193,
      "velocity": 127,
      "chip": "ym2612"
    },
    {
      "channel": 1,
      "note": 59,
      "start": 57.6292,
      "duration": 0.0881,
      "velocity": 103,
      "chip": "ym2612"
    },
    {
      "channel": 4,
      "note": 43,
      "start": 57.6315,
      "duration": 0.1835,
      "velocity": 107,
      "chip": "ym2612"
    },
    {
      "channel": 1,
      "note": 47,
      "start": 57.7174,
      "duration": 0.0954,
      "velocity": 103,
      "chip": "ym2612"
    },
    {
      "channel": 0,
      "note": 33,
      "start": 57.8124,
      "duration": 0.1198,
      "velocity": 107,
      "chip": "ym2612"
    },
    {
      "channel": 1,
      "note": 59,
      "start": 57.813,
      "duration": 0.1198,
      "velocity": 103,
      "chip": "ym2612"
    },
    {
      "channel": 4,
      "note": 110,
      "start": 57.8152,
      "duration": 0.1198,
      "velocity": 107,
      "chip": "ym2612"
    },
    {
      "channel": 5,
      "note": 96,
      "start": 57.8158,
      "duration": 0.3931,
      "velocity": 127,
      "chip": "ym2612"
    },
    {
      "channel": 0,
      "note": 35,
      "start": 57.9324,
      "duration": 0.0886,
      "velocity": 107,
      "chip": "ym2612"
    },
    {
      "channel": 1,
      "note": 47,
      "start": 57.9329,
      "duration": 0.0886,
      "velocity": 103,
      "chip": "ym2612"
    },
    {
      "channel": 4,
      "note": 110,
      "start": 57.9352,
      "duration": 0.0886,
      "velocity": 107,
      "chip": "ym2612"
    },
    {
      "channel": 0,
      "note": 38,
      "start": 58.0211,
      "duration": 0.1859,
      "velocity": 107,
      "chip": "ym2612"
    },
    {
      "channel": 1,
      "note": 57,
      "start": 58.0217,
      "duration": 0.0924,
      "velocity": 103,
      "chip": "ym2612"
    },
    {
      "channel": 4,
      "note": 110,
      "start": 58.024,
      "duration": 0.0924,
      "velocity": 107,
      "chip": "ym2612"
    },
    {
      "channel": 1,
      "note": 59,
      "start": 58.1143,
      "duration": 0.0933,
      "velocity": 103,
      "chip": "ym2612"
    },
    {
      "channel": 4,
      "note": 110,
      "start": 58.1166,
      "duration": 0.0916,
      "velocity": 107,
      "chip": "ym2612"
    },
    {
      "channel": 0,
      "note": 35,
      "start": 58.2072,
      "duration": 0.1198,
      "velocity": 107,
      "chip": "ym2612"
    },
    {
      "channel": 1,
      "note": 47,
      "start": 58.2078,
      "duration": 0.1199,
      "velocity": 103,
      "chip": "ym2612"
    },
    {
      "channel": 4,
      "note": 110,
      "start": 58.2085,
      "duration": 0.1198,
      "velocity": 107,
      "chip": "ym2612"
    },
    {
      "channel": 5,
      "note": 96,
      "start": 58.209,
      "duration": 0.4248,
      "velocity": 127,
      "chip": "ym2612"
    },
    {
      "channel": 0,
      "note": 38,
      "start": 58.3272,
      "duration": 0.208,
      "velocity": 107,
      "chip": "ym2612"
    },
    {
      "channel": 1,
      "note": 59,
      "start": 58.3278,
      "duration": 0.1194,
      "velocity": 103,
      "chip": "ym2612"
    },
    {
      "channel": 4,
      "note": 110,
      "start": 58.3285,
      "duration": 0.1209,
      "velocity": 127,
      "chip": "ym2612"
    },
    {
      "channel": 1,
      "note": 47,
      "start": 58.4473,
      "duration": 0.0885,
      "velocity": 103,
      "chip": "ym2612"
    },
    {
      "channel": 4,
      "note": 43,
      "start": 58.4495,
      "duration": 0.1837,
      "velocity": 107,
      "chip": "ym2612"
    },
    {
      "channel": 0,
      "note": 35,
      "start": 58.5354,
      "duration": 0.0951,
      "velocity": 107,
      "chip": "ym2612"
    },
    {
      "channel": 1,
      "note": 57,
      "start": 58.536,
      "duration": 0.0951,
      "velocity": 103,
      "chip": "ym2612"
    },
    {
      "channel": 0,
      "note": 40,
      "start": 58.6307,
      "duration": 0.2398,
      "velocity": 107,
      "chip": "ym2612"
    },
    {
      "channel": 1,
      "note": 59,
      "start": 58.6312,
      "duration": 0.1194,
      "velocity": 103,
      "chip": "ym2612"
    },
    {
      "channel": 4,
      "note": 110,
      "start": 58.6335,
      "duration": 0.1193,
      "velocity": 107,
      "chip": "ym2612"
    },
    {
      "channel": 5,
      "note": 96,
      "start": 58.6341,
      "duration": 0.4239,
      "velocity": 127,
      "chip": "ym2612"
    },
    {
      "channel": 1,
      "note": 45,
      "start": 58.7507,
      "duration": 0.1203,
      "velocity": 103,
      "chip": "ym2612"
    },
    {
      "channel": 4,
      "note": 110,
      "start": 58.753,
      "duration": 0.1203,
      "velocity": 107,
      "chip": "ym2612"
    },
    {
      "channel": 0,
      "note": 35,
      "start": 58.8707,
      "duration": 0.1855,
      "velocity": 107,
      "chip": "ym2612"
    },
    {
      "channel": 1,
      "note": 47,
      "start": 58.8712,
      "duration": 0.0922,
      "velocity": 103,
      "chip": "ym2612"
    },
    {
      "channel": 4,
      "note": 110,
      "start": 58.8735,
      "duration": 0.0922,
      "velocity": 107,
      "chip": "ym2612"
    },
    {
      "channel": 1,
      "note": 59,
      "start": 58.9636,
      "duration": 0.0932,
      "velocity": 103,
      "chip": "ym2612"
    },
    {
      "channel": 4,
      "note": 110,
      "start": 58.9659,
      "duration": 0.0916,
      "velocity": 107,
      "chip": "ym2612"
    },
    {
      "channel": 0,
      "note": 35,
      "start": 59.0564,
      "duration": 0.423,
      "velocity": 107,
      "chip": "ym2612"
    },
    {
      "channel": 1,
      "note": 47,
      "start": 59.0569,
      "duration": 0.1194,
      "velocity": 103,
      "chip": "ym2612"
    },
    {
      "channel": 4,
      "note": 110,
      "start": 59.0576,
      "duration": 0.1194,
      "velocity": 107,
      "chip": "ym2612"
    },
    {
      "channel": 5,
      "note": 96,
      "start": 59.0582,
      "duration": 0.4246,
      "velocity": 127,
      "chip": "ym2612"
    },
    {
      "channel": 1,
      "note": 57,
      "start": 59.1764,
      "duration": 0.1198,
      "velocity": 103,
      "chip": "ym2612"
    },
    {
      "channel": 4,
      "note": 110,
      "start": 59.1771,
      "duration": 0.1214,
      "velocity": 127,
      "chip": "ym2612"
    },
    {
      "channel": 1,
      "note": 59,
      "start": 59.2964,
      "duration": 0.0877,
      "velocity": 103,
      "chip": "ym2612"
    },
    {
      "channel": 4,
      "note": 43,
      "start": 59.2987,
      "duration": 0.1835,
      "velocity": 107,
      "chip": "ym2612"
    },
    {
      "channel": 1,
      "note": 47,
      "start": 59.3842,
      "duration": 0.0958,
      "velocity": 103,
      "chip": "ym2612"
    },
    {
      "channel": 0,
      "note": 33,
      "start": 59.4795,
      "duration": 0.1198,
      "velocity": 107,
      "chip": "ym2612"
    },
    {
      "channel": 1,
      "note": 59,
      "start": 59.4801,
      "duration": 0.1198,
      "velocity": 103,
      "chip": "ym2612"
    },
    {
      "channel": 4,
      "note": 110,
      "start": 59.4824,
      "duration": 0.1198,
      "velocity": 127,
      "chip": "ym2612"
    },
    {
      "channel": 5,
      "note": 96,
      "start": 59.4829,
      "duration": 0.4264,
      "velocity": 127,
      "chip": "ym2612"
    },
    {
      "channel": 0,
      "note": 35,
      "start": 59.5995,
      "duration": 0.1198,
      "velocity": 107,
      "chip": "ym2612"
    },
    {
      "channel": 1,
      "note": 47,
      "start": 59.6001,
      "duration": 0.1198,
      "velocity": 103,
      "chip": "ym2612"
    },
    {
      "channel": 4,
      "note": 43,
      "start": 59.6024,
      "duration": 0.1198,
      "velocity": 107,
      "chip": "ym2612"
    },
    {
      "channel": 0,
      "note": 38,
      "start": 59.7195,
      "duration": 0.1864,
      "velocity": 107,
      "chip": "ym2612"
    },
    {
      "channel": 1,
      "note": 57,
      "start": 59.7201,
      "duration": 0.0921,
      "velocity": 103,
      "chip": "ym2612"
    },
    {
      "channel": 4,
      "note": 110,
      "start": 59.7224,
      "duration": 0.0921,
      "velocity": 127,
      "chip": "ym2612"
    },
    {
      "channel": 1,
      "note": 59,
      "start": 59.8124,
      "duration": 0.0942,
      "velocity": 103,
      "chip": "ym2612"
    },
    {
      "channel": 4,
      "note": 43,
      "start": 59.8146,
      "duration": 0.0942,
      "velocity": 107,
      "chip": "ym2612"
    },
    {
      "channel": 0,
      "note": 35,
      "start": 59.9062,
      "duration": 0.1198,
      "velocity": 107,
      "chip": "ym2612"
    },
    {
      "channel": 1,
      "note": 47,
      "start": 59.9067,
      "duration": 0.1199,
      "velocity": 103,
      "chip": "ym2612"
    },
    {
      "channel": 4,
      "note": 110,
      "start": 59.909,
      "duration": 0.1182,
      "velocity": 107,
      "chip": "ym2612"
    },
    {
      "channel": 5,
      "note": 96,
      "start": 59.9096,
      "duration": 0.4231,
      "velocity": 127,
      "chip": "ym2612"
    },
    {
      "channel": 0,
      "note": 38,
      "start": 60.0262,
      "duration": 0.208,
      "velocity": 107,
      "chip": "ym2612"
    },
    {
      "channel": 1,
      "note": 59,
      "start": 60.0267,
      "duration": 0.1194,
      "velocity": 103,
      "chip": "ym2612"
    },
    {
      "channel": 4,
      "note": 110,
      "start": 60.0274,
      "duration": 0.1209,
      "velocity": 127,
      "chip": "ym2612"
    },
    {
      "channel": 1,
      "note": 47,
      "start": 60.1462,
      "duration": 0.0885,
      "velocity": 103,
      "chip": "ym2612"
    },
    {
      "channel": 4,
      "note": 43,
      "start": 60.1485,
      "duration": 0.1835,
      "velocity": 107,
      "chip": "ym2612"
    },
    {
      "channel": 0,
      "note": 35,
      "start": 60.2344,
      "duration": 0.0948,
      "velocity": 107,
      "chip": "ym2612"
    },
    {
      "channel": 1,
      "note": 57,
      "start": 60.235,
      "duration": 0.0948,
      "velocity": 103,
      "chip": "ym2612"
    },
    {
      "channel": 0,
      "note": 40,
      "start": 60.3294,
      "duration": 0.2088,
      "velocity": 107,
      "chip": "ym2612"
    },
    {
      "channel": 1,
      "note": 59,
      "start": 60.33,
      "duration": 0.1194,
      "velocity": 103,
      "chip": "ym2612"
    },
    {
      "channel": 4,
      "note": 110,
      "start": 60.3322,
      "duration": 0.1194,
      "velocity": 127,
      "chip": "ym2612"
    },
    {
      "channel": 5,
      "note": 96,
      "start": 60.3328,
      "duration": 0.3929,
      "velocity": 127,
      "chip": "ym2612"
    },
    {
      "channel": 1,
      "note": 45,
      "start": 60.4494,
      "duration": 0.0893,
      "velocity": 103,
      "chip": "ym2612"
    },
    {
      "channel": 4,
      "note": 43,
      "start": 60.4517,
      "duration": 0.0935,
      "velocity": 107,
      "chip": "ym2612"
    },
    {
      "channel": 0,
      "note": 35,
      "start": 60.5383,
      "duration": 0.1855,
      "velocity": 107,
      "chip": "ym2612"
    },
    {
      "channel": 1,
      "note": 47,
      "start": 60.5389,
      "duration": 0.0924,
      "velocity": 103,
      "chip": "ym2612"
    },
    {
      "channel": 2,
      "note": 59,
      "start": 60.5411,
      "duration": 0.6084,
      "velocity": 111,
      "chip": "ym2612"
    },
    {
      "channel": 3,
      "note": 43,
      "start": 60.5432,
      "duration": 0.4244,
      "velocity": 111,
      "chip": "ym2612"
    },
    {
      "channel": 4,
      "note": 110,
      "start": 60.5454,
      "duration": 0.0882,
      "velocity": 107,
      "chip": "ym2612"
    },
    {
      "channel": 1,
      "note": 59,
      "start": 60.6315,
      "duration": 0.0929,
      "velocity": 103,
      "chip": "ym2612"
    },
    {
      "channel": 4,
      "note": 110,
      "start": 60.6338,
      "duration": 0.0912,
      "velocity": 107,
      "chip": "ym2612"
    },
    {
      "channel": 0,
      "note": 35,
      "start": 60.724,
      "duration": 0.4228,
      "velocity": 107,
      "chip": "ym2612"
    },
    {
      "channel": 1,
      "note": 47,
      "start": 60.7245,
      "duration": 0.1193,
      "velocity": 103,
      "chip": "ym2612"
    },
    {
      "channel": 4,
      "note": 110,
      "start": 60.7252,
      "duration": 0.1193,
      "velocity": 107,
      "chip": "ym2612"
    },
    {
      "channel": 5,
      "note": 96,
      "start": 60.7259,
      "duration": 0.4264,
      "velocity": 127,
      "chip": "ym2612"
    },
    {
      "channel": 1,
      "note": 57,
      "start": 60.844,
      "duration": 0.1198,
      "velocity": 103,
      "chip": "ym2612"
    },
    {
      "channel": 4,
      "note": 110,
      "start": 60.8446,
      "duration": 0.1252,
      "velocity": 127,
      "chip": "ym2612"
    },
    {
      "channel": 1,
      "note": 59,
      "start": 60.964,
      "duration": 0.0886,
      "velocity": 103,
      "chip": "ym2612"
    },
    {
      "channel": 3,
      "note": 59,
      "start": 60.9678,
      "duration": 0.5767,
      "velocity": 111,
      "chip": "ym2612"
    },
    {
      "channel": 4,
      "note": 43,
      "start": 60.97,
      "duration": 0.1817,
      "velocity": 107,
      "chip": "ym2612"
    },
    {
      "channel": 1,
      "note": 47,
      "start": 61.0528,
      "duration": 0.0945,
      "velocity": 103,
      "chip": "ym2612"
    },
    {
      "channel": 0,
      "note": 33,
      "start": 61.1469,
      "duration": 0.1199,
      "velocity": 107,
      "chip": "ym2612"
    },
    {
      "channel": 1,
      "note": 59,
      "start": 61.1475,
      "duration": 0.1198,
      "velocity": 103,
      "chip": "ym2612"
    },
    {
      "channel": 2,
      "note": 62,
      "start": 61.1497,
      "duration": 0.3943,
      "velocity": 111,
      "chip": "ym2612"
    },
    {
      "channel": 4,
      "note": 110,
      "start": 61.1518,
      "duration": 0.1178,
      "velocity": 107,
      "chip": "ym2612"
    },
    {
      "channel": 5,
      "note": 96,
      "start": 61.1525,
      "duration": 0.3932,
      "velocity": 127,
      "chip": "ym2612"
    },
    {
      "channel": 0,
      "note": 35,
      "start": 61.2669,
      "duration": 0.0888,
      "velocity": 107,
      "chip": "ym2612"
    },
    {
      "channel": 1,
      "note": 47,
      "start": 61.2675,
      "duration": 0.0888,
      "velocity": 103,
      "chip": "ym2612"
    },
    {
      "channel": 4,
      "note": 110,
      "start": 61.2698,
      "duration": 0.0887,
      "velocity": 107,
      "chip": "ym2612"
    },
    {
      "channel": 0,
      "note": 38,
      "start": 61.3559,
      "duration": 0.187,
      "velocity": 107,
      "chip": "ym2612"
    },
    {
      "channel": 1,
      "note": 57,
      "start": 61.3564,
      "duration": 0.0935,
      "velocity": 103,
      "chip": "ym2612"
    },
    {
      "channel": 4,
      "note": 110,
      "start": 61.3587,
      "duration": 0.0936,
      "velocity": 107,
      "chip": "ym2612"
    },
    {
      "channel": 1,
      "note": 59,
      "start": 61.4502,
      "duration": 0.0933,
      "velocity": 103,
      "chip": "ym2612"
    },
    {
      "channel": 4,
      "note": 110,
      "start": 61.4524,
      "duration": 0.0927,
      "velocity": 107,
      "chip": "ym2612"
    },
    {
      "channel": 0,
      "note": 35,
      "start": 61.5431,
      "duration": 0.1198,
      "velocity": 107,
      "chip": "ym2612"
    },
    {
      "channel": 1,
      "note": 47,
      "start": 61.5436,
      "duration": 0.1199,
      "velocity": 103,
      "chip": "ym2612"
    },
    {
      "channel": 2,
      "note": 66,
      "start": 61.5441,
      "duration": 0.2393,
      "velocity": 111,
      "chip": "ym2612"
    },
    {
      "channel": 3,
      "note": 62,
      "start": 61.5447,
      "duration": 0.4227,
      "velocity": 111,
      "chip": "ym2612"
    },
    {
      "channel": 4,
      "note": 110,
      "start": 61.5453,
      "duration": 0.1188,
      "velocity": 107,
      "chip": "ym2612"
    },
    {
      "channel": 5,
      "note": 96,
      "start": 61.5459,
      "duration": 0.4243,
      "velocity": 127,
      "chip": "ym2612"
    },
    {
      "channel": 0,
      "note": 38,
      "start": 61.6631,
      "duration": 0.2077,
      "velocity": 107,
      "chip": "ym2612"
    },
    {
      "channel": 1,
      "note": 59,
      "start": 61.6636,
      "duration": 0.1194,
      "velocity": 103,
      "chip": "ym2612"
    },
    {
      "channel": 4,
      "note": 110,
      "start": 61.6643,
      "duration": 0.1214,
      "velocity": 127,
      "chip": "ym2612"
    },
    {
      "channel": 1,
      "note": 47,
      "start": 61.7831,
      "duration": 0.0882,
      "velocity": 103,
      "chip": "ym2612"
    },
    {
      "channel": 2,
      "note": 62,
      "start": 61.7837,
      "duration": 0.1833,
      "velocity": 111,
      "chip": "ym2612"
    },
    {
      "channel": 4,
      "note": 43,
      "start": 61.7858,
      "duration": 0.1838,
      "velocity": 107,
      "chip": "ym2612"
    },
    {
      "channel": 0,
      "note": 35,
      "start": 61.8709,
      "duration": 0.0949,
      "velocity": 107,
      "chip": "ym2612"
    },
    {
      "channel": 1,
      "note": 57,
      "start": 61.8714,
      "duration": 0.0949,
      "velocity": 103,
      "chip": "ym2612"
    },
    {
      "channel": 0,
      "note": 40,
      "start": 61.966,
      "duration": 0.2398,
      "velocity": 107,
      "chip": "ym2612"
    },
    {
      "channel": 1,
      "note": 59,
      "start": 61.9666,
      "duration": 0.1193,
      "velocity": 103,
      "chip": "ym2612"
    },
    {
      "channel": 2,
      "note": 59,
      "start": 61.9671,
      "duration": 0.2399,
      "velocity": 111,
      "chip": "ym2612"
    },
    {
      "channel": 3,
      "note": 66,
      "start": 61.9676,
      "duration": 0.2398,
      "velocity": 111,
      "chip": "ym2612"
    },
    {
      "channel": 4,
      "note": 110,
      "start": 61.9698,
      "duration": 0.1183,
      "velocity": 107,
      "chip": "ym2612"
    },
    {
      "channel": 5,
      "note": 96,
      "start": 61.9704,
      "duration": 0.4251,
      "velocity": 127,
      "chip": "ym2612"
    },
    {
      "channel": 1,
      "note": 45,
      "start": 62.086,
      "duration": 0.1203,
      "velocity": 103,
      "chip": "ym2612"
    },
    {
      "channel": 4,
      "note": 110,
      "start": 62.0883,
      "duration": 0.1213,
      "velocity": 107,
      "chip": "ym2612"
    },
    {
      "channel": 0,
      "note": 35,
      "start": 62.206,
      "duration": 0.1867,
      "velocity": 107,
      "chip": "ym2612"
    },
    {
      "channel": 1,
      "note": 47,
      "start": 62.2066,
      "duration": 0.093,
      "velocity": 103,
      "chip": "ym2612"
    },
    {
      "channel": 2,
      "note": 69,
      "start": 62.2071,
      "duration": 0.1867,
      "velocity": 111,
      "chip": "ym2612"
    },
    {
      "channel": 3,
      "note": 62,
      "start": 62.2076,
      "duration": 0.1866,
      "velocity": 111,
      "chip": "ym2612"
    },
    {
      "channel": 4,
      "note": 110,
      "start": 62.2098,
      "duration": 0.092,
      "velocity": 107,
      "chip": "ym2612"
    },
    {
      "channel": 1,
      "note": 59,
      "start": 62.2998,
      "duration": 0.0934,
      "velocity": 103,
      "chip": "ym2612"
    },
    {
      "channel": 4,
      "note": 110,
      "start": 62.302,
      "duration": 0.0928,
      "velocity": 107,
      "chip": "ym2612"
    },
    {
      "channel": 0,
      "note": 35,
      "start": 62.3928,
      "duration": 0.4229,
      "velocity": 107,
      "chip": "ym2612"
    },
    {
      "channel": 1,
      "note": 47,
      "start": 62.3934,
      "duration": 0.1193,
      "velocity": 103,
      "chip": "ym2612"
    },
    {
      "channel": 2,
      "note": 68,
      "start": 62.3939,
      "duration": 0.1194,
      "velocity": 111,
      "chip": "ym2612"
    },
    {
      "channel": 3,
      "note": 59,
      "start": 62.3945,
      "duration": 0.2388,
      "velocity": 111,
      "chip": "ym2612"
    },
    {
      "channel": 4,
      "note": 110,
      "start": 62.3951,
      "duration": 0.1188,
      "velocity": 107,
      "chip": "ym2612"
    },
    {
      "channel": 5,
      "note": 96,
      "start": 62.3956,
      "duration": 0.424,
      "velocity": 127,
      "chip": "ym2612"
    },
    {
      "channel": 1,
      "note": 57,
      "start": 62.5129,
      "duration": 0.1198,
      "velocity": 103,
      "chip": "ym2612"
    },
    {
      "channel": 2,
      "note": 66,
      "start": 62.5134,
      "duration": 0.2077,
      "velocity": 111,
      "chip": "ym2612"
    },
    {
      "channel": 4,
      "note": 110,
      "start": 62.514,
      "duration": 0.1214,
      "velocity": 127,
      "chip": "ym2612"
    },
    {
      "channel": 1,
      "note": 59,
      "start": 62.6328,
      "duration": 0.0877,
      "velocity": 103,
      "chip": "ym2612"
    },
    {
      "channel": 3,
      "note": 69,
      "start": 62.6334,
      "duration": 0.1834,
      "velocity": 111,
      "chip": "ym2612"
    },
    {
      "channel": 4,
      "note": 43,
      "start": 62.6356,
      "duration": 0.1834,
      "velocity": 107,
      "chip": "ym2612"
    },
    {
      "channel": 1,
      "note": 47,
      "start": 62.7207,
      "duration": 0.0955,
      "velocity": 103,
      "chip": "ym2612"
    },
    {
      "channel": 2,
      "note": 64,
      "start": 62.7212,
      "duration": 0.2155,
      "velocity": 111,
      "chip": "ym2612"
    },
    {
      "channel": 0,
      "note": 33,
      "start": 62.8159,
      "duration": 0.1198,
      "velocity": 107,
      "chip": "ym2612"
    },
    {
      "channel": 1,
      "note": 59,
      "start": 62.8165,
      "duration": 0.1198,
      "velocity": 103,
      "chip": "ym2612"
    },
    {
      "channel": 3,
      "note": 68,
      "start": 62.817,
      "duration": 0.1203,
      "velocity": 111,
      "chip": "ym2612"
    },
    {
      "channel": 4,
      "note": 110,
      "start": 62.8192,
      "duration": 0.1203,
      "velocity": 127,
      "chip": "ym2612"
    },
    {
      "channel": 5,
      "note": 96,
      "start": 62.8198,
      "duration": 0.4254,
      "velocity": 127,
      "chip": "ym2612"
    },
    {
      "channel": 0,
      "note": 35,
      "start": 62.9359,
      "duration": 0.1198,
      "velocity": 107,
      "chip": "ym2612"
    },
    {
      "channel": 1,
      "note": 47,
      "start": 62.9364,
      "duration": 0.1199,
      "velocity": 103,
      "chip": "ym2612"
    },
    {
      "channel": 2,
      "note": 69,
      "start": 62.937,
      "duration": 0.2126,
      "velocity": 111,
      "chip": "ym2612"
    },
    {
      "channel": 3,
      "note": 66,
      "start": 62.9376,
      "duration": 0.2126,
      "velocity": 111,
      "chip": "ym2612"
    },
    {
      "channel": 4,
      "note": 43,
      "start": 62.9397,
      "duration": 0.1188,
      "velocity": 107,
      "chip": "ym2612"
    },
    {
      "channel": 0,
      "note": 38,
      "start": 63.0559,
      "duration": 0.1854,
      "velocity": 107,
      "chip": "ym2612"
    },
    {
      "channel": 1,
      "note": 57,
      "start": 63.0565,
      "duration": 0.0926,
      "velocity": 103,
      "chip": "ym2612"
    },
    {
      "channel": 4,
      "note": 110,
      "start": 63.0587,
      "duration": 0.0936,
      "velocity": 127,
      "chip": "ym2612"
    },
    {
      "channel": 1,
      "note": 59,
      "start": 63.1492,
      "duration": 0.0926,
      "velocity": 103,
      "chip": "ym2612"
    },
    {
      "channel": 2,
      "note": 69,
      "start": 63.1498,
      "duration": 0.0926,
      "velocity": 111,
      "chip": "ym2612"
    },
    {
      "channel": 3,
      "note": 64,
      "start": 63.1503,
      "duration": 0.2121,
      "velocity": 111,
      "chip": "ym2612"
    },
    {
      "channel": 4,
      "note": 43,
      "start": 63.1525,
      "duration": 0.0921,
      "velocity": 107,
      "chip": "ym2612"
    },
    {
      "channel": 0,
      "note": 35,
      "start": 63.2414,
      "duration": 0.1198,
      "velocity": 107,
      "chip": "ym2612"
    },
    {
      "channel": 1,
      "note": 47,
      "start": 63.242,
      "duration": 0.1198,
      "velocity": 103,
      "chip": "ym2612"
    },
    {
      "channel": 2,
      "note": 68,
      "start": 63.2425,
      "duration": 0.2394,
      "velocity": 111,
      "chip": "ym2612"
    },
    {
      "channel": 4,
      "note": 110,
      "start": 63.2447,
      "duration": 0.1182,
      "velocity": 107,
      "chip": "ym2612"
    },
    {
      "channel": 5,
      "note": 96,
      "start": 63.2453,
      "duration": 0.4237,
      "velocity": 127,
      "chip": "ym2612"
    },
    {
      "channel": 0,
      "note": 38,
      "start": 63.3614,
      "duration": 0.208,
      "velocity": 107,
      "chip": "ym2612"
    },
    {
      "channel": 1,
      "note": 59,
      "start": 63.362,
      "duration": 0.1193,
      "velocity": 103,
      "chip": "ym2612"
    },
    {
      "channel": 3,
      "note": 69,
      "start": 63.3626,
      "duration": 0.2085,
      "velocity": 111,
      "chip": "ym2612"
    },
    {
      "channel": 4,
      "note": 110,
      "start": 63.3631,
      "duration": 0.1209,
      "velocity": 127,
      "chip": "ym2612"
    },
    {
      "channel": 1,
      "note": 47,
      "start": 63.4815,
      "duration": 0.0885,
      "velocity": 103,
      "chip": "ym2612"
    },
    {
      "channel": 2,
      "note": 66,
      "start": 63.482,
      "duration": 0.0885,
      "velocity": 111,
      "chip": "ym2612"
    },
    {
      "channel": 4,
      "note": 43,
      "start": 63.4842,
      "duration": 0.1842,
      "velocity": 107,
      "chip": "ym2612"
    },
    {
      "channel": 0,
      "note": 35,
      "start": 63.5695,
      "duration": 0.095,
      "velocity": 107,
      "chip": "ym2612"
    },
    {
      "channel": 1,
      "note": 57,
      "start": 63.5701,
      "duration": 0.095,
      "velocity": 103,
      "chip": "ym2612"
    },
    {
      "channel": 2,
      "note": 59,
      "start": 63.5707,
      "duration": 0.0949,
      "velocity": 111,
      "chip": "ym2612"
    },
    {
      "channel": 3,
      "note": 69,
      "start": 63.5713,
      "duration": 0.0949,
      "velocity": 111,
      "chip": "ym2612"
    },
    {
      "channel": 0,
      "note": 40,
      "start": 63.6647,
      "duration": 0.2087,
      "velocity": 107,
      "chip": "ym2612"
    },
    {
      "channel": 1,
      "note": 59,
      "start": 63.6653,
      "duration": 0.1194,
      "velocity": 103,
      "chip": "ym2612"
    },
    {
      "channel": 2,
      "note": 64,
      "start": 63.6658,
      "duration": 0.1194,
      "velocity": 111,
      "chip": "ym2612"
    },
    {
      "channel": 3,
      "note": 68,
      "start": 63.6664,
      "duration": 0.2082,
      "velocity": 111,
      "chip": "ym2612"
    },
    {
      "channel": 4,
      "note": 110,
      "start": 63.6685,
      "duration": 0.1188,
      "velocity": 107,
      "chip": "ym2612"
    },
    {
      "channel": 5,
      "note": 96,
      "start": 63.6691,
      "duration": 0.3949,
      "velocity": 127,
      "chip": "ym2612"
    },
    {
      "channel": 1,
      "note": 45,
      "start": 63.7848,
      "duration": 0.0892,
      "velocity": 103,
      "chip": "ym2612"
    },
    {
      "channel": 2,
      "note": 66,
      "start": 63.7853,
      "duration": 3.4294,
      "velocity": 111,
      "chip": "ym2612"
    },
    {
      "channel": 4,
      "note": 110,
      "start": 63.7876,
      "duration": 0.0892,
      "velocity": 107,
      "chip": "ym2612"
    },
    {
      "channel": 0,
      "note": 35,
      "start": 63.8736,
      "duration": 0.1882,
      "velocity": 107,
      "chip": "ym2612"
    },
    {
      "channel": 1,
      "note": 47,
      "start": 63.8742,
      "duration": 0.0938,
      "velocity": 103,
      "chip": "ym2612"
    },
    {
      "channel": 3,
      "note": 66,
      "start": 63.8748,
      "duration": 0.0938,
      "velocity": 111,
      "chip": "ym2612"
    },
    {
      "channel": 4,
      "note": 110,
      "start": 63.8769,
      "duration": 0.0938,
      "velocity": 107,
      "chip": "ym2612"
    },
    {
      "channel": 1,
      "note": 59,
      "start": 63.9682,
      "duration": 0.0941,
      "velocity": 103,
      "chip": "ym2612"
    },
    {
      "channel": 3,
      "note": 59,
      "start": 63.9687,
      "duration": 0.0942,
      "velocity": 111,
      "chip": "ym2612"
    },
    {
      "channel": 4,
      "note": 110,
      "start": 63.9709,
      "duration": 0.0926,
      "velocity": 107,
      "chip": "ym2612"
    },
    {
      "channel": 0,
      "note": 35,
      "start": 64.0619,
      "duration": 0.4231,
      "velocity": 107,
      "chip": "ym2612"
    },
    {
      "channel": 1,
      "note": 47,
      "start": 64.0624,
      "duration": 0.1194,
      "velocity": 103,
      "chip": "ym2612"
    },
    {
      "channel": 3,
      "note": 64,
      "start": 64.0631,
      "duration": 0.1209,
      "velocity": 111,
      "chip": "ym2612"
    },
    {
      "channel": 4,
      "note": 110,
      "start": 64.0637,
      "duration": 0.1209,
      "velocity": 107,
      "chip": "ym2612"
    },
    {
      "channel": 5,
      "note": 96,
      "start": 64.0642,
      "duration": 0.4241,
      "velocity": 127,
      "chip": "ym2612"
    },
    {
      "channel": 1,
      "note": 57,
      "start": 64.182,
      "duration": 0.1198,
      "velocity": 103,
      "chip": "ym2612"
    },
    {
      "channel": 3,
      "note": 66,
      "start": 64.1842,
      "duration": 3.0327,
      "velocity": 1,
      "chip": "ym2612"
    },
    {
      "channel": 4,
      "note": 110,
      "start": 64.1847,
      "duration": 0.1193,
      "velocity": 127,
      "chip": "ym2612"
    },
    {
      "channel": 1,
      "note": 59,
      "start": 64.3019,
      "duration": 0.0879,
      "velocity": 103,
      "chip": "ym2612"
    },
    {
      "channel": 4,
      "note": 43,
      "start": 64.3042,
      "duration": 0.1836,
      "velocity": 107,
      "chip": "ym2612"
    },
    {
      "channel": 1,
      "note": 47,
      "start": 64.39,
      "duration": 0.0956,
      "velocity": 103,
      "chip": "ym2612"
    },
    {
      "channel": 0,
      "note": 33,
      "start": 64.4852,
      "duration": 0.1198,
      "velocity": 107,
      "chip": "ym2612"
    },
    {
      "channel": 1,
      "note": 59,
      "start": 64.4857,
      "duration": 0.1199,
      "velocity": 103,
      "chip": "ym2612"
    },
    {
      "channel": 4,
      "note": 110,
      "start": 64.488,
      "duration": 0.1198,
      "velocity": 107,
      "chip": "ym2612"
    },
    {
      "channel": 5,
      "note": 96,
      "start": 64.4886,
      "duration": 0.3924,
      "velocity": 127,
      "chip": "ym2612"
    },
    {
      "channel": 0,
      "note": 35,
      "start": 64.6052,
      "duration": 0.0887,
      "velocity": 107,
      "chip": "ym2612"
    },
    {
      "channel": 1,
      "note": 47,
      "start": 64.6058,
      "duration": 0.0886,
      "velocity": 103,
      "chip": "ym2612"
    },
    {
      "channel": 4,
      "note": 110,
      "start": 64.608,
      "duration": 0.0887,
      "velocity": 107,
      "chip": "ym2612"
    },
    {
      "channel": 0,
      "note": 38,
      "start": 64.6939,
      "duration": 0.1852,
      "velocity": 107,
      "chip": "ym2612"
    },
    {
      "channel": 1,
      "note": 57,
      "start": 64.6945,
      "duration": 0.0918,
      "velocity": 103,
      "chip": "ym2612"
    },
    {
      "channel": 4,
      "note": 110,
      "start": 64.6968,
      "duration": 0.0917,
      "velocity": 107,
      "chip": "ym2612"
    },
    {
      "channel": 1,
      "note": 59,
      "start": 64.7864,
      "duration": 0.0933,
      "velocity": 103,
      "chip": "ym2612"
    },
    {
      "channel": 4,
      "note": 110,
      "start": 64.7887,
      "duration": 0.0917,
      "velocity": 107,
      "chip": "ym2612"
    },
    {
      "channel": 0,
      "note": 35,
      "start": 64.8793,
      "duration": 0.1198,
      "velocity": 107,
      "chip": "ym2612"
    },
    {
      "channel": 1,
      "note": 47,
      "start": 64.8799,
      "duration": 0.1198,
      "velocity": 103,
      "chip": "ym2612"
    },
    {
      "channel": 4,
      "note": 110,
      "start": 64.8805,
      "duration": 0.1199,
      "velocity": 107,
      "chip": "ym2612"
    },
    {
      "channel": 5,
      "note": 96,
      "start": 64.8811,
      "duration": 0.4249,
      "velocity": 127,
      "chip": "ym2612"
    },
    {
      "channel": 0,
      "note": 38,
      "start": 64.9993,
      "duration": 0.208,
      "velocity": 107,
      "chip": "ym2612"
    },
    {
      "channel": 1,
      "note": 59,
      "start": 64.9999,
      "duration": 0.1193,
      "velocity": 103,
      "chip": "ym2612"
    },
    {
      "channel": 4,
      "note": 110,
      "start": 65.0005,
      "duration": 0.1209,
      "velocity": 127,
      "chip": "ym2612"
    },
    {
      "channel": 1,
      "note": 47,
      "start": 65.1194,
      "duration": 0.0885,
      "velocity": 103,
      "chip": "ym2612"
    },
    {
      "channel": 4,
      "note": 43,
      "start": 65.1216,
      "duration": 0.1838,
      "velocity": 107,
      "chip": "ym2612"
    },
    {
      "channel": 0,
      "note": 35,
      "start": 65.2075,
      "duration": 0.0951,
      "velocity": 107,
      "chip": "ym2612"
    },
    {
      "channel": 1,
      "note": 57,
      "start": 65.2081,
      "duration": 0.0951,
      "velocity": 103,
      "chip": "ym2612"
    },
    {
      "channel": 0,
      "note": 40,
      "start": 65.3028,
      "duration": 0.2398,
      "velocity": 107,
      "chip": "ym2612"
    },
    {
      "channel": 1,
      "note": 59,
      "start": 65.3033,
      "duration": 0.1194,
      "velocity": 103,
      "chip": "ym2612"
    },
    {
      "channel": 4,
      "note": 110,
      "start": 65.3056,
      "duration": 0.1193,
      "velocity": 107,
      "chip": "ym2612"
    },
    {
      "channel": 5,
      "note": 96,
      "start": 65.3062,
      "duration": 0.4255,
      "velocity": 127,
      "chip": "ym2612"
    },
    {
      "channel": 1,
      "note": 45,
      "start": 65.4229,
      "duration": 0.1203,
      "velocity": 103,
      "chip": "ym2612"
    },
    {
      "channel": 4,
      "note": 110,
      "start": 65.4251,
      "duration": 0.1203,
      "velocity": 107,
      "chip": "ym2612"
    },
    {
      "channel": 0,
      "note": 35,
      "start": 65.5428,
      "duration": 0.1871,
      "velocity": 107,
      "chip": "ym2612"
    },
    {
      "channel": 1,
      "note": 47,
      "start": 65.5433,
      "duration": 0.0936,
      "velocity": 103,
      "chip": "ym2612"
    },
    {
      "channel": 4,
      "note": 110,
      "start": 65.5456,
      "duration": 0.0935,
      "velocity": 107,
      "chip": "ym2612"
    },
    {
      "channel": 1,
      "note": 59,
      "start": 65.6371,
      "duration": 0.0933,
      "velocity": 103,
      "chip": "ym2612"
    },
    {
      "channel": 4,
      "note": 110,
      "start": 65.6393,
      "duration": 0.0917,
      "velocity": 107,
      "chip": "ym2612"
    },
    {
      "channel": 0,
      "note": 35,
      "start": 65.73,
      "duration": 0.423,
      "velocity": 107,
      "chip": "ym2612"
    },
    {
      "channel": 1,
      "note": 47,
      "start": 65.7306,
      "duration": 0.1193,
      "velocity": 103,
      "chip": "ym2612"
    },
    {
      "channel": 4,
      "note": 110,
      "start": 65.7313,
      "duration": 0.1193,
      "velocity": 107,
      "chip": "ym2612"
    },
    {
      "channel": 5,
      "note": 96,
      "start": 65.7319,
      "duration": 0.4246,
      "velocity": 127,
      "chip": "ym2612"
    },
    {
      "channel": 1,
      "note": 57,
      "start": 65.8501,
      "duration": 0.1198,
      "velocity": 103,
      "chip": "ym2612"
    },
    {
      "channel": 4,
      "note": 110,
      "start": 65.8507,
      "duration": 0.1214,
      "velocity": 127,
      "chip": "ym2612"
    },
    {
      "channel": 1,
      "note": 59,
      "start": 65.97,
      "duration": 0.0878,
      "velocity": 103,
      "chip": "ym2612"
    },
    {
      "channel": 4,
      "note": 43,
      "start": 65.9723,
      "duration": 0.1835,
      "velocity": 107,
      "chip": "ym2612"
    },
    {
      "channel": 1,
      "note": 47,
      "start": 66.058,
      "duration": 0.0955,
      "velocity": 103,
      "chip": "ym2612"
    },
    {
      "channel": 0,
      "note": 33,
      "start": 66.1532,
      "duration": 0.1198,
      "velocity": 107,
      "chip": "ym2612"
    },
    {
      "channel": 1,
      "note": 59,
      "start": 66.1538,
      "duration": 0.1198,
      "velocity": 103,
      "chip": "ym2612"
    },
    {
      "channel": 4,
      "note": 110,
      "start": 66.156,
      "duration": 0.1198,
      "velocity": 127,
      "chip": "ym2612"
    },
    {
      "channel": 5,
      "note": 96,
      "start": 66.1566,
      "duration": 0.4267,
      "velocity": 127,
      "chip": "ym2612"
    },
    {
      "channel": 0,
      "note": 35,
      "start": 66.2732,
      "duration": 0.1198,
      "velocity": 107,
      "chip": "ym2612"
    },
    {
      "channel": 1,
      "note": 47,
      "start": 66.2737,
      "duration": 0.1199,
      "velocity": 103,
      "chip": "ym2612"
    },
    {
      "channel": 4,
      "note": 43,
      "start": 66.276,
      "duration": 0.1198,
      "velocity": 107,
      "chip": "ym2612"
    },
    {
      "channel": 0,
      "note": 38,
      "start": 66.3932,
      "duration": 0.1867,
      "velocity": 107,
      "chip": "ym2612"
    },
    {
      "channel": 1,
      "note": 57,
      "start": 66.3937,
      "duration": 0.0923,
      "velocity": 103,
      "chip": "ym2612"
    },
    {
      "channel": 4,
      "note": 110,
      "start": 66.396,
      "duration": 0.0923,
      "velocity": 127,
      "chip": "ym2612"
    },
    {
      "channel": 1,
      "note": 59,
      "start": 66.4862,
      "duration": 0.0942,
      "velocity": 103,
      "chip": "ym2612"
    },
    {
      "channel": 4,
      "note": 43,
      "start": 66.4885,
      "duration": 0.0942,
      "velocity": 107,
      "chip": "ym2612"
    },
    {
      "channel": 0,
      "note": 35,
      "start": 66.58,
      "duration": 0.1198,
      "velocity": 107,
      "chip": "ym2612"
    },
    {
      "channel": 1,
      "note": 47,
      "start": 66.5806,
      "duration": 0.1198,
      "velocity": 103,
      "chip": "ym2612"
    },
    {
      "channel": 4,
      "note": 110,
      "start": 66.5829,
      "duration": 0.1182,
      "velocity": 107,
      "chip": "ym2612"
    },
    {
      "channel": 5,
      "note": 96,
      "start": 66.5834,
      "duration": 0.423,
      "velocity": 127,
      "chip": "ym2612"
    },
    {
      "channel": 0,
      "note": 38,
      "start": 66.7,
      "duration": 0.2082,
      "velocity": 107,
      "chip": "ym2612"
    },
    {
      "channel": 1,
      "note": 59,
      "start": 66.7006,
      "duration": 0.1193,
      "velocity": 103,
      "chip": "ym2612"
    },
    {
      "channel": 4,
      "note": 110,
      "start": 66.7012,
      "duration": 0.1209,
      "velocity": 127,
      "chip": "ym2612"
    },
    {
      "channel": 1,
      "note": 47,
      "start": 66.82,
      "duration": 0.0887,
      "velocity": 103,
      "chip": "ym2612"
    },
    {
      "channel": 4,
      "note": 43,
      "start": 66.8223,
      "duration": 0.1836,
      "velocity": 107,
      "chip": "ym2612"
    },
    {
      "channel": 0,
      "note": 35,
      "start": 66.9083,
      "duration": 0.0948,
      "velocity": 107,
      "chip": "ym2612"
    },
    {
      "channel": 1,
      "note": 57,
      "start": 66.9088,
      "duration": 0.0948,
      "velocity": 103,
      "chip": "ym2612"
    },
    {
      "channel": 0,
      "note": 40,
      "start": 67.0033,
      "duration": 0.2086,
      "velocity": 107,
      "chip": "ym2612"
    },
    {
      "channel": 1,
      "note": 59,
      "start": 67.0038,
      "duration": 0.1194,
      "velocity": 103,
      "chip": "ym2612"
    },
    {
      "channel": 4,
      "note": 110,
      "start": 67.0061,
      "duration": 0.1194,
      "velocity": 127,
      "chip": "ym2612"
    },
    {
      "channel": 5,
      "note": 96,
      "start": 67.0067,
      "duration": 0.3942,
      "velocity": 127,
      "chip": "ym2612"
    },
    {
      "channel": 1,
      "note": 45,
      "start": 67.1234,
      "duration": 0.0891,
      "velocity": 103,
      "chip": "ym2612"
    },
    {
      "channel": 4,
      "note": 43,
      "start": 67.1257,
      "duration": 0.0933,
      "velocity": 107,
      "chip": "ym2612"
    },
    {
      "channel": 0,
      "note": 37,
      "start": 67.2121,
      "duration": 0.187,
      "velocity": 107,
      "chip": "ym2612"
    },
    {
      "channel": 1,
      "note": 49,
      "start": 67.2127,
      "duration": 0.0937,
      "velocity": 103,
      "chip": "ym2612"
    },
    {
      "channel": 2,
      "note": 61,
      "start": 67.2148,
      "duration": 0.6103,
      "velocity": 111,
      "chip": "ym2612"
    },
    {
      "channel": 3,
      "note": 45,
      "start": 67.217,
      "duration": 0.4259,
      "velocity": 111,
      "chip": "ym2612"
    },
    {
      "channel": 4,
      "note": 110,
      "start": 67.2192,
      "duration": 0.0911,
      "velocity": 107,
      "chip": "ym2612"
    },
    {
      "channel": 1,
      "note": 61,
      "start": 67.3066,
      "duration": 0.093,
      "velocity": 103,
      "chip": "ym2612"
    },
    {
      "channel": 4,
      "note": 110,
      "start": 67.3104,
      "duration": 0.0898,
      "velocity": 107,
      "chip": "ym2612"
    },
    {
      "channel": 0,
      "note": 37,
      "start": 67.3992,
      "duration": 0.4232,
      "velocity": 107,
      "chip": "ym2612"
    },
    {
      "channel": 1,
      "note": 49,
      "start": 67.3998,
      "duration": 0.1193,
      "velocity": 103,
      "chip": "ym2612"
    },
    {
      "channel": 4,
      "note": 110,
      "start": 67.4005,
      "duration": 0.1193,
      "velocity": 107,
      "chip": "ym2612"
    },
    {
      "channel": 5,
      "note": 96,
      "start": 67.4011,
      "duration": 0.4269,
      "velocity": 127,
      "chip": "ym2612"
    },
    {
      "channel": 1,
      "note": 59,
      "start": 67.5193,
      "duration": 0.1198,
      "velocity": 103,
      "chip": "ym2612"
    },
    {
      "channel": 4,
      "note": 110,
      "start": 67.52,
      "duration": 0.1251,
      "velocity": 127,
      "chip": "ym2612"
    },
    {
      "channel": 1,
      "note": 61,
      "start": 67.6393,
      "duration": 0.0886,
      "velocity": 103,
      "chip": "ym2612"
    },
    {
      "channel": 3,
      "note": 61,
      "start": 67.6431,
      "duration": 0.5762,
      "velocity": 111,
      "chip": "ym2612"
    },
    {
      "channel": 4,
      "note": 43,
      "start": 67.6452,
      "duration": 0.1822,
      "velocity": 107,
      "chip": "ym2612"
    },
    {
      "channel": 1,
      "note": 49,
      "start": 67.728,
      "duration": 0.0949,
      "velocity": 103,
      "chip": "ym2612"
    },
    {
      "channel": 0,
      "note": 35,
      "start": 67.8225,
      "duration": 0.1199,
      "velocity": 107,
      "chip": "ym2612"
    },
    {
      "channel": 1,
      "note": 61,
      "start": 67.8231,
      "duration": 0.1198,
      "velocity": 103,
      "chip": "ym2612"
    },
    {
      "channel": 2,
      "note": 64,
      "start": 67.8253,
      "duration": 0.3934,
      "velocity": 111,
      "chip": "ym2612"
    },
    {
      "channel": 4,
      "note": 110,
      "start": 67.8275,
      "duration": 0.1177,
      "velocity": 107,
      "chip": "ym2612"
    },
    {
      "channel": 5,
      "note": 96,
      "start": 67.8282,
      "duration": 0.3922,
      "velocity": 127,
      "chip": "ym2612"
    },
    {
      "channel": 0,
      "note": 37,
      "start": 67.9425,
      "duration": 0.0886,
      "velocity": 107,
      "chip": "ym2612"
    },
    {
      "channel": 1,
      "note": 49,
      "start": 67.9431,
      "duration": 0.0885,
      "velocity": 103,
      "chip": "ym2612"
    },
    {
      "channel": 4,
      "note": 110,
      "start": 67.9454,
      "duration": 0.0886,
      "velocity": 107,
      "chip": "ym2612"
    },
    {
      "channel": 0,
      "note": 40,
      "start": 68.0313,
      "duration": 0.1863,
      "velocity": 107,
      "chip": "ym2612"
    },
    {
      "channel": 1,
      "note": 59,
      "start": 68.0318,
      "duration": 0.092,
      "velocity": 103,
      "chip": "ym2612"
    },
    {
      "channel": 4,
      "note": 110,
      "start": 68.0341,
      "duration": 0.092,
      "velocity": 107,
      "chip": "ym2612"
    },
    {
      "channel": 1,
      "note": 61,
      "start": 68.124,
      "duration": 0.0942,
      "velocity": 103,
      "chip": "ym2612"
    },
    {
      "channel": 4,
      "note": 110,
      "start": 68.1263,
      "duration": 0.0935,
      "velocity": 107,
      "chip": "ym2612"
    },
    {
      "channel": 0,
      "note": 37,
      "start": 68.2178,
      "duration": 0.1198,
      "velocity": 107,
      "chip": "ym2612"
    },
    {
      "channel": 1,
      "note": 49,
      "start": 68.2183,
      "duration": 0.1199,
      "velocity": 103,
      "chip": "ym2612"
    },
    {
      "channel": 2,
      "note": 68,
      "start": 68.2189,
      "duration": 0.2393,
      "velocity": 111,
      "chip": "ym2612"
    },
    {
      "channel": 3,
      "note": 64,
      "start": 68.2195,
      "duration": 0.4229,
      "velocity": 111,
      "chip": "ym2612"
    },
    {
      "channel": 4,
      "note": 110,
      "start": 68.22,
      "duration": 0.1188,
      "velocity": 107,
      "chip": "ym2612"
    },
    {
      "channel": 5,
      "note": 96,
      "start": 68.2206,
      "duration": 0.4245,
      "velocity": 127,
      "chip": "ym2612"
    },
    {
      "channel": 0,
      "note": 40,
      "start": 68.3378,
      "duration": 0.208,
      "velocity": 107,
      "chip": "ym2612"
    },
    {
      "channel": 1,
      "note": 61,
      "start": 68.3384,
      "duration": 0.1193,
      "velocity": 103,
      "chip": "ym2612"
    },
    {
      "channel": 4,
      "note": 110,
      "start": 68.339,
      "duration": 0.1214,
      "velocity": 127,
      "chip": "ym2612"
    },
    {
      "channel": 1,
      "note": 49,
      "start": 68.4578,
      "duration": 0.0885,
      "velocity": 103,
      "chip": "ym2612"
    },
    {
      "channel": 2,
      "note": 64,
      "start": 68.4584,
      "duration": 0.1834,
      "velocity": 111,
      "chip": "ym2612"
    },
    {
      "channel": 4,
      "note": 43,
      "start": 68.4605,
      "duration": 0.184,
      "velocity": 107,
      "chip": "ym2612"
    },
    {
      "channel": 0,
      "note": 37,
      "start": 68.5459,
      "duration": 0.0948,
      "velocity": 107,
      "chip": "ym2612"
    },
    {
      "channel": 1,
      "note": 59,
      "start": 68.5464,
      "duration": 0.0948,
      "velocity": 103,
      "chip": "ym2612"
    },
    {
      "channel": 0,
      "note": 42,
      "start": 68.6408,
      "duration": 0.2398,
      "velocity": 107,
      "chip": "ym2612"
    },
    {
      "channel": 1,
      "note": 61,
      "start": 68.6414,
      "duration": 0.1193,
      "velocity": 103,
      "chip": "ym2612"
    },
    {
      "channel": 2,
      "note": 61,
      "start": 68.6419,
      "duration": 0.2398,
      "velocity": 111,
      "chip": "ym2612"
    },
    {
      "channel": 3,
      "note": 68,
      "start": 68.6425,
      "duration": 0.2398,
      "velocity": 111,
      "chip": "ym2612"
    },
    {
      "channel": 4,
      "note": 110,
      "start": 68.6447,
      "duration": 0.1183,
      "velocity": 107,
      "chip": "ym2612"
    },
    {
      "channel": 5,
      "note": 96,
      "start": 68.6453,
      "duration": 0.4245,
      "velocity": 127,
      "chip": "ym2612"
    },
    {
      "channel": 1,
      "note": 47,
      "start": 68.7609,
      "duration": 0.1203,
      "velocity": 103,
      "chip": "ym2612"
    },
    {
      "channel": 4,
      "note": 110,
      "start": 68.7632,
      "duration": 0.1213,
      "velocity": 107,
      "chip": "ym2612"
    },
    {
      "channel": 0,
      "note": 37,
      "start": 68.8808,
      "duration": 0.1861,
      "velocity": 107,
      "chip": "ym2612"
    },
    {
      "channel": 1,
      "note": 49,
      "start": 68.8814,
      "duration": 0.0926,
      "velocity": 103,
      "chip": "ym2612"
    },
    {
      "channel": 2,
      "note": 71,
      "start": 68.8819,
      "duration": 0.1862,
      "velocity": 111,
      "chip": "ym2612"
    },
    {
      "channel": 3,
      "note": 64,
      "start": 68.8825,
      "duration": 0.1861,
      "velocity": 111,
      "chip": "ym2612"
    },
    {
      "channel": 4,
      "note": 110,
      "start": 68.8846,
      "duration": 0.0915,
      "velocity": 107,
      "chip": "ym2612"
    },
    {
      "channel": 1,
      "note": 61,
      "start": 68.9741,
      "duration": 0.0934,
      "velocity": 103,
      "chip": "ym2612"
    },
    {
      "channel": 4,
      "note": 110,
      "start": 68.9764,
      "duration": 0.0928,
      "velocity": 107,
      "chip": "ym2612"
    },
    {
      "channel": 0,
      "note": 37,
      "start": 69.0672,
      "duration": 0.423,
      "velocity": 107,
      "chip": "ym2612"
    },
    {
      "channel": 1,
      "note": 49,
      "start": 69.0678,
      "duration": 0.1193,
      "velocity": 103,
      "chip": "ym2612"
    },
    {
      "channel": 2,
      "note": 70,
      "start": 69.0683,
      "duration": 0.1194,
      "velocity": 111,
      "chip": "ym2612"
    },
    {
      "channel": 3,
      "note": 61,
      "start": 69.0688,
      "duration": 0.2388,
      "velocity": 111,
      "chip": "ym2612"
    },
    {
      "channel": 4,
      "note": 110,
      "start": 69.0694,
      "duration": 0.1188,
      "velocity": 107,
      "chip": "ym2612"
    },
    {
      "channel": 5,
      "note": 96,
      "start": 69.07,
      "duration": 0.4241,
      "velocity": 127,
      "chip": "ym2612"
    },
    {
      "channel": 1,
      "note": 59,
      "start": 69.1872,
      "duration": 0.1198,
      "velocity": 103,
      "chip": "ym2612"
    },
    {
      "channel": 2,
      "note": 68,
      "start": 69.1878,
      "duration": 0.2078,
      "velocity": 111,
      "chip": "ym2612"
    },
    {
      "channel": 4,
      "note": 110,
      "start": 69.1884,
      "duration": 0.1214,
      "velocity": 127,
      "chip": "ym2612"
    },
    {
      "channel": 1,
      "note": 61,
      "start": 69.3072,
      "duration": 0.0879,
      "velocity": 103,
      "chip": "ym2612"
    },
    {
      "channel": 3,
      "note": 71,
      "start": 69.3078,
      "duration": 0.1835,
      "velocity": 111,
      "chip": "ym2612"
    },
    {
      "channel": 4,
      "note": 43,
      "start": 69.3099,
      "duration": 0.1835,
      "velocity": 107,
      "chip": "ym2612"
    },
    {
      "channel": 1,
      "note": 49,
      "start": 69.3952,
      "duration": 0.0955,
      "velocity": 103,
      "chip": "ym2612"
    },
    {
      "channel": 2,
      "note": 66,
      "start": 69.3958,
      "duration": 0.2155,
      "velocity": 111,
      "chip": "ym2612"
    },
    {
      "channel": 0,
      "note": 35,
      "start": 69.4903,
      "duration": 0.1198,
      "velocity": 107,
      "chip": "ym2612"
    },
    {
      "channel": 1,
      "note": 61,
      "start": 69.4909,
      "duration": 0.1198,
      "velocity": 103,
      "chip": "ym2612"
    },
    {
      "channel": 3,
      "note": 70,
      "start": 69.4915,
      "duration": 0.1203,
      "velocity": 111,
      "chip": "ym2612"
    },
    {
      "channel": 4,
      "note": 110,
      "start": 69.4937,
      "duration": 0.1203,
      "velocity": 127,
      "chip": "ym2612"
    },
    {
      "channel": 5,
      "note": 96,
      "start": 69.4942,
      "duration": 0.4252,
      "velocity": 127,
      "chip": "ym2612"
    },
    {
      "channel": 0,
      "note": 37,
      "start": 69.6103,
      "duration": 0.1198,
      "velocity": 107,
      "chip": "ym2612"
    },
    {
      "channel": 1,
      "note": 49,
      "start": 69.6109,
      "duration": 0.1198,
      "velocity": 103,
      "chip": "ym2612"
    },
    {
      "channel": 2,
      "note": 71,
      "start": 69.6114,
      "duration": 0.2125,
      "velocity": 111,
      "chip": "ym2612"
    },
    {
      "channel": 3,
      "note": 68,
      "start": 69.612,
      "duration": 0.2125,
      "velocity": 111,
      "chip": "ym2612"
    },
    {
      "channel": 4,
      "note": 43,
      "start": 69.6141,
      "duration": 0.1188,
      "velocity": 107,
      "chip": "ym2612"
    },
    {
      "channel": 0,
      "note": 40,
      "start": 69.7303,
      "duration": 0.1852,
      "velocity": 107,
      "chip": "ym2612"
    },
    {
      "channel": 1,
      "note": 59,
      "start": 69.7309,
      "duration": 0.0924,
      "velocity": 103,
      "chip": "ym2612"
    },
    {
      "channel": 4,
      "note": 110,
      "start": 69.7331,
      "duration": 0.0935,
      "velocity": 127,
      "chip": "ym2612"
    },
    {
      "channel": 1,
      "note": 61,
      "start": 69.8235,
      "duration": 0.0926,
      "velocity": 103,
      "chip": "ym2612"
    },
    {
      "channel": 2,
      "note": 71,
      "start": 69.8241,
      "duration": 0.0926,
      "velocity": 111,
      "chip": "ym2612"
    },
    {
      "channel": 3,
      "note": 66,
      "start": 69.8246,
      "duration": 0.2121,
      "velocity": 111,
      "chip": "ym2612"
    },
    {
      "channel": 4,
      "note": 43,
      "start": 69.8268,
      "duration": 0.0921,
      "velocity": 107,
      "chip": "ym2612"
    },
    {
      "channel": 0,
      "note": 37,
      "start": 69.9157,
      "duration": 0.1198,
      "velocity": 107,
      "chip": "ym2612"
    },
    {
      "channel": 1,
      "note": 49,
      "start": 69.9163,
      "duration": 0.1198,
      "velocity": 103,
      "chip": "ym2612"
    },
    {
      "channel": 2,
      "note": 70,
      "start": 69.9168,
      "duration": 0.2394,
      "velocity": 111,
      "chip": "ym2612"
    },
    {
      "channel": 4,
      "note": 110,
      "start": 69.9191,
      "duration": 0.1182,
      "velocity": 107,
      "chip": "ym2612"
    },
    {
      "channel": 5,
      "note": 96,
      "start": 69.9196,
      "duration": 0.4238,
      "velocity": 127,
      "chip": "ym2612"
    },
    {
      "channel": 0,
      "note": 40,
      "start": 70.0357,
      "duration": 0.2078,
      "velocity": 107,
      "chip": "ym2612"
    },
    {
      "channel": 1,
      "note": 61,
      "start": 70.0363,
      "duration": 0.1193,
      "velocity": 103,
      "chip": "ym2612"
    },
    {
      "channel": 3,
      "note": 71,
      "start": 70.0369,
      "duration": 0.2083,
      "velocity": 111,
      "chip": "ym2612"
    },
    {
      "channel": 4,
      "note": 110,
      "start": 70.0375,
      "duration": 0.1209,
      "velocity": 127,
      "chip": "ym2612"
    },
    {
      "channel": 1,
      "note": 49,
      "start": 70.1558,
      "duration": 0.0882,
      "velocity": 103,
      "chip": "ym2612"
    },
    {
      "channel": 2,
      "note": 68,
      "start": 70.1564,
      "duration": 0.0883,
      "velocity": 111,
      "chip": "ym2612"
    },
    {
      "channel": 4,
      "note": 43,
      "start": 70.1585,
      "duration": 0.1843,
      "velocity": 107,
      "chip": "ym2612"
    },
    {
      "channel": 0,
      "note": 37,
      "start": 70.2437,
      "duration": 0.0954,
      "velocity": 107,
      "chip": "ym2612"
    },
    {
      "channel": 1,
      "note": 59,
      "start": 70.2442,
      "duration": 0.0954,
      "velocity": 103,
      "chip": "ym2612"
    },
    {
      "channel": 2,
      "note": 61,
      "start": 70.2448,
      "duration": 0.0953,
      "velocity": 111,
      "chip": "ym2612"
    },
    {
      "channel": 3,
      "note": 71,
      "start": 70.2454,
      "duration": 0.0953,
      "velocity": 111,
      "chip": "ym2612"
    },
    {
      "channel": 0,
      "note": 42,
      "start": 70.3392,
      "duration": 0.2086,
      "velocity": 107,
      "chip": "ym2612"
    },
    {
      "channel": 1,
      "note": 61,
      "start": 70.3398,
      "duration": 0.1194,
      "velocity": 103,
      "chip": "ym2612"
    },
    {
      "channel": 2,
      "note": 66,
      "start": 70.3403,
      "duration": 0.1194,
      "velocity": 111,
      "chip": "ym2612"
    },
    {
      "channel": 3,
      "note": 70,
      "start": 70.3409,
      "duration": 0.208,
      "velocity": 111,
      "chip": "ym2612"
    },
    {
      "channel": 4,
      "note": 110,
      "start": 70.3431,
      "duration": 0.1188,
      "velocity": 107,
      "chip": "ym2612"
    },
    {
      "channel": 5,
      "note": 96,
      "start": 70.3437,
      "duration": 0.3924,
      "velocity": 127,
      "chip": "ym2612"
    },
    {
      "channel": 1,
      "note": 47,
      "start": 70.4593,
      "duration": 0.089,
      "velocity": 103,
      "chip": "ym2612"
    },
    {
      "channel": 2,
      "note": 68,
      "start": 70.4598,
      "duration": 3.4273,
      "velocity": 111,
      "chip": "ym2612"
    },
    {
      "channel": 4,
      "note": 110,
      "start": 70.462,
      "duration": 0.0891,
      "velocity": 107,
      "chip": "ym2612"
    },
    {
      "channel": 0,
      "note": 37,
      "start": 70.5479,
      "duration": 0.1858,
      "velocity": 107,
      "chip": "ym2612"
    },
    {
      "channel": 1,
      "note": 49,
      "start": 70.5485,
      "duration": 0.0925,
      "velocity": 103,
      "chip": "ym2612"
    },
    {
      "channel": 3,
      "note": 68,
      "start": 70.5491,
      "duration": 0.0925,
      "velocity": 111,
      "chip": "ym2612"
    },
    {
      "channel": 4,
      "note": 110,
      "start": 70.5512,
      "duration": 0.0925,
      "velocity": 107,
      "chip": "ym2612"
    },
    {
      "channel": 1,
      "note": 61,
      "start": 70.6412,
      "duration": 0.093,
      "velocity": 103,
      "chip": "ym2612"
    },
    {
      "channel": 3,
      "note": 61,
      "start": 70.6418,
      "duration": 0.0931,
      "velocity": 111,
      "chip": "ym2612"
    },
    {
      "channel": 4,
      "note": 110,
      "start": 70.6439,
      "duration": 0.0915,
      "velocity": 107,
      "chip": "ym2612"
    },
    {
      "channel": 0,
      "note": 37,
      "start": 70.7339,
      "duration": 0.4231,
      "velocity": 107,
      "chip": "ym2612"
    },
    {
      "channel": 1,
      "note": 49,
      "start": 70.7344,
      "duration": 0.1194,
      "velocity": 103,
      "chip": "ym2612"
    },
    {
      "channel": 3,
      "note": 66,
      "start": 70.7351,
      "duration": 0.1209,
      "velocity": 111,
      "chip": "ym2612"
    },
    {
      "channel": 4,
      "note": 110,
      "start": 70.7356,
      "duration": 0.121,
      "velocity": 107,
      "chip": "ym2612"
    },
    {
      "channel": 5,
      "note": 96,
      "start": 70.7362,
      "duration": 0.4241,
      "velocity": 127,
      "chip": "ym2612"
    },
    {
      "channel": 1,
      "note": 59,
      "start": 70.854,
      "duration": 0.1198,
      "velocity": 103,
      "chip": "ym2612"
    },
    {
      "channel": 3,
      "note": 68,
      "start": 70.8562,
      "duration": 3.0331,
      "velocity": 1,
      "chip": "ym2612"
    },
    {
      "channel": 4,
      "note": 110,
      "start": 70.8567,
      "duration": 0.1193,
      "velocity": 127,
      "chip": "ym2612"
    },
    {
      "channel": 1,
      "note": 61,
      "start": 70.9739,
      "duration": 0.088,
      "velocity": 103,
      "chip": "ym2612"
    },
    {
      "channel": 4,
      "note": 43,
      "start": 70.9762,
      "duration": 0.1835,
      "velocity": 107,
      "chip": "ym2612"
    },
    {
      "channel": 1,
      "note": 49,
      "start": 71.0621,
      "duration": 0.0954,
      "velocity": 103,
      "chip": "ym2612"
    },
    {
      "channel": 0,
      "note": 35,
      "start": 71.1571,
      "duration": 0.1198,
      "velocity": 107,
      "chip": "ym2612"
    },
    {
      "channel": 1,
      "note": 61,
      "start": 71.1576,
      "duration": 0.1199,
      "velocity": 103,
      "chip": "ym2612"
    },
    {
      "channel": 4,
      "note": 110,
      "start": 71.1599,
      "duration": 0.1198,
      "velocity": 107,
      "chip": "ym2612"
    },
    {
      "channel": 5,
      "note": 96,
      "start": 71.1605,
      "duration": 0.3929,
      "velocity": 127,
      "chip": "ym2612"
    },
    {
      "channel": 0,
      "note": 37,
      "start": 71.2771,
      "duration": 0.0887,
      "velocity": 107,
      "chip": "ym2612"
    },
    {
      "channel": 1,
      "note": 49,
      "start": 71.2776,
      "duration": 0.0887,
      "velocity": 103,
      "chip": "ym2612"
    },
    {
      "channel": 4,
      "note": 110,
      "start": 71.2799,
      "duration": 0.0887,
      "velocity": 107,
      "chip": "ym2612"
    },
    {
      "channel": 0,
      "note": 40,
      "start": 71.3659,
      "duration": 0.1857,
      "velocity": 107,
      "chip": "ym2612"
    },
    {
      "channel": 1,
      "note": 59,
      "start": 71.3665,
      "duration": 0.0923,
      "velocity": 103,
      "chip": "ym2612"
    },
    {
      "channel": 4,
      "note": 110,
      "start": 71.3688,
      "duration": 0.0923,
      "velocity": 107,
      "chip": "ym2612"
    },
    {
      "channel": 1,
      "note": 61,
      "start": 71.459,
      "duration": 0.0932,
      "velocity": 103,
      "chip": "ym2612"
    },
    {
      "channel": 4,
      "note": 110,
      "start": 71.4613,
      "duration": 0.0916,
      "velocity": 107,
      "chip": "ym2612"
    },
    {
      "channel": 0,
      "note": 37,
      "start": 71.5518,
      "duration": 0.1198,
      "velocity": 107,
      "chip": "ym2612"
    },
    {
      "channel": 1,
      "note": 49,
      "start": 71.5523,
      "duration": 0.1199,
      "velocity": 103,
      "chip": "ym2612"
    },
    {
      "channel": 4,
      "note": 110,
      "start": 71.553,
      "duration": 0.1198,
      "velocity": 107,
      "chip": "ym2612"
    },
    {
      "channel": 5,
      "note": 96,
      "start": 71.5536,
      "duration": 0.4246,
      "velocity": 127,
      "chip": "ym2612"
    },
    {
      "channel": 0,
      "note": 40,
      "start": 71.6718,
      "duration": 0.2079,
      "velocity": 107,
      "chip": "ym2612"
    },
    {
      "channel": 1,
      "note": 61,
      "start": 71.6723,
      "duration": 0.1194,
      "velocity": 103,
      "chip": "ym2612"
    },
    {
      "channel": 4,
      "note": 110,
      "start": 71.673,
      "duration": 0.1209,
      "velocity": 127,
      "chip": "ym2612"
    },
    {
      "channel": 1,
      "note": 49,
      "start": 71.7919,
      "duration": 0.0884,
      "velocity": 103,
      "chip": "ym2612"
    },
    {
      "channel": 4,
      "note": 43,
      "start": 71.7941,
      "duration": 0.1835,
      "velocity": 107,
      "chip": "ym2612"
    },
    {
      "channel": 0,
      "note": 37,
      "start": 71.8799,
      "duration": 0.0949,
      "velocity": 107,
      "chip": "ym2612"
    },
    {
      "channel": 1,
      "note": 59,
      "start": 71.8805,
      "duration": 0.0949,
      "velocity": 103,
      "chip": "ym2612"
    },
    {
      "channel": 0,
      "note": 42,
      "start": 71.975,
      "duration": 0.2398,
      "velocity": 107,
      "chip": "ym2612"
    },
    {
      "channel": 1,
      "note": 61,
      "start": 71.9755,
      "duration": 0.1194,
      "velocity": 103,
      "chip": "ym2612"
    },
    {
      "channel": 4,
      "note": 110,
      "start": 71.9778,
      "duration": 0.1193,
      "velocity": 107,
      "chip": "ym2612"
    },
    {
      "channel": 5,
      "note": 96,
      "start": 71.9784,
      "duration": 0.425,
      "velocity": 127,
      "chip": "ym2612"
    },
    {
      "channel": 1,
      "note": 47,
      "start": 72.0951,
      "duration": 0.1203,
      "velocity": 103,
      "chip": "ym2612"
    },
    {
      "channel": 4,
      "note": 110,
      "start": 72.0973,
      "duration": 0.1203,
      "velocity": 107,
      "chip": "ym2612"
    },
    {
      "channel": 0,
      "note": 37,
      "start": 72.215,
      "duration": 0.1866,
      "velocity": 107,
      "chip": "ym2612"
    },
    {
      "channel": 1,
      "note": 49,
      "start": 72.2155,
      "duration": 0.0923,
      "velocity": 103,
      "chip": "ym2612"
    },
    {
      "channel": 4,
      "note": 110,
      "start": 72.2178,
      "duration": 0.0923,
      "velocity": 107,
      "chip": "ym2612"
    },
    {
      "channel": 1,
      "note": 61,
      "start": 72.308,
      "duration": 0.0941,
      "velocity": 103,
      "chip": "ym2612"
    },
    {
      "channel": 4,
      "note": 110,
      "start": 72.3103,
      "duration": 0.0926,
      "velocity": 107,
      "chip": "ym2612"
    },
    {
      "channel": 0,
      "note": 37,
      "start": 72.4018,
      "duration": 0.4235,
      "velocity": 107,
      "chip": "ym2612"
    },
    {
      "channel": 1,
      "note": 49,
      "start": 72.4023,
      "duration": 0.1194,
      "velocity": 103,
      "chip": "ym2612"
    },
    {
      "channel": 4,
      "note": 110,
      "start": 72.403,
      "duration": 0.1194,
      "velocity": 107,
      "chip": "ym2612"
    },
    {
      "channel": 5,
      "note": 96,
      "start": 72.4036,
      "duration": 0.4251,
      "velocity": 127,
      "chip": "ym2612"
    },
    {
      "channel": 1,
      "note": 59,
      "start": 72.5219,
      "duration": 0.1198,
      "velocity": 103,
      "chip": "ym2612"
    },
    {
      "channel": 4,
      "note": 110,
      "start": 72.5225,
      "duration": 0.1214,
      "velocity": 127,
      "chip": "ym2612"
    },
    {
      "channel": 1,
      "note": 61,
      "start": 72.6418,
      "duration": 0.0882,
      "velocity": 103,
      "chip": "ym2612"
    },
    {
      "channel": 4,
      "note": 43,
      "start": 72.6441,
      "duration": 0.184,
      "velocity": 107,
      "chip": "ym2612"
    },
    {
      "channel": 1,
      "note": 49,
      "start": 72.7301,
      "duration": 0.0957,
      "velocity": 103,
      "chip": "ym2612"
    },
    {
      "channel": 0,
      "note": 35,
      "start": 72.8255,
      "duration": 0.1198,
      "velocity": 107,
      "chip": "ym2612"
    },
    {
      "channel": 1,
      "note": 61,
      "start": 72.8261,
      "duration": 0.1198,
      "velocity": 103,
      "chip": "ym2612"
    },
    {
      "channel": 4,
      "note": 110,
      "start": 72.8283,
      "duration": 0.1198,
      "velocity": 127,
      "chip": "ym2612"
    },
    {
      "channel": 5,
      "note": 96,
      "start": 72.8289,
      "duration": 0.4263,
      "velocity": 127,
      "chip": "ym2612"
    },
    {
      "channel": 0,
      "note": 37,
      "start": 72.9455,
      "duration": 0.1198,
      "velocity": 107,
      "chip": "ym2612"
    },
    {
      "channel": 1,
      "note": 49,
      "start": 72.9461,
      "duration": 0.1198,
      "velocity": 103,
      "chip": "ym2612"
    },
    {
      "channel": 4,
      "note": 43,
      "start": 72.9483,
      "duration": 0.1198,
      "velocity": 107,
      "chip": "ym2612"
    },
    {
      "channel": 0,
      "note": 40,
      "start": 73.0655,
      "duration": 0.1863,
      "velocity": 107,
      "chip": "ym2612"
    },
    {
      "channel": 1,
      "note": 59,
      "start": 73.0661,
      "duration": 0.0927,
      "velocity": 103,
      "chip": "ym2612"
    },
    {
      "channel": 4,
      "note": 110,
      "start": 73.0683,
      "duration": 0.0927,
      "velocity": 127,
      "chip": "ym2612"
    },
    {
      "channel": 1,
      "note": 61,
      "start": 73.1589,
      "duration": 0.0933,
      "velocity": 103,
      "chip": "ym2612"
    },
    {
      "channel": 4,
      "note": 43,
      "start": 73.1612,
      "duration": 0.0934,
      "velocity": 107,
      "chip": "ym2612"
    },
    {
      "channel": 0,
      "note": 37,
      "start": 73.2519,
      "duration": 0.1198,
      "velocity": 107,
      "chip": "ym2612"
    },
    {
      "channel": 1,
      "note": 49,
      "start": 73.2524,
      "duration": 0.1198,
      "velocity": 103,
      "chip": "ym2612"
    },
    {
      "channel": 4,
      "note": 110,
      "start": 73.2547,
      "duration": 0.1182,
      "velocity": 107,
      "chip": "ym2612"
    },
    {
      "channel": 5,
      "note": 96,
      "start": 73.2553,
      "duration": 0.4234,
      "velocity": 127,
      "chip": "ym2612"
    },
    {
      "channel": 0,
      "note": 40,
      "start": 73.3719,
      "duration": 0.208,
      "velocity": 107,
      "chip": "ym2612"
    },
    {
      "channel": 1,
      "note": 61,
      "start": 73.3724,
      "duration": 0.1194,
      "velocity": 103,
      "chip": "ym2612"
    },
    {
      "channel": 4,
      "note": 110,
      "start": 73.3731,
      "duration": 0.1209,
      "velocity": 127,
      "chip": "ym2612"
    },
    {
      "channel": 1,
      "note": 49,
      "start": 73.4919,
      "duration": 0.0885,
      "velocity": 103,
      "chip": "ym2612"
    },
    {
      "channel": 4,
      "note": 43,
      "start": 73.4942,
      "duration": 0.1839,
      "velocity": 107,
      "chip": "ym2612"
    },
    {
      "channel": 0,
      "note": 37,
      "start": 73.5801,
      "duration": 0.0952,
      "velocity": 107,
      "chip": "ym2612"
    },
    {
      "channel": 1,
      "note": 59,
      "start": 73.5807,
      "duration": 0.0952,
      "velocity": 103,
      "chip": "ym2612"
    },
    {
      "channel": 0,
      "note": 42,
      "start": 73.6755,
      "duration": 0.2089,
      "velocity": 107,
      "chip": "ym2612"
    },
    {
      "channel": 1,
      "note": 61,
      "start": 73.676,
      "duration": 0.1194,
      "velocity": 103,
      "chip": "ym2612"
    },
    {
      "channel": 4,
      "note": 110,
      "start": 73.6783,
      "duration": 0.1194,
      "velocity": 127,
      "chip": "ym2612"
    },
    {
      "channel": 5,
      "note": 96,
      "start": 73.6789,
      "duration": 0.394,
      "velocity": 127,
      "chip": "ym2612"
    },
    {
      "channel": 1,
      "note": 47,
      "start": 73.7956,
      "duration": 0.0895,
      "velocity": 103,
      "chip": "ym2612"
    },
    {
      "channel": 4,
      "note": 43,
      "start": 73.7979,
      "duration": 0.0936,
      "velocity": 107,
      "chip": "ym2612"
    },
    {
      "channel": 0,
      "note": 37,
      "start": 73.8846,
      "duration": 0.1865,
      "velocity": 107,
      "chip": "ym2612"
    },
    {
      "channel": 1,
      "note": 49,
      "start": 73.8851,
      "duration": 0.0926,
      "velocity": 103,
      "chip": "ym2612"
    },
    {
      "channel": 2,
      "note": 61,
      "start": 73.8873,
      "duration": 0.6097,
      "velocity": 111,
      "chip": "ym2612"
    },
    {
      "channel": 3,
      "note": 45,
      "start": 73.8895,
      "duration": 0.4254,
      "velocity": 111,
      "chip": "ym2612"
    },
    {
      "channel": 4,
      "note": 110,
      "start": 73.8917,
      "duration": 0.0899,
      "velocity": 107,
      "chip": "ym2612"
    },
    {
      "channel": 1,
      "note": 61,
      "start": 73.9779,
      "duration": 0.0937,
      "velocity": 103,
      "chip": "ym2612"
    },
    {
      "channel": 4,
      "note": 110,
      "start": 73.9818,
      "duration": 0.0905,
      "velocity": 107,
      "chip": "ym2612"
    },
    {
      "channel": 0,
      "note": 37,
      "start": 74.0712,
      "duration": 0.4231,
      "velocity": 107,
      "chip": "ym2612"
    },
    {
      "channel": 1,
      "note": 49,
      "start": 74.0718,
      "duration": 0.1193,
      "velocity": 103,
      "chip": "ym2612"
    },
    {
      "channel": 4,
      "note": 110,
      "start": 74.0725,
      "duration": 0.1193,
      "velocity": 107,
      "chip": "ym2612"
    },
    {
      "channel": 5,
      "note": 96,
      "start": 74.0731,
      "duration": 0.4267,
      "velocity": 127,
      "chip": "ym2612"
    },
    {
      "channel": 1,
      "note": 59,
      "start": 74.1912,
      "duration": 0.1199,
      "velocity": 103,
      "chip": "ym2612"
    },
    {
      "channel": 4,
      "note": 110,
      "start": 74.1919,
      "duration": 0.1252,
      "velocity": 127,
      "chip": "ym2612"
    },
    {
      "channel": 1,
      "note": 61,
      "start": 74.3112,
      "duration": 0.0888,
      "velocity": 103,
      "chip": "ym2612"
    },
    {
      "channel": 3,
      "note": 61,
      "start": 74.3151,
      "duration": 0.5759,
      "velocity": 111,
      "chip": "ym2612"
    },
    {
      "channel": 4,
      "note": 43,
      "start": 74.3173,
      "duration": 0.182,
      "velocity": 107,
      "chip": "ym2612"
    },
    {
      "channel": 1,
      "note": 49,
      "start": 74.4002,
      "duration": 0.0946,
      "velocity": 103,
      "chip": "ym2612"
    },
    {
      "channel": 0,
      "note": 35,
      "start": 74.4944,
      "duration": 0.1199,
      "velocity": 107,
      "chip": "ym2612"
    },
    {
      "channel": 1,
      "note": 61,
      "start": 74.495,
      "duration": 0.1198,
      "velocity": 103,
      "chip": "ym2612"
    },
    {
      "channel": 2,
      "note": 64,
      "start": 74.4972,
      "duration": 0.3933,
      "velocity": 111,
      "chip": "ym2612"
    },
    {
      "channel": 4,
      "note": 110,
      "start": 74.4994,
      "duration": 0.1177,
      "velocity": 107,
      "chip": "ym2612"
    },
    {
      "channel": 5,
      "note": 96,
      "start": 74.5,
      "duration": 0.3922,
      "velocity": 127,
      "chip": "ym2612"
    },
    {
      "channel": 0,
      "note": 37,
      "start": 74.6144,
      "duration": 0.0884,
      "velocity": 107,
      "chip": "ym2612"
    },
    {
      "channel": 1,
      "note": 49,
      "start": 74.615,
      "duration": 0.0884,
      "velocity": 103,
      "chip": "ym2612"
    },
    {
      "channel": 4,
      "note": 110,
      "start": 74.6173,
      "duration": 0.0884,
      "velocity": 107,
      "chip": "ym2612"
    },
    {
      "channel": 0,
      "note": 40,
      "start": 74.703,
      "duration": 0.1863,
      "velocity": 107,
      "chip": "ym2612"
    },
    {
      "channel": 1,
      "note": 59,
      "start": 74.7036,
      "duration": 0.0927,
      "velocity": 103,
      "chip": "ym2612"
    },
    {
      "channel": 4,
      "note": 110,
      "start": 74.7058,
      "duration": 0.0927,
      "velocity": 107,
      "chip": "ym2612"
    },
    {
      "channel": 1,
      "note": 61,
      "start": 74.7965,
      "duration": 0.0934,
      "velocity": 103,
      "chip": "ym2612"
    },
    {
      "channel": 4,
      "note": 110,
      "start": 74.7987,
      "duration": 0.0929,
      "velocity": 107,
      "chip": "ym2612"
    },
    {
      "channel": 0,
      "note": 37,
      "start": 74.8895,
      "duration": 0.1198,
      "velocity": 107,
      "chip": "ym2612"
    },
    {
      "channel": 1,
      "note": 49,
      "start": 74.8901,
      "duration": 0.1198,
      "velocity": 103,
      "chip": "ym2612"
    },
    {
      "channel": 2,
      "note": 68,
      "start": 74.8906,
      "duration": 0.2392,
      "velocity": 111,
      "chip": "ym2612"
    },
    {
      "channel": 3,
      "note": 64,
      "start": 74.8912,
      "duration": 0.4226,
      "velocity": 111,
      "chip": "ym2612"
    },
    {
      "channel": 4,
      "note": 110,
      "start": 74.8917,
      "duration": 0.1188,
      "velocity": 107,
      "chip": "ym2612"
    },
    {
      "channel": 5,
      "note": 96,
      "start": 74.8923,
      "duration": 0.4242,
      "velocity": 127,
      "chip": "ym2612"
    },
    {
      "channel": 0,
      "note": 40,
      "start": 75.0095,
      "duration": 0.2078,
      "velocity": 107,
      "chip": "ym2612"
    },
    {
      "channel": 1,
      "note": 61,
      "start": 75.0101,
      "duration": 0.1192,
      "velocity": 103,
      "chip": "ym2612"
    },
    {
      "channel": 4,
      "note": 110,
      "start": 75.0107,
      "duration": 0.1213,
      "velocity": 127,
      "chip": "ym2612"
    },
    {
      "channel": 1,
      "note": 49,
      "start": 75.1295,
      "duration": 0.0883,
      "velocity": 103,
      "chip": "ym2612"
    },
    {
      "channel": 2,
      "note": 64,
      "start": 75.1301,
      "duration": 0.1832,
      "velocity": 111,
      "chip": "ym2612"
    },
    {
      "channel": 4,
      "note": 43,
      "start": 75.1322,
      "duration": 0.1837,
      "velocity": 107,
      "chip": "ym2612"
    },
    {
      "channel": 0,
      "note": 37,
      "start": 75.2174,
      "duration": 0.0947,
      "velocity": 107,
      "chip": "ym2612"
    },
    {
      "channel": 1,
      "note": 59,
      "start": 75.218,
      "duration": 0.0947,
      "velocity": 103,
      "chip": "ym2612"
    },
    {
      "channel": 0,
      "note": 42,
      "start": 75.3123,
      "duration": 0.2398,
      "velocity": 107,
      "chip": "ym2612"
    },
    {
      "channel": 1,
      "note": 61,
      "start": 75.3129,
      "duration": 0.1193,
      "velocity": 103,
      "chip": "ym2612"
    },
    {
      "channel": 2,
      "note": 61,
      "start": 75.3134,
      "duration": 0.2398,
      "velocity": 111,
      "chip": "ym2612"
    },
    {
      "channel": 3,
      "note": 68,
      "start": 75.314,
      "duration": 0.2398,
      "velocity": 111,
      "chip": "ym2612"
    },
    {
      "channel": 4,
      "note": 110,
      "start": 75.3161,
      "duration": 0.1183,
      "velocity": 107,
      "chip": "ym2612"
    },
    {
      "channel": 5,
      "note": 96,
      "start": 75.3167,
      "duration": 0.426,
      "velocity": 127,
      "chip": "ym2612"
    },
    {
      "channel": 1,
      "note": 47,
      "start": 75.4324,
      "duration": 0.1203,
      "velocity": 103,
      "chip": "ym2612"
    },
    {
      "channel": 4,
      "note": 110,
      "start": 75.4346,
      "duration": 0.1213,
      "velocity": 107,
      "chip": "ym2612"
    },
    {
      "channel": 0,
      "note": 37,
      "start": 75.5523,
      "duration": 0.1876,
      "velocity": 107,
      "chip": "ym2612"
    },
    {
      "channel": 1,
      "note": 49,
      "start": 75.5528,
      "duration": 0.0931,
      "velocity": 103,
      "chip": "ym2612"
    },
    {
      "channel": 2,
      "note": 71,
      "start": 75.5534,
      "duration": 0.1876,
      "velocity": 111,
      "chip": "ym2612"
    },
    {
      "channel": 3,
      "note": 64,
      "start": 75.554,
      "duration": 0.1876,
      "velocity": 111,
      "chip": "ym2612"
    },
    {
      "channel": 4,
      "note": 110,
      "start": 75.5561,
      "duration": 0.092,
      "velocity": 107,
      "chip": "ym2612"
    },
    {
      "channel": 1,
      "note": 61,
      "start": 75.6461,
      "duration": 0.0944,
      "velocity": 103,
      "chip": "ym2612"
    },
    {
      "channel": 4,
      "note": 110,
      "start": 75.6483,
      "duration": 0.0938,
      "velocity": 107,
      "chip": "ym2612"
    },
    {
      "channel": 0,
      "note": 37,
      "start": 75.74,
      "duration": 0.4227,
      "velocity": 107,
      "chip": "ym2612"
    },
    {
      "channel": 1,
      "note": 49,
      "start": 75.7406,
      "duration": 0.1193,
      "velocity": 103,
      "chip": "ym2612"
    },
    {
      "channel": 2,
      "note": 70,
      "start": 75.7412,
      "duration": 0.1193,
      "velocity": 111,
      "chip": "ym2612"
    },
    {
      "channel": 3,
      "note": 61,
      "start": 75.7417,
      "duration": 0.2387,
      "velocity": 111,
      "chip": "ym2612"
    },
    {
      "channel": 4,
      "note": 110,
      "start": 75.7423,
      "duration": 0.1188,
      "velocity": 107,
      "chip": "ym2612"
    },
    {
      "channel": 5,
      "note": 96,
      "start": 75.7428,
      "duration": 0.4238,
      "velocity": 127,
      "chip": "ym2612"
    },
    {
      "channel": 1,
      "note": 59,
      "start": 75.8601,
      "duration": 0.1198,
      "velocity": 103,
      "chip": "ym2612"
    },
    {
      "channel": 2,
      "note": 68,
      "start": 75.8606,
      "duration": 0.2076,
      "velocity": 111,
      "chip": "ym2612"
    },
    {
      "channel": 4,
      "note": 110,
      "start": 75.8612,
      "duration": 0.1214,
      "velocity": 127,
      "chip": "ym2612"
    },
    {
      "channel": 1,
      "note": 61,
      "start": 75.98,
      "duration": 0.0876,
      "velocity": 103,
      "chip": "ym2612"
    },
    {
      "channel": 3,
      "note": 71,
      "start": 75.9807,
      "duration": 0.1832,
      "velocity": 111,
      "chip": "ym2612"
    },
    {
      "channel": 4,
      "note": 43,
      "start": 75.9828,
      "duration": 0.1833,
      "velocity": 107,
      "chip": "ym2612"
    },
    {
      "channel": 1,
      "note": 49,
      "start": 76.0678,
      "duration": 0.0955,
      "velocity": 103,
      "chip": "ym2612"
    },
    {
      "channel": 2,
      "note": 66,
      "start": 76.0683,
      "duration": 0.2156,
      "velocity": 111,
      "chip": "ym2612"
    },
    {
      "channel": 0,
      "note": 35,
      "start": 76.1629,
      "duration": 0.1198,
      "velocity": 107,
      "chip": "ym2612"
    },
    {
      "channel": 1,
      "note": 61,
      "start": 76.1634,
      "duration": 0.1199,
      "velocity": 103,
      "chip": "ym2612"
    },
    {
      "channel": 3,
      "note": 70,
      "start": 76.1641,
      "duration": 0.1203,
      "velocity": 111,
      "chip": "ym2612"
    },
    {
      "channel": 4,
      "note": 110,
      "start": 76.1663,
      "duration": 0.1203,
      "velocity": 127,
      "chip": "ym2612"
    },
    {
      "channel": 5,
      "note": 96,
      "start": 76.1668,
      "duration": 0.4257,
      "velocity": 127,
      "chip": "ym2612"
    },
    {
      "channel": 0,
      "note": 37,
      "start": 76.2829,
      "duration": 0.1198,
      "velocity": 107,
      "chip": "ym2612"
    },
    {
      "channel": 1,
      "note": 49,
      "start": 76.2835,
      "duration": 0.1198,
      "velocity": 103,
      "chip": "ym2612"
    },
    {
      "channel": 2,
      "note": 71,
      "start": 76.284,
      "duration": 0.2123,
      "velocity": 111,
      "chip": "ym2612"
    },
    {
      "channel": 3,
      "note": 68,
      "start": 76.2846,
      "duration": 0.2123,
      "velocity": 111,
      "chip": "ym2612"
    },
    {
      "channel": 4,
      "note": 43,
      "start": 76.2868,
      "duration": 0.1188,
      "velocity": 107,
      "chip": "ym2612"
    },
    {
      "channel": 0,
      "note": 40,
      "start": 76.4029,
      "duration": 0.1857,
      "velocity": 107,
      "chip": "ym2612"
    },
    {
      "channel": 1,
      "note": 59,
      "start": 76.4035,
      "duration": 0.0922,
      "velocity": 103,
      "chip": "ym2612"
    },
    {
      "channel": 4,
      "note": 110,
      "start": 76.4057,
      "duration": 0.0933,
      "velocity": 127,
      "chip": "ym2612"
    },
    {
      "channel": 1,
      "note": 61,
      "start": 76.4959,
      "duration": 0.0933,
      "velocity": 103,
      "chip": "ym2612"
    },
    {
      "channel": 2,
      "note": 71,
      "start": 76.4965,
      "duration": 0.0933,
      "velocity": 111,
      "chip": "ym2612"
    },
    {
      "channel": 3,
      "note": 66,
      "start": 76.497,
      "duration": 0.2128,
      "velocity": 111,
      "chip": "ym2612"
    },
    {
      "channel": 4,
      "note": 43,
      "start": 76.4992,
      "duration": 0.0927,
      "velocity": 107,
      "chip": "ym2612"
    },
    {
      "channel": 0,
      "note": 37,
      "start": 76.5888,
      "duration": 0.1198,
      "velocity": 107,
      "chip": "ym2612"
    },
    {
      "channel": 1,
      "note": 49,
      "start": 76.5894,
      "duration": 0.1198,
      "velocity": 103,
      "chip": "ym2612"
    },
    {
      "channel": 2,
      "note": 70,
      "start": 76.5899,
      "duration": 0.2394,
      "velocity": 111,
      "chip": "ym2612"
    },
    {
      "channel": 4,
      "note": 110,
      "start": 76.5922,
      "duration": 0.1182,
      "velocity": 107,
      "chip": "ym2612"
    },
    {
      "channel": 5,
      "note": 96,
      "start": 76.5927,
      "duration": 0.424,
      "velocity": 127,
      "chip": "ym2612"
    },
    {
      "channel": 0,
      "note": 40,
      "start": 76.7088,
      "duration": 0.208,
      "velocity": 107,
      "chip": "ym2612"
    },
    {
      "channel": 1,
      "note": 61,
      "start": 76.7093,
      "duration": 0.1194,
      "velocity": 103,
      "chip": "ym2612"
    },
    {
      "channel": 3,
      "note": 71,
      "start": 76.71,
      "duration": 0.2085,
      "velocity": 111,
      "chip": "ym2612"
    },
    {
      "channel": 4,
      "note": 110,
      "start": 76.7105,
      "duration": 0.1209,
      "velocity": 127,
      "chip": "ym2612"
    },
    {
      "channel": 1,
      "note": 49,
      "start": 76.8289,
      "duration": 0.0885,
      "velocity": 103,
      "chip": "ym2612"
    },
    {
      "channel": 2,
      "note": 68,
      "start": 76.8294,
      "duration": 0.0885,
      "velocity": 111,
      "chip": "ym2612"
    },
    {
      "channel": 4,
      "note": 43,
      "start": 76.8316,
      "duration": 0.1846,
      "velocity": 107,
      "chip": "ym2612"
    },
    {
      "channel": 0,
      "note": 37,
      "start": 76.917,
      "duration": 0.0954,
      "velocity": 107,
      "chip": "ym2612"
    },
    {
      "channel": 1,
      "note": 59,
      "start": 76.9176,
      "duration": 0.0954,
      "velocity": 103,
      "chip": "ym2612"
    },
    {
      "channel": 2,
      "note": 61,
      "start": 76.9181,
      "duration": 0.0953,
      "velocity": 111,
      "chip": "ym2612"
    },
    {
      "channel": 3,
      "note": 71,
      "start": 76.9187,
      "duration": 0.0953,
      "velocity": 111,
      "chip": "ym2612"
    },
    {
      "channel": 0,
      "note": 42,
      "start": 77.0125,
      "duration": 0.2086,
      "velocity": 107,
      "chip": "ym2612"
    },
    {
      "channel": 1,
      "note": 61,
      "start": 77.0131,
      "duration": 0.1194,
      "velocity": 103,
      "chip": "ym2612"
    },
    {
      "channel": 2,
      "note": 66,
      "start": 77.0136,
      "duration": 0.1194,
      "velocity": 111,
      "chip": "ym2612"
    },
    {
      "channel": 3,
      "note": 70,
      "start": 77.0142,
      "duration": 0.208,
      "velocity": 111,
      "chip": "ym2612"
    },
    {
      "channel": 4,
      "note": 110,
      "start": 77.0164,
      "duration": 0.1188,
      "velocity": 107,
      "chip": "ym2612"
    },
    {
      "channel": 5,
      "note": 96,
      "start": 77.017,
      "duration": 0.3923,
      "velocity": 127,
      "chip": "ym2612"
    },
    {
      "channel": 1,
      "note": 47,
      "start": 77.1326,
      "duration": 0.089,
      "velocity": 103,
      "chip": "ym2612"
    },
    {
      "channel": 2,
      "note": 68,
      "start": 77.1331,
      "duration": 3.1918,
      "velocity": 103,
      "chip": "ym2612"
    },
    {
      "channel": 4,
      "note": 110,
      "start": 77.1354,
      "duration": 0.0891,
      "velocity": 107,
      "chip": "ym2612"
    },
    {
      "channel": 0,
      "note": 37,
      "start": 77.2212,
      "duration": 0.1858,
      "velocity": 107,
      "chip": "ym2612"
    },
    {
      "channel": 1,
      "note": 49,
      "start": 77.2218,
      "duration": 0.0925,
      "velocity": 103,
      "chip": "ym2612"
    },
    {
      "channel": 3,
      "note": 68,
      "start": 77.2224,
      "duration": 0.0925,
      "velocity": 111,
      "chip": "ym2612"
    },
    {
      "channel": 4,
      "note": 110,
      "start": 77.2246,
      "duration": 0.0925,
      "velocity": 107,
      "chip": "ym2612"
    },
    {
      "channel": 1,
      "note": 61,
      "start": 77.3145,
      "duration": 0.093,
      "velocity": 103,
      "chip": "ym2612"
    },
    {
      "channel": 3,
      "note": 61,
      "start": 77.315,
      "duration": 0.0931,
      "velocity": 111,
      "chip": "ym2612"
    },
    {
      "channel": 4,
      "note": 110,
      "start": 77.3172,
      "duration": 0.0915,
      "velocity": 107,
      "chip": "ym2612"
    },
    {
      "channel": 0,
      "note": 37,
      "start": 77.4071,
      "duration": 0.4227,
      "velocity": 107,
      "chip": "ym2612"
    },
    {
      "channel": 1,
      "note": 49,
      "start": 77.4077,
      "duration": 0.1194,
      "velocity": 103,
      "chip": "ym2612"
    },
    {
      "channel": 3,
      "note": 66,
      "start": 77.4083,
      "duration": 0.1209,
      "velocity": 111,
      "chip": "ym2612"
    },
    {
      "channel": 4,
      "note": 110,
      "start": 77.4089,
      "duration": 0.121,
      "velocity": 107,
      "chip": "ym2612"
    },
    {
      "channel": 5,
      "note": 96,
      "start": 77.4094,
      "duration": 0.4238,
      "velocity": 127,
      "chip": "ym2612"
    },
    {
      "channel": 1,
      "note": 59,
      "start": 77.5273,
      "duration": 0.1198,
      "velocity": 103,
      "chip": "ym2612"
    },
    {
      "channel": 3,
      "note": 68,
      "start": 77.5294,
      "duration": 2.7977,
      "velocity": 103,
      "chip": "ym2612"
    },
    {
      "channel": 4,
      "note": 110,
      "start": 77.53,
      "duration": 0.1193,
      "velocity": 127,
      "chip": "ym2612"
    },
    {
      "channel": 1,
      "note": 61,
      "start": 77.6472,
      "duration": 0.0876,
      "velocity": 103,
      "chip": "ym2612"
    },
    {
      "channel": 4,
      "note": 43,
      "start": 77.6495,
      "duration": 0.1832,
      "velocity": 107,
      "chip": "ym2612"
    },
    {
      "channel": 1,
      "note": 49,
      "start": 77.735,
      "duration": 0.0954,
      "velocity": 103,
      "chip": "ym2612"
    },
    {
      "channel": 0,
      "note": 35,
      "start": 77.83,
      "duration": 0.1198,
      "velocity": 107,
      "chip": "ym2612"
    },
    {
      "channel": 1,
      "note": 61,
      "start": 77.8306,
      "duration": 0.1199,
      "velocity": 103,
      "chip": "ym2612"
    },
    {
      "channel": 4,
      "note": 110,
      "start": 77.8329,
      "duration": 0.1198,
      "velocity": 107,
      "chip": "ym2612"
    },
    {
      "channel": 5,
      "note": 96,
      "start": 77.8334,
      "duration": 0.3924,
      "velocity": 127,
      "chip": "ym2612"
    },
    {
      "channel": 0,
      "note": 37,
      "start": 77.95,
      "duration": 0.0889,
      "velocity": 107,
      "chip": "ym2612"
    },
    {
      "channel": 1,
      "note": 49,
      "start": 77.9506,
      "duration": 0.0889,
      "velocity": 103,
      "chip": "ym2612"
    },
    {
      "channel": 4,
      "note": 110,
      "start": 77.9529,
      "duration": 0.0889,
      "velocity": 107,
      "chip": "ym2612"
    },
    {
      "channel": 0,
      "note": 40,
      "start": 78.039,
      "duration": 0.1851,
      "velocity": 107,
      "chip": "ym2612"
    },
    {
      "channel": 1,
      "note": 59,
      "start": 78.0396,
      "duration": 0.0921,
      "velocity": 103,
      "chip": "ym2612"
    },
    {
      "channel": 4,
      "note": 110,
      "start": 78.0419,
      "duration": 0.0921,
      "velocity": 107,
      "chip": "ym2612"
    },
    {
      "channel": 1,
      "note": 61,
      "start": 78.1319,
      "duration": 0.0927,
      "velocity": 103,
      "chip": "ym2612"
    },
    {
      "channel": 4,
      "note": 110,
      "start": 78.1342,
      "duration": 0.0911,
      "velocity": 107,
      "chip": "ym2612"
    },
    {
      "channel": 0,
      "note": 37,
      "start": 78.2243,
      "duration": 0.1198,
      "velocity": 107,
      "chip": "ym2612"
    },
    {
      "channel": 1,
      "note": 49,
      "start": 78.2248,
      "duration": 0.1199,
      "velocity": 103,
      "chip": "ym2612"
    },
    {
      "channel": 4,
      "note": 110,
      "start": 78.2255,
      "duration": 0.1198,
      "velocity": 107,
      "chip": "ym2612"
    },
    {
      "channel": 5,
      "note": 96,
      "start": 78.2261,
      "duration": 0.4247,
      "velocity": 127,
      "chip": "ym2612"
    },
    {
      "channel": 0,
      "note": 40,
      "start": 78.3443,
      "duration": 0.208,
      "velocity": 107,
      "chip": "ym2612"
    },
    {
      "channel": 1,
      "note": 61,
      "start": 78.3448,
      "duration": 0.1194,
      "velocity": 103,
      "chip": "ym2612"
    },
    {
      "channel": 4,
      "note": 110,
      "start": 78.3455,
      "duration": 0.1209,
      "velocity": 127,
      "chip": "ym2612"
    },
    {
      "channel": 1,
      "note": 49,
      "start": 78.4644,
      "duration": 0.0885,
      "velocity": 103,
      "chip": "ym2612"
    },
    {
      "channel": 4,
      "note": 43,
      "start": 78.4666,
      "duration": 0.1836,
      "velocity": 107,
      "chip": "ym2612"
    },
    {
      "channel": 0,
      "note": 37,
      "start": 78.5525,
      "duration": 0.0949,
      "velocity": 107,
      "chip": "ym2612"
    },
    {
      "channel": 1,
      "note": 59,
      "start": 78.5531,
      "duration": 0.0949,
      "velocity": 103,
      "chip": "ym2612"
    },
    {
      "channel": 0,
      "note": 42,
      "start": 78.6476,
      "duration": 0.2398,
      "velocity": 107,
      "chip": "ym2612"
    },
    {
      "channel": 1,
      "note": 61,
      "start": 78.6481,
      "duration": 0.1194,
      "velocity": 103,
      "chip": "ym2612"
    },
    {
      "channel": 4,
      "note": 110,
      "start": 78.6504,
      "duration": 0.1194,
      "velocity": 107,
      "chip": "ym2612"
    },
    {
      "channel": 5,
      "note": 96,
      "start": 78.651,
      "duration": 1.8599,
      "velocity": 127,
      "chip": "ym2612"
    },
    {
      "channel": 1,
      "note": 47,
      "start": 78.7677,
      "duration": 0.1203,
      "velocity": 103,
      "chip": "ym2612"
    },
    {
      "channel": 4,
      "note": 110,
      "start": 78.7699,
      "duration": 0.1203,
      "velocity": 107,
      "chip": "ym2612"
    },
    {
      "channel": 0,
      "note": 37,
      "start": 78.8876,
      "duration": 0.177,
      "velocity": 107,
      "chip": "ym2612"
    },
    {
      "channel": 1,
      "note": 49,
      "start": 78.8882,
      "duration": 0.0878,
      "velocity": 103,
      "chip": "ym2612"
    },
    {
      "channel": 4,
      "note": 110,
      "start": 78.8904,
      "duration": 0.0879,
      "velocity": 107,
      "chip": "ym2612"
    },
    {
      "channel": 1,
      "note": 61,
      "start": 78.9762,
      "duration": 0.0889,
      "velocity": 103,
      "chip": "ym2612"
    },
    {
      "channel": 4,
      "note": 110,
      "start": 78.9785,
      "duration": 0.0873,
      "velocity": 107,
      "chip": "ym2612"
    },
    {
      "channel": 0,
      "note": 37,
      "start": 79.0647,
      "duration": 0.3608,
      "velocity": 107,
      "chip": "ym2612"
    },
    {
      "channel": 1,
      "note": 49,
      "start": 79.0653,
      "duration": 0.0909,
      "velocity": 103,
      "chip": "ym2612"
    },
    {
      "channel": 4,
      "note": 110,
      "start": 79.066,
      "duration": 0.0908,
      "velocity": 107,
      "chip": "ym2612"
    },
    {
      "channel": 1,
      "note": 59,
      "start": 79.1564,
      "duration": 0.0929,
      "velocity": 103,
      "chip": "ym2612"
    },
    {
      "channel": 4,
      "note": 110,
      "start": 79.157,
      "duration": 0.0945,
      "velocity": 127,
      "chip": "ym2612"
    },
    {
      "channel": 1,
      "note": 61,
      "start": 79.2494,
      "duration": 0.0887,
      "velocity": 103,
      "chip": "ym2612"
    },
    {
      "channel": 4,
      "note": 43,
      "start": 79.2517,
      "duration": 0.1766,
      "velocity": 107,
      "chip": "ym2612"
    },
    {
      "channel": 1,
      "note": 49,
      "start": 79.3383,
      "duration": 0.0878,
      "velocity": 103,
      "chip": "ym2612"
    },
    {
      "channel": 0,
      "note": 35,
      "start": 79.4257,
      "duration": 0.0922,
      "velocity": 107,
      "chip": "ym2612"
    },
    {
      "channel": 1,
      "note": 61,
      "start": 79.4262,
      "duration": 0.0922,
      "velocity": 103,
      "chip": "ym2612"
    },
    {
      "channel": 4,
      "note": 110,
      "start": 79.4285,
      "duration": 0.0922,
      "velocity": 127,
      "chip": "ym2612"
    },
    {
      "channel": 0,
      "note": 37,
      "start": 79.518,
      "duration": 0.0943,
      "velocity": 107,
      "chip": "ym2612"
    },
    {
      "channel": 1,
      "note": 49,
      "start": 79.5185,
      "duration": 0.0943,
      "velocity": 103,
      "chip": "ym2612"
    },
    {
      "channel": 4,
      "note": 43,
      "start": 79.5208,
      "duration": 0.0943,
      "velocity": 107,
      "chip": "ym2612"
    },
    {
      "channel": 0,
      "note": 40,
      "start": 79.6125,
      "duration": 0.1779,
      "velocity": 107,
      "chip": "ym2612"
    },
    {
      "channel": 1,
      "note": 59,
      "start": 79.613,
      "duration": 0.0885,
      "velocity": 103,
      "chip": "ym2612"
    },
    {
      "channel": 4,
      "note": 110,
      "start": 79.6153,
      "duration": 0.0885,
      "velocity": 127,
      "chip": "ym2612"
    },
    {
      "channel": 1,
      "note": 61,
      "start": 79.7017,
      "duration": 0.0893,
      "velocity": 103,
      "chip": "ym2612"
    },
    {
      "channel": 4,
      "note": 43,
      "start": 79.704,
      "duration": 0.0893,
      "velocity": 107,
      "chip": "ym2612"
    },
    {
      "channel": 0,
      "note": 37,
      "start": 79.7906,
      "duration": 0.0889,
      "velocity": 107,
      "chip": "ym2612"
    },
    {
      "channel": 1,
      "note": 49,
      "start": 79.7912,
      "duration": 0.0888,
      "velocity": 103,
      "chip": "ym2612"
    },
    {
      "channel": 4,
      "note": 110,
      "start": 79.7934,
      "duration": 0.0873,
      "velocity": 107,
      "chip": "ym2612"
    },
    {
      "channel": 0,
      "note": 40,
      "start": 79.8796,
      "duration": 0.1768,
      "velocity": 107,
      "chip": "ym2612"
    },
    {
      "channel": 1,
      "note": 61,
      "start": 79.8802,
      "duration": 0.0874,
      "velocity": 103,
      "chip": "ym2612"
    },
    {
      "channel": 4,
      "note": 110,
      "start": 79.8809,
      "duration": 0.0889,
      "velocity": 127,
      "chip": "ym2612"
    },
    {
      "channel": 1,
      "note": 49,
      "start": 79.9677,
      "duration": 0.0892,
      "velocity": 103,
      "chip": "ym2612"
    },
    {
      "channel": 4,
      "note": 43,
      "start": 79.97,
      "duration": 0.1773,
      "velocity": 107,
      "chip": "ym2612"
    },
    {
      "channel": 0,
      "note": 37,
      "start": 80.0565,
      "duration": 0.0879,
      "velocity": 107,
      "chip": "ym2612"
    },
    {
      "channel": 1,
      "note": 59,
      "start": 80.0571,
      "duration": 0.0879,
      "velocity": 103,
      "chip": "ym2612"
    },
    {
      "channel": 0,
      "note": 42,
      "start": 80.1446,
      "duration": 0.1776,
      "velocity": 107,
      "chip": "ym2612"
    },
    {
      "channel": 1,
      "note": 61,
      "start": 80.1451,
      "duration": 0.0883,
      "velocity": 103,
      "chip": "ym2612"
    },
    {
      "channel": 4,
      "note": 110,
      "start": 80.1474,
      "duration": 0.0883,
      "velocity": 127,
      "chip": "ym2612"
    },
    {
      "channel": 1,
      "note": 47,
      "start": 80.2336,
      "duration": 0.0892,
      "velocity": 103,
      "chip": "ym2612"
    },
    {
      "channel": 4,
      "note": 43,
      "start": 80.2359,
      "duration": 0.0933,
      "velocity": 107,
      "chip": "ym2612"
    },
    {
      "channel": 0,
      "note": 37,
      "start": 80.3223,
      "duration": 0.1866,
      "velocity": 107,
      "chip": "ym2612"
    },
    {
      "channel": 1,
      "note": 49,
      "start": 80.3229,
      "duration": 0.0929,
      "velocity": 103,
      "chip": "ym2612"
    },
    {
      "channel": 2,
      "note": 92,
      "start": 80.3251,
      "duration": 3.3366,
      "velocity": 103,
      "chip": "ym2612"
    },
    {
      "channel": 3,
      "note": 85,
      "start": 80.3272,
      "duration": 3.3366,
      "velocity": 103,
      "chip": "ym2612"
    },
    {
      "channel": 4,
      "note": 110,
      "start": 80.3294,
      "duration": 0.0919,
      "velocity": 107,
      "chip": "ym2612"
    },
    {
      "channel": 1,
      "note": 61,
      "start": 80.416,
      "duration": 0.0936,
      "velocity": 103,
      "chip": "ym2612"
    },
    {
      "channel": 4,
      "note": 110,
      "start": 80.4215,
      "duration": 0.0888,
      "velocity": 107,
      "chip": "ym2612"
    },
    {
      "channel": 0,
      "note": 37,
      "start": 80.5091,
      "duration": 0.423,
      "velocity": 107,
      "chip": "ym2612"
    },
    {
      "channel": 1,
      "note": 49,
      "start": 80.5097,
      "duration": 0.1192,
      "velocity": 103,
      "chip": "ym2612"
    },
    {
      "channel": 4,
      "note": 110,
      "start": 80.5104,
      "duration": 0.1193,
      "velocity": 107,
      "chip": "ym2612"
    },
    {
      "channel": 5,
      "note": 96,
      "start": 80.511,
      "duration": 0.4278,
      "velocity": 127,
      "chip": "ym2612"
    },
    {
      "channel": 1,
      "note": 59,
      "start": 80.6291,
      "duration": 0.1198,
      "velocity": 103,
      "chip": "ym2612"
    },
    {
      "channel": 4,
      "note": 110,
      "start": 80.6298,
      "duration": 0.1213,
      "velocity": 127,
      "chip": "ym2612"
    },
    {
      "channel": 1,
      "note": 61,
      "start": 80.7491,
      "duration": 0.0878,
      "velocity": 103,
      "chip": "ym2612"
    },
    {
      "channel": 4,
      "note": 43,
      "start": 80.7514,
      "duration": 0.1868,
      "velocity": 107,
      "chip": "ym2612"
    },
    {
      "channel": 1,
      "note": 49,
      "start": 80.8371,
      "duration": 0.0956,
      "velocity": 103,
      "chip": "ym2612"
    },
    {
      "channel": 0,
      "note": 35,
      "start": 80.9323,
      "duration": 0.1198,
      "velocity": 107,
      "chip": "ym2612"
    },
    {
      "channel": 1,
      "note": 61,
      "start": 80.9329,
      "duration": 0.1199,
      "velocity": 103,
      "chip": "ym2612"
    },
    {
      "channel": 4,
      "note": 110,
      "start": 80.9383,
      "duration": 0.1166,
      "velocity": 107,
      "chip": "ym2612"
    },
    {
      "channel": 5,
      "note": 96,
      "start": 80.939,
      "duration": 0.3902,
      "velocity": 127,
      "chip": "ym2612"
    },
    {
      "channel": 0,
      "note": 37,
      "start": 81.0523,
      "duration": 0.0885,
      "velocity": 107,
      "chip": "ym2612"
    },
    {
      "channel": 1,
      "note": 49,
      "start": 81.0529,
      "duration": 0.0884,
      "velocity": 103,
      "chip": "ym2612"
    },
    {
      "channel": 4,
      "note": 110,
      "start": 81.0551,
      "duration": 0.0885,
      "velocity": 107,
      "chip": "ym2612"
    },
    {
      "channel": 0,
      "note": 40,
      "start": 81.141,
      "duration": 0.1864,
      "velocity": 107,
      "chip": "ym2612"
    },
    {
      "channel": 1,
      "note": 59,
      "start": 81.1415,
      "duration": 0.0924,
      "velocity": 103,
      "chip": "ym2612"
    },
    {
      "channel": 4,
      "note": 110,
      "start": 81.1438,
      "duration": 0.0923,
      "velocity": 107,
      "chip": "ym2612"
    },
    {
      "channel": 1,
      "note": 61,
      "start": 81.234,
      "duration": 0.0939,
      "velocity": 103,
      "chip": "ym2612"
    },
    {
      "channel": 4,
      "note": 110,
      "start": 81.2363,
      "duration": 0.0923,
      "velocity": 107,
      "chip": "ym2612"
    },
    {
      "channel": 0,
      "note": 37,
      "start": 81.3276,
      "duration": 0.1198,
      "velocity": 107,
      "chip": "ym2612"
    },
    {
      "channel": 1,
      "note": 49,
      "start": 81.3281,
      "duration": 0.1199,
      "velocity": 103,
      "chip": "ym2612"
    },
    {
      "channel": 4,
      "note": 110,
      "start": 81.3288,
      "duration": 0.1198,
      "velocity": 107,
      "chip": "ym2612"
    },
    {
      "channel": 5,
      "note": 96,
      "start": 81.3294,
      "duration": 0.4246,
      "velocity": 127,
      "chip": "ym2612"
    },
    {
      "channel": 0,
      "note": 40,
      "start": 81.4476,
      "duration": 0.2079,
      "velocity": 107,
      "chip": "ym2612"
    },
    {
      "channel": 1,
      "note": 61,
      "start": 81.4481,
      "duration": 0.1194,
      "velocity": 103,
      "chip": "ym2612"
    },
    {
      "channel": 4,
      "note": 110,
      "start": 81.4488,
      "duration": 0.1209,
      "velocity": 127,
      "chip": "ym2612"
    },
    {
      "channel": 1,
      "note": 49,
      "start": 81.5676,
      "duration": 0.0884,
      "velocity": 103,
      "chip": "ym2612"
    },
    {
      "channel": 4,
      "note": 43,
      "start": 81.5699,
      "duration": 0.1834,
      "velocity": 107,
      "chip": "ym2612"
    },
    {
      "channel": 0,
      "note": 37,
      "start": 81.6557,
      "duration": 0.0948,
      "velocity": 107,
      "chip": "ym2612"
    },
    {
      "channel": 1,
      "note": 59,
      "start": 81.6563,
      "duration": 0.0948,
      "velocity": 103,
      "chip": "ym2612"
    },
    {
      "channel": 0,
      "note": 42,
      "start": 81.7507,
      "duration": 0.2398,
      "velocity": 107,
      "chip": "ym2612"
    },
    {
      "channel": 1,
      "note": 61,
      "start": 81.7512,
      "duration": 0.1193,
      "velocity": 103,
      "chip": "ym2612"
    },
    {
      "channel": 4,
      "note": 110,
      "start": 81.7535,
      "duration": 0.1193,
      "velocity": 107,
      "chip": "ym2612"
    },
    {
      "channel": 5,
      "note": 96,
      "start": 81.7541,
      "duration": 0.4246,
      "velocity": 127,
      "chip": "ym2612"
    },
    {
      "channel": 1,
      "note": 47,
      "start": 81.8707,
      "duration": 0.1203,
      "velocity": 103,
      "chip": "ym2612"
    },
    {
      "channel": 4,
      "note": 110,
      "start": 81.873,
      "duration": 0.1203,
      "velocity": 107,
      "chip": "ym2612"
    },
    {
      "channel": 0,
      "note": 37,
      "start": 81.9907,
      "duration": 0.1862,
      "velocity": 107,
      "chip": "ym2612"
    },
    {
      "channel": 1,
      "note": 49,
      "start": 81.9912,
      "duration": 0.092,
      "velocity": 103,
      "chip": "ym2612"
    },
    {
      "channel": 4,
      "note": 110,
      "start": 81.9935,
      "duration": 0.092,
      "velocity": 107,
      "chip": "ym2612"
    },
    {
      "channel": 1,
      "note": 61,
      "start": 82.0833,
      "duration": 0.0941,
      "velocity": 103,
      "chip": "ym2612"
    },
    {
      "channel": 4,
      "note": 110,
      "start": 82.0856,
      "duration": 0.0925,
      "velocity": 107,
      "chip": "ym2612"
    },
    {
      "channel": 0,
      "note": 37,
      "start": 82.1771,
      "duration": 0.4231,
      "velocity": 107,
      "chip": "ym2612"
    },
    {
      "channel": 1,
      "note": 49,
      "start": 82.1776,
      "duration": 0.1194,
      "velocity": 103,
      "chip": "ym2612"
    },
    {
      "channel": 4,
      "note": 110,
      "start": 82.1783,
      "duration": 0.1194,
      "velocity": 107,
      "chip": "ym2612"
    },
    {
      "channel": 5,
      "note": 96,
      "start": 82.1789,
      "duration": 0.4247,
      "velocity": 127,
      "chip": "ym2612"
    },
    {
      "channel": 1,
      "note": 59,
      "start": 82.2971,
      "duration": 0.1198,
      "velocity": 103,
      "chip": "ym2612"
    },
    {
      "channel": 4,
      "note": 110,
      "start": 82.2978,
      "duration": 0.1214,
      "velocity": 127,
      "chip": "ym2612"
    },
    {
      "channel": 1,
      "note": 61,
      "start": 82.4171,
      "duration": 0.0878,
      "velocity": 103,
      "chip": "ym2612"
    },
    {
      "channel": 4,
      "note": 43,
      "start": 82.4194,
      "duration": 0.1836,
      "velocity": 107,
      "chip": "ym2612"
    },
    {
      "channel": 1,
      "note": 49,
      "start": 82.505,
      "duration": 0.0957,
      "velocity": 103,
      "chip": "ym2612"
    },
    {
      "channel": 0,
      "note": 35,
      "start": 82.6003,
      "duration": 0.1198,
      "velocity": 107,
      "chip": "ym2612"
    },
    {
      "channel": 1,
      "note": 61,
      "start": 82.6009,
      "duration": 0.1198,
      "velocity": 103,
      "chip": "ym2612"
    },
    {
      "channel": 4,
      "note": 110,
      "start": 82.6031,
      "duration": 0.1198,
      "velocity": 127,
      "chip": "ym2612"
    },
    {
      "channel": 5,
      "note": 96,
      "start": 82.6037,
      "duration": 0.4263,
      "velocity": 127,
      "chip": "ym2612"
    },
    {
      "channel": 0,
      "note": 37,
      "start": 82.7203,
      "duration": 0.1198,
      "velocity": 107,
      "chip": "ym2612"
    },
    {
      "channel": 1,
      "note": 49,
      "start": 82.7209,
      "duration": 0.1198,
      "velocity": 103,
      "chip": "ym2612"
    },
    {
      "channel": 4,
      "note": 43,
      "start": 82.7231,
      "duration": 0.1198,
      "velocity": 107,
      "chip": "ym2612"
    },
    {
      "channel": 0,
      "note": 40,
      "start": 82.8403,
      "duration": 0.1863,
      "velocity": 107,
      "chip": "ym2612"
    },
    {
      "channel": 1,
      "note": 59,
      "start": 82.8409,
      "duration": 0.0927,
      "velocity": 103,
      "chip": "ym2612"
    },
    {
      "channel": 4,
      "note": 110,
      "start": 82.8431,
      "duration": 0.0927,
      "velocity": 127,
      "chip": "ym2612"
    },
    {
      "channel": 1,
      "note": 61,
      "start": 82.9338,
      "duration": 0.0933,
      "velocity": 103,
      "chip": "ym2612"
    },
    {
      "channel": 4,
      "note": 43,
      "start": 82.936,
      "duration": 0.0934,
      "velocity": 107,
      "chip": "ym2612"
    },
    {
      "channel": 0,
      "note": 37,
      "start": 83.0267,
      "duration": 0.1198,
      "velocity": 107,
      "chip": "ym2612"
    },
    {
      "channel": 1,
      "note": 49,
      "start": 83.0273,
      "duration": 0.1198,
      "velocity": 103,
      "chip": "ym2612"
    },
    {
      "channel": 4,
      "note": 110,
      "start": 83.0296,
      "duration": 0.1182,
      "velocity": 107,
      "chip": "ym2612"
    },
    {
      "channel": 5,
      "note": 96,
      "start": 83.0302,
      "duration": 0.4232,
      "velocity": 127,
      "chip": "ym2612"
    },
    {
      "channel": 0,
      "note": 40,
      "start": 83.1467,
      "duration": 0.208,
      "velocity": 107,
      "chip": "ym2612"
    },
    {
      "channel": 1,
      "note": 61,
      "start": 83.1472,
      "duration": 0.1194,
      "velocity": 103,
      "chip": "ym2612"
    },
    {
      "channel": 4,
      "note": 110,
      "start": 83.1479,
      "duration": 0.1209,
      "velocity": 127,
      "chip": "ym2612"
    },
    {
      "channel": 1,
      "note": 49,
      "start": 83.2668,
      "duration": 0.0885,
      "velocity": 103,
      "chip": "ym2612"
    },
    {
      "channel": 4,
      "note": 43,
      "start": 83.269,
      "duration": 0.1838,
      "velocity": 107,
      "chip": "ym2612"
    },
    {
      "channel": 0,
      "note": 37,
      "start": 83.3549,
      "duration": 0.0951,
      "velocity": 107,
      "chip": "ym2612"
    },
    {
      "channel": 1,
      "note": 59,
      "start": 83.3555,
      "duration": 0.0951,
      "velocity": 103,
      "chip": "ym2612"
    },
    {
      "channel": 0,
      "note": 42,
      "start": 83.4502,
      "duration": 0.2088,
      "velocity": 107,
      "chip": "ym2612"
    },
    {
      "channel": 1,
      "note": 61,
      "start": 83.4507,
      "duration": 0.1194,
      "velocity": 103,
      "chip": "ym2612"
    },
    {
      "channel": 4,
      "note": 110,
      "start": 83.453,
      "duration": 0.1193,
      "velocity": 107,
      "chip": "ym2612"
    },
    {
      "channel": 5,
      "note": 96,
      "start": 83.4536,
      "duration": 0.3942,
      "velocity": 127,
      "chip": "ym2612"
    },
    {
      "channel": 1,
      "note": 47,
      "start": 83.5703,
      "duration": 0.0893,
      "velocity": 103,
      "chip": "ym2612"
    },
    {
      "channel": 4,
      "note": 110,
      "start": 83.5725,
      "duration": 0.0935,
      "velocity": 107,
      "chip": "ym2612"
    },
    {
      "channel": 0,
      "note": 37,
      "start": 83.6591,
      "duration": 0.1869,
      "velocity": 107,
      "chip": "ym2612"
    },
    {
      "channel": 1,
      "note": 49,
      "start": 83.6597,
      "duration": 0.0919,
      "velocity": 103,
      "chip": "ym2612"
    },
    {
      "channel": 2,
      "note": 85,
      "start": 83.6619,
      "duration": 3.3356,
      "velocity": 103,
      "chip": "ym2612"
    },
    {
      "channel": 3,
      "note": 90,
      "start": 83.6641,
      "duration": 3.3356,
      "velocity": 103,
      "chip": "ym2612"
    },
    {
      "channel": 4,
      "note": 110,
      "start": 83.6662,
      "duration": 0.0876,
      "velocity": 107,
      "chip": "ym2612"
    },
    {
      "channel": 1,
      "note": 61,
      "start": 83.7518,
      "duration": 0.0947,
      "velocity": 103,
      "chip": "ym2612"
    },
    {
      "channel": 4,
      "note": 110,
      "start": 83.754,
      "duration": 0.0932,
      "velocity": 107,
      "chip": "ym2612"
    },
    {
      "channel": 0,
      "note": 37,
      "start": 83.8461,
      "duration": 0.4229,
      "velocity": 107,
      "chip": "ym2612"
    },
    {
      "channel": 1,
      "note": 49,
      "start": 83.8467,
      "duration": 0.1193,
      "velocity": 103,
      "chip": "ym2612"
    },
    {
      "channel": 4,
      "note": 110,
      "start": 83.8474,
      "duration": 0.1194,
      "velocity": 107,
      "chip": "ym2612"
    },
    {
      "channel": 5,
      "note": 96,
      "start": 83.8479,
      "duration": 0.4276,
      "velocity": 127,
      "chip": "ym2612"
    },
    {
      "channel": 1,
      "note": 59,
      "start": 83.9662,
      "duration": 0.1198,
      "velocity": 103,
      "chip": "ym2612"
    },
    {
      "channel": 4,
      "note": 110,
      "start": 83.9668,
      "duration": 0.1214,
      "velocity": 127,
      "chip": "ym2612"
    },
    {
      "channel": 1,
      "note": 61,
      "start": 84.0861,
      "duration": 0.0878,
      "velocity": 103,
      "chip": "ym2612"
    },
    {
      "channel": 4,
      "note": 43,
      "start": 84.0885,
      "duration": 0.1866,
      "velocity": 107,
      "chip": "ym2612"
    },
    {
      "channel": 1,
      "note": 49,
      "start": 84.1741,
      "duration": 0.0955,
      "velocity": 103,
      "chip": "ym2612"
    },
    {
      "channel": 0,
      "note": 35,
      "start": 84.2692,
      "duration": 0.1198,
      "velocity": 107,
      "chip": "ym2612"
    },
    {
      "channel": 1,
      "note": 61,
      "start": 84.2698,
      "duration": 0.1198,
      "velocity": 103,
      "chip": "ym2612"
    },
    {
      "channel": 4,
      "note": 110,
      "start": 84.2752,
      "duration": 0.1166,
      "velocity": 107,
      "chip": "ym2612"
    },
    {
      "channel": 5,
      "note": 96,
      "start": 84.2758,
      "duration": 0.3892,
      "velocity": 127,
      "chip": "ym2612"
    },
    {
      "channel": 0,
      "note": 37,
      "start": 84.3892,
      "duration": 0.0887,
      "velocity": 107,
      "chip": "ym2612"
    },
    {
      "channel": 1,
      "note": 49,
      "start": 84.3898,
      "duration": 0.0886,
      "velocity": 103,
      "chip": "ym2612"
    },
    {
      "channel": 4,
      "note": 110,
      "start": 84.392,
      "duration": 0.0887,
      "velocity": 107,
      "chip": "ym2612"
    },
    {
      "channel": 0,
      "note": 40,
      "start": 84.478,
      "duration": 0.1851,
      "velocity": 107,
      "chip": "ym2612"
    },
    {
      "channel": 1,
      "note": 59,
      "start": 84.4785,
      "duration": 0.0922,
      "velocity": 103,
      "chip": "ym2612"
    },
    {
      "channel": 4,
      "note": 110,
      "start": 84.4808,
      "duration": 0.0921,
      "velocity": 107,
      "chip": "ym2612"
    },
    {
      "channel": 1,
      "note": 61,
      "start": 84.5709,
      "duration": 0.0928,
      "velocity": 103,
      "chip": "ym2612"
    },
    {
      "channel": 4,
      "note": 110,
      "start": 84.5732,
      "duration": 0.0912,
      "velocity": 107,
      "chip": "ym2612"
    },
    {
      "channel": 0,
      "note": 37,
      "start": 84.6633,
      "duration": 0.1198,
      "velocity": 107,
      "chip": "ym2612"
    },
    {
      "channel": 1,
      "note": 49,
      "start": 84.6639,
      "duration": 0.1198,
      "velocity": 103,
      "chip": "ym2612"
    },
    {
      "channel": 4,
      "note": 110,
      "start": 84.6645,
      "duration": 0.1198,
      "velocity": 107,
      "chip": "ym2612"
    },
    {
      "channel": 5,
      "note": 96,
      "start": 84.6651,
      "duration": 0.4247,
      "velocity": 127,
      "chip": "ym2612"
    },
    {
      "channel": 0,
      "note": 40,
      "start": 84.7833,
      "duration": 0.208,
      "velocity": 107,
      "chip": "ym2612"
    },
    {
      "channel": 1,
      "note": 61,
      "start": 84.7838,
      "duration": 0.1194,
      "velocity": 103,
      "chip": "ym2612"
    },
    {
      "channel": 4,
      "note": 110,
      "start": 84.7845,
      "duration": 0.1209,
      "velocity": 127,
      "chip": "ym2612"
    },
    {
      "channel": 1,
      "note": 49,
      "start": 84.9034,
      "duration": 0.0885,
      "velocity": 103,
      "chip": "ym2612"
    },
    {
      "channel": 4,
      "note": 43,
      "start": 84.9056,
      "duration": 0.1835,
      "velocity": 107,
      "chip": "ym2612"
    },
    {
      "channel": 0,
      "note": 37,
      "start": 84.9915,
      "duration": 0.0948,
      "velocity": 107,
      "chip": "ym2612"
    },
    {
      "channel": 1,
      "note": 59,
      "start": 84.9921,
      "duration": 0.0948,
      "velocity": 103,
      "chip": "ym2612"
    },
    {
      "channel": 0,
      "note": 42,
      "start": 85.0865,
      "duration": 0.2398,
      "velocity": 107,
      "chip": "ym2612"
    },
    {
      "channel": 1,
      "note": 61,
      "start": 85.0871,
      "duration": 0.1193,
      "velocity": 103,
      "chip": "ym2612"
    },
    {
      "channel": 4,
      "note": 110,
      "start": 85.0893,
      "duration": 0.1193,
      "velocity": 107,
      "chip": "ym2612"
    },
    {
      "channel": 5,
      "note": 96,
      "start": 85.0899,
      "duration": 0.4241,
      "velocity": 127,
      "chip": "ym2612"
    },
    {
      "channel": 1,
      "note": 47,
      "start": 85.2066,
      "duration": 0.1203,
      "velocity": 103,
      "chip": "ym2612"
    },
    {
      "channel": 4,
      "note": 110,
      "start": 85.2088,
      "duration": 0.1203,
      "velocity": 107,
      "chip": "ym2612"
    },
    {
      "channel": 0,
      "note": 37,
      "start": 85.3265,
      "duration": 0.1857,
      "velocity": 107,
      "chip": "ym2612"
    },
    {
      "channel": 1,
      "note": 49,
      "start": 85.327,
      "duration": 0.0922,
      "velocity": 103,
      "chip": "ym2612"
    },
    {
      "channel": 4,
      "note": 110,
      "start": 85.3293,
      "duration": 0.0922,
      "velocity": 107,
      "chip": "ym2612"
    },
    {
      "channel": 1,
      "note": 61,
      "start": 85.4194,
      "duration": 0.0933,
      "velocity": 103,
      "chip": "ym2612"
    },
    {
      "channel": 4,
      "note": 110,
      "start": 85.4217,
      "duration": 0.0918,
      "velocity": 107,
      "chip": "ym2612"
    },
    {
      "channel": 0,
      "note": 37,
      "start": 85.5123,
      "duration": 0.4234,
      "velocity": 107,
      "chip": "ym2612"
    },
    {
      "channel": 1,
      "note": 49,
      "start": 85.5129,
      "duration": 0.1193,
      "velocity": 103,
      "chip": "ym2612"
    },
    {
      "channel": 4,
      "note": 110,
      "start": 85.5136,
      "duration": 0.1193,
      "velocity": 107,
      "chip": "ym2612"
    },
    {
      "channel": 5,
      "note": 96,
      "start": 85.5142,
      "duration": 0.425,
      "velocity": 127,
      "chip": "ym2612"
    },
    {
      "channel": 1,
      "note": 59,
      "start": 85.6324,
      "duration": 0.1198,
      "velocity": 103,
      "chip": "ym2612"
    },
    {
      "channel": 4,
      "note": 110,
      "start": 85.633,
      "duration": 0.1214,
      "velocity": 127,
      "chip": "ym2612"
    },
    {
      "channel": 1,
      "note": 61,
      "start": 85.7523,
      "duration": 0.0881,
      "velocity": 103,
      "chip": "ym2612"
    },
    {
      "channel": 4,
      "note": 43,
      "start": 85.7546,
      "duration": 0.1839,
      "velocity": 107,
      "chip": "ym2612"
    },
    {
      "channel": 1,
      "note": 49,
      "start": 85.8405,
      "duration": 0.0958,
      "velocity": 103,
      "chip": "ym2612"
    },
    {
      "channel": 0,
      "note": 35,
      "start": 85.9359,
      "duration": 0.1198,
      "velocity": 107,
      "chip": "ym2612"
    },
    {
      "channel": 1,
      "note": 61,
      "start": 85.9365,
      "duration": 0.1198,
      "velocity": 103,
      "chip": "ym2612"
    },
    {
      "channel": 4,
      "note": 110,
      "start": 85.9387,
      "duration": 0.1198,
      "velocity": 127,
      "chip": "ym2612"
    },
    {
      "channel": 5,
      "note": 96,
      "start": 85.9393,
      "duration": 0.4266,
      "velocity": 127,
      "chip": "ym2612"
    },
    {
      "channel": 0,
      "note": 37,
      "start": 86.0559,
      "duration": 0.1198,
      "velocity": 107,
      "chip": "ym2612"
    },
    {
      "channel": 1,
      "note": 49,
      "start": 86.0564,
      "duration": 0.1199,
      "velocity": 103,
      "chip": "ym2612"
    },
    {
      "channel": 4,
      "note": 43,
      "start": 86.0587,
      "duration": 0.1198,
      "velocity": 107,
      "chip": "ym2612"
    },
    {
      "channel": 0,
      "note": 40,
      "start": 86.1759,
      "duration": 0.1866,
      "velocity": 107,
      "chip": "ym2612"
    },
    {
      "channel": 1,
      "note": 59,
      "start": 86.1764,
      "duration": 0.0922,
      "velocity": 103,
      "chip": "ym2612"
    },
    {
      "channel": 4,
      "note": 110,
      "start": 86.1787,
      "duration": 0.0922,
      "velocity": 127,
      "chip": "ym2612"
    },
    {
      "channel": 1,
      "note": 61,
      "start": 86.2689,
      "duration": 0.0942,
      "velocity": 103,
      "chip": "ym2612"
    },
    {
      "channel": 4,
      "note": 43,
      "start": 86.2711,
      "duration": 0.0942,
      "velocity": 107,
      "chip": "ym2612"
    },
    {
      "channel": 0,
      "note": 37,
      "start": 86.3627,
      "duration": 0.1198,
      "velocity": 107,
      "chip": "ym2612"
    },
    {
      "channel": 1,
      "note": 49,
      "start": 86.3632,
      "duration": 0.1199,
      "velocity": 103,
      "chip": "ym2612"
    },
    {
      "channel": 4,
      "note": 110,
      "start": 86.3655,
      "duration": 0.1182,
      "velocity": 107,
      "chip": "ym2612"
    },
    {
      "channel": 5,
      "note": 96,
      "start": 86.3661,
      "duration": 0.4231,
      "velocity": 127,
      "chip": "ym2612"
    },
    {
      "channel": 0,
      "note": 40,
      "start": 86.4827,
      "duration": 0.2078,
      "velocity": 107,
      "chip": "ym2612"
    },
    {
      "channel": 1,
      "note": 61,
      "start": 86.4832,
      "duration": 0.1194,
      "velocity": 103,
      "chip": "ym2612"
    },
    {
      "channel": 4,
      "note": 110,
      "start": 86.4839,
      "duration": 0.1209,
      "velocity": 127,
      "chip": "ym2612"
    },
    {
      "channel": 1,
      "note": 49,
      "start": 86.6028,
      "duration": 0.0883,
      "velocity": 103,
      "chip": "ym2612"
    },
    {
      "channel": 4,
      "note": 43,
      "start": 86.605,
      "duration": 0.1836,
      "velocity": 107,
      "chip": "ym2612"
    },
    {
      "channel": 0,
      "note": 37,
      "start": 86.6907,
      "duration": 0.0951,
      "velocity": 107,
      "chip": "ym2612"
    },
    {
      "channel": 1,
      "note": 59,
      "start": 86.6913,
      "duration": 0.0951,
      "velocity": 103,
      "chip": "ym2612"
    },
    {
      "channel": 0,
      "note": 42,
      "start": 86.786,
      "duration": 0.2087,
      "velocity": 107,
      "chip": "ym2612"
    },
    {
      "channel": 1,
      "note": 61,
      "start": 86.7865,
      "duration": 0.1194,
      "velocity": 103,
      "chip": "ym2612"
    },
    {
      "channel": 4,
      "note": 110,
      "start": 86.7888,
      "duration": 0.1194,
      "velocity": 127,
      "chip": "ym2612"
    },
    {
      "channel": 5,
      "note": 96,
      "start": 86.7894,
      "duration": 0.3945,
      "velocity": 127,
      "chip": "ym2612"
    },
    {
      "channel": 1,
      "note": 47,
      "start": 86.9061,
      "duration": 0.0892,
      "velocity": 103,
      "chip": "ym2612"
    },
    {
      "channel": 4,
      "note": 43,
      "start": 86.9084,
      "duration": 0.0934,
      "velocity": 107,
      "chip": "ym2612"
    },
    {
      "channel": 0,
      "note": 37,
      "start": 86.9949,
      "duration": 0.1871,
      "velocity": 107,
      "chip": "ym2612"
    },
    {
      "channel": 1,
      "note": 49,
      "start": 86.9954,
      "duration": 0.0939,
      "velocity": 103,
      "chip": "ym2612"
    },
    {
      "channel": 2,
      "note": 92,
      "start": 86.9976,
      "duration": 3.3361,
      "velocity": 103,
      "chip": "ym2612"
    },
    {
      "channel": 3,
      "note": 85,
      "start": 86.9998,
      "duration": 3.336,
      "velocity": 103,
      "chip": "ym2612"
    },
    {
      "channel": 4,
      "note": 110,
      "start": 87.002,
      "duration": 0.0927,
      "velocity": 107,
      "chip": "ym2612"
    },
    {
      "channel": 1,
      "note": 61,
      "start": 87.0895,
      "duration": 0.0931,
      "velocity": 103,
      "chip": "ym2612"
    },
    {
      "channel": 4,
      "note": 110,
      "start": 87.0949,
      "duration": 0.0883,
      "velocity": 107,
      "chip": "ym2612"
    },
    {
      "channel": 0,
      "note": 37,
      "start": 87.1822,
      "duration": 0.4229,
      "velocity": 107,
      "chip": "ym2612"
    },
    {
      "channel": 1,
      "note": 49,
      "start": 87.1827,
      "duration": 0.1192,
      "velocity": 103,
      "chip": "ym2612"
    },
    {
      "channel": 4,
      "note": 110,
      "start": 87.1834,
      "duration": 0.1193,
      "velocity": 107,
      "chip": "ym2612"
    },
    {
      "channel": 5,
      "note": 96,
      "start": 87.184,
      "duration": 0.4276,
      "velocity": 127,
      "chip": "ym2612"
    },
    {
      "channel": 1,
      "note": 59,
      "start": 87.3022,
      "duration": 0.1198,
      "velocity": 103,
      "chip": "ym2612"
    },
    {
      "channel": 4,
      "note": 110,
      "start": 87.3029,
      "duration": 0.1213,
      "velocity": 127,
      "chip": "ym2612"
    },
    {
      "channel": 1,
      "note": 61,
      "start": 87.4221,
      "duration": 0.0877,
      "velocity": 103,
      "chip": "ym2612"
    },
    {
      "channel": 4,
      "note": 43,
      "start": 87.4244,
      "duration": 0.1866,
      "velocity": 107,
      "chip": "ym2612"
    },
    {
      "channel": 1,
      "note": 49,
      "start": 87.5099,
      "duration": 0.0957,
      "velocity": 103,
      "chip": "ym2612"
    },
    {
      "channel": 0,
      "note": 35,
      "start": 87.6052,
      "duration": 0.1198,
      "velocity": 107,
      "chip": "ym2612"
    },
    {
      "channel": 1,
      "note": 61,
      "start": 87.6057,
      "duration": 0.1199,
      "velocity": 103,
      "chip": "ym2612"
    },
    {
      "channel": 4,
      "note": 110,
      "start": 87.6112,
      "duration": 0.1166,
      "velocity": 107,
      "chip": "ym2612"
    },
    {
      "channel": 5,
      "note": 96,
      "start": 87.6118,
      "duration": 0.3884,
      "velocity": 127,
      "chip": "ym2612"
    },
    {
      "channel": 0,
      "note": 37,
      "start": 87.7252,
      "duration": 0.0885,
      "velocity": 107,
      "chip": "ym2612"
    },
    {
      "channel": 1,
      "note": 49,
      "start": 87.7258,
      "duration": 0.0884,
      "velocity": 103,
      "chip": "ym2612"
    },
    {
      "channel": 4,
      "note": 110,
      "start": 87.728,
      "duration": 0.0885,
      "velocity": 107,
      "chip": "ym2612"
    },
    {
      "channel": 0,
      "note": 40,
      "start": 87.8138,
      "duration": 0.1846,
      "velocity": 107,
      "chip": "ym2612"
    },
    {
      "channel": 1,
      "note": 59,
      "start": 87.8144,
      "duration": 0.0916,
      "velocity": 103,
      "chip": "ym2612"
    },
    {
      "channel": 4,
      "note": 110,
      "start": 87.8167,
      "duration": 0.0916,
      "velocity": 107,
      "chip": "ym2612"
    },
    {
      "channel": 1,
      "note": 61,
      "start": 87.9062,
      "duration": 0.0928,
      "velocity": 103,
      "chip": "ym2612"
    },
    {
      "channel": 4,
      "note": 110,
      "start": 87.9085,
      "duration": 0.0912,
      "velocity": 107,
      "chip": "ym2612"
    },
    {
      "channel": 0,
      "note": 37,
      "start": 87.9986,
      "duration": 0.1198,
      "velocity": 107,
      "chip": "ym2612"
    },
    {
      "channel": 1,
      "note": 49,
      "start": 87.9992,
      "duration": 0.1198,
      "velocity": 103,
      "chip": "ym2612"
    },
    {
      "channel": 4,
      "note": 110,
      "start": 87.9998,
      "duration": 0.1198,
      "velocity": 107,
      "chip": "ym2612"
    },
    {
      "channel": 5,
      "note": 96,
      "start": 88.0004,
      "duration": 0.4244,
      "velocity": 127,
      "chip": "ym2612"
    },
    {
      "channel": 0,
      "note": 40,
      "start": 88.1186,
      "duration": 0.2078,
      "velocity": 107,
      "chip": "ym2612"
    },
    {
      "channel": 1,
      "note": 61,
      "start": 88.1191,
      "duration": 0.1194,
      "velocity": 103,
      "chip": "ym2612"
    },
    {
      "channel": 4,
      "note": 110,
      "start": 88.1198,
      "duration": 0.1209,
      "velocity": 127,
      "chip": "ym2612"
    },
    {
      "channel": 1,
      "note": 49,
      "start": 88.2387,
      "duration": 0.0883,
      "velocity": 103,
      "chip": "ym2612"
    },
    {
      "channel": 4,
      "note": 43,
      "start": 88.2409,
      "duration": 0.1834,
      "velocity": 107,
      "chip": "ym2612"
    },
    {
      "channel": 0,
      "note": 37,
      "start": 88.3266,
      "duration": 0.0948,
      "velocity": 107,
      "chip": "ym2612"
    },
    {
      "channel": 1,
      "note": 59,
      "start": 88.3272,
      "duration": 0.0948,
      "velocity": 103,
      "chip": "ym2612"
    },
    {
      "channel": 0,
      "note": 42,
      "start": 88.4216,
      "duration": 0.2398,
      "velocity": 107,
      "chip": "ym2612"
    },
    {
      "channel": 1,
      "note": 61,
      "start": 88.4222,
      "duration": 0.1194,
      "velocity": 103,
      "chip": "ym2612"
    },
    {
      "channel": 4,
      "note": 110,
      "start": 88.4244,
      "duration": 0.1193,
      "velocity": 107,
      "chip": "ym2612"
    },
    {
      "channel": 5,
      "note": 96,
      "start": 88.425,
      "duration": 0.4252,
      "velocity": 127,
      "chip": "ym2612"
    },
    {
      "channel": 1,
      "note": 47,
      "start": 88.5417,
      "duration": 0.1203,
      "velocity": 103,
      "chip": "ym2612"
    },
    {
      "channel": 4,
      "note": 110,
      "start": 88.5439,
      "duration": 0.1203,
      "velocity": 107,
      "chip": "ym2612"
    },
    {
      "channel": 0,
      "note": 37,
      "start": 88.6616,
      "duration": 0.1868,
      "velocity": 107,
      "chip": "ym2612"
    },
    {
      "channel": 1,
      "note": 49,
      "start": 88.6622,
      "duration": 0.0925,
      "velocity": 103,
      "chip": "ym2612"
    },
    {
      "channel": 4,
      "note": 110,
      "start": 88.6644,
      "duration": 0.0925,
      "velocity": 107,
      "chip": "ym2612"
    },
    {
      "channel": 1,
      "note": 61,
      "start": 88.7549,
      "duration": 0.0941,
      "velocity": 103,
      "chip": "ym2612"
    },
    {
      "channel": 4,
      "note": 110,
      "start": 88.7571,
      "duration": 0.0925,
      "velocity": 107,
      "chip": "ym2612"
    },
    {
      "channel": 0,
      "note": 37,
      "start": 88.8486,
      "duration": 0.4228,
      "velocity": 107,
      "chip": "ym2612"
    },
    {
      "channel": 1,
      "note": 49,
      "start": 88.8491,
      "duration": 0.1194,
      "velocity": 103,
      "chip": "ym2612"
    },
    {
      "channel": 4,
      "note": 110,
      "start": 88.8498,
      "duration": 0.1194,
      "velocity": 107,
      "chip": "ym2612"
    },
    {
      "channel": 5,
      "note": 96,
      "start": 88.8504,
      "duration": 0.4244,
      "velocity": 127,
      "chip": "ym2612"
    },
    {
      "channel": 1,
      "note": 59,
      "start": 88.9687,
      "duration": 0.1198,
      "velocity": 103,
      "chip": "ym2612"
    },
    {
      "channel": 4,
      "note": 110,
      "start": 88.9693,
      "duration": 0.1214,
      "velocity": 127,
      "chip": "ym2612"
    },
    {
      "channel": 1,
      "note": 61,
      "start": 89.0886,
      "duration": 0.0878,
      "velocity": 103,
      "chip": "ym2612"
    },
    {
      "channel": 4,
      "note": 43,
      "start": 89.0909,
      "duration": 0.1833,
      "velocity": 107,
      "chip": "ym2612"
    },
    {
      "channel": 1,
      "note": 49,
      "start": 89.1766,
      "duration": 0.0954,
      "velocity": 103,
      "chip": "ym2612"
    },
    {
      "channel": 0,
      "note": 35,
      "start": 89.2716,
      "duration": 0.1198,
      "velocity": 107,
      "chip": "ym2612"
    },
    {
      "channel": 1,
      "note": 61,
      "start": 89.2722,
      "duration": 0.1199,
      "velocity": 103,
      "chip": "ym2612"
    },
    {
      "channel": 4,
      "note": 110,
      "start": 89.2744,
      "duration": 0.1198,
      "velocity": 127,
      "chip": "ym2612"
    },
    {
      "channel": 5,
      "note": 96,
      "start": 89.275,
      "duration": 0.4271,
      "velocity": 127,
      "chip": "ym2612"
    },
    {
      "channel": 0,
      "note": 37,
      "start": 89.3916,
      "duration": 0.1198,
      "velocity": 107,
      "chip": "ym2612"
    },
    {
      "channel": 1,
      "note": 49,
      "start": 89.3922,
      "duration": 0.1198,
      "velocity": 103,
      "chip": "ym2612"
    },
    {
      "channel": 4,
      "note": 43,
      "start": 89.3944,
      "duration": 0.1198,
      "velocity": 107,
      "chip": "ym2612"
    },
    {
      "channel": 0,
      "note": 40,
      "start": 89.5116,
      "duration": 0.1871,
      "velocity": 107,
      "chip": "ym2612"
    },
    {
      "channel": 1,
      "note": 59,
      "start": 89.5122,
      "duration": 0.0936,
      "velocity": 103,
      "chip": "ym2612"
    },
    {
      "channel": 4,
      "note": 110,
      "start": 89.5144,
      "duration": 0.0935,
      "velocity": 127,
      "chip": "ym2612"
    },
    {
      "channel": 1,
      "note": 61,
      "start": 89.6059,
      "duration": 0.0933,
      "velocity": 103,
      "chip": "ym2612"
    },
    {
      "channel": 4,
      "note": 43,
      "start": 89.6082,
      "duration": 0.0934,
      "velocity": 107,
      "chip": "ym2612"
    },
    {
      "channel": 0,
      "note": 37,
      "start": 89.6988,
      "duration": 0.1198,
      "velocity": 107,
      "chip": "ym2612"
    },
    {
      "channel": 1,
      "note": 49,
      "start": 89.6994,
      "duration": 0.1198,
      "velocity": 103,
      "chip": "ym2612"
    },
    {
      "channel": 4,
      "note": 110,
      "start": 89.7017,
      "duration": 0.1182,
      "velocity": 107,
      "chip": "ym2612"
    },
    {
      "channel": 5,
      "note": 96,
      "start": 89.7023,
      "duration": 0.4232,
      "velocity": 127,
      "chip": "ym2612"
    },
    {
      "channel": 0,
      "note": 40,
      "start": 89.8188,
      "duration": 0.2079,
      "velocity": 107,
      "chip": "ym2612"
    },
    {
      "channel": 1,
      "note": 61,
      "start": 89.8194,
      "duration": 0.1194,
      "velocity": 103,
      "chip": "ym2612"
    },
    {
      "channel": 4,
      "note": 110,
      "start": 89.8201,
      "duration": 0.1209,
      "velocity": 127,
      "chip": "ym2612"
    },
    {
      "channel": 1,
      "note": 49,
      "start": 89.9389,
      "duration": 0.0884,
      "velocity": 103,
      "chip": "ym2612"
    },
    {
      "channel": 4,
      "note": 43,
      "start": 89.9412,
      "duration": 0.1837,
      "velocity": 107,
      "chip": "ym2612"
    },
    {
      "channel": 0,
      "note": 37,
      "start": 90.0269,
      "duration": 0.0951,
      "velocity": 107,
      "chip": "ym2612"
    },
    {
      "channel": 1,
      "note": 59,
      "start": 90.0275,
      "duration": 0.0951,
      "velocity": 103,
      "chip": "ym2612"
    },
    {
      "channel": 0,
      "note": 42,
      "start": 90.1222,
      "duration": 0.2088,
      "velocity": 107,
      "chip": "ym2612"
    },
    {
      "channel": 1,
      "note": 61,
      "start": 90.1228,
      "duration": 0.1193,
      "velocity": 103,
      "chip": "ym2612"
    },
    {
      "channel": 4,
      "note": 110,
      "start": 90.125,
      "duration": 0.1193,
      "velocity": 107,
      "chip": "ym2612"
    },
    {
      "channel": 5,
      "note": 96,
      "start": 90.1256,
      "duration": 0.3932,
      "velocity": 127,
      "chip": "ym2612"
    },
    {
      "channel": 1,
      "note": 47,
      "start": 90.2423,
      "duration": 0.0893,
      "velocity": 103,
      "chip": "ym2612"
    },
    {
      "channel": 4,
      "note": 110,
      "start": 90.2445,
      "duration": 0.0935,
      "velocity": 107,
      "chip": "ym2612"
    },
    {
      "channel": 0,
      "note": 37,
      "start": 90.3311,
      "duration": 0.1858,
      "velocity": 107,
      "chip": "ym2612"
    },
    {
      "channel": 1,
      "note": 49,
      "start": 90.3317,
      "duration": 0.0919,
      "velocity": 103,
      "chip": "ym2612"
    },
    {
      "channel": 2,
      "note": 85,
      "start": 90.3339,
      "duration": 3.3335,
      "velocity": 103,
      "chip": "ym2612"
    },
    {
      "channel": 3,
      "note": 90,
      "start": 90.3361,
      "duration": 3.3334,
      "velocity": 103,
      "chip": "ym2612"
    },
    {
      "channel": 4,
      "note": 110,
      "start": 90.3382,
      "duration": 0.0876,
      "velocity": 107,
      "chip": "ym2612"
    },
    {
      "channel": 1,
      "note": 61,
      "start": 90.4238,
      "duration": 0.0937,
      "velocity": 103,
      "chip": "ym2612"
    },
    {
      "channel": 4,
      "note": 110,
      "start": 90.4261,
      "duration": 0.0921,
      "velocity": 107,
      "chip": "ym2612"
    },
    {
      "channel": 0,
      "note": 37,
      "start": 90.5171,
      "duration": 0.4232,
      "velocity": 107,
      "chip": "ym2612"
    },
    {
      "channel": 1,
      "note": 49,
      "start": 90.5177,
      "duration": 0.1194,
      "velocity": 103,
      "chip": "ym2612"
    },
    {
      "channel": 4,
      "note": 110,
      "start": 90.5184,
      "duration": 0.1194,
      "velocity": 107,
      "chip": "ym2612"
    },
    {
      "channel": 5,
      "note": 96,
      "start": 90.5189,
      "duration": 0.4279,
      "velocity": 127,
      "chip": "ym2612"
    },
    {
      "channel": 1,
      "note": 59,
      "start": 90.6372,
      "duration": 0.1198,
      "velocity": 103,
      "chip": "ym2612"
    },
    {
      "channel": 4,
      "note": 110,
      "start": 90.6378,
      "duration": 0.1214,
      "velocity": 127,
      "chip": "ym2612"
    },
    {
      "channel": 1,
      "note": 61,
      "start": 90.7571,
      "duration": 0.0878,
      "velocity": 103,
      "chip": "ym2612"
    },
    {
      "channel": 4,
      "note": 43,
      "start": 90.7595,
      "duration": 0.1868,
      "velocity": 107,
      "chip": "ym2612"
    },
    {
      "channel": 1,
      "note": 49,
      "start": 90.845,
      "duration": 0.0959,
      "velocity": 103,
      "chip": "ym2612"
    },
    {
      "channel": 0,
      "note": 35,
      "start": 90.9405,
      "duration": 0.1198,
      "velocity": 107,
      "chip": "ym2612"
    },
    {
      "channel": 1,
      "note": 61,
      "start": 90.941,
      "duration": 0.1199,
      "velocity": 103,
      "chip": "ym2612"
    },
    {
      "channel": 4,
      "note": 110,
      "start": 90.9465,
      "duration": 0.1166,
      "velocity": 107,
      "chip": "ym2612"
    },
    {
      "channel": 5,
      "note": 96,
      "start": 90.9471,
      "duration": 0.3888,
      "velocity": 127,
      "chip": "ym2612"
    },
    {
      "channel": 0,
      "note": 37,
      "start": 91.0605,
      "duration": 0.0888,
      "velocity": 107,
      "chip": "ym2612"
    },
    {
      "channel": 1,
      "note": 49,
      "start": 91.061,
      "duration": 0.0888,
      "velocity": 103,
      "chip": "ym2612"
    },
    {
      "channel": 4,
      "note": 110,
      "start": 91.0633,
      "duration": 0.0888,
      "velocity": 107,
      "chip": "ym2612"
    },
    {
      "channel": 0,
      "note": 40,
      "start": 91.1494,
      "duration": 0.1847,
      "velocity": 107,
      "chip": "ym2612"
    },
    {
      "channel": 1,
      "note": 59,
      "start": 91.15,
      "duration": 0.0916,
      "velocity": 103,
      "chip": "ym2612"
    },
    {
      "channel": 4,
      "note": 110,
      "start": 91.1522,
      "duration": 0.0916,
      "velocity": 107,
      "chip": "ym2612"
    },
    {
      "channel": 1,
      "note": 61,
      "start": 91.2417,
      "duration": 0.0929,
      "velocity": 103,
      "chip": "ym2612"
    },
    {
      "channel": 4,
      "note": 110,
      "start": 91.244,
      "duration": 0.0913,
      "velocity": 107,
      "chip": "ym2612"
    },
    {
      "channel": 0,
      "note": 37,
      "start": 91.3343,
      "duration": 0.1198,
      "velocity": 107,
      "chip": "ym2612"
    },
    {
      "channel": 1,
      "note": 49,
      "start": 91.3348,
      "duration": 0.1199,
      "velocity": 103,
      "chip": "ym2612"
    },
    {
      "channel": 4,
      "note": 110,
      "start": 91.3355,
      "duration": 0.1198,
      "velocity": 107,
      "chip": "ym2612"
    },
    {
      "channel": 5,
      "note": 96,
      "start": 91.3361,
      "duration": 0.425,
      "velocity": 127,
      "chip": "ym2612"
    },
    {
      "channel": 0,
      "note": 40,
      "start": 91.4543,
      "duration": 0.208,
      "velocity": 107,
      "chip": "ym2612"
    },
    {
      "channel": 1,
      "note": 61,
      "start": 91.4548,
      "duration": 0.1194,
      "velocity": 103,
      "chip": "ym2612"
    },
    {
      "channel": 4,
      "note": 110,
      "start": 91.4555,
      "duration": 0.1209,
      "velocity": 127,
      "chip": "ym2612"
    },
    {
      "channel": 1,
      "note": 49,
      "start": 91.5743,
      "duration": 0.0885,
      "velocity": 103,
      "chip": "ym2612"
    },
    {
      "channel": 4,
      "note": 43,
      "start": 91.5766,
      "duration": 0.1839,
      "velocity": 107,
      "chip": "ym2612"
    },
    {
      "channel": 0,
      "note": 37,
      "start": 91.6625,
      "duration": 0.0952,
      "velocity": 107,
      "chip": "ym2612"
    },
    {
      "channel": 1,
      "note": 59,
      "start": 91.6631,
      "duration": 0.0952,
      "velocity": 103,
      "chip": "ym2612"
    },
    {
      "channel": 0,
      "note": 42,
      "start": 91.7579,
      "duration": 0.2398,
      "velocity": 107,
      "chip": "ym2612"
    },
    {
      "channel": 1,
      "note": 61,
      "start": 91.7584,
      "duration": 0.1194,
      "velocity": 103,
      "chip": "ym2612"
    },
    {
      "channel": 4,
      "note": 110,
      "start": 91.7607,
      "duration": 0.1193,
      "velocity": 107,
      "chip": "ym2612"
    },
    {
      "channel": 5,
      "note": 96,
      "start": 91.7613,
      "duration": 0.4241,
      "velocity": 127,
      "chip": "ym2612"
    },
    {
      "channel": 1,
      "note": 47,
      "start": 91.878,
      "duration": 0.1203,
      "velocity": 103,
      "chip": "ym2612"
    },
    {
      "channel": 4,
      "note": 110,
      "start": 91.8802,
      "duration": 0.1203,
      "velocity": 107,
      "chip": "ym2612"
    },
    {
      "channel": 0,
      "note": 37,
      "start": 91.9979,
      "duration": 0.1857,
      "velocity": 107,
      "chip": "ym2612"
    },
    {
      "channel": 1,
      "note": 49,
      "start": 91.9984,
      "duration": 0.0922,
      "velocity": 103,
      "chip": "ym2612"
    },
    {
      "channel": 4,
      "note": 110,
      "start": 92.0007,
      "duration": 0.0922,
      "velocity": 107,
      "chip": "ym2612"
    },
    {
      "channel": 1,
      "note": 61,
      "start": 92.0908,
      "duration": 0.0933,
      "velocity": 103,
      "chip": "ym2612"
    },
    {
      "channel": 4,
      "note": 110,
      "start": 92.0931,
      "duration": 0.0918,
      "velocity": 107,
      "chip": "ym2612"
    },
    {
      "channel": 0,
      "note": 37,
      "start": 92.1837,
      "duration": 0.423,
      "velocity": 107,
      "chip": "ym2612"
    },
    {
      "channel": 1,
      "note": 49,
      "start": 92.1843,
      "duration": 0.1193,
      "velocity": 103,
      "chip": "ym2612"
    },
    {
      "channel": 4,
      "note": 110,
      "start": 92.185,
      "duration": 0.1193,
      "velocity": 107,
      "chip": "ym2612"
    },
    {
      "channel": 5,
      "note": 96,
      "start": 92.1856,
      "duration": 0.4245,
      "velocity": 127,
      "chip": "ym2612"
    },
    {
      "channel": 1,
      "note": 59,
      "start": 92.3038,
      "duration": 0.1198,
      "velocity": 103,
      "chip": "ym2612"
    },
    {
      "channel": 4,
      "note": 110,
      "start": 92.3044,
      "duration": 0.1214,
      "velocity": 127,
      "chip": "ym2612"
    },
    {
      "channel": 1,
      "note": 61,
      "start": 92.4237,
      "duration": 0.0877,
      "velocity": 103,
      "chip": "ym2612"
    },
    {
      "channel": 4,
      "note": 43,
      "start": 92.4261,
      "duration": 0.1835,
      "velocity": 107,
      "chip": "ym2612"
    },
    {
      "channel": 1,
      "note": 49,
      "start": 92.5115,
      "duration": 0.0957,
      "velocity": 103,
      "chip": "ym2612"
    },
    {
      "channel": 0,
      "note": 35,
      "start": 92.6069,
      "duration": 0.1198,
      "velocity": 107,
      "chip": "ym2612"
    },
    {
      "channel": 1,
      "note": 61,
      "start": 92.6074,
      "duration": 0.1199,
      "velocity": 103,
      "chip": "ym2612"
    },
    {
      "channel": 4,
      "note": 110,
      "start": 92.6097,
      "duration": 0.1198,
      "velocity": 127,
      "chip": "ym2612"
    },
    {
      "channel": 5,
      "note": 96,
      "start": 92.6103,
      "duration": 0.4255,
      "velocity": 127,
      "chip": "ym2612"
    },
    {
      "channel": 0,
      "note": 37,
      "start": 92.7269,
      "duration": 0.1198,
      "velocity": 107,
      "chip": "ym2612"
    },
    {
      "channel": 1,
      "note": 49,
      "start": 92.7274,
      "duration": 0.1199,
      "velocity": 103,
      "chip": "ym2612"
    },
    {
      "channel": 4,
      "note": 43,
      "start": 92.7297,
      "duration": 0.1198,
      "velocity": 107,
      "chip": "ym2612"
    },
    {
      "channel": 0,
      "note": 40,
      "start": 92.8469,
      "duration": 0.1855,
      "velocity": 107,
      "chip": "ym2612"
    },
    {
      "channel": 1,
      "note": 59,
      "start": 92.8474,
      "duration": 0.0922,
      "velocity": 103,
      "chip": "ym2612"
    },
    {
      "channel": 4,
      "note": 110,
      "start": 92.8497,
      "duration": 0.0922,
      "velocity": 127,
      "chip": "ym2612"
    },
    {
      "channel": 1,
      "note": 61,
      "start": 92.9398,
      "duration": 0.0932,
      "velocity": 103,
      "chip": "ym2612"
    },
    {
      "channel": 4,
      "note": 43,
      "start": 92.9421,
      "duration": 0.0932,
      "velocity": 107,
      "chip": "ym2612"
    },
    {
      "channel": 0,
      "note": 37,
      "start": 93.0326,
      "duration": 0.1198,
      "velocity": 107,
      "chip": "ym2612"
    },
    {
      "channel": 1,
      "note": 49,
      "start": 93.0331,
      "duration": 0.1199,
      "velocity": 103,
      "chip": "ym2612"
    },
    {
      "channel": 4,
      "note": 110,
      "start": 93.0354,
      "duration": 0.1182,
      "velocity": 107,
      "chip": "ym2612"
    },
    {
      "channel": 5,
      "note": 96,
      "start": 93.036,
      "duration": 0.4231,
      "velocity": 127,
      "chip": "ym2612"
    },
    {
      "channel": 0,
      "note": 40,
      "start": 93.1526,
      "duration": 0.208,
      "velocity": 107,
      "chip": "ym2612"
    },
    {
      "channel": 1,
      "note": 61,
      "start": 93.1531,
      "duration": 0.1194,
      "velocity": 103,
      "chip": "ym2612"
    },
    {
      "channel": 4,
      "note": 110,
      "start": 93.1538,
      "duration": 0.1209,
      "velocity": 127,
      "chip": "ym2612"
    },
    {
      "channel": 1,
      "note": 49,
      "start": 93.2727,
      "duration": 0.0885,
      "velocity": 103,
      "chip": "ym2612"
    },
    {
      "channel": 4,
      "note": 43,
      "start": 93.2749,
      "duration": 0.1836,
      "velocity": 107,
      "chip": "ym2612"
    },
    {
      "channel": 0,
      "note": 37,
      "start": 93.3608,
      "duration": 0.0949,
      "velocity": 107,
      "chip": "ym2612"
    },
    {
      "channel": 1,
      "note": 59,
      "start": 93.3614,
      "duration": 0.0949,
      "velocity": 103,
      "chip": "ym2612"
    },
    {
      "channel": 0,
      "note": 42,
      "start": 93.4559,
      "duration": 0.2086,
      "velocity": 107,
      "chip": "ym2612"
    },
    {
      "channel": 1,
      "note": 61,
      "start": 93.4564,
      "duration": 0.1194,
      "velocity": 103,
      "chip": "ym2612"
    },
    {
      "channel": 4,
      "note": 110,
      "start": 93.4587,
      "duration": 0.1194,
      "velocity": 127,
      "chip": "ym2612"
    },
    {
      "channel": 5,
      "note": 96,
      "start": 93.4593,
      "duration": 0.3936,
      "velocity": 127,
      "chip": "ym2612"
    },
    {
      "channel": 1,
      "note": 47,
      "start": 93.5761,
      "duration": 0.0891,
      "velocity": 103,
      "chip": "ym2612"
    },
    {
      "channel": 4,
      "note": 43,
      "start": 93.5783,
      "duration": 0.0934,
      "velocity": 122,
      "chip": "ym2612"
    },
    {
      "channel": 0,
      "note": 37,
      "start": 93.6647,
      "duration": 0.1869,
      "velocity": 107,
      "chip": "ym2612"
    },
    {
      "channel": 1,
      "note": 88,
      "start": 93.6654,
      "duration": 3.4042,
      "velocity": 103,
      "chip": "ym2612"
    },
    {
      "channel": 2,
      "note": 92,
      "start": 93.6675,
      "duration": 3.4041,
      "velocity": 103,
      "chip": "ym2612"
    },
    {
      "channel": 3,
      "note": 85,
      "start": 93.6697,
      "duration": 3.4041,
      "velocity": 103,
      "chip": "ym2612"
    },
    {
      "channel": 4,
      "note": 61,
      "start": 93.6719,
      "duration": 0.0895,
      "velocity": 122,
      "chip": "ym2612"
    },
    {
      "channel": 4,
      "note": 61,
      "start": 93.7616,
      "duration": 0.0907,
      "velocity": 122,
      "chip": "ym2612"
    },
    {
      "channel": 0,
      "note": 37,
      "start": 93.8517,
      "duration": 0.423,
      "velocity": 107,
      "chip": "ym2612"
    },
    {
      "channel": 4,
      "note": 59,
      "start": 93.8525,
      "duration": 0.1193,
      "velocity": 122,
      "chip": "ym2612"
    },
    {
      "channel": 5,
      "note": 96,
      "start": 93.8531,
      "duration": 0.4278,
      "velocity": 127,
      "chip": "ym2612"
    },
    {
      "channel": 4,
      "note": 61,
      "start": 93.9719,
      "duration": 0.1198,
      "velocity": 122,
      "chip": "ym2612"
    },
    {
      "channel": 4,
      "note": 64,
      "start": 94.0919,
      "duration": 0.0911,
      "velocity": 122,
      "chip": "ym2612"
    },
    {
      "channel": 4,
      "note": 61,
      "start": 94.1832,
      "duration": 0.0971,
      "velocity": 122,
      "chip": "ym2612"
    },
    {
      "channel": 0,
      "note": 35,
      "start": 94.2749,
      "duration": 0.1198,
      "velocity": 107,
      "chip": "ym2612"
    },
    {
      "channel": 4,
      "note": 59,
      "start": 94.2804,
      "duration": 0.1151,
      "velocity": 122,
      "chip": "ym2612"
    },
    {
      "channel": 5,
      "note": 96,
      "start": 94.281,
      "duration": 0.4206,
      "velocity": 127,
      "chip": "ym2612"
    },
    {
      "channel": 0,
      "note": 37,
      "start": 94.3949,
      "duration": 0.1198,
      "velocity": 107,
      "chip": "ym2612"
    },
    {
      "channel": 4,
      "note": 61,
      "start": 94.3956,
      "duration": 0.9711,
      "velocity": 122,
      "chip": "ym2612"
    },
    {
      "channel": 0,
      "note": 40,
      "start": 94.5148,
      "duration": 0.186,
      "velocity": 107,
      "chip": "ym2612"
    },
    {
      "channel": 0,
      "note": 37,
      "start": 94.701,
      "duration": 0.1198,
      "velocity": 107,
      "chip": "ym2612"
    },
    {
      "channel": 5,
      "note": 96,
      "start": 94.7017,
      "duration": 0.4251,
      "velocity": 127,
      "chip": "ym2612"
    },
    {
      "channel": 0,
      "note": 40,
      "start": 94.821,
      "duration": 0.2121,
      "velocity": 107,
      "chip": "ym2612"
    },
    {
      "channel": 0,
      "note": 37,
      "start": 95.0332,
      "duration": 0.0928,
      "velocity": 107,
      "chip": "ym2612"
    },
    {
      "channel": 0,
      "note": 42,
      "start": 95.1262,
      "duration": 0.2399,
      "velocity": 107,
      "chip": "ym2612"
    },
    {
      "channel": 5,
      "note": 96,
      "start": 95.1269,
      "duration": 0.4246,
      "velocity": 127,
      "chip": "ym2612"
    },
    {
      "channel": 0,
      "note": 35,
      "start": 95.3662,
      "duration": 0.184,
      "velocity": 107,
      "chip": "ym2612"
    },
    {
      "channel": 4,
      "note": 59,
      "start": 95.3669,
      "duration": 0.0923,
      "velocity": 122,
      "chip": "ym2612"
    },
    {
      "channel": 4,
      "note": 59,
      "start": 95.4594,
      "duration": 0.0916,
      "velocity": 122,
      "chip": "ym2612"
    },
    {
      "channel": 0,
      "note": 35,
      "start": 95.5504,
      "duration": 0.4241,
      "velocity": 107,
      "chip": "ym2612"
    },
    {
      "channel": 4,
      "note": 57,
      "start": 95.5512,
      "duration": 0.1192,
      "velocity": 122,
      "chip": "ym2612"
    },
    {
      "channel": 5,
      "note": 96,
      "start": 95.5518,
      "duration": 0.424,
      "velocity": 127,
      "chip": "ym2612"
    },
    {
      "channel": 4,
      "note": 59,
      "start": 95.6706,
      "duration": 0.1198,
      "velocity": 122,
      "chip": "ym2612"
    },
    {
      "channel": 4,
      "note": 62,
      "start": 95.7906,
      "duration": 0.0911,
      "velocity": 122,
      "chip": "ym2612"
    },
    {
      "channel": 4,
      "note": 59,
      "start": 95.8819,
      "duration": 0.0932,
      "velocity": 122,
      "chip": "ym2612"
    },
    {
      "channel": 0,
      "note": 33,
      "start": 95.9746,
      "duration": 0.1199,
      "velocity": 107,
      "chip": "ym2612"
    },
    {
      "channel": 4,
      "note": 57,
      "start": 95.9754,
      "duration": 0.1198,
      "velocity": 122,
      "chip": "ym2612"
    },
    {
      "channel": 5,
      "note": 96,
      "start": 95.9759,
      "duration": 0.4245,
      "velocity": 127,
      "chip": "ym2612"
    },
    {
      "channel": 0,
      "note": 35,
      "start": 96.0946,
      "duration": 0.1199,
      "velocity": 107,
      "chip": "ym2612"
    },
    {
      "channel": 4,
      "note": 59,
      "start": 96.0954,
      "duration": 0.9791,
      "velocity": 122,
      "chip": "ym2612"
    },
    {
      "channel": 0,
      "note": 38,
      "start": 96.2146,
      "duration": 0.1851,
      "velocity": 107,
      "chip": "ym2612"
    },
    {
      "channel": 0,
      "note": 35,
      "start": 96.3998,
      "duration": 0.1198,
      "velocity": 107,
      "chip": "ym2612"
    },
    {
      "channel": 5,
      "note": 96,
      "start": 96.4006,
      "duration": 0.4274,
      "velocity": 127,
      "chip": "ym2612"
    },
    {
      "channel": 0,
      "note": 38,
      "start": 96.5198,
      "duration": 0.2128,
      "velocity": 107,
      "chip": "ym2612"
    },
    {
      "channel": 0,
      "note": 35,
      "start": 96.7328,
      "duration": 0.0945,
      "velocity": 107,
      "chip": "ym2612"
    },
    {
      "channel": 0,
      "note": 40,
      "start": 96.8274,
      "duration": 0.2399,
      "velocity": 107,
      "chip": "ym2612"
    },
    {
      "channel": 5,
      "note": 96,
      "start": 96.8282,
      "duration": 0.4273,
      "velocity": 127,
      "chip": "ym2612"
    },
    {
      "channel": 0,
      "note": 37,
      "start": 97.0675,
      "duration": 0.1867,
      "velocity": 107,
      "chip": "ym2612"
    },
    {
      "channel": 1,
      "note": 83,
      "start": 97.0696,
      "duration": 3.4046,
      "velocity": 103,
      "chip": "ym2612"
    },
    {
      "channel": 2,
      "note": 85,
      "start": 97.0718,
      "duration": 3.4046,
      "velocity": 111,
      "chip": "ym2612"
    },
    {
      "channel": 3,
      "note": 90,
      "start": 97.0741,
      "duration": 3.4044,
      "velocity": 1,
      "chip": "ym2612"
    },
    {
      "channel": 4,
      "note": 61,
      "start": 97.0746,
      "duration": 0.0867,
      "velocity": 122,
      "chip": "ym2612"
    },
    {
      "channel": 4,
      "note": 61,
      "start": 97.1615,
      "duration": 0.0934,
      "velocity": 122,
      "chip": "ym2612"
    },
    {
      "channel": 0,
      "note": 37,
      "start": 97.2544,
      "duration": 0.4229,
      "velocity": 107,
      "chip": "ym2612"
    },
    {
      "channel": 4,
      "note": 59,
      "start": 97.2551,
      "duration": 0.1192,
      "velocity": 122,
      "chip": "ym2612"
    },
    {
      "channel": 5,
      "note": 96,
      "start": 97.2557,
      "duration": 0.4276,
      "velocity": 127,
      "chip": "ym2612"
    },
    {
      "channel": 4,
      "note": 61,
      "start": 97.3746,
      "duration": 0.1198,
      "velocity": 122,
      "chip": "ym2612"
    },
    {
      "channel": 4,
      "note": 64,
      "start": 97.4946,
      "duration": 0.0915,
      "velocity": 122,
      "chip": "ym2612"
    },
    {
      "channel": 4,
      "note": 61,
      "start": 97.5863,
      "duration": 0.0964,
      "velocity": 122,
      "chip": "ym2612"
    },
    {
      "channel": 0,
      "note": 35,
      "start": 97.6774,
      "duration": 0.1198,
      "velocity": 107,
      "chip": "ym2612"
    },
    {
      "channel": 4,
      "note": 59,
      "start": 97.6829,
      "duration": 0.1151,
      "velocity": 122,
      "chip": "ym2612"
    },
    {
      "channel": 5,
      "note": 96,
      "start": 97.6835,
      "duration": 0.4209,
      "velocity": 127,
      "chip": "ym2612"
    },
    {
      "channel": 0,
      "note": 37,
      "start": 97.7974,
      "duration": 0.1198,
      "velocity": 107,
      "chip": "ym2612"
    },
    {
      "channel": 4,
      "note": 61,
      "start": 97.7982,
      "duration": 0.9715,
      "velocity": 122,
      "chip": "ym2612"
    },
    {
      "channel": 0,
      "note": 40,
      "start": 97.9173,
      "duration": 0.1862,
      "velocity": 107,
      "chip": "ym2612"
    },
    {
      "channel": 0,
      "note": 37,
      "start": 98.1038,
      "duration": 0.1198,
      "velocity": 107,
      "chip": "ym2612"
    },
    {
      "channel": 5,
      "note": 96,
      "start": 98.1045,
      "duration": 0.4252,
      "velocity": 127,
      "chip": "ym2612"
    },
    {
      "channel": 0,
      "note": 40,
      "start": 98.2238,
      "duration": 0.2127,
      "velocity": 107,
      "chip": "ym2612"
    },
    {
      "channel": 0,
      "note": 37,
      "start": 98.4367,
      "duration": 0.0922,
      "velocity": 107,
      "chip": "ym2612"
    },
    {
      "channel": 0,
      "note": 42,
      "start": 98.5291,
      "duration": 0.2399,
      "velocity": 107,
      "chip": "ym2612"
    },
    {
      "channel": 5,
      "note": 96,
      "start": 98.5299,
      "duration": 0.4263,
      "velocity": 127,
      "chip": "ym2612"
    },
    {
      "channel": 0,
      "note": 44,
      "start": 98.7691,
      "duration": 0.1857,
      "velocity": 107,
      "chip": "ym2612"
    },
    {
      "channel": 4,
      "note": 56,
      "start": 98.7698,
      "duration": 0.092,
      "velocity": 122,
      "chip": "ym2612"
    },
    {
      "channel": 4,
      "note": 56,
      "start": 98.862,
      "duration": 0.0935,
      "velocity": 122,
      "chip": "ym2612"
    },
    {
      "channel": 0,
      "note": 44,
      "start": 98.955,
      "duration": 0.4252,
      "velocity": 107,
      "chip": "ym2612"
    },
    {
      "channel": 4,
      "note": 54,
      "start": 98.9557,
      "duration": 0.1193,
      "velocity": 122,
      "chip": "ym2612"
    },
    {
      "channel": 5,
      "note": 96,
      "start": 98.9563,
      "duration": 0.4252,
      "velocity": 127,
      "chip": "ym2612"
    },
    {
      "channel": 4,
      "note": 56,
      "start": 99.0752,
      "duration": 0.1198,
      "velocity": 122,
      "chip": "ym2612"
    },
    {
      "channel": 4,
      "note": 59,
      "start": 99.1952,
      "duration": 0.0918,
      "velocity": 122,
      "chip": "ym2612"
    },
    {
      "channel": 4,
      "note": 56,
      "start": 99.2872,
      "duration": 0.0937,
      "velocity": 122,
      "chip": "ym2612"
    },
    {
      "channel": 0,
      "note": 42,
      "start": 99.3804,
      "duration": 0.1198,
      "velocity": 107,
      "chip": "ym2612"
    },
    {
      "channel": 4,
      "note": 54,
      "start": 99.3811,
      "duration": 0.1198,
      "velocity": 122,
      "chip": "ym2612"
    },
    {
      "channel": 5,
      "note": 96,
      "start": 99.3817,
      "duration": 0.4244,
      "velocity": 127,
      "chip": "ym2612"
    },
    {
      "channel": 0,
      "note": 44,
      "start": 99.5003,
      "duration": 0.1199,
      "velocity": 107,
      "chip": "ym2612"
    },
    {
      "channel": 4,
      "note": 56,
      "start": 99.5011,
      "duration": 0.9781,
      "velocity": 122,
      "chip": "ym2612"
    },
    {
      "channel": 0,
      "note": 47,
      "start": 99.6204,
      "duration": 0.1849,
      "velocity": 107,
      "chip": "ym2612"
    },
    {
      "channel": 0,
      "note": 44,
      "start": 99.8054,
      "duration": 0.1198,
      "velocity": 107,
      "chip": "ym2612"
    },
    {
      "channel": 5,
      "note": 96,
      "start": 99.8062,
      "duration": 0.4265,
      "velocity": 127,
      "chip": "ym2612"
    },
    {
      "channel": 0,
      "note": 47,
      "start": 99.9254,
      "duration": 0.2121,
      "velocity": 107,
      "chip": "ym2612"
    },
    {
      "channel": 0,
      "note": 44,
      "start": 100.1377,
      "duration": 0.0941,
      "velocity": 107,
      "chip": "ym2612"
    },
    {
      "channel": 0,
      "note": 51,
      "start": 100.2321,
      "duration": 0.24,
      "velocity": 107,
      "chip": "ym2612"
    },
    {
      "channel": 5,
      "note": 96,
      "start": 100.2328,
      "duration": 0.4276,
      "velocity": 127,
      "chip": "ym2612"
    },
    {
      "channel": 0,
      "note": 37,
      "start": 100.4722,
      "duration": 0.1863,
      "velocity": 107,
      "chip": "ym2612"
    },
    {
      "channel": 1,
      "note": 49,
      "start": 100.4744,
      "duration": 0.0914,
      "velocity": 103,
      "chip": "ym2612"
    },
    {
      "channel": 2,
      "note": 61,
      "start": 100.4765,
      "duration": 1.0349,
      "velocity": 111,
      "chip": "ym2612"
    },
    {
      "channel": 3,
      "note": 55,
      "start": 100.4787,
      "duration": 0.4221,
      "velocity": 111,
      "chip": "ym2612"
    },
    {
      "channel": 4,
      "note": 61,
      "start": 100.4793,
      "duration": 0.0902,
      "velocity": 122,
      "chip": "ym2612"
    },
    {
      "channel": 1,
      "note": 61,
      "start": 100.5659,
      "duration": 0.0933,
      "velocity": 103,
      "chip": "ym2612"
    },
    {
      "channel": 4,
      "note": 61,
      "start": 100.5697,
      "duration": 0.0901,
      "velocity": 122,
      "chip": "ym2612"
    },
    {
      "channel": 0,
      "note": 37,
      "start": 100.6587,
      "duration": 0.427,
      "velocity": 107,
      "chip": "ym2612"
    },
    {
      "channel": 1,
      "note": 49,
      "start": 100.6593,
      "duration": 0.1192,
      "velocity": 103,
      "chip": "ym2612"
    },
    {
      "channel": 4,
      "note": 59,
      "start": 100.66,
      "duration": 0.1193,
      "velocity": 122,
      "chip": "ym2612"
    },
    {
      "channel": 5,
      "note": 96,
      "start": 100.6606,
      "duration": 0.427,
      "velocity": 127,
      "chip": "ym2612"
    },
    {
      "channel": 1,
      "note": 59,
      "start": 100.7787,
      "duration": 0.1198,
      "velocity": 103,
      "chip": "ym2612"
    },
    {
      "channel": 4,
      "note": 61,
      "start": 100.7794,
      "duration": 0.122,
      "velocity": 122,
      "chip": "ym2612"
    },
    {
      "channel": 1,
      "note": 61,
      "start": 100.8987,
      "duration": 0.0948,
      "velocity": 103,
      "chip": "ym2612"
    },
    {
      "channel": 3,
      "note": 61,
      "start": 100.901,
      "duration": 1.0355,
      "velocity": 111,
      "chip": "ym2612"
    },
    {
      "channel": 4,
      "note": 64,
      "start": 100.9015,
      "duration": 0.0927,
      "velocity": 122,
      "chip": "ym2612"
    },
    {
      "channel": 1,
      "note": 49,
      "start": 100.9937,
      "duration": 0.0925,
      "velocity": 103,
      "chip": "ym2612"
    },
    {
      "channel": 4,
      "note": 61,
      "start": 100.9944,
      "duration": 0.0925,
      "velocity": 122,
      "chip": "ym2612"
    },
    {
      "channel": 0,
      "note": 35,
      "start": 101.0858,
      "duration": 0.1198,
      "velocity": 107,
      "chip": "ym2612"
    },
    {
      "channel": 1,
      "note": 61,
      "start": 101.0864,
      "duration": 0.1198,
      "velocity": 103,
      "chip": "ym2612"
    },
    {
      "channel": 4,
      "note": 59,
      "start": 101.0871,
      "duration": 0.1198,
      "velocity": 122,
      "chip": "ym2612"
    },
    {
      "channel": 5,
      "note": 96,
      "start": 101.0878,
      "duration": 0.4244,
      "velocity": 127,
      "chip": "ym2612"
    },
    {
      "channel": 0,
      "note": 37,
      "start": 101.2058,
      "duration": 0.1198,
      "velocity": 107,
      "chip": "ym2612"
    },
    {
      "channel": 1,
      "note": 49,
      "start": 101.2064,
      "duration": 0.1198,
      "velocity": 103,
      "chip": "ym2612"
    },
    {
      "channel": 4,
      "note": 61,
      "start": 101.2071,
      "duration": 0.9695,
      "velocity": 122,
      "chip": "ym2612"
    },
    {
      "channel": 0,
      "note": 40,
      "start": 101.3258,
      "duration": 0.1845,
      "velocity": 107,
      "chip": "ym2612"
    },
    {
      "channel": 1,
      "note": 59,
      "start": 101.3263,
      "duration": 0.0918,
      "velocity": 103,
      "chip": "ym2612"
    },
    {
      "channel": 1,
      "note": 61,
      "start": 101.4182,
      "duration": 0.0926,
      "velocity": 103,
      "chip": "ym2612"
    },
    {
      "channel": 0,
      "note": 37,
      "start": 101.5104,
      "duration": 0.1198,
      "velocity": 107,
      "chip": "ym2612"
    },
    {
      "channel": 1,
      "note": 49,
      "start": 101.511,
      "duration": 0.1198,
      "velocity": 103,
      "chip": "ym2612"
    },
    {
      "channel": 2,
      "note": 63,
      "start": 101.5116,
      "duration": 0.2393,
      "velocity": 111,
      "chip": "ym2612"
    },
    {
      "channel": 5,
      "note": 96,
      "start": 101.5123,
      "duration": 0.4248,
      "velocity": 127,
      "chip": "ym2612"
    },
    {
      "channel": 0,
      "note": 40,
      "start": 101.6304,
      "duration": 0.2113,
      "velocity": 107,
      "chip": "ym2612"
    },
    {
      "channel": 1,
      "note": 61,
      "start": 101.631,
      "duration": 0.1194,
      "velocity": 103,
      "chip": "ym2612"
    },
    {
      "channel": 1,
      "note": 49,
      "start": 101.7505,
      "duration": 0.0918,
      "velocity": 103,
      "chip": "ym2612"
    },
    {
      "channel": 2,
      "note": 64,
      "start": 101.751,
      "duration": 0.1849,
      "velocity": 111,
      "chip": "ym2612"
    },
    {
      "channel": 0,
      "note": 37,
      "start": 101.8419,
      "duration": 0.0929,
      "velocity": 107,
      "chip": "ym2612"
    },
    {
      "channel": 1,
      "note": 59,
      "start": 101.8424,
      "duration": 0.0929,
      "velocity": 103,
      "chip": "ym2612"
    },
    {
      "channel": 0,
      "note": 42,
      "start": 101.9349,
      "duration": 0.2399,
      "velocity": 107,
      "chip": "ym2612"
    },
    {
      "channel": 1,
      "note": 61,
      "start": 101.9355,
      "duration": 0.1193,
      "velocity": 103,
      "chip": "ym2612"
    },
    {
      "channel": 2,
      "note": 63,
      "start": 101.9361,
      "duration": 1.5176,
      "velocity": 111,
      "chip": "ym2612"
    },
    {
      "channel": 3,
      "note": 63,
      "start": 101.9366,
      "duration": 0.2394,
      "velocity": 111,
      "chip": "ym2612"
    },
    {
      "channel": 5,
      "note": 96,
      "start": 101.9373,
      "duration": 0.4258,
      "velocity": 127,
      "chip": "ym2612"
    },
    {
      "channel": 1,
      "note": 49,
      "start": 102.055,
      "duration": 0.1203,
      "velocity": 103,
      "chip": "ym2612"
    },
    {
      "channel": 0,
      "note": 35,
      "start": 102.1749,
      "duration": 0.1858,
      "velocity": 107,
      "chip": "ym2612"
    },
    {
      "channel": 1,
      "note": 47,
      "start": 102.1755,
      "duration": 0.0928,
      "velocity": 103,
      "chip": "ym2612"
    },
    {
      "channel": 3,
      "note": 64,
      "start": 102.1762,
      "duration": 0.1857,
      "velocity": 111,
      "chip": "ym2612"
    },
    {
      "channel": 4,
      "note": 59,
      "start": 102.1767,
      "duration": 0.0923,
      "velocity": 122,
      "chip": "ym2612"
    },
    {
      "channel": 1,
      "note": 59,
      "start": 102.2685,
      "duration": 0.0928,
      "velocity": 103,
      "chip": "ym2612"
    },
    {
      "channel": 4,
      "note": 59,
      "start": 102.2692,
      "duration": 0.0933,
      "velocity": 122,
      "chip": "ym2612"
    },
    {
      "channel": 0,
      "note": 35,
      "start": 102.3609,
      "duration": 0.4253,
      "velocity": 107,
      "chip": "ym2612"
    },
    {
      "channel": 1,
      "note": 47,
      "start": 102.3614,
      "duration": 0.1194,
      "velocity": 103,
      "chip": "ym2612"
    },
    {
      "channel": 3,
      "note": 63,
      "start": 102.3621,
      "duration": 1.5196,
      "velocity": 111,
      "chip": "ym2612"
    },
    {
      "channel": 4,
      "note": 57,
      "start": 102.3626,
      "duration": 0.1188,
      "velocity": 122,
      "chip": "ym2612"
    },
    {
      "channel": 5,
      "note": 96,
      "start": 102.3632,
      "duration": 0.4248,
      "velocity": 127,
      "chip": "ym2612"
    },
    {
      "channel": 1,
      "note": 57,
      "start": 102.4809,
      "duration": 0.1198,
      "velocity": 103,
      "chip": "ym2612"
    },
    {
      "channel": 4,
      "note": 59,
      "start": 102.4816,
      "duration": 0.1198,
      "velocity": 122,
      "chip": "ym2612"
    },
    {
      "channel": 1,
      "note": 59,
      "start": 102.6008,
      "duration": 0.0925,
      "velocity": 103,
      "chip": "ym2612"
    },
    {
      "channel": 4,
      "note": 62,
      "start": 102.6015,
      "duration": 0.0925,
      "velocity": 122,
      "chip": "ym2612"
    },
    {
      "channel": 1,
      "note": 47,
      "start": 102.6935,
      "duration": 0.0932,
      "velocity": 103,
      "chip": "ym2612"
    },
    {
      "channel": 4,
      "note": 59,
      "start": 102.6942,
      "duration": 0.0932,
      "velocity": 122,
      "chip": "ym2612"
    },
    {
      "channel": 0,
      "note": 33,
      "start": 102.7863,
      "duration": 0.1198,
      "velocity": 107,
      "chip": "ym2612"
    },
    {
      "channel": 1,
      "note": 59,
      "start": 102.7869,
      "duration": 0.1198,
      "velocity": 103,
      "chip": "ym2612"
    },
    {
      "channel": 4,
      "note": 57,
      "start": 102.7876,
      "duration": 0.1198,
      "velocity": 122,
      "chip": "ym2612"
    },
    {
      "channel": 5,
      "note": 96,
      "start": 102.7881,
      "duration": 0.4262,
      "velocity": 127,
      "chip": "ym2612"
    },
    {
      "channel": 0,
      "note": 35,
      "start": 102.9063,
      "duration": 0.1198,
      "velocity": 107,
      "chip": "ym2612"
    },
    {
      "channel": 1,
      "note": 47,
      "start": 102.9069,
      "duration": 0.1199,
      "velocity": 103,
      "chip": "ym2612"
    },
    {
      "channel": 4,
      "note": 59,
      "start": 102.9076,
      "duration": 0.9747,
      "velocity": 122,
      "chip": "ym2612"
    },
    {
      "channel": 0,
      "note": 38,
      "start": 103.0263,
      "duration": 0.1867,
      "velocity": 107,
      "chip": "ym2612"
    },
    {
      "channel": 1,
      "note": 57,
      "start": 103.0269,
      "duration": 0.092,
      "velocity": 103,
      "chip": "ym2612"
    },
    {
      "channel": 1,
      "note": 59,
      "start": 103.119,
      "duration": 0.0946,
      "velocity": 103,
      "chip": "ym2612"
    },
    {
      "channel": 0,
      "note": 35,
      "start": 103.2132,
      "duration": 0.1199,
      "velocity": 107,
      "chip": "ym2612"
    },
    {
      "channel": 1,
      "note": 47,
      "start": 103.2138,
      "duration": 0.1198,
      "velocity": 103,
      "chip": "ym2612"
    },
    {
      "channel": 5,
      "note": 96,
      "start": 103.2145,
      "duration": 0.4267,
      "velocity": 127,
      "chip": "ym2612"
    },
    {
      "channel": 0,
      "note": 38,
      "start": 103.3332,
      "duration": 0.2125,
      "velocity": 107,
      "chip": "ym2612"
    },
    {
      "channel": 1,
      "note": 59,
      "start": 103.3338,
      "duration": 0.1194,
      "velocity": 103,
      "chip": "ym2612"
    },
    {
      "channel": 1,
      "note": 47,
      "start": 103.4533,
      "duration": 0.093,
      "velocity": 103,
      "chip": "ym2612"
    },
    {
      "channel": 2,
      "note": 54,
      "start": 103.4538,
      "duration": 0.4274,
      "velocity": 111,
      "chip": "ym2612"
    },
    {
      "channel": 0,
      "note": 35,
      "start": 103.5459,
      "duration": 0.0941,
      "velocity": 107,
      "chip": "ym2612"
    },
    {
      "channel": 1,
      "note": 57,
      "start": 103.5465,
      "duration": 0.0941,
      "velocity": 103,
      "chip": "ym2612"
    },
    {
      "channel": 0,
      "note": 40,
      "start": 103.6402,
      "duration": 0.2399,
      "velocity": 107,
      "chip": "ym2612"
    },
    {
      "channel": 1,
      "note": 59,
      "start": 103.6407,
      "duration": 0.1193,
      "velocity": 103,
      "chip": "ym2612"
    },
    {
      "channel": 5,
      "note": 96,
      "start": 103.6415,
      "duration": 0.4268,
      "velocity": 127,
      "chip": "ym2612"
    },
    {
      "channel": 1,
      "note": 47,
      "start": 103.7602,
      "duration": 0.1205,
      "velocity": 103,
      "chip": "ym2612"
    },
    {
      "channel": 0,
      "note": 37,
      "start": 103.8802,
      "duration": 0.1861,
      "velocity": 107,
      "chip": "ym2612"
    },
    {
      "channel": 1,
      "note": 49,
      "start": 103.8808,
      "duration": 0.0933,
      "velocity": 103,
      "chip": "ym2612"
    },
    {
      "channel": 2,
      "note": 56,
      "start": 103.8813,
      "duration": 3.4063,
      "velocity": 111,
      "chip": "ym2612"
    },
    {
      "channel": 3,
      "note": 54,
      "start": 103.8819,
      "duration": 0.4251,
      "velocity": 111,
      "chip": "ym2612"
    },
    {
      "channel": 4,
      "note": 61,
      "start": 103.8825,
      "duration": 0.0923,
      "velocity": 122,
      "chip": "ym2612"
    },
    {
      "channel": 1,
      "note": 61,
      "start": 103.9743,
      "duration": 0.0927,
      "velocity": 103,
      "chip": "ym2612"
    },
    {
      "channel": 4,
      "note": 61,
      "start": 103.9749,
      "duration": 0.0927,
      "velocity": 122,
      "chip": "ym2612"
    },
    {
      "channel": 0,
      "note": 37,
      "start": 104.0666,
      "duration": 0.4255,
      "velocity": 107,
      "chip": "ym2612"
    },
    {
      "channel": 1,
      "note": 49,
      "start": 104.0671,
      "duration": 0.1193,
      "velocity": 103,
      "chip": "ym2612"
    },
    {
      "channel": 4,
      "note": 59,
      "start": 104.0678,
      "duration": 0.1193,
      "velocity": 122,
      "chip": "ym2612"
    },
    {
      "channel": 5,
      "note": 96,
      "start": 104.0683,
      "duration": 0.4255,
      "velocity": 127,
      "chip": "ym2612"
    },
    {
      "channel": 1,
      "note": 59,
      "start": 104.1866,
      "duration": 0.1198,
      "velocity": 103,
      "chip": "ym2612"
    },
    {
      "channel": 4,
      "note": 61,
      "start": 104.1873,
      "duration": 0.1203,
      "velocity": 122,
      "chip": "ym2612"
    },
    {
      "channel": 1,
      "note": 61,
      "start": 104.3066,
      "duration": 0.0921,
      "velocity": 103,
      "chip": "ym2612"
    },
    {
      "channel": 3,
      "note": 56,
      "start": 104.3072,
      "duration": 2.9827,
      "velocity": 1,
      "chip": "ym2612"
    },
    {
      "channel": 4,
      "note": 64,
      "start": 104.3078,
      "duration": 0.0916,
      "velocity": 122,
      "chip": "ym2612"
    },
    {
      "channel": 1,
      "note": 49,
      "start": 104.3988,
      "duration": 0.0938,
      "velocity": 103,
      "chip": "ym2612"
    },
    {
      "channel": 4,
      "note": 61,
      "start": 104.3995,
      "duration": 0.0938,
      "velocity": 122,
      "chip": "ym2612"
    },
    {
      "channel": 0,
      "note": 35,
      "start": 104.4922,
      "duration": 0.1198,
      "velocity": 107,
      "chip": "ym2612"
    },
    {
      "channel": 1,
      "note": 61,
      "start": 104.4928,
      "duration": 0.1198,
      "velocity": 103,
      "chip": "ym2612"
    },
    {
      "channel": 4,
      "note": 59,
      "start": 104.4935,
      "duration": 0.1198,
      "velocity": 122,
      "chip": "ym2612"
    },
    {
      "channel": 5,
      "note": 96,
      "start": 104.494,
      "duration": 0.424,
      "velocity": 127,
      "chip": "ym2612"
    },
    {
      "channel": 0,
      "note": 37,
      "start": 104.6122,
      "duration": 0.1198,
      "velocity": 107,
      "chip": "ym2612"
    },
    {
      "channel": 1,
      "note": 49,
      "start": 104.6127,
      "duration": 0.1199,
      "velocity": 103,
      "chip": "ym2612"
    },
    {
      "channel": 4,
      "note": 61,
      "start": 104.6134,
      "duration": 0.9716,
      "velocity": 122,
      "chip": "ym2612"
    },
    {
      "channel": 0,
      "note": 40,
      "start": 104.7322,
      "duration": 0.1846,
      "velocity": 107,
      "chip": "ym2612"
    },
    {
      "channel": 1,
      "note": 59,
      "start": 104.7327,
      "duration": 0.0917,
      "velocity": 103,
      "chip": "ym2612"
    },
    {
      "channel": 1,
      "note": 61,
      "start": 104.8245,
      "duration": 0.0928,
      "velocity": 103,
      "chip": "ym2612"
    },
    {
      "channel": 0,
      "note": 37,
      "start": 104.9169,
      "duration": 0.1199,
      "velocity": 107,
      "chip": "ym2612"
    },
    {
      "channel": 1,
      "note": 49,
      "start": 104.9174,
      "duration": 0.1198,
      "velocity": 103,
      "chip": "ym2612"
    },
    {
      "channel": 5,
      "note": 96,
      "start": 104.9182,
      "duration": 0.4253,
      "velocity": 127,
      "chip": "ym2612"
    },
    {
      "channel": 0,
      "note": 40,
      "start": 105.0369,
      "duration": 0.2119,
      "velocity": 107,
      "chip": "ym2612"
    },
    {
      "channel": 1,
      "note": 61,
      "start": 105.0374,
      "duration": 0.1194,
      "velocity": 103,
      "chip": "ym2612"
    },
    {
      "channel": 1,
      "note": 49,
      "start": 105.1569,
      "duration": 0.0924,
      "velocity": 103,
      "chip": "ym2612"
    },
    {
      "channel": 0,
      "note": 37,
      "start": 105.2489,
      "duration": 0.0933,
      "velocity": 107,
      "chip": "ym2612"
    },
    {
      "channel": 1,
      "note": 59,
      "start": 105.2495,
      "duration": 0.0932,
      "velocity": 103,
      "chip": "ym2612"
    },
    {
      "channel": 0,
      "note": 42,
      "start": 105.3424,
      "duration": 0.2399,
      "velocity": 107,
      "chip": "ym2612"
    },
    {
      "channel": 1,
      "note": 61,
      "start": 105.3429,
      "duration": 0.1194,
      "velocity": 103,
      "chip": "ym2612"
    },
    {
      "channel": 5,
      "note": 96,
      "start": 105.3437,
      "duration": 0.4265,
      "velocity": 127,
      "chip": "ym2612"
    },
    {
      "channel": 1,
      "note": 49,
      "start": 105.4624,
      "duration": 0.1204,
      "velocity": 103,
      "chip": "ym2612"
    },
    {
      "channel": 0,
      "note": 44,
      "start": 105.5824,
      "duration": 0.186,
      "velocity": 107,
      "chip": "ym2612"
    },
    {
      "channel": 1,
      "note": 44,
      "start": 105.583,
      "duration": 0.0916,
      "velocity": 103,
      "chip": "ym2612"
    },
    {
      "channel": 4,
      "note": 56,
      "start": 105.5852,
      "duration": 0.09,
      "velocity": 122,
      "chip": "ym2612"
    },
    {
      "channel": 1,
      "note": 56,
      "start": 105.6748,
      "duration": 0.0941,
      "velocity": 103,
      "chip": "ym2612"
    },
    {
      "channel": 4,
      "note": 56,
      "start": 105.6754,
      "duration": 0.0942,
      "velocity": 122,
      "chip": "ym2612"
    },
    {
      "channel": 0,
      "note": 44,
      "start": 105.7685,
      "duration": 0.426,
      "velocity": 107,
      "chip": "ym2612"
    },
    {
      "channel": 1,
      "note": 44,
      "start": 105.7691,
      "duration": 0.1193,
      "velocity": 103,
      "chip": "ym2612"
    },
    {
      "channel": 4,
      "note": 54,
      "start": 105.7698,
      "duration": 0.1193,
      "velocity": 122,
      "chip": "ym2612"
    },
    {
      "channel": 5,
      "note": 96,
      "start": 105.7704,
      "duration": 0.426,
      "velocity": 127,
      "chip": "ym2612"
    },
    {
      "channel": 1,
      "note": 54,
      "start": 105.8886,
      "duration": 0.1198,
      "velocity": 103,
      "chip": "ym2612"
    },
    {
      "channel": 4,
      "note": 56,
      "start": 105.8892,
      "duration": 0.1198,
      "velocity": 122,
      "chip": "ym2612"
    },
    {
      "channel": 1,
      "note": 56,
      "start": 106.0085,
      "duration": 0.0925,
      "velocity": 103,
      "chip": "ym2612"
    },
    {
      "channel": 4,
      "note": 59,
      "start": 106.0092,
      "duration": 0.0924,
      "velocity": 122,
      "chip": "ym2612"
    },
    {
      "channel": 1,
      "note": 44,
      "start": 106.1011,
      "duration": 0.094,
      "velocity": 103,
      "chip": "ym2612"
    },
    {
      "channel": 4,
      "note": 56,
      "start": 106.1018,
      "duration": 0.094,
      "velocity": 122,
      "chip": "ym2612"
    },
    {
      "channel": 0,
      "note": 42,
      "start": 106.1947,
      "duration": 0.1198,
      "velocity": 107,
      "chip": "ym2612"
    },
    {
      "channel": 1,
      "note": 56,
      "start": 106.1953,
      "duration": 0.1198,
      "velocity": 103,
      "chip": "ym2612"
    },
    {
      "channel": 4,
      "note": 54,
      "start": 106.196,
      "duration": 0.1198,
      "velocity": 122,
      "chip": "ym2612"
    },
    {
      "channel": 5,
      "note": 96,
      "start": 106.1965,
      "duration": 0.424,
      "velocity": 127,
      "chip": "ym2612"
    },
    {
      "channel": 0,
      "note": 44,
      "start": 106.3147,
      "duration": 0.1198,
      "velocity": 107,
      "chip": "ym2612"
    },
    {
      "channel": 1,
      "note": 44,
      "start": 106.3153,
      "duration": 0.1199,
      "velocity": 103,
      "chip": "ym2612"
    },
    {
      "channel": 4,
      "note": 56,
      "start": 106.316,
      "duration": 0.9745,
      "velocity": 122,
      "chip": "ym2612"
    },
    {
      "channel": 0,
      "note": 47,
      "start": 106.4347,
      "duration": 0.1846,
      "velocity": 107,
      "chip": "ym2612"
    },
    {
      "channel": 1,
      "note": 54,
      "start": 106.4353,
      "duration": 0.0917,
      "velocity": 103,
      "chip": "ym2612"
    },
    {
      "channel": 1,
      "note": 56,
      "start": 106.527,
      "duration": 0.0928,
      "velocity": 103,
      "chip": "ym2612"
    },
    {
      "channel": 0,
      "note": 44,
      "start": 106.6194,
      "duration": 0.1199,
      "velocity": 107,
      "chip": "ym2612"
    },
    {
      "channel": 1,
      "note": 44,
      "start": 106.62,
      "duration": 0.1198,
      "velocity": 103,
      "chip": "ym2612"
    },
    {
      "channel": 5,
      "note": 96,
      "start": 106.6208,
      "duration": 0.4253,
      "velocity": 127,
      "chip": "ym2612"
    },
    {
      "channel": 0,
      "note": 47,
      "start": 106.7394,
      "duration": 0.2119,
      "velocity": 107,
      "chip": "ym2612"
    },
    {
      "channel": 1,
      "note": 56,
      "start": 106.74,
      "duration": 0.1194,
      "velocity": 103,
      "chip": "ym2612"
    },
    {
      "channel": 1,
      "note": 44,
      "start": 106.8595,
      "duration": 0.0924,
      "velocity": 103,
      "chip": "ym2612"
    },
    {
      "channel": 0,
      "note": 44,
      "start": 106.9515,
      "duration": 0.0933,
      "velocity": 107,
      "chip": "ym2612"
    },
    {
      "channel": 1,
      "note": 54,
      "start": 106.9521,
      "duration": 0.0932,
      "velocity": 103,
      "chip": "ym2612"
    },
    {
      "channel": 0,
      "note": 51,
      "start": 107.0449,
      "duration": 0.24,
      "velocity": 107,
      "chip": "ym2612"
    },
    {
      "channel": 1,
      "note": 56,
      "start": 107.0455,
      "duration": 0.1194,
      "velocity": 103,
      "chip": "ym2612"
    },
    {
      "channel": 5,
      "note": 96,
      "start": 107.0463,
      "duration": 0.4279,
      "velocity": 127,
      "chip": "ym2612"
    },
    {
      "channel": 1,
      "note": 59,
      "start": 107.165,
      "duration": 0.1205,
      "velocity": 103,
      "chip": "ym2612"
    },
    {
      "channel": 0,
      "note": 37,
      "start": 107.2851,
      "duration": 0.1872,
      "velocity": 107,
      "chip": "ym2612"
    },
    {
      "channel": 1,
      "note": 49,
      "start": 107.2857,
      "duration": 0.092,
      "velocity": 103,
      "chip": "ym2612"
    },
    {
      "channel": 2,
      "note": 61,
      "start": 107.2878,
      "duration": 1.0392,
      "velocity": 111,
      "chip": "ym2612"
    },
    {
      "channel": 3,
      "note": 55,
      "start": 107.29,
      "duration": 0.4245,
      "velocity": 111,
      "chip": "ym2612"
    },
    {
      "channel": 4,
      "note": 61,
      "start": 107.2907,
      "duration": 0.0893,
      "velocity": 122,
      "chip": "ym2612"
    },
    {
      "channel": 1,
      "note": 61,
      "start": 107.3779,
      "duration": 0.0949,
      "velocity": 103,
      "chip": "ym2612"
    },
    {
      "channel": 4,
      "note": 61,
      "start": 107.3801,
      "duration": 0.0934,
      "velocity": 122,
      "chip": "ym2612"
    },
    {
      "channel": 0,
      "note": 37,
      "start": 107.4724,
      "duration": 0.4271,
      "velocity": 107,
      "chip": "ym2612"
    },
    {
      "channel": 1,
      "note": 49,
      "start": 107.473,
      "duration": 0.1193,
      "velocity": 103,
      "chip": "ym2612"
    },
    {
      "channel": 4,
      "note": 59,
      "start": 107.4737,
      "duration": 0.1193,
      "velocity": 122,
      "chip": "ym2612"
    },
    {
      "channel": 5,
      "note": 96,
      "start": 107.4743,
      "duration": 0.427,
      "velocity": 127,
      "chip": "ym2612"
    },
    {
      "channel": 1,
      "note": 59,
      "start": 107.5925,
      "duration": 0.1198,
      "velocity": 103,
      "chip": "ym2612"
    },
    {
      "channel": 4,
      "note": 61,
      "start": 107.5931,
      "duration": 0.122,
      "velocity": 122,
      "chip": "ym2612"
    },
    {
      "channel": 1,
      "note": 61,
      "start": 107.7125,
      "duration": 0.0948,
      "velocity": 103,
      "chip": "ym2612"
    },
    {
      "channel": 3,
      "note": 61,
      "start": 107.7147,
      "duration": 1.0387,
      "velocity": 111,
      "chip": "ym2612"
    },
    {
      "channel": 4,
      "note": 64,
      "start": 107.7152,
      "duration": 0.0928,
      "velocity": 122,
      "chip": "ym2612"
    },
    {
      "channel": 1,
      "note": 49,
      "start": 107.8075,
      "duration": 0.0925,
      "velocity": 103,
      "chip": "ym2612"
    },
    {
      "channel": 4,
      "note": 61,
      "start": 107.8082,
      "duration": 0.0925,
      "velocity": 122,
      "chip": "ym2612"
    },
    {
      "channel": 0,
      "note": 35,
      "start": 107.8996,
      "duration": 0.1198,
      "velocity": 107,
      "chip": "ym2612"
    },
    {
      "channel": 1,
      "note": 61,
      "start": 107.9002,
      "duration": 0.1198,
      "velocity": 103,
      "chip": "ym2612"
    },
    {
      "channel": 4,
      "note": 59,
      "start": 107.9009,
      "duration": 0.1198,
      "velocity": 122,
      "chip": "ym2612"
    },
    {
      "channel": 5,
      "note": 96,
      "start": 107.9015,
      "duration": 0.4263,
      "velocity": 127,
      "chip": "ym2612"
    },
    {
      "channel": 0,
      "note": 37,
      "start": 108.0196,
      "duration": 0.1198,
      "velocity": 107,
      "chip": "ym2612"
    },
    {
      "channel": 1,
      "note": 49,
      "start": 108.0201,
      "duration": 0.1199,
      "velocity": 103,
      "chip": "ym2612"
    },
    {
      "channel": 4,
      "note": 61,
      "start": 108.0208,
      "duration": 0.9727,
      "velocity": 122,
      "chip": "ym2612"
    },
    {
      "channel": 0,
      "note": 40,
      "start": 108.1396,
      "duration": 0.1864,
      "velocity": 107,
      "chip": "ym2612"
    },
    {
      "channel": 1,
      "note": 59,
      "start": 108.1402,
      "duration": 0.0935,
      "velocity": 103,
      "chip": "ym2612"
    },
    {
      "channel": 1,
      "note": 61,
      "start": 108.2338,
      "duration": 0.0927,
      "velocity": 103,
      "chip": "ym2612"
    },
    {
      "channel": 0,
      "note": 37,
      "start": 108.3261,
      "duration": 0.1198,
      "velocity": 107,
      "chip": "ym2612"
    },
    {
      "channel": 1,
      "note": 49,
      "start": 108.3267,
      "duration": 0.1198,
      "velocity": 103,
      "chip": "ym2612"
    },
    {
      "channel": 2,
      "note": 63,
      "start": 108.3273,
      "duration": 0.2393,
      "velocity": 111,
      "chip": "ym2612"
    },
    {
      "channel": 5,
      "note": 96,
      "start": 108.328,
      "duration": 0.4261,
      "velocity": 127,
      "chip": "ym2612"
    },
    {
      "channel": 0,
      "note": 40,
      "start": 108.4461,
      "duration": 0.2124,
      "velocity": 107,
      "chip": "ym2612"
    },
    {
      "channel": 1,
      "note": 61,
      "start": 108.4466,
      "duration": 0.1194,
      "velocity": 103,
      "chip": "ym2612"
    },
    {
      "channel": 1,
      "note": 49,
      "start": 108.5662,
      "duration": 0.0929,
      "velocity": 103,
      "chip": "ym2612"
    },
    {
      "channel": 2,
      "note": 64,
      "start": 108.5667,
      "duration": 0.1862,
      "velocity": 111,
      "chip": "ym2612"
    },
    {
      "channel": 0,
      "note": 37,
      "start": 108.6587,
      "duration": 0.093,
      "velocity": 107,
      "chip": "ym2612"
    },
    {
      "channel": 1,
      "note": 59,
      "start": 108.6593,
      "duration": 0.0929,
      "velocity": 103,
      "chip": "ym2612"
    },
    {
      "channel": 0,
      "note": 42,
      "start": 108.7519,
      "duration": 0.2398,
      "velocity": 107,
      "chip": "ym2612"
    },
    {
      "channel": 1,
      "note": 61,
      "start": 108.7525,
      "duration": 0.1193,
      "velocity": 103,
      "chip": "ym2612"
    },
    {
      "channel": 2,
      "note": 66,
      "start": 108.753,
      "duration": 1.5161,
      "velocity": 111,
      "chip": "ym2612"
    },
    {
      "channel": 3,
      "note": 63,
      "start": 108.7536,
      "duration": 0.2393,
      "velocity": 111,
      "chip": "ym2612"
    },
    {
      "channel": 5,
      "note": 96,
      "start": 108.7543,
      "duration": 0.4252,
      "velocity": 127,
      "chip": "ym2612"
    },
    {
      "channel": 1,
      "note": 49,
      "start": 108.872,
      "duration": 0.1203,
      "velocity": 103,
      "chip": "ym2612"
    },
    {
      "channel": 0,
      "note": 35,
      "start": 108.9919,
      "duration": 0.1853,
      "velocity": 107,
      "chip": "ym2612"
    },
    {
      "channel": 1,
      "note": 47,
      "start": 108.9925,
      "duration": 0.0912,
      "velocity": 103,
      "chip": "ym2612"
    },
    {
      "channel": 3,
      "note": 64,
      "start": 108.9931,
      "duration": 0.1852,
      "velocity": 111,
      "chip": "ym2612"
    },
    {
      "channel": 4,
      "note": 59,
      "start": 108.9936,
      "duration": 0.0907,
      "velocity": 122,
      "chip": "ym2612"
    },
    {
      "channel": 1,
      "note": 59,
      "start": 109.0839,
      "duration": 0.0938,
      "velocity": 103,
      "chip": "ym2612"
    },
    {
      "channel": 4,
      "note": 59,
      "start": 109.0845,
      "duration": 0.0944,
      "velocity": 122,
      "chip": "ym2612"
    },
    {
      "channel": 0,
      "note": 35,
      "start": 109.1773,
      "duration": 0.4252,
      "velocity": 107,
      "chip": "ym2612"
    },
    {
      "channel": 1,
      "note": 47,
      "start": 109.1778,
      "duration": 0.1194,
      "velocity": 103,
      "chip": "ym2612"
    },
    {
      "channel": 3,
      "note": 66,
      "start": 109.1785,
      "duration": 1.5175,
      "velocity": 111,
      "chip": "ym2612"
    },
    {
      "channel": 4,
      "note": 57,
      "start": 109.179,
      "duration": 0.1188,
      "velocity": 122,
      "chip": "ym2612"
    },
    {
      "channel": 5,
      "note": 96,
      "start": 109.1796,
      "duration": 0.4247,
      "velocity": 127,
      "chip": "ym2612"
    },
    {
      "channel": 1,
      "note": 57,
      "start": 109.2973,
      "duration": 0.1198,
      "velocity": 103,
      "chip": "ym2612"
    },
    {
      "channel": 4,
      "note": 59,
      "start": 109.298,
      "duration": 0.1198,
      "velocity": 122,
      "chip": "ym2612"
    },
    {
      "channel": 1,
      "note": 59,
      "start": 109.4173,
      "duration": 0.0938,
      "velocity": 103,
      "chip": "ym2612"
    },
    {
      "channel": 4,
      "note": 62,
      "start": 109.418,
      "duration": 0.0937,
      "velocity": 122,
      "chip": "ym2612"
    },
    {
      "channel": 1,
      "note": 47,
      "start": 109.5112,
      "duration": 0.0918,
      "velocity": 103,
      "chip": "ym2612"
    },
    {
      "channel": 4,
      "note": 59,
      "start": 109.5119,
      "duration": 0.0919,
      "velocity": 122,
      "chip": "ym2612"
    },
    {
      "channel": 0,
      "note": 33,
      "start": 109.6027,
      "duration": 0.1198,
      "velocity": 107,
      "chip": "ym2612"
    },
    {
      "channel": 1,
      "note": 59,
      "start": 109.6033,
      "duration": 0.1198,
      "velocity": 103,
      "chip": "ym2612"
    },
    {
      "channel": 4,
      "note": 57,
      "start": 109.6039,
      "duration": 0.1198,
      "velocity": 122,
      "chip": "ym2612"
    },
    {
      "channel": 5,
      "note": 96,
      "start": 109.6045,
      "duration": 0.4253,
      "velocity": 127,
      "chip": "ym2612"
    },
    {
      "channel": 0,
      "note": 35,
      "start": 109.7227,
      "duration": 0.1198,
      "velocity": 107,
      "chip": "ym2612"
    },
    {
      "channel": 1,
      "note": 47,
      "start": 109.7232,
      "duration": 0.1199,
      "velocity": 103,
      "chip": "ym2612"
    },
    {
      "channel": 4,
      "note": 59,
      "start": 109.7239,
      "duration": 0.9726,
      "velocity": 122,
      "chip": "ym2612"
    },
    {
      "channel": 0,
      "note": 38,
      "start": 109.8427,
      "duration": 0.1858,
      "velocity": 107,
      "chip": "ym2612"
    },
    {
      "channel": 1,
      "note": 57,
      "start": 109.8432,
      "duration": 0.0921,
      "velocity": 103,
      "chip": "ym2612"
    },
    {
      "channel": 1,
      "note": 59,
      "start": 109.9354,
      "duration": 0.0936,
      "velocity": 103,
      "chip": "ym2612"
    },
    {
      "channel": 0,
      "note": 35,
      "start": 110.0286,
      "duration": 0.1199,
      "velocity": 107,
      "chip": "ym2612"
    },
    {
      "channel": 1,
      "note": 47,
      "start": 110.0292,
      "duration": 0.1198,
      "velocity": 103,
      "chip": "ym2612"
    },
    {
      "channel": 5,
      "note": 96,
      "start": 110.0299,
      "duration": 0.4256,
      "velocity": 127,
      "chip": "ym2612"
    },
    {
      "channel": 0,
      "note": 38,
      "start": 110.1486,
      "duration": 0.2116,
      "velocity": 107,
      "chip": "ym2612"
    },
    {
      "channel": 1,
      "note": 59,
      "start": 110.1492,
      "duration": 0.1194,
      "velocity": 103,
      "chip": "ym2612"
    },
    {
      "channel": 1,
      "note": 47,
      "start": 110.2687,
      "duration": 0.092,
      "velocity": 103,
      "chip": "ym2612"
    },
    {
      "channel": 2,
      "note": 59,
      "start": 110.2692,
      "duration": 0.4262,
      "velocity": 111,
      "chip": "ym2612"
    },
    {
      "channel": 0,
      "note": 35,
      "start": 110.3604,
      "duration": 0.0939,
      "velocity": 107,
      "chip": "ym2612"
    },
    {
      "channel": 1,
      "note": 57,
      "start": 110.361,
      "duration": 0.0939,
      "velocity": 103,
      "chip": "ym2612"
    },
    {
      "channel": 0,
      "note": 40,
      "start": 110.4544,
      "duration": 0.2399,
      "velocity": 107,
      "chip": "ym2612"
    },
    {
      "channel": 1,
      "note": 59,
      "start": 110.4549,
      "duration": 0.1193,
      "velocity": 103,
      "chip": "ym2612"
    },
    {
      "channel": 5,
      "note": 96,
      "start": 110.4557,
      "duration": 0.4266,
      "velocity": 127,
      "chip": "ym2612"
    },
    {
      "channel": 1,
      "note": 47,
      "start": 110.5744,
      "duration": 0.1205,
      "velocity": 103,
      "chip": "ym2612"
    },
    {
      "channel": 0,
      "note": 37,
      "start": 110.6945,
      "duration": 0.1859,
      "velocity": 107,
      "chip": "ym2612"
    },
    {
      "channel": 1,
      "note": 49,
      "start": 110.6951,
      "duration": 0.0931,
      "velocity": 103,
      "chip": "ym2612"
    },
    {
      "channel": 2,
      "note": 68,
      "start": 110.6956,
      "duration": 3.4076,
      "velocity": 111,
      "chip": "ym2612"
    },
    {
      "channel": 3,
      "note": 59,
      "start": 110.6962,
      "duration": 0.4249,
      "velocity": 111,
      "chip": "ym2612"
    },
    {
      "channel": 4,
      "note": 61,
      "start": 110.6967,
      "duration": 0.0921,
      "velocity": 122,
      "chip": "ym2612"
    },
    {
      "channel": 1,
      "note": 61,
      "start": 110.7883,
      "duration": 0.0927,
      "velocity": 103,
      "chip": "ym2612"
    },
    {
      "channel": 4,
      "note": 61,
      "start": 110.789,
      "duration": 0.0927,
      "velocity": 122,
      "chip": "ym2612"
    },
    {
      "channel": 0,
      "note": 37,
      "start": 110.8806,
      "duration": 0.4289,
      "velocity": 107,
      "chip": "ym2612"
    },
    {
      "channel": 1,
      "note": 49,
      "start": 110.8812,
      "duration": 0.1193,
      "velocity": 103,
      "chip": "ym2612"
    },
    {
      "channel": 4,
      "note": 59,
      "start": 110.8818,
      "duration": 0.1193,
      "velocity": 122,
      "chip": "ym2612"
    },
    {
      "channel": 5,
      "note": 96,
      "start": 110.8824,
      "duration": 0.4289,
      "velocity": 127,
      "chip": "ym2612"
    },
    {
      "channel": 1,
      "note": 59,
      "start": 111.0007,
      "duration": 0.1198,
      "velocity": 103,
      "chip": "ym2612"
    },
    {
      "channel": 4,
      "note": 61,
      "start": 111.0013,
      "duration": 0.1204,
      "velocity": 122,
      "chip": "ym2612"
    },
    {
      "channel": 1,
      "note": 61,
      "start": 111.1207,
      "duration": 0.0945,
      "velocity": 103,
      "chip": "ym2612"
    },
    {
      "channel": 3,
      "note": 68,
      "start": 111.1213,
      "duration": 2.9841,
      "velocity": 1,
      "chip": "ym2612"
    },
    {
      "channel": 4,
      "note": 64,
      "start": 111.1218,
      "duration": 0.094,
      "velocity": 122,
      "chip": "ym2612"
    },
    {
      "channel": 1,
      "note": 49,
      "start": 111.2153,
      "duration": 0.0947,
      "velocity": 103,
      "chip": "ym2612"
    },
    {
      "channel": 4,
      "note": 61,
      "start": 111.216,
      "duration": 0.0947,
      "velocity": 122,
      "chip": "ym2612"
    },
    {
      "channel": 0,
      "note": 35,
      "start": 111.3096,
      "duration": 0.1198,
      "velocity": 107,
      "chip": "ym2612"
    },
    {
      "channel": 1,
      "note": 61,
      "start": 111.3102,
      "duration": 0.1198,
      "velocity": 103,
      "chip": "ym2612"
    },
    {
      "channel": 4,
      "note": 59,
      "start": 111.3108,
      "duration": 0.1198,
      "velocity": 122,
      "chip": "ym2612"
    },
    {
      "channel": 5,
      "note": 96,
      "start": 111.3114,
      "duration": 0.4255,
      "velocity": 127,
      "chip": "ym2612"
    },
    {
      "channel": 0,
      "note": 37,
      "start": 111.4296,
      "duration": 0.1198,
      "velocity": 107,
      "chip": "ym2612"
    },
    {
      "channel": 1,
      "note": 49,
      "start": 111.4301,
      "duration": 0.1199,
      "velocity": 103,
      "chip": "ym2612"
    },
    {
      "channel": 4,
      "note": 61,
      "start": 111.4308,
      "duration": 0.9724,
      "velocity": 122,
      "chip": "ym2612"
    },
    {
      "channel": 0,
      "note": 40,
      "start": 111.5496,
      "duration": 0.1861,
      "velocity": 107,
      "chip": "ym2612"
    },
    {
      "channel": 1,
      "note": 59,
      "start": 111.5501,
      "duration": 0.0918,
      "velocity": 103,
      "chip": "ym2612"
    },
    {
      "channel": 1,
      "note": 61,
      "start": 111.642,
      "duration": 0.0942,
      "velocity": 103,
      "chip": "ym2612"
    },
    {
      "channel": 0,
      "note": 37,
      "start": 111.7358,
      "duration": 0.1198,
      "velocity": 107,
      "chip": "ym2612"
    },
    {
      "channel": 1,
      "note": 49,
      "start": 111.7363,
      "duration": 0.1198,
      "velocity": 103,
      "chip": "ym2612"
    },
    {
      "channel": 5,
      "note": 96,
      "start": 111.7371,
      "duration": 0.4246,
      "velocity": 127,
      "chip": "ym2612"
    },
    {
      "channel": 0,
      "note": 40,
      "start": 111.8558,
      "duration": 0.2116,
      "velocity": 107,
      "chip": "ym2612"
    },
    {
      "channel": 1,
      "note": 61,
      "start": 111.8563,
      "duration": 0.1194,
      "velocity": 103,
      "chip": "ym2612"
    },
    {
      "channel": 1,
      "note": 49,
      "start": 111.9758,
      "duration": 0.0921,
      "velocity": 103,
      "chip": "ym2612"
    },
    {
      "channel": 0,
      "note": 37,
      "start": 112.0675,
      "duration": 0.0929,
      "velocity": 107,
      "chip": "ym2612"
    },
    {
      "channel": 1,
      "note": 59,
      "start": 112.0681,
      "duration": 0.0929,
      "velocity": 103,
      "chip": "ym2612"
    },
    {
      "channel": 0,
      "note": 42,
      "start": 112.1606,
      "duration": 0.2398,
      "velocity": 107,
      "chip": "ym2612"
    },
    {
      "channel": 1,
      "note": 61,
      "start": 112.1611,
      "duration": 0.1193,
      "velocity": 103,
      "chip": "ym2612"
    },
    {
      "channel": 5,
      "note": 96,
      "start": 112.1619,
      "duration": 0.4251,
      "velocity": 127,
      "chip": "ym2612"
    },
    {
      "channel": 1,
      "note": 49,
      "start": 112.2805,
      "duration": 0.1204,
      "velocity": 103,
      "chip": "ym2612"
    },
    {
      "channel": 0,
      "note": 44,
      "start": 112.4005,
      "duration": 0.1846,
      "velocity": 107,
      "chip": "ym2612"
    },
    {
      "channel": 1,
      "note": 44,
      "start": 112.4011,
      "duration": 0.0917,
      "velocity": 103,
      "chip": "ym2612"
    },
    {
      "channel": 4,
      "note": 56,
      "start": 112.4034,
      "duration": 0.0901,
      "velocity": 122,
      "chip": "ym2612"
    },
    {
      "channel": 1,
      "note": 56,
      "start": 112.4929,
      "duration": 0.0927,
      "velocity": 103,
      "chip": "ym2612"
    },
    {
      "channel": 4,
      "note": 56,
      "start": 112.4937,
      "duration": 0.0927,
      "velocity": 122,
      "chip": "ym2612"
    },
    {
      "channel": 0,
      "note": 44,
      "start": 112.5853,
      "duration": 0.4241,
      "velocity": 107,
      "chip": "ym2612"
    },
    {
      "channel": 1,
      "note": 44,
      "start": 112.5859,
      "duration": 0.1193,
      "velocity": 103,
      "chip": "ym2612"
    },
    {
      "channel": 4,
      "note": 54,
      "start": 112.5866,
      "duration": 0.1193,
      "velocity": 122,
      "chip": "ym2612"
    },
    {
      "channel": 5,
      "note": 96,
      "start": 112.5872,
      "duration": 0.424,
      "velocity": 127,
      "chip": "ym2612"
    },
    {
      "channel": 1,
      "note": 54,
      "start": 112.7054,
      "duration": 0.1198,
      "velocity": 103,
      "chip": "ym2612"
    },
    {
      "channel": 4,
      "note": 56,
      "start": 112.706,
      "duration": 0.1198,
      "velocity": 122,
      "chip": "ym2612"
    },
    {
      "channel": 1,
      "note": 56,
      "start": 112.8253,
      "duration": 0.0921,
      "velocity": 103,
      "chip": "ym2612"
    },
    {
      "channel": 4,
      "note": 59,
      "start": 112.826,
      "duration": 0.092,
      "velocity": 122,
      "chip": "ym2612"
    },
    {
      "channel": 1,
      "note": 44,
      "start": 112.9176,
      "duration": 0.0924,
      "velocity": 103,
      "chip": "ym2612"
    },
    {
      "channel": 4,
      "note": 56,
      "start": 112.9182,
      "duration": 0.0924,
      "velocity": 122,
      "chip": "ym2612"
    },
    {
      "channel": 0,
      "note": 42,
      "start": 113.0095,
      "duration": 0.1198,
      "velocity": 107,
      "chip": "ym2612"
    },
    {
      "channel": 1,
      "note": 56,
      "start": 113.0101,
      "duration": 0.1199,
      "velocity": 103,
      "chip": "ym2612"
    },
    {
      "channel": 4,
      "note": 54,
      "start": 113.0108,
      "duration": 0.1198,
      "velocity": 122,
      "chip": "ym2612"
    },
    {
      "channel": 5,
      "note": 96,
      "start": 113.0113,
      "duration": 0.4255,
      "velocity": 127,
      "chip": "ym2612"
    },
    {
      "channel": 0,
      "note": 44,
      "start": 113.1295,
      "duration": 0.1198,
      "velocity": 107,
      "chip": "ym2612"
    },
    {
      "channel": 1,
      "note": 44,
      "start": 113.1301,
      "duration": 0.1199,
      "velocity": 103,
      "chip": "ym2612"
    },
    {
      "channel": 4,
      "note": 56,
      "start": 113.1308,
      "duration": 0.9752,
      "velocity": 122,
      "chip": "ym2612"
    },
    {
      "channel": 0,
      "note": 47,
      "start": 113.2495,
      "duration": 0.1861,
      "velocity": 107,
      "chip": "ym2612"
    },
    {
      "channel": 1,
      "note": 54,
      "start": 113.2501,
      "duration": 0.0918,
      "velocity": 103,
      "chip": "ym2612"
    },
    {
      "channel": 1,
      "note": 56,
      "start": 113.342,
      "duration": 0.0942,
      "velocity": 103,
      "chip": "ym2612"
    },
    {
      "channel": 0,
      "note": 44,
      "start": 113.4357,
      "duration": 0.1198,
      "velocity": 107,
      "chip": "ym2612"
    },
    {
      "channel": 1,
      "note": 44,
      "start": 113.4363,
      "duration": 0.1198,
      "velocity": 103,
      "chip": "ym2612"
    },
    {
      "channel": 5,
      "note": 96,
      "start": 113.4371,
      "duration": 0.4246,
      "velocity": 127,
      "chip": "ym2612"
    },
    {
      "channel": 0,
      "note": 47,
      "start": 113.5557,
      "duration": 0.2116,
      "velocity": 107,
      "chip": "ym2612"
    },
    {
      "channel": 1,
      "note": 56,
      "start": 113.5563,
      "duration": 0.1194,
      "velocity": 103,
      "chip": "ym2612"
    },
    {
      "channel": 1,
      "note": 44,
      "start": 113.6758,
      "duration": 0.0921,
      "velocity": 103,
      "chip": "ym2612"
    },
    {
      "channel": 0,
      "note": 44,
      "start": 113.7675,
      "duration": 0.0929,
      "velocity": 107,
      "chip": "ym2612"
    },
    {
      "channel": 1,
      "note": 54,
      "start": 113.768,
      "duration": 0.0929,
      "velocity": 103,
      "chip": "ym2612"
    },
    {
      "channel": 0,
      "note": 51,
      "start": 113.8605,
      "duration": 0.2399,
      "velocity": 107,
      "chip": "ym2612"
    },
    {
      "channel": 1,
      "note": 56,
      "start": 113.8611,
      "duration": 0.1193,
      "velocity": 103,
      "chip": "ym2612"
    },
    {
      "channel": 5,
      "note": 96,
      "start": 113.8618,
      "duration": 0.4264,
      "velocity": 127,
      "chip": "ym2612"
    },
    {
      "channel": 1,
      "note": 59,
      "start": 113.9806,
      "duration": 0.1205,
      "velocity": 103,
      "chip": "ym2612"
    },
    {
      "channel": 0,
      "note": 37,
      "start": 114.1006,
      "duration": 0.1857,
      "velocity": 107,
      "chip": "ym2612"
    },
    {
      "channel": 1,
      "note": 49,
      "start": 114.1012,
      "duration": 0.0928,
      "velocity": 103,
      "chip": "ym2612"
    },
    {
      "channel": 2,
      "note": 61,
      "start": 114.1034,
      "duration": 1.0377,
      "velocity": 111,
      "chip": "ym2612"
    },
    {
      "channel": 3,
      "note": 55,
      "start": 114.1056,
      "duration": 0.423,
      "velocity": 111,
      "chip": "ym2612"
    },
    {
      "channel": 4,
      "note": 61,
      "start": 114.1062,
      "duration": 0.0916,
      "velocity": 122,
      "chip": "ym2612"
    },
    {
      "channel": 1,
      "note": 61,
      "start": 114.1941,
      "duration": 0.0928,
      "velocity": 103,
      "chip": "ym2612"
    },
    {
      "channel": 4,
      "note": 61,
      "start": 114.198,
      "duration": 0.0896,
      "velocity": 122,
      "chip": "ym2612"
    },
    {
      "channel": 0,
      "note": 37,
      "start": 114.2865,
      "duration": 0.428,
      "velocity": 107,
      "chip": "ym2612"
    },
    {
      "channel": 1,
      "note": 49,
      "start": 114.2871,
      "duration": 0.1193,
      "velocity": 103,
      "chip": "ym2612"
    },
    {
      "channel": 4,
      "note": 59,
      "start": 114.2878,
      "duration": 0.1193,
      "velocity": 122,
      "chip": "ym2612"
    },
    {
      "channel": 5,
      "note": 96,
      "start": 114.2884,
      "duration": 0.4281,
      "velocity": 127,
      "chip": "ym2612"
    },
    {
      "channel": 1,
      "note": 59,
      "start": 114.4065,
      "duration": 0.1198,
      "velocity": 103,
      "chip": "ym2612"
    },
    {
      "channel": 4,
      "note": 61,
      "start": 114.4072,
      "duration": 0.122,
      "velocity": 122,
      "chip": "ym2612"
    },
    {
      "channel": 1,
      "note": 61,
      "start": 114.5265,
      "duration": 0.0945,
      "velocity": 103,
      "chip": "ym2612"
    },
    {
      "channel": 3,
      "note": 61,
      "start": 114.5288,
      "duration": 1.0403,
      "velocity": 111,
      "chip": "ym2612"
    },
    {
      "channel": 4,
      "note": 64,
      "start": 114.5293,
      "duration": 0.0924,
      "velocity": 122,
      "chip": "ym2612"
    },
    {
      "channel": 1,
      "note": 49,
      "start": 114.6212,
      "duration": 0.094,
      "velocity": 103,
      "chip": "ym2612"
    },
    {
      "channel": 4,
      "note": 61,
      "start": 114.6219,
      "duration": 0.094,
      "velocity": 122,
      "chip": "ym2612"
    },
    {
      "channel": 0,
      "note": 35,
      "start": 114.7147,
      "duration": 0.1198,
      "velocity": 107,
      "chip": "ym2612"
    },
    {
      "channel": 1,
      "note": 61,
      "start": 114.7153,
      "duration": 0.1198,
      "velocity": 103,
      "chip": "ym2612"
    },
    {
      "channel": 4,
      "note": 59,
      "start": 114.716,
      "duration": 0.1198,
      "velocity": 122,
      "chip": "ym2612"
    },
    {
      "channel": 5,
      "note": 96,
      "start": 114.7166,
      "duration": 0.4252,
      "velocity": 127,
      "chip": "ym2612"
    },
    {
      "channel": 0,
      "note": 37,
      "start": 114.8347,
      "duration": 0.1198,
      "velocity": 107,
      "chip": "ym2612"
    },
    {
      "channel": 1,
      "note": 49,
      "start": 114.8353,
      "duration": 0.1199,
      "velocity": 103,
      "chip": "ym2612"
    },
    {
      "channel": 4,
      "note": 61,
      "start": 114.836,
      "duration": 0.9732,
      "velocity": 122,
      "chip": "ym2612"
    },
    {
      "channel": 0,
      "note": 40,
      "start": 114.9547,
      "duration": 0.1852,
      "velocity": 107,
      "chip": "ym2612"
    },
    {
      "channel": 1,
      "note": 59,
      "start": 114.9553,
      "duration": 0.0918,
      "velocity": 103,
      "chip": "ym2612"
    },
    {
      "channel": 1,
      "note": 61,
      "start": 115.0471,
      "duration": 0.0933,
      "velocity": 103,
      "chip": "ym2612"
    },
    {
      "channel": 0,
      "note": 37,
      "start": 115.1401,
      "duration": 0.1198,
      "velocity": 107,
      "chip": "ym2612"
    },
    {
      "channel": 1,
      "note": 49,
      "start": 115.1407,
      "duration": 0.1198,
      "velocity": 103,
      "chip": "ym2612"
    },
    {
      "channel": 2,
      "note": 63,
      "start": 115.1412,
      "duration": 0.2393,
      "velocity": 111,
      "chip": "ym2612"
    },
    {
      "channel": 5,
      "note": 96,
      "start": 115.142,
      "duration": 0.4278,
      "velocity": 127,
      "chip": "ym2612"
    },
    {
      "channel": 0,
      "note": 40,
      "start": 115.2601,
      "duration": 0.2132,
      "velocity": 107,
      "chip": "ym2612"
    },
    {
      "channel": 1,
      "note": 61,
      "start": 115.2607,
      "duration": 0.1193,
      "velocity": 103,
      "chip": "ym2612"
    },
    {
      "channel": 1,
      "note": 49,
      "start": 115.3802,
      "duration": 0.0937,
      "velocity": 103,
      "chip": "ym2612"
    },
    {
      "channel": 2,
      "note": 64,
      "start": 115.3807,
      "duration": 0.1878,
      "velocity": 111,
      "chip": "ym2612"
    },
    {
      "channel": 0,
      "note": 37,
      "start": 115.4735,
      "duration": 0.0939,
      "velocity": 107,
      "chip": "ym2612"
    },
    {
      "channel": 1,
      "note": 59,
      "start": 115.4741,
      "duration": 0.0939,
      "velocity": 103,
      "chip": "ym2612"
    },
    {
      "channel": 0,
      "note": 42,
      "start": 115.5675,
      "duration": 0.2399,
      "velocity": 107,
      "chip": "ym2612"
    },
    {
      "channel": 1,
      "note": 61,
      "start": 115.5681,
      "duration": 0.1193,
      "velocity": 103,
      "chip": "ym2612"
    },
    {
      "channel": 2,
      "note": 63,
      "start": 115.5687,
      "duration": 1.5168,
      "velocity": 111,
      "chip": "ym2612"
    },
    {
      "channel": 3,
      "note": 63,
      "start": 115.5692,
      "duration": 0.2394,
      "velocity": 111,
      "chip": "ym2612"
    },
    {
      "channel": 5,
      "note": 96,
      "start": 115.5698,
      "duration": 0.4251,
      "velocity": 127,
      "chip": "ym2612"
    },
    {
      "channel": 1,
      "note": 49,
      "start": 115.6876,
      "duration": 0.1203,
      "velocity": 103,
      "chip": "ym2612"
    },
    {
      "channel": 0,
      "note": 35,
      "start": 115.8075,
      "duration": 0.1851,
      "velocity": 107,
      "chip": "ym2612"
    },
    {
      "channel": 1,
      "note": 47,
      "start": 115.8081,
      "duration": 0.0928,
      "velocity": 103,
      "chip": "ym2612"
    },
    {
      "channel": 3,
      "note": 64,
      "start": 115.8088,
      "duration": 0.185,
      "velocity": 111,
      "chip": "ym2612"
    },
    {
      "channel": 4,
      "note": 59,
      "start": 115.8093,
      "duration": 0.0923,
      "velocity": 122,
      "chip": "ym2612"
    },
    {
      "channel": 1,
      "note": 59,
      "start": 115.901,
      "duration": 0.0922,
      "velocity": 103,
      "chip": "ym2612"
    },
    {
      "channel": 4,
      "note": 59,
      "start": 115.9017,
      "duration": 0.0926,
      "velocity": 122,
      "chip": "ym2612"
    },
    {
      "channel": 0,
      "note": 35,
      "start": 115.9928,
      "duration": 0.4253,
      "velocity": 107,
      "chip": "ym2612"
    },
    {
      "channel": 1,
      "note": 47,
      "start": 115.9933,
      "duration": 0.1194,
      "velocity": 103,
      "chip": "ym2612"
    },
    {
      "channel": 3,
      "note": 63,
      "start": 115.994,
      "duration": 1.517,
      "velocity": 111,
      "chip": "ym2612"
    },
    {
      "channel": 4,
      "note": 57,
      "start": 115.9945,
      "duration": 0.1188,
      "velocity": 122,
      "chip": "ym2612"
    },
    {
      "channel": 5,
      "note": 96,
      "start": 115.9951,
      "duration": 0.4249,
      "velocity": 127,
      "chip": "ym2612"
    },
    {
      "channel": 1,
      "note": 57,
      "start": 116.1128,
      "duration": 0.1198,
      "velocity": 103,
      "chip": "ym2612"
    },
    {
      "channel": 4,
      "note": 59,
      "start": 116.1135,
      "duration": 0.1198,
      "velocity": 122,
      "chip": "ym2612"
    },
    {
      "channel": 1,
      "note": 59,
      "start": 116.2327,
      "duration": 0.0925,
      "velocity": 103,
      "chip": "ym2612"
    },
    {
      "channel": 4,
      "note": 62,
      "start": 116.2334,
      "duration": 0.0925,
      "velocity": 122,
      "chip": "ym2612"
    },
    {
      "channel": 1,
      "note": 47,
      "start": 116.3254,
      "duration": 0.0933,
      "velocity": 103,
      "chip": "ym2612"
    },
    {
      "channel": 4,
      "note": 59,
      "start": 116.3261,
      "duration": 0.0933,
      "velocity": 122,
      "chip": "ym2612"
    },
    {
      "channel": 0,
      "note": 33,
      "start": 116.4183,
      "duration": 0.1198,
      "velocity": 107,
      "chip": "ym2612"
    },
    {
      "channel": 1,
      "note": 59,
      "start": 116.4189,
      "duration": 0.1198,
      "velocity": 103,
      "chip": "ym2612"
    },
    {
      "channel": 4,
      "note": 57,
      "start": 116.4195,
      "duration": 0.1199,
      "velocity": 122,
      "chip": "ym2612"
    },
    {
      "channel": 5,
      "note": 96,
      "start": 116.4201,
      "duration": 0.426,
      "velocity": 127,
      "chip": "ym2612"
    },
    {
      "channel": 0,
      "note": 35,
      "start": 116.5383,
      "duration": 0.1198,
      "velocity": 107,
      "chip": "ym2612"
    },
    {
      "channel": 1,
      "note": 47,
      "start": 116.5389,
      "duration": 0.1198,
      "velocity": 103,
      "chip": "ym2612"
    },
    {
      "channel": 4,
      "note": 59,
      "start": 116.5395,
      "duration": 0.972,
      "velocity": 122,
      "chip": "ym2612"
    },
    {
      "channel": 0,
      "note": 38,
      "start": 116.6583,
      "duration": 0.1866,
      "velocity": 107,
      "chip": "ym2612"
    },
    {
      "channel": 1,
      "note": 57,
      "start": 116.6589,
      "duration": 0.0935,
      "velocity": 103,
      "chip": "ym2612"
    },
    {
      "channel": 1,
      "note": 59,
      "start": 116.7525,
      "duration": 0.0929,
      "velocity": 103,
      "chip": "ym2612"
    },
    {
      "channel": 0,
      "note": 35,
      "start": 116.845,
      "duration": 0.1199,
      "velocity": 107,
      "chip": "ym2612"
    },
    {
      "channel": 1,
      "note": 47,
      "start": 116.8456,
      "duration": 0.1198,
      "velocity": 103,
      "chip": "ym2612"
    },
    {
      "channel": 5,
      "note": 96,
      "start": 116.8463,
      "duration": 0.4241,
      "velocity": 127,
      "chip": "ym2612"
    },
    {
      "channel": 0,
      "note": 38,
      "start": 116.965,
      "duration": 0.2127,
      "velocity": 107,
      "chip": "ym2612"
    },
    {
      "channel": 1,
      "note": 59,
      "start": 116.9656,
      "duration": 0.1194,
      "velocity": 103,
      "chip": "ym2612"
    },
    {
      "channel": 1,
      "note": 47,
      "start": 117.0851,
      "duration": 0.0932,
      "velocity": 103,
      "chip": "ym2612"
    },
    {
      "channel": 2,
      "note": 54,
      "start": 117.0856,
      "duration": 0.4248,
      "velocity": 111,
      "chip": "ym2612"
    },
    {
      "channel": 0,
      "note": 35,
      "start": 117.1779,
      "duration": 0.0913,
      "velocity": 107,
      "chip": "ym2612"
    },
    {
      "channel": 1,
      "note": 57,
      "start": 117.1784,
      "duration": 0.0913,
      "velocity": 103,
      "chip": "ym2612"
    },
    {
      "channel": 0,
      "note": 40,
      "start": 117.2694,
      "duration": 0.2399,
      "velocity": 107,
      "chip": "ym2612"
    },
    {
      "channel": 1,
      "note": 59,
      "start": 117.2699,
      "duration": 0.1194,
      "velocity": 103,
      "chip": "ym2612"
    },
    {
      "channel": 5,
      "note": 96,
      "start": 117.2707,
      "duration": 0.4269,
      "velocity": 127,
      "chip": "ym2612"
    },
    {
      "channel": 1,
      "note": 47,
      "start": 117.3894,
      "duration": 0.1205,
      "velocity": 103,
      "chip": "ym2612"
    },
    {
      "channel": 0,
      "note": 37,
      "start": 117.5095,
      "duration": 0.1863,
      "velocity": 107,
      "chip": "ym2612"
    },
    {
      "channel": 1,
      "note": 49,
      "start": 117.5101,
      "duration": 0.0933,
      "velocity": 103,
      "chip": "ym2612"
    },
    {
      "channel": 2,
      "note": 56,
      "start": 117.5106,
      "duration": 3.4053,
      "velocity": 111,
      "chip": "ym2612"
    },
    {
      "channel": 3,
      "note": 54,
      "start": 117.5112,
      "duration": 0.4253,
      "velocity": 111,
      "chip": "ym2612"
    },
    {
      "channel": 4,
      "note": 61,
      "start": 117.5117,
      "duration": 0.0923,
      "velocity": 122,
      "chip": "ym2612"
    },
    {
      "channel": 1,
      "note": 61,
      "start": 117.6035,
      "duration": 0.0929,
      "velocity": 103,
      "chip": "ym2612"
    },
    {
      "channel": 4,
      "note": 61,
      "start": 117.6042,
      "duration": 0.0929,
      "velocity": 122,
      "chip": "ym2612"
    },
    {
      "channel": 0,
      "note": 37,
      "start": 117.696,
      "duration": 0.4263,
      "velocity": 107,
      "chip": "ym2612"
    },
    {
      "channel": 1,
      "note": 49,
      "start": 117.6965,
      "duration": 0.1193,
      "velocity": 103,
      "chip": "ym2612"
    },
    {
      "channel": 4,
      "note": 59,
      "start": 117.6972,
      "duration": 0.1193,
      "velocity": 122,
      "chip": "ym2612"
    },
    {
      "channel": 5,
      "note": 96,
      "start": 117.6978,
      "duration": 0.4263,
      "velocity": 127,
      "chip": "ym2612"
    },
    {
      "channel": 1,
      "note": 59,
      "start": 117.816,
      "duration": 0.1198,
      "velocity": 103,
      "chip": "ym2612"
    },
    {
      "channel": 4,
      "note": 61,
      "start": 117.8166,
      "duration": 0.1203,
      "velocity": 122,
      "chip": "ym2612"
    },
    {
      "channel": 1,
      "note": 61,
      "start": 117.936,
      "duration": 0.0921,
      "velocity": 103,
      "chip": "ym2612"
    },
    {
      "channel": 3,
      "note": 56,
      "start": 117.9366,
      "duration": 2.9815,
      "velocity": 1,
      "chip": "ym2612"
    },
    {
      "channel": 4,
      "note": 64,
      "start": 117.9372,
      "duration": 0.0916,
      "velocity": 122,
      "chip": "ym2612"
    },
    {
      "channel": 1,
      "note": 49,
      "start": 118.0282,
      "duration": 0.0946,
      "velocity": 103,
      "chip": "ym2612"
    },
    {
      "channel": 4,
      "note": 61,
      "start": 118.0289,
      "duration": 0.0946,
      "velocity": 122,
      "chip": "ym2612"
    },
    {
      "channel": 0,
      "note": 35,
      "start": 118.1225,
      "duration": 0.1198,
      "velocity": 107,
      "chip": "ym2612"
    },
    {
      "channel": 1,
      "note": 61,
      "start": 118.1231,
      "duration": 0.1198,
      "velocity": 103,
      "chip": "ym2612"
    },
    {
      "channel": 4,
      "note": 59,
      "start": 118.1238,
      "duration": 0.1198,
      "velocity": 122,
      "chip": "ym2612"
    },
    {
      "channel": 5,
      "note": 96,
      "start": 118.1243,
      "duration": 0.4244,
      "velocity": 127,
      "chip": "ym2612"
    },
    {
      "channel": 0,
      "note": 37,
      "start": 118.2425,
      "duration": 0.1198,
      "velocity": 107,
      "chip": "ym2612"
    },
    {
      "channel": 1,
      "note": 49,
      "start": 118.2431,
      "duration": 0.1198,
      "velocity": 103,
      "chip": "ym2612"
    },
    {
      "channel": 4,
      "note": 61,
      "start": 118.2437,
      "duration": 0.9712,
      "velocity": 122,
      "chip": "ym2612"
    },
    {
      "channel": 0,
      "note": 40,
      "start": 118.3625,
      "duration": 0.185,
      "velocity": 107,
      "chip": "ym2612"
    },
    {
      "channel": 1,
      "note": 59,
      "start": 118.363,
      "duration": 0.0921,
      "velocity": 103,
      "chip": "ym2612"
    },
    {
      "channel": 1,
      "note": 61,
      "start": 118.4552,
      "duration": 0.0928,
      "velocity": 103,
      "chip": "ym2612"
    },
    {
      "channel": 0,
      "note": 37,
      "start": 118.5476,
      "duration": 0.1199,
      "velocity": 107,
      "chip": "ym2612"
    },
    {
      "channel": 1,
      "note": 49,
      "start": 118.5482,
      "duration": 0.1198,
      "velocity": 103,
      "chip": "ym2612"
    },
    {
      "channel": 5,
      "note": 96,
      "start": 118.5489,
      "duration": 0.4245,
      "velocity": 127,
      "chip": "ym2612"
    },
    {
      "channel": 0,
      "note": 40,
      "start": 118.6676,
      "duration": 0.2124,
      "velocity": 107,
      "chip": "ym2612"
    },
    {
      "channel": 1,
      "note": 61,
      "start": 118.6682,
      "duration": 0.1193,
      "velocity": 103,
      "chip": "ym2612"
    },
    {
      "channel": 1,
      "note": 49,
      "start": 118.7876,
      "duration": 0.0929,
      "velocity": 103,
      "chip": "ym2612"
    },
    {
      "channel": 0,
      "note": 37,
      "start": 118.8801,
      "duration": 0.092,
      "velocity": 107,
      "chip": "ym2612"
    },
    {
      "channel": 1,
      "note": 59,
      "start": 118.8807,
      "duration": 0.092,
      "velocity": 103,
      "chip": "ym2612"
    },
    {
      "channel": 0,
      "note": 42,
      "start": 118.9722,
      "duration": 0.2398,
      "velocity": 107,
      "chip": "ym2612"
    },
    {
      "channel": 1,
      "note": 61,
      "start": 118.9728,
      "duration": 0.1193,
      "velocity": 103,
      "chip": "ym2612"
    },
    {
      "channel": 5,
      "note": 96,
      "start": 118.9735,
      "duration": 0.4254,
      "velocity": 127,
      "chip": "ym2612"
    },
    {
      "channel": 1,
      "note": 49,
      "start": 119.0922,
      "duration": 0.1204,
      "velocity": 103,
      "chip": "ym2612"
    },
    {
      "channel": 0,
      "note": 44,
      "start": 119.2122,
      "duration": 0.1849,
      "velocity": 107,
      "chip": "ym2612"
    },
    {
      "channel": 1,
      "note": 44,
      "start": 119.2128,
      "duration": 0.0921,
      "velocity": 103,
      "chip": "ym2612"
    },
    {
      "channel": 4,
      "note": 56,
      "start": 119.215,
      "duration": 0.0906,
      "velocity": 122,
      "chip": "ym2612"
    },
    {
      "channel": 1,
      "note": 56,
      "start": 119.3051,
      "duration": 0.0925,
      "velocity": 103,
      "chip": "ym2612"
    },
    {
      "channel": 4,
      "note": 56,
      "start": 119.3058,
      "duration": 0.0925,
      "velocity": 122,
      "chip": "ym2612"
    },
    {
      "channel": 0,
      "note": 44,
      "start": 119.3972,
      "duration": 0.426,
      "velocity": 107,
      "chip": "ym2612"
    },
    {
      "channel": 1,
      "note": 44,
      "start": 119.3978,
      "duration": 0.1193,
      "velocity": 103,
      "chip": "ym2612"
    },
    {
      "channel": 4,
      "note": 54,
      "start": 119.3985,
      "duration": 0.1193,
      "velocity": 122,
      "chip": "ym2612"
    },
    {
      "channel": 5,
      "note": 96,
      "start": 119.3991,
      "duration": 0.426,
      "velocity": 127,
      "chip": "ym2612"
    },
    {
      "channel": 1,
      "note": 54,
      "start": 119.5173,
      "duration": 0.1198,
      "velocity": 103,
      "chip": "ym2612"
    },
    {
      "channel": 4,
      "note": 56,
      "start": 119.5179,
      "duration": 0.1198,
      "velocity": 122,
      "chip": "ym2612"
    },
    {
      "channel": 1,
      "note": 56,
      "start": 119.6372,
      "duration": 0.0925,
      "velocity": 103,
      "chip": "ym2612"
    },
    {
      "channel": 4,
      "note": 59,
      "start": 119.6379,
      "duration": 0.0924,
      "velocity": 122,
      "chip": "ym2612"
    },
    {
      "channel": 1,
      "note": 44,
      "start": 119.7298,
      "duration": 0.094,
      "velocity": 103,
      "chip": "ym2612"
    },
    {
      "channel": 4,
      "note": 56,
      "start": 119.7305,
      "duration": 0.094,
      "velocity": 122,
      "chip": "ym2612"
    },
    {
      "channel": 0,
      "note": 42,
      "start": 119.8234,
      "duration": 0.1198,
      "velocity": 107,
      "chip": "ym2612"
    },
    {
      "channel": 1,
      "note": 56,
      "start": 119.824,
      "duration": 0.1198,
      "velocity": 103,
      "chip": "ym2612"
    },
    {
      "channel": 4,
      "note": 54,
      "start": 119.8246,
      "duration": 0.1199,
      "velocity": 122,
      "chip": "ym2612"
    },
    {
      "channel": 5,
      "note": 96,
      "start": 119.8252,
      "duration": 0.4245,
      "velocity": 127,
      "chip": "ym2612"
    },
    {
      "channel": 0,
      "note": 44,
      "start": 119.9434,
      "duration": 0.1198,
      "velocity": 107,
      "chip": "ym2612"
    },
    {
      "channel": 1,
      "note": 44,
      "start": 119.944,
      "duration": 0.1198,
      "velocity": 103,
      "chip": "ym2612"
    },
    {
      "channel": 4,
      "note": 56,
      "start": 119.9446,
      "duration": 0.974,
      "velocity": 122,
      "chip": "ym2612"
    },
    {
      "channel": 0,
      "note": 47,
      "start": 120.0634,
      "duration": 0.185,
      "velocity": 107,
      "chip": "ym2612"
    },
    {
      "channel": 1,
      "note": 54,
      "start": 120.0639,
      "duration": 0.0921,
      "velocity": 103,
      "chip": "ym2612"
    },
    {
      "channel": 1,
      "note": 56,
      "start": 120.1561,
      "duration": 0.0928,
      "velocity": 103,
      "chip": "ym2612"
    },
    {
      "channel": 0,
      "note": 44,
      "start": 120.2485,
      "duration": 0.1199,
      "velocity": 107,
      "chip": "ym2612"
    },
    {
      "channel": 1,
      "note": 44,
      "start": 120.2491,
      "duration": 0.1198,
      "velocity": 103,
      "chip": "ym2612"
    },
    {
      "channel": 5,
      "note": 96,
      "start": 120.2499,
      "duration": 0.4245,
      "velocity": 127,
      "chip": "ym2612"
    },
    {
      "channel": 0,
      "note": 47,
      "start": 120.3685,
      "duration": 0.2124,
      "velocity": 107,
      "chip": "ym2612"
    },
    {
      "channel": 1,
      "note": 56,
      "start": 120.3691,
      "duration": 0.1193,
      "velocity": 103,
      "chip": "ym2612"
    },
    {
      "channel": 1,
      "note": 44,
      "start": 120.4886,
      "duration": 0.0929,
      "velocity": 103,
      "chip": "ym2612"
    },
    {
      "channel": 0,
      "note": 44,
      "start": 120.5811,
      "duration": 0.092,
      "velocity": 107,
      "chip": "ym2612"
    },
    {
      "channel": 1,
      "note": 54,
      "start": 120.5816,
      "duration": 0.092,
      "velocity": 103,
      "chip": "ym2612"
    },
    {
      "channel": 0,
      "note": 51,
      "start": 120.6732,
      "duration": 0.2399,
      "velocity": 107,
      "chip": "ym2612"
    },
    {
      "channel": 1,
      "note": 56,
      "start": 120.6737,
      "duration": 0.1193,
      "velocity": 103,
      "chip": "ym2612"
    },
    {
      "channel": 5,
      "note": 96,
      "start": 120.6745,
      "duration": 0.4288,
      "velocity": 127,
      "chip": "ym2612"
    },
    {
      "channel": 1,
      "note": 59,
      "start": 120.7932,
      "duration": 0.1205,
      "velocity": 103,
      "chip": "ym2612"
    },
    {
      "channel": 0,
      "note": 37,
      "start": 120.9133,
      "duration": 0.1881,
      "velocity": 107,
      "chip": "ym2612"
    },
    {
      "channel": 1,
      "note": 49,
      "start": 120.9139,
      "duration": 0.092,
      "velocity": 103,
      "chip": "ym2612"
    },
    {
      "channel": 2,
      "note": 61,
      "start": 120.9161,
      "duration": 1.0382,
      "velocity": 111,
      "chip": "ym2612"
    },
    {
      "channel": 3,
      "note": 55,
      "start": 120.9182,
      "duration": 0.4254,
      "velocity": 111,
      "chip": "ym2612"
    },
    {
      "channel": 4,
      "note": 61,
      "start": 120.9189,
      "duration": 0.0893,
      "velocity": 122,
      "chip": "ym2612"
    },
    {
      "channel": 1,
      "note": 61,
      "start": 121.0061,
      "duration": 0.0959,
      "velocity": 103,
      "chip": "ym2612"
    },
    {
      "channel": 4,
      "note": 61,
      "start": 121.0083,
      "duration": 0.0943,
      "velocity": 122,
      "chip": "ym2612"
    },
    {
      "channel": 0,
      "note": 37,
      "start": 121.1016,
      "duration": 0.427,
      "velocity": 107,
      "chip": "ym2612"
    },
    {
      "channel": 1,
      "note": 49,
      "start": 121.1021,
      "duration": 0.1193,
      "velocity": 103,
      "chip": "ym2612"
    },
    {
      "channel": 4,
      "note": 59,
      "start": 121.1028,
      "duration": 0.1193,
      "velocity": 122,
      "chip": "ym2612"
    },
    {
      "channel": 5,
      "note": 96,
      "start": 121.1034,
      "duration": 0.427,
      "velocity": 127,
      "chip": "ym2612"
    },
    {
      "channel": 1,
      "note": 59,
      "start": 121.2216,
      "duration": 0.1198,
      "velocity": 103,
      "chip": "ym2612"
    },
    {
      "channel": 4,
      "note": 61,
      "start": 121.2223,
      "duration": 0.1219,
      "velocity": 122,
      "chip": "ym2612"
    },
    {
      "channel": 1,
      "note": 61,
      "start": 121.3416,
      "duration": 0.0948,
      "velocity": 103,
      "chip": "ym2612"
    },
    {
      "channel": 3,
      "note": 61,
      "start": 121.3438,
      "duration": 1.0355,
      "velocity": 111,
      "chip": "ym2612"
    },
    {
      "channel": 4,
      "note": 64,
      "start": 121.3443,
      "duration": 0.0927,
      "velocity": 122,
      "chip": "ym2612"
    },
    {
      "channel": 1,
      "note": 49,
      "start": 121.4366,
      "duration": 0.0925,
      "velocity": 103,
      "chip": "ym2612"
    },
    {
      "channel": 4,
      "note": 61,
      "start": 121.4373,
      "duration": 0.0925,
      "velocity": 122,
      "chip": "ym2612"
    },
    {
      "channel": 0,
      "note": 35,
      "start": 121.5287,
      "duration": 0.1198,
      "velocity": 107,
      "chip": "ym2612"
    },
    {
      "channel": 1,
      "note": 61,
      "start": 121.5293,
      "duration": 0.1198,
      "velocity": 103,
      "chip": "ym2612"
    },
    {
      "channel": 4,
      "note": 59,
      "start": 121.53,
      "duration": 0.1198,
      "velocity": 122,
      "chip": "ym2612"
    },
    {
      "channel": 5,
      "note": 96,
      "start": 121.5306,
      "duration": 0.4244,
      "velocity": 127,
      "chip": "ym2612"
    },
    {
      "channel": 0,
      "note": 37,
      "start": 121.6487,
      "duration": 0.1198,
      "velocity": 107,
      "chip": "ym2612"
    },
    {
      "channel": 1,
      "note": 49,
      "start": 121.6493,
      "duration": 0.1198,
      "velocity": 103,
      "chip": "ym2612"
    },
    {
      "channel": 4,
      "note": 61,
      "start": 121.6499,
      "duration": 0.9695,
      "velocity": 122,
      "chip": "ym2612"
    },
    {
      "channel": 0,
      "note": 40,
      "start": 121.7687,
      "duration": 0.1845,
      "velocity": 107,
      "chip": "ym2612"
    },
    {
      "channel": 1,
      "note": 59,
      "start": 121.7692,
      "duration": 0.0918,
      "velocity": 103,
      "chip": "ym2612"
    },
    {
      "channel": 1,
      "note": 61,
      "start": 121.8611,
      "duration": 0.0926,
      "velocity": 103,
      "chip": "ym2612"
    },
    {
      "channel": 0,
      "note": 37,
      "start": 121.9533,
      "duration": 0.1198,
      "velocity": 107,
      "chip": "ym2612"
    },
    {
      "channel": 1,
      "note": 49,
      "start": 121.9539,
      "duration": 0.1198,
      "velocity": 103,
      "chip": "ym2612"
    },
    {
      "channel": 2,
      "note": 63,
      "start": 121.9544,
      "duration": 0.2393,
      "velocity": 111,
      "chip": "ym2612"
    },
    {
      "channel": 5,
      "note": 96,
      "start": 121.9551,
      "duration": 0.4248,
      "velocity": 127,
      "chip": "ym2612"
    },
    {
      "channel": 0,
      "note": 40,
      "start": 122.0733,
      "duration": 0.2113,
      "velocity": 107,
      "chip": "ym2612"
    },
    {
      "channel": 1,
      "note": 61,
      "start": 122.0738,
      "duration": 0.1194,
      "velocity": 103,
      "chip": "ym2612"
    },
    {
      "channel": 1,
      "note": 49,
      "start": 122.1934,
      "duration": 0.0918,
      "velocity": 103,
      "chip": "ym2612"
    },
    {
      "channel": 2,
      "note": 64,
      "start": 122.1939,
      "duration": 0.1849,
      "velocity": 111,
      "chip": "ym2612"
    },
    {
      "channel": 0,
      "note": 37,
      "start": 122.2848,
      "duration": 0.0929,
      "velocity": 107,
      "chip": "ym2612"
    },
    {
      "channel": 1,
      "note": 59,
      "start": 122.2853,
      "duration": 0.0929,
      "velocity": 103,
      "chip": "ym2612"
    },
    {
      "channel": 0,
      "note": 42,
      "start": 122.3778,
      "duration": 0.2399,
      "velocity": 107,
      "chip": "ym2612"
    },
    {
      "channel": 1,
      "note": 61,
      "start": 122.3784,
      "duration": 0.1193,
      "velocity": 103,
      "chip": "ym2612"
    },
    {
      "channel": 2,
      "note": 66,
      "start": 122.379,
      "duration": 1.5176,
      "velocity": 111,
      "chip": "ym2612"
    },
    {
      "channel": 3,
      "note": 63,
      "start": 122.3795,
      "duration": 0.2394,
      "velocity": 111,
      "chip": "ym2612"
    },
    {
      "channel": 5,
      "note": 96,
      "start": 122.3801,
      "duration": 0.4258,
      "velocity": 127,
      "chip": "ym2612"
    },
    {
      "channel": 1,
      "note": 49,
      "start": 122.4979,
      "duration": 0.1203,
      "velocity": 103,
      "chip": "ym2612"
    },
    {
      "channel": 0,
      "note": 35,
      "start": 122.6178,
      "duration": 0.1858,
      "velocity": 107,
      "chip": "ym2612"
    },
    {
      "channel": 1,
      "note": 47,
      "start": 122.6184,
      "duration": 0.0928,
      "velocity": 103,
      "chip": "ym2612"
    },
    {
      "channel": 3,
      "note": 64,
      "start": 122.619,
      "duration": 0.1857,
      "velocity": 111,
      "chip": "ym2612"
    },
    {
      "channel": 4,
      "note": 59,
      "start": 122.6195,
      "duration": 0.0923,
      "velocity": 122,
      "chip": "ym2612"
    },
    {
      "channel": 1,
      "note": 59,
      "start": 122.7113,
      "duration": 0.0928,
      "velocity": 103,
      "chip": "ym2612"
    },
    {
      "channel": 4,
      "note": 59,
      "start": 122.712,
      "duration": 0.0933,
      "velocity": 122,
      "chip": "ym2612"
    },
    {
      "channel": 0,
      "note": 35,
      "start": 122.8038,
      "duration": 0.4253,
      "velocity": 107,
      "chip": "ym2612"
    },
    {
      "channel": 1,
      "note": 47,
      "start": 122.8043,
      "duration": 0.1194,
      "velocity": 103,
      "chip": "ym2612"
    },
    {
      "channel": 3,
      "note": 66,
      "start": 122.8049,
      "duration": 1.5196,
      "velocity": 111,
      "chip": "ym2612"
    },
    {
      "channel": 4,
      "note": 57,
      "start": 122.8055,
      "duration": 0.1188,
      "velocity": 122,
      "chip": "ym2612"
    },
    {
      "channel": 5,
      "note": 96,
      "start": 122.8061,
      "duration": 0.4248,
      "velocity": 127,
      "chip": "ym2612"
    },
    {
      "channel": 1,
      "note": 57,
      "start": 122.9238,
      "duration": 0.1198,
      "velocity": 103,
      "chip": "ym2612"
    },
    {
      "channel": 4,
      "note": 59,
      "start": 122.9245,
      "duration": 0.1198,
      "velocity": 122,
      "chip": "ym2612"
    },
    {
      "channel": 1,
      "note": 59,
      "start": 123.0437,
      "duration": 0.0925,
      "velocity": 103,
      "chip": "ym2612"
    },
    {
      "channel": 4,
      "note": 62,
      "start": 123.0444,
      "duration": 0.0925,
      "velocity": 122,
      "chip": "ym2612"
    },
    {
      "channel": 1,
      "note": 47,
      "start": 123.1363,
      "duration": 0.0932,
      "velocity": 103,
      "chip": "ym2612"
    },
    {
      "channel": 4,
      "note": 59,
      "start": 123.1371,
      "duration": 0.0932,
      "velocity": 122,
      "chip": "ym2612"
    },
    {
      "channel": 0,
      "note": 33,
      "start": 123.2292,
      "duration": 0.1198,
      "velocity": 107,
      "chip": "ym2612"
    },
    {
      "channel": 1,
      "note": 59,
      "start": 123.2298,
      "duration": 0.1198,
      "velocity": 103,
      "chip": "ym2612"
    },
    {
      "channel": 4,
      "note": 57,
      "start": 123.2304,
      "duration": 0.1198,
      "velocity": 122,
      "chip": "ym2612"
    },
    {
      "channel": 5,
      "note": 96,
      "start": 123.231,
      "duration": 0.4262,
      "velocity": 127,
      "chip": "ym2612"
    },
    {
      "channel": 0,
      "note": 35,
      "start": 123.3492,
      "duration": 0.1198,
      "velocity": 107,
      "chip": "ym2612"
    },
    {
      "channel": 1,
      "note": 47,
      "start": 123.3497,
      "duration": 0.1199,
      "velocity": 103,
      "chip": "ym2612"
    },
    {
      "channel": 4,
      "note": 59,
      "start": 123.3504,
      "duration": 0.9747,
      "velocity": 122,
      "chip": "ym2612"
    },
    {
      "channel": 0,
      "note": 38,
      "start": 123.4692,
      "duration": 0.1867,
      "velocity": 107,
      "chip": "ym2612"
    },
    {
      "channel": 1,
      "note": 57,
      "start": 123.4697,
      "duration": 0.092,
      "velocity": 103,
      "chip": "ym2612"
    },
    {
      "channel": 1,
      "note": 59,
      "start": 123.5619,
      "duration": 0.0946,
      "velocity": 103,
      "chip": "ym2612"
    },
    {
      "channel": 0,
      "note": 35,
      "start": 123.6561,
      "duration": 0.1199,
      "velocity": 107,
      "chip": "ym2612"
    },
    {
      "channel": 1,
      "note": 47,
      "start": 123.6566,
      "duration": 0.1198,
      "velocity": 103,
      "chip": "ym2612"
    },
    {
      "channel": 5,
      "note": 96,
      "start": 123.6574,
      "duration": 0.4267,
      "velocity": 127,
      "chip": "ym2612"
    },
    {
      "channel": 0,
      "note": 38,
      "start": 123.7761,
      "duration": 0.2125,
      "velocity": 107,
      "chip": "ym2612"
    },
    {
      "channel": 1,
      "note": 59,
      "start": 123.7766,
      "duration": 0.1194,
      "velocity": 103,
      "chip": "ym2612"
    },
    {
      "channel": 1,
      "note": 47,
      "start": 123.8962,
      "duration": 0.093,
      "velocity": 103,
      "chip": "ym2612"
    },
    {
      "channel": 2,
      "note": 59,
      "start": 123.8967,
      "duration": 0.4274,
      "velocity": 111,
      "chip": "ym2612"
    },
    {
      "channel": 0,
      "note": 35,
      "start": 123.9888,
      "duration": 0.0941,
      "velocity": 107,
      "chip": "ym2612"
    },
    {
      "channel": 1,
      "note": 57,
      "start": 123.9893,
      "duration": 0.0941,
      "velocity": 103,
      "chip": "ym2612"
    },
    {
      "channel": 0,
      "note": 40,
      "start": 124.083,
      "duration": 0.2399,
      "velocity": 107,
      "chip": "ym2612"
    },
    {
      "channel": 1,
      "note": 59,
      "start": 124.0835,
      "duration": 0.1193,
      "velocity": 103,
      "chip": "ym2612"
    },
    {
      "channel": 5,
      "note": 96,
      "start": 124.0843,
      "duration": 0.4268,
      "velocity": 127,
      "chip": "ym2612"
    },
    {
      "channel": 1,
      "note": 47,
      "start": 124.203,
      "duration": 0.1205,
      "velocity": 103,
      "chip": "ym2612"
    },
    {
      "channel": 0,
      "note": 37,
      "start": 124.3231,
      "duration": 0.1861,
      "velocity": 107,
      "chip": "ym2612"
    },
    {
      "channel": 1,
      "note": 49,
      "start": 124.3237,
      "duration": 0.0933,
      "velocity": 103,
      "chip": "ym2612"
    },
    {
      "channel": 2,
      "note": 68,
      "start": 124.3242,
      "duration": 1.7021,
      "velocity": 111,
      "chip": "ym2612"
    },
    {
      "channel": 3,
      "note": 59,
      "start": 124.3248,
      "duration": 0.4251,
      "velocity": 111,
      "chip": "ym2612"
    },
    {
      "channel": 4,
      "note": 61,
      "start": 124.3253,
      "duration": 0.0923,
      "velocity": 122,
      "chip": "ym2612"
    },
    {
      "channel": 1,
      "note": 61,
      "start": 124.4171,
      "duration": 0.0927,
      "velocity": 103,
      "chip": "ym2612"
    },
    {
      "channel": 4,
      "note": 61,
      "start": 124.4178,
      "duration": 0.0927,
      "velocity": 122,
      "chip": "ym2612"
    },
    {
      "channel": 0,
      "note": 37,
      "start": 124.5094,
      "duration": 0.4255,
      "velocity": 107,
      "chip": "ym2612"
    },
    {
      "channel": 1,
      "note": 49,
      "start": 124.51,
      "duration": 0.1193,
      "velocity": 103,
      "chip": "ym2612"
    },
    {
      "channel": 4,
      "note": 59,
      "start": 124.5106,
      "duration": 0.1193,
      "velocity": 122,
      "chip": "ym2612"
    },
    {
      "channel": 5,
      "note": 96,
      "start": 124.5112,
      "duration": 0.4255,
      "velocity": 127,
      "chip": "ym2612"
    },
    {
      "channel": 1,
      "note": 59,
      "start": 124.6295,
      "duration": 0.1198,
      "velocity": 103,
      "chip": "ym2612"
    },
    {
      "channel": 4,
      "note": 61,
      "start": 124.6302,
      "duration": 0.1203,
      "velocity": 122,
      "chip": "ym2612"
    },
    {
      "channel": 1,
      "note": 61,
      "start": 124.7495,
      "duration": 0.0921,
      "velocity": 103,
      "chip": "ym2612"
    },
    {
      "channel": 3,
      "note": 68,
      "start": 124.75,
      "duration": 1.7012,
      "velocity": 111,
      "chip": "ym2612"
    },
    {
      "channel": 4,
      "note": 64,
      "start": 124.7506,
      "duration": 0.0916,
      "velocity": 122,
      "chip": "ym2612"
    },
    {
      "channel": 1,
      "note": 49,
      "start": 124.8417,
      "duration": 0.0938,
      "velocity": 103,
      "chip": "ym2612"
    },
    {
      "channel": 4,
      "note": 61,
      "start": 124.8424,
      "duration": 0.0938,
      "velocity": 122,
      "chip": "ym2612"
    },
    {
      "channel": 0,
      "note": 35,
      "start": 124.935,
      "duration": 0.1198,
      "velocity": 107,
      "chip": "ym2612"
    },
    {
      "channel": 1,
      "note": 61,
      "start": 124.9356,
      "duration": 0.1198,
      "velocity": 103,
      "chip": "ym2612"
    },
    {
      "channel": 4,
      "note": 59,
      "start": 124.9363,
      "duration": 0.1198,
      "velocity": 122,
      "chip": "ym2612"
    },
    {
      "channel": 5,
      "note": 96,
      "start": 124.9369,
      "duration": 0.424,
      "velocity": 127,
      "chip": "ym2612"
    },
    {
      "channel": 0,
      "note": 37,
      "start": 125.055,
      "duration": 0.1198,
      "velocity": 107,
      "chip": "ym2612"
    },
    {
      "channel": 1,
      "note": 49,
      "start": 125.0556,
      "duration": 0.1199,
      "velocity": 103,
      "chip": "ym2612"
    },
    {
      "channel": 4,
      "note": 61,
      "start": 125.0563,
      "duration": 0.9705,
      "velocity": 122,
      "chip": "ym2612"
    },
    {
      "channel": 0,
      "note": 40,
      "start": 125.175,
      "duration": 0.1846,
      "velocity": 107,
      "chip": "ym2612"
    },
    {
      "channel": 1,
      "note": 59,
      "start": 125.1756,
      "duration": 0.0917,
      "velocity": 103,
      "chip": "ym2612"
    },
    {
      "channel": 1,
      "note": 61,
      "start": 125.2673,
      "duration": 0.0928,
      "velocity": 103,
      "chip": "ym2612"
    },
    {
      "channel": 0,
      "note": 37,
      "start": 125.3597,
      "duration": 0.1199,
      "velocity": 107,
      "chip": "ym2612"
    },
    {
      "channel": 1,
      "note": 49,
      "start": 125.3603,
      "duration": 0.1198,
      "velocity": 103,
      "chip": "ym2612"
    },
    {
      "channel": 5,
      "note": 96,
      "start": 125.3611,
      "duration": 0.4253,
      "velocity": 127,
      "chip": "ym2612"
    },
    {
      "channel": 0,
      "note": 40,
      "start": 125.4797,
      "duration": 0.2119,
      "velocity": 107,
      "chip": "ym2612"
    },
    {
      "channel": 1,
      "note": 61,
      "start": 125.4803,
      "duration": 0.1194,
      "velocity": 103,
      "chip": "ym2612"
    },
    {
      "channel": 1,
      "note": 49,
      "start": 125.5998,
      "duration": 0.0924,
      "velocity": 103,
      "chip": "ym2612"
    },
    {
      "channel": 0,
      "note": 37,
      "start": 125.6918,
      "duration": 0.0933,
      "velocity": 107,
      "chip": "ym2612"
    },
    {
      "channel": 1,
      "note": 59,
      "start": 125.6924,
      "duration": 0.0932,
      "velocity": 103,
      "chip": "ym2612"
    },
    {
      "channel": 0,
      "note": 42,
      "start": 125.7852,
      "duration": 0.2399,
      "velocity": 107,
      "chip": "ym2612"
    },
    {
      "channel": 1,
      "note": 61,
      "start": 125.7858,
      "duration": 0.1194,
      "velocity": 103,
      "chip": "ym2612"
    },
    {
      "channel": 5,
      "note": 96,
      "start": 125.7866,
      "duration": 0.4263,
      "velocity": 127,
      "chip": "ym2612"
    },
    {
      "channel": 1,
      "note": 49,
      "start": 125.9053,
      "duration": 0.1204,
      "velocity": 103,
      "chip": "ym2612"
    },
    {
      "channel": 0,
      "note": 44,
      "start": 126.0253,
      "duration": 0.1853,
      "velocity": 107,
      "chip": "ym2612"
    },
    {
      "channel": 1,
      "note": 44,
      "start": 126.0259,
      "duration": 0.0915,
      "velocity": 103,
      "chip": "ym2612"
    },
    {
      "channel": 2,
      "note": 71,
      "start": 126.0263,
      "duration": 0.0915,
      "velocity": 111,
      "chip": "ym2612"
    },
    {
      "channel": 4,
      "note": 56,
      "start": 126.027,
      "duration": 0.0914,
      "velocity": 122,
      "chip": "ym2612"
    },
    {
      "channel": 1,
      "note": 56,
      "start": 126.1175,
      "duration": 0.0937,
      "velocity": 103,
      "chip": "ym2612"
    },
    {
      "channel": 2,
      "note": 68,
      "start": 126.118,
      "duration": 0.0937,
      "velocity": 111,
      "chip": "ym2612"
    },
    {
      "channel": 4,
      "note": 56,
      "start": 126.1186,
      "duration": 0.0937,
      "velocity": 122,
      "chip": "ym2612"
    },
    {
      "channel": 0,
      "note": 44,
      "start": 126.2107,
      "duration": 0.4257,
      "velocity": 107,
      "chip": "ym2612"
    },
    {
      "channel": 1,
      "note": 44,
      "start": 126.2113,
      "duration": 0.1194,
      "velocity": 103,
      "chip": "ym2612"
    },
    {
      "channel": 2,
      "note": 66,
      "start": 126.2118,
      "duration": 0.1193,
      "velocity": 111,
      "chip": "ym2612"
    },
    {
      "channel": 4,
      "note": 54,
      "start": 126.2125,
      "duration": 0.1193,
      "velocity": 122,
      "chip": "ym2612"
    },
    {
      "channel": 5,
      "note": 96,
      "start": 126.2131,
      "duration": 0.4257,
      "velocity": 127,
      "chip": "ym2612"
    },
    {
      "channel": 1,
      "note": 54,
      "start": 126.3307,
      "duration": 0.1198,
      "velocity": 103,
      "chip": "ym2612"
    },
    {
      "channel": 2,
      "note": 76,
      "start": 126.3313,
      "duration": 0.9715,
      "velocity": 103,
      "chip": "ym2612"
    },
    {
      "channel": 4,
      "note": 56,
      "start": 126.332,
      "duration": 0.1198,
      "velocity": 122,
      "chip": "ym2612"
    },
    {
      "channel": 1,
      "note": 56,
      "start": 126.4507,
      "duration": 0.092,
      "velocity": 103,
      "chip": "ym2612"
    },
    {
      "channel": 3,
      "note": 71,
      "start": 126.4514,
      "duration": 0.092,
      "velocity": 111,
      "chip": "ym2612"
    },
    {
      "channel": 4,
      "note": 59,
      "start": 126.452,
      "duration": 0.092,
      "velocity": 122,
      "chip": "ym2612"
    },
    {
      "channel": 1,
      "note": 44,
      "start": 126.5429,
      "duration": 0.0941,
      "velocity": 103,
      "chip": "ym2612"
    },
    {
      "channel": 3,
      "note": 68,
      "start": 126.5436,
      "duration": 0.094,
      "velocity": 111,
      "chip": "ym2612"
    },
    {
      "channel": 4,
      "note": 56,
      "start": 126.5441,
      "duration": 0.0941,
      "velocity": 122,
      "chip": "ym2612"
    },
    {
      "channel": 0,
      "note": 42,
      "start": 126.6366,
      "duration": 0.1198,
      "velocity": 107,
      "chip": "ym2612"
    },
    {
      "channel": 1,
      "note": 56,
      "start": 126.6371,
      "duration": 0.1198,
      "velocity": 103,
      "chip": "ym2612"
    },
    {
      "channel": 3,
      "note": 66,
      "start": 126.6378,
      "duration": 0.1198,
      "velocity": 111,
      "chip": "ym2612"
    },
    {
      "channel": 4,
      "note": 54,
      "start": 126.6383,
      "duration": 0.1198,
      "velocity": 122,
      "chip": "ym2612"
    },
    {
      "channel": 5,
      "note": 96,
      "start": 126.6389,
      "duration": 0.4229,
      "velocity": 127,
      "chip": "ym2612"
    },
    {
      "channel": 0,
      "note": 44,
      "start": 126.7566,
      "duration": 0.1199,
      "velocity": 107,
      "chip": "ym2612"
    },
    {
      "channel": 1,
      "note": 44,
      "start": 126.7571,
      "duration": 0.1199,
      "velocity": 103,
      "chip": "ym2612"
    },
    {
      "channel": 3,
      "note": 76,
      "start": 126.7578,
      "duration": 0.5473,
      "velocity": 103,
      "chip": "ym2612"
    },
    {
      "channel": 4,
      "note": 56,
      "start": 126.7583,
      "duration": 0.976,
      "velocity": 107,
      "chip": "ym2612"
    },
    {
      "channel": 0,
      "note": 47,
      "start": 126.8766,
      "duration": 0.184,
      "velocity": 107,
      "chip": "ym2612"
    },
    {
      "channel": 1,
      "note": 54,
      "start": 126.8772,
      "duration": 0.0915,
      "velocity": 103,
      "chip": "ym2612"
    },
    {
      "channel": 1,
      "note": 56,
      "start": 126.9689,
      "duration": 0.0922,
      "velocity": 103,
      "chip": "ym2612"
    },
    {
      "channel": 0,
      "note": 44,
      "start": 127.0607,
      "duration": 0.1198,
      "velocity": 107,
      "chip": "ym2612"
    },
    {
      "channel": 1,
      "note": 44,
      "start": 127.0613,
      "duration": 0.1198,
      "velocity": 103,
      "chip": "ym2612"
    },
    {
      "channel": 5,
      "note": 96,
      "start": 127.0621,
      "duration": 0.4299,
      "velocity": 127,
      "chip": "ym2612"
    },
    {
      "channel": 0,
      "note": 47,
      "start": 127.1807,
      "duration": 0.2148,
      "velocity": 107,
      "chip": "ym2612"
    },
    {
      "channel": 1,
      "note": 56,
      "start": 127.1813,
      "duration": 0.1194,
      "velocity": 103,
      "chip": "ym2612"
    },
    {
      "channel": 1,
      "note": 44,
      "start": 127.3008,
      "duration": 0.0953,
      "velocity": 103,
      "chip": "ym2612"
    },
    {
      "channel": 2,
      "note": 73,
      "start": 127.303,
      "duration": 0.003,
      "velocity": 103,
      "chip": "ym2612"
    },
    {
      "channel": 3,
      "note": 68,
      "start": 127.3053,
      "duration": 0.0011,
      "velocity": 103,
      "chip": "ym2612"
    },
    {
      "channel": 2,
      "note": 74,
      "start": 127.306,
      "duration": 0.011,
      "velocity": 103,
      "chip": "ym2612"
    },
    {
      "channel": 3,
      "note": 69,
      "start": 127.3063,
      "duration": 0.0109,
      "velocity": 103,
      "chip": "ym2612"
    },
    {
      "channel": 2,
      "note": 75,
      "start": 127.317,
      "duration": 0.0151,
      "velocity": 103,
      "chip": "ym2612"
    },
    {
      "channel": 3,
      "note": 70,
      "start": 127.3173,
      "duration": 0.0151,
      "velocity": 103,
      "chip": "ym2612"
    },
    {
      "channel": 2,
      "note": 75,
      "start": 127.3321,
      "duration": 0.0155,
      "velocity": 103,
      "chip": "ym2612"
    },
    {
      "channel": 3,
      "note": 71,
      "start": 127.3324,
      "duration": 0.0154,
      "velocity": 103,
      "chip": "ym2612"
    },
    {
      "channel": 2,
      "note": 76,
      "start": 127.3476,
      "duration": 0.0161,
      "velocity": 103,
      "chip": "ym2612"
    },
    {
      "channel": 3,
      "note": 72,
      "start": 127.3478,
      "duration": 0.0162,
      "velocity": 103,
      "chip": "ym2612"
    },
    {
      "channel": 2,
      "note": 77,
      "start": 127.3637,
      "duration": 0.0155,
      "velocity": 103,
      "chip": "ym2612"
    },
    {
      "channel": 3,
      "note": 73,
      "start": 127.364,
      "duration": 0.0154,
      "velocity": 103,
      "chip": "ym2612"
    },
    {
      "channel": 2,
      "note": 77,
      "start": 127.3792,
      "duration": 0.0177,
      "velocity": 103,
      "chip": "ym2612"
    },
    {
      "channel": 3,
      "note": 74,
      "start": 127.3795,
      "duration": 0.0177,
      "velocity": 103,
      "chip": "ym2612"
    },
    {
      "channel": 0,
      "note": 44,
      "start": 127.3957,
      "duration": 0.0949,
      "velocity": 107,
      "chip": "ym2612"
    },
    {
      "channel": 1,
      "note": 54,
      "start": 127.3963,
      "duration": 0.0949,
      "velocity": 103,
      "chip": "ym2612"
    },
    {
      "channel": 2,
      "note": 78,
      "start": 127.3969,
      "duration": 0.0139,
      "velocity": 103,
      "chip": "ym2612"
    },
    {
      "channel": 3,
      "note": 74,
      "start": 127.3972,
      "duration": 0.0139,
      "velocity": 103,
      "chip": "ym2612"
    },
    {
      "channel": 2,
      "note": 79,
      "start": 127.4108,
      "duration": 0.0164,
      "velocity": 103,
      "chip": "ym2612"
    },
    {
      "channel": 3,
      "note": 75,
      "start": 127.4111,
      "duration": 0.0164,
      "velocity": 103,
      "chip": "ym2612"
    },
    {
      "channel": 2,
      "note": 79,
      "start": 127.4272,
      "duration": 0.016,
      "velocity": 103,
      "chip": "ym2612"
    },
    {
      "channel": 3,
      "note": 76,
      "start": 127.4275,
      "duration": 0.0161,
      "velocity": 103,
      "chip": "ym2612"
    },
    {
      "channel": 2,
      "note": 80,
      "start": 127.4432,
      "duration": 0.0155,
      "velocity": 103,
      "chip": "ym2612"
    },
    {
      "channel": 3,
      "note": 77,
      "start": 127.4435,
      "duration": 0.0154,
      "velocity": 103,
      "chip": "ym2612"
    },
    {
      "channel": 2,
      "note": 81,
      "start": 127.4587,
      "duration": 0.0151,
      "velocity": 103,
      "chip": "ym2612"
    },
    {
      "channel": 3,
      "note": 77,
      "start": 127.459,
      "duration": 0.0152,
      "velocity": 103,
      "chip": "ym2612"
    },
    {
      "channel": 2,
      "note": 82,
      "start": 127.4739,
      "duration": 0.0187,
      "velocity": 103,
      "chip": "ym2612"
    },
    {
      "channel": 3,
      "note": 78,
      "start": 127.4742,
      "duration": 0.0187,
      "velocity": 103,
      "chip": "ym2612"
    },
    {
      "channel": 0,
      "note": 51,
      "start": 127.4908,
      "duration": 0.24,
      "velocity": 107,
      "chip": "ym2612"
    },
    {
      "channel": 1,
      "note": 56,
      "start": 127.4914,
      "duration": 0.1194,
      "velocity": 103,
      "chip": "ym2612"
    },
    {
      "channel": 5,
      "note": 96,
      "start": 127.4921,
      "duration": 0.4306,
      "velocity": 127,
      "chip": "ym2612"
    },
    {
      "channel": 2,
      "note": 83,
      "start": 127.4926,
      "duration": 0.0178,
      "velocity": 103,
      "chip": "ym2612"
    },
    {
      "channel": 3,
      "note": 79,
      "start": 127.4928,
      "duration": 0.0178,
      "velocity": 103,
      "chip": "ym2612"
    },
    {
      "channel": 2,
      "note": 84,
      "start": 127.5103,
      "duration": 0.02,
      "velocity": 103,
      "chip": "ym2612"
    },
    {
      "channel": 3,
      "note": 79,
      "start": 127.5106,
      "duration": 0.02,
      "velocity": 103,
      "chip": "ym2612"
    },
    {
      "channel": 2,
      "note": 85,
      "start": 127.5303,
      "duration": 0.0199,
      "velocity": 103,
      "chip": "ym2612"
    },
    {
      "channel": 3,
      "note": 80,
      "start": 127.5306,
      "duration": 0.02,
      "velocity": 103,
      "chip": "ym2612"
    },
    {
      "channel": 2,
      "note": 85,
      "start": 127.5503,
      "duration": 0.02,
      "velocity": 103,
      "chip": "ym2612"
    },
    {
      "channel": 3,
      "note": 81,
      "start": 127.5506,
      "duration": 0.02,
      "velocity": 103,
      "chip": "ym2612"
    },
    {
      "channel": 2,
      "note": 86,
      "start": 127.5703,
      "duration": 0.0201,
      "velocity": 103,
      "chip": "ym2612"
    },
    {
      "channel": 3,
      "note": 82,
      "start": 127.5706,
      "duration": 0.02,
      "velocity": 103,
      "chip": "ym2612"
    },
    {
      "channel": 2,
      "note": 87,
      "start": 127.5903,
      "duration": 0.0213,
      "velocity": 103,
      "chip": "ym2612"
    },
    {
      "channel": 3,
      "note": 83,
      "start": 127.5906,
      "duration": 0.0213,
      "velocity": 103,
      "chip": "ym2612"
    },
    {
      "channel": 1,
      "note": 59,
      "start": 127.611,
      "duration": 0.1205,
      "velocity": 103,
      "chip": "ym2612"
    },
    {
      "channel": 2,
      "note": 88,
      "start": 127.6116,
      "duration": 0.0187,
      "velocity": 103,
      "chip": "ym2612"
    },
    {
      "channel": 3,
      "note": 84,
      "start": 127.6119,
      "duration": 0.0187,
      "velocity": 103,
      "chip": "ym2612"
    },
    {
      "channel": 2,
      "note": 88,
      "start": 127.6303,
      "duration": 0.0199,
      "velocity": 103,
      "chip": "ym2612"
    },
    {
      "channel": 3,
      "note": 85,
      "start": 127.6306,
      "duration": 0.02,
      "velocity": 103,
      "chip": "ym2612"
    },
    {
      "channel": 2,
      "note": 89,
      "start": 127.6503,
      "duration": 0.0201,
      "velocity": 103,
      "chip": "ym2612"
    },
    {
      "channel": 3,
      "note": 85,
      "start": 127.6506,
      "duration": 0.02,
      "velocity": 103,
      "chip": "ym2612"
    },
    {
      "channel": 2,
      "note": 90,
      "start": 127.6703,
      "duration": 0.02,
      "velocity": 103,
      "chip": "ym2612"
    },
    {
      "channel": 3,
      "note": 86,
      "start": 127.6706,
      "duration": 0.02,
      "velocity": 103,
      "chip": "ym2612"
    },
    {
      "channel": 2,
      "note": 90,
      "start": 127.6903,
      "duration": 0.02,
      "velocity": 103,
      "chip": "ym2612"
    },
    {
      "channel": 3,
      "note": 87,
      "start": 127.6906,
      "duration": 0.02,
      "velocity": 103,
      "chip": "ym2612"
    },
    {
      "channel": 2,
      "note": 91,
      "start": 127.7103,
      "duration": 0.0217,
      "velocity": 103,
      "chip": "ym2612"
    },
    {
      "channel": 3,
      "note": 88,
      "start": 127.7106,
      "duration": 0.0247,
      "velocity": 103,
      "chip": "ym2612"
    },
    {
      "channel": 0,
      "note": 37,
      "start": 127.731,
      "duration": 0.3093,
      "velocity": 107,
      "chip": "ym2612"
    },
    {
      "channel": 1,
      "note": 85,
      "start": 127.7316,
      "duration": 1.7096,
      "velocity": 103,
      "chip": "ym2612"
    },
    {
      "channel": 2,
      "note": 76,
      "start": 127.7322,
      "duration": 1.7112,
      "velocity": 103,
      "chip": "ym2612"
    },
    {
      "channel": 4,
      "note": 110,
      "start": 127.7345,
      "duration": 0.0951,
      "velocity": 107,
      "chip": "ym2612"
    },
    {
      "channel": 3,
      "note": 88,
      "start": 127.7353,
      "duration": 0.0119,
      "velocity": 103,
      "chip": "ym2612"
    },
    {
      "channel": 3,
      "note": 89,
      "start": 127.7472,
      "duration": 0.0156,
      "velocity": 103,
      "chip": "ym2612"
    },
    {
      "channel": 3,
      "note": 90,
      "start": 127.7628,
      "duration": 0.016,
      "velocity": 103,
      "chip": "ym2612"
    },
    {
      "channel": 3,
      "note": 90,
      "start": 127.7788,
      "duration": 0.016,
      "velocity": 103,
      "chip": "ym2612"
    },
    {
      "channel": 3,
      "note": 91,
      "start": 127.7949,
      "duration": 0.0153,
      "velocity": 103,
      "chip": "ym2612"
    },
    {
      "channel": 3,
      "note": 92,
      "start": 127.8102,
      "duration": 0.0172,
      "velocity": 103,
      "chip": "ym2612"
    },
    {
      "channel": 3,
      "note": 80,
      "start": 127.8276,
      "duration": 1.618,
      "velocity": 103,
      "chip": "ym2612"
    },
    {
      "channel": 4,
      "note": 110,
      "start": 127.8298,
      "duration": 0.0923,
      "velocity": 107,
      "chip": "ym2612"
    },
    {
      "channel": 4,
      "note": 110,
      "start": 127.9222,
      "duration": 0.1188,
      "velocity": 107,
      "chip": "ym2612"
    },
    {
      "channel": 5,
      "note": 96,
      "start": 127.9229,
      "duration": 0.4253,
      "velocity": 127,
      "chip": "ym2612"
    },
    {
      "channel": 0,
      "note": 37,
      "start": 128.0404,
      "duration": 0.1198,
      "velocity": 107,
      "chip": "ym2612"
    },
    {
      "channel": 4,
      "note": 110,
      "start": 128.0411,
      "duration": 0.1214,
      "velocity": 127,
      "chip": "ym2612"
    },
    {
      "channel": 0,
      "note": 49,
      "start": 128.1604,
      "duration": 0.0935,
      "velocity": 107,
      "chip": "ym2612"
    },
    {
      "channel": 4,
      "note": 43,
      "start": 128.1627,
      "duration": 0.1848,
      "velocity": 107,
      "chip": "ym2612"
    },
    {
      "channel": 0,
      "note": 37,
      "start": 128.254,
      "duration": 0.2117,
      "velocity": 107,
      "chip": "ym2612"
    },
    {
      "channel": 4,
      "note": 110,
      "start": 128.3477,
      "duration": 0.1203,
      "velocity": 107,
      "chip": "ym2612"
    },
    {
      "channel": 5,
      "note": 96,
      "start": 128.3484,
      "duration": 0.4245,
      "velocity": 127,
      "chip": "ym2612"
    },
    {
      "channel": 0,
      "note": 49,
      "start": 128.4659,
      "duration": 0.2141,
      "velocity": 107,
      "chip": "ym2612"
    },
    {
      "channel": 4,
      "note": 110,
      "start": 128.4683,
      "duration": 0.1241,
      "velocity": 107,
      "chip": "ym2612"
    },
    {
      "channel": 4,
      "note": 110,
      "start": 128.5926,
      "duration": 0.0898,
      "velocity": 107,
      "chip": "ym2612"
    },
    {
      "channel": 0,
      "note": 49,
      "start": 128.6802,
      "duration": 0.0913,
      "velocity": 107,
      "chip": "ym2612"
    },
    {
      "channel": 4,
      "note": 110,
      "start": 128.6825,
      "duration": 0.0898,
      "velocity": 107,
      "chip": "ym2612"
    },
    {
      "channel": 0,
      "note": 47,
      "start": 128.7717,
      "duration": 0.2398,
      "velocity": 107,
      "chip": "ym2612"
    },
    {
      "channel": 4,
      "note": 110,
      "start": 128.7724,
      "duration": 0.1193,
      "velocity": 107,
      "chip": "ym2612"
    },
    {
      "channel": 5,
      "note": 96,
      "start": 128.773,
      "duration": 0.429,
      "velocity": 127,
      "chip": "ym2612"
    },
    {
      "channel": 4,
      "note": 110,
      "start": 128.8919,
      "duration": 0.1219,
      "velocity": 127,
      "chip": "ym2612"
    },
    {
      "channel": 0,
      "note": 42,
      "start": 129.0117,
      "duration": 0.0933,
      "velocity": 107,
      "chip": "ym2612"
    },
    {
      "channel": 4,
      "note": 43,
      "start": 129.014,
      "duration": 0.1873,
      "velocity": 107,
      "chip": "ym2612"
    },
    {
      "channel": 0,
      "note": 44,
      "start": 129.1051,
      "duration": 0.0939,
      "velocity": 107,
      "chip": "ym2612"
    },
    {
      "channel": 0,
      "note": 47,
      "start": 129.1992,
      "duration": 0.2399,
      "velocity": 107,
      "chip": "ym2612"
    },
    {
      "channel": 4,
      "note": 110,
      "start": 129.2015,
      "duration": 0.1193,
      "velocity": 107,
      "chip": "ym2612"
    },
    {
      "channel": 5,
      "note": 96,
      "start": 129.2021,
      "duration": 18.6449,
      "velocity": 127,
      "chip": "ym2612"
    },
    {
      "channel": 4,
      "note": 110,
      "start": 129.321,
      "duration": 0.1268,
      "velocity": 107,
      "chip": "ym2612"
    },
    {
      "channel": 0,
      "note": 37,
      "start": 129.4393,
      "duration": 18.4077,
      "velocity": 107,
      "chip": "ym2612"
    },
    {
      "channel": 1,
      "note": 83,
      "start": 129.4414,
      "duration": 18.4055,
      "velocity": 103,
      "chip": "ym2612"
    },
    {
      "channel": 2,
      "note": 80,
      "start": 129.4436,
      "duration": 18.4034,
      "velocity": 103,
      "chip": "ym2612"
    },
    {
      "channel": 3,
      "note": 76,
      "start": 129.4458,
      "duration": 18.4012,
      "velocity": 103,
      "chip": "ym2612"
    }
  ]
}