{
  "track_name": "02 - Game BGM",
  "duration_sec": 144.396,
  "sample_rate": 44100,
  "note_count": 4658,
  "unique_pitches": 86,
  "pitch_range": 95,
  "avg_note_duration": 0.122,
  "reconstruction_stats": {
    "notes_reconstructed": 4658,
    "keyon_events": 4658,
    "keyoff_events": 2412,
    "orphan_keyons": 4,
    "unique_pitches": 86,
    "pitch_range": 95,
    "avg_duration_sec": 0.122
  },
  "metadata": {
    "source": "D\\Dino Dini's Soccer\\02 - Game BGM.vgz"
  },
  "notes": [
    {
      "channel": 0,
      "note": 50,
      "start": 0.0022,
      "duration": 0.179,
      "velocity": 89,
      "chip": "ym2612"
    },
    {
      "channel": 1,
      "note": 21,
      "start": 0.0044,
      "duration": 0.179,
      "velocity": 127,
      "chip": "ym2612"
    },
    {
      "channel": 0,
      "note": 62,
      "start": 0.1815,
      "duration": 0.1807,
      "velocity": 89,
      "chip": "ym2612"
    },
    {
      "channel": 1,
      "note": 74,
      "start": 0.1836,
      "duration": 0.0884,
      "velocity": 127,
      "chip": "ym2612"
    },
    {
      "channel": 1,
      "note": 74,
      "start": 0.2722,
      "duration": 0.0922,
      "velocity": 119,
      "chip": "ym2612"
    },
    {
      "channel": 0,
      "note": 62,
      "start": 0.3624,
      "duration": 0.1812,
      "velocity": 89,
      "chip": "ym2612"
    },
    {
      "channel": 1,
      "note": 31,
      "start": 0.3646,
      "duration": 0.0902,
      "velocity": 127,
      "chip": "ym2612"
    },
    {
      "channel": 1,
      "note": 74,
      "start": 0.4549,
      "duration": 0.0894,
      "velocity": 127,
      "chip": "ym2612"
    },
    {
      "channel": 0,
      "note": 50,
      "start": 0.5439,
      "duration": 0.0904,
      "velocity": 89,
      "chip": "ym2612"
    },
    {
      "channel": 1,
      "note": 74,
      "start": 0.5444,
      "duration": 0.1804,
      "velocity": 127,
      "chip": "ym2612"
    },
    {
      "channel": 0,
      "note": 62,
      "start": 0.6344,
      "duration": 0.1809,
      "velocity": 89,
      "chip": "ym2612"
    },
    {
      "channel": 1,
      "note": 74,
      "start": 0.7251,
      "duration": 0.0908,
      "velocity": 127,
      "chip": "ym2612"
    },
    {
      "channel": 0,
      "note": 50,
      "start": 0.8155,
      "duration": 0.0901,
      "velocity": 89,
      "chip": "ym2612"
    },
    {
      "channel": 1,
      "note": 74,
      "start": 0.8161,
      "duration": 0.0917,
      "velocity": 127,
      "chip": "ym2612"
    },
    {
      "channel": 0,
      "note": 62,
      "start": 0.9058,
      "duration": 0.1808,
      "velocity": 89,
      "chip": "ym2612"
    },
    {
      "channel": 1,
      "note": 21,
      "start": 0.9079,
      "duration": 0.09,
      "velocity": 127,
      "chip": "ym2612"
    },
    {
      "channel": 1,
      "note": 74,
      "start": 0.998,
      "duration": 0.0907,
      "velocity": 119,
      "chip": "ym2612"
    },
    {
      "channel": 0,
      "note": 60,
      "start": 1.0868,
      "duration": 0.1805,
      "velocity": 89,
      "chip": "ym2612"
    },
    {
      "channel": 1,
      "note": 31,
      "start": 1.0889,
      "duration": 0.1805,
      "velocity": 127,
      "chip": "ym2612"
    },
    {
      "channel": 0,
      "note": 57,
      "start": 1.2674,
      "duration": 0.1813,
      "velocity": 89,
      "chip": "ym2612"
    },
    {
      "channel": 1,
      "note": 74,
      "start": 1.2695,
      "duration": 0.0888,
      "velocity": 127,
      "chip": "ym2612"
    },
    {
      "channel": 1,
      "note": 74,
      "start": 1.3586,
      "duration": 0.0923,
      "velocity": 127,
      "chip": "ym2612"
    },
    {
      "channel": 0,
      "note": 50,
      "start": 1.4489,
      "duration": 0.1807,
      "velocity": 89,
      "chip": "ym2612"
    },
    {
      "channel": 1,
      "note": 21,
      "start": 1.451,
      "duration": 0.1807,
      "velocity": 127,
      "chip": "ym2612"
    },
    {
      "channel": 0,
      "note": 62,
      "start": 1.6298,
      "duration": 0.1806,
      "velocity": 89,
      "chip": "ym2612"
    },
    {
      "channel": 1,
      "note": 74,
      "start": 1.6319,
      "duration": 0.0883,
      "velocity": 127,
      "chip": "ym2612"
    },
    {
      "channel": 1,
      "note": 74,
      "start": 1.7204,
      "duration": 0.0921,
      "velocity": 119,
      "chip": "ym2612"
    },
    {
      "channel": 0,
      "note": 62,
      "start": 1.8105,
      "duration": 0.1811,
      "velocity": 89,
      "chip": "ym2612"
    },
    {
      "channel": 1,
      "note": 31,
      "start": 1.8126,
      "duration": 0.0902,
      "velocity": 127,
      "chip": "ym2612"
    },
    {
      "channel": 1,
      "note": 74,
      "start": 1.903,
      "duration": 0.0908,
      "velocity": 127,
      "chip": "ym2612"
    },
    {
      "channel": 0,
      "note": 50,
      "start": 1.9918,
      "duration": 0.0905,
      "velocity": 89,
      "chip": "ym2612"
    },
    {
      "channel": 1,
      "note": 21,
      "start": 1.9939,
      "duration": 0.0905,
      "velocity": 127,
      "chip": "ym2612"
    },
    {
      "channel": 0,
      "note": 62,
      "start": 2.0825,
      "duration": 0.1809,
      "velocity": 89,
      "chip": "ym2612"
    },
    {
      "channel": 1,
      "note": 74,
      "start": 2.0846,
      "duration": 0.0885,
      "velocity": 127,
      "chip": "ym2612"
    },
    {
      "channel": 1,
      "note": 74,
      "start": 2.1733,
      "duration": 0.1831,
      "velocity": 127,
      "chip": "ym2612"
    },
    {
      "channel": 0,
      "note": 50,
      "start": 2.2636,
      "duration": 0.0907,
      "velocity": 89,
      "chip": "ym2612"
    },
    {
      "channel": 0,
      "note": 62,
      "start": 2.3544,
      "duration": 0.1805,
      "velocity": 89,
      "chip": "ym2612"
    },
    {
      "channel": 1,
      "note": 21,
      "start": 2.3566,
      "duration": 0.1805,
      "velocity": 119,
      "chip": "ym2612"
    },
    {
      "channel": 0,
      "note": 60,
      "start": 2.5352,
      "duration": 0.181,
      "velocity": 89,
      "chip": "ym2612"
    },
    {
      "channel": 1,
      "note": 31,
      "start": 2.5373,
      "duration": 0.0899,
      "velocity": 127,
      "chip": "ym2612"
    },
    {
      "channel": 1,
      "note": 74,
      "start": 2.6274,
      "duration": 0.0894,
      "velocity": 127,
      "chip": "ym2612"
    },
    {
      "channel": 0,
      "note": 64,
      "start": 2.7164,
      "duration": 0.181,
      "velocity": 89,
      "chip": "ym2612"
    },
    {
      "channel": 1,
      "note": 74,
      "start": 2.7169,
      "duration": 0.0902,
      "velocity": 127,
      "chip": "ym2612"
    },
    {
      "channel": 1,
      "note": 74,
      "start": 2.8072,
      "duration": 0.0923,
      "velocity": 127,
      "chip": "ym2612"
    },
    {
      "channel": 0,
      "note": 50,
      "start": 2.8976,
      "duration": 0.1804,
      "velocity": 89,
      "chip": "ym2612"
    },
    {
      "channel": 1,
      "note": 21,
      "start": 2.8997,
      "duration": 0.1804,
      "velocity": 127,
      "chip": "ym2612"
    },
    {
      "channel": 0,
      "note": 62,
      "start": 3.0781,
      "duration": 0.1808,
      "velocity": 89,
      "chip": "ym2612"
    },
    {
      "channel": 1,
      "note": 74,
      "start": 3.0802,
      "duration": 0.0884,
      "velocity": 127,
      "chip": "ym2612"
    },
    {
      "channel": 1,
      "note": 74,
      "start": 3.1689,
      "duration": 0.0922,
      "velocity": 119,
      "chip": "ym2612"
    },
    {
      "channel": 0,
      "note": 62,
      "start": 3.2591,
      "duration": 0.1809,
      "velocity": 89,
      "chip": "ym2612"
    },
    {
      "channel": 1,
      "note": 31,
      "start": 3.2612,
      "duration": 0.0898,
      "velocity": 127,
      "chip": "ym2612"
    },
    {
      "channel": 1,
      "note": 74,
      "start": 3.3512,
      "duration": 0.0893,
      "velocity": 127,
      "chip": "ym2612"
    },
    {
      "channel": 0,
      "note": 50,
      "start": 3.4401,
      "duration": 0.0905,
      "velocity": 89,
      "chip": "ym2612"
    },
    {
      "channel": 1,
      "note": 74,
      "start": 3.4407,
      "duration": 0.1807,
      "velocity": 127,
      "chip": "ym2612"
    },
    {
      "channel": 0,
      "note": 62,
      "start": 3.5308,
      "duration": 0.1808,
      "velocity": 89,
      "chip": "ym2612"
    },
    {
      "channel": 1,
      "note": 74,
      "start": 3.6215,
      "duration": 0.0907,
      "velocity": 127,
      "chip": "ym2612"
    },
    {
      "channel": 0,
      "note": 50,
      "start": 3.7119,
      "duration": 0.0901,
      "velocity": 89,
      "chip": "ym2612"
    },
    {
      "channel": 1,
      "note": 74,
      "start": 3.7124,
      "duration": 0.0918,
      "velocity": 127,
      "chip": "ym2612"
    },
    {
      "channel": 0,
      "note": 62,
      "start": 3.8022,
      "duration": 0.1809,
      "velocity": 89,
      "chip": "ym2612"
    },
    {
      "channel": 1,
      "note": 21,
      "start": 3.8043,
      "duration": 0.0898,
      "velocity": 127,
      "chip": "ym2612"
    },
    {
      "channel": 1,
      "note": 74,
      "start": 3.8943,
      "duration": 0.0909,
      "velocity": 119,
      "chip": "ym2612"
    },
    {
      "channel": 0,
      "note": 60,
      "start": 3.9832,
      "duration": 0.1808,
      "velocity": 89,
      "chip": "ym2612"
    },
    {
      "channel": 1,
      "note": 31,
      "start": 3.9854,
      "duration": 0.1807,
      "velocity": 127,
      "chip": "ym2612"
    },
    {
      "channel": 0,
      "note": 57,
      "start": 4.1641,
      "duration": 0.1808,
      "velocity": 89,
      "chip": "ym2612"
    },
    {
      "channel": 1,
      "note": 74,
      "start": 4.1663,
      "duration": 0.0883,
      "velocity": 127,
      "chip": "ym2612"
    },
    {
      "channel": 1,
      "note": 74,
      "start": 4.2548,
      "duration": 0.0923,
      "velocity": 127,
      "chip": "ym2612"
    },
    {
      "channel": 0,
      "note": 50,
      "start": 4.3451,
      "duration": 0.1812,
      "velocity": 89,
      "chip": "ym2612"
    },
    {
      "channel": 1,
      "note": 21,
      "start": 4.3473,
      "duration": 0.1812,
      "velocity": 127,
      "chip": "ym2612"
    },
    {
      "channel": 2,
      "note": 79,
      "start": 4.3494,
      "duration": 0.0009,
      "velocity": 115,
      "chip": "ym2612"
    },
    {
      "channel": 2,
      "note": 78,
      "start": 4.3503,
      "duration": 0.0129,
      "velocity": 115,
      "chip": "ym2612"
    },
    {
      "channel": 2,
      "note": 77,
      "start": 4.3633,
      "duration": 0.0182,
      "velocity": 115,
      "chip": "ym2612"
    },
    {
      "channel": 2,
      "note": 76,
      "start": 4.3815,
      "duration": 0.018,
      "velocity": 115,
      "chip": "ym2612"
    },
    {
      "channel": 2,
      "note": 75,
      "start": 4.3994,
      "duration": 0.0179,
      "velocity": 115,
      "chip": "ym2612"
    },
    {
      "channel": 2,
      "note": 74,
      "start": 4.4173,
      "duration": 0.0187,
      "velocity": 115,
      "chip": "ym2612"
    },
    {
      "channel": 2,
      "note": 79,
      "start": 4.4361,
      "duration": 0.0006,
      "velocity": 115,
      "chip": "ym2612"
    },
    {
      "channel": 2,
      "note": 78,
      "start": 4.4367,
      "duration": 0.017,
      "velocity": 115,
      "chip": "ym2612"
    },
    {
      "channel": 2,
      "note": 77,
      "start": 4.4538,
      "duration": 0.0181,
      "velocity": 115,
      "chip": "ym2612"
    },
    {
      "channel": 2,
      "note": 76,
      "start": 4.4718,
      "duration": 0.0178,
      "velocity": 115,
      "chip": "ym2612"
    },
    {
      "channel": 2,
      "note": 75,
      "start": 4.4897,
      "duration": 0.0182,
      "velocity": 115,
      "chip": "ym2612"
    },
    {
      "channel": 2,
      "note": 74,
      "start": 4.5079,
      "duration": 0.0234,
      "velocity": 115,
      "chip": "ym2612"
    },
    {
      "channel": 0,
      "note": 62,
      "start": 4.5265,
      "duration": 0.1812,
      "velocity": 89,
      "chip": "ym2612"
    },
    {
      "channel": 1,
      "note": 74,
      "start": 4.5286,
      "duration": 0.089,
      "velocity": 127,
      "chip": "ym2612"
    },
    {
      "channel": 3,
      "note": 55,
      "start": 4.5308,
      "duration": 0.361,
      "velocity": 127,
      "chip": "ym2612"
    },
    {
      "channel": 2,
      "note": 73,
      "start": 4.5314,
      "duration": 0.0133,
      "velocity": 115,
      "chip": "ym2612"
    },
    {
      "channel": 2,
      "note": 72,
      "start": 4.5446,
      "duration": 0.0181,
      "velocity": 115,
      "chip": "ym2612"
    },
    {
      "channel": 2,
      "note": 71,
      "start": 4.5628,
      "duration": 0.0182,
      "velocity": 115,
      "chip": "ym2612"
    },
    {
      "channel": 2,
      "note": 69,
      "start": 4.5809,
      "duration": 0.0181,
      "velocity": 115,
      "chip": "ym2612"
    },
    {
      "channel": 2,
      "note": 68,
      "start": 4.599,
      "duration": 0.0191,
      "velocity": 115,
      "chip": "ym2612"
    },
    {
      "channel": 1,
      "note": 74,
      "start": 4.6178,
      "duration": 0.092,
      "velocity": 119,
      "chip": "ym2612"
    },
    {
      "channel": 2,
      "note": 79,
      "start": 4.6183,
      "duration": 0.0006,
      "velocity": 115,
      "chip": "ym2612"
    },
    {
      "channel": 2,
      "note": 78,
      "start": 4.6189,
      "duration": 0.0164,
      "velocity": 115,
      "chip": "ym2612"
    },
    {
      "channel": 2,
      "note": 77,
      "start": 4.6354,
      "duration": 0.0179,
      "velocity": 115,
      "chip": "ym2612"
    },
    {
      "channel": 2,
      "note": 76,
      "start": 4.6533,
      "duration": 0.0179,
      "velocity": 115,
      "chip": "ym2612"
    },
    {
      "channel": 2,
      "note": 75,
      "start": 4.6712,
      "duration": 0.0181,
      "velocity": 115,
      "chip": "ym2612"
    },
    {
      "channel": 2,
      "note": 74,
      "start": 4.6893,
      "duration": 0.0211,
      "velocity": 115,
      "chip": "ym2612"
    },
    {
      "channel": 0,
      "note": 62,
      "start": 4.7078,
      "duration": 0.1812,
      "velocity": 89,
      "chip": "ym2612"
    },
    {
      "channel": 1,
      "note": 31,
      "start": 4.71,
      "duration": 0.0899,
      "velocity": 127,
      "chip": "ym2612"
    },
    {
      "channel": 2,
      "note": 76,
      "start": 4.7106,
      "duration": 0.0006,
      "velocity": 115,
      "chip": "ym2612"
    },
    {
      "channel": 2,
      "note": 75,
      "start": 4.7112,
      "duration": 0.0147,
      "velocity": 115,
      "chip": "ym2612"
    },
    {
      "channel": 2,
      "note": 74,
      "start": 4.7259,
      "duration": 0.0182,
      "velocity": 115,
      "chip": "ym2612"
    },
    {
      "channel": 2,
      "note": 73,
      "start": 4.744,
      "duration": 0.0181,
      "velocity": 115,
      "chip": "ym2612"
    },
    {
      "channel": 2,
      "note": 72,
      "start": 4.7622,
      "duration": 0.0179,
      "velocity": 115,
      "chip": "ym2612"
    },
    {
      "channel": 2,
      "note": 70,
      "start": 4.78,
      "duration": 0.0204,
      "velocity": 115,
      "chip": "ym2612"
    },
    {
      "channel": 1,
      "note": 74,
      "start": 4.8,
      "duration": 0.0912,
      "velocity": 127,
      "chip": "ym2612"
    },
    {
      "channel": 2,
      "note": 76,
      "start": 4.8006,
      "duration": 0.0006,
      "velocity": 115,
      "chip": "ym2612"
    },
    {
      "channel": 2,
      "note": 75,
      "start": 4.8012,
      "duration": 0.015,
      "velocity": 115,
      "chip": "ym2612"
    },
    {
      "channel": 2,
      "note": 74,
      "start": 4.8162,
      "duration": 0.018,
      "velocity": 115,
      "chip": "ym2612"
    },
    {
      "channel": 2,
      "note": 73,
      "start": 4.8342,
      "duration": 0.0183,
      "velocity": 115,
      "chip": "ym2612"
    },
    {
      "channel": 2,
      "note": 72,
      "start": 4.8525,
      "duration": 0.0182,
      "velocity": 115,
      "chip": "ym2612"
    },
    {
      "channel": 2,
      "note": 70,
      "start": 4.8706,
      "duration": 0.0219,
      "velocity": 115,
      "chip": "ym2612"
    },
    {
      "channel": 0,
      "note": 50,
      "start": 4.8893,
      "duration": 0.0906,
      "velocity": 89,
      "chip": "ym2612"
    },
    {
      "channel": 1,
      "note": 21,
      "start": 4.8914,
      "duration": 0.1805,
      "velocity": 127,
      "chip": "ym2612"
    },
    {
      "channel": 3,
      "note": 55,
      "start": 4.892,
      "duration": 0.3627,
      "velocity": 127,
      "chip": "ym2612"
    },
    {
      "channel": 2,
      "note": 69,
      "start": 4.8925,
      "duration": 0.0149,
      "velocity": 115,
      "chip": "ym2612"
    },
    {
      "channel": 2,
      "note": 68,
      "start": 4.9074,
      "duration": 0.0181,
      "velocity": 115,
      "chip": "ym2612"
    },
    {
      "channel": 2,
      "note": 67,
      "start": 4.9255,
      "duration": 0.0182,
      "velocity": 115,
      "chip": "ym2612"
    },
    {
      "channel": 2,
      "note": 66,
      "start": 4.9437,
      "duration": 0.018,
      "velocity": 115,
      "chip": "ym2612"
    },
    {
      "channel": 2,
      "note": 65,
      "start": 4.9617,
      "duration": 0.0189,
      "velocity": 115,
      "chip": "ym2612"
    },
    {
      "channel": 0,
      "note": 62,
      "start": 4.9801,
      "duration": 0.181,
      "velocity": 89,
      "chip": "ym2612"
    },
    {
      "channel": 2,
      "note": 76,
      "start": 4.9807,
      "duration": 0.0006,
      "velocity": 115,
      "chip": "ym2612"
    },
    {
      "channel": 2,
      "note": 75,
      "start": 4.9813,
      "duration": 0.0166,
      "velocity": 115,
      "chip": "ym2612"
    },
    {
      "channel": 2,
      "note": 74,
      "start": 4.9979,
      "duration": 0.018,
      "velocity": 115,
      "chip": "ym2612"
    },
    {
      "channel": 2,
      "note": 73,
      "start": 5.0159,
      "duration": 0.0182,
      "velocity": 115,
      "chip": "ym2612"
    },
    {
      "channel": 2,
      "note": 72,
      "start": 5.0341,
      "duration": 0.018,
      "velocity": 115,
      "chip": "ym2612"
    },
    {
      "channel": 2,
      "note": 70,
      "start": 5.0521,
      "duration": 0.0205,
      "velocity": 115,
      "chip": "ym2612"
    },
    {
      "channel": 1,
      "note": 74,
      "start": 5.0721,
      "duration": 0.0896,
      "velocity": 127,
      "chip": "ym2612"
    },
    {
      "channel": 2,
      "note": 72,
      "start": 5.0727,
      "duration": 0.0006,
      "velocity": 115,
      "chip": "ym2612"
    },
    {
      "channel": 2,
      "note": 71,
      "start": 5.0733,
      "duration": 0.015,
      "velocity": 115,
      "chip": "ym2612"
    },
    {
      "channel": 2,
      "note": 69,
      "start": 5.0882,
      "duration": 0.018,
      "velocity": 115,
      "chip": "ym2612"
    },
    {
      "channel": 2,
      "note": 68,
      "start": 5.1063,
      "duration": 0.0182,
      "velocity": 115,
      "chip": "ym2612"
    },
    {
      "channel": 2,
      "note": 67,
      "start": 5.1245,
      "duration": 0.0182,
      "velocity": 115,
      "chip": "ym2612"
    },
    {
      "channel": 2,
      "note": 66,
      "start": 5.1426,
      "duration": 0.0196,
      "velocity": 115,
      "chip": "ym2612"
    },
    {
      "channel": 0,
      "note": 50,
      "start": 5.1613,
      "duration": 0.0907,
      "velocity": 89,
      "chip": "ym2612"
    },
    {
      "channel": 1,
      "note": 74,
      "start": 5.1618,
      "duration": 0.0924,
      "velocity": 127,
      "chip": "ym2612"
    },
    {
      "channel": 2,
      "note": 72,
      "start": 5.1624,
      "duration": 0.0006,
      "velocity": 115,
      "chip": "ym2612"
    },
    {
      "channel": 2,
      "note": 71,
      "start": 5.163,
      "duration": 0.0162,
      "velocity": 115,
      "chip": "ym2612"
    },
    {
      "channel": 2,
      "note": 69,
      "start": 5.1792,
      "duration": 0.0182,
      "velocity": 115,
      "chip": "ym2612"
    },
    {
      "channel": 2,
      "note": 68,
      "start": 5.1974,
      "duration": 0.0181,
      "velocity": 115,
      "chip": "ym2612"
    },
    {
      "channel": 2,
      "note": 67,
      "start": 5.2155,
      "duration": 0.0182,
      "velocity": 115,
      "chip": "ym2612"
    },
    {
      "channel": 2,
      "note": 66,
      "start": 5.2336,
      "duration": 0.0218,
      "velocity": 115,
      "chip": "ym2612"
    },
    {
      "channel": 0,
      "note": 62,
      "start": 5.2522,
      "duration": 0.1815,
      "velocity": 89,
      "chip": "ym2612"
    },
    {
      "channel": 1,
      "note": 21,
      "start": 5.2543,
      "duration": 0.0902,
      "velocity": 127,
      "chip": "ym2612"
    },
    {
      "channel": 3,
      "note": 55,
      "start": 5.255,
      "duration": 0.3608,
      "velocity": 127,
      "chip": "ym2612"
    },
    {
      "channel": 2,
      "note": 65,
      "start": 5.2555,
      "duration": 0.0146,
      "velocity": 115,
      "chip": "ym2612"
    },
    {
      "channel": 2,
      "note": 64,
      "start": 5.2701,
      "duration": 0.0182,
      "velocity": 115,
      "chip": "ym2612"
    },
    {
      "channel": 2,
      "note": 63,
      "start": 5.2883,
      "duration": 0.0181,
      "velocity": 115,
      "chip": "ym2612"
    },
    {
      "channel": 2,
      "note": 62,
      "start": 5.3064,
      "duration": 0.0181,
      "velocity": 115,
      "chip": "ym2612"
    },
    {
      "channel": 2,
      "note": 61,
      "start": 5.3245,
      "duration": 0.0207,
      "velocity": 115,
      "chip": "ym2612"
    },
    {
      "channel": 1,
      "note": 74,
      "start": 5.3448,
      "duration": 0.0911,
      "velocity": 119,
      "chip": "ym2612"
    },
    {
      "channel": 2,
      "note": 72,
      "start": 5.3453,
      "duration": 0.0006,
      "velocity": 115,
      "chip": "ym2612"
    },
    {
      "channel": 2,
      "note": 71,
      "start": 5.3459,
      "duration": 0.0149,
      "velocity": 115,
      "chip": "ym2612"
    },
    {
      "channel": 2,
      "note": 69,
      "start": 5.3608,
      "duration": 0.0181,
      "velocity": 115,
      "chip": "ym2612"
    },
    {
      "channel": 2,
      "note": 68,
      "start": 5.3789,
      "duration": 0.0182,
      "velocity": 115,
      "chip": "ym2612"
    },
    {
      "channel": 2,
      "note": 67,
      "start": 5.3971,
      "duration": 0.0182,
      "velocity": 115,
      "chip": "ym2612"
    },
    {
      "channel": 2,
      "note": 66,
      "start": 5.4152,
      "duration": 0.0212,
      "velocity": 115,
      "chip": "ym2612"
    },
    {
      "channel": 0,
      "note": 60,
      "start": 5.4339,
      "duration": 0.1807,
      "velocity": 89,
      "chip": "ym2612"
    },
    {
      "channel": 1,
      "note": 31,
      "start": 5.4361,
      "duration": 0.0901,
      "velocity": 127,
      "chip": "ym2612"
    },
    {
      "channel": 2,
      "note": 69,
      "start": 5.4366,
      "duration": 0.0006,
      "velocity": 115,
      "chip": "ym2612"
    },
    {
      "channel": 2,
      "note": 68,
      "start": 5.4372,
      "duration": 0.0146,
      "velocity": 115,
      "chip": "ym2612"
    },
    {
      "channel": 2,
      "note": 67,
      "start": 5.4518,
      "duration": 0.0182,
      "velocity": 115,
      "chip": "ym2612"
    },
    {
      "channel": 2,
      "note": 66,
      "start": 5.47,
      "duration": 0.0181,
      "velocity": 115,
      "chip": "ym2612"
    },
    {
      "channel": 2,
      "note": 65,
      "start": 5.4881,
      "duration": 0.018,
      "velocity": 115,
      "chip": "ym2612"
    },
    {
      "channel": 2,
      "note": 64,
      "start": 5.5061,
      "duration": 0.0206,
      "velocity": 115,
      "chip": "ym2612"
    },
    {
      "channel": 1,
      "note": 74,
      "start": 5.5263,
      "duration": 0.0888,
      "velocity": 127,
      "chip": "ym2612"
    },
    {
      "channel": 2,
      "note": 69,
      "start": 5.5269,
      "duration": 0.0006,
      "velocity": 115,
      "chip": "ym2612"
    },
    {
      "channel": 2,
      "note": 68,
      "start": 5.5275,
      "duration": 0.0151,
      "velocity": 115,
      "chip": "ym2612"
    },
    {
      "channel": 2,
      "note": 67,
      "start": 5.5425,
      "duration": 0.0178,
      "velocity": 115,
      "chip": "ym2612"
    },
    {
      "channel": 2,
      "note": 66,
      "start": 5.5603,
      "duration": 0.018,
      "velocity": 115,
      "chip": "ym2612"
    },
    {
      "channel": 2,
      "note": 65,
      "start": 5.5783,
      "duration": 0.0179,
      "velocity": 115,
      "chip": "ym2612"
    },
    {
      "channel": 2,
      "note": 64,
      "start": 5.5962,
      "duration": 0.0206,
      "velocity": 115,
      "chip": "ym2612"
    },
    {
      "channel": 0,
      "note": 64,
      "start": 5.6147,
      "duration": 0.1817,
      "velocity": 89,
      "chip": "ym2612"
    },
    {
      "channel": 1,
      "note": 74,
      "start": 5.6153,
      "duration": 0.0904,
      "velocity": 127,
      "chip": "ym2612"
    },
    {
      "channel": 3,
      "note": 55,
      "start": 5.6159,
      "duration": 0.1869,
      "velocity": 102,
      "chip": "ym2612"
    },
    {
      "channel": 2,
      "note": 63,
      "start": 5.6168,
      "duration": 0.0156,
      "velocity": 115,
      "chip": "ym2612"
    },
    {
      "channel": 2,
      "note": 62,
      "start": 5.6324,
      "duration": 0.0183,
      "velocity": 115,
      "chip": "ym2612"
    },
    {
      "channel": 2,
      "note": 61,
      "start": 5.6507,
      "duration": 0.0182,
      "velocity": 115,
      "chip": "ym2612"
    },
    {
      "channel": 2,
      "note": 60,
      "start": 5.6688,
      "duration": 0.0183,
      "velocity": 115,
      "chip": "ym2612"
    },
    {
      "channel": 2,
      "note": 58,
      "start": 5.6872,
      "duration": 0.0191,
      "velocity": 115,
      "chip": "ym2612"
    },
    {
      "channel": 1,
      "note": 74,
      "start": 5.7059,
      "duration": 0.0927,
      "velocity": 127,
      "chip": "ym2612"
    },
    {
      "channel": 2,
      "note": 69,
      "start": 5.7065,
      "duration": 0.0006,
      "velocity": 115,
      "chip": "ym2612"
    },
    {
      "channel": 2,
      "note": 68,
      "start": 5.707,
      "duration": 0.0165,
      "velocity": 115,
      "chip": "ym2612"
    },
    {
      "channel": 2,
      "note": 67,
      "start": 5.7235,
      "duration": 0.018,
      "velocity": 115,
      "chip": "ym2612"
    },
    {
      "channel": 2,
      "note": 66,
      "start": 5.7415,
      "duration": 0.0182,
      "velocity": 115,
      "chip": "ym2612"
    },
    {
      "channel": 2,
      "note": 65,
      "start": 5.7597,
      "duration": 0.0181,
      "velocity": 115,
      "chip": "ym2612"
    },
    {
      "channel": 2,
      "note": 64,
      "start": 5.7778,
      "duration": 0.0229,
      "velocity": 102,
      "chip": "ym2612"
    },
    {
      "channel": 0,
      "note": 50,
      "start": 5.7966,
      "duration": 0.1811,
      "velocity": 89,
      "chip": "ym2612"
    },
    {
      "channel": 1,
      "note": 21,
      "start": 5.7987,
      "duration": 0.1811,
      "velocity": 127,
      "chip": "ym2612"
    },
    {
      "channel": 2,
      "note": 66,
      "start": 5.8008,
      "duration": 1.4464,
      "velocity": 102,
      "chip": "ym2612"
    },
    {
      "channel": 3,
      "note": 57,
      "start": 5.803,
      "duration": 1.4447,
      "velocity": 102,
      "chip": "ym2612"
    },
    {
      "channel": 0,
      "note": 62,
      "start": 5.9779,
      "duration": 0.1807,
      "velocity": 89,
      "chip": "ym2612"
    },
    {
      "channel": 1,
      "note": 74,
      "start": 5.98,
      "duration": 0.0883,
      "velocity": 127,
      "chip": "ym2612"
    },
    {
      "channel": 1,
      "note": 74,
      "start": 6.0685,
      "duration": 0.0923,
      "velocity": 119,
      "chip": "ym2612"
    },
    {
      "channel": 0,
      "note": 62,
      "start": 6.1588,
      "duration": 0.1805,
      "velocity": 89,
      "chip": "ym2612"
    },
    {
      "channel": 1,
      "note": 31,
      "start": 6.1609,
      "duration": 0.0896,
      "velocity": 127,
      "chip": "ym2612"
    },
    {
      "channel": 1,
      "note": 74,
      "start": 6.2506,
      "duration": 0.0892,
      "velocity": 127,
      "chip": "ym2612"
    },
    {
      "channel": 0,
      "note": 50,
      "start": 6.3394,
      "duration": 0.0904,
      "velocity": 89,
      "chip": "ym2612"
    },
    {
      "channel": 1,
      "note": 74,
      "start": 6.34,
      "duration": 0.1803,
      "velocity": 127,
      "chip": "ym2612"
    },
    {
      "channel": 0,
      "note": 62,
      "start": 6.43,
      "duration": 0.1806,
      "velocity": 89,
      "chip": "ym2612"
    },
    {
      "channel": 1,
      "note": 74,
      "start": 6.5205,
      "duration": 0.0906,
      "velocity": 127,
      "chip": "ym2612"
    },
    {
      "channel": 0,
      "note": 50,
      "start": 6.6107,
      "duration": 0.0904,
      "velocity": 89,
      "chip": "ym2612"
    },
    {
      "channel": 1,
      "note": 74,
      "start": 6.6112,
      "duration": 0.092,
      "velocity": 127,
      "chip": "ym2612"
    },
    {
      "channel": 0,
      "note": 62,
      "start": 6.7013,
      "duration": 0.181,
      "velocity": 89,
      "chip": "ym2612"
    },
    {
      "channel": 1,
      "note": 21,
      "start": 6.7034,
      "duration": 0.0901,
      "velocity": 127,
      "chip": "ym2612"
    },
    {
      "channel": 1,
      "note": 74,
      "start": 6.7937,
      "duration": 0.0908,
      "velocity": 119,
      "chip": "ym2612"
    },
    {
      "channel": 0,
      "note": 60,
      "start": 6.8825,
      "duration": 0.1806,
      "velocity": 89,
      "chip": "ym2612"
    },
    {
      "channel": 1,
      "note": 31,
      "start": 6.8846,
      "duration": 0.1807,
      "velocity": 127,
      "chip": "ym2612"
    },
    {
      "channel": 0,
      "note": 57,
      "start": 7.0633,
      "duration": 0.1812,
      "velocity": 89,
      "chip": "ym2612"
    },
    {
      "channel": 1,
      "note": 74,
      "start": 7.0654,
      "duration": 0.0883,
      "velocity": 127,
      "chip": "ym2612"
    },
    {
      "channel": 1,
      "note": 74,
      "start": 7.1539,
      "duration": 0.0927,
      "velocity": 127,
      "chip": "ym2612"
    },
    {
      "channel": 0,
      "note": 50,
      "start": 7.2447,
      "duration": 0.1806,
      "velocity": 89,
      "chip": "ym2612"
    },
    {
      "channel": 1,
      "note": 21,
      "start": 7.2469,
      "duration": 0.1805,
      "velocity": 127,
      "chip": "ym2612"
    },
    {
      "channel": 2,
      "note": 60,
      "start": 7.2474,
      "duration": 0.9062,
      "velocity": 102,
      "chip": "ym2612"
    },
    {
      "channel": 3,
      "note": 67,
      "start": 7.2479,
      "duration": 0.9061,
      "velocity": 102,
      "chip": "ym2612"
    },
    {
      "channel": 0,
      "note": 62,
      "start": 7.4255,
      "duration": 0.181,
      "velocity": 89,
      "chip": "ym2612"
    },
    {
      "channel": 1,
      "note": 74,
      "start": 7.4276,
      "duration": 0.0885,
      "velocity": 127,
      "chip": "ym2612"
    },
    {
      "channel": 1,
      "note": 74,
      "start": 7.5164,
      "duration": 0.0923,
      "velocity": 119,
      "chip": "ym2612"
    },
    {
      "channel": 0,
      "note": 62,
      "start": 7.6067,
      "duration": 0.1815,
      "velocity": 89,
      "chip": "ym2612"
    },
    {
      "channel": 1,
      "note": 31,
      "start": 7.6088,
      "duration": 0.0902,
      "velocity": 127,
      "chip": "ym2612"
    },
    {
      "channel": 1,
      "note": 74,
      "start": 7.6992,
      "duration": 0.0911,
      "velocity": 127,
      "chip": "ym2612"
    },
    {
      "channel": 0,
      "note": 50,
      "start": 7.7883,
      "duration": 0.0904,
      "velocity": 89,
      "chip": "ym2612"
    },
    {
      "channel": 1,
      "note": 21,
      "start": 7.7905,
      "duration": 0.0904,
      "velocity": 127,
      "chip": "ym2612"
    },
    {
      "channel": 0,
      "note": 62,
      "start": 7.8789,
      "duration": 0.1811,
      "velocity": 89,
      "chip": "ym2612"
    },
    {
      "channel": 1,
      "note": 74,
      "start": 7.881,
      "duration": 0.0885,
      "velocity": 127,
      "chip": "ym2612"
    },
    {
      "channel": 1,
      "note": 74,
      "start": 7.9697,
      "duration": 0.1833,
      "velocity": 127,
      "chip": "ym2612"
    },
    {
      "channel": 0,
      "note": 50,
      "start": 8.0601,
      "duration": 0.0907,
      "velocity": 89,
      "chip": "ym2612"
    },
    {
      "channel": 0,
      "note": 62,
      "start": 8.151,
      "duration": 0.1808,
      "velocity": 89,
      "chip": "ym2612"
    },
    {
      "channel": 1,
      "note": 21,
      "start": 8.1532,
      "duration": 0.1807,
      "velocity": 119,
      "chip": "ym2612"
    },
    {
      "channel": 2,
      "note": 64,
      "start": 8.1537,
      "duration": 0.1808,
      "velocity": 102,
      "chip": "ym2612"
    },
    {
      "channel": 3,
      "note": 60,
      "start": 8.1542,
      "duration": 0.1808,
      "velocity": 102,
      "chip": "ym2612"
    },
    {
      "channel": 0,
      "note": 60,
      "start": 8.3319,
      "duration": 0.181,
      "velocity": 89,
      "chip": "ym2612"
    },
    {
      "channel": 1,
      "note": 31,
      "start": 8.3341,
      "duration": 0.09,
      "velocity": 127,
      "chip": "ym2612"
    },
    {
      "channel": 2,
      "note": 67,
      "start": 8.3347,
      "duration": 0.1793,
      "velocity": 102,
      "chip": "ym2612"
    },
    {
      "channel": 3,
      "note": 64,
      "start": 8.3352,
      "duration": 0.1793,
      "velocity": 102,
      "chip": "ym2612"
    },
    {
      "channel": 1,
      "note": 74,
      "start": 8.4242,
      "duration": 0.0893,
      "velocity": 127,
      "chip": "ym2612"
    },
    {
      "channel": 0,
      "note": 64,
      "start": 8.5131,
      "duration": 0.1805,
      "velocity": 89,
      "chip": "ym2612"
    },
    {
      "channel": 1,
      "note": 74,
      "start": 8.5136,
      "duration": 0.0897,
      "velocity": 127,
      "chip": "ym2612"
    },
    {
      "channel": 2,
      "note": 71,
      "start": 8.5142,
      "duration": 0.3631,
      "velocity": 102,
      "chip": "ym2612"
    },
    {
      "channel": 3,
      "note": 67,
      "start": 8.5147,
      "duration": 0.3631,
      "velocity": 102,
      "chip": "ym2612"
    },
    {
      "channel": 1,
      "note": 74,
      "start": 8.6035,
      "duration": 0.0923,
      "velocity": 127,
      "chip": "ym2612"
    },
    {
      "channel": 0,
      "note": 50,
      "start": 8.6938,
      "duration": 0.1807,
      "velocity": 89,
      "chip": "ym2612"
    },
    {
      "channel": 1,
      "note": 21,
      "start": 8.6959,
      "duration": 0.1807,
      "velocity": 127,
      "chip": "ym2612"
    },
    {
      "channel": 0,
      "note": 62,
      "start": 8.8747,
      "duration": 0.1814,
      "velocity": 89,
      "chip": "ym2612"
    },
    {
      "channel": 1,
      "note": 74,
      "start": 8.8768,
      "duration": 0.0889,
      "velocity": 127,
      "chip": "ym2612"
    },
    {
      "channel": 2,
      "note": 72,
      "start": 8.8774,
      "duration": 0.1815,
      "velocity": 102,
      "chip": "ym2612"
    },
    {
      "channel": 3,
      "note": 69,
      "start": 8.878,
      "duration": 0.1815,
      "velocity": 102,
      "chip": "ym2612"
    },
    {
      "channel": 1,
      "note": 74,
      "start": 8.966,
      "duration": 0.0924,
      "velocity": 119,
      "chip": "ym2612"
    },
    {
      "channel": 0,
      "note": 62,
      "start": 9.0564,
      "duration": 0.1812,
      "velocity": 89,
      "chip": "ym2612"
    },
    {
      "channel": 1,
      "note": 31,
      "start": 9.0585,
      "duration": 0.0903,
      "velocity": 127,
      "chip": "ym2612"
    },
    {
      "channel": 2,
      "note": 71,
      "start": 9.059,
      "duration": 0.1796,
      "velocity": 102,
      "chip": "ym2612"
    },
    {
      "channel": 3,
      "note": 67,
      "start": 9.0596,
      "duration": 0.1796,
      "velocity": 102,
      "chip": "ym2612"
    },
    {
      "channel": 1,
      "note": 74,
      "start": 9.1489,
      "duration": 0.0893,
      "velocity": 127,
      "chip": "ym2612"
    },
    {
      "channel": 0,
      "note": 50,
      "start": 9.2377,
      "duration": 0.0902,
      "velocity": 89,
      "chip": "ym2612"
    },
    {
      "channel": 1,
      "note": 74,
      "start": 9.2383,
      "duration": 0.1804,
      "velocity": 127,
      "chip": "ym2612"
    },
    {
      "channel": 2,
      "note": 67,
      "start": 9.2388,
      "duration": 0.1804,
      "velocity": 102,
      "chip": "ym2612"
    },
    {
      "channel": 3,
      "note": 64,
      "start": 9.2394,
      "duration": 0.1804,
      "velocity": 102,
      "chip": "ym2612"
    },
    {
      "channel": 0,
      "note": 62,
      "start": 9.3282,
      "duration": 0.181,
      "velocity": 89,
      "chip": "ym2612"
    },
    {
      "channel": 1,
      "note": 74,
      "start": 9.4188,
      "duration": 0.0909,
      "velocity": 127,
      "chip": "ym2612"
    },
    {
      "channel": 2,
      "note": 64,
      "start": 9.4194,
      "duration": 1.633,
      "velocity": 102,
      "chip": "ym2612"
    },
    {
      "channel": 3,
      "note": 60,
      "start": 9.42,
      "duration": 1.633,
      "velocity": 102,
      "chip": "ym2612"
    },
    {
      "channel": 0,
      "note": 50,
      "start": 9.5094,
      "duration": 0.0904,
      "velocity": 89,
      "chip": "ym2612"
    },
    {
      "channel": 1,
      "note": 74,
      "start": 9.5099,
      "duration": 0.092,
      "velocity": 127,
      "chip": "ym2612"
    },
    {
      "channel": 0,
      "note": 62,
      "start": 9.6,
      "duration": 0.1815,
      "velocity": 89,
      "chip": "ym2612"
    },
    {
      "channel": 1,
      "note": 21,
      "start": 9.6021,
      "duration": 0.0903,
      "velocity": 127,
      "chip": "ym2612"
    },
    {
      "channel": 1,
      "note": 74,
      "start": 9.6926,
      "duration": 0.091,
      "velocity": 119,
      "chip": "ym2612"
    },
    {
      "channel": 0,
      "note": 60,
      "start": 9.7817,
      "duration": 0.1808,
      "velocity": 89,
      "chip": "ym2612"
    },
    {
      "channel": 1,
      "note": 31,
      "start": 9.7838,
      "duration": 0.1809,
      "velocity": 127,
      "chip": "ym2612"
    },
    {
      "channel": 0,
      "note": 57,
      "start": 9.9627,
      "duration": 0.1812,
      "velocity": 89,
      "chip": "ym2612"
    },
    {
      "channel": 1,
      "note": 74,
      "start": 9.9648,
      "duration": 0.0884,
      "velocity": 127,
      "chip": "ym2612"
    },
    {
      "channel": 1,
      "note": 74,
      "start": 10.0534,
      "duration": 0.0926,
      "velocity": 127,
      "chip": "ym2612"
    },
    {
      "channel": 0,
      "note": 50,
      "start": 10.1442,
      "duration": 0.1807,
      "velocity": 89,
      "chip": "ym2612"
    },
    {
      "channel": 1,
      "note": 21,
      "start": 10.1463,
      "duration": 0.1808,
      "velocity": 127,
      "chip": "ym2612"
    },
    {
      "channel": 0,
      "note": 62,
      "start": 10.3251,
      "duration": 0.1808,
      "velocity": 89,
      "chip": "ym2612"
    },
    {
      "channel": 1,
      "note": 74,
      "start": 10.3272,
      "duration": 0.0884,
      "velocity": 127,
      "chip": "ym2612"
    },
    {
      "channel": 1,
      "note": 74,
      "start": 10.4158,
      "duration": 0.0922,
      "velocity": 119,
      "chip": "ym2612"
    },
    {
      "channel": 0,
      "note": 62,
      "start": 10.5061,
      "duration": 0.1812,
      "velocity": 89,
      "chip": "ym2612"
    },
    {
      "channel": 1,
      "note": 31,
      "start": 10.5082,
      "duration": 0.0901,
      "velocity": 127,
      "chip": "ym2612"
    },
    {
      "channel": 1,
      "note": 74,
      "start": 10.5985,
      "duration": 0.0909,
      "velocity": 127,
      "chip": "ym2612"
    },
    {
      "channel": 0,
      "note": 50,
      "start": 10.6875,
      "duration": 0.0905,
      "velocity": 89,
      "chip": "ym2612"
    },
    {
      "channel": 1,
      "note": 21,
      "start": 10.6896,
      "duration": 0.1806,
      "velocity": 127,
      "chip": "ym2612"
    },
    {
      "channel": 0,
      "note": 62,
      "start": 10.7781,
      "duration": 0.1811,
      "velocity": 89,
      "chip": "ym2612"
    },
    {
      "channel": 1,
      "note": 74,
      "start": 10.8703,
      "duration": 0.0894,
      "velocity": 127,
      "chip": "ym2612"
    },
    {
      "channel": 0,
      "note": 50,
      "start": 10.9594,
      "duration": 0.0903,
      "velocity": 89,
      "chip": "ym2612"
    },
    {
      "channel": 1,
      "note": 74,
      "start": 10.9599,
      "duration": 0.092,
      "velocity": 127,
      "chip": "ym2612"
    },
    {
      "channel": 0,
      "note": 62,
      "start": 11.0499,
      "duration": 0.1812,
      "velocity": 89,
      "chip": "ym2612"
    },
    {
      "channel": 1,
      "note": 21,
      "start": 11.052,
      "duration": 0.0902,
      "velocity": 127,
      "chip": "ym2612"
    },
    {
      "channel": 2,
      "note": 62,
      "start": 11.0525,
      "duration": 0.1812,
      "velocity": 102,
      "chip": "ym2612"
    },
    {
      "channel": 3,
      "note": 57,
      "start": 11.0531,
      "duration": 0.1812,
      "velocity": 102,
      "chip": "ym2612"
    },
    {
      "channel": 1,
      "note": 74,
      "start": 11.1423,
      "duration": 0.091,
      "velocity": 119,
      "chip": "ym2612"
    },
    {
      "channel": 0,
      "note": 60,
      "start": 11.2313,
      "duration": 0.1811,
      "velocity": 89,
      "chip": "ym2612"
    },
    {
      "channel": 1,
      "note": 31,
      "start": 11.2334,
      "duration": 0.0903,
      "velocity": 127,
      "chip": "ym2612"
    },
    {
      "channel": 2,
      "note": 60,
      "start": 11.234,
      "duration": 0.1796,
      "velocity": 102,
      "chip": "ym2612"
    },
    {
      "channel": 3,
      "note": 55,
      "start": 11.2345,
      "duration": 0.1796,
      "velocity": 102,
      "chip": "ym2612"
    },
    {
      "channel": 1,
      "note": 74,
      "start": 11.3238,
      "duration": 0.0892,
      "velocity": 127,
      "chip": "ym2612"
    },
    {
      "channel": 0,
      "note": 64,
      "start": 11.4126,
      "duration": 0.181,
      "velocity": 89,
      "chip": "ym2612"
    },
    {
      "channel": 1,
      "note": 74,
      "start": 11.4132,
      "duration": 0.0901,
      "velocity": 127,
      "chip": "ym2612"
    },
    {
      "channel": 2,
      "note": 62,
      "start": 11.4137,
      "duration": 1.6328,
      "velocity": 97,
      "chip": "ym2612"
    },
    {
      "channel": 3,
      "note": 57,
      "start": 11.4143,
      "duration": 5.9844,
      "velocity": 102,
      "chip": "ym2612"
    },
    {
      "channel": 1,
      "note": 74,
      "start": 11.5035,
      "duration": 0.0923,
      "velocity": 127,
      "chip": "ym2612"
    },
    {
      "channel": 0,
      "note": 50,
      "start": 11.5938,
      "duration": 0.1807,
      "velocity": 89,
      "chip": "ym2612"
    },
    {
      "channel": 1,
      "note": 21,
      "start": 11.5959,
      "duration": 0.1807,
      "velocity": 127,
      "chip": "ym2612"
    },
    {
      "channel": 0,
      "note": 62,
      "start": 11.7747,
      "duration": 0.1809,
      "velocity": 89,
      "chip": "ym2612"
    },
    {
      "channel": 1,
      "note": 74,
      "start": 11.7768,
      "duration": 0.0884,
      "velocity": 127,
      "chip": "ym2612"
    },
    {
      "channel": 1,
      "note": 74,
      "start": 11.8654,
      "duration": 0.0924,
      "velocity": 119,
      "chip": "ym2612"
    },
    {
      "channel": 0,
      "note": 62,
      "start": 11.9558,
      "duration": 0.181,
      "velocity": 89,
      "chip": "ym2612"
    },
    {
      "channel": 1,
      "note": 31,
      "start": 11.9579,
      "duration": 0.09,
      "velocity": 127,
      "chip": "ym2612"
    },
    {
      "channel": 1,
      "note": 74,
      "start": 12.048,
      "duration": 0.0893,
      "velocity": 127,
      "chip": "ym2612"
    },
    {
      "channel": 0,
      "note": 50,
      "start": 12.137,
      "duration": 0.0905,
      "velocity": 89,
      "chip": "ym2612"
    },
    {
      "channel": 1,
      "note": 74,
      "start": 12.1376,
      "duration": 0.1807,
      "velocity": 127,
      "chip": "ym2612"
    },
    {
      "channel": 0,
      "note": 62,
      "start": 12.2276,
      "duration": 0.1808,
      "velocity": 89,
      "chip": "ym2612"
    },
    {
      "channel": 1,
      "note": 74,
      "start": 12.3184,
      "duration": 0.0906,
      "velocity": 127,
      "chip": "ym2612"
    },
    {
      "channel": 0,
      "note": 50,
      "start": 12.4087,
      "duration": 0.0901,
      "velocity": 89,
      "chip": "ym2612"
    },
    {
      "channel": 1,
      "note": 74,
      "start": 12.4093,
      "duration": 0.0917,
      "velocity": 127,
      "chip": "ym2612"
    },
    {
      "channel": 0,
      "note": 62,
      "start": 12.499,
      "duration": 0.1812,
      "velocity": 89,
      "chip": "ym2612"
    },
    {
      "channel": 1,
      "note": 21,
      "start": 12.5011,
      "duration": 0.0901,
      "velocity": 127,
      "chip": "ym2612"
    },
    {
      "channel": 1,
      "note": 74,
      "start": 12.5912,
      "duration": 0.091,
      "velocity": 119,
      "chip": "ym2612"
    },
    {
      "channel": 0,
      "note": 60,
      "start": 12.6803,
      "duration": 0.1802,
      "velocity": 89,
      "chip": "ym2612"
    },
    {
      "channel": 1,
      "note": 31,
      "start": 12.6824,
      "duration": 0.1802,
      "velocity": 127,
      "chip": "ym2612"
    },
    {
      "channel": 0,
      "note": 57,
      "start": 12.8607,
      "duration": 0.1816,
      "velocity": 89,
      "chip": "ym2612"
    },
    {
      "channel": 1,
      "note": 74,
      "start": 12.8628,
      "duration": 0.0885,
      "velocity": 127,
      "chip": "ym2612"
    },
    {
      "channel": 1,
      "note": 74,
      "start": 12.9515,
      "duration": 0.0929,
      "velocity": 127,
      "chip": "ym2612"
    },
    {
      "channel": 0,
      "note": 50,
      "start": 13.0425,
      "duration": 0.1812,
      "velocity": 89,
      "chip": "ym2612"
    },
    {
      "channel": 1,
      "note": 21,
      "start": 13.0446,
      "duration": 0.1812,
      "velocity": 127,
      "chip": "ym2612"
    },
    {
      "channel": 2,
      "note": 48,
      "start": 13.0467,
      "duration": 0.0866,
      "velocity": 97,
      "chip": "ym2612"
    },
    {
      "channel": 2,
      "note": 50,
      "start": 13.1334,
      "duration": 0.0929,
      "velocity": 97,
      "chip": "ym2612"
    },
    {
      "channel": 0,
      "note": 62,
      "start": 13.2238,
      "duration": 0.1813,
      "velocity": 89,
      "chip": "ym2612"
    },
    {
      "channel": 1,
      "note": 74,
      "start": 13.226,
      "duration": 0.0886,
      "velocity": 127,
      "chip": "ym2612"
    },
    {
      "channel": 2,
      "note": 62,
      "start": 13.2265,
      "duration": 0.1813,
      "velocity": 97,
      "chip": "ym2612"
    },
    {
      "channel": 1,
      "note": 74,
      "start": 13.3147,
      "duration": 0.0925,
      "velocity": 119,
      "chip": "ym2612"
    },
    {
      "channel": 0,
      "note": 62,
      "start": 13.4053,
      "duration": 0.1812,
      "velocity": 89,
      "chip": "ym2612"
    },
    {
      "channel": 1,
      "note": 31,
      "start": 13.4074,
      "duration": 0.0899,
      "velocity": 127,
      "chip": "ym2612"
    },
    {
      "channel": 2,
      "note": 62,
      "start": 13.4079,
      "duration": 0.0899,
      "velocity": 97,
      "chip": "ym2612"
    },
    {
      "channel": 1,
      "note": 74,
      "start": 13.4975,
      "duration": 0.0911,
      "velocity": 127,
      "chip": "ym2612"
    },
    {
      "channel": 2,
      "note": 50,
      "start": 13.4981,
      "duration": 0.1819,
      "velocity": 97,
      "chip": "ym2612"
    },
    {
      "channel": 0,
      "note": 50,
      "start": 13.5866,
      "duration": 0.0906,
      "velocity": 89,
      "chip": "ym2612"
    },
    {
      "channel": 1,
      "note": 21,
      "start": 13.5888,
      "duration": 0.0906,
      "velocity": 127,
      "chip": "ym2612"
    },
    {
      "channel": 0,
      "note": 62,
      "start": 13.6774,
      "duration": 0.1807,
      "velocity": 89,
      "chip": "ym2612"
    },
    {
      "channel": 1,
      "note": 74,
      "start": 13.6795,
      "duration": 0.0881,
      "velocity": 127,
      "chip": "ym2612"
    },
    {
      "channel": 2,
      "note": 48,
      "start": 13.6801,
      "duration": 0.1787,
      "velocity": 97,
      "chip": "ym2612"
    },
    {
      "channel": 1,
      "note": 74,
      "start": 13.7678,
      "duration": 0.1831,
      "velocity": 127,
      "chip": "ym2612"
    },
    {
      "channel": 0,
      "note": 50,
      "start": 13.8584,
      "duration": 0.0904,
      "velocity": 89,
      "chip": "ym2612"
    },
    {
      "channel": 2,
      "note": 50,
      "start": 13.8589,
      "duration": 0.0925,
      "velocity": 97,
      "chip": "ym2612"
    },
    {
      "channel": 0,
      "note": 62,
      "start": 13.949,
      "duration": 0.1813,
      "velocity": 89,
      "chip": "ym2612"
    },
    {
      "channel": 1,
      "note": 21,
      "start": 13.9511,
      "duration": 0.1813,
      "velocity": 119,
      "chip": "ym2612"
    },
    {
      "channel": 2,
      "note": 62,
      "start": 13.9517,
      "duration": 0.0882,
      "velocity": 97,
      "chip": "ym2612"
    },
    {
      "channel": 2,
      "note": 50,
      "start": 14.04,
      "duration": 0.093,
      "velocity": 97,
      "chip": "ym2612"
    },
    {
      "channel": 0,
      "note": 60,
      "start": 14.1305,
      "duration": 0.1811,
      "velocity": 89,
      "chip": "ym2612"
    },
    {
      "channel": 1,
      "note": 31,
      "start": 14.1326,
      "duration": 0.0902,
      "velocity": 127,
      "chip": "ym2612"
    },
    {
      "channel": 2,
      "note": 62,
      "start": 14.1332,
      "duration": 0.0901,
      "velocity": 97,
      "chip": "ym2612"
    },
    {
      "channel": 1,
      "note": 74,
      "start": 14.2229,
      "duration": 0.0892,
      "velocity": 127,
      "chip": "ym2612"
    },
    {
      "channel": 2,
      "note": 50,
      "start": 14.2235,
      "duration": 0.0892,
      "velocity": 97,
      "chip": "ym2612"
    },
    {
      "channel": 0,
      "note": 64,
      "start": 14.3118,
      "duration": 0.181,
      "velocity": 89,
      "chip": "ym2612"
    },
    {
      "channel": 1,
      "note": 74,
      "start": 14.3123,
      "duration": 0.0899,
      "velocity": 127,
      "chip": "ym2612"
    },
    {
      "channel": 2,
      "note": 48,
      "start": 14.3129,
      "duration": 0.0898,
      "velocity": 97,
      "chip": "ym2612"
    },
    {
      "channel": 1,
      "note": 74,
      "start": 14.4023,
      "duration": 0.0926,
      "velocity": 127,
      "chip": "ym2612"
    },
    {
      "channel": 2,
      "note": 45,
      "start": 14.4029,
      "duration": 0.0926,
      "velocity": 97,
      "chip": "ym2612"
    },
    {
      "channel": 0,
      "note": 50,
      "start": 14.4929,
      "duration": 0.181,
      "velocity": 89,
      "chip": "ym2612"
    },
    {
      "channel": 1,
      "note": 21,
      "start": 14.4951,
      "duration": 0.181,
      "velocity": 127,
      "chip": "ym2612"
    },
    {
      "channel": 2,
      "note": 48,
      "start": 14.4956,
      "duration": 0.0878,
      "velocity": 97,
      "chip": "ym2612"
    },
    {
      "channel": 2,
      "note": 50,
      "start": 14.5836,
      "duration": 0.093,
      "velocity": 97,
      "chip": "ym2612"
    },
    {
      "channel": 0,
      "note": 62,
      "start": 14.6741,
      "duration": 0.1809,
      "velocity": 89,
      "chip": "ym2612"
    },
    {
      "channel": 1,
      "note": 74,
      "start": 14.6763,
      "duration": 0.0885,
      "velocity": 127,
      "chip": "ym2612"
    },
    {
      "channel": 2,
      "note": 62,
      "start": 14.6768,
      "duration": 0.1809,
      "velocity": 97,
      "chip": "ym2612"
    },
    {
      "channel": 1,
      "note": 74,
      "start": 14.7649,
      "duration": 0.0922,
      "velocity": 119,
      "chip": "ym2612"
    },
    {
      "channel": 0,
      "note": 62,
      "start": 14.8551,
      "duration": 0.1813,
      "velocity": 89,
      "chip": "ym2612"
    },
    {
      "channel": 1,
      "note": 31,
      "start": 14.8573,
      "duration": 0.09,
      "velocity": 127,
      "chip": "ym2612"
    },
    {
      "channel": 2,
      "note": 62,
      "start": 14.8578,
      "duration": 0.09,
      "velocity": 97,
      "chip": "ym2612"
    },
    {
      "channel": 1,
      "note": 74,
      "start": 14.9474,
      "duration": 0.0897,
      "velocity": 127,
      "chip": "ym2612"
    },
    {
      "channel": 2,
      "note": 50,
      "start": 14.948,
      "duration": 0.1794,
      "velocity": 97,
      "chip": "ym2612"
    },
    {
      "channel": 0,
      "note": 50,
      "start": 15.0367,
      "duration": 0.0901,
      "velocity": 89,
      "chip": "ym2612"
    },
    {
      "channel": 1,
      "note": 74,
      "start": 15.0372,
      "duration": 0.1801,
      "velocity": 127,
      "chip": "ym2612"
    },
    {
      "channel": 0,
      "note": 62,
      "start": 15.127,
      "duration": 0.1806,
      "velocity": 89,
      "chip": "ym2612"
    },
    {
      "channel": 2,
      "note": 48,
      "start": 15.1276,
      "duration": 0.1812,
      "velocity": 97,
      "chip": "ym2612"
    },
    {
      "channel": 1,
      "note": 74,
      "start": 15.2175,
      "duration": 0.0907,
      "velocity": 127,
      "chip": "ym2612"
    },
    {
      "channel": 0,
      "note": 50,
      "start": 15.3078,
      "duration": 0.0904,
      "velocity": 89,
      "chip": "ym2612"
    },
    {
      "channel": 1,
      "note": 74,
      "start": 15.3083,
      "duration": 0.0919,
      "velocity": 127,
      "chip": "ym2612"
    },
    {
      "channel": 2,
      "note": 50,
      "start": 15.3089,
      "duration": 0.092,
      "velocity": 97,
      "chip": "ym2612"
    },
    {
      "channel": 0,
      "note": 62,
      "start": 15.3983,
      "duration": 0.181,
      "velocity": 89,
      "chip": "ym2612"
    },
    {
      "channel": 1,
      "note": 21,
      "start": 15.4005,
      "duration": 0.0897,
      "velocity": 127,
      "chip": "ym2612"
    },
    {
      "channel": 2,
      "note": 62,
      "start": 15.401,
      "duration": 0.0897,
      "velocity": 97,
      "chip": "ym2612"
    },
    {
      "channel": 1,
      "note": 74,
      "start": 15.4903,
      "duration": 0.0912,
      "velocity": 119,
      "chip": "ym2612"
    },
    {
      "channel": 2,
      "note": 50,
      "start": 15.4909,
      "duration": 0.0912,
      "velocity": 97,
      "chip": "ym2612"
    },
    {
      "channel": 0,
      "note": 60,
      "start": 15.5795,
      "duration": 0.1809,
      "velocity": 89,
      "chip": "ym2612"
    },
    {
      "channel": 1,
      "note": 31,
      "start": 15.5817,
      "duration": 0.1809,
      "velocity": 127,
      "chip": "ym2612"
    },
    {
      "channel": 2,
      "note": 62,
      "start": 15.5822,
      "duration": 0.0881,
      "velocity": 97,
      "chip": "ym2612"
    },
    {
      "channel": 2,
      "note": 50,
      "start": 15.6705,
      "duration": 0.0927,
      "velocity": 97,
      "chip": "ym2612"
    },
    {
      "channel": 0,
      "note": 57,
      "start": 15.7606,
      "duration": 0.1808,
      "velocity": 89,
      "chip": "ym2612"
    },
    {
      "channel": 1,
      "note": 74,
      "start": 15.7627,
      "duration": 0.0884,
      "velocity": 127,
      "chip": "ym2612"
    },
    {
      "channel": 2,
      "note": 48,
      "start": 15.7633,
      "duration": 0.0884,
      "velocity": 97,
      "chip": "ym2612"
    },
    {
      "channel": 1,
      "note": 74,
      "start": 15.8513,
      "duration": 0.0922,
      "velocity": 127,
      "chip": "ym2612"
    },
    {
      "channel": 2,
      "note": 45,
      "start": 15.8519,
      "duration": 0.0939,
      "velocity": 115,
      "chip": "ym2612"
    },
    {
      "channel": 0,
      "note": 50,
      "start": 15.9416,
      "duration": 0.1809,
      "velocity": 89,
      "chip": "ym2612"
    },
    {
      "channel": 1,
      "note": 21,
      "start": 15.9437,
      "duration": 0.1809,
      "velocity": 127,
      "chip": "ym2612"
    },
    {
      "channel": 2,
      "note": 79,
      "start": 15.9459,
      "duration": 0.0009,
      "velocity": 115,
      "chip": "ym2612"
    },
    {
      "channel": 2,
      "note": 78,
      "start": 15.9468,
      "duration": 0.0129,
      "velocity": 115,
      "chip": "ym2612"
    },
    {
      "channel": 2,
      "note": 77,
      "start": 15.9598,
      "duration": 0.0182,
      "velocity": 115,
      "chip": "ym2612"
    },
    {
      "channel": 2,
      "note": 76,
      "start": 15.9779,
      "duration": 0.018,
      "velocity": 115,
      "chip": "ym2612"
    },
    {
      "channel": 2,
      "note": 75,
      "start": 15.9959,
      "duration": 0.0179,
      "velocity": 115,
      "chip": "ym2612"
    },
    {
      "channel": 2,
      "note": 74,
      "start": 16.0138,
      "duration": 0.0185,
      "velocity": 115,
      "chip": "ym2612"
    },
    {
      "channel": 2,
      "note": 79,
      "start": 16.0324,
      "duration": 0.0006,
      "velocity": 115,
      "chip": "ym2612"
    },
    {
      "channel": 2,
      "note": 78,
      "start": 16.033,
      "duration": 0.017,
      "velocity": 115,
      "chip": "ym2612"
    },
    {
      "channel": 2,
      "note": 77,
      "start": 16.0501,
      "duration": 0.0181,
      "velocity": 115,
      "chip": "ym2612"
    },
    {
      "channel": 2,
      "note": 76,
      "start": 16.0681,
      "duration": 0.0178,
      "velocity": 115,
      "chip": "ym2612"
    },
    {
      "channel": 2,
      "note": 75,
      "start": 16.086,
      "duration": 0.0181,
      "velocity": 115,
      "chip": "ym2612"
    },
    {
      "channel": 2,
      "note": 74,
      "start": 16.1041,
      "duration": 0.0211,
      "velocity": 115,
      "chip": "ym2612"
    },
    {
      "channel": 0,
      "note": 62,
      "start": 16.1227,
      "duration": 0.1808,
      "velocity": 89,
      "chip": "ym2612"
    },
    {
      "channel": 1,
      "note": 74,
      "start": 16.1248,
      "duration": 0.0884,
      "velocity": 127,
      "chip": "ym2612"
    },
    {
      "channel": 2,
      "note": 79,
      "start": 16.1254,
      "duration": 0.0006,
      "velocity": 115,
      "chip": "ym2612"
    },
    {
      "channel": 2,
      "note": 78,
      "start": 16.126,
      "duration": 0.0147,
      "velocity": 115,
      "chip": "ym2612"
    },
    {
      "channel": 2,
      "note": 77,
      "start": 16.1407,
      "duration": 0.0181,
      "velocity": 115,
      "chip": "ym2612"
    },
    {
      "channel": 2,
      "note": 76,
      "start": 16.1588,
      "duration": 0.0183,
      "velocity": 115,
      "chip": "ym2612"
    },
    {
      "channel": 2,
      "note": 75,
      "start": 16.1771,
      "duration": 0.018,
      "velocity": 115,
      "chip": "ym2612"
    },
    {
      "channel": 2,
      "note": 74,
      "start": 16.1951,
      "duration": 0.0188,
      "velocity": 115,
      "chip": "ym2612"
    },
    {
      "channel": 1,
      "note": 74,
      "start": 16.2135,
      "duration": 0.0921,
      "velocity": 119,
      "chip": "ym2612"
    },
    {
      "channel": 2,
      "note": 79,
      "start": 16.214,
      "duration": 0.0006,
      "velocity": 115,
      "chip": "ym2612"
    },
    {
      "channel": 2,
      "note": 78,
      "start": 16.2146,
      "duration": 0.0166,
      "velocity": 115,
      "chip": "ym2612"
    },
    {
      "channel": 2,
      "note": 77,
      "start": 16.2312,
      "duration": 0.018,
      "velocity": 115,
      "chip": "ym2612"
    },
    {
      "channel": 2,
      "note": 76,
      "start": 16.2492,
      "duration": 0.0182,
      "velocity": 115,
      "chip": "ym2612"
    },
    {
      "channel": 2,
      "note": 75,
      "start": 16.2674,
      "duration": 0.0178,
      "velocity": 115,
      "chip": "ym2612"
    },
    {
      "channel": 2,
      "note": 74,
      "start": 16.2852,
      "duration": 0.021,
      "velocity": 115,
      "chip": "ym2612"
    },
    {
      "channel": 0,
      "note": 62,
      "start": 16.3037,
      "duration": 0.181,
      "velocity": 89,
      "chip": "ym2612"
    },
    {
      "channel": 1,
      "note": 31,
      "start": 16.3058,
      "duration": 0.0898,
      "velocity": 127,
      "chip": "ym2612"
    },
    {
      "channel": 2,
      "note": 76,
      "start": 16.3063,
      "duration": 0.0006,
      "velocity": 115,
      "chip": "ym2612"
    },
    {
      "channel": 2,
      "note": 75,
      "start": 16.3069,
      "duration": 0.0145,
      "velocity": 115,
      "chip": "ym2612"
    },
    {
      "channel": 2,
      "note": 74,
      "start": 16.3214,
      "duration": 0.018,
      "velocity": 115,
      "chip": "ym2612"
    },
    {
      "channel": 2,
      "note": 73,
      "start": 16.3394,
      "duration": 0.018,
      "velocity": 115,
      "chip": "ym2612"
    },
    {
      "channel": 2,
      "note": 72,
      "start": 16.3574,
      "duration": 0.0181,
      "velocity": 115,
      "chip": "ym2612"
    },
    {
      "channel": 2,
      "note": 70,
      "start": 16.3755,
      "duration": 0.0206,
      "velocity": 115,
      "chip": "ym2612"
    },
    {
      "channel": 1,
      "note": 74,
      "start": 16.3958,
      "duration": 0.091,
      "velocity": 127,
      "chip": "ym2612"
    },
    {
      "channel": 2,
      "note": 76,
      "start": 16.3963,
      "duration": 0.0006,
      "velocity": 115,
      "chip": "ym2612"
    },
    {
      "channel": 2,
      "note": 75,
      "start": 16.3969,
      "duration": 0.0151,
      "velocity": 115,
      "chip": "ym2612"
    },
    {
      "channel": 2,
      "note": 74,
      "start": 16.4121,
      "duration": 0.0181,
      "velocity": 115,
      "chip": "ym2612"
    },
    {
      "channel": 2,
      "note": 73,
      "start": 16.4302,
      "duration": 0.0182,
      "velocity": 115,
      "chip": "ym2612"
    },
    {
      "channel": 2,
      "note": 72,
      "start": 16.4484,
      "duration": 0.018,
      "velocity": 115,
      "chip": "ym2612"
    },
    {
      "channel": 2,
      "note": 70,
      "start": 16.4664,
      "duration": 0.021,
      "velocity": 115,
      "chip": "ym2612"
    },
    {
      "channel": 0,
      "note": 50,
      "start": 16.4847,
      "duration": 0.0904,
      "velocity": 89,
      "chip": "ym2612"
    },
    {
      "channel": 1,
      "note": 21,
      "start": 16.4869,
      "duration": 0.1807,
      "velocity": 127,
      "chip": "ym2612"
    },
    {
      "channel": 2,
      "note": 76,
      "start": 16.4875,
      "duration": 0.0006,
      "velocity": 115,
      "chip": "ym2612"
    },
    {
      "channel": 2,
      "note": 75,
      "start": 16.488,
      "duration": 0.0145,
      "velocity": 115,
      "chip": "ym2612"
    },
    {
      "channel": 2,
      "note": 74,
      "start": 16.5025,
      "duration": 0.018,
      "velocity": 115,
      "chip": "ym2612"
    },
    {
      "channel": 2,
      "note": 73,
      "start": 16.5205,
      "duration": 0.018,
      "velocity": 115,
      "chip": "ym2612"
    },
    {
      "channel": 2,
      "note": 72,
      "start": 16.5386,
      "duration": 0.0181,
      "velocity": 115,
      "chip": "ym2612"
    },
    {
      "channel": 2,
      "note": 70,
      "start": 16.5567,
      "duration": 0.0191,
      "velocity": 115,
      "chip": "ym2612"
    },
    {
      "channel": 0,
      "note": 62,
      "start": 16.5753,
      "duration": 0.1816,
      "velocity": 89,
      "chip": "ym2612"
    },
    {
      "channel": 2,
      "note": 76,
      "start": 16.5759,
      "duration": 0.0006,
      "velocity": 115,
      "chip": "ym2612"
    },
    {
      "channel": 2,
      "note": 75,
      "start": 16.5765,
      "duration": 0.0165,
      "velocity": 115,
      "chip": "ym2612"
    },
    {
      "channel": 2,
      "note": 74,
      "start": 16.593,
      "duration": 0.0181,
      "velocity": 115,
      "chip": "ym2612"
    },
    {
      "channel": 2,
      "note": 73,
      "start": 16.6111,
      "duration": 0.018,
      "velocity": 115,
      "chip": "ym2612"
    },
    {
      "channel": 2,
      "note": 72,
      "start": 16.6292,
      "duration": 0.0182,
      "velocity": 115,
      "chip": "ym2612"
    },
    {
      "channel": 2,
      "note": 70,
      "start": 16.6474,
      "duration": 0.0208,
      "velocity": 115,
      "chip": "ym2612"
    },
    {
      "channel": 1,
      "note": 74,
      "start": 16.6678,
      "duration": 0.0897,
      "velocity": 127,
      "chip": "ym2612"
    },
    {
      "channel": 2,
      "note": 72,
      "start": 16.6684,
      "duration": 0.0006,
      "velocity": 115,
      "chip": "ym2612"
    },
    {
      "channel": 2,
      "note": 71,
      "start": 16.6689,
      "duration": 0.0153,
      "velocity": 115,
      "chip": "ym2612"
    },
    {
      "channel": 2,
      "note": 69,
      "start": 16.6842,
      "duration": 0.0181,
      "velocity": 115,
      "chip": "ym2612"
    },
    {
      "channel": 2,
      "note": 68,
      "start": 16.7023,
      "duration": 0.0181,
      "velocity": 115,
      "chip": "ym2612"
    },
    {
      "channel": 2,
      "note": 67,
      "start": 16.7204,
      "duration": 0.0182,
      "velocity": 115,
      "chip": "ym2612"
    },
    {
      "channel": 2,
      "note": 66,
      "start": 16.7385,
      "duration": 0.0195,
      "velocity": 115,
      "chip": "ym2612"
    },
    {
      "channel": 0,
      "note": 50,
      "start": 16.7571,
      "duration": 0.0904,
      "velocity": 89,
      "chip": "ym2612"
    },
    {
      "channel": 1,
      "note": 74,
      "start": 16.7576,
      "duration": 0.092,
      "velocity": 127,
      "chip": "ym2612"
    },
    {
      "channel": 2,
      "note": 72,
      "start": 16.7582,
      "duration": 0.0006,
      "velocity": 115,
      "chip": "ym2612"
    },
    {
      "channel": 2,
      "note": 71,
      "start": 16.7588,
      "duration": 0.0159,
      "velocity": 115,
      "chip": "ym2612"
    },
    {
      "channel": 2,
      "note": 69,
      "start": 16.7747,
      "duration": 0.0179,
      "velocity": 115,
      "chip": "ym2612"
    },
    {
      "channel": 2,
      "note": 68,
      "start": 16.7926,
      "duration": 0.0181,
      "velocity": 115,
      "chip": "ym2612"
    },
    {
      "channel": 2,
      "note": 67,
      "start": 16.8107,
      "duration": 0.0183,
      "velocity": 115,
      "chip": "ym2612"
    },
    {
      "channel": 2,
      "note": 66,
      "start": 16.829,
      "duration": 0.0212,
      "velocity": 115,
      "chip": "ym2612"
    },
    {
      "channel": 0,
      "note": 62,
      "start": 16.8476,
      "duration": 0.182,
      "velocity": 89,
      "chip": "ym2612"
    },
    {
      "channel": 1,
      "note": 21,
      "start": 16.8498,
      "duration": 0.0904,
      "velocity": 127,
      "chip": "ym2612"
    },
    {
      "channel": 2,
      "note": 72,
      "start": 16.8503,
      "duration": 0.0006,
      "velocity": 115,
      "chip": "ym2612"
    },
    {
      "channel": 2,
      "note": 71,
      "start": 16.8509,
      "duration": 0.0146,
      "velocity": 115,
      "chip": "ym2612"
    },
    {
      "channel": 2,
      "note": 69,
      "start": 16.8656,
      "duration": 0.0182,
      "velocity": 115,
      "chip": "ym2612"
    },
    {
      "channel": 2,
      "note": 68,
      "start": 16.8837,
      "duration": 0.0181,
      "velocity": 115,
      "chip": "ym2612"
    },
    {
      "channel": 2,
      "note": 67,
      "start": 16.9018,
      "duration": 0.0181,
      "velocity": 115,
      "chip": "ym2612"
    },
    {
      "channel": 2,
      "note": 66,
      "start": 16.9199,
      "duration": 0.0208,
      "velocity": 115,
      "chip": "ym2612"
    },
    {
      "channel": 1,
      "note": 74,
      "start": 16.9402,
      "duration": 0.0915,
      "velocity": 119,
      "chip": "ym2612"
    },
    {
      "channel": 2,
      "note": 72,
      "start": 16.9408,
      "duration": 0.0006,
      "velocity": 115,
      "chip": "ym2612"
    },
    {
      "channel": 2,
      "note": 71,
      "start": 16.9414,
      "duration": 0.015,
      "velocity": 115,
      "chip": "ym2612"
    },
    {
      "channel": 2,
      "note": 69,
      "start": 16.9564,
      "duration": 0.0183,
      "velocity": 115,
      "chip": "ym2612"
    },
    {
      "channel": 2,
      "note": 68,
      "start": 16.9747,
      "duration": 0.0182,
      "velocity": 115,
      "chip": "ym2612"
    },
    {
      "channel": 2,
      "note": 67,
      "start": 16.9929,
      "duration": 0.0182,
      "velocity": 115,
      "chip": "ym2612"
    },
    {
      "channel": 2,
      "note": 66,
      "start": 17.0111,
      "duration": 0.0212,
      "velocity": 115,
      "chip": "ym2612"
    },
    {
      "channel": 0,
      "note": 60,
      "start": 17.0298,
      "duration": 0.1825,
      "velocity": 89,
      "chip": "ym2612"
    },
    {
      "channel": 1,
      "note": 31,
      "start": 17.0319,
      "duration": 0.0906,
      "velocity": 127,
      "chip": "ym2612"
    },
    {
      "channel": 2,
      "note": 69,
      "start": 17.0324,
      "duration": 0.0006,
      "velocity": 115,
      "chip": "ym2612"
    },
    {
      "channel": 2,
      "note": 68,
      "start": 17.033,
      "duration": 0.0148,
      "velocity": 115,
      "chip": "ym2612"
    },
    {
      "channel": 2,
      "note": 67,
      "start": 17.0478,
      "duration": 0.0182,
      "velocity": 115,
      "chip": "ym2612"
    },
    {
      "channel": 2,
      "note": 66,
      "start": 17.066,
      "duration": 0.0183,
      "velocity": 115,
      "chip": "ym2612"
    },
    {
      "channel": 2,
      "note": 65,
      "start": 17.0843,
      "duration": 0.0183,
      "velocity": 115,
      "chip": "ym2612"
    },
    {
      "channel": 2,
      "note": 64,
      "start": 17.1025,
      "duration": 0.0205,
      "velocity": 115,
      "chip": "ym2612"
    },
    {
      "channel": 1,
      "note": 74,
      "start": 17.1227,
      "duration": 0.0902,
      "velocity": 127,
      "chip": "ym2612"
    },
    {
      "channel": 2,
      "note": 69,
      "start": 17.1232,
      "duration": 0.0006,
      "velocity": 115,
      "chip": "ym2612"
    },
    {
      "channel": 2,
      "note": 68,
      "start": 17.1238,
      "duration": 0.0151,
      "velocity": 115,
      "chip": "ym2612"
    },
    {
      "channel": 2,
      "note": 67,
      "start": 17.1389,
      "duration": 0.0182,
      "velocity": 115,
      "chip": "ym2612"
    },
    {
      "channel": 2,
      "note": 66,
      "start": 17.1572,
      "duration": 0.0182,
      "velocity": 115,
      "chip": "ym2612"
    },
    {
      "channel": 2,
      "note": 65,
      "start": 17.1754,
      "duration": 0.0182,
      "velocity": 115,
      "chip": "ym2612"
    },
    {
      "channel": 2,
      "note": 64,
      "start": 17.1935,
      "duration": 0.0198,
      "velocity": 115,
      "chip": "ym2612"
    },
    {
      "channel": 0,
      "note": 64,
      "start": 17.2124,
      "duration": 0.1814,
      "velocity": 89,
      "chip": "ym2612"
    },
    {
      "channel": 1,
      "note": 74,
      "start": 17.2129,
      "duration": 0.0899,
      "velocity": 127,
      "chip": "ym2612"
    },
    {
      "channel": 2,
      "note": 69,
      "start": 17.2136,
      "duration": 0.0008,
      "velocity": 115,
      "chip": "ym2612"
    },
    {
      "channel": 2,
      "note": 68,
      "start": 17.2144,
      "duration": 0.0155,
      "velocity": 115,
      "chip": "ym2612"
    },
    {
      "channel": 2,
      "note": 67,
      "start": 17.2299,
      "duration": 0.018,
      "velocity": 115,
      "chip": "ym2612"
    },
    {
      "channel": 2,
      "note": 66,
      "start": 17.2479,
      "duration": 0.018,
      "velocity": 115,
      "chip": "ym2612"
    },
    {
      "channel": 2,
      "note": 65,
      "start": 17.266,
      "duration": 0.0183,
      "velocity": 115,
      "chip": "ym2612"
    },
    {
      "channel": 2,
      "note": 64,
      "start": 17.2842,
      "duration": 0.0192,
      "velocity": 115,
      "chip": "ym2612"
    },
    {
      "channel": 1,
      "note": 74,
      "start": 17.303,
      "duration": 0.0929,
      "velocity": 127,
      "chip": "ym2612"
    },
    {
      "channel": 2,
      "note": 69,
      "start": 17.3036,
      "duration": 0.0006,
      "velocity": 115,
      "chip": "ym2612"
    },
    {
      "channel": 2,
      "note": 68,
      "start": 17.3042,
      "duration": 0.0163,
      "velocity": 115,
      "chip": "ym2612"
    },
    {
      "channel": 2,
      "note": 67,
      "start": 17.3205,
      "duration": 0.0181,
      "velocity": 115,
      "chip": "ym2612"
    },
    {
      "channel": 2,
      "note": 66,
      "start": 17.3386,
      "duration": 0.0183,
      "velocity": 115,
      "chip": "ym2612"
    },
    {
      "channel": 2,
      "note": 65,
      "start": 17.3569,
      "duration": 0.0182,
      "velocity": 115,
      "chip": "ym2612"
    },
    {
      "channel": 2,
      "note": 64,
      "start": 17.3751,
      "duration": 0.023,
      "velocity": 102,
      "chip": "ym2612"
    },
    {
      "channel": 0,
      "note": 50,
      "start": 17.394,
      "duration": 0.1805,
      "velocity": 89,
      "chip": "ym2612"
    },
    {
      "channel": 1,
      "note": 21,
      "start": 17.3961,
      "duration": 0.1805,
      "velocity": 127,
      "chip": "ym2612"
    },
    {
      "channel": 2,
      "note": 66,
      "start": 17.3982,
      "duration": 1.445,
      "velocity": 102,
      "chip": "ym2612"
    },
    {
      "channel": 3,
      "note": 57,
      "start": 17.3989,
      "duration": 1.4449,
      "velocity": 102,
      "chip": "ym2612"
    },
    {
      "channel": 0,
      "note": 62,
      "start": 17.5746,
      "duration": 0.1805,
      "velocity": 89,
      "chip": "ym2612"
    },
    {
      "channel": 1,
      "note": 74,
      "start": 17.5768,
      "duration": 0.088,
      "velocity": 127,
      "chip": "ym2612"
    },
    {
      "channel": 1,
      "note": 74,
      "start": 17.665,
      "duration": 0.0923,
      "velocity": 119,
      "chip": "ym2612"
    },
    {
      "channel": 0,
      "note": 62,
      "start": 17.7553,
      "duration": 0.181,
      "velocity": 89,
      "chip": "ym2612"
    },
    {
      "channel": 1,
      "note": 31,
      "start": 17.7574,
      "duration": 0.0899,
      "velocity": 127,
      "chip": "ym2612"
    },
    {
      "channel": 1,
      "note": 74,
      "start": 17.8474,
      "duration": 0.0895,
      "velocity": 127,
      "chip": "ym2612"
    },
    {
      "channel": 0,
      "note": 50,
      "start": 17.9365,
      "duration": 0.0903,
      "velocity": 89,
      "chip": "ym2612"
    },
    {
      "channel": 1,
      "note": 74,
      "start": 17.937,
      "duration": 0.1802,
      "velocity": 127,
      "chip": "ym2612"
    },
    {
      "channel": 0,
      "note": 62,
      "start": 18.027,
      "duration": 0.1803,
      "velocity": 89,
      "chip": "ym2612"
    },
    {
      "channel": 1,
      "note": 74,
      "start": 18.1175,
      "duration": 0.0904,
      "velocity": 127,
      "chip": "ym2612"
    },
    {
      "channel": 0,
      "note": 50,
      "start": 18.2075,
      "duration": 0.0901,
      "velocity": 89,
      "chip": "ym2612"
    },
    {
      "channel": 1,
      "note": 74,
      "start": 18.208,
      "duration": 0.0917,
      "velocity": 127,
      "chip": "ym2612"
    },
    {
      "channel": 0,
      "note": 62,
      "start": 18.2978,
      "duration": 0.1805,
      "velocity": 89,
      "chip": "ym2612"
    },
    {
      "channel": 1,
      "note": 21,
      "start": 18.2999,
      "duration": 0.0897,
      "velocity": 127,
      "chip": "ym2612"
    },
    {
      "channel": 1,
      "note": 74,
      "start": 18.3898,
      "duration": 0.0907,
      "velocity": 119,
      "chip": "ym2612"
    },
    {
      "channel": 0,
      "note": 60,
      "start": 18.4785,
      "duration": 0.1807,
      "velocity": 89,
      "chip": "ym2612"
    },
    {
      "channel": 1,
      "note": 31,
      "start": 18.4806,
      "duration": 0.1808,
      "velocity": 127,
      "chip": "ym2612"
    },
    {
      "channel": 0,
      "note": 57,
      "start": 18.6594,
      "duration": 0.1811,
      "velocity": 89,
      "chip": "ym2612"
    },
    {
      "channel": 1,
      "note": 74,
      "start": 18.6615,
      "duration": 0.0883,
      "velocity": 127,
      "chip": "ym2612"
    },
    {
      "channel": 1,
      "note": 74,
      "start": 18.75,
      "duration": 0.0927,
      "velocity": 127,
      "chip": "ym2612"
    },
    {
      "channel": 0,
      "note": 50,
      "start": 18.8407,
      "duration": 0.1811,
      "velocity": 89,
      "chip": "ym2612"
    },
    {
      "channel": 1,
      "note": 21,
      "start": 18.8429,
      "duration": 0.1811,
      "velocity": 127,
      "chip": "ym2612"
    },
    {
      "channel": 2,
      "note": 60,
      "start": 18.8434,
      "duration": 0.9065,
      "velocity": 102,
      "chip": "ym2612"
    },
    {
      "channel": 3,
      "note": 67,
      "start": 18.844,
      "duration": 0.9065,
      "velocity": 102,
      "chip": "ym2612"
    },
    {
      "channel": 0,
      "note": 62,
      "start": 19.022,
      "duration": 0.181,
      "velocity": 89,
      "chip": "ym2612"
    },
    {
      "channel": 1,
      "note": 74,
      "start": 19.0241,
      "duration": 0.0885,
      "velocity": 127,
      "chip": "ym2612"
    },
    {
      "channel": 1,
      "note": 74,
      "start": 19.1129,
      "duration": 0.0923,
      "velocity": 119,
      "chip": "ym2612"
    },
    {
      "channel": 0,
      "note": 62,
      "start": 19.2032,
      "duration": 0.1815,
      "velocity": 89,
      "chip": "ym2612"
    },
    {
      "channel": 1,
      "note": 31,
      "start": 19.2054,
      "duration": 0.0903,
      "velocity": 127,
      "chip": "ym2612"
    },
    {
      "channel": 1,
      "note": 74,
      "start": 19.2957,
      "duration": 0.0911,
      "velocity": 127,
      "chip": "ym2612"
    },
    {
      "channel": 0,
      "note": 50,
      "start": 19.3849,
      "duration": 0.0904,
      "velocity": 89,
      "chip": "ym2612"
    },
    {
      "channel": 1,
      "note": 21,
      "start": 19.3871,
      "duration": 0.0904,
      "velocity": 127,
      "chip": "ym2612"
    },
    {
      "channel": 0,
      "note": 62,
      "start": 19.4755,
      "duration": 0.1811,
      "velocity": 89,
      "chip": "ym2612"
    },
    {
      "channel": 1,
      "note": 74,
      "start": 19.4776,
      "duration": 0.0885,
      "velocity": 127,
      "chip": "ym2612"
    },
    {
      "channel": 1,
      "note": 74,
      "start": 19.5663,
      "duration": 0.183,
      "velocity": 127,
      "chip": "ym2612"
    },
    {
      "channel": 0,
      "note": 50,
      "start": 19.6568,
      "duration": 0.0905,
      "velocity": 89,
      "chip": "ym2612"
    },
    {
      "channel": 0,
      "note": 62,
      "start": 19.7474,
      "duration": 0.1811,
      "velocity": 89,
      "chip": "ym2612"
    },
    {
      "channel": 1,
      "note": 21,
      "start": 19.7495,
      "duration": 0.1811,
      "velocity": 119,
      "chip": "ym2612"
    },
    {
      "channel": 2,
      "note": 64,
      "start": 19.7501,
      "duration": 0.1812,
      "velocity": 102,
      "chip": "ym2612"
    },
    {
      "channel": 3,
      "note": 60,
      "start": 19.7507,
      "duration": 0.1812,
      "velocity": 102,
      "chip": "ym2612"
    },
    {
      "channel": 0,
      "note": 60,
      "start": 19.9288,
      "duration": 0.1812,
      "velocity": 89,
      "chip": "ym2612"
    },
    {
      "channel": 1,
      "note": 31,
      "start": 19.9309,
      "duration": 0.0901,
      "velocity": 127,
      "chip": "ym2612"
    },
    {
      "channel": 2,
      "note": 67,
      "start": 19.9315,
      "duration": 0.1796,
      "velocity": 102,
      "chip": "ym2612"
    },
    {
      "channel": 3,
      "note": 64,
      "start": 19.932,
      "duration": 0.1796,
      "velocity": 102,
      "chip": "ym2612"
    },
    {
      "channel": 1,
      "note": 74,
      "start": 20.0211,
      "duration": 0.0894,
      "velocity": 127,
      "chip": "ym2612"
    },
    {
      "channel": 0,
      "note": 64,
      "start": 20.1101,
      "duration": 0.1807,
      "velocity": 89,
      "chip": "ym2612"
    },
    {
      "channel": 1,
      "note": 74,
      "start": 20.1107,
      "duration": 0.0897,
      "velocity": 127,
      "chip": "ym2612"
    },
    {
      "channel": 2,
      "note": 71,
      "start": 20.1112,
      "duration": 0.3632,
      "velocity": 102,
      "chip": "ym2612"
    },
    {
      "channel": 3,
      "note": 67,
      "start": 20.1118,
      "duration": 0.3632,
      "velocity": 102,
      "chip": "ym2612"
    },
    {
      "channel": 1,
      "note": 74,
      "start": 20.2006,
      "duration": 0.0924,
      "velocity": 127,
      "chip": "ym2612"
    },
    {
      "channel": 0,
      "note": 50,
      "start": 20.291,
      "duration": 0.1807,
      "velocity": 89,
      "chip": "ym2612"
    },
    {
      "channel": 1,
      "note": 21,
      "start": 20.2932,
      "duration": 0.1807,
      "velocity": 127,
      "chip": "ym2612"
    },
    {
      "channel": 0,
      "note": 62,
      "start": 20.472,
      "duration": 0.1814,
      "velocity": 89,
      "chip": "ym2612"
    },
    {
      "channel": 1,
      "note": 74,
      "start": 20.4741,
      "duration": 0.0889,
      "velocity": 127,
      "chip": "ym2612"
    },
    {
      "channel": 2,
      "note": 72,
      "start": 20.4746,
      "duration": 0.1815,
      "velocity": 102,
      "chip": "ym2612"
    },
    {
      "channel": 3,
      "note": 69,
      "start": 20.4752,
      "duration": 0.1815,
      "velocity": 102,
      "chip": "ym2612"
    },
    {
      "channel": 1,
      "note": 74,
      "start": 20.5632,
      "duration": 0.0924,
      "velocity": 119,
      "chip": "ym2612"
    },
    {
      "channel": 0,
      "note": 62,
      "start": 20.6536,
      "duration": 0.181,
      "velocity": 89,
      "chip": "ym2612"
    },
    {
      "channel": 1,
      "note": 31,
      "start": 20.6557,
      "duration": 0.0901,
      "velocity": 127,
      "chip": "ym2612"
    },
    {
      "channel": 2,
      "note": 71,
      "start": 20.6563,
      "duration": 0.1795,
      "velocity": 102,
      "chip": "ym2612"
    },
    {
      "channel": 3,
      "note": 67,
      "start": 20.6568,
      "duration": 0.1794,
      "velocity": 102,
      "chip": "ym2612"
    },
    {
      "channel": 1,
      "note": 74,
      "start": 20.7459,
      "duration": 0.0893,
      "velocity": 127,
      "chip": "ym2612"
    },
    {
      "channel": 0,
      "note": 50,
      "start": 20.8348,
      "duration": 0.0902,
      "velocity": 89,
      "chip": "ym2612"
    },
    {
      "channel": 1,
      "note": 74,
      "start": 20.8354,
      "duration": 0.1804,
      "velocity": 127,
      "chip": "ym2612"
    },
    {
      "channel": 2,
      "note": 67,
      "start": 20.8359,
      "duration": 0.1804,
      "velocity": 102,
      "chip": "ym2612"
    },
    {
      "channel": 3,
      "note": 64,
      "start": 20.8364,
      "duration": 0.1804,
      "velocity": 102,
      "chip": "ym2612"
    },
    {
      "channel": 0,
      "note": 62,
      "start": 20.9252,
      "duration": 0.1809,
      "velocity": 89,
      "chip": "ym2612"
    },
    {
      "channel": 1,
      "note": 74,
      "start": 21.0159,
      "duration": 0.0909,
      "velocity": 127,
      "chip": "ym2612"
    },
    {
      "channel": 2,
      "note": 64,
      "start": 21.0164,
      "duration": 1.633,
      "velocity": 102,
      "chip": "ym2612"
    },
    {
      "channel": 3,
      "note": 60,
      "start": 21.017,
      "duration": 1.633,
      "velocity": 102,
      "chip": "ym2612"
    },
    {
      "channel": 0,
      "note": 50,
      "start": 21.1064,
      "duration": 0.0904,
      "velocity": 89,
      "chip": "ym2612"
    },
    {
      "channel": 1,
      "note": 74,
      "start": 21.1069,
      "duration": 0.092,
      "velocity": 127,
      "chip": "ym2612"
    },
    {
      "channel": 0,
      "note": 62,
      "start": 21.1969,
      "duration": 0.1816,
      "velocity": 89,
      "chip": "ym2612"
    },
    {
      "channel": 1,
      "note": 21,
      "start": 21.199,
      "duration": 0.0903,
      "velocity": 127,
      "chip": "ym2612"
    },
    {
      "channel": 1,
      "note": 74,
      "start": 21.2896,
      "duration": 0.0911,
      "velocity": 119,
      "chip": "ym2612"
    },
    {
      "channel": 0,
      "note": 60,
      "start": 21.3787,
      "duration": 0.1807,
      "velocity": 89,
      "chip": "ym2612"
    },
    {
      "channel": 1,
      "note": 31,
      "start": 21.3809,
      "duration": 0.1807,
      "velocity": 127,
      "chip": "ym2612"
    },
    {
      "channel": 0,
      "note": 57,
      "start": 21.5595,
      "duration": 0.1814,
      "velocity": 89,
      "chip": "ym2612"
    },
    {
      "channel": 1,
      "note": 74,
      "start": 21.5617,
      "duration": 0.0885,
      "velocity": 127,
      "chip": "ym2612"
    },
    {
      "channel": 1,
      "note": 74,
      "start": 21.6503,
      "duration": 0.0927,
      "velocity": 127,
      "chip": "ym2612"
    },
    {
      "channel": 0,
      "note": 50,
      "start": 21.7411,
      "duration": 0.1807,
      "velocity": 89,
      "chip": "ym2612"
    },
    {
      "channel": 1,
      "note": 21,
      "start": 21.7432,
      "duration": 0.1808,
      "velocity": 127,
      "chip": "ym2612"
    },
    {
      "channel": 0,
      "note": 62,
      "start": 21.922,
      "duration": 0.1811,
      "velocity": 89,
      "chip": "ym2612"
    },
    {
      "channel": 1,
      "note": 74,
      "start": 21.9241,
      "duration": 0.0884,
      "velocity": 127,
      "chip": "ym2612"
    },
    {
      "channel": 1,
      "note": 74,
      "start": 22.0127,
      "duration": 0.0925,
      "velocity": 119,
      "chip": "ym2612"
    },
    {
      "channel": 0,
      "note": 62,
      "start": 22.1033,
      "duration": 0.1812,
      "velocity": 89,
      "chip": "ym2612"
    },
    {
      "channel": 1,
      "note": 31,
      "start": 22.1054,
      "duration": 0.09,
      "velocity": 127,
      "chip": "ym2612"
    },
    {
      "channel": 1,
      "note": 74,
      "start": 22.1956,
      "duration": 0.0911,
      "velocity": 127,
      "chip": "ym2612"
    },
    {
      "channel": 0,
      "note": 50,
      "start": 22.2847,
      "duration": 0.0906,
      "velocity": 89,
      "chip": "ym2612"
    },
    {
      "channel": 1,
      "note": 21,
      "start": 22.2868,
      "duration": 0.1805,
      "velocity": 127,
      "chip": "ym2612"
    },
    {
      "channel": 0,
      "note": 62,
      "start": 22.3755,
      "duration": 0.1807,
      "velocity": 89,
      "chip": "ym2612"
    },
    {
      "channel": 1,
      "note": 74,
      "start": 22.4674,
      "duration": 0.0894,
      "velocity": 127,
      "chip": "ym2612"
    },
    {
      "channel": 0,
      "note": 50,
      "start": 22.5565,
      "duration": 0.0903,
      "velocity": 89,
      "chip": "ym2612"
    },
    {
      "channel": 1,
      "note": 74,
      "start": 22.557,
      "duration": 0.092,
      "velocity": 127,
      "chip": "ym2612"
    },
    {
      "channel": 0,
      "note": 62,
      "start": 22.6469,
      "duration": 0.1813,
      "velocity": 89,
      "chip": "ym2612"
    },
    {
      "channel": 1,
      "note": 21,
      "start": 22.649,
      "duration": 0.0901,
      "velocity": 127,
      "chip": "ym2612"
    },
    {
      "channel": 2,
      "note": 62,
      "start": 22.6496,
      "duration": 0.1813,
      "velocity": 102,
      "chip": "ym2612"
    },
    {
      "channel": 3,
      "note": 57,
      "start": 22.6502,
      "duration": 0.1813,
      "velocity": 102,
      "chip": "ym2612"
    },
    {
      "channel": 1,
      "note": 74,
      "start": 22.7393,
      "duration": 0.0912,
      "velocity": 119,
      "chip": "ym2612"
    },
    {
      "channel": 0,
      "note": 60,
      "start": 22.8285,
      "duration": 0.1812,
      "velocity": 89,
      "chip": "ym2612"
    },
    {
      "channel": 1,
      "note": 31,
      "start": 22.8306,
      "duration": 0.0903,
      "velocity": 127,
      "chip": "ym2612"
    },
    {
      "channel": 2,
      "note": 60,
      "start": 22.8311,
      "duration": 0.1796,
      "velocity": 102,
      "chip": "ym2612"
    },
    {
      "channel": 3,
      "note": 55,
      "start": 22.8317,
      "duration": 0.1796,
      "velocity": 102,
      "chip": "ym2612"
    },
    {
      "channel": 1,
      "note": 74,
      "start": 22.921,
      "duration": 0.0893,
      "velocity": 127,
      "chip": "ym2612"
    },
    {
      "channel": 0,
      "note": 64,
      "start": 23.0098,
      "duration": 0.1813,
      "velocity": 89,
      "chip": "ym2612"
    },
    {
      "channel": 1,
      "note": 74,
      "start": 23.0103,
      "duration": 0.0902,
      "velocity": 127,
      "chip": "ym2612"
    },
    {
      "channel": 2,
      "note": 62,
      "start": 23.0109,
      "duration": 1.9937,
      "velocity": 102,
      "chip": "ym2612"
    },
    {
      "channel": 3,
      "note": 57,
      "start": 23.0115,
      "duration": 1.9938,
      "velocity": 102,
      "chip": "ym2612"
    },
    {
      "channel": 1,
      "note": 74,
      "start": 23.1007,
      "duration": 0.0925,
      "velocity": 127,
      "chip": "ym2612"
    },
    {
      "channel": 0,
      "note": 52,
      "start": 23.1912,
      "duration": 0.1808,
      "velocity": 89,
      "chip": "ym2612"
    },
    {
      "channel": 1,
      "note": 21,
      "start": 23.1934,
      "duration": 0.1808,
      "velocity": 127,
      "chip": "ym2612"
    },
    {
      "channel": 0,
      "note": 64,
      "start": 23.3722,
      "duration": 0.1807,
      "velocity": 89,
      "chip": "ym2612"
    },
    {
      "channel": 1,
      "note": 74,
      "start": 23.3744,
      "duration": 0.0883,
      "velocity": 127,
      "chip": "ym2612"
    },
    {
      "channel": 1,
      "note": 74,
      "start": 23.4628,
      "duration": 0.0923,
      "velocity": 119,
      "chip": "ym2612"
    },
    {
      "channel": 0,
      "note": 64,
      "start": 23.5531,
      "duration": 0.1811,
      "velocity": 89,
      "chip": "ym2612"
    },
    {
      "channel": 1,
      "note": 31,
      "start": 23.5553,
      "duration": 0.09,
      "velocity": 127,
      "chip": "ym2612"
    },
    {
      "channel": 1,
      "note": 74,
      "start": 23.6454,
      "duration": 0.0893,
      "velocity": 127,
      "chip": "ym2612"
    },
    {
      "channel": 0,
      "note": 52,
      "start": 23.7343,
      "duration": 0.0905,
      "velocity": 89,
      "chip": "ym2612"
    },
    {
      "channel": 1,
      "note": 74,
      "start": 23.7349,
      "duration": 0.1803,
      "velocity": 127,
      "chip": "ym2612"
    },
    {
      "channel": 0,
      "note": 64,
      "start": 23.825,
      "duration": 0.1807,
      "velocity": 89,
      "chip": "ym2612"
    },
    {
      "channel": 1,
      "note": 74,
      "start": 23.9154,
      "duration": 0.0908,
      "velocity": 127,
      "chip": "ym2612"
    },
    {
      "channel": 0,
      "note": 52,
      "start": 24.0058,
      "duration": 0.0903,
      "velocity": 89,
      "chip": "ym2612"
    },
    {
      "channel": 1,
      "note": 74,
      "start": 24.0064,
      "duration": 0.0919,
      "velocity": 127,
      "chip": "ym2612"
    },
    {
      "channel": 0,
      "note": 64,
      "start": 24.0963,
      "duration": 0.1812,
      "velocity": 89,
      "chip": "ym2612"
    },
    {
      "channel": 1,
      "note": 21,
      "start": 24.0985,
      "duration": 0.0902,
      "velocity": 127,
      "chip": "ym2612"
    },
    {
      "channel": 1,
      "note": 74,
      "start": 24.1888,
      "duration": 0.0909,
      "velocity": 119,
      "chip": "ym2612"
    },
    {
      "channel": 0,
      "note": 62,
      "start": 24.2777,
      "duration": 0.181,
      "velocity": 89,
      "chip": "ym2612"
    },
    {
      "channel": 1,
      "note": 31,
      "start": 24.2798,
      "duration": 0.181,
      "velocity": 127,
      "chip": "ym2612"
    },
    {
      "channel": 0,
      "note": 59,
      "start": 24.4589,
      "duration": 0.1813,
      "velocity": 89,
      "chip": "ym2612"
    },
    {
      "channel": 1,
      "note": 74,
      "start": 24.4611,
      "duration": 0.0885,
      "velocity": 127,
      "chip": "ym2612"
    },
    {
      "channel": 1,
      "note": 74,
      "start": 24.5498,
      "duration": 0.0925,
      "velocity": 127,
      "chip": "ym2612"
    },
    {
      "channel": 0,
      "note": 52,
      "start": 24.6404,
      "duration": 0.1806,
      "velocity": 89,
      "chip": "ym2612"
    },
    {
      "channel": 1,
      "note": 21,
      "start": 24.6425,
      "duration": 0.1806,
      "velocity": 127,
      "chip": "ym2612"
    },
    {
      "channel": 0,
      "note": 64,
      "start": 24.8211,
      "duration": 0.1807,
      "velocity": 89,
      "chip": "ym2612"
    },
    {
      "channel": 1,
      "note": 74,
      "start": 24.8232,
      "duration": 0.0883,
      "velocity": 127,
      "chip": "ym2612"
    },
    {
      "channel": 1,
      "note": 74,
      "start": 24.9118,
      "duration": 0.0923,
      "velocity": 119,
      "chip": "ym2612"
    },
    {
      "channel": 0,
      "note": 64,
      "start": 25.0021,
      "duration": 0.1812,
      "velocity": 89,
      "chip": "ym2612"
    },
    {
      "channel": 1,
      "note": 31,
      "start": 25.0042,
      "duration": 0.0903,
      "velocity": 127,
      "chip": "ym2612"
    },
    {
      "channel": 2,
      "note": 62,
      "start": 25.0048,
      "duration": 0.3606,
      "velocity": 102,
      "chip": "ym2612"
    },
    {
      "channel": 3,
      "note": 57,
      "start": 25.0055,
      "duration": 0.3605,
      "velocity": 102,
      "chip": "ym2612"
    },
    {
      "channel": 1,
      "note": 74,
      "start": 25.0947,
      "duration": 0.0907,
      "velocity": 127,
      "chip": "ym2612"
    },
    {
      "channel": 0,
      "note": 52,
      "start": 25.1835,
      "duration": 0.0905,
      "velocity": 89,
      "chip": "ym2612"
    },
    {
      "channel": 1,
      "note": 21,
      "start": 25.1856,
      "duration": 0.0905,
      "velocity": 127,
      "chip": "ym2612"
    },
    {
      "channel": 0,
      "note": 64,
      "start": 25.2742,
      "duration": 0.1811,
      "velocity": 89,
      "chip": "ym2612"
    },
    {
      "channel": 1,
      "note": 74,
      "start": 25.2763,
      "duration": 0.0885,
      "velocity": 127,
      "chip": "ym2612"
    },
    {
      "channel": 1,
      "note": 74,
      "start": 25.365,
      "duration": 0.1828,
      "velocity": 127,
      "chip": "ym2612"
    },
    {
      "channel": 2,
      "note": 66,
      "start": 25.3655,
      "duration": 0.3639,
      "velocity": 102,
      "chip": "ym2612"
    },
    {
      "channel": 3,
      "note": 62,
      "start": 25.3661,
      "duration": 0.3639,
      "velocity": 102,
      "chip": "ym2612"
    },
    {
      "channel": 0,
      "note": 52,
      "start": 25.4555,
      "duration": 0.0902,
      "velocity": 89,
      "chip": "ym2612"
    },
    {
      "channel": 0,
      "note": 64,
      "start": 25.5459,
      "duration": 0.1808,
      "velocity": 89,
      "chip": "ym2612"
    },
    {
      "channel": 1,
      "note": 21,
      "start": 25.548,
      "duration": 0.1809,
      "velocity": 119,
      "chip": "ym2612"
    },
    {
      "channel": 0,
      "note": 62,
      "start": 25.7269,
      "duration": 0.1812,
      "velocity": 89,
      "chip": "ym2612"
    },
    {
      "channel": 1,
      "note": 31,
      "start": 25.729,
      "duration": 0.0904,
      "velocity": 127,
      "chip": "ym2612"
    },
    {
      "channel": 2,
      "note": 69,
      "start": 25.7296,
      "duration": 0.3623,
      "velocity": 102,
      "chip": "ym2612"
    },
    {
      "channel": 3,
      "note": 66,
      "start": 25.7301,
      "duration": 0.3623,
      "velocity": 102,
      "chip": "ym2612"
    },
    {
      "channel": 1,
      "note": 74,
      "start": 25.8196,
      "duration": 0.0891,
      "velocity": 127,
      "chip": "ym2612"
    },
    {
      "channel": 0,
      "note": 66,
      "start": 25.9083,
      "duration": 0.1808,
      "velocity": 89,
      "chip": "ym2612"
    },
    {
      "channel": 1,
      "note": 74,
      "start": 25.9089,
      "duration": 0.0898,
      "velocity": 127,
      "chip": "ym2612"
    },
    {
      "channel": 1,
      "note": 74,
      "start": 25.9989,
      "duration": 0.0924,
      "velocity": 127,
      "chip": "ym2612"
    },
    {
      "channel": 0,
      "note": 52,
      "start": 26.0893,
      "duration": 0.181,
      "velocity": 89,
      "chip": "ym2612"
    },
    {
      "channel": 1,
      "note": 21,
      "start": 26.0915,
      "duration": 0.181,
      "velocity": 127,
      "chip": "ym2612"
    },
    {
      "channel": 2,
      "note": 71,
      "start": 26.092,
      "duration": 2.8981,
      "velocity": 102,
      "chip": "ym2612"
    },
    {
      "channel": 3,
      "note": 68,
      "start": 26.0926,
      "duration": 2.8981,
      "velocity": 102,
      "chip": "ym2612"
    },
    {
      "channel": 0,
      "note": 64,
      "start": 26.2705,
      "duration": 0.1809,
      "velocity": 89,
      "chip": "ym2612"
    },
    {
      "channel": 1,
      "note": 74,
      "start": 26.2726,
      "duration": 0.0885,
      "velocity": 127,
      "chip": "ym2612"
    },
    {
      "channel": 1,
      "note": 74,
      "start": 26.3613,
      "duration": 0.0923,
      "velocity": 119,
      "chip": "ym2612"
    },
    {
      "channel": 0,
      "note": 64,
      "start": 26.4516,
      "duration": 0.1807,
      "velocity": 89,
      "chip": "ym2612"
    },
    {
      "channel": 1,
      "note": 31,
      "start": 26.4537,
      "duration": 0.09,
      "velocity": 127,
      "chip": "ym2612"
    },
    {
      "channel": 1,
      "note": 74,
      "start": 26.5439,
      "duration": 0.089,
      "velocity": 127,
      "chip": "ym2612"
    },
    {
      "channel": 0,
      "note": 52,
      "start": 26.6325,
      "duration": 0.0902,
      "velocity": 89,
      "chip": "ym2612"
    },
    {
      "channel": 1,
      "note": 74,
      "start": 26.6331,
      "duration": 0.1806,
      "velocity": 127,
      "chip": "ym2612"
    },
    {
      "channel": 0,
      "note": 64,
      "start": 26.7229,
      "duration": 0.1809,
      "velocity": 89,
      "chip": "ym2612"
    },
    {
      "channel": 1,
      "note": 74,
      "start": 26.8138,
      "duration": 0.0907,
      "velocity": 127,
      "chip": "ym2612"
    },
    {
      "channel": 0,
      "note": 52,
      "start": 26.9041,
      "duration": 0.0901,
      "velocity": 89,
      "chip": "ym2612"
    },
    {
      "channel": 1,
      "note": 74,
      "start": 26.9046,
      "duration": 0.0917,
      "velocity": 127,
      "chip": "ym2612"
    },
    {
      "channel": 0,
      "note": 64,
      "start": 26.9944,
      "duration": 0.1811,
      "velocity": 89,
      "chip": "ym2612"
    },
    {
      "channel": 1,
      "note": 21,
      "start": 26.9965,
      "duration": 0.0899,
      "velocity": 127,
      "chip": "ym2612"
    },
    {
      "channel": 1,
      "note": 74,
      "start": 27.0865,
      "duration": 0.0912,
      "velocity": 119,
      "chip": "ym2612"
    },
    {
      "channel": 0,
      "note": 62,
      "start": 27.1757,
      "duration": 0.1808,
      "velocity": 89,
      "chip": "ym2612"
    },
    {
      "channel": 1,
      "note": 31,
      "start": 27.1778,
      "duration": 0.1809,
      "velocity": 127,
      "chip": "ym2612"
    },
    {
      "channel": 0,
      "note": 59,
      "start": 27.3567,
      "duration": 0.1811,
      "velocity": 89,
      "chip": "ym2612"
    },
    {
      "channel": 1,
      "note": 74,
      "start": 27.3588,
      "duration": 0.0884,
      "velocity": 127,
      "chip": "ym2612"
    },
    {
      "channel": 1,
      "note": 74,
      "start": 27.4474,
      "duration": 0.0926,
      "velocity": 127,
      "chip": "ym2612"
    },
    {
      "channel": 0,
      "note": 52,
      "start": 27.538,
      "duration": 0.1806,
      "velocity": 89,
      "chip": "ym2612"
    },
    {
      "channel": 1,
      "note": 21,
      "start": 27.5401,
      "duration": 0.1807,
      "velocity": 127,
      "chip": "ym2612"
    },
    {
      "channel": 0,
      "note": 64,
      "start": 27.7188,
      "duration": 0.181,
      "velocity": 89,
      "chip": "ym2612"
    },
    {
      "channel": 1,
      "note": 74,
      "start": 27.7209,
      "duration": 0.0886,
      "velocity": 127,
      "chip": "ym2612"
    },
    {
      "channel": 1,
      "note": 74,
      "start": 27.8097,
      "duration": 0.0923,
      "velocity": 119,
      "chip": "ym2612"
    },
    {
      "channel": 0,
      "note": 64,
      "start": 27.9,
      "duration": 0.1811,
      "velocity": 89,
      "chip": "ym2612"
    },
    {
      "channel": 1,
      "note": 31,
      "start": 27.9021,
      "duration": 0.0901,
      "velocity": 127,
      "chip": "ym2612"
    },
    {
      "channel": 1,
      "note": 74,
      "start": 27.9923,
      "duration": 0.091,
      "velocity": 127,
      "chip": "ym2612"
    },
    {
      "channel": 0,
      "note": 52,
      "start": 28.0813,
      "duration": 0.0902,
      "velocity": 89,
      "chip": "ym2612"
    },
    {
      "channel": 1,
      "note": 21,
      "start": 28.0834,
      "duration": 0.1803,
      "velocity": 127,
      "chip": "ym2612"
    },
    {
      "channel": 0,
      "note": 64,
      "start": 28.1717,
      "duration": 0.1811,
      "velocity": 89,
      "chip": "ym2612"
    },
    {
      "channel": 1,
      "note": 74,
      "start": 28.2639,
      "duration": 0.0895,
      "velocity": 127,
      "chip": "ym2612"
    },
    {
      "channel": 0,
      "note": 52,
      "start": 28.353,
      "duration": 0.0901,
      "velocity": 89,
      "chip": "ym2612"
    },
    {
      "channel": 1,
      "note": 74,
      "start": 28.3536,
      "duration": 0.0917,
      "velocity": 127,
      "chip": "ym2612"
    },
    {
      "channel": 0,
      "note": 64,
      "start": 28.4433,
      "duration": 0.1812,
      "velocity": 89,
      "chip": "ym2612"
    },
    {
      "channel": 1,
      "note": 21,
      "start": 28.4455,
      "duration": 0.09,
      "velocity": 127,
      "chip": "ym2612"
    },
    {
      "channel": 1,
      "note": 74,
      "start": 28.5356,
      "duration": 0.0911,
      "velocity": 119,
      "chip": "ym2612"
    },
    {
      "channel": 0,
      "note": 62,
      "start": 28.6247,
      "duration": 0.1814,
      "velocity": 89,
      "chip": "ym2612"
    },
    {
      "channel": 1,
      "note": 31,
      "start": 28.6268,
      "duration": 0.0899,
      "velocity": 127,
      "chip": "ym2612"
    },
    {
      "channel": 1,
      "note": 74,
      "start": 28.7169,
      "duration": 0.0898,
      "velocity": 127,
      "chip": "ym2612"
    },
    {
      "channel": 0,
      "note": 66,
      "start": 28.8063,
      "duration": 0.1811,
      "velocity": 89,
      "chip": "ym2612"
    },
    {
      "channel": 1,
      "note": 74,
      "start": 28.8068,
      "duration": 0.0899,
      "velocity": 127,
      "chip": "ym2612"
    },
    {
      "channel": 1,
      "note": 74,
      "start": 28.8968,
      "duration": 0.0927,
      "velocity": 127,
      "chip": "ym2612"
    },
    {
      "channel": 0,
      "note": 52,
      "start": 28.9875,
      "duration": 0.1805,
      "velocity": 89,
      "chip": "ym2612"
    },
    {
      "channel": 1,
      "note": 21,
      "start": 28.9897,
      "duration": 0.1804,
      "velocity": 127,
      "chip": "ym2612"
    },
    {
      "channel": 2,
      "note": 69,
      "start": 28.9903,
      "duration": 2.3541,
      "velocity": 102,
      "chip": "ym2612"
    },
    {
      "channel": 3,
      "note": 74,
      "start": 28.9909,
      "duration": 2.354,
      "velocity": 102,
      "chip": "ym2612"
    },
    {
      "channel": 0,
      "note": 64,
      "start": 29.1682,
      "duration": 0.1806,
      "velocity": 89,
      "chip": "ym2612"
    },
    {
      "channel": 1,
      "note": 74,
      "start": 29.1703,
      "duration": 0.0881,
      "velocity": 127,
      "chip": "ym2612"
    },
    {
      "channel": 1,
      "note": 74,
      "start": 29.2586,
      "duration": 0.0923,
      "velocity": 119,
      "chip": "ym2612"
    },
    {
      "channel": 0,
      "note": 64,
      "start": 29.349,
      "duration": 0.1808,
      "velocity": 89,
      "chip": "ym2612"
    },
    {
      "channel": 1,
      "note": 31,
      "start": 29.3511,
      "duration": 0.0899,
      "velocity": 127,
      "chip": "ym2612"
    },
    {
      "channel": 1,
      "note": 74,
      "start": 29.4411,
      "duration": 0.0893,
      "velocity": 127,
      "chip": "ym2612"
    },
    {
      "channel": 0,
      "note": 52,
      "start": 29.53,
      "duration": 0.0904,
      "velocity": 89,
      "chip": "ym2612"
    },
    {
      "channel": 1,
      "note": 74,
      "start": 29.5305,
      "duration": 0.1804,
      "velocity": 127,
      "chip": "ym2612"
    },
    {
      "channel": 0,
      "note": 64,
      "start": 29.6205,
      "duration": 0.1807,
      "velocity": 89,
      "chip": "ym2612"
    },
    {
      "channel": 1,
      "note": 74,
      "start": 29.7111,
      "duration": 0.0907,
      "velocity": 127,
      "chip": "ym2612"
    },
    {
      "channel": 0,
      "note": 52,
      "start": 29.8014,
      "duration": 0.0905,
      "velocity": 89,
      "chip": "ym2612"
    },
    {
      "channel": 1,
      "note": 74,
      "start": 29.8019,
      "duration": 0.0921,
      "velocity": 127,
      "chip": "ym2612"
    },
    {
      "channel": 0,
      "note": 64,
      "start": 29.8921,
      "duration": 0.1816,
      "velocity": 89,
      "chip": "ym2612"
    },
    {
      "channel": 1,
      "note": 21,
      "start": 29.8942,
      "duration": 0.0903,
      "velocity": 127,
      "chip": "ym2612"
    },
    {
      "channel": 1,
      "note": 74,
      "start": 29.9847,
      "duration": 0.0911,
      "velocity": 119,
      "chip": "ym2612"
    },
    {
      "channel": 0,
      "note": 62,
      "start": 30.0738,
      "duration": 0.1811,
      "velocity": 89,
      "chip": "ym2612"
    },
    {
      "channel": 1,
      "note": 31,
      "start": 30.076,
      "duration": 0.181,
      "velocity": 127,
      "chip": "ym2612"
    },
    {
      "channel": 0,
      "note": 59,
      "start": 30.2551,
      "duration": 0.1809,
      "velocity": 89,
      "chip": "ym2612"
    },
    {
      "channel": 1,
      "note": 74,
      "start": 30.2573,
      "duration": 0.0886,
      "velocity": 127,
      "chip": "ym2612"
    },
    {
      "channel": 1,
      "note": 74,
      "start": 30.346,
      "duration": 0.0922,
      "velocity": 127,
      "chip": "ym2612"
    },
    {
      "channel": 0,
      "note": 52,
      "start": 30.4362,
      "duration": 0.1805,
      "velocity": 89,
      "chip": "ym2612"
    },
    {
      "channel": 1,
      "note": 21,
      "start": 30.4383,
      "duration": 0.1806,
      "velocity": 127,
      "chip": "ym2612"
    },
    {
      "channel": 0,
      "note": 64,
      "start": 30.6169,
      "duration": 0.1807,
      "velocity": 89,
      "chip": "ym2612"
    },
    {
      "channel": 1,
      "note": 74,
      "start": 30.619,
      "duration": 0.0883,
      "velocity": 127,
      "chip": "ym2612"
    },
    {
      "channel": 1,
      "note": 74,
      "start": 30.7076,
      "duration": 0.0922,
      "velocity": 119,
      "chip": "ym2612"
    },
    {
      "channel": 0,
      "note": 64,
      "start": 30.7978,
      "duration": 0.181,
      "velocity": 89,
      "chip": "ym2612"
    },
    {
      "channel": 1,
      "note": 31,
      "start": 30.7999,
      "duration": 0.0899,
      "velocity": 127,
      "chip": "ym2612"
    },
    {
      "channel": 1,
      "note": 74,
      "start": 30.89,
      "duration": 0.091,
      "velocity": 127,
      "chip": "ym2612"
    },
    {
      "channel": 0,
      "note": 52,
      "start": 30.979,
      "duration": 0.0905,
      "velocity": 89,
      "chip": "ym2612"
    },
    {
      "channel": 1,
      "note": 21,
      "start": 30.9811,
      "duration": 0.0905,
      "velocity": 127,
      "chip": "ym2612"
    },
    {
      "channel": 0,
      "note": 64,
      "start": 31.0697,
      "duration": 0.1813,
      "velocity": 89,
      "chip": "ym2612"
    },
    {
      "channel": 1,
      "note": 74,
      "start": 31.0718,
      "duration": 0.0886,
      "velocity": 127,
      "chip": "ym2612"
    },
    {
      "channel": 1,
      "note": 74,
      "start": 31.1607,
      "duration": 0.1831,
      "velocity": 127,
      "chip": "ym2612"
    },
    {
      "channel": 0,
      "note": 52,
      "start": 31.2512,
      "duration": 0.0904,
      "velocity": 89,
      "chip": "ym2612"
    },
    {
      "channel": 0,
      "note": 64,
      "start": 31.3419,
      "duration": 0.1811,
      "velocity": 89,
      "chip": "ym2612"
    },
    {
      "channel": 1,
      "note": 21,
      "start": 31.344,
      "duration": 0.1812,
      "velocity": 119,
      "chip": "ym2612"
    },
    {
      "channel": 2,
      "note": 73,
      "start": 31.3445,
      "duration": 0.1812,
      "velocity": 102,
      "chip": "ym2612"
    },
    {
      "channel": 3,
      "note": 69,
      "start": 31.3451,
      "duration": 0.1812,
      "velocity": 102,
      "chip": "ym2612"
    },
    {
      "channel": 0,
      "note": 62,
      "start": 31.5232,
      "duration": 0.1812,
      "velocity": 89,
      "chip": "ym2612"
    },
    {
      "channel": 1,
      "note": 31,
      "start": 31.5253,
      "duration": 0.0903,
      "velocity": 127,
      "chip": "ym2612"
    },
    {
      "channel": 2,
      "note": 69,
      "start": 31.5259,
      "duration": 0.1796,
      "velocity": 102,
      "chip": "ym2612"
    },
    {
      "channel": 3,
      "note": 62,
      "start": 31.5264,
      "duration": 0.1796,
      "velocity": 102,
      "chip": "ym2612"
    },
    {
      "channel": 1,
      "note": 74,
      "start": 31.6157,
      "duration": 0.0893,
      "velocity": 127,
      "chip": "ym2612"
    },
    {
      "channel": 0,
      "note": 66,
      "start": 31.7046,
      "duration": 0.1806,
      "velocity": 89,
      "chip": "ym2612"
    },
    {
      "channel": 1,
      "note": 74,
      "start": 31.7051,
      "duration": 0.0898,
      "velocity": 127,
      "chip": "ym2612"
    },
    {
      "channel": 2,
      "note": 71,
      "start": 31.7057,
      "duration": 3.0812,
      "velocity": 115,
      "chip": "ym2612"
    },
    {
      "channel": 3,
      "note": 68,
      "start": 31.7063,
      "duration": 3.0813,
      "velocity": 102,
      "chip": "ym2612"
    },
    {
      "channel": 1,
      "note": 74,
      "start": 31.7951,
      "duration": 0.0923,
      "velocity": 127,
      "chip": "ym2612"
    },
    {
      "channel": 0,
      "note": 52,
      "start": 31.8854,
      "duration": 0.1808,
      "velocity": 89,
      "chip": "ym2612"
    },
    {
      "channel": 1,
      "note": 21,
      "start": 31.8876,
      "duration": 0.1808,
      "velocity": 127,
      "chip": "ym2612"
    },
    {
      "channel": 0,
      "note": 64,
      "start": 32.0664,
      "duration": 0.1811,
      "velocity": 89,
      "chip": "ym2612"
    },
    {
      "channel": 1,
      "note": 74,
      "start": 32.0685,
      "duration": 0.0882,
      "velocity": 127,
      "chip": "ym2612"
    },
    {
      "channel": 1,
      "note": 74,
      "start": 32.157,
      "duration": 0.0927,
      "velocity": 119,
      "chip": "ym2612"
    },
    {
      "channel": 0,
      "note": 64,
      "start": 32.2477,
      "duration": 0.1815,
      "velocity": 89,
      "chip": "ym2612"
    },
    {
      "channel": 1,
      "note": 31,
      "start": 32.2498,
      "duration": 0.0903,
      "velocity": 127,
      "chip": "ym2612"
    },
    {
      "channel": 1,
      "note": 74,
      "start": 32.3403,
      "duration": 0.0895,
      "velocity": 127,
      "chip": "ym2612"
    },
    {
      "channel": 0,
      "note": 52,
      "start": 32.4294,
      "duration": 0.0904,
      "velocity": 89,
      "chip": "ym2612"
    },
    {
      "channel": 1,
      "note": 74,
      "start": 32.4299,
      "duration": 0.1805,
      "velocity": 127,
      "chip": "ym2612"
    },
    {
      "channel": 0,
      "note": 64,
      "start": 32.52,
      "duration": 0.1806,
      "velocity": 89,
      "chip": "ym2612"
    },
    {
      "channel": 1,
      "note": 74,
      "start": 32.6105,
      "duration": 0.0907,
      "velocity": 127,
      "chip": "ym2612"
    },
    {
      "channel": 0,
      "note": 52,
      "start": 32.7009,
      "duration": 0.09,
      "velocity": 89,
      "chip": "ym2612"
    },
    {
      "channel": 1,
      "note": 74,
      "start": 32.7014,
      "duration": 0.0916,
      "velocity": 127,
      "chip": "ym2612"
    },
    {
      "channel": 0,
      "note": 64,
      "start": 32.791,
      "duration": 0.1806,
      "velocity": 89,
      "chip": "ym2612"
    },
    {
      "channel": 1,
      "note": 21,
      "start": 32.7931,
      "duration": 0.0899,
      "velocity": 127,
      "chip": "ym2612"
    },
    {
      "channel": 1,
      "note": 74,
      "start": 32.8832,
      "duration": 0.0907,
      "velocity": 119,
      "chip": "ym2612"
    },
    {
      "channel": 0,
      "note": 62,
      "start": 32.9719,
      "duration": 0.181,
      "velocity": 89,
      "chip": "ym2612"
    },
    {
      "channel": 1,
      "note": 31,
      "start": 32.974,
      "duration": 0.181,
      "velocity": 127,
      "chip": "ym2612"
    },
    {
      "channel": 0,
      "note": 59,
      "start": 33.153,
      "duration": 0.1807,
      "velocity": 89,
      "chip": "ym2612"
    },
    {
      "channel": 1,
      "note": 74,
      "start": 33.1551,
      "duration": 0.0881,
      "velocity": 127,
      "chip": "ym2612"
    },
    {
      "channel": 1,
      "note": 74,
      "start": 33.2435,
      "duration": 0.0924,
      "velocity": 127,
      "chip": "ym2612"
    },
    {
      "channel": 0,
      "note": 52,
      "start": 33.3339,
      "duration": 0.1807,
      "velocity": 89,
      "chip": "ym2612"
    },
    {
      "channel": 1,
      "note": 21,
      "start": 33.336,
      "duration": 0.1807,
      "velocity": 127,
      "chip": "ym2612"
    },
    {
      "channel": 0,
      "note": 64,
      "start": 33.5148,
      "duration": 0.1806,
      "velocity": 89,
      "chip": "ym2612"
    },
    {
      "channel": 1,
      "note": 74,
      "start": 33.5169,
      "duration": 0.0883,
      "velocity": 127,
      "chip": "ym2612"
    },
    {
      "channel": 1,
      "note": 74,
      "start": 33.6054,
      "duration": 0.0921,
      "velocity": 119,
      "chip": "ym2612"
    },
    {
      "channel": 0,
      "note": 64,
      "start": 33.6955,
      "duration": 0.1809,
      "velocity": 89,
      "chip": "ym2612"
    },
    {
      "channel": 1,
      "note": 31,
      "start": 33.6976,
      "duration": 0.0899,
      "velocity": 127,
      "chip": "ym2612"
    },
    {
      "channel": 1,
      "note": 74,
      "start": 33.7877,
      "duration": 0.0908,
      "velocity": 127,
      "chip": "ym2612"
    },
    {
      "channel": 0,
      "note": 52,
      "start": 33.8765,
      "duration": 0.0905,
      "velocity": 89,
      "chip": "ym2612"
    },
    {
      "channel": 1,
      "note": 21,
      "start": 33.8787,
      "duration": 0.1805,
      "velocity": 127,
      "chip": "ym2612"
    },
    {
      "channel": 0,
      "note": 64,
      "start": 33.9672,
      "duration": 0.1808,
      "velocity": 89,
      "chip": "ym2612"
    },
    {
      "channel": 1,
      "note": 74,
      "start": 34.0594,
      "duration": 0.0893,
      "velocity": 127,
      "chip": "ym2612"
    },
    {
      "channel": 0,
      "note": 52,
      "start": 34.1482,
      "duration": 0.0901,
      "velocity": 89,
      "chip": "ym2612"
    },
    {
      "channel": 1,
      "note": 74,
      "start": 34.1488,
      "duration": 0.0917,
      "velocity": 127,
      "chip": "ym2612"
    },
    {
      "channel": 0,
      "note": 64,
      "start": 34.2385,
      "duration": 0.1812,
      "velocity": 89,
      "chip": "ym2612"
    },
    {
      "channel": 1,
      "note": 21,
      "start": 34.2406,
      "duration": 0.0901,
      "velocity": 127,
      "chip": "ym2612"
    },
    {
      "channel": 1,
      "note": 74,
      "start": 34.3308,
      "duration": 0.091,
      "velocity": 119,
      "chip": "ym2612"
    },
    {
      "channel": 0,
      "note": 62,
      "start": 34.4199,
      "duration": 0.1813,
      "velocity": 89,
      "chip": "ym2612"
    },
    {
      "channel": 1,
      "note": 31,
      "start": 34.422,
      "duration": 0.09,
      "velocity": 127,
      "chip": "ym2612"
    },
    {
      "channel": 1,
      "note": 74,
      "start": 34.5122,
      "duration": 0.0895,
      "velocity": 127,
      "chip": "ym2612"
    },
    {
      "channel": 0,
      "note": 66,
      "start": 34.6013,
      "duration": 0.1813,
      "velocity": 89,
      "chip": "ym2612"
    },
    {
      "channel": 1,
      "note": 74,
      "start": 34.6019,
      "duration": 0.09,
      "velocity": 127,
      "chip": "ym2612"
    },
    {
      "channel": 1,
      "note": 74,
      "start": 34.6921,
      "duration": 0.0927,
      "velocity": 127,
      "chip": "ym2612"
    },
    {
      "channel": 0,
      "note": 45,
      "start": 34.7827,
      "duration": 0.1809,
      "velocity": 89,
      "chip": "ym2612"
    },
    {
      "channel": 1,
      "note": 21,
      "start": 34.7849,
      "duration": 0.1809,
      "velocity": 127,
      "chip": "ym2612"
    },
    {
      "channel": 2,
      "note": 79,
      "start": 34.7871,
      "duration": 0.0014,
      "velocity": 115,
      "chip": "ym2612"
    },
    {
      "channel": 3,
      "note": 69,
      "start": 34.7876,
      "duration": 0.5413,
      "velocity": 102,
      "chip": "ym2612"
    },
    {
      "channel": 2,
      "note": 78,
      "start": 34.7885,
      "duration": 0.0122,
      "velocity": 115,
      "chip": "ym2612"
    },
    {
      "channel": 2,
      "note": 77,
      "start": 34.8007,
      "duration": 0.0178,
      "velocity": 115,
      "chip": "ym2612"
    },
    {
      "channel": 2,
      "note": 76,
      "start": 34.8185,
      "duration": 0.0179,
      "velocity": 115,
      "chip": "ym2612"
    },
    {
      "channel": 2,
      "note": 75,
      "start": 34.8364,
      "duration": 0.0181,
      "velocity": 115,
      "chip": "ym2612"
    },
    {
      "channel": 2,
      "note": 74,
      "start": 34.8545,
      "duration": 0.0186,
      "velocity": 115,
      "chip": "ym2612"
    },
    {
      "channel": 2,
      "note": 79,
      "start": 34.8733,
      "duration": 0.0006,
      "velocity": 115,
      "chip": "ym2612"
    },
    {
      "channel": 2,
      "note": 78,
      "start": 34.8739,
      "duration": 0.0171,
      "velocity": 115,
      "chip": "ym2612"
    },
    {
      "channel": 2,
      "note": 77,
      "start": 34.891,
      "duration": 0.0181,
      "velocity": 115,
      "chip": "ym2612"
    },
    {
      "channel": 2,
      "note": 76,
      "start": 34.9092,
      "duration": 0.018,
      "velocity": 115,
      "chip": "ym2612"
    },
    {
      "channel": 2,
      "note": 75,
      "start": 34.9271,
      "duration": 0.0182,
      "velocity": 115,
      "chip": "ym2612"
    },
    {
      "channel": 2,
      "note": 74,
      "start": 34.9453,
      "duration": 0.0211,
      "velocity": 115,
      "chip": "ym2612"
    },
    {
      "channel": 0,
      "note": 57,
      "start": 34.9639,
      "duration": 0.3634,
      "velocity": 89,
      "chip": "ym2612"
    },
    {
      "channel": 1,
      "note": 74,
      "start": 34.966,
      "duration": 0.0891,
      "velocity": 127,
      "chip": "ym2612"
    },
    {
      "channel": 2,
      "note": 79,
      "start": 34.9666,
      "duration": 0.0005,
      "velocity": 115,
      "chip": "ym2612"
    },
    {
      "channel": 2,
      "note": 78,
      "start": 34.9671,
      "duration": 0.0149,
      "velocity": 115,
      "chip": "ym2612"
    },
    {
      "channel": 2,
      "note": 77,
      "start": 34.982,
      "duration": 0.0182,
      "velocity": 115,
      "chip": "ym2612"
    },
    {
      "channel": 2,
      "note": 76,
      "start": 35.0001,
      "duration": 0.0183,
      "velocity": 115,
      "chip": "ym2612"
    },
    {
      "channel": 2,
      "note": 75,
      "start": 35.0184,
      "duration": 0.0182,
      "velocity": 115,
      "chip": "ym2612"
    },
    {
      "channel": 2,
      "note": 74,
      "start": 35.0366,
      "duration": 0.0191,
      "velocity": 115,
      "chip": "ym2612"
    },
    {
      "channel": 1,
      "note": 74,
      "start": 35.0552,
      "duration": 0.0918,
      "velocity": 119,
      "chip": "ym2612"
    },
    {
      "channel": 2,
      "note": 79,
      "start": 35.0558,
      "duration": 0.0006,
      "velocity": 115,
      "chip": "ym2612"
    },
    {
      "channel": 2,
      "note": 78,
      "start": 35.0564,
      "duration": 0.0165,
      "velocity": 115,
      "chip": "ym2612"
    },
    {
      "channel": 2,
      "note": 77,
      "start": 35.0729,
      "duration": 0.018,
      "velocity": 115,
      "chip": "ym2612"
    },
    {
      "channel": 2,
      "note": 76,
      "start": 35.0909,
      "duration": 0.0179,
      "velocity": 115,
      "chip": "ym2612"
    },
    {
      "channel": 2,
      "note": 75,
      "start": 35.1088,
      "duration": 0.018,
      "velocity": 115,
      "chip": "ym2612"
    },
    {
      "channel": 2,
      "note": 74,
      "start": 35.1268,
      "duration": 0.021,
      "velocity": 115,
      "chip": "ym2612"
    },
    {
      "channel": 1,
      "note": 31,
      "start": 35.1472,
      "duration": 0.0909,
      "velocity": 127,
      "chip": "ym2612"
    },
    {
      "channel": 2,
      "note": 73,
      "start": 35.1478,
      "duration": 0.0157,
      "velocity": 115,
      "chip": "ym2612"
    },
    {
      "channel": 2,
      "note": 72,
      "start": 35.1636,
      "duration": 0.0181,
      "velocity": 115,
      "chip": "ym2612"
    },
    {
      "channel": 2,
      "note": 71,
      "start": 35.1817,
      "duration": 0.0181,
      "velocity": 115,
      "chip": "ym2612"
    },
    {
      "channel": 2,
      "note": 69,
      "start": 35.1998,
      "duration": 0.0182,
      "velocity": 115,
      "chip": "ym2612"
    },
    {
      "channel": 2,
      "note": 68,
      "start": 35.218,
      "duration": 0.021,
      "velocity": 115,
      "chip": "ym2612"
    },
    {
      "channel": 1,
      "note": 74,
      "start": 35.2383,
      "duration": 0.0895,
      "velocity": 127,
      "chip": "ym2612"
    },
    {
      "channel": 2,
      "note": 67,
      "start": 35.239,
      "duration": 0.0157,
      "velocity": 115,
      "chip": "ym2612"
    },
    {
      "channel": 2,
      "note": 66,
      "start": 35.2547,
      "duration": 0.0182,
      "velocity": 115,
      "chip": "ym2612"
    },
    {
      "channel": 2,
      "note": 65,
      "start": 35.2729,
      "duration": 0.0181,
      "velocity": 115,
      "chip": "ym2612"
    },
    {
      "channel": 2,
      "note": 64,
      "start": 35.291,
      "duration": 0.0178,
      "velocity": 115,
      "chip": "ym2612"
    },
    {
      "channel": 2,
      "note": 63,
      "start": 35.3088,
      "duration": 0.0196,
      "velocity": 115,
      "chip": "ym2612"
    },
    {
      "channel": 0,
      "note": 47,
      "start": 35.3274,
      "duration": 0.1806,
      "velocity": 89,
      "chip": "ym2612"
    },
    {
      "channel": 1,
      "note": 74,
      "start": 35.328,
      "duration": 0.1806,
      "velocity": 127,
      "chip": "ym2612"
    },
    {
      "channel": 2,
      "note": 76,
      "start": 35.3285,
      "duration": 0.0011,
      "velocity": 115,
      "chip": "ym2612"
    },
    {
      "channel": 3,
      "note": 67,
      "start": 35.3291,
      "duration": 0.5461,
      "velocity": 102,
      "chip": "ym2612"
    },
    {
      "channel": 2,
      "note": 75,
      "start": 35.3296,
      "duration": 0.0155,
      "velocity": 115,
      "chip": "ym2612"
    },
    {
      "channel": 2,
      "note": 74,
      "start": 35.3452,
      "duration": 0.0179,
      "velocity": 115,
      "chip": "ym2612"
    },
    {
      "channel": 2,
      "note": 73,
      "start": 35.3631,
      "duration": 0.018,
      "velocity": 115,
      "chip": "ym2612"
    },
    {
      "channel": 2,
      "note": 72,
      "start": 35.3811,
      "duration": 0.0179,
      "velocity": 115,
      "chip": "ym2612"
    },
    {
      "channel": 2,
      "note": 70,
      "start": 35.399,
      "duration": 0.0185,
      "velocity": 115,
      "chip": "ym2612"
    },
    {
      "channel": 2,
      "note": 76,
      "start": 35.4176,
      "duration": 0.0006,
      "velocity": 115,
      "chip": "ym2612"
    },
    {
      "channel": 2,
      "note": 75,
      "start": 35.4182,
      "duration": 0.017,
      "velocity": 115,
      "chip": "ym2612"
    },
    {
      "channel": 2,
      "note": 74,
      "start": 35.4352,
      "duration": 0.0181,
      "velocity": 115,
      "chip": "ym2612"
    },
    {
      "channel": 2,
      "note": 73,
      "start": 35.4533,
      "duration": 0.0182,
      "velocity": 115,
      "chip": "ym2612"
    },
    {
      "channel": 2,
      "note": 72,
      "start": 35.4715,
      "duration": 0.0181,
      "velocity": 115,
      "chip": "ym2612"
    },
    {
      "channel": 2,
      "note": 70,
      "start": 35.4896,
      "duration": 0.0195,
      "velocity": 115,
      "chip": "ym2612"
    },
    {
      "channel": 0,
      "note": 59,
      "start": 35.5082,
      "duration": 0.3637,
      "velocity": 89,
      "chip": "ym2612"
    },
    {
      "channel": 1,
      "note": 74,
      "start": 35.5087,
      "duration": 0.0901,
      "velocity": 127,
      "chip": "ym2612"
    },
    {
      "channel": 2,
      "note": 76,
      "start": 35.5093,
      "duration": 0.0006,
      "velocity": 115,
      "chip": "ym2612"
    },
    {
      "channel": 2,
      "note": 75,
      "start": 35.5098,
      "duration": 0.0159,
      "velocity": 115,
      "chip": "ym2612"
    },
    {
      "channel": 2,
      "note": 74,
      "start": 35.5257,
      "duration": 0.0181,
      "velocity": 115,
      "chip": "ym2612"
    },
    {
      "channel": 2,
      "note": 73,
      "start": 35.5438,
      "duration": 0.0183,
      "velocity": 115,
      "chip": "ym2612"
    },
    {
      "channel": 2,
      "note": 72,
      "start": 35.5621,
      "duration": 0.0182,
      "velocity": 115,
      "chip": "ym2612"
    },
    {
      "channel": 2,
      "note": 70,
      "start": 35.5802,
      "duration": 0.0191,
      "velocity": 115,
      "chip": "ym2612"
    },
    {
      "channel": 1,
      "note": 74,
      "start": 35.5989,
      "duration": 0.0922,
      "velocity": 127,
      "chip": "ym2612"
    },
    {
      "channel": 2,
      "note": 76,
      "start": 35.5995,
      "duration": 0.0006,
      "velocity": 115,
      "chip": "ym2612"
    },
    {
      "channel": 2,
      "note": 75,
      "start": 35.6001,
      "duration": 0.0165,
      "velocity": 115,
      "chip": "ym2612"
    },
    {
      "channel": 2,
      "note": 74,
      "start": 35.6165,
      "duration": 0.0181,
      "velocity": 115,
      "chip": "ym2612"
    },
    {
      "channel": 2,
      "note": 73,
      "start": 35.6346,
      "duration": 0.0183,
      "velocity": 115,
      "chip": "ym2612"
    },
    {
      "channel": 2,
      "note": 72,
      "start": 35.6529,
      "duration": 0.0182,
      "velocity": 115,
      "chip": "ym2612"
    },
    {
      "channel": 2,
      "note": 70,
      "start": 35.6711,
      "duration": 0.0209,
      "velocity": 115,
      "chip": "ym2612"
    },
    {
      "channel": 1,
      "note": 21,
      "start": 35.6913,
      "duration": 0.091,
      "velocity": 127,
      "chip": "ym2612"
    },
    {
      "channel": 2,
      "note": 69,
      "start": 35.692,
      "duration": 0.0157,
      "velocity": 115,
      "chip": "ym2612"
    },
    {
      "channel": 2,
      "note": 68,
      "start": 35.7077,
      "duration": 0.018,
      "velocity": 115,
      "chip": "ym2612"
    },
    {
      "channel": 2,
      "note": 67,
      "start": 35.7258,
      "duration": 0.0182,
      "velocity": 115,
      "chip": "ym2612"
    },
    {
      "channel": 2,
      "note": 66,
      "start": 35.744,
      "duration": 0.0183,
      "velocity": 115,
      "chip": "ym2612"
    },
    {
      "channel": 2,
      "note": 65,
      "start": 35.7623,
      "duration": 0.0208,
      "velocity": 115,
      "chip": "ym2612"
    },
    {
      "channel": 1,
      "note": 74,
      "start": 35.7824,
      "duration": 0.0917,
      "velocity": 119,
      "chip": "ym2612"
    },
    {
      "channel": 2,
      "note": 64,
      "start": 35.7831,
      "duration": 0.0158,
      "velocity": 115,
      "chip": "ym2612"
    },
    {
      "channel": 2,
      "note": 63,
      "start": 35.7989,
      "duration": 0.0181,
      "velocity": 115,
      "chip": "ym2612"
    },
    {
      "channel": 2,
      "note": 62,
      "start": 35.817,
      "duration": 0.0183,
      "velocity": 115,
      "chip": "ym2612"
    },
    {
      "channel": 2,
      "note": 61,
      "start": 35.8352,
      "duration": 0.0181,
      "velocity": 115,
      "chip": "ym2612"
    },
    {
      "channel": 2,
      "note": 60,
      "start": 35.8533,
      "duration": 0.0213,
      "velocity": 115,
      "chip": "ym2612"
    },
    {
      "channel": 0,
      "note": 48,
      "start": 35.8721,
      "duration": 0.1819,
      "velocity": 89,
      "chip": "ym2612"
    },
    {
      "channel": 1,
      "note": 31,
      "start": 35.8742,
      "duration": 0.182,
      "velocity": 127,
      "chip": "ym2612"
    },
    {
      "channel": 2,
      "note": 72,
      "start": 35.8748,
      "duration": 0.0011,
      "velocity": 115,
      "chip": "ym2612"
    },
    {
      "channel": 3,
      "note": 64,
      "start": 35.8754,
      "duration": 0.5449,
      "velocity": 102,
      "chip": "ym2612"
    },
    {
      "channel": 2,
      "note": 71,
      "start": 35.8759,
      "duration": 0.0144,
      "velocity": 115,
      "chip": "ym2612"
    },
    {
      "channel": 2,
      "note": 69,
      "start": 35.8902,
      "duration": 0.0183,
      "velocity": 115,
      "chip": "ym2612"
    },
    {
      "channel": 2,
      "note": 68,
      "start": 35.9085,
      "duration": 0.0181,
      "velocity": 115,
      "chip": "ym2612"
    },
    {
      "channel": 2,
      "note": 67,
      "start": 35.9266,
      "duration": 0.0182,
      "velocity": 115,
      "chip": "ym2612"
    },
    {
      "channel": 2,
      "note": 66,
      "start": 35.9448,
      "duration": 0.0186,
      "velocity": 115,
      "chip": "ym2612"
    },
    {
      "channel": 2,
      "note": 72,
      "start": 35.9637,
      "duration": 0.0006,
      "velocity": 115,
      "chip": "ym2612"
    },
    {
      "channel": 2,
      "note": 71,
      "start": 35.9642,
      "duration": 0.0168,
      "velocity": 115,
      "chip": "ym2612"
    },
    {
      "channel": 2,
      "note": 69,
      "start": 35.981,
      "duration": 0.0182,
      "velocity": 115,
      "chip": "ym2612"
    },
    {
      "channel": 2,
      "note": 68,
      "start": 35.9992,
      "duration": 0.018,
      "velocity": 115,
      "chip": "ym2612"
    },
    {
      "channel": 2,
      "note": 67,
      "start": 36.0172,
      "duration": 0.0182,
      "velocity": 115,
      "chip": "ym2612"
    },
    {
      "channel": 2,
      "note": 66,
      "start": 36.0354,
      "duration": 0.0213,
      "velocity": 115,
      "chip": "ym2612"
    },
    {
      "channel": 0,
      "note": 60,
      "start": 36.0542,
      "duration": 0.3627,
      "velocity": 89,
      "chip": "ym2612"
    },
    {
      "channel": 1,
      "note": 74,
      "start": 36.0563,
      "duration": 0.0882,
      "velocity": 127,
      "chip": "ym2612"
    },
    {
      "channel": 2,
      "note": 72,
      "start": 36.0569,
      "duration": 0.0006,
      "velocity": 115,
      "chip": "ym2612"
    },
    {
      "channel": 2,
      "note": 71,
      "start": 36.0575,
      "duration": 0.0147,
      "velocity": 115,
      "chip": "ym2612"
    },
    {
      "channel": 2,
      "note": 69,
      "start": 36.0722,
      "duration": 0.0181,
      "velocity": 115,
      "chip": "ym2612"
    },
    {
      "channel": 2,
      "note": 68,
      "start": 36.0903,
      "duration": 0.0178,
      "velocity": 115,
      "chip": "ym2612"
    },
    {
      "channel": 2,
      "note": 67,
      "start": 36.1081,
      "duration": 0.018,
      "velocity": 115,
      "chip": "ym2612"
    },
    {
      "channel": 2,
      "note": 66,
      "start": 36.1261,
      "duration": 0.0191,
      "velocity": 115,
      "chip": "ym2612"
    },
    {
      "channel": 1,
      "note": 74,
      "start": 36.1447,
      "duration": 0.0924,
      "velocity": 127,
      "chip": "ym2612"
    },
    {
      "channel": 2,
      "note": 72,
      "start": 36.1453,
      "duration": 0.0006,
      "velocity": 115,
      "chip": "ym2612"
    },
    {
      "channel": 2,
      "note": 71,
      "start": 36.1459,
      "duration": 0.0166,
      "velocity": 115,
      "chip": "ym2612"
    },
    {
      "channel": 2,
      "note": 69,
      "start": 36.1625,
      "duration": 0.0181,
      "velocity": 115,
      "chip": "ym2612"
    },
    {
      "channel": 2,
      "note": 68,
      "start": 36.1806,
      "duration": 0.0183,
      "velocity": 115,
      "chip": "ym2612"
    },
    {
      "channel": 2,
      "note": 67,
      "start": 36.1989,
      "duration": 0.0182,
      "velocity": 115,
      "chip": "ym2612"
    },
    {
      "channel": 2,
      "note": 66,
      "start": 36.2171,
      "duration": 0.0212,
      "velocity": 115,
      "chip": "ym2612"
    },
    {
      "channel": 1,
      "note": 21,
      "start": 36.2373,
      "duration": 0.1817,
      "velocity": 127,
      "chip": "ym2612"
    },
    {
      "channel": 2,
      "note": 65,
      "start": 36.2383,
      "duration": 0.0152,
      "velocity": 115,
      "chip": "ym2612"
    },
    {
      "channel": 2,
      "note": 64,
      "start": 36.2535,
      "duration": 0.018,
      "velocity": 115,
      "chip": "ym2612"
    },
    {
      "channel": 2,
      "note": 63,
      "start": 36.2715,
      "duration": 0.0183,
      "velocity": 115,
      "chip": "ym2612"
    },
    {
      "channel": 2,
      "note": 62,
      "start": 36.2897,
      "duration": 0.0181,
      "velocity": 115,
      "chip": "ym2612"
    },
    {
      "channel": 2,
      "note": 61,
      "start": 36.3078,
      "duration": 0.0363,
      "velocity": 115,
      "chip": "ym2612"
    },
    {
      "channel": 2,
      "note": 60,
      "start": 36.3441,
      "duration": 0.0182,
      "velocity": 115,
      "chip": "ym2612"
    },
    {
      "channel": 2,
      "note": 59,
      "start": 36.3623,
      "duration": 0.0181,
      "velocity": 115,
      "chip": "ym2612"
    },
    {
      "channel": 2,
      "note": 57,
      "start": 36.3804,
      "duration": 0.0181,
      "velocity": 115,
      "chip": "ym2612"
    },
    {
      "channel": 2,
      "note": 56,
      "start": 36.3985,
      "duration": 0.0211,
      "velocity": 115,
      "chip": "ym2612"
    },
    {
      "channel": 0,
      "note": 50,
      "start": 36.4171,
      "duration": 0.1815,
      "velocity": 89,
      "chip": "ym2612"
    },
    {
      "channel": 1,
      "note": 74,
      "start": 36.4193,
      "duration": 0.0891,
      "velocity": 127,
      "chip": "ym2612"
    },
    {
      "channel": 2,
      "note": 69,
      "start": 36.4198,
      "duration": 0.0011,
      "velocity": 115,
      "chip": "ym2612"
    },
    {
      "channel": 3,
      "note": 60,
      "start": 36.4204,
      "duration": 0.1815,
      "velocity": 102,
      "chip": "ym2612"
    },
    {
      "channel": 2,
      "note": 68,
      "start": 36.4209,
      "duration": 0.0142,
      "velocity": 115,
      "chip": "ym2612"
    },
    {
      "channel": 2,
      "note": 67,
      "start": 36.4351,
      "duration": 0.0183,
      "velocity": 115,
      "chip": "ym2612"
    },
    {
      "channel": 2,
      "note": 66,
      "start": 36.4535,
      "duration": 0.0181,
      "velocity": 115,
      "chip": "ym2612"
    },
    {
      "channel": 2,
      "note": 65,
      "start": 36.4716,
      "duration": 0.0183,
      "velocity": 115,
      "chip": "ym2612"
    },
    {
      "channel": 2,
      "note": 64,
      "start": 36.4898,
      "duration": 0.0191,
      "velocity": 115,
      "chip": "ym2612"
    },
    {
      "channel": 1,
      "note": 74,
      "start": 36.5085,
      "duration": 0.0922,
      "velocity": 119,
      "chip": "ym2612"
    },
    {
      "channel": 2,
      "note": 69,
      "start": 36.5091,
      "duration": 0.0006,
      "velocity": 115,
      "chip": "ym2612"
    },
    {
      "channel": 2,
      "note": 68,
      "start": 36.5097,
      "duration": 0.0164,
      "velocity": 115,
      "chip": "ym2612"
    },
    {
      "channel": 2,
      "note": 67,
      "start": 36.5261,
      "duration": 0.0178,
      "velocity": 115,
      "chip": "ym2612"
    },
    {
      "channel": 2,
      "note": 66,
      "start": 36.5439,
      "duration": 0.0182,
      "velocity": 115,
      "chip": "ym2612"
    },
    {
      "channel": 2,
      "note": 65,
      "start": 36.562,
      "duration": 0.0181,
      "velocity": 115,
      "chip": "ym2612"
    },
    {
      "channel": 2,
      "note": 64,
      "start": 36.5801,
      "duration": 0.0212,
      "velocity": 115,
      "chip": "ym2612"
    },
    {
      "channel": 0,
      "note": 62,
      "start": 36.5988,
      "duration": 0.363,
      "velocity": 89,
      "chip": "ym2612"
    },
    {
      "channel": 1,
      "note": 31,
      "start": 36.6009,
      "duration": 0.0904,
      "velocity": 127,
      "chip": "ym2612"
    },
    {
      "channel": 2,
      "note": 69,
      "start": 36.6015,
      "duration": 0.001,
      "velocity": 115,
      "chip": "ym2612"
    },
    {
      "channel": 3,
      "note": 62,
      "start": 36.602,
      "duration": 0.1802,
      "velocity": 102,
      "chip": "ym2612"
    },
    {
      "channel": 2,
      "note": 68,
      "start": 36.6025,
      "duration": 0.0142,
      "velocity": 115,
      "chip": "ym2612"
    },
    {
      "channel": 2,
      "note": 67,
      "start": 36.6168,
      "duration": 0.0182,
      "velocity": 115,
      "chip": "ym2612"
    },
    {
      "channel": 2,
      "note": 66,
      "start": 36.635,
      "duration": 0.0181,
      "velocity": 115,
      "chip": "ym2612"
    },
    {
      "channel": 2,
      "note": 65,
      "start": 36.6531,
      "duration": 0.018,
      "velocity": 115,
      "chip": "ym2612"
    },
    {
      "channel": 2,
      "note": 64,
      "start": 36.6711,
      "duration": 0.0207,
      "velocity": 115,
      "chip": "ym2612"
    },
    {
      "channel": 1,
      "note": 74,
      "start": 36.6914,
      "duration": 0.0901,
      "velocity": 127,
      "chip": "ym2612"
    },
    {
      "channel": 2,
      "note": 69,
      "start": 36.692,
      "duration": 0.0006,
      "velocity": 115,
      "chip": "ym2612"
    },
    {
      "channel": 2,
      "note": 68,
      "start": 36.6926,
      "duration": 0.015,
      "velocity": 115,
      "chip": "ym2612"
    },
    {
      "channel": 2,
      "note": 67,
      "start": 36.7076,
      "duration": 0.0179,
      "velocity": 115,
      "chip": "ym2612"
    },
    {
      "channel": 2,
      "note": 66,
      "start": 36.7255,
      "duration": 0.018,
      "velocity": 115,
      "chip": "ym2612"
    },
    {
      "channel": 2,
      "note": 65,
      "start": 36.7435,
      "duration": 0.0181,
      "velocity": 115,
      "chip": "ym2612"
    },
    {
      "channel": 2,
      "note": 64,
      "start": 36.7616,
      "duration": 0.0212,
      "velocity": 115,
      "chip": "ym2612"
    },
    {
      "channel": 1,
      "note": 21,
      "start": 36.7817,
      "duration": 0.0905,
      "velocity": 127,
      "chip": "ym2612"
    },
    {
      "channel": 3,
      "note": 74,
      "start": 36.7823,
      "duration": 0.911,
      "velocity": 102,
      "chip": "ym2612"
    },
    {
      "channel": 2,
      "note": 63,
      "start": 36.7828,
      "duration": 0.0149,
      "velocity": 115,
      "chip": "ym2612"
    },
    {
      "channel": 2,
      "note": 62,
      "start": 36.7978,
      "duration": 0.018,
      "velocity": 115,
      "chip": "ym2612"
    },
    {
      "channel": 2,
      "note": 61,
      "start": 36.8158,
      "duration": 0.0181,
      "velocity": 115,
      "chip": "ym2612"
    },
    {
      "channel": 2,
      "note": 60,
      "start": 36.8339,
      "duration": 0.0183,
      "velocity": 115,
      "chip": "ym2612"
    },
    {
      "channel": 2,
      "note": 58,
      "start": 36.8521,
      "duration": 0.0209,
      "velocity": 115,
      "chip": "ym2612"
    },
    {
      "channel": 1,
      "note": 74,
      "start": 36.8724,
      "duration": 0.0899,
      "velocity": 127,
      "chip": "ym2612"
    },
    {
      "channel": 2,
      "note": 57,
      "start": 36.873,
      "duration": 0.0157,
      "velocity": 115,
      "chip": "ym2612"
    },
    {
      "channel": 2,
      "note": 56,
      "start": 36.8887,
      "duration": 0.0182,
      "velocity": 115,
      "chip": "ym2612"
    },
    {
      "channel": 2,
      "note": 55,
      "start": 36.9069,
      "duration": 0.0181,
      "velocity": 115,
      "chip": "ym2612"
    },
    {
      "channel": 2,
      "note": 54,
      "start": 36.925,
      "duration": 0.0182,
      "velocity": 115,
      "chip": "ym2612"
    },
    {
      "channel": 2,
      "note": 53,
      "start": 36.9432,
      "duration": 0.0197,
      "velocity": 115,
      "chip": "ym2612"
    },
    {
      "channel": 0,
      "note": 62,
      "start": 36.962,
      "duration": 0.1808,
      "velocity": 89,
      "chip": "ym2612"
    },
    {
      "channel": 1,
      "note": 74,
      "start": 36.9624,
      "duration": 0.1824,
      "velocity": 127,
      "chip": "ym2612"
    },
    {
      "channel": 2,
      "note": 67,
      "start": 36.9631,
      "duration": 0.0006,
      "velocity": 115,
      "chip": "ym2612"
    },
    {
      "channel": 2,
      "note": 66,
      "start": 36.9637,
      "duration": 0.0161,
      "velocity": 115,
      "chip": "ym2612"
    },
    {
      "channel": 2,
      "note": 65,
      "start": 36.9798,
      "duration": 0.0182,
      "velocity": 115,
      "chip": "ym2612"
    },
    {
      "channel": 2,
      "note": 64,
      "start": 36.9979,
      "duration": 0.0181,
      "velocity": 115,
      "chip": "ym2612"
    },
    {
      "channel": 2,
      "note": 63,
      "start": 37.016,
      "duration": 0.0181,
      "velocity": 115,
      "chip": "ym2612"
    },
    {
      "channel": 2,
      "note": 62,
      "start": 37.0341,
      "duration": 0.0186,
      "velocity": 115,
      "chip": "ym2612"
    },
    {
      "channel": 2,
      "note": 67,
      "start": 37.0529,
      "duration": 0.0006,
      "velocity": 115,
      "chip": "ym2612"
    },
    {
      "channel": 2,
      "note": 66,
      "start": 37.0535,
      "duration": 0.0169,
      "velocity": 115,
      "chip": "ym2612"
    },
    {
      "channel": 2,
      "note": 65,
      "start": 37.0705,
      "duration": 0.0181,
      "velocity": 115,
      "chip": "ym2612"
    },
    {
      "channel": 2,
      "note": 64,
      "start": 37.0886,
      "duration": 0.0181,
      "velocity": 115,
      "chip": "ym2612"
    },
    {
      "channel": 2,
      "note": 63,
      "start": 37.1067,
      "duration": 0.0178,
      "velocity": 115,
      "chip": "ym2612"
    },
    {
      "channel": 2,
      "note": 62,
      "start": 37.1244,
      "duration": 0.021,
      "velocity": 115,
      "chip": "ym2612"
    },
    {
      "channel": 0,
      "note": 60,
      "start": 37.1429,
      "duration": 0.1812,
      "velocity": 89,
      "chip": "ym2612"
    },
    {
      "channel": 1,
      "note": 21,
      "start": 37.1451,
      "duration": 0.1812,
      "velocity": 119,
      "chip": "ym2612"
    },
    {
      "channel": 2,
      "note": 67,
      "start": 37.1456,
      "duration": 0.0009,
      "velocity": 115,
      "chip": "ym2612"
    },
    {
      "channel": 2,
      "note": 66,
      "start": 37.1465,
      "duration": 0.0144,
      "velocity": 115,
      "chip": "ym2612"
    },
    {
      "channel": 2,
      "note": 65,
      "start": 37.1609,
      "duration": 0.0181,
      "velocity": 115,
      "chip": "ym2612"
    },
    {
      "channel": 2,
      "note": 64,
      "start": 37.179,
      "duration": 0.0182,
      "velocity": 115,
      "chip": "ym2612"
    },
    {
      "channel": 2,
      "note": 63,
      "start": 37.1972,
      "duration": 0.0181,
      "velocity": 115,
      "chip": "ym2612"
    },
    {
      "channel": 2,
      "note": 62,
      "start": 37.2153,
      "duration": 0.0185,
      "velocity": 115,
      "chip": "ym2612"
    },
    {
      "channel": 2,
      "note": 67,
      "start": 37.2339,
      "duration": 0.0006,
      "velocity": 115,
      "chip": "ym2612"
    },
    {
      "channel": 2,
      "note": 66,
      "start": 37.2345,
      "duration": 0.0171,
      "velocity": 115,
      "chip": "ym2612"
    },
    {
      "channel": 2,
      "note": 65,
      "start": 37.2516,
      "duration": 0.0181,
      "velocity": 115,
      "chip": "ym2612"
    },
    {
      "channel": 2,
      "note": 64,
      "start": 37.2696,
      "duration": 0.0184,
      "velocity": 115,
      "chip": "ym2612"
    },
    {
      "channel": 2,
      "note": 63,
      "start": 37.288,
      "duration": 0.018,
      "velocity": 115,
      "chip": "ym2612"
    },
    {
      "channel": 2,
      "note": 62,
      "start": 37.306,
      "duration": 0.0209,
      "velocity": 115,
      "chip": "ym2612"
    },
    {
      "channel": 0,
      "note": 55,
      "start": 37.3243,
      "duration": 0.0909,
      "velocity": 89,
      "chip": "ym2612"
    },
    {
      "channel": 1,
      "note": 31,
      "start": 37.3265,
      "duration": 0.0908,
      "velocity": 127,
      "chip": "ym2612"
    },
    {
      "channel": 2,
      "note": 66,
      "start": 37.3271,
      "duration": 0.0006,
      "velocity": 115,
      "chip": "ym2612"
    },
    {
      "channel": 2,
      "note": 65,
      "start": 37.3276,
      "duration": 0.0148,
      "velocity": 115,
      "chip": "ym2612"
    },
    {
      "channel": 2,
      "note": 64,
      "start": 37.3424,
      "duration": 0.0182,
      "velocity": 115,
      "chip": "ym2612"
    },
    {
      "channel": 2,
      "note": 63,
      "start": 37.3606,
      "duration": 0.0182,
      "velocity": 115,
      "chip": "ym2612"
    },
    {
      "channel": 2,
      "note": 62,
      "start": 37.3788,
      "duration": 0.0179,
      "velocity": 115,
      "chip": "ym2612"
    },
    {
      "channel": 2,
      "note": 61,
      "start": 37.3967,
      "duration": 0.0212,
      "velocity": 115,
      "chip": "ym2612"
    },
    {
      "channel": 0,
      "note": 57,
      "start": 37.4153,
      "duration": 0.0907,
      "velocity": 89,
      "chip": "ym2612"
    },
    {
      "channel": 1,
      "note": 74,
      "start": 37.4175,
      "duration": 0.0891,
      "velocity": 127,
      "chip": "ym2612"
    },
    {
      "channel": 2,
      "note": 66,
      "start": 37.418,
      "duration": 0.0006,
      "velocity": 115,
      "chip": "ym2612"
    },
    {
      "channel": 2,
      "note": 65,
      "start": 37.4186,
      "duration": 0.0147,
      "velocity": 115,
      "chip": "ym2612"
    },
    {
      "channel": 2,
      "note": 64,
      "start": 37.4334,
      "duration": 0.0183,
      "velocity": 115,
      "chip": "ym2612"
    },
    {
      "channel": 2,
      "note": 63,
      "start": 37.4517,
      "duration": 0.018,
      "velocity": 115,
      "chip": "ym2612"
    },
    {
      "channel": 2,
      "note": 62,
      "start": 37.4696,
      "duration": 0.018,
      "velocity": 115,
      "chip": "ym2612"
    },
    {
      "channel": 2,
      "note": 61,
      "start": 37.4876,
      "duration": 0.0195,
      "velocity": 115,
      "chip": "ym2612"
    },
    {
      "channel": 0,
      "note": 60,
      "start": 37.5062,
      "duration": 0.0911,
      "velocity": 89,
      "chip": "ym2612"
    },
    {
      "channel": 1,
      "note": 74,
      "start": 37.5067,
      "duration": 0.0911,
      "velocity": 127,
      "chip": "ym2612"
    },
    {
      "channel": 2,
      "note": 66,
      "start": 37.5073,
      "duration": 0.0006,
      "velocity": 115,
      "chip": "ym2612"
    },
    {
      "channel": 2,
      "note": 65,
      "start": 37.5079,
      "duration": 0.0163,
      "velocity": 115,
      "chip": "ym2612"
    },
    {
      "channel": 2,
      "note": 64,
      "start": 37.5242,
      "duration": 0.0181,
      "velocity": 115,
      "chip": "ym2612"
    },
    {
      "channel": 2,
      "note": 63,
      "start": 37.5423,
      "duration": 0.0181,
      "velocity": 115,
      "chip": "ym2612"
    },
    {
      "channel": 2,
      "note": 62,
      "start": 37.5604,
      "duration": 0.0182,
      "velocity": 115,
      "chip": "ym2612"
    },
    {
      "channel": 2,
      "note": 61,
      "start": 37.5786,
      "duration": 0.0198,
      "velocity": 115,
      "chip": "ym2612"
    },
    {
      "channel": 0,
      "note": 62,
      "start": 37.5974,
      "duration": 0.091,
      "velocity": 89,
      "chip": "ym2612"
    },
    {
      "channel": 1,
      "note": 74,
      "start": 37.5979,
      "duration": 0.0926,
      "velocity": 127,
      "chip": "ym2612"
    },
    {
      "channel": 2,
      "note": 66,
      "start": 37.5986,
      "duration": 0.0006,
      "velocity": 115,
      "chip": "ym2612"
    },
    {
      "channel": 2,
      "note": 65,
      "start": 37.5992,
      "duration": 0.0161,
      "velocity": 115,
      "chip": "ym2612"
    },
    {
      "channel": 2,
      "note": 64,
      "start": 37.6152,
      "duration": 0.0182,
      "velocity": 115,
      "chip": "ym2612"
    },
    {
      "channel": 2,
      "note": 63,
      "start": 37.6334,
      "duration": 0.0182,
      "velocity": 115,
      "chip": "ym2612"
    },
    {
      "channel": 2,
      "note": 62,
      "start": 37.6516,
      "duration": 0.0183,
      "velocity": 115,
      "chip": "ym2612"
    },
    {
      "channel": 2,
      "note": 61,
      "start": 37.6699,
      "duration": 0.0228,
      "velocity": 102,
      "chip": "ym2612"
    },
    {
      "channel": 0,
      "note": 50,
      "start": 37.6886,
      "duration": 0.1809,
      "velocity": 89,
      "chip": "ym2612"
    },
    {
      "channel": 1,
      "note": 21,
      "start": 37.6907,
      "duration": 0.181,
      "velocity": 127,
      "chip": "ym2612"
    },
    {
      "channel": 2,
      "note": 66,
      "start": 37.6929,
      "duration": 1.4473,
      "velocity": 102,
      "chip": "ym2612"
    },
    {
      "channel": 3,
      "note": 57,
      "start": 37.6935,
      "duration": 1.4472,
      "velocity": 102,
      "chip": "ym2612"
    },
    {
      "channel": 0,
      "note": 62,
      "start": 37.8698,
      "duration": 0.1813,
      "velocity": 89,
      "chip": "ym2612"
    },
    {
      "channel": 1,
      "note": 74,
      "start": 37.8719,
      "duration": 0.0887,
      "velocity": 127,
      "chip": "ym2612"
    },
    {
      "channel": 1,
      "note": 74,
      "start": 37.9607,
      "duration": 0.0925,
      "velocity": 119,
      "chip": "ym2612"
    },
    {
      "channel": 0,
      "note": 62,
      "start": 38.0512,
      "duration": 0.1811,
      "velocity": 89,
      "chip": "ym2612"
    },
    {
      "channel": 1,
      "note": 31,
      "start": 38.0534,
      "duration": 0.09,
      "velocity": 127,
      "chip": "ym2612"
    },
    {
      "channel": 1,
      "note": 74,
      "start": 38.1435,
      "duration": 0.0895,
      "velocity": 127,
      "chip": "ym2612"
    },
    {
      "channel": 0,
      "note": 50,
      "start": 38.2326,
      "duration": 0.0904,
      "velocity": 89,
      "chip": "ym2612"
    },
    {
      "channel": 1,
      "note": 74,
      "start": 38.2331,
      "duration": 0.1804,
      "velocity": 127,
      "chip": "ym2612"
    },
    {
      "channel": 0,
      "note": 62,
      "start": 38.3231,
      "duration": 0.1811,
      "velocity": 89,
      "chip": "ym2612"
    },
    {
      "channel": 1,
      "note": 74,
      "start": 38.4137,
      "duration": 0.0911,
      "velocity": 127,
      "chip": "ym2612"
    },
    {
      "channel": 0,
      "note": 50,
      "start": 38.5044,
      "duration": 0.0902,
      "velocity": 89,
      "chip": "ym2612"
    },
    {
      "channel": 1,
      "note": 74,
      "start": 38.5049,
      "duration": 0.0918,
      "velocity": 127,
      "chip": "ym2612"
    },
    {
      "channel": 0,
      "note": 62,
      "start": 38.5948,
      "duration": 0.1804,
      "velocity": 89,
      "chip": "ym2612"
    },
    {
      "channel": 1,
      "note": 21,
      "start": 38.5969,
      "duration": 0.0896,
      "velocity": 127,
      "chip": "ym2612"
    },
    {
      "channel": 1,
      "note": 74,
      "start": 38.6867,
      "duration": 0.0907,
      "velocity": 119,
      "chip": "ym2612"
    },
    {
      "channel": 0,
      "note": 60,
      "start": 38.7754,
      "duration": 0.1807,
      "velocity": 89,
      "chip": "ym2612"
    },
    {
      "channel": 1,
      "note": 31,
      "start": 38.7775,
      "duration": 0.1808,
      "velocity": 127,
      "chip": "ym2612"
    },
    {
      "channel": 0,
      "note": 57,
      "start": 38.9563,
      "duration": 0.1811,
      "velocity": 89,
      "chip": "ym2612"
    },
    {
      "channel": 1,
      "note": 74,
      "start": 38.9584,
      "duration": 0.0883,
      "velocity": 127,
      "chip": "ym2612"
    },
    {
      "channel": 1,
      "note": 74,
      "start": 39.0469,
      "duration": 0.0927,
      "velocity": 127,
      "chip": "ym2612"
    },
    {
      "channel": 0,
      "note": 50,
      "start": 39.1376,
      "duration": 0.1811,
      "velocity": 89,
      "chip": "ym2612"
    },
    {
      "channel": 1,
      "note": 21,
      "start": 39.1398,
      "duration": 0.1811,
      "velocity": 127,
      "chip": "ym2612"
    },
    {
      "channel": 2,
      "note": 60,
      "start": 39.1403,
      "duration": 0.9065,
      "velocity": 102,
      "chip": "ym2612"
    },
    {
      "channel": 3,
      "note": 67,
      "start": 39.1409,
      "duration": 0.9065,
      "velocity": 102,
      "chip": "ym2612"
    },
    {
      "channel": 0,
      "note": 62,
      "start": 39.3189,
      "duration": 0.181,
      "velocity": 89,
      "chip": "ym2612"
    },
    {
      "channel": 1,
      "note": 74,
      "start": 39.321,
      "duration": 0.0885,
      "velocity": 127,
      "chip": "ym2612"
    },
    {
      "channel": 1,
      "note": 74,
      "start": 39.4098,
      "duration": 0.0923,
      "velocity": 119,
      "chip": "ym2612"
    },
    {
      "channel": 0,
      "note": 62,
      "start": 39.5001,
      "duration": 0.1815,
      "velocity": 89,
      "chip": "ym2612"
    },
    {
      "channel": 1,
      "note": 31,
      "start": 39.5022,
      "duration": 0.0903,
      "velocity": 127,
      "chip": "ym2612"
    },
    {
      "channel": 1,
      "note": 74,
      "start": 39.5926,
      "duration": 0.0911,
      "velocity": 127,
      "chip": "ym2612"
    },
    {
      "channel": 0,
      "note": 50,
      "start": 39.6818,
      "duration": 0.0904,
      "velocity": 89,
      "chip": "ym2612"
    },
    {
      "channel": 1,
      "note": 21,
      "start": 39.684,
      "duration": 0.0904,
      "velocity": 127,
      "chip": "ym2612"
    },
    {
      "channel": 0,
      "note": 62,
      "start": 39.7724,
      "duration": 0.1811,
      "velocity": 89,
      "chip": "ym2612"
    },
    {
      "channel": 1,
      "note": 74,
      "start": 39.7745,
      "duration": 0.0885,
      "velocity": 127,
      "chip": "ym2612"
    },
    {
      "channel": 1,
      "note": 74,
      "start": 39.8632,
      "duration": 0.183,
      "velocity": 127,
      "chip": "ym2612"
    },
    {
      "channel": 0,
      "note": 50,
      "start": 39.9537,
      "duration": 0.0905,
      "velocity": 89,
      "chip": "ym2612"
    },
    {
      "channel": 0,
      "note": 62,
      "start": 40.0443,
      "duration": 0.181,
      "velocity": 89,
      "chip": "ym2612"
    },
    {
      "channel": 1,
      "note": 21,
      "start": 40.0464,
      "duration": 0.181,
      "velocity": 119,
      "chip": "ym2612"
    },
    {
      "channel": 2,
      "note": 64,
      "start": 40.047,
      "duration": 0.181,
      "velocity": 102,
      "chip": "ym2612"
    },
    {
      "channel": 3,
      "note": 60,
      "start": 40.0476,
      "duration": 0.181,
      "velocity": 102,
      "chip": "ym2612"
    },
    {
      "channel": 0,
      "note": 60,
      "start": 40.2256,
      "duration": 0.1813,
      "velocity": 89,
      "chip": "ym2612"
    },
    {
      "channel": 1,
      "note": 31,
      "start": 40.2277,
      "duration": 0.0901,
      "velocity": 127,
      "chip": "ym2612"
    },
    {
      "channel": 2,
      "note": 67,
      "start": 40.2282,
      "duration": 0.1798,
      "velocity": 102,
      "chip": "ym2612"
    },
    {
      "channel": 3,
      "note": 64,
      "start": 40.2288,
      "duration": 0.1798,
      "velocity": 102,
      "chip": "ym2612"
    },
    {
      "channel": 1,
      "note": 74,
      "start": 40.3179,
      "duration": 0.0895,
      "velocity": 127,
      "chip": "ym2612"
    },
    {
      "channel": 0,
      "note": 64,
      "start": 40.4071,
      "duration": 0.1807,
      "velocity": 89,
      "chip": "ym2612"
    },
    {
      "channel": 1,
      "note": 74,
      "start": 40.4076,
      "duration": 0.0897,
      "velocity": 127,
      "chip": "ym2612"
    },
    {
      "channel": 2,
      "note": 71,
      "start": 40.4082,
      "duration": 0.3632,
      "velocity": 102,
      "chip": "ym2612"
    },
    {
      "channel": 3,
      "note": 67,
      "start": 40.4087,
      "duration": 0.3632,
      "velocity": 102,
      "chip": "ym2612"
    },
    {
      "channel": 1,
      "note": 74,
      "start": 40.4975,
      "duration": 0.0924,
      "velocity": 127,
      "chip": "ym2612"
    },
    {
      "channel": 0,
      "note": 50,
      "start": 40.588,
      "duration": 0.1807,
      "velocity": 89,
      "chip": "ym2612"
    },
    {
      "channel": 1,
      "note": 21,
      "start": 40.5901,
      "duration": 0.1807,
      "velocity": 127,
      "chip": "ym2612"
    },
    {
      "channel": 0,
      "note": 62,
      "start": 40.7689,
      "duration": 0.1814,
      "velocity": 89,
      "chip": "ym2612"
    },
    {
      "channel": 1,
      "note": 74,
      "start": 40.771,
      "duration": 0.0889,
      "velocity": 127,
      "chip": "ym2612"
    },
    {
      "channel": 2,
      "note": 72,
      "start": 40.7716,
      "duration": 0.1815,
      "velocity": 102,
      "chip": "ym2612"
    },
    {
      "channel": 3,
      "note": 69,
      "start": 40.7722,
      "duration": 0.1815,
      "velocity": 102,
      "chip": "ym2612"
    },
    {
      "channel": 1,
      "note": 74,
      "start": 40.8601,
      "duration": 0.0924,
      "velocity": 119,
      "chip": "ym2612"
    },
    {
      "channel": 0,
      "note": 62,
      "start": 40.9505,
      "duration": 0.1812,
      "velocity": 89,
      "chip": "ym2612"
    },
    {
      "channel": 1,
      "note": 31,
      "start": 40.9527,
      "duration": 0.0903,
      "velocity": 127,
      "chip": "ym2612"
    },
    {
      "channel": 2,
      "note": 71,
      "start": 40.9532,
      "duration": 0.1796,
      "velocity": 102,
      "chip": "ym2612"
    },
    {
      "channel": 3,
      "note": 67,
      "start": 40.9538,
      "duration": 0.1796,
      "velocity": 102,
      "chip": "ym2612"
    },
    {
      "channel": 1,
      "note": 74,
      "start": 41.043,
      "duration": 0.0893,
      "velocity": 127,
      "chip": "ym2612"
    },
    {
      "channel": 0,
      "note": 50,
      "start": 41.1319,
      "duration": 0.0902,
      "velocity": 89,
      "chip": "ym2612"
    },
    {
      "channel": 1,
      "note": 74,
      "start": 41.1325,
      "duration": 0.1804,
      "velocity": 127,
      "chip": "ym2612"
    },
    {
      "channel": 2,
      "note": 67,
      "start": 41.133,
      "duration": 0.1804,
      "velocity": 102,
      "chip": "ym2612"
    },
    {
      "channel": 3,
      "note": 64,
      "start": 41.1336,
      "duration": 0.1804,
      "velocity": 102,
      "chip": "ym2612"
    },
    {
      "channel": 0,
      "note": 62,
      "start": 41.2224,
      "duration": 0.181,
      "velocity": 89,
      "chip": "ym2612"
    },
    {
      "channel": 1,
      "note": 74,
      "start": 41.313,
      "duration": 0.091,
      "velocity": 127,
      "chip": "ym2612"
    },
    {
      "channel": 2,
      "note": 64,
      "start": 41.3136,
      "duration": 1.6333,
      "velocity": 102,
      "chip": "ym2612"
    },
    {
      "channel": 3,
      "note": 60,
      "start": 41.3141,
      "duration": 1.6333,
      "velocity": 102,
      "chip": "ym2612"
    },
    {
      "channel": 0,
      "note": 50,
      "start": 41.4036,
      "duration": 0.0904,
      "velocity": 89,
      "chip": "ym2612"
    },
    {
      "channel": 1,
      "note": 74,
      "start": 41.4041,
      "duration": 0.092,
      "velocity": 127,
      "chip": "ym2612"
    },
    {
      "channel": 0,
      "note": 62,
      "start": 41.4941,
      "duration": 0.1814,
      "velocity": 89,
      "chip": "ym2612"
    },
    {
      "channel": 1,
      "note": 21,
      "start": 41.4963,
      "duration": 0.0903,
      "velocity": 127,
      "chip": "ym2612"
    },
    {
      "channel": 1,
      "note": 74,
      "start": 41.5867,
      "duration": 0.091,
      "velocity": 119,
      "chip": "ym2612"
    },
    {
      "channel": 0,
      "note": 60,
      "start": 41.6758,
      "duration": 0.1807,
      "velocity": 89,
      "chip": "ym2612"
    },
    {
      "channel": 1,
      "note": 31,
      "start": 41.6779,
      "duration": 0.1807,
      "velocity": 127,
      "chip": "ym2612"
    },
    {
      "channel": 0,
      "note": 57,
      "start": 41.8566,
      "duration": 0.1815,
      "velocity": 89,
      "chip": "ym2612"
    },
    {
      "channel": 1,
      "note": 74,
      "start": 41.8588,
      "duration": 0.0886,
      "velocity": 127,
      "chip": "ym2612"
    },
    {
      "channel": 1,
      "note": 74,
      "start": 41.9476,
      "duration": 0.0927,
      "velocity": 127,
      "chip": "ym2612"
    },
    {
      "channel": 0,
      "note": 50,
      "start": 42.0384,
      "duration": 0.1807,
      "velocity": 89,
      "chip": "ym2612"
    },
    {
      "channel": 1,
      "note": 21,
      "start": 42.0405,
      "duration": 0.1808,
      "velocity": 127,
      "chip": "ym2612"
    },
    {
      "channel": 0,
      "note": 62,
      "start": 42.2193,
      "duration": 0.1808,
      "velocity": 89,
      "chip": "ym2612"
    },
    {
      "channel": 1,
      "note": 74,
      "start": 42.2214,
      "duration": 0.0884,
      "velocity": 127,
      "chip": "ym2612"
    },
    {
      "channel": 1,
      "note": 74,
      "start": 42.31,
      "duration": 0.0922,
      "velocity": 119,
      "chip": "ym2612"
    },
    {
      "channel": 0,
      "note": 62,
      "start": 42.4003,
      "duration": 0.1812,
      "velocity": 89,
      "chip": "ym2612"
    },
    {
      "channel": 1,
      "note": 31,
      "start": 42.4024,
      "duration": 0.09,
      "velocity": 127,
      "chip": "ym2612"
    },
    {
      "channel": 1,
      "note": 74,
      "start": 42.4926,
      "duration": 0.0911,
      "velocity": 127,
      "chip": "ym2612"
    },
    {
      "channel": 0,
      "note": 50,
      "start": 42.5817,
      "duration": 0.0905,
      "velocity": 89,
      "chip": "ym2612"
    },
    {
      "channel": 1,
      "note": 21,
      "start": 42.5839,
      "duration": 0.1807,
      "velocity": 127,
      "chip": "ym2612"
    },
    {
      "channel": 0,
      "note": 62,
      "start": 42.6725,
      "duration": 0.1812,
      "velocity": 89,
      "chip": "ym2612"
    },
    {
      "channel": 1,
      "note": 74,
      "start": 42.7647,
      "duration": 0.0895,
      "velocity": 127,
      "chip": "ym2612"
    },
    {
      "channel": 0,
      "note": 50,
      "start": 42.8539,
      "duration": 0.0903,
      "velocity": 89,
      "chip": "ym2612"
    },
    {
      "channel": 1,
      "note": 74,
      "start": 42.8544,
      "duration": 0.0919,
      "velocity": 127,
      "chip": "ym2612"
    },
    {
      "channel": 0,
      "note": 62,
      "start": 42.9444,
      "duration": 0.1815,
      "velocity": 89,
      "chip": "ym2612"
    },
    {
      "channel": 1,
      "note": 21,
      "start": 42.9465,
      "duration": 0.0902,
      "velocity": 127,
      "chip": "ym2612"
    },
    {
      "channel": 2,
      "note": 62,
      "start": 42.9471,
      "duration": 0.1815,
      "velocity": 102,
      "chip": "ym2612"
    },
    {
      "channel": 3,
      "note": 57,
      "start": 42.9476,
      "duration": 0.1815,
      "velocity": 102,
      "chip": "ym2612"
    },
    {
      "channel": 1,
      "note": 74,
      "start": 43.0369,
      "duration": 0.0912,
      "velocity": 119,
      "chip": "ym2612"
    },
    {
      "channel": 0,
      "note": 60,
      "start": 43.1261,
      "duration": 0.1813,
      "velocity": 89,
      "chip": "ym2612"
    },
    {
      "channel": 1,
      "note": 31,
      "start": 43.1282,
      "duration": 0.0903,
      "velocity": 127,
      "chip": "ym2612"
    },
    {
      "channel": 2,
      "note": 60,
      "start": 43.1287,
      "duration": 0.1798,
      "velocity": 102,
      "chip": "ym2612"
    },
    {
      "channel": 3,
      "note": 55,
      "start": 43.1293,
      "duration": 0.1798,
      "velocity": 102,
      "chip": "ym2612"
    },
    {
      "channel": 1,
      "note": 74,
      "start": 43.2185,
      "duration": 0.0894,
      "velocity": 127,
      "chip": "ym2612"
    },
    {
      "channel": 0,
      "note": 64,
      "start": 43.3075,
      "duration": 0.181,
      "velocity": 89,
      "chip": "ym2612"
    },
    {
      "channel": 1,
      "note": 74,
      "start": 43.3081,
      "duration": 0.0903,
      "velocity": 127,
      "chip": "ym2612"
    },
    {
      "channel": 2,
      "note": 62,
      "start": 43.3086,
      "duration": 0.1827,
      "velocity": 102,
      "chip": "ym2612"
    },
    {
      "channel": 3,
      "note": 57,
      "start": 43.3092,
      "duration": 0.1828,
      "velocity": 102,
      "chip": "ym2612"
    },
    {
      "channel": 1,
      "note": 74,
      "start": 43.3985,
      "duration": 0.0922,
      "velocity": 127,
      "chip": "ym2612"
    },
    {
      "channel": 0,
      "note": 50,
      "start": 43.4888,
      "duration": 0.1809,
      "velocity": 89,
      "chip": "ym2612"
    },
    {
      "channel": 1,
      "note": 21,
      "start": 43.4909,
      "duration": 0.1809,
      "velocity": 127,
      "chip": "ym2612"
    },
    {
      "channel": 2,
      "note": 66,
      "start": 43.4915,
      "duration": 1.4495,
      "velocity": 102,
      "chip": "ym2612"
    },
    {
      "channel": 3,
      "note": 57,
      "start": 43.4921,
      "duration": 1.4495,
      "velocity": 102,
      "chip": "ym2612"
    },
    {
      "channel": 0,
      "note": 62,
      "start": 43.6698,
      "duration": 0.1809,
      "velocity": 89,
      "chip": "ym2612"
    },
    {
      "channel": 1,
      "note": 74,
      "start": 43.6719,
      "duration": 0.0885,
      "velocity": 127,
      "chip": "ym2612"
    },
    {
      "channel": 1,
      "note": 74,
      "start": 43.7605,
      "duration": 0.0923,
      "velocity": 119,
      "chip": "ym2612"
    },
    {
      "channel": 0,
      "note": 62,
      "start": 43.8508,
      "duration": 0.1811,
      "velocity": 89,
      "chip": "ym2612"
    },
    {
      "channel": 1,
      "note": 31,
      "start": 43.853,
      "duration": 0.09,
      "velocity": 127,
      "chip": "ym2612"
    },
    {
      "channel": 1,
      "note": 74,
      "start": 43.9431,
      "duration": 0.0895,
      "velocity": 127,
      "chip": "ym2612"
    },
    {
      "channel": 0,
      "note": 50,
      "start": 44.0322,
      "duration": 0.0904,
      "velocity": 89,
      "chip": "ym2612"
    },
    {
      "channel": 1,
      "note": 74,
      "start": 44.0327,
      "duration": 0.1804,
      "velocity": 127,
      "chip": "ym2612"
    },
    {
      "channel": 0,
      "note": 62,
      "start": 44.1227,
      "duration": 0.181,
      "velocity": 89,
      "chip": "ym2612"
    },
    {
      "channel": 1,
      "note": 74,
      "start": 44.2133,
      "duration": 0.091,
      "velocity": 127,
      "chip": "ym2612"
    },
    {
      "channel": 0,
      "note": 50,
      "start": 44.3039,
      "duration": 0.0906,
      "velocity": 89,
      "chip": "ym2612"
    },
    {
      "channel": 1,
      "note": 74,
      "start": 44.3044,
      "duration": 0.0921,
      "velocity": 127,
      "chip": "ym2612"
    },
    {
      "channel": 0,
      "note": 62,
      "start": 44.3946,
      "duration": 0.1812,
      "velocity": 89,
      "chip": "ym2612"
    },
    {
      "channel": 1,
      "note": 21,
      "start": 44.3968,
      "duration": 0.0903,
      "velocity": 127,
      "chip": "ym2612"
    },
    {
      "channel": 1,
      "note": 74,
      "start": 44.4872,
      "duration": 0.0908,
      "velocity": 119,
      "chip": "ym2612"
    },
    {
      "channel": 0,
      "note": 60,
      "start": 44.5761,
      "duration": 0.1809,
      "velocity": 89,
      "chip": "ym2612"
    },
    {
      "channel": 1,
      "note": 31,
      "start": 44.5782,
      "duration": 0.181,
      "velocity": 127,
      "chip": "ym2612"
    },
    {
      "channel": 0,
      "note": 57,
      "start": 44.7572,
      "duration": 0.1812,
      "velocity": 89,
      "chip": "ym2612"
    },
    {
      "channel": 1,
      "note": 74,
      "start": 44.7593,
      "duration": 0.0886,
      "velocity": 127,
      "chip": "ym2612"
    },
    {
      "channel": 1,
      "note": 74,
      "start": 44.848,
      "duration": 0.0924,
      "velocity": 127,
      "chip": "ym2612"
    },
    {
      "channel": 0,
      "note": 50,
      "start": 44.9386,
      "duration": 0.1809,
      "velocity": 89,
      "chip": "ym2612"
    },
    {
      "channel": 1,
      "note": 21,
      "start": 44.9407,
      "duration": 0.1809,
      "velocity": 127,
      "chip": "ym2612"
    },
    {
      "channel": 2,
      "note": 60,
      "start": 44.9412,
      "duration": 0.9061,
      "velocity": 102,
      "chip": "ym2612"
    },
    {
      "channel": 3,
      "note": 67,
      "start": 44.9418,
      "duration": 0.9061,
      "velocity": 102,
      "chip": "ym2612"
    },
    {
      "channel": 0,
      "note": 62,
      "start": 45.1196,
      "duration": 0.1808,
      "velocity": 89,
      "chip": "ym2612"
    },
    {
      "channel": 1,
      "note": 74,
      "start": 45.1217,
      "duration": 0.0883,
      "velocity": 127,
      "chip": "ym2612"
    },
    {
      "channel": 1,
      "note": 74,
      "start": 45.2103,
      "duration": 0.0923,
      "velocity": 119,
      "chip": "ym2612"
    },
    {
      "channel": 0,
      "note": 62,
      "start": 45.3006,
      "duration": 0.1815,
      "velocity": 89,
      "chip": "ym2612"
    },
    {
      "channel": 1,
      "note": 31,
      "start": 45.3027,
      "duration": 0.0903,
      "velocity": 127,
      "chip": "ym2612"
    },
    {
      "channel": 1,
      "note": 74,
      "start": 45.3931,
      "duration": 0.0911,
      "velocity": 127,
      "chip": "ym2612"
    },
    {
      "channel": 0,
      "note": 50,
      "start": 45.4823,
      "duration": 0.0904,
      "velocity": 89,
      "chip": "ym2612"
    },
    {
      "channel": 1,
      "note": 21,
      "start": 45.4845,
      "duration": 0.0904,
      "velocity": 127,
      "chip": "ym2612"
    },
    {
      "channel": 0,
      "note": 62,
      "start": 45.5729,
      "duration": 0.1811,
      "velocity": 89,
      "chip": "ym2612"
    },
    {
      "channel": 1,
      "note": 74,
      "start": 45.575,
      "duration": 0.0885,
      "velocity": 127,
      "chip": "ym2612"
    },
    {
      "channel": 1,
      "note": 74,
      "start": 45.6637,
      "duration": 0.183,
      "velocity": 127,
      "chip": "ym2612"
    },
    {
      "channel": 0,
      "note": 50,
      "start": 45.7541,
      "duration": 0.0905,
      "velocity": 89,
      "chip": "ym2612"
    },
    {
      "channel": 0,
      "note": 62,
      "start": 45.8448,
      "duration": 0.1811,
      "velocity": 89,
      "chip": "ym2612"
    },
    {
      "channel": 1,
      "note": 21,
      "start": 45.8469,
      "duration": 0.1811,
      "velocity": 119,
      "chip": "ym2612"
    },
    {
      "channel": 2,
      "note": 64,
      "start": 45.8475,
      "duration": 0.1812,
      "velocity": 102,
      "chip": "ym2612"
    },
    {
      "channel": 3,
      "note": 60,
      "start": 45.8481,
      "duration": 0.1812,
      "velocity": 102,
      "chip": "ym2612"
    },
    {
      "channel": 0,
      "note": 60,
      "start": 46.0262,
      "duration": 0.1812,
      "velocity": 89,
      "chip": "ym2612"
    },
    {
      "channel": 1,
      "note": 31,
      "start": 46.0283,
      "duration": 0.0901,
      "velocity": 127,
      "chip": "ym2612"
    },
    {
      "channel": 2,
      "note": 67,
      "start": 46.0288,
      "duration": 0.1796,
      "velocity": 102,
      "chip": "ym2612"
    },
    {
      "channel": 3,
      "note": 64,
      "start": 46.0294,
      "duration": 0.1796,
      "velocity": 102,
      "chip": "ym2612"
    },
    {
      "channel": 1,
      "note": 74,
      "start": 46.1185,
      "duration": 0.0894,
      "velocity": 127,
      "chip": "ym2612"
    },
    {
      "channel": 0,
      "note": 64,
      "start": 46.2075,
      "duration": 0.1807,
      "velocity": 89,
      "chip": "ym2612"
    },
    {
      "channel": 1,
      "note": 74,
      "start": 46.2081,
      "duration": 0.0897,
      "velocity": 127,
      "chip": "ym2612"
    },
    {
      "channel": 2,
      "note": 71,
      "start": 46.2086,
      "duration": 0.3632,
      "velocity": 102,
      "chip": "ym2612"
    },
    {
      "channel": 3,
      "note": 67,
      "start": 46.2092,
      "duration": 0.3632,
      "velocity": 102,
      "chip": "ym2612"
    },
    {
      "channel": 1,
      "note": 74,
      "start": 46.298,
      "duration": 0.0924,
      "velocity": 127,
      "chip": "ym2612"
    },
    {
      "channel": 0,
      "note": 50,
      "start": 46.3884,
      "duration": 0.1807,
      "velocity": 89,
      "chip": "ym2612"
    },
    {
      "channel": 1,
      "note": 21,
      "start": 46.3905,
      "duration": 0.1807,
      "velocity": 127,
      "chip": "ym2612"
    },
    {
      "channel": 0,
      "note": 62,
      "start": 46.5694,
      "duration": 0.1814,
      "velocity": 89,
      "chip": "ym2612"
    },
    {
      "channel": 1,
      "note": 74,
      "start": 46.5715,
      "duration": 0.0889,
      "velocity": 127,
      "chip": "ym2612"
    },
    {
      "channel": 2,
      "note": 72,
      "start": 46.572,
      "duration": 0.1815,
      "velocity": 102,
      "chip": "ym2612"
    },
    {
      "channel": 3,
      "note": 69,
      "start": 46.5726,
      "duration": 0.1815,
      "velocity": 102,
      "chip": "ym2612"
    },
    {
      "channel": 1,
      "note": 74,
      "start": 46.6606,
      "duration": 0.0924,
      "velocity": 119,
      "chip": "ym2612"
    },
    {
      "channel": 0,
      "note": 62,
      "start": 46.751,
      "duration": 0.181,
      "velocity": 89,
      "chip": "ym2612"
    },
    {
      "channel": 1,
      "note": 31,
      "start": 46.7531,
      "duration": 0.0901,
      "velocity": 127,
      "chip": "ym2612"
    },
    {
      "channel": 2,
      "note": 71,
      "start": 46.7537,
      "duration": 0.1795,
      "velocity": 102,
      "chip": "ym2612"
    },
    {
      "channel": 3,
      "note": 67,
      "start": 46.7542,
      "duration": 0.1794,
      "velocity": 102,
      "chip": "ym2612"
    },
    {
      "channel": 1,
      "note": 74,
      "start": 46.8433,
      "duration": 0.0893,
      "velocity": 127,
      "chip": "ym2612"
    },
    {
      "channel": 0,
      "note": 50,
      "start": 46.9322,
      "duration": 0.0902,
      "velocity": 89,
      "chip": "ym2612"
    },
    {
      "channel": 1,
      "note": 74,
      "start": 46.9327,
      "duration": 0.1804,
      "velocity": 127,
      "chip": "ym2612"
    },
    {
      "channel": 2,
      "note": 67,
      "start": 46.9333,
      "duration": 0.1804,
      "velocity": 102,
      "chip": "ym2612"
    },
    {
      "channel": 3,
      "note": 64,
      "start": 46.9338,
      "duration": 0.1804,
      "velocity": 102,
      "chip": "ym2612"
    },
    {
      "channel": 0,
      "note": 62,
      "start": 47.0226,
      "duration": 0.1809,
      "velocity": 89,
      "chip": "ym2612"
    },
    {
      "channel": 1,
      "note": 74,
      "start": 47.1133,
      "duration": 0.0909,
      "velocity": 127,
      "chip": "ym2612"
    },
    {
      "channel": 2,
      "note": 64,
      "start": 47.1138,
      "duration": 1.633,
      "velocity": 102,
      "chip": "ym2612"
    },
    {
      "channel": 3,
      "note": 60,
      "start": 47.1144,
      "duration": 1.633,
      "velocity": 102,
      "chip": "ym2612"
    },
    {
      "channel": 0,
      "note": 50,
      "start": 47.2038,
      "duration": 0.0904,
      "velocity": 89,
      "chip": "ym2612"
    },
    {
      "channel": 1,
      "note": 74,
      "start": 47.2043,
      "duration": 0.092,
      "velocity": 127,
      "chip": "ym2612"
    },
    {
      "channel": 0,
      "note": 62,
      "start": 47.2943,
      "duration": 0.1816,
      "velocity": 89,
      "chip": "ym2612"
    },
    {
      "channel": 1,
      "note": 21,
      "start": 47.2964,
      "duration": 0.0903,
      "velocity": 127,
      "chip": "ym2612"
    },
    {
      "channel": 1,
      "note": 74,
      "start": 47.387,
      "duration": 0.0911,
      "velocity": 119,
      "chip": "ym2612"
    },
    {
      "channel": 0,
      "note": 60,
      "start": 47.4761,
      "duration": 0.1807,
      "velocity": 89,
      "chip": "ym2612"
    },
    {
      "channel": 1,
      "note": 31,
      "start": 47.4783,
      "duration": 0.1807,
      "velocity": 127,
      "chip": "ym2612"
    },
    {
      "channel": 0,
      "note": 57,
      "start": 47.6569,
      "duration": 0.1814,
      "velocity": 89,
      "chip": "ym2612"
    },
    {
      "channel": 1,
      "note": 74,
      "start": 47.659,
      "duration": 0.0885,
      "velocity": 127,
      "chip": "ym2612"
    },
    {
      "channel": 1,
      "note": 74,
      "start": 47.7477,
      "duration": 0.0927,
      "velocity": 127,
      "chip": "ym2612"
    },
    {
      "channel": 0,
      "note": 50,
      "start": 47.8385,
      "duration": 0.1807,
      "velocity": 89,
      "chip": "ym2612"
    },
    {
      "channel": 1,
      "note": 21,
      "start": 47.8406,
      "duration": 0.1808,
      "velocity": 127,
      "chip": "ym2612"
    },
    {
      "channel": 0,
      "note": 62,
      "start": 48.0194,
      "duration": 0.1811,
      "velocity": 89,
      "chip": "ym2612"
    },
    {
      "channel": 1,
      "note": 74,
      "start": 48.0215,
      "duration": 0.0884,
      "velocity": 127,
      "chip": "ym2612"
    },
    {
      "channel": 1,
      "note": 74,
      "start": 48.1101,
      "duration": 0.0925,
      "velocity": 119,
      "chip": "ym2612"
    },
    {
      "channel": 0,
      "note": 62,
      "start": 48.2007,
      "duration": 0.1812,
      "velocity": 89,
      "chip": "ym2612"
    },
    {
      "channel": 1,
      "note": 31,
      "start": 48.2028,
      "duration": 0.09,
      "velocity": 127,
      "chip": "ym2612"
    },
    {
      "channel": 1,
      "note": 74,
      "start": 48.293,
      "duration": 0.0911,
      "velocity": 127,
      "chip": "ym2612"
    },
    {
      "channel": 0,
      "note": 50,
      "start": 48.3821,
      "duration": 0.0906,
      "velocity": 89,
      "chip": "ym2612"
    },
    {
      "channel": 1,
      "note": 21,
      "start": 48.3842,
      "duration": 0.1805,
      "velocity": 127,
      "chip": "ym2612"
    },
    {
      "channel": 0,
      "note": 62,
      "start": 48.4729,
      "duration": 0.1807,
      "velocity": 89,
      "chip": "ym2612"
    },
    {
      "channel": 1,
      "note": 74,
      "start": 48.5648,
      "duration": 0.0894,
      "velocity": 127,
      "chip": "ym2612"
    },
    {
      "channel": 0,
      "note": 50,
      "start": 48.6539,
      "duration": 0.0903,
      "velocity": 89,
      "chip": "ym2612"
    },
    {
      "channel": 1,
      "note": 74,
      "start": 48.6544,
      "duration": 0.092,
      "velocity": 127,
      "chip": "ym2612"
    },
    {
      "channel": 0,
      "note": 62,
      "start": 48.7443,
      "duration": 0.1813,
      "velocity": 89,
      "chip": "ym2612"
    },
    {
      "channel": 1,
      "note": 21,
      "start": 48.7464,
      "duration": 0.0901,
      "velocity": 127,
      "chip": "ym2612"
    },
    {
      "channel": 2,
      "note": 62,
      "start": 48.747,
      "duration": 0.1813,
      "velocity": 102,
      "chip": "ym2612"
    },
    {
      "channel": 3,
      "note": 57,
      "start": 48.7476,
      "duration": 0.1813,
      "velocity": 102,
      "chip": "ym2612"
    },
    {
      "channel": 1,
      "note": 74,
      "start": 48.8366,
      "duration": 0.0912,
      "velocity": 119,
      "chip": "ym2612"
    },
    {
      "channel": 0,
      "note": 60,
      "start": 48.9259,
      "duration": 0.1812,
      "velocity": 89,
      "chip": "ym2612"
    },
    {
      "channel": 1,
      "note": 31,
      "start": 48.928,
      "duration": 0.0903,
      "velocity": 127,
      "chip": "ym2612"
    },
    {
      "channel": 2,
      "note": 60,
      "start": 48.9285,
      "duration": 0.1796,
      "velocity": 102,
      "chip": "ym2612"
    },
    {
      "channel": 3,
      "note": 55,
      "start": 48.9291,
      "duration": 0.1796,
      "velocity": 102,
      "chip": "ym2612"
    },
    {
      "channel": 1,
      "note": 74,
      "start": 49.0183,
      "duration": 0.0893,
      "velocity": 127,
      "chip": "ym2612"
    },
    {
      "channel": 0,
      "note": 64,
      "start": 49.1072,
      "duration": 0.1813,
      "velocity": 89,
      "chip": "ym2612"
    },
    {
      "channel": 1,
      "note": 74,
      "start": 49.1077,
      "duration": 0.0902,
      "velocity": 127,
      "chip": "ym2612"
    },
    {
      "channel": 2,
      "note": 62,
      "start": 49.1083,
      "duration": 1.6336,
      "velocity": 97,
      "chip": "ym2612"
    },
    {
      "channel": 3,
      "note": 57,
      "start": 49.1089,
      "duration": 5.9857,
      "velocity": 102,
      "chip": "ym2612"
    },
    {
      "channel": 1,
      "note": 74,
      "start": 49.1981,
      "duration": 0.0925,
      "velocity": 127,
      "chip": "ym2612"
    },
    {
      "channel": 0,
      "note": 50,
      "start": 49.2886,
      "duration": 0.1808,
      "velocity": 89,
      "chip": "ym2612"
    },
    {
      "channel": 1,
      "note": 21,
      "start": 49.2908,
      "duration": 0.1808,
      "velocity": 127,
      "chip": "ym2612"
    },
    {
      "channel": 0,
      "note": 62,
      "start": 49.4696,
      "duration": 0.1807,
      "velocity": 89,
      "chip": "ym2612"
    },
    {
      "channel": 1,
      "note": 74,
      "start": 49.4717,
      "duration": 0.0883,
      "velocity": 127,
      "chip": "ym2612"
    },
    {
      "channel": 1,
      "note": 74,
      "start": 49.5602,
      "duration": 0.0923,
      "velocity": 119,
      "chip": "ym2612"
    },
    {
      "channel": 0,
      "note": 62,
      "start": 49.6505,
      "duration": 0.1811,
      "velocity": 89,
      "chip": "ym2612"
    },
    {
      "channel": 1,
      "note": 31,
      "start": 49.6527,
      "duration": 0.09,
      "velocity": 127,
      "chip": "ym2612"
    },
    {
      "channel": 1,
      "note": 74,
      "start": 49.7428,
      "duration": 0.0893,
      "velocity": 127,
      "chip": "ym2612"
    },
    {
      "channel": 0,
      "note": 50,
      "start": 49.8317,
      "duration": 0.0905,
      "velocity": 89,
      "chip": "ym2612"
    },
    {
      "channel": 1,
      "note": 74,
      "start": 49.8323,
      "duration": 0.1803,
      "velocity": 127,
      "chip": "ym2612"
    },
    {
      "channel": 0,
      "note": 62,
      "start": 49.9224,
      "duration": 0.1807,
      "velocity": 89,
      "chip": "ym2612"
    },
    {
      "channel": 1,
      "note": 74,
      "start": 50.0128,
      "duration": 0.0908,
      "velocity": 127,
      "chip": "ym2612"
    },
    {
      "channel": 0,
      "note": 50,
      "start": 50.1032,
      "duration": 0.0903,
      "velocity": 89,
      "chip": "ym2612"
    },
    {
      "channel": 1,
      "note": 74,
      "start": 50.1038,
      "duration": 0.0919,
      "velocity": 127,
      "chip": "ym2612"
    },
    {
      "channel": 0,
      "note": 62,
      "start": 50.1937,
      "duration": 0.1812,
      "velocity": 89,
      "chip": "ym2612"
    },
    {
      "channel": 1,
      "note": 21,
      "start": 50.1959,
      "duration": 0.0902,
      "velocity": 127,
      "chip": "ym2612"
    },
    {
      "channel": 1,
      "note": 74,
      "start": 50.2862,
      "duration": 0.0909,
      "velocity": 119,
      "chip": "ym2612"
    },
    {
      "channel": 0,
      "note": 60,
      "start": 50.3751,
      "duration": 0.181,
      "velocity": 89,
      "chip": "ym2612"
    },
    {
      "channel": 1,
      "note": 31,
      "start": 50.3772,
      "duration": 0.181,
      "velocity": 127,
      "chip": "ym2612"
    },
    {
      "channel": 0,
      "note": 57,
      "start": 50.5563,
      "duration": 0.1813,
      "velocity": 89,
      "chip": "ym2612"
    },
    {
      "channel": 1,
      "note": 74,
      "start": 50.5585,
      "duration": 0.0885,
      "velocity": 127,
      "chip": "ym2612"
    },
    {
      "channel": 1,
      "note": 74,
      "start": 50.6472,
      "duration": 0.0926,
      "velocity": 127,
      "chip": "ym2612"
    },
    {
      "channel": 0,
      "note": 50,
      "start": 50.7378,
      "duration": 0.181,
      "velocity": 89,
      "chip": "ym2612"
    },
    {
      "channel": 1,
      "note": 21,
      "start": 50.7399,
      "duration": 0.181,
      "velocity": 127,
      "chip": "ym2612"
    },
    {
      "channel": 2,
      "note": 48,
      "start": 50.7421,
      "duration": 0.0865,
      "velocity": 97,
      "chip": "ym2612"
    },
    {
      "channel": 2,
      "note": 50,
      "start": 50.8287,
      "duration": 0.0928,
      "velocity": 97,
      "chip": "ym2612"
    },
    {
      "channel": 0,
      "note": 62,
      "start": 50.919,
      "duration": 0.181,
      "velocity": 89,
      "chip": "ym2612"
    },
    {
      "channel": 1,
      "note": 74,
      "start": 50.9212,
      "duration": 0.0884,
      "velocity": 127,
      "chip": "ym2612"
    },
    {
      "channel": 2,
      "note": 62,
      "start": 50.9217,
      "duration": 0.1809,
      "velocity": 97,
      "chip": "ym2612"
    },
    {
      "channel": 1,
      "note": 74,
      "start": 51.0098,
      "duration": 0.0923,
      "velocity": 119,
      "chip": "ym2612"
    },
    {
      "channel": 0,
      "note": 62,
      "start": 51.1001,
      "duration": 0.1812,
      "velocity": 89,
      "chip": "ym2612"
    },
    {
      "channel": 1,
      "note": 31,
      "start": 51.1023,
      "duration": 0.0901,
      "velocity": 127,
      "chip": "ym2612"
    },
    {
      "channel": 2,
      "note": 62,
      "start": 51.1028,
      "duration": 0.0901,
      "velocity": 97,
      "chip": "ym2612"
    },
    {
      "channel": 1,
      "note": 74,
      "start": 51.1925,
      "duration": 0.091,
      "velocity": 127,
      "chip": "ym2612"
    },
    {
      "channel": 2,
      "note": 50,
      "start": 51.1931,
      "duration": 0.1815,
      "velocity": 97,
      "chip": "ym2612"
    },
    {
      "channel": 0,
      "note": 50,
      "start": 51.2815,
      "duration": 0.0904,
      "velocity": 89,
      "chip": "ym2612"
    },
    {
      "channel": 1,
      "note": 21,
      "start": 51.2837,
      "duration": 0.0904,
      "velocity": 127,
      "chip": "ym2612"
    },
    {
      "channel": 0,
      "note": 62,
      "start": 51.3721,
      "duration": 0.181,
      "velocity": 89,
      "chip": "ym2612"
    },
    {
      "channel": 1,
      "note": 74,
      "start": 51.3742,
      "duration": 0.0887,
      "velocity": 127,
      "chip": "ym2612"
    },
    {
      "channel": 2,
      "note": 48,
      "start": 51.3748,
      "duration": 0.179,
      "velocity": 97,
      "chip": "ym2612"
    },
    {
      "channel": 1,
      "note": 74,
      "start": 51.4631,
      "duration": 0.1829,
      "velocity": 127,
      "chip": "ym2612"
    },
    {
      "channel": 0,
      "note": 50,
      "start": 51.5533,
      "duration": 0.0906,
      "velocity": 89,
      "chip": "ym2612"
    },
    {
      "channel": 2,
      "note": 50,
      "start": 51.5539,
      "duration": 0.0927,
      "velocity": 97,
      "chip": "ym2612"
    },
    {
      "channel": 0,
      "note": 62,
      "start": 51.6441,
      "duration": 0.1807,
      "velocity": 89,
      "chip": "ym2612"
    },
    {
      "channel": 1,
      "note": 21,
      "start": 51.6462,
      "duration": 0.1807,
      "velocity": 119,
      "chip": "ym2612"
    },
    {
      "channel": 2,
      "note": 62,
      "start": 51.6468,
      "duration": 0.0879,
      "velocity": 97,
      "chip": "ym2612"
    },
    {
      "channel": 2,
      "note": 50,
      "start": 51.7349,
      "duration": 0.0927,
      "velocity": 97,
      "chip": "ym2612"
    },
    {
      "channel": 0,
      "note": 60,
      "start": 51.825,
      "duration": 0.1812,
      "velocity": 89,
      "chip": "ym2612"
    },
    {
      "channel": 1,
      "note": 31,
      "start": 51.8271,
      "duration": 0.0903,
      "velocity": 127,
      "chip": "ym2612"
    },
    {
      "channel": 2,
      "note": 62,
      "start": 51.8277,
      "duration": 0.0902,
      "velocity": 97,
      "chip": "ym2612"
    },
    {
      "channel": 1,
      "note": 74,
      "start": 51.9176,
      "duration": 0.0893,
      "velocity": 127,
      "chip": "ym2612"
    },
    {
      "channel": 2,
      "note": 50,
      "start": 51.9181,
      "duration": 0.0892,
      "velocity": 97,
      "chip": "ym2612"
    },
    {
      "channel": 0,
      "note": 64,
      "start": 52.0064,
      "duration": 0.1806,
      "velocity": 89,
      "chip": "ym2612"
    },
    {
      "channel": 1,
      "note": 74,
      "start": 52.007,
      "duration": 0.0899,
      "velocity": 127,
      "chip": "ym2612"
    },
    {
      "channel": 2,
      "note": 48,
      "start": 52.0076,
      "duration": 0.0898,
      "velocity": 97,
      "chip": "ym2612"
    },
    {
      "channel": 1,
      "note": 74,
      "start": 52.097,
      "duration": 0.0921,
      "velocity": 127,
      "chip": "ym2612"
    },
    {
      "channel": 2,
      "note": 45,
      "start": 52.0976,
      "duration": 0.0922,
      "velocity": 97,
      "chip": "ym2612"
    },
    {
      "channel": 0,
      "note": 50,
      "start": 52.1872,
      "duration": 0.1814,
      "velocity": 89,
      "chip": "ym2612"
    },
    {
      "channel": 1,
      "note": 21,
      "start": 52.1893,
      "duration": 0.1814,
      "velocity": 127,
      "chip": "ym2612"
    },
    {
      "channel": 2,
      "note": 48,
      "start": 52.1898,
      "duration": 0.0881,
      "velocity": 97,
      "chip": "ym2612"
    },
    {
      "channel": 2,
      "note": 50,
      "start": 52.2781,
      "duration": 0.0931,
      "velocity": 97,
      "chip": "ym2612"
    },
    {
      "channel": 0,
      "note": 62,
      "start": 52.3687,
      "duration": 0.181,
      "velocity": 89,
      "chip": "ym2612"
    },
    {
      "channel": 1,
      "note": 74,
      "start": 52.3708,
      "duration": 0.0884,
      "velocity": 127,
      "chip": "ym2612"
    },
    {
      "channel": 2,
      "note": 62,
      "start": 52.3714,
      "duration": 0.181,
      "velocity": 97,
      "chip": "ym2612"
    },
    {
      "channel": 1,
      "note": 74,
      "start": 52.4594,
      "duration": 0.0924,
      "velocity": 119,
      "chip": "ym2612"
    },
    {
      "channel": 0,
      "note": 62,
      "start": 52.5499,
      "duration": 0.1813,
      "velocity": 89,
      "chip": "ym2612"
    },
    {
      "channel": 1,
      "note": 31,
      "start": 52.552,
      "duration": 0.0902,
      "velocity": 127,
      "chip": "ym2612"
    },
    {
      "channel": 2,
      "note": 62,
      "start": 52.5526,
      "duration": 0.0902,
      "velocity": 97,
      "chip": "ym2612"
    },
    {
      "channel": 1,
      "note": 74,
      "start": 52.6424,
      "duration": 0.0894,
      "velocity": 127,
      "chip": "ym2612"
    },
    {
      "channel": 2,
      "note": 50,
      "start": 52.643,
      "duration": 0.1795,
      "velocity": 97,
      "chip": "ym2612"
    },
    {
      "channel": 0,
      "note": 50,
      "start": 52.7314,
      "duration": 0.0905,
      "velocity": 89,
      "chip": "ym2612"
    },
    {
      "channel": 1,
      "note": 74,
      "start": 52.732,
      "duration": 0.1804,
      "velocity": 127,
      "chip": "ym2612"
    },
    {
      "channel": 0,
      "note": 62,
      "start": 52.822,
      "duration": 0.1808,
      "velocity": 89,
      "chip": "ym2612"
    },
    {
      "channel": 2,
      "note": 48,
      "start": 52.8227,
      "duration": 0.1813,
      "velocity": 97,
      "chip": "ym2612"
    },
    {
      "channel": 1,
      "note": 74,
      "start": 52.9126,
      "duration": 0.0908,
      "velocity": 127,
      "chip": "ym2612"
    },
    {
      "channel": 0,
      "note": 50,
      "start": 53.003,
      "duration": 0.0904,
      "velocity": 89,
      "chip": "ym2612"
    },
    {
      "channel": 1,
      "note": 74,
      "start": 53.0036,
      "duration": 0.0919,
      "velocity": 127,
      "chip": "ym2612"
    },
    {
      "channel": 2,
      "note": 50,
      "start": 53.0041,
      "duration": 0.092,
      "velocity": 97,
      "chip": "ym2612"
    },
    {
      "channel": 0,
      "note": 62,
      "start": 53.0936,
      "duration": 0.1811,
      "velocity": 89,
      "chip": "ym2612"
    },
    {
      "channel": 1,
      "note": 21,
      "start": 53.0957,
      "duration": 0.0897,
      "velocity": 127,
      "chip": "ym2612"
    },
    {
      "channel": 2,
      "note": 62,
      "start": 53.0963,
      "duration": 0.0897,
      "velocity": 97,
      "chip": "ym2612"
    },
    {
      "channel": 1,
      "note": 74,
      "start": 53.1855,
      "duration": 0.0912,
      "velocity": 119,
      "chip": "ym2612"
    },
    {
      "channel": 2,
      "note": 50,
      "start": 53.1861,
      "duration": 0.0912,
      "velocity": 97,
      "chip": "ym2612"
    },
    {
      "channel": 0,
      "note": 60,
      "start": 53.2749,
      "duration": 0.181,
      "velocity": 89,
      "chip": "ym2612"
    },
    {
      "channel": 1,
      "note": 31,
      "start": 53.277,
      "duration": 0.181,
      "velocity": 127,
      "chip": "ym2612"
    },
    {
      "channel": 2,
      "note": 62,
      "start": 53.2776,
      "duration": 0.0879,
      "velocity": 97,
      "chip": "ym2612"
    },
    {
      "channel": 2,
      "note": 50,
      "start": 53.3657,
      "duration": 0.0929,
      "velocity": 97,
      "chip": "ym2612"
    },
    {
      "channel": 0,
      "note": 57,
      "start": 53.456,
      "duration": 0.1813,
      "velocity": 89,
      "chip": "ym2612"
    },
    {
      "channel": 1,
      "note": 74,
      "start": 53.4582,
      "duration": 0.0885,
      "velocity": 127,
      "chip": "ym2612"
    },
    {
      "channel": 2,
      "note": 48,
      "start": 53.4587,
      "duration": 0.0886,
      "velocity": 97,
      "chip": "ym2612"
    },
    {
      "channel": 1,
      "note": 74,
      "start": 53.5469,
      "duration": 0.0925,
      "velocity": 127,
      "chip": "ym2612"
    },
    {
      "channel": 2,
      "note": 45,
      "start": 53.5475,
      "duration": 0.0941,
      "velocity": 115,
      "chip": "ym2612"
    },
    {
      "channel": 0,
      "note": 50,
      "start": 53.6375,
      "duration": 0.1811,
      "velocity": 89,
      "chip": "ym2612"
    },
    {
      "channel": 1,
      "note": 21,
      "start": 53.6396,
      "duration": 0.1811,
      "velocity": 127,
      "chip": "ym2612"
    },
    {
      "channel": 2,
      "note": 79,
      "start": 53.6418,
      "duration": 0.0009,
      "velocity": 115,
      "chip": "ym2612"
    },
    {
      "channel": 2,
      "note": 78,
      "start": 53.6427,
      "duration": 0.0129,
      "velocity": 115,
      "chip": "ym2612"
    },
    {
      "channel": 2,
      "note": 77,
      "start": 53.6556,
      "duration": 0.0182,
      "velocity": 115,
      "chip": "ym2612"
    },
    {
      "channel": 2,
      "note": 76,
      "start": 53.6738,
      "duration": 0.0179,
      "velocity": 115,
      "chip": "ym2612"
    },
    {
      "channel": 2,
      "note": 75,
      "start": 53.6917,
      "duration": 0.0181,
      "velocity": 115,
      "chip": "ym2612"
    },
    {
      "channel": 2,
      "note": 74,
      "start": 53.7099,
      "duration": 0.0186,
      "velocity": 115,
      "chip": "ym2612"
    },
    {
      "channel": 2,
      "note": 79,
      "start": 53.7286,
      "duration": 0.0006,
      "velocity": 115,
      "chip": "ym2612"
    },
    {
      "channel": 2,
      "note": 78,
      "start": 53.7292,
      "duration": 0.0169,
      "velocity": 115,
      "chip": "ym2612"
    },
    {
      "channel": 2,
      "note": 77,
      "start": 53.7461,
      "duration": 0.0179,
      "velocity": 115,
      "chip": "ym2612"
    },
    {
      "channel": 2,
      "note": 76,
      "start": 53.764,
      "duration": 0.018,
      "velocity": 115,
      "chip": "ym2612"
    },
    {
      "channel": 2,
      "note": 75,
      "start": 53.782,
      "duration": 0.0183,
      "velocity": 115,
      "chip": "ym2612"
    },
    {
      "channel": 2,
      "note": 74,
      "start": 53.8003,
      "duration": 0.0211,
      "velocity": 115,
      "chip": "ym2612"
    },
    {
      "channel": 0,
      "note": 62,
      "start": 53.8188,
      "duration": 0.1812,
      "velocity": 89,
      "chip": "ym2612"
    },
    {
      "channel": 1,
      "note": 74,
      "start": 53.821,
      "duration": 0.0885,
      "velocity": 127,
      "chip": "ym2612"
    },
    {
      "channel": 2,
      "note": 79,
      "start": 53.8215,
      "duration": 0.0006,
      "velocity": 115,
      "chip": "ym2612"
    },
    {
      "channel": 2,
      "note": 78,
      "start": 53.8221,
      "duration": 0.0147,
      "velocity": 115,
      "chip": "ym2612"
    },
    {
      "channel": 2,
      "note": 77,
      "start": 53.8368,
      "duration": 0.0181,
      "velocity": 115,
      "chip": "ym2612"
    },
    {
      "channel": 2,
      "note": 76,
      "start": 53.8549,
      "duration": 0.0183,
      "velocity": 115,
      "chip": "ym2612"
    },
    {
      "channel": 2,
      "note": 75,
      "start": 53.8732,
      "duration": 0.018,
      "velocity": 115,
      "chip": "ym2612"
    },
    {
      "channel": 2,
      "note": 74,
      "start": 53.8912,
      "duration": 0.0189,
      "velocity": 115,
      "chip": "ym2612"
    },
    {
      "channel": 1,
      "note": 74,
      "start": 53.9097,
      "duration": 0.0924,
      "velocity": 119,
      "chip": "ym2612"
    },
    {
      "channel": 2,
      "note": 79,
      "start": 53.9103,
      "duration": 0.0006,
      "velocity": 115,
      "chip": "ym2612"
    },
    {
      "channel": 2,
      "note": 78,
      "start": 53.9108,
      "duration": 0.0167,
      "velocity": 115,
      "chip": "ym2612"
    },
    {
      "channel": 2,
      "note": 77,
      "start": 53.9275,
      "duration": 0.0181,
      "velocity": 115,
      "chip": "ym2612"
    },
    {
      "channel": 2,
      "note": 76,
      "start": 53.9456,
      "duration": 0.0182,
      "velocity": 115,
      "chip": "ym2612"
    },
    {
      "channel": 2,
      "note": 75,
      "start": 53.9638,
      "duration": 0.018,
      "velocity": 115,
      "chip": "ym2612"
    },
    {
      "channel": 2,
      "note": 74,
      "start": 53.9818,
      "duration": 0.0209,
      "velocity": 115,
      "chip": "ym2612"
    },
    {
      "channel": 0,
      "note": 62,
      "start": 54.0001,
      "duration": 0.182,
      "velocity": 89,
      "chip": "ym2612"
    },
    {
      "channel": 1,
      "note": 31,
      "start": 54.0023,
      "duration": 0.0904,
      "velocity": 127,
      "chip": "ym2612"
    },
    {
      "channel": 2,
      "note": 76,
      "start": 54.0029,
      "duration": 0.0006,
      "velocity": 115,
      "chip": "ym2612"
    },
    {
      "channel": 2,
      "note": 75,
      "start": 54.0034,
      "duration": 0.0147,
      "velocity": 115,
      "chip": "ym2612"
    },
    {
      "channel": 2,
      "note": 74,
      "start": 54.0182,
      "duration": 0.018,
      "velocity": 115,
      "chip": "ym2612"
    },
    {
      "channel": 2,
      "note": 73,
      "start": 54.0362,
      "duration": 0.0183,
      "velocity": 115,
      "chip": "ym2612"
    },
    {
      "channel": 2,
      "note": 72,
      "start": 54.0545,
      "duration": 0.0182,
      "velocity": 115,
      "chip": "ym2612"
    },
    {
      "channel": 2,
      "note": 70,
      "start": 54.0727,
      "duration": 0.0207,
      "velocity": 115,
      "chip": "ym2612"
    },
    {
      "channel": 1,
      "note": 74,
      "start": 54.0929,
      "duration": 0.0914,
      "velocity": 127,
      "chip": "ym2612"
    },
    {
      "channel": 2,
      "note": 76,
      "start": 54.0935,
      "duration": 0.0006,
      "velocity": 115,
      "chip": "ym2612"
    },
    {
      "channel": 2,
      "note": 75,
      "start": 54.094,
      "duration": 0.0153,
      "velocity": 115,
      "chip": "ym2612"
    },
    {
      "channel": 2,
      "note": 74,
      "start": 54.1093,
      "duration": 0.0181,
      "velocity": 115,
      "chip": "ym2612"
    },
    {
      "channel": 2,
      "note": 73,
      "start": 54.1274,
      "duration": 0.0181,
      "velocity": 115,
      "chip": "ym2612"
    },
    {
      "channel": 2,
      "note": 72,
      "start": 54.1455,
      "duration": 0.0182,
      "velocity": 115,
      "chip": "ym2612"
    },
    {
      "channel": 2,
      "note": 70,
      "start": 54.1637,
      "duration": 0.0212,
      "velocity": 115,
      "chip": "ym2612"
    },
    {
      "channel": 0,
      "note": 50,
      "start": 54.1823,
      "duration": 0.0903,
      "velocity": 89,
      "chip": "ym2612"
    },
    {
      "channel": 1,
      "note": 21,
      "start": 54.1845,
      "duration": 0.1799,
      "velocity": 127,
      "chip": "ym2612"
    },
    {
      "channel": 2,
      "note": 76,
      "start": 54.1851,
      "duration": 0.0006,
      "velocity": 115,
      "chip": "ym2612"
    },
    {
      "channel": 2,
      "note": 75,
      "start": 54.1856,
      "duration": 0.0148,
      "velocity": 115,
      "chip": "ym2612"
    },
    {
      "channel": 2,
      "note": 74,
      "start": 54.2005,
      "duration": 0.018,
      "velocity": 115,
      "chip": "ym2612"
    },
    {
      "channel": 2,
      "note": 73,
      "start": 54.2184,
      "duration": 0.0179,
      "velocity": 115,
      "chip": "ym2612"
    },
    {
      "channel": 2,
      "note": 72,
      "start": 54.2363,
      "duration": 0.0181,
      "velocity": 115,
      "chip": "ym2612"
    },
    {
      "channel": 2,
      "note": 70,
      "start": 54.2544,
      "duration": 0.0188,
      "velocity": 115,
      "chip": "ym2612"
    },
    {
      "channel": 0,
      "note": 62,
      "start": 54.2727,
      "duration": 0.1811,
      "velocity": 89,
      "chip": "ym2612"
    },
    {
      "channel": 2,
      "note": 76,
      "start": 54.2734,
      "duration": 0.0005,
      "velocity": 115,
      "chip": "ym2612"
    },
    {
      "channel": 2,
      "note": 75,
      "start": 54.2739,
      "duration": 0.0164,
      "velocity": 115,
      "chip": "ym2612"
    },
    {
      "channel": 2,
      "note": 74,
      "start": 54.2903,
      "duration": 0.0178,
      "velocity": 115,
      "chip": "ym2612"
    },
    {
      "channel": 2,
      "note": 73,
      "start": 54.3082,
      "duration": 0.018,
      "velocity": 115,
      "chip": "ym2612"
    },
    {
      "channel": 2,
      "note": 72,
      "start": 54.3261,
      "duration": 0.0182,
      "velocity": 115,
      "chip": "ym2612"
    },
    {
      "channel": 2,
      "note": 70,
      "start": 54.3443,
      "duration": 0.0207,
      "velocity": 115,
      "chip": "ym2612"
    },
    {
      "channel": 1,
      "note": 74,
      "start": 54.3646,
      "duration": 0.0898,
      "velocity": 127,
      "chip": "ym2612"
    },
    {
      "channel": 2,
      "note": 72,
      "start": 54.3652,
      "duration": 0.0006,
      "velocity": 115,
      "chip": "ym2612"
    },
    {
      "channel": 2,
      "note": 71,
      "start": 54.3657,
      "duration": 0.0151,
      "velocity": 115,
      "chip": "ym2612"
    },
    {
      "channel": 2,
      "note": 69,
      "start": 54.3809,
      "duration": 0.018,
      "velocity": 115,
      "chip": "ym2612"
    },
    {
      "channel": 2,
      "note": 68,
      "start": 54.3989,
      "duration": 0.0182,
      "velocity": 115,
      "chip": "ym2612"
    },
    {
      "channel": 2,
      "note": 67,
      "start": 54.4171,
      "duration": 0.0183,
      "velocity": 115,
      "chip": "ym2612"
    },
    {
      "channel": 2,
      "note": 66,
      "start": 54.4354,
      "duration": 0.0196,
      "velocity": 115,
      "chip": "ym2612"
    },
    {
      "channel": 0,
      "note": 50,
      "start": 54.454,
      "duration": 0.0907,
      "velocity": 89,
      "chip": "ym2612"
    },
    {
      "channel": 1,
      "note": 74,
      "start": 54.4545,
      "duration": 0.0922,
      "velocity": 127,
      "chip": "ym2612"
    },
    {
      "channel": 2,
      "note": 72,
      "start": 54.4551,
      "duration": 0.0006,
      "velocity": 115,
      "chip": "ym2612"
    },
    {
      "channel": 2,
      "note": 71,
      "start": 54.4557,
      "duration": 0.0161,
      "velocity": 115,
      "chip": "ym2612"
    },
    {
      "channel": 2,
      "note": 69,
      "start": 54.4718,
      "duration": 0.0181,
      "velocity": 115,
      "chip": "ym2612"
    },
    {
      "channel": 2,
      "note": 68,
      "start": 54.49,
      "duration": 0.0181,
      "velocity": 115,
      "chip": "ym2612"
    },
    {
      "channel": 2,
      "note": 67,
      "start": 54.508,
      "duration": 0.0181,
      "velocity": 115,
      "chip": "ym2612"
    },
    {
      "channel": 2,
      "note": 66,
      "start": 54.5261,
      "duration": 0.0213,
      "velocity": 115,
      "chip": "ym2612"
    },
    {
      "channel": 0,
      "note": 62,
      "start": 54.5449,
      "duration": 0.181,
      "velocity": 89,
      "chip": "ym2612"
    },
    {
      "channel": 1,
      "note": 21,
      "start": 54.547,
      "duration": 0.0904,
      "velocity": 127,
      "chip": "ym2612"
    },
    {
      "channel": 2,
      "note": 72,
      "start": 54.5476,
      "duration": 0.0006,
      "velocity": 115,
      "chip": "ym2612"
    },
    {
      "channel": 2,
      "note": 71,
      "start": 54.5481,
      "duration": 0.0146,
      "velocity": 115,
      "chip": "ym2612"
    },
    {
      "channel": 2,
      "note": 69,
      "start": 54.5627,
      "duration": 0.0181,
      "velocity": 115,
      "chip": "ym2612"
    },
    {
      "channel": 2,
      "note": 68,
      "start": 54.5808,
      "duration": 0.0182,
      "velocity": 115,
      "chip": "ym2612"
    },
    {
      "channel": 2,
      "note": 67,
      "start": 54.599,
      "duration": 0.0181,
      "velocity": 115,
      "chip": "ym2612"
    },
    {
      "channel": 2,
      "note": 66,
      "start": 54.6171,
      "duration": 0.0208,
      "velocity": 115,
      "chip": "ym2612"
    },
    {
      "channel": 1,
      "note": 74,
      "start": 54.6375,
      "duration": 0.0905,
      "velocity": 119,
      "chip": "ym2612"
    },
    {
      "channel": 2,
      "note": 72,
      "start": 54.6381,
      "duration": 0.0005,
      "velocity": 115,
      "chip": "ym2612"
    },
    {
      "channel": 2,
      "note": 71,
      "start": 54.6386,
      "duration": 0.0153,
      "velocity": 115,
      "chip": "ym2612"
    },
    {
      "channel": 2,
      "note": 69,
      "start": 54.6539,
      "duration": 0.018,
      "velocity": 115,
      "chip": "ym2612"
    },
    {
      "channel": 2,
      "note": 68,
      "start": 54.6719,
      "duration": 0.018,
      "velocity": 115,
      "chip": "ym2612"
    },
    {
      "channel": 2,
      "note": 67,
      "start": 54.6899,
      "duration": 0.0179,
      "velocity": 115,
      "chip": "ym2612"
    },
    {
      "channel": 2,
      "note": 66,
      "start": 54.7078,
      "duration": 0.0208,
      "velocity": 115,
      "chip": "ym2612"
    },
    {
      "channel": 0,
      "note": 60,
      "start": 54.7261,
      "duration": 0.1818,
      "velocity": 89,
      "chip": "ym2612"
    },
    {
      "channel": 1,
      "note": 31,
      "start": 54.7282,
      "duration": 0.0903,
      "velocity": 127,
      "chip": "ym2612"
    },
    {
      "channel": 2,
      "note": 69,
      "start": 54.7287,
      "duration": 0.0006,
      "velocity": 115,
      "chip": "ym2612"
    },
    {
      "channel": 2,
      "note": 68,
      "start": 54.7293,
      "duration": 0.0146,
      "velocity": 115,
      "chip": "ym2612"
    },
    {
      "channel": 2,
      "note": 67,
      "start": 54.7439,
      "duration": 0.0182,
      "velocity": 115,
      "chip": "ym2612"
    },
    {
      "channel": 2,
      "note": 66,
      "start": 54.7621,
      "duration": 0.0181,
      "velocity": 115,
      "chip": "ym2612"
    },
    {
      "channel": 2,
      "note": 65,
      "start": 54.7802,
      "duration": 0.0181,
      "velocity": 115,
      "chip": "ym2612"
    },
    {
      "channel": 2,
      "note": 64,
      "start": 54.7983,
      "duration": 0.0207,
      "velocity": 115,
      "chip": "ym2612"
    },
    {
      "channel": 1,
      "note": 74,
      "start": 54.8186,
      "duration": 0.0899,
      "velocity": 127,
      "chip": "ym2612"
    },
    {
      "channel": 2,
      "note": 69,
      "start": 54.8192,
      "duration": 0.0006,
      "velocity": 115,
      "chip": "ym2612"
    },
    {
      "channel": 2,
      "note": 68,
      "start": 54.8197,
      "duration": 0.015,
      "velocity": 115,
      "chip": "ym2612"
    },
    {
      "channel": 2,
      "note": 67,
      "start": 54.8348,
      "duration": 0.0182,
      "velocity": 115,
      "chip": "ym2612"
    },
    {
      "channel": 2,
      "note": 66,
      "start": 54.8529,
      "duration": 0.0181,
      "velocity": 115,
      "chip": "ym2612"
    },
    {
      "channel": 2,
      "note": 65,
      "start": 54.871,
      "duration": 0.0183,
      "velocity": 115,
      "chip": "ym2612"
    },
    {
      "channel": 2,
      "note": 64,
      "start": 54.8893,
      "duration": 0.0197,
      "velocity": 115,
      "chip": "ym2612"
    },
    {
      "channel": 0,
      "note": 64,
      "start": 54.908,
      "duration": 0.1817,
      "velocity": 89,
      "chip": "ym2612"
    },
    {
      "channel": 1,
      "note": 74,
      "start": 54.9086,
      "duration": 0.0902,
      "velocity": 127,
      "chip": "ym2612"
    },
    {
      "channel": 2,
      "note": 69,
      "start": 54.9092,
      "duration": 0.0009,
      "velocity": 115,
      "chip": "ym2612"
    },
    {
      "channel": 2,
      "note": 68,
      "start": 54.9101,
      "duration": 0.0156,
      "velocity": 115,
      "chip": "ym2612"
    },
    {
      "channel": 2,
      "note": 67,
      "start": 54.9257,
      "duration": 0.0181,
      "velocity": 115,
      "chip": "ym2612"
    },
    {
      "channel": 2,
      "note": 66,
      "start": 54.9438,
      "duration": 0.0182,
      "velocity": 115,
      "chip": "ym2612"
    },
    {
      "channel": 2,
      "note": 65,
      "start": 54.962,
      "duration": 0.0182,
      "velocity": 115,
      "chip": "ym2612"
    },
    {
      "channel": 2,
      "note": 64,
      "start": 54.9802,
      "duration": 0.0192,
      "velocity": 115,
      "chip": "ym2612"
    },
    {
      "channel": 1,
      "note": 74,
      "start": 54.9989,
      "duration": 0.093,
      "velocity": 127,
      "chip": "ym2612"
    },
    {
      "channel": 2,
      "note": 69,
      "start": 54.9995,
      "duration": 0.0006,
      "velocity": 115,
      "chip": "ym2612"
    },
    {
      "channel": 2,
      "note": 68,
      "start": 55.0001,
      "duration": 0.0165,
      "velocity": 115,
      "chip": "ym2612"
    },
    {
      "channel": 2,
      "note": 67,
      "start": 55.0166,
      "duration": 0.0181,
      "velocity": 115,
      "chip": "ym2612"
    },
    {
      "channel": 2,
      "note": 66,
      "start": 55.0348,
      "duration": 0.0182,
      "velocity": 115,
      "chip": "ym2612"
    },
    {
      "channel": 2,
      "note": 65,
      "start": 55.0529,
      "duration": 0.0181,
      "velocity": 115,
      "chip": "ym2612"
    },
    {
      "channel": 2,
      "note": 64,
      "start": 55.071,
      "duration": 0.023,
      "velocity": 102,
      "chip": "ym2612"
    },
    {
      "channel": 0,
      "note": 50,
      "start": 55.0899,
      "duration": 0.1811,
      "velocity": 89,
      "chip": "ym2612"
    },
    {
      "channel": 1,
      "note": 21,
      "start": 55.0921,
      "duration": 0.1811,
      "velocity": 127,
      "chip": "ym2612"
    },
    {
      "channel": 2,
      "note": 66,
      "start": 55.0942,
      "duration": 1.4475,
      "velocity": 102,
      "chip": "ym2612"
    },
    {
      "channel": 3,
      "note": 57,
      "start": 55.0948,
      "duration": 1.4474,
      "velocity": 102,
      "chip": "ym2612"
    },
    {
      "channel": 0,
      "note": 62,
      "start": 55.2712,
      "duration": 0.1806,
      "velocity": 89,
      "chip": "ym2612"
    },
    {
      "channel": 1,
      "note": 74,
      "start": 55.2733,
      "duration": 0.0885,
      "velocity": 127,
      "chip": "ym2612"
    },
    {
      "channel": 1,
      "note": 74,
      "start": 55.3619,
      "duration": 0.092,
      "velocity": 119,
      "chip": "ym2612"
    },
    {
      "channel": 0,
      "note": 62,
      "start": 55.452,
      "duration": 0.1815,
      "velocity": 89,
      "chip": "ym2612"
    },
    {
      "channel": 1,
      "note": 31,
      "start": 55.4541,
      "duration": 0.0902,
      "velocity": 127,
      "chip": "ym2612"
    },
    {
      "channel": 1,
      "note": 74,
      "start": 55.5445,
      "duration": 0.0896,
      "velocity": 127,
      "chip": "ym2612"
    },
    {
      "channel": 0,
      "note": 50,
      "start": 55.6337,
      "duration": 0.0903,
      "velocity": 89,
      "chip": "ym2612"
    },
    {
      "channel": 1,
      "note": 74,
      "start": 55.6342,
      "duration": 0.1801,
      "velocity": 127,
      "chip": "ym2612"
    },
    {
      "channel": 0,
      "note": 62,
      "start": 55.7241,
      "duration": 0.1804,
      "velocity": 89,
      "chip": "ym2612"
    },
    {
      "channel": 1,
      "note": 74,
      "start": 55.8145,
      "duration": 0.0907,
      "velocity": 127,
      "chip": "ym2612"
    },
    {
      "channel": 0,
      "note": 50,
      "start": 55.9048,
      "duration": 0.0905,
      "velocity": 89,
      "chip": "ym2612"
    },
    {
      "channel": 1,
      "note": 74,
      "start": 55.9053,
      "duration": 0.0921,
      "velocity": 127,
      "chip": "ym2612"
    },
    {
      "channel": 0,
      "note": 62,
      "start": 55.9954,
      "duration": 0.1811,
      "velocity": 89,
      "chip": "ym2612"
    },
    {
      "channel": 1,
      "note": 21,
      "start": 55.9976,
      "duration": 0.09,
      "velocity": 127,
      "chip": "ym2612"
    },
    {
      "channel": 1,
      "note": 74,
      "start": 56.0878,
      "duration": 0.0908,
      "velocity": 119,
      "chip": "ym2612"
    },
    {
      "channel": 0,
      "note": 60,
      "start": 56.1767,
      "duration": 0.1809,
      "velocity": 89,
      "chip": "ym2612"
    },
    {
      "channel": 1,
      "note": 31,
      "start": 56.1788,
      "duration": 0.1809,
      "velocity": 127,
      "chip": "ym2612"
    },
    {
      "channel": 0,
      "note": 57,
      "start": 56.3577,
      "duration": 0.1812,
      "velocity": 89,
      "chip": "ym2612"
    },
    {
      "channel": 1,
      "note": 74,
      "start": 56.3599,
      "duration": 0.0884,
      "velocity": 127,
      "chip": "ym2612"
    },
    {
      "channel": 1,
      "note": 74,
      "start": 56.4485,
      "duration": 0.0926,
      "velocity": 127,
      "chip": "ym2612"
    },
    {
      "channel": 0,
      "note": 50,
      "start": 56.5391,
      "duration": 0.1807,
      "velocity": 89,
      "chip": "ym2612"
    },
    {
      "channel": 1,
      "note": 21,
      "start": 56.5412,
      "duration": 0.1808,
      "velocity": 127,
      "chip": "ym2612"
    },
    {
      "channel": 2,
      "note": 60,
      "start": 56.5418,
      "duration": 0.9059,
      "velocity": 102,
      "chip": "ym2612"
    },
    {
      "channel": 3,
      "note": 67,
      "start": 56.5424,
      "duration": 0.906,
      "velocity": 102,
      "chip": "ym2612"
    },
    {
      "channel": 0,
      "note": 62,
      "start": 56.72,
      "duration": 0.1809,
      "velocity": 89,
      "chip": "ym2612"
    },
    {
      "channel": 1,
      "note": 74,
      "start": 56.7222,
      "duration": 0.0884,
      "velocity": 127,
      "chip": "ym2612"
    },
    {
      "channel": 1,
      "note": 74,
      "start": 56.8108,
      "duration": 0.0923,
      "velocity": 119,
      "chip": "ym2612"
    },
    {
      "channel": 0,
      "note": 62,
      "start": 56.9011,
      "duration": 0.181,
      "velocity": 89,
      "chip": "ym2612"
    },
    {
      "channel": 1,
      "note": 31,
      "start": 56.9032,
      "duration": 0.0898,
      "velocity": 127,
      "chip": "ym2612"
    },
    {
      "channel": 1,
      "note": 74,
      "start": 56.9932,
      "duration": 0.0911,
      "velocity": 127,
      "chip": "ym2612"
    },
    {
      "channel": 0,
      "note": 50,
      "start": 57.0823,
      "duration": 0.0909,
      "velocity": 89,
      "chip": "ym2612"
    },
    {
      "channel": 1,
      "note": 21,
      "start": 57.0844,
      "duration": 0.0909,
      "velocity": 127,
      "chip": "ym2612"
    },
    {
      "channel": 0,
      "note": 62,
      "start": 57.1733,
      "duration": 0.181,
      "velocity": 89,
      "chip": "ym2612"
    },
    {
      "channel": 1,
      "note": 74,
      "start": 57.1754,
      "duration": 0.0883,
      "velocity": 127,
      "chip": "ym2612"
    },
    {
      "channel": 1,
      "note": 74,
      "start": 57.2639,
      "duration": 0.1833,
      "velocity": 127,
      "chip": "ym2612"
    },
    {
      "channel": 0,
      "note": 50,
      "start": 57.3544,
      "duration": 0.0906,
      "velocity": 89,
      "chip": "ym2612"
    },
    {
      "channel": 0,
      "note": 62,
      "start": 57.4453,
      "duration": 0.1811,
      "velocity": 89,
      "chip": "ym2612"
    },
    {
      "channel": 1,
      "note": 21,
      "start": 57.4474,
      "duration": 0.1812,
      "velocity": 119,
      "chip": "ym2612"
    },
    {
      "channel": 2,
      "note": 64,
      "start": 57.448,
      "duration": 0.1811,
      "velocity": 102,
      "chip": "ym2612"
    },
    {
      "channel": 3,
      "note": 60,
      "start": 57.4485,
      "duration": 0.1811,
      "velocity": 102,
      "chip": "ym2612"
    },
    {
      "channel": 0,
      "note": 60,
      "start": 57.6266,
      "duration": 0.181,
      "velocity": 89,
      "chip": "ym2612"
    },
    {
      "channel": 1,
      "note": 31,
      "start": 57.6287,
      "duration": 0.09,
      "velocity": 127,
      "chip": "ym2612"
    },
    {
      "channel": 2,
      "note": 67,
      "start": 57.6293,
      "duration": 0.1794,
      "velocity": 102,
      "chip": "ym2612"
    },
    {
      "channel": 3,
      "note": 64,
      "start": 57.6298,
      "duration": 0.1795,
      "velocity": 102,
      "chip": "ym2612"
    },
    {
      "channel": 1,
      "note": 74,
      "start": 57.7188,
      "duration": 0.0893,
      "velocity": 127,
      "chip": "ym2612"
    },
    {
      "channel": 0,
      "note": 64,
      "start": 57.8078,
      "duration": 0.1807,
      "velocity": 89,
      "chip": "ym2612"
    },
    {
      "channel": 1,
      "note": 74,
      "start": 57.8083,
      "duration": 0.0897,
      "velocity": 127,
      "chip": "ym2612"
    },
    {
      "channel": 2,
      "note": 71,
      "start": 57.8089,
      "duration": 0.363,
      "velocity": 102,
      "chip": "ym2612"
    },
    {
      "channel": 3,
      "note": 67,
      "start": 57.8095,
      "duration": 0.363,
      "velocity": 102,
      "chip": "ym2612"
    },
    {
      "channel": 1,
      "note": 74,
      "start": 57.8982,
      "duration": 0.0924,
      "velocity": 127,
      "chip": "ym2612"
    },
    {
      "channel": 0,
      "note": 50,
      "start": 57.9886,
      "duration": 0.1806,
      "velocity": 89,
      "chip": "ym2612"
    },
    {
      "channel": 1,
      "note": 21,
      "start": 57.9908,
      "duration": 0.1805,
      "velocity": 127,
      "chip": "ym2612"
    },
    {
      "channel": 0,
      "note": 62,
      "start": 58.1694,
      "duration": 0.1808,
      "velocity": 89,
      "chip": "ym2612"
    },
    {
      "channel": 1,
      "note": 74,
      "start": 58.1715,
      "duration": 0.0881,
      "velocity": 127,
      "chip": "ym2612"
    },
    {
      "channel": 2,
      "note": 72,
      "start": 58.172,
      "duration": 0.1808,
      "velocity": 102,
      "chip": "ym2612"
    },
    {
      "channel": 3,
      "note": 69,
      "start": 58.1726,
      "duration": 0.1808,
      "velocity": 102,
      "chip": "ym2612"
    },
    {
      "channel": 1,
      "note": 74,
      "start": 58.2599,
      "duration": 0.0924,
      "velocity": 119,
      "chip": "ym2612"
    },
    {
      "channel": 0,
      "note": 62,
      "start": 58.3504,
      "duration": 0.181,
      "velocity": 89,
      "chip": "ym2612"
    },
    {
      "channel": 1,
      "note": 31,
      "start": 58.3525,
      "duration": 0.0903,
      "velocity": 127,
      "chip": "ym2612"
    },
    {
      "channel": 2,
      "note": 71,
      "start": 58.353,
      "duration": 0.1795,
      "velocity": 102,
      "chip": "ym2612"
    },
    {
      "channel": 3,
      "note": 67,
      "start": 58.3536,
      "duration": 0.1795,
      "velocity": 102,
      "chip": "ym2612"
    },
    {
      "channel": 1,
      "note": 74,
      "start": 58.4429,
      "duration": 0.0891,
      "velocity": 127,
      "chip": "ym2612"
    },
    {
      "channel": 0,
      "note": 50,
      "start": 58.5316,
      "duration": 0.0903,
      "velocity": 89,
      "chip": "ym2612"
    },
    {
      "channel": 1,
      "note": 74,
      "start": 58.5322,
      "duration": 0.1805,
      "velocity": 127,
      "chip": "ym2612"
    },
    {
      "channel": 2,
      "note": 67,
      "start": 58.5327,
      "duration": 0.1805,
      "velocity": 102,
      "chip": "ym2612"
    },
    {
      "channel": 3,
      "note": 64,
      "start": 58.5332,
      "duration": 0.1805,
      "velocity": 102,
      "chip": "ym2612"
    },
    {
      "channel": 0,
      "note": 62,
      "start": 58.6221,
      "duration": 0.181,
      "velocity": 89,
      "chip": "ym2612"
    },
    {
      "channel": 1,
      "note": 74,
      "start": 58.7128,
      "duration": 0.0909,
      "velocity": 127,
      "chip": "ym2612"
    },
    {
      "channel": 2,
      "note": 64,
      "start": 58.7133,
      "duration": 1.6333,
      "velocity": 102,
      "chip": "ym2612"
    },
    {
      "channel": 3,
      "note": 60,
      "start": 58.7139,
      "duration": 1.6333,
      "velocity": 102,
      "chip": "ym2612"
    },
    {
      "channel": 0,
      "note": 50,
      "start": 58.8033,
      "duration": 0.0905,
      "velocity": 89,
      "chip": "ym2612"
    },
    {
      "channel": 1,
      "note": 74,
      "start": 58.8038,
      "duration": 0.0921,
      "velocity": 127,
      "chip": "ym2612"
    },
    {
      "channel": 0,
      "note": 62,
      "start": 58.894,
      "duration": 0.1816,
      "velocity": 89,
      "chip": "ym2612"
    },
    {
      "channel": 1,
      "note": 21,
      "start": 58.8961,
      "duration": 0.0903,
      "velocity": 127,
      "chip": "ym2612"
    },
    {
      "channel": 1,
      "note": 74,
      "start": 58.9866,
      "duration": 0.0911,
      "velocity": 119,
      "chip": "ym2612"
    },
    {
      "channel": 0,
      "note": 60,
      "start": 59.0757,
      "duration": 0.1811,
      "velocity": 89,
      "chip": "ym2612"
    },
    {
      "channel": 1,
      "note": 31,
      "start": 59.0778,
      "duration": 0.181,
      "velocity": 127,
      "chip": "ym2612"
    },
    {
      "channel": 0,
      "note": 57,
      "start": 59.257,
      "duration": 0.1816,
      "velocity": 89,
      "chip": "ym2612"
    },
    {
      "channel": 1,
      "note": 74,
      "start": 59.2591,
      "duration": 0.0884,
      "velocity": 127,
      "chip": "ym2612"
    },
    {
      "channel": 1,
      "note": 74,
      "start": 59.3477,
      "duration": 0.0929,
      "velocity": 127,
      "chip": "ym2612"
    },
    {
      "channel": 0,
      "note": 50,
      "start": 59.4387,
      "duration": 0.1808,
      "velocity": 89,
      "chip": "ym2612"
    },
    {
      "channel": 1,
      "note": 21,
      "start": 59.4408,
      "duration": 0.1808,
      "velocity": 127,
      "chip": "ym2612"
    },
    {
      "channel": 0,
      "note": 62,
      "start": 59.6197,
      "duration": 0.1808,
      "velocity": 89,
      "chip": "ym2612"
    },
    {
      "channel": 1,
      "note": 74,
      "start": 59.6218,
      "duration": 0.0884,
      "velocity": 127,
      "chip": "ym2612"
    },
    {
      "channel": 1,
      "note": 74,
      "start": 59.7104,
      "duration": 0.0923,
      "velocity": 119,
      "chip": "ym2612"
    },
    {
      "channel": 0,
      "note": 62,
      "start": 59.8007,
      "duration": 0.1812,
      "velocity": 89,
      "chip": "ym2612"
    },
    {
      "channel": 1,
      "note": 31,
      "start": 59.8028,
      "duration": 0.0902,
      "velocity": 127,
      "chip": "ym2612"
    },
    {
      "channel": 1,
      "note": 74,
      "start": 59.8932,
      "duration": 0.0909,
      "velocity": 127,
      "chip": "ym2612"
    },
    {
      "channel": 0,
      "note": 50,
      "start": 59.9821,
      "duration": 0.0907,
      "velocity": 89,
      "chip": "ym2612"
    },
    {
      "channel": 1,
      "note": 21,
      "start": 59.9842,
      "duration": 0.1806,
      "velocity": 127,
      "chip": "ym2612"
    },
    {
      "channel": 0,
      "note": 62,
      "start": 60.073,
      "duration": 0.1806,
      "velocity": 89,
      "chip": "ym2612"
    },
    {
      "channel": 1,
      "note": 74,
      "start": 60.165,
      "duration": 0.0892,
      "velocity": 127,
      "chip": "ym2612"
    },
    {
      "channel": 0,
      "note": 50,
      "start": 60.2538,
      "duration": 0.0901,
      "velocity": 89,
      "chip": "ym2612"
    },
    {
      "channel": 1,
      "note": 74,
      "start": 60.2544,
      "duration": 0.0917,
      "velocity": 127,
      "chip": "ym2612"
    },
    {
      "channel": 0,
      "note": 62,
      "start": 60.3441,
      "duration": 0.1813,
      "velocity": 89,
      "chip": "ym2612"
    },
    {
      "channel": 1,
      "note": 21,
      "start": 60.3462,
      "duration": 0.0901,
      "velocity": 127,
      "chip": "ym2612"
    },
    {
      "channel": 2,
      "note": 62,
      "start": 60.3468,
      "duration": 0.1813,
      "velocity": 102,
      "chip": "ym2612"
    },
    {
      "channel": 3,
      "note": 57,
      "start": 60.3474,
      "duration": 0.1813,
      "velocity": 102,
      "chip": "ym2612"
    },
    {
      "channel": 1,
      "note": 74,
      "start": 60.4364,
      "duration": 0.0911,
      "velocity": 119,
      "chip": "ym2612"
    },
    {
      "channel": 0,
      "note": 60,
      "start": 60.5256,
      "duration": 0.1812,
      "velocity": 89,
      "chip": "ym2612"
    },
    {
      "channel": 1,
      "note": 31,
      "start": 60.5277,
      "duration": 0.0903,
      "velocity": 127,
      "chip": "ym2612"
    },
    {
      "channel": 2,
      "note": 60,
      "start": 60.5283,
      "duration": 0.1796,
      "velocity": 102,
      "chip": "ym2612"
    },
    {
      "channel": 3,
      "note": 55,
      "start": 60.5288,
      "duration": 0.1796,
      "velocity": 102,
      "chip": "ym2612"
    },
    {
      "channel": 1,
      "note": 74,
      "start": 60.6181,
      "duration": 0.0893,
      "velocity": 127,
      "chip": "ym2612"
    },
    {
      "channel": 0,
      "note": 64,
      "start": 60.707,
      "duration": 0.1812,
      "velocity": 89,
      "chip": "ym2612"
    },
    {
      "channel": 1,
      "note": 74,
      "start": 60.7075,
      "duration": 0.09,
      "velocity": 127,
      "chip": "ym2612"
    },
    {
      "channel": 2,
      "note": 62,
      "start": 60.708,
      "duration": 1.9943,
      "velocity": 102,
      "chip": "ym2612"
    },
    {
      "channel": 3,
      "note": 57,
      "start": 60.7086,
      "duration": 1.9943,
      "velocity": 102,
      "chip": "ym2612"
    },
    {
      "channel": 1,
      "note": 74,
      "start": 60.7977,
      "duration": 0.0926,
      "velocity": 127,
      "chip": "ym2612"
    },
    {
      "channel": 0,
      "note": 52,
      "start": 60.8883,
      "duration": 0.1807,
      "velocity": 89,
      "chip": "ym2612"
    },
    {
      "channel": 1,
      "note": 21,
      "start": 60.8905,
      "duration": 0.1807,
      "velocity": 127,
      "chip": "ym2612"
    },
    {
      "channel": 0,
      "note": 64,
      "start": 61.0692,
      "duration": 0.1808,
      "velocity": 89,
      "chip": "ym2612"
    },
    {
      "channel": 1,
      "note": 74,
      "start": 61.0713,
      "duration": 0.0884,
      "velocity": 127,
      "chip": "ym2612"
    },
    {
      "channel": 1,
      "note": 74,
      "start": 61.1599,
      "duration": 0.0922,
      "velocity": 119,
      "chip": "ym2612"
    },
    {
      "channel": 0,
      "note": 64,
      "start": 61.2502,
      "duration": 0.1813,
      "velocity": 89,
      "chip": "ym2612"
    },
    {
      "channel": 1,
      "note": 31,
      "start": 61.2523,
      "duration": 0.0902,
      "velocity": 127,
      "chip": "ym2612"
    },
    {
      "channel": 1,
      "note": 74,
      "start": 61.3426,
      "duration": 0.0894,
      "velocity": 127,
      "chip": "ym2612"
    },
    {
      "channel": 0,
      "note": 52,
      "start": 61.4316,
      "duration": 0.0905,
      "velocity": 89,
      "chip": "ym2612"
    },
    {
      "channel": 1,
      "note": 74,
      "start": 61.4322,
      "duration": 0.1807,
      "velocity": 127,
      "chip": "ym2612"
    },
    {
      "channel": 0,
      "note": 64,
      "start": 61.5223,
      "duration": 0.1809,
      "velocity": 89,
      "chip": "ym2612"
    },
    {
      "channel": 1,
      "note": 74,
      "start": 61.613,
      "duration": 0.0908,
      "velocity": 127,
      "chip": "ym2612"
    },
    {
      "channel": 0,
      "note": 52,
      "start": 61.7034,
      "duration": 0.0902,
      "velocity": 89,
      "chip": "ym2612"
    },
    {
      "channel": 1,
      "note": 74,
      "start": 61.7039,
      "duration": 0.0918,
      "velocity": 127,
      "chip": "ym2612"
    },
    {
      "channel": 0,
      "note": 64,
      "start": 61.7938,
      "duration": 0.181,
      "velocity": 89,
      "chip": "ym2612"
    },
    {
      "channel": 1,
      "note": 21,
      "start": 61.7959,
      "duration": 0.09,
      "velocity": 127,
      "chip": "ym2612"
    },
    {
      "channel": 1,
      "note": 74,
      "start": 61.886,
      "duration": 0.0909,
      "velocity": 119,
      "chip": "ym2612"
    },
    {
      "channel": 0,
      "note": 62,
      "start": 61.9749,
      "duration": 0.1811,
      "velocity": 89,
      "chip": "ym2612"
    },
    {
      "channel": 1,
      "note": 31,
      "start": 61.9771,
      "duration": 0.181,
      "velocity": 127,
      "chip": "ym2612"
    },
    {
      "channel": 0,
      "note": 59,
      "start": 62.1562,
      "duration": 0.1812,
      "velocity": 89,
      "chip": "ym2612"
    },
    {
      "channel": 1,
      "note": 74,
      "start": 62.1583,
      "duration": 0.0884,
      "velocity": 127,
      "chip": "ym2612"
    },
    {
      "channel": 1,
      "note": 74,
      "start": 62.247,
      "duration": 0.0926,
      "velocity": 127,
      "chip": "ym2612"
    },
    {
      "channel": 0,
      "note": 52,
      "start": 62.3376,
      "duration": 0.1808,
      "velocity": 89,
      "chip": "ym2612"
    },
    {
      "channel": 1,
      "note": 21,
      "start": 62.3398,
      "duration": 0.1808,
      "velocity": 127,
      "chip": "ym2612"
    },
    {
      "channel": 0,
      "note": 64,
      "start": 62.5186,
      "duration": 0.181,
      "velocity": 89,
      "chip": "ym2612"
    },
    {
      "channel": 1,
      "note": 74,
      "start": 62.5207,
      "duration": 0.0881,
      "velocity": 127,
      "chip": "ym2612"
    },
    {
      "channel": 1,
      "note": 74,
      "start": 62.609,
      "duration": 0.0927,
      "velocity": 119,
      "chip": "ym2612"
    },
    {
      "channel": 0,
      "note": 64,
      "start": 62.6997,
      "duration": 0.1809,
      "velocity": 89,
      "chip": "ym2612"
    },
    {
      "channel": 1,
      "note": 31,
      "start": 62.7019,
      "duration": 0.0899,
      "velocity": 127,
      "chip": "ym2612"
    },
    {
      "channel": 2,
      "note": 62,
      "start": 62.7025,
      "duration": 0.3601,
      "velocity": 102,
      "chip": "ym2612"
    },
    {
      "channel": 3,
      "note": 57,
      "start": 62.7031,
      "duration": 0.3601,
      "velocity": 102,
      "chip": "ym2612"
    },
    {
      "channel": 1,
      "note": 74,
      "start": 62.792,
      "duration": 0.0908,
      "velocity": 127,
      "chip": "ym2612"
    },
    {
      "channel": 0,
      "note": 52,
      "start": 62.8809,
      "duration": 0.0905,
      "velocity": 89,
      "chip": "ym2612"
    },
    {
      "channel": 1,
      "note": 21,
      "start": 62.883,
      "duration": 0.0906,
      "velocity": 127,
      "chip": "ym2612"
    },
    {
      "channel": 0,
      "note": 64,
      "start": 62.9716,
      "duration": 0.181,
      "velocity": 89,
      "chip": "ym2612"
    },
    {
      "channel": 1,
      "note": 74,
      "start": 62.9737,
      "duration": 0.0884,
      "velocity": 127,
      "chip": "ym2612"
    },
    {
      "channel": 1,
      "note": 74,
      "start": 63.0622,
      "duration": 0.1827,
      "velocity": 127,
      "chip": "ym2612"
    },
    {
      "channel": 2,
      "note": 66,
      "start": 63.0628,
      "duration": 0.3636,
      "velocity": 102,
      "chip": "ym2612"
    },
    {
      "channel": 3,
      "note": 62,
      "start": 63.0634,
      "duration": 0.3636,
      "velocity": 102,
      "chip": "ym2612"
    },
    {
      "channel": 0,
      "note": 52,
      "start": 63.1527,
      "duration": 0.0902,
      "velocity": 89,
      "chip": "ym2612"
    },
    {
      "channel": 0,
      "note": 64,
      "start": 63.243,
      "duration": 0.1807,
      "velocity": 89,
      "chip": "ym2612"
    },
    {
      "channel": 1,
      "note": 21,
      "start": 63.2451,
      "duration": 0.1807,
      "velocity": 119,
      "chip": "ym2612"
    },
    {
      "channel": 0,
      "note": 62,
      "start": 63.4239,
      "duration": 0.1809,
      "velocity": 89,
      "chip": "ym2612"
    },
    {
      "channel": 1,
      "note": 31,
      "start": 63.426,
      "duration": 0.09,
      "velocity": 127,
      "chip": "ym2612"
    },
    {
      "channel": 2,
      "note": 69,
      "start": 63.4266,
      "duration": 0.362,
      "velocity": 102,
      "chip": "ym2612"
    },
    {
      "channel": 3,
      "note": 66,
      "start": 63.4272,
      "duration": 0.362,
      "velocity": 102,
      "chip": "ym2612"
    },
    {
      "channel": 1,
      "note": 74,
      "start": 63.5162,
      "duration": 0.0892,
      "velocity": 127,
      "chip": "ym2612"
    },
    {
      "channel": 0,
      "note": 66,
      "start": 63.605,
      "duration": 0.1808,
      "velocity": 89,
      "chip": "ym2612"
    },
    {
      "channel": 1,
      "note": 74,
      "start": 63.6055,
      "duration": 0.0898,
      "velocity": 127,
      "chip": "ym2612"
    },
    {
      "channel": 1,
      "note": 74,
      "start": 63.6956,
      "duration": 0.0924,
      "velocity": 127,
      "chip": "ym2612"
    },
    {
      "channel": 0,
      "note": 52,
      "start": 63.7861,
      "duration": 0.181,
      "velocity": 89,
      "chip": "ym2612"
    },
    {
      "channel": 1,
      "note": 21,
      "start": 63.7882,
      "duration": 0.181,
      "velocity": 127,
      "chip": "ym2612"
    },
    {
      "channel": 2,
      "note": 71,
      "start": 63.7887,
      "duration": 2.8982,
      "velocity": 102,
      "chip": "ym2612"
    },
    {
      "channel": 3,
      "note": 68,
      "start": 63.7893,
      "duration": 2.8983,
      "velocity": 102,
      "chip": "ym2612"
    },
    {
      "channel": 0,
      "note": 64,
      "start": 63.9672,
      "duration": 0.1807,
      "velocity": 89,
      "chip": "ym2612"
    },
    {
      "channel": 1,
      "note": 74,
      "start": 63.9694,
      "duration": 0.0883,
      "velocity": 127,
      "chip": "ym2612"
    },
    {
      "channel": 1,
      "note": 74,
      "start": 64.0579,
      "duration": 0.0922,
      "velocity": 119,
      "chip": "ym2612"
    },
    {
      "channel": 0,
      "note": 64,
      "start": 64.1482,
      "duration": 0.1811,
      "velocity": 89,
      "chip": "ym2612"
    },
    {
      "channel": 1,
      "note": 31,
      "start": 64.1503,
      "duration": 0.0898,
      "velocity": 127,
      "chip": "ym2612"
    },
    {
      "channel": 1,
      "note": 74,
      "start": 64.2402,
      "duration": 0.0896,
      "velocity": 127,
      "chip": "ym2612"
    },
    {
      "channel": 0,
      "note": 52,
      "start": 64.3295,
      "duration": 0.0902,
      "velocity": 89,
      "chip": "ym2612"
    },
    {
      "channel": 1,
      "note": 74,
      "start": 64.33,
      "duration": 0.1805,
      "velocity": 127,
      "chip": "ym2612"
    },
    {
      "channel": 0,
      "note": 64,
      "start": 64.4198,
      "duration": 0.1811,
      "velocity": 89,
      "chip": "ym2612"
    },
    {
      "channel": 1,
      "note": 74,
      "start": 64.5106,
      "duration": 0.0908,
      "velocity": 127,
      "chip": "ym2612"
    },
    {
      "channel": 0,
      "note": 52,
      "start": 64.6011,
      "duration": 0.0903,
      "velocity": 89,
      "chip": "ym2612"
    },
    {
      "channel": 1,
      "note": 74,
      "start": 64.6016,
      "duration": 0.092,
      "velocity": 127,
      "chip": "ym2612"
    },
    {
      "channel": 0,
      "note": 64,
      "start": 64.6916,
      "duration": 0.1806,
      "velocity": 89,
      "chip": "ym2612"
    },
    {
      "channel": 1,
      "note": 21,
      "start": 64.6937,
      "duration": 0.09,
      "velocity": 127,
      "chip": "ym2612"
    },
    {
      "channel": 1,
      "note": 74,
      "start": 64.7839,
      "duration": 0.0905,
      "velocity": 119,
      "chip": "ym2612"
    },
    {
      "channel": 0,
      "note": 62,
      "start": 64.8724,
      "duration": 0.1811,
      "velocity": 89,
      "chip": "ym2612"
    },
    {
      "channel": 1,
      "note": 31,
      "start": 64.8745,
      "duration": 0.1812,
      "velocity": 127,
      "chip": "ym2612"
    },
    {
      "channel": 0,
      "note": 59,
      "start": 65.0537,
      "duration": 0.1809,
      "velocity": 89,
      "chip": "ym2612"
    },
    {
      "channel": 1,
      "note": 74,
      "start": 65.0559,
      "duration": 0.0883,
      "velocity": 127,
      "chip": "ym2612"
    },
    {
      "channel": 1,
      "note": 74,
      "start": 65.1443,
      "duration": 0.0924,
      "velocity": 127,
      "chip": "ym2612"
    },
    {
      "channel": 0,
      "note": 52,
      "start": 65.2348,
      "duration": 0.1807,
      "velocity": 89,
      "chip": "ym2612"
    },
    {
      "channel": 1,
      "note": 21,
      "start": 65.2369,
      "duration": 0.1808,
      "velocity": 127,
      "chip": "ym2612"
    },
    {
      "channel": 0,
      "note": 64,
      "start": 65.4157,
      "duration": 0.1812,
      "velocity": 89,
      "chip": "ym2612"
    },
    {
      "channel": 1,
      "note": 74,
      "start": 65.4178,
      "duration": 0.0884,
      "velocity": 127,
      "chip": "ym2612"
    },
    {
      "channel": 1,
      "note": 74,
      "start": 65.5064,
      "duration": 0.0926,
      "velocity": 119,
      "chip": "ym2612"
    },
    {
      "channel": 0,
      "note": 64,
      "start": 65.5971,
      "duration": 0.181,
      "velocity": 89,
      "chip": "ym2612"
    },
    {
      "channel": 1,
      "note": 31,
      "start": 65.5993,
      "duration": 0.0899,
      "velocity": 127,
      "chip": "ym2612"
    },
    {
      "channel": 1,
      "note": 74,
      "start": 65.6893,
      "duration": 0.0909,
      "velocity": 127,
      "chip": "ym2612"
    },
    {
      "channel": 0,
      "note": 52,
      "start": 65.7782,
      "duration": 0.0906,
      "velocity": 89,
      "chip": "ym2612"
    },
    {
      "channel": 1,
      "note": 21,
      "start": 65.7803,
      "duration": 0.1805,
      "velocity": 127,
      "chip": "ym2612"
    },
    {
      "channel": 0,
      "note": 64,
      "start": 65.869,
      "duration": 0.1809,
      "velocity": 89,
      "chip": "ym2612"
    },
    {
      "channel": 1,
      "note": 74,
      "start": 65.961,
      "duration": 0.0894,
      "velocity": 127,
      "chip": "ym2612"
    },
    {
      "channel": 0,
      "note": 52,
      "start": 66.05,
      "duration": 0.0903,
      "velocity": 89,
      "chip": "ym2612"
    },
    {
      "channel": 1,
      "note": 74,
      "start": 66.0506,
      "duration": 0.0919,
      "velocity": 127,
      "chip": "ym2612"
    },
    {
      "channel": 0,
      "note": 64,
      "start": 66.1406,
      "duration": 0.181,
      "velocity": 89,
      "chip": "ym2612"
    },
    {
      "channel": 1,
      "note": 21,
      "start": 66.1427,
      "duration": 0.0901,
      "velocity": 127,
      "chip": "ym2612"
    },
    {
      "channel": 1,
      "note": 74,
      "start": 66.233,
      "duration": 0.0907,
      "velocity": 119,
      "chip": "ym2612"
    },
    {
      "channel": 0,
      "note": 62,
      "start": 66.3217,
      "duration": 0.1812,
      "velocity": 89,
      "chip": "ym2612"
    },
    {
      "channel": 1,
      "note": 31,
      "start": 66.3239,
      "duration": 0.0898,
      "velocity": 127,
      "chip": "ym2612"
    },
    {
      "channel": 1,
      "note": 74,
      "start": 66.4139,
      "duration": 0.0895,
      "velocity": 127,
      "chip": "ym2612"
    },
    {
      "channel": 0,
      "note": 66,
      "start": 66.5031,
      "duration": 0.1811,
      "velocity": 89,
      "chip": "ym2612"
    },
    {
      "channel": 1,
      "note": 74,
      "start": 66.5036,
      "duration": 0.0899,
      "velocity": 127,
      "chip": "ym2612"
    },
    {
      "channel": 1,
      "note": 74,
      "start": 66.5937,
      "duration": 0.0927,
      "velocity": 127,
      "chip": "ym2612"
    },
    {
      "channel": 0,
      "note": 52,
      "start": 66.6844,
      "duration": 0.1808,
      "velocity": 89,
      "chip": "ym2612"
    },
    {
      "channel": 1,
      "note": 21,
      "start": 66.6865,
      "duration": 0.1808,
      "velocity": 127,
      "chip": "ym2612"
    },
    {
      "channel": 2,
      "note": 69,
      "start": 66.6871,
      "duration": 2.3528,
      "velocity": 102,
      "chip": "ym2612"
    },
    {
      "channel": 3,
      "note": 74,
      "start": 66.6878,
      "duration": 2.3527,
      "velocity": 102,
      "chip": "ym2612"
    },
    {
      "channel": 0,
      "note": 64,
      "start": 66.8653,
      "duration": 0.1805,
      "velocity": 89,
      "chip": "ym2612"
    },
    {
      "channel": 1,
      "note": 74,
      "start": 66.8675,
      "duration": 0.088,
      "velocity": 127,
      "chip": "ym2612"
    },
    {
      "channel": 1,
      "note": 74,
      "start": 66.9557,
      "duration": 0.0923,
      "velocity": 119,
      "chip": "ym2612"
    },
    {
      "channel": 0,
      "note": 64,
      "start": 67.046,
      "duration": 0.1808,
      "velocity": 89,
      "chip": "ym2612"
    },
    {
      "channel": 1,
      "note": 31,
      "start": 67.0481,
      "duration": 0.0899,
      "velocity": 127,
      "chip": "ym2612"
    },
    {
      "channel": 1,
      "note": 74,
      "start": 67.1381,
      "duration": 0.0892,
      "velocity": 127,
      "chip": "ym2612"
    },
    {
      "channel": 0,
      "note": 52,
      "start": 67.227,
      "duration": 0.0902,
      "velocity": 89,
      "chip": "ym2612"
    },
    {
      "channel": 1,
      "note": 74,
      "start": 67.2276,
      "duration": 0.1802,
      "velocity": 127,
      "chip": "ym2612"
    },
    {
      "channel": 0,
      "note": 64,
      "start": 67.3174,
      "duration": 0.1805,
      "velocity": 89,
      "chip": "ym2612"
    },
    {
      "channel": 1,
      "note": 74,
      "start": 67.408,
      "duration": 0.0905,
      "velocity": 127,
      "chip": "ym2612"
    },
    {
      "channel": 0,
      "note": 52,
      "start": 67.498,
      "duration": 0.0901,
      "velocity": 89,
      "chip": "ym2612"
    },
    {
      "channel": 1,
      "note": 74,
      "start": 67.4986,
      "duration": 0.0917,
      "velocity": 127,
      "chip": "ym2612"
    },
    {
      "channel": 0,
      "note": 64,
      "start": 67.5884,
      "duration": 0.1804,
      "velocity": 89,
      "chip": "ym2612"
    },
    {
      "channel": 1,
      "note": 21,
      "start": 67.5905,
      "duration": 0.0896,
      "velocity": 127,
      "chip": "ym2612"
    },
    {
      "channel": 1,
      "note": 74,
      "start": 67.6803,
      "duration": 0.0907,
      "velocity": 119,
      "chip": "ym2612"
    },
    {
      "channel": 0,
      "note": 62,
      "start": 67.769,
      "duration": 0.1809,
      "velocity": 89,
      "chip": "ym2612"
    },
    {
      "channel": 1,
      "note": 31,
      "start": 67.7711,
      "duration": 0.181,
      "velocity": 127,
      "chip": "ym2612"
    },
    {
      "channel": 0,
      "note": 59,
      "start": 67.9501,
      "duration": 0.1807,
      "velocity": 89,
      "chip": "ym2612"
    },
    {
      "channel": 1,
      "note": 74,
      "start": 67.9522,
      "duration": 0.0883,
      "velocity": 127,
      "chip": "ym2612"
    },
    {
      "channel": 1,
      "note": 74,
      "start": 68.0407,
      "duration": 0.0922,
      "velocity": 127,
      "chip": "ym2612"
    },
    {
      "channel": 0,
      "note": 52,
      "start": 68.131,
      "duration": 0.1808,
      "velocity": 89,
      "chip": "ym2612"
    },
    {
      "channel": 1,
      "note": 21,
      "start": 68.1331,
      "duration": 0.1808,
      "velocity": 127,
      "chip": "ym2612"
    },
    {
      "channel": 0,
      "note": 64,
      "start": 68.312,
      "duration": 0.1809,
      "velocity": 89,
      "chip": "ym2612"
    },
    {
      "channel": 1,
      "note": 74,
      "start": 68.3141,
      "duration": 0.0885,
      "velocity": 127,
      "chip": "ym2612"
    },
    {
      "channel": 1,
      "note": 74,
      "start": 68.4027,
      "duration": 0.0924,
      "velocity": 119,
      "chip": "ym2612"
    },
    {
      "channel": 0,
      "note": 64,
      "start": 68.4931,
      "duration": 0.1813,
      "velocity": 89,
      "chip": "ym2612"
    },
    {
      "channel": 1,
      "note": 31,
      "start": 68.4952,
      "duration": 0.0901,
      "velocity": 127,
      "chip": "ym2612"
    },
    {
      "channel": 1,
      "note": 74,
      "start": 68.5854,
      "duration": 0.0911,
      "velocity": 127,
      "chip": "ym2612"
    },
    {
      "channel": 0,
      "note": 52,
      "start": 68.6746,
      "duration": 0.0906,
      "velocity": 89,
      "chip": "ym2612"
    },
    {
      "channel": 1,
      "note": 21,
      "start": 68.6767,
      "duration": 0.0906,
      "velocity": 127,
      "chip": "ym2612"
    },
    {
      "channel": 0,
      "note": 64,
      "start": 68.7654,
      "duration": 0.1808,
      "velocity": 89,
      "chip": "ym2612"
    },
    {
      "channel": 1,
      "note": 74,
      "start": 68.7675,
      "duration": 0.0883,
      "velocity": 127,
      "chip": "ym2612"
    },
    {
      "channel": 1,
      "note": 74,
      "start": 68.856,
      "duration": 0.1834,
      "velocity": 127,
      "chip": "ym2612"
    },
    {
      "channel": 0,
      "note": 52,
      "start": 68.9464,
      "duration": 0.0908,
      "velocity": 89,
      "chip": "ym2612"
    },
    {
      "channel": 0,
      "note": 64,
      "start": 69.0374,
      "duration": 0.1809,
      "velocity": 89,
      "chip": "ym2612"
    },
    {
      "channel": 1,
      "note": 21,
      "start": 69.0395,
      "duration": 0.1809,
      "velocity": 119,
      "chip": "ym2612"
    },
    {
      "channel": 2,
      "note": 73,
      "start": 69.0401,
      "duration": 0.1809,
      "velocity": 102,
      "chip": "ym2612"
    },
    {
      "channel": 3,
      "note": 69,
      "start": 69.0407,
      "duration": 0.1809,
      "velocity": 102,
      "chip": "ym2612"
    },
    {
      "channel": 0,
      "note": 62,
      "start": 69.2185,
      "duration": 0.1813,
      "velocity": 89,
      "chip": "ym2612"
    },
    {
      "channel": 1,
      "note": 31,
      "start": 69.2206,
      "duration": 0.0902,
      "velocity": 127,
      "chip": "ym2612"
    },
    {
      "channel": 2,
      "note": 69,
      "start": 69.2212,
      "duration": 0.1797,
      "velocity": 102,
      "chip": "ym2612"
    },
    {
      "channel": 3,
      "note": 62,
      "start": 69.2217,
      "duration": 0.1797,
      "velocity": 102,
      "chip": "ym2612"
    },
    {
      "channel": 1,
      "note": 74,
      "start": 69.311,
      "duration": 0.0894,
      "velocity": 127,
      "chip": "ym2612"
    },
    {
      "channel": 0,
      "note": 66,
      "start": 69.4,
      "duration": 0.1806,
      "velocity": 89,
      "chip": "ym2612"
    },
    {
      "channel": 1,
      "note": 74,
      "start": 69.4005,
      "duration": 0.0901,
      "velocity": 127,
      "chip": "ym2612"
    },
    {
      "channel": 2,
      "note": 71,
      "start": 69.401,
      "duration": 3.0816,
      "velocity": 102,
      "chip": "ym2612"
    },
    {
      "channel": 3,
      "note": 68,
      "start": 69.4016,
      "duration": 3.0816,
      "velocity": 102,
      "chip": "ym2612"
    },
    {
      "channel": 1,
      "note": 74,
      "start": 69.4907,
      "duration": 0.0921,
      "velocity": 127,
      "chip": "ym2612"
    },
    {
      "channel": 0,
      "note": 52,
      "start": 69.5808,
      "duration": 0.1804,
      "velocity": 89,
      "chip": "ym2612"
    },
    {
      "channel": 1,
      "note": 21,
      "start": 69.5829,
      "duration": 0.1804,
      "velocity": 127,
      "chip": "ym2612"
    },
    {
      "channel": 0,
      "note": 64,
      "start": 69.7614,
      "duration": 0.1808,
      "velocity": 89,
      "chip": "ym2612"
    },
    {
      "channel": 1,
      "note": 74,
      "start": 69.7635,
      "duration": 0.0884,
      "velocity": 127,
      "chip": "ym2612"
    },
    {
      "channel": 1,
      "note": 74,
      "start": 69.8521,
      "duration": 0.0922,
      "velocity": 119,
      "chip": "ym2612"
    },
    {
      "channel": 0,
      "note": 64,
      "start": 69.9424,
      "duration": 0.181,
      "velocity": 89,
      "chip": "ym2612"
    },
    {
      "channel": 1,
      "note": 31,
      "start": 69.9445,
      "duration": 0.09,
      "velocity": 127,
      "chip": "ym2612"
    },
    {
      "channel": 1,
      "note": 74,
      "start": 70.0347,
      "duration": 0.0893,
      "velocity": 127,
      "chip": "ym2612"
    },
    {
      "channel": 0,
      "note": 52,
      "start": 70.1236,
      "duration": 0.0906,
      "velocity": 89,
      "chip": "ym2612"
    },
    {
      "channel": 1,
      "note": 74,
      "start": 70.1241,
      "duration": 0.1807,
      "velocity": 127,
      "chip": "ym2612"
    },
    {
      "channel": 0,
      "note": 64,
      "start": 70.2144,
      "duration": 0.1808,
      "velocity": 89,
      "chip": "ym2612"
    },
    {
      "channel": 1,
      "note": 74,
      "start": 70.305,
      "duration": 0.0907,
      "velocity": 127,
      "chip": "ym2612"
    },
    {
      "channel": 0,
      "note": 52,
      "start": 70.3954,
      "duration": 0.0901,
      "velocity": 89,
      "chip": "ym2612"
    },
    {
      "channel": 1,
      "note": 74,
      "start": 70.3959,
      "duration": 0.0918,
      "velocity": 127,
      "chip": "ym2612"
    },
    {
      "channel": 0,
      "note": 64,
      "start": 70.4857,
      "duration": 0.1812,
      "velocity": 89,
      "chip": "ym2612"
    },
    {
      "channel": 1,
      "note": 21,
      "start": 70.4878,
      "duration": 0.0899,
      "velocity": 127,
      "chip": "ym2612"
    },
    {
      "channel": 1,
      "note": 74,
      "start": 70.5779,
      "duration": 0.0912,
      "velocity": 119,
      "chip": "ym2612"
    },
    {
      "channel": 0,
      "note": 62,
      "start": 70.6671,
      "duration": 0.1808,
      "velocity": 89,
      "chip": "ym2612"
    },
    {
      "channel": 1,
      "note": 31,
      "start": 70.6692,
      "duration": 0.1809,
      "velocity": 127,
      "chip": "ym2612"
    },
    {
      "channel": 0,
      "note": 59,
      "start": 70.8481,
      "duration": 0.181,
      "velocity": 89,
      "chip": "ym2612"
    },
    {
      "channel": 1,
      "note": 74,
      "start": 70.8502,
      "duration": 0.0883,
      "velocity": 127,
      "chip": "ym2612"
    },
    {
      "channel": 1,
      "note": 74,
      "start": 70.9388,
      "duration": 0.0924,
      "velocity": 127,
      "chip": "ym2612"
    },
    {
      "channel": 0,
      "note": 52,
      "start": 71.0293,
      "duration": 0.181,
      "velocity": 89,
      "chip": "ym2612"
    },
    {
      "channel": 1,
      "note": 21,
      "start": 71.0314,
      "duration": 0.1811,
      "velocity": 127,
      "chip": "ym2612"
    },
    {
      "channel": 0,
      "note": 64,
      "start": 71.2105,
      "duration": 0.181,
      "velocity": 89,
      "chip": "ym2612"
    },
    {
      "channel": 1,
      "note": 74,
      "start": 71.2126,
      "duration": 0.0886,
      "velocity": 127,
      "chip": "ym2612"
    },
    {
      "channel": 1,
      "note": 74,
      "start": 71.3014,
      "duration": 0.0923,
      "velocity": 119,
      "chip": "ym2612"
    },
    {
      "channel": 0,
      "note": 64,
      "start": 71.3917,
      "duration": 0.1812,
      "velocity": 89,
      "chip": "ym2612"
    },
    {
      "channel": 1,
      "note": 31,
      "start": 71.3938,
      "duration": 0.09,
      "velocity": 127,
      "chip": "ym2612"
    },
    {
      "channel": 1,
      "note": 74,
      "start": 71.484,
      "duration": 0.091,
      "velocity": 127,
      "chip": "ym2612"
    },
    {
      "channel": 0,
      "note": 52,
      "start": 71.573,
      "duration": 0.0905,
      "velocity": 89,
      "chip": "ym2612"
    },
    {
      "channel": 1,
      "note": 21,
      "start": 71.5752,
      "duration": 0.1806,
      "velocity": 127,
      "chip": "ym2612"
    },
    {
      "channel": 0,
      "note": 64,
      "start": 71.6637,
      "duration": 0.1812,
      "velocity": 89,
      "chip": "ym2612"
    },
    {
      "channel": 1,
      "note": 74,
      "start": 71.7559,
      "duration": 0.0895,
      "velocity": 127,
      "chip": "ym2612"
    },
    {
      "channel": 0,
      "note": 52,
      "start": 71.8451,
      "duration": 0.0903,
      "velocity": 89,
      "chip": "ym2612"
    },
    {
      "channel": 1,
      "note": 74,
      "start": 71.8457,
      "duration": 0.0918,
      "velocity": 127,
      "chip": "ym2612"
    },
    {
      "channel": 0,
      "note": 64,
      "start": 71.9356,
      "duration": 0.1814,
      "velocity": 89,
      "chip": "ym2612"
    },
    {
      "channel": 1,
      "note": 21,
      "start": 71.9377,
      "duration": 0.0902,
      "velocity": 127,
      "chip": "ym2612"
    },
    {
      "channel": 1,
      "note": 74,
      "start": 72.028,
      "duration": 0.0911,
      "velocity": 119,
      "chip": "ym2612"
    },
    {
      "channel": 0,
      "note": 62,
      "start": 72.1172,
      "duration": 0.1815,
      "velocity": 89,
      "chip": "ym2612"
    },
    {
      "channel": 1,
      "note": 31,
      "start": 72.1193,
      "duration": 0.0902,
      "velocity": 127,
      "chip": "ym2612"
    },
    {
      "channel": 1,
      "note": 74,
      "start": 72.2096,
      "duration": 0.0896,
      "velocity": 127,
      "chip": "ym2612"
    },
    {
      "channel": 0,
      "note": 66,
      "start": 72.2988,
      "duration": 0.1811,
      "velocity": 89,
      "chip": "ym2612"
    },
    {
      "channel": 1,
      "note": 74,
      "start": 72.2993,
      "duration": 0.0899,
      "velocity": 127,
      "chip": "ym2612"
    },
    {
      "channel": 1,
      "note": 74,
      "start": 72.3893,
      "duration": 0.0927,
      "velocity": 127,
      "chip": "ym2612"
    },
    {
      "channel": 0,
      "note": 52,
      "start": 72.48,
      "duration": 0.1806,
      "velocity": 89,
      "chip": "ym2612"
    },
    {
      "channel": 1,
      "note": 21,
      "start": 72.4822,
      "duration": 0.1805,
      "velocity": 127,
      "chip": "ym2612"
    },
    {
      "channel": 2,
      "note": 69,
      "start": 72.4828,
      "duration": 2.3522,
      "velocity": 102,
      "chip": "ym2612"
    },
    {
      "channel": 3,
      "note": 74,
      "start": 72.4834,
      "duration": 2.3521,
      "velocity": 102,
      "chip": "ym2612"
    },
    {
      "channel": 0,
      "note": 64,
      "start": 72.6608,
      "duration": 0.1807,
      "velocity": 89,
      "chip": "ym2612"
    },
    {
      "channel": 1,
      "note": 74,
      "start": 72.6629,
      "duration": 0.0881,
      "velocity": 127,
      "chip": "ym2612"
    },
    {
      "channel": 1,
      "note": 74,
      "start": 72.7512,
      "duration": 0.0925,
      "velocity": 119,
      "chip": "ym2612"
    },
    {
      "channel": 0,
      "note": 64,
      "start": 72.8417,
      "duration": 0.1807,
      "velocity": 89,
      "chip": "ym2612"
    },
    {
      "channel": 1,
      "note": 31,
      "start": 72.8439,
      "duration": 0.0899,
      "velocity": 127,
      "chip": "ym2612"
    },
    {
      "channel": 1,
      "note": 74,
      "start": 72.9339,
      "duration": 0.0892,
      "velocity": 127,
      "chip": "ym2612"
    },
    {
      "channel": 0,
      "note": 52,
      "start": 73.0227,
      "duration": 0.0902,
      "velocity": 89,
      "chip": "ym2612"
    },
    {
      "channel": 1,
      "note": 74,
      "start": 73.0233,
      "duration": 0.1802,
      "velocity": 127,
      "chip": "ym2612"
    },
    {
      "channel": 0,
      "note": 64,
      "start": 73.1131,
      "duration": 0.1804,
      "velocity": 89,
      "chip": "ym2612"
    },
    {
      "channel": 1,
      "note": 74,
      "start": 73.2037,
      "duration": 0.0905,
      "velocity": 127,
      "chip": "ym2612"
    },
    {
      "channel": 0,
      "note": 52,
      "start": 73.2937,
      "duration": 0.0901,
      "velocity": 89,
      "chip": "ym2612"
    },
    {
      "channel": 1,
      "note": 74,
      "start": 73.2943,
      "duration": 0.0917,
      "velocity": 127,
      "chip": "ym2612"
    },
    {
      "channel": 0,
      "note": 64,
      "start": 73.3841,
      "duration": 0.1805,
      "velocity": 89,
      "chip": "ym2612"
    },
    {
      "channel": 1,
      "note": 21,
      "start": 73.3862,
      "duration": 0.0897,
      "velocity": 127,
      "chip": "ym2612"
    },
    {
      "channel": 1,
      "note": 74,
      "start": 73.4761,
      "duration": 0.0907,
      "velocity": 119,
      "chip": "ym2612"
    },
    {
      "channel": 0,
      "note": 62,
      "start": 73.5648,
      "duration": 0.1809,
      "velocity": 89,
      "chip": "ym2612"
    },
    {
      "channel": 1,
      "note": 31,
      "start": 73.5669,
      "duration": 0.181,
      "velocity": 127,
      "chip": "ym2612"
    },
    {
      "channel": 0,
      "note": 59,
      "start": 73.7459,
      "duration": 0.1808,
      "velocity": 89,
      "chip": "ym2612"
    },
    {
      "channel": 1,
      "note": 74,
      "start": 73.748,
      "duration": 0.0883,
      "velocity": 127,
      "chip": "ym2612"
    },
    {
      "channel": 1,
      "note": 74,
      "start": 73.8365,
      "duration": 0.0923,
      "velocity": 127,
      "chip": "ym2612"
    },
    {
      "channel": 0,
      "note": 52,
      "start": 73.9268,
      "duration": 0.1808,
      "velocity": 89,
      "chip": "ym2612"
    },
    {
      "channel": 1,
      "note": 21,
      "start": 73.9289,
      "duration": 0.1809,
      "velocity": 127,
      "chip": "ym2612"
    },
    {
      "channel": 0,
      "note": 64,
      "start": 74.1078,
      "duration": 0.1809,
      "velocity": 89,
      "chip": "ym2612"
    },
    {
      "channel": 1,
      "note": 74,
      "start": 74.11,
      "duration": 0.0883,
      "velocity": 127,
      "chip": "ym2612"
    },
    {
      "channel": 1,
      "note": 74,
      "start": 74.1985,
      "duration": 0.0924,
      "velocity": 119,
      "chip": "ym2612"
    },
    {
      "channel": 0,
      "note": 64,
      "start": 74.289,
      "duration": 0.1808,
      "velocity": 89,
      "chip": "ym2612"
    },
    {
      "channel": 1,
      "note": 31,
      "start": 74.2911,
      "duration": 0.0899,
      "velocity": 127,
      "chip": "ym2612"
    },
    {
      "channel": 1,
      "note": 74,
      "start": 74.3812,
      "duration": 0.0907,
      "velocity": 127,
      "chip": "ym2612"
    },
    {
      "channel": 0,
      "note": 52,
      "start": 74.47,
      "duration": 0.0902,
      "velocity": 89,
      "chip": "ym2612"
    },
    {
      "channel": 1,
      "note": 21,
      "start": 74.4721,
      "duration": 0.0902,
      "velocity": 127,
      "chip": "ym2612"
    },
    {
      "channel": 0,
      "note": 64,
      "start": 74.5603,
      "duration": 0.1811,
      "velocity": 89,
      "chip": "ym2612"
    },
    {
      "channel": 1,
      "note": 74,
      "start": 74.5624,
      "duration": 0.0882,
      "velocity": 127,
      "chip": "ym2612"
    },
    {
      "channel": 1,
      "note": 74,
      "start": 74.6508,
      "duration": 0.1837,
      "velocity": 127,
      "chip": "ym2612"
    },
    {
      "channel": 0,
      "note": 52,
      "start": 74.7415,
      "duration": 0.0908,
      "velocity": 89,
      "chip": "ym2612"
    },
    {
      "channel": 0,
      "note": 64,
      "start": 74.8325,
      "duration": 0.1805,
      "velocity": 89,
      "chip": "ym2612"
    },
    {
      "channel": 1,
      "note": 21,
      "start": 74.8346,
      "duration": 0.1805,
      "velocity": 119,
      "chip": "ym2612"
    },
    {
      "channel": 2,
      "note": 73,
      "start": 74.8351,
      "duration": 0.1806,
      "velocity": 102,
      "chip": "ym2612"
    },
    {
      "channel": 3,
      "note": 69,
      "start": 74.8357,
      "duration": 0.1806,
      "velocity": 102,
      "chip": "ym2612"
    },
    {
      "channel": 0,
      "note": 62,
      "start": 75.0132,
      "duration": 0.1815,
      "velocity": 89,
      "chip": "ym2612"
    },
    {
      "channel": 1,
      "note": 31,
      "start": 75.0153,
      "duration": 0.0902,
      "velocity": 127,
      "chip": "ym2612"
    },
    {
      "channel": 2,
      "note": 69,
      "start": 75.0159,
      "duration": 0.1799,
      "velocity": 102,
      "chip": "ym2612"
    },
    {
      "channel": 3,
      "note": 62,
      "start": 75.0165,
      "duration": 0.1799,
      "velocity": 102,
      "chip": "ym2612"
    },
    {
      "channel": 1,
      "note": 74,
      "start": 75.1057,
      "duration": 0.0896,
      "velocity": 127,
      "chip": "ym2612"
    },
    {
      "channel": 0,
      "note": 66,
      "start": 75.1949,
      "duration": 0.1809,
      "velocity": 89,
      "chip": "ym2612"
    },
    {
      "channel": 1,
      "note": 74,
      "start": 75.1954,
      "duration": 0.0899,
      "velocity": 127,
      "chip": "ym2612"
    },
    {
      "channel": 2,
      "note": 71,
      "start": 75.196,
      "duration": 3.0805,
      "velocity": 103,
      "chip": "ym2612"
    },
    {
      "channel": 3,
      "note": 68,
      "start": 75.1965,
      "duration": 3.0821,
      "velocity": 1,
      "chip": "ym2612"
    },
    {
      "channel": 1,
      "note": 74,
      "start": 75.2855,
      "duration": 0.0924,
      "velocity": 127,
      "chip": "ym2612"
    },
    {
      "channel": 0,
      "note": 52,
      "start": 75.376,
      "duration": 0.1807,
      "velocity": 89,
      "chip": "ym2612"
    },
    {
      "channel": 1,
      "note": 21,
      "start": 75.3781,
      "duration": 0.1807,
      "velocity": 127,
      "chip": "ym2612"
    },
    {
      "channel": 0,
      "note": 64,
      "start": 75.5569,
      "duration": 0.1804,
      "velocity": 89,
      "chip": "ym2612"
    },
    {
      "channel": 1,
      "note": 74,
      "start": 75.559,
      "duration": 0.0882,
      "velocity": 127,
      "chip": "ym2612"
    },
    {
      "channel": 1,
      "note": 74,
      "start": 75.6474,
      "duration": 0.092,
      "velocity": 119,
      "chip": "ym2612"
    },
    {
      "channel": 0,
      "note": 64,
      "start": 75.7374,
      "duration": 0.1813,
      "velocity": 89,
      "chip": "ym2612"
    },
    {
      "channel": 1,
      "note": 31,
      "start": 75.7395,
      "duration": 0.0901,
      "velocity": 127,
      "chip": "ym2612"
    },
    {
      "channel": 1,
      "note": 74,
      "start": 75.8299,
      "duration": 0.0895,
      "velocity": 127,
      "chip": "ym2612"
    },
    {
      "channel": 0,
      "note": 52,
      "start": 75.919,
      "duration": 0.0904,
      "velocity": 89,
      "chip": "ym2612"
    },
    {
      "channel": 1,
      "note": 74,
      "start": 75.9195,
      "duration": 0.1806,
      "velocity": 127,
      "chip": "ym2612"
    },
    {
      "channel": 0,
      "note": 64,
      "start": 76.0095,
      "duration": 0.1808,
      "velocity": 89,
      "chip": "ym2612"
    },
    {
      "channel": 1,
      "note": 74,
      "start": 76.1002,
      "duration": 0.0907,
      "velocity": 127,
      "chip": "ym2612"
    },
    {
      "channel": 0,
      "note": 52,
      "start": 76.1905,
      "duration": 0.0899,
      "velocity": 89,
      "chip": "ym2612"
    },
    {
      "channel": 1,
      "note": 74,
      "start": 76.191,
      "duration": 0.0916,
      "velocity": 127,
      "chip": "ym2612"
    },
    {
      "channel": 0,
      "note": 64,
      "start": 76.2806,
      "duration": 0.1809,
      "velocity": 89,
      "chip": "ym2612"
    },
    {
      "channel": 1,
      "note": 21,
      "start": 76.2827,
      "duration": 0.0898,
      "velocity": 127,
      "chip": "ym2612"
    },
    {
      "channel": 1,
      "note": 74,
      "start": 76.3727,
      "duration": 0.0909,
      "velocity": 119,
      "chip": "ym2612"
    },
    {
      "channel": 0,
      "note": 62,
      "start": 76.4616,
      "duration": 0.1808,
      "velocity": 89,
      "chip": "ym2612"
    },
    {
      "channel": 1,
      "note": 31,
      "start": 76.4638,
      "duration": 0.1807,
      "velocity": 127,
      "chip": "ym2612"
    },
    {
      "channel": 0,
      "note": 59,
      "start": 76.6426,
      "duration": 0.1808,
      "velocity": 89,
      "chip": "ym2612"
    },
    {
      "channel": 1,
      "note": 74,
      "start": 76.6447,
      "duration": 0.0883,
      "velocity": 127,
      "chip": "ym2612"
    },
    {
      "channel": 1,
      "note": 74,
      "start": 76.7332,
      "duration": 0.0923,
      "velocity": 127,
      "chip": "ym2612"
    },
    {
      "channel": 0,
      "note": 52,
      "start": 76.8236,
      "duration": 0.1807,
      "velocity": 89,
      "chip": "ym2612"
    },
    {
      "channel": 1,
      "note": 21,
      "start": 76.8257,
      "duration": 0.1808,
      "velocity": 127,
      "chip": "ym2612"
    },
    {
      "channel": 0,
      "note": 64,
      "start": 77.0045,
      "duration": 0.1807,
      "velocity": 89,
      "chip": "ym2612"
    },
    {
      "channel": 1,
      "note": 74,
      "start": 77.0066,
      "duration": 0.0883,
      "velocity": 127,
      "chip": "ym2612"
    },
    {
      "channel": 1,
      "note": 74,
      "start": 77.0951,
      "duration": 0.0922,
      "velocity": 119,
      "chip": "ym2612"
    },
    {
      "channel": 0,
      "note": 64,
      "start": 77.1854,
      "duration": 0.1811,
      "velocity": 89,
      "chip": "ym2612"
    },
    {
      "channel": 1,
      "note": 31,
      "start": 77.1875,
      "duration": 0.0899,
      "velocity": 127,
      "chip": "ym2612"
    },
    {
      "channel": 1,
      "note": 74,
      "start": 77.2776,
      "duration": 0.091,
      "velocity": 127,
      "chip": "ym2612"
    },
    {
      "channel": 0,
      "note": 52,
      "start": 77.3666,
      "duration": 0.0905,
      "velocity": 89,
      "chip": "ym2612"
    },
    {
      "channel": 1,
      "note": 21,
      "start": 77.3688,
      "duration": 0.1806,
      "velocity": 127,
      "chip": "ym2612"
    },
    {
      "channel": 0,
      "note": 64,
      "start": 77.4573,
      "duration": 0.1808,
      "velocity": 89,
      "chip": "ym2612"
    },
    {
      "channel": 1,
      "note": 74,
      "start": 77.5495,
      "duration": 0.0892,
      "velocity": 127,
      "chip": "ym2612"
    },
    {
      "channel": 0,
      "note": 52,
      "start": 77.6383,
      "duration": 0.0901,
      "velocity": 89,
      "chip": "ym2612"
    },
    {
      "channel": 1,
      "note": 74,
      "start": 77.6389,
      "duration": 0.0917,
      "velocity": 127,
      "chip": "ym2612"
    },
    {
      "channel": 0,
      "note": 64,
      "start": 77.7286,
      "duration": 0.1812,
      "velocity": 89,
      "chip": "ym2612"
    },
    {
      "channel": 1,
      "note": 21,
      "start": 77.7307,
      "duration": 0.0901,
      "velocity": 127,
      "chip": "ym2612"
    },
    {
      "channel": 1,
      "note": 74,
      "start": 77.8209,
      "duration": 0.091,
      "velocity": 119,
      "chip": "ym2612"
    },
    {
      "channel": 0,
      "note": 62,
      "start": 77.91,
      "duration": 0.181,
      "velocity": 89,
      "chip": "ym2612"
    },
    {
      "channel": 1,
      "note": 31,
      "start": 77.9121,
      "duration": 0.0898,
      "velocity": 127,
      "chip": "ym2612"
    },
    {
      "channel": 1,
      "note": 74,
      "start": 78.002,
      "duration": 0.0895,
      "velocity": 127,
      "chip": "ym2612"
    },
    {
      "channel": 0,
      "note": 66,
      "start": 78.0911,
      "duration": 0.1812,
      "velocity": 89,
      "chip": "ym2612"
    },
    {
      "channel": 1,
      "note": 74,
      "start": 78.0917,
      "duration": 0.0899,
      "velocity": 127,
      "chip": "ym2612"
    },
    {
      "channel": 1,
      "note": 74,
      "start": 78.1817,
      "duration": 0.0927,
      "velocity": 127,
      "chip": "ym2612"
    },
    {
      "channel": 0,
      "note": 57,
      "start": 78.2724,
      "duration": 0.1812,
      "velocity": 89,
      "chip": "ym2612"
    },
    {
      "channel": 1,
      "note": 21,
      "start": 78.2745,
      "duration": 0.1812,
      "velocity": 127,
      "chip": "ym2612"
    },
    {
      "channel": 2,
      "note": 107,
      "start": 78.2766,
      "duration": 0.0865,
      "velocity": 103,
      "chip": "ym2612"
    },
    {
      "channel": 3,
      "note": 79,
      "start": 78.2788,
      "duration": 1.5348,
      "velocity": 115,
      "chip": "ym2612"
    },
    {
      "channel": 2,
      "note": 107,
      "start": 78.3633,
      "duration": 0.1815,
      "velocity": 103,
      "chip": "ym2612"
    },
    {
      "channel": 0,
      "note": 57,
      "start": 78.4537,
      "duration": 0.3621,
      "velocity": 89,
      "chip": "ym2612"
    },
    {
      "channel": 1,
      "note": 74,
      "start": 78.4559,
      "duration": 0.0884,
      "velocity": 127,
      "chip": "ym2612"
    },
    {
      "channel": 1,
      "note": 74,
      "start": 78.5445,
      "duration": 0.0918,
      "velocity": 119,
      "chip": "ym2612"
    },
    {
      "channel": 2,
      "note": 107,
      "start": 78.545,
      "duration": 0.1825,
      "velocity": 103,
      "chip": "ym2612"
    },
    {
      "channel": 1,
      "note": 31,
      "start": 78.6365,
      "duration": 0.0904,
      "velocity": 127,
      "chip": "ym2612"
    },
    {
      "channel": 1,
      "note": 74,
      "start": 78.7271,
      "duration": 0.0892,
      "velocity": 127,
      "chip": "ym2612"
    },
    {
      "channel": 2,
      "note": 107,
      "start": 78.7276,
      "duration": 0.2694,
      "velocity": 103,
      "chip": "ym2612"
    },
    {
      "channel": 0,
      "note": 55,
      "start": 78.8159,
      "duration": 2.357,
      "velocity": 89,
      "chip": "ym2612"
    },
    {
      "channel": 1,
      "note": 74,
      "start": 78.8165,
      "duration": 0.1799,
      "velocity": 127,
      "chip": "ym2612"
    },
    {
      "channel": 1,
      "note": 74,
      "start": 78.9966,
      "duration": 0.0902,
      "velocity": 127,
      "chip": "ym2612"
    },
    {
      "channel": 2,
      "note": 107,
      "start": 78.9972,
      "duration": 0.1823,
      "velocity": 103,
      "chip": "ym2612"
    },
    {
      "channel": 1,
      "note": 74,
      "start": 79.0871,
      "duration": 0.0919,
      "velocity": 127,
      "chip": "ym2612"
    },
    {
      "channel": 1,
      "note": 21,
      "start": 79.1791,
      "duration": 0.0903,
      "velocity": 127,
      "chip": "ym2612"
    },
    {
      "channel": 2,
      "note": 107,
      "start": 79.1797,
      "duration": 0.1808,
      "velocity": 103,
      "chip": "ym2612"
    },
    {
      "channel": 1,
      "note": 74,
      "start": 79.2696,
      "duration": 0.0904,
      "velocity": 119,
      "chip": "ym2612"
    },
    {
      "channel": 1,
      "note": 31,
      "start": 79.3601,
      "duration": 0.1811,
      "velocity": 127,
      "chip": "ym2612"
    },
    {
      "channel": 2,
      "note": 107,
      "start": 79.3607,
      "duration": 0.0886,
      "velocity": 103,
      "chip": "ym2612"
    },
    {
      "channel": 2,
      "note": 107,
      "start": 79.4495,
      "duration": 0.0923,
      "velocity": 103,
      "chip": "ym2612"
    },
    {
      "channel": 1,
      "note": 74,
      "start": 79.5415,
      "duration": 0.0889,
      "velocity": 127,
      "chip": "ym2612"
    },
    {
      "channel": 2,
      "note": 107,
      "start": 79.542,
      "duration": 0.1808,
      "velocity": 103,
      "chip": "ym2612"
    },
    {
      "channel": 1,
      "note": 74,
      "start": 79.6306,
      "duration": 0.0917,
      "velocity": 127,
      "chip": "ym2612"
    },
    {
      "channel": 1,
      "note": 21,
      "start": 79.7224,
      "duration": 0.1816,
      "velocity": 127,
      "chip": "ym2612"
    },
    {
      "channel": 2,
      "note": 107,
      "start": 79.7229,
      "duration": 0.0885,
      "velocity": 103,
      "chip": "ym2612"
    },
    {
      "channel": 2,
      "note": 107,
      "start": 79.8116,
      "duration": 0.1822,
      "velocity": 103,
      "chip": "ym2612"
    },
    {
      "channel": 3,
      "note": 72,
      "start": 79.8137,
      "duration": 0.0006,
      "velocity": 115,
      "chip": "ym2612"
    },
    {
      "channel": 3,
      "note": 71,
      "start": 79.8143,
      "duration": 0.0153,
      "velocity": 115,
      "chip": "ym2612"
    },
    {
      "channel": 3,
      "note": 69,
      "start": 79.8296,
      "duration": 0.018,
      "velocity": 115,
      "chip": "ym2612"
    },
    {
      "channel": 3,
      "note": 68,
      "start": 79.8476,
      "duration": 0.0183,
      "velocity": 115,
      "chip": "ym2612"
    },
    {
      "channel": 3,
      "note": 67,
      "start": 79.8659,
      "duration": 0.0179,
      "velocity": 115,
      "chip": "ym2612"
    },
    {
      "channel": 3,
      "note": 66,
      "start": 79.8837,
      "duration": 0.021,
      "velocity": 115,
      "chip": "ym2612"
    },
    {
      "channel": 1,
      "note": 74,
      "start": 79.904,
      "duration": 0.0891,
      "velocity": 127,
      "chip": "ym2612"
    },
    {
      "channel": 3,
      "note": 65,
      "start": 79.9047,
      "duration": 0.0154,
      "velocity": 115,
      "chip": "ym2612"
    },
    {
      "channel": 3,
      "note": 64,
      "start": 79.9201,
      "duration": 0.0183,
      "velocity": 115,
      "chip": "ym2612"
    },
    {
      "channel": 3,
      "note": 63,
      "start": 79.9385,
      "duration": 0.018,
      "velocity": 115,
      "chip": "ym2612"
    },
    {
      "channel": 3,
      "note": 62,
      "start": 79.9565,
      "duration": 0.0182,
      "velocity": 115,
      "chip": "ym2612"
    },
    {
      "channel": 3,
      "note": 61,
      "start": 79.9748,
      "duration": 0.0197,
      "velocity": 115,
      "chip": "ym2612"
    },
    {
      "channel": 1,
      "note": 74,
      "start": 79.9934,
      "duration": 0.0924,
      "velocity": 119,
      "chip": "ym2612"
    },
    {
      "channel": 2,
      "note": 107,
      "start": 79.9939,
      "duration": 0.183,
      "velocity": 103,
      "chip": "ym2612"
    },
    {
      "channel": 3,
      "note": 60,
      "start": 79.9945,
      "duration": 0.0167,
      "velocity": 115,
      "chip": "ym2612"
    },
    {
      "channel": 3,
      "note": 59,
      "start": 80.0112,
      "duration": 0.0182,
      "velocity": 115,
      "chip": "ym2612"
    },
    {
      "channel": 3,
      "note": 57,
      "start": 80.0293,
      "duration": 0.0183,
      "velocity": 115,
      "chip": "ym2612"
    },
    {
      "channel": 3,
      "note": 56,
      "start": 80.0476,
      "duration": 0.0181,
      "velocity": 115,
      "chip": "ym2612"
    },
    {
      "channel": 3,
      "note": 55,
      "start": 80.0657,
      "duration": 0.0206,
      "velocity": 115,
      "chip": "ym2612"
    },
    {
      "channel": 1,
      "note": 31,
      "start": 80.0858,
      "duration": 0.0905,
      "velocity": 127,
      "chip": "ym2612"
    },
    {
      "channel": 3,
      "note": 72,
      "start": 80.0865,
      "duration": 0.0005,
      "velocity": 115,
      "chip": "ym2612"
    },
    {
      "channel": 3,
      "note": 71,
      "start": 80.0871,
      "duration": 0.0152,
      "velocity": 115,
      "chip": "ym2612"
    },
    {
      "channel": 3,
      "note": 69,
      "start": 80.1023,
      "duration": 0.018,
      "velocity": 115,
      "chip": "ym2612"
    },
    {
      "channel": 3,
      "note": 68,
      "start": 80.1203,
      "duration": 0.0178,
      "velocity": 115,
      "chip": "ym2612"
    },
    {
      "channel": 3,
      "note": 67,
      "start": 80.138,
      "duration": 0.0181,
      "velocity": 115,
      "chip": "ym2612"
    },
    {
      "channel": 3,
      "note": 66,
      "start": 80.1562,
      "duration": 0.0214,
      "velocity": 115,
      "chip": "ym2612"
    },
    {
      "channel": 1,
      "note": 74,
      "start": 80.1765,
      "duration": 0.0907,
      "velocity": 127,
      "chip": "ym2612"
    },
    {
      "channel": 2,
      "note": 107,
      "start": 80.1771,
      "duration": 0.2708,
      "velocity": 103,
      "chip": "ym2612"
    },
    {
      "channel": 3,
      "note": 65,
      "start": 80.1776,
      "duration": 0.015,
      "velocity": 115,
      "chip": "ym2612"
    },
    {
      "channel": 3,
      "note": 64,
      "start": 80.1926,
      "duration": 0.0181,
      "velocity": 115,
      "chip": "ym2612"
    },
    {
      "channel": 3,
      "note": 63,
      "start": 80.2108,
      "duration": 0.018,
      "velocity": 115,
      "chip": "ym2612"
    },
    {
      "channel": 3,
      "note": 62,
      "start": 80.2288,
      "duration": 0.0182,
      "velocity": 115,
      "chip": "ym2612"
    },
    {
      "channel": 3,
      "note": 61,
      "start": 80.2471,
      "duration": 0.021,
      "velocity": 115,
      "chip": "ym2612"
    },
    {
      "channel": 1,
      "note": 21,
      "start": 80.2673,
      "duration": 0.091,
      "velocity": 127,
      "chip": "ym2612"
    },
    {
      "channel": 3,
      "note": 60,
      "start": 80.268,
      "duration": 0.0158,
      "velocity": 115,
      "chip": "ym2612"
    },
    {
      "channel": 3,
      "note": 59,
      "start": 80.2838,
      "duration": 0.0182,
      "velocity": 115,
      "chip": "ym2612"
    },
    {
      "channel": 3,
      "note": 57,
      "start": 80.302,
      "duration": 0.0183,
      "velocity": 115,
      "chip": "ym2612"
    },
    {
      "channel": 3,
      "note": 56,
      "start": 80.3202,
      "duration": 0.018,
      "velocity": 115,
      "chip": "ym2612"
    },
    {
      "channel": 3,
      "note": 55,
      "start": 80.3383,
      "duration": 0.0209,
      "velocity": 115,
      "chip": "ym2612"
    },
    {
      "channel": 1,
      "note": 74,
      "start": 80.3584,
      "duration": 0.0888,
      "velocity": 127,
      "chip": "ym2612"
    },
    {
      "channel": 3,
      "note": 54,
      "start": 80.3591,
      "duration": 0.0155,
      "velocity": 115,
      "chip": "ym2612"
    },
    {
      "channel": 3,
      "note": 53,
      "start": 80.3747,
      "duration": 0.0181,
      "velocity": 115,
      "chip": "ym2612"
    },
    {
      "channel": 3,
      "note": 52,
      "start": 80.3928,
      "duration": 0.0181,
      "velocity": 115,
      "chip": "ym2612"
    },
    {
      "channel": 3,
      "note": 51,
      "start": 80.411,
      "duration": 0.0179,
      "velocity": 115,
      "chip": "ym2612"
    },
    {
      "channel": 3,
      "note": 50,
      "start": 80.4289,
      "duration": 0.0195,
      "velocity": 115,
      "chip": "ym2612"
    },
    {
      "channel": 1,
      "note": 74,
      "start": 80.4475,
      "duration": 0.1826,
      "velocity": 127,
      "chip": "ym2612"
    },
    {
      "channel": 2,
      "note": 107,
      "start": 80.448,
      "duration": 0.1825,
      "velocity": 103,
      "chip": "ym2612"
    },
    {
      "channel": 3,
      "note": 76,
      "start": 80.4486,
      "duration": 0.0006,
      "velocity": 115,
      "chip": "ym2612"
    },
    {
      "channel": 3,
      "note": 75,
      "start": 80.4492,
      "duration": 0.0163,
      "velocity": 115,
      "chip": "ym2612"
    },
    {
      "channel": 3,
      "note": 74,
      "start": 80.4655,
      "duration": 0.0181,
      "velocity": 115,
      "chip": "ym2612"
    },
    {
      "channel": 3,
      "note": 73,
      "start": 80.4836,
      "duration": 0.018,
      "velocity": 115,
      "chip": "ym2612"
    },
    {
      "channel": 3,
      "note": 72,
      "start": 80.5016,
      "duration": 0.0182,
      "velocity": 115,
      "chip": "ym2612"
    },
    {
      "channel": 3,
      "note": 70,
      "start": 80.5198,
      "duration": 0.0186,
      "velocity": 115,
      "chip": "ym2612"
    },
    {
      "channel": 3,
      "note": 76,
      "start": 80.5386,
      "duration": 0.0005,
      "velocity": 115,
      "chip": "ym2612"
    },
    {
      "channel": 3,
      "note": 75,
      "start": 80.5391,
      "duration": 0.0169,
      "velocity": 115,
      "chip": "ym2612"
    },
    {
      "channel": 3,
      "note": 74,
      "start": 80.5561,
      "duration": 0.0181,
      "velocity": 115,
      "chip": "ym2612"
    },
    {
      "channel": 3,
      "note": 73,
      "start": 80.5742,
      "duration": 0.0179,
      "velocity": 115,
      "chip": "ym2612"
    },
    {
      "channel": 3,
      "note": 72,
      "start": 80.5921,
      "duration": 0.0178,
      "velocity": 115,
      "chip": "ym2612"
    },
    {
      "channel": 3,
      "note": 70,
      "start": 80.6099,
      "duration": 0.0212,
      "velocity": 115,
      "chip": "ym2612"
    },
    {
      "channel": 1,
      "note": 21,
      "start": 80.6302,
      "duration": 0.1815,
      "velocity": 119,
      "chip": "ym2612"
    },
    {
      "channel": 2,
      "note": 107,
      "start": 80.6307,
      "duration": 0.1814,
      "velocity": 103,
      "chip": "ym2612"
    },
    {
      "channel": 3,
      "note": 76,
      "start": 80.6313,
      "duration": 0.0009,
      "velocity": 115,
      "chip": "ym2612"
    },
    {
      "channel": 3,
      "note": 75,
      "start": 80.6322,
      "duration": 0.0144,
      "velocity": 115,
      "chip": "ym2612"
    },
    {
      "channel": 3,
      "note": 74,
      "start": 80.6466,
      "duration": 0.0181,
      "velocity": 115,
      "chip": "ym2612"
    },
    {
      "channel": 3,
      "note": 73,
      "start": 80.6647,
      "duration": 0.0182,
      "velocity": 115,
      "chip": "ym2612"
    },
    {
      "channel": 3,
      "note": 72,
      "start": 80.6829,
      "duration": 0.0182,
      "velocity": 115,
      "chip": "ym2612"
    },
    {
      "channel": 3,
      "note": 70,
      "start": 80.7011,
      "duration": 0.0361,
      "velocity": 115,
      "chip": "ym2612"
    },
    {
      "channel": 3,
      "note": 69,
      "start": 80.7372,
      "duration": 0.0183,
      "velocity": 115,
      "chip": "ym2612"
    },
    {
      "channel": 3,
      "note": 68,
      "start": 80.7555,
      "duration": 0.018,
      "velocity": 115,
      "chip": "ym2612"
    },
    {
      "channel": 3,
      "note": 67,
      "start": 80.7735,
      "duration": 0.0183,
      "velocity": 115,
      "chip": "ym2612"
    },
    {
      "channel": 3,
      "note": 66,
      "start": 80.7917,
      "duration": 0.021,
      "velocity": 115,
      "chip": "ym2612"
    },
    {
      "channel": 1,
      "note": 31,
      "start": 80.8118,
      "duration": 0.0907,
      "velocity": 127,
      "chip": "ym2612"
    },
    {
      "channel": 2,
      "note": 107,
      "start": 80.8124,
      "duration": 0.0907,
      "velocity": 103,
      "chip": "ym2612"
    },
    {
      "channel": 3,
      "note": 71,
      "start": 80.8129,
      "duration": 0.0006,
      "velocity": 115,
      "chip": "ym2612"
    },
    {
      "channel": 3,
      "note": 70,
      "start": 80.8135,
      "duration": 0.0147,
      "velocity": 115,
      "chip": "ym2612"
    },
    {
      "channel": 3,
      "note": 68,
      "start": 80.8282,
      "duration": 0.0181,
      "velocity": 115,
      "chip": "ym2612"
    },
    {
      "channel": 3,
      "note": 67,
      "start": 80.8463,
      "duration": 0.0182,
      "velocity": 115,
      "chip": "ym2612"
    },
    {
      "channel": 3,
      "note": 66,
      "start": 80.8645,
      "duration": 0.0182,
      "velocity": 115,
      "chip": "ym2612"
    },
    {
      "channel": 3,
      "note": 66,
      "start": 80.8827,
      "duration": 0.0211,
      "velocity": 115,
      "chip": "ym2612"
    },
    {
      "channel": 1,
      "note": 74,
      "start": 80.9027,
      "duration": 0.0889,
      "velocity": 127,
      "chip": "ym2612"
    },
    {
      "channel": 2,
      "note": 107,
      "start": 80.9032,
      "duration": 0.0889,
      "velocity": 103,
      "chip": "ym2612"
    },
    {
      "channel": 3,
      "note": 65,
      "start": 80.9038,
      "duration": 0.0151,
      "velocity": 115,
      "chip": "ym2612"
    },
    {
      "channel": 3,
      "note": 64,
      "start": 80.9189,
      "duration": 0.0182,
      "velocity": 115,
      "chip": "ym2612"
    },
    {
      "channel": 3,
      "note": 63,
      "start": 80.9371,
      "duration": 0.0178,
      "velocity": 115,
      "chip": "ym2612"
    },
    {
      "channel": 3,
      "note": 61,
      "start": 80.955,
      "duration": 0.0182,
      "velocity": 115,
      "chip": "ym2612"
    },
    {
      "channel": 3,
      "note": 60,
      "start": 80.9732,
      "duration": 0.0197,
      "velocity": 115,
      "chip": "ym2612"
    },
    {
      "channel": 1,
      "note": 74,
      "start": 80.9917,
      "duration": 0.0907,
      "velocity": 127,
      "chip": "ym2612"
    },
    {
      "channel": 2,
      "note": 107,
      "start": 80.9922,
      "duration": 0.1834,
      "velocity": 103,
      "chip": "ym2612"
    },
    {
      "channel": 3,
      "note": 59,
      "start": 80.9929,
      "duration": 0.0167,
      "velocity": 115,
      "chip": "ym2612"
    },
    {
      "channel": 3,
      "note": 58,
      "start": 81.0096,
      "duration": 0.0183,
      "velocity": 115,
      "chip": "ym2612"
    },
    {
      "channel": 3,
      "note": 56,
      "start": 81.0279,
      "duration": 0.018,
      "velocity": 115,
      "chip": "ym2612"
    },
    {
      "channel": 3,
      "note": 55,
      "start": 81.0458,
      "duration": 0.0183,
      "velocity": 115,
      "chip": "ym2612"
    },
    {
      "channel": 3,
      "note": 54,
      "start": 81.0641,
      "duration": 0.0192,
      "velocity": 115,
      "chip": "ym2612"
    },
    {
      "channel": 1,
      "note": 74,
      "start": 81.0827,
      "duration": 0.0924,
      "velocity": 127,
      "chip": "ym2612"
    },
    {
      "channel": 3,
      "note": 54,
      "start": 81.0833,
      "duration": 0.017,
      "velocity": 115,
      "chip": "ym2612"
    },
    {
      "channel": 3,
      "note": 53,
      "start": 81.1003,
      "duration": 0.018,
      "velocity": 115,
      "chip": "ym2612"
    },
    {
      "channel": 3,
      "note": 52,
      "start": 81.1183,
      "duration": 0.018,
      "velocity": 115,
      "chip": "ym2612"
    },
    {
      "channel": 3,
      "note": 51,
      "start": 81.1363,
      "duration": 0.0182,
      "velocity": 115,
      "chip": "ym2612"
    },
    {
      "channel": 3,
      "note": 50,
      "start": 81.1545,
      "duration": 0.0219,
      "velocity": 115,
      "chip": "ym2612"
    },
    {
      "channel": 0,
      "note": 57,
      "start": 81.1731,
      "duration": 0.1815,
      "velocity": 89,
      "chip": "ym2612"
    },
    {
      "channel": 1,
      "note": 21,
      "start": 81.1753,
      "duration": 0.1814,
      "velocity": 127,
      "chip": "ym2612"
    },
    {
      "channel": 2,
      "note": 107,
      "start": 81.1758,
      "duration": 0.088,
      "velocity": 103,
      "chip": "ym2612"
    },
    {
      "channel": 3,
      "note": 48,
      "start": 81.1764,
      "duration": 0.0147,
      "velocity": 115,
      "chip": "ym2612"
    },
    {
      "channel": 3,
      "note": 47,
      "start": 81.1911,
      "duration": 0.0182,
      "velocity": 115,
      "chip": "ym2612"
    },
    {
      "channel": 3,
      "note": 46,
      "start": 81.2093,
      "duration": 0.0182,
      "velocity": 115,
      "chip": "ym2612"
    },
    {
      "channel": 3,
      "note": 44,
      "start": 81.2274,
      "duration": 0.0182,
      "velocity": 115,
      "chip": "ym2612"
    },
    {
      "channel": 3,
      "note": 43,
      "start": 81.2456,
      "duration": 0.019,
      "velocity": 115,
      "chip": "ym2612"
    },
    {
      "channel": 2,
      "note": 107,
      "start": 81.264,
      "duration": 0.1815,
      "velocity": 103,
      "chip": "ym2612"
    },
    {
      "channel": 3,
      "note": 42,
      "start": 81.2646,
      "duration": 0.017,
      "velocity": 115,
      "chip": "ym2612"
    },
    {
      "channel": 3,
      "note": 42,
      "start": 81.2817,
      "duration": 0.0181,
      "velocity": 115,
      "chip": "ym2612"
    },
    {
      "channel": 3,
      "note": 41,
      "start": 81.2998,
      "duration": 0.0181,
      "velocity": 115,
      "chip": "ym2612"
    },
    {
      "channel": 3,
      "note": 40,
      "start": 81.3179,
      "duration": 0.0182,
      "velocity": 115,
      "chip": "ym2612"
    },
    {
      "channel": 3,
      "note": 39,
      "start": 81.3361,
      "duration": 0.0214,
      "velocity": 115,
      "chip": "ym2612"
    },
    {
      "channel": 0,
      "note": 57,
      "start": 81.3547,
      "duration": 0.3616,
      "velocity": 89,
      "chip": "ym2612"
    },
    {
      "channel": 1,
      "note": 74,
      "start": 81.3569,
      "duration": 0.088,
      "velocity": 127,
      "chip": "ym2612"
    },
    {
      "channel": 3,
      "note": 38,
      "start": 81.3575,
      "duration": 0.015,
      "velocity": 115,
      "chip": "ym2612"
    },
    {
      "channel": 3,
      "note": 36,
      "start": 81.3726,
      "duration": 0.0178,
      "velocity": 115,
      "chip": "ym2612"
    },
    {
      "channel": 3,
      "note": 35,
      "start": 81.3904,
      "duration": 0.018,
      "velocity": 115,
      "chip": "ym2612"
    },
    {
      "channel": 3,
      "note": 34,
      "start": 81.4084,
      "duration": 0.018,
      "velocity": 115,
      "chip": "ym2612"
    },
    {
      "channel": 3,
      "note": 32,
      "start": 81.4263,
      "duration": 0.0198,
      "velocity": 115,
      "chip": "ym2612"
    },
    {
      "channel": 1,
      "note": 74,
      "start": 81.4451,
      "duration": 0.0914,
      "velocity": 119,
      "chip": "ym2612"
    },
    {
      "channel": 2,
      "note": 107,
      "start": 81.4456,
      "duration": 0.1824,
      "velocity": 103,
      "chip": "ym2612"
    },
    {
      "channel": 3,
      "note": 31,
      "start": 81.4462,
      "duration": 0.0164,
      "velocity": 115,
      "chip": "ym2612"
    },
    {
      "channel": 3,
      "note": 30,
      "start": 81.4626,
      "duration": 0.018,
      "velocity": 115,
      "chip": "ym2612"
    },
    {
      "channel": 3,
      "note": 30,
      "start": 81.4806,
      "duration": 0.0179,
      "velocity": 115,
      "chip": "ym2612"
    },
    {
      "channel": 3,
      "note": 29,
      "start": 81.4985,
      "duration": 0.0179,
      "velocity": 115,
      "chip": "ym2612"
    },
    {
      "channel": 3,
      "note": 28,
      "start": 81.5164,
      "duration": 0.0209,
      "velocity": 115,
      "chip": "ym2612"
    },
    {
      "channel": 1,
      "note": 31,
      "start": 81.5366,
      "duration": 0.0909,
      "velocity": 127,
      "chip": "ym2612"
    },
    {
      "channel": 3,
      "note": 27,
      "start": 81.5373,
      "duration": 0.0157,
      "velocity": 115,
      "chip": "ym2612"
    },
    {
      "channel": 3,
      "note": 26,
      "start": 81.553,
      "duration": 0.0181,
      "velocity": 115,
      "chip": "ym2612"
    },
    {
      "channel": 3,
      "note": 24,
      "start": 81.5711,
      "duration": 0.0182,
      "velocity": 115,
      "chip": "ym2612"
    },
    {
      "channel": 3,
      "note": 23,
      "start": 81.5893,
      "duration": 0.0181,
      "velocity": 115,
      "chip": "ym2612"
    },
    {
      "channel": 3,
      "note": 22,
      "start": 81.6074,
      "duration": 0.0215,
      "velocity": 115,
      "chip": "ym2612"
    },
    {
      "channel": 1,
      "note": 74,
      "start": 81.6276,
      "duration": 0.0893,
      "velocity": 127,
      "chip": "ym2612"
    },
    {
      "channel": 2,
      "note": 107,
      "start": 81.6282,
      "duration": 0.2694,
      "velocity": 103,
      "chip": "ym2612"
    },
    {
      "channel": 3,
      "note": 20,
      "start": 81.6288,
      "duration": 0.0151,
      "velocity": 115,
      "chip": "ym2612"
    },
    {
      "channel": 3,
      "note": 115,
      "start": 81.6439,
      "duration": 0.0183,
      "velocity": 115,
      "chip": "ym2612"
    },
    {
      "channel": 3,
      "note": 114,
      "start": 81.6622,
      "duration": 0.0179,
      "velocity": 115,
      "chip": "ym2612"
    },
    {
      "channel": 3,
      "note": 114,
      "start": 81.6801,
      "duration": 0.0178,
      "velocity": 115,
      "chip": "ym2612"
    },
    {
      "channel": 3,
      "note": 113,
      "start": 81.6979,
      "duration": 0.0198,
      "velocity": 115,
      "chip": "ym2612"
    },
    {
      "channel": 0,
      "note": 55,
      "start": 81.7166,
      "duration": 2.3587,
      "velocity": 89,
      "chip": "ym2612"
    },
    {
      "channel": 1,
      "note": 74,
      "start": 81.7171,
      "duration": 0.18,
      "velocity": 127,
      "chip": "ym2612"
    },
    {
      "channel": 3,
      "note": 112,
      "start": 81.7178,
      "duration": 0.0166,
      "velocity": 115,
      "chip": "ym2612"
    },
    {
      "channel": 3,
      "note": 111,
      "start": 81.7344,
      "duration": 0.0181,
      "velocity": 115,
      "chip": "ym2612"
    },
    {
      "channel": 3,
      "note": 110,
      "start": 81.7525,
      "duration": 0.0178,
      "velocity": 115,
      "chip": "ym2612"
    },
    {
      "channel": 3,
      "note": 108,
      "start": 81.7703,
      "duration": 0.0179,
      "velocity": 115,
      "chip": "ym2612"
    },
    {
      "channel": 3,
      "note": 107,
      "start": 81.7883,
      "duration": 0.0362,
      "velocity": 115,
      "chip": "ym2612"
    },
    {
      "channel": 3,
      "note": 106,
      "start": 81.8245,
      "duration": 0.0179,
      "velocity": 115,
      "chip": "ym2612"
    },
    {
      "channel": 3,
      "note": 104,
      "start": 81.8424,
      "duration": 0.018,
      "velocity": 115,
      "chip": "ym2612"
    },
    {
      "channel": 3,
      "note": 103,
      "start": 81.8604,
      "duration": 0.0181,
      "velocity": 115,
      "chip": "ym2612"
    },
    {
      "channel": 3,
      "note": 103,
      "start": 81.8785,
      "duration": 0.0202,
      "velocity": 115,
      "chip": "ym2612"
    },
    {
      "channel": 1,
      "note": 74,
      "start": 81.8972,
      "duration": 0.0905,
      "velocity": 127,
      "chip": "ym2612"
    },
    {
      "channel": 2,
      "note": 107,
      "start": 81.8978,
      "duration": 0.1826,
      "velocity": 103,
      "chip": "ym2612"
    },
    {
      "channel": 3,
      "note": 102,
      "start": 81.8987,
      "duration": 0.0164,
      "velocity": 115,
      "chip": "ym2612"
    },
    {
      "channel": 3,
      "note": 101,
      "start": 81.9151,
      "duration": 0.0179,
      "velocity": 115,
      "chip": "ym2612"
    },
    {
      "channel": 3,
      "note": 100,
      "start": 81.933,
      "duration": 0.018,
      "velocity": 115,
      "chip": "ym2612"
    },
    {
      "channel": 3,
      "note": 99,
      "start": 81.951,
      "duration": 0.0182,
      "velocity": 115,
      "chip": "ym2612"
    },
    {
      "channel": 3,
      "note": 98,
      "start": 81.9691,
      "duration": 0.0194,
      "velocity": 115,
      "chip": "ym2612"
    },
    {
      "channel": 1,
      "note": 74,
      "start": 81.9878,
      "duration": 0.0921,
      "velocity": 127,
      "chip": "ym2612"
    },
    {
      "channel": 3,
      "note": 96,
      "start": 81.9885,
      "duration": 0.017,
      "velocity": 115,
      "chip": "ym2612"
    },
    {
      "channel": 3,
      "note": 95,
      "start": 82.0055,
      "duration": 0.018,
      "velocity": 115,
      "chip": "ym2612"
    },
    {
      "channel": 3,
      "note": 94,
      "start": 82.0235,
      "duration": 0.0182,
      "velocity": 115,
      "chip": "ym2612"
    },
    {
      "channel": 3,
      "note": 92,
      "start": 82.0418,
      "duration": 0.0181,
      "velocity": 115,
      "chip": "ym2612"
    },
    {
      "channel": 3,
      "note": 91,
      "start": 82.0599,
      "duration": 0.0213,
      "velocity": 115,
      "chip": "ym2612"
    },
    {
      "channel": 1,
      "note": 21,
      "start": 82.08,
      "duration": 0.0906,
      "velocity": 127,
      "chip": "ym2612"
    },
    {
      "channel": 2,
      "note": 107,
      "start": 82.0806,
      "duration": 0.181,
      "velocity": 103,
      "chip": "ym2612"
    },
    {
      "channel": 3,
      "note": 91,
      "start": 82.0812,
      "duration": 0.0149,
      "velocity": 115,
      "chip": "ym2612"
    },
    {
      "channel": 3,
      "note": 90,
      "start": 82.0962,
      "duration": 0.0181,
      "velocity": 115,
      "chip": "ym2612"
    },
    {
      "channel": 3,
      "note": 89,
      "start": 82.1143,
      "duration": 0.018,
      "velocity": 115,
      "chip": "ym2612"
    },
    {
      "channel": 3,
      "note": 88,
      "start": 82.1323,
      "duration": 0.0181,
      "velocity": 115,
      "chip": "ym2612"
    },
    {
      "channel": 3,
      "note": 87,
      "start": 82.1504,
      "duration": 0.021,
      "velocity": 115,
      "chip": "ym2612"
    },
    {
      "channel": 1,
      "note": 74,
      "start": 82.1707,
      "duration": 0.0904,
      "velocity": 119,
      "chip": "ym2612"
    },
    {
      "channel": 3,
      "note": 86,
      "start": 82.1715,
      "duration": 0.0158,
      "velocity": 115,
      "chip": "ym2612"
    },
    {
      "channel": 3,
      "note": 84,
      "start": 82.1872,
      "duration": 0.0182,
      "velocity": 115,
      "chip": "ym2612"
    },
    {
      "channel": 3,
      "note": 83,
      "start": 82.2054,
      "duration": 0.018,
      "velocity": 115,
      "chip": "ym2612"
    },
    {
      "channel": 3,
      "note": 82,
      "start": 82.2234,
      "duration": 0.018,
      "velocity": 115,
      "chip": "ym2612"
    },
    {
      "channel": 3,
      "note": 80,
      "start": 82.2414,
      "duration": 0.021,
      "velocity": 115,
      "chip": "ym2612"
    },
    {
      "channel": 1,
      "note": 31,
      "start": 82.2612,
      "duration": 0.1816,
      "velocity": 127,
      "chip": "ym2612"
    },
    {
      "channel": 2,
      "note": 107,
      "start": 82.2618,
      "duration": 0.0888,
      "velocity": 103,
      "chip": "ym2612"
    },
    {
      "channel": 3,
      "note": 79,
      "start": 82.2625,
      "duration": 0.0151,
      "velocity": 115,
      "chip": "ym2612"
    },
    {
      "channel": 3,
      "note": 79,
      "start": 82.2776,
      "duration": 0.0183,
      "velocity": 115,
      "chip": "ym2612"
    },
    {
      "channel": 3,
      "note": 78,
      "start": 82.296,
      "duration": 0.0181,
      "velocity": 115,
      "chip": "ym2612"
    },
    {
      "channel": 3,
      "note": 77,
      "start": 82.3141,
      "duration": 0.018,
      "velocity": 115,
      "chip": "ym2612"
    },
    {
      "channel": 3,
      "note": 76,
      "start": 82.3321,
      "duration": 0.0193,
      "velocity": 115,
      "chip": "ym2612"
    },
    {
      "channel": 2,
      "note": 107,
      "start": 82.3508,
      "duration": 0.0925,
      "velocity": 103,
      "chip": "ym2612"
    },
    {
      "channel": 3,
      "note": 75,
      "start": 82.3514,
      "duration": 0.017,
      "velocity": 115,
      "chip": "ym2612"
    },
    {
      "channel": 3,
      "note": 74,
      "start": 82.3684,
      "duration": 0.0181,
      "velocity": 115,
      "chip": "ym2612"
    },
    {
      "channel": 3,
      "note": 72,
      "start": 82.3865,
      "duration": 0.018,
      "velocity": 115,
      "chip": "ym2612"
    },
    {
      "channel": 3,
      "note": 71,
      "start": 82.4044,
      "duration": 0.0182,
      "velocity": 115,
      "chip": "ym2612"
    },
    {
      "channel": 3,
      "note": 70,
      "start": 82.4227,
      "duration": 0.0215,
      "velocity": 115,
      "chip": "ym2612"
    },
    {
      "channel": 1,
      "note": 74,
      "start": 82.443,
      "duration": 0.089,
      "velocity": 127,
      "chip": "ym2612"
    },
    {
      "channel": 2,
      "note": 107,
      "start": 82.4436,
      "duration": 0.1812,
      "velocity": 103,
      "chip": "ym2612"
    },
    {
      "channel": 3,
      "note": 68,
      "start": 82.4441,
      "duration": 0.0153,
      "velocity": 115,
      "chip": "ym2612"
    },
    {
      "channel": 3,
      "note": 67,
      "start": 82.4594,
      "duration": 0.0182,
      "velocity": 115,
      "chip": "ym2612"
    },
    {
      "channel": 3,
      "note": 67,
      "start": 82.4776,
      "duration": 0.0181,
      "velocity": 115,
      "chip": "ym2612"
    },
    {
      "channel": 3,
      "note": 66,
      "start": 82.4957,
      "duration": 0.0179,
      "velocity": 115,
      "chip": "ym2612"
    },
    {
      "channel": 3,
      "note": 65,
      "start": 82.5136,
      "duration": 0.0192,
      "velocity": 115,
      "chip": "ym2612"
    },
    {
      "channel": 1,
      "note": 74,
      "start": 82.5322,
      "duration": 0.092,
      "velocity": 127,
      "chip": "ym2612"
    },
    {
      "channel": 3,
      "note": 64,
      "start": 82.5328,
      "duration": 0.0171,
      "velocity": 115,
      "chip": "ym2612"
    },
    {
      "channel": 3,
      "note": 63,
      "start": 82.5499,
      "duration": 0.0181,
      "velocity": 115,
      "chip": "ym2612"
    },
    {
      "channel": 3,
      "note": 62,
      "start": 82.568,
      "duration": 0.0182,
      "velocity": 115,
      "chip": "ym2612"
    },
    {
      "channel": 3,
      "note": 60,
      "start": 82.5862,
      "duration": 0.018,
      "velocity": 115,
      "chip": "ym2612"
    },
    {
      "channel": 3,
      "note": 59,
      "start": 82.6043,
      "duration": 0.0215,
      "velocity": 115,
      "chip": "ym2612"
    },
    {
      "channel": 1,
      "note": 21,
      "start": 82.6243,
      "duration": 0.181,
      "velocity": 127,
      "chip": "ym2612"
    },
    {
      "channel": 2,
      "note": 107,
      "start": 82.6249,
      "duration": 0.0883,
      "velocity": 103,
      "chip": "ym2612"
    },
    {
      "channel": 3,
      "note": 58,
      "start": 82.6258,
      "duration": 0.0147,
      "velocity": 115,
      "chip": "ym2612"
    },
    {
      "channel": 3,
      "note": 56,
      "start": 82.6405,
      "duration": 0.0182,
      "velocity": 115,
      "chip": "ym2612"
    },
    {
      "channel": 3,
      "note": 55,
      "start": 82.6588,
      "duration": 0.0179,
      "velocity": 115,
      "chip": "ym2612"
    },
    {
      "channel": 3,
      "note": 55,
      "start": 82.6767,
      "duration": 0.0181,
      "velocity": 115,
      "chip": "ym2612"
    },
    {
      "channel": 3,
      "note": 54,
      "start": 82.6948,
      "duration": 0.0191,
      "velocity": 115,
      "chip": "ym2612"
    },
    {
      "channel": 2,
      "note": 107,
      "start": 82.7134,
      "duration": 0.1816,
      "velocity": 103,
      "chip": "ym2612"
    },
    {
      "channel": 3,
      "note": 72,
      "start": 82.714,
      "duration": 0.0006,
      "velocity": 115,
      "chip": "ym2612"
    },
    {
      "channel": 3,
      "note": 71,
      "start": 82.7146,
      "duration": 0.0166,
      "velocity": 115,
      "chip": "ym2612"
    },
    {
      "channel": 3,
      "note": 69,
      "start": 82.7312,
      "duration": 0.0181,
      "velocity": 115,
      "chip": "ym2612"
    },
    {
      "channel": 3,
      "note": 68,
      "start": 82.7493,
      "duration": 0.0183,
      "velocity": 115,
      "chip": "ym2612"
    },
    {
      "channel": 3,
      "note": 67,
      "start": 82.7676,
      "duration": 0.0179,
      "velocity": 115,
      "chip": "ym2612"
    },
    {
      "channel": 3,
      "note": 66,
      "start": 82.7854,
      "duration": 0.0207,
      "velocity": 115,
      "chip": "ym2612"
    },
    {
      "channel": 1,
      "note": 74,
      "start": 82.8054,
      "duration": 0.089,
      "velocity": 127,
      "chip": "ym2612"
    },
    {
      "channel": 3,
      "note": 65,
      "start": 82.8061,
      "duration": 0.0154,
      "velocity": 115,
      "chip": "ym2612"
    },
    {
      "channel": 3,
      "note": 64,
      "start": 82.8216,
      "duration": 0.018,
      "velocity": 115,
      "chip": "ym2612"
    },
    {
      "channel": 3,
      "note": 63,
      "start": 82.8395,
      "duration": 0.0182,
      "velocity": 115,
      "chip": "ym2612"
    },
    {
      "channel": 3,
      "note": 62,
      "start": 82.8577,
      "duration": 0.0184,
      "velocity": 115,
      "chip": "ym2612"
    },
    {
      "channel": 3,
      "note": 61,
      "start": 82.8761,
      "duration": 0.0197,
      "velocity": 115,
      "chip": "ym2612"
    },
    {
      "channel": 1,
      "note": 74,
      "start": 82.8946,
      "duration": 0.0923,
      "velocity": 119,
      "chip": "ym2612"
    },
    {
      "channel": 2,
      "note": 107,
      "start": 82.8951,
      "duration": 0.1835,
      "velocity": 103,
      "chip": "ym2612"
    },
    {
      "channel": 3,
      "note": 60,
      "start": 82.8958,
      "duration": 0.0166,
      "velocity": 115,
      "chip": "ym2612"
    },
    {
      "channel": 3,
      "note": 59,
      "start": 82.9124,
      "duration": 0.0181,
      "velocity": 115,
      "chip": "ym2612"
    },
    {
      "channel": 3,
      "note": 57,
      "start": 82.9305,
      "duration": 0.0182,
      "velocity": 115,
      "chip": "ym2612"
    },
    {
      "channel": 3,
      "note": 56,
      "start": 82.9488,
      "duration": 0.0181,
      "velocity": 115,
      "chip": "ym2612"
    },
    {
      "channel": 3,
      "note": 55,
      "start": 82.9669,
      "duration": 0.0207,
      "velocity": 115,
      "chip": "ym2612"
    },
    {
      "channel": 1,
      "note": 31,
      "start": 82.9871,
      "duration": 0.091,
      "velocity": 127,
      "chip": "ym2612"
    },
    {
      "channel": 3,
      "note": 72,
      "start": 82.9878,
      "duration": 0.0006,
      "velocity": 115,
      "chip": "ym2612"
    },
    {
      "channel": 3,
      "note": 71,
      "start": 82.9883,
      "duration": 0.0152,
      "velocity": 115,
      "chip": "ym2612"
    },
    {
      "channel": 3,
      "note": 69,
      "start": 83.0035,
      "duration": 0.0181,
      "velocity": 115,
      "chip": "ym2612"
    },
    {
      "channel": 3,
      "note": 68,
      "start": 83.0217,
      "duration": 0.0183,
      "velocity": 115,
      "chip": "ym2612"
    },
    {
      "channel": 3,
      "note": 67,
      "start": 83.04,
      "duration": 0.018,
      "velocity": 115,
      "chip": "ym2612"
    },
    {
      "channel": 3,
      "note": 66,
      "start": 83.058,
      "duration": 0.0214,
      "velocity": 115,
      "chip": "ym2612"
    },
    {
      "channel": 1,
      "note": 74,
      "start": 83.0782,
      "duration": 0.0909,
      "velocity": 127,
      "chip": "ym2612"
    },
    {
      "channel": 2,
      "note": 107,
      "start": 83.0788,
      "duration": 0.2722,
      "velocity": 103,
      "chip": "ym2612"
    },
    {
      "channel": 3,
      "note": 65,
      "start": 83.0794,
      "duration": 0.0152,
      "velocity": 115,
      "chip": "ym2612"
    },
    {
      "channel": 3,
      "note": 64,
      "start": 83.0946,
      "duration": 0.018,
      "velocity": 115,
      "chip": "ym2612"
    },
    {
      "channel": 3,
      "note": 63,
      "start": 83.1126,
      "duration": 0.0181,
      "velocity": 115,
      "chip": "ym2612"
    },
    {
      "channel": 3,
      "note": 62,
      "start": 83.1307,
      "duration": 0.0182,
      "velocity": 115,
      "chip": "ym2612"
    },
    {
      "channel": 3,
      "note": 61,
      "start": 83.1489,
      "duration": 0.0208,
      "velocity": 115,
      "chip": "ym2612"
    },
    {
      "channel": 1,
      "note": 21,
      "start": 83.1692,
      "duration": 0.1813,
      "velocity": 127,
      "chip": "ym2612"
    },
    {
      "channel": 3,
      "note": 69,
      "start": 83.1698,
      "duration": 0.0006,
      "velocity": 115,
      "chip": "ym2612"
    },
    {
      "channel": 3,
      "note": 68,
      "start": 83.1704,
      "duration": 0.015,
      "velocity": 115,
      "chip": "ym2612"
    },
    {
      "channel": 3,
      "note": 67,
      "start": 83.1854,
      "duration": 0.018,
      "velocity": 115,
      "chip": "ym2612"
    },
    {
      "channel": 3,
      "note": 66,
      "start": 83.2034,
      "duration": 0.0182,
      "velocity": 115,
      "chip": "ym2612"
    },
    {
      "channel": 3,
      "note": 65,
      "start": 83.2216,
      "duration": 0.0182,
      "velocity": 115,
      "chip": "ym2612"
    },
    {
      "channel": 3,
      "note": 64,
      "start": 83.2398,
      "duration": 0.0361,
      "velocity": 115,
      "chip": "ym2612"
    },
    {
      "channel": 3,
      "note": 63,
      "start": 83.276,
      "duration": 0.0181,
      "velocity": 115,
      "chip": "ym2612"
    },
    {
      "channel": 3,
      "note": 62,
      "start": 83.2941,
      "duration": 0.0182,
      "velocity": 115,
      "chip": "ym2612"
    },
    {
      "channel": 3,
      "note": 61,
      "start": 83.3123,
      "duration": 0.0181,
      "velocity": 115,
      "chip": "ym2612"
    },
    {
      "channel": 3,
      "note": 60,
      "start": 83.3305,
      "duration": 0.0214,
      "velocity": 115,
      "chip": "ym2612"
    },
    {
      "channel": 1,
      "note": 74,
      "start": 83.3507,
      "duration": 0.0883,
      "velocity": 127,
      "chip": "ym2612"
    },
    {
      "channel": 2,
      "note": 107,
      "start": 83.3513,
      "duration": 0.1807,
      "velocity": 103,
      "chip": "ym2612"
    },
    {
      "channel": 3,
      "note": 58,
      "start": 83.3518,
      "duration": 0.0153,
      "velocity": 115,
      "chip": "ym2612"
    },
    {
      "channel": 3,
      "note": 57,
      "start": 83.3671,
      "duration": 0.0179,
      "velocity": 115,
      "chip": "ym2612"
    },
    {
      "channel": 3,
      "note": 56,
      "start": 83.385,
      "duration": 0.0178,
      "velocity": 115,
      "chip": "ym2612"
    },
    {
      "channel": 3,
      "note": 55,
      "start": 83.4029,
      "duration": 0.018,
      "velocity": 115,
      "chip": "ym2612"
    },
    {
      "channel": 3,
      "note": 54,
      "start": 83.4208,
      "duration": 0.0188,
      "velocity": 115,
      "chip": "ym2612"
    },
    {
      "channel": 1,
      "note": 74,
      "start": 83.4391,
      "duration": 0.0923,
      "velocity": 127,
      "chip": "ym2612"
    },
    {
      "channel": 3,
      "note": 72,
      "start": 83.4398,
      "duration": 0.0005,
      "velocity": 115,
      "chip": "ym2612"
    },
    {
      "channel": 3,
      "note": 71,
      "start": 83.4403,
      "duration": 0.0164,
      "velocity": 115,
      "chip": "ym2612"
    },
    {
      "channel": 3,
      "note": 69,
      "start": 83.4568,
      "duration": 0.0183,
      "velocity": 115,
      "chip": "ym2612"
    },
    {
      "channel": 3,
      "note": 68,
      "start": 83.475,
      "duration": 0.0181,
      "velocity": 115,
      "chip": "ym2612"
    },
    {
      "channel": 3,
      "note": 67,
      "start": 83.4931,
      "duration": 0.0182,
      "velocity": 115,
      "chip": "ym2612"
    },
    {
      "channel": 3,
      "note": 66,
      "start": 83.5113,
      "duration": 0.0214,
      "velocity": 115,
      "chip": "ym2612"
    },
    {
      "channel": 1,
      "note": 21,
      "start": 83.5316,
      "duration": 0.0905,
      "velocity": 127,
      "chip": "ym2612"
    },
    {
      "channel": 2,
      "note": 107,
      "start": 83.5321,
      "duration": 0.181,
      "velocity": 103,
      "chip": "ym2612"
    },
    {
      "channel": 3,
      "note": 65,
      "start": 83.5327,
      "duration": 0.0152,
      "velocity": 115,
      "chip": "ym2612"
    },
    {
      "channel": 3,
      "note": 64,
      "start": 83.5479,
      "duration": 0.0181,
      "velocity": 115,
      "chip": "ym2612"
    },
    {
      "channel": 3,
      "note": 63,
      "start": 83.5661,
      "duration": 0.0182,
      "velocity": 115,
      "chip": "ym2612"
    },
    {
      "channel": 3,
      "note": 62,
      "start": 83.5842,
      "duration": 0.018,
      "velocity": 115,
      "chip": "ym2612"
    },
    {
      "channel": 3,
      "note": 61,
      "start": 83.6022,
      "duration": 0.0207,
      "velocity": 115,
      "chip": "ym2612"
    },
    {
      "channel": 1,
      "note": 74,
      "start": 83.6222,
      "duration": 0.0904,
      "velocity": 119,
      "chip": "ym2612"
    },
    {
      "channel": 3,
      "note": 60,
      "start": 83.6229,
      "duration": 0.0155,
      "velocity": 115,
      "chip": "ym2612"
    },
    {
      "channel": 3,
      "note": 59,
      "start": 83.6383,
      "duration": 0.018,
      "velocity": 115,
      "chip": "ym2612"
    },
    {
      "channel": 3,
      "note": 57,
      "start": 83.6563,
      "duration": 0.018,
      "velocity": 115,
      "chip": "ym2612"
    },
    {
      "channel": 3,
      "note": 56,
      "start": 83.6743,
      "duration": 0.0182,
      "velocity": 115,
      "chip": "ym2612"
    },
    {
      "channel": 3,
      "note": 55,
      "start": 83.6925,
      "duration": 0.0212,
      "velocity": 115,
      "chip": "ym2612"
    },
    {
      "channel": 1,
      "note": 31,
      "start": 83.7127,
      "duration": 0.0908,
      "velocity": 127,
      "chip": "ym2612"
    },
    {
      "channel": 2,
      "note": 107,
      "start": 83.7133,
      "duration": 0.0907,
      "velocity": 103,
      "chip": "ym2612"
    },
    {
      "channel": 3,
      "note": 76,
      "start": 83.7139,
      "duration": 0.0006,
      "velocity": 115,
      "chip": "ym2612"
    },
    {
      "channel": 3,
      "note": 75,
      "start": 83.7144,
      "duration": 0.0147,
      "velocity": 115,
      "chip": "ym2612"
    },
    {
      "channel": 3,
      "note": 74,
      "start": 83.7292,
      "duration": 0.0181,
      "velocity": 115,
      "chip": "ym2612"
    },
    {
      "channel": 3,
      "note": 73,
      "start": 83.7473,
      "duration": 0.0181,
      "velocity": 115,
      "chip": "ym2612"
    },
    {
      "channel": 3,
      "note": 72,
      "start": 83.7655,
      "duration": 0.0181,
      "velocity": 115,
      "chip": "ym2612"
    },
    {
      "channel": 3,
      "note": 70,
      "start": 83.7836,
      "duration": 0.021,
      "velocity": 115,
      "chip": "ym2612"
    },
    {
      "channel": 1,
      "note": 74,
      "start": 83.8037,
      "duration": 0.0895,
      "velocity": 127,
      "chip": "ym2612"
    },
    {
      "channel": 2,
      "note": 107,
      "start": 83.8043,
      "duration": 0.0894,
      "velocity": 103,
      "chip": "ym2612"
    },
    {
      "channel": 3,
      "note": 76,
      "start": 83.8048,
      "duration": 0.0006,
      "velocity": 115,
      "chip": "ym2612"
    },
    {
      "channel": 3,
      "note": 75,
      "start": 83.8054,
      "duration": 0.0146,
      "velocity": 115,
      "chip": "ym2612"
    },
    {
      "channel": 3,
      "note": 74,
      "start": 83.82,
      "duration": 0.0181,
      "velocity": 115,
      "chip": "ym2612"
    },
    {
      "channel": 3,
      "note": 73,
      "start": 83.8382,
      "duration": 0.0182,
      "velocity": 115,
      "chip": "ym2612"
    },
    {
      "channel": 3,
      "note": 72,
      "start": 83.8563,
      "duration": 0.0182,
      "velocity": 115,
      "chip": "ym2612"
    },
    {
      "channel": 3,
      "note": 70,
      "start": 83.8745,
      "duration": 0.0198,
      "velocity": 115,
      "chip": "ym2612"
    },
    {
      "channel": 1,
      "note": 74,
      "start": 83.8933,
      "duration": 0.0907,
      "velocity": 127,
      "chip": "ym2612"
    },
    {
      "channel": 2,
      "note": 107,
      "start": 83.8938,
      "duration": 0.1842,
      "velocity": 103,
      "chip": "ym2612"
    },
    {
      "channel": 3,
      "note": 69,
      "start": 83.8945,
      "duration": 0.0008,
      "velocity": 115,
      "chip": "ym2612"
    },
    {
      "channel": 3,
      "note": 68,
      "start": 83.8953,
      "duration": 0.0157,
      "velocity": 115,
      "chip": "ym2612"
    },
    {
      "channel": 3,
      "note": 67,
      "start": 83.911,
      "duration": 0.0182,
      "velocity": 115,
      "chip": "ym2612"
    },
    {
      "channel": 3,
      "note": 66,
      "start": 83.9292,
      "duration": 0.0182,
      "velocity": 115,
      "chip": "ym2612"
    },
    {
      "channel": 3,
      "note": 65,
      "start": 83.9473,
      "duration": 0.0183,
      "velocity": 115,
      "chip": "ym2612"
    },
    {
      "channel": 3,
      "note": 64,
      "start": 83.9656,
      "duration": 0.0193,
      "velocity": 115,
      "chip": "ym2612"
    },
    {
      "channel": 1,
      "note": 74,
      "start": 83.9841,
      "duration": 0.0933,
      "velocity": 127,
      "chip": "ym2612"
    },
    {
      "channel": 3,
      "note": 63,
      "start": 83.9848,
      "duration": 0.0171,
      "velocity": 115,
      "chip": "ym2612"
    },
    {
      "channel": 3,
      "note": 62,
      "start": 84.002,
      "duration": 0.0182,
      "velocity": 115,
      "chip": "ym2612"
    },
    {
      "channel": 3,
      "note": 61,
      "start": 84.0202,
      "duration": 0.0181,
      "velocity": 115,
      "chip": "ym2612"
    },
    {
      "channel": 3,
      "note": 60,
      "start": 84.0383,
      "duration": 0.0183,
      "velocity": 115,
      "chip": "ym2612"
    },
    {
      "channel": 3,
      "note": 58,
      "start": 84.0565,
      "duration": 0.0237,
      "velocity": 1,
      "chip": "ym2612"
    },
    {
      "channel": 0,
      "note": 57,
      "start": 84.0755,
      "duration": 0.1811,
      "velocity": 89,
      "chip": "ym2612"
    },
    {
      "channel": 1,
      "note": 21,
      "start": 84.0776,
      "duration": 0.1811,
      "velocity": 127,
      "chip": "ym2612"
    },
    {
      "channel": 2,
      "note": 107,
      "start": 84.0782,
      "duration": 0.0882,
      "velocity": 103,
      "chip": "ym2612"
    },
    {
      "channel": 3,
      "note": 79,
      "start": 84.0804,
      "duration": 1.537,
      "velocity": 115,
      "chip": "ym2612"
    },
    {
      "channel": 2,
      "note": 107,
      "start": 84.1665,
      "duration": 0.1813,
      "velocity": 103,
      "chip": "ym2612"
    },
    {
      "channel": 0,
      "note": 57,
      "start": 84.2568,
      "duration": 0.3624,
      "velocity": 89,
      "chip": "ym2612"
    },
    {
      "channel": 1,
      "note": 74,
      "start": 84.2589,
      "duration": 0.0883,
      "velocity": 127,
      "chip": "ym2612"
    },
    {
      "channel": 1,
      "note": 74,
      "start": 84.3474,
      "duration": 0.0922,
      "velocity": 119,
      "chip": "ym2612"
    },
    {
      "channel": 2,
      "note": 107,
      "start": 84.348,
      "duration": 0.1826,
      "velocity": 103,
      "chip": "ym2612"
    },
    {
      "channel": 1,
      "note": 31,
      "start": 84.4397,
      "duration": 0.0904,
      "velocity": 127,
      "chip": "ym2612"
    },
    {
      "channel": 1,
      "note": 74,
      "start": 84.5301,
      "duration": 0.0895,
      "velocity": 127,
      "chip": "ym2612"
    },
    {
      "channel": 2,
      "note": 107,
      "start": 84.5307,
      "duration": 0.2698,
      "velocity": 103,
      "chip": "ym2612"
    },
    {
      "channel": 0,
      "note": 55,
      "start": 84.6194,
      "duration": 2.3572,
      "velocity": 89,
      "chip": "ym2612"
    },
    {
      "channel": 1,
      "note": 74,
      "start": 84.6199,
      "duration": 0.1802,
      "velocity": 127,
      "chip": "ym2612"
    },
    {
      "channel": 1,
      "note": 74,
      "start": 84.8002,
      "duration": 0.0904,
      "velocity": 127,
      "chip": "ym2612"
    },
    {
      "channel": 2,
      "note": 107,
      "start": 84.8007,
      "duration": 0.1825,
      "velocity": 103,
      "chip": "ym2612"
    },
    {
      "channel": 1,
      "note": 74,
      "start": 84.8908,
      "duration": 0.0919,
      "velocity": 127,
      "chip": "ym2612"
    },
    {
      "channel": 1,
      "note": 21,
      "start": 84.9828,
      "duration": 0.0907,
      "velocity": 127,
      "chip": "ym2612"
    },
    {
      "channel": 2,
      "note": 107,
      "start": 84.9834,
      "duration": 0.1812,
      "velocity": 103,
      "chip": "ym2612"
    },
    {
      "channel": 1,
      "note": 74,
      "start": 85.0737,
      "duration": 0.0904,
      "velocity": 119,
      "chip": "ym2612"
    },
    {
      "channel": 1,
      "note": 31,
      "start": 85.1643,
      "duration": 0.1806,
      "velocity": 127,
      "chip": "ym2612"
    },
    {
      "channel": 2,
      "note": 107,
      "start": 85.1648,
      "duration": 0.088,
      "velocity": 103,
      "chip": "ym2612"
    },
    {
      "channel": 2,
      "note": 107,
      "start": 85.253,
      "duration": 0.0923,
      "velocity": 103,
      "chip": "ym2612"
    },
    {
      "channel": 1,
      "note": 74,
      "start": 85.3449,
      "duration": 0.0889,
      "velocity": 127,
      "chip": "ym2612"
    },
    {
      "channel": 2,
      "note": 107,
      "start": 85.3455,
      "duration": 0.1809,
      "velocity": 103,
      "chip": "ym2612"
    },
    {
      "channel": 1,
      "note": 74,
      "start": 85.434,
      "duration": 0.092,
      "velocity": 127,
      "chip": "ym2612"
    },
    {
      "channel": 1,
      "note": 21,
      "start": 85.5261,
      "duration": 0.1816,
      "velocity": 127,
      "chip": "ym2612"
    },
    {
      "channel": 2,
      "note": 107,
      "start": 85.5267,
      "duration": 0.0885,
      "velocity": 103,
      "chip": "ym2612"
    },
    {
      "channel": 2,
      "note": 107,
      "start": 85.6153,
      "duration": 0.1822,
      "velocity": 103,
      "chip": "ym2612"
    },
    {
      "channel": 3,
      "note": 72,
      "start": 85.6175,
      "duration": 0.0006,
      "velocity": 115,
      "chip": "ym2612"
    },
    {
      "channel": 3,
      "note": 71,
      "start": 85.618,
      "duration": 0.0153,
      "velocity": 115,
      "chip": "ym2612"
    },
    {
      "channel": 3,
      "note": 69,
      "start": 85.6333,
      "duration": 0.018,
      "velocity": 115,
      "chip": "ym2612"
    },
    {
      "channel": 3,
      "note": 68,
      "start": 85.6513,
      "duration": 0.0183,
      "velocity": 115,
      "chip": "ym2612"
    },
    {
      "channel": 3,
      "note": 67,
      "start": 85.6696,
      "duration": 0.0179,
      "velocity": 115,
      "chip": "ym2612"
    },
    {
      "channel": 3,
      "note": 66,
      "start": 85.6875,
      "duration": 0.021,
      "velocity": 115,
      "chip": "ym2612"
    },
    {
      "channel": 1,
      "note": 74,
      "start": 85.7078,
      "duration": 0.0891,
      "velocity": 127,
      "chip": "ym2612"
    },
    {
      "channel": 3,
      "note": 65,
      "start": 85.7085,
      "duration": 0.0154,
      "velocity": 115,
      "chip": "ym2612"
    },
    {
      "channel": 3,
      "note": 64,
      "start": 85.7239,
      "duration": 0.0183,
      "velocity": 115,
      "chip": "ym2612"
    },
    {
      "channel": 3,
      "note": 63,
      "start": 85.7422,
      "duration": 0.018,
      "velocity": 115,
      "chip": "ym2612"
    },
    {
      "channel": 3,
      "note": 62,
      "start": 85.7602,
      "duration": 0.0182,
      "velocity": 115,
      "chip": "ym2612"
    },
    {
      "channel": 3,
      "note": 61,
      "start": 85.7785,
      "duration": 0.0197,
      "velocity": 115,
      "chip": "ym2612"
    },
    {
      "channel": 1,
      "note": 74,
      "start": 85.7971,
      "duration": 0.0924,
      "velocity": 119,
      "chip": "ym2612"
    },
    {
      "channel": 2,
      "note": 107,
      "start": 85.7976,
      "duration": 0.1825,
      "velocity": 103,
      "chip": "ym2612"
    },
    {
      "channel": 3,
      "note": 60,
      "start": 85.7982,
      "duration": 0.0167,
      "velocity": 115,
      "chip": "ym2612"
    },
    {
      "channel": 3,
      "note": 59,
      "start": 85.8149,
      "duration": 0.0182,
      "velocity": 115,
      "chip": "ym2612"
    },
    {
      "channel": 3,
      "note": 57,
      "start": 85.8331,
      "duration": 0.0183,
      "velocity": 115,
      "chip": "ym2612"
    },
    {
      "channel": 3,
      "note": 56,
      "start": 85.8513,
      "duration": 0.0181,
      "velocity": 115,
      "chip": "ym2612"
    },
    {
      "channel": 3,
      "note": 55,
      "start": 85.8694,
      "duration": 0.0206,
      "velocity": 115,
      "chip": "ym2612"
    },
    {
      "channel": 1,
      "note": 31,
      "start": 85.8895,
      "duration": 0.0901,
      "velocity": 127,
      "chip": "ym2612"
    },
    {
      "channel": 3,
      "note": 72,
      "start": 85.8902,
      "duration": 0.0005,
      "velocity": 115,
      "chip": "ym2612"
    },
    {
      "channel": 3,
      "note": 71,
      "start": 85.8908,
      "duration": 0.0152,
      "velocity": 115,
      "chip": "ym2612"
    },
    {
      "channel": 3,
      "note": 69,
      "start": 85.906,
      "duration": 0.018,
      "velocity": 115,
      "chip": "ym2612"
    },
    {
      "channel": 3,
      "note": 68,
      "start": 85.9239,
      "duration": 0.0178,
      "velocity": 115,
      "chip": "ym2612"
    },
    {
      "channel": 3,
      "note": 67,
      "start": 85.9417,
      "duration": 0.018,
      "velocity": 115,
      "chip": "ym2612"
    },
    {
      "channel": 3,
      "note": 66,
      "start": 85.9598,
      "duration": 0.0211,
      "velocity": 115,
      "chip": "ym2612"
    },
    {
      "channel": 1,
      "note": 74,
      "start": 85.9797,
      "duration": 0.0906,
      "velocity": 127,
      "chip": "ym2612"
    },
    {
      "channel": 2,
      "note": 107,
      "start": 85.9803,
      "duration": 0.2708,
      "velocity": 103,
      "chip": "ym2612"
    },
    {
      "channel": 3,
      "note": 65,
      "start": 85.9809,
      "duration": 0.015,
      "velocity": 115,
      "chip": "ym2612"
    },
    {
      "channel": 3,
      "note": 64,
      "start": 85.9959,
      "duration": 0.0183,
      "velocity": 115,
      "chip": "ym2612"
    },
    {
      "channel": 3,
      "note": 63,
      "start": 86.0142,
      "duration": 0.0181,
      "velocity": 115,
      "chip": "ym2612"
    },
    {
      "channel": 3,
      "note": 62,
      "start": 86.0323,
      "duration": 0.0181,
      "velocity": 115,
      "chip": "ym2612"
    },
    {
      "channel": 3,
      "note": 61,
      "start": 86.0504,
      "duration": 0.0207,
      "velocity": 115,
      "chip": "ym2612"
    },
    {
      "channel": 1,
      "note": 21,
      "start": 86.0705,
      "duration": 0.0909,
      "velocity": 127,
      "chip": "ym2612"
    },
    {
      "channel": 3,
      "note": 60,
      "start": 86.0711,
      "duration": 0.0157,
      "velocity": 115,
      "chip": "ym2612"
    },
    {
      "channel": 3,
      "note": 59,
      "start": 86.0868,
      "duration": 0.0181,
      "velocity": 115,
      "chip": "ym2612"
    },
    {
      "channel": 3,
      "note": 57,
      "start": 86.105,
      "duration": 0.0182,
      "velocity": 115,
      "chip": "ym2612"
    },
    {
      "channel": 3,
      "note": 56,
      "start": 86.1232,
      "duration": 0.0182,
      "velocity": 115,
      "chip": "ym2612"
    },
    {
      "channel": 3,
      "note": 55,
      "start": 86.1413,
      "duration": 0.0209,
      "velocity": 115,
      "chip": "ym2612"
    },
    {
      "channel": 1,
      "note": 74,
      "start": 86.1615,
      "duration": 0.0891,
      "velocity": 127,
      "chip": "ym2612"
    },
    {
      "channel": 3,
      "note": 54,
      "start": 86.1622,
      "duration": 0.0155,
      "velocity": 115,
      "chip": "ym2612"
    },
    {
      "channel": 3,
      "note": 53,
      "start": 86.1777,
      "duration": 0.0182,
      "velocity": 115,
      "chip": "ym2612"
    },
    {
      "channel": 3,
      "note": 52,
      "start": 86.1959,
      "duration": 0.0181,
      "velocity": 115,
      "chip": "ym2612"
    },
    {
      "channel": 3,
      "note": 51,
      "start": 86.2141,
      "duration": 0.018,
      "velocity": 115,
      "chip": "ym2612"
    },
    {
      "channel": 3,
      "note": 50,
      "start": 86.2321,
      "duration": 0.0196,
      "velocity": 115,
      "chip": "ym2612"
    },
    {
      "channel": 1,
      "note": 74,
      "start": 86.2507,
      "duration": 0.1832,
      "velocity": 127,
      "chip": "ym2612"
    },
    {
      "channel": 2,
      "note": 107,
      "start": 86.2513,
      "duration": 0.1832,
      "velocity": 103,
      "chip": "ym2612"
    },
    {
      "channel": 3,
      "note": 76,
      "start": 86.2519,
      "duration": 0.0006,
      "velocity": 115,
      "chip": "ym2612"
    },
    {
      "channel": 3,
      "note": 75,
      "start": 86.2524,
      "duration": 0.0159,
      "velocity": 115,
      "chip": "ym2612"
    },
    {
      "channel": 3,
      "note": 74,
      "start": 86.2684,
      "duration": 0.0181,
      "velocity": 115,
      "chip": "ym2612"
    },
    {
      "channel": 3,
      "note": 73,
      "start": 86.2865,
      "duration": 0.0182,
      "velocity": 115,
      "chip": "ym2612"
    },
    {
      "channel": 3,
      "note": 72,
      "start": 86.3047,
      "duration": 0.0183,
      "velocity": 115,
      "chip": "ym2612"
    },
    {
      "channel": 3,
      "note": 70,
      "start": 86.323,
      "duration": 0.0186,
      "velocity": 115,
      "chip": "ym2612"
    },
    {
      "channel": 3,
      "note": 76,
      "start": 86.3418,
      "duration": 0.0006,
      "velocity": 115,
      "chip": "ym2612"
    },
    {
      "channel": 3,
      "note": 75,
      "start": 86.3424,
      "duration": 0.017,
      "velocity": 115,
      "chip": "ym2612"
    },
    {
      "channel": 3,
      "note": 74,
      "start": 86.3594,
      "duration": 0.0182,
      "velocity": 115,
      "chip": "ym2612"
    },
    {
      "channel": 3,
      "note": 73,
      "start": 86.3776,
      "duration": 0.0182,
      "velocity": 115,
      "chip": "ym2612"
    },
    {
      "channel": 3,
      "note": 72,
      "start": 86.3958,
      "duration": 0.0182,
      "velocity": 115,
      "chip": "ym2612"
    },
    {
      "channel": 3,
      "note": 70,
      "start": 86.414,
      "duration": 0.0211,
      "velocity": 115,
      "chip": "ym2612"
    },
    {
      "channel": 1,
      "note": 21,
      "start": 86.4341,
      "duration": 0.1815,
      "velocity": 119,
      "chip": "ym2612"
    },
    {
      "channel": 2,
      "note": 107,
      "start": 86.4347,
      "duration": 0.1814,
      "velocity": 103,
      "chip": "ym2612"
    },
    {
      "channel": 3,
      "note": 76,
      "start": 86.4352,
      "duration": 0.0009,
      "velocity": 115,
      "chip": "ym2612"
    },
    {
      "channel": 3,
      "note": 75,
      "start": 86.4361,
      "duration": 0.0144,
      "velocity": 115,
      "chip": "ym2612"
    },
    {
      "channel": 3,
      "note": 74,
      "start": 86.4505,
      "duration": 0.0181,
      "velocity": 115,
      "chip": "ym2612"
    },
    {
      "channel": 3,
      "note": 73,
      "start": 86.4686,
      "duration": 0.0182,
      "velocity": 115,
      "chip": "ym2612"
    },
    {
      "channel": 3,
      "note": 72,
      "start": 86.4868,
      "duration": 0.0182,
      "velocity": 115,
      "chip": "ym2612"
    },
    {
      "channel": 3,
      "note": 70,
      "start": 86.505,
      "duration": 0.0361,
      "velocity": 115,
      "chip": "ym2612"
    },
    {
      "channel": 3,
      "note": 69,
      "start": 86.5411,
      "duration": 0.0183,
      "velocity": 115,
      "chip": "ym2612"
    },
    {
      "channel": 3,
      "note": 68,
      "start": 86.5594,
      "duration": 0.018,
      "velocity": 115,
      "chip": "ym2612"
    },
    {
      "channel": 3,
      "note": 67,
      "start": 86.5774,
      "duration": 0.0183,
      "velocity": 115,
      "chip": "ym2612"
    },
    {
      "channel": 3,
      "note": 66,
      "start": 86.5957,
      "duration": 0.021,
      "velocity": 115,
      "chip": "ym2612"
    },
    {
      "channel": 1,
      "note": 31,
      "start": 86.6157,
      "duration": 0.0911,
      "velocity": 127,
      "chip": "ym2612"
    },
    {
      "channel": 2,
      "note": 107,
      "start": 86.6163,
      "duration": 0.091,
      "velocity": 103,
      "chip": "ym2612"
    },
    {
      "channel": 3,
      "note": 71,
      "start": 86.6169,
      "duration": 0.0006,
      "velocity": 115,
      "chip": "ym2612"
    },
    {
      "channel": 3,
      "note": 70,
      "start": 86.6174,
      "duration": 0.0147,
      "velocity": 115,
      "chip": "ym2612"
    },
    {
      "channel": 3,
      "note": 68,
      "start": 86.6321,
      "duration": 0.0181,
      "velocity": 115,
      "chip": "ym2612"
    },
    {
      "channel": 3,
      "note": 67,
      "start": 86.6502,
      "duration": 0.0182,
      "velocity": 115,
      "chip": "ym2612"
    },
    {
      "channel": 3,
      "note": 66,
      "start": 86.6684,
      "duration": 0.0182,
      "velocity": 115,
      "chip": "ym2612"
    },
    {
      "channel": 3,
      "note": 66,
      "start": 86.6866,
      "duration": 0.0215,
      "velocity": 115,
      "chip": "ym2612"
    },
    {
      "channel": 1,
      "note": 74,
      "start": 86.7069,
      "duration": 0.0889,
      "velocity": 127,
      "chip": "ym2612"
    },
    {
      "channel": 2,
      "note": 107,
      "start": 86.7075,
      "duration": 0.0889,
      "velocity": 103,
      "chip": "ym2612"
    },
    {
      "channel": 3,
      "note": 65,
      "start": 86.7082,
      "duration": 0.0151,
      "velocity": 115,
      "chip": "ym2612"
    },
    {
      "channel": 3,
      "note": 64,
      "start": 86.7233,
      "duration": 0.0181,
      "velocity": 115,
      "chip": "ym2612"
    },
    {
      "channel": 3,
      "note": 63,
      "start": 86.7414,
      "duration": 0.0181,
      "velocity": 115,
      "chip": "ym2612"
    },
    {
      "channel": 3,
      "note": 61,
      "start": 86.7596,
      "duration": 0.0179,
      "velocity": 115,
      "chip": "ym2612"
    },
    {
      "channel": 3,
      "note": 60,
      "start": 86.7775,
      "duration": 0.0197,
      "velocity": 115,
      "chip": "ym2612"
    },
    {
      "channel": 1,
      "note": 74,
      "start": 86.7961,
      "duration": 0.0898,
      "velocity": 127,
      "chip": "ym2612"
    },
    {
      "channel": 2,
      "note": 107,
      "start": 86.7966,
      "duration": 0.1826,
      "velocity": 103,
      "chip": "ym2612"
    },
    {
      "channel": 3,
      "note": 59,
      "start": 86.7972,
      "duration": 0.0166,
      "velocity": 115,
      "chip": "ym2612"
    },
    {
      "channel": 3,
      "note": 58,
      "start": 86.8138,
      "duration": 0.0181,
      "velocity": 115,
      "chip": "ym2612"
    },
    {
      "channel": 3,
      "note": 56,
      "start": 86.832,
      "duration": 0.018,
      "velocity": 115,
      "chip": "ym2612"
    },
    {
      "channel": 3,
      "note": 55,
      "start": 86.8499,
      "duration": 0.0178,
      "velocity": 115,
      "chip": "ym2612"
    },
    {
      "channel": 3,
      "note": 54,
      "start": 86.8677,
      "duration": 0.019,
      "velocity": 115,
      "chip": "ym2612"
    },
    {
      "channel": 1,
      "note": 74,
      "start": 86.8861,
      "duration": 0.0926,
      "velocity": 127,
      "chip": "ym2612"
    },
    {
      "channel": 3,
      "note": 54,
      "start": 86.8867,
      "duration": 0.0171,
      "velocity": 115,
      "chip": "ym2612"
    },
    {
      "channel": 3,
      "note": 53,
      "start": 86.9038,
      "duration": 0.0181,
      "velocity": 115,
      "chip": "ym2612"
    },
    {
      "channel": 3,
      "note": 52,
      "start": 86.9219,
      "duration": 0.0182,
      "velocity": 115,
      "chip": "ym2612"
    },
    {
      "channel": 3,
      "note": 51,
      "start": 86.9401,
      "duration": 0.0182,
      "velocity": 115,
      "chip": "ym2612"
    },
    {
      "channel": 3,
      "note": 50,
      "start": 86.9583,
      "duration": 0.0217,
      "velocity": 115,
      "chip": "ym2612"
    },
    {
      "channel": 0,
      "note": 57,
      "start": 86.9768,
      "duration": 0.1815,
      "velocity": 89,
      "chip": "ym2612"
    },
    {
      "channel": 1,
      "note": 21,
      "start": 86.9789,
      "duration": 0.1815,
      "velocity": 127,
      "chip": "ym2612"
    },
    {
      "channel": 2,
      "note": 107,
      "start": 86.9795,
      "duration": 0.088,
      "velocity": 103,
      "chip": "ym2612"
    },
    {
      "channel": 3,
      "note": 48,
      "start": 86.98,
      "duration": 0.0146,
      "velocity": 115,
      "chip": "ym2612"
    },
    {
      "channel": 3,
      "note": 47,
      "start": 86.9946,
      "duration": 0.018,
      "velocity": 115,
      "chip": "ym2612"
    },
    {
      "channel": 3,
      "note": 46,
      "start": 87.0126,
      "duration": 0.0181,
      "velocity": 115,
      "chip": "ym2612"
    },
    {
      "channel": 3,
      "note": 44,
      "start": 87.0307,
      "duration": 0.0181,
      "velocity": 115,
      "chip": "ym2612"
    },
    {
      "channel": 3,
      "note": 43,
      "start": 87.0489,
      "duration": 0.0194,
      "velocity": 115,
      "chip": "ym2612"
    },
    {
      "channel": 2,
      "note": 107,
      "start": 87.0677,
      "duration": 0.1814,
      "velocity": 103,
      "chip": "ym2612"
    },
    {
      "channel": 3,
      "note": 42,
      "start": 87.0683,
      "duration": 0.017,
      "velocity": 115,
      "chip": "ym2612"
    },
    {
      "channel": 3,
      "note": 42,
      "start": 87.0853,
      "duration": 0.0183,
      "velocity": 115,
      "chip": "ym2612"
    },
    {
      "channel": 3,
      "note": 41,
      "start": 87.1036,
      "duration": 0.0181,
      "velocity": 115,
      "chip": "ym2612"
    },
    {
      "channel": 3,
      "note": 40,
      "start": 87.1217,
      "duration": 0.0182,
      "velocity": 115,
      "chip": "ym2612"
    },
    {
      "channel": 3,
      "note": 39,
      "start": 87.1399,
      "duration": 0.0213,
      "velocity": 115,
      "chip": "ym2612"
    },
    {
      "channel": 0,
      "note": 57,
      "start": 87.1584,
      "duration": 0.3616,
      "velocity": 89,
      "chip": "ym2612"
    },
    {
      "channel": 1,
      "note": 74,
      "start": 87.1606,
      "duration": 0.0879,
      "velocity": 127,
      "chip": "ym2612"
    },
    {
      "channel": 3,
      "note": 38,
      "start": 87.1612,
      "duration": 0.015,
      "velocity": 115,
      "chip": "ym2612"
    },
    {
      "channel": 3,
      "note": 36,
      "start": 87.1762,
      "duration": 0.0178,
      "velocity": 115,
      "chip": "ym2612"
    },
    {
      "channel": 3,
      "note": 35,
      "start": 87.1941,
      "duration": 0.018,
      "velocity": 115,
      "chip": "ym2612"
    },
    {
      "channel": 3,
      "note": 34,
      "start": 87.212,
      "duration": 0.018,
      "velocity": 115,
      "chip": "ym2612"
    },
    {
      "channel": 3,
      "note": 32,
      "start": 87.23,
      "duration": 0.0198,
      "velocity": 115,
      "chip": "ym2612"
    },
    {
      "channel": 1,
      "note": 74,
      "start": 87.2487,
      "duration": 0.0914,
      "velocity": 119,
      "chip": "ym2612"
    },
    {
      "channel": 2,
      "note": 107,
      "start": 87.2493,
      "duration": 0.1824,
      "velocity": 103,
      "chip": "ym2612"
    },
    {
      "channel": 3,
      "note": 31,
      "start": 87.2498,
      "duration": 0.0165,
      "velocity": 115,
      "chip": "ym2612"
    },
    {
      "channel": 3,
      "note": 30,
      "start": 87.2663,
      "duration": 0.018,
      "velocity": 115,
      "chip": "ym2612"
    },
    {
      "channel": 3,
      "note": 30,
      "start": 87.2843,
      "duration": 0.0179,
      "velocity": 115,
      "chip": "ym2612"
    },
    {
      "channel": 3,
      "note": 29,
      "start": 87.3022,
      "duration": 0.0179,
      "velocity": 115,
      "chip": "ym2612"
    },
    {
      "channel": 3,
      "note": 28,
      "start": 87.32,
      "duration": 0.0209,
      "velocity": 115,
      "chip": "ym2612"
    },
    {
      "channel": 1,
      "note": 31,
      "start": 87.3403,
      "duration": 0.0909,
      "velocity": 127,
      "chip": "ym2612"
    },
    {
      "channel": 3,
      "note": 27,
      "start": 87.3409,
      "duration": 0.0157,
      "velocity": 115,
      "chip": "ym2612"
    },
    {
      "channel": 3,
      "note": 26,
      "start": 87.3566,
      "duration": 0.0181,
      "velocity": 115,
      "chip": "ym2612"
    },
    {
      "channel": 3,
      "note": 24,
      "start": 87.3748,
      "duration": 0.0182,
      "velocity": 115,
      "chip": "ym2612"
    },
    {
      "channel": 3,
      "note": 23,
      "start": 87.3929,
      "duration": 0.0181,
      "velocity": 115,
      "chip": "ym2612"
    },
    {
      "channel": 3,
      "note": 22,
      "start": 87.411,
      "duration": 0.0215,
      "velocity": 115,
      "chip": "ym2612"
    },
    {
      "channel": 1,
      "note": 74,
      "start": 87.4313,
      "duration": 0.0893,
      "velocity": 127,
      "chip": "ym2612"
    },
    {
      "channel": 2,
      "note": 107,
      "start": 87.4319,
      "duration": 0.2689,
      "velocity": 103,
      "chip": "ym2612"
    },
    {
      "channel": 3,
      "note": 20,
      "start": 87.4325,
      "duration": 0.0151,
      "velocity": 115,
      "chip": "ym2612"
    },
    {
      "channel": 3,
      "note": 115,
      "start": 87.4476,
      "duration": 0.0183,
      "velocity": 115,
      "chip": "ym2612"
    },
    {
      "channel": 3,
      "note": 114,
      "start": 87.4659,
      "duration": 0.0179,
      "velocity": 115,
      "chip": "ym2612"
    },
    {
      "channel": 3,
      "note": 114,
      "start": 87.4837,
      "duration": 0.0178,
      "velocity": 115,
      "chip": "ym2612"
    },
    {
      "channel": 3,
      "note": 113,
      "start": 87.5016,
      "duration": 0.0198,
      "velocity": 115,
      "chip": "ym2612"
    },
    {
      "channel": 0,
      "note": 55,
      "start": 87.5202,
      "duration": 2.3582,
      "velocity": 89,
      "chip": "ym2612"
    },
    {
      "channel": 1,
      "note": 74,
      "start": 87.5207,
      "duration": 0.1795,
      "velocity": 127,
      "chip": "ym2612"
    },
    {
      "channel": 3,
      "note": 112,
      "start": 87.5214,
      "duration": 0.0166,
      "velocity": 115,
      "chip": "ym2612"
    },
    {
      "channel": 3,
      "note": 111,
      "start": 87.538,
      "duration": 0.0181,
      "velocity": 115,
      "chip": "ym2612"
    },
    {
      "channel": 3,
      "note": 110,
      "start": 87.5561,
      "duration": 0.0178,
      "velocity": 115,
      "chip": "ym2612"
    },
    {
      "channel": 3,
      "note": 108,
      "start": 87.574,
      "duration": 0.0179,
      "velocity": 115,
      "chip": "ym2612"
    },
    {
      "channel": 3,
      "note": 107,
      "start": 87.5919,
      "duration": 0.0361,
      "velocity": 115,
      "chip": "ym2612"
    },
    {
      "channel": 3,
      "note": 106,
      "start": 87.628,
      "duration": 0.018,
      "velocity": 115,
      "chip": "ym2612"
    },
    {
      "channel": 3,
      "note": 104,
      "start": 87.6461,
      "duration": 0.0179,
      "velocity": 115,
      "chip": "ym2612"
    },
    {
      "channel": 3,
      "note": 103,
      "start": 87.6639,
      "duration": 0.018,
      "velocity": 115,
      "chip": "ym2612"
    },
    {
      "channel": 3,
      "note": 103,
      "start": 87.6819,
      "duration": 0.02,
      "velocity": 115,
      "chip": "ym2612"
    },
    {
      "channel": 1,
      "note": 74,
      "start": 87.7004,
      "duration": 0.0904,
      "velocity": 127,
      "chip": "ym2612"
    },
    {
      "channel": 2,
      "note": 107,
      "start": 87.701,
      "duration": 0.1822,
      "velocity": 103,
      "chip": "ym2612"
    },
    {
      "channel": 3,
      "note": 102,
      "start": 87.7019,
      "duration": 0.0163,
      "velocity": 115,
      "chip": "ym2612"
    },
    {
      "channel": 3,
      "note": 101,
      "start": 87.7182,
      "duration": 0.0181,
      "velocity": 115,
      "chip": "ym2612"
    },
    {
      "channel": 3,
      "note": 100,
      "start": 87.7363,
      "duration": 0.0182,
      "velocity": 115,
      "chip": "ym2612"
    },
    {
      "channel": 3,
      "note": 99,
      "start": 87.7545,
      "duration": 0.018,
      "velocity": 115,
      "chip": "ym2612"
    },
    {
      "channel": 3,
      "note": 98,
      "start": 87.7726,
      "duration": 0.0191,
      "velocity": 115,
      "chip": "ym2612"
    },
    {
      "channel": 1,
      "note": 74,
      "start": 87.791,
      "duration": 0.0917,
      "velocity": 127,
      "chip": "ym2612"
    },
    {
      "channel": 3,
      "note": 96,
      "start": 87.7917,
      "duration": 0.017,
      "velocity": 115,
      "chip": "ym2612"
    },
    {
      "channel": 3,
      "note": 95,
      "start": 87.8086,
      "duration": 0.0183,
      "velocity": 115,
      "chip": "ym2612"
    },
    {
      "channel": 3,
      "note": 94,
      "start": 87.8269,
      "duration": 0.0179,
      "velocity": 115,
      "chip": "ym2612"
    },
    {
      "channel": 3,
      "note": 92,
      "start": 87.8449,
      "duration": 0.0179,
      "velocity": 115,
      "chip": "ym2612"
    },
    {
      "channel": 3,
      "note": 91,
      "start": 87.8628,
      "duration": 0.0212,
      "velocity": 115,
      "chip": "ym2612"
    },
    {
      "channel": 1,
      "note": 21,
      "start": 87.8828,
      "duration": 0.0908,
      "velocity": 127,
      "chip": "ym2612"
    },
    {
      "channel": 2,
      "note": 107,
      "start": 87.8833,
      "duration": 0.1819,
      "velocity": 103,
      "chip": "ym2612"
    },
    {
      "channel": 3,
      "note": 91,
      "start": 87.884,
      "duration": 0.0151,
      "velocity": 115,
      "chip": "ym2612"
    },
    {
      "channel": 3,
      "note": 90,
      "start": 87.8991,
      "duration": 0.0181,
      "velocity": 115,
      "chip": "ym2612"
    },
    {
      "channel": 3,
      "note": 89,
      "start": 87.9172,
      "duration": 0.0182,
      "velocity": 115,
      "chip": "ym2612"
    },
    {
      "channel": 3,
      "note": 88,
      "start": 87.9354,
      "duration": 0.0181,
      "velocity": 115,
      "chip": "ym2612"
    },
    {
      "channel": 3,
      "note": 87,
      "start": 87.9535,
      "duration": 0.0209,
      "velocity": 115,
      "chip": "ym2612"
    },
    {
      "channel": 1,
      "note": 74,
      "start": 87.9737,
      "duration": 0.091,
      "velocity": 119,
      "chip": "ym2612"
    },
    {
      "channel": 3,
      "note": 86,
      "start": 87.9744,
      "duration": 0.0157,
      "velocity": 115,
      "chip": "ym2612"
    },
    {
      "channel": 3,
      "note": 84,
      "start": 87.9901,
      "duration": 0.0183,
      "velocity": 115,
      "chip": "ym2612"
    },
    {
      "channel": 3,
      "note": 83,
      "start": 88.0084,
      "duration": 0.0181,
      "velocity": 115,
      "chip": "ym2612"
    },
    {
      "channel": 3,
      "note": 82,
      "start": 88.0265,
      "duration": 0.0181,
      "velocity": 115,
      "chip": "ym2612"
    },
    {
      "channel": 3,
      "note": 80,
      "start": 88.0446,
      "duration": 0.0214,
      "velocity": 115,
      "chip": "ym2612"
    },
    {
      "channel": 1,
      "note": 31,
      "start": 88.0649,
      "duration": 0.1808,
      "velocity": 127,
      "chip": "ym2612"
    },
    {
      "channel": 2,
      "note": 107,
      "start": 88.0654,
      "duration": 0.089,
      "velocity": 103,
      "chip": "ym2612"
    },
    {
      "channel": 3,
      "note": 79,
      "start": 88.066,
      "duration": 0.0153,
      "velocity": 115,
      "chip": "ym2612"
    },
    {
      "channel": 3,
      "note": 79,
      "start": 88.0813,
      "duration": 0.0182,
      "velocity": 115,
      "chip": "ym2612"
    },
    {
      "channel": 3,
      "note": 78,
      "start": 88.0995,
      "duration": 0.0183,
      "velocity": 115,
      "chip": "ym2612"
    },
    {
      "channel": 3,
      "note": 77,
      "start": 88.1178,
      "duration": 0.0181,
      "velocity": 115,
      "chip": "ym2612"
    },
    {
      "channel": 3,
      "note": 76,
      "start": 88.1358,
      "duration": 0.0193,
      "velocity": 115,
      "chip": "ym2612"
    },
    {
      "channel": 2,
      "note": 107,
      "start": 88.1545,
      "duration": 0.0917,
      "velocity": 103,
      "chip": "ym2612"
    },
    {
      "channel": 3,
      "note": 75,
      "start": 88.1551,
      "duration": 0.0171,
      "velocity": 115,
      "chip": "ym2612"
    },
    {
      "channel": 3,
      "note": 74,
      "start": 88.1722,
      "duration": 0.0179,
      "velocity": 115,
      "chip": "ym2612"
    },
    {
      "channel": 3,
      "note": 72,
      "start": 88.1901,
      "duration": 0.0179,
      "velocity": 115,
      "chip": "ym2612"
    },
    {
      "channel": 3,
      "note": 71,
      "start": 88.2081,
      "duration": 0.018,
      "velocity": 115,
      "chip": "ym2612"
    },
    {
      "channel": 3,
      "note": 70,
      "start": 88.226,
      "duration": 0.021,
      "velocity": 115,
      "chip": "ym2612"
    },
    {
      "channel": 1,
      "note": 74,
      "start": 88.2458,
      "duration": 0.089,
      "velocity": 127,
      "chip": "ym2612"
    },
    {
      "channel": 2,
      "note": 107,
      "start": 88.2463,
      "duration": 0.1812,
      "velocity": 103,
      "chip": "ym2612"
    },
    {
      "channel": 3,
      "note": 68,
      "start": 88.247,
      "duration": 0.0152,
      "velocity": 115,
      "chip": "ym2612"
    },
    {
      "channel": 3,
      "note": 67,
      "start": 88.2622,
      "duration": 0.018,
      "velocity": 115,
      "chip": "ym2612"
    },
    {
      "channel": 3,
      "note": 67,
      "start": 88.2802,
      "duration": 0.018,
      "velocity": 115,
      "chip": "ym2612"
    },
    {
      "channel": 3,
      "note": 66,
      "start": 88.2982,
      "duration": 0.0183,
      "velocity": 115,
      "chip": "ym2612"
    },
    {
      "channel": 3,
      "note": 65,
      "start": 88.3165,
      "duration": 0.0192,
      "velocity": 115,
      "chip": "ym2612"
    },
    {
      "channel": 1,
      "note": 74,
      "start": 88.3351,
      "duration": 0.0919,
      "velocity": 127,
      "chip": "ym2612"
    },
    {
      "channel": 3,
      "note": 64,
      "start": 88.3357,
      "duration": 0.0171,
      "velocity": 115,
      "chip": "ym2612"
    },
    {
      "channel": 3,
      "note": 63,
      "start": 88.3528,
      "duration": 0.0183,
      "velocity": 115,
      "chip": "ym2612"
    },
    {
      "channel": 3,
      "note": 62,
      "start": 88.371,
      "duration": 0.018,
      "velocity": 115,
      "chip": "ym2612"
    },
    {
      "channel": 3,
      "note": 60,
      "start": 88.3891,
      "duration": 0.0181,
      "velocity": 115,
      "chip": "ym2612"
    },
    {
      "channel": 3,
      "note": 59,
      "start": 88.4072,
      "duration": 0.0214,
      "velocity": 115,
      "chip": "ym2612"
    },
    {
      "channel": 1,
      "note": 21,
      "start": 88.4271,
      "duration": 0.181,
      "velocity": 127,
      "chip": "ym2612"
    },
    {
      "channel": 2,
      "note": 107,
      "start": 88.4277,
      "duration": 0.0883,
      "velocity": 103,
      "chip": "ym2612"
    },
    {
      "channel": 3,
      "note": 58,
      "start": 88.4286,
      "duration": 0.0147,
      "velocity": 115,
      "chip": "ym2612"
    },
    {
      "channel": 3,
      "note": 56,
      "start": 88.4433,
      "duration": 0.0182,
      "velocity": 115,
      "chip": "ym2612"
    },
    {
      "channel": 3,
      "note": 55,
      "start": 88.4616,
      "duration": 0.0179,
      "velocity": 115,
      "chip": "ym2612"
    },
    {
      "channel": 3,
      "note": 55,
      "start": 88.4795,
      "duration": 0.0181,
      "velocity": 115,
      "chip": "ym2612"
    },
    {
      "channel": 3,
      "note": 54,
      "start": 88.4976,
      "duration": 0.0191,
      "velocity": 115,
      "chip": "ym2612"
    },
    {
      "channel": 2,
      "note": 107,
      "start": 88.5163,
      "duration": 0.1816,
      "velocity": 103,
      "chip": "ym2612"
    },
    {
      "channel": 3,
      "note": 72,
      "start": 88.5168,
      "duration": 0.0006,
      "velocity": 115,
      "chip": "ym2612"
    },
    {
      "channel": 3,
      "note": 71,
      "start": 88.5174,
      "duration": 0.0166,
      "velocity": 115,
      "chip": "ym2612"
    },
    {
      "channel": 3,
      "note": 69,
      "start": 88.534,
      "duration": 0.0182,
      "velocity": 115,
      "chip": "ym2612"
    },
    {
      "channel": 3,
      "note": 68,
      "start": 88.5522,
      "duration": 0.0183,
      "velocity": 115,
      "chip": "ym2612"
    },
    {
      "channel": 3,
      "note": 67,
      "start": 88.5704,
      "duration": 0.0179,
      "velocity": 115,
      "chip": "ym2612"
    },
    {
      "channel": 3,
      "note": 66,
      "start": 88.5883,
      "duration": 0.0207,
      "velocity": 115,
      "chip": "ym2612"
    },
    {
      "channel": 1,
      "note": 74,
      "start": 88.6083,
      "duration": 0.089,
      "velocity": 127,
      "chip": "ym2612"
    },
    {
      "channel": 3,
      "note": 65,
      "start": 88.609,
      "duration": 0.0154,
      "velocity": 115,
      "chip": "ym2612"
    },
    {
      "channel": 3,
      "note": 64,
      "start": 88.6244,
      "duration": 0.018,
      "velocity": 115,
      "chip": "ym2612"
    },
    {
      "channel": 3,
      "note": 63,
      "start": 88.6424,
      "duration": 0.0182,
      "velocity": 115,
      "chip": "ym2612"
    },
    {
      "channel": 3,
      "note": 62,
      "start": 88.6605,
      "duration": 0.0184,
      "velocity": 115,
      "chip": "ym2612"
    },
    {
      "channel": 3,
      "note": 61,
      "start": 88.6789,
      "duration": 0.0197,
      "velocity": 115,
      "chip": "ym2612"
    },
    {
      "channel": 1,
      "note": 74,
      "start": 88.6975,
      "duration": 0.0923,
      "velocity": 119,
      "chip": "ym2612"
    },
    {
      "channel": 2,
      "note": 107,
      "start": 88.698,
      "duration": 0.1835,
      "velocity": 103,
      "chip": "ym2612"
    },
    {
      "channel": 3,
      "note": 60,
      "start": 88.6986,
      "duration": 0.0166,
      "velocity": 115,
      "chip": "ym2612"
    },
    {
      "channel": 3,
      "note": 59,
      "start": 88.7152,
      "duration": 0.0181,
      "velocity": 115,
      "chip": "ym2612"
    },
    {
      "channel": 3,
      "note": 57,
      "start": 88.7334,
      "duration": 0.0182,
      "velocity": 115,
      "chip": "ym2612"
    },
    {
      "channel": 3,
      "note": 56,
      "start": 88.7516,
      "duration": 0.0181,
      "velocity": 115,
      "chip": "ym2612"
    },
    {
      "channel": 3,
      "note": 55,
      "start": 88.7697,
      "duration": 0.0207,
      "velocity": 115,
      "chip": "ym2612"
    },
    {
      "channel": 1,
      "note": 31,
      "start": 88.79,
      "duration": 0.091,
      "velocity": 127,
      "chip": "ym2612"
    },
    {
      "channel": 3,
      "note": 72,
      "start": 88.7906,
      "duration": 0.0006,
      "velocity": 115,
      "chip": "ym2612"
    },
    {
      "channel": 3,
      "note": 71,
      "start": 88.7912,
      "duration": 0.0152,
      "velocity": 115,
      "chip": "ym2612"
    },
    {
      "channel": 3,
      "note": 69,
      "start": 88.8063,
      "duration": 0.0181,
      "velocity": 115,
      "chip": "ym2612"
    },
    {
      "channel": 3,
      "note": 68,
      "start": 88.8245,
      "duration": 0.0183,
      "velocity": 115,
      "chip": "ym2612"
    },
    {
      "channel": 3,
      "note": 67,
      "start": 88.8428,
      "duration": 0.018,
      "velocity": 115,
      "chip": "ym2612"
    },
    {
      "channel": 3,
      "note": 66,
      "start": 88.8608,
      "duration": 0.0214,
      "velocity": 115,
      "chip": "ym2612"
    },
    {
      "channel": 1,
      "note": 74,
      "start": 88.8811,
      "duration": 0.0909,
      "velocity": 127,
      "chip": "ym2612"
    },
    {
      "channel": 2,
      "note": 107,
      "start": 88.8817,
      "duration": 0.2722,
      "velocity": 103,
      "chip": "ym2612"
    },
    {
      "channel": 3,
      "note": 65,
      "start": 88.8822,
      "duration": 0.0152,
      "velocity": 115,
      "chip": "ym2612"
    },
    {
      "channel": 3,
      "note": 64,
      "start": 88.8974,
      "duration": 0.018,
      "velocity": 115,
      "chip": "ym2612"
    },
    {
      "channel": 3,
      "note": 63,
      "start": 88.9154,
      "duration": 0.0181,
      "velocity": 115,
      "chip": "ym2612"
    },
    {
      "channel": 3,
      "note": 62,
      "start": 88.9336,
      "duration": 0.0182,
      "velocity": 115,
      "chip": "ym2612"
    },
    {
      "channel": 3,
      "note": 61,
      "start": 88.9517,
      "duration": 0.0208,
      "velocity": 115,
      "chip": "ym2612"
    },
    {
      "channel": 1,
      "note": 21,
      "start": 88.972,
      "duration": 0.1813,
      "velocity": 127,
      "chip": "ym2612"
    },
    {
      "channel": 3,
      "note": 69,
      "start": 88.9727,
      "duration": 0.0006,
      "velocity": 115,
      "chip": "ym2612"
    },
    {
      "channel": 3,
      "note": 68,
      "start": 88.9733,
      "duration": 0.015,
      "velocity": 115,
      "chip": "ym2612"
    },
    {
      "channel": 3,
      "note": 67,
      "start": 88.9883,
      "duration": 0.018,
      "velocity": 115,
      "chip": "ym2612"
    },
    {
      "channel": 3,
      "note": 66,
      "start": 89.0063,
      "duration": 0.0182,
      "velocity": 115,
      "chip": "ym2612"
    },
    {
      "channel": 3,
      "note": 65,
      "start": 89.0245,
      "duration": 0.0182,
      "velocity": 115,
      "chip": "ym2612"
    },
    {
      "channel": 3,
      "note": 64,
      "start": 89.0427,
      "duration": 0.0361,
      "velocity": 115,
      "chip": "ym2612"
    },
    {
      "channel": 3,
      "note": 63,
      "start": 89.0788,
      "duration": 0.0181,
      "velocity": 115,
      "chip": "ym2612"
    },
    {
      "channel": 3,
      "note": 62,
      "start": 89.0969,
      "duration": 0.0182,
      "velocity": 115,
      "chip": "ym2612"
    },
    {
      "channel": 3,
      "note": 61,
      "start": 89.1152,
      "duration": 0.0181,
      "velocity": 115,
      "chip": "ym2612"
    },
    {
      "channel": 3,
      "note": 60,
      "start": 89.1333,
      "duration": 0.0214,
      "velocity": 115,
      "chip": "ym2612"
    },
    {
      "channel": 1,
      "note": 74,
      "start": 89.1535,
      "duration": 0.089,
      "velocity": 127,
      "chip": "ym2612"
    },
    {
      "channel": 2,
      "note": 107,
      "start": 89.1541,
      "duration": 0.1812,
      "velocity": 103,
      "chip": "ym2612"
    },
    {
      "channel": 3,
      "note": 58,
      "start": 89.1547,
      "duration": 0.0153,
      "velocity": 115,
      "chip": "ym2612"
    },
    {
      "channel": 3,
      "note": 57,
      "start": 89.1699,
      "duration": 0.0178,
      "velocity": 115,
      "chip": "ym2612"
    },
    {
      "channel": 3,
      "note": 56,
      "start": 89.1878,
      "duration": 0.018,
      "velocity": 115,
      "chip": "ym2612"
    },
    {
      "channel": 3,
      "note": 55,
      "start": 89.2057,
      "duration": 0.0182,
      "velocity": 115,
      "chip": "ym2612"
    },
    {
      "channel": 3,
      "note": 54,
      "start": 89.2239,
      "duration": 0.0192,
      "velocity": 115,
      "chip": "ym2612"
    },
    {
      "channel": 1,
      "note": 74,
      "start": 89.2426,
      "duration": 0.0921,
      "velocity": 127,
      "chip": "ym2612"
    },
    {
      "channel": 3,
      "note": 72,
      "start": 89.2433,
      "duration": 0.0005,
      "velocity": 115,
      "chip": "ym2612"
    },
    {
      "channel": 3,
      "note": 71,
      "start": 89.2438,
      "duration": 0.0166,
      "velocity": 115,
      "chip": "ym2612"
    },
    {
      "channel": 3,
      "note": 69,
      "start": 89.2605,
      "duration": 0.0182,
      "velocity": 115,
      "chip": "ym2612"
    },
    {
      "channel": 3,
      "note": 68,
      "start": 89.2787,
      "duration": 0.018,
      "velocity": 115,
      "chip": "ym2612"
    },
    {
      "channel": 3,
      "note": 67,
      "start": 89.2966,
      "duration": 0.0181,
      "velocity": 115,
      "chip": "ym2612"
    },
    {
      "channel": 3,
      "note": 66,
      "start": 89.3147,
      "duration": 0.0213,
      "velocity": 115,
      "chip": "ym2612"
    },
    {
      "channel": 1,
      "note": 21,
      "start": 89.3349,
      "duration": 0.0902,
      "velocity": 127,
      "chip": "ym2612"
    },
    {
      "channel": 2,
      "note": 107,
      "start": 89.3355,
      "duration": 0.181,
      "velocity": 103,
      "chip": "ym2612"
    },
    {
      "channel": 3,
      "note": 65,
      "start": 89.3361,
      "duration": 0.0151,
      "velocity": 115,
      "chip": "ym2612"
    },
    {
      "channel": 3,
      "note": 64,
      "start": 89.3512,
      "duration": 0.0182,
      "velocity": 115,
      "chip": "ym2612"
    },
    {
      "channel": 3,
      "note": 63,
      "start": 89.3694,
      "duration": 0.0179,
      "velocity": 115,
      "chip": "ym2612"
    },
    {
      "channel": 3,
      "note": 62,
      "start": 89.3873,
      "duration": 0.0178,
      "velocity": 115,
      "chip": "ym2612"
    },
    {
      "channel": 3,
      "note": 61,
      "start": 89.4051,
      "duration": 0.0208,
      "velocity": 115,
      "chip": "ym2612"
    },
    {
      "channel": 1,
      "note": 74,
      "start": 89.4253,
      "duration": 0.0907,
      "velocity": 119,
      "chip": "ym2612"
    },
    {
      "channel": 3,
      "note": 60,
      "start": 89.4259,
      "duration": 0.0155,
      "velocity": 115,
      "chip": "ym2612"
    },
    {
      "channel": 3,
      "note": 59,
      "start": 89.4414,
      "duration": 0.0181,
      "velocity": 115,
      "chip": "ym2612"
    },
    {
      "channel": 3,
      "note": 57,
      "start": 89.4595,
      "duration": 0.0182,
      "velocity": 115,
      "chip": "ym2612"
    },
    {
      "channel": 3,
      "note": 56,
      "start": 89.4777,
      "duration": 0.0183,
      "velocity": 115,
      "chip": "ym2612"
    },
    {
      "channel": 3,
      "note": 55,
      "start": 89.496,
      "duration": 0.0212,
      "velocity": 115,
      "chip": "ym2612"
    },
    {
      "channel": 1,
      "note": 31,
      "start": 89.5161,
      "duration": 0.0909,
      "velocity": 127,
      "chip": "ym2612"
    },
    {
      "channel": 2,
      "note": 107,
      "start": 89.5167,
      "duration": 0.0909,
      "velocity": 103,
      "chip": "ym2612"
    },
    {
      "channel": 3,
      "note": 76,
      "start": 89.5173,
      "duration": 0.0006,
      "velocity": 115,
      "chip": "ym2612"
    },
    {
      "channel": 3,
      "note": 75,
      "start": 89.5178,
      "duration": 0.0148,
      "velocity": 115,
      "chip": "ym2612"
    },
    {
      "channel": 3,
      "note": 74,
      "start": 89.5326,
      "duration": 0.018,
      "velocity": 115,
      "chip": "ym2612"
    },
    {
      "channel": 3,
      "note": 73,
      "start": 89.5507,
      "duration": 0.0183,
      "velocity": 115,
      "chip": "ym2612"
    },
    {
      "channel": 3,
      "note": 72,
      "start": 89.569,
      "duration": 0.0181,
      "velocity": 115,
      "chip": "ym2612"
    },
    {
      "channel": 3,
      "note": 70,
      "start": 89.5871,
      "duration": 0.021,
      "velocity": 115,
      "chip": "ym2612"
    },
    {
      "channel": 1,
      "note": 74,
      "start": 89.6072,
      "duration": 0.0891,
      "velocity": 127,
      "chip": "ym2612"
    },
    {
      "channel": 2,
      "note": 107,
      "start": 89.6078,
      "duration": 0.0891,
      "velocity": 103,
      "chip": "ym2612"
    },
    {
      "channel": 3,
      "note": 76,
      "start": 89.6083,
      "duration": 0.0006,
      "velocity": 115,
      "chip": "ym2612"
    },
    {
      "channel": 3,
      "note": 75,
      "start": 89.6089,
      "duration": 0.0146,
      "velocity": 115,
      "chip": "ym2612"
    },
    {
      "channel": 3,
      "note": 74,
      "start": 89.6235,
      "duration": 0.0182,
      "velocity": 115,
      "chip": "ym2612"
    },
    {
      "channel": 3,
      "note": 73,
      "start": 89.6417,
      "duration": 0.0181,
      "velocity": 115,
      "chip": "ym2612"
    },
    {
      "channel": 3,
      "note": 72,
      "start": 89.6599,
      "duration": 0.0181,
      "velocity": 115,
      "chip": "ym2612"
    },
    {
      "channel": 3,
      "note": 70,
      "start": 89.678,
      "duration": 0.0195,
      "velocity": 115,
      "chip": "ym2612"
    },
    {
      "channel": 1,
      "note": 74,
      "start": 89.6965,
      "duration": 0.0908,
      "velocity": 127,
      "chip": "ym2612"
    },
    {
      "channel": 2,
      "note": 107,
      "start": 89.697,
      "duration": 0.1842,
      "velocity": 103,
      "chip": "ym2612"
    },
    {
      "channel": 3,
      "note": 69,
      "start": 89.6976,
      "duration": 0.0008,
      "velocity": 115,
      "chip": "ym2612"
    },
    {
      "channel": 3,
      "note": 68,
      "start": 89.6985,
      "duration": 0.0159,
      "velocity": 115,
      "chip": "ym2612"
    },
    {
      "channel": 3,
      "note": 67,
      "start": 89.7144,
      "duration": 0.0181,
      "velocity": 115,
      "chip": "ym2612"
    },
    {
      "channel": 3,
      "note": 66,
      "start": 89.7325,
      "duration": 0.0183,
      "velocity": 115,
      "chip": "ym2612"
    },
    {
      "channel": 3,
      "note": 65,
      "start": 89.7507,
      "duration": 0.0181,
      "velocity": 115,
      "chip": "ym2612"
    },
    {
      "channel": 3,
      "note": 64,
      "start": 89.7688,
      "duration": 0.0193,
      "velocity": 115,
      "chip": "ym2612"
    },
    {
      "channel": 1,
      "note": 74,
      "start": 89.7875,
      "duration": 0.0931,
      "velocity": 127,
      "chip": "ym2612"
    },
    {
      "channel": 3,
      "note": 63,
      "start": 89.7882,
      "duration": 0.017,
      "velocity": 115,
      "chip": "ym2612"
    },
    {
      "channel": 3,
      "note": 62,
      "start": 89.8052,
      "duration": 0.0181,
      "velocity": 115,
      "chip": "ym2612"
    },
    {
      "channel": 3,
      "note": 61,
      "start": 89.8233,
      "duration": 0.0181,
      "velocity": 115,
      "chip": "ym2612"
    },
    {
      "channel": 3,
      "note": 60,
      "start": 89.8414,
      "duration": 0.0182,
      "velocity": 115,
      "chip": "ym2612"
    },
    {
      "channel": 3,
      "note": 58,
      "start": 89.8596,
      "duration": 0.0237,
      "velocity": 1,
      "chip": "ym2612"
    },
    {
      "channel": 0,
      "note": 59,
      "start": 89.8786,
      "duration": 0.1812,
      "velocity": 89,
      "chip": "ym2612"
    },
    {
      "channel": 1,
      "note": 21,
      "start": 89.8808,
      "duration": 0.1811,
      "velocity": 127,
      "chip": "ym2612"
    },
    {
      "channel": 2,
      "note": 107,
      "start": 89.8814,
      "duration": 0.0882,
      "velocity": 103,
      "chip": "ym2612"
    },
    {
      "channel": 3,
      "note": 79,
      "start": 89.8835,
      "duration": 1.5383,
      "velocity": 115,
      "chip": "ym2612"
    },
    {
      "channel": 2,
      "note": 107,
      "start": 89.9697,
      "duration": 0.1813,
      "velocity": 103,
      "chip": "ym2612"
    },
    {
      "channel": 0,
      "note": 59,
      "start": 90.06,
      "duration": 0.3624,
      "velocity": 89,
      "chip": "ym2612"
    },
    {
      "channel": 1,
      "note": 74,
      "start": 90.0621,
      "duration": 0.0883,
      "velocity": 127,
      "chip": "ym2612"
    },
    {
      "channel": 1,
      "note": 74,
      "start": 90.1505,
      "duration": 0.092,
      "velocity": 119,
      "chip": "ym2612"
    },
    {
      "channel": 2,
      "note": 107,
      "start": 90.1511,
      "duration": 0.1827,
      "velocity": 103,
      "chip": "ym2612"
    },
    {
      "channel": 1,
      "note": 31,
      "start": 90.2426,
      "duration": 0.0906,
      "velocity": 127,
      "chip": "ym2612"
    },
    {
      "channel": 1,
      "note": 74,
      "start": 90.3334,
      "duration": 0.0894,
      "velocity": 127,
      "chip": "ym2612"
    },
    {
      "channel": 2,
      "note": 107,
      "start": 90.334,
      "duration": 0.2699,
      "velocity": 103,
      "chip": "ym2612"
    },
    {
      "channel": 0,
      "note": 57,
      "start": 90.4225,
      "duration": 2.3576,
      "velocity": 89,
      "chip": "ym2612"
    },
    {
      "channel": 1,
      "note": 74,
      "start": 90.4231,
      "duration": 0.1802,
      "velocity": 127,
      "chip": "ym2612"
    },
    {
      "channel": 1,
      "note": 74,
      "start": 90.6035,
      "duration": 0.0902,
      "velocity": 127,
      "chip": "ym2612"
    },
    {
      "channel": 2,
      "note": 107,
      "start": 90.604,
      "duration": 0.1824,
      "velocity": 103,
      "chip": "ym2612"
    },
    {
      "channel": 1,
      "note": 74,
      "start": 90.6939,
      "duration": 0.092,
      "velocity": 127,
      "chip": "ym2612"
    },
    {
      "channel": 1,
      "note": 21,
      "start": 90.7861,
      "duration": 0.0907,
      "velocity": 127,
      "chip": "ym2612"
    },
    {
      "channel": 2,
      "note": 107,
      "start": 90.7867,
      "duration": 0.1815,
      "velocity": 103,
      "chip": "ym2612"
    },
    {
      "channel": 1,
      "note": 74,
      "start": 90.8769,
      "duration": 0.0908,
      "velocity": 119,
      "chip": "ym2612"
    },
    {
      "channel": 1,
      "note": 31,
      "start": 90.9678,
      "duration": 0.1811,
      "velocity": 127,
      "chip": "ym2612"
    },
    {
      "channel": 2,
      "note": 107,
      "start": 90.9684,
      "duration": 0.0885,
      "velocity": 103,
      "chip": "ym2612"
    },
    {
      "channel": 2,
      "note": 107,
      "start": 91.0571,
      "duration": 0.0924,
      "velocity": 103,
      "chip": "ym2612"
    },
    {
      "channel": 1,
      "note": 74,
      "start": 91.1491,
      "duration": 0.0889,
      "velocity": 127,
      "chip": "ym2612"
    },
    {
      "channel": 2,
      "note": 107,
      "start": 91.1496,
      "duration": 0.1814,
      "velocity": 103,
      "chip": "ym2612"
    },
    {
      "channel": 1,
      "note": 74,
      "start": 91.2382,
      "duration": 0.0922,
      "velocity": 127,
      "chip": "ym2612"
    },
    {
      "channel": 1,
      "note": 21,
      "start": 91.3306,
      "duration": 0.1815,
      "velocity": 127,
      "chip": "ym2612"
    },
    {
      "channel": 2,
      "note": 107,
      "start": 91.3312,
      "duration": 0.0885,
      "velocity": 103,
      "chip": "ym2612"
    },
    {
      "channel": 2,
      "note": 107,
      "start": 91.4198,
      "duration": 0.1821,
      "velocity": 103,
      "chip": "ym2612"
    },
    {
      "channel": 3,
      "note": 72,
      "start": 91.422,
      "duration": 0.0005,
      "velocity": 115,
      "chip": "ym2612"
    },
    {
      "channel": 3,
      "note": 71,
      "start": 91.4225,
      "duration": 0.0152,
      "velocity": 115,
      "chip": "ym2612"
    },
    {
      "channel": 3,
      "note": 69,
      "start": 91.4377,
      "duration": 0.0181,
      "velocity": 115,
      "chip": "ym2612"
    },
    {
      "channel": 3,
      "note": 68,
      "start": 91.4558,
      "duration": 0.0182,
      "velocity": 115,
      "chip": "ym2612"
    },
    {
      "channel": 3,
      "note": 67,
      "start": 91.474,
      "duration": 0.0179,
      "velocity": 115,
      "chip": "ym2612"
    },
    {
      "channel": 3,
      "note": 66,
      "start": 91.4919,
      "duration": 0.021,
      "velocity": 115,
      "chip": "ym2612"
    },
    {
      "channel": 1,
      "note": 74,
      "start": 91.5122,
      "duration": 0.089,
      "velocity": 127,
      "chip": "ym2612"
    },
    {
      "channel": 3,
      "note": 65,
      "start": 91.5129,
      "duration": 0.0154,
      "velocity": 115,
      "chip": "ym2612"
    },
    {
      "channel": 3,
      "note": 64,
      "start": 91.5283,
      "duration": 0.0183,
      "velocity": 115,
      "chip": "ym2612"
    },
    {
      "channel": 3,
      "note": 63,
      "start": 91.5466,
      "duration": 0.0181,
      "velocity": 115,
      "chip": "ym2612"
    },
    {
      "channel": 3,
      "note": 62,
      "start": 91.5648,
      "duration": 0.018,
      "velocity": 115,
      "chip": "ym2612"
    },
    {
      "channel": 3,
      "note": 61,
      "start": 91.5828,
      "duration": 0.0198,
      "velocity": 115,
      "chip": "ym2612"
    },
    {
      "channel": 1,
      "note": 74,
      "start": 91.6015,
      "duration": 0.0922,
      "velocity": 119,
      "chip": "ym2612"
    },
    {
      "channel": 2,
      "note": 107,
      "start": 91.602,
      "duration": 0.1829,
      "velocity": 103,
      "chip": "ym2612"
    },
    {
      "channel": 3,
      "note": 60,
      "start": 91.6026,
      "duration": 0.0169,
      "velocity": 115,
      "chip": "ym2612"
    },
    {
      "channel": 3,
      "note": 59,
      "start": 91.6195,
      "duration": 0.0181,
      "velocity": 115,
      "chip": "ym2612"
    },
    {
      "channel": 3,
      "note": 57,
      "start": 91.6376,
      "duration": 0.018,
      "velocity": 115,
      "chip": "ym2612"
    },
    {
      "channel": 3,
      "note": 56,
      "start": 91.6556,
      "duration": 0.0181,
      "velocity": 115,
      "chip": "ym2612"
    },
    {
      "channel": 3,
      "note": 55,
      "start": 91.6737,
      "duration": 0.0206,
      "velocity": 115,
      "chip": "ym2612"
    },
    {
      "channel": 1,
      "note": 31,
      "start": 91.6938,
      "duration": 0.0906,
      "velocity": 127,
      "chip": "ym2612"
    },
    {
      "channel": 3,
      "note": 72,
      "start": 91.6944,
      "duration": 0.0005,
      "velocity": 115,
      "chip": "ym2612"
    },
    {
      "channel": 3,
      "note": 71,
      "start": 91.695,
      "duration": 0.0153,
      "velocity": 115,
      "chip": "ym2612"
    },
    {
      "channel": 3,
      "note": 69,
      "start": 91.7102,
      "duration": 0.0179,
      "velocity": 115,
      "chip": "ym2612"
    },
    {
      "channel": 3,
      "note": 68,
      "start": 91.7281,
      "duration": 0.018,
      "velocity": 115,
      "chip": "ym2612"
    },
    {
      "channel": 3,
      "note": 67,
      "start": 91.7461,
      "duration": 0.0182,
      "velocity": 115,
      "chip": "ym2612"
    },
    {
      "channel": 3,
      "note": 66,
      "start": 91.7643,
      "duration": 0.0213,
      "velocity": 115,
      "chip": "ym2612"
    },
    {
      "channel": 1,
      "note": 74,
      "start": 91.7845,
      "duration": 0.0907,
      "velocity": 127,
      "chip": "ym2612"
    },
    {
      "channel": 2,
      "note": 107,
      "start": 91.7851,
      "duration": 0.2702,
      "velocity": 103,
      "chip": "ym2612"
    },
    {
      "channel": 3,
      "note": 65,
      "start": 91.7856,
      "duration": 0.015,
      "velocity": 115,
      "chip": "ym2612"
    },
    {
      "channel": 3,
      "note": 64,
      "start": 91.8007,
      "duration": 0.0181,
      "velocity": 115,
      "chip": "ym2612"
    },
    {
      "channel": 3,
      "note": 63,
      "start": 91.8188,
      "duration": 0.0181,
      "velocity": 115,
      "chip": "ym2612"
    },
    {
      "channel": 3,
      "note": 62,
      "start": 91.8369,
      "duration": 0.0182,
      "velocity": 115,
      "chip": "ym2612"
    },
    {
      "channel": 3,
      "note": 61,
      "start": 91.8551,
      "duration": 0.021,
      "velocity": 115,
      "chip": "ym2612"
    },
    {
      "channel": 1,
      "note": 21,
      "start": 91.8754,
      "duration": 0.09,
      "velocity": 127,
      "chip": "ym2612"
    },
    {
      "channel": 3,
      "note": 60,
      "start": 91.8761,
      "duration": 0.0156,
      "velocity": 115,
      "chip": "ym2612"
    },
    {
      "channel": 3,
      "note": 59,
      "start": 91.8917,
      "duration": 0.018,
      "velocity": 115,
      "chip": "ym2612"
    },
    {
      "channel": 3,
      "note": 57,
      "start": 91.9096,
      "duration": 0.018,
      "velocity": 115,
      "chip": "ym2612"
    },
    {
      "channel": 3,
      "note": 56,
      "start": 91.9277,
      "duration": 0.0178,
      "velocity": 115,
      "chip": "ym2612"
    },
    {
      "channel": 3,
      "note": 55,
      "start": 91.9454,
      "duration": 0.0208,
      "velocity": 115,
      "chip": "ym2612"
    },
    {
      "channel": 1,
      "note": 74,
      "start": 91.9656,
      "duration": 0.0891,
      "velocity": 127,
      "chip": "ym2612"
    },
    {
      "channel": 3,
      "note": 54,
      "start": 91.9663,
      "duration": 0.0157,
      "velocity": 115,
      "chip": "ym2612"
    },
    {
      "channel": 3,
      "note": 53,
      "start": 91.982,
      "duration": 0.0182,
      "velocity": 115,
      "chip": "ym2612"
    },
    {
      "channel": 3,
      "note": 52,
      "start": 92.0002,
      "duration": 0.0182,
      "velocity": 115,
      "chip": "ym2612"
    },
    {
      "channel": 3,
      "note": 51,
      "start": 92.0183,
      "duration": 0.0182,
      "velocity": 115,
      "chip": "ym2612"
    },
    {
      "channel": 3,
      "note": 50,
      "start": 92.0365,
      "duration": 0.0193,
      "velocity": 115,
      "chip": "ym2612"
    },
    {
      "channel": 1,
      "note": 74,
      "start": 92.0549,
      "duration": 0.1818,
      "velocity": 127,
      "chip": "ym2612"
    },
    {
      "channel": 2,
      "note": 107,
      "start": 92.0555,
      "duration": 0.1817,
      "velocity": 103,
      "chip": "ym2612"
    },
    {
      "channel": 3,
      "note": 76,
      "start": 92.056,
      "duration": 0.0006,
      "velocity": 115,
      "chip": "ym2612"
    },
    {
      "channel": 3,
      "note": 75,
      "start": 92.0566,
      "duration": 0.0161,
      "velocity": 115,
      "chip": "ym2612"
    },
    {
      "channel": 3,
      "note": 74,
      "start": 92.0727,
      "duration": 0.0182,
      "velocity": 115,
      "chip": "ym2612"
    },
    {
      "channel": 3,
      "note": 73,
      "start": 92.0909,
      "duration": 0.0179,
      "velocity": 115,
      "chip": "ym2612"
    },
    {
      "channel": 3,
      "note": 72,
      "start": 92.1088,
      "duration": 0.018,
      "velocity": 115,
      "chip": "ym2612"
    },
    {
      "channel": 3,
      "note": 70,
      "start": 92.1268,
      "duration": 0.0183,
      "velocity": 115,
      "chip": "ym2612"
    },
    {
      "channel": 3,
      "note": 76,
      "start": 92.1453,
      "duration": 0.0006,
      "velocity": 115,
      "chip": "ym2612"
    },
    {
      "channel": 3,
      "note": 75,
      "start": 92.1459,
      "duration": 0.0168,
      "velocity": 115,
      "chip": "ym2612"
    },
    {
      "channel": 3,
      "note": 74,
      "start": 92.1627,
      "duration": 0.018,
      "velocity": 115,
      "chip": "ym2612"
    },
    {
      "channel": 3,
      "note": 73,
      "start": 92.1807,
      "duration": 0.0181,
      "velocity": 115,
      "chip": "ym2612"
    },
    {
      "channel": 3,
      "note": 72,
      "start": 92.1989,
      "duration": 0.018,
      "velocity": 115,
      "chip": "ym2612"
    },
    {
      "channel": 3,
      "note": 70,
      "start": 92.2168,
      "duration": 0.021,
      "velocity": 115,
      "chip": "ym2612"
    },
    {
      "channel": 1,
      "note": 21,
      "start": 92.2368,
      "duration": 0.1815,
      "velocity": 119,
      "chip": "ym2612"
    },
    {
      "channel": 2,
      "note": 107,
      "start": 92.2374,
      "duration": 0.1814,
      "velocity": 103,
      "chip": "ym2612"
    },
    {
      "channel": 3,
      "note": 76,
      "start": 92.238,
      "duration": 0.0009,
      "velocity": 115,
      "chip": "ym2612"
    },
    {
      "channel": 3,
      "note": 75,
      "start": 92.2389,
      "duration": 0.0144,
      "velocity": 115,
      "chip": "ym2612"
    },
    {
      "channel": 3,
      "note": 74,
      "start": 92.2532,
      "duration": 0.0181,
      "velocity": 115,
      "chip": "ym2612"
    },
    {
      "channel": 3,
      "note": 73,
      "start": 92.2714,
      "duration": 0.0182,
      "velocity": 115,
      "chip": "ym2612"
    },
    {
      "channel": 3,
      "note": 72,
      "start": 92.2895,
      "duration": 0.0182,
      "velocity": 115,
      "chip": "ym2612"
    },
    {
      "channel": 3,
      "note": 70,
      "start": 92.3077,
      "duration": 0.0361,
      "velocity": 115,
      "chip": "ym2612"
    },
    {
      "channel": 3,
      "note": 69,
      "start": 92.3438,
      "duration": 0.0183,
      "velocity": 115,
      "chip": "ym2612"
    },
    {
      "channel": 3,
      "note": 68,
      "start": 92.3622,
      "duration": 0.018,
      "velocity": 115,
      "chip": "ym2612"
    },
    {
      "channel": 3,
      "note": 67,
      "start": 92.3802,
      "duration": 0.0183,
      "velocity": 115,
      "chip": "ym2612"
    },
    {
      "channel": 3,
      "note": 66,
      "start": 92.3984,
      "duration": 0.021,
      "velocity": 115,
      "chip": "ym2612"
    },
    {
      "channel": 1,
      "note": 31,
      "start": 92.4185,
      "duration": 0.0911,
      "velocity": 127,
      "chip": "ym2612"
    },
    {
      "channel": 2,
      "note": 107,
      "start": 92.419,
      "duration": 0.0911,
      "velocity": 103,
      "chip": "ym2612"
    },
    {
      "channel": 3,
      "note": 71,
      "start": 92.4196,
      "duration": 0.0006,
      "velocity": 115,
      "chip": "ym2612"
    },
    {
      "channel": 3,
      "note": 70,
      "start": 92.4202,
      "duration": 0.0147,
      "velocity": 115,
      "chip": "ym2612"
    },
    {
      "channel": 3,
      "note": 68,
      "start": 92.4349,
      "duration": 0.0182,
      "velocity": 115,
      "chip": "ym2612"
    },
    {
      "channel": 3,
      "note": 67,
      "start": 92.453,
      "duration": 0.0182,
      "velocity": 115,
      "chip": "ym2612"
    },
    {
      "channel": 3,
      "note": 66,
      "start": 92.4712,
      "duration": 0.0182,
      "velocity": 115,
      "chip": "ym2612"
    },
    {
      "channel": 3,
      "note": 66,
      "start": 92.4894,
      "duration": 0.0215,
      "velocity": 115,
      "chip": "ym2612"
    },
    {
      "channel": 1,
      "note": 74,
      "start": 92.5098,
      "duration": 0.0891,
      "velocity": 127,
      "chip": "ym2612"
    },
    {
      "channel": 2,
      "note": 107,
      "start": 92.5103,
      "duration": 0.0892,
      "velocity": 103,
      "chip": "ym2612"
    },
    {
      "channel": 3,
      "note": 65,
      "start": 92.5109,
      "duration": 0.0152,
      "velocity": 115,
      "chip": "ym2612"
    },
    {
      "channel": 3,
      "note": 64,
      "start": 92.5261,
      "duration": 0.0181,
      "velocity": 115,
      "chip": "ym2612"
    },
    {
      "channel": 3,
      "note": 63,
      "start": 92.5442,
      "duration": 0.0181,
      "velocity": 115,
      "chip": "ym2612"
    },
    {
      "channel": 3,
      "note": 61,
      "start": 92.5624,
      "duration": 0.0182,
      "velocity": 115,
      "chip": "ym2612"
    },
    {
      "channel": 3,
      "note": 60,
      "start": 92.5806,
      "duration": 0.0197,
      "velocity": 115,
      "chip": "ym2612"
    },
    {
      "channel": 1,
      "note": 74,
      "start": 92.5991,
      "duration": 0.0908,
      "velocity": 127,
      "chip": "ym2612"
    },
    {
      "channel": 2,
      "note": 107,
      "start": 92.5996,
      "duration": 0.1831,
      "velocity": 103,
      "chip": "ym2612"
    },
    {
      "channel": 3,
      "note": 59,
      "start": 92.6002,
      "duration": 0.0167,
      "velocity": 115,
      "chip": "ym2612"
    },
    {
      "channel": 3,
      "note": 58,
      "start": 92.617,
      "duration": 0.0183,
      "velocity": 115,
      "chip": "ym2612"
    },
    {
      "channel": 3,
      "note": 56,
      "start": 92.6352,
      "duration": 0.0181,
      "velocity": 115,
      "chip": "ym2612"
    },
    {
      "channel": 3,
      "note": 55,
      "start": 92.6534,
      "duration": 0.0182,
      "velocity": 115,
      "chip": "ym2612"
    },
    {
      "channel": 3,
      "note": 54,
      "start": 92.6715,
      "duration": 0.0192,
      "velocity": 115,
      "chip": "ym2612"
    },
    {
      "channel": 1,
      "note": 74,
      "start": 92.6901,
      "duration": 0.0921,
      "velocity": 127,
      "chip": "ym2612"
    },
    {
      "channel": 3,
      "note": 54,
      "start": 92.6908,
      "duration": 0.0169,
      "velocity": 115,
      "chip": "ym2612"
    },
    {
      "channel": 3,
      "note": 53,
      "start": 92.7077,
      "duration": 0.018,
      "velocity": 115,
      "chip": "ym2612"
    },
    {
      "channel": 3,
      "note": 52,
      "start": 92.7257,
      "duration": 0.0178,
      "velocity": 115,
      "chip": "ym2612"
    },
    {
      "channel": 3,
      "note": 51,
      "start": 92.7436,
      "duration": 0.0182,
      "velocity": 115,
      "chip": "ym2612"
    },
    {
      "channel": 3,
      "note": 50,
      "start": 92.7618,
      "duration": 0.0218,
      "velocity": 115,
      "chip": "ym2612"
    },
    {
      "channel": 0,
      "note": 59,
      "start": 92.7802,
      "duration": 0.1816,
      "velocity": 89,
      "chip": "ym2612"
    },
    {
      "channel": 1,
      "note": 21,
      "start": 92.7824,
      "duration": 0.1817,
      "velocity": 127,
      "chip": "ym2612"
    },
    {
      "channel": 2,
      "note": 107,
      "start": 92.7829,
      "duration": 0.088,
      "velocity": 103,
      "chip": "ym2612"
    },
    {
      "channel": 3,
      "note": 48,
      "start": 92.7836,
      "duration": 0.0146,
      "velocity": 115,
      "chip": "ym2612"
    },
    {
      "channel": 3,
      "note": 47,
      "start": 92.7981,
      "duration": 0.0181,
      "velocity": 115,
      "chip": "ym2612"
    },
    {
      "channel": 3,
      "note": 46,
      "start": 92.8163,
      "duration": 0.018,
      "velocity": 115,
      "chip": "ym2612"
    },
    {
      "channel": 3,
      "note": 44,
      "start": 92.8342,
      "duration": 0.018,
      "velocity": 115,
      "chip": "ym2612"
    },
    {
      "channel": 3,
      "note": 43,
      "start": 92.8522,
      "duration": 0.0195,
      "velocity": 115,
      "chip": "ym2612"
    },
    {
      "channel": 2,
      "note": 107,
      "start": 92.8711,
      "duration": 0.1825,
      "velocity": 103,
      "chip": "ym2612"
    },
    {
      "channel": 3,
      "note": 42,
      "start": 92.8717,
      "duration": 0.017,
      "velocity": 115,
      "chip": "ym2612"
    },
    {
      "channel": 3,
      "note": 42,
      "start": 92.8888,
      "duration": 0.0182,
      "velocity": 115,
      "chip": "ym2612"
    },
    {
      "channel": 3,
      "note": 41,
      "start": 92.9069,
      "duration": 0.0182,
      "velocity": 115,
      "chip": "ym2612"
    },
    {
      "channel": 3,
      "note": 40,
      "start": 92.9252,
      "duration": 0.0182,
      "velocity": 115,
      "chip": "ym2612"
    },
    {
      "channel": 3,
      "note": 39,
      "start": 92.9433,
      "duration": 0.0215,
      "velocity": 115,
      "chip": "ym2612"
    },
    {
      "channel": 0,
      "note": 59,
      "start": 92.9621,
      "duration": 0.3636,
      "velocity": 89,
      "chip": "ym2612"
    },
    {
      "channel": 1,
      "note": 74,
      "start": 92.9642,
      "duration": 0.0889,
      "velocity": 127,
      "chip": "ym2612"
    },
    {
      "channel": 3,
      "note": 38,
      "start": 92.9649,
      "duration": 0.0151,
      "velocity": 115,
      "chip": "ym2612"
    },
    {
      "channel": 3,
      "note": 36,
      "start": 92.98,
      "duration": 0.0181,
      "velocity": 115,
      "chip": "ym2612"
    },
    {
      "channel": 3,
      "note": 35,
      "start": 92.9982,
      "duration": 0.0183,
      "velocity": 115,
      "chip": "ym2612"
    },
    {
      "channel": 3,
      "note": 34,
      "start": 93.0164,
      "duration": 0.0182,
      "velocity": 115,
      "chip": "ym2612"
    },
    {
      "channel": 3,
      "note": 32,
      "start": 93.0346,
      "duration": 0.0198,
      "velocity": 115,
      "chip": "ym2612"
    },
    {
      "channel": 1,
      "note": 74,
      "start": 93.0532,
      "duration": 0.0922,
      "velocity": 119,
      "chip": "ym2612"
    },
    {
      "channel": 2,
      "note": 107,
      "start": 93.0538,
      "duration": 0.1829,
      "velocity": 103,
      "chip": "ym2612"
    },
    {
      "channel": 3,
      "note": 31,
      "start": 93.0544,
      "duration": 0.0166,
      "velocity": 115,
      "chip": "ym2612"
    },
    {
      "channel": 3,
      "note": 30,
      "start": 93.071,
      "duration": 0.0181,
      "velocity": 115,
      "chip": "ym2612"
    },
    {
      "channel": 3,
      "note": 30,
      "start": 93.0891,
      "duration": 0.0183,
      "velocity": 115,
      "chip": "ym2612"
    },
    {
      "channel": 3,
      "note": 29,
      "start": 93.1074,
      "duration": 0.018,
      "velocity": 115,
      "chip": "ym2612"
    },
    {
      "channel": 3,
      "note": 28,
      "start": 93.1254,
      "duration": 0.0208,
      "velocity": 115,
      "chip": "ym2612"
    },
    {
      "channel": 1,
      "note": 31,
      "start": 93.1455,
      "duration": 0.0907,
      "velocity": 127,
      "chip": "ym2612"
    },
    {
      "channel": 3,
      "note": 27,
      "start": 93.1462,
      "duration": 0.0157,
      "velocity": 115,
      "chip": "ym2612"
    },
    {
      "channel": 3,
      "note": 26,
      "start": 93.1619,
      "duration": 0.0182,
      "velocity": 115,
      "chip": "ym2612"
    },
    {
      "channel": 3,
      "note": 24,
      "start": 93.1801,
      "duration": 0.0181,
      "velocity": 115,
      "chip": "ym2612"
    },
    {
      "channel": 3,
      "note": 23,
      "start": 93.1982,
      "duration": 0.018,
      "velocity": 115,
      "chip": "ym2612"
    },
    {
      "channel": 3,
      "note": 22,
      "start": 93.2162,
      "duration": 0.0214,
      "velocity": 115,
      "chip": "ym2612"
    },
    {
      "channel": 1,
      "note": 74,
      "start": 93.2363,
      "duration": 0.0898,
      "velocity": 127,
      "chip": "ym2612"
    },
    {
      "channel": 2,
      "note": 107,
      "start": 93.2369,
      "duration": 0.2701,
      "velocity": 103,
      "chip": "ym2612"
    },
    {
      "channel": 3,
      "note": 20,
      "start": 93.2376,
      "duration": 0.0152,
      "velocity": 115,
      "chip": "ym2612"
    },
    {
      "channel": 3,
      "note": 115,
      "start": 93.2528,
      "duration": 0.0182,
      "velocity": 115,
      "chip": "ym2612"
    },
    {
      "channel": 3,
      "note": 114,
      "start": 93.271,
      "duration": 0.0182,
      "velocity": 115,
      "chip": "ym2612"
    },
    {
      "channel": 3,
      "note": 114,
      "start": 93.2891,
      "duration": 0.0182,
      "velocity": 115,
      "chip": "ym2612"
    },
    {
      "channel": 3,
      "note": 113,
      "start": 93.3073,
      "duration": 0.0196,
      "velocity": 115,
      "chip": "ym2612"
    },
    {
      "channel": 0,
      "note": 57,
      "start": 93.3258,
      "duration": 2.3592,
      "velocity": 89,
      "chip": "ym2612"
    },
    {
      "channel": 1,
      "note": 74,
      "start": 93.3263,
      "duration": 0.1801,
      "velocity": 127,
      "chip": "ym2612"
    },
    {
      "channel": 3,
      "note": 112,
      "start": 93.327,
      "duration": 0.0167,
      "velocity": 115,
      "chip": "ym2612"
    },
    {
      "channel": 3,
      "note": 111,
      "start": 93.3437,
      "duration": 0.0182,
      "velocity": 115,
      "chip": "ym2612"
    },
    {
      "channel": 3,
      "note": 110,
      "start": 93.3619,
      "duration": 0.0181,
      "velocity": 115,
      "chip": "ym2612"
    },
    {
      "channel": 3,
      "note": 108,
      "start": 93.38,
      "duration": 0.018,
      "velocity": 115,
      "chip": "ym2612"
    },
    {
      "channel": 3,
      "note": 107,
      "start": 93.398,
      "duration": 0.036,
      "velocity": 115,
      "chip": "ym2612"
    },
    {
      "channel": 3,
      "note": 106,
      "start": 93.434,
      "duration": 0.0181,
      "velocity": 115,
      "chip": "ym2612"
    },
    {
      "channel": 3,
      "note": 104,
      "start": 93.4521,
      "duration": 0.018,
      "velocity": 115,
      "chip": "ym2612"
    },
    {
      "channel": 3,
      "note": 103,
      "start": 93.4702,
      "duration": 0.018,
      "velocity": 115,
      "chip": "ym2612"
    },
    {
      "channel": 3,
      "note": 103,
      "start": 93.4881,
      "duration": 0.02,
      "velocity": 115,
      "chip": "ym2612"
    },
    {
      "channel": 1,
      "note": 74,
      "start": 93.5066,
      "duration": 0.0901,
      "velocity": 127,
      "chip": "ym2612"
    },
    {
      "channel": 2,
      "note": 107,
      "start": 93.5072,
      "duration": 0.1825,
      "velocity": 103,
      "chip": "ym2612"
    },
    {
      "channel": 3,
      "note": 102,
      "start": 93.5081,
      "duration": 0.0163,
      "velocity": 115,
      "chip": "ym2612"
    },
    {
      "channel": 3,
      "note": 101,
      "start": 93.5245,
      "duration": 0.0181,
      "velocity": 115,
      "chip": "ym2612"
    },
    {
      "channel": 3,
      "note": 100,
      "start": 93.5426,
      "duration": 0.018,
      "velocity": 115,
      "chip": "ym2612"
    },
    {
      "channel": 3,
      "note": 99,
      "start": 93.5606,
      "duration": 0.018,
      "velocity": 115,
      "chip": "ym2612"
    },
    {
      "channel": 3,
      "note": 98,
      "start": 93.5786,
      "duration": 0.019,
      "velocity": 115,
      "chip": "ym2612"
    },
    {
      "channel": 1,
      "note": 74,
      "start": 93.5969,
      "duration": 0.0924,
      "velocity": 127,
      "chip": "ym2612"
    },
    {
      "channel": 3,
      "note": 96,
      "start": 93.5976,
      "duration": 0.0171,
      "velocity": 115,
      "chip": "ym2612"
    },
    {
      "channel": 3,
      "note": 95,
      "start": 93.6147,
      "duration": 0.0181,
      "velocity": 115,
      "chip": "ym2612"
    },
    {
      "channel": 3,
      "note": 94,
      "start": 93.6328,
      "duration": 0.0181,
      "velocity": 115,
      "chip": "ym2612"
    },
    {
      "channel": 3,
      "note": 92,
      "start": 93.6509,
      "duration": 0.0183,
      "velocity": 115,
      "chip": "ym2612"
    },
    {
      "channel": 3,
      "note": 91,
      "start": 93.6693,
      "duration": 0.0213,
      "velocity": 115,
      "chip": "ym2612"
    },
    {
      "channel": 1,
      "note": 21,
      "start": 93.6894,
      "duration": 0.0906,
      "velocity": 127,
      "chip": "ym2612"
    },
    {
      "channel": 2,
      "note": 107,
      "start": 93.69,
      "duration": 0.1811,
      "velocity": 103,
      "chip": "ym2612"
    },
    {
      "channel": 3,
      "note": 91,
      "start": 93.6906,
      "duration": 0.0149,
      "velocity": 115,
      "chip": "ym2612"
    },
    {
      "channel": 3,
      "note": 90,
      "start": 93.7055,
      "duration": 0.0181,
      "velocity": 115,
      "chip": "ym2612"
    },
    {
      "channel": 3,
      "note": 89,
      "start": 93.7237,
      "duration": 0.018,
      "velocity": 115,
      "chip": "ym2612"
    },
    {
      "channel": 3,
      "note": 88,
      "start": 93.7417,
      "duration": 0.0181,
      "velocity": 115,
      "chip": "ym2612"
    },
    {
      "channel": 3,
      "note": 87,
      "start": 93.7598,
      "duration": 0.021,
      "velocity": 115,
      "chip": "ym2612"
    },
    {
      "channel": 1,
      "note": 74,
      "start": 93.7801,
      "duration": 0.0905,
      "velocity": 119,
      "chip": "ym2612"
    },
    {
      "channel": 3,
      "note": 86,
      "start": 93.7808,
      "duration": 0.0158,
      "velocity": 115,
      "chip": "ym2612"
    },
    {
      "channel": 3,
      "note": 84,
      "start": 93.7966,
      "duration": 0.0182,
      "velocity": 115,
      "chip": "ym2612"
    },
    {
      "channel": 3,
      "note": 83,
      "start": 93.8148,
      "duration": 0.018,
      "velocity": 115,
      "chip": "ym2612"
    },
    {
      "channel": 3,
      "note": 82,
      "start": 93.8328,
      "duration": 0.018,
      "velocity": 115,
      "chip": "ym2612"
    },
    {
      "channel": 3,
      "note": 80,
      "start": 93.8508,
      "duration": 0.0211,
      "velocity": 115,
      "chip": "ym2612"
    },
    {
      "channel": 1,
      "note": 31,
      "start": 93.8707,
      "duration": 0.1815,
      "velocity": 127,
      "chip": "ym2612"
    },
    {
      "channel": 2,
      "note": 107,
      "start": 93.8713,
      "duration": 0.0888,
      "velocity": 103,
      "chip": "ym2612"
    },
    {
      "channel": 3,
      "note": 79,
      "start": 93.8719,
      "duration": 0.0151,
      "velocity": 115,
      "chip": "ym2612"
    },
    {
      "channel": 3,
      "note": 79,
      "start": 93.8871,
      "duration": 0.0183,
      "velocity": 115,
      "chip": "ym2612"
    },
    {
      "channel": 3,
      "note": 78,
      "start": 93.9054,
      "duration": 0.0181,
      "velocity": 115,
      "chip": "ym2612"
    },
    {
      "channel": 3,
      "note": 77,
      "start": 93.9235,
      "duration": 0.018,
      "velocity": 115,
      "chip": "ym2612"
    },
    {
      "channel": 3,
      "note": 76,
      "start": 93.9415,
      "duration": 0.0193,
      "velocity": 115,
      "chip": "ym2612"
    },
    {
      "channel": 2,
      "note": 107,
      "start": 93.9602,
      "duration": 0.0925,
      "velocity": 103,
      "chip": "ym2612"
    },
    {
      "channel": 3,
      "note": 75,
      "start": 93.9608,
      "duration": 0.017,
      "velocity": 115,
      "chip": "ym2612"
    },
    {
      "channel": 3,
      "note": 74,
      "start": 93.9778,
      "duration": 0.0181,
      "velocity": 115,
      "chip": "ym2612"
    },
    {
      "channel": 3,
      "note": 72,
      "start": 93.9959,
      "duration": 0.018,
      "velocity": 115,
      "chip": "ym2612"
    },
    {
      "channel": 3,
      "note": 71,
      "start": 94.0139,
      "duration": 0.0182,
      "velocity": 115,
      "chip": "ym2612"
    },
    {
      "channel": 3,
      "note": 70,
      "start": 94.032,
      "duration": 0.0215,
      "velocity": 115,
      "chip": "ym2612"
    },
    {
      "channel": 1,
      "note": 74,
      "start": 94.0523,
      "duration": 0.089,
      "velocity": 127,
      "chip": "ym2612"
    },
    {
      "channel": 2,
      "note": 107,
      "start": 94.0529,
      "duration": 0.1816,
      "velocity": 103,
      "chip": "ym2612"
    },
    {
      "channel": 3,
      "note": 68,
      "start": 94.0535,
      "duration": 0.0153,
      "velocity": 115,
      "chip": "ym2612"
    },
    {
      "channel": 3,
      "note": 67,
      "start": 94.0688,
      "duration": 0.018,
      "velocity": 115,
      "chip": "ym2612"
    },
    {
      "channel": 3,
      "note": 67,
      "start": 94.0868,
      "duration": 0.0183,
      "velocity": 115,
      "chip": "ym2612"
    },
    {
      "channel": 3,
      "note": 66,
      "start": 94.1051,
      "duration": 0.0178,
      "velocity": 115,
      "chip": "ym2612"
    },
    {
      "channel": 3,
      "note": 65,
      "start": 94.1229,
      "duration": 0.0192,
      "velocity": 115,
      "chip": "ym2612"
    },
    {
      "channel": 1,
      "note": 74,
      "start": 94.1415,
      "duration": 0.0925,
      "velocity": 127,
      "chip": "ym2612"
    },
    {
      "channel": 3,
      "note": 64,
      "start": 94.1421,
      "duration": 0.0171,
      "velocity": 115,
      "chip": "ym2612"
    },
    {
      "channel": 3,
      "note": 63,
      "start": 94.1592,
      "duration": 0.0181,
      "velocity": 115,
      "chip": "ym2612"
    },
    {
      "channel": 3,
      "note": 62,
      "start": 94.1773,
      "duration": 0.0183,
      "velocity": 115,
      "chip": "ym2612"
    },
    {
      "channel": 3,
      "note": 60,
      "start": 94.1957,
      "duration": 0.0182,
      "velocity": 115,
      "chip": "ym2612"
    },
    {
      "channel": 3,
      "note": 59,
      "start": 94.2139,
      "duration": 0.0217,
      "velocity": 115,
      "chip": "ym2612"
    },
    {
      "channel": 1,
      "note": 21,
      "start": 94.2341,
      "duration": 0.1813,
      "velocity": 127,
      "chip": "ym2612"
    },
    {
      "channel": 2,
      "note": 107,
      "start": 94.2347,
      "duration": 0.0884,
      "velocity": 103,
      "chip": "ym2612"
    },
    {
      "channel": 3,
      "note": 58,
      "start": 94.2356,
      "duration": 0.0148,
      "velocity": 115,
      "chip": "ym2612"
    },
    {
      "channel": 3,
      "note": 56,
      "start": 94.2504,
      "duration": 0.0182,
      "velocity": 115,
      "chip": "ym2612"
    },
    {
      "channel": 3,
      "note": 55,
      "start": 94.2686,
      "duration": 0.0179,
      "velocity": 115,
      "chip": "ym2612"
    },
    {
      "channel": 3,
      "note": 55,
      "start": 94.2866,
      "duration": 0.0181,
      "velocity": 115,
      "chip": "ym2612"
    },
    {
      "channel": 3,
      "note": 54,
      "start": 94.3046,
      "duration": 0.0191,
      "velocity": 115,
      "chip": "ym2612"
    },
    {
      "channel": 2,
      "note": 107,
      "start": 94.3233,
      "duration": 0.1819,
      "velocity": 103,
      "chip": "ym2612"
    },
    {
      "channel": 3,
      "note": 72,
      "start": 94.3239,
      "duration": 0.0006,
      "velocity": 115,
      "chip": "ym2612"
    },
    {
      "channel": 3,
      "note": 71,
      "start": 94.3245,
      "duration": 0.0166,
      "velocity": 115,
      "chip": "ym2612"
    },
    {
      "channel": 3,
      "note": 69,
      "start": 94.341,
      "duration": 0.0182,
      "velocity": 115,
      "chip": "ym2612"
    },
    {
      "channel": 3,
      "note": 68,
      "start": 94.3592,
      "duration": 0.0183,
      "velocity": 115,
      "chip": "ym2612"
    },
    {
      "channel": 3,
      "note": 67,
      "start": 94.3775,
      "duration": 0.0179,
      "velocity": 115,
      "chip": "ym2612"
    },
    {
      "channel": 3,
      "note": 66,
      "start": 94.3953,
      "duration": 0.021,
      "velocity": 115,
      "chip": "ym2612"
    },
    {
      "channel": 1,
      "note": 74,
      "start": 94.4156,
      "duration": 0.0891,
      "velocity": 127,
      "chip": "ym2612"
    },
    {
      "channel": 3,
      "note": 65,
      "start": 94.4163,
      "duration": 0.0154,
      "velocity": 115,
      "chip": "ym2612"
    },
    {
      "channel": 3,
      "note": 64,
      "start": 94.4317,
      "duration": 0.0182,
      "velocity": 115,
      "chip": "ym2612"
    },
    {
      "channel": 3,
      "note": 63,
      "start": 94.4499,
      "duration": 0.0182,
      "velocity": 115,
      "chip": "ym2612"
    },
    {
      "channel": 3,
      "note": 62,
      "start": 94.468,
      "duration": 0.0183,
      "velocity": 115,
      "chip": "ym2612"
    },
    {
      "channel": 3,
      "note": 61,
      "start": 94.4863,
      "duration": 0.0197,
      "velocity": 115,
      "chip": "ym2612"
    },
    {
      "channel": 1,
      "note": 74,
      "start": 94.5049,
      "duration": 0.0923,
      "velocity": 119,
      "chip": "ym2612"
    },
    {
      "channel": 2,
      "note": 107,
      "start": 94.5054,
      "duration": 0.1835,
      "velocity": 103,
      "chip": "ym2612"
    },
    {
      "channel": 3,
      "note": 60,
      "start": 94.506,
      "duration": 0.0166,
      "velocity": 115,
      "chip": "ym2612"
    },
    {
      "channel": 3,
      "note": 59,
      "start": 94.5226,
      "duration": 0.0181,
      "velocity": 115,
      "chip": "ym2612"
    },
    {
      "channel": 3,
      "note": 57,
      "start": 94.5408,
      "duration": 0.0182,
      "velocity": 115,
      "chip": "ym2612"
    },
    {
      "channel": 3,
      "note": 56,
      "start": 94.559,
      "duration": 0.0181,
      "velocity": 115,
      "chip": "ym2612"
    },
    {
      "channel": 3,
      "note": 55,
      "start": 94.5771,
      "duration": 0.0207,
      "velocity": 115,
      "chip": "ym2612"
    },
    {
      "channel": 1,
      "note": 31,
      "start": 94.5973,
      "duration": 0.091,
      "velocity": 127,
      "chip": "ym2612"
    },
    {
      "channel": 3,
      "note": 72,
      "start": 94.598,
      "duration": 0.0006,
      "velocity": 115,
      "chip": "ym2612"
    },
    {
      "channel": 3,
      "note": 71,
      "start": 94.5986,
      "duration": 0.0152,
      "velocity": 115,
      "chip": "ym2612"
    },
    {
      "channel": 3,
      "note": 69,
      "start": 94.6137,
      "duration": 0.0181,
      "velocity": 115,
      "chip": "ym2612"
    },
    {
      "channel": 3,
      "note": 68,
      "start": 94.6319,
      "duration": 0.0183,
      "velocity": 115,
      "chip": "ym2612"
    },
    {
      "channel": 3,
      "note": 67,
      "start": 94.6502,
      "duration": 0.018,
      "velocity": 115,
      "chip": "ym2612"
    },
    {
      "channel": 3,
      "note": 66,
      "start": 94.6682,
      "duration": 0.0214,
      "velocity": 115,
      "chip": "ym2612"
    },
    {
      "channel": 1,
      "note": 74,
      "start": 94.6885,
      "duration": 0.0909,
      "velocity": 127,
      "chip": "ym2612"
    },
    {
      "channel": 2,
      "note": 107,
      "start": 94.689,
      "duration": 0.2719,
      "velocity": 103,
      "chip": "ym2612"
    },
    {
      "channel": 3,
      "note": 65,
      "start": 94.6896,
      "duration": 0.0152,
      "velocity": 115,
      "chip": "ym2612"
    },
    {
      "channel": 3,
      "note": 64,
      "start": 94.7048,
      "duration": 0.018,
      "velocity": 115,
      "chip": "ym2612"
    },
    {
      "channel": 3,
      "note": 63,
      "start": 94.7228,
      "duration": 0.0181,
      "velocity": 115,
      "chip": "ym2612"
    },
    {
      "channel": 3,
      "note": 62,
      "start": 94.741,
      "duration": 0.0182,
      "velocity": 115,
      "chip": "ym2612"
    },
    {
      "channel": 3,
      "note": 61,
      "start": 94.7591,
      "duration": 0.0208,
      "velocity": 115,
      "chip": "ym2612"
    },
    {
      "channel": 1,
      "note": 21,
      "start": 94.7794,
      "duration": 0.181,
      "velocity": 127,
      "chip": "ym2612"
    },
    {
      "channel": 3,
      "note": 69,
      "start": 94.7801,
      "duration": 0.0006,
      "velocity": 115,
      "chip": "ym2612"
    },
    {
      "channel": 3,
      "note": 68,
      "start": 94.7807,
      "duration": 0.015,
      "velocity": 115,
      "chip": "ym2612"
    },
    {
      "channel": 3,
      "note": 67,
      "start": 94.7957,
      "duration": 0.018,
      "velocity": 115,
      "chip": "ym2612"
    },
    {
      "channel": 3,
      "note": 66,
      "start": 94.8137,
      "duration": 0.0182,
      "velocity": 115,
      "chip": "ym2612"
    },
    {
      "channel": 3,
      "note": 65,
      "start": 94.8319,
      "duration": 0.018,
      "velocity": 115,
      "chip": "ym2612"
    },
    {
      "channel": 3,
      "note": 64,
      "start": 94.8499,
      "duration": 0.0362,
      "velocity": 115,
      "chip": "ym2612"
    },
    {
      "channel": 3,
      "note": 63,
      "start": 94.8861,
      "duration": 0.0181,
      "velocity": 115,
      "chip": "ym2612"
    },
    {
      "channel": 3,
      "note": 62,
      "start": 94.9042,
      "duration": 0.018,
      "velocity": 115,
      "chip": "ym2612"
    },
    {
      "channel": 3,
      "note": 61,
      "start": 94.9222,
      "duration": 0.0182,
      "velocity": 115,
      "chip": "ym2612"
    },
    {
      "channel": 3,
      "note": 60,
      "start": 94.9404,
      "duration": 0.0213,
      "velocity": 115,
      "chip": "ym2612"
    },
    {
      "channel": 1,
      "note": 74,
      "start": 94.9606,
      "duration": 0.0883,
      "velocity": 127,
      "chip": "ym2612"
    },
    {
      "channel": 2,
      "note": 107,
      "start": 94.9612,
      "duration": 0.1807,
      "velocity": 103,
      "chip": "ym2612"
    },
    {
      "channel": 3,
      "note": 58,
      "start": 94.9617,
      "duration": 0.0153,
      "velocity": 115,
      "chip": "ym2612"
    },
    {
      "channel": 3,
      "note": 57,
      "start": 94.977,
      "duration": 0.018,
      "velocity": 115,
      "chip": "ym2612"
    },
    {
      "channel": 3,
      "note": 56,
      "start": 94.995,
      "duration": 0.0178,
      "velocity": 115,
      "chip": "ym2612"
    },
    {
      "channel": 3,
      "note": 55,
      "start": 95.0128,
      "duration": 0.018,
      "velocity": 115,
      "chip": "ym2612"
    },
    {
      "channel": 3,
      "note": 54,
      "start": 95.0308,
      "duration": 0.0188,
      "velocity": 115,
      "chip": "ym2612"
    },
    {
      "channel": 1,
      "note": 74,
      "start": 95.0491,
      "duration": 0.0923,
      "velocity": 127,
      "chip": "ym2612"
    },
    {
      "channel": 3,
      "note": 72,
      "start": 95.0498,
      "duration": 0.0005,
      "velocity": 115,
      "chip": "ym2612"
    },
    {
      "channel": 3,
      "note": 71,
      "start": 95.0503,
      "duration": 0.0164,
      "velocity": 115,
      "chip": "ym2612"
    },
    {
      "channel": 3,
      "note": 69,
      "start": 95.0667,
      "duration": 0.0182,
      "velocity": 115,
      "chip": "ym2612"
    },
    {
      "channel": 3,
      "note": 68,
      "start": 95.0849,
      "duration": 0.0182,
      "velocity": 115,
      "chip": "ym2612"
    },
    {
      "channel": 3,
      "note": 67,
      "start": 95.1031,
      "duration": 0.0182,
      "velocity": 115,
      "chip": "ym2612"
    },
    {
      "channel": 3,
      "note": 66,
      "start": 95.1213,
      "duration": 0.0214,
      "velocity": 115,
      "chip": "ym2612"
    },
    {
      "channel": 1,
      "note": 21,
      "start": 95.1415,
      "duration": 0.0909,
      "velocity": 127,
      "chip": "ym2612"
    },
    {
      "channel": 2,
      "note": 107,
      "start": 95.1421,
      "duration": 0.1812,
      "velocity": 103,
      "chip": "ym2612"
    },
    {
      "channel": 3,
      "note": 65,
      "start": 95.1427,
      "duration": 0.0152,
      "velocity": 115,
      "chip": "ym2612"
    },
    {
      "channel": 3,
      "note": 64,
      "start": 95.1579,
      "duration": 0.0182,
      "velocity": 115,
      "chip": "ym2612"
    },
    {
      "channel": 3,
      "note": 63,
      "start": 95.1761,
      "duration": 0.0182,
      "velocity": 115,
      "chip": "ym2612"
    },
    {
      "channel": 3,
      "note": 62,
      "start": 95.1943,
      "duration": 0.0182,
      "velocity": 115,
      "chip": "ym2612"
    },
    {
      "channel": 3,
      "note": 61,
      "start": 95.2125,
      "duration": 0.0207,
      "velocity": 115,
      "chip": "ym2612"
    },
    {
      "channel": 1,
      "note": 74,
      "start": 95.2326,
      "duration": 0.0902,
      "velocity": 119,
      "chip": "ym2612"
    },
    {
      "channel": 3,
      "note": 60,
      "start": 95.2332,
      "duration": 0.0155,
      "velocity": 115,
      "chip": "ym2612"
    },
    {
      "channel": 3,
      "note": 59,
      "start": 95.2487,
      "duration": 0.018,
      "velocity": 115,
      "chip": "ym2612"
    },
    {
      "channel": 3,
      "note": 57,
      "start": 95.2667,
      "duration": 0.0178,
      "velocity": 115,
      "chip": "ym2612"
    },
    {
      "channel": 3,
      "note": 56,
      "start": 95.2844,
      "duration": 0.0182,
      "velocity": 115,
      "chip": "ym2612"
    },
    {
      "channel": 3,
      "note": 55,
      "start": 95.3026,
      "duration": 0.0212,
      "velocity": 115,
      "chip": "ym2612"
    },
    {
      "channel": 1,
      "note": 31,
      "start": 95.3229,
      "duration": 0.0907,
      "velocity": 127,
      "chip": "ym2612"
    },
    {
      "channel": 2,
      "note": 107,
      "start": 95.3234,
      "duration": 0.0907,
      "velocity": 103,
      "chip": "ym2612"
    },
    {
      "channel": 3,
      "note": 76,
      "start": 95.324,
      "duration": 0.0006,
      "velocity": 115,
      "chip": "ym2612"
    },
    {
      "channel": 3,
      "note": 75,
      "start": 95.3246,
      "duration": 0.0147,
      "velocity": 115,
      "chip": "ym2612"
    },
    {
      "channel": 3,
      "note": 74,
      "start": 95.3393,
      "duration": 0.0181,
      "velocity": 115,
      "chip": "ym2612"
    },
    {
      "channel": 3,
      "note": 73,
      "start": 95.3574,
      "duration": 0.0182,
      "velocity": 115,
      "chip": "ym2612"
    },
    {
      "channel": 3,
      "note": 72,
      "start": 95.3756,
      "duration": 0.018,
      "velocity": 115,
      "chip": "ym2612"
    },
    {
      "channel": 3,
      "note": 70,
      "start": 95.3937,
      "duration": 0.021,
      "velocity": 115,
      "chip": "ym2612"
    },
    {
      "channel": 1,
      "note": 74,
      "start": 95.4137,
      "duration": 0.0891,
      "velocity": 127,
      "chip": "ym2612"
    },
    {
      "channel": 2,
      "note": 107,
      "start": 95.4143,
      "duration": 0.0891,
      "velocity": 103,
      "chip": "ym2612"
    },
    {
      "channel": 3,
      "note": 76,
      "start": 95.4149,
      "duration": 0.0006,
      "velocity": 115,
      "chip": "ym2612"
    },
    {
      "channel": 3,
      "note": 75,
      "start": 95.4155,
      "duration": 0.0146,
      "velocity": 115,
      "chip": "ym2612"
    },
    {
      "channel": 3,
      "note": 74,
      "start": 95.4301,
      "duration": 0.0182,
      "velocity": 115,
      "chip": "ym2612"
    },
    {
      "channel": 3,
      "note": 73,
      "start": 95.4483,
      "duration": 0.0181,
      "velocity": 115,
      "chip": "ym2612"
    },
    {
      "channel": 3,
      "note": 72,
      "start": 95.4664,
      "duration": 0.0181,
      "velocity": 115,
      "chip": "ym2612"
    },
    {
      "channel": 3,
      "note": 70,
      "start": 95.4846,
      "duration": 0.0195,
      "velocity": 115,
      "chip": "ym2612"
    },
    {
      "channel": 1,
      "note": 74,
      "start": 95.5031,
      "duration": 0.0908,
      "velocity": 127,
      "chip": "ym2612"
    },
    {
      "channel": 2,
      "note": 107,
      "start": 95.5036,
      "duration": 0.1841,
      "velocity": 103,
      "chip": "ym2612"
    },
    {
      "channel": 3,
      "note": 69,
      "start": 95.5042,
      "duration": 0.0008,
      "velocity": 115,
      "chip": "ym2612"
    },
    {
      "channel": 3,
      "note": 68,
      "start": 95.505,
      "duration": 0.0159,
      "velocity": 115,
      "chip": "ym2612"
    },
    {
      "channel": 3,
      "note": 67,
      "start": 95.5209,
      "duration": 0.0181,
      "velocity": 115,
      "chip": "ym2612"
    },
    {
      "channel": 3,
      "note": 66,
      "start": 95.539,
      "duration": 0.0182,
      "velocity": 115,
      "chip": "ym2612"
    },
    {
      "channel": 3,
      "note": 65,
      "start": 95.5573,
      "duration": 0.0181,
      "velocity": 115,
      "chip": "ym2612"
    },
    {
      "channel": 3,
      "note": 64,
      "start": 95.5753,
      "duration": 0.0193,
      "velocity": 115,
      "chip": "ym2612"
    },
    {
      "channel": 1,
      "note": 74,
      "start": 95.594,
      "duration": 0.093,
      "velocity": 127,
      "chip": "ym2612"
    },
    {
      "channel": 3,
      "note": 63,
      "start": 95.5947,
      "duration": 0.017,
      "velocity": 115,
      "chip": "ym2612"
    },
    {
      "channel": 3,
      "note": 62,
      "start": 95.6117,
      "duration": 0.0181,
      "velocity": 115,
      "chip": "ym2612"
    },
    {
      "channel": 3,
      "note": 61,
      "start": 95.6298,
      "duration": 0.0181,
      "velocity": 115,
      "chip": "ym2612"
    },
    {
      "channel": 3,
      "note": 60,
      "start": 95.6479,
      "duration": 0.0182,
      "velocity": 115,
      "chip": "ym2612"
    },
    {
      "channel": 3,
      "note": 58,
      "start": 95.6661,
      "duration": 0.0237,
      "velocity": 1,
      "chip": "ym2612"
    },
    {
      "channel": 0,
      "note": 59,
      "start": 95.6851,
      "duration": 0.1813,
      "velocity": 89,
      "chip": "ym2612"
    },
    {
      "channel": 1,
      "note": 21,
      "start": 95.6872,
      "duration": 0.1812,
      "velocity": 127,
      "chip": "ym2612"
    },
    {
      "channel": 2,
      "note": 107,
      "start": 95.6878,
      "duration": 0.0881,
      "velocity": 103,
      "chip": "ym2612"
    },
    {
      "channel": 3,
      "note": 79,
      "start": 95.69,
      "duration": 1.537,
      "velocity": 115,
      "chip": "ym2612"
    },
    {
      "channel": 2,
      "note": 107,
      "start": 95.7761,
      "duration": 0.1815,
      "velocity": 103,
      "chip": "ym2612"
    },
    {
      "channel": 0,
      "note": 59,
      "start": 95.8665,
      "duration": 0.3619,
      "velocity": 89,
      "chip": "ym2612"
    },
    {
      "channel": 1,
      "note": 74,
      "start": 95.8686,
      "duration": 0.0884,
      "velocity": 127,
      "chip": "ym2612"
    },
    {
      "channel": 1,
      "note": 74,
      "start": 95.9573,
      "duration": 0.0918,
      "velocity": 119,
      "chip": "ym2612"
    },
    {
      "channel": 2,
      "note": 107,
      "start": 95.9578,
      "duration": 0.182,
      "velocity": 103,
      "chip": "ym2612"
    },
    {
      "channel": 1,
      "note": 31,
      "start": 96.0492,
      "duration": 0.0901,
      "velocity": 127,
      "chip": "ym2612"
    },
    {
      "channel": 1,
      "note": 74,
      "start": 96.1395,
      "duration": 0.0895,
      "velocity": 127,
      "chip": "ym2612"
    },
    {
      "channel": 2,
      "note": 107,
      "start": 96.1401,
      "duration": 0.2698,
      "velocity": 103,
      "chip": "ym2612"
    },
    {
      "channel": 0,
      "note": 57,
      "start": 96.2285,
      "duration": 2.358,
      "velocity": 89,
      "chip": "ym2612"
    },
    {
      "channel": 1,
      "note": 74,
      "start": 96.229,
      "duration": 0.1802,
      "velocity": 127,
      "chip": "ym2612"
    },
    {
      "channel": 1,
      "note": 74,
      "start": 96.4094,
      "duration": 0.0903,
      "velocity": 127,
      "chip": "ym2612"
    },
    {
      "channel": 2,
      "note": 107,
      "start": 96.4099,
      "duration": 0.1826,
      "velocity": 103,
      "chip": "ym2612"
    },
    {
      "channel": 1,
      "note": 74,
      "start": 96.4999,
      "duration": 0.092,
      "velocity": 127,
      "chip": "ym2612"
    },
    {
      "channel": 1,
      "note": 21,
      "start": 96.5921,
      "duration": 0.0906,
      "velocity": 127,
      "chip": "ym2612"
    },
    {
      "channel": 2,
      "note": 107,
      "start": 96.5927,
      "duration": 0.1811,
      "velocity": 103,
      "chip": "ym2612"
    },
    {
      "channel": 1,
      "note": 74,
      "start": 96.6829,
      "duration": 0.0903,
      "velocity": 119,
      "chip": "ym2612"
    },
    {
      "channel": 1,
      "note": 31,
      "start": 96.7734,
      "duration": 0.1808,
      "velocity": 127,
      "chip": "ym2612"
    },
    {
      "channel": 2,
      "note": 107,
      "start": 96.7739,
      "duration": 0.0882,
      "velocity": 103,
      "chip": "ym2612"
    },
    {
      "channel": 2,
      "note": 107,
      "start": 96.8622,
      "duration": 0.0924,
      "velocity": 103,
      "chip": "ym2612"
    },
    {
      "channel": 1,
      "note": 74,
      "start": 96.9543,
      "duration": 0.0889,
      "velocity": 127,
      "chip": "ym2612"
    },
    {
      "channel": 2,
      "note": 107,
      "start": 96.9549,
      "duration": 0.1812,
      "velocity": 103,
      "chip": "ym2612"
    },
    {
      "channel": 1,
      "note": 74,
      "start": 97.0434,
      "duration": 0.0921,
      "velocity": 127,
      "chip": "ym2612"
    },
    {
      "channel": 1,
      "note": 21,
      "start": 97.1357,
      "duration": 0.1816,
      "velocity": 127,
      "chip": "ym2612"
    },
    {
      "channel": 2,
      "note": 107,
      "start": 97.1363,
      "duration": 0.0885,
      "velocity": 103,
      "chip": "ym2612"
    },
    {
      "channel": 2,
      "note": 107,
      "start": 97.225,
      "duration": 0.1822,
      "velocity": 103,
      "chip": "ym2612"
    },
    {
      "channel": 3,
      "note": 72,
      "start": 97.2271,
      "duration": 0.0005,
      "velocity": 115,
      "chip": "ym2612"
    },
    {
      "channel": 3,
      "note": 71,
      "start": 97.2277,
      "duration": 0.0152,
      "velocity": 115,
      "chip": "ym2612"
    },
    {
      "channel": 3,
      "note": 69,
      "start": 97.2428,
      "duration": 0.0182,
      "velocity": 115,
      "chip": "ym2612"
    },
    {
      "channel": 3,
      "note": 68,
      "start": 97.261,
      "duration": 0.0181,
      "velocity": 115,
      "chip": "ym2612"
    },
    {
      "channel": 3,
      "note": 67,
      "start": 97.2791,
      "duration": 0.0182,
      "velocity": 115,
      "chip": "ym2612"
    },
    {
      "channel": 3,
      "note": 66,
      "start": 97.2973,
      "duration": 0.0208,
      "velocity": 115,
      "chip": "ym2612"
    },
    {
      "channel": 1,
      "note": 74,
      "start": 97.3174,
      "duration": 0.0891,
      "velocity": 127,
      "chip": "ym2612"
    },
    {
      "channel": 3,
      "note": 65,
      "start": 97.3181,
      "duration": 0.0157,
      "velocity": 115,
      "chip": "ym2612"
    },
    {
      "channel": 3,
      "note": 64,
      "start": 97.3339,
      "duration": 0.0181,
      "velocity": 115,
      "chip": "ym2612"
    },
    {
      "channel": 3,
      "note": 63,
      "start": 97.352,
      "duration": 0.0181,
      "velocity": 115,
      "chip": "ym2612"
    },
    {
      "channel": 3,
      "note": 62,
      "start": 97.3701,
      "duration": 0.018,
      "velocity": 115,
      "chip": "ym2612"
    },
    {
      "channel": 3,
      "note": 61,
      "start": 97.3881,
      "duration": 0.0198,
      "velocity": 115,
      "chip": "ym2612"
    },
    {
      "channel": 1,
      "note": 74,
      "start": 97.4068,
      "duration": 0.0925,
      "velocity": 119,
      "chip": "ym2612"
    },
    {
      "channel": 2,
      "note": 107,
      "start": 97.4073,
      "duration": 0.1833,
      "velocity": 103,
      "chip": "ym2612"
    },
    {
      "channel": 3,
      "note": 60,
      "start": 97.4079,
      "duration": 0.0168,
      "velocity": 115,
      "chip": "ym2612"
    },
    {
      "channel": 3,
      "note": 59,
      "start": 97.4247,
      "duration": 0.0181,
      "velocity": 115,
      "chip": "ym2612"
    },
    {
      "channel": 3,
      "note": 57,
      "start": 97.4429,
      "duration": 0.0182,
      "velocity": 115,
      "chip": "ym2612"
    },
    {
      "channel": 3,
      "note": 56,
      "start": 97.4611,
      "duration": 0.0181,
      "velocity": 115,
      "chip": "ym2612"
    },
    {
      "channel": 3,
      "note": 55,
      "start": 97.4791,
      "duration": 0.0207,
      "velocity": 115,
      "chip": "ym2612"
    },
    {
      "channel": 1,
      "note": 31,
      "start": 97.4994,
      "duration": 0.0907,
      "velocity": 127,
      "chip": "ym2612"
    },
    {
      "channel": 3,
      "note": 72,
      "start": 97.5001,
      "duration": 0.0005,
      "velocity": 115,
      "chip": "ym2612"
    },
    {
      "channel": 3,
      "note": 71,
      "start": 97.5006,
      "duration": 0.0152,
      "velocity": 115,
      "chip": "ym2612"
    },
    {
      "channel": 3,
      "note": 69,
      "start": 97.5158,
      "duration": 0.0179,
      "velocity": 115,
      "chip": "ym2612"
    },
    {
      "channel": 3,
      "note": 68,
      "start": 97.5337,
      "duration": 0.0182,
      "velocity": 115,
      "chip": "ym2612"
    },
    {
      "channel": 3,
      "note": 67,
      "start": 97.5518,
      "duration": 0.0182,
      "velocity": 115,
      "chip": "ym2612"
    },
    {
      "channel": 3,
      "note": 66,
      "start": 97.57,
      "duration": 0.0214,
      "velocity": 115,
      "chip": "ym2612"
    },
    {
      "channel": 1,
      "note": 74,
      "start": 97.5902,
      "duration": 0.0907,
      "velocity": 127,
      "chip": "ym2612"
    },
    {
      "channel": 2,
      "note": 107,
      "start": 97.5908,
      "duration": 0.2706,
      "velocity": 103,
      "chip": "ym2612"
    },
    {
      "channel": 3,
      "note": 65,
      "start": 97.5914,
      "duration": 0.015,
      "velocity": 115,
      "chip": "ym2612"
    },
    {
      "channel": 3,
      "note": 64,
      "start": 97.6064,
      "duration": 0.0181,
      "velocity": 115,
      "chip": "ym2612"
    },
    {
      "channel": 3,
      "note": 63,
      "start": 97.6245,
      "duration": 0.018,
      "velocity": 115,
      "chip": "ym2612"
    },
    {
      "channel": 3,
      "note": 62,
      "start": 97.6425,
      "duration": 0.0182,
      "velocity": 115,
      "chip": "ym2612"
    },
    {
      "channel": 3,
      "note": 61,
      "start": 97.6607,
      "duration": 0.0211,
      "velocity": 115,
      "chip": "ym2612"
    },
    {
      "channel": 1,
      "note": 21,
      "start": 97.6811,
      "duration": 0.0907,
      "velocity": 127,
      "chip": "ym2612"
    },
    {
      "channel": 3,
      "note": 60,
      "start": 97.6818,
      "duration": 0.0157,
      "velocity": 115,
      "chip": "ym2612"
    },
    {
      "channel": 3,
      "note": 59,
      "start": 97.6974,
      "duration": 0.0181,
      "velocity": 115,
      "chip": "ym2612"
    },
    {
      "channel": 3,
      "note": 57,
      "start": 97.7156,
      "duration": 0.0183,
      "velocity": 115,
      "chip": "ym2612"
    },
    {
      "channel": 3,
      "note": 56,
      "start": 97.7338,
      "duration": 0.0181,
      "velocity": 115,
      "chip": "ym2612"
    },
    {
      "channel": 3,
      "note": 55,
      "start": 97.7519,
      "duration": 0.0207,
      "velocity": 115,
      "chip": "ym2612"
    },
    {
      "channel": 1,
      "note": 74,
      "start": 97.7719,
      "duration": 0.089,
      "velocity": 127,
      "chip": "ym2612"
    },
    {
      "channel": 3,
      "note": 54,
      "start": 97.7726,
      "duration": 0.0155,
      "velocity": 115,
      "chip": "ym2612"
    },
    {
      "channel": 3,
      "note": 53,
      "start": 97.7881,
      "duration": 0.0182,
      "velocity": 115,
      "chip": "ym2612"
    },
    {
      "channel": 3,
      "note": 52,
      "start": 97.8063,
      "duration": 0.018,
      "velocity": 115,
      "chip": "ym2612"
    },
    {
      "channel": 3,
      "note": 51,
      "start": 97.8243,
      "duration": 0.0181,
      "velocity": 115,
      "chip": "ym2612"
    },
    {
      "channel": 3,
      "note": 50,
      "start": 97.8424,
      "duration": 0.0197,
      "velocity": 115,
      "chip": "ym2612"
    },
    {
      "channel": 1,
      "note": 74,
      "start": 97.861,
      "duration": 0.1829,
      "velocity": 127,
      "chip": "ym2612"
    },
    {
      "channel": 2,
      "note": 107,
      "start": 97.8616,
      "duration": 0.1828,
      "velocity": 103,
      "chip": "ym2612"
    },
    {
      "channel": 3,
      "note": 76,
      "start": 97.8622,
      "duration": 0.0006,
      "velocity": 115,
      "chip": "ym2612"
    },
    {
      "channel": 3,
      "note": 75,
      "start": 97.8628,
      "duration": 0.0162,
      "velocity": 115,
      "chip": "ym2612"
    },
    {
      "channel": 3,
      "note": 74,
      "start": 97.879,
      "duration": 0.018,
      "velocity": 115,
      "chip": "ym2612"
    },
    {
      "channel": 3,
      "note": 73,
      "start": 97.897,
      "duration": 0.0183,
      "velocity": 115,
      "chip": "ym2612"
    },
    {
      "channel": 3,
      "note": 72,
      "start": 97.9153,
      "duration": 0.0181,
      "velocity": 115,
      "chip": "ym2612"
    },
    {
      "channel": 3,
      "note": 70,
      "start": 97.9334,
      "duration": 0.0187,
      "velocity": 115,
      "chip": "ym2612"
    },
    {
      "channel": 3,
      "note": 76,
      "start": 97.9522,
      "duration": 0.0006,
      "velocity": 115,
      "chip": "ym2612"
    },
    {
      "channel": 3,
      "note": 75,
      "start": 97.9528,
      "duration": 0.017,
      "velocity": 115,
      "chip": "ym2612"
    },
    {
      "channel": 3,
      "note": 74,
      "start": 97.9698,
      "duration": 0.0182,
      "velocity": 115,
      "chip": "ym2612"
    },
    {
      "channel": 3,
      "note": 73,
      "start": 97.988,
      "duration": 0.0182,
      "velocity": 115,
      "chip": "ym2612"
    },
    {
      "channel": 3,
      "note": 72,
      "start": 98.0062,
      "duration": 0.0179,
      "velocity": 115,
      "chip": "ym2612"
    },
    {
      "channel": 3,
      "note": 70,
      "start": 98.0241,
      "duration": 0.021,
      "velocity": 115,
      "chip": "ym2612"
    },
    {
      "channel": 1,
      "note": 21,
      "start": 98.0441,
      "duration": 0.1815,
      "velocity": 119,
      "chip": "ym2612"
    },
    {
      "channel": 2,
      "note": 107,
      "start": 98.0446,
      "duration": 0.1814,
      "velocity": 103,
      "chip": "ym2612"
    },
    {
      "channel": 3,
      "note": 76,
      "start": 98.0452,
      "duration": 0.0009,
      "velocity": 115,
      "chip": "ym2612"
    },
    {
      "channel": 3,
      "note": 75,
      "start": 98.0461,
      "duration": 0.0144,
      "velocity": 115,
      "chip": "ym2612"
    },
    {
      "channel": 3,
      "note": 74,
      "start": 98.0605,
      "duration": 0.0181,
      "velocity": 115,
      "chip": "ym2612"
    },
    {
      "channel": 3,
      "note": 73,
      "start": 98.0786,
      "duration": 0.0182,
      "velocity": 115,
      "chip": "ym2612"
    },
    {
      "channel": 3,
      "note": 72,
      "start": 98.0968,
      "duration": 0.0182,
      "velocity": 115,
      "chip": "ym2612"
    },
    {
      "channel": 3,
      "note": 70,
      "start": 98.115,
      "duration": 0.0361,
      "velocity": 115,
      "chip": "ym2612"
    },
    {
      "channel": 3,
      "note": 69,
      "start": 98.1511,
      "duration": 0.0183,
      "velocity": 115,
      "chip": "ym2612"
    },
    {
      "channel": 3,
      "note": 68,
      "start": 98.1694,
      "duration": 0.018,
      "velocity": 115,
      "chip": "ym2612"
    },
    {
      "channel": 3,
      "note": 67,
      "start": 98.1875,
      "duration": 0.0181,
      "velocity": 115,
      "chip": "ym2612"
    },
    {
      "channel": 3,
      "note": 66,
      "start": 98.2056,
      "duration": 0.021,
      "velocity": 115,
      "chip": "ym2612"
    },
    {
      "channel": 1,
      "note": 31,
      "start": 98.2256,
      "duration": 0.0908,
      "velocity": 127,
      "chip": "ym2612"
    },
    {
      "channel": 2,
      "note": 107,
      "start": 98.2262,
      "duration": 0.0908,
      "velocity": 103,
      "chip": "ym2612"
    },
    {
      "channel": 3,
      "note": 71,
      "start": 98.2268,
      "duration": 0.0006,
      "velocity": 115,
      "chip": "ym2612"
    },
    {
      "channel": 3,
      "note": 70,
      "start": 98.2274,
      "duration": 0.0147,
      "velocity": 115,
      "chip": "ym2612"
    },
    {
      "channel": 3,
      "note": 68,
      "start": 98.242,
      "duration": 0.0183,
      "velocity": 115,
      "chip": "ym2612"
    },
    {
      "channel": 3,
      "note": 67,
      "start": 98.2603,
      "duration": 0.0182,
      "velocity": 115,
      "chip": "ym2612"
    },
    {
      "channel": 3,
      "note": 66,
      "start": 98.2785,
      "duration": 0.0183,
      "velocity": 115,
      "chip": "ym2612"
    },
    {
      "channel": 3,
      "note": 66,
      "start": 98.2967,
      "duration": 0.0211,
      "velocity": 115,
      "chip": "ym2612"
    },
    {
      "channel": 1,
      "note": 74,
      "start": 98.3167,
      "duration": 0.0889,
      "velocity": 127,
      "chip": "ym2612"
    },
    {
      "channel": 2,
      "note": 107,
      "start": 98.3173,
      "duration": 0.0889,
      "velocity": 103,
      "chip": "ym2612"
    },
    {
      "channel": 3,
      "note": 65,
      "start": 98.3178,
      "duration": 0.0151,
      "velocity": 115,
      "chip": "ym2612"
    },
    {
      "channel": 3,
      "note": 64,
      "start": 98.3329,
      "duration": 0.0182,
      "velocity": 115,
      "chip": "ym2612"
    },
    {
      "channel": 3,
      "note": 63,
      "start": 98.3511,
      "duration": 0.0178,
      "velocity": 115,
      "chip": "ym2612"
    },
    {
      "channel": 3,
      "note": 61,
      "start": 98.369,
      "duration": 0.0182,
      "velocity": 115,
      "chip": "ym2612"
    },
    {
      "channel": 3,
      "note": 60,
      "start": 98.3872,
      "duration": 0.0197,
      "velocity": 115,
      "chip": "ym2612"
    },
    {
      "channel": 1,
      "note": 74,
      "start": 98.4058,
      "duration": 0.0908,
      "velocity": 127,
      "chip": "ym2612"
    },
    {
      "channel": 2,
      "note": 107,
      "start": 98.4063,
      "duration": 0.183,
      "velocity": 103,
      "chip": "ym2612"
    },
    {
      "channel": 3,
      "note": 59,
      "start": 98.4069,
      "duration": 0.0167,
      "velocity": 115,
      "chip": "ym2612"
    },
    {
      "channel": 3,
      "note": 58,
      "start": 98.4236,
      "duration": 0.0182,
      "velocity": 115,
      "chip": "ym2612"
    },
    {
      "channel": 3,
      "note": 56,
      "start": 98.4417,
      "duration": 0.0182,
      "velocity": 115,
      "chip": "ym2612"
    },
    {
      "channel": 3,
      "note": 55,
      "start": 98.4599,
      "duration": 0.0182,
      "velocity": 115,
      "chip": "ym2612"
    },
    {
      "channel": 3,
      "note": 54,
      "start": 98.4781,
      "duration": 0.0192,
      "velocity": 115,
      "chip": "ym2612"
    },
    {
      "channel": 1,
      "note": 74,
      "start": 98.4967,
      "duration": 0.0919,
      "velocity": 127,
      "chip": "ym2612"
    },
    {
      "channel": 3,
      "note": 54,
      "start": 98.4974,
      "duration": 0.017,
      "velocity": 115,
      "chip": "ym2612"
    },
    {
      "channel": 3,
      "note": 53,
      "start": 98.5144,
      "duration": 0.018,
      "velocity": 115,
      "chip": "ym2612"
    },
    {
      "channel": 3,
      "note": 52,
      "start": 98.5324,
      "duration": 0.0178,
      "velocity": 115,
      "chip": "ym2612"
    },
    {
      "channel": 3,
      "note": 51,
      "start": 98.5502,
      "duration": 0.0181,
      "velocity": 115,
      "chip": "ym2612"
    },
    {
      "channel": 3,
      "note": 50,
      "start": 98.5684,
      "duration": 0.0216,
      "velocity": 115,
      "chip": "ym2612"
    },
    {
      "channel": 0,
      "note": 59,
      "start": 98.5868,
      "duration": 0.1814,
      "velocity": 89,
      "chip": "ym2612"
    },
    {
      "channel": 1,
      "note": 21,
      "start": 98.5889,
      "duration": 0.1814,
      "velocity": 127,
      "chip": "ym2612"
    },
    {
      "channel": 2,
      "note": 107,
      "start": 98.5894,
      "duration": 0.0879,
      "velocity": 103,
      "chip": "ym2612"
    },
    {
      "channel": 3,
      "note": 48,
      "start": 98.59,
      "duration": 0.0146,
      "velocity": 115,
      "chip": "ym2612"
    },
    {
      "channel": 3,
      "note": 47,
      "start": 98.6046,
      "duration": 0.018,
      "velocity": 115,
      "chip": "ym2612"
    },
    {
      "channel": 3,
      "note": 46,
      "start": 98.6225,
      "duration": 0.018,
      "velocity": 115,
      "chip": "ym2612"
    },
    {
      "channel": 3,
      "note": 44,
      "start": 98.6406,
      "duration": 0.0181,
      "velocity": 115,
      "chip": "ym2612"
    },
    {
      "channel": 3,
      "note": 43,
      "start": 98.6587,
      "duration": 0.0194,
      "velocity": 115,
      "chip": "ym2612"
    },
    {
      "channel": 2,
      "note": 107,
      "start": 98.6775,
      "duration": 0.1813,
      "velocity": 103,
      "chip": "ym2612"
    },
    {
      "channel": 3,
      "note": 42,
      "start": 98.6781,
      "duration": 0.017,
      "velocity": 115,
      "chip": "ym2612"
    },
    {
      "channel": 3,
      "note": 42,
      "start": 98.6951,
      "duration": 0.0184,
      "velocity": 115,
      "chip": "ym2612"
    },
    {
      "channel": 3,
      "note": 41,
      "start": 98.7135,
      "duration": 0.0181,
      "velocity": 115,
      "chip": "ym2612"
    },
    {
      "channel": 3,
      "note": 40,
      "start": 98.7316,
      "duration": 0.0182,
      "velocity": 115,
      "chip": "ym2612"
    },
    {
      "channel": 3,
      "note": 39,
      "start": 98.7498,
      "duration": 0.0213,
      "velocity": 115,
      "chip": "ym2612"
    },
    {
      "channel": 0,
      "note": 59,
      "start": 98.7684,
      "duration": 0.3614,
      "velocity": 89,
      "chip": "ym2612"
    },
    {
      "channel": 1,
      "note": 74,
      "start": 98.7705,
      "duration": 0.0877,
      "velocity": 127,
      "chip": "ym2612"
    },
    {
      "channel": 3,
      "note": 38,
      "start": 98.7711,
      "duration": 0.015,
      "velocity": 115,
      "chip": "ym2612"
    },
    {
      "channel": 3,
      "note": 36,
      "start": 98.7862,
      "duration": 0.0178,
      "velocity": 115,
      "chip": "ym2612"
    },
    {
      "channel": 3,
      "note": 35,
      "start": 98.804,
      "duration": 0.018,
      "velocity": 115,
      "chip": "ym2612"
    },
    {
      "channel": 3,
      "note": 34,
      "start": 98.822,
      "duration": 0.0178,
      "velocity": 115,
      "chip": "ym2612"
    },
    {
      "channel": 3,
      "note": 32,
      "start": 98.8398,
      "duration": 0.0197,
      "velocity": 115,
      "chip": "ym2612"
    },
    {
      "channel": 1,
      "note": 74,
      "start": 98.8584,
      "duration": 0.0913,
      "velocity": 119,
      "chip": "ym2612"
    },
    {
      "channel": 2,
      "note": 107,
      "start": 98.8589,
      "duration": 0.1823,
      "velocity": 103,
      "chip": "ym2612"
    },
    {
      "channel": 3,
      "note": 31,
      "start": 98.8595,
      "duration": 0.0165,
      "velocity": 115,
      "chip": "ym2612"
    },
    {
      "channel": 3,
      "note": 30,
      "start": 98.876,
      "duration": 0.018,
      "velocity": 115,
      "chip": "ym2612"
    },
    {
      "channel": 3,
      "note": 30,
      "start": 98.894,
      "duration": 0.0179,
      "velocity": 115,
      "chip": "ym2612"
    },
    {
      "channel": 3,
      "note": 29,
      "start": 98.9118,
      "duration": 0.0178,
      "velocity": 115,
      "chip": "ym2612"
    },
    {
      "channel": 3,
      "note": 28,
      "start": 98.9296,
      "duration": 0.0209,
      "velocity": 115,
      "chip": "ym2612"
    },
    {
      "channel": 1,
      "note": 31,
      "start": 98.9499,
      "duration": 0.0909,
      "velocity": 127,
      "chip": "ym2612"
    },
    {
      "channel": 3,
      "note": 27,
      "start": 98.9505,
      "duration": 0.0157,
      "velocity": 115,
      "chip": "ym2612"
    },
    {
      "channel": 3,
      "note": 26,
      "start": 98.9662,
      "duration": 0.0181,
      "velocity": 115,
      "chip": "ym2612"
    },
    {
      "channel": 3,
      "note": 24,
      "start": 98.9844,
      "duration": 0.0182,
      "velocity": 115,
      "chip": "ym2612"
    },
    {
      "channel": 3,
      "note": 23,
      "start": 99.0025,
      "duration": 0.0181,
      "velocity": 115,
      "chip": "ym2612"
    },
    {
      "channel": 3,
      "note": 22,
      "start": 99.0207,
      "duration": 0.0215,
      "velocity": 115,
      "chip": "ym2612"
    },
    {
      "channel": 1,
      "note": 74,
      "start": 99.0409,
      "duration": 0.0895,
      "velocity": 127,
      "chip": "ym2612"
    },
    {
      "channel": 2,
      "note": 107,
      "start": 99.0415,
      "duration": 0.2704,
      "velocity": 103,
      "chip": "ym2612"
    },
    {
      "channel": 3,
      "note": 20,
      "start": 99.0421,
      "duration": 0.0151,
      "velocity": 115,
      "chip": "ym2612"
    },
    {
      "channel": 3,
      "note": 115,
      "start": 99.0572,
      "duration": 0.0182,
      "velocity": 115,
      "chip": "ym2612"
    },
    {
      "channel": 3,
      "note": 114,
      "start": 99.0754,
      "duration": 0.0179,
      "velocity": 115,
      "chip": "ym2612"
    },
    {
      "channel": 3,
      "note": 114,
      "start": 99.0932,
      "duration": 0.0182,
      "velocity": 115,
      "chip": "ym2612"
    },
    {
      "channel": 3,
      "note": 113,
      "start": 99.1114,
      "duration": 0.0197,
      "velocity": 115,
      "chip": "ym2612"
    },
    {
      "channel": 0,
      "note": 57,
      "start": 99.13,
      "duration": 2.3596,
      "velocity": 89,
      "chip": "ym2612"
    },
    {
      "channel": 1,
      "note": 74,
      "start": 99.1305,
      "duration": 0.1807,
      "velocity": 127,
      "chip": "ym2612"
    },
    {
      "channel": 3,
      "note": 112,
      "start": 99.1312,
      "duration": 0.0167,
      "velocity": 115,
      "chip": "ym2612"
    },
    {
      "channel": 3,
      "note": 111,
      "start": 99.1478,
      "duration": 0.0181,
      "velocity": 115,
      "chip": "ym2612"
    },
    {
      "channel": 3,
      "note": 110,
      "start": 99.1659,
      "duration": 0.0181,
      "velocity": 115,
      "chip": "ym2612"
    },
    {
      "channel": 3,
      "note": 108,
      "start": 99.1841,
      "duration": 0.0183,
      "velocity": 115,
      "chip": "ym2612"
    },
    {
      "channel": 3,
      "note": 107,
      "start": 99.2024,
      "duration": 0.036,
      "velocity": 115,
      "chip": "ym2612"
    },
    {
      "channel": 3,
      "note": 106,
      "start": 99.2384,
      "duration": 0.018,
      "velocity": 115,
      "chip": "ym2612"
    },
    {
      "channel": 3,
      "note": 104,
      "start": 99.2564,
      "duration": 0.0183,
      "velocity": 115,
      "chip": "ym2612"
    },
    {
      "channel": 3,
      "note": 103,
      "start": 99.2747,
      "duration": 0.018,
      "velocity": 115,
      "chip": "ym2612"
    },
    {
      "channel": 3,
      "note": 103,
      "start": 99.2927,
      "duration": 0.0202,
      "velocity": 115,
      "chip": "ym2612"
    },
    {
      "channel": 1,
      "note": 74,
      "start": 99.3115,
      "duration": 0.0905,
      "velocity": 127,
      "chip": "ym2612"
    },
    {
      "channel": 2,
      "note": 107,
      "start": 99.312,
      "duration": 0.1825,
      "velocity": 103,
      "chip": "ym2612"
    },
    {
      "channel": 3,
      "note": 102,
      "start": 99.3129,
      "duration": 0.0163,
      "velocity": 115,
      "chip": "ym2612"
    },
    {
      "channel": 3,
      "note": 101,
      "start": 99.3292,
      "duration": 0.0182,
      "velocity": 115,
      "chip": "ym2612"
    },
    {
      "channel": 3,
      "note": 100,
      "start": 99.3474,
      "duration": 0.0182,
      "velocity": 115,
      "chip": "ym2612"
    },
    {
      "channel": 3,
      "note": 99,
      "start": 99.3656,
      "duration": 0.0181,
      "velocity": 115,
      "chip": "ym2612"
    },
    {
      "channel": 3,
      "note": 98,
      "start": 99.3837,
      "duration": 0.0191,
      "velocity": 115,
      "chip": "ym2612"
    },
    {
      "channel": 1,
      "note": 74,
      "start": 99.4022,
      "duration": 0.0918,
      "velocity": 127,
      "chip": "ym2612"
    },
    {
      "channel": 3,
      "note": 96,
      "start": 99.4029,
      "duration": 0.017,
      "velocity": 115,
      "chip": "ym2612"
    },
    {
      "channel": 3,
      "note": 95,
      "start": 99.4198,
      "duration": 0.0179,
      "velocity": 115,
      "chip": "ym2612"
    },
    {
      "channel": 3,
      "note": 94,
      "start": 99.4377,
      "duration": 0.0181,
      "velocity": 115,
      "chip": "ym2612"
    },
    {
      "channel": 3,
      "note": 92,
      "start": 99.4559,
      "duration": 0.018,
      "velocity": 115,
      "chip": "ym2612"
    },
    {
      "channel": 3,
      "note": 91,
      "start": 99.4738,
      "duration": 0.0214,
      "velocity": 115,
      "chip": "ym2612"
    },
    {
      "channel": 1,
      "note": 21,
      "start": 99.4941,
      "duration": 0.0905,
      "velocity": 127,
      "chip": "ym2612"
    },
    {
      "channel": 2,
      "note": 107,
      "start": 99.4947,
      "duration": 0.1812,
      "velocity": 103,
      "chip": "ym2612"
    },
    {
      "channel": 3,
      "note": 91,
      "start": 99.4953,
      "duration": 0.0153,
      "velocity": 115,
      "chip": "ym2612"
    },
    {
      "channel": 3,
      "note": 90,
      "start": 99.5106,
      "duration": 0.0181,
      "velocity": 115,
      "chip": "ym2612"
    },
    {
      "channel": 3,
      "note": 89,
      "start": 99.5286,
      "duration": 0.0181,
      "velocity": 115,
      "chip": "ym2612"
    },
    {
      "channel": 3,
      "note": 88,
      "start": 99.5468,
      "duration": 0.0181,
      "velocity": 115,
      "chip": "ym2612"
    },
    {
      "channel": 3,
      "note": 87,
      "start": 99.5648,
      "duration": 0.0206,
      "velocity": 115,
      "chip": "ym2612"
    },
    {
      "channel": 1,
      "note": 74,
      "start": 99.5847,
      "duration": 0.0907,
      "velocity": 119,
      "chip": "ym2612"
    },
    {
      "channel": 3,
      "note": 86,
      "start": 99.5854,
      "duration": 0.0155,
      "velocity": 115,
      "chip": "ym2612"
    },
    {
      "channel": 3,
      "note": 84,
      "start": 99.6009,
      "duration": 0.018,
      "velocity": 115,
      "chip": "ym2612"
    },
    {
      "channel": 3,
      "note": 83,
      "start": 99.6189,
      "duration": 0.0182,
      "velocity": 115,
      "chip": "ym2612"
    },
    {
      "channel": 3,
      "note": 82,
      "start": 99.6371,
      "duration": 0.0182,
      "velocity": 115,
      "chip": "ym2612"
    },
    {
      "channel": 3,
      "note": 80,
      "start": 99.6554,
      "duration": 0.0213,
      "velocity": 115,
      "chip": "ym2612"
    },
    {
      "channel": 1,
      "note": 31,
      "start": 99.6755,
      "duration": 0.1812,
      "velocity": 127,
      "chip": "ym2612"
    },
    {
      "channel": 2,
      "note": 107,
      "start": 99.6761,
      "duration": 0.0884,
      "velocity": 103,
      "chip": "ym2612"
    },
    {
      "channel": 3,
      "note": 79,
      "start": 99.6767,
      "duration": 0.0153,
      "velocity": 115,
      "chip": "ym2612"
    },
    {
      "channel": 3,
      "note": 79,
      "start": 99.692,
      "duration": 0.0182,
      "velocity": 115,
      "chip": "ym2612"
    },
    {
      "channel": 3,
      "note": 78,
      "start": 99.7101,
      "duration": 0.0182,
      "velocity": 115,
      "chip": "ym2612"
    },
    {
      "channel": 3,
      "note": 77,
      "start": 99.7283,
      "duration": 0.0179,
      "velocity": 115,
      "chip": "ym2612"
    },
    {
      "channel": 3,
      "note": 76,
      "start": 99.7462,
      "duration": 0.019,
      "velocity": 115,
      "chip": "ym2612"
    },
    {
      "channel": 2,
      "note": 107,
      "start": 99.7646,
      "duration": 0.0926,
      "velocity": 103,
      "chip": "ym2612"
    },
    {
      "channel": 3,
      "note": 75,
      "start": 99.7652,
      "duration": 0.0171,
      "velocity": 115,
      "chip": "ym2612"
    },
    {
      "channel": 3,
      "note": 74,
      "start": 99.7823,
      "duration": 0.0182,
      "velocity": 115,
      "chip": "ym2612"
    },
    {
      "channel": 3,
      "note": 72,
      "start": 99.8005,
      "duration": 0.0181,
      "velocity": 115,
      "chip": "ym2612"
    },
    {
      "channel": 3,
      "note": 71,
      "start": 99.8186,
      "duration": 0.018,
      "velocity": 115,
      "chip": "ym2612"
    },
    {
      "channel": 3,
      "note": 70,
      "start": 99.8366,
      "duration": 0.0214,
      "velocity": 115,
      "chip": "ym2612"
    },
    {
      "channel": 1,
      "note": 74,
      "start": 99.8568,
      "duration": 0.0893,
      "velocity": 127,
      "chip": "ym2612"
    },
    {
      "channel": 2,
      "note": 107,
      "start": 99.8574,
      "duration": 0.1817,
      "velocity": 103,
      "chip": "ym2612"
    },
    {
      "channel": 3,
      "note": 68,
      "start": 99.858,
      "duration": 0.0151,
      "velocity": 115,
      "chip": "ym2612"
    },
    {
      "channel": 3,
      "note": 67,
      "start": 99.8731,
      "duration": 0.0181,
      "velocity": 115,
      "chip": "ym2612"
    },
    {
      "channel": 3,
      "note": 67,
      "start": 99.8912,
      "duration": 0.0184,
      "velocity": 115,
      "chip": "ym2612"
    },
    {
      "channel": 3,
      "note": 66,
      "start": 99.9096,
      "duration": 0.018,
      "velocity": 115,
      "chip": "ym2612"
    },
    {
      "channel": 3,
      "note": 65,
      "start": 99.9276,
      "duration": 0.0193,
      "velocity": 115,
      "chip": "ym2612"
    },
    {
      "channel": 1,
      "note": 74,
      "start": 99.9463,
      "duration": 0.0923,
      "velocity": 127,
      "chip": "ym2612"
    },
    {
      "channel": 3,
      "note": 64,
      "start": 99.9469,
      "duration": 0.0172,
      "velocity": 115,
      "chip": "ym2612"
    },
    {
      "channel": 3,
      "note": 63,
      "start": 99.9641,
      "duration": 0.0181,
      "velocity": 115,
      "chip": "ym2612"
    },
    {
      "channel": 3,
      "note": 62,
      "start": 99.9822,
      "duration": 0.0183,
      "velocity": 115,
      "chip": "ym2612"
    },
    {
      "channel": 3,
      "note": 60,
      "start": 100.0005,
      "duration": 0.0181,
      "velocity": 115,
      "chip": "ym2612"
    },
    {
      "channel": 3,
      "note": 59,
      "start": 100.0186,
      "duration": 0.0216,
      "velocity": 115,
      "chip": "ym2612"
    },
    {
      "channel": 1,
      "note": 21,
      "start": 100.0387,
      "duration": 0.1815,
      "velocity": 127,
      "chip": "ym2612"
    },
    {
      "channel": 2,
      "note": 107,
      "start": 100.0393,
      "duration": 0.0888,
      "velocity": 103,
      "chip": "ym2612"
    },
    {
      "channel": 3,
      "note": 58,
      "start": 100.0402,
      "duration": 0.0148,
      "velocity": 115,
      "chip": "ym2612"
    },
    {
      "channel": 3,
      "note": 56,
      "start": 100.055,
      "duration": 0.0181,
      "velocity": 115,
      "chip": "ym2612"
    },
    {
      "channel": 3,
      "note": 55,
      "start": 100.0731,
      "duration": 0.0182,
      "velocity": 115,
      "chip": "ym2612"
    },
    {
      "channel": 3,
      "note": 55,
      "start": 100.0913,
      "duration": 0.0182,
      "velocity": 115,
      "chip": "ym2612"
    },
    {
      "channel": 3,
      "note": 54,
      "start": 100.1095,
      "duration": 0.0192,
      "velocity": 115,
      "chip": "ym2612"
    },
    {
      "channel": 2,
      "note": 107,
      "start": 100.1283,
      "duration": 0.1817,
      "velocity": 103,
      "chip": "ym2612"
    },
    {
      "channel": 3,
      "note": 72,
      "start": 100.1289,
      "duration": 0.0006,
      "velocity": 115,
      "chip": "ym2612"
    },
    {
      "channel": 3,
      "note": 71,
      "start": 100.1295,
      "duration": 0.0165,
      "velocity": 115,
      "chip": "ym2612"
    },
    {
      "channel": 3,
      "note": 69,
      "start": 100.146,
      "duration": 0.018,
      "velocity": 115,
      "chip": "ym2612"
    },
    {
      "channel": 3,
      "note": 68,
      "start": 100.164,
      "duration": 0.0181,
      "velocity": 115,
      "chip": "ym2612"
    },
    {
      "channel": 3,
      "note": 67,
      "start": 100.1821,
      "duration": 0.0179,
      "velocity": 115,
      "chip": "ym2612"
    },
    {
      "channel": 3,
      "note": 66,
      "start": 100.2,
      "duration": 0.021,
      "velocity": 115,
      "chip": "ym2612"
    },
    {
      "channel": 1,
      "note": 74,
      "start": 100.2203,
      "duration": 0.0892,
      "velocity": 127,
      "chip": "ym2612"
    },
    {
      "channel": 3,
      "note": 65,
      "start": 100.221,
      "duration": 0.0154,
      "velocity": 115,
      "chip": "ym2612"
    },
    {
      "channel": 3,
      "note": 64,
      "start": 100.2364,
      "duration": 0.0181,
      "velocity": 115,
      "chip": "ym2612"
    },
    {
      "channel": 3,
      "note": 63,
      "start": 100.2546,
      "duration": 0.0182,
      "velocity": 115,
      "chip": "ym2612"
    },
    {
      "channel": 3,
      "note": 62,
      "start": 100.2727,
      "duration": 0.0184,
      "velocity": 115,
      "chip": "ym2612"
    },
    {
      "channel": 3,
      "note": 61,
      "start": 100.2911,
      "duration": 0.0197,
      "velocity": 115,
      "chip": "ym2612"
    },
    {
      "channel": 1,
      "note": 74,
      "start": 100.3097,
      "duration": 0.0924,
      "velocity": 119,
      "chip": "ym2612"
    },
    {
      "channel": 2,
      "note": 107,
      "start": 100.3102,
      "duration": 0.1831,
      "velocity": 103,
      "chip": "ym2612"
    },
    {
      "channel": 3,
      "note": 60,
      "start": 100.3108,
      "duration": 0.0166,
      "velocity": 115,
      "chip": "ym2612"
    },
    {
      "channel": 3,
      "note": 59,
      "start": 100.3274,
      "duration": 0.0182,
      "velocity": 115,
      "chip": "ym2612"
    },
    {
      "channel": 3,
      "note": 57,
      "start": 100.3456,
      "duration": 0.0183,
      "velocity": 115,
      "chip": "ym2612"
    },
    {
      "channel": 3,
      "note": 56,
      "start": 100.3639,
      "duration": 0.0181,
      "velocity": 115,
      "chip": "ym2612"
    },
    {
      "channel": 3,
      "note": 55,
      "start": 100.3821,
      "duration": 0.0207,
      "velocity": 115,
      "chip": "ym2612"
    },
    {
      "channel": 1,
      "note": 31,
      "start": 100.4023,
      "duration": 0.0905,
      "velocity": 127,
      "chip": "ym2612"
    },
    {
      "channel": 3,
      "note": 72,
      "start": 100.4029,
      "duration": 0.0005,
      "velocity": 115,
      "chip": "ym2612"
    },
    {
      "channel": 3,
      "note": 71,
      "start": 100.4034,
      "duration": 0.0152,
      "velocity": 115,
      "chip": "ym2612"
    },
    {
      "channel": 3,
      "note": 69,
      "start": 100.4186,
      "duration": 0.0178,
      "velocity": 115,
      "chip": "ym2612"
    },
    {
      "channel": 3,
      "note": 68,
      "start": 100.4364,
      "duration": 0.018,
      "velocity": 115,
      "chip": "ym2612"
    },
    {
      "channel": 3,
      "note": 67,
      "start": 100.4544,
      "duration": 0.0182,
      "velocity": 115,
      "chip": "ym2612"
    },
    {
      "channel": 3,
      "note": 66,
      "start": 100.4726,
      "duration": 0.0215,
      "velocity": 115,
      "chip": "ym2612"
    },
    {
      "channel": 1,
      "note": 74,
      "start": 100.4929,
      "duration": 0.0906,
      "velocity": 127,
      "chip": "ym2612"
    },
    {
      "channel": 2,
      "note": 107,
      "start": 100.4934,
      "duration": 0.2722,
      "velocity": 103,
      "chip": "ym2612"
    },
    {
      "channel": 3,
      "note": 65,
      "start": 100.494,
      "duration": 0.0152,
      "velocity": 115,
      "chip": "ym2612"
    },
    {
      "channel": 3,
      "note": 64,
      "start": 100.5092,
      "duration": 0.018,
      "velocity": 115,
      "chip": "ym2612"
    },
    {
      "channel": 3,
      "note": 63,
      "start": 100.5272,
      "duration": 0.018,
      "velocity": 115,
      "chip": "ym2612"
    },
    {
      "channel": 3,
      "note": 62,
      "start": 100.5452,
      "duration": 0.0182,
      "velocity": 115,
      "chip": "ym2612"
    },
    {
      "channel": 3,
      "note": 61,
      "start": 100.5634,
      "duration": 0.0208,
      "velocity": 115,
      "chip": "ym2612"
    },
    {
      "channel": 1,
      "note": 21,
      "start": 100.5837,
      "duration": 0.1815,
      "velocity": 127,
      "chip": "ym2612"
    },
    {
      "channel": 3,
      "note": 69,
      "start": 100.5843,
      "duration": 0.0006,
      "velocity": 115,
      "chip": "ym2612"
    },
    {
      "channel": 3,
      "note": 68,
      "start": 100.5849,
      "duration": 0.0152,
      "velocity": 115,
      "chip": "ym2612"
    },
    {
      "channel": 3,
      "note": 67,
      "start": 100.6001,
      "duration": 0.0181,
      "velocity": 115,
      "chip": "ym2612"
    },
    {
      "channel": 3,
      "note": 66,
      "start": 100.6182,
      "duration": 0.0181,
      "velocity": 115,
      "chip": "ym2612"
    },
    {
      "channel": 3,
      "note": 65,
      "start": 100.6362,
      "duration": 0.0182,
      "velocity": 115,
      "chip": "ym2612"
    },
    {
      "channel": 3,
      "note": 64,
      "start": 100.6544,
      "duration": 0.0361,
      "velocity": 115,
      "chip": "ym2612"
    },
    {
      "channel": 3,
      "note": 63,
      "start": 100.6906,
      "duration": 0.0181,
      "velocity": 115,
      "chip": "ym2612"
    },
    {
      "channel": 3,
      "note": 62,
      "start": 100.7087,
      "duration": 0.0182,
      "velocity": 115,
      "chip": "ym2612"
    },
    {
      "channel": 3,
      "note": 61,
      "start": 100.7269,
      "duration": 0.0181,
      "velocity": 115,
      "chip": "ym2612"
    },
    {
      "channel": 3,
      "note": 60,
      "start": 100.7451,
      "duration": 0.0214,
      "velocity": 115,
      "chip": "ym2612"
    },
    {
      "channel": 1,
      "note": 74,
      "start": 100.7653,
      "duration": 0.089,
      "velocity": 127,
      "chip": "ym2612"
    },
    {
      "channel": 2,
      "note": 107,
      "start": 100.7659,
      "duration": 0.1812,
      "velocity": 103,
      "chip": "ym2612"
    },
    {
      "channel": 3,
      "note": 58,
      "start": 100.7664,
      "duration": 0.0153,
      "velocity": 115,
      "chip": "ym2612"
    },
    {
      "channel": 3,
      "note": 57,
      "start": 100.7817,
      "duration": 0.0178,
      "velocity": 115,
      "chip": "ym2612"
    },
    {
      "channel": 3,
      "note": 56,
      "start": 100.7995,
      "duration": 0.018,
      "velocity": 115,
      "chip": "ym2612"
    },
    {
      "channel": 3,
      "note": 55,
      "start": 100.8175,
      "duration": 0.0182,
      "velocity": 115,
      "chip": "ym2612"
    },
    {
      "channel": 3,
      "note": 54,
      "start": 100.8357,
      "duration": 0.0192,
      "velocity": 115,
      "chip": "ym2612"
    },
    {
      "channel": 1,
      "note": 74,
      "start": 100.8544,
      "duration": 0.0921,
      "velocity": 127,
      "chip": "ym2612"
    },
    {
      "channel": 3,
      "note": 72,
      "start": 100.8551,
      "duration": 0.0005,
      "velocity": 115,
      "chip": "ym2612"
    },
    {
      "channel": 3,
      "note": 71,
      "start": 100.8556,
      "duration": 0.0166,
      "velocity": 115,
      "chip": "ym2612"
    },
    {
      "channel": 3,
      "note": 69,
      "start": 100.8722,
      "duration": 0.0182,
      "velocity": 115,
      "chip": "ym2612"
    },
    {
      "channel": 3,
      "note": 68,
      "start": 100.8904,
      "duration": 0.018,
      "velocity": 115,
      "chip": "ym2612"
    },
    {
      "channel": 3,
      "note": 67,
      "start": 100.9084,
      "duration": 0.0181,
      "velocity": 115,
      "chip": "ym2612"
    },
    {
      "channel": 3,
      "note": 66,
      "start": 100.9265,
      "duration": 0.0214,
      "velocity": 115,
      "chip": "ym2612"
    },
    {
      "channel": 1,
      "note": 21,
      "start": 100.9467,
      "duration": 0.0902,
      "velocity": 127,
      "chip": "ym2612"
    },
    {
      "channel": 2,
      "note": 107,
      "start": 100.9472,
      "duration": 0.1805,
      "velocity": 103,
      "chip": "ym2612"
    },
    {
      "channel": 3,
      "note": 65,
      "start": 100.9478,
      "duration": 0.0153,
      "velocity": 115,
      "chip": "ym2612"
    },
    {
      "channel": 3,
      "note": 64,
      "start": 100.9631,
      "duration": 0.0181,
      "velocity": 115,
      "chip": "ym2612"
    },
    {
      "channel": 3,
      "note": 63,
      "start": 100.9812,
      "duration": 0.018,
      "velocity": 115,
      "chip": "ym2612"
    },
    {
      "channel": 3,
      "note": 62,
      "start": 100.9993,
      "duration": 0.0178,
      "velocity": 115,
      "chip": "ym2612"
    },
    {
      "channel": 3,
      "note": 61,
      "start": 101.0171,
      "duration": 0.0206,
      "velocity": 115,
      "chip": "ym2612"
    },
    {
      "channel": 1,
      "note": 74,
      "start": 101.037,
      "duration": 0.0902,
      "velocity": 119,
      "chip": "ym2612"
    },
    {
      "channel": 3,
      "note": 60,
      "start": 101.0377,
      "duration": 0.0155,
      "velocity": 115,
      "chip": "ym2612"
    },
    {
      "channel": 3,
      "note": 59,
      "start": 101.0531,
      "duration": 0.018,
      "velocity": 115,
      "chip": "ym2612"
    },
    {
      "channel": 3,
      "note": 57,
      "start": 101.0711,
      "duration": 0.0178,
      "velocity": 115,
      "chip": "ym2612"
    },
    {
      "channel": 3,
      "note": 56,
      "start": 101.0889,
      "duration": 0.0182,
      "velocity": 115,
      "chip": "ym2612"
    },
    {
      "channel": 3,
      "note": 55,
      "start": 101.1071,
      "duration": 0.0212,
      "velocity": 115,
      "chip": "ym2612"
    },
    {
      "channel": 1,
      "note": 31,
      "start": 101.1273,
      "duration": 0.0907,
      "velocity": 127,
      "chip": "ym2612"
    },
    {
      "channel": 2,
      "note": 107,
      "start": 101.1279,
      "duration": 0.0907,
      "velocity": 103,
      "chip": "ym2612"
    },
    {
      "channel": 3,
      "note": 76,
      "start": 101.1284,
      "duration": 0.0006,
      "velocity": 115,
      "chip": "ym2612"
    },
    {
      "channel": 3,
      "note": 75,
      "start": 101.129,
      "duration": 0.0147,
      "velocity": 115,
      "chip": "ym2612"
    },
    {
      "channel": 3,
      "note": 74,
      "start": 101.1437,
      "duration": 0.0181,
      "velocity": 115,
      "chip": "ym2612"
    },
    {
      "channel": 3,
      "note": 73,
      "start": 101.1619,
      "duration": 0.0182,
      "velocity": 115,
      "chip": "ym2612"
    },
    {
      "channel": 3,
      "note": 72,
      "start": 101.1801,
      "duration": 0.018,
      "velocity": 115,
      "chip": "ym2612"
    },
    {
      "channel": 3,
      "note": 70,
      "start": 101.1981,
      "duration": 0.021,
      "velocity": 115,
      "chip": "ym2612"
    },
    {
      "channel": 1,
      "note": 74,
      "start": 101.2182,
      "duration": 0.0894,
      "velocity": 127,
      "chip": "ym2612"
    },
    {
      "channel": 2,
      "note": 107,
      "start": 101.2188,
      "duration": 0.0894,
      "velocity": 103,
      "chip": "ym2612"
    },
    {
      "channel": 3,
      "note": 76,
      "start": 101.2193,
      "duration": 0.0006,
      "velocity": 115,
      "chip": "ym2612"
    },
    {
      "channel": 3,
      "note": 75,
      "start": 101.2199,
      "duration": 0.0146,
      "velocity": 115,
      "chip": "ym2612"
    },
    {
      "channel": 3,
      "note": 74,
      "start": 101.2345,
      "duration": 0.0182,
      "velocity": 115,
      "chip": "ym2612"
    },
    {
      "channel": 3,
      "note": 73,
      "start": 101.2527,
      "duration": 0.0181,
      "velocity": 115,
      "chip": "ym2612"
    },
    {
      "channel": 3,
      "note": 72,
      "start": 101.2708,
      "duration": 0.0181,
      "velocity": 115,
      "chip": "ym2612"
    },
    {
      "channel": 3,
      "note": 70,
      "start": 101.289,
      "duration": 0.0198,
      "velocity": 115,
      "chip": "ym2612"
    },
    {
      "channel": 1,
      "note": 74,
      "start": 101.3078,
      "duration": 0.0906,
      "velocity": 127,
      "chip": "ym2612"
    },
    {
      "channel": 2,
      "note": 107,
      "start": 101.3083,
      "duration": 0.184,
      "velocity": 103,
      "chip": "ym2612"
    },
    {
      "channel": 3,
      "note": 69,
      "start": 101.3089,
      "duration": 0.0008,
      "velocity": 115,
      "chip": "ym2612"
    },
    {
      "channel": 3,
      "note": 68,
      "start": 101.3098,
      "duration": 0.0156,
      "velocity": 115,
      "chip": "ym2612"
    },
    {
      "channel": 3,
      "note": 67,
      "start": 101.3254,
      "duration": 0.0182,
      "velocity": 115,
      "chip": "ym2612"
    },
    {
      "channel": 3,
      "note": 66,
      "start": 101.3436,
      "duration": 0.0182,
      "velocity": 115,
      "chip": "ym2612"
    },
    {
      "channel": 3,
      "note": 65,
      "start": 101.3618,
      "duration": 0.0181,
      "velocity": 115,
      "chip": "ym2612"
    },
    {
      "channel": 3,
      "note": 64,
      "start": 101.38,
      "duration": 0.0193,
      "velocity": 115,
      "chip": "ym2612"
    },
    {
      "channel": 1,
      "note": 74,
      "start": 101.3986,
      "duration": 0.0931,
      "velocity": 127,
      "chip": "ym2612"
    },
    {
      "channel": 3,
      "note": 63,
      "start": 101.3993,
      "duration": 0.0171,
      "velocity": 115,
      "chip": "ym2612"
    },
    {
      "channel": 3,
      "note": 62,
      "start": 101.4164,
      "duration": 0.0182,
      "velocity": 115,
      "chip": "ym2612"
    },
    {
      "channel": 3,
      "note": 61,
      "start": 101.4346,
      "duration": 0.0181,
      "velocity": 115,
      "chip": "ym2612"
    },
    {
      "channel": 3,
      "note": 60,
      "start": 101.4528,
      "duration": 0.018,
      "velocity": 115,
      "chip": "ym2612"
    },
    {
      "channel": 3,
      "note": 58,
      "start": 101.4707,
      "duration": 0.0237,
      "velocity": 1,
      "chip": "ym2612"
    },
    {
      "channel": 0,
      "note": 57,
      "start": 101.4897,
      "duration": 0.1812,
      "velocity": 89,
      "chip": "ym2612"
    },
    {
      "channel": 1,
      "note": 21,
      "start": 101.4918,
      "duration": 0.1812,
      "velocity": 127,
      "chip": "ym2612"
    },
    {
      "channel": 2,
      "note": 107,
      "start": 101.4924,
      "duration": 0.088,
      "velocity": 103,
      "chip": "ym2612"
    },
    {
      "channel": 3,
      "note": 79,
      "start": 101.4946,
      "duration": 1.5379,
      "velocity": 115,
      "chip": "ym2612"
    },
    {
      "channel": 2,
      "note": 107,
      "start": 101.5806,
      "duration": 0.1816,
      "velocity": 103,
      "chip": "ym2612"
    },
    {
      "channel": 0,
      "note": 57,
      "start": 101.671,
      "duration": 0.3626,
      "velocity": 89,
      "chip": "ym2612"
    },
    {
      "channel": 1,
      "note": 74,
      "start": 101.6732,
      "duration": 0.0884,
      "velocity": 127,
      "chip": "ym2612"
    },
    {
      "channel": 1,
      "note": 74,
      "start": 101.7618,
      "duration": 0.092,
      "velocity": 119,
      "chip": "ym2612"
    },
    {
      "channel": 2,
      "note": 107,
      "start": 101.7623,
      "duration": 0.1828,
      "velocity": 103,
      "chip": "ym2612"
    },
    {
      "channel": 1,
      "note": 31,
      "start": 101.8539,
      "duration": 0.0906,
      "velocity": 127,
      "chip": "ym2612"
    },
    {
      "channel": 1,
      "note": 74,
      "start": 101.9447,
      "duration": 0.0895,
      "velocity": 127,
      "chip": "ym2612"
    },
    {
      "channel": 2,
      "note": 107,
      "start": 101.9453,
      "duration": 0.2697,
      "velocity": 103,
      "chip": "ym2612"
    },
    {
      "channel": 0,
      "note": 55,
      "start": 102.0338,
      "duration": 2.3569,
      "velocity": 89,
      "chip": "ym2612"
    },
    {
      "channel": 1,
      "note": 74,
      "start": 102.0343,
      "duration": 0.1801,
      "velocity": 127,
      "chip": "ym2612"
    },
    {
      "channel": 1,
      "note": 74,
      "start": 102.2146,
      "duration": 0.0902,
      "velocity": 127,
      "chip": "ym2612"
    },
    {
      "channel": 2,
      "note": 107,
      "start": 102.2151,
      "duration": 0.1824,
      "velocity": 103,
      "chip": "ym2612"
    },
    {
      "channel": 1,
      "note": 74,
      "start": 102.305,
      "duration": 0.092,
      "velocity": 127,
      "chip": "ym2612"
    },
    {
      "channel": 1,
      "note": 21,
      "start": 102.3972,
      "duration": 0.0907,
      "velocity": 127,
      "chip": "ym2612"
    },
    {
      "channel": 2,
      "note": 107,
      "start": 102.3978,
      "duration": 0.1812,
      "velocity": 103,
      "chip": "ym2612"
    },
    {
      "channel": 1,
      "note": 74,
      "start": 102.488,
      "duration": 0.0904,
      "velocity": 119,
      "chip": "ym2612"
    },
    {
      "channel": 1,
      "note": 31,
      "start": 102.5786,
      "duration": 0.1809,
      "velocity": 127,
      "chip": "ym2612"
    },
    {
      "channel": 2,
      "note": 107,
      "start": 102.5792,
      "duration": 0.0883,
      "velocity": 103,
      "chip": "ym2612"
    },
    {
      "channel": 2,
      "note": 107,
      "start": 102.6677,
      "duration": 0.0924,
      "velocity": 103,
      "chip": "ym2612"
    },
    {
      "channel": 1,
      "note": 74,
      "start": 102.7596,
      "duration": 0.0889,
      "velocity": 127,
      "chip": "ym2612"
    },
    {
      "channel": 2,
      "note": 107,
      "start": 102.7602,
      "duration": 0.1813,
      "velocity": 103,
      "chip": "ym2612"
    },
    {
      "channel": 1,
      "note": 74,
      "start": 102.8487,
      "duration": 0.0922,
      "velocity": 127,
      "chip": "ym2612"
    },
    {
      "channel": 1,
      "note": 21,
      "start": 102.9411,
      "duration": 0.1813,
      "velocity": 127,
      "chip": "ym2612"
    },
    {
      "channel": 2,
      "note": 107,
      "start": 102.9417,
      "duration": 0.0886,
      "velocity": 103,
      "chip": "ym2612"
    },
    {
      "channel": 2,
      "note": 107,
      "start": 103.0305,
      "duration": 0.1818,
      "velocity": 103,
      "chip": "ym2612"
    },
    {
      "channel": 3,
      "note": 72,
      "start": 103.0326,
      "duration": 0.0005,
      "velocity": 115,
      "chip": "ym2612"
    },
    {
      "channel": 3,
      "note": 71,
      "start": 103.0332,
      "duration": 0.0152,
      "velocity": 115,
      "chip": "ym2612"
    },
    {
      "channel": 3,
      "note": 69,
      "start": 103.0483,
      "duration": 0.0181,
      "velocity": 115,
      "chip": "ym2612"
    },
    {
      "channel": 3,
      "note": 68,
      "start": 103.0665,
      "duration": 0.0181,
      "velocity": 115,
      "chip": "ym2612"
    },
    {
      "channel": 3,
      "note": 67,
      "start": 103.0846,
      "duration": 0.0179,
      "velocity": 115,
      "chip": "ym2612"
    },
    {
      "channel": 3,
      "note": 66,
      "start": 103.1025,
      "duration": 0.0206,
      "velocity": 115,
      "chip": "ym2612"
    },
    {
      "channel": 1,
      "note": 74,
      "start": 103.1224,
      "duration": 0.0893,
      "velocity": 127,
      "chip": "ym2612"
    },
    {
      "channel": 3,
      "note": 65,
      "start": 103.1232,
      "duration": 0.0154,
      "velocity": 115,
      "chip": "ym2612"
    },
    {
      "channel": 3,
      "note": 64,
      "start": 103.1385,
      "duration": 0.0181,
      "velocity": 115,
      "chip": "ym2612"
    },
    {
      "channel": 3,
      "note": 63,
      "start": 103.1567,
      "duration": 0.0182,
      "velocity": 115,
      "chip": "ym2612"
    },
    {
      "channel": 3,
      "note": 62,
      "start": 103.1748,
      "duration": 0.0183,
      "velocity": 115,
      "chip": "ym2612"
    },
    {
      "channel": 3,
      "note": 61,
      "start": 103.1931,
      "duration": 0.0199,
      "velocity": 115,
      "chip": "ym2612"
    },
    {
      "channel": 1,
      "note": 74,
      "start": 103.2118,
      "duration": 0.0917,
      "velocity": 119,
      "chip": "ym2612"
    },
    {
      "channel": 2,
      "note": 107,
      "start": 103.2124,
      "duration": 0.1823,
      "velocity": 103,
      "chip": "ym2612"
    },
    {
      "channel": 3,
      "note": 60,
      "start": 103.213,
      "duration": 0.0163,
      "velocity": 115,
      "chip": "ym2612"
    },
    {
      "channel": 3,
      "note": 59,
      "start": 103.2293,
      "duration": 0.018,
      "velocity": 115,
      "chip": "ym2612"
    },
    {
      "channel": 3,
      "note": 57,
      "start": 103.2474,
      "duration": 0.0179,
      "velocity": 115,
      "chip": "ym2612"
    },
    {
      "channel": 3,
      "note": 56,
      "start": 103.2652,
      "duration": 0.0182,
      "velocity": 115,
      "chip": "ym2612"
    },
    {
      "channel": 3,
      "note": 55,
      "start": 103.2834,
      "duration": 0.0207,
      "velocity": 115,
      "chip": "ym2612"
    },
    {
      "channel": 1,
      "note": 31,
      "start": 103.3036,
      "duration": 0.0905,
      "velocity": 127,
      "chip": "ym2612"
    },
    {
      "channel": 3,
      "note": 72,
      "start": 103.3043,
      "duration": 0.0006,
      "velocity": 115,
      "chip": "ym2612"
    },
    {
      "channel": 3,
      "note": 71,
      "start": 103.3049,
      "duration": 0.0152,
      "velocity": 115,
      "chip": "ym2612"
    },
    {
      "channel": 3,
      "note": 69,
      "start": 103.32,
      "duration": 0.018,
      "velocity": 115,
      "chip": "ym2612"
    },
    {
      "channel": 3,
      "note": 68,
      "start": 103.338,
      "duration": 0.0178,
      "velocity": 115,
      "chip": "ym2612"
    },
    {
      "channel": 3,
      "note": 67,
      "start": 103.3559,
      "duration": 0.0181,
      "velocity": 115,
      "chip": "ym2612"
    },
    {
      "channel": 3,
      "note": 66,
      "start": 103.374,
      "duration": 0.0215,
      "velocity": 115,
      "chip": "ym2612"
    },
    {
      "channel": 1,
      "note": 74,
      "start": 103.3943,
      "duration": 0.0907,
      "velocity": 127,
      "chip": "ym2612"
    },
    {
      "channel": 2,
      "note": 107,
      "start": 103.3949,
      "duration": 0.2708,
      "velocity": 103,
      "chip": "ym2612"
    },
    {
      "channel": 3,
      "note": 65,
      "start": 103.3954,
      "duration": 0.015,
      "velocity": 115,
      "chip": "ym2612"
    },
    {
      "channel": 3,
      "note": 64,
      "start": 103.4105,
      "duration": 0.0181,
      "velocity": 115,
      "chip": "ym2612"
    },
    {
      "channel": 3,
      "note": 63,
      "start": 103.4286,
      "duration": 0.018,
      "velocity": 115,
      "chip": "ym2612"
    },
    {
      "channel": 3,
      "note": 62,
      "start": 103.4466,
      "duration": 0.0182,
      "velocity": 115,
      "chip": "ym2612"
    },
    {
      "channel": 3,
      "note": 61,
      "start": 103.4648,
      "duration": 0.0211,
      "velocity": 115,
      "chip": "ym2612"
    },
    {
      "channel": 1,
      "note": 21,
      "start": 103.4851,
      "duration": 0.0909,
      "velocity": 127,
      "chip": "ym2612"
    },
    {
      "channel": 3,
      "note": 60,
      "start": 103.4859,
      "duration": 0.0157,
      "velocity": 115,
      "chip": "ym2612"
    },
    {
      "channel": 3,
      "note": 59,
      "start": 103.5015,
      "duration": 0.0181,
      "velocity": 115,
      "chip": "ym2612"
    },
    {
      "channel": 3,
      "note": 57,
      "start": 103.5197,
      "duration": 0.0183,
      "velocity": 115,
      "chip": "ym2612"
    },
    {
      "channel": 3,
      "note": 56,
      "start": 103.5379,
      "duration": 0.018,
      "velocity": 115,
      "chip": "ym2612"
    },
    {
      "channel": 3,
      "note": 55,
      "start": 103.5559,
      "duration": 0.0209,
      "velocity": 115,
      "chip": "ym2612"
    },
    {
      "channel": 1,
      "note": 74,
      "start": 103.5761,
      "duration": 0.089,
      "velocity": 127,
      "chip": "ym2612"
    },
    {
      "channel": 3,
      "note": 54,
      "start": 103.5768,
      "duration": 0.0155,
      "velocity": 115,
      "chip": "ym2612"
    },
    {
      "channel": 3,
      "note": 53,
      "start": 103.5923,
      "duration": 0.0183,
      "velocity": 115,
      "chip": "ym2612"
    },
    {
      "channel": 3,
      "note": 52,
      "start": 103.6105,
      "duration": 0.0181,
      "velocity": 115,
      "chip": "ym2612"
    },
    {
      "channel": 3,
      "note": 51,
      "start": 103.6287,
      "duration": 0.0181,
      "velocity": 115,
      "chip": "ym2612"
    },
    {
      "channel": 3,
      "note": 50,
      "start": 103.6468,
      "duration": 0.0195,
      "velocity": 115,
      "chip": "ym2612"
    },
    {
      "channel": 1,
      "note": 74,
      "start": 103.6653,
      "duration": 0.183,
      "velocity": 127,
      "chip": "ym2612"
    },
    {
      "channel": 2,
      "note": 107,
      "start": 103.6659,
      "duration": 0.1829,
      "velocity": 103,
      "chip": "ym2612"
    },
    {
      "channel": 3,
      "note": 76,
      "start": 103.6665,
      "duration": 0.0006,
      "velocity": 115,
      "chip": "ym2612"
    },
    {
      "channel": 3,
      "note": 75,
      "start": 103.6671,
      "duration": 0.0163,
      "velocity": 115,
      "chip": "ym2612"
    },
    {
      "channel": 3,
      "note": 74,
      "start": 103.6833,
      "duration": 0.018,
      "velocity": 115,
      "chip": "ym2612"
    },
    {
      "channel": 3,
      "note": 73,
      "start": 103.7014,
      "duration": 0.0183,
      "velocity": 115,
      "chip": "ym2612"
    },
    {
      "channel": 3,
      "note": 72,
      "start": 103.7196,
      "duration": 0.0181,
      "velocity": 115,
      "chip": "ym2612"
    },
    {
      "channel": 3,
      "note": 70,
      "start": 103.7377,
      "duration": 0.0187,
      "velocity": 115,
      "chip": "ym2612"
    },
    {
      "channel": 3,
      "note": 76,
      "start": 103.7566,
      "duration": 0.0006,
      "velocity": 115,
      "chip": "ym2612"
    },
    {
      "channel": 3,
      "note": 75,
      "start": 103.7571,
      "duration": 0.017,
      "velocity": 115,
      "chip": "ym2612"
    },
    {
      "channel": 3,
      "note": 74,
      "start": 103.7742,
      "duration": 0.0182,
      "velocity": 115,
      "chip": "ym2612"
    },
    {
      "channel": 3,
      "note": 73,
      "start": 103.7924,
      "duration": 0.0182,
      "velocity": 115,
      "chip": "ym2612"
    },
    {
      "channel": 3,
      "note": 72,
      "start": 103.8105,
      "duration": 0.0179,
      "velocity": 115,
      "chip": "ym2612"
    },
    {
      "channel": 3,
      "note": 70,
      "start": 103.8284,
      "duration": 0.021,
      "velocity": 115,
      "chip": "ym2612"
    },
    {
      "channel": 1,
      "note": 21,
      "start": 103.8484,
      "duration": 0.1815,
      "velocity": 119,
      "chip": "ym2612"
    },
    {
      "channel": 2,
      "note": 107,
      "start": 103.849,
      "duration": 0.1814,
      "velocity": 103,
      "chip": "ym2612"
    },
    {
      "channel": 3,
      "note": 76,
      "start": 103.8496,
      "duration": 0.0009,
      "velocity": 115,
      "chip": "ym2612"
    },
    {
      "channel": 3,
      "note": 75,
      "start": 103.8505,
      "duration": 0.0144,
      "velocity": 115,
      "chip": "ym2612"
    },
    {
      "channel": 3,
      "note": 74,
      "start": 103.8648,
      "duration": 0.0181,
      "velocity": 115,
      "chip": "ym2612"
    },
    {
      "channel": 3,
      "note": 73,
      "start": 103.8829,
      "duration": 0.0182,
      "velocity": 115,
      "chip": "ym2612"
    },
    {
      "channel": 3,
      "note": 72,
      "start": 103.9011,
      "duration": 0.0182,
      "velocity": 115,
      "chip": "ym2612"
    },
    {
      "channel": 3,
      "note": 70,
      "start": 103.9193,
      "duration": 0.0361,
      "velocity": 115,
      "chip": "ym2612"
    },
    {
      "channel": 3,
      "note": 69,
      "start": 103.9554,
      "duration": 0.0183,
      "velocity": 115,
      "chip": "ym2612"
    },
    {
      "channel": 3,
      "note": 68,
      "start": 103.9738,
      "duration": 0.018,
      "velocity": 115,
      "chip": "ym2612"
    },
    {
      "channel": 3,
      "note": 67,
      "start": 103.9918,
      "duration": 0.0181,
      "velocity": 115,
      "chip": "ym2612"
    },
    {
      "channel": 3,
      "note": 66,
      "start": 104.01,
      "duration": 0.021,
      "velocity": 115,
      "chip": "ym2612"
    },
    {
      "channel": 1,
      "note": 31,
      "start": 104.03,
      "duration": 0.0908,
      "velocity": 127,
      "chip": "ym2612"
    },
    {
      "channel": 2,
      "note": 107,
      "start": 104.0306,
      "duration": 0.0908,
      "velocity": 103,
      "chip": "ym2612"
    },
    {
      "channel": 3,
      "note": 71,
      "start": 104.0312,
      "duration": 0.0006,
      "velocity": 115,
      "chip": "ym2612"
    },
    {
      "channel": 3,
      "note": 70,
      "start": 104.0317,
      "duration": 0.0147,
      "velocity": 115,
      "chip": "ym2612"
    },
    {
      "channel": 3,
      "note": 68,
      "start": 104.0464,
      "duration": 0.0183,
      "velocity": 115,
      "chip": "ym2612"
    },
    {
      "channel": 3,
      "note": 67,
      "start": 104.0646,
      "duration": 0.0182,
      "velocity": 115,
      "chip": "ym2612"
    },
    {
      "channel": 3,
      "note": 66,
      "start": 104.0828,
      "duration": 0.0183,
      "velocity": 115,
      "chip": "ym2612"
    },
    {
      "channel": 3,
      "note": 66,
      "start": 104.1011,
      "duration": 0.0211,
      "velocity": 115,
      "chip": "ym2612"
    },
    {
      "channel": 1,
      "note": 74,
      "start": 104.121,
      "duration": 0.0888,
      "velocity": 127,
      "chip": "ym2612"
    },
    {
      "channel": 2,
      "note": 107,
      "start": 104.1216,
      "duration": 0.0888,
      "velocity": 103,
      "chip": "ym2612"
    },
    {
      "channel": 3,
      "note": 65,
      "start": 104.1222,
      "duration": 0.0151,
      "velocity": 115,
      "chip": "ym2612"
    },
    {
      "channel": 3,
      "note": 64,
      "start": 104.1373,
      "duration": 0.0182,
      "velocity": 115,
      "chip": "ym2612"
    },
    {
      "channel": 3,
      "note": 63,
      "start": 104.1555,
      "duration": 0.0178,
      "velocity": 115,
      "chip": "ym2612"
    },
    {
      "channel": 3,
      "note": 61,
      "start": 104.1733,
      "duration": 0.0182,
      "velocity": 115,
      "chip": "ym2612"
    },
    {
      "channel": 3,
      "note": 60,
      "start": 104.1916,
      "duration": 0.0196,
      "velocity": 115,
      "chip": "ym2612"
    },
    {
      "channel": 1,
      "note": 74,
      "start": 104.21,
      "duration": 0.0906,
      "velocity": 127,
      "chip": "ym2612"
    },
    {
      "channel": 2,
      "note": 107,
      "start": 104.2106,
      "duration": 0.1828,
      "velocity": 103,
      "chip": "ym2612"
    },
    {
      "channel": 3,
      "note": 59,
      "start": 104.2112,
      "duration": 0.0167,
      "velocity": 115,
      "chip": "ym2612"
    },
    {
      "channel": 3,
      "note": 58,
      "start": 104.2279,
      "duration": 0.0182,
      "velocity": 115,
      "chip": "ym2612"
    },
    {
      "channel": 3,
      "note": 56,
      "start": 104.2461,
      "duration": 0.0183,
      "velocity": 115,
      "chip": "ym2612"
    },
    {
      "channel": 3,
      "note": 55,
      "start": 104.2643,
      "duration": 0.018,
      "velocity": 115,
      "chip": "ym2612"
    },
    {
      "channel": 3,
      "note": 54,
      "start": 104.2823,
      "duration": 0.0191,
      "velocity": 115,
      "chip": "ym2612"
    },
    {
      "channel": 1,
      "note": 74,
      "start": 104.3008,
      "duration": 0.092,
      "velocity": 127,
      "chip": "ym2612"
    },
    {
      "channel": 3,
      "note": 54,
      "start": 104.3015,
      "duration": 0.0169,
      "velocity": 115,
      "chip": "ym2612"
    },
    {
      "channel": 3,
      "note": 53,
      "start": 104.3184,
      "duration": 0.018,
      "velocity": 115,
      "chip": "ym2612"
    },
    {
      "channel": 3,
      "note": 52,
      "start": 104.3363,
      "duration": 0.0178,
      "velocity": 115,
      "chip": "ym2612"
    },
    {
      "channel": 3,
      "note": 51,
      "start": 104.3541,
      "duration": 0.0181,
      "velocity": 115,
      "chip": "ym2612"
    },
    {
      "channel": 3,
      "note": 50,
      "start": 104.3722,
      "duration": 0.0219,
      "velocity": 115,
      "chip": "ym2612"
    },
    {
      "channel": 0,
      "note": 57,
      "start": 104.3908,
      "duration": 0.1814,
      "velocity": 89,
      "chip": "ym2612"
    },
    {
      "channel": 1,
      "note": 21,
      "start": 104.393,
      "duration": 0.1813,
      "velocity": 127,
      "chip": "ym2612"
    },
    {
      "channel": 2,
      "note": 107,
      "start": 104.3935,
      "duration": 0.088,
      "velocity": 103,
      "chip": "ym2612"
    },
    {
      "channel": 3,
      "note": 48,
      "start": 104.3941,
      "duration": 0.0147,
      "velocity": 115,
      "chip": "ym2612"
    },
    {
      "channel": 3,
      "note": 47,
      "start": 104.4088,
      "duration": 0.0181,
      "velocity": 115,
      "chip": "ym2612"
    },
    {
      "channel": 3,
      "note": 46,
      "start": 104.4269,
      "duration": 0.0181,
      "velocity": 115,
      "chip": "ym2612"
    },
    {
      "channel": 3,
      "note": 44,
      "start": 104.4451,
      "duration": 0.0182,
      "velocity": 115,
      "chip": "ym2612"
    },
    {
      "channel": 3,
      "note": 43,
      "start": 104.4632,
      "duration": 0.0191,
      "velocity": 115,
      "chip": "ym2612"
    },
    {
      "channel": 2,
      "note": 107,
      "start": 104.4817,
      "duration": 0.1811,
      "velocity": 103,
      "chip": "ym2612"
    },
    {
      "channel": 3,
      "note": 42,
      "start": 104.4823,
      "duration": 0.017,
      "velocity": 115,
      "chip": "ym2612"
    },
    {
      "channel": 3,
      "note": 42,
      "start": 104.4993,
      "duration": 0.0181,
      "velocity": 115,
      "chip": "ym2612"
    },
    {
      "channel": 3,
      "note": 41,
      "start": 104.5174,
      "duration": 0.0182,
      "velocity": 115,
      "chip": "ym2612"
    },
    {
      "channel": 3,
      "note": 40,
      "start": 104.5356,
      "duration": 0.0181,
      "velocity": 115,
      "chip": "ym2612"
    },
    {
      "channel": 3,
      "note": 39,
      "start": 104.5538,
      "duration": 0.0214,
      "velocity": 115,
      "chip": "ym2612"
    },
    {
      "channel": 0,
      "note": 57,
      "start": 104.5724,
      "duration": 0.3612,
      "velocity": 89,
      "chip": "ym2612"
    },
    {
      "channel": 1,
      "note": 74,
      "start": 104.5746,
      "duration": 0.0877,
      "velocity": 127,
      "chip": "ym2612"
    },
    {
      "channel": 3,
      "note": 38,
      "start": 104.5752,
      "duration": 0.015,
      "velocity": 115,
      "chip": "ym2612"
    },
    {
      "channel": 3,
      "note": 36,
      "start": 104.5902,
      "duration": 0.0178,
      "velocity": 115,
      "chip": "ym2612"
    },
    {
      "channel": 3,
      "note": 35,
      "start": 104.6081,
      "duration": 0.018,
      "velocity": 115,
      "chip": "ym2612"
    },
    {
      "channel": 3,
      "note": 34,
      "start": 104.626,
      "duration": 0.0178,
      "velocity": 115,
      "chip": "ym2612"
    },
    {
      "channel": 3,
      "note": 32,
      "start": 104.6439,
      "duration": 0.0197,
      "velocity": 115,
      "chip": "ym2612"
    },
    {
      "channel": 1,
      "note": 74,
      "start": 104.6624,
      "duration": 0.0913,
      "velocity": 119,
      "chip": "ym2612"
    },
    {
      "channel": 2,
      "note": 107,
      "start": 104.663,
      "duration": 0.1823,
      "velocity": 103,
      "chip": "ym2612"
    },
    {
      "channel": 3,
      "note": 31,
      "start": 104.6636,
      "duration": 0.0165,
      "velocity": 115,
      "chip": "ym2612"
    },
    {
      "channel": 3,
      "note": 30,
      "start": 104.68,
      "duration": 0.018,
      "velocity": 115,
      "chip": "ym2612"
    },
    {
      "channel": 3,
      "note": 30,
      "start": 104.698,
      "duration": 0.0179,
      "velocity": 115,
      "chip": "ym2612"
    },
    {
      "channel": 3,
      "note": 29,
      "start": 104.7159,
      "duration": 0.0178,
      "velocity": 115,
      "chip": "ym2612"
    },
    {
      "channel": 3,
      "note": 28,
      "start": 104.7337,
      "duration": 0.0209,
      "velocity": 115,
      "chip": "ym2612"
    },
    {
      "channel": 1,
      "note": 31,
      "start": 104.7539,
      "duration": 0.0909,
      "velocity": 127,
      "chip": "ym2612"
    },
    {
      "channel": 3,
      "note": 27,
      "start": 104.7546,
      "duration": 0.0157,
      "velocity": 115,
      "chip": "ym2612"
    },
    {
      "channel": 3,
      "note": 26,
      "start": 104.7703,
      "duration": 0.0181,
      "velocity": 115,
      "chip": "ym2612"
    },
    {
      "channel": 3,
      "note": 24,
      "start": 104.7884,
      "duration": 0.0182,
      "velocity": 115,
      "chip": "ym2612"
    },
    {
      "channel": 3,
      "note": 23,
      "start": 104.8066,
      "duration": 0.0181,
      "velocity": 115,
      "chip": "ym2612"
    },
    {
      "channel": 3,
      "note": 22,
      "start": 104.8247,
      "duration": 0.0215,
      "velocity": 115,
      "chip": "ym2612"
    },
    {
      "channel": 1,
      "note": 74,
      "start": 104.8449,
      "duration": 0.0893,
      "velocity": 127,
      "chip": "ym2612"
    },
    {
      "channel": 2,
      "note": 107,
      "start": 104.8455,
      "duration": 0.2694,
      "velocity": 103,
      "chip": "ym2612"
    },
    {
      "channel": 3,
      "note": 20,
      "start": 104.8462,
      "duration": 0.0151,
      "velocity": 115,
      "chip": "ym2612"
    },
    {
      "channel": 3,
      "note": 115,
      "start": 104.8613,
      "duration": 0.0183,
      "velocity": 115,
      "chip": "ym2612"
    },
    {
      "channel": 3,
      "note": 114,
      "start": 104.8795,
      "duration": 0.0179,
      "velocity": 115,
      "chip": "ym2612"
    },
    {
      "channel": 3,
      "note": 114,
      "start": 104.8974,
      "duration": 0.0178,
      "velocity": 115,
      "chip": "ym2612"
    },
    {
      "channel": 3,
      "note": 113,
      "start": 104.9152,
      "duration": 0.0198,
      "velocity": 115,
      "chip": "ym2612"
    },
    {
      "channel": 0,
      "note": 55,
      "start": 104.9338,
      "duration": 2.3591,
      "velocity": 89,
      "chip": "ym2612"
    },
    {
      "channel": 1,
      "note": 74,
      "start": 104.9344,
      "duration": 0.18,
      "velocity": 127,
      "chip": "ym2612"
    },
    {
      "channel": 3,
      "note": 112,
      "start": 104.935,
      "duration": 0.0166,
      "velocity": 115,
      "chip": "ym2612"
    },
    {
      "channel": 3,
      "note": 111,
      "start": 104.9516,
      "duration": 0.0182,
      "velocity": 115,
      "chip": "ym2612"
    },
    {
      "channel": 3,
      "note": 110,
      "start": 104.9698,
      "duration": 0.0179,
      "velocity": 115,
      "chip": "ym2612"
    },
    {
      "channel": 3,
      "note": 108,
      "start": 104.9877,
      "duration": 0.0179,
      "velocity": 115,
      "chip": "ym2612"
    },
    {
      "channel": 3,
      "note": 107,
      "start": 105.0056,
      "duration": 0.0362,
      "velocity": 115,
      "chip": "ym2612"
    },
    {
      "channel": 3,
      "note": 106,
      "start": 105.0418,
      "duration": 0.0179,
      "velocity": 115,
      "chip": "ym2612"
    },
    {
      "channel": 3,
      "note": 104,
      "start": 105.0597,
      "duration": 0.018,
      "velocity": 115,
      "chip": "ym2612"
    },
    {
      "channel": 3,
      "note": 103,
      "start": 105.0777,
      "duration": 0.0181,
      "velocity": 115,
      "chip": "ym2612"
    },
    {
      "channel": 3,
      "note": 103,
      "start": 105.0959,
      "duration": 0.0202,
      "velocity": 115,
      "chip": "ym2612"
    },
    {
      "channel": 1,
      "note": 74,
      "start": 105.1145,
      "duration": 0.0905,
      "velocity": 127,
      "chip": "ym2612"
    },
    {
      "channel": 2,
      "note": 107,
      "start": 105.1151,
      "duration": 0.1826,
      "velocity": 103,
      "chip": "ym2612"
    },
    {
      "channel": 3,
      "note": 102,
      "start": 105.1161,
      "duration": 0.0164,
      "velocity": 115,
      "chip": "ym2612"
    },
    {
      "channel": 3,
      "note": 101,
      "start": 105.1324,
      "duration": 0.0179,
      "velocity": 115,
      "chip": "ym2612"
    },
    {
      "channel": 3,
      "note": 100,
      "start": 105.1503,
      "duration": 0.018,
      "velocity": 115,
      "chip": "ym2612"
    },
    {
      "channel": 3,
      "note": 99,
      "start": 105.1683,
      "duration": 0.0182,
      "velocity": 115,
      "chip": "ym2612"
    },
    {
      "channel": 3,
      "note": 98,
      "start": 105.1865,
      "duration": 0.0194,
      "velocity": 115,
      "chip": "ym2612"
    },
    {
      "channel": 1,
      "note": 74,
      "start": 105.2052,
      "duration": 0.0919,
      "velocity": 127,
      "chip": "ym2612"
    },
    {
      "channel": 3,
      "note": 96,
      "start": 105.2059,
      "duration": 0.017,
      "velocity": 115,
      "chip": "ym2612"
    },
    {
      "channel": 3,
      "note": 95,
      "start": 105.2228,
      "duration": 0.018,
      "velocity": 115,
      "chip": "ym2612"
    },
    {
      "channel": 3,
      "note": 94,
      "start": 105.2409,
      "duration": 0.0182,
      "velocity": 115,
      "chip": "ym2612"
    },
    {
      "channel": 3,
      "note": 92,
      "start": 105.2591,
      "duration": 0.0181,
      "velocity": 115,
      "chip": "ym2612"
    },
    {
      "channel": 3,
      "note": 91,
      "start": 105.2773,
      "duration": 0.0212,
      "velocity": 115,
      "chip": "ym2612"
    },
    {
      "channel": 1,
      "note": 21,
      "start": 105.2973,
      "duration": 0.091,
      "velocity": 127,
      "chip": "ym2612"
    },
    {
      "channel": 2,
      "note": 107,
      "start": 105.2978,
      "duration": 0.1815,
      "velocity": 103,
      "chip": "ym2612"
    },
    {
      "channel": 3,
      "note": 91,
      "start": 105.2984,
      "duration": 0.0152,
      "velocity": 115,
      "chip": "ym2612"
    },
    {
      "channel": 3,
      "note": 90,
      "start": 105.3136,
      "duration": 0.0182,
      "velocity": 115,
      "chip": "ym2612"
    },
    {
      "channel": 3,
      "note": 89,
      "start": 105.3318,
      "duration": 0.0182,
      "velocity": 115,
      "chip": "ym2612"
    },
    {
      "channel": 3,
      "note": 88,
      "start": 105.35,
      "duration": 0.0182,
      "velocity": 115,
      "chip": "ym2612"
    },
    {
      "channel": 3,
      "note": 87,
      "start": 105.3681,
      "duration": 0.0209,
      "velocity": 115,
      "chip": "ym2612"
    },
    {
      "channel": 1,
      "note": 74,
      "start": 105.3884,
      "duration": 0.0904,
      "velocity": 119,
      "chip": "ym2612"
    },
    {
      "channel": 3,
      "note": 86,
      "start": 105.3891,
      "duration": 0.0157,
      "velocity": 115,
      "chip": "ym2612"
    },
    {
      "channel": 3,
      "note": 84,
      "start": 105.4048,
      "duration": 0.0182,
      "velocity": 115,
      "chip": "ym2612"
    },
    {
      "channel": 3,
      "note": 83,
      "start": 105.423,
      "duration": 0.018,
      "velocity": 115,
      "chip": "ym2612"
    },
    {
      "channel": 3,
      "note": 82,
      "start": 105.441,
      "duration": 0.018,
      "velocity": 115,
      "chip": "ym2612"
    },
    {
      "channel": 3,
      "note": 80,
      "start": 105.459,
      "duration": 0.0211,
      "velocity": 115,
      "chip": "ym2612"
    },
    {
      "channel": 1,
      "note": 31,
      "start": 105.4789,
      "duration": 0.1815,
      "velocity": 127,
      "chip": "ym2612"
    },
    {
      "channel": 2,
      "note": 107,
      "start": 105.4795,
      "duration": 0.0887,
      "velocity": 103,
      "chip": "ym2612"
    },
    {
      "channel": 3,
      "note": 79,
      "start": 105.4801,
      "duration": 0.0152,
      "velocity": 115,
      "chip": "ym2612"
    },
    {
      "channel": 3,
      "note": 79,
      "start": 105.4953,
      "duration": 0.0182,
      "velocity": 115,
      "chip": "ym2612"
    },
    {
      "channel": 3,
      "note": 78,
      "start": 105.5135,
      "duration": 0.0181,
      "velocity": 115,
      "chip": "ym2612"
    },
    {
      "channel": 3,
      "note": 77,
      "start": 105.5316,
      "duration": 0.018,
      "velocity": 115,
      "chip": "ym2612"
    },
    {
      "channel": 3,
      "note": 76,
      "start": 105.5496,
      "duration": 0.0193,
      "velocity": 115,
      "chip": "ym2612"
    },
    {
      "channel": 2,
      "note": 107,
      "start": 105.5683,
      "duration": 0.0925,
      "velocity": 103,
      "chip": "ym2612"
    },
    {
      "channel": 3,
      "note": 75,
      "start": 105.5689,
      "duration": 0.0169,
      "velocity": 115,
      "chip": "ym2612"
    },
    {
      "channel": 3,
      "note": 74,
      "start": 105.5858,
      "duration": 0.0181,
      "velocity": 115,
      "chip": "ym2612"
    },
    {
      "channel": 3,
      "note": 72,
      "start": 105.6039,
      "duration": 0.018,
      "velocity": 115,
      "chip": "ym2612"
    },
    {
      "channel": 3,
      "note": 71,
      "start": 105.622,
      "duration": 0.0182,
      "velocity": 115,
      "chip": "ym2612"
    },
    {
      "channel": 3,
      "note": 70,
      "start": 105.6402,
      "duration": 0.0215,
      "velocity": 115,
      "chip": "ym2612"
    },
    {
      "channel": 1,
      "note": 74,
      "start": 105.6605,
      "duration": 0.0894,
      "velocity": 127,
      "chip": "ym2612"
    },
    {
      "channel": 2,
      "note": 107,
      "start": 105.6611,
      "duration": 0.1816,
      "velocity": 103,
      "chip": "ym2612"
    },
    {
      "channel": 3,
      "note": 68,
      "start": 105.6617,
      "duration": 0.0152,
      "velocity": 115,
      "chip": "ym2612"
    },
    {
      "channel": 3,
      "note": 67,
      "start": 105.6769,
      "duration": 0.0181,
      "velocity": 115,
      "chip": "ym2612"
    },
    {
      "channel": 3,
      "note": 67,
      "start": 105.6951,
      "duration": 0.0181,
      "velocity": 115,
      "chip": "ym2612"
    },
    {
      "channel": 3,
      "note": 66,
      "start": 105.7132,
      "duration": 0.0181,
      "velocity": 115,
      "chip": "ym2612"
    },
    {
      "channel": 3,
      "note": 65,
      "start": 105.7313,
      "duration": 0.0194,
      "velocity": 115,
      "chip": "ym2612"
    },
    {
      "channel": 1,
      "note": 74,
      "start": 105.75,
      "duration": 0.0922,
      "velocity": 127,
      "chip": "ym2612"
    },
    {
      "channel": 3,
      "note": 64,
      "start": 105.7507,
      "duration": 0.0172,
      "velocity": 115,
      "chip": "ym2612"
    },
    {
      "channel": 3,
      "note": 63,
      "start": 105.7679,
      "duration": 0.0181,
      "velocity": 115,
      "chip": "ym2612"
    },
    {
      "channel": 3,
      "note": 62,
      "start": 105.786,
      "duration": 0.0181,
      "velocity": 115,
      "chip": "ym2612"
    },
    {
      "channel": 3,
      "note": 60,
      "start": 105.8041,
      "duration": 0.018,
      "velocity": 115,
      "chip": "ym2612"
    },
    {
      "channel": 3,
      "note": 59,
      "start": 105.8222,
      "duration": 0.0216,
      "velocity": 115,
      "chip": "ym2612"
    },
    {
      "channel": 1,
      "note": 21,
      "start": 105.8423,
      "duration": 0.1813,
      "velocity": 127,
      "chip": "ym2612"
    },
    {
      "channel": 2,
      "note": 107,
      "start": 105.8429,
      "duration": 0.0884,
      "velocity": 103,
      "chip": "ym2612"
    },
    {
      "channel": 3,
      "note": 58,
      "start": 105.8438,
      "duration": 0.0147,
      "velocity": 115,
      "chip": "ym2612"
    },
    {
      "channel": 3,
      "note": 56,
      "start": 105.8585,
      "duration": 0.0182,
      "velocity": 115,
      "chip": "ym2612"
    },
    {
      "channel": 3,
      "note": 55,
      "start": 105.8768,
      "duration": 0.0179,
      "velocity": 115,
      "chip": "ym2612"
    },
    {
      "channel": 3,
      "note": 55,
      "start": 105.8947,
      "duration": 0.0181,
      "velocity": 115,
      "chip": "ym2612"
    },
    {
      "channel": 3,
      "note": 54,
      "start": 105.9128,
      "duration": 0.0191,
      "velocity": 115,
      "chip": "ym2612"
    },
    {
      "channel": 2,
      "note": 107,
      "start": 105.9315,
      "duration": 0.1819,
      "velocity": 103,
      "chip": "ym2612"
    },
    {
      "channel": 3,
      "note": 72,
      "start": 105.932,
      "duration": 0.0006,
      "velocity": 115,
      "chip": "ym2612"
    },
    {
      "channel": 3,
      "note": 71,
      "start": 105.9326,
      "duration": 0.0166,
      "velocity": 115,
      "chip": "ym2612"
    },
    {
      "channel": 3,
      "note": 69,
      "start": 105.9492,
      "duration": 0.0182,
      "velocity": 115,
      "chip": "ym2612"
    },
    {
      "channel": 3,
      "note": 68,
      "start": 105.9673,
      "duration": 0.0183,
      "velocity": 115,
      "chip": "ym2612"
    },
    {
      "channel": 3,
      "note": 67,
      "start": 105.9856,
      "duration": 0.0179,
      "velocity": 115,
      "chip": "ym2612"
    },
    {
      "channel": 3,
      "note": 66,
      "start": 106.0035,
      "duration": 0.021,
      "velocity": 115,
      "chip": "ym2612"
    },
    {
      "channel": 1,
      "note": 74,
      "start": 106.0237,
      "duration": 0.0891,
      "velocity": 127,
      "chip": "ym2612"
    },
    {
      "channel": 3,
      "note": 65,
      "start": 106.0244,
      "duration": 0.0154,
      "velocity": 115,
      "chip": "ym2612"
    },
    {
      "channel": 3,
      "note": 64,
      "start": 106.0398,
      "duration": 0.0182,
      "velocity": 115,
      "chip": "ym2612"
    },
    {
      "channel": 3,
      "note": 63,
      "start": 106.058,
      "duration": 0.0182,
      "velocity": 115,
      "chip": "ym2612"
    },
    {
      "channel": 3,
      "note": 62,
      "start": 106.0762,
      "duration": 0.0183,
      "velocity": 115,
      "chip": "ym2612"
    },
    {
      "channel": 3,
      "note": 61,
      "start": 106.0944,
      "duration": 0.0197,
      "velocity": 115,
      "chip": "ym2612"
    },
    {
      "channel": 1,
      "note": 74,
      "start": 106.113,
      "duration": 0.0924,
      "velocity": 119,
      "chip": "ym2612"
    },
    {
      "channel": 2,
      "note": 107,
      "start": 106.1135,
      "duration": 0.1831,
      "velocity": 103,
      "chip": "ym2612"
    },
    {
      "channel": 3,
      "note": 60,
      "start": 106.1141,
      "duration": 0.0166,
      "velocity": 115,
      "chip": "ym2612"
    },
    {
      "channel": 3,
      "note": 59,
      "start": 106.1308,
      "duration": 0.0182,
      "velocity": 115,
      "chip": "ym2612"
    },
    {
      "channel": 3,
      "note": 57,
      "start": 106.1489,
      "duration": 0.0184,
      "velocity": 115,
      "chip": "ym2612"
    },
    {
      "channel": 3,
      "note": 56,
      "start": 106.1673,
      "duration": 0.0181,
      "velocity": 115,
      "chip": "ym2612"
    },
    {
      "channel": 3,
      "note": 55,
      "start": 106.1854,
      "duration": 0.0206,
      "velocity": 115,
      "chip": "ym2612"
    },
    {
      "channel": 1,
      "note": 31,
      "start": 106.2055,
      "duration": 0.0905,
      "velocity": 127,
      "chip": "ym2612"
    },
    {
      "channel": 3,
      "note": 72,
      "start": 106.2062,
      "duration": 0.0005,
      "velocity": 115,
      "chip": "ym2612"
    },
    {
      "channel": 3,
      "note": 71,
      "start": 106.2067,
      "duration": 0.0152,
      "velocity": 115,
      "chip": "ym2612"
    },
    {
      "channel": 3,
      "note": 69,
      "start": 106.222,
      "duration": 0.018,
      "velocity": 115,
      "chip": "ym2612"
    },
    {
      "channel": 3,
      "note": 68,
      "start": 106.24,
      "duration": 0.0178,
      "velocity": 115,
      "chip": "ym2612"
    },
    {
      "channel": 3,
      "note": 67,
      "start": 106.2578,
      "duration": 0.0182,
      "velocity": 115,
      "chip": "ym2612"
    },
    {
      "channel": 3,
      "note": 66,
      "start": 106.276,
      "duration": 0.0214,
      "velocity": 115,
      "chip": "ym2612"
    },
    {
      "channel": 1,
      "note": 74,
      "start": 106.2962,
      "duration": 0.0906,
      "velocity": 127,
      "chip": "ym2612"
    },
    {
      "channel": 2,
      "note": 107,
      "start": 106.2968,
      "duration": 0.2723,
      "velocity": 103,
      "chip": "ym2612"
    },
    {
      "channel": 3,
      "note": 65,
      "start": 106.2973,
      "duration": 0.0152,
      "velocity": 115,
      "chip": "ym2612"
    },
    {
      "channel": 3,
      "note": 64,
      "start": 106.3125,
      "duration": 0.018,
      "velocity": 115,
      "chip": "ym2612"
    },
    {
      "channel": 3,
      "note": 63,
      "start": 106.3305,
      "duration": 0.018,
      "velocity": 115,
      "chip": "ym2612"
    },
    {
      "channel": 3,
      "note": 62,
      "start": 106.3485,
      "duration": 0.0182,
      "velocity": 115,
      "chip": "ym2612"
    },
    {
      "channel": 3,
      "note": 61,
      "start": 106.3667,
      "duration": 0.0208,
      "velocity": 115,
      "chip": "ym2612"
    },
    {
      "channel": 1,
      "note": 21,
      "start": 106.387,
      "duration": 0.1816,
      "velocity": 127,
      "chip": "ym2612"
    },
    {
      "channel": 3,
      "note": 69,
      "start": 106.3876,
      "duration": 0.0006,
      "velocity": 115,
      "chip": "ym2612"
    },
    {
      "channel": 3,
      "note": 68,
      "start": 106.3882,
      "duration": 0.0152,
      "velocity": 115,
      "chip": "ym2612"
    },
    {
      "channel": 3,
      "note": 67,
      "start": 106.4034,
      "duration": 0.0181,
      "velocity": 115,
      "chip": "ym2612"
    },
    {
      "channel": 3,
      "note": 66,
      "start": 106.4215,
      "duration": 0.0181,
      "velocity": 115,
      "chip": "ym2612"
    },
    {
      "channel": 3,
      "note": 65,
      "start": 106.4396,
      "duration": 0.0182,
      "velocity": 115,
      "chip": "ym2612"
    },
    {
      "channel": 3,
      "note": 64,
      "start": 106.4578,
      "duration": 0.0361,
      "velocity": 115,
      "chip": "ym2612"
    },
    {
      "channel": 3,
      "note": 63,
      "start": 106.4939,
      "duration": 0.0182,
      "velocity": 115,
      "chip": "ym2612"
    },
    {
      "channel": 3,
      "note": 62,
      "start": 106.5121,
      "duration": 0.0183,
      "velocity": 115,
      "chip": "ym2612"
    },
    {
      "channel": 3,
      "note": 61,
      "start": 106.5303,
      "duration": 0.0183,
      "velocity": 115,
      "chip": "ym2612"
    },
    {
      "channel": 3,
      "note": 60,
      "start": 106.5486,
      "duration": 0.0213,
      "velocity": 115,
      "chip": "ym2612"
    },
    {
      "channel": 1,
      "note": 74,
      "start": 106.5687,
      "duration": 0.0893,
      "velocity": 127,
      "chip": "ym2612"
    },
    {
      "channel": 2,
      "note": 107,
      "start": 106.5693,
      "duration": 0.1814,
      "velocity": 103,
      "chip": "ym2612"
    },
    {
      "channel": 3,
      "note": 58,
      "start": 106.5699,
      "duration": 0.0152,
      "velocity": 115,
      "chip": "ym2612"
    },
    {
      "channel": 3,
      "note": 57,
      "start": 106.5851,
      "duration": 0.0183,
      "velocity": 115,
      "chip": "ym2612"
    },
    {
      "channel": 3,
      "note": 56,
      "start": 106.6034,
      "duration": 0.018,
      "velocity": 115,
      "chip": "ym2612"
    },
    {
      "channel": 3,
      "note": 55,
      "start": 106.6215,
      "duration": 0.0183,
      "velocity": 115,
      "chip": "ym2612"
    },
    {
      "channel": 3,
      "note": 54,
      "start": 106.6397,
      "duration": 0.019,
      "velocity": 115,
      "chip": "ym2612"
    },
    {
      "channel": 1,
      "note": 74,
      "start": 106.6582,
      "duration": 0.0919,
      "velocity": 127,
      "chip": "ym2612"
    },
    {
      "channel": 3,
      "note": 72,
      "start": 106.6589,
      "duration": 0.0006,
      "velocity": 115,
      "chip": "ym2612"
    },
    {
      "channel": 3,
      "note": 71,
      "start": 106.6594,
      "duration": 0.0164,
      "velocity": 115,
      "chip": "ym2612"
    },
    {
      "channel": 3,
      "note": 69,
      "start": 106.6759,
      "duration": 0.0178,
      "velocity": 115,
      "chip": "ym2612"
    },
    {
      "channel": 3,
      "note": 68,
      "start": 106.6937,
      "duration": 0.018,
      "velocity": 115,
      "chip": "ym2612"
    },
    {
      "channel": 3,
      "note": 67,
      "start": 106.7117,
      "duration": 0.0182,
      "velocity": 115,
      "chip": "ym2612"
    },
    {
      "channel": 3,
      "note": 66,
      "start": 106.7298,
      "duration": 0.0216,
      "velocity": 115,
      "chip": "ym2612"
    },
    {
      "channel": 1,
      "note": 21,
      "start": 106.7503,
      "duration": 0.0908,
      "velocity": 127,
      "chip": "ym2612"
    },
    {
      "channel": 2,
      "note": 107,
      "start": 106.7509,
      "duration": 0.1812,
      "velocity": 103,
      "chip": "ym2612"
    },
    {
      "channel": 3,
      "note": 65,
      "start": 106.7514,
      "duration": 0.0151,
      "velocity": 115,
      "chip": "ym2612"
    },
    {
      "channel": 3,
      "note": 64,
      "start": 106.7666,
      "duration": 0.018,
      "velocity": 115,
      "chip": "ym2612"
    },
    {
      "channel": 3,
      "note": 63,
      "start": 106.7846,
      "duration": 0.0182,
      "velocity": 115,
      "chip": "ym2612"
    },
    {
      "channel": 3,
      "note": 62,
      "start": 106.8027,
      "duration": 0.0183,
      "velocity": 115,
      "chip": "ym2612"
    },
    {
      "channel": 3,
      "note": 61,
      "start": 106.821,
      "duration": 0.0209,
      "velocity": 115,
      "chip": "ym2612"
    },
    {
      "channel": 1,
      "note": 74,
      "start": 106.8412,
      "duration": 0.0903,
      "velocity": 119,
      "chip": "ym2612"
    },
    {
      "channel": 3,
      "note": 60,
      "start": 106.8419,
      "duration": 0.0156,
      "velocity": 115,
      "chip": "ym2612"
    },
    {
      "channel": 3,
      "note": 59,
      "start": 106.8575,
      "duration": 0.018,
      "velocity": 115,
      "chip": "ym2612"
    },
    {
      "channel": 3,
      "note": 57,
      "start": 106.8756,
      "duration": 0.018,
      "velocity": 115,
      "chip": "ym2612"
    },
    {
      "channel": 3,
      "note": 56,
      "start": 106.8936,
      "duration": 0.018,
      "velocity": 115,
      "chip": "ym2612"
    },
    {
      "channel": 3,
      "note": 55,
      "start": 106.9115,
      "duration": 0.0211,
      "velocity": 115,
      "chip": "ym2612"
    },
    {
      "channel": 1,
      "note": 31,
      "start": 106.9317,
      "duration": 0.0908,
      "velocity": 127,
      "chip": "ym2612"
    },
    {
      "channel": 2,
      "note": 107,
      "start": 106.9323,
      "duration": 0.0908,
      "velocity": 103,
      "chip": "ym2612"
    },
    {
      "channel": 3,
      "note": 76,
      "start": 106.9328,
      "duration": 0.0006,
      "velocity": 115,
      "chip": "ym2612"
    },
    {
      "channel": 3,
      "note": 75,
      "start": 106.9334,
      "duration": 0.0147,
      "velocity": 115,
      "chip": "ym2612"
    },
    {
      "channel": 3,
      "note": 74,
      "start": 106.9481,
      "duration": 0.0181,
      "velocity": 115,
      "chip": "ym2612"
    },
    {
      "channel": 3,
      "note": 73,
      "start": 106.9662,
      "duration": 0.0182,
      "velocity": 115,
      "chip": "ym2612"
    },
    {
      "channel": 3,
      "note": 72,
      "start": 106.9844,
      "duration": 0.0181,
      "velocity": 115,
      "chip": "ym2612"
    },
    {
      "channel": 3,
      "note": 70,
      "start": 107.0024,
      "duration": 0.0212,
      "velocity": 115,
      "chip": "ym2612"
    },
    {
      "channel": 1,
      "note": 74,
      "start": 107.0227,
      "duration": 0.0891,
      "velocity": 127,
      "chip": "ym2612"
    },
    {
      "channel": 2,
      "note": 107,
      "start": 107.0232,
      "duration": 0.0891,
      "velocity": 103,
      "chip": "ym2612"
    },
    {
      "channel": 3,
      "note": 76,
      "start": 107.0239,
      "duration": 0.0005,
      "velocity": 115,
      "chip": "ym2612"
    },
    {
      "channel": 3,
      "note": 75,
      "start": 107.0244,
      "duration": 0.0145,
      "velocity": 115,
      "chip": "ym2612"
    },
    {
      "channel": 3,
      "note": 74,
      "start": 107.0389,
      "duration": 0.018,
      "velocity": 115,
      "chip": "ym2612"
    },
    {
      "channel": 3,
      "note": 73,
      "start": 107.0569,
      "duration": 0.0182,
      "velocity": 115,
      "chip": "ym2612"
    },
    {
      "channel": 3,
      "note": 72,
      "start": 107.0751,
      "duration": 0.0181,
      "velocity": 115,
      "chip": "ym2612"
    },
    {
      "channel": 3,
      "note": 70,
      "start": 107.0932,
      "duration": 0.0198,
      "velocity": 115,
      "chip": "ym2612"
    },
    {
      "channel": 1,
      "note": 74,
      "start": 107.1119,
      "duration": 0.09,
      "velocity": 127,
      "chip": "ym2612"
    },
    {
      "channel": 2,
      "note": 107,
      "start": 107.1125,
      "duration": 0.1832,
      "velocity": 103,
      "chip": "ym2612"
    },
    {
      "channel": 3,
      "note": 69,
      "start": 107.1131,
      "duration": 0.0009,
      "velocity": 115,
      "chip": "ym2612"
    },
    {
      "channel": 3,
      "note": 68,
      "start": 107.114,
      "duration": 0.0155,
      "velocity": 115,
      "chip": "ym2612"
    },
    {
      "channel": 3,
      "note": 67,
      "start": 107.1295,
      "duration": 0.018,
      "velocity": 115,
      "chip": "ym2612"
    },
    {
      "channel": 3,
      "note": 66,
      "start": 107.1475,
      "duration": 0.0179,
      "velocity": 115,
      "chip": "ym2612"
    },
    {
      "channel": 3,
      "note": 65,
      "start": 107.1654,
      "duration": 0.018,
      "velocity": 115,
      "chip": "ym2612"
    },
    {
      "channel": 3,
      "note": 64,
      "start": 107.1834,
      "duration": 0.0194,
      "velocity": 115,
      "chip": "ym2612"
    },
    {
      "channel": 1,
      "note": 74,
      "start": 107.2021,
      "duration": 0.0929,
      "velocity": 127,
      "chip": "ym2612"
    },
    {
      "channel": 3,
      "note": 63,
      "start": 107.2028,
      "duration": 0.0168,
      "velocity": 115,
      "chip": "ym2612"
    },
    {
      "channel": 3,
      "note": 62,
      "start": 107.2196,
      "duration": 0.0182,
      "velocity": 115,
      "chip": "ym2612"
    },
    {
      "channel": 3,
      "note": 61,
      "start": 107.2378,
      "duration": 0.0182,
      "velocity": 115,
      "chip": "ym2612"
    },
    {
      "channel": 3,
      "note": 60,
      "start": 107.2559,
      "duration": 0.0182,
      "velocity": 115,
      "chip": "ym2612"
    },
    {
      "channel": 3,
      "note": 58,
      "start": 107.2741,
      "duration": 0.0237,
      "velocity": 1,
      "chip": "ym2612"
    },
    {
      "channel": 0,
      "note": 57,
      "start": 107.2931,
      "duration": 0.1809,
      "velocity": 89,
      "chip": "ym2612"
    },
    {
      "channel": 1,
      "note": 21,
      "start": 107.2952,
      "duration": 0.181,
      "velocity": 127,
      "chip": "ym2612"
    },
    {
      "channel": 2,
      "note": 107,
      "start": 107.2959,
      "duration": 0.088,
      "velocity": 103,
      "chip": "ym2612"
    },
    {
      "channel": 3,
      "note": 79,
      "start": 107.298,
      "duration": 1.5365,
      "velocity": 115,
      "chip": "ym2612"
    },
    {
      "channel": 2,
      "note": 107,
      "start": 107.384,
      "duration": 0.1816,
      "velocity": 103,
      "chip": "ym2612"
    },
    {
      "channel": 0,
      "note": 57,
      "start": 107.4742,
      "duration": 0.362,
      "velocity": 89,
      "chip": "ym2612"
    },
    {
      "channel": 1,
      "note": 74,
      "start": 107.4763,
      "duration": 0.0887,
      "velocity": 127,
      "chip": "ym2612"
    },
    {
      "channel": 1,
      "note": 74,
      "start": 107.5651,
      "duration": 0.0918,
      "velocity": 119,
      "chip": "ym2612"
    },
    {
      "channel": 2,
      "note": 107,
      "start": 107.5657,
      "duration": 0.1822,
      "velocity": 103,
      "chip": "ym2612"
    },
    {
      "channel": 1,
      "note": 31,
      "start": 107.6571,
      "duration": 0.0903,
      "velocity": 127,
      "chip": "ym2612"
    },
    {
      "channel": 1,
      "note": 74,
      "start": 107.7475,
      "duration": 0.0894,
      "velocity": 127,
      "chip": "ym2612"
    },
    {
      "channel": 2,
      "note": 107,
      "start": 107.7481,
      "duration": 0.2695,
      "velocity": 103,
      "chip": "ym2612"
    },
    {
      "channel": 0,
      "note": 55,
      "start": 107.8365,
      "duration": 2.3555,
      "velocity": 89,
      "chip": "ym2612"
    },
    {
      "channel": 1,
      "note": 74,
      "start": 107.837,
      "duration": 0.18,
      "velocity": 127,
      "chip": "ym2612"
    },
    {
      "channel": 1,
      "note": 74,
      "start": 108.0172,
      "duration": 0.0904,
      "velocity": 127,
      "chip": "ym2612"
    },
    {
      "channel": 2,
      "note": 107,
      "start": 108.0178,
      "duration": 0.1824,
      "velocity": 103,
      "chip": "ym2612"
    },
    {
      "channel": 1,
      "note": 74,
      "start": 108.1078,
      "duration": 0.0919,
      "velocity": 127,
      "chip": "ym2612"
    },
    {
      "channel": 1,
      "note": 21,
      "start": 108.1998,
      "duration": 0.0907,
      "velocity": 127,
      "chip": "ym2612"
    },
    {
      "channel": 2,
      "note": 107,
      "start": 108.2004,
      "duration": 0.1812,
      "velocity": 103,
      "chip": "ym2612"
    },
    {
      "channel": 1,
      "note": 74,
      "start": 108.2906,
      "duration": 0.0904,
      "velocity": 119,
      "chip": "ym2612"
    },
    {
      "channel": 1,
      "note": 31,
      "start": 108.3812,
      "duration": 0.1806,
      "velocity": 127,
      "chip": "ym2612"
    },
    {
      "channel": 2,
      "note": 107,
      "start": 108.3817,
      "duration": 0.088,
      "velocity": 103,
      "chip": "ym2612"
    },
    {
      "channel": 2,
      "note": 107,
      "start": 108.4699,
      "duration": 0.0923,
      "velocity": 103,
      "chip": "ym2612"
    },
    {
      "channel": 1,
      "note": 74,
      "start": 108.5619,
      "duration": 0.0889,
      "velocity": 127,
      "chip": "ym2612"
    },
    {
      "channel": 2,
      "note": 107,
      "start": 108.5625,
      "duration": 0.1812,
      "velocity": 103,
      "chip": "ym2612"
    },
    {
      "channel": 1,
      "note": 74,
      "start": 108.651,
      "duration": 0.0922,
      "velocity": 127,
      "chip": "ym2612"
    },
    {
      "channel": 1,
      "note": 21,
      "start": 108.7433,
      "duration": 0.181,
      "velocity": 127,
      "chip": "ym2612"
    },
    {
      "channel": 2,
      "note": 107,
      "start": 108.7439,
      "duration": 0.0884,
      "velocity": 103,
      "chip": "ym2612"
    },
    {
      "channel": 2,
      "note": 107,
      "start": 108.8324,
      "duration": 0.1818,
      "velocity": 103,
      "chip": "ym2612"
    },
    {
      "channel": 3,
      "note": 72,
      "start": 108.8346,
      "duration": 0.0006,
      "velocity": 115,
      "chip": "ym2612"
    },
    {
      "channel": 3,
      "note": 71,
      "start": 108.8352,
      "duration": 0.0152,
      "velocity": 115,
      "chip": "ym2612"
    },
    {
      "channel": 3,
      "note": 69,
      "start": 108.8504,
      "duration": 0.0181,
      "velocity": 115,
      "chip": "ym2612"
    },
    {
      "channel": 3,
      "note": 68,
      "start": 108.8685,
      "duration": 0.0181,
      "velocity": 115,
      "chip": "ym2612"
    },
    {
      "channel": 3,
      "note": 67,
      "start": 108.8867,
      "duration": 0.0179,
      "velocity": 115,
      "chip": "ym2612"
    },
    {
      "channel": 3,
      "note": 66,
      "start": 108.9046,
      "duration": 0.0206,
      "velocity": 115,
      "chip": "ym2612"
    },
    {
      "channel": 1,
      "note": 74,
      "start": 108.9245,
      "duration": 0.0893,
      "velocity": 127,
      "chip": "ym2612"
    },
    {
      "channel": 3,
      "note": 65,
      "start": 108.9252,
      "duration": 0.0154,
      "velocity": 115,
      "chip": "ym2612"
    },
    {
      "channel": 3,
      "note": 64,
      "start": 108.9406,
      "duration": 0.0181,
      "velocity": 115,
      "chip": "ym2612"
    },
    {
      "channel": 3,
      "note": 63,
      "start": 108.9587,
      "duration": 0.0182,
      "velocity": 115,
      "chip": "ym2612"
    },
    {
      "channel": 3,
      "note": 62,
      "start": 108.9769,
      "duration": 0.0183,
      "velocity": 115,
      "chip": "ym2612"
    },
    {
      "channel": 3,
      "note": 61,
      "start": 108.9952,
      "duration": 0.0199,
      "velocity": 115,
      "chip": "ym2612"
    },
    {
      "channel": 1,
      "note": 74,
      "start": 109.0139,
      "duration": 0.0917,
      "velocity": 119,
      "chip": "ym2612"
    },
    {
      "channel": 2,
      "note": 107,
      "start": 109.0144,
      "duration": 0.1823,
      "velocity": 103,
      "chip": "ym2612"
    },
    {
      "channel": 3,
      "note": 60,
      "start": 109.0151,
      "duration": 0.0163,
      "velocity": 115,
      "chip": "ym2612"
    },
    {
      "channel": 3,
      "note": 59,
      "start": 109.0314,
      "duration": 0.018,
      "velocity": 115,
      "chip": "ym2612"
    },
    {
      "channel": 3,
      "note": 57,
      "start": 109.0494,
      "duration": 0.0179,
      "velocity": 115,
      "chip": "ym2612"
    },
    {
      "channel": 3,
      "note": 56,
      "start": 109.0673,
      "duration": 0.0182,
      "velocity": 115,
      "chip": "ym2612"
    },
    {
      "channel": 3,
      "note": 55,
      "start": 109.0855,
      "duration": 0.0207,
      "velocity": 115,
      "chip": "ym2612"
    },
    {
      "channel": 1,
      "note": 31,
      "start": 109.1057,
      "duration": 0.0905,
      "velocity": 127,
      "chip": "ym2612"
    },
    {
      "channel": 3,
      "note": 72,
      "start": 109.1063,
      "duration": 0.0006,
      "velocity": 115,
      "chip": "ym2612"
    },
    {
      "channel": 3,
      "note": 71,
      "start": 109.1069,
      "duration": 0.0152,
      "velocity": 115,
      "chip": "ym2612"
    },
    {
      "channel": 3,
      "note": 69,
      "start": 109.1221,
      "duration": 0.018,
      "velocity": 115,
      "chip": "ym2612"
    },
    {
      "channel": 3,
      "note": 68,
      "start": 109.1401,
      "duration": 0.0178,
      "velocity": 115,
      "chip": "ym2612"
    },
    {
      "channel": 3,
      "note": 67,
      "start": 109.1579,
      "duration": 0.0181,
      "velocity": 115,
      "chip": "ym2612"
    },
    {
      "channel": 3,
      "note": 66,
      "start": 109.176,
      "duration": 0.0215,
      "velocity": 115,
      "chip": "ym2612"
    },
    {
      "channel": 1,
      "note": 74,
      "start": 109.1963,
      "duration": 0.0907,
      "velocity": 127,
      "chip": "ym2612"
    },
    {
      "channel": 2,
      "note": 107,
      "start": 109.1969,
      "duration": 0.2708,
      "velocity": 103,
      "chip": "ym2612"
    },
    {
      "channel": 3,
      "note": 65,
      "start": 109.1975,
      "duration": 0.015,
      "velocity": 115,
      "chip": "ym2612"
    },
    {
      "channel": 3,
      "note": 64,
      "start": 109.2125,
      "duration": 0.0181,
      "velocity": 115,
      "chip": "ym2612"
    },
    {
      "channel": 3,
      "note": 63,
      "start": 109.2306,
      "duration": 0.018,
      "velocity": 115,
      "chip": "ym2612"
    },
    {
      "channel": 3,
      "note": 62,
      "start": 109.2486,
      "duration": 0.0182,
      "velocity": 115,
      "chip": "ym2612"
    },
    {
      "channel": 3,
      "note": 61,
      "start": 109.2668,
      "duration": 0.0211,
      "velocity": 115,
      "chip": "ym2612"
    },
    {
      "channel": 1,
      "note": 21,
      "start": 109.2872,
      "duration": 0.0909,
      "velocity": 127,
      "chip": "ym2612"
    },
    {
      "channel": 3,
      "note": 60,
      "start": 109.2879,
      "duration": 0.0157,
      "velocity": 115,
      "chip": "ym2612"
    },
    {
      "channel": 3,
      "note": 59,
      "start": 109.3036,
      "duration": 0.0181,
      "velocity": 115,
      "chip": "ym2612"
    },
    {
      "channel": 3,
      "note": 57,
      "start": 109.3217,
      "duration": 0.0183,
      "velocity": 115,
      "chip": "ym2612"
    },
    {
      "channel": 3,
      "note": 56,
      "start": 109.34,
      "duration": 0.018,
      "velocity": 115,
      "chip": "ym2612"
    },
    {
      "channel": 3,
      "note": 55,
      "start": 109.358,
      "duration": 0.0209,
      "velocity": 115,
      "chip": "ym2612"
    },
    {
      "channel": 1,
      "note": 74,
      "start": 109.3782,
      "duration": 0.089,
      "velocity": 127,
      "chip": "ym2612"
    },
    {
      "channel": 3,
      "note": 54,
      "start": 109.3789,
      "duration": 0.0155,
      "velocity": 115,
      "chip": "ym2612"
    },
    {
      "channel": 3,
      "note": 53,
      "start": 109.3943,
      "duration": 0.0183,
      "velocity": 115,
      "chip": "ym2612"
    },
    {
      "channel": 3,
      "note": 52,
      "start": 109.4126,
      "duration": 0.0181,
      "velocity": 115,
      "chip": "ym2612"
    },
    {
      "channel": 3,
      "note": 51,
      "start": 109.4307,
      "duration": 0.0181,
      "velocity": 115,
      "chip": "ym2612"
    },
    {
      "channel": 3,
      "note": 50,
      "start": 109.4488,
      "duration": 0.0194,
      "velocity": 115,
      "chip": "ym2612"
    },
    {
      "channel": 1,
      "note": 74,
      "start": 109.4673,
      "duration": 0.1827,
      "velocity": 127,
      "chip": "ym2612"
    },
    {
      "channel": 2,
      "note": 107,
      "start": 109.4679,
      "duration": 0.1826,
      "velocity": 103,
      "chip": "ym2612"
    },
    {
      "channel": 3,
      "note": 76,
      "start": 109.4685,
      "duration": 0.0006,
      "velocity": 115,
      "chip": "ym2612"
    },
    {
      "channel": 3,
      "note": 75,
      "start": 109.469,
      "duration": 0.0163,
      "velocity": 115,
      "chip": "ym2612"
    },
    {
      "channel": 3,
      "note": 74,
      "start": 109.4853,
      "duration": 0.018,
      "velocity": 115,
      "chip": "ym2612"
    },
    {
      "channel": 3,
      "note": 73,
      "start": 109.5034,
      "duration": 0.0183,
      "velocity": 115,
      "chip": "ym2612"
    },
    {
      "channel": 3,
      "note": 72,
      "start": 109.5216,
      "duration": 0.0181,
      "velocity": 115,
      "chip": "ym2612"
    },
    {
      "channel": 3,
      "note": 70,
      "start": 109.5398,
      "duration": 0.0186,
      "velocity": 115,
      "chip": "ym2612"
    },
    {
      "channel": 3,
      "note": 76,
      "start": 109.5585,
      "duration": 0.0006,
      "velocity": 115,
      "chip": "ym2612"
    },
    {
      "channel": 3,
      "note": 75,
      "start": 109.5591,
      "duration": 0.017,
      "velocity": 115,
      "chip": "ym2612"
    },
    {
      "channel": 3,
      "note": 74,
      "start": 109.5761,
      "duration": 0.0181,
      "velocity": 115,
      "chip": "ym2612"
    },
    {
      "channel": 3,
      "note": 73,
      "start": 109.5942,
      "duration": 0.018,
      "velocity": 115,
      "chip": "ym2612"
    },
    {
      "channel": 3,
      "note": 72,
      "start": 109.6122,
      "duration": 0.0178,
      "velocity": 115,
      "chip": "ym2612"
    },
    {
      "channel": 3,
      "note": 70,
      "start": 109.63,
      "duration": 0.021,
      "velocity": 115,
      "chip": "ym2612"
    },
    {
      "channel": 1,
      "note": 21,
      "start": 109.6501,
      "duration": 0.1815,
      "velocity": 119,
      "chip": "ym2612"
    },
    {
      "channel": 2,
      "note": 107,
      "start": 109.6507,
      "duration": 0.1815,
      "velocity": 103,
      "chip": "ym2612"
    },
    {
      "channel": 3,
      "note": 76,
      "start": 109.6512,
      "duration": 0.0009,
      "velocity": 115,
      "chip": "ym2612"
    },
    {
      "channel": 3,
      "note": 75,
      "start": 109.6521,
      "duration": 0.0144,
      "velocity": 115,
      "chip": "ym2612"
    },
    {
      "channel": 3,
      "note": 74,
      "start": 109.6665,
      "duration": 0.018,
      "velocity": 115,
      "chip": "ym2612"
    },
    {
      "channel": 3,
      "note": 73,
      "start": 109.6845,
      "duration": 0.0182,
      "velocity": 115,
      "chip": "ym2612"
    },
    {
      "channel": 3,
      "note": 72,
      "start": 109.7027,
      "duration": 0.0181,
      "velocity": 115,
      "chip": "ym2612"
    },
    {
      "channel": 3,
      "note": 70,
      "start": 109.7209,
      "duration": 0.0363,
      "velocity": 115,
      "chip": "ym2612"
    },
    {
      "channel": 3,
      "note": 69,
      "start": 109.7572,
      "duration": 0.0182,
      "velocity": 115,
      "chip": "ym2612"
    },
    {
      "channel": 3,
      "note": 68,
      "start": 109.7754,
      "duration": 0.0181,
      "velocity": 115,
      "chip": "ym2612"
    },
    {
      "channel": 3,
      "note": 67,
      "start": 109.7935,
      "duration": 0.0181,
      "velocity": 115,
      "chip": "ym2612"
    },
    {
      "channel": 3,
      "note": 66,
      "start": 109.8116,
      "duration": 0.0211,
      "velocity": 115,
      "chip": "ym2612"
    },
    {
      "channel": 1,
      "note": 31,
      "start": 109.8318,
      "duration": 0.0905,
      "velocity": 127,
      "chip": "ym2612"
    },
    {
      "channel": 2,
      "note": 107,
      "start": 109.8324,
      "duration": 0.0905,
      "velocity": 103,
      "chip": "ym2612"
    },
    {
      "channel": 3,
      "note": 71,
      "start": 109.833,
      "duration": 0.0006,
      "velocity": 115,
      "chip": "ym2612"
    },
    {
      "channel": 3,
      "note": 70,
      "start": 109.8335,
      "duration": 0.0147,
      "velocity": 115,
      "chip": "ym2612"
    },
    {
      "channel": 3,
      "note": 68,
      "start": 109.8482,
      "duration": 0.0182,
      "velocity": 115,
      "chip": "ym2612"
    },
    {
      "channel": 3,
      "note": 67,
      "start": 109.8664,
      "duration": 0.0182,
      "velocity": 115,
      "chip": "ym2612"
    },
    {
      "channel": 3,
      "note": 66,
      "start": 109.8846,
      "duration": 0.018,
      "velocity": 115,
      "chip": "ym2612"
    },
    {
      "channel": 3,
      "note": 66,
      "start": 109.9025,
      "duration": 0.0211,
      "velocity": 115,
      "chip": "ym2612"
    },
    {
      "channel": 1,
      "note": 74,
      "start": 109.9225,
      "duration": 0.0888,
      "velocity": 127,
      "chip": "ym2612"
    },
    {
      "channel": 2,
      "note": 107,
      "start": 109.9231,
      "duration": 0.0888,
      "velocity": 103,
      "chip": "ym2612"
    },
    {
      "channel": 3,
      "note": 65,
      "start": 109.9236,
      "duration": 0.0151,
      "velocity": 115,
      "chip": "ym2612"
    },
    {
      "channel": 3,
      "note": 64,
      "start": 109.9388,
      "duration": 0.0182,
      "velocity": 115,
      "chip": "ym2612"
    },
    {
      "channel": 3,
      "note": 63,
      "start": 109.9569,
      "duration": 0.0178,
      "velocity": 115,
      "chip": "ym2612"
    },
    {
      "channel": 3,
      "note": 61,
      "start": 109.9748,
      "duration": 0.0181,
      "velocity": 115,
      "chip": "ym2612"
    },
    {
      "channel": 3,
      "note": 60,
      "start": 109.9929,
      "duration": 0.0197,
      "velocity": 115,
      "chip": "ym2612"
    },
    {
      "channel": 1,
      "note": 74,
      "start": 110.0115,
      "duration": 0.0903,
      "velocity": 127,
      "chip": "ym2612"
    },
    {
      "channel": 2,
      "note": 107,
      "start": 110.012,
      "duration": 0.1827,
      "velocity": 103,
      "chip": "ym2612"
    },
    {
      "channel": 3,
      "note": 59,
      "start": 110.0126,
      "duration": 0.0167,
      "velocity": 115,
      "chip": "ym2612"
    },
    {
      "channel": 3,
      "note": 58,
      "start": 110.0293,
      "duration": 0.0181,
      "velocity": 115,
      "chip": "ym2612"
    },
    {
      "channel": 3,
      "note": 56,
      "start": 110.0474,
      "duration": 0.0181,
      "velocity": 115,
      "chip": "ym2612"
    },
    {
      "channel": 3,
      "note": 55,
      "start": 110.0655,
      "duration": 0.018,
      "velocity": 115,
      "chip": "ym2612"
    },
    {
      "channel": 3,
      "note": 54,
      "start": 110.0834,
      "duration": 0.0191,
      "velocity": 115,
      "chip": "ym2612"
    },
    {
      "channel": 1,
      "note": 74,
      "start": 110.1019,
      "duration": 0.0922,
      "velocity": 127,
      "chip": "ym2612"
    },
    {
      "channel": 3,
      "note": 54,
      "start": 110.1026,
      "duration": 0.0169,
      "velocity": 115,
      "chip": "ym2612"
    },
    {
      "channel": 3,
      "note": 53,
      "start": 110.1195,
      "duration": 0.018,
      "velocity": 115,
      "chip": "ym2612"
    },
    {
      "channel": 3,
      "note": 52,
      "start": 110.1374,
      "duration": 0.018,
      "velocity": 115,
      "chip": "ym2612"
    },
    {
      "channel": 3,
      "note": 51,
      "start": 110.1554,
      "duration": 0.0181,
      "velocity": 115,
      "chip": "ym2612"
    },
    {
      "channel": 3,
      "note": 50,
      "start": 110.1736,
      "duration": 0.0219,
      "velocity": 115,
      "chip": "ym2612"
    },
    {
      "channel": 0,
      "note": 57,
      "start": 110.1922,
      "duration": 0.1816,
      "velocity": 89,
      "chip": "ym2612"
    },
    {
      "channel": 1,
      "note": 21,
      "start": 110.1943,
      "duration": 0.1815,
      "velocity": 127,
      "chip": "ym2612"
    },
    {
      "channel": 2,
      "note": 107,
      "start": 110.1948,
      "duration": 0.0882,
      "velocity": 103,
      "chip": "ym2612"
    },
    {
      "channel": 3,
      "note": 48,
      "start": 110.1955,
      "duration": 0.0147,
      "velocity": 115,
      "chip": "ym2612"
    },
    {
      "channel": 3,
      "note": 47,
      "start": 110.2101,
      "duration": 0.0182,
      "velocity": 115,
      "chip": "ym2612"
    },
    {
      "channel": 3,
      "note": 46,
      "start": 110.2283,
      "duration": 0.0182,
      "velocity": 115,
      "chip": "ym2612"
    },
    {
      "channel": 3,
      "note": 44,
      "start": 110.2465,
      "duration": 0.0182,
      "velocity": 115,
      "chip": "ym2612"
    },
    {
      "channel": 3,
      "note": 43,
      "start": 110.2646,
      "duration": 0.0191,
      "velocity": 115,
      "chip": "ym2612"
    },
    {
      "channel": 2,
      "note": 107,
      "start": 110.2832,
      "duration": 0.1823,
      "velocity": 103,
      "chip": "ym2612"
    },
    {
      "channel": 3,
      "note": 42,
      "start": 110.2838,
      "duration": 0.017,
      "velocity": 115,
      "chip": "ym2612"
    },
    {
      "channel": 3,
      "note": 42,
      "start": 110.3008,
      "duration": 0.0182,
      "velocity": 115,
      "chip": "ym2612"
    },
    {
      "channel": 3,
      "note": 41,
      "start": 110.319,
      "duration": 0.0181,
      "velocity": 115,
      "chip": "ym2612"
    },
    {
      "channel": 3,
      "note": 40,
      "start": 110.3372,
      "duration": 0.0181,
      "velocity": 115,
      "chip": "ym2612"
    },
    {
      "channel": 3,
      "note": 39,
      "start": 110.3553,
      "duration": 0.0214,
      "velocity": 115,
      "chip": "ym2612"
    },
    {
      "channel": 0,
      "note": 57,
      "start": 110.3739,
      "duration": 0.3637,
      "velocity": 89,
      "chip": "ym2612"
    },
    {
      "channel": 1,
      "note": 74,
      "start": 110.376,
      "duration": 0.0889,
      "velocity": 127,
      "chip": "ym2612"
    },
    {
      "channel": 3,
      "note": 38,
      "start": 110.3767,
      "duration": 0.0152,
      "velocity": 115,
      "chip": "ym2612"
    },
    {
      "channel": 3,
      "note": 36,
      "start": 110.3919,
      "duration": 0.0181,
      "velocity": 115,
      "chip": "ym2612"
    },
    {
      "channel": 3,
      "note": 35,
      "start": 110.41,
      "duration": 0.0183,
      "velocity": 115,
      "chip": "ym2612"
    },
    {
      "channel": 3,
      "note": 34,
      "start": 110.4283,
      "duration": 0.0182,
      "velocity": 115,
      "chip": "ym2612"
    },
    {
      "channel": 3,
      "note": 32,
      "start": 110.4464,
      "duration": 0.0198,
      "velocity": 115,
      "chip": "ym2612"
    },
    {
      "channel": 1,
      "note": 74,
      "start": 110.4651,
      "duration": 0.0922,
      "velocity": 119,
      "chip": "ym2612"
    },
    {
      "channel": 2,
      "note": 107,
      "start": 110.4657,
      "duration": 0.1829,
      "velocity": 103,
      "chip": "ym2612"
    },
    {
      "channel": 3,
      "note": 31,
      "start": 110.4662,
      "duration": 0.0166,
      "velocity": 115,
      "chip": "ym2612"
    },
    {
      "channel": 3,
      "note": 30,
      "start": 110.4829,
      "duration": 0.0181,
      "velocity": 115,
      "chip": "ym2612"
    },
    {
      "channel": 3,
      "note": 30,
      "start": 110.501,
      "duration": 0.0183,
      "velocity": 115,
      "chip": "ym2612"
    },
    {
      "channel": 3,
      "note": 29,
      "start": 110.5193,
      "duration": 0.018,
      "velocity": 115,
      "chip": "ym2612"
    },
    {
      "channel": 3,
      "note": 28,
      "start": 110.5373,
      "duration": 0.0208,
      "velocity": 115,
      "chip": "ym2612"
    },
    {
      "channel": 1,
      "note": 31,
      "start": 110.5574,
      "duration": 0.0907,
      "velocity": 127,
      "chip": "ym2612"
    },
    {
      "channel": 3,
      "note": 27,
      "start": 110.5581,
      "duration": 0.0157,
      "velocity": 115,
      "chip": "ym2612"
    },
    {
      "channel": 3,
      "note": 26,
      "start": 110.5737,
      "duration": 0.0182,
      "velocity": 115,
      "chip": "ym2612"
    },
    {
      "channel": 3,
      "note": 24,
      "start": 110.592,
      "duration": 0.0181,
      "velocity": 115,
      "chip": "ym2612"
    },
    {
      "channel": 3,
      "note": 23,
      "start": 110.6101,
      "duration": 0.018,
      "velocity": 115,
      "chip": "ym2612"
    },
    {
      "channel": 3,
      "note": 22,
      "start": 110.628,
      "duration": 0.0214,
      "velocity": 115,
      "chip": "ym2612"
    },
    {
      "channel": 1,
      "note": 74,
      "start": 110.6482,
      "duration": 0.0898,
      "velocity": 127,
      "chip": "ym2612"
    },
    {
      "channel": 2,
      "note": 107,
      "start": 110.6488,
      "duration": 0.2701,
      "velocity": 103,
      "chip": "ym2612"
    },
    {
      "channel": 3,
      "note": 20,
      "start": 110.6494,
      "duration": 0.0152,
      "velocity": 115,
      "chip": "ym2612"
    },
    {
      "channel": 3,
      "note": 115,
      "start": 110.6646,
      "duration": 0.0182,
      "velocity": 115,
      "chip": "ym2612"
    },
    {
      "channel": 3,
      "note": 114,
      "start": 110.6828,
      "duration": 0.0182,
      "velocity": 115,
      "chip": "ym2612"
    },
    {
      "channel": 3,
      "note": 114,
      "start": 110.701,
      "duration": 0.0182,
      "velocity": 115,
      "chip": "ym2612"
    },
    {
      "channel": 3,
      "note": 113,
      "start": 110.7192,
      "duration": 0.0197,
      "velocity": 115,
      "chip": "ym2612"
    },
    {
      "channel": 0,
      "note": 55,
      "start": 110.7376,
      "duration": 2.3601,
      "velocity": 89,
      "chip": "ym2612"
    },
    {
      "channel": 1,
      "note": 74,
      "start": 110.7382,
      "duration": 0.1801,
      "velocity": 127,
      "chip": "ym2612"
    },
    {
      "channel": 3,
      "note": 112,
      "start": 110.7388,
      "duration": 0.0168,
      "velocity": 115,
      "chip": "ym2612"
    },
    {
      "channel": 3,
      "note": 111,
      "start": 110.7556,
      "duration": 0.0181,
      "velocity": 115,
      "chip": "ym2612"
    },
    {
      "channel": 3,
      "note": 110,
      "start": 110.7737,
      "duration": 0.018,
      "velocity": 115,
      "chip": "ym2612"
    },
    {
      "channel": 3,
      "note": 108,
      "start": 110.7917,
      "duration": 0.0178,
      "velocity": 115,
      "chip": "ym2612"
    },
    {
      "channel": 3,
      "note": 107,
      "start": 110.8095,
      "duration": 0.0362,
      "velocity": 115,
      "chip": "ym2612"
    },
    {
      "channel": 3,
      "note": 106,
      "start": 110.8458,
      "duration": 0.0179,
      "velocity": 115,
      "chip": "ym2612"
    },
    {
      "channel": 3,
      "note": 104,
      "start": 110.8637,
      "duration": 0.018,
      "velocity": 115,
      "chip": "ym2612"
    },
    {
      "channel": 3,
      "note": 103,
      "start": 110.8817,
      "duration": 0.0181,
      "velocity": 115,
      "chip": "ym2612"
    },
    {
      "channel": 3,
      "note": 103,
      "start": 110.8998,
      "duration": 0.0202,
      "velocity": 115,
      "chip": "ym2612"
    },
    {
      "channel": 1,
      "note": 74,
      "start": 110.9185,
      "duration": 0.0905,
      "velocity": 127,
      "chip": "ym2612"
    },
    {
      "channel": 2,
      "note": 107,
      "start": 110.919,
      "duration": 0.1826,
      "velocity": 103,
      "chip": "ym2612"
    },
    {
      "channel": 3,
      "note": 102,
      "start": 110.92,
      "duration": 0.0164,
      "velocity": 115,
      "chip": "ym2612"
    },
    {
      "channel": 3,
      "note": 101,
      "start": 110.9364,
      "duration": 0.0179,
      "velocity": 115,
      "chip": "ym2612"
    },
    {
      "channel": 3,
      "note": 100,
      "start": 110.9543,
      "duration": 0.018,
      "velocity": 115,
      "chip": "ym2612"
    },
    {
      "channel": 3,
      "note": 99,
      "start": 110.9722,
      "duration": 0.0182,
      "velocity": 115,
      "chip": "ym2612"
    },
    {
      "channel": 3,
      "note": 98,
      "start": 110.9904,
      "duration": 0.0194,
      "velocity": 115,
      "chip": "ym2612"
    },
    {
      "channel": 1,
      "note": 74,
      "start": 111.0091,
      "duration": 0.0919,
      "velocity": 127,
      "chip": "ym2612"
    },
    {
      "channel": 3,
      "note": 96,
      "start": 111.0098,
      "duration": 0.017,
      "velocity": 115,
      "chip": "ym2612"
    },
    {
      "channel": 3,
      "note": 95,
      "start": 111.0268,
      "duration": 0.018,
      "velocity": 115,
      "chip": "ym2612"
    },
    {
      "channel": 3,
      "note": 94,
      "start": 111.0448,
      "duration": 0.0182,
      "velocity": 115,
      "chip": "ym2612"
    },
    {
      "channel": 3,
      "note": 92,
      "start": 111.0631,
      "duration": 0.0181,
      "velocity": 115,
      "chip": "ym2612"
    },
    {
      "channel": 3,
      "note": 91,
      "start": 111.0812,
      "duration": 0.0212,
      "velocity": 115,
      "chip": "ym2612"
    },
    {
      "channel": 1,
      "note": 21,
      "start": 111.1012,
      "duration": 0.091,
      "velocity": 127,
      "chip": "ym2612"
    },
    {
      "channel": 2,
      "note": 107,
      "start": 111.1017,
      "duration": 0.1814,
      "velocity": 103,
      "chip": "ym2612"
    },
    {
      "channel": 3,
      "note": 91,
      "start": 111.1024,
      "duration": 0.0152,
      "velocity": 115,
      "chip": "ym2612"
    },
    {
      "channel": 3,
      "note": 90,
      "start": 111.1176,
      "duration": 0.0182,
      "velocity": 115,
      "chip": "ym2612"
    },
    {
      "channel": 3,
      "note": 89,
      "start": 111.1358,
      "duration": 0.0182,
      "velocity": 115,
      "chip": "ym2612"
    },
    {
      "channel": 3,
      "note": 88,
      "start": 111.1539,
      "duration": 0.0182,
      "velocity": 115,
      "chip": "ym2612"
    },
    {
      "channel": 3,
      "note": 87,
      "start": 111.1721,
      "duration": 0.0209,
      "velocity": 115,
      "chip": "ym2612"
    },
    {
      "channel": 1,
      "note": 74,
      "start": 111.1923,
      "duration": 0.0903,
      "velocity": 119,
      "chip": "ym2612"
    },
    {
      "channel": 3,
      "note": 86,
      "start": 111.193,
      "duration": 0.0157,
      "velocity": 115,
      "chip": "ym2612"
    },
    {
      "channel": 3,
      "note": 84,
      "start": 111.2087,
      "duration": 0.0182,
      "velocity": 115,
      "chip": "ym2612"
    },
    {
      "channel": 3,
      "note": 83,
      "start": 111.2269,
      "duration": 0.018,
      "velocity": 115,
      "chip": "ym2612"
    },
    {
      "channel": 3,
      "note": 82,
      "start": 111.2449,
      "duration": 0.018,
      "velocity": 115,
      "chip": "ym2612"
    },
    {
      "channel": 3,
      "note": 80,
      "start": 111.2629,
      "duration": 0.021,
      "velocity": 115,
      "chip": "ym2612"
    },
    {
      "channel": 1,
      "note": 31,
      "start": 111.2827,
      "duration": 0.1816,
      "velocity": 127,
      "chip": "ym2612"
    },
    {
      "channel": 2,
      "note": 107,
      "start": 111.2833,
      "duration": 0.0888,
      "velocity": 103,
      "chip": "ym2612"
    },
    {
      "channel": 3,
      "note": 79,
      "start": 111.284,
      "duration": 0.0151,
      "velocity": 115,
      "chip": "ym2612"
    },
    {
      "channel": 3,
      "note": 79,
      "start": 111.2991,
      "duration": 0.0183,
      "velocity": 115,
      "chip": "ym2612"
    },
    {
      "channel": 3,
      "note": 78,
      "start": 111.3175,
      "duration": 0.0181,
      "velocity": 115,
      "chip": "ym2612"
    },
    {
      "channel": 3,
      "note": 77,
      "start": 111.3356,
      "duration": 0.018,
      "velocity": 115,
      "chip": "ym2612"
    },
    {
      "channel": 3,
      "note": 76,
      "start": 111.3536,
      "duration": 0.0193,
      "velocity": 115,
      "chip": "ym2612"
    },
    {
      "channel": 2,
      "note": 107,
      "start": 111.3723,
      "duration": 0.0925,
      "velocity": 103,
      "chip": "ym2612"
    },
    {
      "channel": 3,
      "note": 75,
      "start": 111.3729,
      "duration": 0.017,
      "velocity": 115,
      "chip": "ym2612"
    },
    {
      "channel": 3,
      "note": 74,
      "start": 111.3899,
      "duration": 0.0181,
      "velocity": 115,
      "chip": "ym2612"
    },
    {
      "channel": 3,
      "note": 72,
      "start": 111.408,
      "duration": 0.018,
      "velocity": 115,
      "chip": "ym2612"
    },
    {
      "channel": 3,
      "note": 71,
      "start": 111.4259,
      "duration": 0.0182,
      "velocity": 115,
      "chip": "ym2612"
    },
    {
      "channel": 3,
      "note": 70,
      "start": 111.4441,
      "duration": 0.0215,
      "velocity": 115,
      "chip": "ym2612"
    },
    {
      "channel": 1,
      "note": 74,
      "start": 111.4645,
      "duration": 0.089,
      "velocity": 127,
      "chip": "ym2612"
    },
    {
      "channel": 2,
      "note": 107,
      "start": 111.4651,
      "duration": 0.1816,
      "velocity": 103,
      "chip": "ym2612"
    },
    {
      "channel": 3,
      "note": 68,
      "start": 111.4656,
      "duration": 0.0153,
      "velocity": 115,
      "chip": "ym2612"
    },
    {
      "channel": 3,
      "note": 67,
      "start": 111.4809,
      "duration": 0.0181,
      "velocity": 115,
      "chip": "ym2612"
    },
    {
      "channel": 3,
      "note": 67,
      "start": 111.499,
      "duration": 0.0183,
      "velocity": 115,
      "chip": "ym2612"
    },
    {
      "channel": 3,
      "note": 66,
      "start": 111.5172,
      "duration": 0.0178,
      "velocity": 115,
      "chip": "ym2612"
    },
    {
      "channel": 3,
      "note": 65,
      "start": 111.5351,
      "duration": 0.0192,
      "velocity": 115,
      "chip": "ym2612"
    },
    {
      "channel": 1,
      "note": 74,
      "start": 111.5537,
      "duration": 0.0925,
      "velocity": 127,
      "chip": "ym2612"
    },
    {
      "channel": 3,
      "note": 64,
      "start": 111.5543,
      "duration": 0.0171,
      "velocity": 115,
      "chip": "ym2612"
    },
    {
      "channel": 3,
      "note": 63,
      "start": 111.5714,
      "duration": 0.0181,
      "velocity": 115,
      "chip": "ym2612"
    },
    {
      "channel": 3,
      "note": 62,
      "start": 111.5895,
      "duration": 0.0183,
      "velocity": 115,
      "chip": "ym2612"
    },
    {
      "channel": 3,
      "note": 60,
      "start": 111.6078,
      "duration": 0.0182,
      "velocity": 115,
      "chip": "ym2612"
    },
    {
      "channel": 3,
      "note": 59,
      "start": 111.626,
      "duration": 0.0217,
      "velocity": 115,
      "chip": "ym2612"
    },
    {
      "channel": 1,
      "note": 21,
      "start": 111.6463,
      "duration": 0.1813,
      "velocity": 127,
      "chip": "ym2612"
    },
    {
      "channel": 2,
      "note": 107,
      "start": 111.6469,
      "duration": 0.0884,
      "velocity": 103,
      "chip": "ym2612"
    },
    {
      "channel": 3,
      "note": 58,
      "start": 111.6478,
      "duration": 0.0148,
      "velocity": 115,
      "chip": "ym2612"
    },
    {
      "channel": 3,
      "note": 56,
      "start": 111.6625,
      "duration": 0.0182,
      "velocity": 115,
      "chip": "ym2612"
    },
    {
      "channel": 3,
      "note": 55,
      "start": 111.6808,
      "duration": 0.0179,
      "velocity": 115,
      "chip": "ym2612"
    },
    {
      "channel": 3,
      "note": 55,
      "start": 111.6987,
      "duration": 0.0181,
      "velocity": 115,
      "chip": "ym2612"
    },
    {
      "channel": 3,
      "note": 54,
      "start": 111.7168,
      "duration": 0.0191,
      "velocity": 115,
      "chip": "ym2612"
    },
    {
      "channel": 2,
      "note": 107,
      "start": 111.7355,
      "duration": 0.1819,
      "velocity": 103,
      "chip": "ym2612"
    },
    {
      "channel": 3,
      "note": 72,
      "start": 111.7361,
      "duration": 0.0006,
      "velocity": 115,
      "chip": "ym2612"
    },
    {
      "channel": 3,
      "note": 71,
      "start": 111.7366,
      "duration": 0.0166,
      "velocity": 115,
      "chip": "ym2612"
    },
    {
      "channel": 3,
      "note": 69,
      "start": 111.7532,
      "duration": 0.0182,
      "velocity": 115,
      "chip": "ym2612"
    },
    {
      "channel": 3,
      "note": 68,
      "start": 111.7714,
      "duration": 0.0183,
      "velocity": 115,
      "chip": "ym2612"
    },
    {
      "channel": 3,
      "note": 67,
      "start": 111.7896,
      "duration": 0.0179,
      "velocity": 115,
      "chip": "ym2612"
    },
    {
      "channel": 3,
      "note": 66,
      "start": 111.8075,
      "duration": 0.021,
      "velocity": 115,
      "chip": "ym2612"
    },
    {
      "channel": 1,
      "note": 74,
      "start": 111.8277,
      "duration": 0.0891,
      "velocity": 127,
      "chip": "ym2612"
    },
    {
      "channel": 3,
      "note": 65,
      "start": 111.8284,
      "duration": 0.0154,
      "velocity": 115,
      "chip": "ym2612"
    },
    {
      "channel": 3,
      "note": 64,
      "start": 111.8438,
      "duration": 0.0182,
      "velocity": 115,
      "chip": "ym2612"
    },
    {
      "channel": 3,
      "note": 63,
      "start": 111.862,
      "duration": 0.0182,
      "velocity": 115,
      "chip": "ym2612"
    },
    {
      "channel": 3,
      "note": 62,
      "start": 111.8802,
      "duration": 0.0183,
      "velocity": 115,
      "chip": "ym2612"
    },
    {
      "channel": 3,
      "note": 61,
      "start": 111.8984,
      "duration": 0.0197,
      "velocity": 115,
      "chip": "ym2612"
    },
    {
      "channel": 1,
      "note": 74,
      "start": 111.917,
      "duration": 0.0924,
      "velocity": 119,
      "chip": "ym2612"
    },
    {
      "channel": 2,
      "note": 107,
      "start": 111.9175,
      "duration": 0.1831,
      "velocity": 103,
      "chip": "ym2612"
    },
    {
      "channel": 3,
      "note": 60,
      "start": 111.9181,
      "duration": 0.0166,
      "velocity": 115,
      "chip": "ym2612"
    },
    {
      "channel": 3,
      "note": 59,
      "start": 111.9348,
      "duration": 0.0182,
      "velocity": 115,
      "chip": "ym2612"
    },
    {
      "channel": 3,
      "note": 57,
      "start": 111.9529,
      "duration": 0.0184,
      "velocity": 115,
      "chip": "ym2612"
    },
    {
      "channel": 3,
      "note": 56,
      "start": 111.9713,
      "duration": 0.0181,
      "velocity": 115,
      "chip": "ym2612"
    },
    {
      "channel": 3,
      "note": 55,
      "start": 111.9894,
      "duration": 0.0206,
      "velocity": 115,
      "chip": "ym2612"
    },
    {
      "channel": 1,
      "note": 31,
      "start": 112.0095,
      "duration": 0.0905,
      "velocity": 127,
      "chip": "ym2612"
    },
    {
      "channel": 3,
      "note": 72,
      "start": 112.0102,
      "duration": 0.0005,
      "velocity": 115,
      "chip": "ym2612"
    },
    {
      "channel": 3,
      "note": 71,
      "start": 112.0107,
      "duration": 0.0152,
      "velocity": 115,
      "chip": "ym2612"
    },
    {
      "channel": 3,
      "note": 69,
      "start": 112.026,
      "duration": 0.0179,
      "velocity": 115,
      "chip": "ym2612"
    },
    {
      "channel": 3,
      "note": 68,
      "start": 112.0439,
      "duration": 0.0178,
      "velocity": 115,
      "chip": "ym2612"
    },
    {
      "channel": 3,
      "note": 67,
      "start": 112.0618,
      "duration": 0.0182,
      "velocity": 115,
      "chip": "ym2612"
    },
    {
      "channel": 3,
      "note": 66,
      "start": 112.0799,
      "duration": 0.0215,
      "velocity": 115,
      "chip": "ym2612"
    },
    {
      "channel": 1,
      "note": 74,
      "start": 112.1002,
      "duration": 0.0909,
      "velocity": 127,
      "chip": "ym2612"
    },
    {
      "channel": 2,
      "note": 107,
      "start": 112.1008,
      "duration": 0.2722,
      "velocity": 103,
      "chip": "ym2612"
    },
    {
      "channel": 3,
      "note": 65,
      "start": 112.1014,
      "duration": 0.0152,
      "velocity": 115,
      "chip": "ym2612"
    },
    {
      "channel": 3,
      "note": 64,
      "start": 112.1166,
      "duration": 0.018,
      "velocity": 115,
      "chip": "ym2612"
    },
    {
      "channel": 3,
      "note": 63,
      "start": 112.1346,
      "duration": 0.0181,
      "velocity": 115,
      "chip": "ym2612"
    },
    {
      "channel": 3,
      "note": 62,
      "start": 112.1527,
      "duration": 0.0182,
      "velocity": 115,
      "chip": "ym2612"
    },
    {
      "channel": 3,
      "note": 61,
      "start": 112.1709,
      "duration": 0.0208,
      "velocity": 115,
      "chip": "ym2612"
    },
    {
      "channel": 1,
      "note": 21,
      "start": 112.1912,
      "duration": 0.1813,
      "velocity": 127,
      "chip": "ym2612"
    },
    {
      "channel": 3,
      "note": 69,
      "start": 112.1918,
      "duration": 0.0006,
      "velocity": 115,
      "chip": "ym2612"
    },
    {
      "channel": 3,
      "note": 68,
      "start": 112.1924,
      "duration": 0.015,
      "velocity": 115,
      "chip": "ym2612"
    },
    {
      "channel": 3,
      "note": 67,
      "start": 112.2074,
      "duration": 0.018,
      "velocity": 115,
      "chip": "ym2612"
    },
    {
      "channel": 3,
      "note": 66,
      "start": 112.2254,
      "duration": 0.0182,
      "velocity": 115,
      "chip": "ym2612"
    },
    {
      "channel": 3,
      "note": 65,
      "start": 112.2436,
      "duration": 0.0182,
      "velocity": 115,
      "chip": "ym2612"
    },
    {
      "channel": 3,
      "note": 64,
      "start": 112.2618,
      "duration": 0.0361,
      "velocity": 115,
      "chip": "ym2612"
    },
    {
      "channel": 3,
      "note": 63,
      "start": 112.298,
      "duration": 0.0181,
      "velocity": 115,
      "chip": "ym2612"
    },
    {
      "channel": 3,
      "note": 62,
      "start": 112.3161,
      "duration": 0.0182,
      "velocity": 115,
      "chip": "ym2612"
    },
    {
      "channel": 3,
      "note": 61,
      "start": 112.3343,
      "duration": 0.0181,
      "velocity": 115,
      "chip": "ym2612"
    },
    {
      "channel": 3,
      "note": 60,
      "start": 112.3524,
      "duration": 0.0214,
      "velocity": 115,
      "chip": "ym2612"
    },
    {
      "channel": 1,
      "note": 74,
      "start": 112.3727,
      "duration": 0.089,
      "velocity": 127,
      "chip": "ym2612"
    },
    {
      "channel": 2,
      "note": 107,
      "start": 112.3733,
      "duration": 0.1815,
      "velocity": 103,
      "chip": "ym2612"
    },
    {
      "channel": 3,
      "note": 58,
      "start": 112.3738,
      "duration": 0.0153,
      "velocity": 115,
      "chip": "ym2612"
    },
    {
      "channel": 3,
      "note": 57,
      "start": 112.3891,
      "duration": 0.0178,
      "velocity": 115,
      "chip": "ym2612"
    },
    {
      "channel": 3,
      "note": 56,
      "start": 112.4069,
      "duration": 0.0182,
      "velocity": 115,
      "chip": "ym2612"
    },
    {
      "channel": 3,
      "note": 55,
      "start": 112.4251,
      "duration": 0.0181,
      "velocity": 115,
      "chip": "ym2612"
    },
    {
      "channel": 3,
      "note": 54,
      "start": 112.4432,
      "duration": 0.0191,
      "velocity": 115,
      "chip": "ym2612"
    },
    {
      "channel": 1,
      "note": 74,
      "start": 112.4618,
      "duration": 0.0923,
      "velocity": 127,
      "chip": "ym2612"
    },
    {
      "channel": 3,
      "note": 72,
      "start": 112.4625,
      "duration": 0.0005,
      "velocity": 115,
      "chip": "ym2612"
    },
    {
      "channel": 3,
      "note": 71,
      "start": 112.463,
      "duration": 0.0166,
      "velocity": 115,
      "chip": "ym2612"
    },
    {
      "channel": 3,
      "note": 69,
      "start": 112.4797,
      "duration": 0.0182,
      "velocity": 115,
      "chip": "ym2612"
    },
    {
      "channel": 3,
      "note": 68,
      "start": 112.4979,
      "duration": 0.018,
      "velocity": 115,
      "chip": "ym2612"
    },
    {
      "channel": 3,
      "note": 67,
      "start": 112.5158,
      "duration": 0.0182,
      "velocity": 115,
      "chip": "ym2612"
    },
    {
      "channel": 3,
      "note": 66,
      "start": 112.5341,
      "duration": 0.0214,
      "velocity": 115,
      "chip": "ym2612"
    },
    {
      "channel": 1,
      "note": 21,
      "start": 112.5543,
      "duration": 0.0902,
      "velocity": 127,
      "chip": "ym2612"
    },
    {
      "channel": 2,
      "note": 107,
      "start": 112.5549,
      "duration": 0.1811,
      "velocity": 103,
      "chip": "ym2612"
    },
    {
      "channel": 3,
      "note": 65,
      "start": 112.5555,
      "duration": 0.0151,
      "velocity": 115,
      "chip": "ym2612"
    },
    {
      "channel": 3,
      "note": 64,
      "start": 112.5706,
      "duration": 0.0182,
      "velocity": 115,
      "chip": "ym2612"
    },
    {
      "channel": 3,
      "note": 63,
      "start": 112.5888,
      "duration": 0.0179,
      "velocity": 115,
      "chip": "ym2612"
    },
    {
      "channel": 3,
      "note": 62,
      "start": 112.6067,
      "duration": 0.0178,
      "velocity": 115,
      "chip": "ym2612"
    },
    {
      "channel": 3,
      "note": 61,
      "start": 112.6246,
      "duration": 0.0208,
      "velocity": 115,
      "chip": "ym2612"
    },
    {
      "channel": 1,
      "note": 74,
      "start": 112.6447,
      "duration": 0.0908,
      "velocity": 119,
      "chip": "ym2612"
    },
    {
      "channel": 3,
      "note": 60,
      "start": 112.6454,
      "duration": 0.0155,
      "velocity": 115,
      "chip": "ym2612"
    },
    {
      "channel": 3,
      "note": 59,
      "start": 112.6609,
      "duration": 0.0182,
      "velocity": 115,
      "chip": "ym2612"
    },
    {
      "channel": 3,
      "note": 57,
      "start": 112.679,
      "duration": 0.0182,
      "velocity": 115,
      "chip": "ym2612"
    },
    {
      "channel": 3,
      "note": 56,
      "start": 112.6972,
      "duration": 0.0183,
      "velocity": 115,
      "chip": "ym2612"
    },
    {
      "channel": 3,
      "note": 55,
      "start": 112.7155,
      "duration": 0.0212,
      "velocity": 115,
      "chip": "ym2612"
    },
    {
      "channel": 1,
      "note": 31,
      "start": 112.7356,
      "duration": 0.0912,
      "velocity": 127,
      "chip": "ym2612"
    },
    {
      "channel": 2,
      "note": 107,
      "start": 112.7362,
      "duration": 0.0912,
      "velocity": 103,
      "chip": "ym2612"
    },
    {
      "channel": 3,
      "note": 76,
      "start": 112.7368,
      "duration": 0.0006,
      "velocity": 115,
      "chip": "ym2612"
    },
    {
      "channel": 3,
      "note": 75,
      "start": 112.7373,
      "duration": 0.0147,
      "velocity": 115,
      "chip": "ym2612"
    },
    {
      "channel": 3,
      "note": 74,
      "start": 112.7521,
      "duration": 0.0181,
      "velocity": 115,
      "chip": "ym2612"
    },
    {
      "channel": 3,
      "note": 73,
      "start": 112.7702,
      "duration": 0.0183,
      "velocity": 115,
      "chip": "ym2612"
    },
    {
      "channel": 3,
      "note": 72,
      "start": 112.7885,
      "duration": 0.0182,
      "velocity": 115,
      "chip": "ym2612"
    },
    {
      "channel": 3,
      "note": 70,
      "start": 112.8067,
      "duration": 0.0213,
      "velocity": 115,
      "chip": "ym2612"
    },
    {
      "channel": 1,
      "note": 74,
      "start": 112.827,
      "duration": 0.0886,
      "velocity": 127,
      "chip": "ym2612"
    },
    {
      "channel": 2,
      "note": 107,
      "start": 112.8276,
      "duration": 0.0886,
      "velocity": 103,
      "chip": "ym2612"
    },
    {
      "channel": 3,
      "note": 76,
      "start": 112.8281,
      "duration": 0.0006,
      "velocity": 115,
      "chip": "ym2612"
    },
    {
      "channel": 3,
      "note": 75,
      "start": 112.8287,
      "duration": 0.0145,
      "velocity": 115,
      "chip": "ym2612"
    },
    {
      "channel": 3,
      "note": 74,
      "start": 112.8432,
      "duration": 0.0179,
      "velocity": 115,
      "chip": "ym2612"
    },
    {
      "channel": 3,
      "note": 73,
      "start": 112.8611,
      "duration": 0.0182,
      "velocity": 115,
      "chip": "ym2612"
    },
    {
      "channel": 3,
      "note": 72,
      "start": 112.8793,
      "duration": 0.018,
      "velocity": 115,
      "chip": "ym2612"
    },
    {
      "channel": 3,
      "note": 70,
      "start": 112.8973,
      "duration": 0.0195,
      "velocity": 115,
      "chip": "ym2612"
    },
    {
      "channel": 1,
      "note": 74,
      "start": 112.9158,
      "duration": 0.0908,
      "velocity": 127,
      "chip": "ym2612"
    },
    {
      "channel": 2,
      "note": 107,
      "start": 112.9163,
      "duration": 0.1856,
      "velocity": 127,
      "chip": "ym2612"
    },
    {
      "channel": 3,
      "note": 69,
      "start": 112.917,
      "duration": 0.0008,
      "velocity": 115,
      "chip": "ym2612"
    },
    {
      "channel": 3,
      "note": 68,
      "start": 112.9178,
      "duration": 0.0158,
      "velocity": 115,
      "chip": "ym2612"
    },
    {
      "channel": 3,
      "note": 67,
      "start": 112.9336,
      "duration": 0.0182,
      "velocity": 115,
      "chip": "ym2612"
    },
    {
      "channel": 3,
      "note": 66,
      "start": 112.9518,
      "duration": 0.0182,
      "velocity": 115,
      "chip": "ym2612"
    },
    {
      "channel": 3,
      "note": 65,
      "start": 112.97,
      "duration": 0.0181,
      "velocity": 115,
      "chip": "ym2612"
    },
    {
      "channel": 3,
      "note": 64,
      "start": 112.9882,
      "duration": 0.0193,
      "velocity": 115,
      "chip": "ym2612"
    },
    {
      "channel": 1,
      "note": 74,
      "start": 113.0068,
      "duration": 0.0931,
      "velocity": 127,
      "chip": "ym2612"
    },
    {
      "channel": 3,
      "note": 63,
      "start": 113.0075,
      "duration": 0.0171,
      "velocity": 115,
      "chip": "ym2612"
    },
    {
      "channel": 3,
      "note": 62,
      "start": 113.0246,
      "duration": 0.0182,
      "velocity": 115,
      "chip": "ym2612"
    },
    {
      "channel": 3,
      "note": 61,
      "start": 113.0428,
      "duration": 0.0181,
      "velocity": 115,
      "chip": "ym2612"
    },
    {
      "channel": 3,
      "note": 60,
      "start": 113.061,
      "duration": 0.018,
      "velocity": 115,
      "chip": "ym2612"
    },
    {
      "channel": 3,
      "note": 58,
      "start": 113.0789,
      "duration": 0.0252,
      "velocity": 1,
      "chip": "ym2612"
    },
    {
      "channel": 0,
      "note": 60,
      "start": 113.0979,
      "duration": 0.1808,
      "velocity": 89,
      "chip": "ym2612"
    },
    {
      "channel": 1,
      "note": 21,
      "start": 113.1,
      "duration": 0.1793,
      "velocity": 127,
      "chip": "ym2612"
    },
    {
      "channel": 2,
      "note": 86,
      "start": 113.1022,
      "duration": 0.1777,
      "velocity": 127,
      "chip": "ym2612"
    },
    {
      "channel": 3,
      "note": 79,
      "start": 113.1043,
      "duration": 1.5341,
      "velocity": 115,
      "chip": "ym2612"
    },
    {
      "channel": 0,
      "note": 60,
      "start": 113.2789,
      "duration": 0.3613,
      "velocity": 89,
      "chip": "ym2612"
    },
    {
      "channel": 1,
      "note": 21,
      "start": 113.2795,
      "duration": 0.1818,
      "velocity": 119,
      "chip": "ym2612"
    },
    {
      "channel": 2,
      "note": 86,
      "start": 113.28,
      "duration": 0.1817,
      "velocity": 127,
      "chip": "ym2612"
    },
    {
      "channel": 1,
      "note": 40,
      "start": 113.4614,
      "duration": 0.2701,
      "velocity": 119,
      "chip": "ym2612"
    },
    {
      "channel": 2,
      "note": 86,
      "start": 113.462,
      "duration": 0.1789,
      "velocity": 127,
      "chip": "ym2612"
    },
    {
      "channel": 0,
      "note": 55,
      "start": 113.6405,
      "duration": 0.0905,
      "velocity": 89,
      "chip": "ym2612"
    },
    {
      "channel": 2,
      "note": 86,
      "start": 113.6411,
      "duration": 0.1822,
      "velocity": 127,
      "chip": "ym2612"
    },
    {
      "channel": 0,
      "note": 58,
      "start": 113.7311,
      "duration": 0.1809,
      "velocity": 89,
      "chip": "ym2612"
    },
    {
      "channel": 1,
      "note": 40,
      "start": 113.7317,
      "duration": 0.091,
      "velocity": 127,
      "chip": "ym2612"
    },
    {
      "channel": 1,
      "note": 21,
      "start": 113.8229,
      "duration": 0.0912,
      "velocity": 119,
      "chip": "ym2612"
    },
    {
      "channel": 2,
      "note": 86,
      "start": 113.8234,
      "duration": 0.1819,
      "velocity": 127,
      "chip": "ym2612"
    },
    {
      "channel": 0,
      "note": 55,
      "start": 113.9122,
      "duration": 0.0904,
      "velocity": 89,
      "chip": "ym2612"
    },
    {
      "channel": 1,
      "note": 40,
      "start": 113.9143,
      "duration": 0.0904,
      "velocity": 127,
      "chip": "ym2612"
    },
    {
      "channel": 0,
      "note": 58,
      "start": 114.0028,
      "duration": 0.1806,
      "velocity": 89,
      "chip": "ym2612"
    },
    {
      "channel": 1,
      "note": 21,
      "start": 114.0049,
      "duration": 0.1807,
      "velocity": 119,
      "chip": "ym2612"
    },
    {
      "channel": 2,
      "note": 86,
      "start": 114.0054,
      "duration": 0.1806,
      "velocity": 127,
      "chip": "ym2612"
    },
    {
      "channel": 0,
      "note": 51,
      "start": 114.1836,
      "duration": 0.181,
      "velocity": 89,
      "chip": "ym2612"
    },
    {
      "channel": 1,
      "note": 40,
      "start": 114.1857,
      "duration": 0.3619,
      "velocity": 127,
      "chip": "ym2612"
    },
    {
      "channel": 2,
      "note": 86,
      "start": 114.1862,
      "duration": 0.1789,
      "velocity": 127,
      "chip": "ym2612"
    },
    {
      "channel": 0,
      "note": 53,
      "start": 114.3647,
      "duration": 0.3629,
      "velocity": 89,
      "chip": "ym2612"
    },
    {
      "channel": 2,
      "note": 86,
      "start": 114.3653,
      "duration": 0.0897,
      "velocity": 127,
      "chip": "ym2612"
    },
    {
      "channel": 2,
      "note": 86,
      "start": 114.4552,
      "duration": 0.0929,
      "velocity": 127,
      "chip": "ym2612"
    },
    {
      "channel": 1,
      "note": 21,
      "start": 114.5477,
      "duration": 0.1805,
      "velocity": 127,
      "chip": "ym2612"
    },
    {
      "channel": 2,
      "note": 86,
      "start": 114.5483,
      "duration": 0.1805,
      "velocity": 127,
      "chip": "ym2612"
    },
    {
      "channel": 3,
      "note": 72,
      "start": 114.6387,
      "duration": 0.0006,
      "velocity": 115,
      "chip": "ym2612"
    },
    {
      "channel": 3,
      "note": 71,
      "start": 114.6393,
      "duration": 0.0155,
      "velocity": 115,
      "chip": "ym2612"
    },
    {
      "channel": 3,
      "note": 69,
      "start": 114.6548,
      "duration": 0.0181,
      "velocity": 115,
      "chip": "ym2612"
    },
    {
      "channel": 3,
      "note": 68,
      "start": 114.6729,
      "duration": 0.0182,
      "velocity": 115,
      "chip": "ym2612"
    },
    {
      "channel": 3,
      "note": 67,
      "start": 114.6911,
      "duration": 0.0181,
      "velocity": 115,
      "chip": "ym2612"
    },
    {
      "channel": 3,
      "note": 66,
      "start": 114.7092,
      "duration": 0.0203,
      "velocity": 115,
      "chip": "ym2612"
    },
    {
      "channel": 0,
      "note": 48,
      "start": 114.7278,
      "duration": 0.1807,
      "velocity": 89,
      "chip": "ym2612"
    },
    {
      "channel": 1,
      "note": 21,
      "start": 114.7284,
      "duration": 0.1822,
      "velocity": 119,
      "chip": "ym2612"
    },
    {
      "channel": 2,
      "note": 86,
      "start": 114.729,
      "duration": 0.1823,
      "velocity": 127,
      "chip": "ym2612"
    },
    {
      "channel": 3,
      "note": 65,
      "start": 114.7295,
      "duration": 0.0161,
      "velocity": 115,
      "chip": "ym2612"
    },
    {
      "channel": 3,
      "note": 64,
      "start": 114.7457,
      "duration": 0.0181,
      "velocity": 115,
      "chip": "ym2612"
    },
    {
      "channel": 3,
      "note": 63,
      "start": 114.7637,
      "duration": 0.018,
      "velocity": 115,
      "chip": "ym2612"
    },
    {
      "channel": 3,
      "note": 62,
      "start": 114.7818,
      "duration": 0.0182,
      "velocity": 115,
      "chip": "ym2612"
    },
    {
      "channel": 3,
      "note": 61,
      "start": 114.8,
      "duration": 0.0359,
      "velocity": 115,
      "chip": "ym2612"
    },
    {
      "channel": 3,
      "note": 60,
      "start": 114.8359,
      "duration": 0.018,
      "velocity": 115,
      "chip": "ym2612"
    },
    {
      "channel": 3,
      "note": 59,
      "start": 114.8539,
      "duration": 0.018,
      "velocity": 115,
      "chip": "ym2612"
    },
    {
      "channel": 3,
      "note": 57,
      "start": 114.872,
      "duration": 0.0181,
      "velocity": 115,
      "chip": "ym2612"
    },
    {
      "channel": 3,
      "note": 56,
      "start": 114.8901,
      "duration": 0.0217,
      "velocity": 115,
      "chip": "ym2612"
    },
    {
      "channel": 0,
      "note": 60,
      "start": 114.9087,
      "duration": 0.271,
      "velocity": 89,
      "chip": "ym2612"
    },
    {
      "channel": 1,
      "note": 40,
      "start": 114.9108,
      "duration": 0.2695,
      "velocity": 119,
      "chip": "ym2612"
    },
    {
      "channel": 2,
      "note": 86,
      "start": 114.9114,
      "duration": 0.1776,
      "velocity": 127,
      "chip": "ym2612"
    },
    {
      "channel": 3,
      "note": 72,
      "start": 114.912,
      "duration": 0.0006,
      "velocity": 115,
      "chip": "ym2612"
    },
    {
      "channel": 3,
      "note": 71,
      "start": 114.9126,
      "duration": 0.0142,
      "velocity": 115,
      "chip": "ym2612"
    },
    {
      "channel": 3,
      "note": 69,
      "start": 114.9267,
      "duration": 0.0181,
      "velocity": 115,
      "chip": "ym2612"
    },
    {
      "channel": 3,
      "note": 68,
      "start": 114.9448,
      "duration": 0.0181,
      "velocity": 115,
      "chip": "ym2612"
    },
    {
      "channel": 3,
      "note": 67,
      "start": 114.9629,
      "duration": 0.0179,
      "velocity": 115,
      "chip": "ym2612"
    },
    {
      "channel": 3,
      "note": 66,
      "start": 114.9809,
      "duration": 0.0359,
      "velocity": 115,
      "chip": "ym2612"
    },
    {
      "channel": 3,
      "note": 65,
      "start": 115.0168,
      "duration": 0.018,
      "velocity": 115,
      "chip": "ym2612"
    },
    {
      "channel": 3,
      "note": 64,
      "start": 115.0348,
      "duration": 0.0179,
      "velocity": 115,
      "chip": "ym2612"
    },
    {
      "channel": 3,
      "note": 63,
      "start": 115.0526,
      "duration": 0.0179,
      "velocity": 115,
      "chip": "ym2612"
    },
    {
      "channel": 3,
      "note": 62,
      "start": 115.0705,
      "duration": 0.0193,
      "velocity": 115,
      "chip": "ym2612"
    },
    {
      "channel": 2,
      "note": 86,
      "start": 115.0892,
      "duration": 0.1817,
      "velocity": 127,
      "chip": "ym2612"
    },
    {
      "channel": 3,
      "note": 61,
      "start": 115.0898,
      "duration": 0.0169,
      "velocity": 115,
      "chip": "ym2612"
    },
    {
      "channel": 3,
      "note": 60,
      "start": 115.1067,
      "duration": 0.0182,
      "velocity": 115,
      "chip": "ym2612"
    },
    {
      "channel": 3,
      "note": 59,
      "start": 115.1249,
      "duration": 0.0182,
      "velocity": 115,
      "chip": "ym2612"
    },
    {
      "channel": 3,
      "note": 57,
      "start": 115.1431,
      "duration": 0.0182,
      "velocity": 115,
      "chip": "ym2612"
    },
    {
      "channel": 3,
      "note": 56,
      "start": 115.1613,
      "duration": 0.0198,
      "velocity": 115,
      "chip": "ym2612"
    },
    {
      "channel": 0,
      "note": 55,
      "start": 115.1799,
      "duration": 0.0903,
      "velocity": 89,
      "chip": "ym2612"
    },
    {
      "channel": 1,
      "note": 40,
      "start": 115.1805,
      "duration": 0.181,
      "velocity": 119,
      "chip": "ym2612"
    },
    {
      "channel": 3,
      "note": 55,
      "start": 115.1812,
      "duration": 0.0166,
      "velocity": 115,
      "chip": "ym2612"
    },
    {
      "channel": 3,
      "note": 54,
      "start": 115.1977,
      "duration": 0.0182,
      "velocity": 115,
      "chip": "ym2612"
    },
    {
      "channel": 3,
      "note": 53,
      "start": 115.2159,
      "duration": 0.0182,
      "velocity": 115,
      "chip": "ym2612"
    },
    {
      "channel": 3,
      "note": 52,
      "start": 115.2341,
      "duration": 0.0179,
      "velocity": 115,
      "chip": "ym2612"
    },
    {
      "channel": 3,
      "note": 51,
      "start": 115.252,
      "duration": 0.0194,
      "velocity": 115,
      "chip": "ym2612"
    },
    {
      "channel": 0,
      "note": 58,
      "start": 115.2704,
      "duration": 0.0905,
      "velocity": 89,
      "chip": "ym2612"
    },
    {
      "channel": 2,
      "note": 86,
      "start": 115.271,
      "duration": 0.1836,
      "velocity": 127,
      "chip": "ym2612"
    },
    {
      "channel": 3,
      "note": 76,
      "start": 115.2716,
      "duration": 0.0005,
      "velocity": 115,
      "chip": "ym2612"
    },
    {
      "channel": 3,
      "note": 75,
      "start": 115.2721,
      "duration": 0.0162,
      "velocity": 115,
      "chip": "ym2612"
    },
    {
      "channel": 3,
      "note": 74,
      "start": 115.2883,
      "duration": 0.0182,
      "velocity": 115,
      "chip": "ym2612"
    },
    {
      "channel": 3,
      "note": 73,
      "start": 115.3065,
      "duration": 0.0182,
      "velocity": 115,
      "chip": "ym2612"
    },
    {
      "channel": 3,
      "note": 72,
      "start": 115.3247,
      "duration": 0.0182,
      "velocity": 115,
      "chip": "ym2612"
    },
    {
      "channel": 3,
      "note": 70,
      "start": 115.3429,
      "duration": 0.0193,
      "velocity": 115,
      "chip": "ym2612"
    },
    {
      "channel": 0,
      "note": 55,
      "start": 115.361,
      "duration": 0.0909,
      "velocity": 89,
      "chip": "ym2612"
    },
    {
      "channel": 1,
      "note": 40,
      "start": 115.3617,
      "duration": 0.0924,
      "velocity": 127,
      "chip": "ym2612"
    },
    {
      "channel": 3,
      "note": 76,
      "start": 115.3623,
      "duration": 0.0006,
      "velocity": 115,
      "chip": "ym2612"
    },
    {
      "channel": 3,
      "note": 75,
      "start": 115.3629,
      "duration": 0.0161,
      "velocity": 115,
      "chip": "ym2612"
    },
    {
      "channel": 3,
      "note": 74,
      "start": 115.379,
      "duration": 0.0182,
      "velocity": 115,
      "chip": "ym2612"
    },
    {
      "channel": 3,
      "note": 73,
      "start": 115.3972,
      "duration": 0.0181,
      "velocity": 115,
      "chip": "ym2612"
    },
    {
      "channel": 3,
      "note": 72,
      "start": 115.4153,
      "duration": 0.0181,
      "velocity": 115,
      "chip": "ym2612"
    },
    {
      "channel": 3,
      "note": 70,
      "start": 115.4334,
      "duration": 0.0218,
      "velocity": 115,
      "chip": "ym2612"
    },
    {
      "channel": 0,
      "note": 58,
      "start": 115.4521,
      "duration": 0.1814,
      "velocity": 89,
      "chip": "ym2612"
    },
    {
      "channel": 1,
      "note": 21,
      "start": 115.4542,
      "duration": 0.0889,
      "velocity": 127,
      "chip": "ym2612"
    },
    {
      "channel": 2,
      "note": 86,
      "start": 115.4548,
      "duration": 0.1814,
      "velocity": 127,
      "chip": "ym2612"
    },
    {
      "channel": 3,
      "note": 76,
      "start": 115.4553,
      "duration": 0.0009,
      "velocity": 115,
      "chip": "ym2612"
    },
    {
      "channel": 3,
      "note": 75,
      "start": 115.4562,
      "duration": 0.0138,
      "velocity": 115,
      "chip": "ym2612"
    },
    {
      "channel": 3,
      "note": 74,
      "start": 115.4701,
      "duration": 0.0182,
      "velocity": 115,
      "chip": "ym2612"
    },
    {
      "channel": 3,
      "note": 73,
      "start": 115.4882,
      "duration": 0.0181,
      "velocity": 115,
      "chip": "ym2612"
    },
    {
      "channel": 3,
      "note": 72,
      "start": 115.5064,
      "duration": 0.0183,
      "velocity": 115,
      "chip": "ym2612"
    },
    {
      "channel": 3,
      "note": 70,
      "start": 115.5246,
      "duration": 0.0193,
      "velocity": 115,
      "chip": "ym2612"
    },
    {
      "channel": 1,
      "note": 21,
      "start": 115.5433,
      "duration": 0.0923,
      "velocity": 119,
      "chip": "ym2612"
    },
    {
      "channel": 3,
      "note": 69,
      "start": 115.5439,
      "duration": 0.0169,
      "velocity": 115,
      "chip": "ym2612"
    },
    {
      "channel": 3,
      "note": 68,
      "start": 115.5609,
      "duration": 0.0181,
      "velocity": 115,
      "chip": "ym2612"
    },
    {
      "channel": 3,
      "note": 67,
      "start": 115.579,
      "duration": 0.0182,
      "velocity": 115,
      "chip": "ym2612"
    },
    {
      "channel": 3,
      "note": 66,
      "start": 115.5972,
      "duration": 0.0181,
      "velocity": 115,
      "chip": "ym2612"
    },
    {
      "channel": 3,
      "note": 65,
      "start": 115.6153,
      "duration": 0.0214,
      "velocity": 115,
      "chip": "ym2612"
    },
    {
      "channel": 0,
      "note": 51,
      "start": 115.6337,
      "duration": 0.1808,
      "velocity": 89,
      "chip": "ym2612"
    },
    {
      "channel": 1,
      "note": 40,
      "start": 115.6358,
      "duration": 0.1793,
      "velocity": 119,
      "chip": "ym2612"
    },
    {
      "channel": 2,
      "note": 86,
      "start": 115.6363,
      "duration": 0.1793,
      "velocity": 127,
      "chip": "ym2612"
    },
    {
      "channel": 3,
      "note": 71,
      "start": 115.6369,
      "duration": 0.0006,
      "velocity": 115,
      "chip": "ym2612"
    },
    {
      "channel": 3,
      "note": 70,
      "start": 115.6375,
      "duration": 0.0141,
      "velocity": 115,
      "chip": "ym2612"
    },
    {
      "channel": 3,
      "note": 68,
      "start": 115.6516,
      "duration": 0.0181,
      "velocity": 115,
      "chip": "ym2612"
    },
    {
      "channel": 3,
      "note": 67,
      "start": 115.6697,
      "duration": 0.0182,
      "velocity": 115,
      "chip": "ym2612"
    },
    {
      "channel": 3,
      "note": 66,
      "start": 115.6878,
      "duration": 0.0181,
      "velocity": 115,
      "chip": "ym2612"
    },
    {
      "channel": 3,
      "note": 66,
      "start": 115.706,
      "duration": 0.0363,
      "velocity": 115,
      "chip": "ym2612"
    },
    {
      "channel": 3,
      "note": 65,
      "start": 115.7423,
      "duration": 0.0179,
      "velocity": 115,
      "chip": "ym2612"
    },
    {
      "channel": 3,
      "note": 64,
      "start": 115.7601,
      "duration": 0.0178,
      "velocity": 115,
      "chip": "ym2612"
    },
    {
      "channel": 3,
      "note": 63,
      "start": 115.778,
      "duration": 0.0181,
      "velocity": 115,
      "chip": "ym2612"
    },
    {
      "channel": 3,
      "note": 61,
      "start": 115.7961,
      "duration": 0.0203,
      "velocity": 115,
      "chip": "ym2612"
    },
    {
      "channel": 0,
      "note": 53,
      "start": 115.8146,
      "duration": 0.1818,
      "velocity": 89,
      "chip": "ym2612"
    },
    {
      "channel": 1,
      "note": 40,
      "start": 115.8153,
      "duration": 0.1834,
      "velocity": 127,
      "chip": "ym2612"
    },
    {
      "channel": 2,
      "note": 86,
      "start": 115.8158,
      "duration": 0.09,
      "velocity": 127,
      "chip": "ym2612"
    },
    {
      "channel": 3,
      "note": 60,
      "start": 115.8164,
      "duration": 0.0161,
      "velocity": 115,
      "chip": "ym2612"
    },
    {
      "channel": 3,
      "note": 59,
      "start": 115.8326,
      "duration": 0.0182,
      "velocity": 115,
      "chip": "ym2612"
    },
    {
      "channel": 3,
      "note": 58,
      "start": 115.8508,
      "duration": 0.0182,
      "velocity": 115,
      "chip": "ym2612"
    },
    {
      "channel": 3,
      "note": 56,
      "start": 115.869,
      "duration": 0.0183,
      "velocity": 115,
      "chip": "ym2612"
    },
    {
      "channel": 3,
      "note": 55,
      "start": 115.8873,
      "duration": 0.0193,
      "velocity": 115,
      "chip": "ym2612"
    },
    {
      "channel": 2,
      "note": 86,
      "start": 115.9059,
      "duration": 0.0932,
      "velocity": 127,
      "chip": "ym2612"
    },
    {
      "channel": 3,
      "note": 54,
      "start": 115.9065,
      "duration": 0.0172,
      "velocity": 115,
      "chip": "ym2612"
    },
    {
      "channel": 3,
      "note": 54,
      "start": 115.9237,
      "duration": 0.0182,
      "velocity": 115,
      "chip": "ym2612"
    },
    {
      "channel": 3,
      "note": 53,
      "start": 115.942,
      "duration": 0.0181,
      "velocity": 115,
      "chip": "ym2612"
    },
    {
      "channel": 3,
      "note": 52,
      "start": 115.9601,
      "duration": 0.018,
      "velocity": 115,
      "chip": "ym2612"
    },
    {
      "channel": 3,
      "note": 51,
      "start": 115.978,
      "duration": 0.022,
      "velocity": 115,
      "chip": "ym2612"
    },
    {
      "channel": 0,
      "note": 60,
      "start": 115.9967,
      "duration": 0.1817,
      "velocity": 89,
      "chip": "ym2612"
    },
    {
      "channel": 1,
      "note": 21,
      "start": 115.9988,
      "duration": 0.1802,
      "velocity": 127,
      "chip": "ym2612"
    },
    {
      "channel": 2,
      "note": 86,
      "start": 115.9994,
      "duration": 0.1802,
      "velocity": 127,
      "chip": "ym2612"
    },
    {
      "channel": 3,
      "note": 50,
      "start": 116.0,
      "duration": 0.0146,
      "velocity": 115,
      "chip": "ym2612"
    },
    {
      "channel": 3,
      "note": 48,
      "start": 116.0146,
      "duration": 0.0183,
      "velocity": 115,
      "chip": "ym2612"
    },
    {
      "channel": 3,
      "note": 47,
      "start": 116.0329,
      "duration": 0.018,
      "velocity": 115,
      "chip": "ym2612"
    },
    {
      "channel": 3,
      "note": 46,
      "start": 116.051,
      "duration": 0.0183,
      "velocity": 115,
      "chip": "ym2612"
    },
    {
      "channel": 3,
      "note": 44,
      "start": 116.0693,
      "duration": 0.0363,
      "velocity": 115,
      "chip": "ym2612"
    },
    {
      "channel": 3,
      "note": 43,
      "start": 116.1055,
      "duration": 0.0181,
      "velocity": 115,
      "chip": "ym2612"
    },
    {
      "channel": 3,
      "note": 42,
      "start": 116.1236,
      "duration": 0.0181,
      "velocity": 115,
      "chip": "ym2612"
    },
    {
      "channel": 3,
      "note": 42,
      "start": 116.1418,
      "duration": 0.0183,
      "velocity": 115,
      "chip": "ym2612"
    },
    {
      "channel": 3,
      "note": 41,
      "start": 116.1601,
      "duration": 0.0202,
      "velocity": 115,
      "chip": "ym2612"
    },
    {
      "channel": 0,
      "note": 60,
      "start": 116.1786,
      "duration": 0.3625,
      "velocity": 89,
      "chip": "ym2612"
    },
    {
      "channel": 1,
      "note": 21,
      "start": 116.1792,
      "duration": 0.1821,
      "velocity": 119,
      "chip": "ym2612"
    },
    {
      "channel": 2,
      "note": 86,
      "start": 116.1797,
      "duration": 0.1821,
      "velocity": 127,
      "chip": "ym2612"
    },
    {
      "channel": 3,
      "note": 40,
      "start": 116.1803,
      "duration": 0.0162,
      "velocity": 115,
      "chip": "ym2612"
    },
    {
      "channel": 3,
      "note": 39,
      "start": 116.1966,
      "duration": 0.0181,
      "velocity": 115,
      "chip": "ym2612"
    },
    {
      "channel": 3,
      "note": 38,
      "start": 116.2147,
      "duration": 0.018,
      "velocity": 115,
      "chip": "ym2612"
    },
    {
      "channel": 3,
      "note": 36,
      "start": 116.2327,
      "duration": 0.0182,
      "velocity": 115,
      "chip": "ym2612"
    },
    {
      "channel": 3,
      "note": 35,
      "start": 116.251,
      "duration": 0.0364,
      "velocity": 115,
      "chip": "ym2612"
    },
    {
      "channel": 3,
      "note": 34,
      "start": 116.2874,
      "duration": 0.018,
      "velocity": 115,
      "chip": "ym2612"
    },
    {
      "channel": 3,
      "note": 32,
      "start": 116.3054,
      "duration": 0.0181,
      "velocity": 115,
      "chip": "ym2612"
    },
    {
      "channel": 3,
      "note": 31,
      "start": 116.3236,
      "duration": 0.018,
      "velocity": 115,
      "chip": "ym2612"
    },
    {
      "channel": 3,
      "note": 30,
      "start": 116.3415,
      "duration": 0.0211,
      "velocity": 115,
      "chip": "ym2612"
    },
    {
      "channel": 1,
      "note": 40,
      "start": 116.3615,
      "duration": 0.2712,
      "velocity": 119,
      "chip": "ym2612"
    },
    {
      "channel": 2,
      "note": 86,
      "start": 116.3621,
      "duration": 0.1797,
      "velocity": 127,
      "chip": "ym2612"
    },
    {
      "channel": 3,
      "note": 30,
      "start": 116.3626,
      "duration": 0.0151,
      "velocity": 115,
      "chip": "ym2612"
    },
    {
      "channel": 3,
      "note": 29,
      "start": 116.3778,
      "duration": 0.0182,
      "velocity": 115,
      "chip": "ym2612"
    },
    {
      "channel": 3,
      "note": 28,
      "start": 116.3959,
      "duration": 0.0178,
      "velocity": 115,
      "chip": "ym2612"
    },
    {
      "channel": 3,
      "note": 27,
      "start": 116.4138,
      "duration": 0.0182,
      "velocity": 115,
      "chip": "ym2612"
    },
    {
      "channel": 3,
      "note": 26,
      "start": 116.432,
      "duration": 0.0361,
      "velocity": 115,
      "chip": "ym2612"
    },
    {
      "channel": 3,
      "note": 24,
      "start": 116.4681,
      "duration": 0.0182,
      "velocity": 115,
      "chip": "ym2612"
    },
    {
      "channel": 3,
      "note": 23,
      "start": 116.4863,
      "duration": 0.0182,
      "velocity": 115,
      "chip": "ym2612"
    },
    {
      "channel": 3,
      "note": 22,
      "start": 116.5045,
      "duration": 0.0183,
      "velocity": 115,
      "chip": "ym2612"
    },
    {
      "channel": 3,
      "note": 20,
      "start": 116.5228,
      "duration": 0.0197,
      "velocity": 115,
      "chip": "ym2612"
    },
    {
      "channel": 0,
      "note": 55,
      "start": 116.5413,
      "duration": 0.0907,
      "velocity": 89,
      "chip": "ym2612"
    },
    {
      "channel": 2,
      "note": 86,
      "start": 116.5419,
      "duration": 0.1828,
      "velocity": 127,
      "chip": "ym2612"
    },
    {
      "channel": 3,
      "note": 115,
      "start": 116.5425,
      "duration": 0.0167,
      "velocity": 115,
      "chip": "ym2612"
    },
    {
      "channel": 3,
      "note": 114,
      "start": 116.5592,
      "duration": 0.0181,
      "velocity": 115,
      "chip": "ym2612"
    },
    {
      "channel": 3,
      "note": 114,
      "start": 116.5773,
      "duration": 0.0182,
      "velocity": 115,
      "chip": "ym2612"
    },
    {
      "channel": 3,
      "note": 113,
      "start": 116.5955,
      "duration": 0.0181,
      "velocity": 115,
      "chip": "ym2612"
    },
    {
      "channel": 3,
      "note": 112,
      "start": 116.6136,
      "duration": 0.0198,
      "velocity": 115,
      "chip": "ym2612"
    },
    {
      "channel": 0,
      "note": 58,
      "start": 116.6322,
      "duration": 0.1808,
      "velocity": 89,
      "chip": "ym2612"
    },
    {
      "channel": 1,
      "note": 40,
      "start": 116.6328,
      "duration": 0.0913,
      "velocity": 127,
      "chip": "ym2612"
    },
    {
      "channel": 3,
      "note": 111,
      "start": 116.6334,
      "duration": 0.0166,
      "velocity": 115,
      "chip": "ym2612"
    },
    {
      "channel": 3,
      "note": 110,
      "start": 116.65,
      "duration": 0.0181,
      "velocity": 115,
      "chip": "ym2612"
    },
    {
      "channel": 3,
      "note": 108,
      "start": 116.6681,
      "duration": 0.0179,
      "velocity": 115,
      "chip": "ym2612"
    },
    {
      "channel": 3,
      "note": 107,
      "start": 116.6861,
      "duration": 0.018,
      "velocity": 115,
      "chip": "ym2612"
    },
    {
      "channel": 3,
      "note": 106,
      "start": 116.7041,
      "duration": 0.0216,
      "velocity": 115,
      "chip": "ym2612"
    },
    {
      "channel": 1,
      "note": 21,
      "start": 116.7243,
      "duration": 0.0908,
      "velocity": 119,
      "chip": "ym2612"
    },
    {
      "channel": 2,
      "note": 86,
      "start": 116.7248,
      "duration": 0.1812,
      "velocity": 127,
      "chip": "ym2612"
    },
    {
      "channel": 3,
      "note": 104,
      "start": 116.7257,
      "duration": 0.015,
      "velocity": 115,
      "chip": "ym2612"
    },
    {
      "channel": 3,
      "note": 103,
      "start": 116.7407,
      "duration": 0.018,
      "velocity": 115,
      "chip": "ym2612"
    },
    {
      "channel": 3,
      "note": 103,
      "start": 116.7588,
      "duration": 0.0181,
      "velocity": 115,
      "chip": "ym2612"
    },
    {
      "channel": 3,
      "note": 102,
      "start": 116.7769,
      "duration": 0.0179,
      "velocity": 115,
      "chip": "ym2612"
    },
    {
      "channel": 3,
      "note": 101,
      "start": 116.7948,
      "duration": 0.0212,
      "velocity": 115,
      "chip": "ym2612"
    },
    {
      "channel": 0,
      "note": 55,
      "start": 116.8132,
      "duration": 0.0901,
      "velocity": 89,
      "chip": "ym2612"
    },
    {
      "channel": 1,
      "note": 40,
      "start": 116.8153,
      "duration": 0.0901,
      "velocity": 127,
      "chip": "ym2612"
    },
    {
      "channel": 3,
      "note": 100,
      "start": 116.8159,
      "duration": 0.015,
      "velocity": 115,
      "chip": "ym2612"
    },
    {
      "channel": 3,
      "note": 99,
      "start": 116.831,
      "duration": 0.018,
      "velocity": 115,
      "chip": "ym2612"
    },
    {
      "channel": 3,
      "note": 98,
      "start": 116.849,
      "duration": 0.0179,
      "velocity": 115,
      "chip": "ym2612"
    },
    {
      "channel": 3,
      "note": 96,
      "start": 116.8668,
      "duration": 0.0181,
      "velocity": 115,
      "chip": "ym2612"
    },
    {
      "channel": 3,
      "note": 95,
      "start": 116.885,
      "duration": 0.0217,
      "velocity": 115,
      "chip": "ym2612"
    },
    {
      "channel": 0,
      "note": 58,
      "start": 116.9034,
      "duration": 0.1815,
      "velocity": 89,
      "chip": "ym2612"
    },
    {
      "channel": 1,
      "note": 21,
      "start": 116.9056,
      "duration": 0.1815,
      "velocity": 119,
      "chip": "ym2612"
    },
    {
      "channel": 2,
      "note": 86,
      "start": 116.9061,
      "duration": 0.1815,
      "velocity": 127,
      "chip": "ym2612"
    },
    {
      "channel": 3,
      "note": 94,
      "start": 116.9067,
      "duration": 0.0147,
      "velocity": 115,
      "chip": "ym2612"
    },
    {
      "channel": 3,
      "note": 92,
      "start": 116.9215,
      "duration": 0.0182,
      "velocity": 115,
      "chip": "ym2612"
    },
    {
      "channel": 3,
      "note": 91,
      "start": 116.9396,
      "duration": 0.0182,
      "velocity": 115,
      "chip": "ym2612"
    },
    {
      "channel": 3,
      "note": 91,
      "start": 116.9578,
      "duration": 0.0182,
      "velocity": 115,
      "chip": "ym2612"
    },
    {
      "channel": 3,
      "note": 90,
      "start": 116.976,
      "duration": 0.0363,
      "velocity": 115,
      "chip": "ym2612"
    },
    {
      "channel": 3,
      "note": 89,
      "start": 117.0123,
      "duration": 0.0181,
      "velocity": 115,
      "chip": "ym2612"
    },
    {
      "channel": 3,
      "note": 88,
      "start": 117.0304,
      "duration": 0.0182,
      "velocity": 115,
      "chip": "ym2612"
    },
    {
      "channel": 3,
      "note": 87,
      "start": 117.0486,
      "duration": 0.0181,
      "velocity": 115,
      "chip": "ym2612"
    },
    {
      "channel": 3,
      "note": 86,
      "start": 117.0667,
      "duration": 0.0216,
      "velocity": 115,
      "chip": "ym2612"
    },
    {
      "channel": 0,
      "note": 51,
      "start": 117.0851,
      "duration": 0.1812,
      "velocity": 89,
      "chip": "ym2612"
    },
    {
      "channel": 1,
      "note": 40,
      "start": 117.0872,
      "duration": 0.3622,
      "velocity": 127,
      "chip": "ym2612"
    },
    {
      "channel": 2,
      "note": 86,
      "start": 117.0877,
      "duration": 0.1792,
      "velocity": 127,
      "chip": "ym2612"
    },
    {
      "channel": 3,
      "note": 84,
      "start": 117.0884,
      "duration": 0.0147,
      "velocity": 115,
      "chip": "ym2612"
    },
    {
      "channel": 3,
      "note": 83,
      "start": 117.1031,
      "duration": 0.0179,
      "velocity": 115,
      "chip": "ym2612"
    },
    {
      "channel": 3,
      "note": 82,
      "start": 117.121,
      "duration": 0.0182,
      "velocity": 115,
      "chip": "ym2612"
    },
    {
      "channel": 3,
      "note": 80,
      "start": 117.1392,
      "duration": 0.0182,
      "velocity": 115,
      "chip": "ym2612"
    },
    {
      "channel": 3,
      "note": 79,
      "start": 117.1574,
      "duration": 0.0362,
      "velocity": 115,
      "chip": "ym2612"
    },
    {
      "channel": 3,
      "note": 79,
      "start": 117.1936,
      "duration": 0.0181,
      "velocity": 115,
      "chip": "ym2612"
    },
    {
      "channel": 3,
      "note": 78,
      "start": 117.2117,
      "duration": 0.018,
      "velocity": 115,
      "chip": "ym2612"
    },
    {
      "channel": 3,
      "note": 77,
      "start": 117.2297,
      "duration": 0.0182,
      "velocity": 115,
      "chip": "ym2612"
    },
    {
      "channel": 3,
      "note": 76,
      "start": 117.2479,
      "duration": 0.0198,
      "velocity": 115,
      "chip": "ym2612"
    },
    {
      "channel": 0,
      "note": 53,
      "start": 117.2665,
      "duration": 0.3627,
      "velocity": 89,
      "chip": "ym2612"
    },
    {
      "channel": 2,
      "note": 86,
      "start": 117.2671,
      "duration": 0.0901,
      "velocity": 127,
      "chip": "ym2612"
    },
    {
      "channel": 3,
      "note": 75,
      "start": 117.2677,
      "duration": 0.0166,
      "velocity": 115,
      "chip": "ym2612"
    },
    {
      "channel": 3,
      "note": 74,
      "start": 117.2843,
      "duration": 0.0181,
      "velocity": 115,
      "chip": "ym2612"
    },
    {
      "channel": 3,
      "note": 72,
      "start": 117.3024,
      "duration": 0.0181,
      "velocity": 115,
      "chip": "ym2612"
    },
    {
      "channel": 3,
      "note": 71,
      "start": 117.3205,
      "duration": 0.0182,
      "velocity": 115,
      "chip": "ym2612"
    },
    {
      "channel": 3,
      "note": 70,
      "start": 117.3387,
      "duration": 0.0193,
      "velocity": 115,
      "chip": "ym2612"
    },
    {
      "channel": 2,
      "note": 86,
      "start": 117.3574,
      "duration": 0.0926,
      "velocity": 127,
      "chip": "ym2612"
    },
    {
      "channel": 3,
      "note": 68,
      "start": 117.358,
      "duration": 0.0173,
      "velocity": 115,
      "chip": "ym2612"
    },
    {
      "channel": 3,
      "note": 67,
      "start": 117.3752,
      "duration": 0.0182,
      "velocity": 115,
      "chip": "ym2612"
    },
    {
      "channel": 3,
      "note": 67,
      "start": 117.3934,
      "duration": 0.018,
      "velocity": 115,
      "chip": "ym2612"
    },
    {
      "channel": 3,
      "note": 66,
      "start": 117.4114,
      "duration": 0.0178,
      "velocity": 115,
      "chip": "ym2612"
    },
    {
      "channel": 3,
      "note": 65,
      "start": 117.4292,
      "duration": 0.0219,
      "velocity": 115,
      "chip": "ym2612"
    },
    {
      "channel": 1,
      "note": 21,
      "start": 117.4496,
      "duration": 0.1802,
      "velocity": 127,
      "chip": "ym2612"
    },
    {
      "channel": 2,
      "note": 86,
      "start": 117.4501,
      "duration": 0.1802,
      "velocity": 127,
      "chip": "ym2612"
    },
    {
      "channel": 3,
      "note": 64,
      "start": 117.4511,
      "duration": 0.0148,
      "velocity": 115,
      "chip": "ym2612"
    },
    {
      "channel": 3,
      "note": 63,
      "start": 117.4658,
      "duration": 0.0182,
      "velocity": 115,
      "chip": "ym2612"
    },
    {
      "channel": 3,
      "note": 62,
      "start": 117.484,
      "duration": 0.0181,
      "velocity": 115,
      "chip": "ym2612"
    },
    {
      "channel": 3,
      "note": 60,
      "start": 117.5022,
      "duration": 0.0181,
      "velocity": 115,
      "chip": "ym2612"
    },
    {
      "channel": 3,
      "note": 59,
      "start": 117.5203,
      "duration": 0.0185,
      "velocity": 115,
      "chip": "ym2612"
    },
    {
      "channel": 3,
      "note": 72,
      "start": 117.5389,
      "duration": 0.0006,
      "velocity": 115,
      "chip": "ym2612"
    },
    {
      "channel": 3,
      "note": 71,
      "start": 117.5395,
      "duration": 0.0171,
      "velocity": 115,
      "chip": "ym2612"
    },
    {
      "channel": 3,
      "note": 69,
      "start": 117.5565,
      "duration": 0.0181,
      "velocity": 115,
      "chip": "ym2612"
    },
    {
      "channel": 3,
      "note": 68,
      "start": 117.5746,
      "duration": 0.0182,
      "velocity": 115,
      "chip": "ym2612"
    },
    {
      "channel": 3,
      "note": 67,
      "start": 117.5928,
      "duration": 0.0181,
      "velocity": 115,
      "chip": "ym2612"
    },
    {
      "channel": 3,
      "note": 66,
      "start": 117.6109,
      "duration": 0.0202,
      "velocity": 115,
      "chip": "ym2612"
    },
    {
      "channel": 0,
      "note": 48,
      "start": 117.6294,
      "duration": 0.1813,
      "velocity": 89,
      "chip": "ym2612"
    },
    {
      "channel": 1,
      "note": 21,
      "start": 117.63,
      "duration": 0.1829,
      "velocity": 119,
      "chip": "ym2612"
    },
    {
      "channel": 2,
      "note": 86,
      "start": 117.6305,
      "duration": 0.1829,
      "velocity": 127,
      "chip": "ym2612"
    },
    {
      "channel": 3,
      "note": 65,
      "start": 117.6311,
      "duration": 0.0162,
      "velocity": 115,
      "chip": "ym2612"
    },
    {
      "channel": 3,
      "note": 64,
      "start": 117.6473,
      "duration": 0.0182,
      "velocity": 115,
      "chip": "ym2612"
    },
    {
      "channel": 3,
      "note": 63,
      "start": 117.6655,
      "duration": 0.0182,
      "velocity": 115,
      "chip": "ym2612"
    },
    {
      "channel": 3,
      "note": 62,
      "start": 117.6837,
      "duration": 0.0182,
      "velocity": 115,
      "chip": "ym2612"
    },
    {
      "channel": 3,
      "note": 61,
      "start": 117.7019,
      "duration": 0.0359,
      "velocity": 115,
      "chip": "ym2612"
    },
    {
      "channel": 3,
      "note": 60,
      "start": 117.7378,
      "duration": 0.0182,
      "velocity": 115,
      "chip": "ym2612"
    },
    {
      "channel": 3,
      "note": 59,
      "start": 117.756,
      "duration": 0.0183,
      "velocity": 115,
      "chip": "ym2612"
    },
    {
      "channel": 3,
      "note": 57,
      "start": 117.7743,
      "duration": 0.0181,
      "velocity": 115,
      "chip": "ym2612"
    },
    {
      "channel": 3,
      "note": 56,
      "start": 117.7924,
      "duration": 0.0217,
      "velocity": 115,
      "chip": "ym2612"
    },
    {
      "channel": 0,
      "note": 60,
      "start": 117.811,
      "duration": 0.2714,
      "velocity": 89,
      "chip": "ym2612"
    },
    {
      "channel": 1,
      "note": 40,
      "start": 117.8131,
      "duration": 0.2698,
      "velocity": 119,
      "chip": "ym2612"
    },
    {
      "channel": 2,
      "note": 86,
      "start": 117.8136,
      "duration": 0.1778,
      "velocity": 127,
      "chip": "ym2612"
    },
    {
      "channel": 3,
      "note": 72,
      "start": 117.8142,
      "duration": 0.0006,
      "velocity": 115,
      "chip": "ym2612"
    },
    {
      "channel": 3,
      "note": 71,
      "start": 117.8148,
      "duration": 0.0141,
      "velocity": 115,
      "chip": "ym2612"
    },
    {
      "channel": 3,
      "note": 69,
      "start": 117.8289,
      "duration": 0.0181,
      "velocity": 115,
      "chip": "ym2612"
    },
    {
      "channel": 3,
      "note": 68,
      "start": 117.8471,
      "duration": 0.0179,
      "velocity": 115,
      "chip": "ym2612"
    },
    {
      "channel": 3,
      "note": 67,
      "start": 117.8649,
      "duration": 0.0178,
      "velocity": 115,
      "chip": "ym2612"
    },
    {
      "channel": 3,
      "note": 66,
      "start": 117.8828,
      "duration": 0.0361,
      "velocity": 115,
      "chip": "ym2612"
    },
    {
      "channel": 3,
      "note": 65,
      "start": 117.9189,
      "duration": 0.018,
      "velocity": 115,
      "chip": "ym2612"
    },
    {
      "channel": 3,
      "note": 64,
      "start": 117.9369,
      "duration": 0.0178,
      "velocity": 115,
      "chip": "ym2612"
    },
    {
      "channel": 3,
      "note": 63,
      "start": 117.9548,
      "duration": 0.018,
      "velocity": 115,
      "chip": "ym2612"
    },
    {
      "channel": 3,
      "note": 62,
      "start": 117.9728,
      "duration": 0.0192,
      "velocity": 115,
      "chip": "ym2612"
    },
    {
      "channel": 2,
      "note": 86,
      "start": 117.9915,
      "duration": 0.1807,
      "velocity": 127,
      "chip": "ym2612"
    },
    {
      "channel": 3,
      "note": 69,
      "start": 117.9921,
      "duration": 0.0006,
      "velocity": 115,
      "chip": "ym2612"
    },
    {
      "channel": 3,
      "note": 68,
      "start": 117.9927,
      "duration": 0.0166,
      "velocity": 115,
      "chip": "ym2612"
    },
    {
      "channel": 3,
      "note": 67,
      "start": 118.0093,
      "duration": 0.0182,
      "velocity": 115,
      "chip": "ym2612"
    },
    {
      "channel": 3,
      "note": 66,
      "start": 118.0275,
      "duration": 0.0181,
      "velocity": 115,
      "chip": "ym2612"
    },
    {
      "channel": 3,
      "note": 65,
      "start": 118.0456,
      "duration": 0.0182,
      "velocity": 115,
      "chip": "ym2612"
    },
    {
      "channel": 3,
      "note": 64,
      "start": 118.0639,
      "duration": 0.0199,
      "velocity": 115,
      "chip": "ym2612"
    },
    {
      "channel": 0,
      "note": 62,
      "start": 118.0825,
      "duration": 0.2706,
      "velocity": 89,
      "chip": "ym2612"
    },
    {
      "channel": 1,
      "note": 40,
      "start": 118.0831,
      "duration": 0.1793,
      "velocity": 119,
      "chip": "ym2612"
    },
    {
      "channel": 3,
      "note": 63,
      "start": 118.0837,
      "duration": 0.0165,
      "velocity": 115,
      "chip": "ym2612"
    },
    {
      "channel": 3,
      "note": 62,
      "start": 118.1003,
      "duration": 0.0179,
      "velocity": 115,
      "chip": "ym2612"
    },
    {
      "channel": 3,
      "note": 61,
      "start": 118.1182,
      "duration": 0.018,
      "velocity": 115,
      "chip": "ym2612"
    },
    {
      "channel": 3,
      "note": 60,
      "start": 118.1362,
      "duration": 0.0179,
      "velocity": 115,
      "chip": "ym2612"
    },
    {
      "channel": 3,
      "note": 58,
      "start": 118.1541,
      "duration": 0.0189,
      "velocity": 115,
      "chip": "ym2612"
    },
    {
      "channel": 2,
      "note": 86,
      "start": 118.1724,
      "duration": 0.1834,
      "velocity": 127,
      "chip": "ym2612"
    },
    {
      "channel": 3,
      "note": 57,
      "start": 118.173,
      "duration": 0.0171,
      "velocity": 115,
      "chip": "ym2612"
    },
    {
      "channel": 3,
      "note": 56,
      "start": 118.1901,
      "duration": 0.0179,
      "velocity": 115,
      "chip": "ym2612"
    },
    {
      "channel": 3,
      "note": 55,
      "start": 118.208,
      "duration": 0.0178,
      "velocity": 115,
      "chip": "ym2612"
    },
    {
      "channel": 3,
      "note": 54,
      "start": 118.2258,
      "duration": 0.0181,
      "velocity": 115,
      "chip": "ym2612"
    },
    {
      "channel": 3,
      "note": 53,
      "start": 118.244,
      "duration": 0.0192,
      "velocity": 115,
      "chip": "ym2612"
    },
    {
      "channel": 1,
      "note": 40,
      "start": 118.2626,
      "duration": 0.0926,
      "velocity": 127,
      "chip": "ym2612"
    },
    {
      "channel": 3,
      "note": 72,
      "start": 118.2633,
      "duration": 0.0006,
      "velocity": 115,
      "chip": "ym2612"
    },
    {
      "channel": 3,
      "note": 71,
      "start": 118.2638,
      "duration": 0.0166,
      "velocity": 115,
      "chip": "ym2612"
    },
    {
      "channel": 3,
      "note": 69,
      "start": 118.2804,
      "duration": 0.0181,
      "velocity": 115,
      "chip": "ym2612"
    },
    {
      "channel": 3,
      "note": 68,
      "start": 118.2985,
      "duration": 0.0182,
      "velocity": 115,
      "chip": "ym2612"
    },
    {
      "channel": 3,
      "note": 67,
      "start": 118.3168,
      "duration": 0.0179,
      "velocity": 115,
      "chip": "ym2612"
    },
    {
      "channel": 3,
      "note": 66,
      "start": 118.3346,
      "duration": 0.022,
      "velocity": 115,
      "chip": "ym2612"
    },
    {
      "channel": 0,
      "note": 51,
      "start": 118.3533,
      "duration": 0.1815,
      "velocity": 89,
      "chip": "ym2612"
    },
    {
      "channel": 1,
      "note": 21,
      "start": 118.3554,
      "duration": 0.0888,
      "velocity": 127,
      "chip": "ym2612"
    },
    {
      "channel": 2,
      "note": 86,
      "start": 118.356,
      "duration": 0.1815,
      "velocity": 127,
      "chip": "ym2612"
    },
    {
      "channel": 3,
      "note": 65,
      "start": 118.3566,
      "duration": 0.0148,
      "velocity": 115,
      "chip": "ym2612"
    },
    {
      "channel": 3,
      "note": 64,
      "start": 118.3713,
      "duration": 0.018,
      "velocity": 115,
      "chip": "ym2612"
    },
    {
      "channel": 3,
      "note": 63,
      "start": 118.3893,
      "duration": 0.0182,
      "velocity": 115,
      "chip": "ym2612"
    },
    {
      "channel": 3,
      "note": 62,
      "start": 118.4075,
      "duration": 0.0182,
      "velocity": 115,
      "chip": "ym2612"
    },
    {
      "channel": 3,
      "note": 61,
      "start": 118.4257,
      "duration": 0.0194,
      "velocity": 115,
      "chip": "ym2612"
    },
    {
      "channel": 1,
      "note": 21,
      "start": 118.4444,
      "duration": 0.0926,
      "velocity": 119,
      "chip": "ym2612"
    },
    {
      "channel": 3,
      "note": 60,
      "start": 118.4451,
      "duration": 0.017,
      "velocity": 115,
      "chip": "ym2612"
    },
    {
      "channel": 3,
      "note": 59,
      "start": 118.4621,
      "duration": 0.018,
      "velocity": 115,
      "chip": "ym2612"
    },
    {
      "channel": 3,
      "note": 57,
      "start": 118.4801,
      "duration": 0.0182,
      "velocity": 115,
      "chip": "ym2612"
    },
    {
      "channel": 3,
      "note": 56,
      "start": 118.4983,
      "duration": 0.0181,
      "velocity": 115,
      "chip": "ym2612"
    },
    {
      "channel": 3,
      "note": 55,
      "start": 118.5164,
      "duration": 0.0217,
      "velocity": 115,
      "chip": "ym2612"
    },
    {
      "channel": 0,
      "note": 52,
      "start": 118.535,
      "duration": 0.182,
      "velocity": 89,
      "chip": "ym2612"
    },
    {
      "channel": 1,
      "note": 40,
      "start": 118.5372,
      "duration": 0.0889,
      "velocity": 119,
      "chip": "ym2612"
    },
    {
      "channel": 2,
      "note": 86,
      "start": 118.5377,
      "duration": 0.182,
      "velocity": 127,
      "chip": "ym2612"
    },
    {
      "channel": 3,
      "note": 76,
      "start": 118.5383,
      "duration": 0.0005,
      "velocity": 115,
      "chip": "ym2612"
    },
    {
      "channel": 3,
      "note": 75,
      "start": 118.5388,
      "duration": 0.0143,
      "velocity": 115,
      "chip": "ym2612"
    },
    {
      "channel": 3,
      "note": 74,
      "start": 118.5531,
      "duration": 0.018,
      "velocity": 115,
      "chip": "ym2612"
    },
    {
      "channel": 3,
      "note": 73,
      "start": 118.5711,
      "duration": 0.0183,
      "velocity": 115,
      "chip": "ym2612"
    },
    {
      "channel": 3,
      "note": 72,
      "start": 118.5893,
      "duration": 0.0181,
      "velocity": 115,
      "chip": "ym2612"
    },
    {
      "channel": 3,
      "note": 70,
      "start": 118.6075,
      "duration": 0.0192,
      "velocity": 115,
      "chip": "ym2612"
    },
    {
      "channel": 1,
      "note": 40,
      "start": 118.6262,
      "duration": 0.0929,
      "velocity": 127,
      "chip": "ym2612"
    },
    {
      "channel": 3,
      "note": 76,
      "start": 118.6269,
      "duration": 0.0005,
      "velocity": 115,
      "chip": "ym2612"
    },
    {
      "channel": 3,
      "note": 75,
      "start": 118.6274,
      "duration": 0.0166,
      "velocity": 115,
      "chip": "ym2612"
    },
    {
      "channel": 3,
      "note": 74,
      "start": 118.644,
      "duration": 0.0181,
      "velocity": 115,
      "chip": "ym2612"
    },
    {
      "channel": 3,
      "note": 73,
      "start": 118.6621,
      "duration": 0.0183,
      "velocity": 115,
      "chip": "ym2612"
    },
    {
      "channel": 3,
      "note": 72,
      "start": 118.6803,
      "duration": 0.0179,
      "velocity": 115,
      "chip": "ym2612"
    },
    {
      "channel": 3,
      "note": 70,
      "start": 118.6982,
      "duration": 0.0221,
      "velocity": 115,
      "chip": "ym2612"
    },
    {
      "channel": 0,
      "note": 53,
      "start": 118.7172,
      "duration": 0.1805,
      "velocity": 89,
      "chip": "ym2612"
    },
    {
      "channel": 1,
      "note": 21,
      "start": 118.7193,
      "duration": 0.1789,
      "velocity": 127,
      "chip": "ym2612"
    },
    {
      "channel": 2,
      "note": 86,
      "start": 118.7199,
      "duration": 0.0875,
      "velocity": 127,
      "chip": "ym2612"
    },
    {
      "channel": 3,
      "note": 69,
      "start": 118.7205,
      "duration": 0.0009,
      "velocity": 115,
      "chip": "ym2612"
    },
    {
      "channel": 3,
      "note": 68,
      "start": 118.7214,
      "duration": 0.0139,
      "velocity": 115,
      "chip": "ym2612"
    },
    {
      "channel": 3,
      "note": 67,
      "start": 118.7353,
      "duration": 0.0179,
      "velocity": 115,
      "chip": "ym2612"
    },
    {
      "channel": 3,
      "note": 66,
      "start": 118.7532,
      "duration": 0.018,
      "velocity": 115,
      "chip": "ym2612"
    },
    {
      "channel": 3,
      "note": 65,
      "start": 118.7712,
      "duration": 0.0179,
      "velocity": 115,
      "chip": "ym2612"
    },
    {
      "channel": 3,
      "note": 64,
      "start": 118.7891,
      "duration": 0.0191,
      "velocity": 115,
      "chip": "ym2612"
    },
    {
      "channel": 2,
      "note": 86,
      "start": 118.8076,
      "duration": 0.0913,
      "velocity": 127,
      "chip": "ym2612"
    },
    {
      "channel": 3,
      "note": 63,
      "start": 118.8082,
      "duration": 0.0169,
      "velocity": 115,
      "chip": "ym2612"
    },
    {
      "channel": 3,
      "note": 62,
      "start": 118.8251,
      "duration": 0.018,
      "velocity": 115,
      "chip": "ym2612"
    },
    {
      "channel": 3,
      "note": 61,
      "start": 118.8431,
      "duration": 0.0178,
      "velocity": 115,
      "chip": "ym2612"
    },
    {
      "channel": 3,
      "note": 60,
      "start": 118.8609,
      "duration": 0.0181,
      "velocity": 115,
      "chip": "ym2612"
    },
    {
      "channel": 3,
      "note": 58,
      "start": 118.879,
      "duration": 0.022,
      "velocity": 1,
      "chip": "ym2612"
    },
    {
      "channel": 0,
      "note": 55,
      "start": 118.8978,
      "duration": 2.6256,
      "velocity": 89,
      "chip": "ym2612"
    },
    {
      "channel": 1,
      "note": 21,
      "start": 118.8985,
      "duration": 0.1804,
      "velocity": 127,
      "chip": "ym2612"
    },
    {
      "channel": 2,
      "note": 86,
      "start": 118.8991,
      "duration": 0.1803,
      "velocity": 127,
      "chip": "ym2612"
    },
    {
      "channel": 3,
      "note": 79,
      "start": 118.9012,
      "duration": 1.5362,
      "velocity": 115,
      "chip": "ym2612"
    },
    {
      "channel": 1,
      "note": 21,
      "start": 119.079,
      "duration": 0.182,
      "velocity": 119,
      "chip": "ym2612"
    },
    {
      "channel": 2,
      "note": 86,
      "start": 119.0795,
      "duration": 0.182,
      "velocity": 127,
      "chip": "ym2612"
    },
    {
      "channel": 1,
      "note": 40,
      "start": 119.2612,
      "duration": 0.2698,
      "velocity": 119,
      "chip": "ym2612"
    },
    {
      "channel": 2,
      "note": 86,
      "start": 119.2617,
      "duration": 0.1789,
      "velocity": 127,
      "chip": "ym2612"
    },
    {
      "channel": 2,
      "note": 86,
      "start": 119.4408,
      "duration": 0.1826,
      "velocity": 127,
      "chip": "ym2612"
    },
    {
      "channel": 1,
      "note": 40,
      "start": 119.5312,
      "duration": 0.0916,
      "velocity": 127,
      "chip": "ym2612"
    },
    {
      "channel": 1,
      "note": 21,
      "start": 119.623,
      "duration": 0.0901,
      "velocity": 119,
      "chip": "ym2612"
    },
    {
      "channel": 2,
      "note": 86,
      "start": 119.6236,
      "duration": 0.1805,
      "velocity": 127,
      "chip": "ym2612"
    },
    {
      "channel": 1,
      "note": 40,
      "start": 119.7133,
      "duration": 0.0904,
      "velocity": 127,
      "chip": "ym2612"
    },
    {
      "channel": 1,
      "note": 21,
      "start": 119.8037,
      "duration": 0.1808,
      "velocity": 119,
      "chip": "ym2612"
    },
    {
      "channel": 2,
      "note": 86,
      "start": 119.8043,
      "duration": 0.1807,
      "velocity": 127,
      "chip": "ym2612"
    },
    {
      "channel": 1,
      "note": 40,
      "start": 119.9847,
      "duration": 0.3617,
      "velocity": 127,
      "chip": "ym2612"
    },
    {
      "channel": 2,
      "note": 86,
      "start": 119.9852,
      "duration": 0.1785,
      "velocity": 127,
      "chip": "ym2612"
    },
    {
      "channel": 2,
      "note": 86,
      "start": 120.1639,
      "duration": 0.0904,
      "velocity": 127,
      "chip": "ym2612"
    },
    {
      "channel": 2,
      "note": 86,
      "start": 120.2545,
      "duration": 0.0924,
      "velocity": 127,
      "chip": "ym2612"
    },
    {
      "channel": 1,
      "note": 21,
      "start": 120.3465,
      "duration": 0.1792,
      "velocity": 127,
      "chip": "ym2612"
    },
    {
      "channel": 2,
      "note": 86,
      "start": 120.3471,
      "duration": 0.1791,
      "velocity": 127,
      "chip": "ym2612"
    },
    {
      "channel": 3,
      "note": 72,
      "start": 120.4376,
      "duration": 0.0006,
      "velocity": 115,
      "chip": "ym2612"
    },
    {
      "channel": 3,
      "note": 71,
      "start": 120.4381,
      "duration": 0.0155,
      "velocity": 115,
      "chip": "ym2612"
    },
    {
      "channel": 3,
      "note": 69,
      "start": 120.4537,
      "duration": 0.018,
      "velocity": 115,
      "chip": "ym2612"
    },
    {
      "channel": 3,
      "note": 68,
      "start": 120.4717,
      "duration": 0.018,
      "velocity": 115,
      "chip": "ym2612"
    },
    {
      "channel": 3,
      "note": 67,
      "start": 120.4897,
      "duration": 0.0179,
      "velocity": 115,
      "chip": "ym2612"
    },
    {
      "channel": 3,
      "note": 66,
      "start": 120.5076,
      "duration": 0.0195,
      "velocity": 115,
      "chip": "ym2612"
    },
    {
      "channel": 1,
      "note": 21,
      "start": 120.5259,
      "duration": 0.1827,
      "velocity": 119,
      "chip": "ym2612"
    },
    {
      "channel": 2,
      "note": 86,
      "start": 120.5264,
      "duration": 0.1827,
      "velocity": 127,
      "chip": "ym2612"
    },
    {
      "channel": 3,
      "note": 65,
      "start": 120.5271,
      "duration": 0.0165,
      "velocity": 115,
      "chip": "ym2612"
    },
    {
      "channel": 3,
      "note": 64,
      "start": 120.5436,
      "duration": 0.0183,
      "velocity": 115,
      "chip": "ym2612"
    },
    {
      "channel": 3,
      "note": 63,
      "start": 120.5619,
      "duration": 0.018,
      "velocity": 115,
      "chip": "ym2612"
    },
    {
      "channel": 3,
      "note": 62,
      "start": 120.5799,
      "duration": 0.0183,
      "velocity": 115,
      "chip": "ym2612"
    },
    {
      "channel": 3,
      "note": 61,
      "start": 120.5982,
      "duration": 0.0365,
      "velocity": 115,
      "chip": "ym2612"
    },
    {
      "channel": 3,
      "note": 60,
      "start": 120.6347,
      "duration": 0.018,
      "velocity": 115,
      "chip": "ym2612"
    },
    {
      "channel": 3,
      "note": 59,
      "start": 120.6527,
      "duration": 0.0181,
      "velocity": 115,
      "chip": "ym2612"
    },
    {
      "channel": 3,
      "note": 57,
      "start": 120.6708,
      "duration": 0.018,
      "velocity": 115,
      "chip": "ym2612"
    },
    {
      "channel": 3,
      "note": 56,
      "start": 120.6888,
      "duration": 0.0208,
      "velocity": 115,
      "chip": "ym2612"
    },
    {
      "channel": 1,
      "note": 40,
      "start": 120.7087,
      "duration": 0.2703,
      "velocity": 119,
      "chip": "ym2612"
    },
    {
      "channel": 2,
      "note": 86,
      "start": 120.7093,
      "duration": 0.1791,
      "velocity": 127,
      "chip": "ym2612"
    },
    {
      "channel": 3,
      "note": 72,
      "start": 120.7099,
      "duration": 0.0006,
      "velocity": 115,
      "chip": "ym2612"
    },
    {
      "channel": 3,
      "note": 71,
      "start": 120.7104,
      "duration": 0.0146,
      "velocity": 115,
      "chip": "ym2612"
    },
    {
      "channel": 3,
      "note": 69,
      "start": 120.725,
      "duration": 0.0183,
      "velocity": 115,
      "chip": "ym2612"
    },
    {
      "channel": 3,
      "note": 68,
      "start": 120.7433,
      "duration": 0.018,
      "velocity": 115,
      "chip": "ym2612"
    },
    {
      "channel": 3,
      "note": 67,
      "start": 120.7613,
      "duration": 0.018,
      "velocity": 115,
      "chip": "ym2612"
    },
    {
      "channel": 3,
      "note": 66,
      "start": 120.7793,
      "duration": 0.0362,
      "velocity": 115,
      "chip": "ym2612"
    },
    {
      "channel": 3,
      "note": 65,
      "start": 120.8155,
      "duration": 0.0181,
      "velocity": 115,
      "chip": "ym2612"
    },
    {
      "channel": 3,
      "note": 64,
      "start": 120.8336,
      "duration": 0.0181,
      "velocity": 115,
      "chip": "ym2612"
    },
    {
      "channel": 3,
      "note": 63,
      "start": 120.8517,
      "duration": 0.0182,
      "velocity": 115,
      "chip": "ym2612"
    },
    {
      "channel": 3,
      "note": 62,
      "start": 120.8699,
      "duration": 0.0193,
      "velocity": 115,
      "chip": "ym2612"
    },
    {
      "channel": 2,
      "note": 86,
      "start": 120.8886,
      "duration": 0.1808,
      "velocity": 127,
      "chip": "ym2612"
    },
    {
      "channel": 3,
      "note": 61,
      "start": 120.8893,
      "duration": 0.0171,
      "velocity": 115,
      "chip": "ym2612"
    },
    {
      "channel": 3,
      "note": 60,
      "start": 120.9063,
      "duration": 0.0182,
      "velocity": 115,
      "chip": "ym2612"
    },
    {
      "channel": 3,
      "note": 59,
      "start": 120.9246,
      "duration": 0.0182,
      "velocity": 115,
      "chip": "ym2612"
    },
    {
      "channel": 3,
      "note": 57,
      "start": 120.9428,
      "duration": 0.0181,
      "velocity": 115,
      "chip": "ym2612"
    },
    {
      "channel": 3,
      "note": 56,
      "start": 120.9609,
      "duration": 0.0189,
      "velocity": 115,
      "chip": "ym2612"
    },
    {
      "channel": 1,
      "note": 40,
      "start": 120.9792,
      "duration": 0.1804,
      "velocity": 119,
      "chip": "ym2612"
    },
    {
      "channel": 3,
      "note": 55,
      "start": 120.9798,
      "duration": 0.0169,
      "velocity": 115,
      "chip": "ym2612"
    },
    {
      "channel": 3,
      "note": 54,
      "start": 120.9968,
      "duration": 0.0178,
      "velocity": 115,
      "chip": "ym2612"
    },
    {
      "channel": 3,
      "note": 53,
      "start": 121.0146,
      "duration": 0.0182,
      "velocity": 115,
      "chip": "ym2612"
    },
    {
      "channel": 3,
      "note": 52,
      "start": 121.0328,
      "duration": 0.0182,
      "velocity": 115,
      "chip": "ym2612"
    },
    {
      "channel": 3,
      "note": 51,
      "start": 121.051,
      "duration": 0.019,
      "velocity": 115,
      "chip": "ym2612"
    },
    {
      "channel": 2,
      "note": 86,
      "start": 121.0696,
      "duration": 0.1832,
      "velocity": 127,
      "chip": "ym2612"
    },
    {
      "channel": 3,
      "note": 76,
      "start": 121.0702,
      "duration": 0.0005,
      "velocity": 115,
      "chip": "ym2612"
    },
    {
      "channel": 3,
      "note": 75,
      "start": 121.0707,
      "duration": 0.0164,
      "velocity": 115,
      "chip": "ym2612"
    },
    {
      "channel": 3,
      "note": 74,
      "start": 121.0871,
      "duration": 0.0179,
      "velocity": 115,
      "chip": "ym2612"
    },
    {
      "channel": 3,
      "note": 73,
      "start": 121.105,
      "duration": 0.0182,
      "velocity": 115,
      "chip": "ym2612"
    },
    {
      "channel": 3,
      "note": 72,
      "start": 121.1232,
      "duration": 0.018,
      "velocity": 115,
      "chip": "ym2612"
    },
    {
      "channel": 3,
      "note": 70,
      "start": 121.1412,
      "duration": 0.0191,
      "velocity": 115,
      "chip": "ym2612"
    },
    {
      "channel": 1,
      "note": 40,
      "start": 121.1598,
      "duration": 0.0925,
      "velocity": 127,
      "chip": "ym2612"
    },
    {
      "channel": 3,
      "note": 76,
      "start": 121.1605,
      "duration": 0.0006,
      "velocity": 115,
      "chip": "ym2612"
    },
    {
      "channel": 3,
      "note": 75,
      "start": 121.161,
      "duration": 0.0165,
      "velocity": 115,
      "chip": "ym2612"
    },
    {
      "channel": 3,
      "note": 74,
      "start": 121.1775,
      "duration": 0.0181,
      "velocity": 115,
      "chip": "ym2612"
    },
    {
      "channel": 3,
      "note": 73,
      "start": 121.1956,
      "duration": 0.0182,
      "velocity": 115,
      "chip": "ym2612"
    },
    {
      "channel": 3,
      "note": 72,
      "start": 121.2138,
      "duration": 0.0182,
      "velocity": 115,
      "chip": "ym2612"
    },
    {
      "channel": 3,
      "note": 70,
      "start": 121.232,
      "duration": 0.0214,
      "velocity": 115,
      "chip": "ym2612"
    },
    {
      "channel": 1,
      "note": 21,
      "start": 121.2524,
      "duration": 0.0895,
      "velocity": 127,
      "chip": "ym2612"
    },
    {
      "channel": 2,
      "note": 86,
      "start": 121.253,
      "duration": 0.1813,
      "velocity": 127,
      "chip": "ym2612"
    },
    {
      "channel": 3,
      "note": 76,
      "start": 121.2536,
      "duration": 0.0009,
      "velocity": 115,
      "chip": "ym2612"
    },
    {
      "channel": 3,
      "note": 75,
      "start": 121.2544,
      "duration": 0.0144,
      "velocity": 115,
      "chip": "ym2612"
    },
    {
      "channel": 3,
      "note": 74,
      "start": 121.2688,
      "duration": 0.018,
      "velocity": 115,
      "chip": "ym2612"
    },
    {
      "channel": 3,
      "note": 73,
      "start": 121.2868,
      "duration": 0.0183,
      "velocity": 115,
      "chip": "ym2612"
    },
    {
      "channel": 3,
      "note": 72,
      "start": 121.3051,
      "duration": 0.018,
      "velocity": 115,
      "chip": "ym2612"
    },
    {
      "channel": 3,
      "note": 70,
      "start": 121.3232,
      "duration": 0.0195,
      "velocity": 115,
      "chip": "ym2612"
    },
    {
      "channel": 1,
      "note": 21,
      "start": 121.342,
      "duration": 0.0918,
      "velocity": 119,
      "chip": "ym2612"
    },
    {
      "channel": 3,
      "note": 69,
      "start": 121.3427,
      "duration": 0.0169,
      "velocity": 115,
      "chip": "ym2612"
    },
    {
      "channel": 3,
      "note": 68,
      "start": 121.3596,
      "duration": 0.0182,
      "velocity": 115,
      "chip": "ym2612"
    },
    {
      "channel": 3,
      "note": 67,
      "start": 121.3778,
      "duration": 0.0178,
      "velocity": 115,
      "chip": "ym2612"
    },
    {
      "channel": 3,
      "note": 66,
      "start": 121.3957,
      "duration": 0.0182,
      "velocity": 115,
      "chip": "ym2612"
    },
    {
      "channel": 3,
      "note": 65,
      "start": 121.4139,
      "duration": 0.021,
      "velocity": 115,
      "chip": "ym2612"
    },
    {
      "channel": 1,
      "note": 40,
      "start": 121.4339,
      "duration": 0.1808,
      "velocity": 119,
      "chip": "ym2612"
    },
    {
      "channel": 2,
      "note": 86,
      "start": 121.4345,
      "duration": 0.1807,
      "velocity": 127,
      "chip": "ym2612"
    },
    {
      "channel": 3,
      "note": 71,
      "start": 121.4351,
      "duration": 0.0006,
      "velocity": 115,
      "chip": "ym2612"
    },
    {
      "channel": 3,
      "note": 70,
      "start": 121.4357,
      "duration": 0.0147,
      "velocity": 115,
      "chip": "ym2612"
    },
    {
      "channel": 3,
      "note": 68,
      "start": 121.4503,
      "duration": 0.0181,
      "velocity": 115,
      "chip": "ym2612"
    },
    {
      "channel": 3,
      "note": 67,
      "start": 121.4685,
      "duration": 0.0182,
      "velocity": 115,
      "chip": "ym2612"
    },
    {
      "channel": 3,
      "note": 66,
      "start": 121.4867,
      "duration": 0.0182,
      "velocity": 115,
      "chip": "ym2612"
    },
    {
      "channel": 3,
      "note": 66,
      "start": 121.5049,
      "duration": 0.0194,
      "velocity": 115,
      "chip": "ym2612"
    },
    {
      "channel": 0,
      "note": 50,
      "start": 121.5236,
      "duration": 0.0905,
      "velocity": 89,
      "chip": "ym2612"
    },
    {
      "channel": 3,
      "note": 65,
      "start": 121.5243,
      "duration": 0.0171,
      "velocity": 115,
      "chip": "ym2612"
    },
    {
      "channel": 3,
      "note": 64,
      "start": 121.5414,
      "duration": 0.0183,
      "velocity": 115,
      "chip": "ym2612"
    },
    {
      "channel": 3,
      "note": 63,
      "start": 121.5596,
      "duration": 0.018,
      "velocity": 115,
      "chip": "ym2612"
    },
    {
      "channel": 3,
      "note": 61,
      "start": 121.5777,
      "duration": 0.0181,
      "velocity": 115,
      "chip": "ym2612"
    },
    {
      "channel": 3,
      "note": 60,
      "start": 121.5958,
      "duration": 0.0203,
      "velocity": 115,
      "chip": "ym2612"
    },
    {
      "channel": 0,
      "note": 53,
      "start": 121.6143,
      "duration": 0.0904,
      "velocity": 89,
      "chip": "ym2612"
    },
    {
      "channel": 1,
      "note": 40,
      "start": 121.6149,
      "duration": 0.1824,
      "velocity": 127,
      "chip": "ym2612"
    },
    {
      "channel": 2,
      "note": 86,
      "start": 121.6154,
      "duration": 0.0899,
      "velocity": 127,
      "chip": "ym2612"
    },
    {
      "channel": 3,
      "note": 59,
      "start": 121.6161,
      "duration": 0.0159,
      "velocity": 115,
      "chip": "ym2612"
    },
    {
      "channel": 3,
      "note": 58,
      "start": 121.632,
      "duration": 0.0182,
      "velocity": 115,
      "chip": "ym2612"
    },
    {
      "channel": 3,
      "note": 56,
      "start": 121.6502,
      "duration": 0.0179,
      "velocity": 115,
      "chip": "ym2612"
    },
    {
      "channel": 3,
      "note": 55,
      "start": 121.6681,
      "duration": 0.0182,
      "velocity": 115,
      "chip": "ym2612"
    },
    {
      "channel": 3,
      "note": 54,
      "start": 121.6863,
      "duration": 0.0198,
      "velocity": 115,
      "chip": "ym2612"
    },
    {
      "channel": 0,
      "note": 55,
      "start": 121.7049,
      "duration": 0.0903,
      "velocity": 89,
      "chip": "ym2612"
    },
    {
      "channel": 2,
      "note": 86,
      "start": 121.7055,
      "duration": 0.0924,
      "velocity": 127,
      "chip": "ym2612"
    },
    {
      "channel": 3,
      "note": 54,
      "start": 121.7061,
      "duration": 0.0165,
      "velocity": 115,
      "chip": "ym2612"
    },
    {
      "channel": 3,
      "note": 53,
      "start": 121.7226,
      "duration": 0.0182,
      "velocity": 115,
      "chip": "ym2612"
    },
    {
      "channel": 3,
      "note": 52,
      "start": 121.7408,
      "duration": 0.0179,
      "velocity": 115,
      "chip": "ym2612"
    },
    {
      "channel": 3,
      "note": 51,
      "start": 121.7587,
      "duration": 0.0182,
      "velocity": 115,
      "chip": "ym2612"
    },
    {
      "channel": 3,
      "note": 50,
      "start": 121.7769,
      "duration": 0.0217,
      "velocity": 115,
      "chip": "ym2612"
    },
    {
      "channel": 0,
      "note": 43,
      "start": 121.7953,
      "duration": 2.9043,
      "velocity": 127,
      "chip": "ym2612"
    },
    {
      "channel": 1,
      "note": 21,
      "start": 121.7975,
      "duration": 0.1793,
      "velocity": 127,
      "chip": "ym2612"
    },
    {
      "channel": 2,
      "note": 86,
      "start": 121.7981,
      "duration": 0.1793,
      "velocity": 127,
      "chip": "ym2612"
    },
    {
      "channel": 3,
      "note": 48,
      "start": 121.7986,
      "duration": 0.0149,
      "velocity": 115,
      "chip": "ym2612"
    },
    {
      "channel": 3,
      "note": 47,
      "start": 121.8135,
      "duration": 0.0181,
      "velocity": 115,
      "chip": "ym2612"
    },
    {
      "channel": 3,
      "note": 46,
      "start": 121.8316,
      "duration": 0.0181,
      "velocity": 115,
      "chip": "ym2612"
    },
    {
      "channel": 3,
      "note": 44,
      "start": 121.8498,
      "duration": 0.018,
      "velocity": 115,
      "chip": "ym2612"
    },
    {
      "channel": 3,
      "note": 43,
      "start": 121.8678,
      "duration": 0.0362,
      "velocity": 115,
      "chip": "ym2612"
    },
    {
      "channel": 3,
      "note": 42,
      "start": 121.904,
      "duration": 0.0182,
      "velocity": 115,
      "chip": "ym2612"
    },
    {
      "channel": 3,
      "note": 42,
      "start": 121.9222,
      "duration": 0.0182,
      "velocity": 115,
      "chip": "ym2612"
    },
    {
      "channel": 3,
      "note": 41,
      "start": 121.9403,
      "duration": 0.0182,
      "velocity": 115,
      "chip": "ym2612"
    },
    {
      "channel": 3,
      "note": 40,
      "start": 121.9585,
      "duration": 0.0197,
      "velocity": 115,
      "chip": "ym2612"
    },
    {
      "channel": 1,
      "note": 21,
      "start": 121.9771,
      "duration": 0.1828,
      "velocity": 119,
      "chip": "ym2612"
    },
    {
      "channel": 2,
      "note": 86,
      "start": 121.9776,
      "duration": 0.1828,
      "velocity": 127,
      "chip": "ym2612"
    },
    {
      "channel": 3,
      "note": 39,
      "start": 121.9782,
      "duration": 0.0166,
      "velocity": 115,
      "chip": "ym2612"
    },
    {
      "channel": 3,
      "note": 38,
      "start": 121.9948,
      "duration": 0.0181,
      "velocity": 115,
      "chip": "ym2612"
    },
    {
      "channel": 3,
      "note": 36,
      "start": 122.0129,
      "duration": 0.0182,
      "velocity": 115,
      "chip": "ym2612"
    },
    {
      "channel": 3,
      "note": 35,
      "start": 122.0311,
      "duration": 0.0181,
      "velocity": 115,
      "chip": "ym2612"
    },
    {
      "channel": 3,
      "note": 34,
      "start": 122.0493,
      "duration": 0.0361,
      "velocity": 115,
      "chip": "ym2612"
    },
    {
      "channel": 3,
      "note": 32,
      "start": 122.0853,
      "duration": 0.0181,
      "velocity": 115,
      "chip": "ym2612"
    },
    {
      "channel": 3,
      "note": 31,
      "start": 122.1034,
      "duration": 0.0182,
      "velocity": 115,
      "chip": "ym2612"
    },
    {
      "channel": 3,
      "note": 30,
      "start": 122.1216,
      "duration": 0.0183,
      "velocity": 115,
      "chip": "ym2612"
    },
    {
      "channel": 3,
      "note": 30,
      "start": 122.1399,
      "duration": 0.0213,
      "velocity": 115,
      "chip": "ym2612"
    },
    {
      "channel": 1,
      "note": 40,
      "start": 122.16,
      "duration": 0.2706,
      "velocity": 119,
      "chip": "ym2612"
    },
    {
      "channel": 2,
      "note": 86,
      "start": 122.1605,
      "duration": 0.1795,
      "velocity": 127,
      "chip": "ym2612"
    },
    {
      "channel": 3,
      "note": 29,
      "start": 122.1612,
      "duration": 0.0152,
      "velocity": 115,
      "chip": "ym2612"
    },
    {
      "channel": 3,
      "note": 28,
      "start": 122.1763,
      "duration": 0.0182,
      "velocity": 115,
      "chip": "ym2612"
    },
    {
      "channel": 3,
      "note": 27,
      "start": 122.1945,
      "duration": 0.0183,
      "velocity": 115,
      "chip": "ym2612"
    },
    {
      "channel": 3,
      "note": 26,
      "start": 122.2128,
      "duration": 0.0181,
      "velocity": 115,
      "chip": "ym2612"
    },
    {
      "channel": 3,
      "note": 24,
      "start": 122.231,
      "duration": 0.0362,
      "velocity": 115,
      "chip": "ym2612"
    },
    {
      "channel": 3,
      "note": 23,
      "start": 122.2671,
      "duration": 0.0182,
      "velocity": 115,
      "chip": "ym2612"
    },
    {
      "channel": 3,
      "note": 22,
      "start": 122.2854,
      "duration": 0.0182,
      "velocity": 115,
      "chip": "ym2612"
    },
    {
      "channel": 3,
      "note": 20,
      "start": 122.3035,
      "duration": 0.0182,
      "velocity": 115,
      "chip": "ym2612"
    },
    {
      "channel": 3,
      "note": 115,
      "start": 122.3217,
      "duration": 0.0191,
      "velocity": 115,
      "chip": "ym2612"
    },
    {
      "channel": 2,
      "note": 86,
      "start": 122.3402,
      "duration": 0.1835,
      "velocity": 127,
      "chip": "ym2612"
    },
    {
      "channel": 3,
      "note": 114,
      "start": 122.3408,
      "duration": 0.017,
      "velocity": 115,
      "chip": "ym2612"
    },
    {
      "channel": 3,
      "note": 114,
      "start": 122.3578,
      "duration": 0.018,
      "velocity": 115,
      "chip": "ym2612"
    },
    {
      "channel": 3,
      "note": 113,
      "start": 122.3758,
      "duration": 0.018,
      "velocity": 115,
      "chip": "ym2612"
    },
    {
      "channel": 3,
      "note": 112,
      "start": 122.3938,
      "duration": 0.0182,
      "velocity": 115,
      "chip": "ym2612"
    },
    {
      "channel": 3,
      "note": 111,
      "start": 122.412,
      "duration": 0.0194,
      "velocity": 115,
      "chip": "ym2612"
    },
    {
      "channel": 1,
      "note": 40,
      "start": 122.4307,
      "duration": 0.0925,
      "velocity": 127,
      "chip": "ym2612"
    },
    {
      "channel": 3,
      "note": 110,
      "start": 122.4314,
      "duration": 0.017,
      "velocity": 115,
      "chip": "ym2612"
    },
    {
      "channel": 3,
      "note": 108,
      "start": 122.4485,
      "duration": 0.0181,
      "velocity": 115,
      "chip": "ym2612"
    },
    {
      "channel": 3,
      "note": 107,
      "start": 122.4666,
      "duration": 0.0182,
      "velocity": 115,
      "chip": "ym2612"
    },
    {
      "channel": 3,
      "note": 106,
      "start": 122.4848,
      "duration": 0.0182,
      "velocity": 115,
      "chip": "ym2612"
    },
    {
      "channel": 3,
      "note": 104,
      "start": 122.503,
      "duration": 0.0219,
      "velocity": 115,
      "chip": "ym2612"
    },
    {
      "channel": 1,
      "note": 21,
      "start": 122.5234,
      "duration": 0.0908,
      "velocity": 119,
      "chip": "ym2612"
    },
    {
      "channel": 2,
      "note": 86,
      "start": 122.524,
      "duration": 0.1815,
      "velocity": 127,
      "chip": "ym2612"
    },
    {
      "channel": 3,
      "note": 103,
      "start": 122.5249,
      "duration": 0.0147,
      "velocity": 115,
      "chip": "ym2612"
    },
    {
      "channel": 3,
      "note": 103,
      "start": 122.5396,
      "duration": 0.0181,
      "velocity": 115,
      "chip": "ym2612"
    },
    {
      "channel": 3,
      "note": 102,
      "start": 122.5577,
      "duration": 0.018,
      "velocity": 115,
      "chip": "ym2612"
    },
    {
      "channel": 3,
      "note": 101,
      "start": 122.5758,
      "duration": 0.0182,
      "velocity": 115,
      "chip": "ym2612"
    },
    {
      "channel": 3,
      "note": 100,
      "start": 122.594,
      "duration": 0.021,
      "velocity": 115,
      "chip": "ym2612"
    },
    {
      "channel": 1,
      "note": 40,
      "start": 122.6143,
      "duration": 0.0905,
      "velocity": 127,
      "chip": "ym2612"
    },
    {
      "channel": 3,
      "note": 99,
      "start": 122.615,
      "duration": 0.0157,
      "velocity": 115,
      "chip": "ym2612"
    },
    {
      "channel": 3,
      "note": 98,
      "start": 122.6307,
      "duration": 0.0182,
      "velocity": 115,
      "chip": "ym2612"
    },
    {
      "channel": 3,
      "note": 96,
      "start": 122.6489,
      "duration": 0.0181,
      "velocity": 115,
      "chip": "ym2612"
    },
    {
      "channel": 3,
      "note": 95,
      "start": 122.6671,
      "duration": 0.0179,
      "velocity": 115,
      "chip": "ym2612"
    },
    {
      "channel": 3,
      "note": 94,
      "start": 122.6849,
      "duration": 0.0213,
      "velocity": 115,
      "chip": "ym2612"
    },
    {
      "channel": 1,
      "note": 21,
      "start": 122.7051,
      "duration": 0.1812,
      "velocity": 119,
      "chip": "ym2612"
    },
    {
      "channel": 2,
      "note": 86,
      "start": 122.7056,
      "duration": 0.1812,
      "velocity": 127,
      "chip": "ym2612"
    },
    {
      "channel": 3,
      "note": 92,
      "start": 122.7062,
      "duration": 0.0153,
      "velocity": 115,
      "chip": "ym2612"
    },
    {
      "channel": 3,
      "note": 91,
      "start": 122.7215,
      "duration": 0.0181,
      "velocity": 115,
      "chip": "ym2612"
    },
    {
      "channel": 3,
      "note": 91,
      "start": 122.7396,
      "duration": 0.0181,
      "velocity": 115,
      "chip": "ym2612"
    },
    {
      "channel": 3,
      "note": 90,
      "start": 122.7577,
      "duration": 0.0182,
      "velocity": 115,
      "chip": "ym2612"
    },
    {
      "channel": 3,
      "note": 89,
      "start": 122.7759,
      "duration": 0.0362,
      "velocity": 115,
      "chip": "ym2612"
    },
    {
      "channel": 3,
      "note": 88,
      "start": 122.8121,
      "duration": 0.0182,
      "velocity": 115,
      "chip": "ym2612"
    },
    {
      "channel": 3,
      "note": 87,
      "start": 122.8302,
      "duration": 0.0181,
      "velocity": 115,
      "chip": "ym2612"
    },
    {
      "channel": 3,
      "note": 86,
      "start": 122.8483,
      "duration": 0.0179,
      "velocity": 115,
      "chip": "ym2612"
    },
    {
      "channel": 3,
      "note": 84,
      "start": 122.8662,
      "duration": 0.0213,
      "velocity": 115,
      "chip": "ym2612"
    },
    {
      "channel": 1,
      "note": 40,
      "start": 122.8864,
      "duration": 0.363,
      "velocity": 127,
      "chip": "ym2612"
    },
    {
      "channel": 2,
      "note": 86,
      "start": 122.8869,
      "duration": 0.1789,
      "velocity": 127,
      "chip": "ym2612"
    },
    {
      "channel": 3,
      "note": 83,
      "start": 122.8876,
      "duration": 0.0151,
      "velocity": 115,
      "chip": "ym2612"
    },
    {
      "channel": 3,
      "note": 82,
      "start": 122.9027,
      "duration": 0.0179,
      "velocity": 115,
      "chip": "ym2612"
    },
    {
      "channel": 3,
      "note": 80,
      "start": 122.9206,
      "duration": 0.0181,
      "velocity": 115,
      "chip": "ym2612"
    },
    {
      "channel": 3,
      "note": 79,
      "start": 122.9388,
      "duration": 0.018,
      "velocity": 115,
      "chip": "ym2612"
    },
    {
      "channel": 3,
      "note": 79,
      "start": 122.9568,
      "duration": 0.0362,
      "velocity": 115,
      "chip": "ym2612"
    },
    {
      "channel": 3,
      "note": 78,
      "start": 122.993,
      "duration": 0.0179,
      "velocity": 115,
      "chip": "ym2612"
    },
    {
      "channel": 3,
      "note": 77,
      "start": 123.011,
      "duration": 0.0181,
      "velocity": 115,
      "chip": "ym2612"
    },
    {
      "channel": 3,
      "note": 76,
      "start": 123.0291,
      "duration": 0.0181,
      "velocity": 115,
      "chip": "ym2612"
    },
    {
      "channel": 3,
      "note": 75,
      "start": 123.0472,
      "duration": 0.0193,
      "velocity": 115,
      "chip": "ym2612"
    },
    {
      "channel": 2,
      "note": 86,
      "start": 123.0659,
      "duration": 0.0907,
      "velocity": 127,
      "chip": "ym2612"
    },
    {
      "channel": 3,
      "note": 74,
      "start": 123.0666,
      "duration": 0.0172,
      "velocity": 115,
      "chip": "ym2612"
    },
    {
      "channel": 3,
      "note": 72,
      "start": 123.0838,
      "duration": 0.0181,
      "velocity": 115,
      "chip": "ym2612"
    },
    {
      "channel": 3,
      "note": 71,
      "start": 123.1019,
      "duration": 0.0182,
      "velocity": 115,
      "chip": "ym2612"
    },
    {
      "channel": 3,
      "note": 70,
      "start": 123.1201,
      "duration": 0.0182,
      "velocity": 115,
      "chip": "ym2612"
    },
    {
      "channel": 3,
      "note": 68,
      "start": 123.1383,
      "duration": 0.0191,
      "velocity": 115,
      "chip": "ym2612"
    },
    {
      "channel": 2,
      "note": 86,
      "start": 123.1568,
      "duration": 0.0932,
      "velocity": 127,
      "chip": "ym2612"
    },
    {
      "channel": 3,
      "note": 67,
      "start": 123.1574,
      "duration": 0.0171,
      "velocity": 115,
      "chip": "ym2612"
    },
    {
      "channel": 3,
      "note": 67,
      "start": 123.1745,
      "duration": 0.0182,
      "velocity": 115,
      "chip": "ym2612"
    },
    {
      "channel": 3,
      "note": 66,
      "start": 123.1927,
      "duration": 0.0181,
      "velocity": 115,
      "chip": "ym2612"
    },
    {
      "channel": 3,
      "note": 65,
      "start": 123.2108,
      "duration": 0.0181,
      "velocity": 115,
      "chip": "ym2612"
    },
    {
      "channel": 3,
      "note": 64,
      "start": 123.229,
      "duration": 0.0221,
      "velocity": 115,
      "chip": "ym2612"
    },
    {
      "channel": 1,
      "note": 21,
      "start": 123.2496,
      "duration": 0.1798,
      "velocity": 127,
      "chip": "ym2612"
    },
    {
      "channel": 2,
      "note": 86,
      "start": 123.2501,
      "duration": 0.1797,
      "velocity": 127,
      "chip": "ym2612"
    },
    {
      "channel": 3,
      "note": 63,
      "start": 123.251,
      "duration": 0.0148,
      "velocity": 115,
      "chip": "ym2612"
    },
    {
      "channel": 3,
      "note": 62,
      "start": 123.2658,
      "duration": 0.0182,
      "velocity": 115,
      "chip": "ym2612"
    },
    {
      "channel": 3,
      "note": 60,
      "start": 123.284,
      "duration": 0.0181,
      "velocity": 115,
      "chip": "ym2612"
    },
    {
      "channel": 3,
      "note": 59,
      "start": 123.3022,
      "duration": 0.0181,
      "velocity": 115,
      "chip": "ym2612"
    },
    {
      "channel": 3,
      "note": 58,
      "start": 123.3203,
      "duration": 0.0185,
      "velocity": 115,
      "chip": "ym2612"
    },
    {
      "channel": 3,
      "note": 72,
      "start": 123.3389,
      "duration": 0.0006,
      "velocity": 115,
      "chip": "ym2612"
    },
    {
      "channel": 3,
      "note": 71,
      "start": 123.3395,
      "duration": 0.0171,
      "velocity": 115,
      "chip": "ym2612"
    },
    {
      "channel": 3,
      "note": 69,
      "start": 123.3565,
      "duration": 0.0181,
      "velocity": 115,
      "chip": "ym2612"
    },
    {
      "channel": 3,
      "note": 68,
      "start": 123.3746,
      "duration": 0.0182,
      "velocity": 115,
      "chip": "ym2612"
    },
    {
      "channel": 3,
      "note": 67,
      "start": 123.3928,
      "duration": 0.0181,
      "velocity": 115,
      "chip": "ym2612"
    },
    {
      "channel": 3,
      "note": 66,
      "start": 123.4109,
      "duration": 0.0198,
      "velocity": 115,
      "chip": "ym2612"
    },
    {
      "channel": 1,
      "note": 21,
      "start": 123.4295,
      "duration": 0.1822,
      "velocity": 119,
      "chip": "ym2612"
    },
    {
      "channel": 2,
      "note": 86,
      "start": 123.43,
      "duration": 0.1822,
      "velocity": 127,
      "chip": "ym2612"
    },
    {
      "channel": 3,
      "note": 65,
      "start": 123.4307,
      "duration": 0.0163,
      "velocity": 115,
      "chip": "ym2612"
    },
    {
      "channel": 3,
      "note": 64,
      "start": 123.4469,
      "duration": 0.018,
      "velocity": 115,
      "chip": "ym2612"
    },
    {
      "channel": 3,
      "note": 63,
      "start": 123.4649,
      "duration": 0.018,
      "velocity": 115,
      "chip": "ym2612"
    },
    {
      "channel": 3,
      "note": 62,
      "start": 123.483,
      "duration": 0.0182,
      "velocity": 115,
      "chip": "ym2612"
    },
    {
      "channel": 3,
      "note": 61,
      "start": 123.5012,
      "duration": 0.0362,
      "velocity": 115,
      "chip": "ym2612"
    },
    {
      "channel": 3,
      "note": 60,
      "start": 123.5373,
      "duration": 0.0181,
      "velocity": 115,
      "chip": "ym2612"
    },
    {
      "channel": 3,
      "note": 59,
      "start": 123.5555,
      "duration": 0.0182,
      "velocity": 115,
      "chip": "ym2612"
    },
    {
      "channel": 3,
      "note": 57,
      "start": 123.5737,
      "duration": 0.0181,
      "velocity": 115,
      "chip": "ym2612"
    },
    {
      "channel": 3,
      "note": 56,
      "start": 123.5918,
      "duration": 0.021,
      "velocity": 115,
      "chip": "ym2612"
    },
    {
      "channel": 1,
      "note": 40,
      "start": 123.6118,
      "duration": 0.2704,
      "velocity": 119,
      "chip": "ym2612"
    },
    {
      "channel": 2,
      "note": 86,
      "start": 123.6124,
      "duration": 0.1789,
      "velocity": 127,
      "chip": "ym2612"
    },
    {
      "channel": 3,
      "note": 72,
      "start": 123.613,
      "duration": 0.0006,
      "velocity": 115,
      "chip": "ym2612"
    },
    {
      "channel": 3,
      "note": 71,
      "start": 123.6135,
      "duration": 0.0145,
      "velocity": 115,
      "chip": "ym2612"
    },
    {
      "channel": 3,
      "note": 69,
      "start": 123.628,
      "duration": 0.0182,
      "velocity": 115,
      "chip": "ym2612"
    },
    {
      "channel": 3,
      "note": 68,
      "start": 123.6463,
      "duration": 0.0181,
      "velocity": 115,
      "chip": "ym2612"
    },
    {
      "channel": 3,
      "note": 67,
      "start": 123.6644,
      "duration": 0.0179,
      "velocity": 115,
      "chip": "ym2612"
    },
    {
      "channel": 3,
      "note": 66,
      "start": 123.6823,
      "duration": 0.0362,
      "velocity": 115,
      "chip": "ym2612"
    },
    {
      "channel": 3,
      "note": 65,
      "start": 123.7185,
      "duration": 0.0183,
      "velocity": 115,
      "chip": "ym2612"
    },
    {
      "channel": 3,
      "note": 64,
      "start": 123.7368,
      "duration": 0.018,
      "velocity": 115,
      "chip": "ym2612"
    },
    {
      "channel": 3,
      "note": 63,
      "start": 123.7549,
      "duration": 0.0181,
      "velocity": 115,
      "chip": "ym2612"
    },
    {
      "channel": 3,
      "note": 62,
      "start": 123.773,
      "duration": 0.0189,
      "velocity": 115,
      "chip": "ym2612"
    },
    {
      "channel": 2,
      "note": 86,
      "start": 123.7915,
      "duration": 0.1813,
      "velocity": 127,
      "chip": "ym2612"
    },
    {
      "channel": 3,
      "note": 69,
      "start": 123.7921,
      "duration": 0.0006,
      "velocity": 115,
      "chip": "ym2612"
    },
    {
      "channel": 3,
      "note": 68,
      "start": 123.7927,
      "duration": 0.0166,
      "velocity": 115,
      "chip": "ym2612"
    },
    {
      "channel": 3,
      "note": 67,
      "start": 123.8093,
      "duration": 0.0182,
      "velocity": 115,
      "chip": "ym2612"
    },
    {
      "channel": 3,
      "note": 66,
      "start": 123.8275,
      "duration": 0.0181,
      "velocity": 115,
      "chip": "ym2612"
    },
    {
      "channel": 3,
      "note": 65,
      "start": 123.8456,
      "duration": 0.0181,
      "velocity": 115,
      "chip": "ym2612"
    },
    {
      "channel": 3,
      "note": 64,
      "start": 123.8637,
      "duration": 0.0193,
      "velocity": 115,
      "chip": "ym2612"
    },
    {
      "channel": 1,
      "note": 40,
      "start": 123.8824,
      "duration": 0.1812,
      "velocity": 119,
      "chip": "ym2612"
    },
    {
      "channel": 3,
      "note": 63,
      "start": 123.883,
      "duration": 0.017,
      "velocity": 115,
      "chip": "ym2612"
    },
    {
      "channel": 3,
      "note": 62,
      "start": 123.9,
      "duration": 0.0182,
      "velocity": 115,
      "chip": "ym2612"
    },
    {
      "channel": 3,
      "note": 61,
      "start": 123.9182,
      "duration": 0.0181,
      "velocity": 115,
      "chip": "ym2612"
    },
    {
      "channel": 3,
      "note": 60,
      "start": 123.9363,
      "duration": 0.018,
      "velocity": 115,
      "chip": "ym2612"
    },
    {
      "channel": 3,
      "note": 58,
      "start": 123.9543,
      "duration": 0.0193,
      "velocity": 115,
      "chip": "ym2612"
    },
    {
      "channel": 2,
      "note": 86,
      "start": 123.973,
      "duration": 0.1829,
      "velocity": 127,
      "chip": "ym2612"
    },
    {
      "channel": 3,
      "note": 57,
      "start": 123.9737,
      "duration": 0.0169,
      "velocity": 115,
      "chip": "ym2612"
    },
    {
      "channel": 3,
      "note": 56,
      "start": 123.9906,
      "duration": 0.0183,
      "velocity": 115,
      "chip": "ym2612"
    },
    {
      "channel": 3,
      "note": 55,
      "start": 124.0089,
      "duration": 0.0181,
      "velocity": 115,
      "chip": "ym2612"
    },
    {
      "channel": 3,
      "note": 54,
      "start": 124.027,
      "duration": 0.0183,
      "velocity": 115,
      "chip": "ym2612"
    },
    {
      "channel": 3,
      "note": 53,
      "start": 124.0453,
      "duration": 0.019,
      "velocity": 115,
      "chip": "ym2612"
    },
    {
      "channel": 1,
      "note": 40,
      "start": 124.0638,
      "duration": 0.0917,
      "velocity": 127,
      "chip": "ym2612"
    },
    {
      "channel": 3,
      "note": 72,
      "start": 124.0644,
      "duration": 0.0005,
      "velocity": 115,
      "chip": "ym2612"
    },
    {
      "channel": 3,
      "note": 71,
      "start": 124.0649,
      "duration": 0.0165,
      "velocity": 115,
      "chip": "ym2612"
    },
    {
      "channel": 3,
      "note": 69,
      "start": 124.0815,
      "duration": 0.0181,
      "velocity": 115,
      "chip": "ym2612"
    },
    {
      "channel": 3,
      "note": 68,
      "start": 124.0996,
      "duration": 0.0179,
      "velocity": 115,
      "chip": "ym2612"
    },
    {
      "channel": 3,
      "note": 67,
      "start": 124.1175,
      "duration": 0.0181,
      "velocity": 115,
      "chip": "ym2612"
    },
    {
      "channel": 3,
      "note": 66,
      "start": 124.1356,
      "duration": 0.0211,
      "velocity": 115,
      "chip": "ym2612"
    },
    {
      "channel": 1,
      "note": 21,
      "start": 124.1556,
      "duration": 0.0895,
      "velocity": 127,
      "chip": "ym2612"
    },
    {
      "channel": 2,
      "note": 86,
      "start": 124.1562,
      "duration": 0.1812,
      "velocity": 127,
      "chip": "ym2612"
    },
    {
      "channel": 3,
      "note": 65,
      "start": 124.1567,
      "duration": 0.0152,
      "velocity": 115,
      "chip": "ym2612"
    },
    {
      "channel": 3,
      "note": 64,
      "start": 124.172,
      "duration": 0.0182,
      "velocity": 115,
      "chip": "ym2612"
    },
    {
      "channel": 3,
      "note": 63,
      "start": 124.1901,
      "duration": 0.0182,
      "velocity": 115,
      "chip": "ym2612"
    },
    {
      "channel": 3,
      "note": 62,
      "start": 124.2084,
      "duration": 0.0181,
      "velocity": 115,
      "chip": "ym2612"
    },
    {
      "channel": 3,
      "note": 61,
      "start": 124.2265,
      "duration": 0.0194,
      "velocity": 115,
      "chip": "ym2612"
    },
    {
      "channel": 1,
      "note": 21,
      "start": 124.2452,
      "duration": 0.0915,
      "velocity": 119,
      "chip": "ym2612"
    },
    {
      "channel": 3,
      "note": 60,
      "start": 124.2459,
      "duration": 0.017,
      "velocity": 115,
      "chip": "ym2612"
    },
    {
      "channel": 3,
      "note": 59,
      "start": 124.2629,
      "duration": 0.0181,
      "velocity": 115,
      "chip": "ym2612"
    },
    {
      "channel": 3,
      "note": 57,
      "start": 124.281,
      "duration": 0.0178,
      "velocity": 115,
      "chip": "ym2612"
    },
    {
      "channel": 3,
      "note": 56,
      "start": 124.2988,
      "duration": 0.018,
      "velocity": 115,
      "chip": "ym2612"
    },
    {
      "channel": 3,
      "note": 55,
      "start": 124.3168,
      "duration": 0.0211,
      "velocity": 115,
      "chip": "ym2612"
    },
    {
      "channel": 1,
      "note": 40,
      "start": 124.3369,
      "duration": 0.0893,
      "velocity": 119,
      "chip": "ym2612"
    },
    {
      "channel": 2,
      "note": 86,
      "start": 124.3375,
      "duration": 0.1811,
      "velocity": 127,
      "chip": "ym2612"
    },
    {
      "channel": 3,
      "note": 76,
      "start": 124.3381,
      "duration": 0.0006,
      "velocity": 115,
      "chip": "ym2612"
    },
    {
      "channel": 3,
      "note": 75,
      "start": 124.3387,
      "duration": 0.0147,
      "velocity": 115,
      "chip": "ym2612"
    },
    {
      "channel": 3,
      "note": 74,
      "start": 124.3534,
      "duration": 0.0181,
      "velocity": 115,
      "chip": "ym2612"
    },
    {
      "channel": 3,
      "note": 73,
      "start": 124.3715,
      "duration": 0.0182,
      "velocity": 115,
      "chip": "ym2612"
    },
    {
      "channel": 3,
      "note": 72,
      "start": 124.3897,
      "duration": 0.0182,
      "velocity": 115,
      "chip": "ym2612"
    },
    {
      "channel": 3,
      "note": 70,
      "start": 124.4079,
      "duration": 0.0191,
      "velocity": 115,
      "chip": "ym2612"
    },
    {
      "channel": 1,
      "note": 40,
      "start": 124.4265,
      "duration": 0.0916,
      "velocity": 127,
      "chip": "ym2612"
    },
    {
      "channel": 3,
      "note": 76,
      "start": 124.4271,
      "duration": 0.0006,
      "velocity": 115,
      "chip": "ym2612"
    },
    {
      "channel": 3,
      "note": 75,
      "start": 124.4277,
      "duration": 0.0163,
      "velocity": 115,
      "chip": "ym2612"
    },
    {
      "channel": 3,
      "note": 74,
      "start": 124.444,
      "duration": 0.0179,
      "velocity": 115,
      "chip": "ym2612"
    },
    {
      "channel": 3,
      "note": 73,
      "start": 124.4619,
      "duration": 0.0182,
      "velocity": 115,
      "chip": "ym2612"
    },
    {
      "channel": 3,
      "note": 72,
      "start": 124.4801,
      "duration": 0.0181,
      "velocity": 115,
      "chip": "ym2612"
    },
    {
      "channel": 3,
      "note": 70,
      "start": 124.4983,
      "duration": 0.021,
      "velocity": 115,
      "chip": "ym2612"
    },
    {
      "channel": 1,
      "note": 21,
      "start": 124.5182,
      "duration": 0.1835,
      "velocity": 102,
      "chip": "ym2612"
    },
    {
      "channel": 2,
      "note": 86,
      "start": 124.5188,
      "duration": 0.0886,
      "velocity": 127,
      "chip": "ym2612"
    },
    {
      "channel": 3,
      "note": 69,
      "start": 124.5194,
      "duration": 0.0009,
      "velocity": 115,
      "chip": "ym2612"
    },
    {
      "channel": 3,
      "note": 68,
      "start": 124.5203,
      "duration": 0.0144,
      "velocity": 115,
      "chip": "ym2612"
    },
    {
      "channel": 3,
      "note": 67,
      "start": 124.5346,
      "duration": 0.0181,
      "velocity": 115,
      "chip": "ym2612"
    },
    {
      "channel": 3,
      "note": 66,
      "start": 124.5527,
      "duration": 0.0183,
      "velocity": 115,
      "chip": "ym2612"
    },
    {
      "channel": 3,
      "note": 65,
      "start": 124.571,
      "duration": 0.018,
      "velocity": 115,
      "chip": "ym2612"
    },
    {
      "channel": 3,
      "note": 64,
      "start": 124.589,
      "duration": 0.0192,
      "velocity": 115,
      "chip": "ym2612"
    },
    {
      "channel": 2,
      "note": 86,
      "start": 124.6076,
      "duration": 0.0962,
      "velocity": 102,
      "chip": "ym2612"
    },
    {
      "channel": 3,
      "note": 63,
      "start": 124.6082,
      "duration": 0.0171,
      "velocity": 115,
      "chip": "ym2612"
    },
    {
      "channel": 3,
      "note": 62,
      "start": 124.6253,
      "duration": 0.0181,
      "velocity": 115,
      "chip": "ym2612"
    },
    {
      "channel": 3,
      "note": 61,
      "start": 124.6434,
      "duration": 0.0181,
      "velocity": 115,
      "chip": "ym2612"
    },
    {
      "channel": 3,
      "note": 60,
      "start": 124.6615,
      "duration": 0.0179,
      "velocity": 115,
      "chip": "ym2612"
    },
    {
      "channel": 3,
      "note": 58,
      "start": 124.6795,
      "duration": 0.0265,
      "velocity": 102,
      "chip": "ym2612"
    },
    {
      "channel": 0,
      "note": 21,
      "start": 124.6998,
      "duration": 0.1813,
      "velocity": 127,
      "chip": "ym2612"
    },
    {
      "channel": 1,
      "note": 67,
      "start": 124.7019,
      "duration": 1.4466,
      "velocity": 102,
      "chip": "ym2612"
    },
    {
      "channel": 2,
      "note": 72,
      "start": 124.7041,
      "duration": 1.445,
      "velocity": 102,
      "chip": "ym2612"
    },
    {
      "channel": 3,
      "note": 62,
      "start": 124.7062,
      "duration": 1.4435,
      "velocity": 102,
      "chip": "ym2612"
    },
    {
      "channel": 0,
      "note": 74,
      "start": 124.8813,
      "duration": 0.0888,
      "velocity": 127,
      "chip": "ym2612"
    },
    {
      "channel": 0,
      "note": 74,
      "start": 124.9702,
      "duration": 0.0919,
      "velocity": 119,
      "chip": "ym2612"
    },
    {
      "channel": 0,
      "note": 31,
      "start": 125.0624,
      "duration": 0.0901,
      "velocity": 127,
      "chip": "ym2612"
    },
    {
      "channel": 0,
      "note": 74,
      "start": 125.1526,
      "duration": 0.0887,
      "velocity": 127,
      "chip": "ym2612"
    },
    {
      "channel": 0,
      "note": 74,
      "start": 125.2415,
      "duration": 0.1807,
      "velocity": 127,
      "chip": "ym2612"
    },
    {
      "channel": 0,
      "note": 74,
      "start": 125.4223,
      "duration": 0.0901,
      "velocity": 127,
      "chip": "ym2612"
    },
    {
      "channel": 0,
      "note": 74,
      "start": 125.5125,
      "duration": 0.0916,
      "velocity": 127,
      "chip": "ym2612"
    },
    {
      "channel": 0,
      "note": 21,
      "start": 125.6043,
      "duration": 0.0906,
      "velocity": 127,
      "chip": "ym2612"
    },
    {
      "channel": 0,
      "note": 74,
      "start": 125.695,
      "duration": 0.0904,
      "velocity": 119,
      "chip": "ym2612"
    },
    {
      "channel": 0,
      "note": 31,
      "start": 125.7856,
      "duration": 0.181,
      "velocity": 127,
      "chip": "ym2612"
    },
    {
      "channel": 0,
      "note": 74,
      "start": 125.9667,
      "duration": 0.0889,
      "velocity": 127,
      "chip": "ym2612"
    },
    {
      "channel": 0,
      "note": 74,
      "start": 126.0558,
      "duration": 0.0922,
      "velocity": 127,
      "chip": "ym2612"
    },
    {
      "channel": 0,
      "note": 21,
      "start": 126.1481,
      "duration": 0.1805,
      "velocity": 127,
      "chip": "ym2612"
    },
    {
      "channel": 1,
      "note": 76,
      "start": 126.1487,
      "duration": 1.0857,
      "velocity": 102,
      "chip": "ym2612"
    },
    {
      "channel": 2,
      "note": 72,
      "start": 126.1493,
      "duration": 1.0857,
      "velocity": 102,
      "chip": "ym2612"
    },
    {
      "channel": 3,
      "note": 67,
      "start": 126.1498,
      "duration": 1.0857,
      "velocity": 102,
      "chip": "ym2612"
    },
    {
      "channel": 0,
      "note": 74,
      "start": 126.3289,
      "duration": 0.089,
      "velocity": 127,
      "chip": "ym2612"
    },
    {
      "channel": 0,
      "note": 74,
      "start": 126.418,
      "duration": 0.0919,
      "velocity": 119,
      "chip": "ym2612"
    },
    {
      "channel": 0,
      "note": 31,
      "start": 126.51,
      "duration": 0.0904,
      "velocity": 127,
      "chip": "ym2612"
    },
    {
      "channel": 0,
      "note": 74,
      "start": 126.6006,
      "duration": 0.0903,
      "velocity": 127,
      "chip": "ym2612"
    },
    {
      "channel": 0,
      "note": 21,
      "start": 126.691,
      "duration": 0.0905,
      "velocity": 127,
      "chip": "ym2612"
    },
    {
      "channel": 0,
      "note": 74,
      "start": 126.7816,
      "duration": 0.0889,
      "velocity": 127,
      "chip": "ym2612"
    },
    {
      "channel": 0,
      "note": 74,
      "start": 126.8707,
      "duration": 0.1822,
      "velocity": 127,
      "chip": "ym2612"
    },
    {
      "channel": 0,
      "note": 21,
      "start": 127.0531,
      "duration": 0.1807,
      "velocity": 119,
      "chip": "ym2612"
    },
    {
      "channel": 0,
      "note": 31,
      "start": 127.2341,
      "duration": 0.0904,
      "velocity": 127,
      "chip": "ym2612"
    },
    {
      "channel": 1,
      "note": 79,
      "start": 127.2346,
      "duration": 0.3622,
      "velocity": 102,
      "chip": "ym2612"
    },
    {
      "channel": 2,
      "note": 76,
      "start": 127.2351,
      "duration": 0.3622,
      "velocity": 102,
      "chip": "ym2612"
    },
    {
      "channel": 3,
      "note": 72,
      "start": 127.2357,
      "duration": 0.3622,
      "velocity": 102,
      "chip": "ym2612"
    },
    {
      "channel": 0,
      "note": 74,
      "start": 127.3246,
      "duration": 0.0888,
      "velocity": 127,
      "chip": "ym2612"
    },
    {
      "channel": 0,
      "note": 74,
      "start": 127.4135,
      "duration": 0.0905,
      "velocity": 127,
      "chip": "ym2612"
    },
    {
      "channel": 0,
      "note": 74,
      "start": 127.5042,
      "duration": 0.0921,
      "velocity": 127,
      "chip": "ym2612"
    },
    {
      "channel": 0,
      "note": 21,
      "start": 127.5964,
      "duration": 0.181,
      "velocity": 127,
      "chip": "ym2612"
    },
    {
      "channel": 1,
      "note": 78,
      "start": 127.597,
      "duration": 2.8982,
      "velocity": 127,
      "chip": "ym2612"
    },
    {
      "channel": 2,
      "note": 74,
      "start": 127.5976,
      "duration": 16.7983,
      "velocity": 102,
      "chip": "ym2612"
    },
    {
      "channel": 3,
      "note": 69,
      "start": 127.5981,
      "duration": 16.7977,
      "velocity": 102,
      "chip": "ym2612"
    },
    {
      "channel": 0,
      "note": 74,
      "start": 127.7775,
      "duration": 0.0891,
      "velocity": 127,
      "chip": "ym2612"
    },
    {
      "channel": 0,
      "note": 74,
      "start": 127.8668,
      "duration": 0.0919,
      "velocity": 119,
      "chip": "ym2612"
    },
    {
      "channel": 0,
      "note": 31,
      "start": 127.9588,
      "duration": 0.0907,
      "velocity": 127,
      "chip": "ym2612"
    },
    {
      "channel": 0,
      "note": 74,
      "start": 128.0496,
      "duration": 0.0888,
      "velocity": 127,
      "chip": "ym2612"
    },
    {
      "channel": 0,
      "note": 74,
      "start": 128.1386,
      "duration": 0.1808,
      "velocity": 127,
      "chip": "ym2612"
    },
    {
      "channel": 0,
      "note": 74,
      "start": 128.3195,
      "duration": 0.09,
      "velocity": 127,
      "chip": "ym2612"
    },
    {
      "channel": 0,
      "note": 74,
      "start": 128.4098,
      "duration": 0.0916,
      "velocity": 127,
      "chip": "ym2612"
    },
    {
      "channel": 0,
      "note": 21,
      "start": 128.5015,
      "duration": 0.0905,
      "velocity": 127,
      "chip": "ym2612"
    },
    {
      "channel": 0,
      "note": 74,
      "start": 128.5922,
      "duration": 0.0906,
      "velocity": 119,
      "chip": "ym2612"
    },
    {
      "channel": 0,
      "note": 31,
      "start": 128.6829,
      "duration": 0.181,
      "velocity": 127,
      "chip": "ym2612"
    },
    {
      "channel": 0,
      "note": 74,
      "start": 128.864,
      "duration": 0.089,
      "velocity": 127,
      "chip": "ym2612"
    },
    {
      "channel": 0,
      "note": 74,
      "start": 128.9532,
      "duration": 0.0921,
      "velocity": 127,
      "chip": "ym2612"
    },
    {
      "channel": 0,
      "note": 21,
      "start": 129.0454,
      "duration": 0.1809,
      "velocity": 127,
      "chip": "ym2612"
    },
    {
      "channel": 0,
      "note": 74,
      "start": 129.2265,
      "duration": 0.0888,
      "velocity": 127,
      "chip": "ym2612"
    },
    {
      "channel": 0,
      "note": 74,
      "start": 129.3154,
      "duration": 0.0917,
      "velocity": 119,
      "chip": "ym2612"
    },
    {
      "channel": 0,
      "note": 31,
      "start": 129.4072,
      "duration": 0.0903,
      "velocity": 127,
      "chip": "ym2612"
    },
    {
      "channel": 0,
      "note": 74,
      "start": 129.4977,
      "duration": 0.0903,
      "velocity": 127,
      "chip": "ym2612"
    },
    {
      "channel": 0,
      "note": 21,
      "start": 129.5882,
      "duration": 0.181,
      "velocity": 127,
      "chip": "ym2612"
    },
    {
      "channel": 0,
      "note": 74,
      "start": 129.7694,
      "duration": 0.0891,
      "velocity": 127,
      "chip": "ym2612"
    },
    {
      "channel": 0,
      "note": 74,
      "start": 129.8587,
      "duration": 0.0915,
      "velocity": 127,
      "chip": "ym2612"
    },
    {
      "channel": 0,
      "note": 21,
      "start": 129.9503,
      "duration": 0.0902,
      "velocity": 127,
      "chip": "ym2612"
    },
    {
      "channel": 0,
      "note": 74,
      "start": 130.0407,
      "duration": 0.0904,
      "velocity": 119,
      "chip": "ym2612"
    },
    {
      "channel": 0,
      "note": 31,
      "start": 130.1312,
      "duration": 0.0902,
      "velocity": 127,
      "chip": "ym2612"
    },
    {
      "channel": 0,
      "note": 74,
      "start": 130.2216,
      "duration": 0.0888,
      "velocity": 127,
      "chip": "ym2612"
    },
    {
      "channel": 0,
      "note": 74,
      "start": 130.3106,
      "duration": 0.0902,
      "velocity": 127,
      "chip": "ym2612"
    },
    {
      "channel": 0,
      "note": 74,
      "start": 130.401,
      "duration": 0.092,
      "velocity": 89,
      "chip": "ym2612"
    },
    {
      "channel": 0,
      "note": 50,
      "start": 130.4932,
      "duration": 0.1793,
      "velocity": 89,
      "chip": "ym2612"
    },
    {
      "channel": 1,
      "note": 21,
      "start": 130.4954,
      "duration": 0.1793,
      "velocity": 127,
      "chip": "ym2612"
    },
    {
      "channel": 0,
      "note": 62,
      "start": 130.6726,
      "duration": 13.7232,
      "velocity": 89,
      "chip": "ym2612"
    },
    {
      "channel": 1,
      "note": 74,
      "start": 130.6747,
      "duration": 0.0885,
      "velocity": 127,
      "chip": "ym2612"
    },
    {
      "channel": 1,
      "note": 74,
      "start": 130.7634,
      "duration": 13.6324,
      "velocity": 127,
      "chip": "ym2612"
    }
  ]
}