{
  "track_name": "02 - Radical Rex 2",
  "duration_sec": 34.638,
  "sample_rate": 44100,
  "note_count": 401,
  "unique_pitches": 29,
  "pitch_range": 69,
  "avg_note_duration": 0.2398,
  "reconstruction_stats": {
    "notes_reconstructed": 401,
    "keyon_events": 401,
    "keyoff_events": 401,
    "orphan_keyons": 0,
    "unique_pitches": 29,
    "pitch_range": 69,
    "avg_duration_sec": 0.2398
  },
  "metadata": {
    "source": "R\\Radical Rex\\02 - Radical Rex 2.vgm"
  },
  "notes": [
    {
      "channel": 3,
      "note": 28,
      "start": 0.0008,
      "duration": 0.1176,
      "velocity": 110,
      "chip": "ym2612"
    },
    {
      "channel": 4,
      "note": 49,
      "start": 0.0048,
      "duration": 0.1188,
      "velocity": 123,
      "chip": "ym2612"
    },
    {
      "channel": 2,
      "note": 77,
      "start": 0.0074,
      "duration": 0.0626,
      "velocity": 101,
      "chip": "ym2612"
    },
    {
      "channel": 1,
      "note": 49,
      "start": 0.01,
      "duration": 0.9493,
      "velocity": 98,
      "chip": "ym2612"
    },
    {
      "channel": 0,
      "note": 53,
      "start": 0.013,
      "duration": 0.9088,
      "velocity": 98,
      "chip": "ym2612"
    },
    {
      "channel": 4,
      "note": 53,
      "start": 0.1255,
      "duration": 0.0594,
      "velocity": 123,
      "chip": "ym2612"
    },
    {
      "channel": 4,
      "note": 61,
      "start": 0.2629,
      "duration": 0.1738,
      "velocity": 123,
      "chip": "ym2612"
    },
    {
      "channel": 2,
      "note": 77,
      "start": 0.266,
      "duration": 0.0897,
      "velocity": 101,
      "chip": "ym2612"
    },
    {
      "channel": 3,
      "note": 68,
      "start": 0.5364,
      "duration": 0.0654,
      "velocity": 115,
      "chip": "ym2612"
    },
    {
      "channel": 2,
      "note": 75,
      "start": 0.5397,
      "duration": 0.0802,
      "velocity": 101,
      "chip": "ym2612"
    },
    {
      "channel": 2,
      "note": 77,
      "start": 0.6731,
      "duration": 0.0657,
      "velocity": 101,
      "chip": "ym2612"
    },
    {
      "channel": 3,
      "note": 28,
      "start": 0.8102,
      "duration": 0.125,
      "velocity": 110,
      "chip": "ym2612"
    },
    {
      "channel": 4,
      "note": 49,
      "start": 0.8133,
      "duration": 0.0628,
      "velocity": 123,
      "chip": "ym2612"
    },
    {
      "channel": 3,
      "note": 28,
      "start": 0.9475,
      "duration": 0.121,
      "velocity": 110,
      "chip": "ym2612"
    },
    {
      "channel": 4,
      "note": 49,
      "start": 0.9506,
      "duration": 0.1885,
      "velocity": 123,
      "chip": "ym2612"
    },
    {
      "channel": 2,
      "note": 80,
      "start": 0.9549,
      "duration": 0.9969,
      "velocity": 101,
      "chip": "ym2612"
    },
    {
      "channel": 0,
      "note": 47,
      "start": 0.9581,
      "duration": 1.2345,
      "velocity": 98,
      "chip": "ym2612"
    },
    {
      "channel": 1,
      "note": 51,
      "start": 0.9612,
      "duration": 1.2346,
      "velocity": 98,
      "chip": "ym2612"
    },
    {
      "channel": 4,
      "note": 49,
      "start": 1.224,
      "duration": 0.0866,
      "velocity": 123,
      "chip": "ym2612"
    },
    {
      "channel": 4,
      "note": 53,
      "start": 1.3607,
      "duration": 0.0644,
      "velocity": 123,
      "chip": "ym2612"
    },
    {
      "channel": 4,
      "note": 56,
      "start": 1.4978,
      "duration": 0.0759,
      "velocity": 123,
      "chip": "ym2612"
    },
    {
      "channel": 3,
      "note": 68,
      "start": 1.6332,
      "duration": 0.0686,
      "velocity": 115,
      "chip": "ym2612"
    },
    {
      "channel": 4,
      "note": 59,
      "start": 1.6376,
      "duration": 0.2163,
      "velocity": 123,
      "chip": "ym2612"
    },
    {
      "channel": 4,
      "note": 58,
      "start": 1.908,
      "duration": 0.0785,
      "velocity": 123,
      "chip": "ym2612"
    },
    {
      "channel": 3,
      "note": 68,
      "start": 2.0454,
      "duration": 0.0732,
      "velocity": 115,
      "chip": "ym2612"
    },
    {
      "channel": 4,
      "note": 56,
      "start": 2.0486,
      "duration": 0.0855,
      "velocity": 123,
      "chip": "ym2612"
    },
    {
      "channel": 3,
      "note": 28,
      "start": 2.1838,
      "duration": 0.1179,
      "velocity": 110,
      "chip": "ym2612"
    },
    {
      "channel": 4,
      "note": 49,
      "start": 2.1881,
      "duration": 0.0718,
      "velocity": 123,
      "chip": "ym2612"
    },
    {
      "channel": 2,
      "note": 80,
      "start": 2.1913,
      "duration": 0.069,
      "velocity": 101,
      "chip": "ym2612"
    },
    {
      "channel": 0,
      "note": 53,
      "start": 2.1945,
      "duration": 2.0727,
      "velocity": 98,
      "chip": "ym2612"
    },
    {
      "channel": 1,
      "note": 49,
      "start": 2.1976,
      "duration": 2.0694,
      "velocity": 98,
      "chip": "ym2612"
    },
    {
      "channel": 4,
      "note": 49,
      "start": 2.3224,
      "duration": 0.0643,
      "velocity": 123,
      "chip": "ym2612"
    },
    {
      "channel": 4,
      "note": 49,
      "start": 2.4585,
      "duration": 0.2245,
      "velocity": 123,
      "chip": "ym2612"
    },
    {
      "channel": 2,
      "note": 80,
      "start": 2.4617,
      "duration": 0.0955,
      "velocity": 101,
      "chip": "ym2612"
    },
    {
      "channel": 3,
      "note": 68,
      "start": 2.731,
      "duration": 0.0707,
      "velocity": 115,
      "chip": "ym2612"
    },
    {
      "channel": 2,
      "note": 78,
      "start": 2.7351,
      "duration": 0.0852,
      "velocity": 101,
      "chip": "ym2612"
    },
    {
      "channel": 2,
      "note": 80,
      "start": 2.8699,
      "duration": 0.0705,
      "velocity": 101,
      "chip": "ym2612"
    },
    {
      "channel": 3,
      "note": 28,
      "start": 3.0061,
      "duration": 0.1291,
      "velocity": 110,
      "chip": "ym2612"
    },
    {
      "channel": 4,
      "note": 49,
      "start": 3.0092,
      "duration": 0.0685,
      "velocity": 123,
      "chip": "ym2612"
    },
    {
      "channel": 3,
      "note": 28,
      "start": 3.1431,
      "duration": 0.1253,
      "velocity": 110,
      "chip": "ym2612"
    },
    {
      "channel": 4,
      "note": 49,
      "start": 3.1463,
      "duration": 0.1543,
      "velocity": 123,
      "chip": "ym2612"
    },
    {
      "channel": 2,
      "note": 77,
      "start": 3.1494,
      "duration": 0.9059,
      "velocity": 101,
      "chip": "ym2612"
    },
    {
      "channel": 4,
      "note": 49,
      "start": 3.4201,
      "duration": 0.1357,
      "velocity": 123,
      "chip": "ym2612"
    },
    {
      "channel": 4,
      "note": 53,
      "start": 3.5577,
      "duration": 0.0745,
      "velocity": 123,
      "chip": "ym2612"
    },
    {
      "channel": 4,
      "note": 54,
      "start": 3.6937,
      "duration": 0.03,
      "velocity": 123,
      "chip": "ym2612"
    },
    {
      "channel": 3,
      "note": 68,
      "start": 3.8289,
      "duration": 0.073,
      "velocity": 115,
      "chip": "ym2612"
    },
    {
      "channel": 4,
      "note": 56,
      "start": 3.8321,
      "duration": 0.2576,
      "velocity": 123,
      "chip": "ym2612"
    },
    {
      "channel": 4,
      "note": 54,
      "start": 4.1063,
      "duration": 0.0578,
      "velocity": 123,
      "chip": "ym2612"
    },
    {
      "channel": 3,
      "note": 68,
      "start": 4.2407,
      "duration": 0.0778,
      "velocity": 115,
      "chip": "ym2612"
    },
    {
      "channel": 4,
      "note": 53,
      "start": 4.2439,
      "duration": 0.0688,
      "velocity": 123,
      "chip": "ym2612"
    },
    {
      "channel": 3,
      "note": 28,
      "start": 4.3795,
      "duration": 0.1222,
      "velocity": 110,
      "chip": "ym2612"
    },
    {
      "channel": 4,
      "note": 49,
      "start": 4.3827,
      "duration": 0.1325,
      "velocity": 123,
      "chip": "ym2612"
    },
    {
      "channel": 2,
      "note": 85,
      "start": 4.3871,
      "duration": 0.0686,
      "velocity": 101,
      "chip": "ym2612"
    },
    {
      "channel": 0,
      "note": 49,
      "start": 4.3902,
      "duration": 0.9568,
      "velocity": 98,
      "chip": "ym2612"
    },
    {
      "channel": 1,
      "note": 53,
      "start": 4.3927,
      "duration": 0.9575,
      "velocity": 98,
      "chip": "ym2612"
    },
    {
      "channel": 4,
      "note": 53,
      "start": 4.5171,
      "duration": 0.0586,
      "velocity": 123,
      "chip": "ym2612"
    },
    {
      "channel": 4,
      "note": 61,
      "start": 4.6555,
      "duration": 0.1718,
      "velocity": 123,
      "chip": "ym2612"
    },
    {
      "channel": 2,
      "note": 85,
      "start": 4.6586,
      "duration": 0.1746,
      "velocity": 101,
      "chip": "ym2612"
    },
    {
      "channel": 3,
      "note": 68,
      "start": 4.9268,
      "duration": 0.0751,
      "velocity": 115,
      "chip": "ym2612"
    },
    {
      "channel": 2,
      "note": 83,
      "start": 4.9301,
      "duration": 0.2347,
      "velocity": 101,
      "chip": "ym2612"
    },
    {
      "channel": 3,
      "note": 28,
      "start": 5.2027,
      "duration": 0.1156,
      "velocity": 110,
      "chip": "ym2612"
    },
    {
      "channel": 4,
      "note": 49,
      "start": 5.2059,
      "duration": 0.0625,
      "velocity": 123,
      "chip": "ym2612"
    },
    {
      "channel": 2,
      "note": 82,
      "start": 5.209,
      "duration": 0.0643,
      "velocity": 101,
      "chip": "ym2612"
    },
    {
      "channel": 3,
      "note": 28,
      "start": 5.3394,
      "duration": 0.1294,
      "velocity": 110,
      "chip": "ym2612"
    },
    {
      "channel": 4,
      "note": 49,
      "start": 5.3425,
      "duration": 0.1882,
      "velocity": 123,
      "chip": "ym2612"
    },
    {
      "channel": 2,
      "note": 83,
      "start": 5.3457,
      "duration": 0.1744,
      "velocity": 101,
      "chip": "ym2612"
    },
    {
      "channel": 0,
      "note": 47,
      "start": 5.3489,
      "duration": 1.2385,
      "velocity": 98,
      "chip": "ym2612"
    },
    {
      "channel": 1,
      "note": 51,
      "start": 5.3533,
      "duration": 1.1037,
      "velocity": 98,
      "chip": "ym2612"
    },
    {
      "channel": 4,
      "note": 49,
      "start": 5.6146,
      "duration": 0.0887,
      "velocity": 123,
      "chip": "ym2612"
    },
    {
      "channel": 2,
      "note": 83,
      "start": 5.6186,
      "duration": 0.1361,
      "velocity": 101,
      "chip": "ym2612"
    },
    {
      "channel": 4,
      "note": 53,
      "start": 5.7534,
      "duration": 0.0633,
      "velocity": 123,
      "chip": "ym2612"
    },
    {
      "channel": 2,
      "note": 82,
      "start": 5.7566,
      "duration": 0.2315,
      "velocity": 101,
      "chip": "ym2612"
    },
    {
      "channel": 4,
      "note": 56,
      "start": 5.89,
      "duration": 0.0752,
      "velocity": 123,
      "chip": "ym2612"
    },
    {
      "channel": 3,
      "note": 68,
      "start": 6.0247,
      "duration": 0.0771,
      "velocity": 115,
      "chip": "ym2612"
    },
    {
      "channel": 4,
      "note": 59,
      "start": 6.0279,
      "duration": 0.2175,
      "velocity": 123,
      "chip": "ym2612"
    },
    {
      "channel": 2,
      "note": 80,
      "start": 6.031,
      "duration": 0.2487,
      "velocity": 101,
      "chip": "ym2612"
    },
    {
      "channel": 4,
      "note": 58,
      "start": 6.2996,
      "duration": 0.0773,
      "velocity": 123,
      "chip": "ym2612"
    },
    {
      "channel": 2,
      "note": 78,
      "start": 6.3039,
      "duration": 0.096,
      "velocity": 101,
      "chip": "ym2612"
    },
    {
      "channel": 3,
      "note": 68,
      "start": 6.4378,
      "duration": 0.064,
      "velocity": 115,
      "chip": "ym2612"
    },
    {
      "channel": 4,
      "note": 56,
      "start": 6.4411,
      "duration": 0.0846,
      "velocity": 123,
      "chip": "ym2612"
    },
    {
      "channel": 3,
      "note": 28,
      "start": 6.5753,
      "duration": 0.1264,
      "velocity": 110,
      "chip": "ym2612"
    },
    {
      "channel": 4,
      "note": 49,
      "start": 6.5785,
      "duration": 0.0749,
      "velocity": 123,
      "chip": "ym2612"
    },
    {
      "channel": 2,
      "note": 80,
      "start": 6.5816,
      "duration": 0.0983,
      "velocity": 101,
      "chip": "ym2612"
    },
    {
      "channel": 1,
      "note": 53,
      "start": 6.5862,
      "duration": 2.1184,
      "velocity": 98,
      "chip": "ym2612"
    },
    {
      "channel": 0,
      "note": 49,
      "start": 6.5893,
      "duration": 2.1092,
      "velocity": 98,
      "chip": "ym2612"
    },
    {
      "channel": 4,
      "note": 49,
      "start": 6.7129,
      "duration": 0.0643,
      "velocity": 123,
      "chip": "ym2612"
    },
    {
      "channel": 4,
      "note": 49,
      "start": 6.8501,
      "duration": 0.2246,
      "velocity": 123,
      "chip": "ym2612"
    },
    {
      "channel": 2,
      "note": 80,
      "start": 6.8544,
      "duration": 0.2697,
      "velocity": 101,
      "chip": "ym2612"
    },
    {
      "channel": 3,
      "note": 68,
      "start": 7.1227,
      "duration": 0.0791,
      "velocity": 115,
      "chip": "ym2612"
    },
    {
      "channel": 2,
      "note": 78,
      "start": 7.126,
      "duration": 0.1326,
      "velocity": 101,
      "chip": "ym2612"
    },
    {
      "channel": 2,
      "note": 80,
      "start": 7.2604,
      "duration": 0.163,
      "velocity": 101,
      "chip": "ym2612"
    },
    {
      "channel": 3,
      "note": 28,
      "start": 7.3974,
      "duration": 0.1211,
      "velocity": 110,
      "chip": "ym2612"
    },
    {
      "channel": 4,
      "note": 49,
      "start": 7.4006,
      "duration": 0.0695,
      "velocity": 123,
      "chip": "ym2612"
    },
    {
      "channel": 3,
      "note": 28,
      "start": 7.5354,
      "duration": 0.1163,
      "velocity": 110,
      "chip": "ym2612"
    },
    {
      "channel": 4,
      "note": 49,
      "start": 7.539,
      "duration": 0.1532,
      "velocity": 123,
      "chip": "ym2612"
    },
    {
      "channel": 2,
      "note": 77,
      "start": 7.5421,
      "duration": 0.9905,
      "velocity": 101,
      "chip": "ym2612"
    },
    {
      "channel": 4,
      "note": 49,
      "start": 7.8104,
      "duration": 0.1357,
      "velocity": 123,
      "chip": "ym2612"
    },
    {
      "channel": 4,
      "note": 53,
      "start": 7.948,
      "duration": 0.0758,
      "velocity": 123,
      "chip": "ym2612"
    },
    {
      "channel": 4,
      "note": 54,
      "start": 8.0864,
      "duration": 0.0288,
      "velocity": 123,
      "chip": "ym2612"
    },
    {
      "channel": 3,
      "note": 68,
      "start": 8.2223,
      "duration": 0.0795,
      "velocity": 115,
      "chip": "ym2612"
    },
    {
      "channel": 4,
      "note": 56,
      "start": 8.2256,
      "duration": 0.2556,
      "velocity": 123,
      "chip": "ym2612"
    },
    {
      "channel": 4,
      "note": 54,
      "start": 8.4967,
      "duration": 0.0588,
      "velocity": 123,
      "chip": "ym2612"
    },
    {
      "channel": 3,
      "note": 68,
      "start": 8.6322,
      "duration": 0.0695,
      "velocity": 115,
      "chip": "ym2612"
    },
    {
      "channel": 4,
      "note": 53,
      "start": 8.6366,
      "duration": 0.0676,
      "velocity": 123,
      "chip": "ym2612"
    },
    {
      "channel": 3,
      "note": 28,
      "start": 8.7722,
      "duration": 0.1296,
      "velocity": 110,
      "chip": "ym2612"
    },
    {
      "channel": 4,
      "note": 54,
      "start": 8.7754,
      "duration": 0.1314,
      "velocity": 123,
      "chip": "ym2612"
    },
    {
      "channel": 2,
      "note": 82,
      "start": 8.7785,
      "duration": 0.0629,
      "velocity": 101,
      "chip": "ym2612"
    },
    {
      "channel": 1,
      "note": 49,
      "start": 8.7811,
      "duration": 0.9123,
      "velocity": 98,
      "chip": "ym2612"
    },
    {
      "channel": 0,
      "note": 54,
      "start": 8.7841,
      "duration": 0.8755,
      "velocity": 98,
      "chip": "ym2612"
    },
    {
      "channel": 4,
      "note": 58,
      "start": 8.9086,
      "duration": 0.0586,
      "velocity": 123,
      "chip": "ym2612"
    },
    {
      "channel": 4,
      "note": 66,
      "start": 9.0459,
      "duration": 0.1741,
      "velocity": 123,
      "chip": "ym2612"
    },
    {
      "channel": 2,
      "note": 82,
      "start": 9.0491,
      "duration": 0.0725,
      "velocity": 101,
      "chip": "ym2612"
    },
    {
      "channel": 3,
      "note": 68,
      "start": 9.3195,
      "duration": 0.0657,
      "velocity": 115,
      "chip": "ym2612"
    },
    {
      "channel": 2,
      "note": 80,
      "start": 9.3228,
      "duration": 0.0848,
      "velocity": 101,
      "chip": "ym2612"
    },
    {
      "channel": 2,
      "note": 82,
      "start": 9.4562,
      "duration": 0.0829,
      "velocity": 101,
      "chip": "ym2612"
    },
    {
      "channel": 3,
      "note": 28,
      "start": 9.5933,
      "duration": 0.1252,
      "velocity": 110,
      "chip": "ym2612"
    },
    {
      "channel": 4,
      "note": 54,
      "start": 9.5964,
      "duration": 0.0627,
      "velocity": 123,
      "chip": "ym2612"
    },
    {
      "channel": 3,
      "note": 28,
      "start": 9.7305,
      "duration": 0.1213,
      "velocity": 110,
      "chip": "ym2612"
    },
    {
      "channel": 4,
      "note": 54,
      "start": 9.7337,
      "duration": 0.1885,
      "velocity": 123,
      "chip": "ym2612"
    },
    {
      "channel": 2,
      "note": 85,
      "start": 9.738,
      "duration": 1.042,
      "velocity": 101,
      "chip": "ym2612"
    },
    {
      "channel": 1,
      "note": 52,
      "start": 9.7406,
      "duration": 1.2341,
      "velocity": 98,
      "chip": "ym2612"
    },
    {
      "channel": 0,
      "note": 47,
      "start": 9.7435,
      "duration": 1.2349,
      "velocity": 98,
      "chip": "ym2612"
    },
    {
      "channel": 4,
      "note": 54,
      "start": 10.0073,
      "duration": 0.0864,
      "velocity": 123,
      "chip": "ym2612"
    },
    {
      "channel": 4,
      "note": 58,
      "start": 10.1438,
      "duration": 0.0644,
      "velocity": 123,
      "chip": "ym2612"
    },
    {
      "channel": 4,
      "note": 61,
      "start": 10.2809,
      "duration": 0.0759,
      "velocity": 123,
      "chip": "ym2612"
    },
    {
      "channel": 3,
      "note": 68,
      "start": 10.4163,
      "duration": 0.0688,
      "velocity": 115,
      "chip": "ym2612"
    },
    {
      "channel": 4,
      "note": 64,
      "start": 10.4206,
      "duration": 0.2163,
      "velocity": 123,
      "chip": "ym2612"
    },
    {
      "channel": 4,
      "note": 63,
      "start": 10.6912,
      "duration": 0.0789,
      "velocity": 123,
      "chip": "ym2612"
    },
    {
      "channel": 3,
      "note": 68,
      "start": 10.8284,
      "duration": 0.0734,
      "velocity": 115,
      "chip": "ym2612"
    },
    {
      "channel": 4,
      "note": 61,
      "start": 10.8316,
      "duration": 0.0855,
      "velocity": 123,
      "chip": "ym2612"
    },
    {
      "channel": 3,
      "note": 28,
      "start": 10.9668,
      "duration": 0.1184,
      "velocity": 110,
      "chip": "ym2612"
    },
    {
      "channel": 4,
      "note": 54,
      "start": 10.9711,
      "duration": 0.0719,
      "velocity": 123,
      "chip": "ym2612"
    },
    {
      "channel": 2,
      "note": 82,
      "start": 10.9743,
      "duration": 0.0744,
      "velocity": 101,
      "chip": "ym2612"
    },
    {
      "channel": 1,
      "note": 54,
      "start": 10.9772,
      "duration": 2.1945,
      "velocity": 98,
      "chip": "ym2612"
    },
    {
      "channel": 0,
      "note": 49,
      "start": 10.9803,
      "duration": 3.15,
      "velocity": 98,
      "chip": "ym2612"
    },
    {
      "channel": 4,
      "note": 54,
      "start": 11.1055,
      "duration": 0.0644,
      "velocity": 123,
      "chip": "ym2612"
    },
    {
      "channel": 4,
      "note": 54,
      "start": 11.2417,
      "duration": 0.2244,
      "velocity": 123,
      "chip": "ym2612"
    },
    {
      "channel": 2,
      "note": 82,
      "start": 11.2449,
      "duration": 0.084,
      "velocity": 101,
      "chip": "ym2612"
    },
    {
      "channel": 3,
      "note": 68,
      "start": 11.5141,
      "duration": 0.0711,
      "velocity": 115,
      "chip": "ym2612"
    },
    {
      "channel": 2,
      "note": 80,
      "start": 11.5174,
      "duration": 0.0917,
      "velocity": 101,
      "chip": "ym2612"
    },
    {
      "channel": 2,
      "note": 82,
      "start": 11.6529,
      "duration": 0.0877,
      "velocity": 101,
      "chip": "ym2612"
    },
    {
      "channel": 3,
      "note": 28,
      "start": 11.7894,
      "duration": 0.1294,
      "velocity": 110,
      "chip": "ym2612"
    },
    {
      "channel": 4,
      "note": 54,
      "start": 11.7925,
      "duration": 0.0681,
      "velocity": 123,
      "chip": "ym2612"
    },
    {
      "channel": 3,
      "note": 28,
      "start": 11.9262,
      "duration": 0.1255,
      "velocity": 110,
      "chip": "ym2612"
    },
    {
      "channel": 4,
      "note": 54,
      "start": 11.9294,
      "duration": 0.1543,
      "velocity": 123,
      "chip": "ym2612"
    },
    {
      "channel": 2,
      "note": 78,
      "start": 11.9325,
      "duration": 1.0604,
      "velocity": 101,
      "chip": "ym2612"
    },
    {
      "channel": 4,
      "note": 54,
      "start": 12.2032,
      "duration": 0.1359,
      "velocity": 123,
      "chip": "ym2612"
    },
    {
      "channel": 4,
      "note": 58,
      "start": 12.341,
      "duration": 0.0742,
      "velocity": 123,
      "chip": "ym2612"
    },
    {
      "channel": 4,
      "note": 59,
      "start": 12.4767,
      "duration": 0.03,
      "velocity": 123,
      "chip": "ym2612"
    },
    {
      "channel": 3,
      "note": 68,
      "start": 12.612,
      "duration": 0.073,
      "velocity": 115,
      "chip": "ym2612"
    },
    {
      "channel": 4,
      "note": 61,
      "start": 12.6152,
      "duration": 0.2576,
      "velocity": 123,
      "chip": "ym2612"
    },
    {
      "channel": 4,
      "note": 59,
      "start": 12.8893,
      "duration": 0.0578,
      "velocity": 123,
      "chip": "ym2612"
    },
    {
      "channel": 3,
      "note": 68,
      "start": 13.0238,
      "duration": 0.0789,
      "velocity": 115,
      "chip": "ym2612"
    },
    {
      "channel": 4,
      "note": 58,
      "start": 13.027,
      "duration": 0.0688,
      "velocity": 123,
      "chip": "ym2612"
    },
    {
      "channel": 3,
      "note": 28,
      "start": 13.1627,
      "duration": 0.1227,
      "velocity": 110,
      "chip": "ym2612"
    },
    {
      "channel": 4,
      "note": 49,
      "start": 13.1659,
      "duration": 0.1324,
      "velocity": 123,
      "chip": "ym2612"
    },
    {
      "channel": 2,
      "note": 85,
      "start": 13.1702,
      "duration": 0.0856,
      "velocity": 101,
      "chip": "ym2612"
    },
    {
      "channel": 1,
      "note": 53,
      "start": 13.1735,
      "duration": 0.9599,
      "velocity": 98,
      "chip": "ym2612"
    },
    {
      "channel": 4,
      "note": 53,
      "start": 13.3001,
      "duration": 0.0586,
      "velocity": 123,
      "chip": "ym2612"
    },
    {
      "channel": 4,
      "note": 61,
      "start": 13.4385,
      "duration": 0.1719,
      "velocity": 123,
      "chip": "ym2612"
    },
    {
      "channel": 2,
      "note": 85,
      "start": 13.4417,
      "duration": 0.0886,
      "velocity": 101,
      "chip": "ym2612"
    },
    {
      "channel": 3,
      "note": 68,
      "start": 13.7099,
      "duration": 0.0753,
      "velocity": 115,
      "chip": "ym2612"
    },
    {
      "channel": 2,
      "note": 83,
      "start": 13.7132,
      "duration": 0.2288,
      "velocity": 101,
      "chip": "ym2612"
    },
    {
      "channel": 3,
      "note": 28,
      "start": 13.9855,
      "duration": 0.1163,
      "velocity": 110,
      "chip": "ym2612"
    },
    {
      "channel": 4,
      "note": 49,
      "start": 13.9891,
      "duration": 0.0616,
      "velocity": 123,
      "chip": "ym2612"
    },
    {
      "channel": 2,
      "note": 82,
      "start": 13.9922,
      "duration": 0.0763,
      "velocity": 101,
      "chip": "ym2612"
    },
    {
      "channel": 3,
      "note": 28,
      "start": 14.1227,
      "duration": 0.1295,
      "velocity": 110,
      "chip": "ym2612"
    },
    {
      "channel": 4,
      "note": 49,
      "start": 14.1258,
      "duration": 0.188,
      "velocity": 123,
      "chip": "ym2612"
    },
    {
      "channel": 2,
      "note": 83,
      "start": 14.1289,
      "duration": 0.1218,
      "velocity": 101,
      "chip": "ym2612"
    },
    {
      "channel": 0,
      "note": 47,
      "start": 14.1322,
      "duration": 1.2339,
      "velocity": 98,
      "chip": "ym2612"
    },
    {
      "channel": 1,
      "note": 51,
      "start": 14.1366,
      "duration": 1.2339,
      "velocity": 98,
      "chip": "ym2612"
    },
    {
      "channel": 4,
      "note": 49,
      "start": 14.3978,
      "duration": 0.0888,
      "velocity": 123,
      "chip": "ym2612"
    },
    {
      "channel": 2,
      "note": 83,
      "start": 14.4018,
      "duration": 0.0949,
      "velocity": 101,
      "chip": "ym2612"
    },
    {
      "channel": 4,
      "note": 53,
      "start": 14.5364,
      "duration": 0.0632,
      "velocity": 123,
      "chip": "ym2612"
    },
    {
      "channel": 2,
      "note": 82,
      "start": 14.5396,
      "duration": 0.1858,
      "velocity": 101,
      "chip": "ym2612"
    },
    {
      "channel": 4,
      "note": 56,
      "start": 14.6743,
      "duration": 0.074,
      "velocity": 123,
      "chip": "ym2612"
    },
    {
      "channel": 3,
      "note": 68,
      "start": 14.8078,
      "duration": 0.0773,
      "velocity": 115,
      "chip": "ym2612"
    },
    {
      "channel": 4,
      "note": 59,
      "start": 14.811,
      "duration": 0.2174,
      "velocity": 123,
      "chip": "ym2612"
    },
    {
      "channel": 2,
      "note": 80,
      "start": 14.8142,
      "duration": 0.26,
      "velocity": 101,
      "chip": "ym2612"
    },
    {
      "channel": 4,
      "note": 58,
      "start": 15.0827,
      "duration": 0.0773,
      "velocity": 123,
      "chip": "ym2612"
    },
    {
      "channel": 2,
      "note": 78,
      "start": 15.087,
      "duration": 0.1376,
      "velocity": 101,
      "chip": "ym2612"
    },
    {
      "channel": 3,
      "note": 68,
      "start": 15.2211,
      "duration": 0.0641,
      "velocity": 115,
      "chip": "ym2612"
    },
    {
      "channel": 4,
      "note": 56,
      "start": 15.2242,
      "duration": 0.0845,
      "velocity": 123,
      "chip": "ym2612"
    },
    {
      "channel": 3,
      "note": 28,
      "start": 15.3584,
      "duration": 0.1268,
      "velocity": 110,
      "chip": "ym2612"
    },
    {
      "channel": 4,
      "note": 49,
      "start": 15.3615,
      "duration": 0.0737,
      "velocity": 123,
      "chip": "ym2612"
    },
    {
      "channel": 2,
      "note": 80,
      "start": 15.3647,
      "duration": 0.0887,
      "velocity": 101,
      "chip": "ym2612"
    },
    {
      "channel": 0,
      "note": 49,
      "start": 15.3689,
      "duration": 1.8782,
      "velocity": 98,
      "chip": "ym2612"
    },
    {
      "channel": 1,
      "note": 53,
      "start": 15.3723,
      "duration": 1.8644,
      "velocity": 98,
      "chip": "ym2612"
    },
    {
      "channel": 4,
      "note": 49,
      "start": 15.4959,
      "duration": 0.0644,
      "velocity": 123,
      "chip": "ym2612"
    },
    {
      "channel": 4,
      "note": 49,
      "start": 15.6332,
      "duration": 0.2244,
      "velocity": 123,
      "chip": "ym2612"
    },
    {
      "channel": 2,
      "note": 80,
      "start": 15.6375,
      "duration": 0.1171,
      "velocity": 101,
      "chip": "ym2612"
    },
    {
      "channel": 3,
      "note": 68,
      "start": 15.9056,
      "duration": 0.0796,
      "velocity": 115,
      "chip": "ym2612"
    },
    {
      "channel": 2,
      "note": 78,
      "start": 15.9089,
      "duration": 0.0973,
      "velocity": 101,
      "chip": "ym2612"
    },
    {
      "channel": 2,
      "note": 80,
      "start": 16.0434,
      "duration": 0.1116,
      "velocity": 101,
      "chip": "ym2612"
    },
    {
      "channel": 3,
      "note": 28,
      "start": 16.1805,
      "duration": 0.1213,
      "velocity": 110,
      "chip": "ym2612"
    },
    {
      "channel": 4,
      "note": 49,
      "start": 16.1837,
      "duration": 0.0698,
      "velocity": 123,
      "chip": "ym2612"
    },
    {
      "channel": 3,
      "note": 28,
      "start": 16.3184,
      "duration": 0.1167,
      "velocity": 110,
      "chip": "ym2612"
    },
    {
      "channel": 4,
      "note": 49,
      "start": 16.322,
      "duration": 0.1532,
      "velocity": 123,
      "chip": "ym2612"
    },
    {
      "channel": 2,
      "note": 77,
      "start": 16.3251,
      "duration": 0.7905,
      "velocity": 101,
      "chip": "ym2612"
    },
    {
      "channel": 4,
      "note": 49,
      "start": 16.5935,
      "duration": 0.1357,
      "velocity": 123,
      "chip": "ym2612"
    },
    {
      "channel": 4,
      "note": 53,
      "start": 16.731,
      "duration": 0.0758,
      "velocity": 123,
      "chip": "ym2612"
    },
    {
      "channel": 3,
      "note": 68,
      "start": 16.8663,
      "duration": 0.0689,
      "velocity": 115,
      "chip": "ym2612"
    },
    {
      "channel": 4,
      "note": 54,
      "start": 16.8707,
      "duration": 0.0277,
      "velocity": 123,
      "chip": "ym2612"
    },
    {
      "channel": 3,
      "note": 68,
      "start": 17.005,
      "duration": 0.0634,
      "velocity": 115,
      "chip": "ym2612"
    },
    {
      "channel": 4,
      "note": 56,
      "start": 17.0083,
      "duration": 0.2559,
      "velocity": 123,
      "chip": "ym2612"
    },
    {
      "channel": 3,
      "note": 68,
      "start": 17.2784,
      "duration": 0.0734,
      "velocity": 115,
      "chip": "ym2612"
    },
    {
      "channel": 4,
      "note": 54,
      "start": 17.2817,
      "duration": 0.0569,
      "velocity": 123,
      "chip": "ym2612"
    },
    {
      "channel": 5,
      "note": 89,
      "start": 17.2854,
      "duration": 0.0649,
      "velocity": 65,
      "chip": "ym2612"
    },
    {
      "channel": 3,
      "note": 68,
      "start": 17.4157,
      "duration": 0.0695,
      "velocity": 115,
      "chip": "ym2612"
    },
    {
      "channel": 4,
      "note": 53,
      "start": 17.42,
      "duration": 0.0672,
      "velocity": 123,
      "chip": "ym2612"
    },
    {
      "channel": 5,
      "note": 89,
      "start": 17.4233,
      "duration": 0.0699,
      "velocity": 65,
      "chip": "ym2612"
    },
    {
      "channel": 3,
      "note": 28,
      "start": 17.5553,
      "duration": 0.1298,
      "velocity": 110,
      "chip": "ym2612"
    },
    {
      "channel": 4,
      "note": 54,
      "start": 17.5585,
      "duration": 0.1804,
      "velocity": 123,
      "chip": "ym2612"
    },
    {
      "channel": 0,
      "note": 54,
      "start": 17.5617,
      "duration": 1.0087,
      "velocity": 98,
      "chip": "ym2612"
    },
    {
      "channel": 1,
      "note": 49,
      "start": 17.5641,
      "duration": 1.006,
      "velocity": 98,
      "chip": "ym2612"
    },
    {
      "channel": 5,
      "note": 90,
      "start": 17.5673,
      "duration": 0.0459,
      "velocity": 65,
      "chip": "ym2612"
    },
    {
      "channel": 5,
      "note": 90,
      "start": 17.6904,
      "duration": 0.1298,
      "velocity": 65,
      "chip": "ym2612"
    },
    {
      "channel": 4,
      "note": 54,
      "start": 17.8289,
      "duration": 0.173,
      "velocity": 123,
      "chip": "ym2612"
    },
    {
      "channel": 5,
      "note": 87,
      "start": 17.8333,
      "duration": 0.0715,
      "velocity": 65,
      "chip": "ym2612"
    },
    {
      "channel": 5,
      "note": 85,
      "start": 17.9674,
      "duration": 0.0976,
      "velocity": 65,
      "chip": "ym2612"
    },
    {
      "channel": 3,
      "note": 68,
      "start": 18.1021,
      "duration": 0.0667,
      "velocity": 115,
      "chip": "ym2612"
    },
    {
      "channel": 4,
      "note": 54,
      "start": 18.1057,
      "duration": 0.0677,
      "velocity": 123,
      "chip": "ym2612"
    },
    {
      "channel": 5,
      "note": 90,
      "start": 18.109,
      "duration": 0.0532,
      "velocity": 65,
      "chip": "ym2612"
    },
    {
      "channel": 4,
      "note": 54,
      "start": 18.2407,
      "duration": 0.1843,
      "velocity": 123,
      "chip": "ym2612"
    },
    {
      "channel": 5,
      "note": 90,
      "start": 18.244,
      "duration": 0.0955,
      "velocity": 65,
      "chip": "ym2612"
    },
    {
      "channel": 3,
      "note": 28,
      "start": 18.3779,
      "duration": 0.1239,
      "velocity": 110,
      "chip": "ym2612"
    },
    {
      "channel": 5,
      "note": 87,
      "start": 18.3823,
      "duration": 0.1229,
      "velocity": 65,
      "chip": "ym2612"
    },
    {
      "channel": 3,
      "note": 28,
      "start": 18.5151,
      "duration": 0.12,
      "velocity": 110,
      "chip": "ym2612"
    },
    {
      "channel": 4,
      "note": 54,
      "start": 18.5195,
      "duration": 0.0673,
      "velocity": 123,
      "chip": "ym2612"
    },
    {
      "channel": 5,
      "note": 85,
      "start": 18.5228,
      "duration": 0.0645,
      "velocity": 65,
      "chip": "ym2612"
    },
    {
      "channel": 3,
      "note": 28,
      "start": 18.6535,
      "duration": 0.115,
      "velocity": 110,
      "chip": "ym2612"
    },
    {
      "channel": 4,
      "note": 51,
      "start": 18.6566,
      "duration": 0.1915,
      "velocity": 123,
      "chip": "ym2612"
    },
    {
      "channel": 0,
      "note": 46,
      "start": 18.6598,
      "duration": 1.0063,
      "velocity": 98,
      "chip": "ym2612"
    },
    {
      "channel": 1,
      "note": 54,
      "start": 18.6622,
      "duration": 1.0037,
      "velocity": 98,
      "chip": "ym2612"
    },
    {
      "channel": 5,
      "note": 90,
      "start": 18.6654,
      "duration": 0.0972,
      "velocity": 65,
      "chip": "ym2612"
    },
    {
      "channel": 4,
      "note": 51,
      "start": 18.9268,
      "duration": 0.1844,
      "velocity": 123,
      "chip": "ym2612"
    },
    {
      "channel": 5,
      "note": 90,
      "start": 18.9312,
      "duration": 0.106,
      "velocity": 65,
      "chip": "ym2612"
    },
    {
      "channel": 3,
      "note": 68,
      "start": 19.1993,
      "duration": 0.0692,
      "velocity": 115,
      "chip": "ym2612"
    },
    {
      "channel": 4,
      "note": 51,
      "start": 19.2037,
      "duration": 0.062,
      "velocity": 123,
      "chip": "ym2612"
    },
    {
      "channel": 5,
      "note": 90,
      "start": 19.2069,
      "duration": 0.0646,
      "velocity": 65,
      "chip": "ym2612"
    },
    {
      "channel": 4,
      "note": 51,
      "start": 19.3393,
      "duration": 0.2007,
      "velocity": 123,
      "chip": "ym2612"
    },
    {
      "channel": 5,
      "note": 90,
      "start": 19.3426,
      "duration": 0.061,
      "velocity": 65,
      "chip": "ym2612"
    },
    {
      "channel": 5,
      "note": 92,
      "start": 19.477,
      "duration": 0.1098,
      "velocity": 65,
      "chip": "ym2612"
    },
    {
      "channel": 4,
      "note": 51,
      "start": 19.613,
      "duration": 0.0815,
      "velocity": 123,
      "chip": "ym2612"
    },
    {
      "channel": 5,
      "note": 89,
      "start": 19.6162,
      "duration": 1.2393,
      "velocity": 65,
      "chip": "ym2612"
    },
    {
      "channel": 3,
      "note": 28,
      "start": 19.7501,
      "duration": 0.1183,
      "velocity": 110,
      "chip": "ym2612"
    },
    {
      "channel": 4,
      "note": 49,
      "start": 19.7544,
      "duration": 0.2155,
      "velocity": 123,
      "chip": "ym2612"
    },
    {
      "channel": 0,
      "note": 49,
      "start": 19.7577,
      "duration": 2.1916,
      "velocity": 98,
      "chip": "ym2612"
    },
    {
      "channel": 1,
      "note": 53,
      "start": 19.7601,
      "duration": 2.2903,
      "velocity": 98,
      "chip": "ym2612"
    },
    {
      "channel": 4,
      "note": 49,
      "start": 20.0247,
      "duration": 0.1158,
      "velocity": 123,
      "chip": "ym2612"
    },
    {
      "channel": 3,
      "note": 68,
      "start": 20.2972,
      "duration": 0.0712,
      "velocity": 115,
      "chip": "ym2612"
    },
    {
      "channel": 4,
      "note": 49,
      "start": 20.3005,
      "duration": 0.0697,
      "velocity": 123,
      "chip": "ym2612"
    },
    {
      "channel": 3,
      "note": 68,
      "start": 20.436,
      "duration": 0.0657,
      "velocity": 115,
      "chip": "ym2612"
    },
    {
      "channel": 4,
      "note": 49,
      "start": 20.4392,
      "duration": 0.2045,
      "velocity": 123,
      "chip": "ym2612"
    },
    {
      "channel": 3,
      "note": 28,
      "start": 20.5727,
      "duration": 0.1291,
      "velocity": 110,
      "chip": "ym2612"
    },
    {
      "channel": 3,
      "note": 28,
      "start": 20.7106,
      "duration": 0.1246,
      "velocity": 110,
      "chip": "ym2612"
    },
    {
      "channel": 4,
      "note": 61,
      "start": 20.7137,
      "duration": 0.0615,
      "velocity": 123,
      "chip": "ym2612"
    },
    {
      "channel": 4,
      "note": 49,
      "start": 20.8481,
      "duration": 0.1844,
      "velocity": 123,
      "chip": "ym2612"
    },
    {
      "channel": 4,
      "note": 49,
      "start": 21.1243,
      "duration": 0.1883,
      "velocity": 123,
      "chip": "ym2612"
    },
    {
      "channel": 3,
      "note": 68,
      "start": 21.3951,
      "duration": 0.0734,
      "velocity": 115,
      "chip": "ym2612"
    },
    {
      "channel": 4,
      "note": 49,
      "start": 21.3983,
      "duration": 0.0688,
      "velocity": 123,
      "chip": "ym2612"
    },
    {
      "channel": 4,
      "note": 49,
      "start": 21.5327,
      "duration": 0.2146,
      "velocity": 123,
      "chip": "ym2612"
    },
    {
      "channel": 5,
      "note": 89,
      "start": 21.6736,
      "duration": 0.0682,
      "velocity": 65,
      "chip": "ym2612"
    },
    {
      "channel": 3,
      "note": 68,
      "start": 21.8068,
      "duration": 0.0786,
      "velocity": 115,
      "chip": "ym2612"
    },
    {
      "channel": 4,
      "note": 49,
      "start": 21.81,
      "duration": 0.0688,
      "velocity": 123,
      "chip": "ym2612"
    },
    {
      "channel": 5,
      "note": 89,
      "start": 21.8133,
      "duration": 0.0772,
      "velocity": 65,
      "chip": "ym2612"
    },
    {
      "channel": 3,
      "note": 28,
      "start": 21.9457,
      "duration": 0.1228,
      "velocity": 110,
      "chip": "ym2612"
    },
    {
      "channel": 4,
      "note": 54,
      "start": 21.9488,
      "duration": 0.1988,
      "velocity": 123,
      "chip": "ym2612"
    },
    {
      "channel": 0,
      "note": 54,
      "start": 21.9536,
      "duration": 1.006,
      "velocity": 98,
      "chip": "ym2612"
    },
    {
      "channel": 5,
      "note": 90,
      "start": 21.9567,
      "duration": 0.0481,
      "velocity": 65,
      "chip": "ym2612"
    },
    {
      "channel": 5,
      "note": 90,
      "start": 22.0818,
      "duration": 0.1289,
      "velocity": 65,
      "chip": "ym2612"
    },
    {
      "channel": 4,
      "note": 54,
      "start": 22.2216,
      "duration": 0.1776,
      "velocity": 123,
      "chip": "ym2612"
    },
    {
      "channel": 5,
      "note": 87,
      "start": 22.226,
      "duration": 0.0704,
      "velocity": 65,
      "chip": "ym2612"
    },
    {
      "channel": 5,
      "note": 85,
      "start": 22.359,
      "duration": 0.0976,
      "velocity": 65,
      "chip": "ym2612"
    },
    {
      "channel": 3,
      "note": 68,
      "start": 22.4929,
      "duration": 0.0755,
      "velocity": 115,
      "chip": "ym2612"
    },
    {
      "channel": 4,
      "note": 54,
      "start": 22.4962,
      "duration": 0.0688,
      "velocity": 123,
      "chip": "ym2612"
    },
    {
      "channel": 5,
      "note": 90,
      "start": 22.4994,
      "duration": 0.0544,
      "velocity": 65,
      "chip": "ym2612"
    },
    {
      "channel": 4,
      "note": 54,
      "start": 22.6319,
      "duration": 0.1962,
      "velocity": 123,
      "chip": "ym2612"
    },
    {
      "channel": 5,
      "note": 90,
      "start": 22.6363,
      "duration": 0.0947,
      "velocity": 65,
      "chip": "ym2612"
    },
    {
      "channel": 3,
      "note": 28,
      "start": 22.7705,
      "duration": 0.1146,
      "velocity": 110,
      "chip": "ym2612"
    },
    {
      "channel": 5,
      "note": 87,
      "start": 22.7749,
      "duration": 0.122,
      "velocity": 65,
      "chip": "ym2612"
    },
    {
      "channel": 3,
      "note": 28,
      "start": 22.9076,
      "duration": 0.1276,
      "velocity": 110,
      "chip": "ym2612"
    },
    {
      "channel": 4,
      "note": 54,
      "start": 22.9107,
      "duration": 0.0831,
      "velocity": 123,
      "chip": "ym2612"
    },
    {
      "channel": 5,
      "note": 85,
      "start": 22.914,
      "duration": 0.0629,
      "velocity": 65,
      "chip": "ym2612"
    },
    {
      "channel": 3,
      "note": 28,
      "start": 23.0438,
      "duration": 0.1247,
      "velocity": 110,
      "chip": "ym2612"
    },
    {
      "channel": 4,
      "note": 51,
      "start": 23.0469,
      "duration": 0.1413,
      "velocity": 123,
      "chip": "ym2612"
    },
    {
      "channel": 1,
      "note": 46,
      "start": 23.0495,
      "duration": 1.0998,
      "velocity": 98,
      "chip": "ym2612"
    },
    {
      "channel": 0,
      "note": 54,
      "start": 23.0538,
      "duration": 1.0036,
      "velocity": 98,
      "chip": "ym2612"
    },
    {
      "channel": 5,
      "note": 90,
      "start": 23.057,
      "duration": 0.0971,
      "velocity": 65,
      "chip": "ym2612"
    },
    {
      "channel": 4,
      "note": 51,
      "start": 23.3195,
      "duration": 0.1673,
      "velocity": 123,
      "chip": "ym2612"
    },
    {
      "channel": 5,
      "note": 90,
      "start": 23.3239,
      "duration": 0.1047,
      "velocity": 65,
      "chip": "ym2612"
    },
    {
      "channel": 3,
      "note": 68,
      "start": 23.5908,
      "duration": 0.0776,
      "velocity": 115,
      "chip": "ym2612"
    },
    {
      "channel": 4,
      "note": 51,
      "start": 23.594,
      "duration": 0.0631,
      "velocity": 123,
      "chip": "ym2612"
    },
    {
      "channel": 5,
      "note": 90,
      "start": 23.5973,
      "duration": 0.0656,
      "velocity": 65,
      "chip": "ym2612"
    },
    {
      "channel": 4,
      "note": 51,
      "start": 23.7298,
      "duration": 0.1789,
      "velocity": 123,
      "chip": "ym2612"
    },
    {
      "channel": 5,
      "note": 90,
      "start": 23.7331,
      "duration": 0.0615,
      "velocity": 65,
      "chip": "ym2612"
    },
    {
      "channel": 5,
      "note": 92,
      "start": 23.8698,
      "duration": 0.1078,
      "velocity": 65,
      "chip": "ym2612"
    },
    {
      "channel": 4,
      "note": 51,
      "start": 24.0057,
      "duration": 0.0747,
      "velocity": 123,
      "chip": "ym2612"
    },
    {
      "channel": 5,
      "note": 89,
      "start": 24.0089,
      "duration": 0.449,
      "velocity": 65,
      "chip": "ym2612"
    },
    {
      "channel": 3,
      "note": 28,
      "start": 24.1417,
      "duration": 0.1268,
      "velocity": 110,
      "chip": "ym2612"
    },
    {
      "channel": 4,
      "note": 49,
      "start": 24.1449,
      "duration": 0.1813,
      "velocity": 123,
      "chip": "ym2612"
    },
    {
      "channel": 0,
      "note": 53,
      "start": 24.1482,
      "duration": 1.8763,
      "velocity": 98,
      "chip": "ym2612"
    },
    {
      "channel": 1,
      "note": 49,
      "start": 24.1522,
      "duration": 1.8513,
      "velocity": 98,
      "chip": "ym2612"
    },
    {
      "channel": 3,
      "note": 28,
      "start": 24.4161,
      "duration": 0.119,
      "velocity": 110,
      "chip": "ym2612"
    },
    {
      "channel": 4,
      "note": 49,
      "start": 24.4205,
      "duration": 0.1058,
      "velocity": 123,
      "chip": "ym2612"
    },
    {
      "channel": 3,
      "note": 68,
      "start": 24.689,
      "duration": 0.0795,
      "velocity": 115,
      "chip": "ym2612"
    },
    {
      "channel": 4,
      "note": 49,
      "start": 24.6922,
      "duration": 0.1142,
      "velocity": 123,
      "chip": "ym2612"
    },
    {
      "channel": 5,
      "note": 97,
      "start": 24.6955,
      "duration": 0.0655,
      "velocity": 65,
      "chip": "ym2612"
    },
    {
      "channel": 3,
      "note": 28,
      "start": 24.8276,
      "duration": 0.1241,
      "velocity": 110,
      "chip": "ym2612"
    },
    {
      "channel": 4,
      "note": 61,
      "start": 24.8307,
      "duration": 0.1759,
      "velocity": 123,
      "chip": "ym2612"
    },
    {
      "channel": 5,
      "note": 97,
      "start": 24.834,
      "duration": 0.0641,
      "velocity": 65,
      "chip": "ym2612"
    },
    {
      "channel": 5,
      "note": 97,
      "start": 24.9665,
      "duration": 0.0574,
      "velocity": 65,
      "chip": "ym2612"
    },
    {
      "channel": 4,
      "note": 49,
      "start": 25.1035,
      "duration": 0.0804,
      "velocity": 123,
      "chip": "ym2612"
    },
    {
      "channel": 5,
      "note": 97,
      "start": 25.1067,
      "duration": 0.3347,
      "velocity": 65,
      "chip": "ym2612"
    },
    {
      "channel": 3,
      "note": 28,
      "start": 25.2393,
      "duration": 0.1292,
      "velocity": 110,
      "chip": "ym2612"
    },
    {
      "channel": 4,
      "note": 49,
      "start": 25.2425,
      "duration": 0.2159,
      "velocity": 123,
      "chip": "ym2612"
    },
    {
      "channel": 3,
      "note": 68,
      "start": 25.6494,
      "duration": 0.0691,
      "velocity": 115,
      "chip": "ym2612"
    },
    {
      "channel": 4,
      "note": 49,
      "start": 25.6537,
      "duration": 0.1349,
      "velocity": 123,
      "chip": "ym2612"
    },
    {
      "channel": 3,
      "note": 68,
      "start": 25.7881,
      "duration": 0.0636,
      "velocity": 115,
      "chip": "ym2612"
    },
    {
      "channel": 4,
      "note": 49,
      "start": 25.7917,
      "duration": 0.0726,
      "velocity": 123,
      "chip": "ym2612"
    },
    {
      "channel": 3,
      "note": 68,
      "start": 25.9243,
      "duration": 0.0775,
      "velocity": 115,
      "chip": "ym2612"
    },
    {
      "channel": 4,
      "note": 49,
      "start": 25.9275,
      "duration": 0.2228,
      "velocity": 123,
      "chip": "ym2612"
    },
    {
      "channel": 3,
      "note": 28,
      "start": 26.3384,
      "duration": 0.1134,
      "velocity": 110,
      "chip": "ym2612"
    },
    {
      "channel": 4,
      "note": 49,
      "start": 26.3415,
      "duration": 0.1314,
      "velocity": 123,
      "chip": "ym2612"
    },
    {
      "channel": 4,
      "note": 53,
      "start": 26.4748,
      "duration": 0.0585,
      "velocity": 123,
      "chip": "ym2612"
    },
    {
      "channel": 4,
      "note": 61,
      "start": 26.612,
      "duration": 0.1746,
      "velocity": 123,
      "chip": "ym2612"
    },
    {
      "channel": 3,
      "note": 68,
      "start": 26.8852,
      "duration": 0.0665,
      "velocity": 115,
      "chip": "ym2612"
    },
    {
      "channel": 3,
      "note": 28,
      "start": 27.1593,
      "duration": 0.1259,
      "velocity": 110,
      "chip": "ym2612"
    },
    {
      "channel": 4,
      "note": 49,
      "start": 27.1625,
      "duration": 0.0628,
      "velocity": 123,
      "chip": "ym2612"
    },
    {
      "channel": 3,
      "note": 28,
      "start": 27.2965,
      "duration": 0.1219,
      "velocity": 110,
      "chip": "ym2612"
    },
    {
      "channel": 4,
      "note": 49,
      "start": 27.2997,
      "duration": 0.1886,
      "velocity": 123,
      "chip": "ym2612"
    },
    {
      "channel": 4,
      "note": 49,
      "start": 27.573,
      "duration": 0.0868,
      "velocity": 123,
      "chip": "ym2612"
    },
    {
      "channel": 4,
      "note": 53,
      "start": 27.7098,
      "duration": 0.0644,
      "velocity": 123,
      "chip": "ym2612"
    },
    {
      "channel": 4,
      "note": 56,
      "start": 27.8471,
      "duration": 0.0757,
      "velocity": 123,
      "chip": "ym2612"
    },
    {
      "channel": 3,
      "note": 68,
      "start": 27.9824,
      "duration": 0.0693,
      "velocity": 115,
      "chip": "ym2612"
    },
    {
      "channel": 4,
      "note": 59,
      "start": 27.9868,
      "duration": 0.2165,
      "velocity": 123,
      "chip": "ym2612"
    },
    {
      "channel": 4,
      "note": 58,
      "start": 28.2572,
      "duration": 0.078,
      "velocity": 123,
      "chip": "ym2612"
    },
    {
      "channel": 3,
      "note": 68,
      "start": 28.3945,
      "duration": 0.074,
      "velocity": 115,
      "chip": "ym2612"
    },
    {
      "channel": 4,
      "note": 56,
      "start": 28.3977,
      "duration": 0.0855,
      "velocity": 123,
      "chip": "ym2612"
    },
    {
      "channel": 3,
      "note": 28,
      "start": 28.5329,
      "duration": 0.1189,
      "velocity": 110,
      "chip": "ym2612"
    },
    {
      "channel": 4,
      "note": 49,
      "start": 28.5373,
      "duration": 0.0717,
      "velocity": 123,
      "chip": "ym2612"
    },
    {
      "channel": 4,
      "note": 49,
      "start": 28.6716,
      "duration": 0.0651,
      "velocity": 123,
      "chip": "ym2612"
    },
    {
      "channel": 4,
      "note": 49,
      "start": 28.8077,
      "duration": 0.2245,
      "velocity": 123,
      "chip": "ym2612"
    },
    {
      "channel": 3,
      "note": 68,
      "start": 29.0803,
      "duration": 0.0715,
      "velocity": 115,
      "chip": "ym2612"
    },
    {
      "channel": 3,
      "note": 28,
      "start": 29.3561,
      "duration": 0.1291,
      "velocity": 110,
      "chip": "ym2612"
    },
    {
      "channel": 4,
      "note": 49,
      "start": 29.3592,
      "duration": 0.0676,
      "velocity": 123,
      "chip": "ym2612"
    },
    {
      "channel": 3,
      "note": 28,
      "start": 29.4924,
      "duration": 0.126,
      "velocity": 110,
      "chip": "ym2612"
    },
    {
      "channel": 4,
      "note": 49,
      "start": 29.4955,
      "duration": 0.1543,
      "velocity": 123,
      "chip": "ym2612"
    },
    {
      "channel": 4,
      "note": 49,
      "start": 29.7688,
      "duration": 0.1369,
      "velocity": 123,
      "chip": "ym2612"
    },
    {
      "channel": 4,
      "note": 53,
      "start": 29.9076,
      "duration": 0.0738,
      "velocity": 123,
      "chip": "ym2612"
    },
    {
      "channel": 4,
      "note": 54,
      "start": 30.0428,
      "duration": 0.03,
      "velocity": 123,
      "chip": "ym2612"
    },
    {
      "channel": 3,
      "note": 68,
      "start": 30.1782,
      "duration": 0.0736,
      "velocity": 115,
      "chip": "ym2612"
    },
    {
      "channel": 4,
      "note": 56,
      "start": 30.1814,
      "duration": 0.2575,
      "velocity": 123,
      "chip": "ym2612"
    },
    {
      "channel": 4,
      "note": 54,
      "start": 30.4555,
      "duration": 0.0578,
      "velocity": 123,
      "chip": "ym2612"
    },
    {
      "channel": 3,
      "note": 68,
      "start": 30.5899,
      "duration": 0.0788,
      "velocity": 115,
      "chip": "ym2612"
    },
    {
      "channel": 4,
      "note": 53,
      "start": 30.5931,
      "duration": 0.0688,
      "velocity": 123,
      "chip": "ym2612"
    },
    {
      "channel": 3,
      "note": 28,
      "start": 30.7288,
      "duration": 0.123,
      "velocity": 110,
      "chip": "ym2612"
    },
    {
      "channel": 4,
      "note": 49,
      "start": 30.7319,
      "duration": 0.1326,
      "velocity": 123,
      "chip": "ym2612"
    },
    {
      "channel": 4,
      "note": 53,
      "start": 30.8663,
      "duration": 0.0586,
      "velocity": 123,
      "chip": "ym2612"
    },
    {
      "channel": 4,
      "note": 61,
      "start": 31.0047,
      "duration": 0.1717,
      "velocity": 123,
      "chip": "ym2612"
    },
    {
      "channel": 3,
      "note": 68,
      "start": 31.276,
      "duration": 0.0758,
      "velocity": 115,
      "chip": "ym2612"
    },
    {
      "channel": 3,
      "note": 28,
      "start": 31.5516,
      "duration": 0.1169,
      "velocity": 110,
      "chip": "ym2612"
    },
    {
      "channel": 4,
      "note": 49,
      "start": 31.5551,
      "duration": 0.0617,
      "velocity": 123,
      "chip": "ym2612"
    },
    {
      "channel": 3,
      "note": 28,
      "start": 31.6894,
      "duration": 0.1291,
      "velocity": 110,
      "chip": "ym2612"
    },
    {
      "channel": 4,
      "note": 49,
      "start": 31.6926,
      "duration": 0.1871,
      "velocity": 123,
      "chip": "ym2612"
    },
    {
      "channel": 4,
      "note": 49,
      "start": 31.9638,
      "duration": 0.0882,
      "velocity": 123,
      "chip": "ym2612"
    },
    {
      "channel": 4,
      "note": 53,
      "start": 32.1021,
      "duration": 0.0637,
      "velocity": 123,
      "chip": "ym2612"
    },
    {
      "channel": 4,
      "note": 56,
      "start": 32.2397,
      "duration": 0.0747,
      "velocity": 123,
      "chip": "ym2612"
    },
    {
      "channel": 3,
      "note": 68,
      "start": 32.3739,
      "duration": 0.0779,
      "velocity": 115,
      "chip": "ym2612"
    },
    {
      "channel": 4,
      "note": 59,
      "start": 32.3772,
      "duration": 0.2174,
      "velocity": 123,
      "chip": "ym2612"
    },
    {
      "channel": 4,
      "note": 58,
      "start": 32.6487,
      "duration": 0.0774,
      "velocity": 123,
      "chip": "ym2612"
    },
    {
      "channel": 3,
      "note": 68,
      "start": 32.7871,
      "duration": 0.0647,
      "velocity": 115,
      "chip": "ym2612"
    },
    {
      "channel": 4,
      "note": 56,
      "start": 32.7903,
      "duration": 0.0845,
      "velocity": 123,
      "chip": "ym2612"
    },
    {
      "channel": 3,
      "note": 28,
      "start": 32.9245,
      "duration": 0.1281,
      "velocity": 110,
      "chip": "ym2612"
    },
    {
      "channel": 4,
      "note": 49,
      "start": 32.9277,
      "duration": 0.0728,
      "velocity": 123,
      "chip": "ym2612"
    },
    {
      "channel": 4,
      "note": 49,
      "start": 33.062,
      "duration": 0.0644,
      "velocity": 123,
      "chip": "ym2612"
    },
    {
      "channel": 4,
      "note": 49,
      "start": 33.1992,
      "duration": 0.2246,
      "velocity": 123,
      "chip": "ym2612"
    },
    {
      "channel": 3,
      "note": 68,
      "start": 33.4723,
      "duration": 0.0796,
      "velocity": 115,
      "chip": "ym2612"
    },
    {
      "channel": 4,
      "note": 49,
      "start": 33.4756,
      "duration": 0.016,
      "velocity": 123,
      "chip": "ym2612"
    },
    {
      "channel": 2,
      "note": 85,
      "start": 33.4787,
      "duration": 0.0594,
      "velocity": 101,
      "chip": "ym2612"
    },
    {
      "channel": 0,
      "note": 61,
      "start": 33.4829,
      "duration": 0.0608,
      "velocity": 98,
      "chip": "ym2612"
    },
    {
      "channel": 1,
      "note": 73,
      "start": 33.4867,
      "duration": 0.0457,
      "velocity": 98,
      "chip": "ym2612"
    },
    {
      "channel": 5,
      "note": 97,
      "start": 33.4899,
      "duration": 0.0487,
      "velocity": 65,
      "chip": "ym2612"
    },
    {
      "channel": 3,
      "note": 68,
      "start": 33.6094,
      "duration": 0.0758,
      "velocity": 115,
      "chip": "ym2612"
    },
    {
      "channel": 4,
      "note": 49,
      "start": 33.6126,
      "duration": 0.0575,
      "velocity": 123,
      "chip": "ym2612"
    },
    {
      "channel": 2,
      "note": 85,
      "start": 33.6158,
      "duration": 0.0653,
      "velocity": 101,
      "chip": "ym2612"
    },
    {
      "channel": 0,
      "note": 61,
      "start": 33.6213,
      "duration": 0.0658,
      "velocity": 98,
      "chip": "ym2612"
    },
    {
      "channel": 1,
      "note": 73,
      "start": 33.6237,
      "duration": 0.0631,
      "velocity": 98,
      "chip": "ym2612"
    },
    {
      "channel": 5,
      "note": 97,
      "start": 33.6268,
      "duration": 0.0487,
      "velocity": 65,
      "chip": "ym2612"
    },
    {
      "channel": 3,
      "note": 68,
      "start": 33.7467,
      "duration": 0.0734,
      "velocity": 115,
      "chip": "ym2612"
    },
    {
      "channel": 4,
      "note": 49,
      "start": 33.7518,
      "duration": 0.0608,
      "velocity": 123,
      "chip": "ym2612"
    },
    {
      "channel": 2,
      "note": 85,
      "start": 33.7554,
      "duration": 0.0634,
      "velocity": 101,
      "chip": "ym2612"
    },
    {
      "channel": 0,
      "note": 73,
      "start": 33.7595,
      "duration": 0.06,
      "velocity": 98,
      "chip": "ym2612"
    },
    {
      "channel": 1,
      "note": 61,
      "start": 33.762,
      "duration": 0.051,
      "velocity": 98,
      "chip": "ym2612"
    },
    {
      "channel": 5,
      "note": 97,
      "start": 33.7651,
      "duration": 0.0419,
      "velocity": 65,
      "chip": "ym2612"
    },
    {
      "channel": 3,
      "note": 68,
      "start": 33.8839,
      "duration": 0.0846,
      "velocity": 115,
      "chip": "ym2612"
    },
    {
      "channel": 4,
      "note": 49,
      "start": 33.8894,
      "duration": 0.4206,
      "velocity": 123,
      "chip": "ym2612"
    },
    {
      "channel": 2,
      "note": 85,
      "start": 33.8925,
      "duration": 0.3661,
      "velocity": 101,
      "chip": "ym2612"
    },
    {
      "channel": 0,
      "note": 61,
      "start": 33.8968,
      "duration": 0.3962,
      "velocity": 98,
      "chip": "ym2612"
    },
    {
      "channel": 1,
      "note": 73,
      "start": 33.8992,
      "duration": 0.4112,
      "velocity": 98,
      "chip": "ym2612"
    },
    {
      "channel": 5,
      "note": 97,
      "start": 33.9038,
      "duration": 0.2349,
      "velocity": 65,
      "chip": "ym2612"
    }
  ]
}