{
  "track_name": "02 - Mongolian Strategy",
  "duration_sec": 100.956,
  "sample_rate": 44100,
  "note_count": 862,
  "unique_pitches": 36,
  "pitch_range": 75,
  "avg_note_duration": 0.3971,
  "reconstruction_stats": {
    "notes_reconstructed": 862,
    "keyon_events": 862,
    "keyoff_events": 860,
    "orphan_keyons": 2,
    "unique_pitches": 36,
    "pitch_range": 75,
    "avg_duration_sec": 0.3971
  },
  "metadata": {
    "source": "G\\Genghis Khan II - Clan of the Grey Wolf\\02 - Mongolian Strategy.vgz"
  },
  "notes": [
    {
      "channel": 0,
      "note": 78,
      "start": 0.0,
      "duration": 0.0,
      "velocity": 97,
      "chip": "ym2612"
    },
    {
      "channel": 0,
      "note": 78,
      "start": 0.0,
      "duration": 0.0,
      "velocity": 97,
      "chip": "ym2612"
    },
    {
      "channel": 0,
      "note": 78,
      "start": 0.0,
      "duration": 0.0,
      "velocity": 97,
      "chip": "ym2612"
    },
    {
      "channel": 0,
      "note": 59,
      "start": 0.0,
      "duration": 0.0,
      "velocity": 91,
      "chip": "ym2612"
    },
    {
      "channel": 0,
      "note": 64,
      "start": 0.0,
      "duration": 0.0,
      "velocity": 91,
      "chip": "ym2612"
    },
    {
      "channel": 1,
      "note": 59,
      "start": 0.0,
      "duration": 0.0,
      "velocity": 106,
      "chip": "ym2612"
    },
    {
      "channel": 1,
      "note": 64,
      "start": 0.0,
      "duration": 0.0,
      "velocity": 106,
      "chip": "ym2612"
    },
    {
      "channel": 2,
      "note": 23,
      "start": 0.0,
      "duration": 0.0,
      "velocity": 104,
      "chip": "ym2612"
    },
    {
      "channel": 3,
      "note": 67,
      "start": 0.0,
      "duration": 0.0,
      "velocity": 99,
      "chip": "ym2612"
    },
    {
      "channel": 3,
      "note": 74,
      "start": 0.0,
      "duration": 0.0,
      "velocity": 99,
      "chip": "ym2612"
    },
    {
      "channel": 3,
      "note": 66,
      "start": 0.0,
      "duration": 0.0,
      "velocity": 99,
      "chip": "ym2612"
    },
    {
      "channel": 3,
      "note": 67,
      "start": 0.0,
      "duration": 0.0,
      "velocity": 99,
      "chip": "ym2612"
    },
    {
      "channel": 1,
      "note": 59,
      "start": 0.0022,
      "duration": 0.0591,
      "velocity": 97,
      "chip": "ym2612"
    },
    {
      "channel": 2,
      "note": 36,
      "start": 0.0063,
      "duration": 0.2883,
      "velocity": 127,
      "chip": "ym2612"
    },
    {
      "channel": 3,
      "note": 52,
      "start": 0.0102,
      "duration": 2.1013,
      "velocity": 106,
      "chip": "ym2612"
    },
    {
      "channel": 1,
      "note": 64,
      "start": 0.0617,
      "duration": 0.0663,
      "velocity": 97,
      "chip": "ym2612"
    },
    {
      "channel": 1,
      "note": 67,
      "start": 0.1283,
      "duration": 0.0497,
      "velocity": 97,
      "chip": "ym2612"
    },
    {
      "channel": 1,
      "note": 71,
      "start": 0.1783,
      "duration": 2.6496,
      "velocity": 97,
      "chip": "ym2612"
    },
    {
      "channel": 2,
      "note": 46,
      "start": 0.5451,
      "duration": 0.1495,
      "velocity": 127,
      "chip": "ym2612"
    },
    {
      "channel": 2,
      "note": 46,
      "start": 1.0783,
      "duration": 0.2997,
      "velocity": 127,
      "chip": "ym2612"
    },
    {
      "channel": 2,
      "note": 46,
      "start": 1.6117,
      "duration": 0.1497,
      "velocity": 127,
      "chip": "ym2612"
    },
    {
      "channel": 2,
      "note": 46,
      "start": 1.795,
      "duration": 0.1356,
      "velocity": 127,
      "chip": "ym2612"
    },
    {
      "channel": 2,
      "note": 43,
      "start": 1.962,
      "duration": 0.1493,
      "velocity": 127,
      "chip": "ym2612"
    },
    {
      "channel": 2,
      "note": 39,
      "start": 2.1451,
      "duration": 0.2995,
      "velocity": 127,
      "chip": "ym2612"
    },
    {
      "channel": 2,
      "note": 36,
      "start": 2.4954,
      "duration": 0.2993,
      "velocity": 127,
      "chip": "ym2612"
    },
    {
      "channel": 3,
      "note": 59,
      "start": 2.4961,
      "duration": 0.2988,
      "velocity": 106,
      "chip": "ym2612"
    },
    {
      "channel": 1,
      "note": 59,
      "start": 2.8622,
      "duration": 0.0492,
      "velocity": 97,
      "chip": "ym2612"
    },
    {
      "channel": 2,
      "note": 36,
      "start": 2.8627,
      "duration": 0.2986,
      "velocity": 127,
      "chip": "ym2612"
    },
    {
      "channel": 3,
      "note": 52,
      "start": 2.8634,
      "duration": 2.098,
      "velocity": 106,
      "chip": "ym2612"
    },
    {
      "channel": 1,
      "note": 64,
      "start": 2.9117,
      "duration": 0.0663,
      "velocity": 97,
      "chip": "ym2612"
    },
    {
      "channel": 1,
      "note": 67,
      "start": 2.9784,
      "duration": 0.0524,
      "velocity": 97,
      "chip": "ym2612"
    },
    {
      "channel": 1,
      "note": 71,
      "start": 3.0311,
      "duration": 2.6468,
      "velocity": 97,
      "chip": "ym2612"
    },
    {
      "channel": 2,
      "note": 46,
      "start": 3.3951,
      "duration": 0.1495,
      "velocity": 127,
      "chip": "ym2612"
    },
    {
      "channel": 2,
      "note": 46,
      "start": 3.9283,
      "duration": 0.2997,
      "velocity": 127,
      "chip": "ym2612"
    },
    {
      "channel": 2,
      "note": 46,
      "start": 4.4617,
      "duration": 0.1497,
      "velocity": 127,
      "chip": "ym2612"
    },
    {
      "channel": 2,
      "note": 42,
      "start": 4.6451,
      "duration": 0.2995,
      "velocity": 127,
      "chip": "ym2612"
    },
    {
      "channel": 2,
      "note": 42,
      "start": 4.995,
      "duration": 0.2997,
      "velocity": 127,
      "chip": "ym2612"
    },
    {
      "channel": 2,
      "note": 36,
      "start": 5.362,
      "duration": 0.1354,
      "velocity": 127,
      "chip": "ym2612"
    },
    {
      "channel": 3,
      "note": 50,
      "start": 5.3627,
      "duration": 0.282,
      "velocity": 106,
      "chip": "ym2612"
    },
    {
      "channel": 0,
      "note": 64,
      "start": 5.7118,
      "duration": 1.3661,
      "velocity": 91,
      "chip": "ym2612"
    },
    {
      "channel": 1,
      "note": 59,
      "start": 5.7132,
      "duration": 0.0648,
      "velocity": 97,
      "chip": "ym2612"
    },
    {
      "channel": 2,
      "note": 36,
      "start": 5.7139,
      "duration": 0.2974,
      "velocity": 127,
      "chip": "ym2612"
    },
    {
      "channel": 3,
      "note": 52,
      "start": 5.7148,
      "duration": 2.1136,
      "velocity": 106,
      "chip": "ym2612"
    },
    {
      "channel": 1,
      "note": 64,
      "start": 5.7784,
      "duration": 0.0497,
      "velocity": 97,
      "chip": "ym2612"
    },
    {
      "channel": 1,
      "note": 67,
      "start": 5.8285,
      "duration": 0.0662,
      "velocity": 97,
      "chip": "ym2612"
    },
    {
      "channel": 1,
      "note": 71,
      "start": 5.8952,
      "duration": 0.8494,
      "velocity": 97,
      "chip": "ym2612"
    },
    {
      "channel": 2,
      "note": 46,
      "start": 6.2451,
      "duration": 0.1495,
      "velocity": 127,
      "chip": "ym2612"
    },
    {
      "channel": 1,
      "note": 59,
      "start": 6.7784,
      "duration": 0.0663,
      "velocity": 97,
      "chip": "ym2612"
    },
    {
      "channel": 2,
      "note": 46,
      "start": 6.779,
      "duration": 0.2992,
      "velocity": 127,
      "chip": "ym2612"
    },
    {
      "channel": 1,
      "note": 64,
      "start": 6.8451,
      "duration": 0.0497,
      "velocity": 97,
      "chip": "ym2612"
    },
    {
      "channel": 1,
      "note": 67,
      "start": 6.8952,
      "duration": 0.0662,
      "velocity": 97,
      "chip": "ym2612"
    },
    {
      "channel": 1,
      "note": 71,
      "start": 6.9618,
      "duration": 0.8661,
      "velocity": 97,
      "chip": "ym2612"
    },
    {
      "channel": 0,
      "note": 71,
      "start": 7.145,
      "duration": 1.3662,
      "velocity": 91,
      "chip": "ym2612"
    },
    {
      "channel": 2,
      "note": 46,
      "start": 7.3117,
      "duration": 0.1497,
      "velocity": 127,
      "chip": "ym2612"
    },
    {
      "channel": 2,
      "note": 46,
      "start": 7.495,
      "duration": 0.1497,
      "velocity": 127,
      "chip": "ym2612"
    },
    {
      "channel": 2,
      "note": 43,
      "start": 7.6785,
      "duration": 0.1497,
      "velocity": 127,
      "chip": "ym2612"
    },
    {
      "channel": 1,
      "note": 59,
      "start": 7.8451,
      "duration": 0.0663,
      "velocity": 97,
      "chip": "ym2612"
    },
    {
      "channel": 2,
      "note": 39,
      "start": 7.8458,
      "duration": 0.2989,
      "velocity": 127,
      "chip": "ym2612"
    },
    {
      "channel": 1,
      "note": 64,
      "start": 7.9117,
      "duration": 0.0525,
      "velocity": 97,
      "chip": "ym2612"
    },
    {
      "channel": 1,
      "note": 67,
      "start": 7.9645,
      "duration": 0.0636,
      "velocity": 97,
      "chip": "ym2612"
    },
    {
      "channel": 1,
      "note": 71,
      "start": 8.0285,
      "duration": 0.4994,
      "velocity": 97,
      "chip": "ym2612"
    },
    {
      "channel": 2,
      "note": 36,
      "start": 8.2118,
      "duration": 0.2997,
      "velocity": 127,
      "chip": "ym2612"
    },
    {
      "channel": 3,
      "note": 59,
      "start": 8.2125,
      "duration": 0.2992,
      "velocity": 106,
      "chip": "ym2612"
    },
    {
      "channel": 0,
      "note": 69,
      "start": 8.5617,
      "duration": 0.6662,
      "velocity": 91,
      "chip": "ym2612"
    },
    {
      "channel": 1,
      "note": 57,
      "start": 8.5626,
      "duration": 0.0655,
      "velocity": 97,
      "chip": "ym2612"
    },
    {
      "channel": 2,
      "note": 36,
      "start": 8.5632,
      "duration": 0.2982,
      "velocity": 127,
      "chip": "ym2612"
    },
    {
      "channel": 3,
      "note": 52,
      "start": 8.5639,
      "duration": 2.1142,
      "velocity": 106,
      "chip": "ym2612"
    },
    {
      "channel": 1,
      "note": 61,
      "start": 8.6285,
      "duration": 0.0495,
      "velocity": 97,
      "chip": "ym2612"
    },
    {
      "channel": 1,
      "note": 64,
      "start": 8.6784,
      "duration": 0.0663,
      "velocity": 97,
      "chip": "ym2612"
    },
    {
      "channel": 1,
      "note": 69,
      "start": 8.7451,
      "duration": 0.8663,
      "velocity": 97,
      "chip": "ym2612"
    },
    {
      "channel": 2,
      "note": 46,
      "start": 9.0954,
      "duration": 0.1493,
      "velocity": 127,
      "chip": "ym2612"
    },
    {
      "channel": 0,
      "note": 67,
      "start": 9.2783,
      "duration": 0.3329,
      "velocity": 91,
      "chip": "ym2612"
    },
    {
      "channel": 0,
      "note": 69,
      "start": 9.6283,
      "duration": 0.3329,
      "velocity": 91,
      "chip": "ym2612"
    },
    {
      "channel": 1,
      "note": 57,
      "start": 9.6293,
      "duration": 0.0655,
      "velocity": 97,
      "chip": "ym2612"
    },
    {
      "channel": 2,
      "note": 46,
      "start": 9.6298,
      "duration": 0.2982,
      "velocity": 127,
      "chip": "ym2612"
    },
    {
      "channel": 1,
      "note": 61,
      "start": 9.6952,
      "duration": 0.0521,
      "velocity": 97,
      "chip": "ym2612"
    },
    {
      "channel": 1,
      "note": 64,
      "start": 9.7477,
      "duration": 0.0637,
      "velocity": 97,
      "chip": "ym2612"
    },
    {
      "channel": 1,
      "note": 69,
      "start": 9.8117,
      "duration": 0.8662,
      "velocity": 97,
      "chip": "ym2612"
    },
    {
      "channel": 0,
      "note": 64,
      "start": 9.995,
      "duration": 0.6662,
      "velocity": 91,
      "chip": "ym2612"
    },
    {
      "channel": 2,
      "note": 46,
      "start": 10.1644,
      "duration": 0.1469,
      "velocity": 127,
      "chip": "ym2612"
    },
    {
      "channel": 2,
      "note": 42,
      "start": 10.3451,
      "duration": 0.2995,
      "velocity": 127,
      "chip": "ym2612"
    },
    {
      "channel": 0,
      "note": 67,
      "start": 10.7117,
      "duration": 0.3162,
      "velocity": 91,
      "chip": "ym2612"
    },
    {
      "channel": 1,
      "note": 57,
      "start": 10.7124,
      "duration": 0.049,
      "velocity": 97,
      "chip": "ym2612"
    },
    {
      "channel": 2,
      "note": 42,
      "start": 10.7129,
      "duration": 0.2844,
      "velocity": 127,
      "chip": "ym2612"
    },
    {
      "channel": 3,
      "note": 52,
      "start": 10.7135,
      "duration": 0.284,
      "velocity": 106,
      "chip": "ym2612"
    },
    {
      "channel": 1,
      "note": 61,
      "start": 10.7618,
      "duration": 0.0662,
      "velocity": 97,
      "chip": "ym2612"
    },
    {
      "channel": 1,
      "note": 64,
      "start": 10.8285,
      "duration": 0.0496,
      "velocity": 97,
      "chip": "ym2612"
    },
    {
      "channel": 1,
      "note": 69,
      "start": 10.8784,
      "duration": 0.5163,
      "velocity": 97,
      "chip": "ym2612"
    },
    {
      "channel": 0,
      "note": 69,
      "start": 11.0617,
      "duration": 0.3329,
      "velocity": 91,
      "chip": "ym2612"
    },
    {
      "channel": 2,
      "note": 36,
      "start": 11.0624,
      "duration": 0.1489,
      "velocity": 127,
      "chip": "ym2612"
    },
    {
      "channel": 3,
      "note": 54,
      "start": 11.0631,
      "duration": 0.2984,
      "velocity": 106,
      "chip": "ym2612"
    },
    {
      "channel": 0,
      "note": 71,
      "start": 11.4117,
      "duration": 0.6829,
      "velocity": 91,
      "chip": "ym2612"
    },
    {
      "channel": 1,
      "note": 62,
      "start": 11.4129,
      "duration": 0.0985,
      "velocity": 97,
      "chip": "ym2612"
    },
    {
      "channel": 2,
      "note": 36,
      "start": 11.4136,
      "duration": 0.2977,
      "velocity": 127,
      "chip": "ym2612"
    },
    {
      "channel": 3,
      "note": 55,
      "start": 11.4143,
      "duration": 1.3665,
      "velocity": 106,
      "chip": "ym2612"
    },
    {
      "channel": 1,
      "note": 67,
      "start": 11.5117,
      "duration": 0.083,
      "velocity": 97,
      "chip": "ym2612"
    },
    {
      "channel": 1,
      "note": 71,
      "start": 11.5951,
      "duration": 1.2162,
      "velocity": 97,
      "chip": "ym2612"
    },
    {
      "channel": 2,
      "note": 46,
      "start": 11.9477,
      "duration": 0.1499,
      "velocity": 127,
      "chip": "ym2612"
    },
    {
      "channel": 0,
      "note": 74,
      "start": 12.1283,
      "duration": 0.6662,
      "velocity": 91,
      "chip": "ym2612"
    },
    {
      "channel": 2,
      "note": 46,
      "start": 12.495,
      "duration": 0.2856,
      "velocity": 127,
      "chip": "ym2612"
    },
    {
      "channel": 0,
      "note": 71,
      "start": 12.845,
      "duration": 1.0162,
      "velocity": 91,
      "chip": "ym2612"
    },
    {
      "channel": 1,
      "note": 61,
      "start": 12.8463,
      "duration": 0.0817,
      "velocity": 97,
      "chip": "ym2612"
    },
    {
      "channel": 3,
      "note": 57,
      "start": 12.8471,
      "duration": 1.3644,
      "velocity": 106,
      "chip": "ym2612"
    },
    {
      "channel": 1,
      "note": 64,
      "start": 12.9284,
      "duration": 0.0997,
      "velocity": 97,
      "chip": "ym2612"
    },
    {
      "channel": 1,
      "note": 71,
      "start": 13.0285,
      "duration": 1.2162,
      "velocity": 97,
      "chip": "ym2612"
    },
    {
      "channel": 2,
      "note": 46,
      "start": 13.0292,
      "duration": 0.1489,
      "velocity": 127,
      "chip": "ym2612"
    },
    {
      "channel": 2,
      "note": 46,
      "start": 13.195,
      "duration": 0.1497,
      "velocity": 127,
      "chip": "ym2612"
    },
    {
      "channel": 2,
      "note": 43,
      "start": 13.3785,
      "duration": 0.1495,
      "velocity": 127,
      "chip": "ym2612"
    },
    {
      "channel": 2,
      "note": 39,
      "start": 13.562,
      "duration": 0.2994,
      "velocity": 127,
      "chip": "ym2612"
    },
    {
      "channel": 0,
      "note": 69,
      "start": 13.9117,
      "duration": 0.3329,
      "velocity": 91,
      "chip": "ym2612"
    },
    {
      "channel": 2,
      "note": 36,
      "start": 13.9124,
      "duration": 0.2989,
      "velocity": 127,
      "chip": "ym2612"
    },
    {
      "channel": 0,
      "note": 71,
      "start": 14.2783,
      "duration": 2.755,
      "velocity": 91,
      "chip": "ym2612"
    },
    {
      "channel": 1,
      "note": 59,
      "start": 14.2797,
      "duration": 0.065,
      "velocity": 97,
      "chip": "ym2612"
    },
    {
      "channel": 2,
      "note": 36,
      "start": 14.2802,
      "duration": 0.284,
      "velocity": 127,
      "chip": "ym2612"
    },
    {
      "channel": 3,
      "note": 59,
      "start": 14.2809,
      "duration": 0.9971,
      "velocity": 106,
      "chip": "ym2612"
    },
    {
      "channel": 1,
      "note": 63,
      "start": 14.3451,
      "duration": 0.083,
      "velocity": 97,
      "chip": "ym2612"
    },
    {
      "channel": 1,
      "note": 66,
      "start": 14.4285,
      "duration": 0.0662,
      "velocity": 97,
      "chip": "ym2612"
    },
    {
      "channel": 1,
      "note": 71,
      "start": 14.4952,
      "duration": 0.2994,
      "velocity": 97,
      "chip": "ym2612"
    },
    {
      "channel": 1,
      "note": 71,
      "start": 14.8116,
      "duration": 0.1497,
      "velocity": 97,
      "chip": "ym2612"
    },
    {
      "channel": 2,
      "note": 46,
      "start": 14.8123,
      "duration": 0.1492,
      "velocity": 127,
      "chip": "ym2612"
    },
    {
      "channel": 1,
      "note": 59,
      "start": 15.3451,
      "duration": 0.0496,
      "velocity": 97,
      "chip": "ym2612"
    },
    {
      "channel": 2,
      "note": 46,
      "start": 15.3456,
      "duration": 0.299,
      "velocity": 127,
      "chip": "ym2612"
    },
    {
      "channel": 3,
      "note": 59,
      "start": 15.3462,
      "duration": 0.6486,
      "velocity": 106,
      "chip": "ym2612"
    },
    {
      "channel": 1,
      "note": 63,
      "start": 15.3951,
      "duration": 0.0663,
      "velocity": 97,
      "chip": "ym2612"
    },
    {
      "channel": 1,
      "note": 66,
      "start": 15.4617,
      "duration": 0.0663,
      "velocity": 97,
      "chip": "ym2612"
    },
    {
      "channel": 1,
      "note": 71,
      "start": 15.5285,
      "duration": 0.4995,
      "velocity": 97,
      "chip": "ym2612"
    },
    {
      "channel": 2,
      "note": 46,
      "start": 15.8783,
      "duration": 0.1498,
      "velocity": 127,
      "chip": "ym2612"
    },
    {
      "channel": 1,
      "note": 59,
      "start": 16.0618,
      "duration": 0.0496,
      "velocity": 97,
      "chip": "ym2612"
    },
    {
      "channel": 2,
      "note": 42,
      "start": 16.0625,
      "duration": 0.2863,
      "velocity": 127,
      "chip": "ym2612"
    },
    {
      "channel": 3,
      "note": 54,
      "start": 16.0632,
      "duration": 0.2858,
      "velocity": 106,
      "chip": "ym2612"
    },
    {
      "channel": 1,
      "note": 63,
      "start": 16.1117,
      "duration": 0.0663,
      "velocity": 97,
      "chip": "ym2612"
    },
    {
      "channel": 1,
      "note": 66,
      "start": 16.1784,
      "duration": 0.0497,
      "velocity": 97,
      "chip": "ym2612"
    },
    {
      "channel": 1,
      "note": 71,
      "start": 16.2285,
      "duration": 0.1494,
      "velocity": 97,
      "chip": "ym2612"
    },
    {
      "channel": 1,
      "note": 59,
      "start": 16.4117,
      "duration": 0.0703,
      "velocity": 97,
      "chip": "ym2612"
    },
    {
      "channel": 2,
      "note": 42,
      "start": 16.4123,
      "duration": 0.299,
      "velocity": 127,
      "chip": "ym2612"
    },
    {
      "channel": 3,
      "note": 59,
      "start": 16.413,
      "duration": 0.6651,
      "velocity": 106,
      "chip": "ym2612"
    },
    {
      "channel": 1,
      "note": 63,
      "start": 16.4824,
      "duration": 0.079,
      "velocity": 97,
      "chip": "ym2612"
    },
    {
      "channel": 1,
      "note": 66,
      "start": 16.5618,
      "duration": 0.0662,
      "velocity": 97,
      "chip": "ym2612"
    },
    {
      "channel": 1,
      "note": 71,
      "start": 16.6285,
      "duration": 0.4661,
      "velocity": 97,
      "chip": "ym2612"
    },
    {
      "channel": 2,
      "note": 36,
      "start": 16.7673,
      "duration": 0.1441,
      "velocity": 127,
      "chip": "ym2612"
    },
    {
      "channel": 0,
      "note": 64,
      "start": 17.1283,
      "duration": 1.3662,
      "velocity": 91,
      "chip": "ym2612"
    },
    {
      "channel": 1,
      "note": 59,
      "start": 17.1296,
      "duration": 0.0485,
      "velocity": 97,
      "chip": "ym2612"
    },
    {
      "channel": 2,
      "note": 36,
      "start": 17.1303,
      "duration": 0.2977,
      "velocity": 127,
      "chip": "ym2612"
    },
    {
      "channel": 3,
      "note": 52,
      "start": 17.131,
      "duration": 2.1002,
      "velocity": 106,
      "chip": "ym2612"
    },
    {
      "channel": 1,
      "note": 64,
      "start": 17.1784,
      "duration": 0.0663,
      "velocity": 97,
      "chip": "ym2612"
    },
    {
      "channel": 1,
      "note": 67,
      "start": 17.2451,
      "duration": 0.0663,
      "velocity": 97,
      "chip": "ym2612"
    },
    {
      "channel": 1,
      "note": 71,
      "start": 17.3118,
      "duration": 0.8495,
      "velocity": 97,
      "chip": "ym2612"
    },
    {
      "channel": 2,
      "note": 46,
      "start": 17.6618,
      "duration": 0.1495,
      "velocity": 127,
      "chip": "ym2612"
    },
    {
      "channel": 1,
      "note": 59,
      "start": 18.1951,
      "duration": 0.0663,
      "velocity": 97,
      "chip": "ym2612"
    },
    {
      "channel": 2,
      "note": 46,
      "start": 18.1956,
      "duration": 0.2992,
      "velocity": 127,
      "chip": "ym2612"
    },
    {
      "channel": 1,
      "note": 64,
      "start": 18.2617,
      "duration": 0.0497,
      "velocity": 97,
      "chip": "ym2612"
    },
    {
      "channel": 1,
      "note": 67,
      "start": 18.3117,
      "duration": 0.0663,
      "velocity": 97,
      "chip": "ym2612"
    },
    {
      "channel": 1,
      "note": 71,
      "start": 18.3784,
      "duration": 0.8524,
      "velocity": 97,
      "chip": "ym2612"
    },
    {
      "channel": 0,
      "note": 71,
      "start": 18.5502,
      "duration": 1.3662,
      "velocity": 91,
      "chip": "ym2612"
    },
    {
      "channel": 2,
      "note": 46,
      "start": 18.7283,
      "duration": 0.1497,
      "velocity": 127,
      "chip": "ym2612"
    },
    {
      "channel": 2,
      "note": 46,
      "start": 18.9117,
      "duration": 0.1497,
      "velocity": 127,
      "chip": "ym2612"
    },
    {
      "channel": 2,
      "note": 43,
      "start": 19.0954,
      "duration": 0.1356,
      "velocity": 127,
      "chip": "ym2612"
    },
    {
      "channel": 1,
      "note": 59,
      "start": 19.2617,
      "duration": 0.0663,
      "velocity": 97,
      "chip": "ym2612"
    },
    {
      "channel": 2,
      "note": 39,
      "start": 19.2624,
      "duration": 0.2989,
      "velocity": 127,
      "chip": "ym2612"
    },
    {
      "channel": 1,
      "note": 64,
      "start": 19.3284,
      "duration": 0.0497,
      "velocity": 97,
      "chip": "ym2612"
    },
    {
      "channel": 1,
      "note": 67,
      "start": 19.3784,
      "duration": 0.0663,
      "velocity": 97,
      "chip": "ym2612"
    },
    {
      "channel": 1,
      "note": 71,
      "start": 19.4451,
      "duration": 0.4995,
      "velocity": 97,
      "chip": "ym2612"
    },
    {
      "channel": 2,
      "note": 36,
      "start": 19.6287,
      "duration": 0.288,
      "velocity": 127,
      "chip": "ym2612"
    },
    {
      "channel": 3,
      "note": 59,
      "start": 19.6294,
      "duration": 0.2875,
      "velocity": 106,
      "chip": "ym2612"
    },
    {
      "channel": 0,
      "note": 69,
      "start": 19.9783,
      "duration": 0.6662,
      "velocity": 91,
      "chip": "ym2612"
    },
    {
      "channel": 1,
      "note": 57,
      "start": 19.9791,
      "duration": 0.0656,
      "velocity": 97,
      "chip": "ym2612"
    },
    {
      "channel": 2,
      "note": 36,
      "start": 19.9796,
      "duration": 0.2984,
      "velocity": 127,
      "chip": "ym2612"
    },
    {
      "channel": 3,
      "note": 52,
      "start": 19.9804,
      "duration": 2.1145,
      "velocity": 106,
      "chip": "ym2612"
    },
    {
      "channel": 1,
      "note": 61,
      "start": 20.0451,
      "duration": 0.0497,
      "velocity": 97,
      "chip": "ym2612"
    },
    {
      "channel": 1,
      "note": 64,
      "start": 20.0952,
      "duration": 0.0662,
      "velocity": 97,
      "chip": "ym2612"
    },
    {
      "channel": 1,
      "note": 69,
      "start": 20.1618,
      "duration": 0.8521,
      "velocity": 97,
      "chip": "ym2612"
    },
    {
      "channel": 2,
      "note": 46,
      "start": 20.5118,
      "duration": 0.1495,
      "velocity": 127,
      "chip": "ym2612"
    },
    {
      "channel": 0,
      "note": 67,
      "start": 20.695,
      "duration": 0.3188,
      "velocity": 91,
      "chip": "ym2612"
    },
    {
      "channel": 0,
      "note": 69,
      "start": 21.045,
      "duration": 0.3329,
      "velocity": 91,
      "chip": "ym2612"
    },
    {
      "channel": 1,
      "note": 57,
      "start": 21.0458,
      "duration": 0.0656,
      "velocity": 97,
      "chip": "ym2612"
    },
    {
      "channel": 2,
      "note": 46,
      "start": 21.0463,
      "duration": 0.2984,
      "velocity": 127,
      "chip": "ym2612"
    },
    {
      "channel": 1,
      "note": 61,
      "start": 21.1117,
      "duration": 0.0497,
      "velocity": 97,
      "chip": "ym2612"
    },
    {
      "channel": 1,
      "note": 64,
      "start": 21.1618,
      "duration": 0.0662,
      "velocity": 97,
      "chip": "ym2612"
    },
    {
      "channel": 1,
      "note": 69,
      "start": 21.2285,
      "duration": 0.8661,
      "velocity": 97,
      "chip": "ym2612"
    },
    {
      "channel": 0,
      "note": 64,
      "start": 21.4117,
      "duration": 1.3662,
      "velocity": 91,
      "chip": "ym2612"
    },
    {
      "channel": 2,
      "note": 46,
      "start": 21.5783,
      "duration": 0.1497,
      "velocity": 127,
      "chip": "ym2612"
    },
    {
      "channel": 2,
      "note": 42,
      "start": 21.762,
      "duration": 0.2993,
      "velocity": 127,
      "chip": "ym2612"
    },
    {
      "channel": 1,
      "note": 57,
      "start": 22.1143,
      "duration": 0.0637,
      "velocity": 97,
      "chip": "ym2612"
    },
    {
      "channel": 2,
      "note": 42,
      "start": 22.1148,
      "duration": 0.2965,
      "velocity": 127,
      "chip": "ym2612"
    },
    {
      "channel": 1,
      "note": 61,
      "start": 22.1784,
      "duration": 0.0663,
      "velocity": 97,
      "chip": "ym2612"
    },
    {
      "channel": 1,
      "note": 64,
      "start": 22.2451,
      "duration": 0.0497,
      "velocity": 97,
      "chip": "ym2612"
    },
    {
      "channel": 1,
      "note": 69,
      "start": 22.2952,
      "duration": 0.5036,
      "velocity": 97,
      "chip": "ym2612"
    },
    {
      "channel": 2,
      "note": 36,
      "start": 22.4785,
      "duration": 0.1495,
      "velocity": 127,
      "chip": "ym2612"
    },
    {
      "channel": 3,
      "note": 52,
      "start": 22.479,
      "duration": 0.2992,
      "velocity": 106,
      "chip": "ym2612"
    },
    {
      "channel": 0,
      "note": 67,
      "start": 22.8283,
      "duration": 0.6662,
      "velocity": 91,
      "chip": "ym2612"
    },
    {
      "channel": 1,
      "note": 60,
      "start": 22.8298,
      "duration": 0.0982,
      "velocity": 97,
      "chip": "ym2612"
    },
    {
      "channel": 2,
      "note": 36,
      "start": 22.8305,
      "duration": 0.2975,
      "velocity": 127,
      "chip": "ym2612"
    },
    {
      "channel": 3,
      "note": 60,
      "start": 22.8312,
      "duration": 1.3636,
      "velocity": 106,
      "chip": "ym2612"
    },
    {
      "channel": 1,
      "note": 64,
      "start": 22.9284,
      "duration": 0.083,
      "velocity": 97,
      "chip": "ym2612"
    },
    {
      "channel": 1,
      "note": 67,
      "start": 23.0117,
      "duration": 1.2162,
      "velocity": 97,
      "chip": "ym2612"
    },
    {
      "channel": 2,
      "note": 46,
      "start": 23.362,
      "duration": 0.1493,
      "velocity": 127,
      "chip": "ym2612"
    },
    {
      "channel": 0,
      "note": 69,
      "start": 23.545,
      "duration": 0.6662,
      "velocity": 91,
      "chip": "ym2612"
    },
    {
      "channel": 2,
      "note": 46,
      "start": 23.8978,
      "duration": 0.2969,
      "velocity": 127,
      "chip": "ym2612"
    },
    {
      "channel": 0,
      "note": 66,
      "start": 24.2617,
      "duration": 1.0022,
      "velocity": 91,
      "chip": "ym2612"
    },
    {
      "channel": 1,
      "note": 62,
      "start": 24.2629,
      "duration": 0.0817,
      "velocity": 97,
      "chip": "ym2612"
    },
    {
      "channel": 3,
      "note": 62,
      "start": 24.2638,
      "duration": 1.3644,
      "velocity": 106,
      "chip": "ym2612"
    },
    {
      "channel": 1,
      "note": 66,
      "start": 24.3451,
      "duration": 0.0997,
      "velocity": 97,
      "chip": "ym2612"
    },
    {
      "channel": 1,
      "note": 69,
      "start": 24.4451,
      "duration": 1.2163,
      "velocity": 97,
      "chip": "ym2612"
    },
    {
      "channel": 2,
      "note": 46,
      "start": 24.4456,
      "duration": 0.135,
      "velocity": 127,
      "chip": "ym2612"
    },
    {
      "channel": 2,
      "note": 46,
      "start": 24.6117,
      "duration": 0.1497,
      "velocity": 127,
      "chip": "ym2612"
    },
    {
      "channel": 2,
      "note": 43,
      "start": 24.7951,
      "duration": 0.1495,
      "velocity": 127,
      "chip": "ym2612"
    },
    {
      "channel": 2,
      "note": 39,
      "start": 24.9785,
      "duration": 0.2856,
      "velocity": 127,
      "chip": "ym2612"
    },
    {
      "channel": 0,
      "note": 64,
      "start": 25.3283,
      "duration": 0.3329,
      "velocity": 91,
      "chip": "ym2612"
    },
    {
      "channel": 2,
      "note": 36,
      "start": 25.3291,
      "duration": 0.2989,
      "velocity": 127,
      "chip": "ym2612"
    },
    {
      "channel": 0,
      "note": 64,
      "start": 25.6807,
      "duration": 2.8305,
      "velocity": 91,
      "chip": "ym2612"
    },
    {
      "channel": 1,
      "note": 55,
      "start": 25.682,
      "duration": 0.0794,
      "velocity": 97,
      "chip": "ym2612"
    },
    {
      "channel": 2,
      "note": 36,
      "start": 25.6826,
      "duration": 0.2954,
      "velocity": 127,
      "chip": "ym2612"
    },
    {
      "channel": 3,
      "note": 64,
      "start": 25.6833,
      "duration": 1.3782,
      "velocity": 106,
      "chip": "ym2612"
    },
    {
      "channel": 1,
      "note": 59,
      "start": 25.7618,
      "duration": 0.0662,
      "velocity": 97,
      "chip": "ym2612"
    },
    {
      "channel": 1,
      "note": 64,
      "start": 25.8285,
      "duration": 0.8994,
      "velocity": 97,
      "chip": "ym2612"
    },
    {
      "channel": 2,
      "note": 46,
      "start": 26.2287,
      "duration": 0.1355,
      "velocity": 127,
      "chip": "ym2612"
    },
    {
      "channel": 1,
      "note": 55,
      "start": 26.7618,
      "duration": 0.0495,
      "velocity": 97,
      "chip": "ym2612"
    },
    {
      "channel": 2,
      "note": 46,
      "start": 26.7625,
      "duration": 0.2989,
      "velocity": 127,
      "chip": "ym2612"
    },
    {
      "channel": 1,
      "note": 59,
      "start": 26.8117,
      "duration": 0.0663,
      "velocity": 97,
      "chip": "ym2612"
    },
    {
      "channel": 1,
      "note": 64,
      "start": 26.8784,
      "duration": 0.9162,
      "velocity": 97,
      "chip": "ym2612"
    },
    {
      "channel": 2,
      "note": 46,
      "start": 27.295,
      "duration": 0.1497,
      "velocity": 127,
      "chip": "ym2612"
    },
    {
      "channel": 3,
      "note": 64,
      "start": 27.2958,
      "duration": 0.149,
      "velocity": 106,
      "chip": "ym2612"
    },
    {
      "channel": 2,
      "note": 42,
      "start": 27.4669,
      "duration": 0.2945,
      "velocity": 127,
      "chip": "ym2612"
    },
    {
      "channel": 3,
      "note": 59,
      "start": 27.4676,
      "duration": 0.2939,
      "velocity": 106,
      "chip": "ym2612"
    },
    {
      "channel": 1,
      "note": 55,
      "start": 27.8285,
      "duration": 0.0538,
      "velocity": 97,
      "chip": "ym2612"
    },
    {
      "channel": 2,
      "note": 42,
      "start": 27.8292,
      "duration": 0.2988,
      "velocity": 127,
      "chip": "ym2612"
    },
    {
      "channel": 3,
      "note": 54,
      "start": 27.8299,
      "duration": 0.2983,
      "velocity": 106,
      "chip": "ym2612"
    },
    {
      "channel": 1,
      "note": 59,
      "start": 27.8826,
      "duration": 0.0622,
      "velocity": 97,
      "chip": "ym2612"
    },
    {
      "channel": 1,
      "note": 64,
      "start": 27.9451,
      "duration": 0.5663,
      "velocity": 97,
      "chip": "ym2612"
    },
    {
      "channel": 2,
      "note": 36,
      "start": 28.1785,
      "duration": 0.1495,
      "velocity": 127,
      "chip": "ym2612"
    },
    {
      "channel": 3,
      "note": 59,
      "start": 28.1792,
      "duration": 0.2989,
      "velocity": 106,
      "chip": "ym2612"
    },
    {
      "channel": 0,
      "note": 88,
      "start": 28.5482,
      "duration": 1.363,
      "velocity": 93,
      "chip": "ym2612"
    },
    {
      "channel": 1,
      "note": 59,
      "start": 28.5496,
      "duration": 0.045,
      "velocity": 97,
      "chip": "ym2612"
    },
    {
      "channel": 2,
      "note": 36,
      "start": 28.5503,
      "duration": 0.2945,
      "velocity": 127,
      "chip": "ym2612"
    },
    {
      "channel": 3,
      "note": 52,
      "start": 28.5512,
      "duration": 2.0938,
      "velocity": 106,
      "chip": "ym2612"
    },
    {
      "channel": 1,
      "note": 64,
      "start": 28.5951,
      "duration": 0.0663,
      "velocity": 97,
      "chip": "ym2612"
    },
    {
      "channel": 1,
      "note": 67,
      "start": 28.6617,
      "duration": 0.0497,
      "velocity": 97,
      "chip": "ym2612"
    },
    {
      "channel": 1,
      "note": 71,
      "start": 28.7117,
      "duration": 0.8662,
      "velocity": 97,
      "chip": "ym2612"
    },
    {
      "channel": 2,
      "note": 46,
      "start": 29.0785,
      "duration": 0.1495,
      "velocity": 127,
      "chip": "ym2612"
    },
    {
      "channel": 1,
      "note": 59,
      "start": 29.6117,
      "duration": 0.0537,
      "velocity": 97,
      "chip": "ym2612"
    },
    {
      "channel": 2,
      "note": 46,
      "start": 29.6123,
      "duration": 0.2992,
      "velocity": 127,
      "chip": "ym2612"
    },
    {
      "channel": 1,
      "note": 64,
      "start": 29.6659,
      "duration": 0.0622,
      "velocity": 97,
      "chip": "ym2612"
    },
    {
      "channel": 1,
      "note": 67,
      "start": 29.7284,
      "duration": 0.0663,
      "velocity": 97,
      "chip": "ym2612"
    },
    {
      "channel": 1,
      "note": 71,
      "start": 29.7951,
      "duration": 0.8495,
      "velocity": 97,
      "chip": "ym2612"
    },
    {
      "channel": 0,
      "note": 95,
      "start": 29.9617,
      "duration": 1.3662,
      "velocity": 93,
      "chip": "ym2612"
    },
    {
      "channel": 2,
      "note": 46,
      "start": 30.145,
      "duration": 0.1497,
      "velocity": 127,
      "chip": "ym2612"
    },
    {
      "channel": 2,
      "note": 46,
      "start": 30.3283,
      "duration": 0.1497,
      "velocity": 127,
      "chip": "ym2612"
    },
    {
      "channel": 2,
      "note": 43,
      "start": 30.4979,
      "duration": 0.1469,
      "velocity": 127,
      "chip": "ym2612"
    },
    {
      "channel": 1,
      "note": 59,
      "start": 30.6784,
      "duration": 0.0663,
      "velocity": 97,
      "chip": "ym2612"
    },
    {
      "channel": 2,
      "note": 39,
      "start": 30.6791,
      "duration": 0.2989,
      "velocity": 127,
      "chip": "ym2612"
    },
    {
      "channel": 1,
      "note": 64,
      "start": 30.7451,
      "duration": 0.0496,
      "velocity": 97,
      "chip": "ym2612"
    },
    {
      "channel": 1,
      "note": 67,
      "start": 30.7951,
      "duration": 0.0663,
      "velocity": 97,
      "chip": "ym2612"
    },
    {
      "channel": 1,
      "note": 71,
      "start": 30.8617,
      "duration": 0.4995,
      "velocity": 97,
      "chip": "ym2612"
    },
    {
      "channel": 2,
      "note": 36,
      "start": 31.0451,
      "duration": 0.283,
      "velocity": 127,
      "chip": "ym2612"
    },
    {
      "channel": 3,
      "note": 59,
      "start": 31.0459,
      "duration": 0.2824,
      "velocity": 106,
      "chip": "ym2612"
    },
    {
      "channel": 0,
      "note": 93,
      "start": 31.395,
      "duration": 0.6662,
      "velocity": 93,
      "chip": "ym2612"
    },
    {
      "channel": 1,
      "note": 57,
      "start": 31.3958,
      "duration": 0.0515,
      "velocity": 97,
      "chip": "ym2612"
    },
    {
      "channel": 2,
      "note": 36,
      "start": 31.3963,
      "duration": 0.2984,
      "velocity": 127,
      "chip": "ym2612"
    },
    {
      "channel": 3,
      "note": 52,
      "start": 31.397,
      "duration": 2.1145,
      "velocity": 106,
      "chip": "ym2612"
    },
    {
      "channel": 1,
      "note": 61,
      "start": 31.4477,
      "duration": 0.0637,
      "velocity": 97,
      "chip": "ym2612"
    },
    {
      "channel": 1,
      "note": 64,
      "start": 31.5117,
      "duration": 0.0663,
      "velocity": 97,
      "chip": "ym2612"
    },
    {
      "channel": 1,
      "note": 69,
      "start": 31.5785,
      "duration": 0.8496,
      "velocity": 97,
      "chip": "ym2612"
    },
    {
      "channel": 2,
      "note": 46,
      "start": 31.9285,
      "duration": 0.1495,
      "velocity": 127,
      "chip": "ym2612"
    },
    {
      "channel": 0,
      "note": 91,
      "start": 32.1117,
      "duration": 0.3162,
      "velocity": 93,
      "chip": "ym2612"
    },
    {
      "channel": 0,
      "note": 93,
      "start": 32.4617,
      "duration": 0.3329,
      "velocity": 93,
      "chip": "ym2612"
    },
    {
      "channel": 1,
      "note": 57,
      "start": 32.4624,
      "duration": 0.0656,
      "velocity": 97,
      "chip": "ym2612"
    },
    {
      "channel": 2,
      "note": 46,
      "start": 32.4629,
      "duration": 0.2984,
      "velocity": 127,
      "chip": "ym2612"
    },
    {
      "channel": 1,
      "note": 61,
      "start": 32.5284,
      "duration": 0.0497,
      "velocity": 97,
      "chip": "ym2612"
    },
    {
      "channel": 1,
      "note": 64,
      "start": 32.5784,
      "duration": 0.0663,
      "velocity": 97,
      "chip": "ym2612"
    },
    {
      "channel": 1,
      "note": 69,
      "start": 32.6451,
      "duration": 0.8662,
      "velocity": 97,
      "chip": "ym2612"
    },
    {
      "channel": 0,
      "note": 88,
      "start": 32.8283,
      "duration": 0.6662,
      "velocity": 93,
      "chip": "ym2612"
    },
    {
      "channel": 2,
      "note": 46,
      "start": 32.995,
      "duration": 0.1497,
      "velocity": 127,
      "chip": "ym2612"
    },
    {
      "channel": 2,
      "note": 42,
      "start": 33.1785,
      "duration": 0.2995,
      "velocity": 127,
      "chip": "ym2612"
    },
    {
      "channel": 0,
      "note": 91,
      "start": 33.5283,
      "duration": 0.3329,
      "velocity": 93,
      "chip": "ym2612"
    },
    {
      "channel": 1,
      "note": 57,
      "start": 33.5291,
      "duration": 0.0656,
      "velocity": 97,
      "chip": "ym2612"
    },
    {
      "channel": 2,
      "note": 42,
      "start": 33.5296,
      "duration": 0.2984,
      "velocity": 127,
      "chip": "ym2612"
    },
    {
      "channel": 3,
      "note": 52,
      "start": 33.5302,
      "duration": 0.298,
      "velocity": 106,
      "chip": "ym2612"
    },
    {
      "channel": 1,
      "note": 61,
      "start": 33.5951,
      "duration": 0.0522,
      "velocity": 97,
      "chip": "ym2612"
    },
    {
      "channel": 1,
      "note": 64,
      "start": 33.6476,
      "duration": 0.0638,
      "velocity": 97,
      "chip": "ym2612"
    },
    {
      "channel": 1,
      "note": 69,
      "start": 33.7117,
      "duration": 0.4997,
      "velocity": 97,
      "chip": "ym2612"
    },
    {
      "channel": 0,
      "note": 93,
      "start": 33.895,
      "duration": 0.3162,
      "velocity": 93,
      "chip": "ym2612"
    },
    {
      "channel": 2,
      "note": 36,
      "start": 33.896,
      "duration": 0.1487,
      "velocity": 127,
      "chip": "ym2612"
    },
    {
      "channel": 3,
      "note": 54,
      "start": 33.8967,
      "duration": 0.2981,
      "velocity": 106,
      "chip": "ym2612"
    },
    {
      "channel": 0,
      "note": 95,
      "start": 34.245,
      "duration": 0.6662,
      "velocity": 93,
      "chip": "ym2612"
    },
    {
      "channel": 1,
      "note": 62,
      "start": 34.2463,
      "duration": 0.0843,
      "velocity": 97,
      "chip": "ym2612"
    },
    {
      "channel": 2,
      "note": 36,
      "start": 34.247,
      "duration": 0.2977,
      "velocity": 127,
      "chip": "ym2612"
    },
    {
      "channel": 3,
      "note": 55,
      "start": 34.2477,
      "duration": 1.3639,
      "velocity": 106,
      "chip": "ym2612"
    },
    {
      "channel": 1,
      "note": 67,
      "start": 34.3309,
      "duration": 0.0971,
      "velocity": 97,
      "chip": "ym2612"
    },
    {
      "channel": 1,
      "note": 71,
      "start": 34.4285,
      "duration": 1.2161,
      "velocity": 97,
      "chip": "ym2612"
    },
    {
      "channel": 2,
      "note": 46,
      "start": 34.7785,
      "duration": 0.1495,
      "velocity": 127,
      "chip": "ym2612"
    },
    {
      "channel": 0,
      "note": 98,
      "start": 34.9617,
      "duration": 0.6662,
      "velocity": 93,
      "chip": "ym2612"
    },
    {
      "channel": 2,
      "note": 46,
      "start": 35.3117,
      "duration": 0.2997,
      "velocity": 127,
      "chip": "ym2612"
    },
    {
      "channel": 0,
      "note": 95,
      "start": 35.6783,
      "duration": 0.9995,
      "velocity": 93,
      "chip": "ym2612"
    },
    {
      "channel": 1,
      "note": 61,
      "start": 35.6796,
      "duration": 0.0818,
      "velocity": 97,
      "chip": "ym2612"
    },
    {
      "channel": 3,
      "note": 57,
      "start": 35.6804,
      "duration": 1.3644,
      "velocity": 106,
      "chip": "ym2612"
    },
    {
      "channel": 1,
      "note": 64,
      "start": 35.7618,
      "duration": 0.0854,
      "velocity": 97,
      "chip": "ym2612"
    },
    {
      "channel": 1,
      "note": 71,
      "start": 35.8477,
      "duration": 1.2304,
      "velocity": 97,
      "chip": "ym2612"
    },
    {
      "channel": 2,
      "note": 46,
      "start": 35.8482,
      "duration": 0.1465,
      "velocity": 127,
      "chip": "ym2612"
    },
    {
      "channel": 2,
      "note": 46,
      "start": 36.0283,
      "duration": 0.1497,
      "velocity": 127,
      "chip": "ym2612"
    },
    {
      "channel": 2,
      "note": 43,
      "start": 36.2118,
      "duration": 0.1495,
      "velocity": 127,
      "chip": "ym2612"
    },
    {
      "channel": 2,
      "note": 39,
      "start": 36.3951,
      "duration": 0.283,
      "velocity": 127,
      "chip": "ym2612"
    },
    {
      "channel": 0,
      "note": 93,
      "start": 36.745,
      "duration": 0.3329,
      "velocity": 93,
      "chip": "ym2612"
    },
    {
      "channel": 2,
      "note": 36,
      "start": 36.7458,
      "duration": 0.2989,
      "velocity": 127,
      "chip": "ym2612"
    },
    {
      "channel": 0,
      "note": 95,
      "start": 37.095,
      "duration": 2.7373,
      "velocity": 93,
      "chip": "ym2612"
    },
    {
      "channel": 1,
      "note": 59,
      "start": 37.0966,
      "duration": 0.0815,
      "velocity": 97,
      "chip": "ym2612"
    },
    {
      "channel": 2,
      "note": 36,
      "start": 37.0971,
      "duration": 0.2976,
      "velocity": 127,
      "chip": "ym2612"
    },
    {
      "channel": 3,
      "note": 59,
      "start": 37.0978,
      "duration": 1.0136,
      "velocity": 106,
      "chip": "ym2612"
    },
    {
      "channel": 1,
      "note": 63,
      "start": 37.1784,
      "duration": 0.0663,
      "velocity": 97,
      "chip": "ym2612"
    },
    {
      "channel": 1,
      "note": 66,
      "start": 37.2451,
      "duration": 0.083,
      "velocity": 97,
      "chip": "ym2612"
    },
    {
      "channel": 1,
      "note": 71,
      "start": 37.3284,
      "duration": 0.2995,
      "velocity": 97,
      "chip": "ym2612"
    },
    {
      "channel": 1,
      "note": 71,
      "start": 37.6312,
      "duration": 0.1468,
      "velocity": 97,
      "chip": "ym2612"
    },
    {
      "channel": 2,
      "note": 46,
      "start": 37.6319,
      "duration": 0.1463,
      "velocity": 127,
      "chip": "ym2612"
    },
    {
      "channel": 1,
      "note": 59,
      "start": 38.1785,
      "duration": 0.0496,
      "velocity": 97,
      "chip": "ym2612"
    },
    {
      "channel": 2,
      "note": 46,
      "start": 38.179,
      "duration": 0.2824,
      "velocity": 127,
      "chip": "ym2612"
    },
    {
      "channel": 3,
      "note": 59,
      "start": 38.1796,
      "duration": 0.6485,
      "velocity": 106,
      "chip": "ym2612"
    },
    {
      "channel": 1,
      "note": 63,
      "start": 38.2285,
      "duration": 0.0662,
      "velocity": 97,
      "chip": "ym2612"
    },
    {
      "channel": 1,
      "note": 66,
      "start": 38.2952,
      "duration": 0.0496,
      "velocity": 97,
      "chip": "ym2612"
    },
    {
      "channel": 1,
      "note": 71,
      "start": 38.3451,
      "duration": 0.5162,
      "velocity": 97,
      "chip": "ym2612"
    },
    {
      "channel": 2,
      "note": 46,
      "start": 38.7117,
      "duration": 0.1498,
      "velocity": 127,
      "chip": "ym2612"
    },
    {
      "channel": 1,
      "note": 59,
      "start": 38.8784,
      "duration": 0.0663,
      "velocity": 97,
      "chip": "ym2612"
    },
    {
      "channel": 2,
      "note": 42,
      "start": 38.8791,
      "duration": 0.2989,
      "velocity": 127,
      "chip": "ym2612"
    },
    {
      "channel": 3,
      "note": 54,
      "start": 38.8798,
      "duration": 0.2984,
      "velocity": 106,
      "chip": "ym2612"
    },
    {
      "channel": 1,
      "note": 63,
      "start": 38.9451,
      "duration": 0.0539,
      "velocity": 97,
      "chip": "ym2612"
    },
    {
      "channel": 1,
      "note": 66,
      "start": 38.9993,
      "duration": 0.0622,
      "velocity": 97,
      "chip": "ym2612"
    },
    {
      "channel": 1,
      "note": 71,
      "start": 39.0617,
      "duration": 0.1495,
      "velocity": 97,
      "chip": "ym2612"
    },
    {
      "channel": 1,
      "note": 59,
      "start": 39.2451,
      "duration": 0.0663,
      "velocity": 97,
      "chip": "ym2612"
    },
    {
      "channel": 2,
      "note": 42,
      "start": 39.2456,
      "duration": 0.2991,
      "velocity": 127,
      "chip": "ym2612"
    },
    {
      "channel": 3,
      "note": 59,
      "start": 39.2463,
      "duration": 0.6651,
      "velocity": 106,
      "chip": "ym2612"
    },
    {
      "channel": 1,
      "note": 63,
      "start": 39.3117,
      "duration": 0.0829,
      "velocity": 97,
      "chip": "ym2612"
    },
    {
      "channel": 1,
      "note": 66,
      "start": 39.3951,
      "duration": 0.0663,
      "velocity": 97,
      "chip": "ym2612"
    },
    {
      "channel": 1,
      "note": 71,
      "start": 39.4617,
      "duration": 0.4662,
      "velocity": 97,
      "chip": "ym2612"
    },
    {
      "channel": 2,
      "note": 36,
      "start": 39.5951,
      "duration": 0.1495,
      "velocity": 127,
      "chip": "ym2612"
    },
    {
      "channel": 0,
      "note": 88,
      "start": 39.9617,
      "duration": 1.3662,
      "velocity": 93,
      "chip": "ym2612"
    },
    {
      "channel": 1,
      "note": 59,
      "start": 39.9632,
      "duration": 0.0481,
      "velocity": 97,
      "chip": "ym2612"
    },
    {
      "channel": 2,
      "note": 36,
      "start": 39.9639,
      "duration": 0.2834,
      "velocity": 127,
      "chip": "ym2612"
    },
    {
      "channel": 3,
      "note": 52,
      "start": 39.9646,
      "duration": 2.0971,
      "velocity": 106,
      "chip": "ym2612"
    },
    {
      "channel": 1,
      "note": 64,
      "start": 40.0117,
      "duration": 0.0663,
      "velocity": 97,
      "chip": "ym2612"
    },
    {
      "channel": 1,
      "note": 67,
      "start": 40.0784,
      "duration": 0.0497,
      "velocity": 97,
      "chip": "ym2612"
    },
    {
      "channel": 1,
      "note": 71,
      "start": 40.1284,
      "duration": 0.8662,
      "velocity": 97,
      "chip": "ym2612"
    },
    {
      "channel": 2,
      "note": 46,
      "start": 40.4954,
      "duration": 0.1494,
      "velocity": 127,
      "chip": "ym2612"
    },
    {
      "channel": 1,
      "note": 59,
      "start": 41.0285,
      "duration": 0.0495,
      "velocity": 97,
      "chip": "ym2612"
    },
    {
      "channel": 2,
      "note": 46,
      "start": 41.0292,
      "duration": 0.2989,
      "velocity": 127,
      "chip": "ym2612"
    },
    {
      "channel": 1,
      "note": 64,
      "start": 41.0784,
      "duration": 0.0663,
      "velocity": 97,
      "chip": "ym2612"
    },
    {
      "channel": 1,
      "note": 67,
      "start": 41.1451,
      "duration": 0.0539,
      "velocity": 97,
      "chip": "ym2612"
    },
    {
      "channel": 1,
      "note": 71,
      "start": 41.1993,
      "duration": 0.862,
      "velocity": 97,
      "chip": "ym2612"
    },
    {
      "channel": 0,
      "note": 95,
      "start": 41.3783,
      "duration": 1.3662,
      "velocity": 93,
      "chip": "ym2612"
    },
    {
      "channel": 2,
      "note": 46,
      "start": 41.5617,
      "duration": 0.1497,
      "velocity": 127,
      "chip": "ym2612"
    },
    {
      "channel": 2,
      "note": 46,
      "start": 41.745,
      "duration": 0.1356,
      "velocity": 127,
      "chip": "ym2612"
    },
    {
      "channel": 2,
      "note": 43,
      "start": 41.9118,
      "duration": 0.1497,
      "velocity": 127,
      "chip": "ym2612"
    },
    {
      "channel": 1,
      "note": 59,
      "start": 42.0952,
      "duration": 0.0662,
      "velocity": 97,
      "chip": "ym2612"
    },
    {
      "channel": 2,
      "note": 39,
      "start": 42.096,
      "duration": 0.2987,
      "velocity": 127,
      "chip": "ym2612"
    },
    {
      "channel": 1,
      "note": 64,
      "start": 42.1618,
      "duration": 0.0495,
      "velocity": 97,
      "chip": "ym2612"
    },
    {
      "channel": 1,
      "note": 67,
      "start": 42.2117,
      "duration": 0.0663,
      "velocity": 97,
      "chip": "ym2612"
    },
    {
      "channel": 1,
      "note": 71,
      "start": 42.2784,
      "duration": 0.4995,
      "velocity": 97,
      "chip": "ym2612"
    },
    {
      "channel": 2,
      "note": 36,
      "start": 42.4451,
      "duration": 0.2997,
      "velocity": 127,
      "chip": "ym2612"
    },
    {
      "channel": 3,
      "note": 59,
      "start": 42.4459,
      "duration": 0.2991,
      "velocity": 106,
      "chip": "ym2612"
    },
    {
      "channel": 0,
      "note": 93,
      "start": 42.8117,
      "duration": 0.6662,
      "velocity": 93,
      "chip": "ym2612"
    },
    {
      "channel": 1,
      "note": 57,
      "start": 42.8124,
      "duration": 0.0489,
      "velocity": 97,
      "chip": "ym2612"
    },
    {
      "channel": 2,
      "note": 36,
      "start": 42.8129,
      "duration": 0.2984,
      "velocity": 127,
      "chip": "ym2612"
    },
    {
      "channel": 3,
      "note": 52,
      "start": 42.8137,
      "duration": 2.1004,
      "velocity": 106,
      "chip": "ym2612"
    },
    {
      "channel": 1,
      "note": 61,
      "start": 42.8617,
      "duration": 0.0663,
      "velocity": 97,
      "chip": "ym2612"
    },
    {
      "channel": 1,
      "note": 64,
      "start": 42.9284,
      "duration": 0.0522,
      "velocity": 97,
      "chip": "ym2612"
    },
    {
      "channel": 1,
      "note": 69,
      "start": 42.981,
      "duration": 0.8637,
      "velocity": 97,
      "chip": "ym2612"
    },
    {
      "channel": 2,
      "note": 46,
      "start": 43.3451,
      "duration": 0.1495,
      "velocity": 127,
      "chip": "ym2612"
    },
    {
      "channel": 0,
      "note": 91,
      "start": 43.5284,
      "duration": 0.3161,
      "velocity": 93,
      "chip": "ym2612"
    },
    {
      "channel": 0,
      "note": 93,
      "start": 43.8783,
      "duration": 0.3329,
      "velocity": 93,
      "chip": "ym2612"
    },
    {
      "channel": 1,
      "note": 57,
      "start": 43.8791,
      "duration": 0.0656,
      "velocity": 97,
      "chip": "ym2612"
    },
    {
      "channel": 2,
      "note": 46,
      "start": 43.8796,
      "duration": 0.2984,
      "velocity": 127,
      "chip": "ym2612"
    },
    {
      "channel": 1,
      "note": 61,
      "start": 43.9451,
      "duration": 0.0496,
      "velocity": 97,
      "chip": "ym2612"
    },
    {
      "channel": 1,
      "note": 64,
      "start": 43.9951,
      "duration": 0.0663,
      "velocity": 97,
      "chip": "ym2612"
    },
    {
      "channel": 1,
      "note": 69,
      "start": 44.0617,
      "duration": 0.8522,
      "velocity": 97,
      "chip": "ym2612"
    },
    {
      "channel": 0,
      "note": 88,
      "start": 44.2283,
      "duration": 1.3704,
      "velocity": 93,
      "chip": "ym2612"
    },
    {
      "channel": 2,
      "note": 46,
      "start": 44.4117,
      "duration": 0.1497,
      "velocity": 127,
      "chip": "ym2612"
    },
    {
      "channel": 2,
      "note": 42,
      "start": 44.5951,
      "duration": 0.2995,
      "velocity": 127,
      "chip": "ym2612"
    },
    {
      "channel": 1,
      "note": 57,
      "start": 44.9451,
      "duration": 0.0663,
      "velocity": 97,
      "chip": "ym2612"
    },
    {
      "channel": 2,
      "note": 42,
      "start": 44.9456,
      "duration": 0.299,
      "velocity": 127,
      "chip": "ym2612"
    },
    {
      "channel": 1,
      "note": 61,
      "start": 45.0117,
      "duration": 0.0496,
      "velocity": 97,
      "chip": "ym2612"
    },
    {
      "channel": 1,
      "note": 64,
      "start": 45.0617,
      "duration": 0.0663,
      "velocity": 97,
      "chip": "ym2612"
    },
    {
      "channel": 1,
      "note": 69,
      "start": 45.1284,
      "duration": 0.4995,
      "velocity": 97,
      "chip": "ym2612"
    },
    {
      "channel": 2,
      "note": 36,
      "start": 45.3118,
      "duration": 0.1496,
      "velocity": 127,
      "chip": "ym2612"
    },
    {
      "channel": 3,
      "note": 52,
      "start": 45.3124,
      "duration": 0.2867,
      "velocity": 106,
      "chip": "ym2612"
    },
    {
      "channel": 0,
      "note": 91,
      "start": 45.6617,
      "duration": 0.6662,
      "velocity": 93,
      "chip": "ym2612"
    },
    {
      "channel": 1,
      "note": 60,
      "start": 45.6629,
      "duration": 0.0817,
      "velocity": 97,
      "chip": "ym2612"
    },
    {
      "channel": 2,
      "note": 36,
      "start": 45.6636,
      "duration": 0.2977,
      "velocity": 127,
      "chip": "ym2612"
    },
    {
      "channel": 3,
      "note": 60,
      "start": 45.6643,
      "duration": 1.3639,
      "velocity": 106,
      "chip": "ym2612"
    },
    {
      "channel": 1,
      "note": 64,
      "start": 45.7451,
      "duration": 0.0997,
      "velocity": 97,
      "chip": "ym2612"
    },
    {
      "channel": 1,
      "note": 67,
      "start": 45.8451,
      "duration": 1.2162,
      "velocity": 97,
      "chip": "ym2612"
    },
    {
      "channel": 2,
      "note": 46,
      "start": 46.1951,
      "duration": 0.1495,
      "velocity": 127,
      "chip": "ym2612"
    },
    {
      "channel": 0,
      "note": 93,
      "start": 46.3783,
      "duration": 0.6662,
      "velocity": 93,
      "chip": "ym2612"
    },
    {
      "channel": 2,
      "note": 46,
      "start": 46.7283,
      "duration": 0.2997,
      "velocity": 127,
      "chip": "ym2612"
    },
    {
      "channel": 0,
      "note": 90,
      "start": 47.095,
      "duration": 0.9995,
      "velocity": 93,
      "chip": "ym2612"
    },
    {
      "channel": 1,
      "note": 62,
      "start": 47.0965,
      "duration": 0.0816,
      "velocity": 97,
      "chip": "ym2612"
    },
    {
      "channel": 3,
      "note": 62,
      "start": 47.0973,
      "duration": 1.3642,
      "velocity": 106,
      "chip": "ym2612"
    },
    {
      "channel": 1,
      "note": 66,
      "start": 47.1784,
      "duration": 0.083,
      "velocity": 97,
      "chip": "ym2612"
    },
    {
      "channel": 1,
      "note": 69,
      "start": 47.2617,
      "duration": 1.2189,
      "velocity": 97,
      "chip": "ym2612"
    },
    {
      "channel": 2,
      "note": 46,
      "start": 47.2623,
      "duration": 0.149,
      "velocity": 127,
      "chip": "ym2612"
    },
    {
      "channel": 2,
      "note": 46,
      "start": 47.445,
      "duration": 0.1497,
      "velocity": 127,
      "chip": "ym2612"
    },
    {
      "channel": 2,
      "note": 43,
      "start": 47.6287,
      "duration": 0.1493,
      "velocity": 127,
      "chip": "ym2612"
    },
    {
      "channel": 2,
      "note": 39,
      "start": 47.7977,
      "duration": 0.2971,
      "velocity": 127,
      "chip": "ym2612"
    },
    {
      "channel": 0,
      "note": 88,
      "start": 48.1617,
      "duration": 0.3188,
      "velocity": 93,
      "chip": "ym2612"
    },
    {
      "channel": 2,
      "note": 36,
      "start": 48.1627,
      "duration": 0.2987,
      "velocity": 127,
      "chip": "ym2612"
    },
    {
      "channel": 0,
      "note": 88,
      "start": 48.5115,
      "duration": 2.833,
      "velocity": 93,
      "chip": "ym2612"
    },
    {
      "channel": 1,
      "note": 55,
      "start": 48.5128,
      "duration": 0.0819,
      "velocity": 97,
      "chip": "ym2612"
    },
    {
      "channel": 2,
      "note": 36,
      "start": 48.5134,
      "duration": 0.298,
      "velocity": 127,
      "chip": "ym2612"
    },
    {
      "channel": 3,
      "note": 64,
      "start": 48.5141,
      "duration": 1.3641,
      "velocity": 106,
      "chip": "ym2612"
    },
    {
      "channel": 1,
      "note": 59,
      "start": 48.5951,
      "duration": 0.0663,
      "velocity": 97,
      "chip": "ym2612"
    },
    {
      "channel": 1,
      "note": 64,
      "start": 48.6617,
      "duration": 0.8995,
      "velocity": 97,
      "chip": "ym2612"
    },
    {
      "channel": 2,
      "note": 46,
      "start": 49.0451,
      "duration": 0.1495,
      "velocity": 127,
      "chip": "ym2612"
    },
    {
      "channel": 1,
      "note": 55,
      "start": 49.5836,
      "duration": 0.0611,
      "velocity": 97,
      "chip": "ym2612"
    },
    {
      "channel": 2,
      "note": 46,
      "start": 49.5842,
      "duration": 0.2938,
      "velocity": 127,
      "chip": "ym2612"
    },
    {
      "channel": 1,
      "note": 59,
      "start": 49.6451,
      "duration": 0.0663,
      "velocity": 97,
      "chip": "ym2612"
    },
    {
      "channel": 1,
      "note": 64,
      "start": 49.7117,
      "duration": 0.9162,
      "velocity": 97,
      "chip": "ym2612"
    },
    {
      "channel": 2,
      "note": 46,
      "start": 50.1283,
      "duration": 0.1373,
      "velocity": 127,
      "chip": "ym2612"
    },
    {
      "channel": 3,
      "note": 64,
      "start": 50.129,
      "duration": 0.1368,
      "velocity": 106,
      "chip": "ym2612"
    },
    {
      "channel": 2,
      "note": 42,
      "start": 50.2954,
      "duration": 0.2993,
      "velocity": 127,
      "chip": "ym2612"
    },
    {
      "channel": 3,
      "note": 59,
      "start": 50.2961,
      "duration": 0.2988,
      "velocity": 106,
      "chip": "ym2612"
    },
    {
      "channel": 1,
      "note": 55,
      "start": 50.6617,
      "duration": 0.0497,
      "velocity": 97,
      "chip": "ym2612"
    },
    {
      "channel": 2,
      "note": 42,
      "start": 50.6623,
      "duration": 0.2866,
      "velocity": 127,
      "chip": "ym2612"
    },
    {
      "channel": 3,
      "note": 54,
      "start": 50.663,
      "duration": 0.2861,
      "velocity": 106,
      "chip": "ym2612"
    },
    {
      "channel": 1,
      "note": 59,
      "start": 50.7117,
      "duration": 0.0663,
      "velocity": 97,
      "chip": "ym2612"
    },
    {
      "channel": 1,
      "note": 64,
      "start": 50.7784,
      "duration": 0.5663,
      "velocity": 97,
      "chip": "ym2612"
    },
    {
      "channel": 2,
      "note": 36,
      "start": 51.0118,
      "duration": 0.1495,
      "velocity": 127,
      "chip": "ym2612"
    },
    {
      "channel": 3,
      "note": 59,
      "start": 51.0125,
      "duration": 0.299,
      "velocity": 106,
      "chip": "ym2612"
    },
    {
      "channel": 0,
      "note": 83,
      "start": 51.3692,
      "duration": 1.4254,
      "velocity": 101,
      "chip": "ym2612"
    },
    {
      "channel": 1,
      "note": 55,
      "start": 51.3706,
      "duration": 0.324,
      "velocity": 97,
      "chip": "ym2612"
    },
    {
      "channel": 2,
      "note": 36,
      "start": 51.3719,
      "duration": 0.3229,
      "velocity": 127,
      "chip": "ym2612"
    },
    {
      "channel": 3,
      "note": 67,
      "start": 51.3734,
      "duration": 1.36,
      "velocity": 106,
      "chip": "ym2612"
    },
    {
      "channel": 1,
      "note": 59,
      "start": 51.7284,
      "duration": 0.3188,
      "velocity": 97,
      "chip": "ym2612"
    },
    {
      "channel": 2,
      "note": 48,
      "start": 51.7291,
      "duration": 0.1489,
      "velocity": 127,
      "chip": "ym2612"
    },
    {
      "channel": 2,
      "note": 48,
      "start": 51.9117,
      "duration": 0.1357,
      "velocity": 127,
      "chip": "ym2612"
    },
    {
      "channel": 1,
      "note": 62,
      "start": 52.0784,
      "duration": 0.3329,
      "velocity": 97,
      "chip": "ym2612"
    },
    {
      "channel": 2,
      "note": 48,
      "start": 52.079,
      "duration": 0.3325,
      "velocity": 127,
      "chip": "ym2612"
    },
    {
      "channel": 1,
      "note": 59,
      "start": 52.4451,
      "duration": 0.3162,
      "velocity": 97,
      "chip": "ym2612"
    },
    {
      "channel": 2,
      "note": 48,
      "start": 52.4456,
      "duration": 0.1491,
      "velocity": 127,
      "chip": "ym2612"
    },
    {
      "channel": 2,
      "note": 48,
      "start": 52.6117,
      "duration": 0.1498,
      "velocity": 127,
      "chip": "ym2612"
    },
    {
      "channel": 0,
      "note": 83,
      "start": 52.795,
      "duration": 0.7163,
      "velocity": 101,
      "chip": "ym2612"
    },
    {
      "channel": 1,
      "note": 67,
      "start": 52.7957,
      "duration": 0.3322,
      "velocity": 97,
      "chip": "ym2612"
    },
    {
      "channel": 2,
      "note": 48,
      "start": 52.7963,
      "duration": 0.1484,
      "velocity": 127,
      "chip": "ym2612"
    },
    {
      "channel": 2,
      "note": 48,
      "start": 52.9783,
      "duration": 0.1498,
      "velocity": 127,
      "chip": "ym2612"
    },
    {
      "channel": 1,
      "note": 62,
      "start": 53.1476,
      "duration": 0.3303,
      "velocity": 97,
      "chip": "ym2612"
    },
    {
      "channel": 2,
      "note": 36,
      "start": 53.1483,
      "duration": 0.1464,
      "velocity": 127,
      "chip": "ym2612"
    },
    {
      "channel": 3,
      "note": 67,
      "start": 53.1489,
      "duration": 0.6792,
      "velocity": 106,
      "chip": "ym2612"
    },
    {
      "channel": 2,
      "note": 48,
      "start": 53.3285,
      "duration": 0.1497,
      "velocity": 127,
      "chip": "ym2612"
    },
    {
      "channel": 0,
      "note": 86,
      "start": 53.5117,
      "duration": 0.7163,
      "velocity": 101,
      "chip": "ym2612"
    },
    {
      "channel": 1,
      "note": 59,
      "start": 53.5124,
      "duration": 0.3185,
      "velocity": 97,
      "chip": "ym2612"
    },
    {
      "channel": 2,
      "note": 48,
      "start": 53.5129,
      "duration": 0.1484,
      "velocity": 127,
      "chip": "ym2612"
    },
    {
      "channel": 2,
      "note": 36,
      "start": 53.6954,
      "duration": 0.316,
      "velocity": 127,
      "chip": "ym2612"
    },
    {
      "channel": 1,
      "note": 55,
      "start": 53.8617,
      "duration": 0.3329,
      "velocity": 97,
      "chip": "ym2612"
    },
    {
      "channel": 3,
      "note": 62,
      "start": 53.8625,
      "duration": 0.2989,
      "velocity": 106,
      "chip": "ym2612"
    },
    {
      "channel": 2,
      "note": 48,
      "start": 54.0452,
      "duration": 0.1496,
      "velocity": 127,
      "chip": "ym2612"
    },
    {
      "channel": 0,
      "note": 81,
      "start": 54.2283,
      "duration": 0.7022,
      "velocity": 101,
      "chip": "ym2612"
    },
    {
      "channel": 1,
      "note": 57,
      "start": 54.2293,
      "duration": 0.3153,
      "velocity": 97,
      "chip": "ym2612"
    },
    {
      "channel": 2,
      "note": 36,
      "start": 54.23,
      "duration": 0.3148,
      "velocity": 127,
      "chip": "ym2612"
    },
    {
      "channel": 3,
      "note": 69,
      "start": 54.2307,
      "duration": 1.3641,
      "velocity": 106,
      "chip": "ym2612"
    },
    {
      "channel": 1,
      "note": 61,
      "start": 54.5784,
      "duration": 0.3329,
      "velocity": 97,
      "chip": "ym2612"
    },
    {
      "channel": 2,
      "note": 48,
      "start": 54.5791,
      "duration": 0.1489,
      "velocity": 127,
      "chip": "ym2612"
    },
    {
      "channel": 2,
      "note": 48,
      "start": 54.7617,
      "duration": 0.1498,
      "velocity": 127,
      "chip": "ym2612"
    },
    {
      "channel": 0,
      "note": 79,
      "start": 54.9309,
      "duration": 0.3638,
      "velocity": 101,
      "chip": "ym2612"
    },
    {
      "channel": 1,
      "note": 64,
      "start": 54.9316,
      "duration": 0.3296,
      "velocity": 97,
      "chip": "ym2612"
    },
    {
      "channel": 2,
      "note": 48,
      "start": 54.9321,
      "duration": 0.3293,
      "velocity": 127,
      "chip": "ym2612"
    },
    {
      "channel": 0,
      "note": 81,
      "start": 55.295,
      "duration": 0.3497,
      "velocity": 101,
      "chip": "ym2612"
    },
    {
      "channel": 1,
      "note": 61,
      "start": 55.2959,
      "duration": 0.3179,
      "velocity": 97,
      "chip": "ym2612"
    },
    {
      "channel": 2,
      "note": 48,
      "start": 55.2965,
      "duration": 0.1482,
      "velocity": 127,
      "chip": "ym2612"
    },
    {
      "channel": 2,
      "note": 48,
      "start": 55.4783,
      "duration": 0.1357,
      "velocity": 127,
      "chip": "ym2612"
    },
    {
      "channel": 0,
      "note": 76,
      "start": 55.645,
      "duration": 0.6688,
      "velocity": 101,
      "chip": "ym2612"
    },
    {
      "channel": 1,
      "note": 69,
      "start": 55.6458,
      "duration": 0.3322,
      "velocity": 97,
      "chip": "ym2612"
    },
    {
      "channel": 2,
      "note": 48,
      "start": 55.6463,
      "duration": 0.1484,
      "velocity": 127,
      "chip": "ym2612"
    },
    {
      "channel": 2,
      "note": 36,
      "start": 55.8287,
      "duration": 0.1494,
      "velocity": 127,
      "chip": "ym2612"
    },
    {
      "channel": 1,
      "note": 64,
      "start": 56.0117,
      "duration": 0.3162,
      "velocity": 97,
      "chip": "ym2612"
    },
    {
      "channel": 2,
      "note": 36,
      "start": 56.0123,
      "duration": 0.149,
      "velocity": 127,
      "chip": "ym2612"
    },
    {
      "channel": 3,
      "note": 69,
      "start": 56.0129,
      "duration": 0.6653,
      "velocity": 106,
      "chip": "ym2612"
    },
    {
      "channel": 2,
      "note": 48,
      "start": 56.1785,
      "duration": 0.1497,
      "velocity": 127,
      "chip": "ym2612"
    },
    {
      "channel": 0,
      "note": 79,
      "start": 56.3617,
      "duration": 0.3522,
      "velocity": 101,
      "chip": "ym2612"
    },
    {
      "channel": 1,
      "note": 61,
      "start": 56.3626,
      "duration": 0.332,
      "velocity": 97,
      "chip": "ym2612"
    },
    {
      "channel": 2,
      "note": 36,
      "start": 56.3633,
      "duration": 0.148,
      "velocity": 127,
      "chip": "ym2612"
    },
    {
      "channel": 2,
      "note": 48,
      "start": 56.5451,
      "duration": 0.1497,
      "velocity": 127,
      "chip": "ym2612"
    },
    {
      "channel": 0,
      "note": 81,
      "start": 56.7142,
      "duration": 0.3638,
      "velocity": 101,
      "chip": "ym2612"
    },
    {
      "channel": 1,
      "note": 57,
      "start": 56.7149,
      "duration": 0.3297,
      "velocity": 97,
      "chip": "ym2612"
    },
    {
      "channel": 2,
      "note": 48,
      "start": 56.7155,
      "duration": 0.3293,
      "velocity": 127,
      "chip": "ym2612"
    },
    {
      "channel": 3,
      "note": 64,
      "start": 56.7162,
      "duration": 0.2952,
      "velocity": 106,
      "chip": "ym2612"
    },
    {
      "channel": 0,
      "note": 83,
      "start": 57.0783,
      "duration": 0.7163,
      "velocity": 101,
      "chip": "ym2612"
    },
    {
      "channel": 1,
      "note": 55,
      "start": 57.079,
      "duration": 0.3182,
      "velocity": 97,
      "chip": "ym2612"
    },
    {
      "channel": 2,
      "note": 36,
      "start": 57.0798,
      "duration": 0.3175,
      "velocity": 127,
      "chip": "ym2612"
    },
    {
      "channel": 3,
      "note": 67,
      "start": 57.0806,
      "duration": 1.3642,
      "velocity": 106,
      "chip": "ym2612"
    },
    {
      "channel": 1,
      "note": 59,
      "start": 57.4285,
      "duration": 0.3328,
      "velocity": 97,
      "chip": "ym2612"
    },
    {
      "channel": 2,
      "note": 48,
      "start": 57.4293,
      "duration": 0.1487,
      "velocity": 127,
      "chip": "ym2612"
    },
    {
      "channel": 2,
      "note": 48,
      "start": 57.6117,
      "duration": 0.1498,
      "velocity": 127,
      "chip": "ym2612"
    },
    {
      "channel": 0,
      "note": 86,
      "start": 57.795,
      "duration": 0.7025,
      "velocity": 101,
      "chip": "ym2612"
    },
    {
      "channel": 1,
      "note": 62,
      "start": 57.7957,
      "duration": 0.3156,
      "velocity": 97,
      "chip": "ym2612"
    },
    {
      "channel": 2,
      "note": 48,
      "start": 57.7963,
      "duration": 0.3152,
      "velocity": 127,
      "chip": "ym2612"
    },
    {
      "channel": 1,
      "note": 59,
      "start": 58.1451,
      "duration": 0.3329,
      "velocity": 97,
      "chip": "ym2612"
    },
    {
      "channel": 2,
      "note": 48,
      "start": 58.1456,
      "duration": 0.149,
      "velocity": 127,
      "chip": "ym2612"
    },
    {
      "channel": 2,
      "note": 48,
      "start": 58.3283,
      "duration": 0.1498,
      "velocity": 127,
      "chip": "ym2612"
    },
    {
      "channel": 0,
      "note": 88,
      "start": 58.4978,
      "duration": 0.7136,
      "velocity": 101,
      "chip": "ym2612"
    },
    {
      "channel": 1,
      "note": 67,
      "start": 58.4985,
      "duration": 0.3295,
      "velocity": 97,
      "chip": "ym2612"
    },
    {
      "channel": 2,
      "note": 48,
      "start": 58.4991,
      "duration": 0.1482,
      "velocity": 127,
      "chip": "ym2612"
    },
    {
      "channel": 2,
      "note": 48,
      "start": 58.6783,
      "duration": 0.1498,
      "velocity": 127,
      "chip": "ym2612"
    },
    {
      "channel": 1,
      "note": 62,
      "start": 58.8617,
      "duration": 0.3329,
      "velocity": 97,
      "chip": "ym2612"
    },
    {
      "channel": 2,
      "note": 36,
      "start": 58.8624,
      "duration": 0.1489,
      "velocity": 127,
      "chip": "ym2612"
    },
    {
      "channel": 3,
      "note": 67,
      "start": 58.863,
      "duration": 0.6651,
      "velocity": 106,
      "chip": "ym2612"
    },
    {
      "channel": 2,
      "note": 48,
      "start": 59.0452,
      "duration": 0.1496,
      "velocity": 127,
      "chip": "ym2612"
    },
    {
      "channel": 0,
      "note": 91,
      "start": 59.2117,
      "duration": 0.7163,
      "velocity": 101,
      "chip": "ym2612"
    },
    {
      "channel": 1,
      "note": 59,
      "start": 59.2124,
      "duration": 0.3322,
      "velocity": 97,
      "chip": "ym2612"
    },
    {
      "channel": 2,
      "note": 48,
      "start": 59.2129,
      "duration": 0.1484,
      "velocity": 127,
      "chip": "ym2612"
    },
    {
      "channel": 2,
      "note": 36,
      "start": 59.3951,
      "duration": 0.3329,
      "velocity": 127,
      "chip": "ym2612"
    },
    {
      "channel": 1,
      "note": 55,
      "start": 59.5784,
      "duration": 0.3162,
      "velocity": 97,
      "chip": "ym2612"
    },
    {
      "channel": 3,
      "note": 69,
      "start": 59.5792,
      "duration": 0.2989,
      "velocity": 106,
      "chip": "ym2612"
    },
    {
      "channel": 2,
      "note": 48,
      "start": 59.7477,
      "duration": 0.1471,
      "velocity": 127,
      "chip": "ym2612"
    },
    {
      "channel": 0,
      "note": 86,
      "start": 59.9283,
      "duration": 2.8329,
      "velocity": 101,
      "chip": "ym2612"
    },
    {
      "channel": 1,
      "note": 59,
      "start": 59.929,
      "duration": 0.3322,
      "velocity": 97,
      "chip": "ym2612"
    },
    {
      "channel": 2,
      "note": 36,
      "start": 59.9298,
      "duration": 0.3317,
      "velocity": 127,
      "chip": "ym2612"
    },
    {
      "channel": 3,
      "note": 71,
      "start": 59.9305,
      "duration": 1.0143,
      "velocity": 106,
      "chip": "ym2612"
    },
    {
      "channel": 1,
      "note": 62,
      "start": 60.281,
      "duration": 0.3303,
      "velocity": 97,
      "chip": "ym2612"
    },
    {
      "channel": 2,
      "note": 48,
      "start": 60.2817,
      "duration": 0.1492,
      "velocity": 127,
      "chip": "ym2612"
    },
    {
      "channel": 2,
      "note": 48,
      "start": 60.4617,
      "duration": 0.1498,
      "velocity": 127,
      "chip": "ym2612"
    },
    {
      "channel": 1,
      "note": 66,
      "start": 60.6451,
      "duration": 0.3329,
      "velocity": 97,
      "chip": "ym2612"
    },
    {
      "channel": 2,
      "note": 48,
      "start": 60.6456,
      "duration": 0.3325,
      "velocity": 127,
      "chip": "ym2612"
    },
    {
      "channel": 1,
      "note": 62,
      "start": 60.9951,
      "duration": 0.3329,
      "velocity": 97,
      "chip": "ym2612"
    },
    {
      "channel": 2,
      "note": 48,
      "start": 60.9956,
      "duration": 0.149,
      "velocity": 127,
      "chip": "ym2612"
    },
    {
      "channel": 3,
      "note": 71,
      "start": 60.9962,
      "duration": 0.382,
      "velocity": 106,
      "chip": "ym2612"
    },
    {
      "channel": 2,
      "note": 48,
      "start": 61.1783,
      "duration": 0.1498,
      "velocity": 127,
      "chip": "ym2612"
    },
    {
      "channel": 1,
      "note": 71,
      "start": 61.3618,
      "duration": 0.3161,
      "velocity": 97,
      "chip": "ym2612"
    },
    {
      "channel": 2,
      "note": 48,
      "start": 61.3625,
      "duration": 0.1488,
      "velocity": 127,
      "chip": "ym2612"
    },
    {
      "channel": 2,
      "note": 36,
      "start": 61.5327,
      "duration": 0.1455,
      "velocity": 127,
      "chip": "ym2612"
    },
    {
      "channel": 1,
      "note": 66,
      "start": 61.7117,
      "duration": 0.3329,
      "velocity": 97,
      "chip": "ym2612"
    },
    {
      "channel": 2,
      "note": 36,
      "start": 61.7123,
      "duration": 0.149,
      "velocity": 127,
      "chip": "ym2612"
    },
    {
      "channel": 3,
      "note": 71,
      "start": 61.7129,
      "duration": 0.6653,
      "velocity": 106,
      "chip": "ym2612"
    },
    {
      "channel": 2,
      "note": 48,
      "start": 61.8954,
      "duration": 0.1494,
      "velocity": 127,
      "chip": "ym2612"
    },
    {
      "channel": 1,
      "note": 62,
      "start": 62.0784,
      "duration": 0.3162,
      "velocity": 97,
      "chip": "ym2612"
    },
    {
      "channel": 2,
      "note": 36,
      "start": 62.0791,
      "duration": 0.1375,
      "velocity": 127,
      "chip": "ym2612"
    },
    {
      "channel": 2,
      "note": 48,
      "start": 62.2451,
      "duration": 0.1497,
      "velocity": 127,
      "chip": "ym2612"
    },
    {
      "channel": 1,
      "note": 59,
      "start": 62.4285,
      "duration": 0.3329,
      "velocity": 97,
      "chip": "ym2612"
    },
    {
      "channel": 2,
      "note": 48,
      "start": 62.4292,
      "duration": 0.3324,
      "velocity": 127,
      "chip": "ym2612"
    },
    {
      "channel": 3,
      "note": 66,
      "start": 62.4299,
      "duration": 0.3321,
      "velocity": 106,
      "chip": "ym2612"
    },
    {
      "channel": 0,
      "note": 88,
      "start": 62.7783,
      "duration": 1.433,
      "velocity": 101,
      "chip": "ym2612"
    },
    {
      "channel": 1,
      "note": 60,
      "start": 62.779,
      "duration": 0.3322,
      "velocity": 97,
      "chip": "ym2612"
    },
    {
      "channel": 2,
      "note": 36,
      "start": 62.7798,
      "duration": 0.3316,
      "velocity": 127,
      "chip": "ym2612"
    },
    {
      "channel": 3,
      "note": 72,
      "start": 62.7806,
      "duration": 1.3642,
      "velocity": 106,
      "chip": "ym2612"
    },
    {
      "channel": 1,
      "note": 64,
      "start": 63.1451,
      "duration": 0.3162,
      "velocity": 97,
      "chip": "ym2612"
    },
    {
      "channel": 2,
      "note": 48,
      "start": 63.1458,
      "duration": 0.1489,
      "velocity": 127,
      "chip": "ym2612"
    },
    {
      "channel": 2,
      "note": 48,
      "start": 63.3143,
      "duration": 0.1472,
      "velocity": 127,
      "chip": "ym2612"
    },
    {
      "channel": 1,
      "note": 67,
      "start": 63.4952,
      "duration": 0.3328,
      "velocity": 97,
      "chip": "ym2612"
    },
    {
      "channel": 2,
      "note": 48,
      "start": 63.4959,
      "duration": 0.3323,
      "velocity": 127,
      "chip": "ym2612"
    },
    {
      "channel": 1,
      "note": 64,
      "start": 63.8617,
      "duration": 0.3162,
      "velocity": 97,
      "chip": "ym2612"
    },
    {
      "channel": 2,
      "note": 48,
      "start": 63.8623,
      "duration": 0.1376,
      "velocity": 127,
      "chip": "ym2612"
    },
    {
      "channel": 2,
      "note": 48,
      "start": 64.0283,
      "duration": 0.1498,
      "velocity": 127,
      "chip": "ym2612"
    },
    {
      "channel": 0,
      "note": 88,
      "start": 64.2117,
      "duration": 0.7163,
      "velocity": 101,
      "chip": "ym2612"
    },
    {
      "channel": 1,
      "note": 72,
      "start": 64.2124,
      "duration": 0.3322,
      "velocity": 97,
      "chip": "ym2612"
    },
    {
      "channel": 2,
      "note": 48,
      "start": 64.2129,
      "duration": 0.1484,
      "velocity": 127,
      "chip": "ym2612"
    },
    {
      "channel": 2,
      "note": 48,
      "start": 64.395,
      "duration": 0.1498,
      "velocity": 127,
      "chip": "ym2612"
    },
    {
      "channel": 1,
      "note": 67,
      "start": 64.5618,
      "duration": 0.3328,
      "velocity": 97,
      "chip": "ym2612"
    },
    {
      "channel": 2,
      "note": 36,
      "start": 64.5627,
      "duration": 0.1487,
      "velocity": 127,
      "chip": "ym2612"
    },
    {
      "channel": 3,
      "note": 72,
      "start": 64.5632,
      "duration": 0.6677,
      "velocity": 106,
      "chip": "ym2612"
    },
    {
      "channel": 2,
      "note": 48,
      "start": 64.7451,
      "duration": 0.1497,
      "velocity": 127,
      "chip": "ym2612"
    },
    {
      "channel": 0,
      "note": 91,
      "start": 64.9283,
      "duration": 0.7163,
      "velocity": 101,
      "chip": "ym2612"
    },
    {
      "channel": 1,
      "note": 64,
      "start": 64.929,
      "duration": 0.3156,
      "velocity": 97,
      "chip": "ym2612"
    },
    {
      "channel": 2,
      "note": 48,
      "start": 64.9296,
      "duration": 0.1484,
      "velocity": 127,
      "chip": "ym2612"
    },
    {
      "channel": 2,
      "note": 36,
      "start": 65.098,
      "duration": 0.33,
      "velocity": 127,
      "chip": "ym2612"
    },
    {
      "channel": 1,
      "note": 60,
      "start": 65.2784,
      "duration": 0.3329,
      "velocity": 97,
      "chip": "ym2612"
    },
    {
      "channel": 3,
      "note": 72,
      "start": 65.279,
      "duration": 0.3326,
      "velocity": 106,
      "chip": "ym2612"
    },
    {
      "channel": 2,
      "note": 48,
      "start": 65.4618,
      "duration": 0.1497,
      "velocity": 127,
      "chip": "ym2612"
    },
    {
      "channel": 0,
      "note": 86,
      "start": 65.6451,
      "duration": 1.4163,
      "velocity": 101,
      "chip": "ym2612"
    },
    {
      "channel": 1,
      "note": 59,
      "start": 65.6458,
      "duration": 0.3155,
      "velocity": 97,
      "chip": "ym2612"
    },
    {
      "channel": 2,
      "note": 36,
      "start": 65.6464,
      "duration": 0.315,
      "velocity": 127,
      "chip": "ym2612"
    },
    {
      "channel": 3,
      "note": 71,
      "start": 65.6471,
      "duration": 1.3643,
      "velocity": 106,
      "chip": "ym2612"
    },
    {
      "channel": 1,
      "note": 62,
      "start": 65.9951,
      "duration": 0.3329,
      "velocity": 97,
      "chip": "ym2612"
    },
    {
      "channel": 2,
      "note": 48,
      "start": 65.9958,
      "duration": 0.1489,
      "velocity": 127,
      "chip": "ym2612"
    },
    {
      "channel": 2,
      "note": 48,
      "start": 66.1783,
      "duration": 0.1498,
      "velocity": 127,
      "chip": "ym2612"
    },
    {
      "channel": 1,
      "note": 66,
      "start": 66.3451,
      "duration": 0.3329,
      "velocity": 97,
      "chip": "ym2612"
    },
    {
      "channel": 2,
      "note": 48,
      "start": 66.3456,
      "duration": 0.3325,
      "velocity": 127,
      "chip": "ym2612"
    },
    {
      "channel": 1,
      "note": 62,
      "start": 66.7117,
      "duration": 0.3162,
      "velocity": 97,
      "chip": "ym2612"
    },
    {
      "channel": 2,
      "note": 48,
      "start": 66.7123,
      "duration": 0.149,
      "velocity": 127,
      "chip": "ym2612"
    },
    {
      "channel": 2,
      "note": 48,
      "start": 66.8835,
      "duration": 0.1446,
      "velocity": 127,
      "chip": "ym2612"
    },
    {
      "channel": 0,
      "note": 83,
      "start": 67.0617,
      "duration": 1.3662,
      "velocity": 101,
      "chip": "ym2612"
    },
    {
      "channel": 1,
      "note": 71,
      "start": 67.0624,
      "duration": 0.3322,
      "velocity": 97,
      "chip": "ym2612"
    },
    {
      "channel": 2,
      "note": 48,
      "start": 67.0629,
      "duration": 0.1484,
      "velocity": 127,
      "chip": "ym2612"
    },
    {
      "channel": 2,
      "note": 36,
      "start": 67.2451,
      "duration": 0.1497,
      "velocity": 127,
      "chip": "ym2612"
    },
    {
      "channel": 1,
      "note": 66,
      "start": 67.4285,
      "duration": 0.3161,
      "velocity": 97,
      "chip": "ym2612"
    },
    {
      "channel": 2,
      "note": 36,
      "start": 67.4292,
      "duration": 0.135,
      "velocity": 127,
      "chip": "ym2612"
    },
    {
      "channel": 3,
      "note": 71,
      "start": 67.4298,
      "duration": 0.665,
      "velocity": 106,
      "chip": "ym2612"
    },
    {
      "channel": 2,
      "note": 48,
      "start": 67.5951,
      "duration": 0.1497,
      "velocity": 127,
      "chip": "ym2612"
    },
    {
      "channel": 1,
      "note": 62,
      "start": 67.7784,
      "duration": 0.3329,
      "velocity": 97,
      "chip": "ym2612"
    },
    {
      "channel": 2,
      "note": 36,
      "start": 67.7791,
      "duration": 0.1489,
      "velocity": 127,
      "chip": "ym2612"
    },
    {
      "channel": 2,
      "note": 48,
      "start": 67.962,
      "duration": 0.1494,
      "velocity": 127,
      "chip": "ym2612"
    },
    {
      "channel": 1,
      "note": 59,
      "start": 68.1284,
      "duration": 0.3329,
      "velocity": 97,
      "chip": "ym2612"
    },
    {
      "channel": 2,
      "note": 48,
      "start": 68.129,
      "duration": 0.3325,
      "velocity": 127,
      "chip": "ym2612"
    },
    {
      "channel": 3,
      "note": 71,
      "start": 68.1295,
      "duration": 0.2987,
      "velocity": 106,
      "chip": "ym2612"
    },
    {
      "channel": 0,
      "note": 81,
      "start": 68.495,
      "duration": 0.7163,
      "velocity": 101,
      "chip": "ym2612"
    },
    {
      "channel": 1,
      "note": 57,
      "start": 68.4959,
      "duration": 0.3153,
      "velocity": 97,
      "chip": "ym2612"
    },
    {
      "channel": 2,
      "note": 36,
      "start": 68.4968,
      "duration": 0.3147,
      "velocity": 127,
      "chip": "ym2612"
    },
    {
      "channel": 3,
      "note": 69,
      "start": 68.4975,
      "duration": 1.3639,
      "velocity": 106,
      "chip": "ym2612"
    },
    {
      "channel": 1,
      "note": 60,
      "start": 68.8451,
      "duration": 0.3329,
      "velocity": 97,
      "chip": "ym2612"
    },
    {
      "channel": 2,
      "note": 48,
      "start": 68.8458,
      "duration": 0.1489,
      "velocity": 127,
      "chip": "ym2612"
    },
    {
      "channel": 2,
      "note": 48,
      "start": 69.0283,
      "duration": 0.1498,
      "velocity": 127,
      "chip": "ym2612"
    },
    {
      "channel": 0,
      "note": 83,
      "start": 69.2117,
      "duration": 0.6997,
      "velocity": 101,
      "chip": "ym2612"
    },
    {
      "channel": 1,
      "note": 64,
      "start": 69.2124,
      "duration": 0.3156,
      "velocity": 97,
      "chip": "ym2612"
    },
    {
      "channel": 2,
      "note": 48,
      "start": 69.2129,
      "duration": 0.3152,
      "velocity": 127,
      "chip": "ym2612"
    },
    {
      "channel": 1,
      "note": 60,
      "start": 69.5618,
      "duration": 0.3328,
      "velocity": 97,
      "chip": "ym2612"
    },
    {
      "channel": 2,
      "note": 48,
      "start": 69.5625,
      "duration": 0.1488,
      "velocity": 127,
      "chip": "ym2612"
    },
    {
      "channel": 2,
      "note": 48,
      "start": 69.745,
      "duration": 0.1498,
      "velocity": 127,
      "chip": "ym2612"
    },
    {
      "channel": 0,
      "note": 86,
      "start": 69.9117,
      "duration": 1.083,
      "velocity": 101,
      "chip": "ym2612"
    },
    {
      "channel": 1,
      "note": 69,
      "start": 69.9124,
      "duration": 0.3322,
      "velocity": 97,
      "chip": "ym2612"
    },
    {
      "channel": 2,
      "note": 48,
      "start": 69.9129,
      "duration": 0.1484,
      "velocity": 127,
      "chip": "ym2612"
    },
    {
      "channel": 2,
      "note": 48,
      "start": 70.095,
      "duration": 0.1498,
      "velocity": 127,
      "chip": "ym2612"
    },
    {
      "channel": 1,
      "note": 64,
      "start": 70.2784,
      "duration": 0.3162,
      "velocity": 97,
      "chip": "ym2612"
    },
    {
      "channel": 2,
      "note": 36,
      "start": 70.2791,
      "duration": 0.1489,
      "velocity": 127,
      "chip": "ym2612"
    },
    {
      "channel": 3,
      "note": 64,
      "start": 70.2798,
      "duration": 0.2984,
      "velocity": 106,
      "chip": "ym2612"
    },
    {
      "channel": 2,
      "note": 48,
      "start": 70.4477,
      "duration": 0.1471,
      "velocity": 127,
      "chip": "ym2612"
    },
    {
      "channel": 1,
      "note": 60,
      "start": 70.6285,
      "duration": 0.3328,
      "velocity": 97,
      "chip": "ym2612"
    },
    {
      "channel": 2,
      "note": 48,
      "start": 70.6292,
      "duration": 0.1488,
      "velocity": 127,
      "chip": "ym2612"
    },
    {
      "channel": 3,
      "note": 69,
      "start": 70.6299,
      "duration": 0.2982,
      "velocity": 106,
      "chip": "ym2612"
    },
    {
      "channel": 2,
      "note": 36,
      "start": 70.8118,
      "duration": 0.3188,
      "velocity": 127,
      "chip": "ym2612"
    },
    {
      "channel": 0,
      "note": 83,
      "start": 70.9951,
      "duration": 0.3496,
      "velocity": 101,
      "chip": "ym2612"
    },
    {
      "channel": 1,
      "note": 57,
      "start": 70.9958,
      "duration": 0.3155,
      "velocity": 97,
      "chip": "ym2612"
    },
    {
      "channel": 3,
      "note": 64,
      "start": 70.9965,
      "duration": 0.2842,
      "velocity": 106,
      "chip": "ym2612"
    },
    {
      "channel": 2,
      "note": 48,
      "start": 71.162,
      "duration": 0.1494,
      "velocity": 127,
      "chip": "ym2612"
    },
    {
      "channel": 0,
      "note": 81,
      "start": 71.345,
      "duration": 2.8218,
      "velocity": 101,
      "chip": "ym2612"
    },
    {
      "channel": 1,
      "note": 62,
      "start": 71.3457,
      "duration": 0.3322,
      "velocity": 97,
      "chip": "ym2612"
    },
    {
      "channel": 2,
      "note": 36,
      "start": 71.347,
      "duration": 0.3311,
      "velocity": 127,
      "chip": "ym2612"
    },
    {
      "channel": 3,
      "note": 62,
      "start": 71.3477,
      "duration": 1.3637,
      "velocity": 106,
      "chip": "ym2612"
    },
    {
      "channel": 1,
      "note": 66,
      "start": 71.6952,
      "duration": 0.3328,
      "velocity": 97,
      "chip": "ym2612"
    },
    {
      "channel": 2,
      "note": 48,
      "start": 71.696,
      "duration": 0.1487,
      "velocity": 127,
      "chip": "ym2612"
    },
    {
      "channel": 2,
      "note": 48,
      "start": 71.8783,
      "duration": 0.1498,
      "velocity": 127,
      "chip": "ym2612"
    },
    {
      "channel": 1,
      "note": 69,
      "start": 72.0617,
      "duration": 0.3205,
      "velocity": 97,
      "chip": "ym2612"
    },
    {
      "channel": 2,
      "note": 48,
      "start": 72.0623,
      "duration": 0.32,
      "velocity": 127,
      "chip": "ym2612"
    },
    {
      "channel": 1,
      "note": 66,
      "start": 72.4117,
      "duration": 0.3329,
      "velocity": 97,
      "chip": "ym2612"
    },
    {
      "channel": 2,
      "note": 48,
      "start": 72.4123,
      "duration": 0.149,
      "velocity": 127,
      "chip": "ym2612"
    },
    {
      "channel": 2,
      "note": 48,
      "start": 72.595,
      "duration": 0.1498,
      "velocity": 127,
      "chip": "ym2612"
    },
    {
      "channel": 1,
      "note": 74,
      "start": 72.7784,
      "duration": 0.3162,
      "velocity": 97,
      "chip": "ym2612"
    },
    {
      "channel": 2,
      "note": 48,
      "start": 72.779,
      "duration": 0.1366,
      "velocity": 127,
      "chip": "ym2612"
    },
    {
      "channel": 2,
      "note": 36,
      "start": 72.9451,
      "duration": 0.1497,
      "velocity": 127,
      "chip": "ym2612"
    },
    {
      "channel": 1,
      "note": 69,
      "start": 73.1284,
      "duration": 0.3329,
      "velocity": 97,
      "chip": "ym2612"
    },
    {
      "channel": 2,
      "note": 36,
      "start": 73.129,
      "duration": 0.149,
      "velocity": 127,
      "chip": "ym2612"
    },
    {
      "channel": 3,
      "note": 69,
      "start": 73.1297,
      "duration": 0.2984,
      "velocity": 106,
      "chip": "ym2612"
    },
    {
      "channel": 2,
      "note": 48,
      "start": 73.3118,
      "duration": 0.1497,
      "velocity": 127,
      "chip": "ym2612"
    },
    {
      "channel": 1,
      "note": 66,
      "start": 73.4784,
      "duration": 0.3329,
      "velocity": 97,
      "chip": "ym2612"
    },
    {
      "channel": 2,
      "note": 36,
      "start": 73.4791,
      "duration": 0.1489,
      "velocity": 127,
      "chip": "ym2612"
    },
    {
      "channel": 3,
      "note": 74,
      "start": 73.4798,
      "duration": 0.6816,
      "velocity": 106,
      "chip": "ym2612"
    },
    {
      "channel": 2,
      "note": 46,
      "start": 73.6618,
      "duration": 0.1497,
      "velocity": 127,
      "chip": "ym2612"
    },
    {
      "channel": 1,
      "note": 62,
      "start": 73.8451,
      "duration": 0.322,
      "velocity": 97,
      "chip": "ym2612"
    },
    {
      "channel": 2,
      "note": 42,
      "start": 73.8458,
      "duration": 0.1489,
      "velocity": 127,
      "chip": "ym2612"
    },
    {
      "channel": 2,
      "note": 39,
      "start": 74.0161,
      "duration": 0.1511,
      "velocity": 127,
      "chip": "ym2612"
    },
    {
      "channel": 0,
      "note": 88,
      "start": 74.1982,
      "duration": 1.363,
      "velocity": 93,
      "chip": "ym2612"
    },
    {
      "channel": 1,
      "note": 59,
      "start": 74.1995,
      "duration": 0.0618,
      "velocity": 97,
      "chip": "ym2612"
    },
    {
      "channel": 2,
      "note": 36,
      "start": 74.2003,
      "duration": 0.2943,
      "velocity": 127,
      "chip": "ym2612"
    },
    {
      "channel": 3,
      "note": 52,
      "start": 74.2016,
      "duration": 2.11,
      "velocity": 106,
      "chip": "ym2612"
    },
    {
      "channel": 1,
      "note": 64,
      "start": 74.2617,
      "duration": 0.0497,
      "velocity": 97,
      "chip": "ym2612"
    },
    {
      "channel": 1,
      "note": 67,
      "start": 74.3117,
      "duration": 0.0663,
      "velocity": 97,
      "chip": "ym2612"
    },
    {
      "channel": 1,
      "note": 71,
      "start": 74.3784,
      "duration": 0.8662,
      "velocity": 97,
      "chip": "ym2612"
    },
    {
      "channel": 2,
      "note": 46,
      "start": 74.7285,
      "duration": 0.1495,
      "velocity": 127,
      "chip": "ym2612"
    },
    {
      "channel": 1,
      "note": 59,
      "start": 75.2669,
      "duration": 0.0611,
      "velocity": 97,
      "chip": "ym2612"
    },
    {
      "channel": 2,
      "note": 46,
      "start": 75.2675,
      "duration": 0.294,
      "velocity": 127,
      "chip": "ym2612"
    },
    {
      "channel": 1,
      "note": 64,
      "start": 75.3284,
      "duration": 0.0663,
      "velocity": 97,
      "chip": "ym2612"
    },
    {
      "channel": 1,
      "note": 67,
      "start": 75.3951,
      "duration": 0.0497,
      "velocity": 97,
      "chip": "ym2612"
    },
    {
      "channel": 1,
      "note": 71,
      "start": 75.4451,
      "duration": 0.8662,
      "velocity": 97,
      "chip": "ym2612"
    },
    {
      "channel": 0,
      "note": 95,
      "start": 75.6283,
      "duration": 1.3662,
      "velocity": 93,
      "chip": "ym2612"
    },
    {
      "channel": 2,
      "note": 46,
      "start": 75.7976,
      "duration": 0.1497,
      "velocity": 127,
      "chip": "ym2612"
    },
    {
      "channel": 2,
      "note": 46,
      "start": 75.9783,
      "duration": 0.1497,
      "velocity": 127,
      "chip": "ym2612"
    },
    {
      "channel": 2,
      "note": 43,
      "start": 76.162,
      "duration": 0.1494,
      "velocity": 127,
      "chip": "ym2612"
    },
    {
      "channel": 1,
      "note": 59,
      "start": 76.3451,
      "duration": 0.0495,
      "velocity": 97,
      "chip": "ym2612"
    },
    {
      "channel": 2,
      "note": 39,
      "start": 76.3458,
      "duration": 0.2877,
      "velocity": 127,
      "chip": "ym2612"
    },
    {
      "channel": 1,
      "note": 64,
      "start": 76.3951,
      "duration": 0.0663,
      "velocity": 97,
      "chip": "ym2612"
    },
    {
      "channel": 1,
      "note": 67,
      "start": 76.4617,
      "duration": 0.0497,
      "velocity": 97,
      "chip": "ym2612"
    },
    {
      "channel": 1,
      "note": 71,
      "start": 76.5117,
      "duration": 0.5162,
      "velocity": 97,
      "chip": "ym2612"
    },
    {
      "channel": 2,
      "note": 36,
      "start": 76.6954,
      "duration": 0.2994,
      "velocity": 127,
      "chip": "ym2612"
    },
    {
      "channel": 3,
      "note": 59,
      "start": 76.6961,
      "duration": 0.2989,
      "velocity": 106,
      "chip": "ym2612"
    },
    {
      "channel": 0,
      "note": 93,
      "start": 77.0502,
      "duration": 0.6777,
      "velocity": 93,
      "chip": "ym2612"
    },
    {
      "channel": 1,
      "note": 57,
      "start": 77.0509,
      "duration": 0.0605,
      "velocity": 97,
      "chip": "ym2612"
    },
    {
      "channel": 2,
      "note": 36,
      "start": 77.0515,
      "duration": 0.2932,
      "velocity": 127,
      "chip": "ym2612"
    },
    {
      "channel": 3,
      "note": 52,
      "start": 77.0522,
      "duration": 2.1093,
      "velocity": 106,
      "chip": "ym2612"
    },
    {
      "channel": 1,
      "note": 61,
      "start": 77.1117,
      "duration": 0.0663,
      "velocity": 97,
      "chip": "ym2612"
    },
    {
      "channel": 1,
      "note": 64,
      "start": 77.1784,
      "duration": 0.0497,
      "velocity": 97,
      "chip": "ym2612"
    },
    {
      "channel": 1,
      "note": 69,
      "start": 77.2285,
      "duration": 0.8662,
      "velocity": 97,
      "chip": "ym2612"
    },
    {
      "channel": 2,
      "note": 46,
      "start": 77.5952,
      "duration": 0.1355,
      "velocity": 127,
      "chip": "ym2612"
    },
    {
      "channel": 0,
      "note": 91,
      "start": 77.7617,
      "duration": 0.3329,
      "velocity": 93,
      "chip": "ym2612"
    },
    {
      "channel": 0,
      "note": 93,
      "start": 78.1283,
      "duration": 0.3162,
      "velocity": 93,
      "chip": "ym2612"
    },
    {
      "channel": 1,
      "note": 57,
      "start": 78.1291,
      "duration": 0.049,
      "velocity": 97,
      "chip": "ym2612"
    },
    {
      "channel": 2,
      "note": 46,
      "start": 78.1296,
      "duration": 0.2844,
      "velocity": 127,
      "chip": "ym2612"
    },
    {
      "channel": 1,
      "note": 61,
      "start": 78.1784,
      "duration": 0.0663,
      "velocity": 97,
      "chip": "ym2612"
    },
    {
      "channel": 1,
      "note": 64,
      "start": 78.2451,
      "duration": 0.0497,
      "velocity": 97,
      "chip": "ym2612"
    },
    {
      "channel": 1,
      "note": 69,
      "start": 78.2952,
      "duration": 0.8661,
      "velocity": 97,
      "chip": "ym2612"
    },
    {
      "channel": 0,
      "note": 88,
      "start": 78.4783,
      "duration": 0.6662,
      "velocity": 93,
      "chip": "ym2612"
    },
    {
      "channel": 2,
      "note": 46,
      "start": 78.6617,
      "duration": 0.1497,
      "velocity": 127,
      "chip": "ym2612"
    },
    {
      "channel": 2,
      "note": 42,
      "start": 78.8313,
      "duration": 0.2967,
      "velocity": 127,
      "chip": "ym2612"
    },
    {
      "channel": 0,
      "note": 91,
      "start": 79.195,
      "duration": 0.3188,
      "velocity": 93,
      "chip": "ym2612"
    },
    {
      "channel": 1,
      "note": 57,
      "start": 79.1958,
      "duration": 0.049,
      "velocity": 97,
      "chip": "ym2612"
    },
    {
      "channel": 2,
      "note": 42,
      "start": 79.1963,
      "duration": 0.2984,
      "velocity": 127,
      "chip": "ym2612"
    },
    {
      "channel": 3,
      "note": 52,
      "start": 79.1968,
      "duration": 0.298,
      "velocity": 106,
      "chip": "ym2612"
    },
    {
      "channel": 1,
      "note": 61,
      "start": 79.2451,
      "duration": 0.0663,
      "velocity": 97,
      "chip": "ym2612"
    },
    {
      "channel": 1,
      "note": 64,
      "start": 79.3117,
      "duration": 0.0663,
      "velocity": 97,
      "chip": "ym2612"
    },
    {
      "channel": 1,
      "note": 69,
      "start": 79.3785,
      "duration": 0.4996,
      "velocity": 97,
      "chip": "ym2612"
    },
    {
      "channel": 0,
      "note": 93,
      "start": 79.545,
      "duration": 0.3329,
      "velocity": 93,
      "chip": "ym2612"
    },
    {
      "channel": 2,
      "note": 36,
      "start": 79.5458,
      "duration": 0.1489,
      "velocity": 127,
      "chip": "ym2612"
    },
    {
      "channel": 3,
      "note": 54,
      "start": 79.5465,
      "duration": 0.2983,
      "velocity": 106,
      "chip": "ym2612"
    },
    {
      "channel": 0,
      "note": 95,
      "start": 79.9117,
      "duration": 0.6662,
      "velocity": 93,
      "chip": "ym2612"
    },
    {
      "channel": 1,
      "note": 62,
      "start": 79.913,
      "duration": 0.0817,
      "velocity": 97,
      "chip": "ym2612"
    },
    {
      "channel": 2,
      "note": 36,
      "start": 79.9136,
      "duration": 0.2837,
      "velocity": 127,
      "chip": "ym2612"
    },
    {
      "channel": 3,
      "note": 55,
      "start": 79.9144,
      "duration": 1.3638,
      "velocity": 106,
      "chip": "ym2612"
    },
    {
      "channel": 1,
      "note": 67,
      "start": 79.9951,
      "duration": 0.083,
      "velocity": 97,
      "chip": "ym2612"
    },
    {
      "channel": 1,
      "note": 71,
      "start": 80.0784,
      "duration": 1.2191,
      "velocity": 97,
      "chip": "ym2612"
    },
    {
      "channel": 2,
      "note": 46,
      "start": 80.4451,
      "duration": 0.1495,
      "velocity": 127,
      "chip": "ym2612"
    },
    {
      "channel": 0,
      "note": 98,
      "start": 80.6143,
      "duration": 0.6803,
      "velocity": 93,
      "chip": "ym2612"
    },
    {
      "channel": 2,
      "note": 46,
      "start": 80.9783,
      "duration": 0.2997,
      "velocity": 127,
      "chip": "ym2612"
    },
    {
      "channel": 0,
      "note": 95,
      "start": 81.3283,
      "duration": 1.0162,
      "velocity": 93,
      "chip": "ym2612"
    },
    {
      "channel": 1,
      "note": 61,
      "start": 81.3296,
      "duration": 0.0985,
      "velocity": 97,
      "chip": "ym2612"
    },
    {
      "channel": 3,
      "note": 57,
      "start": 81.3304,
      "duration": 1.3644,
      "velocity": 106,
      "chip": "ym2612"
    },
    {
      "channel": 1,
      "note": 64,
      "start": 81.4285,
      "duration": 0.0829,
      "velocity": 97,
      "chip": "ym2612"
    },
    {
      "channel": 1,
      "note": 71,
      "start": 81.5117,
      "duration": 1.2163,
      "velocity": 97,
      "chip": "ym2612"
    },
    {
      "channel": 2,
      "note": 46,
      "start": 81.5123,
      "duration": 0.149,
      "velocity": 127,
      "chip": "ym2612"
    },
    {
      "channel": 2,
      "note": 46,
      "start": 81.695,
      "duration": 0.1498,
      "velocity": 127,
      "chip": "ym2612"
    },
    {
      "channel": 2,
      "note": 43,
      "start": 81.8618,
      "duration": 0.1495,
      "velocity": 127,
      "chip": "ym2612"
    },
    {
      "channel": 2,
      "note": 39,
      "start": 82.0451,
      "duration": 0.2997,
      "velocity": 127,
      "chip": "ym2612"
    },
    {
      "channel": 0,
      "note": 93,
      "start": 82.4003,
      "duration": 0.3276,
      "velocity": 93,
      "chip": "ym2612"
    },
    {
      "channel": 2,
      "note": 36,
      "start": 82.401,
      "duration": 0.2937,
      "velocity": 127,
      "chip": "ym2612"
    },
    {
      "channel": 0,
      "note": 95,
      "start": 82.7617,
      "duration": 2.8162,
      "velocity": 93,
      "chip": "ym2612"
    },
    {
      "channel": 1,
      "note": 59,
      "start": 82.7632,
      "duration": 0.0648,
      "velocity": 97,
      "chip": "ym2612"
    },
    {
      "channel": 2,
      "note": 36,
      "start": 82.7638,
      "duration": 0.2976,
      "velocity": 127,
      "chip": "ym2612"
    },
    {
      "channel": 3,
      "note": 59,
      "start": 82.7645,
      "duration": 1.0013,
      "velocity": 106,
      "chip": "ym2612"
    },
    {
      "channel": 1,
      "note": 63,
      "start": 82.8285,
      "duration": 0.0829,
      "velocity": 97,
      "chip": "ym2612"
    },
    {
      "channel": 1,
      "note": 66,
      "start": 82.9117,
      "duration": 0.0663,
      "velocity": 97,
      "chip": "ym2612"
    },
    {
      "channel": 1,
      "note": 71,
      "start": 82.9784,
      "duration": 0.2995,
      "velocity": 97,
      "chip": "ym2612"
    },
    {
      "channel": 1,
      "note": 71,
      "start": 83.2949,
      "duration": 0.1497,
      "velocity": 97,
      "chip": "ym2612"
    },
    {
      "channel": 2,
      "note": 46,
      "start": 83.2959,
      "duration": 0.1489,
      "velocity": 127,
      "chip": "ym2612"
    },
    {
      "channel": 1,
      "note": 59,
      "start": 83.8285,
      "duration": 0.0662,
      "velocity": 97,
      "chip": "ym2612"
    },
    {
      "channel": 2,
      "note": 46,
      "start": 83.8292,
      "duration": 0.2988,
      "velocity": 127,
      "chip": "ym2612"
    },
    {
      "channel": 3,
      "note": 59,
      "start": 83.8298,
      "duration": 0.6484,
      "velocity": 106,
      "chip": "ym2612"
    },
    {
      "channel": 1,
      "note": 63,
      "start": 83.8952,
      "duration": 0.0495,
      "velocity": 97,
      "chip": "ym2612"
    },
    {
      "channel": 1,
      "note": 66,
      "start": 83.9451,
      "duration": 0.0663,
      "velocity": 97,
      "chip": "ym2612"
    },
    {
      "channel": 1,
      "note": 71,
      "start": 84.0117,
      "duration": 0.4995,
      "velocity": 97,
      "chip": "ym2612"
    },
    {
      "channel": 2,
      "note": 46,
      "start": 84.3617,
      "duration": 0.1498,
      "velocity": 127,
      "chip": "ym2612"
    },
    {
      "channel": 1,
      "note": 59,
      "start": 84.5451,
      "duration": 0.0548,
      "velocity": 97,
      "chip": "ym2612"
    },
    {
      "channel": 2,
      "note": 42,
      "start": 84.5458,
      "duration": 0.2989,
      "velocity": 127,
      "chip": "ym2612"
    },
    {
      "channel": 3,
      "note": 54,
      "start": 84.5464,
      "duration": 0.2984,
      "velocity": 106,
      "chip": "ym2612"
    },
    {
      "channel": 1,
      "note": 63,
      "start": 84.6002,
      "duration": 0.0611,
      "velocity": 97,
      "chip": "ym2612"
    },
    {
      "channel": 1,
      "note": 66,
      "start": 84.6617,
      "duration": 0.0663,
      "velocity": 97,
      "chip": "ym2612"
    },
    {
      "channel": 1,
      "note": 71,
      "start": 84.7285,
      "duration": 0.1495,
      "velocity": 97,
      "chip": "ym2612"
    },
    {
      "channel": 1,
      "note": 59,
      "start": 84.8952,
      "duration": 0.0829,
      "velocity": 97,
      "chip": "ym2612"
    },
    {
      "channel": 2,
      "note": 42,
      "start": 84.8959,
      "duration": 0.2988,
      "velocity": 127,
      "chip": "ym2612"
    },
    {
      "channel": 3,
      "note": 59,
      "start": 84.8966,
      "duration": 0.6649,
      "velocity": 106,
      "chip": "ym2612"
    },
    {
      "channel": 1,
      "note": 63,
      "start": 84.9784,
      "duration": 0.0663,
      "velocity": 97,
      "chip": "ym2612"
    },
    {
      "channel": 1,
      "note": 66,
      "start": 85.0451,
      "duration": 0.083,
      "velocity": 97,
      "chip": "ym2612"
    },
    {
      "channel": 1,
      "note": 71,
      "start": 85.1284,
      "duration": 0.4497,
      "velocity": 97,
      "chip": "ym2612"
    },
    {
      "channel": 2,
      "note": 36,
      "start": 85.2618,
      "duration": 0.1496,
      "velocity": 127,
      "chip": "ym2612"
    },
    {
      "channel": 0,
      "note": 88,
      "start": 85.6117,
      "duration": 1.3662,
      "velocity": 93,
      "chip": "ym2612"
    },
    {
      "channel": 1,
      "note": 59,
      "start": 85.613,
      "duration": 0.065,
      "velocity": 97,
      "chip": "ym2612"
    },
    {
      "channel": 2,
      "note": 36,
      "start": 85.6136,
      "duration": 0.2977,
      "velocity": 127,
      "chip": "ym2612"
    },
    {
      "channel": 3,
      "note": 52,
      "start": 85.6143,
      "duration": 2.114,
      "velocity": 106,
      "chip": "ym2612"
    },
    {
      "channel": 1,
      "note": 64,
      "start": 85.6784,
      "duration": 0.0496,
      "velocity": 97,
      "chip": "ym2612"
    },
    {
      "channel": 1,
      "note": 67,
      "start": 85.7284,
      "duration": 0.0663,
      "velocity": 97,
      "chip": "ym2612"
    },
    {
      "channel": 1,
      "note": 71,
      "start": 85.7951,
      "duration": 0.8548,
      "velocity": 97,
      "chip": "ym2612"
    },
    {
      "channel": 2,
      "note": 46,
      "start": 86.1451,
      "duration": 0.1495,
      "velocity": 127,
      "chip": "ym2612"
    },
    {
      "channel": 1,
      "note": 59,
      "start": 86.6784,
      "duration": 0.0663,
      "velocity": 97,
      "chip": "ym2612"
    },
    {
      "channel": 2,
      "note": 46,
      "start": 86.679,
      "duration": 0.2992,
      "velocity": 127,
      "chip": "ym2612"
    },
    {
      "channel": 1,
      "note": 64,
      "start": 86.7451,
      "duration": 0.0547,
      "velocity": 97,
      "chip": "ym2612"
    },
    {
      "channel": 1,
      "note": 67,
      "start": 86.8001,
      "duration": 0.0613,
      "velocity": 97,
      "chip": "ym2612"
    },
    {
      "channel": 1,
      "note": 71,
      "start": 86.8617,
      "duration": 0.8662,
      "velocity": 97,
      "chip": "ym2612"
    },
    {
      "channel": 0,
      "note": 95,
      "start": 87.045,
      "duration": 1.3662,
      "velocity": 93,
      "chip": "ym2612"
    },
    {
      "channel": 2,
      "note": 46,
      "start": 87.2117,
      "duration": 0.1497,
      "velocity": 127,
      "chip": "ym2612"
    },
    {
      "channel": 2,
      "note": 46,
      "start": 87.395,
      "duration": 0.1497,
      "velocity": 127,
      "chip": "ym2612"
    },
    {
      "channel": 2,
      "note": 43,
      "start": 87.5785,
      "duration": 0.1497,
      "velocity": 127,
      "chip": "ym2612"
    },
    {
      "channel": 1,
      "note": 59,
      "start": 87.7476,
      "duration": 0.0637,
      "velocity": 97,
      "chip": "ym2612"
    },
    {
      "channel": 2,
      "note": 39,
      "start": 87.7483,
      "duration": 0.2964,
      "velocity": 127,
      "chip": "ym2612"
    },
    {
      "channel": 1,
      "note": 64,
      "start": 87.8117,
      "duration": 0.0663,
      "velocity": 97,
      "chip": "ym2612"
    },
    {
      "channel": 1,
      "note": 67,
      "start": 87.8784,
      "duration": 0.0497,
      "velocity": 97,
      "chip": "ym2612"
    },
    {
      "channel": 1,
      "note": 71,
      "start": 87.9284,
      "duration": 0.5039,
      "velocity": 97,
      "chip": "ym2612"
    },
    {
      "channel": 2,
      "note": 36,
      "start": 88.1118,
      "duration": 0.2997,
      "velocity": 127,
      "chip": "ym2612"
    },
    {
      "channel": 3,
      "note": 59,
      "start": 88.1125,
      "duration": 0.2991,
      "velocity": 106,
      "chip": "ym2612"
    },
    {
      "channel": 0,
      "note": 93,
      "start": 88.4617,
      "duration": 0.6688,
      "velocity": 93,
      "chip": "ym2612"
    },
    {
      "channel": 1,
      "note": 57,
      "start": 88.4624,
      "duration": 0.0656,
      "velocity": 97,
      "chip": "ym2612"
    },
    {
      "channel": 2,
      "note": 36,
      "start": 88.4629,
      "duration": 0.2984,
      "velocity": 127,
      "chip": "ym2612"
    },
    {
      "channel": 3,
      "note": 52,
      "start": 88.4637,
      "duration": 2.1145,
      "velocity": 106,
      "chip": "ym2612"
    },
    {
      "channel": 1,
      "note": 61,
      "start": 88.5284,
      "duration": 0.0522,
      "velocity": 97,
      "chip": "ym2612"
    },
    {
      "channel": 1,
      "note": 64,
      "start": 88.581,
      "duration": 0.0637,
      "velocity": 97,
      "chip": "ym2612"
    },
    {
      "channel": 1,
      "note": 69,
      "start": 88.6451,
      "duration": 0.8663,
      "velocity": 97,
      "chip": "ym2612"
    },
    {
      "channel": 2,
      "note": 46,
      "start": 88.9951,
      "duration": 0.1495,
      "velocity": 127,
      "chip": "ym2612"
    },
    {
      "channel": 0,
      "note": 91,
      "start": 89.1783,
      "duration": 0.3329,
      "velocity": 93,
      "chip": "ym2612"
    },
    {
      "channel": 0,
      "note": 93,
      "start": 89.5309,
      "duration": 0.3303,
      "velocity": 93,
      "chip": "ym2612"
    },
    {
      "channel": 1,
      "note": 57,
      "start": 89.5316,
      "duration": 0.063,
      "velocity": 97,
      "chip": "ym2612"
    },
    {
      "channel": 2,
      "note": 46,
      "start": 89.5322,
      "duration": 0.2958,
      "velocity": 127,
      "chip": "ym2612"
    },
    {
      "channel": 1,
      "note": 61,
      "start": 89.5951,
      "duration": 0.0663,
      "velocity": 97,
      "chip": "ym2612"
    },
    {
      "channel": 1,
      "note": 64,
      "start": 89.6617,
      "duration": 0.0497,
      "velocity": 97,
      "chip": "ym2612"
    },
    {
      "channel": 1,
      "note": 69,
      "start": 89.7117,
      "duration": 0.8662,
      "velocity": 97,
      "chip": "ym2612"
    },
    {
      "channel": 0,
      "note": 88,
      "start": 89.895,
      "duration": 1.3662,
      "velocity": 93,
      "chip": "ym2612"
    },
    {
      "channel": 2,
      "note": 46,
      "start": 90.0783,
      "duration": 0.1497,
      "velocity": 127,
      "chip": "ym2612"
    },
    {
      "channel": 2,
      "note": 42,
      "start": 90.2451,
      "duration": 0.2995,
      "velocity": 127,
      "chip": "ym2612"
    },
    {
      "channel": 1,
      "note": 57,
      "start": 90.6117,
      "duration": 0.0496,
      "velocity": 97,
      "chip": "ym2612"
    },
    {
      "channel": 2,
      "note": 42,
      "start": 90.6123,
      "duration": 0.2991,
      "velocity": 127,
      "chip": "ym2612"
    },
    {
      "channel": 1,
      "note": 61,
      "start": 90.6617,
      "duration": 0.0663,
      "velocity": 97,
      "chip": "ym2612"
    },
    {
      "channel": 1,
      "note": 64,
      "start": 90.7284,
      "duration": 0.0548,
      "velocity": 97,
      "chip": "ym2612"
    },
    {
      "channel": 1,
      "note": 69,
      "start": 90.7836,
      "duration": 0.511,
      "velocity": 97,
      "chip": "ym2612"
    },
    {
      "channel": 2,
      "note": 36,
      "start": 90.962,
      "duration": 0.1493,
      "velocity": 127,
      "chip": "ym2612"
    },
    {
      "channel": 3,
      "note": 52,
      "start": 90.9626,
      "duration": 0.2989,
      "velocity": 106,
      "chip": "ym2612"
    },
    {
      "channel": 0,
      "note": 91,
      "start": 91.3284,
      "duration": 0.6661,
      "velocity": 93,
      "chip": "ym2612"
    },
    {
      "channel": 1,
      "note": 60,
      "start": 91.3297,
      "duration": 0.0817,
      "velocity": 97,
      "chip": "ym2612"
    },
    {
      "channel": 2,
      "note": 36,
      "start": 91.3303,
      "duration": 0.281,
      "velocity": 127,
      "chip": "ym2612"
    },
    {
      "channel": 3,
      "note": 60,
      "start": 91.3311,
      "duration": 1.3638,
      "velocity": 106,
      "chip": "ym2612"
    },
    {
      "channel": 1,
      "note": 64,
      "start": 91.4117,
      "duration": 0.083,
      "velocity": 97,
      "chip": "ym2612"
    },
    {
      "channel": 1,
      "note": 67,
      "start": 91.4952,
      "duration": 1.2161,
      "velocity": 97,
      "chip": "ym2612"
    },
    {
      "channel": 2,
      "note": 46,
      "start": 91.8618,
      "duration": 0.1495,
      "velocity": 127,
      "chip": "ym2612"
    },
    {
      "channel": 0,
      "note": 93,
      "start": 92.0283,
      "duration": 0.6693,
      "velocity": 93,
      "chip": "ym2612"
    },
    {
      "channel": 2,
      "note": 46,
      "start": 92.395,
      "duration": 0.2997,
      "velocity": 127,
      "chip": "ym2612"
    },
    {
      "channel": 0,
      "note": 90,
      "start": 92.745,
      "duration": 1.0162,
      "velocity": 93,
      "chip": "ym2612"
    },
    {
      "channel": 1,
      "note": 62,
      "start": 92.7463,
      "duration": 0.0846,
      "velocity": 97,
      "chip": "ym2612"
    },
    {
      "channel": 3,
      "note": 62,
      "start": 92.7471,
      "duration": 1.3644,
      "velocity": 106,
      "chip": "ym2612"
    },
    {
      "channel": 1,
      "note": 66,
      "start": 92.8312,
      "duration": 0.0969,
      "velocity": 97,
      "chip": "ym2612"
    },
    {
      "channel": 1,
      "note": 69,
      "start": 92.9284,
      "duration": 1.2163,
      "velocity": 97,
      "chip": "ym2612"
    },
    {
      "channel": 2,
      "note": 46,
      "start": 92.929,
      "duration": 0.149,
      "velocity": 127,
      "chip": "ym2612"
    },
    {
      "channel": 2,
      "note": 46,
      "start": 93.1117,
      "duration": 0.1356,
      "velocity": 127,
      "chip": "ym2612"
    },
    {
      "channel": 2,
      "note": 43,
      "start": 93.2785,
      "duration": 0.1495,
      "velocity": 127,
      "chip": "ym2612"
    },
    {
      "channel": 2,
      "note": 39,
      "start": 93.4618,
      "duration": 0.2997,
      "velocity": 127,
      "chip": "ym2612"
    },
    {
      "channel": 0,
      "note": 88,
      "start": 93.8117,
      "duration": 0.3329,
      "velocity": 93,
      "chip": "ym2612"
    },
    {
      "channel": 2,
      "note": 36,
      "start": 93.8124,
      "duration": 0.2989,
      "velocity": 127,
      "chip": "ym2612"
    },
    {
      "channel": 0,
      "note": 88,
      "start": 94.1782,
      "duration": 2.8163,
      "velocity": 93,
      "chip": "ym2612"
    },
    {
      "channel": 1,
      "note": 55,
      "start": 94.1795,
      "duration": 0.0653,
      "velocity": 97,
      "chip": "ym2612"
    },
    {
      "channel": 2,
      "note": 36,
      "start": 94.18,
      "duration": 0.298,
      "velocity": 127,
      "chip": "ym2612"
    },
    {
      "channel": 3,
      "note": 64,
      "start": 94.1807,
      "duration": 1.3641,
      "velocity": 106,
      "chip": "ym2612"
    },
    {
      "channel": 1,
      "note": 59,
      "start": 94.2451,
      "duration": 0.083,
      "velocity": 97,
      "chip": "ym2612"
    },
    {
      "channel": 1,
      "note": 64,
      "start": 94.3284,
      "duration": 0.8829,
      "velocity": 97,
      "chip": "ym2612"
    },
    {
      "channel": 2,
      "note": 46,
      "start": 94.7118,
      "duration": 0.1495,
      "velocity": 127,
      "chip": "ym2612"
    },
    {
      "channel": 1,
      "note": 55,
      "start": 95.2451,
      "duration": 0.054,
      "velocity": 97,
      "chip": "ym2612"
    },
    {
      "channel": 2,
      "note": 46,
      "start": 95.2456,
      "duration": 0.299,
      "velocity": 127,
      "chip": "ym2612"
    },
    {
      "channel": 1,
      "note": 59,
      "start": 95.2994,
      "duration": 0.062,
      "velocity": 97,
      "chip": "ym2612"
    },
    {
      "channel": 1,
      "note": 64,
      "start": 95.3618,
      "duration": 0.9161,
      "velocity": 97,
      "chip": "ym2612"
    },
    {
      "channel": 2,
      "note": 46,
      "start": 95.7783,
      "duration": 0.1497,
      "velocity": 127,
      "chip": "ym2612"
    },
    {
      "channel": 3,
      "note": 64,
      "start": 95.7789,
      "duration": 0.1493,
      "velocity": 106,
      "chip": "ym2612"
    },
    {
      "channel": 2,
      "note": 42,
      "start": 95.962,
      "duration": 0.2994,
      "velocity": 127,
      "chip": "ym2612"
    },
    {
      "channel": 3,
      "note": 59,
      "start": 95.9627,
      "duration": 0.3154,
      "velocity": 106,
      "chip": "ym2612"
    },
    {
      "channel": 1,
      "note": 55,
      "start": 96.3117,
      "duration": 0.0663,
      "velocity": 97,
      "chip": "ym2612"
    },
    {
      "channel": 2,
      "note": 42,
      "start": 96.3123,
      "duration": 0.299,
      "velocity": 127,
      "chip": "ym2612"
    },
    {
      "channel": 3,
      "note": 52,
      "start": 96.313,
      "duration": 0.3318,
      "velocity": 106,
      "chip": "ym2612"
    },
    {
      "channel": 1,
      "note": 59,
      "start": 96.3784,
      "duration": 0.0497,
      "velocity": 97,
      "chip": "ym2612"
    },
    {
      "channel": 1,
      "note": 64,
      "start": 96.4285,
      "duration": 0.5662,
      "velocity": 97,
      "chip": "ym2612"
    },
    {
      "channel": 2,
      "note": 36,
      "start": 96.6785,
      "duration": 0.1381,
      "velocity": 127,
      "chip": "ym2612"
    },
    {
      "channel": 3,
      "note": 59,
      "start": 96.6792,
      "duration": 0.3158,
      "velocity": 106,
      "chip": "ym2612"
    },
    {
      "channel": 1,
      "note": 55,
      "start": 97.0294,
      "duration": 0.0706,
      "velocity": 97,
      "chip": "ym2612"
    },
    {
      "channel": 2,
      "note": 36,
      "start": 97.0301,
      "duration": 0.3312,
      "velocity": 127,
      "chip": "ym2612"
    },
    {
      "channel": 3,
      "note": 52,
      "start": 97.0308,
      "duration": 1.364,
      "velocity": 106,
      "chip": "ym2612"
    },
    {
      "channel": 1,
      "note": 59,
      "start": 97.1004,
      "duration": 0.0777,
      "velocity": 97,
      "chip": "ym2612"
    },
    {
      "channel": 1,
      "note": 64,
      "start": 97.1784,
      "duration": 0.8829,
      "velocity": 97,
      "chip": "ym2612"
    },
    {
      "channel": 2,
      "note": 46,
      "start": 97.562,
      "duration": 0.1493,
      "velocity": 127,
      "chip": "ym2612"
    },
    {
      "channel": 1,
      "note": 55,
      "start": 98.0952,
      "duration": 0.0662,
      "velocity": 97,
      "chip": "ym2612"
    },
    {
      "channel": 2,
      "note": 46,
      "start": 98.0959,
      "duration": 0.3321,
      "velocity": 127,
      "chip": "ym2612"
    },
    {
      "channel": 1,
      "note": 59,
      "start": 98.1618,
      "duration": 0.0496,
      "velocity": 97,
      "chip": "ym2612"
    },
    {
      "channel": 1,
      "note": 64,
      "start": 98.2117,
      "duration": 0.9329,
      "velocity": 97,
      "chip": "ym2612"
    },
    {
      "channel": 2,
      "note": 46,
      "start": 98.6283,
      "duration": 0.1497,
      "velocity": 127,
      "chip": "ym2612"
    },
    {
      "channel": 2,
      "note": 46,
      "start": 98.8117,
      "duration": 0.1497,
      "velocity": 127,
      "chip": "ym2612"
    },
    {
      "channel": 3,
      "note": 52,
      "start": 98.8122,
      "duration": 0.3328,
      "velocity": 106,
      "chip": "ym2612"
    },
    {
      "channel": 2,
      "note": 43,
      "start": 98.9951,
      "duration": 0.1497,
      "velocity": 127,
      "chip": "ym2612"
    },
    {
      "channel": 1,
      "note": 55,
      "start": 99.1618,
      "duration": 0.0662,
      "velocity": 97,
      "chip": "ym2612"
    },
    {
      "channel": 2,
      "note": 39,
      "start": 99.1627,
      "duration": 0.332,
      "velocity": 127,
      "chip": "ym2612"
    },
    {
      "channel": 3,
      "note": 59,
      "start": 99.1634,
      "duration": 0.3315,
      "velocity": 106,
      "chip": "ym2612"
    },
    {
      "channel": 1,
      "note": 59,
      "start": 99.2285,
      "duration": 0.0538,
      "velocity": 97,
      "chip": "ym2612"
    },
    {
      "channel": 1,
      "note": 64,
      "start": 99.2826,
      "duration": 0.562,
      "velocity": 97,
      "chip": "ym2612"
    },
    {
      "channel": 2,
      "note": 36,
      "start": 99.5285,
      "duration": 0.1495,
      "velocity": 127,
      "chip": "ym2612"
    },
    {
      "channel": 3,
      "note": 64,
      "start": 99.5291,
      "duration": 0.3157,
      "velocity": 106,
      "chip": "ym2612"
    },
    {
      "channel": 1,
      "note": 59,
      "start": 99.8863,
      "duration": 0.0583,
      "velocity": 97,
      "chip": "ym2612"
    },
    {
      "channel": 2,
      "note": 36,
      "start": 99.8907,
      "duration": 0.2873,
      "velocity": 127,
      "chip": "ym2612"
    },
    {
      "channel": 3,
      "note": 52,
      "start": 99.8956,
      "duration": 1.0602,
      "velocity": 106,
      "chip": "ym2612"
    },
    {
      "channel": 1,
      "note": 64,
      "start": 99.9451,
      "duration": 0.0663,
      "velocity": 97,
      "chip": "ym2612"
    },
    {
      "channel": 1,
      "note": 67,
      "start": 100.0117,
      "duration": 0.0497,
      "velocity": 97,
      "chip": "ym2612"
    },
    {
      "channel": 1,
      "note": 71,
      "start": 100.0617,
      "duration": 0.8941,
      "velocity": 97,
      "chip": "ym2612"
    },
    {
      "channel": 2,
      "note": 46,
      "start": 100.4287,
      "duration": 0.1493,
      "velocity": 127,
      "chip": "ym2612"
    }
  ]
}