{
  "track_name": "02 - Reading Girl 1",
  "duration_sec": 31.317,
  "sample_rate": 44100,
  "note_count": 213,
  "unique_pitches": 34,
  "pitch_range": 67,
  "avg_note_duration": 0.5472,
  "reconstruction_stats": {
    "notes_reconstructed": 213,
    "keyon_events": 213,
    "keyoff_events": 213,
    "orphan_keyons": 0,
    "unique_pitches": 34,
    "pitch_range": 67,
    "avg_duration_sec": 0.5472
  },
  "metadata": {
    "source": "S\\Shining Force\\02 - Reading Girl 1.vgz"
  },
  "notes": [
    {
      "channel": 0,
      "note": 96,
      "start": 0.0,
      "duration": 0.1721,
      "velocity": 91,
      "chip": "ym2612"
    },
    {
      "channel": 0,
      "note": 98,
      "start": 0.3144,
      "duration": 0.1773,
      "velocity": 91,
      "chip": "ym2612"
    },
    {
      "channel": 0,
      "note": 100,
      "start": 0.6341,
      "duration": 0.1773,
      "velocity": 91,
      "chip": "ym2612"
    },
    {
      "channel": 3,
      "note": 86,
      "start": 0.6441,
      "duration": 0.2746,
      "velocity": 88,
      "chip": "ym2612"
    },
    {
      "channel": 4,
      "note": 98,
      "start": 0.6515,
      "duration": 1.8834,
      "velocity": 100,
      "chip": "ym2612"
    },
    {
      "channel": 0,
      "note": 91,
      "start": 0.9537,
      "duration": 0.1773,
      "velocity": 91,
      "chip": "ym2612"
    },
    {
      "channel": 3,
      "note": 48,
      "start": 0.9546,
      "duration": 0.2837,
      "velocity": 88,
      "chip": "ym2612"
    },
    {
      "channel": 0,
      "note": 103,
      "start": 1.2732,
      "duration": 0.497,
      "velocity": 91,
      "chip": "ym2612"
    },
    {
      "channel": 1,
      "note": 79,
      "start": 1.2737,
      "duration": 1.2602,
      "velocity": 77,
      "chip": "ym2612"
    },
    {
      "channel": 2,
      "note": 72,
      "start": 1.2743,
      "duration": 1.26,
      "velocity": 77,
      "chip": "ym2612"
    },
    {
      "channel": 3,
      "note": 55,
      "start": 1.2748,
      "duration": 0.6027,
      "velocity": 88,
      "chip": "ym2612"
    },
    {
      "channel": 0,
      "note": 95,
      "start": 1.9141,
      "duration": 0.1758,
      "velocity": 91,
      "chip": "ym2612"
    },
    {
      "channel": 3,
      "note": 64,
      "start": 1.9151,
      "duration": 0.6017,
      "velocity": 88,
      "chip": "ym2612"
    },
    {
      "channel": 0,
      "note": 96,
      "start": 2.2321,
      "duration": 0.1773,
      "velocity": 91,
      "chip": "ym2612"
    },
    {
      "channel": 0,
      "note": 98,
      "start": 2.5517,
      "duration": 0.1789,
      "velocity": 91,
      "chip": "ym2612"
    },
    {
      "channel": 3,
      "note": 60,
      "start": 2.5529,
      "duration": 0.2834,
      "velocity": 88,
      "chip": "ym2612"
    },
    {
      "channel": 4,
      "note": 48,
      "start": 2.5536,
      "duration": 1.899,
      "velocity": 100,
      "chip": "ym2612"
    },
    {
      "channel": 0,
      "note": 91,
      "start": 2.8713,
      "duration": 0.1774,
      "velocity": 91,
      "chip": "ym2612"
    },
    {
      "channel": 3,
      "note": 55,
      "start": 2.8723,
      "duration": 0.2837,
      "velocity": 88,
      "chip": "ym2612"
    },
    {
      "channel": 0,
      "note": 103,
      "start": 3.1909,
      "duration": 0.497,
      "velocity": 91,
      "chip": "ym2612"
    },
    {
      "channel": 1,
      "note": 79,
      "start": 3.1914,
      "duration": 0.6227,
      "velocity": 77,
      "chip": "ym2612"
    },
    {
      "channel": 2,
      "note": 71,
      "start": 3.1919,
      "duration": 1.2601,
      "velocity": 77,
      "chip": "ym2612"
    },
    {
      "channel": 3,
      "note": 59,
      "start": 3.1925,
      "duration": 0.6044,
      "velocity": 88,
      "chip": "ym2612"
    },
    {
      "channel": 0,
      "note": 96,
      "start": 3.8307,
      "duration": 0.1768,
      "velocity": 91,
      "chip": "ym2612"
    },
    {
      "channel": 1,
      "note": 77,
      "start": 3.8313,
      "duration": 0.6204,
      "velocity": 77,
      "chip": "ym2612"
    },
    {
      "channel": 3,
      "note": 65,
      "start": 3.8321,
      "duration": 0.6024,
      "velocity": 88,
      "chip": "ym2612"
    },
    {
      "channel": 0,
      "note": 98,
      "start": 4.1498,
      "duration": 0.1774,
      "velocity": 91,
      "chip": "ym2612"
    },
    {
      "channel": 0,
      "note": 100,
      "start": 4.4694,
      "duration": 0.1778,
      "velocity": 91,
      "chip": "ym2612"
    },
    {
      "channel": 3,
      "note": 62,
      "start": 4.4706,
      "duration": 0.2834,
      "velocity": 88,
      "chip": "ym2612"
    },
    {
      "channel": 4,
      "note": 55,
      "start": 4.4713,
      "duration": 1.2605,
      "velocity": 100,
      "chip": "ym2612"
    },
    {
      "channel": 0,
      "note": 96,
      "start": 4.789,
      "duration": 0.1774,
      "velocity": 91,
      "chip": "ym2612"
    },
    {
      "channel": 3,
      "note": 48,
      "start": 4.79,
      "duration": 0.2837,
      "velocity": 88,
      "chip": "ym2612"
    },
    {
      "channel": 0,
      "note": 108,
      "start": 5.1085,
      "duration": 0.497,
      "velocity": 91,
      "chip": "ym2612"
    },
    {
      "channel": 1,
      "note": 76,
      "start": 5.1091,
      "duration": 0.6217,
      "velocity": 77,
      "chip": "ym2612"
    },
    {
      "channel": 2,
      "note": 72,
      "start": 5.1096,
      "duration": 0.6215,
      "velocity": 77,
      "chip": "ym2612"
    },
    {
      "channel": 3,
      "note": 55,
      "start": 5.1102,
      "duration": 0.6045,
      "velocity": 88,
      "chip": "ym2612"
    },
    {
      "channel": 0,
      "note": 107,
      "start": 5.7478,
      "duration": 0.1773,
      "velocity": 91,
      "chip": "ym2612"
    },
    {
      "channel": 1,
      "note": 78,
      "start": 5.7484,
      "duration": 0.621,
      "velocity": 77,
      "chip": "ym2612"
    },
    {
      "channel": 2,
      "note": 74,
      "start": 5.7489,
      "duration": 0.6208,
      "velocity": 77,
      "chip": "ym2612"
    },
    {
      "channel": 3,
      "note": 64,
      "start": 5.7494,
      "duration": 0.6027,
      "velocity": 88,
      "chip": "ym2612"
    },
    {
      "channel": 4,
      "note": 48,
      "start": 5.7501,
      "duration": 0.6202,
      "velocity": 100,
      "chip": "ym2612"
    },
    {
      "channel": 0,
      "note": 105,
      "start": 6.0674,
      "duration": 0.1774,
      "velocity": 91,
      "chip": "ym2612"
    },
    {
      "channel": 0,
      "note": 105,
      "start": 6.387,
      "duration": 0.497,
      "velocity": 91,
      "chip": "ym2612"
    },
    {
      "channel": 1,
      "note": 79,
      "start": 6.3876,
      "duration": 0.621,
      "velocity": 77,
      "chip": "ym2612"
    },
    {
      "channel": 2,
      "note": 72,
      "start": 6.388,
      "duration": 0.6208,
      "velocity": 77,
      "chip": "ym2612"
    },
    {
      "channel": 3,
      "note": 66,
      "start": 6.3887,
      "duration": 0.6027,
      "velocity": 88,
      "chip": "ym2612"
    },
    {
      "channel": 4,
      "note": 50,
      "start": 6.3893,
      "duration": 0.6202,
      "velocity": 100,
      "chip": "ym2612"
    },
    {
      "channel": 0,
      "note": 103,
      "start": 7.0263,
      "duration": 0.497,
      "velocity": 91,
      "chip": "ym2612"
    },
    {
      "channel": 1,
      "note": 79,
      "start": 7.0268,
      "duration": 0.621,
      "velocity": 77,
      "chip": "ym2612"
    },
    {
      "channel": 2,
      "note": 71,
      "start": 7.0273,
      "duration": 0.6208,
      "velocity": 77,
      "chip": "ym2612"
    },
    {
      "channel": 3,
      "note": 60,
      "start": 7.0279,
      "duration": 0.6034,
      "velocity": 88,
      "chip": "ym2612"
    },
    {
      "channel": 4,
      "note": 55,
      "start": 7.0302,
      "duration": 1.2578,
      "velocity": 100,
      "chip": "ym2612"
    },
    {
      "channel": 0,
      "note": 98,
      "start": 7.6655,
      "duration": 0.1774,
      "velocity": 91,
      "chip": "ym2612"
    },
    {
      "channel": 3,
      "note": 59,
      "start": 7.6668,
      "duration": 0.6031,
      "velocity": 88,
      "chip": "ym2612"
    },
    {
      "channel": 0,
      "note": 100,
      "start": 7.9851,
      "duration": 0.1788,
      "velocity": 91,
      "chip": "ym2612"
    },
    {
      "channel": 0,
      "note": 101,
      "start": 8.3047,
      "duration": 0.1774,
      "velocity": 91,
      "chip": "ym2612"
    },
    {
      "channel": 3,
      "note": 65,
      "start": 8.306,
      "duration": 0.2834,
      "velocity": 88,
      "chip": "ym2612"
    },
    {
      "channel": 4,
      "note": 43,
      "start": 8.3066,
      "duration": 1.899,
      "velocity": 100,
      "chip": "ym2612"
    },
    {
      "channel": 0,
      "note": 98,
      "start": 8.6244,
      "duration": 0.1773,
      "velocity": 91,
      "chip": "ym2612"
    },
    {
      "channel": 3,
      "note": 50,
      "start": 8.6254,
      "duration": 0.2837,
      "velocity": 88,
      "chip": "ym2612"
    },
    {
      "channel": 0,
      "note": 105,
      "start": 8.9439,
      "duration": 0.4971,
      "velocity": 91,
      "chip": "ym2612"
    },
    {
      "channel": 1,
      "note": 77,
      "start": 8.9445,
      "duration": 1.2602,
      "velocity": 77,
      "chip": "ym2612"
    },
    {
      "channel": 2,
      "note": 72,
      "start": 8.945,
      "duration": 0.6208,
      "velocity": 77,
      "chip": "ym2612"
    },
    {
      "channel": 3,
      "note": 57,
      "start": 8.9473,
      "duration": 0.601,
      "velocity": 88,
      "chip": "ym2612"
    },
    {
      "channel": 0,
      "note": 103,
      "start": 9.5832,
      "duration": 0.1774,
      "velocity": 91,
      "chip": "ym2612"
    },
    {
      "channel": 2,
      "note": 71,
      "start": 9.5839,
      "duration": 0.6211,
      "velocity": 77,
      "chip": "ym2612"
    },
    {
      "channel": 3,
      "note": 65,
      "start": 9.5846,
      "duration": 0.603,
      "velocity": 88,
      "chip": "ym2612"
    },
    {
      "channel": 0,
      "note": 101,
      "start": 9.9028,
      "duration": 0.1777,
      "velocity": 91,
      "chip": "ym2612"
    },
    {
      "channel": 0,
      "note": 103,
      "start": 10.2224,
      "duration": 0.1774,
      "velocity": 91,
      "chip": "ym2612"
    },
    {
      "channel": 3,
      "note": 62,
      "start": 10.2237,
      "duration": 0.2834,
      "velocity": 88,
      "chip": "ym2612"
    },
    {
      "channel": 4,
      "note": 50,
      "start": 10.2243,
      "duration": 1.899,
      "velocity": 100,
      "chip": "ym2612"
    },
    {
      "channel": 0,
      "note": 100,
      "start": 10.5421,
      "duration": 0.1773,
      "velocity": 91,
      "chip": "ym2612"
    },
    {
      "channel": 3,
      "note": 60,
      "start": 10.5431,
      "duration": 0.2837,
      "velocity": 88,
      "chip": "ym2612"
    },
    {
      "channel": 0,
      "note": 108,
      "start": 10.8617,
      "duration": 0.4969,
      "velocity": 91,
      "chip": "ym2612"
    },
    {
      "channel": 1,
      "note": 79,
      "start": 10.8639,
      "duration": 1.2585,
      "velocity": 77,
      "chip": "ym2612"
    },
    {
      "channel": 2,
      "note": 74,
      "start": 10.8644,
      "duration": 0.6191,
      "velocity": 77,
      "chip": "ym2612"
    },
    {
      "channel": 3,
      "note": 55,
      "start": 10.865,
      "duration": 0.601,
      "velocity": 88,
      "chip": "ym2612"
    },
    {
      "channel": 0,
      "note": 107,
      "start": 11.5009,
      "duration": 0.1773,
      "velocity": 91,
      "chip": "ym2612"
    },
    {
      "channel": 2,
      "note": 72,
      "start": 11.5017,
      "duration": 0.621,
      "velocity": 77,
      "chip": "ym2612"
    },
    {
      "channel": 3,
      "note": 64,
      "start": 11.5022,
      "duration": 0.603,
      "velocity": 88,
      "chip": "ym2612"
    },
    {
      "channel": 0,
      "note": 105,
      "start": 11.8204,
      "duration": 0.1774,
      "velocity": 91,
      "chip": "ym2612"
    },
    {
      "channel": 0,
      "note": 107,
      "start": 12.1401,
      "duration": 0.1774,
      "velocity": 91,
      "chip": "ym2612"
    },
    {
      "channel": 3,
      "note": 60,
      "start": 12.1414,
      "duration": 0.2834,
      "velocity": 88,
      "chip": "ym2612"
    },
    {
      "channel": 4,
      "note": 48,
      "start": 12.142,
      "duration": 1.2598,
      "velocity": 100,
      "chip": "ym2612"
    },
    {
      "channel": 0,
      "note": 103,
      "start": 12.4598,
      "duration": 0.1773,
      "velocity": 91,
      "chip": "ym2612"
    },
    {
      "channel": 3,
      "note": 59,
      "start": 12.4608,
      "duration": 0.2837,
      "velocity": 88,
      "chip": "ym2612"
    },
    {
      "channel": 0,
      "note": 110,
      "start": 12.7807,
      "duration": 0.4955,
      "velocity": 91,
      "chip": "ym2612"
    },
    {
      "channel": 1,
      "note": 79,
      "start": 12.7812,
      "duration": 0.6197,
      "velocity": 77,
      "chip": "ym2612"
    },
    {
      "channel": 2,
      "note": 74,
      "start": 12.7818,
      "duration": 0.6194,
      "velocity": 77,
      "chip": "ym2612"
    },
    {
      "channel": 3,
      "note": 62,
      "start": 12.7824,
      "duration": 0.6013,
      "velocity": 88,
      "chip": "ym2612"
    },
    {
      "channel": 0,
      "note": 108,
      "start": 13.4185,
      "duration": 0.1787,
      "velocity": 91,
      "chip": "ym2612"
    },
    {
      "channel": 1,
      "note": 78,
      "start": 13.419,
      "duration": 0.621,
      "velocity": 77,
      "chip": "ym2612"
    },
    {
      "channel": 2,
      "note": 72,
      "start": 13.4195,
      "duration": 0.6208,
      "velocity": 77,
      "chip": "ym2612"
    },
    {
      "channel": 3,
      "note": 67,
      "start": 13.4201,
      "duration": 0.6028,
      "velocity": 88,
      "chip": "ym2612"
    },
    {
      "channel": 4,
      "note": 50,
      "start": 13.4207,
      "duration": 0.6203,
      "velocity": 100,
      "chip": "ym2612"
    },
    {
      "channel": 0,
      "note": 105,
      "start": 13.7381,
      "duration": 0.1774,
      "velocity": 91,
      "chip": "ym2612"
    },
    {
      "channel": 0,
      "note": 103,
      "start": 14.0578,
      "duration": 0.497,
      "velocity": 91,
      "chip": "ym2612"
    },
    {
      "channel": 1,
      "note": 79,
      "start": 14.0583,
      "duration": 0.6226,
      "velocity": 77,
      "chip": "ym2612"
    },
    {
      "channel": 2,
      "note": 72,
      "start": 14.0588,
      "duration": 0.6223,
      "velocity": 77,
      "chip": "ym2612"
    },
    {
      "channel": 3,
      "note": 66,
      "start": 14.0594,
      "duration": 0.6044,
      "velocity": 88,
      "chip": "ym2612"
    },
    {
      "channel": 4,
      "note": 50,
      "start": 14.0601,
      "duration": 0.6217,
      "velocity": 100,
      "chip": "ym2612"
    },
    {
      "channel": 1,
      "note": 79,
      "start": 14.6978,
      "duration": 0.6208,
      "velocity": 77,
      "chip": "ym2612"
    },
    {
      "channel": 2,
      "note": 71,
      "start": 14.6982,
      "duration": 0.6206,
      "velocity": 77,
      "chip": "ym2612"
    },
    {
      "channel": 3,
      "note": 65,
      "start": 14.6989,
      "duration": 0.6025,
      "velocity": 88,
      "chip": "ym2612"
    },
    {
      "channel": 4,
      "note": 55,
      "start": 14.6995,
      "duration": 0.62,
      "velocity": 100,
      "chip": "ym2612"
    },
    {
      "channel": 0,
      "note": 96,
      "start": 15.3362,
      "duration": 0.1777,
      "velocity": 91,
      "chip": "ym2612"
    },
    {
      "channel": 3,
      "note": 59,
      "start": 15.3375,
      "duration": 0.6031,
      "velocity": 88,
      "chip": "ym2612"
    },
    {
      "channel": 0,
      "note": 98,
      "start": 15.6559,
      "duration": 0.1773,
      "velocity": 91,
      "chip": "ym2612"
    },
    {
      "channel": 0,
      "note": 100,
      "start": 15.9755,
      "duration": 0.1773,
      "velocity": 91,
      "chip": "ym2612"
    },
    {
      "channel": 3,
      "note": 53,
      "start": 15.9767,
      "duration": 0.2834,
      "velocity": 88,
      "chip": "ym2612"
    },
    {
      "channel": 4,
      "note": 43,
      "start": 15.9774,
      "duration": 1.899,
      "velocity": 100,
      "chip": "ym2612"
    },
    {
      "channel": 0,
      "note": 91,
      "start": 16.2951,
      "duration": 0.1773,
      "velocity": 91,
      "chip": "ym2612"
    },
    {
      "channel": 3,
      "note": 48,
      "start": 16.2978,
      "duration": 0.2835,
      "velocity": 88,
      "chip": "ym2612"
    },
    {
      "channel": 0,
      "note": 103,
      "start": 16.6147,
      "duration": 0.4969,
      "velocity": 91,
      "chip": "ym2612"
    },
    {
      "channel": 1,
      "note": 79,
      "start": 16.6152,
      "duration": 1.2602,
      "velocity": 77,
      "chip": "ym2612"
    },
    {
      "channel": 2,
      "note": 72,
      "start": 16.6157,
      "duration": 1.26,
      "velocity": 77,
      "chip": "ym2612"
    },
    {
      "channel": 3,
      "note": 55,
      "start": 16.6163,
      "duration": 0.6027,
      "velocity": 88,
      "chip": "ym2612"
    },
    {
      "channel": 0,
      "note": 95,
      "start": 17.2539,
      "duration": 0.1774,
      "velocity": 91,
      "chip": "ym2612"
    },
    {
      "channel": 3,
      "note": 64,
      "start": 17.255,
      "duration": 0.6032,
      "velocity": 88,
      "chip": "ym2612"
    },
    {
      "channel": 0,
      "note": 96,
      "start": 17.5735,
      "duration": 0.1774,
      "velocity": 91,
      "chip": "ym2612"
    },
    {
      "channel": 0,
      "note": 98,
      "start": 17.8932,
      "duration": 0.1773,
      "velocity": 91,
      "chip": "ym2612"
    },
    {
      "channel": 3,
      "note": 60,
      "start": 17.8944,
      "duration": 0.2834,
      "velocity": 88,
      "chip": "ym2612"
    },
    {
      "channel": 4,
      "note": 48,
      "start": 17.8951,
      "duration": 1.899,
      "velocity": 100,
      "chip": "ym2612"
    },
    {
      "channel": 0,
      "note": 91,
      "start": 18.2141,
      "duration": 0.176,
      "velocity": 91,
      "chip": "ym2612"
    },
    {
      "channel": 3,
      "note": 55,
      "start": 18.2151,
      "duration": 0.2829,
      "velocity": 88,
      "chip": "ym2612"
    },
    {
      "channel": 0,
      "note": 103,
      "start": 18.5324,
      "duration": 0.4981,
      "velocity": 91,
      "chip": "ym2612"
    },
    {
      "channel": 1,
      "note": 79,
      "start": 18.5329,
      "duration": 0.6211,
      "velocity": 77,
      "chip": "ym2612"
    },
    {
      "channel": 2,
      "note": 71,
      "start": 18.5334,
      "duration": 1.26,
      "velocity": 77,
      "chip": "ym2612"
    },
    {
      "channel": 3,
      "note": 59,
      "start": 18.534,
      "duration": 0.6027,
      "velocity": 88,
      "chip": "ym2612"
    },
    {
      "channel": 0,
      "note": 96,
      "start": 19.1716,
      "duration": 0.1774,
      "velocity": 91,
      "chip": "ym2612"
    },
    {
      "channel": 1,
      "note": 77,
      "start": 19.1721,
      "duration": 0.6211,
      "velocity": 77,
      "chip": "ym2612"
    },
    {
      "channel": 3,
      "note": 65,
      "start": 19.173,
      "duration": 0.603,
      "velocity": 88,
      "chip": "ym2612"
    },
    {
      "channel": 0,
      "note": 98,
      "start": 19.4912,
      "duration": 0.1774,
      "velocity": 91,
      "chip": "ym2612"
    },
    {
      "channel": 0,
      "note": 100,
      "start": 19.8108,
      "duration": 0.1773,
      "velocity": 91,
      "chip": "ym2612"
    },
    {
      "channel": 3,
      "note": 62,
      "start": 19.8138,
      "duration": 0.2834,
      "velocity": 88,
      "chip": "ym2612"
    },
    {
      "channel": 4,
      "note": 55,
      "start": 19.8145,
      "duration": 1.2581,
      "velocity": 100,
      "chip": "ym2612"
    },
    {
      "channel": 0,
      "note": 96,
      "start": 20.1307,
      "duration": 0.177,
      "velocity": 91,
      "chip": "ym2612"
    },
    {
      "channel": 3,
      "note": 48,
      "start": 20.1318,
      "duration": 0.2833,
      "velocity": 88,
      "chip": "ym2612"
    },
    {
      "channel": 0,
      "note": 108,
      "start": 20.4501,
      "duration": 0.4971,
      "velocity": 91,
      "chip": "ym2612"
    },
    {
      "channel": 1,
      "note": 76,
      "start": 20.4506,
      "duration": 0.621,
      "velocity": 77,
      "chip": "ym2612"
    },
    {
      "channel": 2,
      "note": 72,
      "start": 20.4511,
      "duration": 0.6208,
      "velocity": 77,
      "chip": "ym2612"
    },
    {
      "channel": 3,
      "note": 55,
      "start": 20.4517,
      "duration": 0.6027,
      "velocity": 88,
      "chip": "ym2612"
    },
    {
      "channel": 0,
      "note": 107,
      "start": 21.0893,
      "duration": 0.1773,
      "velocity": 91,
      "chip": "ym2612"
    },
    {
      "channel": 1,
      "note": 78,
      "start": 21.0898,
      "duration": 0.621,
      "velocity": 77,
      "chip": "ym2612"
    },
    {
      "channel": 2,
      "note": 74,
      "start": 21.0903,
      "duration": 0.6207,
      "velocity": 77,
      "chip": "ym2612"
    },
    {
      "channel": 3,
      "note": 64,
      "start": 21.0909,
      "duration": 0.6027,
      "velocity": 88,
      "chip": "ym2612"
    },
    {
      "channel": 4,
      "note": 48,
      "start": 21.0916,
      "duration": 0.6202,
      "velocity": 100,
      "chip": "ym2612"
    },
    {
      "channel": 0,
      "note": 105,
      "start": 21.4089,
      "duration": 0.1774,
      "velocity": 91,
      "chip": "ym2612"
    },
    {
      "channel": 0,
      "note": 105,
      "start": 21.7285,
      "duration": 0.497,
      "velocity": 91,
      "chip": "ym2612"
    },
    {
      "channel": 1,
      "note": 79,
      "start": 21.7307,
      "duration": 0.6193,
      "velocity": 77,
      "chip": "ym2612"
    },
    {
      "channel": 2,
      "note": 72,
      "start": 21.7312,
      "duration": 0.6191,
      "velocity": 77,
      "chip": "ym2612"
    },
    {
      "channel": 3,
      "note": 66,
      "start": 21.7318,
      "duration": 0.6011,
      "velocity": 88,
      "chip": "ym2612"
    },
    {
      "channel": 4,
      "note": 50,
      "start": 21.7324,
      "duration": 0.6185,
      "velocity": 100,
      "chip": "ym2612"
    },
    {
      "channel": 0,
      "note": 103,
      "start": 22.3678,
      "duration": 0.497,
      "velocity": 91,
      "chip": "ym2612"
    },
    {
      "channel": 1,
      "note": 79,
      "start": 22.3683,
      "duration": 0.621,
      "velocity": 77,
      "chip": "ym2612"
    },
    {
      "channel": 2,
      "note": 71,
      "start": 22.3688,
      "duration": 0.6208,
      "velocity": 77,
      "chip": "ym2612"
    },
    {
      "channel": 3,
      "note": 60,
      "start": 22.3694,
      "duration": 0.6027,
      "velocity": 88,
      "chip": "ym2612"
    },
    {
      "channel": 4,
      "note": 55,
      "start": 22.37,
      "duration": 1.2612,
      "velocity": 100,
      "chip": "ym2612"
    },
    {
      "channel": 0,
      "note": 98,
      "start": 23.0069,
      "duration": 0.1774,
      "velocity": 91,
      "chip": "ym2612"
    },
    {
      "channel": 3,
      "note": 59,
      "start": 23.0082,
      "duration": 0.6031,
      "velocity": 88,
      "chip": "ym2612"
    },
    {
      "channel": 0,
      "note": 100,
      "start": 23.3266,
      "duration": 0.1774,
      "velocity": 91,
      "chip": "ym2612"
    },
    {
      "channel": 0,
      "note": 101,
      "start": 23.6474,
      "duration": 0.1761,
      "velocity": 91,
      "chip": "ym2612"
    },
    {
      "channel": 3,
      "note": 65,
      "start": 23.6487,
      "duration": 0.2826,
      "velocity": 88,
      "chip": "ym2612"
    },
    {
      "channel": 4,
      "note": 43,
      "start": 23.6493,
      "duration": 1.8991,
      "velocity": 100,
      "chip": "ym2612"
    },
    {
      "channel": 0,
      "note": 98,
      "start": 23.9658,
      "duration": 0.1774,
      "velocity": 91,
      "chip": "ym2612"
    },
    {
      "channel": 3,
      "note": 50,
      "start": 23.9669,
      "duration": 0.2837,
      "velocity": 88,
      "chip": "ym2612"
    },
    {
      "channel": 0,
      "note": 105,
      "start": 24.2854,
      "duration": 0.497,
      "velocity": 91,
      "chip": "ym2612"
    },
    {
      "channel": 1,
      "note": 77,
      "start": 24.286,
      "duration": 1.2615,
      "velocity": 77,
      "chip": "ym2612"
    },
    {
      "channel": 2,
      "note": 72,
      "start": 24.2865,
      "duration": 0.6208,
      "velocity": 77,
      "chip": "ym2612"
    },
    {
      "channel": 3,
      "note": 57,
      "start": 24.287,
      "duration": 1.2437,
      "velocity": 88,
      "chip": "ym2612"
    },
    {
      "channel": 0,
      "note": 103,
      "start": 24.9246,
      "duration": 0.1774,
      "velocity": 91,
      "chip": "ym2612"
    },
    {
      "channel": 2,
      "note": 71,
      "start": 24.9255,
      "duration": 0.6223,
      "velocity": 77,
      "chip": "ym2612"
    },
    {
      "channel": 0,
      "note": 101,
      "start": 25.2443,
      "duration": 0.1774,
      "velocity": 91,
      "chip": "ym2612"
    },
    {
      "channel": 0,
      "note": 103,
      "start": 25.5641,
      "duration": 0.1772,
      "velocity": 91,
      "chip": "ym2612"
    },
    {
      "channel": 3,
      "note": 62,
      "start": 25.5654,
      "duration": 0.2832,
      "velocity": 88,
      "chip": "ym2612"
    },
    {
      "channel": 4,
      "note": 50,
      "start": 25.566,
      "duration": 0.6204,
      "velocity": 100,
      "chip": "ym2612"
    },
    {
      "channel": 0,
      "note": 100,
      "start": 25.8835,
      "duration": 0.1774,
      "velocity": 91,
      "chip": "ym2612"
    },
    {
      "channel": 3,
      "note": 52,
      "start": 25.8846,
      "duration": 0.2837,
      "velocity": 88,
      "chip": "ym2612"
    },
    {
      "channel": 0,
      "note": 108,
      "start": 26.2031,
      "duration": 0.497,
      "velocity": 91,
      "chip": "ym2612"
    },
    {
      "channel": 1,
      "note": 79,
      "start": 26.2037,
      "duration": 1.2605,
      "velocity": 77,
      "chip": "ym2612"
    },
    {
      "channel": 2,
      "note": 74,
      "start": 26.2041,
      "duration": 0.6208,
      "velocity": 77,
      "chip": "ym2612"
    },
    {
      "channel": 3,
      "note": 62,
      "start": 26.2047,
      "duration": 1.2433,
      "velocity": 88,
      "chip": "ym2612"
    },
    {
      "channel": 4,
      "note": 52,
      "start": 26.2054,
      "duration": 1.2598,
      "velocity": 100,
      "chip": "ym2612"
    },
    {
      "channel": 0,
      "note": 107,
      "start": 26.8423,
      "duration": 0.1774,
      "velocity": 91,
      "chip": "ym2612"
    },
    {
      "channel": 2,
      "note": 72,
      "start": 26.8431,
      "duration": 0.6214,
      "velocity": 77,
      "chip": "ym2612"
    },
    {
      "channel": 0,
      "note": 105,
      "start": 27.1636,
      "duration": 0.1757,
      "velocity": 91,
      "chip": "ym2612"
    },
    {
      "channel": 0,
      "note": 101,
      "start": 27.4816,
      "duration": 0.1773,
      "velocity": 91,
      "chip": "ym2612"
    },
    {
      "channel": 3,
      "note": 64,
      "start": 27.4828,
      "duration": 0.2834,
      "velocity": 88,
      "chip": "ym2612"
    },
    {
      "channel": 4,
      "note": 45,
      "start": 27.4835,
      "duration": 0.6205,
      "velocity": 100,
      "chip": "ym2612"
    },
    {
      "channel": 0,
      "note": 98,
      "start": 27.8012,
      "duration": 0.179,
      "velocity": 91,
      "chip": "ym2612"
    },
    {
      "channel": 3,
      "note": 50,
      "start": 27.8022,
      "duration": 0.2837,
      "velocity": 88,
      "chip": "ym2612"
    },
    {
      "channel": 0,
      "note": 105,
      "start": 28.1207,
      "duration": 0.497,
      "velocity": 91,
      "chip": "ym2612"
    },
    {
      "channel": 1,
      "note": 77,
      "start": 28.1213,
      "duration": 0.6211,
      "velocity": 77,
      "chip": "ym2612"
    },
    {
      "channel": 2,
      "note": 72,
      "start": 28.1218,
      "duration": 0.6209,
      "velocity": 77,
      "chip": "ym2612"
    },
    {
      "channel": 3,
      "note": 57,
      "start": 28.1224,
      "duration": 1.2423,
      "velocity": 88,
      "chip": "ym2612"
    },
    {
      "channel": 4,
      "note": 50,
      "start": 28.123,
      "duration": 0.6202,
      "velocity": 100,
      "chip": "ym2612"
    },
    {
      "channel": 0,
      "note": 103,
      "start": 28.76,
      "duration": 0.1774,
      "velocity": 91,
      "chip": "ym2612"
    },
    {
      "channel": 1,
      "note": 77,
      "start": 28.7605,
      "duration": 0.621,
      "velocity": 77,
      "chip": "ym2612"
    },
    {
      "channel": 2,
      "note": 71,
      "start": 28.761,
      "duration": 0.6209,
      "velocity": 77,
      "chip": "ym2612"
    },
    {
      "channel": 4,
      "note": 55,
      "start": 28.7636,
      "duration": 0.6189,
      "velocity": 100,
      "chip": "ym2612"
    },
    {
      "channel": 0,
      "note": 95,
      "start": 29.0807,
      "duration": 0.1762,
      "velocity": 91,
      "chip": "ym2612"
    },
    {
      "channel": 0,
      "note": 98,
      "start": 29.3992,
      "duration": 0.498,
      "velocity": 91,
      "chip": "ym2612"
    },
    {
      "channel": 1,
      "note": 74,
      "start": 29.3998,
      "duration": 0.6211,
      "velocity": 77,
      "chip": "ym2612"
    },
    {
      "channel": 2,
      "note": 65,
      "start": 29.4003,
      "duration": 0.6209,
      "velocity": 77,
      "chip": "ym2612"
    },
    {
      "channel": 3,
      "note": 62,
      "start": 29.4008,
      "duration": 0.6027,
      "velocity": 88,
      "chip": "ym2612"
    },
    {
      "channel": 4,
      "note": 43,
      "start": 29.4015,
      "duration": 0.6203,
      "velocity": 100,
      "chip": "ym2612"
    },
    {
      "channel": 0,
      "note": 96,
      "start": 30.0384,
      "duration": 0.497,
      "velocity": 91,
      "chip": "ym2612"
    },
    {
      "channel": 1,
      "note": 72,
      "start": 30.039,
      "duration": 0.6211,
      "velocity": 77,
      "chip": "ym2612"
    },
    {
      "channel": 2,
      "note": 64,
      "start": 30.0395,
      "duration": 0.6209,
      "velocity": 77,
      "chip": "ym2612"
    },
    {
      "channel": 3,
      "note": 60,
      "start": 30.0401,
      "duration": 0.6027,
      "velocity": 88,
      "chip": "ym2612"
    },
    {
      "channel": 4,
      "note": 48,
      "start": 30.0407,
      "duration": 0.6202,
      "velocity": 100,
      "chip": "ym2612"
    },
    {
      "channel": 0,
      "note": 96,
      "start": 30.6777,
      "duration": 0.1773,
      "velocity": 91,
      "chip": "ym2612"
    },
    {
      "channel": 0,
      "note": 98,
      "start": 30.9974,
      "duration": 0.1773,
      "velocity": 91,
      "chip": "ym2612"
    }
  ]
}