{
  "track_name": "02 - Sierra Nevada",
  "duration_sec": 230.797,
  "sample_rate": 44100,
  "note_count": 3179,
  "unique_pitches": 67,
  "pitch_range": 86,
  "avg_note_duration": 0.1905,
  "reconstruction_stats": {
    "notes_reconstructed": 3179,
    "keyon_events": 3179,
    "keyoff_events": 3179,
    "orphan_keyons": 0,
    "unique_pitches": 67,
    "pitch_range": 86,
    "avg_duration_sec": 0.1905
  },
  "metadata": {
    "source": "R\\Road Rash\\02 - Sierra Nevada.vgz"
  },
  "notes": [
    {
      "channel": 0,
      "note": 64,
      "start": 0.0022,
      "duration": 0.1815,
      "velocity": 102,
      "chip": "ym2612"
    },
    {
      "channel": 2,
      "note": 30,
      "start": 0.0055,
      "duration": 0.1786,
      "velocity": 127,
      "chip": "ym2612"
    },
    {
      "channel": 0,
      "note": 52,
      "start": 0.2006,
      "duration": 0.1832,
      "velocity": 102,
      "chip": "ym2612"
    },
    {
      "channel": 1,
      "note": 88,
      "start": 0.2009,
      "duration": 0.1831,
      "velocity": 83,
      "chip": "ym2612"
    },
    {
      "channel": 2,
      "note": 30,
      "start": 0.2025,
      "duration": 0.0814,
      "velocity": 127,
      "chip": "ym2612"
    },
    {
      "channel": 2,
      "note": 76,
      "start": 0.3007,
      "duration": 0.0834,
      "velocity": 127,
      "chip": "ym2612"
    },
    {
      "channel": 0,
      "note": 64,
      "start": 0.4007,
      "duration": 0.1839,
      "velocity": 102,
      "chip": "ym2612"
    },
    {
      "channel": 1,
      "note": 81,
      "start": 0.4009,
      "duration": 0.3837,
      "velocity": 83,
      "chip": "ym2612"
    },
    {
      "channel": 2,
      "note": 76,
      "start": 0.4026,
      "duration": 0.1822,
      "velocity": 127,
      "chip": "ym2612"
    },
    {
      "channel": 0,
      "note": 64,
      "start": 0.6013,
      "duration": 0.1832,
      "velocity": 102,
      "chip": "ym2612"
    },
    {
      "channel": 2,
      "note": 42,
      "start": 0.6032,
      "duration": 0.1817,
      "velocity": 127,
      "chip": "ym2612"
    },
    {
      "channel": 0,
      "note": 62,
      "start": 0.8013,
      "duration": 0.5832,
      "velocity": 102,
      "chip": "ym2612"
    },
    {
      "channel": 1,
      "note": 83,
      "start": 0.8015,
      "duration": 0.3829,
      "velocity": 83,
      "chip": "ym2612"
    },
    {
      "channel": 2,
      "note": 30,
      "start": 0.8018,
      "duration": 0.1829,
      "velocity": 127,
      "chip": "ym2612"
    },
    {
      "channel": 2,
      "note": 30,
      "start": 1.0029,
      "duration": 0.0817,
      "velocity": 127,
      "chip": "ym2612"
    },
    {
      "channel": 2,
      "note": 76,
      "start": 1.1014,
      "duration": 0.0833,
      "velocity": 127,
      "chip": "ym2612"
    },
    {
      "channel": 1,
      "note": 88,
      "start": 1.2014,
      "duration": 0.1832,
      "velocity": 83,
      "chip": "ym2612"
    },
    {
      "channel": 2,
      "note": 76,
      "start": 1.2031,
      "duration": 0.1817,
      "velocity": 127,
      "chip": "ym2612"
    },
    {
      "channel": 0,
      "note": 64,
      "start": 1.4014,
      "duration": 0.3831,
      "velocity": 102,
      "chip": "ym2612"
    },
    {
      "channel": 1,
      "note": 86,
      "start": 1.4017,
      "duration": 0.1829,
      "velocity": 83,
      "chip": "ym2612"
    },
    {
      "channel": 2,
      "note": 42,
      "start": 1.4033,
      "duration": 0.0814,
      "velocity": 127,
      "chip": "ym2612"
    },
    {
      "channel": 2,
      "note": 30,
      "start": 1.5028,
      "duration": 0.082,
      "velocity": 127,
      "chip": "ym2612"
    },
    {
      "channel": 1,
      "note": 83,
      "start": 1.6014,
      "duration": 0.1833,
      "velocity": 83,
      "chip": "ym2612"
    },
    {
      "channel": 2,
      "note": 76,
      "start": 1.603,
      "duration": 0.1819,
      "velocity": 127,
      "chip": "ym2612"
    },
    {
      "channel": 0,
      "note": 64,
      "start": 1.8014,
      "duration": 0.1832,
      "velocity": 102,
      "chip": "ym2612"
    },
    {
      "channel": 1,
      "note": 92,
      "start": 1.8016,
      "duration": 0.383,
      "velocity": 83,
      "chip": "ym2612"
    },
    {
      "channel": 2,
      "note": 30,
      "start": 1.8033,
      "duration": 0.0813,
      "velocity": 127,
      "chip": "ym2612"
    },
    {
      "channel": 2,
      "note": 76,
      "start": 1.9014,
      "duration": 0.0835,
      "velocity": 127,
      "chip": "ym2612"
    },
    {
      "channel": 0,
      "note": 64,
      "start": 2.0013,
      "duration": 0.1832,
      "velocity": 102,
      "chip": "ym2612"
    },
    {
      "channel": 2,
      "note": 76,
      "start": 2.0032,
      "duration": 0.1817,
      "velocity": 127,
      "chip": "ym2612"
    },
    {
      "channel": 0,
      "note": 62,
      "start": 2.2014,
      "duration": 0.1832,
      "velocity": 102,
      "chip": "ym2612"
    },
    {
      "channel": 1,
      "note": 93,
      "start": 2.2016,
      "duration": 0.3829,
      "velocity": 83,
      "chip": "ym2612"
    },
    {
      "channel": 2,
      "note": 42,
      "start": 2.2033,
      "duration": 0.0814,
      "velocity": 127,
      "chip": "ym2612"
    },
    {
      "channel": 2,
      "note": 76,
      "start": 2.3015,
      "duration": 0.0833,
      "velocity": 127,
      "chip": "ym2612"
    },
    {
      "channel": 0,
      "note": 59,
      "start": 2.4013,
      "duration": 0.1832,
      "velocity": 102,
      "chip": "ym2612"
    },
    {
      "channel": 2,
      "note": 76,
      "start": 2.4032,
      "duration": 0.1817,
      "velocity": 127,
      "chip": "ym2612"
    },
    {
      "channel": 0,
      "note": 56,
      "start": 2.6013,
      "duration": 0.1832,
      "velocity": 102,
      "chip": "ym2612"
    },
    {
      "channel": 1,
      "note": 92,
      "start": 2.6015,
      "duration": 0.7831,
      "velocity": 83,
      "chip": "ym2612"
    },
    {
      "channel": 2,
      "note": 30,
      "start": 2.6018,
      "duration": 0.0828,
      "velocity": 127,
      "chip": "ym2612"
    },
    {
      "channel": 2,
      "note": 30,
      "start": 2.7029,
      "duration": 0.0818,
      "velocity": 127,
      "chip": "ym2612"
    },
    {
      "channel": 0,
      "note": 57,
      "start": 2.8014,
      "duration": 0.1831,
      "velocity": 102,
      "chip": "ym2612"
    },
    {
      "channel": 2,
      "note": 76,
      "start": 2.8032,
      "duration": 0.1815,
      "velocity": 127,
      "chip": "ym2612"
    },
    {
      "channel": 0,
      "note": 58,
      "start": 3.0014,
      "duration": 0.1832,
      "velocity": 102,
      "chip": "ym2612"
    },
    {
      "channel": 2,
      "note": 42,
      "start": 3.0032,
      "duration": 0.0815,
      "velocity": 127,
      "chip": "ym2612"
    },
    {
      "channel": 2,
      "note": 30,
      "start": 3.1028,
      "duration": 0.0819,
      "velocity": 127,
      "chip": "ym2612"
    },
    {
      "channel": 0,
      "note": 59,
      "start": 3.2029,
      "duration": 0.1816,
      "velocity": 102,
      "chip": "ym2612"
    },
    {
      "channel": 2,
      "note": 76,
      "start": 3.2049,
      "duration": 0.18,
      "velocity": 127,
      "chip": "ym2612"
    },
    {
      "channel": 0,
      "note": 52,
      "start": 3.4014,
      "duration": 0.1832,
      "velocity": 102,
      "chip": "ym2612"
    },
    {
      "channel": 1,
      "note": 87,
      "start": 3.4016,
      "duration": 0.183,
      "velocity": 83,
      "chip": "ym2612"
    },
    {
      "channel": 2,
      "note": 30,
      "start": 3.4033,
      "duration": 0.0813,
      "velocity": 127,
      "chip": "ym2612"
    },
    {
      "channel": 2,
      "note": 76,
      "start": 3.5014,
      "duration": 0.0835,
      "velocity": 127,
      "chip": "ym2612"
    },
    {
      "channel": 0,
      "note": 64,
      "start": 3.6014,
      "duration": 0.1832,
      "velocity": 102,
      "chip": "ym2612"
    },
    {
      "channel": 1,
      "note": 81,
      "start": 3.6016,
      "duration": 0.3822,
      "velocity": 83,
      "chip": "ym2612"
    },
    {
      "channel": 2,
      "note": 76,
      "start": 3.6033,
      "duration": 0.1816,
      "velocity": 127,
      "chip": "ym2612"
    },
    {
      "channel": 0,
      "note": 64,
      "start": 3.8013,
      "duration": 0.1824,
      "velocity": 102,
      "chip": "ym2612"
    },
    {
      "channel": 2,
      "note": 42,
      "start": 3.8032,
      "duration": 0.1809,
      "velocity": 127,
      "chip": "ym2612"
    },
    {
      "channel": 0,
      "note": 62,
      "start": 4.0005,
      "duration": 0.584,
      "velocity": 102,
      "chip": "ym2612"
    },
    {
      "channel": 1,
      "note": 83,
      "start": 4.0008,
      "duration": 0.3829,
      "velocity": 83,
      "chip": "ym2612"
    },
    {
      "channel": 2,
      "note": 30,
      "start": 4.001,
      "duration": 0.1828,
      "velocity": 127,
      "chip": "ym2612"
    },
    {
      "channel": 2,
      "note": 30,
      "start": 4.2022,
      "duration": 0.0817,
      "velocity": 127,
      "chip": "ym2612"
    },
    {
      "channel": 2,
      "note": 76,
      "start": 4.3007,
      "duration": 0.0833,
      "velocity": 127,
      "chip": "ym2612"
    },
    {
      "channel": 1,
      "note": 88,
      "start": 4.4007,
      "duration": 0.184,
      "velocity": 83,
      "chip": "ym2612"
    },
    {
      "channel": 2,
      "note": 76,
      "start": 4.4023,
      "duration": 0.1826,
      "velocity": 127,
      "chip": "ym2612"
    },
    {
      "channel": 0,
      "note": 64,
      "start": 4.6014,
      "duration": 0.3832,
      "velocity": 102,
      "chip": "ym2612"
    },
    {
      "channel": 1,
      "note": 86,
      "start": 4.6016,
      "duration": 0.1829,
      "velocity": 83,
      "chip": "ym2612"
    },
    {
      "channel": 2,
      "note": 42,
      "start": 4.6033,
      "duration": 0.0813,
      "velocity": 127,
      "chip": "ym2612"
    },
    {
      "channel": 2,
      "note": 30,
      "start": 4.7029,
      "duration": 0.0818,
      "velocity": 127,
      "chip": "ym2612"
    },
    {
      "channel": 1,
      "note": 83,
      "start": 4.8013,
      "duration": 0.1833,
      "velocity": 83,
      "chip": "ym2612"
    },
    {
      "channel": 2,
      "note": 76,
      "start": 4.803,
      "duration": 0.1818,
      "velocity": 127,
      "chip": "ym2612"
    },
    {
      "channel": 0,
      "note": 64,
      "start": 5.0015,
      "duration": 0.1844,
      "velocity": 102,
      "chip": "ym2612"
    },
    {
      "channel": 1,
      "note": 86,
      "start": 5.0017,
      "duration": 0.3842,
      "velocity": 83,
      "chip": "ym2612"
    },
    {
      "channel": 2,
      "note": 30,
      "start": 5.0035,
      "duration": 0.0827,
      "velocity": 127,
      "chip": "ym2612"
    },
    {
      "channel": 2,
      "note": 76,
      "start": 5.1028,
      "duration": 0.0833,
      "velocity": 127,
      "chip": "ym2612"
    },
    {
      "channel": 0,
      "note": 64,
      "start": 5.2026,
      "duration": 0.1833,
      "velocity": 102,
      "chip": "ym2612"
    },
    {
      "channel": 2,
      "note": 76,
      "start": 5.2045,
      "duration": 0.1817,
      "velocity": 127,
      "chip": "ym2612"
    },
    {
      "channel": 0,
      "note": 62,
      "start": 5.4028,
      "duration": 0.1817,
      "velocity": 102,
      "chip": "ym2612"
    },
    {
      "channel": 1,
      "note": 83,
      "start": 5.4031,
      "duration": 1.1829,
      "velocity": 83,
      "chip": "ym2612"
    },
    {
      "channel": 2,
      "note": 42,
      "start": 5.4048,
      "duration": 0.0814,
      "velocity": 127,
      "chip": "ym2612"
    },
    {
      "channel": 2,
      "note": 76,
      "start": 5.5028,
      "duration": 0.0819,
      "velocity": 127,
      "chip": "ym2612"
    },
    {
      "channel": 0,
      "note": 59,
      "start": 5.6013,
      "duration": 0.1832,
      "velocity": 102,
      "chip": "ym2612"
    },
    {
      "channel": 2,
      "note": 76,
      "start": 5.6032,
      "duration": 0.1816,
      "velocity": 127,
      "chip": "ym2612"
    },
    {
      "channel": 0,
      "note": 56,
      "start": 5.8013,
      "duration": 0.1832,
      "velocity": 102,
      "chip": "ym2612"
    },
    {
      "channel": 2,
      "note": 30,
      "start": 5.8017,
      "duration": 0.0829,
      "velocity": 127,
      "chip": "ym2612"
    },
    {
      "channel": 2,
      "note": 30,
      "start": 5.9029,
      "duration": 0.0818,
      "velocity": 127,
      "chip": "ym2612"
    },
    {
      "channel": 0,
      "note": 57,
      "start": 6.0013,
      "duration": 0.1846,
      "velocity": 102,
      "chip": "ym2612"
    },
    {
      "channel": 2,
      "note": 76,
      "start": 6.0032,
      "duration": 0.1829,
      "velocity": 127,
      "chip": "ym2612"
    },
    {
      "channel": 0,
      "note": 58,
      "start": 6.2028,
      "duration": 0.1831,
      "velocity": 102,
      "chip": "ym2612"
    },
    {
      "channel": 2,
      "note": 42,
      "start": 6.2046,
      "duration": 0.0815,
      "velocity": 127,
      "chip": "ym2612"
    },
    {
      "channel": 2,
      "note": 30,
      "start": 6.3042,
      "duration": 0.082,
      "velocity": 127,
      "chip": "ym2612"
    },
    {
      "channel": 0,
      "note": 59,
      "start": 6.4043,
      "duration": 0.1816,
      "velocity": 102,
      "chip": "ym2612"
    },
    {
      "channel": 2,
      "note": 76,
      "start": 6.4061,
      "duration": 0.18,
      "velocity": 127,
      "chip": "ym2612"
    },
    {
      "channel": 0,
      "note": 52,
      "start": 6.6028,
      "duration": 0.1817,
      "velocity": 102,
      "chip": "ym2612"
    },
    {
      "channel": 1,
      "note": 83,
      "start": 6.6031,
      "duration": 0.1815,
      "velocity": 83,
      "chip": "ym2612"
    },
    {
      "channel": 2,
      "note": 30,
      "start": 6.6047,
      "duration": 0.08,
      "velocity": 127,
      "chip": "ym2612"
    },
    {
      "channel": 2,
      "note": 76,
      "start": 6.7015,
      "duration": 0.0833,
      "velocity": 127,
      "chip": "ym2612"
    },
    {
      "channel": 0,
      "note": 64,
      "start": 6.8014,
      "duration": 0.1831,
      "velocity": 102,
      "chip": "ym2612"
    },
    {
      "channel": 1,
      "note": 81,
      "start": 6.8016,
      "duration": 0.3844,
      "velocity": 83,
      "chip": "ym2612"
    },
    {
      "channel": 2,
      "note": 76,
      "start": 6.8033,
      "duration": 0.1814,
      "velocity": 127,
      "chip": "ym2612"
    },
    {
      "channel": 0,
      "note": 64,
      "start": 7.0012,
      "duration": 0.1847,
      "velocity": 102,
      "chip": "ym2612"
    },
    {
      "channel": 2,
      "note": 42,
      "start": 7.0031,
      "duration": 0.1831,
      "velocity": 127,
      "chip": "ym2612"
    },
    {
      "channel": 0,
      "note": 62,
      "start": 7.2028,
      "duration": 0.5817,
      "velocity": 102,
      "chip": "ym2612"
    },
    {
      "channel": 1,
      "note": 83,
      "start": 7.203,
      "duration": 0.3829,
      "velocity": 83,
      "chip": "ym2612"
    },
    {
      "channel": 2,
      "note": 30,
      "start": 7.2033,
      "duration": 0.1828,
      "velocity": 127,
      "chip": "ym2612"
    },
    {
      "channel": 2,
      "note": 30,
      "start": 7.4044,
      "duration": 0.0817,
      "velocity": 127,
      "chip": "ym2612"
    },
    {
      "channel": 2,
      "note": 76,
      "start": 7.5028,
      "duration": 0.0833,
      "velocity": 127,
      "chip": "ym2612"
    },
    {
      "channel": 1,
      "note": 88,
      "start": 7.6028,
      "duration": 0.1818,
      "velocity": 83,
      "chip": "ym2612"
    },
    {
      "channel": 2,
      "note": 76,
      "start": 7.6045,
      "duration": 0.1803,
      "velocity": 127,
      "chip": "ym2612"
    },
    {
      "channel": 0,
      "note": 64,
      "start": 7.8014,
      "duration": 0.3824,
      "velocity": 102,
      "chip": "ym2612"
    },
    {
      "channel": 1,
      "note": 86,
      "start": 7.8016,
      "duration": 0.1822,
      "velocity": 83,
      "chip": "ym2612"
    },
    {
      "channel": 2,
      "note": 42,
      "start": 7.8033,
      "duration": 0.0814,
      "velocity": 127,
      "chip": "ym2612"
    },
    {
      "channel": 2,
      "note": 30,
      "start": 7.9029,
      "duration": 0.0812,
      "velocity": 127,
      "chip": "ym2612"
    },
    {
      "channel": 1,
      "note": 83,
      "start": 8.0006,
      "duration": 0.1833,
      "velocity": 83,
      "chip": "ym2612"
    },
    {
      "channel": 2,
      "note": 76,
      "start": 8.0022,
      "duration": 0.1819,
      "velocity": 127,
      "chip": "ym2612"
    },
    {
      "channel": 0,
      "note": 64,
      "start": 8.2007,
      "duration": 0.1831,
      "velocity": 102,
      "chip": "ym2612"
    },
    {
      "channel": 1,
      "note": 92,
      "start": 8.2009,
      "duration": 0.3837,
      "velocity": 83,
      "chip": "ym2612"
    },
    {
      "channel": 2,
      "note": 30,
      "start": 8.2026,
      "duration": 0.0814,
      "velocity": 127,
      "chip": "ym2612"
    },
    {
      "channel": 2,
      "note": 76,
      "start": 8.3007,
      "duration": 0.0833,
      "velocity": 127,
      "chip": "ym2612"
    },
    {
      "channel": 0,
      "note": 64,
      "start": 8.4007,
      "duration": 0.1838,
      "velocity": 102,
      "chip": "ym2612"
    },
    {
      "channel": 2,
      "note": 76,
      "start": 8.4025,
      "duration": 0.1822,
      "velocity": 127,
      "chip": "ym2612"
    },
    {
      "channel": 0,
      "note": 62,
      "start": 8.6013,
      "duration": 0.1833,
      "velocity": 102,
      "chip": "ym2612"
    },
    {
      "channel": 1,
      "note": 93,
      "start": 8.6015,
      "duration": 0.3831,
      "velocity": 83,
      "chip": "ym2612"
    },
    {
      "channel": 2,
      "note": 42,
      "start": 8.6032,
      "duration": 0.0815,
      "velocity": 127,
      "chip": "ym2612"
    },
    {
      "channel": 2,
      "note": 76,
      "start": 8.7014,
      "duration": 0.0834,
      "velocity": 127,
      "chip": "ym2612"
    },
    {
      "channel": 0,
      "note": 59,
      "start": 8.8014,
      "duration": 0.1832,
      "velocity": 102,
      "chip": "ym2612"
    },
    {
      "channel": 2,
      "note": 76,
      "start": 8.8032,
      "duration": 0.1816,
      "velocity": 127,
      "chip": "ym2612"
    },
    {
      "channel": 0,
      "note": 56,
      "start": 9.0014,
      "duration": 0.1832,
      "velocity": 102,
      "chip": "ym2612"
    },
    {
      "channel": 1,
      "note": 92,
      "start": 9.0016,
      "duration": 0.783,
      "velocity": 83,
      "chip": "ym2612"
    },
    {
      "channel": 2,
      "note": 30,
      "start": 9.0019,
      "duration": 0.0828,
      "velocity": 127,
      "chip": "ym2612"
    },
    {
      "channel": 2,
      "note": 30,
      "start": 9.103,
      "duration": 0.0818,
      "velocity": 127,
      "chip": "ym2612"
    },
    {
      "channel": 0,
      "note": 57,
      "start": 9.2013,
      "duration": 0.1833,
      "velocity": 102,
      "chip": "ym2612"
    },
    {
      "channel": 2,
      "note": 76,
      "start": 9.2032,
      "duration": 0.1817,
      "velocity": 127,
      "chip": "ym2612"
    },
    {
      "channel": 0,
      "note": 58,
      "start": 9.4013,
      "duration": 0.1832,
      "velocity": 102,
      "chip": "ym2612"
    },
    {
      "channel": 2,
      "note": 42,
      "start": 9.4032,
      "duration": 0.0814,
      "velocity": 127,
      "chip": "ym2612"
    },
    {
      "channel": 2,
      "note": 30,
      "start": 9.5029,
      "duration": 0.0818,
      "velocity": 127,
      "chip": "ym2612"
    },
    {
      "channel": 0,
      "note": 59,
      "start": 9.6029,
      "duration": 0.1816,
      "velocity": 102,
      "chip": "ym2612"
    },
    {
      "channel": 2,
      "note": 76,
      "start": 9.6049,
      "duration": 0.18,
      "velocity": 127,
      "chip": "ym2612"
    },
    {
      "channel": 0,
      "note": 52,
      "start": 9.8014,
      "duration": 0.1832,
      "velocity": 102,
      "chip": "ym2612"
    },
    {
      "channel": 1,
      "note": 87,
      "start": 9.8016,
      "duration": 0.183,
      "velocity": 83,
      "chip": "ym2612"
    },
    {
      "channel": 2,
      "note": 30,
      "start": 9.8033,
      "duration": 0.0813,
      "velocity": 127,
      "chip": "ym2612"
    },
    {
      "channel": 2,
      "note": 76,
      "start": 9.9015,
      "duration": 0.0834,
      "velocity": 127,
      "chip": "ym2612"
    },
    {
      "channel": 0,
      "note": 64,
      "start": 10.0014,
      "duration": 0.1832,
      "velocity": 102,
      "chip": "ym2612"
    },
    {
      "channel": 1,
      "note": 81,
      "start": 10.0016,
      "duration": 0.3829,
      "velocity": 83,
      "chip": "ym2612"
    },
    {
      "channel": 2,
      "note": 76,
      "start": 10.0033,
      "duration": 0.1815,
      "velocity": 127,
      "chip": "ym2612"
    },
    {
      "channel": 0,
      "note": 64,
      "start": 10.2014,
      "duration": 0.1832,
      "velocity": 102,
      "chip": "ym2612"
    },
    {
      "channel": 2,
      "note": 42,
      "start": 10.2032,
      "duration": 0.1816,
      "velocity": 127,
      "chip": "ym2612"
    },
    {
      "channel": 0,
      "note": 62,
      "start": 10.4013,
      "duration": 0.5833,
      "velocity": 102,
      "chip": "ym2612"
    },
    {
      "channel": 1,
      "note": 83,
      "start": 10.4015,
      "duration": 0.383,
      "velocity": 83,
      "chip": "ym2612"
    },
    {
      "channel": 2,
      "note": 30,
      "start": 10.4018,
      "duration": 0.1829,
      "velocity": 127,
      "chip": "ym2612"
    },
    {
      "channel": 2,
      "note": 30,
      "start": 10.6029,
      "duration": 0.0817,
      "velocity": 127,
      "chip": "ym2612"
    },
    {
      "channel": 2,
      "note": 76,
      "start": 10.7014,
      "duration": 0.0833,
      "velocity": 127,
      "chip": "ym2612"
    },
    {
      "channel": 1,
      "note": 88,
      "start": 10.8014,
      "duration": 0.1833,
      "velocity": 83,
      "chip": "ym2612"
    },
    {
      "channel": 2,
      "note": 76,
      "start": 10.8031,
      "duration": 0.1819,
      "velocity": 127,
      "chip": "ym2612"
    },
    {
      "channel": 0,
      "note": 64,
      "start": 11.0014,
      "duration": 0.3831,
      "velocity": 102,
      "chip": "ym2612"
    },
    {
      "channel": 1,
      "note": 86,
      "start": 11.0017,
      "duration": 1.9829,
      "velocity": 83,
      "chip": "ym2612"
    },
    {
      "channel": 2,
      "note": 42,
      "start": 11.0034,
      "duration": 0.0813,
      "velocity": 127,
      "chip": "ym2612"
    },
    {
      "channel": 2,
      "note": 30,
      "start": 11.103,
      "duration": 0.0817,
      "velocity": 127,
      "chip": "ym2612"
    },
    {
      "channel": 2,
      "note": 76,
      "start": 11.203,
      "duration": 0.1819,
      "velocity": 127,
      "chip": "ym2612"
    },
    {
      "channel": 0,
      "note": 64,
      "start": 11.4014,
      "duration": 0.1831,
      "velocity": 102,
      "chip": "ym2612"
    },
    {
      "channel": 2,
      "note": 30,
      "start": 11.4032,
      "duration": 0.0815,
      "velocity": 127,
      "chip": "ym2612"
    },
    {
      "channel": 2,
      "note": 76,
      "start": 11.5014,
      "duration": 0.0833,
      "velocity": 127,
      "chip": "ym2612"
    },
    {
      "channel": 0,
      "note": 64,
      "start": 11.6014,
      "duration": 0.1832,
      "velocity": 102,
      "chip": "ym2612"
    },
    {
      "channel": 2,
      "note": 76,
      "start": 11.6032,
      "duration": 0.1816,
      "velocity": 127,
      "chip": "ym2612"
    },
    {
      "channel": 0,
      "note": 62,
      "start": 11.8014,
      "duration": 0.183,
      "velocity": 102,
      "chip": "ym2612"
    },
    {
      "channel": 2,
      "note": 42,
      "start": 11.8033,
      "duration": 0.0814,
      "velocity": 127,
      "chip": "ym2612"
    },
    {
      "channel": 2,
      "note": 76,
      "start": 11.9014,
      "duration": 0.0833,
      "velocity": 127,
      "chip": "ym2612"
    },
    {
      "channel": 0,
      "note": 59,
      "start": 12.0005,
      "duration": 0.1831,
      "velocity": 102,
      "chip": "ym2612"
    },
    {
      "channel": 2,
      "note": 76,
      "start": 12.0024,
      "duration": 0.1815,
      "velocity": 127,
      "chip": "ym2612"
    },
    {
      "channel": 0,
      "note": 56,
      "start": 12.2006,
      "duration": 0.1831,
      "velocity": 102,
      "chip": "ym2612"
    },
    {
      "channel": 2,
      "note": 30,
      "start": 12.201,
      "duration": 0.083,
      "velocity": 127,
      "chip": "ym2612"
    },
    {
      "channel": 2,
      "note": 30,
      "start": 12.3021,
      "duration": 0.0819,
      "velocity": 127,
      "chip": "ym2612"
    },
    {
      "channel": 0,
      "note": 57,
      "start": 12.4006,
      "duration": 0.184,
      "velocity": 102,
      "chip": "ym2612"
    },
    {
      "channel": 2,
      "note": 76,
      "start": 12.4024,
      "duration": 0.1824,
      "velocity": 127,
      "chip": "ym2612"
    },
    {
      "channel": 0,
      "note": 58,
      "start": 12.6014,
      "duration": 0.1832,
      "velocity": 102,
      "chip": "ym2612"
    },
    {
      "channel": 2,
      "note": 42,
      "start": 12.6032,
      "duration": 0.0815,
      "velocity": 127,
      "chip": "ym2612"
    },
    {
      "channel": 2,
      "note": 30,
      "start": 12.703,
      "duration": 0.0818,
      "velocity": 127,
      "chip": "ym2612"
    },
    {
      "channel": 0,
      "note": 59,
      "start": 12.803,
      "duration": 0.1815,
      "velocity": 102,
      "chip": "ym2612"
    },
    {
      "channel": 2,
      "note": 76,
      "start": 12.8049,
      "duration": 0.1799,
      "velocity": 127,
      "chip": "ym2612"
    },
    {
      "channel": 0,
      "note": 57,
      "start": 13.0014,
      "duration": 0.1832,
      "velocity": 102,
      "chip": "ym2612"
    },
    {
      "channel": 1,
      "note": 78,
      "start": 13.0016,
      "duration": 0.183,
      "velocity": 83,
      "chip": "ym2612"
    },
    {
      "channel": 2,
      "note": 30,
      "start": 13.0033,
      "duration": 0.0814,
      "velocity": 127,
      "chip": "ym2612"
    },
    {
      "channel": 2,
      "note": 76,
      "start": 13.1015,
      "duration": 0.0834,
      "velocity": 127,
      "chip": "ym2612"
    },
    {
      "channel": 0,
      "note": 69,
      "start": 13.2014,
      "duration": 0.1832,
      "velocity": 102,
      "chip": "ym2612"
    },
    {
      "channel": 1,
      "note": 74,
      "start": 13.2016,
      "duration": 0.383,
      "velocity": 83,
      "chip": "ym2612"
    },
    {
      "channel": 2,
      "note": 76,
      "start": 13.2033,
      "duration": 0.1815,
      "velocity": 127,
      "chip": "ym2612"
    },
    {
      "channel": 0,
      "note": 69,
      "start": 13.4013,
      "duration": 0.1833,
      "velocity": 102,
      "chip": "ym2612"
    },
    {
      "channel": 2,
      "note": 42,
      "start": 13.4032,
      "duration": 0.1817,
      "velocity": 127,
      "chip": "ym2612"
    },
    {
      "channel": 0,
      "note": 67,
      "start": 13.6014,
      "duration": 0.5832,
      "velocity": 102,
      "chip": "ym2612"
    },
    {
      "channel": 1,
      "note": 76,
      "start": 13.6016,
      "duration": 0.3829,
      "velocity": 83,
      "chip": "ym2612"
    },
    {
      "channel": 2,
      "note": 30,
      "start": 13.6019,
      "duration": 0.1828,
      "velocity": 127,
      "chip": "ym2612"
    },
    {
      "channel": 2,
      "note": 30,
      "start": 13.803,
      "duration": 0.0817,
      "velocity": 127,
      "chip": "ym2612"
    },
    {
      "channel": 2,
      "note": 76,
      "start": 13.9015,
      "duration": 0.0833,
      "velocity": 127,
      "chip": "ym2612"
    },
    {
      "channel": 1,
      "note": 79,
      "start": 14.0015,
      "duration": 0.1832,
      "velocity": 83,
      "chip": "ym2612"
    },
    {
      "channel": 2,
      "note": 76,
      "start": 14.0032,
      "duration": 0.1817,
      "velocity": 127,
      "chip": "ym2612"
    },
    {
      "channel": 0,
      "note": 69,
      "start": 14.2014,
      "duration": 0.3831,
      "velocity": 102,
      "chip": "ym2612"
    },
    {
      "channel": 1,
      "note": 81,
      "start": 14.2017,
      "duration": 0.383,
      "velocity": 83,
      "chip": "ym2612"
    },
    {
      "channel": 2,
      "note": 42,
      "start": 14.2033,
      "duration": 0.0814,
      "velocity": 127,
      "chip": "ym2612"
    },
    {
      "channel": 2,
      "note": 30,
      "start": 14.3028,
      "duration": 0.0819,
      "velocity": 127,
      "chip": "ym2612"
    },
    {
      "channel": 2,
      "note": 76,
      "start": 14.4029,
      "duration": 0.182,
      "velocity": 127,
      "chip": "ym2612"
    },
    {
      "channel": 0,
      "note": 69,
      "start": 14.6015,
      "duration": 0.183,
      "velocity": 102,
      "chip": "ym2612"
    },
    {
      "channel": 1,
      "note": 84,
      "start": 14.6018,
      "duration": 0.5827,
      "velocity": 83,
      "chip": "ym2612"
    },
    {
      "channel": 2,
      "note": 30,
      "start": 14.6035,
      "duration": 0.0812,
      "velocity": 127,
      "chip": "ym2612"
    },
    {
      "channel": 2,
      "note": 76,
      "start": 14.7015,
      "duration": 0.0833,
      "velocity": 127,
      "chip": "ym2612"
    },
    {
      "channel": 0,
      "note": 69,
      "start": 14.8014,
      "duration": 0.1832,
      "velocity": 102,
      "chip": "ym2612"
    },
    {
      "channel": 2,
      "note": 76,
      "start": 14.8032,
      "duration": 0.1817,
      "velocity": 127,
      "chip": "ym2612"
    },
    {
      "channel": 0,
      "note": 67,
      "start": 15.0014,
      "duration": 0.1831,
      "velocity": 102,
      "chip": "ym2612"
    },
    {
      "channel": 2,
      "note": 42,
      "start": 15.0032,
      "duration": 0.0815,
      "velocity": 127,
      "chip": "ym2612"
    },
    {
      "channel": 2,
      "note": 76,
      "start": 15.1014,
      "duration": 0.0833,
      "velocity": 127,
      "chip": "ym2612"
    },
    {
      "channel": 0,
      "note": 64,
      "start": 15.2014,
      "duration": 0.183,
      "velocity": 102,
      "chip": "ym2612"
    },
    {
      "channel": 1,
      "note": 81,
      "start": 15.2017,
      "duration": 0.9822,
      "velocity": 83,
      "chip": "ym2612"
    },
    {
      "channel": 2,
      "note": 76,
      "start": 15.2033,
      "duration": 0.1814,
      "velocity": 127,
      "chip": "ym2612"
    },
    {
      "channel": 0,
      "note": 61,
      "start": 15.4012,
      "duration": 0.1832,
      "velocity": 102,
      "chip": "ym2612"
    },
    {
      "channel": 2,
      "note": 30,
      "start": 15.4017,
      "duration": 0.0829,
      "velocity": 127,
      "chip": "ym2612"
    },
    {
      "channel": 2,
      "note": 30,
      "start": 15.5029,
      "duration": 0.0818,
      "velocity": 127,
      "chip": "ym2612"
    },
    {
      "channel": 0,
      "note": 62,
      "start": 15.6014,
      "duration": 0.1832,
      "velocity": 102,
      "chip": "ym2612"
    },
    {
      "channel": 2,
      "note": 76,
      "start": 15.6032,
      "duration": 0.1816,
      "velocity": 127,
      "chip": "ym2612"
    },
    {
      "channel": 0,
      "note": 63,
      "start": 15.8014,
      "duration": 0.1831,
      "velocity": 102,
      "chip": "ym2612"
    },
    {
      "channel": 2,
      "note": 42,
      "start": 15.8033,
      "duration": 0.0815,
      "velocity": 127,
      "chip": "ym2612"
    },
    {
      "channel": 2,
      "note": 30,
      "start": 15.9029,
      "duration": 0.082,
      "velocity": 127,
      "chip": "ym2612"
    },
    {
      "channel": 0,
      "note": 64,
      "start": 16.0029,
      "duration": 0.1809,
      "velocity": 102,
      "chip": "ym2612"
    },
    {
      "channel": 2,
      "note": 76,
      "start": 16.0047,
      "duration": 0.1794,
      "velocity": 127,
      "chip": "ym2612"
    },
    {
      "channel": 0,
      "note": 57,
      "start": 16.2007,
      "duration": 0.1831,
      "velocity": 102,
      "chip": "ym2612"
    },
    {
      "channel": 1,
      "note": 80,
      "start": 16.2009,
      "duration": 0.183,
      "velocity": 83,
      "chip": "ym2612"
    },
    {
      "channel": 2,
      "note": 30,
      "start": 16.2026,
      "duration": 0.0814,
      "velocity": 127,
      "chip": "ym2612"
    },
    {
      "channel": 2,
      "note": 76,
      "start": 16.3007,
      "duration": 0.0834,
      "velocity": 127,
      "chip": "ym2612"
    },
    {
      "channel": 0,
      "note": 69,
      "start": 16.4007,
      "duration": 0.1857,
      "velocity": 102,
      "chip": "ym2612"
    },
    {
      "channel": 1,
      "note": 74,
      "start": 16.401,
      "duration": 0.384,
      "velocity": 83,
      "chip": "ym2612"
    },
    {
      "channel": 2,
      "note": 76,
      "start": 16.4026,
      "duration": 0.184,
      "velocity": 127,
      "chip": "ym2612"
    },
    {
      "channel": 0,
      "note": 69,
      "start": 16.6032,
      "duration": 0.1817,
      "velocity": 102,
      "chip": "ym2612"
    },
    {
      "channel": 2,
      "note": 42,
      "start": 16.6051,
      "duration": 0.1802,
      "velocity": 127,
      "chip": "ym2612"
    },
    {
      "channel": 0,
      "note": 67,
      "start": 16.8019,
      "duration": 0.5845,
      "velocity": 102,
      "chip": "ym2612"
    },
    {
      "channel": 1,
      "note": 76,
      "start": 16.8021,
      "duration": 0.1829,
      "velocity": 83,
      "chip": "ym2612"
    },
    {
      "channel": 2,
      "note": 30,
      "start": 16.8024,
      "duration": 0.1829,
      "velocity": 127,
      "chip": "ym2612"
    },
    {
      "channel": 1,
      "note": 79,
      "start": 17.0018,
      "duration": 0.3847,
      "velocity": 83,
      "chip": "ym2612"
    },
    {
      "channel": 2,
      "note": 30,
      "start": 17.0035,
      "duration": 0.0816,
      "velocity": 127,
      "chip": "ym2612"
    },
    {
      "channel": 2,
      "note": 76,
      "start": 17.1018,
      "duration": 0.0834,
      "velocity": 127,
      "chip": "ym2612"
    },
    {
      "channel": 2,
      "note": 76,
      "start": 17.2033,
      "duration": 0.1833,
      "velocity": 127,
      "chip": "ym2612"
    },
    {
      "channel": 0,
      "note": 69,
      "start": 17.4033,
      "duration": 0.3816,
      "velocity": 102,
      "chip": "ym2612"
    },
    {
      "channel": 1,
      "note": 81,
      "start": 17.4036,
      "duration": 1.7814,
      "velocity": 83,
      "chip": "ym2612"
    },
    {
      "channel": 2,
      "note": 42,
      "start": 17.4052,
      "duration": 0.0812,
      "velocity": 127,
      "chip": "ym2612"
    },
    {
      "channel": 2,
      "note": 30,
      "start": 17.5048,
      "duration": 0.0817,
      "velocity": 127,
      "chip": "ym2612"
    },
    {
      "channel": 2,
      "note": 76,
      "start": 17.6048,
      "duration": 0.1804,
      "velocity": 127,
      "chip": "ym2612"
    },
    {
      "channel": 0,
      "note": 69,
      "start": 17.8019,
      "duration": 0.1831,
      "velocity": 102,
      "chip": "ym2612"
    },
    {
      "channel": 2,
      "note": 30,
      "start": 17.8037,
      "duration": 0.0814,
      "velocity": 127,
      "chip": "ym2612"
    },
    {
      "channel": 2,
      "note": 76,
      "start": 17.9019,
      "duration": 0.0833,
      "velocity": 127,
      "chip": "ym2612"
    },
    {
      "channel": 0,
      "note": 69,
      "start": 18.0019,
      "duration": 0.183,
      "velocity": 102,
      "chip": "ym2612"
    },
    {
      "channel": 2,
      "note": 76,
      "start": 18.0037,
      "duration": 0.1815,
      "velocity": 127,
      "chip": "ym2612"
    },
    {
      "channel": 0,
      "note": 67,
      "start": 18.2018,
      "duration": 0.1845,
      "velocity": 102,
      "chip": "ym2612"
    },
    {
      "channel": 2,
      "note": 42,
      "start": 18.2037,
      "duration": 0.0815,
      "velocity": 127,
      "chip": "ym2612"
    },
    {
      "channel": 2,
      "note": 76,
      "start": 18.3019,
      "duration": 0.0846,
      "velocity": 127,
      "chip": "ym2612"
    },
    {
      "channel": 0,
      "note": 64,
      "start": 18.4032,
      "duration": 0.1832,
      "velocity": 102,
      "chip": "ym2612"
    },
    {
      "channel": 2,
      "note": 76,
      "start": 18.4051,
      "duration": 0.1816,
      "velocity": 127,
      "chip": "ym2612"
    },
    {
      "channel": 0,
      "note": 61,
      "start": 18.6032,
      "duration": 0.1832,
      "velocity": 102,
      "chip": "ym2612"
    },
    {
      "channel": 2,
      "note": 30,
      "start": 18.6036,
      "duration": 0.0829,
      "velocity": 127,
      "chip": "ym2612"
    },
    {
      "channel": 2,
      "note": 30,
      "start": 18.7047,
      "duration": 0.0819,
      "velocity": 127,
      "chip": "ym2612"
    },
    {
      "channel": 0,
      "note": 62,
      "start": 18.8032,
      "duration": 0.1817,
      "velocity": 102,
      "chip": "ym2612"
    },
    {
      "channel": 2,
      "note": 76,
      "start": 18.805,
      "duration": 0.1802,
      "velocity": 127,
      "chip": "ym2612"
    },
    {
      "channel": 0,
      "note": 63,
      "start": 19.0018,
      "duration": 0.1831,
      "velocity": 102,
      "chip": "ym2612"
    },
    {
      "channel": 2,
      "note": 42,
      "start": 19.0037,
      "duration": 0.0814,
      "velocity": 127,
      "chip": "ym2612"
    },
    {
      "channel": 2,
      "note": 30,
      "start": 19.1034,
      "duration": 0.0819,
      "velocity": 127,
      "chip": "ym2612"
    },
    {
      "channel": 0,
      "note": 64,
      "start": 19.2035,
      "duration": 0.1828,
      "velocity": 102,
      "chip": "ym2612"
    },
    {
      "channel": 2,
      "note": 76,
      "start": 19.2053,
      "duration": 0.1813,
      "velocity": 127,
      "chip": "ym2612"
    },
    {
      "channel": 0,
      "note": 47,
      "start": 19.4031,
      "duration": 0.1832,
      "velocity": 102,
      "chip": "ym2612"
    },
    {
      "channel": 1,
      "note": 83,
      "start": 19.4033,
      "duration": 0.1831,
      "velocity": 83,
      "chip": "ym2612"
    },
    {
      "channel": 2,
      "note": 30,
      "start": 19.4051,
      "duration": 0.0815,
      "velocity": 127,
      "chip": "ym2612"
    },
    {
      "channel": 2,
      "note": 76,
      "start": 19.5033,
      "duration": 0.0833,
      "velocity": 127,
      "chip": "ym2612"
    },
    {
      "channel": 0,
      "note": 59,
      "start": 19.6033,
      "duration": 0.183,
      "velocity": 102,
      "chip": "ym2612"
    },
    {
      "channel": 1,
      "note": 78,
      "start": 19.6035,
      "duration": 0.3816,
      "velocity": 83,
      "chip": "ym2612"
    },
    {
      "channel": 2,
      "note": 76,
      "start": 19.6052,
      "duration": 0.1814,
      "velocity": 127,
      "chip": "ym2612"
    },
    {
      "channel": 0,
      "note": 59,
      "start": 19.8031,
      "duration": 0.1819,
      "velocity": 102,
      "chip": "ym2612"
    },
    {
      "channel": 2,
      "note": 42,
      "start": 19.8049,
      "duration": 0.1803,
      "velocity": 127,
      "chip": "ym2612"
    },
    {
      "channel": 0,
      "note": 57,
      "start": 20.0018,
      "duration": 0.5826,
      "velocity": 102,
      "chip": "ym2612"
    },
    {
      "channel": 1,
      "note": 81,
      "start": 20.0021,
      "duration": 0.3817,
      "velocity": 83,
      "chip": "ym2612"
    },
    {
      "channel": 2,
      "note": 30,
      "start": 20.0023,
      "duration": 0.1816,
      "velocity": 127,
      "chip": "ym2612"
    },
    {
      "channel": 2,
      "note": 30,
      "start": 20.2022,
      "duration": 0.0817,
      "velocity": 127,
      "chip": "ym2612"
    },
    {
      "channel": 2,
      "note": 76,
      "start": 20.3007,
      "duration": 0.0833,
      "velocity": 127,
      "chip": "ym2612"
    },
    {
      "channel": 1,
      "note": 83,
      "start": 20.4007,
      "duration": 0.1839,
      "velocity": 83,
      "chip": "ym2612"
    },
    {
      "channel": 2,
      "note": 76,
      "start": 20.4023,
      "duration": 0.1824,
      "velocity": 127,
      "chip": "ym2612"
    },
    {
      "channel": 0,
      "note": 59,
      "start": 20.6014,
      "duration": 0.3833,
      "velocity": 102,
      "chip": "ym2612"
    },
    {
      "channel": 1,
      "note": 83,
      "start": 20.6017,
      "duration": 0.1829,
      "velocity": 83,
      "chip": "ym2612"
    },
    {
      "channel": 2,
      "note": 42,
      "start": 20.6033,
      "duration": 0.0814,
      "velocity": 127,
      "chip": "ym2612"
    },
    {
      "channel": 2,
      "note": 30,
      "start": 20.7029,
      "duration": 0.082,
      "velocity": 127,
      "chip": "ym2612"
    },
    {
      "channel": 1,
      "note": 69,
      "start": 20.8014,
      "duration": 0.1834,
      "velocity": 83,
      "chip": "ym2612"
    },
    {
      "channel": 2,
      "note": 76,
      "start": 20.8031,
      "duration": 0.1819,
      "velocity": 127,
      "chip": "ym2612"
    },
    {
      "channel": 0,
      "note": 59,
      "start": 21.0015,
      "duration": 0.1832,
      "velocity": 102,
      "chip": "ym2612"
    },
    {
      "channel": 1,
      "note": 88,
      "start": 21.0017,
      "duration": 0.1831,
      "velocity": 83,
      "chip": "ym2612"
    },
    {
      "channel": 2,
      "note": 30,
      "start": 21.0035,
      "duration": 0.0815,
      "velocity": 127,
      "chip": "ym2612"
    },
    {
      "channel": 2,
      "note": 76,
      "start": 21.1016,
      "duration": 0.0834,
      "velocity": 127,
      "chip": "ym2612"
    },
    {
      "channel": 0,
      "note": 59,
      "start": 21.2015,
      "duration": 0.1832,
      "velocity": 102,
      "chip": "ym2612"
    },
    {
      "channel": 2,
      "note": 76,
      "start": 21.2033,
      "duration": 0.1817,
      "velocity": 127,
      "chip": "ym2612"
    },
    {
      "channel": 0,
      "note": 57,
      "start": 21.4015,
      "duration": 0.1829,
      "velocity": 102,
      "chip": "ym2612"
    },
    {
      "channel": 1,
      "note": 86,
      "start": 21.4018,
      "duration": 0.3827,
      "velocity": 83,
      "chip": "ym2612"
    },
    {
      "channel": 2,
      "note": 42,
      "start": 21.4035,
      "duration": 0.0814,
      "velocity": 127,
      "chip": "ym2612"
    },
    {
      "channel": 2,
      "note": 76,
      "start": 21.5014,
      "duration": 0.0833,
      "velocity": 127,
      "chip": "ym2612"
    },
    {
      "channel": 0,
      "note": 54,
      "start": 21.6014,
      "duration": 0.1831,
      "velocity": 102,
      "chip": "ym2612"
    },
    {
      "channel": 2,
      "note": 76,
      "start": 21.6032,
      "duration": 0.1816,
      "velocity": 127,
      "chip": "ym2612"
    },
    {
      "channel": 0,
      "note": 51,
      "start": 21.8014,
      "duration": 0.183,
      "velocity": 102,
      "chip": "ym2612"
    },
    {
      "channel": 1,
      "note": 83,
      "start": 21.8017,
      "duration": 0.1829,
      "velocity": 83,
      "chip": "ym2612"
    },
    {
      "channel": 2,
      "note": 30,
      "start": 21.8019,
      "duration": 0.0827,
      "velocity": 127,
      "chip": "ym2612"
    },
    {
      "channel": 2,
      "note": 30,
      "start": 21.9029,
      "duration": 0.0819,
      "velocity": 127,
      "chip": "ym2612"
    },
    {
      "channel": 0,
      "note": 52,
      "start": 22.0013,
      "duration": 0.1833,
      "velocity": 102,
      "chip": "ym2612"
    },
    {
      "channel": 1,
      "note": 83,
      "start": 22.0015,
      "duration": 0.1832,
      "velocity": 83,
      "chip": "ym2612"
    },
    {
      "channel": 2,
      "note": 76,
      "start": 22.0032,
      "duration": 0.1817,
      "velocity": 127,
      "chip": "ym2612"
    },
    {
      "channel": 0,
      "note": 53,
      "start": 22.2014,
      "duration": 0.1833,
      "velocity": 102,
      "chip": "ym2612"
    },
    {
      "channel": 1,
      "note": 81,
      "start": 22.2017,
      "duration": 0.1832,
      "velocity": 83,
      "chip": "ym2612"
    },
    {
      "channel": 2,
      "note": 42,
      "start": 22.2034,
      "duration": 0.0815,
      "velocity": 127,
      "chip": "ym2612"
    },
    {
      "channel": 2,
      "note": 30,
      "start": 22.303,
      "duration": 0.0821,
      "velocity": 127,
      "chip": "ym2612"
    },
    {
      "channel": 0,
      "note": 54,
      "start": 22.403,
      "duration": 0.1814,
      "velocity": 102,
      "chip": "ym2612"
    },
    {
      "channel": 2,
      "note": 76,
      "start": 22.4048,
      "duration": 0.18,
      "velocity": 127,
      "chip": "ym2612"
    },
    {
      "channel": 0,
      "note": 47,
      "start": 22.6013,
      "duration": 0.1832,
      "velocity": 102,
      "chip": "ym2612"
    },
    {
      "channel": 1,
      "note": 83,
      "start": 22.6015,
      "duration": 0.183,
      "velocity": 83,
      "chip": "ym2612"
    },
    {
      "channel": 2,
      "note": 30,
      "start": 22.6032,
      "duration": 0.0815,
      "velocity": 127,
      "chip": "ym2612"
    },
    {
      "channel": 2,
      "note": 76,
      "start": 22.7014,
      "duration": 0.0834,
      "velocity": 127,
      "chip": "ym2612"
    },
    {
      "channel": 0,
      "note": 59,
      "start": 22.8014,
      "duration": 0.1831,
      "velocity": 102,
      "chip": "ym2612"
    },
    {
      "channel": 1,
      "note": 76,
      "start": 22.8017,
      "duration": 0.3831,
      "velocity": 83,
      "chip": "ym2612"
    },
    {
      "channel": 2,
      "note": 76,
      "start": 22.8034,
      "duration": 0.1814,
      "velocity": 127,
      "chip": "ym2612"
    },
    {
      "channel": 0,
      "note": 59,
      "start": 23.0012,
      "duration": 0.1834,
      "velocity": 102,
      "chip": "ym2612"
    },
    {
      "channel": 2,
      "note": 42,
      "start": 23.0032,
      "duration": 0.1818,
      "velocity": 127,
      "chip": "ym2612"
    },
    {
      "channel": 0,
      "note": 57,
      "start": 23.2015,
      "duration": 0.583,
      "velocity": 102,
      "chip": "ym2612"
    },
    {
      "channel": 1,
      "note": 78,
      "start": 23.2017,
      "duration": 0.3829,
      "velocity": 83,
      "chip": "ym2612"
    },
    {
      "channel": 2,
      "note": 30,
      "start": 23.202,
      "duration": 0.1828,
      "velocity": 127,
      "chip": "ym2612"
    },
    {
      "channel": 2,
      "note": 30,
      "start": 23.4032,
      "duration": 0.0817,
      "velocity": 127,
      "chip": "ym2612"
    },
    {
      "channel": 2,
      "note": 76,
      "start": 23.5016,
      "duration": 0.0833,
      "velocity": 127,
      "chip": "ym2612"
    },
    {
      "channel": 1,
      "note": 81,
      "start": 23.6016,
      "duration": 0.3829,
      "velocity": 83,
      "chip": "ym2612"
    },
    {
      "channel": 2,
      "note": 76,
      "start": 23.6033,
      "duration": 0.1816,
      "velocity": 127,
      "chip": "ym2612"
    },
    {
      "channel": 0,
      "note": 59,
      "start": 23.8014,
      "duration": 0.3824,
      "velocity": 102,
      "chip": "ym2612"
    },
    {
      "channel": 2,
      "note": 42,
      "start": 23.8033,
      "duration": 0.0815,
      "velocity": 127,
      "chip": "ym2612"
    },
    {
      "channel": 2,
      "note": 30,
      "start": 23.9029,
      "duration": 0.0818,
      "velocity": 127,
      "chip": "ym2612"
    },
    {
      "channel": 2,
      "note": 76,
      "start": 24.0029,
      "duration": 0.1812,
      "velocity": 127,
      "chip": "ym2612"
    },
    {
      "channel": 0,
      "note": 59,
      "start": 24.2007,
      "duration": 0.183,
      "velocity": 102,
      "chip": "ym2612"
    },
    {
      "channel": 1,
      "note": 83,
      "start": 24.2009,
      "duration": 0.1829,
      "velocity": 83,
      "chip": "ym2612"
    },
    {
      "channel": 2,
      "note": 30,
      "start": 24.2026,
      "duration": 0.0814,
      "velocity": 127,
      "chip": "ym2612"
    },
    {
      "channel": 2,
      "note": 76,
      "start": 24.3007,
      "duration": 0.0833,
      "velocity": 127,
      "chip": "ym2612"
    },
    {
      "channel": 0,
      "note": 59,
      "start": 24.4007,
      "duration": 0.1839,
      "velocity": 102,
      "chip": "ym2612"
    },
    {
      "channel": 1,
      "note": 89,
      "start": 24.4009,
      "duration": 0.1837,
      "velocity": 83,
      "chip": "ym2612"
    },
    {
      "channel": 2,
      "note": 76,
      "start": 24.4026,
      "duration": 0.1822,
      "velocity": 127,
      "chip": "ym2612"
    },
    {
      "channel": 0,
      "note": 57,
      "start": 24.6014,
      "duration": 0.1845,
      "velocity": 102,
      "chip": "ym2612"
    },
    {
      "channel": 1,
      "note": 88,
      "start": 24.6016,
      "duration": 0.1844,
      "velocity": 83,
      "chip": "ym2612"
    },
    {
      "channel": 2,
      "note": 42,
      "start": 24.6033,
      "duration": 0.0827,
      "velocity": 127,
      "chip": "ym2612"
    },
    {
      "channel": 2,
      "note": 76,
      "start": 24.7029,
      "duration": 0.0833,
      "velocity": 127,
      "chip": "ym2612"
    },
    {
      "channel": 0,
      "note": 54,
      "start": 24.8028,
      "duration": 0.1831,
      "velocity": 102,
      "chip": "ym2612"
    },
    {
      "channel": 1,
      "note": 86,
      "start": 24.803,
      "duration": 0.183,
      "velocity": 83,
      "chip": "ym2612"
    },
    {
      "channel": 2,
      "note": 76,
      "start": 24.8047,
      "duration": 0.1815,
      "velocity": 127,
      "chip": "ym2612"
    },
    {
      "channel": 0,
      "note": 51,
      "start": 25.0028,
      "duration": 0.1831,
      "velocity": 102,
      "chip": "ym2612"
    },
    {
      "channel": 1,
      "note": 83,
      "start": 25.003,
      "duration": 0.183,
      "velocity": 83,
      "chip": "ym2612"
    },
    {
      "channel": 2,
      "note": 30,
      "start": 25.0033,
      "duration": 0.0828,
      "velocity": 127,
      "chip": "ym2612"
    },
    {
      "channel": 2,
      "note": 30,
      "start": 25.1042,
      "duration": 0.082,
      "velocity": 127,
      "chip": "ym2612"
    },
    {
      "channel": 0,
      "note": 52,
      "start": 25.2028,
      "duration": 0.1818,
      "velocity": 102,
      "chip": "ym2612"
    },
    {
      "channel": 1,
      "note": 81,
      "start": 25.203,
      "duration": 0.1817,
      "velocity": 83,
      "chip": "ym2612"
    },
    {
      "channel": 2,
      "note": 76,
      "start": 25.2047,
      "duration": 0.1802,
      "velocity": 127,
      "chip": "ym2612"
    },
    {
      "channel": 0,
      "note": 53,
      "start": 25.4014,
      "duration": 0.1831,
      "velocity": 102,
      "chip": "ym2612"
    },
    {
      "channel": 1,
      "note": 82,
      "start": 25.4017,
      "duration": 0.1829,
      "velocity": 83,
      "chip": "ym2612"
    },
    {
      "channel": 2,
      "note": 42,
      "start": 25.4033,
      "duration": 0.0814,
      "velocity": 127,
      "chip": "ym2612"
    },
    {
      "channel": 2,
      "note": 30,
      "start": 25.5029,
      "duration": 0.082,
      "velocity": 127,
      "chip": "ym2612"
    },
    {
      "channel": 0,
      "note": 54,
      "start": 25.6016,
      "duration": 0.1842,
      "velocity": 102,
      "chip": "ym2612"
    },
    {
      "channel": 2,
      "note": 76,
      "start": 25.6049,
      "duration": 0.1812,
      "velocity": 127,
      "chip": "ym2612"
    },
    {
      "channel": 0,
      "note": 52,
      "start": 25.8028,
      "duration": 0.1831,
      "velocity": 102,
      "chip": "ym2612"
    },
    {
      "channel": 2,
      "note": 30,
      "start": 25.8046,
      "duration": 0.0815,
      "velocity": 127,
      "chip": "ym2612"
    },
    {
      "channel": 2,
      "note": 76,
      "start": 25.9028,
      "duration": 0.0833,
      "velocity": 127,
      "chip": "ym2612"
    },
    {
      "channel": 0,
      "note": 64,
      "start": 26.0028,
      "duration": 0.183,
      "velocity": 102,
      "chip": "ym2612"
    },
    {
      "channel": 1,
      "note": 83,
      "start": 26.0031,
      "duration": 0.1829,
      "velocity": 70,
      "chip": "ym2612"
    },
    {
      "channel": 2,
      "note": 76,
      "start": 26.0047,
      "duration": 0.1814,
      "velocity": 127,
      "chip": "ym2612"
    },
    {
      "channel": 0,
      "note": 64,
      "start": 26.2027,
      "duration": 0.1818,
      "velocity": 102,
      "chip": "ym2612"
    },
    {
      "channel": 1,
      "note": 88,
      "start": 26.2029,
      "duration": 0.5816,
      "velocity": 70,
      "chip": "ym2612"
    },
    {
      "channel": 2,
      "note": 42,
      "start": 26.2046,
      "duration": 0.1802,
      "velocity": 127,
      "chip": "ym2612"
    },
    {
      "channel": 0,
      "note": 62,
      "start": 26.4013,
      "duration": 0.5846,
      "velocity": 102,
      "chip": "ym2612"
    },
    {
      "channel": 2,
      "note": 30,
      "start": 26.4017,
      "duration": 0.1829,
      "velocity": 127,
      "chip": "ym2612"
    },
    {
      "channel": 2,
      "note": 30,
      "start": 26.6029,
      "duration": 0.0817,
      "velocity": 127,
      "chip": "ym2612"
    },
    {
      "channel": 2,
      "note": 76,
      "start": 26.7014,
      "duration": 0.0833,
      "velocity": 127,
      "chip": "ym2612"
    },
    {
      "channel": 1,
      "note": 92,
      "start": 26.8014,
      "duration": 0.1846,
      "velocity": 70,
      "chip": "ym2612"
    },
    {
      "channel": 2,
      "note": 76,
      "start": 26.8031,
      "duration": 0.1831,
      "velocity": 127,
      "chip": "ym2612"
    },
    {
      "channel": 0,
      "note": 64,
      "start": 27.0028,
      "duration": 0.3817,
      "velocity": 102,
      "chip": "ym2612"
    },
    {
      "channel": 1,
      "note": 93,
      "start": 27.0031,
      "duration": 0.1828,
      "velocity": 70,
      "chip": "ym2612"
    },
    {
      "channel": 2,
      "note": 42,
      "start": 27.0047,
      "duration": 0.0814,
      "velocity": 127,
      "chip": "ym2612"
    },
    {
      "channel": 2,
      "note": 30,
      "start": 27.1042,
      "duration": 0.082,
      "velocity": 127,
      "chip": "ym2612"
    },
    {
      "channel": 1,
      "note": 92,
      "start": 27.2027,
      "duration": 0.1819,
      "velocity": 70,
      "chip": "ym2612"
    },
    {
      "channel": 2,
      "note": 76,
      "start": 27.2044,
      "duration": 0.1805,
      "velocity": 127,
      "chip": "ym2612"
    },
    {
      "channel": 0,
      "note": 59,
      "start": 27.4014,
      "duration": 0.1832,
      "velocity": 102,
      "chip": "ym2612"
    },
    {
      "channel": 1,
      "note": 83,
      "start": 27.4016,
      "duration": 0.183,
      "velocity": 70,
      "chip": "ym2612"
    },
    {
      "channel": 2,
      "note": 30,
      "start": 27.4033,
      "duration": 0.0813,
      "velocity": 127,
      "chip": "ym2612"
    },
    {
      "channel": 2,
      "note": 76,
      "start": 27.5014,
      "duration": 0.0835,
      "velocity": 127,
      "chip": "ym2612"
    },
    {
      "channel": 0,
      "note": 59,
      "start": 27.6014,
      "duration": 0.1832,
      "velocity": 102,
      "chip": "ym2612"
    },
    {
      "channel": 1,
      "note": 86,
      "start": 27.6016,
      "duration": 0.7823,
      "velocity": 70,
      "chip": "ym2612"
    },
    {
      "channel": 2,
      "note": 76,
      "start": 27.6033,
      "duration": 0.1815,
      "velocity": 127,
      "chip": "ym2612"
    },
    {
      "channel": 0,
      "note": 57,
      "start": 27.8013,
      "duration": 0.1846,
      "velocity": 102,
      "chip": "ym2612"
    },
    {
      "channel": 2,
      "note": 42,
      "start": 27.8032,
      "duration": 0.0828,
      "velocity": 127,
      "chip": "ym2612"
    },
    {
      "channel": 2,
      "note": 76,
      "start": 27.9029,
      "duration": 0.0833,
      "velocity": 127,
      "chip": "ym2612"
    },
    {
      "channel": 0,
      "note": 54,
      "start": 28.0027,
      "duration": 0.181,
      "velocity": 102,
      "chip": "ym2612"
    },
    {
      "channel": 2,
      "note": 76,
      "start": 28.0045,
      "duration": 0.1795,
      "velocity": 127,
      "chip": "ym2612"
    },
    {
      "channel": 0,
      "note": 51,
      "start": 28.2005,
      "duration": 0.1832,
      "velocity": 102,
      "chip": "ym2612"
    },
    {
      "channel": 2,
      "note": 30,
      "start": 28.2009,
      "duration": 0.083,
      "velocity": 127,
      "chip": "ym2612"
    },
    {
      "channel": 2,
      "note": 30,
      "start": 28.3022,
      "duration": 0.0819,
      "velocity": 127,
      "chip": "ym2612"
    },
    {
      "channel": 0,
      "note": 52,
      "start": 28.4006,
      "duration": 0.1839,
      "velocity": 102,
      "chip": "ym2612"
    },
    {
      "channel": 1,
      "note": 88,
      "start": 28.4009,
      "duration": 0.1838,
      "velocity": 70,
      "chip": "ym2612"
    },
    {
      "channel": 2,
      "note": 76,
      "start": 28.4025,
      "duration": 0.1823,
      "velocity": 127,
      "chip": "ym2612"
    },
    {
      "channel": 0,
      "note": 53,
      "start": 28.6015,
      "duration": 0.1829,
      "velocity": 102,
      "chip": "ym2612"
    },
    {
      "channel": 1,
      "note": 86,
      "start": 28.6017,
      "duration": 1.3828,
      "velocity": 70,
      "chip": "ym2612"
    },
    {
      "channel": 2,
      "note": 42,
      "start": 28.6034,
      "duration": 0.0814,
      "velocity": 127,
      "chip": "ym2612"
    },
    {
      "channel": 2,
      "note": 30,
      "start": 28.7029,
      "duration": 0.0818,
      "velocity": 127,
      "chip": "ym2612"
    },
    {
      "channel": 0,
      "note": 54,
      "start": 28.8014,
      "duration": 0.1832,
      "velocity": 102,
      "chip": "ym2612"
    },
    {
      "channel": 2,
      "note": 76,
      "start": 28.8032,
      "duration": 0.1816,
      "velocity": 127,
      "chip": "ym2612"
    },
    {
      "channel": 0,
      "note": 57,
      "start": 29.0014,
      "duration": 0.183,
      "velocity": 102,
      "chip": "ym2612"
    },
    {
      "channel": 2,
      "note": 30,
      "start": 29.0033,
      "duration": 0.0814,
      "velocity": 127,
      "chip": "ym2612"
    },
    {
      "channel": 2,
      "note": 76,
      "start": 29.1014,
      "duration": 0.0833,
      "velocity": 127,
      "chip": "ym2612"
    },
    {
      "channel": 0,
      "note": 69,
      "start": 29.2014,
      "duration": 0.1832,
      "velocity": 102,
      "chip": "ym2612"
    },
    {
      "channel": 2,
      "note": 76,
      "start": 29.2032,
      "duration": 0.1816,
      "velocity": 127,
      "chip": "ym2612"
    },
    {
      "channel": 0,
      "note": 69,
      "start": 29.4012,
      "duration": 0.1833,
      "velocity": 102,
      "chip": "ym2612"
    },
    {
      "channel": 2,
      "note": 42,
      "start": 29.4031,
      "duration": 0.1817,
      "velocity": 127,
      "chip": "ym2612"
    },
    {
      "channel": 0,
      "note": 67,
      "start": 29.6013,
      "duration": 0.5832,
      "velocity": 102,
      "chip": "ym2612"
    },
    {
      "channel": 2,
      "note": 30,
      "start": 29.6017,
      "duration": 0.1829,
      "velocity": 127,
      "chip": "ym2612"
    },
    {
      "channel": 2,
      "note": 30,
      "start": 29.8029,
      "duration": 0.0817,
      "velocity": 127,
      "chip": "ym2612"
    },
    {
      "channel": 2,
      "note": 76,
      "start": 29.9014,
      "duration": 0.0833,
      "velocity": 127,
      "chip": "ym2612"
    },
    {
      "channel": 1,
      "note": 85,
      "start": 30.0014,
      "duration": 0.1832,
      "velocity": 70,
      "chip": "ym2612"
    },
    {
      "channel": 2,
      "note": 76,
      "start": 30.0032,
      "duration": 0.1817,
      "velocity": 127,
      "chip": "ym2612"
    },
    {
      "channel": 0,
      "note": 69,
      "start": 30.2014,
      "duration": 0.3832,
      "velocity": 102,
      "chip": "ym2612"
    },
    {
      "channel": 1,
      "note": 83,
      "start": 30.2016,
      "duration": 0.1829,
      "velocity": 70,
      "chip": "ym2612"
    },
    {
      "channel": 2,
      "note": 42,
      "start": 30.2033,
      "duration": 0.0814,
      "velocity": 127,
      "chip": "ym2612"
    },
    {
      "channel": 2,
      "note": 30,
      "start": 30.3029,
      "duration": 0.0818,
      "velocity": 127,
      "chip": "ym2612"
    },
    {
      "channel": 1,
      "note": 81,
      "start": 30.4014,
      "duration": 1.9825,
      "velocity": 70,
      "chip": "ym2612"
    },
    {
      "channel": 2,
      "note": 76,
      "start": 30.4032,
      "duration": 0.1816,
      "velocity": 127,
      "chip": "ym2612"
    },
    {
      "channel": 0,
      "note": 54,
      "start": 30.6014,
      "duration": 0.1831,
      "velocity": 102,
      "chip": "ym2612"
    },
    {
      "channel": 2,
      "note": 30,
      "start": 30.6033,
      "duration": 0.0815,
      "velocity": 127,
      "chip": "ym2612"
    },
    {
      "channel": 2,
      "note": 76,
      "start": 30.7014,
      "duration": 0.0833,
      "velocity": 127,
      "chip": "ym2612"
    },
    {
      "channel": 0,
      "note": 66,
      "start": 30.8014,
      "duration": 0.1831,
      "velocity": 102,
      "chip": "ym2612"
    },
    {
      "channel": 2,
      "note": 76,
      "start": 30.8033,
      "duration": 0.1815,
      "velocity": 127,
      "chip": "ym2612"
    },
    {
      "channel": 0,
      "note": 64,
      "start": 31.0014,
      "duration": 0.1831,
      "velocity": 102,
      "chip": "ym2612"
    },
    {
      "channel": 2,
      "note": 42,
      "start": 31.0033,
      "duration": 0.0815,
      "velocity": 127,
      "chip": "ym2612"
    },
    {
      "channel": 2,
      "note": 76,
      "start": 31.1014,
      "duration": 0.0833,
      "velocity": 127,
      "chip": "ym2612"
    },
    {
      "channel": 0,
      "note": 61,
      "start": 31.2014,
      "duration": 0.1831,
      "velocity": 102,
      "chip": "ym2612"
    },
    {
      "channel": 2,
      "note": 76,
      "start": 31.2033,
      "duration": 0.1815,
      "velocity": 127,
      "chip": "ym2612"
    },
    {
      "channel": 0,
      "note": 66,
      "start": 31.4012,
      "duration": 0.1832,
      "velocity": 102,
      "chip": "ym2612"
    },
    {
      "channel": 2,
      "note": 30,
      "start": 31.4017,
      "duration": 0.0829,
      "velocity": 127,
      "chip": "ym2612"
    },
    {
      "channel": 2,
      "note": 30,
      "start": 31.5029,
      "duration": 0.0818,
      "velocity": 127,
      "chip": "ym2612"
    },
    {
      "channel": 0,
      "note": 59,
      "start": 31.6014,
      "duration": 0.1832,
      "velocity": 102,
      "chip": "ym2612"
    },
    {
      "channel": 2,
      "note": 76,
      "start": 31.6032,
      "duration": 0.1816,
      "velocity": 127,
      "chip": "ym2612"
    },
    {
      "channel": 0,
      "note": 60,
      "start": 31.8014,
      "duration": 0.1831,
      "velocity": 102,
      "chip": "ym2612"
    },
    {
      "channel": 2,
      "note": 42,
      "start": 31.8033,
      "duration": 0.0815,
      "velocity": 127,
      "chip": "ym2612"
    },
    {
      "channel": 2,
      "note": 30,
      "start": 31.9029,
      "duration": 0.082,
      "velocity": 127,
      "chip": "ym2612"
    },
    {
      "channel": 0,
      "note": 61,
      "start": 32.0014,
      "duration": 0.1824,
      "velocity": 102,
      "chip": "ym2612"
    },
    {
      "channel": 2,
      "note": 76,
      "start": 32.0032,
      "duration": 0.1809,
      "velocity": 127,
      "chip": "ym2612"
    },
    {
      "channel": 0,
      "note": 52,
      "start": 32.2005,
      "duration": 0.1833,
      "velocity": 102,
      "chip": "ym2612"
    },
    {
      "channel": 2,
      "note": 30,
      "start": 32.2024,
      "duration": 0.0814,
      "velocity": 127,
      "chip": "ym2612"
    },
    {
      "channel": 2,
      "note": 76,
      "start": 32.3007,
      "duration": 0.0834,
      "velocity": 127,
      "chip": "ym2612"
    },
    {
      "channel": 0,
      "note": 64,
      "start": 32.4007,
      "duration": 0.1831,
      "velocity": 102,
      "chip": "ym2612"
    },
    {
      "channel": 1,
      "note": 85,
      "start": 32.4009,
      "duration": 0.183,
      "velocity": 70,
      "chip": "ym2612"
    },
    {
      "channel": 2,
      "note": 76,
      "start": 32.4026,
      "duration": 0.1815,
      "velocity": 127,
      "chip": "ym2612"
    },
    {
      "channel": 0,
      "note": 64,
      "start": 32.6014,
      "duration": 0.1831,
      "velocity": 102,
      "chip": "ym2612"
    },
    {
      "channel": 1,
      "note": 88,
      "start": 32.6016,
      "duration": 0.5829,
      "velocity": 70,
      "chip": "ym2612"
    },
    {
      "channel": 2,
      "note": 42,
      "start": 32.6033,
      "duration": 0.1814,
      "velocity": 127,
      "chip": "ym2612"
    },
    {
      "channel": 0,
      "note": 62,
      "start": 32.8014,
      "duration": 0.5832,
      "velocity": 102,
      "chip": "ym2612"
    },
    {
      "channel": 2,
      "note": 30,
      "start": 32.8017,
      "duration": 0.1829,
      "velocity": 127,
      "chip": "ym2612"
    },
    {
      "channel": 2,
      "note": 30,
      "start": 33.0029,
      "duration": 0.0817,
      "velocity": 127,
      "chip": "ym2612"
    },
    {
      "channel": 2,
      "note": 76,
      "start": 33.1014,
      "duration": 0.0833,
      "velocity": 127,
      "chip": "ym2612"
    },
    {
      "channel": 1,
      "note": 92,
      "start": 33.2014,
      "duration": 0.1832,
      "velocity": 70,
      "chip": "ym2612"
    },
    {
      "channel": 2,
      "note": 76,
      "start": 33.2032,
      "duration": 0.1817,
      "velocity": 127,
      "chip": "ym2612"
    },
    {
      "channel": 0,
      "note": 64,
      "start": 33.4014,
      "duration": 0.3832,
      "velocity": 102,
      "chip": "ym2612"
    },
    {
      "channel": 1,
      "note": 93,
      "start": 33.4016,
      "duration": 0.1829,
      "velocity": 70,
      "chip": "ym2612"
    },
    {
      "channel": 2,
      "note": 42,
      "start": 33.4033,
      "duration": 0.0815,
      "velocity": 127,
      "chip": "ym2612"
    },
    {
      "channel": 2,
      "note": 30,
      "start": 33.5029,
      "duration": 0.0818,
      "velocity": 127,
      "chip": "ym2612"
    },
    {
      "channel": 1,
      "note": 92,
      "start": 33.6014,
      "duration": 0.1833,
      "velocity": 70,
      "chip": "ym2612"
    },
    {
      "channel": 2,
      "note": 76,
      "start": 33.6032,
      "duration": 0.1817,
      "velocity": 127,
      "chip": "ym2612"
    },
    {
      "channel": 0,
      "note": 59,
      "start": 33.8014,
      "duration": 0.1831,
      "velocity": 102,
      "chip": "ym2612"
    },
    {
      "channel": 1,
      "note": 83,
      "start": 33.8016,
      "duration": 0.1829,
      "velocity": 70,
      "chip": "ym2612"
    },
    {
      "channel": 2,
      "note": 30,
      "start": 33.8033,
      "duration": 0.0814,
      "velocity": 127,
      "chip": "ym2612"
    },
    {
      "channel": 2,
      "note": 76,
      "start": 33.9014,
      "duration": 0.0834,
      "velocity": 127,
      "chip": "ym2612"
    },
    {
      "channel": 0,
      "note": 59,
      "start": 34.0014,
      "duration": 0.1831,
      "velocity": 102,
      "chip": "ym2612"
    },
    {
      "channel": 1,
      "note": 86,
      "start": 34.0017,
      "duration": 0.7829,
      "velocity": 70,
      "chip": "ym2612"
    },
    {
      "channel": 2,
      "note": 76,
      "start": 34.0033,
      "duration": 0.1814,
      "velocity": 127,
      "chip": "ym2612"
    },
    {
      "channel": 0,
      "note": 57,
      "start": 34.2013,
      "duration": 0.1832,
      "velocity": 102,
      "chip": "ym2612"
    },
    {
      "channel": 2,
      "note": 42,
      "start": 34.2032,
      "duration": 0.0816,
      "velocity": 127,
      "chip": "ym2612"
    },
    {
      "channel": 2,
      "note": 76,
      "start": 34.3015,
      "duration": 0.0833,
      "velocity": 127,
      "chip": "ym2612"
    },
    {
      "channel": 0,
      "note": 54,
      "start": 34.4014,
      "duration": 0.1831,
      "velocity": 102,
      "chip": "ym2612"
    },
    {
      "channel": 2,
      "note": 76,
      "start": 34.4033,
      "duration": 0.1815,
      "velocity": 127,
      "chip": "ym2612"
    },
    {
      "channel": 0,
      "note": 51,
      "start": 34.6013,
      "duration": 0.1832,
      "velocity": 102,
      "chip": "ym2612"
    },
    {
      "channel": 2,
      "note": 30,
      "start": 34.6017,
      "duration": 0.083,
      "velocity": 127,
      "chip": "ym2612"
    },
    {
      "channel": 2,
      "note": 30,
      "start": 34.7029,
      "duration": 0.0819,
      "velocity": 127,
      "chip": "ym2612"
    },
    {
      "channel": 0,
      "note": 52,
      "start": 34.8014,
      "duration": 0.1832,
      "velocity": 102,
      "chip": "ym2612"
    },
    {
      "channel": 1,
      "note": 88,
      "start": 34.8016,
      "duration": 0.1831,
      "velocity": 70,
      "chip": "ym2612"
    },
    {
      "channel": 2,
      "note": 76,
      "start": 34.8033,
      "duration": 0.1816,
      "velocity": 127,
      "chip": "ym2612"
    },
    {
      "channel": 0,
      "note": 53,
      "start": 35.0014,
      "duration": 0.1832,
      "velocity": 102,
      "chip": "ym2612"
    },
    {
      "channel": 1,
      "note": 90,
      "start": 35.0016,
      "duration": 1.3822,
      "velocity": 70,
      "chip": "ym2612"
    },
    {
      "channel": 2,
      "note": 42,
      "start": 35.0033,
      "duration": 0.0814,
      "velocity": 127,
      "chip": "ym2612"
    },
    {
      "channel": 2,
      "note": 30,
      "start": 35.1028,
      "duration": 0.082,
      "velocity": 127,
      "chip": "ym2612"
    },
    {
      "channel": 0,
      "note": 54,
      "start": 35.2013,
      "duration": 0.1833,
      "velocity": 102,
      "chip": "ym2612"
    },
    {
      "channel": 2,
      "note": 76,
      "start": 35.2032,
      "duration": 0.1817,
      "velocity": 127,
      "chip": "ym2612"
    },
    {
      "channel": 0,
      "note": 57,
      "start": 35.4013,
      "duration": 0.1833,
      "velocity": 102,
      "chip": "ym2612"
    },
    {
      "channel": 2,
      "note": 30,
      "start": 35.4032,
      "duration": 0.0816,
      "velocity": 127,
      "chip": "ym2612"
    },
    {
      "channel": 2,
      "note": 76,
      "start": 35.5015,
      "duration": 0.0833,
      "velocity": 127,
      "chip": "ym2612"
    },
    {
      "channel": 0,
      "note": 69,
      "start": 35.6013,
      "duration": 0.1833,
      "velocity": 102,
      "chip": "ym2612"
    },
    {
      "channel": 2,
      "note": 76,
      "start": 35.6032,
      "duration": 0.1817,
      "velocity": 127,
      "chip": "ym2612"
    },
    {
      "channel": 0,
      "note": 69,
      "start": 35.8014,
      "duration": 0.1831,
      "velocity": 102,
      "chip": "ym2612"
    },
    {
      "channel": 2,
      "note": 42,
      "start": 35.8032,
      "duration": 0.1816,
      "velocity": 127,
      "chip": "ym2612"
    },
    {
      "channel": 0,
      "note": 67,
      "start": 36.0012,
      "duration": 0.5826,
      "velocity": 102,
      "chip": "ym2612"
    },
    {
      "channel": 2,
      "note": 30,
      "start": 36.0017,
      "duration": 0.1822,
      "velocity": 127,
      "chip": "ym2612"
    },
    {
      "channel": 2,
      "note": 30,
      "start": 36.2022,
      "duration": 0.0818,
      "velocity": 127,
      "chip": "ym2612"
    },
    {
      "channel": 2,
      "note": 76,
      "start": 36.3007,
      "duration": 0.0833,
      "velocity": 127,
      "chip": "ym2612"
    },
    {
      "channel": 1,
      "note": 88,
      "start": 36.4007,
      "duration": 0.1833,
      "velocity": 70,
      "chip": "ym2612"
    },
    {
      "channel": 2,
      "note": 76,
      "start": 36.4024,
      "duration": 0.1817,
      "velocity": 127,
      "chip": "ym2612"
    },
    {
      "channel": 0,
      "note": 69,
      "start": 36.6006,
      "duration": 0.3858,
      "velocity": 102,
      "chip": "ym2612"
    },
    {
      "channel": 1,
      "note": 86,
      "start": 36.6009,
      "duration": 0.1841,
      "velocity": 70,
      "chip": "ym2612"
    },
    {
      "channel": 2,
      "note": 42,
      "start": 36.6026,
      "duration": 0.0826,
      "velocity": 127,
      "chip": "ym2612"
    },
    {
      "channel": 2,
      "note": 30,
      "start": 36.7033,
      "duration": 0.0819,
      "velocity": 127,
      "chip": "ym2612"
    },
    {
      "channel": 1,
      "note": 85,
      "start": 36.8018,
      "duration": 0.3847,
      "velocity": 70,
      "chip": "ym2612"
    },
    {
      "channel": 2,
      "note": 76,
      "start": 36.8035,
      "duration": 0.1832,
      "velocity": 127,
      "chip": "ym2612"
    },
    {
      "channel": 0,
      "note": 54,
      "start": 37.0032,
      "duration": 0.1832,
      "velocity": 102,
      "chip": "ym2612"
    },
    {
      "channel": 2,
      "note": 30,
      "start": 37.005,
      "duration": 0.0815,
      "velocity": 127,
      "chip": "ym2612"
    },
    {
      "channel": 2,
      "note": 76,
      "start": 37.1033,
      "duration": 0.0833,
      "velocity": 127,
      "chip": "ym2612"
    },
    {
      "channel": 0,
      "note": 66,
      "start": 37.2032,
      "duration": 0.1832,
      "velocity": 102,
      "chip": "ym2612"
    },
    {
      "channel": 1,
      "note": 86,
      "start": 37.2035,
      "duration": 0.183,
      "velocity": 70,
      "chip": "ym2612"
    },
    {
      "channel": 2,
      "note": 76,
      "start": 37.2051,
      "duration": 0.1815,
      "velocity": 127,
      "chip": "ym2612"
    },
    {
      "channel": 0,
      "note": 64,
      "start": 37.4032,
      "duration": 0.1818,
      "velocity": 102,
      "chip": "ym2612"
    },
    {
      "channel": 1,
      "note": 85,
      "start": 37.4035,
      "duration": 1.3815,
      "velocity": 70,
      "chip": "ym2612"
    },
    {
      "channel": 2,
      "note": 42,
      "start": 37.4051,
      "duration": 0.08,
      "velocity": 127,
      "chip": "ym2612"
    },
    {
      "channel": 2,
      "note": 76,
      "start": 37.5018,
      "duration": 0.0834,
      "velocity": 127,
      "chip": "ym2612"
    },
    {
      "channel": 0,
      "note": 61,
      "start": 37.6018,
      "duration": 0.1832,
      "velocity": 102,
      "chip": "ym2612"
    },
    {
      "channel": 2,
      "note": 76,
      "start": 37.6037,
      "duration": 0.1816,
      "velocity": 127,
      "chip": "ym2612"
    },
    {
      "channel": 0,
      "note": 66,
      "start": 37.8018,
      "duration": 0.1845,
      "velocity": 102,
      "chip": "ym2612"
    },
    {
      "channel": 2,
      "note": 30,
      "start": 37.8022,
      "duration": 0.0829,
      "velocity": 127,
      "chip": "ym2612"
    },
    {
      "channel": 2,
      "note": 30,
      "start": 37.9033,
      "duration": 0.0833,
      "velocity": 127,
      "chip": "ym2612"
    },
    {
      "channel": 0,
      "note": 59,
      "start": 38.0032,
      "duration": 0.1832,
      "velocity": 102,
      "chip": "ym2612"
    },
    {
      "channel": 2,
      "note": 76,
      "start": 38.005,
      "duration": 0.1816,
      "velocity": 127,
      "chip": "ym2612"
    },
    {
      "channel": 0,
      "note": 60,
      "start": 38.2031,
      "duration": 0.1833,
      "velocity": 102,
      "chip": "ym2612"
    },
    {
      "channel": 2,
      "note": 42,
      "start": 38.2049,
      "duration": 0.0816,
      "velocity": 127,
      "chip": "ym2612"
    },
    {
      "channel": 2,
      "note": 30,
      "start": 38.3047,
      "duration": 0.0819,
      "velocity": 127,
      "chip": "ym2612"
    },
    {
      "channel": 0,
      "note": 61,
      "start": 38.4032,
      "duration": 0.1817,
      "velocity": 102,
      "chip": "ym2612"
    },
    {
      "channel": 2,
      "note": 76,
      "start": 38.405,
      "duration": 0.1802,
      "velocity": 127,
      "chip": "ym2612"
    },
    {
      "channel": 0,
      "note": 52,
      "start": 38.6018,
      "duration": 0.1831,
      "velocity": 102,
      "chip": "ym2612"
    },
    {
      "channel": 2,
      "note": 30,
      "start": 38.6037,
      "duration": 0.0815,
      "velocity": 127,
      "chip": "ym2612"
    },
    {
      "channel": 2,
      "note": 76,
      "start": 38.7019,
      "duration": 0.0833,
      "velocity": 127,
      "chip": "ym2612"
    },
    {
      "channel": 0,
      "note": 64,
      "start": 38.8019,
      "duration": 0.1831,
      "velocity": 102,
      "chip": "ym2612"
    },
    {
      "channel": 1,
      "note": 81,
      "start": 38.8021,
      "duration": 0.1829,
      "velocity": 70,
      "chip": "ym2612"
    },
    {
      "channel": 2,
      "note": 76,
      "start": 38.8038,
      "duration": 0.1815,
      "velocity": 127,
      "chip": "ym2612"
    },
    {
      "channel": 0,
      "note": 64,
      "start": 39.0017,
      "duration": 0.1845,
      "velocity": 102,
      "chip": "ym2612"
    },
    {
      "channel": 1,
      "note": 88,
      "start": 39.002,
      "duration": 0.583,
      "velocity": 70,
      "chip": "ym2612"
    },
    {
      "channel": 2,
      "note": 42,
      "start": 39.0037,
      "duration": 0.1828,
      "velocity": 127,
      "chip": "ym2612"
    },
    {
      "channel": 0,
      "note": 62,
      "start": 39.2031,
      "duration": 0.5819,
      "velocity": 102,
      "chip": "ym2612"
    },
    {
      "channel": 2,
      "note": 30,
      "start": 39.2035,
      "duration": 0.1831,
      "velocity": 127,
      "chip": "ym2612"
    },
    {
      "channel": 2,
      "note": 30,
      "start": 39.4047,
      "duration": 0.0819,
      "velocity": 127,
      "chip": "ym2612"
    },
    {
      "channel": 2,
      "note": 76,
      "start": 39.5033,
      "duration": 0.082,
      "velocity": 127,
      "chip": "ym2612"
    },
    {
      "channel": 1,
      "note": 92,
      "start": 39.6018,
      "duration": 0.1833,
      "velocity": 70,
      "chip": "ym2612"
    },
    {
      "channel": 2,
      "note": 76,
      "start": 39.6035,
      "duration": 0.1819,
      "velocity": 127,
      "chip": "ym2612"
    },
    {
      "channel": 0,
      "note": 64,
      "start": 39.8018,
      "duration": 0.3819,
      "velocity": 102,
      "chip": "ym2612"
    },
    {
      "channel": 1,
      "note": 93,
      "start": 39.8021,
      "duration": 0.1829,
      "velocity": 70,
      "chip": "ym2612"
    },
    {
      "channel": 2,
      "note": 42,
      "start": 39.8038,
      "duration": 0.0813,
      "velocity": 127,
      "chip": "ym2612"
    },
    {
      "channel": 2,
      "note": 30,
      "start": 39.9034,
      "duration": 0.0818,
      "velocity": 127,
      "chip": "ym2612"
    },
    {
      "channel": 1,
      "note": 92,
      "start": 40.0017,
      "duration": 0.1821,
      "velocity": 70,
      "chip": "ym2612"
    },
    {
      "channel": 2,
      "note": 76,
      "start": 40.0035,
      "duration": 0.1806,
      "velocity": 127,
      "chip": "ym2612"
    },
    {
      "channel": 0,
      "note": 59,
      "start": 40.2006,
      "duration": 0.1832,
      "velocity": 102,
      "chip": "ym2612"
    },
    {
      "channel": 1,
      "note": 83,
      "start": 40.2009,
      "duration": 0.1831,
      "velocity": 70,
      "chip": "ym2612"
    },
    {
      "channel": 2,
      "note": 30,
      "start": 40.2025,
      "duration": 0.0814,
      "velocity": 127,
      "chip": "ym2612"
    },
    {
      "channel": 2,
      "note": 76,
      "start": 40.3007,
      "duration": 0.0834,
      "velocity": 127,
      "chip": "ym2612"
    },
    {
      "channel": 0,
      "note": 59,
      "start": 40.4007,
      "duration": 0.1831,
      "velocity": 102,
      "chip": "ym2612"
    },
    {
      "channel": 1,
      "note": 86,
      "start": 40.4009,
      "duration": 0.7837,
      "velocity": 70,
      "chip": "ym2612"
    },
    {
      "channel": 2,
      "note": 76,
      "start": 40.4026,
      "duration": 0.1814,
      "velocity": 127,
      "chip": "ym2612"
    },
    {
      "channel": 0,
      "note": 57,
      "start": 40.6007,
      "duration": 0.184,
      "velocity": 102,
      "chip": "ym2612"
    },
    {
      "channel": 2,
      "note": 42,
      "start": 40.6025,
      "duration": 0.0824,
      "velocity": 127,
      "chip": "ym2612"
    },
    {
      "channel": 2,
      "note": 76,
      "start": 40.7016,
      "duration": 0.0833,
      "velocity": 127,
      "chip": "ym2612"
    },
    {
      "channel": 0,
      "note": 54,
      "start": 40.8014,
      "duration": 0.1833,
      "velocity": 102,
      "chip": "ym2612"
    },
    {
      "channel": 2,
      "note": 76,
      "start": 40.8033,
      "duration": 0.1817,
      "velocity": 127,
      "chip": "ym2612"
    },
    {
      "channel": 0,
      "note": 51,
      "start": 41.0014,
      "duration": 0.1831,
      "velocity": 102,
      "chip": "ym2612"
    },
    {
      "channel": 2,
      "note": 30,
      "start": 41.0019,
      "duration": 0.0829,
      "velocity": 127,
      "chip": "ym2612"
    },
    {
      "channel": 2,
      "note": 30,
      "start": 41.1032,
      "duration": 0.0817,
      "velocity": 127,
      "chip": "ym2612"
    },
    {
      "channel": 0,
      "note": 52,
      "start": 41.2014,
      "duration": 0.1832,
      "velocity": 102,
      "chip": "ym2612"
    },
    {
      "channel": 1,
      "note": 88,
      "start": 41.2016,
      "duration": 0.1831,
      "velocity": 70,
      "chip": "ym2612"
    },
    {
      "channel": 2,
      "note": 76,
      "start": 41.2033,
      "duration": 0.1815,
      "velocity": 127,
      "chip": "ym2612"
    },
    {
      "channel": 0,
      "note": 53,
      "start": 41.4014,
      "duration": 0.1831,
      "velocity": 102,
      "chip": "ym2612"
    },
    {
      "channel": 1,
      "note": 86,
      "start": 41.4016,
      "duration": 1.3831,
      "velocity": 70,
      "chip": "ym2612"
    },
    {
      "channel": 2,
      "note": 42,
      "start": 41.4033,
      "duration": 0.0813,
      "velocity": 127,
      "chip": "ym2612"
    },
    {
      "channel": 2,
      "note": 30,
      "start": 41.5029,
      "duration": 0.0818,
      "velocity": 127,
      "chip": "ym2612"
    },
    {
      "channel": 0,
      "note": 54,
      "start": 41.6014,
      "duration": 0.1833,
      "velocity": 102,
      "chip": "ym2612"
    },
    {
      "channel": 2,
      "note": 76,
      "start": 41.6032,
      "duration": 0.1817,
      "velocity": 127,
      "chip": "ym2612"
    },
    {
      "channel": 0,
      "note": 57,
      "start": 41.8015,
      "duration": 0.1831,
      "velocity": 102,
      "chip": "ym2612"
    },
    {
      "channel": 2,
      "note": 30,
      "start": 41.8034,
      "duration": 0.0815,
      "velocity": 127,
      "chip": "ym2612"
    },
    {
      "channel": 2,
      "note": 76,
      "start": 41.9015,
      "duration": 0.0833,
      "velocity": 127,
      "chip": "ym2612"
    },
    {
      "channel": 0,
      "note": 69,
      "start": 42.0015,
      "duration": 0.1831,
      "velocity": 102,
      "chip": "ym2612"
    },
    {
      "channel": 2,
      "note": 76,
      "start": 42.0034,
      "duration": 0.1815,
      "velocity": 127,
      "chip": "ym2612"
    },
    {
      "channel": 0,
      "note": 69,
      "start": 42.2014,
      "duration": 0.1831,
      "velocity": 102,
      "chip": "ym2612"
    },
    {
      "channel": 2,
      "note": 42,
      "start": 42.2033,
      "duration": 0.1815,
      "velocity": 127,
      "chip": "ym2612"
    },
    {
      "channel": 0,
      "note": 67,
      "start": 42.4012,
      "duration": 0.5835,
      "velocity": 102,
      "chip": "ym2612"
    },
    {
      "channel": 2,
      "note": 30,
      "start": 42.4017,
      "duration": 0.1831,
      "velocity": 127,
      "chip": "ym2612"
    },
    {
      "channel": 2,
      "note": 30,
      "start": 42.6029,
      "duration": 0.0817,
      "velocity": 127,
      "chip": "ym2612"
    },
    {
      "channel": 2,
      "note": 76,
      "start": 42.7015,
      "duration": 0.0834,
      "velocity": 127,
      "chip": "ym2612"
    },
    {
      "channel": 1,
      "note": 85,
      "start": 42.8016,
      "duration": 0.1832,
      "velocity": 70,
      "chip": "ym2612"
    },
    {
      "channel": 2,
      "note": 76,
      "start": 42.8033,
      "duration": 0.1817,
      "velocity": 127,
      "chip": "ym2612"
    },
    {
      "channel": 0,
      "note": 69,
      "start": 43.0015,
      "duration": 0.383,
      "velocity": 102,
      "chip": "ym2612"
    },
    {
      "channel": 1,
      "note": 83,
      "start": 43.0018,
      "duration": 0.1829,
      "velocity": 70,
      "chip": "ym2612"
    },
    {
      "channel": 2,
      "note": 42,
      "start": 43.0035,
      "duration": 0.0814,
      "velocity": 127,
      "chip": "ym2612"
    },
    {
      "channel": 2,
      "note": 30,
      "start": 43.103,
      "duration": 0.0819,
      "velocity": 127,
      "chip": "ym2612"
    },
    {
      "channel": 1,
      "note": 81,
      "start": 43.2016,
      "duration": 1.9831,
      "velocity": 70,
      "chip": "ym2612"
    },
    {
      "channel": 2,
      "note": 76,
      "start": 43.2033,
      "duration": 0.1815,
      "velocity": 127,
      "chip": "ym2612"
    },
    {
      "channel": 0,
      "note": 54,
      "start": 43.4014,
      "duration": 0.1831,
      "velocity": 102,
      "chip": "ym2612"
    },
    {
      "channel": 2,
      "note": 30,
      "start": 43.4033,
      "duration": 0.0815,
      "velocity": 127,
      "chip": "ym2612"
    },
    {
      "channel": 2,
      "note": 76,
      "start": 43.5015,
      "duration": 0.0833,
      "velocity": 127,
      "chip": "ym2612"
    },
    {
      "channel": 0,
      "note": 66,
      "start": 43.6013,
      "duration": 0.1832,
      "velocity": 102,
      "chip": "ym2612"
    },
    {
      "channel": 2,
      "note": 76,
      "start": 43.6032,
      "duration": 0.1816,
      "velocity": 127,
      "chip": "ym2612"
    },
    {
      "channel": 0,
      "note": 64,
      "start": 43.8014,
      "duration": 0.1832,
      "velocity": 102,
      "chip": "ym2612"
    },
    {
      "channel": 2,
      "note": 42,
      "start": 43.8033,
      "duration": 0.0816,
      "velocity": 127,
      "chip": "ym2612"
    },
    {
      "channel": 2,
      "note": 76,
      "start": 43.9015,
      "duration": 0.0833,
      "velocity": 127,
      "chip": "ym2612"
    },
    {
      "channel": 0,
      "note": 61,
      "start": 44.0015,
      "duration": 0.1823,
      "velocity": 102,
      "chip": "ym2612"
    },
    {
      "channel": 2,
      "note": 76,
      "start": 44.0034,
      "duration": 0.1807,
      "velocity": 127,
      "chip": "ym2612"
    },
    {
      "channel": 0,
      "note": 66,
      "start": 44.2005,
      "duration": 0.1833,
      "velocity": 102,
      "chip": "ym2612"
    },
    {
      "channel": 2,
      "note": 30,
      "start": 44.201,
      "duration": 0.0829,
      "velocity": 127,
      "chip": "ym2612"
    },
    {
      "channel": 2,
      "note": 30,
      "start": 44.3021,
      "duration": 0.0819,
      "velocity": 127,
      "chip": "ym2612"
    },
    {
      "channel": 0,
      "note": 59,
      "start": 44.4005,
      "duration": 0.1831,
      "velocity": 102,
      "chip": "ym2612"
    },
    {
      "channel": 2,
      "note": 76,
      "start": 44.4024,
      "duration": 0.1815,
      "velocity": 127,
      "chip": "ym2612"
    },
    {
      "channel": 0,
      "note": 60,
      "start": 44.6006,
      "duration": 0.1853,
      "velocity": 102,
      "chip": "ym2612"
    },
    {
      "channel": 2,
      "note": 42,
      "start": 44.6024,
      "duration": 0.0837,
      "velocity": 127,
      "chip": "ym2612"
    },
    {
      "channel": 2,
      "note": 30,
      "start": 44.7043,
      "duration": 0.0818,
      "velocity": 127,
      "chip": "ym2612"
    },
    {
      "channel": 0,
      "note": 61,
      "start": 44.8028,
      "duration": 0.1818,
      "velocity": 102,
      "chip": "ym2612"
    },
    {
      "channel": 2,
      "note": 76,
      "start": 44.8046,
      "duration": 0.1802,
      "velocity": 127,
      "chip": "ym2612"
    },
    {
      "channel": 0,
      "note": 49,
      "start": 45.0013,
      "duration": 0.1833,
      "velocity": 102,
      "chip": "ym2612"
    },
    {
      "channel": 2,
      "note": 30,
      "start": 45.0032,
      "duration": 0.0814,
      "velocity": 127,
      "chip": "ym2612"
    },
    {
      "channel": 2,
      "note": 76,
      "start": 45.1014,
      "duration": 0.0835,
      "velocity": 127,
      "chip": "ym2612"
    },
    {
      "channel": 0,
      "note": 61,
      "start": 45.2014,
      "duration": 0.1831,
      "velocity": 102,
      "chip": "ym2612"
    },
    {
      "channel": 1,
      "note": 84,
      "start": 45.2016,
      "duration": 0.1829,
      "velocity": 70,
      "chip": "ym2612"
    },
    {
      "channel": 2,
      "note": 76,
      "start": 45.2033,
      "duration": 0.1814,
      "velocity": 127,
      "chip": "ym2612"
    },
    {
      "channel": 0,
      "note": 61,
      "start": 45.4028,
      "duration": 0.1831,
      "velocity": 102,
      "chip": "ym2612"
    },
    {
      "channel": 1,
      "note": 88,
      "start": 45.403,
      "duration": 0.5815,
      "velocity": 70,
      "chip": "ym2612"
    },
    {
      "channel": 2,
      "note": 42,
      "start": 45.4047,
      "duration": 0.1814,
      "velocity": 127,
      "chip": "ym2612"
    },
    {
      "channel": 0,
      "note": 59,
      "start": 45.6028,
      "duration": 0.5817,
      "velocity": 102,
      "chip": "ym2612"
    },
    {
      "channel": 2,
      "note": 30,
      "start": 45.6032,
      "duration": 0.1829,
      "velocity": 127,
      "chip": "ym2612"
    },
    {
      "channel": 2,
      "note": 30,
      "start": 45.8043,
      "duration": 0.0819,
      "velocity": 127,
      "chip": "ym2612"
    },
    {
      "channel": 2,
      "note": 76,
      "start": 45.9028,
      "duration": 0.0819,
      "velocity": 127,
      "chip": "ym2612"
    },
    {
      "channel": 1,
      "note": 92,
      "start": 46.0014,
      "duration": 0.1832,
      "velocity": 70,
      "chip": "ym2612"
    },
    {
      "channel": 2,
      "note": 76,
      "start": 46.0032,
      "duration": 0.1817,
      "velocity": 127,
      "chip": "ym2612"
    },
    {
      "channel": 0,
      "note": 61,
      "start": 46.2014,
      "duration": 0.3845,
      "velocity": 102,
      "chip": "ym2612"
    },
    {
      "channel": 1,
      "note": 93,
      "start": 46.2016,
      "duration": 0.1829,
      "velocity": 70,
      "chip": "ym2612"
    },
    {
      "channel": 2,
      "note": 42,
      "start": 46.2033,
      "duration": 0.0813,
      "velocity": 127,
      "chip": "ym2612"
    },
    {
      "channel": 2,
      "note": 30,
      "start": 46.3029,
      "duration": 0.0818,
      "velocity": 127,
      "chip": "ym2612"
    },
    {
      "channel": 1,
      "note": 92,
      "start": 46.4013,
      "duration": 0.1847,
      "velocity": 70,
      "chip": "ym2612"
    },
    {
      "channel": 2,
      "note": 76,
      "start": 46.403,
      "duration": 0.1832,
      "velocity": 127,
      "chip": "ym2612"
    },
    {
      "channel": 0,
      "note": 54,
      "start": 46.6027,
      "duration": 0.1832,
      "velocity": 102,
      "chip": "ym2612"
    },
    {
      "channel": 1,
      "note": 88,
      "start": 46.6029,
      "duration": 0.1831,
      "velocity": 70,
      "chip": "ym2612"
    },
    {
      "channel": 2,
      "note": 30,
      "start": 46.6047,
      "duration": 0.0814,
      "velocity": 127,
      "chip": "ym2612"
    },
    {
      "channel": 2,
      "note": 76,
      "start": 46.7028,
      "duration": 0.0834,
      "velocity": 127,
      "chip": "ym2612"
    },
    {
      "channel": 0,
      "note": 66,
      "start": 46.8027,
      "duration": 0.1832,
      "velocity": 102,
      "chip": "ym2612"
    },
    {
      "channel": 1,
      "note": 92,
      "start": 46.8029,
      "duration": 0.783,
      "velocity": 70,
      "chip": "ym2612"
    },
    {
      "channel": 2,
      "note": 76,
      "start": 46.8047,
      "duration": 0.1815,
      "velocity": 127,
      "chip": "ym2612"
    },
    {
      "channel": 0,
      "note": 64,
      "start": 47.0013,
      "duration": 0.1833,
      "velocity": 102,
      "chip": "ym2612"
    },
    {
      "channel": 2,
      "note": 42,
      "start": 47.0032,
      "duration": 0.0815,
      "velocity": 127,
      "chip": "ym2612"
    },
    {
      "channel": 2,
      "note": 76,
      "start": 47.1014,
      "duration": 0.0835,
      "velocity": 127,
      "chip": "ym2612"
    },
    {
      "channel": 0,
      "note": 61,
      "start": 47.2013,
      "duration": 0.1832,
      "velocity": 102,
      "chip": "ym2612"
    },
    {
      "channel": 2,
      "note": 76,
      "start": 47.2032,
      "duration": 0.1816,
      "velocity": 127,
      "chip": "ym2612"
    },
    {
      "channel": 0,
      "note": 66,
      "start": 47.4013,
      "duration": 0.1846,
      "velocity": 102,
      "chip": "ym2612"
    },
    {
      "channel": 2,
      "note": 30,
      "start": 47.4017,
      "duration": 0.083,
      "velocity": 127,
      "chip": "ym2612"
    },
    {
      "channel": 2,
      "note": 30,
      "start": 47.5028,
      "duration": 0.0834,
      "velocity": 127,
      "chip": "ym2612"
    },
    {
      "channel": 0,
      "note": 59,
      "start": 47.6027,
      "duration": 0.1832,
      "velocity": 102,
      "chip": "ym2612"
    },
    {
      "channel": 1,
      "note": 93,
      "start": 47.6029,
      "duration": 0.183,
      "velocity": 70,
      "chip": "ym2612"
    },
    {
      "channel": 2,
      "note": 76,
      "start": 47.6047,
      "duration": 0.1815,
      "velocity": 127,
      "chip": "ym2612"
    },
    {
      "channel": 0,
      "note": 60,
      "start": 47.8027,
      "duration": 0.1832,
      "velocity": 102,
      "chip": "ym2612"
    },
    {
      "channel": 1,
      "note": 92,
      "start": 47.8029,
      "duration": 0.1831,
      "velocity": 70,
      "chip": "ym2612"
    },
    {
      "channel": 2,
      "note": 42,
      "start": 47.8047,
      "duration": 0.0814,
      "velocity": 127,
      "chip": "ym2612"
    },
    {
      "channel": 2,
      "note": 30,
      "start": 47.9043,
      "duration": 0.082,
      "velocity": 127,
      "chip": "ym2612"
    },
    {
      "channel": 0,
      "note": 61,
      "start": 48.0028,
      "duration": 0.181,
      "velocity": 102,
      "chip": "ym2612"
    },
    {
      "channel": 1,
      "note": 88,
      "start": 48.003,
      "duration": 1.1816,
      "velocity": 70,
      "chip": "ym2612"
    },
    {
      "channel": 2,
      "note": 76,
      "start": 48.0047,
      "duration": 0.1793,
      "velocity": 127,
      "chip": "ym2612"
    },
    {
      "channel": 0,
      "note": 57,
      "start": 48.2005,
      "duration": 0.1833,
      "velocity": 102,
      "chip": "ym2612"
    },
    {
      "channel": 2,
      "note": 30,
      "start": 48.2024,
      "duration": 0.0816,
      "velocity": 127,
      "chip": "ym2612"
    },
    {
      "channel": 2,
      "note": 76,
      "start": 48.3007,
      "duration": 0.0833,
      "velocity": 127,
      "chip": "ym2612"
    },
    {
      "channel": 0,
      "note": 69,
      "start": 48.4005,
      "duration": 0.1831,
      "velocity": 102,
      "chip": "ym2612"
    },
    {
      "channel": 2,
      "note": 76,
      "start": 48.4024,
      "duration": 0.1815,
      "velocity": 127,
      "chip": "ym2612"
    },
    {
      "channel": 0,
      "note": 69,
      "start": 48.6006,
      "duration": 0.1839,
      "velocity": 102,
      "chip": "ym2612"
    },
    {
      "channel": 2,
      "note": 42,
      "start": 48.6024,
      "duration": 0.1823,
      "velocity": 127,
      "chip": "ym2612"
    },
    {
      "channel": 0,
      "note": 67,
      "start": 48.8013,
      "duration": 0.5833,
      "velocity": 102,
      "chip": "ym2612"
    },
    {
      "channel": 2,
      "note": 30,
      "start": 48.8017,
      "duration": 0.1829,
      "velocity": 127,
      "chip": "ym2612"
    },
    {
      "channel": 2,
      "note": 30,
      "start": 49.0029,
      "duration": 0.0817,
      "velocity": 127,
      "chip": "ym2612"
    },
    {
      "channel": 2,
      "note": 76,
      "start": 49.1014,
      "duration": 0.0835,
      "velocity": 127,
      "chip": "ym2612"
    },
    {
      "channel": 1,
      "note": 93,
      "start": 49.2014,
      "duration": 0.1833,
      "velocity": 70,
      "chip": "ym2612"
    },
    {
      "channel": 2,
      "note": 76,
      "start": 49.2031,
      "duration": 0.1818,
      "velocity": 127,
      "chip": "ym2612"
    },
    {
      "channel": 0,
      "note": 69,
      "start": 49.4014,
      "duration": 0.383,
      "velocity": 102,
      "chip": "ym2612"
    },
    {
      "channel": 1,
      "note": 92,
      "start": 49.4017,
      "duration": 0.1829,
      "velocity": 70,
      "chip": "ym2612"
    },
    {
      "channel": 2,
      "note": 42,
      "start": 49.4033,
      "duration": 0.0814,
      "velocity": 127,
      "chip": "ym2612"
    },
    {
      "channel": 2,
      "note": 30,
      "start": 49.5029,
      "duration": 0.082,
      "velocity": 127,
      "chip": "ym2612"
    },
    {
      "channel": 1,
      "note": 88,
      "start": 49.6014,
      "duration": 0.3833,
      "velocity": 70,
      "chip": "ym2612"
    },
    {
      "channel": 2,
      "note": 76,
      "start": 49.6031,
      "duration": 0.1816,
      "velocity": 127,
      "chip": "ym2612"
    },
    {
      "channel": 0,
      "note": 59,
      "start": 49.8014,
      "duration": 0.1832,
      "velocity": 102,
      "chip": "ym2612"
    },
    {
      "channel": 2,
      "note": 30,
      "start": 49.8032,
      "duration": 0.0814,
      "velocity": 127,
      "chip": "ym2612"
    },
    {
      "channel": 2,
      "note": 76,
      "start": 49.9014,
      "duration": 0.0835,
      "velocity": 127,
      "chip": "ym2612"
    },
    {
      "channel": 0,
      "note": 59,
      "start": 50.0014,
      "duration": 0.1832,
      "velocity": 102,
      "chip": "ym2612"
    },
    {
      "channel": 1,
      "note": 95,
      "start": 50.0016,
      "duration": 0.1831,
      "velocity": 70,
      "chip": "ym2612"
    },
    {
      "channel": 2,
      "note": 76,
      "start": 50.0033,
      "duration": 0.1815,
      "velocity": 127,
      "chip": "ym2612"
    },
    {
      "channel": 0,
      "note": 57,
      "start": 50.2013,
      "duration": 0.1833,
      "velocity": 102,
      "chip": "ym2612"
    },
    {
      "channel": 1,
      "note": 93,
      "start": 50.2015,
      "duration": 0.1831,
      "velocity": 70,
      "chip": "ym2612"
    },
    {
      "channel": 2,
      "note": 42,
      "start": 50.2018,
      "duration": 0.1831,
      "velocity": 127,
      "chip": "ym2612"
    },
    {
      "channel": 0,
      "note": 54,
      "start": 50.4014,
      "duration": 0.0832,
      "velocity": 102,
      "chip": "ym2612"
    },
    {
      "channel": 1,
      "note": 90,
      "start": 50.4016,
      "duration": 0.083,
      "velocity": 70,
      "chip": "ym2612"
    },
    {
      "channel": 2,
      "note": 42,
      "start": 50.4019,
      "duration": 0.0829,
      "velocity": 127,
      "chip": "ym2612"
    },
    {
      "channel": 0,
      "note": 50,
      "start": 50.5014,
      "duration": 0.0832,
      "velocity": 102,
      "chip": "ym2612"
    },
    {
      "channel": 1,
      "note": 86,
      "start": 50.5016,
      "duration": 0.083,
      "velocity": 70,
      "chip": "ym2612"
    },
    {
      "channel": 2,
      "note": 42,
      "start": 50.5019,
      "duration": 0.0829,
      "velocity": 127,
      "chip": "ym2612"
    },
    {
      "channel": 0,
      "note": 52,
      "start": 50.6014,
      "duration": 0.0832,
      "velocity": 102,
      "chip": "ym2612"
    },
    {
      "channel": 1,
      "note": 88,
      "start": 50.6016,
      "duration": 0.083,
      "velocity": 70,
      "chip": "ym2612"
    },
    {
      "channel": 2,
      "note": 42,
      "start": 50.6019,
      "duration": 0.0829,
      "velocity": 127,
      "chip": "ym2612"
    },
    {
      "channel": 0,
      "note": 50,
      "start": 50.7014,
      "duration": 0.0831,
      "velocity": 102,
      "chip": "ym2612"
    },
    {
      "channel": 1,
      "note": 86,
      "start": 50.7016,
      "duration": 0.0829,
      "velocity": 70,
      "chip": "ym2612"
    },
    {
      "channel": 2,
      "note": 42,
      "start": 50.7019,
      "duration": 0.0829,
      "velocity": 127,
      "chip": "ym2612"
    },
    {
      "channel": 0,
      "note": 47,
      "start": 50.8013,
      "duration": 0.0833,
      "velocity": 102,
      "chip": "ym2612"
    },
    {
      "channel": 1,
      "note": 83,
      "start": 50.8015,
      "duration": 0.0832,
      "velocity": 70,
      "chip": "ym2612"
    },
    {
      "channel": 2,
      "note": 42,
      "start": 50.8018,
      "duration": 0.0831,
      "velocity": 127,
      "chip": "ym2612"
    },
    {
      "channel": 0,
      "note": 50,
      "start": 50.9012,
      "duration": 0.0833,
      "velocity": 102,
      "chip": "ym2612"
    },
    {
      "channel": 1,
      "note": 86,
      "start": 50.9015,
      "duration": 0.0832,
      "velocity": 70,
      "chip": "ym2612"
    },
    {
      "channel": 2,
      "note": 42,
      "start": 50.9017,
      "duration": 0.0831,
      "velocity": 127,
      "chip": "ym2612"
    },
    {
      "channel": 0,
      "note": 51,
      "start": 51.0014,
      "duration": 0.1831,
      "velocity": 102,
      "chip": "ym2612"
    },
    {
      "channel": 1,
      "note": 87,
      "start": 51.0017,
      "duration": 0.1829,
      "velocity": 70,
      "chip": "ym2612"
    },
    {
      "channel": 2,
      "note": 42,
      "start": 51.0019,
      "duration": 0.1829,
      "velocity": 127,
      "chip": "ym2612"
    },
    {
      "channel": 0,
      "note": 52,
      "start": 51.2031,
      "duration": 2.1814,
      "velocity": 102,
      "chip": "ym2612"
    },
    {
      "channel": 1,
      "note": 88,
      "start": 51.2047,
      "duration": 2.98,
      "velocity": 102,
      "chip": "ym2612"
    },
    {
      "channel": 2,
      "note": 42,
      "start": 51.2064,
      "duration": 0.1782,
      "velocity": 127,
      "chip": "ym2612"
    },
    {
      "channel": 2,
      "note": 30,
      "start": 51.4028,
      "duration": 0.0818,
      "velocity": 127,
      "chip": "ym2612"
    },
    {
      "channel": 2,
      "note": 76,
      "start": 51.5012,
      "duration": 0.0833,
      "velocity": 127,
      "chip": "ym2612"
    },
    {
      "channel": 2,
      "note": 76,
      "start": 51.6028,
      "duration": 0.1818,
      "velocity": 127,
      "chip": "ym2612"
    },
    {
      "channel": 2,
      "note": 42,
      "start": 51.8028,
      "duration": 0.1819,
      "velocity": 127,
      "chip": "ym2612"
    },
    {
      "channel": 2,
      "note": 30,
      "start": 52.0014,
      "duration": 0.1824,
      "velocity": 127,
      "chip": "ym2612"
    },
    {
      "channel": 2,
      "note": 30,
      "start": 52.2021,
      "duration": 0.0816,
      "velocity": 127,
      "chip": "ym2612"
    },
    {
      "channel": 2,
      "note": 76,
      "start": 52.3005,
      "duration": 0.0833,
      "velocity": 127,
      "chip": "ym2612"
    },
    {
      "channel": 2,
      "note": 76,
      "start": 52.402,
      "duration": 0.1818,
      "velocity": 127,
      "chip": "ym2612"
    },
    {
      "channel": 2,
      "note": 42,
      "start": 52.6021,
      "duration": 0.0824,
      "velocity": 127,
      "chip": "ym2612"
    },
    {
      "channel": 2,
      "note": 30,
      "start": 52.7028,
      "duration": 0.0818,
      "velocity": 127,
      "chip": "ym2612"
    },
    {
      "channel": 2,
      "note": 76,
      "start": 52.8028,
      "duration": 0.1819,
      "velocity": 127,
      "chip": "ym2612"
    },
    {
      "channel": 2,
      "note": 30,
      "start": 53.0029,
      "duration": 0.0817,
      "velocity": 127,
      "chip": "ym2612"
    },
    {
      "channel": 2,
      "note": 76,
      "start": 53.1013,
      "duration": 0.0833,
      "velocity": 127,
      "chip": "ym2612"
    },
    {
      "channel": 2,
      "note": 76,
      "start": 53.2028,
      "duration": 0.1818,
      "velocity": 127,
      "chip": "ym2612"
    },
    {
      "channel": 0,
      "note": 52,
      "start": 53.4014,
      "duration": 0.3831,
      "velocity": 102,
      "chip": "ym2612"
    },
    {
      "channel": 2,
      "note": 42,
      "start": 53.4032,
      "duration": 0.0816,
      "velocity": 127,
      "chip": "ym2612"
    },
    {
      "channel": 2,
      "note": 76,
      "start": 53.5014,
      "duration": 0.0831,
      "velocity": 127,
      "chip": "ym2612"
    },
    {
      "channel": 2,
      "note": 76,
      "start": 53.6028,
      "duration": 0.1818,
      "velocity": 127,
      "chip": "ym2612"
    },
    {
      "channel": 0,
      "note": 55,
      "start": 53.8014,
      "duration": 0.1832,
      "velocity": 102,
      "chip": "ym2612"
    },
    {
      "channel": 2,
      "note": 30,
      "start": 53.8017,
      "duration": 0.0829,
      "velocity": 127,
      "chip": "ym2612"
    },
    {
      "channel": 2,
      "note": 30,
      "start": 53.9028,
      "duration": 0.0819,
      "velocity": 127,
      "chip": "ym2612"
    },
    {
      "channel": 0,
      "note": 52,
      "start": 54.0013,
      "duration": 0.1833,
      "velocity": 102,
      "chip": "ym2612"
    },
    {
      "channel": 2,
      "note": 76,
      "start": 54.003,
      "duration": 0.1818,
      "velocity": 127,
      "chip": "ym2612"
    },
    {
      "channel": 0,
      "note": 54,
      "start": 54.2014,
      "duration": 0.1831,
      "velocity": 102,
      "chip": "ym2612"
    },
    {
      "channel": 1,
      "note": 52,
      "start": 54.2017,
      "duration": 0.183,
      "velocity": 102,
      "chip": "ym2612"
    },
    {
      "channel": 2,
      "note": 42,
      "start": 54.2034,
      "duration": 0.0811,
      "velocity": 127,
      "chip": "ym2612"
    },
    {
      "channel": 2,
      "note": 30,
      "start": 54.3029,
      "duration": 0.0819,
      "velocity": 127,
      "chip": "ym2612"
    },
    {
      "channel": 0,
      "note": 50,
      "start": 54.4015,
      "duration": 3.1834,
      "velocity": 102,
      "chip": "ym2612"
    },
    {
      "channel": 1,
      "note": 50,
      "start": 54.4033,
      "duration": 2.9817,
      "velocity": 102,
      "chip": "ym2612"
    },
    {
      "channel": 2,
      "note": 76,
      "start": 54.4049,
      "duration": 0.1796,
      "velocity": 127,
      "chip": "ym2612"
    },
    {
      "channel": 2,
      "note": 30,
      "start": 54.6028,
      "duration": 0.0818,
      "velocity": 127,
      "chip": "ym2612"
    },
    {
      "channel": 2,
      "note": 76,
      "start": 54.7012,
      "duration": 0.0833,
      "velocity": 127,
      "chip": "ym2612"
    },
    {
      "channel": 2,
      "note": 76,
      "start": 54.8028,
      "duration": 0.1819,
      "velocity": 127,
      "chip": "ym2612"
    },
    {
      "channel": 2,
      "note": 42,
      "start": 55.0028,
      "duration": 0.1817,
      "velocity": 127,
      "chip": "ym2612"
    },
    {
      "channel": 2,
      "note": 30,
      "start": 55.2013,
      "duration": 0.1833,
      "velocity": 127,
      "chip": "ym2612"
    },
    {
      "channel": 2,
      "note": 30,
      "start": 55.4028,
      "duration": 0.0818,
      "velocity": 127,
      "chip": "ym2612"
    },
    {
      "channel": 2,
      "note": 76,
      "start": 55.5014,
      "duration": 0.0832,
      "velocity": 127,
      "chip": "ym2612"
    },
    {
      "channel": 2,
      "note": 76,
      "start": 55.6028,
      "duration": 0.1818,
      "velocity": 127,
      "chip": "ym2612"
    },
    {
      "channel": 2,
      "note": 42,
      "start": 55.8028,
      "duration": 0.0818,
      "velocity": 127,
      "chip": "ym2612"
    },
    {
      "channel": 2,
      "note": 30,
      "start": 55.9028,
      "duration": 0.0818,
      "velocity": 127,
      "chip": "ym2612"
    },
    {
      "channel": 2,
      "note": 76,
      "start": 56.0028,
      "duration": 0.1811,
      "velocity": 127,
      "chip": "ym2612"
    },
    {
      "channel": 2,
      "note": 30,
      "start": 56.2021,
      "duration": 0.0818,
      "velocity": 127,
      "chip": "ym2612"
    },
    {
      "channel": 2,
      "note": 76,
      "start": 56.3006,
      "duration": 0.0832,
      "velocity": 127,
      "chip": "ym2612"
    },
    {
      "channel": 2,
      "note": 76,
      "start": 56.4021,
      "duration": 0.1817,
      "velocity": 127,
      "chip": "ym2612"
    },
    {
      "channel": 2,
      "note": 42,
      "start": 56.6021,
      "duration": 0.0818,
      "velocity": 127,
      "chip": "ym2612"
    },
    {
      "channel": 2,
      "note": 76,
      "start": 56.7031,
      "duration": 0.0833,
      "velocity": 127,
      "chip": "ym2612"
    },
    {
      "channel": 2,
      "note": 76,
      "start": 56.8047,
      "duration": 0.1817,
      "velocity": 127,
      "chip": "ym2612"
    },
    {
      "channel": 2,
      "note": 30,
      "start": 57.0032,
      "duration": 0.0818,
      "velocity": 127,
      "chip": "ym2612"
    },
    {
      "channel": 2,
      "note": 30,
      "start": 57.1032,
      "duration": 0.0818,
      "velocity": 127,
      "chip": "ym2612"
    },
    {
      "channel": 2,
      "note": 76,
      "start": 57.2033,
      "duration": 0.1818,
      "velocity": 127,
      "chip": "ym2612"
    },
    {
      "channel": 1,
      "note": 52,
      "start": 57.4018,
      "duration": 0.1832,
      "velocity": 102,
      "chip": "ym2612"
    },
    {
      "channel": 2,
      "note": 42,
      "start": 57.4035,
      "duration": 0.0815,
      "velocity": 127,
      "chip": "ym2612"
    },
    {
      "channel": 2,
      "note": 30,
      "start": 57.5032,
      "duration": 0.082,
      "velocity": 127,
      "chip": "ym2612"
    },
    {
      "channel": 0,
      "note": 52,
      "start": 57.6019,
      "duration": 2.3844,
      "velocity": 102,
      "chip": "ym2612"
    },
    {
      "channel": 1,
      "note": 50,
      "start": 57.6037,
      "duration": 2.9801,
      "velocity": 102,
      "chip": "ym2612"
    },
    {
      "channel": 2,
      "note": 76,
      "start": 57.6053,
      "duration": 0.1811,
      "velocity": 127,
      "chip": "ym2612"
    },
    {
      "channel": 2,
      "note": 30,
      "start": 57.8046,
      "duration": 0.0818,
      "velocity": 127,
      "chip": "ym2612"
    },
    {
      "channel": 2,
      "note": 76,
      "start": 57.9032,
      "duration": 0.0833,
      "velocity": 127,
      "chip": "ym2612"
    },
    {
      "channel": 2,
      "note": 76,
      "start": 58.0046,
      "duration": 0.1804,
      "velocity": 127,
      "chip": "ym2612"
    },
    {
      "channel": 2,
      "note": 42,
      "start": 58.2032,
      "duration": 0.1819,
      "velocity": 127,
      "chip": "ym2612"
    },
    {
      "channel": 2,
      "note": 30,
      "start": 58.4018,
      "duration": 0.1832,
      "velocity": 127,
      "chip": "ym2612"
    },
    {
      "channel": 2,
      "note": 30,
      "start": 58.6032,
      "duration": 0.0832,
      "velocity": 127,
      "chip": "ym2612"
    },
    {
      "channel": 2,
      "note": 76,
      "start": 58.7032,
      "duration": 0.0833,
      "velocity": 127,
      "chip": "ym2612"
    },
    {
      "channel": 2,
      "note": 76,
      "start": 58.8047,
      "duration": 0.1817,
      "velocity": 127,
      "chip": "ym2612"
    },
    {
      "channel": 2,
      "note": 42,
      "start": 59.0045,
      "duration": 0.0818,
      "velocity": 127,
      "chip": "ym2612"
    },
    {
      "channel": 2,
      "note": 30,
      "start": 59.1045,
      "duration": 0.0818,
      "velocity": 127,
      "chip": "ym2612"
    },
    {
      "channel": 2,
      "note": 76,
      "start": 59.2047,
      "duration": 0.1802,
      "velocity": 127,
      "chip": "ym2612"
    },
    {
      "channel": 2,
      "note": 30,
      "start": 59.4033,
      "duration": 0.0818,
      "velocity": 127,
      "chip": "ym2612"
    },
    {
      "channel": 2,
      "note": 76,
      "start": 59.5018,
      "duration": 0.0831,
      "velocity": 127,
      "chip": "ym2612"
    },
    {
      "channel": 2,
      "note": 76,
      "start": 59.6033,
      "duration": 0.1832,
      "velocity": 127,
      "chip": "ym2612"
    },
    {
      "channel": 2,
      "note": 42,
      "start": 59.8046,
      "duration": 0.0818,
      "velocity": 127,
      "chip": "ym2612"
    },
    {
      "channel": 2,
      "note": 76,
      "start": 59.9032,
      "duration": 0.0833,
      "velocity": 127,
      "chip": "ym2612"
    },
    {
      "channel": 0,
      "note": 52,
      "start": 60.0032,
      "duration": 0.1831,
      "velocity": 102,
      "chip": "ym2612"
    },
    {
      "channel": 2,
      "note": 76,
      "start": 60.0049,
      "duration": 0.1816,
      "velocity": 127,
      "chip": "ym2612"
    },
    {
      "channel": 0,
      "note": 59,
      "start": 60.2006,
      "duration": 0.584,
      "velocity": 102,
      "chip": "ym2612"
    },
    {
      "channel": 2,
      "note": 30,
      "start": 60.2009,
      "duration": 0.0829,
      "velocity": 127,
      "chip": "ym2612"
    },
    {
      "channel": 2,
      "note": 30,
      "start": 60.302,
      "duration": 0.0818,
      "velocity": 127,
      "chip": "ym2612"
    },
    {
      "channel": 2,
      "note": 76,
      "start": 60.402,
      "duration": 0.1818,
      "velocity": 127,
      "chip": "ym2612"
    },
    {
      "channel": 1,
      "note": 52,
      "start": 60.6007,
      "duration": 0.1841,
      "velocity": 102,
      "chip": "ym2612"
    },
    {
      "channel": 2,
      "note": 42,
      "start": 60.6024,
      "duration": 0.0814,
      "velocity": 127,
      "chip": "ym2612"
    },
    {
      "channel": 2,
      "note": 30,
      "start": 60.7021,
      "duration": 0.0827,
      "velocity": 127,
      "chip": "ym2612"
    },
    {
      "channel": 0,
      "note": 62,
      "start": 60.8015,
      "duration": 1.7831,
      "velocity": 102,
      "chip": "ym2612"
    },
    {
      "channel": 1,
      "note": 50,
      "start": 60.8032,
      "duration": 2.9817,
      "velocity": 102,
      "chip": "ym2612"
    },
    {
      "channel": 2,
      "note": 76,
      "start": 60.8049,
      "duration": 0.1797,
      "velocity": 127,
      "chip": "ym2612"
    },
    {
      "channel": 2,
      "note": 30,
      "start": 61.0028,
      "duration": 0.0818,
      "velocity": 127,
      "chip": "ym2612"
    },
    {
      "channel": 2,
      "note": 76,
      "start": 61.1013,
      "duration": 0.0833,
      "velocity": 127,
      "chip": "ym2612"
    },
    {
      "channel": 2,
      "note": 76,
      "start": 61.2028,
      "duration": 0.1821,
      "velocity": 127,
      "chip": "ym2612"
    },
    {
      "channel": 2,
      "note": 42,
      "start": 61.4029,
      "duration": 0.1817,
      "velocity": 127,
      "chip": "ym2612"
    },
    {
      "channel": 2,
      "note": 30,
      "start": 61.6015,
      "duration": 0.1832,
      "velocity": 127,
      "chip": "ym2612"
    },
    {
      "channel": 2,
      "note": 30,
      "start": 61.8029,
      "duration": 0.0817,
      "velocity": 127,
      "chip": "ym2612"
    },
    {
      "channel": 2,
      "note": 76,
      "start": 61.9013,
      "duration": 0.0833,
      "velocity": 127,
      "chip": "ym2612"
    },
    {
      "channel": 2,
      "note": 76,
      "start": 62.0028,
      "duration": 0.1817,
      "velocity": 127,
      "chip": "ym2612"
    },
    {
      "channel": 2,
      "note": 42,
      "start": 62.2028,
      "duration": 0.0818,
      "velocity": 127,
      "chip": "ym2612"
    },
    {
      "channel": 2,
      "note": 30,
      "start": 62.3028,
      "duration": 0.0818,
      "velocity": 127,
      "chip": "ym2612"
    },
    {
      "channel": 2,
      "note": 76,
      "start": 62.403,
      "duration": 0.1818,
      "velocity": 127,
      "chip": "ym2612"
    },
    {
      "channel": 0,
      "note": 52,
      "start": 62.6015,
      "duration": 0.1832,
      "velocity": 102,
      "chip": "ym2612"
    },
    {
      "channel": 2,
      "note": 30,
      "start": 62.6032,
      "duration": 0.0816,
      "velocity": 127,
      "chip": "ym2612"
    },
    {
      "channel": 2,
      "note": 76,
      "start": 62.7015,
      "duration": 0.0833,
      "velocity": 127,
      "chip": "ym2612"
    },
    {
      "channel": 0,
      "note": 47,
      "start": 62.8015,
      "duration": 0.183,
      "velocity": 102,
      "chip": "ym2612"
    },
    {
      "channel": 2,
      "note": 76,
      "start": 62.8032,
      "duration": 0.1814,
      "velocity": 127,
      "chip": "ym2612"
    },
    {
      "channel": 0,
      "note": 50,
      "start": 63.0013,
      "duration": 0.1831,
      "velocity": 102,
      "chip": "ym2612"
    },
    {
      "channel": 2,
      "note": 42,
      "start": 63.003,
      "duration": 0.0815,
      "velocity": 127,
      "chip": "ym2612"
    },
    {
      "channel": 2,
      "note": 76,
      "start": 63.1013,
      "duration": 0.0833,
      "velocity": 127,
      "chip": "ym2612"
    },
    {
      "channel": 0,
      "note": 47,
      "start": 63.2014,
      "duration": 0.1832,
      "velocity": 102,
      "chip": "ym2612"
    },
    {
      "channel": 2,
      "note": 76,
      "start": 63.2031,
      "duration": 0.1815,
      "velocity": 127,
      "chip": "ym2612"
    },
    {
      "channel": 0,
      "note": 50,
      "start": 63.4013,
      "duration": 0.1833,
      "velocity": 102,
      "chip": "ym2612"
    },
    {
      "channel": 2,
      "note": 30,
      "start": 63.4016,
      "duration": 0.0832,
      "velocity": 127,
      "chip": "ym2612"
    },
    {
      "channel": 2,
      "note": 30,
      "start": 63.5029,
      "duration": 0.0819,
      "velocity": 127,
      "chip": "ym2612"
    },
    {
      "channel": 0,
      "note": 47,
      "start": 63.6014,
      "duration": 0.1833,
      "velocity": 102,
      "chip": "ym2612"
    },
    {
      "channel": 2,
      "note": 76,
      "start": 63.6032,
      "duration": 0.1817,
      "velocity": 127,
      "chip": "ym2612"
    },
    {
      "channel": 0,
      "note": 50,
      "start": 63.8015,
      "duration": 0.1831,
      "velocity": 102,
      "chip": "ym2612"
    },
    {
      "channel": 1,
      "note": 52,
      "start": 63.8018,
      "duration": 0.1829,
      "velocity": 102,
      "chip": "ym2612"
    },
    {
      "channel": 2,
      "note": 42,
      "start": 63.8035,
      "duration": 0.0812,
      "velocity": 127,
      "chip": "ym2612"
    },
    {
      "channel": 2,
      "note": 30,
      "start": 63.9029,
      "duration": 0.0819,
      "velocity": 127,
      "chip": "ym2612"
    },
    {
      "channel": 0,
      "note": 51,
      "start": 64.0015,
      "duration": 2.1843,
      "velocity": 102,
      "chip": "ym2612"
    },
    {
      "channel": 1,
      "note": 50,
      "start": 64.0032,
      "duration": 2.9814,
      "velocity": 102,
      "chip": "ym2612"
    },
    {
      "channel": 2,
      "note": 76,
      "start": 64.0049,
      "duration": 0.1796,
      "velocity": 127,
      "chip": "ym2612"
    },
    {
      "channel": 2,
      "note": 30,
      "start": 64.2028,
      "duration": 0.081,
      "velocity": 127,
      "chip": "ym2612"
    },
    {
      "channel": 2,
      "note": 76,
      "start": 64.3005,
      "duration": 0.0833,
      "velocity": 127,
      "chip": "ym2612"
    },
    {
      "channel": 2,
      "note": 76,
      "start": 64.402,
      "duration": 0.1818,
      "velocity": 127,
      "chip": "ym2612"
    },
    {
      "channel": 2,
      "note": 42,
      "start": 64.602,
      "duration": 0.1826,
      "velocity": 127,
      "chip": "ym2612"
    },
    {
      "channel": 2,
      "note": 30,
      "start": 64.8013,
      "duration": 0.1832,
      "velocity": 127,
      "chip": "ym2612"
    },
    {
      "channel": 2,
      "note": 30,
      "start": 65.0029,
      "duration": 0.083,
      "velocity": 127,
      "chip": "ym2612"
    },
    {
      "channel": 2,
      "note": 76,
      "start": 65.1026,
      "duration": 0.0833,
      "velocity": 127,
      "chip": "ym2612"
    },
    {
      "channel": 2,
      "note": 76,
      "start": 65.2043,
      "duration": 0.1817,
      "velocity": 127,
      "chip": "ym2612"
    },
    {
      "channel": 2,
      "note": 42,
      "start": 65.4042,
      "duration": 0.0818,
      "velocity": 127,
      "chip": "ym2612"
    },
    {
      "channel": 2,
      "note": 30,
      "start": 65.5042,
      "duration": 0.0803,
      "velocity": 127,
      "chip": "ym2612"
    },
    {
      "channel": 2,
      "note": 76,
      "start": 65.6028,
      "duration": 0.1817,
      "velocity": 127,
      "chip": "ym2612"
    },
    {
      "channel": 2,
      "note": 30,
      "start": 65.8029,
      "duration": 0.0816,
      "velocity": 127,
      "chip": "ym2612"
    },
    {
      "channel": 2,
      "note": 76,
      "start": 65.9013,
      "duration": 0.0833,
      "velocity": 127,
      "chip": "ym2612"
    },
    {
      "channel": 2,
      "note": 76,
      "start": 66.0028,
      "duration": 0.1832,
      "velocity": 127,
      "chip": "ym2612"
    },
    {
      "channel": 0,
      "note": 52,
      "start": 66.2028,
      "duration": 0.3831,
      "velocity": 102,
      "chip": "ym2612"
    },
    {
      "channel": 2,
      "note": 42,
      "start": 66.2045,
      "duration": 0.0816,
      "velocity": 127,
      "chip": "ym2612"
    },
    {
      "channel": 2,
      "note": 76,
      "start": 66.3028,
      "duration": 0.0831,
      "velocity": 127,
      "chip": "ym2612"
    },
    {
      "channel": 2,
      "note": 76,
      "start": 66.4042,
      "duration": 0.1819,
      "velocity": 127,
      "chip": "ym2612"
    },
    {
      "channel": 0,
      "note": 55,
      "start": 66.6027,
      "duration": 0.1817,
      "velocity": 102,
      "chip": "ym2612"
    },
    {
      "channel": 2,
      "note": 30,
      "start": 66.603,
      "duration": 0.0815,
      "velocity": 127,
      "chip": "ym2612"
    },
    {
      "channel": 2,
      "note": 30,
      "start": 66.7028,
      "duration": 0.0818,
      "velocity": 127,
      "chip": "ym2612"
    },
    {
      "channel": 0,
      "note": 52,
      "start": 66.8012,
      "duration": 0.1833,
      "velocity": 102,
      "chip": "ym2612"
    },
    {
      "channel": 2,
      "note": 76,
      "start": 66.803,
      "duration": 0.1817,
      "velocity": 127,
      "chip": "ym2612"
    },
    {
      "channel": 0,
      "note": 54,
      "start": 67.0014,
      "duration": 0.1845,
      "velocity": 102,
      "chip": "ym2612"
    },
    {
      "channel": 1,
      "note": 52,
      "start": 67.0016,
      "duration": 0.1843,
      "velocity": 102,
      "chip": "ym2612"
    },
    {
      "channel": 2,
      "note": 42,
      "start": 67.0033,
      "duration": 0.0813,
      "velocity": 127,
      "chip": "ym2612"
    },
    {
      "channel": 2,
      "note": 30,
      "start": 67.1028,
      "duration": 0.0833,
      "velocity": 127,
      "chip": "ym2612"
    },
    {
      "channel": 0,
      "note": 52,
      "start": 67.2029,
      "duration": 2.9815,
      "velocity": 102,
      "chip": "ym2612"
    },
    {
      "channel": 1,
      "note": 50,
      "start": 67.2047,
      "duration": 2.9799,
      "velocity": 102,
      "chip": "ym2612"
    },
    {
      "channel": 2,
      "note": 76,
      "start": 67.2063,
      "duration": 0.1796,
      "velocity": 127,
      "chip": "ym2612"
    },
    {
      "channel": 2,
      "note": 30,
      "start": 67.4042,
      "duration": 0.0817,
      "velocity": 127,
      "chip": "ym2612"
    },
    {
      "channel": 2,
      "note": 76,
      "start": 67.5026,
      "duration": 0.0833,
      "velocity": 127,
      "chip": "ym2612"
    },
    {
      "channel": 2,
      "note": 76,
      "start": 67.6042,
      "duration": 0.1803,
      "velocity": 127,
      "chip": "ym2612"
    },
    {
      "channel": 2,
      "note": 42,
      "start": 67.8027,
      "duration": 0.1819,
      "velocity": 127,
      "chip": "ym2612"
    },
    {
      "channel": 2,
      "note": 30,
      "start": 68.0014,
      "duration": 0.1832,
      "velocity": 127,
      "chip": "ym2612"
    },
    {
      "channel": 2,
      "note": 30,
      "start": 68.2028,
      "duration": 0.081,
      "velocity": 127,
      "chip": "ym2612"
    },
    {
      "channel": 2,
      "note": 76,
      "start": 68.3005,
      "duration": 0.0833,
      "velocity": 127,
      "chip": "ym2612"
    },
    {
      "channel": 2,
      "note": 76,
      "start": 68.402,
      "duration": 0.1817,
      "velocity": 127,
      "chip": "ym2612"
    },
    {
      "channel": 2,
      "note": 42,
      "start": 68.6021,
      "duration": 0.0816,
      "velocity": 127,
      "chip": "ym2612"
    },
    {
      "channel": 2,
      "note": 30,
      "start": 68.7021,
      "duration": 0.0824,
      "velocity": 127,
      "chip": "ym2612"
    },
    {
      "channel": 2,
      "note": 76,
      "start": 68.8028,
      "duration": 0.1817,
      "velocity": 127,
      "chip": "ym2612"
    },
    {
      "channel": 2,
      "note": 30,
      "start": 69.0029,
      "duration": 0.0816,
      "velocity": 127,
      "chip": "ym2612"
    },
    {
      "channel": 2,
      "note": 76,
      "start": 69.1013,
      "duration": 0.0833,
      "velocity": 127,
      "chip": "ym2612"
    },
    {
      "channel": 2,
      "note": 76,
      "start": 69.2028,
      "duration": 0.1818,
      "velocity": 127,
      "chip": "ym2612"
    },
    {
      "channel": 2,
      "note": 42,
      "start": 69.4029,
      "duration": 0.0816,
      "velocity": 127,
      "chip": "ym2612"
    },
    {
      "channel": 2,
      "note": 76,
      "start": 69.5013,
      "duration": 0.0833,
      "velocity": 127,
      "chip": "ym2612"
    },
    {
      "channel": 2,
      "note": 76,
      "start": 69.6028,
      "duration": 0.1817,
      "velocity": 127,
      "chip": "ym2612"
    },
    {
      "channel": 2,
      "note": 30,
      "start": 69.8013,
      "duration": 0.0833,
      "velocity": 127,
      "chip": "ym2612"
    },
    {
      "channel": 2,
      "note": 30,
      "start": 69.9028,
      "duration": 0.0818,
      "velocity": 127,
      "chip": "ym2612"
    },
    {
      "channel": 2,
      "note": 76,
      "start": 70.0028,
      "duration": 0.1819,
      "velocity": 127,
      "chip": "ym2612"
    },
    {
      "channel": 0,
      "note": 52,
      "start": 70.2014,
      "duration": 0.183,
      "velocity": 102,
      "chip": "ym2612"
    },
    {
      "channel": 1,
      "note": 52,
      "start": 70.2017,
      "duration": 0.1828,
      "velocity": 102,
      "chip": "ym2612"
    },
    {
      "channel": 2,
      "note": 42,
      "start": 70.2034,
      "duration": 0.0813,
      "velocity": 127,
      "chip": "ym2612"
    },
    {
      "channel": 2,
      "note": 30,
      "start": 70.3029,
      "duration": 0.0817,
      "velocity": 127,
      "chip": "ym2612"
    },
    {
      "channel": 0,
      "note": 52,
      "start": 70.4015,
      "duration": 2.1822,
      "velocity": 102,
      "chip": "ym2612"
    },
    {
      "channel": 1,
      "note": 50,
      "start": 70.4033,
      "duration": 2.9812,
      "velocity": 102,
      "chip": "ym2612"
    },
    {
      "channel": 2,
      "note": 76,
      "start": 70.4049,
      "duration": 0.1796,
      "velocity": 127,
      "chip": "ym2612"
    },
    {
      "channel": 2,
      "note": 30,
      "start": 70.6028,
      "duration": 0.0817,
      "velocity": 127,
      "chip": "ym2612"
    },
    {
      "channel": 2,
      "note": 76,
      "start": 70.7012,
      "duration": 0.0833,
      "velocity": 127,
      "chip": "ym2612"
    },
    {
      "channel": 2,
      "note": 76,
      "start": 70.8028,
      "duration": 0.1817,
      "velocity": 127,
      "chip": "ym2612"
    },
    {
      "channel": 2,
      "note": 42,
      "start": 71.0029,
      "duration": 0.1817,
      "velocity": 127,
      "chip": "ym2612"
    },
    {
      "channel": 2,
      "note": 30,
      "start": 71.2014,
      "duration": 0.1833,
      "velocity": 127,
      "chip": "ym2612"
    },
    {
      "channel": 2,
      "note": 30,
      "start": 71.4028,
      "duration": 0.0818,
      "velocity": 127,
      "chip": "ym2612"
    },
    {
      "channel": 2,
      "note": 76,
      "start": 71.5014,
      "duration": 0.0832,
      "velocity": 127,
      "chip": "ym2612"
    },
    {
      "channel": 2,
      "note": 76,
      "start": 71.6028,
      "duration": 0.1818,
      "velocity": 127,
      "chip": "ym2612"
    },
    {
      "channel": 2,
      "note": 42,
      "start": 71.8028,
      "duration": 0.0818,
      "velocity": 127,
      "chip": "ym2612"
    },
    {
      "channel": 2,
      "note": 30,
      "start": 71.9028,
      "duration": 0.0818,
      "velocity": 127,
      "chip": "ym2612"
    },
    {
      "channel": 2,
      "note": 76,
      "start": 72.0028,
      "duration": 0.1818,
      "velocity": 127,
      "chip": "ym2612"
    },
    {
      "channel": 2,
      "note": 30,
      "start": 72.2029,
      "duration": 0.081,
      "velocity": 127,
      "chip": "ym2612"
    },
    {
      "channel": 2,
      "note": 76,
      "start": 72.3006,
      "duration": 0.0832,
      "velocity": 127,
      "chip": "ym2612"
    },
    {
      "channel": 2,
      "note": 76,
      "start": 72.4021,
      "duration": 0.1818,
      "velocity": 127,
      "chip": "ym2612"
    },
    {
      "channel": 0,
      "note": 52,
      "start": 72.6005,
      "duration": 0.184,
      "velocity": 102,
      "chip": "ym2612"
    },
    {
      "channel": 2,
      "note": 42,
      "start": 72.6023,
      "duration": 0.0815,
      "velocity": 127,
      "chip": "ym2612"
    },
    {
      "channel": 2,
      "note": 76,
      "start": 72.7006,
      "duration": 0.084,
      "velocity": 127,
      "chip": "ym2612"
    },
    {
      "channel": 0,
      "note": 52,
      "start": 72.8014,
      "duration": 0.183,
      "velocity": 102,
      "chip": "ym2612"
    },
    {
      "channel": 2,
      "note": 76,
      "start": 72.8032,
      "duration": 0.1815,
      "velocity": 127,
      "chip": "ym2612"
    },
    {
      "channel": 0,
      "note": 58,
      "start": 73.0014,
      "duration": 0.0832,
      "velocity": 102,
      "chip": "ym2612"
    },
    {
      "channel": 2,
      "note": 30,
      "start": 73.0017,
      "duration": 0.0829,
      "velocity": 127,
      "chip": "ym2612"
    },
    {
      "channel": 0,
      "note": 59,
      "start": 73.1013,
      "duration": 0.4833,
      "velocity": 102,
      "chip": "ym2612"
    },
    {
      "channel": 2,
      "note": 30,
      "start": 73.1031,
      "duration": 0.0815,
      "velocity": 127,
      "chip": "ym2612"
    },
    {
      "channel": 2,
      "note": 76,
      "start": 73.2028,
      "duration": 0.1818,
      "velocity": 127,
      "chip": "ym2612"
    },
    {
      "channel": 1,
      "note": 52,
      "start": 73.4014,
      "duration": 0.1833,
      "velocity": 102,
      "chip": "ym2612"
    },
    {
      "channel": 2,
      "note": 42,
      "start": 73.4031,
      "duration": 0.0814,
      "velocity": 127,
      "chip": "ym2612"
    },
    {
      "channel": 2,
      "note": 30,
      "start": 73.5027,
      "duration": 0.0821,
      "velocity": 127,
      "chip": "ym2612"
    },
    {
      "channel": 0,
      "note": 62,
      "start": 73.6015,
      "duration": 1.7829,
      "velocity": 102,
      "chip": "ym2612"
    },
    {
      "channel": 1,
      "note": 50,
      "start": 73.6033,
      "duration": 2.9805,
      "velocity": 102,
      "chip": "ym2612"
    },
    {
      "channel": 2,
      "note": 76,
      "start": 73.6049,
      "duration": 0.1796,
      "velocity": 127,
      "chip": "ym2612"
    },
    {
      "channel": 2,
      "note": 30,
      "start": 73.8029,
      "duration": 0.0817,
      "velocity": 127,
      "chip": "ym2612"
    },
    {
      "channel": 2,
      "note": 76,
      "start": 73.9013,
      "duration": 0.0833,
      "velocity": 127,
      "chip": "ym2612"
    },
    {
      "channel": 2,
      "note": 76,
      "start": 74.0028,
      "duration": 0.1818,
      "velocity": 127,
      "chip": "ym2612"
    },
    {
      "channel": 2,
      "note": 42,
      "start": 74.2028,
      "duration": 0.1819,
      "velocity": 127,
      "chip": "ym2612"
    },
    {
      "channel": 2,
      "note": 30,
      "start": 74.4014,
      "duration": 0.1833,
      "velocity": 127,
      "chip": "ym2612"
    },
    {
      "channel": 2,
      "note": 30,
      "start": 74.6028,
      "duration": 0.0817,
      "velocity": 127,
      "chip": "ym2612"
    },
    {
      "channel": 2,
      "note": 76,
      "start": 74.7014,
      "duration": 0.0833,
      "velocity": 127,
      "chip": "ym2612"
    },
    {
      "channel": 2,
      "note": 76,
      "start": 74.8028,
      "duration": 0.1818,
      "velocity": 127,
      "chip": "ym2612"
    },
    {
      "channel": 2,
      "note": 42,
      "start": 75.0028,
      "duration": 0.0818,
      "velocity": 127,
      "chip": "ym2612"
    },
    {
      "channel": 2,
      "note": 30,
      "start": 75.1028,
      "duration": 0.0818,
      "velocity": 127,
      "chip": "ym2612"
    },
    {
      "channel": 2,
      "note": 76,
      "start": 75.2028,
      "duration": 0.1818,
      "velocity": 127,
      "chip": "ym2612"
    },
    {
      "channel": 0,
      "note": 52,
      "start": 75.4014,
      "duration": 0.1831,
      "velocity": 102,
      "chip": "ym2612"
    },
    {
      "channel": 2,
      "note": 30,
      "start": 75.4032,
      "duration": 0.0814,
      "velocity": 127,
      "chip": "ym2612"
    },
    {
      "channel": 2,
      "note": 76,
      "start": 75.5012,
      "duration": 0.0834,
      "velocity": 127,
      "chip": "ym2612"
    },
    {
      "channel": 0,
      "note": 52,
      "start": 75.6013,
      "duration": 0.1832,
      "velocity": 102,
      "chip": "ym2612"
    },
    {
      "channel": 2,
      "note": 76,
      "start": 75.603,
      "duration": 0.1817,
      "velocity": 127,
      "chip": "ym2612"
    },
    {
      "channel": 0,
      "note": 53,
      "start": 75.8014,
      "duration": 0.1832,
      "velocity": 102,
      "chip": "ym2612"
    },
    {
      "channel": 2,
      "note": 42,
      "start": 75.8016,
      "duration": 0.1831,
      "velocity": 127,
      "chip": "ym2612"
    },
    {
      "channel": 0,
      "note": 52,
      "start": 76.0014,
      "duration": 0.2824,
      "velocity": 102,
      "chip": "ym2612"
    },
    {
      "channel": 2,
      "note": 42,
      "start": 76.0017,
      "duration": 0.1829,
      "velocity": 127,
      "chip": "ym2612"
    },
    {
      "channel": 2,
      "note": 42,
      "start": 76.2014,
      "duration": 0.1824,
      "velocity": 127,
      "chip": "ym2612"
    },
    {
      "channel": 0,
      "note": 54,
      "start": 76.3005,
      "duration": 0.0831,
      "velocity": 102,
      "chip": "ym2612"
    },
    {
      "channel": 0,
      "note": 52,
      "start": 76.4005,
      "duration": 0.1832,
      "velocity": 102,
      "chip": "ym2612"
    },
    {
      "channel": 2,
      "note": 42,
      "start": 76.4008,
      "duration": 0.1831,
      "velocity": 127,
      "chip": "ym2612"
    },
    {
      "channel": 0,
      "note": 54,
      "start": 76.6007,
      "duration": 0.1843,
      "velocity": 102,
      "chip": "ym2612"
    },
    {
      "channel": 1,
      "note": 52,
      "start": 76.6009,
      "duration": 0.1842,
      "velocity": 102,
      "chip": "ym2612"
    },
    {
      "channel": 2,
      "note": 42,
      "start": 76.6012,
      "duration": 0.0826,
      "velocity": 127,
      "chip": "ym2612"
    },
    {
      "channel": 2,
      "note": 42,
      "start": 76.7005,
      "duration": 0.0847,
      "velocity": 127,
      "chip": "ym2612"
    },
    {
      "channel": 0,
      "note": 52,
      "start": 76.8034,
      "duration": 0.3815,
      "velocity": 102,
      "chip": "ym2612"
    },
    {
      "channel": 2,
      "note": 42,
      "start": 76.8066,
      "duration": 0.1784,
      "velocity": 127,
      "chip": "ym2612"
    },
    {
      "channel": 1,
      "note": 50,
      "start": 77.0019,
      "duration": 0.1831,
      "velocity": 102,
      "chip": "ym2612"
    },
    {
      "channel": 2,
      "note": 30,
      "start": 77.0035,
      "duration": 0.0814,
      "velocity": 127,
      "chip": "ym2612"
    },
    {
      "channel": 2,
      "note": 76,
      "start": 77.1017,
      "duration": 0.0835,
      "velocity": 127,
      "chip": "ym2612"
    },
    {
      "channel": 0,
      "note": 55,
      "start": 77.2019,
      "duration": 0.3845,
      "velocity": 102,
      "chip": "ym2612"
    },
    {
      "channel": 1,
      "note": 55,
      "start": 77.2021,
      "duration": 0.3844,
      "velocity": 102,
      "chip": "ym2612"
    },
    {
      "channel": 2,
      "note": 76,
      "start": 77.2038,
      "duration": 0.1826,
      "velocity": 127,
      "chip": "ym2612"
    },
    {
      "channel": 2,
      "note": 42,
      "start": 77.4046,
      "duration": 0.182,
      "velocity": 127,
      "chip": "ym2612"
    },
    {
      "channel": 0,
      "note": 55,
      "start": 77.6032,
      "duration": 0.1832,
      "velocity": 102,
      "chip": "ym2612"
    },
    {
      "channel": 1,
      "note": 55,
      "start": 77.6035,
      "duration": 0.5815,
      "velocity": 102,
      "chip": "ym2612"
    },
    {
      "channel": 2,
      "note": 30,
      "start": 77.6037,
      "duration": 0.1828,
      "velocity": 127,
      "chip": "ym2612"
    },
    {
      "channel": 0,
      "note": 55,
      "start": 77.8017,
      "duration": 0.3832,
      "velocity": 102,
      "chip": "ym2612"
    },
    {
      "channel": 2,
      "note": 30,
      "start": 77.8035,
      "duration": 0.0815,
      "velocity": 127,
      "chip": "ym2612"
    },
    {
      "channel": 2,
      "note": 76,
      "start": 77.9018,
      "duration": 0.0831,
      "velocity": 127,
      "chip": "ym2612"
    },
    {
      "channel": 2,
      "note": 76,
      "start": 78.0033,
      "duration": 0.1819,
      "velocity": 127,
      "chip": "ym2612"
    },
    {
      "channel": 0,
      "note": 50,
      "start": 78.2018,
      "duration": 0.3845,
      "velocity": 102,
      "chip": "ym2612"
    },
    {
      "channel": 1,
      "note": 53,
      "start": 78.2021,
      "duration": 0.7829,
      "velocity": 102,
      "chip": "ym2612"
    },
    {
      "channel": 2,
      "note": 42,
      "start": 78.2037,
      "duration": 0.0813,
      "velocity": 127,
      "chip": "ym2612"
    },
    {
      "channel": 2,
      "note": 30,
      "start": 78.3032,
      "duration": 0.0832,
      "velocity": 127,
      "chip": "ym2612"
    },
    {
      "channel": 2,
      "note": 76,
      "start": 78.4047,
      "duration": 0.1818,
      "velocity": 127,
      "chip": "ym2612"
    },
    {
      "channel": 0,
      "note": 55,
      "start": 78.6032,
      "duration": 0.3817,
      "velocity": 102,
      "chip": "ym2612"
    },
    {
      "channel": 2,
      "note": 30,
      "start": 78.6049,
      "duration": 0.0816,
      "velocity": 127,
      "chip": "ym2612"
    },
    {
      "channel": 2,
      "note": 76,
      "start": 78.7032,
      "duration": 0.0832,
      "velocity": 127,
      "chip": "ym2612"
    },
    {
      "channel": 2,
      "note": 76,
      "start": 78.8047,
      "duration": 0.1805,
      "velocity": 127,
      "chip": "ym2612"
    },
    {
      "channel": 0,
      "note": 55,
      "start": 79.0019,
      "duration": 0.183,
      "velocity": 102,
      "chip": "ym2612"
    },
    {
      "channel": 1,
      "note": 50,
      "start": 79.0022,
      "duration": 0.3827,
      "velocity": 102,
      "chip": "ym2612"
    },
    {
      "channel": 2,
      "note": 42,
      "start": 79.0038,
      "duration": 0.0812,
      "velocity": 127,
      "chip": "ym2612"
    },
    {
      "channel": 2,
      "note": 76,
      "start": 79.1017,
      "duration": 0.0833,
      "velocity": 127,
      "chip": "ym2612"
    },
    {
      "channel": 0,
      "note": 55,
      "start": 79.2017,
      "duration": 0.1831,
      "velocity": 102,
      "chip": "ym2612"
    },
    {
      "channel": 2,
      "note": 76,
      "start": 79.2035,
      "duration": 0.1816,
      "velocity": 127,
      "chip": "ym2612"
    },
    {
      "channel": 0,
      "note": 57,
      "start": 79.4033,
      "duration": 0.183,
      "velocity": 102,
      "chip": "ym2612"
    },
    {
      "channel": 1,
      "note": 50,
      "start": 79.4035,
      "duration": 0.1828,
      "velocity": 102,
      "chip": "ym2612"
    },
    {
      "channel": 2,
      "note": 30,
      "start": 79.4038,
      "duration": 0.0826,
      "velocity": 127,
      "chip": "ym2612"
    },
    {
      "channel": 2,
      "note": 30,
      "start": 79.5045,
      "duration": 0.082,
      "velocity": 127,
      "chip": "ym2612"
    },
    {
      "channel": 0,
      "note": 58,
      "start": 79.6032,
      "duration": 0.1831,
      "velocity": 102,
      "chip": "ym2612"
    },
    {
      "channel": 1,
      "note": 53,
      "start": 79.6034,
      "duration": 0.183,
      "velocity": 102,
      "chip": "ym2612"
    },
    {
      "channel": 2,
      "note": 76,
      "start": 79.6051,
      "duration": 0.1815,
      "velocity": 127,
      "chip": "ym2612"
    },
    {
      "channel": 0,
      "note": 59,
      "start": 79.8032,
      "duration": 0.1817,
      "velocity": 102,
      "chip": "ym2612"
    },
    {
      "channel": 1,
      "note": 53,
      "start": 79.8034,
      "duration": 0.1816,
      "velocity": 102,
      "chip": "ym2612"
    },
    {
      "channel": 2,
      "note": 42,
      "start": 79.8051,
      "duration": 0.0812,
      "velocity": 127,
      "chip": "ym2612"
    },
    {
      "channel": 2,
      "note": 30,
      "start": 79.9045,
      "duration": 0.0805,
      "velocity": 127,
      "chip": "ym2612"
    },
    {
      "channel": 0,
      "note": 65,
      "start": 80.002,
      "duration": 0.3817,
      "velocity": 102,
      "chip": "ym2612"
    },
    {
      "channel": 2,
      "note": 76,
      "start": 80.0052,
      "duration": 0.1799,
      "velocity": 127,
      "chip": "ym2612"
    },
    {
      "channel": 1,
      "note": 55,
      "start": 80.2018,
      "duration": 0.1821,
      "velocity": 102,
      "chip": "ym2612"
    },
    {
      "channel": 2,
      "note": 30,
      "start": 80.2035,
      "duration": 0.0803,
      "velocity": 127,
      "chip": "ym2612"
    },
    {
      "channel": 2,
      "note": 76,
      "start": 80.3005,
      "duration": 0.0834,
      "velocity": 127,
      "chip": "ym2612"
    },
    {
      "channel": 0,
      "note": 55,
      "start": 80.4007,
      "duration": 0.1829,
      "velocity": 102,
      "chip": "ym2612"
    },
    {
      "channel": 1,
      "note": 55,
      "start": 80.401,
      "duration": 0.3829,
      "velocity": 102,
      "chip": "ym2612"
    },
    {
      "channel": 2,
      "note": 76,
      "start": 80.4027,
      "duration": 0.1811,
      "velocity": 127,
      "chip": "ym2612"
    },
    {
      "channel": 0,
      "note": 55,
      "start": 80.6005,
      "duration": 0.1833,
      "velocity": 102,
      "chip": "ym2612"
    },
    {
      "channel": 2,
      "note": 42,
      "start": 80.6022,
      "duration": 0.1817,
      "velocity": 127,
      "chip": "ym2612"
    },
    {
      "channel": 0,
      "note": 53,
      "start": 80.8014,
      "duration": 0.3833,
      "velocity": 102,
      "chip": "ym2612"
    },
    {
      "channel": 1,
      "note": 55,
      "start": 80.8017,
      "duration": 0.583,
      "velocity": 102,
      "chip": "ym2612"
    },
    {
      "channel": 2,
      "note": 30,
      "start": 80.8019,
      "duration": 0.1828,
      "velocity": 127,
      "chip": "ym2612"
    },
    {
      "channel": 2,
      "note": 30,
      "start": 81.0029,
      "duration": 0.0817,
      "velocity": 127,
      "chip": "ym2612"
    },
    {
      "channel": 2,
      "note": 76,
      "start": 81.1015,
      "duration": 0.0833,
      "velocity": 127,
      "chip": "ym2612"
    },
    {
      "channel": 0,
      "note": 55,
      "start": 81.2015,
      "duration": 0.1831,
      "velocity": 102,
      "chip": "ym2612"
    },
    {
      "channel": 2,
      "note": 76,
      "start": 81.2032,
      "duration": 0.1816,
      "velocity": 127,
      "chip": "ym2612"
    },
    {
      "channel": 0,
      "note": 53,
      "start": 81.4016,
      "duration": 0.3829,
      "velocity": 102,
      "chip": "ym2612"
    },
    {
      "channel": 1,
      "note": 53,
      "start": 81.4019,
      "duration": 0.7828,
      "velocity": 102,
      "chip": "ym2612"
    },
    {
      "channel": 2,
      "note": 42,
      "start": 81.4035,
      "duration": 0.0812,
      "velocity": 127,
      "chip": "ym2612"
    },
    {
      "channel": 2,
      "note": 30,
      "start": 81.503,
      "duration": 0.0815,
      "velocity": 127,
      "chip": "ym2612"
    },
    {
      "channel": 2,
      "note": 76,
      "start": 81.6028,
      "duration": 0.1818,
      "velocity": 127,
      "chip": "ym2612"
    },
    {
      "channel": 0,
      "note": 55,
      "start": 81.8013,
      "duration": 0.3833,
      "velocity": 102,
      "chip": "ym2612"
    },
    {
      "channel": 2,
      "note": 30,
      "start": 81.8031,
      "duration": 0.0815,
      "velocity": 127,
      "chip": "ym2612"
    },
    {
      "channel": 2,
      "note": 76,
      "start": 81.9014,
      "duration": 0.0832,
      "velocity": 127,
      "chip": "ym2612"
    },
    {
      "channel": 2,
      "note": 76,
      "start": 82.0028,
      "duration": 0.182,
      "velocity": 127,
      "chip": "ym2612"
    },
    {
      "channel": 0,
      "note": 55,
      "start": 82.2016,
      "duration": 0.183,
      "velocity": 102,
      "chip": "ym2612"
    },
    {
      "channel": 1,
      "note": 50,
      "start": 82.2019,
      "duration": 0.3826,
      "velocity": 102,
      "chip": "ym2612"
    },
    {
      "channel": 2,
      "note": 42,
      "start": 82.2036,
      "duration": 0.0811,
      "velocity": 127,
      "chip": "ym2612"
    },
    {
      "channel": 2,
      "note": 76,
      "start": 82.3014,
      "duration": 0.0834,
      "velocity": 127,
      "chip": "ym2612"
    },
    {
      "channel": 0,
      "note": 55,
      "start": 82.4014,
      "duration": 0.183,
      "velocity": 102,
      "chip": "ym2612"
    },
    {
      "channel": 2,
      "note": 76,
      "start": 82.4032,
      "duration": 0.1814,
      "velocity": 127,
      "chip": "ym2612"
    },
    {
      "channel": 0,
      "note": 55,
      "start": 82.6014,
      "duration": 0.183,
      "velocity": 102,
      "chip": "ym2612"
    },
    {
      "channel": 1,
      "note": 50,
      "start": 82.6017,
      "duration": 0.1829,
      "velocity": 102,
      "chip": "ym2612"
    },
    {
      "channel": 2,
      "note": 30,
      "start": 82.6019,
      "duration": 0.0826,
      "velocity": 127,
      "chip": "ym2612"
    },
    {
      "channel": 2,
      "note": 30,
      "start": 82.7028,
      "duration": 0.0819,
      "velocity": 127,
      "chip": "ym2612"
    },
    {
      "channel": 0,
      "note": 50,
      "start": 82.8014,
      "duration": 0.3832,
      "velocity": 102,
      "chip": "ym2612"
    },
    {
      "channel": 1,
      "note": 53,
      "start": 82.8017,
      "duration": 0.1828,
      "velocity": 102,
      "chip": "ym2612"
    },
    {
      "channel": 2,
      "note": 76,
      "start": 82.8034,
      "duration": 0.1812,
      "velocity": 127,
      "chip": "ym2612"
    },
    {
      "channel": 1,
      "note": 53,
      "start": 83.0014,
      "duration": 0.1833,
      "velocity": 102,
      "chip": "ym2612"
    },
    {
      "channel": 2,
      "note": 42,
      "start": 83.003,
      "duration": 0.0815,
      "velocity": 127,
      "chip": "ym2612"
    },
    {
      "channel": 2,
      "note": 30,
      "start": 83.1028,
      "duration": 0.0821,
      "velocity": 127,
      "chip": "ym2612"
    },
    {
      "channel": 0,
      "note": 53,
      "start": 83.2016,
      "duration": 0.383,
      "velocity": 102,
      "chip": "ym2612"
    },
    {
      "channel": 2,
      "note": 76,
      "start": 83.2049,
      "duration": 0.1799,
      "velocity": 127,
      "chip": "ym2612"
    },
    {
      "channel": 1,
      "note": 55,
      "start": 83.4015,
      "duration": 0.1832,
      "velocity": 102,
      "chip": "ym2612"
    },
    {
      "channel": 2,
      "note": 30,
      "start": 83.4033,
      "duration": 0.0814,
      "velocity": 127,
      "chip": "ym2612"
    },
    {
      "channel": 2,
      "note": 76,
      "start": 83.5014,
      "duration": 0.0834,
      "velocity": 127,
      "chip": "ym2612"
    },
    {
      "channel": 0,
      "note": 55,
      "start": 83.6016,
      "duration": 0.1829,
      "velocity": 102,
      "chip": "ym2612"
    },
    {
      "channel": 1,
      "note": 55,
      "start": 83.6019,
      "duration": 0.3827,
      "velocity": 102,
      "chip": "ym2612"
    },
    {
      "channel": 2,
      "note": 76,
      "start": 83.6036,
      "duration": 0.1811,
      "velocity": 127,
      "chip": "ym2612"
    },
    {
      "channel": 0,
      "note": 55,
      "start": 83.8012,
      "duration": 0.1833,
      "velocity": 102,
      "chip": "ym2612"
    },
    {
      "channel": 2,
      "note": 42,
      "start": 83.8029,
      "duration": 0.1817,
      "velocity": 127,
      "chip": "ym2612"
    },
    {
      "channel": 0,
      "note": 53,
      "start": 84.0014,
      "duration": 0.3824,
      "velocity": 102,
      "chip": "ym2612"
    },
    {
      "channel": 1,
      "note": 55,
      "start": 84.0016,
      "duration": 0.5822,
      "velocity": 102,
      "chip": "ym2612"
    },
    {
      "channel": 2,
      "note": 30,
      "start": 84.0019,
      "duration": 0.1828,
      "velocity": 127,
      "chip": "ym2612"
    },
    {
      "channel": 2,
      "note": 30,
      "start": 84.203,
      "duration": 0.0817,
      "velocity": 127,
      "chip": "ym2612"
    },
    {
      "channel": 2,
      "note": 76,
      "start": 84.3006,
      "duration": 0.0833,
      "velocity": 127,
      "chip": "ym2612"
    },
    {
      "channel": 0,
      "note": 55,
      "start": 84.4006,
      "duration": 0.1832,
      "velocity": 102,
      "chip": "ym2612"
    },
    {
      "channel": 2,
      "note": 76,
      "start": 84.4023,
      "duration": 0.1816,
      "velocity": 127,
      "chip": "ym2612"
    },
    {
      "channel": 0,
      "note": 53,
      "start": 84.6007,
      "duration": 0.3851,
      "velocity": 102,
      "chip": "ym2612"
    },
    {
      "channel": 1,
      "note": 53,
      "start": 84.601,
      "duration": 0.7835,
      "velocity": 102,
      "chip": "ym2612"
    },
    {
      "channel": 2,
      "note": 42,
      "start": 84.6027,
      "duration": 0.0811,
      "velocity": 127,
      "chip": "ym2612"
    },
    {
      "channel": 2,
      "note": 30,
      "start": 84.702,
      "duration": 0.0818,
      "velocity": 127,
      "chip": "ym2612"
    },
    {
      "channel": 2,
      "note": 76,
      "start": 84.8021,
      "duration": 0.1838,
      "velocity": 127,
      "chip": "ym2612"
    },
    {
      "channel": 0,
      "note": 55,
      "start": 85.0026,
      "duration": 0.3818,
      "velocity": 102,
      "chip": "ym2612"
    },
    {
      "channel": 2,
      "note": 30,
      "start": 85.0044,
      "duration": 0.0815,
      "velocity": 127,
      "chip": "ym2612"
    },
    {
      "channel": 2,
      "note": 76,
      "start": 85.1026,
      "duration": 0.0833,
      "velocity": 127,
      "chip": "ym2612"
    },
    {
      "channel": 2,
      "note": 76,
      "start": 85.2042,
      "duration": 0.1805,
      "velocity": 127,
      "chip": "ym2612"
    },
    {
      "channel": 0,
      "note": 55,
      "start": 85.4014,
      "duration": 0.183,
      "velocity": 102,
      "chip": "ym2612"
    },
    {
      "channel": 1,
      "note": 50,
      "start": 85.4017,
      "duration": 0.3843,
      "velocity": 102,
      "chip": "ym2612"
    },
    {
      "channel": 2,
      "note": 42,
      "start": 85.4033,
      "duration": 0.0812,
      "velocity": 127,
      "chip": "ym2612"
    },
    {
      "channel": 2,
      "note": 76,
      "start": 85.5012,
      "duration": 0.0833,
      "velocity": 127,
      "chip": "ym2612"
    },
    {
      "channel": 0,
      "note": 57,
      "start": 85.6012,
      "duration": 0.1846,
      "velocity": 102,
      "chip": "ym2612"
    },
    {
      "channel": 2,
      "note": 76,
      "start": 85.603,
      "duration": 0.1831,
      "velocity": 127,
      "chip": "ym2612"
    },
    {
      "channel": 0,
      "note": 58,
      "start": 85.8027,
      "duration": 0.1832,
      "velocity": 102,
      "chip": "ym2612"
    },
    {
      "channel": 1,
      "note": 50,
      "start": 85.8029,
      "duration": 0.1831,
      "velocity": 102,
      "chip": "ym2612"
    },
    {
      "channel": 2,
      "note": 30,
      "start": 85.8032,
      "duration": 0.0828,
      "velocity": 127,
      "chip": "ym2612"
    },
    {
      "channel": 2,
      "note": 30,
      "start": 85.9042,
      "duration": 0.0819,
      "velocity": 127,
      "chip": "ym2612"
    },
    {
      "channel": 0,
      "note": 59,
      "start": 86.0028,
      "duration": 0.3818,
      "velocity": 102,
      "chip": "ym2612"
    },
    {
      "channel": 1,
      "note": 53,
      "start": 86.003,
      "duration": 0.1828,
      "velocity": 102,
      "chip": "ym2612"
    },
    {
      "channel": 2,
      "note": 76,
      "start": 86.0047,
      "duration": 0.1813,
      "velocity": 127,
      "chip": "ym2612"
    },
    {
      "channel": 1,
      "note": 53,
      "start": 86.2028,
      "duration": 0.1819,
      "velocity": 102,
      "chip": "ym2612"
    },
    {
      "channel": 2,
      "note": 42,
      "start": 86.2045,
      "duration": 0.0814,
      "velocity": 127,
      "chip": "ym2612"
    },
    {
      "channel": 2,
      "note": 30,
      "start": 86.3028,
      "duration": 0.0819,
      "velocity": 127,
      "chip": "ym2612"
    },
    {
      "channel": 0,
      "note": 65,
      "start": 86.4014,
      "duration": 0.383,
      "velocity": 102,
      "chip": "ym2612"
    },
    {
      "channel": 2,
      "note": 76,
      "start": 86.4047,
      "duration": 0.18,
      "velocity": 127,
      "chip": "ym2612"
    },
    {
      "channel": 1,
      "note": 55,
      "start": 86.6014,
      "duration": 0.1832,
      "velocity": 102,
      "chip": "ym2612"
    },
    {
      "channel": 2,
      "note": 30,
      "start": 86.6031,
      "duration": 0.0815,
      "velocity": 127,
      "chip": "ym2612"
    },
    {
      "channel": 2,
      "note": 76,
      "start": 86.7014,
      "duration": 0.0833,
      "velocity": 127,
      "chip": "ym2612"
    },
    {
      "channel": 0,
      "note": 55,
      "start": 86.8014,
      "duration": 0.3845,
      "velocity": 102,
      "chip": "ym2612"
    },
    {
      "channel": 1,
      "note": 55,
      "start": 86.8017,
      "duration": 0.3844,
      "velocity": 102,
      "chip": "ym2612"
    },
    {
      "channel": 2,
      "note": 76,
      "start": 86.8034,
      "duration": 0.1826,
      "velocity": 127,
      "chip": "ym2612"
    },
    {
      "channel": 2,
      "note": 42,
      "start": 87.0041,
      "duration": 0.182,
      "velocity": 127,
      "chip": "ym2612"
    },
    {
      "channel": 0,
      "note": 55,
      "start": 87.2028,
      "duration": 0.3816,
      "velocity": 102,
      "chip": "ym2612"
    },
    {
      "channel": 1,
      "note": 55,
      "start": 87.203,
      "duration": 0.5815,
      "velocity": 102,
      "chip": "ym2612"
    },
    {
      "channel": 2,
      "note": 30,
      "start": 87.2033,
      "duration": 0.1813,
      "velocity": 127,
      "chip": "ym2612"
    },
    {
      "channel": 2,
      "note": 30,
      "start": 87.4028,
      "duration": 0.0818,
      "velocity": 127,
      "chip": "ym2612"
    },
    {
      "channel": 2,
      "note": 76,
      "start": 87.5014,
      "duration": 0.0832,
      "velocity": 127,
      "chip": "ym2612"
    },
    {
      "channel": 0,
      "note": 55,
      "start": 87.6014,
      "duration": 0.1831,
      "velocity": 102,
      "chip": "ym2612"
    },
    {
      "channel": 2,
      "note": 76,
      "start": 87.6031,
      "duration": 0.1816,
      "velocity": 127,
      "chip": "ym2612"
    },
    {
      "channel": 0,
      "note": 53,
      "start": 87.8015,
      "duration": 0.3844,
      "velocity": 102,
      "chip": "ym2612"
    },
    {
      "channel": 1,
      "note": 53,
      "start": 87.8017,
      "duration": 0.7821,
      "velocity": 102,
      "chip": "ym2612"
    },
    {
      "channel": 2,
      "note": 42,
      "start": 87.8034,
      "duration": 0.0812,
      "velocity": 127,
      "chip": "ym2612"
    },
    {
      "channel": 2,
      "note": 30,
      "start": 87.9041,
      "duration": 0.0818,
      "velocity": 127,
      "chip": "ym2612"
    },
    {
      "channel": 2,
      "note": 76,
      "start": 88.0042,
      "duration": 0.1818,
      "velocity": 127,
      "chip": "ym2612"
    },
    {
      "channel": 0,
      "note": 55,
      "start": 88.2027,
      "duration": 0.381,
      "velocity": 102,
      "chip": "ym2612"
    },
    {
      "channel": 2,
      "note": 30,
      "start": 88.2044,
      "duration": 0.0815,
      "velocity": 127,
      "chip": "ym2612"
    },
    {
      "channel": 2,
      "note": 76,
      "start": 88.3027,
      "duration": 0.0812,
      "velocity": 127,
      "chip": "ym2612"
    },
    {
      "channel": 2,
      "note": 76,
      "start": 88.4021,
      "duration": 0.1819,
      "velocity": 127,
      "chip": "ym2612"
    },
    {
      "channel": 0,
      "note": 55,
      "start": 88.6007,
      "duration": 0.1831,
      "velocity": 102,
      "chip": "ym2612"
    },
    {
      "channel": 1,
      "note": 50,
      "start": 88.6009,
      "duration": 0.3837,
      "velocity": 102,
      "chip": "ym2612"
    },
    {
      "channel": 2,
      "note": 42,
      "start": 88.6026,
      "duration": 0.0811,
      "velocity": 127,
      "chip": "ym2612"
    },
    {
      "channel": 2,
      "note": 76,
      "start": 88.7005,
      "duration": 0.0833,
      "velocity": 127,
      "chip": "ym2612"
    },
    {
      "channel": 0,
      "note": 55,
      "start": 88.8005,
      "duration": 0.184,
      "velocity": 102,
      "chip": "ym2612"
    },
    {
      "channel": 2,
      "note": 76,
      "start": 88.8022,
      "duration": 0.1824,
      "velocity": 127,
      "chip": "ym2612"
    },
    {
      "channel": 0,
      "note": 55,
      "start": 89.0014,
      "duration": 0.1832,
      "velocity": 102,
      "chip": "ym2612"
    },
    {
      "channel": 1,
      "note": 50,
      "start": 89.0016,
      "duration": 0.183,
      "velocity": 102,
      "chip": "ym2612"
    },
    {
      "channel": 2,
      "note": 30,
      "start": 89.0019,
      "duration": 0.0827,
      "velocity": 127,
      "chip": "ym2612"
    },
    {
      "channel": 2,
      "note": 30,
      "start": 89.1028,
      "duration": 0.0819,
      "velocity": 127,
      "chip": "ym2612"
    },
    {
      "channel": 0,
      "note": 50,
      "start": 89.2014,
      "duration": 0.183,
      "velocity": 102,
      "chip": "ym2612"
    },
    {
      "channel": 1,
      "note": 53,
      "start": 89.2016,
      "duration": 0.1829,
      "velocity": 102,
      "chip": "ym2612"
    },
    {
      "channel": 2,
      "note": 76,
      "start": 89.2033,
      "duration": 0.1813,
      "velocity": 127,
      "chip": "ym2612"
    },
    {
      "channel": 0,
      "note": 53,
      "start": 89.4014,
      "duration": 0.1831,
      "velocity": 102,
      "chip": "ym2612"
    },
    {
      "channel": 1,
      "note": 53,
      "start": 89.4017,
      "duration": 0.1829,
      "velocity": 102,
      "chip": "ym2612"
    },
    {
      "channel": 2,
      "note": 42,
      "start": 89.4033,
      "duration": 0.0813,
      "velocity": 127,
      "chip": "ym2612"
    },
    {
      "channel": 2,
      "note": 30,
      "start": 89.5028,
      "duration": 0.0819,
      "velocity": 127,
      "chip": "ym2612"
    },
    {
      "channel": 0,
      "note": 50,
      "start": 89.6031,
      "duration": 0.3814,
      "velocity": 102,
      "chip": "ym2612"
    },
    {
      "channel": 2,
      "note": 76,
      "start": 89.6063,
      "duration": 0.1784,
      "velocity": 127,
      "chip": "ym2612"
    },
    {
      "channel": 1,
      "note": 55,
      "start": 89.8014,
      "duration": 0.1832,
      "velocity": 102,
      "chip": "ym2612"
    },
    {
      "channel": 2,
      "note": 30,
      "start": 89.8032,
      "duration": 0.0814,
      "velocity": 127,
      "chip": "ym2612"
    },
    {
      "channel": 2,
      "note": 76,
      "start": 89.9013,
      "duration": 0.0834,
      "velocity": 127,
      "chip": "ym2612"
    },
    {
      "channel": 0,
      "note": 55,
      "start": 90.0014,
      "duration": 0.3832,
      "velocity": 102,
      "chip": "ym2612"
    },
    {
      "channel": 1,
      "note": 55,
      "start": 90.0016,
      "duration": 0.3829,
      "velocity": 102,
      "chip": "ym2612"
    },
    {
      "channel": 2,
      "note": 76,
      "start": 90.0033,
      "duration": 0.1812,
      "velocity": 127,
      "chip": "ym2612"
    },
    {
      "channel": 2,
      "note": 42,
      "start": 90.2028,
      "duration": 0.1819,
      "velocity": 127,
      "chip": "ym2612"
    },
    {
      "channel": 0,
      "note": 55,
      "start": 90.4014,
      "duration": 0.1831,
      "velocity": 102,
      "chip": "ym2612"
    },
    {
      "channel": 1,
      "note": 55,
      "start": 90.4016,
      "duration": 0.5829,
      "velocity": 102,
      "chip": "ym2612"
    },
    {
      "channel": 2,
      "note": 30,
      "start": 90.4019,
      "duration": 0.1827,
      "velocity": 127,
      "chip": "ym2612"
    },
    {
      "channel": 0,
      "note": 55,
      "start": 90.6014,
      "duration": 0.3831,
      "velocity": 102,
      "chip": "ym2612"
    },
    {
      "channel": 2,
      "note": 30,
      "start": 90.6032,
      "duration": 0.0814,
      "velocity": 127,
      "chip": "ym2612"
    },
    {
      "channel": 2,
      "note": 76,
      "start": 90.7013,
      "duration": 0.0833,
      "velocity": 127,
      "chip": "ym2612"
    },
    {
      "channel": 2,
      "note": 76,
      "start": 90.8028,
      "duration": 0.1819,
      "velocity": 127,
      "chip": "ym2612"
    },
    {
      "channel": 0,
      "note": 50,
      "start": 91.0014,
      "duration": 0.3831,
      "velocity": 102,
      "chip": "ym2612"
    },
    {
      "channel": 1,
      "note": 53,
      "start": 91.0017,
      "duration": 0.7829,
      "velocity": 102,
      "chip": "ym2612"
    },
    {
      "channel": 2,
      "note": 42,
      "start": 91.0034,
      "duration": 0.0811,
      "velocity": 127,
      "chip": "ym2612"
    },
    {
      "channel": 2,
      "note": 30,
      "start": 91.1027,
      "duration": 0.0819,
      "velocity": 127,
      "chip": "ym2612"
    },
    {
      "channel": 2,
      "note": 76,
      "start": 91.2029,
      "duration": 0.1817,
      "velocity": 127,
      "chip": "ym2612"
    },
    {
      "channel": 0,
      "note": 55,
      "start": 91.4013,
      "duration": 0.3832,
      "velocity": 102,
      "chip": "ym2612"
    },
    {
      "channel": 2,
      "note": 30,
      "start": 91.4031,
      "duration": 0.0815,
      "velocity": 127,
      "chip": "ym2612"
    },
    {
      "channel": 2,
      "note": 76,
      "start": 91.5014,
      "duration": 0.0832,
      "velocity": 127,
      "chip": "ym2612"
    },
    {
      "channel": 2,
      "note": 76,
      "start": 91.6028,
      "duration": 0.1819,
      "velocity": 127,
      "chip": "ym2612"
    },
    {
      "channel": 0,
      "note": 55,
      "start": 91.8015,
      "duration": 0.183,
      "velocity": 102,
      "chip": "ym2612"
    },
    {
      "channel": 1,
      "note": 50,
      "start": 91.8017,
      "duration": 0.3828,
      "velocity": 102,
      "chip": "ym2612"
    },
    {
      "channel": 2,
      "note": 42,
      "start": 91.8035,
      "duration": 0.0811,
      "velocity": 127,
      "chip": "ym2612"
    },
    {
      "channel": 2,
      "note": 76,
      "start": 91.9013,
      "duration": 0.0834,
      "velocity": 127,
      "chip": "ym2612"
    },
    {
      "channel": 0,
      "note": 55,
      "start": 92.0013,
      "duration": 0.1832,
      "velocity": 102,
      "chip": "ym2612"
    },
    {
      "channel": 2,
      "note": 76,
      "start": 92.0031,
      "duration": 0.1815,
      "velocity": 127,
      "chip": "ym2612"
    },
    {
      "channel": 0,
      "note": 57,
      "start": 92.2013,
      "duration": 0.1824,
      "velocity": 102,
      "chip": "ym2612"
    },
    {
      "channel": 1,
      "note": 50,
      "start": 92.2015,
      "duration": 0.1823,
      "velocity": 102,
      "chip": "ym2612"
    },
    {
      "channel": 2,
      "note": 30,
      "start": 92.2018,
      "duration": 0.0827,
      "velocity": 127,
      "chip": "ym2612"
    },
    {
      "channel": 2,
      "note": 30,
      "start": 92.3028,
      "duration": 0.0812,
      "velocity": 127,
      "chip": "ym2612"
    },
    {
      "channel": 0,
      "note": 58,
      "start": 92.4007,
      "duration": 0.183,
      "velocity": 102,
      "chip": "ym2612"
    },
    {
      "channel": 1,
      "note": 53,
      "start": 92.4009,
      "duration": 0.1829,
      "velocity": 102,
      "chip": "ym2612"
    },
    {
      "channel": 2,
      "note": 76,
      "start": 92.4026,
      "duration": 0.1814,
      "velocity": 127,
      "chip": "ym2612"
    },
    {
      "channel": 0,
      "note": 59,
      "start": 92.6006,
      "duration": 0.1831,
      "velocity": 102,
      "chip": "ym2612"
    },
    {
      "channel": 1,
      "note": 53,
      "start": 92.6009,
      "duration": 0.1829,
      "velocity": 102,
      "chip": "ym2612"
    },
    {
      "channel": 2,
      "note": 42,
      "start": 92.6025,
      "duration": 0.0813,
      "velocity": 127,
      "chip": "ym2612"
    },
    {
      "channel": 2,
      "note": 30,
      "start": 92.702,
      "duration": 0.0819,
      "velocity": 127,
      "chip": "ym2612"
    },
    {
      "channel": 0,
      "note": 65,
      "start": 92.8008,
      "duration": 0.3837,
      "velocity": 102,
      "chip": "ym2612"
    },
    {
      "channel": 2,
      "note": 76,
      "start": 92.804,
      "duration": 0.1806,
      "velocity": 127,
      "chip": "ym2612"
    },
    {
      "channel": 1,
      "note": 55,
      "start": 93.0013,
      "duration": 0.1833,
      "velocity": 102,
      "chip": "ym2612"
    },
    {
      "channel": 2,
      "note": 30,
      "start": 93.003,
      "duration": 0.0815,
      "velocity": 127,
      "chip": "ym2612"
    },
    {
      "channel": 2,
      "note": 76,
      "start": 93.1013,
      "duration": 0.0834,
      "velocity": 127,
      "chip": "ym2612"
    },
    {
      "channel": 0,
      "note": 55,
      "start": 93.2015,
      "duration": 0.1829,
      "velocity": 102,
      "chip": "ym2612"
    },
    {
      "channel": 1,
      "note": 55,
      "start": 93.2017,
      "duration": 0.3829,
      "velocity": 102,
      "chip": "ym2612"
    },
    {
      "channel": 2,
      "note": 76,
      "start": 93.2035,
      "duration": 0.1812,
      "velocity": 127,
      "chip": "ym2612"
    },
    {
      "channel": 0,
      "note": 55,
      "start": 93.4012,
      "duration": 0.1833,
      "velocity": 102,
      "chip": "ym2612"
    },
    {
      "channel": 2,
      "note": 42,
      "start": 93.403,
      "duration": 0.1817,
      "velocity": 127,
      "chip": "ym2612"
    },
    {
      "channel": 0,
      "note": 53,
      "start": 93.6014,
      "duration": 0.3831,
      "velocity": 102,
      "chip": "ym2612"
    },
    {
      "channel": 1,
      "note": 55,
      "start": 93.6016,
      "duration": 0.5829,
      "velocity": 102,
      "chip": "ym2612"
    },
    {
      "channel": 2,
      "note": 30,
      "start": 93.6019,
      "duration": 0.1827,
      "velocity": 127,
      "chip": "ym2612"
    },
    {
      "channel": 2,
      "note": 30,
      "start": 93.8028,
      "duration": 0.0819,
      "velocity": 127,
      "chip": "ym2612"
    },
    {
      "channel": 2,
      "note": 76,
      "start": 93.9014,
      "duration": 0.0832,
      "velocity": 127,
      "chip": "ym2612"
    },
    {
      "channel": 0,
      "note": 55,
      "start": 94.0014,
      "duration": 0.1832,
      "velocity": 102,
      "chip": "ym2612"
    },
    {
      "channel": 2,
      "note": 76,
      "start": 94.0032,
      "duration": 0.1815,
      "velocity": 127,
      "chip": "ym2612"
    },
    {
      "channel": 0,
      "note": 53,
      "start": 94.2015,
      "duration": 0.383,
      "velocity": 102,
      "chip": "ym2612"
    },
    {
      "channel": 1,
      "note": 53,
      "start": 94.2017,
      "duration": 0.7829,
      "velocity": 102,
      "chip": "ym2612"
    },
    {
      "channel": 2,
      "note": 42,
      "start": 94.2035,
      "duration": 0.0811,
      "velocity": 127,
      "chip": "ym2612"
    },
    {
      "channel": 2,
      "note": 30,
      "start": 94.3028,
      "duration": 0.0818,
      "velocity": 127,
      "chip": "ym2612"
    },
    {
      "channel": 2,
      "note": 76,
      "start": 94.4029,
      "duration": 0.1818,
      "velocity": 127,
      "chip": "ym2612"
    },
    {
      "channel": 0,
      "note": 55,
      "start": 94.6013,
      "duration": 0.3832,
      "velocity": 102,
      "chip": "ym2612"
    },
    {
      "channel": 2,
      "note": 30,
      "start": 94.6031,
      "duration": 0.0815,
      "velocity": 127,
      "chip": "ym2612"
    },
    {
      "channel": 2,
      "note": 76,
      "start": 94.7014,
      "duration": 0.0833,
      "velocity": 127,
      "chip": "ym2612"
    },
    {
      "channel": 2,
      "note": 76,
      "start": 94.8028,
      "duration": 0.1819,
      "velocity": 127,
      "chip": "ym2612"
    },
    {
      "channel": 0,
      "note": 55,
      "start": 95.0014,
      "duration": 0.1832,
      "velocity": 102,
      "chip": "ym2612"
    },
    {
      "channel": 1,
      "note": 50,
      "start": 95.0016,
      "duration": 0.3831,
      "velocity": 102,
      "chip": "ym2612"
    },
    {
      "channel": 2,
      "note": 42,
      "start": 95.0033,
      "duration": 0.0812,
      "velocity": 127,
      "chip": "ym2612"
    },
    {
      "channel": 2,
      "note": 76,
      "start": 95.1013,
      "duration": 0.0834,
      "velocity": 127,
      "chip": "ym2612"
    },
    {
      "channel": 0,
      "note": 55,
      "start": 95.2013,
      "duration": 0.1833,
      "velocity": 102,
      "chip": "ym2612"
    },
    {
      "channel": 2,
      "note": 76,
      "start": 95.2031,
      "duration": 0.1817,
      "velocity": 127,
      "chip": "ym2612"
    },
    {
      "channel": 0,
      "note": 55,
      "start": 95.4014,
      "duration": 0.1831,
      "velocity": 102,
      "chip": "ym2612"
    },
    {
      "channel": 1,
      "note": 50,
      "start": 95.4017,
      "duration": 0.1829,
      "velocity": 102,
      "chip": "ym2612"
    },
    {
      "channel": 2,
      "note": 30,
      "start": 95.4019,
      "duration": 0.0826,
      "velocity": 127,
      "chip": "ym2612"
    },
    {
      "channel": 2,
      "note": 30,
      "start": 95.5028,
      "duration": 0.0819,
      "velocity": 127,
      "chip": "ym2612"
    },
    {
      "channel": 0,
      "note": 50,
      "start": 95.6015,
      "duration": 0.383,
      "velocity": 102,
      "chip": "ym2612"
    },
    {
      "channel": 1,
      "note": 53,
      "start": 95.6017,
      "duration": 0.1828,
      "velocity": 102,
      "chip": "ym2612"
    },
    {
      "channel": 2,
      "note": 76,
      "start": 95.6034,
      "duration": 0.1813,
      "velocity": 127,
      "chip": "ym2612"
    },
    {
      "channel": 1,
      "note": 53,
      "start": 95.8014,
      "duration": 0.1833,
      "velocity": 102,
      "chip": "ym2612"
    },
    {
      "channel": 2,
      "note": 42,
      "start": 95.8031,
      "duration": 0.0815,
      "velocity": 127,
      "chip": "ym2612"
    },
    {
      "channel": 2,
      "note": 30,
      "start": 95.9028,
      "duration": 0.0819,
      "velocity": 127,
      "chip": "ym2612"
    },
    {
      "channel": 0,
      "note": 53,
      "start": 96.0015,
      "duration": 0.3822,
      "velocity": 102,
      "chip": "ym2612"
    },
    {
      "channel": 2,
      "note": 76,
      "start": 96.0047,
      "duration": 0.18,
      "velocity": 127,
      "chip": "ym2612"
    },
    {
      "channel": 1,
      "note": 55,
      "start": 96.2014,
      "duration": 0.1825,
      "velocity": 102,
      "chip": "ym2612"
    },
    {
      "channel": 2,
      "note": 30,
      "start": 96.2031,
      "duration": 0.0815,
      "velocity": 127,
      "chip": "ym2612"
    },
    {
      "channel": 2,
      "note": 76,
      "start": 96.3014,
      "duration": 0.0826,
      "velocity": 127,
      "chip": "ym2612"
    },
    {
      "channel": 0,
      "note": 55,
      "start": 96.4007,
      "duration": 0.1831,
      "velocity": 102,
      "chip": "ym2612"
    },
    {
      "channel": 1,
      "note": 55,
      "start": 96.401,
      "duration": 0.3828,
      "velocity": 102,
      "chip": "ym2612"
    },
    {
      "channel": 2,
      "note": 76,
      "start": 96.4027,
      "duration": 0.1812,
      "velocity": 127,
      "chip": "ym2612"
    },
    {
      "channel": 0,
      "note": 55,
      "start": 96.6006,
      "duration": 0.1831,
      "velocity": 102,
      "chip": "ym2612"
    },
    {
      "channel": 2,
      "note": 42,
      "start": 96.6023,
      "duration": 0.1816,
      "velocity": 127,
      "chip": "ym2612"
    },
    {
      "channel": 0,
      "note": 53,
      "start": 96.8006,
      "duration": 0.3858,
      "velocity": 102,
      "chip": "ym2612"
    },
    {
      "channel": 1,
      "note": 55,
      "start": 96.8009,
      "duration": 0.5855,
      "velocity": 102,
      "chip": "ym2612"
    },
    {
      "channel": 2,
      "note": 30,
      "start": 96.8011,
      "duration": 0.1853,
      "velocity": 127,
      "chip": "ym2612"
    },
    {
      "channel": 2,
      "note": 30,
      "start": 97.0047,
      "duration": 0.0816,
      "velocity": 127,
      "chip": "ym2612"
    },
    {
      "channel": 2,
      "note": 76,
      "start": 97.1032,
      "duration": 0.0833,
      "velocity": 127,
      "chip": "ym2612"
    },
    {
      "channel": 0,
      "note": 55,
      "start": 97.2032,
      "duration": 0.1831,
      "velocity": 102,
      "chip": "ym2612"
    },
    {
      "channel": 2,
      "note": 76,
      "start": 97.2049,
      "duration": 0.1816,
      "velocity": 127,
      "chip": "ym2612"
    },
    {
      "channel": 0,
      "note": 53,
      "start": 97.4033,
      "duration": 0.3817,
      "velocity": 102,
      "chip": "ym2612"
    },
    {
      "channel": 1,
      "note": 53,
      "start": 97.4035,
      "duration": 0.7829,
      "velocity": 102,
      "chip": "ym2612"
    },
    {
      "channel": 2,
      "note": 42,
      "start": 97.4052,
      "duration": 0.0798,
      "velocity": 127,
      "chip": "ym2612"
    },
    {
      "channel": 2,
      "note": 30,
      "start": 97.5032,
      "duration": 0.0818,
      "velocity": 127,
      "chip": "ym2612"
    },
    {
      "channel": 2,
      "note": 76,
      "start": 97.6033,
      "duration": 0.1818,
      "velocity": 127,
      "chip": "ym2612"
    },
    {
      "channel": 0,
      "note": 55,
      "start": 97.8017,
      "duration": 0.3845,
      "velocity": 102,
      "chip": "ym2612"
    },
    {
      "channel": 2,
      "note": 30,
      "start": 97.8035,
      "duration": 0.0815,
      "velocity": 127,
      "chip": "ym2612"
    },
    {
      "channel": 2,
      "note": 76,
      "start": 97.9018,
      "duration": 0.0845,
      "velocity": 127,
      "chip": "ym2612"
    },
    {
      "channel": 2,
      "note": 76,
      "start": 98.0047,
      "duration": 0.1818,
      "velocity": 127,
      "chip": "ym2612"
    },
    {
      "channel": 0,
      "note": 55,
      "start": 98.2033,
      "duration": 0.183,
      "velocity": 102,
      "chip": "ym2612"
    },
    {
      "channel": 1,
      "note": 50,
      "start": 98.2035,
      "duration": 0.3816,
      "velocity": 102,
      "chip": "ym2612"
    },
    {
      "channel": 2,
      "note": 42,
      "start": 98.2052,
      "duration": 0.0811,
      "velocity": 127,
      "chip": "ym2612"
    },
    {
      "channel": 2,
      "note": 76,
      "start": 98.3031,
      "duration": 0.0833,
      "velocity": 127,
      "chip": "ym2612"
    },
    {
      "channel": 0,
      "note": 57,
      "start": 98.4031,
      "duration": 0.1819,
      "velocity": 102,
      "chip": "ym2612"
    },
    {
      "channel": 2,
      "note": 76,
      "start": 98.4048,
      "duration": 0.1803,
      "velocity": 127,
      "chip": "ym2612"
    },
    {
      "channel": 0,
      "note": 58,
      "start": 98.6018,
      "duration": 0.1831,
      "velocity": 102,
      "chip": "ym2612"
    },
    {
      "channel": 1,
      "note": 50,
      "start": 98.6021,
      "duration": 0.183,
      "velocity": 102,
      "chip": "ym2612"
    },
    {
      "channel": 2,
      "note": 30,
      "start": 98.6023,
      "duration": 0.0826,
      "velocity": 127,
      "chip": "ym2612"
    },
    {
      "channel": 2,
      "note": 30,
      "start": 98.7033,
      "duration": 0.082,
      "velocity": 127,
      "chip": "ym2612"
    },
    {
      "channel": 0,
      "note": 59,
      "start": 98.8019,
      "duration": 0.3845,
      "velocity": 102,
      "chip": "ym2612"
    },
    {
      "channel": 1,
      "note": 53,
      "start": 98.8021,
      "duration": 0.1828,
      "velocity": 102,
      "chip": "ym2612"
    },
    {
      "channel": 2,
      "note": 76,
      "start": 98.8038,
      "duration": 0.1812,
      "velocity": 127,
      "chip": "ym2612"
    },
    {
      "channel": 1,
      "note": 53,
      "start": 99.0017,
      "duration": 0.1847,
      "velocity": 102,
      "chip": "ym2612"
    },
    {
      "channel": 2,
      "note": 42,
      "start": 99.0034,
      "duration": 0.0829,
      "velocity": 127,
      "chip": "ym2612"
    },
    {
      "channel": 2,
      "note": 30,
      "start": 99.1047,
      "duration": 0.0819,
      "velocity": 127,
      "chip": "ym2612"
    },
    {
      "channel": 0,
      "note": 65,
      "start": 99.2033,
      "duration": 0.3815,
      "velocity": 102,
      "chip": "ym2612"
    },
    {
      "channel": 2,
      "note": 76,
      "start": 99.2066,
      "duration": 0.1799,
      "velocity": 127,
      "chip": "ym2612"
    },
    {
      "channel": 1,
      "note": 55,
      "start": 99.4032,
      "duration": 0.1818,
      "velocity": 102,
      "chip": "ym2612"
    },
    {
      "channel": 2,
      "note": 30,
      "start": 99.4049,
      "duration": 0.0816,
      "velocity": 127,
      "chip": "ym2612"
    },
    {
      "channel": 2,
      "note": 76,
      "start": 99.5032,
      "duration": 0.0819,
      "velocity": 127,
      "chip": "ym2612"
    },
    {
      "channel": 0,
      "note": 55,
      "start": 99.6019,
      "duration": 0.3831,
      "velocity": 102,
      "chip": "ym2612"
    },
    {
      "channel": 1,
      "note": 55,
      "start": 99.6021,
      "duration": 0.3829,
      "velocity": 102,
      "chip": "ym2612"
    },
    {
      "channel": 2,
      "note": 76,
      "start": 99.6038,
      "duration": 0.1812,
      "velocity": 127,
      "chip": "ym2612"
    },
    {
      "channel": 2,
      "note": 42,
      "start": 99.8032,
      "duration": 0.182,
      "velocity": 127,
      "chip": "ym2612"
    },
    {
      "channel": 0,
      "note": 55,
      "start": 100.0018,
      "duration": 0.3819,
      "velocity": 102,
      "chip": "ym2612"
    },
    {
      "channel": 1,
      "note": 55,
      "start": 100.0021,
      "duration": 0.5817,
      "velocity": 102,
      "chip": "ym2612"
    },
    {
      "channel": 2,
      "note": 30,
      "start": 100.0023,
      "duration": 0.1841,
      "velocity": 127,
      "chip": "ym2612"
    },
    {
      "channel": 2,
      "note": 30,
      "start": 100.2046,
      "duration": 0.0818,
      "velocity": 127,
      "chip": "ym2612"
    },
    {
      "channel": 2,
      "note": 76,
      "start": 100.3032,
      "duration": 0.0808,
      "velocity": 127,
      "chip": "ym2612"
    },
    {
      "channel": 0,
      "note": 55,
      "start": 100.4005,
      "duration": 0.1831,
      "velocity": 102,
      "chip": "ym2612"
    },
    {
      "channel": 2,
      "note": 76,
      "start": 100.4023,
      "duration": 0.1816,
      "velocity": 127,
      "chip": "ym2612"
    },
    {
      "channel": 0,
      "note": 53,
      "start": 100.6007,
      "duration": 0.384,
      "velocity": 102,
      "chip": "ym2612"
    },
    {
      "channel": 1,
      "note": 53,
      "start": 100.6009,
      "duration": 0.7837,
      "velocity": 102,
      "chip": "ym2612"
    },
    {
      "channel": 2,
      "note": 42,
      "start": 100.6026,
      "duration": 0.0812,
      "velocity": 127,
      "chip": "ym2612"
    },
    {
      "channel": 2,
      "note": 30,
      "start": 100.7021,
      "duration": 0.0818,
      "velocity": 127,
      "chip": "ym2612"
    },
    {
      "channel": 2,
      "note": 76,
      "start": 100.8021,
      "duration": 0.1828,
      "velocity": 127,
      "chip": "ym2612"
    },
    {
      "channel": 0,
      "note": 55,
      "start": 101.0014,
      "duration": 0.383,
      "velocity": 102,
      "chip": "ym2612"
    },
    {
      "channel": 2,
      "note": 30,
      "start": 101.0032,
      "duration": 0.0815,
      "velocity": 127,
      "chip": "ym2612"
    },
    {
      "channel": 2,
      "note": 76,
      "start": 101.1014,
      "duration": 0.0831,
      "velocity": 127,
      "chip": "ym2612"
    },
    {
      "channel": 2,
      "note": 76,
      "start": 101.2028,
      "duration": 0.1819,
      "velocity": 127,
      "chip": "ym2612"
    },
    {
      "channel": 0,
      "note": 55,
      "start": 101.4014,
      "duration": 0.1831,
      "velocity": 102,
      "chip": "ym2612"
    },
    {
      "channel": 1,
      "note": 50,
      "start": 101.4016,
      "duration": 0.3832,
      "velocity": 102,
      "chip": "ym2612"
    },
    {
      "channel": 2,
      "note": 42,
      "start": 101.4019,
      "duration": 0.1827,
      "velocity": 127,
      "chip": "ym2612"
    },
    {
      "channel": 0,
      "note": 55,
      "start": 101.6012,
      "duration": 0.1835,
      "velocity": 102,
      "chip": "ym2612"
    },
    {
      "channel": 2,
      "note": 42,
      "start": 101.6015,
      "duration": 0.1834,
      "velocity": 127,
      "chip": "ym2612"
    },
    {
      "channel": 0,
      "note": 55,
      "start": 101.8014,
      "duration": 0.1832,
      "velocity": 102,
      "chip": "ym2612"
    },
    {
      "channel": 1,
      "note": 50,
      "start": 101.8017,
      "duration": 0.1831,
      "velocity": 102,
      "chip": "ym2612"
    },
    {
      "channel": 2,
      "note": 42,
      "start": 101.8019,
      "duration": 0.1829,
      "velocity": 127,
      "chip": "ym2612"
    },
    {
      "channel": 0,
      "note": 50,
      "start": 102.0014,
      "duration": 0.1833,
      "velocity": 102,
      "chip": "ym2612"
    },
    {
      "channel": 1,
      "note": 53,
      "start": 102.0016,
      "duration": 0.1832,
      "velocity": 102,
      "chip": "ym2612"
    },
    {
      "channel": 2,
      "note": 42,
      "start": 102.0019,
      "duration": 0.183,
      "velocity": 127,
      "chip": "ym2612"
    },
    {
      "channel": 0,
      "note": 53,
      "start": 102.2015,
      "duration": 0.1829,
      "velocity": 102,
      "chip": "ym2612"
    },
    {
      "channel": 1,
      "note": 53,
      "start": 102.2017,
      "duration": 0.1828,
      "velocity": 102,
      "chip": "ym2612"
    },
    {
      "channel": 2,
      "note": 42,
      "start": 102.202,
      "duration": 0.0825,
      "velocity": 127,
      "chip": "ym2612"
    },
    {
      "channel": 2,
      "note": 42,
      "start": 102.3012,
      "duration": 0.0835,
      "velocity": 127,
      "chip": "ym2612"
    },
    {
      "channel": 0,
      "note": 50,
      "start": 102.4031,
      "duration": 0.3816,
      "velocity": 102,
      "chip": "ym2612"
    },
    {
      "channel": 2,
      "note": 42,
      "start": 102.4063,
      "duration": 0.1784,
      "velocity": 127,
      "chip": "ym2612"
    },
    {
      "channel": 1,
      "note": 55,
      "start": 102.6014,
      "duration": 0.1835,
      "velocity": 102,
      "chip": "ym2612"
    },
    {
      "channel": 2,
      "note": 30,
      "start": 102.6031,
      "duration": 0.0815,
      "velocity": 127,
      "chip": "ym2612"
    },
    {
      "channel": 2,
      "note": 76,
      "start": 102.7014,
      "duration": 0.0835,
      "velocity": 127,
      "chip": "ym2612"
    },
    {
      "channel": 0,
      "note": 57,
      "start": 102.8015,
      "duration": 0.3831,
      "velocity": 102,
      "chip": "ym2612"
    },
    {
      "channel": 1,
      "note": 57,
      "start": 102.8018,
      "duration": 0.3829,
      "velocity": 102,
      "chip": "ym2612"
    },
    {
      "channel": 2,
      "note": 76,
      "start": 102.8035,
      "duration": 0.1812,
      "velocity": 127,
      "chip": "ym2612"
    },
    {
      "channel": 2,
      "note": 42,
      "start": 103.0029,
      "duration": 0.182,
      "velocity": 127,
      "chip": "ym2612"
    },
    {
      "channel": 0,
      "note": 57,
      "start": 103.2015,
      "duration": 0.183,
      "velocity": 102,
      "chip": "ym2612"
    },
    {
      "channel": 1,
      "note": 57,
      "start": 103.2017,
      "duration": 0.5828,
      "velocity": 102,
      "chip": "ym2612"
    },
    {
      "channel": 2,
      "note": 30,
      "start": 103.202,
      "duration": 0.1826,
      "velocity": 127,
      "chip": "ym2612"
    },
    {
      "channel": 0,
      "note": 57,
      "start": 103.4013,
      "duration": 0.3832,
      "velocity": 102,
      "chip": "ym2612"
    },
    {
      "channel": 2,
      "note": 30,
      "start": 103.403,
      "duration": 0.0815,
      "velocity": 127,
      "chip": "ym2612"
    },
    {
      "channel": 2,
      "note": 76,
      "start": 103.5014,
      "duration": 0.0832,
      "velocity": 127,
      "chip": "ym2612"
    },
    {
      "channel": 2,
      "note": 76,
      "start": 103.6028,
      "duration": 0.1819,
      "velocity": 127,
      "chip": "ym2612"
    },
    {
      "channel": 0,
      "note": 52,
      "start": 103.8014,
      "duration": 0.3833,
      "velocity": 102,
      "chip": "ym2612"
    },
    {
      "channel": 1,
      "note": 55,
      "start": 103.8016,
      "duration": 0.7823,
      "velocity": 102,
      "chip": "ym2612"
    },
    {
      "channel": 2,
      "note": 42,
      "start": 103.8033,
      "duration": 0.0814,
      "velocity": 127,
      "chip": "ym2612"
    },
    {
      "channel": 2,
      "note": 30,
      "start": 103.903,
      "duration": 0.0817,
      "velocity": 127,
      "chip": "ym2612"
    },
    {
      "channel": 2,
      "note": 76,
      "start": 104.0029,
      "duration": 0.1818,
      "velocity": 127,
      "chip": "ym2612"
    },
    {
      "channel": 0,
      "note": 57,
      "start": 104.2014,
      "duration": 0.3823,
      "velocity": 102,
      "chip": "ym2612"
    },
    {
      "channel": 2,
      "note": 30,
      "start": 104.2032,
      "duration": 0.0815,
      "velocity": 127,
      "chip": "ym2612"
    },
    {
      "channel": 2,
      "note": 76,
      "start": 104.3014,
      "duration": 0.0824,
      "velocity": 127,
      "chip": "ym2612"
    },
    {
      "channel": 2,
      "note": 76,
      "start": 104.4021,
      "duration": 0.1819,
      "velocity": 127,
      "chip": "ym2612"
    },
    {
      "channel": 0,
      "note": 57,
      "start": 104.6007,
      "duration": 0.183,
      "velocity": 102,
      "chip": "ym2612"
    },
    {
      "channel": 1,
      "note": 52,
      "start": 104.6009,
      "duration": 0.3836,
      "velocity": 102,
      "chip": "ym2612"
    },
    {
      "channel": 2,
      "note": 42,
      "start": 104.6026,
      "duration": 0.0813,
      "velocity": 127,
      "chip": "ym2612"
    },
    {
      "channel": 2,
      "note": 76,
      "start": 104.7006,
      "duration": 0.0832,
      "velocity": 127,
      "chip": "ym2612"
    },
    {
      "channel": 0,
      "note": 57,
      "start": 104.8006,
      "duration": 0.1838,
      "velocity": 102,
      "chip": "ym2612"
    },
    {
      "channel": 2,
      "note": 76,
      "start": 104.8024,
      "duration": 0.1822,
      "velocity": 127,
      "chip": "ym2612"
    },
    {
      "channel": 0,
      "note": 59,
      "start": 105.0014,
      "duration": 0.183,
      "velocity": 102,
      "chip": "ym2612"
    },
    {
      "channel": 1,
      "note": 52,
      "start": 105.0017,
      "duration": 0.1829,
      "velocity": 102,
      "chip": "ym2612"
    },
    {
      "channel": 2,
      "note": 30,
      "start": 105.0019,
      "duration": 0.0826,
      "velocity": 127,
      "chip": "ym2612"
    },
    {
      "channel": 2,
      "note": 30,
      "start": 105.1028,
      "duration": 0.0819,
      "velocity": 127,
      "chip": "ym2612"
    },
    {
      "channel": 0,
      "note": 60,
      "start": 105.2013,
      "duration": 0.1832,
      "velocity": 102,
      "chip": "ym2612"
    },
    {
      "channel": 1,
      "note": 55,
      "start": 105.2015,
      "duration": 0.183,
      "velocity": 102,
      "chip": "ym2612"
    },
    {
      "channel": 2,
      "note": 76,
      "start": 105.2032,
      "duration": 0.1815,
      "velocity": 127,
      "chip": "ym2612"
    },
    {
      "channel": 0,
      "note": 61,
      "start": 105.4014,
      "duration": 0.1845,
      "velocity": 102,
      "chip": "ym2612"
    },
    {
      "channel": 1,
      "note": 55,
      "start": 105.4016,
      "duration": 0.1843,
      "velocity": 102,
      "chip": "ym2612"
    },
    {
      "channel": 2,
      "note": 42,
      "start": 105.4033,
      "duration": 0.0826,
      "velocity": 127,
      "chip": "ym2612"
    },
    {
      "channel": 2,
      "note": 30,
      "start": 105.5041,
      "duration": 0.0819,
      "velocity": 127,
      "chip": "ym2612"
    },
    {
      "channel": 0,
      "note": 67,
      "start": 105.6028,
      "duration": 0.3816,
      "velocity": 102,
      "chip": "ym2612"
    },
    {
      "channel": 2,
      "note": 76,
      "start": 105.6061,
      "duration": 0.1799,
      "velocity": 127,
      "chip": "ym2612"
    },
    {
      "channel": 1,
      "note": 57,
      "start": 105.8028,
      "duration": 0.1818,
      "velocity": 102,
      "chip": "ym2612"
    },
    {
      "channel": 2,
      "note": 30,
      "start": 105.8045,
      "duration": 0.0815,
      "velocity": 127,
      "chip": "ym2612"
    },
    {
      "channel": 2,
      "note": 76,
      "start": 105.9026,
      "duration": 0.082,
      "velocity": 127,
      "chip": "ym2612"
    },
    {
      "channel": 0,
      "note": 57,
      "start": 106.0014,
      "duration": 0.1831,
      "velocity": 102,
      "chip": "ym2612"
    },
    {
      "channel": 1,
      "note": 57,
      "start": 106.0017,
      "duration": 0.3828,
      "velocity": 102,
      "chip": "ym2612"
    },
    {
      "channel": 2,
      "note": 76,
      "start": 106.0034,
      "duration": 0.1812,
      "velocity": 127,
      "chip": "ym2612"
    },
    {
      "channel": 0,
      "note": 57,
      "start": 106.2013,
      "duration": 0.1831,
      "velocity": 102,
      "chip": "ym2612"
    },
    {
      "channel": 2,
      "note": 42,
      "start": 106.203,
      "duration": 0.1816,
      "velocity": 127,
      "chip": "ym2612"
    },
    {
      "channel": 0,
      "note": 55,
      "start": 106.4014,
      "duration": 0.3845,
      "velocity": 102,
      "chip": "ym2612"
    },
    {
      "channel": 1,
      "note": 57,
      "start": 106.4017,
      "duration": 0.5843,
      "velocity": 102,
      "chip": "ym2612"
    },
    {
      "channel": 2,
      "note": 30,
      "start": 106.4019,
      "duration": 0.184,
      "velocity": 127,
      "chip": "ym2612"
    },
    {
      "channel": 2,
      "note": 30,
      "start": 106.6042,
      "duration": 0.0818,
      "velocity": 127,
      "chip": "ym2612"
    },
    {
      "channel": 2,
      "note": 76,
      "start": 106.7027,
      "duration": 0.0833,
      "velocity": 127,
      "chip": "ym2612"
    },
    {
      "channel": 0,
      "note": 57,
      "start": 106.8027,
      "duration": 0.1832,
      "velocity": 102,
      "chip": "ym2612"
    },
    {
      "channel": 2,
      "note": 76,
      "start": 106.8044,
      "duration": 0.1816,
      "velocity": 127,
      "chip": "ym2612"
    },
    {
      "channel": 0,
      "note": 55,
      "start": 107.0028,
      "duration": 0.3817,
      "velocity": 102,
      "chip": "ym2612"
    },
    {
      "channel": 1,
      "note": 55,
      "start": 107.0031,
      "duration": 0.7829,
      "velocity": 102,
      "chip": "ym2612"
    },
    {
      "channel": 2,
      "note": 42,
      "start": 107.0048,
      "duration": 0.0797,
      "velocity": 127,
      "chip": "ym2612"
    },
    {
      "channel": 2,
      "note": 30,
      "start": 107.1027,
      "duration": 0.0819,
      "velocity": 127,
      "chip": "ym2612"
    },
    {
      "channel": 2,
      "note": 76,
      "start": 107.2029,
      "duration": 0.1818,
      "velocity": 127,
      "chip": "ym2612"
    },
    {
      "channel": 0,
      "note": 57,
      "start": 107.4013,
      "duration": 0.3846,
      "velocity": 102,
      "chip": "ym2612"
    },
    {
      "channel": 2,
      "note": 30,
      "start": 107.4031,
      "duration": 0.0815,
      "velocity": 127,
      "chip": "ym2612"
    },
    {
      "channel": 2,
      "note": 76,
      "start": 107.5014,
      "duration": 0.0847,
      "velocity": 127,
      "chip": "ym2612"
    },
    {
      "channel": 2,
      "note": 76,
      "start": 107.6042,
      "duration": 0.1818,
      "velocity": 127,
      "chip": "ym2612"
    },
    {
      "channel": 0,
      "note": 57,
      "start": 107.8028,
      "duration": 0.1831,
      "velocity": 102,
      "chip": "ym2612"
    },
    {
      "channel": 1,
      "note": 52,
      "start": 107.8031,
      "duration": 0.3815,
      "velocity": 102,
      "chip": "ym2612"
    },
    {
      "channel": 2,
      "note": 42,
      "start": 107.8048,
      "duration": 0.0811,
      "velocity": 127,
      "chip": "ym2612"
    },
    {
      "channel": 2,
      "note": 76,
      "start": 107.9026,
      "duration": 0.0834,
      "velocity": 127,
      "chip": "ym2612"
    },
    {
      "channel": 0,
      "note": 57,
      "start": 108.0027,
      "duration": 0.1817,
      "velocity": 102,
      "chip": "ym2612"
    },
    {
      "channel": 2,
      "note": 76,
      "start": 108.0044,
      "duration": 0.1803,
      "velocity": 127,
      "chip": "ym2612"
    },
    {
      "channel": 0,
      "note": 57,
      "start": 108.2013,
      "duration": 0.1832,
      "velocity": 102,
      "chip": "ym2612"
    },
    {
      "channel": 1,
      "note": 52,
      "start": 108.2015,
      "duration": 0.183,
      "velocity": 102,
      "chip": "ym2612"
    },
    {
      "channel": 2,
      "note": 30,
      "start": 108.2018,
      "duration": 0.0827,
      "velocity": 127,
      "chip": "ym2612"
    },
    {
      "channel": 2,
      "note": 30,
      "start": 108.3028,
      "duration": 0.0819,
      "velocity": 127,
      "chip": "ym2612"
    },
    {
      "channel": 0,
      "note": 52,
      "start": 108.4007,
      "duration": 0.3831,
      "velocity": 102,
      "chip": "ym2612"
    },
    {
      "channel": 1,
      "note": 55,
      "start": 108.4009,
      "duration": 0.1829,
      "velocity": 102,
      "chip": "ym2612"
    },
    {
      "channel": 2,
      "note": 76,
      "start": 108.4026,
      "duration": 0.1812,
      "velocity": 127,
      "chip": "ym2612"
    },
    {
      "channel": 1,
      "note": 55,
      "start": 108.6006,
      "duration": 0.1833,
      "velocity": 102,
      "chip": "ym2612"
    },
    {
      "channel": 2,
      "note": 42,
      "start": 108.6022,
      "duration": 0.0816,
      "velocity": 127,
      "chip": "ym2612"
    },
    {
      "channel": 2,
      "note": 30,
      "start": 108.702,
      "duration": 0.0819,
      "velocity": 127,
      "chip": "ym2612"
    },
    {
      "channel": 0,
      "note": 55,
      "start": 108.8007,
      "duration": 0.3838,
      "velocity": 102,
      "chip": "ym2612"
    },
    {
      "channel": 2,
      "note": 76,
      "start": 108.804,
      "duration": 0.1806,
      "velocity": 127,
      "chip": "ym2612"
    },
    {
      "channel": 1,
      "note": 57,
      "start": 109.0014,
      "duration": 0.1833,
      "velocity": 102,
      "chip": "ym2612"
    },
    {
      "channel": 2,
      "note": 30,
      "start": 109.0031,
      "duration": 0.0815,
      "velocity": 127,
      "chip": "ym2612"
    },
    {
      "channel": 2,
      "note": 76,
      "start": 109.1014,
      "duration": 0.0834,
      "velocity": 127,
      "chip": "ym2612"
    },
    {
      "channel": 0,
      "note": 57,
      "start": 109.2014,
      "duration": 0.183,
      "velocity": 102,
      "chip": "ym2612"
    },
    {
      "channel": 1,
      "note": 57,
      "start": 109.2017,
      "duration": 0.3829,
      "velocity": 102,
      "chip": "ym2612"
    },
    {
      "channel": 2,
      "note": 76,
      "start": 109.2034,
      "duration": 0.1812,
      "velocity": 127,
      "chip": "ym2612"
    },
    {
      "channel": 0,
      "note": 57,
      "start": 109.4013,
      "duration": 0.1833,
      "velocity": 102,
      "chip": "ym2612"
    },
    {
      "channel": 2,
      "note": 42,
      "start": 109.403,
      "duration": 0.1817,
      "velocity": 127,
      "chip": "ym2612"
    },
    {
      "channel": 0,
      "note": 55,
      "start": 109.6014,
      "duration": 0.383,
      "velocity": 102,
      "chip": "ym2612"
    },
    {
      "channel": 1,
      "note": 57,
      "start": 109.6017,
      "duration": 0.5829,
      "velocity": 102,
      "chip": "ym2612"
    },
    {
      "channel": 2,
      "note": 30,
      "start": 109.6019,
      "duration": 0.1827,
      "velocity": 127,
      "chip": "ym2612"
    },
    {
      "channel": 2,
      "note": 30,
      "start": 109.8028,
      "duration": 0.0818,
      "velocity": 127,
      "chip": "ym2612"
    },
    {
      "channel": 2,
      "note": 76,
      "start": 109.9014,
      "duration": 0.0832,
      "velocity": 127,
      "chip": "ym2612"
    },
    {
      "channel": 0,
      "note": 57,
      "start": 110.0014,
      "duration": 0.1832,
      "velocity": 102,
      "chip": "ym2612"
    },
    {
      "channel": 2,
      "note": 76,
      "start": 110.0032,
      "duration": 0.1816,
      "velocity": 127,
      "chip": "ym2612"
    },
    {
      "channel": 0,
      "note": 55,
      "start": 110.2015,
      "duration": 0.3829,
      "velocity": 102,
      "chip": "ym2612"
    },
    {
      "channel": 1,
      "note": 55,
      "start": 110.2017,
      "duration": 0.7828,
      "velocity": 102,
      "chip": "ym2612"
    },
    {
      "channel": 2,
      "note": 42,
      "start": 110.2035,
      "duration": 0.0811,
      "velocity": 127,
      "chip": "ym2612"
    },
    {
      "channel": 2,
      "note": 30,
      "start": 110.3028,
      "duration": 0.0818,
      "velocity": 127,
      "chip": "ym2612"
    },
    {
      "channel": 2,
      "note": 76,
      "start": 110.4028,
      "duration": 0.1819,
      "velocity": 127,
      "chip": "ym2612"
    },
    {
      "channel": 0,
      "note": 57,
      "start": 110.6014,
      "duration": 0.3831,
      "velocity": 102,
      "chip": "ym2612"
    },
    {
      "channel": 2,
      "note": 30,
      "start": 110.6032,
      "duration": 0.0814,
      "velocity": 127,
      "chip": "ym2612"
    },
    {
      "channel": 2,
      "note": 76,
      "start": 110.7013,
      "duration": 0.0833,
      "velocity": 127,
      "chip": "ym2612"
    },
    {
      "channel": 2,
      "note": 76,
      "start": 110.8028,
      "duration": 0.1819,
      "velocity": 127,
      "chip": "ym2612"
    },
    {
      "channel": 0,
      "note": 57,
      "start": 111.0014,
      "duration": 0.183,
      "velocity": 102,
      "chip": "ym2612"
    },
    {
      "channel": 1,
      "note": 52,
      "start": 111.0017,
      "duration": 0.3829,
      "velocity": 102,
      "chip": "ym2612"
    },
    {
      "channel": 2,
      "note": 42,
      "start": 111.0034,
      "duration": 0.0811,
      "velocity": 127,
      "chip": "ym2612"
    },
    {
      "channel": 2,
      "note": 76,
      "start": 111.1012,
      "duration": 0.0834,
      "velocity": 127,
      "chip": "ym2612"
    },
    {
      "channel": 0,
      "note": 59,
      "start": 111.2012,
      "duration": 0.1833,
      "velocity": 102,
      "chip": "ym2612"
    },
    {
      "channel": 2,
      "note": 76,
      "start": 111.203,
      "duration": 0.1817,
      "velocity": 127,
      "chip": "ym2612"
    },
    {
      "channel": 0,
      "note": 60,
      "start": 111.4014,
      "duration": 0.1832,
      "velocity": 102,
      "chip": "ym2612"
    },
    {
      "channel": 1,
      "note": 52,
      "start": 111.4016,
      "duration": 0.1831,
      "velocity": 102,
      "chip": "ym2612"
    },
    {
      "channel": 2,
      "note": 30,
      "start": 111.4019,
      "duration": 0.0827,
      "velocity": 127,
      "chip": "ym2612"
    },
    {
      "channel": 2,
      "note": 30,
      "start": 111.5028,
      "duration": 0.0819,
      "velocity": 127,
      "chip": "ym2612"
    },
    {
      "channel": 0,
      "note": 61,
      "start": 111.6014,
      "duration": 0.383,
      "velocity": 102,
      "chip": "ym2612"
    },
    {
      "channel": 1,
      "note": 55,
      "start": 111.6017,
      "duration": 0.1828,
      "velocity": 102,
      "chip": "ym2612"
    },
    {
      "channel": 2,
      "note": 76,
      "start": 111.6033,
      "duration": 0.1813,
      "velocity": 127,
      "chip": "ym2612"
    },
    {
      "channel": 1,
      "note": 55,
      "start": 111.8013,
      "duration": 0.1833,
      "velocity": 102,
      "chip": "ym2612"
    },
    {
      "channel": 2,
      "note": 42,
      "start": 111.803,
      "duration": 0.0815,
      "velocity": 127,
      "chip": "ym2612"
    },
    {
      "channel": 2,
      "note": 30,
      "start": 111.9028,
      "duration": 0.0819,
      "velocity": 127,
      "chip": "ym2612"
    },
    {
      "channel": 0,
      "note": 67,
      "start": 112.0014,
      "duration": 0.383,
      "velocity": 102,
      "chip": "ym2612"
    },
    {
      "channel": 2,
      "note": 76,
      "start": 112.0047,
      "duration": 0.1798,
      "velocity": 127,
      "chip": "ym2612"
    },
    {
      "channel": 1,
      "note": 57,
      "start": 112.2014,
      "duration": 0.1831,
      "velocity": 102,
      "chip": "ym2612"
    },
    {
      "channel": 2,
      "note": 30,
      "start": 112.2031,
      "duration": 0.0814,
      "velocity": 127,
      "chip": "ym2612"
    },
    {
      "channel": 2,
      "note": 76,
      "start": 112.3012,
      "duration": 0.0835,
      "velocity": 127,
      "chip": "ym2612"
    },
    {
      "channel": 0,
      "note": 57,
      "start": 112.4015,
      "duration": 0.3823,
      "velocity": 102,
      "chip": "ym2612"
    },
    {
      "channel": 1,
      "note": 57,
      "start": 112.4017,
      "duration": 0.3822,
      "velocity": 102,
      "chip": "ym2612"
    },
    {
      "channel": 2,
      "note": 76,
      "start": 112.4034,
      "duration": 0.1804,
      "velocity": 127,
      "chip": "ym2612"
    },
    {
      "channel": 2,
      "note": 42,
      "start": 112.602,
      "duration": 0.182,
      "velocity": 127,
      "chip": "ym2612"
    },
    {
      "channel": 0,
      "note": 57,
      "start": 112.8005,
      "duration": 0.384,
      "velocity": 102,
      "chip": "ym2612"
    },
    {
      "channel": 1,
      "note": 57,
      "start": 112.8008,
      "duration": 0.5838,
      "velocity": 102,
      "chip": "ym2612"
    },
    {
      "channel": 2,
      "note": 30,
      "start": 112.801,
      "duration": 0.1835,
      "velocity": 127,
      "chip": "ym2612"
    },
    {
      "channel": 2,
      "note": 30,
      "start": 113.0029,
      "duration": 0.0818,
      "velocity": 127,
      "chip": "ym2612"
    },
    {
      "channel": 2,
      "note": 76,
      "start": 113.1013,
      "duration": 0.0833,
      "velocity": 127,
      "chip": "ym2612"
    },
    {
      "channel": 0,
      "note": 57,
      "start": 113.2014,
      "duration": 0.183,
      "velocity": 102,
      "chip": "ym2612"
    },
    {
      "channel": 2,
      "note": 76,
      "start": 113.2032,
      "duration": 0.1815,
      "velocity": 127,
      "chip": "ym2612"
    },
    {
      "channel": 0,
      "note": 55,
      "start": 113.4014,
      "duration": 0.383,
      "velocity": 102,
      "chip": "ym2612"
    },
    {
      "channel": 1,
      "note": 55,
      "start": 113.4017,
      "duration": 0.7829,
      "velocity": 102,
      "chip": "ym2612"
    },
    {
      "channel": 2,
      "note": 42,
      "start": 113.4034,
      "duration": 0.0811,
      "velocity": 127,
      "chip": "ym2612"
    },
    {
      "channel": 2,
      "note": 30,
      "start": 113.5028,
      "duration": 0.0818,
      "velocity": 127,
      "chip": "ym2612"
    },
    {
      "channel": 2,
      "note": 76,
      "start": 113.6028,
      "duration": 0.1817,
      "velocity": 127,
      "chip": "ym2612"
    },
    {
      "channel": 0,
      "note": 57,
      "start": 113.8012,
      "duration": 0.3833,
      "velocity": 102,
      "chip": "ym2612"
    },
    {
      "channel": 2,
      "note": 30,
      "start": 113.803,
      "duration": 0.0815,
      "velocity": 127,
      "chip": "ym2612"
    },
    {
      "channel": 2,
      "note": 76,
      "start": 113.9013,
      "duration": 0.0833,
      "velocity": 127,
      "chip": "ym2612"
    },
    {
      "channel": 2,
      "note": 76,
      "start": 114.0029,
      "duration": 0.1819,
      "velocity": 127,
      "chip": "ym2612"
    },
    {
      "channel": 0,
      "note": 57,
      "start": 114.2014,
      "duration": 0.1831,
      "velocity": 102,
      "chip": "ym2612"
    },
    {
      "channel": 1,
      "note": 52,
      "start": 114.2017,
      "duration": 0.3829,
      "velocity": 102,
      "chip": "ym2612"
    },
    {
      "channel": 2,
      "note": 42,
      "start": 114.2019,
      "duration": 0.1828,
      "velocity": 127,
      "chip": "ym2612"
    },
    {
      "channel": 0,
      "note": 57,
      "start": 114.4012,
      "duration": 0.1833,
      "velocity": 102,
      "chip": "ym2612"
    },
    {
      "channel": 2,
      "note": 42,
      "start": 114.4015,
      "duration": 0.1833,
      "velocity": 127,
      "chip": "ym2612"
    },
    {
      "channel": 0,
      "note": 57,
      "start": 114.6012,
      "duration": 0.1833,
      "velocity": 102,
      "chip": "ym2612"
    },
    {
      "channel": 1,
      "note": 52,
      "start": 114.6015,
      "duration": 0.1831,
      "velocity": 102,
      "chip": "ym2612"
    },
    {
      "channel": 2,
      "note": 42,
      "start": 114.6017,
      "duration": 0.183,
      "velocity": 127,
      "chip": "ym2612"
    },
    {
      "channel": 0,
      "note": 52,
      "start": 114.8012,
      "duration": 0.1833,
      "velocity": 102,
      "chip": "ym2612"
    },
    {
      "channel": 1,
      "note": 55,
      "start": 114.8015,
      "duration": 0.1831,
      "velocity": 102,
      "chip": "ym2612"
    },
    {
      "channel": 2,
      "note": 42,
      "start": 114.8017,
      "duration": 0.1829,
      "velocity": 127,
      "chip": "ym2612"
    },
    {
      "channel": 0,
      "note": 55,
      "start": 115.0014,
      "duration": 0.1832,
      "velocity": 102,
      "chip": "ym2612"
    },
    {
      "channel": 1,
      "note": 55,
      "start": 115.0016,
      "duration": 0.1831,
      "velocity": 102,
      "chip": "ym2612"
    },
    {
      "channel": 2,
      "note": 42,
      "start": 115.0019,
      "duration": 0.0827,
      "velocity": 127,
      "chip": "ym2612"
    },
    {
      "channel": 2,
      "note": 42,
      "start": 115.1014,
      "duration": 0.0834,
      "velocity": 127,
      "chip": "ym2612"
    },
    {
      "channel": 0,
      "note": 52,
      "start": 115.203,
      "duration": 0.3815,
      "velocity": 102,
      "chip": "ym2612"
    },
    {
      "channel": 2,
      "note": 42,
      "start": 115.2063,
      "duration": 0.1784,
      "velocity": 127,
      "chip": "ym2612"
    },
    {
      "channel": 1,
      "note": 57,
      "start": 115.4014,
      "duration": 0.1831,
      "velocity": 102,
      "chip": "ym2612"
    },
    {
      "channel": 2,
      "note": 30,
      "start": 115.4032,
      "duration": 0.0815,
      "velocity": 127,
      "chip": "ym2612"
    },
    {
      "channel": 2,
      "note": 76,
      "start": 115.5012,
      "duration": 0.0835,
      "velocity": 127,
      "chip": "ym2612"
    },
    {
      "channel": 0,
      "note": 57,
      "start": 115.6014,
      "duration": 0.3832,
      "velocity": 102,
      "chip": "ym2612"
    },
    {
      "channel": 1,
      "note": 57,
      "start": 115.6016,
      "duration": 0.3829,
      "velocity": 102,
      "chip": "ym2612"
    },
    {
      "channel": 2,
      "note": 76,
      "start": 115.6033,
      "duration": 0.1812,
      "velocity": 127,
      "chip": "ym2612"
    },
    {
      "channel": 2,
      "note": 42,
      "start": 115.8028,
      "duration": 0.1819,
      "velocity": 127,
      "chip": "ym2612"
    },
    {
      "channel": 0,
      "note": 57,
      "start": 116.0014,
      "duration": 0.1831,
      "velocity": 102,
      "chip": "ym2612"
    },
    {
      "channel": 1,
      "note": 57,
      "start": 116.0016,
      "duration": 0.5823,
      "velocity": 102,
      "chip": "ym2612"
    },
    {
      "channel": 2,
      "note": 30,
      "start": 116.0019,
      "duration": 0.1827,
      "velocity": 127,
      "chip": "ym2612"
    },
    {
      "channel": 0,
      "note": 57,
      "start": 116.2014,
      "duration": 0.3824,
      "velocity": 102,
      "chip": "ym2612"
    },
    {
      "channel": 2,
      "note": 30,
      "start": 116.2032,
      "duration": 0.0814,
      "velocity": 127,
      "chip": "ym2612"
    },
    {
      "channel": 2,
      "note": 76,
      "start": 116.3013,
      "duration": 0.0833,
      "velocity": 127,
      "chip": "ym2612"
    },
    {
      "channel": 2,
      "note": 76,
      "start": 116.4028,
      "duration": 0.1812,
      "velocity": 127,
      "chip": "ym2612"
    },
    {
      "channel": 0,
      "note": 52,
      "start": 116.6006,
      "duration": 0.3856,
      "velocity": 102,
      "chip": "ym2612"
    },
    {
      "channel": 1,
      "note": 55,
      "start": 116.6009,
      "duration": 0.7842,
      "velocity": 102,
      "chip": "ym2612"
    },
    {
      "channel": 2,
      "note": 42,
      "start": 116.6026,
      "duration": 0.0812,
      "velocity": 127,
      "chip": "ym2612"
    },
    {
      "channel": 2,
      "note": 30,
      "start": 116.702,
      "duration": 0.0818,
      "velocity": 127,
      "chip": "ym2612"
    },
    {
      "channel": 2,
      "note": 76,
      "start": 116.8021,
      "duration": 0.1843,
      "velocity": 127,
      "chip": "ym2612"
    },
    {
      "channel": 0,
      "note": 57,
      "start": 117.0032,
      "duration": 0.3817,
      "velocity": 102,
      "chip": "ym2612"
    },
    {
      "channel": 2,
      "note": 30,
      "start": 117.0049,
      "duration": 0.0816,
      "velocity": 127,
      "chip": "ym2612"
    },
    {
      "channel": 2,
      "note": 76,
      "start": 117.1017,
      "duration": 0.0833,
      "velocity": 127,
      "chip": "ym2612"
    },
    {
      "channel": 2,
      "note": 76,
      "start": 117.2033,
      "duration": 0.1818,
      "velocity": 127,
      "chip": "ym2612"
    },
    {
      "channel": 0,
      "note": 57,
      "start": 117.4019,
      "duration": 0.183,
      "velocity": 102,
      "chip": "ym2612"
    },
    {
      "channel": 1,
      "note": 52,
      "start": 117.4022,
      "duration": 0.3843,
      "velocity": 102,
      "chip": "ym2612"
    },
    {
      "channel": 2,
      "note": 42,
      "start": 117.4039,
      "duration": 0.0811,
      "velocity": 127,
      "chip": "ym2612"
    },
    {
      "channel": 2,
      "note": 76,
      "start": 117.5017,
      "duration": 0.0833,
      "velocity": 127,
      "chip": "ym2612"
    },
    {
      "channel": 0,
      "note": 57,
      "start": 117.6017,
      "duration": 0.1846,
      "velocity": 102,
      "chip": "ym2612"
    },
    {
      "channel": 2,
      "note": 76,
      "start": 117.6035,
      "duration": 0.1831,
      "velocity": 127,
      "chip": "ym2612"
    },
    {
      "channel": 0,
      "note": 59,
      "start": 117.8032,
      "duration": 0.183,
      "velocity": 102,
      "chip": "ym2612"
    },
    {
      "channel": 1,
      "note": 52,
      "start": 117.8035,
      "duration": 0.1829,
      "velocity": 102,
      "chip": "ym2612"
    },
    {
      "channel": 2,
      "note": 30,
      "start": 117.8037,
      "duration": 0.0826,
      "velocity": 127,
      "chip": "ym2612"
    },
    {
      "channel": 2,
      "note": 30,
      "start": 117.9045,
      "duration": 0.082,
      "velocity": 127,
      "chip": "ym2612"
    },
    {
      "channel": 0,
      "note": 60,
      "start": 118.0032,
      "duration": 0.1818,
      "velocity": 102,
      "chip": "ym2612"
    },
    {
      "channel": 1,
      "note": 55,
      "start": 118.0034,
      "duration": 0.1816,
      "velocity": 102,
      "chip": "ym2612"
    },
    {
      "channel": 2,
      "note": 76,
      "start": 118.0051,
      "duration": 0.1801,
      "velocity": 127,
      "chip": "ym2612"
    },
    {
      "channel": 0,
      "note": 61,
      "start": 118.2018,
      "duration": 0.1831,
      "velocity": 102,
      "chip": "ym2612"
    },
    {
      "channel": 1,
      "note": 55,
      "start": 118.2021,
      "duration": 0.1829,
      "velocity": 102,
      "chip": "ym2612"
    },
    {
      "channel": 2,
      "note": 42,
      "start": 118.2037,
      "duration": 0.0813,
      "velocity": 127,
      "chip": "ym2612"
    },
    {
      "channel": 2,
      "note": 30,
      "start": 118.3032,
      "duration": 0.0819,
      "velocity": 127,
      "chip": "ym2612"
    },
    {
      "channel": 0,
      "note": 67,
      "start": 118.4019,
      "duration": 0.3845,
      "velocity": 102,
      "chip": "ym2612"
    },
    {
      "channel": 2,
      "note": 76,
      "start": 118.4051,
      "duration": 0.1799,
      "velocity": 127,
      "chip": "ym2612"
    },
    {
      "channel": 1,
      "note": 57,
      "start": 118.6018,
      "duration": 0.1847,
      "velocity": 102,
      "chip": "ym2612"
    },
    {
      "channel": 2,
      "note": 30,
      "start": 118.6035,
      "duration": 0.0816,
      "velocity": 127,
      "chip": "ym2612"
    },
    {
      "channel": 2,
      "note": 76,
      "start": 118.7032,
      "duration": 0.0834,
      "velocity": 127,
      "chip": "ym2612"
    },
    {
      "channel": 0,
      "note": 57,
      "start": 118.8032,
      "duration": 0.1831,
      "velocity": 102,
      "chip": "ym2612"
    },
    {
      "channel": 1,
      "note": 57,
      "start": 118.8035,
      "duration": 0.383,
      "velocity": 102,
      "chip": "ym2612"
    },
    {
      "channel": 2,
      "note": 76,
      "start": 118.8052,
      "duration": 0.1812,
      "velocity": 127,
      "chip": "ym2612"
    },
    {
      "channel": 0,
      "note": 57,
      "start": 119.0031,
      "duration": 0.1833,
      "velocity": 102,
      "chip": "ym2612"
    },
    {
      "channel": 2,
      "note": 42,
      "start": 119.0049,
      "duration": 0.1817,
      "velocity": 127,
      "chip": "ym2612"
    },
    {
      "channel": 0,
      "note": 55,
      "start": 119.2032,
      "duration": 0.3816,
      "velocity": 102,
      "chip": "ym2612"
    },
    {
      "channel": 1,
      "note": 57,
      "start": 119.2035,
      "duration": 0.5829,
      "velocity": 102,
      "chip": "ym2612"
    },
    {
      "channel": 2,
      "note": 30,
      "start": 119.2037,
      "duration": 0.1813,
      "velocity": 127,
      "chip": "ym2612"
    },
    {
      "channel": 2,
      "note": 30,
      "start": 119.4032,
      "duration": 0.0818,
      "velocity": 127,
      "chip": "ym2612"
    },
    {
      "channel": 2,
      "note": 76,
      "start": 119.5017,
      "duration": 0.0833,
      "velocity": 127,
      "chip": "ym2612"
    },
    {
      "channel": 0,
      "note": 57,
      "start": 119.6018,
      "duration": 0.1845,
      "velocity": 102,
      "chip": "ym2612"
    },
    {
      "channel": 2,
      "note": 76,
      "start": 119.6035,
      "duration": 0.183,
      "velocity": 127,
      "chip": "ym2612"
    },
    {
      "channel": 0,
      "note": 55,
      "start": 119.8033,
      "duration": 0.383,
      "velocity": 102,
      "chip": "ym2612"
    },
    {
      "channel": 1,
      "note": 55,
      "start": 119.8035,
      "duration": 0.7804,
      "velocity": 102,
      "chip": "ym2612"
    },
    {
      "channel": 2,
      "note": 42,
      "start": 119.8052,
      "duration": 0.0811,
      "velocity": 127,
      "chip": "ym2612"
    },
    {
      "channel": 2,
      "note": 30,
      "start": 119.9047,
      "duration": 0.0818,
      "velocity": 127,
      "chip": "ym2612"
    },
    {
      "channel": 2,
      "note": 76,
      "start": 120.0047,
      "duration": 0.1817,
      "velocity": 127,
      "chip": "ym2612"
    },
    {
      "channel": 0,
      "note": 57,
      "start": 120.2031,
      "duration": 0.3807,
      "velocity": 102,
      "chip": "ym2612"
    },
    {
      "channel": 2,
      "note": 30,
      "start": 120.2049,
      "duration": 0.0815,
      "velocity": 127,
      "chip": "ym2612"
    },
    {
      "channel": 2,
      "note": 76,
      "start": 120.3017,
      "duration": 0.0833,
      "velocity": 127,
      "chip": "ym2612"
    },
    {
      "channel": 2,
      "note": 76,
      "start": 120.4032,
      "duration": 0.1808,
      "velocity": 127,
      "chip": "ym2612"
    },
    {
      "channel": 0,
      "note": 57,
      "start": 120.6007,
      "duration": 0.183,
      "velocity": 102,
      "chip": "ym2612"
    },
    {
      "channel": 1,
      "note": 52,
      "start": 120.6009,
      "duration": 0.3837,
      "velocity": 102,
      "chip": "ym2612"
    },
    {
      "channel": 2,
      "note": 42,
      "start": 120.6026,
      "duration": 0.0813,
      "velocity": 127,
      "chip": "ym2612"
    },
    {
      "channel": 2,
      "note": 76,
      "start": 120.7006,
      "duration": 0.0832,
      "velocity": 127,
      "chip": "ym2612"
    },
    {
      "channel": 0,
      "note": 57,
      "start": 120.8006,
      "duration": 0.1839,
      "velocity": 102,
      "chip": "ym2612"
    },
    {
      "channel": 2,
      "note": 76,
      "start": 120.8024,
      "duration": 0.1822,
      "velocity": 127,
      "chip": "ym2612"
    },
    {
      "channel": 0,
      "note": 57,
      "start": 121.0013,
      "duration": 0.1832,
      "velocity": 102,
      "chip": "ym2612"
    },
    {
      "channel": 1,
      "note": 52,
      "start": 121.0015,
      "duration": 0.183,
      "velocity": 102,
      "chip": "ym2612"
    },
    {
      "channel": 2,
      "note": 30,
      "start": 121.0018,
      "duration": 0.0827,
      "velocity": 127,
      "chip": "ym2612"
    },
    {
      "channel": 2,
      "note": 30,
      "start": 121.1028,
      "duration": 0.0819,
      "velocity": 127,
      "chip": "ym2612"
    },
    {
      "channel": 0,
      "note": 52,
      "start": 121.2014,
      "duration": 0.3832,
      "velocity": 102,
      "chip": "ym2612"
    },
    {
      "channel": 1,
      "note": 55,
      "start": 121.2017,
      "duration": 0.183,
      "velocity": 102,
      "chip": "ym2612"
    },
    {
      "channel": 2,
      "note": 76,
      "start": 121.2034,
      "duration": 0.1814,
      "velocity": 127,
      "chip": "ym2612"
    },
    {
      "channel": 1,
      "note": 55,
      "start": 121.4015,
      "duration": 0.1833,
      "velocity": 102,
      "chip": "ym2612"
    },
    {
      "channel": 2,
      "note": 42,
      "start": 121.4032,
      "duration": 0.0816,
      "velocity": 127,
      "chip": "ym2612"
    },
    {
      "channel": 2,
      "note": 30,
      "start": 121.5029,
      "duration": 0.0819,
      "velocity": 127,
      "chip": "ym2612"
    },
    {
      "channel": 0,
      "note": 55,
      "start": 121.6016,
      "duration": 0.3829,
      "velocity": 102,
      "chip": "ym2612"
    },
    {
      "channel": 2,
      "note": 76,
      "start": 121.6049,
      "duration": 0.1799,
      "velocity": 127,
      "chip": "ym2612"
    },
    {
      "channel": 1,
      "note": 57,
      "start": 121.8015,
      "duration": 0.1831,
      "velocity": 102,
      "chip": "ym2612"
    },
    {
      "channel": 2,
      "note": 30,
      "start": 121.8033,
      "duration": 0.0813,
      "velocity": 127,
      "chip": "ym2612"
    },
    {
      "channel": 2,
      "note": 76,
      "start": 121.9013,
      "duration": 0.0834,
      "velocity": 127,
      "chip": "ym2612"
    },
    {
      "channel": 0,
      "note": 57,
      "start": 122.0015,
      "duration": 0.1829,
      "velocity": 102,
      "chip": "ym2612"
    },
    {
      "channel": 1,
      "note": 57,
      "start": 122.0017,
      "duration": 0.3828,
      "velocity": 102,
      "chip": "ym2612"
    },
    {
      "channel": 2,
      "note": 76,
      "start": 122.0035,
      "duration": 0.1811,
      "velocity": 127,
      "chip": "ym2612"
    },
    {
      "channel": 0,
      "note": 57,
      "start": 122.2012,
      "duration": 0.1832,
      "velocity": 102,
      "chip": "ym2612"
    },
    {
      "channel": 2,
      "note": 42,
      "start": 122.2029,
      "duration": 0.1817,
      "velocity": 127,
      "chip": "ym2612"
    },
    {
      "channel": 0,
      "note": 55,
      "start": 122.4013,
      "duration": 0.3833,
      "velocity": 102,
      "chip": "ym2612"
    },
    {
      "channel": 1,
      "note": 57,
      "start": 122.4015,
      "duration": 0.5831,
      "velocity": 102,
      "chip": "ym2612"
    },
    {
      "channel": 2,
      "note": 30,
      "start": 122.4018,
      "duration": 0.183,
      "velocity": 127,
      "chip": "ym2612"
    },
    {
      "channel": 2,
      "note": 30,
      "start": 122.603,
      "duration": 0.0818,
      "velocity": 127,
      "chip": "ym2612"
    },
    {
      "channel": 2,
      "note": 76,
      "start": 122.7014,
      "duration": 0.0833,
      "velocity": 127,
      "chip": "ym2612"
    },
    {
      "channel": 0,
      "note": 57,
      "start": 122.8015,
      "duration": 0.183,
      "velocity": 102,
      "chip": "ym2612"
    },
    {
      "channel": 2,
      "note": 76,
      "start": 122.8033,
      "duration": 0.1815,
      "velocity": 127,
      "chip": "ym2612"
    },
    {
      "channel": 0,
      "note": 55,
      "start": 123.0014,
      "duration": 0.3831,
      "velocity": 102,
      "chip": "ym2612"
    },
    {
      "channel": 1,
      "note": 55,
      "start": 123.0016,
      "duration": 0.7832,
      "velocity": 102,
      "chip": "ym2612"
    },
    {
      "channel": 2,
      "note": 42,
      "start": 123.0033,
      "duration": 0.0813,
      "velocity": 127,
      "chip": "ym2612"
    },
    {
      "channel": 2,
      "note": 30,
      "start": 123.1028,
      "duration": 0.0818,
      "velocity": 127,
      "chip": "ym2612"
    },
    {
      "channel": 2,
      "note": 76,
      "start": 123.2028,
      "duration": 0.1818,
      "velocity": 127,
      "chip": "ym2612"
    },
    {
      "channel": 0,
      "note": 57,
      "start": 123.4012,
      "duration": 0.3835,
      "velocity": 102,
      "chip": "ym2612"
    },
    {
      "channel": 2,
      "note": 30,
      "start": 123.403,
      "duration": 0.0818,
      "velocity": 127,
      "chip": "ym2612"
    },
    {
      "channel": 2,
      "note": 76,
      "start": 123.5014,
      "duration": 0.0833,
      "velocity": 127,
      "chip": "ym2612"
    },
    {
      "channel": 2,
      "note": 76,
      "start": 123.603,
      "duration": 0.1819,
      "velocity": 127,
      "chip": "ym2612"
    },
    {
      "channel": 0,
      "note": 57,
      "start": 123.8015,
      "duration": 0.1832,
      "velocity": 102,
      "chip": "ym2612"
    },
    {
      "channel": 1,
      "note": 52,
      "start": 123.8018,
      "duration": 0.3827,
      "velocity": 102,
      "chip": "ym2612"
    },
    {
      "channel": 2,
      "note": 42,
      "start": 123.8035,
      "duration": 0.0813,
      "velocity": 127,
      "chip": "ym2612"
    },
    {
      "channel": 2,
      "note": 76,
      "start": 123.9015,
      "duration": 0.0833,
      "velocity": 127,
      "chip": "ym2612"
    },
    {
      "channel": 0,
      "note": 59,
      "start": 124.0015,
      "duration": 0.183,
      "velocity": 102,
      "chip": "ym2612"
    },
    {
      "channel": 2,
      "note": 76,
      "start": 124.0032,
      "duration": 0.1815,
      "velocity": 127,
      "chip": "ym2612"
    },
    {
      "channel": 0,
      "note": 60,
      "start": 124.2014,
      "duration": 0.1832,
      "velocity": 102,
      "chip": "ym2612"
    },
    {
      "channel": 1,
      "note": 52,
      "start": 124.2016,
      "duration": 0.183,
      "velocity": 102,
      "chip": "ym2612"
    },
    {
      "channel": 2,
      "note": 30,
      "start": 124.2019,
      "duration": 0.0827,
      "velocity": 127,
      "chip": "ym2612"
    },
    {
      "channel": 2,
      "note": 30,
      "start": 124.3028,
      "duration": 0.0819,
      "velocity": 127,
      "chip": "ym2612"
    },
    {
      "channel": 0,
      "note": 61,
      "start": 124.4014,
      "duration": 0.3824,
      "velocity": 102,
      "chip": "ym2612"
    },
    {
      "channel": 1,
      "note": 55,
      "start": 124.4016,
      "duration": 0.1822,
      "velocity": 102,
      "chip": "ym2612"
    },
    {
      "channel": 2,
      "note": 76,
      "start": 124.4033,
      "duration": 0.1805,
      "velocity": 127,
      "chip": "ym2612"
    },
    {
      "channel": 1,
      "note": 55,
      "start": 124.6006,
      "duration": 0.1833,
      "velocity": 102,
      "chip": "ym2612"
    },
    {
      "channel": 2,
      "note": 42,
      "start": 124.6022,
      "duration": 0.0816,
      "velocity": 127,
      "chip": "ym2612"
    },
    {
      "channel": 2,
      "note": 30,
      "start": 124.702,
      "duration": 0.0819,
      "velocity": 127,
      "chip": "ym2612"
    },
    {
      "channel": 0,
      "note": 67,
      "start": 124.8007,
      "duration": 0.3851,
      "velocity": 102,
      "chip": "ym2612"
    },
    {
      "channel": 2,
      "note": 76,
      "start": 124.804,
      "duration": 0.1807,
      "velocity": 127,
      "chip": "ym2612"
    },
    {
      "channel": 1,
      "note": 57,
      "start": 125.0014,
      "duration": 0.1845,
      "velocity": 102,
      "chip": "ym2612"
    },
    {
      "channel": 2,
      "note": 30,
      "start": 125.0031,
      "duration": 0.0829,
      "velocity": 127,
      "chip": "ym2612"
    },
    {
      "channel": 2,
      "note": 76,
      "start": 125.1028,
      "duration": 0.0833,
      "velocity": 127,
      "chip": "ym2612"
    },
    {
      "channel": 0,
      "note": 57,
      "start": 125.2028,
      "duration": 0.3831,
      "velocity": 102,
      "chip": "ym2612"
    },
    {
      "channel": 1,
      "note": 57,
      "start": 125.2031,
      "duration": 0.3829,
      "velocity": 102,
      "chip": "ym2612"
    },
    {
      "channel": 2,
      "note": 76,
      "start": 125.2047,
      "duration": 0.1812,
      "velocity": 127,
      "chip": "ym2612"
    },
    {
      "channel": 2,
      "note": 42,
      "start": 125.4042,
      "duration": 0.1819,
      "velocity": 127,
      "chip": "ym2612"
    },
    {
      "channel": 0,
      "note": 57,
      "start": 125.6012,
      "duration": 0.3832,
      "velocity": 102,
      "chip": "ym2612"
    },
    {
      "channel": 1,
      "note": 57,
      "start": 125.6015,
      "duration": 0.5845,
      "velocity": 102,
      "chip": "ym2612"
    },
    {
      "channel": 2,
      "note": 30,
      "start": 125.6017,
      "duration": 0.1829,
      "velocity": 127,
      "chip": "ym2612"
    },
    {
      "channel": 2,
      "note": 30,
      "start": 125.8028,
      "duration": 0.0818,
      "velocity": 127,
      "chip": "ym2612"
    },
    {
      "channel": 2,
      "note": 76,
      "start": 125.9014,
      "duration": 0.0832,
      "velocity": 127,
      "chip": "ym2612"
    },
    {
      "channel": 0,
      "note": 57,
      "start": 126.0014,
      "duration": 0.1845,
      "velocity": 102,
      "chip": "ym2612"
    },
    {
      "channel": 2,
      "note": 76,
      "start": 126.0032,
      "duration": 0.1829,
      "velocity": 127,
      "chip": "ym2612"
    },
    {
      "channel": 0,
      "note": 55,
      "start": 126.2028,
      "duration": 0.3831,
      "velocity": 102,
      "chip": "ym2612"
    },
    {
      "channel": 1,
      "note": 55,
      "start": 126.2031,
      "duration": 0.7815,
      "velocity": 102,
      "chip": "ym2612"
    },
    {
      "channel": 2,
      "note": 42,
      "start": 126.2048,
      "duration": 0.0811,
      "velocity": 127,
      "chip": "ym2612"
    },
    {
      "channel": 2,
      "note": 30,
      "start": 126.3041,
      "duration": 0.0818,
      "velocity": 127,
      "chip": "ym2612"
    },
    {
      "channel": 2,
      "note": 76,
      "start": 126.4043,
      "duration": 0.1818,
      "velocity": 127,
      "chip": "ym2612"
    },
    {
      "channel": 0,
      "note": 57,
      "start": 126.6027,
      "duration": 0.3818,
      "velocity": 102,
      "chip": "ym2612"
    },
    {
      "channel": 2,
      "note": 30,
      "start": 126.6045,
      "duration": 0.0801,
      "velocity": 127,
      "chip": "ym2612"
    },
    {
      "channel": 2,
      "note": 76,
      "start": 126.7014,
      "duration": 0.0832,
      "velocity": 127,
      "chip": "ym2612"
    },
    {
      "channel": 2,
      "note": 76,
      "start": 126.8029,
      "duration": 0.1818,
      "velocity": 127,
      "chip": "ym2612"
    },
    {
      "channel": 0,
      "note": 57,
      "start": 127.0014,
      "duration": 0.1831,
      "velocity": 102,
      "chip": "ym2612"
    },
    {
      "channel": 1,
      "note": 52,
      "start": 127.0016,
      "duration": 0.3843,
      "velocity": 102,
      "chip": "ym2612"
    },
    {
      "channel": 2,
      "note": 42,
      "start": 127.0019,
      "duration": 0.1827,
      "velocity": 127,
      "chip": "ym2612"
    },
    {
      "channel": 0,
      "note": 57,
      "start": 127.2026,
      "duration": 0.1832,
      "velocity": 102,
      "chip": "ym2612"
    },
    {
      "channel": 2,
      "note": 42,
      "start": 127.2029,
      "duration": 0.083,
      "velocity": 127,
      "chip": "ym2612"
    },
    {
      "channel": 2,
      "note": 42,
      "start": 127.3027,
      "duration": 0.0833,
      "velocity": 127,
      "chip": "ym2612"
    },
    {
      "channel": 0,
      "note": 57,
      "start": 127.4026,
      "duration": 0.1833,
      "velocity": 102,
      "chip": "ym2612"
    },
    {
      "channel": 1,
      "note": 52,
      "start": 127.4029,
      "duration": 0.1832,
      "velocity": 102,
      "chip": "ym2612"
    },
    {
      "channel": 2,
      "note": 42,
      "start": 127.4032,
      "duration": 0.0827,
      "velocity": 127,
      "chip": "ym2612"
    },
    {
      "channel": 2,
      "note": 42,
      "start": 127.5027,
      "duration": 0.0834,
      "velocity": 127,
      "chip": "ym2612"
    },
    {
      "channel": 0,
      "note": 52,
      "start": 127.6026,
      "duration": 0.1818,
      "velocity": 102,
      "chip": "ym2612"
    },
    {
      "channel": 1,
      "note": 55,
      "start": 127.6029,
      "duration": 0.1817,
      "velocity": 102,
      "chip": "ym2612"
    },
    {
      "channel": 2,
      "note": 42,
      "start": 127.6032,
      "duration": 0.0829,
      "velocity": 127,
      "chip": "ym2612"
    },
    {
      "channel": 2,
      "note": 42,
      "start": 127.7026,
      "duration": 0.0821,
      "velocity": 127,
      "chip": "ym2612"
    },
    {
      "channel": 0,
      "note": 55,
      "start": 127.8013,
      "duration": 0.1832,
      "velocity": 102,
      "chip": "ym2612"
    },
    {
      "channel": 1,
      "note": 55,
      "start": 127.8015,
      "duration": 0.183,
      "velocity": 102,
      "chip": "ym2612"
    },
    {
      "channel": 2,
      "note": 42,
      "start": 127.8018,
      "duration": 0.1828,
      "velocity": 127,
      "chip": "ym2612"
    },
    {
      "channel": 0,
      "note": 52,
      "start": 128.0032,
      "duration": 0.3827,
      "velocity": 102,
      "chip": "ym2612"
    },
    {
      "channel": 1,
      "note": 57,
      "start": 128.0049,
      "duration": 0.1797,
      "velocity": 83,
      "chip": "ym2612"
    },
    {
      "channel": 2,
      "note": 42,
      "start": 128.0065,
      "duration": 0.1783,
      "velocity": 127,
      "chip": "ym2612"
    },
    {
      "channel": 1,
      "note": 66,
      "start": 128.2013,
      "duration": 0.1847,
      "velocity": 83,
      "chip": "ym2612"
    },
    {
      "channel": 2,
      "note": 30,
      "start": 128.203,
      "duration": 0.0832,
      "velocity": 127,
      "chip": "ym2612"
    },
    {
      "channel": 2,
      "note": 76,
      "start": 128.3028,
      "duration": 0.0834,
      "velocity": 127,
      "chip": "ym2612"
    },
    {
      "channel": 0,
      "note": 54,
      "start": 128.4028,
      "duration": 0.3809,
      "velocity": 102,
      "chip": "ym2612"
    },
    {
      "channel": 1,
      "note": 76,
      "start": 128.4031,
      "duration": 0.3808,
      "velocity": 83,
      "chip": "ym2612"
    },
    {
      "channel": 2,
      "note": 76,
      "start": 128.4048,
      "duration": 0.1791,
      "velocity": 127,
      "chip": "ym2612"
    },
    {
      "channel": 2,
      "note": 42,
      "start": 128.6022,
      "duration": 0.1819,
      "velocity": 127,
      "chip": "ym2612"
    },
    {
      "channel": 0,
      "note": 54,
      "start": 128.8006,
      "duration": 0.1832,
      "velocity": 102,
      "chip": "ym2612"
    },
    {
      "channel": 1,
      "note": 78,
      "start": 128.8009,
      "duration": 0.3838,
      "velocity": 83,
      "chip": "ym2612"
    },
    {
      "channel": 2,
      "note": 30,
      "start": 128.8011,
      "duration": 0.1829,
      "velocity": 127,
      "chip": "ym2612"
    },
    {
      "channel": 0,
      "note": 54,
      "start": 129.0015,
      "duration": 0.3829,
      "velocity": 102,
      "chip": "ym2612"
    },
    {
      "channel": 2,
      "note": 30,
      "start": 129.0033,
      "duration": 0.0813,
      "velocity": 127,
      "chip": "ym2612"
    },
    {
      "channel": 2,
      "note": 76,
      "start": 129.1015,
      "duration": 0.0833,
      "velocity": 127,
      "chip": "ym2612"
    },
    {
      "channel": 1,
      "note": 78,
      "start": 129.2014,
      "duration": 0.1832,
      "velocity": 83,
      "chip": "ym2612"
    },
    {
      "channel": 2,
      "note": 76,
      "start": 129.2031,
      "duration": 0.1817,
      "velocity": 127,
      "chip": "ym2612"
    },
    {
      "channel": 0,
      "note": 49,
      "start": 129.4013,
      "duration": 0.3833,
      "velocity": 102,
      "chip": "ym2612"
    },
    {
      "channel": 1,
      "note": 76,
      "start": 129.4015,
      "duration": 0.183,
      "velocity": 83,
      "chip": "ym2612"
    },
    {
      "channel": 2,
      "note": 42,
      "start": 129.4032,
      "duration": 0.0815,
      "velocity": 127,
      "chip": "ym2612"
    },
    {
      "channel": 2,
      "note": 30,
      "start": 129.5028,
      "duration": 0.082,
      "velocity": 127,
      "chip": "ym2612"
    },
    {
      "channel": 1,
      "note": 73,
      "start": 129.6014,
      "duration": 0.1833,
      "velocity": 83,
      "chip": "ym2612"
    },
    {
      "channel": 2,
      "note": 76,
      "start": 129.603,
      "duration": 0.1819,
      "velocity": 127,
      "chip": "ym2612"
    },
    {
      "channel": 0,
      "note": 54,
      "start": 129.8014,
      "duration": 0.3832,
      "velocity": 102,
      "chip": "ym2612"
    },
    {
      "channel": 1,
      "note": 81,
      "start": 129.8016,
      "duration": 0.183,
      "velocity": 83,
      "chip": "ym2612"
    },
    {
      "channel": 2,
      "note": 30,
      "start": 129.8033,
      "duration": 0.0813,
      "velocity": 127,
      "chip": "ym2612"
    },
    {
      "channel": 2,
      "note": 76,
      "start": 129.9015,
      "duration": 0.0833,
      "velocity": 127,
      "chip": "ym2612"
    },
    {
      "channel": 1,
      "note": 83,
      "start": 130.0014,
      "duration": 0.1833,
      "velocity": 83,
      "chip": "ym2612"
    },
    {
      "channel": 2,
      "note": 76,
      "start": 130.0031,
      "duration": 0.1817,
      "velocity": 127,
      "chip": "ym2612"
    },
    {
      "channel": 0,
      "note": 54,
      "start": 130.2015,
      "duration": 0.183,
      "velocity": 102,
      "chip": "ym2612"
    },
    {
      "channel": 1,
      "note": 82,
      "start": 130.2017,
      "duration": 0.3828,
      "velocity": 83,
      "chip": "ym2612"
    },
    {
      "channel": 2,
      "note": 42,
      "start": 130.2034,
      "duration": 0.0814,
      "velocity": 127,
      "chip": "ym2612"
    },
    {
      "channel": 2,
      "note": 76,
      "start": 130.3015,
      "duration": 0.0833,
      "velocity": 127,
      "chip": "ym2612"
    },
    {
      "channel": 0,
      "note": 54,
      "start": 130.4013,
      "duration": 0.1832,
      "velocity": 102,
      "chip": "ym2612"
    },
    {
      "channel": 2,
      "note": 76,
      "start": 130.4032,
      "duration": 0.1817,
      "velocity": 127,
      "chip": "ym2612"
    },
    {
      "channel": 0,
      "note": 56,
      "start": 130.6013,
      "duration": 0.1832,
      "velocity": 102,
      "chip": "ym2612"
    },
    {
      "channel": 1,
      "note": 78,
      "start": 130.6015,
      "duration": 0.183,
      "velocity": 83,
      "chip": "ym2612"
    },
    {
      "channel": 2,
      "note": 30,
      "start": 130.6018,
      "duration": 0.0828,
      "velocity": 127,
      "chip": "ym2612"
    },
    {
      "channel": 2,
      "note": 30,
      "start": 130.7029,
      "duration": 0.0819,
      "velocity": 127,
      "chip": "ym2612"
    },
    {
      "channel": 0,
      "note": 57,
      "start": 130.8013,
      "duration": 0.1832,
      "velocity": 102,
      "chip": "ym2612"
    },
    {
      "channel": 1,
      "note": 73,
      "start": 130.8015,
      "duration": 0.1831,
      "velocity": 83,
      "chip": "ym2612"
    },
    {
      "channel": 2,
      "note": 76,
      "start": 130.8033,
      "duration": 0.1816,
      "velocity": 127,
      "chip": "ym2612"
    },
    {
      "channel": 0,
      "note": 58,
      "start": 131.0014,
      "duration": 0.1832,
      "velocity": 102,
      "chip": "ym2612"
    },
    {
      "channel": 1,
      "note": 75,
      "start": 131.0016,
      "duration": 0.1829,
      "velocity": 83,
      "chip": "ym2612"
    },
    {
      "channel": 2,
      "note": 42,
      "start": 131.0033,
      "duration": 0.0815,
      "velocity": 127,
      "chip": "ym2612"
    },
    {
      "channel": 2,
      "note": 30,
      "start": 131.1029,
      "duration": 0.0819,
      "velocity": 127,
      "chip": "ym2612"
    },
    {
      "channel": 0,
      "note": 64,
      "start": 131.2014,
      "duration": 0.3831,
      "velocity": 102,
      "chip": "ym2612"
    },
    {
      "channel": 1,
      "note": 76,
      "start": 131.2017,
      "duration": 0.383,
      "velocity": 83,
      "chip": "ym2612"
    },
    {
      "channel": 2,
      "note": 76,
      "start": 131.2034,
      "duration": 0.1814,
      "velocity": 127,
      "chip": "ym2612"
    },
    {
      "channel": 2,
      "note": 30,
      "start": 131.403,
      "duration": 0.0816,
      "velocity": 127,
      "chip": "ym2612"
    },
    {
      "channel": 2,
      "note": 76,
      "start": 131.5014,
      "duration": 0.0835,
      "velocity": 127,
      "chip": "ym2612"
    },
    {
      "channel": 0,
      "note": 54,
      "start": 131.6014,
      "duration": 0.1832,
      "velocity": 102,
      "chip": "ym2612"
    },
    {
      "channel": 1,
      "note": 78,
      "start": 131.6016,
      "duration": 0.3831,
      "velocity": 83,
      "chip": "ym2612"
    },
    {
      "channel": 2,
      "note": 76,
      "start": 131.6033,
      "duration": 0.1815,
      "velocity": 127,
      "chip": "ym2612"
    },
    {
      "channel": 0,
      "note": 54,
      "start": 131.8014,
      "duration": 0.1832,
      "velocity": 102,
      "chip": "ym2612"
    },
    {
      "channel": 2,
      "note": 42,
      "start": 131.8032,
      "duration": 0.1817,
      "velocity": 127,
      "chip": "ym2612"
    },
    {
      "channel": 0,
      "note": 52,
      "start": 132.0014,
      "duration": 0.3831,
      "velocity": 102,
      "chip": "ym2612"
    },
    {
      "channel": 1,
      "note": 78,
      "start": 132.0017,
      "duration": 0.1829,
      "velocity": 83,
      "chip": "ym2612"
    },
    {
      "channel": 2,
      "note": 30,
      "start": 132.0019,
      "duration": 0.1829,
      "velocity": 127,
      "chip": "ym2612"
    },
    {
      "channel": 1,
      "note": 76,
      "start": 132.2014,
      "duration": 0.1833,
      "velocity": 83,
      "chip": "ym2612"
    },
    {
      "channel": 2,
      "note": 30,
      "start": 132.203,
      "duration": 0.0816,
      "velocity": 127,
      "chip": "ym2612"
    },
    {
      "channel": 2,
      "note": 76,
      "start": 132.3015,
      "duration": 0.0834,
      "velocity": 127,
      "chip": "ym2612"
    },
    {
      "channel": 0,
      "note": 54,
      "start": 132.4014,
      "duration": 0.1824,
      "velocity": 102,
      "chip": "ym2612"
    },
    {
      "channel": 1,
      "note": 78,
      "start": 132.4016,
      "duration": 0.1823,
      "velocity": 83,
      "chip": "ym2612"
    },
    {
      "channel": 2,
      "note": 76,
      "start": 132.4033,
      "duration": 0.1808,
      "velocity": 127,
      "chip": "ym2612"
    },
    {
      "channel": 0,
      "note": 52,
      "start": 132.6007,
      "duration": 0.3831,
      "velocity": 102,
      "chip": "ym2612"
    },
    {
      "channel": 1,
      "note": 75,
      "start": 132.601,
      "duration": 1.7837,
      "velocity": 83,
      "chip": "ym2612"
    },
    {
      "channel": 2,
      "note": 42,
      "start": 132.6027,
      "duration": 0.0812,
      "velocity": 127,
      "chip": "ym2612"
    },
    {
      "channel": 2,
      "note": 30,
      "start": 132.7022,
      "duration": 0.0817,
      "velocity": 127,
      "chip": "ym2612"
    },
    {
      "channel": 2,
      "note": 76,
      "start": 132.8022,
      "duration": 0.1818,
      "velocity": 127,
      "chip": "ym2612"
    },
    {
      "channel": 0,
      "note": 54,
      "start": 133.0005,
      "duration": 0.3839,
      "velocity": 102,
      "chip": "ym2612"
    },
    {
      "channel": 2,
      "note": 30,
      "start": 133.0024,
      "duration": 0.0822,
      "velocity": 127,
      "chip": "ym2612"
    },
    {
      "channel": 2,
      "note": 76,
      "start": 133.1014,
      "duration": 0.0832,
      "velocity": 127,
      "chip": "ym2612"
    },
    {
      "channel": 2,
      "note": 76,
      "start": 133.2029,
      "duration": 0.1817,
      "velocity": 127,
      "chip": "ym2612"
    },
    {
      "channel": 0,
      "note": 54,
      "start": 133.4014,
      "duration": 0.1832,
      "velocity": 102,
      "chip": "ym2612"
    },
    {
      "channel": 2,
      "note": 42,
      "start": 133.4032,
      "duration": 0.0815,
      "velocity": 127,
      "chip": "ym2612"
    },
    {
      "channel": 2,
      "note": 76,
      "start": 133.5014,
      "duration": 0.0835,
      "velocity": 127,
      "chip": "ym2612"
    },
    {
      "channel": 0,
      "note": 54,
      "start": 133.6014,
      "duration": 0.1832,
      "velocity": 102,
      "chip": "ym2612"
    },
    {
      "channel": 2,
      "note": 76,
      "start": 133.6032,
      "duration": 0.1817,
      "velocity": 127,
      "chip": "ym2612"
    },
    {
      "channel": 0,
      "note": 54,
      "start": 133.8014,
      "duration": 0.1832,
      "velocity": 102,
      "chip": "ym2612"
    },
    {
      "channel": 2,
      "note": 30,
      "start": 133.8017,
      "duration": 0.083,
      "velocity": 127,
      "chip": "ym2612"
    },
    {
      "channel": 2,
      "note": 30,
      "start": 133.9029,
      "duration": 0.082,
      "velocity": 127,
      "chip": "ym2612"
    },
    {
      "channel": 0,
      "note": 49,
      "start": 134.0014,
      "duration": 0.3832,
      "velocity": 102,
      "chip": "ym2612"
    },
    {
      "channel": 2,
      "note": 76,
      "start": 134.0032,
      "duration": 0.1815,
      "velocity": 127,
      "chip": "ym2612"
    },
    {
      "channel": 2,
      "note": 42,
      "start": 134.2029,
      "duration": 0.0817,
      "velocity": 127,
      "chip": "ym2612"
    },
    {
      "channel": 2,
      "note": 30,
      "start": 134.3029,
      "duration": 0.082,
      "velocity": 127,
      "chip": "ym2612"
    },
    {
      "channel": 0,
      "note": 52,
      "start": 134.4014,
      "duration": 0.3833,
      "velocity": 102,
      "chip": "ym2612"
    },
    {
      "channel": 1,
      "note": 71,
      "start": 134.4016,
      "duration": 0.183,
      "velocity": 83,
      "chip": "ym2612"
    },
    {
      "channel": 2,
      "note": 76,
      "start": 134.4033,
      "duration": 0.1815,
      "velocity": 127,
      "chip": "ym2612"
    },
    {
      "channel": 1,
      "note": 66,
      "start": 134.6014,
      "duration": 0.1833,
      "velocity": 83,
      "chip": "ym2612"
    },
    {
      "channel": 2,
      "note": 30,
      "start": 134.6031,
      "duration": 0.0816,
      "velocity": 127,
      "chip": "ym2612"
    },
    {
      "channel": 2,
      "note": 76,
      "start": 134.7014,
      "duration": 0.0835,
      "velocity": 127,
      "chip": "ym2612"
    },
    {
      "channel": 0,
      "note": 54,
      "start": 134.8014,
      "duration": 0.1832,
      "velocity": 102,
      "chip": "ym2612"
    },
    {
      "channel": 1,
      "note": 76,
      "start": 134.8017,
      "duration": 0.3829,
      "velocity": 83,
      "chip": "ym2612"
    },
    {
      "channel": 2,
      "note": 76,
      "start": 134.8034,
      "duration": 0.1815,
      "velocity": 127,
      "chip": "ym2612"
    },
    {
      "channel": 0,
      "note": 54,
      "start": 135.0014,
      "duration": 0.1832,
      "velocity": 102,
      "chip": "ym2612"
    },
    {
      "channel": 2,
      "note": 42,
      "start": 135.0032,
      "duration": 0.1816,
      "velocity": 127,
      "chip": "ym2612"
    },
    {
      "channel": 0,
      "note": 52,
      "start": 135.2013,
      "duration": 0.3833,
      "velocity": 102,
      "chip": "ym2612"
    },
    {
      "channel": 1,
      "note": 78,
      "start": 135.2015,
      "duration": 0.3832,
      "velocity": 83,
      "chip": "ym2612"
    },
    {
      "channel": 2,
      "note": 30,
      "start": 135.2018,
      "duration": 0.1828,
      "velocity": 127,
      "chip": "ym2612"
    },
    {
      "channel": 2,
      "note": 30,
      "start": 135.4029,
      "duration": 0.0817,
      "velocity": 127,
      "chip": "ym2612"
    },
    {
      "channel": 2,
      "note": 76,
      "start": 135.5014,
      "duration": 0.0835,
      "velocity": 127,
      "chip": "ym2612"
    },
    {
      "channel": 0,
      "note": 54,
      "start": 135.6014,
      "duration": 0.1832,
      "velocity": 102,
      "chip": "ym2612"
    },
    {
      "channel": 1,
      "note": 78,
      "start": 135.6016,
      "duration": 0.1831,
      "velocity": 83,
      "chip": "ym2612"
    },
    {
      "channel": 2,
      "note": 76,
      "start": 135.6033,
      "duration": 0.1815,
      "velocity": 127,
      "chip": "ym2612"
    },
    {
      "channel": 0,
      "note": 52,
      "start": 135.8014,
      "duration": 0.3831,
      "velocity": 102,
      "chip": "ym2612"
    },
    {
      "channel": 1,
      "note": 76,
      "start": 135.8017,
      "duration": 0.1829,
      "velocity": 83,
      "chip": "ym2612"
    },
    {
      "channel": 2,
      "note": 42,
      "start": 135.8033,
      "duration": 0.0814,
      "velocity": 127,
      "chip": "ym2612"
    },
    {
      "channel": 2,
      "note": 30,
      "start": 135.903,
      "duration": 0.0818,
      "velocity": 127,
      "chip": "ym2612"
    },
    {
      "channel": 1,
      "note": 73,
      "start": 136.0014,
      "duration": 0.1833,
      "velocity": 83,
      "chip": "ym2612"
    },
    {
      "channel": 2,
      "note": 76,
      "start": 136.003,
      "duration": 0.1819,
      "velocity": 127,
      "chip": "ym2612"
    },
    {
      "channel": 0,
      "note": 54,
      "start": 136.2014,
      "duration": 0.3823,
      "velocity": 102,
      "chip": "ym2612"
    },
    {
      "channel": 1,
      "note": 82,
      "start": 136.2017,
      "duration": 0.3822,
      "velocity": 83,
      "chip": "ym2612"
    },
    {
      "channel": 2,
      "note": 30,
      "start": 136.2033,
      "duration": 0.0814,
      "velocity": 127,
      "chip": "ym2612"
    },
    {
      "channel": 2,
      "note": 76,
      "start": 136.3014,
      "duration": 0.0834,
      "velocity": 127,
      "chip": "ym2612"
    },
    {
      "channel": 2,
      "note": 76,
      "start": 136.4029,
      "duration": 0.1812,
      "velocity": 127,
      "chip": "ym2612"
    },
    {
      "channel": 0,
      "note": 54,
      "start": 136.6007,
      "duration": 0.183,
      "velocity": 102,
      "chip": "ym2612"
    },
    {
      "channel": 1,
      "note": 83,
      "start": 136.601,
      "duration": 0.3829,
      "velocity": 83,
      "chip": "ym2612"
    },
    {
      "channel": 2,
      "note": 42,
      "start": 136.6026,
      "duration": 0.0814,
      "velocity": 127,
      "chip": "ym2612"
    },
    {
      "channel": 2,
      "note": 76,
      "start": 136.7007,
      "duration": 0.0833,
      "velocity": 127,
      "chip": "ym2612"
    },
    {
      "channel": 0,
      "note": 56,
      "start": 136.8005,
      "duration": 0.1833,
      "velocity": 102,
      "chip": "ym2612"
    },
    {
      "channel": 2,
      "note": 76,
      "start": 136.8024,
      "duration": 0.1817,
      "velocity": 127,
      "chip": "ym2612"
    },
    {
      "channel": 0,
      "note": 57,
      "start": 137.0006,
      "duration": 0.1843,
      "velocity": 102,
      "chip": "ym2612"
    },
    {
      "channel": 1,
      "note": 83,
      "start": 137.0009,
      "duration": 0.1841,
      "velocity": 83,
      "chip": "ym2612"
    },
    {
      "channel": 2,
      "note": 30,
      "start": 137.0011,
      "duration": 0.0841,
      "velocity": 127,
      "chip": "ym2612"
    },
    {
      "channel": 2,
      "note": 30,
      "start": 137.1033,
      "duration": 0.0819,
      "velocity": 127,
      "chip": "ym2612"
    },
    {
      "channel": 0,
      "note": 58,
      "start": 137.2019,
      "duration": 0.3845,
      "velocity": 102,
      "chip": "ym2612"
    },
    {
      "channel": 1,
      "note": 82,
      "start": 137.2021,
      "duration": 0.1842,
      "velocity": 83,
      "chip": "ym2612"
    },
    {
      "channel": 2,
      "note": 76,
      "start": 137.2038,
      "duration": 0.1827,
      "velocity": 127,
      "chip": "ym2612"
    },
    {
      "channel": 1,
      "note": 78,
      "start": 137.4033,
      "duration": 0.1832,
      "velocity": 83,
      "chip": "ym2612"
    },
    {
      "channel": 2,
      "note": 42,
      "start": 137.4049,
      "duration": 0.0816,
      "velocity": 127,
      "chip": "ym2612"
    },
    {
      "channel": 2,
      "note": 30,
      "start": 137.5047,
      "duration": 0.0819,
      "velocity": 127,
      "chip": "ym2612"
    },
    {
      "channel": 0,
      "note": 64,
      "start": 137.6032,
      "duration": 0.3817,
      "velocity": 102,
      "chip": "ym2612"
    },
    {
      "channel": 1,
      "note": 83,
      "start": 137.6035,
      "duration": 0.3815,
      "velocity": 83,
      "chip": "ym2612"
    },
    {
      "channel": 2,
      "note": 76,
      "start": 137.6051,
      "duration": 0.1815,
      "velocity": 127,
      "chip": "ym2612"
    },
    {
      "channel": 2,
      "note": 30,
      "start": 137.8047,
      "duration": 0.0804,
      "velocity": 127,
      "chip": "ym2612"
    },
    {
      "channel": 2,
      "note": 76,
      "start": 137.9019,
      "duration": 0.0833,
      "velocity": 127,
      "chip": "ym2612"
    },
    {
      "channel": 0,
      "note": 54,
      "start": 138.0017,
      "duration": 0.3845,
      "velocity": 102,
      "chip": "ym2612"
    },
    {
      "channel": 1,
      "note": 85,
      "start": 138.002,
      "duration": 0.3844,
      "velocity": 83,
      "chip": "ym2612"
    },
    {
      "channel": 2,
      "note": 76,
      "start": 138.0037,
      "duration": 0.1815,
      "velocity": 127,
      "chip": "ym2612"
    },
    {
      "channel": 2,
      "note": 42,
      "start": 138.2033,
      "duration": 0.1834,
      "velocity": 127,
      "chip": "ym2612"
    },
    {
      "channel": 0,
      "note": 54,
      "start": 138.4032,
      "duration": 0.3831,
      "velocity": 102,
      "chip": "ym2612"
    },
    {
      "channel": 1,
      "note": 83,
      "start": 138.4034,
      "duration": 0.183,
      "velocity": 83,
      "chip": "ym2612"
    },
    {
      "channel": 2,
      "note": 30,
      "start": 138.4037,
      "duration": 0.183,
      "velocity": 127,
      "chip": "ym2612"
    },
    {
      "channel": 1,
      "note": 80,
      "start": 138.6032,
      "duration": 0.1832,
      "velocity": 83,
      "chip": "ym2612"
    },
    {
      "channel": 2,
      "note": 30,
      "start": 138.6049,
      "duration": 0.0816,
      "velocity": 127,
      "chip": "ym2612"
    },
    {
      "channel": 2,
      "note": 76,
      "start": 138.7032,
      "duration": 0.0834,
      "velocity": 127,
      "chip": "ym2612"
    },
    {
      "channel": 0,
      "note": 54,
      "start": 138.8033,
      "duration": 0.1817,
      "velocity": 102,
      "chip": "ym2612"
    },
    {
      "channel": 1,
      "note": 78,
      "start": 138.8035,
      "duration": 0.1815,
      "velocity": 83,
      "chip": "ym2612"
    },
    {
      "channel": 2,
      "note": 76,
      "start": 138.8052,
      "duration": 0.1801,
      "velocity": 127,
      "chip": "ym2612"
    },
    {
      "channel": 0,
      "note": 52,
      "start": 139.0019,
      "duration": 0.3831,
      "velocity": 102,
      "chip": "ym2612"
    },
    {
      "channel": 1,
      "note": 76,
      "start": 139.0021,
      "duration": 1.7817,
      "velocity": 83,
      "chip": "ym2612"
    },
    {
      "channel": 2,
      "note": 42,
      "start": 139.0038,
      "duration": 0.0814,
      "velocity": 127,
      "chip": "ym2612"
    },
    {
      "channel": 2,
      "note": 30,
      "start": 139.1033,
      "duration": 0.0817,
      "velocity": 127,
      "chip": "ym2612"
    },
    {
      "channel": 2,
      "note": 76,
      "start": 139.2034,
      "duration": 0.1818,
      "velocity": 127,
      "chip": "ym2612"
    },
    {
      "channel": 0,
      "note": 54,
      "start": 139.4019,
      "duration": 0.3844,
      "velocity": 102,
      "chip": "ym2612"
    },
    {
      "channel": 2,
      "note": 30,
      "start": 139.4037,
      "duration": 0.0828,
      "velocity": 127,
      "chip": "ym2612"
    },
    {
      "channel": 2,
      "note": 76,
      "start": 139.5032,
      "duration": 0.0833,
      "velocity": 127,
      "chip": "ym2612"
    },
    {
      "channel": 2,
      "note": 76,
      "start": 139.6048,
      "duration": 0.1817,
      "velocity": 127,
      "chip": "ym2612"
    },
    {
      "channel": 0,
      "note": 54,
      "start": 139.8032,
      "duration": 0.1819,
      "velocity": 102,
      "chip": "ym2612"
    },
    {
      "channel": 2,
      "note": 42,
      "start": 139.8051,
      "duration": 0.0814,
      "velocity": 127,
      "chip": "ym2612"
    },
    {
      "channel": 2,
      "note": 76,
      "start": 139.9032,
      "duration": 0.0821,
      "velocity": 127,
      "chip": "ym2612"
    },
    {
      "channel": 0,
      "note": 54,
      "start": 140.0017,
      "duration": 0.1831,
      "velocity": 102,
      "chip": "ym2612"
    },
    {
      "channel": 2,
      "note": 76,
      "start": 140.0037,
      "duration": 0.1815,
      "velocity": 127,
      "chip": "ym2612"
    },
    {
      "channel": 0,
      "note": 54,
      "start": 140.2018,
      "duration": 0.1831,
      "velocity": 102,
      "chip": "ym2612"
    },
    {
      "channel": 2,
      "note": 30,
      "start": 140.2022,
      "duration": 0.083,
      "velocity": 127,
      "chip": "ym2612"
    },
    {
      "channel": 2,
      "note": 30,
      "start": 140.3033,
      "duration": 0.0818,
      "velocity": 127,
      "chip": "ym2612"
    },
    {
      "channel": 0,
      "note": 49,
      "start": 140.4018,
      "duration": 0.182,
      "velocity": 102,
      "chip": "ym2612"
    },
    {
      "channel": 2,
      "note": 76,
      "start": 140.4037,
      "duration": 0.1804,
      "velocity": 127,
      "chip": "ym2612"
    },
    {
      "channel": 0,
      "note": 52,
      "start": 140.6005,
      "duration": 0.1832,
      "velocity": 102,
      "chip": "ym2612"
    },
    {
      "channel": 2,
      "note": 42,
      "start": 140.6024,
      "duration": 0.0814,
      "velocity": 127,
      "chip": "ym2612"
    },
    {
      "channel": 2,
      "note": 30,
      "start": 140.7022,
      "duration": 0.0819,
      "velocity": 127,
      "chip": "ym2612"
    },
    {
      "channel": 0,
      "note": 49,
      "start": 140.8023,
      "duration": 0.3824,
      "velocity": 102,
      "chip": "ym2612"
    },
    {
      "channel": 1,
      "note": 77,
      "start": 140.804,
      "duration": 0.1798,
      "velocity": 83,
      "chip": "ym2612"
    },
    {
      "channel": 2,
      "note": 76,
      "start": 140.8057,
      "duration": 0.1782,
      "velocity": 127,
      "chip": "ym2612"
    },
    {
      "channel": 1,
      "note": 66,
      "start": 141.0007,
      "duration": 0.1841,
      "velocity": 83,
      "chip": "ym2612"
    },
    {
      "channel": 2,
      "note": 30,
      "start": 141.0023,
      "duration": 0.0826,
      "velocity": 127,
      "chip": "ym2612"
    },
    {
      "channel": 2,
      "note": 76,
      "start": 141.1016,
      "duration": 0.0834,
      "velocity": 127,
      "chip": "ym2612"
    },
    {
      "channel": 0,
      "note": 54,
      "start": 141.2016,
      "duration": 0.3829,
      "velocity": 102,
      "chip": "ym2612"
    },
    {
      "channel": 1,
      "note": 76,
      "start": 141.2019,
      "duration": 0.3828,
      "velocity": 83,
      "chip": "ym2612"
    },
    {
      "channel": 2,
      "note": 76,
      "start": 141.2036,
      "duration": 0.1813,
      "velocity": 127,
      "chip": "ym2612"
    },
    {
      "channel": 2,
      "note": 42,
      "start": 141.403,
      "duration": 0.1819,
      "velocity": 127,
      "chip": "ym2612"
    },
    {
      "channel": 0,
      "note": 54,
      "start": 141.6014,
      "duration": 0.1832,
      "velocity": 102,
      "chip": "ym2612"
    },
    {
      "channel": 1,
      "note": 78,
      "start": 141.6016,
      "duration": 0.3829,
      "velocity": 83,
      "chip": "ym2612"
    },
    {
      "channel": 2,
      "note": 30,
      "start": 141.6019,
      "duration": 0.1829,
      "velocity": 127,
      "chip": "ym2612"
    },
    {
      "channel": 0,
      "note": 54,
      "start": 141.8014,
      "duration": 0.3833,
      "velocity": 102,
      "chip": "ym2612"
    },
    {
      "channel": 2,
      "note": 30,
      "start": 141.8033,
      "duration": 0.0814,
      "velocity": 127,
      "chip": "ym2612"
    },
    {
      "channel": 2,
      "note": 76,
      "start": 141.9014,
      "duration": 0.0833,
      "velocity": 127,
      "chip": "ym2612"
    },
    {
      "channel": 1,
      "note": 78,
      "start": 142.0014,
      "duration": 0.1833,
      "velocity": 83,
      "chip": "ym2612"
    },
    {
      "channel": 2,
      "note": 76,
      "start": 142.0032,
      "duration": 0.1819,
      "velocity": 127,
      "chip": "ym2612"
    },
    {
      "channel": 0,
      "note": 49,
      "start": 142.2015,
      "duration": 0.3831,
      "velocity": 102,
      "chip": "ym2612"
    },
    {
      "channel": 1,
      "note": 76,
      "start": 142.2017,
      "duration": 0.1829,
      "velocity": 83,
      "chip": "ym2612"
    },
    {
      "channel": 2,
      "note": 42,
      "start": 142.2035,
      "duration": 0.0815,
      "velocity": 127,
      "chip": "ym2612"
    },
    {
      "channel": 2,
      "note": 30,
      "start": 142.3031,
      "duration": 0.0818,
      "velocity": 127,
      "chip": "ym2612"
    },
    {
      "channel": 1,
      "note": 73,
      "start": 142.4015,
      "duration": 0.1832,
      "velocity": 83,
      "chip": "ym2612"
    },
    {
      "channel": 2,
      "note": 76,
      "start": 142.4033,
      "duration": 0.1817,
      "velocity": 127,
      "chip": "ym2612"
    },
    {
      "channel": 0,
      "note": 54,
      "start": 142.6014,
      "duration": 0.3832,
      "velocity": 102,
      "chip": "ym2612"
    },
    {
      "channel": 1,
      "note": 81,
      "start": 142.6016,
      "duration": 0.1829,
      "velocity": 83,
      "chip": "ym2612"
    },
    {
      "channel": 2,
      "note": 30,
      "start": 142.6033,
      "duration": 0.0814,
      "velocity": 127,
      "chip": "ym2612"
    },
    {
      "channel": 2,
      "note": 76,
      "start": 142.7015,
      "duration": 0.0833,
      "velocity": 127,
      "chip": "ym2612"
    },
    {
      "channel": 1,
      "note": 83,
      "start": 142.8013,
      "duration": 0.1833,
      "velocity": 83,
      "chip": "ym2612"
    },
    {
      "channel": 2,
      "note": 76,
      "start": 142.803,
      "duration": 0.1818,
      "velocity": 127,
      "chip": "ym2612"
    },
    {
      "channel": 0,
      "note": 54,
      "start": 143.0015,
      "duration": 0.1831,
      "velocity": 102,
      "chip": "ym2612"
    },
    {
      "channel": 1,
      "note": 82,
      "start": 143.0017,
      "duration": 0.383,
      "velocity": 83,
      "chip": "ym2612"
    },
    {
      "channel": 2,
      "note": 42,
      "start": 143.0035,
      "duration": 0.0813,
      "velocity": 127,
      "chip": "ym2612"
    },
    {
      "channel": 2,
      "note": 76,
      "start": 143.1015,
      "duration": 0.0834,
      "velocity": 127,
      "chip": "ym2612"
    },
    {
      "channel": 0,
      "note": 54,
      "start": 143.2015,
      "duration": 0.1832,
      "velocity": 102,
      "chip": "ym2612"
    },
    {
      "channel": 2,
      "note": 76,
      "start": 143.2034,
      "duration": 0.1816,
      "velocity": 127,
      "chip": "ym2612"
    },
    {
      "channel": 0,
      "note": 56,
      "start": 143.4015,
      "duration": 0.1832,
      "velocity": 102,
      "chip": "ym2612"
    },
    {
      "channel": 1,
      "note": 78,
      "start": 143.4017,
      "duration": 0.183,
      "velocity": 83,
      "chip": "ym2612"
    },
    {
      "channel": 2,
      "note": 30,
      "start": 143.402,
      "duration": 0.0828,
      "velocity": 127,
      "chip": "ym2612"
    },
    {
      "channel": 2,
      "note": 30,
      "start": 143.503,
      "duration": 0.082,
      "velocity": 127,
      "chip": "ym2612"
    },
    {
      "channel": 0,
      "note": 57,
      "start": 143.6015,
      "duration": 0.1831,
      "velocity": 102,
      "chip": "ym2612"
    },
    {
      "channel": 1,
      "note": 73,
      "start": 143.6017,
      "duration": 0.1829,
      "velocity": 83,
      "chip": "ym2612"
    },
    {
      "channel": 2,
      "note": 76,
      "start": 143.6035,
      "duration": 0.1814,
      "velocity": 127,
      "chip": "ym2612"
    },
    {
      "channel": 0,
      "note": 58,
      "start": 143.8014,
      "duration": 0.1832,
      "velocity": 102,
      "chip": "ym2612"
    },
    {
      "channel": 1,
      "note": 75,
      "start": 143.8016,
      "duration": 0.1829,
      "velocity": 83,
      "chip": "ym2612"
    },
    {
      "channel": 2,
      "note": 42,
      "start": 143.8033,
      "duration": 0.0813,
      "velocity": 127,
      "chip": "ym2612"
    },
    {
      "channel": 2,
      "note": 30,
      "start": 143.9029,
      "duration": 0.0819,
      "velocity": 127,
      "chip": "ym2612"
    },
    {
      "channel": 0,
      "note": 64,
      "start": 144.0014,
      "duration": 0.3833,
      "velocity": 102,
      "chip": "ym2612"
    },
    {
      "channel": 1,
      "note": 76,
      "start": 144.0017,
      "duration": 0.3831,
      "velocity": 83,
      "chip": "ym2612"
    },
    {
      "channel": 2,
      "note": 76,
      "start": 144.0034,
      "duration": 0.1813,
      "velocity": 127,
      "chip": "ym2612"
    },
    {
      "channel": 2,
      "note": 30,
      "start": 144.2032,
      "duration": 0.0817,
      "velocity": 127,
      "chip": "ym2612"
    },
    {
      "channel": 2,
      "note": 76,
      "start": 144.3016,
      "duration": 0.0834,
      "velocity": 127,
      "chip": "ym2612"
    },
    {
      "channel": 0,
      "note": 54,
      "start": 144.4016,
      "duration": 0.1821,
      "velocity": 102,
      "chip": "ym2612"
    },
    {
      "channel": 1,
      "note": 78,
      "start": 144.4019,
      "duration": 0.382,
      "velocity": 83,
      "chip": "ym2612"
    },
    {
      "channel": 2,
      "note": 76,
      "start": 144.4036,
      "duration": 0.1804,
      "velocity": 127,
      "chip": "ym2612"
    },
    {
      "channel": 0,
      "note": 54,
      "start": 144.6005,
      "duration": 0.1833,
      "velocity": 102,
      "chip": "ym2612"
    },
    {
      "channel": 2,
      "note": 42,
      "start": 144.6023,
      "duration": 0.1817,
      "velocity": 127,
      "chip": "ym2612"
    },
    {
      "channel": 0,
      "note": 52,
      "start": 144.8006,
      "duration": 0.3854,
      "velocity": 102,
      "chip": "ym2612"
    },
    {
      "channel": 1,
      "note": 78,
      "start": 144.8009,
      "duration": 0.1829,
      "velocity": 83,
      "chip": "ym2612"
    },
    {
      "channel": 2,
      "note": 30,
      "start": 144.8011,
      "duration": 0.1829,
      "velocity": 127,
      "chip": "ym2612"
    },
    {
      "channel": 1,
      "note": 76,
      "start": 145.0005,
      "duration": 0.1856,
      "velocity": 83,
      "chip": "ym2612"
    },
    {
      "channel": 2,
      "note": 30,
      "start": 145.0022,
      "duration": 0.0838,
      "velocity": 127,
      "chip": "ym2612"
    },
    {
      "channel": 2,
      "note": 76,
      "start": 145.1028,
      "duration": 0.0835,
      "velocity": 127,
      "chip": "ym2612"
    },
    {
      "channel": 0,
      "note": 54,
      "start": 145.2028,
      "duration": 0.1817,
      "velocity": 102,
      "chip": "ym2612"
    },
    {
      "channel": 1,
      "note": 78,
      "start": 145.203,
      "duration": 0.1815,
      "velocity": 83,
      "chip": "ym2612"
    },
    {
      "channel": 2,
      "note": 76,
      "start": 145.2047,
      "duration": 0.1801,
      "velocity": 127,
      "chip": "ym2612"
    },
    {
      "channel": 0,
      "note": 52,
      "start": 145.4014,
      "duration": 0.3845,
      "velocity": 102,
      "chip": "ym2612"
    },
    {
      "channel": 1,
      "note": 75,
      "start": 145.4017,
      "duration": 1.7843,
      "velocity": 83,
      "chip": "ym2612"
    },
    {
      "channel": 2,
      "note": 42,
      "start": 145.4034,
      "duration": 0.0814,
      "velocity": 127,
      "chip": "ym2612"
    },
    {
      "channel": 2,
      "note": 30,
      "start": 145.5029,
      "duration": 0.0819,
      "velocity": 127,
      "chip": "ym2612"
    },
    {
      "channel": 2,
      "note": 76,
      "start": 145.6029,
      "duration": 0.1833,
      "velocity": 127,
      "chip": "ym2612"
    },
    {
      "channel": 0,
      "note": 54,
      "start": 145.8027,
      "duration": 0.3832,
      "velocity": 102,
      "chip": "ym2612"
    },
    {
      "channel": 2,
      "note": 30,
      "start": 145.8045,
      "duration": 0.0816,
      "velocity": 127,
      "chip": "ym2612"
    },
    {
      "channel": 2,
      "note": 76,
      "start": 145.9028,
      "duration": 0.0833,
      "velocity": 127,
      "chip": "ym2612"
    },
    {
      "channel": 2,
      "note": 76,
      "start": 146.0044,
      "duration": 0.1818,
      "velocity": 127,
      "chip": "ym2612"
    },
    {
      "channel": 0,
      "note": 54,
      "start": 146.2028,
      "duration": 0.1817,
      "velocity": 102,
      "chip": "ym2612"
    },
    {
      "channel": 2,
      "note": 42,
      "start": 146.2046,
      "duration": 0.0815,
      "velocity": 127,
      "chip": "ym2612"
    },
    {
      "channel": 2,
      "note": 76,
      "start": 146.3028,
      "duration": 0.0819,
      "velocity": 127,
      "chip": "ym2612"
    },
    {
      "channel": 0,
      "note": 54,
      "start": 146.4014,
      "duration": 0.1831,
      "velocity": 102,
      "chip": "ym2612"
    },
    {
      "channel": 2,
      "note": 76,
      "start": 146.4032,
      "duration": 0.1816,
      "velocity": 127,
      "chip": "ym2612"
    },
    {
      "channel": 0,
      "note": 54,
      "start": 146.6012,
      "duration": 0.1832,
      "velocity": 102,
      "chip": "ym2612"
    },
    {
      "channel": 2,
      "note": 30,
      "start": 146.6017,
      "duration": 0.0831,
      "velocity": 127,
      "chip": "ym2612"
    },
    {
      "channel": 2,
      "note": 30,
      "start": 146.7029,
      "duration": 0.0818,
      "velocity": 127,
      "chip": "ym2612"
    },
    {
      "channel": 0,
      "note": 49,
      "start": 146.8014,
      "duration": 0.3845,
      "velocity": 102,
      "chip": "ym2612"
    },
    {
      "channel": 2,
      "note": 76,
      "start": 146.8032,
      "duration": 0.1828,
      "velocity": 127,
      "chip": "ym2612"
    },
    {
      "channel": 2,
      "note": 42,
      "start": 147.0043,
      "duration": 0.0817,
      "velocity": 127,
      "chip": "ym2612"
    },
    {
      "channel": 2,
      "note": 30,
      "start": 147.1044,
      "duration": 0.0819,
      "velocity": 127,
      "chip": "ym2612"
    },
    {
      "channel": 0,
      "note": 52,
      "start": 147.2028,
      "duration": 0.3817,
      "velocity": 102,
      "chip": "ym2612"
    },
    {
      "channel": 1,
      "note": 71,
      "start": 147.2031,
      "duration": 0.1815,
      "velocity": 83,
      "chip": "ym2612"
    },
    {
      "channel": 2,
      "note": 76,
      "start": 147.2048,
      "duration": 0.18,
      "velocity": 127,
      "chip": "ym2612"
    },
    {
      "channel": 1,
      "note": 66,
      "start": 147.4014,
      "duration": 0.1833,
      "velocity": 83,
      "chip": "ym2612"
    },
    {
      "channel": 2,
      "note": 30,
      "start": 147.403,
      "duration": 0.0816,
      "velocity": 127,
      "chip": "ym2612"
    },
    {
      "channel": 2,
      "note": 76,
      "start": 147.5014,
      "duration": 0.0835,
      "velocity": 127,
      "chip": "ym2612"
    },
    {
      "channel": 0,
      "note": 54,
      "start": 147.6014,
      "duration": 0.1832,
      "velocity": 102,
      "chip": "ym2612"
    },
    {
      "channel": 1,
      "note": 76,
      "start": 147.6016,
      "duration": 0.3844,
      "velocity": 83,
      "chip": "ym2612"
    },
    {
      "channel": 2,
      "note": 76,
      "start": 147.6033,
      "duration": 0.1815,
      "velocity": 127,
      "chip": "ym2612"
    },
    {
      "channel": 0,
      "note": 54,
      "start": 147.8013,
      "duration": 0.1846,
      "velocity": 102,
      "chip": "ym2612"
    },
    {
      "channel": 2,
      "note": 42,
      "start": 147.8032,
      "duration": 0.183,
      "velocity": 127,
      "chip": "ym2612"
    },
    {
      "channel": 0,
      "note": 52,
      "start": 148.0028,
      "duration": 0.3831,
      "velocity": 102,
      "chip": "ym2612"
    },
    {
      "channel": 1,
      "note": 78,
      "start": 148.003,
      "duration": 0.3829,
      "velocity": 83,
      "chip": "ym2612"
    },
    {
      "channel": 2,
      "note": 30,
      "start": 148.0033,
      "duration": 0.1828,
      "velocity": 127,
      "chip": "ym2612"
    },
    {
      "channel": 2,
      "note": 30,
      "start": 148.2044,
      "duration": 0.0817,
      "velocity": 127,
      "chip": "ym2612"
    },
    {
      "channel": 2,
      "note": 76,
      "start": 148.3028,
      "duration": 0.0834,
      "velocity": 127,
      "chip": "ym2612"
    },
    {
      "channel": 0,
      "note": 54,
      "start": 148.4028,
      "duration": 0.181,
      "velocity": 102,
      "chip": "ym2612"
    },
    {
      "channel": 1,
      "note": 78,
      "start": 148.4031,
      "duration": 0.1808,
      "velocity": 83,
      "chip": "ym2612"
    },
    {
      "channel": 2,
      "note": 76,
      "start": 148.4047,
      "duration": 0.1794,
      "velocity": 127,
      "chip": "ym2612"
    },
    {
      "channel": 0,
      "note": 52,
      "start": 148.6007,
      "duration": 0.3831,
      "velocity": 102,
      "chip": "ym2612"
    },
    {
      "channel": 1,
      "note": 76,
      "start": 148.6009,
      "duration": 0.183,
      "velocity": 83,
      "chip": "ym2612"
    },
    {
      "channel": 2,
      "note": 42,
      "start": 148.6026,
      "duration": 0.0814,
      "velocity": 127,
      "chip": "ym2612"
    },
    {
      "channel": 2,
      "note": 30,
      "start": 148.7021,
      "duration": 0.0819,
      "velocity": 127,
      "chip": "ym2612"
    },
    {
      "channel": 1,
      "note": 73,
      "start": 148.8006,
      "duration": 0.1832,
      "velocity": 83,
      "chip": "ym2612"
    },
    {
      "channel": 2,
      "note": 76,
      "start": 148.8023,
      "duration": 0.1817,
      "velocity": 127,
      "chip": "ym2612"
    },
    {
      "channel": 0,
      "note": 54,
      "start": 149.0007,
      "duration": 0.3838,
      "velocity": 102,
      "chip": "ym2612"
    },
    {
      "channel": 1,
      "note": 82,
      "start": 149.0009,
      "duration": 0.3837,
      "velocity": 83,
      "chip": "ym2612"
    },
    {
      "channel": 2,
      "note": 30,
      "start": 149.0026,
      "duration": 0.082,
      "velocity": 127,
      "chip": "ym2612"
    },
    {
      "channel": 2,
      "note": 76,
      "start": 149.1014,
      "duration": 0.0833,
      "velocity": 127,
      "chip": "ym2612"
    },
    {
      "channel": 2,
      "note": 76,
      "start": 149.2029,
      "duration": 0.1818,
      "velocity": 127,
      "chip": "ym2612"
    },
    {
      "channel": 0,
      "note": 54,
      "start": 149.4014,
      "duration": 0.183,
      "velocity": 102,
      "chip": "ym2612"
    },
    {
      "channel": 1,
      "note": 83,
      "start": 149.4017,
      "duration": 0.3829,
      "velocity": 83,
      "chip": "ym2612"
    },
    {
      "channel": 2,
      "note": 42,
      "start": 149.4033,
      "duration": 0.0814,
      "velocity": 127,
      "chip": "ym2612"
    },
    {
      "channel": 2,
      "note": 76,
      "start": 149.5014,
      "duration": 0.0833,
      "velocity": 127,
      "chip": "ym2612"
    },
    {
      "channel": 0,
      "note": 56,
      "start": 149.6014,
      "duration": 0.1832,
      "velocity": 102,
      "chip": "ym2612"
    },
    {
      "channel": 2,
      "note": 76,
      "start": 149.6032,
      "duration": 0.1816,
      "velocity": 127,
      "chip": "ym2612"
    },
    {
      "channel": 0,
      "note": 57,
      "start": 149.8014,
      "duration": 0.1832,
      "velocity": 102,
      "chip": "ym2612"
    },
    {
      "channel": 1,
      "note": 83,
      "start": 149.8016,
      "duration": 0.183,
      "velocity": 83,
      "chip": "ym2612"
    },
    {
      "channel": 2,
      "note": 30,
      "start": 149.8019,
      "duration": 0.0828,
      "velocity": 127,
      "chip": "ym2612"
    },
    {
      "channel": 2,
      "note": 30,
      "start": 149.903,
      "duration": 0.0819,
      "velocity": 127,
      "chip": "ym2612"
    },
    {
      "channel": 0,
      "note": 58,
      "start": 150.0014,
      "duration": 0.3832,
      "velocity": 102,
      "chip": "ym2612"
    },
    {
      "channel": 1,
      "note": 82,
      "start": 150.0016,
      "duration": 0.1829,
      "velocity": 83,
      "chip": "ym2612"
    },
    {
      "channel": 2,
      "note": 76,
      "start": 150.0033,
      "duration": 0.1815,
      "velocity": 127,
      "chip": "ym2612"
    },
    {
      "channel": 1,
      "note": 78,
      "start": 150.2014,
      "duration": 0.1833,
      "velocity": 83,
      "chip": "ym2612"
    },
    {
      "channel": 2,
      "note": 42,
      "start": 150.203,
      "duration": 0.0816,
      "velocity": 127,
      "chip": "ym2612"
    },
    {
      "channel": 2,
      "note": 30,
      "start": 150.3029,
      "duration": 0.0819,
      "velocity": 127,
      "chip": "ym2612"
    },
    {
      "channel": 0,
      "note": 64,
      "start": 150.4015,
      "duration": 0.383,
      "velocity": 102,
      "chip": "ym2612"
    },
    {
      "channel": 1,
      "note": 83,
      "start": 150.4017,
      "duration": 0.3829,
      "velocity": 83,
      "chip": "ym2612"
    },
    {
      "channel": 2,
      "note": 76,
      "start": 150.4034,
      "duration": 0.1813,
      "velocity": 127,
      "chip": "ym2612"
    },
    {
      "channel": 2,
      "note": 30,
      "start": 150.603,
      "duration": 0.0817,
      "velocity": 127,
      "chip": "ym2612"
    },
    {
      "channel": 2,
      "note": 76,
      "start": 150.7015,
      "duration": 0.0833,
      "velocity": 127,
      "chip": "ym2612"
    },
    {
      "channel": 0,
      "note": 54,
      "start": 150.8014,
      "duration": 0.3831,
      "velocity": 102,
      "chip": "ym2612"
    },
    {
      "channel": 1,
      "note": 85,
      "start": 150.8016,
      "duration": 0.3829,
      "velocity": 83,
      "chip": "ym2612"
    },
    {
      "channel": 2,
      "note": 76,
      "start": 150.8033,
      "duration": 0.1815,
      "velocity": 127,
      "chip": "ym2612"
    },
    {
      "channel": 2,
      "note": 42,
      "start": 151.0029,
      "duration": 0.1819,
      "velocity": 127,
      "chip": "ym2612"
    },
    {
      "channel": 0,
      "note": 54,
      "start": 151.2013,
      "duration": 0.3833,
      "velocity": 102,
      "chip": "ym2612"
    },
    {
      "channel": 1,
      "note": 83,
      "start": 151.2015,
      "duration": 0.183,
      "velocity": 83,
      "chip": "ym2612"
    },
    {
      "channel": 2,
      "note": 30,
      "start": 151.2018,
      "duration": 0.183,
      "velocity": 127,
      "chip": "ym2612"
    },
    {
      "channel": 1,
      "note": 80,
      "start": 151.4014,
      "duration": 0.1833,
      "velocity": 83,
      "chip": "ym2612"
    },
    {
      "channel": 2,
      "note": 30,
      "start": 151.403,
      "duration": 0.0816,
      "velocity": 127,
      "chip": "ym2612"
    },
    {
      "channel": 2,
      "note": 76,
      "start": 151.5014,
      "duration": 0.0835,
      "velocity": 127,
      "chip": "ym2612"
    },
    {
      "channel": 0,
      "note": 54,
      "start": 151.6014,
      "duration": 0.1832,
      "velocity": 102,
      "chip": "ym2612"
    },
    {
      "channel": 1,
      "note": 78,
      "start": 151.6016,
      "duration": 0.1831,
      "velocity": 83,
      "chip": "ym2612"
    },
    {
      "channel": 2,
      "note": 76,
      "start": 151.6033,
      "duration": 0.1815,
      "velocity": 127,
      "chip": "ym2612"
    },
    {
      "channel": 0,
      "note": 52,
      "start": 151.8014,
      "duration": 0.383,
      "velocity": 102,
      "chip": "ym2612"
    },
    {
      "channel": 1,
      "note": 76,
      "start": 151.8017,
      "duration": 1.783,
      "velocity": 83,
      "chip": "ym2612"
    },
    {
      "channel": 2,
      "note": 42,
      "start": 151.8033,
      "duration": 0.0814,
      "velocity": 127,
      "chip": "ym2612"
    },
    {
      "channel": 2,
      "note": 30,
      "start": 151.903,
      "duration": 0.0817,
      "velocity": 127,
      "chip": "ym2612"
    },
    {
      "channel": 2,
      "note": 76,
      "start": 152.003,
      "duration": 0.1817,
      "velocity": 127,
      "chip": "ym2612"
    },
    {
      "channel": 0,
      "note": 54,
      "start": 152.2014,
      "duration": 0.3824,
      "velocity": 102,
      "chip": "ym2612"
    },
    {
      "channel": 2,
      "note": 30,
      "start": 152.2032,
      "duration": 0.0815,
      "velocity": 127,
      "chip": "ym2612"
    },
    {
      "channel": 2,
      "note": 76,
      "start": 152.3014,
      "duration": 0.0832,
      "velocity": 127,
      "chip": "ym2612"
    },
    {
      "channel": 2,
      "note": 76,
      "start": 152.4029,
      "duration": 0.1811,
      "velocity": 127,
      "chip": "ym2612"
    },
    {
      "channel": 0,
      "note": 54,
      "start": 152.6007,
      "duration": 0.1831,
      "velocity": 102,
      "chip": "ym2612"
    },
    {
      "channel": 2,
      "note": 42,
      "start": 152.6025,
      "duration": 0.0815,
      "velocity": 127,
      "chip": "ym2612"
    },
    {
      "channel": 2,
      "note": 76,
      "start": 152.7007,
      "duration": 0.0833,
      "velocity": 127,
      "chip": "ym2612"
    },
    {
      "channel": 0,
      "note": 54,
      "start": 152.8005,
      "duration": 0.1833,
      "velocity": 102,
      "chip": "ym2612"
    },
    {
      "channel": 2,
      "note": 76,
      "start": 152.8024,
      "duration": 0.1817,
      "velocity": 127,
      "chip": "ym2612"
    },
    {
      "channel": 0,
      "note": 54,
      "start": 153.0006,
      "duration": 0.1839,
      "velocity": 102,
      "chip": "ym2612"
    },
    {
      "channel": 2,
      "note": 30,
      "start": 153.001,
      "duration": 0.083,
      "velocity": 127,
      "chip": "ym2612"
    },
    {
      "channel": 2,
      "note": 30,
      "start": 153.1029,
      "duration": 0.0818,
      "velocity": 127,
      "chip": "ym2612"
    },
    {
      "channel": 0,
      "note": 49,
      "start": 153.2014,
      "duration": 0.1832,
      "velocity": 102,
      "chip": "ym2612"
    },
    {
      "channel": 2,
      "note": 76,
      "start": 153.2032,
      "duration": 0.1816,
      "velocity": 127,
      "chip": "ym2612"
    },
    {
      "channel": 0,
      "note": 52,
      "start": 153.4014,
      "duration": 0.1831,
      "velocity": 102,
      "chip": "ym2612"
    },
    {
      "channel": 2,
      "note": 42,
      "start": 153.4033,
      "duration": 0.0815,
      "velocity": 127,
      "chip": "ym2612"
    },
    {
      "channel": 2,
      "note": 30,
      "start": 153.5029,
      "duration": 0.082,
      "velocity": 127,
      "chip": "ym2612"
    },
    {
      "channel": 0,
      "note": 49,
      "start": 153.6032,
      "duration": 0.3814,
      "velocity": 102,
      "chip": "ym2612"
    },
    {
      "channel": 1,
      "note": 77,
      "start": 153.6048,
      "duration": 0.0798,
      "velocity": 83,
      "chip": "ym2612"
    },
    {
      "channel": 2,
      "note": 76,
      "start": 153.6065,
      "duration": 0.1783,
      "velocity": 127,
      "chip": "ym2612"
    },
    {
      "channel": 1,
      "note": 97,
      "start": 153.7013,
      "duration": 0.0833,
      "velocity": 83,
      "chip": "ym2612"
    },
    {
      "channel": 1,
      "note": 100,
      "start": 153.8014,
      "duration": 0.1832,
      "velocity": 83,
      "chip": "ym2612"
    },
    {
      "channel": 2,
      "note": 30,
      "start": 153.8032,
      "duration": 0.0815,
      "velocity": 127,
      "chip": "ym2612"
    },
    {
      "channel": 2,
      "note": 76,
      "start": 153.9015,
      "duration": 0.0833,
      "velocity": 127,
      "chip": "ym2612"
    },
    {
      "channel": 0,
      "note": 54,
      "start": 154.0014,
      "duration": 0.3832,
      "velocity": 102,
      "chip": "ym2612"
    },
    {
      "channel": 1,
      "note": 102,
      "start": 154.0016,
      "duration": 0.183,
      "velocity": 83,
      "chip": "ym2612"
    },
    {
      "channel": 2,
      "note": 76,
      "start": 154.0033,
      "duration": 0.1816,
      "velocity": 127,
      "chip": "ym2612"
    },
    {
      "channel": 1,
      "note": 102,
      "start": 154.2014,
      "duration": 0.0832,
      "velocity": 83,
      "chip": "ym2612"
    },
    {
      "channel": 2,
      "note": 42,
      "start": 154.2031,
      "duration": 0.1817,
      "velocity": 127,
      "chip": "ym2612"
    },
    {
      "channel": 1,
      "note": 100,
      "start": 154.3012,
      "duration": 0.0834,
      "velocity": 83,
      "chip": "ym2612"
    },
    {
      "channel": 0,
      "note": 54,
      "start": 154.4014,
      "duration": 0.1832,
      "velocity": 102,
      "chip": "ym2612"
    },
    {
      "channel": 1,
      "note": 97,
      "start": 154.4016,
      "duration": 0.183,
      "velocity": 83,
      "chip": "ym2612"
    },
    {
      "channel": 2,
      "note": 30,
      "start": 154.4019,
      "duration": 0.1829,
      "velocity": 127,
      "chip": "ym2612"
    },
    {
      "channel": 0,
      "note": 54,
      "start": 154.6015,
      "duration": 0.3829,
      "velocity": 102,
      "chip": "ym2612"
    },
    {
      "channel": 1,
      "note": 102,
      "start": 154.6017,
      "duration": 0.1828,
      "velocity": 83,
      "chip": "ym2612"
    },
    {
      "channel": 2,
      "note": 30,
      "start": 154.6034,
      "duration": 0.0814,
      "velocity": 127,
      "chip": "ym2612"
    },
    {
      "channel": 2,
      "note": 76,
      "start": 154.7015,
      "duration": 0.0833,
      "velocity": 127,
      "chip": "ym2612"
    },
    {
      "channel": 1,
      "note": 102,
      "start": 154.8014,
      "duration": 0.1832,
      "velocity": 83,
      "chip": "ym2612"
    },
    {
      "channel": 2,
      "note": 76,
      "start": 154.8031,
      "duration": 0.1817,
      "velocity": 127,
      "chip": "ym2612"
    },
    {
      "channel": 0,
      "note": 49,
      "start": 155.0013,
      "duration": 0.3833,
      "velocity": 102,
      "chip": "ym2612"
    },
    {
      "channel": 1,
      "note": 100,
      "start": 155.0015,
      "duration": 0.183,
      "velocity": 83,
      "chip": "ym2612"
    },
    {
      "channel": 2,
      "note": 42,
      "start": 155.0032,
      "duration": 0.0815,
      "velocity": 127,
      "chip": "ym2612"
    },
    {
      "channel": 2,
      "note": 30,
      "start": 155.1029,
      "duration": 0.082,
      "velocity": 127,
      "chip": "ym2612"
    },
    {
      "channel": 1,
      "note": 97,
      "start": 155.2014,
      "duration": 0.1833,
      "velocity": 83,
      "chip": "ym2612"
    },
    {
      "channel": 2,
      "note": 76,
      "start": 155.203,
      "duration": 0.1819,
      "velocity": 127,
      "chip": "ym2612"
    },
    {
      "channel": 0,
      "note": 54,
      "start": 155.4014,
      "duration": 0.3832,
      "velocity": 102,
      "chip": "ym2612"
    },
    {
      "channel": 1,
      "note": 104,
      "start": 155.4016,
      "duration": 0.183,
      "velocity": 83,
      "chip": "ym2612"
    },
    {
      "channel": 2,
      "note": 30,
      "start": 155.4033,
      "duration": 0.0814,
      "velocity": 127,
      "chip": "ym2612"
    },
    {
      "channel": 2,
      "note": 76,
      "start": 155.5014,
      "duration": 0.0834,
      "velocity": 127,
      "chip": "ym2612"
    },
    {
      "channel": 1,
      "note": 100,
      "start": 155.6014,
      "duration": 0.1832,
      "velocity": 83,
      "chip": "ym2612"
    },
    {
      "channel": 2,
      "note": 76,
      "start": 155.6031,
      "duration": 0.1817,
      "velocity": 127,
      "chip": "ym2612"
    },
    {
      "channel": 0,
      "note": 54,
      "start": 155.8015,
      "duration": 0.183,
      "velocity": 102,
      "chip": "ym2612"
    },
    {
      "channel": 1,
      "note": 97,
      "start": 155.8017,
      "duration": 0.1829,
      "velocity": 83,
      "chip": "ym2612"
    },
    {
      "channel": 2,
      "note": 42,
      "start": 155.8034,
      "duration": 0.0814,
      "velocity": 127,
      "chip": "ym2612"
    },
    {
      "channel": 2,
      "note": 76,
      "start": 155.9015,
      "duration": 0.0833,
      "velocity": 127,
      "chip": "ym2612"
    },
    {
      "channel": 0,
      "note": 54,
      "start": 156.0014,
      "duration": 0.1832,
      "velocity": 102,
      "chip": "ym2612"
    },
    {
      "channel": 1,
      "note": 102,
      "start": 156.0016,
      "duration": 0.1831,
      "velocity": 83,
      "chip": "ym2612"
    },
    {
      "channel": 2,
      "note": 76,
      "start": 156.0033,
      "duration": 0.1816,
      "velocity": 127,
      "chip": "ym2612"
    },
    {
      "channel": 0,
      "note": 56,
      "start": 156.2012,
      "duration": 0.1833,
      "velocity": 102,
      "chip": "ym2612"
    },
    {
      "channel": 1,
      "note": 99,
      "start": 156.2015,
      "duration": 0.1832,
      "velocity": 83,
      "chip": "ym2612"
    },
    {
      "channel": 2,
      "note": 30,
      "start": 156.2017,
      "duration": 0.083,
      "velocity": 127,
      "chip": "ym2612"
    },
    {
      "channel": 2,
      "note": 30,
      "start": 156.3029,
      "duration": 0.082,
      "velocity": 127,
      "chip": "ym2612"
    },
    {
      "channel": 0,
      "note": 57,
      "start": 156.4014,
      "duration": 0.1832,
      "velocity": 102,
      "chip": "ym2612"
    },
    {
      "channel": 1,
      "note": 97,
      "start": 156.4016,
      "duration": 0.1829,
      "velocity": 83,
      "chip": "ym2612"
    },
    {
      "channel": 2,
      "note": 76,
      "start": 156.4033,
      "duration": 0.1815,
      "velocity": 127,
      "chip": "ym2612"
    },
    {
      "channel": 0,
      "note": 58,
      "start": 156.6006,
      "duration": 0.1832,
      "velocity": 102,
      "chip": "ym2612"
    },
    {
      "channel": 1,
      "note": 100,
      "start": 156.6009,
      "duration": 0.183,
      "velocity": 83,
      "chip": "ym2612"
    },
    {
      "channel": 2,
      "note": 42,
      "start": 156.6026,
      "duration": 0.0814,
      "velocity": 127,
      "chip": "ym2612"
    },
    {
      "channel": 2,
      "note": 30,
      "start": 156.7022,
      "duration": 0.0819,
      "velocity": 127,
      "chip": "ym2612"
    },
    {
      "channel": 0,
      "note": 64,
      "start": 156.8007,
      "duration": 0.3856,
      "velocity": 102,
      "chip": "ym2612"
    },
    {
      "channel": 1,
      "note": 99,
      "start": 156.801,
      "duration": 0.1829,
      "velocity": 83,
      "chip": "ym2612"
    },
    {
      "channel": 2,
      "note": 76,
      "start": 156.8027,
      "duration": 0.1814,
      "velocity": 127,
      "chip": "ym2612"
    },
    {
      "channel": 1,
      "note": 97,
      "start": 157.0006,
      "duration": 0.1858,
      "velocity": 83,
      "chip": "ym2612"
    },
    {
      "channel": 2,
      "note": 30,
      "start": 157.0023,
      "duration": 0.0816,
      "velocity": 127,
      "chip": "ym2612"
    },
    {
      "channel": 2,
      "note": 76,
      "start": 157.1007,
      "duration": 0.0859,
      "velocity": 127,
      "chip": "ym2612"
    },
    {
      "channel": 0,
      "note": 54,
      "start": 157.2033,
      "duration": 0.183,
      "velocity": 102,
      "chip": "ym2612"
    },
    {
      "channel": 1,
      "note": 99,
      "start": 157.2035,
      "duration": 0.1829,
      "velocity": 83,
      "chip": "ym2612"
    },
    {
      "channel": 2,
      "note": 76,
      "start": 157.2052,
      "duration": 0.1815,
      "velocity": 127,
      "chip": "ym2612"
    },
    {
      "channel": 0,
      "note": 54,
      "start": 157.4032,
      "duration": 0.1818,
      "velocity": 102,
      "chip": "ym2612"
    },
    {
      "channel": 1,
      "note": 97,
      "start": 157.4034,
      "duration": 0.1816,
      "velocity": 83,
      "chip": "ym2612"
    },
    {
      "channel": 2,
      "note": 42,
      "start": 157.4051,
      "duration": 0.1801,
      "velocity": 127,
      "chip": "ym2612"
    },
    {
      "channel": 0,
      "note": 52,
      "start": 157.6017,
      "duration": 0.3833,
      "velocity": 102,
      "chip": "ym2612"
    },
    {
      "channel": 1,
      "note": 95,
      "start": 157.602,
      "duration": 0.183,
      "velocity": 83,
      "chip": "ym2612"
    },
    {
      "channel": 2,
      "note": 30,
      "start": 157.6022,
      "duration": 0.183,
      "velocity": 127,
      "chip": "ym2612"
    },
    {
      "channel": 1,
      "note": 93,
      "start": 157.8018,
      "duration": 0.1833,
      "velocity": 83,
      "chip": "ym2612"
    },
    {
      "channel": 2,
      "note": 30,
      "start": 157.8035,
      "duration": 0.0816,
      "velocity": 127,
      "chip": "ym2612"
    },
    {
      "channel": 2,
      "note": 76,
      "start": 157.9018,
      "duration": 0.0835,
      "velocity": 127,
      "chip": "ym2612"
    },
    {
      "channel": 0,
      "note": 54,
      "start": 158.0032,
      "duration": 0.1832,
      "velocity": 102,
      "chip": "ym2612"
    },
    {
      "channel": 1,
      "note": 95,
      "start": 158.0035,
      "duration": 0.183,
      "velocity": 83,
      "chip": "ym2612"
    },
    {
      "channel": 2,
      "note": 76,
      "start": 158.0052,
      "duration": 0.1816,
      "velocity": 127,
      "chip": "ym2612"
    },
    {
      "channel": 0,
      "note": 52,
      "start": 158.2032,
      "duration": 0.3818,
      "velocity": 102,
      "chip": "ym2612"
    },
    {
      "channel": 1,
      "note": 96,
      "start": 158.2035,
      "duration": 0.1829,
      "velocity": 83,
      "chip": "ym2612"
    },
    {
      "channel": 2,
      "note": 42,
      "start": 158.2052,
      "duration": 0.0813,
      "velocity": 127,
      "chip": "ym2612"
    },
    {
      "channel": 2,
      "note": 30,
      "start": 158.3048,
      "duration": 0.0818,
      "velocity": 127,
      "chip": "ym2612"
    },
    {
      "channel": 1,
      "note": 97,
      "start": 158.4032,
      "duration": 0.1819,
      "velocity": 83,
      "chip": "ym2612"
    },
    {
      "channel": 2,
      "note": 76,
      "start": 158.4048,
      "duration": 0.1805,
      "velocity": 127,
      "chip": "ym2612"
    },
    {
      "channel": 0,
      "note": 54,
      "start": 158.6018,
      "duration": 0.3831,
      "velocity": 102,
      "chip": "ym2612"
    },
    {
      "channel": 1,
      "note": 93,
      "start": 158.6021,
      "duration": 0.183,
      "velocity": 83,
      "chip": "ym2612"
    },
    {
      "channel": 2,
      "note": 30,
      "start": 158.6038,
      "duration": 0.0813,
      "velocity": 127,
      "chip": "ym2612"
    },
    {
      "channel": 2,
      "note": 76,
      "start": 158.7018,
      "duration": 0.0834,
      "velocity": 127,
      "chip": "ym2612"
    },
    {
      "channel": 1,
      "note": 90,
      "start": 158.8018,
      "duration": 0.1832,
      "velocity": 83,
      "chip": "ym2612"
    },
    {
      "channel": 2,
      "note": 76,
      "start": 158.8035,
      "duration": 0.1817,
      "velocity": 127,
      "chip": "ym2612"
    },
    {
      "channel": 0,
      "note": 54,
      "start": 159.0019,
      "duration": 0.1844,
      "velocity": 102,
      "chip": "ym2612"
    },
    {
      "channel": 1,
      "note": 88,
      "start": 159.0021,
      "duration": 0.3844,
      "velocity": 83,
      "chip": "ym2612"
    },
    {
      "channel": 2,
      "note": 42,
      "start": 159.0038,
      "duration": 0.0827,
      "velocity": 127,
      "chip": "ym2612"
    },
    {
      "channel": 2,
      "note": 76,
      "start": 159.1032,
      "duration": 0.0833,
      "velocity": 127,
      "chip": "ym2612"
    },
    {
      "channel": 0,
      "note": 54,
      "start": 159.2032,
      "duration": 0.1832,
      "velocity": 102,
      "chip": "ym2612"
    },
    {
      "channel": 2,
      "note": 76,
      "start": 159.2051,
      "duration": 0.1817,
      "velocity": 127,
      "chip": "ym2612"
    },
    {
      "channel": 0,
      "note": 54,
      "start": 159.4032,
      "duration": 0.1832,
      "velocity": 102,
      "chip": "ym2612"
    },
    {
      "channel": 1,
      "note": 90,
      "start": 159.4035,
      "duration": 0.3815,
      "velocity": 83,
      "chip": "ym2612"
    },
    {
      "channel": 2,
      "note": 30,
      "start": 159.4037,
      "duration": 0.0828,
      "velocity": 127,
      "chip": "ym2612"
    },
    {
      "channel": 2,
      "note": 30,
      "start": 159.5047,
      "duration": 0.0819,
      "velocity": 127,
      "chip": "ym2612"
    },
    {
      "channel": 0,
      "note": 49,
      "start": 159.6017,
      "duration": 0.3833,
      "velocity": 102,
      "chip": "ym2612"
    },
    {
      "channel": 2,
      "note": 76,
      "start": 159.6037,
      "duration": 0.1815,
      "velocity": 127,
      "chip": "ym2612"
    },
    {
      "channel": 1,
      "note": 90,
      "start": 159.8019,
      "duration": 0.1832,
      "velocity": 83,
      "chip": "ym2612"
    },
    {
      "channel": 2,
      "note": 42,
      "start": 159.8035,
      "duration": 0.0816,
      "velocity": 127,
      "chip": "ym2612"
    },
    {
      "channel": 2,
      "note": 30,
      "start": 159.9033,
      "duration": 0.082,
      "velocity": 127,
      "chip": "ym2612"
    },
    {
      "channel": 0,
      "note": 52,
      "start": 160.0018,
      "duration": 0.3845,
      "velocity": 102,
      "chip": "ym2612"
    },
    {
      "channel": 1,
      "note": 90,
      "start": 160.0021,
      "duration": 0.0996,
      "velocity": 83,
      "chip": "ym2612"
    },
    {
      "channel": 2,
      "note": 76,
      "start": 160.0038,
      "duration": 0.1828,
      "velocity": 127,
      "chip": "ym2612"
    },
    {
      "channel": 1,
      "note": 90,
      "start": 160.1017,
      "duration": 0.0847,
      "velocity": 83,
      "chip": "ym2612"
    },
    {
      "channel": 1,
      "note": 92,
      "start": 160.2033,
      "duration": 0.1832,
      "velocity": 83,
      "chip": "ym2612"
    },
    {
      "channel": 2,
      "note": 30,
      "start": 160.205,
      "duration": 0.0815,
      "velocity": 127,
      "chip": "ym2612"
    },
    {
      "channel": 2,
      "note": 76,
      "start": 160.3032,
      "duration": 0.0835,
      "velocity": 127,
      "chip": "ym2612"
    },
    {
      "channel": 0,
      "note": 54,
      "start": 160.4033,
      "duration": 0.183,
      "velocity": 102,
      "chip": "ym2612"
    },
    {
      "channel": 1,
      "note": 95,
      "start": 160.4036,
      "duration": 0.0995,
      "velocity": 83,
      "chip": "ym2612"
    },
    {
      "channel": 2,
      "note": 76,
      "start": 160.4053,
      "duration": 0.1814,
      "velocity": 127,
      "chip": "ym2612"
    },
    {
      "channel": 1,
      "note": 90,
      "start": 160.5031,
      "duration": 0.0834,
      "velocity": 83,
      "chip": "ym2612"
    },
    {
      "channel": 0,
      "note": 54,
      "start": 160.6032,
      "duration": 0.1807,
      "velocity": 102,
      "chip": "ym2612"
    },
    {
      "channel": 1,
      "note": 92,
      "start": 160.6034,
      "duration": 0.1805,
      "velocity": 83,
      "chip": "ym2612"
    },
    {
      "channel": 2,
      "note": 42,
      "start": 160.6051,
      "duration": 0.179,
      "velocity": 127,
      "chip": "ym2612"
    },
    {
      "channel": 0,
      "note": 52,
      "start": 160.8006,
      "duration": 0.384,
      "velocity": 102,
      "chip": "ym2612"
    },
    {
      "channel": 1,
      "note": 95,
      "start": 160.8009,
      "duration": 0.0995,
      "velocity": 83,
      "chip": "ym2612"
    },
    {
      "channel": 2,
      "note": 30,
      "start": 160.8011,
      "duration": 0.1828,
      "velocity": 127,
      "chip": "ym2612"
    },
    {
      "channel": 1,
      "note": 90,
      "start": 160.9005,
      "duration": 0.0833,
      "velocity": 83,
      "chip": "ym2612"
    },
    {
      "channel": 1,
      "note": 92,
      "start": 161.0007,
      "duration": 0.184,
      "velocity": 83,
      "chip": "ym2612"
    },
    {
      "channel": 2,
      "note": 30,
      "start": 161.0023,
      "duration": 0.0817,
      "velocity": 127,
      "chip": "ym2612"
    },
    {
      "channel": 2,
      "note": 76,
      "start": 161.1007,
      "duration": 0.0842,
      "velocity": 127,
      "chip": "ym2612"
    },
    {
      "channel": 0,
      "note": 54,
      "start": 161.2014,
      "duration": 0.1832,
      "velocity": 102,
      "chip": "ym2612"
    },
    {
      "channel": 1,
      "note": 95,
      "start": 161.2016,
      "duration": 0.0829,
      "velocity": 83,
      "chip": "ym2612"
    },
    {
      "channel": 2,
      "note": 76,
      "start": 161.2033,
      "duration": 0.1814,
      "velocity": 127,
      "chip": "ym2612"
    },
    {
      "channel": 1,
      "note": 90,
      "start": 161.3012,
      "duration": 0.1004,
      "velocity": 83,
      "chip": "ym2612"
    },
    {
      "channel": 0,
      "note": 52,
      "start": 161.4014,
      "duration": 0.3833,
      "velocity": 102,
      "chip": "ym2612"
    },
    {
      "channel": 1,
      "note": 92,
      "start": 161.4016,
      "duration": 0.0829,
      "velocity": 83,
      "chip": "ym2612"
    },
    {
      "channel": 2,
      "note": 42,
      "start": 161.4033,
      "duration": 0.0814,
      "velocity": 127,
      "chip": "ym2612"
    },
    {
      "channel": 1,
      "note": 95,
      "start": 161.5013,
      "duration": 0.1832,
      "velocity": 83,
      "chip": "ym2612"
    },
    {
      "channel": 2,
      "note": 30,
      "start": 161.5029,
      "duration": 0.0818,
      "velocity": 127,
      "chip": "ym2612"
    },
    {
      "channel": 2,
      "note": 76,
      "start": 161.6029,
      "duration": 0.1821,
      "velocity": 127,
      "chip": "ym2612"
    },
    {
      "channel": 1,
      "note": 90,
      "start": 161.7013,
      "duration": 0.0835,
      "velocity": 83,
      "chip": "ym2612"
    },
    {
      "channel": 0,
      "note": 54,
      "start": 161.8015,
      "duration": 0.3831,
      "velocity": 102,
      "chip": "ym2612"
    },
    {
      "channel": 1,
      "note": 92,
      "start": 161.8018,
      "duration": 0.1829,
      "velocity": 83,
      "chip": "ym2612"
    },
    {
      "channel": 2,
      "note": 30,
      "start": 161.8035,
      "duration": 0.0814,
      "velocity": 127,
      "chip": "ym2612"
    },
    {
      "channel": 2,
      "note": 76,
      "start": 161.9015,
      "duration": 0.0835,
      "velocity": 127,
      "chip": "ym2612"
    },
    {
      "channel": 1,
      "note": 95,
      "start": 162.0015,
      "duration": 0.0832,
      "velocity": 83,
      "chip": "ym2612"
    },
    {
      "channel": 2,
      "note": 76,
      "start": 162.0033,
      "duration": 0.1816,
      "velocity": 127,
      "chip": "ym2612"
    },
    {
      "channel": 1,
      "note": 97,
      "start": 162.1014,
      "duration": 0.2832,
      "velocity": 83,
      "chip": "ym2612"
    },
    {
      "channel": 0,
      "note": 54,
      "start": 162.2015,
      "duration": 0.183,
      "velocity": 102,
      "chip": "ym2612"
    },
    {
      "channel": 2,
      "note": 42,
      "start": 162.2034,
      "duration": 0.0814,
      "velocity": 127,
      "chip": "ym2612"
    },
    {
      "channel": 2,
      "note": 76,
      "start": 162.3014,
      "duration": 0.0834,
      "velocity": 127,
      "chip": "ym2612"
    },
    {
      "channel": 0,
      "note": 56,
      "start": 162.4015,
      "duration": 0.183,
      "velocity": 102,
      "chip": "ym2612"
    },
    {
      "channel": 1,
      "note": 90,
      "start": 162.4017,
      "duration": 0.0995,
      "velocity": 83,
      "chip": "ym2612"
    },
    {
      "channel": 2,
      "note": 76,
      "start": 162.4034,
      "duration": 0.1814,
      "velocity": 127,
      "chip": "ym2612"
    },
    {
      "channel": 1,
      "note": 90,
      "start": 162.5013,
      "duration": 0.0833,
      "velocity": 83,
      "chip": "ym2612"
    },
    {
      "channel": 0,
      "note": 57,
      "start": 162.6014,
      "duration": 0.1833,
      "velocity": 102,
      "chip": "ym2612"
    },
    {
      "channel": 1,
      "note": 92,
      "start": 162.6016,
      "duration": 0.1832,
      "velocity": 83,
      "chip": "ym2612"
    },
    {
      "channel": 2,
      "note": 30,
      "start": 162.6019,
      "duration": 0.0828,
      "velocity": 127,
      "chip": "ym2612"
    },
    {
      "channel": 2,
      "note": 30,
      "start": 162.7029,
      "duration": 0.082,
      "velocity": 127,
      "chip": "ym2612"
    },
    {
      "channel": 0,
      "note": 58,
      "start": 162.8016,
      "duration": 0.3831,
      "velocity": 102,
      "chip": "ym2612"
    },
    {
      "channel": 1,
      "note": 95,
      "start": 162.8019,
      "duration": 0.1829,
      "velocity": 83,
      "chip": "ym2612"
    },
    {
      "channel": 2,
      "note": 76,
      "start": 162.8035,
      "duration": 0.1814,
      "velocity": 127,
      "chip": "ym2612"
    },
    {
      "channel": 1,
      "note": 97,
      "start": 163.0015,
      "duration": 0.1832,
      "velocity": 83,
      "chip": "ym2612"
    },
    {
      "channel": 2,
      "note": 42,
      "start": 163.0032,
      "duration": 0.0816,
      "velocity": 127,
      "chip": "ym2612"
    },
    {
      "channel": 2,
      "note": 30,
      "start": 163.1032,
      "duration": 0.0819,
      "velocity": 127,
      "chip": "ym2612"
    },
    {
      "channel": 0,
      "note": 64,
      "start": 163.2016,
      "duration": 0.3829,
      "velocity": 102,
      "chip": "ym2612"
    },
    {
      "channel": 1,
      "note": 90,
      "start": 163.2019,
      "duration": 0.0995,
      "velocity": 83,
      "chip": "ym2612"
    },
    {
      "channel": 2,
      "note": 76,
      "start": 163.2036,
      "duration": 0.1812,
      "velocity": 127,
      "chip": "ym2612"
    },
    {
      "channel": 1,
      "note": 90,
      "start": 163.3014,
      "duration": 0.0831,
      "velocity": 83,
      "chip": "ym2612"
    },
    {
      "channel": 1,
      "note": 92,
      "start": 163.4014,
      "duration": 0.1833,
      "velocity": 83,
      "chip": "ym2612"
    },
    {
      "channel": 2,
      "note": 30,
      "start": 163.403,
      "duration": 0.0816,
      "velocity": 127,
      "chip": "ym2612"
    },
    {
      "channel": 2,
      "note": 76,
      "start": 163.5014,
      "duration": 0.0835,
      "velocity": 127,
      "chip": "ym2612"
    },
    {
      "channel": 0,
      "note": 54,
      "start": 163.6014,
      "duration": 0.3833,
      "velocity": 102,
      "chip": "ym2612"
    },
    {
      "channel": 1,
      "note": 95,
      "start": 163.6016,
      "duration": 0.1829,
      "velocity": 83,
      "chip": "ym2612"
    },
    {
      "channel": 2,
      "note": 76,
      "start": 163.6033,
      "duration": 0.1816,
      "velocity": 127,
      "chip": "ym2612"
    },
    {
      "channel": 1,
      "note": 97,
      "start": 163.8014,
      "duration": 0.1835,
      "velocity": 83,
      "chip": "ym2612"
    },
    {
      "channel": 2,
      "note": 42,
      "start": 163.803,
      "duration": 0.182,
      "velocity": 127,
      "chip": "ym2612"
    },
    {
      "channel": 0,
      "note": 54,
      "start": 164.0015,
      "duration": 0.383,
      "velocity": 102,
      "chip": "ym2612"
    },
    {
      "channel": 1,
      "note": 90,
      "start": 164.0018,
      "duration": 0.0829,
      "velocity": 83,
      "chip": "ym2612"
    },
    {
      "channel": 2,
      "note": 30,
      "start": 164.0021,
      "duration": 0.1828,
      "velocity": 127,
      "chip": "ym2612"
    },
    {
      "channel": 1,
      "note": 90,
      "start": 164.1014,
      "duration": 0.1001,
      "velocity": 83,
      "chip": "ym2612"
    },
    {
      "channel": 1,
      "note": 92,
      "start": 164.2016,
      "duration": 0.183,
      "velocity": 83,
      "chip": "ym2612"
    },
    {
      "channel": 2,
      "note": 30,
      "start": 164.2033,
      "duration": 0.0817,
      "velocity": 127,
      "chip": "ym2612"
    },
    {
      "channel": 2,
      "note": 76,
      "start": 164.3016,
      "duration": 0.0833,
      "velocity": 127,
      "chip": "ym2612"
    },
    {
      "channel": 0,
      "note": 54,
      "start": 164.4014,
      "duration": 0.1831,
      "velocity": 102,
      "chip": "ym2612"
    },
    {
      "channel": 1,
      "note": 95,
      "start": 164.4016,
      "duration": 0.1829,
      "velocity": 83,
      "chip": "ym2612"
    },
    {
      "channel": 2,
      "note": 76,
      "start": 164.4033,
      "duration": 0.1814,
      "velocity": 127,
      "chip": "ym2612"
    },
    {
      "channel": 0,
      "note": 52,
      "start": 164.6014,
      "duration": 0.3824,
      "velocity": 102,
      "chip": "ym2612"
    },
    {
      "channel": 1,
      "note": 97,
      "start": 164.6017,
      "duration": 0.1821,
      "velocity": 83,
      "chip": "ym2612"
    },
    {
      "channel": 2,
      "note": 42,
      "start": 164.6033,
      "duration": 0.0805,
      "velocity": 127,
      "chip": "ym2612"
    },
    {
      "channel": 2,
      "note": 30,
      "start": 164.7022,
      "duration": 0.0818,
      "velocity": 127,
      "chip": "ym2612"
    },
    {
      "channel": 1,
      "note": 93,
      "start": 164.8005,
      "duration": 0.1833,
      "velocity": 83,
      "chip": "ym2612"
    },
    {
      "channel": 2,
      "note": 76,
      "start": 164.8022,
      "duration": 0.1819,
      "velocity": 127,
      "chip": "ym2612"
    },
    {
      "channel": 0,
      "note": 54,
      "start": 165.0006,
      "duration": 0.3839,
      "velocity": 102,
      "chip": "ym2612"
    },
    {
      "channel": 1,
      "note": 100,
      "start": 165.0009,
      "duration": 0.3838,
      "velocity": 83,
      "chip": "ym2612"
    },
    {
      "channel": 2,
      "note": 30,
      "start": 165.0026,
      "duration": 0.0813,
      "velocity": 127,
      "chip": "ym2612"
    },
    {
      "channel": 2,
      "note": 76,
      "start": 165.1007,
      "duration": 0.084,
      "velocity": 127,
      "chip": "ym2612"
    },
    {
      "channel": 2,
      "note": 76,
      "start": 165.2029,
      "duration": 0.1819,
      "velocity": 127,
      "chip": "ym2612"
    },
    {
      "channel": 0,
      "note": 54,
      "start": 165.4015,
      "duration": 0.1844,
      "velocity": 102,
      "chip": "ym2612"
    },
    {
      "channel": 1,
      "note": 97,
      "start": 165.4017,
      "duration": 0.1842,
      "velocity": 83,
      "chip": "ym2612"
    },
    {
      "channel": 2,
      "note": 42,
      "start": 165.4034,
      "duration": 0.0827,
      "velocity": 127,
      "chip": "ym2612"
    },
    {
      "channel": 2,
      "note": 76,
      "start": 165.5028,
      "duration": 0.0834,
      "velocity": 127,
      "chip": "ym2612"
    },
    {
      "channel": 0,
      "note": 54,
      "start": 165.6027,
      "duration": 0.1832,
      "velocity": 102,
      "chip": "ym2612"
    },
    {
      "channel": 1,
      "note": 99,
      "start": 165.6029,
      "duration": 0.183,
      "velocity": 83,
      "chip": "ym2612"
    },
    {
      "channel": 2,
      "note": 76,
      "start": 165.6047,
      "duration": 0.1815,
      "velocity": 127,
      "chip": "ym2612"
    },
    {
      "channel": 0,
      "note": 54,
      "start": 165.8027,
      "duration": 0.1818,
      "velocity": 102,
      "chip": "ym2612"
    },
    {
      "channel": 1,
      "note": 95,
      "start": 165.8029,
      "duration": 0.1817,
      "velocity": 83,
      "chip": "ym2612"
    },
    {
      "channel": 2,
      "note": 30,
      "start": 165.8032,
      "duration": 0.0828,
      "velocity": 127,
      "chip": "ym2612"
    },
    {
      "channel": 2,
      "note": 30,
      "start": 165.9044,
      "duration": 0.0805,
      "velocity": 127,
      "chip": "ym2612"
    },
    {
      "channel": 0,
      "note": 49,
      "start": 166.0014,
      "duration": 0.1831,
      "velocity": 102,
      "chip": "ym2612"
    },
    {
      "channel": 1,
      "note": 97,
      "start": 166.0016,
      "duration": 0.0829,
      "velocity": 83,
      "chip": "ym2612"
    },
    {
      "channel": 2,
      "note": 76,
      "start": 166.0033,
      "duration": 0.1814,
      "velocity": 127,
      "chip": "ym2612"
    },
    {
      "channel": 1,
      "note": 94,
      "start": 166.1014,
      "duration": 0.1832,
      "velocity": 83,
      "chip": "ym2612"
    },
    {
      "channel": 0,
      "note": 52,
      "start": 166.2014,
      "duration": 0.1832,
      "velocity": 102,
      "chip": "ym2612"
    },
    {
      "channel": 2,
      "note": 42,
      "start": 166.2032,
      "duration": 0.0816,
      "velocity": 127,
      "chip": "ym2612"
    },
    {
      "channel": 1,
      "note": 95,
      "start": 166.3013,
      "duration": 0.4847,
      "velocity": 83,
      "chip": "ym2612"
    },
    {
      "channel": 2,
      "note": 30,
      "start": 166.303,
      "duration": 0.0818,
      "velocity": 127,
      "chip": "ym2612"
    },
    {
      "channel": 0,
      "note": 49,
      "start": 166.4029,
      "duration": 0.383,
      "velocity": 102,
      "chip": "ym2612"
    },
    {
      "channel": 2,
      "note": 76,
      "start": 166.4048,
      "duration": 0.1812,
      "velocity": 127,
      "chip": "ym2612"
    },
    {
      "channel": 2,
      "note": 30,
      "start": 166.6044,
      "duration": 0.0817,
      "velocity": 127,
      "chip": "ym2612"
    },
    {
      "channel": 2,
      "note": 76,
      "start": 166.7028,
      "duration": 0.0834,
      "velocity": 127,
      "chip": "ym2612"
    },
    {
      "channel": 0,
      "note": 54,
      "start": 166.8028,
      "duration": 0.3817,
      "velocity": 102,
      "chip": "ym2612"
    },
    {
      "channel": 1,
      "note": 95,
      "start": 166.8031,
      "duration": 0.3815,
      "velocity": 83,
      "chip": "ym2612"
    },
    {
      "channel": 2,
      "note": 76,
      "start": 166.8047,
      "duration": 0.1814,
      "velocity": 127,
      "chip": "ym2612"
    },
    {
      "channel": 2,
      "note": 42,
      "start": 167.0044,
      "duration": 0.1805,
      "velocity": 127,
      "chip": "ym2612"
    },
    {
      "channel": 0,
      "note": 54,
      "start": 167.2014,
      "duration": 0.1831,
      "velocity": 102,
      "chip": "ym2612"
    },
    {
      "channel": 1,
      "note": 97,
      "start": 167.2016,
      "duration": 0.0996,
      "velocity": 83,
      "chip": "ym2612"
    },
    {
      "channel": 2,
      "note": 30,
      "start": 167.2019,
      "duration": 0.1829,
      "velocity": 127,
      "chip": "ym2612"
    },
    {
      "channel": 1,
      "note": 96,
      "start": 167.3012,
      "duration": 0.0833,
      "velocity": 83,
      "chip": "ym2612"
    },
    {
      "channel": 0,
      "note": 54,
      "start": 167.4014,
      "duration": 0.3844,
      "velocity": 102,
      "chip": "ym2612"
    },
    {
      "channel": 1,
      "note": 95,
      "start": 167.4017,
      "duration": 0.1842,
      "velocity": 83,
      "chip": "ym2612"
    },
    {
      "channel": 2,
      "note": 30,
      "start": 167.4033,
      "duration": 0.0814,
      "velocity": 127,
      "chip": "ym2612"
    },
    {
      "channel": 2,
      "note": 76,
      "start": 167.5014,
      "duration": 0.0847,
      "velocity": 127,
      "chip": "ym2612"
    },
    {
      "channel": 1,
      "note": 93,
      "start": 167.6028,
      "duration": 0.1832,
      "velocity": 83,
      "chip": "ym2612"
    },
    {
      "channel": 2,
      "note": 76,
      "start": 167.6045,
      "duration": 0.1817,
      "velocity": 127,
      "chip": "ym2612"
    },
    {
      "channel": 0,
      "note": 49,
      "start": 167.8027,
      "duration": 0.3817,
      "velocity": 102,
      "chip": "ym2612"
    },
    {
      "channel": 1,
      "note": 90,
      "start": 167.8029,
      "duration": 0.183,
      "velocity": 83,
      "chip": "ym2612"
    },
    {
      "channel": 2,
      "note": 42,
      "start": 167.8046,
      "duration": 0.0815,
      "velocity": 127,
      "chip": "ym2612"
    },
    {
      "channel": 2,
      "note": 30,
      "start": 167.9042,
      "duration": 0.082,
      "velocity": 127,
      "chip": "ym2612"
    },
    {
      "channel": 1,
      "note": 88,
      "start": 168.0028,
      "duration": 0.3817,
      "velocity": 83,
      "chip": "ym2612"
    },
    {
      "channel": 2,
      "note": 76,
      "start": 168.0044,
      "duration": 0.1803,
      "velocity": 127,
      "chip": "ym2612"
    },
    {
      "channel": 0,
      "note": 54,
      "start": 168.2014,
      "duration": 0.3832,
      "velocity": 102,
      "chip": "ym2612"
    },
    {
      "channel": 2,
      "note": 30,
      "start": 168.2032,
      "duration": 0.0815,
      "velocity": 127,
      "chip": "ym2612"
    },
    {
      "channel": 2,
      "note": 76,
      "start": 168.3014,
      "duration": 0.0833,
      "velocity": 127,
      "chip": "ym2612"
    },
    {
      "channel": 1,
      "note": 90,
      "start": 168.4014,
      "duration": 0.1831,
      "velocity": 83,
      "chip": "ym2612"
    },
    {
      "channel": 2,
      "note": 76,
      "start": 168.4031,
      "duration": 0.1817,
      "velocity": 127,
      "chip": "ym2612"
    },
    {
      "channel": 0,
      "note": 54,
      "start": 168.6014,
      "duration": 0.1824,
      "velocity": 102,
      "chip": "ym2612"
    },
    {
      "channel": 1,
      "note": 88,
      "start": 168.6017,
      "duration": 0.1822,
      "velocity": 83,
      "chip": "ym2612"
    },
    {
      "channel": 2,
      "note": 42,
      "start": 168.6034,
      "duration": 0.0805,
      "velocity": 127,
      "chip": "ym2612"
    },
    {
      "channel": 2,
      "note": 76,
      "start": 168.7007,
      "duration": 0.0834,
      "velocity": 127,
      "chip": "ym2612"
    },
    {
      "channel": 0,
      "note": 54,
      "start": 168.8006,
      "duration": 0.1831,
      "velocity": 102,
      "chip": "ym2612"
    },
    {
      "channel": 1,
      "note": 85,
      "start": 168.8009,
      "duration": 0.1829,
      "velocity": 83,
      "chip": "ym2612"
    },
    {
      "channel": 2,
      "note": 76,
      "start": 168.8026,
      "duration": 0.1814,
      "velocity": 127,
      "chip": "ym2612"
    },
    {
      "channel": 0,
      "note": 56,
      "start": 169.0007,
      "duration": 0.1839,
      "velocity": 102,
      "chip": "ym2612"
    },
    {
      "channel": 1,
      "note": 91,
      "start": 169.0009,
      "duration": 0.3838,
      "velocity": 83,
      "chip": "ym2612"
    },
    {
      "channel": 2,
      "note": 30,
      "start": 169.0012,
      "duration": 0.0828,
      "velocity": 127,
      "chip": "ym2612"
    },
    {
      "channel": 2,
      "note": 30,
      "start": 169.1022,
      "duration": 0.0826,
      "velocity": 127,
      "chip": "ym2612"
    },
    {
      "channel": 0,
      "note": 57,
      "start": 169.2013,
      "duration": 0.1833,
      "velocity": 102,
      "chip": "ym2612"
    },
    {
      "channel": 2,
      "note": 76,
      "start": 169.2032,
      "duration": 0.1817,
      "velocity": 127,
      "chip": "ym2612"
    },
    {
      "channel": 0,
      "note": 58,
      "start": 169.4014,
      "duration": 0.1831,
      "velocity": 102,
      "chip": "ym2612"
    },
    {
      "channel": 1,
      "note": 92,
      "start": 169.4017,
      "duration": 0.1829,
      "velocity": 83,
      "chip": "ym2612"
    },
    {
      "channel": 2,
      "note": 42,
      "start": 169.4033,
      "duration": 0.0814,
      "velocity": 127,
      "chip": "ym2612"
    },
    {
      "channel": 2,
      "note": 30,
      "start": 169.5029,
      "duration": 0.082,
      "velocity": 127,
      "chip": "ym2612"
    },
    {
      "channel": 0,
      "note": 64,
      "start": 169.6015,
      "duration": 0.3829,
      "velocity": 102,
      "chip": "ym2612"
    },
    {
      "channel": 1,
      "note": 85,
      "start": 169.6017,
      "duration": 0.1829,
      "velocity": 83,
      "chip": "ym2612"
    },
    {
      "channel": 2,
      "note": 76,
      "start": 169.6035,
      "duration": 0.1814,
      "velocity": 127,
      "chip": "ym2612"
    },
    {
      "channel": 1,
      "note": 91,
      "start": 169.8014,
      "duration": 0.1832,
      "velocity": 83,
      "chip": "ym2612"
    },
    {
      "channel": 2,
      "note": 30,
      "start": 169.8031,
      "duration": 0.0816,
      "velocity": 127,
      "chip": "ym2612"
    },
    {
      "channel": 2,
      "note": 76,
      "start": 169.9014,
      "duration": 0.0834,
      "velocity": 127,
      "chip": "ym2612"
    },
    {
      "channel": 0,
      "note": 54,
      "start": 170.0014,
      "duration": 0.183,
      "velocity": 102,
      "chip": "ym2612"
    },
    {
      "channel": 1,
      "note": 92,
      "start": 170.0017,
      "duration": 0.1829,
      "velocity": 83,
      "chip": "ym2612"
    },
    {
      "channel": 2,
      "note": 76,
      "start": 170.0033,
      "duration": 0.1814,
      "velocity": 127,
      "chip": "ym2612"
    },
    {
      "channel": 0,
      "note": 54,
      "start": 170.2013,
      "duration": 0.1832,
      "velocity": 102,
      "chip": "ym2612"
    },
    {
      "channel": 1,
      "note": 88,
      "start": 170.2015,
      "duration": 0.1831,
      "velocity": 83,
      "chip": "ym2612"
    },
    {
      "channel": 2,
      "note": 42,
      "start": 170.2032,
      "duration": 0.1816,
      "velocity": 127,
      "chip": "ym2612"
    },
    {
      "channel": 0,
      "note": 52,
      "start": 170.4014,
      "duration": 0.3832,
      "velocity": 102,
      "chip": "ym2612"
    },
    {
      "channel": 1,
      "note": 85,
      "start": 170.4016,
      "duration": 0.1829,
      "velocity": 83,
      "chip": "ym2612"
    },
    {
      "channel": 2,
      "note": 30,
      "start": 170.4019,
      "duration": 0.1829,
      "velocity": 127,
      "chip": "ym2612"
    },
    {
      "channel": 1,
      "note": 91,
      "start": 170.6013,
      "duration": 0.1833,
      "velocity": 83,
      "chip": "ym2612"
    },
    {
      "channel": 2,
      "note": 30,
      "start": 170.603,
      "duration": 0.0817,
      "velocity": 127,
      "chip": "ym2612"
    },
    {
      "channel": 2,
      "note": 76,
      "start": 170.7015,
      "duration": 0.0834,
      "velocity": 127,
      "chip": "ym2612"
    },
    {
      "channel": 0,
      "note": 54,
      "start": 170.8014,
      "duration": 0.1831,
      "velocity": 102,
      "chip": "ym2612"
    },
    {
      "channel": 1,
      "note": 92,
      "start": 170.8016,
      "duration": 0.1829,
      "velocity": 83,
      "chip": "ym2612"
    },
    {
      "channel": 2,
      "note": 76,
      "start": 170.8033,
      "duration": 0.1814,
      "velocity": 127,
      "chip": "ym2612"
    },
    {
      "channel": 0,
      "note": 52,
      "start": 171.0014,
      "duration": 0.3831,
      "velocity": 102,
      "chip": "ym2612"
    },
    {
      "channel": 1,
      "note": 88,
      "start": 171.0017,
      "duration": 0.1829,
      "velocity": 83,
      "chip": "ym2612"
    },
    {
      "channel": 2,
      "note": 42,
      "start": 171.0033,
      "duration": 0.0814,
      "velocity": 127,
      "chip": "ym2612"
    },
    {
      "channel": 2,
      "note": 30,
      "start": 171.1029,
      "duration": 0.082,
      "velocity": 127,
      "chip": "ym2612"
    },
    {
      "channel": 1,
      "note": 85,
      "start": 171.2015,
      "duration": 0.0997,
      "velocity": 83,
      "chip": "ym2612"
    },
    {
      "channel": 2,
      "note": 76,
      "start": 171.2032,
      "duration": 0.1817,
      "velocity": 127,
      "chip": "ym2612"
    },
    {
      "channel": 1,
      "note": 91,
      "start": 171.3013,
      "duration": 0.0833,
      "velocity": 83,
      "chip": "ym2612"
    },
    {
      "channel": 0,
      "note": 54,
      "start": 171.4014,
      "duration": 0.3832,
      "velocity": 102,
      "chip": "ym2612"
    },
    {
      "channel": 1,
      "note": 92,
      "start": 171.4016,
      "duration": 0.083,
      "velocity": 83,
      "chip": "ym2612"
    },
    {
      "channel": 2,
      "note": 30,
      "start": 171.4033,
      "duration": 0.0815,
      "velocity": 127,
      "chip": "ym2612"
    },
    {
      "channel": 1,
      "note": 88,
      "start": 171.5013,
      "duration": 0.0833,
      "velocity": 83,
      "chip": "ym2612"
    },
    {
      "channel": 2,
      "note": 76,
      "start": 171.5015,
      "duration": 0.0833,
      "velocity": 127,
      "chip": "ym2612"
    },
    {
      "channel": 1,
      "note": 85,
      "start": 171.6014,
      "duration": 0.0998,
      "velocity": 83,
      "chip": "ym2612"
    },
    {
      "channel": 2,
      "note": 76,
      "start": 171.6031,
      "duration": 0.1818,
      "velocity": 127,
      "chip": "ym2612"
    },
    {
      "channel": 1,
      "note": 91,
      "start": 171.7012,
      "duration": 0.0835,
      "velocity": 83,
      "chip": "ym2612"
    },
    {
      "channel": 0,
      "note": 54,
      "start": 171.8014,
      "duration": 0.183,
      "velocity": 102,
      "chip": "ym2612"
    },
    {
      "channel": 1,
      "note": 92,
      "start": 171.8017,
      "duration": 0.0829,
      "velocity": 83,
      "chip": "ym2612"
    },
    {
      "channel": 2,
      "note": 42,
      "start": 171.8033,
      "duration": 0.0814,
      "velocity": 127,
      "chip": "ym2612"
    },
    {
      "channel": 1,
      "note": 88,
      "start": 171.9013,
      "duration": 0.0833,
      "velocity": 83,
      "chip": "ym2612"
    },
    {
      "channel": 2,
      "note": 76,
      "start": 171.9015,
      "duration": 0.0833,
      "velocity": 127,
      "chip": "ym2612"
    },
    {
      "channel": 0,
      "note": 54,
      "start": 172.0014,
      "duration": 0.183,
      "velocity": 102,
      "chip": "ym2612"
    },
    {
      "channel": 1,
      "note": 85,
      "start": 172.0017,
      "duration": 0.0995,
      "velocity": 83,
      "chip": "ym2612"
    },
    {
      "channel": 2,
      "note": 76,
      "start": 172.0034,
      "duration": 0.1814,
      "velocity": 127,
      "chip": "ym2612"
    },
    {
      "channel": 1,
      "note": 91,
      "start": 172.1012,
      "duration": 0.0833,
      "velocity": 83,
      "chip": "ym2612"
    },
    {
      "channel": 0,
      "note": 54,
      "start": 172.2013,
      "duration": 0.1832,
      "velocity": 102,
      "chip": "ym2612"
    },
    {
      "channel": 1,
      "note": 92,
      "start": 172.2015,
      "duration": 0.0831,
      "velocity": 83,
      "chip": "ym2612"
    },
    {
      "channel": 2,
      "note": 30,
      "start": 172.2018,
      "duration": 0.083,
      "velocity": 127,
      "chip": "ym2612"
    },
    {
      "channel": 1,
      "note": 88,
      "start": 172.3012,
      "duration": 0.0833,
      "velocity": 83,
      "chip": "ym2612"
    },
    {
      "channel": 2,
      "note": 30,
      "start": 172.3029,
      "duration": 0.0819,
      "velocity": 127,
      "chip": "ym2612"
    },
    {
      "channel": 0,
      "note": 49,
      "start": 172.4014,
      "duration": 0.3824,
      "velocity": 102,
      "chip": "ym2612"
    },
    {
      "channel": 1,
      "note": 85,
      "start": 172.4017,
      "duration": 0.0995,
      "velocity": 83,
      "chip": "ym2612"
    },
    {
      "channel": 2,
      "note": 76,
      "start": 172.4034,
      "duration": 0.1814,
      "velocity": 127,
      "chip": "ym2612"
    },
    {
      "channel": 1,
      "note": 91,
      "start": 172.5012,
      "duration": 0.0833,
      "velocity": 83,
      "chip": "ym2612"
    },
    {
      "channel": 1,
      "note": 92,
      "start": 172.6013,
      "duration": 0.0825,
      "velocity": 83,
      "chip": "ym2612"
    },
    {
      "channel": 2,
      "note": 42,
      "start": 172.603,
      "duration": 0.081,
      "velocity": 127,
      "chip": "ym2612"
    },
    {
      "channel": 1,
      "note": 88,
      "start": 172.7006,
      "duration": 0.0833,
      "velocity": 83,
      "chip": "ym2612"
    },
    {
      "channel": 2,
      "note": 30,
      "start": 172.7022,
      "duration": 0.0819,
      "velocity": 127,
      "chip": "ym2612"
    },
    {
      "channel": 0,
      "note": 52,
      "start": 172.8007,
      "duration": 0.3839,
      "velocity": 102,
      "chip": "ym2612"
    },
    {
      "channel": 1,
      "note": 85,
      "start": 172.8009,
      "duration": 0.0995,
      "velocity": 83,
      "chip": "ym2612"
    },
    {
      "channel": 2,
      "note": 76,
      "start": 172.8026,
      "duration": 0.1814,
      "velocity": 127,
      "chip": "ym2612"
    },
    {
      "channel": 1,
      "note": 91,
      "start": 172.9005,
      "duration": 0.0833,
      "velocity": 83,
      "chip": "ym2612"
    },
    {
      "channel": 1,
      "note": 92,
      "start": 173.0007,
      "duration": 0.0832,
      "velocity": 83,
      "chip": "ym2612"
    },
    {
      "channel": 2,
      "note": 30,
      "start": 173.0023,
      "duration": 0.0817,
      "velocity": 127,
      "chip": "ym2612"
    },
    {
      "channel": 1,
      "note": 88,
      "start": 173.1005,
      "duration": 0.0841,
      "velocity": 83,
      "chip": "ym2612"
    },
    {
      "channel": 2,
      "note": 76,
      "start": 173.1008,
      "duration": 0.0841,
      "velocity": 127,
      "chip": "ym2612"
    },
    {
      "channel": 0,
      "note": 54,
      "start": 173.2014,
      "duration": 0.1831,
      "velocity": 102,
      "chip": "ym2612"
    },
    {
      "channel": 1,
      "note": 85,
      "start": 173.2017,
      "duration": 0.0996,
      "velocity": 83,
      "chip": "ym2612"
    },
    {
      "channel": 2,
      "note": 76,
      "start": 173.2033,
      "duration": 0.1815,
      "velocity": 127,
      "chip": "ym2612"
    },
    {
      "channel": 1,
      "note": 91,
      "start": 173.3014,
      "duration": 0.0833,
      "velocity": 83,
      "chip": "ym2612"
    },
    {
      "channel": 0,
      "note": 54,
      "start": 173.4013,
      "duration": 0.1832,
      "velocity": 102,
      "chip": "ym2612"
    },
    {
      "channel": 1,
      "note": 92,
      "start": 173.4015,
      "duration": 0.083,
      "velocity": 83,
      "chip": "ym2612"
    },
    {
      "channel": 2,
      "note": 42,
      "start": 173.4032,
      "duration": 0.1816,
      "velocity": 127,
      "chip": "ym2612"
    },
    {
      "channel": 1,
      "note": 88,
      "start": 173.5012,
      "duration": 0.0834,
      "velocity": 83,
      "chip": "ym2612"
    },
    {
      "channel": 0,
      "note": 52,
      "start": 173.6013,
      "duration": 0.3832,
      "velocity": 102,
      "chip": "ym2612"
    },
    {
      "channel": 1,
      "note": 85,
      "start": 173.6015,
      "duration": 0.0996,
      "velocity": 83,
      "chip": "ym2612"
    },
    {
      "channel": 2,
      "note": 30,
      "start": 173.6018,
      "duration": 0.1829,
      "velocity": 127,
      "chip": "ym2612"
    },
    {
      "channel": 1,
      "note": 91,
      "start": 173.7012,
      "duration": 0.0833,
      "velocity": 83,
      "chip": "ym2612"
    },
    {
      "channel": 1,
      "note": 92,
      "start": 173.8014,
      "duration": 0.0831,
      "velocity": 83,
      "chip": "ym2612"
    },
    {
      "channel": 2,
      "note": 30,
      "start": 173.8031,
      "duration": 0.0817,
      "velocity": 127,
      "chip": "ym2612"
    },
    {
      "channel": 1,
      "note": 88,
      "start": 173.9013,
      "duration": 0.0833,
      "velocity": 83,
      "chip": "ym2612"
    },
    {
      "channel": 2,
      "note": 76,
      "start": 173.9015,
      "duration": 0.0833,
      "velocity": 127,
      "chip": "ym2612"
    },
    {
      "channel": 0,
      "note": 54,
      "start": 174.0015,
      "duration": 0.183,
      "velocity": 102,
      "chip": "ym2612"
    },
    {
      "channel": 1,
      "note": 85,
      "start": 174.0017,
      "duration": 0.0995,
      "velocity": 83,
      "chip": "ym2612"
    },
    {
      "channel": 2,
      "note": 76,
      "start": 174.0034,
      "duration": 0.1814,
      "velocity": 127,
      "chip": "ym2612"
    },
    {
      "channel": 1,
      "note": 91,
      "start": 174.1013,
      "duration": 0.0833,
      "velocity": 83,
      "chip": "ym2612"
    },
    {
      "channel": 0,
      "note": 52,
      "start": 174.2015,
      "duration": 0.383,
      "velocity": 102,
      "chip": "ym2612"
    },
    {
      "channel": 1,
      "note": 92,
      "start": 174.2017,
      "duration": 0.0829,
      "velocity": 83,
      "chip": "ym2612"
    },
    {
      "channel": 2,
      "note": 42,
      "start": 174.2034,
      "duration": 0.0814,
      "velocity": 127,
      "chip": "ym2612"
    },
    {
      "channel": 1,
      "note": 88,
      "start": 174.3014,
      "duration": 0.0832,
      "velocity": 83,
      "chip": "ym2612"
    },
    {
      "channel": 2,
      "note": 30,
      "start": 174.3031,
      "duration": 0.0817,
      "velocity": 127,
      "chip": "ym2612"
    },
    {
      "channel": 1,
      "note": 85,
      "start": 174.4014,
      "duration": 0.3831,
      "velocity": 83,
      "chip": "ym2612"
    },
    {
      "channel": 2,
      "note": 76,
      "start": 174.4032,
      "duration": 0.1817,
      "velocity": 127,
      "chip": "ym2612"
    },
    {
      "channel": 0,
      "note": 54,
      "start": 174.6013,
      "duration": 0.3832,
      "velocity": 102,
      "chip": "ym2612"
    },
    {
      "channel": 2,
      "note": 30,
      "start": 174.6032,
      "duration": 0.0815,
      "velocity": 127,
      "chip": "ym2612"
    },
    {
      "channel": 2,
      "note": 76,
      "start": 174.7015,
      "duration": 0.0833,
      "velocity": 127,
      "chip": "ym2612"
    },
    {
      "channel": 1,
      "note": 90,
      "start": 174.8013,
      "duration": 0.1833,
      "velocity": 83,
      "chip": "ym2612"
    },
    {
      "channel": 2,
      "note": 76,
      "start": 174.803,
      "duration": 0.1818,
      "velocity": 127,
      "chip": "ym2612"
    },
    {
      "channel": 0,
      "note": 54,
      "start": 175.0015,
      "duration": 0.1831,
      "velocity": 102,
      "chip": "ym2612"
    },
    {
      "channel": 1,
      "note": 88,
      "start": 175.0017,
      "duration": 0.1829,
      "velocity": 83,
      "chip": "ym2612"
    },
    {
      "channel": 2,
      "note": 42,
      "start": 175.0035,
      "duration": 0.0813,
      "velocity": 127,
      "chip": "ym2612"
    },
    {
      "channel": 2,
      "note": 76,
      "start": 175.1015,
      "duration": 0.0834,
      "velocity": 127,
      "chip": "ym2612"
    },
    {
      "channel": 0,
      "note": 56,
      "start": 175.2014,
      "duration": 0.1832,
      "velocity": 102,
      "chip": "ym2612"
    },
    {
      "channel": 1,
      "note": 85,
      "start": 175.2016,
      "duration": 0.1831,
      "velocity": 83,
      "chip": "ym2612"
    },
    {
      "channel": 2,
      "note": 76,
      "start": 175.2033,
      "duration": 0.1815,
      "velocity": 127,
      "chip": "ym2612"
    },
    {
      "channel": 0,
      "note": 57,
      "start": 175.4014,
      "duration": 0.183,
      "velocity": 102,
      "chip": "ym2612"
    },
    {
      "channel": 1,
      "note": 87,
      "start": 175.4017,
      "duration": 0.1829,
      "velocity": 83,
      "chip": "ym2612"
    },
    {
      "channel": 2,
      "note": 30,
      "start": 175.4019,
      "duration": 0.0828,
      "velocity": 127,
      "chip": "ym2612"
    },
    {
      "channel": 2,
      "note": 30,
      "start": 175.5029,
      "duration": 0.0819,
      "velocity": 127,
      "chip": "ym2612"
    },
    {
      "channel": 0,
      "note": 58,
      "start": 175.6014,
      "duration": 0.3831,
      "velocity": 102,
      "chip": "ym2612"
    },
    {
      "channel": 1,
      "note": 88,
      "start": 175.6017,
      "duration": 0.1828,
      "velocity": 83,
      "chip": "ym2612"
    },
    {
      "channel": 2,
      "note": 76,
      "start": 175.6033,
      "duration": 0.1814,
      "velocity": 127,
      "chip": "ym2612"
    },
    {
      "channel": 1,
      "note": 87,
      "start": 175.8013,
      "duration": 0.1834,
      "velocity": 83,
      "chip": "ym2612"
    },
    {
      "channel": 2,
      "note": 42,
      "start": 175.8029,
      "duration": 0.0818,
      "velocity": 127,
      "chip": "ym2612"
    },
    {
      "channel": 2,
      "note": 30,
      "start": 175.9029,
      "duration": 0.082,
      "velocity": 127,
      "chip": "ym2612"
    },
    {
      "channel": 0,
      "note": 64,
      "start": 176.0014,
      "duration": 0.3831,
      "velocity": 102,
      "chip": "ym2612"
    },
    {
      "channel": 1,
      "note": 85,
      "start": 176.0017,
      "duration": 0.1829,
      "velocity": 83,
      "chip": "ym2612"
    },
    {
      "channel": 2,
      "note": 76,
      "start": 176.0033,
      "duration": 0.1815,
      "velocity": 127,
      "chip": "ym2612"
    },
    {
      "channel": 1,
      "note": 83,
      "start": 176.2014,
      "duration": 0.1832,
      "velocity": 83,
      "chip": "ym2612"
    },
    {
      "channel": 2,
      "note": 30,
      "start": 176.2031,
      "duration": 0.0816,
      "velocity": 127,
      "chip": "ym2612"
    },
    {
      "channel": 2,
      "note": 76,
      "start": 176.3014,
      "duration": 0.0834,
      "velocity": 127,
      "chip": "ym2612"
    },
    {
      "channel": 0,
      "note": 54,
      "start": 176.4015,
      "duration": 0.3822,
      "velocity": 102,
      "chip": "ym2612"
    },
    {
      "channel": 1,
      "note": 84,
      "start": 176.4017,
      "duration": 0.1828,
      "velocity": 83,
      "chip": "ym2612"
    },
    {
      "channel": 2,
      "note": 76,
      "start": 176.4034,
      "duration": 0.1814,
      "velocity": 127,
      "chip": "ym2612"
    },
    {
      "channel": 1,
      "note": 84,
      "start": 176.6014,
      "duration": 0.1825,
      "velocity": 83,
      "chip": "ym2612"
    },
    {
      "channel": 2,
      "note": 42,
      "start": 176.603,
      "duration": 0.181,
      "velocity": 127,
      "chip": "ym2612"
    },
    {
      "channel": 0,
      "note": 54,
      "start": 176.8006,
      "duration": 0.3832,
      "velocity": 102,
      "chip": "ym2612"
    },
    {
      "channel": 1,
      "note": 84,
      "start": 176.8009,
      "duration": 0.1829,
      "velocity": 83,
      "chip": "ym2612"
    },
    {
      "channel": 2,
      "note": 30,
      "start": 176.8011,
      "duration": 0.1829,
      "velocity": 127,
      "chip": "ym2612"
    },
    {
      "channel": 1,
      "note": 84,
      "start": 177.0005,
      "duration": 0.1833,
      "velocity": 83,
      "chip": "ym2612"
    },
    {
      "channel": 2,
      "note": 30,
      "start": 177.0022,
      "duration": 0.0817,
      "velocity": 127,
      "chip": "ym2612"
    },
    {
      "channel": 2,
      "note": 76,
      "start": 177.1007,
      "duration": 0.0833,
      "velocity": 127,
      "chip": "ym2612"
    },
    {
      "channel": 0,
      "note": 54,
      "start": 177.2018,
      "duration": 0.1831,
      "velocity": 102,
      "chip": "ym2612"
    },
    {
      "channel": 1,
      "note": 84,
      "start": 177.2021,
      "duration": 0.1829,
      "velocity": 83,
      "chip": "ym2612"
    },
    {
      "channel": 2,
      "note": 76,
      "start": 177.2038,
      "duration": 0.1814,
      "velocity": 127,
      "chip": "ym2612"
    },
    {
      "channel": 0,
      "note": 52,
      "start": 177.4019,
      "duration": 0.3845,
      "velocity": 102,
      "chip": "ym2612"
    },
    {
      "channel": 1,
      "note": 84,
      "start": 177.4021,
      "duration": 0.1829,
      "velocity": 83,
      "chip": "ym2612"
    },
    {
      "channel": 2,
      "note": 42,
      "start": 177.4038,
      "duration": 0.0814,
      "velocity": 127,
      "chip": "ym2612"
    },
    {
      "channel": 2,
      "note": 30,
      "start": 177.5033,
      "duration": 0.0819,
      "velocity": 127,
      "chip": "ym2612"
    },
    {
      "channel": 1,
      "note": 84,
      "start": 177.6018,
      "duration": 0.1847,
      "velocity": 83,
      "chip": "ym2612"
    },
    {
      "channel": 2,
      "note": 76,
      "start": 177.6035,
      "duration": 0.1832,
      "velocity": 127,
      "chip": "ym2612"
    },
    {
      "channel": 0,
      "note": 54,
      "start": 177.8032,
      "duration": 0.3817,
      "velocity": 102,
      "chip": "ym2612"
    },
    {
      "channel": 1,
      "note": 84,
      "start": 177.8035,
      "duration": 0.1829,
      "velocity": 83,
      "chip": "ym2612"
    },
    {
      "channel": 2,
      "note": 30,
      "start": 177.8051,
      "duration": 0.0814,
      "velocity": 127,
      "chip": "ym2612"
    },
    {
      "channel": 2,
      "note": 76,
      "start": 177.9032,
      "duration": 0.0833,
      "velocity": 127,
      "chip": "ym2612"
    },
    {
      "channel": 1,
      "note": 84,
      "start": 178.0032,
      "duration": 0.1819,
      "velocity": 83,
      "chip": "ym2612"
    },
    {
      "channel": 2,
      "note": 76,
      "start": 178.0049,
      "duration": 0.1803,
      "velocity": 127,
      "chip": "ym2612"
    },
    {
      "channel": 0,
      "note": 54,
      "start": 178.2017,
      "duration": 0.1831,
      "velocity": 102,
      "chip": "ym2612"
    },
    {
      "channel": 1,
      "note": 84,
      "start": 178.202,
      "duration": 0.183,
      "velocity": 83,
      "chip": "ym2612"
    },
    {
      "channel": 2,
      "note": 42,
      "start": 178.2022,
      "duration": 0.183,
      "velocity": 127,
      "chip": "ym2612"
    },
    {
      "channel": 0,
      "note": 54,
      "start": 178.4017,
      "duration": 0.1833,
      "velocity": 102,
      "chip": "ym2612"
    },
    {
      "channel": 1,
      "note": 84,
      "start": 178.402,
      "duration": 0.0829,
      "velocity": 83,
      "chip": "ym2612"
    },
    {
      "channel": 2,
      "note": 42,
      "start": 178.4022,
      "duration": 0.183,
      "velocity": 127,
      "chip": "ym2612"
    },
    {
      "channel": 1,
      "note": 83,
      "start": 178.5017,
      "duration": 0.1002,
      "velocity": 83,
      "chip": "ym2612"
    },
    {
      "channel": 0,
      "note": 54,
      "start": 178.6018,
      "duration": 0.1845,
      "velocity": 102,
      "chip": "ym2612"
    },
    {
      "channel": 1,
      "note": 84,
      "start": 178.6021,
      "duration": 0.0997,
      "velocity": 83,
      "chip": "ym2612"
    },
    {
      "channel": 2,
      "note": 42,
      "start": 178.6023,
      "duration": 0.1844,
      "velocity": 127,
      "chip": "ym2612"
    },
    {
      "channel": 1,
      "note": 83,
      "start": 178.7017,
      "duration": 0.0847,
      "velocity": 83,
      "chip": "ym2612"
    },
    {
      "channel": 0,
      "note": 49,
      "start": 178.8032,
      "duration": 0.1832,
      "velocity": 102,
      "chip": "ym2612"
    },
    {
      "channel": 1,
      "note": 81,
      "start": 178.8034,
      "duration": 0.1831,
      "velocity": 83,
      "chip": "ym2612"
    },
    {
      "channel": 2,
      "note": 42,
      "start": 178.8037,
      "duration": 0.1831,
      "velocity": 127,
      "chip": "ym2612"
    },
    {
      "channel": 0,
      "note": 52,
      "start": 179.0032,
      "duration": 0.1831,
      "velocity": 102,
      "chip": "ym2612"
    },
    {
      "channel": 1,
      "note": 78,
      "start": 179.0035,
      "duration": 0.1829,
      "velocity": 83,
      "chip": "ym2612"
    },
    {
      "channel": 2,
      "note": 42,
      "start": 179.0037,
      "duration": 0.0828,
      "velocity": 127,
      "chip": "ym2612"
    },
    {
      "channel": 2,
      "note": 42,
      "start": 179.1033,
      "duration": 0.0833,
      "velocity": 127,
      "chip": "ym2612"
    },
    {
      "channel": 0,
      "note": 49,
      "start": 179.205,
      "duration": 3.1796,
      "velocity": 102,
      "chip": "ym2612"
    },
    {
      "channel": 1,
      "note": 76,
      "start": 179.2067,
      "duration": 3.178,
      "velocity": 102,
      "chip": "ym2612"
    },
    {
      "channel": 2,
      "note": 42,
      "start": 179.2084,
      "duration": 0.1769,
      "velocity": 127,
      "chip": "ym2612"
    },
    {
      "channel": 2,
      "note": 30,
      "start": 179.4035,
      "duration": 0.0817,
      "velocity": 127,
      "chip": "ym2612"
    },
    {
      "channel": 2,
      "note": 76,
      "start": 179.5021,
      "duration": 0.0832,
      "velocity": 127,
      "chip": "ym2612"
    },
    {
      "channel": 2,
      "note": 76,
      "start": 179.6035,
      "duration": 0.1832,
      "velocity": 127,
      "chip": "ym2612"
    },
    {
      "channel": 2,
      "note": 30,
      "start": 179.8049,
      "duration": 0.0816,
      "velocity": 127,
      "chip": "ym2612"
    },
    {
      "channel": 2,
      "note": 76,
      "start": 179.9033,
      "duration": 0.0833,
      "velocity": 127,
      "chip": "ym2612"
    },
    {
      "channel": 2,
      "note": 76,
      "start": 180.0048,
      "duration": 0.1818,
      "velocity": 127,
      "chip": "ym2612"
    },
    {
      "channel": 2,
      "note": 30,
      "start": 180.2047,
      "duration": 0.0817,
      "velocity": 127,
      "chip": "ym2612"
    },
    {
      "channel": 2,
      "note": 76,
      "start": 180.3032,
      "duration": 0.0819,
      "velocity": 127,
      "chip": "ym2612"
    },
    {
      "channel": 2,
      "note": 76,
      "start": 180.4034,
      "duration": 0.1817,
      "velocity": 127,
      "chip": "ym2612"
    },
    {
      "channel": 2,
      "note": 30,
      "start": 180.6034,
      "duration": 0.0817,
      "velocity": 127,
      "chip": "ym2612"
    },
    {
      "channel": 2,
      "note": 76,
      "start": 180.7007,
      "duration": 0.0833,
      "velocity": 127,
      "chip": "ym2612"
    },
    {
      "channel": 2,
      "note": 76,
      "start": 180.8022,
      "duration": 0.1817,
      "velocity": 127,
      "chip": "ym2612"
    },
    {
      "channel": 2,
      "note": 30,
      "start": 181.0021,
      "duration": 0.0817,
      "velocity": 127,
      "chip": "ym2612"
    },
    {
      "channel": 2,
      "note": 76,
      "start": 181.1007,
      "duration": 0.0833,
      "velocity": 127,
      "chip": "ym2612"
    },
    {
      "channel": 2,
      "note": 76,
      "start": 181.2022,
      "duration": 0.1826,
      "velocity": 127,
      "chip": "ym2612"
    },
    {
      "channel": 2,
      "note": 30,
      "start": 181.4032,
      "duration": 0.0817,
      "velocity": 127,
      "chip": "ym2612"
    },
    {
      "channel": 2,
      "note": 76,
      "start": 181.5016,
      "duration": 0.0832,
      "velocity": 127,
      "chip": "ym2612"
    },
    {
      "channel": 2,
      "note": 76,
      "start": 181.6032,
      "duration": 0.1817,
      "velocity": 127,
      "chip": "ym2612"
    },
    {
      "channel": 2,
      "note": 30,
      "start": 181.8032,
      "duration": 0.0816,
      "velocity": 127,
      "chip": "ym2612"
    },
    {
      "channel": 2,
      "note": 76,
      "start": 181.9014,
      "duration": 0.0834,
      "velocity": 127,
      "chip": "ym2612"
    },
    {
      "channel": 2,
      "note": 76,
      "start": 182.0029,
      "duration": 0.1819,
      "velocity": 127,
      "chip": "ym2612"
    },
    {
      "channel": 2,
      "note": 42,
      "start": 182.2029,
      "duration": 0.0817,
      "velocity": 127,
      "chip": "ym2612"
    },
    {
      "channel": 2,
      "note": 76,
      "start": 182.3014,
      "duration": 0.0835,
      "velocity": 127,
      "chip": "ym2612"
    },
    {
      "channel": 1,
      "note": 49,
      "start": 182.4045,
      "duration": 3.1814,
      "velocity": 102,
      "chip": "ym2612"
    },
    {
      "channel": 2,
      "note": 76,
      "start": 182.4062,
      "duration": 0.1786,
      "velocity": 127,
      "chip": "ym2612"
    },
    {
      "channel": 2,
      "note": 30,
      "start": 182.6032,
      "duration": 0.0817,
      "velocity": 127,
      "chip": "ym2612"
    },
    {
      "channel": 2,
      "note": 76,
      "start": 182.7016,
      "duration": 0.0832,
      "velocity": 127,
      "chip": "ym2612"
    },
    {
      "channel": 2,
      "note": 76,
      "start": 182.8032,
      "duration": 0.1816,
      "velocity": 127,
      "chip": "ym2612"
    },
    {
      "channel": 2,
      "note": 30,
      "start": 183.0029,
      "duration": 0.0817,
      "velocity": 127,
      "chip": "ym2612"
    },
    {
      "channel": 2,
      "note": 76,
      "start": 183.1015,
      "duration": 0.0832,
      "velocity": 127,
      "chip": "ym2612"
    },
    {
      "channel": 2,
      "note": 76,
      "start": 183.2029,
      "duration": 0.1819,
      "velocity": 127,
      "chip": "ym2612"
    },
    {
      "channel": 2,
      "note": 30,
      "start": 183.4029,
      "duration": 0.0817,
      "velocity": 127,
      "chip": "ym2612"
    },
    {
      "channel": 2,
      "note": 76,
      "start": 183.5016,
      "duration": 0.0833,
      "velocity": 127,
      "chip": "ym2612"
    },
    {
      "channel": 2,
      "note": 76,
      "start": 183.6032,
      "duration": 0.1818,
      "velocity": 127,
      "chip": "ym2612"
    },
    {
      "channel": 2,
      "note": 30,
      "start": 183.8031,
      "duration": 0.0817,
      "velocity": 127,
      "chip": "ym2612"
    },
    {
      "channel": 2,
      "note": 76,
      "start": 183.9015,
      "duration": 0.0832,
      "velocity": 127,
      "chip": "ym2612"
    },
    {
      "channel": 2,
      "note": 76,
      "start": 184.0031,
      "duration": 0.1816,
      "velocity": 127,
      "chip": "ym2612"
    },
    {
      "channel": 2,
      "note": 30,
      "start": 184.2029,
      "duration": 0.0817,
      "velocity": 127,
      "chip": "ym2612"
    },
    {
      "channel": 2,
      "note": 76,
      "start": 184.3014,
      "duration": 0.0832,
      "velocity": 127,
      "chip": "ym2612"
    },
    {
      "channel": 2,
      "note": 76,
      "start": 184.4029,
      "duration": 0.1819,
      "velocity": 127,
      "chip": "ym2612"
    },
    {
      "channel": 2,
      "note": 30,
      "start": 184.6031,
      "duration": 0.0817,
      "velocity": 127,
      "chip": "ym2612"
    },
    {
      "channel": 2,
      "note": 76,
      "start": 184.7015,
      "duration": 0.0824,
      "velocity": 127,
      "chip": "ym2612"
    },
    {
      "channel": 2,
      "note": 76,
      "start": 184.8022,
      "duration": 0.1817,
      "velocity": 127,
      "chip": "ym2612"
    },
    {
      "channel": 2,
      "note": 30,
      "start": 185.0021,
      "duration": 0.0817,
      "velocity": 127,
      "chip": "ym2612"
    },
    {
      "channel": 2,
      "note": 76,
      "start": 185.1007,
      "duration": 0.0832,
      "velocity": 127,
      "chip": "ym2612"
    },
    {
      "channel": 2,
      "note": 76,
      "start": 185.2022,
      "duration": 0.1839,
      "velocity": 127,
      "chip": "ym2612"
    },
    {
      "channel": 2,
      "note": 42,
      "start": 185.4043,
      "duration": 0.0819,
      "velocity": 127,
      "chip": "ym2612"
    },
    {
      "channel": 2,
      "note": 76,
      "start": 185.5028,
      "duration": 0.0834,
      "velocity": 127,
      "chip": "ym2612"
    },
    {
      "channel": 1,
      "note": 49,
      "start": 185.606,
      "duration": 3.1778,
      "velocity": 102,
      "chip": "ym2612"
    },
    {
      "channel": 2,
      "note": 76,
      "start": 185.6077,
      "duration": 0.1771,
      "velocity": 127,
      "chip": "ym2612"
    },
    {
      "channel": 2,
      "note": 30,
      "start": 185.8029,
      "duration": 0.0817,
      "velocity": 127,
      "chip": "ym2612"
    },
    {
      "channel": 2,
      "note": 76,
      "start": 185.9015,
      "duration": 0.0833,
      "velocity": 127,
      "chip": "ym2612"
    },
    {
      "channel": 2,
      "note": 76,
      "start": 186.0029,
      "duration": 0.1833,
      "velocity": 127,
      "chip": "ym2612"
    },
    {
      "channel": 2,
      "note": 30,
      "start": 186.2043,
      "duration": 0.0817,
      "velocity": 127,
      "chip": "ym2612"
    },
    {
      "channel": 2,
      "note": 76,
      "start": 186.3028,
      "duration": 0.0833,
      "velocity": 127,
      "chip": "ym2612"
    },
    {
      "channel": 2,
      "note": 76,
      "start": 186.4043,
      "duration": 0.1817,
      "velocity": 127,
      "chip": "ym2612"
    },
    {
      "channel": 2,
      "note": 30,
      "start": 186.6044,
      "duration": 0.0803,
      "velocity": 127,
      "chip": "ym2612"
    },
    {
      "channel": 2,
      "note": 76,
      "start": 186.7014,
      "duration": 0.0833,
      "velocity": 127,
      "chip": "ym2612"
    },
    {
      "channel": 2,
      "note": 76,
      "start": 186.8029,
      "duration": 0.1817,
      "velocity": 127,
      "chip": "ym2612"
    },
    {
      "channel": 2,
      "note": 30,
      "start": 187.003,
      "duration": 0.0817,
      "velocity": 127,
      "chip": "ym2612"
    },
    {
      "channel": 2,
      "note": 76,
      "start": 187.1014,
      "duration": 0.0833,
      "velocity": 127,
      "chip": "ym2612"
    },
    {
      "channel": 2,
      "note": 76,
      "start": 187.2029,
      "duration": 0.1832,
      "velocity": 127,
      "chip": "ym2612"
    },
    {
      "channel": 2,
      "note": 30,
      "start": 187.4044,
      "duration": 0.0817,
      "velocity": 127,
      "chip": "ym2612"
    },
    {
      "channel": 2,
      "note": 76,
      "start": 187.5028,
      "duration": 0.0833,
      "velocity": 127,
      "chip": "ym2612"
    },
    {
      "channel": 2,
      "note": 76,
      "start": 187.6044,
      "duration": 0.1804,
      "velocity": 127,
      "chip": "ym2612"
    },
    {
      "channel": 2,
      "note": 30,
      "start": 187.8029,
      "duration": 0.0817,
      "velocity": 127,
      "chip": "ym2612"
    },
    {
      "channel": 2,
      "note": 76,
      "start": 187.9015,
      "duration": 0.0833,
      "velocity": 127,
      "chip": "ym2612"
    },
    {
      "channel": 2,
      "note": 76,
      "start": 188.0029,
      "duration": 0.1819,
      "velocity": 127,
      "chip": "ym2612"
    },
    {
      "channel": 2,
      "note": 30,
      "start": 188.2029,
      "duration": 0.0833,
      "velocity": 127,
      "chip": "ym2612"
    },
    {
      "channel": 2,
      "note": 76,
      "start": 188.3028,
      "duration": 0.0833,
      "velocity": 127,
      "chip": "ym2612"
    },
    {
      "channel": 2,
      "note": 76,
      "start": 188.4044,
      "duration": 0.1817,
      "velocity": 127,
      "chip": "ym2612"
    },
    {
      "channel": 2,
      "note": 42,
      "start": 188.6043,
      "duration": 0.0819,
      "velocity": 127,
      "chip": "ym2612"
    },
    {
      "channel": 2,
      "note": 76,
      "start": 188.7028,
      "duration": 0.0812,
      "velocity": 127,
      "chip": "ym2612"
    },
    {
      "channel": 1,
      "note": 49,
      "start": 188.8038,
      "duration": 0.1803,
      "velocity": 127,
      "chip": "ym2612"
    },
    {
      "channel": 2,
      "note": 76,
      "start": 188.8055,
      "duration": 0.1788,
      "velocity": 127,
      "chip": "ym2612"
    },
    {
      "channel": 0,
      "note": 52,
      "start": 189.0007,
      "duration": 0.0831,
      "velocity": 127,
      "chip": "ym2612"
    },
    {
      "channel": 1,
      "note": 54,
      "start": 189.0009,
      "duration": 0.083,
      "velocity": 127,
      "chip": "ym2612"
    },
    {
      "channel": 2,
      "note": 30,
      "start": 189.0026,
      "duration": 0.0816,
      "velocity": 127,
      "chip": "ym2612"
    },
    {
      "channel": 0,
      "note": 28,
      "start": 189.1005,
      "duration": 0.0833,
      "velocity": 127,
      "chip": "ym2612"
    },
    {
      "channel": 1,
      "note": 68,
      "start": 189.1008,
      "duration": 0.0832,
      "velocity": 127,
      "chip": "ym2612"
    },
    {
      "channel": 2,
      "note": 76,
      "start": 189.101,
      "duration": 0.0832,
      "velocity": 127,
      "chip": "ym2612"
    },
    {
      "channel": 0,
      "note": 28,
      "start": 189.2007,
      "duration": 0.3838,
      "velocity": 127,
      "chip": "ym2612"
    },
    {
      "channel": 1,
      "note": 68,
      "start": 189.201,
      "duration": 0.1838,
      "velocity": 127,
      "chip": "ym2612"
    },
    {
      "channel": 2,
      "note": 76,
      "start": 189.2027,
      "duration": 0.1822,
      "velocity": 127,
      "chip": "ym2612"
    },
    {
      "channel": 1,
      "note": 66,
      "start": 189.4015,
      "duration": 0.0831,
      "velocity": 127,
      "chip": "ym2612"
    },
    {
      "channel": 2,
      "note": 30,
      "start": 189.4032,
      "duration": 0.0817,
      "velocity": 127,
      "chip": "ym2612"
    },
    {
      "channel": 1,
      "note": 56,
      "start": 189.5014,
      "duration": 0.0834,
      "velocity": 127,
      "chip": "ym2612"
    },
    {
      "channel": 2,
      "note": 76,
      "start": 189.5016,
      "duration": 0.0833,
      "velocity": 127,
      "chip": "ym2612"
    },
    {
      "channel": 1,
      "note": 56,
      "start": 189.6014,
      "duration": 0.0833,
      "velocity": 127,
      "chip": "ym2612"
    },
    {
      "channel": 2,
      "note": 76,
      "start": 189.6032,
      "duration": 0.1817,
      "velocity": 127,
      "chip": "ym2612"
    },
    {
      "channel": 1,
      "note": 56,
      "start": 189.7014,
      "duration": 0.1833,
      "velocity": 127,
      "chip": "ym2612"
    },
    {
      "channel": 2,
      "note": 30,
      "start": 189.8031,
      "duration": 0.0818,
      "velocity": 127,
      "chip": "ym2612"
    },
    {
      "channel": 1,
      "note": 66,
      "start": 189.9015,
      "duration": 0.0832,
      "velocity": 127,
      "chip": "ym2612"
    },
    {
      "channel": 2,
      "note": 76,
      "start": 189.9018,
      "duration": 0.0831,
      "velocity": 127,
      "chip": "ym2612"
    },
    {
      "channel": 1,
      "note": 68,
      "start": 190.0015,
      "duration": 0.0833,
      "velocity": 127,
      "chip": "ym2612"
    },
    {
      "channel": 2,
      "note": 76,
      "start": 190.0032,
      "duration": 0.1817,
      "velocity": 127,
      "chip": "ym2612"
    },
    {
      "channel": 1,
      "note": 56,
      "start": 190.1014,
      "duration": 0.0833,
      "velocity": 127,
      "chip": "ym2612"
    },
    {
      "channel": 1,
      "note": 68,
      "start": 190.2015,
      "duration": 0.0832,
      "velocity": 127,
      "chip": "ym2612"
    },
    {
      "channel": 2,
      "note": 30,
      "start": 190.2033,
      "duration": 0.0816,
      "velocity": 127,
      "chip": "ym2612"
    },
    {
      "channel": 1,
      "note": 56,
      "start": 190.3014,
      "duration": 0.0834,
      "velocity": 127,
      "chip": "ym2612"
    },
    {
      "channel": 2,
      "note": 76,
      "start": 190.3017,
      "duration": 0.0834,
      "velocity": 127,
      "chip": "ym2612"
    },
    {
      "channel": 1,
      "note": 68,
      "start": 190.4015,
      "duration": 0.0831,
      "velocity": 127,
      "chip": "ym2612"
    },
    {
      "channel": 2,
      "note": 76,
      "start": 190.4032,
      "duration": 0.1817,
      "velocity": 127,
      "chip": "ym2612"
    },
    {
      "channel": 1,
      "note": 68,
      "start": 190.5013,
      "duration": 0.0835,
      "velocity": 127,
      "chip": "ym2612"
    },
    {
      "channel": 1,
      "note": 68,
      "start": 190.6015,
      "duration": 0.1832,
      "velocity": 127,
      "chip": "ym2612"
    },
    {
      "channel": 2,
      "note": 30,
      "start": 190.6032,
      "duration": 0.0816,
      "velocity": 127,
      "chip": "ym2612"
    },
    {
      "channel": 2,
      "note": 76,
      "start": 190.7016,
      "duration": 0.0833,
      "velocity": 127,
      "chip": "ym2612"
    },
    {
      "channel": 0,
      "note": 37,
      "start": 190.8014,
      "duration": 0.1831,
      "velocity": 127,
      "chip": "ym2612"
    },
    {
      "channel": 1,
      "note": 54,
      "start": 190.8017,
      "duration": 0.1831,
      "velocity": 127,
      "chip": "ym2612"
    },
    {
      "channel": 2,
      "note": 76,
      "start": 190.8034,
      "duration": 0.1816,
      "velocity": 127,
      "chip": "ym2612"
    },
    {
      "channel": 0,
      "note": 38,
      "start": 191.0015,
      "duration": 0.3831,
      "velocity": 127,
      "chip": "ym2612"
    },
    {
      "channel": 1,
      "note": 66,
      "start": 191.0017,
      "duration": 0.083,
      "velocity": 127,
      "chip": "ym2612"
    },
    {
      "channel": 2,
      "note": 30,
      "start": 191.0035,
      "duration": 0.0815,
      "velocity": 127,
      "chip": "ym2612"
    },
    {
      "channel": 1,
      "note": 56,
      "start": 191.1015,
      "duration": 0.0832,
      "velocity": 127,
      "chip": "ym2612"
    },
    {
      "channel": 2,
      "note": 76,
      "start": 191.1017,
      "duration": 0.0831,
      "velocity": 127,
      "chip": "ym2612"
    },
    {
      "channel": 1,
      "note": 56,
      "start": 191.2015,
      "duration": 0.0832,
      "velocity": 127,
      "chip": "ym2612"
    },
    {
      "channel": 2,
      "note": 76,
      "start": 191.2033,
      "duration": 0.1817,
      "velocity": 127,
      "chip": "ym2612"
    },
    {
      "channel": 1,
      "note": 68,
      "start": 191.3014,
      "duration": 0.0835,
      "velocity": 127,
      "chip": "ym2612"
    },
    {
      "channel": 0,
      "note": 32,
      "start": 191.4014,
      "duration": 0.3831,
      "velocity": 127,
      "chip": "ym2612"
    },
    {
      "channel": 1,
      "note": 68,
      "start": 191.4017,
      "duration": 0.083,
      "velocity": 127,
      "chip": "ym2612"
    },
    {
      "channel": 2,
      "note": 30,
      "start": 191.4033,
      "duration": 0.0815,
      "velocity": 127,
      "chip": "ym2612"
    },
    {
      "channel": 1,
      "note": 56,
      "start": 191.5014,
      "duration": 0.0833,
      "velocity": 127,
      "chip": "ym2612"
    },
    {
      "channel": 2,
      "note": 76,
      "start": 191.5017,
      "duration": 0.0833,
      "velocity": 127,
      "chip": "ym2612"
    },
    {
      "channel": 1,
      "note": 68,
      "start": 191.6015,
      "duration": 0.0831,
      "velocity": 127,
      "chip": "ym2612"
    },
    {
      "channel": 2,
      "note": 76,
      "start": 191.6032,
      "duration": 0.1818,
      "velocity": 127,
      "chip": "ym2612"
    },
    {
      "channel": 1,
      "note": 56,
      "start": 191.7014,
      "duration": 0.0833,
      "velocity": 127,
      "chip": "ym2612"
    },
    {
      "channel": 0,
      "note": 32,
      "start": 191.8014,
      "duration": 0.0832,
      "velocity": 127,
      "chip": "ym2612"
    },
    {
      "channel": 1,
      "note": 56,
      "start": 191.8016,
      "duration": 0.0832,
      "velocity": 127,
      "chip": "ym2612"
    },
    {
      "channel": 2,
      "note": 42,
      "start": 191.8033,
      "duration": 0.0817,
      "velocity": 127,
      "chip": "ym2612"
    },
    {
      "channel": 0,
      "note": 45,
      "start": 191.9012,
      "duration": 0.0833,
      "velocity": 127,
      "chip": "ym2612"
    },
    {
      "channel": 1,
      "note": 68,
      "start": 191.9015,
      "duration": 0.0833,
      "velocity": 127,
      "chip": "ym2612"
    },
    {
      "channel": 2,
      "note": 76,
      "start": 191.9017,
      "duration": 0.0832,
      "velocity": 127,
      "chip": "ym2612"
    },
    {
      "channel": 1,
      "note": 68,
      "start": 192.0046,
      "duration": 0.1801,
      "velocity": 127,
      "chip": "ym2612"
    },
    {
      "channel": 2,
      "note": 76,
      "start": 192.0063,
      "duration": 0.1785,
      "velocity": 127,
      "chip": "ym2612"
    },
    {
      "channel": 1,
      "note": 54,
      "start": 192.2015,
      "duration": 0.0832,
      "velocity": 127,
      "chip": "ym2612"
    },
    {
      "channel": 2,
      "note": 30,
      "start": 192.2033,
      "duration": 0.0816,
      "velocity": 127,
      "chip": "ym2612"
    },
    {
      "channel": 1,
      "note": 68,
      "start": 192.3014,
      "duration": 0.0833,
      "velocity": 127,
      "chip": "ym2612"
    },
    {
      "channel": 2,
      "note": 76,
      "start": 192.3017,
      "duration": 0.0833,
      "velocity": 127,
      "chip": "ym2612"
    },
    {
      "channel": 1,
      "note": 68,
      "start": 192.4016,
      "duration": 0.1831,
      "velocity": 127,
      "chip": "ym2612"
    },
    {
      "channel": 2,
      "note": 76,
      "start": 192.4033,
      "duration": 0.1816,
      "velocity": 127,
      "chip": "ym2612"
    },
    {
      "channel": 1,
      "note": 66,
      "start": 192.6015,
      "duration": 0.0832,
      "velocity": 127,
      "chip": "ym2612"
    },
    {
      "channel": 2,
      "note": 42,
      "start": 192.6032,
      "duration": 0.0817,
      "velocity": 127,
      "chip": "ym2612"
    },
    {
      "channel": 1,
      "note": 56,
      "start": 192.7014,
      "duration": 0.0825,
      "velocity": 127,
      "chip": "ym2612"
    },
    {
      "channel": 2,
      "note": 76,
      "start": 192.7017,
      "duration": 0.0824,
      "velocity": 127,
      "chip": "ym2612"
    },
    {
      "channel": 1,
      "note": 56,
      "start": 192.8008,
      "duration": 0.0831,
      "velocity": 127,
      "chip": "ym2612"
    },
    {
      "channel": 2,
      "note": 76,
      "start": 192.8025,
      "duration": 0.1815,
      "velocity": 127,
      "chip": "ym2612"
    },
    {
      "channel": 1,
      "note": 56,
      "start": 192.9006,
      "duration": 0.1833,
      "velocity": 127,
      "chip": "ym2612"
    },
    {
      "channel": 2,
      "note": 30,
      "start": 193.0023,
      "duration": 0.0818,
      "velocity": 127,
      "chip": "ym2612"
    },
    {
      "channel": 1,
      "note": 66,
      "start": 193.1007,
      "duration": 0.0832,
      "velocity": 127,
      "chip": "ym2612"
    },
    {
      "channel": 2,
      "note": 76,
      "start": 193.101,
      "duration": 0.0832,
      "velocity": 127,
      "chip": "ym2612"
    },
    {
      "channel": 1,
      "note": 68,
      "start": 193.2007,
      "duration": 0.084,
      "velocity": 127,
      "chip": "ym2612"
    },
    {
      "channel": 2,
      "note": 76,
      "start": 193.2024,
      "duration": 0.1826,
      "velocity": 127,
      "chip": "ym2612"
    },
    {
      "channel": 1,
      "note": 56,
      "start": 193.3013,
      "duration": 0.0835,
      "velocity": 127,
      "chip": "ym2612"
    },
    {
      "channel": 1,
      "note": 68,
      "start": 193.4015,
      "duration": 0.0831,
      "velocity": 127,
      "chip": "ym2612"
    },
    {
      "channel": 2,
      "note": 30,
      "start": 193.4032,
      "duration": 0.0817,
      "velocity": 127,
      "chip": "ym2612"
    },
    {
      "channel": 1,
      "note": 56,
      "start": 193.5014,
      "duration": 0.0833,
      "velocity": 127,
      "chip": "ym2612"
    },
    {
      "channel": 2,
      "note": 76,
      "start": 193.5016,
      "duration": 0.0833,
      "velocity": 127,
      "chip": "ym2612"
    },
    {
      "channel": 1,
      "note": 68,
      "start": 193.6015,
      "duration": 0.0832,
      "velocity": 127,
      "chip": "ym2612"
    },
    {
      "channel": 2,
      "note": 76,
      "start": 193.6033,
      "duration": 0.1817,
      "velocity": 127,
      "chip": "ym2612"
    },
    {
      "channel": 1,
      "note": 68,
      "start": 193.7014,
      "duration": 0.0834,
      "velocity": 127,
      "chip": "ym2612"
    },
    {
      "channel": 1,
      "note": 68,
      "start": 193.8015,
      "duration": 0.1832,
      "velocity": 127,
      "chip": "ym2612"
    },
    {
      "channel": 2,
      "note": 30,
      "start": 193.8032,
      "duration": 0.0816,
      "velocity": 127,
      "chip": "ym2612"
    },
    {
      "channel": 2,
      "note": 76,
      "start": 193.9016,
      "duration": 0.0833,
      "velocity": 127,
      "chip": "ym2612"
    },
    {
      "channel": 1,
      "note": 54,
      "start": 194.0015,
      "duration": 0.1831,
      "velocity": 127,
      "chip": "ym2612"
    },
    {
      "channel": 2,
      "note": 76,
      "start": 194.0033,
      "duration": 0.1816,
      "velocity": 127,
      "chip": "ym2612"
    },
    {
      "channel": 1,
      "note": 66,
      "start": 194.2015,
      "duration": 0.0832,
      "velocity": 127,
      "chip": "ym2612"
    },
    {
      "channel": 2,
      "note": 30,
      "start": 194.2032,
      "duration": 0.0817,
      "velocity": 127,
      "chip": "ym2612"
    },
    {
      "channel": 1,
      "note": 56,
      "start": 194.3014,
      "duration": 0.0833,
      "velocity": 127,
      "chip": "ym2612"
    },
    {
      "channel": 2,
      "note": 76,
      "start": 194.3017,
      "duration": 0.0833,
      "velocity": 127,
      "chip": "ym2612"
    },
    {
      "channel": 1,
      "note": 56,
      "start": 194.4015,
      "duration": 0.0831,
      "velocity": 127,
      "chip": "ym2612"
    },
    {
      "channel": 2,
      "note": 76,
      "start": 194.4032,
      "duration": 0.1818,
      "velocity": 127,
      "chip": "ym2612"
    },
    {
      "channel": 1,
      "note": 68,
      "start": 194.5013,
      "duration": 0.0835,
      "velocity": 127,
      "chip": "ym2612"
    },
    {
      "channel": 1,
      "note": 68,
      "start": 194.6015,
      "duration": 0.0833,
      "velocity": 127,
      "chip": "ym2612"
    },
    {
      "channel": 2,
      "note": 30,
      "start": 194.6032,
      "duration": 0.0818,
      "velocity": 127,
      "chip": "ym2612"
    },
    {
      "channel": 1,
      "note": 56,
      "start": 194.7015,
      "duration": 0.0832,
      "velocity": 127,
      "chip": "ym2612"
    },
    {
      "channel": 2,
      "note": 76,
      "start": 194.7017,
      "duration": 0.0832,
      "velocity": 127,
      "chip": "ym2612"
    },
    {
      "channel": 1,
      "note": 68,
      "start": 194.8015,
      "duration": 0.0832,
      "velocity": 127,
      "chip": "ym2612"
    },
    {
      "channel": 2,
      "note": 76,
      "start": 194.8033,
      "duration": 0.1816,
      "velocity": 127,
      "chip": "ym2612"
    },
    {
      "channel": 1,
      "note": 56,
      "start": 194.9014,
      "duration": 0.0833,
      "velocity": 127,
      "chip": "ym2612"
    },
    {
      "channel": 1,
      "note": 56,
      "start": 195.0015,
      "duration": 0.0831,
      "velocity": 127,
      "chip": "ym2612"
    },
    {
      "channel": 2,
      "note": 42,
      "start": 195.0032,
      "duration": 0.0817,
      "velocity": 127,
      "chip": "ym2612"
    },
    {
      "channel": 1,
      "note": 68,
      "start": 195.1015,
      "duration": 0.0833,
      "velocity": 127,
      "chip": "ym2612"
    },
    {
      "channel": 2,
      "note": 76,
      "start": 195.1017,
      "duration": 0.0833,
      "velocity": 127,
      "chip": "ym2612"
    },
    {
      "channel": 1,
      "note": 68,
      "start": 195.2045,
      "duration": 0.1802,
      "velocity": 127,
      "chip": "ym2612"
    },
    {
      "channel": 2,
      "note": 76,
      "start": 195.2062,
      "duration": 0.1787,
      "velocity": 127,
      "chip": "ym2612"
    },
    {
      "channel": 1,
      "note": 54,
      "start": 195.4015,
      "duration": 0.0832,
      "velocity": 127,
      "chip": "ym2612"
    },
    {
      "channel": 2,
      "note": 30,
      "start": 195.4032,
      "duration": 0.0817,
      "velocity": 127,
      "chip": "ym2612"
    },
    {
      "channel": 1,
      "note": 68,
      "start": 195.5014,
      "duration": 0.0832,
      "velocity": 127,
      "chip": "ym2612"
    },
    {
      "channel": 2,
      "note": 76,
      "start": 195.5017,
      "duration": 0.0832,
      "velocity": 127,
      "chip": "ym2612"
    },
    {
      "channel": 1,
      "note": 68,
      "start": 195.6015,
      "duration": 0.1832,
      "velocity": 127,
      "chip": "ym2612"
    },
    {
      "channel": 2,
      "note": 76,
      "start": 195.6032,
      "duration": 0.1817,
      "velocity": 127,
      "chip": "ym2612"
    },
    {
      "channel": 1,
      "note": 66,
      "start": 195.8016,
      "duration": 0.0832,
      "velocity": 127,
      "chip": "ym2612"
    },
    {
      "channel": 2,
      "note": 42,
      "start": 195.8033,
      "duration": 0.0816,
      "velocity": 127,
      "chip": "ym2612"
    },
    {
      "channel": 1,
      "note": 56,
      "start": 195.9015,
      "duration": 0.0832,
      "velocity": 127,
      "chip": "ym2612"
    },
    {
      "channel": 2,
      "note": 76,
      "start": 195.9017,
      "duration": 0.0831,
      "velocity": 127,
      "chip": "ym2612"
    },
    {
      "channel": 1,
      "note": 56,
      "start": 196.0015,
      "duration": 0.0832,
      "velocity": 127,
      "chip": "ym2612"
    },
    {
      "channel": 2,
      "note": 76,
      "start": 196.0033,
      "duration": 0.1816,
      "velocity": 127,
      "chip": "ym2612"
    },
    {
      "channel": 1,
      "note": 56,
      "start": 196.1015,
      "duration": 0.1831,
      "velocity": 127,
      "chip": "ym2612"
    },
    {
      "channel": 2,
      "note": 30,
      "start": 196.2031,
      "duration": 0.0818,
      "velocity": 127,
      "chip": "ym2612"
    },
    {
      "channel": 1,
      "note": 66,
      "start": 196.3014,
      "duration": 0.0834,
      "velocity": 127,
      "chip": "ym2612"
    },
    {
      "channel": 2,
      "note": 76,
      "start": 196.3016,
      "duration": 0.0833,
      "velocity": 127,
      "chip": "ym2612"
    },
    {
      "channel": 1,
      "note": 68,
      "start": 196.4015,
      "duration": 0.0831,
      "velocity": 127,
      "chip": "ym2612"
    },
    {
      "channel": 2,
      "note": 76,
      "start": 196.4032,
      "duration": 0.1817,
      "velocity": 127,
      "chip": "ym2612"
    },
    {
      "channel": 1,
      "note": 56,
      "start": 196.5014,
      "duration": 0.0833,
      "velocity": 127,
      "chip": "ym2612"
    },
    {
      "channel": 1,
      "note": 68,
      "start": 196.6014,
      "duration": 0.0833,
      "velocity": 127,
      "chip": "ym2612"
    },
    {
      "channel": 2,
      "note": 30,
      "start": 196.6032,
      "duration": 0.0817,
      "velocity": 127,
      "chip": "ym2612"
    },
    {
      "channel": 1,
      "note": 56,
      "start": 196.7014,
      "duration": 0.0826,
      "velocity": 127,
      "chip": "ym2612"
    },
    {
      "channel": 2,
      "note": 76,
      "start": 196.7017,
      "duration": 0.0825,
      "velocity": 127,
      "chip": "ym2612"
    },
    {
      "channel": 1,
      "note": 68,
      "start": 196.8007,
      "duration": 0.0833,
      "velocity": 127,
      "chip": "ym2612"
    },
    {
      "channel": 2,
      "note": 76,
      "start": 196.8024,
      "duration": 0.1818,
      "velocity": 127,
      "chip": "ym2612"
    },
    {
      "channel": 1,
      "note": 68,
      "start": 196.9007,
      "duration": 0.0833,
      "velocity": 127,
      "chip": "ym2612"
    },
    {
      "channel": 1,
      "note": 68,
      "start": 197.0009,
      "duration": 0.183,
      "velocity": 127,
      "chip": "ym2612"
    },
    {
      "channel": 2,
      "note": 30,
      "start": 197.0025,
      "duration": 0.0816,
      "velocity": 127,
      "chip": "ym2612"
    },
    {
      "channel": 2,
      "note": 76,
      "start": 197.1008,
      "duration": 0.0833,
      "velocity": 127,
      "chip": "ym2612"
    },
    {
      "channel": 1,
      "note": 54,
      "start": 197.2007,
      "duration": 0.1858,
      "velocity": 127,
      "chip": "ym2612"
    },
    {
      "channel": 2,
      "note": 76,
      "start": 197.2024,
      "duration": 0.1843,
      "velocity": 127,
      "chip": "ym2612"
    },
    {
      "channel": 1,
      "note": 66,
      "start": 197.4034,
      "duration": 0.0832,
      "velocity": 127,
      "chip": "ym2612"
    },
    {
      "channel": 2,
      "note": 30,
      "start": 197.4051,
      "duration": 0.0817,
      "velocity": 127,
      "chip": "ym2612"
    },
    {
      "channel": 1,
      "note": 56,
      "start": 197.5032,
      "duration": 0.0834,
      "velocity": 127,
      "chip": "ym2612"
    },
    {
      "channel": 2,
      "note": 76,
      "start": 197.5034,
      "duration": 0.0833,
      "velocity": 127,
      "chip": "ym2612"
    },
    {
      "channel": 1,
      "note": 56,
      "start": 197.6033,
      "duration": 0.0833,
      "velocity": 127,
      "chip": "ym2612"
    },
    {
      "channel": 2,
      "note": 76,
      "start": 197.6049,
      "duration": 0.1817,
      "velocity": 127,
      "chip": "ym2612"
    },
    {
      "channel": 1,
      "note": 68,
      "start": 197.7032,
      "duration": 0.0833,
      "velocity": 127,
      "chip": "ym2612"
    },
    {
      "channel": 1,
      "note": 68,
      "start": 197.8033,
      "duration": 0.0818,
      "velocity": 127,
      "chip": "ym2612"
    },
    {
      "channel": 2,
      "note": 30,
      "start": 197.8051,
      "duration": 0.0803,
      "velocity": 127,
      "chip": "ym2612"
    },
    {
      "channel": 1,
      "note": 56,
      "start": 197.9019,
      "duration": 0.0833,
      "velocity": 127,
      "chip": "ym2612"
    },
    {
      "channel": 2,
      "note": 76,
      "start": 197.9021,
      "duration": 0.0833,
      "velocity": 127,
      "chip": "ym2612"
    },
    {
      "channel": 1,
      "note": 68,
      "start": 198.0019,
      "duration": 0.0832,
      "velocity": 127,
      "chip": "ym2612"
    },
    {
      "channel": 2,
      "note": 76,
      "start": 198.0036,
      "duration": 0.1817,
      "velocity": 127,
      "chip": "ym2612"
    },
    {
      "channel": 1,
      "note": 56,
      "start": 198.1019,
      "duration": 0.0833,
      "velocity": 127,
      "chip": "ym2612"
    },
    {
      "channel": 1,
      "note": 56,
      "start": 198.2019,
      "duration": 0.0833,
      "velocity": 127,
      "chip": "ym2612"
    },
    {
      "channel": 2,
      "note": 42,
      "start": 198.2036,
      "duration": 0.0817,
      "velocity": 127,
      "chip": "ym2612"
    },
    {
      "channel": 1,
      "note": 68,
      "start": 198.3019,
      "duration": 0.0846,
      "velocity": 127,
      "chip": "ym2612"
    },
    {
      "channel": 2,
      "note": 76,
      "start": 198.3021,
      "duration": 0.0846,
      "velocity": 127,
      "chip": "ym2612"
    },
    {
      "channel": 1,
      "note": 68,
      "start": 198.4064,
      "duration": 0.1801,
      "velocity": 127,
      "chip": "ym2612"
    },
    {
      "channel": 2,
      "note": 76,
      "start": 198.408,
      "duration": 0.1787,
      "velocity": 127,
      "chip": "ym2612"
    },
    {
      "channel": 1,
      "note": 54,
      "start": 198.6034,
      "duration": 0.0832,
      "velocity": 127,
      "chip": "ym2612"
    },
    {
      "channel": 2,
      "note": 30,
      "start": 198.6051,
      "duration": 0.0817,
      "velocity": 127,
      "chip": "ym2612"
    },
    {
      "channel": 1,
      "note": 68,
      "start": 198.7032,
      "duration": 0.0834,
      "velocity": 127,
      "chip": "ym2612"
    },
    {
      "channel": 2,
      "note": 76,
      "start": 198.7034,
      "duration": 0.0833,
      "velocity": 127,
      "chip": "ym2612"
    },
    {
      "channel": 1,
      "note": 68,
      "start": 198.8034,
      "duration": 0.1817,
      "velocity": 127,
      "chip": "ym2612"
    },
    {
      "channel": 2,
      "note": 76,
      "start": 198.8051,
      "duration": 0.1803,
      "velocity": 127,
      "chip": "ym2612"
    },
    {
      "channel": 1,
      "note": 66,
      "start": 199.0019,
      "duration": 0.0832,
      "velocity": 127,
      "chip": "ym2612"
    },
    {
      "channel": 2,
      "note": 42,
      "start": 199.0037,
      "duration": 0.0817,
      "velocity": 127,
      "chip": "ym2612"
    },
    {
      "channel": 1,
      "note": 56,
      "start": 199.1018,
      "duration": 0.0834,
      "velocity": 127,
      "chip": "ym2612"
    },
    {
      "channel": 2,
      "note": 76,
      "start": 199.1021,
      "duration": 0.0833,
      "velocity": 127,
      "chip": "ym2612"
    },
    {
      "channel": 1,
      "note": 56,
      "start": 199.2019,
      "duration": 0.0832,
      "velocity": 127,
      "chip": "ym2612"
    },
    {
      "channel": 2,
      "note": 76,
      "start": 199.2036,
      "duration": 0.1817,
      "velocity": 127,
      "chip": "ym2612"
    },
    {
      "channel": 1,
      "note": 56,
      "start": 199.3019,
      "duration": 0.1846,
      "velocity": 127,
      "chip": "ym2612"
    },
    {
      "channel": 2,
      "note": 30,
      "start": 199.4035,
      "duration": 0.0832,
      "velocity": 127,
      "chip": "ym2612"
    },
    {
      "channel": 1,
      "note": 66,
      "start": 199.5032,
      "duration": 0.0833,
      "velocity": 127,
      "chip": "ym2612"
    },
    {
      "channel": 2,
      "note": 76,
      "start": 199.5035,
      "duration": 0.0833,
      "velocity": 127,
      "chip": "ym2612"
    },
    {
      "channel": 1,
      "note": 68,
      "start": 199.6033,
      "duration": 0.0833,
      "velocity": 127,
      "chip": "ym2612"
    },
    {
      "channel": 2,
      "note": 76,
      "start": 199.605,
      "duration": 0.1817,
      "velocity": 127,
      "chip": "ym2612"
    },
    {
      "channel": 1,
      "note": 56,
      "start": 199.7032,
      "duration": 0.0833,
      "velocity": 127,
      "chip": "ym2612"
    },
    {
      "channel": 1,
      "note": 68,
      "start": 199.8033,
      "duration": 0.0832,
      "velocity": 127,
      "chip": "ym2612"
    },
    {
      "channel": 2,
      "note": 30,
      "start": 199.8051,
      "duration": 0.0817,
      "velocity": 127,
      "chip": "ym2612"
    },
    {
      "channel": 1,
      "note": 56,
      "start": 199.9032,
      "duration": 0.082,
      "velocity": 127,
      "chip": "ym2612"
    },
    {
      "channel": 2,
      "note": 76,
      "start": 199.9035,
      "duration": 0.0819,
      "velocity": 127,
      "chip": "ym2612"
    },
    {
      "channel": 1,
      "note": 68,
      "start": 200.0019,
      "duration": 0.0832,
      "velocity": 127,
      "chip": "ym2612"
    },
    {
      "channel": 2,
      "note": 76,
      "start": 200.0036,
      "duration": 0.1817,
      "velocity": 127,
      "chip": "ym2612"
    },
    {
      "channel": 1,
      "note": 68,
      "start": 200.1019,
      "duration": 0.0833,
      "velocity": 127,
      "chip": "ym2612"
    },
    {
      "channel": 1,
      "note": 68,
      "start": 200.202,
      "duration": 0.1832,
      "velocity": 127,
      "chip": "ym2612"
    },
    {
      "channel": 2,
      "note": 30,
      "start": 200.2037,
      "duration": 0.0816,
      "velocity": 127,
      "chip": "ym2612"
    },
    {
      "channel": 2,
      "note": 76,
      "start": 200.302,
      "duration": 0.0834,
      "velocity": 127,
      "chip": "ym2612"
    },
    {
      "channel": 1,
      "note": 54,
      "start": 200.4019,
      "duration": 0.1846,
      "velocity": 127,
      "chip": "ym2612"
    },
    {
      "channel": 2,
      "note": 76,
      "start": 200.4036,
      "duration": 0.1832,
      "velocity": 127,
      "chip": "ym2612"
    },
    {
      "channel": 1,
      "note": 66,
      "start": 200.6033,
      "duration": 0.0832,
      "velocity": 127,
      "chip": "ym2612"
    },
    {
      "channel": 2,
      "note": 30,
      "start": 200.6051,
      "duration": 0.0817,
      "velocity": 127,
      "chip": "ym2612"
    },
    {
      "channel": 1,
      "note": 56,
      "start": 200.7032,
      "duration": 0.0807,
      "velocity": 127,
      "chip": "ym2612"
    },
    {
      "channel": 2,
      "note": 76,
      "start": 200.7035,
      "duration": 0.0807,
      "velocity": 127,
      "chip": "ym2612"
    },
    {
      "channel": 1,
      "note": 56,
      "start": 200.8007,
      "duration": 0.0833,
      "velocity": 127,
      "chip": "ym2612"
    },
    {
      "channel": 2,
      "note": 76,
      "start": 200.8024,
      "duration": 0.1817,
      "velocity": 127,
      "chip": "ym2612"
    },
    {
      "channel": 1,
      "note": 68,
      "start": 200.9007,
      "duration": 0.0833,
      "velocity": 127,
      "chip": "ym2612"
    },
    {
      "channel": 1,
      "note": 68,
      "start": 201.0008,
      "duration": 0.0831,
      "velocity": 127,
      "chip": "ym2612"
    },
    {
      "channel": 2,
      "note": 30,
      "start": 201.0025,
      "duration": 0.0816,
      "velocity": 127,
      "chip": "ym2612"
    },
    {
      "channel": 1,
      "note": 56,
      "start": 201.1007,
      "duration": 0.0832,
      "velocity": 127,
      "chip": "ym2612"
    },
    {
      "channel": 2,
      "note": 76,
      "start": 201.1009,
      "duration": 0.0832,
      "velocity": 127,
      "chip": "ym2612"
    },
    {
      "channel": 1,
      "note": 68,
      "start": 201.2007,
      "duration": 0.0832,
      "velocity": 127,
      "chip": "ym2612"
    },
    {
      "channel": 2,
      "note": 76,
      "start": 201.2024,
      "duration": 0.1826,
      "velocity": 127,
      "chip": "ym2612"
    },
    {
      "channel": 1,
      "note": 56,
      "start": 201.3015,
      "duration": 0.0833,
      "velocity": 127,
      "chip": "ym2612"
    },
    {
      "channel": 1,
      "note": 56,
      "start": 201.4017,
      "duration": 0.0832,
      "velocity": 127,
      "chip": "ym2612"
    },
    {
      "channel": 2,
      "note": 42,
      "start": 201.4034,
      "duration": 0.0816,
      "velocity": 127,
      "chip": "ym2612"
    },
    {
      "channel": 1,
      "note": 68,
      "start": 201.5015,
      "duration": 0.0832,
      "velocity": 127,
      "chip": "ym2612"
    },
    {
      "channel": 2,
      "note": 76,
      "start": 201.5018,
      "duration": 0.0832,
      "velocity": 127,
      "chip": "ym2612"
    },
    {
      "channel": 1,
      "note": 68,
      "start": 201.6045,
      "duration": 0.1803,
      "velocity": 127,
      "chip": "ym2612"
    },
    {
      "channel": 2,
      "note": 76,
      "start": 201.6062,
      "duration": 0.1788,
      "velocity": 127,
      "chip": "ym2612"
    },
    {
      "channel": 0,
      "note": 45,
      "start": 201.8015,
      "duration": 0.0831,
      "velocity": 127,
      "chip": "ym2612"
    },
    {
      "channel": 1,
      "note": 54,
      "start": 201.8017,
      "duration": 0.083,
      "velocity": 127,
      "chip": "ym2612"
    },
    {
      "channel": 2,
      "note": 30,
      "start": 201.8034,
      "duration": 0.0816,
      "velocity": 127,
      "chip": "ym2612"
    },
    {
      "channel": 0,
      "note": 28,
      "start": 201.9012,
      "duration": 0.0833,
      "velocity": 127,
      "chip": "ym2612"
    },
    {
      "channel": 1,
      "note": 68,
      "start": 201.9015,
      "duration": 0.0832,
      "velocity": 127,
      "chip": "ym2612"
    },
    {
      "channel": 2,
      "note": 76,
      "start": 201.9017,
      "duration": 0.0832,
      "velocity": 127,
      "chip": "ym2612"
    },
    {
      "channel": 0,
      "note": 28,
      "start": 202.0014,
      "duration": 0.3833,
      "velocity": 127,
      "chip": "ym2612"
    },
    {
      "channel": 1,
      "note": 68,
      "start": 202.0017,
      "duration": 0.1832,
      "velocity": 127,
      "chip": "ym2612"
    },
    {
      "channel": 2,
      "note": 76,
      "start": 202.0034,
      "duration": 0.1817,
      "velocity": 127,
      "chip": "ym2612"
    },
    {
      "channel": 1,
      "note": 66,
      "start": 202.2016,
      "duration": 0.0832,
      "velocity": 127,
      "chip": "ym2612"
    },
    {
      "channel": 2,
      "note": 42,
      "start": 202.2033,
      "duration": 0.0817,
      "velocity": 127,
      "chip": "ym2612"
    },
    {
      "channel": 1,
      "note": 56,
      "start": 202.3016,
      "duration": 0.0833,
      "velocity": 127,
      "chip": "ym2612"
    },
    {
      "channel": 2,
      "note": 76,
      "start": 202.3019,
      "duration": 0.0833,
      "velocity": 127,
      "chip": "ym2612"
    },
    {
      "channel": 1,
      "note": 56,
      "start": 202.4017,
      "duration": 0.0831,
      "velocity": 127,
      "chip": "ym2612"
    },
    {
      "channel": 2,
      "note": 76,
      "start": 202.4034,
      "duration": 0.1815,
      "velocity": 127,
      "chip": "ym2612"
    },
    {
      "channel": 1,
      "note": 56,
      "start": 202.5015,
      "duration": 0.1832,
      "velocity": 127,
      "chip": "ym2612"
    },
    {
      "channel": 2,
      "note": 30,
      "start": 202.6032,
      "duration": 0.0817,
      "velocity": 127,
      "chip": "ym2612"
    },
    {
      "channel": 1,
      "note": 66,
      "start": 202.7014,
      "duration": 0.0832,
      "velocity": 127,
      "chip": "ym2612"
    },
    {
      "channel": 2,
      "note": 76,
      "start": 202.7017,
      "duration": 0.0832,
      "velocity": 127,
      "chip": "ym2612"
    },
    {
      "channel": 1,
      "note": 68,
      "start": 202.8015,
      "duration": 0.0831,
      "velocity": 127,
      "chip": "ym2612"
    },
    {
      "channel": 2,
      "note": 76,
      "start": 202.8032,
      "duration": 0.1817,
      "velocity": 127,
      "chip": "ym2612"
    },
    {
      "channel": 1,
      "note": 56,
      "start": 202.9014,
      "duration": 0.0833,
      "velocity": 127,
      "chip": "ym2612"
    },
    {
      "channel": 1,
      "note": 68,
      "start": 203.0014,
      "duration": 0.0833,
      "velocity": 127,
      "chip": "ym2612"
    },
    {
      "channel": 2,
      "note": 30,
      "start": 203.0032,
      "duration": 0.0818,
      "velocity": 127,
      "chip": "ym2612"
    },
    {
      "channel": 1,
      "note": 56,
      "start": 203.1015,
      "duration": 0.0834,
      "velocity": 127,
      "chip": "ym2612"
    },
    {
      "channel": 2,
      "note": 76,
      "start": 203.1017,
      "duration": 0.0833,
      "velocity": 127,
      "chip": "ym2612"
    },
    {
      "channel": 1,
      "note": 68,
      "start": 203.2017,
      "duration": 0.0832,
      "velocity": 127,
      "chip": "ym2612"
    },
    {
      "channel": 2,
      "note": 76,
      "start": 203.2034,
      "duration": 0.1817,
      "velocity": 127,
      "chip": "ym2612"
    },
    {
      "channel": 1,
      "note": 68,
      "start": 203.3015,
      "duration": 0.0834,
      "velocity": 127,
      "chip": "ym2612"
    },
    {
      "channel": 1,
      "note": 68,
      "start": 203.4016,
      "duration": 0.1832,
      "velocity": 127,
      "chip": "ym2612"
    },
    {
      "channel": 2,
      "note": 30,
      "start": 203.4033,
      "duration": 0.0817,
      "velocity": 127,
      "chip": "ym2612"
    },
    {
      "channel": 2,
      "note": 76,
      "start": 203.5017,
      "duration": 0.0833,
      "velocity": 127,
      "chip": "ym2612"
    },
    {
      "channel": 0,
      "note": 37,
      "start": 203.6015,
      "duration": 0.183,
      "velocity": 127,
      "chip": "ym2612"
    },
    {
      "channel": 1,
      "note": 54,
      "start": 203.6018,
      "duration": 0.1829,
      "velocity": 127,
      "chip": "ym2612"
    },
    {
      "channel": 2,
      "note": 76,
      "start": 203.6035,
      "duration": 0.1815,
      "velocity": 127,
      "chip": "ym2612"
    },
    {
      "channel": 0,
      "note": 38,
      "start": 203.8014,
      "duration": 0.3832,
      "velocity": 127,
      "chip": "ym2612"
    },
    {
      "channel": 1,
      "note": 66,
      "start": 203.8016,
      "duration": 0.083,
      "velocity": 127,
      "chip": "ym2612"
    },
    {
      "channel": 2,
      "note": 30,
      "start": 203.8033,
      "duration": 0.0815,
      "velocity": 127,
      "chip": "ym2612"
    },
    {
      "channel": 1,
      "note": 56,
      "start": 203.9015,
      "duration": 0.0832,
      "velocity": 127,
      "chip": "ym2612"
    },
    {
      "channel": 2,
      "note": 76,
      "start": 203.9017,
      "duration": 0.0831,
      "velocity": 127,
      "chip": "ym2612"
    },
    {
      "channel": 1,
      "note": 56,
      "start": 204.0015,
      "duration": 0.0832,
      "velocity": 127,
      "chip": "ym2612"
    },
    {
      "channel": 2,
      "note": 76,
      "start": 204.0033,
      "duration": 0.1816,
      "velocity": 127,
      "chip": "ym2612"
    },
    {
      "channel": 1,
      "note": 68,
      "start": 204.1014,
      "duration": 0.0833,
      "velocity": 127,
      "chip": "ym2612"
    },
    {
      "channel": 0,
      "note": 32,
      "start": 204.2013,
      "duration": 0.3833,
      "velocity": 127,
      "chip": "ym2612"
    },
    {
      "channel": 1,
      "note": 68,
      "start": 204.2015,
      "duration": 0.0833,
      "velocity": 127,
      "chip": "ym2612"
    },
    {
      "channel": 2,
      "note": 30,
      "start": 204.2032,
      "duration": 0.0818,
      "velocity": 127,
      "chip": "ym2612"
    },
    {
      "channel": 1,
      "note": 56,
      "start": 204.3015,
      "duration": 0.0833,
      "velocity": 127,
      "chip": "ym2612"
    },
    {
      "channel": 2,
      "note": 76,
      "start": 204.3018,
      "duration": 0.0833,
      "velocity": 127,
      "chip": "ym2612"
    },
    {
      "channel": 1,
      "note": 68,
      "start": 204.4016,
      "duration": 0.0833,
      "velocity": 127,
      "chip": "ym2612"
    },
    {
      "channel": 2,
      "note": 76,
      "start": 204.4033,
      "duration": 0.1818,
      "velocity": 127,
      "chip": "ym2612"
    },
    {
      "channel": 1,
      "note": 56,
      "start": 204.5015,
      "duration": 0.0833,
      "velocity": 127,
      "chip": "ym2612"
    },
    {
      "channel": 0,
      "note": 32,
      "start": 204.6016,
      "duration": 0.0831,
      "velocity": 127,
      "chip": "ym2612"
    },
    {
      "channel": 1,
      "note": 56,
      "start": 204.6019,
      "duration": 0.083,
      "velocity": 127,
      "chip": "ym2612"
    },
    {
      "channel": 2,
      "note": 42,
      "start": 204.6035,
      "duration": 0.0816,
      "velocity": 127,
      "chip": "ym2612"
    },
    {
      "channel": 0,
      "note": 45,
      "start": 204.7015,
      "duration": 0.083,
      "velocity": 127,
      "chip": "ym2612"
    },
    {
      "channel": 1,
      "note": 68,
      "start": 204.7017,
      "duration": 0.0829,
      "velocity": 127,
      "chip": "ym2612"
    },
    {
      "channel": 2,
      "note": 76,
      "start": 204.702,
      "duration": 0.0829,
      "velocity": 127,
      "chip": "ym2612"
    },
    {
      "channel": 0,
      "note": 45,
      "start": 204.8024,
      "duration": 3.1835,
      "velocity": 102,
      "chip": "ym2612"
    },
    {
      "channel": 1,
      "note": 68,
      "start": 204.8042,
      "duration": 3.1819,
      "velocity": 102,
      "chip": "ym2612"
    },
    {
      "channel": 2,
      "note": 76,
      "start": 204.8058,
      "duration": 0.1783,
      "velocity": 127,
      "chip": "ym2612"
    },
    {
      "channel": 2,
      "note": 30,
      "start": 205.0023,
      "duration": 0.0817,
      "velocity": 127,
      "chip": "ym2612"
    },
    {
      "channel": 2,
      "note": 76,
      "start": 205.1007,
      "duration": 0.0834,
      "velocity": 127,
      "chip": "ym2612"
    },
    {
      "channel": 2,
      "note": 76,
      "start": 205.2022,
      "duration": 0.1825,
      "velocity": 127,
      "chip": "ym2612"
    },
    {
      "channel": 2,
      "note": 42,
      "start": 205.403,
      "duration": 0.0816,
      "velocity": 127,
      "chip": "ym2612"
    },
    {
      "channel": 2,
      "note": 76,
      "start": 205.5014,
      "duration": 0.0834,
      "velocity": 127,
      "chip": "ym2612"
    },
    {
      "channel": 2,
      "note": 76,
      "start": 205.6029,
      "duration": 0.1819,
      "velocity": 127,
      "chip": "ym2612"
    },
    {
      "channel": 2,
      "note": 30,
      "start": 205.8044,
      "duration": 0.0817,
      "velocity": 127,
      "chip": "ym2612"
    },
    {
      "channel": 2,
      "note": 76,
      "start": 205.9028,
      "duration": 0.0833,
      "velocity": 127,
      "chip": "ym2612"
    },
    {
      "channel": 2,
      "note": 76,
      "start": 206.0044,
      "duration": 0.1818,
      "velocity": 127,
      "chip": "ym2612"
    },
    {
      "channel": 2,
      "note": 30,
      "start": 206.2043,
      "duration": 0.0817,
      "velocity": 127,
      "chip": "ym2612"
    },
    {
      "channel": 2,
      "note": 76,
      "start": 206.3028,
      "duration": 0.0819,
      "velocity": 127,
      "chip": "ym2612"
    },
    {
      "channel": 2,
      "note": 76,
      "start": 206.4029,
      "duration": 0.1817,
      "velocity": 127,
      "chip": "ym2612"
    },
    {
      "channel": 2,
      "note": 30,
      "start": 206.6029,
      "duration": 0.0817,
      "velocity": 127,
      "chip": "ym2612"
    },
    {
      "channel": 2,
      "note": 76,
      "start": 206.7014,
      "duration": 0.0833,
      "velocity": 127,
      "chip": "ym2612"
    },
    {
      "channel": 2,
      "note": 76,
      "start": 206.8029,
      "duration": 0.1832,
      "velocity": 127,
      "chip": "ym2612"
    },
    {
      "channel": 2,
      "note": 42,
      "start": 207.0028,
      "duration": 0.1833,
      "velocity": 127,
      "chip": "ym2612"
    },
    {
      "channel": 2,
      "note": 42,
      "start": 207.2044,
      "duration": 0.1817,
      "velocity": 127,
      "chip": "ym2612"
    },
    {
      "channel": 2,
      "note": 30,
      "start": 207.4029,
      "duration": 0.0817,
      "velocity": 127,
      "chip": "ym2612"
    },
    {
      "channel": 2,
      "note": 76,
      "start": 207.5014,
      "duration": 0.0833,
      "velocity": 127,
      "chip": "ym2612"
    },
    {
      "channel": 2,
      "note": 76,
      "start": 207.6029,
      "duration": 0.1817,
      "velocity": 127,
      "chip": "ym2612"
    },
    {
      "channel": 2,
      "note": 42,
      "start": 207.8029,
      "duration": 0.0817,
      "velocity": 127,
      "chip": "ym2612"
    },
    {
      "channel": 2,
      "note": 76,
      "start": 207.9014,
      "duration": 0.0849,
      "velocity": 127,
      "chip": "ym2612"
    },
    {
      "channel": 1,
      "note": 49,
      "start": 208.0059,
      "duration": 0.1802,
      "velocity": 127,
      "chip": "ym2612"
    },
    {
      "channel": 2,
      "note": 76,
      "start": 208.0076,
      "duration": 0.1788,
      "velocity": 127,
      "chip": "ym2612"
    },
    {
      "channel": 1,
      "note": 54,
      "start": 208.2029,
      "duration": 0.0832,
      "velocity": 127,
      "chip": "ym2612"
    },
    {
      "channel": 2,
      "note": 30,
      "start": 208.2047,
      "duration": 0.0817,
      "velocity": 127,
      "chip": "ym2612"
    },
    {
      "channel": 1,
      "note": 68,
      "start": 208.3027,
      "duration": 0.0834,
      "velocity": 127,
      "chip": "ym2612"
    },
    {
      "channel": 2,
      "note": 76,
      "start": 208.3029,
      "duration": 0.0834,
      "velocity": 127,
      "chip": "ym2612"
    },
    {
      "channel": 0,
      "note": 47,
      "start": 208.4028,
      "duration": 0.3817,
      "velocity": 127,
      "chip": "ym2612"
    },
    {
      "channel": 1,
      "note": 68,
      "start": 208.4031,
      "duration": 0.1815,
      "velocity": 127,
      "chip": "ym2612"
    },
    {
      "channel": 2,
      "note": 76,
      "start": 208.4048,
      "duration": 0.1801,
      "velocity": 127,
      "chip": "ym2612"
    },
    {
      "channel": 1,
      "note": 66,
      "start": 208.6015,
      "duration": 0.0831,
      "velocity": 127,
      "chip": "ym2612"
    },
    {
      "channel": 2,
      "note": 42,
      "start": 208.6032,
      "duration": 0.0817,
      "velocity": 127,
      "chip": "ym2612"
    },
    {
      "channel": 1,
      "note": 56,
      "start": 208.7014,
      "duration": 0.0834,
      "velocity": 127,
      "chip": "ym2612"
    },
    {
      "channel": 2,
      "note": 76,
      "start": 208.7016,
      "duration": 0.0834,
      "velocity": 127,
      "chip": "ym2612"
    },
    {
      "channel": 1,
      "note": 56,
      "start": 208.8015,
      "duration": 0.0824,
      "velocity": 127,
      "chip": "ym2612"
    },
    {
      "channel": 2,
      "note": 76,
      "start": 208.8032,
      "duration": 0.1809,
      "velocity": 127,
      "chip": "ym2612"
    },
    {
      "channel": 1,
      "note": 56,
      "start": 208.9006,
      "duration": 0.1833,
      "velocity": 127,
      "chip": "ym2612"
    },
    {
      "channel": 2,
      "note": 30,
      "start": 209.0022,
      "duration": 0.0818,
      "velocity": 127,
      "chip": "ym2612"
    },
    {
      "channel": 1,
      "note": 66,
      "start": 209.1007,
      "duration": 0.0833,
      "velocity": 127,
      "chip": "ym2612"
    },
    {
      "channel": 2,
      "note": 76,
      "start": 209.101,
      "duration": 0.0832,
      "velocity": 127,
      "chip": "ym2612"
    },
    {
      "channel": 0,
      "note": 44,
      "start": 209.2006,
      "duration": 0.3839,
      "velocity": 127,
      "chip": "ym2612"
    },
    {
      "channel": 1,
      "note": 68,
      "start": 209.2009,
      "duration": 0.0831,
      "velocity": 127,
      "chip": "ym2612"
    },
    {
      "channel": 2,
      "note": 76,
      "start": 209.2025,
      "duration": 0.1824,
      "velocity": 127,
      "chip": "ym2612"
    },
    {
      "channel": 1,
      "note": 56,
      "start": 209.3007,
      "duration": 0.0841,
      "velocity": 127,
      "chip": "ym2612"
    },
    {
      "channel": 1,
      "note": 68,
      "start": 209.4015,
      "duration": 0.0831,
      "velocity": 127,
      "chip": "ym2612"
    },
    {
      "channel": 2,
      "note": 30,
      "start": 209.4032,
      "duration": 0.0817,
      "velocity": 127,
      "chip": "ym2612"
    },
    {
      "channel": 1,
      "note": 56,
      "start": 209.5014,
      "duration": 0.0834,
      "velocity": 127,
      "chip": "ym2612"
    },
    {
      "channel": 2,
      "note": 76,
      "start": 209.5016,
      "duration": 0.0833,
      "velocity": 127,
      "chip": "ym2612"
    },
    {
      "channel": 1,
      "note": 68,
      "start": 209.6014,
      "duration": 0.0833,
      "velocity": 127,
      "chip": "ym2612"
    },
    {
      "channel": 2,
      "note": 76,
      "start": 209.6032,
      "duration": 0.1817,
      "velocity": 127,
      "chip": "ym2612"
    },
    {
      "channel": 1,
      "note": 68,
      "start": 209.7014,
      "duration": 0.0833,
      "velocity": 127,
      "chip": "ym2612"
    },
    {
      "channel": 1,
      "note": 68,
      "start": 209.8015,
      "duration": 0.1833,
      "velocity": 127,
      "chip": "ym2612"
    },
    {
      "channel": 2,
      "note": 30,
      "start": 209.8032,
      "duration": 0.0817,
      "velocity": 127,
      "chip": "ym2612"
    },
    {
      "channel": 0,
      "note": 47,
      "start": 209.9014,
      "duration": 0.0832,
      "velocity": 127,
      "chip": "ym2612"
    },
    {
      "channel": 2,
      "note": 76,
      "start": 209.9018,
      "duration": 0.0832,
      "velocity": 127,
      "chip": "ym2612"
    },
    {
      "channel": 0,
      "note": 28,
      "start": 210.0015,
      "duration": 0.383,
      "velocity": 127,
      "chip": "ym2612"
    },
    {
      "channel": 1,
      "note": 54,
      "start": 210.0017,
      "duration": 0.1829,
      "velocity": 127,
      "chip": "ym2612"
    },
    {
      "channel": 2,
      "note": 76,
      "start": 210.0035,
      "duration": 0.1814,
      "velocity": 127,
      "chip": "ym2612"
    },
    {
      "channel": 1,
      "note": 66,
      "start": 210.2014,
      "duration": 0.0833,
      "velocity": 127,
      "chip": "ym2612"
    },
    {
      "channel": 2,
      "note": 42,
      "start": 210.2017,
      "duration": 0.1833,
      "velocity": 127,
      "chip": "ym2612"
    },
    {
      "channel": 1,
      "note": 56,
      "start": 210.3014,
      "duration": 0.0833,
      "velocity": 127,
      "chip": "ym2612"
    },
    {
      "channel": 1,
      "note": 56,
      "start": 210.4014,
      "duration": 0.0833,
      "velocity": 127,
      "chip": "ym2612"
    },
    {
      "channel": 2,
      "note": 42,
      "start": 210.4032,
      "duration": 0.1817,
      "velocity": 127,
      "chip": "ym2612"
    },
    {
      "channel": 1,
      "note": 68,
      "start": 210.5014,
      "duration": 0.0833,
      "velocity": 127,
      "chip": "ym2612"
    },
    {
      "channel": 1,
      "note": 68,
      "start": 210.6015,
      "duration": 0.0832,
      "velocity": 127,
      "chip": "ym2612"
    },
    {
      "channel": 2,
      "note": 30,
      "start": 210.6032,
      "duration": 0.0817,
      "velocity": 127,
      "chip": "ym2612"
    },
    {
      "channel": 0,
      "note": 47,
      "start": 210.7013,
      "duration": 0.0833,
      "velocity": 127,
      "chip": "ym2612"
    },
    {
      "channel": 1,
      "note": 56,
      "start": 210.7015,
      "duration": 0.0833,
      "velocity": 127,
      "chip": "ym2612"
    },
    {
      "channel": 2,
      "note": 76,
      "start": 210.7018,
      "duration": 0.0832,
      "velocity": 127,
      "chip": "ym2612"
    },
    {
      "channel": 0,
      "note": 28,
      "start": 210.8014,
      "duration": 0.0832,
      "velocity": 127,
      "chip": "ym2612"
    },
    {
      "channel": 1,
      "note": 68,
      "start": 210.8016,
      "duration": 0.0831,
      "velocity": 127,
      "chip": "ym2612"
    },
    {
      "channel": 2,
      "note": 76,
      "start": 210.8033,
      "duration": 0.1817,
      "velocity": 127,
      "chip": "ym2612"
    },
    {
      "channel": 0,
      "note": 40,
      "start": 210.9012,
      "duration": 0.0834,
      "velocity": 127,
      "chip": "ym2612"
    },
    {
      "channel": 1,
      "note": 56,
      "start": 210.9015,
      "duration": 0.0833,
      "velocity": 127,
      "chip": "ym2612"
    },
    {
      "channel": 0,
      "note": 28,
      "start": 211.0014,
      "duration": 0.0831,
      "velocity": 127,
      "chip": "ym2612"
    },
    {
      "channel": 1,
      "note": 56,
      "start": 211.0017,
      "duration": 0.083,
      "velocity": 127,
      "chip": "ym2612"
    },
    {
      "channel": 2,
      "note": 42,
      "start": 211.0033,
      "duration": 0.0816,
      "velocity": 127,
      "chip": "ym2612"
    },
    {
      "channel": 0,
      "note": 28,
      "start": 211.1013,
      "duration": 0.0833,
      "velocity": 127,
      "chip": "ym2612"
    },
    {
      "channel": 1,
      "note": 68,
      "start": 211.1015,
      "duration": 0.0833,
      "velocity": 127,
      "chip": "ym2612"
    },
    {
      "channel": 2,
      "note": 76,
      "start": 211.1018,
      "duration": 0.0832,
      "velocity": 127,
      "chip": "ym2612"
    },
    {
      "channel": 1,
      "note": 68,
      "start": 211.2045,
      "duration": 0.1802,
      "velocity": 127,
      "chip": "ym2612"
    },
    {
      "channel": 2,
      "note": 76,
      "start": 211.2062,
      "duration": 0.1787,
      "velocity": 127,
      "chip": "ym2612"
    },
    {
      "channel": 1,
      "note": 54,
      "start": 211.4015,
      "duration": 0.0832,
      "velocity": 127,
      "chip": "ym2612"
    },
    {
      "channel": 2,
      "note": 30,
      "start": 211.4033,
      "duration": 0.0817,
      "velocity": 127,
      "chip": "ym2612"
    },
    {
      "channel": 1,
      "note": 68,
      "start": 211.5015,
      "duration": 0.0832,
      "velocity": 127,
      "chip": "ym2612"
    },
    {
      "channel": 2,
      "note": 76,
      "start": 211.5017,
      "duration": 0.0832,
      "velocity": 127,
      "chip": "ym2612"
    },
    {
      "channel": 0,
      "note": 18,
      "start": 211.6014,
      "duration": 0.3831,
      "velocity": 127,
      "chip": "ym2612"
    },
    {
      "channel": 1,
      "note": 68,
      "start": 211.6017,
      "duration": 0.1831,
      "velocity": 127,
      "chip": "ym2612"
    },
    {
      "channel": 2,
      "note": 76,
      "start": 211.6034,
      "duration": 0.1815,
      "velocity": 127,
      "chip": "ym2612"
    },
    {
      "channel": 1,
      "note": 66,
      "start": 211.8016,
      "duration": 0.0832,
      "velocity": 127,
      "chip": "ym2612"
    },
    {
      "channel": 2,
      "note": 42,
      "start": 211.8033,
      "duration": 0.0816,
      "velocity": 127,
      "chip": "ym2612"
    },
    {
      "channel": 1,
      "note": 56,
      "start": 211.9015,
      "duration": 0.0833,
      "velocity": 127,
      "chip": "ym2612"
    },
    {
      "channel": 2,
      "note": 76,
      "start": 211.9017,
      "duration": 0.0832,
      "velocity": 127,
      "chip": "ym2612"
    },
    {
      "channel": 1,
      "note": 56,
      "start": 212.0015,
      "duration": 0.0832,
      "velocity": 127,
      "chip": "ym2612"
    },
    {
      "channel": 2,
      "note": 76,
      "start": 212.0033,
      "duration": 0.1816,
      "velocity": 127,
      "chip": "ym2612"
    },
    {
      "channel": 1,
      "note": 56,
      "start": 212.1014,
      "duration": 0.1833,
      "velocity": 127,
      "chip": "ym2612"
    },
    {
      "channel": 2,
      "note": 30,
      "start": 212.2031,
      "duration": 0.0818,
      "velocity": 127,
      "chip": "ym2612"
    },
    {
      "channel": 1,
      "note": 66,
      "start": 212.3014,
      "duration": 0.0833,
      "velocity": 127,
      "chip": "ym2612"
    },
    {
      "channel": 2,
      "note": 76,
      "start": 212.3017,
      "duration": 0.0833,
      "velocity": 127,
      "chip": "ym2612"
    },
    {
      "channel": 0,
      "note": 44,
      "start": 212.4014,
      "duration": 0.3833,
      "velocity": 127,
      "chip": "ym2612"
    },
    {
      "channel": 1,
      "note": 68,
      "start": 212.4016,
      "duration": 0.083,
      "velocity": 127,
      "chip": "ym2612"
    },
    {
      "channel": 2,
      "note": 76,
      "start": 212.4033,
      "duration": 0.1815,
      "velocity": 127,
      "chip": "ym2612"
    },
    {
      "channel": 1,
      "note": 56,
      "start": 212.5014,
      "duration": 0.0833,
      "velocity": 127,
      "chip": "ym2612"
    },
    {
      "channel": 1,
      "note": 68,
      "start": 212.6014,
      "duration": 0.0833,
      "velocity": 127,
      "chip": "ym2612"
    },
    {
      "channel": 2,
      "note": 30,
      "start": 212.6032,
      "duration": 0.0817,
      "velocity": 127,
      "chip": "ym2612"
    },
    {
      "channel": 1,
      "note": 56,
      "start": 212.7014,
      "duration": 0.0834,
      "velocity": 127,
      "chip": "ym2612"
    },
    {
      "channel": 2,
      "note": 76,
      "start": 212.7017,
      "duration": 0.0833,
      "velocity": 127,
      "chip": "ym2612"
    },
    {
      "channel": 1,
      "note": 68,
      "start": 212.8015,
      "duration": 0.0825,
      "velocity": 127,
      "chip": "ym2612"
    },
    {
      "channel": 2,
      "note": 76,
      "start": 212.8032,
      "duration": 0.1809,
      "velocity": 127,
      "chip": "ym2612"
    },
    {
      "channel": 1,
      "note": 68,
      "start": 212.9007,
      "duration": 0.0833,
      "velocity": 127,
      "chip": "ym2612"
    },
    {
      "channel": 1,
      "note": 68,
      "start": 213.0008,
      "duration": 0.1833,
      "velocity": 127,
      "chip": "ym2612"
    },
    {
      "channel": 2,
      "note": 30,
      "start": 213.0025,
      "duration": 0.0817,
      "velocity": 127,
      "chip": "ym2612"
    },
    {
      "channel": 0,
      "note": 47,
      "start": 213.1005,
      "duration": 0.0833,
      "velocity": 127,
      "chip": "ym2612"
    },
    {
      "channel": 2,
      "note": 76,
      "start": 213.1009,
      "duration": 0.0833,
      "velocity": 127,
      "chip": "ym2612"
    },
    {
      "channel": 0,
      "note": 28,
      "start": 213.2007,
      "duration": 0.3839,
      "velocity": 127,
      "chip": "ym2612"
    },
    {
      "channel": 1,
      "note": 54,
      "start": 213.2009,
      "duration": 0.1839,
      "velocity": 127,
      "chip": "ym2612"
    },
    {
      "channel": 2,
      "note": 76,
      "start": 213.2026,
      "duration": 0.1824,
      "velocity": 127,
      "chip": "ym2612"
    },
    {
      "channel": 1,
      "note": 66,
      "start": 213.4015,
      "duration": 0.0832,
      "velocity": 127,
      "chip": "ym2612"
    },
    {
      "channel": 2,
      "note": 42,
      "start": 213.4017,
      "duration": 0.1832,
      "velocity": 127,
      "chip": "ym2612"
    },
    {
      "channel": 1,
      "note": 56,
      "start": 213.5014,
      "duration": 0.0833,
      "velocity": 127,
      "chip": "ym2612"
    },
    {
      "channel": 1,
      "note": 56,
      "start": 213.6015,
      "duration": 0.0832,
      "velocity": 127,
      "chip": "ym2612"
    },
    {
      "channel": 2,
      "note": 42,
      "start": 213.6032,
      "duration": 0.1816,
      "velocity": 127,
      "chip": "ym2612"
    },
    {
      "channel": 1,
      "note": 68,
      "start": 213.7014,
      "duration": 0.0833,
      "velocity": 127,
      "chip": "ym2612"
    },
    {
      "channel": 1,
      "note": 68,
      "start": 213.8015,
      "duration": 0.0832,
      "velocity": 127,
      "chip": "ym2612"
    },
    {
      "channel": 2,
      "note": 30,
      "start": 213.8032,
      "duration": 0.0817,
      "velocity": 127,
      "chip": "ym2612"
    },
    {
      "channel": 0,
      "note": 47,
      "start": 213.9013,
      "duration": 0.0833,
      "velocity": 127,
      "chip": "ym2612"
    },
    {
      "channel": 1,
      "note": 56,
      "start": 213.9015,
      "duration": 0.0832,
      "velocity": 127,
      "chip": "ym2612"
    },
    {
      "channel": 2,
      "note": 76,
      "start": 213.9018,
      "duration": 0.0832,
      "velocity": 127,
      "chip": "ym2612"
    },
    {
      "channel": 0,
      "note": 28,
      "start": 214.0014,
      "duration": 0.0832,
      "velocity": 127,
      "chip": "ym2612"
    },
    {
      "channel": 1,
      "note": 68,
      "start": 214.0016,
      "duration": 0.0832,
      "velocity": 127,
      "chip": "ym2612"
    },
    {
      "channel": 2,
      "note": 76,
      "start": 214.0033,
      "duration": 0.1817,
      "velocity": 127,
      "chip": "ym2612"
    },
    {
      "channel": 0,
      "note": 40,
      "start": 214.1012,
      "duration": 0.0834,
      "velocity": 127,
      "chip": "ym2612"
    },
    {
      "channel": 1,
      "note": 56,
      "start": 214.1014,
      "duration": 0.0833,
      "velocity": 127,
      "chip": "ym2612"
    },
    {
      "channel": 0,
      "note": 28,
      "start": 214.2014,
      "duration": 0.0831,
      "velocity": 127,
      "chip": "ym2612"
    },
    {
      "channel": 1,
      "note": 56,
      "start": 214.2016,
      "duration": 0.0831,
      "velocity": 127,
      "chip": "ym2612"
    },
    {
      "channel": 2,
      "note": 42,
      "start": 214.2033,
      "duration": 0.0815,
      "velocity": 127,
      "chip": "ym2612"
    },
    {
      "channel": 0,
      "note": 28,
      "start": 214.3012,
      "duration": 0.0833,
      "velocity": 127,
      "chip": "ym2612"
    },
    {
      "channel": 1,
      "note": 68,
      "start": 214.3015,
      "duration": 0.0833,
      "velocity": 127,
      "chip": "ym2612"
    },
    {
      "channel": 2,
      "note": 76,
      "start": 214.3017,
      "duration": 0.0833,
      "velocity": 127,
      "chip": "ym2612"
    },
    {
      "channel": 1,
      "note": 68,
      "start": 214.4046,
      "duration": 0.1801,
      "velocity": 127,
      "chip": "ym2612"
    },
    {
      "channel": 2,
      "note": 76,
      "start": 214.4063,
      "duration": 0.1785,
      "velocity": 127,
      "chip": "ym2612"
    },
    {
      "channel": 1,
      "note": 54,
      "start": 214.6015,
      "duration": 0.0832,
      "velocity": 127,
      "chip": "ym2612"
    },
    {
      "channel": 2,
      "note": 30,
      "start": 214.6033,
      "duration": 0.0817,
      "velocity": 127,
      "chip": "ym2612"
    },
    {
      "channel": 1,
      "note": 68,
      "start": 214.7014,
      "duration": 0.0834,
      "velocity": 127,
      "chip": "ym2612"
    },
    {
      "channel": 2,
      "note": 76,
      "start": 214.7017,
      "duration": 0.0834,
      "velocity": 127,
      "chip": "ym2612"
    },
    {
      "channel": 0,
      "note": 18,
      "start": 214.8014,
      "duration": 0.3831,
      "velocity": 127,
      "chip": "ym2612"
    },
    {
      "channel": 1,
      "note": 68,
      "start": 214.8017,
      "duration": 0.1831,
      "velocity": 127,
      "chip": "ym2612"
    },
    {
      "channel": 2,
      "note": 76,
      "start": 214.8034,
      "duration": 0.1815,
      "velocity": 127,
      "chip": "ym2612"
    },
    {
      "channel": 1,
      "note": 66,
      "start": 215.0015,
      "duration": 0.0831,
      "velocity": 127,
      "chip": "ym2612"
    },
    {
      "channel": 2,
      "note": 42,
      "start": 215.0032,
      "duration": 0.0817,
      "velocity": 127,
      "chip": "ym2612"
    },
    {
      "channel": 1,
      "note": 56,
      "start": 215.1014,
      "duration": 0.0834,
      "velocity": 127,
      "chip": "ym2612"
    },
    {
      "channel": 2,
      "note": 76,
      "start": 215.1016,
      "duration": 0.0833,
      "velocity": 127,
      "chip": "ym2612"
    },
    {
      "channel": 1,
      "note": 56,
      "start": 215.2014,
      "duration": 0.0833,
      "velocity": 127,
      "chip": "ym2612"
    },
    {
      "channel": 2,
      "note": 76,
      "start": 215.2032,
      "duration": 0.1817,
      "velocity": 127,
      "chip": "ym2612"
    },
    {
      "channel": 1,
      "note": 56,
      "start": 215.3014,
      "duration": 0.1832,
      "velocity": 127,
      "chip": "ym2612"
    },
    {
      "channel": 2,
      "note": 30,
      "start": 215.4031,
      "duration": 0.0818,
      "velocity": 127,
      "chip": "ym2612"
    },
    {
      "channel": 1,
      "note": 66,
      "start": 215.5015,
      "duration": 0.0832,
      "velocity": 127,
      "chip": "ym2612"
    },
    {
      "channel": 2,
      "note": 76,
      "start": 215.5018,
      "duration": 0.0832,
      "velocity": 127,
      "chip": "ym2612"
    },
    {
      "channel": 0,
      "note": 44,
      "start": 215.6015,
      "duration": 0.3831,
      "velocity": 127,
      "chip": "ym2612"
    },
    {
      "channel": 1,
      "note": 68,
      "start": 215.6017,
      "duration": 0.083,
      "velocity": 127,
      "chip": "ym2612"
    },
    {
      "channel": 2,
      "note": 76,
      "start": 215.6035,
      "duration": 0.1814,
      "velocity": 127,
      "chip": "ym2612"
    },
    {
      "channel": 1,
      "note": 56,
      "start": 215.7014,
      "duration": 0.0833,
      "velocity": 127,
      "chip": "ym2612"
    },
    {
      "channel": 1,
      "note": 68,
      "start": 215.8015,
      "duration": 0.0832,
      "velocity": 127,
      "chip": "ym2612"
    },
    {
      "channel": 2,
      "note": 30,
      "start": 215.8033,
      "duration": 0.0816,
      "velocity": 127,
      "chip": "ym2612"
    },
    {
      "channel": 1,
      "note": 56,
      "start": 215.9014,
      "duration": 0.0834,
      "velocity": 127,
      "chip": "ym2612"
    },
    {
      "channel": 2,
      "note": 76,
      "start": 215.9017,
      "duration": 0.0833,
      "velocity": 127,
      "chip": "ym2612"
    },
    {
      "channel": 1,
      "note": 68,
      "start": 216.0015,
      "duration": 0.0831,
      "velocity": 127,
      "chip": "ym2612"
    },
    {
      "channel": 2,
      "note": 76,
      "start": 216.0032,
      "duration": 0.1817,
      "velocity": 127,
      "chip": "ym2612"
    },
    {
      "channel": 1,
      "note": 68,
      "start": 216.1013,
      "duration": 0.0835,
      "velocity": 127,
      "chip": "ym2612"
    },
    {
      "channel": 1,
      "note": 68,
      "start": 216.2015,
      "duration": 0.1833,
      "velocity": 127,
      "chip": "ym2612"
    },
    {
      "channel": 2,
      "note": 30,
      "start": 216.2032,
      "duration": 0.0817,
      "velocity": 127,
      "chip": "ym2612"
    },
    {
      "channel": 0,
      "note": 47,
      "start": 216.3014,
      "duration": 0.0832,
      "velocity": 127,
      "chip": "ym2612"
    },
    {
      "channel": 2,
      "note": 76,
      "start": 216.3017,
      "duration": 0.0833,
      "velocity": 127,
      "chip": "ym2612"
    },
    {
      "channel": 0,
      "note": 28,
      "start": 216.4014,
      "duration": 0.3832,
      "velocity": 127,
      "chip": "ym2612"
    },
    {
      "channel": 1,
      "note": 54,
      "start": 216.4016,
      "duration": 0.1831,
      "velocity": 127,
      "chip": "ym2612"
    },
    {
      "channel": 2,
      "note": 76,
      "start": 216.4033,
      "duration": 0.1815,
      "velocity": 127,
      "chip": "ym2612"
    },
    {
      "channel": 1,
      "note": 66,
      "start": 216.6015,
      "duration": 0.0832,
      "velocity": 127,
      "chip": "ym2612"
    },
    {
      "channel": 2,
      "note": 42,
      "start": 216.6018,
      "duration": 0.1831,
      "velocity": 127,
      "chip": "ym2612"
    },
    {
      "channel": 1,
      "note": 56,
      "start": 216.7014,
      "duration": 0.0833,
      "velocity": 127,
      "chip": "ym2612"
    },
    {
      "channel": 1,
      "note": 56,
      "start": 216.8015,
      "duration": 0.0823,
      "velocity": 127,
      "chip": "ym2612"
    },
    {
      "channel": 2,
      "note": 42,
      "start": 216.8033,
      "duration": 0.1809,
      "velocity": 127,
      "chip": "ym2612"
    },
    {
      "channel": 1,
      "note": 68,
      "start": 216.9007,
      "duration": 0.0833,
      "velocity": 127,
      "chip": "ym2612"
    },
    {
      "channel": 1,
      "note": 68,
      "start": 217.0007,
      "duration": 0.0833,
      "velocity": 127,
      "chip": "ym2612"
    },
    {
      "channel": 2,
      "note": 30,
      "start": 217.0024,
      "duration": 0.0819,
      "velocity": 127,
      "chip": "ym2612"
    },
    {
      "channel": 0,
      "note": 47,
      "start": 217.1006,
      "duration": 0.0832,
      "velocity": 127,
      "chip": "ym2612"
    },
    {
      "channel": 1,
      "note": 56,
      "start": 217.1009,
      "duration": 0.0831,
      "velocity": 127,
      "chip": "ym2612"
    },
    {
      "channel": 2,
      "note": 76,
      "start": 217.1011,
      "duration": 0.0831,
      "velocity": 127,
      "chip": "ym2612"
    },
    {
      "channel": 0,
      "note": 28,
      "start": 217.2007,
      "duration": 0.0831,
      "velocity": 127,
      "chip": "ym2612"
    },
    {
      "channel": 1,
      "note": 68,
      "start": 217.2009,
      "duration": 0.0831,
      "velocity": 127,
      "chip": "ym2612"
    },
    {
      "channel": 2,
      "note": 76,
      "start": 217.2026,
      "duration": 0.1842,
      "velocity": 127,
      "chip": "ym2612"
    },
    {
      "channel": 0,
      "note": 40,
      "start": 217.3005,
      "duration": 0.0858,
      "velocity": 127,
      "chip": "ym2612"
    },
    {
      "channel": 1,
      "note": 56,
      "start": 217.3008,
      "duration": 0.0857,
      "velocity": 127,
      "chip": "ym2612"
    },
    {
      "channel": 0,
      "note": 28,
      "start": 217.4032,
      "duration": 0.0819,
      "velocity": 127,
      "chip": "ym2612"
    },
    {
      "channel": 1,
      "note": 56,
      "start": 217.4034,
      "duration": 0.0818,
      "velocity": 127,
      "chip": "ym2612"
    },
    {
      "channel": 2,
      "note": 42,
      "start": 217.4051,
      "duration": 0.0803,
      "velocity": 127,
      "chip": "ym2612"
    },
    {
      "channel": 0,
      "note": 28,
      "start": 217.5017,
      "duration": 0.0833,
      "velocity": 127,
      "chip": "ym2612"
    },
    {
      "channel": 1,
      "note": 68,
      "start": 217.5019,
      "duration": 0.0832,
      "velocity": 127,
      "chip": "ym2612"
    },
    {
      "channel": 2,
      "note": 76,
      "start": 217.5022,
      "duration": 0.0832,
      "velocity": 127,
      "chip": "ym2612"
    },
    {
      "channel": 1,
      "note": 68,
      "start": 217.605,
      "duration": 0.1801,
      "velocity": 127,
      "chip": "ym2612"
    },
    {
      "channel": 2,
      "note": 76,
      "start": 217.6067,
      "duration": 0.1786,
      "velocity": 127,
      "chip": "ym2612"
    },
    {
      "channel": 1,
      "note": 54,
      "start": 217.8019,
      "duration": 0.0832,
      "velocity": 127,
      "chip": "ym2612"
    },
    {
      "channel": 2,
      "note": 30,
      "start": 217.8037,
      "duration": 0.0817,
      "velocity": 127,
      "chip": "ym2612"
    },
    {
      "channel": 1,
      "note": 68,
      "start": 217.9018,
      "duration": 0.0834,
      "velocity": 127,
      "chip": "ym2612"
    },
    {
      "channel": 2,
      "note": 76,
      "start": 217.9021,
      "duration": 0.0834,
      "velocity": 127,
      "chip": "ym2612"
    },
    {
      "channel": 0,
      "note": 18,
      "start": 218.0018,
      "duration": 0.3845,
      "velocity": 127,
      "chip": "ym2612"
    },
    {
      "channel": 1,
      "note": 68,
      "start": 218.0021,
      "duration": 0.1844,
      "velocity": 127,
      "chip": "ym2612"
    },
    {
      "channel": 2,
      "note": 76,
      "start": 218.0038,
      "duration": 0.1829,
      "velocity": 127,
      "chip": "ym2612"
    },
    {
      "channel": 1,
      "note": 66,
      "start": 218.2033,
      "duration": 0.0832,
      "velocity": 127,
      "chip": "ym2612"
    },
    {
      "channel": 2,
      "note": 42,
      "start": 218.2051,
      "duration": 0.0816,
      "velocity": 127,
      "chip": "ym2612"
    },
    {
      "channel": 1,
      "note": 56,
      "start": 218.3032,
      "duration": 0.0833,
      "velocity": 127,
      "chip": "ym2612"
    },
    {
      "channel": 2,
      "note": 76,
      "start": 218.3035,
      "duration": 0.0833,
      "velocity": 127,
      "chip": "ym2612"
    },
    {
      "channel": 1,
      "note": 56,
      "start": 218.4034,
      "duration": 0.0831,
      "velocity": 127,
      "chip": "ym2612"
    },
    {
      "channel": 2,
      "note": 76,
      "start": 218.4051,
      "duration": 0.1802,
      "velocity": 127,
      "chip": "ym2612"
    },
    {
      "channel": 1,
      "note": 56,
      "start": 218.5032,
      "duration": 0.1819,
      "velocity": 127,
      "chip": "ym2612"
    },
    {
      "channel": 2,
      "note": 30,
      "start": 218.6035,
      "duration": 0.0817,
      "velocity": 127,
      "chip": "ym2612"
    },
    {
      "channel": 1,
      "note": 66,
      "start": 218.7019,
      "duration": 0.0833,
      "velocity": 127,
      "chip": "ym2612"
    },
    {
      "channel": 2,
      "note": 76,
      "start": 218.7022,
      "duration": 0.0832,
      "velocity": 127,
      "chip": "ym2612"
    },
    {
      "channel": 0,
      "note": 44,
      "start": 218.8018,
      "duration": 0.3846,
      "velocity": 127,
      "chip": "ym2612"
    },
    {
      "channel": 1,
      "note": 68,
      "start": 218.8021,
      "duration": 0.083,
      "velocity": 127,
      "chip": "ym2612"
    },
    {
      "channel": 2,
      "note": 76,
      "start": 218.8037,
      "duration": 0.1816,
      "velocity": 127,
      "chip": "ym2612"
    },
    {
      "channel": 1,
      "note": 56,
      "start": 218.9019,
      "duration": 0.0833,
      "velocity": 127,
      "chip": "ym2612"
    },
    {
      "channel": 1,
      "note": 68,
      "start": 219.0019,
      "duration": 0.0846,
      "velocity": 127,
      "chip": "ym2612"
    },
    {
      "channel": 2,
      "note": 30,
      "start": 219.0036,
      "duration": 0.0832,
      "velocity": 127,
      "chip": "ym2612"
    },
    {
      "channel": 1,
      "note": 56,
      "start": 219.1033,
      "duration": 0.0833,
      "velocity": 127,
      "chip": "ym2612"
    },
    {
      "channel": 2,
      "note": 76,
      "start": 219.1035,
      "duration": 0.0833,
      "velocity": 127,
      "chip": "ym2612"
    },
    {
      "channel": 1,
      "note": 68,
      "start": 219.2033,
      "duration": 0.0831,
      "velocity": 127,
      "chip": "ym2612"
    },
    {
      "channel": 2,
      "note": 76,
      "start": 219.205,
      "duration": 0.1817,
      "velocity": 127,
      "chip": "ym2612"
    },
    {
      "channel": 1,
      "note": 68,
      "start": 219.3033,
      "duration": 0.0833,
      "velocity": 127,
      "chip": "ym2612"
    },
    {
      "channel": 1,
      "note": 68,
      "start": 219.4034,
      "duration": 0.1831,
      "velocity": 127,
      "chip": "ym2612"
    },
    {
      "channel": 2,
      "note": 30,
      "start": 219.4051,
      "duration": 0.0817,
      "velocity": 127,
      "chip": "ym2612"
    },
    {
      "channel": 0,
      "note": 47,
      "start": 219.5032,
      "duration": 0.0832,
      "velocity": 127,
      "chip": "ym2612"
    },
    {
      "channel": 2,
      "note": 76,
      "start": 219.5035,
      "duration": 0.0832,
      "velocity": 127,
      "chip": "ym2612"
    },
    {
      "channel": 0,
      "note": 28,
      "start": 219.6033,
      "duration": 0.3817,
      "velocity": 127,
      "chip": "ym2612"
    },
    {
      "channel": 1,
      "note": 54,
      "start": 219.6035,
      "duration": 0.1816,
      "velocity": 127,
      "chip": "ym2612"
    },
    {
      "channel": 2,
      "note": 76,
      "start": 219.6052,
      "duration": 0.1801,
      "velocity": 127,
      "chip": "ym2612"
    },
    {
      "channel": 1,
      "note": 66,
      "start": 219.8019,
      "duration": 0.0832,
      "velocity": 127,
      "chip": "ym2612"
    },
    {
      "channel": 2,
      "note": 42,
      "start": 219.8022,
      "duration": 0.1831,
      "velocity": 127,
      "chip": "ym2612"
    },
    {
      "channel": 1,
      "note": 56,
      "start": 219.9018,
      "duration": 0.0833,
      "velocity": 127,
      "chip": "ym2612"
    },
    {
      "channel": 1,
      "note": 56,
      "start": 220.0019,
      "duration": 0.0832,
      "velocity": 127,
      "chip": "ym2612"
    },
    {
      "channel": 2,
      "note": 42,
      "start": 220.0037,
      "duration": 0.1831,
      "velocity": 127,
      "chip": "ym2612"
    },
    {
      "channel": 1,
      "note": 68,
      "start": 220.1017,
      "duration": 0.0848,
      "velocity": 127,
      "chip": "ym2612"
    },
    {
      "channel": 1,
      "note": 68,
      "start": 220.2033,
      "duration": 0.0833,
      "velocity": 127,
      "chip": "ym2612"
    },
    {
      "channel": 2,
      "note": 30,
      "start": 220.2049,
      "duration": 0.0819,
      "velocity": 127,
      "chip": "ym2612"
    },
    {
      "channel": 0,
      "note": 47,
      "start": 220.3032,
      "duration": 0.0832,
      "velocity": 127,
      "chip": "ym2612"
    },
    {
      "channel": 1,
      "note": 56,
      "start": 220.3034,
      "duration": 0.0831,
      "velocity": 127,
      "chip": "ym2612"
    },
    {
      "channel": 2,
      "note": 76,
      "start": 220.3037,
      "duration": 0.0831,
      "velocity": 127,
      "chip": "ym2612"
    },
    {
      "channel": 0,
      "note": 28,
      "start": 220.4033,
      "duration": 0.0831,
      "velocity": 127,
      "chip": "ym2612"
    },
    {
      "channel": 1,
      "note": 68,
      "start": 220.4035,
      "duration": 0.083,
      "velocity": 127,
      "chip": "ym2612"
    },
    {
      "channel": 2,
      "note": 76,
      "start": 220.4052,
      "duration": 0.1816,
      "velocity": 127,
      "chip": "ym2612"
    },
    {
      "channel": 0,
      "note": 40,
      "start": 220.5031,
      "duration": 0.0833,
      "velocity": 127,
      "chip": "ym2612"
    },
    {
      "channel": 1,
      "note": 56,
      "start": 220.5033,
      "duration": 0.0832,
      "velocity": 127,
      "chip": "ym2612"
    },
    {
      "channel": 0,
      "note": 28,
      "start": 220.6032,
      "duration": 0.0819,
      "velocity": 127,
      "chip": "ym2612"
    },
    {
      "channel": 1,
      "note": 56,
      "start": 220.6034,
      "duration": 0.0818,
      "velocity": 127,
      "chip": "ym2612"
    },
    {
      "channel": 2,
      "note": 42,
      "start": 220.6051,
      "duration": 0.0803,
      "velocity": 127,
      "chip": "ym2612"
    },
    {
      "channel": 0,
      "note": 28,
      "start": 220.7017,
      "duration": 0.0833,
      "velocity": 127,
      "chip": "ym2612"
    },
    {
      "channel": 1,
      "note": 68,
      "start": 220.7019,
      "duration": 0.0832,
      "velocity": 127,
      "chip": "ym2612"
    },
    {
      "channel": 2,
      "note": 76,
      "start": 220.7022,
      "duration": 0.0832,
      "velocity": 127,
      "chip": "ym2612"
    },
    {
      "channel": 1,
      "note": 68,
      "start": 220.805,
      "duration": 0.179,
      "velocity": 127,
      "chip": "ym2612"
    },
    {
      "channel": 2,
      "note": 76,
      "start": 220.8067,
      "duration": 0.1775,
      "velocity": 127,
      "chip": "ym2612"
    },
    {
      "channel": 1,
      "note": 54,
      "start": 221.0009,
      "duration": 0.083,
      "velocity": 127,
      "chip": "ym2612"
    },
    {
      "channel": 2,
      "note": 30,
      "start": 221.0026,
      "duration": 0.0815,
      "velocity": 127,
      "chip": "ym2612"
    },
    {
      "channel": 1,
      "note": 68,
      "start": 221.1006,
      "duration": 0.0834,
      "velocity": 127,
      "chip": "ym2612"
    },
    {
      "channel": 2,
      "note": 76,
      "start": 221.1009,
      "duration": 0.0833,
      "velocity": 127,
      "chip": "ym2612"
    },
    {
      "channel": 0,
      "note": 18,
      "start": 221.2007,
      "duration": 0.3838,
      "velocity": 127,
      "chip": "ym2612"
    },
    {
      "channel": 1,
      "note": 68,
      "start": 221.201,
      "duration": 0.1838,
      "velocity": 127,
      "chip": "ym2612"
    },
    {
      "channel": 2,
      "note": 76,
      "start": 221.2026,
      "duration": 0.1823,
      "velocity": 127,
      "chip": "ym2612"
    },
    {
      "channel": 1,
      "note": 66,
      "start": 221.4015,
      "duration": 0.0831,
      "velocity": 127,
      "chip": "ym2612"
    },
    {
      "channel": 2,
      "note": 42,
      "start": 221.4032,
      "duration": 0.0817,
      "velocity": 127,
      "chip": "ym2612"
    },
    {
      "channel": 1,
      "note": 56,
      "start": 221.5014,
      "duration": 0.0833,
      "velocity": 127,
      "chip": "ym2612"
    },
    {
      "channel": 2,
      "note": 76,
      "start": 221.5016,
      "duration": 0.0833,
      "velocity": 127,
      "chip": "ym2612"
    },
    {
      "channel": 1,
      "note": 56,
      "start": 221.6015,
      "duration": 0.0832,
      "velocity": 127,
      "chip": "ym2612"
    },
    {
      "channel": 2,
      "note": 76,
      "start": 221.6032,
      "duration": 0.1819,
      "velocity": 127,
      "chip": "ym2612"
    },
    {
      "channel": 1,
      "note": 56,
      "start": 221.7014,
      "duration": 0.1835,
      "velocity": 127,
      "chip": "ym2612"
    },
    {
      "channel": 2,
      "note": 30,
      "start": 221.8033,
      "duration": 0.0818,
      "velocity": 127,
      "chip": "ym2612"
    },
    {
      "channel": 1,
      "note": 66,
      "start": 221.9016,
      "duration": 0.0833,
      "velocity": 127,
      "chip": "ym2612"
    },
    {
      "channel": 2,
      "note": 76,
      "start": 221.9019,
      "duration": 0.0832,
      "velocity": 127,
      "chip": "ym2612"
    },
    {
      "channel": 0,
      "note": 44,
      "start": 222.0016,
      "duration": 0.3829,
      "velocity": 127,
      "chip": "ym2612"
    },
    {
      "channel": 1,
      "note": 68,
      "start": 222.0019,
      "duration": 0.083,
      "velocity": 127,
      "chip": "ym2612"
    },
    {
      "channel": 2,
      "note": 76,
      "start": 222.0035,
      "duration": 0.1815,
      "velocity": 127,
      "chip": "ym2612"
    },
    {
      "channel": 1,
      "note": 56,
      "start": 222.1015,
      "duration": 0.0833,
      "velocity": 127,
      "chip": "ym2612"
    },
    {
      "channel": 1,
      "note": 68,
      "start": 222.2017,
      "duration": 0.083,
      "velocity": 127,
      "chip": "ym2612"
    },
    {
      "channel": 2,
      "note": 30,
      "start": 222.2034,
      "duration": 0.0815,
      "velocity": 127,
      "chip": "ym2612"
    },
    {
      "channel": 1,
      "note": 56,
      "start": 222.3014,
      "duration": 0.0834,
      "velocity": 127,
      "chip": "ym2612"
    },
    {
      "channel": 2,
      "note": 76,
      "start": 222.3017,
      "duration": 0.0833,
      "velocity": 127,
      "chip": "ym2612"
    },
    {
      "channel": 1,
      "note": 68,
      "start": 222.4015,
      "duration": 0.0831,
      "velocity": 127,
      "chip": "ym2612"
    },
    {
      "channel": 2,
      "note": 76,
      "start": 222.4032,
      "duration": 0.1817,
      "velocity": 127,
      "chip": "ym2612"
    },
    {
      "channel": 1,
      "note": 68,
      "start": 222.5014,
      "duration": 0.0833,
      "velocity": 127,
      "chip": "ym2612"
    },
    {
      "channel": 1,
      "note": 68,
      "start": 222.6015,
      "duration": 0.1832,
      "velocity": 127,
      "chip": "ym2612"
    },
    {
      "channel": 2,
      "note": 30,
      "start": 222.6033,
      "duration": 0.0817,
      "velocity": 127,
      "chip": "ym2612"
    },
    {
      "channel": 0,
      "note": 47,
      "start": 222.7013,
      "duration": 0.0832,
      "velocity": 127,
      "chip": "ym2612"
    },
    {
      "channel": 2,
      "note": 76,
      "start": 222.7017,
      "duration": 0.0832,
      "velocity": 127,
      "chip": "ym2612"
    },
    {
      "channel": 0,
      "note": 28,
      "start": 222.8015,
      "duration": 0.3832,
      "velocity": 127,
      "chip": "ym2612"
    },
    {
      "channel": 1,
      "note": 54,
      "start": 222.8018,
      "duration": 0.183,
      "velocity": 127,
      "chip": "ym2612"
    },
    {
      "channel": 2,
      "note": 76,
      "start": 222.8035,
      "duration": 0.1816,
      "velocity": 127,
      "chip": "ym2612"
    },
    {
      "channel": 1,
      "note": 66,
      "start": 223.0015,
      "duration": 0.0832,
      "velocity": 127,
      "chip": "ym2612"
    },
    {
      "channel": 2,
      "note": 42,
      "start": 223.0018,
      "duration": 0.1833,
      "velocity": 127,
      "chip": "ym2612"
    },
    {
      "channel": 1,
      "note": 56,
      "start": 223.1016,
      "duration": 0.0833,
      "velocity": 127,
      "chip": "ym2612"
    },
    {
      "channel": 1,
      "note": 56,
      "start": 223.2015,
      "duration": 0.0833,
      "velocity": 127,
      "chip": "ym2612"
    },
    {
      "channel": 2,
      "note": 42,
      "start": 223.2033,
      "duration": 0.1816,
      "velocity": 127,
      "chip": "ym2612"
    },
    {
      "channel": 1,
      "note": 68,
      "start": 223.3015,
      "duration": 0.0832,
      "velocity": 127,
      "chip": "ym2612"
    },
    {
      "channel": 1,
      "note": 68,
      "start": 223.4014,
      "duration": 0.0833,
      "velocity": 127,
      "chip": "ym2612"
    },
    {
      "channel": 2,
      "note": 30,
      "start": 223.4031,
      "duration": 0.0819,
      "velocity": 127,
      "chip": "ym2612"
    },
    {
      "channel": 0,
      "note": 47,
      "start": 223.5013,
      "duration": 0.0832,
      "velocity": 127,
      "chip": "ym2612"
    },
    {
      "channel": 1,
      "note": 56,
      "start": 223.5015,
      "duration": 0.0832,
      "velocity": 127,
      "chip": "ym2612"
    },
    {
      "channel": 2,
      "note": 76,
      "start": 223.5018,
      "duration": 0.0831,
      "velocity": 127,
      "chip": "ym2612"
    },
    {
      "channel": 0,
      "note": 28,
      "start": 223.6014,
      "duration": 0.0831,
      "velocity": 127,
      "chip": "ym2612"
    },
    {
      "channel": 1,
      "note": 68,
      "start": 223.6017,
      "duration": 0.083,
      "velocity": 127,
      "chip": "ym2612"
    },
    {
      "channel": 2,
      "note": 76,
      "start": 223.6033,
      "duration": 0.1815,
      "velocity": 127,
      "chip": "ym2612"
    },
    {
      "channel": 0,
      "note": 40,
      "start": 223.7012,
      "duration": 0.0833,
      "velocity": 127,
      "chip": "ym2612"
    },
    {
      "channel": 1,
      "note": 56,
      "start": 223.7015,
      "duration": 0.0832,
      "velocity": 127,
      "chip": "ym2612"
    },
    {
      "channel": 0,
      "note": 28,
      "start": 223.8013,
      "duration": 0.0833,
      "velocity": 127,
      "chip": "ym2612"
    },
    {
      "channel": 1,
      "note": 56,
      "start": 223.8015,
      "duration": 0.0833,
      "velocity": 127,
      "chip": "ym2612"
    },
    {
      "channel": 2,
      "note": 42,
      "start": 223.8032,
      "duration": 0.0819,
      "velocity": 127,
      "chip": "ym2612"
    },
    {
      "channel": 0,
      "note": 28,
      "start": 223.9014,
      "duration": 0.0833,
      "velocity": 127,
      "chip": "ym2612"
    },
    {
      "channel": 1,
      "note": 68,
      "start": 223.9017,
      "duration": 0.0833,
      "velocity": 127,
      "chip": "ym2612"
    },
    {
      "channel": 2,
      "note": 76,
      "start": 223.9019,
      "duration": 0.0833,
      "velocity": 127,
      "chip": "ym2612"
    },
    {
      "channel": 1,
      "note": 68,
      "start": 224.0033,
      "duration": 0.1817,
      "velocity": 127,
      "chip": "ym2612"
    },
    {
      "channel": 2,
      "note": 76,
      "start": 224.0049,
      "duration": 0.1803,
      "velocity": 127,
      "chip": "ym2612"
    },
    {
      "channel": 0,
      "note": 24,
      "start": 224.2015,
      "duration": 0.0831,
      "velocity": 127,
      "chip": "ym2612"
    },
    {
      "channel": 1,
      "note": 54,
      "start": 224.2018,
      "duration": 0.083,
      "velocity": 127,
      "chip": "ym2612"
    },
    {
      "channel": 2,
      "note": 30,
      "start": 224.2035,
      "duration": 0.0816,
      "velocity": 127,
      "chip": "ym2612"
    },
    {
      "channel": 0,
      "note": 28,
      "start": 224.3014,
      "duration": 0.0833,
      "velocity": 127,
      "chip": "ym2612"
    },
    {
      "channel": 1,
      "note": 68,
      "start": 224.3017,
      "duration": 0.0833,
      "velocity": 127,
      "chip": "ym2612"
    },
    {
      "channel": 2,
      "note": 76,
      "start": 224.3019,
      "duration": 0.0832,
      "velocity": 127,
      "chip": "ym2612"
    },
    {
      "channel": 0,
      "note": 28,
      "start": 224.4014,
      "duration": 0.3832,
      "velocity": 127,
      "chip": "ym2612"
    },
    {
      "channel": 1,
      "note": 68,
      "start": 224.4016,
      "duration": 0.1831,
      "velocity": 127,
      "chip": "ym2612"
    },
    {
      "channel": 2,
      "note": 76,
      "start": 224.4033,
      "duration": 0.1816,
      "velocity": 127,
      "chip": "ym2612"
    },
    {
      "channel": 1,
      "note": 66,
      "start": 224.6014,
      "duration": 0.0833,
      "velocity": 127,
      "chip": "ym2612"
    },
    {
      "channel": 2,
      "note": 42,
      "start": 224.6032,
      "duration": 0.1818,
      "velocity": 127,
      "chip": "ym2612"
    },
    {
      "channel": 1,
      "note": 56,
      "start": 224.7014,
      "duration": 0.0833,
      "velocity": 127,
      "chip": "ym2612"
    },
    {
      "channel": 1,
      "note": 56,
      "start": 224.8014,
      "duration": 0.0825,
      "velocity": 127,
      "chip": "ym2612"
    },
    {
      "channel": 2,
      "note": 30,
      "start": 224.8017,
      "duration": 0.1824,
      "velocity": 127,
      "chip": "ym2612"
    },
    {
      "channel": 1,
      "note": 56,
      "start": 224.9006,
      "duration": 0.1834,
      "velocity": 127,
      "chip": "ym2612"
    },
    {
      "channel": 0,
      "note": 25,
      "start": 225.0006,
      "duration": 0.0832,
      "velocity": 127,
      "chip": "ym2612"
    },
    {
      "channel": 2,
      "note": 30,
      "start": 225.0025,
      "duration": 0.0817,
      "velocity": 127,
      "chip": "ym2612"
    },
    {
      "channel": 0,
      "note": 45,
      "start": 225.1006,
      "duration": 0.0832,
      "velocity": 127,
      "chip": "ym2612"
    },
    {
      "channel": 1,
      "note": 66,
      "start": 225.1009,
      "duration": 0.0831,
      "velocity": 127,
      "chip": "ym2612"
    },
    {
      "channel": 2,
      "note": 76,
      "start": 225.1011,
      "duration": 0.0831,
      "velocity": 127,
      "chip": "ym2612"
    },
    {
      "channel": 0,
      "note": 45,
      "start": 225.2007,
      "duration": 0.0832,
      "velocity": 127,
      "chip": "ym2612"
    },
    {
      "channel": 1,
      "note": 68,
      "start": 225.2009,
      "duration": 0.0831,
      "velocity": 127,
      "chip": "ym2612"
    },
    {
      "channel": 2,
      "note": 76,
      "start": 225.2026,
      "duration": 0.1816,
      "velocity": 127,
      "chip": "ym2612"
    },
    {
      "channel": 0,
      "note": 40,
      "start": 225.3005,
      "duration": 0.0832,
      "velocity": 127,
      "chip": "ym2612"
    },
    {
      "channel": 1,
      "note": 56,
      "start": 225.3008,
      "duration": 0.0831,
      "velocity": 127,
      "chip": "ym2612"
    },
    {
      "channel": 0,
      "note": 28,
      "start": 225.4014,
      "duration": 0.1845,
      "velocity": 127,
      "chip": "ym2612"
    },
    {
      "channel": 1,
      "note": 68,
      "start": 225.4016,
      "duration": 0.0845,
      "velocity": 127,
      "chip": "ym2612"
    },
    {
      "channel": 2,
      "note": 42,
      "start": 225.4033,
      "duration": 0.0831,
      "velocity": 127,
      "chip": "ym2612"
    },
    {
      "channel": 1,
      "note": 56,
      "start": 225.5029,
      "duration": 0.0832,
      "velocity": 127,
      "chip": "ym2612"
    },
    {
      "channel": 2,
      "note": 30,
      "start": 225.5045,
      "duration": 0.0817,
      "velocity": 127,
      "chip": "ym2612"
    },
    {
      "channel": 0,
      "note": 38,
      "start": 225.6028,
      "duration": 0.283,
      "velocity": 127,
      "chip": "ym2612"
    },
    {
      "channel": 1,
      "note": 68,
      "start": 225.6031,
      "duration": 0.0829,
      "velocity": 127,
      "chip": "ym2612"
    },
    {
      "channel": 2,
      "note": 76,
      "start": 225.6047,
      "duration": 0.1815,
      "velocity": 127,
      "chip": "ym2612"
    },
    {
      "channel": 1,
      "note": 68,
      "start": 225.7028,
      "duration": 0.0833,
      "velocity": 127,
      "chip": "ym2612"
    },
    {
      "channel": 1,
      "note": 68,
      "start": 225.8029,
      "duration": 0.1819,
      "velocity": 127,
      "chip": "ym2612"
    },
    {
      "channel": 2,
      "note": 30,
      "start": 225.8046,
      "duration": 0.0816,
      "velocity": 127,
      "chip": "ym2612"
    },
    {
      "channel": 0,
      "note": 36,
      "start": 225.9028,
      "duration": 0.0818,
      "velocity": 127,
      "chip": "ym2612"
    },
    {
      "channel": 2,
      "note": 76,
      "start": 225.9032,
      "duration": 0.0819,
      "velocity": 127,
      "chip": "ym2612"
    },
    {
      "channel": 0,
      "note": 28,
      "start": 226.0014,
      "duration": 0.3832,
      "velocity": 127,
      "chip": "ym2612"
    },
    {
      "channel": 1,
      "note": 54,
      "start": 226.0016,
      "duration": 0.1831,
      "velocity": 127,
      "chip": "ym2612"
    },
    {
      "channel": 2,
      "note": 76,
      "start": 226.0033,
      "duration": 0.1815,
      "velocity": 127,
      "chip": "ym2612"
    },
    {
      "channel": 1,
      "note": 66,
      "start": 226.2014,
      "duration": 0.0832,
      "velocity": 127,
      "chip": "ym2612"
    },
    {
      "channel": 2,
      "note": 42,
      "start": 226.2017,
      "duration": 0.1833,
      "velocity": 127,
      "chip": "ym2612"
    },
    {
      "channel": 1,
      "note": 56,
      "start": 226.3014,
      "duration": 0.0833,
      "velocity": 127,
      "chip": "ym2612"
    },
    {
      "channel": 0,
      "note": 33,
      "start": 226.4014,
      "duration": 0.0832,
      "velocity": 127,
      "chip": "ym2612"
    },
    {
      "channel": 1,
      "note": 56,
      "start": 226.4016,
      "duration": 0.0831,
      "velocity": 127,
      "chip": "ym2612"
    },
    {
      "channel": 2,
      "note": 42,
      "start": 226.4019,
      "duration": 0.1845,
      "velocity": 127,
      "chip": "ym2612"
    },
    {
      "channel": 0,
      "note": 45,
      "start": 226.5012,
      "duration": 0.1847,
      "velocity": 127,
      "chip": "ym2612"
    },
    {
      "channel": 1,
      "note": 68,
      "start": 226.5015,
      "duration": 0.0847,
      "velocity": 127,
      "chip": "ym2612"
    },
    {
      "channel": 1,
      "note": 68,
      "start": 226.6027,
      "duration": 0.0834,
      "velocity": 127,
      "chip": "ym2612"
    },
    {
      "channel": 2,
      "note": 42,
      "start": 226.6029,
      "duration": 0.1833,
      "velocity": 127,
      "chip": "ym2612"
    },
    {
      "channel": 0,
      "note": 26,
      "start": 226.7026,
      "duration": 0.0833,
      "velocity": 127,
      "chip": "ym2612"
    },
    {
      "channel": 1,
      "note": 56,
      "start": 226.7029,
      "duration": 0.0832,
      "velocity": 127,
      "chip": "ym2612"
    },
    {
      "channel": 0,
      "note": 45,
      "start": 226.8027,
      "duration": 0.0833,
      "velocity": 127,
      "chip": "ym2612"
    },
    {
      "channel": 1,
      "note": 68,
      "start": 226.8029,
      "duration": 0.0832,
      "velocity": 127,
      "chip": "ym2612"
    },
    {
      "channel": 2,
      "note": 42,
      "start": 226.8032,
      "duration": 0.1832,
      "velocity": 127,
      "chip": "ym2612"
    },
    {
      "channel": 0,
      "note": 40,
      "start": 226.9026,
      "duration": 0.0834,
      "velocity": 127,
      "chip": "ym2612"
    },
    {
      "channel": 1,
      "note": 56,
      "start": 226.9028,
      "duration": 0.0833,
      "velocity": 127,
      "chip": "ym2612"
    },
    {
      "channel": 0,
      "note": 40,
      "start": 227.0028,
      "duration": 0.0817,
      "velocity": 127,
      "chip": "ym2612"
    },
    {
      "channel": 1,
      "note": 56,
      "start": 227.003,
      "duration": 0.0817,
      "velocity": 127,
      "chip": "ym2612"
    },
    {
      "channel": 2,
      "note": 42,
      "start": 227.0033,
      "duration": 0.0817,
      "velocity": 127,
      "chip": "ym2612"
    },
    {
      "channel": 0,
      "note": 28,
      "start": 227.1013,
      "duration": 0.0832,
      "velocity": 127,
      "chip": "ym2612"
    },
    {
      "channel": 1,
      "note": 68,
      "start": 227.1015,
      "duration": 0.0832,
      "velocity": 127,
      "chip": "ym2612"
    },
    {
      "channel": 2,
      "note": 42,
      "start": 227.1018,
      "duration": 0.0831,
      "velocity": 127,
      "chip": "ym2612"
    },
    {
      "channel": 1,
      "note": 68,
      "start": 227.2031,
      "duration": 0.1816,
      "velocity": 127,
      "chip": "ym2612"
    },
    {
      "channel": 2,
      "note": 42,
      "start": 227.2048,
      "duration": 0.1801,
      "velocity": 127,
      "chip": "ym2612"
    },
    {
      "channel": 0,
      "note": 24,
      "start": 227.4014,
      "duration": 0.0831,
      "velocity": 127,
      "chip": "ym2612"
    },
    {
      "channel": 1,
      "note": 54,
      "start": 227.4017,
      "duration": 0.083,
      "velocity": 127,
      "chip": "ym2612"
    },
    {
      "channel": 2,
      "note": 30,
      "start": 227.4033,
      "duration": 0.0816,
      "velocity": 127,
      "chip": "ym2612"
    },
    {
      "channel": 0,
      "note": 28,
      "start": 227.5013,
      "duration": 0.0847,
      "velocity": 127,
      "chip": "ym2612"
    },
    {
      "channel": 1,
      "note": 68,
      "start": 227.5015,
      "duration": 0.0846,
      "velocity": 127,
      "chip": "ym2612"
    },
    {
      "channel": 2,
      "note": 76,
      "start": 227.5018,
      "duration": 0.0846,
      "velocity": 127,
      "chip": "ym2612"
    },
    {
      "channel": 0,
      "note": 28,
      "start": 227.6028,
      "duration": 0.3831,
      "velocity": 127,
      "chip": "ym2612"
    },
    {
      "channel": 1,
      "note": 68,
      "start": 227.603,
      "duration": 0.1831,
      "velocity": 127,
      "chip": "ym2612"
    },
    {
      "channel": 2,
      "note": 76,
      "start": 227.6047,
      "duration": 0.1816,
      "velocity": 127,
      "chip": "ym2612"
    },
    {
      "channel": 1,
      "note": 66,
      "start": 227.8028,
      "duration": 0.0833,
      "velocity": 127,
      "chip": "ym2612"
    },
    {
      "channel": 2,
      "note": 42,
      "start": 227.8045,
      "duration": 0.1819,
      "velocity": 127,
      "chip": "ym2612"
    },
    {
      "channel": 1,
      "note": 56,
      "start": 227.9028,
      "duration": 0.0833,
      "velocity": 127,
      "chip": "ym2612"
    },
    {
      "channel": 1,
      "note": 56,
      "start": 228.0028,
      "duration": 0.0832,
      "velocity": 127,
      "chip": "ym2612"
    },
    {
      "channel": 2,
      "note": 30,
      "start": 228.003,
      "duration": 0.1819,
      "velocity": 127,
      "chip": "ym2612"
    },
    {
      "channel": 1,
      "note": 56,
      "start": 228.1028,
      "duration": 0.182,
      "velocity": 127,
      "chip": "ym2612"
    },
    {
      "channel": 0,
      "note": 25,
      "start": 228.2013,
      "duration": 0.0833,
      "velocity": 127,
      "chip": "ym2612"
    },
    {
      "channel": 2,
      "note": 30,
      "start": 228.2032,
      "duration": 0.0819,
      "velocity": 127,
      "chip": "ym2612"
    },
    {
      "channel": 0,
      "note": 45,
      "start": 228.3012,
      "duration": 0.0833,
      "velocity": 127,
      "chip": "ym2612"
    },
    {
      "channel": 1,
      "note": 66,
      "start": 228.3015,
      "duration": 0.0833,
      "velocity": 127,
      "chip": "ym2612"
    },
    {
      "channel": 2,
      "note": 76,
      "start": 228.3017,
      "duration": 0.0833,
      "velocity": 127,
      "chip": "ym2612"
    },
    {
      "channel": 0,
      "note": 45,
      "start": 228.4014,
      "duration": 0.0831,
      "velocity": 127,
      "chip": "ym2612"
    },
    {
      "channel": 1,
      "note": 68,
      "start": 228.4016,
      "duration": 0.0831,
      "velocity": 127,
      "chip": "ym2612"
    },
    {
      "channel": 2,
      "note": 76,
      "start": 228.4033,
      "duration": 0.1817,
      "velocity": 127,
      "chip": "ym2612"
    },
    {
      "channel": 0,
      "note": 40,
      "start": 228.5012,
      "duration": 0.0833,
      "velocity": 127,
      "chip": "ym2612"
    },
    {
      "channel": 1,
      "note": 56,
      "start": 228.5015,
      "duration": 0.0833,
      "velocity": 127,
      "chip": "ym2612"
    },
    {
      "channel": 0,
      "note": 28,
      "start": 228.6014,
      "duration": 0.1846,
      "velocity": 127,
      "chip": "ym2612"
    },
    {
      "channel": 1,
      "note": 68,
      "start": 228.6016,
      "duration": 0.0845,
      "velocity": 127,
      "chip": "ym2612"
    },
    {
      "channel": 2,
      "note": 42,
      "start": 228.6033,
      "duration": 0.0831,
      "velocity": 127,
      "chip": "ym2612"
    },
    {
      "channel": 1,
      "note": 56,
      "start": 228.7028,
      "duration": 0.0833,
      "velocity": 127,
      "chip": "ym2612"
    },
    {
      "channel": 2,
      "note": 30,
      "start": 228.7045,
      "duration": 0.0819,
      "velocity": 127,
      "chip": "ym2612"
    },
    {
      "channel": 0,
      "note": 38,
      "start": 228.8028,
      "duration": 0.281,
      "velocity": 127,
      "chip": "ym2612"
    },
    {
      "channel": 1,
      "note": 68,
      "start": 228.803,
      "duration": 0.083,
      "velocity": 127,
      "chip": "ym2612"
    },
    {
      "channel": 2,
      "note": 76,
      "start": 228.8047,
      "duration": 0.1794,
      "velocity": 127,
      "chip": "ym2612"
    },
    {
      "channel": 1,
      "note": 68,
      "start": 228.9006,
      "duration": 0.0833,
      "velocity": 127,
      "chip": "ym2612"
    },
    {
      "channel": 1,
      "note": 68,
      "start": 229.0008,
      "duration": 0.1832,
      "velocity": 127,
      "chip": "ym2612"
    },
    {
      "channel": 2,
      "note": 30,
      "start": 229.0024,
      "duration": 0.0817,
      "velocity": 127,
      "chip": "ym2612"
    },
    {
      "channel": 0,
      "note": 36,
      "start": 229.1006,
      "duration": 0.0832,
      "velocity": 127,
      "chip": "ym2612"
    },
    {
      "channel": 2,
      "note": 76,
      "start": 229.101,
      "duration": 0.0832,
      "velocity": 127,
      "chip": "ym2612"
    },
    {
      "channel": 0,
      "note": 28,
      "start": 229.2007,
      "duration": 0.3838,
      "velocity": 127,
      "chip": "ym2612"
    },
    {
      "channel": 1,
      "note": 54,
      "start": 229.201,
      "duration": 0.1829,
      "velocity": 127,
      "chip": "ym2612"
    },
    {
      "channel": 2,
      "note": 76,
      "start": 229.2027,
      "duration": 0.1814,
      "velocity": 127,
      "chip": "ym2612"
    },
    {
      "channel": 1,
      "note": 66,
      "start": 229.4008,
      "duration": 0.0838,
      "velocity": 127,
      "chip": "ym2612"
    },
    {
      "channel": 2,
      "note": 42,
      "start": 229.401,
      "duration": 0.184,
      "velocity": 127,
      "chip": "ym2612"
    },
    {
      "channel": 1,
      "note": 56,
      "start": 229.5014,
      "duration": 0.0835,
      "velocity": 127,
      "chip": "ym2612"
    },
    {
      "channel": 0,
      "note": 33,
      "start": 229.6014,
      "duration": 0.0832,
      "velocity": 127,
      "chip": "ym2612"
    },
    {
      "channel": 1,
      "note": 56,
      "start": 229.6016,
      "duration": 0.0832,
      "velocity": 127,
      "chip": "ym2612"
    },
    {
      "channel": 2,
      "note": 42,
      "start": 229.6019,
      "duration": 0.0831,
      "velocity": 127,
      "chip": "ym2612"
    },
    {
      "channel": 0,
      "note": 45,
      "start": 229.7014,
      "duration": 0.1832,
      "velocity": 127,
      "chip": "ym2612"
    },
    {
      "channel": 1,
      "note": 68,
      "start": 229.7016,
      "duration": 0.083,
      "velocity": 127,
      "chip": "ym2612"
    },
    {
      "channel": 2,
      "note": 42,
      "start": 229.7019,
      "duration": 0.083,
      "velocity": 127,
      "chip": "ym2612"
    },
    {
      "channel": 1,
      "note": 68,
      "start": 229.8014,
      "duration": 0.0834,
      "velocity": 127,
      "chip": "ym2612"
    },
    {
      "channel": 2,
      "note": 42,
      "start": 229.8016,
      "duration": 0.0834,
      "velocity": 127,
      "chip": "ym2612"
    },
    {
      "channel": 0,
      "note": 26,
      "start": 229.9014,
      "duration": 0.0832,
      "velocity": 127,
      "chip": "ym2612"
    },
    {
      "channel": 1,
      "note": 56,
      "start": 229.9016,
      "duration": 0.0831,
      "velocity": 127,
      "chip": "ym2612"
    },
    {
      "channel": 2,
      "note": 42,
      "start": 229.9019,
      "duration": 0.0831,
      "velocity": 127,
      "chip": "ym2612"
    },
    {
      "channel": 0,
      "note": 45,
      "start": 230.0013,
      "duration": 0.0833,
      "velocity": 127,
      "chip": "ym2612"
    },
    {
      "channel": 1,
      "note": 68,
      "start": 230.0015,
      "duration": 0.0832,
      "velocity": 127,
      "chip": "ym2612"
    },
    {
      "channel": 2,
      "note": 42,
      "start": 230.0018,
      "duration": 0.0832,
      "velocity": 127,
      "chip": "ym2612"
    },
    {
      "channel": 0,
      "note": 40,
      "start": 230.1012,
      "duration": 0.0833,
      "velocity": 127,
      "chip": "ym2612"
    },
    {
      "channel": 1,
      "note": 56,
      "start": 230.1015,
      "duration": 0.0832,
      "velocity": 127,
      "chip": "ym2612"
    },
    {
      "channel": 2,
      "note": 42,
      "start": 230.1017,
      "duration": 0.0832,
      "velocity": 127,
      "chip": "ym2612"
    },
    {
      "channel": 0,
      "note": 40,
      "start": 230.2013,
      "duration": 0.0833,
      "velocity": 127,
      "chip": "ym2612"
    },
    {
      "channel": 1,
      "note": 56,
      "start": 230.2015,
      "duration": 0.0833,
      "velocity": 127,
      "chip": "ym2612"
    },
    {
      "channel": 2,
      "note": 42,
      "start": 230.2018,
      "duration": 0.1831,
      "velocity": 127,
      "chip": "ym2612"
    },
    {
      "channel": 0,
      "note": 28,
      "start": 230.3013,
      "duration": 0.0833,
      "velocity": 127,
      "chip": "ym2612"
    },
    {
      "channel": 1,
      "note": 68,
      "start": 230.3015,
      "duration": 0.0832,
      "velocity": 127,
      "chip": "ym2612"
    },
    {
      "channel": 0,
      "note": 28,
      "start": 230.4032,
      "duration": 0.1814,
      "velocity": 102,
      "chip": "ym2612"
    },
    {
      "channel": 2,
      "note": 42,
      "start": 230.4064,
      "duration": 0.1784,
      "velocity": 127,
      "chip": "ym2612"
    },
    {
      "channel": 0,
      "note": 52,
      "start": 230.6014,
      "duration": 0.1831,
      "velocity": 102,
      "chip": "ym2612"
    },
    {
      "channel": 1,
      "note": 67,
      "start": 230.6017,
      "duration": 0.1829,
      "velocity": 83,
      "chip": "ym2612"
    },
    {
      "channel": 2,
      "note": 30,
      "start": 230.6033,
      "duration": 0.0814,
      "velocity": 127,
      "chip": "ym2612"
    },
    {
      "channel": 2,
      "note": 76,
      "start": 230.7014,
      "duration": 0.0834,
      "velocity": 127,
      "chip": "ym2612"
    }
  ]
}