{
  "track_name": "02 - Boss 2 & 5",
  "duration_sec": 45.915,
  "sample_rate": 44100,
  "note_count": 1675,
  "unique_pitches": 19,
  "pitch_range": 33,
  "avg_note_duration": 0.1204,
  "reconstruction_stats": {
    "notes_reconstructed": 1675,
    "keyon_events": 1675,
    "keyoff_events": 1433,
    "orphan_keyons": 2,
    "unique_pitches": 19,
    "pitch_range": 33,
    "avg_duration_sec": 0.1204
  },
  "metadata": {
    "source": "F\\Fire Mustang\\02 - Boss 2 & 5.vgz"
  },
  "notes": [
    {
      "channel": 0,
      "note": 82,
      "start": 0.0,
      "duration": 0.0,
      "velocity": 107,
      "chip": "ym2612"
    },
    {
      "channel": 0,
      "note": 82,
      "start": 0.0,
      "duration": 0.0,
      "velocity": 107,
      "chip": "ym2612"
    },
    {
      "channel": 1,
      "note": 77,
      "start": 0.0,
      "duration": 0.0,
      "velocity": 107,
      "chip": "ym2612"
    },
    {
      "channel": 2,
      "note": 70,
      "start": 0.0,
      "duration": 0.0,
      "velocity": 100,
      "chip": "ym2612"
    },
    {
      "channel": 2,
      "note": 70,
      "start": 0.0,
      "duration": 0.0,
      "velocity": 100,
      "chip": "ym2612"
    },
    {
      "channel": 2,
      "note": 70,
      "start": 0.0,
      "duration": 0.0,
      "velocity": 100,
      "chip": "ym2612"
    },
    {
      "channel": 3,
      "note": 70,
      "start": 0.0,
      "duration": 0.0,
      "velocity": 110,
      "chip": "ym2612"
    },
    {
      "channel": 4,
      "note": 82,
      "start": 0.0,
      "duration": 0.0,
      "velocity": 126,
      "chip": "ym2612"
    },
    {
      "channel": 4,
      "note": 74,
      "start": 0.0,
      "duration": 0.0,
      "velocity": 126,
      "chip": "ym2612"
    },
    {
      "channel": 4,
      "note": 65,
      "start": 0.0,
      "duration": 0.0,
      "velocity": 120,
      "chip": "ym2612"
    },
    {
      "channel": 4,
      "note": 53,
      "start": 0.0,
      "duration": 0.0,
      "velocity": 120,
      "chip": "ym2612"
    },
    {
      "channel": 5,
      "note": 77,
      "start": 0.0,
      "duration": 0.0,
      "velocity": 118,
      "chip": "ym2612"
    },
    {
      "channel": 5,
      "note": 77,
      "start": 0.0,
      "duration": 0.0,
      "velocity": 118,
      "chip": "ym2612"
    },
    {
      "channel": 5,
      "note": 77,
      "start": 0.0,
      "duration": 0.0,
      "velocity": 118,
      "chip": "ym2612"
    },
    {
      "channel": 4,
      "note": 82,
      "start": 0.0516,
      "duration": 0.0491,
      "velocity": 126,
      "chip": "ym2612"
    },
    {
      "channel": 4,
      "note": 74,
      "start": 0.1007,
      "duration": 0.01,
      "velocity": 126,
      "chip": "ym2612"
    },
    {
      "channel": 4,
      "note": 82,
      "start": 0.1844,
      "duration": 0.0496,
      "velocity": 126,
      "chip": "ym2612"
    },
    {
      "channel": 4,
      "note": 74,
      "start": 0.234,
      "duration": 0.01,
      "velocity": 126,
      "chip": "ym2612"
    },
    {
      "channel": 4,
      "note": 82,
      "start": 0.3178,
      "duration": 0.0496,
      "velocity": 126,
      "chip": "ym2612"
    },
    {
      "channel": 4,
      "note": 74,
      "start": 0.3673,
      "duration": 0.01,
      "velocity": 126,
      "chip": "ym2612"
    },
    {
      "channel": 4,
      "note": 82,
      "start": 0.4511,
      "duration": 0.0496,
      "velocity": 126,
      "chip": "ym2612"
    },
    {
      "channel": 4,
      "note": 74,
      "start": 0.5007,
      "duration": 0.01,
      "velocity": 126,
      "chip": "ym2612"
    },
    {
      "channel": 4,
      "note": 82,
      "start": 0.5844,
      "duration": 0.0496,
      "velocity": 126,
      "chip": "ym2612"
    },
    {
      "channel": 4,
      "note": 74,
      "start": 0.634,
      "duration": 0.01,
      "velocity": 126,
      "chip": "ym2612"
    },
    {
      "channel": 4,
      "note": 82,
      "start": 0.7178,
      "duration": 0.0496,
      "velocity": 126,
      "chip": "ym2612"
    },
    {
      "channel": 4,
      "note": 74,
      "start": 0.7673,
      "duration": 0.01,
      "velocity": 126,
      "chip": "ym2612"
    },
    {
      "channel": 4,
      "note": 82,
      "start": 0.8511,
      "duration": 0.0496,
      "velocity": 126,
      "chip": "ym2612"
    },
    {
      "channel": 4,
      "note": 74,
      "start": 0.9007,
      "duration": 0.01,
      "velocity": 126,
      "chip": "ym2612"
    },
    {
      "channel": 4,
      "note": 82,
      "start": 0.9844,
      "duration": 0.0496,
      "velocity": 126,
      "chip": "ym2612"
    },
    {
      "channel": 4,
      "note": 74,
      "start": 1.034,
      "duration": 0.0102,
      "velocity": 126,
      "chip": "ym2612"
    },
    {
      "channel": 4,
      "note": 65,
      "start": 1.1187,
      "duration": 0.0518,
      "velocity": 120,
      "chip": "ym2612"
    },
    {
      "channel": 0,
      "note": 79,
      "start": 1.142,
      "duration": 0.2339,
      "velocity": 110,
      "chip": "ym2612"
    },
    {
      "channel": 2,
      "note": 55,
      "start": 1.1421,
      "duration": 0.1012,
      "velocity": 109,
      "chip": "ym2612"
    },
    {
      "channel": 5,
      "note": 77,
      "start": 1.1423,
      "duration": 0.4855,
      "velocity": 127,
      "chip": "ym2612"
    },
    {
      "channel": 1,
      "note": 74,
      "start": 1.157,
      "duration": 0.1692,
      "velocity": 109,
      "chip": "ym2612"
    },
    {
      "channel": 3,
      "note": 74,
      "start": 1.1574,
      "duration": 0.237,
      "velocity": 110,
      "chip": "ym2612"
    },
    {
      "channel": 4,
      "note": 53,
      "start": 1.1705,
      "duration": 0.0068,
      "velocity": 120,
      "chip": "ym2612"
    },
    {
      "channel": 4,
      "note": 65,
      "start": 1.2512,
      "duration": 0.0494,
      "velocity": 120,
      "chip": "ym2612"
    },
    {
      "channel": 2,
      "note": 55,
      "start": 1.2674,
      "duration": 0.1263,
      "velocity": 109,
      "chip": "ym2612"
    },
    {
      "channel": 4,
      "note": 53,
      "start": 1.3007,
      "duration": 0.01,
      "velocity": 120,
      "chip": "ym2612"
    },
    {
      "channel": 4,
      "note": 82,
      "start": 1.3846,
      "duration": 0.0494,
      "velocity": 126,
      "chip": "ym2612"
    },
    {
      "channel": 0,
      "note": 79,
      "start": 1.4039,
      "duration": 0.0553,
      "velocity": 110,
      "chip": "ym2612"
    },
    {
      "channel": 2,
      "note": 65,
      "start": 1.404,
      "duration": 0.1225,
      "velocity": 109,
      "chip": "ym2612"
    },
    {
      "channel": 1,
      "note": 74,
      "start": 1.4214,
      "duration": 0.1716,
      "velocity": 109,
      "chip": "ym2612"
    },
    {
      "channel": 3,
      "note": 84,
      "start": 1.4215,
      "duration": 0.2396,
      "velocity": 112,
      "chip": "ym2612"
    },
    {
      "channel": 4,
      "note": 74,
      "start": 1.434,
      "duration": 0.01,
      "velocity": 126,
      "chip": "ym2612"
    },
    {
      "channel": 0,
      "note": 79,
      "start": 1.4841,
      "duration": 0.0585,
      "velocity": 110,
      "chip": "ym2612"
    },
    {
      "channel": 2,
      "note": 55,
      "start": 1.5341,
      "duration": 0.1263,
      "velocity": 109,
      "chip": "ym2612"
    },
    {
      "channel": 0,
      "note": 79,
      "start": 1.5674,
      "duration": 0.0751,
      "velocity": 110,
      "chip": "ym2612"
    },
    {
      "channel": 4,
      "note": 65,
      "start": 1.6513,
      "duration": 0.0499,
      "velocity": 120,
      "chip": "ym2612"
    },
    {
      "channel": 0,
      "note": 79,
      "start": 1.6749,
      "duration": 0.2344,
      "velocity": 110,
      "chip": "ym2612"
    },
    {
      "channel": 2,
      "note": 63,
      "start": 1.675,
      "duration": 0.1183,
      "velocity": 109,
      "chip": "ym2612"
    },
    {
      "channel": 5,
      "note": 77,
      "start": 1.6752,
      "duration": 0.1025,
      "velocity": 118,
      "chip": "ym2612"
    },
    {
      "channel": 1,
      "note": 74,
      "start": 1.6892,
      "duration": 0.1704,
      "velocity": 109,
      "chip": "ym2612"
    },
    {
      "channel": 3,
      "note": 82,
      "start": 1.6893,
      "duration": 0.2559,
      "velocity": 112,
      "chip": "ym2612"
    },
    {
      "channel": 4,
      "note": 53,
      "start": 1.7012,
      "duration": 0.0094,
      "velocity": 120,
      "chip": "ym2612"
    },
    {
      "channel": 2,
      "note": 55,
      "start": 1.8036,
      "duration": 0.1235,
      "velocity": 109,
      "chip": "ym2612"
    },
    {
      "channel": 5,
      "note": 77,
      "start": 1.8038,
      "duration": 0.1081,
      "velocity": 118,
      "chip": "ym2612"
    },
    {
      "channel": 4,
      "note": 82,
      "start": 1.918,
      "duration": 0.0494,
      "velocity": 126,
      "chip": "ym2612"
    },
    {
      "channel": 0,
      "note": 82,
      "start": 1.94,
      "duration": 0.4858,
      "velocity": 110,
      "chip": "ym2612"
    },
    {
      "channel": 2,
      "note": 62,
      "start": 1.9402,
      "duration": 0.1197,
      "velocity": 109,
      "chip": "ym2612"
    },
    {
      "channel": 5,
      "note": 77,
      "start": 1.9404,
      "duration": 0.104,
      "velocity": 118,
      "chip": "ym2612"
    },
    {
      "channel": 1,
      "note": 74,
      "start": 1.9549,
      "duration": 0.1714,
      "velocity": 109,
      "chip": "ym2612"
    },
    {
      "channel": 3,
      "note": 81,
      "start": 1.955,
      "duration": 0.2559,
      "velocity": 112,
      "chip": "ym2612"
    },
    {
      "channel": 4,
      "note": 74,
      "start": 1.9673,
      "duration": 0.01,
      "velocity": 126,
      "chip": "ym2612"
    },
    {
      "channel": 2,
      "note": 55,
      "start": 2.0703,
      "duration": 0.1231,
      "velocity": 109,
      "chip": "ym2612"
    },
    {
      "channel": 5,
      "note": 77,
      "start": 2.0705,
      "duration": 0.108,
      "velocity": 118,
      "chip": "ym2612"
    },
    {
      "channel": 4,
      "note": 65,
      "start": 2.1845,
      "duration": 0.0495,
      "velocity": 120,
      "chip": "ym2612"
    },
    {
      "channel": 2,
      "note": 63,
      "start": 2.2037,
      "duration": 0.1229,
      "velocity": 109,
      "chip": "ym2612"
    },
    {
      "channel": 5,
      "note": 77,
      "start": 2.2039,
      "duration": 0.1078,
      "velocity": 118,
      "chip": "ym2612"
    },
    {
      "channel": 1,
      "note": 74,
      "start": 2.2206,
      "duration": 0.1723,
      "velocity": 109,
      "chip": "ym2612"
    },
    {
      "channel": 3,
      "note": 82,
      "start": 2.2208,
      "duration": 0.2578,
      "velocity": 112,
      "chip": "ym2612"
    },
    {
      "channel": 4,
      "note": 53,
      "start": 2.234,
      "duration": 0.01,
      "velocity": 120,
      "chip": "ym2612"
    },
    {
      "channel": 4,
      "note": 65,
      "start": 2.3178,
      "duration": 0.0495,
      "velocity": 120,
      "chip": "ym2612"
    },
    {
      "channel": 2,
      "note": 55,
      "start": 2.3369,
      "duration": 0.1235,
      "velocity": 109,
      "chip": "ym2612"
    },
    {
      "channel": 5,
      "note": 77,
      "start": 2.3371,
      "duration": 0.1081,
      "velocity": 118,
      "chip": "ym2612"
    },
    {
      "channel": 4,
      "note": 53,
      "start": 2.3673,
      "duration": 0.01,
      "velocity": 120,
      "chip": "ym2612"
    },
    {
      "channel": 4,
      "note": 82,
      "start": 2.4513,
      "duration": 0.0494,
      "velocity": 126,
      "chip": "ym2612"
    },
    {
      "channel": 0,
      "note": 79,
      "start": 2.4734,
      "duration": 0.2358,
      "velocity": 110,
      "chip": "ym2612"
    },
    {
      "channel": 2,
      "note": 62,
      "start": 2.4735,
      "duration": 0.1197,
      "velocity": 109,
      "chip": "ym2612"
    },
    {
      "channel": 5,
      "note": 77,
      "start": 2.4737,
      "duration": 0.104,
      "velocity": 118,
      "chip": "ym2612"
    },
    {
      "channel": 1,
      "note": 74,
      "start": 2.4882,
      "duration": 0.1714,
      "velocity": 109,
      "chip": "ym2612"
    },
    {
      "channel": 3,
      "note": 81,
      "start": 2.4883,
      "duration": 0.2567,
      "velocity": 112,
      "chip": "ym2612"
    },
    {
      "channel": 4,
      "note": 74,
      "start": 2.5007,
      "duration": 0.01,
      "velocity": 126,
      "chip": "ym2612"
    },
    {
      "channel": 2,
      "note": 55,
      "start": 2.6036,
      "duration": 0.1234,
      "velocity": 109,
      "chip": "ym2612"
    },
    {
      "channel": 5,
      "note": 77,
      "start": 2.6038,
      "duration": 0.1081,
      "velocity": 118,
      "chip": "ym2612"
    },
    {
      "channel": 4,
      "note": 65,
      "start": 2.718,
      "duration": 0.0494,
      "velocity": 120,
      "chip": "ym2612"
    },
    {
      "channel": 0,
      "note": 82,
      "start": 2.7398,
      "duration": 0.2527,
      "velocity": 110,
      "chip": "ym2612"
    },
    {
      "channel": 2,
      "note": 60,
      "start": 2.7399,
      "duration": 0.12,
      "velocity": 109,
      "chip": "ym2612"
    },
    {
      "channel": 5,
      "note": 77,
      "start": 2.7401,
      "duration": 0.1043,
      "velocity": 118,
      "chip": "ym2612"
    },
    {
      "channel": 1,
      "note": 74,
      "start": 2.7548,
      "duration": 0.1715,
      "velocity": 109,
      "chip": "ym2612"
    },
    {
      "channel": 3,
      "note": 79,
      "start": 2.755,
      "duration": 0.2569,
      "velocity": 112,
      "chip": "ym2612"
    },
    {
      "channel": 4,
      "note": 53,
      "start": 2.7673,
      "duration": 0.01,
      "velocity": 120,
      "chip": "ym2612"
    },
    {
      "channel": 2,
      "note": 55,
      "start": 2.8703,
      "duration": 0.1235,
      "velocity": 109,
      "chip": "ym2612"
    },
    {
      "channel": 5,
      "note": 77,
      "start": 2.8705,
      "duration": 0.108,
      "velocity": 118,
      "chip": "ym2612"
    },
    {
      "channel": 4,
      "note": 82,
      "start": 2.9845,
      "duration": 0.0495,
      "velocity": 126,
      "chip": "ym2612"
    },
    {
      "channel": 0,
      "note": 79,
      "start": 3.0067,
      "duration": 0.2358,
      "velocity": 110,
      "chip": "ym2612"
    },
    {
      "channel": 2,
      "note": 62,
      "start": 3.0068,
      "duration": 0.1197,
      "velocity": 109,
      "chip": "ym2612"
    },
    {
      "channel": 5,
      "note": 77,
      "start": 3.007,
      "duration": 0.1047,
      "velocity": 118,
      "chip": "ym2612"
    },
    {
      "channel": 1,
      "note": 74,
      "start": 3.0216,
      "duration": 0.1713,
      "velocity": 109,
      "chip": "ym2612"
    },
    {
      "channel": 3,
      "note": 81,
      "start": 3.0218,
      "duration": 0.2394,
      "velocity": 112,
      "chip": "ym2612"
    },
    {
      "channel": 4,
      "note": 74,
      "start": 3.034,
      "duration": 0.01,
      "velocity": 126,
      "chip": "ym2612"
    },
    {
      "channel": 4,
      "note": 65,
      "start": 3.1178,
      "duration": 0.0495,
      "velocity": 120,
      "chip": "ym2612"
    },
    {
      "channel": 2,
      "note": 55,
      "start": 3.1369,
      "duration": 0.1236,
      "velocity": 109,
      "chip": "ym2612"
    },
    {
      "channel": 5,
      "note": 77,
      "start": 3.1371,
      "duration": 0.1085,
      "velocity": 118,
      "chip": "ym2612"
    },
    {
      "channel": 4,
      "note": 53,
      "start": 3.1673,
      "duration": 0.01,
      "velocity": 120,
      "chip": "ym2612"
    },
    {
      "channel": 4,
      "note": 65,
      "start": 3.2517,
      "duration": 0.0514,
      "velocity": 120,
      "chip": "ym2612"
    },
    {
      "channel": 0,
      "note": 79,
      "start": 3.2755,
      "duration": 0.2337,
      "velocity": 110,
      "chip": "ym2612"
    },
    {
      "channel": 2,
      "note": 55,
      "start": 3.2756,
      "duration": 0.1176,
      "velocity": 109,
      "chip": "ym2612"
    },
    {
      "channel": 5,
      "note": 77,
      "start": 3.2758,
      "duration": 0.1026,
      "velocity": 118,
      "chip": "ym2612"
    },
    {
      "channel": 1,
      "note": 74,
      "start": 3.2916,
      "duration": 0.168,
      "velocity": 109,
      "chip": "ym2612"
    },
    {
      "channel": 3,
      "note": 74,
      "start": 3.2917,
      "duration": 0.2361,
      "velocity": 110,
      "chip": "ym2612"
    },
    {
      "channel": 4,
      "note": 53,
      "start": 3.3031,
      "duration": 0.0076,
      "velocity": 120,
      "chip": "ym2612"
    },
    {
      "channel": 4,
      "note": 65,
      "start": 3.3845,
      "duration": 0.0495,
      "velocity": 120,
      "chip": "ym2612"
    },
    {
      "channel": 2,
      "note": 55,
      "start": 3.4036,
      "duration": 0.1235,
      "velocity": 109,
      "chip": "ym2612"
    },
    {
      "channel": 5,
      "note": 77,
      "start": 3.4038,
      "duration": 0.1081,
      "velocity": 118,
      "chip": "ym2612"
    },
    {
      "channel": 4,
      "note": 53,
      "start": 3.434,
      "duration": 0.01,
      "velocity": 120,
      "chip": "ym2612"
    },
    {
      "channel": 4,
      "note": 82,
      "start": 3.518,
      "duration": 0.05,
      "velocity": 126,
      "chip": "ym2612"
    },
    {
      "channel": 0,
      "note": 79,
      "start": 3.5402,
      "duration": 0.0524,
      "velocity": 110,
      "chip": "ym2612"
    },
    {
      "channel": 2,
      "note": 65,
      "start": 3.5403,
      "duration": 0.1196,
      "velocity": 109,
      "chip": "ym2612"
    },
    {
      "channel": 5,
      "note": 77,
      "start": 3.5405,
      "duration": 0.1039,
      "velocity": 118,
      "chip": "ym2612"
    },
    {
      "channel": 1,
      "note": 74,
      "start": 3.556,
      "duration": 0.1703,
      "velocity": 109,
      "chip": "ym2612"
    },
    {
      "channel": 3,
      "note": 84,
      "start": 3.5561,
      "duration": 0.2384,
      "velocity": 112,
      "chip": "ym2612"
    },
    {
      "channel": 4,
      "note": 74,
      "start": 3.568,
      "duration": 0.0093,
      "velocity": 126,
      "chip": "ym2612"
    },
    {
      "channel": 0,
      "note": 79,
      "start": 3.6174,
      "duration": 0.0585,
      "velocity": 110,
      "chip": "ym2612"
    },
    {
      "channel": 2,
      "note": 55,
      "start": 3.6703,
      "duration": 0.1235,
      "velocity": 109,
      "chip": "ym2612"
    },
    {
      "channel": 5,
      "note": 77,
      "start": 3.6705,
      "duration": 0.1081,
      "velocity": 118,
      "chip": "ym2612"
    },
    {
      "channel": 0,
      "note": 79,
      "start": 3.7007,
      "duration": 0.0751,
      "velocity": 110,
      "chip": "ym2612"
    },
    {
      "channel": 4,
      "note": 65,
      "start": 3.7846,
      "duration": 0.0494,
      "velocity": 120,
      "chip": "ym2612"
    },
    {
      "channel": 0,
      "note": 79,
      "start": 3.8066,
      "duration": 0.2359,
      "velocity": 110,
      "chip": "ym2612"
    },
    {
      "channel": 2,
      "note": 63,
      "start": 3.8068,
      "duration": 0.1198,
      "velocity": 109,
      "chip": "ym2612"
    },
    {
      "channel": 5,
      "note": 77,
      "start": 3.8069,
      "duration": 0.1041,
      "velocity": 118,
      "chip": "ym2612"
    },
    {
      "channel": 1,
      "note": 74,
      "start": 3.8216,
      "duration": 0.1713,
      "velocity": 109,
      "chip": "ym2612"
    },
    {
      "channel": 3,
      "note": 82,
      "start": 3.8218,
      "duration": 0.2568,
      "velocity": 112,
      "chip": "ym2612"
    },
    {
      "channel": 4,
      "note": 53,
      "start": 3.834,
      "duration": 0.01,
      "velocity": 120,
      "chip": "ym2612"
    },
    {
      "channel": 2,
      "note": 55,
      "start": 3.9369,
      "duration": 0.1235,
      "velocity": 109,
      "chip": "ym2612"
    },
    {
      "channel": 5,
      "note": 77,
      "start": 3.9371,
      "duration": 0.1081,
      "velocity": 118,
      "chip": "ym2612"
    },
    {
      "channel": 4,
      "note": 82,
      "start": 4.0513,
      "duration": 0.0494,
      "velocity": 126,
      "chip": "ym2612"
    },
    {
      "channel": 0,
      "note": 82,
      "start": 4.0734,
      "duration": 0.4858,
      "velocity": 110,
      "chip": "ym2612"
    },
    {
      "channel": 2,
      "note": 62,
      "start": 4.0735,
      "duration": 0.1197,
      "velocity": 109,
      "chip": "ym2612"
    },
    {
      "channel": 5,
      "note": 77,
      "start": 4.0737,
      "duration": 0.104,
      "velocity": 118,
      "chip": "ym2612"
    },
    {
      "channel": 1,
      "note": 74,
      "start": 4.0883,
      "duration": 0.1713,
      "velocity": 109,
      "chip": "ym2612"
    },
    {
      "channel": 3,
      "note": 81,
      "start": 4.0884,
      "duration": 0.2558,
      "velocity": 112,
      "chip": "ym2612"
    },
    {
      "channel": 4,
      "note": 74,
      "start": 4.1007,
      "duration": 0.01,
      "velocity": 126,
      "chip": "ym2612"
    },
    {
      "channel": 2,
      "note": 55,
      "start": 4.2036,
      "duration": 0.1231,
      "velocity": 109,
      "chip": "ym2612"
    },
    {
      "channel": 5,
      "note": 77,
      "start": 4.2038,
      "duration": 0.108,
      "velocity": 118,
      "chip": "ym2612"
    },
    {
      "channel": 4,
      "note": 65,
      "start": 4.3178,
      "duration": 0.0495,
      "velocity": 120,
      "chip": "ym2612"
    },
    {
      "channel": 2,
      "note": 63,
      "start": 4.3371,
      "duration": 0.1229,
      "velocity": 109,
      "chip": "ym2612"
    },
    {
      "channel": 5,
      "note": 77,
      "start": 4.3372,
      "duration": 0.1079,
      "velocity": 118,
      "chip": "ym2612"
    },
    {
      "channel": 1,
      "note": 74,
      "start": 4.3539,
      "duration": 0.1723,
      "velocity": 109,
      "chip": "ym2612"
    },
    {
      "channel": 3,
      "note": 82,
      "start": 4.3541,
      "duration": 0.2578,
      "velocity": 112,
      "chip": "ym2612"
    },
    {
      "channel": 4,
      "note": 53,
      "start": 4.3673,
      "duration": 0.01,
      "velocity": 120,
      "chip": "ym2612"
    },
    {
      "channel": 4,
      "note": 65,
      "start": 4.4512,
      "duration": 0.0495,
      "velocity": 120,
      "chip": "ym2612"
    },
    {
      "channel": 2,
      "note": 55,
      "start": 4.4703,
      "duration": 0.1235,
      "velocity": 109,
      "chip": "ym2612"
    },
    {
      "channel": 5,
      "note": 77,
      "start": 4.4705,
      "duration": 0.1081,
      "velocity": 118,
      "chip": "ym2612"
    },
    {
      "channel": 4,
      "note": 53,
      "start": 4.5007,
      "duration": 0.01,
      "velocity": 120,
      "chip": "ym2612"
    },
    {
      "channel": 4,
      "note": 82,
      "start": 4.5846,
      "duration": 0.0494,
      "velocity": 126,
      "chip": "ym2612"
    },
    {
      "channel": 0,
      "note": 79,
      "start": 4.6067,
      "duration": 0.2358,
      "velocity": 110,
      "chip": "ym2612"
    },
    {
      "channel": 2,
      "note": 62,
      "start": 4.6068,
      "duration": 0.1197,
      "velocity": 109,
      "chip": "ym2612"
    },
    {
      "channel": 5,
      "note": 77,
      "start": 4.607,
      "duration": 0.104,
      "velocity": 118,
      "chip": "ym2612"
    },
    {
      "channel": 1,
      "note": 74,
      "start": 4.6216,
      "duration": 0.1713,
      "velocity": 109,
      "chip": "ym2612"
    },
    {
      "channel": 3,
      "note": 81,
      "start": 4.6217,
      "duration": 0.2567,
      "velocity": 112,
      "chip": "ym2612"
    },
    {
      "channel": 4,
      "note": 74,
      "start": 4.634,
      "duration": 0.01,
      "velocity": 126,
      "chip": "ym2612"
    },
    {
      "channel": 2,
      "note": 55,
      "start": 4.7369,
      "duration": 0.1234,
      "velocity": 109,
      "chip": "ym2612"
    },
    {
      "channel": 5,
      "note": 77,
      "start": 4.7371,
      "duration": 0.1081,
      "velocity": 118,
      "chip": "ym2612"
    },
    {
      "channel": 4,
      "note": 65,
      "start": 4.8513,
      "duration": 0.0494,
      "velocity": 120,
      "chip": "ym2612"
    },
    {
      "channel": 0,
      "note": 82,
      "start": 4.8731,
      "duration": 0.2527,
      "velocity": 110,
      "chip": "ym2612"
    },
    {
      "channel": 2,
      "note": 60,
      "start": 4.8733,
      "duration": 0.12,
      "velocity": 109,
      "chip": "ym2612"
    },
    {
      "channel": 5,
      "note": 77,
      "start": 4.8734,
      "duration": 0.1043,
      "velocity": 118,
      "chip": "ym2612"
    },
    {
      "channel": 1,
      "note": 74,
      "start": 4.8881,
      "duration": 0.1715,
      "velocity": 109,
      "chip": "ym2612"
    },
    {
      "channel": 3,
      "note": 79,
      "start": 4.8883,
      "duration": 0.2569,
      "velocity": 112,
      "chip": "ym2612"
    },
    {
      "channel": 4,
      "note": 53,
      "start": 4.9007,
      "duration": 0.01,
      "velocity": 120,
      "chip": "ym2612"
    },
    {
      "channel": 2,
      "note": 55,
      "start": 5.0036,
      "duration": 0.1235,
      "velocity": 109,
      "chip": "ym2612"
    },
    {
      "channel": 5,
      "note": 77,
      "start": 5.0038,
      "duration": 0.108,
      "velocity": 118,
      "chip": "ym2612"
    },
    {
      "channel": 4,
      "note": 82,
      "start": 5.1178,
      "duration": 0.0495,
      "velocity": 126,
      "chip": "ym2612"
    },
    {
      "channel": 0,
      "note": 79,
      "start": 5.14,
      "duration": 0.2358,
      "velocity": 110,
      "chip": "ym2612"
    },
    {
      "channel": 2,
      "note": 62,
      "start": 5.1402,
      "duration": 0.1197,
      "velocity": 109,
      "chip": "ym2612"
    },
    {
      "channel": 5,
      "note": 77,
      "start": 5.1404,
      "duration": 0.1047,
      "velocity": 118,
      "chip": "ym2612"
    },
    {
      "channel": 1,
      "note": 74,
      "start": 5.155,
      "duration": 0.1712,
      "velocity": 109,
      "chip": "ym2612"
    },
    {
      "channel": 3,
      "note": 81,
      "start": 5.1551,
      "duration": 0.2398,
      "velocity": 112,
      "chip": "ym2612"
    },
    {
      "channel": 4,
      "note": 74,
      "start": 5.1673,
      "duration": 0.01,
      "velocity": 126,
      "chip": "ym2612"
    },
    {
      "channel": 4,
      "note": 65,
      "start": 5.2512,
      "duration": 0.0495,
      "velocity": 120,
      "chip": "ym2612"
    },
    {
      "channel": 2,
      "note": 55,
      "start": 5.2703,
      "duration": 0.1237,
      "velocity": 109,
      "chip": "ym2612"
    },
    {
      "channel": 5,
      "note": 77,
      "start": 5.2705,
      "duration": 0.1085,
      "velocity": 118,
      "chip": "ym2612"
    },
    {
      "channel": 4,
      "note": 53,
      "start": 5.3007,
      "duration": 0.01,
      "velocity": 120,
      "chip": "ym2612"
    },
    {
      "channel": 4,
      "note": 65,
      "start": 5.385,
      "duration": 0.053,
      "velocity": 120,
      "chip": "ym2612"
    },
    {
      "channel": 0,
      "note": 77,
      "start": 5.4091,
      "duration": 0.2334,
      "velocity": 110,
      "chip": "ym2612"
    },
    {
      "channel": 2,
      "note": 53,
      "start": 5.4093,
      "duration": 0.1007,
      "velocity": 109,
      "chip": "ym2612"
    },
    {
      "channel": 5,
      "note": 77,
      "start": 5.4095,
      "duration": 0.1024,
      "velocity": 118,
      "chip": "ym2612"
    },
    {
      "channel": 1,
      "note": 72,
      "start": 5.4257,
      "duration": 0.1673,
      "velocity": 109,
      "chip": "ym2612"
    },
    {
      "channel": 3,
      "note": 72,
      "start": 5.4258,
      "duration": 0.2353,
      "velocity": 110,
      "chip": "ym2612"
    },
    {
      "channel": 4,
      "note": 53,
      "start": 5.4381,
      "duration": 0.0059,
      "velocity": 120,
      "chip": "ym2612"
    },
    {
      "channel": 4,
      "note": 65,
      "start": 5.518,
      "duration": 0.0494,
      "velocity": 120,
      "chip": "ym2612"
    },
    {
      "channel": 2,
      "note": 53,
      "start": 5.5369,
      "duration": 0.1235,
      "velocity": 109,
      "chip": "ym2612"
    },
    {
      "channel": 5,
      "note": 77,
      "start": 5.5371,
      "duration": 0.1081,
      "velocity": 118,
      "chip": "ym2612"
    },
    {
      "channel": 4,
      "note": 53,
      "start": 5.5673,
      "duration": 0.01,
      "velocity": 120,
      "chip": "ym2612"
    },
    {
      "channel": 4,
      "note": 82,
      "start": 5.6513,
      "duration": 0.05,
      "velocity": 126,
      "chip": "ym2612"
    },
    {
      "channel": 0,
      "note": 77,
      "start": 5.6735,
      "duration": 0.0524,
      "velocity": 110,
      "chip": "ym2612"
    },
    {
      "channel": 2,
      "note": 63,
      "start": 5.6737,
      "duration": 0.1196,
      "velocity": 109,
      "chip": "ym2612"
    },
    {
      "channel": 5,
      "note": 77,
      "start": 5.6738,
      "duration": 0.1039,
      "velocity": 118,
      "chip": "ym2612"
    },
    {
      "channel": 1,
      "note": 72,
      "start": 5.6893,
      "duration": 0.1703,
      "velocity": 109,
      "chip": "ym2612"
    },
    {
      "channel": 3,
      "note": 82,
      "start": 5.6894,
      "duration": 0.2384,
      "velocity": 112,
      "chip": "ym2612"
    },
    {
      "channel": 4,
      "note": 74,
      "start": 5.7013,
      "duration": 0.0093,
      "velocity": 126,
      "chip": "ym2612"
    },
    {
      "channel": 0,
      "note": 77,
      "start": 5.7507,
      "duration": 0.0585,
      "velocity": 110,
      "chip": "ym2612"
    },
    {
      "channel": 2,
      "note": 53,
      "start": 5.8036,
      "duration": 0.1235,
      "velocity": 109,
      "chip": "ym2612"
    },
    {
      "channel": 5,
      "note": 77,
      "start": 5.8038,
      "duration": 0.1081,
      "velocity": 118,
      "chip": "ym2612"
    },
    {
      "channel": 0,
      "note": 77,
      "start": 5.8341,
      "duration": 0.0751,
      "velocity": 110,
      "chip": "ym2612"
    },
    {
      "channel": 4,
      "note": 65,
      "start": 5.918,
      "duration": 0.0494,
      "velocity": 120,
      "chip": "ym2612"
    },
    {
      "channel": 0,
      "note": 77,
      "start": 5.9399,
      "duration": 0.2359,
      "velocity": 110,
      "chip": "ym2612"
    },
    {
      "channel": 2,
      "note": 62,
      "start": 5.9401,
      "duration": 0.1198,
      "velocity": 109,
      "chip": "ym2612"
    },
    {
      "channel": 5,
      "note": 77,
      "start": 5.9402,
      "duration": 0.1041,
      "velocity": 118,
      "chip": "ym2612"
    },
    {
      "channel": 1,
      "note": 72,
      "start": 5.9549,
      "duration": 0.1713,
      "velocity": 109,
      "chip": "ym2612"
    },
    {
      "channel": 3,
      "note": 81,
      "start": 5.9551,
      "duration": 0.2568,
      "velocity": 112,
      "chip": "ym2612"
    },
    {
      "channel": 4,
      "note": 53,
      "start": 5.9673,
      "duration": 0.01,
      "velocity": 120,
      "chip": "ym2612"
    },
    {
      "channel": 2,
      "note": 53,
      "start": 6.0703,
      "duration": 0.1235,
      "velocity": 109,
      "chip": "ym2612"
    },
    {
      "channel": 5,
      "note": 77,
      "start": 6.0705,
      "duration": 0.1081,
      "velocity": 118,
      "chip": "ym2612"
    },
    {
      "channel": 4,
      "note": 82,
      "start": 6.1846,
      "duration": 0.0494,
      "velocity": 126,
      "chip": "ym2612"
    },
    {
      "channel": 0,
      "note": 81,
      "start": 6.2067,
      "duration": 0.4858,
      "velocity": 110,
      "chip": "ym2612"
    },
    {
      "channel": 2,
      "note": 60,
      "start": 6.2068,
      "duration": 0.1197,
      "velocity": 109,
      "chip": "ym2612"
    },
    {
      "channel": 5,
      "note": 77,
      "start": 6.207,
      "duration": 0.104,
      "velocity": 118,
      "chip": "ym2612"
    },
    {
      "channel": 1,
      "note": 72,
      "start": 6.2216,
      "duration": 0.1713,
      "velocity": 109,
      "chip": "ym2612"
    },
    {
      "channel": 3,
      "note": 79,
      "start": 6.2217,
      "duration": 0.2558,
      "velocity": 112,
      "chip": "ym2612"
    },
    {
      "channel": 4,
      "note": 74,
      "start": 6.234,
      "duration": 0.01,
      "velocity": 126,
      "chip": "ym2612"
    },
    {
      "channel": 2,
      "note": 53,
      "start": 6.3369,
      "duration": 0.1231,
      "velocity": 109,
      "chip": "ym2612"
    },
    {
      "channel": 5,
      "note": 77,
      "start": 6.3371,
      "duration": 0.108,
      "velocity": 118,
      "chip": "ym2612"
    },
    {
      "channel": 4,
      "note": 65,
      "start": 6.4512,
      "duration": 0.0495,
      "velocity": 120,
      "chip": "ym2612"
    },
    {
      "channel": 2,
      "note": 62,
      "start": 6.4704,
      "duration": 0.1229,
      "velocity": 109,
      "chip": "ym2612"
    },
    {
      "channel": 5,
      "note": 77,
      "start": 6.4705,
      "duration": 0.1079,
      "velocity": 118,
      "chip": "ym2612"
    },
    {
      "channel": 1,
      "note": 72,
      "start": 6.4873,
      "duration": 0.1723,
      "velocity": 109,
      "chip": "ym2612"
    },
    {
      "channel": 3,
      "note": 81,
      "start": 6.4875,
      "duration": 0.2403,
      "velocity": 112,
      "chip": "ym2612"
    },
    {
      "channel": 4,
      "note": 53,
      "start": 6.5007,
      "duration": 0.01,
      "velocity": 120,
      "chip": "ym2612"
    },
    {
      "channel": 4,
      "note": 65,
      "start": 6.5845,
      "duration": 0.0495,
      "velocity": 120,
      "chip": "ym2612"
    },
    {
      "channel": 2,
      "note": 53,
      "start": 6.6036,
      "duration": 0.1235,
      "velocity": 109,
      "chip": "ym2612"
    },
    {
      "channel": 5,
      "note": 77,
      "start": 6.6038,
      "duration": 0.1081,
      "velocity": 118,
      "chip": "ym2612"
    },
    {
      "channel": 4,
      "note": 53,
      "start": 6.634,
      "duration": 0.01,
      "velocity": 120,
      "chip": "ym2612"
    },
    {
      "channel": 4,
      "note": 82,
      "start": 6.718,
      "duration": 0.0494,
      "velocity": 126,
      "chip": "ym2612"
    },
    {
      "channel": 0,
      "note": 77,
      "start": 6.7402,
      "duration": 0.2357,
      "velocity": 110,
      "chip": "ym2612"
    },
    {
      "channel": 2,
      "note": 60,
      "start": 6.7403,
      "duration": 0.1196,
      "velocity": 109,
      "chip": "ym2612"
    },
    {
      "channel": 5,
      "note": 77,
      "start": 6.7405,
      "duration": 0.1039,
      "velocity": 118,
      "chip": "ym2612"
    },
    {
      "channel": 1,
      "note": 72,
      "start": 6.7552,
      "duration": 0.1711,
      "velocity": 109,
      "chip": "ym2612"
    },
    {
      "channel": 3,
      "note": 79,
      "start": 6.7553,
      "duration": 0.2392,
      "velocity": 112,
      "chip": "ym2612"
    },
    {
      "channel": 4,
      "note": 74,
      "start": 6.7673,
      "duration": 0.01,
      "velocity": 126,
      "chip": "ym2612"
    },
    {
      "channel": 2,
      "note": 53,
      "start": 6.8703,
      "duration": 0.1234,
      "velocity": 109,
      "chip": "ym2612"
    },
    {
      "channel": 5,
      "note": 77,
      "start": 6.8705,
      "duration": 0.1081,
      "velocity": 118,
      "chip": "ym2612"
    },
    {
      "channel": 4,
      "note": 65,
      "start": 6.9846,
      "duration": 0.0494,
      "velocity": 120,
      "chip": "ym2612"
    },
    {
      "channel": 0,
      "note": 81,
      "start": 7.0067,
      "duration": 0.2525,
      "velocity": 110,
      "chip": "ym2612"
    },
    {
      "channel": 2,
      "note": 58,
      "start": 7.0069,
      "duration": 0.103,
      "velocity": 109,
      "chip": "ym2612"
    },
    {
      "channel": 5,
      "note": 77,
      "start": 7.007,
      "duration": 0.1041,
      "velocity": 118,
      "chip": "ym2612"
    },
    {
      "channel": 1,
      "note": 72,
      "start": 7.0218,
      "duration": 0.1711,
      "velocity": 109,
      "chip": "ym2612"
    },
    {
      "channel": 3,
      "note": 77,
      "start": 7.0219,
      "duration": 0.2566,
      "velocity": 112,
      "chip": "ym2612"
    },
    {
      "channel": 4,
      "note": 53,
      "start": 7.034,
      "duration": 0.01,
      "velocity": 120,
      "chip": "ym2612"
    },
    {
      "channel": 2,
      "note": 53,
      "start": 7.1369,
      "duration": 0.1235,
      "velocity": 109,
      "chip": "ym2612"
    },
    {
      "channel": 5,
      "note": 77,
      "start": 7.1371,
      "duration": 0.108,
      "velocity": 118,
      "chip": "ym2612"
    },
    {
      "channel": 4,
      "note": 82,
      "start": 7.2512,
      "duration": 0.0495,
      "velocity": 126,
      "chip": "ym2612"
    },
    {
      "channel": 0,
      "note": 77,
      "start": 7.2734,
      "duration": 0.2358,
      "velocity": 110,
      "chip": "ym2612"
    },
    {
      "channel": 2,
      "note": 60,
      "start": 7.2735,
      "duration": 0.1197,
      "velocity": 109,
      "chip": "ym2612"
    },
    {
      "channel": 5,
      "note": 77,
      "start": 7.2737,
      "duration": 0.1047,
      "velocity": 118,
      "chip": "ym2612"
    },
    {
      "channel": 1,
      "note": 72,
      "start": 7.2883,
      "duration": 0.1712,
      "velocity": 109,
      "chip": "ym2612"
    },
    {
      "channel": 3,
      "note": 79,
      "start": 7.2885,
      "duration": 0.2397,
      "velocity": 112,
      "chip": "ym2612"
    },
    {
      "channel": 4,
      "note": 74,
      "start": 7.3007,
      "duration": 0.01,
      "velocity": 126,
      "chip": "ym2612"
    },
    {
      "channel": 4,
      "note": 65,
      "start": 7.3845,
      "duration": 0.0495,
      "velocity": 120,
      "chip": "ym2612"
    },
    {
      "channel": 2,
      "note": 53,
      "start": 7.4036,
      "duration": 0.1236,
      "velocity": 109,
      "chip": "ym2612"
    },
    {
      "channel": 5,
      "note": 77,
      "start": 7.4038,
      "duration": 0.1085,
      "velocity": 118,
      "chip": "ym2612"
    },
    {
      "channel": 4,
      "note": 53,
      "start": 7.434,
      "duration": 0.01,
      "velocity": 120,
      "chip": "ym2612"
    },
    {
      "channel": 4,
      "note": 65,
      "start": 7.5184,
      "duration": 0.0516,
      "velocity": 120,
      "chip": "ym2612"
    },
    {
      "channel": 0,
      "note": 77,
      "start": 7.5423,
      "duration": 0.2335,
      "velocity": 110,
      "chip": "ym2612"
    },
    {
      "channel": 2,
      "note": 53,
      "start": 7.5425,
      "duration": 0.1008,
      "velocity": 109,
      "chip": "ym2612"
    },
    {
      "channel": 5,
      "note": 77,
      "start": 7.5427,
      "duration": 0.1026,
      "velocity": 118,
      "chip": "ym2612"
    },
    {
      "channel": 1,
      "note": 72,
      "start": 7.5584,
      "duration": 0.1678,
      "velocity": 109,
      "chip": "ym2612"
    },
    {
      "channel": 3,
      "note": 72,
      "start": 7.5586,
      "duration": 0.2359,
      "velocity": 110,
      "chip": "ym2612"
    },
    {
      "channel": 4,
      "note": 53,
      "start": 7.57,
      "duration": 0.0074,
      "velocity": 120,
      "chip": "ym2612"
    },
    {
      "channel": 4,
      "note": 65,
      "start": 7.6513,
      "duration": 0.0494,
      "velocity": 120,
      "chip": "ym2612"
    },
    {
      "channel": 2,
      "note": 53,
      "start": 7.6703,
      "duration": 0.1235,
      "velocity": 109,
      "chip": "ym2612"
    },
    {
      "channel": 5,
      "note": 77,
      "start": 7.6705,
      "duration": 0.1081,
      "velocity": 118,
      "chip": "ym2612"
    },
    {
      "channel": 4,
      "note": 53,
      "start": 7.7007,
      "duration": 0.01,
      "velocity": 120,
      "chip": "ym2612"
    },
    {
      "channel": 4,
      "note": 82,
      "start": 7.7846,
      "duration": 0.05,
      "velocity": 126,
      "chip": "ym2612"
    },
    {
      "channel": 0,
      "note": 77,
      "start": 7.8068,
      "duration": 0.0524,
      "velocity": 110,
      "chip": "ym2612"
    },
    {
      "channel": 2,
      "note": 63,
      "start": 7.807,
      "duration": 0.1196,
      "velocity": 109,
      "chip": "ym2612"
    },
    {
      "channel": 5,
      "note": 77,
      "start": 7.8072,
      "duration": 0.1039,
      "velocity": 118,
      "chip": "ym2612"
    },
    {
      "channel": 1,
      "note": 72,
      "start": 7.8226,
      "duration": 0.1703,
      "velocity": 109,
      "chip": "ym2612"
    },
    {
      "channel": 3,
      "note": 82,
      "start": 7.8227,
      "duration": 0.2384,
      "velocity": 112,
      "chip": "ym2612"
    },
    {
      "channel": 4,
      "note": 74,
      "start": 7.8346,
      "duration": 0.0093,
      "velocity": 126,
      "chip": "ym2612"
    },
    {
      "channel": 0,
      "note": 77,
      "start": 7.8841,
      "duration": 0.0585,
      "velocity": 110,
      "chip": "ym2612"
    },
    {
      "channel": 2,
      "note": 53,
      "start": 7.9369,
      "duration": 0.1235,
      "velocity": 109,
      "chip": "ym2612"
    },
    {
      "channel": 5,
      "note": 77,
      "start": 7.9371,
      "duration": 0.1081,
      "velocity": 118,
      "chip": "ym2612"
    },
    {
      "channel": 0,
      "note": 77,
      "start": 7.9674,
      "duration": 0.0751,
      "velocity": 110,
      "chip": "ym2612"
    },
    {
      "channel": 4,
      "note": 65,
      "start": 8.0513,
      "duration": 0.0494,
      "velocity": 120,
      "chip": "ym2612"
    },
    {
      "channel": 0,
      "note": 77,
      "start": 8.0733,
      "duration": 0.2359,
      "velocity": 110,
      "chip": "ym2612"
    },
    {
      "channel": 2,
      "note": 62,
      "start": 8.0734,
      "duration": 0.1198,
      "velocity": 109,
      "chip": "ym2612"
    },
    {
      "channel": 5,
      "note": 77,
      "start": 8.0736,
      "duration": 0.1041,
      "velocity": 118,
      "chip": "ym2612"
    },
    {
      "channel": 1,
      "note": 72,
      "start": 8.0883,
      "duration": 0.1713,
      "velocity": 109,
      "chip": "ym2612"
    },
    {
      "channel": 3,
      "note": 81,
      "start": 8.0885,
      "duration": 0.2568,
      "velocity": 112,
      "chip": "ym2612"
    },
    {
      "channel": 4,
      "note": 53,
      "start": 8.1007,
      "duration": 0.01,
      "velocity": 120,
      "chip": "ym2612"
    },
    {
      "channel": 2,
      "note": 53,
      "start": 8.2036,
      "duration": 0.1235,
      "velocity": 109,
      "chip": "ym2612"
    },
    {
      "channel": 5,
      "note": 77,
      "start": 8.2038,
      "duration": 0.1081,
      "velocity": 118,
      "chip": "ym2612"
    },
    {
      "channel": 4,
      "note": 82,
      "start": 8.318,
      "duration": 0.0494,
      "velocity": 126,
      "chip": "ym2612"
    },
    {
      "channel": 0,
      "note": 81,
      "start": 8.34,
      "duration": 0.4858,
      "velocity": 110,
      "chip": "ym2612"
    },
    {
      "channel": 2,
      "note": 60,
      "start": 8.3402,
      "duration": 0.1197,
      "velocity": 109,
      "chip": "ym2612"
    },
    {
      "channel": 5,
      "note": 77,
      "start": 8.3404,
      "duration": 0.104,
      "velocity": 118,
      "chip": "ym2612"
    },
    {
      "channel": 1,
      "note": 72,
      "start": 8.3549,
      "duration": 0.1713,
      "velocity": 109,
      "chip": "ym2612"
    },
    {
      "channel": 3,
      "note": 79,
      "start": 8.3551,
      "duration": 0.2558,
      "velocity": 112,
      "chip": "ym2612"
    },
    {
      "channel": 4,
      "note": 74,
      "start": 8.3673,
      "duration": 0.01,
      "velocity": 126,
      "chip": "ym2612"
    },
    {
      "channel": 2,
      "note": 53,
      "start": 8.4703,
      "duration": 0.1231,
      "velocity": 109,
      "chip": "ym2612"
    },
    {
      "channel": 5,
      "note": 77,
      "start": 8.4705,
      "duration": 0.108,
      "velocity": 118,
      "chip": "ym2612"
    },
    {
      "channel": 4,
      "note": 65,
      "start": 8.5845,
      "duration": 0.0495,
      "velocity": 120,
      "chip": "ym2612"
    },
    {
      "channel": 2,
      "note": 62,
      "start": 8.6037,
      "duration": 0.1229,
      "velocity": 109,
      "chip": "ym2612"
    },
    {
      "channel": 5,
      "note": 77,
      "start": 8.6039,
      "duration": 0.1079,
      "velocity": 118,
      "chip": "ym2612"
    },
    {
      "channel": 1,
      "note": 72,
      "start": 8.6207,
      "duration": 0.1723,
      "velocity": 109,
      "chip": "ym2612"
    },
    {
      "channel": 3,
      "note": 81,
      "start": 8.6208,
      "duration": 0.2403,
      "velocity": 112,
      "chip": "ym2612"
    },
    {
      "channel": 4,
      "note": 53,
      "start": 8.634,
      "duration": 0.01,
      "velocity": 120,
      "chip": "ym2612"
    },
    {
      "channel": 4,
      "note": 65,
      "start": 8.7178,
      "duration": 0.0495,
      "velocity": 120,
      "chip": "ym2612"
    },
    {
      "channel": 2,
      "note": 53,
      "start": 8.7369,
      "duration": 0.1235,
      "velocity": 109,
      "chip": "ym2612"
    },
    {
      "channel": 5,
      "note": 77,
      "start": 8.7371,
      "duration": 0.1081,
      "velocity": 118,
      "chip": "ym2612"
    },
    {
      "channel": 4,
      "note": 53,
      "start": 8.7673,
      "duration": 0.01,
      "velocity": 120,
      "chip": "ym2612"
    },
    {
      "channel": 4,
      "note": 82,
      "start": 8.8513,
      "duration": 0.0494,
      "velocity": 126,
      "chip": "ym2612"
    },
    {
      "channel": 0,
      "note": 77,
      "start": 8.8735,
      "duration": 0.2357,
      "velocity": 110,
      "chip": "ym2612"
    },
    {
      "channel": 2,
      "note": 60,
      "start": 8.8737,
      "duration": 0.1196,
      "velocity": 109,
      "chip": "ym2612"
    },
    {
      "channel": 5,
      "note": 77,
      "start": 8.8738,
      "duration": 0.1039,
      "velocity": 118,
      "chip": "ym2612"
    },
    {
      "channel": 1,
      "note": 72,
      "start": 8.8885,
      "duration": 0.1711,
      "velocity": 109,
      "chip": "ym2612"
    },
    {
      "channel": 3,
      "note": 82,
      "start": 8.8887,
      "duration": 0.2392,
      "velocity": 112,
      "chip": "ym2612"
    },
    {
      "channel": 4,
      "note": 74,
      "start": 8.9007,
      "duration": 0.01,
      "velocity": 126,
      "chip": "ym2612"
    },
    {
      "channel": 2,
      "note": 53,
      "start": 9.0036,
      "duration": 0.1234,
      "velocity": 109,
      "chip": "ym2612"
    },
    {
      "channel": 5,
      "note": 77,
      "start": 9.0038,
      "duration": 0.1081,
      "velocity": 118,
      "chip": "ym2612"
    },
    {
      "channel": 4,
      "note": 65,
      "start": 9.118,
      "duration": 0.0494,
      "velocity": 120,
      "chip": "ym2612"
    },
    {
      "channel": 0,
      "note": 81,
      "start": 9.14,
      "duration": 0.2525,
      "velocity": 110,
      "chip": "ym2612"
    },
    {
      "channel": 2,
      "note": 65,
      "start": 9.1402,
      "duration": 0.103,
      "velocity": 109,
      "chip": "ym2612"
    },
    {
      "channel": 5,
      "note": 77,
      "start": 9.1404,
      "duration": 0.1041,
      "velocity": 118,
      "chip": "ym2612"
    },
    {
      "channel": 1,
      "note": 72,
      "start": 9.1551,
      "duration": 0.1711,
      "velocity": 109,
      "chip": "ym2612"
    },
    {
      "channel": 3,
      "note": 84,
      "start": 9.1553,
      "duration": 0.2566,
      "velocity": 112,
      "chip": "ym2612"
    },
    {
      "channel": 4,
      "note": 53,
      "start": 9.1673,
      "duration": 0.01,
      "velocity": 120,
      "chip": "ym2612"
    },
    {
      "channel": 2,
      "note": 53,
      "start": 9.2703,
      "duration": 0.1235,
      "velocity": 109,
      "chip": "ym2612"
    },
    {
      "channel": 5,
      "note": 77,
      "start": 9.2705,
      "duration": 0.108,
      "velocity": 118,
      "chip": "ym2612"
    },
    {
      "channel": 4,
      "note": 82,
      "start": 9.3845,
      "duration": 0.0495,
      "velocity": 126,
      "chip": "ym2612"
    },
    {
      "channel": 0,
      "note": 77,
      "start": 9.4067,
      "duration": 0.2358,
      "velocity": 110,
      "chip": "ym2612"
    },
    {
      "channel": 2,
      "note": 63,
      "start": 9.4068,
      "duration": 0.1197,
      "velocity": 109,
      "chip": "ym2612"
    },
    {
      "channel": 5,
      "note": 77,
      "start": 9.407,
      "duration": 0.1047,
      "velocity": 118,
      "chip": "ym2612"
    },
    {
      "channel": 1,
      "note": 72,
      "start": 9.4217,
      "duration": 0.1712,
      "velocity": 109,
      "chip": "ym2612"
    },
    {
      "channel": 3,
      "note": 82,
      "start": 9.4218,
      "duration": 0.2399,
      "velocity": 112,
      "chip": "ym2612"
    },
    {
      "channel": 4,
      "note": 74,
      "start": 9.434,
      "duration": 0.01,
      "velocity": 126,
      "chip": "ym2612"
    },
    {
      "channel": 4,
      "note": 65,
      "start": 9.5178,
      "duration": 0.0495,
      "velocity": 120,
      "chip": "ym2612"
    },
    {
      "channel": 2,
      "note": 53,
      "start": 9.5369,
      "duration": 0.1239,
      "velocity": 109,
      "chip": "ym2612"
    },
    {
      "channel": 5,
      "note": 77,
      "start": 9.5371,
      "duration": 0.1085,
      "velocity": 118,
      "chip": "ym2612"
    },
    {
      "channel": 4,
      "note": 53,
      "start": 9.5673,
      "duration": 0.01,
      "velocity": 120,
      "chip": "ym2612"
    },
    {
      "channel": 4,
      "note": 65,
      "start": 9.6517,
      "duration": 0.0535,
      "velocity": 120,
      "chip": "ym2612"
    },
    {
      "channel": 0,
      "note": 79,
      "start": 9.6759,
      "duration": 0.2333,
      "velocity": 110,
      "chip": "ym2612"
    },
    {
      "channel": 2,
      "note": 55,
      "start": 9.6761,
      "duration": 0.1006,
      "velocity": 109,
      "chip": "ym2612"
    },
    {
      "channel": 5,
      "note": 77,
      "start": 9.6763,
      "duration": 0.1023,
      "velocity": 118,
      "chip": "ym2612"
    },
    {
      "channel": 1,
      "note": 74,
      "start": 9.6926,
      "duration": 0.167,
      "velocity": 109,
      "chip": "ym2612"
    },
    {
      "channel": 3,
      "note": 74,
      "start": 9.6927,
      "duration": 0.2351,
      "velocity": 110,
      "chip": "ym2612"
    },
    {
      "channel": 4,
      "note": 53,
      "start": 9.7052,
      "duration": 0.0055,
      "velocity": 120,
      "chip": "ym2612"
    },
    {
      "channel": 4,
      "note": 65,
      "start": 9.7846,
      "duration": 0.0494,
      "velocity": 120,
      "chip": "ym2612"
    },
    {
      "channel": 2,
      "note": 55,
      "start": 9.8036,
      "duration": 0.1235,
      "velocity": 109,
      "chip": "ym2612"
    },
    {
      "channel": 5,
      "note": 77,
      "start": 9.8038,
      "duration": 0.1081,
      "velocity": 118,
      "chip": "ym2612"
    },
    {
      "channel": 4,
      "note": 53,
      "start": 9.834,
      "duration": 0.01,
      "velocity": 120,
      "chip": "ym2612"
    },
    {
      "channel": 4,
      "note": 82,
      "start": 9.918,
      "duration": 0.05,
      "velocity": 126,
      "chip": "ym2612"
    },
    {
      "channel": 0,
      "note": 79,
      "start": 9.9402,
      "duration": 0.0524,
      "velocity": 110,
      "chip": "ym2612"
    },
    {
      "channel": 2,
      "note": 65,
      "start": 9.9403,
      "duration": 0.1196,
      "velocity": 109,
      "chip": "ym2612"
    },
    {
      "channel": 5,
      "note": 77,
      "start": 9.9405,
      "duration": 0.1039,
      "velocity": 118,
      "chip": "ym2612"
    },
    {
      "channel": 1,
      "note": 74,
      "start": 9.956,
      "duration": 0.1703,
      "velocity": 109,
      "chip": "ym2612"
    },
    {
      "channel": 3,
      "note": 84,
      "start": 9.9561,
      "duration": 0.2384,
      "velocity": 112,
      "chip": "ym2612"
    },
    {
      "channel": 4,
      "note": 74,
      "start": 9.968,
      "duration": 0.0093,
      "velocity": 126,
      "chip": "ym2612"
    },
    {
      "channel": 0,
      "note": 79,
      "start": 10.0174,
      "duration": 0.0585,
      "velocity": 110,
      "chip": "ym2612"
    },
    {
      "channel": 2,
      "note": 55,
      "start": 10.0703,
      "duration": 0.1235,
      "velocity": 109,
      "chip": "ym2612"
    },
    {
      "channel": 5,
      "note": 77,
      "start": 10.0705,
      "duration": 0.1081,
      "velocity": 118,
      "chip": "ym2612"
    },
    {
      "channel": 0,
      "note": 79,
      "start": 10.1007,
      "duration": 0.0751,
      "velocity": 110,
      "chip": "ym2612"
    },
    {
      "channel": 4,
      "note": 65,
      "start": 10.1846,
      "duration": 0.0494,
      "velocity": 120,
      "chip": "ym2612"
    },
    {
      "channel": 0,
      "note": 79,
      "start": 10.2066,
      "duration": 0.2359,
      "velocity": 110,
      "chip": "ym2612"
    },
    {
      "channel": 2,
      "note": 63,
      "start": 10.2068,
      "duration": 0.1198,
      "velocity": 109,
      "chip": "ym2612"
    },
    {
      "channel": 5,
      "note": 77,
      "start": 10.2069,
      "duration": 0.1041,
      "velocity": 118,
      "chip": "ym2612"
    },
    {
      "channel": 1,
      "note": 74,
      "start": 10.2216,
      "duration": 0.1713,
      "velocity": 109,
      "chip": "ym2612"
    },
    {
      "channel": 3,
      "note": 82,
      "start": 10.2218,
      "duration": 0.2568,
      "velocity": 112,
      "chip": "ym2612"
    },
    {
      "channel": 4,
      "note": 53,
      "start": 10.234,
      "duration": 0.01,
      "velocity": 120,
      "chip": "ym2612"
    },
    {
      "channel": 2,
      "note": 55,
      "start": 10.3369,
      "duration": 0.1235,
      "velocity": 109,
      "chip": "ym2612"
    },
    {
      "channel": 5,
      "note": 77,
      "start": 10.3371,
      "duration": 0.1081,
      "velocity": 118,
      "chip": "ym2612"
    },
    {
      "channel": 4,
      "note": 82,
      "start": 10.4513,
      "duration": 0.0494,
      "velocity": 126,
      "chip": "ym2612"
    },
    {
      "channel": 0,
      "note": 82,
      "start": 10.4734,
      "duration": 0.4858,
      "velocity": 110,
      "chip": "ym2612"
    },
    {
      "channel": 2,
      "note": 62,
      "start": 10.4735,
      "duration": 0.1197,
      "velocity": 109,
      "chip": "ym2612"
    },
    {
      "channel": 5,
      "note": 77,
      "start": 10.4737,
      "duration": 0.104,
      "velocity": 118,
      "chip": "ym2612"
    },
    {
      "channel": 1,
      "note": 74,
      "start": 10.4883,
      "duration": 0.1713,
      "velocity": 109,
      "chip": "ym2612"
    },
    {
      "channel": 3,
      "note": 81,
      "start": 10.4884,
      "duration": 0.2558,
      "velocity": 112,
      "chip": "ym2612"
    },
    {
      "channel": 4,
      "note": 74,
      "start": 10.5007,
      "duration": 0.01,
      "velocity": 126,
      "chip": "ym2612"
    },
    {
      "channel": 2,
      "note": 55,
      "start": 10.6036,
      "duration": 0.1231,
      "velocity": 109,
      "chip": "ym2612"
    },
    {
      "channel": 5,
      "note": 77,
      "start": 10.6038,
      "duration": 0.108,
      "velocity": 118,
      "chip": "ym2612"
    },
    {
      "channel": 4,
      "note": 65,
      "start": 10.7178,
      "duration": 0.0495,
      "velocity": 120,
      "chip": "ym2612"
    },
    {
      "channel": 2,
      "note": 63,
      "start": 10.7371,
      "duration": 0.1229,
      "velocity": 109,
      "chip": "ym2612"
    },
    {
      "channel": 5,
      "note": 77,
      "start": 10.7372,
      "duration": 0.1079,
      "velocity": 118,
      "chip": "ym2612"
    },
    {
      "channel": 1,
      "note": 74,
      "start": 10.7539,
      "duration": 0.1723,
      "velocity": 109,
      "chip": "ym2612"
    },
    {
      "channel": 3,
      "note": 82,
      "start": 10.7541,
      "duration": 0.2578,
      "velocity": 112,
      "chip": "ym2612"
    },
    {
      "channel": 4,
      "note": 53,
      "start": 10.7673,
      "duration": 0.01,
      "velocity": 120,
      "chip": "ym2612"
    },
    {
      "channel": 4,
      "note": 65,
      "start": 10.8512,
      "duration": 0.0495,
      "velocity": 120,
      "chip": "ym2612"
    },
    {
      "channel": 2,
      "note": 55,
      "start": 10.8703,
      "duration": 0.1235,
      "velocity": 109,
      "chip": "ym2612"
    },
    {
      "channel": 5,
      "note": 77,
      "start": 10.8705,
      "duration": 0.1081,
      "velocity": 118,
      "chip": "ym2612"
    },
    {
      "channel": 4,
      "note": 53,
      "start": 10.9007,
      "duration": 0.01,
      "velocity": 120,
      "chip": "ym2612"
    },
    {
      "channel": 4,
      "note": 82,
      "start": 10.9846,
      "duration": 0.0494,
      "velocity": 126,
      "chip": "ym2612"
    },
    {
      "channel": 0,
      "note": 79,
      "start": 11.0067,
      "duration": 0.2358,
      "velocity": 110,
      "chip": "ym2612"
    },
    {
      "channel": 2,
      "note": 62,
      "start": 11.0068,
      "duration": 0.1197,
      "velocity": 109,
      "chip": "ym2612"
    },
    {
      "channel": 5,
      "note": 77,
      "start": 11.007,
      "duration": 0.104,
      "velocity": 118,
      "chip": "ym2612"
    },
    {
      "channel": 1,
      "note": 74,
      "start": 11.0216,
      "duration": 0.1713,
      "velocity": 109,
      "chip": "ym2612"
    },
    {
      "channel": 3,
      "note": 81,
      "start": 11.0217,
      "duration": 0.2567,
      "velocity": 112,
      "chip": "ym2612"
    },
    {
      "channel": 4,
      "note": 74,
      "start": 11.034,
      "duration": 0.01,
      "velocity": 126,
      "chip": "ym2612"
    },
    {
      "channel": 2,
      "note": 55,
      "start": 11.1369,
      "duration": 0.1234,
      "velocity": 109,
      "chip": "ym2612"
    },
    {
      "channel": 5,
      "note": 77,
      "start": 11.1371,
      "duration": 0.1081,
      "velocity": 118,
      "chip": "ym2612"
    },
    {
      "channel": 4,
      "note": 65,
      "start": 11.2513,
      "duration": 0.0494,
      "velocity": 120,
      "chip": "ym2612"
    },
    {
      "channel": 0,
      "note": 82,
      "start": 11.2731,
      "duration": 0.2527,
      "velocity": 110,
      "chip": "ym2612"
    },
    {
      "channel": 2,
      "note": 60,
      "start": 11.2733,
      "duration": 0.12,
      "velocity": 109,
      "chip": "ym2612"
    },
    {
      "channel": 5,
      "note": 77,
      "start": 11.2734,
      "duration": 0.1043,
      "velocity": 118,
      "chip": "ym2612"
    },
    {
      "channel": 1,
      "note": 74,
      "start": 11.2881,
      "duration": 0.1715,
      "velocity": 109,
      "chip": "ym2612"
    },
    {
      "channel": 3,
      "note": 79,
      "start": 11.2883,
      "duration": 0.2569,
      "velocity": 112,
      "chip": "ym2612"
    },
    {
      "channel": 4,
      "note": 53,
      "start": 11.3007,
      "duration": 0.01,
      "velocity": 120,
      "chip": "ym2612"
    },
    {
      "channel": 2,
      "note": 55,
      "start": 11.4036,
      "duration": 0.1235,
      "velocity": 109,
      "chip": "ym2612"
    },
    {
      "channel": 5,
      "note": 77,
      "start": 11.4038,
      "duration": 0.108,
      "velocity": 118,
      "chip": "ym2612"
    },
    {
      "channel": 4,
      "note": 82,
      "start": 11.5178,
      "duration": 0.0495,
      "velocity": 126,
      "chip": "ym2612"
    },
    {
      "channel": 0,
      "note": 79,
      "start": 11.54,
      "duration": 0.2358,
      "velocity": 110,
      "chip": "ym2612"
    },
    {
      "channel": 2,
      "note": 62,
      "start": 11.5402,
      "duration": 0.1197,
      "velocity": 109,
      "chip": "ym2612"
    },
    {
      "channel": 5,
      "note": 77,
      "start": 11.5404,
      "duration": 0.1047,
      "velocity": 118,
      "chip": "ym2612"
    },
    {
      "channel": 1,
      "note": 74,
      "start": 11.555,
      "duration": 0.1712,
      "velocity": 109,
      "chip": "ym2612"
    },
    {
      "channel": 3,
      "note": 81,
      "start": 11.5551,
      "duration": 0.2394,
      "velocity": 112,
      "chip": "ym2612"
    },
    {
      "channel": 4,
      "note": 74,
      "start": 11.5673,
      "duration": 0.01,
      "velocity": 126,
      "chip": "ym2612"
    },
    {
      "channel": 4,
      "note": 65,
      "start": 11.6512,
      "duration": 0.0495,
      "velocity": 120,
      "chip": "ym2612"
    },
    {
      "channel": 2,
      "note": 55,
      "start": 11.6703,
      "duration": 0.1236,
      "velocity": 109,
      "chip": "ym2612"
    },
    {
      "channel": 5,
      "note": 77,
      "start": 11.6705,
      "duration": 0.1085,
      "velocity": 118,
      "chip": "ym2612"
    },
    {
      "channel": 4,
      "note": 53,
      "start": 11.7007,
      "duration": 0.01,
      "velocity": 120,
      "chip": "ym2612"
    },
    {
      "channel": 4,
      "note": 65,
      "start": 11.785,
      "duration": 0.0514,
      "velocity": 120,
      "chip": "ym2612"
    },
    {
      "channel": 0,
      "note": 79,
      "start": 11.8088,
      "duration": 0.2337,
      "velocity": 110,
      "chip": "ym2612"
    },
    {
      "channel": 2,
      "note": 55,
      "start": 11.8089,
      "duration": 0.1176,
      "velocity": 109,
      "chip": "ym2612"
    },
    {
      "channel": 5,
      "note": 77,
      "start": 11.8091,
      "duration": 0.1026,
      "velocity": 118,
      "chip": "ym2612"
    },
    {
      "channel": 1,
      "note": 74,
      "start": 11.8249,
      "duration": 0.168,
      "velocity": 109,
      "chip": "ym2612"
    },
    {
      "channel": 3,
      "note": 74,
      "start": 11.825,
      "duration": 0.2361,
      "velocity": 110,
      "chip": "ym2612"
    },
    {
      "channel": 4,
      "note": 53,
      "start": 11.8364,
      "duration": 0.0076,
      "velocity": 120,
      "chip": "ym2612"
    },
    {
      "channel": 4,
      "note": 65,
      "start": 11.9178,
      "duration": 0.0495,
      "velocity": 120,
      "chip": "ym2612"
    },
    {
      "channel": 2,
      "note": 55,
      "start": 11.9369,
      "duration": 0.1235,
      "velocity": 109,
      "chip": "ym2612"
    },
    {
      "channel": 5,
      "note": 77,
      "start": 11.9371,
      "duration": 0.1081,
      "velocity": 118,
      "chip": "ym2612"
    },
    {
      "channel": 4,
      "note": 53,
      "start": 11.9673,
      "duration": 0.01,
      "velocity": 120,
      "chip": "ym2612"
    },
    {
      "channel": 4,
      "note": 82,
      "start": 12.0513,
      "duration": 0.05,
      "velocity": 126,
      "chip": "ym2612"
    },
    {
      "channel": 0,
      "note": 79,
      "start": 12.0735,
      "duration": 0.0524,
      "velocity": 110,
      "chip": "ym2612"
    },
    {
      "channel": 2,
      "note": 65,
      "start": 12.0737,
      "duration": 0.1196,
      "velocity": 109,
      "chip": "ym2612"
    },
    {
      "channel": 5,
      "note": 77,
      "start": 12.0738,
      "duration": 0.1039,
      "velocity": 118,
      "chip": "ym2612"
    },
    {
      "channel": 1,
      "note": 74,
      "start": 12.0893,
      "duration": 0.1703,
      "velocity": 109,
      "chip": "ym2612"
    },
    {
      "channel": 3,
      "note": 84,
      "start": 12.0894,
      "duration": 0.2384,
      "velocity": 112,
      "chip": "ym2612"
    },
    {
      "channel": 4,
      "note": 74,
      "start": 12.1013,
      "duration": 0.0093,
      "velocity": 126,
      "chip": "ym2612"
    },
    {
      "channel": 0,
      "note": 79,
      "start": 12.1507,
      "duration": 0.0585,
      "velocity": 110,
      "chip": "ym2612"
    },
    {
      "channel": 2,
      "note": 55,
      "start": 12.2036,
      "duration": 0.1235,
      "velocity": 109,
      "chip": "ym2612"
    },
    {
      "channel": 5,
      "note": 77,
      "start": 12.2038,
      "duration": 0.1081,
      "velocity": 118,
      "chip": "ym2612"
    },
    {
      "channel": 0,
      "note": 79,
      "start": 12.2341,
      "duration": 0.0751,
      "velocity": 110,
      "chip": "ym2612"
    },
    {
      "channel": 4,
      "note": 65,
      "start": 12.318,
      "duration": 0.0494,
      "velocity": 120,
      "chip": "ym2612"
    },
    {
      "channel": 0,
      "note": 79,
      "start": 12.3399,
      "duration": 0.2359,
      "velocity": 110,
      "chip": "ym2612"
    },
    {
      "channel": 2,
      "note": 63,
      "start": 12.3401,
      "duration": 0.1198,
      "velocity": 109,
      "chip": "ym2612"
    },
    {
      "channel": 5,
      "note": 77,
      "start": 12.3402,
      "duration": 0.1041,
      "velocity": 118,
      "chip": "ym2612"
    },
    {
      "channel": 1,
      "note": 74,
      "start": 12.3549,
      "duration": 0.1713,
      "velocity": 109,
      "chip": "ym2612"
    },
    {
      "channel": 3,
      "note": 82,
      "start": 12.3551,
      "duration": 0.2568,
      "velocity": 112,
      "chip": "ym2612"
    },
    {
      "channel": 4,
      "note": 53,
      "start": 12.3673,
      "duration": 0.01,
      "velocity": 120,
      "chip": "ym2612"
    },
    {
      "channel": 2,
      "note": 55,
      "start": 12.4703,
      "duration": 0.1235,
      "velocity": 109,
      "chip": "ym2612"
    },
    {
      "channel": 5,
      "note": 77,
      "start": 12.4705,
      "duration": 0.1081,
      "velocity": 118,
      "chip": "ym2612"
    },
    {
      "channel": 4,
      "note": 82,
      "start": 12.5846,
      "duration": 0.0494,
      "velocity": 126,
      "chip": "ym2612"
    },
    {
      "channel": 0,
      "note": 82,
      "start": 12.6067,
      "duration": 0.4858,
      "velocity": 110,
      "chip": "ym2612"
    },
    {
      "channel": 2,
      "note": 62,
      "start": 12.6068,
      "duration": 0.1197,
      "velocity": 109,
      "chip": "ym2612"
    },
    {
      "channel": 5,
      "note": 77,
      "start": 12.607,
      "duration": 0.104,
      "velocity": 118,
      "chip": "ym2612"
    },
    {
      "channel": 1,
      "note": 74,
      "start": 12.6216,
      "duration": 0.1713,
      "velocity": 109,
      "chip": "ym2612"
    },
    {
      "channel": 3,
      "note": 81,
      "start": 12.6217,
      "duration": 0.2558,
      "velocity": 112,
      "chip": "ym2612"
    },
    {
      "channel": 4,
      "note": 74,
      "start": 12.634,
      "duration": 0.01,
      "velocity": 126,
      "chip": "ym2612"
    },
    {
      "channel": 2,
      "note": 55,
      "start": 12.7369,
      "duration": 0.1231,
      "velocity": 109,
      "chip": "ym2612"
    },
    {
      "channel": 5,
      "note": 77,
      "start": 12.7371,
      "duration": 0.108,
      "velocity": 118,
      "chip": "ym2612"
    },
    {
      "channel": 4,
      "note": 65,
      "start": 12.8512,
      "duration": 0.0495,
      "velocity": 120,
      "chip": "ym2612"
    },
    {
      "channel": 2,
      "note": 63,
      "start": 12.8704,
      "duration": 0.1229,
      "velocity": 109,
      "chip": "ym2612"
    },
    {
      "channel": 5,
      "note": 77,
      "start": 12.8705,
      "duration": 0.1079,
      "velocity": 118,
      "chip": "ym2612"
    },
    {
      "channel": 1,
      "note": 74,
      "start": 12.8873,
      "duration": 0.1723,
      "velocity": 109,
      "chip": "ym2612"
    },
    {
      "channel": 3,
      "note": 82,
      "start": 12.8874,
      "duration": 0.2578,
      "velocity": 112,
      "chip": "ym2612"
    },
    {
      "channel": 4,
      "note": 53,
      "start": 12.9007,
      "duration": 0.01,
      "velocity": 120,
      "chip": "ym2612"
    },
    {
      "channel": 4,
      "note": 65,
      "start": 12.9845,
      "duration": 0.0495,
      "velocity": 120,
      "chip": "ym2612"
    },
    {
      "channel": 2,
      "note": 55,
      "start": 13.0036,
      "duration": 0.1235,
      "velocity": 109,
      "chip": "ym2612"
    },
    {
      "channel": 5,
      "note": 77,
      "start": 13.0038,
      "duration": 0.1081,
      "velocity": 118,
      "chip": "ym2612"
    },
    {
      "channel": 4,
      "note": 53,
      "start": 13.034,
      "duration": 0.01,
      "velocity": 120,
      "chip": "ym2612"
    },
    {
      "channel": 4,
      "note": 82,
      "start": 13.118,
      "duration": 0.0494,
      "velocity": 126,
      "chip": "ym2612"
    },
    {
      "channel": 0,
      "note": 79,
      "start": 13.14,
      "duration": 0.2358,
      "velocity": 110,
      "chip": "ym2612"
    },
    {
      "channel": 2,
      "note": 62,
      "start": 13.1402,
      "duration": 0.1197,
      "velocity": 109,
      "chip": "ym2612"
    },
    {
      "channel": 5,
      "note": 77,
      "start": 13.1404,
      "duration": 0.104,
      "velocity": 118,
      "chip": "ym2612"
    },
    {
      "channel": 1,
      "note": 74,
      "start": 13.1549,
      "duration": 0.1713,
      "velocity": 109,
      "chip": "ym2612"
    },
    {
      "channel": 3,
      "note": 81,
      "start": 13.1551,
      "duration": 0.2567,
      "velocity": 112,
      "chip": "ym2612"
    },
    {
      "channel": 4,
      "note": 74,
      "start": 13.1673,
      "duration": 0.01,
      "velocity": 126,
      "chip": "ym2612"
    },
    {
      "channel": 2,
      "note": 55,
      "start": 13.2703,
      "duration": 0.1234,
      "velocity": 109,
      "chip": "ym2612"
    },
    {
      "channel": 5,
      "note": 77,
      "start": 13.2705,
      "duration": 0.1081,
      "velocity": 118,
      "chip": "ym2612"
    },
    {
      "channel": 4,
      "note": 65,
      "start": 13.3846,
      "duration": 0.0494,
      "velocity": 120,
      "chip": "ym2612"
    },
    {
      "channel": 0,
      "note": 82,
      "start": 13.4065,
      "duration": 0.2527,
      "velocity": 110,
      "chip": "ym2612"
    },
    {
      "channel": 2,
      "note": 60,
      "start": 13.4066,
      "duration": 0.12,
      "velocity": 109,
      "chip": "ym2612"
    },
    {
      "channel": 5,
      "note": 77,
      "start": 13.4068,
      "duration": 0.1043,
      "velocity": 118,
      "chip": "ym2612"
    },
    {
      "channel": 1,
      "note": 74,
      "start": 13.4215,
      "duration": 0.1715,
      "velocity": 109,
      "chip": "ym2612"
    },
    {
      "channel": 3,
      "note": 79,
      "start": 13.4216,
      "duration": 0.2569,
      "velocity": 112,
      "chip": "ym2612"
    },
    {
      "channel": 4,
      "note": 53,
      "start": 13.434,
      "duration": 0.01,
      "velocity": 120,
      "chip": "ym2612"
    },
    {
      "channel": 2,
      "note": 55,
      "start": 13.5369,
      "duration": 0.1235,
      "velocity": 109,
      "chip": "ym2612"
    },
    {
      "channel": 5,
      "note": 77,
      "start": 13.5371,
      "duration": 0.108,
      "velocity": 118,
      "chip": "ym2612"
    },
    {
      "channel": 4,
      "note": 82,
      "start": 13.6512,
      "duration": 0.0495,
      "velocity": 126,
      "chip": "ym2612"
    },
    {
      "channel": 0,
      "note": 79,
      "start": 13.6734,
      "duration": 0.2358,
      "velocity": 110,
      "chip": "ym2612"
    },
    {
      "channel": 2,
      "note": 62,
      "start": 13.6735,
      "duration": 0.1197,
      "velocity": 109,
      "chip": "ym2612"
    },
    {
      "channel": 5,
      "note": 77,
      "start": 13.6737,
      "duration": 0.1047,
      "velocity": 118,
      "chip": "ym2612"
    },
    {
      "channel": 1,
      "note": 74,
      "start": 13.6883,
      "duration": 0.1712,
      "velocity": 109,
      "chip": "ym2612"
    },
    {
      "channel": 3,
      "note": 81,
      "start": 13.6885,
      "duration": 0.2398,
      "velocity": 112,
      "chip": "ym2612"
    },
    {
      "channel": 4,
      "note": 74,
      "start": 13.7007,
      "duration": 0.01,
      "velocity": 126,
      "chip": "ym2612"
    },
    {
      "channel": 4,
      "note": 65,
      "start": 13.7845,
      "duration": 0.0495,
      "velocity": 120,
      "chip": "ym2612"
    },
    {
      "channel": 2,
      "note": 55,
      "start": 13.8036,
      "duration": 0.1237,
      "velocity": 109,
      "chip": "ym2612"
    },
    {
      "channel": 5,
      "note": 77,
      "start": 13.8038,
      "duration": 0.1085,
      "velocity": 118,
      "chip": "ym2612"
    },
    {
      "channel": 4,
      "note": 53,
      "start": 13.834,
      "duration": 0.01,
      "velocity": 120,
      "chip": "ym2612"
    },
    {
      "channel": 4,
      "note": 65,
      "start": 13.9184,
      "duration": 0.053,
      "velocity": 120,
      "chip": "ym2612"
    },
    {
      "channel": 0,
      "note": 77,
      "start": 13.9425,
      "duration": 0.2334,
      "velocity": 110,
      "chip": "ym2612"
    },
    {
      "channel": 2,
      "note": 53,
      "start": 13.9426,
      "duration": 0.1007,
      "velocity": 109,
      "chip": "ym2612"
    },
    {
      "channel": 5,
      "note": 77,
      "start": 13.9428,
      "duration": 0.1024,
      "velocity": 118,
      "chip": "ym2612"
    },
    {
      "channel": 1,
      "note": 72,
      "start": 13.959,
      "duration": 0.1673,
      "velocity": 109,
      "chip": "ym2612"
    },
    {
      "channel": 3,
      "note": 72,
      "start": 13.9591,
      "duration": 0.2353,
      "velocity": 110,
      "chip": "ym2612"
    },
    {
      "channel": 4,
      "note": 53,
      "start": 13.9714,
      "duration": 0.0059,
      "velocity": 120,
      "chip": "ym2612"
    },
    {
      "channel": 4,
      "note": 65,
      "start": 14.0513,
      "duration": 0.0494,
      "velocity": 120,
      "chip": "ym2612"
    },
    {
      "channel": 2,
      "note": 53,
      "start": 14.0703,
      "duration": 0.1235,
      "velocity": 109,
      "chip": "ym2612"
    },
    {
      "channel": 5,
      "note": 77,
      "start": 14.0705,
      "duration": 0.1081,
      "velocity": 118,
      "chip": "ym2612"
    },
    {
      "channel": 4,
      "note": 53,
      "start": 14.1007,
      "duration": 0.01,
      "velocity": 120,
      "chip": "ym2612"
    },
    {
      "channel": 4,
      "note": 82,
      "start": 14.1846,
      "duration": 0.05,
      "velocity": 126,
      "chip": "ym2612"
    },
    {
      "channel": 0,
      "note": 77,
      "start": 14.2068,
      "duration": 0.0524,
      "velocity": 110,
      "chip": "ym2612"
    },
    {
      "channel": 2,
      "note": 63,
      "start": 14.207,
      "duration": 0.1196,
      "velocity": 109,
      "chip": "ym2612"
    },
    {
      "channel": 5,
      "note": 77,
      "start": 14.2072,
      "duration": 0.1039,
      "velocity": 118,
      "chip": "ym2612"
    },
    {
      "channel": 1,
      "note": 72,
      "start": 14.2226,
      "duration": 0.1703,
      "velocity": 109,
      "chip": "ym2612"
    },
    {
      "channel": 3,
      "note": 82,
      "start": 14.2227,
      "duration": 0.2384,
      "velocity": 112,
      "chip": "ym2612"
    },
    {
      "channel": 4,
      "note": 74,
      "start": 14.2346,
      "duration": 0.0093,
      "velocity": 126,
      "chip": "ym2612"
    },
    {
      "channel": 0,
      "note": 77,
      "start": 14.2841,
      "duration": 0.0585,
      "velocity": 110,
      "chip": "ym2612"
    },
    {
      "channel": 2,
      "note": 53,
      "start": 14.3369,
      "duration": 0.1235,
      "velocity": 109,
      "chip": "ym2612"
    },
    {
      "channel": 5,
      "note": 77,
      "start": 14.3371,
      "duration": 0.1081,
      "velocity": 118,
      "chip": "ym2612"
    },
    {
      "channel": 0,
      "note": 77,
      "start": 14.3674,
      "duration": 0.0751,
      "velocity": 110,
      "chip": "ym2612"
    },
    {
      "channel": 4,
      "note": 65,
      "start": 14.4513,
      "duration": 0.0494,
      "velocity": 120,
      "chip": "ym2612"
    },
    {
      "channel": 0,
      "note": 77,
      "start": 14.4733,
      "duration": 0.2359,
      "velocity": 110,
      "chip": "ym2612"
    },
    {
      "channel": 2,
      "note": 62,
      "start": 14.4734,
      "duration": 0.1198,
      "velocity": 109,
      "chip": "ym2612"
    },
    {
      "channel": 5,
      "note": 77,
      "start": 14.4736,
      "duration": 0.1041,
      "velocity": 118,
      "chip": "ym2612"
    },
    {
      "channel": 1,
      "note": 72,
      "start": 14.4883,
      "duration": 0.1713,
      "velocity": 109,
      "chip": "ym2612"
    },
    {
      "channel": 3,
      "note": 81,
      "start": 14.4885,
      "duration": 0.2568,
      "velocity": 112,
      "chip": "ym2612"
    },
    {
      "channel": 4,
      "note": 53,
      "start": 14.5007,
      "duration": 0.01,
      "velocity": 120,
      "chip": "ym2612"
    },
    {
      "channel": 2,
      "note": 53,
      "start": 14.6036,
      "duration": 0.1235,
      "velocity": 109,
      "chip": "ym2612"
    },
    {
      "channel": 5,
      "note": 77,
      "start": 14.6038,
      "duration": 0.1081,
      "velocity": 118,
      "chip": "ym2612"
    },
    {
      "channel": 4,
      "note": 82,
      "start": 14.718,
      "duration": 0.0494,
      "velocity": 126,
      "chip": "ym2612"
    },
    {
      "channel": 0,
      "note": 81,
      "start": 14.74,
      "duration": 0.4858,
      "velocity": 110,
      "chip": "ym2612"
    },
    {
      "channel": 2,
      "note": 60,
      "start": 14.7402,
      "duration": 0.1197,
      "velocity": 109,
      "chip": "ym2612"
    },
    {
      "channel": 5,
      "note": 77,
      "start": 14.7404,
      "duration": 0.104,
      "velocity": 118,
      "chip": "ym2612"
    },
    {
      "channel": 1,
      "note": 72,
      "start": 14.7549,
      "duration": 0.1713,
      "velocity": 109,
      "chip": "ym2612"
    },
    {
      "channel": 3,
      "note": 79,
      "start": 14.7551,
      "duration": 0.2558,
      "velocity": 112,
      "chip": "ym2612"
    },
    {
      "channel": 4,
      "note": 74,
      "start": 14.7673,
      "duration": 0.01,
      "velocity": 126,
      "chip": "ym2612"
    },
    {
      "channel": 2,
      "note": 53,
      "start": 14.8703,
      "duration": 0.1231,
      "velocity": 109,
      "chip": "ym2612"
    },
    {
      "channel": 5,
      "note": 77,
      "start": 14.8705,
      "duration": 0.108,
      "velocity": 118,
      "chip": "ym2612"
    },
    {
      "channel": 4,
      "note": 65,
      "start": 14.9845,
      "duration": 0.0495,
      "velocity": 120,
      "chip": "ym2612"
    },
    {
      "channel": 2,
      "note": 62,
      "start": 15.0037,
      "duration": 0.1229,
      "velocity": 109,
      "chip": "ym2612"
    },
    {
      "channel": 5,
      "note": 77,
      "start": 15.0039,
      "duration": 0.1079,
      "velocity": 118,
      "chip": "ym2612"
    },
    {
      "channel": 1,
      "note": 72,
      "start": 15.0207,
      "duration": 0.1723,
      "velocity": 109,
      "chip": "ym2612"
    },
    {
      "channel": 3,
      "note": 81,
      "start": 15.0208,
      "duration": 0.2403,
      "velocity": 112,
      "chip": "ym2612"
    },
    {
      "channel": 4,
      "note": 53,
      "start": 15.034,
      "duration": 0.01,
      "velocity": 120,
      "chip": "ym2612"
    },
    {
      "channel": 4,
      "note": 65,
      "start": 15.1178,
      "duration": 0.0495,
      "velocity": 120,
      "chip": "ym2612"
    },
    {
      "channel": 2,
      "note": 53,
      "start": 15.1369,
      "duration": 0.1235,
      "velocity": 109,
      "chip": "ym2612"
    },
    {
      "channel": 5,
      "note": 77,
      "start": 15.1371,
      "duration": 0.1081,
      "velocity": 118,
      "chip": "ym2612"
    },
    {
      "channel": 4,
      "note": 53,
      "start": 15.1673,
      "duration": 0.01,
      "velocity": 120,
      "chip": "ym2612"
    },
    {
      "channel": 4,
      "note": 82,
      "start": 15.2513,
      "duration": 0.0494,
      "velocity": 126,
      "chip": "ym2612"
    },
    {
      "channel": 0,
      "note": 77,
      "start": 15.2735,
      "duration": 0.2357,
      "velocity": 110,
      "chip": "ym2612"
    },
    {
      "channel": 2,
      "note": 60,
      "start": 15.2737,
      "duration": 0.1196,
      "velocity": 109,
      "chip": "ym2612"
    },
    {
      "channel": 5,
      "note": 77,
      "start": 15.2738,
      "duration": 0.1039,
      "velocity": 118,
      "chip": "ym2612"
    },
    {
      "channel": 1,
      "note": 72,
      "start": 15.2885,
      "duration": 0.1711,
      "velocity": 109,
      "chip": "ym2612"
    },
    {
      "channel": 3,
      "note": 79,
      "start": 15.2887,
      "duration": 0.2392,
      "velocity": 112,
      "chip": "ym2612"
    },
    {
      "channel": 4,
      "note": 74,
      "start": 15.3007,
      "duration": 0.01,
      "velocity": 126,
      "chip": "ym2612"
    },
    {
      "channel": 2,
      "note": 53,
      "start": 15.4036,
      "duration": 0.1234,
      "velocity": 109,
      "chip": "ym2612"
    },
    {
      "channel": 5,
      "note": 77,
      "start": 15.4038,
      "duration": 0.1081,
      "velocity": 118,
      "chip": "ym2612"
    },
    {
      "channel": 4,
      "note": 65,
      "start": 15.518,
      "duration": 0.0494,
      "velocity": 120,
      "chip": "ym2612"
    },
    {
      "channel": 0,
      "note": 81,
      "start": 15.54,
      "duration": 0.2525,
      "velocity": 110,
      "chip": "ym2612"
    },
    {
      "channel": 2,
      "note": 58,
      "start": 15.5402,
      "duration": 0.103,
      "velocity": 109,
      "chip": "ym2612"
    },
    {
      "channel": 5,
      "note": 77,
      "start": 15.5404,
      "duration": 0.1041,
      "velocity": 118,
      "chip": "ym2612"
    },
    {
      "channel": 1,
      "note": 72,
      "start": 15.5551,
      "duration": 0.1711,
      "velocity": 109,
      "chip": "ym2612"
    },
    {
      "channel": 3,
      "note": 77,
      "start": 15.5553,
      "duration": 0.2566,
      "velocity": 112,
      "chip": "ym2612"
    },
    {
      "channel": 4,
      "note": 53,
      "start": 15.5673,
      "duration": 0.01,
      "velocity": 120,
      "chip": "ym2612"
    },
    {
      "channel": 2,
      "note": 53,
      "start": 15.6703,
      "duration": 0.1235,
      "velocity": 109,
      "chip": "ym2612"
    },
    {
      "channel": 5,
      "note": 77,
      "start": 15.6705,
      "duration": 0.108,
      "velocity": 118,
      "chip": "ym2612"
    },
    {
      "channel": 4,
      "note": 82,
      "start": 15.7845,
      "duration": 0.0495,
      "velocity": 126,
      "chip": "ym2612"
    },
    {
      "channel": 0,
      "note": 77,
      "start": 15.8067,
      "duration": 0.2358,
      "velocity": 110,
      "chip": "ym2612"
    },
    {
      "channel": 2,
      "note": 60,
      "start": 15.8068,
      "duration": 0.1197,
      "velocity": 109,
      "chip": "ym2612"
    },
    {
      "channel": 5,
      "note": 77,
      "start": 15.807,
      "duration": 0.1047,
      "velocity": 118,
      "chip": "ym2612"
    },
    {
      "channel": 1,
      "note": 72,
      "start": 15.8217,
      "duration": 0.1712,
      "velocity": 109,
      "chip": "ym2612"
    },
    {
      "channel": 3,
      "note": 79,
      "start": 15.8218,
      "duration": 0.2397,
      "velocity": 112,
      "chip": "ym2612"
    },
    {
      "channel": 4,
      "note": 74,
      "start": 15.834,
      "duration": 0.01,
      "velocity": 126,
      "chip": "ym2612"
    },
    {
      "channel": 4,
      "note": 65,
      "start": 15.9178,
      "duration": 0.0495,
      "velocity": 120,
      "chip": "ym2612"
    },
    {
      "channel": 2,
      "note": 53,
      "start": 15.9369,
      "duration": 0.1236,
      "velocity": 109,
      "chip": "ym2612"
    },
    {
      "channel": 5,
      "note": 77,
      "start": 15.9371,
      "duration": 0.1085,
      "velocity": 118,
      "chip": "ym2612"
    },
    {
      "channel": 4,
      "note": 53,
      "start": 15.9673,
      "duration": 0.01,
      "velocity": 120,
      "chip": "ym2612"
    },
    {
      "channel": 4,
      "note": 65,
      "start": 16.0517,
      "duration": 0.0516,
      "velocity": 120,
      "chip": "ym2612"
    },
    {
      "channel": 0,
      "note": 77,
      "start": 16.0757,
      "duration": 0.2335,
      "velocity": 110,
      "chip": "ym2612"
    },
    {
      "channel": 2,
      "note": 53,
      "start": 16.0758,
      "duration": 0.1008,
      "velocity": 109,
      "chip": "ym2612"
    },
    {
      "channel": 5,
      "note": 77,
      "start": 16.076,
      "duration": 0.1026,
      "velocity": 118,
      "chip": "ym2612"
    },
    {
      "channel": 1,
      "note": 72,
      "start": 16.0918,
      "duration": 0.1678,
      "velocity": 109,
      "chip": "ym2612"
    },
    {
      "channel": 3,
      "note": 72,
      "start": 16.0919,
      "duration": 0.2359,
      "velocity": 110,
      "chip": "ym2612"
    },
    {
      "channel": 4,
      "note": 53,
      "start": 16.1033,
      "duration": 0.0074,
      "velocity": 120,
      "chip": "ym2612"
    },
    {
      "channel": 4,
      "note": 65,
      "start": 16.1846,
      "duration": 0.0494,
      "velocity": 120,
      "chip": "ym2612"
    },
    {
      "channel": 2,
      "note": 53,
      "start": 16.2036,
      "duration": 0.1235,
      "velocity": 109,
      "chip": "ym2612"
    },
    {
      "channel": 5,
      "note": 77,
      "start": 16.2038,
      "duration": 0.1081,
      "velocity": 118,
      "chip": "ym2612"
    },
    {
      "channel": 4,
      "note": 53,
      "start": 16.234,
      "duration": 0.01,
      "velocity": 120,
      "chip": "ym2612"
    },
    {
      "channel": 4,
      "note": 82,
      "start": 16.318,
      "duration": 0.05,
      "velocity": 126,
      "chip": "ym2612"
    },
    {
      "channel": 0,
      "note": 77,
      "start": 16.3402,
      "duration": 0.0524,
      "velocity": 110,
      "chip": "ym2612"
    },
    {
      "channel": 2,
      "note": 63,
      "start": 16.3403,
      "duration": 0.1196,
      "velocity": 109,
      "chip": "ym2612"
    },
    {
      "channel": 5,
      "note": 77,
      "start": 16.3405,
      "duration": 0.1039,
      "velocity": 118,
      "chip": "ym2612"
    },
    {
      "channel": 1,
      "note": 72,
      "start": 16.356,
      "duration": 0.1703,
      "velocity": 109,
      "chip": "ym2612"
    },
    {
      "channel": 3,
      "note": 82,
      "start": 16.3561,
      "duration": 0.2384,
      "velocity": 112,
      "chip": "ym2612"
    },
    {
      "channel": 4,
      "note": 74,
      "start": 16.368,
      "duration": 0.0093,
      "velocity": 126,
      "chip": "ym2612"
    },
    {
      "channel": 0,
      "note": 77,
      "start": 16.4174,
      "duration": 0.0585,
      "velocity": 110,
      "chip": "ym2612"
    },
    {
      "channel": 2,
      "note": 53,
      "start": 16.4703,
      "duration": 0.1235,
      "velocity": 109,
      "chip": "ym2612"
    },
    {
      "channel": 5,
      "note": 77,
      "start": 16.4705,
      "duration": 0.1081,
      "velocity": 118,
      "chip": "ym2612"
    },
    {
      "channel": 0,
      "note": 77,
      "start": 16.5007,
      "duration": 0.0751,
      "velocity": 110,
      "chip": "ym2612"
    },
    {
      "channel": 4,
      "note": 65,
      "start": 16.5846,
      "duration": 0.0494,
      "velocity": 120,
      "chip": "ym2612"
    },
    {
      "channel": 0,
      "note": 77,
      "start": 16.6066,
      "duration": 0.2359,
      "velocity": 110,
      "chip": "ym2612"
    },
    {
      "channel": 2,
      "note": 62,
      "start": 16.6068,
      "duration": 0.1198,
      "velocity": 109,
      "chip": "ym2612"
    },
    {
      "channel": 5,
      "note": 77,
      "start": 16.6069,
      "duration": 0.1041,
      "velocity": 118,
      "chip": "ym2612"
    },
    {
      "channel": 1,
      "note": 72,
      "start": 16.6216,
      "duration": 0.1713,
      "velocity": 109,
      "chip": "ym2612"
    },
    {
      "channel": 3,
      "note": 81,
      "start": 16.6218,
      "duration": 0.2568,
      "velocity": 112,
      "chip": "ym2612"
    },
    {
      "channel": 4,
      "note": 53,
      "start": 16.634,
      "duration": 0.01,
      "velocity": 120,
      "chip": "ym2612"
    },
    {
      "channel": 2,
      "note": 53,
      "start": 16.7369,
      "duration": 0.1235,
      "velocity": 109,
      "chip": "ym2612"
    },
    {
      "channel": 5,
      "note": 77,
      "start": 16.7371,
      "duration": 0.1081,
      "velocity": 118,
      "chip": "ym2612"
    },
    {
      "channel": 4,
      "note": 82,
      "start": 16.8513,
      "duration": 0.0494,
      "velocity": 126,
      "chip": "ym2612"
    },
    {
      "channel": 0,
      "note": 81,
      "start": 16.8734,
      "duration": 0.4858,
      "velocity": 110,
      "chip": "ym2612"
    },
    {
      "channel": 2,
      "note": 60,
      "start": 16.8735,
      "duration": 0.1197,
      "velocity": 109,
      "chip": "ym2612"
    },
    {
      "channel": 5,
      "note": 77,
      "start": 16.8737,
      "duration": 0.104,
      "velocity": 118,
      "chip": "ym2612"
    },
    {
      "channel": 1,
      "note": 72,
      "start": 16.8883,
      "duration": 0.1713,
      "velocity": 109,
      "chip": "ym2612"
    },
    {
      "channel": 3,
      "note": 79,
      "start": 16.8884,
      "duration": 0.2558,
      "velocity": 112,
      "chip": "ym2612"
    },
    {
      "channel": 4,
      "note": 74,
      "start": 16.9007,
      "duration": 0.01,
      "velocity": 126,
      "chip": "ym2612"
    },
    {
      "channel": 2,
      "note": 53,
      "start": 17.0036,
      "duration": 0.1231,
      "velocity": 109,
      "chip": "ym2612"
    },
    {
      "channel": 5,
      "note": 77,
      "start": 17.0038,
      "duration": 0.108,
      "velocity": 118,
      "chip": "ym2612"
    },
    {
      "channel": 4,
      "note": 65,
      "start": 17.1178,
      "duration": 0.0495,
      "velocity": 120,
      "chip": "ym2612"
    },
    {
      "channel": 2,
      "note": 62,
      "start": 17.1371,
      "duration": 0.1229,
      "velocity": 109,
      "chip": "ym2612"
    },
    {
      "channel": 5,
      "note": 77,
      "start": 17.1372,
      "duration": 0.1079,
      "velocity": 118,
      "chip": "ym2612"
    },
    {
      "channel": 1,
      "note": 72,
      "start": 17.154,
      "duration": 0.1723,
      "velocity": 109,
      "chip": "ym2612"
    },
    {
      "channel": 3,
      "note": 81,
      "start": 17.1542,
      "duration": 0.2403,
      "velocity": 112,
      "chip": "ym2612"
    },
    {
      "channel": 4,
      "note": 53,
      "start": 17.1673,
      "duration": 0.01,
      "velocity": 120,
      "chip": "ym2612"
    },
    {
      "channel": 4,
      "note": 65,
      "start": 17.2512,
      "duration": 0.0495,
      "velocity": 120,
      "chip": "ym2612"
    },
    {
      "channel": 2,
      "note": 53,
      "start": 17.2703,
      "duration": 0.1235,
      "velocity": 109,
      "chip": "ym2612"
    },
    {
      "channel": 5,
      "note": 77,
      "start": 17.2705,
      "duration": 0.1081,
      "velocity": 118,
      "chip": "ym2612"
    },
    {
      "channel": 4,
      "note": 53,
      "start": 17.3007,
      "duration": 0.01,
      "velocity": 120,
      "chip": "ym2612"
    },
    {
      "channel": 4,
      "note": 82,
      "start": 17.3846,
      "duration": 0.0494,
      "velocity": 126,
      "chip": "ym2612"
    },
    {
      "channel": 0,
      "note": 77,
      "start": 17.4068,
      "duration": 0.2357,
      "velocity": 110,
      "chip": "ym2612"
    },
    {
      "channel": 2,
      "note": 60,
      "start": 17.407,
      "duration": 0.1196,
      "velocity": 109,
      "chip": "ym2612"
    },
    {
      "channel": 5,
      "note": 77,
      "start": 17.4072,
      "duration": 0.1039,
      "velocity": 118,
      "chip": "ym2612"
    },
    {
      "channel": 1,
      "note": 72,
      "start": 17.4219,
      "duration": 0.1711,
      "velocity": 109,
      "chip": "ym2612"
    },
    {
      "channel": 3,
      "note": 82,
      "start": 17.422,
      "duration": 0.2392,
      "velocity": 112,
      "chip": "ym2612"
    },
    {
      "channel": 4,
      "note": 74,
      "start": 17.434,
      "duration": 0.01,
      "velocity": 126,
      "chip": "ym2612"
    },
    {
      "channel": 2,
      "note": 53,
      "start": 17.5369,
      "duration": 0.1234,
      "velocity": 109,
      "chip": "ym2612"
    },
    {
      "channel": 5,
      "note": 77,
      "start": 17.5371,
      "duration": 0.1081,
      "velocity": 118,
      "chip": "ym2612"
    },
    {
      "channel": 4,
      "note": 65,
      "start": 17.6513,
      "duration": 0.0494,
      "velocity": 120,
      "chip": "ym2612"
    },
    {
      "channel": 0,
      "note": 81,
      "start": 17.6734,
      "duration": 0.2525,
      "velocity": 110,
      "chip": "ym2612"
    },
    {
      "channel": 2,
      "note": 65,
      "start": 17.6736,
      "duration": 0.103,
      "velocity": 109,
      "chip": "ym2612"
    },
    {
      "channel": 5,
      "note": 77,
      "start": 17.6737,
      "duration": 0.1058,
      "velocity": 118,
      "chip": "ym2612"
    },
    {
      "channel": 1,
      "note": 72,
      "start": 17.6885,
      "duration": 0.1711,
      "velocity": 109,
      "chip": "ym2612"
    },
    {
      "channel": 3,
      "note": 84,
      "start": 17.6886,
      "duration": 0.2592,
      "velocity": 112,
      "chip": "ym2612"
    },
    {
      "channel": 4,
      "note": 53,
      "start": 17.7007,
      "duration": 0.01,
      "velocity": 120,
      "chip": "ym2612"
    },
    {
      "channel": 4,
      "note": 80,
      "start": 17.7857,
      "duration": 0.1578,
      "velocity": 127,
      "chip": "ym2612"
    },
    {
      "channel": 2,
      "note": 53,
      "start": 17.8036,
      "duration": 0.1235,
      "velocity": 109,
      "chip": "ym2612"
    },
    {
      "channel": 5,
      "note": 77,
      "start": 17.8038,
      "duration": 0.1076,
      "velocity": 118,
      "chip": "ym2612"
    },
    {
      "channel": 0,
      "note": 77,
      "start": 17.9432,
      "duration": 0.2326,
      "velocity": 110,
      "chip": "ym2612"
    },
    {
      "channel": 2,
      "note": 63,
      "start": 17.9434,
      "duration": 0.1166,
      "velocity": 109,
      "chip": "ym2612"
    },
    {
      "channel": 4,
      "note": 63,
      "start": 17.9435,
      "duration": 0.0051,
      "velocity": 127,
      "chip": "ym2612"
    },
    {
      "channel": 5,
      "note": 77,
      "start": 17.9436,
      "duration": 0.1016,
      "velocity": 118,
      "chip": "ym2612"
    },
    {
      "channel": 1,
      "note": 72,
      "start": 17.9583,
      "duration": 0.168,
      "velocity": 109,
      "chip": "ym2612"
    },
    {
      "channel": 3,
      "note": 82,
      "start": 17.9584,
      "duration": 0.2366,
      "velocity": 112,
      "chip": "ym2612"
    },
    {
      "channel": 4,
      "note": 70,
      "start": 18.0513,
      "duration": 0.0661,
      "velocity": 127,
      "chip": "ym2612"
    },
    {
      "channel": 2,
      "note": 53,
      "start": 18.0703,
      "duration": 0.1239,
      "velocity": 109,
      "chip": "ym2612"
    },
    {
      "channel": 5,
      "note": 77,
      "start": 18.0705,
      "duration": 0.1095,
      "velocity": 118,
      "chip": "ym2612"
    },
    {
      "channel": 4,
      "note": 65,
      "start": 18.1175,
      "duration": 0.0099,
      "velocity": 127,
      "chip": "ym2612"
    },
    {
      "channel": 4,
      "note": 65,
      "start": 18.1861,
      "duration": 0.0524,
      "velocity": 120,
      "chip": "ym2612"
    },
    {
      "channel": 0,
      "note": 79,
      "start": 18.2093,
      "duration": 0.2333,
      "velocity": 110,
      "chip": "ym2612"
    },
    {
      "channel": 2,
      "note": 55,
      "start": 18.2094,
      "duration": 0.1006,
      "velocity": 109,
      "chip": "ym2612"
    },
    {
      "channel": 5,
      "note": 77,
      "start": 18.2096,
      "duration": 0.4849,
      "velocity": 127,
      "chip": "ym2612"
    },
    {
      "channel": 1,
      "note": 74,
      "start": 18.2259,
      "duration": 0.167,
      "velocity": 109,
      "chip": "ym2612"
    },
    {
      "channel": 3,
      "note": 74,
      "start": 18.2261,
      "duration": 0.2351,
      "velocity": 110,
      "chip": "ym2612"
    },
    {
      "channel": 4,
      "note": 53,
      "start": 18.2385,
      "duration": 0.0055,
      "velocity": 120,
      "chip": "ym2612"
    },
    {
      "channel": 4,
      "note": 65,
      "start": 18.3179,
      "duration": 0.0494,
      "velocity": 120,
      "chip": "ym2612"
    },
    {
      "channel": 2,
      "note": 55,
      "start": 18.3341,
      "duration": 0.1263,
      "velocity": 109,
      "chip": "ym2612"
    },
    {
      "channel": 4,
      "note": 53,
      "start": 18.3673,
      "duration": 0.01,
      "velocity": 120,
      "chip": "ym2612"
    },
    {
      "channel": 4,
      "note": 82,
      "start": 18.4512,
      "duration": 0.0494,
      "velocity": 126,
      "chip": "ym2612"
    },
    {
      "channel": 0,
      "note": 79,
      "start": 18.4706,
      "duration": 0.0553,
      "velocity": 110,
      "chip": "ym2612"
    },
    {
      "channel": 2,
      "note": 65,
      "start": 18.4707,
      "duration": 0.1225,
      "velocity": 109,
      "chip": "ym2612"
    },
    {
      "channel": 1,
      "note": 74,
      "start": 18.488,
      "duration": 0.1716,
      "velocity": 109,
      "chip": "ym2612"
    },
    {
      "channel": 3,
      "note": 84,
      "start": 18.4881,
      "duration": 0.2396,
      "velocity": 112,
      "chip": "ym2612"
    },
    {
      "channel": 4,
      "note": 74,
      "start": 18.5007,
      "duration": 0.01,
      "velocity": 126,
      "chip": "ym2612"
    },
    {
      "channel": 0,
      "note": 79,
      "start": 18.5507,
      "duration": 0.0585,
      "velocity": 110,
      "chip": "ym2612"
    },
    {
      "channel": 2,
      "note": 55,
      "start": 18.6007,
      "duration": 0.1263,
      "velocity": 109,
      "chip": "ym2612"
    },
    {
      "channel": 0,
      "note": 79,
      "start": 18.6341,
      "duration": 0.0751,
      "velocity": 110,
      "chip": "ym2612"
    },
    {
      "channel": 4,
      "note": 65,
      "start": 18.718,
      "duration": 0.0499,
      "velocity": 120,
      "chip": "ym2612"
    },
    {
      "channel": 0,
      "note": 79,
      "start": 18.7415,
      "duration": 0.2344,
      "velocity": 110,
      "chip": "ym2612"
    },
    {
      "channel": 2,
      "note": 63,
      "start": 18.7416,
      "duration": 0.1183,
      "velocity": 109,
      "chip": "ym2612"
    },
    {
      "channel": 5,
      "note": 77,
      "start": 18.7418,
      "duration": 0.1025,
      "velocity": 118,
      "chip": "ym2612"
    },
    {
      "channel": 1,
      "note": 74,
      "start": 18.7558,
      "duration": 0.1704,
      "velocity": 109,
      "chip": "ym2612"
    },
    {
      "channel": 3,
      "note": 82,
      "start": 18.756,
      "duration": 0.2559,
      "velocity": 112,
      "chip": "ym2612"
    },
    {
      "channel": 4,
      "note": 53,
      "start": 18.7679,
      "duration": 0.0094,
      "velocity": 120,
      "chip": "ym2612"
    },
    {
      "channel": 2,
      "note": 55,
      "start": 18.8703,
      "duration": 0.1235,
      "velocity": 109,
      "chip": "ym2612"
    },
    {
      "channel": 5,
      "note": 77,
      "start": 18.8705,
      "duration": 0.1081,
      "velocity": 118,
      "chip": "ym2612"
    },
    {
      "channel": 4,
      "note": 82,
      "start": 18.9846,
      "duration": 0.0494,
      "velocity": 126,
      "chip": "ym2612"
    },
    {
      "channel": 0,
      "note": 82,
      "start": 19.0067,
      "duration": 0.4858,
      "velocity": 110,
      "chip": "ym2612"
    },
    {
      "channel": 2,
      "note": 62,
      "start": 19.0068,
      "duration": 0.1197,
      "velocity": 109,
      "chip": "ym2612"
    },
    {
      "channel": 5,
      "note": 77,
      "start": 19.007,
      "duration": 0.104,
      "velocity": 118,
      "chip": "ym2612"
    },
    {
      "channel": 1,
      "note": 74,
      "start": 19.0216,
      "duration": 0.1713,
      "velocity": 109,
      "chip": "ym2612"
    },
    {
      "channel": 3,
      "note": 81,
      "start": 19.0217,
      "duration": 0.2558,
      "velocity": 112,
      "chip": "ym2612"
    },
    {
      "channel": 4,
      "note": 74,
      "start": 19.034,
      "duration": 0.01,
      "velocity": 126,
      "chip": "ym2612"
    },
    {
      "channel": 2,
      "note": 55,
      "start": 19.1369,
      "duration": 0.1231,
      "velocity": 109,
      "chip": "ym2612"
    },
    {
      "channel": 5,
      "note": 77,
      "start": 19.1371,
      "duration": 0.108,
      "velocity": 118,
      "chip": "ym2612"
    },
    {
      "channel": 4,
      "note": 65,
      "start": 19.2512,
      "duration": 0.0495,
      "velocity": 120,
      "chip": "ym2612"
    },
    {
      "channel": 2,
      "note": 63,
      "start": 19.2704,
      "duration": 0.1229,
      "velocity": 109,
      "chip": "ym2612"
    },
    {
      "channel": 5,
      "note": 77,
      "start": 19.2705,
      "duration": 0.1079,
      "velocity": 118,
      "chip": "ym2612"
    },
    {
      "channel": 1,
      "note": 74,
      "start": 19.2873,
      "duration": 0.1723,
      "velocity": 109,
      "chip": "ym2612"
    },
    {
      "channel": 3,
      "note": 82,
      "start": 19.2874,
      "duration": 0.2578,
      "velocity": 112,
      "chip": "ym2612"
    },
    {
      "channel": 4,
      "note": 53,
      "start": 19.3007,
      "duration": 0.01,
      "velocity": 120,
      "chip": "ym2612"
    },
    {
      "channel": 4,
      "note": 65,
      "start": 19.3845,
      "duration": 0.0495,
      "velocity": 120,
      "chip": "ym2612"
    },
    {
      "channel": 2,
      "note": 55,
      "start": 19.4036,
      "duration": 0.1235,
      "velocity": 109,
      "chip": "ym2612"
    },
    {
      "channel": 5,
      "note": 77,
      "start": 19.4038,
      "duration": 0.1081,
      "velocity": 118,
      "chip": "ym2612"
    },
    {
      "channel": 4,
      "note": 53,
      "start": 19.434,
      "duration": 0.01,
      "velocity": 120,
      "chip": "ym2612"
    },
    {
      "channel": 4,
      "note": 82,
      "start": 19.518,
      "duration": 0.0494,
      "velocity": 126,
      "chip": "ym2612"
    },
    {
      "channel": 0,
      "note": 79,
      "start": 19.54,
      "duration": 0.2358,
      "velocity": 110,
      "chip": "ym2612"
    },
    {
      "channel": 2,
      "note": 62,
      "start": 19.5402,
      "duration": 0.1197,
      "velocity": 109,
      "chip": "ym2612"
    },
    {
      "channel": 5,
      "note": 77,
      "start": 19.5404,
      "duration": 0.104,
      "velocity": 118,
      "chip": "ym2612"
    },
    {
      "channel": 1,
      "note": 74,
      "start": 19.5549,
      "duration": 0.1713,
      "velocity": 109,
      "chip": "ym2612"
    },
    {
      "channel": 3,
      "note": 81,
      "start": 19.5551,
      "duration": 0.2567,
      "velocity": 112,
      "chip": "ym2612"
    },
    {
      "channel": 4,
      "note": 74,
      "start": 19.5673,
      "duration": 0.01,
      "velocity": 126,
      "chip": "ym2612"
    },
    {
      "channel": 2,
      "note": 55,
      "start": 19.6703,
      "duration": 0.1234,
      "velocity": 109,
      "chip": "ym2612"
    },
    {
      "channel": 5,
      "note": 77,
      "start": 19.6705,
      "duration": 0.1081,
      "velocity": 118,
      "chip": "ym2612"
    },
    {
      "channel": 4,
      "note": 65,
      "start": 19.7846,
      "duration": 0.0494,
      "velocity": 120,
      "chip": "ym2612"
    },
    {
      "channel": 0,
      "note": 82,
      "start": 19.8065,
      "duration": 0.2527,
      "velocity": 110,
      "chip": "ym2612"
    },
    {
      "channel": 2,
      "note": 60,
      "start": 19.8066,
      "duration": 0.12,
      "velocity": 109,
      "chip": "ym2612"
    },
    {
      "channel": 5,
      "note": 77,
      "start": 19.8068,
      "duration": 0.1043,
      "velocity": 118,
      "chip": "ym2612"
    },
    {
      "channel": 1,
      "note": 74,
      "start": 19.8215,
      "duration": 0.1715,
      "velocity": 109,
      "chip": "ym2612"
    },
    {
      "channel": 3,
      "note": 79,
      "start": 19.8216,
      "duration": 0.2569,
      "velocity": 112,
      "chip": "ym2612"
    },
    {
      "channel": 4,
      "note": 53,
      "start": 19.834,
      "duration": 0.01,
      "velocity": 120,
      "chip": "ym2612"
    },
    {
      "channel": 2,
      "note": 55,
      "start": 19.9369,
      "duration": 0.1235,
      "velocity": 109,
      "chip": "ym2612"
    },
    {
      "channel": 5,
      "note": 77,
      "start": 19.9371,
      "duration": 0.108,
      "velocity": 118,
      "chip": "ym2612"
    },
    {
      "channel": 4,
      "note": 82,
      "start": 20.0512,
      "duration": 0.0495,
      "velocity": 126,
      "chip": "ym2612"
    },
    {
      "channel": 0,
      "note": 79,
      "start": 20.0734,
      "duration": 0.2358,
      "velocity": 110,
      "chip": "ym2612"
    },
    {
      "channel": 2,
      "note": 62,
      "start": 20.0735,
      "duration": 0.1197,
      "velocity": 109,
      "chip": "ym2612"
    },
    {
      "channel": 5,
      "note": 77,
      "start": 20.0737,
      "duration": 0.1047,
      "velocity": 118,
      "chip": "ym2612"
    },
    {
      "channel": 1,
      "note": 74,
      "start": 20.0883,
      "duration": 0.1712,
      "velocity": 109,
      "chip": "ym2612"
    },
    {
      "channel": 3,
      "note": 81,
      "start": 20.0885,
      "duration": 0.2394,
      "velocity": 112,
      "chip": "ym2612"
    },
    {
      "channel": 4,
      "note": 74,
      "start": 20.1007,
      "duration": 0.01,
      "velocity": 126,
      "chip": "ym2612"
    },
    {
      "channel": 4,
      "note": 65,
      "start": 20.1845,
      "duration": 0.0495,
      "velocity": 120,
      "chip": "ym2612"
    },
    {
      "channel": 2,
      "note": 55,
      "start": 20.2036,
      "duration": 0.1236,
      "velocity": 109,
      "chip": "ym2612"
    },
    {
      "channel": 5,
      "note": 77,
      "start": 20.2038,
      "duration": 0.1085,
      "velocity": 118,
      "chip": "ym2612"
    },
    {
      "channel": 4,
      "note": 53,
      "start": 20.234,
      "duration": 0.01,
      "velocity": 120,
      "chip": "ym2612"
    },
    {
      "channel": 4,
      "note": 65,
      "start": 20.3184,
      "duration": 0.0514,
      "velocity": 120,
      "chip": "ym2612"
    },
    {
      "channel": 0,
      "note": 79,
      "start": 20.3422,
      "duration": 0.2337,
      "velocity": 110,
      "chip": "ym2612"
    },
    {
      "channel": 2,
      "note": 55,
      "start": 20.3423,
      "duration": 0.1176,
      "velocity": 109,
      "chip": "ym2612"
    },
    {
      "channel": 5,
      "note": 77,
      "start": 20.3425,
      "duration": 0.1026,
      "velocity": 118,
      "chip": "ym2612"
    },
    {
      "channel": 1,
      "note": 74,
      "start": 20.3583,
      "duration": 0.168,
      "velocity": 109,
      "chip": "ym2612"
    },
    {
      "channel": 3,
      "note": 74,
      "start": 20.3584,
      "duration": 0.2361,
      "velocity": 110,
      "chip": "ym2612"
    },
    {
      "channel": 4,
      "note": 53,
      "start": 20.3698,
      "duration": 0.0076,
      "velocity": 120,
      "chip": "ym2612"
    },
    {
      "channel": 4,
      "note": 65,
      "start": 20.4512,
      "duration": 0.0495,
      "velocity": 120,
      "chip": "ym2612"
    },
    {
      "channel": 2,
      "note": 55,
      "start": 20.4703,
      "duration": 0.1235,
      "velocity": 109,
      "chip": "ym2612"
    },
    {
      "channel": 5,
      "note": 77,
      "start": 20.4705,
      "duration": 0.1081,
      "velocity": 118,
      "chip": "ym2612"
    },
    {
      "channel": 4,
      "note": 53,
      "start": 20.5007,
      "duration": 0.01,
      "velocity": 120,
      "chip": "ym2612"
    },
    {
      "channel": 4,
      "note": 82,
      "start": 20.5846,
      "duration": 0.05,
      "velocity": 126,
      "chip": "ym2612"
    },
    {
      "channel": 0,
      "note": 79,
      "start": 20.6068,
      "duration": 0.0524,
      "velocity": 110,
      "chip": "ym2612"
    },
    {
      "channel": 2,
      "note": 65,
      "start": 20.607,
      "duration": 0.1196,
      "velocity": 109,
      "chip": "ym2612"
    },
    {
      "channel": 5,
      "note": 77,
      "start": 20.6072,
      "duration": 0.1039,
      "velocity": 118,
      "chip": "ym2612"
    },
    {
      "channel": 1,
      "note": 74,
      "start": 20.6226,
      "duration": 0.1703,
      "velocity": 109,
      "chip": "ym2612"
    },
    {
      "channel": 3,
      "note": 84,
      "start": 20.6227,
      "duration": 0.2384,
      "velocity": 112,
      "chip": "ym2612"
    },
    {
      "channel": 4,
      "note": 74,
      "start": 20.6346,
      "duration": 0.0093,
      "velocity": 126,
      "chip": "ym2612"
    },
    {
      "channel": 0,
      "note": 79,
      "start": 20.6841,
      "duration": 0.0585,
      "velocity": 110,
      "chip": "ym2612"
    },
    {
      "channel": 2,
      "note": 55,
      "start": 20.7369,
      "duration": 0.1235,
      "velocity": 109,
      "chip": "ym2612"
    },
    {
      "channel": 5,
      "note": 77,
      "start": 20.7371,
      "duration": 0.1081,
      "velocity": 118,
      "chip": "ym2612"
    },
    {
      "channel": 0,
      "note": 79,
      "start": 20.7674,
      "duration": 0.0751,
      "velocity": 110,
      "chip": "ym2612"
    },
    {
      "channel": 4,
      "note": 65,
      "start": 20.8513,
      "duration": 0.0494,
      "velocity": 120,
      "chip": "ym2612"
    },
    {
      "channel": 0,
      "note": 79,
      "start": 20.8733,
      "duration": 0.2359,
      "velocity": 110,
      "chip": "ym2612"
    },
    {
      "channel": 2,
      "note": 63,
      "start": 20.8734,
      "duration": 0.1198,
      "velocity": 109,
      "chip": "ym2612"
    },
    {
      "channel": 5,
      "note": 77,
      "start": 20.8736,
      "duration": 0.1041,
      "velocity": 118,
      "chip": "ym2612"
    },
    {
      "channel": 1,
      "note": 74,
      "start": 20.8883,
      "duration": 0.1713,
      "velocity": 109,
      "chip": "ym2612"
    },
    {
      "channel": 3,
      "note": 82,
      "start": 20.8885,
      "duration": 0.2568,
      "velocity": 112,
      "chip": "ym2612"
    },
    {
      "channel": 4,
      "note": 53,
      "start": 20.9007,
      "duration": 0.01,
      "velocity": 120,
      "chip": "ym2612"
    },
    {
      "channel": 2,
      "note": 55,
      "start": 21.0036,
      "duration": 0.1235,
      "velocity": 109,
      "chip": "ym2612"
    },
    {
      "channel": 5,
      "note": 77,
      "start": 21.0038,
      "duration": 0.1081,
      "velocity": 118,
      "chip": "ym2612"
    },
    {
      "channel": 4,
      "note": 82,
      "start": 21.118,
      "duration": 0.0494,
      "velocity": 126,
      "chip": "ym2612"
    },
    {
      "channel": 0,
      "note": 82,
      "start": 21.14,
      "duration": 0.4858,
      "velocity": 110,
      "chip": "ym2612"
    },
    {
      "channel": 2,
      "note": 62,
      "start": 21.1402,
      "duration": 0.1197,
      "velocity": 109,
      "chip": "ym2612"
    },
    {
      "channel": 5,
      "note": 77,
      "start": 21.1404,
      "duration": 0.104,
      "velocity": 118,
      "chip": "ym2612"
    },
    {
      "channel": 1,
      "note": 74,
      "start": 21.1549,
      "duration": 0.1713,
      "velocity": 109,
      "chip": "ym2612"
    },
    {
      "channel": 3,
      "note": 81,
      "start": 21.1551,
      "duration": 0.2558,
      "velocity": 112,
      "chip": "ym2612"
    },
    {
      "channel": 4,
      "note": 74,
      "start": 21.1673,
      "duration": 0.01,
      "velocity": 126,
      "chip": "ym2612"
    },
    {
      "channel": 2,
      "note": 55,
      "start": 21.2703,
      "duration": 0.1231,
      "velocity": 109,
      "chip": "ym2612"
    },
    {
      "channel": 5,
      "note": 77,
      "start": 21.2705,
      "duration": 0.108,
      "velocity": 118,
      "chip": "ym2612"
    },
    {
      "channel": 4,
      "note": 65,
      "start": 21.3845,
      "duration": 0.0495,
      "velocity": 120,
      "chip": "ym2612"
    },
    {
      "channel": 2,
      "note": 63,
      "start": 21.4037,
      "duration": 0.1229,
      "velocity": 109,
      "chip": "ym2612"
    },
    {
      "channel": 5,
      "note": 77,
      "start": 21.4039,
      "duration": 0.1079,
      "velocity": 118,
      "chip": "ym2612"
    },
    {
      "channel": 1,
      "note": 74,
      "start": 21.4206,
      "duration": 0.1723,
      "velocity": 109,
      "chip": "ym2612"
    },
    {
      "channel": 3,
      "note": 82,
      "start": 21.4208,
      "duration": 0.2578,
      "velocity": 112,
      "chip": "ym2612"
    },
    {
      "channel": 4,
      "note": 53,
      "start": 21.434,
      "duration": 0.01,
      "velocity": 120,
      "chip": "ym2612"
    },
    {
      "channel": 4,
      "note": 65,
      "start": 21.5178,
      "duration": 0.0495,
      "velocity": 120,
      "chip": "ym2612"
    },
    {
      "channel": 2,
      "note": 55,
      "start": 21.5369,
      "duration": 0.1235,
      "velocity": 109,
      "chip": "ym2612"
    },
    {
      "channel": 5,
      "note": 77,
      "start": 21.5371,
      "duration": 0.1081,
      "velocity": 118,
      "chip": "ym2612"
    },
    {
      "channel": 4,
      "note": 53,
      "start": 21.5673,
      "duration": 0.01,
      "velocity": 120,
      "chip": "ym2612"
    },
    {
      "channel": 4,
      "note": 82,
      "start": 21.6513,
      "duration": 0.0494,
      "velocity": 126,
      "chip": "ym2612"
    },
    {
      "channel": 0,
      "note": 79,
      "start": 21.6734,
      "duration": 0.2358,
      "velocity": 110,
      "chip": "ym2612"
    },
    {
      "channel": 2,
      "note": 62,
      "start": 21.6735,
      "duration": 0.1197,
      "velocity": 109,
      "chip": "ym2612"
    },
    {
      "channel": 5,
      "note": 77,
      "start": 21.6737,
      "duration": 0.104,
      "velocity": 118,
      "chip": "ym2612"
    },
    {
      "channel": 1,
      "note": 74,
      "start": 21.6883,
      "duration": 0.1713,
      "velocity": 109,
      "chip": "ym2612"
    },
    {
      "channel": 3,
      "note": 81,
      "start": 21.6884,
      "duration": 0.2567,
      "velocity": 112,
      "chip": "ym2612"
    },
    {
      "channel": 4,
      "note": 74,
      "start": 21.7007,
      "duration": 0.01,
      "velocity": 126,
      "chip": "ym2612"
    },
    {
      "channel": 2,
      "note": 55,
      "start": 21.8036,
      "duration": 0.1234,
      "velocity": 109,
      "chip": "ym2612"
    },
    {
      "channel": 5,
      "note": 77,
      "start": 21.8038,
      "duration": 0.1081,
      "velocity": 118,
      "chip": "ym2612"
    },
    {
      "channel": 4,
      "note": 65,
      "start": 21.918,
      "duration": 0.0494,
      "velocity": 120,
      "chip": "ym2612"
    },
    {
      "channel": 0,
      "note": 82,
      "start": 21.9398,
      "duration": 0.2527,
      "velocity": 110,
      "chip": "ym2612"
    },
    {
      "channel": 2,
      "note": 60,
      "start": 21.9399,
      "duration": 0.12,
      "velocity": 109,
      "chip": "ym2612"
    },
    {
      "channel": 5,
      "note": 77,
      "start": 21.9401,
      "duration": 0.1043,
      "velocity": 118,
      "chip": "ym2612"
    },
    {
      "channel": 1,
      "note": 74,
      "start": 21.9548,
      "duration": 0.1715,
      "velocity": 109,
      "chip": "ym2612"
    },
    {
      "channel": 3,
      "note": 79,
      "start": 21.9549,
      "duration": 0.2569,
      "velocity": 112,
      "chip": "ym2612"
    },
    {
      "channel": 4,
      "note": 53,
      "start": 21.9673,
      "duration": 0.01,
      "velocity": 120,
      "chip": "ym2612"
    },
    {
      "channel": 2,
      "note": 55,
      "start": 22.0703,
      "duration": 0.1235,
      "velocity": 109,
      "chip": "ym2612"
    },
    {
      "channel": 5,
      "note": 77,
      "start": 22.0705,
      "duration": 0.108,
      "velocity": 118,
      "chip": "ym2612"
    },
    {
      "channel": 4,
      "note": 82,
      "start": 22.1845,
      "duration": 0.0495,
      "velocity": 126,
      "chip": "ym2612"
    },
    {
      "channel": 0,
      "note": 79,
      "start": 22.2067,
      "duration": 0.2358,
      "velocity": 110,
      "chip": "ym2612"
    },
    {
      "channel": 2,
      "note": 62,
      "start": 22.2068,
      "duration": 0.1197,
      "velocity": 109,
      "chip": "ym2612"
    },
    {
      "channel": 5,
      "note": 77,
      "start": 22.207,
      "duration": 0.1047,
      "velocity": 118,
      "chip": "ym2612"
    },
    {
      "channel": 1,
      "note": 74,
      "start": 22.2217,
      "duration": 0.1712,
      "velocity": 109,
      "chip": "ym2612"
    },
    {
      "channel": 3,
      "note": 81,
      "start": 22.2218,
      "duration": 0.2398,
      "velocity": 112,
      "chip": "ym2612"
    },
    {
      "channel": 4,
      "note": 74,
      "start": 22.234,
      "duration": 0.01,
      "velocity": 126,
      "chip": "ym2612"
    },
    {
      "channel": 4,
      "note": 65,
      "start": 22.3178,
      "duration": 0.0495,
      "velocity": 120,
      "chip": "ym2612"
    },
    {
      "channel": 2,
      "note": 55,
      "start": 22.3369,
      "duration": 0.1237,
      "velocity": 109,
      "chip": "ym2612"
    },
    {
      "channel": 5,
      "note": 77,
      "start": 22.3371,
      "duration": 0.1085,
      "velocity": 118,
      "chip": "ym2612"
    },
    {
      "channel": 4,
      "note": 53,
      "start": 22.3673,
      "duration": 0.01,
      "velocity": 120,
      "chip": "ym2612"
    },
    {
      "channel": 4,
      "note": 65,
      "start": 22.4517,
      "duration": 0.053,
      "velocity": 120,
      "chip": "ym2612"
    },
    {
      "channel": 0,
      "note": 77,
      "start": 22.4758,
      "duration": 0.2334,
      "velocity": 110,
      "chip": "ym2612"
    },
    {
      "channel": 2,
      "note": 53,
      "start": 22.4759,
      "duration": 0.1007,
      "velocity": 109,
      "chip": "ym2612"
    },
    {
      "channel": 5,
      "note": 77,
      "start": 22.4761,
      "duration": 0.1024,
      "velocity": 118,
      "chip": "ym2612"
    },
    {
      "channel": 1,
      "note": 72,
      "start": 22.4923,
      "duration": 0.1673,
      "velocity": 109,
      "chip": "ym2612"
    },
    {
      "channel": 3,
      "note": 72,
      "start": 22.4925,
      "duration": 0.2353,
      "velocity": 110,
      "chip": "ym2612"
    },
    {
      "channel": 4,
      "note": 53,
      "start": 22.5047,
      "duration": 0.0059,
      "velocity": 120,
      "chip": "ym2612"
    },
    {
      "channel": 4,
      "note": 65,
      "start": 22.5846,
      "duration": 0.0494,
      "velocity": 120,
      "chip": "ym2612"
    },
    {
      "channel": 2,
      "note": 53,
      "start": 22.6036,
      "duration": 0.1235,
      "velocity": 109,
      "chip": "ym2612"
    },
    {
      "channel": 5,
      "note": 77,
      "start": 22.6038,
      "duration": 0.1081,
      "velocity": 118,
      "chip": "ym2612"
    },
    {
      "channel": 4,
      "note": 53,
      "start": 22.634,
      "duration": 0.01,
      "velocity": 120,
      "chip": "ym2612"
    },
    {
      "channel": 4,
      "note": 82,
      "start": 22.718,
      "duration": 0.05,
      "velocity": 126,
      "chip": "ym2612"
    },
    {
      "channel": 0,
      "note": 77,
      "start": 22.7402,
      "duration": 0.0524,
      "velocity": 110,
      "chip": "ym2612"
    },
    {
      "channel": 2,
      "note": 63,
      "start": 22.7403,
      "duration": 0.1196,
      "velocity": 109,
      "chip": "ym2612"
    },
    {
      "channel": 5,
      "note": 77,
      "start": 22.7405,
      "duration": 0.1039,
      "velocity": 118,
      "chip": "ym2612"
    },
    {
      "channel": 1,
      "note": 72,
      "start": 22.756,
      "duration": 0.1703,
      "velocity": 109,
      "chip": "ym2612"
    },
    {
      "channel": 3,
      "note": 82,
      "start": 22.7561,
      "duration": 0.2384,
      "velocity": 112,
      "chip": "ym2612"
    },
    {
      "channel": 4,
      "note": 74,
      "start": 22.768,
      "duration": 0.0093,
      "velocity": 126,
      "chip": "ym2612"
    },
    {
      "channel": 0,
      "note": 77,
      "start": 22.8174,
      "duration": 0.0585,
      "velocity": 110,
      "chip": "ym2612"
    },
    {
      "channel": 2,
      "note": 53,
      "start": 22.8703,
      "duration": 0.1235,
      "velocity": 109,
      "chip": "ym2612"
    },
    {
      "channel": 5,
      "note": 77,
      "start": 22.8705,
      "duration": 0.1081,
      "velocity": 118,
      "chip": "ym2612"
    },
    {
      "channel": 0,
      "note": 77,
      "start": 22.9007,
      "duration": 0.0751,
      "velocity": 110,
      "chip": "ym2612"
    },
    {
      "channel": 4,
      "note": 65,
      "start": 22.9846,
      "duration": 0.0494,
      "velocity": 120,
      "chip": "ym2612"
    },
    {
      "channel": 0,
      "note": 77,
      "start": 23.0066,
      "duration": 0.2359,
      "velocity": 110,
      "chip": "ym2612"
    },
    {
      "channel": 2,
      "note": 62,
      "start": 23.0068,
      "duration": 0.1198,
      "velocity": 109,
      "chip": "ym2612"
    },
    {
      "channel": 5,
      "note": 77,
      "start": 23.0069,
      "duration": 0.1041,
      "velocity": 118,
      "chip": "ym2612"
    },
    {
      "channel": 1,
      "note": 72,
      "start": 23.0216,
      "duration": 0.1713,
      "velocity": 109,
      "chip": "ym2612"
    },
    {
      "channel": 3,
      "note": 81,
      "start": 23.0218,
      "duration": 0.2568,
      "velocity": 112,
      "chip": "ym2612"
    },
    {
      "channel": 4,
      "note": 53,
      "start": 23.034,
      "duration": 0.01,
      "velocity": 120,
      "chip": "ym2612"
    },
    {
      "channel": 2,
      "note": 53,
      "start": 23.1369,
      "duration": 0.1235,
      "velocity": 109,
      "chip": "ym2612"
    },
    {
      "channel": 5,
      "note": 77,
      "start": 23.1371,
      "duration": 0.1081,
      "velocity": 118,
      "chip": "ym2612"
    },
    {
      "channel": 4,
      "note": 82,
      "start": 23.2513,
      "duration": 0.0494,
      "velocity": 126,
      "chip": "ym2612"
    },
    {
      "channel": 0,
      "note": 81,
      "start": 23.2734,
      "duration": 0.4858,
      "velocity": 110,
      "chip": "ym2612"
    },
    {
      "channel": 2,
      "note": 60,
      "start": 23.2735,
      "duration": 0.1197,
      "velocity": 109,
      "chip": "ym2612"
    },
    {
      "channel": 5,
      "note": 77,
      "start": 23.2737,
      "duration": 0.104,
      "velocity": 118,
      "chip": "ym2612"
    },
    {
      "channel": 1,
      "note": 72,
      "start": 23.2883,
      "duration": 0.1713,
      "velocity": 109,
      "chip": "ym2612"
    },
    {
      "channel": 3,
      "note": 79,
      "start": 23.2884,
      "duration": 0.2558,
      "velocity": 112,
      "chip": "ym2612"
    },
    {
      "channel": 4,
      "note": 74,
      "start": 23.3007,
      "duration": 0.01,
      "velocity": 126,
      "chip": "ym2612"
    },
    {
      "channel": 2,
      "note": 53,
      "start": 23.4036,
      "duration": 0.1231,
      "velocity": 109,
      "chip": "ym2612"
    },
    {
      "channel": 5,
      "note": 77,
      "start": 23.4038,
      "duration": 0.108,
      "velocity": 118,
      "chip": "ym2612"
    },
    {
      "channel": 4,
      "note": 65,
      "start": 23.5178,
      "duration": 0.0495,
      "velocity": 120,
      "chip": "ym2612"
    },
    {
      "channel": 2,
      "note": 62,
      "start": 23.5371,
      "duration": 0.1229,
      "velocity": 109,
      "chip": "ym2612"
    },
    {
      "channel": 5,
      "note": 77,
      "start": 23.5372,
      "duration": 0.1079,
      "velocity": 118,
      "chip": "ym2612"
    },
    {
      "channel": 1,
      "note": 72,
      "start": 23.554,
      "duration": 0.1723,
      "velocity": 109,
      "chip": "ym2612"
    },
    {
      "channel": 3,
      "note": 81,
      "start": 23.5542,
      "duration": 0.2403,
      "velocity": 112,
      "chip": "ym2612"
    },
    {
      "channel": 4,
      "note": 53,
      "start": 23.5673,
      "duration": 0.01,
      "velocity": 120,
      "chip": "ym2612"
    },
    {
      "channel": 4,
      "note": 65,
      "start": 23.6512,
      "duration": 0.0495,
      "velocity": 120,
      "chip": "ym2612"
    },
    {
      "channel": 2,
      "note": 53,
      "start": 23.6703,
      "duration": 0.1235,
      "velocity": 109,
      "chip": "ym2612"
    },
    {
      "channel": 5,
      "note": 77,
      "start": 23.6705,
      "duration": 0.1081,
      "velocity": 118,
      "chip": "ym2612"
    },
    {
      "channel": 4,
      "note": 53,
      "start": 23.7007,
      "duration": 0.01,
      "velocity": 120,
      "chip": "ym2612"
    },
    {
      "channel": 4,
      "note": 82,
      "start": 23.7846,
      "duration": 0.0494,
      "velocity": 126,
      "chip": "ym2612"
    },
    {
      "channel": 0,
      "note": 77,
      "start": 23.8068,
      "duration": 0.2357,
      "velocity": 110,
      "chip": "ym2612"
    },
    {
      "channel": 2,
      "note": 60,
      "start": 23.807,
      "duration": 0.1196,
      "velocity": 109,
      "chip": "ym2612"
    },
    {
      "channel": 5,
      "note": 77,
      "start": 23.8072,
      "duration": 0.1039,
      "velocity": 118,
      "chip": "ym2612"
    },
    {
      "channel": 1,
      "note": 72,
      "start": 23.8219,
      "duration": 0.1711,
      "velocity": 109,
      "chip": "ym2612"
    },
    {
      "channel": 3,
      "note": 79,
      "start": 23.822,
      "duration": 0.2392,
      "velocity": 112,
      "chip": "ym2612"
    },
    {
      "channel": 4,
      "note": 74,
      "start": 23.834,
      "duration": 0.01,
      "velocity": 126,
      "chip": "ym2612"
    },
    {
      "channel": 2,
      "note": 53,
      "start": 23.9369,
      "duration": 0.1234,
      "velocity": 109,
      "chip": "ym2612"
    },
    {
      "channel": 5,
      "note": 77,
      "start": 23.9371,
      "duration": 0.1081,
      "velocity": 118,
      "chip": "ym2612"
    },
    {
      "channel": 4,
      "note": 65,
      "start": 24.0513,
      "duration": 0.0494,
      "velocity": 120,
      "chip": "ym2612"
    },
    {
      "channel": 0,
      "note": 81,
      "start": 24.0734,
      "duration": 0.2525,
      "velocity": 110,
      "chip": "ym2612"
    },
    {
      "channel": 2,
      "note": 58,
      "start": 24.0736,
      "duration": 0.103,
      "velocity": 109,
      "chip": "ym2612"
    },
    {
      "channel": 5,
      "note": 77,
      "start": 24.0737,
      "duration": 0.1041,
      "velocity": 118,
      "chip": "ym2612"
    },
    {
      "channel": 1,
      "note": 72,
      "start": 24.0885,
      "duration": 0.1711,
      "velocity": 109,
      "chip": "ym2612"
    },
    {
      "channel": 3,
      "note": 77,
      "start": 24.0886,
      "duration": 0.2566,
      "velocity": 112,
      "chip": "ym2612"
    },
    {
      "channel": 4,
      "note": 53,
      "start": 24.1007,
      "duration": 0.01,
      "velocity": 120,
      "chip": "ym2612"
    },
    {
      "channel": 2,
      "note": 53,
      "start": 24.2036,
      "duration": 0.1235,
      "velocity": 109,
      "chip": "ym2612"
    },
    {
      "channel": 5,
      "note": 77,
      "start": 24.2038,
      "duration": 0.108,
      "velocity": 118,
      "chip": "ym2612"
    },
    {
      "channel": 4,
      "note": 82,
      "start": 24.3178,
      "duration": 0.0495,
      "velocity": 126,
      "chip": "ym2612"
    },
    {
      "channel": 0,
      "note": 77,
      "start": 24.34,
      "duration": 0.2358,
      "velocity": 110,
      "chip": "ym2612"
    },
    {
      "channel": 2,
      "note": 60,
      "start": 24.3402,
      "duration": 0.1197,
      "velocity": 109,
      "chip": "ym2612"
    },
    {
      "channel": 5,
      "note": 77,
      "start": 24.3404,
      "duration": 0.1047,
      "velocity": 118,
      "chip": "ym2612"
    },
    {
      "channel": 1,
      "note": 72,
      "start": 24.355,
      "duration": 0.1712,
      "velocity": 109,
      "chip": "ym2612"
    },
    {
      "channel": 3,
      "note": 79,
      "start": 24.3551,
      "duration": 0.2397,
      "velocity": 112,
      "chip": "ym2612"
    },
    {
      "channel": 4,
      "note": 74,
      "start": 24.3673,
      "duration": 0.01,
      "velocity": 126,
      "chip": "ym2612"
    },
    {
      "channel": 4,
      "note": 65,
      "start": 24.4512,
      "duration": 0.0495,
      "velocity": 120,
      "chip": "ym2612"
    },
    {
      "channel": 2,
      "note": 53,
      "start": 24.4703,
      "duration": 0.1236,
      "velocity": 109,
      "chip": "ym2612"
    },
    {
      "channel": 5,
      "note": 77,
      "start": 24.4705,
      "duration": 0.1085,
      "velocity": 118,
      "chip": "ym2612"
    },
    {
      "channel": 4,
      "note": 53,
      "start": 24.5007,
      "duration": 0.01,
      "velocity": 120,
      "chip": "ym2612"
    },
    {
      "channel": 4,
      "note": 65,
      "start": 24.585,
      "duration": 0.0516,
      "velocity": 120,
      "chip": "ym2612"
    },
    {
      "channel": 0,
      "note": 77,
      "start": 24.609,
      "duration": 0.2335,
      "velocity": 110,
      "chip": "ym2612"
    },
    {
      "channel": 2,
      "note": 53,
      "start": 24.6091,
      "duration": 0.1008,
      "velocity": 109,
      "chip": "ym2612"
    },
    {
      "channel": 5,
      "note": 77,
      "start": 24.6093,
      "duration": 0.1026,
      "velocity": 118,
      "chip": "ym2612"
    },
    {
      "channel": 1,
      "note": 72,
      "start": 24.6251,
      "duration": 0.1678,
      "velocity": 109,
      "chip": "ym2612"
    },
    {
      "channel": 3,
      "note": 72,
      "start": 24.6252,
      "duration": 0.2359,
      "velocity": 110,
      "chip": "ym2612"
    },
    {
      "channel": 4,
      "note": 53,
      "start": 24.6366,
      "duration": 0.0074,
      "velocity": 120,
      "chip": "ym2612"
    },
    {
      "channel": 4,
      "note": 65,
      "start": 24.718,
      "duration": 0.0494,
      "velocity": 120,
      "chip": "ym2612"
    },
    {
      "channel": 2,
      "note": 53,
      "start": 24.7369,
      "duration": 0.1235,
      "velocity": 109,
      "chip": "ym2612"
    },
    {
      "channel": 5,
      "note": 77,
      "start": 24.7371,
      "duration": 0.1081,
      "velocity": 118,
      "chip": "ym2612"
    },
    {
      "channel": 4,
      "note": 53,
      "start": 24.7673,
      "duration": 0.01,
      "velocity": 120,
      "chip": "ym2612"
    },
    {
      "channel": 4,
      "note": 82,
      "start": 24.8513,
      "duration": 0.05,
      "velocity": 126,
      "chip": "ym2612"
    },
    {
      "channel": 0,
      "note": 77,
      "start": 24.8735,
      "duration": 0.0524,
      "velocity": 110,
      "chip": "ym2612"
    },
    {
      "channel": 2,
      "note": 63,
      "start": 24.8737,
      "duration": 0.1196,
      "velocity": 109,
      "chip": "ym2612"
    },
    {
      "channel": 5,
      "note": 77,
      "start": 24.8738,
      "duration": 0.1039,
      "velocity": 118,
      "chip": "ym2612"
    },
    {
      "channel": 1,
      "note": 72,
      "start": 24.8893,
      "duration": 0.1703,
      "velocity": 109,
      "chip": "ym2612"
    },
    {
      "channel": 3,
      "note": 82,
      "start": 24.8894,
      "duration": 0.2384,
      "velocity": 112,
      "chip": "ym2612"
    },
    {
      "channel": 4,
      "note": 74,
      "start": 24.9013,
      "duration": 0.0093,
      "velocity": 126,
      "chip": "ym2612"
    },
    {
      "channel": 0,
      "note": 77,
      "start": 24.9507,
      "duration": 0.0585,
      "velocity": 110,
      "chip": "ym2612"
    },
    {
      "channel": 2,
      "note": 53,
      "start": 25.0036,
      "duration": 0.1235,
      "velocity": 109,
      "chip": "ym2612"
    },
    {
      "channel": 5,
      "note": 77,
      "start": 25.0038,
      "duration": 0.1081,
      "velocity": 118,
      "chip": "ym2612"
    },
    {
      "channel": 0,
      "note": 77,
      "start": 25.0341,
      "duration": 0.0751,
      "velocity": 110,
      "chip": "ym2612"
    },
    {
      "channel": 4,
      "note": 65,
      "start": 25.118,
      "duration": 0.0494,
      "velocity": 120,
      "chip": "ym2612"
    },
    {
      "channel": 0,
      "note": 77,
      "start": 25.1399,
      "duration": 0.2359,
      "velocity": 110,
      "chip": "ym2612"
    },
    {
      "channel": 2,
      "note": 62,
      "start": 25.1401,
      "duration": 0.1198,
      "velocity": 109,
      "chip": "ym2612"
    },
    {
      "channel": 5,
      "note": 77,
      "start": 25.1402,
      "duration": 0.1041,
      "velocity": 118,
      "chip": "ym2612"
    },
    {
      "channel": 1,
      "note": 72,
      "start": 25.1549,
      "duration": 0.1713,
      "velocity": 109,
      "chip": "ym2612"
    },
    {
      "channel": 3,
      "note": 81,
      "start": 25.1551,
      "duration": 0.2568,
      "velocity": 112,
      "chip": "ym2612"
    },
    {
      "channel": 4,
      "note": 53,
      "start": 25.1673,
      "duration": 0.01,
      "velocity": 120,
      "chip": "ym2612"
    },
    {
      "channel": 2,
      "note": 53,
      "start": 25.2703,
      "duration": 0.1235,
      "velocity": 109,
      "chip": "ym2612"
    },
    {
      "channel": 5,
      "note": 77,
      "start": 25.2705,
      "duration": 0.1081,
      "velocity": 118,
      "chip": "ym2612"
    },
    {
      "channel": 4,
      "note": 82,
      "start": 25.3846,
      "duration": 0.0494,
      "velocity": 126,
      "chip": "ym2612"
    },
    {
      "channel": 0,
      "note": 81,
      "start": 25.4067,
      "duration": 0.4858,
      "velocity": 110,
      "chip": "ym2612"
    },
    {
      "channel": 2,
      "note": 60,
      "start": 25.4068,
      "duration": 0.1197,
      "velocity": 109,
      "chip": "ym2612"
    },
    {
      "channel": 5,
      "note": 77,
      "start": 25.407,
      "duration": 0.104,
      "velocity": 118,
      "chip": "ym2612"
    },
    {
      "channel": 1,
      "note": 72,
      "start": 25.4216,
      "duration": 0.1713,
      "velocity": 109,
      "chip": "ym2612"
    },
    {
      "channel": 3,
      "note": 79,
      "start": 25.4217,
      "duration": 0.2558,
      "velocity": 112,
      "chip": "ym2612"
    },
    {
      "channel": 4,
      "note": 74,
      "start": 25.434,
      "duration": 0.01,
      "velocity": 126,
      "chip": "ym2612"
    },
    {
      "channel": 2,
      "note": 53,
      "start": 25.5369,
      "duration": 0.1231,
      "velocity": 109,
      "chip": "ym2612"
    },
    {
      "channel": 5,
      "note": 77,
      "start": 25.5371,
      "duration": 0.108,
      "velocity": 118,
      "chip": "ym2612"
    },
    {
      "channel": 4,
      "note": 65,
      "start": 25.6512,
      "duration": 0.0495,
      "velocity": 120,
      "chip": "ym2612"
    },
    {
      "channel": 2,
      "note": 62,
      "start": 25.6704,
      "duration": 0.1229,
      "velocity": 109,
      "chip": "ym2612"
    },
    {
      "channel": 5,
      "note": 77,
      "start": 25.6705,
      "duration": 0.1079,
      "velocity": 118,
      "chip": "ym2612"
    },
    {
      "channel": 1,
      "note": 72,
      "start": 25.6873,
      "duration": 0.1723,
      "velocity": 109,
      "chip": "ym2612"
    },
    {
      "channel": 3,
      "note": 81,
      "start": 25.6875,
      "duration": 0.2403,
      "velocity": 112,
      "chip": "ym2612"
    },
    {
      "channel": 4,
      "note": 53,
      "start": 25.7007,
      "duration": 0.01,
      "velocity": 120,
      "chip": "ym2612"
    },
    {
      "channel": 4,
      "note": 65,
      "start": 25.7845,
      "duration": 0.0495,
      "velocity": 120,
      "chip": "ym2612"
    },
    {
      "channel": 2,
      "note": 53,
      "start": 25.8036,
      "duration": 0.1235,
      "velocity": 109,
      "chip": "ym2612"
    },
    {
      "channel": 5,
      "note": 77,
      "start": 25.8038,
      "duration": 0.1081,
      "velocity": 118,
      "chip": "ym2612"
    },
    {
      "channel": 4,
      "note": 53,
      "start": 25.834,
      "duration": 0.01,
      "velocity": 120,
      "chip": "ym2612"
    },
    {
      "channel": 4,
      "note": 82,
      "start": 25.918,
      "duration": 0.0494,
      "velocity": 126,
      "chip": "ym2612"
    },
    {
      "channel": 0,
      "note": 77,
      "start": 25.9402,
      "duration": 0.2357,
      "velocity": 110,
      "chip": "ym2612"
    },
    {
      "channel": 2,
      "note": 60,
      "start": 25.9403,
      "duration": 0.1196,
      "velocity": 109,
      "chip": "ym2612"
    },
    {
      "channel": 5,
      "note": 77,
      "start": 25.9405,
      "duration": 0.1039,
      "velocity": 118,
      "chip": "ym2612"
    },
    {
      "channel": 1,
      "note": 72,
      "start": 25.9552,
      "duration": 0.1711,
      "velocity": 109,
      "chip": "ym2612"
    },
    {
      "channel": 3,
      "note": 82,
      "start": 25.9553,
      "duration": 0.2392,
      "velocity": 112,
      "chip": "ym2612"
    },
    {
      "channel": 4,
      "note": 74,
      "start": 25.9673,
      "duration": 0.01,
      "velocity": 126,
      "chip": "ym2612"
    },
    {
      "channel": 2,
      "note": 53,
      "start": 26.0703,
      "duration": 0.1234,
      "velocity": 109,
      "chip": "ym2612"
    },
    {
      "channel": 5,
      "note": 77,
      "start": 26.0705,
      "duration": 0.1081,
      "velocity": 118,
      "chip": "ym2612"
    },
    {
      "channel": 4,
      "note": 65,
      "start": 26.1846,
      "duration": 0.0494,
      "velocity": 120,
      "chip": "ym2612"
    },
    {
      "channel": 0,
      "note": 81,
      "start": 26.2067,
      "duration": 0.2525,
      "velocity": 110,
      "chip": "ym2612"
    },
    {
      "channel": 2,
      "note": 65,
      "start": 26.2069,
      "duration": 0.103,
      "velocity": 109,
      "chip": "ym2612"
    },
    {
      "channel": 5,
      "note": 77,
      "start": 26.207,
      "duration": 0.1041,
      "velocity": 118,
      "chip": "ym2612"
    },
    {
      "channel": 1,
      "note": 72,
      "start": 26.2218,
      "duration": 0.1711,
      "velocity": 109,
      "chip": "ym2612"
    },
    {
      "channel": 3,
      "note": 84,
      "start": 26.2219,
      "duration": 0.2566,
      "velocity": 112,
      "chip": "ym2612"
    },
    {
      "channel": 4,
      "note": 53,
      "start": 26.234,
      "duration": 0.01,
      "velocity": 120,
      "chip": "ym2612"
    },
    {
      "channel": 2,
      "note": 53,
      "start": 26.3369,
      "duration": 0.1235,
      "velocity": 109,
      "chip": "ym2612"
    },
    {
      "channel": 5,
      "note": 77,
      "start": 26.3371,
      "duration": 0.108,
      "velocity": 118,
      "chip": "ym2612"
    },
    {
      "channel": 4,
      "note": 82,
      "start": 26.4512,
      "duration": 0.0495,
      "velocity": 126,
      "chip": "ym2612"
    },
    {
      "channel": 0,
      "note": 77,
      "start": 26.4734,
      "duration": 0.2358,
      "velocity": 110,
      "chip": "ym2612"
    },
    {
      "channel": 2,
      "note": 63,
      "start": 26.4735,
      "duration": 0.1197,
      "velocity": 109,
      "chip": "ym2612"
    },
    {
      "channel": 5,
      "note": 77,
      "start": 26.4737,
      "duration": 0.1047,
      "velocity": 118,
      "chip": "ym2612"
    },
    {
      "channel": 1,
      "note": 72,
      "start": 26.4883,
      "duration": 0.1712,
      "velocity": 109,
      "chip": "ym2612"
    },
    {
      "channel": 3,
      "note": 82,
      "start": 26.4885,
      "duration": 0.2399,
      "velocity": 112,
      "chip": "ym2612"
    },
    {
      "channel": 4,
      "note": 74,
      "start": 26.5007,
      "duration": 0.01,
      "velocity": 126,
      "chip": "ym2612"
    },
    {
      "channel": 4,
      "note": 65,
      "start": 26.5845,
      "duration": 0.0495,
      "velocity": 120,
      "chip": "ym2612"
    },
    {
      "channel": 2,
      "note": 53,
      "start": 26.6036,
      "duration": 0.1239,
      "velocity": 109,
      "chip": "ym2612"
    },
    {
      "channel": 5,
      "note": 77,
      "start": 26.6038,
      "duration": 0.1085,
      "velocity": 118,
      "chip": "ym2612"
    },
    {
      "channel": 4,
      "note": 53,
      "start": 26.634,
      "duration": 0.01,
      "velocity": 120,
      "chip": "ym2612"
    },
    {
      "channel": 4,
      "note": 65,
      "start": 26.7184,
      "duration": 0.0535,
      "velocity": 120,
      "chip": "ym2612"
    },
    {
      "channel": 0,
      "note": 79,
      "start": 26.7426,
      "duration": 0.2333,
      "velocity": 110,
      "chip": "ym2612"
    },
    {
      "channel": 2,
      "note": 55,
      "start": 26.7427,
      "duration": 0.1006,
      "velocity": 109,
      "chip": "ym2612"
    },
    {
      "channel": 5,
      "note": 77,
      "start": 26.7429,
      "duration": 0.1023,
      "velocity": 118,
      "chip": "ym2612"
    },
    {
      "channel": 1,
      "note": 74,
      "start": 26.7593,
      "duration": 0.167,
      "velocity": 109,
      "chip": "ym2612"
    },
    {
      "channel": 3,
      "note": 74,
      "start": 26.7594,
      "duration": 0.2351,
      "velocity": 110,
      "chip": "ym2612"
    },
    {
      "channel": 4,
      "note": 53,
      "start": 26.7719,
      "duration": 0.0055,
      "velocity": 120,
      "chip": "ym2612"
    },
    {
      "channel": 4,
      "note": 65,
      "start": 26.8513,
      "duration": 0.0494,
      "velocity": 120,
      "chip": "ym2612"
    },
    {
      "channel": 2,
      "note": 55,
      "start": 26.8703,
      "duration": 0.1235,
      "velocity": 109,
      "chip": "ym2612"
    },
    {
      "channel": 5,
      "note": 77,
      "start": 26.8705,
      "duration": 0.1081,
      "velocity": 118,
      "chip": "ym2612"
    },
    {
      "channel": 4,
      "note": 53,
      "start": 26.9007,
      "duration": 0.01,
      "velocity": 120,
      "chip": "ym2612"
    },
    {
      "channel": 4,
      "note": 82,
      "start": 26.9846,
      "duration": 0.05,
      "velocity": 126,
      "chip": "ym2612"
    },
    {
      "channel": 0,
      "note": 79,
      "start": 27.0068,
      "duration": 0.0524,
      "velocity": 110,
      "chip": "ym2612"
    },
    {
      "channel": 2,
      "note": 65,
      "start": 27.007,
      "duration": 0.1196,
      "velocity": 109,
      "chip": "ym2612"
    },
    {
      "channel": 5,
      "note": 77,
      "start": 27.0072,
      "duration": 0.1039,
      "velocity": 118,
      "chip": "ym2612"
    },
    {
      "channel": 1,
      "note": 74,
      "start": 27.0226,
      "duration": 0.1703,
      "velocity": 109,
      "chip": "ym2612"
    },
    {
      "channel": 3,
      "note": 84,
      "start": 27.0227,
      "duration": 0.2384,
      "velocity": 112,
      "chip": "ym2612"
    },
    {
      "channel": 4,
      "note": 74,
      "start": 27.0346,
      "duration": 0.0093,
      "velocity": 126,
      "chip": "ym2612"
    },
    {
      "channel": 0,
      "note": 79,
      "start": 27.0841,
      "duration": 0.0585,
      "velocity": 110,
      "chip": "ym2612"
    },
    {
      "channel": 2,
      "note": 55,
      "start": 27.1369,
      "duration": 0.1235,
      "velocity": 109,
      "chip": "ym2612"
    },
    {
      "channel": 5,
      "note": 77,
      "start": 27.1371,
      "duration": 0.1081,
      "velocity": 118,
      "chip": "ym2612"
    },
    {
      "channel": 0,
      "note": 79,
      "start": 27.1674,
      "duration": 0.0751,
      "velocity": 110,
      "chip": "ym2612"
    },
    {
      "channel": 4,
      "note": 65,
      "start": 27.2513,
      "duration": 0.0494,
      "velocity": 120,
      "chip": "ym2612"
    },
    {
      "channel": 0,
      "note": 79,
      "start": 27.2733,
      "duration": 0.2359,
      "velocity": 110,
      "chip": "ym2612"
    },
    {
      "channel": 2,
      "note": 63,
      "start": 27.2734,
      "duration": 0.1198,
      "velocity": 109,
      "chip": "ym2612"
    },
    {
      "channel": 5,
      "note": 77,
      "start": 27.2736,
      "duration": 0.1041,
      "velocity": 118,
      "chip": "ym2612"
    },
    {
      "channel": 1,
      "note": 74,
      "start": 27.2883,
      "duration": 0.1713,
      "velocity": 109,
      "chip": "ym2612"
    },
    {
      "channel": 3,
      "note": 82,
      "start": 27.2885,
      "duration": 0.2568,
      "velocity": 112,
      "chip": "ym2612"
    },
    {
      "channel": 4,
      "note": 53,
      "start": 27.3007,
      "duration": 0.01,
      "velocity": 120,
      "chip": "ym2612"
    },
    {
      "channel": 2,
      "note": 55,
      "start": 27.4036,
      "duration": 0.1235,
      "velocity": 109,
      "chip": "ym2612"
    },
    {
      "channel": 5,
      "note": 77,
      "start": 27.4038,
      "duration": 0.1081,
      "velocity": 118,
      "chip": "ym2612"
    },
    {
      "channel": 4,
      "note": 82,
      "start": 27.518,
      "duration": 0.0494,
      "velocity": 126,
      "chip": "ym2612"
    },
    {
      "channel": 0,
      "note": 82,
      "start": 27.54,
      "duration": 0.4858,
      "velocity": 110,
      "chip": "ym2612"
    },
    {
      "channel": 2,
      "note": 62,
      "start": 27.5402,
      "duration": 0.1197,
      "velocity": 109,
      "chip": "ym2612"
    },
    {
      "channel": 5,
      "note": 77,
      "start": 27.5404,
      "duration": 0.104,
      "velocity": 118,
      "chip": "ym2612"
    },
    {
      "channel": 1,
      "note": 74,
      "start": 27.5549,
      "duration": 0.1713,
      "velocity": 109,
      "chip": "ym2612"
    },
    {
      "channel": 3,
      "note": 81,
      "start": 27.5551,
      "duration": 0.2558,
      "velocity": 112,
      "chip": "ym2612"
    },
    {
      "channel": 4,
      "note": 74,
      "start": 27.5673,
      "duration": 0.01,
      "velocity": 126,
      "chip": "ym2612"
    },
    {
      "channel": 2,
      "note": 55,
      "start": 27.6703,
      "duration": 0.1231,
      "velocity": 109,
      "chip": "ym2612"
    },
    {
      "channel": 5,
      "note": 77,
      "start": 27.6705,
      "duration": 0.108,
      "velocity": 118,
      "chip": "ym2612"
    },
    {
      "channel": 4,
      "note": 65,
      "start": 27.7845,
      "duration": 0.0495,
      "velocity": 120,
      "chip": "ym2612"
    },
    {
      "channel": 2,
      "note": 63,
      "start": 27.8037,
      "duration": 0.1229,
      "velocity": 109,
      "chip": "ym2612"
    },
    {
      "channel": 5,
      "note": 77,
      "start": 27.8039,
      "duration": 0.1079,
      "velocity": 118,
      "chip": "ym2612"
    },
    {
      "channel": 1,
      "note": 74,
      "start": 27.8206,
      "duration": 0.1723,
      "velocity": 109,
      "chip": "ym2612"
    },
    {
      "channel": 3,
      "note": 82,
      "start": 27.8208,
      "duration": 0.2578,
      "velocity": 112,
      "chip": "ym2612"
    },
    {
      "channel": 4,
      "note": 53,
      "start": 27.834,
      "duration": 0.01,
      "velocity": 120,
      "chip": "ym2612"
    },
    {
      "channel": 4,
      "note": 65,
      "start": 27.9178,
      "duration": 0.0495,
      "velocity": 120,
      "chip": "ym2612"
    },
    {
      "channel": 2,
      "note": 55,
      "start": 27.9369,
      "duration": 0.1235,
      "velocity": 109,
      "chip": "ym2612"
    },
    {
      "channel": 5,
      "note": 77,
      "start": 27.9371,
      "duration": 0.1081,
      "velocity": 118,
      "chip": "ym2612"
    },
    {
      "channel": 4,
      "note": 53,
      "start": 27.9673,
      "duration": 0.01,
      "velocity": 120,
      "chip": "ym2612"
    },
    {
      "channel": 4,
      "note": 82,
      "start": 28.0513,
      "duration": 0.0494,
      "velocity": 126,
      "chip": "ym2612"
    },
    {
      "channel": 0,
      "note": 79,
      "start": 28.0734,
      "duration": 0.2358,
      "velocity": 110,
      "chip": "ym2612"
    },
    {
      "channel": 2,
      "note": 62,
      "start": 28.0735,
      "duration": 0.1197,
      "velocity": 109,
      "chip": "ym2612"
    },
    {
      "channel": 5,
      "note": 77,
      "start": 28.0737,
      "duration": 0.104,
      "velocity": 118,
      "chip": "ym2612"
    },
    {
      "channel": 1,
      "note": 74,
      "start": 28.0883,
      "duration": 0.1713,
      "velocity": 109,
      "chip": "ym2612"
    },
    {
      "channel": 3,
      "note": 81,
      "start": 28.0884,
      "duration": 0.2567,
      "velocity": 112,
      "chip": "ym2612"
    },
    {
      "channel": 4,
      "note": 74,
      "start": 28.1007,
      "duration": 0.01,
      "velocity": 126,
      "chip": "ym2612"
    },
    {
      "channel": 2,
      "note": 55,
      "start": 28.2036,
      "duration": 0.1234,
      "velocity": 109,
      "chip": "ym2612"
    },
    {
      "channel": 5,
      "note": 77,
      "start": 28.2038,
      "duration": 0.1081,
      "velocity": 118,
      "chip": "ym2612"
    },
    {
      "channel": 4,
      "note": 65,
      "start": 28.318,
      "duration": 0.0494,
      "velocity": 120,
      "chip": "ym2612"
    },
    {
      "channel": 0,
      "note": 82,
      "start": 28.3398,
      "duration": 0.2527,
      "velocity": 110,
      "chip": "ym2612"
    },
    {
      "channel": 2,
      "note": 60,
      "start": 28.3399,
      "duration": 0.12,
      "velocity": 109,
      "chip": "ym2612"
    },
    {
      "channel": 5,
      "note": 77,
      "start": 28.3401,
      "duration": 0.1043,
      "velocity": 118,
      "chip": "ym2612"
    },
    {
      "channel": 1,
      "note": 74,
      "start": 28.3548,
      "duration": 0.1715,
      "velocity": 109,
      "chip": "ym2612"
    },
    {
      "channel": 3,
      "note": 79,
      "start": 28.3549,
      "duration": 0.2569,
      "velocity": 112,
      "chip": "ym2612"
    },
    {
      "channel": 4,
      "note": 53,
      "start": 28.3673,
      "duration": 0.01,
      "velocity": 120,
      "chip": "ym2612"
    },
    {
      "channel": 2,
      "note": 55,
      "start": 28.4703,
      "duration": 0.1235,
      "velocity": 109,
      "chip": "ym2612"
    },
    {
      "channel": 5,
      "note": 77,
      "start": 28.4705,
      "duration": 0.108,
      "velocity": 118,
      "chip": "ym2612"
    },
    {
      "channel": 4,
      "note": 82,
      "start": 28.5845,
      "duration": 0.0495,
      "velocity": 126,
      "chip": "ym2612"
    },
    {
      "channel": 0,
      "note": 79,
      "start": 28.6067,
      "duration": 0.2358,
      "velocity": 110,
      "chip": "ym2612"
    },
    {
      "channel": 2,
      "note": 62,
      "start": 28.6068,
      "duration": 0.1197,
      "velocity": 109,
      "chip": "ym2612"
    },
    {
      "channel": 5,
      "note": 77,
      "start": 28.607,
      "duration": 0.1047,
      "velocity": 118,
      "chip": "ym2612"
    },
    {
      "channel": 1,
      "note": 74,
      "start": 28.6217,
      "duration": 0.1712,
      "velocity": 109,
      "chip": "ym2612"
    },
    {
      "channel": 3,
      "note": 81,
      "start": 28.6218,
      "duration": 0.2394,
      "velocity": 112,
      "chip": "ym2612"
    },
    {
      "channel": 4,
      "note": 74,
      "start": 28.634,
      "duration": 0.01,
      "velocity": 126,
      "chip": "ym2612"
    },
    {
      "channel": 4,
      "note": 65,
      "start": 28.7178,
      "duration": 0.0495,
      "velocity": 120,
      "chip": "ym2612"
    },
    {
      "channel": 2,
      "note": 55,
      "start": 28.7369,
      "duration": 0.1236,
      "velocity": 109,
      "chip": "ym2612"
    },
    {
      "channel": 5,
      "note": 77,
      "start": 28.7371,
      "duration": 0.1085,
      "velocity": 118,
      "chip": "ym2612"
    },
    {
      "channel": 4,
      "note": 53,
      "start": 28.7673,
      "duration": 0.01,
      "velocity": 120,
      "chip": "ym2612"
    },
    {
      "channel": 4,
      "note": 65,
      "start": 28.8517,
      "duration": 0.0514,
      "velocity": 120,
      "chip": "ym2612"
    },
    {
      "channel": 0,
      "note": 79,
      "start": 28.8755,
      "duration": 0.2337,
      "velocity": 110,
      "chip": "ym2612"
    },
    {
      "channel": 2,
      "note": 55,
      "start": 28.8756,
      "duration": 0.1176,
      "velocity": 109,
      "chip": "ym2612"
    },
    {
      "channel": 5,
      "note": 77,
      "start": 28.8758,
      "duration": 0.1026,
      "velocity": 118,
      "chip": "ym2612"
    },
    {
      "channel": 1,
      "note": 74,
      "start": 28.8916,
      "duration": 0.168,
      "velocity": 109,
      "chip": "ym2612"
    },
    {
      "channel": 3,
      "note": 74,
      "start": 28.8917,
      "duration": 0.2361,
      "velocity": 110,
      "chip": "ym2612"
    },
    {
      "channel": 4,
      "note": 53,
      "start": 28.9031,
      "duration": 0.0076,
      "velocity": 120,
      "chip": "ym2612"
    },
    {
      "channel": 4,
      "note": 65,
      "start": 28.9845,
      "duration": 0.0495,
      "velocity": 120,
      "chip": "ym2612"
    },
    {
      "channel": 2,
      "note": 55,
      "start": 29.0036,
      "duration": 0.1235,
      "velocity": 109,
      "chip": "ym2612"
    },
    {
      "channel": 5,
      "note": 77,
      "start": 29.0038,
      "duration": 0.1081,
      "velocity": 118,
      "chip": "ym2612"
    },
    {
      "channel": 4,
      "note": 53,
      "start": 29.034,
      "duration": 0.01,
      "velocity": 120,
      "chip": "ym2612"
    },
    {
      "channel": 4,
      "note": 82,
      "start": 29.118,
      "duration": 0.05,
      "velocity": 126,
      "chip": "ym2612"
    },
    {
      "channel": 0,
      "note": 79,
      "start": 29.1402,
      "duration": 0.0524,
      "velocity": 110,
      "chip": "ym2612"
    },
    {
      "channel": 2,
      "note": 65,
      "start": 29.1403,
      "duration": 0.1196,
      "velocity": 109,
      "chip": "ym2612"
    },
    {
      "channel": 5,
      "note": 77,
      "start": 29.1405,
      "duration": 0.1039,
      "velocity": 118,
      "chip": "ym2612"
    },
    {
      "channel": 1,
      "note": 74,
      "start": 29.156,
      "duration": 0.1703,
      "velocity": 109,
      "chip": "ym2612"
    },
    {
      "channel": 3,
      "note": 84,
      "start": 29.1561,
      "duration": 0.2384,
      "velocity": 112,
      "chip": "ym2612"
    },
    {
      "channel": 4,
      "note": 74,
      "start": 29.168,
      "duration": 0.0093,
      "velocity": 126,
      "chip": "ym2612"
    },
    {
      "channel": 0,
      "note": 79,
      "start": 29.2174,
      "duration": 0.0585,
      "velocity": 110,
      "chip": "ym2612"
    },
    {
      "channel": 2,
      "note": 55,
      "start": 29.2703,
      "duration": 0.1235,
      "velocity": 109,
      "chip": "ym2612"
    },
    {
      "channel": 5,
      "note": 77,
      "start": 29.2705,
      "duration": 0.1081,
      "velocity": 118,
      "chip": "ym2612"
    },
    {
      "channel": 0,
      "note": 79,
      "start": 29.3007,
      "duration": 0.0751,
      "velocity": 110,
      "chip": "ym2612"
    },
    {
      "channel": 4,
      "note": 65,
      "start": 29.3846,
      "duration": 0.0494,
      "velocity": 120,
      "chip": "ym2612"
    },
    {
      "channel": 0,
      "note": 79,
      "start": 29.4066,
      "duration": 0.2359,
      "velocity": 110,
      "chip": "ym2612"
    },
    {
      "channel": 2,
      "note": 63,
      "start": 29.4068,
      "duration": 0.1198,
      "velocity": 109,
      "chip": "ym2612"
    },
    {
      "channel": 5,
      "note": 77,
      "start": 29.4069,
      "duration": 0.1041,
      "velocity": 118,
      "chip": "ym2612"
    },
    {
      "channel": 1,
      "note": 74,
      "start": 29.4216,
      "duration": 0.1713,
      "velocity": 109,
      "chip": "ym2612"
    },
    {
      "channel": 3,
      "note": 82,
      "start": 29.4218,
      "duration": 0.2568,
      "velocity": 112,
      "chip": "ym2612"
    },
    {
      "channel": 4,
      "note": 53,
      "start": 29.434,
      "duration": 0.01,
      "velocity": 120,
      "chip": "ym2612"
    },
    {
      "channel": 2,
      "note": 55,
      "start": 29.5369,
      "duration": 0.1235,
      "velocity": 109,
      "chip": "ym2612"
    },
    {
      "channel": 5,
      "note": 77,
      "start": 29.5371,
      "duration": 0.1081,
      "velocity": 118,
      "chip": "ym2612"
    },
    {
      "channel": 4,
      "note": 82,
      "start": 29.6513,
      "duration": 0.0494,
      "velocity": 126,
      "chip": "ym2612"
    },
    {
      "channel": 0,
      "note": 82,
      "start": 29.6734,
      "duration": 0.4858,
      "velocity": 110,
      "chip": "ym2612"
    },
    {
      "channel": 2,
      "note": 62,
      "start": 29.6735,
      "duration": 0.1197,
      "velocity": 109,
      "chip": "ym2612"
    },
    {
      "channel": 5,
      "note": 77,
      "start": 29.6737,
      "duration": 0.104,
      "velocity": 118,
      "chip": "ym2612"
    },
    {
      "channel": 1,
      "note": 74,
      "start": 29.6883,
      "duration": 0.1713,
      "velocity": 109,
      "chip": "ym2612"
    },
    {
      "channel": 3,
      "note": 81,
      "start": 29.6884,
      "duration": 0.2558,
      "velocity": 112,
      "chip": "ym2612"
    },
    {
      "channel": 4,
      "note": 74,
      "start": 29.7007,
      "duration": 0.01,
      "velocity": 126,
      "chip": "ym2612"
    },
    {
      "channel": 2,
      "note": 55,
      "start": 29.8036,
      "duration": 0.1231,
      "velocity": 109,
      "chip": "ym2612"
    },
    {
      "channel": 5,
      "note": 77,
      "start": 29.8038,
      "duration": 0.108,
      "velocity": 118,
      "chip": "ym2612"
    },
    {
      "channel": 4,
      "note": 65,
      "start": 29.9178,
      "duration": 0.0495,
      "velocity": 120,
      "chip": "ym2612"
    },
    {
      "channel": 2,
      "note": 63,
      "start": 29.9371,
      "duration": 0.1229,
      "velocity": 109,
      "chip": "ym2612"
    },
    {
      "channel": 5,
      "note": 77,
      "start": 29.9372,
      "duration": 0.1079,
      "velocity": 118,
      "chip": "ym2612"
    },
    {
      "channel": 1,
      "note": 74,
      "start": 29.9539,
      "duration": 0.1723,
      "velocity": 109,
      "chip": "ym2612"
    },
    {
      "channel": 3,
      "note": 82,
      "start": 29.9541,
      "duration": 0.2578,
      "velocity": 112,
      "chip": "ym2612"
    },
    {
      "channel": 4,
      "note": 53,
      "start": 29.9673,
      "duration": 0.01,
      "velocity": 120,
      "chip": "ym2612"
    },
    {
      "channel": 4,
      "note": 65,
      "start": 30.0512,
      "duration": 0.0495,
      "velocity": 120,
      "chip": "ym2612"
    },
    {
      "channel": 2,
      "note": 55,
      "start": 30.0703,
      "duration": 0.1235,
      "velocity": 109,
      "chip": "ym2612"
    },
    {
      "channel": 5,
      "note": 77,
      "start": 30.0705,
      "duration": 0.1081,
      "velocity": 118,
      "chip": "ym2612"
    },
    {
      "channel": 4,
      "note": 53,
      "start": 30.1007,
      "duration": 0.01,
      "velocity": 120,
      "chip": "ym2612"
    },
    {
      "channel": 4,
      "note": 82,
      "start": 30.1846,
      "duration": 0.0494,
      "velocity": 126,
      "chip": "ym2612"
    },
    {
      "channel": 0,
      "note": 79,
      "start": 30.2067,
      "duration": 0.2358,
      "velocity": 110,
      "chip": "ym2612"
    },
    {
      "channel": 2,
      "note": 62,
      "start": 30.2068,
      "duration": 0.1197,
      "velocity": 109,
      "chip": "ym2612"
    },
    {
      "channel": 5,
      "note": 77,
      "start": 30.207,
      "duration": 0.104,
      "velocity": 118,
      "chip": "ym2612"
    },
    {
      "channel": 1,
      "note": 74,
      "start": 30.2216,
      "duration": 0.1713,
      "velocity": 109,
      "chip": "ym2612"
    },
    {
      "channel": 3,
      "note": 81,
      "start": 30.2217,
      "duration": 0.2567,
      "velocity": 112,
      "chip": "ym2612"
    },
    {
      "channel": 4,
      "note": 74,
      "start": 30.234,
      "duration": 0.01,
      "velocity": 126,
      "chip": "ym2612"
    },
    {
      "channel": 2,
      "note": 55,
      "start": 30.3369,
      "duration": 0.1234,
      "velocity": 109,
      "chip": "ym2612"
    },
    {
      "channel": 5,
      "note": 77,
      "start": 30.3371,
      "duration": 0.1081,
      "velocity": 118,
      "chip": "ym2612"
    },
    {
      "channel": 4,
      "note": 65,
      "start": 30.4513,
      "duration": 0.0494,
      "velocity": 120,
      "chip": "ym2612"
    },
    {
      "channel": 0,
      "note": 82,
      "start": 30.4731,
      "duration": 0.2527,
      "velocity": 110,
      "chip": "ym2612"
    },
    {
      "channel": 2,
      "note": 60,
      "start": 30.4733,
      "duration": 0.12,
      "velocity": 109,
      "chip": "ym2612"
    },
    {
      "channel": 5,
      "note": 77,
      "start": 30.4734,
      "duration": 0.1043,
      "velocity": 118,
      "chip": "ym2612"
    },
    {
      "channel": 1,
      "note": 74,
      "start": 30.4881,
      "duration": 0.1715,
      "velocity": 109,
      "chip": "ym2612"
    },
    {
      "channel": 3,
      "note": 79,
      "start": 30.4883,
      "duration": 0.2569,
      "velocity": 112,
      "chip": "ym2612"
    },
    {
      "channel": 4,
      "note": 53,
      "start": 30.5007,
      "duration": 0.01,
      "velocity": 120,
      "chip": "ym2612"
    },
    {
      "channel": 2,
      "note": 55,
      "start": 30.6036,
      "duration": 0.1235,
      "velocity": 109,
      "chip": "ym2612"
    },
    {
      "channel": 5,
      "note": 77,
      "start": 30.6038,
      "duration": 0.108,
      "velocity": 118,
      "chip": "ym2612"
    },
    {
      "channel": 4,
      "note": 82,
      "start": 30.7178,
      "duration": 0.0495,
      "velocity": 126,
      "chip": "ym2612"
    },
    {
      "channel": 0,
      "note": 79,
      "start": 30.74,
      "duration": 0.2358,
      "velocity": 110,
      "chip": "ym2612"
    },
    {
      "channel": 2,
      "note": 62,
      "start": 30.7402,
      "duration": 0.1197,
      "velocity": 109,
      "chip": "ym2612"
    },
    {
      "channel": 5,
      "note": 77,
      "start": 30.7404,
      "duration": 0.1047,
      "velocity": 118,
      "chip": "ym2612"
    },
    {
      "channel": 1,
      "note": 74,
      "start": 30.755,
      "duration": 0.1712,
      "velocity": 109,
      "chip": "ym2612"
    },
    {
      "channel": 3,
      "note": 81,
      "start": 30.7551,
      "duration": 0.2398,
      "velocity": 112,
      "chip": "ym2612"
    },
    {
      "channel": 4,
      "note": 74,
      "start": 30.7673,
      "duration": 0.01,
      "velocity": 126,
      "chip": "ym2612"
    },
    {
      "channel": 4,
      "note": 65,
      "start": 30.8512,
      "duration": 0.0495,
      "velocity": 120,
      "chip": "ym2612"
    },
    {
      "channel": 2,
      "note": 55,
      "start": 30.8703,
      "duration": 0.1237,
      "velocity": 109,
      "chip": "ym2612"
    },
    {
      "channel": 5,
      "note": 77,
      "start": 30.8705,
      "duration": 0.1085,
      "velocity": 118,
      "chip": "ym2612"
    },
    {
      "channel": 4,
      "note": 53,
      "start": 30.9007,
      "duration": 0.01,
      "velocity": 120,
      "chip": "ym2612"
    },
    {
      "channel": 4,
      "note": 65,
      "start": 30.985,
      "duration": 0.053,
      "velocity": 120,
      "chip": "ym2612"
    },
    {
      "channel": 0,
      "note": 77,
      "start": 31.0091,
      "duration": 0.2334,
      "velocity": 110,
      "chip": "ym2612"
    },
    {
      "channel": 2,
      "note": 53,
      "start": 31.0093,
      "duration": 0.1007,
      "velocity": 109,
      "chip": "ym2612"
    },
    {
      "channel": 5,
      "note": 77,
      "start": 31.0095,
      "duration": 0.1024,
      "velocity": 118,
      "chip": "ym2612"
    },
    {
      "channel": 1,
      "note": 72,
      "start": 31.0257,
      "duration": 0.1673,
      "velocity": 109,
      "chip": "ym2612"
    },
    {
      "channel": 3,
      "note": 72,
      "start": 31.0258,
      "duration": 0.2353,
      "velocity": 110,
      "chip": "ym2612"
    },
    {
      "channel": 4,
      "note": 53,
      "start": 31.0381,
      "duration": 0.0059,
      "velocity": 120,
      "chip": "ym2612"
    },
    {
      "channel": 4,
      "note": 65,
      "start": 31.118,
      "duration": 0.0494,
      "velocity": 120,
      "chip": "ym2612"
    },
    {
      "channel": 2,
      "note": 53,
      "start": 31.1369,
      "duration": 0.1235,
      "velocity": 109,
      "chip": "ym2612"
    },
    {
      "channel": 5,
      "note": 77,
      "start": 31.1371,
      "duration": 0.1081,
      "velocity": 118,
      "chip": "ym2612"
    },
    {
      "channel": 4,
      "note": 53,
      "start": 31.1673,
      "duration": 0.01,
      "velocity": 120,
      "chip": "ym2612"
    },
    {
      "channel": 4,
      "note": 82,
      "start": 31.2513,
      "duration": 0.05,
      "velocity": 126,
      "chip": "ym2612"
    },
    {
      "channel": 0,
      "note": 77,
      "start": 31.2735,
      "duration": 0.0524,
      "velocity": 110,
      "chip": "ym2612"
    },
    {
      "channel": 2,
      "note": 63,
      "start": 31.2737,
      "duration": 0.1196,
      "velocity": 109,
      "chip": "ym2612"
    },
    {
      "channel": 5,
      "note": 77,
      "start": 31.2738,
      "duration": 0.1039,
      "velocity": 118,
      "chip": "ym2612"
    },
    {
      "channel": 1,
      "note": 72,
      "start": 31.2893,
      "duration": 0.1703,
      "velocity": 109,
      "chip": "ym2612"
    },
    {
      "channel": 3,
      "note": 82,
      "start": 31.2894,
      "duration": 0.2384,
      "velocity": 112,
      "chip": "ym2612"
    },
    {
      "channel": 4,
      "note": 74,
      "start": 31.3013,
      "duration": 0.0093,
      "velocity": 126,
      "chip": "ym2612"
    },
    {
      "channel": 0,
      "note": 77,
      "start": 31.3507,
      "duration": 0.0585,
      "velocity": 110,
      "chip": "ym2612"
    },
    {
      "channel": 2,
      "note": 53,
      "start": 31.4036,
      "duration": 0.1235,
      "velocity": 109,
      "chip": "ym2612"
    },
    {
      "channel": 5,
      "note": 77,
      "start": 31.4038,
      "duration": 0.1081,
      "velocity": 118,
      "chip": "ym2612"
    },
    {
      "channel": 0,
      "note": 77,
      "start": 31.4341,
      "duration": 0.0751,
      "velocity": 110,
      "chip": "ym2612"
    },
    {
      "channel": 4,
      "note": 65,
      "start": 31.518,
      "duration": 0.0494,
      "velocity": 120,
      "chip": "ym2612"
    },
    {
      "channel": 0,
      "note": 77,
      "start": 31.5399,
      "duration": 0.2359,
      "velocity": 110,
      "chip": "ym2612"
    },
    {
      "channel": 2,
      "note": 62,
      "start": 31.5401,
      "duration": 0.1198,
      "velocity": 109,
      "chip": "ym2612"
    },
    {
      "channel": 5,
      "note": 77,
      "start": 31.5402,
      "duration": 0.1041,
      "velocity": 118,
      "chip": "ym2612"
    },
    {
      "channel": 1,
      "note": 72,
      "start": 31.5549,
      "duration": 0.1713,
      "velocity": 109,
      "chip": "ym2612"
    },
    {
      "channel": 3,
      "note": 81,
      "start": 31.5551,
      "duration": 0.2568,
      "velocity": 112,
      "chip": "ym2612"
    },
    {
      "channel": 4,
      "note": 53,
      "start": 31.5673,
      "duration": 0.01,
      "velocity": 120,
      "chip": "ym2612"
    },
    {
      "channel": 2,
      "note": 53,
      "start": 31.6703,
      "duration": 0.1235,
      "velocity": 109,
      "chip": "ym2612"
    },
    {
      "channel": 5,
      "note": 77,
      "start": 31.6705,
      "duration": 0.1081,
      "velocity": 118,
      "chip": "ym2612"
    },
    {
      "channel": 4,
      "note": 82,
      "start": 31.7846,
      "duration": 0.0494,
      "velocity": 126,
      "chip": "ym2612"
    },
    {
      "channel": 0,
      "note": 81,
      "start": 31.8067,
      "duration": 0.4858,
      "velocity": 110,
      "chip": "ym2612"
    },
    {
      "channel": 2,
      "note": 60,
      "start": 31.8068,
      "duration": 0.1197,
      "velocity": 109,
      "chip": "ym2612"
    },
    {
      "channel": 5,
      "note": 77,
      "start": 31.807,
      "duration": 0.104,
      "velocity": 118,
      "chip": "ym2612"
    },
    {
      "channel": 1,
      "note": 72,
      "start": 31.8216,
      "duration": 0.1713,
      "velocity": 109,
      "chip": "ym2612"
    },
    {
      "channel": 3,
      "note": 79,
      "start": 31.8217,
      "duration": 0.2558,
      "velocity": 112,
      "chip": "ym2612"
    },
    {
      "channel": 4,
      "note": 74,
      "start": 31.834,
      "duration": 0.01,
      "velocity": 126,
      "chip": "ym2612"
    },
    {
      "channel": 2,
      "note": 53,
      "start": 31.9369,
      "duration": 0.1231,
      "velocity": 109,
      "chip": "ym2612"
    },
    {
      "channel": 5,
      "note": 77,
      "start": 31.9371,
      "duration": 0.108,
      "velocity": 118,
      "chip": "ym2612"
    },
    {
      "channel": 4,
      "note": 65,
      "start": 32.0512,
      "duration": 0.0495,
      "velocity": 120,
      "chip": "ym2612"
    },
    {
      "channel": 2,
      "note": 62,
      "start": 32.0704,
      "duration": 0.1229,
      "velocity": 109,
      "chip": "ym2612"
    },
    {
      "channel": 5,
      "note": 77,
      "start": 32.0705,
      "duration": 0.1079,
      "velocity": 118,
      "chip": "ym2612"
    },
    {
      "channel": 1,
      "note": 72,
      "start": 32.0873,
      "duration": 0.1723,
      "velocity": 109,
      "chip": "ym2612"
    },
    {
      "channel": 3,
      "note": 81,
      "start": 32.0875,
      "duration": 0.2403,
      "velocity": 112,
      "chip": "ym2612"
    },
    {
      "channel": 4,
      "note": 53,
      "start": 32.1007,
      "duration": 0.01,
      "velocity": 120,
      "chip": "ym2612"
    },
    {
      "channel": 4,
      "note": 65,
      "start": 32.1845,
      "duration": 0.0495,
      "velocity": 120,
      "chip": "ym2612"
    },
    {
      "channel": 2,
      "note": 53,
      "start": 32.2036,
      "duration": 0.1235,
      "velocity": 109,
      "chip": "ym2612"
    },
    {
      "channel": 5,
      "note": 77,
      "start": 32.2038,
      "duration": 0.1081,
      "velocity": 118,
      "chip": "ym2612"
    },
    {
      "channel": 4,
      "note": 53,
      "start": 32.234,
      "duration": 0.01,
      "velocity": 120,
      "chip": "ym2612"
    },
    {
      "channel": 4,
      "note": 82,
      "start": 32.318,
      "duration": 0.0494,
      "velocity": 126,
      "chip": "ym2612"
    },
    {
      "channel": 0,
      "note": 77,
      "start": 32.3402,
      "duration": 0.2357,
      "velocity": 110,
      "chip": "ym2612"
    },
    {
      "channel": 2,
      "note": 60,
      "start": 32.3403,
      "duration": 0.1196,
      "velocity": 109,
      "chip": "ym2612"
    },
    {
      "channel": 5,
      "note": 77,
      "start": 32.3405,
      "duration": 0.1039,
      "velocity": 118,
      "chip": "ym2612"
    },
    {
      "channel": 1,
      "note": 72,
      "start": 32.3552,
      "duration": 0.1711,
      "velocity": 109,
      "chip": "ym2612"
    },
    {
      "channel": 3,
      "note": 79,
      "start": 32.3553,
      "duration": 0.2392,
      "velocity": 112,
      "chip": "ym2612"
    },
    {
      "channel": 4,
      "note": 74,
      "start": 32.3673,
      "duration": 0.01,
      "velocity": 126,
      "chip": "ym2612"
    },
    {
      "channel": 2,
      "note": 53,
      "start": 32.4703,
      "duration": 0.1234,
      "velocity": 109,
      "chip": "ym2612"
    },
    {
      "channel": 5,
      "note": 77,
      "start": 32.4705,
      "duration": 0.1081,
      "velocity": 118,
      "chip": "ym2612"
    },
    {
      "channel": 4,
      "note": 65,
      "start": 32.5846,
      "duration": 0.0494,
      "velocity": 120,
      "chip": "ym2612"
    },
    {
      "channel": 0,
      "note": 81,
      "start": 32.6067,
      "duration": 0.2525,
      "velocity": 110,
      "chip": "ym2612"
    },
    {
      "channel": 2,
      "note": 58,
      "start": 32.6069,
      "duration": 0.103,
      "velocity": 109,
      "chip": "ym2612"
    },
    {
      "channel": 5,
      "note": 77,
      "start": 32.607,
      "duration": 0.1041,
      "velocity": 118,
      "chip": "ym2612"
    },
    {
      "channel": 1,
      "note": 72,
      "start": 32.6218,
      "duration": 0.1711,
      "velocity": 109,
      "chip": "ym2612"
    },
    {
      "channel": 3,
      "note": 77,
      "start": 32.6219,
      "duration": 0.2566,
      "velocity": 112,
      "chip": "ym2612"
    },
    {
      "channel": 4,
      "note": 53,
      "start": 32.634,
      "duration": 0.01,
      "velocity": 120,
      "chip": "ym2612"
    },
    {
      "channel": 2,
      "note": 53,
      "start": 32.7369,
      "duration": 0.1235,
      "velocity": 109,
      "chip": "ym2612"
    },
    {
      "channel": 5,
      "note": 77,
      "start": 32.7371,
      "duration": 0.108,
      "velocity": 118,
      "chip": "ym2612"
    },
    {
      "channel": 4,
      "note": 82,
      "start": 32.8512,
      "duration": 0.0495,
      "velocity": 126,
      "chip": "ym2612"
    },
    {
      "channel": 0,
      "note": 77,
      "start": 32.8734,
      "duration": 0.2358,
      "velocity": 110,
      "chip": "ym2612"
    },
    {
      "channel": 2,
      "note": 60,
      "start": 32.8735,
      "duration": 0.1197,
      "velocity": 109,
      "chip": "ym2612"
    },
    {
      "channel": 5,
      "note": 77,
      "start": 32.8737,
      "duration": 0.1047,
      "velocity": 118,
      "chip": "ym2612"
    },
    {
      "channel": 1,
      "note": 72,
      "start": 32.8883,
      "duration": 0.1712,
      "velocity": 109,
      "chip": "ym2612"
    },
    {
      "channel": 3,
      "note": 79,
      "start": 32.8885,
      "duration": 0.2397,
      "velocity": 112,
      "chip": "ym2612"
    },
    {
      "channel": 4,
      "note": 74,
      "start": 32.9007,
      "duration": 0.01,
      "velocity": 126,
      "chip": "ym2612"
    },
    {
      "channel": 4,
      "note": 65,
      "start": 32.9845,
      "duration": 0.0495,
      "velocity": 120,
      "chip": "ym2612"
    },
    {
      "channel": 2,
      "note": 53,
      "start": 33.0036,
      "duration": 0.1236,
      "velocity": 109,
      "chip": "ym2612"
    },
    {
      "channel": 5,
      "note": 77,
      "start": 33.0038,
      "duration": 0.1085,
      "velocity": 118,
      "chip": "ym2612"
    },
    {
      "channel": 4,
      "note": 53,
      "start": 33.034,
      "duration": 0.01,
      "velocity": 120,
      "chip": "ym2612"
    },
    {
      "channel": 4,
      "note": 65,
      "start": 33.1184,
      "duration": 0.0516,
      "velocity": 120,
      "chip": "ym2612"
    },
    {
      "channel": 0,
      "note": 77,
      "start": 33.1423,
      "duration": 0.2335,
      "velocity": 110,
      "chip": "ym2612"
    },
    {
      "channel": 2,
      "note": 53,
      "start": 33.1425,
      "duration": 0.1008,
      "velocity": 109,
      "chip": "ym2612"
    },
    {
      "channel": 5,
      "note": 77,
      "start": 33.1427,
      "duration": 0.1026,
      "velocity": 118,
      "chip": "ym2612"
    },
    {
      "channel": 1,
      "note": 72,
      "start": 33.1584,
      "duration": 0.1678,
      "velocity": 109,
      "chip": "ym2612"
    },
    {
      "channel": 3,
      "note": 72,
      "start": 33.1586,
      "duration": 0.2359,
      "velocity": 110,
      "chip": "ym2612"
    },
    {
      "channel": 4,
      "note": 53,
      "start": 33.17,
      "duration": 0.0074,
      "velocity": 120,
      "chip": "ym2612"
    },
    {
      "channel": 4,
      "note": 65,
      "start": 33.2513,
      "duration": 0.0494,
      "velocity": 120,
      "chip": "ym2612"
    },
    {
      "channel": 2,
      "note": 53,
      "start": 33.2703,
      "duration": 0.1235,
      "velocity": 109,
      "chip": "ym2612"
    },
    {
      "channel": 5,
      "note": 77,
      "start": 33.2705,
      "duration": 0.1081,
      "velocity": 118,
      "chip": "ym2612"
    },
    {
      "channel": 4,
      "note": 53,
      "start": 33.3007,
      "duration": 0.01,
      "velocity": 120,
      "chip": "ym2612"
    },
    {
      "channel": 4,
      "note": 82,
      "start": 33.3846,
      "duration": 0.05,
      "velocity": 126,
      "chip": "ym2612"
    },
    {
      "channel": 0,
      "note": 77,
      "start": 33.4068,
      "duration": 0.0524,
      "velocity": 110,
      "chip": "ym2612"
    },
    {
      "channel": 2,
      "note": 63,
      "start": 33.407,
      "duration": 0.1196,
      "velocity": 109,
      "chip": "ym2612"
    },
    {
      "channel": 5,
      "note": 77,
      "start": 33.4072,
      "duration": 0.1039,
      "velocity": 118,
      "chip": "ym2612"
    },
    {
      "channel": 1,
      "note": 72,
      "start": 33.4226,
      "duration": 0.1703,
      "velocity": 109,
      "chip": "ym2612"
    },
    {
      "channel": 3,
      "note": 82,
      "start": 33.4227,
      "duration": 0.2384,
      "velocity": 112,
      "chip": "ym2612"
    },
    {
      "channel": 4,
      "note": 74,
      "start": 33.4346,
      "duration": 0.0093,
      "velocity": 126,
      "chip": "ym2612"
    },
    {
      "channel": 0,
      "note": 77,
      "start": 33.4841,
      "duration": 0.0585,
      "velocity": 110,
      "chip": "ym2612"
    },
    {
      "channel": 2,
      "note": 53,
      "start": 33.5369,
      "duration": 0.1235,
      "velocity": 109,
      "chip": "ym2612"
    },
    {
      "channel": 5,
      "note": 77,
      "start": 33.5371,
      "duration": 0.1081,
      "velocity": 118,
      "chip": "ym2612"
    },
    {
      "channel": 0,
      "note": 77,
      "start": 33.5674,
      "duration": 0.0751,
      "velocity": 110,
      "chip": "ym2612"
    },
    {
      "channel": 4,
      "note": 65,
      "start": 33.6513,
      "duration": 0.0494,
      "velocity": 120,
      "chip": "ym2612"
    },
    {
      "channel": 0,
      "note": 77,
      "start": 33.6733,
      "duration": 0.2359,
      "velocity": 110,
      "chip": "ym2612"
    },
    {
      "channel": 2,
      "note": 62,
      "start": 33.6734,
      "duration": 0.1198,
      "velocity": 109,
      "chip": "ym2612"
    },
    {
      "channel": 5,
      "note": 77,
      "start": 33.6736,
      "duration": 0.1041,
      "velocity": 118,
      "chip": "ym2612"
    },
    {
      "channel": 1,
      "note": 72,
      "start": 33.6883,
      "duration": 0.1713,
      "velocity": 109,
      "chip": "ym2612"
    },
    {
      "channel": 3,
      "note": 81,
      "start": 33.6885,
      "duration": 0.2568,
      "velocity": 112,
      "chip": "ym2612"
    },
    {
      "channel": 4,
      "note": 53,
      "start": 33.7007,
      "duration": 0.01,
      "velocity": 120,
      "chip": "ym2612"
    },
    {
      "channel": 2,
      "note": 53,
      "start": 33.8036,
      "duration": 0.1235,
      "velocity": 109,
      "chip": "ym2612"
    },
    {
      "channel": 5,
      "note": 77,
      "start": 33.8038,
      "duration": 0.1081,
      "velocity": 118,
      "chip": "ym2612"
    },
    {
      "channel": 4,
      "note": 82,
      "start": 33.918,
      "duration": 0.0494,
      "velocity": 126,
      "chip": "ym2612"
    },
    {
      "channel": 0,
      "note": 81,
      "start": 33.94,
      "duration": 0.4858,
      "velocity": 110,
      "chip": "ym2612"
    },
    {
      "channel": 2,
      "note": 60,
      "start": 33.9402,
      "duration": 0.1197,
      "velocity": 109,
      "chip": "ym2612"
    },
    {
      "channel": 5,
      "note": 77,
      "start": 33.9404,
      "duration": 0.104,
      "velocity": 118,
      "chip": "ym2612"
    },
    {
      "channel": 1,
      "note": 72,
      "start": 33.9549,
      "duration": 0.1713,
      "velocity": 109,
      "chip": "ym2612"
    },
    {
      "channel": 3,
      "note": 79,
      "start": 33.9551,
      "duration": 0.2558,
      "velocity": 112,
      "chip": "ym2612"
    },
    {
      "channel": 4,
      "note": 74,
      "start": 33.9673,
      "duration": 0.01,
      "velocity": 126,
      "chip": "ym2612"
    },
    {
      "channel": 2,
      "note": 53,
      "start": 34.0703,
      "duration": 0.1231,
      "velocity": 109,
      "chip": "ym2612"
    },
    {
      "channel": 5,
      "note": 77,
      "start": 34.0705,
      "duration": 0.108,
      "velocity": 118,
      "chip": "ym2612"
    },
    {
      "channel": 4,
      "note": 65,
      "start": 34.1845,
      "duration": 0.0495,
      "velocity": 120,
      "chip": "ym2612"
    },
    {
      "channel": 2,
      "note": 62,
      "start": 34.2037,
      "duration": 0.1229,
      "velocity": 109,
      "chip": "ym2612"
    },
    {
      "channel": 5,
      "note": 77,
      "start": 34.2039,
      "duration": 0.1079,
      "velocity": 118,
      "chip": "ym2612"
    },
    {
      "channel": 1,
      "note": 72,
      "start": 34.2207,
      "duration": 0.1723,
      "velocity": 109,
      "chip": "ym2612"
    },
    {
      "channel": 3,
      "note": 81,
      "start": 34.2208,
      "duration": 0.2403,
      "velocity": 112,
      "chip": "ym2612"
    },
    {
      "channel": 4,
      "note": 53,
      "start": 34.234,
      "duration": 0.01,
      "velocity": 120,
      "chip": "ym2612"
    },
    {
      "channel": 4,
      "note": 65,
      "start": 34.3178,
      "duration": 0.0495,
      "velocity": 120,
      "chip": "ym2612"
    },
    {
      "channel": 2,
      "note": 53,
      "start": 34.3369,
      "duration": 0.1235,
      "velocity": 109,
      "chip": "ym2612"
    },
    {
      "channel": 5,
      "note": 77,
      "start": 34.3371,
      "duration": 0.1081,
      "velocity": 118,
      "chip": "ym2612"
    },
    {
      "channel": 4,
      "note": 53,
      "start": 34.3673,
      "duration": 0.01,
      "velocity": 120,
      "chip": "ym2612"
    },
    {
      "channel": 4,
      "note": 82,
      "start": 34.4513,
      "duration": 0.0494,
      "velocity": 126,
      "chip": "ym2612"
    },
    {
      "channel": 0,
      "note": 77,
      "start": 34.4735,
      "duration": 0.2357,
      "velocity": 110,
      "chip": "ym2612"
    },
    {
      "channel": 2,
      "note": 60,
      "start": 34.4737,
      "duration": 0.1196,
      "velocity": 109,
      "chip": "ym2612"
    },
    {
      "channel": 5,
      "note": 77,
      "start": 34.4738,
      "duration": 0.1039,
      "velocity": 118,
      "chip": "ym2612"
    },
    {
      "channel": 1,
      "note": 72,
      "start": 34.4885,
      "duration": 0.1711,
      "velocity": 109,
      "chip": "ym2612"
    },
    {
      "channel": 3,
      "note": 82,
      "start": 34.4887,
      "duration": 0.2392,
      "velocity": 112,
      "chip": "ym2612"
    },
    {
      "channel": 4,
      "note": 74,
      "start": 34.5007,
      "duration": 0.01,
      "velocity": 126,
      "chip": "ym2612"
    },
    {
      "channel": 2,
      "note": 53,
      "start": 34.6036,
      "duration": 0.1234,
      "velocity": 109,
      "chip": "ym2612"
    },
    {
      "channel": 5,
      "note": 77,
      "start": 34.6038,
      "duration": 0.1081,
      "velocity": 118,
      "chip": "ym2612"
    },
    {
      "channel": 4,
      "note": 65,
      "start": 34.718,
      "duration": 0.0494,
      "velocity": 120,
      "chip": "ym2612"
    },
    {
      "channel": 0,
      "note": 81,
      "start": 34.74,
      "duration": 0.2525,
      "velocity": 110,
      "chip": "ym2612"
    },
    {
      "channel": 2,
      "note": 65,
      "start": 34.7402,
      "duration": 0.103,
      "velocity": 109,
      "chip": "ym2612"
    },
    {
      "channel": 5,
      "note": 77,
      "start": 34.7404,
      "duration": 0.1058,
      "velocity": 118,
      "chip": "ym2612"
    },
    {
      "channel": 1,
      "note": 72,
      "start": 34.7551,
      "duration": 0.1711,
      "velocity": 109,
      "chip": "ym2612"
    },
    {
      "channel": 3,
      "note": 84,
      "start": 34.7553,
      "duration": 0.2592,
      "velocity": 112,
      "chip": "ym2612"
    },
    {
      "channel": 4,
      "note": 53,
      "start": 34.7673,
      "duration": 0.01,
      "velocity": 120,
      "chip": "ym2612"
    },
    {
      "channel": 4,
      "note": 80,
      "start": 34.8523,
      "duration": 0.1578,
      "velocity": 127,
      "chip": "ym2612"
    },
    {
      "channel": 2,
      "note": 53,
      "start": 34.8703,
      "duration": 0.1235,
      "velocity": 109,
      "chip": "ym2612"
    },
    {
      "channel": 5,
      "note": 77,
      "start": 34.8705,
      "duration": 0.1076,
      "velocity": 118,
      "chip": "ym2612"
    },
    {
      "channel": 0,
      "note": 77,
      "start": 35.0099,
      "duration": 0.2326,
      "velocity": 110,
      "chip": "ym2612"
    },
    {
      "channel": 2,
      "note": 63,
      "start": 35.01,
      "duration": 0.1166,
      "velocity": 109,
      "chip": "ym2612"
    },
    {
      "channel": 4,
      "note": 63,
      "start": 35.0102,
      "duration": 0.0051,
      "velocity": 127,
      "chip": "ym2612"
    },
    {
      "channel": 5,
      "note": 77,
      "start": 35.0103,
      "duration": 0.1016,
      "velocity": 118,
      "chip": "ym2612"
    },
    {
      "channel": 1,
      "note": 72,
      "start": 35.0249,
      "duration": 0.168,
      "velocity": 109,
      "chip": "ym2612"
    },
    {
      "channel": 3,
      "note": 82,
      "start": 35.025,
      "duration": 0.2368,
      "velocity": 112,
      "chip": "ym2612"
    },
    {
      "channel": 4,
      "note": 70,
      "start": 35.118,
      "duration": 0.0661,
      "velocity": 127,
      "chip": "ym2612"
    },
    {
      "channel": 2,
      "note": 53,
      "start": 35.1369,
      "duration": 0.1239,
      "velocity": 109,
      "chip": "ym2612"
    },
    {
      "channel": 5,
      "note": 77,
      "start": 35.1371,
      "duration": 0.1095,
      "velocity": 118,
      "chip": "ym2612"
    },
    {
      "channel": 4,
      "note": 65,
      "start": 35.1841,
      "duration": 0.0099,
      "velocity": 127,
      "chip": "ym2612"
    },
    {
      "channel": 4,
      "note": 65,
      "start": 35.2528,
      "duration": 0.0525,
      "velocity": 120,
      "chip": "ym2612"
    },
    {
      "channel": 0,
      "note": 79,
      "start": 35.276,
      "duration": 0.2332,
      "velocity": 110,
      "chip": "ym2612"
    },
    {
      "channel": 2,
      "note": 51,
      "start": 35.2761,
      "duration": 0.1005,
      "velocity": 109,
      "chip": "ym2612"
    },
    {
      "channel": 5,
      "note": 77,
      "start": 35.2763,
      "duration": 0.4848,
      "velocity": 127,
      "chip": "ym2612"
    },
    {
      "channel": 1,
      "note": 74,
      "start": 35.2927,
      "duration": 0.1669,
      "velocity": 109,
      "chip": "ym2612"
    },
    {
      "channel": 3,
      "note": 70,
      "start": 35.2928,
      "duration": 0.235,
      "velocity": 110,
      "chip": "ym2612"
    },
    {
      "channel": 4,
      "note": 53,
      "start": 35.3053,
      "duration": 0.0054,
      "velocity": 120,
      "chip": "ym2612"
    },
    {
      "channel": 4,
      "note": 65,
      "start": 35.3846,
      "duration": 0.0494,
      "velocity": 120,
      "chip": "ym2612"
    },
    {
      "channel": 2,
      "note": 51,
      "start": 35.4007,
      "duration": 0.1263,
      "velocity": 109,
      "chip": "ym2612"
    },
    {
      "channel": 4,
      "note": 53,
      "start": 35.434,
      "duration": 0.01,
      "velocity": 120,
      "chip": "ym2612"
    },
    {
      "channel": 4,
      "note": 82,
      "start": 35.5179,
      "duration": 0.0494,
      "velocity": 126,
      "chip": "ym2612"
    },
    {
      "channel": 0,
      "note": 79,
      "start": 35.5373,
      "duration": 0.0553,
      "velocity": 110,
      "chip": "ym2612"
    },
    {
      "channel": 2,
      "note": 62,
      "start": 35.5374,
      "duration": 0.1225,
      "velocity": 109,
      "chip": "ym2612"
    },
    {
      "channel": 1,
      "note": 74,
      "start": 35.5547,
      "duration": 0.1716,
      "velocity": 109,
      "chip": "ym2612"
    },
    {
      "channel": 3,
      "note": 81,
      "start": 35.5548,
      "duration": 0.2396,
      "velocity": 112,
      "chip": "ym2612"
    },
    {
      "channel": 4,
      "note": 74,
      "start": 35.5673,
      "duration": 0.01,
      "velocity": 126,
      "chip": "ym2612"
    },
    {
      "channel": 0,
      "note": 79,
      "start": 35.6174,
      "duration": 0.0585,
      "velocity": 110,
      "chip": "ym2612"
    },
    {
      "channel": 2,
      "note": 51,
      "start": 35.6674,
      "duration": 0.1263,
      "velocity": 109,
      "chip": "ym2612"
    },
    {
      "channel": 0,
      "note": 79,
      "start": 35.7007,
      "duration": 0.0751,
      "velocity": 110,
      "chip": "ym2612"
    },
    {
      "channel": 4,
      "note": 65,
      "start": 35.7846,
      "duration": 0.0499,
      "velocity": 120,
      "chip": "ym2612"
    },
    {
      "channel": 0,
      "note": 79,
      "start": 35.8082,
      "duration": 0.2344,
      "velocity": 110,
      "chip": "ym2612"
    },
    {
      "channel": 2,
      "note": 60,
      "start": 35.8083,
      "duration": 0.1183,
      "velocity": 109,
      "chip": "ym2612"
    },
    {
      "channel": 5,
      "note": 77,
      "start": 35.8085,
      "duration": 0.1025,
      "velocity": 118,
      "chip": "ym2612"
    },
    {
      "channel": 1,
      "note": 74,
      "start": 35.8226,
      "duration": 0.1704,
      "velocity": 109,
      "chip": "ym2612"
    },
    {
      "channel": 3,
      "note": 79,
      "start": 35.8227,
      "duration": 0.2384,
      "velocity": 112,
      "chip": "ym2612"
    },
    {
      "channel": 4,
      "note": 53,
      "start": 35.8346,
      "duration": 0.0094,
      "velocity": 120,
      "chip": "ym2612"
    },
    {
      "channel": 2,
      "note": 51,
      "start": 35.9369,
      "duration": 0.1235,
      "velocity": 109,
      "chip": "ym2612"
    },
    {
      "channel": 5,
      "note": 77,
      "start": 35.9371,
      "duration": 0.1081,
      "velocity": 118,
      "chip": "ym2612"
    },
    {
      "channel": 4,
      "note": 82,
      "start": 36.0513,
      "duration": 0.0494,
      "velocity": 126,
      "chip": "ym2612"
    },
    {
      "channel": 0,
      "note": 82,
      "start": 36.0735,
      "duration": 0.4857,
      "velocity": 110,
      "chip": "ym2612"
    },
    {
      "channel": 2,
      "note": 58,
      "start": 36.0737,
      "duration": 0.1196,
      "velocity": 109,
      "chip": "ym2612"
    },
    {
      "channel": 5,
      "note": 77,
      "start": 36.0738,
      "duration": 0.1039,
      "velocity": 118,
      "chip": "ym2612"
    },
    {
      "channel": 1,
      "note": 74,
      "start": 36.0884,
      "duration": 0.1712,
      "velocity": 109,
      "chip": "ym2612"
    },
    {
      "channel": 3,
      "note": 77,
      "start": 36.0886,
      "duration": 0.2388,
      "velocity": 112,
      "chip": "ym2612"
    },
    {
      "channel": 4,
      "note": 74,
      "start": 36.1007,
      "duration": 0.01,
      "velocity": 126,
      "chip": "ym2612"
    },
    {
      "channel": 2,
      "note": 51,
      "start": 36.2036,
      "duration": 0.1231,
      "velocity": 109,
      "chip": "ym2612"
    },
    {
      "channel": 5,
      "note": 77,
      "start": 36.2038,
      "duration": 0.108,
      "velocity": 118,
      "chip": "ym2612"
    },
    {
      "channel": 4,
      "note": 65,
      "start": 36.3178,
      "duration": 0.0495,
      "velocity": 120,
      "chip": "ym2612"
    },
    {
      "channel": 2,
      "note": 60,
      "start": 36.3371,
      "duration": 0.1228,
      "velocity": 109,
      "chip": "ym2612"
    },
    {
      "channel": 5,
      "note": 77,
      "start": 36.3373,
      "duration": 0.1078,
      "velocity": 118,
      "chip": "ym2612"
    },
    {
      "channel": 1,
      "note": 74,
      "start": 36.354,
      "duration": 0.1723,
      "velocity": 109,
      "chip": "ym2612"
    },
    {
      "channel": 3,
      "note": 79,
      "start": 36.3541,
      "duration": 0.2405,
      "velocity": 112,
      "chip": "ym2612"
    },
    {
      "channel": 4,
      "note": 53,
      "start": 36.3673,
      "duration": 0.01,
      "velocity": 120,
      "chip": "ym2612"
    },
    {
      "channel": 4,
      "note": 65,
      "start": 36.4512,
      "duration": 0.0495,
      "velocity": 120,
      "chip": "ym2612"
    },
    {
      "channel": 2,
      "note": 51,
      "start": 36.4703,
      "duration": 0.1235,
      "velocity": 109,
      "chip": "ym2612"
    },
    {
      "channel": 5,
      "note": 77,
      "start": 36.4705,
      "duration": 0.1081,
      "velocity": 118,
      "chip": "ym2612"
    },
    {
      "channel": 4,
      "note": 53,
      "start": 36.5007,
      "duration": 0.01,
      "velocity": 120,
      "chip": "ym2612"
    },
    {
      "channel": 4,
      "note": 82,
      "start": 36.5846,
      "duration": 0.0495,
      "velocity": 126,
      "chip": "ym2612"
    },
    {
      "channel": 0,
      "note": 79,
      "start": 36.607,
      "duration": 0.2356,
      "velocity": 110,
      "chip": "ym2612"
    },
    {
      "channel": 2,
      "note": 58,
      "start": 36.6072,
      "duration": 0.1028,
      "velocity": 109,
      "chip": "ym2612"
    },
    {
      "channel": 5,
      "note": 77,
      "start": 36.608,
      "duration": 0.1031,
      "velocity": 118,
      "chip": "ym2612"
    },
    {
      "channel": 1,
      "note": 74,
      "start": 36.622,
      "duration": 0.1709,
      "velocity": 109,
      "chip": "ym2612"
    },
    {
      "channel": 3,
      "note": 77,
      "start": 36.6222,
      "duration": 0.2389,
      "velocity": 112,
      "chip": "ym2612"
    },
    {
      "channel": 4,
      "note": 74,
      "start": 36.6341,
      "duration": 0.0099,
      "velocity": 126,
      "chip": "ym2612"
    },
    {
      "channel": 2,
      "note": 51,
      "start": 36.7369,
      "duration": 0.1234,
      "velocity": 109,
      "chip": "ym2612"
    },
    {
      "channel": 5,
      "note": 77,
      "start": 36.7371,
      "duration": 0.1081,
      "velocity": 118,
      "chip": "ym2612"
    },
    {
      "channel": 4,
      "note": 65,
      "start": 36.8513,
      "duration": 0.0494,
      "velocity": 120,
      "chip": "ym2612"
    },
    {
      "channel": 0,
      "note": 82,
      "start": 36.8732,
      "duration": 0.2527,
      "velocity": 110,
      "chip": "ym2612"
    },
    {
      "channel": 2,
      "note": 57,
      "start": 36.8734,
      "duration": 0.1199,
      "velocity": 109,
      "chip": "ym2612"
    },
    {
      "channel": 5,
      "note": 77,
      "start": 36.8735,
      "duration": 0.1042,
      "velocity": 118,
      "chip": "ym2612"
    },
    {
      "channel": 1,
      "note": 74,
      "start": 36.8882,
      "duration": 0.1714,
      "velocity": 109,
      "chip": "ym2612"
    },
    {
      "channel": 3,
      "note": 75,
      "start": 36.8884,
      "duration": 0.2568,
      "velocity": 112,
      "chip": "ym2612"
    },
    {
      "channel": 4,
      "note": 53,
      "start": 36.9007,
      "duration": 0.01,
      "velocity": 120,
      "chip": "ym2612"
    },
    {
      "channel": 2,
      "note": 51,
      "start": 37.0036,
      "duration": 0.1235,
      "velocity": 109,
      "chip": "ym2612"
    },
    {
      "channel": 5,
      "note": 77,
      "start": 37.0038,
      "duration": 0.108,
      "velocity": 118,
      "chip": "ym2612"
    },
    {
      "channel": 4,
      "note": 82,
      "start": 37.1178,
      "duration": 0.0495,
      "velocity": 126,
      "chip": "ym2612"
    },
    {
      "channel": 0,
      "note": 79,
      "start": 37.14,
      "duration": 0.2358,
      "velocity": 110,
      "chip": "ym2612"
    },
    {
      "channel": 2,
      "note": 58,
      "start": 37.1402,
      "duration": 0.1197,
      "velocity": 109,
      "chip": "ym2612"
    },
    {
      "channel": 5,
      "note": 77,
      "start": 37.1404,
      "duration": 0.1047,
      "velocity": 118,
      "chip": "ym2612"
    },
    {
      "channel": 1,
      "note": 74,
      "start": 37.155,
      "duration": 0.1712,
      "velocity": 109,
      "chip": "ym2612"
    },
    {
      "channel": 3,
      "note": 77,
      "start": 37.1551,
      "duration": 0.2397,
      "velocity": 112,
      "chip": "ym2612"
    },
    {
      "channel": 4,
      "note": 74,
      "start": 37.1673,
      "duration": 0.01,
      "velocity": 126,
      "chip": "ym2612"
    },
    {
      "channel": 4,
      "note": 65,
      "start": 37.2512,
      "duration": 0.0495,
      "velocity": 120,
      "chip": "ym2612"
    },
    {
      "channel": 2,
      "note": 51,
      "start": 37.2703,
      "duration": 0.1063,
      "velocity": 109,
      "chip": "ym2612"
    },
    {
      "channel": 5,
      "note": 77,
      "start": 37.2705,
      "duration": 0.1085,
      "velocity": 118,
      "chip": "ym2612"
    },
    {
      "channel": 4,
      "note": 53,
      "start": 37.3007,
      "duration": 0.01,
      "velocity": 120,
      "chip": "ym2612"
    },
    {
      "channel": 4,
      "note": 65,
      "start": 37.3851,
      "duration": 0.0515,
      "velocity": 120,
      "chip": "ym2612"
    },
    {
      "channel": 0,
      "note": 79,
      "start": 37.409,
      "duration": 0.2335,
      "velocity": 110,
      "chip": "ym2612"
    },
    {
      "channel": 2,
      "note": 51,
      "start": 37.4091,
      "duration": 0.1008,
      "velocity": 109,
      "chip": "ym2612"
    },
    {
      "channel": 5,
      "note": 77,
      "start": 37.4093,
      "duration": 0.1026,
      "velocity": 118,
      "chip": "ym2612"
    },
    {
      "channel": 1,
      "note": 74,
      "start": 37.4251,
      "duration": 0.1678,
      "velocity": 109,
      "chip": "ym2612"
    },
    {
      "channel": 3,
      "note": 70,
      "start": 37.4252,
      "duration": 0.2359,
      "velocity": 110,
      "chip": "ym2612"
    },
    {
      "channel": 4,
      "note": 53,
      "start": 37.4366,
      "duration": 0.0074,
      "velocity": 120,
      "chip": "ym2612"
    },
    {
      "channel": 4,
      "note": 65,
      "start": 37.518,
      "duration": 0.0494,
      "velocity": 120,
      "chip": "ym2612"
    },
    {
      "channel": 2,
      "note": 51,
      "start": 37.5369,
      "duration": 0.1235,
      "velocity": 109,
      "chip": "ym2612"
    },
    {
      "channel": 5,
      "note": 77,
      "start": 37.5371,
      "duration": 0.1081,
      "velocity": 118,
      "chip": "ym2612"
    },
    {
      "channel": 4,
      "note": 53,
      "start": 37.5673,
      "duration": 0.01,
      "velocity": 120,
      "chip": "ym2612"
    },
    {
      "channel": 4,
      "note": 82,
      "start": 37.6513,
      "duration": 0.05,
      "velocity": 126,
      "chip": "ym2612"
    },
    {
      "channel": 0,
      "note": 79,
      "start": 37.6735,
      "duration": 0.0524,
      "velocity": 110,
      "chip": "ym2612"
    },
    {
      "channel": 2,
      "note": 62,
      "start": 37.6737,
      "duration": 0.1196,
      "velocity": 109,
      "chip": "ym2612"
    },
    {
      "channel": 5,
      "note": 77,
      "start": 37.6738,
      "duration": 0.1039,
      "velocity": 118,
      "chip": "ym2612"
    },
    {
      "channel": 1,
      "note": 74,
      "start": 37.6893,
      "duration": 0.1703,
      "velocity": 109,
      "chip": "ym2612"
    },
    {
      "channel": 3,
      "note": 81,
      "start": 37.6894,
      "duration": 0.2384,
      "velocity": 112,
      "chip": "ym2612"
    },
    {
      "channel": 4,
      "note": 74,
      "start": 37.7013,
      "duration": 0.0093,
      "velocity": 126,
      "chip": "ym2612"
    },
    {
      "channel": 0,
      "note": 79,
      "start": 37.7507,
      "duration": 0.0585,
      "velocity": 110,
      "chip": "ym2612"
    },
    {
      "channel": 2,
      "note": 51,
      "start": 37.8036,
      "duration": 0.1235,
      "velocity": 109,
      "chip": "ym2612"
    },
    {
      "channel": 5,
      "note": 77,
      "start": 37.8038,
      "duration": 0.1081,
      "velocity": 118,
      "chip": "ym2612"
    },
    {
      "channel": 0,
      "note": 79,
      "start": 37.8341,
      "duration": 0.0751,
      "velocity": 110,
      "chip": "ym2612"
    },
    {
      "channel": 4,
      "note": 65,
      "start": 37.918,
      "duration": 0.0494,
      "velocity": 120,
      "chip": "ym2612"
    },
    {
      "channel": 0,
      "note": 79,
      "start": 37.9399,
      "duration": 0.2359,
      "velocity": 110,
      "chip": "ym2612"
    },
    {
      "channel": 2,
      "note": 60,
      "start": 37.9401,
      "duration": 0.1198,
      "velocity": 109,
      "chip": "ym2612"
    },
    {
      "channel": 5,
      "note": 77,
      "start": 37.9402,
      "duration": 0.1041,
      "velocity": 118,
      "chip": "ym2612"
    },
    {
      "channel": 1,
      "note": 74,
      "start": 37.955,
      "duration": 0.1712,
      "velocity": 109,
      "chip": "ym2612"
    },
    {
      "channel": 3,
      "note": 79,
      "start": 37.9552,
      "duration": 0.2393,
      "velocity": 112,
      "chip": "ym2612"
    },
    {
      "channel": 4,
      "note": 53,
      "start": 37.9673,
      "duration": 0.01,
      "velocity": 120,
      "chip": "ym2612"
    },
    {
      "channel": 2,
      "note": 51,
      "start": 38.0703,
      "duration": 0.1235,
      "velocity": 109,
      "chip": "ym2612"
    },
    {
      "channel": 5,
      "note": 77,
      "start": 38.0705,
      "duration": 0.1081,
      "velocity": 118,
      "chip": "ym2612"
    },
    {
      "channel": 4,
      "note": 82,
      "start": 38.1846,
      "duration": 0.0494,
      "velocity": 126,
      "chip": "ym2612"
    },
    {
      "channel": 0,
      "note": 82,
      "start": 38.2068,
      "duration": 0.4857,
      "velocity": 110,
      "chip": "ym2612"
    },
    {
      "channel": 2,
      "note": 58,
      "start": 38.207,
      "duration": 0.1196,
      "velocity": 109,
      "chip": "ym2612"
    },
    {
      "channel": 5,
      "note": 77,
      "start": 38.2072,
      "duration": 0.1039,
      "velocity": 118,
      "chip": "ym2612"
    },
    {
      "channel": 1,
      "note": 74,
      "start": 38.2217,
      "duration": 0.1712,
      "velocity": 109,
      "chip": "ym2612"
    },
    {
      "channel": 3,
      "note": 77,
      "start": 38.2219,
      "duration": 0.2388,
      "velocity": 112,
      "chip": "ym2612"
    },
    {
      "channel": 4,
      "note": 74,
      "start": 38.234,
      "duration": 0.01,
      "velocity": 126,
      "chip": "ym2612"
    },
    {
      "channel": 2,
      "note": 51,
      "start": 38.3369,
      "duration": 0.1231,
      "velocity": 109,
      "chip": "ym2612"
    },
    {
      "channel": 5,
      "note": 77,
      "start": 38.3371,
      "duration": 0.108,
      "velocity": 118,
      "chip": "ym2612"
    },
    {
      "channel": 4,
      "note": 65,
      "start": 38.4512,
      "duration": 0.0495,
      "velocity": 120,
      "chip": "ym2612"
    },
    {
      "channel": 2,
      "note": 60,
      "start": 38.4705,
      "duration": 0.1228,
      "velocity": 109,
      "chip": "ym2612"
    },
    {
      "channel": 5,
      "note": 77,
      "start": 38.4707,
      "duration": 0.1078,
      "velocity": 118,
      "chip": "ym2612"
    },
    {
      "channel": 1,
      "note": 74,
      "start": 38.4873,
      "duration": 0.1723,
      "velocity": 109,
      "chip": "ym2612"
    },
    {
      "channel": 3,
      "note": 79,
      "start": 38.4874,
      "duration": 0.2405,
      "velocity": 112,
      "chip": "ym2612"
    },
    {
      "channel": 4,
      "note": 53,
      "start": 38.5007,
      "duration": 0.01,
      "velocity": 120,
      "chip": "ym2612"
    },
    {
      "channel": 4,
      "note": 65,
      "start": 38.5845,
      "duration": 0.0495,
      "velocity": 120,
      "chip": "ym2612"
    },
    {
      "channel": 2,
      "note": 51,
      "start": 38.6036,
      "duration": 0.1235,
      "velocity": 109,
      "chip": "ym2612"
    },
    {
      "channel": 5,
      "note": 77,
      "start": 38.6038,
      "duration": 0.1081,
      "velocity": 118,
      "chip": "ym2612"
    },
    {
      "channel": 4,
      "note": 53,
      "start": 38.634,
      "duration": 0.01,
      "velocity": 120,
      "chip": "ym2612"
    },
    {
      "channel": 4,
      "note": 82,
      "start": 38.718,
      "duration": 0.0495,
      "velocity": 126,
      "chip": "ym2612"
    },
    {
      "channel": 0,
      "note": 79,
      "start": 38.7403,
      "duration": 0.2356,
      "velocity": 110,
      "chip": "ym2612"
    },
    {
      "channel": 2,
      "note": 62,
      "start": 38.7405,
      "duration": 0.1028,
      "velocity": 109,
      "chip": "ym2612"
    },
    {
      "channel": 5,
      "note": 77,
      "start": 38.7413,
      "duration": 0.1031,
      "velocity": 118,
      "chip": "ym2612"
    },
    {
      "channel": 1,
      "note": 74,
      "start": 38.7553,
      "duration": 0.1709,
      "velocity": 109,
      "chip": "ym2612"
    },
    {
      "channel": 3,
      "note": 81,
      "start": 38.7555,
      "duration": 0.2389,
      "velocity": 112,
      "chip": "ym2612"
    },
    {
      "channel": 4,
      "note": 74,
      "start": 38.7675,
      "duration": 0.0099,
      "velocity": 126,
      "chip": "ym2612"
    },
    {
      "channel": 2,
      "note": 51,
      "start": 38.8703,
      "duration": 0.1234,
      "velocity": 109,
      "chip": "ym2612"
    },
    {
      "channel": 5,
      "note": 77,
      "start": 38.8705,
      "duration": 0.1081,
      "velocity": 118,
      "chip": "ym2612"
    },
    {
      "channel": 4,
      "note": 65,
      "start": 38.9846,
      "duration": 0.0494,
      "velocity": 120,
      "chip": "ym2612"
    },
    {
      "channel": 0,
      "note": 82,
      "start": 39.0065,
      "duration": 0.2527,
      "velocity": 110,
      "chip": "ym2612"
    },
    {
      "channel": 2,
      "note": 60,
      "start": 39.0067,
      "duration": 0.1199,
      "velocity": 109,
      "chip": "ym2612"
    },
    {
      "channel": 5,
      "note": 77,
      "start": 39.0068,
      "duration": 0.1042,
      "velocity": 118,
      "chip": "ym2612"
    },
    {
      "channel": 1,
      "note": 74,
      "start": 39.0215,
      "duration": 0.1714,
      "velocity": 109,
      "chip": "ym2612"
    },
    {
      "channel": 3,
      "note": 79,
      "start": 39.0217,
      "duration": 0.2568,
      "velocity": 112,
      "chip": "ym2612"
    },
    {
      "channel": 4,
      "note": 53,
      "start": 39.034,
      "duration": 0.01,
      "velocity": 120,
      "chip": "ym2612"
    },
    {
      "channel": 2,
      "note": 51,
      "start": 39.1369,
      "duration": 0.1235,
      "velocity": 109,
      "chip": "ym2612"
    },
    {
      "channel": 5,
      "note": 77,
      "start": 39.1371,
      "duration": 0.108,
      "velocity": 118,
      "chip": "ym2612"
    },
    {
      "channel": 4,
      "note": 82,
      "start": 39.2512,
      "duration": 0.0495,
      "velocity": 126,
      "chip": "ym2612"
    },
    {
      "channel": 0,
      "note": 79,
      "start": 39.2734,
      "duration": 0.2358,
      "velocity": 110,
      "chip": "ym2612"
    },
    {
      "channel": 2,
      "note": 63,
      "start": 39.2735,
      "duration": 0.1197,
      "velocity": 109,
      "chip": "ym2612"
    },
    {
      "channel": 5,
      "note": 77,
      "start": 39.2737,
      "duration": 0.1047,
      "velocity": 118,
      "chip": "ym2612"
    },
    {
      "channel": 1,
      "note": 74,
      "start": 39.2883,
      "duration": 0.1712,
      "velocity": 109,
      "chip": "ym2612"
    },
    {
      "channel": 3,
      "note": 82,
      "start": 39.2885,
      "duration": 0.2398,
      "velocity": 112,
      "chip": "ym2612"
    },
    {
      "channel": 4,
      "note": 74,
      "start": 39.3007,
      "duration": 0.01,
      "velocity": 126,
      "chip": "ym2612"
    },
    {
      "channel": 4,
      "note": 65,
      "start": 39.3845,
      "duration": 0.0495,
      "velocity": 120,
      "chip": "ym2612"
    },
    {
      "channel": 2,
      "note": 51,
      "start": 39.4037,
      "duration": 0.1063,
      "velocity": 109,
      "chip": "ym2612"
    },
    {
      "channel": 5,
      "note": 77,
      "start": 39.4039,
      "duration": 0.1085,
      "velocity": 118,
      "chip": "ym2612"
    },
    {
      "channel": 4,
      "note": 53,
      "start": 39.434,
      "duration": 0.01,
      "velocity": 120,
      "chip": "ym2612"
    },
    {
      "channel": 4,
      "note": 65,
      "start": 39.5185,
      "duration": 0.0527,
      "velocity": 120,
      "chip": "ym2612"
    },
    {
      "channel": 0,
      "note": 77,
      "start": 39.5425,
      "duration": 0.2334,
      "velocity": 110,
      "chip": "ym2612"
    },
    {
      "channel": 2,
      "note": 53,
      "start": 39.5426,
      "duration": 0.1007,
      "velocity": 109,
      "chip": "ym2612"
    },
    {
      "channel": 5,
      "note": 77,
      "start": 39.5428,
      "duration": 0.1024,
      "velocity": 118,
      "chip": "ym2612"
    },
    {
      "channel": 1,
      "note": 72,
      "start": 39.5589,
      "duration": 0.1674,
      "velocity": 109,
      "chip": "ym2612"
    },
    {
      "channel": 3,
      "note": 72,
      "start": 39.559,
      "duration": 0.2354,
      "velocity": 110,
      "chip": "ym2612"
    },
    {
      "channel": 4,
      "note": 53,
      "start": 39.5712,
      "duration": 0.0062,
      "velocity": 120,
      "chip": "ym2612"
    },
    {
      "channel": 4,
      "note": 65,
      "start": 39.6513,
      "duration": 0.0494,
      "velocity": 120,
      "chip": "ym2612"
    },
    {
      "channel": 2,
      "note": 53,
      "start": 39.6703,
      "duration": 0.1235,
      "velocity": 109,
      "chip": "ym2612"
    },
    {
      "channel": 5,
      "note": 77,
      "start": 39.6705,
      "duration": 0.1081,
      "velocity": 118,
      "chip": "ym2612"
    },
    {
      "channel": 4,
      "note": 53,
      "start": 39.7007,
      "duration": 0.01,
      "velocity": 120,
      "chip": "ym2612"
    },
    {
      "channel": 4,
      "note": 82,
      "start": 39.7846,
      "duration": 0.05,
      "velocity": 126,
      "chip": "ym2612"
    },
    {
      "channel": 0,
      "note": 77,
      "start": 39.8068,
      "duration": 0.0524,
      "velocity": 110,
      "chip": "ym2612"
    },
    {
      "channel": 2,
      "note": 63,
      "start": 39.807,
      "duration": 0.1196,
      "velocity": 109,
      "chip": "ym2612"
    },
    {
      "channel": 5,
      "note": 77,
      "start": 39.8072,
      "duration": 0.1039,
      "velocity": 118,
      "chip": "ym2612"
    },
    {
      "channel": 1,
      "note": 72,
      "start": 39.8226,
      "duration": 0.1703,
      "velocity": 109,
      "chip": "ym2612"
    },
    {
      "channel": 3,
      "note": 82,
      "start": 39.8227,
      "duration": 0.2384,
      "velocity": 112,
      "chip": "ym2612"
    },
    {
      "channel": 4,
      "note": 74,
      "start": 39.8346,
      "duration": 0.0093,
      "velocity": 126,
      "chip": "ym2612"
    },
    {
      "channel": 0,
      "note": 77,
      "start": 39.8841,
      "duration": 0.0585,
      "velocity": 110,
      "chip": "ym2612"
    },
    {
      "channel": 2,
      "note": 53,
      "start": 39.9369,
      "duration": 0.1235,
      "velocity": 109,
      "chip": "ym2612"
    },
    {
      "channel": 5,
      "note": 77,
      "start": 39.9371,
      "duration": 0.1081,
      "velocity": 118,
      "chip": "ym2612"
    },
    {
      "channel": 0,
      "note": 77,
      "start": 39.9674,
      "duration": 0.0751,
      "velocity": 110,
      "chip": "ym2612"
    },
    {
      "channel": 4,
      "note": 65,
      "start": 40.0513,
      "duration": 0.0494,
      "velocity": 120,
      "chip": "ym2612"
    },
    {
      "channel": 0,
      "note": 77,
      "start": 40.0733,
      "duration": 0.2359,
      "velocity": 110,
      "chip": "ym2612"
    },
    {
      "channel": 2,
      "note": 62,
      "start": 40.0734,
      "duration": 0.1198,
      "velocity": 109,
      "chip": "ym2612"
    },
    {
      "channel": 5,
      "note": 77,
      "start": 40.0736,
      "duration": 0.1041,
      "velocity": 118,
      "chip": "ym2612"
    },
    {
      "channel": 1,
      "note": 72,
      "start": 40.0883,
      "duration": 0.1713,
      "velocity": 109,
      "chip": "ym2612"
    },
    {
      "channel": 3,
      "note": 81,
      "start": 40.0885,
      "duration": 0.2568,
      "velocity": 112,
      "chip": "ym2612"
    },
    {
      "channel": 4,
      "note": 53,
      "start": 40.1007,
      "duration": 0.01,
      "velocity": 120,
      "chip": "ym2612"
    },
    {
      "channel": 2,
      "note": 53,
      "start": 40.2036,
      "duration": 0.1235,
      "velocity": 109,
      "chip": "ym2612"
    },
    {
      "channel": 5,
      "note": 77,
      "start": 40.2038,
      "duration": 0.1081,
      "velocity": 118,
      "chip": "ym2612"
    },
    {
      "channel": 4,
      "note": 82,
      "start": 40.318,
      "duration": 0.0494,
      "velocity": 126,
      "chip": "ym2612"
    },
    {
      "channel": 0,
      "note": 81,
      "start": 40.34,
      "duration": 0.4858,
      "velocity": 110,
      "chip": "ym2612"
    },
    {
      "channel": 2,
      "note": 60,
      "start": 40.3402,
      "duration": 0.1197,
      "velocity": 109,
      "chip": "ym2612"
    },
    {
      "channel": 5,
      "note": 77,
      "start": 40.3404,
      "duration": 0.104,
      "velocity": 118,
      "chip": "ym2612"
    },
    {
      "channel": 1,
      "note": 72,
      "start": 40.3549,
      "duration": 0.1713,
      "velocity": 109,
      "chip": "ym2612"
    },
    {
      "channel": 3,
      "note": 79,
      "start": 40.3551,
      "duration": 0.2558,
      "velocity": 112,
      "chip": "ym2612"
    },
    {
      "channel": 4,
      "note": 74,
      "start": 40.3673,
      "duration": 0.01,
      "velocity": 126,
      "chip": "ym2612"
    },
    {
      "channel": 2,
      "note": 53,
      "start": 40.4703,
      "duration": 0.1231,
      "velocity": 109,
      "chip": "ym2612"
    },
    {
      "channel": 5,
      "note": 77,
      "start": 40.4705,
      "duration": 0.108,
      "velocity": 118,
      "chip": "ym2612"
    },
    {
      "channel": 4,
      "note": 65,
      "start": 40.5845,
      "duration": 0.0495,
      "velocity": 120,
      "chip": "ym2612"
    },
    {
      "channel": 2,
      "note": 62,
      "start": 40.6037,
      "duration": 0.1229,
      "velocity": 109,
      "chip": "ym2612"
    },
    {
      "channel": 5,
      "note": 77,
      "start": 40.6039,
      "duration": 0.1079,
      "velocity": 118,
      "chip": "ym2612"
    },
    {
      "channel": 1,
      "note": 72,
      "start": 40.6207,
      "duration": 0.1723,
      "velocity": 109,
      "chip": "ym2612"
    },
    {
      "channel": 3,
      "note": 81,
      "start": 40.6208,
      "duration": 0.2403,
      "velocity": 112,
      "chip": "ym2612"
    },
    {
      "channel": 4,
      "note": 53,
      "start": 40.634,
      "duration": 0.01,
      "velocity": 120,
      "chip": "ym2612"
    },
    {
      "channel": 4,
      "note": 65,
      "start": 40.7178,
      "duration": 0.0495,
      "velocity": 120,
      "chip": "ym2612"
    },
    {
      "channel": 2,
      "note": 53,
      "start": 40.7369,
      "duration": 0.1235,
      "velocity": 109,
      "chip": "ym2612"
    },
    {
      "channel": 5,
      "note": 77,
      "start": 40.7371,
      "duration": 0.1081,
      "velocity": 118,
      "chip": "ym2612"
    },
    {
      "channel": 4,
      "note": 53,
      "start": 40.7673,
      "duration": 0.01,
      "velocity": 120,
      "chip": "ym2612"
    },
    {
      "channel": 4,
      "note": 82,
      "start": 40.8513,
      "duration": 0.0494,
      "velocity": 126,
      "chip": "ym2612"
    },
    {
      "channel": 0,
      "note": 77,
      "start": 40.8735,
      "duration": 0.2357,
      "velocity": 110,
      "chip": "ym2612"
    },
    {
      "channel": 2,
      "note": 60,
      "start": 40.8737,
      "duration": 0.1196,
      "velocity": 109,
      "chip": "ym2612"
    },
    {
      "channel": 5,
      "note": 77,
      "start": 40.8738,
      "duration": 0.1039,
      "velocity": 118,
      "chip": "ym2612"
    },
    {
      "channel": 1,
      "note": 72,
      "start": 40.8885,
      "duration": 0.1711,
      "velocity": 109,
      "chip": "ym2612"
    },
    {
      "channel": 3,
      "note": 79,
      "start": 40.8887,
      "duration": 0.2392,
      "velocity": 112,
      "chip": "ym2612"
    },
    {
      "channel": 4,
      "note": 74,
      "start": 40.9007,
      "duration": 0.01,
      "velocity": 126,
      "chip": "ym2612"
    },
    {
      "channel": 2,
      "note": 53,
      "start": 41.0036,
      "duration": 0.1234,
      "velocity": 109,
      "chip": "ym2612"
    },
    {
      "channel": 5,
      "note": 77,
      "start": 41.0038,
      "duration": 0.1081,
      "velocity": 118,
      "chip": "ym2612"
    },
    {
      "channel": 4,
      "note": 65,
      "start": 41.118,
      "duration": 0.0494,
      "velocity": 120,
      "chip": "ym2612"
    },
    {
      "channel": 0,
      "note": 81,
      "start": 41.14,
      "duration": 0.2525,
      "velocity": 110,
      "chip": "ym2612"
    },
    {
      "channel": 2,
      "note": 58,
      "start": 41.1402,
      "duration": 0.103,
      "velocity": 109,
      "chip": "ym2612"
    },
    {
      "channel": 5,
      "note": 77,
      "start": 41.1404,
      "duration": 0.1041,
      "velocity": 118,
      "chip": "ym2612"
    },
    {
      "channel": 1,
      "note": 72,
      "start": 41.1551,
      "duration": 0.1711,
      "velocity": 109,
      "chip": "ym2612"
    },
    {
      "channel": 3,
      "note": 77,
      "start": 41.1553,
      "duration": 0.2566,
      "velocity": 112,
      "chip": "ym2612"
    },
    {
      "channel": 4,
      "note": 53,
      "start": 41.1673,
      "duration": 0.01,
      "velocity": 120,
      "chip": "ym2612"
    },
    {
      "channel": 2,
      "note": 53,
      "start": 41.2703,
      "duration": 0.1235,
      "velocity": 109,
      "chip": "ym2612"
    },
    {
      "channel": 5,
      "note": 77,
      "start": 41.2705,
      "duration": 0.108,
      "velocity": 118,
      "chip": "ym2612"
    },
    {
      "channel": 4,
      "note": 82,
      "start": 41.3845,
      "duration": 0.0495,
      "velocity": 126,
      "chip": "ym2612"
    },
    {
      "channel": 0,
      "note": 77,
      "start": 41.4067,
      "duration": 0.2358,
      "velocity": 110,
      "chip": "ym2612"
    },
    {
      "channel": 2,
      "note": 60,
      "start": 41.4068,
      "duration": 0.1197,
      "velocity": 109,
      "chip": "ym2612"
    },
    {
      "channel": 5,
      "note": 77,
      "start": 41.407,
      "duration": 0.1047,
      "velocity": 118,
      "chip": "ym2612"
    },
    {
      "channel": 1,
      "note": 72,
      "start": 41.4217,
      "duration": 0.1712,
      "velocity": 109,
      "chip": "ym2612"
    },
    {
      "channel": 3,
      "note": 79,
      "start": 41.4218,
      "duration": 0.2397,
      "velocity": 112,
      "chip": "ym2612"
    },
    {
      "channel": 4,
      "note": 74,
      "start": 41.434,
      "duration": 0.01,
      "velocity": 126,
      "chip": "ym2612"
    },
    {
      "channel": 4,
      "note": 65,
      "start": 41.5178,
      "duration": 0.0495,
      "velocity": 120,
      "chip": "ym2612"
    },
    {
      "channel": 2,
      "note": 53,
      "start": 41.537,
      "duration": 0.1063,
      "velocity": 109,
      "chip": "ym2612"
    },
    {
      "channel": 5,
      "note": 77,
      "start": 41.5372,
      "duration": 0.1085,
      "velocity": 118,
      "chip": "ym2612"
    },
    {
      "channel": 4,
      "note": 53,
      "start": 41.5673,
      "duration": 0.01,
      "velocity": 120,
      "chip": "ym2612"
    },
    {
      "channel": 4,
      "note": 65,
      "start": 41.6518,
      "duration": 0.0515,
      "velocity": 120,
      "chip": "ym2612"
    },
    {
      "channel": 0,
      "note": 77,
      "start": 41.6757,
      "duration": 0.2335,
      "velocity": 110,
      "chip": "ym2612"
    },
    {
      "channel": 2,
      "note": 53,
      "start": 41.6758,
      "duration": 0.1008,
      "velocity": 109,
      "chip": "ym2612"
    },
    {
      "channel": 5,
      "note": 77,
      "start": 41.676,
      "duration": 0.1026,
      "velocity": 118,
      "chip": "ym2612"
    },
    {
      "channel": 1,
      "note": 72,
      "start": 41.6918,
      "duration": 0.1678,
      "velocity": 109,
      "chip": "ym2612"
    },
    {
      "channel": 3,
      "note": 72,
      "start": 41.6919,
      "duration": 0.2359,
      "velocity": 110,
      "chip": "ym2612"
    },
    {
      "channel": 4,
      "note": 53,
      "start": 41.7033,
      "duration": 0.0074,
      "velocity": 120,
      "chip": "ym2612"
    },
    {
      "channel": 4,
      "note": 65,
      "start": 41.7846,
      "duration": 0.0494,
      "velocity": 120,
      "chip": "ym2612"
    },
    {
      "channel": 2,
      "note": 53,
      "start": 41.8036,
      "duration": 0.1235,
      "velocity": 109,
      "chip": "ym2612"
    },
    {
      "channel": 5,
      "note": 77,
      "start": 41.8038,
      "duration": 0.1081,
      "velocity": 118,
      "chip": "ym2612"
    },
    {
      "channel": 4,
      "note": 53,
      "start": 41.834,
      "duration": 0.01,
      "velocity": 120,
      "chip": "ym2612"
    },
    {
      "channel": 4,
      "note": 82,
      "start": 41.918,
      "duration": 0.05,
      "velocity": 126,
      "chip": "ym2612"
    },
    {
      "channel": 0,
      "note": 77,
      "start": 41.9402,
      "duration": 0.0524,
      "velocity": 110,
      "chip": "ym2612"
    },
    {
      "channel": 2,
      "note": 63,
      "start": 41.9403,
      "duration": 0.1196,
      "velocity": 109,
      "chip": "ym2612"
    },
    {
      "channel": 5,
      "note": 77,
      "start": 41.9405,
      "duration": 0.1039,
      "velocity": 118,
      "chip": "ym2612"
    },
    {
      "channel": 1,
      "note": 72,
      "start": 41.956,
      "duration": 0.1703,
      "velocity": 109,
      "chip": "ym2612"
    },
    {
      "channel": 3,
      "note": 82,
      "start": 41.9561,
      "duration": 0.2384,
      "velocity": 112,
      "chip": "ym2612"
    },
    {
      "channel": 4,
      "note": 74,
      "start": 41.968,
      "duration": 0.0093,
      "velocity": 126,
      "chip": "ym2612"
    },
    {
      "channel": 0,
      "note": 77,
      "start": 42.0174,
      "duration": 0.0585,
      "velocity": 110,
      "chip": "ym2612"
    },
    {
      "channel": 2,
      "note": 53,
      "start": 42.0703,
      "duration": 0.1235,
      "velocity": 109,
      "chip": "ym2612"
    },
    {
      "channel": 5,
      "note": 77,
      "start": 42.0705,
      "duration": 0.1081,
      "velocity": 118,
      "chip": "ym2612"
    },
    {
      "channel": 0,
      "note": 77,
      "start": 42.1007,
      "duration": 0.0751,
      "velocity": 110,
      "chip": "ym2612"
    },
    {
      "channel": 4,
      "note": 65,
      "start": 42.1846,
      "duration": 0.0494,
      "velocity": 120,
      "chip": "ym2612"
    },
    {
      "channel": 0,
      "note": 77,
      "start": 42.2066,
      "duration": 0.2359,
      "velocity": 110,
      "chip": "ym2612"
    },
    {
      "channel": 2,
      "note": 62,
      "start": 42.2068,
      "duration": 0.1198,
      "velocity": 109,
      "chip": "ym2612"
    },
    {
      "channel": 5,
      "note": 77,
      "start": 42.2069,
      "duration": 0.1041,
      "velocity": 118,
      "chip": "ym2612"
    },
    {
      "channel": 1,
      "note": 72,
      "start": 42.2216,
      "duration": 0.1713,
      "velocity": 109,
      "chip": "ym2612"
    },
    {
      "channel": 3,
      "note": 81,
      "start": 42.2218,
      "duration": 0.2568,
      "velocity": 112,
      "chip": "ym2612"
    },
    {
      "channel": 4,
      "note": 53,
      "start": 42.234,
      "duration": 0.01,
      "velocity": 120,
      "chip": "ym2612"
    },
    {
      "channel": 2,
      "note": 53,
      "start": 42.3369,
      "duration": 0.1235,
      "velocity": 109,
      "chip": "ym2612"
    },
    {
      "channel": 5,
      "note": 77,
      "start": 42.3371,
      "duration": 0.1081,
      "velocity": 118,
      "chip": "ym2612"
    },
    {
      "channel": 4,
      "note": 82,
      "start": 42.4513,
      "duration": 0.0494,
      "velocity": 126,
      "chip": "ym2612"
    },
    {
      "channel": 0,
      "note": 81,
      "start": 42.4734,
      "duration": 0.4858,
      "velocity": 110,
      "chip": "ym2612"
    },
    {
      "channel": 2,
      "note": 60,
      "start": 42.4735,
      "duration": 0.1197,
      "velocity": 109,
      "chip": "ym2612"
    },
    {
      "channel": 5,
      "note": 77,
      "start": 42.4737,
      "duration": 0.104,
      "velocity": 118,
      "chip": "ym2612"
    },
    {
      "channel": 1,
      "note": 72,
      "start": 42.4883,
      "duration": 0.1713,
      "velocity": 109,
      "chip": "ym2612"
    },
    {
      "channel": 3,
      "note": 79,
      "start": 42.4884,
      "duration": 0.2558,
      "velocity": 112,
      "chip": "ym2612"
    },
    {
      "channel": 4,
      "note": 74,
      "start": 42.5007,
      "duration": 0.01,
      "velocity": 126,
      "chip": "ym2612"
    },
    {
      "channel": 2,
      "note": 53,
      "start": 42.6036,
      "duration": 0.1231,
      "velocity": 109,
      "chip": "ym2612"
    },
    {
      "channel": 5,
      "note": 77,
      "start": 42.6038,
      "duration": 0.108,
      "velocity": 118,
      "chip": "ym2612"
    },
    {
      "channel": 4,
      "note": 65,
      "start": 42.7178,
      "duration": 0.0495,
      "velocity": 120,
      "chip": "ym2612"
    },
    {
      "channel": 2,
      "note": 62,
      "start": 42.7371,
      "duration": 0.1229,
      "velocity": 109,
      "chip": "ym2612"
    },
    {
      "channel": 5,
      "note": 77,
      "start": 42.7372,
      "duration": 0.1072,
      "velocity": 118,
      "chip": "ym2612"
    },
    {
      "channel": 1,
      "note": 72,
      "start": 42.754,
      "duration": 0.1723,
      "velocity": 109,
      "chip": "ym2612"
    },
    {
      "channel": 3,
      "note": 81,
      "start": 42.7542,
      "duration": 0.2403,
      "velocity": 112,
      "chip": "ym2612"
    },
    {
      "channel": 4,
      "note": 53,
      "start": 42.7673,
      "duration": 0.01,
      "velocity": 120,
      "chip": "ym2612"
    },
    {
      "channel": 2,
      "note": 53,
      "start": 42.8703,
      "duration": 0.1235,
      "velocity": 109,
      "chip": "ym2612"
    },
    {
      "channel": 5,
      "note": 77,
      "start": 42.8705,
      "duration": 0.1081,
      "velocity": 118,
      "chip": "ym2612"
    },
    {
      "channel": 4,
      "note": 82,
      "start": 42.9846,
      "duration": 0.0494,
      "velocity": 126,
      "chip": "ym2612"
    },
    {
      "channel": 0,
      "note": 77,
      "start": 43.0068,
      "duration": 0.2357,
      "velocity": 110,
      "chip": "ym2612"
    },
    {
      "channel": 2,
      "note": 60,
      "start": 43.007,
      "duration": 0.1196,
      "velocity": 109,
      "chip": "ym2612"
    },
    {
      "channel": 5,
      "note": 77,
      "start": 43.0072,
      "duration": 0.1039,
      "velocity": 118,
      "chip": "ym2612"
    },
    {
      "channel": 1,
      "note": 72,
      "start": 43.0219,
      "duration": 0.1711,
      "velocity": 109,
      "chip": "ym2612"
    },
    {
      "channel": 3,
      "note": 82,
      "start": 43.022,
      "duration": 0.2392,
      "velocity": 112,
      "chip": "ym2612"
    },
    {
      "channel": 4,
      "note": 74,
      "start": 43.034,
      "duration": 0.01,
      "velocity": 126,
      "chip": "ym2612"
    },
    {
      "channel": 2,
      "note": 53,
      "start": 43.1369,
      "duration": 0.1234,
      "velocity": 109,
      "chip": "ym2612"
    },
    {
      "channel": 5,
      "note": 77,
      "start": 43.1371,
      "duration": 0.1081,
      "velocity": 118,
      "chip": "ym2612"
    },
    {
      "channel": 4,
      "note": 65,
      "start": 43.2513,
      "duration": 0.0494,
      "velocity": 120,
      "chip": "ym2612"
    },
    {
      "channel": 0,
      "note": 81,
      "start": 43.2734,
      "duration": 0.2525,
      "velocity": 110,
      "chip": "ym2612"
    },
    {
      "channel": 2,
      "note": 62,
      "start": 43.2736,
      "duration": 0.103,
      "velocity": 109,
      "chip": "ym2612"
    },
    {
      "channel": 5,
      "note": 77,
      "start": 43.2737,
      "duration": 0.1058,
      "velocity": 118,
      "chip": "ym2612"
    },
    {
      "channel": 1,
      "note": 72,
      "start": 43.2885,
      "duration": 0.1711,
      "velocity": 109,
      "chip": "ym2612"
    },
    {
      "channel": 3,
      "note": 81,
      "start": 43.2886,
      "duration": 0.2592,
      "velocity": 112,
      "chip": "ym2612"
    },
    {
      "channel": 4,
      "note": 53,
      "start": 43.3007,
      "duration": 0.01,
      "velocity": 120,
      "chip": "ym2612"
    },
    {
      "channel": 4,
      "note": 80,
      "start": 43.3857,
      "duration": 0.1578,
      "velocity": 127,
      "chip": "ym2612"
    },
    {
      "channel": 2,
      "note": 53,
      "start": 43.4036,
      "duration": 0.1235,
      "velocity": 109,
      "chip": "ym2612"
    },
    {
      "channel": 5,
      "note": 77,
      "start": 43.4038,
      "duration": 0.1076,
      "velocity": 118,
      "chip": "ym2612"
    },
    {
      "channel": 0,
      "note": 77,
      "start": 43.5432,
      "duration": 0.2326,
      "velocity": 110,
      "chip": "ym2612"
    },
    {
      "channel": 2,
      "note": 63,
      "start": 43.5434,
      "duration": 0.1166,
      "velocity": 109,
      "chip": "ym2612"
    },
    {
      "channel": 4,
      "note": 63,
      "start": 43.5435,
      "duration": 0.0051,
      "velocity": 127,
      "chip": "ym2612"
    },
    {
      "channel": 5,
      "note": 77,
      "start": 43.5436,
      "duration": 0.1016,
      "velocity": 118,
      "chip": "ym2612"
    },
    {
      "channel": 1,
      "note": 72,
      "start": 43.5583,
      "duration": 0.168,
      "velocity": 109,
      "chip": "ym2612"
    },
    {
      "channel": 3,
      "note": 84,
      "start": 43.5584,
      "duration": 0.2367,
      "velocity": 112,
      "chip": "ym2612"
    },
    {
      "channel": 4,
      "note": 70,
      "start": 43.6513,
      "duration": 0.0661,
      "velocity": 127,
      "chip": "ym2612"
    },
    {
      "channel": 2,
      "note": 53,
      "start": 43.6703,
      "duration": 0.1063,
      "velocity": 109,
      "chip": "ym2612"
    },
    {
      "channel": 5,
      "note": 77,
      "start": 43.6705,
      "duration": 0.1097,
      "velocity": 118,
      "chip": "ym2612"
    },
    {
      "channel": 4,
      "note": 65,
      "start": 43.7175,
      "duration": 0.0099,
      "velocity": 127,
      "chip": "ym2612"
    },
    {
      "channel": 4,
      "note": 65,
      "start": 43.7863,
      "duration": 0.0525,
      "velocity": 120,
      "chip": "ym2612"
    },
    {
      "channel": 0,
      "note": 79,
      "start": 43.8094,
      "duration": 0.2332,
      "velocity": 110,
      "chip": "ym2612"
    },
    {
      "channel": 2,
      "note": 55,
      "start": 43.8095,
      "duration": 0.1004,
      "velocity": 109,
      "chip": "ym2612"
    },
    {
      "channel": 5,
      "note": 77,
      "start": 43.8097,
      "duration": 0.4847,
      "velocity": 127,
      "chip": "ym2612"
    },
    {
      "channel": 1,
      "note": 74,
      "start": 43.8261,
      "duration": 0.1668,
      "velocity": 109,
      "chip": "ym2612"
    },
    {
      "channel": 3,
      "note": 74,
      "start": 43.8263,
      "duration": 0.2349,
      "velocity": 110,
      "chip": "ym2612"
    },
    {
      "channel": 4,
      "note": 53,
      "start": 43.8388,
      "duration": 0.0052,
      "velocity": 120,
      "chip": "ym2612"
    },
    {
      "channel": 4,
      "note": 65,
      "start": 43.9179,
      "duration": 0.0494,
      "velocity": 120,
      "chip": "ym2612"
    },
    {
      "channel": 2,
      "note": 55,
      "start": 43.9341,
      "duration": 0.1263,
      "velocity": 109,
      "chip": "ym2612"
    },
    {
      "channel": 4,
      "note": 53,
      "start": 43.9673,
      "duration": 0.01,
      "velocity": 120,
      "chip": "ym2612"
    },
    {
      "channel": 4,
      "note": 82,
      "start": 44.0512,
      "duration": 0.0494,
      "velocity": 126,
      "chip": "ym2612"
    },
    {
      "channel": 0,
      "note": 79,
      "start": 44.0706,
      "duration": 0.0553,
      "velocity": 110,
      "chip": "ym2612"
    },
    {
      "channel": 2,
      "note": 65,
      "start": 44.0707,
      "duration": 0.1225,
      "velocity": 109,
      "chip": "ym2612"
    },
    {
      "channel": 1,
      "note": 74,
      "start": 44.088,
      "duration": 0.1716,
      "velocity": 109,
      "chip": "ym2612"
    },
    {
      "channel": 3,
      "note": 84,
      "start": 44.0881,
      "duration": 0.2396,
      "velocity": 112,
      "chip": "ym2612"
    },
    {
      "channel": 4,
      "note": 74,
      "start": 44.1007,
      "duration": 0.01,
      "velocity": 126,
      "chip": "ym2612"
    },
    {
      "channel": 0,
      "note": 79,
      "start": 44.1507,
      "duration": 0.0585,
      "velocity": 110,
      "chip": "ym2612"
    },
    {
      "channel": 2,
      "note": 55,
      "start": 44.2007,
      "duration": 0.1263,
      "velocity": 109,
      "chip": "ym2612"
    },
    {
      "channel": 0,
      "note": 79,
      "start": 44.2341,
      "duration": 0.0751,
      "velocity": 110,
      "chip": "ym2612"
    },
    {
      "channel": 4,
      "note": 65,
      "start": 44.318,
      "duration": 0.0499,
      "velocity": 120,
      "chip": "ym2612"
    },
    {
      "channel": 0,
      "note": 79,
      "start": 44.3415,
      "duration": 0.2344,
      "velocity": 110,
      "chip": "ym2612"
    },
    {
      "channel": 2,
      "note": 63,
      "start": 44.3416,
      "duration": 0.1183,
      "velocity": 109,
      "chip": "ym2612"
    },
    {
      "channel": 5,
      "note": 77,
      "start": 44.3418,
      "duration": 0.1025,
      "velocity": 118,
      "chip": "ym2612"
    },
    {
      "channel": 1,
      "note": 74,
      "start": 44.3558,
      "duration": 0.1704,
      "velocity": 109,
      "chip": "ym2612"
    },
    {
      "channel": 3,
      "note": 82,
      "start": 44.356,
      "duration": 0.2559,
      "velocity": 112,
      "chip": "ym2612"
    },
    {
      "channel": 4,
      "note": 53,
      "start": 44.3679,
      "duration": 0.0094,
      "velocity": 120,
      "chip": "ym2612"
    },
    {
      "channel": 2,
      "note": 55,
      "start": 44.4703,
      "duration": 0.1235,
      "velocity": 109,
      "chip": "ym2612"
    },
    {
      "channel": 5,
      "note": 77,
      "start": 44.4705,
      "duration": 0.1081,
      "velocity": 118,
      "chip": "ym2612"
    },
    {
      "channel": 4,
      "note": 82,
      "start": 44.5846,
      "duration": 0.0494,
      "velocity": 126,
      "chip": "ym2612"
    },
    {
      "channel": 0,
      "note": 82,
      "start": 44.6067,
      "duration": 0.4858,
      "velocity": 110,
      "chip": "ym2612"
    },
    {
      "channel": 2,
      "note": 62,
      "start": 44.6068,
      "duration": 0.1197,
      "velocity": 109,
      "chip": "ym2612"
    },
    {
      "channel": 5,
      "note": 77,
      "start": 44.607,
      "duration": 0.104,
      "velocity": 118,
      "chip": "ym2612"
    },
    {
      "channel": 1,
      "note": 74,
      "start": 44.6216,
      "duration": 0.1713,
      "velocity": 109,
      "chip": "ym2612"
    },
    {
      "channel": 3,
      "note": 81,
      "start": 44.6217,
      "duration": 0.2558,
      "velocity": 112,
      "chip": "ym2612"
    },
    {
      "channel": 4,
      "note": 74,
      "start": 44.634,
      "duration": 0.01,
      "velocity": 126,
      "chip": "ym2612"
    },
    {
      "channel": 2,
      "note": 55,
      "start": 44.7369,
      "duration": 0.1231,
      "velocity": 109,
      "chip": "ym2612"
    },
    {
      "channel": 5,
      "note": 77,
      "start": 44.7371,
      "duration": 0.108,
      "velocity": 118,
      "chip": "ym2612"
    },
    {
      "channel": 4,
      "note": 65,
      "start": 44.8512,
      "duration": 0.0495,
      "velocity": 120,
      "chip": "ym2612"
    },
    {
      "channel": 2,
      "note": 63,
      "start": 44.8704,
      "duration": 0.1229,
      "velocity": 109,
      "chip": "ym2612"
    },
    {
      "channel": 5,
      "note": 77,
      "start": 44.8705,
      "duration": 0.1079,
      "velocity": 118,
      "chip": "ym2612"
    },
    {
      "channel": 1,
      "note": 74,
      "start": 44.8873,
      "duration": 0.1723,
      "velocity": 109,
      "chip": "ym2612"
    },
    {
      "channel": 3,
      "note": 82,
      "start": 44.8874,
      "duration": 0.2578,
      "velocity": 112,
      "chip": "ym2612"
    },
    {
      "channel": 4,
      "note": 53,
      "start": 44.9007,
      "duration": 0.01,
      "velocity": 120,
      "chip": "ym2612"
    },
    {
      "channel": 4,
      "note": 65,
      "start": 44.9845,
      "duration": 0.0495,
      "velocity": 120,
      "chip": "ym2612"
    },
    {
      "channel": 2,
      "note": 55,
      "start": 45.0036,
      "duration": 0.1235,
      "velocity": 109,
      "chip": "ym2612"
    },
    {
      "channel": 5,
      "note": 77,
      "start": 45.0038,
      "duration": 0.1081,
      "velocity": 118,
      "chip": "ym2612"
    },
    {
      "channel": 4,
      "note": 53,
      "start": 45.034,
      "duration": 0.01,
      "velocity": 120,
      "chip": "ym2612"
    },
    {
      "channel": 4,
      "note": 82,
      "start": 45.118,
      "duration": 0.0494,
      "velocity": 126,
      "chip": "ym2612"
    },
    {
      "channel": 0,
      "note": 79,
      "start": 45.14,
      "duration": 0.2358,
      "velocity": 110,
      "chip": "ym2612"
    },
    {
      "channel": 2,
      "note": 62,
      "start": 45.1402,
      "duration": 0.1197,
      "velocity": 109,
      "chip": "ym2612"
    },
    {
      "channel": 5,
      "note": 77,
      "start": 45.1404,
      "duration": 0.104,
      "velocity": 118,
      "chip": "ym2612"
    },
    {
      "channel": 1,
      "note": 74,
      "start": 45.1549,
      "duration": 0.1713,
      "velocity": 109,
      "chip": "ym2612"
    },
    {
      "channel": 3,
      "note": 81,
      "start": 45.1551,
      "duration": 0.2567,
      "velocity": 112,
      "chip": "ym2612"
    },
    {
      "channel": 4,
      "note": 74,
      "start": 45.1673,
      "duration": 0.01,
      "velocity": 126,
      "chip": "ym2612"
    },
    {
      "channel": 2,
      "note": 55,
      "start": 45.2703,
      "duration": 0.1234,
      "velocity": 109,
      "chip": "ym2612"
    },
    {
      "channel": 5,
      "note": 77,
      "start": 45.2705,
      "duration": 0.1081,
      "velocity": 118,
      "chip": "ym2612"
    },
    {
      "channel": 4,
      "note": 65,
      "start": 45.3846,
      "duration": 0.0494,
      "velocity": 120,
      "chip": "ym2612"
    },
    {
      "channel": 0,
      "note": 82,
      "start": 45.4065,
      "duration": 0.2527,
      "velocity": 110,
      "chip": "ym2612"
    },
    {
      "channel": 2,
      "note": 60,
      "start": 45.4066,
      "duration": 0.12,
      "velocity": 109,
      "chip": "ym2612"
    },
    {
      "channel": 5,
      "note": 77,
      "start": 45.4068,
      "duration": 0.1043,
      "velocity": 118,
      "chip": "ym2612"
    },
    {
      "channel": 1,
      "note": 74,
      "start": 45.4215,
      "duration": 0.1715,
      "velocity": 109,
      "chip": "ym2612"
    },
    {
      "channel": 3,
      "note": 79,
      "start": 45.4216,
      "duration": 0.2569,
      "velocity": 112,
      "chip": "ym2612"
    },
    {
      "channel": 4,
      "note": 53,
      "start": 45.434,
      "duration": 0.01,
      "velocity": 120,
      "chip": "ym2612"
    },
    {
      "channel": 2,
      "note": 55,
      "start": 45.5369,
      "duration": 0.1235,
      "velocity": 109,
      "chip": "ym2612"
    },
    {
      "channel": 5,
      "note": 77,
      "start": 45.5371,
      "duration": 0.108,
      "velocity": 118,
      "chip": "ym2612"
    },
    {
      "channel": 4,
      "note": 82,
      "start": 45.6512,
      "duration": 0.0495,
      "velocity": 126,
      "chip": "ym2612"
    },
    {
      "channel": 0,
      "note": 79,
      "start": 45.6734,
      "duration": 0.2358,
      "velocity": 110,
      "chip": "ym2612"
    },
    {
      "channel": 2,
      "note": 62,
      "start": 45.6735,
      "duration": 0.1197,
      "velocity": 109,
      "chip": "ym2612"
    },
    {
      "channel": 5,
      "note": 77,
      "start": 45.6737,
      "duration": 0.1047,
      "velocity": 118,
      "chip": "ym2612"
    },
    {
      "channel": 1,
      "note": 74,
      "start": 45.6883,
      "duration": 0.1712,
      "velocity": 109,
      "chip": "ym2612"
    },
    {
      "channel": 3,
      "note": 81,
      "start": 45.6885,
      "duration": 0.2266,
      "velocity": 112,
      "chip": "ym2612"
    },
    {
      "channel": 4,
      "note": 74,
      "start": 45.7007,
      "duration": 0.01,
      "velocity": 126,
      "chip": "ym2612"
    },
    {
      "channel": 4,
      "note": 65,
      "start": 45.7845,
      "duration": 0.0495,
      "velocity": 120,
      "chip": "ym2612"
    },
    {
      "channel": 2,
      "note": 55,
      "start": 45.8036,
      "duration": 0.1115,
      "velocity": 109,
      "chip": "ym2612"
    },
    {
      "channel": 5,
      "note": 77,
      "start": 45.8038,
      "duration": 0.1085,
      "velocity": 118,
      "chip": "ym2612"
    },
    {
      "channel": 4,
      "note": 53,
      "start": 45.834,
      "duration": 0.01,
      "velocity": 120,
      "chip": "ym2612"
    }
  ]
}