{
  "track_name": "02 - Second Circuit",
  "duration_sec": 82.561,
  "sample_rate": 44100,
  "note_count": 2044,
  "unique_pitches": 41,
  "pitch_range": 65,
  "avg_note_duration": 0.1614,
  "reconstruction_stats": {
    "notes_reconstructed": 2044,
    "keyon_events": 2044,
    "keyoff_events": 1979,
    "orphan_keyons": 4,
    "unique_pitches": 41,
    "pitch_range": 65,
    "avg_duration_sec": 0.1614
  },
  "metadata": {
    "source": "S\\Super Smash TV\\02 - Second Circuit.vgz"
  },
  "notes": [
    {
      "channel": 0,
      "note": 50,
      "start": 0.0022,
      "duration": 0.4815,
      "velocity": 111,
      "chip": "ym2612"
    },
    {
      "channel": 1,
      "note": 57,
      "start": 0.0044,
      "duration": 0.48,
      "velocity": 94,
      "chip": "ym2612"
    },
    {
      "channel": 2,
      "note": 65,
      "start": 0.0065,
      "duration": 0.4783,
      "velocity": 94,
      "chip": "ym2612"
    },
    {
      "channel": 3,
      "note": 26,
      "start": 0.0086,
      "duration": 0.4768,
      "velocity": 127,
      "chip": "ym2612"
    },
    {
      "channel": 0,
      "note": 52,
      "start": 0.4839,
      "duration": 0.3165,
      "velocity": 111,
      "chip": "ym2612"
    },
    {
      "channel": 1,
      "note": 59,
      "start": 0.4844,
      "duration": 0.3165,
      "velocity": 94,
      "chip": "ym2612"
    },
    {
      "channel": 2,
      "note": 67,
      "start": 0.485,
      "duration": 0.3165,
      "velocity": 94,
      "chip": "ym2612"
    },
    {
      "channel": 3,
      "note": 26,
      "start": 0.4856,
      "duration": 0.1649,
      "velocity": 127,
      "chip": "ym2612"
    },
    {
      "channel": 3,
      "note": 26,
      "start": 0.6507,
      "duration": 0.4832,
      "velocity": 127,
      "chip": "ym2612"
    },
    {
      "channel": 0,
      "note": 53,
      "start": 0.8005,
      "duration": 0.4832,
      "velocity": 111,
      "chip": "ym2612"
    },
    {
      "channel": 1,
      "note": 60,
      "start": 0.8011,
      "duration": 0.4832,
      "velocity": 94,
      "chip": "ym2612"
    },
    {
      "channel": 2,
      "note": 69,
      "start": 0.8016,
      "duration": 0.4833,
      "velocity": 94,
      "chip": "ym2612"
    },
    {
      "channel": 3,
      "note": 26,
      "start": 1.134,
      "duration": 0.1514,
      "velocity": 127,
      "chip": "ym2612"
    },
    {
      "channel": 0,
      "note": 45,
      "start": 1.2839,
      "duration": 0.4832,
      "velocity": 111,
      "chip": "ym2612"
    },
    {
      "channel": 1,
      "note": 67,
      "start": 1.2845,
      "duration": 0.4832,
      "velocity": 94,
      "chip": "ym2612"
    },
    {
      "channel": 2,
      "note": 71,
      "start": 1.285,
      "duration": 0.4831,
      "velocity": 94,
      "chip": "ym2612"
    },
    {
      "channel": 3,
      "note": 26,
      "start": 1.2856,
      "duration": 0.4832,
      "velocity": 127,
      "chip": "ym2612"
    },
    {
      "channel": 0,
      "note": 47,
      "start": 1.7673,
      "duration": 0.3165,
      "velocity": 111,
      "chip": "ym2612"
    },
    {
      "channel": 1,
      "note": 69,
      "start": 1.7678,
      "duration": 0.3165,
      "velocity": 94,
      "chip": "ym2612"
    },
    {
      "channel": 2,
      "note": 72,
      "start": 1.7683,
      "duration": 0.3165,
      "velocity": 94,
      "chip": "ym2612"
    },
    {
      "channel": 3,
      "note": 26,
      "start": 1.7689,
      "duration": 0.1649,
      "velocity": 127,
      "chip": "ym2612"
    },
    {
      "channel": 3,
      "note": 26,
      "start": 1.934,
      "duration": 0.4665,
      "velocity": 127,
      "chip": "ym2612"
    },
    {
      "channel": 0,
      "note": 48,
      "start": 2.0839,
      "duration": 0.4832,
      "velocity": 111,
      "chip": "ym2612"
    },
    {
      "channel": 1,
      "note": 71,
      "start": 2.0844,
      "duration": 0.4832,
      "velocity": 94,
      "chip": "ym2612"
    },
    {
      "channel": 2,
      "note": 74,
      "start": 2.085,
      "duration": 0.4832,
      "velocity": 94,
      "chip": "ym2612"
    },
    {
      "channel": 3,
      "note": 26,
      "start": 2.4007,
      "duration": 0.1681,
      "velocity": 127,
      "chip": "ym2612"
    },
    {
      "channel": 0,
      "note": 50,
      "start": 2.5673,
      "duration": 0.4832,
      "velocity": 111,
      "chip": "ym2612"
    },
    {
      "channel": 1,
      "note": 57,
      "start": 2.5678,
      "duration": 0.4832,
      "velocity": 94,
      "chip": "ym2612"
    },
    {
      "channel": 2,
      "note": 65,
      "start": 2.5683,
      "duration": 0.4831,
      "velocity": 94,
      "chip": "ym2612"
    },
    {
      "channel": 3,
      "note": 26,
      "start": 2.5689,
      "duration": 0.4832,
      "velocity": 127,
      "chip": "ym2612"
    },
    {
      "channel": 0,
      "note": 52,
      "start": 3.0506,
      "duration": 0.3165,
      "velocity": 111,
      "chip": "ym2612"
    },
    {
      "channel": 1,
      "note": 59,
      "start": 3.0511,
      "duration": 0.3165,
      "velocity": 94,
      "chip": "ym2612"
    },
    {
      "channel": 2,
      "note": 67,
      "start": 3.0517,
      "duration": 0.3165,
      "velocity": 94,
      "chip": "ym2612"
    },
    {
      "channel": 3,
      "note": 26,
      "start": 3.0522,
      "duration": 0.1483,
      "velocity": 127,
      "chip": "ym2612"
    },
    {
      "channel": 3,
      "note": 26,
      "start": 3.2007,
      "duration": 0.4832,
      "velocity": 127,
      "chip": "ym2612"
    },
    {
      "channel": 0,
      "note": 53,
      "start": 3.3672,
      "duration": 0.7999,
      "velocity": 111,
      "chip": "ym2612"
    },
    {
      "channel": 1,
      "note": 60,
      "start": 3.3678,
      "duration": 0.7998,
      "velocity": 94,
      "chip": "ym2612"
    },
    {
      "channel": 2,
      "note": 69,
      "start": 3.3683,
      "duration": 0.7999,
      "velocity": 94,
      "chip": "ym2612"
    },
    {
      "channel": 3,
      "note": 26,
      "start": 3.684,
      "duration": 0.1665,
      "velocity": 127,
      "chip": "ym2612"
    },
    {
      "channel": 3,
      "note": 26,
      "start": 3.8507,
      "duration": 0.4847,
      "velocity": 127,
      "chip": "ym2612"
    },
    {
      "channel": 0,
      "note": 45,
      "start": 4.1672,
      "duration": 0.1666,
      "velocity": 111,
      "chip": "ym2612"
    },
    {
      "channel": 1,
      "note": 67,
      "start": 4.1678,
      "duration": 0.1665,
      "velocity": 94,
      "chip": "ym2612"
    },
    {
      "channel": 2,
      "note": 71,
      "start": 4.1683,
      "duration": 0.1665,
      "velocity": 94,
      "chip": "ym2612"
    },
    {
      "channel": 0,
      "note": 47,
      "start": 4.3339,
      "duration": 0.3164,
      "velocity": 111,
      "chip": "ym2612"
    },
    {
      "channel": 1,
      "note": 69,
      "start": 4.3344,
      "duration": 0.3165,
      "velocity": 94,
      "chip": "ym2612"
    },
    {
      "channel": 2,
      "note": 72,
      "start": 4.335,
      "duration": 0.3165,
      "velocity": 94,
      "chip": "ym2612"
    },
    {
      "channel": 3,
      "note": 26,
      "start": 4.3356,
      "duration": 0.1483,
      "velocity": 127,
      "chip": "ym2612"
    },
    {
      "channel": 3,
      "note": 26,
      "start": 4.484,
      "duration": 0.4832,
      "velocity": 127,
      "chip": "ym2612"
    },
    {
      "channel": 0,
      "note": 48,
      "start": 4.6505,
      "duration": 0.1499,
      "velocity": 111,
      "chip": "ym2612"
    },
    {
      "channel": 1,
      "note": 71,
      "start": 4.6511,
      "duration": 0.1498,
      "velocity": 94,
      "chip": "ym2612"
    },
    {
      "channel": 2,
      "note": 74,
      "start": 4.6516,
      "duration": 0.1499,
      "velocity": 94,
      "chip": "ym2612"
    },
    {
      "channel": 0,
      "note": 43,
      "start": 4.8005,
      "duration": 0.3333,
      "velocity": 111,
      "chip": "ym2612"
    },
    {
      "channel": 1,
      "note": 64,
      "start": 4.8011,
      "duration": 0.3334,
      "velocity": 94,
      "chip": "ym2612"
    },
    {
      "channel": 2,
      "note": 69,
      "start": 4.8017,
      "duration": 0.3334,
      "velocity": 94,
      "chip": "ym2612"
    },
    {
      "channel": 3,
      "note": 26,
      "start": 4.9673,
      "duration": 0.1684,
      "velocity": 127,
      "chip": "ym2612"
    },
    {
      "channel": 0,
      "note": 50,
      "start": 5.1341,
      "duration": 0.4663,
      "velocity": 111,
      "chip": "ym2612"
    },
    {
      "channel": 1,
      "note": 57,
      "start": 5.1346,
      "duration": 0.4663,
      "velocity": 94,
      "chip": "ym2612"
    },
    {
      "channel": 2,
      "note": 65,
      "start": 5.1353,
      "duration": 0.4663,
      "velocity": 94,
      "chip": "ym2612"
    },
    {
      "channel": 3,
      "note": 26,
      "start": 5.1359,
      "duration": 0.1496,
      "velocity": 127,
      "chip": "ym2612"
    },
    {
      "channel": 3,
      "note": 31,
      "start": 5.2856,
      "duration": 0.0816,
      "velocity": 127,
      "chip": "ym2612"
    },
    {
      "channel": 3,
      "note": 31,
      "start": 5.3673,
      "duration": 0.0847,
      "velocity": 127,
      "chip": "ym2612"
    },
    {
      "channel": 3,
      "note": 21,
      "start": 5.4522,
      "duration": 0.1514,
      "velocity": 127,
      "chip": "ym2612"
    },
    {
      "channel": 0,
      "note": 52,
      "start": 5.6006,
      "duration": 0.3332,
      "velocity": 111,
      "chip": "ym2612"
    },
    {
      "channel": 1,
      "note": 59,
      "start": 5.6012,
      "duration": 0.3332,
      "velocity": 94,
      "chip": "ym2612"
    },
    {
      "channel": 2,
      "note": 67,
      "start": 5.6017,
      "duration": 0.3331,
      "velocity": 94,
      "chip": "ym2612"
    },
    {
      "channel": 3,
      "note": 31,
      "start": 5.6038,
      "duration": 0.0817,
      "velocity": 127,
      "chip": "ym2612"
    },
    {
      "channel": 3,
      "note": 26,
      "start": 5.6857,
      "duration": 0.0815,
      "velocity": 127,
      "chip": "ym2612"
    },
    {
      "channel": 3,
      "note": 26,
      "start": 5.7673,
      "duration": 0.1681,
      "velocity": 127,
      "chip": "ym2612"
    },
    {
      "channel": 0,
      "note": 53,
      "start": 5.9339,
      "duration": 0.4665,
      "velocity": 111,
      "chip": "ym2612"
    },
    {
      "channel": 1,
      "note": 60,
      "start": 5.9344,
      "duration": 0.4665,
      "velocity": 94,
      "chip": "ym2612"
    },
    {
      "channel": 2,
      "note": 69,
      "start": 5.935,
      "duration": 0.4665,
      "velocity": 94,
      "chip": "ym2612"
    },
    {
      "channel": 3,
      "note": 26,
      "start": 5.9356,
      "duration": 0.1498,
      "velocity": 127,
      "chip": "ym2612"
    },
    {
      "channel": 3,
      "note": 21,
      "start": 6.0856,
      "duration": 0.1665,
      "velocity": 127,
      "chip": "ym2612"
    },
    {
      "channel": 3,
      "note": 31,
      "start": 6.2522,
      "duration": 0.0816,
      "velocity": 127,
      "chip": "ym2612"
    },
    {
      "channel": 3,
      "note": 31,
      "start": 6.334,
      "duration": 0.0697,
      "velocity": 127,
      "chip": "ym2612"
    },
    {
      "channel": 0,
      "note": 45,
      "start": 6.4006,
      "duration": 0.4832,
      "velocity": 111,
      "chip": "ym2612"
    },
    {
      "channel": 1,
      "note": 67,
      "start": 6.4011,
      "duration": 0.4832,
      "velocity": 94,
      "chip": "ym2612"
    },
    {
      "channel": 2,
      "note": 71,
      "start": 6.4017,
      "duration": 0.4832,
      "velocity": 94,
      "chip": "ym2612"
    },
    {
      "channel": 3,
      "note": 26,
      "start": 6.4038,
      "duration": 0.1649,
      "velocity": 127,
      "chip": "ym2612"
    },
    {
      "channel": 3,
      "note": 31,
      "start": 6.5689,
      "duration": 0.0816,
      "velocity": 127,
      "chip": "ym2612"
    },
    {
      "channel": 3,
      "note": 31,
      "start": 6.6507,
      "duration": 0.0847,
      "velocity": 127,
      "chip": "ym2612"
    },
    {
      "channel": 3,
      "note": 21,
      "start": 6.7356,
      "duration": 0.1514,
      "velocity": 127,
      "chip": "ym2612"
    },
    {
      "channel": 0,
      "note": 47,
      "start": 6.8839,
      "duration": 0.3165,
      "velocity": 111,
      "chip": "ym2612"
    },
    {
      "channel": 1,
      "note": 69,
      "start": 6.8845,
      "duration": 0.3165,
      "velocity": 94,
      "chip": "ym2612"
    },
    {
      "channel": 2,
      "note": 72,
      "start": 6.885,
      "duration": 0.3165,
      "velocity": 94,
      "chip": "ym2612"
    },
    {
      "channel": 3,
      "note": 31,
      "start": 6.8872,
      "duration": 0.0817,
      "velocity": 127,
      "chip": "ym2612"
    },
    {
      "channel": 3,
      "note": 26,
      "start": 6.969,
      "duration": 0.0815,
      "velocity": 127,
      "chip": "ym2612"
    },
    {
      "channel": 3,
      "note": 26,
      "start": 7.0507,
      "duration": 0.1514,
      "velocity": 127,
      "chip": "ym2612"
    },
    {
      "channel": 0,
      "note": 48,
      "start": 7.2006,
      "duration": 0.4832,
      "velocity": 111,
      "chip": "ym2612"
    },
    {
      "channel": 1,
      "note": 71,
      "start": 7.2012,
      "duration": 0.4832,
      "velocity": 94,
      "chip": "ym2612"
    },
    {
      "channel": 2,
      "note": 74,
      "start": 7.2017,
      "duration": 0.4832,
      "velocity": 94,
      "chip": "ym2612"
    },
    {
      "channel": 3,
      "note": 26,
      "start": 7.2022,
      "duration": 0.1665,
      "velocity": 127,
      "chip": "ym2612"
    },
    {
      "channel": 3,
      "note": 21,
      "start": 7.3689,
      "duration": 0.1665,
      "velocity": 127,
      "chip": "ym2612"
    },
    {
      "channel": 3,
      "note": 31,
      "start": 7.5356,
      "duration": 0.0649,
      "velocity": 127,
      "chip": "ym2612"
    },
    {
      "channel": 3,
      "note": 31,
      "start": 7.6007,
      "duration": 0.0863,
      "velocity": 127,
      "chip": "ym2612"
    },
    {
      "channel": 0,
      "note": 50,
      "start": 7.6839,
      "duration": 0.4832,
      "velocity": 111,
      "chip": "ym2612"
    },
    {
      "channel": 1,
      "note": 57,
      "start": 7.6845,
      "duration": 0.4832,
      "velocity": 94,
      "chip": "ym2612"
    },
    {
      "channel": 2,
      "note": 65,
      "start": 7.685,
      "duration": 0.4832,
      "velocity": 94,
      "chip": "ym2612"
    },
    {
      "channel": 3,
      "note": 26,
      "start": 7.6872,
      "duration": 0.1649,
      "velocity": 127,
      "chip": "ym2612"
    },
    {
      "channel": 3,
      "note": 31,
      "start": 7.8522,
      "duration": 0.0816,
      "velocity": 127,
      "chip": "ym2612"
    },
    {
      "channel": 3,
      "note": 31,
      "start": 7.934,
      "duration": 0.0681,
      "velocity": 127,
      "chip": "ym2612"
    },
    {
      "channel": 3,
      "note": 21,
      "start": 8.0022,
      "duration": 0.1681,
      "velocity": 127,
      "chip": "ym2612"
    },
    {
      "channel": 0,
      "note": 52,
      "start": 8.1673,
      "duration": 0.3165,
      "velocity": 111,
      "chip": "ym2612"
    },
    {
      "channel": 1,
      "note": 59,
      "start": 8.1678,
      "duration": 0.3165,
      "velocity": 94,
      "chip": "ym2612"
    },
    {
      "channel": 2,
      "note": 67,
      "start": 8.1683,
      "duration": 0.3165,
      "velocity": 94,
      "chip": "ym2612"
    },
    {
      "channel": 3,
      "note": 31,
      "start": 8.1705,
      "duration": 0.0817,
      "velocity": 127,
      "chip": "ym2612"
    },
    {
      "channel": 3,
      "note": 26,
      "start": 8.2524,
      "duration": 0.0815,
      "velocity": 127,
      "chip": "ym2612"
    },
    {
      "channel": 3,
      "note": 26,
      "start": 8.334,
      "duration": 0.1514,
      "velocity": 127,
      "chip": "ym2612"
    },
    {
      "channel": 0,
      "note": 53,
      "start": 8.4839,
      "duration": 0.7998,
      "velocity": 111,
      "chip": "ym2612"
    },
    {
      "channel": 1,
      "note": 60,
      "start": 8.4845,
      "duration": 0.7998,
      "velocity": 94,
      "chip": "ym2612"
    },
    {
      "channel": 2,
      "note": 69,
      "start": 8.485,
      "duration": 0.7999,
      "velocity": 94,
      "chip": "ym2612"
    },
    {
      "channel": 3,
      "note": 26,
      "start": 8.4856,
      "duration": 0.1665,
      "velocity": 127,
      "chip": "ym2612"
    },
    {
      "channel": 3,
      "note": 21,
      "start": 8.6522,
      "duration": 0.1498,
      "velocity": 127,
      "chip": "ym2612"
    },
    {
      "channel": 3,
      "note": 31,
      "start": 8.8022,
      "duration": 0.0816,
      "velocity": 127,
      "chip": "ym2612"
    },
    {
      "channel": 3,
      "note": 31,
      "start": 8.884,
      "duration": 0.0847,
      "velocity": 127,
      "chip": "ym2612"
    },
    {
      "channel": 3,
      "note": 26,
      "start": 8.9689,
      "duration": 0.1665,
      "velocity": 127,
      "chip": "ym2612"
    },
    {
      "channel": 3,
      "note": 31,
      "start": 9.1356,
      "duration": 0.0649,
      "velocity": 127,
      "chip": "ym2612"
    },
    {
      "channel": 3,
      "note": 31,
      "start": 9.2007,
      "duration": 0.0863,
      "velocity": 127,
      "chip": "ym2612"
    },
    {
      "channel": 0,
      "note": 45,
      "start": 9.2839,
      "duration": 0.1665,
      "velocity": 111,
      "chip": "ym2612"
    },
    {
      "channel": 1,
      "note": 67,
      "start": 9.2845,
      "duration": 0.1665,
      "velocity": 94,
      "chip": "ym2612"
    },
    {
      "channel": 2,
      "note": 71,
      "start": 9.285,
      "duration": 0.1665,
      "velocity": 94,
      "chip": "ym2612"
    },
    {
      "channel": 3,
      "note": 21,
      "start": 9.2872,
      "duration": 0.1665,
      "velocity": 127,
      "chip": "ym2612"
    },
    {
      "channel": 0,
      "note": 47,
      "start": 9.4506,
      "duration": 0.3165,
      "velocity": 111,
      "chip": "ym2612"
    },
    {
      "channel": 1,
      "note": 69,
      "start": 9.4512,
      "duration": 0.3165,
      "velocity": 94,
      "chip": "ym2612"
    },
    {
      "channel": 2,
      "note": 72,
      "start": 9.4517,
      "duration": 0.3165,
      "velocity": 94,
      "chip": "ym2612"
    },
    {
      "channel": 3,
      "note": 31,
      "start": 9.4538,
      "duration": 0.0817,
      "velocity": 127,
      "chip": "ym2612"
    },
    {
      "channel": 3,
      "note": 26,
      "start": 9.5357,
      "duration": 0.0648,
      "velocity": 127,
      "chip": "ym2612"
    },
    {
      "channel": 3,
      "note": 26,
      "start": 9.6007,
      "duration": 0.1681,
      "velocity": 127,
      "chip": "ym2612"
    },
    {
      "channel": 0,
      "note": 48,
      "start": 9.7673,
      "duration": 0.1665,
      "velocity": 111,
      "chip": "ym2612"
    },
    {
      "channel": 1,
      "note": 71,
      "start": 9.7678,
      "duration": 0.1665,
      "velocity": 94,
      "chip": "ym2612"
    },
    {
      "channel": 2,
      "note": 74,
      "start": 9.7683,
      "duration": 0.1665,
      "velocity": 94,
      "chip": "ym2612"
    },
    {
      "channel": 3,
      "note": 26,
      "start": 9.7689,
      "duration": 0.1681,
      "velocity": 127,
      "chip": "ym2612"
    },
    {
      "channel": 0,
      "note": 43,
      "start": 9.9339,
      "duration": 0.3166,
      "velocity": 111,
      "chip": "ym2612"
    },
    {
      "channel": 1,
      "note": 64,
      "start": 9.9345,
      "duration": 0.3167,
      "velocity": 94,
      "chip": "ym2612"
    },
    {
      "channel": 2,
      "note": 69,
      "start": 9.935,
      "duration": 0.3167,
      "velocity": 94,
      "chip": "ym2612"
    },
    {
      "channel": 3,
      "note": 21,
      "start": 9.9372,
      "duration": 0.0634,
      "velocity": 127,
      "chip": "ym2612"
    },
    {
      "channel": 3,
      "note": 21,
      "start": 10.0008,
      "duration": 0.0831,
      "velocity": 127,
      "chip": "ym2612"
    },
    {
      "channel": 3,
      "note": 21,
      "start": 10.084,
      "duration": 0.1699,
      "velocity": 127,
      "chip": "ym2612"
    },
    {
      "channel": 0,
      "note": 38,
      "start": 10.2507,
      "duration": 0.1496,
      "velocity": 111,
      "chip": "ym2612"
    },
    {
      "channel": 1,
      "note": 69,
      "start": 10.2513,
      "duration": 2.5497,
      "velocity": 94,
      "chip": "ym2612"
    },
    {
      "channel": 2,
      "note": 62,
      "start": 10.2519,
      "duration": 2.5495,
      "velocity": 94,
      "chip": "ym2612"
    },
    {
      "channel": 3,
      "note": 26,
      "start": 10.2541,
      "duration": 0.1485,
      "velocity": 127,
      "chip": "ym2612"
    },
    {
      "channel": 0,
      "note": 38,
      "start": 10.4005,
      "duration": 0.1665,
      "velocity": 111,
      "chip": "ym2612"
    },
    {
      "channel": 3,
      "note": 31,
      "start": 10.4028,
      "duration": 0.0811,
      "velocity": 127,
      "chip": "ym2612"
    },
    {
      "channel": 3,
      "note": 31,
      "start": 10.4841,
      "duration": 0.0852,
      "velocity": 127,
      "chip": "ym2612"
    },
    {
      "channel": 0,
      "note": 36,
      "start": 10.5672,
      "duration": 0.1665,
      "velocity": 111,
      "chip": "ym2612"
    },
    {
      "channel": 3,
      "note": 21,
      "start": 10.5694,
      "duration": 0.1665,
      "velocity": 127,
      "chip": "ym2612"
    },
    {
      "channel": 0,
      "note": 38,
      "start": 10.7339,
      "duration": 0.1498,
      "velocity": 111,
      "chip": "ym2612"
    },
    {
      "channel": 3,
      "note": 31,
      "start": 10.7361,
      "duration": 0.066,
      "velocity": 127,
      "chip": "ym2612"
    },
    {
      "channel": 3,
      "note": 26,
      "start": 10.8023,
      "duration": 0.0821,
      "velocity": 127,
      "chip": "ym2612"
    },
    {
      "channel": 0,
      "note": 38,
      "start": 10.8839,
      "duration": 0.1665,
      "velocity": 111,
      "chip": "ym2612"
    },
    {
      "channel": 3,
      "note": 26,
      "start": 10.8845,
      "duration": 0.1666,
      "velocity": 127,
      "chip": "ym2612"
    },
    {
      "channel": 0,
      "note": 36,
      "start": 11.0505,
      "duration": 0.1498,
      "velocity": 111,
      "chip": "ym2612"
    },
    {
      "channel": 3,
      "note": 26,
      "start": 11.0512,
      "duration": 0.1515,
      "velocity": 127,
      "chip": "ym2612"
    },
    {
      "channel": 0,
      "note": 38,
      "start": 11.2005,
      "duration": 0.1665,
      "velocity": 111,
      "chip": "ym2612"
    },
    {
      "channel": 3,
      "note": 21,
      "start": 11.2028,
      "duration": 0.1665,
      "velocity": 127,
      "chip": "ym2612"
    },
    {
      "channel": 0,
      "note": 36,
      "start": 11.3672,
      "duration": 0.1665,
      "velocity": 111,
      "chip": "ym2612"
    },
    {
      "channel": 3,
      "note": 31,
      "start": 11.3694,
      "duration": 0.0811,
      "velocity": 127,
      "chip": "ym2612"
    },
    {
      "channel": 3,
      "note": 31,
      "start": 11.4507,
      "duration": 0.0852,
      "velocity": 127,
      "chip": "ym2612"
    },
    {
      "channel": 0,
      "note": 38,
      "start": 11.5339,
      "duration": 0.1498,
      "velocity": 111,
      "chip": "ym2612"
    },
    {
      "channel": 3,
      "note": 26,
      "start": 11.5361,
      "duration": 0.1498,
      "velocity": 127,
      "chip": "ym2612"
    },
    {
      "channel": 0,
      "note": 38,
      "start": 11.6839,
      "duration": 0.1666,
      "velocity": 111,
      "chip": "ym2612"
    },
    {
      "channel": 3,
      "note": 31,
      "start": 11.6861,
      "duration": 0.0812,
      "velocity": 127,
      "chip": "ym2612"
    },
    {
      "channel": 3,
      "note": 31,
      "start": 11.7675,
      "duration": 0.0852,
      "velocity": 127,
      "chip": "ym2612"
    },
    {
      "channel": 0,
      "note": 36,
      "start": 11.8506,
      "duration": 0.1498,
      "velocity": 111,
      "chip": "ym2612"
    },
    {
      "channel": 3,
      "note": 21,
      "start": 11.8528,
      "duration": 0.1498,
      "velocity": 127,
      "chip": "ym2612"
    },
    {
      "channel": 0,
      "note": 38,
      "start": 12.0005,
      "duration": 0.1665,
      "velocity": 111,
      "chip": "ym2612"
    },
    {
      "channel": 3,
      "note": 31,
      "start": 12.0028,
      "duration": 0.0827,
      "velocity": 127,
      "chip": "ym2612"
    },
    {
      "channel": 3,
      "note": 26,
      "start": 12.0856,
      "duration": 0.0821,
      "velocity": 127,
      "chip": "ym2612"
    },
    {
      "channel": 0,
      "note": 38,
      "start": 12.1672,
      "duration": 0.1665,
      "velocity": 111,
      "chip": "ym2612"
    },
    {
      "channel": 3,
      "note": 26,
      "start": 12.1679,
      "duration": 0.1665,
      "velocity": 127,
      "chip": "ym2612"
    },
    {
      "channel": 0,
      "note": 36,
      "start": 12.3339,
      "duration": 0.1498,
      "velocity": 111,
      "chip": "ym2612"
    },
    {
      "channel": 3,
      "note": 26,
      "start": 12.3345,
      "duration": 0.1514,
      "velocity": 127,
      "chip": "ym2612"
    },
    {
      "channel": 0,
      "note": 38,
      "start": 12.4839,
      "duration": 0.1665,
      "velocity": 111,
      "chip": "ym2612"
    },
    {
      "channel": 3,
      "note": 21,
      "start": 12.4861,
      "duration": 0.1665,
      "velocity": 127,
      "chip": "ym2612"
    },
    {
      "channel": 0,
      "note": 36,
      "start": 12.6505,
      "duration": 0.1499,
      "velocity": 111,
      "chip": "ym2612"
    },
    {
      "channel": 3,
      "note": 31,
      "start": 12.6528,
      "duration": 0.0811,
      "velocity": 127,
      "chip": "ym2612"
    },
    {
      "channel": 3,
      "note": 31,
      "start": 12.7341,
      "duration": 0.0696,
      "velocity": 127,
      "chip": "ym2612"
    },
    {
      "channel": 0,
      "note": 38,
      "start": 12.8006,
      "duration": 0.1664,
      "velocity": 111,
      "chip": "ym2612"
    },
    {
      "channel": 1,
      "note": 69,
      "start": 12.8011,
      "duration": 0.0032,
      "velocity": 94,
      "chip": "ym2612"
    },
    {
      "channel": 2,
      "note": 62,
      "start": 12.8017,
      "duration": 0.0029,
      "velocity": 94,
      "chip": "ym2612"
    },
    {
      "channel": 3,
      "note": 26,
      "start": 12.8038,
      "duration": 0.1655,
      "velocity": 127,
      "chip": "ym2612"
    },
    {
      "channel": 1,
      "note": 70,
      "start": 12.8043,
      "duration": 0.0291,
      "velocity": 94,
      "chip": "ym2612"
    },
    {
      "channel": 2,
      "note": 63,
      "start": 12.8046,
      "duration": 0.0291,
      "velocity": 94,
      "chip": "ym2612"
    },
    {
      "channel": 1,
      "note": 71,
      "start": 12.8334,
      "duration": 0.0167,
      "velocity": 94,
      "chip": "ym2612"
    },
    {
      "channel": 2,
      "note": 63,
      "start": 12.8337,
      "duration": 0.0167,
      "velocity": 94,
      "chip": "ym2612"
    },
    {
      "channel": 1,
      "note": 71,
      "start": 12.8501,
      "duration": 0.0167,
      "velocity": 94,
      "chip": "ym2612"
    },
    {
      "channel": 2,
      "note": 64,
      "start": 12.8504,
      "duration": 0.0167,
      "velocity": 94,
      "chip": "ym2612"
    },
    {
      "channel": 1,
      "note": 72,
      "start": 12.8668,
      "duration": 0.0174,
      "velocity": 94,
      "chip": "ym2612"
    },
    {
      "channel": 2,
      "note": 64,
      "start": 12.8671,
      "duration": 0.0174,
      "velocity": 94,
      "chip": "ym2612"
    },
    {
      "channel": 1,
      "note": 73,
      "start": 12.8841,
      "duration": 0.016,
      "velocity": 94,
      "chip": "ym2612"
    },
    {
      "channel": 2,
      "note": 65,
      "start": 12.8844,
      "duration": 0.016,
      "velocity": 94,
      "chip": "ym2612"
    },
    {
      "channel": 1,
      "note": 73,
      "start": 12.9001,
      "duration": 0.0333,
      "velocity": 94,
      "chip": "ym2612"
    },
    {
      "channel": 2,
      "note": 65,
      "start": 12.9004,
      "duration": 0.0333,
      "velocity": 94,
      "chip": "ym2612"
    },
    {
      "channel": 1,
      "note": 74,
      "start": 12.9334,
      "duration": 2.4344,
      "velocity": 94,
      "chip": "ym2612"
    },
    {
      "channel": 2,
      "note": 66,
      "start": 12.9337,
      "duration": 0.0164,
      "velocity": 94,
      "chip": "ym2612"
    },
    {
      "channel": 2,
      "note": 66,
      "start": 12.9502,
      "duration": 0.0198,
      "velocity": 94,
      "chip": "ym2612"
    },
    {
      "channel": 0,
      "note": 38,
      "start": 12.9672,
      "duration": 0.1665,
      "velocity": 111,
      "chip": "ym2612"
    },
    {
      "channel": 3,
      "note": 31,
      "start": 12.9694,
      "duration": 0.0811,
      "velocity": 127,
      "chip": "ym2612"
    },
    {
      "channel": 2,
      "note": 67,
      "start": 12.97,
      "duration": 0.0135,
      "velocity": 94,
      "chip": "ym2612"
    },
    {
      "channel": 2,
      "note": 67,
      "start": 12.9835,
      "duration": 0.0167,
      "velocity": 94,
      "chip": "ym2612"
    },
    {
      "channel": 2,
      "note": 68,
      "start": 13.0002,
      "duration": 0.0333,
      "velocity": 94,
      "chip": "ym2612"
    },
    {
      "channel": 2,
      "note": 69,
      "start": 13.0335,
      "duration": 0.0178,
      "velocity": 94,
      "chip": "ym2612"
    },
    {
      "channel": 3,
      "note": 31,
      "start": 13.0507,
      "duration": 0.0852,
      "velocity": 127,
      "chip": "ym2612"
    },
    {
      "channel": 2,
      "note": 69,
      "start": 13.0513,
      "duration": 2.317,
      "velocity": 94,
      "chip": "ym2612"
    },
    {
      "channel": 0,
      "note": 36,
      "start": 13.1339,
      "duration": 0.1498,
      "velocity": 111,
      "chip": "ym2612"
    },
    {
      "channel": 3,
      "note": 21,
      "start": 13.1361,
      "duration": 0.1498,
      "velocity": 127,
      "chip": "ym2612"
    },
    {
      "channel": 0,
      "note": 38,
      "start": 13.2839,
      "duration": 0.1665,
      "velocity": 111,
      "chip": "ym2612"
    },
    {
      "channel": 3,
      "note": 31,
      "start": 13.2861,
      "duration": 0.0827,
      "velocity": 127,
      "chip": "ym2612"
    },
    {
      "channel": 3,
      "note": 26,
      "start": 13.369,
      "duration": 0.0821,
      "velocity": 127,
      "chip": "ym2612"
    },
    {
      "channel": 0,
      "note": 38,
      "start": 13.4505,
      "duration": 0.1498,
      "velocity": 111,
      "chip": "ym2612"
    },
    {
      "channel": 3,
      "note": 26,
      "start": 13.4512,
      "duration": 0.1498,
      "velocity": 127,
      "chip": "ym2612"
    },
    {
      "channel": 0,
      "note": 36,
      "start": 13.6005,
      "duration": 0.1665,
      "velocity": 111,
      "chip": "ym2612"
    },
    {
      "channel": 3,
      "note": 26,
      "start": 13.6012,
      "duration": 0.1681,
      "velocity": 127,
      "chip": "ym2612"
    },
    {
      "channel": 0,
      "note": 38,
      "start": 13.7672,
      "duration": 0.1665,
      "velocity": 111,
      "chip": "ym2612"
    },
    {
      "channel": 3,
      "note": 21,
      "start": 13.7694,
      "duration": 0.1665,
      "velocity": 127,
      "chip": "ym2612"
    },
    {
      "channel": 0,
      "note": 36,
      "start": 13.9339,
      "duration": 0.1498,
      "velocity": 111,
      "chip": "ym2612"
    },
    {
      "channel": 3,
      "note": 31,
      "start": 13.9361,
      "duration": 0.0644,
      "velocity": 127,
      "chip": "ym2612"
    },
    {
      "channel": 3,
      "note": 31,
      "start": 14.0007,
      "duration": 0.0852,
      "velocity": 127,
      "chip": "ym2612"
    },
    {
      "channel": 0,
      "note": 38,
      "start": 14.0839,
      "duration": 0.1665,
      "velocity": 111,
      "chip": "ym2612"
    },
    {
      "channel": 3,
      "note": 26,
      "start": 14.0861,
      "duration": 0.1665,
      "velocity": 127,
      "chip": "ym2612"
    },
    {
      "channel": 0,
      "note": 45,
      "start": 14.2505,
      "duration": 0.1498,
      "velocity": 111,
      "chip": "ym2612"
    },
    {
      "channel": 3,
      "note": 31,
      "start": 14.2528,
      "duration": 0.0811,
      "velocity": 127,
      "chip": "ym2612"
    },
    {
      "channel": 3,
      "note": 31,
      "start": 14.3341,
      "duration": 0.0686,
      "velocity": 127,
      "chip": "ym2612"
    },
    {
      "channel": 0,
      "note": 40,
      "start": 14.4005,
      "duration": 0.1665,
      "velocity": 111,
      "chip": "ym2612"
    },
    {
      "channel": 3,
      "note": 21,
      "start": 14.4028,
      "duration": 0.1665,
      "velocity": 127,
      "chip": "ym2612"
    },
    {
      "channel": 0,
      "note": 47,
      "start": 14.5672,
      "duration": 0.1665,
      "velocity": 111,
      "chip": "ym2612"
    },
    {
      "channel": 3,
      "note": 31,
      "start": 14.5694,
      "duration": 0.0827,
      "velocity": 127,
      "chip": "ym2612"
    },
    {
      "channel": 3,
      "note": 26,
      "start": 14.6523,
      "duration": 0.0821,
      "velocity": 127,
      "chip": "ym2612"
    },
    {
      "channel": 0,
      "note": 41,
      "start": 14.7339,
      "duration": 0.1498,
      "velocity": 111,
      "chip": "ym2612"
    },
    {
      "channel": 3,
      "note": 26,
      "start": 14.7346,
      "duration": 0.1498,
      "velocity": 127,
      "chip": "ym2612"
    },
    {
      "channel": 0,
      "note": 48,
      "start": 14.8839,
      "duration": 0.1665,
      "velocity": 111,
      "chip": "ym2612"
    },
    {
      "channel": 3,
      "note": 26,
      "start": 14.8845,
      "duration": 0.1681,
      "velocity": 127,
      "chip": "ym2612"
    },
    {
      "channel": 0,
      "note": 43,
      "start": 15.0505,
      "duration": 0.1498,
      "velocity": 111,
      "chip": "ym2612"
    },
    {
      "channel": 3,
      "note": 21,
      "start": 15.0528,
      "duration": 0.0811,
      "velocity": 127,
      "chip": "ym2612"
    },
    {
      "channel": 3,
      "note": 21,
      "start": 15.1341,
      "duration": 0.067,
      "velocity": 127,
      "chip": "ym2612"
    },
    {
      "channel": 0,
      "note": 50,
      "start": 15.2005,
      "duration": 0.1667,
      "velocity": 111,
      "chip": "ym2612"
    },
    {
      "channel": 3,
      "note": 21,
      "start": 15.2012,
      "duration": 0.1692,
      "velocity": 127,
      "chip": "ym2612"
    },
    {
      "channel": 0,
      "note": 38,
      "start": 15.3674,
      "duration": 0.1663,
      "velocity": 111,
      "chip": "ym2612"
    },
    {
      "channel": 1,
      "note": 74,
      "start": 15.3679,
      "duration": 0.0032,
      "velocity": 94,
      "chip": "ym2612"
    },
    {
      "channel": 2,
      "note": 69,
      "start": 15.3685,
      "duration": 0.0029,
      "velocity": 94,
      "chip": "ym2612"
    },
    {
      "channel": 3,
      "note": 26,
      "start": 15.3706,
      "duration": 0.1654,
      "velocity": 127,
      "chip": "ym2612"
    },
    {
      "channel": 1,
      "note": 73,
      "start": 15.3711,
      "duration": 0.0123,
      "velocity": 94,
      "chip": "ym2612"
    },
    {
      "channel": 2,
      "note": 68,
      "start": 15.3714,
      "duration": 0.0123,
      "velocity": 94,
      "chip": "ym2612"
    },
    {
      "channel": 1,
      "note": 73,
      "start": 15.3834,
      "duration": 0.0167,
      "velocity": 94,
      "chip": "ym2612"
    },
    {
      "channel": 2,
      "note": 68,
      "start": 15.3837,
      "duration": 0.0167,
      "velocity": 94,
      "chip": "ym2612"
    },
    {
      "channel": 1,
      "note": 72,
      "start": 15.4001,
      "duration": 2.5342,
      "velocity": 94,
      "chip": "ym2612"
    },
    {
      "channel": 2,
      "note": 67,
      "start": 15.4004,
      "duration": 0.0331,
      "velocity": 94,
      "chip": "ym2612"
    },
    {
      "channel": 2,
      "note": 67,
      "start": 15.4335,
      "duration": 2.5013,
      "velocity": 94,
      "chip": "ym2612"
    },
    {
      "channel": 0,
      "note": 38,
      "start": 15.5339,
      "duration": 0.1498,
      "velocity": 111,
      "chip": "ym2612"
    },
    {
      "channel": 3,
      "note": 31,
      "start": 15.5361,
      "duration": 0.0644,
      "velocity": 127,
      "chip": "ym2612"
    },
    {
      "channel": 3,
      "note": 31,
      "start": 15.6007,
      "duration": 0.0852,
      "velocity": 127,
      "chip": "ym2612"
    },
    {
      "channel": 0,
      "note": 36,
      "start": 15.6839,
      "duration": 0.1665,
      "velocity": 111,
      "chip": "ym2612"
    },
    {
      "channel": 3,
      "note": 21,
      "start": 15.6861,
      "duration": 0.1665,
      "velocity": 127,
      "chip": "ym2612"
    },
    {
      "channel": 0,
      "note": 38,
      "start": 15.8505,
      "duration": 0.1498,
      "velocity": 111,
      "chip": "ym2612"
    },
    {
      "channel": 3,
      "note": 31,
      "start": 15.8528,
      "duration": 0.0827,
      "velocity": 127,
      "chip": "ym2612"
    },
    {
      "channel": 3,
      "note": 26,
      "start": 15.9356,
      "duration": 0.0654,
      "velocity": 127,
      "chip": "ym2612"
    },
    {
      "channel": 0,
      "note": 38,
      "start": 16.0005,
      "duration": 0.1665,
      "velocity": 111,
      "chip": "ym2612"
    },
    {
      "channel": 3,
      "note": 26,
      "start": 16.0012,
      "duration": 0.1666,
      "velocity": 127,
      "chip": "ym2612"
    },
    {
      "channel": 0,
      "note": 36,
      "start": 16.1672,
      "duration": 0.1665,
      "velocity": 111,
      "chip": "ym2612"
    },
    {
      "channel": 3,
      "note": 26,
      "start": 16.1679,
      "duration": 0.168,
      "velocity": 127,
      "chip": "ym2612"
    },
    {
      "channel": 0,
      "note": 38,
      "start": 16.3339,
      "duration": 0.1498,
      "velocity": 111,
      "chip": "ym2612"
    },
    {
      "channel": 3,
      "note": 21,
      "start": 16.3361,
      "duration": 0.1498,
      "velocity": 127,
      "chip": "ym2612"
    },
    {
      "channel": 0,
      "note": 36,
      "start": 16.4839,
      "duration": 0.1665,
      "velocity": 111,
      "chip": "ym2612"
    },
    {
      "channel": 3,
      "note": 31,
      "start": 16.4861,
      "duration": 0.0811,
      "velocity": 127,
      "chip": "ym2612"
    },
    {
      "channel": 3,
      "note": 31,
      "start": 16.5674,
      "duration": 0.0852,
      "velocity": 127,
      "chip": "ym2612"
    },
    {
      "channel": 0,
      "note": 38,
      "start": 16.6505,
      "duration": 0.1498,
      "velocity": 111,
      "chip": "ym2612"
    },
    {
      "channel": 3,
      "note": 26,
      "start": 16.6528,
      "duration": 0.1498,
      "velocity": 127,
      "chip": "ym2612"
    },
    {
      "channel": 0,
      "note": 38,
      "start": 16.8005,
      "duration": 0.1665,
      "velocity": 111,
      "chip": "ym2612"
    },
    {
      "channel": 3,
      "note": 31,
      "start": 16.8028,
      "duration": 0.0811,
      "velocity": 127,
      "chip": "ym2612"
    },
    {
      "channel": 3,
      "note": 31,
      "start": 16.8841,
      "duration": 0.0852,
      "velocity": 127,
      "chip": "ym2612"
    },
    {
      "channel": 0,
      "note": 36,
      "start": 16.9672,
      "duration": 0.1665,
      "velocity": 111,
      "chip": "ym2612"
    },
    {
      "channel": 3,
      "note": 21,
      "start": 16.9694,
      "duration": 0.1665,
      "velocity": 127,
      "chip": "ym2612"
    },
    {
      "channel": 0,
      "note": 38,
      "start": 17.1339,
      "duration": 0.1498,
      "velocity": 111,
      "chip": "ym2612"
    },
    {
      "channel": 3,
      "note": 31,
      "start": 17.1361,
      "duration": 0.066,
      "velocity": 127,
      "chip": "ym2612"
    },
    {
      "channel": 3,
      "note": 26,
      "start": 17.2023,
      "duration": 0.0821,
      "velocity": 127,
      "chip": "ym2612"
    },
    {
      "channel": 0,
      "note": 38,
      "start": 17.2839,
      "duration": 0.1665,
      "velocity": 111,
      "chip": "ym2612"
    },
    {
      "channel": 3,
      "note": 26,
      "start": 17.2846,
      "duration": 0.1665,
      "velocity": 127,
      "chip": "ym2612"
    },
    {
      "channel": 0,
      "note": 36,
      "start": 17.4505,
      "duration": 0.1498,
      "velocity": 111,
      "chip": "ym2612"
    },
    {
      "channel": 3,
      "note": 26,
      "start": 17.4512,
      "duration": 0.1514,
      "velocity": 127,
      "chip": "ym2612"
    },
    {
      "channel": 0,
      "note": 38,
      "start": 17.6005,
      "duration": 0.1665,
      "velocity": 111,
      "chip": "ym2612"
    },
    {
      "channel": 3,
      "note": 21,
      "start": 17.6028,
      "duration": 0.1665,
      "velocity": 127,
      "chip": "ym2612"
    },
    {
      "channel": 0,
      "note": 36,
      "start": 17.7672,
      "duration": 0.1666,
      "velocity": 111,
      "chip": "ym2612"
    },
    {
      "channel": 3,
      "note": 31,
      "start": 17.7694,
      "duration": 0.0811,
      "velocity": 127,
      "chip": "ym2612"
    },
    {
      "channel": 3,
      "note": 31,
      "start": 17.8507,
      "duration": 0.0863,
      "velocity": 127,
      "chip": "ym2612"
    },
    {
      "channel": 0,
      "note": 38,
      "start": 17.9339,
      "duration": 0.1498,
      "velocity": 111,
      "chip": "ym2612"
    },
    {
      "channel": 1,
      "note": 72,
      "start": 17.9345,
      "duration": 0.0031,
      "velocity": 94,
      "chip": "ym2612"
    },
    {
      "channel": 2,
      "note": 67,
      "start": 17.935,
      "duration": 2.5501,
      "velocity": 94,
      "chip": "ym2612"
    },
    {
      "channel": 3,
      "note": 26,
      "start": 17.9372,
      "duration": 0.1488,
      "velocity": 127,
      "chip": "ym2612"
    },
    {
      "channel": 1,
      "note": 71,
      "start": 17.9376,
      "duration": 0.0125,
      "velocity": 94,
      "chip": "ym2612"
    },
    {
      "channel": 1,
      "note": 71,
      "start": 17.9501,
      "duration": 2.5344,
      "velocity": 94,
      "chip": "ym2612"
    },
    {
      "channel": 0,
      "note": 38,
      "start": 18.0839,
      "duration": 0.1665,
      "velocity": 111,
      "chip": "ym2612"
    },
    {
      "channel": 3,
      "note": 31,
      "start": 18.0861,
      "duration": 0.0811,
      "velocity": 127,
      "chip": "ym2612"
    },
    {
      "channel": 3,
      "note": 31,
      "start": 18.1674,
      "duration": 0.0852,
      "velocity": 127,
      "chip": "ym2612"
    },
    {
      "channel": 0,
      "note": 36,
      "start": 18.2505,
      "duration": 0.1498,
      "velocity": 111,
      "chip": "ym2612"
    },
    {
      "channel": 3,
      "note": 21,
      "start": 18.2528,
      "duration": 0.1498,
      "velocity": 127,
      "chip": "ym2612"
    },
    {
      "channel": 0,
      "note": 38,
      "start": 18.4005,
      "duration": 0.1666,
      "velocity": 111,
      "chip": "ym2612"
    },
    {
      "channel": 3,
      "note": 31,
      "start": 18.4028,
      "duration": 0.0827,
      "velocity": 127,
      "chip": "ym2612"
    },
    {
      "channel": 3,
      "note": 26,
      "start": 18.4856,
      "duration": 0.0821,
      "velocity": 127,
      "chip": "ym2612"
    },
    {
      "channel": 0,
      "note": 38,
      "start": 18.5673,
      "duration": 0.1664,
      "velocity": 111,
      "chip": "ym2612"
    },
    {
      "channel": 3,
      "note": 26,
      "start": 18.568,
      "duration": 0.1664,
      "velocity": 127,
      "chip": "ym2612"
    },
    {
      "channel": 0,
      "note": 36,
      "start": 18.7339,
      "duration": 0.1498,
      "velocity": 111,
      "chip": "ym2612"
    },
    {
      "channel": 3,
      "note": 26,
      "start": 18.7346,
      "duration": 0.1514,
      "velocity": 127,
      "chip": "ym2612"
    },
    {
      "channel": 0,
      "note": 38,
      "start": 18.8839,
      "duration": 0.1665,
      "velocity": 111,
      "chip": "ym2612"
    },
    {
      "channel": 3,
      "note": 21,
      "start": 18.8861,
      "duration": 0.1665,
      "velocity": 127,
      "chip": "ym2612"
    },
    {
      "channel": 0,
      "note": 36,
      "start": 19.0505,
      "duration": 0.1498,
      "velocity": 111,
      "chip": "ym2612"
    },
    {
      "channel": 3,
      "note": 31,
      "start": 19.0528,
      "duration": 0.0811,
      "velocity": 127,
      "chip": "ym2612"
    },
    {
      "channel": 3,
      "note": 31,
      "start": 19.1341,
      "duration": 0.0686,
      "velocity": 127,
      "chip": "ym2612"
    },
    {
      "channel": 0,
      "note": 38,
      "start": 19.2005,
      "duration": 0.1665,
      "velocity": 111,
      "chip": "ym2612"
    },
    {
      "channel": 3,
      "note": 26,
      "start": 19.2028,
      "duration": 0.1665,
      "velocity": 127,
      "chip": "ym2612"
    },
    {
      "channel": 0,
      "note": 45,
      "start": 19.3672,
      "duration": 0.1665,
      "velocity": 111,
      "chip": "ym2612"
    },
    {
      "channel": 3,
      "note": 31,
      "start": 19.3694,
      "duration": 0.0811,
      "velocity": 127,
      "chip": "ym2612"
    },
    {
      "channel": 3,
      "note": 31,
      "start": 19.4507,
      "duration": 0.0852,
      "velocity": 127,
      "chip": "ym2612"
    },
    {
      "channel": 0,
      "note": 40,
      "start": 19.5339,
      "duration": 0.1498,
      "velocity": 111,
      "chip": "ym2612"
    },
    {
      "channel": 3,
      "note": 21,
      "start": 19.5361,
      "duration": 0.1498,
      "velocity": 127,
      "chip": "ym2612"
    },
    {
      "channel": 0,
      "note": 47,
      "start": 19.6839,
      "duration": 0.1665,
      "velocity": 111,
      "chip": "ym2612"
    },
    {
      "channel": 3,
      "note": 31,
      "start": 19.6861,
      "duration": 0.0827,
      "velocity": 127,
      "chip": "ym2612"
    },
    {
      "channel": 3,
      "note": 26,
      "start": 19.769,
      "duration": 0.0821,
      "velocity": 127,
      "chip": "ym2612"
    },
    {
      "channel": 0,
      "note": 41,
      "start": 19.8505,
      "duration": 0.1498,
      "velocity": 111,
      "chip": "ym2612"
    },
    {
      "channel": 3,
      "note": 26,
      "start": 19.8512,
      "duration": 0.1499,
      "velocity": 127,
      "chip": "ym2612"
    },
    {
      "channel": 0,
      "note": 48,
      "start": 20.0005,
      "duration": 0.1665,
      "velocity": 111,
      "chip": "ym2612"
    },
    {
      "channel": 3,
      "note": 26,
      "start": 20.0012,
      "duration": 0.1681,
      "velocity": 127,
      "chip": "ym2612"
    },
    {
      "channel": 0,
      "note": 43,
      "start": 20.1672,
      "duration": 0.1665,
      "velocity": 111,
      "chip": "ym2612"
    },
    {
      "channel": 3,
      "note": 21,
      "start": 20.1694,
      "duration": 0.0811,
      "velocity": 127,
      "chip": "ym2612"
    },
    {
      "channel": 3,
      "note": 21,
      "start": 20.2507,
      "duration": 0.0837,
      "velocity": 127,
      "chip": "ym2612"
    },
    {
      "channel": 0,
      "note": 50,
      "start": 20.3339,
      "duration": 0.15,
      "velocity": 111,
      "chip": "ym2612"
    },
    {
      "channel": 3,
      "note": 21,
      "start": 20.3346,
      "duration": 0.1527,
      "velocity": 127,
      "chip": "ym2612"
    },
    {
      "channel": 0,
      "note": 38,
      "start": 20.4841,
      "duration": 0.1663,
      "velocity": 111,
      "chip": "ym2612"
    },
    {
      "channel": 1,
      "note": 74,
      "start": 20.4847,
      "duration": 0.0824,
      "velocity": 94,
      "chip": "ym2612"
    },
    {
      "channel": 2,
      "note": 69,
      "start": 20.4853,
      "duration": 0.0824,
      "velocity": 94,
      "chip": "ym2612"
    },
    {
      "channel": 3,
      "note": 26,
      "start": 20.4874,
      "duration": 0.1662,
      "velocity": 127,
      "chip": "ym2612"
    },
    {
      "channel": 1,
      "note": 72,
      "start": 20.5673,
      "duration": 0.0837,
      "velocity": 94,
      "chip": "ym2612"
    },
    {
      "channel": 2,
      "note": 67,
      "start": 20.5678,
      "duration": 0.0837,
      "velocity": 94,
      "chip": "ym2612"
    },
    {
      "channel": 0,
      "note": 38,
      "start": 20.6506,
      "duration": 0.1498,
      "velocity": 111,
      "chip": "ym2612"
    },
    {
      "channel": 1,
      "note": 69,
      "start": 20.6511,
      "duration": 0.0827,
      "velocity": 94,
      "chip": "ym2612"
    },
    {
      "channel": 2,
      "note": 62,
      "start": 20.6517,
      "duration": 0.0827,
      "velocity": 94,
      "chip": "ym2612"
    },
    {
      "channel": 3,
      "note": 31,
      "start": 20.6538,
      "duration": 0.081,
      "velocity": 127,
      "chip": "ym2612"
    },
    {
      "channel": 1,
      "note": 62,
      "start": 20.734,
      "duration": 0.2337,
      "velocity": 94,
      "chip": "ym2612"
    },
    {
      "channel": 2,
      "note": 57,
      "start": 20.7345,
      "duration": 0.2337,
      "velocity": 94,
      "chip": "ym2612"
    },
    {
      "channel": 3,
      "note": 31,
      "start": 20.7351,
      "duration": 0.0691,
      "velocity": 127,
      "chip": "ym2612"
    },
    {
      "channel": 0,
      "note": 36,
      "start": 20.8006,
      "duration": 0.1665,
      "velocity": 111,
      "chip": "ym2612"
    },
    {
      "channel": 3,
      "note": 21,
      "start": 20.8044,
      "duration": 0.1659,
      "velocity": 127,
      "chip": "ym2612"
    },
    {
      "channel": 0,
      "note": 38,
      "start": 20.9673,
      "duration": 0.1665,
      "velocity": 111,
      "chip": "ym2612"
    },
    {
      "channel": 1,
      "note": 74,
      "start": 20.9678,
      "duration": 0.0827,
      "velocity": 94,
      "chip": "ym2612"
    },
    {
      "channel": 2,
      "note": 69,
      "start": 20.9683,
      "duration": 0.0827,
      "velocity": 94,
      "chip": "ym2612"
    },
    {
      "channel": 3,
      "note": 31,
      "start": 20.9705,
      "duration": 0.0826,
      "velocity": 127,
      "chip": "ym2612"
    },
    {
      "channel": 1,
      "note": 72,
      "start": 21.0507,
      "duration": 0.0837,
      "velocity": 94,
      "chip": "ym2612"
    },
    {
      "channel": 2,
      "note": 67,
      "start": 21.0512,
      "duration": 0.0837,
      "velocity": 94,
      "chip": "ym2612"
    },
    {
      "channel": 3,
      "note": 26,
      "start": 21.0533,
      "duration": 0.0821,
      "velocity": 127,
      "chip": "ym2612"
    },
    {
      "channel": 0,
      "note": 38,
      "start": 21.1339,
      "duration": 0.1498,
      "velocity": 111,
      "chip": "ym2612"
    },
    {
      "channel": 1,
      "note": 69,
      "start": 21.1344,
      "duration": 0.066,
      "velocity": 94,
      "chip": "ym2612"
    },
    {
      "channel": 2,
      "note": 62,
      "start": 21.135,
      "duration": 0.066,
      "velocity": 94,
      "chip": "ym2612"
    },
    {
      "channel": 3,
      "note": 26,
      "start": 21.1356,
      "duration": 0.1489,
      "velocity": 127,
      "chip": "ym2612"
    },
    {
      "channel": 1,
      "note": 62,
      "start": 21.2007,
      "duration": 0.2503,
      "velocity": 94,
      "chip": "ym2612"
    },
    {
      "channel": 2,
      "note": 57,
      "start": 21.2012,
      "duration": 0.2503,
      "velocity": 94,
      "chip": "ym2612"
    },
    {
      "channel": 0,
      "note": 36,
      "start": 21.2839,
      "duration": 0.1665,
      "velocity": 111,
      "chip": "ym2612"
    },
    {
      "channel": 3,
      "note": 26,
      "start": 21.2846,
      "duration": 0.1691,
      "velocity": 127,
      "chip": "ym2612"
    },
    {
      "channel": 0,
      "note": 38,
      "start": 21.4506,
      "duration": 0.1498,
      "velocity": 111,
      "chip": "ym2612"
    },
    {
      "channel": 1,
      "note": 74,
      "start": 21.4511,
      "duration": 0.0827,
      "velocity": 94,
      "chip": "ym2612"
    },
    {
      "channel": 2,
      "note": 69,
      "start": 21.4517,
      "duration": 0.0827,
      "velocity": 94,
      "chip": "ym2612"
    },
    {
      "channel": 3,
      "note": 21,
      "start": 21.4538,
      "duration": 0.1498,
      "velocity": 127,
      "chip": "ym2612"
    },
    {
      "channel": 1,
      "note": 72,
      "start": 21.534,
      "duration": 0.067,
      "velocity": 94,
      "chip": "ym2612"
    },
    {
      "channel": 2,
      "note": 67,
      "start": 21.5345,
      "duration": 0.0671,
      "velocity": 94,
      "chip": "ym2612"
    },
    {
      "channel": 0,
      "note": 36,
      "start": 21.6006,
      "duration": 0.1665,
      "velocity": 111,
      "chip": "ym2612"
    },
    {
      "channel": 1,
      "note": 69,
      "start": 21.6012,
      "duration": 0.0827,
      "velocity": 94,
      "chip": "ym2612"
    },
    {
      "channel": 2,
      "note": 62,
      "start": 21.6017,
      "duration": 0.0827,
      "velocity": 94,
      "chip": "ym2612"
    },
    {
      "channel": 3,
      "note": 31,
      "start": 21.6038,
      "duration": 0.0811,
      "velocity": 127,
      "chip": "ym2612"
    },
    {
      "channel": 1,
      "note": 62,
      "start": 21.684,
      "duration": 0.2503,
      "velocity": 94,
      "chip": "ym2612"
    },
    {
      "channel": 2,
      "note": 57,
      "start": 21.6845,
      "duration": 0.2503,
      "velocity": 94,
      "chip": "ym2612"
    },
    {
      "channel": 3,
      "note": 31,
      "start": 21.6851,
      "duration": 0.0843,
      "velocity": 127,
      "chip": "ym2612"
    },
    {
      "channel": 0,
      "note": 38,
      "start": 21.7673,
      "duration": 0.1665,
      "velocity": 111,
      "chip": "ym2612"
    },
    {
      "channel": 3,
      "note": 26,
      "start": 21.7695,
      "duration": 0.1675,
      "velocity": 127,
      "chip": "ym2612"
    },
    {
      "channel": 0,
      "note": 38,
      "start": 21.9339,
      "duration": 0.1498,
      "velocity": 111,
      "chip": "ym2612"
    },
    {
      "channel": 1,
      "note": 74,
      "start": 21.9344,
      "duration": 0.066,
      "velocity": 94,
      "chip": "ym2612"
    },
    {
      "channel": 2,
      "note": 69,
      "start": 21.935,
      "duration": 0.066,
      "velocity": 94,
      "chip": "ym2612"
    },
    {
      "channel": 3,
      "note": 31,
      "start": 21.9372,
      "duration": 0.0644,
      "velocity": 127,
      "chip": "ym2612"
    },
    {
      "channel": 1,
      "note": 72,
      "start": 22.0007,
      "duration": 0.0837,
      "velocity": 94,
      "chip": "ym2612"
    },
    {
      "channel": 2,
      "note": 67,
      "start": 22.0012,
      "duration": 0.0837,
      "velocity": 94,
      "chip": "ym2612"
    },
    {
      "channel": 3,
      "note": 31,
      "start": 22.0017,
      "duration": 0.0852,
      "velocity": 127,
      "chip": "ym2612"
    },
    {
      "channel": 0,
      "note": 36,
      "start": 22.0839,
      "duration": 0.1665,
      "velocity": 111,
      "chip": "ym2612"
    },
    {
      "channel": 1,
      "note": 69,
      "start": 22.0844,
      "duration": 0.0827,
      "velocity": 94,
      "chip": "ym2612"
    },
    {
      "channel": 2,
      "note": 62,
      "start": 22.085,
      "duration": 0.0827,
      "velocity": 94,
      "chip": "ym2612"
    },
    {
      "channel": 3,
      "note": 21,
      "start": 22.0872,
      "duration": 0.1655,
      "velocity": 127,
      "chip": "ym2612"
    },
    {
      "channel": 1,
      "note": 62,
      "start": 22.1673,
      "duration": 0.2337,
      "velocity": 94,
      "chip": "ym2612"
    },
    {
      "channel": 2,
      "note": 57,
      "start": 22.1678,
      "duration": 0.2337,
      "velocity": 94,
      "chip": "ym2612"
    },
    {
      "channel": 0,
      "note": 38,
      "start": 22.2506,
      "duration": 0.1498,
      "velocity": 111,
      "chip": "ym2612"
    },
    {
      "channel": 3,
      "note": 31,
      "start": 22.2528,
      "duration": 0.0827,
      "velocity": 127,
      "chip": "ym2612"
    },
    {
      "channel": 3,
      "note": 26,
      "start": 22.3356,
      "duration": 0.0664,
      "velocity": 127,
      "chip": "ym2612"
    },
    {
      "channel": 0,
      "note": 38,
      "start": 22.4006,
      "duration": 0.1665,
      "velocity": 111,
      "chip": "ym2612"
    },
    {
      "channel": 1,
      "note": 74,
      "start": 22.4011,
      "duration": 0.0827,
      "velocity": 94,
      "chip": "ym2612"
    },
    {
      "channel": 2,
      "note": 69,
      "start": 22.4017,
      "duration": 0.0827,
      "velocity": 94,
      "chip": "ym2612"
    },
    {
      "channel": 3,
      "note": 26,
      "start": 22.4022,
      "duration": 0.1665,
      "velocity": 127,
      "chip": "ym2612"
    },
    {
      "channel": 1,
      "note": 72,
      "start": 22.484,
      "duration": 0.0837,
      "velocity": 94,
      "chip": "ym2612"
    },
    {
      "channel": 2,
      "note": 67,
      "start": 22.4845,
      "duration": 0.0837,
      "velocity": 94,
      "chip": "ym2612"
    },
    {
      "channel": 0,
      "note": 36,
      "start": 22.5673,
      "duration": 0.1665,
      "velocity": 111,
      "chip": "ym2612"
    },
    {
      "channel": 1,
      "note": 69,
      "start": 22.5678,
      "duration": 0.0827,
      "velocity": 94,
      "chip": "ym2612"
    },
    {
      "channel": 2,
      "note": 62,
      "start": 22.5683,
      "duration": 0.0827,
      "velocity": 94,
      "chip": "ym2612"
    },
    {
      "channel": 3,
      "note": 26,
      "start": 22.5689,
      "duration": 0.1681,
      "velocity": 127,
      "chip": "ym2612"
    },
    {
      "channel": 1,
      "note": 62,
      "start": 22.6507,
      "duration": 0.0837,
      "velocity": 94,
      "chip": "ym2612"
    },
    {
      "channel": 2,
      "note": 57,
      "start": 22.6512,
      "duration": 0.0837,
      "velocity": 94,
      "chip": "ym2612"
    },
    {
      "channel": 0,
      "note": 38,
      "start": 22.7339,
      "duration": 0.1498,
      "velocity": 111,
      "chip": "ym2612"
    },
    {
      "channel": 1,
      "note": 74,
      "start": 22.7344,
      "duration": 0.066,
      "velocity": 94,
      "chip": "ym2612"
    },
    {
      "channel": 2,
      "note": 69,
      "start": 22.735,
      "duration": 0.066,
      "velocity": 94,
      "chip": "ym2612"
    },
    {
      "channel": 3,
      "note": 21,
      "start": 22.7372,
      "duration": 0.1498,
      "velocity": 127,
      "chip": "ym2612"
    },
    {
      "channel": 1,
      "note": 72,
      "start": 22.8007,
      "duration": 0.0837,
      "velocity": 94,
      "chip": "ym2612"
    },
    {
      "channel": 2,
      "note": 67,
      "start": 22.8012,
      "duration": 0.0837,
      "velocity": 94,
      "chip": "ym2612"
    },
    {
      "channel": 0,
      "note": 36,
      "start": 22.8839,
      "duration": 0.1665,
      "velocity": 111,
      "chip": "ym2612"
    },
    {
      "channel": 1,
      "note": 69,
      "start": 22.8845,
      "duration": 0.0827,
      "velocity": 94,
      "chip": "ym2612"
    },
    {
      "channel": 2,
      "note": 62,
      "start": 22.885,
      "duration": 0.0827,
      "velocity": 94,
      "chip": "ym2612"
    },
    {
      "channel": 3,
      "note": 31,
      "start": 22.8872,
      "duration": 0.081,
      "velocity": 127,
      "chip": "ym2612"
    },
    {
      "channel": 1,
      "note": 62,
      "start": 22.9673,
      "duration": 0.0837,
      "velocity": 94,
      "chip": "ym2612"
    },
    {
      "channel": 2,
      "note": 57,
      "start": 22.9678,
      "duration": 0.0837,
      "velocity": 94,
      "chip": "ym2612"
    },
    {
      "channel": 3,
      "note": 31,
      "start": 22.9684,
      "duration": 0.0852,
      "velocity": 127,
      "chip": "ym2612"
    },
    {
      "channel": 0,
      "note": 38,
      "start": 23.0506,
      "duration": 0.1498,
      "velocity": 111,
      "chip": "ym2612"
    },
    {
      "channel": 1,
      "note": 77,
      "start": 23.0512,
      "duration": 0.0827,
      "velocity": 94,
      "chip": "ym2612"
    },
    {
      "channel": 2,
      "note": 72,
      "start": 23.0517,
      "duration": 0.0827,
      "velocity": 94,
      "chip": "ym2612"
    },
    {
      "channel": 3,
      "note": 26,
      "start": 23.0538,
      "duration": 0.1498,
      "velocity": 127,
      "chip": "ym2612"
    },
    {
      "channel": 1,
      "note": 76,
      "start": 23.134,
      "duration": 0.067,
      "velocity": 94,
      "chip": "ym2612"
    },
    {
      "channel": 2,
      "note": 69,
      "start": 23.1345,
      "duration": 0.067,
      "velocity": 94,
      "chip": "ym2612"
    },
    {
      "channel": 0,
      "note": 38,
      "start": 23.2006,
      "duration": 0.1665,
      "velocity": 111,
      "chip": "ym2612"
    },
    {
      "channel": 1,
      "note": 72,
      "start": 23.2011,
      "duration": 0.0827,
      "velocity": 94,
      "chip": "ym2612"
    },
    {
      "channel": 2,
      "note": 65,
      "start": 23.2017,
      "duration": 0.0827,
      "velocity": 94,
      "chip": "ym2612"
    },
    {
      "channel": 3,
      "note": 31,
      "start": 23.2038,
      "duration": 0.081,
      "velocity": 127,
      "chip": "ym2612"
    },
    {
      "channel": 1,
      "note": 69,
      "start": 23.284,
      "duration": 0.2503,
      "velocity": 94,
      "chip": "ym2612"
    },
    {
      "channel": 2,
      "note": 60,
      "start": 23.2845,
      "duration": 0.2503,
      "velocity": 94,
      "chip": "ym2612"
    },
    {
      "channel": 3,
      "note": 31,
      "start": 23.2851,
      "duration": 0.0843,
      "velocity": 127,
      "chip": "ym2612"
    },
    {
      "channel": 0,
      "note": 36,
      "start": 23.3673,
      "duration": 0.1665,
      "velocity": 111,
      "chip": "ym2612"
    },
    {
      "channel": 3,
      "note": 21,
      "start": 23.3695,
      "duration": 0.1675,
      "velocity": 127,
      "chip": "ym2612"
    },
    {
      "channel": 0,
      "note": 38,
      "start": 23.5339,
      "duration": 0.1498,
      "velocity": 111,
      "chip": "ym2612"
    },
    {
      "channel": 1,
      "note": 77,
      "start": 23.5344,
      "duration": 0.066,
      "velocity": 94,
      "chip": "ym2612"
    },
    {
      "channel": 2,
      "note": 72,
      "start": 23.535,
      "duration": 0.066,
      "velocity": 94,
      "chip": "ym2612"
    },
    {
      "channel": 3,
      "note": 31,
      "start": 23.5372,
      "duration": 0.066,
      "velocity": 127,
      "chip": "ym2612"
    },
    {
      "channel": 1,
      "note": 76,
      "start": 23.6007,
      "duration": 0.0837,
      "velocity": 94,
      "chip": "ym2612"
    },
    {
      "channel": 2,
      "note": 69,
      "start": 23.6012,
      "duration": 0.0837,
      "velocity": 94,
      "chip": "ym2612"
    },
    {
      "channel": 3,
      "note": 26,
      "start": 23.6033,
      "duration": 0.0821,
      "velocity": 127,
      "chip": "ym2612"
    },
    {
      "channel": 0,
      "note": 38,
      "start": 23.6839,
      "duration": 0.1665,
      "velocity": 111,
      "chip": "ym2612"
    },
    {
      "channel": 1,
      "note": 72,
      "start": 23.6844,
      "duration": 0.0827,
      "velocity": 94,
      "chip": "ym2612"
    },
    {
      "channel": 2,
      "note": 65,
      "start": 23.685,
      "duration": 0.0827,
      "velocity": 94,
      "chip": "ym2612"
    },
    {
      "channel": 3,
      "note": 26,
      "start": 23.6856,
      "duration": 0.1655,
      "velocity": 127,
      "chip": "ym2612"
    },
    {
      "channel": 1,
      "note": 69,
      "start": 23.7673,
      "duration": 0.2337,
      "velocity": 94,
      "chip": "ym2612"
    },
    {
      "channel": 2,
      "note": 60,
      "start": 23.7678,
      "duration": 0.2337,
      "velocity": 94,
      "chip": "ym2612"
    },
    {
      "channel": 0,
      "note": 36,
      "start": 23.8506,
      "duration": 0.1498,
      "velocity": 111,
      "chip": "ym2612"
    },
    {
      "channel": 3,
      "note": 26,
      "start": 23.8513,
      "duration": 0.1524,
      "velocity": 127,
      "chip": "ym2612"
    },
    {
      "channel": 0,
      "note": 38,
      "start": 24.0006,
      "duration": 0.1665,
      "velocity": 111,
      "chip": "ym2612"
    },
    {
      "channel": 1,
      "note": 77,
      "start": 24.0012,
      "duration": 0.0827,
      "velocity": 94,
      "chip": "ym2612"
    },
    {
      "channel": 2,
      "note": 72,
      "start": 24.0017,
      "duration": 0.0827,
      "velocity": 94,
      "chip": "ym2612"
    },
    {
      "channel": 3,
      "note": 21,
      "start": 24.0038,
      "duration": 0.1665,
      "velocity": 127,
      "chip": "ym2612"
    },
    {
      "channel": 1,
      "note": 76,
      "start": 24.084,
      "duration": 0.0837,
      "velocity": 94,
      "chip": "ym2612"
    },
    {
      "channel": 2,
      "note": 69,
      "start": 24.0845,
      "duration": 0.0837,
      "velocity": 94,
      "chip": "ym2612"
    },
    {
      "channel": 0,
      "note": 36,
      "start": 24.1673,
      "duration": 0.1665,
      "velocity": 111,
      "chip": "ym2612"
    },
    {
      "channel": 1,
      "note": 72,
      "start": 24.1678,
      "duration": 0.0827,
      "velocity": 94,
      "chip": "ym2612"
    },
    {
      "channel": 2,
      "note": 65,
      "start": 24.1683,
      "duration": 0.0827,
      "velocity": 94,
      "chip": "ym2612"
    },
    {
      "channel": 3,
      "note": 31,
      "start": 24.1705,
      "duration": 0.081,
      "velocity": 127,
      "chip": "ym2612"
    },
    {
      "channel": 1,
      "note": 69,
      "start": 24.2507,
      "duration": 0.2337,
      "velocity": 94,
      "chip": "ym2612"
    },
    {
      "channel": 2,
      "note": 60,
      "start": 24.2512,
      "duration": 0.2337,
      "velocity": 94,
      "chip": "ym2612"
    },
    {
      "channel": 3,
      "note": 31,
      "start": 24.2517,
      "duration": 0.0843,
      "velocity": 127,
      "chip": "ym2612"
    },
    {
      "channel": 0,
      "note": 38,
      "start": 24.3339,
      "duration": 0.1498,
      "velocity": 111,
      "chip": "ym2612"
    },
    {
      "channel": 3,
      "note": 26,
      "start": 24.3361,
      "duration": 0.1508,
      "velocity": 127,
      "chip": "ym2612"
    },
    {
      "channel": 0,
      "note": 45,
      "start": 24.4839,
      "duration": 0.1665,
      "velocity": 111,
      "chip": "ym2612"
    },
    {
      "channel": 1,
      "note": 77,
      "start": 24.4845,
      "duration": 0.0827,
      "velocity": 94,
      "chip": "ym2612"
    },
    {
      "channel": 2,
      "note": 72,
      "start": 24.485,
      "duration": 0.0827,
      "velocity": 94,
      "chip": "ym2612"
    },
    {
      "channel": 3,
      "note": 31,
      "start": 24.4872,
      "duration": 0.0811,
      "velocity": 127,
      "chip": "ym2612"
    },
    {
      "channel": 1,
      "note": 76,
      "start": 24.5673,
      "duration": 0.0837,
      "velocity": 94,
      "chip": "ym2612"
    },
    {
      "channel": 2,
      "note": 69,
      "start": 24.5678,
      "duration": 0.0837,
      "velocity": 94,
      "chip": "ym2612"
    },
    {
      "channel": 3,
      "note": 31,
      "start": 24.5684,
      "duration": 0.0852,
      "velocity": 127,
      "chip": "ym2612"
    },
    {
      "channel": 0,
      "note": 40,
      "start": 24.6506,
      "duration": 0.1498,
      "velocity": 111,
      "chip": "ym2612"
    },
    {
      "channel": 1,
      "note": 72,
      "start": 24.6512,
      "duration": 0.0827,
      "velocity": 94,
      "chip": "ym2612"
    },
    {
      "channel": 2,
      "note": 65,
      "start": 24.6517,
      "duration": 0.0827,
      "velocity": 94,
      "chip": "ym2612"
    },
    {
      "channel": 3,
      "note": 21,
      "start": 24.6538,
      "duration": 0.1488,
      "velocity": 127,
      "chip": "ym2612"
    },
    {
      "channel": 1,
      "note": 69,
      "start": 24.734,
      "duration": 0.2337,
      "velocity": 94,
      "chip": "ym2612"
    },
    {
      "channel": 2,
      "note": 60,
      "start": 24.7345,
      "duration": 0.2337,
      "velocity": 94,
      "chip": "ym2612"
    },
    {
      "channel": 0,
      "note": 47,
      "start": 24.8006,
      "duration": 0.1665,
      "velocity": 111,
      "chip": "ym2612"
    },
    {
      "channel": 3,
      "note": 31,
      "start": 24.8028,
      "duration": 0.0827,
      "velocity": 127,
      "chip": "ym2612"
    },
    {
      "channel": 3,
      "note": 26,
      "start": 24.8856,
      "duration": 0.0831,
      "velocity": 127,
      "chip": "ym2612"
    },
    {
      "channel": 0,
      "note": 41,
      "start": 24.9673,
      "duration": 0.1665,
      "velocity": 111,
      "chip": "ym2612"
    },
    {
      "channel": 1,
      "note": 77,
      "start": 24.9678,
      "duration": 0.0827,
      "velocity": 94,
      "chip": "ym2612"
    },
    {
      "channel": 2,
      "note": 72,
      "start": 24.9683,
      "duration": 0.0827,
      "velocity": 94,
      "chip": "ym2612"
    },
    {
      "channel": 3,
      "note": 26,
      "start": 24.9689,
      "duration": 0.1665,
      "velocity": 127,
      "chip": "ym2612"
    },
    {
      "channel": 1,
      "note": 76,
      "start": 25.0507,
      "duration": 0.0837,
      "velocity": 94,
      "chip": "ym2612"
    },
    {
      "channel": 2,
      "note": 69,
      "start": 25.0512,
      "duration": 0.0837,
      "velocity": 94,
      "chip": "ym2612"
    },
    {
      "channel": 0,
      "note": 48,
      "start": 25.1339,
      "duration": 0.1498,
      "velocity": 111,
      "chip": "ym2612"
    },
    {
      "channel": 1,
      "note": 72,
      "start": 25.1344,
      "duration": 0.066,
      "velocity": 94,
      "chip": "ym2612"
    },
    {
      "channel": 2,
      "note": 65,
      "start": 25.135,
      "duration": 0.066,
      "velocity": 94,
      "chip": "ym2612"
    },
    {
      "channel": 3,
      "note": 26,
      "start": 25.1356,
      "duration": 0.1514,
      "velocity": 127,
      "chip": "ym2612"
    },
    {
      "channel": 1,
      "note": 69,
      "start": 25.2007,
      "duration": 0.0837,
      "velocity": 94,
      "chip": "ym2612"
    },
    {
      "channel": 2,
      "note": 60,
      "start": 25.2012,
      "duration": 0.0837,
      "velocity": 94,
      "chip": "ym2612"
    },
    {
      "channel": 0,
      "note": 43,
      "start": 25.2839,
      "duration": 0.1665,
      "velocity": 111,
      "chip": "ym2612"
    },
    {
      "channel": 1,
      "note": 77,
      "start": 25.2845,
      "duration": 0.0827,
      "velocity": 94,
      "chip": "ym2612"
    },
    {
      "channel": 2,
      "note": 72,
      "start": 25.285,
      "duration": 0.0827,
      "velocity": 94,
      "chip": "ym2612"
    },
    {
      "channel": 3,
      "note": 21,
      "start": 25.2872,
      "duration": 0.0811,
      "velocity": 127,
      "chip": "ym2612"
    },
    {
      "channel": 1,
      "note": 76,
      "start": 25.3673,
      "duration": 0.0837,
      "velocity": 94,
      "chip": "ym2612"
    },
    {
      "channel": 2,
      "note": 69,
      "start": 25.3678,
      "duration": 0.0837,
      "velocity": 94,
      "chip": "ym2612"
    },
    {
      "channel": 3,
      "note": 21,
      "start": 25.3684,
      "duration": 0.0837,
      "velocity": 127,
      "chip": "ym2612"
    },
    {
      "channel": 0,
      "note": 50,
      "start": 25.4506,
      "duration": 0.1499,
      "velocity": 111,
      "chip": "ym2612"
    },
    {
      "channel": 1,
      "note": 72,
      "start": 25.4512,
      "duration": 0.0827,
      "velocity": 94,
      "chip": "ym2612"
    },
    {
      "channel": 2,
      "note": 65,
      "start": 25.4517,
      "duration": 0.0827,
      "velocity": 94,
      "chip": "ym2612"
    },
    {
      "channel": 3,
      "note": 21,
      "start": 25.4522,
      "duration": 0.1517,
      "velocity": 127,
      "chip": "ym2612"
    },
    {
      "channel": 1,
      "note": 69,
      "start": 25.534,
      "duration": 0.0672,
      "velocity": 94,
      "chip": "ym2612"
    },
    {
      "channel": 2,
      "note": 60,
      "start": 25.5346,
      "duration": 0.0672,
      "velocity": 94,
      "chip": "ym2612"
    },
    {
      "channel": 0,
      "note": 38,
      "start": 25.6007,
      "duration": 0.1663,
      "velocity": 111,
      "chip": "ym2612"
    },
    {
      "channel": 1,
      "note": 79,
      "start": 25.6014,
      "duration": 0.0824,
      "velocity": 94,
      "chip": "ym2612"
    },
    {
      "channel": 2,
      "note": 74,
      "start": 25.6019,
      "duration": 0.0824,
      "velocity": 94,
      "chip": "ym2612"
    },
    {
      "channel": 3,
      "note": 26,
      "start": 25.6041,
      "duration": 0.1662,
      "velocity": 127,
      "chip": "ym2612"
    },
    {
      "channel": 1,
      "note": 77,
      "start": 25.684,
      "duration": 0.0837,
      "velocity": 94,
      "chip": "ym2612"
    },
    {
      "channel": 2,
      "note": 72,
      "start": 25.6845,
      "duration": 0.0837,
      "velocity": 94,
      "chip": "ym2612"
    },
    {
      "channel": 0,
      "note": 38,
      "start": 25.7673,
      "duration": 0.1665,
      "velocity": 111,
      "chip": "ym2612"
    },
    {
      "channel": 1,
      "note": 72,
      "start": 25.7678,
      "duration": 0.0827,
      "velocity": 94,
      "chip": "ym2612"
    },
    {
      "channel": 2,
      "note": 67,
      "start": 25.7683,
      "duration": 0.0827,
      "velocity": 94,
      "chip": "ym2612"
    },
    {
      "channel": 3,
      "note": 31,
      "start": 25.7705,
      "duration": 0.081,
      "velocity": 127,
      "chip": "ym2612"
    },
    {
      "channel": 1,
      "note": 71,
      "start": 25.8507,
      "duration": 0.2337,
      "velocity": 94,
      "chip": "ym2612"
    },
    {
      "channel": 2,
      "note": 65,
      "start": 25.8512,
      "duration": 0.2337,
      "velocity": 94,
      "chip": "ym2612"
    },
    {
      "channel": 3,
      "note": 31,
      "start": 25.8517,
      "duration": 0.0842,
      "velocity": 127,
      "chip": "ym2612"
    },
    {
      "channel": 0,
      "note": 36,
      "start": 25.9339,
      "duration": 0.1498,
      "velocity": 111,
      "chip": "ym2612"
    },
    {
      "channel": 3,
      "note": 21,
      "start": 25.9361,
      "duration": 0.1508,
      "velocity": 127,
      "chip": "ym2612"
    },
    {
      "channel": 0,
      "note": 38,
      "start": 26.0839,
      "duration": 0.1665,
      "velocity": 111,
      "chip": "ym2612"
    },
    {
      "channel": 1,
      "note": 79,
      "start": 26.0844,
      "duration": 0.0827,
      "velocity": 94,
      "chip": "ym2612"
    },
    {
      "channel": 2,
      "note": 74,
      "start": 26.085,
      "duration": 0.0827,
      "velocity": 94,
      "chip": "ym2612"
    },
    {
      "channel": 3,
      "note": 31,
      "start": 26.0872,
      "duration": 0.0826,
      "velocity": 127,
      "chip": "ym2612"
    },
    {
      "channel": 1,
      "note": 77,
      "start": 26.1673,
      "duration": 0.0837,
      "velocity": 94,
      "chip": "ym2612"
    },
    {
      "channel": 2,
      "note": 72,
      "start": 26.1678,
      "duration": 0.0837,
      "velocity": 94,
      "chip": "ym2612"
    },
    {
      "channel": 3,
      "note": 26,
      "start": 26.17,
      "duration": 0.0821,
      "velocity": 127,
      "chip": "ym2612"
    },
    {
      "channel": 0,
      "note": 38,
      "start": 26.2506,
      "duration": 0.1498,
      "velocity": 111,
      "chip": "ym2612"
    },
    {
      "channel": 1,
      "note": 72,
      "start": 26.2511,
      "duration": 0.0827,
      "velocity": 94,
      "chip": "ym2612"
    },
    {
      "channel": 2,
      "note": 67,
      "start": 26.2517,
      "duration": 0.0827,
      "velocity": 94,
      "chip": "ym2612"
    },
    {
      "channel": 3,
      "note": 26,
      "start": 26.2522,
      "duration": 0.1489,
      "velocity": 127,
      "chip": "ym2612"
    },
    {
      "channel": 1,
      "note": 71,
      "start": 26.334,
      "duration": 0.2337,
      "velocity": 94,
      "chip": "ym2612"
    },
    {
      "channel": 2,
      "note": 65,
      "start": 26.3345,
      "duration": 0.2337,
      "velocity": 94,
      "chip": "ym2612"
    },
    {
      "channel": 0,
      "note": 36,
      "start": 26.4006,
      "duration": 0.1665,
      "velocity": 111,
      "chip": "ym2612"
    },
    {
      "channel": 3,
      "note": 26,
      "start": 26.4012,
      "duration": 0.1691,
      "velocity": 127,
      "chip": "ym2612"
    },
    {
      "channel": 0,
      "note": 38,
      "start": 26.5673,
      "duration": 0.1665,
      "velocity": 111,
      "chip": "ym2612"
    },
    {
      "channel": 1,
      "note": 79,
      "start": 26.5678,
      "duration": 0.0827,
      "velocity": 94,
      "chip": "ym2612"
    },
    {
      "channel": 2,
      "note": 74,
      "start": 26.5683,
      "duration": 0.0827,
      "velocity": 94,
      "chip": "ym2612"
    },
    {
      "channel": 3,
      "note": 21,
      "start": 26.5705,
      "duration": 0.1665,
      "velocity": 127,
      "chip": "ym2612"
    },
    {
      "channel": 1,
      "note": 77,
      "start": 26.6507,
      "duration": 0.0837,
      "velocity": 94,
      "chip": "ym2612"
    },
    {
      "channel": 2,
      "note": 72,
      "start": 26.6512,
      "duration": 0.0837,
      "velocity": 94,
      "chip": "ym2612"
    },
    {
      "channel": 0,
      "note": 36,
      "start": 26.7339,
      "duration": 0.1498,
      "velocity": 111,
      "chip": "ym2612"
    },
    {
      "channel": 1,
      "note": 72,
      "start": 26.7344,
      "duration": 0.066,
      "velocity": 94,
      "chip": "ym2612"
    },
    {
      "channel": 2,
      "note": 67,
      "start": 26.735,
      "duration": 0.066,
      "velocity": 94,
      "chip": "ym2612"
    },
    {
      "channel": 3,
      "note": 31,
      "start": 26.7372,
      "duration": 0.0644,
      "velocity": 127,
      "chip": "ym2612"
    },
    {
      "channel": 1,
      "note": 71,
      "start": 26.8007,
      "duration": 0.2503,
      "velocity": 94,
      "chip": "ym2612"
    },
    {
      "channel": 2,
      "note": 65,
      "start": 26.8012,
      "duration": 0.2504,
      "velocity": 94,
      "chip": "ym2612"
    },
    {
      "channel": 3,
      "note": 31,
      "start": 26.8017,
      "duration": 0.0843,
      "velocity": 127,
      "chip": "ym2612"
    },
    {
      "channel": 0,
      "note": 38,
      "start": 26.8839,
      "duration": 0.1665,
      "velocity": 111,
      "chip": "ym2612"
    },
    {
      "channel": 3,
      "note": 26,
      "start": 26.8861,
      "duration": 0.1675,
      "velocity": 127,
      "chip": "ym2612"
    },
    {
      "channel": 0,
      "note": 38,
      "start": 27.0506,
      "duration": 0.1498,
      "velocity": 111,
      "chip": "ym2612"
    },
    {
      "channel": 1,
      "note": 79,
      "start": 27.0512,
      "duration": 0.0827,
      "velocity": 94,
      "chip": "ym2612"
    },
    {
      "channel": 2,
      "note": 74,
      "start": 27.0517,
      "duration": 0.0827,
      "velocity": 94,
      "chip": "ym2612"
    },
    {
      "channel": 3,
      "note": 31,
      "start": 27.0538,
      "duration": 0.081,
      "velocity": 127,
      "chip": "ym2612"
    },
    {
      "channel": 1,
      "note": 77,
      "start": 27.134,
      "duration": 0.067,
      "velocity": 94,
      "chip": "ym2612"
    },
    {
      "channel": 2,
      "note": 72,
      "start": 27.1345,
      "duration": 0.067,
      "velocity": 94,
      "chip": "ym2612"
    },
    {
      "channel": 3,
      "note": 31,
      "start": 27.1351,
      "duration": 0.0686,
      "velocity": 127,
      "chip": "ym2612"
    },
    {
      "channel": 0,
      "note": 36,
      "start": 27.2006,
      "duration": 0.1665,
      "velocity": 111,
      "chip": "ym2612"
    },
    {
      "channel": 1,
      "note": 72,
      "start": 27.2011,
      "duration": 0.0827,
      "velocity": 94,
      "chip": "ym2612"
    },
    {
      "channel": 2,
      "note": 67,
      "start": 27.2017,
      "duration": 0.0827,
      "velocity": 94,
      "chip": "ym2612"
    },
    {
      "channel": 3,
      "note": 21,
      "start": 27.2038,
      "duration": 0.1655,
      "velocity": 127,
      "chip": "ym2612"
    },
    {
      "channel": 1,
      "note": 71,
      "start": 27.284,
      "duration": 0.2503,
      "velocity": 94,
      "chip": "ym2612"
    },
    {
      "channel": 2,
      "note": 65,
      "start": 27.2845,
      "duration": 0.2503,
      "velocity": 94,
      "chip": "ym2612"
    },
    {
      "channel": 0,
      "note": 38,
      "start": 27.3673,
      "duration": 0.1665,
      "velocity": 111,
      "chip": "ym2612"
    },
    {
      "channel": 3,
      "note": 31,
      "start": 27.3695,
      "duration": 0.0827,
      "velocity": 127,
      "chip": "ym2612"
    },
    {
      "channel": 3,
      "note": 26,
      "start": 27.4523,
      "duration": 0.0831,
      "velocity": 127,
      "chip": "ym2612"
    },
    {
      "channel": 0,
      "note": 38,
      "start": 27.5339,
      "duration": 0.1498,
      "velocity": 111,
      "chip": "ym2612"
    },
    {
      "channel": 1,
      "note": 79,
      "start": 27.5344,
      "duration": 0.066,
      "velocity": 94,
      "chip": "ym2612"
    },
    {
      "channel": 2,
      "note": 74,
      "start": 27.535,
      "duration": 0.066,
      "velocity": 94,
      "chip": "ym2612"
    },
    {
      "channel": 3,
      "note": 26,
      "start": 27.5356,
      "duration": 0.1498,
      "velocity": 127,
      "chip": "ym2612"
    },
    {
      "channel": 1,
      "note": 77,
      "start": 27.6007,
      "duration": 0.0837,
      "velocity": 94,
      "chip": "ym2612"
    },
    {
      "channel": 2,
      "note": 72,
      "start": 27.6012,
      "duration": 0.0837,
      "velocity": 94,
      "chip": "ym2612"
    },
    {
      "channel": 0,
      "note": 36,
      "start": 27.6839,
      "duration": 0.1665,
      "velocity": 111,
      "chip": "ym2612"
    },
    {
      "channel": 1,
      "note": 72,
      "start": 27.6844,
      "duration": 0.0827,
      "velocity": 94,
      "chip": "ym2612"
    },
    {
      "channel": 2,
      "note": 67,
      "start": 27.685,
      "duration": 0.0827,
      "velocity": 94,
      "chip": "ym2612"
    },
    {
      "channel": 3,
      "note": 26,
      "start": 27.6856,
      "duration": 0.1681,
      "velocity": 127,
      "chip": "ym2612"
    },
    {
      "channel": 1,
      "note": 71,
      "start": 27.7673,
      "duration": 0.0837,
      "velocity": 94,
      "chip": "ym2612"
    },
    {
      "channel": 2,
      "note": 65,
      "start": 27.7678,
      "duration": 0.0837,
      "velocity": 94,
      "chip": "ym2612"
    },
    {
      "channel": 0,
      "note": 38,
      "start": 27.8506,
      "duration": 0.1498,
      "velocity": 111,
      "chip": "ym2612"
    },
    {
      "channel": 1,
      "note": 79,
      "start": 27.8512,
      "duration": 0.0827,
      "velocity": 94,
      "chip": "ym2612"
    },
    {
      "channel": 2,
      "note": 74,
      "start": 27.8517,
      "duration": 0.0827,
      "velocity": 94,
      "chip": "ym2612"
    },
    {
      "channel": 3,
      "note": 21,
      "start": 27.8538,
      "duration": 0.1498,
      "velocity": 127,
      "chip": "ym2612"
    },
    {
      "channel": 1,
      "note": 77,
      "start": 27.934,
      "duration": 0.067,
      "velocity": 94,
      "chip": "ym2612"
    },
    {
      "channel": 2,
      "note": 72,
      "start": 27.9345,
      "duration": 0.067,
      "velocity": 94,
      "chip": "ym2612"
    },
    {
      "channel": 0,
      "note": 36,
      "start": 28.0006,
      "duration": 0.1665,
      "velocity": 111,
      "chip": "ym2612"
    },
    {
      "channel": 1,
      "note": 74,
      "start": 28.0011,
      "duration": 0.0827,
      "velocity": 94,
      "chip": "ym2612"
    },
    {
      "channel": 2,
      "note": 67,
      "start": 28.0017,
      "duration": 0.0827,
      "velocity": 94,
      "chip": "ym2612"
    },
    {
      "channel": 3,
      "note": 31,
      "start": 28.0038,
      "duration": 0.081,
      "velocity": 127,
      "chip": "ym2612"
    },
    {
      "channel": 1,
      "note": 71,
      "start": 28.084,
      "duration": 0.0837,
      "velocity": 94,
      "chip": "ym2612"
    },
    {
      "channel": 2,
      "note": 65,
      "start": 28.0845,
      "duration": 0.0837,
      "velocity": 94,
      "chip": "ym2612"
    },
    {
      "channel": 3,
      "note": 31,
      "start": 28.0851,
      "duration": 0.0852,
      "velocity": 127,
      "chip": "ym2612"
    },
    {
      "channel": 0,
      "note": 38,
      "start": 28.1673,
      "duration": 0.1665,
      "velocity": 111,
      "chip": "ym2612"
    },
    {
      "channel": 1,
      "note": 86,
      "start": 28.1678,
      "duration": 0.0827,
      "velocity": 94,
      "chip": "ym2612"
    },
    {
      "channel": 2,
      "note": 81,
      "start": 28.1683,
      "duration": 0.0827,
      "velocity": 94,
      "chip": "ym2612"
    },
    {
      "channel": 3,
      "note": 26,
      "start": 28.1705,
      "duration": 0.1665,
      "velocity": 127,
      "chip": "ym2612"
    },
    {
      "channel": 1,
      "note": 84,
      "start": 28.2507,
      "duration": 0.0837,
      "velocity": 94,
      "chip": "ym2612"
    },
    {
      "channel": 2,
      "note": 79,
      "start": 28.2512,
      "duration": 0.0837,
      "velocity": 94,
      "chip": "ym2612"
    },
    {
      "channel": 0,
      "note": 38,
      "start": 28.3339,
      "duration": 0.1498,
      "velocity": 111,
      "chip": "ym2612"
    },
    {
      "channel": 1,
      "note": 79,
      "start": 28.3344,
      "duration": 0.066,
      "velocity": 94,
      "chip": "ym2612"
    },
    {
      "channel": 2,
      "note": 77,
      "start": 28.335,
      "duration": 0.066,
      "velocity": 94,
      "chip": "ym2612"
    },
    {
      "channel": 3,
      "note": 31,
      "start": 28.3372,
      "duration": 0.0644,
      "velocity": 127,
      "chip": "ym2612"
    },
    {
      "channel": 1,
      "note": 77,
      "start": 28.4007,
      "duration": 0.2503,
      "velocity": 94,
      "chip": "ym2612"
    },
    {
      "channel": 2,
      "note": 74,
      "start": 28.4012,
      "duration": 0.2503,
      "velocity": 94,
      "chip": "ym2612"
    },
    {
      "channel": 3,
      "note": 31,
      "start": 28.4017,
      "duration": 0.0843,
      "velocity": 127,
      "chip": "ym2612"
    },
    {
      "channel": 0,
      "note": 36,
      "start": 28.4839,
      "duration": 0.1665,
      "velocity": 111,
      "chip": "ym2612"
    },
    {
      "channel": 3,
      "note": 21,
      "start": 28.4861,
      "duration": 0.1675,
      "velocity": 127,
      "chip": "ym2612"
    },
    {
      "channel": 0,
      "note": 38,
      "start": 28.6506,
      "duration": 0.1498,
      "velocity": 111,
      "chip": "ym2612"
    },
    {
      "channel": 1,
      "note": 86,
      "start": 28.6511,
      "duration": 0.0827,
      "velocity": 94,
      "chip": "ym2612"
    },
    {
      "channel": 2,
      "note": 81,
      "start": 28.6517,
      "duration": 0.0827,
      "velocity": 94,
      "chip": "ym2612"
    },
    {
      "channel": 3,
      "note": 31,
      "start": 28.6538,
      "duration": 0.0826,
      "velocity": 127,
      "chip": "ym2612"
    },
    {
      "channel": 1,
      "note": 84,
      "start": 28.734,
      "duration": 0.067,
      "velocity": 94,
      "chip": "ym2612"
    },
    {
      "channel": 2,
      "note": 79,
      "start": 28.7345,
      "duration": 0.0671,
      "velocity": 94,
      "chip": "ym2612"
    },
    {
      "channel": 3,
      "note": 26,
      "start": 28.7367,
      "duration": 0.0654,
      "velocity": 127,
      "chip": "ym2612"
    },
    {
      "channel": 0,
      "note": 38,
      "start": 28.8006,
      "duration": 0.1665,
      "velocity": 111,
      "chip": "ym2612"
    },
    {
      "channel": 1,
      "note": 79,
      "start": 28.8012,
      "duration": 0.0827,
      "velocity": 94,
      "chip": "ym2612"
    },
    {
      "channel": 2,
      "note": 77,
      "start": 28.8017,
      "duration": 0.0827,
      "velocity": 94,
      "chip": "ym2612"
    },
    {
      "channel": 3,
      "note": 26,
      "start": 28.8022,
      "duration": 0.1655,
      "velocity": 127,
      "chip": "ym2612"
    },
    {
      "channel": 1,
      "note": 77,
      "start": 28.884,
      "duration": 0.2503,
      "velocity": 94,
      "chip": "ym2612"
    },
    {
      "channel": 2,
      "note": 74,
      "start": 28.8845,
      "duration": 0.2503,
      "velocity": 94,
      "chip": "ym2612"
    },
    {
      "channel": 0,
      "note": 36,
      "start": 28.9673,
      "duration": 0.1665,
      "velocity": 111,
      "chip": "ym2612"
    },
    {
      "channel": 3,
      "note": 26,
      "start": 28.968,
      "duration": 0.169,
      "velocity": 127,
      "chip": "ym2612"
    },
    {
      "channel": 0,
      "note": 38,
      "start": 29.1339,
      "duration": 0.1498,
      "velocity": 111,
      "chip": "ym2612"
    },
    {
      "channel": 1,
      "note": 86,
      "start": 29.1344,
      "duration": 0.066,
      "velocity": 94,
      "chip": "ym2612"
    },
    {
      "channel": 2,
      "note": 81,
      "start": 29.135,
      "duration": 0.066,
      "velocity": 94,
      "chip": "ym2612"
    },
    {
      "channel": 3,
      "note": 21,
      "start": 29.1372,
      "duration": 0.1498,
      "velocity": 127,
      "chip": "ym2612"
    },
    {
      "channel": 1,
      "note": 84,
      "start": 29.2007,
      "duration": 0.0837,
      "velocity": 94,
      "chip": "ym2612"
    },
    {
      "channel": 2,
      "note": 79,
      "start": 29.2012,
      "duration": 0.0837,
      "velocity": 94,
      "chip": "ym2612"
    },
    {
      "channel": 0,
      "note": 36,
      "start": 29.2839,
      "duration": 0.1665,
      "velocity": 111,
      "chip": "ym2612"
    },
    {
      "channel": 1,
      "note": 79,
      "start": 29.2844,
      "duration": 0.0827,
      "velocity": 94,
      "chip": "ym2612"
    },
    {
      "channel": 2,
      "note": 77,
      "start": 29.285,
      "duration": 0.0827,
      "velocity": 94,
      "chip": "ym2612"
    },
    {
      "channel": 3,
      "note": 31,
      "start": 29.2872,
      "duration": 0.081,
      "velocity": 127,
      "chip": "ym2612"
    },
    {
      "channel": 1,
      "note": 77,
      "start": 29.3673,
      "duration": 0.2337,
      "velocity": 94,
      "chip": "ym2612"
    },
    {
      "channel": 2,
      "note": 74,
      "start": 29.3678,
      "duration": 0.2337,
      "velocity": 94,
      "chip": "ym2612"
    },
    {
      "channel": 3,
      "note": 31,
      "start": 29.3684,
      "duration": 0.0843,
      "velocity": 127,
      "chip": "ym2612"
    },
    {
      "channel": 0,
      "note": 38,
      "start": 29.4506,
      "duration": 0.1498,
      "velocity": 111,
      "chip": "ym2612"
    },
    {
      "channel": 3,
      "note": 26,
      "start": 29.4528,
      "duration": 0.1508,
      "velocity": 127,
      "chip": "ym2612"
    },
    {
      "channel": 0,
      "note": 45,
      "start": 29.6006,
      "duration": 0.1665,
      "velocity": 111,
      "chip": "ym2612"
    },
    {
      "channel": 1,
      "note": 86,
      "start": 29.6011,
      "duration": 0.0827,
      "velocity": 94,
      "chip": "ym2612"
    },
    {
      "channel": 2,
      "note": 81,
      "start": 29.6017,
      "duration": 0.0827,
      "velocity": 94,
      "chip": "ym2612"
    },
    {
      "channel": 3,
      "note": 31,
      "start": 29.6038,
      "duration": 0.081,
      "velocity": 127,
      "chip": "ym2612"
    },
    {
      "channel": 1,
      "note": 84,
      "start": 29.684,
      "duration": 0.0837,
      "velocity": 94,
      "chip": "ym2612"
    },
    {
      "channel": 2,
      "note": 79,
      "start": 29.6845,
      "duration": 0.0837,
      "velocity": 94,
      "chip": "ym2612"
    },
    {
      "channel": 3,
      "note": 31,
      "start": 29.6851,
      "duration": 0.0852,
      "velocity": 127,
      "chip": "ym2612"
    },
    {
      "channel": 0,
      "note": 40,
      "start": 29.7673,
      "duration": 0.1665,
      "velocity": 111,
      "chip": "ym2612"
    },
    {
      "channel": 1,
      "note": 79,
      "start": 29.7678,
      "duration": 0.0827,
      "velocity": 94,
      "chip": "ym2612"
    },
    {
      "channel": 2,
      "note": 77,
      "start": 29.7683,
      "duration": 0.0827,
      "velocity": 94,
      "chip": "ym2612"
    },
    {
      "channel": 3,
      "note": 21,
      "start": 29.7705,
      "duration": 0.1655,
      "velocity": 127,
      "chip": "ym2612"
    },
    {
      "channel": 1,
      "note": 77,
      "start": 29.8507,
      "duration": 0.2337,
      "velocity": 94,
      "chip": "ym2612"
    },
    {
      "channel": 2,
      "note": 74,
      "start": 29.8512,
      "duration": 0.2337,
      "velocity": 94,
      "chip": "ym2612"
    },
    {
      "channel": 0,
      "note": 47,
      "start": 29.9339,
      "duration": 0.1498,
      "velocity": 111,
      "chip": "ym2612"
    },
    {
      "channel": 3,
      "note": 31,
      "start": 29.9361,
      "duration": 0.0676,
      "velocity": 127,
      "chip": "ym2612"
    },
    {
      "channel": 3,
      "note": 26,
      "start": 30.0039,
      "duration": 0.0815,
      "velocity": 127,
      "chip": "ym2612"
    },
    {
      "channel": 0,
      "note": 41,
      "start": 30.0839,
      "duration": 0.1665,
      "velocity": 111,
      "chip": "ym2612"
    },
    {
      "channel": 1,
      "note": 86,
      "start": 30.0844,
      "duration": 0.0827,
      "velocity": 94,
      "chip": "ym2612"
    },
    {
      "channel": 2,
      "note": 81,
      "start": 30.085,
      "duration": 0.0827,
      "velocity": 94,
      "chip": "ym2612"
    },
    {
      "channel": 3,
      "note": 26,
      "start": 30.0856,
      "duration": 0.1665,
      "velocity": 127,
      "chip": "ym2612"
    },
    {
      "channel": 1,
      "note": 84,
      "start": 30.1673,
      "duration": 0.0837,
      "velocity": 94,
      "chip": "ym2612"
    },
    {
      "channel": 2,
      "note": 79,
      "start": 30.1678,
      "duration": 0.0837,
      "velocity": 94,
      "chip": "ym2612"
    },
    {
      "channel": 0,
      "note": 48,
      "start": 30.2506,
      "duration": 0.1498,
      "velocity": 111,
      "chip": "ym2612"
    },
    {
      "channel": 1,
      "note": 79,
      "start": 30.2511,
      "duration": 0.0827,
      "velocity": 94,
      "chip": "ym2612"
    },
    {
      "channel": 2,
      "note": 77,
      "start": 30.2517,
      "duration": 0.0827,
      "velocity": 94,
      "chip": "ym2612"
    },
    {
      "channel": 3,
      "note": 26,
      "start": 30.2522,
      "duration": 0.1514,
      "velocity": 127,
      "chip": "ym2612"
    },
    {
      "channel": 1,
      "note": 77,
      "start": 30.334,
      "duration": 0.067,
      "velocity": 94,
      "chip": "ym2612"
    },
    {
      "channel": 2,
      "note": 74,
      "start": 30.3345,
      "duration": 0.067,
      "velocity": 94,
      "chip": "ym2612"
    },
    {
      "channel": 0,
      "note": 43,
      "start": 30.4006,
      "duration": 0.1665,
      "velocity": 111,
      "chip": "ym2612"
    },
    {
      "channel": 1,
      "note": 86,
      "start": 30.4011,
      "duration": 0.0827,
      "velocity": 94,
      "chip": "ym2612"
    },
    {
      "channel": 2,
      "note": 81,
      "start": 30.4017,
      "duration": 0.0827,
      "velocity": 94,
      "chip": "ym2612"
    },
    {
      "channel": 3,
      "note": 21,
      "start": 30.4038,
      "duration": 0.081,
      "velocity": 127,
      "chip": "ym2612"
    },
    {
      "channel": 1,
      "note": 84,
      "start": 30.484,
      "duration": 0.0837,
      "velocity": 94,
      "chip": "ym2612"
    },
    {
      "channel": 2,
      "note": 79,
      "start": 30.4845,
      "duration": 0.0837,
      "velocity": 94,
      "chip": "ym2612"
    },
    {
      "channel": 3,
      "note": 21,
      "start": 30.4851,
      "duration": 0.0837,
      "velocity": 127,
      "chip": "ym2612"
    },
    {
      "channel": 0,
      "note": 50,
      "start": 30.5673,
      "duration": 0.1666,
      "velocity": 111,
      "chip": "ym2612"
    },
    {
      "channel": 1,
      "note": 79,
      "start": 30.5678,
      "duration": 0.0827,
      "velocity": 94,
      "chip": "ym2612"
    },
    {
      "channel": 2,
      "note": 77,
      "start": 30.5683,
      "duration": 0.0827,
      "velocity": 94,
      "chip": "ym2612"
    },
    {
      "channel": 3,
      "note": 21,
      "start": 30.5689,
      "duration": 0.1714,
      "velocity": 127,
      "chip": "ym2612"
    },
    {
      "channel": 1,
      "note": 77,
      "start": 30.6507,
      "duration": 0.0854,
      "velocity": 118,
      "chip": "ym2612"
    },
    {
      "channel": 2,
      "note": 74,
      "start": 30.6512,
      "duration": 0.087,
      "velocity": 118,
      "chip": "ym2612"
    },
    {
      "channel": 0,
      "note": 38,
      "start": 30.7341,
      "duration": 0.1497,
      "velocity": 111,
      "chip": "ym2612"
    },
    {
      "channel": 1,
      "note": 50,
      "start": 30.7362,
      "duration": 0.0643,
      "velocity": 118,
      "chip": "ym2612"
    },
    {
      "channel": 2,
      "note": 67,
      "start": 30.7383,
      "duration": 0.1461,
      "velocity": 118,
      "chip": "ym2612"
    },
    {
      "channel": 3,
      "note": 26,
      "start": 30.7405,
      "duration": 0.1461,
      "velocity": 127,
      "chip": "ym2612"
    },
    {
      "channel": 1,
      "note": 62,
      "start": 30.8007,
      "duration": 0.1665,
      "velocity": 118,
      "chip": "ym2612"
    },
    {
      "channel": 0,
      "note": 38,
      "start": 30.8839,
      "duration": 0.1665,
      "velocity": 111,
      "chip": "ym2612"
    },
    {
      "channel": 2,
      "note": 65,
      "start": 30.8846,
      "duration": 0.1669,
      "velocity": 118,
      "chip": "ym2612"
    },
    {
      "channel": 3,
      "note": 31,
      "start": 30.8867,
      "duration": 0.081,
      "velocity": 127,
      "chip": "ym2612"
    },
    {
      "channel": 1,
      "note": 48,
      "start": 30.9673,
      "duration": 0.0837,
      "velocity": 118,
      "chip": "ym2612"
    },
    {
      "channel": 3,
      "note": 31,
      "start": 30.9679,
      "duration": 0.0858,
      "velocity": 127,
      "chip": "ym2612"
    },
    {
      "channel": 0,
      "note": 36,
      "start": 31.0506,
      "duration": 0.1498,
      "velocity": 111,
      "chip": "ym2612"
    },
    {
      "channel": 1,
      "note": 60,
      "start": 31.0511,
      "duration": 0.1499,
      "velocity": 118,
      "chip": "ym2612"
    },
    {
      "channel": 2,
      "note": 62,
      "start": 31.0517,
      "duration": 0.1499,
      "velocity": 118,
      "chip": "ym2612"
    },
    {
      "channel": 3,
      "note": 21,
      "start": 31.0538,
      "duration": 0.1498,
      "velocity": 127,
      "chip": "ym2612"
    },
    {
      "channel": 0,
      "note": 38,
      "start": 31.2006,
      "duration": 0.1665,
      "velocity": 111,
      "chip": "ym2612"
    },
    {
      "channel": 1,
      "note": 45,
      "start": 31.2012,
      "duration": 0.0827,
      "velocity": 118,
      "chip": "ym2612"
    },
    {
      "channel": 2,
      "note": 60,
      "start": 31.2017,
      "duration": 0.0827,
      "velocity": 118,
      "chip": "ym2612"
    },
    {
      "channel": 3,
      "note": 31,
      "start": 31.2038,
      "duration": 0.0826,
      "velocity": 127,
      "chip": "ym2612"
    },
    {
      "channel": 1,
      "note": 57,
      "start": 31.284,
      "duration": 0.0837,
      "velocity": 118,
      "chip": "ym2612"
    },
    {
      "channel": 2,
      "note": 67,
      "start": 31.2845,
      "duration": 0.1666,
      "velocity": 118,
      "chip": "ym2612"
    },
    {
      "channel": 3,
      "note": 26,
      "start": 31.2867,
      "duration": 0.0815,
      "velocity": 127,
      "chip": "ym2612"
    },
    {
      "channel": 0,
      "note": 38,
      "start": 31.3673,
      "duration": 0.1665,
      "velocity": 111,
      "chip": "ym2612"
    },
    {
      "channel": 1,
      "note": 50,
      "start": 31.3678,
      "duration": 0.0827,
      "velocity": 118,
      "chip": "ym2612"
    },
    {
      "channel": 3,
      "note": 26,
      "start": 31.3684,
      "duration": 0.1665,
      "velocity": 127,
      "chip": "ym2612"
    },
    {
      "channel": 1,
      "note": 62,
      "start": 31.4507,
      "duration": 0.1498,
      "velocity": 118,
      "chip": "ym2612"
    },
    {
      "channel": 2,
      "note": 67,
      "start": 31.4512,
      "duration": 0.0832,
      "velocity": 118,
      "chip": "ym2612"
    },
    {
      "channel": 0,
      "note": 36,
      "start": 31.5339,
      "duration": 0.1498,
      "velocity": 111,
      "chip": "ym2612"
    },
    {
      "channel": 2,
      "note": 65,
      "start": 31.5345,
      "duration": 0.1504,
      "velocity": 118,
      "chip": "ym2612"
    },
    {
      "channel": 3,
      "note": 26,
      "start": 31.5351,
      "duration": 0.1519,
      "velocity": 127,
      "chip": "ym2612"
    },
    {
      "channel": 1,
      "note": 48,
      "start": 31.6007,
      "duration": 0.0837,
      "velocity": 118,
      "chip": "ym2612"
    },
    {
      "channel": 0,
      "note": 38,
      "start": 31.6839,
      "duration": 0.1665,
      "velocity": 111,
      "chip": "ym2612"
    },
    {
      "channel": 1,
      "note": 60,
      "start": 31.6845,
      "duration": 0.1665,
      "velocity": 118,
      "chip": "ym2612"
    },
    {
      "channel": 2,
      "note": 62,
      "start": 31.685,
      "duration": 0.1665,
      "velocity": 118,
      "chip": "ym2612"
    },
    {
      "channel": 3,
      "note": 21,
      "start": 31.6872,
      "duration": 0.1665,
      "velocity": 127,
      "chip": "ym2612"
    },
    {
      "channel": 0,
      "note": 36,
      "start": 31.8506,
      "duration": 0.1498,
      "velocity": 111,
      "chip": "ym2612"
    },
    {
      "channel": 1,
      "note": 45,
      "start": 31.8512,
      "duration": 0.0827,
      "velocity": 118,
      "chip": "ym2612"
    },
    {
      "channel": 2,
      "note": 60,
      "start": 31.8517,
      "duration": 0.1499,
      "velocity": 118,
      "chip": "ym2612"
    },
    {
      "channel": 3,
      "note": 31,
      "start": 31.8538,
      "duration": 0.0806,
      "velocity": 127,
      "chip": "ym2612"
    },
    {
      "channel": 1,
      "note": 57,
      "start": 31.934,
      "duration": 0.067,
      "velocity": 118,
      "chip": "ym2612"
    },
    {
      "channel": 3,
      "note": 31,
      "start": 31.9346,
      "duration": 0.0691,
      "velocity": 127,
      "chip": "ym2612"
    },
    {
      "channel": 0,
      "note": 38,
      "start": 32.0006,
      "duration": 0.1665,
      "velocity": 111,
      "chip": "ym2612"
    },
    {
      "channel": 1,
      "note": 50,
      "start": 32.0012,
      "duration": 0.0827,
      "velocity": 118,
      "chip": "ym2612"
    },
    {
      "channel": 2,
      "note": 67,
      "start": 32.0017,
      "duration": 0.166,
      "velocity": 118,
      "chip": "ym2612"
    },
    {
      "channel": 3,
      "note": 26,
      "start": 32.0038,
      "duration": 0.166,
      "velocity": 127,
      "chip": "ym2612"
    },
    {
      "channel": 1,
      "note": 62,
      "start": 32.084,
      "duration": 0.1665,
      "velocity": 118,
      "chip": "ym2612"
    },
    {
      "channel": 0,
      "note": 38,
      "start": 32.1673,
      "duration": 0.1665,
      "velocity": 111,
      "chip": "ym2612"
    },
    {
      "channel": 2,
      "note": 65,
      "start": 32.1678,
      "duration": 0.167,
      "velocity": 118,
      "chip": "ym2612"
    },
    {
      "channel": 3,
      "note": 31,
      "start": 32.17,
      "duration": 0.0811,
      "velocity": 127,
      "chip": "ym2612"
    },
    {
      "channel": 1,
      "note": 48,
      "start": 32.2507,
      "duration": 0.0837,
      "velocity": 118,
      "chip": "ym2612"
    },
    {
      "channel": 3,
      "note": 31,
      "start": 32.2513,
      "duration": 0.0857,
      "velocity": 127,
      "chip": "ym2612"
    },
    {
      "channel": 0,
      "note": 36,
      "start": 32.3339,
      "duration": 0.1498,
      "velocity": 111,
      "chip": "ym2612"
    },
    {
      "channel": 1,
      "note": 60,
      "start": 32.3344,
      "duration": 0.1499,
      "velocity": 118,
      "chip": "ym2612"
    },
    {
      "channel": 2,
      "note": 62,
      "start": 32.335,
      "duration": 0.1499,
      "velocity": 118,
      "chip": "ym2612"
    },
    {
      "channel": 3,
      "note": 21,
      "start": 32.3372,
      "duration": 0.1498,
      "velocity": 127,
      "chip": "ym2612"
    },
    {
      "channel": 0,
      "note": 38,
      "start": 32.4839,
      "duration": 0.1665,
      "velocity": 111,
      "chip": "ym2612"
    },
    {
      "channel": 1,
      "note": 45,
      "start": 32.4845,
      "duration": 0.0827,
      "velocity": 118,
      "chip": "ym2612"
    },
    {
      "channel": 2,
      "note": 60,
      "start": 32.485,
      "duration": 0.0827,
      "velocity": 118,
      "chip": "ym2612"
    },
    {
      "channel": 3,
      "note": 31,
      "start": 32.4872,
      "duration": 0.0826,
      "velocity": 127,
      "chip": "ym2612"
    },
    {
      "channel": 1,
      "note": 57,
      "start": 32.5673,
      "duration": 0.0837,
      "velocity": 118,
      "chip": "ym2612"
    },
    {
      "channel": 2,
      "note": 67,
      "start": 32.5678,
      "duration": 0.1666,
      "velocity": 118,
      "chip": "ym2612"
    },
    {
      "channel": 3,
      "note": 26,
      "start": 32.57,
      "duration": 0.0815,
      "velocity": 127,
      "chip": "ym2612"
    },
    {
      "channel": 0,
      "note": 38,
      "start": 32.6506,
      "duration": 0.1498,
      "velocity": 111,
      "chip": "ym2612"
    },
    {
      "channel": 1,
      "note": 50,
      "start": 32.6511,
      "duration": 0.0827,
      "velocity": 118,
      "chip": "ym2612"
    },
    {
      "channel": 3,
      "note": 26,
      "start": 32.6517,
      "duration": 0.1498,
      "velocity": 127,
      "chip": "ym2612"
    },
    {
      "channel": 1,
      "note": 62,
      "start": 32.734,
      "duration": 0.1498,
      "velocity": 118,
      "chip": "ym2612"
    },
    {
      "channel": 2,
      "note": 67,
      "start": 32.7345,
      "duration": 0.0666,
      "velocity": 118,
      "chip": "ym2612"
    },
    {
      "channel": 0,
      "note": 36,
      "start": 32.8006,
      "duration": 0.1665,
      "velocity": 111,
      "chip": "ym2612"
    },
    {
      "channel": 2,
      "note": 65,
      "start": 32.8012,
      "duration": 0.167,
      "velocity": 118,
      "chip": "ym2612"
    },
    {
      "channel": 3,
      "note": 26,
      "start": 32.8017,
      "duration": 0.1686,
      "velocity": 127,
      "chip": "ym2612"
    },
    {
      "channel": 1,
      "note": 48,
      "start": 32.884,
      "duration": 0.0837,
      "velocity": 118,
      "chip": "ym2612"
    },
    {
      "channel": 0,
      "note": 38,
      "start": 32.9673,
      "duration": 0.1665,
      "velocity": 111,
      "chip": "ym2612"
    },
    {
      "channel": 1,
      "note": 60,
      "start": 32.9678,
      "duration": 0.1665,
      "velocity": 118,
      "chip": "ym2612"
    },
    {
      "channel": 2,
      "note": 62,
      "start": 32.9683,
      "duration": 0.1665,
      "velocity": 118,
      "chip": "ym2612"
    },
    {
      "channel": 3,
      "note": 21,
      "start": 32.9705,
      "duration": 0.1665,
      "velocity": 127,
      "chip": "ym2612"
    },
    {
      "channel": 0,
      "note": 36,
      "start": 33.1339,
      "duration": 0.1498,
      "velocity": 111,
      "chip": "ym2612"
    },
    {
      "channel": 1,
      "note": 45,
      "start": 33.1345,
      "duration": 0.066,
      "velocity": 118,
      "chip": "ym2612"
    },
    {
      "channel": 2,
      "note": 60,
      "start": 33.135,
      "duration": 0.1498,
      "velocity": 118,
      "chip": "ym2612"
    },
    {
      "channel": 3,
      "note": 31,
      "start": 33.1372,
      "duration": 0.0639,
      "velocity": 127,
      "chip": "ym2612"
    },
    {
      "channel": 1,
      "note": 57,
      "start": 33.2007,
      "duration": 0.0837,
      "velocity": 118,
      "chip": "ym2612"
    },
    {
      "channel": 3,
      "note": 31,
      "start": 33.2012,
      "duration": 0.0858,
      "velocity": 127,
      "chip": "ym2612"
    },
    {
      "channel": 0,
      "note": 38,
      "start": 33.2839,
      "duration": 0.1665,
      "velocity": 111,
      "chip": "ym2612"
    },
    {
      "channel": 1,
      "note": 50,
      "start": 33.2844,
      "duration": 0.0827,
      "velocity": 118,
      "chip": "ym2612"
    },
    {
      "channel": 2,
      "note": 69,
      "start": 33.285,
      "duration": 0.166,
      "velocity": 118,
      "chip": "ym2612"
    },
    {
      "channel": 3,
      "note": 26,
      "start": 33.2872,
      "duration": 0.166,
      "velocity": 127,
      "chip": "ym2612"
    },
    {
      "channel": 1,
      "note": 62,
      "start": 33.3673,
      "duration": 0.1665,
      "velocity": 118,
      "chip": "ym2612"
    },
    {
      "channel": 0,
      "note": 38,
      "start": 33.4506,
      "duration": 0.1498,
      "velocity": 111,
      "chip": "ym2612"
    },
    {
      "channel": 2,
      "note": 67,
      "start": 33.4512,
      "duration": 0.1504,
      "velocity": 118,
      "chip": "ym2612"
    },
    {
      "channel": 3,
      "note": 31,
      "start": 33.4533,
      "duration": 0.0811,
      "velocity": 127,
      "chip": "ym2612"
    },
    {
      "channel": 1,
      "note": 48,
      "start": 33.534,
      "duration": 0.067,
      "velocity": 118,
      "chip": "ym2612"
    },
    {
      "channel": 3,
      "note": 31,
      "start": 33.5346,
      "duration": 0.0691,
      "velocity": 127,
      "chip": "ym2612"
    },
    {
      "channel": 0,
      "note": 36,
      "start": 33.6006,
      "duration": 0.1665,
      "velocity": 111,
      "chip": "ym2612"
    },
    {
      "channel": 1,
      "note": 60,
      "start": 33.6012,
      "duration": 0.1665,
      "velocity": 118,
      "chip": "ym2612"
    },
    {
      "channel": 2,
      "note": 65,
      "start": 33.6017,
      "duration": 0.1665,
      "velocity": 118,
      "chip": "ym2612"
    },
    {
      "channel": 3,
      "note": 21,
      "start": 33.6038,
      "duration": 0.1665,
      "velocity": 127,
      "chip": "ym2612"
    },
    {
      "channel": 0,
      "note": 38,
      "start": 33.7673,
      "duration": 0.1665,
      "velocity": 111,
      "chip": "ym2612"
    },
    {
      "channel": 1,
      "note": 45,
      "start": 33.7678,
      "duration": 0.0827,
      "velocity": 118,
      "chip": "ym2612"
    },
    {
      "channel": 2,
      "note": 62,
      "start": 33.7683,
      "duration": 0.0827,
      "velocity": 118,
      "chip": "ym2612"
    },
    {
      "channel": 3,
      "note": 31,
      "start": 33.7705,
      "duration": 0.0826,
      "velocity": 127,
      "chip": "ym2612"
    },
    {
      "channel": 1,
      "note": 57,
      "start": 33.8507,
      "duration": 0.0837,
      "velocity": 118,
      "chip": "ym2612"
    },
    {
      "channel": 2,
      "note": 69,
      "start": 33.8512,
      "duration": 0.1499,
      "velocity": 118,
      "chip": "ym2612"
    },
    {
      "channel": 3,
      "note": 26,
      "start": 33.8533,
      "duration": 0.0816,
      "velocity": 127,
      "chip": "ym2612"
    },
    {
      "channel": 0,
      "note": 38,
      "start": 33.9339,
      "duration": 0.1498,
      "velocity": 111,
      "chip": "ym2612"
    },
    {
      "channel": 1,
      "note": 50,
      "start": 33.9345,
      "duration": 0.066,
      "velocity": 118,
      "chip": "ym2612"
    },
    {
      "channel": 3,
      "note": 26,
      "start": 33.9351,
      "duration": 0.1498,
      "velocity": 127,
      "chip": "ym2612"
    },
    {
      "channel": 1,
      "note": 62,
      "start": 34.0007,
      "duration": 0.1665,
      "velocity": 118,
      "chip": "ym2612"
    },
    {
      "channel": 2,
      "note": 69,
      "start": 34.0012,
      "duration": 0.0832,
      "velocity": 118,
      "chip": "ym2612"
    },
    {
      "channel": 0,
      "note": 36,
      "start": 34.0839,
      "duration": 0.1665,
      "velocity": 111,
      "chip": "ym2612"
    },
    {
      "channel": 2,
      "note": 67,
      "start": 34.0845,
      "duration": 0.1671,
      "velocity": 118,
      "chip": "ym2612"
    },
    {
      "channel": 3,
      "note": 26,
      "start": 34.0851,
      "duration": 0.1686,
      "velocity": 127,
      "chip": "ym2612"
    },
    {
      "channel": 1,
      "note": 48,
      "start": 34.1673,
      "duration": 0.0837,
      "velocity": 118,
      "chip": "ym2612"
    },
    {
      "channel": 0,
      "note": 38,
      "start": 34.2506,
      "duration": 0.1498,
      "velocity": 111,
      "chip": "ym2612"
    },
    {
      "channel": 1,
      "note": 60,
      "start": 34.2512,
      "duration": 0.1498,
      "velocity": 118,
      "chip": "ym2612"
    },
    {
      "channel": 2,
      "note": 65,
      "start": 34.2517,
      "duration": 0.1499,
      "velocity": 118,
      "chip": "ym2612"
    },
    {
      "channel": 3,
      "note": 21,
      "start": 34.2538,
      "duration": 0.1498,
      "velocity": 127,
      "chip": "ym2612"
    },
    {
      "channel": 0,
      "note": 36,
      "start": 34.4006,
      "duration": 0.1665,
      "velocity": 111,
      "chip": "ym2612"
    },
    {
      "channel": 1,
      "note": 45,
      "start": 34.4012,
      "duration": 0.0827,
      "velocity": 118,
      "chip": "ym2612"
    },
    {
      "channel": 2,
      "note": 60,
      "start": 34.4017,
      "duration": 0.1665,
      "velocity": 118,
      "chip": "ym2612"
    },
    {
      "channel": 3,
      "note": 31,
      "start": 34.4038,
      "duration": 0.0806,
      "velocity": 127,
      "chip": "ym2612"
    },
    {
      "channel": 1,
      "note": 57,
      "start": 34.484,
      "duration": 0.0837,
      "velocity": 118,
      "chip": "ym2612"
    },
    {
      "channel": 3,
      "note": 31,
      "start": 34.4846,
      "duration": 0.0857,
      "velocity": 127,
      "chip": "ym2612"
    },
    {
      "channel": 0,
      "note": 38,
      "start": 34.5673,
      "duration": 0.1665,
      "velocity": 111,
      "chip": "ym2612"
    },
    {
      "channel": 1,
      "note": 50,
      "start": 34.5678,
      "duration": 0.0827,
      "velocity": 118,
      "chip": "ym2612"
    },
    {
      "channel": 2,
      "note": 69,
      "start": 34.5683,
      "duration": 0.166,
      "velocity": 118,
      "chip": "ym2612"
    },
    {
      "channel": 3,
      "note": 26,
      "start": 34.5705,
      "duration": 0.166,
      "velocity": 127,
      "chip": "ym2612"
    },
    {
      "channel": 1,
      "note": 62,
      "start": 34.6507,
      "duration": 0.1498,
      "velocity": 118,
      "chip": "ym2612"
    },
    {
      "channel": 0,
      "note": 45,
      "start": 34.7339,
      "duration": 0.1498,
      "velocity": 111,
      "chip": "ym2612"
    },
    {
      "channel": 2,
      "note": 67,
      "start": 34.7345,
      "duration": 0.1503,
      "velocity": 118,
      "chip": "ym2612"
    },
    {
      "channel": 3,
      "note": 31,
      "start": 34.7367,
      "duration": 0.0644,
      "velocity": 127,
      "chip": "ym2612"
    },
    {
      "channel": 1,
      "note": 48,
      "start": 34.8007,
      "duration": 0.0837,
      "velocity": 118,
      "chip": "ym2612"
    },
    {
      "channel": 3,
      "note": 31,
      "start": 34.8012,
      "duration": 0.0858,
      "velocity": 127,
      "chip": "ym2612"
    },
    {
      "channel": 0,
      "note": 40,
      "start": 34.8839,
      "duration": 0.1665,
      "velocity": 111,
      "chip": "ym2612"
    },
    {
      "channel": 1,
      "note": 60,
      "start": 34.8844,
      "duration": 0.1665,
      "velocity": 118,
      "chip": "ym2612"
    },
    {
      "channel": 2,
      "note": 65,
      "start": 34.885,
      "duration": 0.1665,
      "velocity": 118,
      "chip": "ym2612"
    },
    {
      "channel": 3,
      "note": 21,
      "start": 34.8872,
      "duration": 0.1665,
      "velocity": 127,
      "chip": "ym2612"
    },
    {
      "channel": 0,
      "note": 47,
      "start": 35.0506,
      "duration": 0.1498,
      "velocity": 111,
      "chip": "ym2612"
    },
    {
      "channel": 1,
      "note": 45,
      "start": 35.0512,
      "duration": 0.0827,
      "velocity": 118,
      "chip": "ym2612"
    },
    {
      "channel": 2,
      "note": 62,
      "start": 35.0517,
      "duration": 0.0827,
      "velocity": 118,
      "chip": "ym2612"
    },
    {
      "channel": 3,
      "note": 31,
      "start": 35.0538,
      "duration": 0.0826,
      "velocity": 127,
      "chip": "ym2612"
    },
    {
      "channel": 1,
      "note": 57,
      "start": 35.134,
      "duration": 0.067,
      "velocity": 118,
      "chip": "ym2612"
    },
    {
      "channel": 2,
      "note": 69,
      "start": 35.1345,
      "duration": 0.1499,
      "velocity": 118,
      "chip": "ym2612"
    },
    {
      "channel": 3,
      "note": 26,
      "start": 35.1367,
      "duration": 0.0649,
      "velocity": 127,
      "chip": "ym2612"
    },
    {
      "channel": 0,
      "note": 41,
      "start": 35.2006,
      "duration": 0.1665,
      "velocity": 111,
      "chip": "ym2612"
    },
    {
      "channel": 1,
      "note": 50,
      "start": 35.2011,
      "duration": 0.0827,
      "velocity": 118,
      "chip": "ym2612"
    },
    {
      "channel": 3,
      "note": 26,
      "start": 35.2017,
      "duration": 0.1665,
      "velocity": 127,
      "chip": "ym2612"
    },
    {
      "channel": 1,
      "note": 62,
      "start": 35.284,
      "duration": 0.1665,
      "velocity": 118,
      "chip": "ym2612"
    },
    {
      "channel": 2,
      "note": 69,
      "start": 35.2845,
      "duration": 0.0832,
      "velocity": 118,
      "chip": "ym2612"
    },
    {
      "channel": 0,
      "note": 48,
      "start": 35.3673,
      "duration": 0.1665,
      "velocity": 111,
      "chip": "ym2612"
    },
    {
      "channel": 2,
      "note": 67,
      "start": 35.3678,
      "duration": 0.167,
      "velocity": 118,
      "chip": "ym2612"
    },
    {
      "channel": 3,
      "note": 26,
      "start": 35.3684,
      "duration": 0.1686,
      "velocity": 127,
      "chip": "ym2612"
    },
    {
      "channel": 1,
      "note": 48,
      "start": 35.4507,
      "duration": 0.0837,
      "velocity": 118,
      "chip": "ym2612"
    },
    {
      "channel": 0,
      "note": 43,
      "start": 35.5339,
      "duration": 0.1498,
      "velocity": 111,
      "chip": "ym2612"
    },
    {
      "channel": 1,
      "note": 60,
      "start": 35.5344,
      "duration": 0.1499,
      "velocity": 118,
      "chip": "ym2612"
    },
    {
      "channel": 2,
      "note": 65,
      "start": 35.535,
      "duration": 0.1499,
      "velocity": 118,
      "chip": "ym2612"
    },
    {
      "channel": 3,
      "note": 21,
      "start": 35.5372,
      "duration": 0.0634,
      "velocity": 127,
      "chip": "ym2612"
    },
    {
      "channel": 3,
      "note": 21,
      "start": 35.6008,
      "duration": 0.0846,
      "velocity": 127,
      "chip": "ym2612"
    },
    {
      "channel": 0,
      "note": 50,
      "start": 35.6839,
      "duration": 0.1666,
      "velocity": 111,
      "chip": "ym2612"
    },
    {
      "channel": 1,
      "note": 45,
      "start": 35.6845,
      "duration": 0.0827,
      "velocity": 118,
      "chip": "ym2612"
    },
    {
      "channel": 2,
      "note": 62,
      "start": 35.685,
      "duration": 0.1667,
      "velocity": 118,
      "chip": "ym2612"
    },
    {
      "channel": 3,
      "note": 21,
      "start": 35.6856,
      "duration": 0.1683,
      "velocity": 127,
      "chip": "ym2612"
    },
    {
      "channel": 1,
      "note": 57,
      "start": 35.7673,
      "duration": 0.0838,
      "velocity": 118,
      "chip": "ym2612"
    },
    {
      "channel": 0,
      "note": 43,
      "start": 35.8507,
      "duration": 0.1497,
      "velocity": 111,
      "chip": "ym2612"
    },
    {
      "channel": 1,
      "note": 50,
      "start": 35.8513,
      "duration": 0.0825,
      "velocity": 118,
      "chip": "ym2612"
    },
    {
      "channel": 2,
      "note": 67,
      "start": 35.8519,
      "duration": 0.1492,
      "velocity": 118,
      "chip": "ym2612"
    },
    {
      "channel": 3,
      "note": 26,
      "start": 35.8541,
      "duration": 0.1491,
      "velocity": 127,
      "chip": "ym2612"
    },
    {
      "channel": 1,
      "note": 62,
      "start": 35.934,
      "duration": 0.1498,
      "velocity": 118,
      "chip": "ym2612"
    },
    {
      "channel": 0,
      "note": 43,
      "start": 36.0006,
      "duration": 0.1665,
      "velocity": 111,
      "chip": "ym2612"
    },
    {
      "channel": 2,
      "note": 65,
      "start": 36.0012,
      "duration": 0.1669,
      "velocity": 118,
      "chip": "ym2612"
    },
    {
      "channel": 3,
      "note": 31,
      "start": 36.0034,
      "duration": 0.081,
      "velocity": 127,
      "chip": "ym2612"
    },
    {
      "channel": 1,
      "note": 48,
      "start": 36.084,
      "duration": 0.0837,
      "velocity": 118,
      "chip": "ym2612"
    },
    {
      "channel": 3,
      "note": 31,
      "start": 36.0846,
      "duration": 0.0858,
      "velocity": 127,
      "chip": "ym2612"
    },
    {
      "channel": 0,
      "note": 55,
      "start": 36.1673,
      "duration": 0.1665,
      "velocity": 111,
      "chip": "ym2612"
    },
    {
      "channel": 1,
      "note": 60,
      "start": 36.1678,
      "duration": 0.1665,
      "velocity": 118,
      "chip": "ym2612"
    },
    {
      "channel": 2,
      "note": 62,
      "start": 36.1683,
      "duration": 0.1665,
      "velocity": 118,
      "chip": "ym2612"
    },
    {
      "channel": 3,
      "note": 21,
      "start": 36.1705,
      "duration": 0.1665,
      "velocity": 127,
      "chip": "ym2612"
    },
    {
      "channel": 0,
      "note": 43,
      "start": 36.3339,
      "duration": 0.1498,
      "velocity": 111,
      "chip": "ym2612"
    },
    {
      "channel": 1,
      "note": 45,
      "start": 36.3344,
      "duration": 0.066,
      "velocity": 118,
      "chip": "ym2612"
    },
    {
      "channel": 2,
      "note": 60,
      "start": 36.335,
      "duration": 0.066,
      "velocity": 118,
      "chip": "ym2612"
    },
    {
      "channel": 3,
      "note": 31,
      "start": 36.3372,
      "duration": 0.066,
      "velocity": 127,
      "chip": "ym2612"
    },
    {
      "channel": 1,
      "note": 57,
      "start": 36.4007,
      "duration": 0.0837,
      "velocity": 118,
      "chip": "ym2612"
    },
    {
      "channel": 2,
      "note": 67,
      "start": 36.4012,
      "duration": 0.1666,
      "velocity": 118,
      "chip": "ym2612"
    },
    {
      "channel": 3,
      "note": 26,
      "start": 36.4033,
      "duration": 0.0815,
      "velocity": 127,
      "chip": "ym2612"
    },
    {
      "channel": 0,
      "note": 43,
      "start": 36.4839,
      "duration": 0.1665,
      "velocity": 111,
      "chip": "ym2612"
    },
    {
      "channel": 1,
      "note": 50,
      "start": 36.4844,
      "duration": 0.0827,
      "velocity": 118,
      "chip": "ym2612"
    },
    {
      "channel": 3,
      "note": 26,
      "start": 36.4851,
      "duration": 0.1665,
      "velocity": 127,
      "chip": "ym2612"
    },
    {
      "channel": 1,
      "note": 62,
      "start": 36.5673,
      "duration": 0.1665,
      "velocity": 118,
      "chip": "ym2612"
    },
    {
      "channel": 2,
      "note": 67,
      "start": 36.5678,
      "duration": 0.0832,
      "velocity": 118,
      "chip": "ym2612"
    },
    {
      "channel": 0,
      "note": 43,
      "start": 36.6506,
      "duration": 0.1498,
      "velocity": 111,
      "chip": "ym2612"
    },
    {
      "channel": 2,
      "note": 65,
      "start": 36.6512,
      "duration": 0.1504,
      "velocity": 118,
      "chip": "ym2612"
    },
    {
      "channel": 3,
      "note": 26,
      "start": 36.6517,
      "duration": 0.1519,
      "velocity": 127,
      "chip": "ym2612"
    },
    {
      "channel": 1,
      "note": 48,
      "start": 36.734,
      "duration": 0.067,
      "velocity": 118,
      "chip": "ym2612"
    },
    {
      "channel": 0,
      "note": 55,
      "start": 36.8006,
      "duration": 0.1665,
      "velocity": 111,
      "chip": "ym2612"
    },
    {
      "channel": 1,
      "note": 60,
      "start": 36.8012,
      "duration": 0.1665,
      "velocity": 118,
      "chip": "ym2612"
    },
    {
      "channel": 2,
      "note": 62,
      "start": 36.8017,
      "duration": 0.1665,
      "velocity": 118,
      "chip": "ym2612"
    },
    {
      "channel": 3,
      "note": 21,
      "start": 36.8038,
      "duration": 0.1665,
      "velocity": 127,
      "chip": "ym2612"
    },
    {
      "channel": 0,
      "note": 43,
      "start": 36.9673,
      "duration": 0.1665,
      "velocity": 111,
      "chip": "ym2612"
    },
    {
      "channel": 1,
      "note": 45,
      "start": 36.9678,
      "duration": 0.0827,
      "velocity": 118,
      "chip": "ym2612"
    },
    {
      "channel": 2,
      "note": 60,
      "start": 36.9683,
      "duration": 0.1665,
      "velocity": 118,
      "chip": "ym2612"
    },
    {
      "channel": 3,
      "note": 31,
      "start": 36.9705,
      "duration": 0.0806,
      "velocity": 127,
      "chip": "ym2612"
    },
    {
      "channel": 1,
      "note": 57,
      "start": 37.0507,
      "duration": 0.0837,
      "velocity": 118,
      "chip": "ym2612"
    },
    {
      "channel": 3,
      "note": 31,
      "start": 37.0513,
      "duration": 0.0857,
      "velocity": 127,
      "chip": "ym2612"
    },
    {
      "channel": 0,
      "note": 43,
      "start": 37.1339,
      "duration": 0.1498,
      "velocity": 111,
      "chip": "ym2612"
    },
    {
      "channel": 1,
      "note": 50,
      "start": 37.1344,
      "duration": 0.066,
      "velocity": 118,
      "chip": "ym2612"
    },
    {
      "channel": 2,
      "note": 67,
      "start": 37.135,
      "duration": 0.1494,
      "velocity": 118,
      "chip": "ym2612"
    },
    {
      "channel": 3,
      "note": 26,
      "start": 37.1372,
      "duration": 0.1493,
      "velocity": 127,
      "chip": "ym2612"
    },
    {
      "channel": 1,
      "note": 62,
      "start": 37.2007,
      "duration": 0.1665,
      "velocity": 118,
      "chip": "ym2612"
    },
    {
      "channel": 0,
      "note": 43,
      "start": 37.2839,
      "duration": 0.1665,
      "velocity": 111,
      "chip": "ym2612"
    },
    {
      "channel": 2,
      "note": 65,
      "start": 37.2845,
      "duration": 0.167,
      "velocity": 118,
      "chip": "ym2612"
    },
    {
      "channel": 3,
      "note": 31,
      "start": 37.2867,
      "duration": 0.0811,
      "velocity": 127,
      "chip": "ym2612"
    },
    {
      "channel": 1,
      "note": 48,
      "start": 37.3673,
      "duration": 0.0837,
      "velocity": 118,
      "chip": "ym2612"
    },
    {
      "channel": 3,
      "note": 31,
      "start": 37.368,
      "duration": 0.0857,
      "velocity": 127,
      "chip": "ym2612"
    },
    {
      "channel": 0,
      "note": 55,
      "start": 37.4506,
      "duration": 0.1498,
      "velocity": 111,
      "chip": "ym2612"
    },
    {
      "channel": 1,
      "note": 60,
      "start": 37.4511,
      "duration": 0.1499,
      "velocity": 118,
      "chip": "ym2612"
    },
    {
      "channel": 2,
      "note": 62,
      "start": 37.4517,
      "duration": 0.1499,
      "velocity": 118,
      "chip": "ym2612"
    },
    {
      "channel": 3,
      "note": 21,
      "start": 37.4538,
      "duration": 0.1498,
      "velocity": 127,
      "chip": "ym2612"
    },
    {
      "channel": 0,
      "note": 43,
      "start": 37.6006,
      "duration": 0.1665,
      "velocity": 111,
      "chip": "ym2612"
    },
    {
      "channel": 1,
      "note": 45,
      "start": 37.6012,
      "duration": 0.0827,
      "velocity": 118,
      "chip": "ym2612"
    },
    {
      "channel": 2,
      "note": 60,
      "start": 37.6017,
      "duration": 0.0827,
      "velocity": 118,
      "chip": "ym2612"
    },
    {
      "channel": 3,
      "note": 31,
      "start": 37.6038,
      "duration": 0.0826,
      "velocity": 127,
      "chip": "ym2612"
    },
    {
      "channel": 1,
      "note": 57,
      "start": 37.684,
      "duration": 0.0837,
      "velocity": 118,
      "chip": "ym2612"
    },
    {
      "channel": 2,
      "note": 67,
      "start": 37.6845,
      "duration": 0.1666,
      "velocity": 118,
      "chip": "ym2612"
    },
    {
      "channel": 3,
      "note": 26,
      "start": 37.6867,
      "duration": 0.0815,
      "velocity": 127,
      "chip": "ym2612"
    },
    {
      "channel": 0,
      "note": 43,
      "start": 37.7673,
      "duration": 0.1665,
      "velocity": 111,
      "chip": "ym2612"
    },
    {
      "channel": 1,
      "note": 50,
      "start": 37.7678,
      "duration": 0.0827,
      "velocity": 118,
      "chip": "ym2612"
    },
    {
      "channel": 3,
      "note": 26,
      "start": 37.7684,
      "duration": 0.1665,
      "velocity": 127,
      "chip": "ym2612"
    },
    {
      "channel": 1,
      "note": 62,
      "start": 37.8507,
      "duration": 0.1498,
      "velocity": 118,
      "chip": "ym2612"
    },
    {
      "channel": 2,
      "note": 67,
      "start": 37.8512,
      "duration": 0.0832,
      "velocity": 118,
      "chip": "ym2612"
    },
    {
      "channel": 0,
      "note": 43,
      "start": 37.9339,
      "duration": 0.1498,
      "velocity": 111,
      "chip": "ym2612"
    },
    {
      "channel": 2,
      "note": 65,
      "start": 37.9345,
      "duration": 0.1504,
      "velocity": 118,
      "chip": "ym2612"
    },
    {
      "channel": 3,
      "note": 26,
      "start": 37.9351,
      "duration": 0.1519,
      "velocity": 127,
      "chip": "ym2612"
    },
    {
      "channel": 1,
      "note": 48,
      "start": 38.0007,
      "duration": 0.0837,
      "velocity": 118,
      "chip": "ym2612"
    },
    {
      "channel": 0,
      "note": 55,
      "start": 38.0839,
      "duration": 0.1665,
      "velocity": 111,
      "chip": "ym2612"
    },
    {
      "channel": 1,
      "note": 60,
      "start": 38.0845,
      "duration": 0.1665,
      "velocity": 118,
      "chip": "ym2612"
    },
    {
      "channel": 2,
      "note": 62,
      "start": 38.085,
      "duration": 0.1665,
      "velocity": 118,
      "chip": "ym2612"
    },
    {
      "channel": 3,
      "note": 21,
      "start": 38.0872,
      "duration": 0.1665,
      "velocity": 127,
      "chip": "ym2612"
    },
    {
      "channel": 0,
      "note": 43,
      "start": 38.2506,
      "duration": 0.1498,
      "velocity": 111,
      "chip": "ym2612"
    },
    {
      "channel": 1,
      "note": 45,
      "start": 38.2512,
      "duration": 0.0827,
      "velocity": 118,
      "chip": "ym2612"
    },
    {
      "channel": 2,
      "note": 60,
      "start": 38.2517,
      "duration": 0.1499,
      "velocity": 118,
      "chip": "ym2612"
    },
    {
      "channel": 3,
      "note": 31,
      "start": 38.2538,
      "duration": 0.0806,
      "velocity": 127,
      "chip": "ym2612"
    },
    {
      "channel": 1,
      "note": 57,
      "start": 38.334,
      "duration": 0.067,
      "velocity": 118,
      "chip": "ym2612"
    },
    {
      "channel": 3,
      "note": 31,
      "start": 38.3346,
      "duration": 0.069,
      "velocity": 127,
      "chip": "ym2612"
    },
    {
      "channel": 0,
      "note": 45,
      "start": 38.4006,
      "duration": 0.1665,
      "velocity": 111,
      "chip": "ym2612"
    },
    {
      "channel": 1,
      "note": 50,
      "start": 38.4012,
      "duration": 0.0827,
      "velocity": 118,
      "chip": "ym2612"
    },
    {
      "channel": 2,
      "note": 69,
      "start": 38.4017,
      "duration": 0.166,
      "velocity": 118,
      "chip": "ym2612"
    },
    {
      "channel": 3,
      "note": 26,
      "start": 38.4038,
      "duration": 0.166,
      "velocity": 127,
      "chip": "ym2612"
    },
    {
      "channel": 1,
      "note": 62,
      "start": 38.484,
      "duration": 0.1665,
      "velocity": 118,
      "chip": "ym2612"
    },
    {
      "channel": 0,
      "note": 45,
      "start": 38.5673,
      "duration": 0.1665,
      "velocity": 111,
      "chip": "ym2612"
    },
    {
      "channel": 2,
      "note": 67,
      "start": 38.5678,
      "duration": 0.167,
      "velocity": 118,
      "chip": "ym2612"
    },
    {
      "channel": 3,
      "note": 31,
      "start": 38.57,
      "duration": 0.0811,
      "velocity": 127,
      "chip": "ym2612"
    },
    {
      "channel": 1,
      "note": 48,
      "start": 38.6507,
      "duration": 0.0837,
      "velocity": 118,
      "chip": "ym2612"
    },
    {
      "channel": 3,
      "note": 31,
      "start": 38.6512,
      "duration": 0.0858,
      "velocity": 127,
      "chip": "ym2612"
    },
    {
      "channel": 0,
      "note": 57,
      "start": 38.7339,
      "duration": 0.1498,
      "velocity": 111,
      "chip": "ym2612"
    },
    {
      "channel": 1,
      "note": 60,
      "start": 38.7344,
      "duration": 0.1499,
      "velocity": 118,
      "chip": "ym2612"
    },
    {
      "channel": 2,
      "note": 65,
      "start": 38.735,
      "duration": 0.1499,
      "velocity": 118,
      "chip": "ym2612"
    },
    {
      "channel": 3,
      "note": 21,
      "start": 38.7372,
      "duration": 0.1498,
      "velocity": 127,
      "chip": "ym2612"
    },
    {
      "channel": 0,
      "note": 45,
      "start": 38.8839,
      "duration": 0.1665,
      "velocity": 111,
      "chip": "ym2612"
    },
    {
      "channel": 1,
      "note": 45,
      "start": 38.8845,
      "duration": 0.0827,
      "velocity": 118,
      "chip": "ym2612"
    },
    {
      "channel": 2,
      "note": 62,
      "start": 38.885,
      "duration": 0.0827,
      "velocity": 118,
      "chip": "ym2612"
    },
    {
      "channel": 3,
      "note": 31,
      "start": 38.8872,
      "duration": 0.0826,
      "velocity": 127,
      "chip": "ym2612"
    },
    {
      "channel": 1,
      "note": 57,
      "start": 38.9673,
      "duration": 0.0837,
      "velocity": 118,
      "chip": "ym2612"
    },
    {
      "channel": 2,
      "note": 69,
      "start": 38.9678,
      "duration": 0.1666,
      "velocity": 118,
      "chip": "ym2612"
    },
    {
      "channel": 3,
      "note": 26,
      "start": 38.97,
      "duration": 0.0816,
      "velocity": 127,
      "chip": "ym2612"
    },
    {
      "channel": 0,
      "note": 45,
      "start": 39.0506,
      "duration": 0.1498,
      "velocity": 111,
      "chip": "ym2612"
    },
    {
      "channel": 1,
      "note": 50,
      "start": 39.0512,
      "duration": 0.0827,
      "velocity": 118,
      "chip": "ym2612"
    },
    {
      "channel": 3,
      "note": 26,
      "start": 39.0517,
      "duration": 0.1498,
      "velocity": 127,
      "chip": "ym2612"
    },
    {
      "channel": 1,
      "note": 62,
      "start": 39.134,
      "duration": 0.1498,
      "velocity": 118,
      "chip": "ym2612"
    },
    {
      "channel": 2,
      "note": 69,
      "start": 39.1345,
      "duration": 0.0666,
      "velocity": 118,
      "chip": "ym2612"
    },
    {
      "channel": 0,
      "note": 45,
      "start": 39.2006,
      "duration": 0.1665,
      "velocity": 111,
      "chip": "ym2612"
    },
    {
      "channel": 2,
      "note": 67,
      "start": 39.2012,
      "duration": 0.167,
      "velocity": 118,
      "chip": "ym2612"
    },
    {
      "channel": 3,
      "note": 26,
      "start": 39.2017,
      "duration": 0.1686,
      "velocity": 127,
      "chip": "ym2612"
    },
    {
      "channel": 1,
      "note": 48,
      "start": 39.284,
      "duration": 0.0837,
      "velocity": 118,
      "chip": "ym2612"
    },
    {
      "channel": 0,
      "note": 57,
      "start": 39.3673,
      "duration": 0.1665,
      "velocity": 111,
      "chip": "ym2612"
    },
    {
      "channel": 1,
      "note": 60,
      "start": 39.3678,
      "duration": 0.1665,
      "velocity": 118,
      "chip": "ym2612"
    },
    {
      "channel": 2,
      "note": 65,
      "start": 39.3683,
      "duration": 0.1665,
      "velocity": 118,
      "chip": "ym2612"
    },
    {
      "channel": 3,
      "note": 21,
      "start": 39.3705,
      "duration": 0.1665,
      "velocity": 127,
      "chip": "ym2612"
    },
    {
      "channel": 0,
      "note": 45,
      "start": 39.5339,
      "duration": 0.1498,
      "velocity": 111,
      "chip": "ym2612"
    },
    {
      "channel": 1,
      "note": 45,
      "start": 39.5344,
      "duration": 0.066,
      "velocity": 118,
      "chip": "ym2612"
    },
    {
      "channel": 2,
      "note": 60,
      "start": 39.535,
      "duration": 0.1498,
      "velocity": 118,
      "chip": "ym2612"
    },
    {
      "channel": 3,
      "note": 31,
      "start": 39.5372,
      "duration": 0.0639,
      "velocity": 127,
      "chip": "ym2612"
    },
    {
      "channel": 1,
      "note": 57,
      "start": 39.6007,
      "duration": 0.0837,
      "velocity": 118,
      "chip": "ym2612"
    },
    {
      "channel": 3,
      "note": 31,
      "start": 39.6013,
      "duration": 0.0857,
      "velocity": 127,
      "chip": "ym2612"
    },
    {
      "channel": 0,
      "note": 45,
      "start": 39.6839,
      "duration": 0.1665,
      "velocity": 111,
      "chip": "ym2612"
    },
    {
      "channel": 1,
      "note": 50,
      "start": 39.6844,
      "duration": 0.0827,
      "velocity": 118,
      "chip": "ym2612"
    },
    {
      "channel": 2,
      "note": 69,
      "start": 39.685,
      "duration": 0.166,
      "velocity": 118,
      "chip": "ym2612"
    },
    {
      "channel": 3,
      "note": 26,
      "start": 39.6872,
      "duration": 0.166,
      "velocity": 127,
      "chip": "ym2612"
    },
    {
      "channel": 1,
      "note": 62,
      "start": 39.7673,
      "duration": 0.1665,
      "velocity": 118,
      "chip": "ym2612"
    },
    {
      "channel": 0,
      "note": 56,
      "start": 39.8506,
      "duration": 0.1498,
      "velocity": 111,
      "chip": "ym2612"
    },
    {
      "channel": 2,
      "note": 67,
      "start": 39.8512,
      "duration": 0.1504,
      "velocity": 118,
      "chip": "ym2612"
    },
    {
      "channel": 3,
      "note": 31,
      "start": 39.8533,
      "duration": 0.0811,
      "velocity": 127,
      "chip": "ym2612"
    },
    {
      "channel": 1,
      "note": 48,
      "start": 39.934,
      "duration": 0.067,
      "velocity": 118,
      "chip": "ym2612"
    },
    {
      "channel": 3,
      "note": 31,
      "start": 39.9346,
      "duration": 0.0691,
      "velocity": 127,
      "chip": "ym2612"
    },
    {
      "channel": 0,
      "note": 43,
      "start": 40.0006,
      "duration": 0.1665,
      "velocity": 111,
      "chip": "ym2612"
    },
    {
      "channel": 1,
      "note": 60,
      "start": 40.0012,
      "duration": 0.1665,
      "velocity": 118,
      "chip": "ym2612"
    },
    {
      "channel": 2,
      "note": 65,
      "start": 40.0017,
      "duration": 0.1665,
      "velocity": 118,
      "chip": "ym2612"
    },
    {
      "channel": 3,
      "note": 21,
      "start": 40.0038,
      "duration": 0.1665,
      "velocity": 127,
      "chip": "ym2612"
    },
    {
      "channel": 0,
      "note": 55,
      "start": 40.1673,
      "duration": 0.1665,
      "velocity": 111,
      "chip": "ym2612"
    },
    {
      "channel": 1,
      "note": 45,
      "start": 40.1678,
      "duration": 0.0827,
      "velocity": 118,
      "chip": "ym2612"
    },
    {
      "channel": 2,
      "note": 62,
      "start": 40.1683,
      "duration": 0.0827,
      "velocity": 118,
      "chip": "ym2612"
    },
    {
      "channel": 3,
      "note": 31,
      "start": 40.1705,
      "duration": 0.0826,
      "velocity": 127,
      "chip": "ym2612"
    },
    {
      "channel": 1,
      "note": 57,
      "start": 40.2507,
      "duration": 0.0837,
      "velocity": 118,
      "chip": "ym2612"
    },
    {
      "channel": 2,
      "note": 69,
      "start": 40.2512,
      "duration": 0.1499,
      "velocity": 118,
      "chip": "ym2612"
    },
    {
      "channel": 3,
      "note": 26,
      "start": 40.2533,
      "duration": 0.0815,
      "velocity": 127,
      "chip": "ym2612"
    },
    {
      "channel": 0,
      "note": 42,
      "start": 40.3339,
      "duration": 0.1498,
      "velocity": 111,
      "chip": "ym2612"
    },
    {
      "channel": 1,
      "note": 50,
      "start": 40.3344,
      "duration": 0.066,
      "velocity": 118,
      "chip": "ym2612"
    },
    {
      "channel": 3,
      "note": 26,
      "start": 40.3351,
      "duration": 0.1498,
      "velocity": 127,
      "chip": "ym2612"
    },
    {
      "channel": 1,
      "note": 62,
      "start": 40.4007,
      "duration": 0.1665,
      "velocity": 118,
      "chip": "ym2612"
    },
    {
      "channel": 2,
      "note": 69,
      "start": 40.4012,
      "duration": 0.0832,
      "velocity": 118,
      "chip": "ym2612"
    },
    {
      "channel": 0,
      "note": 53,
      "start": 40.4839,
      "duration": 0.1665,
      "velocity": 111,
      "chip": "ym2612"
    },
    {
      "channel": 2,
      "note": 67,
      "start": 40.4845,
      "duration": 0.1671,
      "velocity": 118,
      "chip": "ym2612"
    },
    {
      "channel": 3,
      "note": 26,
      "start": 40.4851,
      "duration": 0.1686,
      "velocity": 127,
      "chip": "ym2612"
    },
    {
      "channel": 1,
      "note": 48,
      "start": 40.5673,
      "duration": 0.0837,
      "velocity": 118,
      "chip": "ym2612"
    },
    {
      "channel": 0,
      "note": 40,
      "start": 40.6506,
      "duration": 0.1498,
      "velocity": 111,
      "chip": "ym2612"
    },
    {
      "channel": 1,
      "note": 60,
      "start": 40.6512,
      "duration": 0.1498,
      "velocity": 118,
      "chip": "ym2612"
    },
    {
      "channel": 2,
      "note": 65,
      "start": 40.6517,
      "duration": 0.1498,
      "velocity": 118,
      "chip": "ym2612"
    },
    {
      "channel": 3,
      "note": 21,
      "start": 40.6538,
      "duration": 0.0801,
      "velocity": 127,
      "chip": "ym2612"
    },
    {
      "channel": 3,
      "note": 21,
      "start": 40.7341,
      "duration": 0.0679,
      "velocity": 127,
      "chip": "ym2612"
    },
    {
      "channel": 0,
      "note": 51,
      "start": 40.8006,
      "duration": 0.1666,
      "velocity": 111,
      "chip": "ym2612"
    },
    {
      "channel": 1,
      "note": 45,
      "start": 40.8011,
      "duration": 0.0827,
      "velocity": 118,
      "chip": "ym2612"
    },
    {
      "channel": 2,
      "note": 62,
      "start": 40.8017,
      "duration": 0.1667,
      "velocity": 118,
      "chip": "ym2612"
    },
    {
      "channel": 3,
      "note": 21,
      "start": 40.8022,
      "duration": 0.1683,
      "velocity": 127,
      "chip": "ym2612"
    },
    {
      "channel": 1,
      "note": 57,
      "start": 40.884,
      "duration": 0.0838,
      "velocity": 118,
      "chip": "ym2612"
    },
    {
      "channel": 0,
      "note": 38,
      "start": 40.9674,
      "duration": 0.1663,
      "velocity": 111,
      "chip": "ym2612"
    },
    {
      "channel": 1,
      "note": 50,
      "start": 40.968,
      "duration": 0.0825,
      "velocity": 118,
      "chip": "ym2612"
    },
    {
      "channel": 2,
      "note": 67,
      "start": 40.9686,
      "duration": 0.1659,
      "velocity": 118,
      "chip": "ym2612"
    },
    {
      "channel": 3,
      "note": 26,
      "start": 40.9707,
      "duration": 0.1658,
      "velocity": 127,
      "chip": "ym2612"
    },
    {
      "channel": 1,
      "note": 62,
      "start": 41.0507,
      "duration": 0.1498,
      "velocity": 118,
      "chip": "ym2612"
    },
    {
      "channel": 0,
      "note": 38,
      "start": 41.1339,
      "duration": 0.1498,
      "velocity": 111,
      "chip": "ym2612"
    },
    {
      "channel": 2,
      "note": 65,
      "start": 41.1346,
      "duration": 0.1502,
      "velocity": 118,
      "chip": "ym2612"
    },
    {
      "channel": 3,
      "note": 31,
      "start": 41.1367,
      "duration": 0.0644,
      "velocity": 127,
      "chip": "ym2612"
    },
    {
      "channel": 1,
      "note": 48,
      "start": 41.2007,
      "duration": 0.0837,
      "velocity": 118,
      "chip": "ym2612"
    },
    {
      "channel": 3,
      "note": 31,
      "start": 41.2012,
      "duration": 0.0858,
      "velocity": 127,
      "chip": "ym2612"
    },
    {
      "channel": 0,
      "note": 36,
      "start": 41.2839,
      "duration": 0.1665,
      "velocity": 111,
      "chip": "ym2612"
    },
    {
      "channel": 1,
      "note": 60,
      "start": 41.2844,
      "duration": 0.1665,
      "velocity": 118,
      "chip": "ym2612"
    },
    {
      "channel": 2,
      "note": 62,
      "start": 41.285,
      "duration": 0.1665,
      "velocity": 118,
      "chip": "ym2612"
    },
    {
      "channel": 3,
      "note": 21,
      "start": 41.2872,
      "duration": 0.1665,
      "velocity": 127,
      "chip": "ym2612"
    },
    {
      "channel": 0,
      "note": 38,
      "start": 41.4506,
      "duration": 0.1498,
      "velocity": 111,
      "chip": "ym2612"
    },
    {
      "channel": 1,
      "note": 45,
      "start": 41.4512,
      "duration": 0.0827,
      "velocity": 118,
      "chip": "ym2612"
    },
    {
      "channel": 2,
      "note": 60,
      "start": 41.4517,
      "duration": 0.0827,
      "velocity": 118,
      "chip": "ym2612"
    },
    {
      "channel": 3,
      "note": 31,
      "start": 41.4538,
      "duration": 0.0826,
      "velocity": 127,
      "chip": "ym2612"
    },
    {
      "channel": 1,
      "note": 57,
      "start": 41.534,
      "duration": 0.067,
      "velocity": 118,
      "chip": "ym2612"
    },
    {
      "channel": 2,
      "note": 67,
      "start": 41.5345,
      "duration": 0.1499,
      "velocity": 118,
      "chip": "ym2612"
    },
    {
      "channel": 3,
      "note": 26,
      "start": 41.5367,
      "duration": 0.0649,
      "velocity": 127,
      "chip": "ym2612"
    },
    {
      "channel": 0,
      "note": 38,
      "start": 41.6006,
      "duration": 0.1665,
      "velocity": 111,
      "chip": "ym2612"
    },
    {
      "channel": 1,
      "note": 50,
      "start": 41.6012,
      "duration": 0.0827,
      "velocity": 118,
      "chip": "ym2612"
    },
    {
      "channel": 3,
      "note": 26,
      "start": 41.6017,
      "duration": 0.1665,
      "velocity": 127,
      "chip": "ym2612"
    },
    {
      "channel": 1,
      "note": 62,
      "start": 41.684,
      "duration": 0.1665,
      "velocity": 118,
      "chip": "ym2612"
    },
    {
      "channel": 2,
      "note": 67,
      "start": 41.6845,
      "duration": 0.0832,
      "velocity": 118,
      "chip": "ym2612"
    },
    {
      "channel": 0,
      "note": 36,
      "start": 41.7673,
      "duration": 0.1665,
      "velocity": 111,
      "chip": "ym2612"
    },
    {
      "channel": 2,
      "note": 65,
      "start": 41.7678,
      "duration": 0.167,
      "velocity": 118,
      "chip": "ym2612"
    },
    {
      "channel": 3,
      "note": 26,
      "start": 41.7684,
      "duration": 0.1686,
      "velocity": 127,
      "chip": "ym2612"
    },
    {
      "channel": 1,
      "note": 48,
      "start": 41.8507,
      "duration": 0.0837,
      "velocity": 118,
      "chip": "ym2612"
    },
    {
      "channel": 0,
      "note": 38,
      "start": 41.9339,
      "duration": 0.1498,
      "velocity": 111,
      "chip": "ym2612"
    },
    {
      "channel": 1,
      "note": 60,
      "start": 41.9344,
      "duration": 0.1499,
      "velocity": 118,
      "chip": "ym2612"
    },
    {
      "channel": 2,
      "note": 62,
      "start": 41.935,
      "duration": 0.1499,
      "velocity": 118,
      "chip": "ym2612"
    },
    {
      "channel": 3,
      "note": 21,
      "start": 41.9372,
      "duration": 0.1498,
      "velocity": 127,
      "chip": "ym2612"
    },
    {
      "channel": 0,
      "note": 36,
      "start": 42.0839,
      "duration": 0.1665,
      "velocity": 111,
      "chip": "ym2612"
    },
    {
      "channel": 1,
      "note": 45,
      "start": 42.0845,
      "duration": 0.0827,
      "velocity": 118,
      "chip": "ym2612"
    },
    {
      "channel": 2,
      "note": 60,
      "start": 42.085,
      "duration": 0.1665,
      "velocity": 118,
      "chip": "ym2612"
    },
    {
      "channel": 3,
      "note": 31,
      "start": 42.0872,
      "duration": 0.0806,
      "velocity": 127,
      "chip": "ym2612"
    },
    {
      "channel": 1,
      "note": 57,
      "start": 42.1673,
      "duration": 0.0837,
      "velocity": 118,
      "chip": "ym2612"
    },
    {
      "channel": 3,
      "note": 31,
      "start": 42.168,
      "duration": 0.0857,
      "velocity": 127,
      "chip": "ym2612"
    },
    {
      "channel": 0,
      "note": 38,
      "start": 42.2506,
      "duration": 0.1498,
      "velocity": 111,
      "chip": "ym2612"
    },
    {
      "channel": 1,
      "note": 50,
      "start": 42.2511,
      "duration": 0.0827,
      "velocity": 118,
      "chip": "ym2612"
    },
    {
      "channel": 2,
      "note": 67,
      "start": 42.2517,
      "duration": 0.1494,
      "velocity": 118,
      "chip": "ym2612"
    },
    {
      "channel": 3,
      "note": 26,
      "start": 42.2538,
      "duration": 0.1493,
      "velocity": 127,
      "chip": "ym2612"
    },
    {
      "channel": 1,
      "note": 62,
      "start": 42.334,
      "duration": 0.1498,
      "velocity": 118,
      "chip": "ym2612"
    },
    {
      "channel": 0,
      "note": 38,
      "start": 42.4006,
      "duration": 0.1665,
      "velocity": 111,
      "chip": "ym2612"
    },
    {
      "channel": 2,
      "note": 65,
      "start": 42.4012,
      "duration": 0.167,
      "velocity": 118,
      "chip": "ym2612"
    },
    {
      "channel": 3,
      "note": 31,
      "start": 42.4033,
      "duration": 0.0811,
      "velocity": 127,
      "chip": "ym2612"
    },
    {
      "channel": 1,
      "note": 48,
      "start": 42.484,
      "duration": 0.0837,
      "velocity": 118,
      "chip": "ym2612"
    },
    {
      "channel": 3,
      "note": 31,
      "start": 42.4846,
      "duration": 0.0857,
      "velocity": 127,
      "chip": "ym2612"
    },
    {
      "channel": 0,
      "note": 36,
      "start": 42.5673,
      "duration": 0.1665,
      "velocity": 111,
      "chip": "ym2612"
    },
    {
      "channel": 1,
      "note": 60,
      "start": 42.5678,
      "duration": 0.1665,
      "velocity": 118,
      "chip": "ym2612"
    },
    {
      "channel": 2,
      "note": 62,
      "start": 42.5683,
      "duration": 0.1665,
      "velocity": 118,
      "chip": "ym2612"
    },
    {
      "channel": 3,
      "note": 21,
      "start": 42.5705,
      "duration": 0.1665,
      "velocity": 127,
      "chip": "ym2612"
    },
    {
      "channel": 0,
      "note": 38,
      "start": 42.7339,
      "duration": 0.1498,
      "velocity": 111,
      "chip": "ym2612"
    },
    {
      "channel": 1,
      "note": 45,
      "start": 42.7344,
      "duration": 0.066,
      "velocity": 118,
      "chip": "ym2612"
    },
    {
      "channel": 2,
      "note": 60,
      "start": 42.735,
      "duration": 0.066,
      "velocity": 118,
      "chip": "ym2612"
    },
    {
      "channel": 3,
      "note": 31,
      "start": 42.7372,
      "duration": 0.066,
      "velocity": 127,
      "chip": "ym2612"
    },
    {
      "channel": 1,
      "note": 57,
      "start": 42.8007,
      "duration": 0.0837,
      "velocity": 118,
      "chip": "ym2612"
    },
    {
      "channel": 2,
      "note": 67,
      "start": 42.8012,
      "duration": 0.1666,
      "velocity": 118,
      "chip": "ym2612"
    },
    {
      "channel": 3,
      "note": 26,
      "start": 42.8033,
      "duration": 0.0815,
      "velocity": 127,
      "chip": "ym2612"
    },
    {
      "channel": 0,
      "note": 38,
      "start": 42.8839,
      "duration": 0.1665,
      "velocity": 111,
      "chip": "ym2612"
    },
    {
      "channel": 1,
      "note": 50,
      "start": 42.8844,
      "duration": 0.0827,
      "velocity": 118,
      "chip": "ym2612"
    },
    {
      "channel": 3,
      "note": 26,
      "start": 42.8851,
      "duration": 0.1665,
      "velocity": 127,
      "chip": "ym2612"
    },
    {
      "channel": 1,
      "note": 62,
      "start": 42.9673,
      "duration": 0.1665,
      "velocity": 118,
      "chip": "ym2612"
    },
    {
      "channel": 2,
      "note": 67,
      "start": 42.9678,
      "duration": 0.0832,
      "velocity": 118,
      "chip": "ym2612"
    },
    {
      "channel": 0,
      "note": 36,
      "start": 43.0506,
      "duration": 0.1498,
      "velocity": 111,
      "chip": "ym2612"
    },
    {
      "channel": 2,
      "note": 65,
      "start": 43.0512,
      "duration": 0.1504,
      "velocity": 118,
      "chip": "ym2612"
    },
    {
      "channel": 3,
      "note": 26,
      "start": 43.0517,
      "duration": 0.1519,
      "velocity": 127,
      "chip": "ym2612"
    },
    {
      "channel": 1,
      "note": 48,
      "start": 43.134,
      "duration": 0.067,
      "velocity": 118,
      "chip": "ym2612"
    },
    {
      "channel": 0,
      "note": 38,
      "start": 43.2006,
      "duration": 0.1665,
      "velocity": 111,
      "chip": "ym2612"
    },
    {
      "channel": 1,
      "note": 60,
      "start": 43.2012,
      "duration": 0.1665,
      "velocity": 118,
      "chip": "ym2612"
    },
    {
      "channel": 2,
      "note": 62,
      "start": 43.2017,
      "duration": 0.1665,
      "velocity": 118,
      "chip": "ym2612"
    },
    {
      "channel": 3,
      "note": 21,
      "start": 43.2038,
      "duration": 0.1665,
      "velocity": 127,
      "chip": "ym2612"
    },
    {
      "channel": 0,
      "note": 36,
      "start": 43.3673,
      "duration": 0.1665,
      "velocity": 111,
      "chip": "ym2612"
    },
    {
      "channel": 1,
      "note": 45,
      "start": 43.3678,
      "duration": 0.0827,
      "velocity": 118,
      "chip": "ym2612"
    },
    {
      "channel": 2,
      "note": 60,
      "start": 43.3683,
      "duration": 0.1665,
      "velocity": 118,
      "chip": "ym2612"
    },
    {
      "channel": 3,
      "note": 31,
      "start": 43.3705,
      "duration": 0.0806,
      "velocity": 127,
      "chip": "ym2612"
    },
    {
      "channel": 1,
      "note": 57,
      "start": 43.4507,
      "duration": 0.0837,
      "velocity": 118,
      "chip": "ym2612"
    },
    {
      "channel": 3,
      "note": 31,
      "start": 43.4513,
      "duration": 0.0857,
      "velocity": 127,
      "chip": "ym2612"
    },
    {
      "channel": 0,
      "note": 38,
      "start": 43.5339,
      "duration": 0.1498,
      "velocity": 111,
      "chip": "ym2612"
    },
    {
      "channel": 1,
      "note": 50,
      "start": 43.5344,
      "duration": 0.066,
      "velocity": 118,
      "chip": "ym2612"
    },
    {
      "channel": 2,
      "note": 69,
      "start": 43.535,
      "duration": 0.1494,
      "velocity": 118,
      "chip": "ym2612"
    },
    {
      "channel": 3,
      "note": 26,
      "start": 43.5372,
      "duration": 0.1493,
      "velocity": 127,
      "chip": "ym2612"
    },
    {
      "channel": 1,
      "note": 62,
      "start": 43.6007,
      "duration": 0.1665,
      "velocity": 118,
      "chip": "ym2612"
    },
    {
      "channel": 0,
      "note": 38,
      "start": 43.6839,
      "duration": 0.1665,
      "velocity": 111,
      "chip": "ym2612"
    },
    {
      "channel": 2,
      "note": 67,
      "start": 43.6845,
      "duration": 0.1671,
      "velocity": 118,
      "chip": "ym2612"
    },
    {
      "channel": 3,
      "note": 31,
      "start": 43.6867,
      "duration": 0.0811,
      "velocity": 127,
      "chip": "ym2612"
    },
    {
      "channel": 1,
      "note": 48,
      "start": 43.7673,
      "duration": 0.0837,
      "velocity": 118,
      "chip": "ym2612"
    },
    {
      "channel": 3,
      "note": 31,
      "start": 43.7679,
      "duration": 0.0858,
      "velocity": 127,
      "chip": "ym2612"
    },
    {
      "channel": 0,
      "note": 36,
      "start": 43.8506,
      "duration": 0.1498,
      "velocity": 111,
      "chip": "ym2612"
    },
    {
      "channel": 1,
      "note": 60,
      "start": 43.8512,
      "duration": 0.1498,
      "velocity": 118,
      "chip": "ym2612"
    },
    {
      "channel": 2,
      "note": 65,
      "start": 43.8517,
      "duration": 0.1498,
      "velocity": 118,
      "chip": "ym2612"
    },
    {
      "channel": 3,
      "note": 21,
      "start": 43.8538,
      "duration": 0.1498,
      "velocity": 127,
      "chip": "ym2612"
    },
    {
      "channel": 0,
      "note": 38,
      "start": 44.0006,
      "duration": 0.1665,
      "velocity": 111,
      "chip": "ym2612"
    },
    {
      "channel": 1,
      "note": 45,
      "start": 44.0011,
      "duration": 0.0827,
      "velocity": 118,
      "chip": "ym2612"
    },
    {
      "channel": 2,
      "note": 62,
      "start": 44.0017,
      "duration": 0.0827,
      "velocity": 118,
      "chip": "ym2612"
    },
    {
      "channel": 3,
      "note": 31,
      "start": 44.0038,
      "duration": 0.0826,
      "velocity": 127,
      "chip": "ym2612"
    },
    {
      "channel": 1,
      "note": 57,
      "start": 44.084,
      "duration": 0.0837,
      "velocity": 118,
      "chip": "ym2612"
    },
    {
      "channel": 2,
      "note": 69,
      "start": 44.0845,
      "duration": 0.1666,
      "velocity": 118,
      "chip": "ym2612"
    },
    {
      "channel": 3,
      "note": 26,
      "start": 44.0867,
      "duration": 0.0815,
      "velocity": 127,
      "chip": "ym2612"
    },
    {
      "channel": 0,
      "note": 38,
      "start": 44.1673,
      "duration": 0.1665,
      "velocity": 111,
      "chip": "ym2612"
    },
    {
      "channel": 1,
      "note": 50,
      "start": 44.1678,
      "duration": 0.0827,
      "velocity": 118,
      "chip": "ym2612"
    },
    {
      "channel": 3,
      "note": 26,
      "start": 44.1684,
      "duration": 0.1665,
      "velocity": 127,
      "chip": "ym2612"
    },
    {
      "channel": 1,
      "note": 62,
      "start": 44.2507,
      "duration": 0.1498,
      "velocity": 118,
      "chip": "ym2612"
    },
    {
      "channel": 2,
      "note": 69,
      "start": 44.2512,
      "duration": 0.0832,
      "velocity": 118,
      "chip": "ym2612"
    },
    {
      "channel": 0,
      "note": 36,
      "start": 44.3339,
      "duration": 0.1498,
      "velocity": 111,
      "chip": "ym2612"
    },
    {
      "channel": 2,
      "note": 67,
      "start": 44.3345,
      "duration": 0.1503,
      "velocity": 118,
      "chip": "ym2612"
    },
    {
      "channel": 3,
      "note": 26,
      "start": 44.3351,
      "duration": 0.1519,
      "velocity": 127,
      "chip": "ym2612"
    },
    {
      "channel": 1,
      "note": 48,
      "start": 44.4007,
      "duration": 0.0837,
      "velocity": 118,
      "chip": "ym2612"
    },
    {
      "channel": 0,
      "note": 38,
      "start": 44.4839,
      "duration": 0.1665,
      "velocity": 111,
      "chip": "ym2612"
    },
    {
      "channel": 1,
      "note": 60,
      "start": 44.4844,
      "duration": 0.1665,
      "velocity": 118,
      "chip": "ym2612"
    },
    {
      "channel": 2,
      "note": 65,
      "start": 44.485,
      "duration": 0.1665,
      "velocity": 118,
      "chip": "ym2612"
    },
    {
      "channel": 3,
      "note": 21,
      "start": 44.4872,
      "duration": 0.1665,
      "velocity": 127,
      "chip": "ym2612"
    },
    {
      "channel": 0,
      "note": 36,
      "start": 44.6506,
      "duration": 0.1498,
      "velocity": 111,
      "chip": "ym2612"
    },
    {
      "channel": 1,
      "note": 45,
      "start": 44.6512,
      "duration": 0.0827,
      "velocity": 118,
      "chip": "ym2612"
    },
    {
      "channel": 2,
      "note": 60,
      "start": 44.6517,
      "duration": 0.1499,
      "velocity": 118,
      "chip": "ym2612"
    },
    {
      "channel": 3,
      "note": 31,
      "start": 44.6538,
      "duration": 0.0806,
      "velocity": 127,
      "chip": "ym2612"
    },
    {
      "channel": 1,
      "note": 57,
      "start": 44.734,
      "duration": 0.067,
      "velocity": 118,
      "chip": "ym2612"
    },
    {
      "channel": 3,
      "note": 31,
      "start": 44.7346,
      "duration": 0.0691,
      "velocity": 127,
      "chip": "ym2612"
    },
    {
      "channel": 0,
      "note": 38,
      "start": 44.8006,
      "duration": 0.1665,
      "velocity": 111,
      "chip": "ym2612"
    },
    {
      "channel": 1,
      "note": 50,
      "start": 44.8012,
      "duration": 0.0827,
      "velocity": 118,
      "chip": "ym2612"
    },
    {
      "channel": 2,
      "note": 69,
      "start": 44.8017,
      "duration": 0.166,
      "velocity": 118,
      "chip": "ym2612"
    },
    {
      "channel": 3,
      "note": 26,
      "start": 44.8038,
      "duration": 0.166,
      "velocity": 127,
      "chip": "ym2612"
    },
    {
      "channel": 1,
      "note": 62,
      "start": 44.884,
      "duration": 0.1665,
      "velocity": 118,
      "chip": "ym2612"
    },
    {
      "channel": 0,
      "note": 45,
      "start": 44.9673,
      "duration": 0.1665,
      "velocity": 111,
      "chip": "ym2612"
    },
    {
      "channel": 2,
      "note": 67,
      "start": 44.9678,
      "duration": 0.167,
      "velocity": 118,
      "chip": "ym2612"
    },
    {
      "channel": 3,
      "note": 31,
      "start": 44.97,
      "duration": 0.0811,
      "velocity": 127,
      "chip": "ym2612"
    },
    {
      "channel": 1,
      "note": 48,
      "start": 45.0507,
      "duration": 0.0837,
      "velocity": 118,
      "chip": "ym2612"
    },
    {
      "channel": 3,
      "note": 31,
      "start": 45.0512,
      "duration": 0.0858,
      "velocity": 127,
      "chip": "ym2612"
    },
    {
      "channel": 0,
      "note": 40,
      "start": 45.1339,
      "duration": 0.1498,
      "velocity": 111,
      "chip": "ym2612"
    },
    {
      "channel": 1,
      "note": 60,
      "start": 45.1344,
      "duration": 0.1499,
      "velocity": 118,
      "chip": "ym2612"
    },
    {
      "channel": 2,
      "note": 65,
      "start": 45.135,
      "duration": 0.1499,
      "velocity": 118,
      "chip": "ym2612"
    },
    {
      "channel": 3,
      "note": 21,
      "start": 45.1372,
      "duration": 0.1498,
      "velocity": 127,
      "chip": "ym2612"
    },
    {
      "channel": 0,
      "note": 47,
      "start": 45.2839,
      "duration": 0.1665,
      "velocity": 111,
      "chip": "ym2612"
    },
    {
      "channel": 1,
      "note": 45,
      "start": 45.2845,
      "duration": 0.0827,
      "velocity": 118,
      "chip": "ym2612"
    },
    {
      "channel": 2,
      "note": 62,
      "start": 45.285,
      "duration": 0.0827,
      "velocity": 118,
      "chip": "ym2612"
    },
    {
      "channel": 3,
      "note": 31,
      "start": 45.2872,
      "duration": 0.0826,
      "velocity": 127,
      "chip": "ym2612"
    },
    {
      "channel": 1,
      "note": 57,
      "start": 45.3673,
      "duration": 0.0837,
      "velocity": 118,
      "chip": "ym2612"
    },
    {
      "channel": 2,
      "note": 69,
      "start": 45.3678,
      "duration": 0.1666,
      "velocity": 118,
      "chip": "ym2612"
    },
    {
      "channel": 3,
      "note": 26,
      "start": 45.37,
      "duration": 0.0815,
      "velocity": 127,
      "chip": "ym2612"
    },
    {
      "channel": 0,
      "note": 41,
      "start": 45.4506,
      "duration": 0.1498,
      "velocity": 111,
      "chip": "ym2612"
    },
    {
      "channel": 1,
      "note": 50,
      "start": 45.4511,
      "duration": 0.0827,
      "velocity": 118,
      "chip": "ym2612"
    },
    {
      "channel": 3,
      "note": 26,
      "start": 45.4517,
      "duration": 0.1498,
      "velocity": 127,
      "chip": "ym2612"
    },
    {
      "channel": 1,
      "note": 62,
      "start": 45.534,
      "duration": 0.1498,
      "velocity": 118,
      "chip": "ym2612"
    },
    {
      "channel": 2,
      "note": 69,
      "start": 45.5345,
      "duration": 0.0666,
      "velocity": 118,
      "chip": "ym2612"
    },
    {
      "channel": 0,
      "note": 48,
      "start": 45.6006,
      "duration": 0.1665,
      "velocity": 111,
      "chip": "ym2612"
    },
    {
      "channel": 2,
      "note": 67,
      "start": 45.6012,
      "duration": 0.1671,
      "velocity": 118,
      "chip": "ym2612"
    },
    {
      "channel": 3,
      "note": 26,
      "start": 45.6017,
      "duration": 0.1686,
      "velocity": 127,
      "chip": "ym2612"
    },
    {
      "channel": 1,
      "note": 48,
      "start": 45.684,
      "duration": 0.0837,
      "velocity": 118,
      "chip": "ym2612"
    },
    {
      "channel": 0,
      "note": 43,
      "start": 45.7673,
      "duration": 0.1665,
      "velocity": 111,
      "chip": "ym2612"
    },
    {
      "channel": 1,
      "note": 60,
      "start": 45.7678,
      "duration": 0.1665,
      "velocity": 118,
      "chip": "ym2612"
    },
    {
      "channel": 2,
      "note": 65,
      "start": 45.7683,
      "duration": 0.1665,
      "velocity": 118,
      "chip": "ym2612"
    },
    {
      "channel": 3,
      "note": 21,
      "start": 45.7705,
      "duration": 0.0801,
      "velocity": 127,
      "chip": "ym2612"
    },
    {
      "channel": 3,
      "note": 21,
      "start": 45.8508,
      "duration": 0.0846,
      "velocity": 127,
      "chip": "ym2612"
    },
    {
      "channel": 0,
      "note": 50,
      "start": 45.9339,
      "duration": 0.1499,
      "velocity": 111,
      "chip": "ym2612"
    },
    {
      "channel": 1,
      "note": 45,
      "start": 45.9344,
      "duration": 0.0661,
      "velocity": 118,
      "chip": "ym2612"
    },
    {
      "channel": 2,
      "note": 62,
      "start": 45.935,
      "duration": 0.1501,
      "velocity": 118,
      "chip": "ym2612"
    },
    {
      "channel": 3,
      "note": 21,
      "start": 45.9356,
      "duration": 0.1517,
      "velocity": 127,
      "chip": "ym2612"
    },
    {
      "channel": 1,
      "note": 57,
      "start": 46.0007,
      "duration": 0.0838,
      "velocity": 118,
      "chip": "ym2612"
    },
    {
      "channel": 0,
      "note": 43,
      "start": 46.0841,
      "duration": 0.1663,
      "velocity": 111,
      "chip": "ym2612"
    },
    {
      "channel": 1,
      "note": 50,
      "start": 46.0847,
      "duration": 0.0824,
      "velocity": 118,
      "chip": "ym2612"
    },
    {
      "channel": 2,
      "note": 67,
      "start": 46.0853,
      "duration": 0.1659,
      "velocity": 118,
      "chip": "ym2612"
    },
    {
      "channel": 3,
      "note": 26,
      "start": 46.0874,
      "duration": 0.1658,
      "velocity": 127,
      "chip": "ym2612"
    },
    {
      "channel": 1,
      "note": 62,
      "start": 46.1673,
      "duration": 0.1665,
      "velocity": 118,
      "chip": "ym2612"
    },
    {
      "channel": 0,
      "note": 43,
      "start": 46.2506,
      "duration": 0.1498,
      "velocity": 111,
      "chip": "ym2612"
    },
    {
      "channel": 2,
      "note": 65,
      "start": 46.2512,
      "duration": 0.1503,
      "velocity": 118,
      "chip": "ym2612"
    },
    {
      "channel": 3,
      "note": 31,
      "start": 46.2534,
      "duration": 0.081,
      "velocity": 127,
      "chip": "ym2612"
    },
    {
      "channel": 1,
      "note": 48,
      "start": 46.3339,
      "duration": 0.0671,
      "velocity": 118,
      "chip": "ym2612"
    },
    {
      "channel": 3,
      "note": 31,
      "start": 46.3346,
      "duration": 0.0691,
      "velocity": 127,
      "chip": "ym2612"
    },
    {
      "channel": 0,
      "note": 55,
      "start": 46.4006,
      "duration": 0.1665,
      "velocity": 111,
      "chip": "ym2612"
    },
    {
      "channel": 1,
      "note": 60,
      "start": 46.4012,
      "duration": 0.1665,
      "velocity": 118,
      "chip": "ym2612"
    },
    {
      "channel": 2,
      "note": 62,
      "start": 46.4017,
      "duration": 0.1665,
      "velocity": 118,
      "chip": "ym2612"
    },
    {
      "channel": 3,
      "note": 21,
      "start": 46.4038,
      "duration": 0.1665,
      "velocity": 127,
      "chip": "ym2612"
    },
    {
      "channel": 0,
      "note": 43,
      "start": 46.5673,
      "duration": 0.1665,
      "velocity": 111,
      "chip": "ym2612"
    },
    {
      "channel": 1,
      "note": 45,
      "start": 46.5678,
      "duration": 0.0827,
      "velocity": 118,
      "chip": "ym2612"
    },
    {
      "channel": 2,
      "note": 60,
      "start": 46.5683,
      "duration": 0.0827,
      "velocity": 118,
      "chip": "ym2612"
    },
    {
      "channel": 3,
      "note": 31,
      "start": 46.5705,
      "duration": 0.0826,
      "velocity": 127,
      "chip": "ym2612"
    },
    {
      "channel": 1,
      "note": 57,
      "start": 46.6507,
      "duration": 0.0837,
      "velocity": 118,
      "chip": "ym2612"
    },
    {
      "channel": 2,
      "note": 67,
      "start": 46.6512,
      "duration": 0.1499,
      "velocity": 118,
      "chip": "ym2612"
    },
    {
      "channel": 3,
      "note": 26,
      "start": 46.6533,
      "duration": 0.0815,
      "velocity": 127,
      "chip": "ym2612"
    },
    {
      "channel": 0,
      "note": 43,
      "start": 46.7339,
      "duration": 0.1498,
      "velocity": 111,
      "chip": "ym2612"
    },
    {
      "channel": 1,
      "note": 50,
      "start": 46.7344,
      "duration": 0.066,
      "velocity": 118,
      "chip": "ym2612"
    },
    {
      "channel": 3,
      "note": 26,
      "start": 46.7351,
      "duration": 0.1498,
      "velocity": 127,
      "chip": "ym2612"
    },
    {
      "channel": 1,
      "note": 62,
      "start": 46.8007,
      "duration": 0.1665,
      "velocity": 118,
      "chip": "ym2612"
    },
    {
      "channel": 2,
      "note": 67,
      "start": 46.8012,
      "duration": 0.0832,
      "velocity": 118,
      "chip": "ym2612"
    },
    {
      "channel": 0,
      "note": 43,
      "start": 46.8839,
      "duration": 0.1665,
      "velocity": 111,
      "chip": "ym2612"
    },
    {
      "channel": 2,
      "note": 65,
      "start": 46.8845,
      "duration": 0.1671,
      "velocity": 118,
      "chip": "ym2612"
    },
    {
      "channel": 3,
      "note": 26,
      "start": 46.8851,
      "duration": 0.1686,
      "velocity": 127,
      "chip": "ym2612"
    },
    {
      "channel": 1,
      "note": 48,
      "start": 46.9673,
      "duration": 0.0837,
      "velocity": 118,
      "chip": "ym2612"
    },
    {
      "channel": 0,
      "note": 55,
      "start": 47.0506,
      "duration": 0.1498,
      "velocity": 111,
      "chip": "ym2612"
    },
    {
      "channel": 1,
      "note": 60,
      "start": 47.0512,
      "duration": 0.1498,
      "velocity": 118,
      "chip": "ym2612"
    },
    {
      "channel": 2,
      "note": 62,
      "start": 47.0517,
      "duration": 0.1498,
      "velocity": 118,
      "chip": "ym2612"
    },
    {
      "channel": 3,
      "note": 21,
      "start": 47.0538,
      "duration": 0.1498,
      "velocity": 127,
      "chip": "ym2612"
    },
    {
      "channel": 0,
      "note": 43,
      "start": 47.2006,
      "duration": 0.1665,
      "velocity": 111,
      "chip": "ym2612"
    },
    {
      "channel": 1,
      "note": 45,
      "start": 47.2011,
      "duration": 0.0827,
      "velocity": 118,
      "chip": "ym2612"
    },
    {
      "channel": 2,
      "note": 60,
      "start": 47.2017,
      "duration": 0.1665,
      "velocity": 118,
      "chip": "ym2612"
    },
    {
      "channel": 3,
      "note": 31,
      "start": 47.2038,
      "duration": 0.0806,
      "velocity": 127,
      "chip": "ym2612"
    },
    {
      "channel": 1,
      "note": 57,
      "start": 47.284,
      "duration": 0.0837,
      "velocity": 118,
      "chip": "ym2612"
    },
    {
      "channel": 3,
      "note": 31,
      "start": 47.2846,
      "duration": 0.0858,
      "velocity": 127,
      "chip": "ym2612"
    },
    {
      "channel": 0,
      "note": 43,
      "start": 47.3673,
      "duration": 0.1665,
      "velocity": 111,
      "chip": "ym2612"
    },
    {
      "channel": 1,
      "note": 50,
      "start": 47.3678,
      "duration": 0.0827,
      "velocity": 118,
      "chip": "ym2612"
    },
    {
      "channel": 2,
      "note": 67,
      "start": 47.3683,
      "duration": 0.166,
      "velocity": 118,
      "chip": "ym2612"
    },
    {
      "channel": 3,
      "note": 26,
      "start": 47.3705,
      "duration": 0.166,
      "velocity": 127,
      "chip": "ym2612"
    },
    {
      "channel": 1,
      "note": 62,
      "start": 47.4507,
      "duration": 0.1498,
      "velocity": 118,
      "chip": "ym2612"
    },
    {
      "channel": 0,
      "note": 43,
      "start": 47.5339,
      "duration": 0.1498,
      "velocity": 111,
      "chip": "ym2612"
    },
    {
      "channel": 2,
      "note": 65,
      "start": 47.5345,
      "duration": 0.1503,
      "velocity": 118,
      "chip": "ym2612"
    },
    {
      "channel": 3,
      "note": 31,
      "start": 47.5367,
      "duration": 0.0644,
      "velocity": 127,
      "chip": "ym2612"
    },
    {
      "channel": 1,
      "note": 48,
      "start": 47.6007,
      "duration": 0.0837,
      "velocity": 118,
      "chip": "ym2612"
    },
    {
      "channel": 3,
      "note": 31,
      "start": 47.6013,
      "duration": 0.0857,
      "velocity": 127,
      "chip": "ym2612"
    },
    {
      "channel": 0,
      "note": 55,
      "start": 47.6839,
      "duration": 0.1665,
      "velocity": 111,
      "chip": "ym2612"
    },
    {
      "channel": 1,
      "note": 60,
      "start": 47.6844,
      "duration": 0.1665,
      "velocity": 118,
      "chip": "ym2612"
    },
    {
      "channel": 2,
      "note": 62,
      "start": 47.685,
      "duration": 0.1665,
      "velocity": 118,
      "chip": "ym2612"
    },
    {
      "channel": 3,
      "note": 21,
      "start": 47.6872,
      "duration": 0.1665,
      "velocity": 127,
      "chip": "ym2612"
    },
    {
      "channel": 0,
      "note": 43,
      "start": 47.8506,
      "duration": 0.1498,
      "velocity": 111,
      "chip": "ym2612"
    },
    {
      "channel": 1,
      "note": 45,
      "start": 47.8512,
      "duration": 0.0827,
      "velocity": 118,
      "chip": "ym2612"
    },
    {
      "channel": 2,
      "note": 60,
      "start": 47.8517,
      "duration": 0.0827,
      "velocity": 118,
      "chip": "ym2612"
    },
    {
      "channel": 3,
      "note": 31,
      "start": 47.8538,
      "duration": 0.0826,
      "velocity": 127,
      "chip": "ym2612"
    },
    {
      "channel": 1,
      "note": 57,
      "start": 47.934,
      "duration": 0.067,
      "velocity": 118,
      "chip": "ym2612"
    },
    {
      "channel": 2,
      "note": 67,
      "start": 47.9345,
      "duration": 0.1499,
      "velocity": 118,
      "chip": "ym2612"
    },
    {
      "channel": 3,
      "note": 26,
      "start": 47.9367,
      "duration": 0.0649,
      "velocity": 127,
      "chip": "ym2612"
    },
    {
      "channel": 0,
      "note": 43,
      "start": 48.0006,
      "duration": 0.1665,
      "velocity": 111,
      "chip": "ym2612"
    },
    {
      "channel": 1,
      "note": 50,
      "start": 48.0011,
      "duration": 0.0827,
      "velocity": 118,
      "chip": "ym2612"
    },
    {
      "channel": 3,
      "note": 26,
      "start": 48.0017,
      "duration": 0.1665,
      "velocity": 127,
      "chip": "ym2612"
    },
    {
      "channel": 1,
      "note": 62,
      "start": 48.084,
      "duration": 0.1665,
      "velocity": 118,
      "chip": "ym2612"
    },
    {
      "channel": 2,
      "note": 67,
      "start": 48.0845,
      "duration": 0.0832,
      "velocity": 118,
      "chip": "ym2612"
    },
    {
      "channel": 0,
      "note": 43,
      "start": 48.1673,
      "duration": 0.1665,
      "velocity": 111,
      "chip": "ym2612"
    },
    {
      "channel": 2,
      "note": 65,
      "start": 48.1678,
      "duration": 0.167,
      "velocity": 118,
      "chip": "ym2612"
    },
    {
      "channel": 3,
      "note": 26,
      "start": 48.1684,
      "duration": 0.1686,
      "velocity": 127,
      "chip": "ym2612"
    },
    {
      "channel": 1,
      "note": 48,
      "start": 48.2507,
      "duration": 0.0837,
      "velocity": 118,
      "chip": "ym2612"
    },
    {
      "channel": 0,
      "note": 55,
      "start": 48.3339,
      "duration": 0.1498,
      "velocity": 111,
      "chip": "ym2612"
    },
    {
      "channel": 1,
      "note": 60,
      "start": 48.3344,
      "duration": 0.1499,
      "velocity": 118,
      "chip": "ym2612"
    },
    {
      "channel": 2,
      "note": 62,
      "start": 48.335,
      "duration": 0.1499,
      "velocity": 118,
      "chip": "ym2612"
    },
    {
      "channel": 3,
      "note": 21,
      "start": 48.3372,
      "duration": 0.1498,
      "velocity": 127,
      "chip": "ym2612"
    },
    {
      "channel": 0,
      "note": 43,
      "start": 48.4839,
      "duration": 0.1665,
      "velocity": 111,
      "chip": "ym2612"
    },
    {
      "channel": 1,
      "note": 45,
      "start": 48.4845,
      "duration": 0.0827,
      "velocity": 118,
      "chip": "ym2612"
    },
    {
      "channel": 2,
      "note": 60,
      "start": 48.485,
      "duration": 0.1665,
      "velocity": 118,
      "chip": "ym2612"
    },
    {
      "channel": 3,
      "note": 31,
      "start": 48.4872,
      "duration": 0.0806,
      "velocity": 127,
      "chip": "ym2612"
    },
    {
      "channel": 1,
      "note": 57,
      "start": 48.5673,
      "duration": 0.0837,
      "velocity": 118,
      "chip": "ym2612"
    },
    {
      "channel": 3,
      "note": 31,
      "start": 48.568,
      "duration": 0.0857,
      "velocity": 127,
      "chip": "ym2612"
    },
    {
      "channel": 0,
      "note": 45,
      "start": 48.6506,
      "duration": 0.1498,
      "velocity": 111,
      "chip": "ym2612"
    },
    {
      "channel": 1,
      "note": 50,
      "start": 48.6511,
      "duration": 0.0827,
      "velocity": 118,
      "chip": "ym2612"
    },
    {
      "channel": 2,
      "note": 69,
      "start": 48.6517,
      "duration": 0.1494,
      "velocity": 118,
      "chip": "ym2612"
    },
    {
      "channel": 3,
      "note": 26,
      "start": 48.6538,
      "duration": 0.1493,
      "velocity": 127,
      "chip": "ym2612"
    },
    {
      "channel": 1,
      "note": 62,
      "start": 48.734,
      "duration": 0.1498,
      "velocity": 118,
      "chip": "ym2612"
    },
    {
      "channel": 0,
      "note": 45,
      "start": 48.8006,
      "duration": 0.1665,
      "velocity": 111,
      "chip": "ym2612"
    },
    {
      "channel": 2,
      "note": 67,
      "start": 48.8012,
      "duration": 0.167,
      "velocity": 118,
      "chip": "ym2612"
    },
    {
      "channel": 3,
      "note": 31,
      "start": 48.8033,
      "duration": 0.0811,
      "velocity": 127,
      "chip": "ym2612"
    },
    {
      "channel": 1,
      "note": 48,
      "start": 48.884,
      "duration": 0.0837,
      "velocity": 118,
      "chip": "ym2612"
    },
    {
      "channel": 3,
      "note": 31,
      "start": 48.8846,
      "duration": 0.0858,
      "velocity": 127,
      "chip": "ym2612"
    },
    {
      "channel": 0,
      "note": 57,
      "start": 48.9673,
      "duration": 0.1665,
      "velocity": 111,
      "chip": "ym2612"
    },
    {
      "channel": 1,
      "note": 60,
      "start": 48.9678,
      "duration": 0.1665,
      "velocity": 118,
      "chip": "ym2612"
    },
    {
      "channel": 2,
      "note": 65,
      "start": 48.9683,
      "duration": 0.1665,
      "velocity": 118,
      "chip": "ym2612"
    },
    {
      "channel": 3,
      "note": 21,
      "start": 48.9705,
      "duration": 0.1665,
      "velocity": 127,
      "chip": "ym2612"
    },
    {
      "channel": 0,
      "note": 45,
      "start": 49.1339,
      "duration": 0.1498,
      "velocity": 111,
      "chip": "ym2612"
    },
    {
      "channel": 1,
      "note": 45,
      "start": 49.1345,
      "duration": 0.066,
      "velocity": 118,
      "chip": "ym2612"
    },
    {
      "channel": 2,
      "note": 62,
      "start": 49.135,
      "duration": 0.066,
      "velocity": 118,
      "chip": "ym2612"
    },
    {
      "channel": 3,
      "note": 31,
      "start": 49.1372,
      "duration": 0.066,
      "velocity": 127,
      "chip": "ym2612"
    },
    {
      "channel": 1,
      "note": 57,
      "start": 49.2007,
      "duration": 0.0837,
      "velocity": 118,
      "chip": "ym2612"
    },
    {
      "channel": 2,
      "note": 69,
      "start": 49.2012,
      "duration": 0.1666,
      "velocity": 118,
      "chip": "ym2612"
    },
    {
      "channel": 3,
      "note": 26,
      "start": 49.2033,
      "duration": 0.0815,
      "velocity": 127,
      "chip": "ym2612"
    },
    {
      "channel": 0,
      "note": 45,
      "start": 49.2839,
      "duration": 0.1665,
      "velocity": 111,
      "chip": "ym2612"
    },
    {
      "channel": 1,
      "note": 50,
      "start": 49.2844,
      "duration": 0.0827,
      "velocity": 118,
      "chip": "ym2612"
    },
    {
      "channel": 3,
      "note": 26,
      "start": 49.2851,
      "duration": 0.1665,
      "velocity": 127,
      "chip": "ym2612"
    },
    {
      "channel": 1,
      "note": 62,
      "start": 49.3673,
      "duration": 0.1665,
      "velocity": 118,
      "chip": "ym2612"
    },
    {
      "channel": 2,
      "note": 69,
      "start": 49.3678,
      "duration": 0.0832,
      "velocity": 118,
      "chip": "ym2612"
    },
    {
      "channel": 0,
      "note": 45,
      "start": 49.4506,
      "duration": 0.1498,
      "velocity": 111,
      "chip": "ym2612"
    },
    {
      "channel": 2,
      "note": 67,
      "start": 49.4512,
      "duration": 0.1504,
      "velocity": 118,
      "chip": "ym2612"
    },
    {
      "channel": 3,
      "note": 26,
      "start": 49.4517,
      "duration": 0.1519,
      "velocity": 127,
      "chip": "ym2612"
    },
    {
      "channel": 1,
      "note": 48,
      "start": 49.534,
      "duration": 0.067,
      "velocity": 118,
      "chip": "ym2612"
    },
    {
      "channel": 0,
      "note": 57,
      "start": 49.6006,
      "duration": 0.1665,
      "velocity": 111,
      "chip": "ym2612"
    },
    {
      "channel": 1,
      "note": 60,
      "start": 49.6012,
      "duration": 0.1665,
      "velocity": 118,
      "chip": "ym2612"
    },
    {
      "channel": 2,
      "note": 65,
      "start": 49.6017,
      "duration": 0.1665,
      "velocity": 118,
      "chip": "ym2612"
    },
    {
      "channel": 3,
      "note": 21,
      "start": 49.6038,
      "duration": 0.1665,
      "velocity": 127,
      "chip": "ym2612"
    },
    {
      "channel": 0,
      "note": 45,
      "start": 49.7673,
      "duration": 0.1665,
      "velocity": 111,
      "chip": "ym2612"
    },
    {
      "channel": 1,
      "note": 45,
      "start": 49.7678,
      "duration": 0.0827,
      "velocity": 118,
      "chip": "ym2612"
    },
    {
      "channel": 2,
      "note": 60,
      "start": 49.7683,
      "duration": 0.1665,
      "velocity": 118,
      "chip": "ym2612"
    },
    {
      "channel": 3,
      "note": 31,
      "start": 49.7705,
      "duration": 0.0806,
      "velocity": 127,
      "chip": "ym2612"
    },
    {
      "channel": 1,
      "note": 57,
      "start": 49.8507,
      "duration": 0.0837,
      "velocity": 118,
      "chip": "ym2612"
    },
    {
      "channel": 3,
      "note": 31,
      "start": 49.8512,
      "duration": 0.0858,
      "velocity": 127,
      "chip": "ym2612"
    },
    {
      "channel": 0,
      "note": 45,
      "start": 49.9339,
      "duration": 0.1498,
      "velocity": 111,
      "chip": "ym2612"
    },
    {
      "channel": 1,
      "note": 50,
      "start": 49.9344,
      "duration": 0.066,
      "velocity": 118,
      "chip": "ym2612"
    },
    {
      "channel": 2,
      "note": 69,
      "start": 49.935,
      "duration": 0.1494,
      "velocity": 118,
      "chip": "ym2612"
    },
    {
      "channel": 3,
      "note": 26,
      "start": 49.9372,
      "duration": 0.1493,
      "velocity": 127,
      "chip": "ym2612"
    },
    {
      "channel": 1,
      "note": 62,
      "start": 50.0007,
      "duration": 0.1665,
      "velocity": 118,
      "chip": "ym2612"
    },
    {
      "channel": 0,
      "note": 56,
      "start": 50.0839,
      "duration": 0.1665,
      "velocity": 111,
      "chip": "ym2612"
    },
    {
      "channel": 2,
      "note": 67,
      "start": 50.0845,
      "duration": 0.167,
      "velocity": 118,
      "chip": "ym2612"
    },
    {
      "channel": 3,
      "note": 31,
      "start": 50.0867,
      "duration": 0.0811,
      "velocity": 127,
      "chip": "ym2612"
    },
    {
      "channel": 1,
      "note": 48,
      "start": 50.1673,
      "duration": 0.0837,
      "velocity": 118,
      "chip": "ym2612"
    },
    {
      "channel": 3,
      "note": 31,
      "start": 50.1679,
      "duration": 0.0858,
      "velocity": 127,
      "chip": "ym2612"
    },
    {
      "channel": 0,
      "note": 43,
      "start": 50.2506,
      "duration": 0.1498,
      "velocity": 111,
      "chip": "ym2612"
    },
    {
      "channel": 1,
      "note": 60,
      "start": 50.2511,
      "duration": 0.1499,
      "velocity": 118,
      "chip": "ym2612"
    },
    {
      "channel": 2,
      "note": 65,
      "start": 50.2517,
      "duration": 0.1499,
      "velocity": 118,
      "chip": "ym2612"
    },
    {
      "channel": 3,
      "note": 21,
      "start": 50.2538,
      "duration": 0.1498,
      "velocity": 127,
      "chip": "ym2612"
    },
    {
      "channel": 0,
      "note": 55,
      "start": 50.4006,
      "duration": 0.1665,
      "velocity": 111,
      "chip": "ym2612"
    },
    {
      "channel": 1,
      "note": 45,
      "start": 50.4012,
      "duration": 0.0827,
      "velocity": 118,
      "chip": "ym2612"
    },
    {
      "channel": 2,
      "note": 62,
      "start": 50.4017,
      "duration": 0.0827,
      "velocity": 118,
      "chip": "ym2612"
    },
    {
      "channel": 3,
      "note": 31,
      "start": 50.4038,
      "duration": 0.0826,
      "velocity": 127,
      "chip": "ym2612"
    },
    {
      "channel": 1,
      "note": 57,
      "start": 50.484,
      "duration": 0.0837,
      "velocity": 118,
      "chip": "ym2612"
    },
    {
      "channel": 2,
      "note": 69,
      "start": 50.4845,
      "duration": 0.1666,
      "velocity": 118,
      "chip": "ym2612"
    },
    {
      "channel": 3,
      "note": 26,
      "start": 50.4867,
      "duration": 0.0815,
      "velocity": 127,
      "chip": "ym2612"
    },
    {
      "channel": 0,
      "note": 42,
      "start": 50.5673,
      "duration": 0.1665,
      "velocity": 111,
      "chip": "ym2612"
    },
    {
      "channel": 1,
      "note": 50,
      "start": 50.5678,
      "duration": 0.0827,
      "velocity": 118,
      "chip": "ym2612"
    },
    {
      "channel": 3,
      "note": 26,
      "start": 50.5684,
      "duration": 0.1665,
      "velocity": 127,
      "chip": "ym2612"
    },
    {
      "channel": 1,
      "note": 62,
      "start": 50.6507,
      "duration": 0.1498,
      "velocity": 118,
      "chip": "ym2612"
    },
    {
      "channel": 2,
      "note": 69,
      "start": 50.6512,
      "duration": 0.0832,
      "velocity": 118,
      "chip": "ym2612"
    },
    {
      "channel": 0,
      "note": 53,
      "start": 50.7339,
      "duration": 0.1498,
      "velocity": 111,
      "chip": "ym2612"
    },
    {
      "channel": 2,
      "note": 67,
      "start": 50.7345,
      "duration": 0.1503,
      "velocity": 118,
      "chip": "ym2612"
    },
    {
      "channel": 3,
      "note": 26,
      "start": 50.7351,
      "duration": 0.1519,
      "velocity": 127,
      "chip": "ym2612"
    },
    {
      "channel": 1,
      "note": 48,
      "start": 50.8007,
      "duration": 0.0837,
      "velocity": 118,
      "chip": "ym2612"
    },
    {
      "channel": 0,
      "note": 40,
      "start": 50.8839,
      "duration": 0.1665,
      "velocity": 111,
      "chip": "ym2612"
    },
    {
      "channel": 1,
      "note": 60,
      "start": 50.8844,
      "duration": 0.1665,
      "velocity": 118,
      "chip": "ym2612"
    },
    {
      "channel": 2,
      "note": 65,
      "start": 50.885,
      "duration": 0.1665,
      "velocity": 118,
      "chip": "ym2612"
    },
    {
      "channel": 3,
      "note": 21,
      "start": 50.8872,
      "duration": 0.0801,
      "velocity": 127,
      "chip": "ym2612"
    },
    {
      "channel": 3,
      "note": 21,
      "start": 50.9675,
      "duration": 0.0846,
      "velocity": 127,
      "chip": "ym2612"
    },
    {
      "channel": 0,
      "note": 51,
      "start": 51.0506,
      "duration": 0.1499,
      "velocity": 111,
      "chip": "ym2612"
    },
    {
      "channel": 1,
      "note": 45,
      "start": 51.0512,
      "duration": 0.0827,
      "velocity": 118,
      "chip": "ym2612"
    },
    {
      "channel": 2,
      "note": 62,
      "start": 51.0517,
      "duration": 0.1532,
      "velocity": 94,
      "chip": "ym2612"
    },
    {
      "channel": 3,
      "note": 21,
      "start": 51.0522,
      "duration": 0.1548,
      "velocity": 127,
      "chip": "ym2612"
    },
    {
      "channel": 1,
      "note": 57,
      "start": 51.134,
      "duration": 0.0687,
      "velocity": 94,
      "chip": "ym2612"
    },
    {
      "channel": 0,
      "note": 38,
      "start": 51.2007,
      "duration": 0.1663,
      "velocity": 111,
      "chip": "ym2612"
    },
    {
      "channel": 1,
      "note": 57,
      "start": 51.2029,
      "duration": 0.4814,
      "velocity": 94,
      "chip": "ym2612"
    },
    {
      "channel": 2,
      "note": 65,
      "start": 51.2051,
      "duration": 0.4798,
      "velocity": 94,
      "chip": "ym2612"
    },
    {
      "channel": 3,
      "note": 26,
      "start": 51.2072,
      "duration": 0.1621,
      "velocity": 127,
      "chip": "ym2612"
    },
    {
      "channel": 0,
      "note": 50,
      "start": 51.3672,
      "duration": 0.1665,
      "velocity": 111,
      "chip": "ym2612"
    },
    {
      "channel": 3,
      "note": 31,
      "start": 51.3695,
      "duration": 0.081,
      "velocity": 127,
      "chip": "ym2612"
    },
    {
      "channel": 3,
      "note": 31,
      "start": 51.4507,
      "duration": 0.0852,
      "velocity": 127,
      "chip": "ym2612"
    },
    {
      "channel": 0,
      "note": 48,
      "start": 51.5339,
      "duration": 0.1499,
      "velocity": 111,
      "chip": "ym2612"
    },
    {
      "channel": 3,
      "note": 21,
      "start": 51.5361,
      "duration": 0.1509,
      "velocity": 127,
      "chip": "ym2612"
    },
    {
      "channel": 0,
      "note": 43,
      "start": 51.6839,
      "duration": 0.1664,
      "velocity": 111,
      "chip": "ym2612"
    },
    {
      "channel": 1,
      "note": 59,
      "start": 51.6844,
      "duration": 0.3165,
      "velocity": 94,
      "chip": "ym2612"
    },
    {
      "channel": 2,
      "note": 67,
      "start": 51.685,
      "duration": 0.3165,
      "velocity": 94,
      "chip": "ym2612"
    },
    {
      "channel": 3,
      "note": 31,
      "start": 51.6872,
      "duration": 0.0817,
      "velocity": 127,
      "chip": "ym2612"
    },
    {
      "channel": 3,
      "note": 26,
      "start": 51.769,
      "duration": 0.082,
      "velocity": 127,
      "chip": "ym2612"
    },
    {
      "channel": 0,
      "note": 45,
      "start": 51.8505,
      "duration": 0.1499,
      "velocity": 111,
      "chip": "ym2612"
    },
    {
      "channel": 3,
      "note": 26,
      "start": 51.8512,
      "duration": 0.1509,
      "velocity": 127,
      "chip": "ym2612"
    },
    {
      "channel": 0,
      "note": 41,
      "start": 52.0006,
      "duration": 0.1664,
      "velocity": 111,
      "chip": "ym2612"
    },
    {
      "channel": 1,
      "note": 60,
      "start": 52.0011,
      "duration": 0.4832,
      "velocity": 94,
      "chip": "ym2612"
    },
    {
      "channel": 2,
      "note": 69,
      "start": 52.0017,
      "duration": 0.4831,
      "velocity": 94,
      "chip": "ym2612"
    },
    {
      "channel": 3,
      "note": 26,
      "start": 52.0022,
      "duration": 0.1671,
      "velocity": 127,
      "chip": "ym2612"
    },
    {
      "channel": 0,
      "note": 42,
      "start": 52.1672,
      "duration": 0.1665,
      "velocity": 111,
      "chip": "ym2612"
    },
    {
      "channel": 3,
      "note": 21,
      "start": 52.1694,
      "duration": 0.1665,
      "velocity": 127,
      "chip": "ym2612"
    },
    {
      "channel": 0,
      "note": 43,
      "start": 52.3339,
      "duration": 0.1499,
      "velocity": 111,
      "chip": "ym2612"
    },
    {
      "channel": 3,
      "note": 31,
      "start": 52.3361,
      "duration": 0.0644,
      "velocity": 127,
      "chip": "ym2612"
    },
    {
      "channel": 3,
      "note": 31,
      "start": 52.4007,
      "duration": 0.0863,
      "velocity": 127,
      "chip": "ym2612"
    },
    {
      "channel": 0,
      "note": 33,
      "start": 52.4839,
      "duration": 0.1664,
      "velocity": 111,
      "chip": "ym2612"
    },
    {
      "channel": 1,
      "note": 67,
      "start": 52.4844,
      "duration": 0.4832,
      "velocity": 94,
      "chip": "ym2612"
    },
    {
      "channel": 2,
      "note": 71,
      "start": 52.485,
      "duration": 0.4831,
      "velocity": 94,
      "chip": "ym2612"
    },
    {
      "channel": 3,
      "note": 26,
      "start": 52.4872,
      "duration": 0.1655,
      "velocity": 127,
      "chip": "ym2612"
    },
    {
      "channel": 0,
      "note": 33,
      "start": 52.6505,
      "duration": 0.1498,
      "velocity": 111,
      "chip": "ym2612"
    },
    {
      "channel": 3,
      "note": 31,
      "start": 52.6528,
      "duration": 0.0811,
      "velocity": 127,
      "chip": "ym2612"
    },
    {
      "channel": 3,
      "note": 31,
      "start": 52.7341,
      "duration": 0.0685,
      "velocity": 127,
      "chip": "ym2612"
    },
    {
      "channel": 0,
      "note": 45,
      "start": 52.8005,
      "duration": 0.1666,
      "velocity": 111,
      "chip": "ym2612"
    },
    {
      "channel": 3,
      "note": 21,
      "start": 52.8028,
      "duration": 0.1676,
      "velocity": 127,
      "chip": "ym2612"
    },
    {
      "channel": 0,
      "note": 33,
      "start": 52.9673,
      "duration": 0.1664,
      "velocity": 111,
      "chip": "ym2612"
    },
    {
      "channel": 1,
      "note": 69,
      "start": 52.9678,
      "duration": 0.3165,
      "velocity": 94,
      "chip": "ym2612"
    },
    {
      "channel": 2,
      "note": 72,
      "start": 52.9683,
      "duration": 0.3165,
      "velocity": 94,
      "chip": "ym2612"
    },
    {
      "channel": 3,
      "note": 31,
      "start": 52.9705,
      "duration": 0.0817,
      "velocity": 127,
      "chip": "ym2612"
    },
    {
      "channel": 3,
      "note": 26,
      "start": 53.0524,
      "duration": 0.082,
      "velocity": 127,
      "chip": "ym2612"
    },
    {
      "channel": 0,
      "note": 45,
      "start": 53.1339,
      "duration": 0.1499,
      "velocity": 111,
      "chip": "ym2612"
    },
    {
      "channel": 3,
      "note": 26,
      "start": 53.1346,
      "duration": 0.1508,
      "velocity": 127,
      "chip": "ym2612"
    },
    {
      "channel": 0,
      "note": 33,
      "start": 53.2839,
      "duration": 0.1664,
      "velocity": 111,
      "chip": "ym2612"
    },
    {
      "channel": 1,
      "note": 71,
      "start": 53.2844,
      "duration": 0.4832,
      "velocity": 94,
      "chip": "ym2612"
    },
    {
      "channel": 2,
      "note": 74,
      "start": 53.285,
      "duration": 0.4831,
      "velocity": 94,
      "chip": "ym2612"
    },
    {
      "channel": 3,
      "note": 26,
      "start": 53.2856,
      "duration": 0.1671,
      "velocity": 127,
      "chip": "ym2612"
    },
    {
      "channel": 0,
      "note": 43,
      "start": 53.4505,
      "duration": 0.1498,
      "velocity": 111,
      "chip": "ym2612"
    },
    {
      "channel": 3,
      "note": 21,
      "start": 53.4528,
      "duration": 0.1498,
      "velocity": 127,
      "chip": "ym2612"
    },
    {
      "channel": 0,
      "note": 45,
      "start": 53.6005,
      "duration": 0.1666,
      "velocity": 111,
      "chip": "ym2612"
    },
    {
      "channel": 3,
      "note": 31,
      "start": 53.6028,
      "duration": 0.0811,
      "velocity": 127,
      "chip": "ym2612"
    },
    {
      "channel": 3,
      "note": 31,
      "start": 53.6841,
      "duration": 0.0863,
      "velocity": 127,
      "chip": "ym2612"
    },
    {
      "channel": 0,
      "note": 38,
      "start": 53.7673,
      "duration": 0.1664,
      "velocity": 111,
      "chip": "ym2612"
    },
    {
      "channel": 1,
      "note": 57,
      "start": 53.7678,
      "duration": 0.4832,
      "velocity": 94,
      "chip": "ym2612"
    },
    {
      "channel": 2,
      "note": 65,
      "start": 53.7683,
      "duration": 0.4832,
      "velocity": 94,
      "chip": "ym2612"
    },
    {
      "channel": 3,
      "note": 26,
      "start": 53.7705,
      "duration": 0.1655,
      "velocity": 127,
      "chip": "ym2612"
    },
    {
      "channel": 0,
      "note": 38,
      "start": 53.9339,
      "duration": 0.1498,
      "velocity": 111,
      "chip": "ym2612"
    },
    {
      "channel": 3,
      "note": 31,
      "start": 53.9361,
      "duration": 0.0644,
      "velocity": 127,
      "chip": "ym2612"
    },
    {
      "channel": 3,
      "note": 31,
      "start": 54.0007,
      "duration": 0.0852,
      "velocity": 127,
      "chip": "ym2612"
    },
    {
      "channel": 0,
      "note": 50,
      "start": 54.0839,
      "duration": 0.1666,
      "velocity": 111,
      "chip": "ym2612"
    },
    {
      "channel": 3,
      "note": 21,
      "start": 54.0861,
      "duration": 0.1676,
      "velocity": 127,
      "chip": "ym2612"
    },
    {
      "channel": 0,
      "note": 38,
      "start": 54.2506,
      "duration": 0.1498,
      "velocity": 111,
      "chip": "ym2612"
    },
    {
      "channel": 1,
      "note": 59,
      "start": 54.2512,
      "duration": 0.3165,
      "velocity": 94,
      "chip": "ym2612"
    },
    {
      "channel": 2,
      "note": 67,
      "start": 54.2517,
      "duration": 0.3165,
      "velocity": 94,
      "chip": "ym2612"
    },
    {
      "channel": 3,
      "note": 31,
      "start": 54.2538,
      "duration": 0.0817,
      "velocity": 127,
      "chip": "ym2612"
    },
    {
      "channel": 3,
      "note": 26,
      "start": 54.3357,
      "duration": 0.0653,
      "velocity": 127,
      "chip": "ym2612"
    },
    {
      "channel": 0,
      "note": 50,
      "start": 54.4005,
      "duration": 0.1666,
      "velocity": 111,
      "chip": "ym2612"
    },
    {
      "channel": 3,
      "note": 26,
      "start": 54.4012,
      "duration": 0.1676,
      "velocity": 127,
      "chip": "ym2612"
    },
    {
      "channel": 0,
      "note": 38,
      "start": 54.5673,
      "duration": 0.1664,
      "velocity": 111,
      "chip": "ym2612"
    },
    {
      "channel": 1,
      "note": 60,
      "start": 54.5678,
      "duration": 0.7998,
      "velocity": 94,
      "chip": "ym2612"
    },
    {
      "channel": 2,
      "note": 69,
      "start": 54.5683,
      "duration": 0.7999,
      "velocity": 94,
      "chip": "ym2612"
    },
    {
      "channel": 3,
      "note": 26,
      "start": 54.5689,
      "duration": 0.1671,
      "velocity": 127,
      "chip": "ym2612"
    },
    {
      "channel": 0,
      "note": 48,
      "start": 54.7339,
      "duration": 0.1498,
      "velocity": 111,
      "chip": "ym2612"
    },
    {
      "channel": 3,
      "note": 21,
      "start": 54.7361,
      "duration": 0.1498,
      "velocity": 127,
      "chip": "ym2612"
    },
    {
      "channel": 0,
      "note": 50,
      "start": 54.8839,
      "duration": 0.1665,
      "velocity": 111,
      "chip": "ym2612"
    },
    {
      "channel": 3,
      "note": 31,
      "start": 54.8861,
      "duration": 0.0811,
      "velocity": 127,
      "chip": "ym2612"
    },
    {
      "channel": 3,
      "note": 31,
      "start": 54.9674,
      "duration": 0.0852,
      "velocity": 127,
      "chip": "ym2612"
    },
    {
      "channel": 0,
      "note": 33,
      "start": 55.0505,
      "duration": 0.1498,
      "velocity": 111,
      "chip": "ym2612"
    },
    {
      "channel": 3,
      "note": 26,
      "start": 55.0528,
      "duration": 0.1499,
      "velocity": 127,
      "chip": "ym2612"
    },
    {
      "channel": 0,
      "note": 33,
      "start": 55.2005,
      "duration": 0.1666,
      "velocity": 111,
      "chip": "ym2612"
    },
    {
      "channel": 3,
      "note": 31,
      "start": 55.2028,
      "duration": 0.0811,
      "velocity": 127,
      "chip": "ym2612"
    },
    {
      "channel": 3,
      "note": 31,
      "start": 55.2841,
      "duration": 0.0863,
      "velocity": 127,
      "chip": "ym2612"
    },
    {
      "channel": 0,
      "note": 45,
      "start": 55.3673,
      "duration": 0.1665,
      "velocity": 111,
      "chip": "ym2612"
    },
    {
      "channel": 1,
      "note": 67,
      "start": 55.3678,
      "duration": 0.1665,
      "velocity": 94,
      "chip": "ym2612"
    },
    {
      "channel": 2,
      "note": 71,
      "start": 55.3683,
      "duration": 0.1665,
      "velocity": 94,
      "chip": "ym2612"
    },
    {
      "channel": 3,
      "note": 21,
      "start": 55.3705,
      "duration": 0.1665,
      "velocity": 127,
      "chip": "ym2612"
    },
    {
      "channel": 0,
      "note": 33,
      "start": 55.5339,
      "duration": 0.1498,
      "velocity": 111,
      "chip": "ym2612"
    },
    {
      "channel": 1,
      "note": 69,
      "start": 55.5344,
      "duration": 0.3165,
      "velocity": 94,
      "chip": "ym2612"
    },
    {
      "channel": 2,
      "note": 72,
      "start": 55.535,
      "duration": 0.3165,
      "velocity": 94,
      "chip": "ym2612"
    },
    {
      "channel": 3,
      "note": 31,
      "start": 55.5372,
      "duration": 0.065,
      "velocity": 127,
      "chip": "ym2612"
    },
    {
      "channel": 3,
      "note": 26,
      "start": 55.6024,
      "duration": 0.082,
      "velocity": 127,
      "chip": "ym2612"
    },
    {
      "channel": 0,
      "note": 45,
      "start": 55.6839,
      "duration": 0.1666,
      "velocity": 111,
      "chip": "ym2612"
    },
    {
      "channel": 3,
      "note": 26,
      "start": 55.6845,
      "duration": 0.1676,
      "velocity": 127,
      "chip": "ym2612"
    },
    {
      "channel": 0,
      "note": 33,
      "start": 55.8506,
      "duration": 0.1498,
      "velocity": 111,
      "chip": "ym2612"
    },
    {
      "channel": 1,
      "note": 71,
      "start": 55.8512,
      "duration": 0.1498,
      "velocity": 94,
      "chip": "ym2612"
    },
    {
      "channel": 2,
      "note": 74,
      "start": 55.8517,
      "duration": 0.1498,
      "velocity": 94,
      "chip": "ym2612"
    },
    {
      "channel": 3,
      "note": 26,
      "start": 55.8522,
      "duration": 0.1514,
      "velocity": 127,
      "chip": "ym2612"
    },
    {
      "channel": 0,
      "note": 43,
      "start": 56.0006,
      "duration": 0.1664,
      "velocity": 111,
      "chip": "ym2612"
    },
    {
      "channel": 1,
      "note": 64,
      "start": 56.0011,
      "duration": 0.3334,
      "velocity": 94,
      "chip": "ym2612"
    },
    {
      "channel": 2,
      "note": 69,
      "start": 56.0017,
      "duration": 0.3334,
      "velocity": 94,
      "chip": "ym2612"
    },
    {
      "channel": 3,
      "note": 21,
      "start": 56.0038,
      "duration": 0.0801,
      "velocity": 127,
      "chip": "ym2612"
    },
    {
      "channel": 3,
      "note": 21,
      "start": 56.0841,
      "duration": 0.0836,
      "velocity": 127,
      "chip": "ym2612"
    },
    {
      "channel": 0,
      "note": 45,
      "start": 56.1672,
      "duration": 0.1667,
      "velocity": 111,
      "chip": "ym2612"
    },
    {
      "channel": 3,
      "note": 21,
      "start": 56.1678,
      "duration": 0.1694,
      "velocity": 127,
      "chip": "ym2612"
    },
    {
      "channel": 0,
      "note": 38,
      "start": 56.3341,
      "duration": 0.1497,
      "velocity": 111,
      "chip": "ym2612"
    },
    {
      "channel": 1,
      "note": 57,
      "start": 56.3346,
      "duration": 0.4663,
      "velocity": 94,
      "chip": "ym2612"
    },
    {
      "channel": 2,
      "note": 65,
      "start": 56.3353,
      "duration": 0.4663,
      "velocity": 94,
      "chip": "ym2612"
    },
    {
      "channel": 3,
      "note": 26,
      "start": 56.3374,
      "duration": 0.1485,
      "velocity": 127,
      "chip": "ym2612"
    },
    {
      "channel": 0,
      "note": 50,
      "start": 56.4839,
      "duration": 0.1665,
      "velocity": 111,
      "chip": "ym2612"
    },
    {
      "channel": 3,
      "note": 31,
      "start": 56.4861,
      "duration": 0.081,
      "velocity": 127,
      "chip": "ym2612"
    },
    {
      "channel": 3,
      "note": 31,
      "start": 56.5674,
      "duration": 0.0852,
      "velocity": 127,
      "chip": "ym2612"
    },
    {
      "channel": 0,
      "note": 48,
      "start": 56.6505,
      "duration": 0.1499,
      "velocity": 111,
      "chip": "ym2612"
    },
    {
      "channel": 3,
      "note": 21,
      "start": 56.6528,
      "duration": 0.1509,
      "velocity": 127,
      "chip": "ym2612"
    },
    {
      "channel": 0,
      "note": 43,
      "start": 56.8006,
      "duration": 0.1664,
      "velocity": 111,
      "chip": "ym2612"
    },
    {
      "channel": 1,
      "note": 59,
      "start": 56.8012,
      "duration": 0.3332,
      "velocity": 94,
      "chip": "ym2612"
    },
    {
      "channel": 2,
      "note": 67,
      "start": 56.8017,
      "duration": 0.3331,
      "velocity": 94,
      "chip": "ym2612"
    },
    {
      "channel": 3,
      "note": 31,
      "start": 56.8038,
      "duration": 0.0817,
      "velocity": 127,
      "chip": "ym2612"
    },
    {
      "channel": 3,
      "note": 26,
      "start": 56.8857,
      "duration": 0.082,
      "velocity": 127,
      "chip": "ym2612"
    },
    {
      "channel": 0,
      "note": 45,
      "start": 56.9672,
      "duration": 0.1666,
      "velocity": 111,
      "chip": "ym2612"
    },
    {
      "channel": 3,
      "note": 26,
      "start": 56.9678,
      "duration": 0.1676,
      "velocity": 127,
      "chip": "ym2612"
    },
    {
      "channel": 0,
      "note": 41,
      "start": 57.1339,
      "duration": 0.1498,
      "velocity": 111,
      "chip": "ym2612"
    },
    {
      "channel": 1,
      "note": 60,
      "start": 57.1344,
      "duration": 0.4665,
      "velocity": 94,
      "chip": "ym2612"
    },
    {
      "channel": 2,
      "note": 69,
      "start": 57.135,
      "duration": 0.4665,
      "velocity": 94,
      "chip": "ym2612"
    },
    {
      "channel": 3,
      "note": 26,
      "start": 57.1356,
      "duration": 0.1503,
      "velocity": 127,
      "chip": "ym2612"
    },
    {
      "channel": 0,
      "note": 42,
      "start": 57.2839,
      "duration": 0.1665,
      "velocity": 111,
      "chip": "ym2612"
    },
    {
      "channel": 3,
      "note": 21,
      "start": 57.2861,
      "duration": 0.1665,
      "velocity": 127,
      "chip": "ym2612"
    },
    {
      "channel": 0,
      "note": 43,
      "start": 57.4505,
      "duration": 0.1499,
      "velocity": 111,
      "chip": "ym2612"
    },
    {
      "channel": 3,
      "note": 31,
      "start": 57.4528,
      "duration": 0.0811,
      "velocity": 127,
      "chip": "ym2612"
    },
    {
      "channel": 3,
      "note": 31,
      "start": 57.5341,
      "duration": 0.0696,
      "velocity": 127,
      "chip": "ym2612"
    },
    {
      "channel": 0,
      "note": 33,
      "start": 57.6006,
      "duration": 0.1664,
      "velocity": 111,
      "chip": "ym2612"
    },
    {
      "channel": 1,
      "note": 67,
      "start": 57.6012,
      "duration": 0.4832,
      "velocity": 94,
      "chip": "ym2612"
    },
    {
      "channel": 2,
      "note": 71,
      "start": 57.6017,
      "duration": 0.4831,
      "velocity": 94,
      "chip": "ym2612"
    },
    {
      "channel": 3,
      "note": 26,
      "start": 57.6038,
      "duration": 0.1654,
      "velocity": 127,
      "chip": "ym2612"
    },
    {
      "channel": 0,
      "note": 33,
      "start": 57.7672,
      "duration": 0.1665,
      "velocity": 111,
      "chip": "ym2612"
    },
    {
      "channel": 3,
      "note": 31,
      "start": 57.7694,
      "duration": 0.0811,
      "velocity": 127,
      "chip": "ym2612"
    },
    {
      "channel": 3,
      "note": 31,
      "start": 57.8507,
      "duration": 0.0852,
      "velocity": 127,
      "chip": "ym2612"
    },
    {
      "channel": 0,
      "note": 45,
      "start": 57.9339,
      "duration": 0.1499,
      "velocity": 111,
      "chip": "ym2612"
    },
    {
      "channel": 3,
      "note": 21,
      "start": 57.9361,
      "duration": 0.1509,
      "velocity": 127,
      "chip": "ym2612"
    },
    {
      "channel": 0,
      "note": 33,
      "start": 58.0839,
      "duration": 0.1664,
      "velocity": 111,
      "chip": "ym2612"
    },
    {
      "channel": 1,
      "note": 69,
      "start": 58.0844,
      "duration": 0.3165,
      "velocity": 94,
      "chip": "ym2612"
    },
    {
      "channel": 2,
      "note": 72,
      "start": 58.085,
      "duration": 0.3165,
      "velocity": 94,
      "chip": "ym2612"
    },
    {
      "channel": 3,
      "note": 31,
      "start": 58.0872,
      "duration": 0.0817,
      "velocity": 127,
      "chip": "ym2612"
    },
    {
      "channel": 3,
      "note": 26,
      "start": 58.169,
      "duration": 0.0821,
      "velocity": 127,
      "chip": "ym2612"
    },
    {
      "channel": 0,
      "note": 45,
      "start": 58.2505,
      "duration": 0.1499,
      "velocity": 111,
      "chip": "ym2612"
    },
    {
      "channel": 3,
      "note": 26,
      "start": 58.2512,
      "duration": 0.1509,
      "velocity": 127,
      "chip": "ym2612"
    },
    {
      "channel": 0,
      "note": 33,
      "start": 58.4006,
      "duration": 0.1664,
      "velocity": 111,
      "chip": "ym2612"
    },
    {
      "channel": 1,
      "note": 71,
      "start": 58.4011,
      "duration": 0.4832,
      "velocity": 94,
      "chip": "ym2612"
    },
    {
      "channel": 2,
      "note": 74,
      "start": 58.4017,
      "duration": 0.4831,
      "velocity": 94,
      "chip": "ym2612"
    },
    {
      "channel": 3,
      "note": 26,
      "start": 58.4022,
      "duration": 0.167,
      "velocity": 127,
      "chip": "ym2612"
    },
    {
      "channel": 0,
      "note": 43,
      "start": 58.5672,
      "duration": 0.1665,
      "velocity": 111,
      "chip": "ym2612"
    },
    {
      "channel": 3,
      "note": 21,
      "start": 58.5694,
      "duration": 0.1665,
      "velocity": 127,
      "chip": "ym2612"
    },
    {
      "channel": 0,
      "note": 45,
      "start": 58.7339,
      "duration": 0.1499,
      "velocity": 111,
      "chip": "ym2612"
    },
    {
      "channel": 3,
      "note": 31,
      "start": 58.7361,
      "duration": 0.0644,
      "velocity": 127,
      "chip": "ym2612"
    },
    {
      "channel": 3,
      "note": 31,
      "start": 58.8007,
      "duration": 0.0863,
      "velocity": 127,
      "chip": "ym2612"
    },
    {
      "channel": 0,
      "note": 38,
      "start": 58.8839,
      "duration": 0.1664,
      "velocity": 111,
      "chip": "ym2612"
    },
    {
      "channel": 1,
      "note": 57,
      "start": 58.8844,
      "duration": 0.4832,
      "velocity": 94,
      "chip": "ym2612"
    },
    {
      "channel": 2,
      "note": 65,
      "start": 58.885,
      "duration": 0.4832,
      "velocity": 94,
      "chip": "ym2612"
    },
    {
      "channel": 3,
      "note": 26,
      "start": 58.8872,
      "duration": 0.1654,
      "velocity": 127,
      "chip": "ym2612"
    },
    {
      "channel": 0,
      "note": 38,
      "start": 59.0505,
      "duration": 0.1498,
      "velocity": 111,
      "chip": "ym2612"
    },
    {
      "channel": 3,
      "note": 31,
      "start": 59.0528,
      "duration": 0.0811,
      "velocity": 127,
      "chip": "ym2612"
    },
    {
      "channel": 3,
      "note": 31,
      "start": 59.1341,
      "duration": 0.0686,
      "velocity": 127,
      "chip": "ym2612"
    },
    {
      "channel": 0,
      "note": 50,
      "start": 59.2005,
      "duration": 0.1666,
      "velocity": 111,
      "chip": "ym2612"
    },
    {
      "channel": 3,
      "note": 21,
      "start": 59.2028,
      "duration": 0.1676,
      "velocity": 127,
      "chip": "ym2612"
    },
    {
      "channel": 0,
      "note": 38,
      "start": 59.3673,
      "duration": 0.1664,
      "velocity": 111,
      "chip": "ym2612"
    },
    {
      "channel": 1,
      "note": 59,
      "start": 59.3678,
      "duration": 0.3165,
      "velocity": 94,
      "chip": "ym2612"
    },
    {
      "channel": 2,
      "note": 67,
      "start": 59.3683,
      "duration": 0.3165,
      "velocity": 94,
      "chip": "ym2612"
    },
    {
      "channel": 3,
      "note": 31,
      "start": 59.3705,
      "duration": 0.0817,
      "velocity": 127,
      "chip": "ym2612"
    },
    {
      "channel": 3,
      "note": 26,
      "start": 59.4524,
      "duration": 0.082,
      "velocity": 127,
      "chip": "ym2612"
    },
    {
      "channel": 0,
      "note": 50,
      "start": 59.5339,
      "duration": 0.1499,
      "velocity": 111,
      "chip": "ym2612"
    },
    {
      "channel": 3,
      "note": 26,
      "start": 59.5346,
      "duration": 0.1508,
      "velocity": 127,
      "chip": "ym2612"
    },
    {
      "channel": 0,
      "note": 38,
      "start": 59.6839,
      "duration": 0.1664,
      "velocity": 111,
      "chip": "ym2612"
    },
    {
      "channel": 1,
      "note": 60,
      "start": 59.6844,
      "duration": 0.7999,
      "velocity": 94,
      "chip": "ym2612"
    },
    {
      "channel": 2,
      "note": 69,
      "start": 59.685,
      "duration": 0.7999,
      "velocity": 94,
      "chip": "ym2612"
    },
    {
      "channel": 3,
      "note": 26,
      "start": 59.6856,
      "duration": 0.167,
      "velocity": 127,
      "chip": "ym2612"
    },
    {
      "channel": 0,
      "note": 48,
      "start": 59.8505,
      "duration": 0.1498,
      "velocity": 111,
      "chip": "ym2612"
    },
    {
      "channel": 3,
      "note": 21,
      "start": 59.8528,
      "duration": 0.1499,
      "velocity": 127,
      "chip": "ym2612"
    },
    {
      "channel": 0,
      "note": 50,
      "start": 60.0005,
      "duration": 0.1665,
      "velocity": 111,
      "chip": "ym2612"
    },
    {
      "channel": 3,
      "note": 31,
      "start": 60.0028,
      "duration": 0.0811,
      "velocity": 127,
      "chip": "ym2612"
    },
    {
      "channel": 3,
      "note": 31,
      "start": 60.0841,
      "duration": 0.0852,
      "velocity": 127,
      "chip": "ym2612"
    },
    {
      "channel": 0,
      "note": 33,
      "start": 60.1672,
      "duration": 0.1665,
      "velocity": 111,
      "chip": "ym2612"
    },
    {
      "channel": 3,
      "note": 26,
      "start": 60.1694,
      "duration": 0.1665,
      "velocity": 127,
      "chip": "ym2612"
    },
    {
      "channel": 0,
      "note": 33,
      "start": 60.3339,
      "duration": 0.1499,
      "velocity": 111,
      "chip": "ym2612"
    },
    {
      "channel": 3,
      "note": 31,
      "start": 60.3361,
      "duration": 0.0644,
      "velocity": 127,
      "chip": "ym2612"
    },
    {
      "channel": 3,
      "note": 31,
      "start": 60.4007,
      "duration": 0.0863,
      "velocity": 127,
      "chip": "ym2612"
    },
    {
      "channel": 0,
      "note": 45,
      "start": 60.4839,
      "duration": 0.1665,
      "velocity": 111,
      "chip": "ym2612"
    },
    {
      "channel": 1,
      "note": 67,
      "start": 60.4845,
      "duration": 0.1665,
      "velocity": 94,
      "chip": "ym2612"
    },
    {
      "channel": 2,
      "note": 71,
      "start": 60.485,
      "duration": 0.1665,
      "velocity": 94,
      "chip": "ym2612"
    },
    {
      "channel": 3,
      "note": 21,
      "start": 60.4872,
      "duration": 0.1665,
      "velocity": 127,
      "chip": "ym2612"
    },
    {
      "channel": 0,
      "note": 33,
      "start": 60.6506,
      "duration": 0.1498,
      "velocity": 111,
      "chip": "ym2612"
    },
    {
      "channel": 1,
      "note": 69,
      "start": 60.6512,
      "duration": 0.3165,
      "velocity": 94,
      "chip": "ym2612"
    },
    {
      "channel": 2,
      "note": 72,
      "start": 60.6517,
      "duration": 0.3165,
      "velocity": 94,
      "chip": "ym2612"
    },
    {
      "channel": 3,
      "note": 31,
      "start": 60.6538,
      "duration": 0.0817,
      "velocity": 127,
      "chip": "ym2612"
    },
    {
      "channel": 3,
      "note": 26,
      "start": 60.7357,
      "duration": 0.0653,
      "velocity": 127,
      "chip": "ym2612"
    },
    {
      "channel": 0,
      "note": 45,
      "start": 60.8005,
      "duration": 0.1666,
      "velocity": 111,
      "chip": "ym2612"
    },
    {
      "channel": 3,
      "note": 26,
      "start": 60.8012,
      "duration": 0.1676,
      "velocity": 127,
      "chip": "ym2612"
    },
    {
      "channel": 0,
      "note": 33,
      "start": 60.9673,
      "duration": 0.1665,
      "velocity": 111,
      "chip": "ym2612"
    },
    {
      "channel": 1,
      "note": 71,
      "start": 60.9678,
      "duration": 0.1665,
      "velocity": 94,
      "chip": "ym2612"
    },
    {
      "channel": 2,
      "note": 74,
      "start": 60.9683,
      "duration": 0.1665,
      "velocity": 94,
      "chip": "ym2612"
    },
    {
      "channel": 3,
      "note": 26,
      "start": 60.9689,
      "duration": 0.1681,
      "velocity": 127,
      "chip": "ym2612"
    },
    {
      "channel": 0,
      "note": 43,
      "start": 61.1339,
      "duration": 0.1498,
      "velocity": 111,
      "chip": "ym2612"
    },
    {
      "channel": 1,
      "note": 64,
      "start": 61.1344,
      "duration": 0.3183,
      "velocity": 114,
      "chip": "ym2612"
    },
    {
      "channel": 2,
      "note": 69,
      "start": 61.135,
      "duration": 0.3198,
      "velocity": 114,
      "chip": "ym2612"
    },
    {
      "channel": 3,
      "note": 21,
      "start": 61.1372,
      "duration": 0.0634,
      "velocity": 127,
      "chip": "ym2612"
    },
    {
      "channel": 3,
      "note": 21,
      "start": 61.2008,
      "duration": 0.0836,
      "velocity": 127,
      "chip": "ym2612"
    },
    {
      "channel": 0,
      "note": 45,
      "start": 61.2839,
      "duration": 0.1667,
      "velocity": 111,
      "chip": "ym2612"
    },
    {
      "channel": 3,
      "note": 21,
      "start": 61.2845,
      "duration": 0.1725,
      "velocity": 127,
      "chip": "ym2612"
    },
    {
      "channel": 0,
      "note": 38,
      "start": 61.4507,
      "duration": 0.1497,
      "velocity": 111,
      "chip": "ym2612"
    },
    {
      "channel": 1,
      "note": 74,
      "start": 61.4529,
      "duration": 0.1481,
      "velocity": 114,
      "chip": "ym2612"
    },
    {
      "channel": 2,
      "note": 74,
      "start": 61.455,
      "duration": 0.1465,
      "velocity": 114,
      "chip": "ym2612"
    },
    {
      "channel": 3,
      "note": 26,
      "start": 61.4571,
      "duration": 0.1465,
      "velocity": 127,
      "chip": "ym2612"
    },
    {
      "channel": 0,
      "note": 38,
      "start": 61.6006,
      "duration": 0.1665,
      "velocity": 111,
      "chip": "ym2612"
    },
    {
      "channel": 1,
      "note": 62,
      "start": 61.6011,
      "duration": 0.1665,
      "velocity": 114,
      "chip": "ym2612"
    },
    {
      "channel": 2,
      "note": 62,
      "start": 61.6017,
      "duration": 0.1665,
      "velocity": 114,
      "chip": "ym2612"
    },
    {
      "channel": 3,
      "note": 31,
      "start": 61.6038,
      "duration": 0.0817,
      "velocity": 127,
      "chip": "ym2612"
    },
    {
      "channel": 3,
      "note": 31,
      "start": 61.6856,
      "duration": 0.0847,
      "velocity": 127,
      "chip": "ym2612"
    },
    {
      "channel": 0,
      "note": 36,
      "start": 61.7673,
      "duration": 0.1665,
      "velocity": 111,
      "chip": "ym2612"
    },
    {
      "channel": 1,
      "note": 67,
      "start": 61.7678,
      "duration": 0.1665,
      "velocity": 114,
      "chip": "ym2612"
    },
    {
      "channel": 2,
      "note": 67,
      "start": 61.7683,
      "duration": 0.1665,
      "velocity": 114,
      "chip": "ym2612"
    },
    {
      "channel": 3,
      "note": 21,
      "start": 61.7705,
      "duration": 0.1665,
      "velocity": 127,
      "chip": "ym2612"
    },
    {
      "channel": 0,
      "note": 38,
      "start": 61.9339,
      "duration": 0.1498,
      "velocity": 111,
      "chip": "ym2612"
    },
    {
      "channel": 1,
      "note": 69,
      "start": 61.9344,
      "duration": 0.1499,
      "velocity": 114,
      "chip": "ym2612"
    },
    {
      "channel": 2,
      "note": 69,
      "start": 61.935,
      "duration": 0.1499,
      "velocity": 114,
      "chip": "ym2612"
    },
    {
      "channel": 3,
      "note": 31,
      "start": 61.9372,
      "duration": 0.065,
      "velocity": 127,
      "chip": "ym2612"
    },
    {
      "channel": 3,
      "note": 26,
      "start": 62.0024,
      "duration": 0.083,
      "velocity": 127,
      "chip": "ym2612"
    },
    {
      "channel": 0,
      "note": 38,
      "start": 62.0839,
      "duration": 0.1665,
      "velocity": 111,
      "chip": "ym2612"
    },
    {
      "channel": 1,
      "note": 77,
      "start": 62.0845,
      "duration": 0.1665,
      "velocity": 114,
      "chip": "ym2612"
    },
    {
      "channel": 2,
      "note": 77,
      "start": 62.085,
      "duration": 0.1665,
      "velocity": 114,
      "chip": "ym2612"
    },
    {
      "channel": 3,
      "note": 26,
      "start": 62.0856,
      "duration": 0.1665,
      "velocity": 127,
      "chip": "ym2612"
    },
    {
      "channel": 0,
      "note": 36,
      "start": 62.2506,
      "duration": 0.1498,
      "velocity": 111,
      "chip": "ym2612"
    },
    {
      "channel": 1,
      "note": 62,
      "start": 62.2511,
      "duration": 0.1499,
      "velocity": 114,
      "chip": "ym2612"
    },
    {
      "channel": 2,
      "note": 62,
      "start": 62.2517,
      "duration": 0.1499,
      "velocity": 114,
      "chip": "ym2612"
    },
    {
      "channel": 3,
      "note": 26,
      "start": 62.2522,
      "duration": 0.1514,
      "velocity": 127,
      "chip": "ym2612"
    },
    {
      "channel": 0,
      "note": 38,
      "start": 62.4006,
      "duration": 0.1665,
      "velocity": 111,
      "chip": "ym2612"
    },
    {
      "channel": 1,
      "note": 67,
      "start": 62.4012,
      "duration": 0.1665,
      "velocity": 114,
      "chip": "ym2612"
    },
    {
      "channel": 2,
      "note": 67,
      "start": 62.4017,
      "duration": 0.1665,
      "velocity": 114,
      "chip": "ym2612"
    },
    {
      "channel": 3,
      "note": 21,
      "start": 62.4038,
      "duration": 0.1665,
      "velocity": 127,
      "chip": "ym2612"
    },
    {
      "channel": 0,
      "note": 36,
      "start": 62.5673,
      "duration": 0.1665,
      "velocity": 111,
      "chip": "ym2612"
    },
    {
      "channel": 1,
      "note": 69,
      "start": 62.5678,
      "duration": 0.1665,
      "velocity": 114,
      "chip": "ym2612"
    },
    {
      "channel": 2,
      "note": 69,
      "start": 62.5683,
      "duration": 0.1665,
      "velocity": 114,
      "chip": "ym2612"
    },
    {
      "channel": 3,
      "note": 31,
      "start": 62.5705,
      "duration": 0.0801,
      "velocity": 127,
      "chip": "ym2612"
    },
    {
      "channel": 3,
      "note": 31,
      "start": 62.6508,
      "duration": 0.0862,
      "velocity": 127,
      "chip": "ym2612"
    },
    {
      "channel": 0,
      "note": 38,
      "start": 62.7339,
      "duration": 0.1498,
      "velocity": 111,
      "chip": "ym2612"
    },
    {
      "channel": 1,
      "note": 74,
      "start": 62.7344,
      "duration": 0.1499,
      "velocity": 114,
      "chip": "ym2612"
    },
    {
      "channel": 2,
      "note": 74,
      "start": 62.735,
      "duration": 0.1498,
      "velocity": 114,
      "chip": "ym2612"
    },
    {
      "channel": 3,
      "note": 26,
      "start": 62.7372,
      "duration": 0.1498,
      "velocity": 127,
      "chip": "ym2612"
    },
    {
      "channel": 0,
      "note": 38,
      "start": 62.8839,
      "duration": 0.1665,
      "velocity": 111,
      "chip": "ym2612"
    },
    {
      "channel": 1,
      "note": 62,
      "start": 62.8844,
      "duration": 0.1665,
      "velocity": 114,
      "chip": "ym2612"
    },
    {
      "channel": 2,
      "note": 62,
      "start": 62.885,
      "duration": 0.1665,
      "velocity": 114,
      "chip": "ym2612"
    },
    {
      "channel": 3,
      "note": 31,
      "start": 62.8872,
      "duration": 0.0801,
      "velocity": 127,
      "chip": "ym2612"
    },
    {
      "channel": 3,
      "note": 31,
      "start": 62.9675,
      "duration": 0.0862,
      "velocity": 127,
      "chip": "ym2612"
    },
    {
      "channel": 0,
      "note": 36,
      "start": 63.0506,
      "duration": 0.1498,
      "velocity": 111,
      "chip": "ym2612"
    },
    {
      "channel": 1,
      "note": 67,
      "start": 63.0512,
      "duration": 0.1498,
      "velocity": 114,
      "chip": "ym2612"
    },
    {
      "channel": 2,
      "note": 67,
      "start": 63.0517,
      "duration": 0.1498,
      "velocity": 114,
      "chip": "ym2612"
    },
    {
      "channel": 3,
      "note": 21,
      "start": 63.0538,
      "duration": 0.1498,
      "velocity": 127,
      "chip": "ym2612"
    },
    {
      "channel": 0,
      "note": 38,
      "start": 63.2006,
      "duration": 0.1665,
      "velocity": 111,
      "chip": "ym2612"
    },
    {
      "channel": 1,
      "note": 77,
      "start": 63.2011,
      "duration": 0.1665,
      "velocity": 114,
      "chip": "ym2612"
    },
    {
      "channel": 2,
      "note": 77,
      "start": 63.2017,
      "duration": 0.1665,
      "velocity": 114,
      "chip": "ym2612"
    },
    {
      "channel": 3,
      "note": 31,
      "start": 63.2038,
      "duration": 0.0817,
      "velocity": 127,
      "chip": "ym2612"
    },
    {
      "channel": 3,
      "note": 26,
      "start": 63.2856,
      "duration": 0.0831,
      "velocity": 127,
      "chip": "ym2612"
    },
    {
      "channel": 0,
      "note": 38,
      "start": 63.3673,
      "duration": 0.1665,
      "velocity": 111,
      "chip": "ym2612"
    },
    {
      "channel": 1,
      "note": 62,
      "start": 63.3678,
      "duration": 0.1665,
      "velocity": 114,
      "chip": "ym2612"
    },
    {
      "channel": 2,
      "note": 62,
      "start": 63.3683,
      "duration": 0.1665,
      "velocity": 114,
      "chip": "ym2612"
    },
    {
      "channel": 3,
      "note": 26,
      "start": 63.3689,
      "duration": 0.1665,
      "velocity": 127,
      "chip": "ym2612"
    },
    {
      "channel": 0,
      "note": 36,
      "start": 63.5339,
      "duration": 0.1498,
      "velocity": 111,
      "chip": "ym2612"
    },
    {
      "channel": 1,
      "note": 77,
      "start": 63.5344,
      "duration": 0.1499,
      "velocity": 114,
      "chip": "ym2612"
    },
    {
      "channel": 2,
      "note": 77,
      "start": 63.535,
      "duration": 0.1498,
      "velocity": 114,
      "chip": "ym2612"
    },
    {
      "channel": 3,
      "note": 26,
      "start": 63.5356,
      "duration": 0.1514,
      "velocity": 127,
      "chip": "ym2612"
    },
    {
      "channel": 0,
      "note": 38,
      "start": 63.6839,
      "duration": 0.1665,
      "velocity": 111,
      "chip": "ym2612"
    },
    {
      "channel": 1,
      "note": 67,
      "start": 63.6844,
      "duration": 0.1665,
      "velocity": 114,
      "chip": "ym2612"
    },
    {
      "channel": 2,
      "note": 67,
      "start": 63.685,
      "duration": 0.1665,
      "velocity": 114,
      "chip": "ym2612"
    },
    {
      "channel": 3,
      "note": 21,
      "start": 63.6872,
      "duration": 0.1665,
      "velocity": 127,
      "chip": "ym2612"
    },
    {
      "channel": 0,
      "note": 36,
      "start": 63.8506,
      "duration": 0.1498,
      "velocity": 111,
      "chip": "ym2612"
    },
    {
      "channel": 1,
      "note": 69,
      "start": 63.8512,
      "duration": 0.1498,
      "velocity": 114,
      "chip": "ym2612"
    },
    {
      "channel": 2,
      "note": 69,
      "start": 63.8517,
      "duration": 0.1499,
      "velocity": 114,
      "chip": "ym2612"
    },
    {
      "channel": 3,
      "note": 31,
      "start": 63.8538,
      "duration": 0.0801,
      "velocity": 127,
      "chip": "ym2612"
    },
    {
      "channel": 3,
      "note": 31,
      "start": 63.9341,
      "duration": 0.0695,
      "velocity": 127,
      "chip": "ym2612"
    },
    {
      "channel": 0,
      "note": 38,
      "start": 64.0006,
      "duration": 0.1665,
      "velocity": 111,
      "chip": "ym2612"
    },
    {
      "channel": 1,
      "note": 74,
      "start": 64.0012,
      "duration": 0.1665,
      "velocity": 114,
      "chip": "ym2612"
    },
    {
      "channel": 2,
      "note": 74,
      "start": 64.0017,
      "duration": 0.1665,
      "velocity": 114,
      "chip": "ym2612"
    },
    {
      "channel": 3,
      "note": 26,
      "start": 64.0038,
      "duration": 0.1665,
      "velocity": 127,
      "chip": "ym2612"
    },
    {
      "channel": 0,
      "note": 38,
      "start": 64.1673,
      "duration": 0.1665,
      "velocity": 111,
      "chip": "ym2612"
    },
    {
      "channel": 1,
      "note": 62,
      "start": 64.1678,
      "duration": 0.1665,
      "velocity": 114,
      "chip": "ym2612"
    },
    {
      "channel": 2,
      "note": 62,
      "start": 64.1683,
      "duration": 0.1665,
      "velocity": 114,
      "chip": "ym2612"
    },
    {
      "channel": 3,
      "note": 31,
      "start": 64.1705,
      "duration": 0.0801,
      "velocity": 127,
      "chip": "ym2612"
    },
    {
      "channel": 3,
      "note": 31,
      "start": 64.2508,
      "duration": 0.0862,
      "velocity": 127,
      "chip": "ym2612"
    },
    {
      "channel": 0,
      "note": 36,
      "start": 64.3339,
      "duration": 0.1498,
      "velocity": 111,
      "chip": "ym2612"
    },
    {
      "channel": 1,
      "note": 67,
      "start": 64.3344,
      "duration": 0.1499,
      "velocity": 114,
      "chip": "ym2612"
    },
    {
      "channel": 2,
      "note": 67,
      "start": 64.335,
      "duration": 0.1499,
      "velocity": 114,
      "chip": "ym2612"
    },
    {
      "channel": 3,
      "note": 21,
      "start": 64.3372,
      "duration": 0.1498,
      "velocity": 127,
      "chip": "ym2612"
    },
    {
      "channel": 0,
      "note": 38,
      "start": 64.4839,
      "duration": 0.1665,
      "velocity": 111,
      "chip": "ym2612"
    },
    {
      "channel": 1,
      "note": 69,
      "start": 64.4845,
      "duration": 0.1665,
      "velocity": 114,
      "chip": "ym2612"
    },
    {
      "channel": 2,
      "note": 69,
      "start": 64.485,
      "duration": 0.1665,
      "velocity": 114,
      "chip": "ym2612"
    },
    {
      "channel": 3,
      "note": 31,
      "start": 64.4872,
      "duration": 0.0817,
      "velocity": 127,
      "chip": "ym2612"
    },
    {
      "channel": 3,
      "note": 26,
      "start": 64.569,
      "duration": 0.083,
      "velocity": 127,
      "chip": "ym2612"
    },
    {
      "channel": 0,
      "note": 38,
      "start": 64.6506,
      "duration": 0.1498,
      "velocity": 111,
      "chip": "ym2612"
    },
    {
      "channel": 1,
      "note": 77,
      "start": 64.6512,
      "duration": 0.1498,
      "velocity": 114,
      "chip": "ym2612"
    },
    {
      "channel": 2,
      "note": 77,
      "start": 64.6517,
      "duration": 0.1498,
      "velocity": 114,
      "chip": "ym2612"
    },
    {
      "channel": 3,
      "note": 26,
      "start": 64.6522,
      "duration": 0.1498,
      "velocity": 127,
      "chip": "ym2612"
    },
    {
      "channel": 0,
      "note": 36,
      "start": 64.8006,
      "duration": 0.1665,
      "velocity": 111,
      "chip": "ym2612"
    },
    {
      "channel": 1,
      "note": 62,
      "start": 64.8011,
      "duration": 0.1665,
      "velocity": 114,
      "chip": "ym2612"
    },
    {
      "channel": 2,
      "note": 62,
      "start": 64.8017,
      "duration": 0.1665,
      "velocity": 114,
      "chip": "ym2612"
    },
    {
      "channel": 3,
      "note": 26,
      "start": 64.8022,
      "duration": 0.1681,
      "velocity": 127,
      "chip": "ym2612"
    },
    {
      "channel": 0,
      "note": 38,
      "start": 64.9673,
      "duration": 0.1665,
      "velocity": 111,
      "chip": "ym2612"
    },
    {
      "channel": 1,
      "note": 67,
      "start": 64.9678,
      "duration": 0.1665,
      "velocity": 114,
      "chip": "ym2612"
    },
    {
      "channel": 2,
      "note": 67,
      "start": 64.9683,
      "duration": 0.1665,
      "velocity": 114,
      "chip": "ym2612"
    },
    {
      "channel": 3,
      "note": 21,
      "start": 64.9705,
      "duration": 0.1665,
      "velocity": 127,
      "chip": "ym2612"
    },
    {
      "channel": 0,
      "note": 36,
      "start": 65.1339,
      "duration": 0.1498,
      "velocity": 111,
      "chip": "ym2612"
    },
    {
      "channel": 1,
      "note": 69,
      "start": 65.1344,
      "duration": 0.1499,
      "velocity": 114,
      "chip": "ym2612"
    },
    {
      "channel": 2,
      "note": 69,
      "start": 65.135,
      "duration": 0.1499,
      "velocity": 114,
      "chip": "ym2612"
    },
    {
      "channel": 3,
      "note": 31,
      "start": 65.1372,
      "duration": 0.0634,
      "velocity": 127,
      "chip": "ym2612"
    },
    {
      "channel": 3,
      "note": 31,
      "start": 65.2008,
      "duration": 0.0862,
      "velocity": 127,
      "chip": "ym2612"
    },
    {
      "channel": 0,
      "note": 38,
      "start": 65.2839,
      "duration": 0.1665,
      "velocity": 111,
      "chip": "ym2612"
    },
    {
      "channel": 1,
      "note": 74,
      "start": 65.2845,
      "duration": 0.1665,
      "velocity": 114,
      "chip": "ym2612"
    },
    {
      "channel": 2,
      "note": 74,
      "start": 65.285,
      "duration": 0.1665,
      "velocity": 114,
      "chip": "ym2612"
    },
    {
      "channel": 3,
      "note": 26,
      "start": 65.2872,
      "duration": 0.1665,
      "velocity": 127,
      "chip": "ym2612"
    },
    {
      "channel": 0,
      "note": 45,
      "start": 65.4506,
      "duration": 0.1498,
      "velocity": 111,
      "chip": "ym2612"
    },
    {
      "channel": 1,
      "note": 62,
      "start": 65.4512,
      "duration": 0.1498,
      "velocity": 114,
      "chip": "ym2612"
    },
    {
      "channel": 2,
      "note": 62,
      "start": 65.4517,
      "duration": 0.1498,
      "velocity": 114,
      "chip": "ym2612"
    },
    {
      "channel": 3,
      "note": 31,
      "start": 65.4538,
      "duration": 0.0801,
      "velocity": 127,
      "chip": "ym2612"
    },
    {
      "channel": 3,
      "note": 31,
      "start": 65.5341,
      "duration": 0.0695,
      "velocity": 127,
      "chip": "ym2612"
    },
    {
      "channel": 0,
      "note": 40,
      "start": 65.6006,
      "duration": 0.1665,
      "velocity": 111,
      "chip": "ym2612"
    },
    {
      "channel": 1,
      "note": 67,
      "start": 65.6011,
      "duration": 0.1665,
      "velocity": 114,
      "chip": "ym2612"
    },
    {
      "channel": 2,
      "note": 67,
      "start": 65.6017,
      "duration": 0.1665,
      "velocity": 114,
      "chip": "ym2612"
    },
    {
      "channel": 3,
      "note": 21,
      "start": 65.6038,
      "duration": 0.1665,
      "velocity": 127,
      "chip": "ym2612"
    },
    {
      "channel": 0,
      "note": 47,
      "start": 65.7673,
      "duration": 0.1665,
      "velocity": 111,
      "chip": "ym2612"
    },
    {
      "channel": 1,
      "note": 77,
      "start": 65.7678,
      "duration": 0.1665,
      "velocity": 114,
      "chip": "ym2612"
    },
    {
      "channel": 2,
      "note": 77,
      "start": 65.7683,
      "duration": 0.1665,
      "velocity": 114,
      "chip": "ym2612"
    },
    {
      "channel": 3,
      "note": 31,
      "start": 65.7705,
      "duration": 0.0817,
      "velocity": 127,
      "chip": "ym2612"
    },
    {
      "channel": 3,
      "note": 26,
      "start": 65.8524,
      "duration": 0.083,
      "velocity": 127,
      "chip": "ym2612"
    },
    {
      "channel": 0,
      "note": 41,
      "start": 65.9339,
      "duration": 0.1498,
      "velocity": 111,
      "chip": "ym2612"
    },
    {
      "channel": 1,
      "note": 62,
      "start": 65.9344,
      "duration": 0.1499,
      "velocity": 114,
      "chip": "ym2612"
    },
    {
      "channel": 2,
      "note": 62,
      "start": 65.935,
      "duration": 0.1498,
      "velocity": 114,
      "chip": "ym2612"
    },
    {
      "channel": 3,
      "note": 26,
      "start": 65.9356,
      "duration": 0.1498,
      "velocity": 127,
      "chip": "ym2612"
    },
    {
      "channel": 0,
      "note": 48,
      "start": 66.0839,
      "duration": 0.1665,
      "velocity": 111,
      "chip": "ym2612"
    },
    {
      "channel": 1,
      "note": 77,
      "start": 66.0844,
      "duration": 0.1665,
      "velocity": 114,
      "chip": "ym2612"
    },
    {
      "channel": 2,
      "note": 77,
      "start": 66.085,
      "duration": 0.1665,
      "velocity": 114,
      "chip": "ym2612"
    },
    {
      "channel": 3,
      "note": 26,
      "start": 66.0856,
      "duration": 0.1681,
      "velocity": 127,
      "chip": "ym2612"
    },
    {
      "channel": 0,
      "note": 43,
      "start": 66.2506,
      "duration": 0.1498,
      "velocity": 111,
      "chip": "ym2612"
    },
    {
      "channel": 1,
      "note": 67,
      "start": 66.2512,
      "duration": 0.1498,
      "velocity": 114,
      "chip": "ym2612"
    },
    {
      "channel": 2,
      "note": 67,
      "start": 66.2517,
      "duration": 0.1498,
      "velocity": 114,
      "chip": "ym2612"
    },
    {
      "channel": 3,
      "note": 21,
      "start": 66.2538,
      "duration": 0.0801,
      "velocity": 127,
      "chip": "ym2612"
    },
    {
      "channel": 3,
      "note": 21,
      "start": 66.3341,
      "duration": 0.0679,
      "velocity": 127,
      "chip": "ym2612"
    },
    {
      "channel": 0,
      "note": 50,
      "start": 66.4006,
      "duration": 0.1666,
      "velocity": 111,
      "chip": "ym2612"
    },
    {
      "channel": 1,
      "note": 69,
      "start": 66.4011,
      "duration": 0.1667,
      "velocity": 114,
      "chip": "ym2612"
    },
    {
      "channel": 2,
      "note": 69,
      "start": 66.4017,
      "duration": 0.1683,
      "velocity": 114,
      "chip": "ym2612"
    },
    {
      "channel": 3,
      "note": 21,
      "start": 66.4022,
      "duration": 0.1698,
      "velocity": 127,
      "chip": "ym2612"
    },
    {
      "channel": 0,
      "note": 38,
      "start": 66.5674,
      "duration": 0.1663,
      "velocity": 111,
      "chip": "ym2612"
    },
    {
      "channel": 1,
      "note": 74,
      "start": 66.568,
      "duration": 0.1663,
      "velocity": 114,
      "chip": "ym2612"
    },
    {
      "channel": 2,
      "note": 74,
      "start": 66.5701,
      "duration": 0.1647,
      "velocity": 114,
      "chip": "ym2612"
    },
    {
      "channel": 3,
      "note": 26,
      "start": 66.5723,
      "duration": 0.1647,
      "velocity": 127,
      "chip": "ym2612"
    },
    {
      "channel": 0,
      "note": 38,
      "start": 66.7339,
      "duration": 0.1498,
      "velocity": 111,
      "chip": "ym2612"
    },
    {
      "channel": 1,
      "note": 62,
      "start": 66.7344,
      "duration": 0.1499,
      "velocity": 114,
      "chip": "ym2612"
    },
    {
      "channel": 2,
      "note": 62,
      "start": 66.735,
      "duration": 0.1499,
      "velocity": 114,
      "chip": "ym2612"
    },
    {
      "channel": 3,
      "note": 31,
      "start": 66.7372,
      "duration": 0.0634,
      "velocity": 127,
      "chip": "ym2612"
    },
    {
      "channel": 3,
      "note": 31,
      "start": 66.8008,
      "duration": 0.0862,
      "velocity": 127,
      "chip": "ym2612"
    },
    {
      "channel": 0,
      "note": 36,
      "start": 66.8839,
      "duration": 0.1665,
      "velocity": 111,
      "chip": "ym2612"
    },
    {
      "channel": 1,
      "note": 67,
      "start": 66.8845,
      "duration": 0.1665,
      "velocity": 114,
      "chip": "ym2612"
    },
    {
      "channel": 2,
      "note": 67,
      "start": 66.885,
      "duration": 0.1665,
      "velocity": 114,
      "chip": "ym2612"
    },
    {
      "channel": 3,
      "note": 21,
      "start": 66.8872,
      "duration": 0.1665,
      "velocity": 127,
      "chip": "ym2612"
    },
    {
      "channel": 0,
      "note": 38,
      "start": 67.0506,
      "duration": 0.1498,
      "velocity": 111,
      "chip": "ym2612"
    },
    {
      "channel": 1,
      "note": 69,
      "start": 67.0511,
      "duration": 0.1499,
      "velocity": 114,
      "chip": "ym2612"
    },
    {
      "channel": 2,
      "note": 69,
      "start": 67.0517,
      "duration": 0.1498,
      "velocity": 114,
      "chip": "ym2612"
    },
    {
      "channel": 3,
      "note": 31,
      "start": 67.0538,
      "duration": 0.0817,
      "velocity": 127,
      "chip": "ym2612"
    },
    {
      "channel": 3,
      "note": 26,
      "start": 67.1356,
      "duration": 0.0664,
      "velocity": 127,
      "chip": "ym2612"
    },
    {
      "channel": 0,
      "note": 38,
      "start": 67.2006,
      "duration": 0.1665,
      "velocity": 111,
      "chip": "ym2612"
    },
    {
      "channel": 1,
      "note": 77,
      "start": 67.2011,
      "duration": 0.1665,
      "velocity": 114,
      "chip": "ym2612"
    },
    {
      "channel": 2,
      "note": 77,
      "start": 67.2017,
      "duration": 0.1665,
      "velocity": 114,
      "chip": "ym2612"
    },
    {
      "channel": 3,
      "note": 26,
      "start": 67.2022,
      "duration": 0.1665,
      "velocity": 127,
      "chip": "ym2612"
    },
    {
      "channel": 0,
      "note": 36,
      "start": 67.3673,
      "duration": 0.1665,
      "velocity": 111,
      "chip": "ym2612"
    },
    {
      "channel": 1,
      "note": 62,
      "start": 67.3678,
      "duration": 0.1665,
      "velocity": 114,
      "chip": "ym2612"
    },
    {
      "channel": 2,
      "note": 62,
      "start": 67.3683,
      "duration": 0.1665,
      "velocity": 114,
      "chip": "ym2612"
    },
    {
      "channel": 3,
      "note": 26,
      "start": 67.3689,
      "duration": 0.1681,
      "velocity": 127,
      "chip": "ym2612"
    },
    {
      "channel": 0,
      "note": 38,
      "start": 67.5339,
      "duration": 0.1498,
      "velocity": 111,
      "chip": "ym2612"
    },
    {
      "channel": 1,
      "note": 67,
      "start": 67.5345,
      "duration": 0.1498,
      "velocity": 114,
      "chip": "ym2612"
    },
    {
      "channel": 2,
      "note": 67,
      "start": 67.535,
      "duration": 0.1499,
      "velocity": 114,
      "chip": "ym2612"
    },
    {
      "channel": 3,
      "note": 21,
      "start": 67.5372,
      "duration": 0.1498,
      "velocity": 127,
      "chip": "ym2612"
    },
    {
      "channel": 0,
      "note": 36,
      "start": 67.6839,
      "duration": 0.1665,
      "velocity": 111,
      "chip": "ym2612"
    },
    {
      "channel": 1,
      "note": 69,
      "start": 67.6845,
      "duration": 0.1665,
      "velocity": 114,
      "chip": "ym2612"
    },
    {
      "channel": 2,
      "note": 69,
      "start": 67.685,
      "duration": 0.1665,
      "velocity": 114,
      "chip": "ym2612"
    },
    {
      "channel": 3,
      "note": 31,
      "start": 67.6872,
      "duration": 0.0801,
      "velocity": 127,
      "chip": "ym2612"
    },
    {
      "channel": 3,
      "note": 31,
      "start": 67.7675,
      "duration": 0.0862,
      "velocity": 127,
      "chip": "ym2612"
    },
    {
      "channel": 0,
      "note": 38,
      "start": 67.8506,
      "duration": 0.1498,
      "velocity": 111,
      "chip": "ym2612"
    },
    {
      "channel": 1,
      "note": 74,
      "start": 67.8512,
      "duration": 0.1498,
      "velocity": 114,
      "chip": "ym2612"
    },
    {
      "channel": 2,
      "note": 74,
      "start": 67.8517,
      "duration": 0.1498,
      "velocity": 114,
      "chip": "ym2612"
    },
    {
      "channel": 3,
      "note": 26,
      "start": 67.8538,
      "duration": 0.1498,
      "velocity": 127,
      "chip": "ym2612"
    },
    {
      "channel": 0,
      "note": 38,
      "start": 68.0006,
      "duration": 0.1665,
      "velocity": 111,
      "chip": "ym2612"
    },
    {
      "channel": 1,
      "note": 62,
      "start": 68.0011,
      "duration": 0.1665,
      "velocity": 114,
      "chip": "ym2612"
    },
    {
      "channel": 2,
      "note": 62,
      "start": 68.0017,
      "duration": 0.1665,
      "velocity": 114,
      "chip": "ym2612"
    },
    {
      "channel": 3,
      "note": 31,
      "start": 68.0038,
      "duration": 0.0801,
      "velocity": 127,
      "chip": "ym2612"
    },
    {
      "channel": 3,
      "note": 31,
      "start": 68.0841,
      "duration": 0.0862,
      "velocity": 127,
      "chip": "ym2612"
    },
    {
      "channel": 0,
      "note": 36,
      "start": 68.1673,
      "duration": 0.1665,
      "velocity": 111,
      "chip": "ym2612"
    },
    {
      "channel": 1,
      "note": 67,
      "start": 68.1678,
      "duration": 0.1665,
      "velocity": 114,
      "chip": "ym2612"
    },
    {
      "channel": 2,
      "note": 67,
      "start": 68.1683,
      "duration": 0.1665,
      "velocity": 114,
      "chip": "ym2612"
    },
    {
      "channel": 3,
      "note": 21,
      "start": 68.1705,
      "duration": 0.1665,
      "velocity": 127,
      "chip": "ym2612"
    },
    {
      "channel": 0,
      "note": 38,
      "start": 68.3339,
      "duration": 0.1498,
      "velocity": 111,
      "chip": "ym2612"
    },
    {
      "channel": 1,
      "note": 77,
      "start": 68.3344,
      "duration": 0.1499,
      "velocity": 114,
      "chip": "ym2612"
    },
    {
      "channel": 2,
      "note": 77,
      "start": 68.335,
      "duration": 0.1499,
      "velocity": 114,
      "chip": "ym2612"
    },
    {
      "channel": 3,
      "note": 31,
      "start": 68.3372,
      "duration": 0.065,
      "velocity": 127,
      "chip": "ym2612"
    },
    {
      "channel": 3,
      "note": 26,
      "start": 68.4024,
      "duration": 0.083,
      "velocity": 127,
      "chip": "ym2612"
    },
    {
      "channel": 0,
      "note": 38,
      "start": 68.4839,
      "duration": 0.1665,
      "velocity": 111,
      "chip": "ym2612"
    },
    {
      "channel": 1,
      "note": 62,
      "start": 68.4845,
      "duration": 0.1665,
      "velocity": 114,
      "chip": "ym2612"
    },
    {
      "channel": 2,
      "note": 62,
      "start": 68.485,
      "duration": 0.1665,
      "velocity": 114,
      "chip": "ym2612"
    },
    {
      "channel": 3,
      "note": 26,
      "start": 68.4856,
      "duration": 0.1665,
      "velocity": 127,
      "chip": "ym2612"
    },
    {
      "channel": 0,
      "note": 36,
      "start": 68.6506,
      "duration": 0.1498,
      "velocity": 111,
      "chip": "ym2612"
    },
    {
      "channel": 1,
      "note": 77,
      "start": 68.6511,
      "duration": 0.1499,
      "velocity": 114,
      "chip": "ym2612"
    },
    {
      "channel": 2,
      "note": 77,
      "start": 68.6517,
      "duration": 0.1499,
      "velocity": 114,
      "chip": "ym2612"
    },
    {
      "channel": 3,
      "note": 26,
      "start": 68.6522,
      "duration": 0.1514,
      "velocity": 127,
      "chip": "ym2612"
    },
    {
      "channel": 0,
      "note": 38,
      "start": 68.8006,
      "duration": 0.1665,
      "velocity": 111,
      "chip": "ym2612"
    },
    {
      "channel": 1,
      "note": 67,
      "start": 68.8012,
      "duration": 0.1665,
      "velocity": 114,
      "chip": "ym2612"
    },
    {
      "channel": 2,
      "note": 67,
      "start": 68.8017,
      "duration": 0.1665,
      "velocity": 114,
      "chip": "ym2612"
    },
    {
      "channel": 3,
      "note": 21,
      "start": 68.8038,
      "duration": 0.1665,
      "velocity": 127,
      "chip": "ym2612"
    },
    {
      "channel": 0,
      "note": 36,
      "start": 68.9673,
      "duration": 0.1665,
      "velocity": 111,
      "chip": "ym2612"
    },
    {
      "channel": 1,
      "note": 69,
      "start": 68.9678,
      "duration": 0.1665,
      "velocity": 114,
      "chip": "ym2612"
    },
    {
      "channel": 2,
      "note": 69,
      "start": 68.9683,
      "duration": 0.1665,
      "velocity": 114,
      "chip": "ym2612"
    },
    {
      "channel": 3,
      "note": 31,
      "start": 68.9705,
      "duration": 0.0801,
      "velocity": 127,
      "chip": "ym2612"
    },
    {
      "channel": 3,
      "note": 31,
      "start": 69.0508,
      "duration": 0.0862,
      "velocity": 127,
      "chip": "ym2612"
    },
    {
      "channel": 0,
      "note": 38,
      "start": 69.1339,
      "duration": 0.1498,
      "velocity": 111,
      "chip": "ym2612"
    },
    {
      "channel": 1,
      "note": 74,
      "start": 69.1344,
      "duration": 0.1499,
      "velocity": 114,
      "chip": "ym2612"
    },
    {
      "channel": 2,
      "note": 74,
      "start": 69.135,
      "duration": 0.1498,
      "velocity": 114,
      "chip": "ym2612"
    },
    {
      "channel": 3,
      "note": 26,
      "start": 69.1372,
      "duration": 0.1498,
      "velocity": 127,
      "chip": "ym2612"
    },
    {
      "channel": 0,
      "note": 38,
      "start": 69.2839,
      "duration": 0.1665,
      "velocity": 111,
      "chip": "ym2612"
    },
    {
      "channel": 1,
      "note": 62,
      "start": 69.2844,
      "duration": 0.1665,
      "velocity": 114,
      "chip": "ym2612"
    },
    {
      "channel": 2,
      "note": 62,
      "start": 69.285,
      "duration": 0.1665,
      "velocity": 114,
      "chip": "ym2612"
    },
    {
      "channel": 3,
      "note": 31,
      "start": 69.2872,
      "duration": 0.0801,
      "velocity": 127,
      "chip": "ym2612"
    },
    {
      "channel": 3,
      "note": 31,
      "start": 69.3675,
      "duration": 0.0862,
      "velocity": 127,
      "chip": "ym2612"
    },
    {
      "channel": 0,
      "note": 36,
      "start": 69.4506,
      "duration": 0.1498,
      "velocity": 111,
      "chip": "ym2612"
    },
    {
      "channel": 1,
      "note": 67,
      "start": 69.4512,
      "duration": 0.1498,
      "velocity": 114,
      "chip": "ym2612"
    },
    {
      "channel": 2,
      "note": 67,
      "start": 69.4517,
      "duration": 0.1498,
      "velocity": 114,
      "chip": "ym2612"
    },
    {
      "channel": 3,
      "note": 21,
      "start": 69.4538,
      "duration": 0.1498,
      "velocity": 127,
      "chip": "ym2612"
    },
    {
      "channel": 0,
      "note": 38,
      "start": 69.6006,
      "duration": 0.1665,
      "velocity": 111,
      "chip": "ym2612"
    },
    {
      "channel": 1,
      "note": 69,
      "start": 69.6011,
      "duration": 0.1665,
      "velocity": 114,
      "chip": "ym2612"
    },
    {
      "channel": 2,
      "note": 69,
      "start": 69.6017,
      "duration": 0.1665,
      "velocity": 114,
      "chip": "ym2612"
    },
    {
      "channel": 3,
      "note": 31,
      "start": 69.6038,
      "duration": 0.0817,
      "velocity": 127,
      "chip": "ym2612"
    },
    {
      "channel": 3,
      "note": 26,
      "start": 69.6856,
      "duration": 0.0831,
      "velocity": 127,
      "chip": "ym2612"
    },
    {
      "channel": 0,
      "note": 38,
      "start": 69.7673,
      "duration": 0.1665,
      "velocity": 111,
      "chip": "ym2612"
    },
    {
      "channel": 1,
      "note": 77,
      "start": 69.7678,
      "duration": 0.1665,
      "velocity": 114,
      "chip": "ym2612"
    },
    {
      "channel": 2,
      "note": 77,
      "start": 69.7683,
      "duration": 0.1665,
      "velocity": 114,
      "chip": "ym2612"
    },
    {
      "channel": 3,
      "note": 26,
      "start": 69.7689,
      "duration": 0.1665,
      "velocity": 127,
      "chip": "ym2612"
    },
    {
      "channel": 0,
      "note": 36,
      "start": 69.9339,
      "duration": 0.1498,
      "velocity": 111,
      "chip": "ym2612"
    },
    {
      "channel": 1,
      "note": 62,
      "start": 69.9344,
      "duration": 0.1499,
      "velocity": 114,
      "chip": "ym2612"
    },
    {
      "channel": 2,
      "note": 62,
      "start": 69.935,
      "duration": 0.1498,
      "velocity": 114,
      "chip": "ym2612"
    },
    {
      "channel": 3,
      "note": 26,
      "start": 69.9356,
      "duration": 0.1514,
      "velocity": 127,
      "chip": "ym2612"
    },
    {
      "channel": 0,
      "note": 38,
      "start": 70.0839,
      "duration": 0.1665,
      "velocity": 111,
      "chip": "ym2612"
    },
    {
      "channel": 1,
      "note": 67,
      "start": 70.0844,
      "duration": 0.1665,
      "velocity": 114,
      "chip": "ym2612"
    },
    {
      "channel": 2,
      "note": 67,
      "start": 70.085,
      "duration": 0.1665,
      "velocity": 114,
      "chip": "ym2612"
    },
    {
      "channel": 3,
      "note": 21,
      "start": 70.0872,
      "duration": 0.1665,
      "velocity": 127,
      "chip": "ym2612"
    },
    {
      "channel": 0,
      "note": 36,
      "start": 70.2506,
      "duration": 0.1498,
      "velocity": 111,
      "chip": "ym2612"
    },
    {
      "channel": 1,
      "note": 69,
      "start": 70.2512,
      "duration": 0.1498,
      "velocity": 114,
      "chip": "ym2612"
    },
    {
      "channel": 2,
      "note": 69,
      "start": 70.2517,
      "duration": 0.1499,
      "velocity": 114,
      "chip": "ym2612"
    },
    {
      "channel": 3,
      "note": 31,
      "start": 70.2538,
      "duration": 0.0801,
      "velocity": 127,
      "chip": "ym2612"
    },
    {
      "channel": 3,
      "note": 31,
      "start": 70.3341,
      "duration": 0.0695,
      "velocity": 127,
      "chip": "ym2612"
    },
    {
      "channel": 0,
      "note": 38,
      "start": 70.4006,
      "duration": 0.1665,
      "velocity": 111,
      "chip": "ym2612"
    },
    {
      "channel": 1,
      "note": 74,
      "start": 70.4012,
      "duration": 0.1665,
      "velocity": 114,
      "chip": "ym2612"
    },
    {
      "channel": 2,
      "note": 74,
      "start": 70.4017,
      "duration": 0.1665,
      "velocity": 114,
      "chip": "ym2612"
    },
    {
      "channel": 3,
      "note": 26,
      "start": 70.4038,
      "duration": 0.1665,
      "velocity": 127,
      "chip": "ym2612"
    },
    {
      "channel": 0,
      "note": 45,
      "start": 70.5673,
      "duration": 0.1665,
      "velocity": 111,
      "chip": "ym2612"
    },
    {
      "channel": 1,
      "note": 62,
      "start": 70.5678,
      "duration": 0.1665,
      "velocity": 114,
      "chip": "ym2612"
    },
    {
      "channel": 2,
      "note": 62,
      "start": 70.5683,
      "duration": 0.1665,
      "velocity": 114,
      "chip": "ym2612"
    },
    {
      "channel": 3,
      "note": 31,
      "start": 70.5705,
      "duration": 0.0801,
      "velocity": 127,
      "chip": "ym2612"
    },
    {
      "channel": 3,
      "note": 31,
      "start": 70.6508,
      "duration": 0.0862,
      "velocity": 127,
      "chip": "ym2612"
    },
    {
      "channel": 0,
      "note": 40,
      "start": 70.7339,
      "duration": 0.1498,
      "velocity": 111,
      "chip": "ym2612"
    },
    {
      "channel": 1,
      "note": 67,
      "start": 70.7344,
      "duration": 0.1499,
      "velocity": 114,
      "chip": "ym2612"
    },
    {
      "channel": 2,
      "note": 67,
      "start": 70.735,
      "duration": 0.1499,
      "velocity": 114,
      "chip": "ym2612"
    },
    {
      "channel": 3,
      "note": 21,
      "start": 70.7372,
      "duration": 0.1498,
      "velocity": 127,
      "chip": "ym2612"
    },
    {
      "channel": 0,
      "note": 47,
      "start": 70.8839,
      "duration": 0.1665,
      "velocity": 111,
      "chip": "ym2612"
    },
    {
      "channel": 1,
      "note": 77,
      "start": 70.8845,
      "duration": 0.1665,
      "velocity": 114,
      "chip": "ym2612"
    },
    {
      "channel": 2,
      "note": 77,
      "start": 70.885,
      "duration": 0.1665,
      "velocity": 114,
      "chip": "ym2612"
    },
    {
      "channel": 3,
      "note": 31,
      "start": 70.8872,
      "duration": 0.0817,
      "velocity": 127,
      "chip": "ym2612"
    },
    {
      "channel": 3,
      "note": 26,
      "start": 70.969,
      "duration": 0.083,
      "velocity": 127,
      "chip": "ym2612"
    },
    {
      "channel": 0,
      "note": 41,
      "start": 71.0506,
      "duration": 0.1498,
      "velocity": 111,
      "chip": "ym2612"
    },
    {
      "channel": 1,
      "note": 62,
      "start": 71.0512,
      "duration": 0.1498,
      "velocity": 114,
      "chip": "ym2612"
    },
    {
      "channel": 2,
      "note": 62,
      "start": 71.0517,
      "duration": 0.1498,
      "velocity": 114,
      "chip": "ym2612"
    },
    {
      "channel": 3,
      "note": 26,
      "start": 71.0522,
      "duration": 0.1498,
      "velocity": 127,
      "chip": "ym2612"
    },
    {
      "channel": 0,
      "note": 48,
      "start": 71.2006,
      "duration": 0.1665,
      "velocity": 111,
      "chip": "ym2612"
    },
    {
      "channel": 1,
      "note": 77,
      "start": 71.2011,
      "duration": 0.1665,
      "velocity": 114,
      "chip": "ym2612"
    },
    {
      "channel": 2,
      "note": 77,
      "start": 71.2017,
      "duration": 0.1665,
      "velocity": 114,
      "chip": "ym2612"
    },
    {
      "channel": 3,
      "note": 26,
      "start": 71.2022,
      "duration": 0.1681,
      "velocity": 127,
      "chip": "ym2612"
    },
    {
      "channel": 0,
      "note": 43,
      "start": 71.3673,
      "duration": 0.1665,
      "velocity": 111,
      "chip": "ym2612"
    },
    {
      "channel": 1,
      "note": 67,
      "start": 71.3678,
      "duration": 0.1665,
      "velocity": 114,
      "chip": "ym2612"
    },
    {
      "channel": 2,
      "note": 67,
      "start": 71.3683,
      "duration": 0.1665,
      "velocity": 114,
      "chip": "ym2612"
    },
    {
      "channel": 3,
      "note": 21,
      "start": 71.3705,
      "duration": 0.0801,
      "velocity": 127,
      "chip": "ym2612"
    },
    {
      "channel": 3,
      "note": 21,
      "start": 71.4508,
      "duration": 0.0846,
      "velocity": 127,
      "chip": "ym2612"
    },
    {
      "channel": 0,
      "note": 50,
      "start": 71.5339,
      "duration": 0.1499,
      "velocity": 111,
      "chip": "ym2612"
    },
    {
      "channel": 1,
      "note": 69,
      "start": 71.5344,
      "duration": 0.15,
      "velocity": 114,
      "chip": "ym2612"
    },
    {
      "channel": 2,
      "note": 69,
      "start": 71.535,
      "duration": 0.1501,
      "velocity": 114,
      "chip": "ym2612"
    },
    {
      "channel": 3,
      "note": 21,
      "start": 71.5356,
      "duration": 0.1517,
      "velocity": 94,
      "chip": "ym2612"
    },
    {
      "channel": 0,
      "note": 38,
      "start": 71.6841,
      "duration": 0.1663,
      "velocity": 111,
      "chip": "ym2612"
    },
    {
      "channel": 1,
      "note": 74,
      "start": 71.6846,
      "duration": 0.1663,
      "velocity": 114,
      "chip": "ym2612"
    },
    {
      "channel": 2,
      "note": 74,
      "start": 71.6853,
      "duration": 0.1663,
      "velocity": 114,
      "chip": "ym2612"
    },
    {
      "channel": 3,
      "note": 74,
      "start": 71.6874,
      "duration": 3.8483,
      "velocity": 94,
      "chip": "ym2612"
    },
    {
      "channel": 0,
      "note": 38,
      "start": 71.8506,
      "duration": 0.1498,
      "velocity": 111,
      "chip": "ym2612"
    },
    {
      "channel": 1,
      "note": 62,
      "start": 71.8512,
      "duration": 0.1498,
      "velocity": 114,
      "chip": "ym2612"
    },
    {
      "channel": 2,
      "note": 62,
      "start": 71.8517,
      "duration": 0.1498,
      "velocity": 114,
      "chip": "ym2612"
    },
    {
      "channel": 0,
      "note": 36,
      "start": 72.0005,
      "duration": 0.1666,
      "velocity": 111,
      "chip": "ym2612"
    },
    {
      "channel": 1,
      "note": 67,
      "start": 72.0011,
      "duration": 0.1665,
      "velocity": 114,
      "chip": "ym2612"
    },
    {
      "channel": 2,
      "note": 67,
      "start": 72.0016,
      "duration": 0.1665,
      "velocity": 114,
      "chip": "ym2612"
    },
    {
      "channel": 0,
      "note": 38,
      "start": 72.1672,
      "duration": 0.1666,
      "velocity": 111,
      "chip": "ym2612"
    },
    {
      "channel": 1,
      "note": 69,
      "start": 72.1678,
      "duration": 0.1665,
      "velocity": 114,
      "chip": "ym2612"
    },
    {
      "channel": 2,
      "note": 69,
      "start": 72.1683,
      "duration": 0.1665,
      "velocity": 114,
      "chip": "ym2612"
    },
    {
      "channel": 0,
      "note": 38,
      "start": 72.3339,
      "duration": 0.1499,
      "velocity": 111,
      "chip": "ym2612"
    },
    {
      "channel": 1,
      "note": 77,
      "start": 72.3344,
      "duration": 0.1498,
      "velocity": 114,
      "chip": "ym2612"
    },
    {
      "channel": 2,
      "note": 77,
      "start": 72.335,
      "duration": 0.1498,
      "velocity": 114,
      "chip": "ym2612"
    },
    {
      "channel": 0,
      "note": 36,
      "start": 72.4839,
      "duration": 0.1665,
      "velocity": 111,
      "chip": "ym2612"
    },
    {
      "channel": 1,
      "note": 62,
      "start": 72.4844,
      "duration": 0.1665,
      "velocity": 114,
      "chip": "ym2612"
    },
    {
      "channel": 2,
      "note": 62,
      "start": 72.485,
      "duration": 0.1665,
      "velocity": 114,
      "chip": "ym2612"
    },
    {
      "channel": 0,
      "note": 38,
      "start": 72.6505,
      "duration": 0.1499,
      "velocity": 111,
      "chip": "ym2612"
    },
    {
      "channel": 1,
      "note": 67,
      "start": 72.6511,
      "duration": 0.1498,
      "velocity": 114,
      "chip": "ym2612"
    },
    {
      "channel": 2,
      "note": 67,
      "start": 72.6516,
      "duration": 0.1499,
      "velocity": 114,
      "chip": "ym2612"
    },
    {
      "channel": 0,
      "note": 36,
      "start": 72.8005,
      "duration": 0.1666,
      "velocity": 111,
      "chip": "ym2612"
    },
    {
      "channel": 1,
      "note": 69,
      "start": 72.8011,
      "duration": 0.1665,
      "velocity": 114,
      "chip": "ym2612"
    },
    {
      "channel": 2,
      "note": 69,
      "start": 72.8016,
      "duration": 0.1665,
      "velocity": 114,
      "chip": "ym2612"
    },
    {
      "channel": 0,
      "note": 38,
      "start": 72.9672,
      "duration": 0.1666,
      "velocity": 111,
      "chip": "ym2612"
    },
    {
      "channel": 1,
      "note": 74,
      "start": 72.9678,
      "duration": 0.1665,
      "velocity": 114,
      "chip": "ym2612"
    },
    {
      "channel": 2,
      "note": 74,
      "start": 72.9683,
      "duration": 0.1665,
      "velocity": 114,
      "chip": "ym2612"
    },
    {
      "channel": 0,
      "note": 38,
      "start": 73.1339,
      "duration": 0.1499,
      "velocity": 111,
      "chip": "ym2612"
    },
    {
      "channel": 1,
      "note": 62,
      "start": 73.1344,
      "duration": 0.1498,
      "velocity": 114,
      "chip": "ym2612"
    },
    {
      "channel": 2,
      "note": 62,
      "start": 73.135,
      "duration": 0.1498,
      "velocity": 114,
      "chip": "ym2612"
    },
    {
      "channel": 0,
      "note": 36,
      "start": 73.2839,
      "duration": 0.1665,
      "velocity": 111,
      "chip": "ym2612"
    },
    {
      "channel": 1,
      "note": 67,
      "start": 73.2844,
      "duration": 0.1665,
      "velocity": 114,
      "chip": "ym2612"
    },
    {
      "channel": 2,
      "note": 67,
      "start": 73.285,
      "duration": 0.1665,
      "velocity": 114,
      "chip": "ym2612"
    },
    {
      "channel": 0,
      "note": 38,
      "start": 73.4505,
      "duration": 0.1499,
      "velocity": 111,
      "chip": "ym2612"
    },
    {
      "channel": 1,
      "note": 77,
      "start": 73.4511,
      "duration": 0.1498,
      "velocity": 114,
      "chip": "ym2612"
    },
    {
      "channel": 2,
      "note": 77,
      "start": 73.4516,
      "duration": 0.1499,
      "velocity": 114,
      "chip": "ym2612"
    },
    {
      "channel": 0,
      "note": 38,
      "start": 73.6005,
      "duration": 0.1666,
      "velocity": 111,
      "chip": "ym2612"
    },
    {
      "channel": 1,
      "note": 62,
      "start": 73.6011,
      "duration": 0.1665,
      "velocity": 114,
      "chip": "ym2612"
    },
    {
      "channel": 2,
      "note": 62,
      "start": 73.6016,
      "duration": 0.1665,
      "velocity": 114,
      "chip": "ym2612"
    },
    {
      "channel": 0,
      "note": 36,
      "start": 73.7672,
      "duration": 0.1665,
      "velocity": 111,
      "chip": "ym2612"
    },
    {
      "channel": 1,
      "note": 77,
      "start": 73.7678,
      "duration": 0.1665,
      "velocity": 114,
      "chip": "ym2612"
    },
    {
      "channel": 2,
      "note": 77,
      "start": 73.7683,
      "duration": 0.1665,
      "velocity": 114,
      "chip": "ym2612"
    },
    {
      "channel": 0,
      "note": 38,
      "start": 73.9339,
      "duration": 0.1499,
      "velocity": 111,
      "chip": "ym2612"
    },
    {
      "channel": 1,
      "note": 67,
      "start": 73.9344,
      "duration": 0.1498,
      "velocity": 114,
      "chip": "ym2612"
    },
    {
      "channel": 2,
      "note": 67,
      "start": 73.9349,
      "duration": 0.1499,
      "velocity": 114,
      "chip": "ym2612"
    },
    {
      "channel": 0,
      "note": 36,
      "start": 74.0839,
      "duration": 0.1665,
      "velocity": 111,
      "chip": "ym2612"
    },
    {
      "channel": 1,
      "note": 69,
      "start": 74.0844,
      "duration": 0.1665,
      "velocity": 114,
      "chip": "ym2612"
    },
    {
      "channel": 2,
      "note": 69,
      "start": 74.085,
      "duration": 0.1665,
      "velocity": 114,
      "chip": "ym2612"
    },
    {
      "channel": 0,
      "note": 38,
      "start": 74.2505,
      "duration": 0.1498,
      "velocity": 111,
      "chip": "ym2612"
    },
    {
      "channel": 1,
      "note": 74,
      "start": 74.2511,
      "duration": 0.1498,
      "velocity": 114,
      "chip": "ym2612"
    },
    {
      "channel": 2,
      "note": 74,
      "start": 74.2516,
      "duration": 0.1499,
      "velocity": 114,
      "chip": "ym2612"
    },
    {
      "channel": 0,
      "note": 38,
      "start": 74.4005,
      "duration": 0.1666,
      "velocity": 111,
      "chip": "ym2612"
    },
    {
      "channel": 1,
      "note": 62,
      "start": 74.4011,
      "duration": 0.1665,
      "velocity": 114,
      "chip": "ym2612"
    },
    {
      "channel": 2,
      "note": 62,
      "start": 74.4016,
      "duration": 0.1665,
      "velocity": 114,
      "chip": "ym2612"
    },
    {
      "channel": 0,
      "note": 36,
      "start": 74.5672,
      "duration": 0.1665,
      "velocity": 111,
      "chip": "ym2612"
    },
    {
      "channel": 1,
      "note": 67,
      "start": 74.5678,
      "duration": 0.1665,
      "velocity": 114,
      "chip": "ym2612"
    },
    {
      "channel": 2,
      "note": 67,
      "start": 74.5683,
      "duration": 0.1665,
      "velocity": 114,
      "chip": "ym2612"
    },
    {
      "channel": 0,
      "note": 38,
      "start": 74.7339,
      "duration": 0.1499,
      "velocity": 111,
      "chip": "ym2612"
    },
    {
      "channel": 1,
      "note": 69,
      "start": 74.7344,
      "duration": 0.1498,
      "velocity": 114,
      "chip": "ym2612"
    },
    {
      "channel": 2,
      "note": 69,
      "start": 74.7349,
      "duration": 0.1499,
      "velocity": 114,
      "chip": "ym2612"
    },
    {
      "channel": 0,
      "note": 38,
      "start": 74.8839,
      "duration": 0.1665,
      "velocity": 111,
      "chip": "ym2612"
    },
    {
      "channel": 1,
      "note": 77,
      "start": 74.8844,
      "duration": 0.1665,
      "velocity": 114,
      "chip": "ym2612"
    },
    {
      "channel": 2,
      "note": 77,
      "start": 74.885,
      "duration": 0.1665,
      "velocity": 114,
      "chip": "ym2612"
    },
    {
      "channel": 0,
      "note": 36,
      "start": 75.0505,
      "duration": 0.1499,
      "velocity": 111,
      "chip": "ym2612"
    },
    {
      "channel": 1,
      "note": 62,
      "start": 75.0511,
      "duration": 0.1498,
      "velocity": 114,
      "chip": "ym2612"
    },
    {
      "channel": 2,
      "note": 62,
      "start": 75.0516,
      "duration": 0.1499,
      "velocity": 114,
      "chip": "ym2612"
    },
    {
      "channel": 0,
      "note": 38,
      "start": 75.2005,
      "duration": 0.1666,
      "velocity": 111,
      "chip": "ym2612"
    },
    {
      "channel": 1,
      "note": 67,
      "start": 75.2011,
      "duration": 0.1665,
      "velocity": 114,
      "chip": "ym2612"
    },
    {
      "channel": 2,
      "note": 67,
      "start": 75.2017,
      "duration": 0.1665,
      "velocity": 114,
      "chip": "ym2612"
    },
    {
      "channel": 0,
      "note": 36,
      "start": 75.3672,
      "duration": 0.1666,
      "velocity": 111,
      "chip": "ym2612"
    },
    {
      "channel": 1,
      "note": 69,
      "start": 75.3678,
      "duration": 0.1665,
      "velocity": 114,
      "chip": "ym2612"
    },
    {
      "channel": 2,
      "note": 69,
      "start": 75.3683,
      "duration": 0.1665,
      "velocity": 114,
      "chip": "ym2612"
    },
    {
      "channel": 0,
      "note": 38,
      "start": 75.5339,
      "duration": 0.1498,
      "velocity": 111,
      "chip": "ym2612"
    },
    {
      "channel": 1,
      "note": 74,
      "start": 75.5344,
      "duration": 0.1499,
      "velocity": 114,
      "chip": "ym2612"
    },
    {
      "channel": 2,
      "note": 74,
      "start": 75.535,
      "duration": 0.1498,
      "velocity": 114,
      "chip": "ym2612"
    },
    {
      "channel": 3,
      "note": 74,
      "start": 75.5357,
      "duration": 0.0144,
      "velocity": 94,
      "chip": "ym2612"
    },
    {
      "channel": 3,
      "note": 74,
      "start": 75.5502,
      "duration": 0.0167,
      "velocity": 94,
      "chip": "ym2612"
    },
    {
      "channel": 3,
      "note": 74,
      "start": 75.5668,
      "duration": 0.0167,
      "velocity": 94,
      "chip": "ym2612"
    },
    {
      "channel": 3,
      "note": 73,
      "start": 75.5835,
      "duration": 0.1022,
      "velocity": 94,
      "chip": "ym2612"
    },
    {
      "channel": 0,
      "note": 45,
      "start": 75.6839,
      "duration": 0.1665,
      "velocity": 111,
      "chip": "ym2612"
    },
    {
      "channel": 1,
      "note": 62,
      "start": 75.6844,
      "duration": 0.1665,
      "velocity": 114,
      "chip": "ym2612"
    },
    {
      "channel": 2,
      "note": 62,
      "start": 75.685,
      "duration": 0.1665,
      "velocity": 114,
      "chip": "ym2612"
    },
    {
      "channel": 3,
      "note": 73,
      "start": 75.6857,
      "duration": 0.0144,
      "velocity": 94,
      "chip": "ym2612"
    },
    {
      "channel": 3,
      "note": 73,
      "start": 75.7002,
      "duration": 0.0333,
      "velocity": 94,
      "chip": "ym2612"
    },
    {
      "channel": 3,
      "note": 73,
      "start": 75.7335,
      "duration": 0.0167,
      "velocity": 94,
      "chip": "ym2612"
    },
    {
      "channel": 3,
      "note": 73,
      "start": 75.7502,
      "duration": 0.1022,
      "velocity": 94,
      "chip": "ym2612"
    },
    {
      "channel": 0,
      "note": 40,
      "start": 75.8506,
      "duration": 0.1498,
      "velocity": 111,
      "chip": "ym2612"
    },
    {
      "channel": 1,
      "note": 67,
      "start": 75.8512,
      "duration": 0.1498,
      "velocity": 114,
      "chip": "ym2612"
    },
    {
      "channel": 2,
      "note": 67,
      "start": 75.8517,
      "duration": 0.1499,
      "velocity": 114,
      "chip": "ym2612"
    },
    {
      "channel": 3,
      "note": 73,
      "start": 75.8524,
      "duration": 0.0144,
      "velocity": 94,
      "chip": "ym2612"
    },
    {
      "channel": 3,
      "note": 72,
      "start": 75.8668,
      "duration": 0.0167,
      "velocity": 94,
      "chip": "ym2612"
    },
    {
      "channel": 3,
      "note": 72,
      "start": 75.8835,
      "duration": 0.0167,
      "velocity": 94,
      "chip": "ym2612"
    },
    {
      "channel": 3,
      "note": 72,
      "start": 75.9002,
      "duration": 0.1022,
      "velocity": 94,
      "chip": "ym2612"
    },
    {
      "channel": 0,
      "note": 47,
      "start": 76.0006,
      "duration": 0.1665,
      "velocity": 111,
      "chip": "ym2612"
    },
    {
      "channel": 1,
      "note": 77,
      "start": 76.0012,
      "duration": 0.1665,
      "velocity": 114,
      "chip": "ym2612"
    },
    {
      "channel": 2,
      "note": 77,
      "start": 76.0017,
      "duration": 0.1665,
      "velocity": 114,
      "chip": "ym2612"
    },
    {
      "channel": 3,
      "note": 72,
      "start": 76.0024,
      "duration": 0.0311,
      "velocity": 94,
      "chip": "ym2612"
    },
    {
      "channel": 3,
      "note": 72,
      "start": 76.0335,
      "duration": 0.0167,
      "velocity": 94,
      "chip": "ym2612"
    },
    {
      "channel": 3,
      "note": 71,
      "start": 76.0502,
      "duration": 0.0167,
      "velocity": 94,
      "chip": "ym2612"
    },
    {
      "channel": 3,
      "note": 71,
      "start": 76.0668,
      "duration": 0.1022,
      "velocity": 94,
      "chip": "ym2612"
    },
    {
      "channel": 0,
      "note": 41,
      "start": 76.1673,
      "duration": 0.1665,
      "velocity": 111,
      "chip": "ym2612"
    },
    {
      "channel": 1,
      "note": 62,
      "start": 76.1678,
      "duration": 0.1665,
      "velocity": 114,
      "chip": "ym2612"
    },
    {
      "channel": 2,
      "note": 62,
      "start": 76.1683,
      "duration": 0.1665,
      "velocity": 114,
      "chip": "ym2612"
    },
    {
      "channel": 3,
      "note": 71,
      "start": 76.169,
      "duration": 0.0144,
      "velocity": 94,
      "chip": "ym2612"
    },
    {
      "channel": 3,
      "note": 71,
      "start": 76.1835,
      "duration": 0.0167,
      "velocity": 94,
      "chip": "ym2612"
    },
    {
      "channel": 3,
      "note": 71,
      "start": 76.2002,
      "duration": 0.0333,
      "velocity": 94,
      "chip": "ym2612"
    },
    {
      "channel": 3,
      "note": 70,
      "start": 76.2335,
      "duration": 0.1022,
      "velocity": 94,
      "chip": "ym2612"
    },
    {
      "channel": 0,
      "note": 48,
      "start": 76.3339,
      "duration": 0.1498,
      "velocity": 111,
      "chip": "ym2612"
    },
    {
      "channel": 1,
      "note": 77,
      "start": 76.3344,
      "duration": 0.1499,
      "velocity": 114,
      "chip": "ym2612"
    },
    {
      "channel": 2,
      "note": 77,
      "start": 76.335,
      "duration": 0.1498,
      "velocity": 114,
      "chip": "ym2612"
    },
    {
      "channel": 3,
      "note": 70,
      "start": 76.3357,
      "duration": 0.0144,
      "velocity": 94,
      "chip": "ym2612"
    },
    {
      "channel": 3,
      "note": 70,
      "start": 76.3502,
      "duration": 0.0167,
      "velocity": 94,
      "chip": "ym2612"
    },
    {
      "channel": 3,
      "note": 70,
      "start": 76.3668,
      "duration": 0.0167,
      "velocity": 94,
      "chip": "ym2612"
    },
    {
      "channel": 3,
      "note": 70,
      "start": 76.3835,
      "duration": 0.1022,
      "velocity": 94,
      "chip": "ym2612"
    },
    {
      "channel": 0,
      "note": 43,
      "start": 76.4839,
      "duration": 0.1665,
      "velocity": 111,
      "chip": "ym2612"
    },
    {
      "channel": 1,
      "note": 67,
      "start": 76.4844,
      "duration": 0.1665,
      "velocity": 114,
      "chip": "ym2612"
    },
    {
      "channel": 2,
      "note": 67,
      "start": 76.485,
      "duration": 0.1665,
      "velocity": 114,
      "chip": "ym2612"
    },
    {
      "channel": 3,
      "note": 69,
      "start": 76.4857,
      "duration": 0.0144,
      "velocity": 94,
      "chip": "ym2612"
    },
    {
      "channel": 3,
      "note": 69,
      "start": 76.5002,
      "duration": 0.0333,
      "velocity": 94,
      "chip": "ym2612"
    },
    {
      "channel": 3,
      "note": 69,
      "start": 76.5335,
      "duration": 0.0167,
      "velocity": 94,
      "chip": "ym2612"
    },
    {
      "channel": 3,
      "note": 69,
      "start": 76.5502,
      "duration": 0.1022,
      "velocity": 94,
      "chip": "ym2612"
    },
    {
      "channel": 0,
      "note": 50,
      "start": 76.6506,
      "duration": 0.1499,
      "velocity": 111,
      "chip": "ym2612"
    },
    {
      "channel": 1,
      "note": 69,
      "start": 76.6511,
      "duration": 0.15,
      "velocity": 114,
      "chip": "ym2612"
    },
    {
      "channel": 2,
      "note": 69,
      "start": 76.6517,
      "duration": 0.1517,
      "velocity": 114,
      "chip": "ym2612"
    },
    {
      "channel": 3,
      "note": 69,
      "start": 76.6524,
      "duration": 0.0144,
      "velocity": 94,
      "chip": "ym2612"
    },
    {
      "channel": 3,
      "note": 68,
      "start": 76.6668,
      "duration": 0.0167,
      "velocity": 94,
      "chip": "ym2612"
    },
    {
      "channel": 3,
      "note": 68,
      "start": 76.6835,
      "duration": 0.0167,
      "velocity": 94,
      "chip": "ym2612"
    },
    {
      "channel": 3,
      "note": 68,
      "start": 76.7002,
      "duration": 0.1053,
      "velocity": 127,
      "chip": "ym2612"
    },
    {
      "channel": 0,
      "note": 38,
      "start": 76.8007,
      "duration": 0.1663,
      "velocity": 111,
      "chip": "ym2612"
    },
    {
      "channel": 1,
      "note": 74,
      "start": 76.8014,
      "duration": 0.1663,
      "velocity": 114,
      "chip": "ym2612"
    },
    {
      "channel": 2,
      "note": 74,
      "start": 76.8034,
      "duration": 0.1648,
      "velocity": 114,
      "chip": "ym2612"
    },
    {
      "channel": 3,
      "note": 26,
      "start": 76.8056,
      "duration": 0.4798,
      "velocity": 127,
      "chip": "ym2612"
    },
    {
      "channel": 0,
      "note": 38,
      "start": 76.9673,
      "duration": 0.1665,
      "velocity": 111,
      "chip": "ym2612"
    },
    {
      "channel": 1,
      "note": 62,
      "start": 76.9678,
      "duration": 0.1664,
      "velocity": 114,
      "chip": "ym2612"
    },
    {
      "channel": 2,
      "note": 62,
      "start": 76.9683,
      "duration": 0.1665,
      "velocity": 114,
      "chip": "ym2612"
    },
    {
      "channel": 0,
      "note": 36,
      "start": 77.1339,
      "duration": 0.1499,
      "velocity": 111,
      "chip": "ym2612"
    },
    {
      "channel": 1,
      "note": 67,
      "start": 77.1344,
      "duration": 0.1499,
      "velocity": 114,
      "chip": "ym2612"
    },
    {
      "channel": 2,
      "note": 67,
      "start": 77.135,
      "duration": 0.1498,
      "velocity": 114,
      "chip": "ym2612"
    },
    {
      "channel": 0,
      "note": 38,
      "start": 77.2839,
      "duration": 0.1665,
      "velocity": 111,
      "chip": "ym2612"
    },
    {
      "channel": 1,
      "note": 69,
      "start": 77.2844,
      "duration": 0.1665,
      "velocity": 114,
      "chip": "ym2612"
    },
    {
      "channel": 2,
      "note": 69,
      "start": 77.285,
      "duration": 0.1665,
      "velocity": 114,
      "chip": "ym2612"
    },
    {
      "channel": 3,
      "note": 26,
      "start": 77.2856,
      "duration": 0.1665,
      "velocity": 127,
      "chip": "ym2612"
    },
    {
      "channel": 0,
      "note": 38,
      "start": 77.4506,
      "duration": 0.1498,
      "velocity": 111,
      "chip": "ym2612"
    },
    {
      "channel": 1,
      "note": 77,
      "start": 77.4511,
      "duration": 0.1498,
      "velocity": 114,
      "chip": "ym2612"
    },
    {
      "channel": 2,
      "note": 77,
      "start": 77.4517,
      "duration": 0.1498,
      "velocity": 114,
      "chip": "ym2612"
    },
    {
      "channel": 3,
      "note": 26,
      "start": 77.4522,
      "duration": 0.4832,
      "velocity": 127,
      "chip": "ym2612"
    },
    {
      "channel": 0,
      "note": 36,
      "start": 77.6005,
      "duration": 0.1666,
      "velocity": 111,
      "chip": "ym2612"
    },
    {
      "channel": 1,
      "note": 62,
      "start": 77.6011,
      "duration": 0.1665,
      "velocity": 114,
      "chip": "ym2612"
    },
    {
      "channel": 2,
      "note": 62,
      "start": 77.6017,
      "duration": 0.1665,
      "velocity": 114,
      "chip": "ym2612"
    },
    {
      "channel": 0,
      "note": 38,
      "start": 77.7672,
      "duration": 0.1666,
      "velocity": 111,
      "chip": "ym2612"
    },
    {
      "channel": 1,
      "note": 67,
      "start": 77.7678,
      "duration": 0.1665,
      "velocity": 114,
      "chip": "ym2612"
    },
    {
      "channel": 2,
      "note": 67,
      "start": 77.7683,
      "duration": 0.1665,
      "velocity": 114,
      "chip": "ym2612"
    },
    {
      "channel": 0,
      "note": 36,
      "start": 77.9339,
      "duration": 0.1498,
      "velocity": 111,
      "chip": "ym2612"
    },
    {
      "channel": 1,
      "note": 69,
      "start": 77.9344,
      "duration": 0.1499,
      "velocity": 114,
      "chip": "ym2612"
    },
    {
      "channel": 2,
      "note": 69,
      "start": 77.935,
      "duration": 0.1498,
      "velocity": 114,
      "chip": "ym2612"
    },
    {
      "channel": 3,
      "note": 26,
      "start": 77.9356,
      "duration": 0.1498,
      "velocity": 127,
      "chip": "ym2612"
    },
    {
      "channel": 0,
      "note": 38,
      "start": 78.0839,
      "duration": 0.1664,
      "velocity": 111,
      "chip": "ym2612"
    },
    {
      "channel": 1,
      "note": 74,
      "start": 78.0844,
      "duration": 0.1665,
      "velocity": 114,
      "chip": "ym2612"
    },
    {
      "channel": 2,
      "note": 74,
      "start": 78.085,
      "duration": 0.1665,
      "velocity": 114,
      "chip": "ym2612"
    },
    {
      "channel": 3,
      "note": 26,
      "start": 78.0856,
      "duration": 0.4832,
      "velocity": 127,
      "chip": "ym2612"
    },
    {
      "channel": 0,
      "note": 38,
      "start": 78.2505,
      "duration": 0.1499,
      "velocity": 111,
      "chip": "ym2612"
    },
    {
      "channel": 1,
      "note": 62,
      "start": 78.2511,
      "duration": 0.1498,
      "velocity": 114,
      "chip": "ym2612"
    },
    {
      "channel": 2,
      "note": 62,
      "start": 78.2516,
      "duration": 0.1499,
      "velocity": 114,
      "chip": "ym2612"
    },
    {
      "channel": 0,
      "note": 36,
      "start": 78.4005,
      "duration": 0.1666,
      "velocity": 111,
      "chip": "ym2612"
    },
    {
      "channel": 1,
      "note": 67,
      "start": 78.4011,
      "duration": 0.1665,
      "velocity": 114,
      "chip": "ym2612"
    },
    {
      "channel": 2,
      "note": 67,
      "start": 78.4016,
      "duration": 0.1665,
      "velocity": 114,
      "chip": "ym2612"
    },
    {
      "channel": 0,
      "note": 38,
      "start": 78.5673,
      "duration": 0.1665,
      "velocity": 111,
      "chip": "ym2612"
    },
    {
      "channel": 1,
      "note": 77,
      "start": 78.5678,
      "duration": 0.1665,
      "velocity": 114,
      "chip": "ym2612"
    },
    {
      "channel": 2,
      "note": 77,
      "start": 78.5683,
      "duration": 0.1665,
      "velocity": 114,
      "chip": "ym2612"
    },
    {
      "channel": 3,
      "note": 26,
      "start": 78.5689,
      "duration": 0.1665,
      "velocity": 127,
      "chip": "ym2612"
    },
    {
      "channel": 0,
      "note": 38,
      "start": 78.7339,
      "duration": 0.1498,
      "velocity": 111,
      "chip": "ym2612"
    },
    {
      "channel": 1,
      "note": 62,
      "start": 78.7344,
      "duration": 0.1498,
      "velocity": 114,
      "chip": "ym2612"
    },
    {
      "channel": 2,
      "note": 62,
      "start": 78.735,
      "duration": 0.1498,
      "velocity": 114,
      "chip": "ym2612"
    },
    {
      "channel": 3,
      "note": 26,
      "start": 78.7356,
      "duration": 0.4665,
      "velocity": 127,
      "chip": "ym2612"
    },
    {
      "channel": 0,
      "note": 36,
      "start": 78.8839,
      "duration": 0.1665,
      "velocity": 111,
      "chip": "ym2612"
    },
    {
      "channel": 1,
      "note": 77,
      "start": 78.8844,
      "duration": 0.1665,
      "velocity": 114,
      "chip": "ym2612"
    },
    {
      "channel": 2,
      "note": 77,
      "start": 78.8849,
      "duration": 0.1665,
      "velocity": 114,
      "chip": "ym2612"
    },
    {
      "channel": 0,
      "note": 38,
      "start": 79.0505,
      "duration": 0.1499,
      "velocity": 111,
      "chip": "ym2612"
    },
    {
      "channel": 1,
      "note": 67,
      "start": 79.0511,
      "duration": 0.1499,
      "velocity": 114,
      "chip": "ym2612"
    },
    {
      "channel": 2,
      "note": 67,
      "start": 79.0516,
      "duration": 0.1499,
      "velocity": 114,
      "chip": "ym2612"
    },
    {
      "channel": 0,
      "note": 36,
      "start": 79.2006,
      "duration": 0.1665,
      "velocity": 111,
      "chip": "ym2612"
    },
    {
      "channel": 1,
      "note": 69,
      "start": 79.2012,
      "duration": 0.1665,
      "velocity": 114,
      "chip": "ym2612"
    },
    {
      "channel": 2,
      "note": 69,
      "start": 79.2017,
      "duration": 0.1665,
      "velocity": 114,
      "chip": "ym2612"
    },
    {
      "channel": 3,
      "note": 26,
      "start": 79.2022,
      "duration": 0.1665,
      "velocity": 127,
      "chip": "ym2612"
    },
    {
      "channel": 0,
      "note": 38,
      "start": 79.3673,
      "duration": 0.1664,
      "velocity": 111,
      "chip": "ym2612"
    },
    {
      "channel": 1,
      "note": 74,
      "start": 79.3678,
      "duration": 0.1665,
      "velocity": 114,
      "chip": "ym2612"
    },
    {
      "channel": 2,
      "note": 74,
      "start": 79.3683,
      "duration": 0.1665,
      "velocity": 114,
      "chip": "ym2612"
    },
    {
      "channel": 3,
      "note": 26,
      "start": 79.3689,
      "duration": 0.4832,
      "velocity": 127,
      "chip": "ym2612"
    },
    {
      "channel": 0,
      "note": 38,
      "start": 79.5339,
      "duration": 0.1499,
      "velocity": 111,
      "chip": "ym2612"
    },
    {
      "channel": 1,
      "note": 62,
      "start": 79.5344,
      "duration": 0.1498,
      "velocity": 114,
      "chip": "ym2612"
    },
    {
      "channel": 2,
      "note": 62,
      "start": 79.5349,
      "duration": 0.1499,
      "velocity": 114,
      "chip": "ym2612"
    },
    {
      "channel": 0,
      "note": 36,
      "start": 79.6839,
      "duration": 0.1666,
      "velocity": 111,
      "chip": "ym2612"
    },
    {
      "channel": 1,
      "note": 67,
      "start": 79.6844,
      "duration": 0.1665,
      "velocity": 114,
      "chip": "ym2612"
    },
    {
      "channel": 2,
      "note": 67,
      "start": 79.685,
      "duration": 0.1665,
      "velocity": 114,
      "chip": "ym2612"
    },
    {
      "channel": 0,
      "note": 38,
      "start": 79.8506,
      "duration": 0.1498,
      "velocity": 111,
      "chip": "ym2612"
    },
    {
      "channel": 1,
      "note": 69,
      "start": 79.8511,
      "duration": 0.1499,
      "velocity": 114,
      "chip": "ym2612"
    },
    {
      "channel": 2,
      "note": 69,
      "start": 79.8517,
      "duration": 0.1498,
      "velocity": 114,
      "chip": "ym2612"
    },
    {
      "channel": 3,
      "note": 26,
      "start": 79.8522,
      "duration": 0.1498,
      "velocity": 127,
      "chip": "ym2612"
    },
    {
      "channel": 0,
      "note": 38,
      "start": 80.0006,
      "duration": 0.1665,
      "velocity": 111,
      "chip": "ym2612"
    },
    {
      "channel": 1,
      "note": 77,
      "start": 80.0011,
      "duration": 0.1665,
      "velocity": 114,
      "chip": "ym2612"
    },
    {
      "channel": 2,
      "note": 77,
      "start": 80.0017,
      "duration": 0.1665,
      "velocity": 114,
      "chip": "ym2612"
    },
    {
      "channel": 3,
      "note": 26,
      "start": 80.0022,
      "duration": 0.4832,
      "velocity": 127,
      "chip": "ym2612"
    },
    {
      "channel": 0,
      "note": 36,
      "start": 80.1672,
      "duration": 0.1666,
      "velocity": 111,
      "chip": "ym2612"
    },
    {
      "channel": 1,
      "note": 62,
      "start": 80.1678,
      "duration": 0.1665,
      "velocity": 114,
      "chip": "ym2612"
    },
    {
      "channel": 2,
      "note": 62,
      "start": 80.1683,
      "duration": 0.1665,
      "velocity": 114,
      "chip": "ym2612"
    },
    {
      "channel": 0,
      "note": 38,
      "start": 80.3339,
      "duration": 0.1499,
      "velocity": 111,
      "chip": "ym2612"
    },
    {
      "channel": 1,
      "note": 67,
      "start": 80.3344,
      "duration": 0.1499,
      "velocity": 114,
      "chip": "ym2612"
    },
    {
      "channel": 2,
      "note": 67,
      "start": 80.335,
      "duration": 0.1498,
      "velocity": 114,
      "chip": "ym2612"
    },
    {
      "channel": 0,
      "note": 36,
      "start": 80.4839,
      "duration": 0.1665,
      "velocity": 111,
      "chip": "ym2612"
    },
    {
      "channel": 1,
      "note": 69,
      "start": 80.4844,
      "duration": 0.1665,
      "velocity": 114,
      "chip": "ym2612"
    },
    {
      "channel": 2,
      "note": 69,
      "start": 80.485,
      "duration": 0.1665,
      "velocity": 114,
      "chip": "ym2612"
    },
    {
      "channel": 3,
      "note": 26,
      "start": 80.4856,
      "duration": 0.1665,
      "velocity": 127,
      "chip": "ym2612"
    },
    {
      "channel": 0,
      "note": 38,
      "start": 80.6506,
      "duration": 0.1498,
      "velocity": 111,
      "chip": "ym2612"
    },
    {
      "channel": 1,
      "note": 74,
      "start": 80.6512,
      "duration": 0.1498,
      "velocity": 114,
      "chip": "ym2612"
    },
    {
      "channel": 2,
      "note": 74,
      "start": 80.6517,
      "duration": 0.1498,
      "velocity": 114,
      "chip": "ym2612"
    },
    {
      "channel": 3,
      "note": 26,
      "start": 80.6522,
      "duration": 0.4832,
      "velocity": 127,
      "chip": "ym2612"
    },
    {
      "channel": 0,
      "note": 45,
      "start": 80.8005,
      "duration": 0.1666,
      "velocity": 111,
      "chip": "ym2612"
    },
    {
      "channel": 1,
      "note": 62,
      "start": 80.8011,
      "duration": 0.1665,
      "velocity": 114,
      "chip": "ym2612"
    },
    {
      "channel": 2,
      "note": 62,
      "start": 80.8016,
      "duration": 0.1665,
      "velocity": 114,
      "chip": "ym2612"
    },
    {
      "channel": 0,
      "note": 40,
      "start": 80.9672,
      "duration": 0.1666,
      "velocity": 111,
      "chip": "ym2612"
    },
    {
      "channel": 1,
      "note": 67,
      "start": 80.9678,
      "duration": 0.1665,
      "velocity": 114,
      "chip": "ym2612"
    },
    {
      "channel": 2,
      "note": 67,
      "start": 80.9683,
      "duration": 0.1665,
      "velocity": 114,
      "chip": "ym2612"
    },
    {
      "channel": 0,
      "note": 47,
      "start": 81.1339,
      "duration": 0.1498,
      "velocity": 111,
      "chip": "ym2612"
    },
    {
      "channel": 1,
      "note": 77,
      "start": 81.1344,
      "duration": 0.1499,
      "velocity": 114,
      "chip": "ym2612"
    },
    {
      "channel": 2,
      "note": 77,
      "start": 81.135,
      "duration": 0.1498,
      "velocity": 114,
      "chip": "ym2612"
    },
    {
      "channel": 3,
      "note": 26,
      "start": 81.1356,
      "duration": 0.1498,
      "velocity": 127,
      "chip": "ym2612"
    },
    {
      "channel": 0,
      "note": 41,
      "start": 81.2839,
      "duration": 0.1664,
      "velocity": 111,
      "chip": "ym2612"
    },
    {
      "channel": 1,
      "note": 62,
      "start": 81.2844,
      "duration": 0.1665,
      "velocity": 114,
      "chip": "ym2612"
    },
    {
      "channel": 2,
      "note": 62,
      "start": 81.285,
      "duration": 0.1665,
      "velocity": 114,
      "chip": "ym2612"
    },
    {
      "channel": 3,
      "note": 26,
      "start": 81.2856,
      "duration": 0.4832,
      "velocity": 127,
      "chip": "ym2612"
    },
    {
      "channel": 0,
      "note": 48,
      "start": 81.4505,
      "duration": 0.1499,
      "velocity": 111,
      "chip": "ym2612"
    },
    {
      "channel": 1,
      "note": 77,
      "start": 81.4511,
      "duration": 0.1498,
      "velocity": 114,
      "chip": "ym2612"
    },
    {
      "channel": 2,
      "note": 77,
      "start": 81.4516,
      "duration": 0.1499,
      "velocity": 114,
      "chip": "ym2612"
    },
    {
      "channel": 0,
      "note": 43,
      "start": 81.6005,
      "duration": 0.1666,
      "velocity": 111,
      "chip": "ym2612"
    },
    {
      "channel": 1,
      "note": 67,
      "start": 81.6011,
      "duration": 0.1665,
      "velocity": 114,
      "chip": "ym2612"
    },
    {
      "channel": 2,
      "note": 67,
      "start": 81.6016,
      "duration": 0.1665,
      "velocity": 114,
      "chip": "ym2612"
    },
    {
      "channel": 0,
      "note": 50,
      "start": 81.7673,
      "duration": 0.1667,
      "velocity": 111,
      "chip": "ym2612"
    },
    {
      "channel": 1,
      "note": 69,
      "start": 81.7678,
      "duration": 0.1683,
      "velocity": 94,
      "chip": "ym2612"
    },
    {
      "channel": 2,
      "note": 69,
      "start": 81.7683,
      "duration": 0.1698,
      "velocity": 94,
      "chip": "ym2612"
    },
    {
      "channel": 3,
      "note": 26,
      "start": 81.7689,
      "duration": 0.1698,
      "velocity": 127,
      "chip": "ym2612"
    },
    {
      "channel": 0,
      "note": 50,
      "start": 81.9341,
      "duration": 0.4663,
      "velocity": 111,
      "chip": "ym2612"
    },
    {
      "channel": 1,
      "note": 57,
      "start": 81.9362,
      "duration": 0.4648,
      "velocity": 94,
      "chip": "ym2612"
    },
    {
      "channel": 2,
      "note": 65,
      "start": 81.9383,
      "duration": 0.4632,
      "velocity": 94,
      "chip": "ym2612"
    },
    {
      "channel": 3,
      "note": 26,
      "start": 81.939,
      "duration": 0.4631,
      "velocity": 127,
      "chip": "ym2612"
    },
    {
      "channel": 0,
      "note": 52,
      "start": 82.4006,
      "duration": 0.16,
      "velocity": 111,
      "chip": "ym2612"
    },
    {
      "channel": 1,
      "note": 59,
      "start": 82.4012,
      "duration": 0.1594,
      "velocity": 94,
      "chip": "ym2612"
    },
    {
      "channel": 2,
      "note": 67,
      "start": 82.4017,
      "duration": 0.1589,
      "velocity": 94,
      "chip": "ym2612"
    },
    {
      "channel": 3,
      "note": 26,
      "start": 82.4022,
      "duration": 0.1583,
      "velocity": 127,
      "chip": "ym2612"
    }
  ]
}