{
  "track_name": "02 - The Dead Pool",
  "duration_sec": 27.578,
  "sample_rate": 44100,
  "note_count": 201,
  "unique_pitches": 19,
  "pitch_range": 78,
  "avg_note_duration": 0.7867,
  "reconstruction_stats": {
    "notes_reconstructed": 201,
    "keyon_events": 201,
    "keyoff_events": 195,
    "orphan_keyons": 6,
    "unique_pitches": 19,
    "pitch_range": 78,
    "avg_duration_sec": 0.7867
  },
  "metadata": {
    "source": "M\\Mortal Kombat II\\02 - The Dead Pool.vgz"
  },
  "notes": [
    {
      "channel": 0,
      "note": 37,
      "start": 0.0022,
      "duration": 0.4073,
      "velocity": 72,
      "chip": "ym2612"
    },
    {
      "channel": 1,
      "note": 49,
      "start": 0.0043,
      "duration": 3.2894,
      "velocity": 95,
      "chip": "ym2612"
    },
    {
      "channel": 2,
      "note": 98,
      "start": 0.2058,
      "duration": 0.3997,
      "velocity": 87,
      "chip": "ym2612"
    },
    {
      "channel": 5,
      "note": 20,
      "start": 0.208,
      "duration": 1.1973,
      "velocity": 97,
      "chip": "ym2612"
    },
    {
      "channel": 0,
      "note": 37,
      "start": 0.4097,
      "duration": 1.2469,
      "velocity": 72,
      "chip": "ym2612"
    },
    {
      "channel": 2,
      "note": 98,
      "start": 0.6057,
      "duration": 0.5083,
      "velocity": 87,
      "chip": "ym2612"
    },
    {
      "channel": 2,
      "note": 98,
      "start": 1.1142,
      "duration": 0.0407,
      "velocity": 87,
      "chip": "ym2612"
    },
    {
      "channel": 2,
      "note": 98,
      "start": 1.1552,
      "duration": 0.0573,
      "velocity": 87,
      "chip": "ym2612"
    },
    {
      "channel": 2,
      "note": 98,
      "start": 1.2127,
      "duration": 0.6283,
      "velocity": 87,
      "chip": "ym2612"
    },
    {
      "channel": 5,
      "note": 20,
      "start": 1.4055,
      "duration": 1.6363,
      "velocity": 97,
      "chip": "ym2612"
    },
    {
      "channel": 0,
      "note": 37,
      "start": 1.6567,
      "duration": 0.3896,
      "velocity": 72,
      "chip": "ym2612"
    },
    {
      "channel": 2,
      "note": 98,
      "start": 1.8412,
      "duration": 0.4061,
      "velocity": 87,
      "chip": "ym2612"
    },
    {
      "channel": 0,
      "note": 37,
      "start": 2.0466,
      "duration": 1.2466,
      "velocity": 72,
      "chip": "ym2612"
    },
    {
      "channel": 2,
      "note": 98,
      "start": 2.2474,
      "duration": 0.5073,
      "velocity": 87,
      "chip": "ym2612"
    },
    {
      "channel": 2,
      "note": 98,
      "start": 2.7549,
      "duration": 0.0391,
      "velocity": 87,
      "chip": "ym2612"
    },
    {
      "channel": 2,
      "note": 98,
      "start": 2.7941,
      "duration": 0.0541,
      "velocity": 87,
      "chip": "ym2612"
    },
    {
      "channel": 2,
      "note": 98,
      "start": 2.8484,
      "duration": 0.6302,
      "velocity": 87,
      "chip": "ym2612"
    },
    {
      "channel": 5,
      "note": 20,
      "start": 3.0419,
      "duration": 0.4379,
      "velocity": 97,
      "chip": "ym2612"
    },
    {
      "channel": 0,
      "note": 37,
      "start": 3.2932,
      "duration": 0.4035,
      "velocity": 72,
      "chip": "ym2612"
    },
    {
      "channel": 1,
      "note": 49,
      "start": 3.2939,
      "duration": 1.6418,
      "velocity": 95,
      "chip": "ym2612"
    },
    {
      "channel": 3,
      "note": 61,
      "start": 3.2961,
      "duration": 0.183,
      "velocity": 124,
      "chip": "ym2612"
    },
    {
      "channel": 2,
      "note": 98,
      "start": 3.4787,
      "duration": 0.4054,
      "velocity": 87,
      "chip": "ym2612"
    },
    {
      "channel": 3,
      "note": 67,
      "start": 3.4793,
      "duration": 0.2181,
      "velocity": 124,
      "chip": "ym2612"
    },
    {
      "channel": 5,
      "note": 20,
      "start": 3.48,
      "duration": 1.2205,
      "velocity": 97,
      "chip": "ym2612"
    },
    {
      "channel": 4,
      "note": 61,
      "start": 3.597,
      "duration": 0.2016,
      "velocity": 124,
      "chip": "ym2612"
    },
    {
      "channel": 0,
      "note": 37,
      "start": 3.6969,
      "duration": 1.2383,
      "velocity": 72,
      "chip": "ym2612"
    },
    {
      "channel": 3,
      "note": 71,
      "start": 3.6976,
      "duration": 0.1871,
      "velocity": 124,
      "chip": "ym2612"
    },
    {
      "channel": 4,
      "note": 67,
      "start": 3.7988,
      "duration": 0.1732,
      "velocity": 124,
      "chip": "ym2612"
    },
    {
      "channel": 2,
      "note": 98,
      "start": 3.8843,
      "duration": 0.5111,
      "velocity": 87,
      "chip": "ym2612"
    },
    {
      "channel": 3,
      "note": 65,
      "start": 3.8849,
      "duration": 0.1744,
      "velocity": 124,
      "chip": "ym2612"
    },
    {
      "channel": 4,
      "note": 71,
      "start": 3.9722,
      "duration": 0.2082,
      "velocity": 124,
      "chip": "ym2612"
    },
    {
      "channel": 3,
      "note": 64,
      "start": 4.0595,
      "duration": 2.5112,
      "velocity": 124,
      "chip": "ym2612"
    },
    {
      "channel": 4,
      "note": 65,
      "start": 4.1805,
      "duration": 0.2156,
      "velocity": 124,
      "chip": "ym2612"
    },
    {
      "channel": 2,
      "note": 98,
      "start": 4.3957,
      "duration": 0.0546,
      "velocity": 87,
      "chip": "ym2612"
    },
    {
      "channel": 4,
      "note": 64,
      "start": 4.3963,
      "duration": 2.4924,
      "velocity": 124,
      "chip": "ym2612"
    },
    {
      "channel": 2,
      "note": 98,
      "start": 4.4505,
      "duration": 0.043,
      "velocity": 87,
      "chip": "ym2612"
    },
    {
      "channel": 2,
      "note": 98,
      "start": 4.4937,
      "duration": 0.6274,
      "velocity": 87,
      "chip": "ym2612"
    },
    {
      "channel": 5,
      "note": 20,
      "start": 4.7007,
      "duration": 1.6339,
      "velocity": 97,
      "chip": "ym2612"
    },
    {
      "channel": 0,
      "note": 40,
      "start": 4.9353,
      "duration": 0.4076,
      "velocity": 72,
      "chip": "ym2612"
    },
    {
      "channel": 1,
      "note": 40,
      "start": 4.9359,
      "duration": 1.6341,
      "velocity": 95,
      "chip": "ym2612"
    },
    {
      "channel": 2,
      "note": 98,
      "start": 5.1212,
      "duration": 0.4056,
      "velocity": 87,
      "chip": "ym2612"
    },
    {
      "channel": 0,
      "note": 40,
      "start": 5.3431,
      "duration": 1.2263,
      "velocity": 72,
      "chip": "ym2612"
    },
    {
      "channel": 2,
      "note": 98,
      "start": 5.527,
      "duration": 0.5065,
      "velocity": 87,
      "chip": "ym2612"
    },
    {
      "channel": 2,
      "note": 98,
      "start": 6.0337,
      "duration": 0.0523,
      "velocity": 87,
      "chip": "ym2612"
    },
    {
      "channel": 2,
      "note": 98,
      "start": 6.0861,
      "duration": 0.0412,
      "velocity": 87,
      "chip": "ym2612"
    },
    {
      "channel": 2,
      "note": 98,
      "start": 6.1275,
      "duration": 0.6444,
      "velocity": 87,
      "chip": "ym2612"
    },
    {
      "channel": 5,
      "note": 20,
      "start": 6.3348,
      "duration": 0.4384,
      "velocity": 97,
      "chip": "ym2612"
    },
    {
      "channel": 0,
      "note": 46,
      "start": 6.5695,
      "duration": 0.4073,
      "velocity": 72,
      "chip": "ym2612"
    },
    {
      "channel": 1,
      "note": 46,
      "start": 6.5702,
      "duration": 0.4072,
      "velocity": 95,
      "chip": "ym2612"
    },
    {
      "channel": 3,
      "note": 61,
      "start": 6.5709,
      "duration": 0.2016,
      "velocity": 124,
      "chip": "ym2612"
    },
    {
      "channel": 2,
      "note": 98,
      "start": 6.7721,
      "duration": 0.3902,
      "velocity": 87,
      "chip": "ym2612"
    },
    {
      "channel": 3,
      "note": 64,
      "start": 6.7727,
      "duration": 0.2054,
      "velocity": 124,
      "chip": "ym2612"
    },
    {
      "channel": 5,
      "note": 20,
      "start": 6.7733,
      "duration": 1.2035,
      "velocity": 97,
      "chip": "ym2612"
    },
    {
      "channel": 4,
      "note": 61,
      "start": 6.8889,
      "duration": 0.1881,
      "velocity": 124,
      "chip": "ym2612"
    },
    {
      "channel": 0,
      "note": 44,
      "start": 6.977,
      "duration": 0.8054,
      "velocity": 72,
      "chip": "ym2612"
    },
    {
      "channel": 1,
      "note": 44,
      "start": 6.9776,
      "duration": 0.8054,
      "velocity": 95,
      "chip": "ym2612"
    },
    {
      "channel": 3,
      "note": 70,
      "start": 6.9781,
      "duration": 2.8805,
      "velocity": 124,
      "chip": "ym2612"
    },
    {
      "channel": 4,
      "note": 64,
      "start": 7.0771,
      "duration": 0.1853,
      "velocity": 124,
      "chip": "ym2612"
    },
    {
      "channel": 2,
      "note": 98,
      "start": 7.1624,
      "duration": 0.51,
      "velocity": 87,
      "chip": "ym2612"
    },
    {
      "channel": 4,
      "note": 70,
      "start": 7.2626,
      "duration": 2.7835,
      "velocity": 124,
      "chip": "ym2612"
    },
    {
      "channel": 2,
      "note": 98,
      "start": 7.6726,
      "duration": 0.0543,
      "velocity": 87,
      "chip": "ym2612"
    },
    {
      "channel": 2,
      "note": 98,
      "start": 7.7271,
      "duration": 0.0579,
      "velocity": 87,
      "chip": "ym2612"
    },
    {
      "channel": 0,
      "note": 40,
      "start": 7.7826,
      "duration": 0.4274,
      "velocity": 72,
      "chip": "ym2612"
    },
    {
      "channel": 1,
      "note": 40,
      "start": 7.7831,
      "duration": 0.4274,
      "velocity": 95,
      "chip": "ym2612"
    },
    {
      "channel": 2,
      "note": 98,
      "start": 7.7852,
      "duration": 0.629,
      "velocity": 87,
      "chip": "ym2612"
    },
    {
      "channel": 5,
      "note": 20,
      "start": 7.9771,
      "duration": 1.6305,
      "velocity": 97,
      "chip": "ym2612"
    },
    {
      "channel": 0,
      "note": 43,
      "start": 8.2101,
      "duration": 1.6473,
      "velocity": 72,
      "chip": "ym2612"
    },
    {
      "channel": 1,
      "note": 43,
      "start": 8.2106,
      "duration": 1.6474,
      "velocity": 95,
      "chip": "ym2612"
    },
    {
      "channel": 2,
      "note": 98,
      "start": 8.4144,
      "duration": 0.4025,
      "velocity": 87,
      "chip": "ym2612"
    },
    {
      "channel": 2,
      "note": 98,
      "start": 8.8171,
      "duration": 0.5028,
      "velocity": 87,
      "chip": "ym2612"
    },
    {
      "channel": 2,
      "note": 98,
      "start": 9.3201,
      "duration": 0.0395,
      "velocity": 87,
      "chip": "ym2612"
    },
    {
      "channel": 2,
      "note": 98,
      "start": 9.3597,
      "duration": 0.0545,
      "velocity": 87,
      "chip": "ym2612"
    },
    {
      "channel": 2,
      "note": 98,
      "start": 9.4144,
      "duration": 0.6305,
      "velocity": 87,
      "chip": "ym2612"
    },
    {
      "channel": 5,
      "note": 20,
      "start": 9.6077,
      "duration": 0.439,
      "velocity": 97,
      "chip": "ym2612"
    },
    {
      "channel": 0,
      "note": 37,
      "start": 9.8576,
      "duration": 0.393,
      "velocity": 72,
      "chip": "ym2612"
    },
    {
      "channel": 1,
      "note": 49,
      "start": 9.8581,
      "duration": 1.6465,
      "velocity": 95,
      "chip": "ym2612"
    },
    {
      "channel": 3,
      "note": 70,
      "start": 9.8588,
      "duration": 0.0865,
      "velocity": 124,
      "chip": "ym2612"
    },
    {
      "channel": 3,
      "note": 71,
      "start": 9.9455,
      "duration": 0.1,
      "velocity": 124,
      "chip": "ym2612"
    },
    {
      "channel": 2,
      "note": 98,
      "start": 10.0451,
      "duration": 0.406,
      "velocity": 87,
      "chip": "ym2612"
    },
    {
      "channel": 3,
      "note": 70,
      "start": 10.0456,
      "duration": 1.4597,
      "velocity": 124,
      "chip": "ym2612"
    },
    {
      "channel": 4,
      "note": 70,
      "start": 10.0462,
      "duration": 0.1153,
      "velocity": 124,
      "chip": "ym2612"
    },
    {
      "channel": 5,
      "note": 20,
      "start": 10.0469,
      "duration": 1.2057,
      "velocity": 97,
      "chip": "ym2612"
    },
    {
      "channel": 4,
      "note": 71,
      "start": 10.1617,
      "duration": 0.0895,
      "velocity": 124,
      "chip": "ym2612"
    },
    {
      "channel": 0,
      "note": 37,
      "start": 10.2507,
      "duration": 1.2533,
      "velocity": 72,
      "chip": "ym2612"
    },
    {
      "channel": 4,
      "note": 70,
      "start": 10.2515,
      "duration": 1.555,
      "velocity": 124,
      "chip": "ym2612"
    },
    {
      "channel": 2,
      "note": 98,
      "start": 10.4512,
      "duration": 0.5112,
      "velocity": 87,
      "chip": "ym2612"
    },
    {
      "channel": 2,
      "note": 98,
      "start": 10.9627,
      "duration": 0.0402,
      "velocity": 87,
      "chip": "ym2612"
    },
    {
      "channel": 2,
      "note": 98,
      "start": 11.003,
      "duration": 0.0568,
      "velocity": 87,
      "chip": "ym2612"
    },
    {
      "channel": 2,
      "note": 98,
      "start": 11.06,
      "duration": 0.6298,
      "velocity": 87,
      "chip": "ym2612"
    },
    {
      "channel": 5,
      "note": 20,
      "start": 11.2527,
      "duration": 0.4383,
      "velocity": 97,
      "chip": "ym2612"
    },
    {
      "channel": 0,
      "note": 37,
      "start": 11.5042,
      "duration": 0.4039,
      "velocity": 72,
      "chip": "ym2612"
    },
    {
      "channel": 1,
      "note": 49,
      "start": 11.5048,
      "duration": 1.6427,
      "velocity": 95,
      "chip": "ym2612"
    },
    {
      "channel": 3,
      "note": 61,
      "start": 11.5055,
      "duration": 0.1848,
      "velocity": 124,
      "chip": "ym2612"
    },
    {
      "channel": 2,
      "note": 98,
      "start": 11.6899,
      "duration": 0.4067,
      "velocity": 87,
      "chip": "ym2612"
    },
    {
      "channel": 3,
      "note": 67,
      "start": 11.6905,
      "duration": 0.2182,
      "velocity": 124,
      "chip": "ym2612"
    },
    {
      "channel": 5,
      "note": 20,
      "start": 11.6912,
      "duration": 1.2211,
      "velocity": 97,
      "chip": "ym2612"
    },
    {
      "channel": 4,
      "note": 61,
      "start": 11.8067,
      "duration": 0.2039,
      "velocity": 124,
      "chip": "ym2612"
    },
    {
      "channel": 0,
      "note": 37,
      "start": 11.9082,
      "duration": 1.2388,
      "velocity": 72,
      "chip": "ym2612"
    },
    {
      "channel": 3,
      "note": 71,
      "start": 11.9089,
      "duration": 0.1882,
      "velocity": 124,
      "chip": "ym2612"
    },
    {
      "channel": 4,
      "note": 67,
      "start": 12.0107,
      "duration": 0.1733,
      "velocity": 124,
      "chip": "ym2612"
    },
    {
      "channel": 2,
      "note": 98,
      "start": 12.0968,
      "duration": 0.5106,
      "velocity": 87,
      "chip": "ym2612"
    },
    {
      "channel": 3,
      "note": 65,
      "start": 12.0973,
      "duration": 0.174,
      "velocity": 124,
      "chip": "ym2612"
    },
    {
      "channel": 4,
      "note": 71,
      "start": 12.1842,
      "duration": 0.2082,
      "velocity": 124,
      "chip": "ym2612"
    },
    {
      "channel": 3,
      "note": 64,
      "start": 12.2714,
      "duration": 2.5126,
      "velocity": 124,
      "chip": "ym2612"
    },
    {
      "channel": 4,
      "note": 65,
      "start": 12.3926,
      "duration": 0.2154,
      "velocity": 124,
      "chip": "ym2612"
    },
    {
      "channel": 2,
      "note": 98,
      "start": 12.6076,
      "duration": 0.0541,
      "velocity": 87,
      "chip": "ym2612"
    },
    {
      "channel": 4,
      "note": 64,
      "start": 12.6082,
      "duration": 2.493,
      "velocity": 124,
      "chip": "ym2612"
    },
    {
      "channel": 2,
      "note": 98,
      "start": 12.6619,
      "duration": 0.0428,
      "velocity": 87,
      "chip": "ym2612"
    },
    {
      "channel": 2,
      "note": 98,
      "start": 12.7049,
      "duration": 0.628,
      "velocity": 87,
      "chip": "ym2612"
    },
    {
      "channel": 5,
      "note": 20,
      "start": 12.9125,
      "duration": 1.6354,
      "velocity": 97,
      "chip": "ym2612"
    },
    {
      "channel": 0,
      "note": 40,
      "start": 13.1471,
      "duration": 0.4077,
      "velocity": 72,
      "chip": "ym2612"
    },
    {
      "channel": 1,
      "note": 40,
      "start": 13.1477,
      "duration": 1.6356,
      "velocity": 95,
      "chip": "ym2612"
    },
    {
      "channel": 2,
      "note": 98,
      "start": 13.333,
      "duration": 0.4064,
      "velocity": 87,
      "chip": "ym2612"
    },
    {
      "channel": 0,
      "note": 40,
      "start": 13.555,
      "duration": 1.2277,
      "velocity": 72,
      "chip": "ym2612"
    },
    {
      "channel": 2,
      "note": 98,
      "start": 13.7396,
      "duration": 0.5073,
      "velocity": 87,
      "chip": "ym2612"
    },
    {
      "channel": 2,
      "note": 98,
      "start": 14.2471,
      "duration": 0.0517,
      "velocity": 87,
      "chip": "ym2612"
    },
    {
      "channel": 2,
      "note": 98,
      "start": 14.2989,
      "duration": 0.0418,
      "velocity": 87,
      "chip": "ym2612"
    },
    {
      "channel": 2,
      "note": 98,
      "start": 14.3409,
      "duration": 0.6436,
      "velocity": 87,
      "chip": "ym2612"
    },
    {
      "channel": 5,
      "note": 20,
      "start": 14.5481,
      "duration": 0.4376,
      "velocity": 97,
      "chip": "ym2612"
    },
    {
      "channel": 0,
      "note": 46,
      "start": 14.7829,
      "duration": 0.4056,
      "velocity": 72,
      "chip": "ym2612"
    },
    {
      "channel": 1,
      "note": 46,
      "start": 14.7834,
      "duration": 0.4056,
      "velocity": 95,
      "chip": "ym2612"
    },
    {
      "channel": 3,
      "note": 61,
      "start": 14.7841,
      "duration": 0.2009,
      "velocity": 124,
      "chip": "ym2612"
    },
    {
      "channel": 2,
      "note": 98,
      "start": 14.9846,
      "duration": 0.3882,
      "velocity": 87,
      "chip": "ym2612"
    },
    {
      "channel": 3,
      "note": 64,
      "start": 14.9852,
      "duration": 0.2044,
      "velocity": 124,
      "chip": "ym2612"
    },
    {
      "channel": 5,
      "note": 20,
      "start": 14.9859,
      "duration": 1.2015,
      "velocity": 97,
      "chip": "ym2612"
    },
    {
      "channel": 4,
      "note": 61,
      "start": 15.1014,
      "duration": 0.1862,
      "velocity": 124,
      "chip": "ym2612"
    },
    {
      "channel": 0,
      "note": 44,
      "start": 15.1886,
      "duration": 0.8039,
      "velocity": 72,
      "chip": "ym2612"
    },
    {
      "channel": 1,
      "note": 44,
      "start": 15.1891,
      "duration": 0.804,
      "velocity": 95,
      "chip": "ym2612"
    },
    {
      "channel": 3,
      "note": 70,
      "start": 15.1898,
      "duration": 2.8762,
      "velocity": 124,
      "chip": "ym2612"
    },
    {
      "channel": 4,
      "note": 64,
      "start": 15.2878,
      "duration": 0.1862,
      "velocity": 124,
      "chip": "ym2612"
    },
    {
      "channel": 2,
      "note": 98,
      "start": 15.373,
      "duration": 0.5103,
      "velocity": 87,
      "chip": "ym2612"
    },
    {
      "channel": 4,
      "note": 70,
      "start": 15.4741,
      "duration": 2.7778,
      "velocity": 124,
      "chip": "ym2612"
    },
    {
      "channel": 2,
      "note": 98,
      "start": 15.8835,
      "duration": 0.0541,
      "velocity": 87,
      "chip": "ym2612"
    },
    {
      "channel": 2,
      "note": 98,
      "start": 15.9377,
      "duration": 0.0575,
      "velocity": 87,
      "chip": "ym2612"
    },
    {
      "channel": 0,
      "note": 40,
      "start": 15.9928,
      "duration": 0.4276,
      "velocity": 72,
      "chip": "ym2612"
    },
    {
      "channel": 1,
      "note": 40,
      "start": 15.9933,
      "duration": 0.4277,
      "velocity": 95,
      "chip": "ym2612"
    },
    {
      "channel": 2,
      "note": 98,
      "start": 15.9954,
      "duration": 0.6292,
      "velocity": 87,
      "chip": "ym2612"
    },
    {
      "channel": 5,
      "note": 20,
      "start": 16.1876,
      "duration": 1.6272,
      "velocity": 97,
      "chip": "ym2612"
    },
    {
      "channel": 0,
      "note": 43,
      "start": 16.4206,
      "duration": 1.6441,
      "velocity": 72,
      "chip": "ym2612"
    },
    {
      "channel": 1,
      "note": 43,
      "start": 16.4211,
      "duration": 1.6442,
      "velocity": 95,
      "chip": "ym2612"
    },
    {
      "channel": 2,
      "note": 98,
      "start": 16.6248,
      "duration": 0.4011,
      "velocity": 87,
      "chip": "ym2612"
    },
    {
      "channel": 2,
      "note": 98,
      "start": 17.0261,
      "duration": 0.5031,
      "velocity": 87,
      "chip": "ym2612"
    },
    {
      "channel": 2,
      "note": 98,
      "start": 17.5293,
      "duration": 0.0388,
      "velocity": 87,
      "chip": "ym2612"
    },
    {
      "channel": 2,
      "note": 98,
      "start": 17.5683,
      "duration": 0.0538,
      "velocity": 87,
      "chip": "ym2612"
    },
    {
      "channel": 2,
      "note": 98,
      "start": 17.6222,
      "duration": 0.6285,
      "velocity": 87,
      "chip": "ym2612"
    },
    {
      "channel": 5,
      "note": 20,
      "start": 17.8149,
      "duration": 0.4376,
      "velocity": 97,
      "chip": "ym2612"
    },
    {
      "channel": 0,
      "note": 37,
      "start": 18.0649,
      "duration": 0.3916,
      "velocity": 72,
      "chip": "ym2612"
    },
    {
      "channel": 1,
      "note": 49,
      "start": 18.0654,
      "duration": 1.6458,
      "velocity": 95,
      "chip": "ym2612"
    },
    {
      "channel": 3,
      "note": 70,
      "start": 18.0661,
      "duration": 0.086,
      "velocity": 124,
      "chip": "ym2612"
    },
    {
      "channel": 3,
      "note": 71,
      "start": 18.1523,
      "duration": 0.099,
      "velocity": 124,
      "chip": "ym2612"
    },
    {
      "channel": 2,
      "note": 98,
      "start": 18.2509,
      "duration": 0.4062,
      "velocity": 87,
      "chip": "ym2612"
    },
    {
      "channel": 3,
      "note": 70,
      "start": 18.2515,
      "duration": 1.4605,
      "velocity": 124,
      "chip": "ym2612"
    },
    {
      "channel": 4,
      "note": 70,
      "start": 18.252,
      "duration": 0.1153,
      "velocity": 124,
      "chip": "ym2612"
    },
    {
      "channel": 5,
      "note": 20,
      "start": 18.2527,
      "duration": 1.2066,
      "velocity": 97,
      "chip": "ym2612"
    },
    {
      "channel": 4,
      "note": 71,
      "start": 18.3676,
      "duration": 0.0896,
      "velocity": 124,
      "chip": "ym2612"
    },
    {
      "channel": 0,
      "note": 37,
      "start": 18.4566,
      "duration": 1.2541,
      "velocity": 72,
      "chip": "ym2612"
    },
    {
      "channel": 4,
      "note": 70,
      "start": 18.4573,
      "duration": 1.5559,
      "velocity": 124,
      "chip": "ym2612"
    },
    {
      "channel": 2,
      "note": 98,
      "start": 18.6573,
      "duration": 0.512,
      "velocity": 87,
      "chip": "ym2612"
    },
    {
      "channel": 2,
      "note": 98,
      "start": 19.1694,
      "duration": 0.04,
      "velocity": 87,
      "chip": "ym2612"
    },
    {
      "channel": 2,
      "note": 98,
      "start": 19.2096,
      "duration": 0.0572,
      "velocity": 87,
      "chip": "ym2612"
    },
    {
      "channel": 2,
      "note": 98,
      "start": 19.267,
      "duration": 0.6294,
      "velocity": 87,
      "chip": "ym2612"
    },
    {
      "channel": 5,
      "note": 20,
      "start": 19.4595,
      "duration": 0.4381,
      "velocity": 97,
      "chip": "ym2612"
    },
    {
      "channel": 0,
      "note": 39,
      "start": 19.7108,
      "duration": 0.4036,
      "velocity": 72,
      "chip": "ym2612"
    },
    {
      "channel": 1,
      "note": 51,
      "start": 19.7115,
      "duration": 3.2763,
      "velocity": 95,
      "chip": "ym2612"
    },
    {
      "channel": 3,
      "note": 61,
      "start": 19.7122,
      "duration": 0.1848,
      "velocity": 124,
      "chip": "ym2612"
    },
    {
      "channel": 2,
      "note": 98,
      "start": 19.8965,
      "duration": 0.4051,
      "velocity": 87,
      "chip": "ym2612"
    },
    {
      "channel": 3,
      "note": 73,
      "start": 19.8971,
      "duration": 0.218,
      "velocity": 124,
      "chip": "ym2612"
    },
    {
      "channel": 5,
      "note": 20,
      "start": 19.8978,
      "duration": 1.2198,
      "velocity": 97,
      "chip": "ym2612"
    },
    {
      "channel": 4,
      "note": 61,
      "start": 20.0133,
      "duration": 0.2029,
      "velocity": 124,
      "chip": "ym2612"
    },
    {
      "channel": 0,
      "note": 39,
      "start": 20.1146,
      "duration": 1.2377,
      "velocity": 72,
      "chip": "ym2612"
    },
    {
      "channel": 3,
      "note": 63,
      "start": 20.1153,
      "duration": 0.187,
      "velocity": 124,
      "chip": "ym2612"
    },
    {
      "channel": 4,
      "note": 73,
      "start": 20.2164,
      "duration": 0.1734,
      "velocity": 124,
      "chip": "ym2612"
    },
    {
      "channel": 2,
      "note": 98,
      "start": 20.3018,
      "duration": 0.5112,
      "velocity": 87,
      "chip": "ym2612"
    },
    {
      "channel": 3,
      "note": 69,
      "start": 20.3024,
      "duration": 1.0506,
      "velocity": 124,
      "chip": "ym2612"
    },
    {
      "channel": 4,
      "note": 63,
      "start": 20.3901,
      "duration": 0.2078,
      "velocity": 124,
      "chip": "ym2612"
    },
    {
      "channel": 4,
      "note": 69,
      "start": 20.5979,
      "duration": 1.0736,
      "velocity": 124,
      "chip": "ym2612"
    },
    {
      "channel": 2,
      "note": 98,
      "start": 20.8132,
      "duration": 0.0541,
      "velocity": 87,
      "chip": "ym2612"
    },
    {
      "channel": 2,
      "note": 98,
      "start": 20.8675,
      "duration": 0.043,
      "velocity": 87,
      "chip": "ym2612"
    },
    {
      "channel": 2,
      "note": 98,
      "start": 20.9107,
      "duration": 0.6273,
      "velocity": 87,
      "chip": "ym2612"
    },
    {
      "channel": 5,
      "note": 20,
      "start": 21.1178,
      "duration": 1.6345,
      "velocity": 97,
      "chip": "ym2612"
    },
    {
      "channel": 0,
      "note": 39,
      "start": 21.3524,
      "duration": 0.4083,
      "velocity": 72,
      "chip": "ym2612"
    },
    {
      "channel": 3,
      "note": 61,
      "start": 21.3531,
      "duration": 0.1855,
      "velocity": 124,
      "chip": "ym2612"
    },
    {
      "channel": 2,
      "note": 98,
      "start": 21.5383,
      "duration": 0.4062,
      "velocity": 87,
      "chip": "ym2612"
    },
    {
      "channel": 3,
      "note": 73,
      "start": 21.5388,
      "duration": 0.2225,
      "velocity": 124,
      "chip": "ym2612"
    },
    {
      "channel": 4,
      "note": 61,
      "start": 21.6717,
      "duration": 0.1871,
      "velocity": 124,
      "chip": "ym2612"
    },
    {
      "channel": 0,
      "note": 39,
      "start": 21.7608,
      "duration": 1.2263,
      "velocity": 72,
      "chip": "ym2612"
    },
    {
      "channel": 3,
      "note": 63,
      "start": 21.7615,
      "duration": 0.1835,
      "velocity": 124,
      "chip": "ym2612"
    },
    {
      "channel": 4,
      "note": 73,
      "start": 21.859,
      "duration": 0.1722,
      "velocity": 124,
      "chip": "ym2612"
    },
    {
      "channel": 2,
      "note": 98,
      "start": 21.9446,
      "duration": 0.5061,
      "velocity": 87,
      "chip": "ym2612"
    },
    {
      "channel": 3,
      "note": 69,
      "start": 21.9452,
      "duration": 5.6327,
      "velocity": 124,
      "chip": "ym2612"
    },
    {
      "channel": 4,
      "note": 63,
      "start": 22.0315,
      "duration": 0.2082,
      "velocity": 124,
      "chip": "ym2612"
    },
    {
      "channel": 4,
      "note": 69,
      "start": 22.2398,
      "duration": 5.3382,
      "velocity": 124,
      "chip": "ym2612"
    },
    {
      "channel": 2,
      "note": 98,
      "start": 22.4508,
      "duration": 0.0517,
      "velocity": 87,
      "chip": "ym2612"
    },
    {
      "channel": 2,
      "note": 98,
      "start": 22.5027,
      "duration": 0.0421,
      "velocity": 87,
      "chip": "ym2612"
    },
    {
      "channel": 2,
      "note": 98,
      "start": 22.5449,
      "duration": 0.6444,
      "velocity": 87,
      "chip": "ym2612"
    },
    {
      "channel": 5,
      "note": 20,
      "start": 22.7525,
      "duration": 0.4376,
      "velocity": 97,
      "chip": "ym2612"
    },
    {
      "channel": 0,
      "note": 37,
      "start": 22.9873,
      "duration": 0.4071,
      "velocity": 72,
      "chip": "ym2612"
    },
    {
      "channel": 1,
      "note": 49,
      "start": 22.9879,
      "duration": 4.59,
      "velocity": 95,
      "chip": "ym2612"
    },
    {
      "channel": 2,
      "note": 98,
      "start": 23.1895,
      "duration": 4.3884,
      "velocity": 87,
      "chip": "ym2612"
    },
    {
      "channel": 5,
      "note": 20,
      "start": 23.1903,
      "duration": 4.3876,
      "velocity": 97,
      "chip": "ym2612"
    },
    {
      "channel": 0,
      "note": 37,
      "start": 23.3945,
      "duration": 4.1834,
      "velocity": 72,
      "chip": "ym2612"
    }
  ]
}