{
  "track_name": "02 - Ultimate Warrior",
  "duration_sec": 48.18,
  "sample_rate": 44100,
  "note_count": 761,
  "unique_pitches": 34,
  "pitch_range": 60,
  "avg_note_duration": 0.1208,
  "reconstruction_stats": {
    "notes_reconstructed": 761,
    "keyon_events": 761,
    "keyoff_events": 761,
    "orphan_keyons": 0,
    "unique_pitches": 34,
    "pitch_range": 60,
    "avg_duration_sec": 0.1208
  },
  "metadata": {
    "source": "W\\WWF Super Wrestlemania\\02 - Ultimate Warrior.vgz"
  },
  "notes": [
    {
      "channel": 0,
      "note": 66,
      "start": 0.0,
      "duration": 0.0,
      "velocity": 106,
      "chip": "ym2612"
    },
    {
      "channel": 0,
      "note": 76,
      "start": 0.0,
      "duration": 0.0,
      "velocity": 81,
      "chip": "ym2612"
    },
    {
      "channel": 0,
      "note": 73,
      "start": 0.0,
      "duration": 0.0,
      "velocity": 81,
      "chip": "ym2612"
    },
    {
      "channel": 0,
      "note": 75,
      "start": 0.0,
      "duration": 0.0,
      "velocity": 1,
      "chip": "ym2612"
    },
    {
      "channel": 1,
      "note": 54,
      "start": 0.0,
      "duration": 0.0,
      "velocity": 99,
      "chip": "ym2612"
    },
    {
      "channel": 1,
      "note": 54,
      "start": 0.0,
      "duration": 0.0,
      "velocity": 99,
      "chip": "ym2612"
    },
    {
      "channel": 1,
      "note": 54,
      "start": 0.0,
      "duration": 0.0,
      "velocity": 99,
      "chip": "ym2612"
    },
    {
      "channel": 1,
      "note": 49,
      "start": 0.0,
      "duration": 0.0,
      "velocity": 99,
      "chip": "ym2612"
    },
    {
      "channel": 1,
      "note": 49,
      "start": 0.0,
      "duration": 0.0,
      "velocity": 99,
      "chip": "ym2612"
    },
    {
      "channel": 1,
      "note": 52,
      "start": 0.0,
      "duration": 0.0,
      "velocity": 99,
      "chip": "ym2612"
    },
    {
      "channel": 1,
      "note": 54,
      "start": 0.0,
      "duration": 0.0,
      "velocity": 99,
      "chip": "ym2612"
    },
    {
      "channel": 1,
      "note": 54,
      "start": 0.0,
      "duration": 0.0,
      "velocity": 1,
      "chip": "ym2612"
    },
    {
      "channel": 2,
      "note": 57,
      "start": 0.0,
      "duration": 0.0,
      "velocity": 99,
      "chip": "ym2612"
    },
    {
      "channel": 2,
      "note": 54,
      "start": 0.0,
      "duration": 0.0,
      "velocity": 124,
      "chip": "ym2612"
    },
    {
      "channel": 2,
      "note": 47,
      "start": 0.0,
      "duration": 0.0,
      "velocity": 122,
      "chip": "ym2612"
    },
    {
      "channel": 2,
      "note": 47,
      "start": 0.0,
      "duration": 0.0,
      "velocity": 122,
      "chip": "ym2612"
    },
    {
      "channel": 2,
      "note": 47,
      "start": 0.0,
      "duration": 0.0,
      "velocity": 122,
      "chip": "ym2612"
    },
    {
      "channel": 3,
      "note": 88,
      "start": 0.0,
      "duration": 0.0,
      "velocity": 98,
      "chip": "ym2612"
    },
    {
      "channel": 3,
      "note": 66,
      "start": 0.0,
      "duration": 0.0,
      "velocity": 106,
      "chip": "ym2612"
    },
    {
      "channel": 3,
      "note": 54,
      "start": 0.0,
      "duration": 0.0,
      "velocity": 124,
      "chip": "ym2612"
    },
    {
      "channel": 3,
      "note": 54,
      "start": 0.0,
      "duration": 0.0,
      "velocity": 124,
      "chip": "ym2612"
    },
    {
      "channel": 4,
      "note": 73,
      "start": 0.0,
      "duration": 0.0,
      "velocity": 106,
      "chip": "ym2612"
    },
    {
      "channel": 4,
      "note": 73,
      "start": 0.0,
      "duration": 0.0,
      "velocity": 106,
      "chip": "ym2612"
    },
    {
      "channel": 4,
      "note": 59,
      "start": 0.0,
      "duration": 0.0,
      "velocity": 106,
      "chip": "ym2612"
    },
    {
      "channel": 4,
      "note": 64,
      "start": 0.0,
      "duration": 0.0,
      "velocity": 106,
      "chip": "ym2612"
    },
    {
      "channel": 4,
      "note": 73,
      "start": 0.0,
      "duration": 0.0,
      "velocity": 106,
      "chip": "ym2612"
    },
    {
      "channel": 4,
      "note": 69,
      "start": 0.0,
      "duration": 0.0,
      "velocity": 1,
      "chip": "ym2612"
    },
    {
      "channel": 5,
      "note": 47,
      "start": 0.0,
      "duration": 0.0,
      "velocity": 122,
      "chip": "ym2612"
    },
    {
      "channel": 5,
      "note": 47,
      "start": 0.0,
      "duration": 0.0,
      "velocity": 122,
      "chip": "ym2612"
    },
    {
      "channel": 5,
      "note": 81,
      "start": 0.0,
      "duration": 0.0,
      "velocity": 98,
      "chip": "ym2612"
    },
    {
      "channel": 5,
      "note": 81,
      "start": 0.0,
      "duration": 0.0,
      "velocity": 98,
      "chip": "ym2612"
    },
    {
      "channel": 5,
      "note": 81,
      "start": 0.0,
      "duration": 0.0,
      "velocity": 98,
      "chip": "ym2612"
    },
    {
      "channel": 4,
      "note": 37,
      "start": 0.0297,
      "duration": 0.0749,
      "velocity": 101,
      "chip": "ym2612"
    },
    {
      "channel": 5,
      "note": 45,
      "start": 0.0354,
      "duration": 0.2525,
      "velocity": 122,
      "chip": "ym2612"
    },
    {
      "channel": 4,
      "note": 37,
      "start": 0.2078,
      "duration": 0.0967,
      "velocity": 101,
      "chip": "ym2612"
    },
    {
      "channel": 4,
      "note": 37,
      "start": 0.4078,
      "duration": 0.0967,
      "velocity": 101,
      "chip": "ym2612"
    },
    {
      "channel": 4,
      "note": 37,
      "start": 0.6077,
      "duration": 0.0968,
      "velocity": 101,
      "chip": "ym2612"
    },
    {
      "channel": 4,
      "note": 37,
      "start": 0.8082,
      "duration": 0.0962,
      "velocity": 101,
      "chip": "ym2612"
    },
    {
      "channel": 4,
      "note": 37,
      "start": 1.0078,
      "duration": 0.1133,
      "velocity": 101,
      "chip": "ym2612"
    },
    {
      "channel": 4,
      "note": 37,
      "start": 1.2245,
      "duration": 0.0966,
      "velocity": 101,
      "chip": "ym2612"
    },
    {
      "channel": 4,
      "note": 37,
      "start": 1.4244,
      "duration": 0.0967,
      "velocity": 101,
      "chip": "ym2612"
    },
    {
      "channel": 4,
      "note": 37,
      "start": 1.6245,
      "duration": 0.0967,
      "velocity": 101,
      "chip": "ym2612"
    },
    {
      "channel": 0,
      "note": 52,
      "start": 1.8242,
      "duration": 0.53,
      "velocity": 99,
      "chip": "ym2612"
    },
    {
      "channel": 2,
      "note": 76,
      "start": 1.8293,
      "duration": 0.5087,
      "velocity": 126,
      "chip": "ym2612"
    },
    {
      "channel": 3,
      "note": 95,
      "start": 1.8321,
      "duration": 0.5224,
      "velocity": 76,
      "chip": "ym2612"
    },
    {
      "channel": 1,
      "note": 47,
      "start": 1.8351,
      "duration": 0.0193,
      "velocity": 124,
      "chip": "ym2612"
    },
    {
      "channel": 4,
      "note": 40,
      "start": 1.8393,
      "duration": 0.082,
      "velocity": 101,
      "chip": "ym2612"
    },
    {
      "channel": 5,
      "note": 45,
      "start": 1.8425,
      "duration": 0.1621,
      "velocity": 122,
      "chip": "ym2612"
    },
    {
      "channel": 0,
      "note": 54,
      "start": 2.4244,
      "duration": 0.1134,
      "velocity": 99,
      "chip": "ym2612"
    },
    {
      "channel": 2,
      "note": 78,
      "start": 2.4298,
      "duration": 0.1417,
      "velocity": 126,
      "chip": "ym2612"
    },
    {
      "channel": 3,
      "note": 97,
      "start": 2.4331,
      "duration": 0.138,
      "velocity": 76,
      "chip": "ym2612"
    },
    {
      "channel": 1,
      "note": 47,
      "start": 2.4357,
      "duration": 0.0187,
      "velocity": 124,
      "chip": "ym2612"
    },
    {
      "channel": 4,
      "note": 42,
      "start": 2.4397,
      "duration": 0.0814,
      "velocity": 101,
      "chip": "ym2612"
    },
    {
      "channel": 5,
      "note": 45,
      "start": 2.4425,
      "duration": 0.1288,
      "velocity": 122,
      "chip": "ym2612"
    },
    {
      "channel": 0,
      "note": 52,
      "start": 2.8239,
      "duration": 0.0971,
      "velocity": 99,
      "chip": "ym2612"
    },
    {
      "channel": 2,
      "note": 76,
      "start": 2.8267,
      "duration": 0.128,
      "velocity": 126,
      "chip": "ym2612"
    },
    {
      "channel": 3,
      "note": 95,
      "start": 2.8314,
      "duration": 0.1398,
      "velocity": 76,
      "chip": "ym2612"
    },
    {
      "channel": 1,
      "note": 47,
      "start": 2.8346,
      "duration": 0.02,
      "velocity": 124,
      "chip": "ym2612"
    },
    {
      "channel": 4,
      "note": 40,
      "start": 2.8389,
      "duration": 0.0824,
      "velocity": 101,
      "chip": "ym2612"
    },
    {
      "channel": 5,
      "note": 45,
      "start": 2.8416,
      "duration": 0.113,
      "velocity": 122,
      "chip": "ym2612"
    },
    {
      "channel": 0,
      "note": 49,
      "start": 3.2241,
      "duration": 0.1635,
      "velocity": 99,
      "chip": "ym2612"
    },
    {
      "channel": 2,
      "note": 73,
      "start": 3.2293,
      "duration": 0.2587,
      "velocity": 126,
      "chip": "ym2612"
    },
    {
      "channel": 3,
      "note": 92,
      "start": 3.2323,
      "duration": 0.2387,
      "velocity": 76,
      "chip": "ym2612"
    },
    {
      "channel": 4,
      "note": 37,
      "start": 3.2353,
      "duration": 0.0859,
      "velocity": 101,
      "chip": "ym2612"
    },
    {
      "channel": 5,
      "note": 45,
      "start": 3.2385,
      "duration": 0.2494,
      "velocity": 122,
      "chip": "ym2612"
    },
    {
      "channel": 4,
      "note": 37,
      "start": 3.4245,
      "duration": 0.0967,
      "velocity": 101,
      "chip": "ym2612"
    },
    {
      "channel": 4,
      "note": 37,
      "start": 3.6245,
      "duration": 0.0966,
      "velocity": 101,
      "chip": "ym2612"
    },
    {
      "channel": 4,
      "note": 37,
      "start": 3.8244,
      "duration": 0.0966,
      "velocity": 101,
      "chip": "ym2612"
    },
    {
      "channel": 4,
      "note": 37,
      "start": 4.0245,
      "duration": 0.0966,
      "velocity": 101,
      "chip": "ym2612"
    },
    {
      "channel": 4,
      "note": 37,
      "start": 4.2248,
      "duration": 0.0964,
      "velocity": 101,
      "chip": "ym2612"
    },
    {
      "channel": 4,
      "note": 37,
      "start": 4.4245,
      "duration": 0.0966,
      "velocity": 101,
      "chip": "ym2612"
    },
    {
      "channel": 4,
      "note": 37,
      "start": 4.6246,
      "duration": 0.0966,
      "velocity": 101,
      "chip": "ym2612"
    },
    {
      "channel": 4,
      "note": 37,
      "start": 4.8245,
      "duration": 0.0966,
      "velocity": 101,
      "chip": "ym2612"
    },
    {
      "channel": 0,
      "note": 54,
      "start": 5.024,
      "duration": 0.5471,
      "velocity": 99,
      "chip": "ym2612"
    },
    {
      "channel": 2,
      "note": 78,
      "start": 5.0269,
      "duration": 0.5277,
      "velocity": 126,
      "chip": "ym2612"
    },
    {
      "channel": 3,
      "note": 97,
      "start": 5.0319,
      "duration": 0.5394,
      "velocity": 76,
      "chip": "ym2612"
    },
    {
      "channel": 1,
      "note": 47,
      "start": 5.0345,
      "duration": 0.02,
      "velocity": 124,
      "chip": "ym2612"
    },
    {
      "channel": 4,
      "note": 42,
      "start": 5.0384,
      "duration": 0.0828,
      "velocity": 101,
      "chip": "ym2612"
    },
    {
      "channel": 5,
      "note": 45,
      "start": 5.0414,
      "duration": 0.1799,
      "velocity": 122,
      "chip": "ym2612"
    },
    {
      "channel": 0,
      "note": 52,
      "start": 5.6407,
      "duration": 0.1305,
      "velocity": 99,
      "chip": "ym2612"
    },
    {
      "channel": 2,
      "note": 76,
      "start": 5.6437,
      "duration": 0.1445,
      "velocity": 126,
      "chip": "ym2612"
    },
    {
      "channel": 3,
      "note": 95,
      "start": 5.6486,
      "duration": 0.1392,
      "velocity": 76,
      "chip": "ym2612"
    },
    {
      "channel": 1,
      "note": 47,
      "start": 5.6512,
      "duration": 0.0198,
      "velocity": 124,
      "chip": "ym2612"
    },
    {
      "channel": 4,
      "note": 40,
      "start": 5.6552,
      "duration": 0.0826,
      "velocity": 101,
      "chip": "ym2612"
    },
    {
      "channel": 5,
      "note": 45,
      "start": 5.6581,
      "duration": 0.1299,
      "velocity": 122,
      "chip": "ym2612"
    },
    {
      "channel": 0,
      "note": 52,
      "start": 6.0413,
      "duration": 0.3295,
      "velocity": 99,
      "chip": "ym2612"
    },
    {
      "channel": 2,
      "note": 76,
      "start": 6.0462,
      "duration": 0.1252,
      "velocity": 126,
      "chip": "ym2612"
    },
    {
      "channel": 3,
      "note": 95,
      "start": 6.0488,
      "duration": 0.1391,
      "velocity": 76,
      "chip": "ym2612"
    },
    {
      "channel": 1,
      "note": 47,
      "start": 6.0515,
      "duration": 0.0197,
      "velocity": 124,
      "chip": "ym2612"
    },
    {
      "channel": 4,
      "note": 40,
      "start": 6.0554,
      "duration": 0.0825,
      "velocity": 101,
      "chip": "ym2612"
    },
    {
      "channel": 5,
      "note": 45,
      "start": 6.0586,
      "duration": 0.1127,
      "velocity": 122,
      "chip": "ym2612"
    },
    {
      "channel": 2,
      "note": 73,
      "start": 6.4416,
      "duration": 0.263,
      "velocity": 126,
      "chip": "ym2612"
    },
    {
      "channel": 3,
      "note": 92,
      "start": 6.4471,
      "duration": 0.2406,
      "velocity": 76,
      "chip": "ym2612"
    },
    {
      "channel": 4,
      "note": 37,
      "start": 6.4501,
      "duration": 0.0877,
      "velocity": 101,
      "chip": "ym2612"
    },
    {
      "channel": 5,
      "note": 45,
      "start": 6.4531,
      "duration": 0.2514,
      "velocity": 122,
      "chip": "ym2612"
    },
    {
      "channel": 4,
      "note": 37,
      "start": 6.6412,
      "duration": 0.0967,
      "velocity": 101,
      "chip": "ym2612"
    },
    {
      "channel": 4,
      "note": 37,
      "start": 6.8412,
      "duration": 0.0966,
      "velocity": 101,
      "chip": "ym2612"
    },
    {
      "channel": 4,
      "note": 37,
      "start": 7.0411,
      "duration": 0.0966,
      "velocity": 101,
      "chip": "ym2612"
    },
    {
      "channel": 4,
      "note": 37,
      "start": 7.2412,
      "duration": 0.0966,
      "velocity": 101,
      "chip": "ym2612"
    },
    {
      "channel": 4,
      "note": 37,
      "start": 7.4411,
      "duration": 0.0968,
      "velocity": 101,
      "chip": "ym2612"
    },
    {
      "channel": 4,
      "note": 37,
      "start": 7.6416,
      "duration": 0.0962,
      "velocity": 101,
      "chip": "ym2612"
    },
    {
      "channel": 4,
      "note": 37,
      "start": 7.8411,
      "duration": 0.0968,
      "velocity": 101,
      "chip": "ym2612"
    },
    {
      "channel": 4,
      "note": 37,
      "start": 8.0412,
      "duration": 0.0966,
      "velocity": 101,
      "chip": "ym2612"
    },
    {
      "channel": 0,
      "note": 52,
      "start": 8.2407,
      "duration": 0.5302,
      "velocity": 99,
      "chip": "ym2612"
    },
    {
      "channel": 2,
      "note": 76,
      "start": 8.2437,
      "duration": 0.511,
      "velocity": 126,
      "chip": "ym2612"
    },
    {
      "channel": 3,
      "note": 95,
      "start": 8.2486,
      "duration": 0.5226,
      "velocity": 76,
      "chip": "ym2612"
    },
    {
      "channel": 1,
      "note": 47,
      "start": 8.2512,
      "duration": 0.0198,
      "velocity": 124,
      "chip": "ym2612"
    },
    {
      "channel": 4,
      "note": 40,
      "start": 8.2552,
      "duration": 0.0828,
      "velocity": 101,
      "chip": "ym2612"
    },
    {
      "channel": 5,
      "note": 45,
      "start": 8.258,
      "duration": 0.23,
      "velocity": 122,
      "chip": "ym2612"
    },
    {
      "channel": 0,
      "note": 54,
      "start": 8.8407,
      "duration": 0.1137,
      "velocity": 99,
      "chip": "ym2612"
    },
    {
      "channel": 2,
      "note": 78,
      "start": 8.8437,
      "duration": 0.1445,
      "velocity": 126,
      "chip": "ym2612"
    },
    {
      "channel": 3,
      "note": 97,
      "start": 8.8486,
      "duration": 0.1393,
      "velocity": 76,
      "chip": "ym2612"
    },
    {
      "channel": 1,
      "note": 47,
      "start": 8.8512,
      "duration": 0.02,
      "velocity": 124,
      "chip": "ym2612"
    },
    {
      "channel": 4,
      "note": 42,
      "start": 8.8551,
      "duration": 0.0828,
      "velocity": 101,
      "chip": "ym2612"
    },
    {
      "channel": 5,
      "note": 45,
      "start": 8.858,
      "duration": 0.13,
      "velocity": 122,
      "chip": "ym2612"
    },
    {
      "channel": 0,
      "note": 52,
      "start": 9.2405,
      "duration": 0.097,
      "velocity": 99,
      "chip": "ym2612"
    },
    {
      "channel": 2,
      "note": 76,
      "start": 9.2433,
      "duration": 0.128,
      "velocity": 126,
      "chip": "ym2612"
    },
    {
      "channel": 3,
      "note": 95,
      "start": 9.248,
      "duration": 0.1398,
      "velocity": 76,
      "chip": "ym2612"
    },
    {
      "channel": 1,
      "note": 47,
      "start": 9.2512,
      "duration": 0.02,
      "velocity": 124,
      "chip": "ym2612"
    },
    {
      "channel": 4,
      "note": 40,
      "start": 9.2555,
      "duration": 0.0824,
      "velocity": 101,
      "chip": "ym2612"
    },
    {
      "channel": 5,
      "note": 45,
      "start": 9.2582,
      "duration": 0.113,
      "velocity": 122,
      "chip": "ym2612"
    },
    {
      "channel": 0,
      "note": 49,
      "start": 9.6575,
      "duration": 0.1633,
      "velocity": 99,
      "chip": "ym2612"
    },
    {
      "channel": 2,
      "note": 73,
      "start": 9.6627,
      "duration": 0.2585,
      "velocity": 126,
      "chip": "ym2612"
    },
    {
      "channel": 3,
      "note": 92,
      "start": 9.6657,
      "duration": 0.2387,
      "velocity": 76,
      "chip": "ym2612"
    },
    {
      "channel": 4,
      "note": 37,
      "start": 9.6687,
      "duration": 0.0857,
      "velocity": 101,
      "chip": "ym2612"
    },
    {
      "channel": 5,
      "note": 45,
      "start": 9.6723,
      "duration": 0.2489,
      "velocity": 122,
      "chip": "ym2612"
    },
    {
      "channel": 4,
      "note": 37,
      "start": 9.8579,
      "duration": 0.0966,
      "velocity": 101,
      "chip": "ym2612"
    },
    {
      "channel": 4,
      "note": 37,
      "start": 10.0578,
      "duration": 0.0968,
      "velocity": 101,
      "chip": "ym2612"
    },
    {
      "channel": 4,
      "note": 37,
      "start": 10.2578,
      "duration": 0.0966,
      "velocity": 101,
      "chip": "ym2612"
    },
    {
      "channel": 4,
      "note": 37,
      "start": 10.4578,
      "duration": 0.0966,
      "velocity": 101,
      "chip": "ym2612"
    },
    {
      "channel": 4,
      "note": 37,
      "start": 10.6578,
      "duration": 0.0966,
      "velocity": 101,
      "chip": "ym2612"
    },
    {
      "channel": 4,
      "note": 37,
      "start": 10.8578,
      "duration": 0.0966,
      "velocity": 101,
      "chip": "ym2612"
    },
    {
      "channel": 4,
      "note": 37,
      "start": 11.0583,
      "duration": 0.0962,
      "velocity": 101,
      "chip": "ym2612"
    },
    {
      "channel": 4,
      "note": 37,
      "start": 11.2578,
      "duration": 0.0968,
      "velocity": 101,
      "chip": "ym2612"
    },
    {
      "channel": 0,
      "note": 54,
      "start": 11.4578,
      "duration": 0.5298,
      "velocity": 99,
      "chip": "ym2612"
    },
    {
      "channel": 2,
      "note": 78,
      "start": 11.4632,
      "duration": 0.508,
      "velocity": 126,
      "chip": "ym2612"
    },
    {
      "channel": 3,
      "note": 97,
      "start": 11.4661,
      "duration": 0.5218,
      "velocity": 76,
      "chip": "ym2612"
    },
    {
      "channel": 1,
      "note": 47,
      "start": 11.4687,
      "duration": 0.0192,
      "velocity": 124,
      "chip": "ym2612"
    },
    {
      "channel": 4,
      "note": 42,
      "start": 11.4727,
      "duration": 0.0819,
      "velocity": 101,
      "chip": "ym2612"
    },
    {
      "channel": 5,
      "note": 45,
      "start": 11.4755,
      "duration": 0.1791,
      "velocity": 122,
      "chip": "ym2612"
    },
    {
      "channel": 0,
      "note": 52,
      "start": 12.0573,
      "duration": 0.1302,
      "velocity": 99,
      "chip": "ym2612"
    },
    {
      "channel": 2,
      "note": 76,
      "start": 12.0602,
      "duration": 0.1446,
      "velocity": 126,
      "chip": "ym2612"
    },
    {
      "channel": 3,
      "note": 95,
      "start": 12.0657,
      "duration": 0.1389,
      "velocity": 76,
      "chip": "ym2612"
    },
    {
      "channel": 1,
      "note": 47,
      "start": 12.0683,
      "duration": 0.0195,
      "velocity": 124,
      "chip": "ym2612"
    },
    {
      "channel": 4,
      "note": 40,
      "start": 12.0722,
      "duration": 0.0824,
      "velocity": 101,
      "chip": "ym2612"
    },
    {
      "channel": 5,
      "note": 45,
      "start": 12.0751,
      "duration": 0.1296,
      "velocity": 122,
      "chip": "ym2612"
    },
    {
      "channel": 0,
      "note": 52,
      "start": 12.4571,
      "duration": 0.3303,
      "velocity": 99,
      "chip": "ym2612"
    },
    {
      "channel": 2,
      "note": 76,
      "start": 12.46,
      "duration": 0.1281,
      "velocity": 126,
      "chip": "ym2612"
    },
    {
      "channel": 3,
      "note": 95,
      "start": 12.4646,
      "duration": 0.1398,
      "velocity": 76,
      "chip": "ym2612"
    },
    {
      "channel": 1,
      "note": 47,
      "start": 12.4673,
      "duration": 0.0205,
      "velocity": 124,
      "chip": "ym2612"
    },
    {
      "channel": 4,
      "note": 40,
      "start": 12.4709,
      "duration": 0.0836,
      "velocity": 101,
      "chip": "ym2612"
    },
    {
      "channel": 5,
      "note": 45,
      "start": 12.4739,
      "duration": 0.1141,
      "velocity": 122,
      "chip": "ym2612"
    },
    {
      "channel": 0,
      "note": 49,
      "start": 12.8573,
      "duration": 0.0968,
      "velocity": 99,
      "chip": "ym2612"
    },
    {
      "channel": 2,
      "note": 73,
      "start": 12.8605,
      "duration": 0.2609,
      "velocity": 126,
      "chip": "ym2612"
    },
    {
      "channel": 3,
      "note": 92,
      "start": 12.8655,
      "duration": 0.2389,
      "velocity": 76,
      "chip": "ym2612"
    },
    {
      "channel": 4,
      "note": 37,
      "start": 12.8685,
      "duration": 0.0862,
      "velocity": 101,
      "chip": "ym2612"
    },
    {
      "channel": 1,
      "note": 55,
      "start": 12.8717,
      "duration": 0.0828,
      "velocity": 121,
      "chip": "ym2612"
    },
    {
      "channel": 0,
      "note": 49,
      "start": 13.057,
      "duration": 0.0974,
      "velocity": 99,
      "chip": "ym2612"
    },
    {
      "channel": 4,
      "note": 37,
      "start": 13.06,
      "duration": 0.0946,
      "velocity": 101,
      "chip": "ym2612"
    },
    {
      "channel": 5,
      "note": 45,
      "start": 13.065,
      "duration": 0.0562,
      "velocity": 122,
      "chip": "ym2612"
    },
    {
      "channel": 0,
      "note": 49,
      "start": 13.257,
      "duration": 0.0972,
      "velocity": 99,
      "chip": "ym2612"
    },
    {
      "channel": 1,
      "note": 47,
      "start": 13.2599,
      "duration": 0.0279,
      "velocity": 124,
      "chip": "ym2612"
    },
    {
      "channel": 4,
      "note": 37,
      "start": 13.2655,
      "duration": 0.0892,
      "velocity": 101,
      "chip": "ym2612"
    },
    {
      "channel": 3,
      "note": 55,
      "start": 13.2682,
      "duration": 0.0863,
      "velocity": 121,
      "chip": "ym2612"
    },
    {
      "channel": 0,
      "note": 49,
      "start": 13.4571,
      "duration": 0.097,
      "velocity": 99,
      "chip": "ym2612"
    },
    {
      "channel": 4,
      "note": 37,
      "start": 13.4601,
      "duration": 0.0944,
      "velocity": 101,
      "chip": "ym2612"
    },
    {
      "channel": 5,
      "note": 45,
      "start": 13.4655,
      "duration": 0.0892,
      "velocity": 122,
      "chip": "ym2612"
    },
    {
      "channel": 0,
      "note": 49,
      "start": 13.657,
      "duration": 0.0971,
      "velocity": 99,
      "chip": "ym2612"
    },
    {
      "channel": 4,
      "note": 37,
      "start": 13.6601,
      "duration": 0.0945,
      "velocity": 101,
      "chip": "ym2612"
    },
    {
      "channel": 5,
      "note": 45,
      "start": 13.6647,
      "duration": 0.09,
      "velocity": 122,
      "chip": "ym2612"
    },
    {
      "channel": 3,
      "note": 55,
      "start": 13.6672,
      "duration": 0.0873,
      "velocity": 121,
      "chip": "ym2612"
    },
    {
      "channel": 0,
      "note": 49,
      "start": 13.8737,
      "duration": 0.0971,
      "velocity": 99,
      "chip": "ym2612"
    },
    {
      "channel": 4,
      "note": 37,
      "start": 13.8767,
      "duration": 0.0945,
      "velocity": 101,
      "chip": "ym2612"
    },
    {
      "channel": 5,
      "note": 45,
      "start": 13.8816,
      "duration": 0.0898,
      "velocity": 122,
      "chip": "ym2612"
    },
    {
      "channel": 0,
      "note": 49,
      "start": 14.0737,
      "duration": 0.0973,
      "velocity": 99,
      "chip": "ym2612"
    },
    {
      "channel": 1,
      "note": 47,
      "start": 14.0764,
      "duration": 0.0281,
      "velocity": 124,
      "chip": "ym2612"
    },
    {
      "channel": 4,
      "note": 37,
      "start": 14.082,
      "duration": 0.0894,
      "velocity": 101,
      "chip": "ym2612"
    },
    {
      "channel": 3,
      "note": 55,
      "start": 14.0849,
      "duration": 0.0863,
      "velocity": 121,
      "chip": "ym2612"
    },
    {
      "channel": 0,
      "note": 49,
      "start": 14.2742,
      "duration": 0.0966,
      "velocity": 99,
      "chip": "ym2612"
    },
    {
      "channel": 4,
      "note": 37,
      "start": 14.2793,
      "duration": 0.092,
      "velocity": 101,
      "chip": "ym2612"
    },
    {
      "channel": 0,
      "note": 49,
      "start": 14.4737,
      "duration": 0.0972,
      "velocity": 99,
      "chip": "ym2612"
    },
    {
      "channel": 4,
      "note": 37,
      "start": 14.4772,
      "duration": 0.0942,
      "velocity": 101,
      "chip": "ym2612"
    },
    {
      "channel": 3,
      "note": 55,
      "start": 14.4818,
      "duration": 0.0894,
      "velocity": 121,
      "chip": "ym2612"
    },
    {
      "channel": 0,
      "note": 49,
      "start": 14.6737,
      "duration": 0.0971,
      "velocity": 99,
      "chip": "ym2612"
    },
    {
      "channel": 4,
      "note": 37,
      "start": 14.6768,
      "duration": 0.0945,
      "velocity": 101,
      "chip": "ym2612"
    },
    {
      "channel": 5,
      "note": 45,
      "start": 14.6816,
      "duration": 0.0898,
      "velocity": 122,
      "chip": "ym2612"
    },
    {
      "channel": 0,
      "note": 49,
      "start": 14.8737,
      "duration": 0.0974,
      "velocity": 99,
      "chip": "ym2612"
    },
    {
      "channel": 1,
      "note": 47,
      "start": 14.8764,
      "duration": 0.028,
      "velocity": 124,
      "chip": "ym2612"
    },
    {
      "channel": 4,
      "note": 37,
      "start": 14.8819,
      "duration": 0.0895,
      "velocity": 101,
      "chip": "ym2612"
    },
    {
      "channel": 3,
      "note": 55,
      "start": 14.8848,
      "duration": 0.0865,
      "velocity": 121,
      "chip": "ym2612"
    },
    {
      "channel": 0,
      "note": 49,
      "start": 15.0737,
      "duration": 0.0973,
      "velocity": 99,
      "chip": "ym2612"
    },
    {
      "channel": 4,
      "note": 37,
      "start": 15.0767,
      "duration": 0.0945,
      "velocity": 101,
      "chip": "ym2612"
    },
    {
      "channel": 5,
      "note": 45,
      "start": 15.0816,
      "duration": 0.0899,
      "velocity": 122,
      "chip": "ym2612"
    },
    {
      "channel": 0,
      "note": 52,
      "start": 15.2741,
      "duration": 0.2302,
      "velocity": 99,
      "chip": "ym2612"
    },
    {
      "channel": 2,
      "note": 76,
      "start": 15.2771,
      "duration": 0.1443,
      "velocity": 126,
      "chip": "ym2612"
    },
    {
      "channel": 1,
      "note": 95,
      "start": 15.2822,
      "duration": 0.1389,
      "velocity": 76,
      "chip": "ym2612"
    },
    {
      "channel": 4,
      "note": 40,
      "start": 15.2853,
      "duration": 0.2193,
      "velocity": 101,
      "chip": "ym2612"
    },
    {
      "channel": 5,
      "note": 45,
      "start": 15.2883,
      "duration": 0.2164,
      "velocity": 122,
      "chip": "ym2612"
    },
    {
      "channel": 0,
      "note": 54,
      "start": 15.6739,
      "duration": 0.2637,
      "velocity": 99,
      "chip": "ym2612"
    },
    {
      "channel": 2,
      "note": 78,
      "start": 15.6768,
      "duration": 0.1278,
      "velocity": 126,
      "chip": "ym2612"
    },
    {
      "channel": 1,
      "note": 97,
      "start": 15.6814,
      "duration": 0.1397,
      "velocity": 76,
      "chip": "ym2612"
    },
    {
      "channel": 3,
      "note": 47,
      "start": 15.684,
      "duration": 0.0205,
      "velocity": 124,
      "chip": "ym2612"
    },
    {
      "channel": 4,
      "note": 42,
      "start": 15.6878,
      "duration": 0.2501,
      "velocity": 101,
      "chip": "ym2612"
    },
    {
      "channel": 5,
      "note": 45,
      "start": 15.6907,
      "duration": 0.2473,
      "velocity": 122,
      "chip": "ym2612"
    },
    {
      "channel": 0,
      "note": 49,
      "start": 16.074,
      "duration": 0.0971,
      "velocity": 99,
      "chip": "ym2612"
    },
    {
      "channel": 2,
      "note": 73,
      "start": 16.0796,
      "duration": 0.2583,
      "velocity": 126,
      "chip": "ym2612"
    },
    {
      "channel": 1,
      "note": 92,
      "start": 16.0826,
      "duration": 0.2383,
      "velocity": 76,
      "chip": "ym2612"
    },
    {
      "channel": 4,
      "note": 37,
      "start": 16.0857,
      "duration": 0.0857,
      "velocity": 101,
      "chip": "ym2612"
    },
    {
      "channel": 3,
      "note": 55,
      "start": 16.0888,
      "duration": 0.0825,
      "velocity": 121,
      "chip": "ym2612"
    },
    {
      "channel": 0,
      "note": 49,
      "start": 16.2739,
      "duration": 0.0803,
      "velocity": 99,
      "chip": "ym2612"
    },
    {
      "channel": 4,
      "note": 37,
      "start": 16.2771,
      "duration": 0.0776,
      "velocity": 101,
      "chip": "ym2612"
    },
    {
      "channel": 5,
      "note": 45,
      "start": 16.2824,
      "duration": 0.0723,
      "velocity": 122,
      "chip": "ym2612"
    },
    {
      "channel": 0,
      "note": 49,
      "start": 16.4743,
      "duration": 0.1135,
      "velocity": 99,
      "chip": "ym2612"
    },
    {
      "channel": 3,
      "note": 47,
      "start": 16.4793,
      "duration": 0.0252,
      "velocity": 124,
      "chip": "ym2612"
    },
    {
      "channel": 4,
      "note": 37,
      "start": 16.4829,
      "duration": 0.1052,
      "velocity": 101,
      "chip": "ym2612"
    },
    {
      "channel": 1,
      "note": 55,
      "start": 16.4858,
      "duration": 0.1021,
      "velocity": 121,
      "chip": "ym2612"
    },
    {
      "channel": 0,
      "note": 49,
      "start": 16.6738,
      "duration": 0.1139,
      "velocity": 99,
      "chip": "ym2612"
    },
    {
      "channel": 4,
      "note": 37,
      "start": 16.6793,
      "duration": 0.1087,
      "velocity": 101,
      "chip": "ym2612"
    },
    {
      "channel": 5,
      "note": 45,
      "start": 16.6822,
      "duration": 0.1059,
      "velocity": 122,
      "chip": "ym2612"
    },
    {
      "channel": 0,
      "note": 49,
      "start": 16.8737,
      "duration": 0.114,
      "velocity": 99,
      "chip": "ym2612"
    },
    {
      "channel": 4,
      "note": 37,
      "start": 16.8768,
      "duration": 0.1112,
      "velocity": 101,
      "chip": "ym2612"
    },
    {
      "channel": 5,
      "note": 45,
      "start": 16.8814,
      "duration": 0.1068,
      "velocity": 122,
      "chip": "ym2612"
    },
    {
      "channel": 1,
      "note": 55,
      "start": 16.8839,
      "duration": 0.104,
      "velocity": 121,
      "chip": "ym2612"
    },
    {
      "channel": 0,
      "note": 49,
      "start": 17.0738,
      "duration": 0.097,
      "velocity": 99,
      "chip": "ym2612"
    },
    {
      "channel": 4,
      "note": 37,
      "start": 17.077,
      "duration": 0.0942,
      "velocity": 101,
      "chip": "ym2612"
    },
    {
      "channel": 5,
      "note": 45,
      "start": 17.082,
      "duration": 0.0894,
      "velocity": 122,
      "chip": "ym2612"
    },
    {
      "channel": 0,
      "note": 49,
      "start": 17.2737,
      "duration": 0.0974,
      "velocity": 99,
      "chip": "ym2612"
    },
    {
      "channel": 3,
      "note": 47,
      "start": 17.2764,
      "duration": 0.028,
      "velocity": 124,
      "chip": "ym2612"
    },
    {
      "channel": 4,
      "note": 37,
      "start": 17.282,
      "duration": 0.0894,
      "velocity": 101,
      "chip": "ym2612"
    },
    {
      "channel": 1,
      "note": 55,
      "start": 17.2846,
      "duration": 0.0866,
      "velocity": 121,
      "chip": "ym2612"
    },
    {
      "channel": 0,
      "note": 49,
      "start": 17.4739,
      "duration": 0.0803,
      "velocity": 99,
      "chip": "ym2612"
    },
    {
      "channel": 4,
      "note": 37,
      "start": 17.4771,
      "duration": 0.0776,
      "velocity": 101,
      "chip": "ym2612"
    },
    {
      "channel": 0,
      "note": 49,
      "start": 17.6739,
      "duration": 0.1303,
      "velocity": 99,
      "chip": "ym2612"
    },
    {
      "channel": 4,
      "note": 37,
      "start": 17.6771,
      "duration": 0.1276,
      "velocity": 101,
      "chip": "ym2612"
    },
    {
      "channel": 1,
      "note": 55,
      "start": 17.6817,
      "duration": 0.1227,
      "velocity": 121,
      "chip": "ym2612"
    },
    {
      "channel": 0,
      "note": 49,
      "start": 17.8739,
      "duration": 0.1136,
      "velocity": 99,
      "chip": "ym2612"
    },
    {
      "channel": 4,
      "note": 37,
      "start": 17.8771,
      "duration": 0.1108,
      "velocity": 101,
      "chip": "ym2612"
    },
    {
      "channel": 5,
      "note": 45,
      "start": 17.882,
      "duration": 0.106,
      "velocity": 122,
      "chip": "ym2612"
    },
    {
      "channel": 0,
      "note": 49,
      "start": 18.0739,
      "duration": 0.1137,
      "velocity": 99,
      "chip": "ym2612"
    },
    {
      "channel": 3,
      "note": 47,
      "start": 18.0767,
      "duration": 0.0279,
      "velocity": 124,
      "chip": "ym2612"
    },
    {
      "channel": 4,
      "note": 37,
      "start": 18.0823,
      "duration": 0.1056,
      "velocity": 101,
      "chip": "ym2612"
    },
    {
      "channel": 1,
      "note": 55,
      "start": 18.0857,
      "duration": 0.1021,
      "velocity": 121,
      "chip": "ym2612"
    },
    {
      "channel": 0,
      "note": 49,
      "start": 18.2907,
      "duration": 0.1468,
      "velocity": 99,
      "chip": "ym2612"
    },
    {
      "channel": 4,
      "note": 37,
      "start": 18.2939,
      "duration": 0.1439,
      "velocity": 101,
      "chip": "ym2612"
    },
    {
      "channel": 5,
      "note": 45,
      "start": 18.2988,
      "duration": 0.1392,
      "velocity": 122,
      "chip": "ym2612"
    },
    {
      "channel": 0,
      "note": 54,
      "start": 18.491,
      "duration": 0.2132,
      "velocity": 99,
      "chip": "ym2612"
    },
    {
      "channel": 2,
      "note": 78,
      "start": 18.4961,
      "duration": 0.142,
      "velocity": 126,
      "chip": "ym2612"
    },
    {
      "channel": 3,
      "note": 97,
      "start": 18.4996,
      "duration": 0.1382,
      "velocity": 76,
      "chip": "ym2612"
    },
    {
      "channel": 4,
      "note": 42,
      "start": 18.503,
      "duration": 0.2015,
      "velocity": 101,
      "chip": "ym2612"
    },
    {
      "channel": 5,
      "note": 45,
      "start": 18.5071,
      "duration": 0.1976,
      "velocity": 122,
      "chip": "ym2612"
    },
    {
      "channel": 0,
      "note": 52,
      "start": 18.8906,
      "duration": 0.247,
      "velocity": 99,
      "chip": "ym2612"
    },
    {
      "channel": 2,
      "note": 76,
      "start": 18.8934,
      "duration": 0.128,
      "velocity": 126,
      "chip": "ym2612"
    },
    {
      "channel": 3,
      "note": 95,
      "start": 18.8981,
      "duration": 0.1397,
      "velocity": 76,
      "chip": "ym2612"
    },
    {
      "channel": 1,
      "note": 47,
      "start": 18.9008,
      "duration": 0.0204,
      "velocity": 124,
      "chip": "ym2612"
    },
    {
      "channel": 4,
      "note": 40,
      "start": 18.9045,
      "duration": 0.2334,
      "velocity": 101,
      "chip": "ym2612"
    },
    {
      "channel": 5,
      "note": 45,
      "start": 18.9075,
      "duration": 0.2306,
      "velocity": 122,
      "chip": "ym2612"
    },
    {
      "channel": 0,
      "note": 49,
      "start": 19.2907,
      "duration": 0.1135,
      "velocity": 99,
      "chip": "ym2612"
    },
    {
      "channel": 2,
      "note": 73,
      "start": 19.2939,
      "duration": 0.2607,
      "velocity": 126,
      "chip": "ym2612"
    },
    {
      "channel": 3,
      "note": 92,
      "start": 19.2989,
      "duration": 0.2387,
      "velocity": 76,
      "chip": "ym2612"
    },
    {
      "channel": 4,
      "note": 37,
      "start": 19.302,
      "duration": 0.0859,
      "velocity": 101,
      "chip": "ym2612"
    },
    {
      "channel": 1,
      "note": 55,
      "start": 19.3051,
      "duration": 0.0826,
      "velocity": 121,
      "chip": "ym2612"
    },
    {
      "channel": 0,
      "note": 49,
      "start": 19.4905,
      "duration": 0.0969,
      "velocity": 99,
      "chip": "ym2612"
    },
    {
      "channel": 4,
      "note": 37,
      "start": 19.4935,
      "duration": 0.0943,
      "velocity": 101,
      "chip": "ym2612"
    },
    {
      "channel": 5,
      "note": 45,
      "start": 19.4985,
      "duration": 0.0895,
      "velocity": 122,
      "chip": "ym2612"
    },
    {
      "channel": 0,
      "note": 49,
      "start": 19.6903,
      "duration": 0.0973,
      "velocity": 99,
      "chip": "ym2612"
    },
    {
      "channel": 1,
      "note": 47,
      "start": 19.6933,
      "duration": 0.0279,
      "velocity": 124,
      "chip": "ym2612"
    },
    {
      "channel": 4,
      "note": 37,
      "start": 19.6988,
      "duration": 0.0892,
      "velocity": 101,
      "chip": "ym2612"
    },
    {
      "channel": 3,
      "note": 55,
      "start": 19.7015,
      "duration": 0.0863,
      "velocity": 121,
      "chip": "ym2612"
    },
    {
      "channel": 0,
      "note": 49,
      "start": 19.8905,
      "duration": 0.0971,
      "velocity": 99,
      "chip": "ym2612"
    },
    {
      "channel": 4,
      "note": 37,
      "start": 19.8935,
      "duration": 0.0944,
      "velocity": 101,
      "chip": "ym2612"
    },
    {
      "channel": 5,
      "note": 45,
      "start": 19.8983,
      "duration": 0.0898,
      "velocity": 122,
      "chip": "ym2612"
    },
    {
      "channel": 0,
      "note": 49,
      "start": 20.0904,
      "duration": 0.0971,
      "velocity": 99,
      "chip": "ym2612"
    },
    {
      "channel": 4,
      "note": 37,
      "start": 20.0934,
      "duration": 0.0946,
      "velocity": 101,
      "chip": "ym2612"
    },
    {
      "channel": 5,
      "note": 45,
      "start": 20.098,
      "duration": 0.0901,
      "velocity": 122,
      "chip": "ym2612"
    },
    {
      "channel": 3,
      "note": 55,
      "start": 20.1006,
      "duration": 0.0873,
      "velocity": 121,
      "chip": "ym2612"
    },
    {
      "channel": 0,
      "note": 49,
      "start": 20.2903,
      "duration": 0.0974,
      "velocity": 99,
      "chip": "ym2612"
    },
    {
      "channel": 4,
      "note": 37,
      "start": 20.2933,
      "duration": 0.0946,
      "velocity": 101,
      "chip": "ym2612"
    },
    {
      "channel": 5,
      "note": 45,
      "start": 20.2981,
      "duration": 0.09,
      "velocity": 122,
      "chip": "ym2612"
    },
    {
      "channel": 0,
      "note": 49,
      "start": 20.4904,
      "duration": 0.0973,
      "velocity": 99,
      "chip": "ym2612"
    },
    {
      "channel": 1,
      "note": 47,
      "start": 20.4935,
      "duration": 0.0276,
      "velocity": 124,
      "chip": "ym2612"
    },
    {
      "channel": 4,
      "note": 37,
      "start": 20.4994,
      "duration": 0.0886,
      "velocity": 101,
      "chip": "ym2612"
    },
    {
      "channel": 3,
      "note": 55,
      "start": 20.502,
      "duration": 0.0859,
      "velocity": 121,
      "chip": "ym2612"
    },
    {
      "channel": 0,
      "note": 49,
      "start": 20.6904,
      "duration": 0.0971,
      "velocity": 99,
      "chip": "ym2612"
    },
    {
      "channel": 4,
      "note": 37,
      "start": 20.6934,
      "duration": 0.0944,
      "velocity": 101,
      "chip": "ym2612"
    },
    {
      "channel": 0,
      "note": 49,
      "start": 20.8908,
      "duration": 0.0968,
      "velocity": 99,
      "chip": "ym2612"
    },
    {
      "channel": 4,
      "note": 37,
      "start": 20.8938,
      "duration": 0.0942,
      "velocity": 101,
      "chip": "ym2612"
    },
    {
      "channel": 3,
      "note": 55,
      "start": 20.8985,
      "duration": 0.0894,
      "velocity": 121,
      "chip": "ym2612"
    },
    {
      "channel": 0,
      "note": 49,
      "start": 21.0904,
      "duration": 0.0971,
      "velocity": 99,
      "chip": "ym2612"
    },
    {
      "channel": 4,
      "note": 37,
      "start": 21.0934,
      "duration": 0.0945,
      "velocity": 101,
      "chip": "ym2612"
    },
    {
      "channel": 5,
      "note": 45,
      "start": 21.0982,
      "duration": 0.0898,
      "velocity": 122,
      "chip": "ym2612"
    },
    {
      "channel": 0,
      "note": 49,
      "start": 21.2903,
      "duration": 0.0973,
      "velocity": 99,
      "chip": "ym2612"
    },
    {
      "channel": 1,
      "note": 47,
      "start": 21.293,
      "duration": 0.0282,
      "velocity": 124,
      "chip": "ym2612"
    },
    {
      "channel": 4,
      "note": 37,
      "start": 21.2989,
      "duration": 0.089,
      "velocity": 101,
      "chip": "ym2612"
    },
    {
      "channel": 3,
      "note": 55,
      "start": 21.3019,
      "duration": 0.086,
      "velocity": 121,
      "chip": "ym2612"
    },
    {
      "channel": 0,
      "note": 49,
      "start": 21.4905,
      "duration": 0.0971,
      "velocity": 99,
      "chip": "ym2612"
    },
    {
      "channel": 4,
      "note": 37,
      "start": 21.4935,
      "duration": 0.0944,
      "velocity": 101,
      "chip": "ym2612"
    },
    {
      "channel": 5,
      "note": 45,
      "start": 21.4983,
      "duration": 0.0898,
      "velocity": 122,
      "chip": "ym2612"
    },
    {
      "channel": 0,
      "note": 52,
      "start": 21.6907,
      "duration": 0.2301,
      "velocity": 99,
      "chip": "ym2612"
    },
    {
      "channel": 2,
      "note": 76,
      "start": 21.6937,
      "duration": 0.1443,
      "velocity": 126,
      "chip": "ym2612"
    },
    {
      "channel": 1,
      "note": 95,
      "start": 21.6988,
      "duration": 0.1388,
      "velocity": 76,
      "chip": "ym2612"
    },
    {
      "channel": 4,
      "note": 40,
      "start": 21.7019,
      "duration": 0.2193,
      "velocity": 101,
      "chip": "ym2612"
    },
    {
      "channel": 5,
      "note": 45,
      "start": 21.7054,
      "duration": 0.216,
      "velocity": 122,
      "chip": "ym2612"
    },
    {
      "channel": 0,
      "note": 54,
      "start": 22.0905,
      "duration": 0.2636,
      "velocity": 99,
      "chip": "ym2612"
    },
    {
      "channel": 2,
      "note": 78,
      "start": 22.0938,
      "duration": 0.1276,
      "velocity": 126,
      "chip": "ym2612"
    },
    {
      "channel": 1,
      "note": 97,
      "start": 22.0984,
      "duration": 0.1394,
      "velocity": 76,
      "chip": "ym2612"
    },
    {
      "channel": 3,
      "note": 47,
      "start": 22.101,
      "duration": 0.0202,
      "velocity": 124,
      "chip": "ym2612"
    },
    {
      "channel": 4,
      "note": 42,
      "start": 22.1049,
      "duration": 0.2496,
      "velocity": 101,
      "chip": "ym2612"
    },
    {
      "channel": 5,
      "note": 45,
      "start": 22.1077,
      "duration": 0.2469,
      "velocity": 122,
      "chip": "ym2612"
    },
    {
      "channel": 0,
      "note": 49,
      "start": 22.5074,
      "duration": 0.0968,
      "velocity": 99,
      "chip": "ym2612"
    },
    {
      "channel": 2,
      "note": 73,
      "start": 22.5105,
      "duration": 0.2608,
      "velocity": 126,
      "chip": "ym2612"
    },
    {
      "channel": 1,
      "note": 92,
      "start": 22.5155,
      "duration": 0.2389,
      "velocity": 76,
      "chip": "ym2612"
    },
    {
      "channel": 4,
      "note": 37,
      "start": 22.5187,
      "duration": 0.086,
      "velocity": 101,
      "chip": "ym2612"
    },
    {
      "channel": 3,
      "note": 55,
      "start": 22.5217,
      "duration": 0.0828,
      "velocity": 121,
      "chip": "ym2612"
    },
    {
      "channel": 0,
      "note": 49,
      "start": 22.7071,
      "duration": 0.0803,
      "velocity": 99,
      "chip": "ym2612"
    },
    {
      "channel": 4,
      "note": 37,
      "start": 22.7103,
      "duration": 0.0776,
      "velocity": 101,
      "chip": "ym2612"
    },
    {
      "channel": 5,
      "note": 45,
      "start": 22.7152,
      "duration": 0.0728,
      "velocity": 122,
      "chip": "ym2612"
    },
    {
      "channel": 0,
      "note": 49,
      "start": 22.9072,
      "duration": 0.1139,
      "velocity": 99,
      "chip": "ym2612"
    },
    {
      "channel": 3,
      "note": 47,
      "start": 22.9101,
      "duration": 0.0277,
      "velocity": 124,
      "chip": "ym2612"
    },
    {
      "channel": 4,
      "note": 37,
      "start": 22.9158,
      "duration": 0.1057,
      "velocity": 101,
      "chip": "ym2612"
    },
    {
      "channel": 1,
      "note": 55,
      "start": 22.9187,
      "duration": 0.1026,
      "velocity": 121,
      "chip": "ym2612"
    },
    {
      "channel": 0,
      "note": 49,
      "start": 23.1075,
      "duration": 0.1135,
      "velocity": 99,
      "chip": "ym2612"
    },
    {
      "channel": 4,
      "note": 37,
      "start": 23.1126,
      "duration": 0.1087,
      "velocity": 101,
      "chip": "ym2612"
    },
    {
      "channel": 5,
      "note": 45,
      "start": 23.1155,
      "duration": 0.1059,
      "velocity": 122,
      "chip": "ym2612"
    },
    {
      "channel": 0,
      "note": 49,
      "start": 23.3071,
      "duration": 0.1139,
      "velocity": 99,
      "chip": "ym2612"
    },
    {
      "channel": 4,
      "note": 37,
      "start": 23.3101,
      "duration": 0.1112,
      "velocity": 101,
      "chip": "ym2612"
    },
    {
      "channel": 5,
      "note": 45,
      "start": 23.3147,
      "duration": 0.1068,
      "velocity": 122,
      "chip": "ym2612"
    },
    {
      "channel": 1,
      "note": 55,
      "start": 23.3172,
      "duration": 0.104,
      "velocity": 121,
      "chip": "ym2612"
    },
    {
      "channel": 0,
      "note": 49,
      "start": 23.5071,
      "duration": 0.0973,
      "velocity": 99,
      "chip": "ym2612"
    },
    {
      "channel": 4,
      "note": 37,
      "start": 23.5127,
      "duration": 0.0919,
      "velocity": 101,
      "chip": "ym2612"
    },
    {
      "channel": 5,
      "note": 45,
      "start": 23.5157,
      "duration": 0.089,
      "velocity": 122,
      "chip": "ym2612"
    },
    {
      "channel": 0,
      "note": 49,
      "start": 23.7071,
      "duration": 0.0974,
      "velocity": 99,
      "chip": "ym2612"
    },
    {
      "channel": 3,
      "note": 47,
      "start": 23.7098,
      "duration": 0.028,
      "velocity": 124,
      "chip": "ym2612"
    },
    {
      "channel": 4,
      "note": 37,
      "start": 23.7154,
      "duration": 0.0894,
      "velocity": 101,
      "chip": "ym2612"
    },
    {
      "channel": 1,
      "note": 55,
      "start": 23.7185,
      "duration": 0.0861,
      "velocity": 121,
      "chip": "ym2612"
    },
    {
      "channel": 0,
      "note": 49,
      "start": 23.9073,
      "duration": 0.0802,
      "velocity": 99,
      "chip": "ym2612"
    },
    {
      "channel": 4,
      "note": 37,
      "start": 23.9105,
      "duration": 0.0773,
      "velocity": 101,
      "chip": "ym2612"
    },
    {
      "channel": 0,
      "note": 49,
      "start": 24.1073,
      "duration": 0.1305,
      "velocity": 99,
      "chip": "ym2612"
    },
    {
      "channel": 4,
      "note": 37,
      "start": 24.1105,
      "duration": 0.1276,
      "velocity": 101,
      "chip": "ym2612"
    },
    {
      "channel": 1,
      "note": 55,
      "start": 24.1151,
      "duration": 0.1227,
      "velocity": 121,
      "chip": "ym2612"
    },
    {
      "channel": 0,
      "note": 49,
      "start": 24.3071,
      "duration": 0.1137,
      "velocity": 99,
      "chip": "ym2612"
    },
    {
      "channel": 4,
      "note": 37,
      "start": 24.3103,
      "duration": 0.111,
      "velocity": 101,
      "chip": "ym2612"
    },
    {
      "channel": 5,
      "note": 45,
      "start": 24.3157,
      "duration": 0.1057,
      "velocity": 122,
      "chip": "ym2612"
    },
    {
      "channel": 0,
      "note": 49,
      "start": 24.5071,
      "duration": 0.0973,
      "velocity": 99,
      "chip": "ym2612"
    },
    {
      "channel": 3,
      "note": 47,
      "start": 24.5099,
      "duration": 0.0279,
      "velocity": 124,
      "chip": "ym2612"
    },
    {
      "channel": 4,
      "note": 37,
      "start": 24.5156,
      "duration": 0.0892,
      "velocity": 101,
      "chip": "ym2612"
    },
    {
      "channel": 1,
      "note": 55,
      "start": 24.5186,
      "duration": 0.086,
      "velocity": 121,
      "chip": "ym2612"
    },
    {
      "channel": 0,
      "note": 49,
      "start": 24.7073,
      "duration": 0.1469,
      "velocity": 99,
      "chip": "ym2612"
    },
    {
      "channel": 4,
      "note": 37,
      "start": 24.7105,
      "duration": 0.1441,
      "velocity": 101,
      "chip": "ym2612"
    },
    {
      "channel": 5,
      "note": 45,
      "start": 24.7154,
      "duration": 0.1393,
      "velocity": 122,
      "chip": "ym2612"
    },
    {
      "channel": 0,
      "note": 54,
      "start": 24.9077,
      "duration": 0.2134,
      "velocity": 99,
      "chip": "ym2612"
    },
    {
      "channel": 2,
      "note": 78,
      "start": 24.9127,
      "duration": 0.1419,
      "velocity": 126,
      "chip": "ym2612"
    },
    {
      "channel": 3,
      "note": 97,
      "start": 24.9162,
      "duration": 0.1382,
      "velocity": 76,
      "chip": "ym2612"
    },
    {
      "channel": 4,
      "note": 42,
      "start": 24.9193,
      "duration": 0.202,
      "velocity": 101,
      "chip": "ym2612"
    },
    {
      "channel": 5,
      "note": 45,
      "start": 24.9223,
      "duration": 0.1991,
      "velocity": 122,
      "chip": "ym2612"
    },
    {
      "channel": 0,
      "note": 52,
      "start": 25.3072,
      "duration": 0.2472,
      "velocity": 99,
      "chip": "ym2612"
    },
    {
      "channel": 2,
      "note": 76,
      "start": 25.3101,
      "duration": 0.1279,
      "velocity": 126,
      "chip": "ym2612"
    },
    {
      "channel": 3,
      "note": 95,
      "start": 25.315,
      "duration": 0.1395,
      "velocity": 76,
      "chip": "ym2612"
    },
    {
      "channel": 1,
      "note": 47,
      "start": 25.3177,
      "duration": 0.02,
      "velocity": 124,
      "chip": "ym2612"
    },
    {
      "channel": 4,
      "note": 40,
      "start": 25.3218,
      "duration": 0.2328,
      "velocity": 101,
      "chip": "ym2612"
    },
    {
      "channel": 5,
      "note": 45,
      "start": 25.3246,
      "duration": 0.2302,
      "velocity": 122,
      "chip": "ym2612"
    },
    {
      "channel": 0,
      "note": 57,
      "start": 25.7073,
      "duration": 0.0968,
      "velocity": 99,
      "chip": "ym2612"
    },
    {
      "channel": 2,
      "note": 81,
      "start": 25.7103,
      "duration": 0.0945,
      "velocity": 126,
      "chip": "ym2612"
    },
    {
      "channel": 4,
      "note": 57,
      "start": 25.7156,
      "duration": 0.1222,
      "velocity": 101,
      "chip": "ym2612"
    },
    {
      "channel": 5,
      "note": 45,
      "start": 25.7185,
      "duration": 0.0862,
      "velocity": 122,
      "chip": "ym2612"
    },
    {
      "channel": 1,
      "note": 55,
      "start": 25.7215,
      "duration": 0.083,
      "velocity": 121,
      "chip": "ym2612"
    },
    {
      "channel": 0,
      "note": 57,
      "start": 25.9071,
      "duration": 0.0972,
      "velocity": 99,
      "chip": "ym2612"
    },
    {
      "channel": 2,
      "note": 81,
      "start": 25.9098,
      "duration": 0.0951,
      "velocity": 126,
      "chip": "ym2612"
    },
    {
      "channel": 4,
      "note": 69,
      "start": 25.9147,
      "duration": 0.123,
      "velocity": 101,
      "chip": "ym2612"
    },
    {
      "channel": 5,
      "note": 45,
      "start": 25.9173,
      "duration": 0.0874,
      "velocity": 122,
      "chip": "ym2612"
    },
    {
      "channel": 1,
      "note": 55,
      "start": 25.9197,
      "duration": 0.0848,
      "velocity": 121,
      "chip": "ym2612"
    },
    {
      "channel": 0,
      "note": 57,
      "start": 26.107,
      "duration": 0.0975,
      "velocity": 99,
      "chip": "ym2612"
    },
    {
      "channel": 2,
      "note": 81,
      "start": 26.1097,
      "duration": 0.0953,
      "velocity": 126,
      "chip": "ym2612"
    },
    {
      "channel": 3,
      "note": 47,
      "start": 26.1146,
      "duration": 0.0232,
      "velocity": 124,
      "chip": "ym2612"
    },
    {
      "channel": 4,
      "note": 62,
      "start": 26.118,
      "duration": 0.1198,
      "velocity": 101,
      "chip": "ym2612"
    },
    {
      "channel": 5,
      "note": 45,
      "start": 26.1206,
      "duration": 0.0842,
      "velocity": 122,
      "chip": "ym2612"
    },
    {
      "channel": 1,
      "note": 55,
      "start": 26.1233,
      "duration": 0.0813,
      "velocity": 121,
      "chip": "ym2612"
    },
    {
      "channel": 0,
      "note": 57,
      "start": 26.3071,
      "duration": 0.0971,
      "velocity": 99,
      "chip": "ym2612"
    },
    {
      "channel": 2,
      "note": 81,
      "start": 26.3102,
      "duration": 0.0946,
      "velocity": 126,
      "chip": "ym2612"
    },
    {
      "channel": 4,
      "note": 61,
      "start": 26.3152,
      "duration": 0.1227,
      "velocity": 101,
      "chip": "ym2612"
    },
    {
      "channel": 5,
      "note": 45,
      "start": 26.3182,
      "duration": 0.0865,
      "velocity": 122,
      "chip": "ym2612"
    },
    {
      "channel": 1,
      "note": 55,
      "start": 26.3207,
      "duration": 0.0838,
      "velocity": 121,
      "chip": "ym2612"
    },
    {
      "channel": 0,
      "note": 57,
      "start": 26.507,
      "duration": 0.0971,
      "velocity": 99,
      "chip": "ym2612"
    },
    {
      "channel": 2,
      "note": 81,
      "start": 26.5097,
      "duration": 0.0951,
      "velocity": 126,
      "chip": "ym2612"
    },
    {
      "channel": 4,
      "note": 62,
      "start": 26.5146,
      "duration": 0.1232,
      "velocity": 101,
      "chip": "ym2612"
    },
    {
      "channel": 5,
      "note": 45,
      "start": 26.5173,
      "duration": 0.0874,
      "velocity": 122,
      "chip": "ym2612"
    },
    {
      "channel": 1,
      "note": 55,
      "start": 26.5197,
      "duration": 0.0847,
      "velocity": 121,
      "chip": "ym2612"
    },
    {
      "channel": 0,
      "note": 57,
      "start": 26.7237,
      "duration": 0.0971,
      "velocity": 99,
      "chip": "ym2612"
    },
    {
      "channel": 2,
      "note": 81,
      "start": 26.7263,
      "duration": 0.0951,
      "velocity": 126,
      "chip": "ym2612"
    },
    {
      "channel": 4,
      "note": 60,
      "start": 26.7313,
      "duration": 0.1232,
      "velocity": 101,
      "chip": "ym2612"
    },
    {
      "channel": 5,
      "note": 45,
      "start": 26.7339,
      "duration": 0.0874,
      "velocity": 122,
      "chip": "ym2612"
    },
    {
      "channel": 1,
      "note": 55,
      "start": 26.7363,
      "duration": 0.0847,
      "velocity": 121,
      "chip": "ym2612"
    },
    {
      "channel": 0,
      "note": 57,
      "start": 26.9237,
      "duration": 0.0971,
      "velocity": 99,
      "chip": "ym2612"
    },
    {
      "channel": 2,
      "note": 81,
      "start": 26.9264,
      "duration": 0.0951,
      "velocity": 126,
      "chip": "ym2612"
    },
    {
      "channel": 3,
      "note": 47,
      "start": 26.9311,
      "duration": 0.0234,
      "velocity": 124,
      "chip": "ym2612"
    },
    {
      "channel": 4,
      "note": 63,
      "start": 26.9346,
      "duration": 0.1199,
      "velocity": 101,
      "chip": "ym2612"
    },
    {
      "channel": 5,
      "note": 45,
      "start": 26.9372,
      "duration": 0.0842,
      "velocity": 122,
      "chip": "ym2612"
    },
    {
      "channel": 1,
      "note": 55,
      "start": 26.9398,
      "duration": 0.0813,
      "velocity": 121,
      "chip": "ym2612"
    },
    {
      "channel": 0,
      "note": 57,
      "start": 27.1237,
      "duration": 0.0972,
      "velocity": 99,
      "chip": "ym2612"
    },
    {
      "channel": 2,
      "note": 81,
      "start": 27.1264,
      "duration": 0.0952,
      "velocity": 126,
      "chip": "ym2612"
    },
    {
      "channel": 4,
      "note": 62,
      "start": 27.1314,
      "duration": 0.123,
      "velocity": 101,
      "chip": "ym2612"
    },
    {
      "channel": 5,
      "note": 45,
      "start": 27.134,
      "duration": 0.0874,
      "velocity": 122,
      "chip": "ym2612"
    },
    {
      "channel": 1,
      "note": 55,
      "start": 27.1368,
      "duration": 0.0844,
      "velocity": 121,
      "chip": "ym2612"
    },
    {
      "channel": 0,
      "note": 57,
      "start": 27.3237,
      "duration": 0.0972,
      "velocity": 99,
      "chip": "ym2612"
    },
    {
      "channel": 2,
      "note": 81,
      "start": 27.3263,
      "duration": 0.0952,
      "velocity": 126,
      "chip": "ym2612"
    },
    {
      "channel": 4,
      "note": 57,
      "start": 27.3314,
      "duration": 0.1232,
      "velocity": 101,
      "chip": "ym2612"
    },
    {
      "channel": 5,
      "note": 45,
      "start": 27.3339,
      "duration": 0.0875,
      "velocity": 122,
      "chip": "ym2612"
    },
    {
      "channel": 1,
      "note": 55,
      "start": 27.3364,
      "duration": 0.0847,
      "velocity": 121,
      "chip": "ym2612"
    },
    {
      "channel": 0,
      "note": 57,
      "start": 27.5237,
      "duration": 0.0973,
      "velocity": 99,
      "chip": "ym2612"
    },
    {
      "channel": 2,
      "note": 81,
      "start": 27.5265,
      "duration": 0.0951,
      "velocity": 126,
      "chip": "ym2612"
    },
    {
      "channel": 4,
      "note": 69,
      "start": 27.5314,
      "duration": 0.123,
      "velocity": 101,
      "chip": "ym2612"
    },
    {
      "channel": 5,
      "note": 45,
      "start": 27.534,
      "duration": 0.0874,
      "velocity": 122,
      "chip": "ym2612"
    },
    {
      "channel": 1,
      "note": 55,
      "start": 27.5365,
      "duration": 0.0847,
      "velocity": 121,
      "chip": "ym2612"
    },
    {
      "channel": 0,
      "note": 57,
      "start": 27.7241,
      "duration": 0.0969,
      "velocity": 99,
      "chip": "ym2612"
    },
    {
      "channel": 2,
      "note": 81,
      "start": 27.7268,
      "duration": 0.0948,
      "velocity": 126,
      "chip": "ym2612"
    },
    {
      "channel": 3,
      "note": 47,
      "start": 27.7315,
      "duration": 0.023,
      "velocity": 124,
      "chip": "ym2612"
    },
    {
      "channel": 4,
      "note": 62,
      "start": 27.7349,
      "duration": 0.1197,
      "velocity": 101,
      "chip": "ym2612"
    },
    {
      "channel": 5,
      "note": 45,
      "start": 27.7376,
      "duration": 0.0838,
      "velocity": 122,
      "chip": "ym2612"
    },
    {
      "channel": 1,
      "note": 55,
      "start": 27.7402,
      "duration": 0.081,
      "velocity": 121,
      "chip": "ym2612"
    },
    {
      "channel": 0,
      "note": 57,
      "start": 27.9238,
      "duration": 0.0971,
      "velocity": 99,
      "chip": "ym2612"
    },
    {
      "channel": 2,
      "note": 81,
      "start": 27.9265,
      "duration": 0.095,
      "velocity": 126,
      "chip": "ym2612"
    },
    {
      "channel": 4,
      "note": 61,
      "start": 27.9315,
      "duration": 0.1229,
      "velocity": 101,
      "chip": "ym2612"
    },
    {
      "channel": 5,
      "note": 45,
      "start": 27.934,
      "duration": 0.0873,
      "velocity": 122,
      "chip": "ym2612"
    },
    {
      "channel": 1,
      "note": 55,
      "start": 27.9365,
      "duration": 0.0847,
      "velocity": 121,
      "chip": "ym2612"
    },
    {
      "channel": 0,
      "note": 57,
      "start": 28.1237,
      "duration": 0.0971,
      "velocity": 99,
      "chip": "ym2612"
    },
    {
      "channel": 2,
      "note": 81,
      "start": 28.1263,
      "duration": 0.0951,
      "velocity": 126,
      "chip": "ym2612"
    },
    {
      "channel": 4,
      "note": 67,
      "start": 28.1317,
      "duration": 0.1228,
      "velocity": 101,
      "chip": "ym2612"
    },
    {
      "channel": 5,
      "note": 45,
      "start": 28.1343,
      "duration": 0.087,
      "velocity": 122,
      "chip": "ym2612"
    },
    {
      "channel": 1,
      "note": 55,
      "start": 28.1368,
      "duration": 0.0843,
      "velocity": 121,
      "chip": "ym2612"
    },
    {
      "channel": 0,
      "note": 57,
      "start": 28.3237,
      "duration": 0.0972,
      "velocity": 99,
      "chip": "ym2612"
    },
    {
      "channel": 2,
      "note": 81,
      "start": 28.3264,
      "duration": 0.0951,
      "velocity": 126,
      "chip": "ym2612"
    },
    {
      "channel": 4,
      "note": 57,
      "start": 28.3314,
      "duration": 0.1232,
      "velocity": 101,
      "chip": "ym2612"
    },
    {
      "channel": 5,
      "note": 45,
      "start": 28.334,
      "duration": 0.0874,
      "velocity": 122,
      "chip": "ym2612"
    },
    {
      "channel": 1,
      "note": 55,
      "start": 28.3364,
      "duration": 0.0847,
      "velocity": 121,
      "chip": "ym2612"
    },
    {
      "channel": 0,
      "note": 57,
      "start": 28.5239,
      "duration": 0.1305,
      "velocity": 99,
      "chip": "ym2612"
    },
    {
      "channel": 2,
      "note": 81,
      "start": 28.5267,
      "duration": 0.1283,
      "velocity": 126,
      "chip": "ym2612"
    },
    {
      "channel": 3,
      "note": 47,
      "start": 28.5316,
      "duration": 0.023,
      "velocity": 124,
      "chip": "ym2612"
    },
    {
      "channel": 4,
      "note": 64,
      "start": 28.5352,
      "duration": 0.1195,
      "velocity": 101,
      "chip": "ym2612"
    },
    {
      "channel": 5,
      "note": 45,
      "start": 28.5381,
      "duration": 0.1167,
      "velocity": 122,
      "chip": "ym2612"
    },
    {
      "channel": 1,
      "note": 55,
      "start": 28.5407,
      "duration": 0.1138,
      "velocity": 121,
      "chip": "ym2612"
    },
    {
      "channel": 0,
      "note": 57,
      "start": 28.7239,
      "duration": 0.1637,
      "velocity": 99,
      "chip": "ym2612"
    },
    {
      "channel": 2,
      "note": 81,
      "start": 28.7267,
      "duration": 0.1614,
      "velocity": 126,
      "chip": "ym2612"
    },
    {
      "channel": 4,
      "note": 62,
      "start": 28.7317,
      "duration": 0.1228,
      "velocity": 101,
      "chip": "ym2612"
    },
    {
      "channel": 5,
      "note": 45,
      "start": 28.7344,
      "duration": 0.1536,
      "velocity": 122,
      "chip": "ym2612"
    },
    {
      "channel": 1,
      "note": 55,
      "start": 28.737,
      "duration": 0.1508,
      "velocity": 121,
      "chip": "ym2612"
    },
    {
      "channel": 0,
      "note": 54,
      "start": 28.9242,
      "duration": 0.2467,
      "velocity": 99,
      "chip": "ym2612"
    },
    {
      "channel": 2,
      "note": 78,
      "start": 28.9298,
      "duration": 0.2417,
      "velocity": 126,
      "chip": "ym2612"
    },
    {
      "channel": 4,
      "note": 54,
      "start": 28.933,
      "duration": 0.1215,
      "velocity": 101,
      "chip": "ym2612"
    },
    {
      "channel": 5,
      "note": 45,
      "start": 28.9363,
      "duration": 0.2351,
      "velocity": 122,
      "chip": "ym2612"
    },
    {
      "channel": 1,
      "note": 55,
      "start": 28.9394,
      "duration": 0.2317,
      "velocity": 121,
      "chip": "ym2612"
    },
    {
      "channel": 3,
      "note": 47,
      "start": 29.1242,
      "duration": 0.0304,
      "velocity": 124,
      "chip": "ym2612"
    },
    {
      "channel": 4,
      "note": 72,
      "start": 29.1315,
      "duration": 0.5563,
      "velocity": 101,
      "chip": "ym2612"
    },
    {
      "channel": 3,
      "note": 47,
      "start": 29.7242,
      "duration": 0.0303,
      "velocity": 124,
      "chip": "ym2612"
    },
    {
      "channel": 4,
      "note": 73,
      "start": 29.7304,
      "duration": 0.2075,
      "velocity": 101,
      "chip": "ym2612"
    },
    {
      "channel": 5,
      "note": 45,
      "start": 29.9249,
      "duration": 0.0962,
      "velocity": 122,
      "chip": "ym2612"
    },
    {
      "channel": 0,
      "note": 71,
      "start": 29.9299,
      "duration": 0.1576,
      "velocity": 101,
      "chip": "ym2612"
    },
    {
      "channel": 0,
      "note": 70,
      "start": 30.1247,
      "duration": 0.1628,
      "velocity": 101,
      "chip": "ym2612"
    },
    {
      "channel": 3,
      "note": 47,
      "start": 30.3244,
      "duration": 0.0302,
      "velocity": 124,
      "chip": "ym2612"
    },
    {
      "channel": 5,
      "note": 45,
      "start": 30.3304,
      "duration": 0.091,
      "velocity": 122,
      "chip": "ym2612"
    },
    {
      "channel": 0,
      "note": 71,
      "start": 30.3332,
      "duration": 0.3546,
      "velocity": 101,
      "chip": "ym2612"
    },
    {
      "channel": 5,
      "note": 45,
      "start": 30.5248,
      "duration": 0.113,
      "velocity": 122,
      "chip": "ym2612"
    },
    {
      "channel": 5,
      "note": 45,
      "start": 30.7249,
      "duration": 0.1463,
      "velocity": 122,
      "chip": "ym2612"
    },
    {
      "channel": 0,
      "note": 70,
      "start": 30.7298,
      "duration": 0.1746,
      "velocity": 101,
      "chip": "ym2612"
    },
    {
      "channel": 0,
      "note": 66,
      "start": 30.9415,
      "duration": 0.213,
      "velocity": 101,
      "chip": "ym2612"
    },
    {
      "channel": 3,
      "note": 47,
      "start": 31.1414,
      "duration": 0.0298,
      "velocity": 124,
      "chip": "ym2612"
    },
    {
      "channel": 4,
      "note": 70,
      "start": 31.1482,
      "duration": 0.3562,
      "velocity": 101,
      "chip": "ym2612"
    },
    {
      "channel": 5,
      "note": 45,
      "start": 31.3417,
      "duration": 0.0795,
      "velocity": 122,
      "chip": "ym2612"
    },
    {
      "channel": 5,
      "note": 45,
      "start": 31.542,
      "duration": 0.1125,
      "velocity": 122,
      "chip": "ym2612"
    },
    {
      "channel": 0,
      "note": 66,
      "start": 31.5473,
      "duration": 0.1905,
      "velocity": 101,
      "chip": "ym2612"
    },
    {
      "channel": 3,
      "note": 47,
      "start": 31.7412,
      "duration": 0.03,
      "velocity": 124,
      "chip": "ym2612"
    },
    {
      "channel": 0,
      "note": 64,
      "start": 31.7471,
      "duration": 0.1737,
      "velocity": 101,
      "chip": "ym2612"
    },
    {
      "channel": 0,
      "note": 66,
      "start": 31.9418,
      "duration": 0.2457,
      "velocity": 101,
      "chip": "ym2612"
    },
    {
      "channel": 1,
      "note": 57,
      "start": 32.141,
      "duration": 0.1134,
      "velocity": 99,
      "chip": "ym2612"
    },
    {
      "channel": 2,
      "note": 81,
      "start": 32.1461,
      "duration": 0.1088,
      "velocity": 126,
      "chip": "ym2612"
    },
    {
      "channel": 4,
      "note": 57,
      "start": 32.1493,
      "duration": 0.1219,
      "velocity": 101,
      "chip": "ym2612"
    },
    {
      "channel": 5,
      "note": 45,
      "start": 32.1519,
      "duration": 0.1028,
      "velocity": 122,
      "chip": "ym2612"
    },
    {
      "channel": 3,
      "note": 55,
      "start": 32.1555,
      "duration": 0.099,
      "velocity": 121,
      "chip": "ym2612"
    },
    {
      "channel": 1,
      "note": 57,
      "start": 32.341,
      "duration": 0.0966,
      "velocity": 99,
      "chip": "ym2612"
    },
    {
      "channel": 2,
      "note": 81,
      "start": 32.3439,
      "duration": 0.0943,
      "velocity": 126,
      "chip": "ym2612"
    },
    {
      "channel": 4,
      "note": 69,
      "start": 32.3488,
      "duration": 0.1224,
      "velocity": 101,
      "chip": "ym2612"
    },
    {
      "channel": 5,
      "note": 45,
      "start": 32.3515,
      "duration": 0.0864,
      "velocity": 122,
      "chip": "ym2612"
    },
    {
      "channel": 3,
      "note": 55,
      "start": 32.3542,
      "duration": 0.0836,
      "velocity": 121,
      "chip": "ym2612"
    },
    {
      "channel": 1,
      "note": 57,
      "start": 32.5405,
      "duration": 0.0971,
      "velocity": 99,
      "chip": "ym2612"
    },
    {
      "channel": 2,
      "note": 81,
      "start": 32.5432,
      "duration": 0.095,
      "velocity": 126,
      "chip": "ym2612"
    },
    {
      "channel": 0,
      "note": 47,
      "start": 32.548,
      "duration": 0.0229,
      "velocity": 124,
      "chip": "ym2612"
    },
    {
      "channel": 4,
      "note": 62,
      "start": 32.5515,
      "duration": 0.1197,
      "velocity": 101,
      "chip": "ym2612"
    },
    {
      "channel": 5,
      "note": 45,
      "start": 32.5541,
      "duration": 0.084,
      "velocity": 122,
      "chip": "ym2612"
    },
    {
      "channel": 3,
      "note": 55,
      "start": 32.5568,
      "duration": 0.0811,
      "velocity": 121,
      "chip": "ym2612"
    },
    {
      "channel": 1,
      "note": 57,
      "start": 32.7405,
      "duration": 0.0973,
      "velocity": 99,
      "chip": "ym2612"
    },
    {
      "channel": 2,
      "note": 81,
      "start": 32.7432,
      "duration": 0.0951,
      "velocity": 126,
      "chip": "ym2612"
    },
    {
      "channel": 4,
      "note": 61,
      "start": 32.7481,
      "duration": 0.123,
      "velocity": 101,
      "chip": "ym2612"
    },
    {
      "channel": 5,
      "note": 45,
      "start": 32.7507,
      "duration": 0.0874,
      "velocity": 122,
      "chip": "ym2612"
    },
    {
      "channel": 3,
      "note": 55,
      "start": 32.7532,
      "duration": 0.0847,
      "velocity": 121,
      "chip": "ym2612"
    },
    {
      "channel": 1,
      "note": 57,
      "start": 32.9404,
      "duration": 0.0974,
      "velocity": 99,
      "chip": "ym2612"
    },
    {
      "channel": 2,
      "note": 81,
      "start": 32.9431,
      "duration": 0.0952,
      "velocity": 126,
      "chip": "ym2612"
    },
    {
      "channel": 4,
      "note": 62,
      "start": 32.948,
      "duration": 0.1231,
      "velocity": 101,
      "chip": "ym2612"
    },
    {
      "channel": 5,
      "note": 45,
      "start": 32.9507,
      "duration": 0.0875,
      "velocity": 122,
      "chip": "ym2612"
    },
    {
      "channel": 3,
      "note": 55,
      "start": 32.9531,
      "duration": 0.0848,
      "velocity": 121,
      "chip": "ym2612"
    },
    {
      "channel": 1,
      "note": 57,
      "start": 33.1404,
      "duration": 0.0971,
      "velocity": 99,
      "chip": "ym2612"
    },
    {
      "channel": 2,
      "note": 81,
      "start": 33.1431,
      "duration": 0.095,
      "velocity": 126,
      "chip": "ym2612"
    },
    {
      "channel": 4,
      "note": 60,
      "start": 33.148,
      "duration": 0.1231,
      "velocity": 101,
      "chip": "ym2612"
    },
    {
      "channel": 5,
      "note": 45,
      "start": 33.1507,
      "duration": 0.0873,
      "velocity": 122,
      "chip": "ym2612"
    },
    {
      "channel": 3,
      "note": 55,
      "start": 33.1531,
      "duration": 0.0847,
      "velocity": 121,
      "chip": "ym2612"
    },
    {
      "channel": 1,
      "note": 57,
      "start": 33.3404,
      "duration": 0.0974,
      "velocity": 99,
      "chip": "ym2612"
    },
    {
      "channel": 2,
      "note": 81,
      "start": 33.3432,
      "duration": 0.0951,
      "velocity": 126,
      "chip": "ym2612"
    },
    {
      "channel": 0,
      "note": 47,
      "start": 33.3477,
      "duration": 0.0234,
      "velocity": 124,
      "chip": "ym2612"
    },
    {
      "channel": 4,
      "note": 63,
      "start": 33.3512,
      "duration": 0.12,
      "velocity": 101,
      "chip": "ym2612"
    },
    {
      "channel": 5,
      "note": 45,
      "start": 33.3538,
      "duration": 0.0844,
      "velocity": 122,
      "chip": "ym2612"
    },
    {
      "channel": 3,
      "note": 55,
      "start": 33.3564,
      "duration": 0.0815,
      "velocity": 121,
      "chip": "ym2612"
    },
    {
      "channel": 1,
      "note": 57,
      "start": 33.5405,
      "duration": 0.0971,
      "velocity": 99,
      "chip": "ym2612"
    },
    {
      "channel": 2,
      "note": 81,
      "start": 33.5433,
      "duration": 0.0949,
      "velocity": 126,
      "chip": "ym2612"
    },
    {
      "channel": 4,
      "note": 62,
      "start": 33.5482,
      "duration": 0.123,
      "velocity": 101,
      "chip": "ym2612"
    },
    {
      "channel": 5,
      "note": 45,
      "start": 33.5508,
      "duration": 0.0873,
      "velocity": 122,
      "chip": "ym2612"
    },
    {
      "channel": 3,
      "note": 55,
      "start": 33.5533,
      "duration": 0.0846,
      "velocity": 121,
      "chip": "ym2612"
    },
    {
      "channel": 1,
      "note": 57,
      "start": 33.7405,
      "duration": 0.0971,
      "velocity": 99,
      "chip": "ym2612"
    },
    {
      "channel": 2,
      "note": 81,
      "start": 33.7432,
      "duration": 0.095,
      "velocity": 126,
      "chip": "ym2612"
    },
    {
      "channel": 4,
      "note": 57,
      "start": 33.7485,
      "duration": 0.1227,
      "velocity": 101,
      "chip": "ym2612"
    },
    {
      "channel": 5,
      "note": 45,
      "start": 33.7512,
      "duration": 0.0869,
      "velocity": 122,
      "chip": "ym2612"
    },
    {
      "channel": 3,
      "note": 55,
      "start": 33.7537,
      "duration": 0.0842,
      "velocity": 121,
      "chip": "ym2612"
    },
    {
      "channel": 1,
      "note": 57,
      "start": 33.9405,
      "duration": 0.0973,
      "velocity": 99,
      "chip": "ym2612"
    },
    {
      "channel": 2,
      "note": 81,
      "start": 33.9432,
      "duration": 0.095,
      "velocity": 126,
      "chip": "ym2612"
    },
    {
      "channel": 4,
      "note": 69,
      "start": 33.9482,
      "duration": 0.1229,
      "velocity": 101,
      "chip": "ym2612"
    },
    {
      "channel": 5,
      "note": 45,
      "start": 33.9507,
      "duration": 0.0873,
      "velocity": 122,
      "chip": "ym2612"
    },
    {
      "channel": 3,
      "note": 55,
      "start": 33.9532,
      "duration": 0.0847,
      "velocity": 121,
      "chip": "ym2612"
    },
    {
      "channel": 1,
      "note": 57,
      "start": 34.1404,
      "duration": 0.0973,
      "velocity": 99,
      "chip": "ym2612"
    },
    {
      "channel": 2,
      "note": 81,
      "start": 34.1435,
      "duration": 0.0947,
      "velocity": 126,
      "chip": "ym2612"
    },
    {
      "channel": 0,
      "note": 47,
      "start": 34.148,
      "duration": 0.023,
      "velocity": 124,
      "chip": "ym2612"
    },
    {
      "channel": 4,
      "note": 62,
      "start": 34.1515,
      "duration": 0.1197,
      "velocity": 101,
      "chip": "ym2612"
    },
    {
      "channel": 5,
      "note": 45,
      "start": 34.1541,
      "duration": 0.0839,
      "velocity": 122,
      "chip": "ym2612"
    },
    {
      "channel": 3,
      "note": 55,
      "start": 34.1568,
      "duration": 0.0811,
      "velocity": 121,
      "chip": "ym2612"
    },
    {
      "channel": 1,
      "note": 57,
      "start": 34.3405,
      "duration": 0.0973,
      "velocity": 99,
      "chip": "ym2612"
    },
    {
      "channel": 2,
      "note": 81,
      "start": 34.3432,
      "duration": 0.0951,
      "velocity": 126,
      "chip": "ym2612"
    },
    {
      "channel": 4,
      "note": 61,
      "start": 34.3481,
      "duration": 0.123,
      "velocity": 101,
      "chip": "ym2612"
    },
    {
      "channel": 5,
      "note": 45,
      "start": 34.3507,
      "duration": 0.0873,
      "velocity": 122,
      "chip": "ym2612"
    },
    {
      "channel": 3,
      "note": 55,
      "start": 34.3532,
      "duration": 0.0847,
      "velocity": 121,
      "chip": "ym2612"
    },
    {
      "channel": 1,
      "note": 57,
      "start": 34.5405,
      "duration": 0.1139,
      "velocity": 99,
      "chip": "ym2612"
    },
    {
      "channel": 2,
      "note": 81,
      "start": 34.5434,
      "duration": 0.1115,
      "velocity": 126,
      "chip": "ym2612"
    },
    {
      "channel": 4,
      "note": 67,
      "start": 34.5484,
      "duration": 0.1228,
      "velocity": 101,
      "chip": "ym2612"
    },
    {
      "channel": 5,
      "note": 45,
      "start": 34.5515,
      "duration": 0.1032,
      "velocity": 122,
      "chip": "ym2612"
    },
    {
      "channel": 3,
      "note": 55,
      "start": 34.5541,
      "duration": 0.1004,
      "velocity": 121,
      "chip": "ym2612"
    },
    {
      "channel": 1,
      "note": 57,
      "start": 34.7406,
      "duration": 0.1305,
      "velocity": 99,
      "chip": "ym2612"
    },
    {
      "channel": 2,
      "note": 81,
      "start": 34.7435,
      "duration": 0.1282,
      "velocity": 126,
      "chip": "ym2612"
    },
    {
      "channel": 4,
      "note": 57,
      "start": 34.7484,
      "duration": 0.123,
      "velocity": 101,
      "chip": "ym2612"
    },
    {
      "channel": 5,
      "note": 45,
      "start": 34.7512,
      "duration": 0.1204,
      "velocity": 122,
      "chip": "ym2612"
    },
    {
      "channel": 3,
      "note": 55,
      "start": 34.7544,
      "duration": 0.1169,
      "velocity": 121,
      "chip": "ym2612"
    },
    {
      "channel": 1,
      "note": 57,
      "start": 34.941,
      "duration": 0.0802,
      "velocity": 99,
      "chip": "ym2612"
    },
    {
      "channel": 2,
      "note": 81,
      "start": 34.9439,
      "duration": 0.0778,
      "velocity": 126,
      "chip": "ym2612"
    },
    {
      "channel": 0,
      "note": 47,
      "start": 34.9485,
      "duration": 0.0223,
      "velocity": 124,
      "chip": "ym2612"
    },
    {
      "channel": 4,
      "note": 64,
      "start": 34.9522,
      "duration": 0.1191,
      "velocity": 101,
      "chip": "ym2612"
    },
    {
      "channel": 5,
      "note": 45,
      "start": 34.9551,
      "duration": 0.0664,
      "velocity": 122,
      "chip": "ym2612"
    },
    {
      "channel": 3,
      "note": 55,
      "start": 34.9578,
      "duration": 0.0635,
      "velocity": 121,
      "chip": "ym2612"
    },
    {
      "channel": 1,
      "note": 57,
      "start": 35.1407,
      "duration": 0.1136,
      "velocity": 99,
      "chip": "ym2612"
    },
    {
      "channel": 2,
      "note": 81,
      "start": 35.1435,
      "duration": 0.1113,
      "velocity": 126,
      "chip": "ym2612"
    },
    {
      "channel": 4,
      "note": 63,
      "start": 35.1485,
      "duration": 0.1394,
      "velocity": 101,
      "chip": "ym2612"
    },
    {
      "channel": 5,
      "note": 45,
      "start": 35.1512,
      "duration": 0.1034,
      "velocity": 122,
      "chip": "ym2612"
    },
    {
      "channel": 3,
      "note": 55,
      "start": 35.1539,
      "duration": 0.1006,
      "velocity": 121,
      "chip": "ym2612"
    },
    {
      "channel": 1,
      "note": 54,
      "start": 35.3576,
      "duration": 0.1467,
      "velocity": 99,
      "chip": "ym2612"
    },
    {
      "channel": 2,
      "note": 78,
      "start": 35.3628,
      "duration": 0.1421,
      "velocity": 126,
      "chip": "ym2612"
    },
    {
      "channel": 4,
      "note": 54,
      "start": 35.366,
      "duration": 0.1218,
      "velocity": 101,
      "chip": "ym2612"
    },
    {
      "channel": 5,
      "note": 45,
      "start": 35.3688,
      "duration": 0.1359,
      "velocity": 122,
      "chip": "ym2612"
    },
    {
      "channel": 3,
      "note": 55,
      "start": 35.372,
      "duration": 0.1326,
      "velocity": 121,
      "chip": "ym2612"
    },
    {
      "channel": 0,
      "note": 47,
      "start": 35.5574,
      "duration": 0.0302,
      "velocity": 124,
      "chip": "ym2612"
    },
    {
      "channel": 4,
      "note": 76,
      "start": 35.5636,
      "duration": 0.1908,
      "velocity": 101,
      "chip": "ym2612"
    },
    {
      "channel": 4,
      "note": 75,
      "start": 35.7595,
      "duration": 0.1949,
      "velocity": 101,
      "chip": "ym2612"
    },
    {
      "channel": 4,
      "note": 73,
      "start": 35.9585,
      "duration": 0.1794,
      "velocity": 101,
      "chip": "ym2612"
    },
    {
      "channel": 0,
      "note": 47,
      "start": 36.1575,
      "duration": 0.0303,
      "velocity": 124,
      "chip": "ym2612"
    },
    {
      "channel": 4,
      "note": 76,
      "start": 36.164,
      "duration": 0.3405,
      "velocity": 101,
      "chip": "ym2612"
    },
    {
      "channel": 5,
      "note": 45,
      "start": 36.3583,
      "duration": 0.0961,
      "velocity": 122,
      "chip": "ym2612"
    },
    {
      "channel": 4,
      "note": 66,
      "start": 36.5589,
      "duration": 0.1957,
      "velocity": 101,
      "chip": "ym2612"
    },
    {
      "channel": 0,
      "note": 47,
      "start": 36.7577,
      "duration": 0.0301,
      "velocity": 124,
      "chip": "ym2612"
    },
    {
      "channel": 5,
      "note": 45,
      "start": 36.7637,
      "duration": 0.091,
      "velocity": 122,
      "chip": "ym2612"
    },
    {
      "channel": 4,
      "note": 72,
      "start": 36.7664,
      "duration": 0.1882,
      "velocity": 101,
      "chip": "ym2612"
    },
    {
      "channel": 5,
      "note": 45,
      "start": 36.9585,
      "duration": 0.096,
      "velocity": 122,
      "chip": "ym2612"
    },
    {
      "channel": 4,
      "note": 73,
      "start": 36.9634,
      "duration": 0.1744,
      "velocity": 101,
      "chip": "ym2612"
    },
    {
      "channel": 5,
      "note": 45,
      "start": 37.1582,
      "duration": 0.113,
      "velocity": 122,
      "chip": "ym2612"
    },
    {
      "channel": 4,
      "note": 76,
      "start": 37.1631,
      "duration": 0.1913,
      "velocity": 101,
      "chip": "ym2612"
    },
    {
      "channel": 4,
      "note": 78,
      "start": 37.3583,
      "duration": 0.1795,
      "velocity": 101,
      "chip": "ym2612"
    },
    {
      "channel": 0,
      "note": 47,
      "start": 37.5576,
      "duration": 0.0302,
      "velocity": 124,
      "chip": "ym2612"
    },
    {
      "channel": 4,
      "note": 83,
      "start": 37.5639,
      "duration": 0.3739,
      "velocity": 101,
      "chip": "ym2612"
    },
    {
      "channel": 5,
      "note": 45,
      "start": 37.7583,
      "duration": 0.0629,
      "velocity": 122,
      "chip": "ym2612"
    },
    {
      "channel": 5,
      "note": 45,
      "start": 37.9582,
      "duration": 0.063,
      "velocity": 122,
      "chip": "ym2612"
    },
    {
      "channel": 4,
      "note": 81,
      "start": 37.9632,
      "duration": 0.258,
      "velocity": 101,
      "chip": "ym2612"
    },
    {
      "channel": 0,
      "note": 47,
      "start": 38.158,
      "duration": 0.0295,
      "velocity": 124,
      "chip": "ym2612"
    },
    {
      "channel": 1,
      "note": 78,
      "start": 38.1648,
      "duration": 0.3896,
      "velocity": 101,
      "chip": "ym2612"
    },
    {
      "channel": 3,
      "note": 57,
      "start": 38.5578,
      "duration": 0.0968,
      "velocity": 99,
      "chip": "ym2612"
    },
    {
      "channel": 2,
      "note": 81,
      "start": 38.5632,
      "duration": 0.0916,
      "velocity": 126,
      "chip": "ym2612"
    },
    {
      "channel": 5,
      "note": 57,
      "start": 38.5664,
      "duration": 0.1214,
      "velocity": 101,
      "chip": "ym2612"
    },
    {
      "channel": 0,
      "note": 45,
      "start": 38.5693,
      "duration": 0.0849,
      "velocity": 122,
      "chip": "ym2612"
    },
    {
      "channel": 4,
      "note": 55,
      "start": 38.5725,
      "duration": 0.0821,
      "velocity": 121,
      "chip": "ym2612"
    },
    {
      "channel": 3,
      "note": 57,
      "start": 38.7571,
      "duration": 0.0974,
      "velocity": 99,
      "chip": "ym2612"
    },
    {
      "channel": 2,
      "note": 81,
      "start": 38.7598,
      "duration": 0.095,
      "velocity": 126,
      "chip": "ym2612"
    },
    {
      "channel": 5,
      "note": 69,
      "start": 38.7648,
      "duration": 0.123,
      "velocity": 101,
      "chip": "ym2612"
    },
    {
      "channel": 0,
      "note": 45,
      "start": 38.7673,
      "duration": 0.087,
      "velocity": 122,
      "chip": "ym2612"
    },
    {
      "channel": 4,
      "note": 55,
      "start": 38.7697,
      "duration": 0.0849,
      "velocity": 121,
      "chip": "ym2612"
    },
    {
      "channel": 3,
      "note": 57,
      "start": 38.9571,
      "duration": 0.0974,
      "velocity": 99,
      "chip": "ym2612"
    },
    {
      "channel": 2,
      "note": 81,
      "start": 38.9598,
      "duration": 0.095,
      "velocity": 126,
      "chip": "ym2612"
    },
    {
      "channel": 1,
      "note": 47,
      "start": 38.9647,
      "duration": 0.0231,
      "velocity": 124,
      "chip": "ym2612"
    },
    {
      "channel": 5,
      "note": 62,
      "start": 38.9682,
      "duration": 0.1197,
      "velocity": 101,
      "chip": "ym2612"
    },
    {
      "channel": 0,
      "note": 45,
      "start": 38.9706,
      "duration": 0.0836,
      "velocity": 122,
      "chip": "ym2612"
    },
    {
      "channel": 4,
      "note": 55,
      "start": 38.9733,
      "duration": 0.0814,
      "velocity": 121,
      "chip": "ym2612"
    },
    {
      "channel": 3,
      "note": 57,
      "start": 39.1572,
      "duration": 0.0973,
      "velocity": 99,
      "chip": "ym2612"
    },
    {
      "channel": 2,
      "note": 81,
      "start": 39.1599,
      "duration": 0.0951,
      "velocity": 126,
      "chip": "ym2612"
    },
    {
      "channel": 5,
      "note": 60,
      "start": 39.1649,
      "duration": 0.1229,
      "velocity": 101,
      "chip": "ym2612"
    },
    {
      "channel": 0,
      "note": 45,
      "start": 39.1673,
      "duration": 0.087,
      "velocity": 122,
      "chip": "ym2612"
    },
    {
      "channel": 4,
      "note": 55,
      "start": 39.1699,
      "duration": 0.0849,
      "velocity": 121,
      "chip": "ym2612"
    },
    {
      "channel": 3,
      "note": 57,
      "start": 39.3571,
      "duration": 0.114,
      "velocity": 99,
      "chip": "ym2612"
    },
    {
      "channel": 2,
      "note": 81,
      "start": 39.3598,
      "duration": 0.1116,
      "velocity": 126,
      "chip": "ym2612"
    },
    {
      "channel": 5,
      "note": 67,
      "start": 39.3652,
      "duration": 0.1393,
      "velocity": 101,
      "chip": "ym2612"
    },
    {
      "channel": 0,
      "note": 45,
      "start": 39.3676,
      "duration": 0.1032,
      "velocity": 122,
      "chip": "ym2612"
    },
    {
      "channel": 4,
      "note": 55,
      "start": 39.3706,
      "duration": 0.1006,
      "velocity": 121,
      "chip": "ym2612"
    },
    {
      "channel": 3,
      "note": 57,
      "start": 39.5739,
      "duration": 0.0974,
      "velocity": 99,
      "chip": "ym2612"
    },
    {
      "channel": 2,
      "note": 81,
      "start": 39.5765,
      "duration": 0.0951,
      "velocity": 126,
      "chip": "ym2612"
    },
    {
      "channel": 5,
      "note": 57,
      "start": 39.5816,
      "duration": 0.1229,
      "velocity": 101,
      "chip": "ym2612"
    },
    {
      "channel": 0,
      "note": 45,
      "start": 39.5844,
      "duration": 0.0867,
      "velocity": 122,
      "chip": "ym2612"
    },
    {
      "channel": 4,
      "note": 55,
      "start": 39.5869,
      "duration": 0.0845,
      "velocity": 121,
      "chip": "ym2612"
    },
    {
      "channel": 3,
      "note": 57,
      "start": 39.7738,
      "duration": 0.0975,
      "velocity": 99,
      "chip": "ym2612"
    },
    {
      "channel": 2,
      "note": 81,
      "start": 39.7765,
      "duration": 0.0951,
      "velocity": 126,
      "chip": "ym2612"
    },
    {
      "channel": 1,
      "note": 47,
      "start": 39.7811,
      "duration": 0.0234,
      "velocity": 124,
      "chip": "ym2612"
    },
    {
      "channel": 5,
      "note": 63,
      "start": 39.7847,
      "duration": 0.1198,
      "velocity": 101,
      "chip": "ym2612"
    },
    {
      "channel": 0,
      "note": 45,
      "start": 39.787,
      "duration": 0.0841,
      "velocity": 122,
      "chip": "ym2612"
    },
    {
      "channel": 4,
      "note": 55,
      "start": 39.7898,
      "duration": 0.0817,
      "velocity": 121,
      "chip": "ym2612"
    },
    {
      "channel": 3,
      "note": 57,
      "start": 39.9743,
      "duration": 0.0968,
      "velocity": 99,
      "chip": "ym2612"
    },
    {
      "channel": 2,
      "note": 81,
      "start": 39.9771,
      "duration": 0.0944,
      "velocity": 126,
      "chip": "ym2612"
    },
    {
      "channel": 5,
      "note": 62,
      "start": 39.9821,
      "duration": 0.1224,
      "velocity": 101,
      "chip": "ym2612"
    },
    {
      "channel": 0,
      "note": 45,
      "start": 39.9844,
      "duration": 0.0864,
      "velocity": 122,
      "chip": "ym2612"
    },
    {
      "channel": 4,
      "note": 55,
      "start": 39.987,
      "duration": 0.0843,
      "velocity": 121,
      "chip": "ym2612"
    },
    {
      "channel": 3,
      "note": 57,
      "start": 40.1739,
      "duration": 0.0973,
      "velocity": 99,
      "chip": "ym2612"
    },
    {
      "channel": 2,
      "note": 81,
      "start": 40.1765,
      "duration": 0.0949,
      "velocity": 126,
      "chip": "ym2612"
    },
    {
      "channel": 5,
      "note": 57,
      "start": 40.1816,
      "duration": 0.123,
      "velocity": 101,
      "chip": "ym2612"
    },
    {
      "channel": 0,
      "note": 45,
      "start": 40.1839,
      "duration": 0.0869,
      "velocity": 122,
      "chip": "ym2612"
    },
    {
      "channel": 4,
      "note": 55,
      "start": 40.1865,
      "duration": 0.0848,
      "velocity": 121,
      "chip": "ym2612"
    },
    {
      "channel": 3,
      "note": 57,
      "start": 40.3739,
      "duration": 0.0973,
      "velocity": 99,
      "chip": "ym2612"
    },
    {
      "channel": 2,
      "note": 81,
      "start": 40.3765,
      "duration": 0.0949,
      "velocity": 126,
      "chip": "ym2612"
    },
    {
      "channel": 5,
      "note": 69,
      "start": 40.3816,
      "duration": 0.123,
      "velocity": 101,
      "chip": "ym2612"
    },
    {
      "channel": 0,
      "note": 45,
      "start": 40.3839,
      "duration": 0.0869,
      "velocity": 122,
      "chip": "ym2612"
    },
    {
      "channel": 4,
      "note": 55,
      "start": 40.3865,
      "duration": 0.0848,
      "velocity": 121,
      "chip": "ym2612"
    },
    {
      "channel": 3,
      "note": 57,
      "start": 40.5738,
      "duration": 0.0975,
      "velocity": 99,
      "chip": "ym2612"
    },
    {
      "channel": 2,
      "note": 81,
      "start": 40.5765,
      "duration": 0.0951,
      "velocity": 126,
      "chip": "ym2612"
    },
    {
      "channel": 1,
      "note": 47,
      "start": 40.5812,
      "duration": 0.0232,
      "velocity": 124,
      "chip": "ym2612"
    },
    {
      "channel": 5,
      "note": 62,
      "start": 40.5847,
      "duration": 0.1198,
      "velocity": 101,
      "chip": "ym2612"
    },
    {
      "channel": 0,
      "note": 45,
      "start": 40.5871,
      "duration": 0.084,
      "velocity": 122,
      "chip": "ym2612"
    },
    {
      "channel": 4,
      "note": 55,
      "start": 40.5898,
      "duration": 0.0817,
      "velocity": 121,
      "chip": "ym2612"
    },
    {
      "channel": 3,
      "note": 57,
      "start": 40.7739,
      "duration": 0.0973,
      "velocity": 99,
      "chip": "ym2612"
    },
    {
      "channel": 2,
      "note": 81,
      "start": 40.7765,
      "duration": 0.095,
      "velocity": 126,
      "chip": "ym2612"
    },
    {
      "channel": 5,
      "note": 60,
      "start": 40.7816,
      "duration": 0.123,
      "velocity": 101,
      "chip": "ym2612"
    },
    {
      "channel": 0,
      "note": 45,
      "start": 40.7839,
      "duration": 0.087,
      "velocity": 122,
      "chip": "ym2612"
    },
    {
      "channel": 4,
      "note": 55,
      "start": 40.7865,
      "duration": 0.0849,
      "velocity": 121,
      "chip": "ym2612"
    },
    {
      "channel": 3,
      "note": 57,
      "start": 40.9739,
      "duration": 0.0973,
      "velocity": 99,
      "chip": "ym2612"
    },
    {
      "channel": 2,
      "note": 81,
      "start": 40.9766,
      "duration": 0.0949,
      "velocity": 126,
      "chip": "ym2612"
    },
    {
      "channel": 5,
      "note": 67,
      "start": 40.9816,
      "duration": 0.1229,
      "velocity": 101,
      "chip": "ym2612"
    },
    {
      "channel": 0,
      "note": 45,
      "start": 40.984,
      "duration": 0.0869,
      "velocity": 122,
      "chip": "ym2612"
    },
    {
      "channel": 4,
      "note": 55,
      "start": 40.9865,
      "duration": 0.0848,
      "velocity": 121,
      "chip": "ym2612"
    },
    {
      "channel": 3,
      "note": 57,
      "start": 41.1739,
      "duration": 0.0973,
      "velocity": 99,
      "chip": "ym2612"
    },
    {
      "channel": 2,
      "note": 81,
      "start": 41.1766,
      "duration": 0.0949,
      "velocity": 126,
      "chip": "ym2612"
    },
    {
      "channel": 5,
      "note": 57,
      "start": 41.1816,
      "duration": 0.123,
      "velocity": 101,
      "chip": "ym2612"
    },
    {
      "channel": 0,
      "note": 45,
      "start": 41.184,
      "duration": 0.0869,
      "velocity": 122,
      "chip": "ym2612"
    },
    {
      "channel": 4,
      "note": 55,
      "start": 41.1865,
      "duration": 0.0848,
      "velocity": 121,
      "chip": "ym2612"
    },
    {
      "channel": 3,
      "note": 57,
      "start": 41.3741,
      "duration": 0.1306,
      "velocity": 99,
      "chip": "ym2612"
    },
    {
      "channel": 2,
      "note": 81,
      "start": 41.3768,
      "duration": 0.1282,
      "velocity": 126,
      "chip": "ym2612"
    },
    {
      "channel": 1,
      "note": 47,
      "start": 41.3817,
      "duration": 0.0228,
      "velocity": 124,
      "chip": "ym2612"
    },
    {
      "channel": 5,
      "note": 64,
      "start": 41.3853,
      "duration": 0.1196,
      "velocity": 101,
      "chip": "ym2612"
    },
    {
      "channel": 0,
      "note": 45,
      "start": 41.388,
      "duration": 0.1164,
      "velocity": 122,
      "chip": "ym2612"
    },
    {
      "channel": 4,
      "note": 55,
      "start": 41.3908,
      "duration": 0.114,
      "velocity": 121,
      "chip": "ym2612"
    },
    {
      "channel": 3,
      "note": 57,
      "start": 41.574,
      "duration": 0.1639,
      "velocity": 99,
      "chip": "ym2612"
    },
    {
      "channel": 2,
      "note": 81,
      "start": 41.5793,
      "duration": 0.1589,
      "velocity": 126,
      "chip": "ym2612"
    },
    {
      "channel": 5,
      "note": 62,
      "start": 41.5823,
      "duration": 0.1222,
      "velocity": 101,
      "chip": "ym2612"
    },
    {
      "channel": 0,
      "note": 45,
      "start": 41.5848,
      "duration": 0.1529,
      "velocity": 122,
      "chip": "ym2612"
    },
    {
      "channel": 4,
      "note": 55,
      "start": 41.5876,
      "duration": 0.1505,
      "velocity": 121,
      "chip": "ym2612"
    },
    {
      "channel": 3,
      "note": 59,
      "start": 41.7739,
      "duration": 0.1139,
      "velocity": 99,
      "chip": "ym2612"
    },
    {
      "channel": 2,
      "note": 83,
      "start": 41.7768,
      "duration": 0.1113,
      "velocity": 126,
      "chip": "ym2612"
    },
    {
      "channel": 5,
      "note": 59,
      "start": 41.7818,
      "duration": 0.1227,
      "velocity": 101,
      "chip": "ym2612"
    },
    {
      "channel": 0,
      "note": 45,
      "start": 41.7845,
      "duration": 0.1363,
      "velocity": 122,
      "chip": "ym2612"
    },
    {
      "channel": 4,
      "note": 55,
      "start": 41.7872,
      "duration": 0.1007,
      "velocity": 121,
      "chip": "ym2612"
    },
    {
      "channel": 3,
      "note": 59,
      "start": 41.9741,
      "duration": 0.097,
      "velocity": 99,
      "chip": "ym2612"
    },
    {
      "channel": 2,
      "note": 83,
      "start": 41.9768,
      "duration": 0.0946,
      "velocity": 126,
      "chip": "ym2612"
    },
    {
      "channel": 1,
      "note": 47,
      "start": 41.9815,
      "duration": 0.023,
      "velocity": 124,
      "chip": "ym2612"
    },
    {
      "channel": 5,
      "note": 59,
      "start": 41.9851,
      "duration": 0.1195,
      "velocity": 101,
      "chip": "ym2612"
    },
    {
      "channel": 4,
      "note": 55,
      "start": 41.9884,
      "duration": 0.0828,
      "velocity": 121,
      "chip": "ym2612"
    },
    {
      "channel": 3,
      "note": 59,
      "start": 42.1739,
      "duration": 0.0972,
      "velocity": 99,
      "chip": "ym2612"
    },
    {
      "channel": 2,
      "note": 83,
      "start": 42.1765,
      "duration": 0.0949,
      "velocity": 126,
      "chip": "ym2612"
    },
    {
      "channel": 5,
      "note": 59,
      "start": 42.1816,
      "duration": 0.1229,
      "velocity": 101,
      "chip": "ym2612"
    },
    {
      "channel": 4,
      "note": 55,
      "start": 42.1842,
      "duration": 0.087,
      "velocity": 121,
      "chip": "ym2612"
    },
    {
      "channel": 3,
      "note": 59,
      "start": 42.3742,
      "duration": 0.0968,
      "velocity": 99,
      "chip": "ym2612"
    },
    {
      "channel": 2,
      "note": 83,
      "start": 42.3768,
      "duration": 0.0945,
      "velocity": 126,
      "chip": "ym2612"
    },
    {
      "channel": 5,
      "note": 59,
      "start": 42.3819,
      "duration": 0.1227,
      "velocity": 101,
      "chip": "ym2612"
    },
    {
      "channel": 4,
      "note": 55,
      "start": 42.3846,
      "duration": 0.0866,
      "velocity": 121,
      "chip": "ym2612"
    },
    {
      "channel": 3,
      "note": 59,
      "start": 42.5739,
      "duration": 0.0973,
      "velocity": 99,
      "chip": "ym2612"
    },
    {
      "channel": 2,
      "note": 83,
      "start": 42.5765,
      "duration": 0.095,
      "velocity": 126,
      "chip": "ym2612"
    },
    {
      "channel": 1,
      "note": 47,
      "start": 42.5812,
      "duration": 0.0232,
      "velocity": 124,
      "chip": "ym2612"
    },
    {
      "channel": 5,
      "note": 59,
      "start": 42.5851,
      "duration": 0.1195,
      "velocity": 101,
      "chip": "ym2612"
    },
    {
      "channel": 4,
      "note": 55,
      "start": 42.5879,
      "duration": 0.0834,
      "velocity": 121,
      "chip": "ym2612"
    },
    {
      "channel": 3,
      "note": 59,
      "start": 42.7739,
      "duration": 0.0972,
      "velocity": 99,
      "chip": "ym2612"
    },
    {
      "channel": 2,
      "note": 83,
      "start": 42.7765,
      "duration": 0.0949,
      "velocity": 126,
      "chip": "ym2612"
    },
    {
      "channel": 5,
      "note": 59,
      "start": 42.7816,
      "duration": 0.123,
      "velocity": 101,
      "chip": "ym2612"
    },
    {
      "channel": 4,
      "note": 55,
      "start": 42.7842,
      "duration": 0.087,
      "velocity": 121,
      "chip": "ym2612"
    },
    {
      "channel": 0,
      "note": 45,
      "start": 42.7919,
      "duration": 0.0958,
      "velocity": 122,
      "chip": "ym2612"
    },
    {
      "channel": 3,
      "note": 59,
      "start": 42.9739,
      "duration": 0.0971,
      "velocity": 99,
      "chip": "ym2612"
    },
    {
      "channel": 2,
      "note": 83,
      "start": 42.9766,
      "duration": 0.0948,
      "velocity": 126,
      "chip": "ym2612"
    },
    {
      "channel": 5,
      "note": 59,
      "start": 42.9816,
      "duration": 0.123,
      "velocity": 101,
      "chip": "ym2612"
    },
    {
      "channel": 4,
      "note": 55,
      "start": 42.9843,
      "duration": 0.0869,
      "velocity": 121,
      "chip": "ym2612"
    },
    {
      "channel": 3,
      "note": 59,
      "start": 43.1739,
      "duration": 0.0974,
      "velocity": 99,
      "chip": "ym2612"
    },
    {
      "channel": 2,
      "note": 83,
      "start": 43.1766,
      "duration": 0.095,
      "velocity": 126,
      "chip": "ym2612"
    },
    {
      "channel": 1,
      "note": 47,
      "start": 43.1814,
      "duration": 0.0231,
      "velocity": 124,
      "chip": "ym2612"
    },
    {
      "channel": 5,
      "note": 59,
      "start": 43.1851,
      "duration": 0.1195,
      "velocity": 101,
      "chip": "ym2612"
    },
    {
      "channel": 0,
      "note": 45,
      "start": 43.1877,
      "duration": 0.0833,
      "velocity": 122,
      "chip": "ym2612"
    },
    {
      "channel": 4,
      "note": 55,
      "start": 43.1903,
      "duration": 0.081,
      "velocity": 121,
      "chip": "ym2612"
    },
    {
      "channel": 3,
      "note": 59,
      "start": 43.3739,
      "duration": 0.0972,
      "velocity": 99,
      "chip": "ym2612"
    },
    {
      "channel": 2,
      "note": 83,
      "start": 43.3766,
      "duration": 0.0949,
      "velocity": 126,
      "chip": "ym2612"
    },
    {
      "channel": 5,
      "note": 59,
      "start": 43.3816,
      "duration": 0.1229,
      "velocity": 101,
      "chip": "ym2612"
    },
    {
      "channel": 0,
      "note": 45,
      "start": 43.384,
      "duration": 0.0868,
      "velocity": 122,
      "chip": "ym2612"
    },
    {
      "channel": 4,
      "note": 55,
      "start": 43.3865,
      "duration": 0.0847,
      "velocity": 121,
      "chip": "ym2612"
    },
    {
      "channel": 3,
      "note": 59,
      "start": 43.5739,
      "duration": 0.0972,
      "velocity": 99,
      "chip": "ym2612"
    },
    {
      "channel": 2,
      "note": 83,
      "start": 43.5765,
      "duration": 0.0949,
      "velocity": 126,
      "chip": "ym2612"
    },
    {
      "channel": 5,
      "note": 59,
      "start": 43.5816,
      "duration": 0.123,
      "velocity": 101,
      "chip": "ym2612"
    },
    {
      "channel": 0,
      "note": 45,
      "start": 43.5842,
      "duration": 0.1199,
      "velocity": 122,
      "chip": "ym2612"
    },
    {
      "channel": 4,
      "note": 55,
      "start": 43.5868,
      "duration": 0.0844,
      "velocity": 121,
      "chip": "ym2612"
    },
    {
      "channel": 3,
      "note": 59,
      "start": 43.7905,
      "duration": 0.0973,
      "velocity": 99,
      "chip": "ym2612"
    },
    {
      "channel": 2,
      "note": 83,
      "start": 43.7932,
      "duration": 0.0949,
      "velocity": 126,
      "chip": "ym2612"
    },
    {
      "channel": 5,
      "note": 59,
      "start": 43.7982,
      "duration": 0.123,
      "velocity": 101,
      "chip": "ym2612"
    },
    {
      "channel": 4,
      "note": 55,
      "start": 43.8009,
      "duration": 0.087,
      "velocity": 121,
      "chip": "ym2612"
    },
    {
      "channel": 3,
      "note": 59,
      "start": 43.9905,
      "duration": 0.0973,
      "velocity": 99,
      "chip": "ym2612"
    },
    {
      "channel": 2,
      "note": 83,
      "start": 43.9932,
      "duration": 0.0949,
      "velocity": 126,
      "chip": "ym2612"
    },
    {
      "channel": 1,
      "note": 47,
      "start": 43.998,
      "duration": 0.0231,
      "velocity": 124,
      "chip": "ym2612"
    },
    {
      "channel": 5,
      "note": 59,
      "start": 44.0017,
      "duration": 0.1196,
      "velocity": 101,
      "chip": "ym2612"
    },
    {
      "channel": 4,
      "note": 55,
      "start": 44.0046,
      "duration": 0.0833,
      "velocity": 121,
      "chip": "ym2612"
    },
    {
      "channel": 3,
      "note": 56,
      "start": 44.1909,
      "duration": 0.1969,
      "velocity": 99,
      "chip": "ym2612"
    },
    {
      "channel": 2,
      "note": 80,
      "start": 44.1963,
      "duration": 0.1918,
      "velocity": 126,
      "chip": "ym2612"
    },
    {
      "channel": 5,
      "note": 56,
      "start": 44.1996,
      "duration": 0.1884,
      "velocity": 101,
      "chip": "ym2612"
    },
    {
      "channel": 0,
      "note": 45,
      "start": 44.2022,
      "duration": 0.102,
      "velocity": 122,
      "chip": "ym2612"
    },
    {
      "channel": 0,
      "note": 45,
      "start": 44.3917,
      "duration": 0.0958,
      "velocity": 122,
      "chip": "ym2612"
    },
    {
      "channel": 3,
      "note": 56,
      "start": 44.5907,
      "duration": 0.3137,
      "velocity": 99,
      "chip": "ym2612"
    },
    {
      "channel": 2,
      "note": 80,
      "start": 44.5935,
      "duration": 0.3111,
      "velocity": 126,
      "chip": "ym2612"
    },
    {
      "channel": 1,
      "note": 47,
      "start": 44.5984,
      "duration": 0.0228,
      "velocity": 124,
      "chip": "ym2612"
    },
    {
      "channel": 5,
      "note": 56,
      "start": 44.6022,
      "duration": 0.2357,
      "velocity": 101,
      "chip": "ym2612"
    },
    {
      "channel": 5,
      "note": 37,
      "start": 45.0009,
      "duration": 0.087,
      "velocity": 101,
      "chip": "ym2612"
    },
    {
      "channel": 0,
      "note": 45,
      "start": 45.0054,
      "duration": 0.2656,
      "velocity": 122,
      "chip": "ym2612"
    },
    {
      "channel": 5,
      "note": 37,
      "start": 45.1912,
      "duration": 0.0967,
      "velocity": 101,
      "chip": "ym2612"
    },
    {
      "channel": 5,
      "note": 37,
      "start": 45.3912,
      "duration": 0.0966,
      "velocity": 101,
      "chip": "ym2612"
    },
    {
      "channel": 5,
      "note": 37,
      "start": 45.5912,
      "duration": 0.0967,
      "velocity": 101,
      "chip": "ym2612"
    },
    {
      "channel": 5,
      "note": 37,
      "start": 45.7912,
      "duration": 0.0967,
      "velocity": 101,
      "chip": "ym2612"
    },
    {
      "channel": 5,
      "note": 37,
      "start": 45.9912,
      "duration": 0.0967,
      "velocity": 101,
      "chip": "ym2612"
    },
    {
      "channel": 5,
      "note": 37,
      "start": 46.1912,
      "duration": 0.0966,
      "velocity": 101,
      "chip": "ym2612"
    },
    {
      "channel": 5,
      "note": 37,
      "start": 46.3912,
      "duration": 0.0966,
      "velocity": 101,
      "chip": "ym2612"
    },
    {
      "channel": 5,
      "note": 37,
      "start": 46.5912,
      "duration": 0.0967,
      "velocity": 101,
      "chip": "ym2612"
    },
    {
      "channel": 3,
      "note": 52,
      "start": 46.7908,
      "duration": 0.5303,
      "velocity": 99,
      "chip": "ym2612"
    },
    {
      "channel": 2,
      "note": 76,
      "start": 46.7938,
      "duration": 0.5107,
      "velocity": 126,
      "chip": "ym2612"
    },
    {
      "channel": 4,
      "note": 95,
      "start": 46.7989,
      "duration": 0.5223,
      "velocity": 76,
      "chip": "ym2612"
    },
    {
      "channel": 1,
      "note": 47,
      "start": 46.8017,
      "duration": 0.0194,
      "velocity": 124,
      "chip": "ym2612"
    },
    {
      "channel": 5,
      "note": 40,
      "start": 46.8059,
      "duration": 0.0821,
      "velocity": 101,
      "chip": "ym2612"
    },
    {
      "channel": 0,
      "note": 45,
      "start": 46.8085,
      "duration": 0.1624,
      "velocity": 122,
      "chip": "ym2612"
    },
    {
      "channel": 3,
      "note": 54,
      "start": 47.3909,
      "duration": 0.1136,
      "velocity": 99,
      "chip": "ym2612"
    },
    {
      "channel": 2,
      "note": 78,
      "start": 47.3939,
      "duration": 0.1442,
      "velocity": 126,
      "chip": "ym2612"
    },
    {
      "channel": 4,
      "note": 97,
      "start": 47.3989,
      "duration": 0.1391,
      "velocity": 76,
      "chip": "ym2612"
    },
    {
      "channel": 1,
      "note": 47,
      "start": 47.4015,
      "duration": 0.0197,
      "velocity": 124,
      "chip": "ym2612"
    },
    {
      "channel": 5,
      "note": 42,
      "start": 47.4059,
      "duration": 0.082,
      "velocity": 101,
      "chip": "ym2612"
    },
    {
      "channel": 0,
      "note": 45,
      "start": 47.4086,
      "duration": 0.129,
      "velocity": 122,
      "chip": "ym2612"
    },
    {
      "channel": 3,
      "note": 52,
      "start": 47.7906,
      "duration": 0.0973,
      "velocity": 99,
      "chip": "ym2612"
    },
    {
      "channel": 2,
      "note": 76,
      "start": 47.7935,
      "duration": 0.1278,
      "velocity": 126,
      "chip": "ym2612"
    },
    {
      "channel": 4,
      "note": 95,
      "start": 47.7982,
      "duration": 0.1397,
      "velocity": 76,
      "chip": "ym2612"
    },
    {
      "channel": 1,
      "note": 47,
      "start": 47.801,
      "duration": 0.0201,
      "velocity": 124,
      "chip": "ym2612"
    },
    {
      "channel": 5,
      "note": 40,
      "start": 47.8049,
      "duration": 0.0831,
      "velocity": 101,
      "chip": "ym2612"
    },
    {
      "channel": 0,
      "note": 45,
      "start": 47.8075,
      "duration": 0.1134,
      "velocity": 122,
      "chip": "ym2612"
    }
  ]
}