{
  "track_name": "02 - Title Theme",
  "duration_sec": 137.186,
  "sample_rate": 44100,
  "note_count": 2334,
  "unique_pitches": 48,
  "pitch_range": 61,
  "avg_note_duration": 0.2107,
  "reconstruction_stats": {
    "notes_reconstructed": 2334,
    "keyon_events": 2334,
    "keyoff_events": 2332,
    "orphan_keyons": 2,
    "unique_pitches": 48,
    "pitch_range": 61,
    "avg_duration_sec": 0.2107
  },
  "metadata": {
    "source": "D\\Dyna Brothers\\02 - Title Theme.vgz"
  },
  "notes": [
    {
      "channel": 1,
      "note": 66,
      "start": 0.0,
      "duration": 1.5329,
      "velocity": 107,
      "chip": "ym2612"
    },
    {
      "channel": 3,
      "note": 58,
      "start": 0.0049,
      "duration": 1.5282,
      "velocity": 107,
      "chip": "ym2612"
    },
    {
      "channel": 4,
      "note": 54,
      "start": 0.009,
      "duration": 0.731,
      "velocity": 91,
      "chip": "ym2612"
    },
    {
      "channel": 5,
      "note": 52,
      "start": 0.0127,
      "duration": 0.1247,
      "velocity": 117,
      "chip": "ym2612"
    },
    {
      "channel": 4,
      "note": 54,
      "start": 1.1378,
      "duration": 0.269,
      "velocity": 91,
      "chip": "ym2612"
    },
    {
      "channel": 5,
      "note": 52,
      "start": 1.1387,
      "duration": 0.1418,
      "velocity": 117,
      "chip": "ym2612"
    },
    {
      "channel": 4,
      "note": 58,
      "start": 1.5663,
      "duration": 0.1739,
      "velocity": 91,
      "chip": "ym2612"
    },
    {
      "channel": 4,
      "note": 49,
      "start": 1.8521,
      "duration": 0.0786,
      "velocity": 91,
      "chip": "ym2612"
    },
    {
      "channel": 4,
      "note": 51,
      "start": 1.995,
      "duration": 0.1739,
      "velocity": 91,
      "chip": "ym2612"
    },
    {
      "channel": 1,
      "note": 65,
      "start": 2.2798,
      "duration": 1.5231,
      "velocity": 107,
      "chip": "ym2612"
    },
    {
      "channel": 3,
      "note": 58,
      "start": 2.2808,
      "duration": 1.5224,
      "velocity": 107,
      "chip": "ym2612"
    },
    {
      "channel": 4,
      "note": 53,
      "start": 2.2817,
      "duration": 1.1254,
      "velocity": 91,
      "chip": "ym2612"
    },
    {
      "channel": 5,
      "note": 52,
      "start": 2.2826,
      "duration": 0.1409,
      "velocity": 117,
      "chip": "ym2612"
    },
    {
      "channel": 5,
      "note": 52,
      "start": 3.4242,
      "duration": 0.1423,
      "velocity": 117,
      "chip": "ym2612"
    },
    {
      "channel": 4,
      "note": 53,
      "start": 3.9953,
      "duration": 0.3485,
      "velocity": 91,
      "chip": "ym2612"
    },
    {
      "channel": 1,
      "note": 64,
      "start": 4.566,
      "duration": 1.523,
      "velocity": 107,
      "chip": "ym2612"
    },
    {
      "channel": 3,
      "note": 58,
      "start": 4.5669,
      "duration": 1.5223,
      "velocity": 107,
      "chip": "ym2612"
    },
    {
      "channel": 4,
      "note": 52,
      "start": 4.5679,
      "duration": 0.538,
      "velocity": 91,
      "chip": "ym2612"
    },
    {
      "channel": 5,
      "note": 52,
      "start": 4.5687,
      "duration": 0.1408,
      "velocity": 117,
      "chip": "ym2612"
    },
    {
      "channel": 4,
      "note": 52,
      "start": 5.4241,
      "duration": 0.1739,
      "velocity": 91,
      "chip": "ym2612"
    },
    {
      "channel": 4,
      "note": 52,
      "start": 5.7099,
      "duration": 0.539,
      "velocity": 91,
      "chip": "ym2612"
    },
    {
      "channel": 5,
      "note": 52,
      "start": 5.7107,
      "duration": 0.1419,
      "velocity": 117,
      "chip": "ym2612"
    },
    {
      "channel": 4,
      "note": 52,
      "start": 6.5671,
      "duration": 0.1738,
      "velocity": 91,
      "chip": "ym2612"
    },
    {
      "channel": 1,
      "note": 63,
      "start": 6.8524,
      "duration": 1.1416,
      "velocity": 107,
      "chip": "ym2612"
    },
    {
      "channel": 3,
      "note": 58,
      "start": 6.8534,
      "duration": 1.5223,
      "velocity": 107,
      "chip": "ym2612"
    },
    {
      "channel": 4,
      "note": 51,
      "start": 6.8543,
      "duration": 0.2042,
      "velocity": 91,
      "chip": "ym2612"
    },
    {
      "channel": 5,
      "note": 52,
      "start": 6.8552,
      "duration": 0.1404,
      "velocity": 117,
      "chip": "ym2612"
    },
    {
      "channel": 4,
      "note": 51,
      "start": 7.2815,
      "duration": 0.2692,
      "velocity": 91,
      "chip": "ym2612"
    },
    {
      "channel": 4,
      "note": 54,
      "start": 7.7101,
      "duration": 0.174,
      "velocity": 91,
      "chip": "ym2612"
    },
    {
      "channel": 5,
      "note": 52,
      "start": 7.711,
      "duration": 0.1419,
      "velocity": 117,
      "chip": "ym2612"
    },
    {
      "channel": 4,
      "note": 58,
      "start": 7.9955,
      "duration": 0.3489,
      "velocity": 91,
      "chip": "ym2612"
    },
    {
      "channel": 5,
      "note": 43,
      "start": 7.9992,
      "duration": 0.1394,
      "velocity": 127,
      "chip": "ym2612"
    },
    {
      "channel": 0,
      "note": 70,
      "start": 8.5662,
      "duration": 0.5712,
      "velocity": 105,
      "chip": "ym2612"
    },
    {
      "channel": 1,
      "note": 61,
      "start": 8.5672,
      "duration": 0.094,
      "velocity": 107,
      "chip": "ym2612"
    },
    {
      "channel": 4,
      "note": 46,
      "start": 8.5686,
      "duration": 0.3481,
      "velocity": 91,
      "chip": "ym2612"
    },
    {
      "channel": 5,
      "note": 52,
      "start": 8.5723,
      "duration": 0.1422,
      "velocity": 122,
      "chip": "ym2612"
    },
    {
      "channel": 1,
      "note": 63,
      "start": 8.7104,
      "duration": 0.0937,
      "velocity": 107,
      "chip": "ym2612"
    },
    {
      "channel": 5,
      "note": 47,
      "start": 8.7151,
      "duration": 0.1427,
      "velocity": 122,
      "chip": "ym2612"
    },
    {
      "channel": 2,
      "note": 70,
      "start": 8.7578,
      "duration": 0.5712,
      "velocity": 105,
      "chip": "ym2612"
    },
    {
      "channel": 1,
      "note": 65,
      "start": 8.8532,
      "duration": 0.0938,
      "velocity": 107,
      "chip": "ym2612"
    },
    {
      "channel": 5,
      "note": 40,
      "start": 8.8583,
      "duration": 0.1423,
      "velocity": 117,
      "chip": "ym2612"
    },
    {
      "channel": 1,
      "note": 66,
      "start": 8.9961,
      "duration": 0.0937,
      "velocity": 107,
      "chip": "ym2612"
    },
    {
      "channel": 5,
      "note": 52,
      "start": 9.0012,
      "duration": 0.1405,
      "velocity": 117,
      "chip": "ym2612"
    },
    {
      "channel": 0,
      "note": 83,
      "start": 9.1382,
      "duration": 1.5069,
      "velocity": 105,
      "chip": "ym2612"
    },
    {
      "channel": 1,
      "note": 68,
      "start": 9.1391,
      "duration": 1.5224,
      "velocity": 107,
      "chip": "ym2612"
    },
    {
      "channel": 3,
      "note": 59,
      "start": 9.1405,
      "duration": 1.5216,
      "velocity": 107,
      "chip": "ym2612"
    },
    {
      "channel": 4,
      "note": 56,
      "start": 9.1414,
      "duration": 0.2674,
      "velocity": 91,
      "chip": "ym2612"
    },
    {
      "channel": 5,
      "note": 52,
      "start": 9.1423,
      "duration": 0.1401,
      "velocity": 117,
      "chip": "ym2612"
    },
    {
      "channel": 2,
      "note": 83,
      "start": 9.3296,
      "duration": 1.5069,
      "velocity": 105,
      "chip": "ym2612"
    },
    {
      "channel": 4,
      "note": 56,
      "start": 9.5684,
      "duration": 0.158,
      "velocity": 91,
      "chip": "ym2612"
    },
    {
      "channel": 5,
      "note": 55,
      "start": 9.572,
      "duration": 0.1391,
      "velocity": 115,
      "chip": "ym2612"
    },
    {
      "channel": 5,
      "note": 55,
      "start": 9.8574,
      "duration": 0.1399,
      "velocity": 115,
      "chip": "ym2612"
    },
    {
      "channel": 4,
      "note": 56,
      "start": 9.997,
      "duration": 0.0786,
      "velocity": 91,
      "chip": "ym2612"
    },
    {
      "channel": 4,
      "note": 56,
      "start": 10.1399,
      "duration": 0.7137,
      "velocity": 91,
      "chip": "ym2612"
    },
    {
      "channel": 5,
      "note": 52,
      "start": 10.2863,
      "duration": 0.1392,
      "velocity": 117,
      "chip": "ym2612"
    },
    {
      "channel": 4,
      "note": 56,
      "start": 10.8543,
      "duration": 0.1739,
      "velocity": 91,
      "chip": "ym2612"
    },
    {
      "channel": 5,
      "note": 55,
      "start": 10.8579,
      "duration": 0.139,
      "velocity": 115,
      "chip": "ym2612"
    },
    {
      "channel": 5,
      "note": 55,
      "start": 10.9975,
      "duration": 0.1427,
      "velocity": 115,
      "chip": "ym2612"
    },
    {
      "channel": 4,
      "note": 68,
      "start": 11.14,
      "duration": 0.0786,
      "velocity": 91,
      "chip": "ym2612"
    },
    {
      "channel": 4,
      "note": 56,
      "start": 11.2827,
      "duration": 0.0787,
      "velocity": 91,
      "chip": "ym2612"
    },
    {
      "channel": 1,
      "note": 67,
      "start": 11.424,
      "duration": 1.5231,
      "velocity": 107,
      "chip": "ym2612"
    },
    {
      "channel": 3,
      "note": 59,
      "start": 11.4254,
      "duration": 1.522,
      "velocity": 107,
      "chip": "ym2612"
    },
    {
      "channel": 4,
      "note": 55,
      "start": 11.4263,
      "duration": 0.2678,
      "velocity": 91,
      "chip": "ym2612"
    },
    {
      "channel": 5,
      "note": 52,
      "start": 11.43,
      "duration": 0.1381,
      "velocity": 117,
      "chip": "ym2612"
    },
    {
      "channel": 4,
      "note": 59,
      "start": 11.8536,
      "duration": 0.0785,
      "velocity": 91,
      "chip": "ym2612"
    },
    {
      "channel": 4,
      "note": 55,
      "start": 12.2822,
      "duration": 0.1739,
      "velocity": 91,
      "chip": "ym2612"
    },
    {
      "channel": 4,
      "note": 51,
      "start": 12.568,
      "duration": 0.3485,
      "velocity": 91,
      "chip": "ym2612"
    },
    {
      "channel": 5,
      "note": 52,
      "start": 12.5688,
      "duration": 0.1419,
      "velocity": 117,
      "chip": "ym2612"
    },
    {
      "channel": 4,
      "note": 47,
      "start": 13.1395,
      "duration": 0.1738,
      "velocity": 91,
      "chip": "ym2612"
    },
    {
      "channel": 5,
      "note": 55,
      "start": 13.1431,
      "duration": 0.1419,
      "velocity": 115,
      "chip": "ym2612"
    },
    {
      "channel": 5,
      "note": 55,
      "start": 13.2856,
      "duration": 0.1399,
      "velocity": 115,
      "chip": "ym2612"
    },
    {
      "channel": 4,
      "note": 55,
      "start": 13.4252,
      "duration": 0.1739,
      "velocity": 91,
      "chip": "ym2612"
    },
    {
      "channel": 5,
      "note": 55,
      "start": 13.5713,
      "duration": 0.1438,
      "velocity": 117,
      "chip": "ym2612"
    },
    {
      "channel": 1,
      "note": 66,
      "start": 13.7102,
      "duration": 1.142,
      "velocity": 107,
      "chip": "ym2612"
    },
    {
      "channel": 3,
      "note": 59,
      "start": 13.7111,
      "duration": 1.5226,
      "velocity": 107,
      "chip": "ym2612"
    },
    {
      "channel": 4,
      "note": 54,
      "start": 13.7121,
      "duration": 0.3474,
      "velocity": 91,
      "chip": "ym2612"
    },
    {
      "channel": 5,
      "note": 52,
      "start": 13.7157,
      "duration": 0.138,
      "velocity": 117,
      "chip": "ym2612"
    },
    {
      "channel": 4,
      "note": 54,
      "start": 14.2824,
      "duration": 0.3487,
      "velocity": 91,
      "chip": "ym2612"
    },
    {
      "channel": 5,
      "note": 55,
      "start": 14.2861,
      "duration": 0.1392,
      "velocity": 115,
      "chip": "ym2612"
    },
    {
      "channel": 4,
      "note": 54,
      "start": 14.8537,
      "duration": 0.2694,
      "velocity": 91,
      "chip": "ym2612"
    },
    {
      "channel": 5,
      "note": 52,
      "start": 14.8574,
      "duration": 0.1394,
      "velocity": 117,
      "chip": "ym2612"
    },
    {
      "channel": 4,
      "note": 54,
      "start": 15.2827,
      "duration": 0.0785,
      "velocity": 91,
      "chip": "ym2612"
    },
    {
      "channel": 5,
      "note": 55,
      "start": 15.2863,
      "duration": 0.1395,
      "velocity": 115,
      "chip": "ym2612"
    },
    {
      "channel": 1,
      "note": 68,
      "start": 15.4245,
      "duration": 0.1897,
      "velocity": 107,
      "chip": "ym2612"
    },
    {
      "channel": 1,
      "note": 66,
      "start": 15.7102,
      "duration": 0.1898,
      "velocity": 107,
      "chip": "ym2612"
    },
    {
      "channel": 4,
      "note": 63,
      "start": 15.7117,
      "duration": 0.1735,
      "velocity": 91,
      "chip": "ym2612"
    },
    {
      "channel": 5,
      "note": 55,
      "start": 15.7125,
      "duration": 0.1415,
      "velocity": 115,
      "chip": "ym2612"
    },
    {
      "channel": 0,
      "note": 77,
      "start": 15.9959,
      "duration": 0.1739,
      "velocity": 105,
      "chip": "ym2612"
    },
    {
      "channel": 1,
      "note": 65,
      "start": 15.9969,
      "duration": 0.7608,
      "velocity": 107,
      "chip": "ym2612"
    },
    {
      "channel": 3,
      "note": 56,
      "start": 15.9978,
      "duration": 1.5225,
      "velocity": 107,
      "chip": "ym2612"
    },
    {
      "channel": 4,
      "note": 53,
      "start": 15.9987,
      "duration": 0.1724,
      "velocity": 91,
      "chip": "ym2612"
    },
    {
      "channel": 5,
      "note": 52,
      "start": 16.0023,
      "duration": 0.1379,
      "velocity": 117,
      "chip": "ym2612"
    },
    {
      "channel": 2,
      "note": 77,
      "start": 16.1874,
      "duration": 0.1738,
      "velocity": 105,
      "chip": "ym2612"
    },
    {
      "channel": 0,
      "note": 80,
      "start": 16.2816,
      "duration": 0.1739,
      "velocity": 105,
      "chip": "ym2612"
    },
    {
      "channel": 4,
      "note": 53,
      "start": 16.284,
      "duration": 0.1733,
      "velocity": 91,
      "chip": "ym2612"
    },
    {
      "channel": 2,
      "note": 80,
      "start": 16.4731,
      "duration": 0.1739,
      "velocity": 105,
      "chip": "ym2612"
    },
    {
      "channel": 0,
      "note": 83,
      "start": 16.5674,
      "duration": 0.1739,
      "velocity": 105,
      "chip": "ym2612"
    },
    {
      "channel": 4,
      "note": 53,
      "start": 16.5698,
      "duration": 0.3482,
      "velocity": 91,
      "chip": "ym2612"
    },
    {
      "channel": 5,
      "note": 55,
      "start": 16.5735,
      "duration": 0.1386,
      "velocity": 115,
      "chip": "ym2612"
    },
    {
      "channel": 2,
      "note": 83,
      "start": 16.7585,
      "duration": 0.1742,
      "velocity": 105,
      "chip": "ym2612"
    },
    {
      "channel": 0,
      "note": 80,
      "start": 16.8531,
      "duration": 0.1739,
      "velocity": 105,
      "chip": "ym2612"
    },
    {
      "channel": 5,
      "note": 52,
      "start": 16.8588,
      "duration": 0.139,
      "velocity": 117,
      "chip": "ym2612"
    },
    {
      "channel": 2,
      "note": 80,
      "start": 17.0446,
      "duration": 0.1738,
      "velocity": 105,
      "chip": "ym2612"
    },
    {
      "channel": 0,
      "note": 77,
      "start": 17.1389,
      "duration": 0.1421,
      "velocity": 105,
      "chip": "ym2612"
    },
    {
      "channel": 1,
      "note": 61,
      "start": 17.1398,
      "duration": 0.3798,
      "velocity": 107,
      "chip": "ym2612"
    },
    {
      "channel": 4,
      "note": 53,
      "start": 17.1418,
      "duration": 0.2683,
      "velocity": 91,
      "chip": "ym2612"
    },
    {
      "channel": 5,
      "note": 43,
      "start": 17.1454,
      "duration": 0.1386,
      "velocity": 127,
      "chip": "ym2612"
    },
    {
      "channel": 0,
      "note": 80,
      "start": 17.2817,
      "duration": 0.1739,
      "velocity": 105,
      "chip": "ym2612"
    },
    {
      "channel": 2,
      "note": 77,
      "start": 17.3303,
      "duration": 0.1422,
      "velocity": 105,
      "chip": "ym2612"
    },
    {
      "channel": 2,
      "note": 80,
      "start": 17.4733,
      "duration": 0.1739,
      "velocity": 105,
      "chip": "ym2612"
    },
    {
      "channel": 0,
      "note": 83,
      "start": 17.5675,
      "duration": 0.1739,
      "velocity": 105,
      "chip": "ym2612"
    },
    {
      "channel": 4,
      "note": 53,
      "start": 17.5699,
      "duration": 0.0778,
      "velocity": 91,
      "chip": "ym2612"
    },
    {
      "channel": 1,
      "note": 65,
      "start": 17.7109,
      "duration": 0.3803,
      "velocity": 107,
      "chip": "ym2612"
    },
    {
      "channel": 4,
      "note": 65,
      "start": 17.7127,
      "duration": 0.0782,
      "velocity": 91,
      "chip": "ym2612"
    },
    {
      "channel": 5,
      "note": 52,
      "start": 17.7163,
      "duration": 0.0777,
      "velocity": 122,
      "chip": "ym2612"
    },
    {
      "channel": 2,
      "note": 83,
      "start": 17.759,
      "duration": 0.1739,
      "velocity": 105,
      "chip": "ym2612"
    },
    {
      "channel": 5,
      "note": 52,
      "start": 17.7946,
      "duration": 0.0642,
      "velocity": 122,
      "chip": "ym2612"
    },
    {
      "channel": 0,
      "note": 87,
      "start": 17.8533,
      "duration": 0.1739,
      "velocity": 105,
      "chip": "ym2612"
    },
    {
      "channel": 4,
      "note": 53,
      "start": 17.8557,
      "duration": 0.2686,
      "velocity": 91,
      "chip": "ym2612"
    },
    {
      "channel": 5,
      "note": 52,
      "start": 17.8593,
      "duration": 0.1415,
      "velocity": 122,
      "chip": "ym2612"
    },
    {
      "channel": 5,
      "note": 47,
      "start": 18.0014,
      "duration": 0.1423,
      "velocity": 122,
      "chip": "ym2612"
    },
    {
      "channel": 2,
      "note": 87,
      "start": 18.0448,
      "duration": 0.1739,
      "velocity": 105,
      "chip": "ym2612"
    },
    {
      "channel": 5,
      "note": 40,
      "start": 18.1443,
      "duration": 0.144,
      "velocity": 117,
      "chip": "ym2612"
    },
    {
      "channel": 0,
      "note": 90,
      "start": 18.282,
      "duration": 1.5073,
      "velocity": 105,
      "chip": "ym2612"
    },
    {
      "channel": 1,
      "note": 66,
      "start": 18.2829,
      "duration": 1.5228,
      "velocity": 107,
      "chip": "ym2612"
    },
    {
      "channel": 3,
      "note": 58,
      "start": 18.2843,
      "duration": 1.5221,
      "velocity": 107,
      "chip": "ym2612"
    },
    {
      "channel": 4,
      "note": 54,
      "start": 18.2852,
      "duration": 0.3472,
      "velocity": 91,
      "chip": "ym2612"
    },
    {
      "channel": 5,
      "note": 52,
      "start": 18.2889,
      "duration": 0.1378,
      "velocity": 117,
      "chip": "ym2612"
    },
    {
      "channel": 2,
      "note": 90,
      "start": 18.4735,
      "duration": 1.5074,
      "velocity": 105,
      "chip": "ym2612"
    },
    {
      "channel": 4,
      "note": 49,
      "start": 18.8554,
      "duration": 0.3486,
      "velocity": 91,
      "chip": "ym2612"
    },
    {
      "channel": 5,
      "note": 52,
      "start": 19.1417,
      "duration": 0.1422,
      "velocity": 117,
      "chip": "ym2612"
    },
    {
      "channel": 4,
      "note": 54,
      "start": 19.427,
      "duration": 0.2691,
      "velocity": 91,
      "chip": "ym2612"
    },
    {
      "channel": 5,
      "note": 43,
      "start": 19.4307,
      "duration": 0.139,
      "velocity": 127,
      "chip": "ym2612"
    },
    {
      "channel": 4,
      "note": 54,
      "start": 19.8556,
      "duration": 0.0785,
      "velocity": 91,
      "chip": "ym2612"
    },
    {
      "channel": 4,
      "note": 58,
      "start": 19.9983,
      "duration": 0.0787,
      "velocity": 91,
      "chip": "ym2612"
    },
    {
      "channel": 4,
      "note": 56,
      "start": 20.1413,
      "duration": 0.1738,
      "velocity": 91,
      "chip": "ym2612"
    },
    {
      "channel": 5,
      "note": 55,
      "start": 20.145,
      "duration": 0.1391,
      "velocity": 115,
      "chip": "ym2612"
    },
    {
      "channel": 4,
      "note": 54,
      "start": 20.427,
      "duration": 0.0786,
      "velocity": 91,
      "chip": "ym2612"
    },
    {
      "channel": 5,
      "note": 55,
      "start": 20.4279,
      "duration": 0.1463,
      "velocity": 117,
      "chip": "ym2612"
    },
    {
      "channel": 0,
      "note": 89,
      "start": 20.568,
      "duration": 1.1263,
      "velocity": 105,
      "chip": "ym2612"
    },
    {
      "channel": 1,
      "note": 65,
      "start": 20.5689,
      "duration": 1.5228,
      "velocity": 107,
      "chip": "ym2612"
    },
    {
      "channel": 3,
      "note": 58,
      "start": 20.5702,
      "duration": 1.5222,
      "velocity": 107,
      "chip": "ym2612"
    },
    {
      "channel": 4,
      "note": 53,
      "start": 20.5711,
      "duration": 0.0774,
      "velocity": 91,
      "chip": "ym2612"
    },
    {
      "channel": 5,
      "note": 52,
      "start": 20.5747,
      "duration": 0.138,
      "velocity": 117,
      "chip": "ym2612"
    },
    {
      "channel": 2,
      "note": 89,
      "start": 20.7595,
      "duration": 1.1264,
      "velocity": 105,
      "chip": "ym2612"
    },
    {
      "channel": 4,
      "note": 61,
      "start": 20.8557,
      "duration": 0.0786,
      "velocity": 91,
      "chip": "ym2612"
    },
    {
      "channel": 4,
      "note": 49,
      "start": 20.9987,
      "duration": 0.1739,
      "velocity": 91,
      "chip": "ym2612"
    },
    {
      "channel": 4,
      "note": 53,
      "start": 21.2844,
      "duration": 0.0786,
      "velocity": 91,
      "chip": "ym2612"
    },
    {
      "channel": 4,
      "note": 65,
      "start": 21.4273,
      "duration": 0.1739,
      "velocity": 91,
      "chip": "ym2612"
    },
    {
      "channel": 5,
      "note": 52,
      "start": 21.4282,
      "duration": 0.1418,
      "velocity": 117,
      "chip": "ym2612"
    },
    {
      "channel": 4,
      "note": 53,
      "start": 21.713,
      "duration": 0.1736,
      "velocity": 91,
      "chip": "ym2612"
    },
    {
      "channel": 5,
      "note": 43,
      "start": 21.7166,
      "duration": 0.1391,
      "velocity": 127,
      "chip": "ym2612"
    },
    {
      "channel": 4,
      "note": 53,
      "start": 21.9987,
      "duration": 0.0785,
      "velocity": 91,
      "chip": "ym2612"
    },
    {
      "channel": 4,
      "note": 53,
      "start": 22.1416,
      "duration": 0.1739,
      "velocity": 91,
      "chip": "ym2612"
    },
    {
      "channel": 0,
      "note": 97,
      "start": 22.2826,
      "duration": 0.1739,
      "velocity": 105,
      "chip": "ym2612"
    },
    {
      "channel": 5,
      "note": 52,
      "start": 22.2882,
      "duration": 0.139,
      "velocity": 117,
      "chip": "ym2612"
    },
    {
      "channel": 5,
      "note": 52,
      "start": 22.4278,
      "duration": 0.1431,
      "velocity": 117,
      "chip": "ym2612"
    },
    {
      "channel": 2,
      "note": 97,
      "start": 22.4741,
      "duration": 0.1737,
      "velocity": 105,
      "chip": "ym2612"
    },
    {
      "channel": 0,
      "note": 94,
      "start": 22.5683,
      "duration": 0.1739,
      "velocity": 105,
      "chip": "ym2612"
    },
    {
      "channel": 4,
      "note": 65,
      "start": 22.5706,
      "duration": 0.1732,
      "velocity": 91,
      "chip": "ym2612"
    },
    {
      "channel": 5,
      "note": 55,
      "start": 22.7163,
      "duration": 0.1439,
      "velocity": 117,
      "chip": "ym2612"
    },
    {
      "channel": 2,
      "note": 94,
      "start": 22.7598,
      "duration": 0.1738,
      "velocity": 105,
      "chip": "ym2612"
    },
    {
      "channel": 0,
      "note": 88,
      "start": 22.8541,
      "duration": 1.1264,
      "velocity": 105,
      "chip": "ym2612"
    },
    {
      "channel": 1,
      "note": 64,
      "start": 22.855,
      "duration": 1.5228,
      "velocity": 107,
      "chip": "ym2612"
    },
    {
      "channel": 3,
      "note": 58,
      "start": 22.8563,
      "duration": 1.5222,
      "velocity": 107,
      "chip": "ym2612"
    },
    {
      "channel": 4,
      "note": 52,
      "start": 22.8572,
      "duration": 0.0771,
      "velocity": 91,
      "chip": "ym2612"
    },
    {
      "channel": 5,
      "note": 52,
      "start": 22.8609,
      "duration": 0.1379,
      "velocity": 117,
      "chip": "ym2612"
    },
    {
      "channel": 2,
      "note": 88,
      "start": 23.0455,
      "duration": 1.1264,
      "velocity": 105,
      "chip": "ym2612"
    },
    {
      "channel": 4,
      "note": 54,
      "start": 23.1418,
      "duration": 0.174,
      "velocity": 91,
      "chip": "ym2612"
    },
    {
      "channel": 4,
      "note": 58,
      "start": 23.4276,
      "duration": 0.3485,
      "velocity": 91,
      "chip": "ym2612"
    },
    {
      "channel": 5,
      "note": 55,
      "start": 23.4312,
      "duration": 0.1391,
      "velocity": 115,
      "chip": "ym2612"
    },
    {
      "channel": 5,
      "note": 52,
      "start": 23.7165,
      "duration": 0.1395,
      "velocity": 117,
      "chip": "ym2612"
    },
    {
      "channel": 4,
      "note": 58,
      "start": 23.999,
      "duration": 0.3487,
      "velocity": 91,
      "chip": "ym2612"
    },
    {
      "channel": 5,
      "note": 43,
      "start": 24.0027,
      "duration": 0.1391,
      "velocity": 127,
      "chip": "ym2612"
    },
    {
      "channel": 0,
      "note": 90,
      "start": 24.5686,
      "duration": 0.1739,
      "velocity": 105,
      "chip": "ym2612"
    },
    {
      "channel": 4,
      "note": 58,
      "start": 24.571,
      "duration": 0.1731,
      "velocity": 91,
      "chip": "ym2612"
    },
    {
      "channel": 2,
      "note": 90,
      "start": 24.7602,
      "duration": 0.1737,
      "velocity": 105,
      "chip": "ym2612"
    },
    {
      "channel": 0,
      "note": 88,
      "start": 24.8543,
      "duration": 0.1739,
      "velocity": 105,
      "chip": "ym2612"
    },
    {
      "channel": 4,
      "note": 54,
      "start": 24.8567,
      "duration": 0.0778,
      "velocity": 91,
      "chip": "ym2612"
    },
    {
      "channel": 5,
      "note": 52,
      "start": 24.8604,
      "duration": 0.139,
      "velocity": 117,
      "chip": "ym2612"
    },
    {
      "channel": 4,
      "note": 52,
      "start": 24.9991,
      "duration": 0.0786,
      "velocity": 91,
      "chip": "ym2612"
    },
    {
      "channel": 2,
      "note": 88,
      "start": 25.0459,
      "duration": 0.1738,
      "velocity": 105,
      "chip": "ym2612"
    },
    {
      "channel": 0,
      "note": 87,
      "start": 25.1401,
      "duration": 1.5074,
      "velocity": 105,
      "chip": "ym2612"
    },
    {
      "channel": 1,
      "note": 63,
      "start": 25.1411,
      "duration": 1.1417,
      "velocity": 107,
      "chip": "ym2612"
    },
    {
      "channel": 3,
      "note": 58,
      "start": 25.1424,
      "duration": 1.5224,
      "velocity": 107,
      "chip": "ym2612"
    },
    {
      "channel": 4,
      "note": 51,
      "start": 25.1433,
      "duration": 0.077,
      "velocity": 91,
      "chip": "ym2612"
    },
    {
      "channel": 5,
      "note": 52,
      "start": 25.1441,
      "duration": 0.141,
      "velocity": 117,
      "chip": "ym2612"
    },
    {
      "channel": 4,
      "note": 53,
      "start": 25.2849,
      "duration": 0.0786,
      "velocity": 91,
      "chip": "ym2612"
    },
    {
      "channel": 2,
      "note": 87,
      "start": 25.3316,
      "duration": 1.5074,
      "velocity": 105,
      "chip": "ym2612"
    },
    {
      "channel": 4,
      "note": 45,
      "start": 25.4278,
      "duration": 0.0787,
      "velocity": 91,
      "chip": "ym2612"
    },
    {
      "channel": 5,
      "note": 55,
      "start": 25.4314,
      "duration": 0.1395,
      "velocity": 115,
      "chip": "ym2612"
    },
    {
      "channel": 4,
      "note": 49,
      "start": 25.5707,
      "duration": 0.1739,
      "velocity": 91,
      "chip": "ym2612"
    },
    {
      "channel": 5,
      "note": 52,
      "start": 25.7168,
      "duration": 0.14,
      "velocity": 117,
      "chip": "ym2612"
    },
    {
      "channel": 4,
      "note": 53,
      "start": 25.8564,
      "duration": 0.174,
      "velocity": 91,
      "chip": "ym2612"
    },
    {
      "channel": 5,
      "note": 52,
      "start": 25.9998,
      "duration": 0.1427,
      "velocity": 117,
      "chip": "ym2612"
    },
    {
      "channel": 4,
      "note": 65,
      "start": 26.1422,
      "duration": 0.0786,
      "velocity": 91,
      "chip": "ym2612"
    },
    {
      "channel": 4,
      "note": 51,
      "start": 26.2847,
      "duration": 0.079,
      "velocity": 91,
      "chip": "ym2612"
    },
    {
      "channel": 5,
      "note": 43,
      "start": 26.2883,
      "duration": 0.1398,
      "velocity": 127,
      "chip": "ym2612"
    },
    {
      "channel": 4,
      "note": 53,
      "start": 26.4279,
      "duration": 0.0787,
      "velocity": 91,
      "chip": "ym2612"
    },
    {
      "channel": 4,
      "note": 46,
      "start": 26.5708,
      "duration": 0.0784,
      "velocity": 91,
      "chip": "ym2612"
    },
    {
      "channel": 4,
      "note": 49,
      "start": 26.7137,
      "duration": 0.1738,
      "velocity": 91,
      "chip": "ym2612"
    },
    {
      "channel": 5,
      "note": 52,
      "start": 26.7174,
      "duration": 0.1395,
      "velocity": 117,
      "chip": "ym2612"
    },
    {
      "channel": 1,
      "note": 61,
      "start": 26.8551,
      "duration": 0.0945,
      "velocity": 107,
      "chip": "ym2612"
    },
    {
      "channel": 1,
      "note": 63,
      "start": 26.998,
      "duration": 0.0945,
      "velocity": 107,
      "chip": "ym2612"
    },
    {
      "channel": 4,
      "note": 53,
      "start": 26.9999,
      "duration": 0.2687,
      "velocity": 91,
      "chip": "ym2612"
    },
    {
      "channel": 1,
      "note": 65,
      "start": 27.1408,
      "duration": 0.0945,
      "velocity": 107,
      "chip": "ym2612"
    },
    {
      "channel": 5,
      "note": 52,
      "start": 27.1432,
      "duration": 0.1422,
      "velocity": 117,
      "chip": "ym2612"
    },
    {
      "channel": 1,
      "note": 66,
      "start": 27.2837,
      "duration": 0.0945,
      "velocity": 107,
      "chip": "ym2612"
    },
    {
      "channel": 0,
      "note": 92,
      "start": 27.4261,
      "duration": 1.5074,
      "velocity": 105,
      "chip": "ym2612"
    },
    {
      "channel": 1,
      "note": 68,
      "start": 27.427,
      "duration": 1.5229,
      "velocity": 107,
      "chip": "ym2612"
    },
    {
      "channel": 3,
      "note": 59,
      "start": 27.4284,
      "duration": 1.5222,
      "velocity": 107,
      "chip": "ym2612"
    },
    {
      "channel": 4,
      "note": 56,
      "start": 27.4293,
      "duration": 0.268,
      "velocity": 91,
      "chip": "ym2612"
    },
    {
      "channel": 5,
      "note": 52,
      "start": 27.4301,
      "duration": 0.1408,
      "velocity": 117,
      "chip": "ym2612"
    },
    {
      "channel": 2,
      "note": 92,
      "start": 27.6176,
      "duration": 1.5074,
      "velocity": 105,
      "chip": "ym2612"
    },
    {
      "channel": 4,
      "note": 68,
      "start": 27.8568,
      "duration": 0.0785,
      "velocity": 91,
      "chip": "ym2612"
    },
    {
      "channel": 4,
      "note": 56,
      "start": 28.2854,
      "duration": 0.1739,
      "velocity": 91,
      "chip": "ym2612"
    },
    {
      "channel": 5,
      "note": 52,
      "start": 28.2863,
      "duration": 0.1418,
      "velocity": 117,
      "chip": "ym2612"
    },
    {
      "channel": 4,
      "note": 51,
      "start": 28.5711,
      "duration": 0.174,
      "velocity": 91,
      "chip": "ym2612"
    },
    {
      "channel": 5,
      "note": 43,
      "start": 28.5748,
      "duration": 0.1391,
      "velocity": 127,
      "chip": "ym2612"
    },
    {
      "channel": 4,
      "note": 63,
      "start": 28.8569,
      "duration": 0.0783,
      "velocity": 91,
      "chip": "ym2612"
    },
    {
      "channel": 4,
      "note": 59,
      "start": 28.9998,
      "duration": 0.1738,
      "velocity": 91,
      "chip": "ym2612"
    },
    {
      "channel": 5,
      "note": 55,
      "start": 29.1459,
      "duration": 0.1423,
      "velocity": 115,
      "chip": "ym2612"
    },
    {
      "channel": 5,
      "note": 55,
      "start": 29.2887,
      "duration": 0.14,
      "velocity": 115,
      "chip": "ym2612"
    },
    {
      "channel": 4,
      "note": 56,
      "start": 29.4284,
      "duration": 0.0786,
      "velocity": 91,
      "chip": "ym2612"
    },
    {
      "channel": 5,
      "note": 55,
      "start": 29.5745,
      "duration": 0.1438,
      "velocity": 117,
      "chip": "ym2612"
    },
    {
      "channel": 0,
      "note": 91,
      "start": 29.7122,
      "duration": 1.5074,
      "velocity": 105,
      "chip": "ym2612"
    },
    {
      "channel": 1,
      "note": 67,
      "start": 29.713,
      "duration": 1.5229,
      "velocity": 107,
      "chip": "ym2612"
    },
    {
      "channel": 3,
      "note": 59,
      "start": 29.7144,
      "duration": 1.5222,
      "velocity": 107,
      "chip": "ym2612"
    },
    {
      "channel": 4,
      "note": 55,
      "start": 29.7153,
      "duration": 0.3475,
      "velocity": 91,
      "chip": "ym2612"
    },
    {
      "channel": 5,
      "note": 52,
      "start": 29.7189,
      "duration": 0.138,
      "velocity": 117,
      "chip": "ym2612"
    },
    {
      "channel": 2,
      "note": 91,
      "start": 29.9036,
      "duration": 1.5074,
      "velocity": 105,
      "chip": "ym2612"
    },
    {
      "channel": 4,
      "note": 55,
      "start": 30.2857,
      "duration": 0.1739,
      "velocity": 91,
      "chip": "ym2612"
    },
    {
      "channel": 4,
      "note": 67,
      "start": 30.5715,
      "duration": 0.0785,
      "velocity": 91,
      "chip": "ym2612"
    },
    {
      "channel": 5,
      "note": 52,
      "start": 30.5724,
      "duration": 0.1418,
      "velocity": 117,
      "chip": "ym2612"
    },
    {
      "channel": 4,
      "note": 55,
      "start": 30.8572,
      "duration": 0.0786,
      "velocity": 91,
      "chip": "ym2612"
    },
    {
      "channel": 5,
      "note": 43,
      "start": 30.8609,
      "duration": 0.1395,
      "velocity": 127,
      "chip": "ym2612"
    },
    {
      "channel": 4,
      "note": 55,
      "start": 31.0001,
      "duration": 0.174,
      "velocity": 91,
      "chip": "ym2612"
    },
    {
      "channel": 4,
      "note": 55,
      "start": 31.2858,
      "duration": 0.2692,
      "velocity": 91,
      "chip": "ym2612"
    },
    {
      "channel": 5,
      "note": 52,
      "start": 31.5747,
      "duration": 0.1427,
      "velocity": 122,
      "chip": "ym2612"
    },
    {
      "channel": 4,
      "note": 67,
      "start": 31.7144,
      "duration": 0.0786,
      "velocity": 91,
      "chip": "ym2612"
    },
    {
      "channel": 5,
      "note": 47,
      "start": 31.718,
      "duration": 0.1422,
      "velocity": 122,
      "chip": "ym2612"
    },
    {
      "channel": 4,
      "note": 55,
      "start": 31.8572,
      "duration": 0.0786,
      "velocity": 91,
      "chip": "ym2612"
    },
    {
      "channel": 5,
      "note": 40,
      "start": 31.8609,
      "duration": 0.1438,
      "velocity": 117,
      "chip": "ym2612"
    },
    {
      "channel": 0,
      "note": 90,
      "start": 31.9983,
      "duration": 1.1264,
      "velocity": 105,
      "chip": "ym2612"
    },
    {
      "channel": 1,
      "note": 66,
      "start": 31.9992,
      "duration": 1.1418,
      "velocity": 107,
      "chip": "ym2612"
    },
    {
      "channel": 3,
      "note": 59,
      "start": 32.0006,
      "duration": 1.5064,
      "velocity": 107,
      "chip": "ym2612"
    },
    {
      "channel": 4,
      "note": 54,
      "start": 32.0016,
      "duration": 0.5378,
      "velocity": 91,
      "chip": "ym2612"
    },
    {
      "channel": 5,
      "note": 52,
      "start": 32.0052,
      "duration": 0.1377,
      "velocity": 117,
      "chip": "ym2612"
    },
    {
      "channel": 2,
      "note": 90,
      "start": 32.1898,
      "duration": 1.1263,
      "velocity": 105,
      "chip": "ym2612"
    },
    {
      "channel": 5,
      "note": 52,
      "start": 32.5722,
      "duration": 0.1422,
      "velocity": 117,
      "chip": "ym2612"
    },
    {
      "channel": 4,
      "note": 54,
      "start": 32.8576,
      "duration": 0.1739,
      "velocity": 91,
      "chip": "ym2612"
    },
    {
      "channel": 4,
      "note": 54,
      "start": 33.1429,
      "duration": 0.1739,
      "velocity": 91,
      "chip": "ym2612"
    },
    {
      "channel": 5,
      "note": 43,
      "start": 33.1466,
      "duration": 0.1395,
      "velocity": 127,
      "chip": "ym2612"
    },
    {
      "channel": 4,
      "note": 54,
      "start": 33.4289,
      "duration": 0.1739,
      "velocity": 91,
      "chip": "ym2612"
    },
    {
      "channel": 0,
      "note": 92,
      "start": 33.7128,
      "duration": 0.1738,
      "velocity": 105,
      "chip": "ym2612"
    },
    {
      "channel": 1,
      "note": 68,
      "start": 33.7137,
      "duration": 0.1893,
      "velocity": 107,
      "chip": "ym2612"
    },
    {
      "channel": 4,
      "note": 54,
      "start": 33.7156,
      "duration": 0.1728,
      "velocity": 91,
      "chip": "ym2612"
    },
    {
      "channel": 5,
      "note": 43,
      "start": 33.7164,
      "duration": 0.1411,
      "velocity": 127,
      "chip": "ym2612"
    },
    {
      "channel": 2,
      "note": 92,
      "start": 33.904,
      "duration": 0.1741,
      "velocity": 105,
      "chip": "ym2612"
    },
    {
      "channel": 0,
      "note": 90,
      "start": 33.9985,
      "duration": 0.1739,
      "velocity": 105,
      "chip": "ym2612"
    },
    {
      "channel": 1,
      "note": 66,
      "start": 33.9994,
      "duration": 0.1894,
      "velocity": 107,
      "chip": "ym2612"
    },
    {
      "channel": 4,
      "note": 54,
      "start": 34.0012,
      "duration": 0.1729,
      "velocity": 91,
      "chip": "ym2612"
    },
    {
      "channel": 2,
      "note": 90,
      "start": 34.1897,
      "duration": 0.1742,
      "velocity": 105,
      "chip": "ym2612"
    },
    {
      "channel": 0,
      "note": 90,
      "start": 34.2844,
      "duration": 1.5073,
      "velocity": 105,
      "chip": "ym2612"
    },
    {
      "channel": 1,
      "note": 66,
      "start": 34.2853,
      "duration": 1.5228,
      "velocity": 107,
      "chip": "ym2612"
    },
    {
      "channel": 3,
      "note": 56,
      "start": 34.2867,
      "duration": 1.522,
      "velocity": 107,
      "chip": "ym2612"
    },
    {
      "channel": 4,
      "note": 49,
      "start": 34.2876,
      "duration": 0.3472,
      "velocity": 91,
      "chip": "ym2612"
    },
    {
      "channel": 5,
      "note": 52,
      "start": 34.2913,
      "duration": 0.1377,
      "velocity": 117,
      "chip": "ym2612"
    },
    {
      "channel": 2,
      "note": 90,
      "start": 34.4758,
      "duration": 1.5073,
      "velocity": 105,
      "chip": "ym2612"
    },
    {
      "channel": 4,
      "note": 49,
      "start": 34.8578,
      "duration": 0.3486,
      "velocity": 91,
      "chip": "ym2612"
    },
    {
      "channel": 5,
      "note": 52,
      "start": 34.8586,
      "duration": 0.1419,
      "velocity": 117,
      "chip": "ym2612"
    },
    {
      "channel": 4,
      "note": 49,
      "start": 35.4293,
      "duration": 0.3486,
      "velocity": 91,
      "chip": "ym2612"
    },
    {
      "channel": 5,
      "note": 52,
      "start": 35.4301,
      "duration": 0.142,
      "velocity": 117,
      "chip": "ym2612"
    },
    {
      "channel": 4,
      "note": 49,
      "start": 36.0007,
      "duration": 0.3486,
      "velocity": 91,
      "chip": "ym2612"
    },
    {
      "channel": 5,
      "note": 52,
      "start": 36.0016,
      "duration": 0.1419,
      "velocity": 117,
      "chip": "ym2612"
    },
    {
      "channel": 0,
      "note": 89,
      "start": 36.5703,
      "duration": 1.5074,
      "velocity": 105,
      "chip": "ym2612"
    },
    {
      "channel": 1,
      "note": 65,
      "start": 36.5712,
      "duration": 1.5229,
      "velocity": 107,
      "chip": "ym2612"
    },
    {
      "channel": 3,
      "note": 56,
      "start": 36.5725,
      "duration": 1.5222,
      "velocity": 107,
      "chip": "ym2612"
    },
    {
      "channel": 4,
      "note": 49,
      "start": 36.5733,
      "duration": 0.3475,
      "velocity": 91,
      "chip": "ym2612"
    },
    {
      "channel": 5,
      "note": 52,
      "start": 36.5742,
      "duration": 0.1408,
      "velocity": 117,
      "chip": "ym2612"
    },
    {
      "channel": 2,
      "note": 89,
      "start": 36.7618,
      "duration": 1.5074,
      "velocity": 105,
      "chip": "ym2612"
    },
    {
      "channel": 4,
      "note": 49,
      "start": 37.1438,
      "duration": 0.3486,
      "velocity": 91,
      "chip": "ym2612"
    },
    {
      "channel": 5,
      "note": 52,
      "start": 37.1446,
      "duration": 0.1419,
      "velocity": 117,
      "chip": "ym2612"
    },
    {
      "channel": 4,
      "note": 49,
      "start": 37.7154,
      "duration": 0.0785,
      "velocity": 91,
      "chip": "ym2612"
    },
    {
      "channel": 5,
      "note": 52,
      "start": 37.7163,
      "duration": 0.1422,
      "velocity": 117,
      "chip": "ym2612"
    },
    {
      "channel": 4,
      "note": 49,
      "start": 37.8583,
      "duration": 0.2691,
      "velocity": 91,
      "chip": "ym2612"
    },
    {
      "channel": 4,
      "note": 49,
      "start": 38.2868,
      "duration": 0.3486,
      "velocity": 91,
      "chip": "ym2612"
    },
    {
      "channel": 5,
      "note": 43,
      "start": 38.2905,
      "duration": 0.139,
      "velocity": 127,
      "chip": "ym2612"
    },
    {
      "channel": 0,
      "note": 90,
      "start": 38.8564,
      "duration": 0.3486,
      "velocity": 105,
      "chip": "ym2612"
    },
    {
      "channel": 1,
      "note": 66,
      "start": 38.8573,
      "duration": 1.5228,
      "velocity": 107,
      "chip": "ym2612"
    },
    {
      "channel": 3,
      "note": 56,
      "start": 38.8586,
      "duration": 1.5222,
      "velocity": 107,
      "chip": "ym2612"
    },
    {
      "channel": 4,
      "note": 49,
      "start": 38.8595,
      "duration": 0.3471,
      "velocity": 91,
      "chip": "ym2612"
    },
    {
      "channel": 5,
      "note": 52,
      "start": 38.8631,
      "duration": 0.138,
      "velocity": 117,
      "chip": "ym2612"
    },
    {
      "channel": 2,
      "note": 90,
      "start": 39.0479,
      "duration": 0.3486,
      "velocity": 105,
      "chip": "ym2612"
    },
    {
      "channel": 0,
      "note": 90,
      "start": 39.4278,
      "duration": 0.3487,
      "velocity": 105,
      "chip": "ym2612"
    },
    {
      "channel": 4,
      "note": 49,
      "start": 39.4302,
      "duration": 0.3479,
      "velocity": 91,
      "chip": "ym2612"
    },
    {
      "channel": 5,
      "note": 43,
      "start": 39.4339,
      "duration": 0.1387,
      "velocity": 127,
      "chip": "ym2612"
    },
    {
      "channel": 2,
      "note": 90,
      "start": 39.6193,
      "duration": 0.3487,
      "velocity": 105,
      "chip": "ym2612"
    },
    {
      "channel": 0,
      "note": 90,
      "start": 39.9994,
      "duration": 0.3486,
      "velocity": 105,
      "chip": "ym2612"
    },
    {
      "channel": 4,
      "note": 49,
      "start": 40.0017,
      "duration": 0.348,
      "velocity": 91,
      "chip": "ym2612"
    },
    {
      "channel": 5,
      "note": 52,
      "start": 40.0053,
      "duration": 0.1388,
      "velocity": 117,
      "chip": "ym2612"
    },
    {
      "channel": 2,
      "note": 90,
      "start": 40.1908,
      "duration": 0.3487,
      "velocity": 105,
      "chip": "ym2612"
    },
    {
      "channel": 0,
      "note": 92,
      "start": 40.571,
      "duration": 0.1739,
      "velocity": 105,
      "chip": "ym2612"
    },
    {
      "channel": 4,
      "note": 49,
      "start": 40.5734,
      "duration": 0.173,
      "velocity": 91,
      "chip": "ym2612"
    },
    {
      "channel": 5,
      "note": 43,
      "start": 40.5771,
      "duration": 0.1385,
      "velocity": 127,
      "chip": "ym2612"
    },
    {
      "channel": 2,
      "note": 92,
      "start": 40.7625,
      "duration": 0.1737,
      "velocity": 105,
      "chip": "ym2612"
    },
    {
      "channel": 0,
      "note": 90,
      "start": 40.8566,
      "duration": 0.1739,
      "velocity": 105,
      "chip": "ym2612"
    },
    {
      "channel": 4,
      "note": 49,
      "start": 40.859,
      "duration": 0.1732,
      "velocity": 91,
      "chip": "ym2612"
    },
    {
      "channel": 2,
      "note": 90,
      "start": 41.0482,
      "duration": 0.1738,
      "velocity": 105,
      "chip": "ym2612"
    },
    {
      "channel": 0,
      "note": 89,
      "start": 41.1425,
      "duration": 0.7296,
      "velocity": 105,
      "chip": "ym2612"
    },
    {
      "channel": 1,
      "note": 65,
      "start": 41.1433,
      "duration": 1.5229,
      "velocity": 107,
      "chip": "ym2612"
    },
    {
      "channel": 3,
      "note": 56,
      "start": 41.1447,
      "duration": 1.5222,
      "velocity": 107,
      "chip": "ym2612"
    },
    {
      "channel": 4,
      "note": 49,
      "start": 41.1455,
      "duration": 0.1728,
      "velocity": 91,
      "chip": "ym2612"
    },
    {
      "channel": 5,
      "note": 52,
      "start": 41.1492,
      "duration": 0.138,
      "velocity": 117,
      "chip": "ym2612"
    },
    {
      "channel": 2,
      "note": 89,
      "start": 41.334,
      "duration": 0.7296,
      "velocity": 105,
      "chip": "ym2612"
    },
    {
      "channel": 4,
      "note": 49,
      "start": 41.4301,
      "duration": 0.174,
      "velocity": 91,
      "chip": "ym2612"
    },
    {
      "channel": 4,
      "note": 49,
      "start": 41.7159,
      "duration": 0.174,
      "velocity": 91,
      "chip": "ym2612"
    },
    {
      "channel": 5,
      "note": 43,
      "start": 41.7196,
      "duration": 0.1391,
      "velocity": 127,
      "chip": "ym2612"
    },
    {
      "channel": 4,
      "note": 49,
      "start": 42.0017,
      "duration": 0.1739,
      "velocity": 91,
      "chip": "ym2612"
    },
    {
      "channel": 0,
      "note": 89,
      "start": 42.2855,
      "duration": 0.1739,
      "velocity": 105,
      "chip": "ym2612"
    },
    {
      "channel": 4,
      "note": 49,
      "start": 42.2878,
      "duration": 0.1732,
      "velocity": 91,
      "chip": "ym2612"
    },
    {
      "channel": 5,
      "note": 52,
      "start": 42.2915,
      "duration": 0.1415,
      "velocity": 122,
      "chip": "ym2612"
    },
    {
      "channel": 5,
      "note": 52,
      "start": 42.4335,
      "duration": 0.0788,
      "velocity": 122,
      "chip": "ym2612"
    },
    {
      "channel": 2,
      "note": 89,
      "start": 42.477,
      "duration": 0.1738,
      "velocity": 105,
      "chip": "ym2612"
    },
    {
      "channel": 5,
      "note": 52,
      "start": 42.5128,
      "duration": 0.0611,
      "velocity": 122,
      "chip": "ym2612"
    },
    {
      "channel": 0,
      "note": 101,
      "start": 42.5713,
      "duration": 0.3485,
      "velocity": 105,
      "chip": "ym2612"
    },
    {
      "channel": 4,
      "note": 49,
      "start": 42.5737,
      "duration": 0.1734,
      "velocity": 91,
      "chip": "ym2612"
    },
    {
      "channel": 5,
      "note": 52,
      "start": 42.7193,
      "duration": 0.0788,
      "velocity": 122,
      "chip": "ym2612"
    },
    {
      "channel": 2,
      "note": 101,
      "start": 42.7628,
      "duration": 0.3485,
      "velocity": 105,
      "chip": "ym2612"
    },
    {
      "channel": 5,
      "note": 52,
      "start": 42.7986,
      "duration": 0.0634,
      "velocity": 122,
      "chip": "ym2612"
    },
    {
      "channel": 4,
      "note": 49,
      "start": 42.8589,
      "duration": 0.1739,
      "velocity": 91,
      "chip": "ym2612"
    },
    {
      "channel": 5,
      "note": 52,
      "start": 42.8625,
      "duration": 0.142,
      "velocity": 122,
      "chip": "ym2612"
    },
    {
      "channel": 5,
      "note": 47,
      "start": 43.0051,
      "duration": 0.1403,
      "velocity": 122,
      "chip": "ym2612"
    },
    {
      "channel": 0,
      "note": 89,
      "start": 43.1427,
      "duration": 0.1739,
      "velocity": 105,
      "chip": "ym2612"
    },
    {
      "channel": 4,
      "note": 49,
      "start": 43.1451,
      "duration": 0.1732,
      "velocity": 91,
      "chip": "ym2612"
    },
    {
      "channel": 5,
      "note": 40,
      "start": 43.2908,
      "duration": 0.15,
      "velocity": 117,
      "chip": "ym2612"
    },
    {
      "channel": 2,
      "note": 89,
      "start": 43.3344,
      "duration": 0.1893,
      "velocity": 105,
      "chip": "ym2612"
    },
    {
      "channel": 0,
      "note": 90,
      "start": 43.4289,
      "duration": 0.2845,
      "velocity": 105,
      "chip": "ym2612"
    },
    {
      "channel": 1,
      "note": 66,
      "start": 43.4326,
      "duration": 0.0909,
      "velocity": 95,
      "chip": "ym2612"
    },
    {
      "channel": 3,
      "note": 61,
      "start": 43.4369,
      "duration": 0.0869,
      "velocity": 95,
      "chip": "ym2612"
    },
    {
      "channel": 4,
      "note": 54,
      "start": 43.4378,
      "duration": 0.7382,
      "velocity": 91,
      "chip": "ym2612"
    },
    {
      "channel": 5,
      "note": 52,
      "start": 43.4414,
      "duration": 0.1513,
      "velocity": 115,
      "chip": "ym2612"
    },
    {
      "channel": 1,
      "note": 65,
      "start": 43.5878,
      "duration": 0.1738,
      "velocity": 95,
      "chip": "ym2612"
    },
    {
      "channel": 3,
      "note": 61,
      "start": 43.5892,
      "duration": 0.1731,
      "velocity": 95,
      "chip": "ym2612"
    },
    {
      "channel": 5,
      "note": 55,
      "start": 43.5933,
      "duration": 0.0751,
      "velocity": 115,
      "chip": "ym2612"
    },
    {
      "channel": 2,
      "note": 90,
      "start": 43.6363,
      "duration": 0.2688,
      "velocity": 105,
      "chip": "ym2612"
    },
    {
      "channel": 5,
      "note": 55,
      "start": 43.669,
      "duration": 0.063,
      "velocity": 115,
      "chip": "ym2612"
    },
    {
      "channel": 5,
      "note": 55,
      "start": 43.7326,
      "duration": 0.1434,
      "velocity": 115,
      "chip": "ym2612"
    },
    {
      "channel": 0,
      "note": 90,
      "start": 43.8729,
      "duration": 0.2692,
      "velocity": 105,
      "chip": "ym2612"
    },
    {
      "channel": 1,
      "note": 66,
      "start": 43.8739,
      "duration": 0.1735,
      "velocity": 95,
      "chip": "ym2612"
    },
    {
      "channel": 3,
      "note": 61,
      "start": 43.8752,
      "duration": 0.1728,
      "velocity": 95,
      "chip": "ym2612"
    },
    {
      "channel": 5,
      "note": 55,
      "start": 43.8765,
      "duration": 0.144,
      "velocity": 127,
      "chip": "ym2612"
    },
    {
      "channel": 5,
      "note": 43,
      "start": 44.0211,
      "duration": 0.1404,
      "velocity": 127,
      "chip": "ym2612"
    },
    {
      "channel": 2,
      "note": 90,
      "start": 44.0644,
      "duration": 0.2692,
      "velocity": 105,
      "chip": "ym2612"
    },
    {
      "channel": 1,
      "note": 65,
      "start": 44.1593,
      "duration": 0.0786,
      "velocity": 95,
      "chip": "ym2612"
    },
    {
      "channel": 3,
      "note": 61,
      "start": 44.1607,
      "duration": 0.0778,
      "velocity": 95,
      "chip": "ym2612"
    },
    {
      "channel": 0,
      "note": 90,
      "start": 44.3016,
      "duration": 0.2691,
      "velocity": 105,
      "chip": "ym2612"
    },
    {
      "channel": 1,
      "note": 66,
      "start": 44.3025,
      "duration": 0.1735,
      "velocity": 95,
      "chip": "ym2612"
    },
    {
      "channel": 3,
      "note": 61,
      "start": 44.304,
      "duration": 0.1727,
      "velocity": 95,
      "chip": "ym2612"
    },
    {
      "channel": 5,
      "note": 55,
      "start": 44.3081,
      "duration": 0.1382,
      "velocity": 115,
      "chip": "ym2612"
    },
    {
      "channel": 2,
      "note": 90,
      "start": 44.4931,
      "duration": 0.2692,
      "velocity": 105,
      "chip": "ym2612"
    },
    {
      "channel": 1,
      "note": 65,
      "start": 44.5879,
      "duration": 0.0785,
      "velocity": 95,
      "chip": "ym2612"
    },
    {
      "channel": 3,
      "note": 61,
      "start": 44.5894,
      "duration": 0.0778,
      "velocity": 95,
      "chip": "ym2612"
    },
    {
      "channel": 4,
      "note": 54,
      "start": 44.5903,
      "duration": 0.0771,
      "velocity": 91,
      "chip": "ym2612"
    },
    {
      "channel": 5,
      "note": 52,
      "start": 44.5939,
      "duration": 0.1427,
      "velocity": 115,
      "chip": "ym2612"
    },
    {
      "channel": 0,
      "note": 90,
      "start": 44.7303,
      "duration": 0.0785,
      "velocity": 105,
      "chip": "ym2612"
    },
    {
      "channel": 1,
      "note": 66,
      "start": 44.7313,
      "duration": 0.173,
      "velocity": 95,
      "chip": "ym2612"
    },
    {
      "channel": 3,
      "note": 61,
      "start": 44.7327,
      "duration": 0.1722,
      "velocity": 95,
      "chip": "ym2612"
    },
    {
      "channel": 4,
      "note": 54,
      "start": 44.7337,
      "duration": 0.1714,
      "velocity": 91,
      "chip": "ym2612"
    },
    {
      "channel": 5,
      "note": 55,
      "start": 44.7373,
      "duration": 0.0739,
      "velocity": 115,
      "chip": "ym2612"
    },
    {
      "channel": 5,
      "note": 55,
      "start": 44.8117,
      "duration": 0.0631,
      "velocity": 115,
      "chip": "ym2612"
    },
    {
      "channel": 5,
      "note": 55,
      "start": 44.8754,
      "duration": 0.1443,
      "velocity": 115,
      "chip": "ym2612"
    },
    {
      "channel": 2,
      "note": 90,
      "start": 44.9214,
      "duration": 0.0786,
      "velocity": 105,
      "chip": "ym2612"
    },
    {
      "channel": 0,
      "note": 90,
      "start": 45.016,
      "duration": 0.0786,
      "velocity": 105,
      "chip": "ym2612"
    },
    {
      "channel": 1,
      "note": 66,
      "start": 45.017,
      "duration": 0.0778,
      "velocity": 95,
      "chip": "ym2612"
    },
    {
      "channel": 3,
      "note": 61,
      "start": 45.0184,
      "duration": 0.0767,
      "velocity": 95,
      "chip": "ym2612"
    },
    {
      "channel": 4,
      "note": 58,
      "start": 45.0193,
      "duration": 0.0759,
      "velocity": 91,
      "chip": "ym2612"
    },
    {
      "channel": 5,
      "note": 55,
      "start": 45.0202,
      "duration": 0.1448,
      "velocity": 127,
      "chip": "ym2612"
    },
    {
      "channel": 0,
      "note": 94,
      "start": 45.159,
      "duration": 0.1738,
      "velocity": 105,
      "chip": "ym2612"
    },
    {
      "channel": 1,
      "note": 73,
      "start": 45.1599,
      "duration": 0.173,
      "velocity": 95,
      "chip": "ym2612"
    },
    {
      "channel": 3,
      "note": 66,
      "start": 45.1609,
      "duration": 0.1727,
      "velocity": 95,
      "chip": "ym2612"
    },
    {
      "channel": 4,
      "note": 54,
      "start": 45.1619,
      "duration": 0.1719,
      "velocity": 91,
      "chip": "ym2612"
    },
    {
      "channel": 5,
      "note": 43,
      "start": 45.1656,
      "duration": 0.138,
      "velocity": 127,
      "chip": "ym2612"
    },
    {
      "channel": 2,
      "note": 90,
      "start": 45.2075,
      "duration": 0.0786,
      "velocity": 105,
      "chip": "ym2612"
    },
    {
      "channel": 2,
      "note": 94,
      "start": 45.3505,
      "duration": 0.1737,
      "velocity": 105,
      "chip": "ym2612"
    },
    {
      "channel": 0,
      "note": 90,
      "start": 45.4446,
      "duration": 0.1739,
      "velocity": 105,
      "chip": "ym2612"
    },
    {
      "channel": 1,
      "note": 70,
      "start": 45.4455,
      "duration": 0.1732,
      "velocity": 95,
      "chip": "ym2612"
    },
    {
      "channel": 3,
      "note": 66,
      "start": 45.4468,
      "duration": 0.1725,
      "velocity": 95,
      "chip": "ym2612"
    },
    {
      "channel": 4,
      "note": 49,
      "start": 45.4477,
      "duration": 0.1718,
      "velocity": 91,
      "chip": "ym2612"
    },
    {
      "channel": 5,
      "note": 55,
      "start": 45.4513,
      "duration": 0.138,
      "velocity": 115,
      "chip": "ym2612"
    },
    {
      "channel": 5,
      "note": 55,
      "start": 45.59,
      "duration": 0.1468,
      "velocity": 117,
      "chip": "ym2612"
    },
    {
      "channel": 2,
      "note": 90,
      "start": 45.6361,
      "duration": 0.1736,
      "velocity": 105,
      "chip": "ym2612"
    },
    {
      "channel": 0,
      "note": 90,
      "start": 45.7305,
      "duration": 0.2691,
      "velocity": 105,
      "chip": "ym2612"
    },
    {
      "channel": 1,
      "note": 65,
      "start": 45.7314,
      "duration": 0.0781,
      "velocity": 95,
      "chip": "ym2612"
    },
    {
      "channel": 3,
      "note": 63,
      "start": 45.7328,
      "duration": 0.0771,
      "velocity": 95,
      "chip": "ym2612"
    },
    {
      "channel": 4,
      "note": 51,
      "start": 45.7338,
      "duration": 0.3471,
      "velocity": 91,
      "chip": "ym2612"
    },
    {
      "channel": 5,
      "note": 52,
      "start": 45.7374,
      "duration": 0.1414,
      "velocity": 115,
      "chip": "ym2612"
    },
    {
      "channel": 1,
      "note": 66,
      "start": 45.8739,
      "duration": 0.1738,
      "velocity": 95,
      "chip": "ym2612"
    },
    {
      "channel": 3,
      "note": 63,
      "start": 45.8752,
      "duration": 0.173,
      "velocity": 95,
      "chip": "ym2612"
    },
    {
      "channel": 5,
      "note": 55,
      "start": 45.8794,
      "duration": 0.0751,
      "velocity": 115,
      "chip": "ym2612"
    },
    {
      "channel": 2,
      "note": 90,
      "start": 45.922,
      "duration": 0.2691,
      "velocity": 105,
      "chip": "ym2612"
    },
    {
      "channel": 5,
      "note": 55,
      "start": 45.9551,
      "duration": 0.063,
      "velocity": 115,
      "chip": "ym2612"
    },
    {
      "channel": 5,
      "note": 55,
      "start": 46.0186,
      "duration": 0.1435,
      "velocity": 115,
      "chip": "ym2612"
    },
    {
      "channel": 0,
      "note": 90,
      "start": 46.159,
      "duration": 0.2691,
      "velocity": 105,
      "chip": "ym2612"
    },
    {
      "channel": 1,
      "note": 65,
      "start": 46.16,
      "duration": 0.0782,
      "velocity": 95,
      "chip": "ym2612"
    },
    {
      "channel": 3,
      "note": 63,
      "start": 46.1614,
      "duration": 0.0774,
      "velocity": 95,
      "chip": "ym2612"
    },
    {
      "channel": 5,
      "note": 55,
      "start": 46.1628,
      "duration": 0.145,
      "velocity": 127,
      "chip": "ym2612"
    },
    {
      "channel": 1,
      "note": 66,
      "start": 46.3025,
      "duration": 0.1738,
      "velocity": 95,
      "chip": "ym2612"
    },
    {
      "channel": 3,
      "note": 63,
      "start": 46.3039,
      "duration": 0.173,
      "velocity": 95,
      "chip": "ym2612"
    },
    {
      "channel": 4,
      "note": 51,
      "start": 46.3047,
      "duration": 0.3478,
      "velocity": 91,
      "chip": "ym2612"
    },
    {
      "channel": 5,
      "note": 43,
      "start": 46.3084,
      "duration": 0.1382,
      "velocity": 127,
      "chip": "ym2612"
    },
    {
      "channel": 2,
      "note": 90,
      "start": 46.3504,
      "duration": 0.2692,
      "velocity": 105,
      "chip": "ym2612"
    },
    {
      "channel": 0,
      "note": 90,
      "start": 46.5876,
      "duration": 0.2692,
      "velocity": 105,
      "chip": "ym2612"
    },
    {
      "channel": 1,
      "note": 65,
      "start": 46.5886,
      "duration": 0.0782,
      "velocity": 95,
      "chip": "ym2612"
    },
    {
      "channel": 3,
      "note": 63,
      "start": 46.5901,
      "duration": 0.0773,
      "velocity": 95,
      "chip": "ym2612"
    },
    {
      "channel": 5,
      "note": 55,
      "start": 46.5942,
      "duration": 0.1391,
      "velocity": 115,
      "chip": "ym2612"
    },
    {
      "channel": 1,
      "note": 66,
      "start": 46.7311,
      "duration": 0.1739,
      "velocity": 95,
      "chip": "ym2612"
    },
    {
      "channel": 3,
      "note": 63,
      "start": 46.7325,
      "duration": 0.1731,
      "velocity": 95,
      "chip": "ym2612"
    },
    {
      "channel": 2,
      "note": 90,
      "start": 46.7791,
      "duration": 0.2691,
      "velocity": 105,
      "chip": "ym2612"
    },
    {
      "channel": 4,
      "note": 51,
      "start": 46.8754,
      "duration": 0.3482,
      "velocity": 91,
      "chip": "ym2612"
    },
    {
      "channel": 5,
      "note": 52,
      "start": 46.879,
      "duration": 0.1432,
      "velocity": 115,
      "chip": "ym2612"
    },
    {
      "channel": 0,
      "note": 90,
      "start": 47.0163,
      "duration": 0.0786,
      "velocity": 105,
      "chip": "ym2612"
    },
    {
      "channel": 1,
      "note": 66,
      "start": 47.0172,
      "duration": 0.1731,
      "velocity": 95,
      "chip": "ym2612"
    },
    {
      "channel": 3,
      "note": 63,
      "start": 47.0186,
      "duration": 0.1724,
      "velocity": 95,
      "chip": "ym2612"
    },
    {
      "channel": 5,
      "note": 55,
      "start": 47.0228,
      "duration": 0.0744,
      "velocity": 115,
      "chip": "ym2612"
    },
    {
      "channel": 5,
      "note": 55,
      "start": 47.0978,
      "duration": 0.0631,
      "velocity": 115,
      "chip": "ym2612"
    },
    {
      "channel": 5,
      "note": 55,
      "start": 47.1615,
      "duration": 0.1438,
      "velocity": 115,
      "chip": "ym2612"
    },
    {
      "channel": 2,
      "note": 90,
      "start": 47.2075,
      "duration": 0.0785,
      "velocity": 105,
      "chip": "ym2612"
    },
    {
      "channel": 0,
      "note": 90,
      "start": 47.3021,
      "duration": 0.0786,
      "velocity": 105,
      "chip": "ym2612"
    },
    {
      "channel": 1,
      "note": 66,
      "start": 47.303,
      "duration": 0.0778,
      "velocity": 95,
      "chip": "ym2612"
    },
    {
      "channel": 3,
      "note": 63,
      "start": 47.3044,
      "duration": 0.0766,
      "velocity": 95,
      "chip": "ym2612"
    },
    {
      "channel": 5,
      "note": 55,
      "start": 47.3059,
      "duration": 0.1452,
      "velocity": 127,
      "chip": "ym2612"
    },
    {
      "channel": 0,
      "note": 94,
      "start": 47.445,
      "duration": 0.1738,
      "velocity": 105,
      "chip": "ym2612"
    },
    {
      "channel": 1,
      "note": 73,
      "start": 47.446,
      "duration": 0.173,
      "velocity": 95,
      "chip": "ym2612"
    },
    {
      "channel": 3,
      "note": 66,
      "start": 47.447,
      "duration": 0.1727,
      "velocity": 95,
      "chip": "ym2612"
    },
    {
      "channel": 4,
      "note": 53,
      "start": 47.448,
      "duration": 0.1719,
      "velocity": 91,
      "chip": "ym2612"
    },
    {
      "channel": 5,
      "note": 43,
      "start": 47.4517,
      "duration": 0.138,
      "velocity": 127,
      "chip": "ym2612"
    },
    {
      "channel": 2,
      "note": 90,
      "start": 47.4936,
      "duration": 0.0786,
      "velocity": 105,
      "chip": "ym2612"
    },
    {
      "channel": 2,
      "note": 94,
      "start": 47.6366,
      "duration": 0.1737,
      "velocity": 105,
      "chip": "ym2612"
    },
    {
      "channel": 0,
      "note": 90,
      "start": 47.7307,
      "duration": 0.1739,
      "velocity": 105,
      "chip": "ym2612"
    },
    {
      "channel": 1,
      "note": 70,
      "start": 47.7315,
      "duration": 0.1732,
      "velocity": 95,
      "chip": "ym2612"
    },
    {
      "channel": 3,
      "note": 66,
      "start": 47.7329,
      "duration": 0.1725,
      "velocity": 95,
      "chip": "ym2612"
    },
    {
      "channel": 4,
      "note": 54,
      "start": 47.7338,
      "duration": 0.1718,
      "velocity": 91,
      "chip": "ym2612"
    },
    {
      "channel": 5,
      "note": 55,
      "start": 47.7374,
      "duration": 0.138,
      "velocity": 115,
      "chip": "ym2612"
    },
    {
      "channel": 5,
      "note": 55,
      "start": 47.876,
      "duration": 0.1468,
      "velocity": 117,
      "chip": "ym2612"
    },
    {
      "channel": 2,
      "note": 90,
      "start": 47.9223,
      "duration": 0.1735,
      "velocity": 105,
      "chip": "ym2612"
    },
    {
      "channel": 0,
      "note": 92,
      "start": 48.0165,
      "duration": 0.2691,
      "velocity": 105,
      "chip": "ym2612"
    },
    {
      "channel": 1,
      "note": 71,
      "start": 48.0175,
      "duration": 0.078,
      "velocity": 95,
      "chip": "ym2612"
    },
    {
      "channel": 3,
      "note": 68,
      "start": 48.019,
      "duration": 0.077,
      "velocity": 95,
      "chip": "ym2612"
    },
    {
      "channel": 4,
      "note": 56,
      "start": 48.0198,
      "duration": 0.1726,
      "velocity": 91,
      "chip": "ym2612"
    },
    {
      "channel": 5,
      "note": 52,
      "start": 48.0234,
      "duration": 0.1415,
      "velocity": 115,
      "chip": "ym2612"
    },
    {
      "channel": 1,
      "note": 70,
      "start": 48.1599,
      "duration": 0.1739,
      "velocity": 95,
      "chip": "ym2612"
    },
    {
      "channel": 3,
      "note": 68,
      "start": 48.1613,
      "duration": 0.173,
      "velocity": 95,
      "chip": "ym2612"
    },
    {
      "channel": 5,
      "note": 55,
      "start": 48.1654,
      "duration": 0.0751,
      "velocity": 115,
      "chip": "ym2612"
    },
    {
      "channel": 2,
      "note": 92,
      "start": 48.2079,
      "duration": 0.2691,
      "velocity": 105,
      "chip": "ym2612"
    },
    {
      "channel": 5,
      "note": 55,
      "start": 48.2411,
      "duration": 0.0634,
      "velocity": 115,
      "chip": "ym2612"
    },
    {
      "channel": 4,
      "note": 56,
      "start": 48.3042,
      "duration": 0.1735,
      "velocity": 91,
      "chip": "ym2612"
    },
    {
      "channel": 5,
      "note": 55,
      "start": 48.3051,
      "duration": 0.143,
      "velocity": 115,
      "chip": "ym2612"
    },
    {
      "channel": 0,
      "note": 92,
      "start": 48.445,
      "duration": 0.2692,
      "velocity": 105,
      "chip": "ym2612"
    },
    {
      "channel": 1,
      "note": 71,
      "start": 48.4459,
      "duration": 0.1736,
      "velocity": 95,
      "chip": "ym2612"
    },
    {
      "channel": 3,
      "note": 68,
      "start": 48.4473,
      "duration": 0.1729,
      "velocity": 95,
      "chip": "ym2612"
    },
    {
      "channel": 5,
      "note": 55,
      "start": 48.4487,
      "duration": 0.1445,
      "velocity": 127,
      "chip": "ym2612"
    },
    {
      "channel": 4,
      "note": 68,
      "start": 48.59,
      "duration": 0.0785,
      "velocity": 91,
      "chip": "ym2612"
    },
    {
      "channel": 5,
      "note": 43,
      "start": 48.5937,
      "duration": 0.1403,
      "velocity": 127,
      "chip": "ym2612"
    },
    {
      "channel": 2,
      "note": 92,
      "start": 48.6366,
      "duration": 0.2691,
      "velocity": 105,
      "chip": "ym2612"
    },
    {
      "channel": 1,
      "note": 70,
      "start": 48.7314,
      "duration": 0.0786,
      "velocity": 95,
      "chip": "ym2612"
    },
    {
      "channel": 3,
      "note": 68,
      "start": 48.7328,
      "duration": 0.0779,
      "velocity": 95,
      "chip": "ym2612"
    },
    {
      "channel": 4,
      "note": 56,
      "start": 48.7338,
      "duration": 0.1726,
      "velocity": 91,
      "chip": "ym2612"
    },
    {
      "channel": 0,
      "note": 92,
      "start": 48.8737,
      "duration": 0.2692,
      "velocity": 105,
      "chip": "ym2612"
    },
    {
      "channel": 1,
      "note": 71,
      "start": 48.8746,
      "duration": 0.1735,
      "velocity": 95,
      "chip": "ym2612"
    },
    {
      "channel": 3,
      "note": 68,
      "start": 48.8761,
      "duration": 0.1727,
      "velocity": 95,
      "chip": "ym2612"
    },
    {
      "channel": 5,
      "note": 55,
      "start": 48.8802,
      "duration": 0.1387,
      "velocity": 115,
      "chip": "ym2612"
    },
    {
      "channel": 4,
      "note": 56,
      "start": 49.0186,
      "duration": 0.0785,
      "velocity": 91,
      "chip": "ym2612"
    },
    {
      "channel": 2,
      "note": 92,
      "start": 49.0652,
      "duration": 0.2692,
      "velocity": 105,
      "chip": "ym2612"
    },
    {
      "channel": 1,
      "note": 71,
      "start": 49.16,
      "duration": 0.0786,
      "velocity": 95,
      "chip": "ym2612"
    },
    {
      "channel": 3,
      "note": 68,
      "start": 49.1615,
      "duration": 0.0778,
      "velocity": 95,
      "chip": "ym2612"
    },
    {
      "channel": 4,
      "note": 56,
      "start": 49.1624,
      "duration": 0.2682,
      "velocity": 91,
      "chip": "ym2612"
    },
    {
      "channel": 5,
      "note": 52,
      "start": 49.166,
      "duration": 0.1424,
      "velocity": 115,
      "chip": "ym2612"
    },
    {
      "channel": 0,
      "note": 92,
      "start": 49.3024,
      "duration": 0.0786,
      "velocity": 105,
      "chip": "ym2612"
    },
    {
      "channel": 1,
      "note": 70,
      "start": 49.3034,
      "duration": 0.173,
      "velocity": 95,
      "chip": "ym2612"
    },
    {
      "channel": 3,
      "note": 68,
      "start": 49.3048,
      "duration": 0.1721,
      "velocity": 95,
      "chip": "ym2612"
    },
    {
      "channel": 5,
      "note": 55,
      "start": 49.309,
      "duration": 0.0742,
      "velocity": 115,
      "chip": "ym2612"
    },
    {
      "channel": 5,
      "note": 55,
      "start": 49.3838,
      "duration": 0.063,
      "velocity": 115,
      "chip": "ym2612"
    },
    {
      "channel": 5,
      "note": 55,
      "start": 49.4475,
      "duration": 0.1443,
      "velocity": 115,
      "chip": "ym2612"
    },
    {
      "channel": 2,
      "note": 92,
      "start": 49.4936,
      "duration": 0.0785,
      "velocity": 105,
      "chip": "ym2612"
    },
    {
      "channel": 0,
      "note": 92,
      "start": 49.5882,
      "duration": 0.0785,
      "velocity": 105,
      "chip": "ym2612"
    },
    {
      "channel": 1,
      "note": 71,
      "start": 49.5891,
      "duration": 0.0778,
      "velocity": 95,
      "chip": "ym2612"
    },
    {
      "channel": 3,
      "note": 68,
      "start": 49.5906,
      "duration": 0.0766,
      "velocity": 95,
      "chip": "ym2612"
    },
    {
      "channel": 4,
      "note": 56,
      "start": 49.5915,
      "duration": 0.0758,
      "velocity": 91,
      "chip": "ym2612"
    },
    {
      "channel": 5,
      "note": 55,
      "start": 49.5924,
      "duration": 0.1446,
      "velocity": 127,
      "chip": "ym2612"
    },
    {
      "channel": 0,
      "note": 95,
      "start": 49.731,
      "duration": 0.1739,
      "velocity": 105,
      "chip": "ym2612"
    },
    {
      "channel": 1,
      "note": 71,
      "start": 49.7319,
      "duration": 0.0782,
      "velocity": 95,
      "chip": "ym2612"
    },
    {
      "channel": 3,
      "note": 68,
      "start": 49.7329,
      "duration": 0.1731,
      "velocity": 95,
      "chip": "ym2612"
    },
    {
      "channel": 4,
      "note": 56,
      "start": 49.7339,
      "duration": 0.1723,
      "velocity": 91,
      "chip": "ym2612"
    },
    {
      "channel": 5,
      "note": 43,
      "start": 49.7376,
      "duration": 0.1385,
      "velocity": 127,
      "chip": "ym2612"
    },
    {
      "channel": 2,
      "note": 92,
      "start": 49.7796,
      "duration": 0.0786,
      "velocity": 105,
      "chip": "ym2612"
    },
    {
      "channel": 1,
      "note": 70,
      "start": 49.8743,
      "duration": 0.0787,
      "velocity": 95,
      "chip": "ym2612"
    },
    {
      "channel": 2,
      "note": 95,
      "start": 49.9226,
      "duration": 0.1735,
      "velocity": 105,
      "chip": "ym2612"
    },
    {
      "channel": 0,
      "note": 87,
      "start": 50.0167,
      "duration": 0.1739,
      "velocity": 105,
      "chip": "ym2612"
    },
    {
      "channel": 1,
      "note": 68,
      "start": 50.0176,
      "duration": 0.0783,
      "velocity": 95,
      "chip": "ym2612"
    },
    {
      "channel": 3,
      "note": 63,
      "start": 50.019,
      "duration": 0.1728,
      "velocity": 95,
      "chip": "ym2612"
    },
    {
      "channel": 4,
      "note": 56,
      "start": 50.0198,
      "duration": 0.1721,
      "velocity": 91,
      "chip": "ym2612"
    },
    {
      "channel": 5,
      "note": 55,
      "start": 50.0234,
      "duration": 0.1384,
      "velocity": 115,
      "chip": "ym2612"
    },
    {
      "channel": 1,
      "note": 66,
      "start": 50.16,
      "duration": 0.0787,
      "velocity": 95,
      "chip": "ym2612"
    },
    {
      "channel": 5,
      "note": 55,
      "start": 50.1624,
      "duration": 0.1464,
      "velocity": 117,
      "chip": "ym2612"
    },
    {
      "channel": 2,
      "note": 87,
      "start": 50.2082,
      "duration": 0.1736,
      "velocity": 105,
      "chip": "ym2612"
    },
    {
      "channel": 0,
      "note": 92,
      "start": 50.3025,
      "duration": 0.2691,
      "velocity": 105,
      "chip": "ym2612"
    },
    {
      "channel": 1,
      "note": 65,
      "start": 50.3034,
      "duration": 0.0782,
      "velocity": 95,
      "chip": "ym2612"
    },
    {
      "channel": 3,
      "note": 61,
      "start": 50.3049,
      "duration": 0.0771,
      "velocity": 95,
      "chip": "ym2612"
    },
    {
      "channel": 4,
      "note": 49,
      "start": 50.3058,
      "duration": 0.1726,
      "velocity": 91,
      "chip": "ym2612"
    },
    {
      "channel": 5,
      "note": 52,
      "start": 50.3094,
      "duration": 0.1415,
      "velocity": 115,
      "chip": "ym2612"
    },
    {
      "channel": 1,
      "note": 65,
      "start": 50.4459,
      "duration": 0.1739,
      "velocity": 95,
      "chip": "ym2612"
    },
    {
      "channel": 3,
      "note": 61,
      "start": 50.4473,
      "duration": 0.1731,
      "velocity": 95,
      "chip": "ym2612"
    },
    {
      "channel": 5,
      "note": 55,
      "start": 50.4515,
      "duration": 0.0751,
      "velocity": 115,
      "chip": "ym2612"
    },
    {
      "channel": 2,
      "note": 92,
      "start": 50.494,
      "duration": 0.2691,
      "velocity": 105,
      "chip": "ym2612"
    },
    {
      "channel": 5,
      "note": 55,
      "start": 50.5272,
      "duration": 0.0634,
      "velocity": 115,
      "chip": "ym2612"
    },
    {
      "channel": 4,
      "note": 49,
      "start": 50.5902,
      "duration": 0.1735,
      "velocity": 91,
      "chip": "ym2612"
    },
    {
      "channel": 5,
      "note": 55,
      "start": 50.5911,
      "duration": 0.1432,
      "velocity": 115,
      "chip": "ym2612"
    },
    {
      "channel": 0,
      "note": 92,
      "start": 50.7312,
      "duration": 0.2692,
      "velocity": 105,
      "chip": "ym2612"
    },
    {
      "channel": 1,
      "note": 65,
      "start": 50.7321,
      "duration": 0.0782,
      "velocity": 95,
      "chip": "ym2612"
    },
    {
      "channel": 3,
      "note": 61,
      "start": 50.7335,
      "duration": 0.0773,
      "velocity": 95,
      "chip": "ym2612"
    },
    {
      "channel": 5,
      "note": 55,
      "start": 50.7349,
      "duration": 0.1449,
      "velocity": 127,
      "chip": "ym2612"
    },
    {
      "channel": 1,
      "note": 77,
      "start": 50.8745,
      "duration": 0.0786,
      "velocity": 95,
      "chip": "ym2612"
    },
    {
      "channel": 3,
      "note": 73,
      "start": 50.8758,
      "duration": 0.0779,
      "velocity": 95,
      "chip": "ym2612"
    },
    {
      "channel": 4,
      "note": 49,
      "start": 50.8766,
      "duration": 0.1732,
      "velocity": 91,
      "chip": "ym2612"
    },
    {
      "channel": 5,
      "note": 43,
      "start": 50.8803,
      "duration": 0.1394,
      "velocity": 127,
      "chip": "ym2612"
    },
    {
      "channel": 2,
      "note": 92,
      "start": 50.9226,
      "duration": 0.2692,
      "velocity": 105,
      "chip": "ym2612"
    },
    {
      "channel": 1,
      "note": 77,
      "start": 51.0174,
      "duration": 0.2691,
      "velocity": 95,
      "chip": "ym2612"
    },
    {
      "channel": 3,
      "note": 73,
      "start": 51.0189,
      "duration": 0.2683,
      "velocity": 95,
      "chip": "ym2612"
    },
    {
      "channel": 0,
      "note": 92,
      "start": 51.1597,
      "duration": 0.2692,
      "velocity": 105,
      "chip": "ym2612"
    },
    {
      "channel": 4,
      "note": 49,
      "start": 51.1622,
      "duration": 0.1735,
      "velocity": 91,
      "chip": "ym2612"
    },
    {
      "channel": 5,
      "note": 55,
      "start": 51.1658,
      "duration": 0.1387,
      "velocity": 115,
      "chip": "ym2612"
    },
    {
      "channel": 2,
      "note": 92,
      "start": 51.3513,
      "duration": 0.2688,
      "velocity": 105,
      "chip": "ym2612"
    },
    {
      "channel": 1,
      "note": 75,
      "start": 51.4461,
      "duration": 0.1738,
      "velocity": 95,
      "chip": "ym2612"
    },
    {
      "channel": 3,
      "note": 68,
      "start": 51.4475,
      "duration": 0.1727,
      "velocity": 95,
      "chip": "ym2612"
    },
    {
      "channel": 5,
      "note": 52,
      "start": 51.4517,
      "duration": 0.1423,
      "velocity": 115,
      "chip": "ym2612"
    },
    {
      "channel": 0,
      "note": 92,
      "start": 51.5885,
      "duration": 0.0786,
      "velocity": 105,
      "chip": "ym2612"
    },
    {
      "channel": 4,
      "note": 49,
      "start": 51.5909,
      "duration": 0.0777,
      "velocity": 91,
      "chip": "ym2612"
    },
    {
      "channel": 5,
      "note": 55,
      "start": 51.5945,
      "duration": 0.0744,
      "velocity": 115,
      "chip": "ym2612"
    },
    {
      "channel": 5,
      "note": 55,
      "start": 51.6695,
      "duration": 0.0646,
      "velocity": 115,
      "chip": "ym2612"
    },
    {
      "channel": 1,
      "note": 73,
      "start": 51.7316,
      "duration": 0.1741,
      "velocity": 95,
      "chip": "ym2612"
    },
    {
      "channel": 3,
      "note": 68,
      "start": 51.7329,
      "duration": 0.1734,
      "velocity": 95,
      "chip": "ym2612"
    },
    {
      "channel": 4,
      "note": 49,
      "start": 51.7339,
      "duration": 0.1726,
      "velocity": 91,
      "chip": "ym2612"
    },
    {
      "channel": 5,
      "note": 55,
      "start": 51.7347,
      "duration": 0.1417,
      "velocity": 115,
      "chip": "ym2612"
    },
    {
      "channel": 2,
      "note": 92,
      "start": 51.7795,
      "duration": 0.0786,
      "velocity": 105,
      "chip": "ym2612"
    },
    {
      "channel": 0,
      "note": 92,
      "start": 51.8742,
      "duration": 0.2691,
      "velocity": 105,
      "chip": "ym2612"
    },
    {
      "channel": 5,
      "note": 55,
      "start": 51.8771,
      "duration": 0.1453,
      "velocity": 127,
      "chip": "ym2612"
    },
    {
      "channel": 1,
      "note": 71,
      "start": 52.0175,
      "duration": 0.1739,
      "velocity": 95,
      "chip": "ym2612"
    },
    {
      "channel": 3,
      "note": 66,
      "start": 52.0184,
      "duration": 0.1736,
      "velocity": 95,
      "chip": "ym2612"
    },
    {
      "channel": 4,
      "note": 56,
      "start": 52.0193,
      "duration": 0.1729,
      "velocity": 91,
      "chip": "ym2612"
    },
    {
      "channel": 5,
      "note": 43,
      "start": 52.0229,
      "duration": 0.1388,
      "velocity": 127,
      "chip": "ym2612"
    },
    {
      "channel": 2,
      "note": 92,
      "start": 52.0656,
      "duration": 0.2691,
      "velocity": 105,
      "chip": "ym2612"
    },
    {
      "channel": 0,
      "note": 94,
      "start": 52.3029,
      "duration": 0.1739,
      "velocity": 105,
      "chip": "ym2612"
    },
    {
      "channel": 1,
      "note": 70,
      "start": 52.3037,
      "duration": 0.1732,
      "velocity": 95,
      "chip": "ym2612"
    },
    {
      "channel": 3,
      "note": 66,
      "start": 52.3051,
      "duration": 0.1724,
      "velocity": 95,
      "chip": "ym2612"
    },
    {
      "channel": 4,
      "note": 51,
      "start": 52.306,
      "duration": 0.1717,
      "velocity": 91,
      "chip": "ym2612"
    },
    {
      "channel": 5,
      "note": 55,
      "start": 52.3096,
      "duration": 0.1379,
      "velocity": 115,
      "chip": "ym2612"
    },
    {
      "channel": 5,
      "note": 55,
      "start": 52.4481,
      "duration": 0.1468,
      "velocity": 117,
      "chip": "ym2612"
    },
    {
      "channel": 2,
      "note": 94,
      "start": 52.4945,
      "duration": 0.1734,
      "velocity": 105,
      "chip": "ym2612"
    },
    {
      "channel": 0,
      "note": 90,
      "start": 52.5887,
      "duration": 0.269,
      "velocity": 105,
      "chip": "ym2612"
    },
    {
      "channel": 1,
      "note": 66,
      "start": 52.5896,
      "duration": 0.0781,
      "velocity": 95,
      "chip": "ym2612"
    },
    {
      "channel": 3,
      "note": 61,
      "start": 52.591,
      "duration": 0.077,
      "velocity": 95,
      "chip": "ym2612"
    },
    {
      "channel": 4,
      "note": 54,
      "start": 52.5919,
      "duration": 0.1725,
      "velocity": 91,
      "chip": "ym2612"
    },
    {
      "channel": 5,
      "note": 52,
      "start": 52.5955,
      "duration": 0.1414,
      "velocity": 115,
      "chip": "ym2612"
    },
    {
      "channel": 1,
      "note": 65,
      "start": 52.732,
      "duration": 0.1738,
      "velocity": 95,
      "chip": "ym2612"
    },
    {
      "channel": 3,
      "note": 61,
      "start": 52.7334,
      "duration": 0.1731,
      "velocity": 95,
      "chip": "ym2612"
    },
    {
      "channel": 5,
      "note": 55,
      "start": 52.7375,
      "duration": 0.0751,
      "velocity": 115,
      "chip": "ym2612"
    },
    {
      "channel": 2,
      "note": 90,
      "start": 52.7801,
      "duration": 0.2691,
      "velocity": 105,
      "chip": "ym2612"
    },
    {
      "channel": 5,
      "note": 55,
      "start": 52.8132,
      "duration": 0.0634,
      "velocity": 115,
      "chip": "ym2612"
    },
    {
      "channel": 4,
      "note": 54,
      "start": 52.8763,
      "duration": 0.1735,
      "velocity": 91,
      "chip": "ym2612"
    },
    {
      "channel": 5,
      "note": 55,
      "start": 52.8771,
      "duration": 0.1431,
      "velocity": 115,
      "chip": "ym2612"
    },
    {
      "channel": 0,
      "note": 90,
      "start": 53.0172,
      "duration": 0.2692,
      "velocity": 105,
      "chip": "ym2612"
    },
    {
      "channel": 1,
      "note": 66,
      "start": 53.018,
      "duration": 0.1736,
      "velocity": 95,
      "chip": "ym2612"
    },
    {
      "channel": 3,
      "note": 61,
      "start": 53.0194,
      "duration": 0.1728,
      "velocity": 95,
      "chip": "ym2612"
    },
    {
      "channel": 5,
      "note": 55,
      "start": 53.0207,
      "duration": 0.1444,
      "velocity": 127,
      "chip": "ym2612"
    },
    {
      "channel": 4,
      "note": 54,
      "start": 53.1621,
      "duration": 0.2691,
      "velocity": 91,
      "chip": "ym2612"
    },
    {
      "channel": 5,
      "note": 43,
      "start": 53.1657,
      "duration": 0.14,
      "velocity": 127,
      "chip": "ym2612"
    },
    {
      "channel": 2,
      "note": 90,
      "start": 53.2086,
      "duration": 0.2692,
      "velocity": 105,
      "chip": "ym2612"
    },
    {
      "channel": 1,
      "note": 65,
      "start": 53.3035,
      "duration": 0.0786,
      "velocity": 95,
      "chip": "ym2612"
    },
    {
      "channel": 3,
      "note": 61,
      "start": 53.3049,
      "duration": 0.0778,
      "velocity": 95,
      "chip": "ym2612"
    },
    {
      "channel": 0,
      "note": 90,
      "start": 53.4458,
      "duration": 0.2692,
      "velocity": 105,
      "chip": "ym2612"
    },
    {
      "channel": 1,
      "note": 66,
      "start": 53.4468,
      "duration": 0.1735,
      "velocity": 95,
      "chip": "ym2612"
    },
    {
      "channel": 3,
      "note": 61,
      "start": 53.4482,
      "duration": 0.1727,
      "velocity": 95,
      "chip": "ym2612"
    },
    {
      "channel": 5,
      "note": 55,
      "start": 53.4523,
      "duration": 0.1386,
      "velocity": 115,
      "chip": "ym2612"
    },
    {
      "channel": 4,
      "note": 54,
      "start": 53.5907,
      "duration": 0.0786,
      "velocity": 91,
      "chip": "ym2612"
    },
    {
      "channel": 2,
      "note": 90,
      "start": 53.6373,
      "duration": 0.2691,
      "velocity": 105,
      "chip": "ym2612"
    },
    {
      "channel": 1,
      "note": 65,
      "start": 53.7321,
      "duration": 0.0786,
      "velocity": 95,
      "chip": "ym2612"
    },
    {
      "channel": 3,
      "note": 61,
      "start": 53.7335,
      "duration": 0.0779,
      "velocity": 95,
      "chip": "ym2612"
    },
    {
      "channel": 4,
      "note": 54,
      "start": 53.7345,
      "duration": 0.1726,
      "velocity": 91,
      "chip": "ym2612"
    },
    {
      "channel": 5,
      "note": 52,
      "start": 53.7381,
      "duration": 0.1424,
      "velocity": 115,
      "chip": "ym2612"
    },
    {
      "channel": 0,
      "note": 90,
      "start": 53.8746,
      "duration": 0.0785,
      "velocity": 105,
      "chip": "ym2612"
    },
    {
      "channel": 1,
      "note": 66,
      "start": 53.8754,
      "duration": 0.173,
      "velocity": 95,
      "chip": "ym2612"
    },
    {
      "channel": 3,
      "note": 61,
      "start": 53.8769,
      "duration": 0.1722,
      "velocity": 95,
      "chip": "ym2612"
    },
    {
      "channel": 5,
      "note": 55,
      "start": 53.881,
      "duration": 0.0743,
      "velocity": 115,
      "chip": "ym2612"
    },
    {
      "channel": 5,
      "note": 55,
      "start": 53.9559,
      "duration": 0.0635,
      "velocity": 115,
      "chip": "ym2612"
    },
    {
      "channel": 4,
      "note": 66,
      "start": 54.0191,
      "duration": 0.2689,
      "velocity": 91,
      "chip": "ym2612"
    },
    {
      "channel": 5,
      "note": 55,
      "start": 54.02,
      "duration": 0.1434,
      "velocity": 115,
      "chip": "ym2612"
    },
    {
      "channel": 2,
      "note": 90,
      "start": 54.0656,
      "duration": 0.0785,
      "velocity": 105,
      "chip": "ym2612"
    },
    {
      "channel": 0,
      "note": 90,
      "start": 54.1603,
      "duration": 0.0786,
      "velocity": 105,
      "chip": "ym2612"
    },
    {
      "channel": 1,
      "note": 66,
      "start": 54.1612,
      "duration": 0.0777,
      "velocity": 95,
      "chip": "ym2612"
    },
    {
      "channel": 3,
      "note": 61,
      "start": 54.1627,
      "duration": 0.0766,
      "velocity": 95,
      "chip": "ym2612"
    },
    {
      "channel": 5,
      "note": 55,
      "start": 54.164,
      "duration": 0.1448,
      "velocity": 127,
      "chip": "ym2612"
    },
    {
      "channel": 0,
      "note": 94,
      "start": 54.3032,
      "duration": 0.1738,
      "velocity": 105,
      "chip": "ym2612"
    },
    {
      "channel": 1,
      "note": 73,
      "start": 54.3041,
      "duration": 0.173,
      "velocity": 95,
      "chip": "ym2612"
    },
    {
      "channel": 3,
      "note": 66,
      "start": 54.3052,
      "duration": 0.1726,
      "velocity": 95,
      "chip": "ym2612"
    },
    {
      "channel": 5,
      "note": 43,
      "start": 54.3093,
      "duration": 0.1389,
      "velocity": 127,
      "chip": "ym2612"
    },
    {
      "channel": 2,
      "note": 90,
      "start": 54.3517,
      "duration": 0.0786,
      "velocity": 105,
      "chip": "ym2612"
    },
    {
      "channel": 4,
      "note": 66,
      "start": 54.448,
      "duration": 0.0786,
      "velocity": 91,
      "chip": "ym2612"
    },
    {
      "channel": 2,
      "note": 94,
      "start": 54.4947,
      "duration": 0.1737,
      "velocity": 105,
      "chip": "ym2612"
    },
    {
      "channel": 0,
      "note": 90,
      "start": 54.5888,
      "duration": 0.174,
      "velocity": 105,
      "chip": "ym2612"
    },
    {
      "channel": 1,
      "note": 70,
      "start": 54.5897,
      "duration": 0.1732,
      "velocity": 95,
      "chip": "ym2612"
    },
    {
      "channel": 3,
      "note": 66,
      "start": 54.591,
      "duration": 0.1725,
      "velocity": 95,
      "chip": "ym2612"
    },
    {
      "channel": 4,
      "note": 54,
      "start": 54.592,
      "duration": 0.1718,
      "velocity": 91,
      "chip": "ym2612"
    },
    {
      "channel": 5,
      "note": 55,
      "start": 54.5956,
      "duration": 0.138,
      "velocity": 115,
      "chip": "ym2612"
    },
    {
      "channel": 5,
      "note": 55,
      "start": 54.7342,
      "duration": 0.1468,
      "velocity": 117,
      "chip": "ym2612"
    },
    {
      "channel": 2,
      "note": 90,
      "start": 54.7803,
      "duration": 0.1736,
      "velocity": 105,
      "chip": "ym2612"
    },
    {
      "channel": 0,
      "note": 90,
      "start": 54.8747,
      "duration": 0.2691,
      "velocity": 105,
      "chip": "ym2612"
    },
    {
      "channel": 1,
      "note": 65,
      "start": 54.8756,
      "duration": 0.0781,
      "velocity": 95,
      "chip": "ym2612"
    },
    {
      "channel": 3,
      "note": 63,
      "start": 54.877,
      "duration": 0.077,
      "velocity": 95,
      "chip": "ym2612"
    },
    {
      "channel": 4,
      "note": 51,
      "start": 54.878,
      "duration": 0.0763,
      "velocity": 91,
      "chip": "ym2612"
    },
    {
      "channel": 5,
      "note": 52,
      "start": 54.8816,
      "duration": 0.1414,
      "velocity": 115,
      "chip": "ym2612"
    },
    {
      "channel": 1,
      "note": 66,
      "start": 55.018,
      "duration": 0.1739,
      "velocity": 95,
      "chip": "ym2612"
    },
    {
      "channel": 3,
      "note": 63,
      "start": 55.0194,
      "duration": 0.1731,
      "velocity": 95,
      "chip": "ym2612"
    },
    {
      "channel": 5,
      "note": 55,
      "start": 55.0236,
      "duration": 0.0751,
      "velocity": 115,
      "chip": "ym2612"
    },
    {
      "channel": 2,
      "note": 90,
      "start": 55.0661,
      "duration": 0.2691,
      "velocity": 105,
      "chip": "ym2612"
    },
    {
      "channel": 5,
      "note": 55,
      "start": 55.0992,
      "duration": 0.0634,
      "velocity": 115,
      "chip": "ym2612"
    },
    {
      "channel": 4,
      "note": 51,
      "start": 55.1623,
      "duration": 0.0786,
      "velocity": 91,
      "chip": "ym2612"
    },
    {
      "channel": 5,
      "note": 55,
      "start": 55.1632,
      "duration": 0.1432,
      "velocity": 115,
      "chip": "ym2612"
    },
    {
      "channel": 0,
      "note": 90,
      "start": 55.3032,
      "duration": 0.2691,
      "velocity": 105,
      "chip": "ym2612"
    },
    {
      "channel": 1,
      "note": 65,
      "start": 55.3041,
      "duration": 0.0783,
      "velocity": 95,
      "chip": "ym2612"
    },
    {
      "channel": 3,
      "note": 63,
      "start": 55.3056,
      "duration": 0.0774,
      "velocity": 95,
      "chip": "ym2612"
    },
    {
      "channel": 5,
      "note": 55,
      "start": 55.307,
      "duration": 0.145,
      "velocity": 127,
      "chip": "ym2612"
    },
    {
      "channel": 1,
      "note": 66,
      "start": 55.4467,
      "duration": 0.1738,
      "velocity": 95,
      "chip": "ym2612"
    },
    {
      "channel": 3,
      "note": 63,
      "start": 55.4481,
      "duration": 0.173,
      "velocity": 95,
      "chip": "ym2612"
    },
    {
      "channel": 4,
      "note": 51,
      "start": 55.4489,
      "duration": 0.0778,
      "velocity": 91,
      "chip": "ym2612"
    },
    {
      "channel": 5,
      "note": 43,
      "start": 55.4526,
      "duration": 0.1383,
      "velocity": 127,
      "chip": "ym2612"
    },
    {
      "channel": 2,
      "note": 90,
      "start": 55.4946,
      "duration": 0.2692,
      "velocity": 105,
      "chip": "ym2612"
    },
    {
      "channel": 0,
      "note": 90,
      "start": 55.7319,
      "duration": 0.2692,
      "velocity": 105,
      "chip": "ym2612"
    },
    {
      "channel": 1,
      "note": 65,
      "start": 55.7328,
      "duration": 0.0782,
      "velocity": 95,
      "chip": "ym2612"
    },
    {
      "channel": 3,
      "note": 63,
      "start": 55.7342,
      "duration": 0.0774,
      "velocity": 95,
      "chip": "ym2612"
    },
    {
      "channel": 4,
      "note": 63,
      "start": 55.7351,
      "duration": 0.0767,
      "velocity": 91,
      "chip": "ym2612"
    },
    {
      "channel": 5,
      "note": 55,
      "start": 55.7387,
      "duration": 0.1391,
      "velocity": 115,
      "chip": "ym2612"
    },
    {
      "channel": 1,
      "note": 66,
      "start": 55.8753,
      "duration": 0.1738,
      "velocity": 95,
      "chip": "ym2612"
    },
    {
      "channel": 3,
      "note": 63,
      "start": 55.8767,
      "duration": 0.173,
      "velocity": 95,
      "chip": "ym2612"
    },
    {
      "channel": 4,
      "note": 51,
      "start": 55.8776,
      "duration": 0.0777,
      "velocity": 91,
      "chip": "ym2612"
    },
    {
      "channel": 2,
      "note": 90,
      "start": 55.9233,
      "duration": 0.2692,
      "velocity": 105,
      "chip": "ym2612"
    },
    {
      "channel": 5,
      "note": 52,
      "start": 56.0228,
      "duration": 0.1439,
      "velocity": 115,
      "chip": "ym2612"
    },
    {
      "channel": 0,
      "note": 90,
      "start": 56.1605,
      "duration": 0.0786,
      "velocity": 105,
      "chip": "ym2612"
    },
    {
      "channel": 1,
      "note": 66,
      "start": 56.1615,
      "duration": 0.173,
      "velocity": 95,
      "chip": "ym2612"
    },
    {
      "channel": 3,
      "note": 63,
      "start": 56.1628,
      "duration": 0.1723,
      "velocity": 95,
      "chip": "ym2612"
    },
    {
      "channel": 4,
      "note": 58,
      "start": 56.1637,
      "duration": 0.0771,
      "velocity": 91,
      "chip": "ym2612"
    },
    {
      "channel": 5,
      "note": 55,
      "start": 56.1673,
      "duration": 0.0737,
      "velocity": 115,
      "chip": "ym2612"
    },
    {
      "channel": 5,
      "note": 55,
      "start": 56.2417,
      "duration": 0.0639,
      "velocity": 115,
      "chip": "ym2612"
    },
    {
      "channel": 4,
      "note": 58,
      "start": 56.3052,
      "duration": 0.174,
      "velocity": 91,
      "chip": "ym2612"
    },
    {
      "channel": 5,
      "note": 55,
      "start": 56.3061,
      "duration": 0.1433,
      "velocity": 115,
      "chip": "ym2612"
    },
    {
      "channel": 2,
      "note": 90,
      "start": 56.3517,
      "duration": 0.0786,
      "velocity": 105,
      "chip": "ym2612"
    },
    {
      "channel": 0,
      "note": 90,
      "start": 56.4463,
      "duration": 0.0786,
      "velocity": 105,
      "chip": "ym2612"
    },
    {
      "channel": 1,
      "note": 66,
      "start": 56.4473,
      "duration": 0.0778,
      "velocity": 95,
      "chip": "ym2612"
    },
    {
      "channel": 3,
      "note": 63,
      "start": 56.4487,
      "duration": 0.0766,
      "velocity": 95,
      "chip": "ym2612"
    },
    {
      "channel": 5,
      "note": 55,
      "start": 56.45,
      "duration": 0.1451,
      "velocity": 127,
      "chip": "ym2612"
    },
    {
      "channel": 0,
      "note": 94,
      "start": 56.5893,
      "duration": 0.1738,
      "velocity": 105,
      "chip": "ym2612"
    },
    {
      "channel": 1,
      "note": 73,
      "start": 56.5902,
      "duration": 0.173,
      "velocity": 95,
      "chip": "ym2612"
    },
    {
      "channel": 3,
      "note": 66,
      "start": 56.5912,
      "duration": 0.1726,
      "velocity": 95,
      "chip": "ym2612"
    },
    {
      "channel": 4,
      "note": 54,
      "start": 56.5921,
      "duration": 0.172,
      "velocity": 91,
      "chip": "ym2612"
    },
    {
      "channel": 5,
      "note": 43,
      "start": 56.5957,
      "duration": 0.1382,
      "velocity": 127,
      "chip": "ym2612"
    },
    {
      "channel": 2,
      "note": 90,
      "start": 56.6378,
      "duration": 0.0786,
      "velocity": 105,
      "chip": "ym2612"
    },
    {
      "channel": 2,
      "note": 94,
      "start": 56.7808,
      "duration": 0.1737,
      "velocity": 105,
      "chip": "ym2612"
    },
    {
      "channel": 0,
      "note": 90,
      "start": 56.8749,
      "duration": 0.1739,
      "velocity": 105,
      "chip": "ym2612"
    },
    {
      "channel": 1,
      "note": 70,
      "start": 56.8758,
      "duration": 0.1732,
      "velocity": 95,
      "chip": "ym2612"
    },
    {
      "channel": 3,
      "note": 66,
      "start": 56.8771,
      "duration": 0.1725,
      "velocity": 95,
      "chip": "ym2612"
    },
    {
      "channel": 4,
      "note": 51,
      "start": 56.878,
      "duration": 0.0772,
      "velocity": 91,
      "chip": "ym2612"
    },
    {
      "channel": 5,
      "note": 55,
      "start": 56.8817,
      "duration": 0.138,
      "velocity": 115,
      "chip": "ym2612"
    },
    {
      "channel": 5,
      "note": 55,
      "start": 57.0202,
      "duration": 0.1469,
      "velocity": 117,
      "chip": "ym2612"
    },
    {
      "channel": 2,
      "note": 90,
      "start": 57.0664,
      "duration": 0.1735,
      "velocity": 105,
      "chip": "ym2612"
    },
    {
      "channel": 0,
      "note": 92,
      "start": 57.1607,
      "duration": 0.2691,
      "velocity": 105,
      "chip": "ym2612"
    },
    {
      "channel": 1,
      "note": 71,
      "start": 57.1617,
      "duration": 0.0781,
      "velocity": 95,
      "chip": "ym2612"
    },
    {
      "channel": 3,
      "note": 68,
      "start": 57.1631,
      "duration": 0.077,
      "velocity": 95,
      "chip": "ym2612"
    },
    {
      "channel": 4,
      "note": 56,
      "start": 57.1641,
      "duration": 0.1724,
      "velocity": 91,
      "chip": "ym2612"
    },
    {
      "channel": 5,
      "note": 52,
      "start": 57.1677,
      "duration": 0.1414,
      "velocity": 115,
      "chip": "ym2612"
    },
    {
      "channel": 1,
      "note": 70,
      "start": 57.3041,
      "duration": 0.1739,
      "velocity": 95,
      "chip": "ym2612"
    },
    {
      "channel": 3,
      "note": 68,
      "start": 57.3055,
      "duration": 0.173,
      "velocity": 95,
      "chip": "ym2612"
    },
    {
      "channel": 5,
      "note": 55,
      "start": 57.3097,
      "duration": 0.075,
      "velocity": 115,
      "chip": "ym2612"
    },
    {
      "channel": 2,
      "note": 92,
      "start": 57.3522,
      "duration": 0.2691,
      "velocity": 105,
      "chip": "ym2612"
    },
    {
      "channel": 5,
      "note": 55,
      "start": 57.3853,
      "duration": 0.0634,
      "velocity": 115,
      "chip": "ym2612"
    },
    {
      "channel": 4,
      "note": 56,
      "start": 57.4484,
      "duration": 0.1735,
      "velocity": 91,
      "chip": "ym2612"
    },
    {
      "channel": 5,
      "note": 55,
      "start": 57.4492,
      "duration": 0.1431,
      "velocity": 115,
      "chip": "ym2612"
    },
    {
      "channel": 0,
      "note": 92,
      "start": 57.5893,
      "duration": 0.2692,
      "velocity": 105,
      "chip": "ym2612"
    },
    {
      "channel": 1,
      "note": 71,
      "start": 57.5902,
      "duration": 0.1735,
      "velocity": 95,
      "chip": "ym2612"
    },
    {
      "channel": 3,
      "note": 68,
      "start": 57.5915,
      "duration": 0.1728,
      "velocity": 95,
      "chip": "ym2612"
    },
    {
      "channel": 5,
      "note": 55,
      "start": 57.5929,
      "duration": 0.1444,
      "velocity": 127,
      "chip": "ym2612"
    },
    {
      "channel": 4,
      "note": 56,
      "start": 57.7341,
      "duration": 0.0786,
      "velocity": 91,
      "chip": "ym2612"
    },
    {
      "channel": 5,
      "note": 43,
      "start": 57.7378,
      "duration": 0.1403,
      "velocity": 127,
      "chip": "ym2612"
    },
    {
      "channel": 2,
      "note": 92,
      "start": 57.7808,
      "duration": 0.2692,
      "velocity": 105,
      "chip": "ym2612"
    },
    {
      "channel": 1,
      "note": 70,
      "start": 57.8756,
      "duration": 0.0786,
      "velocity": 95,
      "chip": "ym2612"
    },
    {
      "channel": 3,
      "note": 68,
      "start": 57.877,
      "duration": 0.0779,
      "velocity": 95,
      "chip": "ym2612"
    },
    {
      "channel": 4,
      "note": 56,
      "start": 57.8779,
      "duration": 0.0771,
      "velocity": 91,
      "chip": "ym2612"
    },
    {
      "channel": 0,
      "note": 92,
      "start": 58.0179,
      "duration": 0.2691,
      "velocity": 105,
      "chip": "ym2612"
    },
    {
      "channel": 1,
      "note": 71,
      "start": 58.0189,
      "duration": 0.1735,
      "velocity": 95,
      "chip": "ym2612"
    },
    {
      "channel": 3,
      "note": 68,
      "start": 58.0203,
      "duration": 0.1727,
      "velocity": 95,
      "chip": "ym2612"
    },
    {
      "channel": 4,
      "note": 56,
      "start": 58.0212,
      "duration": 0.172,
      "velocity": 91,
      "chip": "ym2612"
    },
    {
      "channel": 5,
      "note": 55,
      "start": 58.0249,
      "duration": 0.1378,
      "velocity": 115,
      "chip": "ym2612"
    },
    {
      "channel": 2,
      "note": 92,
      "start": 58.2094,
      "duration": 0.2691,
      "velocity": 105,
      "chip": "ym2612"
    },
    {
      "channel": 1,
      "note": 71,
      "start": 58.3043,
      "duration": 0.0785,
      "velocity": 95,
      "chip": "ym2612"
    },
    {
      "channel": 3,
      "note": 68,
      "start": 58.3057,
      "duration": 0.0778,
      "velocity": 95,
      "chip": "ym2612"
    },
    {
      "channel": 4,
      "note": 56,
      "start": 58.3066,
      "duration": 0.2682,
      "velocity": 91,
      "chip": "ym2612"
    },
    {
      "channel": 5,
      "note": 52,
      "start": 58.3102,
      "duration": 0.1424,
      "velocity": 115,
      "chip": "ym2612"
    },
    {
      "channel": 0,
      "note": 92,
      "start": 58.4466,
      "duration": 0.0786,
      "velocity": 105,
      "chip": "ym2612"
    },
    {
      "channel": 1,
      "note": 70,
      "start": 58.4476,
      "duration": 0.173,
      "velocity": 95,
      "chip": "ym2612"
    },
    {
      "channel": 3,
      "note": 68,
      "start": 58.449,
      "duration": 0.1721,
      "velocity": 95,
      "chip": "ym2612"
    },
    {
      "channel": 5,
      "note": 55,
      "start": 58.4532,
      "duration": 0.0742,
      "velocity": 115,
      "chip": "ym2612"
    },
    {
      "channel": 5,
      "note": 55,
      "start": 58.528,
      "duration": 0.063,
      "velocity": 115,
      "chip": "ym2612"
    },
    {
      "channel": 5,
      "note": 55,
      "start": 58.5917,
      "duration": 0.1443,
      "velocity": 115,
      "chip": "ym2612"
    },
    {
      "channel": 2,
      "note": 92,
      "start": 58.6377,
      "duration": 0.0786,
      "velocity": 105,
      "chip": "ym2612"
    },
    {
      "channel": 0,
      "note": 92,
      "start": 58.7324,
      "duration": 0.0785,
      "velocity": 105,
      "chip": "ym2612"
    },
    {
      "channel": 1,
      "note": 71,
      "start": 58.7333,
      "duration": 0.0778,
      "velocity": 95,
      "chip": "ym2612"
    },
    {
      "channel": 3,
      "note": 68,
      "start": 58.7347,
      "duration": 0.0767,
      "velocity": 95,
      "chip": "ym2612"
    },
    {
      "channel": 4,
      "note": 59,
      "start": 58.7357,
      "duration": 0.0758,
      "velocity": 91,
      "chip": "ym2612"
    },
    {
      "channel": 5,
      "note": 55,
      "start": 58.7366,
      "duration": 0.1446,
      "velocity": 127,
      "chip": "ym2612"
    },
    {
      "channel": 0,
      "note": 95,
      "start": 58.8752,
      "duration": 0.1739,
      "velocity": 105,
      "chip": "ym2612"
    },
    {
      "channel": 1,
      "note": 71,
      "start": 58.8761,
      "duration": 0.0782,
      "velocity": 95,
      "chip": "ym2612"
    },
    {
      "channel": 3,
      "note": 68,
      "start": 58.8772,
      "duration": 0.173,
      "velocity": 95,
      "chip": "ym2612"
    },
    {
      "channel": 4,
      "note": 63,
      "start": 58.878,
      "duration": 0.0774,
      "velocity": 91,
      "chip": "ym2612"
    },
    {
      "channel": 5,
      "note": 43,
      "start": 58.8817,
      "duration": 0.1389,
      "velocity": 127,
      "chip": "ym2612"
    },
    {
      "channel": 2,
      "note": 92,
      "start": 58.9239,
      "duration": 0.0785,
      "velocity": 105,
      "chip": "ym2612"
    },
    {
      "channel": 1,
      "note": 70,
      "start": 59.0186,
      "duration": 0.0786,
      "velocity": 95,
      "chip": "ym2612"
    },
    {
      "channel": 4,
      "note": 63,
      "start": 59.0204,
      "duration": 0.0779,
      "velocity": 91,
      "chip": "ym2612"
    },
    {
      "channel": 2,
      "note": 95,
      "start": 59.0668,
      "duration": 0.1735,
      "velocity": 105,
      "chip": "ym2612"
    },
    {
      "channel": 0,
      "note": 87,
      "start": 59.1609,
      "duration": 0.1739,
      "velocity": 105,
      "chip": "ym2612"
    },
    {
      "channel": 1,
      "note": 68,
      "start": 59.1618,
      "duration": 0.0783,
      "velocity": 95,
      "chip": "ym2612"
    },
    {
      "channel": 3,
      "note": 63,
      "start": 59.1632,
      "duration": 0.1729,
      "velocity": 95,
      "chip": "ym2612"
    },
    {
      "channel": 5,
      "note": 55,
      "start": 59.1673,
      "duration": 0.1392,
      "velocity": 115,
      "chip": "ym2612"
    },
    {
      "channel": 1,
      "note": 66,
      "start": 59.3043,
      "duration": 0.0786,
      "velocity": 95,
      "chip": "ym2612"
    },
    {
      "channel": 4,
      "note": 56,
      "start": 59.3062,
      "duration": 0.0779,
      "velocity": 91,
      "chip": "ym2612"
    },
    {
      "channel": 5,
      "note": 55,
      "start": 59.3071,
      "duration": 0.146,
      "velocity": 117,
      "chip": "ym2612"
    },
    {
      "channel": 2,
      "note": 87,
      "start": 59.3524,
      "duration": 0.1736,
      "velocity": 105,
      "chip": "ym2612"
    },
    {
      "channel": 0,
      "note": 92,
      "start": 59.4468,
      "duration": 0.2691,
      "velocity": 105,
      "chip": "ym2612"
    },
    {
      "channel": 1,
      "note": 65,
      "start": 59.4476,
      "duration": 0.0782,
      "velocity": 95,
      "chip": "ym2612"
    },
    {
      "channel": 3,
      "note": 61,
      "start": 59.449,
      "duration": 0.0771,
      "velocity": 95,
      "chip": "ym2612"
    },
    {
      "channel": 4,
      "note": 49,
      "start": 59.45,
      "duration": 0.1726,
      "velocity": 91,
      "chip": "ym2612"
    },
    {
      "channel": 5,
      "note": 52,
      "start": 59.4536,
      "duration": 0.1415,
      "velocity": 115,
      "chip": "ym2612"
    },
    {
      "channel": 1,
      "note": 65,
      "start": 59.5901,
      "duration": 0.1739,
      "velocity": 95,
      "chip": "ym2612"
    },
    {
      "channel": 3,
      "note": 61,
      "start": 59.5915,
      "duration": 0.1731,
      "velocity": 95,
      "chip": "ym2612"
    },
    {
      "channel": 5,
      "note": 55,
      "start": 59.5957,
      "duration": 0.0751,
      "velocity": 115,
      "chip": "ym2612"
    },
    {
      "channel": 2,
      "note": 92,
      "start": 59.6382,
      "duration": 0.2691,
      "velocity": 105,
      "chip": "ym2612"
    },
    {
      "channel": 5,
      "note": 55,
      "start": 59.6714,
      "duration": 0.0633,
      "velocity": 115,
      "chip": "ym2612"
    },
    {
      "channel": 4,
      "note": 49,
      "start": 59.7344,
      "duration": 0.1735,
      "velocity": 91,
      "chip": "ym2612"
    },
    {
      "channel": 5,
      "note": 55,
      "start": 59.7352,
      "duration": 0.1432,
      "velocity": 115,
      "chip": "ym2612"
    },
    {
      "channel": 0,
      "note": 92,
      "start": 59.8753,
      "duration": 0.2692,
      "velocity": 105,
      "chip": "ym2612"
    },
    {
      "channel": 1,
      "note": 65,
      "start": 59.8763,
      "duration": 0.0782,
      "velocity": 95,
      "chip": "ym2612"
    },
    {
      "channel": 3,
      "note": 61,
      "start": 59.8777,
      "duration": 0.0773,
      "velocity": 95,
      "chip": "ym2612"
    },
    {
      "channel": 5,
      "note": 55,
      "start": 59.8791,
      "duration": 0.145,
      "velocity": 127,
      "chip": "ym2612"
    },
    {
      "channel": 1,
      "note": 77,
      "start": 60.0187,
      "duration": 0.0786,
      "velocity": 95,
      "chip": "ym2612"
    },
    {
      "channel": 3,
      "note": 73,
      "start": 60.02,
      "duration": 0.0779,
      "velocity": 95,
      "chip": "ym2612"
    },
    {
      "channel": 4,
      "note": 49,
      "start": 60.021,
      "duration": 0.0772,
      "velocity": 91,
      "chip": "ym2612"
    },
    {
      "channel": 5,
      "note": 43,
      "start": 60.0247,
      "duration": 0.1396,
      "velocity": 127,
      "chip": "ym2612"
    },
    {
      "channel": 2,
      "note": 92,
      "start": 60.0668,
      "duration": 0.2692,
      "velocity": 105,
      "chip": "ym2612"
    },
    {
      "channel": 1,
      "note": 77,
      "start": 60.1616,
      "duration": 0.2691,
      "velocity": 95,
      "chip": "ym2612"
    },
    {
      "channel": 3,
      "note": 73,
      "start": 60.1631,
      "duration": 0.2683,
      "velocity": 95,
      "chip": "ym2612"
    },
    {
      "channel": 4,
      "note": 49,
      "start": 60.164,
      "duration": 0.0777,
      "velocity": 91,
      "chip": "ym2612"
    },
    {
      "channel": 0,
      "note": 92,
      "start": 60.3039,
      "duration": 0.2692,
      "velocity": 105,
      "chip": "ym2612"
    },
    {
      "channel": 4,
      "note": 49,
      "start": 60.3064,
      "duration": 0.1734,
      "velocity": 91,
      "chip": "ym2612"
    },
    {
      "channel": 5,
      "note": 55,
      "start": 60.31,
      "duration": 0.1386,
      "velocity": 115,
      "chip": "ym2612"
    },
    {
      "channel": 2,
      "note": 92,
      "start": 60.4955,
      "duration": 0.2688,
      "velocity": 105,
      "chip": "ym2612"
    },
    {
      "channel": 1,
      "note": 75,
      "start": 60.5902,
      "duration": 0.1739,
      "velocity": 95,
      "chip": "ym2612"
    },
    {
      "channel": 3,
      "note": 68,
      "start": 60.5917,
      "duration": 0.1727,
      "velocity": 95,
      "chip": "ym2612"
    },
    {
      "channel": 4,
      "note": 49,
      "start": 60.5925,
      "duration": 0.1721,
      "velocity": 91,
      "chip": "ym2612"
    },
    {
      "channel": 5,
      "note": 52,
      "start": 60.5962,
      "duration": 0.1415,
      "velocity": 122,
      "chip": "ym2612"
    },
    {
      "channel": 0,
      "note": 92,
      "start": 60.7327,
      "duration": 0.0785,
      "velocity": 105,
      "chip": "ym2612"
    },
    {
      "channel": 5,
      "note": 52,
      "start": 60.7383,
      "duration": 0.1399,
      "velocity": 122,
      "chip": "ym2612"
    },
    {
      "channel": 1,
      "note": 73,
      "start": 60.8758,
      "duration": 0.1741,
      "velocity": 95,
      "chip": "ym2612"
    },
    {
      "channel": 3,
      "note": 68,
      "start": 60.8771,
      "duration": 0.1734,
      "velocity": 95,
      "chip": "ym2612"
    },
    {
      "channel": 4,
      "note": 49,
      "start": 60.878,
      "duration": 0.1727,
      "velocity": 91,
      "chip": "ym2612"
    },
    {
      "channel": 2,
      "note": 92,
      "start": 60.9237,
      "duration": 0.0786,
      "velocity": 105,
      "chip": "ym2612"
    },
    {
      "channel": 0,
      "note": 92,
      "start": 61.0184,
      "duration": 0.2691,
      "velocity": 105,
      "chip": "ym2612"
    },
    {
      "channel": 5,
      "note": 52,
      "start": 61.0241,
      "duration": 0.1426,
      "velocity": 127,
      "chip": "ym2612"
    },
    {
      "channel": 1,
      "note": 71,
      "start": 61.1617,
      "duration": 0.1739,
      "velocity": 95,
      "chip": "ym2612"
    },
    {
      "channel": 3,
      "note": 66,
      "start": 61.1627,
      "duration": 0.1736,
      "velocity": 95,
      "chip": "ym2612"
    },
    {
      "channel": 4,
      "note": 61,
      "start": 61.1635,
      "duration": 0.1729,
      "velocity": 91,
      "chip": "ym2612"
    },
    {
      "channel": 5,
      "note": 43,
      "start": 61.1672,
      "duration": 0.1415,
      "velocity": 122,
      "chip": "ym2612"
    },
    {
      "channel": 2,
      "note": 92,
      "start": 61.2099,
      "duration": 0.2691,
      "velocity": 105,
      "chip": "ym2612"
    },
    {
      "channel": 5,
      "note": 47,
      "start": 61.3093,
      "duration": 0.0788,
      "velocity": 122,
      "chip": "ym2612"
    },
    {
      "channel": 5,
      "note": 47,
      "start": 61.3887,
      "duration": 0.0645,
      "velocity": 122,
      "chip": "ym2612"
    },
    {
      "channel": 0,
      "note": 94,
      "start": 61.4471,
      "duration": 0.1738,
      "velocity": 105,
      "chip": "ym2612"
    },
    {
      "channel": 1,
      "note": 70,
      "start": 61.448,
      "duration": 0.1731,
      "velocity": 95,
      "chip": "ym2612"
    },
    {
      "channel": 3,
      "note": 66,
      "start": 61.4493,
      "duration": 0.1724,
      "velocity": 95,
      "chip": "ym2612"
    },
    {
      "channel": 4,
      "note": 49,
      "start": 61.4502,
      "duration": 0.1717,
      "velocity": 91,
      "chip": "ym2612"
    },
    {
      "channel": 5,
      "note": 47,
      "start": 61.4538,
      "duration": 0.1407,
      "velocity": 122,
      "chip": "ym2612"
    },
    {
      "channel": 5,
      "note": 40,
      "start": 61.5951,
      "duration": 0.1445,
      "velocity": 117,
      "chip": "ym2612"
    },
    {
      "channel": 2,
      "note": 94,
      "start": 61.6387,
      "duration": 0.1734,
      "velocity": 105,
      "chip": "ym2612"
    },
    {
      "channel": 0,
      "note": 78,
      "start": 61.7332,
      "duration": 0.9355,
      "velocity": 105,
      "chip": "ym2612"
    },
    {
      "channel": 1,
      "note": 66,
      "start": 61.7341,
      "duration": 0.0777,
      "velocity": 95,
      "chip": "ym2612"
    },
    {
      "channel": 3,
      "note": 61,
      "start": 61.7356,
      "duration": 0.0766,
      "velocity": 95,
      "chip": "ym2612"
    },
    {
      "channel": 4,
      "note": 54,
      "start": 61.7366,
      "duration": 0.7277,
      "velocity": 91,
      "chip": "ym2612"
    },
    {
      "channel": 5,
      "note": 52,
      "start": 61.7402,
      "duration": 0.141,
      "velocity": 115,
      "chip": "ym2612"
    },
    {
      "channel": 1,
      "note": 65,
      "start": 61.8762,
      "duration": 0.1739,
      "velocity": 95,
      "chip": "ym2612"
    },
    {
      "channel": 3,
      "note": 61,
      "start": 61.8776,
      "duration": 0.1732,
      "velocity": 95,
      "chip": "ym2612"
    },
    {
      "channel": 5,
      "note": 55,
      "start": 61.8817,
      "duration": 0.0751,
      "velocity": 115,
      "chip": "ym2612"
    },
    {
      "channel": 2,
      "note": 78,
      "start": 61.9247,
      "duration": 0.9354,
      "velocity": 105,
      "chip": "ym2612"
    },
    {
      "channel": 5,
      "note": 55,
      "start": 61.9574,
      "duration": 0.063,
      "velocity": 115,
      "chip": "ym2612"
    },
    {
      "channel": 5,
      "note": 55,
      "start": 62.021,
      "duration": 0.143,
      "velocity": 115,
      "chip": "ym2612"
    },
    {
      "channel": 1,
      "note": 66,
      "start": 62.1618,
      "duration": 0.174,
      "velocity": 95,
      "chip": "ym2612"
    },
    {
      "channel": 3,
      "note": 61,
      "start": 62.1632,
      "duration": 0.1732,
      "velocity": 95,
      "chip": "ym2612"
    },
    {
      "channel": 5,
      "note": 55,
      "start": 62.1646,
      "duration": 0.1444,
      "velocity": 127,
      "chip": "ym2612"
    },
    {
      "channel": 5,
      "note": 43,
      "start": 62.3095,
      "duration": 0.1404,
      "velocity": 127,
      "chip": "ym2612"
    },
    {
      "channel": 1,
      "note": 65,
      "start": 62.4477,
      "duration": 0.0785,
      "velocity": 95,
      "chip": "ym2612"
    },
    {
      "channel": 3,
      "note": 61,
      "start": 62.4491,
      "duration": 0.0779,
      "velocity": 95,
      "chip": "ym2612"
    },
    {
      "channel": 1,
      "note": 66,
      "start": 62.5906,
      "duration": 0.1738,
      "velocity": 95,
      "chip": "ym2612"
    },
    {
      "channel": 3,
      "note": 61,
      "start": 62.592,
      "duration": 0.173,
      "velocity": 95,
      "chip": "ym2612"
    },
    {
      "channel": 5,
      "note": 55,
      "start": 62.5961,
      "duration": 0.1386,
      "velocity": 115,
      "chip": "ym2612"
    },
    {
      "channel": 1,
      "note": 65,
      "start": 62.8763,
      "duration": 0.0786,
      "velocity": 95,
      "chip": "ym2612"
    },
    {
      "channel": 3,
      "note": 61,
      "start": 62.8777,
      "duration": 0.0778,
      "velocity": 95,
      "chip": "ym2612"
    },
    {
      "channel": 4,
      "note": 54,
      "start": 62.8787,
      "duration": 0.077,
      "velocity": 91,
      "chip": "ym2612"
    },
    {
      "channel": 5,
      "note": 52,
      "start": 62.8823,
      "duration": 0.1423,
      "velocity": 115,
      "chip": "ym2612"
    },
    {
      "channel": 1,
      "note": 66,
      "start": 63.0192,
      "duration": 0.1739,
      "velocity": 95,
      "chip": "ym2612"
    },
    {
      "channel": 3,
      "note": 61,
      "start": 63.0206,
      "duration": 0.1731,
      "velocity": 95,
      "chip": "ym2612"
    },
    {
      "channel": 4,
      "note": 54,
      "start": 63.0216,
      "duration": 0.1723,
      "velocity": 91,
      "chip": "ym2612"
    },
    {
      "channel": 5,
      "note": 55,
      "start": 63.0252,
      "duration": 0.0747,
      "velocity": 115,
      "chip": "ym2612"
    },
    {
      "channel": 5,
      "note": 55,
      "start": 63.1004,
      "duration": 0.0634,
      "velocity": 115,
      "chip": "ym2612"
    },
    {
      "channel": 0,
      "note": 80,
      "start": 63.1616,
      "duration": 0.1739,
      "velocity": 105,
      "chip": "ym2612"
    },
    {
      "channel": 5,
      "note": 55,
      "start": 63.1644,
      "duration": 0.1432,
      "velocity": 115,
      "chip": "ym2612"
    },
    {
      "channel": 1,
      "note": 66,
      "start": 63.305,
      "duration": 0.0785,
      "velocity": 95,
      "chip": "ym2612"
    },
    {
      "channel": 3,
      "note": 61,
      "start": 63.3063,
      "duration": 0.0778,
      "velocity": 95,
      "chip": "ym2612"
    },
    {
      "channel": 4,
      "note": 58,
      "start": 63.3073,
      "duration": 0.0771,
      "velocity": 91,
      "chip": "ym2612"
    },
    {
      "channel": 5,
      "note": 55,
      "start": 63.3082,
      "duration": 0.1455,
      "velocity": 127,
      "chip": "ym2612"
    },
    {
      "channel": 2,
      "note": 80,
      "start": 63.3531,
      "duration": 0.1738,
      "velocity": 105,
      "chip": "ym2612"
    },
    {
      "channel": 0,
      "note": 82,
      "start": 63.4473,
      "duration": 0.1739,
      "velocity": 105,
      "chip": "ym2612"
    },
    {
      "channel": 1,
      "note": 73,
      "start": 63.4482,
      "duration": 0.1732,
      "velocity": 95,
      "chip": "ym2612"
    },
    {
      "channel": 3,
      "note": 66,
      "start": 63.4497,
      "duration": 0.1723,
      "velocity": 95,
      "chip": "ym2612"
    },
    {
      "channel": 4,
      "note": 54,
      "start": 63.4506,
      "duration": 0.1716,
      "velocity": 91,
      "chip": "ym2612"
    },
    {
      "channel": 5,
      "note": 43,
      "start": 63.4543,
      "duration": 0.1377,
      "velocity": 127,
      "chip": "ym2612"
    },
    {
      "channel": 2,
      "note": 82,
      "start": 63.6389,
      "duration": 0.1738,
      "velocity": 105,
      "chip": "ym2612"
    },
    {
      "channel": 0,
      "note": 83,
      "start": 63.733,
      "duration": 0.1739,
      "velocity": 105,
      "chip": "ym2612"
    },
    {
      "channel": 1,
      "note": 70,
      "start": 63.7339,
      "duration": 0.1732,
      "velocity": 95,
      "chip": "ym2612"
    },
    {
      "channel": 3,
      "note": 66,
      "start": 63.7352,
      "duration": 0.1725,
      "velocity": 95,
      "chip": "ym2612"
    },
    {
      "channel": 4,
      "note": 49,
      "start": 63.7361,
      "duration": 0.1718,
      "velocity": 91,
      "chip": "ym2612"
    },
    {
      "channel": 5,
      "note": 55,
      "start": 63.7398,
      "duration": 0.138,
      "velocity": 115,
      "chip": "ym2612"
    },
    {
      "channel": 5,
      "note": 55,
      "start": 63.8784,
      "duration": 0.1469,
      "velocity": 117,
      "chip": "ym2612"
    },
    {
      "channel": 2,
      "note": 83,
      "start": 63.9246,
      "duration": 0.1735,
      "velocity": 105,
      "chip": "ym2612"
    },
    {
      "channel": 0,
      "note": 85,
      "start": 64.0189,
      "duration": 0.9359,
      "velocity": 105,
      "chip": "ym2612"
    },
    {
      "channel": 1,
      "note": 65,
      "start": 64.0198,
      "duration": 0.078,
      "velocity": 95,
      "chip": "ym2612"
    },
    {
      "channel": 3,
      "note": 63,
      "start": 64.0212,
      "duration": 0.077,
      "velocity": 95,
      "chip": "ym2612"
    },
    {
      "channel": 4,
      "note": 51,
      "start": 64.0222,
      "duration": 0.3471,
      "velocity": 91,
      "chip": "ym2612"
    },
    {
      "channel": 5,
      "note": 52,
      "start": 64.0258,
      "duration": 0.1413,
      "velocity": 115,
      "chip": "ym2612"
    },
    {
      "channel": 1,
      "note": 66,
      "start": 64.1622,
      "duration": 0.1739,
      "velocity": 95,
      "chip": "ym2612"
    },
    {
      "channel": 3,
      "note": 63,
      "start": 64.1636,
      "duration": 0.1732,
      "velocity": 95,
      "chip": "ym2612"
    },
    {
      "channel": 5,
      "note": 55,
      "start": 64.1677,
      "duration": 0.0751,
      "velocity": 115,
      "chip": "ym2612"
    },
    {
      "channel": 2,
      "note": 85,
      "start": 64.2104,
      "duration": 0.9359,
      "velocity": 105,
      "chip": "ym2612"
    },
    {
      "channel": 5,
      "note": 55,
      "start": 64.2434,
      "duration": 0.063,
      "velocity": 115,
      "chip": "ym2612"
    },
    {
      "channel": 5,
      "note": 55,
      "start": 64.3071,
      "duration": 0.1431,
      "velocity": 115,
      "chip": "ym2612"
    },
    {
      "channel": 1,
      "note": 65,
      "start": 64.448,
      "duration": 0.0786,
      "velocity": 95,
      "chip": "ym2612"
    },
    {
      "channel": 3,
      "note": 63,
      "start": 64.4494,
      "duration": 0.0778,
      "velocity": 95,
      "chip": "ym2612"
    },
    {
      "channel": 5,
      "note": 55,
      "start": 64.4507,
      "duration": 0.1455,
      "velocity": 127,
      "chip": "ym2612"
    },
    {
      "channel": 1,
      "note": 66,
      "start": 64.5908,
      "duration": 0.1739,
      "velocity": 95,
      "chip": "ym2612"
    },
    {
      "channel": 3,
      "note": 63,
      "start": 64.5923,
      "duration": 0.1731,
      "velocity": 95,
      "chip": "ym2612"
    },
    {
      "channel": 4,
      "note": 51,
      "start": 64.5931,
      "duration": 0.3478,
      "velocity": 91,
      "chip": "ym2612"
    },
    {
      "channel": 5,
      "note": 43,
      "start": 64.5968,
      "duration": 0.1382,
      "velocity": 127,
      "chip": "ym2612"
    },
    {
      "channel": 1,
      "note": 65,
      "start": 64.8766,
      "duration": 0.0783,
      "velocity": 95,
      "chip": "ym2612"
    },
    {
      "channel": 3,
      "note": 63,
      "start": 64.878,
      "duration": 0.0776,
      "velocity": 95,
      "chip": "ym2612"
    },
    {
      "channel": 5,
      "note": 55,
      "start": 64.8822,
      "duration": 0.1395,
      "velocity": 115,
      "chip": "ym2612"
    },
    {
      "channel": 1,
      "note": 66,
      "start": 65.0195,
      "duration": 0.1739,
      "velocity": 95,
      "chip": "ym2612"
    },
    {
      "channel": 3,
      "note": 63,
      "start": 65.0209,
      "duration": 0.1731,
      "velocity": 95,
      "chip": "ym2612"
    },
    {
      "channel": 4,
      "note": 51,
      "start": 65.1637,
      "duration": 0.3487,
      "velocity": 91,
      "chip": "ym2612"
    },
    {
      "channel": 5,
      "note": 52,
      "start": 65.1674,
      "duration": 0.1427,
      "velocity": 115,
      "chip": "ym2612"
    },
    {
      "channel": 1,
      "note": 66,
      "start": 65.3052,
      "duration": 0.1739,
      "velocity": 95,
      "chip": "ym2612"
    },
    {
      "channel": 3,
      "note": 63,
      "start": 65.3065,
      "duration": 0.1732,
      "velocity": 95,
      "chip": "ym2612"
    },
    {
      "channel": 5,
      "note": 55,
      "start": 65.3106,
      "duration": 0.0753,
      "velocity": 115,
      "chip": "ym2612"
    },
    {
      "channel": 5,
      "note": 55,
      "start": 65.3864,
      "duration": 0.0635,
      "velocity": 115,
      "chip": "ym2612"
    },
    {
      "channel": 0,
      "note": 83,
      "start": 65.4476,
      "duration": 0.1739,
      "velocity": 105,
      "chip": "ym2612"
    },
    {
      "channel": 5,
      "note": 55,
      "start": 65.4505,
      "duration": 0.1427,
      "velocity": 115,
      "chip": "ym2612"
    },
    {
      "channel": 1,
      "note": 66,
      "start": 65.591,
      "duration": 0.0786,
      "velocity": 95,
      "chip": "ym2612"
    },
    {
      "channel": 3,
      "note": 63,
      "start": 65.5924,
      "duration": 0.0778,
      "velocity": 95,
      "chip": "ym2612"
    },
    {
      "channel": 5,
      "note": 55,
      "start": 65.5938,
      "duration": 0.146,
      "velocity": 127,
      "chip": "ym2612"
    },
    {
      "channel": 2,
      "note": 83,
      "start": 65.6392,
      "duration": 0.1737,
      "velocity": 105,
      "chip": "ym2612"
    },
    {
      "channel": 0,
      "note": 82,
      "start": 65.7333,
      "duration": 0.1739,
      "velocity": 105,
      "chip": "ym2612"
    },
    {
      "channel": 1,
      "note": 73,
      "start": 65.7343,
      "duration": 0.1731,
      "velocity": 95,
      "chip": "ym2612"
    },
    {
      "channel": 3,
      "note": 66,
      "start": 65.7357,
      "duration": 0.1723,
      "velocity": 95,
      "chip": "ym2612"
    },
    {
      "channel": 4,
      "note": 53,
      "start": 65.7367,
      "duration": 0.1715,
      "velocity": 91,
      "chip": "ym2612"
    },
    {
      "channel": 5,
      "note": 43,
      "start": 65.7404,
      "duration": 0.1377,
      "velocity": 127,
      "chip": "ym2612"
    },
    {
      "channel": 2,
      "note": 82,
      "start": 65.9249,
      "duration": 0.1739,
      "velocity": 105,
      "chip": "ym2612"
    },
    {
      "channel": 0,
      "note": 85,
      "start": 66.0191,
      "duration": 0.1739,
      "velocity": 105,
      "chip": "ym2612"
    },
    {
      "channel": 1,
      "note": 70,
      "start": 66.02,
      "duration": 0.1732,
      "velocity": 95,
      "chip": "ym2612"
    },
    {
      "channel": 3,
      "note": 66,
      "start": 66.0213,
      "duration": 0.1725,
      "velocity": 95,
      "chip": "ym2612"
    },
    {
      "channel": 4,
      "note": 54,
      "start": 66.0222,
      "duration": 0.1718,
      "velocity": 91,
      "chip": "ym2612"
    },
    {
      "channel": 5,
      "note": 55,
      "start": 66.0258,
      "duration": 0.138,
      "velocity": 115,
      "chip": "ym2612"
    },
    {
      "channel": 5,
      "note": 55,
      "start": 66.1644,
      "duration": 0.1468,
      "velocity": 117,
      "chip": "ym2612"
    },
    {
      "channel": 2,
      "note": 85,
      "start": 66.2106,
      "duration": 0.1735,
      "velocity": 105,
      "chip": "ym2612"
    },
    {
      "channel": 0,
      "note": 83,
      "start": 66.3049,
      "duration": 0.7296,
      "velocity": 105,
      "chip": "ym2612"
    },
    {
      "channel": 1,
      "note": 71,
      "start": 66.3059,
      "duration": 0.078,
      "velocity": 95,
      "chip": "ym2612"
    },
    {
      "channel": 3,
      "note": 68,
      "start": 66.3073,
      "duration": 0.0771,
      "velocity": 95,
      "chip": "ym2612"
    },
    {
      "channel": 4,
      "note": 56,
      "start": 66.3082,
      "duration": 0.1725,
      "velocity": 91,
      "chip": "ym2612"
    },
    {
      "channel": 5,
      "note": 52,
      "start": 66.3118,
      "duration": 0.1415,
      "velocity": 115,
      "chip": "ym2612"
    },
    {
      "channel": 1,
      "note": 70,
      "start": 66.4483,
      "duration": 0.1739,
      "velocity": 95,
      "chip": "ym2612"
    },
    {
      "channel": 3,
      "note": 68,
      "start": 66.4497,
      "duration": 0.1731,
      "velocity": 95,
      "chip": "ym2612"
    },
    {
      "channel": 5,
      "note": 55,
      "start": 66.4539,
      "duration": 0.075,
      "velocity": 115,
      "chip": "ym2612"
    },
    {
      "channel": 2,
      "note": 83,
      "start": 66.4964,
      "duration": 0.7296,
      "velocity": 105,
      "chip": "ym2612"
    },
    {
      "channel": 5,
      "note": 55,
      "start": 66.5295,
      "duration": 0.0634,
      "velocity": 115,
      "chip": "ym2612"
    },
    {
      "channel": 4,
      "note": 56,
      "start": 66.5926,
      "duration": 0.1739,
      "velocity": 91,
      "chip": "ym2612"
    },
    {
      "channel": 5,
      "note": 55,
      "start": 66.5934,
      "duration": 0.1427,
      "velocity": 115,
      "chip": "ym2612"
    },
    {
      "channel": 1,
      "note": 71,
      "start": 66.734,
      "duration": 0.1739,
      "velocity": 95,
      "chip": "ym2612"
    },
    {
      "channel": 3,
      "note": 68,
      "start": 66.7353,
      "duration": 0.1733,
      "velocity": 95,
      "chip": "ym2612"
    },
    {
      "channel": 5,
      "note": 55,
      "start": 66.7367,
      "duration": 0.1449,
      "velocity": 127,
      "chip": "ym2612"
    },
    {
      "channel": 4,
      "note": 68,
      "start": 66.8784,
      "duration": 0.0785,
      "velocity": 91,
      "chip": "ym2612"
    },
    {
      "channel": 5,
      "note": 43,
      "start": 66.8821,
      "duration": 0.1404,
      "velocity": 127,
      "chip": "ym2612"
    },
    {
      "channel": 1,
      "note": 70,
      "start": 67.0198,
      "duration": 0.0786,
      "velocity": 95,
      "chip": "ym2612"
    },
    {
      "channel": 3,
      "note": 68,
      "start": 67.0212,
      "duration": 0.0778,
      "velocity": 95,
      "chip": "ym2612"
    },
    {
      "channel": 4,
      "note": 56,
      "start": 67.0222,
      "duration": 0.1729,
      "velocity": 91,
      "chip": "ym2612"
    },
    {
      "channel": 1,
      "note": 71,
      "start": 67.1627,
      "duration": 0.1739,
      "velocity": 95,
      "chip": "ym2612"
    },
    {
      "channel": 3,
      "note": 68,
      "start": 67.1641,
      "duration": 0.173,
      "velocity": 95,
      "chip": "ym2612"
    },
    {
      "channel": 5,
      "note": 55,
      "start": 67.1683,
      "duration": 0.139,
      "velocity": 115,
      "chip": "ym2612"
    },
    {
      "channel": 4,
      "note": 56,
      "start": 67.3071,
      "duration": 0.0785,
      "velocity": 91,
      "chip": "ym2612"
    },
    {
      "channel": 0,
      "note": 87,
      "start": 67.4479,
      "duration": 0.7296,
      "velocity": 105,
      "chip": "ym2612"
    },
    {
      "channel": 1,
      "note": 71,
      "start": 67.4488,
      "duration": 0.0781,
      "velocity": 95,
      "chip": "ym2612"
    },
    {
      "channel": 3,
      "note": 68,
      "start": 67.4502,
      "duration": 0.0773,
      "velocity": 95,
      "chip": "ym2612"
    },
    {
      "channel": 4,
      "note": 56,
      "start": 67.4512,
      "duration": 0.2678,
      "velocity": 91,
      "chip": "ym2612"
    },
    {
      "channel": 5,
      "note": 52,
      "start": 67.4548,
      "duration": 0.1415,
      "velocity": 115,
      "chip": "ym2612"
    },
    {
      "channel": 1,
      "note": 70,
      "start": 67.5913,
      "duration": 0.1739,
      "velocity": 95,
      "chip": "ym2612"
    },
    {
      "channel": 3,
      "note": 68,
      "start": 67.5927,
      "duration": 0.1731,
      "velocity": 95,
      "chip": "ym2612"
    },
    {
      "channel": 5,
      "note": 55,
      "start": 67.5969,
      "duration": 0.0751,
      "velocity": 115,
      "chip": "ym2612"
    },
    {
      "channel": 2,
      "note": 87,
      "start": 67.6393,
      "duration": 0.7297,
      "velocity": 105,
      "chip": "ym2612"
    },
    {
      "channel": 5,
      "note": 55,
      "start": 67.6726,
      "duration": 0.0629,
      "velocity": 115,
      "chip": "ym2612"
    },
    {
      "channel": 5,
      "note": 55,
      "start": 67.7361,
      "duration": 0.1436,
      "velocity": 115,
      "chip": "ym2612"
    },
    {
      "channel": 1,
      "note": 71,
      "start": 67.8771,
      "duration": 0.0785,
      "velocity": 95,
      "chip": "ym2612"
    },
    {
      "channel": 3,
      "note": 68,
      "start": 67.8785,
      "duration": 0.0779,
      "velocity": 95,
      "chip": "ym2612"
    },
    {
      "channel": 4,
      "note": 56,
      "start": 67.8795,
      "duration": 0.0771,
      "velocity": 91,
      "chip": "ym2612"
    },
    {
      "channel": 5,
      "note": 55,
      "start": 67.8803,
      "duration": 0.145,
      "velocity": 127,
      "chip": "ym2612"
    },
    {
      "channel": 1,
      "note": 71,
      "start": 68.0198,
      "duration": 0.0787,
      "velocity": 95,
      "chip": "ym2612"
    },
    {
      "channel": 3,
      "note": 68,
      "start": 68.0213,
      "duration": 0.1735,
      "velocity": 95,
      "chip": "ym2612"
    },
    {
      "channel": 4,
      "note": 56,
      "start": 68.0223,
      "duration": 0.1726,
      "velocity": 91,
      "chip": "ym2612"
    },
    {
      "channel": 5,
      "note": 43,
      "start": 68.0259,
      "duration": 0.1385,
      "velocity": 127,
      "chip": "ym2612"
    },
    {
      "channel": 1,
      "note": 70,
      "start": 68.1627,
      "duration": 0.0787,
      "velocity": 95,
      "chip": "ym2612"
    },
    {
      "channel": 1,
      "note": 68,
      "start": 68.3056,
      "duration": 0.0786,
      "velocity": 95,
      "chip": "ym2612"
    },
    {
      "channel": 3,
      "note": 63,
      "start": 68.307,
      "duration": 0.1735,
      "velocity": 95,
      "chip": "ym2612"
    },
    {
      "channel": 4,
      "note": 56,
      "start": 68.3078,
      "duration": 0.1728,
      "velocity": 91,
      "chip": "ym2612"
    },
    {
      "channel": 5,
      "note": 55,
      "start": 68.3115,
      "duration": 0.1388,
      "velocity": 115,
      "chip": "ym2612"
    },
    {
      "channel": 1,
      "note": 66,
      "start": 68.4485,
      "duration": 0.0787,
      "velocity": 95,
      "chip": "ym2612"
    },
    {
      "channel": 5,
      "note": 55,
      "start": 68.4508,
      "duration": 0.1463,
      "velocity": 117,
      "chip": "ym2612"
    },
    {
      "channel": 0,
      "note": 85,
      "start": 68.591,
      "duration": 0.3486,
      "velocity": 105,
      "chip": "ym2612"
    },
    {
      "channel": 1,
      "note": 65,
      "start": 68.5919,
      "duration": 0.0782,
      "velocity": 95,
      "chip": "ym2612"
    },
    {
      "channel": 3,
      "note": 61,
      "start": 68.5932,
      "duration": 0.0774,
      "velocity": 95,
      "chip": "ym2612"
    },
    {
      "channel": 4,
      "note": 49,
      "start": 68.5941,
      "duration": 0.1727,
      "velocity": 91,
      "chip": "ym2612"
    },
    {
      "channel": 5,
      "note": 52,
      "start": 68.5977,
      "duration": 0.1417,
      "velocity": 115,
      "chip": "ym2612"
    },
    {
      "channel": 1,
      "note": 65,
      "start": 68.7344,
      "duration": 0.1739,
      "velocity": 95,
      "chip": "ym2612"
    },
    {
      "channel": 3,
      "note": 61,
      "start": 68.7357,
      "duration": 0.1732,
      "velocity": 95,
      "chip": "ym2612"
    },
    {
      "channel": 5,
      "note": 55,
      "start": 68.7399,
      "duration": 0.075,
      "velocity": 115,
      "chip": "ym2612"
    },
    {
      "channel": 2,
      "note": 85,
      "start": 68.7824,
      "duration": 0.3486,
      "velocity": 105,
      "chip": "ym2612"
    },
    {
      "channel": 5,
      "note": 55,
      "start": 68.8156,
      "duration": 0.0633,
      "velocity": 115,
      "chip": "ym2612"
    },
    {
      "channel": 4,
      "note": 49,
      "start": 68.8786,
      "duration": 0.1739,
      "velocity": 91,
      "chip": "ym2612"
    },
    {
      "channel": 5,
      "note": 55,
      "start": 68.8795,
      "duration": 0.1429,
      "velocity": 115,
      "chip": "ym2612"
    },
    {
      "channel": 1,
      "note": 65,
      "start": 69.0201,
      "duration": 0.0786,
      "velocity": 95,
      "chip": "ym2612"
    },
    {
      "channel": 3,
      "note": 61,
      "start": 69.0215,
      "duration": 0.0779,
      "velocity": 95,
      "chip": "ym2612"
    },
    {
      "channel": 5,
      "note": 55,
      "start": 69.0229,
      "duration": 0.1457,
      "velocity": 127,
      "chip": "ym2612"
    },
    {
      "channel": 0,
      "note": 83,
      "start": 69.1624,
      "duration": 0.3487,
      "velocity": 105,
      "chip": "ym2612"
    },
    {
      "channel": 1,
      "note": 77,
      "start": 69.1632,
      "duration": 0.0783,
      "velocity": 95,
      "chip": "ym2612"
    },
    {
      "channel": 3,
      "note": 73,
      "start": 69.1646,
      "duration": 0.0776,
      "velocity": 95,
      "chip": "ym2612"
    },
    {
      "channel": 4,
      "note": 49,
      "start": 69.1654,
      "duration": 0.1729,
      "velocity": 91,
      "chip": "ym2612"
    },
    {
      "channel": 5,
      "note": 43,
      "start": 69.1691,
      "duration": 0.1389,
      "velocity": 127,
      "chip": "ym2612"
    },
    {
      "channel": 1,
      "note": 77,
      "start": 69.3059,
      "duration": 0.2691,
      "velocity": 95,
      "chip": "ym2612"
    },
    {
      "channel": 3,
      "note": 73,
      "start": 69.3073,
      "duration": 0.2683,
      "velocity": 95,
      "chip": "ym2612"
    },
    {
      "channel": 2,
      "note": 83,
      "start": 69.3539,
      "duration": 0.3487,
      "velocity": 105,
      "chip": "ym2612"
    },
    {
      "channel": 4,
      "note": 49,
      "start": 69.4501,
      "duration": 0.1739,
      "velocity": 91,
      "chip": "ym2612"
    },
    {
      "channel": 5,
      "note": 55,
      "start": 69.4537,
      "duration": 0.1391,
      "velocity": 115,
      "chip": "ym2612"
    },
    {
      "channel": 0,
      "note": 82,
      "start": 69.7339,
      "duration": 0.3487,
      "velocity": 105,
      "chip": "ym2612"
    },
    {
      "channel": 1,
      "note": 75,
      "start": 69.7349,
      "duration": 0.1735,
      "velocity": 95,
      "chip": "ym2612"
    },
    {
      "channel": 3,
      "note": 68,
      "start": 69.7363,
      "duration": 0.1726,
      "velocity": 95,
      "chip": "ym2612"
    },
    {
      "channel": 5,
      "note": 52,
      "start": 69.7405,
      "duration": 0.1414,
      "velocity": 115,
      "chip": "ym2612"
    },
    {
      "channel": 4,
      "note": 49,
      "start": 69.8788,
      "duration": 0.0785,
      "velocity": 91,
      "chip": "ym2612"
    },
    {
      "channel": 5,
      "note": 55,
      "start": 69.8824,
      "duration": 0.0752,
      "velocity": 115,
      "chip": "ym2612"
    },
    {
      "channel": 2,
      "note": 82,
      "start": 69.9254,
      "duration": 0.3487,
      "velocity": 105,
      "chip": "ym2612"
    },
    {
      "channel": 5,
      "note": 55,
      "start": 69.9583,
      "duration": 0.0645,
      "velocity": 115,
      "chip": "ym2612"
    },
    {
      "channel": 1,
      "note": 73,
      "start": 70.0202,
      "duration": 0.1739,
      "velocity": 95,
      "chip": "ym2612"
    },
    {
      "channel": 3,
      "note": 68,
      "start": 70.0215,
      "duration": 0.1732,
      "velocity": 95,
      "chip": "ym2612"
    },
    {
      "channel": 4,
      "note": 49,
      "start": 70.0224,
      "duration": 0.1724,
      "velocity": 91,
      "chip": "ym2612"
    },
    {
      "channel": 5,
      "note": 55,
      "start": 70.0233,
      "duration": 0.1411,
      "velocity": 115,
      "chip": "ym2612"
    },
    {
      "channel": 5,
      "note": 55,
      "start": 70.165,
      "duration": 0.1466,
      "velocity": 127,
      "chip": "ym2612"
    },
    {
      "channel": 0,
      "note": 80,
      "start": 70.3055,
      "duration": 0.3486,
      "velocity": 105,
      "chip": "ym2612"
    },
    {
      "channel": 1,
      "note": 71,
      "start": 70.3063,
      "duration": 0.1736,
      "velocity": 95,
      "chip": "ym2612"
    },
    {
      "channel": 3,
      "note": 66,
      "start": 70.3076,
      "duration": 0.1729,
      "velocity": 95,
      "chip": "ym2612"
    },
    {
      "channel": 4,
      "note": 56,
      "start": 70.3085,
      "duration": 0.1722,
      "velocity": 91,
      "chip": "ym2612"
    },
    {
      "channel": 5,
      "note": 43,
      "start": 70.3122,
      "duration": 0.138,
      "velocity": 127,
      "chip": "ym2612"
    },
    {
      "channel": 2,
      "note": 80,
      "start": 70.4969,
      "duration": 0.3486,
      "velocity": 105,
      "chip": "ym2612"
    },
    {
      "channel": 1,
      "note": 70,
      "start": 70.5917,
      "duration": 0.1739,
      "velocity": 95,
      "chip": "ym2612"
    },
    {
      "channel": 3,
      "note": 66,
      "start": 70.593,
      "duration": 0.1732,
      "velocity": 95,
      "chip": "ym2612"
    },
    {
      "channel": 4,
      "note": 51,
      "start": 70.5939,
      "duration": 0.1725,
      "velocity": 91,
      "chip": "ym2612"
    },
    {
      "channel": 5,
      "note": 55,
      "start": 70.5975,
      "duration": 0.1384,
      "velocity": 115,
      "chip": "ym2612"
    },
    {
      "channel": 5,
      "note": 55,
      "start": 70.7365,
      "duration": 0.1468,
      "velocity": 117,
      "chip": "ym2612"
    },
    {
      "channel": 0,
      "note": 78,
      "start": 70.877,
      "duration": 0.9359,
      "velocity": 105,
      "chip": "ym2612"
    },
    {
      "channel": 1,
      "note": 66,
      "start": 70.878,
      "duration": 0.078,
      "velocity": 95,
      "chip": "ym2612"
    },
    {
      "channel": 3,
      "note": 61,
      "start": 70.8794,
      "duration": 0.0773,
      "velocity": 95,
      "chip": "ym2612"
    },
    {
      "channel": 4,
      "note": 54,
      "start": 70.8802,
      "duration": 0.1727,
      "velocity": 91,
      "chip": "ym2612"
    },
    {
      "channel": 5,
      "note": 52,
      "start": 70.8838,
      "duration": 0.1415,
      "velocity": 115,
      "chip": "ym2612"
    },
    {
      "channel": 1,
      "note": 65,
      "start": 71.0203,
      "duration": 0.1739,
      "velocity": 95,
      "chip": "ym2612"
    },
    {
      "channel": 3,
      "note": 61,
      "start": 71.0218,
      "duration": 0.1731,
      "velocity": 95,
      "chip": "ym2612"
    },
    {
      "channel": 5,
      "note": 55,
      "start": 71.0259,
      "duration": 0.0751,
      "velocity": 115,
      "chip": "ym2612"
    },
    {
      "channel": 2,
      "note": 78,
      "start": 71.0685,
      "duration": 0.9358,
      "velocity": 105,
      "chip": "ym2612"
    },
    {
      "channel": 5,
      "note": 55,
      "start": 71.1016,
      "duration": 0.0634,
      "velocity": 115,
      "chip": "ym2612"
    },
    {
      "channel": 4,
      "note": 54,
      "start": 71.1647,
      "duration": 0.1739,
      "velocity": 91,
      "chip": "ym2612"
    },
    {
      "channel": 5,
      "note": 55,
      "start": 71.1655,
      "duration": 0.1427,
      "velocity": 115,
      "chip": "ym2612"
    },
    {
      "channel": 1,
      "note": 66,
      "start": 71.306,
      "duration": 0.174,
      "velocity": 95,
      "chip": "ym2612"
    },
    {
      "channel": 3,
      "note": 61,
      "start": 71.3074,
      "duration": 0.1732,
      "velocity": 95,
      "chip": "ym2612"
    },
    {
      "channel": 5,
      "note": 55,
      "start": 71.3088,
      "duration": 0.1449,
      "velocity": 127,
      "chip": "ym2612"
    },
    {
      "channel": 4,
      "note": 54,
      "start": 71.4505,
      "duration": 0.2691,
      "velocity": 91,
      "chip": "ym2612"
    },
    {
      "channel": 5,
      "note": 43,
      "start": 71.4542,
      "duration": 0.14,
      "velocity": 127,
      "chip": "ym2612"
    },
    {
      "channel": 1,
      "note": 65,
      "start": 71.5919,
      "duration": 0.0786,
      "velocity": 95,
      "chip": "ym2612"
    },
    {
      "channel": 3,
      "note": 61,
      "start": 71.5933,
      "duration": 0.0779,
      "velocity": 95,
      "chip": "ym2612"
    },
    {
      "channel": 1,
      "note": 66,
      "start": 71.7348,
      "duration": 0.1739,
      "velocity": 95,
      "chip": "ym2612"
    },
    {
      "channel": 3,
      "note": 61,
      "start": 71.7362,
      "duration": 0.1731,
      "velocity": 95,
      "chip": "ym2612"
    },
    {
      "channel": 5,
      "note": 55,
      "start": 71.7404,
      "duration": 0.139,
      "velocity": 115,
      "chip": "ym2612"
    },
    {
      "channel": 4,
      "note": 54,
      "start": 71.8791,
      "duration": 0.0785,
      "velocity": 91,
      "chip": "ym2612"
    },
    {
      "channel": 1,
      "note": 65,
      "start": 72.0205,
      "duration": 0.0785,
      "velocity": 95,
      "chip": "ym2612"
    },
    {
      "channel": 3,
      "note": 61,
      "start": 72.022,
      "duration": 0.0778,
      "velocity": 95,
      "chip": "ym2612"
    },
    {
      "channel": 4,
      "note": 54,
      "start": 72.0229,
      "duration": 0.1729,
      "velocity": 91,
      "chip": "ym2612"
    },
    {
      "channel": 5,
      "note": 52,
      "start": 72.0265,
      "duration": 0.1418,
      "velocity": 115,
      "chip": "ym2612"
    },
    {
      "channel": 1,
      "note": 66,
      "start": 72.1634,
      "duration": 0.1738,
      "velocity": 95,
      "chip": "ym2612"
    },
    {
      "channel": 3,
      "note": 61,
      "start": 72.1648,
      "duration": 0.1731,
      "velocity": 95,
      "chip": "ym2612"
    },
    {
      "channel": 5,
      "note": 55,
      "start": 72.169,
      "duration": 0.0751,
      "velocity": 115,
      "chip": "ym2612"
    },
    {
      "channel": 5,
      "note": 55,
      "start": 72.2446,
      "duration": 0.0639,
      "velocity": 115,
      "chip": "ym2612"
    },
    {
      "channel": 0,
      "note": 80,
      "start": 72.3058,
      "duration": 0.1739,
      "velocity": 105,
      "chip": "ym2612"
    },
    {
      "channel": 4,
      "note": 66,
      "start": 72.3082,
      "duration": 0.2686,
      "velocity": 91,
      "chip": "ym2612"
    },
    {
      "channel": 5,
      "note": 55,
      "start": 72.3091,
      "duration": 0.1422,
      "velocity": 115,
      "chip": "ym2612"
    },
    {
      "channel": 1,
      "note": 66,
      "start": 72.4492,
      "duration": 0.0786,
      "velocity": 95,
      "chip": "ym2612"
    },
    {
      "channel": 3,
      "note": 61,
      "start": 72.4506,
      "duration": 0.0778,
      "velocity": 95,
      "chip": "ym2612"
    },
    {
      "channel": 5,
      "note": 55,
      "start": 72.452,
      "duration": 0.1455,
      "velocity": 127,
      "chip": "ym2612"
    },
    {
      "channel": 2,
      "note": 80,
      "start": 72.4973,
      "duration": 0.1738,
      "velocity": 105,
      "chip": "ym2612"
    },
    {
      "channel": 0,
      "note": 82,
      "start": 72.5915,
      "duration": 0.1739,
      "velocity": 105,
      "chip": "ym2612"
    },
    {
      "channel": 1,
      "note": 73,
      "start": 72.5924,
      "duration": 0.1731,
      "velocity": 95,
      "chip": "ym2612"
    },
    {
      "channel": 3,
      "note": 66,
      "start": 72.5939,
      "duration": 0.1723,
      "velocity": 95,
      "chip": "ym2612"
    },
    {
      "channel": 5,
      "note": 43,
      "start": 72.5981,
      "duration": 0.1386,
      "velocity": 127,
      "chip": "ym2612"
    },
    {
      "channel": 4,
      "note": 66,
      "start": 72.7364,
      "duration": 0.0786,
      "velocity": 91,
      "chip": "ym2612"
    },
    {
      "channel": 2,
      "note": 82,
      "start": 72.783,
      "duration": 0.1739,
      "velocity": 105,
      "chip": "ym2612"
    },
    {
      "channel": 0,
      "note": 83,
      "start": 72.8772,
      "duration": 0.1739,
      "velocity": 105,
      "chip": "ym2612"
    },
    {
      "channel": 1,
      "note": 70,
      "start": 72.8781,
      "duration": 0.1732,
      "velocity": 95,
      "chip": "ym2612"
    },
    {
      "channel": 3,
      "note": 66,
      "start": 72.8795,
      "duration": 0.1725,
      "velocity": 95,
      "chip": "ym2612"
    },
    {
      "channel": 4,
      "note": 54,
      "start": 72.8804,
      "duration": 0.1717,
      "velocity": 91,
      "chip": "ym2612"
    },
    {
      "channel": 5,
      "note": 55,
      "start": 72.884,
      "duration": 0.138,
      "velocity": 115,
      "chip": "ym2612"
    },
    {
      "channel": 5,
      "note": 55,
      "start": 73.0226,
      "duration": 0.1469,
      "velocity": 117,
      "chip": "ym2612"
    },
    {
      "channel": 2,
      "note": 83,
      "start": 73.0688,
      "duration": 0.1735,
      "velocity": 105,
      "chip": "ym2612"
    },
    {
      "channel": 0,
      "note": 85,
      "start": 73.1631,
      "duration": 0.9358,
      "velocity": 105,
      "chip": "ym2612"
    },
    {
      "channel": 1,
      "note": 65,
      "start": 73.1641,
      "duration": 0.078,
      "velocity": 95,
      "chip": "ym2612"
    },
    {
      "channel": 3,
      "note": 63,
      "start": 73.1654,
      "duration": 0.0771,
      "velocity": 95,
      "chip": "ym2612"
    },
    {
      "channel": 4,
      "note": 51,
      "start": 73.1664,
      "duration": 0.0762,
      "velocity": 91,
      "chip": "ym2612"
    },
    {
      "channel": 5,
      "note": 52,
      "start": 73.17,
      "duration": 0.1414,
      "velocity": 115,
      "chip": "ym2612"
    },
    {
      "channel": 1,
      "note": 66,
      "start": 73.3064,
      "duration": 0.1739,
      "velocity": 95,
      "chip": "ym2612"
    },
    {
      "channel": 3,
      "note": 63,
      "start": 73.3078,
      "duration": 0.1732,
      "velocity": 95,
      "chip": "ym2612"
    },
    {
      "channel": 5,
      "note": 55,
      "start": 73.312,
      "duration": 0.0751,
      "velocity": 115,
      "chip": "ym2612"
    },
    {
      "channel": 2,
      "note": 85,
      "start": 73.3546,
      "duration": 0.9358,
      "velocity": 105,
      "chip": "ym2612"
    },
    {
      "channel": 5,
      "note": 55,
      "start": 73.3876,
      "duration": 0.0634,
      "velocity": 115,
      "chip": "ym2612"
    },
    {
      "channel": 4,
      "note": 51,
      "start": 73.4507,
      "duration": 0.0787,
      "velocity": 91,
      "chip": "ym2612"
    },
    {
      "channel": 5,
      "note": 55,
      "start": 73.4516,
      "duration": 0.1428,
      "velocity": 115,
      "chip": "ym2612"
    },
    {
      "channel": 1,
      "note": 65,
      "start": 73.5922,
      "duration": 0.0786,
      "velocity": 95,
      "chip": "ym2612"
    },
    {
      "channel": 3,
      "note": 63,
      "start": 73.5936,
      "duration": 0.0779,
      "velocity": 95,
      "chip": "ym2612"
    },
    {
      "channel": 5,
      "note": 55,
      "start": 73.595,
      "duration": 0.1455,
      "velocity": 127,
      "chip": "ym2612"
    },
    {
      "channel": 1,
      "note": 66,
      "start": 73.735,
      "duration": 0.1739,
      "velocity": 95,
      "chip": "ym2612"
    },
    {
      "channel": 3,
      "note": 63,
      "start": 73.7365,
      "duration": 0.1731,
      "velocity": 95,
      "chip": "ym2612"
    },
    {
      "channel": 4,
      "note": 51,
      "start": 73.7373,
      "duration": 0.0778,
      "velocity": 91,
      "chip": "ym2612"
    },
    {
      "channel": 5,
      "note": 43,
      "start": 73.741,
      "duration": 0.1382,
      "velocity": 127,
      "chip": "ym2612"
    },
    {
      "channel": 1,
      "note": 65,
      "start": 74.0209,
      "duration": 0.0782,
      "velocity": 95,
      "chip": "ym2612"
    },
    {
      "channel": 3,
      "note": 63,
      "start": 74.0223,
      "duration": 0.0775,
      "velocity": 95,
      "chip": "ym2612"
    },
    {
      "channel": 4,
      "note": 63,
      "start": 74.0232,
      "duration": 0.0768,
      "velocity": 91,
      "chip": "ym2612"
    },
    {
      "channel": 5,
      "note": 55,
      "start": 74.0268,
      "duration": 0.1394,
      "velocity": 115,
      "chip": "ym2612"
    },
    {
      "channel": 1,
      "note": 66,
      "start": 74.1637,
      "duration": 0.1739,
      "velocity": 95,
      "chip": "ym2612"
    },
    {
      "channel": 3,
      "note": 63,
      "start": 74.1651,
      "duration": 0.173,
      "velocity": 95,
      "chip": "ym2612"
    },
    {
      "channel": 4,
      "note": 51,
      "start": 74.166,
      "duration": 0.0778,
      "velocity": 91,
      "chip": "ym2612"
    },
    {
      "channel": 5,
      "note": 52,
      "start": 74.3112,
      "duration": 0.1434,
      "velocity": 115,
      "chip": "ym2612"
    },
    {
      "channel": 1,
      "note": 66,
      "start": 74.4494,
      "duration": 0.1739,
      "velocity": 95,
      "chip": "ym2612"
    },
    {
      "channel": 3,
      "note": 63,
      "start": 74.4507,
      "duration": 0.1733,
      "velocity": 95,
      "chip": "ym2612"
    },
    {
      "channel": 4,
      "note": 58,
      "start": 74.4516,
      "duration": 0.0779,
      "velocity": 91,
      "chip": "ym2612"
    },
    {
      "channel": 5,
      "note": 55,
      "start": 74.4552,
      "duration": 0.0746,
      "velocity": 115,
      "chip": "ym2612"
    },
    {
      "channel": 5,
      "note": 55,
      "start": 74.5303,
      "duration": 0.0642,
      "velocity": 115,
      "chip": "ym2612"
    },
    {
      "channel": 0,
      "note": 83,
      "start": 74.5919,
      "duration": 0.1739,
      "velocity": 105,
      "chip": "ym2612"
    },
    {
      "channel": 4,
      "note": 58,
      "start": 74.5943,
      "duration": 0.173,
      "velocity": 91,
      "chip": "ym2612"
    },
    {
      "channel": 5,
      "note": 55,
      "start": 74.5951,
      "duration": 0.1422,
      "velocity": 115,
      "chip": "ym2612"
    },
    {
      "channel": 1,
      "note": 66,
      "start": 74.7352,
      "duration": 0.0785,
      "velocity": 95,
      "chip": "ym2612"
    },
    {
      "channel": 3,
      "note": 63,
      "start": 74.7366,
      "duration": 0.0778,
      "velocity": 95,
      "chip": "ym2612"
    },
    {
      "channel": 5,
      "note": 55,
      "start": 74.738,
      "duration": 0.1459,
      "velocity": 127,
      "chip": "ym2612"
    },
    {
      "channel": 2,
      "note": 83,
      "start": 74.7833,
      "duration": 0.1739,
      "velocity": 105,
      "chip": "ym2612"
    },
    {
      "channel": 0,
      "note": 82,
      "start": 74.8775,
      "duration": 0.1739,
      "velocity": 105,
      "chip": "ym2612"
    },
    {
      "channel": 1,
      "note": 73,
      "start": 74.8785,
      "duration": 0.1731,
      "velocity": 95,
      "chip": "ym2612"
    },
    {
      "channel": 3,
      "note": 66,
      "start": 74.8799,
      "duration": 0.1723,
      "velocity": 95,
      "chip": "ym2612"
    },
    {
      "channel": 4,
      "note": 54,
      "start": 74.8808,
      "duration": 0.1716,
      "velocity": 91,
      "chip": "ym2612"
    },
    {
      "channel": 5,
      "note": 43,
      "start": 74.8845,
      "duration": 0.1378,
      "velocity": 127,
      "chip": "ym2612"
    },
    {
      "channel": 2,
      "note": 82,
      "start": 75.0691,
      "duration": 0.1738,
      "velocity": 105,
      "chip": "ym2612"
    },
    {
      "channel": 0,
      "note": 85,
      "start": 75.1633,
      "duration": 0.1739,
      "velocity": 105,
      "chip": "ym2612"
    },
    {
      "channel": 1,
      "note": 70,
      "start": 75.1642,
      "duration": 0.1732,
      "velocity": 95,
      "chip": "ym2612"
    },
    {
      "channel": 3,
      "note": 66,
      "start": 75.1655,
      "duration": 0.1725,
      "velocity": 95,
      "chip": "ym2612"
    },
    {
      "channel": 4,
      "note": 51,
      "start": 75.1665,
      "duration": 0.0771,
      "velocity": 91,
      "chip": "ym2612"
    },
    {
      "channel": 5,
      "note": 55,
      "start": 75.1701,
      "duration": 0.1379,
      "velocity": 115,
      "chip": "ym2612"
    },
    {
      "channel": 5,
      "note": 55,
      "start": 75.3086,
      "duration": 0.147,
      "velocity": 117,
      "chip": "ym2612"
    },
    {
      "channel": 2,
      "note": 85,
      "start": 75.3548,
      "duration": 0.1735,
      "velocity": 105,
      "chip": "ym2612"
    },
    {
      "channel": 0,
      "note": 83,
      "start": 75.4491,
      "duration": 0.7297,
      "velocity": 105,
      "chip": "ym2612"
    },
    {
      "channel": 1,
      "note": 71,
      "start": 75.45,
      "duration": 0.0781,
      "velocity": 95,
      "chip": "ym2612"
    },
    {
      "channel": 3,
      "note": 68,
      "start": 75.4515,
      "duration": 0.077,
      "velocity": 95,
      "chip": "ym2612"
    },
    {
      "channel": 4,
      "note": 56,
      "start": 75.4525,
      "duration": 0.1724,
      "velocity": 91,
      "chip": "ym2612"
    },
    {
      "channel": 5,
      "note": 52,
      "start": 75.4561,
      "duration": 0.1413,
      "velocity": 115,
      "chip": "ym2612"
    },
    {
      "channel": 1,
      "note": 70,
      "start": 75.5925,
      "duration": 0.1739,
      "velocity": 95,
      "chip": "ym2612"
    },
    {
      "channel": 3,
      "note": 68,
      "start": 75.5939,
      "duration": 0.1732,
      "velocity": 95,
      "chip": "ym2612"
    },
    {
      "channel": 5,
      "note": 55,
      "start": 75.598,
      "duration": 0.0751,
      "velocity": 115,
      "chip": "ym2612"
    },
    {
      "channel": 2,
      "note": 83,
      "start": 75.6406,
      "duration": 0.7296,
      "velocity": 105,
      "chip": "ym2612"
    },
    {
      "channel": 5,
      "note": 55,
      "start": 75.6737,
      "duration": 0.0634,
      "velocity": 115,
      "chip": "ym2612"
    },
    {
      "channel": 4,
      "note": 56,
      "start": 75.7368,
      "duration": 0.1739,
      "velocity": 91,
      "chip": "ym2612"
    },
    {
      "channel": 5,
      "note": 55,
      "start": 75.7376,
      "duration": 0.1427,
      "velocity": 115,
      "chip": "ym2612"
    },
    {
      "channel": 1,
      "note": 71,
      "start": 75.8782,
      "duration": 0.174,
      "velocity": 95,
      "chip": "ym2612"
    },
    {
      "channel": 3,
      "note": 68,
      "start": 75.8795,
      "duration": 0.1733,
      "velocity": 95,
      "chip": "ym2612"
    },
    {
      "channel": 5,
      "note": 55,
      "start": 75.8809,
      "duration": 0.1448,
      "velocity": 127,
      "chip": "ym2612"
    },
    {
      "channel": 4,
      "note": 56,
      "start": 76.0226,
      "duration": 0.0786,
      "velocity": 91,
      "chip": "ym2612"
    },
    {
      "channel": 5,
      "note": 43,
      "start": 76.0263,
      "duration": 0.1403,
      "velocity": 127,
      "chip": "ym2612"
    },
    {
      "channel": 1,
      "note": 70,
      "start": 76.164,
      "duration": 0.0785,
      "velocity": 95,
      "chip": "ym2612"
    },
    {
      "channel": 3,
      "note": 68,
      "start": 76.1654,
      "duration": 0.0778,
      "velocity": 95,
      "chip": "ym2612"
    },
    {
      "channel": 4,
      "note": 56,
      "start": 76.1663,
      "duration": 0.0771,
      "velocity": 91,
      "chip": "ym2612"
    },
    {
      "channel": 1,
      "note": 71,
      "start": 76.3069,
      "duration": 0.1739,
      "velocity": 95,
      "chip": "ym2612"
    },
    {
      "channel": 3,
      "note": 68,
      "start": 76.3083,
      "duration": 0.173,
      "velocity": 95,
      "chip": "ym2612"
    },
    {
      "channel": 4,
      "note": 56,
      "start": 76.3093,
      "duration": 0.1722,
      "velocity": 91,
      "chip": "ym2612"
    },
    {
      "channel": 5,
      "note": 55,
      "start": 76.3129,
      "duration": 0.1382,
      "velocity": 115,
      "chip": "ym2612"
    },
    {
      "channel": 0,
      "note": 87,
      "start": 76.592,
      "duration": 0.7297,
      "velocity": 105,
      "chip": "ym2612"
    },
    {
      "channel": 1,
      "note": 71,
      "start": 76.593,
      "duration": 0.0783,
      "velocity": 95,
      "chip": "ym2612"
    },
    {
      "channel": 3,
      "note": 68,
      "start": 76.5944,
      "duration": 0.0775,
      "velocity": 95,
      "chip": "ym2612"
    },
    {
      "channel": 4,
      "note": 56,
      "start": 76.5954,
      "duration": 0.2679,
      "velocity": 91,
      "chip": "ym2612"
    },
    {
      "channel": 5,
      "note": 52,
      "start": 76.599,
      "duration": 0.1415,
      "velocity": 115,
      "chip": "ym2612"
    },
    {
      "channel": 1,
      "note": 70,
      "start": 76.7355,
      "duration": 0.1739,
      "velocity": 95,
      "chip": "ym2612"
    },
    {
      "channel": 3,
      "note": 68,
      "start": 76.737,
      "duration": 0.1731,
      "velocity": 95,
      "chip": "ym2612"
    },
    {
      "channel": 5,
      "note": 55,
      "start": 76.7411,
      "duration": 0.0751,
      "velocity": 115,
      "chip": "ym2612"
    },
    {
      "channel": 2,
      "note": 87,
      "start": 76.7836,
      "duration": 0.7296,
      "velocity": 105,
      "chip": "ym2612"
    },
    {
      "channel": 5,
      "note": 55,
      "start": 76.8167,
      "duration": 0.063,
      "velocity": 115,
      "chip": "ym2612"
    },
    {
      "channel": 5,
      "note": 55,
      "start": 76.8803,
      "duration": 0.1437,
      "velocity": 115,
      "chip": "ym2612"
    },
    {
      "channel": 1,
      "note": 71,
      "start": 77.0212,
      "duration": 0.0785,
      "velocity": 95,
      "chip": "ym2612"
    },
    {
      "channel": 3,
      "note": 68,
      "start": 77.0227,
      "duration": 0.0778,
      "velocity": 95,
      "chip": "ym2612"
    },
    {
      "channel": 4,
      "note": 59,
      "start": 77.0237,
      "duration": 0.0771,
      "velocity": 91,
      "chip": "ym2612"
    },
    {
      "channel": 5,
      "note": 55,
      "start": 77.0246,
      "duration": 0.1449,
      "velocity": 127,
      "chip": "ym2612"
    },
    {
      "channel": 1,
      "note": 71,
      "start": 77.1641,
      "duration": 0.0787,
      "velocity": 95,
      "chip": "ym2612"
    },
    {
      "channel": 3,
      "note": 68,
      "start": 77.1655,
      "duration": 0.1734,
      "velocity": 95,
      "chip": "ym2612"
    },
    {
      "channel": 4,
      "note": 63,
      "start": 77.1663,
      "duration": 0.0776,
      "velocity": 91,
      "chip": "ym2612"
    },
    {
      "channel": 5,
      "note": 43,
      "start": 77.17,
      "duration": 0.1391,
      "velocity": 127,
      "chip": "ym2612"
    },
    {
      "channel": 1,
      "note": 70,
      "start": 77.3069,
      "duration": 0.0787,
      "velocity": 95,
      "chip": "ym2612"
    },
    {
      "channel": 4,
      "note": 63,
      "start": 77.3088,
      "duration": 0.0779,
      "velocity": 91,
      "chip": "ym2612"
    },
    {
      "channel": 1,
      "note": 68,
      "start": 77.4498,
      "duration": 0.0787,
      "velocity": 95,
      "chip": "ym2612"
    },
    {
      "channel": 3,
      "note": 63,
      "start": 77.4512,
      "duration": 0.1735,
      "velocity": 95,
      "chip": "ym2612"
    },
    {
      "channel": 5,
      "note": 55,
      "start": 77.4553,
      "duration": 0.1395,
      "velocity": 115,
      "chip": "ym2612"
    },
    {
      "channel": 1,
      "note": 66,
      "start": 77.5927,
      "duration": 0.0787,
      "velocity": 95,
      "chip": "ym2612"
    },
    {
      "channel": 4,
      "note": 56,
      "start": 77.5945,
      "duration": 0.078,
      "velocity": 91,
      "chip": "ym2612"
    },
    {
      "channel": 5,
      "note": 55,
      "start": 77.5954,
      "duration": 0.1461,
      "velocity": 117,
      "chip": "ym2612"
    },
    {
      "channel": 0,
      "note": 89,
      "start": 77.7352,
      "duration": 1.5074,
      "velocity": 105,
      "chip": "ym2612"
    },
    {
      "channel": 1,
      "note": 65,
      "start": 77.7361,
      "duration": 0.0782,
      "velocity": 95,
      "chip": "ym2612"
    },
    {
      "channel": 3,
      "note": 61,
      "start": 77.7375,
      "duration": 0.0774,
      "velocity": 95,
      "chip": "ym2612"
    },
    {
      "channel": 4,
      "note": 49,
      "start": 77.7384,
      "duration": 0.1726,
      "velocity": 91,
      "chip": "ym2612"
    },
    {
      "channel": 5,
      "note": 52,
      "start": 77.742,
      "duration": 0.1415,
      "velocity": 115,
      "chip": "ym2612"
    },
    {
      "channel": 1,
      "note": 65,
      "start": 77.8785,
      "duration": 0.1739,
      "velocity": 95,
      "chip": "ym2612"
    },
    {
      "channel": 3,
      "note": 61,
      "start": 77.88,
      "duration": 0.1731,
      "velocity": 95,
      "chip": "ym2612"
    },
    {
      "channel": 5,
      "note": 55,
      "start": 77.8841,
      "duration": 0.0751,
      "velocity": 115,
      "chip": "ym2612"
    },
    {
      "channel": 2,
      "note": 89,
      "start": 77.9266,
      "duration": 1.5074,
      "velocity": 105,
      "chip": "ym2612"
    },
    {
      "channel": 5,
      "note": 55,
      "start": 77.9597,
      "duration": 0.0634,
      "velocity": 115,
      "chip": "ym2612"
    },
    {
      "channel": 4,
      "note": 49,
      "start": 78.0228,
      "duration": 0.1739,
      "velocity": 91,
      "chip": "ym2612"
    },
    {
      "channel": 5,
      "note": 55,
      "start": 78.0237,
      "duration": 0.1428,
      "velocity": 115,
      "chip": "ym2612"
    },
    {
      "channel": 1,
      "note": 65,
      "start": 78.1643,
      "duration": 0.0785,
      "velocity": 95,
      "chip": "ym2612"
    },
    {
      "channel": 3,
      "note": 61,
      "start": 78.1657,
      "duration": 0.0778,
      "velocity": 95,
      "chip": "ym2612"
    },
    {
      "channel": 5,
      "note": 55,
      "start": 78.1671,
      "duration": 0.1454,
      "velocity": 127,
      "chip": "ym2612"
    },
    {
      "channel": 1,
      "note": 77,
      "start": 78.3071,
      "duration": 0.0787,
      "velocity": 95,
      "chip": "ym2612"
    },
    {
      "channel": 3,
      "note": 73,
      "start": 78.3085,
      "duration": 0.078,
      "velocity": 95,
      "chip": "ym2612"
    },
    {
      "channel": 4,
      "note": 49,
      "start": 78.3094,
      "duration": 0.0772,
      "velocity": 91,
      "chip": "ym2612"
    },
    {
      "channel": 5,
      "note": 43,
      "start": 78.313,
      "duration": 0.1396,
      "velocity": 127,
      "chip": "ym2612"
    },
    {
      "channel": 1,
      "note": 77,
      "start": 78.45,
      "duration": 0.2691,
      "velocity": 95,
      "chip": "ym2612"
    },
    {
      "channel": 3,
      "note": 73,
      "start": 78.4515,
      "duration": 0.2683,
      "velocity": 95,
      "chip": "ym2612"
    },
    {
      "channel": 4,
      "note": 49,
      "start": 78.4523,
      "duration": 0.0778,
      "velocity": 91,
      "chip": "ym2612"
    },
    {
      "channel": 4,
      "note": 49,
      "start": 78.5944,
      "duration": 0.1739,
      "velocity": 91,
      "chip": "ym2612"
    },
    {
      "channel": 5,
      "note": 55,
      "start": 78.598,
      "duration": 0.139,
      "velocity": 115,
      "chip": "ym2612"
    },
    {
      "channel": 1,
      "note": 75,
      "start": 78.8787,
      "duration": 0.1739,
      "velocity": 95,
      "chip": "ym2612"
    },
    {
      "channel": 3,
      "note": 68,
      "start": 78.8801,
      "duration": 0.1731,
      "velocity": 95,
      "chip": "ym2612"
    },
    {
      "channel": 4,
      "note": 49,
      "start": 78.881,
      "duration": 0.1724,
      "velocity": 91,
      "chip": "ym2612"
    },
    {
      "channel": 5,
      "note": 52,
      "start": 78.8846,
      "duration": 0.1411,
      "velocity": 122,
      "chip": "ym2612"
    },
    {
      "channel": 5,
      "note": 52,
      "start": 79.0263,
      "duration": 0.1406,
      "velocity": 122,
      "chip": "ym2612"
    },
    {
      "channel": 1,
      "note": 73,
      "start": 79.1644,
      "duration": 0.1739,
      "velocity": 95,
      "chip": "ym2612"
    },
    {
      "channel": 3,
      "note": 68,
      "start": 79.1657,
      "duration": 0.1732,
      "velocity": 95,
      "chip": "ym2612"
    },
    {
      "channel": 4,
      "note": 49,
      "start": 79.1666,
      "duration": 0.1725,
      "velocity": 91,
      "chip": "ym2612"
    },
    {
      "channel": 5,
      "note": 52,
      "start": 79.312,
      "duration": 0.1434,
      "velocity": 127,
      "chip": "ym2612"
    },
    {
      "channel": 1,
      "note": 71,
      "start": 79.4501,
      "duration": 0.1739,
      "velocity": 95,
      "chip": "ym2612"
    },
    {
      "channel": 3,
      "note": 66,
      "start": 79.4515,
      "duration": 0.1732,
      "velocity": 95,
      "chip": "ym2612"
    },
    {
      "channel": 4,
      "note": 61,
      "start": 79.4523,
      "duration": 0.1725,
      "velocity": 91,
      "chip": "ym2612"
    },
    {
      "channel": 5,
      "note": 43,
      "start": 79.456,
      "duration": 0.1412,
      "velocity": 122,
      "chip": "ym2612"
    },
    {
      "channel": 5,
      "note": 47,
      "start": 79.5977,
      "duration": 0.0788,
      "velocity": 122,
      "chip": "ym2612"
    },
    {
      "channel": 5,
      "note": 47,
      "start": 79.677,
      "duration": 0.0641,
      "velocity": 122,
      "chip": "ym2612"
    },
    {
      "channel": 1,
      "note": 70,
      "start": 79.7359,
      "duration": 0.1739,
      "velocity": 95,
      "chip": "ym2612"
    },
    {
      "channel": 3,
      "note": 66,
      "start": 79.7372,
      "duration": 0.1732,
      "velocity": 95,
      "chip": "ym2612"
    },
    {
      "channel": 4,
      "note": 49,
      "start": 79.738,
      "duration": 0.1726,
      "velocity": 91,
      "chip": "ym2612"
    },
    {
      "channel": 5,
      "note": 47,
      "start": 79.7417,
      "duration": 0.1412,
      "velocity": 122,
      "chip": "ym2612"
    },
    {
      "channel": 5,
      "note": 40,
      "start": 79.8834,
      "duration": 0.1476,
      "velocity": 117,
      "chip": "ym2612"
    },
    {
      "channel": 0,
      "note": 90,
      "start": 80.0216,
      "duration": 1.3165,
      "velocity": 105,
      "chip": "ym2612"
    },
    {
      "channel": 1,
      "note": 75,
      "start": 80.0226,
      "duration": 1.3156,
      "velocity": 95,
      "chip": "ym2612"
    },
    {
      "channel": 3,
      "note": 78,
      "start": 80.0271,
      "duration": 0.4235,
      "velocity": 93,
      "chip": "ym2612"
    },
    {
      "channel": 4,
      "note": 51,
      "start": 80.028,
      "duration": 0.5342,
      "velocity": 91,
      "chip": "ym2612"
    },
    {
      "channel": 5,
      "note": 52,
      "start": 80.0317,
      "duration": 0.1342,
      "velocity": 117,
      "chip": "ym2612"
    },
    {
      "channel": 2,
      "note": 90,
      "start": 80.2131,
      "duration": 1.3165,
      "velocity": 105,
      "chip": "ym2612"
    },
    {
      "channel": 5,
      "note": 55,
      "start": 80.3122,
      "duration": 0.1427,
      "velocity": 117,
      "chip": "ym2612"
    },
    {
      "channel": 3,
      "note": 76,
      "start": 80.4513,
      "duration": 0.4279,
      "velocity": 93,
      "chip": "ym2612"
    },
    {
      "channel": 5,
      "note": 52,
      "start": 80.4555,
      "duration": 0.1419,
      "velocity": 127,
      "chip": "ym2612"
    },
    {
      "channel": 5,
      "note": 43,
      "start": 80.598,
      "duration": 0.1422,
      "velocity": 117,
      "chip": "ym2612"
    },
    {
      "channel": 5,
      "note": 52,
      "start": 80.7408,
      "duration": 0.1431,
      "velocity": 115,
      "chip": "ym2612"
    },
    {
      "channel": 3,
      "note": 75,
      "start": 80.8799,
      "duration": 0.5708,
      "velocity": 93,
      "chip": "ym2612"
    },
    {
      "channel": 4,
      "note": 51,
      "start": 80.8808,
      "duration": 0.1735,
      "velocity": 91,
      "chip": "ym2612"
    },
    {
      "channel": 5,
      "note": 55,
      "start": 80.8845,
      "duration": 0.1388,
      "velocity": 115,
      "chip": "ym2612"
    },
    {
      "channel": 5,
      "note": 55,
      "start": 81.0238,
      "duration": 0.1455,
      "velocity": 117,
      "chip": "ym2612"
    },
    {
      "channel": 4,
      "note": 51,
      "start": 81.1662,
      "duration": 0.2691,
      "velocity": 91,
      "chip": "ym2612"
    },
    {
      "channel": 5,
      "note": 52,
      "start": 81.1698,
      "duration": 0.1391,
      "velocity": 117,
      "chip": "ym2612"
    },
    {
      "channel": 3,
      "note": 78,
      "start": 81.4514,
      "duration": 0.285,
      "velocity": 93,
      "chip": "ym2612"
    },
    {
      "channel": 5,
      "note": 55,
      "start": 81.4555,
      "duration": 0.1396,
      "velocity": 115,
      "chip": "ym2612"
    },
    {
      "channel": 4,
      "note": 51,
      "start": 81.5948,
      "duration": 0.0786,
      "velocity": 91,
      "chip": "ym2612"
    },
    {
      "channel": 3,
      "note": 76,
      "start": 81.7371,
      "duration": 0.286,
      "velocity": 93,
      "chip": "ym2612"
    },
    {
      "channel": 5,
      "note": 43,
      "start": 81.7413,
      "duration": 0.1396,
      "velocity": 127,
      "chip": "ym2612"
    },
    {
      "channel": 4,
      "note": 53,
      "start": 81.8805,
      "duration": 0.1739,
      "velocity": 91,
      "chip": "ym2612"
    },
    {
      "channel": 0,
      "note": 89,
      "start": 82.0216,
      "duration": 0.0785,
      "velocity": 105,
      "chip": "ym2612"
    },
    {
      "channel": 1,
      "note": 78,
      "start": 82.0225,
      "duration": 0.0777,
      "velocity": 95,
      "chip": "ym2612"
    },
    {
      "channel": 3,
      "note": 73,
      "start": 82.0239,
      "duration": 0.142,
      "velocity": 93,
      "chip": "ym2612"
    },
    {
      "channel": 5,
      "note": 52,
      "start": 82.028,
      "duration": 0.1426,
      "velocity": 115,
      "chip": "ym2612"
    },
    {
      "channel": 0,
      "note": 87,
      "start": 82.1643,
      "duration": 0.0787,
      "velocity": 105,
      "chip": "ym2612"
    },
    {
      "channel": 1,
      "note": 77,
      "start": 82.1652,
      "duration": 0.0779,
      "velocity": 95,
      "chip": "ym2612"
    },
    {
      "channel": 3,
      "note": 75,
      "start": 82.1665,
      "duration": 0.1423,
      "velocity": 93,
      "chip": "ym2612"
    },
    {
      "channel": 4,
      "note": 51,
      "start": 82.1675,
      "duration": 0.0768,
      "velocity": 91,
      "chip": "ym2612"
    },
    {
      "channel": 5,
      "note": 55,
      "start": 82.1711,
      "duration": 0.1424,
      "velocity": 117,
      "chip": "ym2612"
    },
    {
      "channel": 2,
      "note": 89,
      "start": 82.213,
      "duration": 0.0786,
      "velocity": 105,
      "chip": "ym2612"
    },
    {
      "channel": 0,
      "note": 89,
      "start": 82.3073,
      "duration": 1.1263,
      "velocity": 105,
      "chip": "ym2612"
    },
    {
      "channel": 1,
      "note": 73,
      "start": 82.3082,
      "duration": 0.5387,
      "velocity": 95,
      "chip": "ym2612"
    },
    {
      "channel": 3,
      "note": 73,
      "start": 82.3096,
      "duration": 0.5699,
      "velocity": 93,
      "chip": "ym2612"
    },
    {
      "channel": 4,
      "note": 49,
      "start": 82.3105,
      "duration": 0.1727,
      "velocity": 91,
      "chip": "ym2612"
    },
    {
      "channel": 5,
      "note": 52,
      "start": 82.3141,
      "duration": 0.1379,
      "velocity": 117,
      "chip": "ym2612"
    },
    {
      "channel": 2,
      "note": 87,
      "start": 82.3558,
      "duration": 0.0787,
      "velocity": 105,
      "chip": "ym2612"
    },
    {
      "channel": 2,
      "note": 89,
      "start": 82.4987,
      "duration": 1.1264,
      "velocity": 105,
      "chip": "ym2612"
    },
    {
      "channel": 4,
      "note": 49,
      "start": 82.5949,
      "duration": 0.1741,
      "velocity": 91,
      "chip": "ym2612"
    },
    {
      "channel": 5,
      "note": 55,
      "start": 82.5985,
      "duration": 0.142,
      "velocity": 117,
      "chip": "ym2612"
    },
    {
      "channel": 5,
      "note": 52,
      "start": 82.7411,
      "duration": 0.1431,
      "velocity": 127,
      "chip": "ym2612"
    },
    {
      "channel": 3,
      "note": 71,
      "start": 82.8801,
      "duration": 0.5709,
      "velocity": 93,
      "chip": "ym2612"
    },
    {
      "channel": 4,
      "note": 49,
      "start": 82.8811,
      "duration": 0.3482,
      "velocity": 91,
      "chip": "ym2612"
    },
    {
      "channel": 5,
      "note": 43,
      "start": 82.8848,
      "duration": 0.1415,
      "velocity": 117,
      "chip": "ym2612"
    },
    {
      "channel": 5,
      "note": 52,
      "start": 83.0268,
      "duration": 0.1427,
      "velocity": 115,
      "chip": "ym2612"
    },
    {
      "channel": 1,
      "note": 77,
      "start": 83.1649,
      "duration": 0.5392,
      "velocity": 95,
      "chip": "ym2612"
    },
    {
      "channel": 5,
      "note": 55,
      "start": 83.1701,
      "duration": 0.1391,
      "velocity": 115,
      "chip": "ym2612"
    },
    {
      "channel": 5,
      "note": 55,
      "start": 83.3098,
      "duration": 0.1459,
      "velocity": 117,
      "chip": "ym2612"
    },
    {
      "channel": 3,
      "note": 68,
      "start": 83.4517,
      "duration": 0.5717,
      "velocity": 93,
      "chip": "ym2612"
    },
    {
      "channel": 4,
      "note": 49,
      "start": 83.4527,
      "duration": 0.2687,
      "velocity": 91,
      "chip": "ym2612"
    },
    {
      "channel": 5,
      "note": 52,
      "start": 83.4563,
      "duration": 0.1387,
      "velocity": 117,
      "chip": "ym2612"
    },
    {
      "channel": 5,
      "note": 55,
      "start": 83.7412,
      "duration": 0.1399,
      "velocity": 115,
      "chip": "ym2612"
    },
    {
      "channel": 4,
      "note": 49,
      "start": 83.8809,
      "duration": 0.0785,
      "velocity": 91,
      "chip": "ym2612"
    },
    {
      "channel": 0,
      "note": 85,
      "start": 84.0219,
      "duration": 0.3485,
      "velocity": 105,
      "chip": "ym2612"
    },
    {
      "channel": 1,
      "note": 80,
      "start": 84.0228,
      "duration": 0.3478,
      "velocity": 95,
      "chip": "ym2612"
    },
    {
      "channel": 3,
      "note": 65,
      "start": 84.0241,
      "duration": 0.5708,
      "velocity": 93,
      "chip": "ym2612"
    },
    {
      "channel": 5,
      "note": 43,
      "start": 84.0283,
      "duration": 0.1385,
      "velocity": 127,
      "chip": "ym2612"
    },
    {
      "channel": 4,
      "note": 61,
      "start": 84.1666,
      "duration": 0.0786,
      "velocity": 91,
      "chip": "ym2612"
    },
    {
      "channel": 2,
      "note": 85,
      "start": 84.2133,
      "duration": 0.3485,
      "velocity": 105,
      "chip": "ym2612"
    },
    {
      "channel": 4,
      "note": 49,
      "start": 84.3095,
      "duration": 0.1739,
      "velocity": 91,
      "chip": "ym2612"
    },
    {
      "channel": 5,
      "note": 52,
      "start": 84.3132,
      "duration": 0.1419,
      "velocity": 115,
      "chip": "ym2612"
    },
    {
      "channel": 5,
      "note": 55,
      "start": 84.4556,
      "duration": 0.1439,
      "velocity": 117,
      "chip": "ym2612"
    },
    {
      "channel": 0,
      "note": 83,
      "start": 84.5933,
      "duration": 0.5391,
      "velocity": 105,
      "chip": "ym2612"
    },
    {
      "channel": 1,
      "note": 80,
      "start": 84.5943,
      "duration": 0.5383,
      "velocity": 95,
      "chip": "ym2612"
    },
    {
      "channel": 3,
      "note": 68,
      "start": 84.5957,
      "duration": 0.427,
      "velocity": 93,
      "chip": "ym2612"
    },
    {
      "channel": 4,
      "note": 56,
      "start": 84.5965,
      "duration": 0.1727,
      "velocity": 91,
      "chip": "ym2612"
    },
    {
      "channel": 5,
      "note": 52,
      "start": 84.6001,
      "duration": 0.1378,
      "velocity": 117,
      "chip": "ym2612"
    },
    {
      "channel": 2,
      "note": 83,
      "start": 84.7848,
      "duration": 0.5391,
      "velocity": 105,
      "chip": "ym2612"
    },
    {
      "channel": 4,
      "note": 56,
      "start": 84.881,
      "duration": 0.174,
      "velocity": 91,
      "chip": "ym2612"
    },
    {
      "channel": 5,
      "note": 55,
      "start": 84.8846,
      "duration": 0.1424,
      "velocity": 117,
      "chip": "ym2612"
    },
    {
      "channel": 3,
      "note": 70,
      "start": 85.0234,
      "duration": 0.4286,
      "velocity": 93,
      "chip": "ym2612"
    },
    {
      "channel": 5,
      "note": 52,
      "start": 85.0275,
      "duration": 0.1422,
      "velocity": 127,
      "chip": "ym2612"
    },
    {
      "channel": 4,
      "note": 56,
      "start": 85.1667,
      "duration": 0.1739,
      "velocity": 91,
      "chip": "ym2612"
    },
    {
      "channel": 5,
      "note": 43,
      "start": 85.1703,
      "duration": 0.1419,
      "velocity": 117,
      "chip": "ym2612"
    },
    {
      "channel": 5,
      "note": 52,
      "start": 85.3128,
      "duration": 0.1438,
      "velocity": 115,
      "chip": "ym2612"
    },
    {
      "channel": 0,
      "note": 82,
      "start": 85.4505,
      "duration": 0.5392,
      "velocity": 105,
      "chip": "ym2612"
    },
    {
      "channel": 1,
      "note": 78,
      "start": 85.4514,
      "duration": 0.5384,
      "velocity": 95,
      "chip": "ym2612"
    },
    {
      "channel": 3,
      "note": 71,
      "start": 85.4527,
      "duration": 0.57,
      "velocity": 93,
      "chip": "ym2612"
    },
    {
      "channel": 4,
      "note": 56,
      "start": 85.4536,
      "duration": 0.1729,
      "velocity": 91,
      "chip": "ym2612"
    },
    {
      "channel": 5,
      "note": 55,
      "start": 85.4572,
      "duration": 0.138,
      "velocity": 115,
      "chip": "ym2612"
    },
    {
      "channel": 5,
      "note": 55,
      "start": 85.5959,
      "duration": 0.1456,
      "velocity": 117,
      "chip": "ym2612"
    },
    {
      "channel": 2,
      "note": 82,
      "start": 85.642,
      "duration": 0.5392,
      "velocity": 105,
      "chip": "ym2612"
    },
    {
      "channel": 4,
      "note": 68,
      "start": 85.7383,
      "duration": 0.0786,
      "velocity": 91,
      "chip": "ym2612"
    },
    {
      "channel": 5,
      "note": 52,
      "start": 85.742,
      "duration": 0.1391,
      "velocity": 117,
      "chip": "ym2612"
    },
    {
      "channel": 3,
      "note": 71,
      "start": 86.0235,
      "duration": 0.2859,
      "velocity": 93,
      "chip": "ym2612"
    },
    {
      "channel": 5,
      "note": 55,
      "start": 86.0277,
      "duration": 0.1396,
      "velocity": 115,
      "chip": "ym2612"
    },
    {
      "channel": 4,
      "note": 56,
      "start": 86.1669,
      "duration": 0.1739,
      "velocity": 91,
      "chip": "ym2612"
    },
    {
      "channel": 0,
      "note": 80,
      "start": 86.3078,
      "duration": 0.3486,
      "velocity": 105,
      "chip": "ym2612"
    },
    {
      "channel": 1,
      "note": 77,
      "start": 86.3088,
      "duration": 0.0781,
      "velocity": 95,
      "chip": "ym2612"
    },
    {
      "channel": 3,
      "note": 73,
      "start": 86.3102,
      "duration": 0.2845,
      "velocity": 93,
      "chip": "ym2612"
    },
    {
      "channel": 5,
      "note": 43,
      "start": 86.3143,
      "duration": 0.1386,
      "velocity": 127,
      "chip": "ym2612"
    },
    {
      "channel": 1,
      "note": 73,
      "start": 86.4511,
      "duration": 0.0787,
      "velocity": 95,
      "chip": "ym2612"
    },
    {
      "channel": 2,
      "note": 80,
      "start": 86.4993,
      "duration": 0.3486,
      "velocity": 105,
      "chip": "ym2612"
    },
    {
      "channel": 1,
      "note": 71,
      "start": 86.594,
      "duration": 0.0786,
      "velocity": 95,
      "chip": "ym2612"
    },
    {
      "channel": 3,
      "note": 75,
      "start": 86.5954,
      "duration": 0.2856,
      "velocity": 93,
      "chip": "ym2612"
    },
    {
      "channel": 4,
      "note": 56,
      "start": 86.5962,
      "duration": 0.1732,
      "velocity": 91,
      "chip": "ym2612"
    },
    {
      "channel": 5,
      "note": 52,
      "start": 86.5999,
      "duration": 0.1416,
      "velocity": 115,
      "chip": "ym2612"
    },
    {
      "channel": 1,
      "note": 68,
      "start": 86.7369,
      "duration": 0.0786,
      "velocity": 95,
      "chip": "ym2612"
    },
    {
      "channel": 5,
      "note": 55,
      "start": 86.742,
      "duration": 0.1436,
      "velocity": 117,
      "chip": "ym2612"
    },
    {
      "channel": 0,
      "note": 78,
      "start": 86.8794,
      "duration": 0.0786,
      "velocity": 105,
      "chip": "ym2612"
    },
    {
      "channel": 1,
      "note": 78,
      "start": 86.8803,
      "duration": 0.0464,
      "velocity": 95,
      "chip": "ym2612"
    },
    {
      "channel": 3,
      "note": 73,
      "start": 86.8817,
      "duration": 0.5702,
      "velocity": 93,
      "chip": "ym2612"
    },
    {
      "channel": 4,
      "note": 49,
      "start": 86.8826,
      "duration": 0.5378,
      "velocity": 91,
      "chip": "ym2612"
    },
    {
      "channel": 5,
      "note": 52,
      "start": 86.8863,
      "duration": 0.1379,
      "velocity": 117,
      "chip": "ym2612"
    },
    {
      "channel": 1,
      "note": 73,
      "start": 86.975,
      "duration": 0.0475,
      "velocity": 95,
      "chip": "ym2612"
    },
    {
      "channel": 0,
      "note": 77,
      "start": 87.0223,
      "duration": 0.1738,
      "velocity": 105,
      "chip": "ym2612"
    },
    {
      "channel": 1,
      "note": 68,
      "start": 87.0703,
      "duration": 0.0469,
      "velocity": 95,
      "chip": "ym2612"
    },
    {
      "channel": 2,
      "note": 78,
      "start": 87.0712,
      "duration": 0.0782,
      "velocity": 105,
      "chip": "ym2612"
    },
    {
      "channel": 1,
      "note": 78,
      "start": 87.1655,
      "duration": 0.047,
      "velocity": 95,
      "chip": "ym2612"
    },
    {
      "channel": 5,
      "note": 55,
      "start": 87.1707,
      "duration": 0.1421,
      "velocity": 117,
      "chip": "ym2612"
    },
    {
      "channel": 2,
      "note": 77,
      "start": 87.2134,
      "duration": 0.1741,
      "velocity": 105,
      "chip": "ym2612"
    },
    {
      "channel": 1,
      "note": 73,
      "start": 87.2608,
      "duration": 0.0474,
      "velocity": 95,
      "chip": "ym2612"
    },
    {
      "channel": 0,
      "note": 77,
      "start": 87.308,
      "duration": 0.2691,
      "velocity": 105,
      "chip": "ym2612"
    },
    {
      "channel": 5,
      "note": 52,
      "start": 87.3133,
      "duration": 0.1429,
      "velocity": 127,
      "chip": "ym2612"
    },
    {
      "channel": 1,
      "note": 68,
      "start": 87.356,
      "duration": 0.047,
      "velocity": 95,
      "chip": "ym2612"
    },
    {
      "channel": 1,
      "note": 78,
      "start": 87.4513,
      "duration": 0.0469,
      "velocity": 95,
      "chip": "ym2612"
    },
    {
      "channel": 3,
      "note": 77,
      "start": 87.4527,
      "duration": 0.5708,
      "velocity": 93,
      "chip": "ym2612"
    },
    {
      "channel": 5,
      "note": 43,
      "start": 87.4568,
      "duration": 0.1412,
      "velocity": 117,
      "chip": "ym2612"
    },
    {
      "channel": 2,
      "note": 77,
      "start": 87.4992,
      "duration": 0.2694,
      "velocity": 105,
      "chip": "ym2612"
    },
    {
      "channel": 1,
      "note": 73,
      "start": 87.5466,
      "duration": 0.0469,
      "velocity": 95,
      "chip": "ym2612"
    },
    {
      "channel": 5,
      "note": 52,
      "start": 87.5986,
      "duration": 0.1439,
      "velocity": 115,
      "chip": "ym2612"
    },
    {
      "channel": 1,
      "note": 68,
      "start": 87.6418,
      "duration": 0.0469,
      "velocity": 95,
      "chip": "ym2612"
    },
    {
      "channel": 0,
      "note": 78,
      "start": 87.7366,
      "duration": 0.0786,
      "velocity": 105,
      "chip": "ym2612"
    },
    {
      "channel": 1,
      "note": 78,
      "start": 87.7375,
      "duration": 0.0464,
      "velocity": 95,
      "chip": "ym2612"
    },
    {
      "channel": 4,
      "note": 49,
      "start": 87.7395,
      "duration": 0.0773,
      "velocity": 91,
      "chip": "ym2612"
    },
    {
      "channel": 5,
      "note": 55,
      "start": 87.7431,
      "duration": 0.1383,
      "velocity": 115,
      "chip": "ym2612"
    },
    {
      "channel": 1,
      "note": 73,
      "start": 87.8323,
      "duration": 0.0474,
      "velocity": 95,
      "chip": "ym2612"
    },
    {
      "channel": 0,
      "note": 77,
      "start": 87.8795,
      "duration": 0.8407,
      "velocity": 105,
      "chip": "ym2612"
    },
    {
      "channel": 5,
      "note": 55,
      "start": 87.882,
      "duration": 0.1462,
      "velocity": 117,
      "chip": "ym2612"
    },
    {
      "channel": 1,
      "note": 68,
      "start": 87.9275,
      "duration": 0.047,
      "velocity": 95,
      "chip": "ym2612"
    },
    {
      "channel": 2,
      "note": 78,
      "start": 87.9285,
      "duration": 0.0783,
      "velocity": 105,
      "chip": "ym2612"
    },
    {
      "channel": 1,
      "note": 77,
      "start": 88.0228,
      "duration": 0.0469,
      "velocity": 95,
      "chip": "ym2612"
    },
    {
      "channel": 3,
      "note": 80,
      "start": 88.0242,
      "duration": 0.4271,
      "velocity": 93,
      "chip": "ym2612"
    },
    {
      "channel": 4,
      "note": 49,
      "start": 88.0251,
      "duration": 0.1732,
      "velocity": 91,
      "chip": "ym2612"
    },
    {
      "channel": 5,
      "note": 52,
      "start": 88.0288,
      "duration": 0.138,
      "velocity": 117,
      "chip": "ym2612"
    },
    {
      "channel": 2,
      "note": 77,
      "start": 88.0707,
      "duration": 0.8409,
      "velocity": 105,
      "chip": "ym2612"
    },
    {
      "channel": 1,
      "note": 73,
      "start": 88.118,
      "duration": 0.0469,
      "velocity": 95,
      "chip": "ym2612"
    },
    {
      "channel": 1,
      "note": 68,
      "start": 88.2133,
      "duration": 0.0469,
      "velocity": 95,
      "chip": "ym2612"
    },
    {
      "channel": 1,
      "note": 77,
      "start": 88.3086,
      "duration": 0.0469,
      "velocity": 95,
      "chip": "ym2612"
    },
    {
      "channel": 4,
      "note": 49,
      "start": 88.3105,
      "duration": 0.0782,
      "velocity": 91,
      "chip": "ym2612"
    },
    {
      "channel": 5,
      "note": 55,
      "start": 88.3142,
      "duration": 0.1388,
      "velocity": 115,
      "chip": "ym2612"
    },
    {
      "channel": 1,
      "note": 73,
      "start": 88.4038,
      "duration": 0.0469,
      "velocity": 95,
      "chip": "ym2612"
    },
    {
      "channel": 3,
      "note": 78,
      "start": 88.4522,
      "duration": 0.4286,
      "velocity": 93,
      "chip": "ym2612"
    },
    {
      "channel": 1,
      "note": 68,
      "start": 88.499,
      "duration": 0.0469,
      "velocity": 95,
      "chip": "ym2612"
    },
    {
      "channel": 1,
      "note": 77,
      "start": 88.5943,
      "duration": 0.0469,
      "velocity": 95,
      "chip": "ym2612"
    },
    {
      "channel": 4,
      "note": 49,
      "start": 88.5962,
      "duration": 0.1735,
      "velocity": 91,
      "chip": "ym2612"
    },
    {
      "channel": 5,
      "note": 43,
      "start": 88.5999,
      "duration": 0.1383,
      "velocity": 127,
      "chip": "ym2612"
    },
    {
      "channel": 1,
      "note": 73,
      "start": 88.6896,
      "duration": 0.0468,
      "velocity": 95,
      "chip": "ym2612"
    },
    {
      "channel": 1,
      "note": 68,
      "start": 88.7849,
      "duration": 0.0469,
      "velocity": 95,
      "chip": "ym2612"
    },
    {
      "channel": 1,
      "note": 77,
      "start": 88.8801,
      "duration": 0.0469,
      "velocity": 95,
      "chip": "ym2612"
    },
    {
      "channel": 3,
      "note": 77,
      "start": 88.8815,
      "duration": 0.2855,
      "velocity": 93,
      "chip": "ym2612"
    },
    {
      "channel": 4,
      "note": 49,
      "start": 88.8824,
      "duration": 0.0778,
      "velocity": 91,
      "chip": "ym2612"
    },
    {
      "channel": 5,
      "note": 55,
      "start": 88.886,
      "duration": 0.138,
      "velocity": 115,
      "chip": "ym2612"
    },
    {
      "channel": 1,
      "note": 73,
      "start": 88.9753,
      "duration": 0.047,
      "velocity": 95,
      "chip": "ym2612"
    },
    {
      "channel": 1,
      "note": 68,
      "start": 89.0706,
      "duration": 0.0469,
      "velocity": 95,
      "chip": "ym2612"
    },
    {
      "channel": 0,
      "note": 75,
      "start": 89.1654,
      "duration": 0.9359,
      "velocity": 105,
      "chip": "ym2612"
    },
    {
      "channel": 1,
      "note": 70,
      "start": 89.1663,
      "duration": 0.2686,
      "velocity": 95,
      "chip": "ym2612"
    },
    {
      "channel": 3,
      "note": 75,
      "start": 89.1677,
      "duration": 0.4274,
      "velocity": 93,
      "chip": "ym2612"
    },
    {
      "channel": 4,
      "note": 51,
      "start": 89.1686,
      "duration": 0.0773,
      "velocity": 91,
      "chip": "ym2612"
    },
    {
      "channel": 5,
      "note": 52,
      "start": 89.1722,
      "duration": 0.1406,
      "velocity": 115,
      "chip": "ym2612"
    },
    {
      "channel": 5,
      "note": 55,
      "start": 89.3134,
      "duration": 0.1399,
      "velocity": 115,
      "chip": "ym2612"
    },
    {
      "channel": 2,
      "note": 75,
      "start": 89.3569,
      "duration": 0.9358,
      "velocity": 105,
      "chip": "ym2612"
    },
    {
      "channel": 4,
      "note": 51,
      "start": 89.453,
      "duration": 0.0787,
      "velocity": 91,
      "chip": "ym2612"
    },
    {
      "channel": 5,
      "note": 55,
      "start": 89.4539,
      "duration": 0.1427,
      "velocity": 115,
      "chip": "ym2612"
    },
    {
      "channel": 1,
      "note": 70,
      "start": 89.5945,
      "duration": 0.2692,
      "velocity": 95,
      "chip": "ym2612"
    },
    {
      "channel": 3,
      "note": 77,
      "start": 89.5959,
      "duration": 0.428,
      "velocity": 93,
      "chip": "ym2612"
    },
    {
      "channel": 5,
      "note": 55,
      "start": 89.5972,
      "duration": 0.1449,
      "velocity": 127,
      "chip": "ym2612"
    },
    {
      "channel": 4,
      "note": 51,
      "start": 89.7389,
      "duration": 0.1739,
      "velocity": 91,
      "chip": "ym2612"
    },
    {
      "channel": 5,
      "note": 43,
      "start": 89.7426,
      "duration": 0.139,
      "velocity": 127,
      "chip": "ym2612"
    },
    {
      "channel": 1,
      "note": 70,
      "start": 90.0232,
      "duration": 0.1738,
      "velocity": 95,
      "chip": "ym2612"
    },
    {
      "channel": 3,
      "note": 78,
      "start": 90.0246,
      "duration": 0.5707,
      "velocity": 93,
      "chip": "ym2612"
    },
    {
      "channel": 4,
      "note": 63,
      "start": 90.0255,
      "duration": 0.0774,
      "velocity": 91,
      "chip": "ym2612"
    },
    {
      "channel": 5,
      "note": 55,
      "start": 90.0292,
      "duration": 0.1414,
      "velocity": 117,
      "chip": "ym2612"
    },
    {
      "channel": 4,
      "note": 51,
      "start": 90.1675,
      "duration": 0.0786,
      "velocity": 91,
      "chip": "ym2612"
    },
    {
      "channel": 5,
      "note": 52,
      "start": 90.1711,
      "duration": 0.1427,
      "velocity": 127,
      "chip": "ym2612"
    },
    {
      "channel": 1,
      "note": 70,
      "start": 90.309,
      "duration": 0.2691,
      "velocity": 95,
      "chip": "ym2612"
    },
    {
      "channel": 4,
      "note": 51,
      "start": 90.3108,
      "duration": 0.0782,
      "velocity": 91,
      "chip": "ym2612"
    },
    {
      "channel": 5,
      "note": 43,
      "start": 90.3144,
      "duration": 0.1419,
      "velocity": 115,
      "chip": "ym2612"
    },
    {
      "channel": 4,
      "note": 63,
      "start": 90.4532,
      "duration": 0.0786,
      "velocity": 91,
      "chip": "ym2612"
    },
    {
      "channel": 5,
      "note": 55,
      "start": 90.4569,
      "duration": 0.0752,
      "velocity": 115,
      "chip": "ym2612"
    },
    {
      "channel": 5,
      "note": 55,
      "start": 90.5327,
      "duration": 0.0641,
      "velocity": 115,
      "chip": "ym2612"
    },
    {
      "channel": 0,
      "note": 75,
      "start": 90.5942,
      "duration": 0.1739,
      "velocity": 105,
      "chip": "ym2612"
    },
    {
      "channel": 3,
      "note": 75,
      "start": 90.5961,
      "duration": 0.285,
      "velocity": 93,
      "chip": "ym2612"
    },
    {
      "channel": 5,
      "note": 55,
      "start": 90.5974,
      "duration": 0.1422,
      "velocity": 115,
      "chip": "ym2612"
    },
    {
      "channel": 1,
      "note": 72,
      "start": 90.7375,
      "duration": 0.2692,
      "velocity": 95,
      "chip": "ym2612"
    },
    {
      "channel": 4,
      "note": 51,
      "start": 90.7393,
      "duration": 0.0783,
      "velocity": 91,
      "chip": "ym2612"
    },
    {
      "channel": 5,
      "note": 55,
      "start": 90.7402,
      "duration": 0.1427,
      "velocity": 115,
      "chip": "ym2612"
    },
    {
      "channel": 2,
      "note": 75,
      "start": 90.7857,
      "duration": 0.1738,
      "velocity": 105,
      "chip": "ym2612"
    },
    {
      "channel": 0,
      "note": 77,
      "start": 90.8799,
      "duration": 0.1739,
      "velocity": 105,
      "chip": "ym2612"
    },
    {
      "channel": 3,
      "note": 77,
      "start": 90.8817,
      "duration": 0.2855,
      "velocity": 93,
      "chip": "ym2612"
    },
    {
      "channel": 4,
      "note": 51,
      "start": 90.8826,
      "duration": 0.0776,
      "velocity": 91,
      "chip": "ym2612"
    },
    {
      "channel": 5,
      "note": 55,
      "start": 90.8834,
      "duration": 0.1415,
      "velocity": 115,
      "chip": "ym2612"
    },
    {
      "channel": 4,
      "note": 63,
      "start": 91.0247,
      "duration": 0.0787,
      "velocity": 91,
      "chip": "ym2612"
    },
    {
      "channel": 2,
      "note": 77,
      "start": 91.0714,
      "duration": 0.1739,
      "velocity": 105,
      "chip": "ym2612"
    },
    {
      "channel": 0,
      "note": 78,
      "start": 91.1656,
      "duration": 0.1739,
      "velocity": 105,
      "chip": "ym2612"
    },
    {
      "channel": 1,
      "note": 70,
      "start": 91.1666,
      "duration": 0.1732,
      "velocity": 95,
      "chip": "ym2612"
    },
    {
      "channel": 3,
      "note": 78,
      "start": 91.168,
      "duration": 0.285,
      "velocity": 93,
      "chip": "ym2612"
    },
    {
      "channel": 5,
      "note": 52,
      "start": 91.1721,
      "duration": 0.1414,
      "velocity": 115,
      "chip": "ym2612"
    },
    {
      "channel": 4,
      "note": 51,
      "start": 91.3105,
      "duration": 0.0786,
      "velocity": 91,
      "chip": "ym2612"
    },
    {
      "channel": 5,
      "note": 55,
      "start": 91.3141,
      "duration": 0.1435,
      "velocity": 117,
      "chip": "ym2612"
    },
    {
      "channel": 2,
      "note": 78,
      "start": 91.3572,
      "duration": 0.1739,
      "velocity": 105,
      "chip": "ym2612"
    },
    {
      "channel": 0,
      "note": 80,
      "start": 91.4515,
      "duration": 0.3486,
      "velocity": 105,
      "chip": "ym2612"
    },
    {
      "channel": 1,
      "note": 72,
      "start": 91.4523,
      "duration": 0.1735,
      "velocity": 95,
      "chip": "ym2612"
    },
    {
      "channel": 3,
      "note": 80,
      "start": 91.4537,
      "duration": 0.5707,
      "velocity": 93,
      "chip": "ym2612"
    },
    {
      "channel": 4,
      "note": 53,
      "start": 91.4546,
      "duration": 0.0771,
      "velocity": 91,
      "chip": "ym2612"
    },
    {
      "channel": 5,
      "note": 52,
      "start": 91.4583,
      "duration": 0.1407,
      "velocity": 115,
      "chip": "ym2612"
    },
    {
      "channel": 5,
      "note": 55,
      "start": 91.5995,
      "duration": 0.1403,
      "velocity": 115,
      "chip": "ym2612"
    },
    {
      "channel": 2,
      "note": 80,
      "start": 91.643,
      "duration": 0.3485,
      "velocity": 105,
      "chip": "ym2612"
    },
    {
      "channel": 1,
      "note": 65,
      "start": 91.7376,
      "duration": 0.174,
      "velocity": 95,
      "chip": "ym2612"
    },
    {
      "channel": 4,
      "note": 53,
      "start": 91.7395,
      "duration": 0.0783,
      "velocity": 91,
      "chip": "ym2612"
    },
    {
      "channel": 5,
      "note": 55,
      "start": 91.7403,
      "duration": 0.1415,
      "velocity": 115,
      "chip": "ym2612"
    },
    {
      "channel": 5,
      "note": 55,
      "start": 91.8825,
      "duration": 0.1467,
      "velocity": 127,
      "chip": "ym2612"
    },
    {
      "channel": 0,
      "note": 78,
      "start": 92.0229,
      "duration": 0.3487,
      "velocity": 105,
      "chip": "ym2612"
    },
    {
      "channel": 1,
      "note": 70,
      "start": 92.0238,
      "duration": 0.1736,
      "velocity": 95,
      "chip": "ym2612"
    },
    {
      "channel": 3,
      "note": 78,
      "start": 92.0251,
      "duration": 0.5709,
      "velocity": 93,
      "chip": "ym2612"
    },
    {
      "channel": 4,
      "note": 53,
      "start": 92.0261,
      "duration": 0.1725,
      "velocity": 91,
      "chip": "ym2612"
    },
    {
      "channel": 5,
      "note": 43,
      "start": 92.0298,
      "duration": 0.1379,
      "velocity": 127,
      "chip": "ym2612"
    },
    {
      "channel": 2,
      "note": 78,
      "start": 92.2144,
      "duration": 0.3487,
      "velocity": 105,
      "chip": "ym2612"
    },
    {
      "channel": 1,
      "note": 65,
      "start": 92.3092,
      "duration": 0.1739,
      "velocity": 95,
      "chip": "ym2612"
    },
    {
      "channel": 4,
      "note": 65,
      "start": 92.3111,
      "duration": 0.0783,
      "velocity": 91,
      "chip": "ym2612"
    },
    {
      "channel": 5,
      "note": 55,
      "start": 92.3148,
      "duration": 0.1418,
      "velocity": 117,
      "chip": "ym2612"
    },
    {
      "channel": 4,
      "note": 53,
      "start": 92.4536,
      "duration": 0.0786,
      "velocity": 91,
      "chip": "ym2612"
    },
    {
      "channel": 5,
      "note": 52,
      "start": 92.4572,
      "duration": 0.1436,
      "velocity": 127,
      "chip": "ym2612"
    },
    {
      "channel": 0,
      "note": 77,
      "start": 92.5945,
      "duration": 0.2691,
      "velocity": 105,
      "chip": "ym2612"
    },
    {
      "channel": 1,
      "note": 68,
      "start": 92.5954,
      "duration": 0.2683,
      "velocity": 95,
      "chip": "ym2612"
    },
    {
      "channel": 3,
      "note": 77,
      "start": 92.5968,
      "duration": 0.4278,
      "velocity": 93,
      "chip": "ym2612"
    },
    {
      "channel": 4,
      "note": 53,
      "start": 92.5976,
      "duration": 0.0773,
      "velocity": 91,
      "chip": "ym2612"
    },
    {
      "channel": 5,
      "note": 43,
      "start": 92.6013,
      "duration": 0.141,
      "velocity": 115,
      "chip": "ym2612"
    },
    {
      "channel": 4,
      "note": 65,
      "start": 92.7393,
      "duration": 0.0786,
      "velocity": 91,
      "chip": "ym2612"
    },
    {
      "channel": 5,
      "note": 55,
      "start": 92.7429,
      "duration": 0.0753,
      "velocity": 115,
      "chip": "ym2612"
    },
    {
      "channel": 2,
      "note": 77,
      "start": 92.786,
      "duration": 0.2691,
      "velocity": 105,
      "chip": "ym2612"
    },
    {
      "channel": 5,
      "note": 55,
      "start": 92.8188,
      "duration": 0.0633,
      "velocity": 115,
      "chip": "ym2612"
    },
    {
      "channel": 5,
      "note": 55,
      "start": 92.8827,
      "duration": 0.1438,
      "velocity": 115,
      "chip": "ym2612"
    },
    {
      "channel": 0,
      "note": 78,
      "start": 93.0231,
      "duration": 0.2691,
      "velocity": 105,
      "chip": "ym2612"
    },
    {
      "channel": 1,
      "note": 70,
      "start": 93.0239,
      "duration": 0.2685,
      "velocity": 95,
      "chip": "ym2612"
    },
    {
      "channel": 3,
      "note": 78,
      "start": 93.0253,
      "duration": 0.428,
      "velocity": 93,
      "chip": "ym2612"
    },
    {
      "channel": 4,
      "note": 53,
      "start": 93.0261,
      "duration": 0.0775,
      "velocity": 91,
      "chip": "ym2612"
    },
    {
      "channel": 5,
      "note": 55,
      "start": 93.027,
      "duration": 0.1439,
      "velocity": 127,
      "chip": "ym2612"
    },
    {
      "channel": 4,
      "note": 53,
      "start": 93.1679,
      "duration": 0.0786,
      "velocity": 91,
      "chip": "ym2612"
    },
    {
      "channel": 5,
      "note": 43,
      "start": 93.1716,
      "duration": 0.1395,
      "velocity": 127,
      "chip": "ym2612"
    },
    {
      "channel": 2,
      "note": 78,
      "start": 93.2145,
      "duration": 0.2692,
      "velocity": 105,
      "chip": "ym2612"
    },
    {
      "channel": 4,
      "note": 65,
      "start": 93.3108,
      "duration": 0.0786,
      "velocity": 91,
      "chip": "ym2612"
    },
    {
      "channel": 0,
      "note": 80,
      "start": 93.4518,
      "duration": 0.1739,
      "velocity": 105,
      "chip": "ym2612"
    },
    {
      "channel": 1,
      "note": 72,
      "start": 93.4527,
      "duration": 0.1731,
      "velocity": 95,
      "chip": "ym2612"
    },
    {
      "channel": 3,
      "note": 80,
      "start": 93.4541,
      "duration": 0.2849,
      "velocity": 93,
      "chip": "ym2612"
    },
    {
      "channel": 5,
      "note": 52,
      "start": 93.4583,
      "duration": 0.1414,
      "velocity": 115,
      "chip": "ym2612"
    },
    {
      "channel": 4,
      "note": 53,
      "start": 93.5966,
      "duration": 0.0786,
      "velocity": 91,
      "chip": "ym2612"
    },
    {
      "channel": 5,
      "note": 55,
      "start": 93.6002,
      "duration": 0.1435,
      "velocity": 117,
      "chip": "ym2612"
    },
    {
      "channel": 2,
      "note": 80,
      "start": 93.6433,
      "duration": 0.1738,
      "velocity": 105,
      "chip": "ym2612"
    },
    {
      "channel": 0,
      "note": 81,
      "start": 93.7375,
      "duration": 0.3486,
      "velocity": 105,
      "chip": "ym2612"
    },
    {
      "channel": 1,
      "note": 73,
      "start": 93.7384,
      "duration": 0.1735,
      "velocity": 95,
      "chip": "ym2612"
    },
    {
      "channel": 3,
      "note": 81,
      "start": 93.7398,
      "duration": 1.5224,
      "velocity": 93,
      "chip": "ym2612"
    },
    {
      "channel": 4,
      "note": 54,
      "start": 93.7406,
      "duration": 0.0771,
      "velocity": 91,
      "chip": "ym2612"
    },
    {
      "channel": 5,
      "note": 52,
      "start": 93.7443,
      "duration": 0.1407,
      "velocity": 115,
      "chip": "ym2612"
    },
    {
      "channel": 5,
      "note": 55,
      "start": 93.8856,
      "duration": 0.1403,
      "velocity": 115,
      "chip": "ym2612"
    },
    {
      "channel": 2,
      "note": 81,
      "start": 93.9291,
      "duration": 0.3485,
      "velocity": 105,
      "chip": "ym2612"
    },
    {
      "channel": 1,
      "note": 61,
      "start": 94.0237,
      "duration": 0.1739,
      "velocity": 95,
      "chip": "ym2612"
    },
    {
      "channel": 4,
      "note": 54,
      "start": 94.0256,
      "duration": 0.0783,
      "velocity": 91,
      "chip": "ym2612"
    },
    {
      "channel": 5,
      "note": 55,
      "start": 94.0264,
      "duration": 0.1415,
      "velocity": 115,
      "chip": "ym2612"
    },
    {
      "channel": 5,
      "note": 55,
      "start": 94.1686,
      "duration": 0.1462,
      "velocity": 127,
      "chip": "ym2612"
    },
    {
      "channel": 0,
      "note": 81,
      "start": 94.309,
      "duration": 0.3487,
      "velocity": 105,
      "chip": "ym2612"
    },
    {
      "channel": 1,
      "note": 73,
      "start": 94.3099,
      "duration": 0.1735,
      "velocity": 95,
      "chip": "ym2612"
    },
    {
      "channel": 4,
      "note": 54,
      "start": 94.3118,
      "duration": 0.1728,
      "velocity": 91,
      "chip": "ym2612"
    },
    {
      "channel": 5,
      "note": 43,
      "start": 94.3154,
      "duration": 0.1383,
      "velocity": 127,
      "chip": "ym2612"
    },
    {
      "channel": 2,
      "note": 81,
      "start": 94.5004,
      "duration": 0.3487,
      "velocity": 105,
      "chip": "ym2612"
    },
    {
      "channel": 1,
      "note": 61,
      "start": 94.5952,
      "duration": 0.1739,
      "velocity": 95,
      "chip": "ym2612"
    },
    {
      "channel": 4,
      "note": 66,
      "start": 94.5971,
      "duration": 0.0783,
      "velocity": 91,
      "chip": "ym2612"
    },
    {
      "channel": 5,
      "note": 52,
      "start": 94.6007,
      "duration": 0.1391,
      "velocity": 117,
      "chip": "ym2612"
    },
    {
      "channel": 4,
      "note": 54,
      "start": 94.7396,
      "duration": 0.0786,
      "velocity": 91,
      "chip": "ym2612"
    },
    {
      "channel": 5,
      "note": 52,
      "start": 94.7405,
      "duration": 0.146,
      "velocity": 127,
      "chip": "ym2612"
    },
    {
      "channel": 0,
      "note": 81,
      "start": 94.8805,
      "duration": 0.2692,
      "velocity": 105,
      "chip": "ym2612"
    },
    {
      "channel": 1,
      "note": 73,
      "start": 94.8815,
      "duration": 0.2683,
      "velocity": 95,
      "chip": "ym2612"
    },
    {
      "channel": 4,
      "note": 54,
      "start": 94.8833,
      "duration": 0.0777,
      "velocity": 91,
      "chip": "ym2612"
    },
    {
      "channel": 5,
      "note": 43,
      "start": 94.887,
      "duration": 0.1414,
      "velocity": 115,
      "chip": "ym2612"
    },
    {
      "channel": 4,
      "note": 66,
      "start": 95.0253,
      "duration": 0.0786,
      "velocity": 91,
      "chip": "ym2612"
    },
    {
      "channel": 5,
      "note": 55,
      "start": 95.0289,
      "duration": 0.0753,
      "velocity": 115,
      "chip": "ym2612"
    },
    {
      "channel": 2,
      "note": 81,
      "start": 95.0721,
      "duration": 0.269,
      "velocity": 105,
      "chip": "ym2612"
    },
    {
      "channel": 5,
      "note": 55,
      "start": 95.1048,
      "duration": 0.0633,
      "velocity": 115,
      "chip": "ym2612"
    },
    {
      "channel": 5,
      "note": 55,
      "start": 95.1687,
      "duration": 0.1435,
      "velocity": 115,
      "chip": "ym2612"
    },
    {
      "channel": 0,
      "note": 83,
      "start": 95.3091,
      "duration": 0.2691,
      "velocity": 105,
      "chip": "ym2612"
    },
    {
      "channel": 1,
      "note": 71,
      "start": 95.31,
      "duration": 0.2685,
      "velocity": 95,
      "chip": "ym2612"
    },
    {
      "channel": 4,
      "note": 54,
      "start": 95.3118,
      "duration": 0.0779,
      "velocity": 91,
      "chip": "ym2612"
    },
    {
      "channel": 5,
      "note": 55,
      "start": 95.3127,
      "duration": 0.1443,
      "velocity": 127,
      "chip": "ym2612"
    },
    {
      "channel": 4,
      "note": 54,
      "start": 95.4539,
      "duration": 0.0786,
      "velocity": 91,
      "chip": "ym2612"
    },
    {
      "channel": 5,
      "note": 43,
      "start": 95.4576,
      "duration": 0.1395,
      "velocity": 127,
      "chip": "ym2612"
    },
    {
      "channel": 2,
      "note": 83,
      "start": 95.5006,
      "duration": 0.2691,
      "velocity": 105,
      "chip": "ym2612"
    },
    {
      "channel": 4,
      "note": 66,
      "start": 95.5968,
      "duration": 0.0787,
      "velocity": 91,
      "chip": "ym2612"
    },
    {
      "channel": 0,
      "note": 85,
      "start": 95.7378,
      "duration": 0.1738,
      "velocity": 105,
      "chip": "ym2612"
    },
    {
      "channel": 1,
      "note": 69,
      "start": 95.7388,
      "duration": 0.173,
      "velocity": 95,
      "chip": "ym2612"
    },
    {
      "channel": 3,
      "note": 80,
      "start": 95.7402,
      "duration": 0.1412,
      "velocity": 93,
      "chip": "ym2612"
    },
    {
      "channel": 5,
      "note": 43,
      "start": 95.7415,
      "duration": 0.1417,
      "velocity": 127,
      "chip": "ym2612"
    },
    {
      "channel": 3,
      "note": 78,
      "start": 95.8821,
      "duration": 0.1431,
      "velocity": 93,
      "chip": "ym2612"
    },
    {
      "channel": 4,
      "note": 54,
      "start": 95.8829,
      "duration": 0.0782,
      "velocity": 91,
      "chip": "ym2612"
    },
    {
      "channel": 5,
      "note": 43,
      "start": 95.8838,
      "duration": 0.146,
      "velocity": 117,
      "chip": "ym2612"
    },
    {
      "channel": 2,
      "note": 85,
      "start": 95.9294,
      "duration": 0.1737,
      "velocity": 105,
      "chip": "ym2612"
    },
    {
      "channel": 0,
      "note": 84,
      "start": 96.0236,
      "duration": 1.5073,
      "velocity": 105,
      "chip": "ym2612"
    },
    {
      "channel": 1,
      "note": 68,
      "start": 96.0246,
      "duration": 0.5386,
      "velocity": 95,
      "chip": "ym2612"
    },
    {
      "channel": 3,
      "note": 80,
      "start": 96.0259,
      "duration": 0.1412,
      "velocity": 93,
      "chip": "ym2612"
    },
    {
      "channel": 4,
      "note": 56,
      "start": 96.0268,
      "duration": 0.077,
      "velocity": 91,
      "chip": "ym2612"
    },
    {
      "channel": 5,
      "note": 52,
      "start": 96.0304,
      "duration": 0.141,
      "velocity": 115,
      "chip": "ym2612"
    },
    {
      "channel": 3,
      "note": 78,
      "start": 96.1679,
      "duration": 0.1422,
      "velocity": 93,
      "chip": "ym2612"
    },
    {
      "channel": 5,
      "note": 55,
      "start": 96.172,
      "duration": 0.1399,
      "velocity": 115,
      "chip": "ym2612"
    },
    {
      "channel": 2,
      "note": 84,
      "start": 96.2151,
      "duration": 1.5074,
      "velocity": 105,
      "chip": "ym2612"
    },
    {
      "channel": 3,
      "note": 80,
      "start": 96.3107,
      "duration": 0.1422,
      "velocity": 93,
      "chip": "ym2612"
    },
    {
      "channel": 4,
      "note": 56,
      "start": 96.3116,
      "duration": 0.0783,
      "velocity": 91,
      "chip": "ym2612"
    },
    {
      "channel": 5,
      "note": 55,
      "start": 96.3125,
      "duration": 0.1419,
      "velocity": 115,
      "chip": "ym2612"
    },
    {
      "channel": 3,
      "note": 75,
      "start": 96.4536,
      "duration": 0.1422,
      "velocity": 93,
      "chip": "ym2612"
    },
    {
      "channel": 5,
      "note": 55,
      "start": 96.455,
      "duration": 0.1454,
      "velocity": 127,
      "chip": "ym2612"
    },
    {
      "channel": 3,
      "note": 78,
      "start": 96.5965,
      "duration": 0.1422,
      "velocity": 93,
      "chip": "ym2612"
    },
    {
      "channel": 4,
      "note": 56,
      "start": 96.5973,
      "duration": 0.0784,
      "velocity": 91,
      "chip": "ym2612"
    },
    {
      "channel": 5,
      "note": 43,
      "start": 96.601,
      "duration": 0.1419,
      "velocity": 115,
      "chip": "ym2612"
    },
    {
      "channel": 3,
      "note": 77,
      "start": 96.7394,
      "duration": 0.1426,
      "velocity": 93,
      "chip": "ym2612"
    },
    {
      "channel": 5,
      "note": 55,
      "start": 96.7435,
      "duration": 0.1431,
      "velocity": 117,
      "chip": "ym2612"
    },
    {
      "channel": 1,
      "note": 56,
      "start": 96.8813,
      "duration": 0.0786,
      "velocity": 95,
      "chip": "ym2612"
    },
    {
      "channel": 3,
      "note": 78,
      "start": 96.8827,
      "duration": 0.1422,
      "velocity": 93,
      "chip": "ym2612"
    },
    {
      "channel": 4,
      "note": 56,
      "start": 96.8835,
      "duration": 0.0776,
      "velocity": 91,
      "chip": "ym2612"
    },
    {
      "channel": 5,
      "note": 52,
      "start": 96.8871,
      "duration": 0.1392,
      "velocity": 117,
      "chip": "ym2612"
    },
    {
      "channel": 1,
      "note": 56,
      "start": 97.0242,
      "duration": 0.8249,
      "velocity": 95,
      "chip": "ym2612"
    },
    {
      "channel": 3,
      "note": 75,
      "start": 97.0256,
      "duration": 0.1417,
      "velocity": 93,
      "chip": "ym2612"
    },
    {
      "channel": 5,
      "note": 52,
      "start": 97.0269,
      "duration": 0.1451,
      "velocity": 122,
      "chip": "ym2612"
    },
    {
      "channel": 3,
      "note": 77,
      "start": 97.168,
      "duration": 0.1422,
      "velocity": 93,
      "chip": "ym2612"
    },
    {
      "channel": 4,
      "note": 56,
      "start": 97.1689,
      "duration": 0.0783,
      "velocity": 91,
      "chip": "ym2612"
    },
    {
      "channel": 5,
      "note": 52,
      "start": 97.1725,
      "duration": 0.0777,
      "velocity": 122,
      "chip": "ym2612"
    },
    {
      "channel": 5,
      "note": 52,
      "start": 97.2508,
      "duration": 0.064,
      "velocity": 122,
      "chip": "ym2612"
    },
    {
      "channel": 3,
      "note": 75,
      "start": 97.3109,
      "duration": 0.1422,
      "velocity": 93,
      "chip": "ym2612"
    },
    {
      "channel": 4,
      "note": 56,
      "start": 97.3118,
      "duration": 0.0783,
      "velocity": 91,
      "chip": "ym2612"
    },
    {
      "channel": 5,
      "note": 52,
      "start": 97.3154,
      "duration": 0.1423,
      "velocity": 122,
      "chip": "ym2612"
    },
    {
      "channel": 3,
      "note": 77,
      "start": 97.4537,
      "duration": 0.1422,
      "velocity": 93,
      "chip": "ym2612"
    },
    {
      "channel": 4,
      "note": 56,
      "start": 97.4546,
      "duration": 0.0779,
      "velocity": 91,
      "chip": "ym2612"
    },
    {
      "channel": 5,
      "note": 47,
      "start": 97.4583,
      "duration": 0.1424,
      "velocity": 122,
      "chip": "ym2612"
    },
    {
      "channel": 3,
      "note": 72,
      "start": 97.5966,
      "duration": 0.1422,
      "velocity": 93,
      "chip": "ym2612"
    },
    {
      "channel": 4,
      "note": 56,
      "start": 97.5976,
      "duration": 0.1735,
      "velocity": 91,
      "chip": "ym2612"
    },
    {
      "channel": 5,
      "note": 47,
      "start": 97.6012,
      "duration": 0.1419,
      "velocity": 117,
      "chip": "ym2612"
    },
    {
      "channel": 3,
      "note": 75,
      "start": 97.7396,
      "duration": 0.1421,
      "velocity": 93,
      "chip": "ym2612"
    },
    {
      "channel": 5,
      "note": 52,
      "start": 97.7437,
      "duration": 0.1427,
      "velocity": 122,
      "chip": "ym2612"
    },
    {
      "channel": 3,
      "note": 72,
      "start": 97.8824,
      "duration": 0.1421,
      "velocity": 93,
      "chip": "ym2612"
    },
    {
      "channel": 4,
      "note": 56,
      "start": 97.8833,
      "duration": 0.0782,
      "velocity": 91,
      "chip": "ym2612"
    },
    {
      "channel": 5,
      "note": 40,
      "start": 97.887,
      "duration": 0.1422,
      "velocity": 122,
      "chip": "ym2612"
    },
    {
      "channel": 3,
      "note": 75,
      "start": 98.0252,
      "duration": 0.1422,
      "velocity": 93,
      "chip": "ym2612"
    },
    {
      "channel": 4,
      "note": 56,
      "start": 98.0261,
      "duration": 0.0783,
      "velocity": 91,
      "chip": "ym2612"
    },
    {
      "channel": 5,
      "note": 40,
      "start": 98.0297,
      "duration": 0.1392,
      "velocity": 122,
      "chip": "ym2612"
    },
    {
      "channel": 3,
      "note": 68,
      "start": 98.1681,
      "duration": 0.1494,
      "velocity": 95,
      "chip": "ym2612"
    },
    {
      "channel": 0,
      "note": 88,
      "start": 98.31,
      "duration": 0.2845,
      "velocity": 105,
      "chip": "ym2612"
    },
    {
      "channel": 1,
      "note": 64,
      "start": 98.3137,
      "duration": 0.0909,
      "velocity": 95,
      "chip": "ym2612"
    },
    {
      "channel": 3,
      "note": 59,
      "start": 98.3183,
      "duration": 0.1513,
      "velocity": 95,
      "chip": "ym2612"
    },
    {
      "channel": 4,
      "note": 52,
      "start": 98.3192,
      "duration": 0.7378,
      "velocity": 91,
      "chip": "ym2612"
    },
    {
      "channel": 5,
      "note": 43,
      "start": 98.3229,
      "duration": 0.0834,
      "velocity": 127,
      "chip": "ym2612"
    },
    {
      "channel": 5,
      "note": 43,
      "start": 98.4069,
      "duration": 0.0641,
      "velocity": 127,
      "chip": "ym2612"
    },
    {
      "channel": 1,
      "note": 63,
      "start": 98.4689,
      "duration": 0.1738,
      "velocity": 95,
      "chip": "ym2612"
    },
    {
      "channel": 3,
      "note": 59,
      "start": 98.4703,
      "duration": 0.173,
      "velocity": 95,
      "chip": "ym2612"
    },
    {
      "channel": 5,
      "note": 43,
      "start": 98.4717,
      "duration": 0.1441,
      "velocity": 117,
      "chip": "ym2612"
    },
    {
      "channel": 2,
      "note": 88,
      "start": 98.5174,
      "duration": 0.2687,
      "velocity": 105,
      "chip": "ym2612"
    },
    {
      "channel": 5,
      "note": 52,
      "start": 98.6164,
      "duration": 0.1435,
      "velocity": 127,
      "chip": "ym2612"
    },
    {
      "channel": 0,
      "note": 88,
      "start": 98.7541,
      "duration": 0.2692,
      "velocity": 105,
      "chip": "ym2612"
    },
    {
      "channel": 1,
      "note": 64,
      "start": 98.755,
      "duration": 0.1735,
      "velocity": 95,
      "chip": "ym2612"
    },
    {
      "channel": 3,
      "note": 59,
      "start": 98.7563,
      "duration": 0.1729,
      "velocity": 95,
      "chip": "ym2612"
    },
    {
      "channel": 5,
      "note": 43,
      "start": 98.7605,
      "duration": 0.1383,
      "velocity": 127,
      "chip": "ym2612"
    },
    {
      "channel": 2,
      "note": 88,
      "start": 98.9455,
      "duration": 0.2692,
      "velocity": 105,
      "chip": "ym2612"
    },
    {
      "channel": 1,
      "note": 63,
      "start": 99.0404,
      "duration": 0.0786,
      "velocity": 95,
      "chip": "ym2612"
    },
    {
      "channel": 3,
      "note": 59,
      "start": 99.0419,
      "duration": 0.0778,
      "velocity": 95,
      "chip": "ym2612"
    },
    {
      "channel": 5,
      "note": 55,
      "start": 99.046,
      "duration": 0.1427,
      "velocity": 117,
      "chip": "ym2612"
    },
    {
      "channel": 0,
      "note": 88,
      "start": 99.1827,
      "duration": 0.2692,
      "velocity": 105,
      "chip": "ym2612"
    },
    {
      "channel": 1,
      "note": 64,
      "start": 99.1837,
      "duration": 0.1735,
      "velocity": 95,
      "chip": "ym2612"
    },
    {
      "channel": 3,
      "note": 59,
      "start": 99.1851,
      "duration": 0.1727,
      "velocity": 95,
      "chip": "ym2612"
    },
    {
      "channel": 5,
      "note": 52,
      "start": 99.1893,
      "duration": 0.1382,
      "velocity": 117,
      "chip": "ym2612"
    },
    {
      "channel": 2,
      "note": 88,
      "start": 99.3742,
      "duration": 0.2691,
      "velocity": 105,
      "chip": "ym2612"
    },
    {
      "channel": 1,
      "note": 63,
      "start": 99.469,
      "duration": 0.0786,
      "velocity": 95,
      "chip": "ym2612"
    },
    {
      "channel": 3,
      "note": 59,
      "start": 99.4704,
      "duration": 0.0779,
      "velocity": 95,
      "chip": "ym2612"
    },
    {
      "channel": 4,
      "note": 52,
      "start": 99.4714,
      "duration": 0.0771,
      "velocity": 91,
      "chip": "ym2612"
    },
    {
      "channel": 5,
      "note": 52,
      "start": 99.4723,
      "duration": 0.1455,
      "velocity": 115,
      "chip": "ym2612"
    },
    {
      "channel": 0,
      "note": 88,
      "start": 99.6115,
      "duration": 0.0785,
      "velocity": 105,
      "chip": "ym2612"
    },
    {
      "channel": 1,
      "note": 64,
      "start": 99.6124,
      "duration": 0.1729,
      "velocity": 95,
      "chip": "ym2612"
    },
    {
      "channel": 3,
      "note": 59,
      "start": 99.6138,
      "duration": 0.1722,
      "velocity": 95,
      "chip": "ym2612"
    },
    {
      "channel": 4,
      "note": 52,
      "start": 99.6148,
      "duration": 0.1714,
      "velocity": 91,
      "chip": "ym2612"
    },
    {
      "channel": 5,
      "note": 55,
      "start": 99.6184,
      "duration": 0.0738,
      "velocity": 115,
      "chip": "ym2612"
    },
    {
      "channel": 5,
      "note": 55,
      "start": 99.6928,
      "duration": 0.0631,
      "velocity": 115,
      "chip": "ym2612"
    },
    {
      "channel": 5,
      "note": 55,
      "start": 99.7565,
      "duration": 0.1442,
      "velocity": 115,
      "chip": "ym2612"
    },
    {
      "channel": 2,
      "note": 88,
      "start": 99.8025,
      "duration": 0.0785,
      "velocity": 105,
      "chip": "ym2612"
    },
    {
      "channel": 0,
      "note": 88,
      "start": 99.8971,
      "duration": 0.0786,
      "velocity": 105,
      "chip": "ym2612"
    },
    {
      "channel": 1,
      "note": 64,
      "start": 99.8981,
      "duration": 0.0778,
      "velocity": 95,
      "chip": "ym2612"
    },
    {
      "channel": 3,
      "note": 59,
      "start": 99.8995,
      "duration": 0.0767,
      "velocity": 95,
      "chip": "ym2612"
    },
    {
      "channel": 4,
      "note": 56,
      "start": 99.9004,
      "duration": 0.0759,
      "velocity": 91,
      "chip": "ym2612"
    },
    {
      "channel": 5,
      "note": 55,
      "start": 99.9013,
      "duration": 0.1448,
      "velocity": 127,
      "chip": "ym2612"
    },
    {
      "channel": 0,
      "note": 92,
      "start": 100.0401,
      "duration": 0.1738,
      "velocity": 105,
      "chip": "ym2612"
    },
    {
      "channel": 1,
      "note": 71,
      "start": 100.041,
      "duration": 0.173,
      "velocity": 95,
      "chip": "ym2612"
    },
    {
      "channel": 3,
      "note": 64,
      "start": 100.042,
      "duration": 0.1727,
      "velocity": 95,
      "chip": "ym2612"
    },
    {
      "channel": 4,
      "note": 52,
      "start": 100.043,
      "duration": 0.1719,
      "velocity": 91,
      "chip": "ym2612"
    },
    {
      "channel": 5,
      "note": 43,
      "start": 100.0467,
      "duration": 0.138,
      "velocity": 127,
      "chip": "ym2612"
    },
    {
      "channel": 2,
      "note": 88,
      "start": 100.0887,
      "duration": 0.0786,
      "velocity": 105,
      "chip": "ym2612"
    },
    {
      "channel": 2,
      "note": 92,
      "start": 100.2316,
      "duration": 0.1737,
      "velocity": 105,
      "chip": "ym2612"
    },
    {
      "channel": 0,
      "note": 88,
      "start": 100.3257,
      "duration": 0.174,
      "velocity": 105,
      "chip": "ym2612"
    },
    {
      "channel": 1,
      "note": 68,
      "start": 100.3266,
      "duration": 0.1732,
      "velocity": 95,
      "chip": "ym2612"
    },
    {
      "channel": 3,
      "note": 64,
      "start": 100.3279,
      "duration": 0.1725,
      "velocity": 95,
      "chip": "ym2612"
    },
    {
      "channel": 4,
      "note": 47,
      "start": 100.3288,
      "duration": 0.1718,
      "velocity": 91,
      "chip": "ym2612"
    },
    {
      "channel": 5,
      "note": 55,
      "start": 100.3324,
      "duration": 0.138,
      "velocity": 115,
      "chip": "ym2612"
    },
    {
      "channel": 5,
      "note": 55,
      "start": 100.471,
      "duration": 0.1469,
      "velocity": 117,
      "chip": "ym2612"
    },
    {
      "channel": 2,
      "note": 88,
      "start": 100.5172,
      "duration": 0.1735,
      "velocity": 105,
      "chip": "ym2612"
    },
    {
      "channel": 0,
      "note": 88,
      "start": 100.6116,
      "duration": 0.2691,
      "velocity": 105,
      "chip": "ym2612"
    },
    {
      "channel": 1,
      "note": 63,
      "start": 100.6125,
      "duration": 0.078,
      "velocity": 95,
      "chip": "ym2612"
    },
    {
      "channel": 3,
      "note": 61,
      "start": 100.6139,
      "duration": 0.077,
      "velocity": 95,
      "chip": "ym2612"
    },
    {
      "channel": 4,
      "note": 49,
      "start": 100.6149,
      "duration": 0.3471,
      "velocity": 91,
      "chip": "ym2612"
    },
    {
      "channel": 5,
      "note": 52,
      "start": 100.6185,
      "duration": 0.1414,
      "velocity": 115,
      "chip": "ym2612"
    },
    {
      "channel": 1,
      "note": 64,
      "start": 100.7549,
      "duration": 0.1739,
      "velocity": 95,
      "chip": "ym2612"
    },
    {
      "channel": 3,
      "note": 61,
      "start": 100.7563,
      "duration": 0.173,
      "velocity": 95,
      "chip": "ym2612"
    },
    {
      "channel": 5,
      "note": 55,
      "start": 100.7605,
      "duration": 0.0751,
      "velocity": 115,
      "chip": "ym2612"
    },
    {
      "channel": 2,
      "note": 88,
      "start": 100.803,
      "duration": 0.2691,
      "velocity": 105,
      "chip": "ym2612"
    },
    {
      "channel": 5,
      "note": 55,
      "start": 100.8361,
      "duration": 0.063,
      "velocity": 115,
      "chip": "ym2612"
    },
    {
      "channel": 5,
      "note": 55,
      "start": 100.8997,
      "duration": 0.1435,
      "velocity": 115,
      "chip": "ym2612"
    },
    {
      "channel": 0,
      "note": 88,
      "start": 101.0401,
      "duration": 0.2691,
      "velocity": 105,
      "chip": "ym2612"
    },
    {
      "channel": 1,
      "note": 63,
      "start": 101.041,
      "duration": 0.0783,
      "velocity": 95,
      "chip": "ym2612"
    },
    {
      "channel": 3,
      "note": 61,
      "start": 101.0425,
      "duration": 0.0774,
      "velocity": 95,
      "chip": "ym2612"
    },
    {
      "channel": 5,
      "note": 55,
      "start": 101.0438,
      "duration": 0.1451,
      "velocity": 127,
      "chip": "ym2612"
    },
    {
      "channel": 1,
      "note": 64,
      "start": 101.1836,
      "duration": 0.1738,
      "velocity": 95,
      "chip": "ym2612"
    },
    {
      "channel": 3,
      "note": 61,
      "start": 101.185,
      "duration": 0.173,
      "velocity": 95,
      "chip": "ym2612"
    },
    {
      "channel": 4,
      "note": 49,
      "start": 101.1858,
      "duration": 0.3478,
      "velocity": 91,
      "chip": "ym2612"
    },
    {
      "channel": 5,
      "note": 43,
      "start": 101.1895,
      "duration": 0.1382,
      "velocity": 127,
      "chip": "ym2612"
    },
    {
      "channel": 2,
      "note": 88,
      "start": 101.2315,
      "duration": 0.2692,
      "velocity": 105,
      "chip": "ym2612"
    },
    {
      "channel": 0,
      "note": 88,
      "start": 101.4688,
      "duration": 0.2692,
      "velocity": 105,
      "chip": "ym2612"
    },
    {
      "channel": 1,
      "note": 63,
      "start": 101.4697,
      "duration": 0.0782,
      "velocity": 95,
      "chip": "ym2612"
    },
    {
      "channel": 3,
      "note": 61,
      "start": 101.4711,
      "duration": 0.0774,
      "velocity": 95,
      "chip": "ym2612"
    },
    {
      "channel": 5,
      "note": 55,
      "start": 101.4753,
      "duration": 0.1391,
      "velocity": 115,
      "chip": "ym2612"
    },
    {
      "channel": 1,
      "note": 64,
      "start": 101.6122,
      "duration": 0.1738,
      "velocity": 95,
      "chip": "ym2612"
    },
    {
      "channel": 3,
      "note": 61,
      "start": 101.6136,
      "duration": 0.173,
      "velocity": 95,
      "chip": "ym2612"
    },
    {
      "channel": 2,
      "note": 88,
      "start": 101.6602,
      "duration": 0.2692,
      "velocity": 105,
      "chip": "ym2612"
    },
    {
      "channel": 4,
      "note": 49,
      "start": 101.7565,
      "duration": 0.3482,
      "velocity": 91,
      "chip": "ym2612"
    },
    {
      "channel": 5,
      "note": 52,
      "start": 101.7601,
      "duration": 0.1431,
      "velocity": 115,
      "chip": "ym2612"
    },
    {
      "channel": 0,
      "note": 88,
      "start": 101.8974,
      "duration": 0.0786,
      "velocity": 105,
      "chip": "ym2612"
    },
    {
      "channel": 1,
      "note": 64,
      "start": 101.8983,
      "duration": 0.173,
      "velocity": 95,
      "chip": "ym2612"
    },
    {
      "channel": 3,
      "note": 61,
      "start": 101.8997,
      "duration": 0.1724,
      "velocity": 95,
      "chip": "ym2612"
    },
    {
      "channel": 5,
      "note": 55,
      "start": 101.9038,
      "duration": 0.0744,
      "velocity": 115,
      "chip": "ym2612"
    },
    {
      "channel": 5,
      "note": 55,
      "start": 101.9788,
      "duration": 0.0631,
      "velocity": 115,
      "chip": "ym2612"
    },
    {
      "channel": 5,
      "note": 55,
      "start": 102.0425,
      "duration": 0.1438,
      "velocity": 115,
      "chip": "ym2612"
    },
    {
      "channel": 2,
      "note": 88,
      "start": 102.0886,
      "duration": 0.0785,
      "velocity": 105,
      "chip": "ym2612"
    },
    {
      "channel": 0,
      "note": 88,
      "start": 102.1832,
      "duration": 0.0786,
      "velocity": 105,
      "chip": "ym2612"
    },
    {
      "channel": 1,
      "note": 64,
      "start": 102.1841,
      "duration": 0.0778,
      "velocity": 95,
      "chip": "ym2612"
    },
    {
      "channel": 3,
      "note": 61,
      "start": 102.1856,
      "duration": 0.0766,
      "velocity": 95,
      "chip": "ym2612"
    },
    {
      "channel": 5,
      "note": 55,
      "start": 102.187,
      "duration": 0.1451,
      "velocity": 127,
      "chip": "ym2612"
    },
    {
      "channel": 0,
      "note": 92,
      "start": 102.3261,
      "duration": 0.1738,
      "velocity": 105,
      "chip": "ym2612"
    },
    {
      "channel": 1,
      "note": 71,
      "start": 102.327,
      "duration": 0.1731,
      "velocity": 95,
      "chip": "ym2612"
    },
    {
      "channel": 3,
      "note": 64,
      "start": 102.3281,
      "duration": 0.1726,
      "velocity": 95,
      "chip": "ym2612"
    },
    {
      "channel": 4,
      "note": 51,
      "start": 102.329,
      "duration": 0.172,
      "velocity": 91,
      "chip": "ym2612"
    },
    {
      "channel": 5,
      "note": 43,
      "start": 102.3327,
      "duration": 0.138,
      "velocity": 127,
      "chip": "ym2612"
    },
    {
      "channel": 2,
      "note": 88,
      "start": 102.3747,
      "duration": 0.0786,
      "velocity": 105,
      "chip": "ym2612"
    },
    {
      "channel": 2,
      "note": 92,
      "start": 102.5177,
      "duration": 0.1737,
      "velocity": 105,
      "chip": "ym2612"
    },
    {
      "channel": 0,
      "note": 88,
      "start": 102.6118,
      "duration": 0.1739,
      "velocity": 105,
      "chip": "ym2612"
    },
    {
      "channel": 1,
      "note": 68,
      "start": 102.6127,
      "duration": 0.1732,
      "velocity": 95,
      "chip": "ym2612"
    },
    {
      "channel": 3,
      "note": 64,
      "start": 102.614,
      "duration": 0.1725,
      "velocity": 95,
      "chip": "ym2612"
    },
    {
      "channel": 4,
      "note": 52,
      "start": 102.6149,
      "duration": 0.1718,
      "velocity": 91,
      "chip": "ym2612"
    },
    {
      "channel": 5,
      "note": 55,
      "start": 102.6185,
      "duration": 0.138,
      "velocity": 115,
      "chip": "ym2612"
    },
    {
      "channel": 5,
      "note": 55,
      "start": 102.7571,
      "duration": 0.1468,
      "velocity": 117,
      "chip": "ym2612"
    },
    {
      "channel": 2,
      "note": 88,
      "start": 102.8033,
      "duration": 0.1735,
      "velocity": 105,
      "chip": "ym2612"
    },
    {
      "channel": 0,
      "note": 90,
      "start": 102.8976,
      "duration": 0.2691,
      "velocity": 105,
      "chip": "ym2612"
    },
    {
      "channel": 1,
      "note": 69,
      "start": 102.8986,
      "duration": 0.078,
      "velocity": 95,
      "chip": "ym2612"
    },
    {
      "channel": 3,
      "note": 66,
      "start": 102.9,
      "duration": 0.077,
      "velocity": 95,
      "chip": "ym2612"
    },
    {
      "channel": 4,
      "note": 54,
      "start": 102.9009,
      "duration": 0.1726,
      "velocity": 91,
      "chip": "ym2612"
    },
    {
      "channel": 5,
      "note": 52,
      "start": 102.9045,
      "duration": 0.1414,
      "velocity": 115,
      "chip": "ym2612"
    },
    {
      "channel": 1,
      "note": 68,
      "start": 103.041,
      "duration": 0.1739,
      "velocity": 95,
      "chip": "ym2612"
    },
    {
      "channel": 3,
      "note": 66,
      "start": 103.0424,
      "duration": 0.1731,
      "velocity": 95,
      "chip": "ym2612"
    },
    {
      "channel": 5,
      "note": 55,
      "start": 103.0465,
      "duration": 0.0751,
      "velocity": 115,
      "chip": "ym2612"
    },
    {
      "channel": 2,
      "note": 90,
      "start": 103.0891,
      "duration": 0.269,
      "velocity": 105,
      "chip": "ym2612"
    },
    {
      "channel": 5,
      "note": 55,
      "start": 103.1222,
      "duration": 0.0634,
      "velocity": 115,
      "chip": "ym2612"
    },
    {
      "channel": 4,
      "note": 54,
      "start": 103.1853,
      "duration": 0.1735,
      "velocity": 91,
      "chip": "ym2612"
    },
    {
      "channel": 5,
      "note": 55,
      "start": 103.1861,
      "duration": 0.1431,
      "velocity": 115,
      "chip": "ym2612"
    },
    {
      "channel": 0,
      "note": 90,
      "start": 103.3261,
      "duration": 0.2692,
      "velocity": 105,
      "chip": "ym2612"
    },
    {
      "channel": 1,
      "note": 69,
      "start": 103.327,
      "duration": 0.1736,
      "velocity": 95,
      "chip": "ym2612"
    },
    {
      "channel": 3,
      "note": 66,
      "start": 103.3284,
      "duration": 0.1729,
      "velocity": 95,
      "chip": "ym2612"
    },
    {
      "channel": 5,
      "note": 55,
      "start": 103.3298,
      "duration": 0.1445,
      "velocity": 127,
      "chip": "ym2612"
    },
    {
      "channel": 4,
      "note": 66,
      "start": 103.4711,
      "duration": 0.0785,
      "velocity": 91,
      "chip": "ym2612"
    },
    {
      "channel": 5,
      "note": 43,
      "start": 103.4748,
      "duration": 0.1403,
      "velocity": 127,
      "chip": "ym2612"
    },
    {
      "channel": 2,
      "note": 90,
      "start": 103.5177,
      "duration": 0.2691,
      "velocity": 105,
      "chip": "ym2612"
    },
    {
      "channel": 1,
      "note": 68,
      "start": 103.6125,
      "duration": 0.0786,
      "velocity": 95,
      "chip": "ym2612"
    },
    {
      "channel": 3,
      "note": 66,
      "start": 103.6139,
      "duration": 0.0779,
      "velocity": 95,
      "chip": "ym2612"
    },
    {
      "channel": 4,
      "note": 54,
      "start": 103.6149,
      "duration": 0.1726,
      "velocity": 91,
      "chip": "ym2612"
    },
    {
      "channel": 0,
      "note": 90,
      "start": 103.7548,
      "duration": 0.2691,
      "velocity": 105,
      "chip": "ym2612"
    },
    {
      "channel": 1,
      "note": 69,
      "start": 103.7558,
      "duration": 0.1735,
      "velocity": 95,
      "chip": "ym2612"
    },
    {
      "channel": 3,
      "note": 66,
      "start": 103.7572,
      "duration": 0.1727,
      "velocity": 95,
      "chip": "ym2612"
    },
    {
      "channel": 5,
      "note": 55,
      "start": 103.7614,
      "duration": 0.1386,
      "velocity": 115,
      "chip": "ym2612"
    },
    {
      "channel": 4,
      "note": 54,
      "start": 103.8997,
      "duration": 0.0786,
      "velocity": 91,
      "chip": "ym2612"
    },
    {
      "channel": 2,
      "note": 90,
      "start": 103.9463,
      "duration": 0.2691,
      "velocity": 105,
      "chip": "ym2612"
    },
    {
      "channel": 1,
      "note": 69,
      "start": 104.0412,
      "duration": 0.0785,
      "velocity": 95,
      "chip": "ym2612"
    },
    {
      "channel": 3,
      "note": 66,
      "start": 104.0425,
      "duration": 0.0778,
      "velocity": 95,
      "chip": "ym2612"
    },
    {
      "channel": 4,
      "note": 54,
      "start": 104.0435,
      "duration": 0.2682,
      "velocity": 91,
      "chip": "ym2612"
    },
    {
      "channel": 5,
      "note": 52,
      "start": 104.0471,
      "duration": 0.1424,
      "velocity": 115,
      "chip": "ym2612"
    },
    {
      "channel": 0,
      "note": 90,
      "start": 104.1835,
      "duration": 0.0786,
      "velocity": 105,
      "chip": "ym2612"
    },
    {
      "channel": 1,
      "note": 68,
      "start": 104.1845,
      "duration": 0.173,
      "velocity": 95,
      "chip": "ym2612"
    },
    {
      "channel": 3,
      "note": 66,
      "start": 104.1859,
      "duration": 0.1722,
      "velocity": 95,
      "chip": "ym2612"
    },
    {
      "channel": 5,
      "note": 55,
      "start": 104.1901,
      "duration": 0.0742,
      "velocity": 115,
      "chip": "ym2612"
    },
    {
      "channel": 5,
      "note": 55,
      "start": 104.2649,
      "duration": 0.063,
      "velocity": 115,
      "chip": "ym2612"
    },
    {
      "channel": 5,
      "note": 55,
      "start": 104.3286,
      "duration": 0.1443,
      "velocity": 115,
      "chip": "ym2612"
    },
    {
      "channel": 2,
      "note": 90,
      "start": 104.3746,
      "duration": 0.0786,
      "velocity": 105,
      "chip": "ym2612"
    },
    {
      "channel": 0,
      "note": 90,
      "start": 104.4693,
      "duration": 0.0785,
      "velocity": 105,
      "chip": "ym2612"
    },
    {
      "channel": 1,
      "note": 69,
      "start": 104.4702,
      "duration": 0.0778,
      "velocity": 95,
      "chip": "ym2612"
    },
    {
      "channel": 3,
      "note": 66,
      "start": 104.4716,
      "duration": 0.0766,
      "velocity": 95,
      "chip": "ym2612"
    },
    {
      "channel": 4,
      "note": 54,
      "start": 104.4726,
      "duration": 0.0758,
      "velocity": 91,
      "chip": "ym2612"
    },
    {
      "channel": 5,
      "note": 55,
      "start": 104.4735,
      "duration": 0.1446,
      "velocity": 127,
      "chip": "ym2612"
    },
    {
      "channel": 0,
      "note": 93,
      "start": 104.6122,
      "duration": 0.1739,
      "velocity": 105,
      "chip": "ym2612"
    },
    {
      "channel": 1,
      "note": 69,
      "start": 104.613,
      "duration": 0.0782,
      "velocity": 95,
      "chip": "ym2612"
    },
    {
      "channel": 3,
      "note": 66,
      "start": 104.6141,
      "duration": 0.173,
      "velocity": 95,
      "chip": "ym2612"
    },
    {
      "channel": 4,
      "note": 54,
      "start": 104.615,
      "duration": 0.1723,
      "velocity": 91,
      "chip": "ym2612"
    },
    {
      "channel": 5,
      "note": 43,
      "start": 104.6187,
      "duration": 0.1385,
      "velocity": 127,
      "chip": "ym2612"
    },
    {
      "channel": 2,
      "note": 90,
      "start": 104.6607,
      "duration": 0.0785,
      "velocity": 105,
      "chip": "ym2612"
    },
    {
      "channel": 1,
      "note": 68,
      "start": 104.7555,
      "duration": 0.0786,
      "velocity": 95,
      "chip": "ym2612"
    },
    {
      "channel": 2,
      "note": 93,
      "start": 104.8037,
      "duration": 0.1735,
      "velocity": 105,
      "chip": "ym2612"
    },
    {
      "channel": 0,
      "note": 85,
      "start": 104.8978,
      "duration": 0.1739,
      "velocity": 105,
      "chip": "ym2612"
    },
    {
      "channel": 1,
      "note": 66,
      "start": 104.8987,
      "duration": 0.0783,
      "velocity": 95,
      "chip": "ym2612"
    },
    {
      "channel": 3,
      "note": 61,
      "start": 104.9,
      "duration": 0.1729,
      "velocity": 95,
      "chip": "ym2612"
    },
    {
      "channel": 4,
      "note": 54,
      "start": 104.9009,
      "duration": 0.1721,
      "velocity": 91,
      "chip": "ym2612"
    },
    {
      "channel": 5,
      "note": 55,
      "start": 104.9045,
      "duration": 0.1384,
      "velocity": 115,
      "chip": "ym2612"
    },
    {
      "channel": 1,
      "note": 64,
      "start": 105.0412,
      "duration": 0.0786,
      "velocity": 95,
      "chip": "ym2612"
    },
    {
      "channel": 5,
      "note": 55,
      "start": 105.0435,
      "duration": 0.1464,
      "velocity": 117,
      "chip": "ym2612"
    },
    {
      "channel": 2,
      "note": 85,
      "start": 105.0894,
      "duration": 0.1735,
      "velocity": 105,
      "chip": "ym2612"
    },
    {
      "channel": 0,
      "note": 90,
      "start": 105.1837,
      "duration": 0.2691,
      "velocity": 105,
      "chip": "ym2612"
    },
    {
      "channel": 1,
      "note": 63,
      "start": 105.1845,
      "duration": 0.0782,
      "velocity": 95,
      "chip": "ym2612"
    },
    {
      "channel": 3,
      "note": 59,
      "start": 105.186,
      "duration": 0.077,
      "velocity": 95,
      "chip": "ym2612"
    },
    {
      "channel": 4,
      "note": 47,
      "start": 105.1868,
      "duration": 0.1727,
      "velocity": 91,
      "chip": "ym2612"
    },
    {
      "channel": 5,
      "note": 52,
      "start": 105.1905,
      "duration": 0.1415,
      "velocity": 115,
      "chip": "ym2612"
    },
    {
      "channel": 1,
      "note": 63,
      "start": 105.327,
      "duration": 0.1738,
      "velocity": 95,
      "chip": "ym2612"
    },
    {
      "channel": 3,
      "note": 59,
      "start": 105.3284,
      "duration": 0.173,
      "velocity": 95,
      "chip": "ym2612"
    },
    {
      "channel": 5,
      "note": 55,
      "start": 105.3326,
      "duration": 0.0751,
      "velocity": 115,
      "chip": "ym2612"
    },
    {
      "channel": 2,
      "note": 90,
      "start": 105.3751,
      "duration": 0.2691,
      "velocity": 105,
      "chip": "ym2612"
    },
    {
      "channel": 5,
      "note": 55,
      "start": 105.4083,
      "duration": 0.0634,
      "velocity": 115,
      "chip": "ym2612"
    },
    {
      "channel": 4,
      "note": 47,
      "start": 105.4713,
      "duration": 0.1735,
      "velocity": 91,
      "chip": "ym2612"
    },
    {
      "channel": 5,
      "note": 55,
      "start": 105.4722,
      "duration": 0.1432,
      "velocity": 115,
      "chip": "ym2612"
    },
    {
      "channel": 0,
      "note": 90,
      "start": 105.6122,
      "duration": 0.2692,
      "velocity": 105,
      "chip": "ym2612"
    },
    {
      "channel": 1,
      "note": 63,
      "start": 105.6132,
      "duration": 0.0782,
      "velocity": 95,
      "chip": "ym2612"
    },
    {
      "channel": 3,
      "note": 59,
      "start": 105.6146,
      "duration": 0.0774,
      "velocity": 95,
      "chip": "ym2612"
    },
    {
      "channel": 5,
      "note": 55,
      "start": 105.616,
      "duration": 0.145,
      "velocity": 127,
      "chip": "ym2612"
    },
    {
      "channel": 1,
      "note": 75,
      "start": 105.7556,
      "duration": 0.0786,
      "velocity": 95,
      "chip": "ym2612"
    },
    {
      "channel": 3,
      "note": 71,
      "start": 105.7569,
      "duration": 0.0779,
      "velocity": 95,
      "chip": "ym2612"
    },
    {
      "channel": 4,
      "note": 47,
      "start": 105.7578,
      "duration": 0.1732,
      "velocity": 91,
      "chip": "ym2612"
    },
    {
      "channel": 5,
      "note": 43,
      "start": 105.7615,
      "duration": 0.1393,
      "velocity": 127,
      "chip": "ym2612"
    },
    {
      "channel": 2,
      "note": 90,
      "start": 105.8037,
      "duration": 0.2692,
      "velocity": 105,
      "chip": "ym2612"
    },
    {
      "channel": 1,
      "note": 75,
      "start": 105.8985,
      "duration": 0.2691,
      "velocity": 95,
      "chip": "ym2612"
    },
    {
      "channel": 3,
      "note": 71,
      "start": 105.9,
      "duration": 0.2683,
      "velocity": 95,
      "chip": "ym2612"
    },
    {
      "channel": 0,
      "note": 90,
      "start": 106.0408,
      "duration": 0.2692,
      "velocity": 105,
      "chip": "ym2612"
    },
    {
      "channel": 4,
      "note": 47,
      "start": 106.0432,
      "duration": 0.1735,
      "velocity": 91,
      "chip": "ym2612"
    },
    {
      "channel": 5,
      "note": 55,
      "start": 106.0469,
      "duration": 0.1387,
      "velocity": 115,
      "chip": "ym2612"
    },
    {
      "channel": 2,
      "note": 90,
      "start": 106.2324,
      "duration": 0.2688,
      "velocity": 105,
      "chip": "ym2612"
    },
    {
      "channel": 1,
      "note": 73,
      "start": 106.3272,
      "duration": 0.1739,
      "velocity": 95,
      "chip": "ym2612"
    },
    {
      "channel": 3,
      "note": 66,
      "start": 106.3286,
      "duration": 0.1727,
      "velocity": 95,
      "chip": "ym2612"
    },
    {
      "channel": 5,
      "note": 52,
      "start": 106.3327,
      "duration": 0.1424,
      "velocity": 115,
      "chip": "ym2612"
    },
    {
      "channel": 0,
      "note": 90,
      "start": 106.4696,
      "duration": 0.0785,
      "velocity": 105,
      "chip": "ym2612"
    },
    {
      "channel": 4,
      "note": 47,
      "start": 106.4721,
      "duration": 0.0777,
      "velocity": 91,
      "chip": "ym2612"
    },
    {
      "channel": 5,
      "note": 55,
      "start": 106.4757,
      "duration": 0.0744,
      "velocity": 115,
      "chip": "ym2612"
    },
    {
      "channel": 5,
      "note": 55,
      "start": 106.5506,
      "duration": 0.0646,
      "velocity": 115,
      "chip": "ym2612"
    },
    {
      "channel": 1,
      "note": 71,
      "start": 106.6127,
      "duration": 0.1741,
      "velocity": 95,
      "chip": "ym2612"
    },
    {
      "channel": 3,
      "note": 66,
      "start": 106.614,
      "duration": 0.1734,
      "velocity": 95,
      "chip": "ym2612"
    },
    {
      "channel": 4,
      "note": 47,
      "start": 106.6149,
      "duration": 0.1727,
      "velocity": 91,
      "chip": "ym2612"
    },
    {
      "channel": 5,
      "note": 55,
      "start": 106.6158,
      "duration": 0.1418,
      "velocity": 115,
      "chip": "ym2612"
    },
    {
      "channel": 2,
      "note": 90,
      "start": 106.6606,
      "duration": 0.0786,
      "velocity": 105,
      "chip": "ym2612"
    },
    {
      "channel": 0,
      "note": 90,
      "start": 106.7553,
      "duration": 0.2691,
      "velocity": 105,
      "chip": "ym2612"
    },
    {
      "channel": 5,
      "note": 55,
      "start": 106.7582,
      "duration": 0.1454,
      "velocity": 127,
      "chip": "ym2612"
    },
    {
      "channel": 1,
      "note": 69,
      "start": 106.8986,
      "duration": 0.1739,
      "velocity": 95,
      "chip": "ym2612"
    },
    {
      "channel": 3,
      "note": 64,
      "start": 106.8995,
      "duration": 0.1736,
      "velocity": 95,
      "chip": "ym2612"
    },
    {
      "channel": 4,
      "note": 54,
      "start": 106.9004,
      "duration": 0.1729,
      "velocity": 91,
      "chip": "ym2612"
    },
    {
      "channel": 5,
      "note": 43,
      "start": 106.9041,
      "duration": 0.1387,
      "velocity": 127,
      "chip": "ym2612"
    },
    {
      "channel": 2,
      "note": 90,
      "start": 106.9468,
      "duration": 0.2691,
      "velocity": 105,
      "chip": "ym2612"
    },
    {
      "channel": 0,
      "note": 92,
      "start": 107.184,
      "duration": 0.1738,
      "velocity": 105,
      "chip": "ym2612"
    },
    {
      "channel": 1,
      "note": 68,
      "start": 107.1848,
      "duration": 0.1732,
      "velocity": 95,
      "chip": "ym2612"
    },
    {
      "channel": 3,
      "note": 64,
      "start": 107.1862,
      "duration": 0.1724,
      "velocity": 95,
      "chip": "ym2612"
    },
    {
      "channel": 4,
      "note": 51,
      "start": 107.187,
      "duration": 0.1718,
      "velocity": 91,
      "chip": "ym2612"
    },
    {
      "channel": 5,
      "note": 55,
      "start": 107.1906,
      "duration": 0.138,
      "velocity": 115,
      "chip": "ym2612"
    },
    {
      "channel": 5,
      "note": 55,
      "start": 107.3293,
      "duration": 0.1468,
      "velocity": 117,
      "chip": "ym2612"
    },
    {
      "channel": 2,
      "note": 92,
      "start": 107.3755,
      "duration": 0.1735,
      "velocity": 105,
      "chip": "ym2612"
    },
    {
      "channel": 0,
      "note": 88,
      "start": 107.4697,
      "duration": 0.2691,
      "velocity": 105,
      "chip": "ym2612"
    },
    {
      "channel": 1,
      "note": 64,
      "start": 107.4707,
      "duration": 0.0781,
      "velocity": 95,
      "chip": "ym2612"
    },
    {
      "channel": 3,
      "note": 59,
      "start": 107.4721,
      "duration": 0.077,
      "velocity": 95,
      "chip": "ym2612"
    },
    {
      "channel": 4,
      "note": 52,
      "start": 107.4729,
      "duration": 0.1726,
      "velocity": 91,
      "chip": "ym2612"
    },
    {
      "channel": 5,
      "note": 52,
      "start": 107.4766,
      "duration": 0.1415,
      "velocity": 115,
      "chip": "ym2612"
    },
    {
      "channel": 1,
      "note": 63,
      "start": 107.6131,
      "duration": 0.1738,
      "velocity": 95,
      "chip": "ym2612"
    },
    {
      "channel": 3,
      "note": 59,
      "start": 107.6145,
      "duration": 0.173,
      "velocity": 95,
      "chip": "ym2612"
    },
    {
      "channel": 5,
      "note": 55,
      "start": 107.6186,
      "duration": 0.0751,
      "velocity": 115,
      "chip": "ym2612"
    },
    {
      "channel": 2,
      "note": 88,
      "start": 107.6612,
      "duration": 0.2691,
      "velocity": 105,
      "chip": "ym2612"
    },
    {
      "channel": 5,
      "note": 55,
      "start": 107.6943,
      "duration": 0.0634,
      "velocity": 115,
      "chip": "ym2612"
    },
    {
      "channel": 4,
      "note": 52,
      "start": 107.7574,
      "duration": 0.1735,
      "velocity": 91,
      "chip": "ym2612"
    },
    {
      "channel": 5,
      "note": 55,
      "start": 107.7583,
      "duration": 0.143,
      "velocity": 115,
      "chip": "ym2612"
    },
    {
      "channel": 0,
      "note": 88,
      "start": 107.8983,
      "duration": 0.2691,
      "velocity": 105,
      "chip": "ym2612"
    },
    {
      "channel": 1,
      "note": 64,
      "start": 107.8991,
      "duration": 0.1736,
      "velocity": 95,
      "chip": "ym2612"
    },
    {
      "channel": 3,
      "note": 59,
      "start": 107.9005,
      "duration": 0.1728,
      "velocity": 95,
      "chip": "ym2612"
    },
    {
      "channel": 5,
      "note": 55,
      "start": 107.9018,
      "duration": 0.1444,
      "velocity": 127,
      "chip": "ym2612"
    },
    {
      "channel": 4,
      "note": 52,
      "start": 108.0432,
      "duration": 0.2691,
      "velocity": 91,
      "chip": "ym2612"
    },
    {
      "channel": 5,
      "note": 43,
      "start": 108.0468,
      "duration": 0.14,
      "velocity": 127,
      "chip": "ym2612"
    },
    {
      "channel": 2,
      "note": 88,
      "start": 108.0898,
      "duration": 0.2691,
      "velocity": 105,
      "chip": "ym2612"
    },
    {
      "channel": 1,
      "note": 63,
      "start": 108.1846,
      "duration": 0.0785,
      "velocity": 95,
      "chip": "ym2612"
    },
    {
      "channel": 3,
      "note": 59,
      "start": 108.186,
      "duration": 0.0778,
      "velocity": 95,
      "chip": "ym2612"
    },
    {
      "channel": 0,
      "note": 88,
      "start": 108.3269,
      "duration": 0.2692,
      "velocity": 105,
      "chip": "ym2612"
    },
    {
      "channel": 1,
      "note": 64,
      "start": 108.3278,
      "duration": 0.1735,
      "velocity": 95,
      "chip": "ym2612"
    },
    {
      "channel": 3,
      "note": 59,
      "start": 108.3293,
      "duration": 0.1727,
      "velocity": 95,
      "chip": "ym2612"
    },
    {
      "channel": 5,
      "note": 55,
      "start": 108.3334,
      "duration": 0.1387,
      "velocity": 115,
      "chip": "ym2612"
    },
    {
      "channel": 4,
      "note": 52,
      "start": 108.4718,
      "duration": 0.0786,
      "velocity": 91,
      "chip": "ym2612"
    },
    {
      "channel": 2,
      "note": 88,
      "start": 108.5184,
      "duration": 0.2692,
      "velocity": 105,
      "chip": "ym2612"
    },
    {
      "channel": 1,
      "note": 63,
      "start": 108.6132,
      "duration": 0.0786,
      "velocity": 95,
      "chip": "ym2612"
    },
    {
      "channel": 3,
      "note": 59,
      "start": 108.6146,
      "duration": 0.0779,
      "velocity": 95,
      "chip": "ym2612"
    },
    {
      "channel": 4,
      "note": 52,
      "start": 108.6156,
      "duration": 0.1727,
      "velocity": 91,
      "chip": "ym2612"
    },
    {
      "channel": 5,
      "note": 52,
      "start": 108.6192,
      "duration": 0.1424,
      "velocity": 115,
      "chip": "ym2612"
    },
    {
      "channel": 0,
      "note": 88,
      "start": 108.7556,
      "duration": 0.0786,
      "velocity": 105,
      "chip": "ym2612"
    },
    {
      "channel": 1,
      "note": 64,
      "start": 108.7566,
      "duration": 0.1729,
      "velocity": 95,
      "chip": "ym2612"
    },
    {
      "channel": 3,
      "note": 59,
      "start": 108.758,
      "duration": 0.1722,
      "velocity": 95,
      "chip": "ym2612"
    },
    {
      "channel": 5,
      "note": 55,
      "start": 108.7622,
      "duration": 0.0742,
      "velocity": 115,
      "chip": "ym2612"
    },
    {
      "channel": 5,
      "note": 55,
      "start": 108.837,
      "duration": 0.0636,
      "velocity": 115,
      "chip": "ym2612"
    },
    {
      "channel": 4,
      "note": 64,
      "start": 108.9002,
      "duration": 0.2689,
      "velocity": 91,
      "chip": "ym2612"
    },
    {
      "channel": 5,
      "note": 55,
      "start": 108.9011,
      "duration": 0.1434,
      "velocity": 115,
      "chip": "ym2612"
    },
    {
      "channel": 2,
      "note": 88,
      "start": 108.9468,
      "duration": 0.0785,
      "velocity": 105,
      "chip": "ym2612"
    },
    {
      "channel": 0,
      "note": 88,
      "start": 109.0414,
      "duration": 0.0786,
      "velocity": 105,
      "chip": "ym2612"
    },
    {
      "channel": 1,
      "note": 64,
      "start": 109.0424,
      "duration": 0.0777,
      "velocity": 95,
      "chip": "ym2612"
    },
    {
      "channel": 3,
      "note": 59,
      "start": 109.0438,
      "duration": 0.0766,
      "velocity": 95,
      "chip": "ym2612"
    },
    {
      "channel": 5,
      "note": 55,
      "start": 109.0451,
      "duration": 0.1447,
      "velocity": 127,
      "chip": "ym2612"
    },
    {
      "channel": 0,
      "note": 92,
      "start": 109.1842,
      "duration": 0.1739,
      "velocity": 105,
      "chip": "ym2612"
    },
    {
      "channel": 1,
      "note": 71,
      "start": 109.1852,
      "duration": 0.1731,
      "velocity": 95,
      "chip": "ym2612"
    },
    {
      "channel": 3,
      "note": 64,
      "start": 109.1863,
      "duration": 0.1726,
      "velocity": 95,
      "chip": "ym2612"
    },
    {
      "channel": 5,
      "note": 43,
      "start": 109.1904,
      "duration": 0.139,
      "velocity": 127,
      "chip": "ym2612"
    },
    {
      "channel": 2,
      "note": 88,
      "start": 109.2328,
      "duration": 0.0786,
      "velocity": 105,
      "chip": "ym2612"
    },
    {
      "channel": 4,
      "note": 64,
      "start": 109.3291,
      "duration": 0.0785,
      "velocity": 91,
      "chip": "ym2612"
    },
    {
      "channel": 2,
      "note": 92,
      "start": 109.3758,
      "duration": 0.1737,
      "velocity": 105,
      "chip": "ym2612"
    },
    {
      "channel": 0,
      "note": 88,
      "start": 109.4699,
      "duration": 0.174,
      "velocity": 105,
      "chip": "ym2612"
    },
    {
      "channel": 1,
      "note": 68,
      "start": 109.4708,
      "duration": 0.1732,
      "velocity": 95,
      "chip": "ym2612"
    },
    {
      "channel": 3,
      "note": 64,
      "start": 109.4721,
      "duration": 0.1725,
      "velocity": 95,
      "chip": "ym2612"
    },
    {
      "channel": 4,
      "note": 52,
      "start": 109.4731,
      "duration": 0.1717,
      "velocity": 91,
      "chip": "ym2612"
    },
    {
      "channel": 5,
      "note": 55,
      "start": 109.4767,
      "duration": 0.138,
      "velocity": 115,
      "chip": "ym2612"
    },
    {
      "channel": 5,
      "note": 55,
      "start": 109.6153,
      "duration": 0.1469,
      "velocity": 117,
      "chip": "ym2612"
    },
    {
      "channel": 2,
      "note": 88,
      "start": 109.6615,
      "duration": 0.1735,
      "velocity": 105,
      "chip": "ym2612"
    },
    {
      "channel": 0,
      "note": 88,
      "start": 109.7558,
      "duration": 0.2691,
      "velocity": 105,
      "chip": "ym2612"
    },
    {
      "channel": 1,
      "note": 63,
      "start": 109.7567,
      "duration": 0.078,
      "velocity": 95,
      "chip": "ym2612"
    },
    {
      "channel": 3,
      "note": 61,
      "start": 109.7581,
      "duration": 0.077,
      "velocity": 95,
      "chip": "ym2612"
    },
    {
      "channel": 4,
      "note": 49,
      "start": 109.7591,
      "duration": 0.0762,
      "velocity": 91,
      "chip": "ym2612"
    },
    {
      "channel": 5,
      "note": 52,
      "start": 109.7627,
      "duration": 0.1413,
      "velocity": 115,
      "chip": "ym2612"
    },
    {
      "channel": 1,
      "note": 64,
      "start": 109.8991,
      "duration": 0.1739,
      "velocity": 95,
      "chip": "ym2612"
    },
    {
      "channel": 3,
      "note": 61,
      "start": 109.9005,
      "duration": 0.1731,
      "velocity": 95,
      "chip": "ym2612"
    },
    {
      "channel": 5,
      "note": 55,
      "start": 109.9046,
      "duration": 0.0751,
      "velocity": 115,
      "chip": "ym2612"
    },
    {
      "channel": 2,
      "note": 88,
      "start": 109.9472,
      "duration": 0.2692,
      "velocity": 105,
      "chip": "ym2612"
    },
    {
      "channel": 5,
      "note": 55,
      "start": 109.9803,
      "duration": 0.0634,
      "velocity": 115,
      "chip": "ym2612"
    },
    {
      "channel": 4,
      "note": 49,
      "start": 110.0434,
      "duration": 0.0786,
      "velocity": 91,
      "chip": "ym2612"
    },
    {
      "channel": 5,
      "note": 55,
      "start": 110.0443,
      "duration": 0.1432,
      "velocity": 115,
      "chip": "ym2612"
    },
    {
      "channel": 0,
      "note": 88,
      "start": 110.1843,
      "duration": 0.2692,
      "velocity": 105,
      "chip": "ym2612"
    },
    {
      "channel": 1,
      "note": 63,
      "start": 110.1852,
      "duration": 0.0782,
      "velocity": 95,
      "chip": "ym2612"
    },
    {
      "channel": 3,
      "note": 61,
      "start": 110.1867,
      "duration": 0.0774,
      "velocity": 95,
      "chip": "ym2612"
    },
    {
      "channel": 5,
      "note": 55,
      "start": 110.188,
      "duration": 0.1451,
      "velocity": 127,
      "chip": "ym2612"
    },
    {
      "channel": 1,
      "note": 64,
      "start": 110.3277,
      "duration": 0.1739,
      "velocity": 95,
      "chip": "ym2612"
    },
    {
      "channel": 3,
      "note": 61,
      "start": 110.3291,
      "duration": 0.1731,
      "velocity": 95,
      "chip": "ym2612"
    },
    {
      "channel": 4,
      "note": 49,
      "start": 110.33,
      "duration": 0.0777,
      "velocity": 91,
      "chip": "ym2612"
    },
    {
      "channel": 5,
      "note": 43,
      "start": 110.3337,
      "duration": 0.1382,
      "velocity": 127,
      "chip": "ym2612"
    },
    {
      "channel": 2,
      "note": 88,
      "start": 110.3758,
      "duration": 0.2692,
      "velocity": 105,
      "chip": "ym2612"
    },
    {
      "channel": 0,
      "note": 88,
      "start": 110.613,
      "duration": 0.2691,
      "velocity": 105,
      "chip": "ym2612"
    },
    {
      "channel": 1,
      "note": 63,
      "start": 110.6139,
      "duration": 0.0782,
      "velocity": 95,
      "chip": "ym2612"
    },
    {
      "channel": 3,
      "note": 61,
      "start": 110.6153,
      "duration": 0.0774,
      "velocity": 95,
      "chip": "ym2612"
    },
    {
      "channel": 4,
      "note": 61,
      "start": 110.6162,
      "duration": 0.0767,
      "velocity": 91,
      "chip": "ym2612"
    },
    {
      "channel": 5,
      "note": 55,
      "start": 110.6198,
      "duration": 0.1391,
      "velocity": 115,
      "chip": "ym2612"
    },
    {
      "channel": 1,
      "note": 64,
      "start": 110.7564,
      "duration": 0.1738,
      "velocity": 95,
      "chip": "ym2612"
    },
    {
      "channel": 3,
      "note": 61,
      "start": 110.7578,
      "duration": 0.173,
      "velocity": 95,
      "chip": "ym2612"
    },
    {
      "channel": 4,
      "note": 49,
      "start": 110.7586,
      "duration": 0.0778,
      "velocity": 91,
      "chip": "ym2612"
    },
    {
      "channel": 2,
      "note": 88,
      "start": 110.8044,
      "duration": 0.2691,
      "velocity": 105,
      "chip": "ym2612"
    },
    {
      "channel": 5,
      "note": 52,
      "start": 110.9039,
      "duration": 0.1439,
      "velocity": 115,
      "chip": "ym2612"
    },
    {
      "channel": 0,
      "note": 88,
      "start": 111.0417,
      "duration": 0.0786,
      "velocity": 105,
      "chip": "ym2612"
    },
    {
      "channel": 1,
      "note": 64,
      "start": 111.0425,
      "duration": 0.173,
      "velocity": 95,
      "chip": "ym2612"
    },
    {
      "channel": 3,
      "note": 61,
      "start": 111.0439,
      "duration": 0.1724,
      "velocity": 95,
      "chip": "ym2612"
    },
    {
      "channel": 4,
      "note": 56,
      "start": 111.0448,
      "duration": 0.0771,
      "velocity": 91,
      "chip": "ym2612"
    },
    {
      "channel": 5,
      "note": 55,
      "start": 111.0484,
      "duration": 0.0737,
      "velocity": 115,
      "chip": "ym2612"
    },
    {
      "channel": 5,
      "note": 55,
      "start": 111.1227,
      "duration": 0.0639,
      "velocity": 115,
      "chip": "ym2612"
    },
    {
      "channel": 4,
      "note": 56,
      "start": 111.1863,
      "duration": 0.174,
      "velocity": 91,
      "chip": "ym2612"
    },
    {
      "channel": 5,
      "note": 55,
      "start": 111.1871,
      "duration": 0.1434,
      "velocity": 115,
      "chip": "ym2612"
    },
    {
      "channel": 2,
      "note": 88,
      "start": 111.2327,
      "duration": 0.0786,
      "velocity": 105,
      "chip": "ym2612"
    },
    {
      "channel": 0,
      "note": 88,
      "start": 111.3274,
      "duration": 0.0785,
      "velocity": 105,
      "chip": "ym2612"
    },
    {
      "channel": 1,
      "note": 64,
      "start": 111.3284,
      "duration": 0.0778,
      "velocity": 95,
      "chip": "ym2612"
    },
    {
      "channel": 3,
      "note": 61,
      "start": 111.3298,
      "duration": 0.0766,
      "velocity": 95,
      "chip": "ym2612"
    },
    {
      "channel": 5,
      "note": 55,
      "start": 111.3312,
      "duration": 0.1451,
      "velocity": 127,
      "chip": "ym2612"
    },
    {
      "channel": 0,
      "note": 92,
      "start": 111.4703,
      "duration": 0.1739,
      "velocity": 105,
      "chip": "ym2612"
    },
    {
      "channel": 1,
      "note": 71,
      "start": 111.4712,
      "duration": 0.173,
      "velocity": 95,
      "chip": "ym2612"
    },
    {
      "channel": 3,
      "note": 64,
      "start": 111.4723,
      "duration": 0.1727,
      "velocity": 95,
      "chip": "ym2612"
    },
    {
      "channel": 4,
      "note": 52,
      "start": 111.4732,
      "duration": 0.172,
      "velocity": 91,
      "chip": "ym2612"
    },
    {
      "channel": 5,
      "note": 43,
      "start": 111.4768,
      "duration": 0.1381,
      "velocity": 127,
      "chip": "ym2612"
    },
    {
      "channel": 2,
      "note": 88,
      "start": 111.5189,
      "duration": 0.0786,
      "velocity": 105,
      "chip": "ym2612"
    },
    {
      "channel": 2,
      "note": 92,
      "start": 111.6618,
      "duration": 0.1738,
      "velocity": 105,
      "chip": "ym2612"
    },
    {
      "channel": 0,
      "note": 88,
      "start": 111.756,
      "duration": 0.1739,
      "velocity": 105,
      "chip": "ym2612"
    },
    {
      "channel": 1,
      "note": 68,
      "start": 111.7569,
      "duration": 0.1732,
      "velocity": 95,
      "chip": "ym2612"
    },
    {
      "channel": 3,
      "note": 64,
      "start": 111.7582,
      "duration": 0.1725,
      "velocity": 95,
      "chip": "ym2612"
    },
    {
      "channel": 4,
      "note": 49,
      "start": 111.7592,
      "duration": 0.0771,
      "velocity": 91,
      "chip": "ym2612"
    },
    {
      "channel": 5,
      "note": 55,
      "start": 111.7628,
      "duration": 0.138,
      "velocity": 115,
      "chip": "ym2612"
    },
    {
      "channel": 5,
      "note": 55,
      "start": 111.9013,
      "duration": 0.1469,
      "velocity": 117,
      "chip": "ym2612"
    },
    {
      "channel": 2,
      "note": 88,
      "start": 111.9475,
      "duration": 0.1735,
      "velocity": 105,
      "chip": "ym2612"
    },
    {
      "channel": 0,
      "note": 90,
      "start": 112.0419,
      "duration": 0.2691,
      "velocity": 105,
      "chip": "ym2612"
    },
    {
      "channel": 1,
      "note": 69,
      "start": 112.0428,
      "duration": 0.078,
      "velocity": 95,
      "chip": "ym2612"
    },
    {
      "channel": 3,
      "note": 66,
      "start": 112.0442,
      "duration": 0.0771,
      "velocity": 95,
      "chip": "ym2612"
    },
    {
      "channel": 4,
      "note": 54,
      "start": 112.0451,
      "duration": 0.1725,
      "velocity": 91,
      "chip": "ym2612"
    },
    {
      "channel": 5,
      "note": 52,
      "start": 112.0488,
      "duration": 0.1414,
      "velocity": 115,
      "chip": "ym2612"
    },
    {
      "channel": 1,
      "note": 68,
      "start": 112.1852,
      "duration": 0.1739,
      "velocity": 95,
      "chip": "ym2612"
    },
    {
      "channel": 3,
      "note": 66,
      "start": 112.1866,
      "duration": 0.1731,
      "velocity": 95,
      "chip": "ym2612"
    },
    {
      "channel": 5,
      "note": 55,
      "start": 112.1908,
      "duration": 0.075,
      "velocity": 115,
      "chip": "ym2612"
    },
    {
      "channel": 2,
      "note": 90,
      "start": 112.2333,
      "duration": 0.2691,
      "velocity": 105,
      "chip": "ym2612"
    },
    {
      "channel": 5,
      "note": 55,
      "start": 112.2664,
      "duration": 0.0633,
      "velocity": 115,
      "chip": "ym2612"
    },
    {
      "channel": 4,
      "note": 54,
      "start": 112.3295,
      "duration": 0.1736,
      "velocity": 91,
      "chip": "ym2612"
    },
    {
      "channel": 5,
      "note": 55,
      "start": 112.3303,
      "duration": 0.1431,
      "velocity": 115,
      "chip": "ym2612"
    },
    {
      "channel": 0,
      "note": 90,
      "start": 112.4703,
      "duration": 0.2692,
      "velocity": 105,
      "chip": "ym2612"
    },
    {
      "channel": 1,
      "note": 69,
      "start": 112.4712,
      "duration": 0.1736,
      "velocity": 95,
      "chip": "ym2612"
    },
    {
      "channel": 3,
      "note": 66,
      "start": 112.4726,
      "duration": 0.1729,
      "velocity": 95,
      "chip": "ym2612"
    },
    {
      "channel": 5,
      "note": 55,
      "start": 112.474,
      "duration": 0.1444,
      "velocity": 127,
      "chip": "ym2612"
    },
    {
      "channel": 4,
      "note": 54,
      "start": 112.6153,
      "duration": 0.0785,
      "velocity": 91,
      "chip": "ym2612"
    },
    {
      "channel": 5,
      "note": 43,
      "start": 112.619,
      "duration": 0.1403,
      "velocity": 127,
      "chip": "ym2612"
    },
    {
      "channel": 2,
      "note": 90,
      "start": 112.6619,
      "duration": 0.2692,
      "velocity": 105,
      "chip": "ym2612"
    },
    {
      "channel": 1,
      "note": 68,
      "start": 112.7567,
      "duration": 0.0786,
      "velocity": 95,
      "chip": "ym2612"
    },
    {
      "channel": 3,
      "note": 66,
      "start": 112.7581,
      "duration": 0.0778,
      "velocity": 95,
      "chip": "ym2612"
    },
    {
      "channel": 4,
      "note": 54,
      "start": 112.759,
      "duration": 0.0772,
      "velocity": 91,
      "chip": "ym2612"
    },
    {
      "channel": 0,
      "note": 90,
      "start": 112.899,
      "duration": 0.2692,
      "velocity": 105,
      "chip": "ym2612"
    },
    {
      "channel": 1,
      "note": 69,
      "start": 112.8999,
      "duration": 0.1735,
      "velocity": 95,
      "chip": "ym2612"
    },
    {
      "channel": 3,
      "note": 66,
      "start": 112.9014,
      "duration": 0.1727,
      "velocity": 95,
      "chip": "ym2612"
    },
    {
      "channel": 4,
      "note": 54,
      "start": 112.9023,
      "duration": 0.172,
      "velocity": 91,
      "chip": "ym2612"
    },
    {
      "channel": 5,
      "note": 55,
      "start": 112.906,
      "duration": 0.1378,
      "velocity": 115,
      "chip": "ym2612"
    },
    {
      "channel": 2,
      "note": 90,
      "start": 113.0905,
      "duration": 0.2691,
      "velocity": 105,
      "chip": "ym2612"
    },
    {
      "channel": 1,
      "note": 69,
      "start": 113.1853,
      "duration": 0.0785,
      "velocity": 95,
      "chip": "ym2612"
    },
    {
      "channel": 3,
      "note": 66,
      "start": 113.1868,
      "duration": 0.0778,
      "velocity": 95,
      "chip": "ym2612"
    },
    {
      "channel": 4,
      "note": 54,
      "start": 113.1877,
      "duration": 0.2682,
      "velocity": 91,
      "chip": "ym2612"
    },
    {
      "channel": 5,
      "note": 52,
      "start": 113.1913,
      "duration": 0.1423,
      "velocity": 115,
      "chip": "ym2612"
    },
    {
      "channel": 0,
      "note": 90,
      "start": 113.3277,
      "duration": 0.0785,
      "velocity": 105,
      "chip": "ym2612"
    },
    {
      "channel": 1,
      "note": 68,
      "start": 113.3287,
      "duration": 0.173,
      "velocity": 95,
      "chip": "ym2612"
    },
    {
      "channel": 3,
      "note": 66,
      "start": 113.3301,
      "duration": 0.1722,
      "velocity": 95,
      "chip": "ym2612"
    },
    {
      "channel": 5,
      "note": 55,
      "start": 113.3342,
      "duration": 0.0743,
      "velocity": 115,
      "chip": "ym2612"
    },
    {
      "channel": 5,
      "note": 55,
      "start": 113.4091,
      "duration": 0.0631,
      "velocity": 115,
      "chip": "ym2612"
    },
    {
      "channel": 5,
      "note": 55,
      "start": 113.4728,
      "duration": 0.1443,
      "velocity": 115,
      "chip": "ym2612"
    },
    {
      "channel": 2,
      "note": 90,
      "start": 113.5188,
      "duration": 0.0786,
      "velocity": 105,
      "chip": "ym2612"
    },
    {
      "channel": 0,
      "note": 90,
      "start": 113.6135,
      "duration": 0.0786,
      "velocity": 105,
      "chip": "ym2612"
    },
    {
      "channel": 1,
      "note": 69,
      "start": 113.6144,
      "duration": 0.0778,
      "velocity": 95,
      "chip": "ym2612"
    },
    {
      "channel": 3,
      "note": 66,
      "start": 113.6158,
      "duration": 0.0767,
      "velocity": 95,
      "chip": "ym2612"
    },
    {
      "channel": 4,
      "note": 57,
      "start": 113.6168,
      "duration": 0.0758,
      "velocity": 91,
      "chip": "ym2612"
    },
    {
      "channel": 5,
      "note": 55,
      "start": 113.6177,
      "duration": 0.1446,
      "velocity": 127,
      "chip": "ym2612"
    },
    {
      "channel": 0,
      "note": 93,
      "start": 113.7563,
      "duration": 0.1738,
      "velocity": 105,
      "chip": "ym2612"
    },
    {
      "channel": 1,
      "note": 69,
      "start": 113.7572,
      "duration": 0.0782,
      "velocity": 95,
      "chip": "ym2612"
    },
    {
      "channel": 3,
      "note": 66,
      "start": 113.7583,
      "duration": 0.173,
      "velocity": 95,
      "chip": "ym2612"
    },
    {
      "channel": 4,
      "note": 61,
      "start": 113.7592,
      "duration": 0.0774,
      "velocity": 91,
      "chip": "ym2612"
    },
    {
      "channel": 5,
      "note": 43,
      "start": 113.7628,
      "duration": 0.1389,
      "velocity": 127,
      "chip": "ym2612"
    },
    {
      "channel": 2,
      "note": 90,
      "start": 113.8049,
      "duration": 0.0787,
      "velocity": 105,
      "chip": "ym2612"
    },
    {
      "channel": 1,
      "note": 68,
      "start": 113.8996,
      "duration": 0.0787,
      "velocity": 95,
      "chip": "ym2612"
    },
    {
      "channel": 4,
      "note": 61,
      "start": 113.9015,
      "duration": 0.078,
      "velocity": 91,
      "chip": "ym2612"
    },
    {
      "channel": 2,
      "note": 93,
      "start": 113.9479,
      "duration": 0.1735,
      "velocity": 105,
      "chip": "ym2612"
    },
    {
      "channel": 0,
      "note": 85,
      "start": 114.042,
      "duration": 0.1739,
      "velocity": 105,
      "chip": "ym2612"
    },
    {
      "channel": 1,
      "note": 66,
      "start": 114.0429,
      "duration": 0.0783,
      "velocity": 95,
      "chip": "ym2612"
    },
    {
      "channel": 3,
      "note": 61,
      "start": 114.0443,
      "duration": 0.1728,
      "velocity": 95,
      "chip": "ym2612"
    },
    {
      "channel": 5,
      "note": 55,
      "start": 114.0484,
      "duration": 0.1391,
      "velocity": 115,
      "chip": "ym2612"
    },
    {
      "channel": 1,
      "note": 64,
      "start": 114.1854,
      "duration": 0.0786,
      "velocity": 95,
      "chip": "ym2612"
    },
    {
      "channel": 4,
      "note": 54,
      "start": 114.1872,
      "duration": 0.078,
      "velocity": 91,
      "chip": "ym2612"
    },
    {
      "channel": 5,
      "note": 55,
      "start": 114.1881,
      "duration": 0.1461,
      "velocity": 117,
      "chip": "ym2612"
    },
    {
      "channel": 2,
      "note": 85,
      "start": 114.2335,
      "duration": 0.1736,
      "velocity": 105,
      "chip": "ym2612"
    },
    {
      "channel": 0,
      "note": 90,
      "start": 114.3278,
      "duration": 0.2691,
      "velocity": 105,
      "chip": "ym2612"
    },
    {
      "channel": 1,
      "note": 63,
      "start": 114.3288,
      "duration": 0.0782,
      "velocity": 95,
      "chip": "ym2612"
    },
    {
      "channel": 3,
      "note": 59,
      "start": 114.3301,
      "duration": 0.0771,
      "velocity": 95,
      "chip": "ym2612"
    },
    {
      "channel": 4,
      "note": 47,
      "start": 114.3311,
      "duration": 0.1726,
      "velocity": 91,
      "chip": "ym2612"
    },
    {
      "channel": 5,
      "note": 52,
      "start": 114.3347,
      "duration": 0.1415,
      "velocity": 122,
      "chip": "ym2612"
    },
    {
      "channel": 1,
      "note": 63,
      "start": 114.4712,
      "duration": 0.1738,
      "velocity": 95,
      "chip": "ym2612"
    },
    {
      "channel": 3,
      "note": 59,
      "start": 114.4726,
      "duration": 0.1731,
      "velocity": 95,
      "chip": "ym2612"
    },
    {
      "channel": 5,
      "note": 52,
      "start": 114.4768,
      "duration": 0.0751,
      "velocity": 122,
      "chip": "ym2612"
    },
    {
      "channel": 2,
      "note": 90,
      "start": 114.5193,
      "duration": 0.2691,
      "velocity": 105,
      "chip": "ym2612"
    },
    {
      "channel": 4,
      "note": 47,
      "start": 114.6155,
      "duration": 0.1735,
      "velocity": 91,
      "chip": "ym2612"
    },
    {
      "channel": 0,
      "note": 90,
      "start": 114.7564,
      "duration": 0.2692,
      "velocity": 105,
      "chip": "ym2612"
    },
    {
      "channel": 1,
      "note": 63,
      "start": 114.7574,
      "duration": 0.0782,
      "velocity": 95,
      "chip": "ym2612"
    },
    {
      "channel": 3,
      "note": 59,
      "start": 114.7588,
      "duration": 0.0773,
      "velocity": 95,
      "chip": "ym2612"
    },
    {
      "channel": 5,
      "note": 47,
      "start": 114.763,
      "duration": 0.1422,
      "velocity": 127,
      "chip": "ym2612"
    },
    {
      "channel": 1,
      "note": 75,
      "start": 114.8998,
      "duration": 0.0786,
      "velocity": 95,
      "chip": "ym2612"
    },
    {
      "channel": 3,
      "note": 71,
      "start": 114.9011,
      "duration": 0.0779,
      "velocity": 95,
      "chip": "ym2612"
    },
    {
      "channel": 4,
      "note": 47,
      "start": 114.9021,
      "duration": 0.0772,
      "velocity": 91,
      "chip": "ym2612"
    },
    {
      "channel": 5,
      "note": 43,
      "start": 114.9058,
      "duration": 0.1396,
      "velocity": 127,
      "chip": "ym2612"
    },
    {
      "channel": 2,
      "note": 90,
      "start": 114.9479,
      "duration": 0.2692,
      "velocity": 105,
      "chip": "ym2612"
    },
    {
      "channel": 1,
      "note": 75,
      "start": 115.0427,
      "duration": 0.2691,
      "velocity": 95,
      "chip": "ym2612"
    },
    {
      "channel": 3,
      "note": 71,
      "start": 115.0442,
      "duration": 0.2683,
      "velocity": 95,
      "chip": "ym2612"
    },
    {
      "channel": 4,
      "note": 47,
      "start": 115.0451,
      "duration": 0.0777,
      "velocity": 91,
      "chip": "ym2612"
    },
    {
      "channel": 0,
      "note": 90,
      "start": 115.185,
      "duration": 0.2692,
      "velocity": 105,
      "chip": "ym2612"
    },
    {
      "channel": 4,
      "note": 47,
      "start": 115.1875,
      "duration": 0.1735,
      "velocity": 91,
      "chip": "ym2612"
    },
    {
      "channel": 5,
      "note": 52,
      "start": 115.1912,
      "duration": 0.1386,
      "velocity": 122,
      "chip": "ym2612"
    },
    {
      "channel": 2,
      "note": 90,
      "start": 115.3766,
      "duration": 0.2688,
      "velocity": 105,
      "chip": "ym2612"
    },
    {
      "channel": 1,
      "note": 73,
      "start": 115.4714,
      "duration": 0.1739,
      "velocity": 95,
      "chip": "ym2612"
    },
    {
      "channel": 3,
      "note": 66,
      "start": 115.4728,
      "duration": 0.1727,
      "velocity": 95,
      "chip": "ym2612"
    },
    {
      "channel": 4,
      "note": 47,
      "start": 115.4737,
      "duration": 0.172,
      "velocity": 91,
      "chip": "ym2612"
    },
    {
      "channel": 5,
      "note": 52,
      "start": 115.4773,
      "duration": 0.1415,
      "velocity": 122,
      "chip": "ym2612"
    },
    {
      "channel": 0,
      "note": 90,
      "start": 115.6138,
      "duration": 0.0786,
      "velocity": 105,
      "chip": "ym2612"
    },
    {
      "channel": 5,
      "note": 52,
      "start": 115.6194,
      "duration": 0.1428,
      "velocity": 122,
      "chip": "ym2612"
    },
    {
      "channel": 1,
      "note": 71,
      "start": 115.7569,
      "duration": 0.1737,
      "velocity": 95,
      "chip": "ym2612"
    },
    {
      "channel": 3,
      "note": 66,
      "start": 115.7582,
      "duration": 0.173,
      "velocity": 95,
      "chip": "ym2612"
    },
    {
      "channel": 4,
      "note": 47,
      "start": 115.7591,
      "duration": 0.1723,
      "velocity": 91,
      "chip": "ym2612"
    },
    {
      "channel": 5,
      "note": 52,
      "start": 115.7627,
      "duration": 0.141,
      "velocity": 122,
      "chip": "ym2612"
    },
    {
      "channel": 2,
      "note": 90,
      "start": 115.8048,
      "duration": 0.0785,
      "velocity": 105,
      "chip": "ym2612"
    },
    {
      "channel": 5,
      "note": 47,
      "start": 115.9043,
      "duration": 0.144,
      "velocity": 122,
      "chip": "ym2612"
    },
    {
      "channel": 0,
      "note": 90,
      "start": 116.0424,
      "duration": 0.1421,
      "velocity": 105,
      "chip": "ym2612"
    },
    {
      "channel": 1,
      "note": 69,
      "start": 116.0433,
      "duration": 0.1734,
      "velocity": 95,
      "chip": "ym2612"
    },
    {
      "channel": 3,
      "note": 64,
      "start": 116.0443,
      "duration": 0.1727,
      "velocity": 95,
      "chip": "ym2612"
    },
    {
      "channel": 4,
      "note": 59,
      "start": 116.0452,
      "duration": 0.3477,
      "velocity": 91,
      "chip": "ym2612"
    },
    {
      "channel": 5,
      "note": 40,
      "start": 116.0488,
      "duration": 0.1411,
      "velocity": 117,
      "chip": "ym2612"
    },
    {
      "channel": 0,
      "note": 94,
      "start": 116.1853,
      "duration": 0.0785,
      "velocity": 105,
      "chip": "ym2612"
    },
    {
      "channel": 5,
      "note": 52,
      "start": 116.1905,
      "duration": 0.1434,
      "velocity": 127,
      "chip": "ym2612"
    },
    {
      "channel": 2,
      "note": 90,
      "start": 116.234,
      "duration": 0.142,
      "velocity": 105,
      "chip": "ym2612"
    },
    {
      "channel": 0,
      "note": 92,
      "start": 116.3282,
      "duration": 0.1739,
      "velocity": 105,
      "chip": "ym2612"
    },
    {
      "channel": 1,
      "note": 68,
      "start": 116.3291,
      "duration": 0.1731,
      "velocity": 95,
      "chip": "ym2612"
    },
    {
      "channel": 3,
      "note": 64,
      "start": 116.3304,
      "duration": 0.1724,
      "velocity": 95,
      "chip": "ym2612"
    },
    {
      "channel": 5,
      "note": 43,
      "start": 116.3345,
      "duration": 0.1383,
      "velocity": 127,
      "chip": "ym2612"
    },
    {
      "channel": 2,
      "note": 94,
      "start": 116.3768,
      "duration": 0.0785,
      "velocity": 105,
      "chip": "ym2612"
    },
    {
      "channel": 2,
      "note": 92,
      "start": 116.5197,
      "duration": 0.1734,
      "velocity": 105,
      "chip": "ym2612"
    },
    {
      "channel": 0,
      "note": 78,
      "start": 116.6143,
      "duration": 0.9354,
      "velocity": 105,
      "chip": "ym2612"
    },
    {
      "channel": 1,
      "note": 66,
      "start": 116.6153,
      "duration": 0.0777,
      "velocity": 95,
      "chip": "ym2612"
    },
    {
      "channel": 3,
      "note": 61,
      "start": 116.6167,
      "duration": 0.0766,
      "velocity": 95,
      "chip": "ym2612"
    },
    {
      "channel": 4,
      "note": 54,
      "start": 116.6177,
      "duration": 1.1242,
      "velocity": 91,
      "chip": "ym2612"
    },
    {
      "channel": 5,
      "note": 43,
      "start": 116.6185,
      "duration": 0.0289,
      "velocity": 127,
      "chip": "ym2612"
    },
    {
      "channel": 5,
      "note": 43,
      "start": 116.648,
      "duration": 0.1115,
      "velocity": 127,
      "chip": "ym2612"
    },
    {
      "channel": 1,
      "note": 65,
      "start": 116.7573,
      "duration": 0.1739,
      "velocity": 95,
      "chip": "ym2612"
    },
    {
      "channel": 3,
      "note": 61,
      "start": 116.7587,
      "duration": 0.1731,
      "velocity": 95,
      "chip": "ym2612"
    },
    {
      "channel": 2,
      "note": 78,
      "start": 116.8058,
      "duration": 0.9354,
      "velocity": 105,
      "chip": "ym2612"
    },
    {
      "channel": 1,
      "note": 66,
      "start": 117.0429,
      "duration": 0.174,
      "velocity": 95,
      "chip": "ym2612"
    },
    {
      "channel": 3,
      "note": 61,
      "start": 117.0443,
      "duration": 0.1732,
      "velocity": 95,
      "chip": "ym2612"
    },
    {
      "channel": 1,
      "note": 65,
      "start": 117.3288,
      "duration": 0.0785,
      "velocity": 95,
      "chip": "ym2612"
    },
    {
      "channel": 3,
      "note": 61,
      "start": 117.3302,
      "duration": 0.0779,
      "velocity": 95,
      "chip": "ym2612"
    },
    {
      "channel": 1,
      "note": 66,
      "start": 117.4717,
      "duration": 0.1738,
      "velocity": 95,
      "chip": "ym2612"
    },
    {
      "channel": 3,
      "note": 61,
      "start": 117.4732,
      "duration": 0.173,
      "velocity": 95,
      "chip": "ym2612"
    },
    {
      "channel": 1,
      "note": 65,
      "start": 117.7574,
      "duration": 0.0786,
      "velocity": 95,
      "chip": "ym2612"
    },
    {
      "channel": 3,
      "note": 61,
      "start": 117.7588,
      "duration": 0.0778,
      "velocity": 95,
      "chip": "ym2612"
    },
    {
      "channel": 1,
      "note": 66,
      "start": 117.9003,
      "duration": 0.1738,
      "velocity": 95,
      "chip": "ym2612"
    },
    {
      "channel": 3,
      "note": 61,
      "start": 117.9017,
      "duration": 0.1731,
      "velocity": 95,
      "chip": "ym2612"
    },
    {
      "channel": 0,
      "note": 80,
      "start": 118.0427,
      "duration": 0.1739,
      "velocity": 105,
      "chip": "ym2612"
    },
    {
      "channel": 1,
      "note": 66,
      "start": 118.1861,
      "duration": 0.0786,
      "velocity": 95,
      "chip": "ym2612"
    },
    {
      "channel": 3,
      "note": 61,
      "start": 118.1875,
      "duration": 0.0778,
      "velocity": 95,
      "chip": "ym2612"
    },
    {
      "channel": 2,
      "note": 80,
      "start": 118.2342,
      "duration": 0.1738,
      "velocity": 105,
      "chip": "ym2612"
    },
    {
      "channel": 0,
      "note": 82,
      "start": 118.3284,
      "duration": 0.1739,
      "velocity": 105,
      "chip": "ym2612"
    },
    {
      "channel": 1,
      "note": 73,
      "start": 118.3293,
      "duration": 0.1732,
      "velocity": 95,
      "chip": "ym2612"
    },
    {
      "channel": 3,
      "note": 66,
      "start": 118.3308,
      "duration": 0.1723,
      "velocity": 95,
      "chip": "ym2612"
    },
    {
      "channel": 4,
      "note": 66,
      "start": 118.3317,
      "duration": 0.1716,
      "velocity": 91,
      "chip": "ym2612"
    },
    {
      "channel": 5,
      "note": 43,
      "start": 118.3326,
      "duration": 0.1406,
      "velocity": 127,
      "chip": "ym2612"
    },
    {
      "channel": 2,
      "note": 82,
      "start": 118.5199,
      "duration": 0.1739,
      "velocity": 105,
      "chip": "ym2612"
    },
    {
      "channel": 0,
      "note": 83,
      "start": 118.6141,
      "duration": 0.1739,
      "velocity": 105,
      "chip": "ym2612"
    },
    {
      "channel": 1,
      "note": 70,
      "start": 118.615,
      "duration": 0.1732,
      "velocity": 95,
      "chip": "ym2612"
    },
    {
      "channel": 3,
      "note": 66,
      "start": 118.6163,
      "duration": 0.1725,
      "velocity": 95,
      "chip": "ym2612"
    },
    {
      "channel": 4,
      "note": 53,
      "start": 118.6172,
      "duration": 0.1718,
      "velocity": 91,
      "chip": "ym2612"
    },
    {
      "channel": 2,
      "note": 83,
      "start": 118.8057,
      "duration": 0.1735,
      "velocity": 105,
      "chip": "ym2612"
    },
    {
      "channel": 0,
      "note": 85,
      "start": 118.8999,
      "duration": 0.9359,
      "velocity": 105,
      "chip": "ym2612"
    },
    {
      "channel": 1,
      "note": 65,
      "start": 118.9009,
      "duration": 0.0781,
      "velocity": 95,
      "chip": "ym2612"
    },
    {
      "channel": 3,
      "note": 63,
      "start": 118.9023,
      "duration": 0.0771,
      "velocity": 95,
      "chip": "ym2612"
    },
    {
      "channel": 4,
      "note": 51,
      "start": 118.9033,
      "duration": 1.1247,
      "velocity": 91,
      "chip": "ym2612"
    },
    {
      "channel": 5,
      "note": 43,
      "start": 118.9041,
      "duration": 0.0293,
      "velocity": 127,
      "chip": "ym2612"
    },
    {
      "channel": 5,
      "note": 43,
      "start": 118.934,
      "duration": 0.1115,
      "velocity": 127,
      "chip": "ym2612"
    },
    {
      "channel": 1,
      "note": 66,
      "start": 119.0433,
      "duration": 0.1739,
      "velocity": 95,
      "chip": "ym2612"
    },
    {
      "channel": 3,
      "note": 63,
      "start": 119.0447,
      "duration": 0.1732,
      "velocity": 95,
      "chip": "ym2612"
    },
    {
      "channel": 2,
      "note": 85,
      "start": 119.0914,
      "duration": 0.9359,
      "velocity": 105,
      "chip": "ym2612"
    },
    {
      "channel": 1,
      "note": 65,
      "start": 119.3291,
      "duration": 0.0786,
      "velocity": 95,
      "chip": "ym2612"
    },
    {
      "channel": 3,
      "note": 63,
      "start": 119.3305,
      "duration": 0.0779,
      "velocity": 95,
      "chip": "ym2612"
    },
    {
      "channel": 1,
      "note": 66,
      "start": 119.472,
      "duration": 0.1739,
      "velocity": 95,
      "chip": "ym2612"
    },
    {
      "channel": 3,
      "note": 63,
      "start": 119.4734,
      "duration": 0.1731,
      "velocity": 95,
      "chip": "ym2612"
    },
    {
      "channel": 1,
      "note": 65,
      "start": 119.7577,
      "duration": 0.0783,
      "velocity": 95,
      "chip": "ym2612"
    },
    {
      "channel": 3,
      "note": 63,
      "start": 119.7592,
      "duration": 0.0775,
      "velocity": 95,
      "chip": "ym2612"
    },
    {
      "channel": 1,
      "note": 66,
      "start": 119.9006,
      "duration": 0.1738,
      "velocity": 95,
      "chip": "ym2612"
    },
    {
      "channel": 3,
      "note": 63,
      "start": 119.902,
      "duration": 0.173,
      "velocity": 95,
      "chip": "ym2612"
    },
    {
      "channel": 1,
      "note": 66,
      "start": 120.1863,
      "duration": 0.1739,
      "velocity": 95,
      "chip": "ym2612"
    },
    {
      "channel": 3,
      "note": 63,
      "start": 120.1876,
      "duration": 0.1732,
      "velocity": 95,
      "chip": "ym2612"
    },
    {
      "channel": 0,
      "note": 83,
      "start": 120.3288,
      "duration": 0.1739,
      "velocity": 105,
      "chip": "ym2612"
    },
    {
      "channel": 1,
      "note": 66,
      "start": 120.4721,
      "duration": 0.0786,
      "velocity": 95,
      "chip": "ym2612"
    },
    {
      "channel": 3,
      "note": 63,
      "start": 120.4735,
      "duration": 0.0778,
      "velocity": 95,
      "chip": "ym2612"
    },
    {
      "channel": 5,
      "note": 52,
      "start": 120.4777,
      "duration": 0.1432,
      "velocity": 127,
      "chip": "ym2612"
    },
    {
      "channel": 2,
      "note": 83,
      "start": 120.5203,
      "duration": 0.1738,
      "velocity": 105,
      "chip": "ym2612"
    },
    {
      "channel": 0,
      "note": 82,
      "start": 120.6144,
      "duration": 0.1739,
      "velocity": 105,
      "chip": "ym2612"
    },
    {
      "channel": 1,
      "note": 73,
      "start": 120.6154,
      "duration": 0.1731,
      "velocity": 95,
      "chip": "ym2612"
    },
    {
      "channel": 3,
      "note": 66,
      "start": 120.6168,
      "duration": 0.1724,
      "velocity": 95,
      "chip": "ym2612"
    },
    {
      "channel": 4,
      "note": 53,
      "start": 120.6177,
      "duration": 0.1716,
      "velocity": 91,
      "chip": "ym2612"
    },
    {
      "channel": 5,
      "note": 43,
      "start": 120.6214,
      "duration": 0.1377,
      "velocity": 127,
      "chip": "ym2612"
    },
    {
      "channel": 2,
      "note": 82,
      "start": 120.806,
      "duration": 0.1738,
      "velocity": 105,
      "chip": "ym2612"
    },
    {
      "channel": 0,
      "note": 85,
      "start": 120.9002,
      "duration": 0.1739,
      "velocity": 105,
      "chip": "ym2612"
    },
    {
      "channel": 1,
      "note": 70,
      "start": 120.9011,
      "duration": 0.1732,
      "velocity": 95,
      "chip": "ym2612"
    },
    {
      "channel": 3,
      "note": 66,
      "start": 120.9024,
      "duration": 0.1725,
      "velocity": 95,
      "chip": "ym2612"
    },
    {
      "channel": 4,
      "note": 54,
      "start": 120.9033,
      "duration": 0.1717,
      "velocity": 91,
      "chip": "ym2612"
    },
    {
      "channel": 5,
      "note": 52,
      "start": 120.9069,
      "duration": 0.138,
      "velocity": 117,
      "chip": "ym2612"
    },
    {
      "channel": 2,
      "note": 85,
      "start": 121.0917,
      "duration": 0.1735,
      "velocity": 105,
      "chip": "ym2612"
    },
    {
      "channel": 0,
      "note": 83,
      "start": 121.186,
      "duration": 0.7296,
      "velocity": 105,
      "chip": "ym2612"
    },
    {
      "channel": 1,
      "note": 71,
      "start": 121.187,
      "duration": 0.0781,
      "velocity": 95,
      "chip": "ym2612"
    },
    {
      "channel": 3,
      "note": 68,
      "start": 121.1884,
      "duration": 0.077,
      "velocity": 95,
      "chip": "ym2612"
    },
    {
      "channel": 4,
      "note": 56,
      "start": 121.1894,
      "duration": 0.7279,
      "velocity": 91,
      "chip": "ym2612"
    },
    {
      "channel": 5,
      "note": 43,
      "start": 121.1931,
      "duration": 0.0265,
      "velocity": 127,
      "chip": "ym2612"
    },
    {
      "channel": 5,
      "note": 43,
      "start": 121.2201,
      "duration": 0.1115,
      "velocity": 127,
      "chip": "ym2612"
    },
    {
      "channel": 1,
      "note": 70,
      "start": 121.3294,
      "duration": 0.1739,
      "velocity": 95,
      "chip": "ym2612"
    },
    {
      "channel": 3,
      "note": 68,
      "start": 121.3308,
      "duration": 0.1732,
      "velocity": 95,
      "chip": "ym2612"
    },
    {
      "channel": 2,
      "note": 83,
      "start": 121.3775,
      "duration": 0.7296,
      "velocity": 105,
      "chip": "ym2612"
    },
    {
      "channel": 1,
      "note": 71,
      "start": 121.6151,
      "duration": 0.174,
      "velocity": 95,
      "chip": "ym2612"
    },
    {
      "channel": 3,
      "note": 68,
      "start": 121.6164,
      "duration": 0.1733,
      "velocity": 95,
      "chip": "ym2612"
    },
    {
      "channel": 1,
      "note": 70,
      "start": 121.9009,
      "duration": 0.0786,
      "velocity": 95,
      "chip": "ym2612"
    },
    {
      "channel": 3,
      "note": 68,
      "start": 121.9023,
      "duration": 0.0778,
      "velocity": 95,
      "chip": "ym2612"
    },
    {
      "channel": 1,
      "note": 71,
      "start": 122.0438,
      "duration": 0.1739,
      "velocity": 95,
      "chip": "ym2612"
    },
    {
      "channel": 3,
      "note": 68,
      "start": 122.0452,
      "duration": 0.173,
      "velocity": 95,
      "chip": "ym2612"
    },
    {
      "channel": 0,
      "note": 87,
      "start": 122.3289,
      "duration": 0.7297,
      "velocity": 105,
      "chip": "ym2612"
    },
    {
      "channel": 1,
      "note": 71,
      "start": 122.3299,
      "duration": 0.0782,
      "velocity": 95,
      "chip": "ym2612"
    },
    {
      "channel": 3,
      "note": 68,
      "start": 122.3313,
      "duration": 0.0774,
      "velocity": 95,
      "chip": "ym2612"
    },
    {
      "channel": 4,
      "note": 59,
      "start": 122.3322,
      "duration": 0.1727,
      "velocity": 91,
      "chip": "ym2612"
    },
    {
      "channel": 5,
      "note": 52,
      "start": 122.3359,
      "duration": 0.1387,
      "velocity": 117,
      "chip": "ym2612"
    },
    {
      "channel": 1,
      "note": 70,
      "start": 122.4724,
      "duration": 0.1739,
      "velocity": 95,
      "chip": "ym2612"
    },
    {
      "channel": 3,
      "note": 68,
      "start": 122.4739,
      "duration": 0.1731,
      "velocity": 95,
      "chip": "ym2612"
    },
    {
      "channel": 2,
      "note": 87,
      "start": 122.5204,
      "duration": 0.7297,
      "velocity": 105,
      "chip": "ym2612"
    },
    {
      "channel": 1,
      "note": 71,
      "start": 122.7582,
      "duration": 0.0785,
      "velocity": 95,
      "chip": "ym2612"
    },
    {
      "channel": 3,
      "note": 68,
      "start": 122.7596,
      "duration": 0.0779,
      "velocity": 95,
      "chip": "ym2612"
    },
    {
      "channel": 1,
      "note": 71,
      "start": 122.901,
      "duration": 0.0787,
      "velocity": 95,
      "chip": "ym2612"
    },
    {
      "channel": 3,
      "note": 68,
      "start": 122.9024,
      "duration": 0.1734,
      "velocity": 95,
      "chip": "ym2612"
    },
    {
      "channel": 4,
      "note": 51,
      "start": 122.9034,
      "duration": 0.3474,
      "velocity": 91,
      "chip": "ym2612"
    },
    {
      "channel": 5,
      "note": 43,
      "start": 122.9071,
      "duration": 0.1385,
      "velocity": 127,
      "chip": "ym2612"
    },
    {
      "channel": 1,
      "note": 70,
      "start": 123.0438,
      "duration": 0.0787,
      "velocity": 95,
      "chip": "ym2612"
    },
    {
      "channel": 1,
      "note": 68,
      "start": 123.1867,
      "duration": 0.0787,
      "velocity": 95,
      "chip": "ym2612"
    },
    {
      "channel": 3,
      "note": 63,
      "start": 123.188,
      "duration": 0.1736,
      "velocity": 95,
      "chip": "ym2612"
    },
    {
      "channel": 5,
      "note": 52,
      "start": 123.1922,
      "duration": 0.1391,
      "velocity": 117,
      "chip": "ym2612"
    },
    {
      "channel": 1,
      "note": 66,
      "start": 123.3296,
      "duration": 0.0787,
      "velocity": 95,
      "chip": "ym2612"
    },
    {
      "channel": 0,
      "note": 85,
      "start": 123.4721,
      "duration": 0.3485,
      "velocity": 105,
      "chip": "ym2612"
    },
    {
      "channel": 1,
      "note": 65,
      "start": 123.4729,
      "duration": 0.0782,
      "velocity": 95,
      "chip": "ym2612"
    },
    {
      "channel": 3,
      "note": 61,
      "start": 123.4744,
      "duration": 0.0774,
      "velocity": 95,
      "chip": "ym2612"
    },
    {
      "channel": 4,
      "note": 61,
      "start": 123.4752,
      "duration": 0.347,
      "velocity": 91,
      "chip": "ym2612"
    },
    {
      "channel": 5,
      "note": 43,
      "start": 123.4789,
      "duration": 0.0267,
      "velocity": 127,
      "chip": "ym2612"
    },
    {
      "channel": 5,
      "note": 43,
      "start": 123.5062,
      "duration": 0.1115,
      "velocity": 127,
      "chip": "ym2612"
    },
    {
      "channel": 1,
      "note": 65,
      "start": 123.6154,
      "duration": 0.1739,
      "velocity": 95,
      "chip": "ym2612"
    },
    {
      "channel": 3,
      "note": 61,
      "start": 123.6168,
      "duration": 0.1731,
      "velocity": 95,
      "chip": "ym2612"
    },
    {
      "channel": 2,
      "note": 85,
      "start": 123.6635,
      "duration": 0.3486,
      "velocity": 105,
      "chip": "ym2612"
    },
    {
      "channel": 1,
      "note": 65,
      "start": 123.9012,
      "duration": 0.0786,
      "velocity": 95,
      "chip": "ym2612"
    },
    {
      "channel": 3,
      "note": 61,
      "start": 123.9026,
      "duration": 0.0778,
      "velocity": 95,
      "chip": "ym2612"
    },
    {
      "channel": 0,
      "note": 83,
      "start": 124.0435,
      "duration": 0.3487,
      "velocity": 105,
      "chip": "ym2612"
    },
    {
      "channel": 1,
      "note": 77,
      "start": 124.0444,
      "duration": 0.0782,
      "velocity": 95,
      "chip": "ym2612"
    },
    {
      "channel": 3,
      "note": 73,
      "start": 124.0457,
      "duration": 0.0775,
      "velocity": 95,
      "chip": "ym2612"
    },
    {
      "channel": 4,
      "note": 49,
      "start": 124.0466,
      "duration": 0.3472,
      "velocity": 91,
      "chip": "ym2612"
    },
    {
      "channel": 1,
      "note": 77,
      "start": 124.187,
      "duration": 0.2691,
      "velocity": 95,
      "chip": "ym2612"
    },
    {
      "channel": 3,
      "note": 73,
      "start": 124.1884,
      "duration": 0.2683,
      "velocity": 95,
      "chip": "ym2612"
    },
    {
      "channel": 2,
      "note": 83,
      "start": 124.235,
      "duration": 0.3487,
      "velocity": 105,
      "chip": "ym2612"
    },
    {
      "channel": 0,
      "note": 82,
      "start": 124.615,
      "duration": 0.3487,
      "velocity": 105,
      "chip": "ym2612"
    },
    {
      "channel": 1,
      "note": 75,
      "start": 124.616,
      "duration": 0.1735,
      "velocity": 95,
      "chip": "ym2612"
    },
    {
      "channel": 3,
      "note": 68,
      "start": 124.6174,
      "duration": 0.1727,
      "velocity": 95,
      "chip": "ym2612"
    },
    {
      "channel": 4,
      "note": 49,
      "start": 124.6184,
      "duration": 0.0772,
      "velocity": 91,
      "chip": "ym2612"
    },
    {
      "channel": 5,
      "note": 52,
      "start": 124.622,
      "duration": 0.1382,
      "velocity": 117,
      "chip": "ym2612"
    },
    {
      "channel": 4,
      "note": 49,
      "start": 124.7599,
      "duration": 0.1739,
      "velocity": 91,
      "chip": "ym2612"
    },
    {
      "channel": 2,
      "note": 82,
      "start": 124.8065,
      "duration": 0.3487,
      "velocity": 105,
      "chip": "ym2612"
    },
    {
      "channel": 1,
      "note": 73,
      "start": 124.9013,
      "duration": 0.1739,
      "velocity": 95,
      "chip": "ym2612"
    },
    {
      "channel": 3,
      "note": 68,
      "start": 124.9026,
      "duration": 0.1732,
      "velocity": 95,
      "chip": "ym2612"
    },
    {
      "channel": 4,
      "note": 49,
      "start": 125.0457,
      "duration": 0.0786,
      "velocity": 91,
      "chip": "ym2612"
    },
    {
      "channel": 0,
      "note": 80,
      "start": 125.1865,
      "duration": 0.3487,
      "velocity": 105,
      "chip": "ym2612"
    },
    {
      "channel": 1,
      "note": 71,
      "start": 125.1874,
      "duration": 0.1736,
      "velocity": 95,
      "chip": "ym2612"
    },
    {
      "channel": 3,
      "note": 66,
      "start": 125.1888,
      "duration": 0.1728,
      "velocity": 95,
      "chip": "ym2612"
    },
    {
      "channel": 4,
      "note": 49,
      "start": 125.1896,
      "duration": 0.0775,
      "velocity": 91,
      "chip": "ym2612"
    },
    {
      "channel": 5,
      "note": 43,
      "start": 125.1933,
      "duration": 0.138,
      "velocity": 127,
      "chip": "ym2612"
    },
    {
      "channel": 2,
      "note": 80,
      "start": 125.378,
      "duration": 0.3487,
      "velocity": 105,
      "chip": "ym2612"
    },
    {
      "channel": 1,
      "note": 70,
      "start": 125.4728,
      "duration": 0.1739,
      "velocity": 95,
      "chip": "ym2612"
    },
    {
      "channel": 3,
      "note": 66,
      "start": 125.4741,
      "duration": 0.1732,
      "velocity": 95,
      "chip": "ym2612"
    },
    {
      "channel": 4,
      "note": 61,
      "start": 125.4751,
      "duration": 0.1724,
      "velocity": 91,
      "chip": "ym2612"
    },
    {
      "channel": 5,
      "note": 43,
      "start": 125.4759,
      "duration": 0.1411,
      "velocity": 127,
      "chip": "ym2612"
    },
    {
      "channel": 5,
      "note": 43,
      "start": 125.6176,
      "duration": 0.1468,
      "velocity": 117,
      "chip": "ym2612"
    },
    {
      "channel": 0,
      "note": 78,
      "start": 125.7581,
      "duration": 0.9359,
      "velocity": 105,
      "chip": "ym2612"
    },
    {
      "channel": 1,
      "note": 66,
      "start": 125.759,
      "duration": 0.0782,
      "velocity": 95,
      "chip": "ym2612"
    },
    {
      "channel": 3,
      "note": 61,
      "start": 125.7604,
      "duration": 0.0774,
      "velocity": 95,
      "chip": "ym2612"
    },
    {
      "channel": 4,
      "note": 54,
      "start": 125.7613,
      "duration": 0.1727,
      "velocity": 91,
      "chip": "ym2612"
    },
    {
      "channel": 5,
      "note": 52,
      "start": 125.7649,
      "duration": 0.1415,
      "velocity": 115,
      "chip": "ym2612"
    },
    {
      "channel": 1,
      "note": 65,
      "start": 125.9015,
      "duration": 0.1739,
      "velocity": 95,
      "chip": "ym2612"
    },
    {
      "channel": 3,
      "note": 61,
      "start": 125.9029,
      "duration": 0.1732,
      "velocity": 95,
      "chip": "ym2612"
    },
    {
      "channel": 5,
      "note": 55,
      "start": 125.9071,
      "duration": 0.0751,
      "velocity": 115,
      "chip": "ym2612"
    },
    {
      "channel": 2,
      "note": 78,
      "start": 125.9496,
      "duration": 0.9358,
      "velocity": 105,
      "chip": "ym2612"
    },
    {
      "channel": 5,
      "note": 55,
      "start": 125.9827,
      "duration": 0.0634,
      "velocity": 115,
      "chip": "ym2612"
    },
    {
      "channel": 4,
      "note": 66,
      "start": 126.0458,
      "duration": 0.1739,
      "velocity": 91,
      "chip": "ym2612"
    },
    {
      "channel": 5,
      "note": 55,
      "start": 126.0467,
      "duration": 0.1426,
      "velocity": 115,
      "chip": "ym2612"
    },
    {
      "channel": 1,
      "note": 66,
      "start": 126.1871,
      "duration": 0.174,
      "velocity": 95,
      "chip": "ym2612"
    },
    {
      "channel": 3,
      "note": 61,
      "start": 126.1885,
      "duration": 0.1732,
      "velocity": 95,
      "chip": "ym2612"
    },
    {
      "channel": 5,
      "note": 55,
      "start": 126.1899,
      "duration": 0.1448,
      "velocity": 127,
      "chip": "ym2612"
    },
    {
      "channel": 4,
      "note": 54,
      "start": 126.3315,
      "duration": 0.1739,
      "velocity": 91,
      "chip": "ym2612"
    },
    {
      "channel": 5,
      "note": 43,
      "start": 126.3352,
      "duration": 0.14,
      "velocity": 127,
      "chip": "ym2612"
    },
    {
      "channel": 1,
      "note": 65,
      "start": 126.473,
      "duration": 0.0786,
      "velocity": 95,
      "chip": "ym2612"
    },
    {
      "channel": 3,
      "note": 61,
      "start": 126.4744,
      "duration": 0.0779,
      "velocity": 95,
      "chip": "ym2612"
    },
    {
      "channel": 1,
      "note": 66,
      "start": 126.6159,
      "duration": 0.1738,
      "velocity": 95,
      "chip": "ym2612"
    },
    {
      "channel": 3,
      "note": 61,
      "start": 126.6173,
      "duration": 0.173,
      "velocity": 95,
      "chip": "ym2612"
    },
    {
      "channel": 4,
      "note": 66,
      "start": 126.6183,
      "duration": 0.0774,
      "velocity": 91,
      "chip": "ym2612"
    },
    {
      "channel": 5,
      "note": 55,
      "start": 126.622,
      "duration": 0.1385,
      "velocity": 115,
      "chip": "ym2612"
    },
    {
      "channel": 4,
      "note": 66,
      "start": 126.7602,
      "duration": 0.0786,
      "velocity": 91,
      "chip": "ym2612"
    },
    {
      "channel": 1,
      "note": 65,
      "start": 126.9017,
      "duration": 0.0785,
      "velocity": 95,
      "chip": "ym2612"
    },
    {
      "channel": 3,
      "note": 61,
      "start": 126.903,
      "duration": 0.0778,
      "velocity": 95,
      "chip": "ym2612"
    },
    {
      "channel": 4,
      "note": 54,
      "start": 126.904,
      "duration": 0.1729,
      "velocity": 91,
      "chip": "ym2612"
    },
    {
      "channel": 5,
      "note": 52,
      "start": 126.9076,
      "duration": 0.1419,
      "velocity": 115,
      "chip": "ym2612"
    },
    {
      "channel": 1,
      "note": 66,
      "start": 127.0445,
      "duration": 0.1738,
      "velocity": 95,
      "chip": "ym2612"
    },
    {
      "channel": 3,
      "note": 61,
      "start": 127.0459,
      "duration": 0.1731,
      "velocity": 95,
      "chip": "ym2612"
    },
    {
      "channel": 5,
      "note": 55,
      "start": 127.05,
      "duration": 0.0751,
      "velocity": 115,
      "chip": "ym2612"
    },
    {
      "channel": 5,
      "note": 55,
      "start": 127.1257,
      "duration": 0.0639,
      "velocity": 115,
      "chip": "ym2612"
    },
    {
      "channel": 0,
      "note": 80,
      "start": 127.1869,
      "duration": 0.1739,
      "velocity": 105,
      "chip": "ym2612"
    },
    {
      "channel": 4,
      "note": 66,
      "start": 127.1893,
      "duration": 0.0781,
      "velocity": 91,
      "chip": "ym2612"
    },
    {
      "channel": 5,
      "note": 55,
      "start": 127.1902,
      "duration": 0.1426,
      "velocity": 115,
      "chip": "ym2612"
    },
    {
      "channel": 1,
      "note": 66,
      "start": 127.3303,
      "duration": 0.0786,
      "velocity": 95,
      "chip": "ym2612"
    },
    {
      "channel": 3,
      "note": 61,
      "start": 127.3317,
      "duration": 0.0778,
      "velocity": 95,
      "chip": "ym2612"
    },
    {
      "channel": 4,
      "note": 54,
      "start": 127.3325,
      "duration": 0.0772,
      "velocity": 91,
      "chip": "ym2612"
    },
    {
      "channel": 5,
      "note": 55,
      "start": 127.3334,
      "duration": 0.1452,
      "velocity": 127,
      "chip": "ym2612"
    },
    {
      "channel": 2,
      "note": 80,
      "start": 127.3784,
      "duration": 0.1739,
      "velocity": 105,
      "chip": "ym2612"
    },
    {
      "channel": 0,
      "note": 82,
      "start": 127.4726,
      "duration": 0.1739,
      "velocity": 105,
      "chip": "ym2612"
    },
    {
      "channel": 1,
      "note": 73,
      "start": 127.4735,
      "duration": 0.1731,
      "velocity": 95,
      "chip": "ym2612"
    },
    {
      "channel": 3,
      "note": 66,
      "start": 127.475,
      "duration": 0.1723,
      "velocity": 95,
      "chip": "ym2612"
    },
    {
      "channel": 5,
      "note": 43,
      "start": 127.4792,
      "duration": 0.1385,
      "velocity": 127,
      "chip": "ym2612"
    },
    {
      "channel": 4,
      "note": 54,
      "start": 127.6174,
      "duration": 0.0786,
      "velocity": 91,
      "chip": "ym2612"
    },
    {
      "channel": 2,
      "note": 82,
      "start": 127.6641,
      "duration": 0.1739,
      "velocity": 105,
      "chip": "ym2612"
    },
    {
      "channel": 0,
      "note": 83,
      "start": 127.7583,
      "duration": 0.1739,
      "velocity": 105,
      "chip": "ym2612"
    },
    {
      "channel": 1,
      "note": 70,
      "start": 127.7592,
      "duration": 0.1732,
      "velocity": 95,
      "chip": "ym2612"
    },
    {
      "channel": 3,
      "note": 66,
      "start": 127.7605,
      "duration": 0.1725,
      "velocity": 95,
      "chip": "ym2612"
    },
    {
      "channel": 4,
      "note": 66,
      "start": 127.7615,
      "duration": 0.1718,
      "velocity": 91,
      "chip": "ym2612"
    },
    {
      "channel": 5,
      "note": 55,
      "start": 127.7651,
      "duration": 0.138,
      "velocity": 115,
      "chip": "ym2612"
    },
    {
      "channel": 5,
      "note": 55,
      "start": 127.9037,
      "duration": 0.1468,
      "velocity": 117,
      "chip": "ym2612"
    },
    {
      "channel": 2,
      "note": 83,
      "start": 127.9499,
      "duration": 0.1735,
      "velocity": 105,
      "chip": "ym2612"
    },
    {
      "channel": 0,
      "note": 85,
      "start": 128.0442,
      "duration": 0.9358,
      "velocity": 105,
      "chip": "ym2612"
    },
    {
      "channel": 1,
      "note": 65,
      "start": 128.0451,
      "duration": 0.0782,
      "velocity": 95,
      "chip": "ym2612"
    },
    {
      "channel": 3,
      "note": 63,
      "start": 128.0466,
      "duration": 0.077,
      "velocity": 95,
      "chip": "ym2612"
    },
    {
      "channel": 4,
      "note": 51,
      "start": 128.0474,
      "duration": 0.1726,
      "velocity": 91,
      "chip": "ym2612"
    },
    {
      "channel": 5,
      "note": 52,
      "start": 128.051,
      "duration": 0.1415,
      "velocity": 115,
      "chip": "ym2612"
    },
    {
      "channel": 1,
      "note": 66,
      "start": 128.1875,
      "duration": 0.1739,
      "velocity": 95,
      "chip": "ym2612"
    },
    {
      "channel": 3,
      "note": 63,
      "start": 128.189,
      "duration": 0.1731,
      "velocity": 95,
      "chip": "ym2612"
    },
    {
      "channel": 5,
      "note": 55,
      "start": 128.1931,
      "duration": 0.075,
      "velocity": 115,
      "chip": "ym2612"
    },
    {
      "channel": 2,
      "note": 85,
      "start": 128.2356,
      "duration": 0.9359,
      "velocity": 105,
      "chip": "ym2612"
    },
    {
      "channel": 5,
      "note": 55,
      "start": 128.2688,
      "duration": 0.0634,
      "velocity": 115,
      "chip": "ym2612"
    },
    {
      "channel": 4,
      "note": 63,
      "start": 128.3319,
      "duration": 0.1739,
      "velocity": 91,
      "chip": "ym2612"
    },
    {
      "channel": 5,
      "note": 55,
      "start": 128.3327,
      "duration": 0.1428,
      "velocity": 115,
      "chip": "ym2612"
    },
    {
      "channel": 1,
      "note": 65,
      "start": 128.4733,
      "duration": 0.0786,
      "velocity": 95,
      "chip": "ym2612"
    },
    {
      "channel": 3,
      "note": 63,
      "start": 128.4747,
      "duration": 0.0779,
      "velocity": 95,
      "chip": "ym2612"
    },
    {
      "channel": 5,
      "note": 55,
      "start": 128.4761,
      "duration": 0.1455,
      "velocity": 127,
      "chip": "ym2612"
    },
    {
      "channel": 1,
      "note": 66,
      "start": 128.6161,
      "duration": 0.1739,
      "velocity": 95,
      "chip": "ym2612"
    },
    {
      "channel": 3,
      "note": 63,
      "start": 128.6176,
      "duration": 0.1731,
      "velocity": 95,
      "chip": "ym2612"
    },
    {
      "channel": 4,
      "note": 51,
      "start": 128.6184,
      "duration": 0.1725,
      "velocity": 91,
      "chip": "ym2612"
    },
    {
      "channel": 5,
      "note": 43,
      "start": 128.6221,
      "duration": 0.1382,
      "velocity": 127,
      "chip": "ym2612"
    },
    {
      "channel": 1,
      "note": 65,
      "start": 128.9019,
      "duration": 0.0783,
      "velocity": 95,
      "chip": "ym2612"
    },
    {
      "channel": 3,
      "note": 63,
      "start": 128.9034,
      "duration": 0.0775,
      "velocity": 95,
      "chip": "ym2612"
    },
    {
      "channel": 4,
      "note": 63,
      "start": 128.9042,
      "duration": 0.173,
      "velocity": 91,
      "chip": "ym2612"
    },
    {
      "channel": 5,
      "note": 55,
      "start": 128.9079,
      "duration": 0.1391,
      "velocity": 115,
      "chip": "ym2612"
    },
    {
      "channel": 1,
      "note": 66,
      "start": 129.0448,
      "duration": 0.1739,
      "velocity": 95,
      "chip": "ym2612"
    },
    {
      "channel": 3,
      "note": 63,
      "start": 129.0462,
      "duration": 0.173,
      "velocity": 95,
      "chip": "ym2612"
    },
    {
      "channel": 4,
      "note": 51,
      "start": 129.189,
      "duration": 0.1739,
      "velocity": 91,
      "chip": "ym2612"
    },
    {
      "channel": 5,
      "note": 52,
      "start": 129.1927,
      "duration": 0.1427,
      "velocity": 115,
      "chip": "ym2612"
    },
    {
      "channel": 1,
      "note": 66,
      "start": 129.3305,
      "duration": 0.1739,
      "velocity": 95,
      "chip": "ym2612"
    },
    {
      "channel": 3,
      "note": 63,
      "start": 129.3318,
      "duration": 0.1733,
      "velocity": 95,
      "chip": "ym2612"
    },
    {
      "channel": 5,
      "note": 55,
      "start": 129.3359,
      "duration": 0.0752,
      "velocity": 115,
      "chip": "ym2612"
    },
    {
      "channel": 5,
      "note": 55,
      "start": 129.4118,
      "duration": 0.0638,
      "velocity": 115,
      "chip": "ym2612"
    },
    {
      "channel": 0,
      "note": 83,
      "start": 129.4729,
      "duration": 0.1739,
      "velocity": 105,
      "chip": "ym2612"
    },
    {
      "channel": 4,
      "note": 63,
      "start": 129.4753,
      "duration": 0.1731,
      "velocity": 91,
      "chip": "ym2612"
    },
    {
      "channel": 5,
      "note": 55,
      "start": 129.4761,
      "duration": 0.1424,
      "velocity": 115,
      "chip": "ym2612"
    },
    {
      "channel": 1,
      "note": 66,
      "start": 129.6163,
      "duration": 0.0785,
      "velocity": 95,
      "chip": "ym2612"
    },
    {
      "channel": 3,
      "note": 63,
      "start": 129.6177,
      "duration": 0.0778,
      "velocity": 95,
      "chip": "ym2612"
    },
    {
      "channel": 5,
      "note": 55,
      "start": 129.6191,
      "duration": 0.1459,
      "velocity": 127,
      "chip": "ym2612"
    },
    {
      "channel": 2,
      "note": 83,
      "start": 129.6644,
      "duration": 0.1738,
      "velocity": 105,
      "chip": "ym2612"
    },
    {
      "channel": 0,
      "note": 82,
      "start": 129.7586,
      "duration": 0.1739,
      "velocity": 105,
      "chip": "ym2612"
    },
    {
      "channel": 1,
      "note": 73,
      "start": 129.7596,
      "duration": 0.1731,
      "velocity": 95,
      "chip": "ym2612"
    },
    {
      "channel": 3,
      "note": 66,
      "start": 129.761,
      "duration": 0.1723,
      "velocity": 95,
      "chip": "ym2612"
    },
    {
      "channel": 4,
      "note": 53,
      "start": 129.7619,
      "duration": 0.1716,
      "velocity": 91,
      "chip": "ym2612"
    },
    {
      "channel": 5,
      "note": 43,
      "start": 129.7656,
      "duration": 0.1378,
      "velocity": 127,
      "chip": "ym2612"
    },
    {
      "channel": 2,
      "note": 82,
      "start": 129.9502,
      "duration": 0.1739,
      "velocity": 105,
      "chip": "ym2612"
    },
    {
      "channel": 0,
      "note": 85,
      "start": 130.0444,
      "duration": 0.1739,
      "velocity": 105,
      "chip": "ym2612"
    },
    {
      "channel": 1,
      "note": 70,
      "start": 130.0452,
      "duration": 0.1732,
      "velocity": 95,
      "chip": "ym2612"
    },
    {
      "channel": 3,
      "note": 66,
      "start": 130.0466,
      "duration": 0.1724,
      "velocity": 95,
      "chip": "ym2612"
    },
    {
      "channel": 4,
      "note": 54,
      "start": 130.0474,
      "duration": 0.1718,
      "velocity": 91,
      "chip": "ym2612"
    },
    {
      "channel": 5,
      "note": 55,
      "start": 130.0511,
      "duration": 0.1381,
      "velocity": 115,
      "chip": "ym2612"
    },
    {
      "channel": 5,
      "note": 55,
      "start": 130.1898,
      "duration": 0.1468,
      "velocity": 117,
      "chip": "ym2612"
    },
    {
      "channel": 2,
      "note": 85,
      "start": 130.2359,
      "duration": 0.1735,
      "velocity": 105,
      "chip": "ym2612"
    },
    {
      "channel": 0,
      "note": 83,
      "start": 130.3302,
      "duration": 0.7296,
      "velocity": 105,
      "chip": "ym2612"
    },
    {
      "channel": 1,
      "note": 71,
      "start": 130.3312,
      "duration": 0.0781,
      "velocity": 95,
      "chip": "ym2612"
    },
    {
      "channel": 3,
      "note": 68,
      "start": 130.3326,
      "duration": 0.077,
      "velocity": 95,
      "chip": "ym2612"
    },
    {
      "channel": 4,
      "note": 56,
      "start": 130.3334,
      "duration": 0.1727,
      "velocity": 91,
      "chip": "ym2612"
    },
    {
      "channel": 5,
      "note": 52,
      "start": 130.3371,
      "duration": 0.1415,
      "velocity": 115,
      "chip": "ym2612"
    },
    {
      "channel": 1,
      "note": 70,
      "start": 130.4736,
      "duration": 0.1739,
      "velocity": 95,
      "chip": "ym2612"
    },
    {
      "channel": 3,
      "note": 68,
      "start": 130.475,
      "duration": 0.1732,
      "velocity": 95,
      "chip": "ym2612"
    },
    {
      "channel": 5,
      "note": 55,
      "start": 130.4791,
      "duration": 0.0751,
      "velocity": 115,
      "chip": "ym2612"
    },
    {
      "channel": 2,
      "note": 83,
      "start": 130.5217,
      "duration": 0.7296,
      "velocity": 105,
      "chip": "ym2612"
    },
    {
      "channel": 5,
      "note": 55,
      "start": 130.5548,
      "duration": 0.0634,
      "velocity": 115,
      "chip": "ym2612"
    },
    {
      "channel": 4,
      "note": 68,
      "start": 130.6179,
      "duration": 0.1739,
      "velocity": 91,
      "chip": "ym2612"
    },
    {
      "channel": 5,
      "note": 55,
      "start": 130.6188,
      "duration": 0.1427,
      "velocity": 115,
      "chip": "ym2612"
    },
    {
      "channel": 1,
      "note": 71,
      "start": 130.7593,
      "duration": 0.1739,
      "velocity": 95,
      "chip": "ym2612"
    },
    {
      "channel": 3,
      "note": 68,
      "start": 130.7606,
      "duration": 0.1733,
      "velocity": 95,
      "chip": "ym2612"
    },
    {
      "channel": 5,
      "note": 55,
      "start": 130.762,
      "duration": 0.1447,
      "velocity": 127,
      "chip": "ym2612"
    },
    {
      "channel": 4,
      "note": 56,
      "start": 130.9036,
      "duration": 0.1739,
      "velocity": 91,
      "chip": "ym2612"
    },
    {
      "channel": 5,
      "note": 43,
      "start": 130.9073,
      "duration": 0.14,
      "velocity": 127,
      "chip": "ym2612"
    },
    {
      "channel": 1,
      "note": 70,
      "start": 131.0451,
      "duration": 0.0785,
      "velocity": 95,
      "chip": "ym2612"
    },
    {
      "channel": 3,
      "note": 68,
      "start": 131.0466,
      "duration": 0.0778,
      "velocity": 95,
      "chip": "ym2612"
    },
    {
      "channel": 1,
      "note": 71,
      "start": 131.188,
      "duration": 0.1739,
      "velocity": 95,
      "chip": "ym2612"
    },
    {
      "channel": 3,
      "note": 68,
      "start": 131.1894,
      "duration": 0.173,
      "velocity": 95,
      "chip": "ym2612"
    },
    {
      "channel": 4,
      "note": 68,
      "start": 131.1904,
      "duration": 0.0776,
      "velocity": 91,
      "chip": "ym2612"
    },
    {
      "channel": 5,
      "note": 55,
      "start": 131.194,
      "duration": 0.1385,
      "velocity": 115,
      "chip": "ym2612"
    },
    {
      "channel": 4,
      "note": 56,
      "start": 131.3322,
      "duration": 0.0786,
      "velocity": 91,
      "chip": "ym2612"
    },
    {
      "channel": 0,
      "note": 87,
      "start": 131.4732,
      "duration": 0.7297,
      "velocity": 105,
      "chip": "ym2612"
    },
    {
      "channel": 1,
      "note": 71,
      "start": 131.4741,
      "duration": 0.0782,
      "velocity": 95,
      "chip": "ym2612"
    },
    {
      "channel": 3,
      "note": 68,
      "start": 131.4756,
      "duration": 0.0774,
      "velocity": 95,
      "chip": "ym2612"
    },
    {
      "channel": 4,
      "note": 68,
      "start": 131.4765,
      "duration": 0.1726,
      "velocity": 91,
      "chip": "ym2612"
    },
    {
      "channel": 5,
      "note": 52,
      "start": 131.4801,
      "duration": 0.1415,
      "velocity": 115,
      "chip": "ym2612"
    },
    {
      "channel": 1,
      "note": 70,
      "start": 131.6166,
      "duration": 0.1739,
      "velocity": 95,
      "chip": "ym2612"
    },
    {
      "channel": 3,
      "note": 68,
      "start": 131.618,
      "duration": 0.1731,
      "velocity": 95,
      "chip": "ym2612"
    },
    {
      "channel": 5,
      "note": 55,
      "start": 131.6222,
      "duration": 0.075,
      "velocity": 115,
      "chip": "ym2612"
    },
    {
      "channel": 2,
      "note": 87,
      "start": 131.6646,
      "duration": 0.7296,
      "velocity": 105,
      "chip": "ym2612"
    },
    {
      "channel": 5,
      "note": 55,
      "start": 131.6978,
      "duration": 0.0634,
      "velocity": 115,
      "chip": "ym2612"
    },
    {
      "channel": 4,
      "note": 59,
      "start": 131.761,
      "duration": 0.0786,
      "velocity": 91,
      "chip": "ym2612"
    },
    {
      "channel": 5,
      "note": 55,
      "start": 131.7618,
      "duration": 0.1433,
      "velocity": 115,
      "chip": "ym2612"
    },
    {
      "channel": 1,
      "note": 71,
      "start": 131.9023,
      "duration": 0.0786,
      "velocity": 95,
      "chip": "ym2612"
    },
    {
      "channel": 3,
      "note": 68,
      "start": 131.9038,
      "duration": 0.0779,
      "velocity": 95,
      "chip": "ym2612"
    },
    {
      "channel": 4,
      "note": 56,
      "start": 131.9048,
      "duration": 0.173,
      "velocity": 91,
      "chip": "ym2612"
    },
    {
      "channel": 5,
      "note": 55,
      "start": 131.9056,
      "duration": 0.1445,
      "velocity": 127,
      "chip": "ym2612"
    },
    {
      "channel": 1,
      "note": 71,
      "start": 132.0451,
      "duration": 0.0787,
      "velocity": 95,
      "chip": "ym2612"
    },
    {
      "channel": 3,
      "note": 68,
      "start": 132.0466,
      "duration": 0.1734,
      "velocity": 95,
      "chip": "ym2612"
    },
    {
      "channel": 5,
      "note": 43,
      "start": 132.0507,
      "duration": 0.1395,
      "velocity": 127,
      "chip": "ym2612"
    },
    {
      "channel": 1,
      "note": 70,
      "start": 132.188,
      "duration": 0.0787,
      "velocity": 95,
      "chip": "ym2612"
    },
    {
      "channel": 4,
      "note": 51,
      "start": 132.1899,
      "duration": 0.1735,
      "velocity": 91,
      "chip": "ym2612"
    },
    {
      "channel": 1,
      "note": 68,
      "start": 132.3309,
      "duration": 0.0786,
      "velocity": 95,
      "chip": "ym2612"
    },
    {
      "channel": 3,
      "note": 63,
      "start": 132.3322,
      "duration": 0.1735,
      "velocity": 95,
      "chip": "ym2612"
    },
    {
      "channel": 5,
      "note": 55,
      "start": 132.3364,
      "duration": 0.1396,
      "velocity": 115,
      "chip": "ym2612"
    },
    {
      "channel": 1,
      "note": 66,
      "start": 132.4738,
      "duration": 0.0787,
      "velocity": 95,
      "chip": "ym2612"
    },
    {
      "channel": 4,
      "note": 56,
      "start": 132.4757,
      "duration": 0.0779,
      "velocity": 91,
      "chip": "ym2612"
    },
    {
      "channel": 5,
      "note": 55,
      "start": 132.4766,
      "duration": 0.146,
      "velocity": 122,
      "chip": "ym2612"
    },
    {
      "channel": 0,
      "note": 89,
      "start": 132.6163,
      "duration": 1.5074,
      "velocity": 105,
      "chip": "ym2612"
    },
    {
      "channel": 1,
      "note": 65,
      "start": 132.6172,
      "duration": 0.0782,
      "velocity": 95,
      "chip": "ym2612"
    },
    {
      "channel": 3,
      "note": 61,
      "start": 132.6186,
      "duration": 0.0774,
      "velocity": 95,
      "chip": "ym2612"
    },
    {
      "channel": 4,
      "note": 49,
      "start": 132.6195,
      "duration": 0.1726,
      "velocity": 91,
      "chip": "ym2612"
    },
    {
      "channel": 5,
      "note": 52,
      "start": 132.6232,
      "duration": 0.0764,
      "velocity": 122,
      "chip": "ym2612"
    },
    {
      "channel": 5,
      "note": 52,
      "start": 132.7001,
      "duration": 0.0645,
      "velocity": 122,
      "chip": "ym2612"
    },
    {
      "channel": 1,
      "note": 65,
      "start": 132.7597,
      "duration": 0.1739,
      "velocity": 95,
      "chip": "ym2612"
    },
    {
      "channel": 3,
      "note": 61,
      "start": 132.7611,
      "duration": 0.1731,
      "velocity": 95,
      "chip": "ym2612"
    },
    {
      "channel": 5,
      "note": 52,
      "start": 132.7652,
      "duration": 0.1418,
      "velocity": 122,
      "chip": "ym2612"
    },
    {
      "channel": 2,
      "note": 89,
      "start": 132.8078,
      "duration": 1.5074,
      "velocity": 105,
      "chip": "ym2612"
    },
    {
      "channel": 4,
      "note": 49,
      "start": 132.9039,
      "duration": 0.1739,
      "velocity": 91,
      "chip": "ym2612"
    },
    {
      "channel": 5,
      "note": 52,
      "start": 132.9076,
      "duration": 0.1428,
      "velocity": 122,
      "chip": "ym2612"
    },
    {
      "channel": 1,
      "note": 65,
      "start": 133.0454,
      "duration": 0.0785,
      "velocity": 95,
      "chip": "ym2612"
    },
    {
      "channel": 3,
      "note": 61,
      "start": 133.0468,
      "duration": 0.0779,
      "velocity": 95,
      "chip": "ym2612"
    },
    {
      "channel": 5,
      "note": 52,
      "start": 133.051,
      "duration": 0.1426,
      "velocity": 122,
      "chip": "ym2612"
    },
    {
      "channel": 1,
      "note": 77,
      "start": 133.1882,
      "duration": 0.0787,
      "velocity": 95,
      "chip": "ym2612"
    },
    {
      "channel": 3,
      "note": 73,
      "start": 133.1896,
      "duration": 0.078,
      "velocity": 95,
      "chip": "ym2612"
    },
    {
      "channel": 4,
      "note": 49,
      "start": 133.1905,
      "duration": 0.1732,
      "velocity": 91,
      "chip": "ym2612"
    },
    {
      "channel": 5,
      "note": 47,
      "start": 133.1941,
      "duration": 0.077,
      "velocity": 122,
      "chip": "ym2612"
    },
    {
      "channel": 5,
      "note": 47,
      "start": 133.2717,
      "duration": 0.0645,
      "velocity": 122,
      "chip": "ym2612"
    },
    {
      "channel": 1,
      "note": 77,
      "start": 133.3312,
      "duration": 0.2691,
      "velocity": 95,
      "chip": "ym2612"
    },
    {
      "channel": 3,
      "note": 73,
      "start": 133.3326,
      "duration": 0.2683,
      "velocity": 95,
      "chip": "ym2612"
    },
    {
      "channel": 5,
      "note": 47,
      "start": 133.3368,
      "duration": 0.1417,
      "velocity": 122,
      "chip": "ym2612"
    },
    {
      "channel": 4,
      "note": 49,
      "start": 133.4754,
      "duration": 0.1739,
      "velocity": 91,
      "chip": "ym2612"
    },
    {
      "channel": 5,
      "note": 47,
      "start": 133.4791,
      "duration": 0.1419,
      "velocity": 122,
      "chip": "ym2612"
    },
    {
      "channel": 5,
      "note": 47,
      "start": 133.6216,
      "duration": 0.1436,
      "velocity": 122,
      "chip": "ym2612"
    },
    {
      "channel": 1,
      "note": 75,
      "start": 133.7598,
      "duration": 0.1739,
      "velocity": 95,
      "chip": "ym2612"
    },
    {
      "channel": 3,
      "note": 68,
      "start": 133.7612,
      "duration": 0.1731,
      "velocity": 95,
      "chip": "ym2612"
    },
    {
      "channel": 4,
      "note": 61,
      "start": 133.7621,
      "duration": 0.1724,
      "velocity": 91,
      "chip": "ym2612"
    },
    {
      "channel": 5,
      "note": 40,
      "start": 133.7657,
      "duration": 0.0775,
      "velocity": 122,
      "chip": "ym2612"
    },
    {
      "channel": 5,
      "note": 40,
      "start": 133.8438,
      "duration": 0.063,
      "velocity": 122,
      "chip": "ym2612"
    },
    {
      "channel": 5,
      "note": 40,
      "start": 133.9074,
      "duration": 0.1434,
      "velocity": 122,
      "chip": "ym2612"
    },
    {
      "channel": 1,
      "note": 73,
      "start": 134.0455,
      "duration": 0.1739,
      "velocity": 95,
      "chip": "ym2612"
    },
    {
      "channel": 3,
      "note": 68,
      "start": 134.0468,
      "duration": 0.1732,
      "velocity": 95,
      "chip": "ym2612"
    },
    {
      "channel": 4,
      "note": 59,
      "start": 134.0477,
      "duration": 0.1725,
      "velocity": 91,
      "chip": "ym2612"
    },
    {
      "channel": 5,
      "note": 40,
      "start": 134.0513,
      "duration": 0.1412,
      "velocity": 122,
      "chip": "ym2612"
    },
    {
      "channel": 5,
      "note": 40,
      "start": 134.1931,
      "duration": 0.1434,
      "velocity": 127,
      "chip": "ym2612"
    },
    {
      "channel": 1,
      "note": 71,
      "start": 134.3312,
      "duration": 0.1739,
      "velocity": 95,
      "chip": "ym2612"
    },
    {
      "channel": 3,
      "note": 66,
      "start": 134.3326,
      "duration": 0.1732,
      "velocity": 95,
      "chip": "ym2612"
    },
    {
      "channel": 4,
      "note": 58,
      "start": 134.3334,
      "duration": 0.1726,
      "velocity": 91,
      "chip": "ym2612"
    },
    {
      "channel": 5,
      "note": 43,
      "start": 134.3371,
      "duration": 0.0749,
      "velocity": 127,
      "chip": "ym2612"
    },
    {
      "channel": 5,
      "note": 43,
      "start": 134.4125,
      "duration": 0.063,
      "velocity": 127,
      "chip": "ym2612"
    },
    {
      "channel": 5,
      "note": 43,
      "start": 134.4761,
      "duration": 0.1434,
      "velocity": 127,
      "chip": "ym2612"
    },
    {
      "channel": 1,
      "note": 70,
      "start": 134.617,
      "duration": 0.1739,
      "velocity": 95,
      "chip": "ym2612"
    },
    {
      "channel": 3,
      "note": 66,
      "start": 134.6183,
      "duration": 0.1732,
      "velocity": 95,
      "chip": "ym2612"
    },
    {
      "channel": 4,
      "note": 56,
      "start": 134.6192,
      "duration": 0.1724,
      "velocity": 91,
      "chip": "ym2612"
    },
    {
      "channel": 5,
      "note": 43,
      "start": 134.62,
      "duration": 0.1412,
      "velocity": 127,
      "chip": "ym2612"
    },
    {
      "channel": 5,
      "note": 43,
      "start": 134.7618,
      "duration": 0.1531,
      "velocity": 117,
      "chip": "ym2612"
    },
    {
      "channel": 0,
      "note": 90,
      "start": 134.9023,
      "duration": 2.2834,
      "velocity": 105,
      "chip": "ym2612"
    },
    {
      "channel": 1,
      "note": 66,
      "start": 134.9063,
      "duration": 1.5356,
      "velocity": 107,
      "chip": "ym2612"
    },
    {
      "channel": 3,
      "note": 58,
      "start": 134.9108,
      "duration": 1.5317,
      "velocity": 107,
      "chip": "ym2612"
    },
    {
      "channel": 4,
      "note": 54,
      "start": 134.9118,
      "duration": 0.7379,
      "velocity": 91,
      "chip": "ym2612"
    },
    {
      "channel": 5,
      "note": 52,
      "start": 134.9155,
      "duration": 0.1473,
      "velocity": 117,
      "chip": "ym2612"
    },
    {
      "channel": 2,
      "note": 90,
      "start": 135.1097,
      "duration": 2.076,
      "velocity": 105,
      "chip": "ym2612"
    },
    {
      "channel": 4,
      "note": 54,
      "start": 136.0632,
      "duration": 0.2691,
      "velocity": 91,
      "chip": "ym2612"
    },
    {
      "channel": 5,
      "note": 52,
      "start": 136.0641,
      "duration": 0.1419,
      "velocity": 117,
      "chip": "ym2612"
    },
    {
      "channel": 4,
      "note": 58,
      "start": 136.4919,
      "duration": 0.1739,
      "velocity": 91,
      "chip": "ym2612"
    },
    {
      "channel": 4,
      "note": 49,
      "start": 136.7776,
      "duration": 0.0786,
      "velocity": 91,
      "chip": "ym2612"
    },
    {
      "channel": 4,
      "note": 51,
      "start": 136.9205,
      "duration": 0.1739,
      "velocity": 91,
      "chip": "ym2612"
    }
  ]
}