{
  "track_name": "02 - It's the Select Screen!",
  "duration_sec": 34.304,
  "sample_rate": 44100,
  "note_count": 507,
  "unique_pitches": 37,
  "pitch_range": 63,
  "avg_note_duration": 0.2897,
  "reconstruction_stats": {
    "notes_reconstructed": 507,
    "keyon_events": 507,
    "keyoff_events": 501,
    "orphan_keyons": 6,
    "unique_pitches": 37,
    "pitch_range": 63,
    "avg_duration_sec": 0.2897
  },
  "metadata": {
    "source": "P\\Puyo Puyo Tsuu\\02 - It's the Select Screen!.vgz"
  },
  "notes": [
    {
      "channel": 4,
      "note": 48,
      "start": 0.0227,
      "duration": 0.299,
      "velocity": 127,
      "chip": "ym2612"
    },
    {
      "channel": 3,
      "note": 79,
      "start": 0.0234,
      "duration": 0.2986,
      "velocity": 85,
      "chip": "ym2612"
    },
    {
      "channel": 2,
      "note": 82,
      "start": 0.0241,
      "duration": 0.2983,
      "velocity": 85,
      "chip": "ym2612"
    },
    {
      "channel": 1,
      "note": 63,
      "start": 0.0248,
      "duration": 0.2979,
      "velocity": 104,
      "chip": "ym2612"
    },
    {
      "channel": 0,
      "note": 70,
      "start": 0.0256,
      "duration": 0.2975,
      "velocity": 87,
      "chip": "ym2612"
    },
    {
      "channel": 5,
      "note": 70,
      "start": 0.1716,
      "duration": 0.3162,
      "velocity": 87,
      "chip": "ym2612"
    },
    {
      "channel": 4,
      "note": 36,
      "start": 0.3217,
      "duration": 0.1668,
      "velocity": 125,
      "chip": "ym2612"
    },
    {
      "channel": 3,
      "note": 87,
      "start": 0.322,
      "duration": 0.1668,
      "velocity": 85,
      "chip": "ym2612"
    },
    {
      "channel": 2,
      "note": 91,
      "start": 0.3224,
      "duration": 0.1668,
      "velocity": 85,
      "chip": "ym2612"
    },
    {
      "channel": 1,
      "note": 60,
      "start": 0.3227,
      "duration": 0.1668,
      "velocity": 104,
      "chip": "ym2612"
    },
    {
      "channel": 0,
      "note": 72,
      "start": 0.323,
      "duration": 0.1668,
      "velocity": 87,
      "chip": "ym2612"
    },
    {
      "channel": 5,
      "note": 72,
      "start": 0.4878,
      "duration": 0.15,
      "velocity": 87,
      "chip": "ym2612"
    },
    {
      "channel": 4,
      "note": 57,
      "start": 0.4885,
      "duration": 0.3165,
      "velocity": 122,
      "chip": "ym2612"
    },
    {
      "channel": 3,
      "note": 79,
      "start": 0.4889,
      "duration": 0.3165,
      "velocity": 85,
      "chip": "ym2612"
    },
    {
      "channel": 2,
      "note": 82,
      "start": 0.4892,
      "duration": 0.3165,
      "velocity": 85,
      "chip": "ym2612"
    },
    {
      "channel": 1,
      "note": 63,
      "start": 0.4895,
      "duration": 0.3165,
      "velocity": 104,
      "chip": "ym2612"
    },
    {
      "channel": 0,
      "note": 70,
      "start": 0.4898,
      "duration": 0.3165,
      "velocity": 87,
      "chip": "ym2612"
    },
    {
      "channel": 5,
      "note": 70,
      "start": 0.6378,
      "duration": 0.3167,
      "velocity": 87,
      "chip": "ym2612"
    },
    {
      "channel": 4,
      "note": 48,
      "start": 0.8051,
      "duration": 0.1501,
      "velocity": 127,
      "chip": "ym2612"
    },
    {
      "channel": 3,
      "note": 84,
      "start": 0.8054,
      "duration": 0.4666,
      "velocity": 85,
      "chip": "ym2612"
    },
    {
      "channel": 2,
      "note": 87,
      "start": 0.8057,
      "duration": 0.4666,
      "velocity": 85,
      "chip": "ym2612"
    },
    {
      "channel": 1,
      "note": 65,
      "start": 0.806,
      "duration": 0.4666,
      "velocity": 104,
      "chip": "ym2612"
    },
    {
      "channel": 0,
      "note": 69,
      "start": 0.8063,
      "duration": 0.1498,
      "velocity": 87,
      "chip": "ym2612"
    },
    {
      "channel": 5,
      "note": 69,
      "start": 0.9545,
      "duration": 0.1677,
      "velocity": 87,
      "chip": "ym2612"
    },
    {
      "channel": 4,
      "note": 36,
      "start": 0.9552,
      "duration": 0.3164,
      "velocity": 122,
      "chip": "ym2612"
    },
    {
      "channel": 4,
      "note": 48,
      "start": 1.2716,
      "duration": 0.1669,
      "velocity": 125,
      "chip": "ym2612"
    },
    {
      "channel": 3,
      "note": 77,
      "start": 1.2719,
      "duration": 0.1669,
      "velocity": 85,
      "chip": "ym2612"
    },
    {
      "channel": 2,
      "note": 81,
      "start": 1.2722,
      "duration": 0.1669,
      "velocity": 85,
      "chip": "ym2612"
    },
    {
      "channel": 1,
      "note": 60,
      "start": 1.2726,
      "duration": 0.4833,
      "velocity": 104,
      "chip": "ym2612"
    },
    {
      "channel": 0,
      "note": 77,
      "start": 1.2729,
      "duration": 0.1668,
      "velocity": 87,
      "chip": "ym2612"
    },
    {
      "channel": 5,
      "note": 77,
      "start": 1.4378,
      "duration": 0.151,
      "velocity": 87,
      "chip": "ym2612"
    },
    {
      "channel": 4,
      "note": 57,
      "start": 1.4385,
      "duration": 0.3164,
      "velocity": 122,
      "chip": "ym2612"
    },
    {
      "channel": 3,
      "note": 84,
      "start": 1.4388,
      "duration": 0.3164,
      "velocity": 85,
      "chip": "ym2612"
    },
    {
      "channel": 2,
      "note": 87,
      "start": 1.4392,
      "duration": 0.3164,
      "velocity": 85,
      "chip": "ym2612"
    },
    {
      "channel": 4,
      "note": 48,
      "start": 1.7549,
      "duration": 0.1502,
      "velocity": 127,
      "chip": "ym2612"
    },
    {
      "channel": 3,
      "note": 83,
      "start": 1.7553,
      "duration": 0.4668,
      "velocity": 85,
      "chip": "ym2612"
    },
    {
      "channel": 2,
      "note": 87,
      "start": 1.7556,
      "duration": 0.4668,
      "velocity": 85,
      "chip": "ym2612"
    },
    {
      "channel": 1,
      "note": 59,
      "start": 1.7559,
      "duration": 0.4668,
      "velocity": 104,
      "chip": "ym2612"
    },
    {
      "channel": 0,
      "note": 68,
      "start": 1.7562,
      "duration": 0.4668,
      "velocity": 87,
      "chip": "ym2612"
    },
    {
      "channel": 5,
      "note": 68,
      "start": 1.9045,
      "duration": 0.4833,
      "velocity": 87,
      "chip": "ym2612"
    },
    {
      "channel": 4,
      "note": 36,
      "start": 1.9051,
      "duration": 0.3166,
      "velocity": 122,
      "chip": "ym2612"
    },
    {
      "channel": 4,
      "note": 48,
      "start": 2.2217,
      "duration": 0.1668,
      "velocity": 125,
      "chip": "ym2612"
    },
    {
      "channel": 3,
      "note": 77,
      "start": 2.2221,
      "duration": 0.1668,
      "velocity": 85,
      "chip": "ym2612"
    },
    {
      "channel": 2,
      "note": 80,
      "start": 2.2224,
      "duration": 0.1668,
      "velocity": 85,
      "chip": "ym2612"
    },
    {
      "channel": 1,
      "note": 67,
      "start": 2.2227,
      "duration": 0.1668,
      "velocity": 104,
      "chip": "ym2612"
    },
    {
      "channel": 0,
      "note": 70,
      "start": 2.223,
      "duration": 0.1668,
      "velocity": 87,
      "chip": "ym2612"
    },
    {
      "channel": 5,
      "note": 70,
      "start": 2.3878,
      "duration": 0.15,
      "velocity": 87,
      "chip": "ym2612"
    },
    {
      "channel": 4,
      "note": 57,
      "start": 2.3885,
      "duration": 0.3165,
      "velocity": 122,
      "chip": "ym2612"
    },
    {
      "channel": 3,
      "note": 83,
      "start": 2.3889,
      "duration": 0.3165,
      "velocity": 85,
      "chip": "ym2612"
    },
    {
      "channel": 2,
      "note": 87,
      "start": 2.3892,
      "duration": 0.3165,
      "velocity": 85,
      "chip": "ym2612"
    },
    {
      "channel": 1,
      "note": 65,
      "start": 2.3895,
      "duration": 0.3165,
      "velocity": 104,
      "chip": "ym2612"
    },
    {
      "channel": 0,
      "note": 68,
      "start": 2.3898,
      "duration": 0.3165,
      "velocity": 87,
      "chip": "ym2612"
    },
    {
      "channel": 5,
      "note": 68,
      "start": 2.5378,
      "duration": 0.3167,
      "velocity": 87,
      "chip": "ym2612"
    },
    {
      "channel": 4,
      "note": 48,
      "start": 2.7051,
      "duration": 0.1501,
      "velocity": 127,
      "chip": "ym2612"
    },
    {
      "channel": 3,
      "note": 87,
      "start": 2.7054,
      "duration": 0.4666,
      "velocity": 85,
      "chip": "ym2612"
    },
    {
      "channel": 2,
      "note": 91,
      "start": 2.7057,
      "duration": 0.4665,
      "velocity": 85,
      "chip": "ym2612"
    },
    {
      "channel": 1,
      "note": 63,
      "start": 2.706,
      "duration": 0.4666,
      "velocity": 104,
      "chip": "ym2612"
    },
    {
      "channel": 0,
      "note": 67,
      "start": 2.7063,
      "duration": 0.1498,
      "velocity": 87,
      "chip": "ym2612"
    },
    {
      "channel": 5,
      "note": 67,
      "start": 2.8545,
      "duration": 0.1677,
      "velocity": 87,
      "chip": "ym2612"
    },
    {
      "channel": 4,
      "note": 36,
      "start": 2.8552,
      "duration": 0.3164,
      "velocity": 122,
      "chip": "ym2612"
    },
    {
      "channel": 4,
      "note": 48,
      "start": 3.1716,
      "duration": 0.1669,
      "velocity": 125,
      "chip": "ym2612"
    },
    {
      "channel": 3,
      "note": 79,
      "start": 3.1719,
      "duration": 0.4833,
      "velocity": 85,
      "chip": "ym2612"
    },
    {
      "channel": 2,
      "note": 82,
      "start": 3.1722,
      "duration": 0.4833,
      "velocity": 85,
      "chip": "ym2612"
    },
    {
      "channel": 1,
      "note": 60,
      "start": 3.1726,
      "duration": 0.4833,
      "velocity": 104,
      "chip": "ym2612"
    },
    {
      "channel": 0,
      "note": 75,
      "start": 3.1729,
      "duration": 0.1666,
      "velocity": 87,
      "chip": "ym2612"
    },
    {
      "channel": 5,
      "note": 75,
      "start": 3.3378,
      "duration": 0.151,
      "velocity": 87,
      "chip": "ym2612"
    },
    {
      "channel": 4,
      "note": 57,
      "start": 3.3385,
      "duration": 0.3164,
      "velocity": 127,
      "chip": "ym2612"
    },
    {
      "channel": 4,
      "note": 36,
      "start": 3.6549,
      "duration": 0.1502,
      "velocity": 122,
      "chip": "ym2612"
    },
    {
      "channel": 3,
      "note": 79,
      "start": 3.6552,
      "duration": 0.1502,
      "velocity": 85,
      "chip": "ym2612"
    },
    {
      "channel": 2,
      "note": 82,
      "start": 3.6556,
      "duration": 0.1502,
      "velocity": 85,
      "chip": "ym2612"
    },
    {
      "channel": 1,
      "note": 58,
      "start": 3.6559,
      "duration": 0.1502,
      "velocity": 104,
      "chip": "ym2612"
    },
    {
      "channel": 0,
      "note": 63,
      "start": 3.6562,
      "duration": 0.1502,
      "velocity": 87,
      "chip": "ym2612"
    },
    {
      "channel": 5,
      "note": 63,
      "start": 3.8045,
      "duration": 0.1667,
      "velocity": 87,
      "chip": "ym2612"
    },
    {
      "channel": 4,
      "note": 48,
      "start": 3.8052,
      "duration": 0.3166,
      "velocity": 127,
      "chip": "ym2612"
    },
    {
      "channel": 3,
      "note": 79,
      "start": 3.8055,
      "duration": 0.3166,
      "velocity": 85,
      "chip": "ym2612"
    },
    {
      "channel": 2,
      "note": 82,
      "start": 3.8058,
      "duration": 0.3166,
      "velocity": 85,
      "chip": "ym2612"
    },
    {
      "channel": 1,
      "note": 63,
      "start": 3.8061,
      "duration": 0.3166,
      "velocity": 104,
      "chip": "ym2612"
    },
    {
      "channel": 0,
      "note": 70,
      "start": 3.8065,
      "duration": 0.3166,
      "velocity": 87,
      "chip": "ym2612"
    },
    {
      "channel": 5,
      "note": 70,
      "start": 3.9711,
      "duration": 0.3167,
      "velocity": 87,
      "chip": "ym2612"
    },
    {
      "channel": 4,
      "note": 36,
      "start": 4.1217,
      "duration": 0.1668,
      "velocity": 125,
      "chip": "ym2612"
    },
    {
      "channel": 3,
      "note": 87,
      "start": 4.122,
      "duration": 0.1668,
      "velocity": 85,
      "chip": "ym2612"
    },
    {
      "channel": 2,
      "note": 91,
      "start": 4.1224,
      "duration": 0.1668,
      "velocity": 85,
      "chip": "ym2612"
    },
    {
      "channel": 1,
      "note": 60,
      "start": 4.1227,
      "duration": 0.1668,
      "velocity": 104,
      "chip": "ym2612"
    },
    {
      "channel": 0,
      "note": 72,
      "start": 4.123,
      "duration": 0.1668,
      "velocity": 87,
      "chip": "ym2612"
    },
    {
      "channel": 5,
      "note": 72,
      "start": 4.2878,
      "duration": 0.15,
      "velocity": 87,
      "chip": "ym2612"
    },
    {
      "channel": 4,
      "note": 57,
      "start": 4.2885,
      "duration": 0.2999,
      "velocity": 122,
      "chip": "ym2612"
    },
    {
      "channel": 3,
      "note": 79,
      "start": 4.2889,
      "duration": 0.2998,
      "velocity": 85,
      "chip": "ym2612"
    },
    {
      "channel": 2,
      "note": 82,
      "start": 4.2892,
      "duration": 0.2998,
      "velocity": 85,
      "chip": "ym2612"
    },
    {
      "channel": 1,
      "note": 63,
      "start": 4.2895,
      "duration": 0.2999,
      "velocity": 104,
      "chip": "ym2612"
    },
    {
      "channel": 0,
      "note": 70,
      "start": 4.2898,
      "duration": 0.2999,
      "velocity": 87,
      "chip": "ym2612"
    },
    {
      "channel": 5,
      "note": 70,
      "start": 4.4378,
      "duration": 0.3167,
      "velocity": 87,
      "chip": "ym2612"
    },
    {
      "channel": 4,
      "note": 48,
      "start": 4.5884,
      "duration": 0.1667,
      "velocity": 127,
      "chip": "ym2612"
    },
    {
      "channel": 3,
      "note": 84,
      "start": 4.5887,
      "duration": 0.4832,
      "velocity": 85,
      "chip": "ym2612"
    },
    {
      "channel": 2,
      "note": 87,
      "start": 4.589,
      "duration": 0.4832,
      "velocity": 85,
      "chip": "ym2612"
    },
    {
      "channel": 1,
      "note": 65,
      "start": 4.5894,
      "duration": 0.4832,
      "velocity": 104,
      "chip": "ym2612"
    },
    {
      "channel": 0,
      "note": 69,
      "start": 4.5897,
      "duration": 0.1664,
      "velocity": 87,
      "chip": "ym2612"
    },
    {
      "channel": 5,
      "note": 69,
      "start": 4.7545,
      "duration": 0.151,
      "velocity": 87,
      "chip": "ym2612"
    },
    {
      "channel": 4,
      "note": 36,
      "start": 4.7552,
      "duration": 0.3164,
      "velocity": 122,
      "chip": "ym2612"
    },
    {
      "channel": 4,
      "note": 48,
      "start": 5.0716,
      "duration": 0.1502,
      "velocity": 125,
      "chip": "ym2612"
    },
    {
      "channel": 3,
      "note": 77,
      "start": 5.0719,
      "duration": 0.1502,
      "velocity": 85,
      "chip": "ym2612"
    },
    {
      "channel": 2,
      "note": 81,
      "start": 5.0722,
      "duration": 0.1502,
      "velocity": 85,
      "chip": "ym2612"
    },
    {
      "channel": 1,
      "note": 60,
      "start": 5.0726,
      "duration": 0.4667,
      "velocity": 104,
      "chip": "ym2612"
    },
    {
      "channel": 0,
      "note": 77,
      "start": 5.0729,
      "duration": 0.1502,
      "velocity": 87,
      "chip": "ym2612"
    },
    {
      "channel": 5,
      "note": 77,
      "start": 5.2211,
      "duration": 0.1677,
      "velocity": 87,
      "chip": "ym2612"
    },
    {
      "channel": 4,
      "note": 57,
      "start": 5.2219,
      "duration": 0.3164,
      "velocity": 122,
      "chip": "ym2612"
    },
    {
      "channel": 3,
      "note": 84,
      "start": 5.2222,
      "duration": 0.3164,
      "velocity": 85,
      "chip": "ym2612"
    },
    {
      "channel": 2,
      "note": 87,
      "start": 5.2225,
      "duration": 0.3164,
      "velocity": 85,
      "chip": "ym2612"
    },
    {
      "channel": 4,
      "note": 48,
      "start": 5.5383,
      "duration": 0.1669,
      "velocity": 127,
      "chip": "ym2612"
    },
    {
      "channel": 3,
      "note": 83,
      "start": 5.5386,
      "duration": 0.4834,
      "velocity": 85,
      "chip": "ym2612"
    },
    {
      "channel": 2,
      "note": 87,
      "start": 5.5389,
      "duration": 0.4834,
      "velocity": 85,
      "chip": "ym2612"
    },
    {
      "channel": 1,
      "note": 59,
      "start": 5.5392,
      "duration": 0.4835,
      "velocity": 104,
      "chip": "ym2612"
    },
    {
      "channel": 0,
      "note": 68,
      "start": 5.5396,
      "duration": 0.4835,
      "velocity": 87,
      "chip": "ym2612"
    },
    {
      "channel": 5,
      "note": 68,
      "start": 5.7045,
      "duration": 0.4667,
      "velocity": 87,
      "chip": "ym2612"
    },
    {
      "channel": 4,
      "note": 36,
      "start": 5.7051,
      "duration": 0.3166,
      "velocity": 122,
      "chip": "ym2612"
    },
    {
      "channel": 4,
      "note": 48,
      "start": 6.0217,
      "duration": 0.1501,
      "velocity": 125,
      "chip": "ym2612"
    },
    {
      "channel": 3,
      "note": 77,
      "start": 6.0221,
      "duration": 0.1501,
      "velocity": 85,
      "chip": "ym2612"
    },
    {
      "channel": 2,
      "note": 80,
      "start": 6.0224,
      "duration": 0.1501,
      "velocity": 85,
      "chip": "ym2612"
    },
    {
      "channel": 1,
      "note": 67,
      "start": 6.0227,
      "duration": 0.1501,
      "velocity": 104,
      "chip": "ym2612"
    },
    {
      "channel": 0,
      "note": 70,
      "start": 6.023,
      "duration": 0.1501,
      "velocity": 87,
      "chip": "ym2612"
    },
    {
      "channel": 5,
      "note": 70,
      "start": 6.1711,
      "duration": 0.1667,
      "velocity": 87,
      "chip": "ym2612"
    },
    {
      "channel": 4,
      "note": 57,
      "start": 6.1719,
      "duration": 0.3162,
      "velocity": 125,
      "chip": "ym2612"
    },
    {
      "channel": 3,
      "note": 83,
      "start": 6.1722,
      "duration": 0.3162,
      "velocity": 85,
      "chip": "ym2612"
    },
    {
      "channel": 2,
      "note": 87,
      "start": 6.1725,
      "duration": 0.3162,
      "velocity": 85,
      "chip": "ym2612"
    },
    {
      "channel": 1,
      "note": 65,
      "start": 6.1728,
      "duration": 0.3162,
      "velocity": 104,
      "chip": "ym2612"
    },
    {
      "channel": 0,
      "note": 68,
      "start": 6.1732,
      "duration": 0.3162,
      "velocity": 87,
      "chip": "ym2612"
    },
    {
      "channel": 5,
      "note": 68,
      "start": 6.3378,
      "duration": 0.3167,
      "velocity": 87,
      "chip": "ym2612"
    },
    {
      "channel": 4,
      "note": 57,
      "start": 6.488,
      "duration": 0.6336,
      "velocity": 122,
      "chip": "ym2612"
    },
    {
      "channel": 3,
      "note": 87,
      "start": 6.4884,
      "duration": 0.6336,
      "velocity": 85,
      "chip": "ym2612"
    },
    {
      "channel": 2,
      "note": 91,
      "start": 6.4887,
      "duration": 0.6335,
      "velocity": 85,
      "chip": "ym2612"
    },
    {
      "channel": 1,
      "note": 63,
      "start": 6.489,
      "duration": 0.1666,
      "velocity": 104,
      "chip": "ym2612"
    },
    {
      "channel": 0,
      "note": 67,
      "start": 6.4893,
      "duration": 0.1663,
      "velocity": 87,
      "chip": "ym2612"
    },
    {
      "channel": 5,
      "note": 67,
      "start": 6.6545,
      "duration": 0.1509,
      "velocity": 87,
      "chip": "ym2612"
    },
    {
      "channel": 4,
      "note": 48,
      "start": 7.1216,
      "duration": 0.4829,
      "velocity": 122,
      "chip": "ym2612"
    },
    {
      "channel": 3,
      "note": 74,
      "start": 7.1219,
      "duration": 0.4829,
      "velocity": 85,
      "chip": "ym2612"
    },
    {
      "channel": 2,
      "note": 78,
      "start": 7.1222,
      "duration": 0.4829,
      "velocity": 85,
      "chip": "ym2612"
    },
    {
      "channel": 1,
      "note": 58,
      "start": 7.1226,
      "duration": 0.4829,
      "velocity": 104,
      "chip": "ym2612"
    },
    {
      "channel": 4,
      "note": 48,
      "start": 7.6046,
      "duration": 0.3171,
      "velocity": 127,
      "chip": "ym2612"
    },
    {
      "channel": 3,
      "note": 79,
      "start": 7.6049,
      "duration": 0.3171,
      "velocity": 85,
      "chip": "ym2612"
    },
    {
      "channel": 2,
      "note": 82,
      "start": 7.6052,
      "duration": 0.3171,
      "velocity": 85,
      "chip": "ym2612"
    },
    {
      "channel": 1,
      "note": 63,
      "start": 7.6055,
      "duration": 0.3172,
      "velocity": 104,
      "chip": "ym2612"
    },
    {
      "channel": 0,
      "note": 70,
      "start": 7.6059,
      "duration": 0.3171,
      "velocity": 87,
      "chip": "ym2612"
    },
    {
      "channel": 5,
      "note": 70,
      "start": 7.7545,
      "duration": 0.3166,
      "velocity": 87,
      "chip": "ym2612"
    },
    {
      "channel": 4,
      "note": 36,
      "start": 7.9217,
      "duration": 0.1502,
      "velocity": 125,
      "chip": "ym2612"
    },
    {
      "channel": 3,
      "note": 87,
      "start": 7.922,
      "duration": 0.1502,
      "velocity": 85,
      "chip": "ym2612"
    },
    {
      "channel": 2,
      "note": 91,
      "start": 7.9223,
      "duration": 0.1502,
      "velocity": 85,
      "chip": "ym2612"
    },
    {
      "channel": 1,
      "note": 60,
      "start": 7.9227,
      "duration": 0.1502,
      "velocity": 104,
      "chip": "ym2612"
    },
    {
      "channel": 0,
      "note": 72,
      "start": 7.923,
      "duration": 0.1502,
      "velocity": 87,
      "chip": "ym2612"
    },
    {
      "channel": 5,
      "note": 72,
      "start": 8.0711,
      "duration": 0.1667,
      "velocity": 87,
      "chip": "ym2612"
    },
    {
      "channel": 4,
      "note": 57,
      "start": 8.0719,
      "duration": 0.3165,
      "velocity": 122,
      "chip": "ym2612"
    },
    {
      "channel": 3,
      "note": 79,
      "start": 8.0722,
      "duration": 0.3165,
      "velocity": 85,
      "chip": "ym2612"
    },
    {
      "channel": 2,
      "note": 82,
      "start": 8.0725,
      "duration": 0.3165,
      "velocity": 85,
      "chip": "ym2612"
    },
    {
      "channel": 1,
      "note": 63,
      "start": 8.0728,
      "duration": 0.3165,
      "velocity": 104,
      "chip": "ym2612"
    },
    {
      "channel": 0,
      "note": 70,
      "start": 8.0732,
      "duration": 0.3165,
      "velocity": 87,
      "chip": "ym2612"
    },
    {
      "channel": 5,
      "note": 70,
      "start": 8.2378,
      "duration": 0.3167,
      "velocity": 87,
      "chip": "ym2612"
    },
    {
      "channel": 4,
      "note": 48,
      "start": 8.3884,
      "duration": 0.1667,
      "velocity": 127,
      "chip": "ym2612"
    },
    {
      "channel": 3,
      "note": 84,
      "start": 8.3887,
      "duration": 0.4665,
      "velocity": 85,
      "chip": "ym2612"
    },
    {
      "channel": 2,
      "note": 87,
      "start": 8.389,
      "duration": 0.4666,
      "velocity": 85,
      "chip": "ym2612"
    },
    {
      "channel": 1,
      "note": 65,
      "start": 8.3894,
      "duration": 0.4665,
      "velocity": 104,
      "chip": "ym2612"
    },
    {
      "channel": 0,
      "note": 69,
      "start": 8.3897,
      "duration": 0.1664,
      "velocity": 87,
      "chip": "ym2612"
    },
    {
      "channel": 5,
      "note": 69,
      "start": 8.5545,
      "duration": 0.151,
      "velocity": 87,
      "chip": "ym2612"
    },
    {
      "channel": 4,
      "note": 36,
      "start": 8.5552,
      "duration": 0.2998,
      "velocity": 122,
      "chip": "ym2612"
    },
    {
      "channel": 4,
      "note": 48,
      "start": 8.8549,
      "duration": 0.1669,
      "velocity": 125,
      "chip": "ym2612"
    },
    {
      "channel": 3,
      "note": 77,
      "start": 8.8553,
      "duration": 0.1669,
      "velocity": 85,
      "chip": "ym2612"
    },
    {
      "channel": 2,
      "note": 81,
      "start": 8.8556,
      "duration": 0.1669,
      "velocity": 85,
      "chip": "ym2612"
    },
    {
      "channel": 1,
      "note": 60,
      "start": 8.8559,
      "duration": 0.4833,
      "velocity": 104,
      "chip": "ym2612"
    },
    {
      "channel": 0,
      "note": 77,
      "start": 8.8562,
      "duration": 0.1668,
      "velocity": 87,
      "chip": "ym2612"
    },
    {
      "channel": 5,
      "note": 77,
      "start": 9.0211,
      "duration": 0.151,
      "velocity": 87,
      "chip": "ym2612"
    },
    {
      "channel": 4,
      "note": 57,
      "start": 9.0219,
      "duration": 0.3164,
      "velocity": 122,
      "chip": "ym2612"
    },
    {
      "channel": 3,
      "note": 84,
      "start": 9.0222,
      "duration": 0.3164,
      "velocity": 85,
      "chip": "ym2612"
    },
    {
      "channel": 2,
      "note": 87,
      "start": 9.0225,
      "duration": 0.3164,
      "velocity": 85,
      "chip": "ym2612"
    },
    {
      "channel": 4,
      "note": 48,
      "start": 9.3383,
      "duration": 0.1502,
      "velocity": 127,
      "chip": "ym2612"
    },
    {
      "channel": 3,
      "note": 83,
      "start": 9.3386,
      "duration": 0.4668,
      "velocity": 85,
      "chip": "ym2612"
    },
    {
      "channel": 2,
      "note": 87,
      "start": 9.3389,
      "duration": 0.4668,
      "velocity": 85,
      "chip": "ym2612"
    },
    {
      "channel": 1,
      "note": 59,
      "start": 9.3392,
      "duration": 0.4668,
      "velocity": 104,
      "chip": "ym2612"
    },
    {
      "channel": 0,
      "note": 68,
      "start": 9.3395,
      "duration": 0.4668,
      "velocity": 87,
      "chip": "ym2612"
    },
    {
      "channel": 5,
      "note": 68,
      "start": 9.4878,
      "duration": 0.4833,
      "velocity": 87,
      "chip": "ym2612"
    },
    {
      "channel": 4,
      "note": 36,
      "start": 9.4885,
      "duration": 0.3166,
      "velocity": 122,
      "chip": "ym2612"
    },
    {
      "channel": 4,
      "note": 48,
      "start": 9.8051,
      "duration": 0.1668,
      "velocity": 125,
      "chip": "ym2612"
    },
    {
      "channel": 3,
      "note": 77,
      "start": 9.8054,
      "duration": 0.1668,
      "velocity": 85,
      "chip": "ym2612"
    },
    {
      "channel": 2,
      "note": 80,
      "start": 9.8057,
      "duration": 0.1668,
      "velocity": 85,
      "chip": "ym2612"
    },
    {
      "channel": 1,
      "note": 67,
      "start": 9.806,
      "duration": 0.1668,
      "velocity": 104,
      "chip": "ym2612"
    },
    {
      "channel": 0,
      "note": 70,
      "start": 9.8064,
      "duration": 0.1668,
      "velocity": 87,
      "chip": "ym2612"
    },
    {
      "channel": 5,
      "note": 70,
      "start": 9.9711,
      "duration": 0.15,
      "velocity": 87,
      "chip": "ym2612"
    },
    {
      "channel": 4,
      "note": 57,
      "start": 9.9719,
      "duration": 0.3165,
      "velocity": 122,
      "chip": "ym2612"
    },
    {
      "channel": 3,
      "note": 83,
      "start": 9.9722,
      "duration": 0.3165,
      "velocity": 85,
      "chip": "ym2612"
    },
    {
      "channel": 2,
      "note": 87,
      "start": 9.9725,
      "duration": 0.3165,
      "velocity": 85,
      "chip": "ym2612"
    },
    {
      "channel": 1,
      "note": 65,
      "start": 9.9728,
      "duration": 0.3165,
      "velocity": 104,
      "chip": "ym2612"
    },
    {
      "channel": 0,
      "note": 68,
      "start": 9.9732,
      "duration": 0.3165,
      "velocity": 87,
      "chip": "ym2612"
    },
    {
      "channel": 5,
      "note": 68,
      "start": 10.1211,
      "duration": 0.3167,
      "velocity": 87,
      "chip": "ym2612"
    },
    {
      "channel": 4,
      "note": 48,
      "start": 10.2884,
      "duration": 0.1501,
      "velocity": 127,
      "chip": "ym2612"
    },
    {
      "channel": 3,
      "note": 87,
      "start": 10.2887,
      "duration": 0.4665,
      "velocity": 85,
      "chip": "ym2612"
    },
    {
      "channel": 2,
      "note": 91,
      "start": 10.289,
      "duration": 0.4665,
      "velocity": 85,
      "chip": "ym2612"
    },
    {
      "channel": 1,
      "note": 63,
      "start": 10.2893,
      "duration": 0.4666,
      "velocity": 104,
      "chip": "ym2612"
    },
    {
      "channel": 0,
      "note": 67,
      "start": 10.2897,
      "duration": 0.1498,
      "velocity": 87,
      "chip": "ym2612"
    },
    {
      "channel": 5,
      "note": 67,
      "start": 10.4378,
      "duration": 0.1677,
      "velocity": 87,
      "chip": "ym2612"
    },
    {
      "channel": 4,
      "note": 36,
      "start": 10.4385,
      "duration": 0.3164,
      "velocity": 122,
      "chip": "ym2612"
    },
    {
      "channel": 4,
      "note": 48,
      "start": 10.7549,
      "duration": 0.1669,
      "velocity": 125,
      "chip": "ym2612"
    },
    {
      "channel": 3,
      "note": 79,
      "start": 10.7553,
      "duration": 0.4833,
      "velocity": 85,
      "chip": "ym2612"
    },
    {
      "channel": 2,
      "note": 82,
      "start": 10.7556,
      "duration": 0.4833,
      "velocity": 85,
      "chip": "ym2612"
    },
    {
      "channel": 1,
      "note": 60,
      "start": 10.7559,
      "duration": 0.4833,
      "velocity": 104,
      "chip": "ym2612"
    },
    {
      "channel": 0,
      "note": 75,
      "start": 10.7562,
      "duration": 0.1666,
      "velocity": 87,
      "chip": "ym2612"
    },
    {
      "channel": 5,
      "note": 75,
      "start": 10.9211,
      "duration": 0.151,
      "velocity": 87,
      "chip": "ym2612"
    },
    {
      "channel": 4,
      "note": 57,
      "start": 10.9219,
      "duration": 0.3164,
      "velocity": 127,
      "chip": "ym2612"
    },
    {
      "channel": 4,
      "note": 36,
      "start": 11.2383,
      "duration": 0.1502,
      "velocity": 122,
      "chip": "ym2612"
    },
    {
      "channel": 3,
      "note": 79,
      "start": 11.2386,
      "duration": 0.1502,
      "velocity": 85,
      "chip": "ym2612"
    },
    {
      "channel": 2,
      "note": 82,
      "start": 11.2389,
      "duration": 0.1502,
      "velocity": 85,
      "chip": "ym2612"
    },
    {
      "channel": 1,
      "note": 58,
      "start": 11.2392,
      "duration": 0.1502,
      "velocity": 104,
      "chip": "ym2612"
    },
    {
      "channel": 0,
      "note": 63,
      "start": 11.2395,
      "duration": 0.1502,
      "velocity": 87,
      "chip": "ym2612"
    },
    {
      "channel": 5,
      "note": 63,
      "start": 11.3878,
      "duration": 0.1667,
      "velocity": 87,
      "chip": "ym2612"
    },
    {
      "channel": 4,
      "note": 48,
      "start": 11.3885,
      "duration": 0.3166,
      "velocity": 127,
      "chip": "ym2612"
    },
    {
      "channel": 3,
      "note": 79,
      "start": 11.3888,
      "duration": 0.3166,
      "velocity": 85,
      "chip": "ym2612"
    },
    {
      "channel": 2,
      "note": 82,
      "start": 11.3891,
      "duration": 0.3166,
      "velocity": 85,
      "chip": "ym2612"
    },
    {
      "channel": 1,
      "note": 63,
      "start": 11.3895,
      "duration": 0.3166,
      "velocity": 104,
      "chip": "ym2612"
    },
    {
      "channel": 0,
      "note": 70,
      "start": 11.3898,
      "duration": 0.3166,
      "velocity": 87,
      "chip": "ym2612"
    },
    {
      "channel": 5,
      "note": 70,
      "start": 11.5545,
      "duration": 0.3167,
      "velocity": 87,
      "chip": "ym2612"
    },
    {
      "channel": 4,
      "note": 36,
      "start": 11.7051,
      "duration": 0.1668,
      "velocity": 125,
      "chip": "ym2612"
    },
    {
      "channel": 3,
      "note": 87,
      "start": 11.7054,
      "duration": 0.1668,
      "velocity": 85,
      "chip": "ym2612"
    },
    {
      "channel": 2,
      "note": 91,
      "start": 11.7057,
      "duration": 0.1668,
      "velocity": 85,
      "chip": "ym2612"
    },
    {
      "channel": 1,
      "note": 60,
      "start": 11.706,
      "duration": 0.1668,
      "velocity": 104,
      "chip": "ym2612"
    },
    {
      "channel": 0,
      "note": 72,
      "start": 11.7063,
      "duration": 0.1668,
      "velocity": 87,
      "chip": "ym2612"
    },
    {
      "channel": 5,
      "note": 72,
      "start": 11.8711,
      "duration": 0.15,
      "velocity": 87,
      "chip": "ym2612"
    },
    {
      "channel": 4,
      "note": 57,
      "start": 11.8719,
      "duration": 0.3165,
      "velocity": 122,
      "chip": "ym2612"
    },
    {
      "channel": 3,
      "note": 79,
      "start": 11.8722,
      "duration": 0.3165,
      "velocity": 85,
      "chip": "ym2612"
    },
    {
      "channel": 2,
      "note": 82,
      "start": 11.8725,
      "duration": 0.3165,
      "velocity": 85,
      "chip": "ym2612"
    },
    {
      "channel": 1,
      "note": 63,
      "start": 11.8728,
      "duration": 0.3165,
      "velocity": 104,
      "chip": "ym2612"
    },
    {
      "channel": 0,
      "note": 70,
      "start": 11.8732,
      "duration": 0.3165,
      "velocity": 87,
      "chip": "ym2612"
    },
    {
      "channel": 5,
      "note": 70,
      "start": 12.0211,
      "duration": 0.3167,
      "velocity": 87,
      "chip": "ym2612"
    },
    {
      "channel": 4,
      "note": 48,
      "start": 12.1884,
      "duration": 0.1501,
      "velocity": 127,
      "chip": "ym2612"
    },
    {
      "channel": 3,
      "note": 84,
      "start": 12.1887,
      "duration": 0.4666,
      "velocity": 85,
      "chip": "ym2612"
    },
    {
      "channel": 2,
      "note": 87,
      "start": 12.189,
      "duration": 0.4666,
      "velocity": 85,
      "chip": "ym2612"
    },
    {
      "channel": 1,
      "note": 65,
      "start": 12.1893,
      "duration": 0.4666,
      "velocity": 104,
      "chip": "ym2612"
    },
    {
      "channel": 0,
      "note": 69,
      "start": 12.1897,
      "duration": 0.1498,
      "velocity": 87,
      "chip": "ym2612"
    },
    {
      "channel": 5,
      "note": 69,
      "start": 12.3378,
      "duration": 0.1677,
      "velocity": 87,
      "chip": "ym2612"
    },
    {
      "channel": 4,
      "note": 36,
      "start": 12.3385,
      "duration": 0.3164,
      "velocity": 122,
      "chip": "ym2612"
    },
    {
      "channel": 4,
      "note": 48,
      "start": 12.6549,
      "duration": 0.1669,
      "velocity": 125,
      "chip": "ym2612"
    },
    {
      "channel": 3,
      "note": 77,
      "start": 12.6553,
      "duration": 0.1669,
      "velocity": 85,
      "chip": "ym2612"
    },
    {
      "channel": 2,
      "note": 81,
      "start": 12.6556,
      "duration": 0.1669,
      "velocity": 85,
      "chip": "ym2612"
    },
    {
      "channel": 1,
      "note": 60,
      "start": 12.6559,
      "duration": 0.4667,
      "velocity": 104,
      "chip": "ym2612"
    },
    {
      "channel": 0,
      "note": 77,
      "start": 12.6562,
      "duration": 0.1668,
      "velocity": 87,
      "chip": "ym2612"
    },
    {
      "channel": 5,
      "note": 77,
      "start": 12.8211,
      "duration": 0.151,
      "velocity": 87,
      "chip": "ym2612"
    },
    {
      "channel": 4,
      "note": 57,
      "start": 12.8219,
      "duration": 0.2997,
      "velocity": 122,
      "chip": "ym2612"
    },
    {
      "channel": 3,
      "note": 84,
      "start": 12.8222,
      "duration": 0.2998,
      "velocity": 85,
      "chip": "ym2612"
    },
    {
      "channel": 2,
      "note": 87,
      "start": 12.8225,
      "duration": 0.2997,
      "velocity": 85,
      "chip": "ym2612"
    },
    {
      "channel": 4,
      "note": 48,
      "start": 13.1216,
      "duration": 0.1669,
      "velocity": 127,
      "chip": "ym2612"
    },
    {
      "channel": 3,
      "note": 83,
      "start": 13.1219,
      "duration": 0.4834,
      "velocity": 85,
      "chip": "ym2612"
    },
    {
      "channel": 2,
      "note": 87,
      "start": 13.1222,
      "duration": 0.4834,
      "velocity": 85,
      "chip": "ym2612"
    },
    {
      "channel": 1,
      "note": 59,
      "start": 13.1226,
      "duration": 0.4835,
      "velocity": 104,
      "chip": "ym2612"
    },
    {
      "channel": 0,
      "note": 68,
      "start": 13.1229,
      "duration": 0.4835,
      "velocity": 87,
      "chip": "ym2612"
    },
    {
      "channel": 5,
      "note": 68,
      "start": 13.2878,
      "duration": 0.4667,
      "velocity": 87,
      "chip": "ym2612"
    },
    {
      "channel": 4,
      "note": 36,
      "start": 13.2885,
      "duration": 0.3166,
      "velocity": 122,
      "chip": "ym2612"
    },
    {
      "channel": 4,
      "note": 48,
      "start": 13.6051,
      "duration": 0.1501,
      "velocity": 125,
      "chip": "ym2612"
    },
    {
      "channel": 3,
      "note": 77,
      "start": 13.6054,
      "duration": 0.1501,
      "velocity": 85,
      "chip": "ym2612"
    },
    {
      "channel": 2,
      "note": 80,
      "start": 13.6057,
      "duration": 0.1501,
      "velocity": 85,
      "chip": "ym2612"
    },
    {
      "channel": 1,
      "note": 67,
      "start": 13.606,
      "duration": 0.1501,
      "velocity": 104,
      "chip": "ym2612"
    },
    {
      "channel": 0,
      "note": 70,
      "start": 13.6064,
      "duration": 0.1501,
      "velocity": 87,
      "chip": "ym2612"
    },
    {
      "channel": 5,
      "note": 70,
      "start": 13.7545,
      "duration": 0.1667,
      "velocity": 87,
      "chip": "ym2612"
    },
    {
      "channel": 4,
      "note": 57,
      "start": 13.7552,
      "duration": 0.3162,
      "velocity": 125,
      "chip": "ym2612"
    },
    {
      "channel": 3,
      "note": 83,
      "start": 13.7555,
      "duration": 0.3162,
      "velocity": 85,
      "chip": "ym2612"
    },
    {
      "channel": 2,
      "note": 87,
      "start": 13.7559,
      "duration": 0.3162,
      "velocity": 85,
      "chip": "ym2612"
    },
    {
      "channel": 1,
      "note": 65,
      "start": 13.7562,
      "duration": 0.3162,
      "velocity": 104,
      "chip": "ym2612"
    },
    {
      "channel": 0,
      "note": 68,
      "start": 13.7565,
      "duration": 0.3162,
      "velocity": 87,
      "chip": "ym2612"
    },
    {
      "channel": 5,
      "note": 68,
      "start": 13.9211,
      "duration": 0.3167,
      "velocity": 87,
      "chip": "ym2612"
    },
    {
      "channel": 4,
      "note": 57,
      "start": 14.0714,
      "duration": 1.1002,
      "velocity": 125,
      "chip": "ym2612"
    },
    {
      "channel": 3,
      "note": 87,
      "start": 14.0717,
      "duration": 0.1673,
      "velocity": 85,
      "chip": "ym2612"
    },
    {
      "channel": 2,
      "note": 91,
      "start": 14.072,
      "duration": 0.1669,
      "velocity": 85,
      "chip": "ym2612"
    },
    {
      "channel": 1,
      "note": 63,
      "start": 14.0724,
      "duration": 0.1665,
      "velocity": 104,
      "chip": "ym2612"
    },
    {
      "channel": 0,
      "note": 67,
      "start": 14.0727,
      "duration": 0.1661,
      "velocity": 87,
      "chip": "ym2612"
    },
    {
      "channel": 5,
      "note": 67,
      "start": 14.2378,
      "duration": 0.1507,
      "velocity": 87,
      "chip": "ym2612"
    },
    {
      "channel": 4,
      "note": 48,
      "start": 15.5049,
      "duration": 0.1502,
      "velocity": 125,
      "chip": "ym2612"
    },
    {
      "channel": 3,
      "note": 90,
      "start": 15.5053,
      "duration": 0.6333,
      "velocity": 85,
      "chip": "ym2612"
    },
    {
      "channel": 2,
      "note": 97,
      "start": 15.5056,
      "duration": 0.6333,
      "velocity": 85,
      "chip": "ym2612"
    },
    {
      "channel": 1,
      "note": 66,
      "start": 15.5059,
      "duration": 0.1503,
      "velocity": 104,
      "chip": "ym2612"
    },
    {
      "channel": 0,
      "note": 82,
      "start": 15.5062,
      "duration": 0.1499,
      "velocity": 87,
      "chip": "ym2612"
    },
    {
      "channel": 5,
      "note": 82,
      "start": 15.6545,
      "duration": 0.1676,
      "velocity": 87,
      "chip": "ym2612"
    },
    {
      "channel": 4,
      "note": 57,
      "start": 15.6552,
      "duration": 0.4831,
      "velocity": 122,
      "chip": "ym2612"
    },
    {
      "channel": 4,
      "note": 48,
      "start": 16.1383,
      "duration": 0.3168,
      "velocity": 127,
      "chip": "ym2612"
    },
    {
      "channel": 3,
      "note": 87,
      "start": 16.1386,
      "duration": 0.3168,
      "velocity": 85,
      "chip": "ym2612"
    },
    {
      "channel": 2,
      "note": 96,
      "start": 16.1389,
      "duration": 0.3168,
      "velocity": 85,
      "chip": "ym2612"
    },
    {
      "channel": 1,
      "note": 68,
      "start": 16.1392,
      "duration": 0.317,
      "velocity": 104,
      "chip": "ym2612"
    },
    {
      "channel": 0,
      "note": 72,
      "start": 16.1396,
      "duration": 0.3166,
      "velocity": 87,
      "chip": "ym2612"
    },
    {
      "channel": 5,
      "note": 72,
      "start": 16.2878,
      "duration": 0.3183,
      "velocity": 87,
      "chip": "ym2612"
    },
    {
      "channel": 4,
      "note": 36,
      "start": 16.4551,
      "duration": 0.15,
      "velocity": 125,
      "chip": "ym2612"
    },
    {
      "channel": 3,
      "note": 87,
      "start": 16.4554,
      "duration": 0.15,
      "velocity": 85,
      "chip": "ym2612"
    },
    {
      "channel": 2,
      "note": 94,
      "start": 16.4557,
      "duration": 0.15,
      "velocity": 85,
      "chip": "ym2612"
    },
    {
      "channel": 4,
      "note": 57,
      "start": 16.6051,
      "duration": 0.4832,
      "velocity": 122,
      "chip": "ym2612"
    },
    {
      "channel": 3,
      "note": 87,
      "start": 16.6054,
      "duration": 0.4832,
      "velocity": 85,
      "chip": "ym2612"
    },
    {
      "channel": 2,
      "note": 92,
      "start": 16.6057,
      "duration": 0.4832,
      "velocity": 85,
      "chip": "ym2612"
    },
    {
      "channel": 4,
      "note": 48,
      "start": 17.0883,
      "duration": 0.3001,
      "velocity": 127,
      "chip": "ym2612"
    },
    {
      "channel": 3,
      "note": 90,
      "start": 17.0886,
      "duration": 0.3001,
      "velocity": 85,
      "chip": "ym2612"
    },
    {
      "channel": 2,
      "note": 95,
      "start": 17.0889,
      "duration": 0.3001,
      "velocity": 85,
      "chip": "ym2612"
    },
    {
      "channel": 1,
      "note": 71,
      "start": 17.0892,
      "duration": 0.3004,
      "velocity": 104,
      "chip": "ym2612"
    },
    {
      "channel": 0,
      "note": 75,
      "start": 17.0896,
      "duration": 0.3,
      "velocity": 87,
      "chip": "ym2612"
    },
    {
      "channel": 5,
      "note": 75,
      "start": 17.2378,
      "duration": 0.3181,
      "velocity": 87,
      "chip": "ym2612"
    },
    {
      "channel": 4,
      "note": 36,
      "start": 17.3884,
      "duration": 0.1666,
      "velocity": 125,
      "chip": "ym2612"
    },
    {
      "channel": 3,
      "note": 90,
      "start": 17.3887,
      "duration": 0.4832,
      "velocity": 85,
      "chip": "ym2612"
    },
    {
      "channel": 2,
      "note": 94,
      "start": 17.389,
      "duration": 0.4832,
      "velocity": 85,
      "chip": "ym2612"
    },
    {
      "channel": 4,
      "note": 57,
      "start": 17.5551,
      "duration": 0.3166,
      "velocity": 122,
      "chip": "ym2612"
    },
    {
      "channel": 4,
      "note": 48,
      "start": 17.8716,
      "duration": 1.4163,
      "velocity": 122,
      "chip": "ym2612"
    },
    {
      "channel": 3,
      "note": 87,
      "start": 17.8719,
      "duration": 0.1504,
      "velocity": 85,
      "chip": "ym2612"
    },
    {
      "channel": 2,
      "note": 94,
      "start": 17.8722,
      "duration": 0.15,
      "velocity": 85,
      "chip": "ym2612"
    },
    {
      "channel": 1,
      "note": 63,
      "start": 17.8726,
      "duration": 0.1496,
      "velocity": 104,
      "chip": "ym2612"
    },
    {
      "channel": 0,
      "note": 67,
      "start": 17.8729,
      "duration": 0.1492,
      "velocity": 87,
      "chip": "ym2612"
    },
    {
      "channel": 5,
      "note": 67,
      "start": 18.0211,
      "duration": 0.1673,
      "velocity": 87,
      "chip": "ym2612"
    },
    {
      "channel": 4,
      "note": 48,
      "start": 19.2879,
      "duration": 0.1673,
      "velocity": 125,
      "chip": "ym2612"
    },
    {
      "channel": 3,
      "note": 90,
      "start": 19.2882,
      "duration": 0.6337,
      "velocity": 85,
      "chip": "ym2612"
    },
    {
      "channel": 2,
      "note": 97,
      "start": 19.2885,
      "duration": 0.6337,
      "velocity": 85,
      "chip": "ym2612"
    },
    {
      "channel": 1,
      "note": 66,
      "start": 19.2888,
      "duration": 0.1673,
      "velocity": 104,
      "chip": "ym2612"
    },
    {
      "channel": 0,
      "note": 82,
      "start": 19.2892,
      "duration": 0.167,
      "velocity": 87,
      "chip": "ym2612"
    },
    {
      "channel": 5,
      "note": 82,
      "start": 19.4545,
      "duration": 0.1509,
      "velocity": 87,
      "chip": "ym2612"
    },
    {
      "channel": 4,
      "note": 57,
      "start": 19.4552,
      "duration": 0.4664,
      "velocity": 122,
      "chip": "ym2612"
    },
    {
      "channel": 4,
      "note": 48,
      "start": 19.9216,
      "duration": 0.3168,
      "velocity": 127,
      "chip": "ym2612"
    },
    {
      "channel": 3,
      "note": 87,
      "start": 19.9219,
      "duration": 0.3168,
      "velocity": 85,
      "chip": "ym2612"
    },
    {
      "channel": 2,
      "note": 96,
      "start": 19.9222,
      "duration": 0.3168,
      "velocity": 85,
      "chip": "ym2612"
    },
    {
      "channel": 1,
      "note": 68,
      "start": 19.9226,
      "duration": 0.317,
      "velocity": 104,
      "chip": "ym2612"
    },
    {
      "channel": 0,
      "note": 72,
      "start": 19.9229,
      "duration": 0.3166,
      "velocity": 87,
      "chip": "ym2612"
    },
    {
      "channel": 5,
      "note": 72,
      "start": 20.0878,
      "duration": 0.3183,
      "velocity": 87,
      "chip": "ym2612"
    },
    {
      "channel": 4,
      "note": 36,
      "start": 20.2384,
      "duration": 0.1666,
      "velocity": 125,
      "chip": "ym2612"
    },
    {
      "channel": 3,
      "note": 87,
      "start": 20.2387,
      "duration": 0.1666,
      "velocity": 85,
      "chip": "ym2612"
    },
    {
      "channel": 2,
      "note": 94,
      "start": 20.239,
      "duration": 0.1666,
      "velocity": 85,
      "chip": "ym2612"
    },
    {
      "channel": 4,
      "note": 57,
      "start": 20.4051,
      "duration": 0.4666,
      "velocity": 122,
      "chip": "ym2612"
    },
    {
      "channel": 3,
      "note": 87,
      "start": 20.4054,
      "duration": 0.4666,
      "velocity": 85,
      "chip": "ym2612"
    },
    {
      "channel": 2,
      "note": 92,
      "start": 20.4057,
      "duration": 0.4666,
      "velocity": 85,
      "chip": "ym2612"
    },
    {
      "channel": 4,
      "note": 48,
      "start": 20.8716,
      "duration": 0.3168,
      "velocity": 127,
      "chip": "ym2612"
    },
    {
      "channel": 3,
      "note": 90,
      "start": 20.8719,
      "duration": 0.3168,
      "velocity": 85,
      "chip": "ym2612"
    },
    {
      "channel": 2,
      "note": 95,
      "start": 20.8722,
      "duration": 0.3168,
      "velocity": 85,
      "chip": "ym2612"
    },
    {
      "channel": 1,
      "note": 71,
      "start": 20.8726,
      "duration": 0.317,
      "velocity": 104,
      "chip": "ym2612"
    },
    {
      "channel": 0,
      "note": 75,
      "start": 20.8729,
      "duration": 0.3166,
      "velocity": 87,
      "chip": "ym2612"
    },
    {
      "channel": 5,
      "note": 75,
      "start": 21.0378,
      "duration": 0.3181,
      "velocity": 87,
      "chip": "ym2612"
    },
    {
      "channel": 4,
      "note": 36,
      "start": 21.1884,
      "duration": 0.1666,
      "velocity": 125,
      "chip": "ym2612"
    },
    {
      "channel": 3,
      "note": 90,
      "start": 21.1887,
      "duration": 0.4665,
      "velocity": 85,
      "chip": "ym2612"
    },
    {
      "channel": 2,
      "note": 94,
      "start": 21.189,
      "duration": 0.4665,
      "velocity": 85,
      "chip": "ym2612"
    },
    {
      "channel": 4,
      "note": 57,
      "start": 21.3551,
      "duration": 0.2999,
      "velocity": 122,
      "chip": "ym2612"
    },
    {
      "channel": 4,
      "note": 48,
      "start": 21.6549,
      "duration": 0.6334,
      "velocity": 125,
      "chip": "ym2612"
    },
    {
      "channel": 3,
      "note": 87,
      "start": 21.6553,
      "duration": 0.1671,
      "velocity": 85,
      "chip": "ym2612"
    },
    {
      "channel": 2,
      "note": 94,
      "start": 21.6556,
      "duration": 0.1667,
      "velocity": 85,
      "chip": "ym2612"
    },
    {
      "channel": 1,
      "note": 63,
      "start": 21.6559,
      "duration": 0.1663,
      "velocity": 104,
      "chip": "ym2612"
    },
    {
      "channel": 0,
      "note": 67,
      "start": 21.6562,
      "duration": 0.1659,
      "velocity": 87,
      "chip": "ym2612"
    },
    {
      "channel": 5,
      "note": 67,
      "start": 21.8211,
      "duration": 0.1506,
      "velocity": 87,
      "chip": "ym2612"
    },
    {
      "channel": 4,
      "note": 57,
      "start": 22.2883,
      "duration": 0.8,
      "velocity": 122,
      "chip": "ym2612"
    },
    {
      "channel": 3,
      "note": 94,
      "start": 22.2886,
      "duration": 0.317,
      "velocity": 85,
      "chip": "ym2612"
    },
    {
      "channel": 2,
      "note": 99,
      "start": 22.2889,
      "duration": 0.3166,
      "velocity": 85,
      "chip": "ym2612"
    },
    {
      "channel": 0,
      "note": 79,
      "start": 22.2894,
      "duration": 0.316,
      "velocity": 87,
      "chip": "ym2612"
    },
    {
      "channel": 5,
      "note": 79,
      "start": 22.4545,
      "duration": 0.3167,
      "velocity": 87,
      "chip": "ym2612"
    },
    {
      "channel": 0,
      "note": 78,
      "start": 22.6054,
      "duration": 0.0498,
      "velocity": 87,
      "chip": "ym2612"
    },
    {
      "channel": 0,
      "note": 77,
      "start": 22.6552,
      "duration": 0.0333,
      "velocity": 87,
      "chip": "ym2612"
    },
    {
      "channel": 0,
      "note": 76,
      "start": 22.6885,
      "duration": 0.0333,
      "velocity": 87,
      "chip": "ym2612"
    },
    {
      "channel": 0,
      "note": 75,
      "start": 22.7219,
      "duration": 0.0503,
      "velocity": 87,
      "chip": "ym2612"
    },
    {
      "channel": 5,
      "note": 78,
      "start": 22.7712,
      "duration": 0.0333,
      "velocity": 87,
      "chip": "ym2612"
    },
    {
      "channel": 5,
      "note": 77,
      "start": 22.8045,
      "duration": 0.05,
      "velocity": 87,
      "chip": "ym2612"
    },
    {
      "channel": 5,
      "note": 76,
      "start": 22.8545,
      "duration": 0.0333,
      "velocity": 87,
      "chip": "ym2612"
    },
    {
      "channel": 5,
      "note": 75,
      "start": 22.8878,
      "duration": 0.034,
      "velocity": 87,
      "chip": "ym2612"
    },
    {
      "channel": 4,
      "note": 48,
      "start": 23.0883,
      "duration": 0.1502,
      "velocity": 125,
      "chip": "ym2612"
    },
    {
      "channel": 3,
      "note": 90,
      "start": 23.0886,
      "duration": 0.6333,
      "velocity": 85,
      "chip": "ym2612"
    },
    {
      "channel": 2,
      "note": 97,
      "start": 23.0889,
      "duration": 0.6333,
      "velocity": 85,
      "chip": "ym2612"
    },
    {
      "channel": 1,
      "note": 66,
      "start": 23.0892,
      "duration": 0.1503,
      "velocity": 104,
      "chip": "ym2612"
    },
    {
      "channel": 0,
      "note": 82,
      "start": 23.0895,
      "duration": 0.1499,
      "velocity": 87,
      "chip": "ym2612"
    },
    {
      "channel": 5,
      "note": 82,
      "start": 23.2378,
      "duration": 0.1676,
      "velocity": 87,
      "chip": "ym2612"
    },
    {
      "channel": 4,
      "note": 57,
      "start": 23.2385,
      "duration": 0.4831,
      "velocity": 122,
      "chip": "ym2612"
    },
    {
      "channel": 4,
      "note": 48,
      "start": 23.7216,
      "duration": 0.3168,
      "velocity": 127,
      "chip": "ym2612"
    },
    {
      "channel": 3,
      "note": 87,
      "start": 23.7219,
      "duration": 0.3168,
      "velocity": 85,
      "chip": "ym2612"
    },
    {
      "channel": 2,
      "note": 96,
      "start": 23.7222,
      "duration": 0.3168,
      "velocity": 85,
      "chip": "ym2612"
    },
    {
      "channel": 1,
      "note": 68,
      "start": 23.7226,
      "duration": 0.317,
      "velocity": 104,
      "chip": "ym2612"
    },
    {
      "channel": 0,
      "note": 72,
      "start": 23.7229,
      "duration": 0.3166,
      "velocity": 87,
      "chip": "ym2612"
    },
    {
      "channel": 5,
      "note": 72,
      "start": 23.8711,
      "duration": 0.3183,
      "velocity": 87,
      "chip": "ym2612"
    },
    {
      "channel": 4,
      "note": 36,
      "start": 24.0384,
      "duration": 0.15,
      "velocity": 125,
      "chip": "ym2612"
    },
    {
      "channel": 3,
      "note": 87,
      "start": 24.0387,
      "duration": 0.15,
      "velocity": 85,
      "chip": "ym2612"
    },
    {
      "channel": 2,
      "note": 94,
      "start": 24.039,
      "duration": 0.15,
      "velocity": 85,
      "chip": "ym2612"
    },
    {
      "channel": 4,
      "note": 57,
      "start": 24.1884,
      "duration": 0.4832,
      "velocity": 122,
      "chip": "ym2612"
    },
    {
      "channel": 3,
      "note": 87,
      "start": 24.1887,
      "duration": 0.4832,
      "velocity": 85,
      "chip": "ym2612"
    },
    {
      "channel": 2,
      "note": 92,
      "start": 24.189,
      "duration": 0.4832,
      "velocity": 85,
      "chip": "ym2612"
    },
    {
      "channel": 4,
      "note": 48,
      "start": 24.6716,
      "duration": 0.3168,
      "velocity": 127,
      "chip": "ym2612"
    },
    {
      "channel": 3,
      "note": 90,
      "start": 24.6719,
      "duration": 0.3168,
      "velocity": 85,
      "chip": "ym2612"
    },
    {
      "channel": 2,
      "note": 95,
      "start": 24.6722,
      "duration": 0.3168,
      "velocity": 85,
      "chip": "ym2612"
    },
    {
      "channel": 1,
      "note": 71,
      "start": 24.6726,
      "duration": 0.317,
      "velocity": 104,
      "chip": "ym2612"
    },
    {
      "channel": 0,
      "note": 75,
      "start": 24.6729,
      "duration": 0.3166,
      "velocity": 87,
      "chip": "ym2612"
    },
    {
      "channel": 5,
      "note": 75,
      "start": 24.8211,
      "duration": 0.3181,
      "velocity": 87,
      "chip": "ym2612"
    },
    {
      "channel": 4,
      "note": 36,
      "start": 24.9884,
      "duration": 0.15,
      "velocity": 125,
      "chip": "ym2612"
    },
    {
      "channel": 3,
      "note": 90,
      "start": 24.9887,
      "duration": 0.4666,
      "velocity": 85,
      "chip": "ym2612"
    },
    {
      "channel": 2,
      "note": 94,
      "start": 24.989,
      "duration": 0.4666,
      "velocity": 85,
      "chip": "ym2612"
    },
    {
      "channel": 4,
      "note": 57,
      "start": 25.1384,
      "duration": 0.3166,
      "velocity": 122,
      "chip": "ym2612"
    },
    {
      "channel": 4,
      "note": 48,
      "start": 25.4549,
      "duration": 1.4163,
      "velocity": 122,
      "chip": "ym2612"
    },
    {
      "channel": 3,
      "note": 87,
      "start": 25.4553,
      "duration": 0.1671,
      "velocity": 85,
      "chip": "ym2612"
    },
    {
      "channel": 2,
      "note": 94,
      "start": 25.4556,
      "duration": 0.1667,
      "velocity": 85,
      "chip": "ym2612"
    },
    {
      "channel": 1,
      "note": 63,
      "start": 25.4559,
      "duration": 0.1663,
      "velocity": 104,
      "chip": "ym2612"
    },
    {
      "channel": 0,
      "note": 67,
      "start": 25.4562,
      "duration": 0.1659,
      "velocity": 87,
      "chip": "ym2612"
    },
    {
      "channel": 5,
      "note": 67,
      "start": 25.6211,
      "duration": 0.1506,
      "velocity": 87,
      "chip": "ym2612"
    },
    {
      "channel": 4,
      "note": 48,
      "start": 26.8712,
      "duration": 0.1673,
      "velocity": 125,
      "chip": "ym2612"
    },
    {
      "channel": 3,
      "note": 90,
      "start": 26.8715,
      "duration": 0.6337,
      "velocity": 85,
      "chip": "ym2612"
    },
    {
      "channel": 2,
      "note": 97,
      "start": 26.8718,
      "duration": 0.6337,
      "velocity": 85,
      "chip": "ym2612"
    },
    {
      "channel": 1,
      "note": 66,
      "start": 26.8722,
      "duration": 0.1673,
      "velocity": 104,
      "chip": "ym2612"
    },
    {
      "channel": 0,
      "note": 82,
      "start": 26.8725,
      "duration": 0.167,
      "velocity": 87,
      "chip": "ym2612"
    },
    {
      "channel": 5,
      "note": 82,
      "start": 27.0378,
      "duration": 0.1509,
      "velocity": 87,
      "chip": "ym2612"
    },
    {
      "channel": 4,
      "note": 57,
      "start": 27.0385,
      "duration": 0.4664,
      "velocity": 122,
      "chip": "ym2612"
    },
    {
      "channel": 4,
      "note": 48,
      "start": 27.5049,
      "duration": 0.3168,
      "velocity": 127,
      "chip": "ym2612"
    },
    {
      "channel": 3,
      "note": 87,
      "start": 27.5053,
      "duration": 0.3168,
      "velocity": 85,
      "chip": "ym2612"
    },
    {
      "channel": 2,
      "note": 96,
      "start": 27.5056,
      "duration": 0.3168,
      "velocity": 85,
      "chip": "ym2612"
    },
    {
      "channel": 1,
      "note": 68,
      "start": 27.5059,
      "duration": 0.317,
      "velocity": 104,
      "chip": "ym2612"
    },
    {
      "channel": 0,
      "note": 72,
      "start": 27.5062,
      "duration": 0.3166,
      "velocity": 87,
      "chip": "ym2612"
    },
    {
      "channel": 5,
      "note": 72,
      "start": 27.6711,
      "duration": 0.3183,
      "velocity": 87,
      "chip": "ym2612"
    },
    {
      "channel": 4,
      "note": 36,
      "start": 27.8217,
      "duration": 0.1666,
      "velocity": 125,
      "chip": "ym2612"
    },
    {
      "channel": 3,
      "note": 87,
      "start": 27.822,
      "duration": 0.1666,
      "velocity": 85,
      "chip": "ym2612"
    },
    {
      "channel": 2,
      "note": 94,
      "start": 27.8224,
      "duration": 0.1666,
      "velocity": 85,
      "chip": "ym2612"
    },
    {
      "channel": 4,
      "note": 57,
      "start": 27.9884,
      "duration": 0.4666,
      "velocity": 122,
      "chip": "ym2612"
    },
    {
      "channel": 3,
      "note": 87,
      "start": 27.9887,
      "duration": 0.4665,
      "velocity": 85,
      "chip": "ym2612"
    },
    {
      "channel": 2,
      "note": 92,
      "start": 27.989,
      "duration": 0.4666,
      "velocity": 85,
      "chip": "ym2612"
    },
    {
      "channel": 4,
      "note": 48,
      "start": 28.4549,
      "duration": 0.3168,
      "velocity": 127,
      "chip": "ym2612"
    },
    {
      "channel": 3,
      "note": 90,
      "start": 28.4553,
      "duration": 0.3168,
      "velocity": 85,
      "chip": "ym2612"
    },
    {
      "channel": 2,
      "note": 95,
      "start": 28.4556,
      "duration": 0.3168,
      "velocity": 85,
      "chip": "ym2612"
    },
    {
      "channel": 1,
      "note": 71,
      "start": 28.4559,
      "duration": 0.317,
      "velocity": 104,
      "chip": "ym2612"
    },
    {
      "channel": 0,
      "note": 75,
      "start": 28.4562,
      "duration": 0.3166,
      "velocity": 87,
      "chip": "ym2612"
    },
    {
      "channel": 5,
      "note": 75,
      "start": 28.6211,
      "duration": 0.3183,
      "velocity": 87,
      "chip": "ym2612"
    },
    {
      "channel": 4,
      "note": 36,
      "start": 28.7717,
      "duration": 0.1666,
      "velocity": 125,
      "chip": "ym2612"
    },
    {
      "channel": 3,
      "note": 90,
      "start": 28.772,
      "duration": 0.1666,
      "velocity": 85,
      "chip": "ym2612"
    },
    {
      "channel": 2,
      "note": 97,
      "start": 28.7724,
      "duration": 0.1666,
      "velocity": 85,
      "chip": "ym2612"
    },
    {
      "channel": 4,
      "note": 57,
      "start": 28.9384,
      "duration": 0.3166,
      "velocity": 122,
      "chip": "ym2612"
    },
    {
      "channel": 3,
      "note": 90,
      "start": 28.9387,
      "duration": 0.3166,
      "velocity": 85,
      "chip": "ym2612"
    },
    {
      "channel": 2,
      "note": 95,
      "start": 28.939,
      "duration": 0.3166,
      "velocity": 85,
      "chip": "ym2612"
    },
    {
      "channel": 4,
      "note": 48,
      "start": 29.2549,
      "duration": 0.6334,
      "velocity": 125,
      "chip": "ym2612"
    },
    {
      "channel": 3,
      "note": 87,
      "start": 29.2553,
      "duration": 0.1504,
      "velocity": 85,
      "chip": "ym2612"
    },
    {
      "channel": 2,
      "note": 94,
      "start": 29.2556,
      "duration": 0.15,
      "velocity": 85,
      "chip": "ym2612"
    },
    {
      "channel": 1,
      "note": 63,
      "start": 29.2559,
      "duration": 0.1496,
      "velocity": 104,
      "chip": "ym2612"
    },
    {
      "channel": 0,
      "note": 67,
      "start": 29.2562,
      "duration": 0.1492,
      "velocity": 87,
      "chip": "ym2612"
    },
    {
      "channel": 5,
      "note": 67,
      "start": 29.4045,
      "duration": 0.1673,
      "velocity": 87,
      "chip": "ym2612"
    },
    {
      "channel": 4,
      "note": 57,
      "start": 29.8883,
      "duration": 0.4667,
      "velocity": 122,
      "chip": "ym2612"
    },
    {
      "channel": 3,
      "note": 88,
      "start": 29.8886,
      "duration": 0.3003,
      "velocity": 85,
      "chip": "ym2612"
    },
    {
      "channel": 2,
      "note": 95,
      "start": 29.8889,
      "duration": 0.2999,
      "velocity": 85,
      "chip": "ym2612"
    },
    {
      "channel": 1,
      "note": 64,
      "start": 29.8893,
      "duration": 0.2995,
      "velocity": 104,
      "chip": "ym2612"
    },
    {
      "channel": 0,
      "note": 68,
      "start": 29.8896,
      "duration": 0.2991,
      "velocity": 87,
      "chip": "ym2612"
    },
    {
      "channel": 5,
      "note": 68,
      "start": 30.0378,
      "duration": 0.3189,
      "velocity": 87,
      "chip": "ym2612"
    },
    {
      "channel": 4,
      "note": 48,
      "start": 30.355,
      "duration": 0.3167,
      "velocity": 127,
      "chip": "ym2612"
    },
    {
      "channel": 3,
      "note": 79,
      "start": 30.3554,
      "duration": 0.3166,
      "velocity": 85,
      "chip": "ym2612"
    },
    {
      "channel": 2,
      "note": 82,
      "start": 30.3557,
      "duration": 0.3166,
      "velocity": 85,
      "chip": "ym2612"
    },
    {
      "channel": 1,
      "note": 63,
      "start": 30.3561,
      "duration": 0.3166,
      "velocity": 104,
      "chip": "ym2612"
    },
    {
      "channel": 0,
      "note": 70,
      "start": 30.3565,
      "duration": 0.3165,
      "velocity": 87,
      "chip": "ym2612"
    },
    {
      "channel": 5,
      "note": 70,
      "start": 30.5045,
      "duration": 0.3166,
      "velocity": 87,
      "chip": "ym2612"
    },
    {
      "channel": 4,
      "note": 36,
      "start": 30.6717,
      "duration": 0.1502,
      "velocity": 125,
      "chip": "ym2612"
    },
    {
      "channel": 3,
      "note": 87,
      "start": 30.672,
      "duration": 0.1501,
      "velocity": 85,
      "chip": "ym2612"
    },
    {
      "channel": 2,
      "note": 91,
      "start": 30.6723,
      "duration": 0.1502,
      "velocity": 85,
      "chip": "ym2612"
    },
    {
      "channel": 1,
      "note": 60,
      "start": 30.6727,
      "duration": 0.1502,
      "velocity": 104,
      "chip": "ym2612"
    },
    {
      "channel": 0,
      "note": 72,
      "start": 30.673,
      "duration": 0.1502,
      "velocity": 87,
      "chip": "ym2612"
    },
    {
      "channel": 5,
      "note": 72,
      "start": 30.8211,
      "duration": 0.1667,
      "velocity": 87,
      "chip": "ym2612"
    },
    {
      "channel": 4,
      "note": 57,
      "start": 30.8219,
      "duration": 0.3165,
      "velocity": 122,
      "chip": "ym2612"
    },
    {
      "channel": 3,
      "note": 79,
      "start": 30.8222,
      "duration": 0.3165,
      "velocity": 85,
      "chip": "ym2612"
    },
    {
      "channel": 2,
      "note": 82,
      "start": 30.8225,
      "duration": 0.3165,
      "velocity": 85,
      "chip": "ym2612"
    },
    {
      "channel": 1,
      "note": 63,
      "start": 30.8228,
      "duration": 0.3165,
      "velocity": 104,
      "chip": "ym2612"
    },
    {
      "channel": 0,
      "note": 70,
      "start": 30.8232,
      "duration": 0.3165,
      "velocity": 87,
      "chip": "ym2612"
    },
    {
      "channel": 5,
      "note": 70,
      "start": 30.9878,
      "duration": 0.3167,
      "velocity": 87,
      "chip": "ym2612"
    },
    {
      "channel": 4,
      "note": 48,
      "start": 31.1384,
      "duration": 0.1667,
      "velocity": 127,
      "chip": "ym2612"
    },
    {
      "channel": 3,
      "note": 84,
      "start": 31.1387,
      "duration": 0.4832,
      "velocity": 85,
      "chip": "ym2612"
    },
    {
      "channel": 2,
      "note": 87,
      "start": 31.139,
      "duration": 0.4832,
      "velocity": 85,
      "chip": "ym2612"
    },
    {
      "channel": 1,
      "note": 65,
      "start": 31.1394,
      "duration": 0.4832,
      "velocity": 104,
      "chip": "ym2612"
    },
    {
      "channel": 0,
      "note": 69,
      "start": 31.1397,
      "duration": 0.1664,
      "velocity": 87,
      "chip": "ym2612"
    },
    {
      "channel": 5,
      "note": 69,
      "start": 31.3045,
      "duration": 0.151,
      "velocity": 87,
      "chip": "ym2612"
    },
    {
      "channel": 4,
      "note": 36,
      "start": 31.3052,
      "duration": 0.3164,
      "velocity": 122,
      "chip": "ym2612"
    },
    {
      "channel": 4,
      "note": 48,
      "start": 31.6216,
      "duration": 0.1502,
      "velocity": 125,
      "chip": "ym2612"
    },
    {
      "channel": 3,
      "note": 77,
      "start": 31.6219,
      "duration": 0.1502,
      "velocity": 85,
      "chip": "ym2612"
    },
    {
      "channel": 2,
      "note": 81,
      "start": 31.6222,
      "duration": 0.1502,
      "velocity": 85,
      "chip": "ym2612"
    },
    {
      "channel": 1,
      "note": 60,
      "start": 31.6226,
      "duration": 0.4667,
      "velocity": 104,
      "chip": "ym2612"
    },
    {
      "channel": 0,
      "note": 77,
      "start": 31.6229,
      "duration": 0.1502,
      "velocity": 87,
      "chip": "ym2612"
    },
    {
      "channel": 5,
      "note": 77,
      "start": 31.7711,
      "duration": 0.1677,
      "velocity": 87,
      "chip": "ym2612"
    },
    {
      "channel": 4,
      "note": 57,
      "start": 31.7719,
      "duration": 0.3164,
      "velocity": 122,
      "chip": "ym2612"
    },
    {
      "channel": 3,
      "note": 84,
      "start": 31.7722,
      "duration": 0.3164,
      "velocity": 85,
      "chip": "ym2612"
    },
    {
      "channel": 2,
      "note": 87,
      "start": 31.7725,
      "duration": 0.3164,
      "velocity": 85,
      "chip": "ym2612"
    },
    {
      "channel": 4,
      "note": 48,
      "start": 32.0883,
      "duration": 0.1669,
      "velocity": 127,
      "chip": "ym2612"
    },
    {
      "channel": 3,
      "note": 83,
      "start": 32.0886,
      "duration": 0.4834,
      "velocity": 85,
      "chip": "ym2612"
    },
    {
      "channel": 2,
      "note": 87,
      "start": 32.0889,
      "duration": 0.4834,
      "velocity": 85,
      "chip": "ym2612"
    },
    {
      "channel": 1,
      "note": 59,
      "start": 32.0892,
      "duration": 0.4835,
      "velocity": 104,
      "chip": "ym2612"
    },
    {
      "channel": 0,
      "note": 68,
      "start": 32.0896,
      "duration": 0.4835,
      "velocity": 87,
      "chip": "ym2612"
    },
    {
      "channel": 5,
      "note": 68,
      "start": 32.2545,
      "duration": 0.4667,
      "velocity": 87,
      "chip": "ym2612"
    },
    {
      "channel": 4,
      "note": 36,
      "start": 32.2551,
      "duration": 0.3166,
      "velocity": 122,
      "chip": "ym2612"
    },
    {
      "channel": 4,
      "note": 48,
      "start": 32.5717,
      "duration": 0.1501,
      "velocity": 125,
      "chip": "ym2612"
    },
    {
      "channel": 3,
      "note": 77,
      "start": 32.5721,
      "duration": 0.1501,
      "velocity": 85,
      "chip": "ym2612"
    },
    {
      "channel": 2,
      "note": 80,
      "start": 32.5724,
      "duration": 0.1501,
      "velocity": 85,
      "chip": "ym2612"
    },
    {
      "channel": 1,
      "note": 67,
      "start": 32.5727,
      "duration": 0.1501,
      "velocity": 104,
      "chip": "ym2612"
    },
    {
      "channel": 0,
      "note": 70,
      "start": 32.573,
      "duration": 0.1501,
      "velocity": 87,
      "chip": "ym2612"
    },
    {
      "channel": 5,
      "note": 70,
      "start": 32.7211,
      "duration": 0.1667,
      "velocity": 87,
      "chip": "ym2612"
    },
    {
      "channel": 4,
      "note": 57,
      "start": 32.7219,
      "duration": 0.3165,
      "velocity": 122,
      "chip": "ym2612"
    },
    {
      "channel": 3,
      "note": 83,
      "start": 32.7222,
      "duration": 0.3165,
      "velocity": 85,
      "chip": "ym2612"
    },
    {
      "channel": 2,
      "note": 87,
      "start": 32.7225,
      "duration": 0.3165,
      "velocity": 85,
      "chip": "ym2612"
    },
    {
      "channel": 1,
      "note": 65,
      "start": 32.7228,
      "duration": 0.3165,
      "velocity": 104,
      "chip": "ym2612"
    },
    {
      "channel": 0,
      "note": 68,
      "start": 32.7232,
      "duration": 0.3165,
      "velocity": 87,
      "chip": "ym2612"
    },
    {
      "channel": 5,
      "note": 68,
      "start": 32.8878,
      "duration": 0.3167,
      "velocity": 87,
      "chip": "ym2612"
    },
    {
      "channel": 4,
      "note": 48,
      "start": 33.0384,
      "duration": 0.1667,
      "velocity": 127,
      "chip": "ym2612"
    },
    {
      "channel": 3,
      "note": 87,
      "start": 33.0387,
      "duration": 0.4832,
      "velocity": 85,
      "chip": "ym2612"
    },
    {
      "channel": 2,
      "note": 91,
      "start": 33.039,
      "duration": 0.4832,
      "velocity": 85,
      "chip": "ym2612"
    },
    {
      "channel": 1,
      "note": 63,
      "start": 33.0394,
      "duration": 0.4832,
      "velocity": 104,
      "chip": "ym2612"
    },
    {
      "channel": 0,
      "note": 67,
      "start": 33.0397,
      "duration": 0.1664,
      "velocity": 87,
      "chip": "ym2612"
    },
    {
      "channel": 5,
      "note": 67,
      "start": 33.2045,
      "duration": 0.151,
      "velocity": 87,
      "chip": "ym2612"
    },
    {
      "channel": 4,
      "note": 36,
      "start": 33.2052,
      "duration": 0.3164,
      "velocity": 122,
      "chip": "ym2612"
    },
    {
      "channel": 4,
      "note": 48,
      "start": 33.5216,
      "duration": 0.1502,
      "velocity": 125,
      "chip": "ym2612"
    },
    {
      "channel": 3,
      "note": 79,
      "start": 33.5219,
      "duration": 0.4666,
      "velocity": 85,
      "chip": "ym2612"
    },
    {
      "channel": 2,
      "note": 82,
      "start": 33.5222,
      "duration": 0.4667,
      "velocity": 85,
      "chip": "ym2612"
    },
    {
      "channel": 1,
      "note": 60,
      "start": 33.5226,
      "duration": 0.4667,
      "velocity": 104,
      "chip": "ym2612"
    },
    {
      "channel": 0,
      "note": 75,
      "start": 33.5229,
      "duration": 0.15,
      "velocity": 87,
      "chip": "ym2612"
    },
    {
      "channel": 5,
      "note": 75,
      "start": 33.6711,
      "duration": 0.1677,
      "velocity": 87,
      "chip": "ym2612"
    },
    {
      "channel": 4,
      "note": 57,
      "start": 33.6719,
      "duration": 0.3164,
      "velocity": 127,
      "chip": "ym2612"
    },
    {
      "channel": 4,
      "note": 36,
      "start": 33.9883,
      "duration": 0.1669,
      "velocity": 122,
      "chip": "ym2612"
    },
    {
      "channel": 3,
      "note": 79,
      "start": 33.9886,
      "duration": 0.1669,
      "velocity": 85,
      "chip": "ym2612"
    },
    {
      "channel": 2,
      "note": 82,
      "start": 33.9889,
      "duration": 0.1669,
      "velocity": 85,
      "chip": "ym2612"
    },
    {
      "channel": 1,
      "note": 58,
      "start": 33.9892,
      "duration": 0.1669,
      "velocity": 104,
      "chip": "ym2612"
    },
    {
      "channel": 0,
      "note": 63,
      "start": 33.9896,
      "duration": 0.1669,
      "velocity": 87,
      "chip": "ym2612"
    },
    {
      "channel": 5,
      "note": 63,
      "start": 34.1545,
      "duration": 0.1499,
      "velocity": 87,
      "chip": "ym2612"
    },
    {
      "channel": 4,
      "note": 48,
      "start": 34.1552,
      "duration": 0.1492,
      "velocity": 122,
      "chip": "ym2612"
    },
    {
      "channel": 3,
      "note": 79,
      "start": 34.1555,
      "duration": 0.1489,
      "velocity": 85,
      "chip": "ym2612"
    },
    {
      "channel": 2,
      "note": 82,
      "start": 34.1558,
      "duration": 0.1486,
      "velocity": 85,
      "chip": "ym2612"
    },
    {
      "channel": 1,
      "note": 63,
      "start": 34.1561,
      "duration": 0.1483,
      "velocity": 104,
      "chip": "ym2612"
    },
    {
      "channel": 0,
      "note": 70,
      "start": 34.1565,
      "duration": 0.1479,
      "velocity": 87,
      "chip": "ym2612"
    }
  ]
}