{
  "track_name": "02 - Password Entry",
  "duration_sec": 21.987,
  "sample_rate": 44100,
  "note_count": 385,
  "unique_pitches": 22,
  "pitch_range": 72,
  "avg_note_duration": 0.2061,
  "reconstruction_stats": {
    "notes_reconstructed": 385,
    "keyon_events": 385,
    "keyoff_events": 382,
    "orphan_keyons": 3,
    "unique_pitches": 22,
    "pitch_range": 72,
    "avg_duration_sec": 0.2061
  },
  "metadata": {
    "source": "M\\Mega Bomberman\\02 - Password Entry.vgz"
  },
  "notes": [
    {
      "channel": 0,
      "note": 34,
      "start": 0.0,
      "duration": 0.0,
      "velocity": 101,
      "chip": "ym2612"
    },
    {
      "channel": 0,
      "note": 46,
      "start": 0.0,
      "duration": 0.0,
      "velocity": 101,
      "chip": "ym2612"
    },
    {
      "channel": 0,
      "note": 46,
      "start": 0.0,
      "duration": 0.0,
      "velocity": 101,
      "chip": "ym2612"
    },
    {
      "channel": 0,
      "note": 34,
      "start": 0.0,
      "duration": 0.0,
      "velocity": 101,
      "chip": "ym2612"
    },
    {
      "channel": 0,
      "note": 46,
      "start": 0.0,
      "duration": 0.0,
      "velocity": 101,
      "chip": "ym2612"
    },
    {
      "channel": 0,
      "note": 46,
      "start": 0.0,
      "duration": 0.0,
      "velocity": 101,
      "chip": "ym2612"
    },
    {
      "channel": 0,
      "note": 34,
      "start": 0.0,
      "duration": 0.0,
      "velocity": 101,
      "chip": "ym2612"
    },
    {
      "channel": 0,
      "note": 46,
      "start": 0.0,
      "duration": 0.0,
      "velocity": 101,
      "chip": "ym2612"
    },
    {
      "channel": 0,
      "note": 46,
      "start": 0.0,
      "duration": 0.0,
      "velocity": 101,
      "chip": "ym2612"
    },
    {
      "channel": 0,
      "note": 34,
      "start": 0.0,
      "duration": 0.0,
      "velocity": 101,
      "chip": "ym2612"
    },
    {
      "channel": 0,
      "note": 46,
      "start": 0.0,
      "duration": 0.0,
      "velocity": 101,
      "chip": "ym2612"
    },
    {
      "channel": 0,
      "note": 46,
      "start": 0.0,
      "duration": 0.2692,
      "velocity": 101,
      "chip": "ym2612"
    },
    {
      "channel": 1,
      "note": 93,
      "start": 0.0,
      "duration": 0.0,
      "velocity": 91,
      "chip": "ym2612"
    },
    {
      "channel": 1,
      "note": 93,
      "start": 0.0,
      "duration": 0.0,
      "velocity": 91,
      "chip": "ym2612"
    },
    {
      "channel": 1,
      "note": 93,
      "start": 0.0,
      "duration": 0.0,
      "velocity": 91,
      "chip": "ym2612"
    },
    {
      "channel": 1,
      "note": 93,
      "start": 0.0,
      "duration": 0.0,
      "velocity": 91,
      "chip": "ym2612"
    },
    {
      "channel": 1,
      "note": 93,
      "start": 0.0,
      "duration": 0.0,
      "velocity": 91,
      "chip": "ym2612"
    },
    {
      "channel": 1,
      "note": 93,
      "start": 0.0,
      "duration": 0.0,
      "velocity": 91,
      "chip": "ym2612"
    },
    {
      "channel": 1,
      "note": 93,
      "start": 0.0,
      "duration": 0.0,
      "velocity": 91,
      "chip": "ym2612"
    },
    {
      "channel": 1,
      "note": 93,
      "start": 0.0,
      "duration": 0.0,
      "velocity": 91,
      "chip": "ym2612"
    },
    {
      "channel": 2,
      "note": 74,
      "start": 0.0,
      "duration": 0.0,
      "velocity": 127,
      "chip": "ym2612"
    },
    {
      "channel": 2,
      "note": 74,
      "start": 0.0,
      "duration": 0.0,
      "velocity": 127,
      "chip": "ym2612"
    },
    {
      "channel": 2,
      "note": 74,
      "start": 0.0,
      "duration": 0.0,
      "velocity": 127,
      "chip": "ym2612"
    },
    {
      "channel": 2,
      "note": 74,
      "start": 0.0,
      "duration": 0.0,
      "velocity": 127,
      "chip": "ym2612"
    },
    {
      "channel": 2,
      "note": 74,
      "start": 0.0,
      "duration": 0.0,
      "velocity": 127,
      "chip": "ym2612"
    },
    {
      "channel": 2,
      "note": 74,
      "start": 0.0,
      "duration": 0.0,
      "velocity": 127,
      "chip": "ym2612"
    },
    {
      "channel": 2,
      "note": 74,
      "start": 0.0,
      "duration": 0.0,
      "velocity": 127,
      "chip": "ym2612"
    },
    {
      "channel": 2,
      "note": 74,
      "start": 0.0,
      "duration": 0.0,
      "velocity": 127,
      "chip": "ym2612"
    },
    {
      "channel": 2,
      "note": 74,
      "start": 0.0,
      "duration": 0.0,
      "velocity": 127,
      "chip": "ym2612"
    },
    {
      "channel": 2,
      "note": 74,
      "start": 0.0,
      "duration": 0.0,
      "velocity": 127,
      "chip": "ym2612"
    },
    {
      "channel": 2,
      "note": 74,
      "start": 0.0,
      "duration": 0.0,
      "velocity": 127,
      "chip": "ym2612"
    },
    {
      "channel": 2,
      "note": 74,
      "start": 0.0,
      "duration": 0.0,
      "velocity": 127,
      "chip": "ym2612"
    },
    {
      "channel": 2,
      "note": 74,
      "start": 0.0,
      "duration": 0.0,
      "velocity": 127,
      "chip": "ym2612"
    },
    {
      "channel": 2,
      "note": 74,
      "start": 0.0,
      "duration": 0.0,
      "velocity": 127,
      "chip": "ym2612"
    },
    {
      "channel": 3,
      "note": 86,
      "start": 0.0,
      "duration": 0.0,
      "velocity": 91,
      "chip": "ym2612"
    },
    {
      "channel": 3,
      "note": 86,
      "start": 0.0,
      "duration": 0.0,
      "velocity": 91,
      "chip": "ym2612"
    },
    {
      "channel": 3,
      "note": 86,
      "start": 0.0,
      "duration": 0.0,
      "velocity": 91,
      "chip": "ym2612"
    },
    {
      "channel": 3,
      "note": 86,
      "start": 0.0,
      "duration": 0.0,
      "velocity": 91,
      "chip": "ym2612"
    },
    {
      "channel": 3,
      "note": 86,
      "start": 0.0,
      "duration": 0.0,
      "velocity": 91,
      "chip": "ym2612"
    },
    {
      "channel": 3,
      "note": 86,
      "start": 0.0,
      "duration": 0.0,
      "velocity": 91,
      "chip": "ym2612"
    },
    {
      "channel": 3,
      "note": 86,
      "start": 0.0,
      "duration": 0.0,
      "velocity": 91,
      "chip": "ym2612"
    },
    {
      "channel": 3,
      "note": 86,
      "start": 0.0,
      "duration": 0.0,
      "velocity": 91,
      "chip": "ym2612"
    },
    {
      "channel": 4,
      "note": 89,
      "start": 0.0,
      "duration": 0.0,
      "velocity": 91,
      "chip": "ym2612"
    },
    {
      "channel": 4,
      "note": 89,
      "start": 0.0,
      "duration": 0.0,
      "velocity": 91,
      "chip": "ym2612"
    },
    {
      "channel": 4,
      "note": 89,
      "start": 0.0,
      "duration": 0.0,
      "velocity": 91,
      "chip": "ym2612"
    },
    {
      "channel": 4,
      "note": 89,
      "start": 0.0,
      "duration": 0.0,
      "velocity": 91,
      "chip": "ym2612"
    },
    {
      "channel": 4,
      "note": 89,
      "start": 0.0,
      "duration": 0.0,
      "velocity": 91,
      "chip": "ym2612"
    },
    {
      "channel": 4,
      "note": 89,
      "start": 0.0,
      "duration": 0.0,
      "velocity": 91,
      "chip": "ym2612"
    },
    {
      "channel": 4,
      "note": 89,
      "start": 0.0,
      "duration": 0.0,
      "velocity": 91,
      "chip": "ym2612"
    },
    {
      "channel": 4,
      "note": 89,
      "start": 0.0,
      "duration": 0.0,
      "velocity": 91,
      "chip": "ym2612"
    },
    {
      "channel": 5,
      "note": 25,
      "start": 0.0,
      "duration": 0.0,
      "velocity": 127,
      "chip": "ym2612"
    },
    {
      "channel": 5,
      "note": 25,
      "start": 0.0,
      "duration": 0.0,
      "velocity": 127,
      "chip": "ym2612"
    },
    {
      "channel": 5,
      "note": 25,
      "start": 0.0,
      "duration": 0.0,
      "velocity": 127,
      "chip": "ym2612"
    },
    {
      "channel": 5,
      "note": 42,
      "start": 0.0,
      "duration": 0.0,
      "velocity": 127,
      "chip": "ym2612"
    },
    {
      "channel": 5,
      "note": 25,
      "start": 0.0,
      "duration": 0.0,
      "velocity": 127,
      "chip": "ym2612"
    },
    {
      "channel": 5,
      "note": 25,
      "start": 0.0,
      "duration": 0.0,
      "velocity": 127,
      "chip": "ym2612"
    },
    {
      "channel": 5,
      "note": 25,
      "start": 0.0,
      "duration": 0.0,
      "velocity": 127,
      "chip": "ym2612"
    },
    {
      "channel": 5,
      "note": 25,
      "start": 0.0,
      "duration": 0.0,
      "velocity": 127,
      "chip": "ym2612"
    },
    {
      "channel": 5,
      "note": 42,
      "start": 0.0,
      "duration": 0.0,
      "velocity": 127,
      "chip": "ym2612"
    },
    {
      "channel": 3,
      "note": 86,
      "start": 0.0026,
      "duration": 0.665,
      "velocity": 96,
      "chip": "ym2612"
    },
    {
      "channel": 2,
      "note": 74,
      "start": 0.0061,
      "duration": 0.3214,
      "velocity": 127,
      "chip": "ym2612"
    },
    {
      "channel": 5,
      "note": 42,
      "start": 0.0087,
      "duration": 0.319,
      "velocity": 127,
      "chip": "ym2612"
    },
    {
      "channel": 1,
      "note": 93,
      "start": 0.3468,
      "duration": 0.1578,
      "velocity": 99,
      "chip": "ym2612"
    },
    {
      "channel": 4,
      "note": 89,
      "start": 0.3492,
      "duration": 0.1556,
      "velocity": 99,
      "chip": "ym2612"
    },
    {
      "channel": 2,
      "note": 92,
      "start": 0.351,
      "duration": 0.154,
      "velocity": 127,
      "chip": "ym2612"
    },
    {
      "channel": 0,
      "note": 35,
      "start": 0.499,
      "duration": 0.2106,
      "velocity": 101,
      "chip": "ym2612"
    },
    {
      "channel": 5,
      "note": 25,
      "start": 0.5024,
      "duration": 0.1581,
      "velocity": 127,
      "chip": "ym2612"
    },
    {
      "channel": 3,
      "note": 93,
      "start": 0.6726,
      "duration": 0.1575,
      "velocity": 96,
      "chip": "ym2612"
    },
    {
      "channel": 2,
      "note": 92,
      "start": 0.6753,
      "duration": 0.3235,
      "velocity": 127,
      "chip": "ym2612"
    },
    {
      "channel": 5,
      "note": 25,
      "start": 0.6776,
      "duration": 0.2403,
      "velocity": 127,
      "chip": "ym2612"
    },
    {
      "channel": 0,
      "note": 35,
      "start": 1.0005,
      "duration": 0.2637,
      "velocity": 101,
      "chip": "ym2612"
    },
    {
      "channel": 3,
      "note": 97,
      "start": 1.0019,
      "duration": 0.1198,
      "velocity": 96,
      "chip": "ym2612"
    },
    {
      "channel": 1,
      "note": 86,
      "start": 1.0037,
      "duration": 0.1587,
      "velocity": 99,
      "chip": "ym2612"
    },
    {
      "channel": 4,
      "note": 90,
      "start": 1.0051,
      "duration": 0.1573,
      "velocity": 99,
      "chip": "ym2612"
    },
    {
      "channel": 2,
      "note": 92,
      "start": 1.0073,
      "duration": 0.3208,
      "velocity": 127,
      "chip": "ym2612"
    },
    {
      "channel": 5,
      "note": 42,
      "start": 1.0096,
      "duration": 0.3251,
      "velocity": 127,
      "chip": "ym2612"
    },
    {
      "channel": 0,
      "note": 35,
      "start": 1.3297,
      "duration": 0.1174,
      "velocity": 101,
      "chip": "ym2612"
    },
    {
      "channel": 3,
      "note": 95,
      "start": 1.3314,
      "duration": 0.6695,
      "velocity": 96,
      "chip": "ym2612"
    },
    {
      "channel": 2,
      "note": 92,
      "start": 1.3341,
      "duration": 0.3209,
      "velocity": 127,
      "chip": "ym2612"
    },
    {
      "channel": 0,
      "note": 38,
      "start": 1.6748,
      "duration": 0.2412,
      "velocity": 101,
      "chip": "ym2612"
    },
    {
      "channel": 1,
      "note": 86,
      "start": 1.6768,
      "duration": 0.1602,
      "velocity": 99,
      "chip": "ym2612"
    },
    {
      "channel": 4,
      "note": 90,
      "start": 1.6783,
      "duration": 0.1589,
      "velocity": 99,
      "chip": "ym2612"
    },
    {
      "channel": 2,
      "note": 92,
      "start": 1.6798,
      "duration": 0.3232,
      "velocity": 127,
      "chip": "ym2612"
    },
    {
      "channel": 5,
      "note": 25,
      "start": 1.6813,
      "duration": 0.3209,
      "velocity": 127,
      "chip": "ym2612"
    },
    {
      "channel": 0,
      "note": 38,
      "start": 2.0047,
      "duration": 0.2431,
      "velocity": 101,
      "chip": "ym2612"
    },
    {
      "channel": 3,
      "note": 93,
      "start": 2.007,
      "duration": 0.1382,
      "velocity": 96,
      "chip": "ym2612"
    },
    {
      "channel": 2,
      "note": 92,
      "start": 2.0097,
      "duration": 0.3254,
      "velocity": 127,
      "chip": "ym2612"
    },
    {
      "channel": 5,
      "note": 25,
      "start": 2.012,
      "duration": 0.2378,
      "velocity": 127,
      "chip": "ym2612"
    },
    {
      "channel": 3,
      "note": 90,
      "start": 2.3373,
      "duration": 0.1111,
      "velocity": 96,
      "chip": "ym2612"
    },
    {
      "channel": 1,
      "note": 86,
      "start": 2.3397,
      "duration": 0.155,
      "velocity": 99,
      "chip": "ym2612"
    },
    {
      "channel": 4,
      "note": 90,
      "start": 2.3411,
      "duration": 0.1536,
      "velocity": 99,
      "chip": "ym2612"
    },
    {
      "channel": 2,
      "note": 92,
      "start": 2.3427,
      "duration": 0.1523,
      "velocity": 127,
      "chip": "ym2612"
    },
    {
      "channel": 5,
      "note": 42,
      "start": 2.509,
      "duration": 0.1186,
      "velocity": 127,
      "chip": "ym2612"
    },
    {
      "channel": 0,
      "note": 40,
      "start": 2.6805,
      "duration": 0.2705,
      "velocity": 101,
      "chip": "ym2612"
    },
    {
      "channel": 3,
      "note": 93,
      "start": 2.6822,
      "duration": 0.1207,
      "velocity": 96,
      "chip": "ym2612"
    },
    {
      "channel": 2,
      "note": 92,
      "start": 2.6849,
      "duration": 0.3256,
      "velocity": 127,
      "chip": "ym2612"
    },
    {
      "channel": 5,
      "note": 42,
      "start": 2.6872,
      "duration": 0.331,
      "velocity": 127,
      "chip": "ym2612"
    },
    {
      "channel": 3,
      "note": 95,
      "start": 3.0127,
      "duration": 0.0703,
      "velocity": 96,
      "chip": "ym2612"
    },
    {
      "channel": 1,
      "note": 86,
      "start": 3.0141,
      "duration": 0.157,
      "velocity": 99,
      "chip": "ym2612"
    },
    {
      "channel": 4,
      "note": 90,
      "start": 3.0159,
      "duration": 0.1555,
      "velocity": 99,
      "chip": "ym2612"
    },
    {
      "channel": 2,
      "note": 92,
      "start": 3.0175,
      "duration": 0.1539,
      "velocity": 127,
      "chip": "ym2612"
    },
    {
      "channel": 0,
      "note": 35,
      "start": 3.1645,
      "duration": 0.2097,
      "velocity": 101,
      "chip": "ym2612"
    },
    {
      "channel": 3,
      "note": 95,
      "start": 3.1661,
      "duration": 0.0771,
      "velocity": 96,
      "chip": "ym2612"
    },
    {
      "channel": 5,
      "note": 25,
      "start": 3.1692,
      "duration": 0.1561,
      "velocity": 127,
      "chip": "ym2612"
    },
    {
      "channel": 3,
      "note": 97,
      "start": 3.3367,
      "duration": 0.1181,
      "velocity": 96,
      "chip": "ym2612"
    },
    {
      "channel": 2,
      "note": 92,
      "start": 3.34,
      "duration": 0.324,
      "velocity": 127,
      "chip": "ym2612"
    },
    {
      "channel": 5,
      "note": 25,
      "start": 3.3423,
      "duration": 0.2345,
      "velocity": 127,
      "chip": "ym2612"
    },
    {
      "channel": 0,
      "note": 35,
      "start": 3.6657,
      "duration": 0.2575,
      "velocity": 101,
      "chip": "ym2612"
    },
    {
      "channel": 3,
      "note": 95,
      "start": 3.6671,
      "duration": 0.1364,
      "velocity": 96,
      "chip": "ym2612"
    },
    {
      "channel": 1,
      "note": 88,
      "start": 3.6689,
      "duration": 0.1581,
      "velocity": 99,
      "chip": "ym2612"
    },
    {
      "channel": 4,
      "note": 92,
      "start": 3.6703,
      "duration": 0.1568,
      "velocity": 99,
      "chip": "ym2612"
    },
    {
      "channel": 2,
      "note": 92,
      "start": 3.6719,
      "duration": 0.3219,
      "velocity": 127,
      "chip": "ym2612"
    },
    {
      "channel": 5,
      "note": 42,
      "start": 3.6748,
      "duration": 0.3191,
      "velocity": 127,
      "chip": "ym2612"
    },
    {
      "channel": 0,
      "note": 35,
      "start": 4.0115,
      "duration": 0.1174,
      "velocity": 101,
      "chip": "ym2612"
    },
    {
      "channel": 3,
      "note": 93,
      "start": 4.0133,
      "duration": 0.6522,
      "velocity": 96,
      "chip": "ym2612"
    },
    {
      "channel": 2,
      "note": 92,
      "start": 4.0159,
      "duration": 0.3216,
      "velocity": 127,
      "chip": "ym2612"
    },
    {
      "channel": 0,
      "note": 38,
      "start": 4.3398,
      "duration": 0.241,
      "velocity": 101,
      "chip": "ym2612"
    },
    {
      "channel": 1,
      "note": 88,
      "start": 4.342,
      "duration": 0.1597,
      "velocity": 99,
      "chip": "ym2612"
    },
    {
      "channel": 4,
      "note": 92,
      "start": 4.3434,
      "duration": 0.1584,
      "velocity": 99,
      "chip": "ym2612"
    },
    {
      "channel": 2,
      "note": 92,
      "start": 4.3449,
      "duration": 0.3227,
      "velocity": 127,
      "chip": "ym2612"
    },
    {
      "channel": 5,
      "note": 25,
      "start": 4.3464,
      "duration": 0.3204,
      "velocity": 127,
      "chip": "ym2612"
    },
    {
      "channel": 0,
      "note": 38,
      "start": 4.6693,
      "duration": 0.2431,
      "velocity": 101,
      "chip": "ym2612"
    },
    {
      "channel": 3,
      "note": 90,
      "start": 4.671,
      "duration": 0.139,
      "velocity": 96,
      "chip": "ym2612"
    },
    {
      "channel": 2,
      "note": 92,
      "start": 4.6743,
      "duration": 0.3254,
      "velocity": 127,
      "chip": "ym2612"
    },
    {
      "channel": 5,
      "note": 25,
      "start": 4.6767,
      "duration": 0.2378,
      "velocity": 127,
      "chip": "ym2612"
    },
    {
      "channel": 3,
      "note": 88,
      "start": 5.0019,
      "duration": 0.1168,
      "velocity": 96,
      "chip": "ym2612"
    },
    {
      "channel": 1,
      "note": 88,
      "start": 5.0035,
      "duration": 0.1557,
      "velocity": 99,
      "chip": "ym2612"
    },
    {
      "channel": 4,
      "note": 92,
      "start": 5.0054,
      "duration": 0.154,
      "velocity": 99,
      "chip": "ym2612"
    },
    {
      "channel": 2,
      "note": 92,
      "start": 5.0073,
      "duration": 0.1522,
      "velocity": 127,
      "chip": "ym2612"
    },
    {
      "channel": 5,
      "note": 42,
      "start": 5.1736,
      "duration": 0.1129,
      "velocity": 127,
      "chip": "ym2612"
    },
    {
      "channel": 0,
      "note": 40,
      "start": 5.3453,
      "duration": 0.2703,
      "velocity": 101,
      "chip": "ym2612"
    },
    {
      "channel": 3,
      "note": 90,
      "start": 5.347,
      "duration": 0.6499,
      "velocity": 96,
      "chip": "ym2612"
    },
    {
      "channel": 2,
      "note": 92,
      "start": 5.3497,
      "duration": 0.3248,
      "velocity": 127,
      "chip": "ym2612"
    },
    {
      "channel": 5,
      "note": 42,
      "start": 5.3521,
      "duration": 0.3293,
      "velocity": 127,
      "chip": "ym2612"
    },
    {
      "channel": 1,
      "note": 85,
      "start": 5.6774,
      "duration": 0.1569,
      "velocity": 99,
      "chip": "ym2612"
    },
    {
      "channel": 4,
      "note": 92,
      "start": 5.679,
      "duration": 0.1555,
      "velocity": 99,
      "chip": "ym2612"
    },
    {
      "channel": 2,
      "note": 92,
      "start": 5.6807,
      "duration": 0.1539,
      "velocity": 127,
      "chip": "ym2612"
    },
    {
      "channel": 0,
      "note": 35,
      "start": 5.8289,
      "duration": 0.2106,
      "velocity": 101,
      "chip": "ym2612"
    },
    {
      "channel": 5,
      "note": 25,
      "start": 5.8324,
      "duration": 0.1581,
      "velocity": 127,
      "chip": "ym2612"
    },
    {
      "channel": 3,
      "note": 93,
      "start": 6.0012,
      "duration": 0.1582,
      "velocity": 96,
      "chip": "ym2612"
    },
    {
      "channel": 2,
      "note": 92,
      "start": 6.004,
      "duration": 0.3247,
      "velocity": 127,
      "chip": "ym2612"
    },
    {
      "channel": 5,
      "note": 25,
      "start": 6.007,
      "duration": 0.235,
      "velocity": 127,
      "chip": "ym2612"
    },
    {
      "channel": 0,
      "note": 35,
      "start": 6.3304,
      "duration": 0.2632,
      "velocity": 101,
      "chip": "ym2612"
    },
    {
      "channel": 3,
      "note": 97,
      "start": 6.3318,
      "duration": 0.1192,
      "velocity": 96,
      "chip": "ym2612"
    },
    {
      "channel": 1,
      "note": 86,
      "start": 6.3336,
      "duration": 0.158,
      "velocity": 99,
      "chip": "ym2612"
    },
    {
      "channel": 4,
      "note": 90,
      "start": 6.335,
      "duration": 0.1568,
      "velocity": 99,
      "chip": "ym2612"
    },
    {
      "channel": 2,
      "note": 92,
      "start": 6.3366,
      "duration": 0.3219,
      "velocity": 127,
      "chip": "ym2612"
    },
    {
      "channel": 5,
      "note": 42,
      "start": 6.3395,
      "duration": 0.319,
      "velocity": 127,
      "chip": "ym2612"
    },
    {
      "channel": 0,
      "note": 35,
      "start": 6.6762,
      "duration": 0.1175,
      "velocity": 101,
      "chip": "ym2612"
    },
    {
      "channel": 3,
      "note": 95,
      "start": 6.6778,
      "duration": 0.6524,
      "velocity": 96,
      "chip": "ym2612"
    },
    {
      "channel": 2,
      "note": 92,
      "start": 6.6806,
      "duration": 0.3212,
      "velocity": 127,
      "chip": "ym2612"
    },
    {
      "channel": 0,
      "note": 38,
      "start": 7.0035,
      "duration": 0.2476,
      "velocity": 101,
      "chip": "ym2612"
    },
    {
      "channel": 1,
      "note": 86,
      "start": 7.0061,
      "duration": 0.1602,
      "velocity": 99,
      "chip": "ym2612"
    },
    {
      "channel": 4,
      "note": 90,
      "start": 7.0075,
      "duration": 0.159,
      "velocity": 99,
      "chip": "ym2612"
    },
    {
      "channel": 2,
      "note": 92,
      "start": 7.0091,
      "duration": 0.3233,
      "velocity": 127,
      "chip": "ym2612"
    },
    {
      "channel": 5,
      "note": 25,
      "start": 7.0105,
      "duration": 0.3209,
      "velocity": 127,
      "chip": "ym2612"
    },
    {
      "channel": 0,
      "note": 38,
      "start": 7.334,
      "duration": 0.2487,
      "velocity": 101,
      "chip": "ym2612"
    },
    {
      "channel": 3,
      "note": 93,
      "start": 7.3356,
      "duration": 0.1389,
      "velocity": 96,
      "chip": "ym2612"
    },
    {
      "channel": 2,
      "note": 92,
      "start": 7.3384,
      "duration": 0.326,
      "velocity": 127,
      "chip": "ym2612"
    },
    {
      "channel": 5,
      "note": 25,
      "start": 7.3414,
      "duration": 0.2435,
      "velocity": 127,
      "chip": "ym2612"
    },
    {
      "channel": 3,
      "note": 90,
      "start": 7.6666,
      "duration": 0.1168,
      "velocity": 96,
      "chip": "ym2612"
    },
    {
      "channel": 1,
      "note": 86,
      "start": 7.6683,
      "duration": 0.1556,
      "velocity": 99,
      "chip": "ym2612"
    },
    {
      "channel": 4,
      "note": 90,
      "start": 7.6698,
      "duration": 0.1543,
      "velocity": 99,
      "chip": "ym2612"
    },
    {
      "channel": 2,
      "note": 92,
      "start": 7.6713,
      "duration": 0.1529,
      "velocity": 127,
      "chip": "ym2612"
    },
    {
      "channel": 5,
      "note": 42,
      "start": 7.8377,
      "duration": 0.1198,
      "velocity": 127,
      "chip": "ym2612"
    },
    {
      "channel": 0,
      "note": 40,
      "start": 8.0098,
      "duration": 0.2763,
      "velocity": 101,
      "chip": "ym2612"
    },
    {
      "channel": 3,
      "note": 93,
      "start": 8.0115,
      "duration": 0.1206,
      "velocity": 96,
      "chip": "ym2612"
    },
    {
      "channel": 2,
      "note": 92,
      "start": 8.0142,
      "duration": 0.3255,
      "velocity": 127,
      "chip": "ym2612"
    },
    {
      "channel": 5,
      "note": 42,
      "start": 8.0166,
      "duration": 0.3308,
      "velocity": 127,
      "chip": "ym2612"
    },
    {
      "channel": 3,
      "note": 95,
      "start": 8.3419,
      "duration": 0.0762,
      "velocity": 96,
      "chip": "ym2612"
    },
    {
      "channel": 1,
      "note": 86,
      "start": 8.3434,
      "duration": 0.1552,
      "velocity": 99,
      "chip": "ym2612"
    },
    {
      "channel": 4,
      "note": 90,
      "start": 8.3451,
      "duration": 0.1538,
      "velocity": 99,
      "chip": "ym2612"
    },
    {
      "channel": 2,
      "note": 92,
      "start": 8.3468,
      "duration": 0.1522,
      "velocity": 127,
      "chip": "ym2612"
    },
    {
      "channel": 0,
      "note": 35,
      "start": 8.5117,
      "duration": 0.209,
      "velocity": 101,
      "chip": "ym2612"
    },
    {
      "channel": 3,
      "note": 95,
      "start": 8.5131,
      "duration": 0.0769,
      "velocity": 96,
      "chip": "ym2612"
    },
    {
      "channel": 5,
      "note": 25,
      "start": 8.5163,
      "duration": 0.1466,
      "velocity": 127,
      "chip": "ym2612"
    },
    {
      "channel": 3,
      "note": 97,
      "start": 8.666,
      "duration": 0.1181,
      "velocity": 96,
      "chip": "ym2612"
    },
    {
      "channel": 2,
      "note": 92,
      "start": 8.6687,
      "duration": 0.3247,
      "velocity": 127,
      "chip": "ym2612"
    },
    {
      "channel": 5,
      "note": 25,
      "start": 8.671,
      "duration": 0.2408,
      "velocity": 127,
      "chip": "ym2612"
    },
    {
      "channel": 0,
      "note": 35,
      "start": 8.995,
      "duration": 0.2632,
      "velocity": 101,
      "chip": "ym2612"
    },
    {
      "channel": 3,
      "note": 95,
      "start": 8.9965,
      "duration": 0.1364,
      "velocity": 96,
      "chip": "ym2612"
    },
    {
      "channel": 1,
      "note": 88,
      "start": 8.9982,
      "duration": 0.1586,
      "velocity": 99,
      "chip": "ym2612"
    },
    {
      "channel": 4,
      "note": 92,
      "start": 8.9999,
      "duration": 0.1571,
      "velocity": 99,
      "chip": "ym2612"
    },
    {
      "channel": 2,
      "note": 92,
      "start": 9.0016,
      "duration": 0.3221,
      "velocity": 127,
      "chip": "ym2612"
    },
    {
      "channel": 5,
      "note": 42,
      "start": 9.0039,
      "duration": 0.3199,
      "velocity": 127,
      "chip": "ym2612"
    },
    {
      "channel": 0,
      "note": 35,
      "start": 9.3409,
      "duration": 0.1116,
      "velocity": 101,
      "chip": "ym2612"
    },
    {
      "channel": 3,
      "note": 93,
      "start": 9.3426,
      "duration": 0.1677,
      "velocity": 96,
      "chip": "ym2612"
    },
    {
      "channel": 2,
      "note": 92,
      "start": 9.3453,
      "duration": 0.321,
      "velocity": 127,
      "chip": "ym2612"
    },
    {
      "channel": 0,
      "note": 38,
      "start": 9.668,
      "duration": 0.242,
      "velocity": 101,
      "chip": "ym2612"
    },
    {
      "channel": 1,
      "note": 85,
      "start": 9.6701,
      "duration": 0.1606,
      "velocity": 99,
      "chip": "ym2612"
    },
    {
      "channel": 4,
      "note": 88,
      "start": 9.6715,
      "duration": 0.1592,
      "velocity": 99,
      "chip": "ym2612"
    },
    {
      "channel": 2,
      "note": 92,
      "start": 9.6737,
      "duration": 0.323,
      "velocity": 127,
      "chip": "ym2612"
    },
    {
      "channel": 5,
      "note": 25,
      "start": 9.6751,
      "duration": 0.3206,
      "velocity": 127,
      "chip": "ym2612"
    },
    {
      "channel": 3,
      "note": 90,
      "start": 9.7575,
      "duration": 0.073,
      "velocity": 96,
      "chip": "ym2612"
    },
    {
      "channel": 3,
      "note": 92,
      "start": 9.8427,
      "duration": 0.066,
      "velocity": 96,
      "chip": "ym2612"
    },
    {
      "channel": 3,
      "note": 90,
      "start": 9.911,
      "duration": 0.0795,
      "velocity": 96,
      "chip": "ym2612"
    },
    {
      "channel": 0,
      "note": 38,
      "start": 9.9983,
      "duration": 0.2376,
      "velocity": 101,
      "chip": "ym2612"
    },
    {
      "channel": 3,
      "note": 88,
      "start": 10.0,
      "duration": 0.6643,
      "velocity": 96,
      "chip": "ym2612"
    },
    {
      "channel": 2,
      "note": 92,
      "start": 10.0027,
      "duration": 0.3153,
      "velocity": 127,
      "chip": "ym2612"
    },
    {
      "channel": 5,
      "note": 25,
      "start": 10.0051,
      "duration": 0.233,
      "velocity": 127,
      "chip": "ym2612"
    },
    {
      "channel": 1,
      "note": 85,
      "start": 10.3253,
      "duration": 0.1576,
      "velocity": 99,
      "chip": "ym2612"
    },
    {
      "channel": 4,
      "note": 88,
      "start": 10.327,
      "duration": 0.156,
      "velocity": 99,
      "chip": "ym2612"
    },
    {
      "channel": 2,
      "note": 92,
      "start": 10.3287,
      "duration": 0.1544,
      "velocity": 127,
      "chip": "ym2612"
    },
    {
      "channel": 5,
      "note": 42,
      "start": 10.4972,
      "duration": 0.1187,
      "velocity": 127,
      "chip": "ym2612"
    },
    {
      "channel": 0,
      "note": 40,
      "start": 10.6696,
      "duration": 0.27,
      "velocity": 101,
      "chip": "ym2612"
    },
    {
      "channel": 3,
      "note": 85,
      "start": 10.6728,
      "duration": 0.1583,
      "velocity": 96,
      "chip": "ym2612"
    },
    {
      "channel": 1,
      "note": 88,
      "start": 10.6752,
      "duration": 0.1561,
      "velocity": 96,
      "chip": "ym2612"
    },
    {
      "channel": 2,
      "note": 92,
      "start": 10.6775,
      "duration": 0.3153,
      "velocity": 127,
      "chip": "ym2612"
    },
    {
      "channel": 5,
      "note": 42,
      "start": 10.6799,
      "duration": 0.313,
      "velocity": 127,
      "chip": "ym2612"
    },
    {
      "channel": 3,
      "note": 90,
      "start": 10.9996,
      "duration": 0.0774,
      "velocity": 96,
      "chip": "ym2612"
    },
    {
      "channel": 1,
      "note": 78,
      "start": 11.0017,
      "duration": 0.1559,
      "velocity": 99,
      "chip": "ym2612"
    },
    {
      "channel": 4,
      "note": 92,
      "start": 11.0035,
      "duration": 0.1542,
      "velocity": 99,
      "chip": "ym2612"
    },
    {
      "channel": 2,
      "note": 92,
      "start": 11.0054,
      "duration": 0.1524,
      "velocity": 127,
      "chip": "ym2612"
    },
    {
      "channel": 0,
      "note": 35,
      "start": 11.1709,
      "duration": 0.2144,
      "velocity": 101,
      "chip": "ym2612"
    },
    {
      "channel": 3,
      "note": 90,
      "start": 11.173,
      "duration": 0.0698,
      "velocity": 96,
      "chip": "ym2612"
    },
    {
      "channel": 1,
      "note": 93,
      "start": 11.1754,
      "duration": 0.0677,
      "velocity": 96,
      "chip": "ym2612"
    },
    {
      "channel": 5,
      "note": 25,
      "start": 11.1781,
      "duration": 0.1455,
      "velocity": 127,
      "chip": "ym2612"
    },
    {
      "channel": 3,
      "note": 88,
      "start": 11.3267,
      "duration": 0.1627,
      "velocity": 96,
      "chip": "ym2612"
    },
    {
      "channel": 1,
      "note": 76,
      "start": 11.3283,
      "duration": 0.1612,
      "velocity": 96,
      "chip": "ym2612"
    },
    {
      "channel": 2,
      "note": 92,
      "start": 11.3306,
      "duration": 0.3276,
      "velocity": 127,
      "chip": "ym2612"
    },
    {
      "channel": 5,
      "note": 25,
      "start": 11.3329,
      "duration": 0.2378,
      "velocity": 127,
      "chip": "ym2612"
    },
    {
      "channel": 0,
      "note": 35,
      "start": 11.6598,
      "duration": 0.2573,
      "velocity": 101,
      "chip": "ym2612"
    },
    {
      "channel": 3,
      "note": 90,
      "start": 11.6613,
      "duration": 0.0733,
      "velocity": 96,
      "chip": "ym2612"
    },
    {
      "channel": 1,
      "note": 78,
      "start": 11.6634,
      "duration": 0.1574,
      "velocity": 99,
      "chip": "ym2612"
    },
    {
      "channel": 4,
      "note": 86,
      "start": 11.6652,
      "duration": 0.1558,
      "velocity": 99,
      "chip": "ym2612"
    },
    {
      "channel": 2,
      "note": 92,
      "start": 11.6667,
      "duration": 0.3211,
      "velocity": 127,
      "chip": "ym2612"
    },
    {
      "channel": 5,
      "note": 42,
      "start": 11.669,
      "duration": 0.3188,
      "velocity": 127,
      "chip": "ym2612"
    },
    {
      "channel": 3,
      "note": 90,
      "start": 11.8327,
      "duration": 0.0791,
      "velocity": 96,
      "chip": "ym2612"
    },
    {
      "channel": 1,
      "note": 93,
      "start": 11.8351,
      "duration": 0.077,
      "velocity": 96,
      "chip": "ym2612"
    },
    {
      "channel": 0,
      "note": 35,
      "start": 12.0066,
      "duration": 0.1163,
      "velocity": 101,
      "chip": "ym2612"
    },
    {
      "channel": 3,
      "note": 88,
      "start": 12.0083,
      "duration": 0.1551,
      "velocity": 96,
      "chip": "ym2612"
    },
    {
      "channel": 1,
      "note": 76,
      "start": 12.01,
      "duration": 0.1536,
      "velocity": 96,
      "chip": "ym2612"
    },
    {
      "channel": 2,
      "note": 92,
      "start": 12.0122,
      "duration": 0.3279,
      "velocity": 127,
      "chip": "ym2612"
    },
    {
      "channel": 0,
      "note": 38,
      "start": 12.333,
      "duration": 0.2417,
      "velocity": 101,
      "chip": "ym2612"
    },
    {
      "channel": 3,
      "note": 90,
      "start": 12.3344,
      "duration": 0.1607,
      "velocity": 96,
      "chip": "ym2612"
    },
    {
      "channel": 1,
      "note": 78,
      "start": 12.3368,
      "duration": 0.1585,
      "velocity": 99,
      "chip": "ym2612"
    },
    {
      "channel": 4,
      "note": 86,
      "start": 12.3388,
      "duration": 0.1567,
      "velocity": 99,
      "chip": "ym2612"
    },
    {
      "channel": 5,
      "note": 25,
      "start": 12.3411,
      "duration": 0.3168,
      "velocity": 127,
      "chip": "ym2612"
    },
    {
      "channel": 0,
      "note": 38,
      "start": 12.6645,
      "duration": 0.2476,
      "velocity": 101,
      "chip": "ym2612"
    },
    {
      "channel": 3,
      "note": 97,
      "start": 12.6661,
      "duration": 0.1606,
      "velocity": 96,
      "chip": "ym2612"
    },
    {
      "channel": 1,
      "note": 93,
      "start": 12.6682,
      "duration": 0.1587,
      "velocity": 96,
      "chip": "ym2612"
    },
    {
      "channel": 2,
      "note": 92,
      "start": 12.6706,
      "duration": 0.3248,
      "velocity": 127,
      "chip": "ym2612"
    },
    {
      "channel": 5,
      "note": 25,
      "start": 12.6736,
      "duration": 0.2407,
      "velocity": 127,
      "chip": "ym2612"
    },
    {
      "channel": 3,
      "note": 97,
      "start": 12.9975,
      "duration": 0.0809,
      "velocity": 96,
      "chip": "ym2612"
    },
    {
      "channel": 1,
      "note": 85,
      "start": 12.9998,
      "duration": 0.1591,
      "velocity": 99,
      "chip": "ym2612"
    },
    {
      "channel": 4,
      "note": 90,
      "start": 13.0016,
      "duration": 0.1575,
      "velocity": 99,
      "chip": "ym2612"
    },
    {
      "channel": 2,
      "note": 92,
      "start": 13.0031,
      "duration": 0.1562,
      "velocity": 127,
      "chip": "ym2612"
    },
    {
      "channel": 3,
      "note": 95,
      "start": 13.1718,
      "duration": 0.0724,
      "velocity": 96,
      "chip": "ym2612"
    },
    {
      "channel": 1,
      "note": 93,
      "start": 13.1748,
      "duration": 0.0696,
      "velocity": 96,
      "chip": "ym2612"
    },
    {
      "channel": 5,
      "note": 42,
      "start": 13.1776,
      "duration": 0.1087,
      "velocity": 127,
      "chip": "ym2612"
    },
    {
      "channel": 0,
      "note": 40,
      "start": 13.3284,
      "duration": 0.2699,
      "velocity": 101,
      "chip": "ym2612"
    },
    {
      "channel": 3,
      "note": 92,
      "start": 13.3301,
      "duration": 0.1599,
      "velocity": 96,
      "chip": "ym2612"
    },
    {
      "channel": 1,
      "note": 80,
      "start": 13.3318,
      "duration": 0.1585,
      "velocity": 96,
      "chip": "ym2612"
    },
    {
      "channel": 2,
      "note": 92,
      "start": 13.334,
      "duration": 0.3241,
      "velocity": 127,
      "chip": "ym2612"
    },
    {
      "channel": 5,
      "note": 42,
      "start": 13.3363,
      "duration": 0.3218,
      "velocity": 127,
      "chip": "ym2612"
    },
    {
      "channel": 3,
      "note": 90,
      "start": 13.677,
      "duration": 0.0761,
      "velocity": 96,
      "chip": "ym2612"
    },
    {
      "channel": 1,
      "note": 78,
      "start": 13.6791,
      "duration": 0.1536,
      "velocity": 99,
      "chip": "ym2612"
    },
    {
      "channel": 4,
      "note": 90,
      "start": 13.6809,
      "duration": 0.1643,
      "velocity": 99,
      "chip": "ym2612"
    },
    {
      "channel": 2,
      "note": 92,
      "start": 13.6826,
      "duration": 0.1628,
      "velocity": 127,
      "chip": "ym2612"
    },
    {
      "channel": 0,
      "note": 35,
      "start": 13.8355,
      "duration": 0.2144,
      "velocity": 101,
      "chip": "ym2612"
    },
    {
      "channel": 3,
      "note": 90,
      "start": 13.837,
      "duration": 0.0762,
      "velocity": 96,
      "chip": "ym2612"
    },
    {
      "channel": 1,
      "note": 92,
      "start": 13.84,
      "duration": 0.0734,
      "velocity": 96,
      "chip": "ym2612"
    },
    {
      "channel": 5,
      "note": 25,
      "start": 13.8428,
      "duration": 0.1525,
      "velocity": 127,
      "chip": "ym2612"
    },
    {
      "channel": 3,
      "note": 92,
      "start": 14.0083,
      "duration": 0.1622,
      "velocity": 96,
      "chip": "ym2612"
    },
    {
      "channel": 1,
      "note": 80,
      "start": 14.01,
      "duration": 0.1607,
      "velocity": 96,
      "chip": "ym2612"
    },
    {
      "channel": 2,
      "note": 92,
      "start": 14.0122,
      "duration": 0.32,
      "velocity": 127,
      "chip": "ym2612"
    },
    {
      "channel": 5,
      "note": 25,
      "start": 14.0145,
      "duration": 0.238,
      "velocity": 127,
      "chip": "ym2612"
    },
    {
      "channel": 0,
      "note": 35,
      "start": 14.3401,
      "duration": 0.2645,
      "velocity": 101,
      "chip": "ym2612"
    },
    {
      "channel": 3,
      "note": 90,
      "start": 14.3416,
      "duration": 0.1606,
      "velocity": 96,
      "chip": "ym2612"
    },
    {
      "channel": 1,
      "note": 78,
      "start": 14.3433,
      "duration": 0.159,
      "velocity": 96,
      "chip": "ym2612"
    },
    {
      "channel": 4,
      "note": 85,
      "start": 14.345,
      "duration": 0.1575,
      "velocity": 99,
      "chip": "ym2612"
    },
    {
      "channel": 5,
      "note": 42,
      "start": 14.348,
      "duration": 0.3292,
      "velocity": 127,
      "chip": "ym2612"
    },
    {
      "channel": 0,
      "note": 35,
      "start": 14.6704,
      "duration": 0.1172,
      "velocity": 101,
      "chip": "ym2612"
    },
    {
      "channel": 3,
      "note": 88,
      "start": 14.6727,
      "duration": 0.1554,
      "velocity": 96,
      "chip": "ym2612"
    },
    {
      "channel": 1,
      "note": 76,
      "start": 14.6744,
      "duration": 0.1539,
      "velocity": 96,
      "chip": "ym2612"
    },
    {
      "channel": 2,
      "note": 92,
      "start": 14.6766,
      "duration": 0.328,
      "velocity": 127,
      "chip": "ym2612"
    },
    {
      "channel": 0,
      "note": 38,
      "start": 14.9981,
      "duration": 0.2414,
      "velocity": 101,
      "chip": "ym2612"
    },
    {
      "channel": 3,
      "note": 85,
      "start": 14.9996,
      "duration": 0.1601,
      "velocity": 96,
      "chip": "ym2612"
    },
    {
      "channel": 1,
      "note": 73,
      "start": 15.0019,
      "duration": 0.158,
      "velocity": 99,
      "chip": "ym2612"
    },
    {
      "channel": 4,
      "note": 92,
      "start": 15.0037,
      "duration": 0.1564,
      "velocity": 99,
      "chip": "ym2612"
    },
    {
      "channel": 5,
      "note": 25,
      "start": 15.0062,
      "duration": 0.3214,
      "velocity": 127,
      "chip": "ym2612"
    },
    {
      "channel": 0,
      "note": 38,
      "start": 15.3466,
      "duration": 0.2415,
      "velocity": 101,
      "chip": "ym2612"
    },
    {
      "channel": 3,
      "note": 83,
      "start": 15.3483,
      "duration": 0.1603,
      "velocity": 96,
      "chip": "ym2612"
    },
    {
      "channel": 1,
      "note": 92,
      "start": 15.3506,
      "duration": 0.1581,
      "velocity": 96,
      "chip": "ym2612"
    },
    {
      "channel": 2,
      "note": 92,
      "start": 15.3529,
      "duration": 0.3225,
      "velocity": 127,
      "chip": "ym2612"
    },
    {
      "channel": 5,
      "note": 25,
      "start": 15.3555,
      "duration": 0.2354,
      "velocity": 127,
      "chip": "ym2612"
    },
    {
      "channel": 1,
      "note": 73,
      "start": 15.6787,
      "duration": 0.1563,
      "velocity": 99,
      "chip": "ym2612"
    },
    {
      "channel": 4,
      "note": 88,
      "start": 15.6805,
      "duration": 0.1546,
      "velocity": 99,
      "chip": "ym2612"
    },
    {
      "channel": 2,
      "note": 92,
      "start": 15.682,
      "duration": 0.1534,
      "velocity": 127,
      "chip": "ym2612"
    },
    {
      "channel": 5,
      "note": 42,
      "start": 15.8316,
      "duration": 0.1193,
      "velocity": 127,
      "chip": "ym2612"
    },
    {
      "channel": 0,
      "note": 40,
      "start": 16.0043,
      "duration": 0.27,
      "velocity": 101,
      "chip": "ym2612"
    },
    {
      "channel": 3,
      "note": 85,
      "start": 16.0066,
      "duration": 0.1596,
      "velocity": 96,
      "chip": "ym2612"
    },
    {
      "channel": 1,
      "note": 92,
      "start": 16.0089,
      "duration": 0.1574,
      "velocity": 96,
      "chip": "ym2612"
    },
    {
      "channel": 2,
      "note": 92,
      "start": 16.0112,
      "duration": 0.3221,
      "velocity": 127,
      "chip": "ym2612"
    },
    {
      "channel": 5,
      "note": 42,
      "start": 16.0136,
      "duration": 0.3288,
      "velocity": 127,
      "chip": "ym2612"
    },
    {
      "channel": 3,
      "note": 90,
      "start": 16.3354,
      "duration": 0.0766,
      "velocity": 96,
      "chip": "ym2612"
    },
    {
      "channel": 1,
      "note": 78,
      "start": 16.3376,
      "duration": 0.155,
      "velocity": 99,
      "chip": "ym2612"
    },
    {
      "channel": 4,
      "note": 88,
      "start": 16.34,
      "duration": 0.1528,
      "velocity": 99,
      "chip": "ym2612"
    },
    {
      "channel": 2,
      "note": 92,
      "start": 16.3417,
      "duration": 0.1512,
      "velocity": 127,
      "chip": "ym2612"
    },
    {
      "channel": 0,
      "note": 35,
      "start": 16.5065,
      "duration": 0.2081,
      "velocity": 101,
      "chip": "ym2612"
    },
    {
      "channel": 3,
      "note": 90,
      "start": 16.508,
      "duration": 0.0698,
      "velocity": 96,
      "chip": "ym2612"
    },
    {
      "channel": 1,
      "note": 93,
      "start": 16.5103,
      "duration": 0.0677,
      "velocity": 96,
      "chip": "ym2612"
    },
    {
      "channel": 5,
      "note": 25,
      "start": 16.5131,
      "duration": 0.1456,
      "velocity": 127,
      "chip": "ym2612"
    },
    {
      "channel": 3,
      "note": 88,
      "start": 16.6617,
      "duration": 0.1621,
      "velocity": 96,
      "chip": "ym2612"
    },
    {
      "channel": 1,
      "note": 76,
      "start": 16.6634,
      "duration": 0.1605,
      "velocity": 96,
      "chip": "ym2612"
    },
    {
      "channel": 2,
      "note": 92,
      "start": 16.6656,
      "duration": 0.3259,
      "velocity": 127,
      "chip": "ym2612"
    },
    {
      "channel": 5,
      "note": 25,
      "start": 16.668,
      "duration": 0.2385,
      "velocity": 127,
      "chip": "ym2612"
    },
    {
      "channel": 0,
      "note": 35,
      "start": 17.012,
      "duration": 0.2573,
      "velocity": 101,
      "chip": "ym2612"
    },
    {
      "channel": 3,
      "note": 90,
      "start": 17.0134,
      "duration": 0.0734,
      "velocity": 96,
      "chip": "ym2612"
    },
    {
      "channel": 1,
      "note": 78,
      "start": 17.0156,
      "duration": 0.1498,
      "velocity": 99,
      "chip": "ym2612"
    },
    {
      "channel": 4,
      "note": 86,
      "start": 17.0174,
      "duration": 0.1576,
      "velocity": 99,
      "chip": "ym2612"
    },
    {
      "channel": 2,
      "note": 92,
      "start": 17.0189,
      "duration": 0.3212,
      "velocity": 127,
      "chip": "ym2612"
    },
    {
      "channel": 5,
      "note": 42,
      "start": 17.0212,
      "duration": 0.3267,
      "velocity": 127,
      "chip": "ym2612"
    },
    {
      "channel": 3,
      "note": 90,
      "start": 17.1678,
      "duration": 0.0791,
      "velocity": 96,
      "chip": "ym2612"
    },
    {
      "channel": 1,
      "note": 93,
      "start": 17.1701,
      "duration": 0.0769,
      "velocity": 96,
      "chip": "ym2612"
    },
    {
      "channel": 0,
      "note": 35,
      "start": 17.3417,
      "duration": 0.1105,
      "velocity": 101,
      "chip": "ym2612"
    },
    {
      "channel": 3,
      "note": 88,
      "start": 17.3434,
      "duration": 0.1551,
      "velocity": 96,
      "chip": "ym2612"
    },
    {
      "channel": 1,
      "note": 76,
      "start": 17.3451,
      "duration": 0.1536,
      "velocity": 96,
      "chip": "ym2612"
    },
    {
      "channel": 2,
      "note": 92,
      "start": 17.3472,
      "duration": 0.3129,
      "velocity": 127,
      "chip": "ym2612"
    },
    {
      "channel": 0,
      "note": 38,
      "start": 17.6676,
      "duration": 0.2478,
      "velocity": 101,
      "chip": "ym2612"
    },
    {
      "channel": 3,
      "note": 90,
      "start": 17.6691,
      "duration": 0.161,
      "velocity": 96,
      "chip": "ym2612"
    },
    {
      "channel": 1,
      "note": 78,
      "start": 17.6714,
      "duration": 0.1589,
      "velocity": 99,
      "chip": "ym2612"
    },
    {
      "channel": 4,
      "note": 86,
      "start": 17.6738,
      "duration": 0.1566,
      "velocity": 99,
      "chip": "ym2612"
    },
    {
      "channel": 5,
      "note": 25,
      "start": 17.676,
      "duration": 0.3207,
      "velocity": 127,
      "chip": "ym2612"
    },
    {
      "channel": 0,
      "note": 38,
      "start": 17.9991,
      "duration": 0.2422,
      "velocity": 101,
      "chip": "ym2612"
    },
    {
      "channel": 3,
      "note": 97,
      "start": 18.0009,
      "duration": 0.1609,
      "velocity": 96,
      "chip": "ym2612"
    },
    {
      "channel": 1,
      "note": 93,
      "start": 18.0029,
      "duration": 0.159,
      "velocity": 96,
      "chip": "ym2612"
    },
    {
      "channel": 2,
      "note": 92,
      "start": 18.0055,
      "duration": 0.3248,
      "velocity": 127,
      "chip": "ym2612"
    },
    {
      "channel": 5,
      "note": 25,
      "start": 18.0082,
      "duration": 0.2353,
      "velocity": 127,
      "chip": "ym2612"
    },
    {
      "channel": 3,
      "note": 97,
      "start": 18.3325,
      "duration": 0.0752,
      "velocity": 96,
      "chip": "ym2612"
    },
    {
      "channel": 1,
      "note": 85,
      "start": 18.3348,
      "duration": 0.1591,
      "velocity": 99,
      "chip": "ym2612"
    },
    {
      "channel": 4,
      "note": 90,
      "start": 18.3366,
      "duration": 0.1575,
      "velocity": 99,
      "chip": "ym2612"
    },
    {
      "channel": 2,
      "note": 92,
      "start": 18.3381,
      "duration": 0.1562,
      "velocity": 127,
      "chip": "ym2612"
    },
    {
      "channel": 3,
      "note": 95,
      "start": 18.5075,
      "duration": 0.0775,
      "velocity": 96,
      "chip": "ym2612"
    },
    {
      "channel": 1,
      "note": 93,
      "start": 18.5098,
      "duration": 0.0753,
      "velocity": 96,
      "chip": "ym2612"
    },
    {
      "channel": 5,
      "note": 42,
      "start": 18.5126,
      "duration": 0.1143,
      "velocity": 127,
      "chip": "ym2612"
    },
    {
      "channel": 0,
      "note": 40,
      "start": 18.6806,
      "duration": 0.2698,
      "velocity": 101,
      "chip": "ym2612"
    },
    {
      "channel": 3,
      "note": 92,
      "start": 18.6823,
      "duration": 0.1599,
      "velocity": 96,
      "chip": "ym2612"
    },
    {
      "channel": 1,
      "note": 80,
      "start": 18.684,
      "duration": 0.1584,
      "velocity": 96,
      "chip": "ym2612"
    },
    {
      "channel": 2,
      "note": 92,
      "start": 18.6862,
      "duration": 0.3237,
      "velocity": 127,
      "chip": "ym2612"
    },
    {
      "channel": 5,
      "note": 42,
      "start": 18.6888,
      "duration": 0.3295,
      "velocity": 127,
      "chip": "ym2612"
    },
    {
      "channel": 3,
      "note": 90,
      "start": 19.012,
      "duration": 0.0704,
      "velocity": 96,
      "chip": "ym2612"
    },
    {
      "channel": 1,
      "note": 78,
      "start": 19.0141,
      "duration": 0.1478,
      "velocity": 99,
      "chip": "ym2612"
    },
    {
      "channel": 4,
      "note": 90,
      "start": 19.0159,
      "duration": 0.1586,
      "velocity": 99,
      "chip": "ym2612"
    },
    {
      "channel": 2,
      "note": 92,
      "start": 19.0176,
      "duration": 0.1571,
      "velocity": 127,
      "chip": "ym2612"
    },
    {
      "channel": 0,
      "note": 35,
      "start": 19.1649,
      "duration": 0.2144,
      "velocity": 101,
      "chip": "ym2612"
    },
    {
      "channel": 3,
      "note": 90,
      "start": 19.1663,
      "duration": 0.0705,
      "velocity": 96,
      "chip": "ym2612"
    },
    {
      "channel": 1,
      "note": 92,
      "start": 19.1687,
      "duration": 0.0683,
      "velocity": 96,
      "chip": "ym2612"
    },
    {
      "channel": 5,
      "note": 25,
      "start": 19.1715,
      "duration": 0.1537,
      "velocity": 127,
      "chip": "ym2612"
    },
    {
      "channel": 3,
      "note": 92,
      "start": 19.337,
      "duration": 0.1629,
      "velocity": 96,
      "chip": "ym2612"
    },
    {
      "channel": 1,
      "note": 80,
      "start": 19.3393,
      "duration": 0.1607,
      "velocity": 96,
      "chip": "ym2612"
    },
    {
      "channel": 2,
      "note": 92,
      "start": 19.3415,
      "duration": 0.334,
      "velocity": 127,
      "chip": "ym2612"
    },
    {
      "channel": 5,
      "note": 25,
      "start": 19.3439,
      "duration": 0.2438,
      "velocity": 127,
      "chip": "ym2612"
    },
    {
      "channel": 0,
      "note": 35,
      "start": 19.6692,
      "duration": 0.2648,
      "velocity": 101,
      "chip": "ym2612"
    },
    {
      "channel": 3,
      "note": 90,
      "start": 19.6706,
      "duration": 0.1608,
      "velocity": 96,
      "chip": "ym2612"
    },
    {
      "channel": 1,
      "note": 78,
      "start": 19.673,
      "duration": 0.1587,
      "velocity": 96,
      "chip": "ym2612"
    },
    {
      "channel": 4,
      "note": 85,
      "start": 19.6746,
      "duration": 0.1571,
      "velocity": 99,
      "chip": "ym2612"
    },
    {
      "channel": 5,
      "note": 42,
      "start": 19.6774,
      "duration": 0.3291,
      "velocity": 127,
      "chip": "ym2612"
    },
    {
      "channel": 0,
      "note": 35,
      "start": 19.9996,
      "duration": 0.1173,
      "velocity": 101,
      "chip": "ym2612"
    },
    {
      "channel": 3,
      "note": 88,
      "start": 20.0014,
      "duration": 0.1561,
      "velocity": 96,
      "chip": "ym2612"
    },
    {
      "channel": 1,
      "note": 76,
      "start": 20.003,
      "duration": 0.1546,
      "velocity": 96,
      "chip": "ym2612"
    },
    {
      "channel": 2,
      "note": 92,
      "start": 20.0054,
      "duration": 0.3195,
      "velocity": 127,
      "chip": "ym2612"
    },
    {
      "channel": 0,
      "note": 38,
      "start": 20.3446,
      "duration": 0.2412,
      "velocity": 101,
      "chip": "ym2612"
    },
    {
      "channel": 3,
      "note": 85,
      "start": 20.3461,
      "duration": 0.1605,
      "velocity": 96,
      "chip": "ym2612"
    },
    {
      "channel": 1,
      "note": 73,
      "start": 20.3484,
      "duration": 0.1583,
      "velocity": 99,
      "chip": "ym2612"
    },
    {
      "channel": 4,
      "note": 92,
      "start": 20.3502,
      "duration": 0.1567,
      "velocity": 99,
      "chip": "ym2612"
    },
    {
      "channel": 5,
      "note": 25,
      "start": 20.3524,
      "duration": 0.321,
      "velocity": 127,
      "chip": "ym2612"
    },
    {
      "channel": 0,
      "note": 38,
      "start": 20.6759,
      "duration": 0.2416,
      "velocity": 101,
      "chip": "ym2612"
    },
    {
      "channel": 3,
      "note": 83,
      "start": 20.6776,
      "duration": 0.1603,
      "velocity": 96,
      "chip": "ym2612"
    },
    {
      "channel": 1,
      "note": 92,
      "start": 20.6799,
      "duration": 0.1582,
      "velocity": 96,
      "chip": "ym2612"
    },
    {
      "channel": 2,
      "note": 92,
      "start": 20.6822,
      "duration": 0.3173,
      "velocity": 127,
      "chip": "ym2612"
    },
    {
      "channel": 5,
      "note": 25,
      "start": 20.6845,
      "duration": 0.2351,
      "velocity": 127,
      "chip": "ym2612"
    },
    {
      "channel": 1,
      "note": 73,
      "start": 21.0076,
      "duration": 0.1567,
      "velocity": 99,
      "chip": "ym2612"
    },
    {
      "channel": 4,
      "note": 88,
      "start": 21.0094,
      "duration": 0.1551,
      "velocity": 99,
      "chip": "ym2612"
    },
    {
      "channel": 2,
      "note": 92,
      "start": 21.0109,
      "duration": 0.1537,
      "velocity": 127,
      "chip": "ym2612"
    },
    {
      "channel": 5,
      "note": 42,
      "start": 21.1781,
      "duration": 0.1192,
      "velocity": 127,
      "chip": "ym2612"
    },
    {
      "channel": 0,
      "note": 40,
      "start": 21.3331,
      "duration": 0.2705,
      "velocity": 101,
      "chip": "ym2612"
    },
    {
      "channel": 3,
      "note": 85,
      "start": 21.3357,
      "duration": 0.6513,
      "velocity": 96,
      "chip": "ym2612"
    },
    {
      "channel": 2,
      "note": 92,
      "start": 21.3385,
      "duration": 0.3241,
      "velocity": 127,
      "chip": "ym2612"
    },
    {
      "channel": 5,
      "note": 42,
      "start": 21.3415,
      "duration": 0.328,
      "velocity": 127,
      "chip": "ym2612"
    },
    {
      "channel": 1,
      "note": 92,
      "start": 21.6655,
      "duration": 0.1567,
      "velocity": 99,
      "chip": "ym2612"
    },
    {
      "channel": 4,
      "note": 88,
      "start": 21.6671,
      "duration": 0.1555,
      "velocity": 99,
      "chip": "ym2612"
    },
    {
      "channel": 2,
      "note": 92,
      "start": 21.6689,
      "duration": 0.154,
      "velocity": 127,
      "chip": "ym2612"
    },
    {
      "channel": 0,
      "note": 35,
      "start": 21.8334,
      "duration": 0.1537,
      "velocity": 101,
      "chip": "ym2612"
    },
    {
      "channel": 5,
      "note": 25,
      "start": 21.8369,
      "duration": 0.1501,
      "velocity": 127,
      "chip": "ym2612"
    }
  ]
}