{
  "track_name": "02 - Stage Theme 1",
  "duration_sec": 92.149,
  "sample_rate": 44100,
  "note_count": 959,
  "unique_pitches": 19,
  "pitch_range": 52,
  "avg_note_duration": 0.1136,
  "reconstruction_stats": {
    "notes_reconstructed": 959,
    "keyon_events": 959,
    "keyoff_events": 958,
    "orphan_keyons": 1,
    "unique_pitches": 19,
    "pitch_range": 52,
    "avg_duration_sec": 0.1136
  },
  "metadata": {
    "source": "H\\Hurricanes\\02 - Stage Theme 1.vgz"
  },
  "notes": [
    {
      "channel": 1,
      "note": 68,
      "start": 0.0,
      "duration": 0.0647,
      "velocity": 100,
      "chip": "ym2612"
    },
    {
      "channel": 3,
      "note": 78,
      "start": 0.0014,
      "duration": 0.0164,
      "velocity": 86,
      "chip": "ym2612"
    },
    {
      "channel": 4,
      "note": 61,
      "start": 0.0026,
      "duration": 0.0153,
      "velocity": 127,
      "chip": "ym2612"
    },
    {
      "channel": 3,
      "note": 79,
      "start": 0.0179,
      "duration": 0.016,
      "velocity": 86,
      "chip": "ym2612"
    },
    {
      "channel": 4,
      "note": 63,
      "start": 0.0181,
      "duration": 0.0161,
      "velocity": 127,
      "chip": "ym2612"
    },
    {
      "channel": 3,
      "note": 80,
      "start": 0.0341,
      "duration": 0.0147,
      "velocity": 86,
      "chip": "ym2612"
    },
    {
      "channel": 4,
      "note": 66,
      "start": 0.0343,
      "duration": 0.0146,
      "velocity": 127,
      "chip": "ym2612"
    },
    {
      "channel": 4,
      "note": 71,
      "start": 0.0491,
      "duration": 0.016,
      "velocity": 127,
      "chip": "ym2612"
    },
    {
      "channel": 1,
      "note": 68,
      "start": 0.065,
      "duration": 0.0632,
      "velocity": 100,
      "chip": "ym2612"
    },
    {
      "channel": 4,
      "note": 61,
      "start": 0.0652,
      "duration": 0.0158,
      "velocity": 127,
      "chip": "ym2612"
    },
    {
      "channel": 4,
      "note": 63,
      "start": 0.0812,
      "duration": 0.0146,
      "velocity": 127,
      "chip": "ym2612"
    },
    {
      "channel": 3,
      "note": 75,
      "start": 0.0958,
      "duration": 0.0174,
      "velocity": 86,
      "chip": "ym2612"
    },
    {
      "channel": 4,
      "note": 66,
      "start": 0.0961,
      "duration": 0.0172,
      "velocity": 127,
      "chip": "ym2612"
    },
    {
      "channel": 4,
      "note": 71,
      "start": 0.1135,
      "duration": 0.015,
      "velocity": 127,
      "chip": "ym2612"
    },
    {
      "channel": 1,
      "note": 68,
      "start": 0.1284,
      "duration": 0.0634,
      "velocity": 100,
      "chip": "ym2612"
    },
    {
      "channel": 4,
      "note": 61,
      "start": 0.1287,
      "duration": 0.0157,
      "velocity": 127,
      "chip": "ym2612"
    },
    {
      "channel": 4,
      "note": 63,
      "start": 0.1446,
      "duration": 0.0159,
      "velocity": 127,
      "chip": "ym2612"
    },
    {
      "channel": 3,
      "note": 73,
      "start": 0.1605,
      "duration": 0.0147,
      "velocity": 86,
      "chip": "ym2612"
    },
    {
      "channel": 4,
      "note": 66,
      "start": 0.1607,
      "duration": 0.0146,
      "velocity": 127,
      "chip": "ym2612"
    },
    {
      "channel": 4,
      "note": 71,
      "start": 0.1755,
      "duration": 0.0166,
      "velocity": 127,
      "chip": "ym2612"
    },
    {
      "channel": 1,
      "note": 68,
      "start": 0.1921,
      "duration": 0.0636,
      "velocity": 100,
      "chip": "ym2612"
    },
    {
      "channel": 4,
      "note": 61,
      "start": 0.1923,
      "duration": 0.0155,
      "velocity": 127,
      "chip": "ym2612"
    },
    {
      "channel": 4,
      "note": 63,
      "start": 0.208,
      "duration": 0.0168,
      "velocity": 127,
      "chip": "ym2612"
    },
    {
      "channel": 3,
      "note": 66,
      "start": 0.2248,
      "duration": 0.016,
      "velocity": 86,
      "chip": "ym2612"
    },
    {
      "channel": 4,
      "note": 66,
      "start": 0.225,
      "duration": 0.0159,
      "velocity": 127,
      "chip": "ym2612"
    },
    {
      "channel": 4,
      "note": 71,
      "start": 0.2411,
      "duration": 0.0152,
      "velocity": 127,
      "chip": "ym2612"
    },
    {
      "channel": 1,
      "note": 68,
      "start": 0.2558,
      "duration": 0.0654,
      "velocity": 100,
      "chip": "ym2612"
    },
    {
      "channel": 3,
      "note": 68,
      "start": 0.2562,
      "duration": 0.0161,
      "velocity": 86,
      "chip": "ym2612"
    },
    {
      "channel": 4,
      "note": 61,
      "start": 0.2564,
      "duration": 0.0159,
      "velocity": 127,
      "chip": "ym2612"
    },
    {
      "channel": 4,
      "note": 63,
      "start": 0.2725,
      "duration": 0.0146,
      "velocity": 127,
      "chip": "ym2612"
    },
    {
      "channel": 4,
      "note": 66,
      "start": 0.2874,
      "duration": 0.0168,
      "velocity": 127,
      "chip": "ym2612"
    },
    {
      "channel": 4,
      "note": 73,
      "start": 0.3044,
      "duration": 0.0172,
      "velocity": 127,
      "chip": "ym2612"
    },
    {
      "channel": 1,
      "note": 68,
      "start": 0.3215,
      "duration": 0.0613,
      "velocity": 100,
      "chip": "ym2612"
    },
    {
      "channel": 4,
      "note": 61,
      "start": 0.3217,
      "duration": 0.0144,
      "velocity": 127,
      "chip": "ym2612"
    },
    {
      "channel": 4,
      "note": 63,
      "start": 0.3363,
      "duration": 0.0157,
      "velocity": 127,
      "chip": "ym2612"
    },
    {
      "channel": 4,
      "note": 66,
      "start": 0.3522,
      "duration": 0.0144,
      "velocity": 127,
      "chip": "ym2612"
    },
    {
      "channel": 4,
      "note": 73,
      "start": 0.3668,
      "duration": 0.0163,
      "velocity": 127,
      "chip": "ym2612"
    },
    {
      "channel": 1,
      "note": 68,
      "start": 0.383,
      "duration": 0.0635,
      "velocity": 100,
      "chip": "ym2612"
    },
    {
      "channel": 4,
      "note": 61,
      "start": 0.3833,
      "duration": 0.0164,
      "velocity": 127,
      "chip": "ym2612"
    },
    {
      "channel": 4,
      "note": 63,
      "start": 0.3999,
      "duration": 0.0158,
      "velocity": 127,
      "chip": "ym2612"
    },
    {
      "channel": 4,
      "note": 66,
      "start": 0.4158,
      "duration": 0.0161,
      "velocity": 127,
      "chip": "ym2612"
    },
    {
      "channel": 4,
      "note": 73,
      "start": 0.4321,
      "duration": 0.0148,
      "velocity": 127,
      "chip": "ym2612"
    },
    {
      "channel": 1,
      "note": 68,
      "start": 0.4468,
      "duration": 0.0661,
      "velocity": 100,
      "chip": "ym2612"
    },
    {
      "channel": 4,
      "note": 61,
      "start": 0.447,
      "duration": 0.0158,
      "velocity": 127,
      "chip": "ym2612"
    },
    {
      "channel": 4,
      "note": 63,
      "start": 0.463,
      "duration": 0.0157,
      "velocity": 127,
      "chip": "ym2612"
    },
    {
      "channel": 4,
      "note": 66,
      "start": 0.4789,
      "duration": 0.015,
      "velocity": 127,
      "chip": "ym2612"
    },
    {
      "channel": 4,
      "note": 73,
      "start": 0.4941,
      "duration": 0.0194,
      "velocity": 127,
      "chip": "ym2612"
    },
    {
      "channel": 0,
      "note": 42,
      "start": 0.5128,
      "duration": 0.0157,
      "velocity": 127,
      "chip": "ym2612"
    },
    {
      "channel": 1,
      "note": 68,
      "start": 0.5132,
      "duration": 0.0628,
      "velocity": 100,
      "chip": "ym2612"
    },
    {
      "channel": 3,
      "note": 78,
      "start": 0.5135,
      "duration": 0.0153,
      "velocity": 86,
      "chip": "ym2612"
    },
    {
      "channel": 4,
      "note": 61,
      "start": 0.5138,
      "duration": 0.0152,
      "velocity": 127,
      "chip": "ym2612"
    },
    {
      "channel": 0,
      "note": 43,
      "start": 0.5287,
      "duration": 0.0162,
      "velocity": 127,
      "chip": "ym2612"
    },
    {
      "channel": 3,
      "note": 79,
      "start": 0.529,
      "duration": 0.0162,
      "velocity": 86,
      "chip": "ym2612"
    },
    {
      "channel": 4,
      "note": 63,
      "start": 0.5292,
      "duration": 0.0162,
      "velocity": 127,
      "chip": "ym2612"
    },
    {
      "channel": 0,
      "note": 44,
      "start": 0.5451,
      "duration": 0.0162,
      "velocity": 127,
      "chip": "ym2612"
    },
    {
      "channel": 3,
      "note": 80,
      "start": 0.5453,
      "duration": 0.0161,
      "velocity": 86,
      "chip": "ym2612"
    },
    {
      "channel": 4,
      "note": 66,
      "start": 0.5456,
      "duration": 0.0159,
      "velocity": 127,
      "chip": "ym2612"
    },
    {
      "channel": 4,
      "note": 71,
      "start": 0.5616,
      "duration": 0.0146,
      "velocity": 127,
      "chip": "ym2612"
    },
    {
      "channel": 1,
      "note": 68,
      "start": 0.5762,
      "duration": 0.0654,
      "velocity": 100,
      "chip": "ym2612"
    },
    {
      "channel": 4,
      "note": 61,
      "start": 0.5764,
      "duration": 0.0164,
      "velocity": 127,
      "chip": "ym2612"
    },
    {
      "channel": 4,
      "note": 63,
      "start": 0.593,
      "duration": 0.0159,
      "velocity": 127,
      "chip": "ym2612"
    },
    {
      "channel": 3,
      "note": 75,
      "start": 0.6088,
      "duration": 0.0169,
      "velocity": 86,
      "chip": "ym2612"
    },
    {
      "channel": 4,
      "note": 66,
      "start": 0.609,
      "duration": 0.0168,
      "velocity": 127,
      "chip": "ym2612"
    },
    {
      "channel": 4,
      "note": 71,
      "start": 0.6259,
      "duration": 0.016,
      "velocity": 127,
      "chip": "ym2612"
    },
    {
      "channel": 1,
      "note": 68,
      "start": 0.6419,
      "duration": 0.0626,
      "velocity": 100,
      "chip": "ym2612"
    },
    {
      "channel": 4,
      "note": 61,
      "start": 0.6421,
      "duration": 0.0144,
      "velocity": 127,
      "chip": "ym2612"
    },
    {
      "channel": 4,
      "note": 63,
      "start": 0.6567,
      "duration": 0.0159,
      "velocity": 127,
      "chip": "ym2612"
    },
    {
      "channel": 3,
      "note": 73,
      "start": 0.6725,
      "duration": 0.0149,
      "velocity": 86,
      "chip": "ym2612"
    },
    {
      "channel": 4,
      "note": 66,
      "start": 0.6728,
      "duration": 0.0147,
      "velocity": 127,
      "chip": "ym2612"
    },
    {
      "channel": 4,
      "note": 71,
      "start": 0.6877,
      "duration": 0.0171,
      "velocity": 127,
      "chip": "ym2612"
    },
    {
      "channel": 1,
      "note": 68,
      "start": 0.7048,
      "duration": 0.0628,
      "velocity": 100,
      "chip": "ym2612"
    },
    {
      "channel": 4,
      "note": 61,
      "start": 0.705,
      "duration": 0.0169,
      "velocity": 127,
      "chip": "ym2612"
    },
    {
      "channel": 4,
      "note": 63,
      "start": 0.7221,
      "duration": 0.0146,
      "velocity": 127,
      "chip": "ym2612"
    },
    {
      "channel": 3,
      "note": 66,
      "start": 0.7366,
      "duration": 0.0159,
      "velocity": 86,
      "chip": "ym2612"
    },
    {
      "channel": 4,
      "note": 66,
      "start": 0.7369,
      "duration": 0.0157,
      "velocity": 127,
      "chip": "ym2612"
    },
    {
      "channel": 4,
      "note": 71,
      "start": 0.7528,
      "duration": 0.0154,
      "velocity": 127,
      "chip": "ym2612"
    },
    {
      "channel": 0,
      "note": 42,
      "start": 0.7675,
      "duration": 0.0168,
      "velocity": 127,
      "chip": "ym2612"
    },
    {
      "channel": 1,
      "note": 68,
      "start": 0.7678,
      "duration": 0.0658,
      "velocity": 100,
      "chip": "ym2612"
    },
    {
      "channel": 3,
      "note": 63,
      "start": 0.7681,
      "duration": 0.0165,
      "velocity": 86,
      "chip": "ym2612"
    },
    {
      "channel": 4,
      "note": 61,
      "start": 0.7683,
      "duration": 0.0164,
      "velocity": 127,
      "chip": "ym2612"
    },
    {
      "channel": 0,
      "note": 43,
      "start": 0.7846,
      "duration": 0.0166,
      "velocity": 127,
      "chip": "ym2612"
    },
    {
      "channel": 4,
      "note": 63,
      "start": 0.7849,
      "duration": 0.0165,
      "velocity": 127,
      "chip": "ym2612"
    },
    {
      "channel": 0,
      "note": 44,
      "start": 0.8013,
      "duration": 0.0161,
      "velocity": 127,
      "chip": "ym2612"
    },
    {
      "channel": 4,
      "note": 66,
      "start": 0.8015,
      "duration": 0.0159,
      "velocity": 127,
      "chip": "ym2612"
    },
    {
      "channel": 4,
      "note": 73,
      "start": 0.8177,
      "duration": 0.0162,
      "velocity": 127,
      "chip": "ym2612"
    },
    {
      "channel": 1,
      "note": 68,
      "start": 0.8338,
      "duration": 0.0621,
      "velocity": 100,
      "chip": "ym2612"
    },
    {
      "channel": 4,
      "note": 61,
      "start": 0.8341,
      "duration": 0.0144,
      "velocity": 127,
      "chip": "ym2612"
    },
    {
      "channel": 4,
      "note": 63,
      "start": 0.8487,
      "duration": 0.0159,
      "velocity": 127,
      "chip": "ym2612"
    },
    {
      "channel": 3,
      "note": 61,
      "start": 0.8646,
      "duration": 0.016,
      "velocity": 86,
      "chip": "ym2612"
    },
    {
      "channel": 4,
      "note": 66,
      "start": 0.8649,
      "duration": 0.0159,
      "velocity": 127,
      "chip": "ym2612"
    },
    {
      "channel": 4,
      "note": 73,
      "start": 0.8809,
      "duration": 0.0153,
      "velocity": 127,
      "chip": "ym2612"
    },
    {
      "channel": 1,
      "note": 68,
      "start": 0.8962,
      "duration": 0.0645,
      "velocity": 100,
      "chip": "ym2612"
    },
    {
      "channel": 4,
      "note": 61,
      "start": 0.8964,
      "duration": 0.0174,
      "velocity": 127,
      "chip": "ym2612"
    },
    {
      "channel": 4,
      "note": 63,
      "start": 0.914,
      "duration": 0.0148,
      "velocity": 127,
      "chip": "ym2612"
    },
    {
      "channel": 4,
      "note": 66,
      "start": 0.929,
      "duration": 0.0157,
      "velocity": 127,
      "chip": "ym2612"
    },
    {
      "channel": 4,
      "note": 73,
      "start": 0.9449,
      "duration": 0.016,
      "velocity": 127,
      "chip": "ym2612"
    },
    {
      "channel": 1,
      "note": 68,
      "start": 0.9609,
      "duration": 0.0639,
      "velocity": 100,
      "chip": "ym2612"
    },
    {
      "channel": 4,
      "note": 61,
      "start": 0.9611,
      "duration": 0.0144,
      "velocity": 127,
      "chip": "ym2612"
    },
    {
      "channel": 4,
      "note": 63,
      "start": 0.9757,
      "duration": 0.0162,
      "velocity": 127,
      "chip": "ym2612"
    },
    {
      "channel": 4,
      "note": 66,
      "start": 0.9921,
      "duration": 0.0156,
      "velocity": 127,
      "chip": "ym2612"
    },
    {
      "channel": 4,
      "note": 73,
      "start": 1.0078,
      "duration": 0.0176,
      "velocity": 127,
      "chip": "ym2612"
    },
    {
      "channel": 0,
      "note": 42,
      "start": 1.0247,
      "duration": 0.0167,
      "velocity": 127,
      "chip": "ym2612"
    },
    {
      "channel": 1,
      "note": 68,
      "start": 1.025,
      "duration": 0.063,
      "velocity": 100,
      "chip": "ym2612"
    },
    {
      "channel": 3,
      "note": 78,
      "start": 1.0254,
      "duration": 0.0163,
      "velocity": 86,
      "chip": "ym2612"
    },
    {
      "channel": 4,
      "note": 61,
      "start": 1.0257,
      "duration": 0.0162,
      "velocity": 127,
      "chip": "ym2612"
    },
    {
      "channel": 0,
      "note": 43,
      "start": 1.0416,
      "duration": 0.0148,
      "velocity": 127,
      "chip": "ym2612"
    },
    {
      "channel": 3,
      "note": 79,
      "start": 1.0418,
      "duration": 0.0148,
      "velocity": 86,
      "chip": "ym2612"
    },
    {
      "channel": 4,
      "note": 63,
      "start": 1.0421,
      "duration": 0.0148,
      "velocity": 127,
      "chip": "ym2612"
    },
    {
      "channel": 0,
      "note": 44,
      "start": 1.0566,
      "duration": 0.0163,
      "velocity": 127,
      "chip": "ym2612"
    },
    {
      "channel": 3,
      "note": 80,
      "start": 1.0568,
      "duration": 0.0161,
      "velocity": 86,
      "chip": "ym2612"
    },
    {
      "channel": 4,
      "note": 66,
      "start": 1.0571,
      "duration": 0.016,
      "velocity": 127,
      "chip": "ym2612"
    },
    {
      "channel": 4,
      "note": 71,
      "start": 1.0732,
      "duration": 0.0151,
      "velocity": 127,
      "chip": "ym2612"
    },
    {
      "channel": 1,
      "note": 68,
      "start": 1.0882,
      "duration": 0.065,
      "velocity": 100,
      "chip": "ym2612"
    },
    {
      "channel": 4,
      "note": 61,
      "start": 1.0885,
      "duration": 0.0169,
      "velocity": 127,
      "chip": "ym2612"
    },
    {
      "channel": 4,
      "note": 63,
      "start": 1.1056,
      "duration": 0.017,
      "velocity": 127,
      "chip": "ym2612"
    },
    {
      "channel": 3,
      "note": 75,
      "start": 1.1225,
      "duration": 0.0147,
      "velocity": 86,
      "chip": "ym2612"
    },
    {
      "channel": 4,
      "note": 66,
      "start": 1.1227,
      "duration": 0.0145,
      "velocity": 127,
      "chip": "ym2612"
    },
    {
      "channel": 4,
      "note": 71,
      "start": 1.1375,
      "duration": 0.0161,
      "velocity": 127,
      "chip": "ym2612"
    },
    {
      "channel": 1,
      "note": 68,
      "start": 1.1535,
      "duration": 0.0637,
      "velocity": 100,
      "chip": "ym2612"
    },
    {
      "channel": 4,
      "note": 61,
      "start": 1.1537,
      "duration": 0.0144,
      "velocity": 127,
      "chip": "ym2612"
    },
    {
      "channel": 4,
      "note": 63,
      "start": 1.1684,
      "duration": 0.0163,
      "velocity": 127,
      "chip": "ym2612"
    },
    {
      "channel": 3,
      "note": 73,
      "start": 1.1846,
      "duration": 0.0166,
      "velocity": 86,
      "chip": "ym2612"
    },
    {
      "channel": 4,
      "note": 66,
      "start": 1.1848,
      "duration": 0.0164,
      "velocity": 127,
      "chip": "ym2612"
    },
    {
      "channel": 4,
      "note": 71,
      "start": 1.2015,
      "duration": 0.0161,
      "velocity": 127,
      "chip": "ym2612"
    },
    {
      "channel": 1,
      "note": 68,
      "start": 1.2175,
      "duration": 0.0634,
      "velocity": 100,
      "chip": "ym2612"
    },
    {
      "channel": 4,
      "note": 61,
      "start": 1.2177,
      "duration": 0.0161,
      "velocity": 127,
      "chip": "ym2612"
    },
    {
      "channel": 4,
      "note": 63,
      "start": 1.234,
      "duration": 0.0146,
      "velocity": 127,
      "chip": "ym2612"
    },
    {
      "channel": 3,
      "note": 66,
      "start": 1.2486,
      "duration": 0.016,
      "velocity": 86,
      "chip": "ym2612"
    },
    {
      "channel": 4,
      "note": 66,
      "start": 1.2488,
      "duration": 0.0158,
      "velocity": 127,
      "chip": "ym2612"
    },
    {
      "channel": 4,
      "note": 71,
      "start": 1.2649,
      "duration": 0.0166,
      "velocity": 127,
      "chip": "ym2612"
    },
    {
      "channel": 0,
      "note": 42,
      "start": 1.2808,
      "duration": 0.016,
      "velocity": 127,
      "chip": "ym2612"
    },
    {
      "channel": 1,
      "note": 68,
      "start": 1.2811,
      "duration": 0.0648,
      "velocity": 100,
      "chip": "ym2612"
    },
    {
      "channel": 3,
      "note": 68,
      "start": 1.2814,
      "duration": 0.0156,
      "velocity": 86,
      "chip": "ym2612"
    },
    {
      "channel": 4,
      "note": 61,
      "start": 1.2817,
      "duration": 0.0155,
      "velocity": 127,
      "chip": "ym2612"
    },
    {
      "channel": 0,
      "note": 43,
      "start": 1.297,
      "duration": 0.0177,
      "velocity": 127,
      "chip": "ym2612"
    },
    {
      "channel": 4,
      "note": 63,
      "start": 1.2973,
      "duration": 0.0177,
      "velocity": 127,
      "chip": "ym2612"
    },
    {
      "channel": 0,
      "note": 44,
      "start": 1.3149,
      "duration": 0.015,
      "velocity": 127,
      "chip": "ym2612"
    },
    {
      "channel": 4,
      "note": 66,
      "start": 1.3151,
      "duration": 0.0148,
      "velocity": 127,
      "chip": "ym2612"
    },
    {
      "channel": 4,
      "note": 73,
      "start": 1.3302,
      "duration": 0.016,
      "velocity": 127,
      "chip": "ym2612"
    },
    {
      "channel": 1,
      "note": 68,
      "start": 1.3461,
      "duration": 0.0629,
      "velocity": 100,
      "chip": "ym2612"
    },
    {
      "channel": 4,
      "note": 61,
      "start": 1.3463,
      "duration": 0.0158,
      "velocity": 127,
      "chip": "ym2612"
    },
    {
      "channel": 4,
      "note": 63,
      "start": 1.3623,
      "duration": 0.0144,
      "velocity": 127,
      "chip": "ym2612"
    },
    {
      "channel": 4,
      "note": 66,
      "start": 1.377,
      "duration": 0.0163,
      "velocity": 127,
      "chip": "ym2612"
    },
    {
      "channel": 4,
      "note": 73,
      "start": 1.3935,
      "duration": 0.0158,
      "velocity": 127,
      "chip": "ym2612"
    },
    {
      "channel": 1,
      "note": 68,
      "start": 1.4092,
      "duration": 0.0633,
      "velocity": 100,
      "chip": "ym2612"
    },
    {
      "channel": 4,
      "note": 61,
      "start": 1.4095,
      "duration": 0.0166,
      "velocity": 127,
      "chip": "ym2612"
    },
    {
      "channel": 4,
      "note": 63,
      "start": 1.4263,
      "duration": 0.0157,
      "velocity": 127,
      "chip": "ym2612"
    },
    {
      "channel": 4,
      "note": 66,
      "start": 1.4422,
      "duration": 0.0144,
      "velocity": 127,
      "chip": "ym2612"
    },
    {
      "channel": 4,
      "note": 73,
      "start": 1.4568,
      "duration": 0.016,
      "velocity": 127,
      "chip": "ym2612"
    },
    {
      "channel": 1,
      "note": 68,
      "start": 1.4727,
      "duration": 0.0641,
      "velocity": 100,
      "chip": "ym2612"
    },
    {
      "channel": 4,
      "note": 61,
      "start": 1.473,
      "duration": 0.0147,
      "velocity": 127,
      "chip": "ym2612"
    },
    {
      "channel": 4,
      "note": 63,
      "start": 1.4879,
      "duration": 0.0169,
      "velocity": 127,
      "chip": "ym2612"
    },
    {
      "channel": 4,
      "note": 66,
      "start": 1.505,
      "duration": 0.0168,
      "velocity": 127,
      "chip": "ym2612"
    },
    {
      "channel": 4,
      "note": 73,
      "start": 1.522,
      "duration": 0.0154,
      "velocity": 127,
      "chip": "ym2612"
    },
    {
      "channel": 0,
      "note": 42,
      "start": 1.5367,
      "duration": 0.0167,
      "velocity": 127,
      "chip": "ym2612"
    },
    {
      "channel": 1,
      "note": 68,
      "start": 1.537,
      "duration": 0.0648,
      "velocity": 100,
      "chip": "ym2612"
    },
    {
      "channel": 3,
      "note": 78,
      "start": 1.5374,
      "duration": 0.0163,
      "velocity": 86,
      "chip": "ym2612"
    },
    {
      "channel": 4,
      "note": 61,
      "start": 1.5376,
      "duration": 0.0163,
      "velocity": 127,
      "chip": "ym2612"
    },
    {
      "channel": 0,
      "note": 43,
      "start": 1.5536,
      "duration": 0.0148,
      "velocity": 127,
      "chip": "ym2612"
    },
    {
      "channel": 3,
      "note": 79,
      "start": 1.5538,
      "duration": 0.0148,
      "velocity": 86,
      "chip": "ym2612"
    },
    {
      "channel": 4,
      "note": 63,
      "start": 1.554,
      "duration": 0.0149,
      "velocity": 127,
      "chip": "ym2612"
    },
    {
      "channel": 0,
      "note": 44,
      "start": 1.5686,
      "duration": 0.0166,
      "velocity": 127,
      "chip": "ym2612"
    },
    {
      "channel": 3,
      "note": 80,
      "start": 1.5688,
      "duration": 0.0164,
      "velocity": 86,
      "chip": "ym2612"
    },
    {
      "channel": 4,
      "note": 66,
      "start": 1.5691,
      "duration": 0.0162,
      "velocity": 127,
      "chip": "ym2612"
    },
    {
      "channel": 4,
      "note": 71,
      "start": 1.5855,
      "duration": 0.0166,
      "velocity": 127,
      "chip": "ym2612"
    },
    {
      "channel": 1,
      "note": 68,
      "start": 1.6021,
      "duration": 0.0632,
      "velocity": 100,
      "chip": "ym2612"
    },
    {
      "channel": 4,
      "note": 61,
      "start": 1.6023,
      "duration": 0.0159,
      "velocity": 127,
      "chip": "ym2612"
    },
    {
      "channel": 4,
      "note": 63,
      "start": 1.6184,
      "duration": 0.0163,
      "velocity": 127,
      "chip": "ym2612"
    },
    {
      "channel": 3,
      "note": 75,
      "start": 1.6346,
      "duration": 0.0147,
      "velocity": 86,
      "chip": "ym2612"
    },
    {
      "channel": 4,
      "note": 66,
      "start": 1.6348,
      "duration": 0.0145,
      "velocity": 127,
      "chip": "ym2612"
    },
    {
      "channel": 4,
      "note": 71,
      "start": 1.6495,
      "duration": 0.016,
      "velocity": 127,
      "chip": "ym2612"
    },
    {
      "channel": 1,
      "note": 68,
      "start": 1.6655,
      "duration": 0.064,
      "velocity": 100,
      "chip": "ym2612"
    },
    {
      "channel": 4,
      "note": 61,
      "start": 1.6657,
      "duration": 0.0158,
      "velocity": 127,
      "chip": "ym2612"
    },
    {
      "channel": 4,
      "note": 63,
      "start": 1.6817,
      "duration": 0.0152,
      "velocity": 127,
      "chip": "ym2612"
    },
    {
      "channel": 3,
      "note": 73,
      "start": 1.6969,
      "duration": 0.0177,
      "velocity": 86,
      "chip": "ym2612"
    },
    {
      "channel": 4,
      "note": 66,
      "start": 1.6971,
      "duration": 0.0175,
      "velocity": 127,
      "chip": "ym2612"
    },
    {
      "channel": 4,
      "note": 71,
      "start": 1.7148,
      "duration": 0.015,
      "velocity": 127,
      "chip": "ym2612"
    },
    {
      "channel": 1,
      "note": 68,
      "start": 1.7298,
      "duration": 0.0637,
      "velocity": 100,
      "chip": "ym2612"
    },
    {
      "channel": 4,
      "note": 61,
      "start": 1.73,
      "duration": 0.0158,
      "velocity": 127,
      "chip": "ym2612"
    },
    {
      "channel": 4,
      "note": 63,
      "start": 1.746,
      "duration": 0.0159,
      "velocity": 127,
      "chip": "ym2612"
    },
    {
      "channel": 3,
      "note": 66,
      "start": 1.7618,
      "duration": 0.0147,
      "velocity": 86,
      "chip": "ym2612"
    },
    {
      "channel": 4,
      "note": 66,
      "start": 1.7621,
      "duration": 0.0145,
      "velocity": 127,
      "chip": "ym2612"
    },
    {
      "channel": 4,
      "note": 71,
      "start": 1.7768,
      "duration": 0.0172,
      "velocity": 127,
      "chip": "ym2612"
    },
    {
      "channel": 0,
      "note": 42,
      "start": 1.7934,
      "duration": 0.0165,
      "velocity": 127,
      "chip": "ym2612"
    },
    {
      "channel": 1,
      "note": 68,
      "start": 1.7937,
      "duration": 0.0643,
      "velocity": 100,
      "chip": "ym2612"
    },
    {
      "channel": 3,
      "note": 63,
      "start": 1.7941,
      "duration": 0.0161,
      "velocity": 86,
      "chip": "ym2612"
    },
    {
      "channel": 4,
      "note": 61,
      "start": 1.7942,
      "duration": 0.016,
      "velocity": 127,
      "chip": "ym2612"
    },
    {
      "channel": 0,
      "note": 43,
      "start": 1.8101,
      "duration": 0.0169,
      "velocity": 127,
      "chip": "ym2612"
    },
    {
      "channel": 4,
      "note": 63,
      "start": 1.8105,
      "duration": 0.0168,
      "velocity": 127,
      "chip": "ym2612"
    },
    {
      "channel": 0,
      "note": 44,
      "start": 1.8272,
      "duration": 0.016,
      "velocity": 127,
      "chip": "ym2612"
    },
    {
      "channel": 4,
      "note": 66,
      "start": 1.8274,
      "duration": 0.0159,
      "velocity": 127,
      "chip": "ym2612"
    },
    {
      "channel": 4,
      "note": 73,
      "start": 1.8435,
      "duration": 0.0147,
      "velocity": 127,
      "chip": "ym2612"
    },
    {
      "channel": 1,
      "note": 68,
      "start": 1.8582,
      "duration": 0.0653,
      "velocity": 100,
      "chip": "ym2612"
    },
    {
      "channel": 4,
      "note": 61,
      "start": 1.8584,
      "duration": 0.0158,
      "velocity": 127,
      "chip": "ym2612"
    },
    {
      "channel": 4,
      "note": 63,
      "start": 1.8744,
      "duration": 0.0149,
      "velocity": 127,
      "chip": "ym2612"
    },
    {
      "channel": 3,
      "note": 61,
      "start": 1.8893,
      "duration": 0.0172,
      "velocity": 86,
      "chip": "ym2612"
    },
    {
      "channel": 4,
      "note": 66,
      "start": 1.8895,
      "duration": 0.017,
      "velocity": 127,
      "chip": "ym2612"
    },
    {
      "channel": 4,
      "note": 73,
      "start": 1.9067,
      "duration": 0.017,
      "velocity": 127,
      "chip": "ym2612"
    },
    {
      "channel": 1,
      "note": 68,
      "start": 1.9237,
      "duration": 0.0615,
      "velocity": 100,
      "chip": "ym2612"
    },
    {
      "channel": 4,
      "note": 61,
      "start": 1.9239,
      "duration": 0.0144,
      "velocity": 127,
      "chip": "ym2612"
    },
    {
      "channel": 4,
      "note": 63,
      "start": 1.9385,
      "duration": 0.0158,
      "velocity": 127,
      "chip": "ym2612"
    },
    {
      "channel": 4,
      "note": 66,
      "start": 1.9546,
      "duration": 0.0144,
      "velocity": 127,
      "chip": "ym2612"
    },
    {
      "channel": 4,
      "note": 73,
      "start": 1.9692,
      "duration": 0.0163,
      "velocity": 127,
      "chip": "ym2612"
    },
    {
      "channel": 1,
      "note": 68,
      "start": 1.9854,
      "duration": 0.0639,
      "velocity": 100,
      "chip": "ym2612"
    },
    {
      "channel": 4,
      "note": 61,
      "start": 1.9856,
      "duration": 0.0163,
      "velocity": 127,
      "chip": "ym2612"
    },
    {
      "channel": 4,
      "note": 63,
      "start": 2.0021,
      "duration": 0.0158,
      "velocity": 127,
      "chip": "ym2612"
    },
    {
      "channel": 4,
      "note": 66,
      "start": 2.0181,
      "duration": 0.0159,
      "velocity": 127,
      "chip": "ym2612"
    },
    {
      "channel": 4,
      "note": 73,
      "start": 2.0343,
      "duration": 0.0166,
      "velocity": 127,
      "chip": "ym2612"
    },
    {
      "channel": 0,
      "note": 42,
      "start": 2.0492,
      "duration": 0.0178,
      "velocity": 127,
      "chip": "ym2612"
    },
    {
      "channel": 1,
      "note": 68,
      "start": 2.0494,
      "duration": 0.0667,
      "velocity": 100,
      "chip": "ym2612"
    },
    {
      "channel": 2,
      "note": 32,
      "start": 2.0507,
      "duration": 0.0965,
      "velocity": 114,
      "chip": "ym2612"
    },
    {
      "channel": 4,
      "note": 68,
      "start": 2.0511,
      "duration": 0.0161,
      "velocity": 127,
      "chip": "ym2612"
    },
    {
      "channel": 0,
      "note": 43,
      "start": 2.0671,
      "duration": 0.016,
      "velocity": 127,
      "chip": "ym2612"
    },
    {
      "channel": 4,
      "note": 71,
      "start": 2.0673,
      "duration": 0.016,
      "velocity": 127,
      "chip": "ym2612"
    },
    {
      "channel": 0,
      "note": 44,
      "start": 2.0832,
      "duration": 0.0152,
      "velocity": 127,
      "chip": "ym2612"
    },
    {
      "channel": 4,
      "note": 63,
      "start": 2.0835,
      "duration": 0.0151,
      "velocity": 127,
      "chip": "ym2612"
    },
    {
      "channel": 4,
      "note": 61,
      "start": 2.0988,
      "duration": 0.0177,
      "velocity": 127,
      "chip": "ym2612"
    },
    {
      "channel": 1,
      "note": 68,
      "start": 2.1164,
      "duration": 0.0615,
      "velocity": 100,
      "chip": "ym2612"
    },
    {
      "channel": 4,
      "note": 59,
      "start": 2.1166,
      "duration": 0.0148,
      "velocity": 127,
      "chip": "ym2612"
    },
    {
      "channel": 2,
      "note": 32,
      "start": 2.1475,
      "duration": 0.0308,
      "velocity": 114,
      "chip": "ym2612"
    },
    {
      "channel": 4,
      "note": 54,
      "start": 2.1476,
      "duration": 0.0159,
      "velocity": 127,
      "chip": "ym2612"
    },
    {
      "channel": 1,
      "note": 68,
      "start": 2.1782,
      "duration": 0.0661,
      "velocity": 100,
      "chip": "ym2612"
    },
    {
      "channel": 2,
      "note": 84,
      "start": 2.1794,
      "duration": 0.0652,
      "velocity": 127,
      "chip": "ym2612"
    },
    {
      "channel": 4,
      "note": 51,
      "start": 2.1796,
      "duration": 0.0164,
      "velocity": 127,
      "chip": "ym2612"
    },
    {
      "channel": 4,
      "note": 54,
      "start": 2.2119,
      "duration": 0.0166,
      "velocity": 127,
      "chip": "ym2612"
    },
    {
      "channel": 4,
      "note": 59,
      "start": 2.2287,
      "duration": 0.0172,
      "velocity": 127,
      "chip": "ym2612"
    },
    {
      "channel": 1,
      "note": 68,
      "start": 2.2445,
      "duration": 0.0642,
      "velocity": 100,
      "chip": "ym2612"
    },
    {
      "channel": 2,
      "note": 32,
      "start": 2.2457,
      "duration": 0.0633,
      "velocity": 114,
      "chip": "ym2612"
    },
    {
      "channel": 4,
      "note": 61,
      "start": 2.246,
      "duration": 0.0145,
      "velocity": 127,
      "chip": "ym2612"
    },
    {
      "channel": 4,
      "note": 63,
      "start": 2.2607,
      "duration": 0.0158,
      "velocity": 127,
      "chip": "ym2612"
    },
    {
      "channel": 4,
      "note": 68,
      "start": 2.2767,
      "duration": 0.0147,
      "velocity": 127,
      "chip": "ym2612"
    },
    {
      "channel": 4,
      "note": 71,
      "start": 2.2916,
      "duration": 0.0178,
      "velocity": 127,
      "chip": "ym2612"
    },
    {
      "channel": 0,
      "note": 42,
      "start": 2.3087,
      "duration": 0.0177,
      "velocity": 127,
      "chip": "ym2612"
    },
    {
      "channel": 1,
      "note": 68,
      "start": 2.309,
      "duration": 0.063,
      "velocity": 100,
      "chip": "ym2612"
    },
    {
      "channel": 2,
      "note": 32,
      "start": 2.3093,
      "duration": 0.0954,
      "velocity": 114,
      "chip": "ym2612"
    },
    {
      "channel": 4,
      "note": 68,
      "start": 2.3096,
      "duration": 0.0171,
      "velocity": 127,
      "chip": "ym2612"
    },
    {
      "channel": 0,
      "note": 43,
      "start": 2.3266,
      "duration": 0.0146,
      "velocity": 127,
      "chip": "ym2612"
    },
    {
      "channel": 4,
      "note": 71,
      "start": 2.3268,
      "duration": 0.0146,
      "velocity": 127,
      "chip": "ym2612"
    },
    {
      "channel": 0,
      "note": 44,
      "start": 2.3413,
      "duration": 0.0159,
      "velocity": 127,
      "chip": "ym2612"
    },
    {
      "channel": 4,
      "note": 63,
      "start": 2.3416,
      "duration": 0.0157,
      "velocity": 127,
      "chip": "ym2612"
    },
    {
      "channel": 4,
      "note": 61,
      "start": 2.3575,
      "duration": 0.0147,
      "velocity": 127,
      "chip": "ym2612"
    },
    {
      "channel": 1,
      "note": 68,
      "start": 2.3722,
      "duration": 0.0646,
      "velocity": 100,
      "chip": "ym2612"
    },
    {
      "channel": 4,
      "note": 63,
      "start": 2.3724,
      "duration": 0.0158,
      "velocity": 127,
      "chip": "ym2612"
    },
    {
      "channel": 2,
      "note": 32,
      "start": 2.4048,
      "duration": 0.0323,
      "velocity": 114,
      "chip": "ym2612"
    },
    {
      "channel": 4,
      "note": 59,
      "start": 2.4051,
      "duration": 0.0158,
      "velocity": 127,
      "chip": "ym2612"
    },
    {
      "channel": 1,
      "note": 68,
      "start": 2.4371,
      "duration": 0.0623,
      "velocity": 100,
      "chip": "ym2612"
    },
    {
      "channel": 2,
      "note": 84,
      "start": 2.4383,
      "duration": 0.0614,
      "velocity": 127,
      "chip": "ym2612"
    },
    {
      "channel": 4,
      "note": 61,
      "start": 2.4385,
      "duration": 0.0145,
      "velocity": 127,
      "chip": "ym2612"
    },
    {
      "channel": 1,
      "note": 68,
      "start": 2.4996,
      "duration": 0.066,
      "velocity": 100,
      "chip": "ym2612"
    },
    {
      "channel": 2,
      "note": 32,
      "start": 2.5008,
      "duration": 0.0651,
      "velocity": 114,
      "chip": "ym2612"
    },
    {
      "channel": 4,
      "note": 71,
      "start": 2.5011,
      "duration": 0.0174,
      "velocity": 127,
      "chip": "ym2612"
    },
    {
      "channel": 4,
      "note": 70,
      "start": 2.5187,
      "duration": 0.0148,
      "velocity": 127,
      "chip": "ym2612"
    },
    {
      "channel": 4,
      "note": 66,
      "start": 2.5337,
      "duration": 0.0158,
      "velocity": 127,
      "chip": "ym2612"
    },
    {
      "channel": 4,
      "note": 61,
      "start": 2.5496,
      "duration": 0.0167,
      "velocity": 127,
      "chip": "ym2612"
    },
    {
      "channel": 0,
      "note": 42,
      "start": 2.5656,
      "duration": 0.0154,
      "velocity": 127,
      "chip": "ym2612"
    },
    {
      "channel": 1,
      "note": 68,
      "start": 2.5659,
      "duration": 0.0649,
      "velocity": 100,
      "chip": "ym2612"
    },
    {
      "channel": 2,
      "note": 32,
      "start": 2.5662,
      "duration": 0.0952,
      "velocity": 114,
      "chip": "ym2612"
    },
    {
      "channel": 4,
      "note": 68,
      "start": 2.5666,
      "duration": 0.0148,
      "velocity": 127,
      "chip": "ym2612"
    },
    {
      "channel": 0,
      "note": 43,
      "start": 2.5812,
      "duration": 0.0166,
      "velocity": 127,
      "chip": "ym2612"
    },
    {
      "channel": 4,
      "note": 71,
      "start": 2.5815,
      "duration": 0.0167,
      "velocity": 127,
      "chip": "ym2612"
    },
    {
      "channel": 0,
      "note": 44,
      "start": 2.598,
      "duration": 0.0159,
      "velocity": 127,
      "chip": "ym2612"
    },
    {
      "channel": 4,
      "note": 63,
      "start": 2.5983,
      "duration": 0.0157,
      "velocity": 127,
      "chip": "ym2612"
    },
    {
      "channel": 4,
      "note": 61,
      "start": 2.6142,
      "duration": 0.0169,
      "velocity": 127,
      "chip": "ym2612"
    },
    {
      "channel": 1,
      "note": 68,
      "start": 2.631,
      "duration": 0.0612,
      "velocity": 100,
      "chip": "ym2612"
    },
    {
      "channel": 4,
      "note": 59,
      "start": 2.6312,
      "duration": 0.0157,
      "velocity": 127,
      "chip": "ym2612"
    },
    {
      "channel": 2,
      "note": 32,
      "start": 2.6616,
      "duration": 0.0309,
      "velocity": 114,
      "chip": "ym2612"
    },
    {
      "channel": 4,
      "note": 54,
      "start": 2.6618,
      "duration": 0.0158,
      "velocity": 127,
      "chip": "ym2612"
    },
    {
      "channel": 1,
      "note": 68,
      "start": 2.6924,
      "duration": 0.0657,
      "velocity": 100,
      "chip": "ym2612"
    },
    {
      "channel": 2,
      "note": 84,
      "start": 2.6937,
      "duration": 0.0648,
      "velocity": 127,
      "chip": "ym2612"
    },
    {
      "channel": 4,
      "note": 51,
      "start": 2.6939,
      "duration": 0.017,
      "velocity": 127,
      "chip": "ym2612"
    },
    {
      "channel": 4,
      "note": 54,
      "start": 2.7278,
      "duration": 0.0144,
      "velocity": 127,
      "chip": "ym2612"
    },
    {
      "channel": 4,
      "note": 59,
      "start": 2.7425,
      "duration": 0.0173,
      "velocity": 127,
      "chip": "ym2612"
    },
    {
      "channel": 1,
      "note": 68,
      "start": 2.7584,
      "duration": 0.0649,
      "velocity": 100,
      "chip": "ym2612"
    },
    {
      "channel": 2,
      "note": 32,
      "start": 2.7596,
      "duration": 0.0639,
      "velocity": 114,
      "chip": "ym2612"
    },
    {
      "channel": 4,
      "note": 61,
      "start": 2.7599,
      "duration": 0.0145,
      "velocity": 127,
      "chip": "ym2612"
    },
    {
      "channel": 4,
      "note": 63,
      "start": 2.7746,
      "duration": 0.016,
      "velocity": 127,
      "chip": "ym2612"
    },
    {
      "channel": 4,
      "note": 68,
      "start": 2.7907,
      "duration": 0.0162,
      "velocity": 127,
      "chip": "ym2612"
    },
    {
      "channel": 4,
      "note": 71,
      "start": 2.8071,
      "duration": 0.0168,
      "velocity": 127,
      "chip": "ym2612"
    },
    {
      "channel": 0,
      "note": 42,
      "start": 2.8232,
      "duration": 0.0169,
      "velocity": 127,
      "chip": "ym2612"
    },
    {
      "channel": 1,
      "note": 68,
      "start": 2.8235,
      "duration": 0.0636,
      "velocity": 100,
      "chip": "ym2612"
    },
    {
      "channel": 2,
      "note": 32,
      "start": 2.8237,
      "duration": 0.0961,
      "velocity": 114,
      "chip": "ym2612"
    },
    {
      "channel": 4,
      "note": 68,
      "start": 2.8241,
      "duration": 0.0163,
      "velocity": 127,
      "chip": "ym2612"
    },
    {
      "channel": 0,
      "note": 43,
      "start": 2.8403,
      "duration": 0.0146,
      "velocity": 127,
      "chip": "ym2612"
    },
    {
      "channel": 4,
      "note": 71,
      "start": 2.8406,
      "duration": 0.0146,
      "velocity": 127,
      "chip": "ym2612"
    },
    {
      "channel": 0,
      "note": 44,
      "start": 2.8551,
      "duration": 0.0159,
      "velocity": 127,
      "chip": "ym2612"
    },
    {
      "channel": 4,
      "note": 63,
      "start": 2.8554,
      "duration": 0.0158,
      "velocity": 127,
      "chip": "ym2612"
    },
    {
      "channel": 4,
      "note": 61,
      "start": 2.8714,
      "duration": 0.016,
      "velocity": 127,
      "chip": "ym2612"
    },
    {
      "channel": 1,
      "note": 68,
      "start": 2.8873,
      "duration": 0.0635,
      "velocity": 100,
      "chip": "ym2612"
    },
    {
      "channel": 4,
      "note": 63,
      "start": 2.8876,
      "duration": 0.0149,
      "velocity": 127,
      "chip": "ym2612"
    },
    {
      "channel": 2,
      "note": 32,
      "start": 2.9201,
      "duration": 0.0311,
      "velocity": 114,
      "chip": "ym2612"
    },
    {
      "channel": 4,
      "note": 59,
      "start": 2.9203,
      "duration": 0.0147,
      "velocity": 127,
      "chip": "ym2612"
    },
    {
      "channel": 1,
      "note": 68,
      "start": 2.9511,
      "duration": 0.0634,
      "velocity": 100,
      "chip": "ym2612"
    },
    {
      "channel": 2,
      "note": 84,
      "start": 2.9523,
      "duration": 0.0625,
      "velocity": 127,
      "chip": "ym2612"
    },
    {
      "channel": 4,
      "note": 61,
      "start": 2.9525,
      "duration": 0.0159,
      "velocity": 127,
      "chip": "ym2612"
    },
    {
      "channel": 1,
      "note": 68,
      "start": 3.0148,
      "duration": 0.0651,
      "velocity": 100,
      "chip": "ym2612"
    },
    {
      "channel": 2,
      "note": 32,
      "start": 3.016,
      "duration": 0.0641,
      "velocity": 114,
      "chip": "ym2612"
    },
    {
      "channel": 4,
      "note": 71,
      "start": 3.0163,
      "duration": 0.0165,
      "velocity": 127,
      "chip": "ym2612"
    },
    {
      "channel": 4,
      "note": 70,
      "start": 3.033,
      "duration": 0.0157,
      "velocity": 127,
      "chip": "ym2612"
    },
    {
      "channel": 4,
      "note": 66,
      "start": 3.049,
      "duration": 0.0145,
      "velocity": 127,
      "chip": "ym2612"
    },
    {
      "channel": 4,
      "note": 61,
      "start": 3.0637,
      "duration": 0.0171,
      "velocity": 127,
      "chip": "ym2612"
    },
    {
      "channel": 0,
      "note": 42,
      "start": 3.0799,
      "duration": 0.0158,
      "velocity": 127,
      "chip": "ym2612"
    },
    {
      "channel": 1,
      "note": 68,
      "start": 3.0801,
      "duration": 0.0652,
      "velocity": 100,
      "chip": "ym2612"
    },
    {
      "channel": 2,
      "note": 32,
      "start": 3.0804,
      "duration": 0.0957,
      "velocity": 114,
      "chip": "ym2612"
    },
    {
      "channel": 3,
      "note": 78,
      "start": 3.0807,
      "duration": 0.0152,
      "velocity": 86,
      "chip": "ym2612"
    },
    {
      "channel": 4,
      "note": 61,
      "start": 3.081,
      "duration": 0.0152,
      "velocity": 127,
      "chip": "ym2612"
    },
    {
      "channel": 0,
      "note": 43,
      "start": 3.0958,
      "duration": 0.0173,
      "velocity": 127,
      "chip": "ym2612"
    },
    {
      "channel": 3,
      "note": 79,
      "start": 3.0961,
      "duration": 0.0173,
      "velocity": 86,
      "chip": "ym2612"
    },
    {
      "channel": 4,
      "note": 63,
      "start": 3.0963,
      "duration": 0.0173,
      "velocity": 127,
      "chip": "ym2612"
    },
    {
      "channel": 0,
      "note": 44,
      "start": 3.1134,
      "duration": 0.0172,
      "velocity": 127,
      "chip": "ym2612"
    },
    {
      "channel": 3,
      "note": 80,
      "start": 3.1136,
      "duration": 0.0171,
      "velocity": 86,
      "chip": "ym2612"
    },
    {
      "channel": 4,
      "note": 66,
      "start": 3.1139,
      "duration": 0.0169,
      "velocity": 127,
      "chip": "ym2612"
    },
    {
      "channel": 4,
      "note": 71,
      "start": 3.1309,
      "duration": 0.0147,
      "velocity": 127,
      "chip": "ym2612"
    },
    {
      "channel": 1,
      "note": 68,
      "start": 3.1455,
      "duration": 0.0639,
      "velocity": 100,
      "chip": "ym2612"
    },
    {
      "channel": 4,
      "note": 61,
      "start": 3.1458,
      "duration": 0.0157,
      "velocity": 127,
      "chip": "ym2612"
    },
    {
      "channel": 4,
      "note": 63,
      "start": 3.1617,
      "duration": 0.0149,
      "velocity": 127,
      "chip": "ym2612"
    },
    {
      "channel": 2,
      "note": 32,
      "start": 3.1763,
      "duration": 0.0334,
      "velocity": 114,
      "chip": "ym2612"
    },
    {
      "channel": 3,
      "note": 75,
      "start": 3.1765,
      "duration": 0.0163,
      "velocity": 86,
      "chip": "ym2612"
    },
    {
      "channel": 4,
      "note": 66,
      "start": 3.1768,
      "duration": 0.0162,
      "velocity": 127,
      "chip": "ym2612"
    },
    {
      "channel": 4,
      "note": 71,
      "start": 3.1931,
      "duration": 0.0179,
      "velocity": 127,
      "chip": "ym2612"
    },
    {
      "channel": 1,
      "note": 68,
      "start": 3.2097,
      "duration": 0.0643,
      "velocity": 100,
      "chip": "ym2612"
    },
    {
      "channel": 2,
      "note": 84,
      "start": 3.2109,
      "duration": 0.0634,
      "velocity": 127,
      "chip": "ym2612"
    },
    {
      "channel": 4,
      "note": 61,
      "start": 3.2111,
      "duration": 0.0158,
      "velocity": 127,
      "chip": "ym2612"
    },
    {
      "channel": 4,
      "note": 63,
      "start": 3.2271,
      "duration": 0.0163,
      "velocity": 127,
      "chip": "ym2612"
    },
    {
      "channel": 3,
      "note": 73,
      "start": 3.2434,
      "duration": 0.0147,
      "velocity": 86,
      "chip": "ym2612"
    },
    {
      "channel": 4,
      "note": 66,
      "start": 3.2435,
      "duration": 0.0146,
      "velocity": 127,
      "chip": "ym2612"
    },
    {
      "channel": 4,
      "note": 71,
      "start": 3.2583,
      "duration": 0.0172,
      "velocity": 127,
      "chip": "ym2612"
    },
    {
      "channel": 1,
      "note": 68,
      "start": 3.2742,
      "duration": 0.0656,
      "velocity": 100,
      "chip": "ym2612"
    },
    {
      "channel": 2,
      "note": 32,
      "start": 3.2754,
      "duration": 0.0647,
      "velocity": 114,
      "chip": "ym2612"
    },
    {
      "channel": 4,
      "note": 61,
      "start": 3.2757,
      "duration": 0.0159,
      "velocity": 127,
      "chip": "ym2612"
    },
    {
      "channel": 4,
      "note": 63,
      "start": 3.2917,
      "duration": 0.0152,
      "velocity": 127,
      "chip": "ym2612"
    },
    {
      "channel": 3,
      "note": 66,
      "start": 3.3069,
      "duration": 0.0177,
      "velocity": 86,
      "chip": "ym2612"
    },
    {
      "channel": 4,
      "note": 66,
      "start": 3.3071,
      "duration": 0.0175,
      "velocity": 127,
      "chip": "ym2612"
    },
    {
      "channel": 4,
      "note": 71,
      "start": 3.3248,
      "duration": 0.0158,
      "velocity": 127,
      "chip": "ym2612"
    },
    {
      "channel": 0,
      "note": 42,
      "start": 3.3398,
      "duration": 0.0168,
      "velocity": 127,
      "chip": "ym2612"
    },
    {
      "channel": 1,
      "note": 68,
      "start": 3.3401,
      "duration": 0.0643,
      "velocity": 100,
      "chip": "ym2612"
    },
    {
      "channel": 2,
      "note": 32,
      "start": 3.3403,
      "duration": 0.0968,
      "velocity": 114,
      "chip": "ym2612"
    },
    {
      "channel": 3,
      "note": 68,
      "start": 3.3406,
      "duration": 0.0163,
      "velocity": 86,
      "chip": "ym2612"
    },
    {
      "channel": 4,
      "note": 61,
      "start": 3.3408,
      "duration": 0.0162,
      "velocity": 127,
      "chip": "ym2612"
    },
    {
      "channel": 0,
      "note": 43,
      "start": 3.3568,
      "duration": 0.016,
      "velocity": 127,
      "chip": "ym2612"
    },
    {
      "channel": 4,
      "note": 63,
      "start": 3.3572,
      "duration": 0.016,
      "velocity": 127,
      "chip": "ym2612"
    },
    {
      "channel": 0,
      "note": 44,
      "start": 3.3731,
      "duration": 0.0147,
      "velocity": 127,
      "chip": "ym2612"
    },
    {
      "channel": 4,
      "note": 66,
      "start": 3.3733,
      "duration": 0.0146,
      "velocity": 127,
      "chip": "ym2612"
    },
    {
      "channel": 4,
      "note": 73,
      "start": 3.3881,
      "duration": 0.0166,
      "velocity": 127,
      "chip": "ym2612"
    },
    {
      "channel": 1,
      "note": 68,
      "start": 3.4046,
      "duration": 0.0634,
      "velocity": 100,
      "chip": "ym2612"
    },
    {
      "channel": 4,
      "note": 61,
      "start": 3.4049,
      "duration": 0.0155,
      "velocity": 127,
      "chip": "ym2612"
    },
    {
      "channel": 4,
      "note": 63,
      "start": 3.4206,
      "duration": 0.0169,
      "velocity": 127,
      "chip": "ym2612"
    },
    {
      "channel": 2,
      "note": 32,
      "start": 3.4374,
      "duration": 0.0309,
      "velocity": 114,
      "chip": "ym2612"
    },
    {
      "channel": 4,
      "note": 66,
      "start": 3.4376,
      "duration": 0.0159,
      "velocity": 127,
      "chip": "ym2612"
    },
    {
      "channel": 4,
      "note": 73,
      "start": 3.4536,
      "duration": 0.0159,
      "velocity": 127,
      "chip": "ym2612"
    },
    {
      "channel": 1,
      "note": 68,
      "start": 3.4682,
      "duration": 0.0662,
      "velocity": 100,
      "chip": "ym2612"
    },
    {
      "channel": 2,
      "note": 84,
      "start": 3.4694,
      "duration": 0.0653,
      "velocity": 127,
      "chip": "ym2612"
    },
    {
      "channel": 4,
      "note": 61,
      "start": 3.4697,
      "duration": 0.0158,
      "velocity": 127,
      "chip": "ym2612"
    },
    {
      "channel": 4,
      "note": 63,
      "start": 3.4856,
      "duration": 0.0147,
      "velocity": 127,
      "chip": "ym2612"
    },
    {
      "channel": 4,
      "note": 66,
      "start": 3.5005,
      "duration": 0.0169,
      "velocity": 127,
      "chip": "ym2612"
    },
    {
      "channel": 4,
      "note": 73,
      "start": 3.5176,
      "duration": 0.0184,
      "velocity": 127,
      "chip": "ym2612"
    },
    {
      "channel": 1,
      "note": 68,
      "start": 3.5347,
      "duration": 0.0631,
      "velocity": 100,
      "chip": "ym2612"
    },
    {
      "channel": 2,
      "note": 32,
      "start": 3.5359,
      "duration": 0.0621,
      "velocity": 114,
      "chip": "ym2612"
    },
    {
      "channel": 4,
      "note": 61,
      "start": 3.5361,
      "duration": 0.0145,
      "velocity": 127,
      "chip": "ym2612"
    },
    {
      "channel": 4,
      "note": 63,
      "start": 3.5508,
      "duration": 0.0158,
      "velocity": 127,
      "chip": "ym2612"
    },
    {
      "channel": 4,
      "note": 66,
      "start": 3.5668,
      "duration": 0.0144,
      "velocity": 127,
      "chip": "ym2612"
    },
    {
      "channel": 4,
      "note": 73,
      "start": 3.5814,
      "duration": 0.0171,
      "velocity": 127,
      "chip": "ym2612"
    },
    {
      "channel": 0,
      "note": 42,
      "start": 3.5977,
      "duration": 0.0173,
      "velocity": 127,
      "chip": "ym2612"
    },
    {
      "channel": 1,
      "note": 68,
      "start": 3.5979,
      "duration": 0.0649,
      "velocity": 100,
      "chip": "ym2612"
    },
    {
      "channel": 2,
      "note": 32,
      "start": 3.5982,
      "duration": 0.0969,
      "velocity": 114,
      "chip": "ym2612"
    },
    {
      "channel": 3,
      "note": 78,
      "start": 3.5984,
      "duration": 0.0168,
      "velocity": 86,
      "chip": "ym2612"
    },
    {
      "channel": 4,
      "note": 61,
      "start": 3.5988,
      "duration": 0.0168,
      "velocity": 127,
      "chip": "ym2612"
    },
    {
      "channel": 0,
      "note": 43,
      "start": 3.6152,
      "duration": 0.0162,
      "velocity": 127,
      "chip": "ym2612"
    },
    {
      "channel": 3,
      "note": 79,
      "start": 3.6155,
      "duration": 0.0162,
      "velocity": 86,
      "chip": "ym2612"
    },
    {
      "channel": 4,
      "note": 63,
      "start": 3.6157,
      "duration": 0.0162,
      "velocity": 127,
      "chip": "ym2612"
    },
    {
      "channel": 0,
      "note": 44,
      "start": 3.6316,
      "duration": 0.0165,
      "velocity": 127,
      "chip": "ym2612"
    },
    {
      "channel": 3,
      "note": 80,
      "start": 3.6319,
      "duration": 0.0164,
      "velocity": 86,
      "chip": "ym2612"
    },
    {
      "channel": 4,
      "note": 66,
      "start": 3.6321,
      "duration": 0.0162,
      "velocity": 127,
      "chip": "ym2612"
    },
    {
      "channel": 4,
      "note": 71,
      "start": 3.6485,
      "duration": 0.0147,
      "velocity": 127,
      "chip": "ym2612"
    },
    {
      "channel": 1,
      "note": 68,
      "start": 3.6631,
      "duration": 0.0652,
      "velocity": 100,
      "chip": "ym2612"
    },
    {
      "channel": 4,
      "note": 61,
      "start": 3.6634,
      "duration": 0.0158,
      "velocity": 127,
      "chip": "ym2612"
    },
    {
      "channel": 4,
      "note": 63,
      "start": 3.6794,
      "duration": 0.0162,
      "velocity": 127,
      "chip": "ym2612"
    },
    {
      "channel": 2,
      "note": 32,
      "start": 3.6953,
      "duration": 0.0333,
      "velocity": 114,
      "chip": "ym2612"
    },
    {
      "channel": 3,
      "note": 75,
      "start": 3.6955,
      "duration": 0.0152,
      "velocity": 86,
      "chip": "ym2612"
    },
    {
      "channel": 4,
      "note": 66,
      "start": 3.6957,
      "duration": 0.015,
      "velocity": 127,
      "chip": "ym2612"
    },
    {
      "channel": 4,
      "note": 71,
      "start": 3.711,
      "duration": 0.0189,
      "velocity": 127,
      "chip": "ym2612"
    },
    {
      "channel": 1,
      "note": 68,
      "start": 3.7286,
      "duration": 0.063,
      "velocity": 100,
      "chip": "ym2612"
    },
    {
      "channel": 2,
      "note": 84,
      "start": 3.7298,
      "duration": 0.062,
      "velocity": 127,
      "chip": "ym2612"
    },
    {
      "channel": 4,
      "note": 61,
      "start": 3.7301,
      "duration": 0.0146,
      "velocity": 127,
      "chip": "ym2612"
    },
    {
      "channel": 4,
      "note": 63,
      "start": 3.7449,
      "duration": 0.0159,
      "velocity": 127,
      "chip": "ym2612"
    },
    {
      "channel": 3,
      "note": 73,
      "start": 3.7608,
      "duration": 0.016,
      "velocity": 86,
      "chip": "ym2612"
    },
    {
      "channel": 4,
      "note": 66,
      "start": 3.761,
      "duration": 0.0158,
      "velocity": 127,
      "chip": "ym2612"
    },
    {
      "channel": 4,
      "note": 71,
      "start": 3.7771,
      "duration": 0.016,
      "velocity": 127,
      "chip": "ym2612"
    },
    {
      "channel": 1,
      "note": 68,
      "start": 3.7917,
      "duration": 0.0669,
      "velocity": 100,
      "chip": "ym2612"
    },
    {
      "channel": 2,
      "note": 32,
      "start": 3.793,
      "duration": 0.0659,
      "velocity": 114,
      "chip": "ym2612"
    },
    {
      "channel": 4,
      "note": 61,
      "start": 3.7933,
      "duration": 0.0163,
      "velocity": 127,
      "chip": "ym2612"
    },
    {
      "channel": 4,
      "note": 63,
      "start": 3.8098,
      "duration": 0.0158,
      "velocity": 127,
      "chip": "ym2612"
    },
    {
      "channel": 3,
      "note": 66,
      "start": 3.8255,
      "duration": 0.0168,
      "velocity": 86,
      "chip": "ym2612"
    },
    {
      "channel": 4,
      "note": 66,
      "start": 3.8257,
      "duration": 0.0167,
      "velocity": 127,
      "chip": "ym2612"
    },
    {
      "channel": 4,
      "note": 71,
      "start": 3.8426,
      "duration": 0.0168,
      "velocity": 127,
      "chip": "ym2612"
    },
    {
      "channel": 0,
      "note": 42,
      "start": 3.8586,
      "duration": 0.0155,
      "velocity": 127,
      "chip": "ym2612"
    },
    {
      "channel": 1,
      "note": 68,
      "start": 3.8588,
      "duration": 0.0637,
      "velocity": 100,
      "chip": "ym2612"
    },
    {
      "channel": 2,
      "note": 32,
      "start": 3.8591,
      "duration": 0.0954,
      "velocity": 114,
      "chip": "ym2612"
    },
    {
      "channel": 3,
      "note": 63,
      "start": 3.8593,
      "duration": 0.015,
      "velocity": 86,
      "chip": "ym2612"
    },
    {
      "channel": 4,
      "note": 61,
      "start": 3.8596,
      "duration": 0.0149,
      "velocity": 127,
      "chip": "ym2612"
    },
    {
      "channel": 0,
      "note": 43,
      "start": 3.8743,
      "duration": 0.0161,
      "velocity": 127,
      "chip": "ym2612"
    },
    {
      "channel": 4,
      "note": 63,
      "start": 3.8747,
      "duration": 0.016,
      "velocity": 127,
      "chip": "ym2612"
    },
    {
      "channel": 0,
      "note": 44,
      "start": 3.8906,
      "duration": 0.0149,
      "velocity": 127,
      "chip": "ym2612"
    },
    {
      "channel": 4,
      "note": 66,
      "start": 3.8908,
      "duration": 0.0148,
      "velocity": 127,
      "chip": "ym2612"
    },
    {
      "channel": 4,
      "note": 73,
      "start": 3.9058,
      "duration": 0.0171,
      "velocity": 127,
      "chip": "ym2612"
    },
    {
      "channel": 1,
      "note": 68,
      "start": 3.9228,
      "duration": 0.0628,
      "velocity": 100,
      "chip": "ym2612"
    },
    {
      "channel": 4,
      "note": 61,
      "start": 3.9231,
      "duration": 0.0169,
      "velocity": 127,
      "chip": "ym2612"
    },
    {
      "channel": 4,
      "note": 63,
      "start": 3.9402,
      "duration": 0.0148,
      "velocity": 127,
      "chip": "ym2612"
    },
    {
      "channel": 2,
      "note": 32,
      "start": 3.9547,
      "duration": 0.0312,
      "velocity": 114,
      "chip": "ym2612"
    },
    {
      "channel": 3,
      "note": 61,
      "start": 3.9549,
      "duration": 0.016,
      "velocity": 86,
      "chip": "ym2612"
    },
    {
      "channel": 4,
      "note": 66,
      "start": 3.9552,
      "duration": 0.0159,
      "velocity": 127,
      "chip": "ym2612"
    },
    {
      "channel": 4,
      "note": 73,
      "start": 3.9712,
      "duration": 0.016,
      "velocity": 127,
      "chip": "ym2612"
    },
    {
      "channel": 1,
      "note": 68,
      "start": 3.9859,
      "duration": 0.066,
      "velocity": 100,
      "chip": "ym2612"
    },
    {
      "channel": 2,
      "note": 84,
      "start": 3.9871,
      "duration": 0.0651,
      "velocity": 127,
      "chip": "ym2612"
    },
    {
      "channel": 4,
      "note": 61,
      "start": 3.9873,
      "duration": 0.0161,
      "velocity": 127,
      "chip": "ym2612"
    },
    {
      "channel": 4,
      "note": 63,
      "start": 4.0036,
      "duration": 0.0162,
      "velocity": 127,
      "chip": "ym2612"
    },
    {
      "channel": 4,
      "note": 66,
      "start": 4.0199,
      "duration": 0.0157,
      "velocity": 127,
      "chip": "ym2612"
    },
    {
      "channel": 4,
      "note": 73,
      "start": 4.0359,
      "duration": 0.0176,
      "velocity": 127,
      "chip": "ym2612"
    },
    {
      "channel": 1,
      "note": 68,
      "start": 4.0521,
      "duration": 0.0632,
      "velocity": 100,
      "chip": "ym2612"
    },
    {
      "channel": 2,
      "note": 32,
      "start": 4.0534,
      "duration": 0.0622,
      "velocity": 114,
      "chip": "ym2612"
    },
    {
      "channel": 4,
      "note": 61,
      "start": 4.0536,
      "duration": 0.0144,
      "velocity": 127,
      "chip": "ym2612"
    },
    {
      "channel": 4,
      "note": 63,
      "start": 4.0682,
      "duration": 0.0157,
      "velocity": 127,
      "chip": "ym2612"
    },
    {
      "channel": 4,
      "note": 66,
      "start": 4.084,
      "duration": 0.0157,
      "velocity": 127,
      "chip": "ym2612"
    },
    {
      "channel": 4,
      "note": 73,
      "start": 4.1,
      "duration": 0.0161,
      "velocity": 127,
      "chip": "ym2612"
    },
    {
      "channel": 0,
      "note": 42,
      "start": 4.1152,
      "duration": 0.0185,
      "velocity": 127,
      "chip": "ym2612"
    },
    {
      "channel": 1,
      "note": 68,
      "start": 4.1154,
      "duration": 0.0661,
      "velocity": 100,
      "chip": "ym2612"
    },
    {
      "channel": 2,
      "note": 32,
      "start": 4.1157,
      "duration": 0.0971,
      "velocity": 114,
      "chip": "ym2612"
    },
    {
      "channel": 3,
      "note": 78,
      "start": 4.116,
      "duration": 0.018,
      "velocity": 86,
      "chip": "ym2612"
    },
    {
      "channel": 4,
      "note": 61,
      "start": 4.1163,
      "duration": 0.018,
      "velocity": 127,
      "chip": "ym2612"
    },
    {
      "channel": 0,
      "note": 43,
      "start": 4.1339,
      "duration": 0.0152,
      "velocity": 127,
      "chip": "ym2612"
    },
    {
      "channel": 3,
      "note": 79,
      "start": 4.1341,
      "duration": 0.0152,
      "velocity": 86,
      "chip": "ym2612"
    },
    {
      "channel": 4,
      "note": 63,
      "start": 4.1344,
      "duration": 0.0151,
      "velocity": 127,
      "chip": "ym2612"
    },
    {
      "channel": 0,
      "note": 44,
      "start": 4.1493,
      "duration": 0.0161,
      "velocity": 127,
      "chip": "ym2612"
    },
    {
      "channel": 3,
      "note": 80,
      "start": 4.1495,
      "duration": 0.016,
      "velocity": 86,
      "chip": "ym2612"
    },
    {
      "channel": 4,
      "note": 66,
      "start": 4.1498,
      "duration": 0.0159,
      "velocity": 127,
      "chip": "ym2612"
    },
    {
      "channel": 4,
      "note": 71,
      "start": 4.1657,
      "duration": 0.0161,
      "velocity": 127,
      "chip": "ym2612"
    },
    {
      "channel": 1,
      "note": 68,
      "start": 4.1818,
      "duration": 0.0641,
      "velocity": 100,
      "chip": "ym2612"
    },
    {
      "channel": 4,
      "note": 61,
      "start": 4.182,
      "duration": 0.0144,
      "velocity": 127,
      "chip": "ym2612"
    },
    {
      "channel": 4,
      "note": 63,
      "start": 4.1966,
      "duration": 0.0166,
      "velocity": 127,
      "chip": "ym2612"
    },
    {
      "channel": 2,
      "note": 32,
      "start": 4.213,
      "duration": 0.0332,
      "velocity": 114,
      "chip": "ym2612"
    },
    {
      "channel": 3,
      "note": 75,
      "start": 4.2132,
      "duration": 0.0159,
      "velocity": 86,
      "chip": "ym2612"
    },
    {
      "channel": 4,
      "note": 66,
      "start": 4.2134,
      "duration": 0.0157,
      "velocity": 127,
      "chip": "ym2612"
    },
    {
      "channel": 4,
      "note": 71,
      "start": 4.2293,
      "duration": 0.0181,
      "velocity": 127,
      "chip": "ym2612"
    },
    {
      "channel": 1,
      "note": 68,
      "start": 4.2461,
      "duration": 0.0631,
      "velocity": 100,
      "chip": "ym2612"
    },
    {
      "channel": 2,
      "note": 84,
      "start": 4.2473,
      "duration": 0.0622,
      "velocity": 127,
      "chip": "ym2612"
    },
    {
      "channel": 4,
      "note": 61,
      "start": 4.2476,
      "duration": 0.0158,
      "velocity": 127,
      "chip": "ym2612"
    },
    {
      "channel": 4,
      "note": 63,
      "start": 4.2635,
      "duration": 0.0147,
      "velocity": 127,
      "chip": "ym2612"
    },
    {
      "channel": 3,
      "note": 73,
      "start": 4.2782,
      "duration": 0.016,
      "velocity": 86,
      "chip": "ym2612"
    },
    {
      "channel": 4,
      "note": 66,
      "start": 4.2784,
      "duration": 0.0159,
      "velocity": 127,
      "chip": "ym2612"
    },
    {
      "channel": 4,
      "note": 71,
      "start": 4.2945,
      "duration": 0.0163,
      "velocity": 127,
      "chip": "ym2612"
    },
    {
      "channel": 1,
      "note": 68,
      "start": 4.3095,
      "duration": 0.0665,
      "velocity": 100,
      "chip": "ym2612"
    },
    {
      "channel": 2,
      "note": 32,
      "start": 4.3107,
      "duration": 0.0656,
      "velocity": 114,
      "chip": "ym2612"
    },
    {
      "channel": 4,
      "note": 61,
      "start": 4.3109,
      "duration": 0.0167,
      "velocity": 127,
      "chip": "ym2612"
    },
    {
      "channel": 4,
      "note": 63,
      "start": 4.3278,
      "duration": 0.0171,
      "velocity": 127,
      "chip": "ym2612"
    },
    {
      "channel": 3,
      "note": 66,
      "start": 4.3449,
      "duration": 0.0147,
      "velocity": 86,
      "chip": "ym2612"
    },
    {
      "channel": 4,
      "note": 66,
      "start": 4.3451,
      "duration": 0.0145,
      "velocity": 127,
      "chip": "ym2612"
    },
    {
      "channel": 4,
      "note": 71,
      "start": 4.3598,
      "duration": 0.0169,
      "velocity": 127,
      "chip": "ym2612"
    },
    {
      "channel": 0,
      "note": 42,
      "start": 4.3759,
      "duration": 0.0155,
      "velocity": 127,
      "chip": "ym2612"
    },
    {
      "channel": 1,
      "note": 68,
      "start": 4.3762,
      "duration": 0.0645,
      "velocity": 100,
      "chip": "ym2612"
    },
    {
      "channel": 2,
      "note": 32,
      "start": 4.3764,
      "duration": 0.0954,
      "velocity": 114,
      "chip": "ym2612"
    },
    {
      "channel": 3,
      "note": 68,
      "start": 4.3767,
      "duration": 0.015,
      "velocity": 86,
      "chip": "ym2612"
    },
    {
      "channel": 4,
      "note": 61,
      "start": 4.3769,
      "duration": 0.0149,
      "velocity": 127,
      "chip": "ym2612"
    },
    {
      "channel": 0,
      "note": 43,
      "start": 4.3916,
      "duration": 0.0163,
      "velocity": 127,
      "chip": "ym2612"
    },
    {
      "channel": 4,
      "note": 63,
      "start": 4.392,
      "duration": 0.0162,
      "velocity": 127,
      "chip": "ym2612"
    },
    {
      "channel": 0,
      "note": 44,
      "start": 4.4081,
      "duration": 0.0165,
      "velocity": 127,
      "chip": "ym2612"
    },
    {
      "channel": 4,
      "note": 66,
      "start": 4.4083,
      "duration": 0.0164,
      "velocity": 127,
      "chip": "ym2612"
    },
    {
      "channel": 4,
      "note": 73,
      "start": 4.4249,
      "duration": 0.0161,
      "velocity": 127,
      "chip": "ym2612"
    },
    {
      "channel": 1,
      "note": 68,
      "start": 4.441,
      "duration": 0.063,
      "velocity": 100,
      "chip": "ym2612"
    },
    {
      "channel": 4,
      "note": 61,
      "start": 4.4412,
      "duration": 0.016,
      "velocity": 127,
      "chip": "ym2612"
    },
    {
      "channel": 4,
      "note": 63,
      "start": 4.4574,
      "duration": 0.0147,
      "velocity": 127,
      "chip": "ym2612"
    },
    {
      "channel": 2,
      "note": 32,
      "start": 4.472,
      "duration": 0.0323,
      "velocity": 114,
      "chip": "ym2612"
    },
    {
      "channel": 4,
      "note": 66,
      "start": 4.4723,
      "duration": 0.0158,
      "velocity": 127,
      "chip": "ym2612"
    },
    {
      "channel": 4,
      "note": 73,
      "start": 4.4883,
      "duration": 0.0173,
      "velocity": 127,
      "chip": "ym2612"
    },
    {
      "channel": 1,
      "note": 68,
      "start": 4.5042,
      "duration": 0.065,
      "velocity": 100,
      "chip": "ym2612"
    },
    {
      "channel": 2,
      "note": 84,
      "start": 4.5055,
      "duration": 0.0641,
      "velocity": 127,
      "chip": "ym2612"
    },
    {
      "channel": 4,
      "note": 61,
      "start": 4.5057,
      "duration": 0.0151,
      "velocity": 127,
      "chip": "ym2612"
    },
    {
      "channel": 4,
      "note": 63,
      "start": 4.521,
      "duration": 0.0174,
      "velocity": 127,
      "chip": "ym2612"
    },
    {
      "channel": 4,
      "note": 66,
      "start": 4.5386,
      "duration": 0.0148,
      "velocity": 127,
      "chip": "ym2612"
    },
    {
      "channel": 4,
      "note": 73,
      "start": 4.5535,
      "duration": 0.0173,
      "velocity": 127,
      "chip": "ym2612"
    },
    {
      "channel": 1,
      "note": 68,
      "start": 4.5695,
      "duration": 0.0643,
      "velocity": 100,
      "chip": "ym2612"
    },
    {
      "channel": 2,
      "note": 32,
      "start": 4.5707,
      "duration": 0.0634,
      "velocity": 114,
      "chip": "ym2612"
    },
    {
      "channel": 4,
      "note": 61,
      "start": 4.5709,
      "duration": 0.0157,
      "velocity": 127,
      "chip": "ym2612"
    },
    {
      "channel": 4,
      "note": 63,
      "start": 4.5868,
      "duration": 0.0144,
      "velocity": 127,
      "chip": "ym2612"
    },
    {
      "channel": 4,
      "note": 66,
      "start": 4.6015,
      "duration": 0.0163,
      "velocity": 127,
      "chip": "ym2612"
    },
    {
      "channel": 4,
      "note": 73,
      "start": 4.618,
      "duration": 0.0166,
      "velocity": 127,
      "chip": "ym2612"
    },
    {
      "channel": 0,
      "note": 42,
      "start": 4.6337,
      "duration": 0.0178,
      "velocity": 127,
      "chip": "ym2612"
    },
    {
      "channel": 1,
      "note": 68,
      "start": 4.634,
      "duration": 0.0649,
      "velocity": 100,
      "chip": "ym2612"
    },
    {
      "channel": 2,
      "note": 32,
      "start": 4.6343,
      "duration": 0.097,
      "velocity": 114,
      "chip": "ym2612"
    },
    {
      "channel": 3,
      "note": 78,
      "start": 4.6345,
      "duration": 0.0172,
      "velocity": 86,
      "chip": "ym2612"
    },
    {
      "channel": 4,
      "note": 61,
      "start": 4.6348,
      "duration": 0.0172,
      "velocity": 127,
      "chip": "ym2612"
    },
    {
      "channel": 0,
      "note": 43,
      "start": 4.6517,
      "duration": 0.0161,
      "velocity": 127,
      "chip": "ym2612"
    },
    {
      "channel": 3,
      "note": 79,
      "start": 4.6519,
      "duration": 0.0161,
      "velocity": 86,
      "chip": "ym2612"
    },
    {
      "channel": 4,
      "note": 63,
      "start": 4.6522,
      "duration": 0.0161,
      "velocity": 127,
      "chip": "ym2612"
    },
    {
      "channel": 0,
      "note": 44,
      "start": 4.668,
      "duration": 0.015,
      "velocity": 127,
      "chip": "ym2612"
    },
    {
      "channel": 3,
      "note": 80,
      "start": 4.6682,
      "duration": 0.0148,
      "velocity": 86,
      "chip": "ym2612"
    },
    {
      "channel": 4,
      "note": 66,
      "start": 4.6685,
      "duration": 0.0146,
      "velocity": 127,
      "chip": "ym2612"
    },
    {
      "channel": 4,
      "note": 71,
      "start": 4.6833,
      "duration": 0.016,
      "velocity": 127,
      "chip": "ym2612"
    },
    {
      "channel": 1,
      "note": 68,
      "start": 4.6992,
      "duration": 0.0643,
      "velocity": 100,
      "chip": "ym2612"
    },
    {
      "channel": 4,
      "note": 61,
      "start": 4.6995,
      "duration": 0.0148,
      "velocity": 127,
      "chip": "ym2612"
    },
    {
      "channel": 4,
      "note": 63,
      "start": 4.7144,
      "duration": 0.0173,
      "velocity": 127,
      "chip": "ym2612"
    },
    {
      "channel": 2,
      "note": 32,
      "start": 4.7315,
      "duration": 0.0323,
      "velocity": 114,
      "chip": "ym2612"
    },
    {
      "channel": 3,
      "note": 75,
      "start": 4.7317,
      "duration": 0.0171,
      "velocity": 86,
      "chip": "ym2612"
    },
    {
      "channel": 4,
      "note": 66,
      "start": 4.7319,
      "duration": 0.0169,
      "velocity": 127,
      "chip": "ym2612"
    },
    {
      "channel": 4,
      "note": 71,
      "start": 4.749,
      "duration": 0.016,
      "velocity": 127,
      "chip": "ym2612"
    },
    {
      "channel": 1,
      "note": 68,
      "start": 4.7637,
      "duration": 0.0649,
      "velocity": 100,
      "chip": "ym2612"
    },
    {
      "channel": 2,
      "note": 84,
      "start": 4.765,
      "duration": 0.064,
      "velocity": 127,
      "chip": "ym2612"
    },
    {
      "channel": 4,
      "note": 61,
      "start": 4.7652,
      "duration": 0.0158,
      "velocity": 127,
      "chip": "ym2612"
    },
    {
      "channel": 4,
      "note": 63,
      "start": 4.7812,
      "duration": 0.0147,
      "velocity": 127,
      "chip": "ym2612"
    },
    {
      "channel": 3,
      "note": 73,
      "start": 4.7959,
      "duration": 0.0163,
      "velocity": 86,
      "chip": "ym2612"
    },
    {
      "channel": 4,
      "note": 66,
      "start": 4.796,
      "duration": 0.0161,
      "velocity": 127,
      "chip": "ym2612"
    },
    {
      "channel": 4,
      "note": 71,
      "start": 4.8124,
      "duration": 0.0179,
      "velocity": 127,
      "chip": "ym2612"
    },
    {
      "channel": 1,
      "note": 68,
      "start": 4.8289,
      "duration": 0.0646,
      "velocity": 100,
      "chip": "ym2612"
    },
    {
      "channel": 2,
      "note": 32,
      "start": 4.8301,
      "duration": 0.0637,
      "velocity": 114,
      "chip": "ym2612"
    },
    {
      "channel": 4,
      "note": 61,
      "start": 4.8304,
      "duration": 0.0159,
      "velocity": 127,
      "chip": "ym2612"
    },
    {
      "channel": 4,
      "note": 63,
      "start": 4.8464,
      "duration": 0.0161,
      "velocity": 127,
      "chip": "ym2612"
    },
    {
      "channel": 3,
      "note": 66,
      "start": 4.8625,
      "duration": 0.0147,
      "velocity": 86,
      "chip": "ym2612"
    },
    {
      "channel": 4,
      "note": 66,
      "start": 4.8627,
      "duration": 0.0146,
      "velocity": 127,
      "chip": "ym2612"
    },
    {
      "channel": 4,
      "note": 71,
      "start": 4.8775,
      "duration": 0.0168,
      "velocity": 127,
      "chip": "ym2612"
    },
    {
      "channel": 0,
      "note": 42,
      "start": 4.8935,
      "duration": 0.0168,
      "velocity": 127,
      "chip": "ym2612"
    },
    {
      "channel": 1,
      "note": 68,
      "start": 4.8938,
      "duration": 0.0649,
      "velocity": 100,
      "chip": "ym2612"
    },
    {
      "channel": 2,
      "note": 32,
      "start": 4.894,
      "duration": 0.0967,
      "velocity": 114,
      "chip": "ym2612"
    },
    {
      "channel": 3,
      "note": 63,
      "start": 4.8943,
      "duration": 0.0163,
      "velocity": 86,
      "chip": "ym2612"
    },
    {
      "channel": 4,
      "note": 61,
      "start": 4.8945,
      "duration": 0.0161,
      "velocity": 127,
      "chip": "ym2612"
    },
    {
      "channel": 0,
      "note": 43,
      "start": 4.9105,
      "duration": 0.0153,
      "velocity": 127,
      "chip": "ym2612"
    },
    {
      "channel": 4,
      "note": 63,
      "start": 4.9108,
      "duration": 0.0153,
      "velocity": 127,
      "chip": "ym2612"
    },
    {
      "channel": 0,
      "note": 44,
      "start": 4.9259,
      "duration": 0.0177,
      "velocity": 127,
      "chip": "ym2612"
    },
    {
      "channel": 4,
      "note": 66,
      "start": 4.9262,
      "duration": 0.0175,
      "velocity": 127,
      "chip": "ym2612"
    },
    {
      "channel": 4,
      "note": 73,
      "start": 4.9439,
      "duration": 0.015,
      "velocity": 127,
      "chip": "ym2612"
    },
    {
      "channel": 1,
      "note": 68,
      "start": 4.9589,
      "duration": 0.0635,
      "velocity": 100,
      "chip": "ym2612"
    },
    {
      "channel": 4,
      "note": 61,
      "start": 4.9591,
      "duration": 0.0156,
      "velocity": 127,
      "chip": "ym2612"
    },
    {
      "channel": 4,
      "note": 63,
      "start": 4.975,
      "duration": 0.0162,
      "velocity": 127,
      "chip": "ym2612"
    },
    {
      "channel": 2,
      "note": 32,
      "start": 4.9909,
      "duration": 0.0317,
      "velocity": 114,
      "chip": "ym2612"
    },
    {
      "channel": 3,
      "note": 61,
      "start": 4.9911,
      "duration": 0.0147,
      "velocity": 86,
      "chip": "ym2612"
    },
    {
      "channel": 4,
      "note": 66,
      "start": 4.9914,
      "duration": 0.0145,
      "velocity": 127,
      "chip": "ym2612"
    },
    {
      "channel": 4,
      "note": 73,
      "start": 5.0061,
      "duration": 0.0179,
      "velocity": 127,
      "chip": "ym2612"
    },
    {
      "channel": 1,
      "note": 68,
      "start": 5.0226,
      "duration": 0.0645,
      "velocity": 100,
      "chip": "ym2612"
    },
    {
      "channel": 2,
      "note": 84,
      "start": 5.0239,
      "duration": 0.0635,
      "velocity": 127,
      "chip": "ym2612"
    },
    {
      "channel": 4,
      "note": 61,
      "start": 5.0241,
      "duration": 0.0156,
      "velocity": 127,
      "chip": "ym2612"
    },
    {
      "channel": 4,
      "note": 63,
      "start": 5.0399,
      "duration": 0.0166,
      "velocity": 127,
      "chip": "ym2612"
    },
    {
      "channel": 4,
      "note": 66,
      "start": 5.0567,
      "duration": 0.0157,
      "velocity": 127,
      "chip": "ym2612"
    },
    {
      "channel": 4,
      "note": 73,
      "start": 5.0727,
      "duration": 0.016,
      "velocity": 127,
      "chip": "ym2612"
    },
    {
      "channel": 1,
      "note": 68,
      "start": 5.0873,
      "duration": 0.0667,
      "velocity": 100,
      "chip": "ym2612"
    },
    {
      "channel": 2,
      "note": 32,
      "start": 5.0885,
      "duration": 0.0657,
      "velocity": 114,
      "chip": "ym2612"
    },
    {
      "channel": 4,
      "note": 61,
      "start": 5.0888,
      "duration": 0.0158,
      "velocity": 127,
      "chip": "ym2612"
    },
    {
      "channel": 4,
      "note": 63,
      "start": 5.1047,
      "duration": 0.0147,
      "velocity": 127,
      "chip": "ym2612"
    },
    {
      "channel": 4,
      "note": 66,
      "start": 5.1197,
      "duration": 0.0169,
      "velocity": 127,
      "chip": "ym2612"
    },
    {
      "channel": 4,
      "note": 73,
      "start": 5.1368,
      "duration": 0.0179,
      "velocity": 127,
      "chip": "ym2612"
    },
    {
      "channel": 0,
      "note": 42,
      "start": 5.1539,
      "duration": 0.0154,
      "velocity": 127,
      "chip": "ym2612"
    },
    {
      "channel": 1,
      "note": 68,
      "start": 5.1542,
      "duration": 0.0625,
      "velocity": 100,
      "chip": "ym2612"
    },
    {
      "channel": 2,
      "note": 32,
      "start": 5.1544,
      "duration": 0.0951,
      "velocity": 114,
      "chip": "ym2612"
    },
    {
      "channel": 4,
      "note": 61,
      "start": 5.1548,
      "duration": 0.0147,
      "velocity": 127,
      "chip": "ym2612"
    },
    {
      "channel": 0,
      "note": 43,
      "start": 5.1695,
      "duration": 0.0161,
      "velocity": 127,
      "chip": "ym2612"
    },
    {
      "channel": 4,
      "note": 63,
      "start": 5.1697,
      "duration": 0.0161,
      "velocity": 127,
      "chip": "ym2612"
    },
    {
      "channel": 0,
      "note": 44,
      "start": 5.1857,
      "duration": 0.0147,
      "velocity": 127,
      "chip": "ym2612"
    },
    {
      "channel": 4,
      "note": 66,
      "start": 5.1859,
      "duration": 0.0146,
      "velocity": 127,
      "chip": "ym2612"
    },
    {
      "channel": 4,
      "note": 71,
      "start": 5.2007,
      "duration": 0.0163,
      "velocity": 127,
      "chip": "ym2612"
    },
    {
      "channel": 1,
      "note": 68,
      "start": 5.217,
      "duration": 0.0636,
      "velocity": 100,
      "chip": "ym2612"
    },
    {
      "channel": 4,
      "note": 61,
      "start": 5.2172,
      "duration": 0.0164,
      "velocity": 127,
      "chip": "ym2612"
    },
    {
      "channel": 4,
      "note": 63,
      "start": 5.2338,
      "duration": 0.016,
      "velocity": 127,
      "chip": "ym2612"
    },
    {
      "channel": 2,
      "note": 32,
      "start": 5.2498,
      "duration": 0.0311,
      "velocity": 114,
      "chip": "ym2612"
    },
    {
      "channel": 4,
      "note": 66,
      "start": 5.25,
      "duration": 0.016,
      "velocity": 127,
      "chip": "ym2612"
    },
    {
      "channel": 4,
      "note": 71,
      "start": 5.2661,
      "duration": 0.016,
      "velocity": 127,
      "chip": "ym2612"
    },
    {
      "channel": 1,
      "note": 68,
      "start": 5.2808,
      "duration": 0.0659,
      "velocity": 100,
      "chip": "ym2612"
    },
    {
      "channel": 2,
      "note": 84,
      "start": 5.2821,
      "duration": 0.0649,
      "velocity": 127,
      "chip": "ym2612"
    },
    {
      "channel": 4,
      "note": 61,
      "start": 5.2823,
      "duration": 0.0157,
      "velocity": 127,
      "chip": "ym2612"
    },
    {
      "channel": 4,
      "note": 63,
      "start": 5.2983,
      "duration": 0.0157,
      "velocity": 127,
      "chip": "ym2612"
    },
    {
      "channel": 4,
      "note": 66,
      "start": 5.3142,
      "duration": 0.0149,
      "velocity": 127,
      "chip": "ym2612"
    },
    {
      "channel": 4,
      "note": 71,
      "start": 5.3293,
      "duration": 0.0189,
      "velocity": 127,
      "chip": "ym2612"
    },
    {
      "channel": 1,
      "note": 68,
      "start": 5.3469,
      "duration": 0.0632,
      "velocity": 100,
      "chip": "ym2612"
    },
    {
      "channel": 2,
      "note": 32,
      "start": 5.3482,
      "duration": 0.0622,
      "velocity": 114,
      "chip": "ym2612"
    },
    {
      "channel": 4,
      "note": 61,
      "start": 5.3484,
      "duration": 0.0148,
      "velocity": 127,
      "chip": "ym2612"
    },
    {
      "channel": 4,
      "note": 63,
      "start": 5.3634,
      "duration": 0.0158,
      "velocity": 127,
      "chip": "ym2612"
    },
    {
      "channel": 4,
      "note": 66,
      "start": 5.3793,
      "duration": 0.0157,
      "velocity": 127,
      "chip": "ym2612"
    },
    {
      "channel": 4,
      "note": 71,
      "start": 5.3953,
      "duration": 0.0154,
      "velocity": 127,
      "chip": "ym2612"
    },
    {
      "channel": 0,
      "note": 42,
      "start": 5.41,
      "duration": 0.0173,
      "velocity": 127,
      "chip": "ym2612"
    },
    {
      "channel": 1,
      "note": 68,
      "start": 5.4103,
      "duration": 0.0661,
      "velocity": 100,
      "chip": "ym2612"
    },
    {
      "channel": 2,
      "note": 32,
      "start": 5.4106,
      "duration": 0.0965,
      "velocity": 114,
      "chip": "ym2612"
    },
    {
      "channel": 4,
      "note": 61,
      "start": 5.4109,
      "duration": 0.0167,
      "velocity": 127,
      "chip": "ym2612"
    },
    {
      "channel": 0,
      "note": 43,
      "start": 5.4275,
      "duration": 0.0158,
      "velocity": 127,
      "chip": "ym2612"
    },
    {
      "channel": 4,
      "note": 63,
      "start": 5.4278,
      "duration": 0.0158,
      "velocity": 127,
      "chip": "ym2612"
    },
    {
      "channel": 0,
      "note": 44,
      "start": 5.4435,
      "duration": 0.0168,
      "velocity": 127,
      "chip": "ym2612"
    },
    {
      "channel": 4,
      "note": 66,
      "start": 5.4437,
      "duration": 0.0167,
      "velocity": 127,
      "chip": "ym2612"
    },
    {
      "channel": 4,
      "note": 73,
      "start": 5.4606,
      "duration": 0.016,
      "velocity": 127,
      "chip": "ym2612"
    },
    {
      "channel": 1,
      "note": 68,
      "start": 5.4766,
      "duration": 0.0627,
      "velocity": 100,
      "chip": "ym2612"
    },
    {
      "channel": 4,
      "note": 61,
      "start": 5.4768,
      "duration": 0.0144,
      "velocity": 127,
      "chip": "ym2612"
    },
    {
      "channel": 4,
      "note": 63,
      "start": 5.4915,
      "duration": 0.0159,
      "velocity": 127,
      "chip": "ym2612"
    },
    {
      "channel": 2,
      "note": 32,
      "start": 5.5073,
      "duration": 0.0323,
      "velocity": 114,
      "chip": "ym2612"
    },
    {
      "channel": 4,
      "note": 66,
      "start": 5.5076,
      "duration": 0.0147,
      "velocity": 127,
      "chip": "ym2612"
    },
    {
      "channel": 4,
      "note": 73,
      "start": 5.5225,
      "duration": 0.0184,
      "velocity": 127,
      "chip": "ym2612"
    },
    {
      "channel": 1,
      "note": 68,
      "start": 5.5396,
      "duration": 0.0636,
      "velocity": 100,
      "chip": "ym2612"
    },
    {
      "channel": 2,
      "note": 84,
      "start": 5.5409,
      "duration": 0.0627,
      "velocity": 127,
      "chip": "ym2612"
    },
    {
      "channel": 4,
      "note": 61,
      "start": 5.5411,
      "duration": 0.0168,
      "velocity": 127,
      "chip": "ym2612"
    },
    {
      "channel": 4,
      "note": 63,
      "start": 5.5581,
      "duration": 0.0145,
      "velocity": 127,
      "chip": "ym2612"
    },
    {
      "channel": 4,
      "note": 66,
      "start": 5.5728,
      "duration": 0.0158,
      "velocity": 127,
      "chip": "ym2612"
    },
    {
      "channel": 4,
      "note": 73,
      "start": 5.5888,
      "duration": 0.016,
      "velocity": 127,
      "chip": "ym2612"
    },
    {
      "channel": 1,
      "note": 68,
      "start": 5.6034,
      "duration": 0.0664,
      "velocity": 100,
      "chip": "ym2612"
    },
    {
      "channel": 2,
      "note": 32,
      "start": 5.6046,
      "duration": 0.0654,
      "velocity": 114,
      "chip": "ym2612"
    },
    {
      "channel": 4,
      "note": 61,
      "start": 5.6049,
      "duration": 0.016,
      "velocity": 127,
      "chip": "ym2612"
    },
    {
      "channel": 4,
      "note": 63,
      "start": 5.6211,
      "duration": 0.0162,
      "velocity": 127,
      "chip": "ym2612"
    },
    {
      "channel": 4,
      "note": 66,
      "start": 5.6375,
      "duration": 0.0158,
      "velocity": 127,
      "chip": "ym2612"
    },
    {
      "channel": 4,
      "note": 73,
      "start": 5.6535,
      "duration": 0.0169,
      "velocity": 127,
      "chip": "ym2612"
    },
    {
      "channel": 0,
      "note": 42,
      "start": 5.6698,
      "duration": 0.0154,
      "velocity": 127,
      "chip": "ym2612"
    },
    {
      "channel": 1,
      "note": 68,
      "start": 5.67,
      "duration": 0.0627,
      "velocity": 100,
      "chip": "ym2612"
    },
    {
      "channel": 2,
      "note": 32,
      "start": 5.6703,
      "duration": 0.0952,
      "velocity": 114,
      "chip": "ym2612"
    },
    {
      "channel": 4,
      "note": 61,
      "start": 5.6707,
      "duration": 0.0147,
      "velocity": 127,
      "chip": "ym2612"
    },
    {
      "channel": 0,
      "note": 43,
      "start": 5.6854,
      "duration": 0.0159,
      "velocity": 127,
      "chip": "ym2612"
    },
    {
      "channel": 4,
      "note": 63,
      "start": 5.6856,
      "duration": 0.016,
      "velocity": 127,
      "chip": "ym2612"
    },
    {
      "channel": 0,
      "note": 44,
      "start": 5.7015,
      "duration": 0.0159,
      "velocity": 127,
      "chip": "ym2612"
    },
    {
      "channel": 4,
      "note": 66,
      "start": 5.7017,
      "duration": 0.0158,
      "velocity": 127,
      "chip": "ym2612"
    },
    {
      "channel": 4,
      "note": 71,
      "start": 5.7178,
      "duration": 0.0153,
      "velocity": 127,
      "chip": "ym2612"
    },
    {
      "channel": 1,
      "note": 68,
      "start": 5.7329,
      "duration": 0.0646,
      "velocity": 100,
      "chip": "ym2612"
    },
    {
      "channel": 4,
      "note": 61,
      "start": 5.7332,
      "duration": 0.0174,
      "velocity": 127,
      "chip": "ym2612"
    },
    {
      "channel": 4,
      "note": 63,
      "start": 5.7508,
      "duration": 0.015,
      "velocity": 127,
      "chip": "ym2612"
    },
    {
      "channel": 2,
      "note": 32,
      "start": 5.7657,
      "duration": 0.0321,
      "velocity": 114,
      "chip": "ym2612"
    },
    {
      "channel": 4,
      "note": 66,
      "start": 5.7659,
      "duration": 0.0157,
      "velocity": 127,
      "chip": "ym2612"
    },
    {
      "channel": 4,
      "note": 71,
      "start": 5.7819,
      "duration": 0.0173,
      "velocity": 127,
      "chip": "ym2612"
    },
    {
      "channel": 1,
      "note": 68,
      "start": 5.7978,
      "duration": 0.0649,
      "velocity": 100,
      "chip": "ym2612"
    },
    {
      "channel": 2,
      "note": 84,
      "start": 5.799,
      "duration": 0.064,
      "velocity": 127,
      "chip": "ym2612"
    },
    {
      "channel": 4,
      "note": 61,
      "start": 5.7993,
      "duration": 0.0145,
      "velocity": 127,
      "chip": "ym2612"
    },
    {
      "channel": 4,
      "note": 63,
      "start": 5.8139,
      "duration": 0.0163,
      "velocity": 127,
      "chip": "ym2612"
    },
    {
      "channel": 4,
      "note": 66,
      "start": 5.8305,
      "duration": 0.0155,
      "velocity": 127,
      "chip": "ym2612"
    },
    {
      "channel": 4,
      "note": 71,
      "start": 5.8461,
      "duration": 0.0181,
      "velocity": 127,
      "chip": "ym2612"
    },
    {
      "channel": 1,
      "note": 68,
      "start": 5.8629,
      "duration": 0.0631,
      "velocity": 100,
      "chip": "ym2612"
    },
    {
      "channel": 2,
      "note": 32,
      "start": 5.8641,
      "duration": 0.0622,
      "velocity": 114,
      "chip": "ym2612"
    },
    {
      "channel": 4,
      "note": 61,
      "start": 5.8644,
      "duration": 0.0159,
      "velocity": 127,
      "chip": "ym2612"
    },
    {
      "channel": 4,
      "note": 63,
      "start": 5.8805,
      "duration": 0.0144,
      "velocity": 127,
      "chip": "ym2612"
    },
    {
      "channel": 4,
      "note": 66,
      "start": 5.8951,
      "duration": 0.0157,
      "velocity": 127,
      "chip": "ym2612"
    },
    {
      "channel": 4,
      "note": 71,
      "start": 5.911,
      "duration": 0.0155,
      "velocity": 127,
      "chip": "ym2612"
    },
    {
      "channel": 0,
      "note": 42,
      "start": 5.926,
      "duration": 0.0177,
      "velocity": 127,
      "chip": "ym2612"
    },
    {
      "channel": 1,
      "note": 68,
      "start": 5.9263,
      "duration": 0.0653,
      "velocity": 100,
      "chip": "ym2612"
    },
    {
      "channel": 4,
      "note": 61,
      "start": 5.9267,
      "duration": 0.0173,
      "velocity": 127,
      "chip": "ym2612"
    },
    {
      "channel": 0,
      "note": 43,
      "start": 5.9439,
      "duration": 0.017,
      "velocity": 127,
      "chip": "ym2612"
    },
    {
      "channel": 4,
      "note": 63,
      "start": 5.9441,
      "duration": 0.017,
      "velocity": 127,
      "chip": "ym2612"
    },
    {
      "channel": 0,
      "note": 44,
      "start": 5.961,
      "duration": 0.0146,
      "velocity": 127,
      "chip": "ym2612"
    },
    {
      "channel": 4,
      "note": 66,
      "start": 5.9613,
      "duration": 0.0145,
      "velocity": 127,
      "chip": "ym2612"
    },
    {
      "channel": 4,
      "note": 73,
      "start": 5.9759,
      "duration": 0.0159,
      "velocity": 127,
      "chip": "ym2612"
    },
    {
      "channel": 1,
      "note": 68,
      "start": 5.9918,
      "duration": 0.0632,
      "velocity": 100,
      "chip": "ym2612"
    },
    {
      "channel": 4,
      "note": 61,
      "start": 5.992,
      "duration": 0.0144,
      "velocity": 127,
      "chip": "ym2612"
    },
    {
      "channel": 4,
      "note": 63,
      "start": 6.0066,
      "duration": 0.0159,
      "velocity": 127,
      "chip": "ym2612"
    },
    {
      "channel": 4,
      "note": 66,
      "start": 6.0228,
      "duration": 0.0162,
      "velocity": 127,
      "chip": "ym2612"
    },
    {
      "channel": 4,
      "note": 73,
      "start": 6.0392,
      "duration": 0.0161,
      "velocity": 127,
      "chip": "ym2612"
    },
    {
      "channel": 1,
      "note": 68,
      "start": 6.0552,
      "duration": 0.0628,
      "velocity": 100,
      "chip": "ym2612"
    },
    {
      "channel": 4,
      "note": 61,
      "start": 6.0554,
      "duration": 0.016,
      "velocity": 127,
      "chip": "ym2612"
    },
    {
      "channel": 4,
      "note": 63,
      "start": 6.0717,
      "duration": 0.0145,
      "velocity": 127,
      "chip": "ym2612"
    },
    {
      "channel": 4,
      "note": 66,
      "start": 6.0863,
      "duration": 0.0157,
      "velocity": 127,
      "chip": "ym2612"
    },
    {
      "channel": 4,
      "note": 73,
      "start": 6.1023,
      "duration": 0.016,
      "velocity": 127,
      "chip": "ym2612"
    },
    {
      "channel": 1,
      "note": 68,
      "start": 6.1182,
      "duration": 0.064,
      "velocity": 100,
      "chip": "ym2612"
    },
    {
      "channel": 4,
      "note": 61,
      "start": 6.1185,
      "duration": 0.0151,
      "velocity": 127,
      "chip": "ym2612"
    },
    {
      "channel": 4,
      "note": 63,
      "start": 6.1337,
      "duration": 0.0174,
      "velocity": 127,
      "chip": "ym2612"
    },
    {
      "channel": 4,
      "note": 66,
      "start": 6.1513,
      "duration": 0.0147,
      "velocity": 127,
      "chip": "ym2612"
    },
    {
      "channel": 4,
      "note": 73,
      "start": 6.1662,
      "duration": 0.0169,
      "velocity": 127,
      "chip": "ym2612"
    },
    {
      "channel": 0,
      "note": 42,
      "start": 6.1823,
      "duration": 0.0168,
      "velocity": 127,
      "chip": "ym2612"
    },
    {
      "channel": 1,
      "note": 68,
      "start": 6.1825,
      "duration": 0.0644,
      "velocity": 100,
      "chip": "ym2612"
    },
    {
      "channel": 2,
      "note": 32,
      "start": 6.1828,
      "duration": 0.0971,
      "velocity": 114,
      "chip": "ym2612"
    },
    {
      "channel": 3,
      "note": 78,
      "start": 6.183,
      "duration": 0.0163,
      "velocity": 86,
      "chip": "ym2612"
    },
    {
      "channel": 4,
      "note": 61,
      "start": 6.1834,
      "duration": 0.0162,
      "velocity": 127,
      "chip": "ym2612"
    },
    {
      "channel": 0,
      "note": 43,
      "start": 6.1993,
      "duration": 0.0148,
      "velocity": 127,
      "chip": "ym2612"
    },
    {
      "channel": 3,
      "note": 79,
      "start": 6.1995,
      "duration": 0.0148,
      "velocity": 86,
      "chip": "ym2612"
    },
    {
      "channel": 4,
      "note": 63,
      "start": 6.1997,
      "duration": 0.0148,
      "velocity": 127,
      "chip": "ym2612"
    },
    {
      "channel": 0,
      "note": 44,
      "start": 6.2142,
      "duration": 0.0168,
      "velocity": 127,
      "chip": "ym2612"
    },
    {
      "channel": 3,
      "note": 80,
      "start": 6.2145,
      "duration": 0.0166,
      "velocity": 86,
      "chip": "ym2612"
    },
    {
      "channel": 4,
      "note": 66,
      "start": 6.2147,
      "duration": 0.0165,
      "velocity": 127,
      "chip": "ym2612"
    },
    {
      "channel": 4,
      "note": 71,
      "start": 6.2313,
      "duration": 0.0158,
      "velocity": 127,
      "chip": "ym2612"
    },
    {
      "channel": 1,
      "note": 68,
      "start": 6.2471,
      "duration": 0.0637,
      "velocity": 100,
      "chip": "ym2612"
    },
    {
      "channel": 4,
      "note": 61,
      "start": 6.2473,
      "duration": 0.0166,
      "velocity": 127,
      "chip": "ym2612"
    },
    {
      "channel": 4,
      "note": 63,
      "start": 6.2642,
      "duration": 0.0162,
      "velocity": 127,
      "chip": "ym2612"
    },
    {
      "channel": 2,
      "note": 32,
      "start": 6.2801,
      "duration": 0.031,
      "velocity": 114,
      "chip": "ym2612"
    },
    {
      "channel": 3,
      "note": 75,
      "start": 6.2803,
      "duration": 0.0146,
      "velocity": 86,
      "chip": "ym2612"
    },
    {
      "channel": 4,
      "note": 66,
      "start": 6.2805,
      "duration": 0.0145,
      "velocity": 127,
      "chip": "ym2612"
    },
    {
      "channel": 4,
      "note": 71,
      "start": 6.2952,
      "duration": 0.0172,
      "velocity": 127,
      "chip": "ym2612"
    },
    {
      "channel": 1,
      "note": 68,
      "start": 6.311,
      "duration": 0.0652,
      "velocity": 100,
      "chip": "ym2612"
    },
    {
      "channel": 2,
      "note": 84,
      "start": 6.3123,
      "duration": 0.0642,
      "velocity": 127,
      "chip": "ym2612"
    },
    {
      "channel": 4,
      "note": 61,
      "start": 6.3125,
      "duration": 0.0148,
      "velocity": 127,
      "chip": "ym2612"
    },
    {
      "channel": 4,
      "note": 63,
      "start": 6.3275,
      "duration": 0.0172,
      "velocity": 127,
      "chip": "ym2612"
    },
    {
      "channel": 3,
      "note": 73,
      "start": 6.3446,
      "duration": 0.0171,
      "velocity": 86,
      "chip": "ym2612"
    },
    {
      "channel": 4,
      "note": 66,
      "start": 6.3448,
      "duration": 0.017,
      "velocity": 127,
      "chip": "ym2612"
    },
    {
      "channel": 4,
      "note": 71,
      "start": 6.3619,
      "duration": 0.0159,
      "velocity": 127,
      "chip": "ym2612"
    },
    {
      "channel": 1,
      "note": 68,
      "start": 6.3765,
      "duration": 0.0653,
      "velocity": 100,
      "chip": "ym2612"
    },
    {
      "channel": 2,
      "note": 32,
      "start": 6.3777,
      "duration": 0.0644,
      "velocity": 114,
      "chip": "ym2612"
    },
    {
      "channel": 4,
      "note": 61,
      "start": 6.3779,
      "duration": 0.0158,
      "velocity": 127,
      "chip": "ym2612"
    },
    {
      "channel": 4,
      "note": 63,
      "start": 6.3939,
      "duration": 0.0147,
      "velocity": 127,
      "chip": "ym2612"
    },
    {
      "channel": 3,
      "note": 66,
      "start": 6.4086,
      "duration": 0.0163,
      "velocity": 86,
      "chip": "ym2612"
    },
    {
      "channel": 4,
      "note": 66,
      "start": 6.4088,
      "duration": 0.0161,
      "velocity": 127,
      "chip": "ym2612"
    },
    {
      "channel": 4,
      "note": 71,
      "start": 6.4251,
      "duration": 0.0174,
      "velocity": 127,
      "chip": "ym2612"
    },
    {
      "channel": 0,
      "note": 42,
      "start": 6.4417,
      "duration": 0.0169,
      "velocity": 127,
      "chip": "ym2612"
    },
    {
      "channel": 1,
      "note": 68,
      "start": 6.442,
      "duration": 0.0638,
      "velocity": 100,
      "chip": "ym2612"
    },
    {
      "channel": 2,
      "note": 32,
      "start": 6.4422,
      "duration": 0.0949,
      "velocity": 114,
      "chip": "ym2612"
    },
    {
      "channel": 3,
      "note": 68,
      "start": 6.4424,
      "duration": 0.0164,
      "velocity": 86,
      "chip": "ym2612"
    },
    {
      "channel": 4,
      "note": 61,
      "start": 6.4427,
      "duration": 0.0162,
      "velocity": 127,
      "chip": "ym2612"
    },
    {
      "channel": 0,
      "note": 43,
      "start": 6.4588,
      "duration": 0.0163,
      "velocity": 127,
      "chip": "ym2612"
    },
    {
      "channel": 4,
      "note": 63,
      "start": 6.4591,
      "duration": 0.0162,
      "velocity": 127,
      "chip": "ym2612"
    },
    {
      "channel": 0,
      "note": 44,
      "start": 6.4752,
      "duration": 0.0146,
      "velocity": 127,
      "chip": "ym2612"
    },
    {
      "channel": 4,
      "note": 66,
      "start": 6.4754,
      "duration": 0.0145,
      "velocity": 127,
      "chip": "ym2612"
    },
    {
      "channel": 4,
      "note": 73,
      "start": 6.4901,
      "duration": 0.016,
      "velocity": 127,
      "chip": "ym2612"
    },
    {
      "channel": 1,
      "note": 68,
      "start": 6.506,
      "duration": 0.0638,
      "velocity": 100,
      "chip": "ym2612"
    },
    {
      "channel": 4,
      "note": 61,
      "start": 6.5063,
      "duration": 0.0157,
      "velocity": 127,
      "chip": "ym2612"
    },
    {
      "channel": 4,
      "note": 63,
      "start": 6.5221,
      "duration": 0.0153,
      "velocity": 127,
      "chip": "ym2612"
    },
    {
      "channel": 2,
      "note": 32,
      "start": 6.5373,
      "duration": 0.0328,
      "velocity": 114,
      "chip": "ym2612"
    },
    {
      "channel": 4,
      "note": 66,
      "start": 6.5375,
      "duration": 0.0175,
      "velocity": 127,
      "chip": "ym2612"
    },
    {
      "channel": 4,
      "note": 73,
      "start": 6.5552,
      "duration": 0.0162,
      "velocity": 127,
      "chip": "ym2612"
    },
    {
      "channel": 1,
      "note": 68,
      "start": 6.5701,
      "duration": 0.0645,
      "velocity": 100,
      "chip": "ym2612"
    },
    {
      "channel": 2,
      "note": 84,
      "start": 6.5713,
      "duration": 0.0635,
      "velocity": 127,
      "chip": "ym2612"
    },
    {
      "channel": 4,
      "note": 61,
      "start": 6.5716,
      "duration": 0.0158,
      "velocity": 127,
      "chip": "ym2612"
    },
    {
      "channel": 4,
      "note": 63,
      "start": 6.5876,
      "duration": 0.0157,
      "velocity": 127,
      "chip": "ym2612"
    },
    {
      "channel": 4,
      "note": 66,
      "start": 6.6035,
      "duration": 0.0145,
      "velocity": 127,
      "chip": "ym2612"
    },
    {
      "channel": 4,
      "note": 73,
      "start": 6.6182,
      "duration": 0.0179,
      "velocity": 127,
      "chip": "ym2612"
    },
    {
      "channel": 1,
      "note": 68,
      "start": 6.6347,
      "duration": 0.0648,
      "velocity": 100,
      "chip": "ym2612"
    },
    {
      "channel": 2,
      "note": 32,
      "start": 6.636,
      "duration": 0.0638,
      "velocity": 114,
      "chip": "ym2612"
    },
    {
      "channel": 4,
      "note": 61,
      "start": 6.6363,
      "duration": 0.0156,
      "velocity": 127,
      "chip": "ym2612"
    },
    {
      "channel": 4,
      "note": 63,
      "start": 6.652,
      "duration": 0.0166,
      "velocity": 127,
      "chip": "ym2612"
    },
    {
      "channel": 4,
      "note": 66,
      "start": 6.6688,
      "duration": 0.0157,
      "velocity": 127,
      "chip": "ym2612"
    },
    {
      "channel": 4,
      "note": 73,
      "start": 6.6848,
      "duration": 0.0155,
      "velocity": 127,
      "chip": "ym2612"
    },
    {
      "channel": 0,
      "note": 42,
      "start": 6.6995,
      "duration": 0.0168,
      "velocity": 127,
      "chip": "ym2612"
    },
    {
      "channel": 1,
      "note": 68,
      "start": 6.6998,
      "duration": 0.0665,
      "velocity": 100,
      "chip": "ym2612"
    },
    {
      "channel": 2,
      "note": 32,
      "start": 6.7,
      "duration": 0.0972,
      "velocity": 114,
      "chip": "ym2612"
    },
    {
      "channel": 3,
      "note": 78,
      "start": 6.7002,
      "duration": 0.0163,
      "velocity": 86,
      "chip": "ym2612"
    },
    {
      "channel": 4,
      "note": 61,
      "start": 6.7006,
      "duration": 0.0162,
      "velocity": 127,
      "chip": "ym2612"
    },
    {
      "channel": 0,
      "note": 43,
      "start": 6.7165,
      "duration": 0.0151,
      "velocity": 127,
      "chip": "ym2612"
    },
    {
      "channel": 3,
      "note": 79,
      "start": 6.7167,
      "duration": 0.0151,
      "velocity": 86,
      "chip": "ym2612"
    },
    {
      "channel": 4,
      "note": 63,
      "start": 6.717,
      "duration": 0.0151,
      "velocity": 127,
      "chip": "ym2612"
    },
    {
      "channel": 0,
      "note": 44,
      "start": 6.7318,
      "duration": 0.0173,
      "velocity": 127,
      "chip": "ym2612"
    },
    {
      "channel": 3,
      "note": 80,
      "start": 6.732,
      "duration": 0.0172,
      "velocity": 86,
      "chip": "ym2612"
    },
    {
      "channel": 4,
      "note": 66,
      "start": 6.7323,
      "duration": 0.0171,
      "velocity": 127,
      "chip": "ym2612"
    },
    {
      "channel": 4,
      "note": 71,
      "start": 6.7495,
      "duration": 0.0171,
      "velocity": 127,
      "chip": "ym2612"
    },
    {
      "channel": 1,
      "note": 68,
      "start": 6.7665,
      "duration": 0.062,
      "velocity": 100,
      "chip": "ym2612"
    },
    {
      "channel": 4,
      "note": 61,
      "start": 6.7668,
      "duration": 0.0144,
      "velocity": 127,
      "chip": "ym2612"
    },
    {
      "channel": 4,
      "note": 63,
      "start": 6.7814,
      "duration": 0.0162,
      "velocity": 127,
      "chip": "ym2612"
    },
    {
      "channel": 2,
      "note": 32,
      "start": 6.7974,
      "duration": 0.0314,
      "velocity": 114,
      "chip": "ym2612"
    },
    {
      "channel": 3,
      "note": 75,
      "start": 6.7976,
      "duration": 0.0147,
      "velocity": 86,
      "chip": "ym2612"
    },
    {
      "channel": 4,
      "note": 66,
      "start": 6.7978,
      "duration": 0.0145,
      "velocity": 127,
      "chip": "ym2612"
    },
    {
      "channel": 4,
      "note": 71,
      "start": 6.8125,
      "duration": 0.0176,
      "velocity": 127,
      "chip": "ym2612"
    },
    {
      "channel": 1,
      "note": 68,
      "start": 6.8288,
      "duration": 0.0648,
      "velocity": 100,
      "chip": "ym2612"
    },
    {
      "channel": 2,
      "note": 84,
      "start": 6.83,
      "duration": 0.0639,
      "velocity": 127,
      "chip": "ym2612"
    },
    {
      "channel": 4,
      "note": 61,
      "start": 6.8302,
      "duration": 0.0163,
      "velocity": 127,
      "chip": "ym2612"
    },
    {
      "channel": 4,
      "note": 63,
      "start": 6.8467,
      "duration": 0.0161,
      "velocity": 127,
      "chip": "ym2612"
    },
    {
      "channel": 3,
      "note": 73,
      "start": 6.8627,
      "duration": 0.0162,
      "velocity": 86,
      "chip": "ym2612"
    },
    {
      "channel": 4,
      "note": 66,
      "start": 6.8629,
      "duration": 0.0161,
      "velocity": 127,
      "chip": "ym2612"
    },
    {
      "channel": 4,
      "note": 71,
      "start": 6.8792,
      "duration": 0.0159,
      "velocity": 127,
      "chip": "ym2612"
    },
    {
      "channel": 1,
      "note": 68,
      "start": 6.8938,
      "duration": 0.0667,
      "velocity": 100,
      "chip": "ym2612"
    },
    {
      "channel": 2,
      "note": 32,
      "start": 6.895,
      "duration": 0.0655,
      "velocity": 114,
      "chip": "ym2612"
    },
    {
      "channel": 4,
      "note": 61,
      "start": 6.8953,
      "duration": 0.0158,
      "velocity": 127,
      "chip": "ym2612"
    },
    {
      "channel": 4,
      "note": 63,
      "start": 6.9113,
      "duration": 0.0159,
      "velocity": 127,
      "chip": "ym2612"
    },
    {
      "channel": 3,
      "note": 66,
      "start": 6.9272,
      "duration": 0.0152,
      "velocity": 86,
      "chip": "ym2612"
    },
    {
      "channel": 4,
      "note": 66,
      "start": 6.9274,
      "duration": 0.0151,
      "velocity": 127,
      "chip": "ym2612"
    },
    {
      "channel": 4,
      "note": 71,
      "start": 6.9427,
      "duration": 0.0184,
      "velocity": 127,
      "chip": "ym2612"
    },
    {
      "channel": 0,
      "note": 42,
      "start": 6.9604,
      "duration": 0.0156,
      "velocity": 127,
      "chip": "ym2612"
    },
    {
      "channel": 2,
      "note": 32,
      "start": 6.9608,
      "duration": 0.0946,
      "velocity": 114,
      "chip": "ym2612"
    },
    {
      "channel": 3,
      "note": 63,
      "start": 6.961,
      "duration": 0.0153,
      "velocity": 86,
      "chip": "ym2612"
    },
    {
      "channel": 4,
      "note": 61,
      "start": 6.9612,
      "duration": 0.0151,
      "velocity": 127,
      "chip": "ym2612"
    },
    {
      "channel": 0,
      "note": 43,
      "start": 6.9762,
      "duration": 0.0161,
      "velocity": 127,
      "chip": "ym2612"
    },
    {
      "channel": 4,
      "note": 63,
      "start": 6.9766,
      "duration": 0.016,
      "velocity": 127,
      "chip": "ym2612"
    },
    {
      "channel": 0,
      "note": 44,
      "start": 6.9924,
      "duration": 0.0159,
      "velocity": 127,
      "chip": "ym2612"
    },
    {
      "channel": 4,
      "note": 66,
      "start": 6.9927,
      "duration": 0.0158,
      "velocity": 127,
      "chip": "ym2612"
    },
    {
      "channel": 4,
      "note": 73,
      "start": 7.0087,
      "duration": 0.0144,
      "velocity": 127,
      "chip": "ym2612"
    },
    {
      "channel": 4,
      "note": 61,
      "start": 7.0233,
      "duration": 0.0163,
      "velocity": 127,
      "chip": "ym2612"
    },
    {
      "channel": 4,
      "note": 63,
      "start": 7.0398,
      "duration": 0.016,
      "velocity": 127,
      "chip": "ym2612"
    },
    {
      "channel": 2,
      "note": 32,
      "start": 7.0555,
      "duration": 0.033,
      "velocity": 114,
      "chip": "ym2612"
    },
    {
      "channel": 3,
      "note": 61,
      "start": 7.0558,
      "duration": 0.0168,
      "velocity": 86,
      "chip": "ym2612"
    },
    {
      "channel": 4,
      "note": 66,
      "start": 7.056,
      "duration": 0.0167,
      "velocity": 127,
      "chip": "ym2612"
    },
    {
      "channel": 4,
      "note": 73,
      "start": 7.0729,
      "duration": 0.0169,
      "velocity": 127,
      "chip": "ym2612"
    },
    {
      "channel": 2,
      "note": 84,
      "start": 7.0898,
      "duration": 0.0624,
      "velocity": 127,
      "chip": "ym2612"
    },
    {
      "channel": 4,
      "note": 61,
      "start": 7.09,
      "duration": 0.0145,
      "velocity": 127,
      "chip": "ym2612"
    },
    {
      "channel": 4,
      "note": 63,
      "start": 7.1047,
      "duration": 0.0156,
      "velocity": 127,
      "chip": "ym2612"
    },
    {
      "channel": 4,
      "note": 66,
      "start": 7.1205,
      "duration": 0.0147,
      "velocity": 127,
      "chip": "ym2612"
    },
    {
      "channel": 4,
      "note": 73,
      "start": 7.1354,
      "duration": 0.018,
      "velocity": 127,
      "chip": "ym2612"
    },
    {
      "channel": 2,
      "note": 32,
      "start": 7.1533,
      "duration": 0.063,
      "velocity": 114,
      "chip": "ym2612"
    },
    {
      "channel": 4,
      "note": 61,
      "start": 7.1536,
      "duration": 0.0169,
      "velocity": 127,
      "chip": "ym2612"
    },
    {
      "channel": 4,
      "note": 63,
      "start": 7.1707,
      "duration": 0.0144,
      "velocity": 127,
      "chip": "ym2612"
    },
    {
      "channel": 4,
      "note": 66,
      "start": 7.1853,
      "duration": 0.0157,
      "velocity": 127,
      "chip": "ym2612"
    },
    {
      "channel": 4,
      "note": 73,
      "start": 7.2012,
      "duration": 0.0157,
      "velocity": 127,
      "chip": "ym2612"
    },
    {
      "channel": 0,
      "note": 42,
      "start": 7.216,
      "duration": 0.0172,
      "velocity": 127,
      "chip": "ym2612"
    },
    {
      "channel": 1,
      "note": 68,
      "start": 7.2163,
      "duration": 0.0666,
      "velocity": 100,
      "chip": "ym2612"
    },
    {
      "channel": 2,
      "note": 32,
      "start": 7.2165,
      "duration": 0.0971,
      "velocity": 114,
      "chip": "ym2612"
    },
    {
      "channel": 3,
      "note": 78,
      "start": 7.2168,
      "duration": 0.0166,
      "velocity": 86,
      "chip": "ym2612"
    },
    {
      "channel": 4,
      "note": 68,
      "start": 7.2171,
      "duration": 0.0166,
      "velocity": 127,
      "chip": "ym2612"
    },
    {
      "channel": 0,
      "note": 43,
      "start": 7.2334,
      "duration": 0.0167,
      "velocity": 127,
      "chip": "ym2612"
    },
    {
      "channel": 3,
      "note": 79,
      "start": 7.2336,
      "duration": 0.0167,
      "velocity": 86,
      "chip": "ym2612"
    },
    {
      "channel": 4,
      "note": 71,
      "start": 7.2338,
      "duration": 0.0167,
      "velocity": 127,
      "chip": "ym2612"
    },
    {
      "channel": 0,
      "note": 44,
      "start": 7.2502,
      "duration": 0.0163,
      "velocity": 127,
      "chip": "ym2612"
    },
    {
      "channel": 3,
      "note": 80,
      "start": 7.2505,
      "duration": 0.0162,
      "velocity": 86,
      "chip": "ym2612"
    },
    {
      "channel": 4,
      "note": 63,
      "start": 7.2507,
      "duration": 0.016,
      "velocity": 127,
      "chip": "ym2612"
    },
    {
      "channel": 4,
      "note": 61,
      "start": 7.2669,
      "duration": 0.0163,
      "velocity": 127,
      "chip": "ym2612"
    },
    {
      "channel": 1,
      "note": 68,
      "start": 7.2831,
      "duration": 0.062,
      "velocity": 100,
      "chip": "ym2612"
    },
    {
      "channel": 4,
      "note": 59,
      "start": 7.2834,
      "duration": 0.0145,
      "velocity": 127,
      "chip": "ym2612"
    },
    {
      "channel": 2,
      "note": 32,
      "start": 7.3139,
      "duration": 0.0315,
      "velocity": 114,
      "chip": "ym2612"
    },
    {
      "channel": 3,
      "note": 75,
      "start": 7.3141,
      "duration": 0.0159,
      "velocity": 86,
      "chip": "ym2612"
    },
    {
      "channel": 4,
      "note": 54,
      "start": 7.3143,
      "duration": 0.0158,
      "velocity": 127,
      "chip": "ym2612"
    },
    {
      "channel": 1,
      "note": 68,
      "start": 7.3454,
      "duration": 0.0658,
      "velocity": 100,
      "chip": "ym2612"
    },
    {
      "channel": 2,
      "note": 84,
      "start": 7.3466,
      "duration": 0.0649,
      "velocity": 127,
      "chip": "ym2612"
    },
    {
      "channel": 4,
      "note": 51,
      "start": 7.3468,
      "duration": 0.0174,
      "velocity": 127,
      "chip": "ym2612"
    },
    {
      "channel": 3,
      "note": 73,
      "start": 7.3792,
      "duration": 0.016,
      "velocity": 86,
      "chip": "ym2612"
    },
    {
      "channel": 4,
      "note": 54,
      "start": 7.3795,
      "duration": 0.0158,
      "velocity": 127,
      "chip": "ym2612"
    },
    {
      "channel": 4,
      "note": 59,
      "start": 7.3955,
      "duration": 0.0173,
      "velocity": 127,
      "chip": "ym2612"
    },
    {
      "channel": 1,
      "note": 68,
      "start": 7.4114,
      "duration": 0.0654,
      "velocity": 100,
      "chip": "ym2612"
    },
    {
      "channel": 2,
      "note": 32,
      "start": 7.4126,
      "duration": 0.0645,
      "velocity": 114,
      "chip": "ym2612"
    },
    {
      "channel": 4,
      "note": 61,
      "start": 7.4129,
      "duration": 0.0144,
      "velocity": 127,
      "chip": "ym2612"
    },
    {
      "channel": 4,
      "note": 63,
      "start": 7.4275,
      "duration": 0.0164,
      "velocity": 127,
      "chip": "ym2612"
    },
    {
      "channel": 3,
      "note": 66,
      "start": 7.4438,
      "duration": 0.0158,
      "velocity": 86,
      "chip": "ym2612"
    },
    {
      "channel": 4,
      "note": 68,
      "start": 7.4441,
      "duration": 0.0156,
      "velocity": 127,
      "chip": "ym2612"
    },
    {
      "channel": 4,
      "note": 71,
      "start": 7.4599,
      "duration": 0.0177,
      "velocity": 127,
      "chip": "ym2612"
    },
    {
      "channel": 0,
      "note": 42,
      "start": 7.4768,
      "duration": 0.0168,
      "velocity": 127,
      "chip": "ym2612"
    },
    {
      "channel": 1,
      "note": 68,
      "start": 7.477,
      "duration": 0.0628,
      "velocity": 100,
      "chip": "ym2612"
    },
    {
      "channel": 2,
      "note": 32,
      "start": 7.4773,
      "duration": 0.0967,
      "velocity": 114,
      "chip": "ym2612"
    },
    {
      "channel": 3,
      "note": 68,
      "start": 7.4775,
      "duration": 0.0163,
      "velocity": 86,
      "chip": "ym2612"
    },
    {
      "channel": 4,
      "note": 68,
      "start": 7.4778,
      "duration": 0.0161,
      "velocity": 127,
      "chip": "ym2612"
    },
    {
      "channel": 0,
      "note": 43,
      "start": 7.4938,
      "duration": 0.0148,
      "velocity": 127,
      "chip": "ym2612"
    },
    {
      "channel": 4,
      "note": 71,
      "start": 7.4941,
      "duration": 0.0148,
      "velocity": 127,
      "chip": "ym2612"
    },
    {
      "channel": 0,
      "note": 44,
      "start": 7.5087,
      "duration": 0.0161,
      "velocity": 127,
      "chip": "ym2612"
    },
    {
      "channel": 4,
      "note": 63,
      "start": 7.509,
      "duration": 0.0159,
      "velocity": 127,
      "chip": "ym2612"
    },
    {
      "channel": 4,
      "note": 61,
      "start": 7.5251,
      "duration": 0.015,
      "velocity": 127,
      "chip": "ym2612"
    },
    {
      "channel": 1,
      "note": 68,
      "start": 7.54,
      "duration": 0.0645,
      "velocity": 100,
      "chip": "ym2612"
    },
    {
      "channel": 4,
      "note": 63,
      "start": 7.5403,
      "duration": 0.0169,
      "velocity": 127,
      "chip": "ym2612"
    },
    {
      "channel": 2,
      "note": 32,
      "start": 7.5742,
      "duration": 0.0307,
      "velocity": 114,
      "chip": "ym2612"
    },
    {
      "channel": 4,
      "note": 59,
      "start": 7.5745,
      "duration": 0.0144,
      "velocity": 127,
      "chip": "ym2612"
    },
    {
      "channel": 1,
      "note": 68,
      "start": 7.6048,
      "duration": 0.064,
      "velocity": 100,
      "chip": "ym2612"
    },
    {
      "channel": 2,
      "note": 84,
      "start": 7.606,
      "duration": 0.0632,
      "velocity": 127,
      "chip": "ym2612"
    },
    {
      "channel": 4,
      "note": 61,
      "start": 7.6063,
      "duration": 0.0145,
      "velocity": 127,
      "chip": "ym2612"
    },
    {
      "channel": 1,
      "note": 68,
      "start": 7.6691,
      "duration": 0.0644,
      "velocity": 100,
      "chip": "ym2612"
    },
    {
      "channel": 2,
      "note": 32,
      "start": 7.6704,
      "duration": 0.0634,
      "velocity": 114,
      "chip": "ym2612"
    },
    {
      "channel": 4,
      "note": 71,
      "start": 7.6706,
      "duration": 0.016,
      "velocity": 127,
      "chip": "ym2612"
    },
    {
      "channel": 4,
      "note": 70,
      "start": 7.6868,
      "duration": 0.0144,
      "velocity": 127,
      "chip": "ym2612"
    },
    {
      "channel": 4,
      "note": 66,
      "start": 7.7014,
      "duration": 0.0158,
      "velocity": 127,
      "chip": "ym2612"
    },
    {
      "channel": 4,
      "note": 61,
      "start": 7.7174,
      "duration": 0.0168,
      "velocity": 127,
      "chip": "ym2612"
    },
    {
      "channel": 0,
      "note": 42,
      "start": 7.7334,
      "duration": 0.0161,
      "velocity": 127,
      "chip": "ym2612"
    },
    {
      "channel": 1,
      "note": 68,
      "start": 7.7337,
      "duration": 0.0654,
      "velocity": 100,
      "chip": "ym2612"
    },
    {
      "channel": 2,
      "note": 32,
      "start": 7.734,
      "duration": 0.0957,
      "velocity": 114,
      "chip": "ym2612"
    },
    {
      "channel": 3,
      "note": 78,
      "start": 7.7342,
      "duration": 0.0156,
      "velocity": 86,
      "chip": "ym2612"
    },
    {
      "channel": 4,
      "note": 68,
      "start": 7.7345,
      "duration": 0.0156,
      "velocity": 127,
      "chip": "ym2612"
    },
    {
      "channel": 0,
      "note": 43,
      "start": 7.7498,
      "duration": 0.0178,
      "velocity": 127,
      "chip": "ym2612"
    },
    {
      "channel": 3,
      "note": 79,
      "start": 7.75,
      "duration": 0.0178,
      "velocity": 86,
      "chip": "ym2612"
    },
    {
      "channel": 4,
      "note": 71,
      "start": 7.7502,
      "duration": 0.0178,
      "velocity": 127,
      "chip": "ym2612"
    },
    {
      "channel": 0,
      "note": 44,
      "start": 7.7678,
      "duration": 0.0151,
      "velocity": 127,
      "chip": "ym2612"
    },
    {
      "channel": 3,
      "note": 80,
      "start": 7.768,
      "duration": 0.015,
      "velocity": 86,
      "chip": "ym2612"
    },
    {
      "channel": 4,
      "note": 63,
      "start": 7.7683,
      "duration": 0.0149,
      "velocity": 127,
      "chip": "ym2612"
    },
    {
      "channel": 4,
      "note": 61,
      "start": 7.7833,
      "duration": 0.0161,
      "velocity": 127,
      "chip": "ym2612"
    },
    {
      "channel": 1,
      "note": 68,
      "start": 7.7993,
      "duration": 0.063,
      "velocity": 100,
      "chip": "ym2612"
    },
    {
      "channel": 4,
      "note": 59,
      "start": 7.7996,
      "duration": 0.0158,
      "velocity": 127,
      "chip": "ym2612"
    },
    {
      "channel": 2,
      "note": 32,
      "start": 7.83,
      "duration": 0.0327,
      "velocity": 114,
      "chip": "ym2612"
    },
    {
      "channel": 3,
      "note": 75,
      "start": 7.8301,
      "duration": 0.0166,
      "velocity": 86,
      "chip": "ym2612"
    },
    {
      "channel": 4,
      "note": 54,
      "start": 7.8304,
      "duration": 0.0164,
      "velocity": 127,
      "chip": "ym2612"
    },
    {
      "channel": 1,
      "note": 68,
      "start": 7.8626,
      "duration": 0.0648,
      "velocity": 100,
      "chip": "ym2612"
    },
    {
      "channel": 2,
      "note": 84,
      "start": 7.8639,
      "duration": 0.0638,
      "velocity": 127,
      "chip": "ym2612"
    },
    {
      "channel": 4,
      "note": 51,
      "start": 7.8641,
      "duration": 0.0166,
      "velocity": 127,
      "chip": "ym2612"
    },
    {
      "channel": 3,
      "note": 73,
      "start": 7.8966,
      "duration": 0.0147,
      "velocity": 86,
      "chip": "ym2612"
    },
    {
      "channel": 4,
      "note": 54,
      "start": 7.8968,
      "duration": 0.0145,
      "velocity": 127,
      "chip": "ym2612"
    },
    {
      "channel": 4,
      "note": 59,
      "start": 7.9116,
      "duration": 0.0174,
      "velocity": 127,
      "chip": "ym2612"
    },
    {
      "channel": 1,
      "note": 68,
      "start": 7.9276,
      "duration": 0.0656,
      "velocity": 100,
      "chip": "ym2612"
    },
    {
      "channel": 2,
      "note": 32,
      "start": 7.9288,
      "duration": 0.0646,
      "velocity": 114,
      "chip": "ym2612"
    },
    {
      "channel": 4,
      "note": 61,
      "start": 7.929,
      "duration": 0.0148,
      "velocity": 127,
      "chip": "ym2612"
    },
    {
      "channel": 4,
      "note": 63,
      "start": 7.944,
      "duration": 0.017,
      "velocity": 127,
      "chip": "ym2612"
    },
    {
      "channel": 3,
      "note": 66,
      "start": 7.9609,
      "duration": 0.0171,
      "velocity": 86,
      "chip": "ym2612"
    },
    {
      "channel": 4,
      "note": 68,
      "start": 7.9612,
      "duration": 0.0169,
      "velocity": 127,
      "chip": "ym2612"
    },
    {
      "channel": 4,
      "note": 71,
      "start": 7.9783,
      "duration": 0.0154,
      "velocity": 127,
      "chip": "ym2612"
    },
    {
      "channel": 0,
      "note": 42,
      "start": 7.9931,
      "duration": 0.0165,
      "velocity": 127,
      "chip": "ym2612"
    },
    {
      "channel": 1,
      "note": 68,
      "start": 7.9934,
      "duration": 0.0641,
      "velocity": 100,
      "chip": "ym2612"
    },
    {
      "channel": 3,
      "note": 63,
      "start": 7.9937,
      "duration": 0.0162,
      "velocity": 86,
      "chip": "ym2612"
    },
    {
      "channel": 4,
      "note": 68,
      "start": 7.9939,
      "duration": 0.016,
      "velocity": 127,
      "chip": "ym2612"
    },
    {
      "channel": 0,
      "note": 43,
      "start": 8.0098,
      "duration": 0.0147,
      "velocity": 127,
      "chip": "ym2612"
    },
    {
      "channel": 4,
      "note": 71,
      "start": 8.0101,
      "duration": 0.0147,
      "velocity": 127,
      "chip": "ym2612"
    },
    {
      "channel": 0,
      "note": 44,
      "start": 8.0246,
      "duration": 0.0162,
      "velocity": 127,
      "chip": "ym2612"
    },
    {
      "channel": 4,
      "note": 63,
      "start": 8.0249,
      "duration": 0.0161,
      "velocity": 127,
      "chip": "ym2612"
    },
    {
      "channel": 4,
      "note": 61,
      "start": 8.0412,
      "duration": 0.0166,
      "velocity": 127,
      "chip": "ym2612"
    },
    {
      "channel": 1,
      "note": 68,
      "start": 8.0577,
      "duration": 0.0628,
      "velocity": 100,
      "chip": "ym2612"
    },
    {
      "channel": 4,
      "note": 63,
      "start": 8.058,
      "duration": 0.0158,
      "velocity": 127,
      "chip": "ym2612"
    },
    {
      "channel": 3,
      "note": 61,
      "start": 8.09,
      "duration": 0.0147,
      "velocity": 86,
      "chip": "ym2612"
    },
    {
      "channel": 4,
      "note": 59,
      "start": 8.0902,
      "duration": 0.0146,
      "velocity": 127,
      "chip": "ym2612"
    },
    {
      "channel": 1,
      "note": 68,
      "start": 8.1207,
      "duration": 0.063,
      "velocity": 100,
      "chip": "ym2612"
    },
    {
      "channel": 4,
      "note": 61,
      "start": 8.121,
      "duration": 0.0157,
      "velocity": 127,
      "chip": "ym2612"
    },
    {
      "channel": 1,
      "note": 68,
      "start": 8.184,
      "duration": 0.0636,
      "velocity": 100,
      "chip": "ym2612"
    },
    {
      "channel": 4,
      "note": 71,
      "start": 8.1842,
      "duration": 0.0158,
      "velocity": 127,
      "chip": "ym2612"
    },
    {
      "channel": 4,
      "note": 70,
      "start": 8.2002,
      "duration": 0.0157,
      "velocity": 127,
      "chip": "ym2612"
    },
    {
      "channel": 4,
      "note": 66,
      "start": 8.2162,
      "duration": 0.0144,
      "velocity": 127,
      "chip": "ym2612"
    },
    {
      "channel": 4,
      "note": 61,
      "start": 8.2308,
      "duration": 0.0183,
      "velocity": 127,
      "chip": "ym2612"
    },
    {
      "channel": 0,
      "note": 42,
      "start": 8.2475,
      "duration": 0.0174,
      "velocity": 127,
      "chip": "ym2612"
    },
    {
      "channel": 1,
      "note": 68,
      "start": 8.2477,
      "duration": 0.0655,
      "velocity": 100,
      "chip": "ym2612"
    },
    {
      "channel": 2,
      "note": 78,
      "start": 8.249,
      "duration": 0.0161,
      "velocity": 86,
      "chip": "ym2612"
    },
    {
      "channel": 4,
      "note": 68,
      "start": 8.2494,
      "duration": 0.016,
      "velocity": 127,
      "chip": "ym2612"
    },
    {
      "channel": 0,
      "note": 43,
      "start": 8.2651,
      "duration": 0.0169,
      "velocity": 127,
      "chip": "ym2612"
    },
    {
      "channel": 2,
      "note": 79,
      "start": 8.2654,
      "duration": 0.0169,
      "velocity": 86,
      "chip": "ym2612"
    },
    {
      "channel": 4,
      "note": 71,
      "start": 8.2656,
      "duration": 0.0169,
      "velocity": 127,
      "chip": "ym2612"
    },
    {
      "channel": 0,
      "note": 44,
      "start": 8.2822,
      "duration": 0.0163,
      "velocity": 127,
      "chip": "ym2612"
    },
    {
      "channel": 2,
      "note": 80,
      "start": 8.2824,
      "duration": 0.0161,
      "velocity": 86,
      "chip": "ym2612"
    },
    {
      "channel": 4,
      "note": 63,
      "start": 8.2827,
      "duration": 0.0159,
      "velocity": 127,
      "chip": "ym2612"
    },
    {
      "channel": 4,
      "note": 61,
      "start": 8.2988,
      "duration": 0.0147,
      "velocity": 127,
      "chip": "ym2612"
    },
    {
      "channel": 1,
      "note": 68,
      "start": 8.3135,
      "duration": 0.065,
      "velocity": 100,
      "chip": "ym2612"
    },
    {
      "channel": 4,
      "note": 59,
      "start": 8.3137,
      "duration": 0.0159,
      "velocity": 127,
      "chip": "ym2612"
    },
    {
      "channel": 2,
      "note": 75,
      "start": 8.3445,
      "duration": 0.0172,
      "velocity": 86,
      "chip": "ym2612"
    },
    {
      "channel": 4,
      "note": 54,
      "start": 8.3447,
      "duration": 0.017,
      "velocity": 127,
      "chip": "ym2612"
    },
    {
      "channel": 1,
      "note": 68,
      "start": 8.3787,
      "duration": 0.0616,
      "velocity": 100,
      "chip": "ym2612"
    },
    {
      "channel": 4,
      "note": 51,
      "start": 8.379,
      "duration": 0.0144,
      "velocity": 127,
      "chip": "ym2612"
    },
    {
      "channel": 2,
      "note": 73,
      "start": 8.4094,
      "duration": 0.0146,
      "velocity": 86,
      "chip": "ym2612"
    },
    {
      "channel": 4,
      "note": 54,
      "start": 8.4097,
      "duration": 0.0145,
      "velocity": 127,
      "chip": "ym2612"
    },
    {
      "channel": 4,
      "note": 59,
      "start": 8.4244,
      "duration": 0.0162,
      "velocity": 127,
      "chip": "ym2612"
    },
    {
      "channel": 1,
      "note": 68,
      "start": 8.4405,
      "duration": 0.0639,
      "velocity": 100,
      "chip": "ym2612"
    },
    {
      "channel": 4,
      "note": 61,
      "start": 8.4408,
      "duration": 0.0164,
      "velocity": 127,
      "chip": "ym2612"
    },
    {
      "channel": 4,
      "note": 63,
      "start": 8.4574,
      "duration": 0.016,
      "velocity": 127,
      "chip": "ym2612"
    },
    {
      "channel": 2,
      "note": 66,
      "start": 8.4733,
      "duration": 0.0162,
      "velocity": 86,
      "chip": "ym2612"
    },
    {
      "channel": 4,
      "note": 68,
      "start": 8.4735,
      "duration": 0.0161,
      "velocity": 127,
      "chip": "ym2612"
    },
    {
      "channel": 4,
      "note": 71,
      "start": 8.4898,
      "duration": 0.0153,
      "velocity": 127,
      "chip": "ym2612"
    },
    {
      "channel": 0,
      "note": 42,
      "start": 8.5044,
      "duration": 0.0167,
      "velocity": 127,
      "chip": "ym2612"
    },
    {
      "channel": 1,
      "note": 68,
      "start": 8.5047,
      "duration": 0.0657,
      "velocity": 100,
      "chip": "ym2612"
    },
    {
      "channel": 2,
      "note": 68,
      "start": 8.5049,
      "duration": 0.0164,
      "velocity": 86,
      "chip": "ym2612"
    },
    {
      "channel": 4,
      "note": 68,
      "start": 8.5052,
      "duration": 0.0162,
      "velocity": 127,
      "chip": "ym2612"
    },
    {
      "channel": 0,
      "note": 43,
      "start": 8.5213,
      "duration": 0.0161,
      "velocity": 127,
      "chip": "ym2612"
    },
    {
      "channel": 4,
      "note": 71,
      "start": 8.5216,
      "duration": 0.016,
      "velocity": 127,
      "chip": "ym2612"
    },
    {
      "channel": 0,
      "note": 44,
      "start": 8.5375,
      "duration": 0.0153,
      "velocity": 127,
      "chip": "ym2612"
    },
    {
      "channel": 4,
      "note": 63,
      "start": 8.5378,
      "duration": 0.0151,
      "velocity": 127,
      "chip": "ym2612"
    },
    {
      "channel": 4,
      "note": 61,
      "start": 8.5531,
      "duration": 0.0176,
      "velocity": 127,
      "chip": "ym2612"
    },
    {
      "channel": 1,
      "note": 68,
      "start": 8.5706,
      "duration": 0.0611,
      "velocity": 100,
      "chip": "ym2612"
    },
    {
      "channel": 4,
      "note": 63,
      "start": 8.5708,
      "duration": 0.0147,
      "velocity": 127,
      "chip": "ym2612"
    },
    {
      "channel": 4,
      "note": 59,
      "start": 8.6015,
      "duration": 0.0157,
      "velocity": 127,
      "chip": "ym2612"
    },
    {
      "channel": 1,
      "note": 68,
      "start": 8.6319,
      "duration": 0.0643,
      "velocity": 100,
      "chip": "ym2612"
    },
    {
      "channel": 4,
      "note": 61,
      "start": 8.6322,
      "duration": 0.0162,
      "velocity": 127,
      "chip": "ym2612"
    },
    {
      "channel": 1,
      "note": 68,
      "start": 8.6965,
      "duration": 0.0629,
      "velocity": 100,
      "chip": "ym2612"
    },
    {
      "channel": 4,
      "note": 71,
      "start": 8.6967,
      "duration": 0.0144,
      "velocity": 127,
      "chip": "ym2612"
    },
    {
      "channel": 4,
      "note": 70,
      "start": 8.7113,
      "duration": 0.0157,
      "velocity": 127,
      "chip": "ym2612"
    },
    {
      "channel": 4,
      "note": 66,
      "start": 8.7272,
      "duration": 0.0147,
      "velocity": 127,
      "chip": "ym2612"
    },
    {
      "channel": 4,
      "note": 61,
      "start": 8.7421,
      "duration": 0.0179,
      "velocity": 127,
      "chip": "ym2612"
    },
    {
      "channel": 0,
      "note": 42,
      "start": 8.7593,
      "duration": 0.0178,
      "velocity": 127,
      "chip": "ym2612"
    },
    {
      "channel": 1,
      "note": 68,
      "start": 8.7595,
      "duration": 0.0637,
      "velocity": 100,
      "chip": "ym2612"
    },
    {
      "channel": 2,
      "note": 78,
      "start": 8.7598,
      "duration": 0.0176,
      "velocity": 86,
      "chip": "ym2612"
    },
    {
      "channel": 4,
      "note": 68,
      "start": 8.7602,
      "duration": 0.0175,
      "velocity": 127,
      "chip": "ym2612"
    },
    {
      "channel": 0,
      "note": 43,
      "start": 8.7773,
      "duration": 0.0149,
      "velocity": 127,
      "chip": "ym2612"
    },
    {
      "channel": 2,
      "note": 79,
      "start": 8.7776,
      "duration": 0.0149,
      "velocity": 86,
      "chip": "ym2612"
    },
    {
      "channel": 4,
      "note": 71,
      "start": 8.7778,
      "duration": 0.0149,
      "velocity": 127,
      "chip": "ym2612"
    },
    {
      "channel": 0,
      "note": 44,
      "start": 8.7924,
      "duration": 0.0162,
      "velocity": 127,
      "chip": "ym2612"
    },
    {
      "channel": 2,
      "note": 80,
      "start": 8.7927,
      "duration": 0.0161,
      "velocity": 86,
      "chip": "ym2612"
    },
    {
      "channel": 4,
      "note": 63,
      "start": 8.7929,
      "duration": 0.0159,
      "velocity": 127,
      "chip": "ym2612"
    },
    {
      "channel": 4,
      "note": 61,
      "start": 8.809,
      "duration": 0.0146,
      "velocity": 127,
      "chip": "ym2612"
    },
    {
      "channel": 1,
      "note": 68,
      "start": 8.8235,
      "duration": 0.0649,
      "velocity": 100,
      "chip": "ym2612"
    },
    {
      "channel": 4,
      "note": 59,
      "start": 8.8238,
      "duration": 0.016,
      "velocity": 127,
      "chip": "ym2612"
    },
    {
      "channel": 2,
      "note": 75,
      "start": 8.8563,
      "duration": 0.0161,
      "velocity": 86,
      "chip": "ym2612"
    },
    {
      "channel": 4,
      "note": 54,
      "start": 8.8565,
      "duration": 0.0159,
      "velocity": 127,
      "chip": "ym2612"
    },
    {
      "channel": 1,
      "note": 68,
      "start": 8.8887,
      "duration": 0.0616,
      "velocity": 100,
      "chip": "ym2612"
    },
    {
      "channel": 4,
      "note": 51,
      "start": 8.8889,
      "duration": 0.0144,
      "velocity": 127,
      "chip": "ym2612"
    },
    {
      "channel": 2,
      "note": 73,
      "start": 8.9192,
      "duration": 0.0159,
      "velocity": 86,
      "chip": "ym2612"
    },
    {
      "channel": 4,
      "note": 54,
      "start": 8.9194,
      "duration": 0.0158,
      "velocity": 127,
      "chip": "ym2612"
    },
    {
      "channel": 4,
      "note": 59,
      "start": 8.9354,
      "duration": 0.0152,
      "velocity": 127,
      "chip": "ym2612"
    },
    {
      "channel": 1,
      "note": 68,
      "start": 8.9505,
      "duration": 0.0651,
      "velocity": 100,
      "chip": "ym2612"
    },
    {
      "channel": 4,
      "note": 61,
      "start": 8.9507,
      "duration": 0.0174,
      "velocity": 127,
      "chip": "ym2612"
    },
    {
      "channel": 4,
      "note": 63,
      "start": 8.9683,
      "duration": 0.015,
      "velocity": 127,
      "chip": "ym2612"
    },
    {
      "channel": 2,
      "note": 66,
      "start": 8.9832,
      "duration": 0.016,
      "velocity": 86,
      "chip": "ym2612"
    },
    {
      "channel": 4,
      "note": 68,
      "start": 8.9834,
      "duration": 0.0159,
      "velocity": 127,
      "chip": "ym2612"
    },
    {
      "channel": 4,
      "note": 71,
      "start": 8.9995,
      "duration": 0.0165,
      "velocity": 127,
      "chip": "ym2612"
    },
    {
      "channel": 0,
      "note": 42,
      "start": 9.0156,
      "duration": 0.0151,
      "velocity": 127,
      "chip": "ym2612"
    },
    {
      "channel": 2,
      "note": 63,
      "start": 9.0159,
      "duration": 0.0151,
      "velocity": 86,
      "chip": "ym2612"
    },
    {
      "channel": 4,
      "note": 68,
      "start": 9.0162,
      "duration": 0.0148,
      "velocity": 127,
      "chip": "ym2612"
    },
    {
      "channel": 0,
      "note": 43,
      "start": 9.0309,
      "duration": 0.0166,
      "velocity": 127,
      "chip": "ym2612"
    },
    {
      "channel": 4,
      "note": 71,
      "start": 9.0312,
      "duration": 0.0166,
      "velocity": 127,
      "chip": "ym2612"
    },
    {
      "channel": 0,
      "note": 44,
      "start": 9.0477,
      "duration": 0.0157,
      "velocity": 127,
      "chip": "ym2612"
    },
    {
      "channel": 4,
      "note": 63,
      "start": 9.0479,
      "duration": 0.0156,
      "velocity": 127,
      "chip": "ym2612"
    },
    {
      "channel": 4,
      "note": 61,
      "start": 9.0637,
      "duration": 0.0166,
      "velocity": 127,
      "chip": "ym2612"
    },
    {
      "channel": 4,
      "note": 63,
      "start": 9.0805,
      "duration": 0.0157,
      "velocity": 127,
      "chip": "ym2612"
    },
    {
      "channel": 2,
      "note": 61,
      "start": 9.111,
      "duration": 0.016,
      "velocity": 86,
      "chip": "ym2612"
    },
    {
      "channel": 4,
      "note": 59,
      "start": 9.1111,
      "duration": 0.0159,
      "velocity": 127,
      "chip": "ym2612"
    },
    {
      "channel": 4,
      "note": 61,
      "start": 9.1421,
      "duration": 0.0168,
      "velocity": 127,
      "chip": "ym2612"
    },
    {
      "channel": 4,
      "note": 71,
      "start": 9.2062,
      "duration": 0.0144,
      "velocity": 127,
      "chip": "ym2612"
    },
    {
      "channel": 4,
      "note": 70,
      "start": 9.2209,
      "duration": 0.016,
      "velocity": 127,
      "chip": "ym2612"
    },
    {
      "channel": 4,
      "note": 66,
      "start": 9.2371,
      "duration": 0.0162,
      "velocity": 127,
      "chip": "ym2612"
    },
    {
      "channel": 4,
      "note": 61,
      "start": 9.2534,
      "duration": 82.8954,
      "velocity": 127,
      "chip": "ym2612"
    }
  ]
}