{
  "track_name": "02 - Planet Fall Dig",
  "duration_sec": 61.433,
  "sample_rate": 44100,
  "note_count": 1456,
  "unique_pitches": 31,
  "pitch_range": 54,
  "avg_note_duration": 0.0752,
  "reconstruction_stats": {
    "notes_reconstructed": 1456,
    "keyon_events": 1456,
    "keyoff_events": 1455,
    "orphan_keyons": 1,
    "unique_pitches": 31,
    "pitch_range": 54,
    "avg_duration_sec": 0.0752
  },
  "metadata": {
    "source": "V\\Vectorman 2\\02 - Planet Fall Dig.vgz"
  },
  "notes": [
    {
      "channel": 0,
      "note": 45,
      "start": 0.0,
      "duration": 0.044,
      "velocity": 107,
      "chip": "ym2612"
    },
    {
      "channel": 5,
      "note": 52,
      "start": 0.0078,
      "duration": 0.1364,
      "velocity": 127,
      "chip": "ym2612"
    },
    {
      "channel": 2,
      "note": 64,
      "start": 0.0154,
      "duration": 0.0623,
      "velocity": 78,
      "chip": "ym2612"
    },
    {
      "channel": 1,
      "note": 52,
      "start": 0.0232,
      "duration": 0.0541,
      "velocity": 115,
      "chip": "ym2612"
    },
    {
      "channel": 3,
      "note": 64,
      "start": 0.216,
      "duration": 0.0781,
      "velocity": 127,
      "chip": "ym2612"
    },
    {
      "channel": 4,
      "note": 64,
      "start": 0.2206,
      "duration": 0.0737,
      "velocity": 78,
      "chip": "ym2612"
    },
    {
      "channel": 1,
      "note": 64,
      "start": 0.2236,
      "duration": 0.0704,
      "velocity": 115,
      "chip": "ym2612"
    },
    {
      "channel": 5,
      "note": 52,
      "start": 0.314,
      "duration": 0.1637,
      "velocity": 127,
      "chip": "ym2612"
    },
    {
      "channel": 1,
      "note": 52,
      "start": 0.3173,
      "duration": 0.0767,
      "velocity": 115,
      "chip": "ym2612"
    },
    {
      "channel": 0,
      "note": 45,
      "start": 0.4134,
      "duration": 0.0641,
      "velocity": 107,
      "chip": "ym2612"
    },
    {
      "channel": 2,
      "note": 64,
      "start": 0.4168,
      "duration": 0.0941,
      "velocity": 78,
      "chip": "ym2612"
    },
    {
      "channel": 3,
      "note": 64,
      "start": 0.5307,
      "duration": 0.08,
      "velocity": 127,
      "chip": "ym2612"
    },
    {
      "channel": 4,
      "note": 64,
      "start": 0.5333,
      "duration": 0.0775,
      "velocity": 78,
      "chip": "ym2612"
    },
    {
      "channel": 5,
      "note": 52,
      "start": 0.6307,
      "duration": 0.1635,
      "velocity": 127,
      "chip": "ym2612"
    },
    {
      "channel": 1,
      "note": 52,
      "start": 0.6343,
      "duration": 0.0763,
      "velocity": 115,
      "chip": "ym2612"
    },
    {
      "channel": 2,
      "note": 64,
      "start": 0.7476,
      "duration": 0.0801,
      "velocity": 78,
      "chip": "ym2612"
    },
    {
      "channel": 0,
      "note": 45,
      "start": 0.8471,
      "duration": 0.0469,
      "velocity": 107,
      "chip": "ym2612"
    },
    {
      "channel": 3,
      "note": 64,
      "start": 0.85,
      "duration": 0.0775,
      "velocity": 127,
      "chip": "ym2612"
    },
    {
      "channel": 4,
      "note": 64,
      "start": 0.8527,
      "duration": 0.0749,
      "velocity": 78,
      "chip": "ym2612"
    },
    {
      "channel": 5,
      "note": 52,
      "start": 0.9473,
      "duration": 0.1635,
      "velocity": 127,
      "chip": "ym2612"
    },
    {
      "channel": 4,
      "note": 76,
      "start": 1.0646,
      "duration": 0.0795,
      "velocity": 78,
      "chip": "ym2612"
    },
    {
      "channel": 2,
      "note": 64,
      "start": 1.0678,
      "duration": 0.0765,
      "velocity": 78,
      "chip": "ym2612"
    },
    {
      "channel": 1,
      "note": 52,
      "start": 1.0707,
      "duration": 0.0732,
      "velocity": 115,
      "chip": "ym2612"
    },
    {
      "channel": 3,
      "note": 64,
      "start": 1.1641,
      "duration": 0.08,
      "velocity": 127,
      "chip": "ym2612"
    },
    {
      "channel": 4,
      "note": 64,
      "start": 1.1668,
      "duration": 0.0774,
      "velocity": 78,
      "chip": "ym2612"
    },
    {
      "channel": 0,
      "note": 45,
      "start": 1.2801,
      "duration": 0.0474,
      "velocity": 107,
      "chip": "ym2612"
    },
    {
      "channel": 5,
      "note": 52,
      "start": 1.2836,
      "duration": 0.1441,
      "velocity": 127,
      "chip": "ym2612"
    },
    {
      "channel": 2,
      "note": 76,
      "start": 1.2866,
      "duration": 0.0744,
      "velocity": 78,
      "chip": "ym2612"
    },
    {
      "channel": 2,
      "note": 64,
      "start": 1.3811,
      "duration": 0.0799,
      "velocity": 78,
      "chip": "ym2612"
    },
    {
      "channel": 1,
      "note": 52,
      "start": 1.3839,
      "duration": 0.0768,
      "velocity": 115,
      "chip": "ym2612"
    },
    {
      "channel": 5,
      "note": 64,
      "start": 1.4807,
      "duration": 0.1634,
      "velocity": 127,
      "chip": "ym2612"
    },
    {
      "channel": 3,
      "note": 64,
      "start": 1.4839,
      "duration": 0.0935,
      "velocity": 127,
      "chip": "ym2612"
    },
    {
      "channel": 4,
      "note": 64,
      "start": 1.4866,
      "duration": 0.091,
      "velocity": 78,
      "chip": "ym2612"
    },
    {
      "channel": 0,
      "note": 45,
      "start": 1.6967,
      "duration": 0.0472,
      "velocity": 107,
      "chip": "ym2612"
    },
    {
      "channel": 5,
      "note": 52,
      "start": 1.6998,
      "duration": 0.1611,
      "velocity": 127,
      "chip": "ym2612"
    },
    {
      "channel": 3,
      "note": 76,
      "start": 1.7024,
      "duration": 0.0753,
      "velocity": 127,
      "chip": "ym2612"
    },
    {
      "channel": 2,
      "note": 64,
      "start": 1.7053,
      "duration": 0.0726,
      "velocity": 78,
      "chip": "ym2612"
    },
    {
      "channel": 1,
      "note": 52,
      "start": 1.7082,
      "duration": 0.0693,
      "velocity": 115,
      "chip": "ym2612"
    },
    {
      "channel": 3,
      "note": 64,
      "start": 1.9141,
      "duration": 0.08,
      "velocity": 127,
      "chip": "ym2612"
    },
    {
      "channel": 4,
      "note": 64,
      "start": 1.9168,
      "duration": 0.0774,
      "velocity": 78,
      "chip": "ym2612"
    },
    {
      "channel": 1,
      "note": 64,
      "start": 1.9199,
      "duration": 0.0741,
      "velocity": 115,
      "chip": "ym2612"
    },
    {
      "channel": 5,
      "note": 52,
      "start": 2.014,
      "duration": 0.1637,
      "velocity": 127,
      "chip": "ym2612"
    },
    {
      "channel": 1,
      "note": 52,
      "start": 2.0173,
      "duration": 0.0934,
      "velocity": 115,
      "chip": "ym2612"
    },
    {
      "channel": 0,
      "note": 45,
      "start": 2.1301,
      "duration": 0.0473,
      "velocity": 107,
      "chip": "ym2612"
    },
    {
      "channel": 2,
      "note": 64,
      "start": 2.1335,
      "duration": 0.0773,
      "velocity": 78,
      "chip": "ym2612"
    },
    {
      "channel": 3,
      "note": 64,
      "start": 2.2307,
      "duration": 0.08,
      "velocity": 127,
      "chip": "ym2612"
    },
    {
      "channel": 4,
      "note": 64,
      "start": 2.2333,
      "duration": 0.0776,
      "velocity": 78,
      "chip": "ym2612"
    },
    {
      "channel": 5,
      "note": 52,
      "start": 2.3473,
      "duration": 0.1469,
      "velocity": 127,
      "chip": "ym2612"
    },
    {
      "channel": 1,
      "note": 52,
      "start": 2.3505,
      "duration": 0.0769,
      "velocity": 115,
      "chip": "ym2612"
    },
    {
      "channel": 2,
      "note": 64,
      "start": 2.4477,
      "duration": 0.08,
      "velocity": 78,
      "chip": "ym2612"
    },
    {
      "channel": 0,
      "note": 45,
      "start": 2.5467,
      "duration": 0.0639,
      "velocity": 107,
      "chip": "ym2612"
    },
    {
      "channel": 3,
      "note": 64,
      "start": 2.5497,
      "duration": 0.0944,
      "velocity": 127,
      "chip": "ym2612"
    },
    {
      "channel": 4,
      "note": 64,
      "start": 2.5523,
      "duration": 0.0919,
      "velocity": 78,
      "chip": "ym2612"
    },
    {
      "channel": 5,
      "note": 52,
      "start": 2.664,
      "duration": 0.1468,
      "velocity": 127,
      "chip": "ym2612"
    },
    {
      "channel": 4,
      "note": 76,
      "start": 2.7642,
      "duration": 0.08,
      "velocity": 78,
      "chip": "ym2612"
    },
    {
      "channel": 2,
      "note": 64,
      "start": 2.767,
      "duration": 0.0773,
      "velocity": 78,
      "chip": "ym2612"
    },
    {
      "channel": 1,
      "note": 52,
      "start": 2.77,
      "duration": 0.074,
      "velocity": 115,
      "chip": "ym2612"
    },
    {
      "channel": 3,
      "note": 64,
      "start": 2.8808,
      "duration": 0.0798,
      "velocity": 127,
      "chip": "ym2612"
    },
    {
      "channel": 4,
      "note": 64,
      "start": 2.8835,
      "duration": 0.0773,
      "velocity": 78,
      "chip": "ym2612"
    },
    {
      "channel": 0,
      "note": 45,
      "start": 2.9801,
      "duration": 0.0473,
      "velocity": 107,
      "chip": "ym2612"
    },
    {
      "channel": 5,
      "note": 52,
      "start": 2.9831,
      "duration": 0.161,
      "velocity": 127,
      "chip": "ym2612"
    },
    {
      "channel": 2,
      "note": 76,
      "start": 2.9862,
      "duration": 0.0747,
      "velocity": 78,
      "chip": "ym2612"
    },
    {
      "channel": 2,
      "note": 64,
      "start": 3.0812,
      "duration": 0.0965,
      "velocity": 78,
      "chip": "ym2612"
    },
    {
      "channel": 1,
      "note": 52,
      "start": 3.0839,
      "duration": 0.0935,
      "velocity": 115,
      "chip": "ym2612"
    },
    {
      "channel": 5,
      "note": 50,
      "start": 3.1974,
      "duration": 0.1468,
      "velocity": 127,
      "chip": "ym2612"
    },
    {
      "channel": 3,
      "note": 64,
      "start": 3.2002,
      "duration": 0.0773,
      "velocity": 127,
      "chip": "ym2612"
    },
    {
      "channel": 4,
      "note": 64,
      "start": 3.2032,
      "duration": 0.0744,
      "velocity": 78,
      "chip": "ym2612"
    },
    {
      "channel": 0,
      "note": 45,
      "start": 3.4134,
      "duration": 0.0473,
      "velocity": 107,
      "chip": "ym2612"
    },
    {
      "channel": 5,
      "note": 52,
      "start": 3.4164,
      "duration": 0.1444,
      "velocity": 127,
      "chip": "ym2612"
    },
    {
      "channel": 3,
      "note": 62,
      "start": 3.419,
      "duration": 0.0751,
      "velocity": 127,
      "chip": "ym2612"
    },
    {
      "channel": 2,
      "note": 64,
      "start": 3.4224,
      "duration": 0.0721,
      "velocity": 78,
      "chip": "ym2612"
    },
    {
      "channel": 1,
      "note": 52,
      "start": 3.4257,
      "duration": 0.0684,
      "velocity": 115,
      "chip": "ym2612"
    },
    {
      "channel": 3,
      "note": 64,
      "start": 3.6142,
      "duration": 0.0966,
      "velocity": 127,
      "chip": "ym2612"
    },
    {
      "channel": 4,
      "note": 64,
      "start": 3.6169,
      "duration": 0.0941,
      "velocity": 78,
      "chip": "ym2612"
    },
    {
      "channel": 1,
      "note": 64,
      "start": 3.62,
      "duration": 0.0908,
      "velocity": 115,
      "chip": "ym2612"
    },
    {
      "channel": 5,
      "note": 52,
      "start": 3.7307,
      "duration": 0.1469,
      "velocity": 127,
      "chip": "ym2612"
    },
    {
      "channel": 1,
      "note": 52,
      "start": 3.7339,
      "duration": 0.0768,
      "velocity": 115,
      "chip": "ym2612"
    },
    {
      "channel": 0,
      "note": 45,
      "start": 3.8301,
      "duration": 0.0473,
      "velocity": 107,
      "chip": "ym2612"
    },
    {
      "channel": 2,
      "note": 64,
      "start": 3.8334,
      "duration": 0.0774,
      "velocity": 78,
      "chip": "ym2612"
    },
    {
      "channel": 3,
      "note": 64,
      "start": 3.9474,
      "duration": 0.08,
      "velocity": 127,
      "chip": "ym2612"
    },
    {
      "channel": 4,
      "note": 64,
      "start": 3.95,
      "duration": 0.0775,
      "velocity": 78,
      "chip": "ym2612"
    },
    {
      "channel": 5,
      "note": 52,
      "start": 4.0474,
      "duration": 0.1634,
      "velocity": 127,
      "chip": "ym2612"
    },
    {
      "channel": 1,
      "note": 52,
      "start": 4.0505,
      "duration": 0.0768,
      "velocity": 115,
      "chip": "ym2612"
    },
    {
      "channel": 2,
      "note": 64,
      "start": 4.1477,
      "duration": 0.0964,
      "velocity": 78,
      "chip": "ym2612"
    },
    {
      "channel": 0,
      "note": 45,
      "start": 4.2633,
      "duration": 0.0474,
      "velocity": 107,
      "chip": "ym2612"
    },
    {
      "channel": 3,
      "note": 64,
      "start": 4.2663,
      "duration": 0.0777,
      "velocity": 127,
      "chip": "ym2612"
    },
    {
      "channel": 4,
      "note": 64,
      "start": 4.269,
      "duration": 0.0752,
      "velocity": 78,
      "chip": "ym2612"
    },
    {
      "channel": 5,
      "note": 52,
      "start": 4.364,
      "duration": 0.1636,
      "velocity": 127,
      "chip": "ym2612"
    },
    {
      "channel": 4,
      "note": 76,
      "start": 4.481,
      "duration": 0.08,
      "velocity": 78,
      "chip": "ym2612"
    },
    {
      "channel": 2,
      "note": 64,
      "start": 4.4837,
      "duration": 0.0774,
      "velocity": 78,
      "chip": "ym2612"
    },
    {
      "channel": 1,
      "note": 52,
      "start": 4.4867,
      "duration": 0.0741,
      "velocity": 115,
      "chip": "ym2612"
    },
    {
      "channel": 3,
      "note": 64,
      "start": 4.5807,
      "duration": 0.08,
      "velocity": 127,
      "chip": "ym2612"
    },
    {
      "channel": 4,
      "note": 64,
      "start": 4.5834,
      "duration": 0.0774,
      "velocity": 78,
      "chip": "ym2612"
    },
    {
      "channel": 0,
      "note": 45,
      "start": 4.6801,
      "duration": 0.0639,
      "velocity": 107,
      "chip": "ym2612"
    },
    {
      "channel": 5,
      "note": 52,
      "start": 4.6836,
      "duration": 0.1606,
      "velocity": 127,
      "chip": "ym2612"
    },
    {
      "channel": 2,
      "note": 76,
      "start": 4.6866,
      "duration": 0.091,
      "velocity": 78,
      "chip": "ym2612"
    },
    {
      "channel": 2,
      "note": 64,
      "start": 4.7978,
      "duration": 0.0798,
      "velocity": 78,
      "chip": "ym2612"
    },
    {
      "channel": 1,
      "note": 52,
      "start": 4.8005,
      "duration": 0.0768,
      "velocity": 115,
      "chip": "ym2612"
    },
    {
      "channel": 5,
      "note": 64,
      "start": 4.8974,
      "duration": 0.1635,
      "velocity": 127,
      "chip": "ym2612"
    },
    {
      "channel": 3,
      "note": 64,
      "start": 4.9005,
      "duration": 0.077,
      "velocity": 127,
      "chip": "ym2612"
    },
    {
      "channel": 4,
      "note": 64,
      "start": 4.9032,
      "duration": 0.0744,
      "velocity": 78,
      "chip": "ym2612"
    },
    {
      "channel": 0,
      "note": 45,
      "start": 5.1133,
      "duration": 0.0474,
      "velocity": 107,
      "chip": "ym2612"
    },
    {
      "channel": 5,
      "note": 52,
      "start": 5.1164,
      "duration": 0.1612,
      "velocity": 127,
      "chip": "ym2612"
    },
    {
      "channel": 3,
      "note": 76,
      "start": 5.119,
      "duration": 0.0752,
      "velocity": 127,
      "chip": "ym2612"
    },
    {
      "channel": 2,
      "note": 64,
      "start": 5.1219,
      "duration": 0.0725,
      "velocity": 78,
      "chip": "ym2612"
    },
    {
      "channel": 1,
      "note": 52,
      "start": 5.1249,
      "duration": 0.0692,
      "velocity": 115,
      "chip": "ym2612"
    },
    {
      "channel": 3,
      "note": 64,
      "start": 5.331,
      "duration": 0.08,
      "velocity": 127,
      "chip": "ym2612"
    },
    {
      "channel": 4,
      "note": 64,
      "start": 5.3336,
      "duration": 0.0774,
      "velocity": 78,
      "chip": "ym2612"
    },
    {
      "channel": 1,
      "note": 64,
      "start": 5.3367,
      "duration": 0.0741,
      "velocity": 115,
      "chip": "ym2612"
    },
    {
      "channel": 5,
      "note": 52,
      "start": 5.4307,
      "duration": 0.1636,
      "velocity": 127,
      "chip": "ym2612"
    },
    {
      "channel": 1,
      "note": 52,
      "start": 5.4344,
      "duration": 0.0763,
      "velocity": 115,
      "chip": "ym2612"
    },
    {
      "channel": 0,
      "note": 45,
      "start": 5.5467,
      "duration": 0.0473,
      "velocity": 107,
      "chip": "ym2612"
    },
    {
      "channel": 2,
      "note": 64,
      "start": 5.5501,
      "duration": 0.0776,
      "velocity": 78,
      "chip": "ym2612"
    },
    {
      "channel": 3,
      "note": 64,
      "start": 5.6474,
      "duration": 0.08,
      "velocity": 127,
      "chip": "ym2612"
    },
    {
      "channel": 4,
      "note": 64,
      "start": 5.65,
      "duration": 0.0776,
      "velocity": 78,
      "chip": "ym2612"
    },
    {
      "channel": 5,
      "note": 52,
      "start": 5.7474,
      "duration": 0.1635,
      "velocity": 127,
      "chip": "ym2612"
    },
    {
      "channel": 1,
      "note": 52,
      "start": 5.7505,
      "duration": 0.0935,
      "velocity": 115,
      "chip": "ym2612"
    },
    {
      "channel": 2,
      "note": 64,
      "start": 5.8642,
      "duration": 0.0799,
      "velocity": 78,
      "chip": "ym2612"
    },
    {
      "channel": 0,
      "note": 45,
      "start": 5.9634,
      "duration": 0.0473,
      "velocity": 107,
      "chip": "ym2612"
    },
    {
      "channel": 3,
      "note": 64,
      "start": 5.9663,
      "duration": 0.0777,
      "velocity": 127,
      "chip": "ym2612"
    },
    {
      "channel": 4,
      "note": 64,
      "start": 5.9694,
      "duration": 0.0748,
      "velocity": 78,
      "chip": "ym2612"
    },
    {
      "channel": 5,
      "note": 52,
      "start": 6.0807,
      "duration": 0.1469,
      "velocity": 127,
      "chip": "ym2612"
    },
    {
      "channel": 4,
      "note": 76,
      "start": 6.181,
      "duration": 0.0799,
      "velocity": 78,
      "chip": "ym2612"
    },
    {
      "channel": 2,
      "note": 64,
      "start": 6.1842,
      "duration": 0.0769,
      "velocity": 78,
      "chip": "ym2612"
    },
    {
      "channel": 1,
      "note": 52,
      "start": 6.1871,
      "duration": 0.0736,
      "velocity": 115,
      "chip": "ym2612"
    },
    {
      "channel": 3,
      "note": 64,
      "start": 6.2807,
      "duration": 0.0967,
      "velocity": 127,
      "chip": "ym2612"
    },
    {
      "channel": 4,
      "note": 64,
      "start": 6.2834,
      "duration": 0.0941,
      "velocity": 78,
      "chip": "ym2612"
    },
    {
      "channel": 0,
      "note": 45,
      "start": 6.3967,
      "duration": 0.0472,
      "velocity": 107,
      "chip": "ym2612"
    },
    {
      "channel": 5,
      "note": 52,
      "start": 6.3998,
      "duration": 0.1445,
      "velocity": 127,
      "chip": "ym2612"
    },
    {
      "channel": 2,
      "note": 76,
      "start": 6.4028,
      "duration": 0.0748,
      "velocity": 78,
      "chip": "ym2612"
    },
    {
      "channel": 2,
      "note": 64,
      "start": 6.4979,
      "duration": 0.0797,
      "velocity": 78,
      "chip": "ym2612"
    },
    {
      "channel": 1,
      "note": 52,
      "start": 6.5007,
      "duration": 0.0767,
      "velocity": 115,
      "chip": "ym2612"
    },
    {
      "channel": 5,
      "note": 50,
      "start": 6.614,
      "duration": 0.1469,
      "velocity": 127,
      "chip": "ym2612"
    },
    {
      "channel": 3,
      "note": 64,
      "start": 6.6168,
      "duration": 0.0774,
      "velocity": 127,
      "chip": "ym2612"
    },
    {
      "channel": 4,
      "note": 64,
      "start": 6.6196,
      "duration": 0.0747,
      "velocity": 78,
      "chip": "ym2612"
    },
    {
      "channel": 0,
      "note": 45,
      "start": 6.8134,
      "duration": 0.064,
      "velocity": 107,
      "chip": "ym2612"
    },
    {
      "channel": 2,
      "note": 39,
      "start": 6.8178,
      "duration": 0.0263,
      "velocity": 119,
      "chip": "ym2612"
    },
    {
      "channel": 5,
      "note": 52,
      "start": 6.8207,
      "duration": 0.1569,
      "velocity": 127,
      "chip": "ym2612"
    },
    {
      "channel": 3,
      "note": 62,
      "start": 6.8233,
      "duration": 0.0874,
      "velocity": 127,
      "chip": "ym2612"
    },
    {
      "channel": 1,
      "note": 64,
      "start": 6.8282,
      "duration": 0.0658,
      "velocity": 127,
      "chip": "ym2612"
    },
    {
      "channel": 4,
      "note": 52,
      "start": 6.8312,
      "duration": 0.0796,
      "velocity": 115,
      "chip": "ym2612"
    },
    {
      "channel": 2,
      "note": 39,
      "start": 6.9305,
      "duration": 0.0304,
      "velocity": 119,
      "chip": "ym2612"
    },
    {
      "channel": 0,
      "note": 64,
      "start": 6.9356,
      "duration": 0.0583,
      "velocity": 127,
      "chip": "ym2612"
    },
    {
      "channel": 2,
      "note": 81,
      "start": 7.032,
      "duration": 0.0288,
      "velocity": 121,
      "chip": "ym2612"
    },
    {
      "channel": 3,
      "note": 64,
      "start": 7.035,
      "duration": 0.0758,
      "velocity": 127,
      "chip": "ym2612"
    },
    {
      "channel": 4,
      "note": 64,
      "start": 7.0383,
      "duration": 0.0727,
      "velocity": 115,
      "chip": "ym2612"
    },
    {
      "channel": 2,
      "note": 39,
      "start": 7.1476,
      "duration": 0.03,
      "velocity": 119,
      "chip": "ym2612"
    },
    {
      "channel": 5,
      "note": 52,
      "start": 7.1503,
      "duration": 0.1439,
      "velocity": 127,
      "chip": "ym2612"
    },
    {
      "channel": 4,
      "note": 52,
      "start": 7.1538,
      "duration": 0.0737,
      "velocity": 115,
      "chip": "ym2612"
    },
    {
      "channel": 1,
      "note": 45,
      "start": 7.247,
      "duration": 0.047,
      "velocity": 107,
      "chip": "ym2612"
    },
    {
      "channel": 2,
      "note": 39,
      "start": 7.2495,
      "duration": 0.028,
      "velocity": 119,
      "chip": "ym2612"
    },
    {
      "channel": 2,
      "note": 39,
      "start": 7.3471,
      "duration": 0.0305,
      "velocity": 119,
      "chip": "ym2612"
    },
    {
      "channel": 3,
      "note": 64,
      "start": 7.3498,
      "duration": 0.0942,
      "velocity": 127,
      "chip": "ym2612"
    },
    {
      "channel": 2,
      "note": 81,
      "start": 7.4634,
      "duration": 0.0307,
      "velocity": 121,
      "chip": "ym2612"
    },
    {
      "channel": 5,
      "note": 52,
      "start": 7.4663,
      "duration": 0.1446,
      "velocity": 127,
      "chip": "ym2612"
    },
    {
      "channel": 0,
      "note": 64,
      "start": 7.4694,
      "duration": 0.058,
      "velocity": 127,
      "chip": "ym2612"
    },
    {
      "channel": 2,
      "note": 39,
      "start": 7.5637,
      "duration": 0.0306,
      "velocity": 119,
      "chip": "ym2612"
    },
    {
      "channel": 4,
      "note": 64,
      "start": 7.5671,
      "duration": 0.0605,
      "velocity": 127,
      "chip": "ym2612"
    },
    {
      "channel": 1,
      "note": 45,
      "start": 7.6805,
      "duration": 0.047,
      "velocity": 107,
      "chip": "ym2612"
    },
    {
      "channel": 2,
      "note": 39,
      "start": 7.683,
      "duration": 0.0279,
      "velocity": 119,
      "chip": "ym2612"
    },
    {
      "channel": 3,
      "note": 64,
      "start": 7.6858,
      "duration": 0.075,
      "velocity": 127,
      "chip": "ym2612"
    },
    {
      "channel": 0,
      "note": 64,
      "start": 7.6887,
      "duration": 0.0552,
      "velocity": 127,
      "chip": "ym2612"
    },
    {
      "channel": 2,
      "note": 39,
      "start": 7.7805,
      "duration": 0.0304,
      "velocity": 119,
      "chip": "ym2612"
    },
    {
      "channel": 5,
      "note": 52,
      "start": 7.7832,
      "duration": 0.1611,
      "velocity": 127,
      "chip": "ym2612"
    },
    {
      "channel": 4,
      "note": 64,
      "start": 7.7866,
      "duration": 0.0576,
      "velocity": 127,
      "chip": "ym2612"
    },
    {
      "channel": 2,
      "note": 81,
      "start": 7.8802,
      "duration": 0.0307,
      "velocity": 121,
      "chip": "ym2612"
    },
    {
      "channel": 0,
      "note": 76,
      "start": 7.883,
      "duration": 0.0776,
      "velocity": 127,
      "chip": "ym2612"
    },
    {
      "channel": 2,
      "note": 39,
      "start": 7.9972,
      "duration": 0.0304,
      "velocity": 119,
      "chip": "ym2612"
    },
    {
      "channel": 3,
      "note": 64,
      "start": 7.9999,
      "duration": 0.0776,
      "velocity": 127,
      "chip": "ym2612"
    },
    {
      "channel": 4,
      "note": 76,
      "start": 8.0028,
      "duration": 0.0581,
      "velocity": 127,
      "chip": "ym2612"
    },
    {
      "channel": 1,
      "note": 45,
      "start": 8.0967,
      "duration": 0.0473,
      "velocity": 107,
      "chip": "ym2612"
    },
    {
      "channel": 2,
      "note": 39,
      "start": 8.0992,
      "duration": 0.0284,
      "velocity": 119,
      "chip": "ym2612"
    },
    {
      "channel": 5,
      "note": 52,
      "start": 8.1024,
      "duration": 0.1584,
      "velocity": 127,
      "chip": "ym2612"
    },
    {
      "channel": 0,
      "note": 71,
      "start": 8.1051,
      "duration": 0.0556,
      "velocity": 127,
      "chip": "ym2612"
    },
    {
      "channel": 2,
      "note": 39,
      "start": 8.2138,
      "duration": 0.0304,
      "velocity": 119,
      "chip": "ym2612"
    },
    {
      "channel": 4,
      "note": 71,
      "start": 8.2169,
      "duration": 0.0606,
      "velocity": 127,
      "chip": "ym2612"
    },
    {
      "channel": 2,
      "note": 81,
      "start": 8.3138,
      "duration": 0.0305,
      "velocity": 121,
      "chip": "ym2612"
    },
    {
      "channel": 5,
      "note": 64,
      "start": 8.3166,
      "duration": 0.1609,
      "velocity": 127,
      "chip": "ym2612"
    },
    {
      "channel": 3,
      "note": 64,
      "start": 8.3198,
      "duration": 0.0742,
      "velocity": 127,
      "chip": "ym2612"
    },
    {
      "channel": 0,
      "note": 74,
      "start": 8.3224,
      "duration": 0.055,
      "velocity": 127,
      "chip": "ym2612"
    },
    {
      "channel": 2,
      "note": 39,
      "start": 8.4141,
      "duration": 0.0301,
      "velocity": 119,
      "chip": "ym2612"
    },
    {
      "channel": 4,
      "note": 74,
      "start": 8.4172,
      "duration": 0.0768,
      "velocity": 127,
      "chip": "ym2612"
    },
    {
      "channel": 1,
      "note": 45,
      "start": 8.5301,
      "duration": 0.0473,
      "velocity": 107,
      "chip": "ym2612"
    },
    {
      "channel": 2,
      "note": 39,
      "start": 8.5327,
      "duration": 0.0282,
      "velocity": 119,
      "chip": "ym2612"
    },
    {
      "channel": 5,
      "note": 52,
      "start": 8.5355,
      "duration": 0.1421,
      "velocity": 127,
      "chip": "ym2612"
    },
    {
      "channel": 3,
      "note": 76,
      "start": 8.5381,
      "duration": 0.0727,
      "velocity": 127,
      "chip": "ym2612"
    },
    {
      "channel": 0,
      "note": 64,
      "start": 8.5409,
      "duration": 0.053,
      "velocity": 127,
      "chip": "ym2612"
    },
    {
      "channel": 2,
      "note": 39,
      "start": 8.6306,
      "duration": 0.0304,
      "velocity": 119,
      "chip": "ym2612"
    },
    {
      "channel": 4,
      "note": 64,
      "start": 8.6338,
      "duration": 0.0602,
      "velocity": 127,
      "chip": "ym2612"
    },
    {
      "channel": 2,
      "note": 81,
      "start": 8.7467,
      "duration": 0.0308,
      "velocity": 121,
      "chip": "ym2612"
    },
    {
      "channel": 3,
      "note": 64,
      "start": 8.7498,
      "duration": 0.0777,
      "velocity": 127,
      "chip": "ym2612"
    },
    {
      "channel": 2,
      "note": 39,
      "start": 8.8472,
      "duration": 0.0304,
      "velocity": 119,
      "chip": "ym2612"
    },
    {
      "channel": 5,
      "note": 52,
      "start": 8.8499,
      "duration": 0.1611,
      "velocity": 127,
      "chip": "ym2612"
    },
    {
      "channel": 1,
      "note": 45,
      "start": 8.9468,
      "duration": 0.0639,
      "velocity": 107,
      "chip": "ym2612"
    },
    {
      "channel": 2,
      "note": 39,
      "start": 8.9493,
      "duration": 0.0282,
      "velocity": 119,
      "chip": "ym2612"
    },
    {
      "channel": 2,
      "note": 39,
      "start": 9.0638,
      "duration": 0.0303,
      "velocity": 119,
      "chip": "ym2612"
    },
    {
      "channel": 3,
      "note": 64,
      "start": 9.0666,
      "duration": 0.0774,
      "velocity": 127,
      "chip": "ym2612"
    },
    {
      "channel": 2,
      "note": 81,
      "start": 9.1634,
      "duration": 0.0308,
      "velocity": 121,
      "chip": "ym2612"
    },
    {
      "channel": 5,
      "note": 52,
      "start": 9.1662,
      "duration": 0.1614,
      "velocity": 127,
      "chip": "ym2612"
    },
    {
      "channel": 0,
      "note": 64,
      "start": 9.169,
      "duration": 0.0583,
      "velocity": 127,
      "chip": "ym2612"
    },
    {
      "channel": 2,
      "note": 39,
      "start": 9.2806,
      "duration": 0.0304,
      "velocity": 119,
      "chip": "ym2612"
    },
    {
      "channel": 4,
      "note": 64,
      "start": 9.2838,
      "duration": 0.0603,
      "velocity": 127,
      "chip": "ym2612"
    },
    {
      "channel": 1,
      "note": 45,
      "start": 9.3802,
      "duration": 0.0473,
      "velocity": 107,
      "chip": "ym2612"
    },
    {
      "channel": 2,
      "note": 39,
      "start": 9.3827,
      "duration": 0.0283,
      "velocity": 119,
      "chip": "ym2612"
    },
    {
      "channel": 3,
      "note": 64,
      "start": 9.3855,
      "duration": 0.0753,
      "velocity": 127,
      "chip": "ym2612"
    },
    {
      "channel": 0,
      "note": 64,
      "start": 9.388,
      "duration": 0.0559,
      "velocity": 127,
      "chip": "ym2612"
    },
    {
      "channel": 2,
      "note": 39,
      "start": 9.4805,
      "duration": 0.0305,
      "velocity": 119,
      "chip": "ym2612"
    },
    {
      "channel": 5,
      "note": 52,
      "start": 9.4832,
      "duration": 0.161,
      "velocity": 127,
      "chip": "ym2612"
    },
    {
      "channel": 4,
      "note": 64,
      "start": 9.4862,
      "duration": 0.0746,
      "velocity": 127,
      "chip": "ym2612"
    },
    {
      "channel": 2,
      "note": 81,
      "start": 9.5967,
      "duration": 0.0308,
      "velocity": 121,
      "chip": "ym2612"
    },
    {
      "channel": 0,
      "note": 76,
      "start": 9.5997,
      "duration": 0.0611,
      "velocity": 127,
      "chip": "ym2612"
    },
    {
      "channel": 2,
      "note": 39,
      "start": 9.6971,
      "duration": 0.0305,
      "velocity": 119,
      "chip": "ym2612"
    },
    {
      "channel": 3,
      "note": 64,
      "start": 9.6998,
      "duration": 0.0777,
      "velocity": 127,
      "chip": "ym2612"
    },
    {
      "channel": 4,
      "note": 76,
      "start": 9.7027,
      "duration": 0.0581,
      "velocity": 127,
      "chip": "ym2612"
    },
    {
      "channel": 1,
      "note": 45,
      "start": 9.8134,
      "duration": 0.0473,
      "velocity": 107,
      "chip": "ym2612"
    },
    {
      "channel": 2,
      "note": 39,
      "start": 9.8163,
      "duration": 0.0278,
      "velocity": 119,
      "chip": "ym2612"
    },
    {
      "channel": 5,
      "note": 52,
      "start": 9.8192,
      "duration": 0.1417,
      "velocity": 127,
      "chip": "ym2612"
    },
    {
      "channel": 0,
      "note": 71,
      "start": 9.8219,
      "duration": 0.0555,
      "velocity": 127,
      "chip": "ym2612"
    },
    {
      "channel": 2,
      "note": 39,
      "start": 9.9137,
      "duration": 0.0305,
      "velocity": 119,
      "chip": "ym2612"
    },
    {
      "channel": 4,
      "note": 71,
      "start": 9.9168,
      "duration": 0.0607,
      "velocity": 127,
      "chip": "ym2612"
    },
    {
      "channel": 2,
      "note": 81,
      "start": 10.0134,
      "duration": 0.0308,
      "velocity": 121,
      "chip": "ym2612"
    },
    {
      "channel": 5,
      "note": 50,
      "start": 10.0162,
      "duration": 0.1615,
      "velocity": 127,
      "chip": "ym2612"
    },
    {
      "channel": 3,
      "note": 64,
      "start": 10.019,
      "duration": 0.0917,
      "velocity": 127,
      "chip": "ym2612"
    },
    {
      "channel": 0,
      "note": 74,
      "start": 10.0216,
      "duration": 0.0724,
      "velocity": 127,
      "chip": "ym2612"
    },
    {
      "channel": 2,
      "note": 39,
      "start": 10.1306,
      "duration": 0.0303,
      "velocity": 119,
      "chip": "ym2612"
    },
    {
      "channel": 4,
      "note": 74,
      "start": 10.1336,
      "duration": 0.0605,
      "velocity": 127,
      "chip": "ym2612"
    },
    {
      "channel": 1,
      "note": 45,
      "start": 10.2301,
      "duration": 0.0473,
      "velocity": 107,
      "chip": "ym2612"
    },
    {
      "channel": 2,
      "note": 39,
      "start": 10.2326,
      "duration": 0.0283,
      "velocity": 119,
      "chip": "ym2612"
    },
    {
      "channel": 5,
      "note": 52,
      "start": 10.2355,
      "duration": 0.1587,
      "velocity": 127,
      "chip": "ym2612"
    },
    {
      "channel": 3,
      "note": 62,
      "start": 10.2381,
      "duration": 0.0727,
      "velocity": 127,
      "chip": "ym2612"
    },
    {
      "channel": 0,
      "note": 64,
      "start": 10.2409,
      "duration": 0.053,
      "velocity": 127,
      "chip": "ym2612"
    },
    {
      "channel": 2,
      "note": 39,
      "start": 10.3471,
      "duration": 0.0306,
      "velocity": 119,
      "chip": "ym2612"
    },
    {
      "channel": 4,
      "note": 64,
      "start": 10.3503,
      "duration": 0.0605,
      "velocity": 127,
      "chip": "ym2612"
    },
    {
      "channel": 2,
      "note": 81,
      "start": 10.4467,
      "duration": 0.0308,
      "velocity": 121,
      "chip": "ym2612"
    },
    {
      "channel": 3,
      "note": 64,
      "start": 10.4498,
      "duration": 0.0776,
      "velocity": 127,
      "chip": "ym2612"
    },
    {
      "channel": 2,
      "note": 39,
      "start": 10.5472,
      "duration": 0.0304,
      "velocity": 119,
      "chip": "ym2612"
    },
    {
      "channel": 5,
      "note": 52,
      "start": 10.5498,
      "duration": 0.1611,
      "velocity": 127,
      "chip": "ym2612"
    },
    {
      "channel": 1,
      "note": 45,
      "start": 10.6634,
      "duration": 0.0473,
      "velocity": 107,
      "chip": "ym2612"
    },
    {
      "channel": 2,
      "note": 39,
      "start": 10.666,
      "duration": 0.0282,
      "velocity": 119,
      "chip": "ym2612"
    },
    {
      "channel": 2,
      "note": 39,
      "start": 10.7638,
      "duration": 0.0303,
      "velocity": 119,
      "chip": "ym2612"
    },
    {
      "channel": 3,
      "note": 64,
      "start": 10.7666,
      "duration": 0.0774,
      "velocity": 127,
      "chip": "ym2612"
    },
    {
      "channel": 2,
      "note": 81,
      "start": 10.8801,
      "duration": 0.0308,
      "velocity": 121,
      "chip": "ym2612"
    },
    {
      "channel": 5,
      "note": 52,
      "start": 10.8829,
      "duration": 0.1446,
      "velocity": 127,
      "chip": "ym2612"
    },
    {
      "channel": 0,
      "note": 64,
      "start": 10.8858,
      "duration": 0.0581,
      "velocity": 127,
      "chip": "ym2612"
    },
    {
      "channel": 2,
      "note": 39,
      "start": 10.9806,
      "duration": 0.0304,
      "velocity": 119,
      "chip": "ym2612"
    },
    {
      "channel": 4,
      "note": 64,
      "start": 10.9838,
      "duration": 0.0602,
      "velocity": 127,
      "chip": "ym2612"
    },
    {
      "channel": 1,
      "note": 45,
      "start": 11.0801,
      "duration": 0.0639,
      "velocity": 107,
      "chip": "ym2612"
    },
    {
      "channel": 2,
      "note": 39,
      "start": 11.0827,
      "duration": 0.0282,
      "velocity": 119,
      "chip": "ym2612"
    },
    {
      "channel": 3,
      "note": 64,
      "start": 11.0854,
      "duration": 0.0921,
      "velocity": 127,
      "chip": "ym2612"
    },
    {
      "channel": 0,
      "note": 64,
      "start": 11.0883,
      "duration": 0.0723,
      "velocity": 127,
      "chip": "ym2612"
    },
    {
      "channel": 2,
      "note": 39,
      "start": 11.1977,
      "duration": 0.0299,
      "velocity": 119,
      "chip": "ym2612"
    },
    {
      "channel": 5,
      "note": 52,
      "start": 11.2004,
      "duration": 0.1438,
      "velocity": 127,
      "chip": "ym2612"
    },
    {
      "channel": 4,
      "note": 64,
      "start": 11.2038,
      "duration": 0.0571,
      "velocity": 127,
      "chip": "ym2612"
    },
    {
      "channel": 2,
      "note": 81,
      "start": 11.2967,
      "duration": 0.0309,
      "velocity": 121,
      "chip": "ym2612"
    },
    {
      "channel": 0,
      "note": 76,
      "start": 11.2997,
      "duration": 0.0611,
      "velocity": 127,
      "chip": "ym2612"
    },
    {
      "channel": 2,
      "note": 39,
      "start": 11.4138,
      "duration": 0.0305,
      "velocity": 119,
      "chip": "ym2612"
    },
    {
      "channel": 3,
      "note": 64,
      "start": 11.4165,
      "duration": 0.0776,
      "velocity": 127,
      "chip": "ym2612"
    },
    {
      "channel": 4,
      "note": 76,
      "start": 11.4194,
      "duration": 0.0581,
      "velocity": 127,
      "chip": "ym2612"
    },
    {
      "channel": 1,
      "note": 45,
      "start": 11.5134,
      "duration": 0.0472,
      "velocity": 107,
      "chip": "ym2612"
    },
    {
      "channel": 2,
      "note": 39,
      "start": 11.516,
      "duration": 0.0282,
      "velocity": 119,
      "chip": "ym2612"
    },
    {
      "channel": 5,
      "note": 52,
      "start": 11.5192,
      "duration": 0.1584,
      "velocity": 127,
      "chip": "ym2612"
    },
    {
      "channel": 0,
      "note": 71,
      "start": 11.5219,
      "duration": 0.0555,
      "velocity": 127,
      "chip": "ym2612"
    },
    {
      "channel": 2,
      "note": 39,
      "start": 11.6138,
      "duration": 0.0304,
      "velocity": 119,
      "chip": "ym2612"
    },
    {
      "channel": 4,
      "note": 71,
      "start": 11.6169,
      "duration": 0.0772,
      "velocity": 127,
      "chip": "ym2612"
    },
    {
      "channel": 2,
      "note": 81,
      "start": 11.7302,
      "duration": 0.0307,
      "velocity": 121,
      "chip": "ym2612"
    },
    {
      "channel": 5,
      "note": 64,
      "start": 11.733,
      "duration": 0.1446,
      "velocity": 127,
      "chip": "ym2612"
    },
    {
      "channel": 3,
      "note": 64,
      "start": 11.7361,
      "duration": 0.0747,
      "velocity": 127,
      "chip": "ym2612"
    },
    {
      "channel": 0,
      "note": 74,
      "start": 11.7387,
      "duration": 0.0552,
      "velocity": 127,
      "chip": "ym2612"
    },
    {
      "channel": 2,
      "note": 39,
      "start": 11.8305,
      "duration": 0.0303,
      "velocity": 119,
      "chip": "ym2612"
    },
    {
      "channel": 4,
      "note": 74,
      "start": 11.8336,
      "duration": 0.0606,
      "velocity": 127,
      "chip": "ym2612"
    },
    {
      "channel": 1,
      "note": 45,
      "start": 11.9468,
      "duration": 0.0472,
      "velocity": 107,
      "chip": "ym2612"
    },
    {
      "channel": 2,
      "note": 39,
      "start": 11.9493,
      "duration": 0.0283,
      "velocity": 119,
      "chip": "ym2612"
    },
    {
      "channel": 5,
      "note": 52,
      "start": 11.9521,
      "duration": 0.142,
      "velocity": 127,
      "chip": "ym2612"
    },
    {
      "channel": 3,
      "note": 76,
      "start": 11.9547,
      "duration": 0.0727,
      "velocity": 127,
      "chip": "ym2612"
    },
    {
      "channel": 0,
      "note": 64,
      "start": 11.9576,
      "duration": 0.0532,
      "velocity": 127,
      "chip": "ym2612"
    },
    {
      "channel": 2,
      "note": 39,
      "start": 12.0471,
      "duration": 0.0306,
      "velocity": 119,
      "chip": "ym2612"
    },
    {
      "channel": 4,
      "note": 64,
      "start": 12.0504,
      "duration": 0.0604,
      "velocity": 127,
      "chip": "ym2612"
    },
    {
      "channel": 2,
      "note": 81,
      "start": 12.1468,
      "duration": 0.0308,
      "velocity": 121,
      "chip": "ym2612"
    },
    {
      "channel": 3,
      "note": 64,
      "start": 12.1498,
      "duration": 0.0943,
      "velocity": 127,
      "chip": "ym2612"
    },
    {
      "channel": 2,
      "note": 39,
      "start": 12.2638,
      "duration": 0.0303,
      "velocity": 119,
      "chip": "ym2612"
    },
    {
      "channel": 5,
      "note": 52,
      "start": 12.2665,
      "duration": 0.1445,
      "velocity": 127,
      "chip": "ym2612"
    },
    {
      "channel": 1,
      "note": 45,
      "start": 12.3634,
      "duration": 0.0474,
      "velocity": 107,
      "chip": "ym2612"
    },
    {
      "channel": 2,
      "note": 39,
      "start": 12.3659,
      "duration": 0.0283,
      "velocity": 119,
      "chip": "ym2612"
    },
    {
      "channel": 2,
      "note": 39,
      "start": 12.481,
      "duration": 0.0299,
      "velocity": 119,
      "chip": "ym2612"
    },
    {
      "channel": 3,
      "note": 64,
      "start": 12.4836,
      "duration": 0.077,
      "velocity": 127,
      "chip": "ym2612"
    },
    {
      "channel": 2,
      "note": 81,
      "start": 12.5801,
      "duration": 0.0308,
      "velocity": 121,
      "chip": "ym2612"
    },
    {
      "channel": 5,
      "note": 52,
      "start": 12.5829,
      "duration": 0.1612,
      "velocity": 127,
      "chip": "ym2612"
    },
    {
      "channel": 0,
      "note": 64,
      "start": 12.5859,
      "duration": 0.0581,
      "velocity": 127,
      "chip": "ym2612"
    },
    {
      "channel": 2,
      "note": 39,
      "start": 12.6806,
      "duration": 0.0304,
      "velocity": 119,
      "chip": "ym2612"
    },
    {
      "channel": 4,
      "note": 64,
      "start": 12.6838,
      "duration": 0.077,
      "velocity": 127,
      "chip": "ym2612"
    },
    {
      "channel": 1,
      "note": 45,
      "start": 12.7968,
      "duration": 0.0472,
      "velocity": 107,
      "chip": "ym2612"
    },
    {
      "channel": 2,
      "note": 39,
      "start": 12.7993,
      "duration": 0.0283,
      "velocity": 119,
      "chip": "ym2612"
    },
    {
      "channel": 3,
      "note": 64,
      "start": 12.8021,
      "duration": 0.0754,
      "velocity": 127,
      "chip": "ym2612"
    },
    {
      "channel": 0,
      "note": 64,
      "start": 12.8046,
      "duration": 0.0561,
      "velocity": 127,
      "chip": "ym2612"
    },
    {
      "channel": 2,
      "note": 39,
      "start": 12.8971,
      "duration": 0.0305,
      "velocity": 119,
      "chip": "ym2612"
    },
    {
      "channel": 5,
      "note": 52,
      "start": 12.8998,
      "duration": 0.1611,
      "velocity": 127,
      "chip": "ym2612"
    },
    {
      "channel": 4,
      "note": 64,
      "start": 12.9028,
      "duration": 0.058,
      "velocity": 127,
      "chip": "ym2612"
    },
    {
      "channel": 2,
      "note": 81,
      "start": 13.0134,
      "duration": 0.0307,
      "velocity": 121,
      "chip": "ym2612"
    },
    {
      "channel": 0,
      "note": 76,
      "start": 13.0163,
      "duration": 0.061,
      "velocity": 127,
      "chip": "ym2612"
    },
    {
      "channel": 2,
      "note": 39,
      "start": 13.1138,
      "duration": 0.0303,
      "velocity": 119,
      "chip": "ym2612"
    },
    {
      "channel": 3,
      "note": 64,
      "start": 13.1166,
      "duration": 0.0775,
      "velocity": 127,
      "chip": "ym2612"
    },
    {
      "channel": 4,
      "note": 76,
      "start": 13.1194,
      "duration": 0.0581,
      "velocity": 127,
      "chip": "ym2612"
    },
    {
      "channel": 1,
      "note": 45,
      "start": 13.2134,
      "duration": 0.0639,
      "velocity": 107,
      "chip": "ym2612"
    },
    {
      "channel": 2,
      "note": 39,
      "start": 13.216,
      "duration": 0.0282,
      "velocity": 119,
      "chip": "ym2612"
    },
    {
      "channel": 5,
      "note": 52,
      "start": 13.2189,
      "duration": 0.1587,
      "velocity": 127,
      "chip": "ym2612"
    },
    {
      "channel": 0,
      "note": 71,
      "start": 13.2216,
      "duration": 0.0723,
      "velocity": 127,
      "chip": "ym2612"
    },
    {
      "channel": 2,
      "note": 39,
      "start": 13.3305,
      "duration": 0.0303,
      "velocity": 119,
      "chip": "ym2612"
    },
    {
      "channel": 4,
      "note": 71,
      "start": 13.3336,
      "duration": 0.0605,
      "velocity": 127,
      "chip": "ym2612"
    },
    {
      "channel": 2,
      "note": 81,
      "start": 13.4302,
      "duration": 0.0307,
      "velocity": 121,
      "chip": "ym2612"
    },
    {
      "channel": 5,
      "note": 50,
      "start": 13.433,
      "duration": 0.1611,
      "velocity": 127,
      "chip": "ym2612"
    },
    {
      "channel": 3,
      "note": 64,
      "start": 13.4357,
      "duration": 0.075,
      "velocity": 127,
      "chip": "ym2612"
    },
    {
      "channel": 0,
      "note": 74,
      "start": 13.4383,
      "duration": 0.0557,
      "velocity": 127,
      "chip": "ym2612"
    },
    {
      "channel": 2,
      "note": 39,
      "start": 13.5472,
      "duration": 0.0304,
      "velocity": 119,
      "chip": "ym2612"
    },
    {
      "channel": 4,
      "note": 74,
      "start": 13.5505,
      "duration": 0.0602,
      "velocity": 127,
      "chip": "ym2612"
    },
    {
      "channel": 1,
      "note": 45,
      "start": 13.6468,
      "duration": 0.0473,
      "velocity": 107,
      "chip": "ym2612"
    },
    {
      "channel": 5,
      "note": 52,
      "start": 13.6499,
      "duration": 0.1609,
      "velocity": 127,
      "chip": "ym2612"
    },
    {
      "channel": 3,
      "note": 62,
      "start": 13.6525,
      "duration": 0.075,
      "velocity": 127,
      "chip": "ym2612"
    },
    {
      "channel": 0,
      "note": 76,
      "start": 13.6554,
      "duration": 0.072,
      "velocity": 78,
      "chip": "ym2612"
    },
    {
      "channel": 2,
      "note": 76,
      "start": 13.6582,
      "duration": 0.0527,
      "velocity": 127,
      "chip": "ym2612"
    },
    {
      "channel": 2,
      "note": 81,
      "start": 13.8633,
      "duration": 0.0309,
      "velocity": 121,
      "chip": "ym2612"
    },
    {
      "channel": 3,
      "note": 64,
      "start": 13.8663,
      "duration": 0.0777,
      "velocity": 127,
      "chip": "ym2612"
    },
    {
      "channel": 4,
      "note": 64,
      "start": 13.8691,
      "duration": 0.0751,
      "velocity": 78,
      "chip": "ym2612"
    },
    {
      "channel": 5,
      "note": 52,
      "start": 13.964,
      "duration": 0.1637,
      "velocity": 127,
      "chip": "ym2612"
    },
    {
      "channel": 1,
      "note": 45,
      "start": 14.0802,
      "duration": 0.0473,
      "velocity": 107,
      "chip": "ym2612"
    },
    {
      "channel": 0,
      "note": 76,
      "start": 14.0833,
      "duration": 0.0774,
      "velocity": 78,
      "chip": "ym2612"
    },
    {
      "channel": 3,
      "note": 64,
      "start": 14.1807,
      "duration": 0.0801,
      "velocity": 127,
      "chip": "ym2612"
    },
    {
      "channel": 4,
      "note": 64,
      "start": 14.1832,
      "duration": 0.0777,
      "velocity": 78,
      "chip": "ym2612"
    },
    {
      "channel": 2,
      "note": 81,
      "start": 14.2802,
      "duration": 0.0307,
      "velocity": 121,
      "chip": "ym2612"
    },
    {
      "channel": 5,
      "note": 52,
      "start": 14.283,
      "duration": 0.1612,
      "velocity": 127,
      "chip": "ym2612"
    },
    {
      "channel": 1,
      "note": 76,
      "start": 14.2861,
      "duration": 0.0747,
      "velocity": 127,
      "chip": "ym2612"
    },
    {
      "channel": 0,
      "note": 76,
      "start": 14.3974,
      "duration": 0.08,
      "velocity": 78,
      "chip": "ym2612"
    },
    {
      "channel": 3,
      "note": 45,
      "start": 14.4974,
      "duration": 0.0466,
      "velocity": 107,
      "chip": "ym2612"
    },
    {
      "channel": 4,
      "note": 64,
      "start": 14.5005,
      "duration": 0.077,
      "velocity": 127,
      "chip": "ym2612"
    },
    {
      "channel": 2,
      "note": 64,
      "start": 14.5034,
      "duration": 0.0743,
      "velocity": 78,
      "chip": "ym2612"
    },
    {
      "channel": 1,
      "note": 76,
      "start": 14.5063,
      "duration": 0.0544,
      "velocity": 127,
      "chip": "ym2612"
    },
    {
      "channel": 5,
      "note": 52,
      "start": 14.614,
      "duration": 0.1468,
      "velocity": 127,
      "chip": "ym2612"
    },
    {
      "channel": 2,
      "note": 81,
      "start": 14.7134,
      "duration": 0.0308,
      "velocity": 121,
      "chip": "ym2612"
    },
    {
      "channel": 0,
      "note": 76,
      "start": 14.7165,
      "duration": 0.0775,
      "velocity": 78,
      "chip": "ym2612"
    },
    {
      "channel": 3,
      "note": 76,
      "start": 14.7193,
      "duration": 0.0749,
      "velocity": 78,
      "chip": "ym2612"
    },
    {
      "channel": 1,
      "note": 88,
      "start": 14.7218,
      "duration": 0.0557,
      "velocity": 127,
      "chip": "ym2612"
    },
    {
      "channel": 4,
      "note": 64,
      "start": 14.8141,
      "duration": 0.0968,
      "velocity": 127,
      "chip": "ym2612"
    },
    {
      "channel": 0,
      "note": 64,
      "start": 14.817,
      "duration": 0.0937,
      "velocity": 78,
      "chip": "ym2612"
    },
    {
      "channel": 2,
      "note": 45,
      "start": 14.9305,
      "duration": 0.0472,
      "velocity": 107,
      "chip": "ym2612"
    },
    {
      "channel": 5,
      "note": 52,
      "start": 14.9339,
      "duration": 0.1436,
      "velocity": 127,
      "chip": "ym2612"
    },
    {
      "channel": 3,
      "note": 88,
      "start": 14.9368,
      "duration": 0.0739,
      "velocity": 78,
      "chip": "ym2612"
    },
    {
      "channel": 1,
      "note": 83,
      "start": 14.9393,
      "duration": 0.0548,
      "velocity": 127,
      "chip": "ym2612"
    },
    {
      "channel": 3,
      "note": 76,
      "start": 15.0315,
      "duration": 0.0792,
      "velocity": 78,
      "chip": "ym2612"
    },
    {
      "channel": 2,
      "note": 81,
      "start": 15.1474,
      "duration": 0.0303,
      "velocity": 121,
      "chip": "ym2612"
    },
    {
      "channel": 5,
      "note": 64,
      "start": 15.1502,
      "duration": 0.144,
      "velocity": 127,
      "chip": "ym2612"
    },
    {
      "channel": 4,
      "note": 64,
      "start": 15.1533,
      "duration": 0.0742,
      "velocity": 127,
      "chip": "ym2612"
    },
    {
      "channel": 0,
      "note": 64,
      "start": 15.1559,
      "duration": 0.0715,
      "velocity": 78,
      "chip": "ym2612"
    },
    {
      "channel": 1,
      "note": 86,
      "start": 15.1584,
      "duration": 0.0524,
      "velocity": 127,
      "chip": "ym2612"
    },
    {
      "channel": 3,
      "note": 45,
      "start": 15.3471,
      "duration": 0.0637,
      "velocity": 107,
      "chip": "ym2612"
    },
    {
      "channel": 5,
      "note": 52,
      "start": 15.3502,
      "duration": 0.1607,
      "velocity": 127,
      "chip": "ym2612"
    },
    {
      "channel": 4,
      "note": 76,
      "start": 15.3528,
      "duration": 0.0914,
      "velocity": 127,
      "chip": "ym2612"
    },
    {
      "channel": 2,
      "note": 76,
      "start": 15.3558,
      "duration": 0.0886,
      "velocity": 78,
      "chip": "ym2612"
    },
    {
      "channel": 1,
      "note": 76,
      "start": 15.3584,
      "duration": 0.0691,
      "velocity": 127,
      "chip": "ym2612"
    },
    {
      "channel": 2,
      "note": 81,
      "start": 15.5634,
      "duration": 0.0307,
      "velocity": 121,
      "chip": "ym2612"
    },
    {
      "channel": 4,
      "note": 64,
      "start": 15.5664,
      "duration": 0.0778,
      "velocity": 127,
      "chip": "ym2612"
    },
    {
      "channel": 0,
      "note": 64,
      "start": 15.5689,
      "duration": 0.0751,
      "velocity": 78,
      "chip": "ym2612"
    },
    {
      "channel": 5,
      "note": 52,
      "start": 15.6807,
      "duration": 0.147,
      "velocity": 127,
      "chip": "ym2612"
    },
    {
      "channel": 3,
      "note": 45,
      "start": 15.7802,
      "duration": 0.0473,
      "velocity": 107,
      "chip": "ym2612"
    },
    {
      "channel": 1,
      "note": 76,
      "start": 15.7836,
      "duration": 0.077,
      "velocity": 78,
      "chip": "ym2612"
    },
    {
      "channel": 4,
      "note": 64,
      "start": 15.8808,
      "duration": 0.0968,
      "velocity": 127,
      "chip": "ym2612"
    },
    {
      "channel": 0,
      "note": 64,
      "start": 15.8832,
      "duration": 0.0941,
      "velocity": 78,
      "chip": "ym2612"
    },
    {
      "channel": 2,
      "note": 81,
      "start": 15.9967,
      "duration": 0.0309,
      "velocity": 121,
      "chip": "ym2612"
    },
    {
      "channel": 5,
      "note": 52,
      "start": 15.9995,
      "duration": 0.1446,
      "velocity": 127,
      "chip": "ym2612"
    },
    {
      "channel": 3,
      "note": 76,
      "start": 16.0026,
      "duration": 0.0582,
      "velocity": 127,
      "chip": "ym2612"
    },
    {
      "channel": 1,
      "note": 76,
      "start": 16.0974,
      "duration": 0.08,
      "velocity": 78,
      "chip": "ym2612"
    },
    {
      "channel": 0,
      "note": 45,
      "start": 16.2137,
      "duration": 0.0471,
      "velocity": 107,
      "chip": "ym2612"
    },
    {
      "channel": 4,
      "note": 64,
      "start": 16.2166,
      "duration": 0.0775,
      "velocity": 127,
      "chip": "ym2612"
    },
    {
      "channel": 2,
      "note": 64,
      "start": 16.2195,
      "duration": 0.0747,
      "velocity": 78,
      "chip": "ym2612"
    },
    {
      "channel": 3,
      "note": 76,
      "start": 16.2221,
      "duration": 0.0554,
      "velocity": 127,
      "chip": "ym2612"
    },
    {
      "channel": 5,
      "note": 52,
      "start": 16.314,
      "duration": 0.1637,
      "velocity": 127,
      "chip": "ym2612"
    },
    {
      "channel": 2,
      "note": 81,
      "start": 16.4134,
      "duration": 0.0307,
      "velocity": 121,
      "chip": "ym2612"
    },
    {
      "channel": 1,
      "note": 76,
      "start": 16.4166,
      "duration": 0.0941,
      "velocity": 78,
      "chip": "ym2612"
    },
    {
      "channel": 0,
      "note": 76,
      "start": 16.4194,
      "duration": 0.0912,
      "velocity": 78,
      "chip": "ym2612"
    },
    {
      "channel": 3,
      "note": 88,
      "start": 16.4219,
      "duration": 0.0722,
      "velocity": 127,
      "chip": "ym2612"
    },
    {
      "channel": 4,
      "note": 64,
      "start": 16.5307,
      "duration": 0.0802,
      "velocity": 127,
      "chip": "ym2612"
    },
    {
      "channel": 1,
      "note": 64,
      "start": 16.5334,
      "duration": 0.0774,
      "velocity": 78,
      "chip": "ym2612"
    },
    {
      "channel": 2,
      "note": 45,
      "start": 16.6305,
      "duration": 0.0472,
      "velocity": 107,
      "chip": "ym2612"
    },
    {
      "channel": 5,
      "note": 52,
      "start": 16.6336,
      "duration": 0.1606,
      "velocity": 127,
      "chip": "ym2612"
    },
    {
      "channel": 0,
      "note": 88,
      "start": 16.6363,
      "duration": 0.0743,
      "velocity": 78,
      "chip": "ym2612"
    },
    {
      "channel": 3,
      "note": 83,
      "start": 16.6388,
      "duration": 0.0553,
      "velocity": 127,
      "chip": "ym2612"
    },
    {
      "channel": 0,
      "note": 76,
      "start": 16.7474,
      "duration": 0.0799,
      "velocity": 78,
      "chip": "ym2612"
    },
    {
      "channel": 2,
      "note": 81,
      "start": 16.8468,
      "duration": 0.0308,
      "velocity": 121,
      "chip": "ym2612"
    },
    {
      "channel": 5,
      "note": 50,
      "start": 16.8496,
      "duration": 0.1613,
      "velocity": 127,
      "chip": "ym2612"
    },
    {
      "channel": 4,
      "note": 64,
      "start": 16.8524,
      "duration": 0.0752,
      "velocity": 127,
      "chip": "ym2612"
    },
    {
      "channel": 1,
      "note": 64,
      "start": 16.8551,
      "duration": 0.0724,
      "velocity": 78,
      "chip": "ym2612"
    },
    {
      "channel": 3,
      "note": 86,
      "start": 16.8577,
      "duration": 0.0531,
      "velocity": 127,
      "chip": "ym2612"
    },
    {
      "channel": 0,
      "note": 45,
      "start": 17.0637,
      "duration": 0.047,
      "velocity": 107,
      "chip": "ym2612"
    },
    {
      "channel": 5,
      "note": 52,
      "start": 17.0667,
      "duration": 0.1442,
      "velocity": 127,
      "chip": "ym2612"
    },
    {
      "channel": 4,
      "note": 76,
      "start": 17.0694,
      "duration": 0.0748,
      "velocity": 127,
      "chip": "ym2612"
    },
    {
      "channel": 2,
      "note": 76,
      "start": 17.0723,
      "duration": 0.072,
      "velocity": 78,
      "chip": "ym2612"
    },
    {
      "channel": 3,
      "note": 76,
      "start": 17.075,
      "duration": 0.0525,
      "velocity": 127,
      "chip": "ym2612"
    },
    {
      "channel": 2,
      "note": 81,
      "start": 17.2801,
      "duration": 0.0308,
      "velocity": 121,
      "chip": "ym2612"
    },
    {
      "channel": 4,
      "note": 64,
      "start": 17.2831,
      "duration": 0.0777,
      "velocity": 127,
      "chip": "ym2612"
    },
    {
      "channel": 1,
      "note": 64,
      "start": 17.2857,
      "duration": 0.0749,
      "velocity": 78,
      "chip": "ym2612"
    },
    {
      "channel": 5,
      "note": 52,
      "start": 17.3807,
      "duration": 0.1634,
      "velocity": 127,
      "chip": "ym2612"
    },
    {
      "channel": 0,
      "note": 45,
      "start": 17.4801,
      "duration": 0.0638,
      "velocity": 107,
      "chip": "ym2612"
    },
    {
      "channel": 3,
      "note": 76,
      "start": 17.4839,
      "duration": 0.0935,
      "velocity": 78,
      "chip": "ym2612"
    },
    {
      "channel": 4,
      "note": 64,
      "start": 17.5974,
      "duration": 0.0802,
      "velocity": 127,
      "chip": "ym2612"
    },
    {
      "channel": 1,
      "note": 64,
      "start": 17.6003,
      "duration": 0.0771,
      "velocity": 78,
      "chip": "ym2612"
    },
    {
      "channel": 2,
      "note": 81,
      "start": 17.6967,
      "duration": 0.0308,
      "velocity": 121,
      "chip": "ym2612"
    },
    {
      "channel": 5,
      "note": 52,
      "start": 17.6995,
      "duration": 0.1613,
      "velocity": 127,
      "chip": "ym2612"
    },
    {
      "channel": 0,
      "note": 76,
      "start": 17.7027,
      "duration": 0.0579,
      "velocity": 127,
      "chip": "ym2612"
    },
    {
      "channel": 3,
      "note": 76,
      "start": 17.8141,
      "duration": 0.08,
      "velocity": 78,
      "chip": "ym2612"
    },
    {
      "channel": 1,
      "note": 45,
      "start": 17.9137,
      "duration": 0.0471,
      "velocity": 107,
      "chip": "ym2612"
    },
    {
      "channel": 4,
      "note": 64,
      "start": 17.9166,
      "duration": 0.0775,
      "velocity": 127,
      "chip": "ym2612"
    },
    {
      "channel": 2,
      "note": 64,
      "start": 17.9195,
      "duration": 0.0749,
      "velocity": 78,
      "chip": "ym2612"
    },
    {
      "channel": 0,
      "note": 76,
      "start": 17.9224,
      "duration": 0.0551,
      "velocity": 127,
      "chip": "ym2612"
    },
    {
      "channel": 5,
      "note": 52,
      "start": 18.0141,
      "duration": 0.1634,
      "velocity": 127,
      "chip": "ym2612"
    },
    {
      "channel": 2,
      "note": 81,
      "start": 18.1302,
      "duration": 0.0307,
      "velocity": 121,
      "chip": "ym2612"
    },
    {
      "channel": 3,
      "note": 76,
      "start": 18.1333,
      "duration": 0.0775,
      "velocity": 78,
      "chip": "ym2612"
    },
    {
      "channel": 1,
      "note": 76,
      "start": 18.1361,
      "duration": 0.0746,
      "velocity": 78,
      "chip": "ym2612"
    },
    {
      "channel": 0,
      "note": 88,
      "start": 18.1385,
      "duration": 0.0554,
      "velocity": 127,
      "chip": "ym2612"
    },
    {
      "channel": 4,
      "note": 64,
      "start": 18.2308,
      "duration": 0.08,
      "velocity": 127,
      "chip": "ym2612"
    },
    {
      "channel": 3,
      "note": 64,
      "start": 18.2334,
      "duration": 0.0773,
      "velocity": 78,
      "chip": "ym2612"
    },
    {
      "channel": 2,
      "note": 45,
      "start": 18.3474,
      "duration": 0.0469,
      "velocity": 107,
      "chip": "ym2612"
    },
    {
      "channel": 5,
      "note": 52,
      "start": 18.3508,
      "duration": 0.1434,
      "velocity": 127,
      "chip": "ym2612"
    },
    {
      "channel": 1,
      "note": 88,
      "start": 18.3536,
      "duration": 0.0739,
      "velocity": 78,
      "chip": "ym2612"
    },
    {
      "channel": 0,
      "note": 83,
      "start": 18.356,
      "duration": 0.0546,
      "velocity": 127,
      "chip": "ym2612"
    },
    {
      "channel": 1,
      "note": 76,
      "start": 18.4476,
      "duration": 0.0798,
      "velocity": 78,
      "chip": "ym2612"
    },
    {
      "channel": 2,
      "note": 81,
      "start": 18.5471,
      "duration": 0.0305,
      "velocity": 121,
      "chip": "ym2612"
    },
    {
      "channel": 5,
      "note": 50,
      "start": 18.5498,
      "duration": 0.161,
      "velocity": 127,
      "chip": "ym2612"
    },
    {
      "channel": 4,
      "note": 64,
      "start": 18.5532,
      "duration": 0.091,
      "velocity": 127,
      "chip": "ym2612"
    },
    {
      "channel": 3,
      "note": 64,
      "start": 18.5558,
      "duration": 0.0882,
      "velocity": 78,
      "chip": "ym2612"
    },
    {
      "channel": 0,
      "note": 86,
      "start": 18.5584,
      "duration": 0.069,
      "velocity": 127,
      "chip": "ym2612"
    },
    {
      "channel": 5,
      "note": 52,
      "start": 18.7642,
      "duration": 0.1633,
      "velocity": 127,
      "chip": "ym2612"
    },
    {
      "channel": 1,
      "note": 76,
      "start": 18.767,
      "duration": 0.077,
      "velocity": 78,
      "chip": "ym2612"
    },
    {
      "channel": 0,
      "note": 76,
      "start": 18.7696,
      "duration": 0.0579,
      "velocity": 127,
      "chip": "ym2612"
    },
    {
      "channel": 3,
      "note": 64,
      "start": 18.981,
      "duration": 0.0798,
      "velocity": 78,
      "chip": "ym2612"
    },
    {
      "channel": 5,
      "note": 52,
      "start": 19.0807,
      "duration": 0.1635,
      "velocity": 127,
      "chip": "ym2612"
    },
    {
      "channel": 1,
      "note": 76,
      "start": 19.1975,
      "duration": 0.0799,
      "velocity": 78,
      "chip": "ym2612"
    },
    {
      "channel": 3,
      "note": 64,
      "start": 19.2974,
      "duration": 0.0801,
      "velocity": 78,
      "chip": "ym2612"
    },
    {
      "channel": 5,
      "note": 52,
      "start": 19.414,
      "duration": 0.1468,
      "velocity": 127,
      "chip": "ym2612"
    },
    {
      "channel": 0,
      "note": 76,
      "start": 19.4169,
      "duration": 0.0606,
      "velocity": 127,
      "chip": "ym2612"
    },
    {
      "channel": 1,
      "note": 76,
      "start": 19.514,
      "duration": 0.08,
      "velocity": 78,
      "chip": "ym2612"
    },
    {
      "channel": 3,
      "note": 64,
      "start": 19.6141,
      "duration": 0.0966,
      "velocity": 78,
      "chip": "ym2612"
    },
    {
      "channel": 0,
      "note": 76,
      "start": 19.6166,
      "duration": 0.0773,
      "velocity": 127,
      "chip": "ym2612"
    },
    {
      "channel": 5,
      "note": 52,
      "start": 19.7307,
      "duration": 0.1468,
      "velocity": 127,
      "chip": "ym2612"
    },
    {
      "channel": 3,
      "note": 76,
      "start": 19.831,
      "duration": 0.0799,
      "velocity": 78,
      "chip": "ym2612"
    },
    {
      "channel": 1,
      "note": 76,
      "start": 19.8336,
      "duration": 0.0772,
      "velocity": 78,
      "chip": "ym2612"
    },
    {
      "channel": 0,
      "note": 88,
      "start": 19.836,
      "duration": 0.058,
      "velocity": 127,
      "chip": "ym2612"
    },
    {
      "channel": 3,
      "note": 64,
      "start": 19.9479,
      "duration": 0.0795,
      "velocity": 78,
      "chip": "ym2612"
    },
    {
      "channel": 5,
      "note": 52,
      "start": 20.0476,
      "duration": 0.1634,
      "velocity": 127,
      "chip": "ym2612"
    },
    {
      "channel": 1,
      "note": 88,
      "start": 20.0507,
      "duration": 0.0767,
      "velocity": 78,
      "chip": "ym2612"
    },
    {
      "channel": 0,
      "note": 83,
      "start": 20.0532,
      "duration": 0.0576,
      "velocity": 127,
      "chip": "ym2612"
    },
    {
      "channel": 1,
      "note": 76,
      "start": 20.1477,
      "duration": 0.0964,
      "velocity": 78,
      "chip": "ym2612"
    },
    {
      "channel": 5,
      "note": 50,
      "start": 20.2641,
      "duration": 0.1467,
      "velocity": 127,
      "chip": "ym2612"
    },
    {
      "channel": 3,
      "note": 64,
      "start": 20.267,
      "duration": 0.0772,
      "velocity": 78,
      "chip": "ym2612"
    },
    {
      "channel": 0,
      "note": 86,
      "start": 20.2695,
      "duration": 0.058,
      "velocity": 127,
      "chip": "ym2612"
    },
    {
      "channel": 2,
      "note": 45,
      "start": 20.4806,
      "duration": 0.0008,
      "velocity": 107,
      "chip": "ym2612"
    },
    {
      "channel": 2,
      "note": 39,
      "start": 20.4833,
      "duration": 0.0276,
      "velocity": 119,
      "chip": "ym2612"
    },
    {
      "channel": 5,
      "note": 57,
      "start": 20.4862,
      "duration": 0.1414,
      "velocity": 127,
      "chip": "ym2612"
    },
    {
      "channel": 0,
      "note": 81,
      "start": 20.4893,
      "duration": 0.0714,
      "velocity": 127,
      "chip": "ym2612"
    },
    {
      "channel": 2,
      "note": 39,
      "start": 20.581,
      "duration": 0.0299,
      "velocity": 119,
      "chip": "ym2612"
    },
    {
      "channel": 2,
      "note": 81,
      "start": 20.6802,
      "duration": 0.0307,
      "velocity": 121,
      "chip": "ym2612"
    },
    {
      "channel": 4,
      "note": 69,
      "start": 20.6833,
      "duration": 0.0943,
      "velocity": 127,
      "chip": "ym2612"
    },
    {
      "channel": 1,
      "note": 81,
      "start": 20.687,
      "duration": 0.0904,
      "velocity": 127,
      "chip": "ym2612"
    },
    {
      "channel": 2,
      "note": 39,
      "start": 20.7971,
      "duration": 0.0305,
      "velocity": 119,
      "chip": "ym2612"
    },
    {
      "channel": 5,
      "note": 57,
      "start": 20.7998,
      "duration": 0.1444,
      "velocity": 127,
      "chip": "ym2612"
    },
    {
      "channel": 3,
      "note": 45,
      "start": 20.897,
      "duration": 0.0471,
      "velocity": 107,
      "chip": "ym2612"
    },
    {
      "channel": 2,
      "note": 39,
      "start": 20.8995,
      "duration": 0.0281,
      "velocity": 119,
      "chip": "ym2612"
    },
    {
      "channel": 2,
      "note": 39,
      "start": 21.0138,
      "duration": 0.0304,
      "velocity": 119,
      "chip": "ym2612"
    },
    {
      "channel": 4,
      "note": 69,
      "start": 21.0166,
      "duration": 0.0776,
      "velocity": 127,
      "chip": "ym2612"
    },
    {
      "channel": 2,
      "note": 81,
      "start": 21.1134,
      "duration": 0.0308,
      "velocity": 121,
      "chip": "ym2612"
    },
    {
      "channel": 5,
      "note": 57,
      "start": 21.1163,
      "duration": 0.1613,
      "velocity": 127,
      "chip": "ym2612"
    },
    {
      "channel": 0,
      "note": 81,
      "start": 21.1195,
      "duration": 0.0746,
      "velocity": 127,
      "chip": "ym2612"
    },
    {
      "channel": 2,
      "note": 39,
      "start": 21.2138,
      "duration": 0.0304,
      "velocity": 119,
      "chip": "ym2612"
    },
    {
      "channel": 3,
      "note": 45,
      "start": 21.3302,
      "duration": 0.0473,
      "velocity": 107,
      "chip": "ym2612"
    },
    {
      "channel": 2,
      "note": 39,
      "start": 21.3328,
      "duration": 0.0282,
      "velocity": 119,
      "chip": "ym2612"
    },
    {
      "channel": 4,
      "note": 69,
      "start": 21.3355,
      "duration": 0.0754,
      "velocity": 127,
      "chip": "ym2612"
    },
    {
      "channel": 0,
      "note": 81,
      "start": 21.3381,
      "duration": 0.0725,
      "velocity": 127,
      "chip": "ym2612"
    },
    {
      "channel": 1,
      "note": 81,
      "start": 21.3407,
      "duration": 0.07,
      "velocity": 127,
      "chip": "ym2612"
    },
    {
      "channel": 2,
      "note": 39,
      "start": 21.4306,
      "duration": 0.0303,
      "velocity": 119,
      "chip": "ym2612"
    },
    {
      "channel": 5,
      "note": 57,
      "start": 21.4333,
      "duration": 0.1608,
      "velocity": 127,
      "chip": "ym2612"
    },
    {
      "channel": 2,
      "note": 81,
      "start": 21.5467,
      "duration": 0.0309,
      "velocity": 121,
      "chip": "ym2612"
    },
    {
      "channel": 0,
      "note": 93,
      "start": 21.5497,
      "duration": 0.0777,
      "velocity": 127,
      "chip": "ym2612"
    },
    {
      "channel": 1,
      "note": 81,
      "start": 21.5521,
      "duration": 0.0754,
      "velocity": 127,
      "chip": "ym2612"
    },
    {
      "channel": 2,
      "note": 39,
      "start": 21.6471,
      "duration": 0.0305,
      "velocity": 119,
      "chip": "ym2612"
    },
    {
      "channel": 4,
      "note": 69,
      "start": 21.6498,
      "duration": 0.0777,
      "velocity": 127,
      "chip": "ym2612"
    },
    {
      "channel": 3,
      "note": 45,
      "start": 21.7472,
      "duration": 0.0636,
      "velocity": 107,
      "chip": "ym2612"
    },
    {
      "channel": 2,
      "note": 39,
      "start": 21.7497,
      "duration": 0.0279,
      "velocity": 119,
      "chip": "ym2612"
    },
    {
      "channel": 5,
      "note": 57,
      "start": 21.7529,
      "duration": 0.1579,
      "velocity": 127,
      "chip": "ym2612"
    },
    {
      "channel": 0,
      "note": 88,
      "start": 21.7556,
      "duration": 0.0883,
      "velocity": 127,
      "chip": "ym2612"
    },
    {
      "channel": 1,
      "note": 93,
      "start": 21.758,
      "duration": 0.086,
      "velocity": 127,
      "chip": "ym2612"
    },
    {
      "channel": 2,
      "note": 39,
      "start": 21.8641,
      "duration": 0.0302,
      "velocity": 119,
      "chip": "ym2612"
    },
    {
      "channel": 2,
      "note": 81,
      "start": 21.9634,
      "duration": 0.0308,
      "velocity": 121,
      "chip": "ym2612"
    },
    {
      "channel": 5,
      "note": 69,
      "start": 21.9663,
      "duration": 0.1614,
      "velocity": 127,
      "chip": "ym2612"
    },
    {
      "channel": 4,
      "note": 69,
      "start": 21.969,
      "duration": 0.0753,
      "velocity": 127,
      "chip": "ym2612"
    },
    {
      "channel": 0,
      "note": 91,
      "start": 21.9717,
      "duration": 0.0723,
      "velocity": 127,
      "chip": "ym2612"
    },
    {
      "channel": 1,
      "note": 88,
      "start": 21.9741,
      "duration": 0.07,
      "velocity": 127,
      "chip": "ym2612"
    },
    {
      "channel": 2,
      "note": 39,
      "start": 22.0805,
      "duration": 0.0303,
      "velocity": 119,
      "chip": "ym2612"
    },
    {
      "channel": 3,
      "note": 45,
      "start": 22.1802,
      "duration": 0.0473,
      "velocity": 107,
      "chip": "ym2612"
    },
    {
      "channel": 2,
      "note": 39,
      "start": 22.1827,
      "duration": 0.0283,
      "velocity": 119,
      "chip": "ym2612"
    },
    {
      "channel": 5,
      "note": 57,
      "start": 22.1855,
      "duration": 0.1586,
      "velocity": 127,
      "chip": "ym2612"
    },
    {
      "channel": 4,
      "note": 81,
      "start": 22.1882,
      "duration": 0.0728,
      "velocity": 127,
      "chip": "ym2612"
    },
    {
      "channel": 0,
      "note": 81,
      "start": 22.1909,
      "duration": 0.0698,
      "velocity": 127,
      "chip": "ym2612"
    },
    {
      "channel": 1,
      "note": 91,
      "start": 22.1934,
      "duration": 0.0674,
      "velocity": 127,
      "chip": "ym2612"
    },
    {
      "channel": 2,
      "note": 39,
      "start": 22.2805,
      "duration": 0.0303,
      "velocity": 119,
      "chip": "ym2612"
    },
    {
      "channel": 2,
      "note": 81,
      "start": 22.3971,
      "duration": 0.0305,
      "velocity": 121,
      "chip": "ym2612"
    },
    {
      "channel": 4,
      "note": 69,
      "start": 22.4001,
      "duration": 0.0776,
      "velocity": 127,
      "chip": "ym2612"
    },
    {
      "channel": 1,
      "note": 81,
      "start": 22.403,
      "duration": 0.0744,
      "velocity": 127,
      "chip": "ym2612"
    },
    {
      "channel": 2,
      "note": 39,
      "start": 22.4971,
      "duration": 0.0306,
      "velocity": 119,
      "chip": "ym2612"
    },
    {
      "channel": 5,
      "note": 57,
      "start": 22.4998,
      "duration": 0.1612,
      "velocity": 127,
      "chip": "ym2612"
    },
    {
      "channel": 3,
      "note": 45,
      "start": 22.6134,
      "duration": 0.0473,
      "velocity": 107,
      "chip": "ym2612"
    },
    {
      "channel": 2,
      "note": 39,
      "start": 22.616,
      "duration": 0.0282,
      "velocity": 119,
      "chip": "ym2612"
    },
    {
      "channel": 2,
      "note": 39,
      "start": 22.7138,
      "duration": 0.0304,
      "velocity": 119,
      "chip": "ym2612"
    },
    {
      "channel": 4,
      "note": 69,
      "start": 22.7166,
      "duration": 0.0776,
      "velocity": 127,
      "chip": "ym2612"
    },
    {
      "channel": 2,
      "note": 81,
      "start": 22.8134,
      "duration": 0.0307,
      "velocity": 121,
      "chip": "ym2612"
    },
    {
      "channel": 5,
      "note": 57,
      "start": 22.8163,
      "duration": 0.1614,
      "velocity": 127,
      "chip": "ym2612"
    },
    {
      "channel": 0,
      "note": 81,
      "start": 22.8191,
      "duration": 0.0916,
      "velocity": 127,
      "chip": "ym2612"
    },
    {
      "channel": 2,
      "note": 39,
      "start": 22.9305,
      "duration": 0.0303,
      "velocity": 119,
      "chip": "ym2612"
    },
    {
      "channel": 3,
      "note": 45,
      "start": 23.0302,
      "duration": 0.0474,
      "velocity": 107,
      "chip": "ym2612"
    },
    {
      "channel": 2,
      "note": 39,
      "start": 23.0327,
      "duration": 0.0282,
      "velocity": 119,
      "chip": "ym2612"
    },
    {
      "channel": 4,
      "note": 69,
      "start": 23.0355,
      "duration": 0.0755,
      "velocity": 127,
      "chip": "ym2612"
    },
    {
      "channel": 0,
      "note": 81,
      "start": 23.0381,
      "duration": 0.0727,
      "velocity": 127,
      "chip": "ym2612"
    },
    {
      "channel": 1,
      "note": 81,
      "start": 23.0407,
      "duration": 0.0702,
      "velocity": 127,
      "chip": "ym2612"
    },
    {
      "channel": 2,
      "note": 39,
      "start": 23.1472,
      "duration": 0.0305,
      "velocity": 119,
      "chip": "ym2612"
    },
    {
      "channel": 5,
      "note": 57,
      "start": 23.1498,
      "duration": 0.1443,
      "velocity": 127,
      "chip": "ym2612"
    },
    {
      "channel": 2,
      "note": 81,
      "start": 23.2467,
      "duration": 0.0309,
      "velocity": 121,
      "chip": "ym2612"
    },
    {
      "channel": 0,
      "note": 93,
      "start": 23.2497,
      "duration": 0.0777,
      "velocity": 127,
      "chip": "ym2612"
    },
    {
      "channel": 1,
      "note": 81,
      "start": 23.2521,
      "duration": 0.0753,
      "velocity": 127,
      "chip": "ym2612"
    },
    {
      "channel": 2,
      "note": 39,
      "start": 23.3477,
      "duration": 0.0299,
      "velocity": 119,
      "chip": "ym2612"
    },
    {
      "channel": 4,
      "note": 69,
      "start": 23.3505,
      "duration": 0.0937,
      "velocity": 127,
      "chip": "ym2612"
    },
    {
      "channel": 3,
      "note": 45,
      "start": 23.4635,
      "duration": 0.0473,
      "velocity": 107,
      "chip": "ym2612"
    },
    {
      "channel": 2,
      "note": 39,
      "start": 23.4661,
      "duration": 0.0281,
      "velocity": 119,
      "chip": "ym2612"
    },
    {
      "channel": 5,
      "note": 57,
      "start": 23.4689,
      "duration": 0.142,
      "velocity": 127,
      "chip": "ym2612"
    },
    {
      "channel": 0,
      "note": 88,
      "start": 23.4716,
      "duration": 0.0724,
      "velocity": 127,
      "chip": "ym2612"
    },
    {
      "channel": 1,
      "note": 93,
      "start": 23.4741,
      "duration": 0.07,
      "velocity": 127,
      "chip": "ym2612"
    },
    {
      "channel": 2,
      "note": 39,
      "start": 23.5638,
      "duration": 0.0303,
      "velocity": 119,
      "chip": "ym2612"
    },
    {
      "channel": 2,
      "note": 81,
      "start": 23.6801,
      "duration": 0.0309,
      "velocity": 121,
      "chip": "ym2612"
    },
    {
      "channel": 5,
      "note": 55,
      "start": 23.6829,
      "duration": 0.1446,
      "velocity": 127,
      "chip": "ym2612"
    },
    {
      "channel": 4,
      "note": 69,
      "start": 23.6861,
      "duration": 0.0749,
      "velocity": 127,
      "chip": "ym2612"
    },
    {
      "channel": 0,
      "note": 91,
      "start": 23.6887,
      "duration": 0.072,
      "velocity": 127,
      "chip": "ym2612"
    },
    {
      "channel": 1,
      "note": 88,
      "start": 23.6911,
      "duration": 0.0697,
      "velocity": 127,
      "chip": "ym2612"
    },
    {
      "channel": 2,
      "note": 39,
      "start": 23.7806,
      "duration": 0.0303,
      "velocity": 119,
      "chip": "ym2612"
    },
    {
      "channel": 3,
      "note": 45,
      "start": 23.8802,
      "duration": 0.0639,
      "velocity": 107,
      "chip": "ym2612"
    },
    {
      "channel": 2,
      "note": 39,
      "start": 23.8827,
      "duration": 0.0282,
      "velocity": 119,
      "chip": "ym2612"
    },
    {
      "channel": 5,
      "note": 57,
      "start": 23.8856,
      "duration": 0.1586,
      "velocity": 127,
      "chip": "ym2612"
    },
    {
      "channel": 4,
      "note": 67,
      "start": 23.8883,
      "duration": 0.0895,
      "velocity": 127,
      "chip": "ym2612"
    },
    {
      "channel": 0,
      "note": 81,
      "start": 23.891,
      "duration": 0.0865,
      "velocity": 127,
      "chip": "ym2612"
    },
    {
      "channel": 1,
      "note": 91,
      "start": 23.8935,
      "duration": 0.0841,
      "velocity": 127,
      "chip": "ym2612"
    },
    {
      "channel": 2,
      "note": 39,
      "start": 23.9971,
      "duration": 0.0305,
      "velocity": 119,
      "chip": "ym2612"
    },
    {
      "channel": 2,
      "note": 81,
      "start": 24.0967,
      "duration": 0.0308,
      "velocity": 121,
      "chip": "ym2612"
    },
    {
      "channel": 4,
      "note": 69,
      "start": 24.0998,
      "duration": 0.0779,
      "velocity": 127,
      "chip": "ym2612"
    },
    {
      "channel": 1,
      "note": 81,
      "start": 24.103,
      "duration": 0.0745,
      "velocity": 127,
      "chip": "ym2612"
    },
    {
      "channel": 2,
      "note": 39,
      "start": 24.2137,
      "duration": 0.0305,
      "velocity": 119,
      "chip": "ym2612"
    },
    {
      "channel": 5,
      "note": 57,
      "start": 24.2164,
      "duration": 0.1445,
      "velocity": 127,
      "chip": "ym2612"
    },
    {
      "channel": 3,
      "note": 45,
      "start": 24.3134,
      "duration": 0.0474,
      "velocity": 107,
      "chip": "ym2612"
    },
    {
      "channel": 2,
      "note": 39,
      "start": 24.3159,
      "duration": 0.0282,
      "velocity": 119,
      "chip": "ym2612"
    },
    {
      "channel": 2,
      "note": 39,
      "start": 24.4138,
      "duration": 0.0304,
      "velocity": 119,
      "chip": "ym2612"
    },
    {
      "channel": 4,
      "note": 69,
      "start": 24.4165,
      "duration": 0.0943,
      "velocity": 127,
      "chip": "ym2612"
    },
    {
      "channel": 2,
      "note": 81,
      "start": 24.5301,
      "duration": 0.0308,
      "velocity": 121,
      "chip": "ym2612"
    },
    {
      "channel": 5,
      "note": 57,
      "start": 24.5329,
      "duration": 0.1447,
      "velocity": 127,
      "chip": "ym2612"
    },
    {
      "channel": 0,
      "note": 81,
      "start": 24.5362,
      "duration": 0.0745,
      "velocity": 127,
      "chip": "ym2612"
    },
    {
      "channel": 2,
      "note": 39,
      "start": 24.631,
      "duration": 0.0299,
      "velocity": 119,
      "chip": "ym2612"
    },
    {
      "channel": 3,
      "note": 45,
      "start": 24.7468,
      "duration": 0.0472,
      "velocity": 107,
      "chip": "ym2612"
    },
    {
      "channel": 2,
      "note": 39,
      "start": 24.7494,
      "duration": 0.0282,
      "velocity": 119,
      "chip": "ym2612"
    },
    {
      "channel": 4,
      "note": 69,
      "start": 24.7521,
      "duration": 0.0756,
      "velocity": 127,
      "chip": "ym2612"
    },
    {
      "channel": 0,
      "note": 81,
      "start": 24.7547,
      "duration": 0.0727,
      "velocity": 127,
      "chip": "ym2612"
    },
    {
      "channel": 1,
      "note": 81,
      "start": 24.7573,
      "duration": 0.0702,
      "velocity": 127,
      "chip": "ym2612"
    },
    {
      "channel": 2,
      "note": 39,
      "start": 24.8472,
      "duration": 0.0304,
      "velocity": 119,
      "chip": "ym2612"
    },
    {
      "channel": 5,
      "note": 57,
      "start": 24.8498,
      "duration": 0.161,
      "velocity": 127,
      "chip": "ym2612"
    },
    {
      "channel": 2,
      "note": 81,
      "start": 24.9468,
      "duration": 0.0308,
      "velocity": 121,
      "chip": "ym2612"
    },
    {
      "channel": 0,
      "note": 93,
      "start": 24.9497,
      "duration": 0.0943,
      "velocity": 127,
      "chip": "ym2612"
    },
    {
      "channel": 1,
      "note": 81,
      "start": 24.9522,
      "duration": 0.092,
      "velocity": 127,
      "chip": "ym2612"
    },
    {
      "channel": 2,
      "note": 39,
      "start": 25.0638,
      "duration": 0.0303,
      "velocity": 119,
      "chip": "ym2612"
    },
    {
      "channel": 4,
      "note": 69,
      "start": 25.0666,
      "duration": 0.0776,
      "velocity": 127,
      "chip": "ym2612"
    },
    {
      "channel": 3,
      "note": 45,
      "start": 25.1635,
      "duration": 0.0472,
      "velocity": 107,
      "chip": "ym2612"
    },
    {
      "channel": 2,
      "note": 39,
      "start": 25.1661,
      "duration": 0.0282,
      "velocity": 119,
      "chip": "ym2612"
    },
    {
      "channel": 5,
      "note": 57,
      "start": 25.1693,
      "duration": 0.1583,
      "velocity": 127,
      "chip": "ym2612"
    },
    {
      "channel": 0,
      "note": 88,
      "start": 25.172,
      "duration": 0.072,
      "velocity": 127,
      "chip": "ym2612"
    },
    {
      "channel": 1,
      "note": 93,
      "start": 25.1745,
      "duration": 0.0697,
      "velocity": 127,
      "chip": "ym2612"
    },
    {
      "channel": 2,
      "note": 39,
      "start": 25.2805,
      "duration": 0.0303,
      "velocity": 119,
      "chip": "ym2612"
    },
    {
      "channel": 2,
      "note": 81,
      "start": 25.3801,
      "duration": 0.0309,
      "velocity": 121,
      "chip": "ym2612"
    },
    {
      "channel": 5,
      "note": 69,
      "start": 25.3829,
      "duration": 0.1612,
      "velocity": 127,
      "chip": "ym2612"
    },
    {
      "channel": 4,
      "note": 69,
      "start": 25.3857,
      "duration": 0.0752,
      "velocity": 127,
      "chip": "ym2612"
    },
    {
      "channel": 0,
      "note": 91,
      "start": 25.3883,
      "duration": 0.0723,
      "velocity": 127,
      "chip": "ym2612"
    },
    {
      "channel": 1,
      "note": 88,
      "start": 25.3908,
      "duration": 0.0699,
      "velocity": 127,
      "chip": "ym2612"
    },
    {
      "channel": 2,
      "note": 39,
      "start": 25.4806,
      "duration": 0.0303,
      "velocity": 119,
      "chip": "ym2612"
    },
    {
      "channel": 3,
      "note": 45,
      "start": 25.5967,
      "duration": 0.0473,
      "velocity": 107,
      "chip": "ym2612"
    },
    {
      "channel": 2,
      "note": 39,
      "start": 25.5993,
      "duration": 0.0284,
      "velocity": 119,
      "chip": "ym2612"
    },
    {
      "channel": 5,
      "note": 57,
      "start": 25.6021,
      "duration": 0.142,
      "velocity": 127,
      "chip": "ym2612"
    },
    {
      "channel": 4,
      "note": 81,
      "start": 25.6047,
      "duration": 0.0729,
      "velocity": 127,
      "chip": "ym2612"
    },
    {
      "channel": 0,
      "note": 81,
      "start": 25.6076,
      "duration": 0.0698,
      "velocity": 127,
      "chip": "ym2612"
    },
    {
      "channel": 1,
      "note": 91,
      "start": 25.61,
      "duration": 0.0674,
      "velocity": 127,
      "chip": "ym2612"
    },
    {
      "channel": 2,
      "note": 39,
      "start": 25.6971,
      "duration": 0.0305,
      "velocity": 119,
      "chip": "ym2612"
    },
    {
      "channel": 2,
      "note": 81,
      "start": 25.8134,
      "duration": 0.0307,
      "velocity": 121,
      "chip": "ym2612"
    },
    {
      "channel": 4,
      "note": 69,
      "start": 25.8164,
      "duration": 0.0777,
      "velocity": 127,
      "chip": "ym2612"
    },
    {
      "channel": 1,
      "note": 81,
      "start": 25.8194,
      "duration": 0.0746,
      "velocity": 127,
      "chip": "ym2612"
    },
    {
      "channel": 2,
      "note": 39,
      "start": 25.9137,
      "duration": 0.0305,
      "velocity": 119,
      "chip": "ym2612"
    },
    {
      "channel": 5,
      "note": 57,
      "start": 25.9164,
      "duration": 0.1613,
      "velocity": 127,
      "chip": "ym2612"
    },
    {
      "channel": 3,
      "note": 45,
      "start": 26.0135,
      "duration": 0.064,
      "velocity": 107,
      "chip": "ym2612"
    },
    {
      "channel": 2,
      "note": 39,
      "start": 26.0164,
      "duration": 0.0278,
      "velocity": 119,
      "chip": "ym2612"
    },
    {
      "channel": 2,
      "note": 39,
      "start": 26.1304,
      "duration": 0.0304,
      "velocity": 119,
      "chip": "ym2612"
    },
    {
      "channel": 4,
      "note": 69,
      "start": 26.1332,
      "duration": 0.0777,
      "velocity": 127,
      "chip": "ym2612"
    },
    {
      "channel": 2,
      "note": 81,
      "start": 26.2301,
      "duration": 0.0308,
      "velocity": 121,
      "chip": "ym2612"
    },
    {
      "channel": 5,
      "note": 57,
      "start": 26.2329,
      "duration": 0.1612,
      "velocity": 127,
      "chip": "ym2612"
    },
    {
      "channel": 0,
      "note": 81,
      "start": 26.2358,
      "duration": 0.0749,
      "velocity": 127,
      "chip": "ym2612"
    },
    {
      "channel": 2,
      "note": 39,
      "start": 26.3471,
      "duration": 0.0305,
      "velocity": 119,
      "chip": "ym2612"
    },
    {
      "channel": 3,
      "note": 45,
      "start": 26.4468,
      "duration": 0.0472,
      "velocity": 107,
      "chip": "ym2612"
    },
    {
      "channel": 2,
      "note": 39,
      "start": 26.4494,
      "duration": 0.0283,
      "velocity": 119,
      "chip": "ym2612"
    },
    {
      "channel": 4,
      "note": 69,
      "start": 26.4521,
      "duration": 0.0756,
      "velocity": 127,
      "chip": "ym2612"
    },
    {
      "channel": 0,
      "note": 81,
      "start": 26.4547,
      "duration": 0.0727,
      "velocity": 127,
      "chip": "ym2612"
    },
    {
      "channel": 1,
      "note": 81,
      "start": 26.4573,
      "duration": 0.0702,
      "velocity": 127,
      "chip": "ym2612"
    },
    {
      "channel": 2,
      "note": 39,
      "start": 26.5472,
      "duration": 0.0304,
      "velocity": 119,
      "chip": "ym2612"
    },
    {
      "channel": 5,
      "note": 57,
      "start": 26.5498,
      "duration": 0.1611,
      "velocity": 127,
      "chip": "ym2612"
    },
    {
      "channel": 2,
      "note": 81,
      "start": 26.6634,
      "duration": 0.0307,
      "velocity": 121,
      "chip": "ym2612"
    },
    {
      "channel": 0,
      "note": 93,
      "start": 26.6664,
      "duration": 0.0776,
      "velocity": 127,
      "chip": "ym2612"
    },
    {
      "channel": 1,
      "note": 81,
      "start": 26.6688,
      "duration": 0.0753,
      "velocity": 127,
      "chip": "ym2612"
    },
    {
      "channel": 2,
      "note": 39,
      "start": 26.7638,
      "duration": 0.0303,
      "velocity": 119,
      "chip": "ym2612"
    },
    {
      "channel": 4,
      "note": 69,
      "start": 26.7666,
      "duration": 0.0776,
      "velocity": 127,
      "chip": "ym2612"
    },
    {
      "channel": 3,
      "note": 45,
      "start": 26.8802,
      "duration": 0.0473,
      "velocity": 107,
      "chip": "ym2612"
    },
    {
      "channel": 2,
      "note": 39,
      "start": 26.8828,
      "duration": 0.028,
      "velocity": 119,
      "chip": "ym2612"
    },
    {
      "channel": 5,
      "note": 57,
      "start": 26.8856,
      "duration": 0.1419,
      "velocity": 127,
      "chip": "ym2612"
    },
    {
      "channel": 0,
      "note": 88,
      "start": 26.8883,
      "duration": 0.0724,
      "velocity": 127,
      "chip": "ym2612"
    },
    {
      "channel": 1,
      "note": 93,
      "start": 26.8908,
      "duration": 0.07,
      "velocity": 127,
      "chip": "ym2612"
    },
    {
      "channel": 2,
      "note": 39,
      "start": 26.9806,
      "duration": 0.0303,
      "velocity": 119,
      "chip": "ym2612"
    },
    {
      "channel": 2,
      "note": 81,
      "start": 27.0801,
      "duration": 0.0309,
      "velocity": 121,
      "chip": "ym2612"
    },
    {
      "channel": 5,
      "note": 55,
      "start": 27.0829,
      "duration": 0.1612,
      "velocity": 127,
      "chip": "ym2612"
    },
    {
      "channel": 4,
      "note": 69,
      "start": 27.0861,
      "duration": 0.0917,
      "velocity": 127,
      "chip": "ym2612"
    },
    {
      "channel": 0,
      "note": 91,
      "start": 27.0887,
      "duration": 0.0888,
      "velocity": 127,
      "chip": "ym2612"
    },
    {
      "channel": 1,
      "note": 88,
      "start": 27.0912,
      "duration": 0.0864,
      "velocity": 127,
      "chip": "ym2612"
    },
    {
      "channel": 2,
      "note": 39,
      "start": 27.1971,
      "duration": 0.0305,
      "velocity": 119,
      "chip": "ym2612"
    },
    {
      "channel": 3,
      "note": 45,
      "start": 27.2968,
      "duration": 0.0472,
      "velocity": 107,
      "chip": "ym2612"
    },
    {
      "channel": 2,
      "note": 39,
      "start": 27.2994,
      "duration": 0.0283,
      "velocity": 119,
      "chip": "ym2612"
    },
    {
      "channel": 5,
      "note": 52,
      "start": 27.3022,
      "duration": 0.1586,
      "velocity": 127,
      "chip": "ym2612"
    },
    {
      "channel": 4,
      "note": 62,
      "start": 27.3049,
      "duration": 0.0728,
      "velocity": 127,
      "chip": "ym2612"
    },
    {
      "channel": 0,
      "note": 64,
      "start": 27.3077,
      "duration": 0.0697,
      "velocity": 127,
      "chip": "ym2612"
    },
    {
      "channel": 1,
      "note": 79,
      "start": 27.3103,
      "duration": 0.0672,
      "velocity": 127,
      "chip": "ym2612"
    },
    {
      "channel": 2,
      "note": 39,
      "start": 27.4141,
      "duration": 0.0302,
      "velocity": 119,
      "chip": "ym2612"
    },
    {
      "channel": 1,
      "note": 64,
      "start": 27.4177,
      "duration": 0.0764,
      "velocity": 127,
      "chip": "ym2612"
    },
    {
      "channel": 2,
      "note": 81,
      "start": 27.5133,
      "duration": 0.0308,
      "velocity": 121,
      "chip": "ym2612"
    },
    {
      "channel": 4,
      "note": 64,
      "start": 27.5164,
      "duration": 0.0777,
      "velocity": 127,
      "chip": "ym2612"
    },
    {
      "channel": 2,
      "note": 39,
      "start": 27.6138,
      "duration": 0.0305,
      "velocity": 119,
      "chip": "ym2612"
    },
    {
      "channel": 5,
      "note": 52,
      "start": 27.6165,
      "duration": 0.1612,
      "velocity": 127,
      "chip": "ym2612"
    },
    {
      "channel": 3,
      "note": 45,
      "start": 27.7302,
      "duration": 0.0473,
      "velocity": 107,
      "chip": "ym2612"
    },
    {
      "channel": 2,
      "note": 39,
      "start": 27.7327,
      "duration": 0.0281,
      "velocity": 119,
      "chip": "ym2612"
    },
    {
      "channel": 2,
      "note": 39,
      "start": 27.8306,
      "duration": 0.0303,
      "velocity": 119,
      "chip": "ym2612"
    },
    {
      "channel": 4,
      "note": 64,
      "start": 27.8333,
      "duration": 0.0775,
      "velocity": 127,
      "chip": "ym2612"
    },
    {
      "channel": 2,
      "note": 81,
      "start": 27.9467,
      "duration": 0.0308,
      "velocity": 121,
      "chip": "ym2612"
    },
    {
      "channel": 5,
      "note": 52,
      "start": 27.9495,
      "duration": 0.1446,
      "velocity": 127,
      "chip": "ym2612"
    },
    {
      "channel": 0,
      "note": 64,
      "start": 27.9528,
      "duration": 0.0747,
      "velocity": 127,
      "chip": "ym2612"
    },
    {
      "channel": 2,
      "note": 39,
      "start": 28.0472,
      "duration": 0.0305,
      "velocity": 119,
      "chip": "ym2612"
    },
    {
      "channel": 1,
      "note": 64,
      "start": 28.0503,
      "duration": 0.0772,
      "velocity": 127,
      "chip": "ym2612"
    },
    {
      "channel": 3,
      "note": 45,
      "start": 28.1468,
      "duration": 0.0639,
      "velocity": 107,
      "chip": "ym2612"
    },
    {
      "channel": 2,
      "note": 39,
      "start": 28.1493,
      "duration": 0.0284,
      "velocity": 119,
      "chip": "ym2612"
    },
    {
      "channel": 4,
      "note": 64,
      "start": 28.1521,
      "duration": 0.0921,
      "velocity": 127,
      "chip": "ym2612"
    },
    {
      "channel": 0,
      "note": 64,
      "start": 28.1547,
      "duration": 0.0893,
      "velocity": 127,
      "chip": "ym2612"
    },
    {
      "channel": 2,
      "note": 39,
      "start": 28.2638,
      "duration": 0.0303,
      "velocity": 119,
      "chip": "ym2612"
    },
    {
      "channel": 5,
      "note": 52,
      "start": 28.2665,
      "duration": 0.1443,
      "velocity": 127,
      "chip": "ym2612"
    },
    {
      "channel": 1,
      "note": 64,
      "start": 28.2694,
      "duration": 0.0745,
      "velocity": 127,
      "chip": "ym2612"
    },
    {
      "channel": 2,
      "note": 81,
      "start": 28.3634,
      "duration": 0.0308,
      "velocity": 121,
      "chip": "ym2612"
    },
    {
      "channel": 0,
      "note": 76,
      "start": 28.3663,
      "duration": 0.0776,
      "velocity": 127,
      "chip": "ym2612"
    },
    {
      "channel": 2,
      "note": 39,
      "start": 28.4805,
      "duration": 0.0304,
      "velocity": 119,
      "chip": "ym2612"
    },
    {
      "channel": 4,
      "note": 64,
      "start": 28.4833,
      "duration": 0.0775,
      "velocity": 127,
      "chip": "ym2612"
    },
    {
      "channel": 1,
      "note": 76,
      "start": 28.486,
      "duration": 0.0747,
      "velocity": 127,
      "chip": "ym2612"
    },
    {
      "channel": 3,
      "note": 45,
      "start": 28.5806,
      "duration": 0.0469,
      "velocity": 107,
      "chip": "ym2612"
    },
    {
      "channel": 2,
      "note": 39,
      "start": 28.5831,
      "duration": 0.0277,
      "velocity": 119,
      "chip": "ym2612"
    },
    {
      "channel": 5,
      "note": 52,
      "start": 28.5863,
      "duration": 0.1579,
      "velocity": 127,
      "chip": "ym2612"
    },
    {
      "channel": 0,
      "note": 71,
      "start": 28.589,
      "duration": 0.0717,
      "velocity": 127,
      "chip": "ym2612"
    },
    {
      "channel": 2,
      "note": 39,
      "start": 28.6809,
      "duration": 0.0301,
      "velocity": 119,
      "chip": "ym2612"
    },
    {
      "channel": 1,
      "note": 71,
      "start": 28.6838,
      "duration": 0.0936,
      "velocity": 127,
      "chip": "ym2612"
    },
    {
      "channel": 2,
      "note": 81,
      "start": 28.7968,
      "duration": 0.0309,
      "velocity": 121,
      "chip": "ym2612"
    },
    {
      "channel": 5,
      "note": 64,
      "start": 28.7997,
      "duration": 0.1445,
      "velocity": 127,
      "chip": "ym2612"
    },
    {
      "channel": 4,
      "note": 64,
      "start": 28.8024,
      "duration": 0.0752,
      "velocity": 127,
      "chip": "ym2612"
    },
    {
      "channel": 0,
      "note": 74,
      "start": 28.8051,
      "duration": 0.0723,
      "velocity": 127,
      "chip": "ym2612"
    },
    {
      "channel": 2,
      "note": 39,
      "start": 28.8971,
      "duration": 0.0305,
      "velocity": 119,
      "chip": "ym2612"
    },
    {
      "channel": 1,
      "note": 74,
      "start": 28.9,
      "duration": 0.0775,
      "velocity": 127,
      "chip": "ym2612"
    },
    {
      "channel": 3,
      "note": 45,
      "start": 29.0134,
      "duration": 0.0474,
      "velocity": 107,
      "chip": "ym2612"
    },
    {
      "channel": 2,
      "note": 39,
      "start": 29.016,
      "duration": 0.0282,
      "velocity": 119,
      "chip": "ym2612"
    },
    {
      "channel": 5,
      "note": 52,
      "start": 29.0189,
      "duration": 0.142,
      "velocity": 127,
      "chip": "ym2612"
    },
    {
      "channel": 4,
      "note": 76,
      "start": 29.0215,
      "duration": 0.0727,
      "velocity": 127,
      "chip": "ym2612"
    },
    {
      "channel": 0,
      "note": 64,
      "start": 29.0243,
      "duration": 0.0697,
      "velocity": 127,
      "chip": "ym2612"
    },
    {
      "channel": 2,
      "note": 39,
      "start": 29.1138,
      "duration": 0.0304,
      "velocity": 119,
      "chip": "ym2612"
    },
    {
      "channel": 1,
      "note": 64,
      "start": 29.117,
      "duration": 0.077,
      "velocity": 127,
      "chip": "ym2612"
    },
    {
      "channel": 2,
      "note": 81,
      "start": 29.2138,
      "duration": 0.0305,
      "velocity": 121,
      "chip": "ym2612"
    },
    {
      "channel": 4,
      "note": 64,
      "start": 29.2168,
      "duration": 0.094,
      "velocity": 127,
      "chip": "ym2612"
    },
    {
      "channel": 2,
      "note": 39,
      "start": 29.3306,
      "duration": 0.0303,
      "velocity": 119,
      "chip": "ym2612"
    },
    {
      "channel": 5,
      "note": 52,
      "start": 29.3332,
      "duration": 0.1444,
      "velocity": 127,
      "chip": "ym2612"
    },
    {
      "channel": 3,
      "note": 45,
      "start": 29.4302,
      "duration": 0.0472,
      "velocity": 107,
      "chip": "ym2612"
    },
    {
      "channel": 2,
      "note": 39,
      "start": 29.4328,
      "duration": 0.0282,
      "velocity": 119,
      "chip": "ym2612"
    },
    {
      "channel": 2,
      "note": 39,
      "start": 29.5472,
      "duration": 0.0305,
      "velocity": 119,
      "chip": "ym2612"
    },
    {
      "channel": 4,
      "note": 64,
      "start": 29.5499,
      "duration": 0.0776,
      "velocity": 127,
      "chip": "ym2612"
    },
    {
      "channel": 2,
      "note": 81,
      "start": 29.6468,
      "duration": 0.0309,
      "velocity": 121,
      "chip": "ym2612"
    },
    {
      "channel": 5,
      "note": 52,
      "start": 29.6496,
      "duration": 0.1612,
      "velocity": 127,
      "chip": "ym2612"
    },
    {
      "channel": 0,
      "note": 64,
      "start": 29.6525,
      "duration": 0.0749,
      "velocity": 127,
      "chip": "ym2612"
    },
    {
      "channel": 2,
      "note": 39,
      "start": 29.7471,
      "duration": 0.0305,
      "velocity": 119,
      "chip": "ym2612"
    },
    {
      "channel": 1,
      "note": 64,
      "start": 29.7503,
      "duration": 0.0938,
      "velocity": 127,
      "chip": "ym2612"
    },
    {
      "channel": 3,
      "note": 45,
      "start": 29.8634,
      "duration": 0.0473,
      "velocity": 107,
      "chip": "ym2612"
    },
    {
      "channel": 2,
      "note": 39,
      "start": 29.866,
      "duration": 0.0282,
      "velocity": 119,
      "chip": "ym2612"
    },
    {
      "channel": 4,
      "note": 64,
      "start": 29.8687,
      "duration": 0.0754,
      "velocity": 127,
      "chip": "ym2612"
    },
    {
      "channel": 0,
      "note": 64,
      "start": 29.8713,
      "duration": 0.0727,
      "velocity": 127,
      "chip": "ym2612"
    },
    {
      "channel": 2,
      "note": 39,
      "start": 29.9638,
      "duration": 0.0303,
      "velocity": 119,
      "chip": "ym2612"
    },
    {
      "channel": 5,
      "note": 52,
      "start": 29.9665,
      "duration": 0.1611,
      "velocity": 127,
      "chip": "ym2612"
    },
    {
      "channel": 1,
      "note": 64,
      "start": 29.9694,
      "duration": 0.0745,
      "velocity": 127,
      "chip": "ym2612"
    },
    {
      "channel": 2,
      "note": 81,
      "start": 30.0801,
      "duration": 0.0309,
      "velocity": 121,
      "chip": "ym2612"
    },
    {
      "channel": 0,
      "note": 76,
      "start": 30.083,
      "duration": 0.0776,
      "velocity": 127,
      "chip": "ym2612"
    },
    {
      "channel": 2,
      "note": 39,
      "start": 30.1809,
      "duration": 0.03,
      "velocity": 119,
      "chip": "ym2612"
    },
    {
      "channel": 4,
      "note": 64,
      "start": 30.1837,
      "duration": 0.0771,
      "velocity": 127,
      "chip": "ym2612"
    },
    {
      "channel": 1,
      "note": 76,
      "start": 30.1864,
      "duration": 0.0742,
      "velocity": 127,
      "chip": "ym2612"
    },
    {
      "channel": 3,
      "note": 45,
      "start": 30.2802,
      "duration": 0.0639,
      "velocity": 107,
      "chip": "ym2612"
    },
    {
      "channel": 2,
      "note": 39,
      "start": 30.2827,
      "duration": 0.0283,
      "velocity": 119,
      "chip": "ym2612"
    },
    {
      "channel": 5,
      "note": 52,
      "start": 30.2856,
      "duration": 0.1586,
      "velocity": 127,
      "chip": "ym2612"
    },
    {
      "channel": 0,
      "note": 71,
      "start": 30.2883,
      "duration": 0.0891,
      "velocity": 127,
      "chip": "ym2612"
    },
    {
      "channel": 2,
      "note": 39,
      "start": 30.3972,
      "duration": 0.0305,
      "velocity": 119,
      "chip": "ym2612"
    },
    {
      "channel": 1,
      "note": 71,
      "start": 30.4002,
      "duration": 0.0773,
      "velocity": 127,
      "chip": "ym2612"
    },
    {
      "channel": 2,
      "note": 81,
      "start": 30.4967,
      "duration": 0.0309,
      "velocity": 121,
      "chip": "ym2612"
    },
    {
      "channel": 5,
      "note": 50,
      "start": 30.4996,
      "duration": 0.1612,
      "velocity": 127,
      "chip": "ym2612"
    },
    {
      "channel": 4,
      "note": 64,
      "start": 30.5028,
      "duration": 0.0749,
      "velocity": 127,
      "chip": "ym2612"
    },
    {
      "channel": 0,
      "note": 74,
      "start": 30.5054,
      "duration": 0.072,
      "velocity": 127,
      "chip": "ym2612"
    },
    {
      "channel": 2,
      "note": 39,
      "start": 30.6137,
      "duration": 0.0304,
      "velocity": 119,
      "chip": "ym2612"
    },
    {
      "channel": 1,
      "note": 74,
      "start": 30.6167,
      "duration": 0.0773,
      "velocity": 127,
      "chip": "ym2612"
    },
    {
      "channel": 3,
      "note": 45,
      "start": 30.7135,
      "duration": 0.0472,
      "velocity": 107,
      "chip": "ym2612"
    },
    {
      "channel": 2,
      "note": 39,
      "start": 30.7161,
      "duration": 0.0282,
      "velocity": 119,
      "chip": "ym2612"
    },
    {
      "channel": 5,
      "note": 52,
      "start": 30.7189,
      "duration": 0.1587,
      "velocity": 127,
      "chip": "ym2612"
    },
    {
      "channel": 4,
      "note": 62,
      "start": 30.7215,
      "duration": 0.0726,
      "velocity": 127,
      "chip": "ym2612"
    },
    {
      "channel": 0,
      "note": 64,
      "start": 30.7243,
      "duration": 0.0696,
      "velocity": 127,
      "chip": "ym2612"
    },
    {
      "channel": 2,
      "note": 39,
      "start": 30.8138,
      "duration": 0.0304,
      "velocity": 119,
      "chip": "ym2612"
    },
    {
      "channel": 1,
      "note": 64,
      "start": 30.8173,
      "duration": 0.0934,
      "velocity": 127,
      "chip": "ym2612"
    },
    {
      "channel": 2,
      "note": 81,
      "start": 30.9301,
      "duration": 0.0308,
      "velocity": 121,
      "chip": "ym2612"
    },
    {
      "channel": 4,
      "note": 64,
      "start": 30.9332,
      "duration": 0.0776,
      "velocity": 127,
      "chip": "ym2612"
    },
    {
      "channel": 2,
      "note": 39,
      "start": 31.0306,
      "duration": 0.0303,
      "velocity": 119,
      "chip": "ym2612"
    },
    {
      "channel": 5,
      "note": 52,
      "start": 31.0332,
      "duration": 0.1611,
      "velocity": 127,
      "chip": "ym2612"
    },
    {
      "channel": 3,
      "note": 45,
      "start": 31.1468,
      "duration": 0.0473,
      "velocity": 107,
      "chip": "ym2612"
    },
    {
      "channel": 2,
      "note": 39,
      "start": 31.1493,
      "duration": 0.0284,
      "velocity": 119,
      "chip": "ym2612"
    },
    {
      "channel": 2,
      "note": 39,
      "start": 31.2471,
      "duration": 0.0305,
      "velocity": 119,
      "chip": "ym2612"
    },
    {
      "channel": 4,
      "note": 64,
      "start": 31.2499,
      "duration": 0.0776,
      "velocity": 127,
      "chip": "ym2612"
    },
    {
      "channel": 2,
      "note": 81,
      "start": 31.3468,
      "duration": 0.0309,
      "velocity": 121,
      "chip": "ym2612"
    },
    {
      "channel": 5,
      "note": 52,
      "start": 31.3496,
      "duration": 0.1612,
      "velocity": 127,
      "chip": "ym2612"
    },
    {
      "channel": 0,
      "note": 64,
      "start": 31.3528,
      "duration": 0.0911,
      "velocity": 127,
      "chip": "ym2612"
    },
    {
      "channel": 2,
      "note": 39,
      "start": 31.4642,
      "duration": 0.03,
      "velocity": 119,
      "chip": "ym2612"
    },
    {
      "channel": 1,
      "note": 64,
      "start": 31.4673,
      "duration": 0.0767,
      "velocity": 127,
      "chip": "ym2612"
    },
    {
      "channel": 3,
      "note": 45,
      "start": 31.5634,
      "duration": 0.0473,
      "velocity": 107,
      "chip": "ym2612"
    },
    {
      "channel": 2,
      "note": 39,
      "start": 31.566,
      "duration": 0.0282,
      "velocity": 119,
      "chip": "ym2612"
    },
    {
      "channel": 4,
      "note": 64,
      "start": 31.5687,
      "duration": 0.0754,
      "velocity": 127,
      "chip": "ym2612"
    },
    {
      "channel": 0,
      "note": 64,
      "start": 31.5713,
      "duration": 0.0727,
      "velocity": 127,
      "chip": "ym2612"
    },
    {
      "channel": 2,
      "note": 39,
      "start": 31.6805,
      "duration": 0.0303,
      "velocity": 119,
      "chip": "ym2612"
    },
    {
      "channel": 5,
      "note": 52,
      "start": 31.6832,
      "duration": 0.1444,
      "velocity": 127,
      "chip": "ym2612"
    },
    {
      "channel": 1,
      "note": 64,
      "start": 31.6861,
      "duration": 0.0747,
      "velocity": 127,
      "chip": "ym2612"
    },
    {
      "channel": 2,
      "note": 81,
      "start": 31.7801,
      "duration": 0.0309,
      "velocity": 121,
      "chip": "ym2612"
    },
    {
      "channel": 0,
      "note": 76,
      "start": 31.783,
      "duration": 0.0776,
      "velocity": 127,
      "chip": "ym2612"
    },
    {
      "channel": 2,
      "note": 39,
      "start": 31.8805,
      "duration": 0.0304,
      "velocity": 119,
      "chip": "ym2612"
    },
    {
      "channel": 4,
      "note": 64,
      "start": 31.8833,
      "duration": 0.0943,
      "velocity": 127,
      "chip": "ym2612"
    },
    {
      "channel": 1,
      "note": 76,
      "start": 31.886,
      "duration": 0.0914,
      "velocity": 127,
      "chip": "ym2612"
    },
    {
      "channel": 3,
      "note": 45,
      "start": 31.9968,
      "duration": 0.0473,
      "velocity": 107,
      "chip": "ym2612"
    },
    {
      "channel": 2,
      "note": 39,
      "start": 31.9993,
      "duration": 0.0284,
      "velocity": 119,
      "chip": "ym2612"
    },
    {
      "channel": 5,
      "note": 52,
      "start": 32.0025,
      "duration": 0.1416,
      "velocity": 127,
      "chip": "ym2612"
    },
    {
      "channel": 0,
      "note": 71,
      "start": 32.0053,
      "duration": 0.0721,
      "velocity": 127,
      "chip": "ym2612"
    },
    {
      "channel": 2,
      "note": 39,
      "start": 32.0971,
      "duration": 0.0305,
      "velocity": 119,
      "chip": "ym2612"
    },
    {
      "channel": 1,
      "note": 71,
      "start": 32.1001,
      "duration": 0.0773,
      "velocity": 127,
      "chip": "ym2612"
    },
    {
      "channel": 2,
      "note": 81,
      "start": 32.2134,
      "duration": 0.0308,
      "velocity": 121,
      "chip": "ym2612"
    },
    {
      "channel": 5,
      "note": 64,
      "start": 32.2163,
      "duration": 0.1445,
      "velocity": 127,
      "chip": "ym2612"
    },
    {
      "channel": 4,
      "note": 64,
      "start": 32.219,
      "duration": 0.0751,
      "velocity": 127,
      "chip": "ym2612"
    },
    {
      "channel": 0,
      "note": 74,
      "start": 32.2217,
      "duration": 0.0723,
      "velocity": 127,
      "chip": "ym2612"
    },
    {
      "channel": 2,
      "note": 39,
      "start": 32.3138,
      "duration": 0.0304,
      "velocity": 119,
      "chip": "ym2612"
    },
    {
      "channel": 1,
      "note": 74,
      "start": 32.3168,
      "duration": 0.0773,
      "velocity": 127,
      "chip": "ym2612"
    },
    {
      "channel": 3,
      "note": 45,
      "start": 32.4134,
      "duration": 0.0641,
      "velocity": 107,
      "chip": "ym2612"
    },
    {
      "channel": 2,
      "note": 39,
      "start": 32.416,
      "duration": 0.0282,
      "velocity": 119,
      "chip": "ym2612"
    },
    {
      "channel": 5,
      "note": 52,
      "start": 32.4188,
      "duration": 0.1588,
      "velocity": 127,
      "chip": "ym2612"
    },
    {
      "channel": 4,
      "note": 76,
      "start": 32.4215,
      "duration": 0.0894,
      "velocity": 127,
      "chip": "ym2612"
    },
    {
      "channel": 0,
      "note": 64,
      "start": 32.4242,
      "duration": 0.0865,
      "velocity": 127,
      "chip": "ym2612"
    },
    {
      "channel": 2,
      "note": 39,
      "start": 32.5306,
      "duration": 0.0303,
      "velocity": 119,
      "chip": "ym2612"
    },
    {
      "channel": 1,
      "note": 64,
      "start": 32.5337,
      "duration": 0.077,
      "velocity": 127,
      "chip": "ym2612"
    },
    {
      "channel": 2,
      "note": 81,
      "start": 32.6302,
      "duration": 0.0307,
      "velocity": 121,
      "chip": "ym2612"
    },
    {
      "channel": 4,
      "note": 64,
      "start": 32.6332,
      "duration": 0.0776,
      "velocity": 127,
      "chip": "ym2612"
    },
    {
      "channel": 2,
      "note": 39,
      "start": 32.7472,
      "duration": 0.0305,
      "velocity": 119,
      "chip": "ym2612"
    },
    {
      "channel": 5,
      "note": 52,
      "start": 32.7498,
      "duration": 0.1444,
      "velocity": 127,
      "chip": "ym2612"
    },
    {
      "channel": 3,
      "note": 45,
      "start": 32.8468,
      "duration": 0.0473,
      "velocity": 107,
      "chip": "ym2612"
    },
    {
      "channel": 2,
      "note": 39,
      "start": 32.8497,
      "duration": 0.0279,
      "velocity": 119,
      "chip": "ym2612"
    },
    {
      "channel": 2,
      "note": 39,
      "start": 32.9471,
      "duration": 0.0305,
      "velocity": 119,
      "chip": "ym2612"
    },
    {
      "channel": 4,
      "note": 64,
      "start": 32.9499,
      "duration": 0.0941,
      "velocity": 127,
      "chip": "ym2612"
    },
    {
      "channel": 2,
      "note": 81,
      "start": 33.0634,
      "duration": 0.0308,
      "velocity": 121,
      "chip": "ym2612"
    },
    {
      "channel": 5,
      "note": 52,
      "start": 33.0663,
      "duration": 0.1446,
      "velocity": 127,
      "chip": "ym2612"
    },
    {
      "channel": 0,
      "note": 64,
      "start": 33.0691,
      "duration": 0.0749,
      "velocity": 127,
      "chip": "ym2612"
    },
    {
      "channel": 2,
      "note": 39,
      "start": 33.1638,
      "duration": 0.0304,
      "velocity": 119,
      "chip": "ym2612"
    },
    {
      "channel": 1,
      "note": 64,
      "start": 33.1669,
      "duration": 0.0772,
      "velocity": 127,
      "chip": "ym2612"
    },
    {
      "channel": 3,
      "note": 45,
      "start": 33.2802,
      "duration": 0.0472,
      "velocity": 107,
      "chip": "ym2612"
    },
    {
      "channel": 2,
      "note": 39,
      "start": 33.2828,
      "duration": 0.0281,
      "velocity": 119,
      "chip": "ym2612"
    },
    {
      "channel": 4,
      "note": 64,
      "start": 33.2855,
      "duration": 0.0753,
      "velocity": 127,
      "chip": "ym2612"
    },
    {
      "channel": 0,
      "note": 64,
      "start": 33.2881,
      "duration": 0.0725,
      "velocity": 127,
      "chip": "ym2612"
    },
    {
      "channel": 2,
      "note": 39,
      "start": 33.3805,
      "duration": 0.0303,
      "velocity": 119,
      "chip": "ym2612"
    },
    {
      "channel": 5,
      "note": 52,
      "start": 33.3832,
      "duration": 0.161,
      "velocity": 127,
      "chip": "ym2612"
    },
    {
      "channel": 1,
      "note": 64,
      "start": 33.3861,
      "duration": 0.0746,
      "velocity": 127,
      "chip": "ym2612"
    },
    {
      "channel": 2,
      "note": 81,
      "start": 33.4801,
      "duration": 0.0309,
      "velocity": 121,
      "chip": "ym2612"
    },
    {
      "channel": 0,
      "note": 76,
      "start": 33.483,
      "duration": 0.0943,
      "velocity": 127,
      "chip": "ym2612"
    },
    {
      "channel": 2,
      "note": 39,
      "start": 33.5972,
      "duration": 0.0305,
      "velocity": 119,
      "chip": "ym2612"
    },
    {
      "channel": 4,
      "note": 64,
      "start": 33.6,
      "duration": 0.0777,
      "velocity": 127,
      "chip": "ym2612"
    },
    {
      "channel": 1,
      "note": 76,
      "start": 33.6027,
      "duration": 0.0748,
      "velocity": 127,
      "chip": "ym2612"
    },
    {
      "channel": 3,
      "note": 45,
      "start": 33.6971,
      "duration": 0.047,
      "velocity": 107,
      "chip": "ym2612"
    },
    {
      "channel": 2,
      "note": 39,
      "start": 33.6996,
      "duration": 0.028,
      "velocity": 119,
      "chip": "ym2612"
    },
    {
      "channel": 5,
      "note": 52,
      "start": 33.7024,
      "duration": 0.1585,
      "velocity": 127,
      "chip": "ym2612"
    },
    {
      "channel": 0,
      "note": 71,
      "start": 33.7051,
      "duration": 0.0723,
      "velocity": 127,
      "chip": "ym2612"
    },
    {
      "channel": 2,
      "note": 39,
      "start": 33.8138,
      "duration": 0.0304,
      "velocity": 119,
      "chip": "ym2612"
    },
    {
      "channel": 1,
      "note": 71,
      "start": 33.8168,
      "duration": 0.0773,
      "velocity": 127,
      "chip": "ym2612"
    },
    {
      "channel": 2,
      "note": 81,
      "start": 33.9138,
      "duration": 0.0305,
      "velocity": 121,
      "chip": "ym2612"
    },
    {
      "channel": 5,
      "note": 50,
      "start": 33.9166,
      "duration": 0.1611,
      "velocity": 127,
      "chip": "ym2612"
    },
    {
      "channel": 4,
      "note": 64,
      "start": 33.9198,
      "duration": 0.0744,
      "velocity": 127,
      "chip": "ym2612"
    },
    {
      "channel": 0,
      "note": 74,
      "start": 33.9226,
      "duration": 0.0714,
      "velocity": 127,
      "chip": "ym2612"
    },
    {
      "channel": 2,
      "note": 39,
      "start": 34.014,
      "duration": 0.0302,
      "velocity": 119,
      "chip": "ym2612"
    },
    {
      "channel": 1,
      "note": 74,
      "start": 34.0176,
      "duration": 0.0931,
      "velocity": 127,
      "chip": "ym2612"
    },
    {
      "channel": 5,
      "note": 49,
      "start": 34.1309,
      "duration": 0.1468,
      "velocity": 127,
      "chip": "ym2612"
    },
    {
      "channel": 4,
      "note": 59,
      "start": 34.1335,
      "duration": 0.0773,
      "velocity": 127,
      "chip": "ym2612"
    },
    {
      "channel": 3,
      "note": 49,
      "start": 34.1388,
      "duration": 0.072,
      "velocity": 115,
      "chip": "ym2612"
    },
    {
      "channel": 0,
      "note": 61,
      "start": 34.231,
      "duration": 0.0798,
      "velocity": 127,
      "chip": "ym2612"
    },
    {
      "channel": 4,
      "note": 61,
      "start": 34.3476,
      "duration": 0.0799,
      "velocity": 127,
      "chip": "ym2612"
    },
    {
      "channel": 2,
      "note": 49,
      "start": 34.351,
      "duration": 0.0766,
      "velocity": 115,
      "chip": "ym2612"
    },
    {
      "channel": 5,
      "note": 49,
      "start": 34.4474,
      "duration": 0.1635,
      "velocity": 127,
      "chip": "ym2612"
    },
    {
      "channel": 3,
      "note": 49,
      "start": 34.5482,
      "duration": 0.0958,
      "velocity": 115,
      "chip": "ym2612"
    },
    {
      "channel": 4,
      "note": 61,
      "start": 34.6641,
      "duration": 0.0802,
      "velocity": 127,
      "chip": "ym2612"
    },
    {
      "channel": 0,
      "note": 61,
      "start": 34.6672,
      "duration": 0.0768,
      "velocity": 127,
      "chip": "ym2612"
    },
    {
      "channel": 2,
      "note": 49,
      "start": 34.6701,
      "duration": 0.0744,
      "velocity": 115,
      "chip": "ym2612"
    },
    {
      "channel": 5,
      "note": 49,
      "start": 34.764,
      "duration": 0.1635,
      "velocity": 127,
      "chip": "ym2612"
    },
    {
      "channel": 3,
      "note": 49,
      "start": 34.8818,
      "duration": 0.079,
      "velocity": 115,
      "chip": "ym2612"
    },
    {
      "channel": 4,
      "note": 61,
      "start": 34.9807,
      "duration": 0.0801,
      "velocity": 127,
      "chip": "ym2612"
    },
    {
      "channel": 0,
      "note": 61,
      "start": 34.9834,
      "duration": 0.0772,
      "velocity": 127,
      "chip": "ym2612"
    },
    {
      "channel": 2,
      "note": 49,
      "start": 34.9868,
      "duration": 0.0742,
      "velocity": 115,
      "chip": "ym2612"
    },
    {
      "channel": 5,
      "note": 49,
      "start": 35.0807,
      "duration": 0.1634,
      "velocity": 127,
      "chip": "ym2612"
    },
    {
      "channel": 2,
      "note": 61,
      "start": 35.1983,
      "duration": 0.0795,
      "velocity": 115,
      "chip": "ym2612"
    },
    {
      "channel": 3,
      "note": 49,
      "start": 35.201,
      "duration": 0.0765,
      "velocity": 115,
      "chip": "ym2612"
    },
    {
      "channel": 4,
      "note": 61,
      "start": 35.2974,
      "duration": 0.0802,
      "velocity": 127,
      "chip": "ym2612"
    },
    {
      "channel": 0,
      "note": 61,
      "start": 35.3002,
      "duration": 0.0772,
      "velocity": 127,
      "chip": "ym2612"
    },
    {
      "channel": 2,
      "note": 49,
      "start": 35.3032,
      "duration": 0.0746,
      "velocity": 115,
      "chip": "ym2612"
    },
    {
      "channel": 5,
      "note": 49,
      "start": 35.4145,
      "duration": 0.1464,
      "velocity": 127,
      "chip": "ym2612"
    },
    {
      "channel": 3,
      "note": 61,
      "start": 35.4179,
      "duration": 0.0761,
      "velocity": 115,
      "chip": "ym2612"
    },
    {
      "channel": 0,
      "note": 73,
      "start": 35.5144,
      "duration": 0.0796,
      "velocity": 127,
      "chip": "ym2612"
    },
    {
      "channel": 3,
      "note": 49,
      "start": 35.5173,
      "duration": 0.0769,
      "velocity": 115,
      "chip": "ym2612"
    },
    {
      "channel": 5,
      "note": 61,
      "start": 35.614,
      "duration": 0.1635,
      "velocity": 127,
      "chip": "ym2612"
    },
    {
      "channel": 4,
      "note": 61,
      "start": 35.6169,
      "duration": 0.0941,
      "velocity": 127,
      "chip": "ym2612"
    },
    {
      "channel": 0,
      "note": 61,
      "start": 35.6196,
      "duration": 0.0911,
      "velocity": 127,
      "chip": "ym2612"
    },
    {
      "channel": 2,
      "note": 49,
      "start": 35.6227,
      "duration": 0.0884,
      "velocity": 115,
      "chip": "ym2612"
    },
    {
      "channel": 5,
      "note": 49,
      "start": 35.831,
      "duration": 0.1632,
      "velocity": 127,
      "chip": "ym2612"
    },
    {
      "channel": 4,
      "note": 73,
      "start": 35.8336,
      "duration": 0.0773,
      "velocity": 127,
      "chip": "ym2612"
    },
    {
      "channel": 3,
      "note": 49,
      "start": 35.8369,
      "duration": 0.0739,
      "velocity": 115,
      "chip": "ym2612"
    },
    {
      "channel": 0,
      "note": 61,
      "start": 35.9476,
      "duration": 0.0798,
      "velocity": 127,
      "chip": "ym2612"
    },
    {
      "channel": 4,
      "note": 61,
      "start": 36.0476,
      "duration": 0.0799,
      "velocity": 127,
      "chip": "ym2612"
    },
    {
      "channel": 2,
      "note": 49,
      "start": 36.051,
      "duration": 0.0767,
      "velocity": 115,
      "chip": "ym2612"
    },
    {
      "channel": 5,
      "note": 49,
      "start": 36.1473,
      "duration": 0.1636,
      "velocity": 127,
      "chip": "ym2612"
    },
    {
      "channel": 3,
      "note": 49,
      "start": 36.2648,
      "duration": 0.0793,
      "velocity": 115,
      "chip": "ym2612"
    },
    {
      "channel": 4,
      "note": 61,
      "start": 36.3641,
      "duration": 0.08,
      "velocity": 127,
      "chip": "ym2612"
    },
    {
      "channel": 0,
      "note": 61,
      "start": 36.3669,
      "duration": 0.0771,
      "velocity": 127,
      "chip": "ym2612"
    },
    {
      "channel": 2,
      "note": 49,
      "start": 36.3698,
      "duration": 0.0746,
      "velocity": 115,
      "chip": "ym2612"
    },
    {
      "channel": 5,
      "note": 49,
      "start": 36.4808,
      "duration": 0.1468,
      "velocity": 127,
      "chip": "ym2612"
    },
    {
      "channel": 3,
      "note": 49,
      "start": 36.5815,
      "duration": 0.0793,
      "velocity": 115,
      "chip": "ym2612"
    },
    {
      "channel": 4,
      "note": 61,
      "start": 36.6807,
      "duration": 0.0969,
      "velocity": 127,
      "chip": "ym2612"
    },
    {
      "channel": 0,
      "note": 61,
      "start": 36.6834,
      "duration": 0.094,
      "velocity": 127,
      "chip": "ym2612"
    },
    {
      "channel": 2,
      "note": 49,
      "start": 36.6864,
      "duration": 0.0914,
      "velocity": 115,
      "chip": "ym2612"
    },
    {
      "channel": 5,
      "note": 49,
      "start": 36.7974,
      "duration": 0.1468,
      "velocity": 127,
      "chip": "ym2612"
    },
    {
      "channel": 2,
      "note": 61,
      "start": 36.8983,
      "duration": 0.0795,
      "velocity": 115,
      "chip": "ym2612"
    },
    {
      "channel": 3,
      "note": 49,
      "start": 36.901,
      "duration": 0.0765,
      "velocity": 115,
      "chip": "ym2612"
    },
    {
      "channel": 4,
      "note": 61,
      "start": 37.014,
      "duration": 0.0801,
      "velocity": 127,
      "chip": "ym2612"
    },
    {
      "channel": 0,
      "note": 61,
      "start": 37.0168,
      "duration": 0.0772,
      "velocity": 127,
      "chip": "ym2612"
    },
    {
      "channel": 2,
      "note": 49,
      "start": 37.0202,
      "duration": 0.0742,
      "velocity": 115,
      "chip": "ym2612"
    },
    {
      "channel": 5,
      "note": 49,
      "start": 37.1141,
      "duration": 0.1634,
      "velocity": 127,
      "chip": "ym2612"
    },
    {
      "channel": 3,
      "note": 61,
      "start": 37.1176,
      "duration": 0.0765,
      "velocity": 115,
      "chip": "ym2612"
    },
    {
      "channel": 0,
      "note": 73,
      "start": 37.2146,
      "duration": 0.096,
      "velocity": 127,
      "chip": "ym2612"
    },
    {
      "channel": 3,
      "note": 49,
      "start": 37.218,
      "duration": 0.0928,
      "velocity": 115,
      "chip": "ym2612"
    },
    {
      "channel": 5,
      "note": 47,
      "start": 37.3307,
      "duration": 0.1469,
      "velocity": 127,
      "chip": "ym2612"
    },
    {
      "channel": 4,
      "note": 61,
      "start": 37.3339,
      "duration": 0.077,
      "velocity": 127,
      "chip": "ym2612"
    },
    {
      "channel": 0,
      "note": 61,
      "start": 37.3367,
      "duration": 0.0741,
      "velocity": 127,
      "chip": "ym2612"
    },
    {
      "channel": 2,
      "note": 49,
      "start": 37.3397,
      "duration": 0.0715,
      "velocity": 115,
      "chip": "ym2612"
    },
    {
      "channel": 5,
      "note": 49,
      "start": 37.5476,
      "duration": 0.1466,
      "velocity": 127,
      "chip": "ym2612"
    },
    {
      "channel": 4,
      "note": 59,
      "start": 37.5502,
      "duration": 0.0773,
      "velocity": 127,
      "chip": "ym2612"
    },
    {
      "channel": 3,
      "note": 49,
      "start": 37.5535,
      "duration": 0.0739,
      "velocity": 115,
      "chip": "ym2612"
    },
    {
      "channel": 0,
      "note": 61,
      "start": 37.6477,
      "duration": 0.0797,
      "velocity": 127,
      "chip": "ym2612"
    },
    {
      "channel": 4,
      "note": 61,
      "start": 37.7476,
      "duration": 0.0966,
      "velocity": 127,
      "chip": "ym2612"
    },
    {
      "channel": 2,
      "note": 49,
      "start": 37.7509,
      "duration": 0.0934,
      "velocity": 115,
      "chip": "ym2612"
    },
    {
      "channel": 5,
      "note": 49,
      "start": 37.864,
      "duration": 0.1469,
      "velocity": 127,
      "chip": "ym2612"
    },
    {
      "channel": 3,
      "note": 49,
      "start": 37.9648,
      "duration": 0.0793,
      "velocity": 115,
      "chip": "ym2612"
    },
    {
      "channel": 4,
      "note": 61,
      "start": 38.0808,
      "duration": 0.08,
      "velocity": 127,
      "chip": "ym2612"
    },
    {
      "channel": 0,
      "note": 61,
      "start": 38.0836,
      "duration": 0.077,
      "velocity": 127,
      "chip": "ym2612"
    },
    {
      "channel": 2,
      "note": 49,
      "start": 38.0865,
      "duration": 0.0746,
      "velocity": 115,
      "chip": "ym2612"
    },
    {
      "channel": 5,
      "note": 49,
      "start": 38.1808,
      "duration": 0.1633,
      "velocity": 127,
      "chip": "ym2612"
    },
    {
      "channel": 3,
      "note": 49,
      "start": 38.2815,
      "duration": 0.096,
      "velocity": 115,
      "chip": "ym2612"
    },
    {
      "channel": 4,
      "note": 61,
      "start": 38.3974,
      "duration": 0.0802,
      "velocity": 127,
      "chip": "ym2612"
    },
    {
      "channel": 0,
      "note": 61,
      "start": 38.4,
      "duration": 0.0774,
      "velocity": 127,
      "chip": "ym2612"
    },
    {
      "channel": 2,
      "note": 49,
      "start": 38.403,
      "duration": 0.0748,
      "velocity": 115,
      "chip": "ym2612"
    },
    {
      "channel": 5,
      "note": 49,
      "start": 38.4974,
      "duration": 0.1635,
      "velocity": 127,
      "chip": "ym2612"
    },
    {
      "channel": 2,
      "note": 61,
      "start": 38.615,
      "duration": 0.0793,
      "velocity": 115,
      "chip": "ym2612"
    },
    {
      "channel": 3,
      "note": 49,
      "start": 38.6177,
      "duration": 0.0764,
      "velocity": 115,
      "chip": "ym2612"
    },
    {
      "channel": 4,
      "note": 61,
      "start": 38.7141,
      "duration": 0.0801,
      "velocity": 127,
      "chip": "ym2612"
    },
    {
      "channel": 0,
      "note": 61,
      "start": 38.7169,
      "duration": 0.0771,
      "velocity": 127,
      "chip": "ym2612"
    },
    {
      "channel": 2,
      "note": 49,
      "start": 38.7199,
      "duration": 0.0745,
      "velocity": 115,
      "chip": "ym2612"
    },
    {
      "channel": 5,
      "note": 49,
      "start": 38.8145,
      "duration": 0.1631,
      "velocity": 127,
      "chip": "ym2612"
    },
    {
      "channel": 3,
      "note": 61,
      "start": 38.8179,
      "duration": 0.0927,
      "velocity": 115,
      "chip": "ym2612"
    },
    {
      "channel": 0,
      "note": 73,
      "start": 38.931,
      "duration": 0.0796,
      "velocity": 127,
      "chip": "ym2612"
    },
    {
      "channel": 3,
      "note": 49,
      "start": 38.934,
      "duration": 0.0768,
      "velocity": 115,
      "chip": "ym2612"
    },
    {
      "channel": 5,
      "note": 61,
      "start": 39.0307,
      "duration": 0.1634,
      "velocity": 127,
      "chip": "ym2612"
    },
    {
      "channel": 4,
      "note": 61,
      "start": 39.0336,
      "duration": 0.0773,
      "velocity": 127,
      "chip": "ym2612"
    },
    {
      "channel": 0,
      "note": 61,
      "start": 39.0363,
      "duration": 0.0743,
      "velocity": 127,
      "chip": "ym2612"
    },
    {
      "channel": 2,
      "note": 49,
      "start": 39.0393,
      "duration": 0.0717,
      "velocity": 115,
      "chip": "ym2612"
    },
    {
      "channel": 5,
      "note": 49,
      "start": 39.2475,
      "duration": 0.1633,
      "velocity": 127,
      "chip": "ym2612"
    },
    {
      "channel": 4,
      "note": 73,
      "start": 39.2501,
      "duration": 0.0776,
      "velocity": 127,
      "chip": "ym2612"
    },
    {
      "channel": 3,
      "note": 49,
      "start": 39.2534,
      "duration": 0.0741,
      "velocity": 115,
      "chip": "ym2612"
    },
    {
      "channel": 0,
      "note": 61,
      "start": 39.3481,
      "duration": 0.096,
      "velocity": 127,
      "chip": "ym2612"
    },
    {
      "channel": 4,
      "note": 61,
      "start": 39.4642,
      "duration": 0.0799,
      "velocity": 127,
      "chip": "ym2612"
    },
    {
      "channel": 2,
      "note": 49,
      "start": 39.4676,
      "duration": 0.0767,
      "velocity": 115,
      "chip": "ym2612"
    },
    {
      "channel": 5,
      "note": 49,
      "start": 39.564,
      "duration": 0.1635,
      "velocity": 127,
      "chip": "ym2612"
    },
    {
      "channel": 3,
      "note": 49,
      "start": 39.6819,
      "duration": 0.0789,
      "velocity": 115,
      "chip": "ym2612"
    },
    {
      "channel": 4,
      "note": 61,
      "start": 39.7807,
      "duration": 0.0801,
      "velocity": 127,
      "chip": "ym2612"
    },
    {
      "channel": 0,
      "note": 61,
      "start": 39.7835,
      "duration": 0.0772,
      "velocity": 127,
      "chip": "ym2612"
    },
    {
      "channel": 2,
      "note": 49,
      "start": 39.7867,
      "duration": 0.0743,
      "velocity": 115,
      "chip": "ym2612"
    },
    {
      "channel": 5,
      "note": 49,
      "start": 39.8808,
      "duration": 0.1634,
      "velocity": 127,
      "chip": "ym2612"
    },
    {
      "channel": 3,
      "note": 49,
      "start": 39.9981,
      "duration": 0.0794,
      "velocity": 115,
      "chip": "ym2612"
    },
    {
      "channel": 4,
      "note": 61,
      "start": 40.0975,
      "duration": 0.0802,
      "velocity": 127,
      "chip": "ym2612"
    },
    {
      "channel": 0,
      "note": 61,
      "start": 40.1,
      "duration": 0.0774,
      "velocity": 127,
      "chip": "ym2612"
    },
    {
      "channel": 2,
      "note": 49,
      "start": 40.1031,
      "duration": 0.0747,
      "velocity": 115,
      "chip": "ym2612"
    },
    {
      "channel": 5,
      "note": 49,
      "start": 40.214,
      "duration": 0.1469,
      "velocity": 127,
      "chip": "ym2612"
    },
    {
      "channel": 2,
      "note": 61,
      "start": 40.315,
      "duration": 0.0793,
      "velocity": 115,
      "chip": "ym2612"
    },
    {
      "channel": 3,
      "note": 49,
      "start": 40.3177,
      "duration": 0.0763,
      "velocity": 115,
      "chip": "ym2612"
    },
    {
      "channel": 4,
      "note": 61,
      "start": 40.4141,
      "duration": 0.0968,
      "velocity": 127,
      "chip": "ym2612"
    },
    {
      "channel": 0,
      "note": 61,
      "start": 40.4169,
      "duration": 0.0938,
      "velocity": 127,
      "chip": "ym2612"
    },
    {
      "channel": 2,
      "note": 49,
      "start": 40.4199,
      "duration": 0.0912,
      "velocity": 115,
      "chip": "ym2612"
    },
    {
      "channel": 5,
      "note": 49,
      "start": 40.531,
      "duration": 0.1466,
      "velocity": 127,
      "chip": "ym2612"
    },
    {
      "channel": 3,
      "note": 61,
      "start": 40.5344,
      "duration": 0.0763,
      "velocity": 115,
      "chip": "ym2612"
    },
    {
      "channel": 0,
      "note": 73,
      "start": 40.631,
      "duration": 0.0796,
      "velocity": 127,
      "chip": "ym2612"
    },
    {
      "channel": 3,
      "note": 49,
      "start": 40.634,
      "duration": 0.0768,
      "velocity": 115,
      "chip": "ym2612"
    },
    {
      "channel": 5,
      "note": 47,
      "start": 40.7474,
      "duration": 0.1468,
      "velocity": 127,
      "chip": "ym2612"
    },
    {
      "channel": 4,
      "note": 61,
      "start": 40.7505,
      "duration": 0.077,
      "velocity": 127,
      "chip": "ym2612"
    },
    {
      "channel": 0,
      "note": 61,
      "start": 40.7533,
      "duration": 0.0741,
      "velocity": 127,
      "chip": "ym2612"
    },
    {
      "channel": 2,
      "note": 49,
      "start": 40.7563,
      "duration": 0.0715,
      "velocity": 115,
      "chip": "ym2612"
    },
    {
      "channel": 1,
      "note": 45,
      "start": 40.9477,
      "duration": 0.063,
      "velocity": 107,
      "chip": "ym2612"
    },
    {
      "channel": 5,
      "note": 47,
      "start": 40.9508,
      "duration": 0.1601,
      "velocity": 127,
      "chip": "ym2612"
    },
    {
      "channel": 4,
      "note": 57,
      "start": 40.9535,
      "duration": 0.0908,
      "velocity": 127,
      "chip": "ym2612"
    },
    {
      "channel": 3,
      "note": 47,
      "start": 40.9568,
      "duration": 0.0873,
      "velocity": 115,
      "chip": "ym2612"
    },
    {
      "channel": 0,
      "note": 59,
      "start": 41.0644,
      "duration": 0.0796,
      "velocity": 127,
      "chip": "ym2612"
    },
    {
      "channel": 2,
      "note": 81,
      "start": 41.1637,
      "duration": 0.0306,
      "velocity": 121,
      "chip": "ym2612"
    },
    {
      "channel": 4,
      "note": 59,
      "start": 41.1666,
      "duration": 0.0775,
      "velocity": 127,
      "chip": "ym2612"
    },
    {
      "channel": 1,
      "note": 47,
      "start": 41.17,
      "duration": 0.0741,
      "velocity": 115,
      "chip": "ym2612"
    },
    {
      "channel": 5,
      "note": 47,
      "start": 41.2807,
      "duration": 0.147,
      "velocity": 127,
      "chip": "ym2612"
    },
    {
      "channel": 3,
      "note": 45,
      "start": 41.3804,
      "duration": 0.0471,
      "velocity": 107,
      "chip": "ym2612"
    },
    {
      "channel": 0,
      "note": 47,
      "start": 41.3843,
      "duration": 0.0763,
      "velocity": 115,
      "chip": "ym2612"
    },
    {
      "channel": 4,
      "note": 59,
      "start": 41.4808,
      "duration": 0.0968,
      "velocity": 127,
      "chip": "ym2612"
    },
    {
      "channel": 2,
      "note": 59,
      "start": 41.4839,
      "duration": 0.0938,
      "velocity": 127,
      "chip": "ym2612"
    },
    {
      "channel": 1,
      "note": 47,
      "start": 41.4866,
      "duration": 0.0908,
      "velocity": 115,
      "chip": "ym2612"
    },
    {
      "channel": 2,
      "note": 81,
      "start": 41.5971,
      "duration": 0.0305,
      "velocity": 121,
      "chip": "ym2612"
    },
    {
      "channel": 5,
      "note": 47,
      "start": 41.5998,
      "duration": 0.1443,
      "velocity": 127,
      "chip": "ym2612"
    },
    {
      "channel": 0,
      "note": 47,
      "start": 41.6979,
      "duration": 0.0795,
      "velocity": 115,
      "chip": "ym2612"
    },
    {
      "channel": 3,
      "note": 45,
      "start": 41.8134,
      "duration": 0.0473,
      "velocity": 107,
      "chip": "ym2612"
    },
    {
      "channel": 4,
      "note": 59,
      "start": 41.8164,
      "duration": 0.0777,
      "velocity": 127,
      "chip": "ym2612"
    },
    {
      "channel": 1,
      "note": 59,
      "start": 41.8193,
      "duration": 0.0747,
      "velocity": 127,
      "chip": "ym2612"
    },
    {
      "channel": 2,
      "note": 47,
      "start": 41.8224,
      "duration": 0.072,
      "velocity": 115,
      "chip": "ym2612"
    },
    {
      "channel": 5,
      "note": 47,
      "start": 41.9141,
      "duration": 0.1635,
      "velocity": 127,
      "chip": "ym2612"
    },
    {
      "channel": 2,
      "note": 81,
      "start": 42.0134,
      "duration": 0.0308,
      "velocity": 121,
      "chip": "ym2612"
    },
    {
      "channel": 0,
      "note": 59,
      "start": 42.0171,
      "duration": 0.0935,
      "velocity": 115,
      "chip": "ym2612"
    },
    {
      "channel": 3,
      "note": 47,
      "start": 42.02,
      "duration": 0.0908,
      "velocity": 115,
      "chip": "ym2612"
    },
    {
      "channel": 4,
      "note": 59,
      "start": 42.1307,
      "duration": 0.0802,
      "velocity": 127,
      "chip": "ym2612"
    },
    {
      "channel": 1,
      "note": 59,
      "start": 42.1339,
      "duration": 0.0769,
      "velocity": 127,
      "chip": "ym2612"
    },
    {
      "channel": 0,
      "note": 47,
      "start": 42.1371,
      "duration": 0.0736,
      "velocity": 115,
      "chip": "ym2612"
    },
    {
      "channel": 2,
      "note": 45,
      "start": 42.2304,
      "duration": 0.0473,
      "velocity": 107,
      "chip": "ym2612"
    },
    {
      "channel": 5,
      "note": 47,
      "start": 42.2339,
      "duration": 0.1604,
      "velocity": 127,
      "chip": "ym2612"
    },
    {
      "channel": 3,
      "note": 59,
      "start": 42.2377,
      "duration": 0.0731,
      "velocity": 115,
      "chip": "ym2612"
    },
    {
      "channel": 1,
      "note": 71,
      "start": 42.3477,
      "duration": 0.0797,
      "velocity": 127,
      "chip": "ym2612"
    },
    {
      "channel": 3,
      "note": 47,
      "start": 42.3507,
      "duration": 0.0769,
      "velocity": 115,
      "chip": "ym2612"
    },
    {
      "channel": 2,
      "note": 81,
      "start": 42.4468,
      "duration": 0.0308,
      "velocity": 121,
      "chip": "ym2612"
    },
    {
      "channel": 5,
      "note": 59,
      "start": 42.4496,
      "duration": 0.1612,
      "velocity": 127,
      "chip": "ym2612"
    },
    {
      "channel": 4,
      "note": 59,
      "start": 42.4524,
      "duration": 0.0753,
      "velocity": 127,
      "chip": "ym2612"
    },
    {
      "channel": 1,
      "note": 59,
      "start": 42.4553,
      "duration": 0.0722,
      "velocity": 127,
      "chip": "ym2612"
    },
    {
      "channel": 0,
      "note": 47,
      "start": 42.458,
      "duration": 0.0694,
      "velocity": 115,
      "chip": "ym2612"
    },
    {
      "channel": 3,
      "note": 45,
      "start": 42.6637,
      "duration": 0.0469,
      "velocity": 107,
      "chip": "ym2612"
    },
    {
      "channel": 5,
      "note": 47,
      "start": 42.6668,
      "duration": 0.1441,
      "velocity": 127,
      "chip": "ym2612"
    },
    {
      "channel": 4,
      "note": 71,
      "start": 42.6694,
      "duration": 0.0747,
      "velocity": 127,
      "chip": "ym2612"
    },
    {
      "channel": 2,
      "note": 47,
      "start": 42.6729,
      "duration": 0.0715,
      "velocity": 115,
      "chip": "ym2612"
    },
    {
      "channel": 1,
      "note": 59,
      "start": 42.7644,
      "duration": 0.0796,
      "velocity": 127,
      "chip": "ym2612"
    },
    {
      "channel": 2,
      "note": 81,
      "start": 42.8801,
      "duration": 0.0307,
      "velocity": 121,
      "chip": "ym2612"
    },
    {
      "channel": 4,
      "note": 59,
      "start": 42.8831,
      "duration": 0.0777,
      "velocity": 127,
      "chip": "ym2612"
    },
    {
      "channel": 0,
      "note": 47,
      "start": 42.8862,
      "duration": 0.0744,
      "velocity": 115,
      "chip": "ym2612"
    },
    {
      "channel": 5,
      "note": 47,
      "start": 42.9807,
      "duration": 0.1635,
      "velocity": 127,
      "chip": "ym2612"
    },
    {
      "channel": 3,
      "note": 45,
      "start": 43.0802,
      "duration": 0.0639,
      "velocity": 107,
      "chip": "ym2612"
    },
    {
      "channel": 1,
      "note": 47,
      "start": 43.0841,
      "duration": 0.0933,
      "velocity": 115,
      "chip": "ym2612"
    },
    {
      "channel": 4,
      "note": 59,
      "start": 43.1974,
      "duration": 0.0803,
      "velocity": 127,
      "chip": "ym2612"
    },
    {
      "channel": 2,
      "note": 59,
      "start": 43.2005,
      "duration": 0.0773,
      "velocity": 127,
      "chip": "ym2612"
    },
    {
      "channel": 0,
      "note": 47,
      "start": 43.2031,
      "duration": 0.0744,
      "velocity": 115,
      "chip": "ym2612"
    },
    {
      "channel": 2,
      "note": 81,
      "start": 43.2967,
      "duration": 0.0309,
      "velocity": 121,
      "chip": "ym2612"
    },
    {
      "channel": 5,
      "note": 47,
      "start": 43.2995,
      "duration": 0.1614,
      "velocity": 127,
      "chip": "ym2612"
    },
    {
      "channel": 1,
      "note": 47,
      "start": 43.4147,
      "duration": 0.0793,
      "velocity": 115,
      "chip": "ym2612"
    },
    {
      "channel": 3,
      "note": 45,
      "start": 43.5134,
      "duration": 0.0473,
      "velocity": 107,
      "chip": "ym2612"
    },
    {
      "channel": 4,
      "note": 59,
      "start": 43.5164,
      "duration": 0.0777,
      "velocity": 127,
      "chip": "ym2612"
    },
    {
      "channel": 0,
      "note": 59,
      "start": 43.5193,
      "duration": 0.0747,
      "velocity": 127,
      "chip": "ym2612"
    },
    {
      "channel": 2,
      "note": 47,
      "start": 43.5224,
      "duration": 0.072,
      "velocity": 115,
      "chip": "ym2612"
    },
    {
      "channel": 5,
      "note": 47,
      "start": 43.614,
      "duration": 0.1637,
      "velocity": 127,
      "chip": "ym2612"
    },
    {
      "channel": 2,
      "note": 81,
      "start": 43.7302,
      "duration": 0.0307,
      "velocity": 121,
      "chip": "ym2612"
    },
    {
      "channel": 1,
      "note": 59,
      "start": 43.7339,
      "duration": 0.0768,
      "velocity": 115,
      "chip": "ym2612"
    },
    {
      "channel": 3,
      "note": 47,
      "start": 43.7367,
      "duration": 0.0742,
      "velocity": 115,
      "chip": "ym2612"
    },
    {
      "channel": 4,
      "note": 59,
      "start": 43.8309,
      "duration": 0.0801,
      "velocity": 127,
      "chip": "ym2612"
    },
    {
      "channel": 0,
      "note": 59,
      "start": 43.8336,
      "duration": 0.0771,
      "velocity": 127,
      "chip": "ym2612"
    },
    {
      "channel": 1,
      "note": 47,
      "start": 43.8364,
      "duration": 0.0744,
      "velocity": 115,
      "chip": "ym2612"
    },
    {
      "channel": 2,
      "note": 45,
      "start": 43.9471,
      "duration": 0.0471,
      "velocity": 107,
      "chip": "ym2612"
    },
    {
      "channel": 5,
      "note": 47,
      "start": 43.9502,
      "duration": 0.144,
      "velocity": 127,
      "chip": "ym2612"
    },
    {
      "channel": 3,
      "note": 59,
      "start": 43.9536,
      "duration": 0.0739,
      "velocity": 115,
      "chip": "ym2612"
    },
    {
      "channel": 0,
      "note": 71,
      "start": 44.0477,
      "duration": 0.0796,
      "velocity": 127,
      "chip": "ym2612"
    },
    {
      "channel": 3,
      "note": 47,
      "start": 44.0507,
      "duration": 0.0768,
      "velocity": 115,
      "chip": "ym2612"
    },
    {
      "channel": 2,
      "note": 81,
      "start": 44.1467,
      "duration": 0.0309,
      "velocity": 121,
      "chip": "ym2612"
    },
    {
      "channel": 5,
      "note": 45,
      "start": 44.1495,
      "duration": 0.1613,
      "velocity": 127,
      "chip": "ym2612"
    },
    {
      "channel": 4,
      "note": 59,
      "start": 44.1528,
      "duration": 0.0915,
      "velocity": 127,
      "chip": "ym2612"
    },
    {
      "channel": 0,
      "note": 59,
      "start": 44.1555,
      "duration": 0.0885,
      "velocity": 127,
      "chip": "ym2612"
    },
    {
      "channel": 1,
      "note": 47,
      "start": 44.1583,
      "duration": 0.0858,
      "velocity": 115,
      "chip": "ym2612"
    },
    {
      "channel": 3,
      "note": 45,
      "start": 44.3637,
      "duration": 0.0471,
      "velocity": 107,
      "chip": "ym2612"
    },
    {
      "channel": 5,
      "note": 47,
      "start": 44.3667,
      "duration": 0.1608,
      "velocity": 127,
      "chip": "ym2612"
    },
    {
      "channel": 4,
      "note": 57,
      "start": 44.3694,
      "duration": 0.0748,
      "velocity": 127,
      "chip": "ym2612"
    },
    {
      "channel": 2,
      "note": 47,
      "start": 44.3729,
      "duration": 0.0715,
      "velocity": 115,
      "chip": "ym2612"
    },
    {
      "channel": 0,
      "note": 59,
      "start": 44.4815,
      "duration": 0.0791,
      "velocity": 127,
      "chip": "ym2612"
    },
    {
      "channel": 2,
      "note": 81,
      "start": 44.5801,
      "duration": 0.0308,
      "velocity": 121,
      "chip": "ym2612"
    },
    {
      "channel": 4,
      "note": 59,
      "start": 44.5832,
      "duration": 0.0777,
      "velocity": 127,
      "chip": "ym2612"
    },
    {
      "channel": 1,
      "note": 47,
      "start": 44.5867,
      "duration": 0.0741,
      "velocity": 115,
      "chip": "ym2612"
    },
    {
      "channel": 5,
      "note": 47,
      "start": 44.6808,
      "duration": 0.1635,
      "velocity": 127,
      "chip": "ym2612"
    },
    {
      "channel": 3,
      "note": 45,
      "start": 44.7968,
      "duration": 0.0473,
      "velocity": 107,
      "chip": "ym2612"
    },
    {
      "channel": 0,
      "note": 47,
      "start": 44.801,
      "duration": 0.0763,
      "velocity": 115,
      "chip": "ym2612"
    },
    {
      "channel": 4,
      "note": 59,
      "start": 44.8974,
      "duration": 0.0802,
      "velocity": 127,
      "chip": "ym2612"
    },
    {
      "channel": 2,
      "note": 59,
      "start": 44.9005,
      "duration": 0.0773,
      "velocity": 127,
      "chip": "ym2612"
    },
    {
      "channel": 1,
      "note": 47,
      "start": 44.9032,
      "duration": 0.0742,
      "velocity": 115,
      "chip": "ym2612"
    },
    {
      "channel": 2,
      "note": 81,
      "start": 45.0134,
      "duration": 0.0308,
      "velocity": 121,
      "chip": "ym2612"
    },
    {
      "channel": 5,
      "note": 47,
      "start": 45.0162,
      "duration": 0.1446,
      "velocity": 127,
      "chip": "ym2612"
    },
    {
      "channel": 0,
      "note": 47,
      "start": 45.1145,
      "duration": 0.0794,
      "velocity": 115,
      "chip": "ym2612"
    },
    {
      "channel": 3,
      "note": 45,
      "start": 45.2135,
      "duration": 0.064,
      "velocity": 107,
      "chip": "ym2612"
    },
    {
      "channel": 4,
      "note": 59,
      "start": 45.2165,
      "duration": 0.0944,
      "velocity": 127,
      "chip": "ym2612"
    },
    {
      "channel": 1,
      "note": 59,
      "start": 45.2194,
      "duration": 0.0913,
      "velocity": 127,
      "chip": "ym2612"
    },
    {
      "channel": 2,
      "note": 47,
      "start": 45.2225,
      "duration": 0.0886,
      "velocity": 115,
      "chip": "ym2612"
    },
    {
      "channel": 5,
      "note": 47,
      "start": 45.3307,
      "duration": 0.1469,
      "velocity": 127,
      "chip": "ym2612"
    },
    {
      "channel": 2,
      "note": 81,
      "start": 45.4302,
      "duration": 0.0307,
      "velocity": 121,
      "chip": "ym2612"
    },
    {
      "channel": 0,
      "note": 59,
      "start": 45.4339,
      "duration": 0.0768,
      "velocity": 115,
      "chip": "ym2612"
    },
    {
      "channel": 3,
      "note": 47,
      "start": 45.4368,
      "duration": 0.074,
      "velocity": 115,
      "chip": "ym2612"
    },
    {
      "channel": 4,
      "note": 59,
      "start": 45.5474,
      "duration": 0.0803,
      "velocity": 127,
      "chip": "ym2612"
    },
    {
      "channel": 1,
      "note": 59,
      "start": 45.5502,
      "duration": 0.0773,
      "velocity": 127,
      "chip": "ym2612"
    },
    {
      "channel": 0,
      "note": 47,
      "start": 45.553,
      "duration": 0.0744,
      "velocity": 115,
      "chip": "ym2612"
    },
    {
      "channel": 2,
      "note": 45,
      "start": 45.6471,
      "duration": 0.0471,
      "velocity": 107,
      "chip": "ym2612"
    },
    {
      "channel": 5,
      "note": 47,
      "start": 45.6505,
      "duration": 0.1604,
      "velocity": 127,
      "chip": "ym2612"
    },
    {
      "channel": 3,
      "note": 59,
      "start": 45.654,
      "duration": 0.0735,
      "velocity": 115,
      "chip": "ym2612"
    },
    {
      "channel": 1,
      "note": 71,
      "start": 45.7477,
      "duration": 0.0963,
      "velocity": 127,
      "chip": "ym2612"
    },
    {
      "channel": 3,
      "note": 47,
      "start": 45.7507,
      "duration": 0.0935,
      "velocity": 115,
      "chip": "ym2612"
    },
    {
      "channel": 2,
      "note": 81,
      "start": 45.8634,
      "duration": 0.0308,
      "velocity": 121,
      "chip": "ym2612"
    },
    {
      "channel": 5,
      "note": 59,
      "start": 45.8663,
      "duration": 0.1445,
      "velocity": 127,
      "chip": "ym2612"
    },
    {
      "channel": 4,
      "note": 59,
      "start": 45.869,
      "duration": 0.0753,
      "velocity": 127,
      "chip": "ym2612"
    },
    {
      "channel": 1,
      "note": 59,
      "start": 45.8719,
      "duration": 0.0723,
      "velocity": 127,
      "chip": "ym2612"
    },
    {
      "channel": 0,
      "note": 47,
      "start": 45.8746,
      "duration": 0.0693,
      "velocity": 115,
      "chip": "ym2612"
    },
    {
      "channel": 3,
      "note": 45,
      "start": 46.0804,
      "duration": 0.0472,
      "velocity": 107,
      "chip": "ym2612"
    },
    {
      "channel": 5,
      "note": 47,
      "start": 46.0834,
      "duration": 0.1441,
      "velocity": 127,
      "chip": "ym2612"
    },
    {
      "channel": 4,
      "note": 71,
      "start": 46.0861,
      "duration": 0.0747,
      "velocity": 127,
      "chip": "ym2612"
    },
    {
      "channel": 2,
      "note": 47,
      "start": 46.0896,
      "duration": 0.0715,
      "velocity": 115,
      "chip": "ym2612"
    },
    {
      "channel": 1,
      "note": 59,
      "start": 46.1811,
      "duration": 0.0796,
      "velocity": 127,
      "chip": "ym2612"
    },
    {
      "channel": 2,
      "note": 81,
      "start": 46.2801,
      "duration": 0.0307,
      "velocity": 121,
      "chip": "ym2612"
    },
    {
      "channel": 4,
      "note": 59,
      "start": 46.2831,
      "duration": 0.0945,
      "velocity": 127,
      "chip": "ym2612"
    },
    {
      "channel": 0,
      "note": 47,
      "start": 46.2862,
      "duration": 0.0912,
      "velocity": 115,
      "chip": "ym2612"
    },
    {
      "channel": 5,
      "note": 47,
      "start": 46.3974,
      "duration": 0.1469,
      "velocity": 127,
      "chip": "ym2612"
    },
    {
      "channel": 3,
      "note": 45,
      "start": 46.4968,
      "duration": 0.0473,
      "velocity": 107,
      "chip": "ym2612"
    },
    {
      "channel": 1,
      "note": 47,
      "start": 46.5007,
      "duration": 0.0768,
      "velocity": 115,
      "chip": "ym2612"
    },
    {
      "channel": 4,
      "note": 59,
      "start": 46.614,
      "duration": 0.0801,
      "velocity": 127,
      "chip": "ym2612"
    },
    {
      "channel": 2,
      "note": 59,
      "start": 46.6171,
      "duration": 0.0772,
      "velocity": 127,
      "chip": "ym2612"
    },
    {
      "channel": 0,
      "note": 47,
      "start": 46.6198,
      "duration": 0.0742,
      "velocity": 115,
      "chip": "ym2612"
    },
    {
      "channel": 2,
      "note": 81,
      "start": 46.7134,
      "duration": 0.0307,
      "velocity": 121,
      "chip": "ym2612"
    },
    {
      "channel": 5,
      "note": 47,
      "start": 46.7163,
      "duration": 0.1613,
      "velocity": 127,
      "chip": "ym2612"
    },
    {
      "channel": 1,
      "note": 47,
      "start": 46.8147,
      "duration": 0.096,
      "velocity": 115,
      "chip": "ym2612"
    },
    {
      "channel": 3,
      "note": 45,
      "start": 46.9302,
      "duration": 0.0473,
      "velocity": 107,
      "chip": "ym2612"
    },
    {
      "channel": 4,
      "note": 59,
      "start": 46.9332,
      "duration": 0.0777,
      "velocity": 127,
      "chip": "ym2612"
    },
    {
      "channel": 0,
      "note": 59,
      "start": 46.936,
      "duration": 0.0746,
      "velocity": 127,
      "chip": "ym2612"
    },
    {
      "channel": 2,
      "note": 47,
      "start": 46.9392,
      "duration": 0.0719,
      "velocity": 115,
      "chip": "ym2612"
    },
    {
      "channel": 5,
      "note": 47,
      "start": 47.0308,
      "duration": 0.1633,
      "velocity": 127,
      "chip": "ym2612"
    },
    {
      "channel": 2,
      "note": 81,
      "start": 47.1467,
      "duration": 0.0309,
      "velocity": 121,
      "chip": "ym2612"
    },
    {
      "channel": 1,
      "note": 59,
      "start": 47.1507,
      "duration": 0.0767,
      "velocity": 115,
      "chip": "ym2612"
    },
    {
      "channel": 3,
      "note": 47,
      "start": 47.1537,
      "duration": 0.0739,
      "velocity": 115,
      "chip": "ym2612"
    },
    {
      "channel": 4,
      "note": 59,
      "start": 47.2475,
      "duration": 0.0802,
      "velocity": 127,
      "chip": "ym2612"
    },
    {
      "channel": 0,
      "note": 59,
      "start": 47.2506,
      "duration": 0.0768,
      "velocity": 127,
      "chip": "ym2612"
    },
    {
      "channel": 1,
      "note": 47,
      "start": 47.2534,
      "duration": 0.0741,
      "velocity": 115,
      "chip": "ym2612"
    },
    {
      "channel": 2,
      "note": 45,
      "start": 47.3471,
      "duration": 0.0637,
      "velocity": 107,
      "chip": "ym2612"
    },
    {
      "channel": 5,
      "note": 47,
      "start": 47.3502,
      "duration": 0.1607,
      "velocity": 127,
      "chip": "ym2612"
    },
    {
      "channel": 3,
      "note": 59,
      "start": 47.354,
      "duration": 0.09,
      "velocity": 115,
      "chip": "ym2612"
    },
    {
      "channel": 0,
      "note": 71,
      "start": 47.4643,
      "duration": 0.0797,
      "velocity": 127,
      "chip": "ym2612"
    },
    {
      "channel": 3,
      "note": 47,
      "start": 47.4674,
      "duration": 0.0767,
      "velocity": 115,
      "chip": "ym2612"
    },
    {
      "channel": 2,
      "note": 81,
      "start": 47.5634,
      "duration": 0.0308,
      "velocity": 121,
      "chip": "ym2612"
    },
    {
      "channel": 5,
      "note": 45,
      "start": 47.5662,
      "duration": 0.1615,
      "velocity": 127,
      "chip": "ym2612"
    },
    {
      "channel": 4,
      "note": 59,
      "start": 47.5694,
      "duration": 0.0748,
      "velocity": 127,
      "chip": "ym2612"
    },
    {
      "channel": 0,
      "note": 59,
      "start": 47.5723,
      "duration": 0.0716,
      "velocity": 127,
      "chip": "ym2612"
    },
    {
      "channel": 1,
      "note": 47,
      "start": 47.5752,
      "duration": 0.0689,
      "velocity": 115,
      "chip": "ym2612"
    },
    {
      "channel": 3,
      "note": 45,
      "start": 47.7807,
      "duration": 0.0468,
      "velocity": 107,
      "chip": "ym2612"
    },
    {
      "channel": 2,
      "note": 39,
      "start": 47.7837,
      "duration": 0.0271,
      "velocity": 119,
      "chip": "ym2612"
    },
    {
      "channel": 5,
      "note": 54,
      "start": 47.7866,
      "duration": 0.1576,
      "velocity": 127,
      "chip": "ym2612"
    },
    {
      "channel": 4,
      "note": 64,
      "start": 47.7893,
      "duration": 0.0716,
      "velocity": 127,
      "chip": "ym2612"
    },
    {
      "channel": 2,
      "note": 39,
      "start": 47.8804,
      "duration": 0.0304,
      "velocity": 119,
      "chip": "ym2612"
    },
    {
      "channel": 2,
      "note": 81,
      "start": 47.9967,
      "duration": 0.031,
      "velocity": 121,
      "chip": "ym2612"
    },
    {
      "channel": 4,
      "note": 66,
      "start": 47.9997,
      "duration": 0.078,
      "velocity": 127,
      "chip": "ym2612"
    },
    {
      "channel": 0,
      "note": 66,
      "start": 48.0025,
      "duration": 0.0749,
      "velocity": 78,
      "chip": "ym2612"
    },
    {
      "channel": 1,
      "note": 54,
      "start": 48.0056,
      "duration": 0.0719,
      "velocity": 115,
      "chip": "ym2612"
    },
    {
      "channel": 2,
      "note": 39,
      "start": 48.0972,
      "duration": 0.0305,
      "velocity": 119,
      "chip": "ym2612"
    },
    {
      "channel": 5,
      "note": 54,
      "start": 48.0998,
      "duration": 0.1611,
      "velocity": 127,
      "chip": "ym2612"
    },
    {
      "channel": 3,
      "note": 64,
      "start": 48.1029,
      "duration": 0.0746,
      "velocity": 78,
      "chip": "ym2612"
    },
    {
      "channel": 0,
      "note": 45,
      "start": 48.2136,
      "duration": 0.0471,
      "velocity": 107,
      "chip": "ym2612"
    },
    {
      "channel": 2,
      "note": 39,
      "start": 48.2161,
      "duration": 0.028,
      "velocity": 119,
      "chip": "ym2612"
    },
    {
      "channel": 2,
      "note": 39,
      "start": 48.3138,
      "duration": 0.0303,
      "velocity": 119,
      "chip": "ym2612"
    },
    {
      "channel": 4,
      "note": 66,
      "start": 48.3166,
      "duration": 0.0777,
      "velocity": 127,
      "chip": "ym2612"
    },
    {
      "channel": 1,
      "note": 66,
      "start": 48.3193,
      "duration": 0.0748,
      "velocity": 78,
      "chip": "ym2612"
    },
    {
      "channel": 3,
      "note": 66,
      "start": 48.3219,
      "duration": 0.0722,
      "velocity": 78,
      "chip": "ym2612"
    },
    {
      "channel": 0,
      "note": 54,
      "start": 48.3249,
      "duration": 0.0691,
      "velocity": 115,
      "chip": "ym2612"
    },
    {
      "channel": 2,
      "note": 81,
      "start": 48.4137,
      "duration": 0.0305,
      "velocity": 121,
      "chip": "ym2612"
    },
    {
      "channel": 5,
      "note": 54,
      "start": 48.4166,
      "duration": 0.1609,
      "velocity": 127,
      "chip": "ym2612"
    },
    {
      "channel": 2,
      "note": 39,
      "start": 48.5306,
      "duration": 0.0303,
      "velocity": 119,
      "chip": "ym2612"
    },
    {
      "channel": 0,
      "note": 45,
      "start": 48.6304,
      "duration": 0.047,
      "velocity": 107,
      "chip": "ym2612"
    },
    {
      "channel": 2,
      "note": 39,
      "start": 48.6329,
      "duration": 0.028,
      "velocity": 119,
      "chip": "ym2612"
    },
    {
      "channel": 4,
      "note": 66,
      "start": 48.6356,
      "duration": 0.0754,
      "velocity": 127,
      "chip": "ym2612"
    },
    {
      "channel": 1,
      "note": 66,
      "start": 48.6381,
      "duration": 0.0727,
      "velocity": 78,
      "chip": "ym2612"
    },
    {
      "channel": 3,
      "note": 66,
      "start": 48.6405,
      "duration": 0.0703,
      "velocity": 78,
      "chip": "ym2612"
    },
    {
      "channel": 5,
      "note": 54,
      "start": 48.6437,
      "duration": 0.0675,
      "velocity": 115,
      "chip": "ym2612"
    },
    {
      "channel": 2,
      "note": 39,
      "start": 48.7471,
      "duration": 0.0305,
      "velocity": 119,
      "chip": "ym2612"
    },
    {
      "channel": 0,
      "note": 54,
      "start": 48.7499,
      "duration": 0.1441,
      "velocity": 127,
      "chip": "ym2612"
    },
    {
      "channel": 2,
      "note": 81,
      "start": 48.8467,
      "duration": 0.031,
      "velocity": 121,
      "chip": "ym2612"
    },
    {
      "channel": 5,
      "note": 66,
      "start": 48.8503,
      "duration": 0.0773,
      "velocity": 115,
      "chip": "ym2612"
    },
    {
      "channel": 2,
      "note": 39,
      "start": 48.9472,
      "duration": 0.0305,
      "velocity": 119,
      "chip": "ym2612"
    },
    {
      "channel": 4,
      "note": 66,
      "start": 48.9499,
      "duration": 0.0944,
      "velocity": 127,
      "chip": "ym2612"
    },
    {
      "channel": 1,
      "note": 66,
      "start": 48.9523,
      "duration": 0.0917,
      "velocity": 78,
      "chip": "ym2612"
    },
    {
      "channel": 3,
      "note": 66,
      "start": 48.9548,
      "duration": 0.0894,
      "velocity": 78,
      "chip": "ym2612"
    },
    {
      "channel": 5,
      "note": 54,
      "start": 48.9579,
      "duration": 0.0866,
      "velocity": 115,
      "chip": "ym2612"
    },
    {
      "channel": 0,
      "note": 45,
      "start": 49.0637,
      "duration": 0.0469,
      "velocity": 107,
      "chip": "ym2612"
    },
    {
      "channel": 2,
      "note": 39,
      "start": 49.0666,
      "duration": 0.0277,
      "velocity": 119,
      "chip": "ym2612"
    },
    {
      "channel": 1,
      "note": 54,
      "start": 49.0699,
      "duration": 0.1408,
      "velocity": 127,
      "chip": "ym2612"
    },
    {
      "channel": 2,
      "note": 39,
      "start": 49.1638,
      "duration": 0.0303,
      "velocity": 119,
      "chip": "ym2612"
    },
    {
      "channel": 2,
      "note": 81,
      "start": 49.2801,
      "duration": 0.0308,
      "velocity": 121,
      "chip": "ym2612"
    },
    {
      "channel": 1,
      "note": 66,
      "start": 49.2827,
      "duration": 0.1447,
      "velocity": 127,
      "chip": "ym2612"
    },
    {
      "channel": 4,
      "note": 66,
      "start": 49.2856,
      "duration": 0.0754,
      "velocity": 127,
      "chip": "ym2612"
    },
    {
      "channel": 3,
      "note": 66,
      "start": 49.2884,
      "duration": 0.0724,
      "velocity": 78,
      "chip": "ym2612"
    },
    {
      "channel": 5,
      "note": 66,
      "start": 49.291,
      "duration": 0.0701,
      "velocity": 78,
      "chip": "ym2612"
    },
    {
      "channel": 0,
      "note": 54,
      "start": 49.2941,
      "duration": 0.0665,
      "velocity": 115,
      "chip": "ym2612"
    },
    {
      "channel": 2,
      "note": 39,
      "start": 49.3806,
      "duration": 0.0303,
      "velocity": 119,
      "chip": "ym2612"
    },
    {
      "channel": 0,
      "note": 45,
      "start": 49.4804,
      "duration": 0.0636,
      "velocity": 107,
      "chip": "ym2612"
    },
    {
      "channel": 2,
      "note": 39,
      "start": 49.4829,
      "duration": 0.028,
      "velocity": 119,
      "chip": "ym2612"
    },
    {
      "channel": 1,
      "note": 54,
      "start": 49.4856,
      "duration": 0.1584,
      "velocity": 127,
      "chip": "ym2612"
    },
    {
      "channel": 4,
      "note": 78,
      "start": 49.4882,
      "duration": 0.0894,
      "velocity": 127,
      "chip": "ym2612"
    },
    {
      "channel": 3,
      "note": 78,
      "start": 49.4907,
      "duration": 0.0868,
      "velocity": 78,
      "chip": "ym2612"
    },
    {
      "channel": 2,
      "note": 39,
      "start": 49.5972,
      "duration": 0.0305,
      "velocity": 119,
      "chip": "ym2612"
    },
    {
      "channel": 5,
      "note": 66,
      "start": 49.6002,
      "duration": 0.0773,
      "velocity": 78,
      "chip": "ym2612"
    },
    {
      "channel": 2,
      "note": 81,
      "start": 49.6967,
      "duration": 0.031,
      "velocity": 121,
      "chip": "ym2612"
    },
    {
      "channel": 4,
      "note": 66,
      "start": 49.6998,
      "duration": 0.078,
      "velocity": 127,
      "chip": "ym2612"
    },
    {
      "channel": 3,
      "note": 66,
      "start": 49.7024,
      "duration": 0.0752,
      "velocity": 78,
      "chip": "ym2612"
    },
    {
      "channel": 0,
      "note": 54,
      "start": 49.706,
      "duration": 0.0715,
      "velocity": 115,
      "chip": "ym2612"
    },
    {
      "channel": 2,
      "note": 39,
      "start": 49.8138,
      "duration": 0.0303,
      "velocity": 119,
      "chip": "ym2612"
    },
    {
      "channel": 1,
      "note": 54,
      "start": 49.8164,
      "duration": 0.1444,
      "velocity": 127,
      "chip": "ym2612"
    },
    {
      "channel": 5,
      "note": 78,
      "start": 49.8192,
      "duration": 0.0751,
      "velocity": 78,
      "chip": "ym2612"
    },
    {
      "channel": 0,
      "note": 45,
      "start": 49.9137,
      "duration": 0.0469,
      "velocity": 107,
      "chip": "ym2612"
    },
    {
      "channel": 2,
      "note": 39,
      "start": 49.9162,
      "duration": 0.028,
      "velocity": 119,
      "chip": "ym2612"
    },
    {
      "channel": 2,
      "note": 39,
      "start": 50.0137,
      "duration": 0.0305,
      "velocity": 119,
      "chip": "ym2612"
    },
    {
      "channel": 4,
      "note": 66,
      "start": 50.0165,
      "duration": 0.0945,
      "velocity": 127,
      "chip": "ym2612"
    },
    {
      "channel": 3,
      "note": 66,
      "start": 50.019,
      "duration": 0.0919,
      "velocity": 78,
      "chip": "ym2612"
    },
    {
      "channel": 5,
      "note": 66,
      "start": 50.0217,
      "duration": 0.0894,
      "velocity": 78,
      "chip": "ym2612"
    },
    {
      "channel": 0,
      "note": 54,
      "start": 50.0246,
      "duration": 0.0861,
      "velocity": 115,
      "chip": "ym2612"
    },
    {
      "channel": 2,
      "note": 81,
      "start": 50.1301,
      "duration": 0.0308,
      "velocity": 121,
      "chip": "ym2612"
    },
    {
      "channel": 1,
      "note": 54,
      "start": 50.1327,
      "duration": 0.1447,
      "velocity": 127,
      "chip": "ym2612"
    },
    {
      "channel": 2,
      "note": 39,
      "start": 50.2305,
      "duration": 0.0303,
      "velocity": 119,
      "chip": "ym2612"
    },
    {
      "channel": 0,
      "note": 45,
      "start": 50.347,
      "duration": 0.0469,
      "velocity": 107,
      "chip": "ym2612"
    },
    {
      "channel": 2,
      "note": 39,
      "start": 50.3495,
      "duration": 0.0281,
      "velocity": 119,
      "chip": "ym2612"
    },
    {
      "channel": 4,
      "note": 66,
      "start": 50.3523,
      "duration": 0.0755,
      "velocity": 127,
      "chip": "ym2612"
    },
    {
      "channel": 3,
      "note": 66,
      "start": 50.3551,
      "duration": 0.0725,
      "velocity": 78,
      "chip": "ym2612"
    },
    {
      "channel": 5,
      "note": 66,
      "start": 50.358,
      "duration": 0.0698,
      "velocity": 78,
      "chip": "ym2612"
    },
    {
      "channel": 1,
      "note": 54,
      "start": 50.3612,
      "duration": 0.0663,
      "velocity": 115,
      "chip": "ym2612"
    },
    {
      "channel": 2,
      "note": 39,
      "start": 50.4477,
      "duration": 0.0299,
      "velocity": 119,
      "chip": "ym2612"
    },
    {
      "channel": 0,
      "note": 54,
      "start": 50.4505,
      "duration": 0.1602,
      "velocity": 127,
      "chip": "ym2612"
    },
    {
      "channel": 2,
      "note": 81,
      "start": 50.5467,
      "duration": 0.0309,
      "velocity": 121,
      "chip": "ym2612"
    },
    {
      "channel": 1,
      "note": 66,
      "start": 50.5502,
      "duration": 0.0938,
      "velocity": 115,
      "chip": "ym2612"
    },
    {
      "channel": 2,
      "note": 39,
      "start": 50.6638,
      "duration": 0.0303,
      "velocity": 119,
      "chip": "ym2612"
    },
    {
      "channel": 4,
      "note": 66,
      "start": 50.6666,
      "duration": 0.0777,
      "velocity": 127,
      "chip": "ym2612"
    },
    {
      "channel": 3,
      "note": 66,
      "start": 50.6691,
      "duration": 0.075,
      "velocity": 78,
      "chip": "ym2612"
    },
    {
      "channel": 5,
      "note": 66,
      "start": 50.6717,
      "duration": 0.0727,
      "velocity": 78,
      "chip": "ym2612"
    },
    {
      "channel": 1,
      "note": 54,
      "start": 50.6746,
      "duration": 0.0694,
      "velocity": 115,
      "chip": "ym2612"
    },
    {
      "channel": 0,
      "note": 45,
      "start": 50.7637,
      "duration": 0.047,
      "velocity": 107,
      "chip": "ym2612"
    },
    {
      "channel": 2,
      "note": 39,
      "start": 50.7662,
      "duration": 0.028,
      "velocity": 119,
      "chip": "ym2612"
    },
    {
      "channel": 1,
      "note": 54,
      "start": 50.7691,
      "duration": 0.1583,
      "velocity": 127,
      "chip": "ym2612"
    },
    {
      "channel": 2,
      "note": 39,
      "start": 50.8806,
      "duration": 0.0303,
      "velocity": 119,
      "chip": "ym2612"
    },
    {
      "channel": 2,
      "note": 81,
      "start": 50.9801,
      "duration": 0.0308,
      "velocity": 121,
      "chip": "ym2612"
    },
    {
      "channel": 1,
      "note": 52,
      "start": 50.9828,
      "duration": 0.1613,
      "velocity": 127,
      "chip": "ym2612"
    },
    {
      "channel": 4,
      "note": 66,
      "start": 50.986,
      "duration": 0.075,
      "velocity": 127,
      "chip": "ym2612"
    },
    {
      "channel": 3,
      "note": 66,
      "start": 50.9886,
      "duration": 0.0722,
      "velocity": 78,
      "chip": "ym2612"
    },
    {
      "channel": 5,
      "note": 66,
      "start": 50.9912,
      "duration": 0.0699,
      "velocity": 78,
      "chip": "ym2612"
    },
    {
      "channel": 0,
      "note": 54,
      "start": 50.9943,
      "duration": 0.0663,
      "velocity": 115,
      "chip": "ym2612"
    },
    {
      "channel": 2,
      "note": 39,
      "start": 51.0806,
      "duration": 0.0304,
      "velocity": 119,
      "chip": "ym2612"
    },
    {
      "channel": 0,
      "note": 45,
      "start": 51.197,
      "duration": 0.0469,
      "velocity": 107,
      "chip": "ym2612"
    },
    {
      "channel": 2,
      "note": 39,
      "start": 51.1995,
      "duration": 0.0281,
      "velocity": 119,
      "chip": "ym2612"
    },
    {
      "channel": 1,
      "note": 54,
      "start": 51.2022,
      "duration": 0.1419,
      "velocity": 127,
      "chip": "ym2612"
    },
    {
      "channel": 4,
      "note": 64,
      "start": 51.2048,
      "duration": 0.0728,
      "velocity": 127,
      "chip": "ym2612"
    },
    {
      "channel": 3,
      "note": 64,
      "start": 51.2073,
      "duration": 0.0702,
      "velocity": 78,
      "chip": "ym2612"
    },
    {
      "channel": 2,
      "note": 39,
      "start": 51.2971,
      "duration": 0.0305,
      "velocity": 119,
      "chip": "ym2612"
    },
    {
      "channel": 5,
      "note": 66,
      "start": 51.3002,
      "duration": 0.0773,
      "velocity": 78,
      "chip": "ym2612"
    },
    {
      "channel": 2,
      "note": 81,
      "start": 51.4134,
      "duration": 0.0307,
      "velocity": 121,
      "chip": "ym2612"
    },
    {
      "channel": 4,
      "note": 66,
      "start": 51.4164,
      "duration": 0.0779,
      "velocity": 127,
      "chip": "ym2612"
    },
    {
      "channel": 3,
      "note": 66,
      "start": 51.4191,
      "duration": 0.0751,
      "velocity": 78,
      "chip": "ym2612"
    },
    {
      "channel": 0,
      "note": 54,
      "start": 51.4224,
      "duration": 0.0716,
      "velocity": 115,
      "chip": "ym2612"
    },
    {
      "channel": 2,
      "note": 39,
      "start": 51.5138,
      "duration": 0.0305,
      "velocity": 119,
      "chip": "ym2612"
    },
    {
      "channel": 1,
      "note": 54,
      "start": 51.5163,
      "duration": 0.1612,
      "velocity": 127,
      "chip": "ym2612"
    },
    {
      "channel": 5,
      "note": 64,
      "start": 51.5191,
      "duration": 0.0751,
      "velocity": 78,
      "chip": "ym2612"
    },
    {
      "channel": 0,
      "note": 45,
      "start": 51.6137,
      "duration": 0.0637,
      "velocity": 107,
      "chip": "ym2612"
    },
    {
      "channel": 2,
      "note": 39,
      "start": 51.6163,
      "duration": 0.0279,
      "velocity": 119,
      "chip": "ym2612"
    },
    {
      "channel": 2,
      "note": 39,
      "start": 51.7308,
      "duration": 0.0301,
      "velocity": 119,
      "chip": "ym2612"
    },
    {
      "channel": 4,
      "note": 66,
      "start": 51.7336,
      "duration": 0.0773,
      "velocity": 127,
      "chip": "ym2612"
    },
    {
      "channel": 3,
      "note": 66,
      "start": 51.7361,
      "duration": 0.0747,
      "velocity": 78,
      "chip": "ym2612"
    },
    {
      "channel": 5,
      "note": 66,
      "start": 51.7388,
      "duration": 0.0723,
      "velocity": 78,
      "chip": "ym2612"
    },
    {
      "channel": 0,
      "note": 54,
      "start": 51.7418,
      "duration": 0.0689,
      "velocity": 115,
      "chip": "ym2612"
    },
    {
      "channel": 2,
      "note": 81,
      "start": 51.8302,
      "duration": 0.0307,
      "velocity": 121,
      "chip": "ym2612"
    },
    {
      "channel": 1,
      "note": 54,
      "start": 51.8328,
      "duration": 0.1612,
      "velocity": 127,
      "chip": "ym2612"
    },
    {
      "channel": 2,
      "note": 39,
      "start": 51.9471,
      "duration": 0.0306,
      "velocity": 119,
      "chip": "ym2612"
    },
    {
      "channel": 0,
      "note": 45,
      "start": 52.0471,
      "duration": 0.0469,
      "velocity": 107,
      "chip": "ym2612"
    },
    {
      "channel": 2,
      "note": 39,
      "start": 52.0496,
      "duration": 0.028,
      "velocity": 119,
      "chip": "ym2612"
    },
    {
      "channel": 4,
      "note": 66,
      "start": 52.0523,
      "duration": 0.0755,
      "velocity": 127,
      "chip": "ym2612"
    },
    {
      "channel": 3,
      "note": 66,
      "start": 52.0548,
      "duration": 0.0728,
      "velocity": 78,
      "chip": "ym2612"
    },
    {
      "channel": 5,
      "note": 66,
      "start": 52.0573,
      "duration": 0.0705,
      "velocity": 78,
      "chip": "ym2612"
    },
    {
      "channel": 1,
      "note": 54,
      "start": 52.0605,
      "duration": 0.067,
      "velocity": 115,
      "chip": "ym2612"
    },
    {
      "channel": 2,
      "note": 39,
      "start": 52.1472,
      "duration": 0.0305,
      "velocity": 119,
      "chip": "ym2612"
    },
    {
      "channel": 0,
      "note": 54,
      "start": 52.1499,
      "duration": 0.1607,
      "velocity": 127,
      "chip": "ym2612"
    },
    {
      "channel": 2,
      "note": 81,
      "start": 52.2634,
      "duration": 0.0307,
      "velocity": 121,
      "chip": "ym2612"
    },
    {
      "channel": 1,
      "note": 66,
      "start": 52.2673,
      "duration": 0.0767,
      "velocity": 115,
      "chip": "ym2612"
    },
    {
      "channel": 2,
      "note": 39,
      "start": 52.3638,
      "duration": 0.0303,
      "velocity": 119,
      "chip": "ym2612"
    },
    {
      "channel": 4,
      "note": 66,
      "start": 52.3666,
      "duration": 0.0777,
      "velocity": 127,
      "chip": "ym2612"
    },
    {
      "channel": 3,
      "note": 66,
      "start": 52.3691,
      "duration": 0.075,
      "velocity": 78,
      "chip": "ym2612"
    },
    {
      "channel": 5,
      "note": 66,
      "start": 52.3717,
      "duration": 0.0727,
      "velocity": 78,
      "chip": "ym2612"
    },
    {
      "channel": 1,
      "note": 54,
      "start": 52.3746,
      "duration": 0.0694,
      "velocity": 115,
      "chip": "ym2612"
    },
    {
      "channel": 0,
      "note": 45,
      "start": 52.4804,
      "duration": 0.0471,
      "velocity": 107,
      "chip": "ym2612"
    },
    {
      "channel": 2,
      "note": 39,
      "start": 52.4829,
      "duration": 0.028,
      "velocity": 119,
      "chip": "ym2612"
    },
    {
      "channel": 1,
      "note": 54,
      "start": 52.4862,
      "duration": 0.1413,
      "velocity": 127,
      "chip": "ym2612"
    },
    {
      "channel": 2,
      "note": 39,
      "start": 52.5805,
      "duration": 0.0303,
      "velocity": 119,
      "chip": "ym2612"
    },
    {
      "channel": 2,
      "note": 81,
      "start": 52.6801,
      "duration": 0.0308,
      "velocity": 121,
      "chip": "ym2612"
    },
    {
      "channel": 1,
      "note": 66,
      "start": 52.6827,
      "duration": 0.1613,
      "velocity": 127,
      "chip": "ym2612"
    },
    {
      "channel": 4,
      "note": 66,
      "start": 52.6855,
      "duration": 0.0922,
      "velocity": 127,
      "chip": "ym2612"
    },
    {
      "channel": 3,
      "note": 66,
      "start": 52.6881,
      "duration": 0.0894,
      "velocity": 78,
      "chip": "ym2612"
    },
    {
      "channel": 5,
      "note": 66,
      "start": 52.6907,
      "duration": 0.0871,
      "velocity": 78,
      "chip": "ym2612"
    },
    {
      "channel": 0,
      "note": 54,
      "start": 52.6939,
      "duration": 0.0835,
      "velocity": 115,
      "chip": "ym2612"
    },
    {
      "channel": 2,
      "note": 39,
      "start": 52.7971,
      "duration": 0.0306,
      "velocity": 119,
      "chip": "ym2612"
    },
    {
      "channel": 0,
      "note": 45,
      "start": 52.8971,
      "duration": 0.0469,
      "velocity": 107,
      "chip": "ym2612"
    },
    {
      "channel": 2,
      "note": 39,
      "start": 52.8995,
      "duration": 0.0281,
      "velocity": 119,
      "chip": "ym2612"
    },
    {
      "channel": 1,
      "note": 54,
      "start": 52.9023,
      "duration": 0.1585,
      "velocity": 127,
      "chip": "ym2612"
    },
    {
      "channel": 4,
      "note": 78,
      "start": 52.9049,
      "duration": 0.0728,
      "velocity": 127,
      "chip": "ym2612"
    },
    {
      "channel": 3,
      "note": 78,
      "start": 52.9073,
      "duration": 0.0702,
      "velocity": 78,
      "chip": "ym2612"
    },
    {
      "channel": 2,
      "note": 39,
      "start": 53.0138,
      "duration": 0.0304,
      "velocity": 119,
      "chip": "ym2612"
    },
    {
      "channel": 5,
      "note": 66,
      "start": 53.0168,
      "duration": 0.0773,
      "velocity": 78,
      "chip": "ym2612"
    },
    {
      "channel": 2,
      "note": 81,
      "start": 53.1134,
      "duration": 0.0307,
      "velocity": 121,
      "chip": "ym2612"
    },
    {
      "channel": 4,
      "note": 66,
      "start": 53.1165,
      "duration": 0.0778,
      "velocity": 127,
      "chip": "ym2612"
    },
    {
      "channel": 3,
      "note": 66,
      "start": 53.1191,
      "duration": 0.0751,
      "velocity": 78,
      "chip": "ym2612"
    },
    {
      "channel": 0,
      "note": 54,
      "start": 53.1224,
      "duration": 0.0716,
      "velocity": 115,
      "chip": "ym2612"
    },
    {
      "channel": 2,
      "note": 39,
      "start": 53.2141,
      "duration": 0.0301,
      "velocity": 119,
      "chip": "ym2612"
    },
    {
      "channel": 1,
      "note": 54,
      "start": 53.2167,
      "duration": 0.1608,
      "velocity": 127,
      "chip": "ym2612"
    },
    {
      "channel": 5,
      "note": 78,
      "start": 53.2195,
      "duration": 0.0913,
      "velocity": 78,
      "chip": "ym2612"
    },
    {
      "channel": 0,
      "note": 45,
      "start": 53.3304,
      "duration": 0.047,
      "velocity": 107,
      "chip": "ym2612"
    },
    {
      "channel": 2,
      "note": 39,
      "start": 53.3329,
      "duration": 0.028,
      "velocity": 119,
      "chip": "ym2612"
    },
    {
      "channel": 2,
      "note": 39,
      "start": 53.4304,
      "duration": 0.0305,
      "velocity": 119,
      "chip": "ym2612"
    },
    {
      "channel": 4,
      "note": 66,
      "start": 53.4332,
      "duration": 0.0778,
      "velocity": 127,
      "chip": "ym2612"
    },
    {
      "channel": 3,
      "note": 66,
      "start": 53.4357,
      "duration": 0.0752,
      "velocity": 78,
      "chip": "ym2612"
    },
    {
      "channel": 5,
      "note": 66,
      "start": 53.4385,
      "duration": 0.0727,
      "velocity": 78,
      "chip": "ym2612"
    },
    {
      "channel": 0,
      "note": 54,
      "start": 53.4414,
      "duration": 0.0693,
      "velocity": 115,
      "chip": "ym2612"
    },
    {
      "channel": 2,
      "note": 81,
      "start": 53.5467,
      "duration": 0.0309,
      "velocity": 121,
      "chip": "ym2612"
    },
    {
      "channel": 1,
      "note": 54,
      "start": 53.5494,
      "duration": 0.1447,
      "velocity": 127,
      "chip": "ym2612"
    },
    {
      "channel": 2,
      "note": 39,
      "start": 53.6471,
      "duration": 0.0305,
      "velocity": 119,
      "chip": "ym2612"
    },
    {
      "channel": 0,
      "note": 45,
      "start": 53.7469,
      "duration": 0.0638,
      "velocity": 107,
      "chip": "ym2612"
    },
    {
      "channel": 2,
      "note": 39,
      "start": 53.7495,
      "duration": 0.0283,
      "velocity": 119,
      "chip": "ym2612"
    },
    {
      "channel": 4,
      "note": 66,
      "start": 53.7522,
      "duration": 0.0921,
      "velocity": 127,
      "chip": "ym2612"
    },
    {
      "channel": 3,
      "note": 66,
      "start": 53.7551,
      "duration": 0.0891,
      "velocity": 78,
      "chip": "ym2612"
    },
    {
      "channel": 5,
      "note": 66,
      "start": 53.758,
      "duration": 0.0865,
      "velocity": 78,
      "chip": "ym2612"
    },
    {
      "channel": 1,
      "note": 54,
      "start": 53.7611,
      "duration": 0.0829,
      "velocity": 115,
      "chip": "ym2612"
    },
    {
      "channel": 2,
      "note": 39,
      "start": 53.8638,
      "duration": 0.0304,
      "velocity": 119,
      "chip": "ym2612"
    },
    {
      "channel": 0,
      "note": 54,
      "start": 53.8666,
      "duration": 0.1441,
      "velocity": 127,
      "chip": "ym2612"
    },
    {
      "channel": 2,
      "note": 81,
      "start": 53.9634,
      "duration": 0.0307,
      "velocity": 121,
      "chip": "ym2612"
    },
    {
      "channel": 1,
      "note": 66,
      "start": 53.9668,
      "duration": 0.0772,
      "velocity": 115,
      "chip": "ym2612"
    },
    {
      "channel": 2,
      "note": 39,
      "start": 54.0806,
      "duration": 0.0303,
      "velocity": 119,
      "chip": "ym2612"
    },
    {
      "channel": 4,
      "note": 66,
      "start": 54.0833,
      "duration": 0.0776,
      "velocity": 127,
      "chip": "ym2612"
    },
    {
      "channel": 3,
      "note": 66,
      "start": 54.0859,
      "duration": 0.0749,
      "velocity": 78,
      "chip": "ym2612"
    },
    {
      "channel": 5,
      "note": 66,
      "start": 54.0884,
      "duration": 0.0727,
      "velocity": 78,
      "chip": "ym2612"
    },
    {
      "channel": 1,
      "note": 54,
      "start": 54.0913,
      "duration": 0.0693,
      "velocity": 115,
      "chip": "ym2612"
    },
    {
      "channel": 0,
      "note": 45,
      "start": 54.181,
      "duration": 0.0464,
      "velocity": 107,
      "chip": "ym2612"
    },
    {
      "channel": 2,
      "note": 39,
      "start": 54.1836,
      "duration": 0.0273,
      "velocity": 119,
      "chip": "ym2612"
    },
    {
      "channel": 1,
      "note": 54,
      "start": 54.1865,
      "duration": 0.1574,
      "velocity": 127,
      "chip": "ym2612"
    },
    {
      "channel": 2,
      "note": 39,
      "start": 54.2805,
      "duration": 0.0303,
      "velocity": 119,
      "chip": "ym2612"
    },
    {
      "channel": 2,
      "note": 81,
      "start": 54.3967,
      "duration": 0.031,
      "velocity": 121,
      "chip": "ym2612"
    },
    {
      "channel": 1,
      "note": 52,
      "start": 54.3994,
      "duration": 0.1446,
      "velocity": 127,
      "chip": "ym2612"
    },
    {
      "channel": 4,
      "note": 66,
      "start": 54.4026,
      "duration": 0.0752,
      "velocity": 127,
      "chip": "ym2612"
    },
    {
      "channel": 3,
      "note": 66,
      "start": 54.4052,
      "duration": 0.0724,
      "velocity": 78,
      "chip": "ym2612"
    },
    {
      "channel": 5,
      "note": 66,
      "start": 54.4079,
      "duration": 0.07,
      "velocity": 78,
      "chip": "ym2612"
    },
    {
      "channel": 0,
      "note": 54,
      "start": 54.4115,
      "duration": 0.0659,
      "velocity": 115,
      "chip": "ym2612"
    },
    {
      "channel": 2,
      "note": 39,
      "start": 54.4975,
      "duration": 0.0302,
      "velocity": 119,
      "chip": "ym2612"
    },
    {
      "channel": 2,
      "note": 39,
      "start": 54.6137,
      "duration": 0.0307,
      "velocity": 119,
      "chip": "ym2612"
    },
    {
      "channel": 1,
      "note": 56,
      "start": 54.6163,
      "duration": 0.1445,
      "velocity": 127,
      "chip": "ym2612"
    },
    {
      "channel": 4,
      "note": 66,
      "start": 54.619,
      "duration": 0.0753,
      "velocity": 127,
      "chip": "ym2612"
    },
    {
      "channel": 0,
      "note": 68,
      "start": 54.6225,
      "duration": 0.0715,
      "velocity": 115,
      "chip": "ym2612"
    },
    {
      "channel": 2,
      "note": 39,
      "start": 54.7138,
      "duration": 0.0303,
      "velocity": 119,
      "chip": "ym2612"
    },
    {
      "channel": 2,
      "note": 81,
      "start": 54.8134,
      "duration": 0.0308,
      "velocity": 121,
      "chip": "ym2612"
    },
    {
      "channel": 4,
      "note": 68,
      "start": 54.8164,
      "duration": 0.0946,
      "velocity": 127,
      "chip": "ym2612"
    },
    {
      "channel": 3,
      "note": 68,
      "start": 54.819,
      "duration": 0.0917,
      "velocity": 78,
      "chip": "ym2612"
    },
    {
      "channel": 2,
      "note": 39,
      "start": 54.9306,
      "duration": 0.0303,
      "velocity": 119,
      "chip": "ym2612"
    },
    {
      "channel": 1,
      "note": 56,
      "start": 54.9331,
      "duration": 0.1444,
      "velocity": 127,
      "chip": "ym2612"
    },
    {
      "channel": 5,
      "note": 66,
      "start": 54.9361,
      "duration": 0.0747,
      "velocity": 78,
      "chip": "ym2612"
    },
    {
      "channel": 2,
      "note": 39,
      "start": 55.0304,
      "duration": 0.0306,
      "velocity": 119,
      "chip": "ym2612"
    },
    {
      "channel": 0,
      "note": 68,
      "start": 55.0338,
      "duration": 0.0768,
      "velocity": 115,
      "chip": "ym2612"
    },
    {
      "channel": 2,
      "note": 39,
      "start": 55.1471,
      "duration": 0.0306,
      "velocity": 119,
      "chip": "ym2612"
    },
    {
      "channel": 4,
      "note": 68,
      "start": 55.1499,
      "duration": 0.0777,
      "velocity": 127,
      "chip": "ym2612"
    },
    {
      "channel": 3,
      "note": 68,
      "start": 55.1524,
      "duration": 0.0751,
      "velocity": 78,
      "chip": "ym2612"
    },
    {
      "channel": 5,
      "note": 68,
      "start": 55.1551,
      "duration": 0.0727,
      "velocity": 78,
      "chip": "ym2612"
    },
    {
      "channel": 2,
      "note": 81,
      "start": 55.2472,
      "duration": 0.0305,
      "velocity": 121,
      "chip": "ym2612"
    },
    {
      "channel": 1,
      "note": 56,
      "start": 55.2498,
      "duration": 0.161,
      "velocity": 127,
      "chip": "ym2612"
    },
    {
      "channel": 2,
      "note": 39,
      "start": 55.3471,
      "duration": 0.0305,
      "velocity": 119,
      "chip": "ym2612"
    },
    {
      "channel": 0,
      "note": 68,
      "start": 55.3504,
      "duration": 0.0936,
      "velocity": 115,
      "chip": "ym2612"
    },
    {
      "channel": 2,
      "note": 39,
      "start": 55.4637,
      "duration": 0.0305,
      "velocity": 119,
      "chip": "ym2612"
    },
    {
      "channel": 4,
      "note": 68,
      "start": 55.4664,
      "duration": 0.0777,
      "velocity": 127,
      "chip": "ym2612"
    },
    {
      "channel": 3,
      "note": 68,
      "start": 55.4689,
      "duration": 0.0751,
      "velocity": 78,
      "chip": "ym2612"
    },
    {
      "channel": 5,
      "note": 68,
      "start": 55.4715,
      "duration": 0.0728,
      "velocity": 78,
      "chip": "ym2612"
    },
    {
      "channel": 2,
      "note": 39,
      "start": 55.5638,
      "duration": 0.0303,
      "velocity": 119,
      "chip": "ym2612"
    },
    {
      "channel": 1,
      "note": 56,
      "start": 55.5664,
      "duration": 0.1611,
      "velocity": 127,
      "chip": "ym2612"
    },
    {
      "channel": 2,
      "note": 81,
      "start": 55.6802,
      "duration": 0.0308,
      "velocity": 121,
      "chip": "ym2612"
    },
    {
      "channel": 0,
      "note": 68,
      "start": 55.6837,
      "duration": 0.0769,
      "velocity": 115,
      "chip": "ym2612"
    },
    {
      "channel": 2,
      "note": 39,
      "start": 55.7805,
      "duration": 0.0305,
      "velocity": 119,
      "chip": "ym2612"
    },
    {
      "channel": 4,
      "note": 68,
      "start": 55.7833,
      "duration": 0.0776,
      "velocity": 127,
      "chip": "ym2612"
    },
    {
      "channel": 3,
      "note": 68,
      "start": 55.7858,
      "duration": 0.075,
      "velocity": 78,
      "chip": "ym2612"
    },
    {
      "channel": 5,
      "note": 68,
      "start": 55.7884,
      "duration": 0.0727,
      "velocity": 78,
      "chip": "ym2612"
    },
    {
      "channel": 2,
      "note": 39,
      "start": 55.8807,
      "duration": 0.0302,
      "velocity": 119,
      "chip": "ym2612"
    },
    {
      "channel": 1,
      "note": 56,
      "start": 55.8838,
      "duration": 0.1602,
      "velocity": 127,
      "chip": "ym2612"
    },
    {
      "channel": 0,
      "note": 80,
      "start": 55.8871,
      "duration": 0.0903,
      "velocity": 115,
      "chip": "ym2612"
    },
    {
      "channel": 2,
      "note": 39,
      "start": 55.9971,
      "duration": 0.0305,
      "velocity": 119,
      "chip": "ym2612"
    },
    {
      "channel": 0,
      "note": 68,
      "start": 56.0005,
      "duration": 0.0768,
      "velocity": 115,
      "chip": "ym2612"
    },
    {
      "channel": 2,
      "note": 81,
      "start": 56.0968,
      "duration": 0.0309,
      "velocity": 121,
      "chip": "ym2612"
    },
    {
      "channel": 1,
      "note": 68,
      "start": 56.0995,
      "duration": 0.1613,
      "velocity": 127,
      "chip": "ym2612"
    },
    {
      "channel": 4,
      "note": 68,
      "start": 56.1023,
      "duration": 0.0754,
      "velocity": 127,
      "chip": "ym2612"
    },
    {
      "channel": 3,
      "note": 68,
      "start": 56.1049,
      "duration": 0.0726,
      "velocity": 78,
      "chip": "ym2612"
    },
    {
      "channel": 5,
      "note": 68,
      "start": 56.1075,
      "duration": 0.0703,
      "velocity": 78,
      "chip": "ym2612"
    },
    {
      "channel": 2,
      "note": 39,
      "start": 56.2138,
      "duration": 0.0303,
      "velocity": 119,
      "chip": "ym2612"
    },
    {
      "channel": 2,
      "note": 39,
      "start": 56.3136,
      "duration": 0.0307,
      "velocity": 119,
      "chip": "ym2612"
    },
    {
      "channel": 1,
      "note": 56,
      "start": 56.3163,
      "duration": 0.1611,
      "velocity": 127,
      "chip": "ym2612"
    },
    {
      "channel": 4,
      "note": 80,
      "start": 56.3189,
      "duration": 0.0754,
      "velocity": 127,
      "chip": "ym2612"
    },
    {
      "channel": 3,
      "note": 80,
      "start": 56.3214,
      "duration": 0.0728,
      "velocity": 78,
      "chip": "ym2612"
    },
    {
      "channel": 0,
      "note": 68,
      "start": 56.3249,
      "duration": 0.0691,
      "velocity": 115,
      "chip": "ym2612"
    },
    {
      "channel": 2,
      "note": 39,
      "start": 56.4138,
      "duration": 0.0304,
      "velocity": 119,
      "chip": "ym2612"
    },
    {
      "channel": 5,
      "note": 68,
      "start": 56.4169,
      "duration": 0.094,
      "velocity": 78,
      "chip": "ym2612"
    },
    {
      "channel": 2,
      "note": 81,
      "start": 56.5301,
      "duration": 0.0308,
      "velocity": 121,
      "chip": "ym2612"
    },
    {
      "channel": 4,
      "note": 68,
      "start": 56.5332,
      "duration": 0.0777,
      "velocity": 127,
      "chip": "ym2612"
    },
    {
      "channel": 3,
      "note": 68,
      "start": 56.5358,
      "duration": 0.0749,
      "velocity": 78,
      "chip": "ym2612"
    },
    {
      "channel": 2,
      "note": 39,
      "start": 56.6305,
      "duration": 0.0305,
      "velocity": 119,
      "chip": "ym2612"
    },
    {
      "channel": 1,
      "note": 56,
      "start": 56.633,
      "duration": 0.161,
      "velocity": 127,
      "chip": "ym2612"
    },
    {
      "channel": 5,
      "note": 80,
      "start": 56.6359,
      "duration": 0.075,
      "velocity": 78,
      "chip": "ym2612"
    },
    {
      "channel": 2,
      "note": 39,
      "start": 56.7469,
      "duration": 0.0307,
      "velocity": 119,
      "chip": "ym2612"
    },
    {
      "channel": 0,
      "note": 68,
      "start": 56.7503,
      "duration": 0.077,
      "velocity": 115,
      "chip": "ym2612"
    },
    {
      "channel": 2,
      "note": 39,
      "start": 56.8472,
      "duration": 0.0304,
      "velocity": 119,
      "chip": "ym2612"
    },
    {
      "channel": 4,
      "note": 68,
      "start": 56.85,
      "duration": 0.0776,
      "velocity": 127,
      "chip": "ym2612"
    },
    {
      "channel": 3,
      "note": 68,
      "start": 56.8524,
      "duration": 0.075,
      "velocity": 78,
      "chip": "ym2612"
    },
    {
      "channel": 5,
      "note": 68,
      "start": 56.8552,
      "duration": 0.0725,
      "velocity": 78,
      "chip": "ym2612"
    },
    {
      "channel": 2,
      "note": 81,
      "start": 56.9467,
      "duration": 0.0309,
      "velocity": 121,
      "chip": "ym2612"
    },
    {
      "channel": 1,
      "note": 56,
      "start": 56.9494,
      "duration": 0.1613,
      "velocity": 127,
      "chip": "ym2612"
    },
    {
      "channel": 2,
      "note": 39,
      "start": 57.0638,
      "duration": 0.0305,
      "velocity": 119,
      "chip": "ym2612"
    },
    {
      "channel": 0,
      "note": 68,
      "start": 57.067,
      "duration": 0.077,
      "velocity": 115,
      "chip": "ym2612"
    },
    {
      "channel": 2,
      "note": 39,
      "start": 57.1637,
      "duration": 0.0305,
      "velocity": 119,
      "chip": "ym2612"
    },
    {
      "channel": 4,
      "note": 68,
      "start": 57.1664,
      "duration": 0.0777,
      "velocity": 127,
      "chip": "ym2612"
    },
    {
      "channel": 3,
      "note": 68,
      "start": 57.1689,
      "duration": 0.0751,
      "velocity": 78,
      "chip": "ym2612"
    },
    {
      "channel": 5,
      "note": 68,
      "start": 57.1719,
      "duration": 0.0723,
      "velocity": 78,
      "chip": "ym2612"
    },
    {
      "channel": 2,
      "note": 39,
      "start": 57.2809,
      "duration": 0.03,
      "velocity": 119,
      "chip": "ym2612"
    },
    {
      "channel": 1,
      "note": 56,
      "start": 57.2835,
      "duration": 0.144,
      "velocity": 127,
      "chip": "ym2612"
    },
    {
      "channel": 2,
      "note": 81,
      "start": 57.3801,
      "duration": 0.0308,
      "velocity": 121,
      "chip": "ym2612"
    },
    {
      "channel": 0,
      "note": 68,
      "start": 57.3836,
      "duration": 0.0771,
      "velocity": 115,
      "chip": "ym2612"
    },
    {
      "channel": 2,
      "note": 39,
      "start": 57.4804,
      "duration": 0.0305,
      "velocity": 119,
      "chip": "ym2612"
    },
    {
      "channel": 4,
      "note": 68,
      "start": 57.4832,
      "duration": 0.0943,
      "velocity": 127,
      "chip": "ym2612"
    },
    {
      "channel": 3,
      "note": 68,
      "start": 57.4861,
      "duration": 0.0913,
      "velocity": 78,
      "chip": "ym2612"
    },
    {
      "channel": 5,
      "note": 68,
      "start": 57.4886,
      "duration": 0.0891,
      "velocity": 78,
      "chip": "ym2612"
    },
    {
      "channel": 2,
      "note": 39,
      "start": 57.5969,
      "duration": 0.0307,
      "velocity": 119,
      "chip": "ym2612"
    },
    {
      "channel": 1,
      "note": 56,
      "start": 57.5996,
      "duration": 0.1444,
      "velocity": 127,
      "chip": "ym2612"
    },
    {
      "channel": 0,
      "note": 80,
      "start": 57.6029,
      "duration": 0.0745,
      "velocity": 115,
      "chip": "ym2612"
    },
    {
      "channel": 2,
      "note": 39,
      "start": 57.6971,
      "duration": 0.0305,
      "velocity": 119,
      "chip": "ym2612"
    },
    {
      "channel": 0,
      "note": 68,
      "start": 57.7005,
      "duration": 0.0768,
      "velocity": 115,
      "chip": "ym2612"
    },
    {
      "channel": 2,
      "note": 81,
      "start": 57.8134,
      "duration": 0.0309,
      "velocity": 121,
      "chip": "ym2612"
    },
    {
      "channel": 1,
      "note": 54,
      "start": 57.8161,
      "duration": 0.1446,
      "velocity": 127,
      "chip": "ym2612"
    },
    {
      "channel": 4,
      "note": 68,
      "start": 57.8193,
      "duration": 0.0749,
      "velocity": 127,
      "chip": "ym2612"
    },
    {
      "channel": 3,
      "note": 68,
      "start": 57.8219,
      "duration": 0.0722,
      "velocity": 78,
      "chip": "ym2612"
    },
    {
      "channel": 5,
      "note": 68,
      "start": 57.8245,
      "duration": 0.0698,
      "velocity": 78,
      "chip": "ym2612"
    },
    {
      "channel": 2,
      "note": 39,
      "start": 57.9138,
      "duration": 0.0303,
      "velocity": 119,
      "chip": "ym2612"
    },
    {
      "channel": 2,
      "note": 39,
      "start": 58.0136,
      "duration": 0.0306,
      "velocity": 119,
      "chip": "ym2612"
    },
    {
      "channel": 1,
      "note": 56,
      "start": 58.0163,
      "duration": 0.1611,
      "velocity": 127,
      "chip": "ym2612"
    },
    {
      "channel": 4,
      "note": 66,
      "start": 58.019,
      "duration": 0.0919,
      "velocity": 127,
      "chip": "ym2612"
    },
    {
      "channel": 3,
      "note": 66,
      "start": 58.0215,
      "duration": 0.0893,
      "velocity": 78,
      "chip": "ym2612"
    },
    {
      "channel": 0,
      "note": 68,
      "start": 58.0246,
      "duration": 0.086,
      "velocity": 115,
      "chip": "ym2612"
    },
    {
      "channel": 2,
      "note": 39,
      "start": 58.1306,
      "duration": 0.0303,
      "velocity": 119,
      "chip": "ym2612"
    },
    {
      "channel": 5,
      "note": 68,
      "start": 58.1336,
      "duration": 0.0772,
      "velocity": 78,
      "chip": "ym2612"
    },
    {
      "channel": 2,
      "note": 81,
      "start": 58.2301,
      "duration": 0.0308,
      "velocity": 121,
      "chip": "ym2612"
    },
    {
      "channel": 4,
      "note": 68,
      "start": 58.2332,
      "duration": 0.0777,
      "velocity": 127,
      "chip": "ym2612"
    },
    {
      "channel": 3,
      "note": 68,
      "start": 58.2358,
      "duration": 0.0749,
      "velocity": 78,
      "chip": "ym2612"
    },
    {
      "channel": 2,
      "note": 39,
      "start": 58.3472,
      "duration": 0.0304,
      "velocity": 119,
      "chip": "ym2612"
    },
    {
      "channel": 1,
      "note": 56,
      "start": 58.3497,
      "duration": 0.1443,
      "velocity": 127,
      "chip": "ym2612"
    },
    {
      "channel": 5,
      "note": 66,
      "start": 58.3525,
      "duration": 0.0751,
      "velocity": 78,
      "chip": "ym2612"
    },
    {
      "channel": 2,
      "note": 39,
      "start": 58.447,
      "duration": 0.0306,
      "velocity": 119,
      "chip": "ym2612"
    },
    {
      "channel": 0,
      "note": 68,
      "start": 58.4504,
      "duration": 0.077,
      "velocity": 115,
      "chip": "ym2612"
    },
    {
      "channel": 2,
      "note": 39,
      "start": 58.5476,
      "duration": 0.0302,
      "velocity": 119,
      "chip": "ym2612"
    },
    {
      "channel": 4,
      "note": 68,
      "start": 58.5504,
      "duration": 0.0938,
      "velocity": 127,
      "chip": "ym2612"
    },
    {
      "channel": 3,
      "note": 68,
      "start": 58.5528,
      "duration": 0.0912,
      "velocity": 78,
      "chip": "ym2612"
    },
    {
      "channel": 5,
      "note": 68,
      "start": 58.5556,
      "duration": 0.0887,
      "velocity": 78,
      "chip": "ym2612"
    },
    {
      "channel": 2,
      "note": 81,
      "start": 58.6634,
      "duration": 0.0307,
      "velocity": 121,
      "chip": "ym2612"
    },
    {
      "channel": 1,
      "note": 56,
      "start": 58.6661,
      "duration": 0.1447,
      "velocity": 127,
      "chip": "ym2612"
    },
    {
      "channel": 2,
      "note": 39,
      "start": 58.7637,
      "duration": 0.0304,
      "velocity": 119,
      "chip": "ym2612"
    },
    {
      "channel": 0,
      "note": 68,
      "start": 58.767,
      "duration": 0.077,
      "velocity": 115,
      "chip": "ym2612"
    },
    {
      "channel": 2,
      "note": 39,
      "start": 58.8804,
      "duration": 0.0305,
      "velocity": 119,
      "chip": "ym2612"
    },
    {
      "channel": 4,
      "note": 68,
      "start": 58.8832,
      "duration": 0.0778,
      "velocity": 127,
      "chip": "ym2612"
    },
    {
      "channel": 3,
      "note": 68,
      "start": 58.8856,
      "duration": 0.0751,
      "velocity": 78,
      "chip": "ym2612"
    },
    {
      "channel": 5,
      "note": 68,
      "start": 58.8883,
      "duration": 0.0729,
      "velocity": 78,
      "chip": "ym2612"
    },
    {
      "channel": 2,
      "note": 39,
      "start": 58.9806,
      "duration": 0.0303,
      "velocity": 119,
      "chip": "ym2612"
    },
    {
      "channel": 1,
      "note": 56,
      "start": 58.9831,
      "duration": 0.161,
      "velocity": 127,
      "chip": "ym2612"
    },
    {
      "channel": 2,
      "note": 81,
      "start": 59.0802,
      "duration": 0.0307,
      "velocity": 121,
      "chip": "ym2612"
    },
    {
      "channel": 0,
      "note": 68,
      "start": 59.0841,
      "duration": 0.0934,
      "velocity": 115,
      "chip": "ym2612"
    },
    {
      "channel": 2,
      "note": 39,
      "start": 59.1971,
      "duration": 0.0306,
      "velocity": 119,
      "chip": "ym2612"
    },
    {
      "channel": 4,
      "note": 68,
      "start": 59.1999,
      "duration": 0.0777,
      "velocity": 127,
      "chip": "ym2612"
    },
    {
      "channel": 3,
      "note": 68,
      "start": 59.2024,
      "duration": 0.0751,
      "velocity": 78,
      "chip": "ym2612"
    },
    {
      "channel": 5,
      "note": 68,
      "start": 59.205,
      "duration": 0.0728,
      "velocity": 78,
      "chip": "ym2612"
    },
    {
      "channel": 2,
      "note": 39,
      "start": 59.297,
      "duration": 0.0306,
      "velocity": 119,
      "chip": "ym2612"
    },
    {
      "channel": 1,
      "note": 56,
      "start": 59.3001,
      "duration": 0.1606,
      "velocity": 127,
      "chip": "ym2612"
    },
    {
      "channel": 0,
      "note": 80,
      "start": 59.3034,
      "duration": 0.0741,
      "velocity": 115,
      "chip": "ym2612"
    },
    {
      "channel": 2,
      "note": 39,
      "start": 59.4138,
      "duration": 0.0303,
      "velocity": 119,
      "chip": "ym2612"
    },
    {
      "channel": 0,
      "note": 68,
      "start": 59.4172,
      "duration": 0.0767,
      "velocity": 115,
      "chip": "ym2612"
    },
    {
      "channel": 2,
      "note": 81,
      "start": 59.5134,
      "duration": 0.0307,
      "velocity": 121,
      "chip": "ym2612"
    },
    {
      "channel": 1,
      "note": 68,
      "start": 59.5161,
      "duration": 0.1614,
      "velocity": 127,
      "chip": "ym2612"
    },
    {
      "channel": 4,
      "note": 68,
      "start": 59.5189,
      "duration": 0.0752,
      "velocity": 127,
      "chip": "ym2612"
    },
    {
      "channel": 3,
      "note": 68,
      "start": 59.5216,
      "duration": 0.0725,
      "velocity": 78,
      "chip": "ym2612"
    },
    {
      "channel": 5,
      "note": 68,
      "start": 59.5241,
      "duration": 0.0702,
      "velocity": 78,
      "chip": "ym2612"
    },
    {
      "channel": 2,
      "note": 39,
      "start": 59.6138,
      "duration": 0.0303,
      "velocity": 119,
      "chip": "ym2612"
    },
    {
      "channel": 2,
      "note": 39,
      "start": 59.7303,
      "duration": 0.0305,
      "velocity": 119,
      "chip": "ym2612"
    },
    {
      "channel": 1,
      "note": 56,
      "start": 59.733,
      "duration": 0.1444,
      "velocity": 127,
      "chip": "ym2612"
    },
    {
      "channel": 4,
      "note": 80,
      "start": 59.7357,
      "duration": 0.0752,
      "velocity": 127,
      "chip": "ym2612"
    },
    {
      "channel": 3,
      "note": 80,
      "start": 59.7382,
      "duration": 0.0726,
      "velocity": 78,
      "chip": "ym2612"
    },
    {
      "channel": 0,
      "note": 68,
      "start": 59.7412,
      "duration": 0.0693,
      "velocity": 115,
      "chip": "ym2612"
    },
    {
      "channel": 2,
      "note": 39,
      "start": 59.8306,
      "duration": 0.0303,
      "velocity": 119,
      "chip": "ym2612"
    },
    {
      "channel": 5,
      "note": 68,
      "start": 59.8336,
      "duration": 0.0772,
      "velocity": 78,
      "chip": "ym2612"
    },
    {
      "channel": 2,
      "note": 81,
      "start": 59.9467,
      "duration": 0.0308,
      "velocity": 121,
      "chip": "ym2612"
    },
    {
      "channel": 4,
      "note": 68,
      "start": 59.9498,
      "duration": 0.0779,
      "velocity": 127,
      "chip": "ym2612"
    },
    {
      "channel": 3,
      "note": 68,
      "start": 59.9524,
      "duration": 0.0751,
      "velocity": 78,
      "chip": "ym2612"
    },
    {
      "channel": 2,
      "note": 39,
      "start": 60.0475,
      "duration": 0.0302,
      "velocity": 119,
      "chip": "ym2612"
    },
    {
      "channel": 1,
      "note": 56,
      "start": 60.05,
      "duration": 0.1608,
      "velocity": 127,
      "chip": "ym2612"
    },
    {
      "channel": 5,
      "note": 80,
      "start": 60.0528,
      "duration": 0.0748,
      "velocity": 78,
      "chip": "ym2612"
    },
    {
      "channel": 2,
      "note": 39,
      "start": 60.147,
      "duration": 0.0306,
      "velocity": 119,
      "chip": "ym2612"
    },
    {
      "channel": 0,
      "note": 68,
      "start": 60.1504,
      "duration": 0.0936,
      "velocity": 115,
      "chip": "ym2612"
    },
    {
      "channel": 2,
      "note": 39,
      "start": 60.2638,
      "duration": 0.0304,
      "velocity": 119,
      "chip": "ym2612"
    },
    {
      "channel": 4,
      "note": 68,
      "start": 60.2666,
      "duration": 0.0775,
      "velocity": 127,
      "chip": "ym2612"
    },
    {
      "channel": 3,
      "note": 68,
      "start": 60.2691,
      "duration": 0.0749,
      "velocity": 78,
      "chip": "ym2612"
    },
    {
      "channel": 5,
      "note": 68,
      "start": 60.2719,
      "duration": 0.0724,
      "velocity": 78,
      "chip": "ym2612"
    },
    {
      "channel": 2,
      "note": 81,
      "start": 60.3634,
      "duration": 0.0308,
      "velocity": 121,
      "chip": "ym2612"
    },
    {
      "channel": 1,
      "note": 56,
      "start": 60.366,
      "duration": 0.1615,
      "velocity": 127,
      "chip": "ym2612"
    },
    {
      "channel": 2,
      "note": 39,
      "start": 60.4805,
      "duration": 0.0303,
      "velocity": 119,
      "chip": "ym2612"
    },
    {
      "channel": 0,
      "note": 68,
      "start": 60.4837,
      "duration": 0.077,
      "velocity": 115,
      "chip": "ym2612"
    },
    {
      "channel": 2,
      "note": 39,
      "start": 60.5803,
      "duration": 0.0306,
      "velocity": 119,
      "chip": "ym2612"
    },
    {
      "channel": 4,
      "note": 68,
      "start": 60.5831,
      "duration": 0.0777,
      "velocity": 127,
      "chip": "ym2612"
    },
    {
      "channel": 3,
      "note": 68,
      "start": 60.5856,
      "duration": 0.0751,
      "velocity": 78,
      "chip": "ym2612"
    },
    {
      "channel": 5,
      "note": 68,
      "start": 60.5885,
      "duration": 0.0724,
      "velocity": 78,
      "chip": "ym2612"
    },
    {
      "channel": 2,
      "note": 39,
      "start": 60.6806,
      "duration": 0.0303,
      "velocity": 119,
      "chip": "ym2612"
    },
    {
      "channel": 1,
      "note": 56,
      "start": 60.6831,
      "duration": 0.1609,
      "velocity": 127,
      "chip": "ym2612"
    },
    {
      "channel": 2,
      "note": 81,
      "start": 60.7967,
      "duration": 0.0309,
      "velocity": 121,
      "chip": "ym2612"
    },
    {
      "channel": 0,
      "note": 68,
      "start": 60.8002,
      "duration": 0.0772,
      "velocity": 115,
      "chip": "ym2612"
    },
    {
      "channel": 2,
      "note": 39,
      "start": 60.8971,
      "duration": 0.0306,
      "velocity": 119,
      "chip": "ym2612"
    },
    {
      "channel": 4,
      "note": 68,
      "start": 60.8998,
      "duration": 0.0778,
      "velocity": 127,
      "chip": "ym2612"
    },
    {
      "channel": 3,
      "note": 68,
      "start": 60.9027,
      "duration": 0.0748,
      "velocity": 78,
      "chip": "ym2612"
    },
    {
      "channel": 5,
      "note": 68,
      "start": 60.9053,
      "duration": 0.0725,
      "velocity": 78,
      "chip": "ym2612"
    },
    {
      "channel": 2,
      "note": 39,
      "start": 61.0137,
      "duration": 0.0306,
      "velocity": 119,
      "chip": "ym2612"
    },
    {
      "channel": 1,
      "note": 56,
      "start": 61.0164,
      "duration": 0.1443,
      "velocity": 127,
      "chip": "ym2612"
    },
    {
      "channel": 0,
      "note": 80,
      "start": 61.0197,
      "duration": 0.0742,
      "velocity": 115,
      "chip": "ym2612"
    },
    {
      "channel": 2,
      "note": 39,
      "start": 61.1138,
      "duration": 0.0304,
      "velocity": 119,
      "chip": "ym2612"
    },
    {
      "channel": 0,
      "note": 68,
      "start": 61.1176,
      "duration": 0.0764,
      "velocity": 115,
      "chip": "ym2612"
    },
    {
      "channel": 2,
      "note": 81,
      "start": 61.2136,
      "duration": 0.0306,
      "velocity": 121,
      "chip": "ym2612"
    },
    {
      "channel": 1,
      "note": 54,
      "start": 61.2163,
      "duration": 0.1612,
      "velocity": 127,
      "chip": "ym2612"
    },
    {
      "channel": 4,
      "note": 68,
      "start": 61.2195,
      "duration": 0.0913,
      "velocity": 127,
      "chip": "ym2612"
    },
    {
      "channel": 3,
      "note": 68,
      "start": 61.2221,
      "duration": 0.0886,
      "velocity": 78,
      "chip": "ym2612"
    },
    {
      "channel": 5,
      "note": 68,
      "start": 61.2249,
      "duration": 0.0861,
      "velocity": 78,
      "chip": "ym2612"
    },
    {
      "channel": 2,
      "note": 39,
      "start": 61.331,
      "duration": 0.0299,
      "velocity": 119,
      "chip": "ym2612"
    },
    {
      "channel": 0,
      "note": 45,
      "start": 61.4332,
      "duration": 0.0,
      "velocity": 107,
      "chip": "ym2612"
    }
  ]
}