{
  "track_name": "02 - Over the Clouds",
  "duration_sec": 53.318,
  "sample_rate": 44100,
  "note_count": 1058,
  "unique_pitches": 33,
  "pitch_range": 69,
  "avg_note_duration": 0.2321,
  "reconstruction_stats": {
    "notes_reconstructed": 1058,
    "keyon_events": 1058,
    "keyoff_events": 1057,
    "orphan_keyons": 1,
    "unique_pitches": 33,
    "pitch_range": 69,
    "avg_duration_sec": 0.2321
  },
  "metadata": {
    "source": "M\\Monster World IV\\02 - Over the Clouds.vgz"
  },
  "notes": [
    {
      "channel": 0,
      "note": 41,
      "start": 0.0,
      "duration": 1.654,
      "velocity": 79,
      "chip": "ym2612"
    },
    {
      "channel": 3,
      "note": 101,
      "start": 0.0014,
      "duration": 0.1321,
      "velocity": 123,
      "chip": "ym2612"
    },
    {
      "channel": 1,
      "note": 70,
      "start": 0.0044,
      "duration": 0.1293,
      "velocity": 123,
      "chip": "ym2612"
    },
    {
      "channel": 2,
      "note": 101,
      "start": 0.0071,
      "duration": 0.2644,
      "velocity": 118,
      "chip": "ym2612"
    },
    {
      "channel": 5,
      "note": 44,
      "start": 0.0098,
      "duration": 0.262,
      "velocity": 127,
      "chip": "ym2612"
    },
    {
      "channel": 3,
      "note": 71,
      "start": 0.14,
      "duration": 0.1307,
      "velocity": 123,
      "chip": "ym2612"
    },
    {
      "channel": 4,
      "note": 65,
      "start": 0.1432,
      "duration": 0.1282,
      "velocity": 123,
      "chip": "ym2612"
    },
    {
      "channel": 3,
      "note": 76,
      "start": 0.2773,
      "duration": 0.1307,
      "velocity": 123,
      "chip": "ym2612"
    },
    {
      "channel": 1,
      "note": 83,
      "start": 0.279,
      "duration": 0.1291,
      "velocity": 123,
      "chip": "ym2612"
    },
    {
      "channel": 2,
      "note": 105,
      "start": 0.2809,
      "duration": 0.2708,
      "velocity": 118,
      "chip": "ym2612"
    },
    {
      "channel": 3,
      "note": 71,
      "start": 0.4147,
      "duration": 0.1362,
      "velocity": 123,
      "chip": "ym2612"
    },
    {
      "channel": 4,
      "note": 88,
      "start": 0.4169,
      "duration": 0.1347,
      "velocity": 123,
      "chip": "ym2612"
    },
    {
      "channel": 3,
      "note": 78,
      "start": 0.5713,
      "duration": 0.1283,
      "velocity": 123,
      "chip": "ym2612"
    },
    {
      "channel": 1,
      "note": 83,
      "start": 0.5729,
      "duration": 0.1268,
      "velocity": 123,
      "chip": "ym2612"
    },
    {
      "channel": 2,
      "note": 105,
      "start": 0.5749,
      "duration": 0.2677,
      "velocity": 118,
      "chip": "ym2612"
    },
    {
      "channel": 5,
      "note": 38,
      "start": 0.5764,
      "duration": 0.2653,
      "velocity": 127,
      "chip": "ym2612"
    },
    {
      "channel": 3,
      "note": 71,
      "start": 0.7061,
      "duration": 0.1375,
      "velocity": 123,
      "chip": "ym2612"
    },
    {
      "channel": 4,
      "note": 90,
      "start": 0.7083,
      "duration": 0.1398,
      "velocity": 123,
      "chip": "ym2612"
    },
    {
      "channel": 3,
      "note": 76,
      "start": 0.8457,
      "duration": 0.1284,
      "velocity": 123,
      "chip": "ym2612"
    },
    {
      "channel": 1,
      "note": 83,
      "start": 0.8473,
      "duration": 0.1268,
      "velocity": 123,
      "chip": "ym2612"
    },
    {
      "channel": 2,
      "note": 105,
      "start": 0.849,
      "duration": 0.2631,
      "velocity": 118,
      "chip": "ym2612"
    },
    {
      "channel": 5,
      "note": 38,
      "start": 0.8514,
      "duration": 0.1933,
      "velocity": 127,
      "chip": "ym2612"
    },
    {
      "channel": 3,
      "note": 71,
      "start": 0.9806,
      "duration": 0.1307,
      "velocity": 123,
      "chip": "ym2612"
    },
    {
      "channel": 4,
      "note": 88,
      "start": 0.9828,
      "duration": 0.1292,
      "velocity": 123,
      "chip": "ym2612"
    },
    {
      "channel": 3,
      "note": 78,
      "start": 1.1189,
      "duration": 0.1346,
      "velocity": 123,
      "chip": "ym2612"
    },
    {
      "channel": 1,
      "note": 83,
      "start": 1.1209,
      "duration": 0.1356,
      "velocity": 123,
      "chip": "ym2612"
    },
    {
      "channel": 2,
      "note": 105,
      "start": 1.1229,
      "duration": 0.268,
      "velocity": 118,
      "chip": "ym2612"
    },
    {
      "channel": 5,
      "note": 44,
      "start": 1.1252,
      "duration": 0.2648,
      "velocity": 127,
      "chip": "ym2612"
    },
    {
      "channel": 3,
      "note": 71,
      "start": 1.2556,
      "duration": 0.1301,
      "velocity": 123,
      "chip": "ym2612"
    },
    {
      "channel": 4,
      "note": 90,
      "start": 1.2575,
      "duration": 0.1293,
      "velocity": 123,
      "chip": "ym2612"
    },
    {
      "channel": 3,
      "note": 83,
      "start": 1.394,
      "duration": 0.1291,
      "velocity": 123,
      "chip": "ym2612"
    },
    {
      "channel": 1,
      "note": 83,
      "start": 1.3957,
      "duration": 0.1275,
      "velocity": 123,
      "chip": "ym2612"
    },
    {
      "channel": 2,
      "note": 105,
      "start": 1.3977,
      "duration": 0.2634,
      "velocity": 118,
      "chip": "ym2612"
    },
    {
      "channel": 5,
      "note": 38,
      "start": 1.3991,
      "duration": 0.2621,
      "velocity": 127,
      "chip": "ym2612"
    },
    {
      "channel": 3,
      "note": 71,
      "start": 1.5295,
      "duration": 0.1307,
      "velocity": 123,
      "chip": "ym2612"
    },
    {
      "channel": 4,
      "note": 95,
      "start": 1.5317,
      "duration": 0.1292,
      "velocity": 123,
      "chip": "ym2612"
    },
    {
      "channel": 0,
      "note": 42,
      "start": 1.6676,
      "duration": 1.6561,
      "velocity": 79,
      "chip": "ym2612"
    },
    {
      "channel": 3,
      "note": 78,
      "start": 1.6694,
      "duration": 0.1328,
      "velocity": 123,
      "chip": "ym2612"
    },
    {
      "channel": 1,
      "note": 83,
      "start": 1.6713,
      "duration": 0.134,
      "velocity": 123,
      "chip": "ym2612"
    },
    {
      "channel": 2,
      "note": 105,
      "start": 1.6733,
      "duration": 0.2665,
      "velocity": 118,
      "chip": "ym2612"
    },
    {
      "channel": 3,
      "note": 71,
      "start": 1.8045,
      "duration": 0.1302,
      "velocity": 123,
      "chip": "ym2612"
    },
    {
      "channel": 4,
      "note": 90,
      "start": 1.8064,
      "duration": 0.129,
      "velocity": 123,
      "chip": "ym2612"
    },
    {
      "channel": 3,
      "note": 76,
      "start": 1.9429,
      "duration": 0.1291,
      "velocity": 123,
      "chip": "ym2612"
    },
    {
      "channel": 1,
      "note": 83,
      "start": 1.9446,
      "duration": 0.1275,
      "velocity": 123,
      "chip": "ym2612"
    },
    {
      "channel": 2,
      "note": 105,
      "start": 1.9465,
      "duration": 0.2681,
      "velocity": 118,
      "chip": "ym2612"
    },
    {
      "channel": 5,
      "note": 38,
      "start": 1.948,
      "duration": 0.2657,
      "velocity": 127,
      "chip": "ym2612"
    },
    {
      "channel": 3,
      "note": 71,
      "start": 2.0786,
      "duration": 0.137,
      "velocity": 123,
      "chip": "ym2612"
    },
    {
      "channel": 4,
      "note": 88,
      "start": 2.0808,
      "duration": 0.1396,
      "velocity": 123,
      "chip": "ym2612"
    },
    {
      "channel": 3,
      "note": 78,
      "start": 2.2178,
      "duration": 0.1286,
      "velocity": 123,
      "chip": "ym2612"
    },
    {
      "channel": 1,
      "note": 83,
      "start": 2.2195,
      "duration": 0.1271,
      "velocity": 123,
      "chip": "ym2612"
    },
    {
      "channel": 2,
      "note": 105,
      "start": 2.2213,
      "duration": 0.2632,
      "velocity": 118,
      "chip": "ym2612"
    },
    {
      "channel": 5,
      "note": 38,
      "start": 2.2229,
      "duration": 0.2618,
      "velocity": 127,
      "chip": "ym2612"
    },
    {
      "channel": 3,
      "note": 71,
      "start": 2.3533,
      "duration": 0.1303,
      "velocity": 123,
      "chip": "ym2612"
    },
    {
      "channel": 4,
      "note": 90,
      "start": 2.3555,
      "duration": 0.1288,
      "velocity": 123,
      "chip": "ym2612"
    },
    {
      "channel": 3,
      "note": 76,
      "start": 2.4914,
      "duration": 0.1295,
      "velocity": 123,
      "chip": "ym2612"
    },
    {
      "channel": 1,
      "note": 83,
      "start": 2.493,
      "duration": 0.128,
      "velocity": 123,
      "chip": "ym2612"
    },
    {
      "channel": 2,
      "note": 105,
      "start": 2.495,
      "duration": 0.2697,
      "velocity": 118,
      "chip": "ym2612"
    },
    {
      "channel": 5,
      "note": 38,
      "start": 2.4973,
      "duration": 0.1999,
      "velocity": 127,
      "chip": "ym2612"
    },
    {
      "channel": 3,
      "note": 71,
      "start": 2.6274,
      "duration": 0.1364,
      "velocity": 123,
      "chip": "ym2612"
    },
    {
      "channel": 4,
      "note": 88,
      "start": 2.6296,
      "duration": 0.1349,
      "velocity": 123,
      "chip": "ym2612"
    },
    {
      "channel": 3,
      "note": 78,
      "start": 2.7839,
      "duration": 0.1286,
      "velocity": 123,
      "chip": "ym2612"
    },
    {
      "channel": 1,
      "note": 83,
      "start": 2.7856,
      "duration": 0.1271,
      "velocity": 123,
      "chip": "ym2612"
    },
    {
      "channel": 2,
      "note": 105,
      "start": 2.7878,
      "duration": 0.2677,
      "velocity": 118,
      "chip": "ym2612"
    },
    {
      "channel": 5,
      "note": 44,
      "start": 2.7902,
      "duration": 0.2644,
      "velocity": 127,
      "chip": "ym2612"
    },
    {
      "channel": 3,
      "note": 71,
      "start": 2.919,
      "duration": 0.1375,
      "velocity": 123,
      "chip": "ym2612"
    },
    {
      "channel": 4,
      "note": 90,
      "start": 2.9215,
      "duration": 0.1394,
      "velocity": 123,
      "chip": "ym2612"
    },
    {
      "channel": 3,
      "note": 83,
      "start": 3.0586,
      "duration": 0.1286,
      "velocity": 123,
      "chip": "ym2612"
    },
    {
      "channel": 1,
      "note": 83,
      "start": 3.0603,
      "duration": 0.1271,
      "velocity": 123,
      "chip": "ym2612"
    },
    {
      "channel": 2,
      "note": 105,
      "start": 3.0619,
      "duration": 0.2628,
      "velocity": 118,
      "chip": "ym2612"
    },
    {
      "channel": 5,
      "note": 38,
      "start": 3.0634,
      "duration": 0.2615,
      "velocity": 127,
      "chip": "ym2612"
    },
    {
      "channel": 3,
      "note": 71,
      "start": 3.1935,
      "duration": 0.1303,
      "velocity": 123,
      "chip": "ym2612"
    },
    {
      "channel": 4,
      "note": 95,
      "start": 3.1957,
      "duration": 0.1288,
      "velocity": 123,
      "chip": "ym2612"
    },
    {
      "channel": 0,
      "note": 40,
      "start": 3.3318,
      "duration": 1.6596,
      "velocity": 79,
      "chip": "ym2612"
    },
    {
      "channel": 3,
      "note": 78,
      "start": 3.3335,
      "duration": 0.1327,
      "velocity": 123,
      "chip": "ym2612"
    },
    {
      "channel": 1,
      "note": 83,
      "start": 3.3351,
      "duration": 0.134,
      "velocity": 123,
      "chip": "ym2612"
    },
    {
      "channel": 2,
      "note": 105,
      "start": 3.3374,
      "duration": 0.2663,
      "velocity": 118,
      "chip": "ym2612"
    },
    {
      "channel": 3,
      "note": 71,
      "start": 3.4682,
      "duration": 0.1305,
      "velocity": 123,
      "chip": "ym2612"
    },
    {
      "channel": 4,
      "note": 90,
      "start": 3.4703,
      "duration": 0.129,
      "velocity": 123,
      "chip": "ym2612"
    },
    {
      "channel": 3,
      "note": 76,
      "start": 3.6069,
      "duration": 0.129,
      "velocity": 123,
      "chip": "ym2612"
    },
    {
      "channel": 1,
      "note": 83,
      "start": 3.6085,
      "duration": 0.1276,
      "velocity": 123,
      "chip": "ym2612"
    },
    {
      "channel": 2,
      "note": 105,
      "start": 3.6105,
      "duration": 0.2635,
      "velocity": 118,
      "chip": "ym2612"
    },
    {
      "channel": 5,
      "note": 38,
      "start": 3.612,
      "duration": 0.2621,
      "velocity": 127,
      "chip": "ym2612"
    },
    {
      "channel": 3,
      "note": 71,
      "start": 3.7426,
      "duration": 0.1305,
      "velocity": 123,
      "chip": "ym2612"
    },
    {
      "channel": 4,
      "note": 88,
      "start": 3.7448,
      "duration": 0.129,
      "velocity": 123,
      "chip": "ym2612"
    },
    {
      "channel": 3,
      "note": 78,
      "start": 3.8804,
      "duration": 0.1347,
      "velocity": 123,
      "chip": "ym2612"
    },
    {
      "channel": 1,
      "note": 83,
      "start": 3.8821,
      "duration": 0.136,
      "velocity": 123,
      "chip": "ym2612"
    },
    {
      "channel": 2,
      "note": 105,
      "start": 3.8841,
      "duration": 0.2684,
      "velocity": 118,
      "chip": "ym2612"
    },
    {
      "channel": 5,
      "note": 38,
      "start": 3.8856,
      "duration": 0.266,
      "velocity": 127,
      "chip": "ym2612"
    },
    {
      "channel": 3,
      "note": 71,
      "start": 4.0173,
      "duration": 0.1303,
      "velocity": 123,
      "chip": "ym2612"
    },
    {
      "channel": 4,
      "note": 90,
      "start": 4.019,
      "duration": 0.1292,
      "velocity": 123,
      "chip": "ym2612"
    },
    {
      "channel": 3,
      "note": 76,
      "start": 4.156,
      "duration": 0.1289,
      "velocity": 123,
      "chip": "ym2612"
    },
    {
      "channel": 1,
      "note": 83,
      "start": 4.1577,
      "duration": 0.1273,
      "velocity": 123,
      "chip": "ym2612"
    },
    {
      "channel": 2,
      "note": 105,
      "start": 4.1597,
      "duration": 0.2683,
      "velocity": 118,
      "chip": "ym2612"
    },
    {
      "channel": 5,
      "note": 38,
      "start": 4.162,
      "duration": 0.1937,
      "velocity": 127,
      "chip": "ym2612"
    },
    {
      "channel": 3,
      "note": 71,
      "start": 4.2914,
      "duration": 0.1376,
      "velocity": 123,
      "chip": "ym2612"
    },
    {
      "channel": 4,
      "note": 88,
      "start": 4.2936,
      "duration": 0.1399,
      "velocity": 123,
      "chip": "ym2612"
    },
    {
      "channel": 3,
      "note": 78,
      "start": 4.4311,
      "duration": 0.1282,
      "velocity": 123,
      "chip": "ym2612"
    },
    {
      "channel": 1,
      "note": 83,
      "start": 4.4328,
      "duration": 0.1267,
      "velocity": 123,
      "chip": "ym2612"
    },
    {
      "channel": 2,
      "note": 105,
      "start": 4.4344,
      "duration": 0.2629,
      "velocity": 118,
      "chip": "ym2612"
    },
    {
      "channel": 5,
      "note": 44,
      "start": 4.4371,
      "duration": 0.2604,
      "velocity": 127,
      "chip": "ym2612"
    },
    {
      "channel": 3,
      "note": 71,
      "start": 4.5661,
      "duration": 0.1305,
      "velocity": 123,
      "chip": "ym2612"
    },
    {
      "channel": 4,
      "note": 90,
      "start": 4.5682,
      "duration": 0.129,
      "velocity": 123,
      "chip": "ym2612"
    },
    {
      "channel": 3,
      "note": 83,
      "start": 4.7048,
      "duration": 0.129,
      "velocity": 123,
      "chip": "ym2612"
    },
    {
      "channel": 1,
      "note": 83,
      "start": 4.7065,
      "duration": 0.1275,
      "velocity": 123,
      "chip": "ym2612"
    },
    {
      "channel": 2,
      "note": 105,
      "start": 4.7085,
      "duration": 0.2693,
      "velocity": 118,
      "chip": "ym2612"
    },
    {
      "channel": 5,
      "note": 38,
      "start": 4.71,
      "duration": 0.2679,
      "velocity": 127,
      "chip": "ym2612"
    },
    {
      "channel": 3,
      "note": 71,
      "start": 4.8407,
      "duration": 0.1362,
      "velocity": 123,
      "chip": "ym2612"
    },
    {
      "channel": 4,
      "note": 95,
      "start": 4.8429,
      "duration": 0.1347,
      "velocity": 123,
      "chip": "ym2612"
    },
    {
      "channel": 0,
      "note": 45,
      "start": 4.997,
      "duration": 1.6417,
      "velocity": 79,
      "chip": "ym2612"
    },
    {
      "channel": 3,
      "note": 78,
      "start": 4.9988,
      "duration": 0.1314,
      "velocity": 123,
      "chip": "ym2612"
    },
    {
      "channel": 1,
      "note": 83,
      "start": 5.0004,
      "duration": 0.1326,
      "velocity": 123,
      "chip": "ym2612"
    },
    {
      "channel": 2,
      "note": 105,
      "start": 5.0024,
      "duration": 0.2651,
      "velocity": 118,
      "chip": "ym2612"
    },
    {
      "channel": 3,
      "note": 71,
      "start": 5.1322,
      "duration": 0.1305,
      "velocity": 123,
      "chip": "ym2612"
    },
    {
      "channel": 4,
      "note": 90,
      "start": 5.1341,
      "duration": 0.1293,
      "velocity": 123,
      "chip": "ym2612"
    },
    {
      "channel": 3,
      "note": 76,
      "start": 5.2709,
      "duration": 0.129,
      "velocity": 123,
      "chip": "ym2612"
    },
    {
      "channel": 1,
      "note": 83,
      "start": 5.2725,
      "duration": 0.1275,
      "velocity": 123,
      "chip": "ym2612"
    },
    {
      "channel": 2,
      "note": 105,
      "start": 5.2745,
      "duration": 0.2635,
      "velocity": 118,
      "chip": "ym2612"
    },
    {
      "channel": 5,
      "note": 38,
      "start": 5.276,
      "duration": 0.2622,
      "velocity": 127,
      "chip": "ym2612"
    },
    {
      "channel": 3,
      "note": 71,
      "start": 5.4066,
      "duration": 0.1306,
      "velocity": 123,
      "chip": "ym2612"
    },
    {
      "channel": 4,
      "note": 88,
      "start": 5.4088,
      "duration": 0.1291,
      "velocity": 123,
      "chip": "ym2612"
    },
    {
      "channel": 3,
      "note": 78,
      "start": 5.5437,
      "duration": 0.1353,
      "velocity": 123,
      "chip": "ym2612"
    },
    {
      "channel": 1,
      "note": 83,
      "start": 5.5454,
      "duration": 0.1367,
      "velocity": 123,
      "chip": "ym2612"
    },
    {
      "channel": 2,
      "note": 105,
      "start": 5.5473,
      "duration": 0.2691,
      "velocity": 118,
      "chip": "ym2612"
    },
    {
      "channel": 3,
      "note": 71,
      "start": 5.6812,
      "duration": 0.1304,
      "velocity": 123,
      "chip": "ym2612"
    },
    {
      "channel": 4,
      "note": 90,
      "start": 5.683,
      "duration": 0.1292,
      "velocity": 123,
      "chip": "ym2612"
    },
    {
      "channel": 3,
      "note": 76,
      "start": 5.82,
      "duration": 0.1289,
      "velocity": 123,
      "chip": "ym2612"
    },
    {
      "channel": 1,
      "note": 83,
      "start": 5.8217,
      "duration": 0.1273,
      "velocity": 123,
      "chip": "ym2612"
    },
    {
      "channel": 2,
      "note": 105,
      "start": 5.8236,
      "duration": 0.2674,
      "velocity": 118,
      "chip": "ym2612"
    },
    {
      "channel": 5,
      "note": 38,
      "start": 5.826,
      "duration": 0.1935,
      "velocity": 127,
      "chip": "ym2612"
    },
    {
      "channel": 3,
      "note": 71,
      "start": 5.9554,
      "duration": 0.1366,
      "velocity": 123,
      "chip": "ym2612"
    },
    {
      "channel": 4,
      "note": 88,
      "start": 5.9575,
      "duration": 0.1389,
      "velocity": 123,
      "chip": "ym2612"
    },
    {
      "channel": 3,
      "note": 78,
      "start": 6.0941,
      "duration": 0.1292,
      "velocity": 123,
      "chip": "ym2612"
    },
    {
      "channel": 1,
      "note": 83,
      "start": 6.0958,
      "duration": 0.1277,
      "velocity": 123,
      "chip": "ym2612"
    },
    {
      "channel": 2,
      "note": 105,
      "start": 6.0974,
      "duration": 0.1267,
      "velocity": 118,
      "chip": "ym2612"
    },
    {
      "channel": 3,
      "note": 71,
      "start": 6.2304,
      "duration": 0.1302,
      "velocity": 123,
      "chip": "ym2612"
    },
    {
      "channel": 4,
      "note": 90,
      "start": 6.2325,
      "duration": 0.1287,
      "velocity": 123,
      "chip": "ym2612"
    },
    {
      "channel": 5,
      "note": 44,
      "start": 6.2347,
      "duration": 0.0422,
      "velocity": 127,
      "chip": "ym2612"
    },
    {
      "channel": 5,
      "note": 44,
      "start": 6.3007,
      "duration": 0.0449,
      "velocity": 127,
      "chip": "ym2612"
    },
    {
      "channel": 3,
      "note": 83,
      "start": 6.3688,
      "duration": 0.129,
      "velocity": 123,
      "chip": "ym2612"
    },
    {
      "channel": 1,
      "note": 83,
      "start": 6.3707,
      "duration": 0.1272,
      "velocity": 123,
      "chip": "ym2612"
    },
    {
      "channel": 2,
      "note": 105,
      "start": 6.3727,
      "duration": 0.1258,
      "velocity": 118,
      "chip": "ym2612"
    },
    {
      "channel": 5,
      "note": 44,
      "start": 6.3743,
      "duration": 0.0914,
      "velocity": 127,
      "chip": "ym2612"
    },
    {
      "channel": 3,
      "note": 71,
      "start": 6.5048,
      "duration": 0.1391,
      "velocity": 123,
      "chip": "ym2612"
    },
    {
      "channel": 4,
      "note": 95,
      "start": 6.507,
      "duration": 0.1426,
      "velocity": 123,
      "chip": "ym2612"
    },
    {
      "channel": 5,
      "note": 44,
      "start": 6.51,
      "duration": 0.1319,
      "velocity": 127,
      "chip": "ym2612"
    },
    {
      "channel": 0,
      "note": 43,
      "start": 6.6455,
      "duration": 1.653,
      "velocity": 79,
      "chip": "ym2612"
    },
    {
      "channel": 3,
      "note": 78,
      "start": 6.6472,
      "duration": 0.1307,
      "velocity": 123,
      "chip": "ym2612"
    },
    {
      "channel": 1,
      "note": 83,
      "start": 6.6489,
      "duration": 0.1293,
      "velocity": 123,
      "chip": "ym2612"
    },
    {
      "channel": 2,
      "note": 105,
      "start": 6.6505,
      "duration": 0.2655,
      "velocity": 118,
      "chip": "ym2612"
    },
    {
      "channel": 5,
      "note": 38,
      "start": 6.652,
      "duration": 0.2642,
      "velocity": 127,
      "chip": "ym2612"
    },
    {
      "channel": 3,
      "note": 71,
      "start": 6.7845,
      "duration": 0.1307,
      "velocity": 123,
      "chip": "ym2612"
    },
    {
      "channel": 4,
      "note": 90,
      "start": 6.7869,
      "duration": 0.1289,
      "velocity": 123,
      "chip": "ym2612"
    },
    {
      "channel": 3,
      "note": 76,
      "start": 6.9218,
      "duration": 0.1306,
      "velocity": 123,
      "chip": "ym2612"
    },
    {
      "channel": 1,
      "note": 83,
      "start": 6.9236,
      "duration": 0.129,
      "velocity": 123,
      "chip": "ym2612"
    },
    {
      "channel": 2,
      "note": 105,
      "start": 6.9255,
      "duration": 0.2707,
      "velocity": 118,
      "chip": "ym2612"
    },
    {
      "channel": 3,
      "note": 71,
      "start": 7.0592,
      "duration": 0.1363,
      "velocity": 123,
      "chip": "ym2612"
    },
    {
      "channel": 4,
      "note": 88,
      "start": 7.0613,
      "duration": 0.1347,
      "velocity": 123,
      "chip": "ym2612"
    },
    {
      "channel": 3,
      "note": 78,
      "start": 7.2154,
      "duration": 0.1333,
      "velocity": 123,
      "chip": "ym2612"
    },
    {
      "channel": 1,
      "note": 83,
      "start": 7.2171,
      "duration": 0.1345,
      "velocity": 123,
      "chip": "ym2612"
    },
    {
      "channel": 2,
      "note": 105,
      "start": 7.2191,
      "duration": 0.2671,
      "velocity": 118,
      "chip": "ym2612"
    },
    {
      "channel": 5,
      "note": 38,
      "start": 7.2208,
      "duration": 0.2644,
      "velocity": 127,
      "chip": "ym2612"
    },
    {
      "channel": 3,
      "note": 71,
      "start": 7.3508,
      "duration": 0.1305,
      "velocity": 123,
      "chip": "ym2612"
    },
    {
      "channel": 4,
      "note": 90,
      "start": 7.3527,
      "duration": 0.1293,
      "velocity": 123,
      "chip": "ym2612"
    },
    {
      "channel": 3,
      "note": 76,
      "start": 7.4895,
      "duration": 0.129,
      "velocity": 123,
      "chip": "ym2612"
    },
    {
      "channel": 1,
      "note": 83,
      "start": 7.4912,
      "duration": 0.1275,
      "velocity": 123,
      "chip": "ym2612"
    },
    {
      "channel": 2,
      "note": 105,
      "start": 7.4932,
      "duration": 0.2634,
      "velocity": 118,
      "chip": "ym2612"
    },
    {
      "channel": 5,
      "note": 38,
      "start": 7.4956,
      "duration": 0.1937,
      "velocity": 127,
      "chip": "ym2612"
    },
    {
      "channel": 3,
      "note": 71,
      "start": 7.6251,
      "duration": 0.1307,
      "velocity": 123,
      "chip": "ym2612"
    },
    {
      "channel": 4,
      "note": 88,
      "start": 7.6273,
      "duration": 0.1292,
      "velocity": 123,
      "chip": "ym2612"
    },
    {
      "channel": 3,
      "note": 78,
      "start": 7.7634,
      "duration": 0.1344,
      "velocity": 123,
      "chip": "ym2612"
    },
    {
      "channel": 1,
      "note": 83,
      "start": 7.765,
      "duration": 0.1356,
      "velocity": 123,
      "chip": "ym2612"
    },
    {
      "channel": 2,
      "note": 105,
      "start": 7.767,
      "duration": 0.2681,
      "velocity": 118,
      "chip": "ym2612"
    },
    {
      "channel": 5,
      "note": 44,
      "start": 7.7694,
      "duration": 0.2649,
      "velocity": 127,
      "chip": "ym2612"
    },
    {
      "channel": 3,
      "note": 71,
      "start": 7.8998,
      "duration": 0.1304,
      "velocity": 123,
      "chip": "ym2612"
    },
    {
      "channel": 4,
      "note": 90,
      "start": 7.9016,
      "duration": 0.1293,
      "velocity": 123,
      "chip": "ym2612"
    },
    {
      "channel": 3,
      "note": 83,
      "start": 8.0385,
      "duration": 0.129,
      "velocity": 123,
      "chip": "ym2612"
    },
    {
      "channel": 1,
      "note": 83,
      "start": 8.0402,
      "duration": 0.1275,
      "velocity": 123,
      "chip": "ym2612"
    },
    {
      "channel": 2,
      "note": 105,
      "start": 8.0421,
      "duration": 0.2685,
      "velocity": 118,
      "chip": "ym2612"
    },
    {
      "channel": 5,
      "note": 38,
      "start": 8.0437,
      "duration": 0.2755,
      "velocity": 127,
      "chip": "ym2612"
    },
    {
      "channel": 3,
      "note": 71,
      "start": 8.174,
      "duration": 0.1379,
      "velocity": 123,
      "chip": "ym2612"
    },
    {
      "channel": 4,
      "note": 95,
      "start": 8.1762,
      "duration": 0.1413,
      "velocity": 123,
      "chip": "ym2612"
    },
    {
      "channel": 0,
      "note": 42,
      "start": 8.3134,
      "duration": 1.649,
      "velocity": 79,
      "chip": "ym2612"
    },
    {
      "channel": 3,
      "note": 78,
      "start": 8.3152,
      "duration": 0.1268,
      "velocity": 123,
      "chip": "ym2612"
    },
    {
      "channel": 1,
      "note": 83,
      "start": 8.3169,
      "duration": 0.1252,
      "velocity": 123,
      "chip": "ym2612"
    },
    {
      "channel": 2,
      "note": 105,
      "start": 8.3185,
      "duration": 0.2615,
      "velocity": 118,
      "chip": "ym2612"
    },
    {
      "channel": 3,
      "note": 71,
      "start": 8.4485,
      "duration": 0.1307,
      "velocity": 123,
      "chip": "ym2612"
    },
    {
      "channel": 4,
      "note": 90,
      "start": 8.4507,
      "duration": 0.1291,
      "velocity": 123,
      "chip": "ym2612"
    },
    {
      "channel": 3,
      "note": 76,
      "start": 8.5871,
      "duration": 0.1294,
      "velocity": 123,
      "chip": "ym2612"
    },
    {
      "channel": 1,
      "note": 83,
      "start": 8.5887,
      "duration": 0.1278,
      "velocity": 123,
      "chip": "ym2612"
    },
    {
      "channel": 2,
      "note": 105,
      "start": 8.5907,
      "duration": 0.2687,
      "velocity": 118,
      "chip": "ym2612"
    },
    {
      "channel": 5,
      "note": 38,
      "start": 8.5922,
      "duration": 0.2663,
      "velocity": 127,
      "chip": "ym2612"
    },
    {
      "channel": 3,
      "note": 71,
      "start": 8.7232,
      "duration": 0.1372,
      "velocity": 123,
      "chip": "ym2612"
    },
    {
      "channel": 4,
      "note": 88,
      "start": 8.7253,
      "duration": 0.1395,
      "velocity": 123,
      "chip": "ym2612"
    },
    {
      "channel": 3,
      "note": 78,
      "start": 8.8625,
      "duration": 0.1284,
      "velocity": 123,
      "chip": "ym2612"
    },
    {
      "channel": 1,
      "note": 83,
      "start": 8.8641,
      "duration": 0.1269,
      "velocity": 123,
      "chip": "ym2612"
    },
    {
      "channel": 2,
      "note": 105,
      "start": 8.8658,
      "duration": 0.2632,
      "velocity": 118,
      "chip": "ym2612"
    },
    {
      "channel": 5,
      "note": 38,
      "start": 8.8673,
      "duration": 0.2618,
      "velocity": 127,
      "chip": "ym2612"
    },
    {
      "channel": 3,
      "note": 71,
      "start": 8.9975,
      "duration": 0.1307,
      "velocity": 123,
      "chip": "ym2612"
    },
    {
      "channel": 4,
      "note": 90,
      "start": 8.9996,
      "duration": 0.1291,
      "velocity": 123,
      "chip": "ym2612"
    },
    {
      "channel": 3,
      "note": 76,
      "start": 9.1356,
      "duration": 0.1355,
      "velocity": 123,
      "chip": "ym2612"
    },
    {
      "channel": 1,
      "note": 83,
      "start": 9.1375,
      "duration": 0.1337,
      "velocity": 123,
      "chip": "ym2612"
    },
    {
      "channel": 2,
      "note": 105,
      "start": 9.1395,
      "duration": 0.2704,
      "velocity": 118,
      "chip": "ym2612"
    },
    {
      "channel": 5,
      "note": 38,
      "start": 9.1418,
      "duration": 0.1999,
      "velocity": 127,
      "chip": "ym2612"
    },
    {
      "channel": 3,
      "note": 71,
      "start": 9.2896,
      "duration": 0.1304,
      "velocity": 123,
      "chip": "ym2612"
    },
    {
      "channel": 4,
      "note": 88,
      "start": 9.2917,
      "duration": 0.129,
      "velocity": 123,
      "chip": "ym2612"
    },
    {
      "channel": 3,
      "note": 78,
      "start": 9.4279,
      "duration": 0.1337,
      "velocity": 123,
      "chip": "ym2612"
    },
    {
      "channel": 1,
      "note": 83,
      "start": 9.4297,
      "duration": 0.135,
      "velocity": 123,
      "chip": "ym2612"
    },
    {
      "channel": 2,
      "note": 105,
      "start": 9.4316,
      "duration": 0.2674,
      "velocity": 118,
      "chip": "ym2612"
    },
    {
      "channel": 5,
      "note": 44,
      "start": 9.434,
      "duration": 0.2642,
      "velocity": 127,
      "chip": "ym2612"
    },
    {
      "channel": 3,
      "note": 71,
      "start": 9.5638,
      "duration": 0.1305,
      "velocity": 123,
      "chip": "ym2612"
    },
    {
      "channel": 4,
      "note": 90,
      "start": 9.5656,
      "duration": 0.1293,
      "velocity": 123,
      "chip": "ym2612"
    },
    {
      "channel": 3,
      "note": 83,
      "start": 9.7021,
      "duration": 0.1294,
      "velocity": 123,
      "chip": "ym2612"
    },
    {
      "channel": 1,
      "note": 83,
      "start": 9.7041,
      "duration": 0.1276,
      "velocity": 123,
      "chip": "ym2612"
    },
    {
      "channel": 2,
      "note": 105,
      "start": 9.7061,
      "duration": 0.2635,
      "velocity": 118,
      "chip": "ym2612"
    },
    {
      "channel": 5,
      "note": 38,
      "start": 9.7075,
      "duration": 0.2624,
      "velocity": 127,
      "chip": "ym2612"
    },
    {
      "channel": 3,
      "note": 71,
      "start": 9.838,
      "duration": 0.1307,
      "velocity": 123,
      "chip": "ym2612"
    },
    {
      "channel": 4,
      "note": 95,
      "start": 9.8402,
      "duration": 0.1291,
      "velocity": 123,
      "chip": "ym2612"
    },
    {
      "channel": 0,
      "note": 40,
      "start": 9.9768,
      "duration": 1.6554,
      "velocity": 79,
      "chip": "ym2612"
    },
    {
      "channel": 3,
      "note": 78,
      "start": 9.9785,
      "duration": 0.1321,
      "velocity": 123,
      "chip": "ym2612"
    },
    {
      "channel": 1,
      "note": 83,
      "start": 9.9802,
      "duration": 0.1333,
      "velocity": 123,
      "chip": "ym2612"
    },
    {
      "channel": 2,
      "note": 105,
      "start": 9.9822,
      "duration": 0.2658,
      "velocity": 118,
      "chip": "ym2612"
    },
    {
      "channel": 3,
      "note": 71,
      "start": 10.1127,
      "duration": 0.1304,
      "velocity": 123,
      "chip": "ym2612"
    },
    {
      "channel": 4,
      "note": 90,
      "start": 10.1145,
      "duration": 0.1293,
      "velocity": 123,
      "chip": "ym2612"
    },
    {
      "channel": 3,
      "note": 76,
      "start": 10.2511,
      "duration": 0.1293,
      "velocity": 123,
      "chip": "ym2612"
    },
    {
      "channel": 1,
      "note": 83,
      "start": 10.2528,
      "duration": 0.1278,
      "velocity": 123,
      "chip": "ym2612"
    },
    {
      "channel": 2,
      "note": 105,
      "start": 10.255,
      "duration": 0.2683,
      "velocity": 118,
      "chip": "ym2612"
    },
    {
      "channel": 5,
      "note": 38,
      "start": 10.2565,
      "duration": 0.266,
      "velocity": 127,
      "chip": "ym2612"
    },
    {
      "channel": 3,
      "note": 71,
      "start": 10.3874,
      "duration": 0.137,
      "velocity": 123,
      "chip": "ym2612"
    },
    {
      "channel": 4,
      "note": 88,
      "start": 10.3896,
      "duration": 0.1393,
      "velocity": 123,
      "chip": "ym2612"
    },
    {
      "channel": 3,
      "note": 78,
      "start": 10.5265,
      "duration": 0.1284,
      "velocity": 123,
      "chip": "ym2612"
    },
    {
      "channel": 1,
      "note": 83,
      "start": 10.5281,
      "duration": 0.1269,
      "velocity": 123,
      "chip": "ym2612"
    },
    {
      "channel": 2,
      "note": 105,
      "start": 10.5298,
      "duration": 0.2631,
      "velocity": 118,
      "chip": "ym2612"
    },
    {
      "channel": 5,
      "note": 38,
      "start": 10.5312,
      "duration": 0.2618,
      "velocity": 127,
      "chip": "ym2612"
    },
    {
      "channel": 3,
      "note": 71,
      "start": 10.6615,
      "duration": 0.1307,
      "velocity": 123,
      "chip": "ym2612"
    },
    {
      "channel": 4,
      "note": 90,
      "start": 10.6636,
      "duration": 0.1291,
      "velocity": 123,
      "chip": "ym2612"
    },
    {
      "channel": 3,
      "note": 76,
      "start": 10.7996,
      "duration": 0.1298,
      "velocity": 123,
      "chip": "ym2612"
    },
    {
      "channel": 1,
      "note": 83,
      "start": 10.8012,
      "duration": 0.1283,
      "velocity": 123,
      "chip": "ym2612"
    },
    {
      "channel": 2,
      "note": 105,
      "start": 10.8035,
      "duration": 0.2688,
      "velocity": 118,
      "chip": "ym2612"
    },
    {
      "channel": 5,
      "note": 38,
      "start": 10.8059,
      "duration": 0.2,
      "velocity": 127,
      "chip": "ym2612"
    },
    {
      "channel": 3,
      "note": 71,
      "start": 10.9359,
      "duration": 0.1375,
      "velocity": 123,
      "chip": "ym2612"
    },
    {
      "channel": 4,
      "note": 88,
      "start": 10.9383,
      "duration": 0.1395,
      "velocity": 123,
      "chip": "ym2612"
    },
    {
      "channel": 3,
      "note": 78,
      "start": 11.0755,
      "duration": 0.1284,
      "velocity": 123,
      "chip": "ym2612"
    },
    {
      "channel": 1,
      "note": 83,
      "start": 11.0771,
      "duration": 0.1269,
      "velocity": 123,
      "chip": "ym2612"
    },
    {
      "channel": 2,
      "note": 105,
      "start": 11.0788,
      "duration": 0.263,
      "velocity": 118,
      "chip": "ym2612"
    },
    {
      "channel": 5,
      "note": 44,
      "start": 11.0811,
      "duration": 0.2609,
      "velocity": 127,
      "chip": "ym2612"
    },
    {
      "channel": 3,
      "note": 71,
      "start": 11.2105,
      "duration": 0.1305,
      "velocity": 123,
      "chip": "ym2612"
    },
    {
      "channel": 4,
      "note": 90,
      "start": 11.2127,
      "duration": 0.129,
      "velocity": 123,
      "chip": "ym2612"
    },
    {
      "channel": 3,
      "note": 83,
      "start": 11.3485,
      "duration": 0.1354,
      "velocity": 123,
      "chip": "ym2612"
    },
    {
      "channel": 1,
      "note": 83,
      "start": 11.3503,
      "duration": 0.1339,
      "velocity": 123,
      "chip": "ym2612"
    },
    {
      "channel": 2,
      "note": 105,
      "start": 11.3522,
      "duration": 0.2707,
      "velocity": 118,
      "chip": "ym2612"
    },
    {
      "channel": 5,
      "note": 38,
      "start": 11.354,
      "duration": 0.2691,
      "velocity": 127,
      "chip": "ym2612"
    },
    {
      "channel": 3,
      "note": 71,
      "start": 11.5022,
      "duration": 0.1301,
      "velocity": 123,
      "chip": "ym2612"
    },
    {
      "channel": 4,
      "note": 95,
      "start": 11.5047,
      "duration": 0.1283,
      "velocity": 123,
      "chip": "ym2612"
    },
    {
      "channel": 0,
      "note": 45,
      "start": 11.6408,
      "duration": 0.8178,
      "velocity": 79,
      "chip": "ym2612"
    },
    {
      "channel": 3,
      "note": 78,
      "start": 11.6424,
      "duration": 0.1324,
      "velocity": 123,
      "chip": "ym2612"
    },
    {
      "channel": 1,
      "note": 83,
      "start": 11.6442,
      "duration": 0.1337,
      "velocity": 123,
      "chip": "ym2612"
    },
    {
      "channel": 2,
      "note": 105,
      "start": 11.6461,
      "duration": 0.2658,
      "velocity": 118,
      "chip": "ym2612"
    },
    {
      "channel": 3,
      "note": 71,
      "start": 11.777,
      "duration": 0.1302,
      "velocity": 123,
      "chip": "ym2612"
    },
    {
      "channel": 4,
      "note": 90,
      "start": 11.7788,
      "duration": 0.129,
      "velocity": 123,
      "chip": "ym2612"
    },
    {
      "channel": 3,
      "note": 76,
      "start": 11.915,
      "duration": 0.1293,
      "velocity": 123,
      "chip": "ym2612"
    },
    {
      "channel": 1,
      "note": 83,
      "start": 11.9168,
      "duration": 0.1278,
      "velocity": 123,
      "chip": "ym2612"
    },
    {
      "channel": 2,
      "note": 105,
      "start": 11.9187,
      "duration": 0.2637,
      "velocity": 118,
      "chip": "ym2612"
    },
    {
      "channel": 5,
      "note": 38,
      "start": 11.9204,
      "duration": 0.2622,
      "velocity": 127,
      "chip": "ym2612"
    },
    {
      "channel": 3,
      "note": 71,
      "start": 12.0511,
      "duration": 0.1305,
      "velocity": 123,
      "chip": "ym2612"
    },
    {
      "channel": 4,
      "note": 88,
      "start": 12.0536,
      "duration": 0.1287,
      "velocity": 123,
      "chip": "ym2612"
    },
    {
      "channel": 3,
      "note": 78,
      "start": 12.1883,
      "duration": 0.1356,
      "velocity": 123,
      "chip": "ym2612"
    },
    {
      "channel": 1,
      "note": 83,
      "start": 12.1899,
      "duration": 0.1369,
      "velocity": 123,
      "chip": "ym2612"
    },
    {
      "channel": 2,
      "note": 105,
      "start": 12.1919,
      "duration": 0.2699,
      "velocity": 118,
      "chip": "ym2612"
    },
    {
      "channel": 3,
      "note": 71,
      "start": 12.326,
      "duration": 0.1301,
      "velocity": 123,
      "chip": "ym2612"
    },
    {
      "channel": 4,
      "note": 90,
      "start": 12.3278,
      "duration": 0.1289,
      "velocity": 123,
      "chip": "ym2612"
    },
    {
      "channel": 0,
      "note": 47,
      "start": 12.4645,
      "duration": 0.8244,
      "velocity": 79,
      "chip": "ym2612"
    },
    {
      "channel": 3,
      "note": 76,
      "start": 12.4661,
      "duration": 0.1329,
      "velocity": 123,
      "chip": "ym2612"
    },
    {
      "channel": 1,
      "note": 83,
      "start": 12.4678,
      "duration": 0.1314,
      "velocity": 123,
      "chip": "ym2612"
    },
    {
      "channel": 2,
      "note": 105,
      "start": 12.4701,
      "duration": 0.2711,
      "velocity": 118,
      "chip": "ym2612"
    },
    {
      "channel": 5,
      "note": 38,
      "start": 12.4724,
      "duration": 0.1975,
      "velocity": 127,
      "chip": "ym2612"
    },
    {
      "channel": 3,
      "note": 71,
      "start": 12.6056,
      "duration": 0.1366,
      "velocity": 123,
      "chip": "ym2612"
    },
    {
      "channel": 4,
      "note": 88,
      "start": 12.6077,
      "duration": 0.1389,
      "velocity": 123,
      "chip": "ym2612"
    },
    {
      "channel": 3,
      "note": 78,
      "start": 12.7443,
      "duration": 0.1292,
      "velocity": 123,
      "chip": "ym2612"
    },
    {
      "channel": 1,
      "note": 83,
      "start": 12.746,
      "duration": 0.1276,
      "velocity": 123,
      "chip": "ym2612"
    },
    {
      "channel": 2,
      "note": 105,
      "start": 12.7476,
      "duration": 0.1267,
      "velocity": 118,
      "chip": "ym2612"
    },
    {
      "channel": 3,
      "note": 71,
      "start": 12.8805,
      "duration": 0.1303,
      "velocity": 123,
      "chip": "ym2612"
    },
    {
      "channel": 4,
      "note": 90,
      "start": 12.8827,
      "duration": 0.1288,
      "velocity": 123,
      "chip": "ym2612"
    },
    {
      "channel": 5,
      "note": 44,
      "start": 12.8849,
      "duration": 0.0423,
      "velocity": 127,
      "chip": "ym2612"
    },
    {
      "channel": 5,
      "note": 44,
      "start": 12.9507,
      "duration": 0.0449,
      "velocity": 127,
      "chip": "ym2612"
    },
    {
      "channel": 3,
      "note": 83,
      "start": 13.0187,
      "duration": 0.1293,
      "velocity": 123,
      "chip": "ym2612"
    },
    {
      "channel": 1,
      "note": 83,
      "start": 13.0207,
      "duration": 0.1274,
      "velocity": 123,
      "chip": "ym2612"
    },
    {
      "channel": 2,
      "note": 105,
      "start": 13.0227,
      "duration": 0.1261,
      "velocity": 118,
      "chip": "ym2612"
    },
    {
      "channel": 5,
      "note": 44,
      "start": 13.0241,
      "duration": 0.0917,
      "velocity": 127,
      "chip": "ym2612"
    },
    {
      "channel": 3,
      "note": 71,
      "start": 13.1551,
      "duration": 0.1365,
      "velocity": 123,
      "chip": "ym2612"
    },
    {
      "channel": 4,
      "note": 95,
      "start": 13.1573,
      "duration": 0.1441,
      "velocity": 123,
      "chip": "ym2612"
    },
    {
      "channel": 5,
      "note": 44,
      "start": 13.1603,
      "duration": 0.1328,
      "velocity": 127,
      "chip": "ym2612"
    },
    {
      "channel": 0,
      "note": 49,
      "start": 13.2962,
      "duration": 1.6525,
      "velocity": 79,
      "chip": "ym2612"
    },
    {
      "channel": 3,
      "note": 78,
      "start": 13.2988,
      "duration": 1.0957,
      "velocity": 98,
      "chip": "ym2612"
    },
    {
      "channel": 1,
      "note": 83,
      "start": 13.3007,
      "duration": 0.128,
      "velocity": 123,
      "chip": "ym2612"
    },
    {
      "channel": 2,
      "note": 105,
      "start": 13.3023,
      "duration": 0.2642,
      "velocity": 118,
      "chip": "ym2612"
    },
    {
      "channel": 5,
      "note": 38,
      "start": 13.3041,
      "duration": 0.2627,
      "velocity": 127,
      "chip": "ym2612"
    },
    {
      "channel": 4,
      "note": 90,
      "start": 13.4357,
      "duration": 0.1307,
      "velocity": 123,
      "chip": "ym2612"
    },
    {
      "channel": 1,
      "note": 83,
      "start": 13.5725,
      "duration": 0.1367,
      "velocity": 123,
      "chip": "ym2612"
    },
    {
      "channel": 2,
      "note": 105,
      "start": 13.5745,
      "duration": 0.2728,
      "velocity": 118,
      "chip": "ym2612"
    },
    {
      "channel": 4,
      "note": 88,
      "start": 13.7276,
      "duration": 0.1308,
      "velocity": 123,
      "chip": "ym2612"
    },
    {
      "channel": 1,
      "note": 83,
      "start": 13.8654,
      "duration": 0.1352,
      "velocity": 123,
      "chip": "ym2612"
    },
    {
      "channel": 2,
      "note": 105,
      "start": 13.8673,
      "duration": 0.2697,
      "velocity": 118,
      "chip": "ym2612"
    },
    {
      "channel": 5,
      "note": 38,
      "start": 13.8688,
      "duration": 0.2671,
      "velocity": 127,
      "chip": "ym2612"
    },
    {
      "channel": 4,
      "note": 90,
      "start": 14.0015,
      "duration": 0.1311,
      "velocity": 123,
      "chip": "ym2612"
    },
    {
      "channel": 1,
      "note": 83,
      "start": 14.1397,
      "duration": 0.1296,
      "velocity": 123,
      "chip": "ym2612"
    },
    {
      "channel": 2,
      "note": 105,
      "start": 14.1416,
      "duration": 0.2709,
      "velocity": 118,
      "chip": "ym2612"
    },
    {
      "channel": 5,
      "note": 38,
      "start": 14.144,
      "duration": 0.1954,
      "velocity": 127,
      "chip": "ym2612"
    },
    {
      "channel": 4,
      "note": 88,
      "start": 14.2765,
      "duration": 0.1407,
      "velocity": 123,
      "chip": "ym2612"
    },
    {
      "channel": 3,
      "note": 99,
      "start": 14.4146,
      "duration": 0.1286,
      "velocity": 98,
      "chip": "ym2612"
    },
    {
      "channel": 1,
      "note": 83,
      "start": 14.4166,
      "duration": 0.1268,
      "velocity": 123,
      "chip": "ym2612"
    },
    {
      "channel": 2,
      "note": 105,
      "start": 14.4181,
      "duration": 0.2634,
      "velocity": 118,
      "chip": "ym2612"
    },
    {
      "channel": 5,
      "note": 44,
      "start": 14.4208,
      "duration": 0.261,
      "velocity": 127,
      "chip": "ym2612"
    },
    {
      "channel": 3,
      "note": 99,
      "start": 14.5498,
      "duration": 0.1078,
      "velocity": 98,
      "chip": "ym2612"
    },
    {
      "channel": 4,
      "note": 90,
      "start": 14.5519,
      "duration": 0.1295,
      "velocity": 123,
      "chip": "ym2612"
    },
    {
      "channel": 3,
      "note": 99,
      "start": 14.6883,
      "duration": 0.1179,
      "velocity": 98,
      "chip": "ym2612"
    },
    {
      "channel": 1,
      "note": 83,
      "start": 14.69,
      "duration": 0.1282,
      "velocity": 123,
      "chip": "ym2612"
    },
    {
      "channel": 2,
      "note": 105,
      "start": 14.692,
      "duration": 0.2698,
      "velocity": 118,
      "chip": "ym2612"
    },
    {
      "channel": 5,
      "note": 38,
      "start": 14.6935,
      "duration": 0.2757,
      "velocity": 127,
      "chip": "ym2612"
    },
    {
      "channel": 3,
      "note": 100,
      "start": 14.8244,
      "duration": 0.1245,
      "velocity": 98,
      "chip": "ym2612"
    },
    {
      "channel": 4,
      "note": 95,
      "start": 14.8266,
      "duration": 0.1409,
      "velocity": 123,
      "chip": "ym2612"
    },
    {
      "channel": 0,
      "note": 47,
      "start": 14.9634,
      "duration": 1.6493,
      "velocity": 79,
      "chip": "ym2612"
    },
    {
      "channel": 3,
      "note": 102,
      "start": 14.9651,
      "duration": 1.0248,
      "velocity": 98,
      "chip": "ym2612"
    },
    {
      "channel": 1,
      "note": 83,
      "start": 14.9668,
      "duration": 0.1258,
      "velocity": 123,
      "chip": "ym2612"
    },
    {
      "channel": 2,
      "note": 105,
      "start": 14.9685,
      "duration": 0.2621,
      "velocity": 118,
      "chip": "ym2612"
    },
    {
      "channel": 4,
      "note": 90,
      "start": 15.0997,
      "duration": 0.1307,
      "velocity": 123,
      "chip": "ym2612"
    },
    {
      "channel": 1,
      "note": 83,
      "start": 15.2372,
      "duration": 0.1299,
      "velocity": 123,
      "chip": "ym2612"
    },
    {
      "channel": 2,
      "note": 105,
      "start": 15.2392,
      "duration": 0.2702,
      "velocity": 118,
      "chip": "ym2612"
    },
    {
      "channel": 5,
      "note": 38,
      "start": 15.2407,
      "duration": 0.2679,
      "velocity": 127,
      "chip": "ym2612"
    },
    {
      "channel": 4,
      "note": 88,
      "start": 15.3746,
      "duration": 0.1383,
      "velocity": 123,
      "chip": "ym2612"
    },
    {
      "channel": 1,
      "note": 83,
      "start": 15.5122,
      "duration": 0.1294,
      "velocity": 123,
      "chip": "ym2612"
    },
    {
      "channel": 2,
      "note": 105,
      "start": 15.5139,
      "duration": 0.2656,
      "velocity": 118,
      "chip": "ym2612"
    },
    {
      "channel": 5,
      "note": 38,
      "start": 15.5154,
      "duration": 0.2643,
      "velocity": 127,
      "chip": "ym2612"
    },
    {
      "channel": 4,
      "note": 90,
      "start": 15.6489,
      "duration": 0.1304,
      "velocity": 123,
      "chip": "ym2612"
    },
    {
      "channel": 1,
      "note": 83,
      "start": 15.7858,
      "duration": 0.1361,
      "velocity": 123,
      "chip": "ym2612"
    },
    {
      "channel": 2,
      "note": 105,
      "start": 15.7881,
      "duration": 0.272,
      "velocity": 118,
      "chip": "ym2612"
    },
    {
      "channel": 5,
      "note": 38,
      "start": 15.7905,
      "duration": 0.2011,
      "velocity": 127,
      "chip": "ym2612"
    },
    {
      "channel": 4,
      "note": 88,
      "start": 15.9405,
      "duration": 0.1307,
      "velocity": 123,
      "chip": "ym2612"
    },
    {
      "channel": 3,
      "note": 99,
      "start": 16.0786,
      "duration": 0.2487,
      "velocity": 98,
      "chip": "ym2612"
    },
    {
      "channel": 1,
      "note": 83,
      "start": 16.0805,
      "duration": 0.1329,
      "velocity": 123,
      "chip": "ym2612"
    },
    {
      "channel": 2,
      "note": 105,
      "start": 16.0825,
      "duration": 0.268,
      "velocity": 118,
      "chip": "ym2612"
    },
    {
      "channel": 5,
      "note": 44,
      "start": 16.0848,
      "duration": 0.2649,
      "velocity": 127,
      "chip": "ym2612"
    },
    {
      "channel": 4,
      "note": 90,
      "start": 16.2144,
      "duration": 0.131,
      "velocity": 123,
      "chip": "ym2612"
    },
    {
      "channel": 3,
      "note": 99,
      "start": 16.3527,
      "duration": 0.249,
      "velocity": 98,
      "chip": "ym2612"
    },
    {
      "channel": 1,
      "note": 83,
      "start": 16.3549,
      "duration": 0.1273,
      "velocity": 123,
      "chip": "ym2612"
    },
    {
      "channel": 2,
      "note": 105,
      "start": 16.3568,
      "duration": 0.2693,
      "velocity": 118,
      "chip": "ym2612"
    },
    {
      "channel": 5,
      "note": 38,
      "start": 16.3583,
      "duration": 0.2753,
      "velocity": 127,
      "chip": "ym2612"
    },
    {
      "channel": 4,
      "note": 95,
      "start": 16.4892,
      "duration": 0.1427,
      "velocity": 123,
      "chip": "ym2612"
    },
    {
      "channel": 0,
      "note": 45,
      "start": 16.6278,
      "duration": 1.6488,
      "velocity": 79,
      "chip": "ym2612"
    },
    {
      "channel": 3,
      "note": 95,
      "start": 16.6295,
      "duration": 0.1151,
      "velocity": 98,
      "chip": "ym2612"
    },
    {
      "channel": 1,
      "note": 83,
      "start": 16.6312,
      "duration": 0.1254,
      "velocity": 123,
      "chip": "ym2612"
    },
    {
      "channel": 2,
      "note": 105,
      "start": 16.6329,
      "duration": 0.2617,
      "velocity": 118,
      "chip": "ym2612"
    },
    {
      "channel": 3,
      "note": 97,
      "start": 16.7627,
      "duration": 0.9585,
      "velocity": 98,
      "chip": "ym2612"
    },
    {
      "channel": 4,
      "note": 90,
      "start": 16.7649,
      "duration": 0.1295,
      "velocity": 123,
      "chip": "ym2612"
    },
    {
      "channel": 1,
      "note": 83,
      "start": 16.9013,
      "duration": 0.1298,
      "velocity": 123,
      "chip": "ym2612"
    },
    {
      "channel": 2,
      "note": 105,
      "start": 16.9035,
      "duration": 0.2701,
      "velocity": 118,
      "chip": "ym2612"
    },
    {
      "channel": 5,
      "note": 38,
      "start": 16.905,
      "duration": 0.2677,
      "velocity": 127,
      "chip": "ym2612"
    },
    {
      "channel": 4,
      "note": 88,
      "start": 17.0387,
      "duration": 0.1384,
      "velocity": 123,
      "chip": "ym2612"
    },
    {
      "channel": 1,
      "note": 83,
      "start": 17.1764,
      "duration": 0.1292,
      "velocity": 123,
      "chip": "ym2612"
    },
    {
      "channel": 2,
      "note": 105,
      "start": 17.1781,
      "duration": 0.2654,
      "velocity": 118,
      "chip": "ym2612"
    },
    {
      "channel": 5,
      "note": 38,
      "start": 17.1795,
      "duration": 0.2641,
      "velocity": 127,
      "chip": "ym2612"
    },
    {
      "channel": 4,
      "note": 90,
      "start": 17.3129,
      "duration": 0.1305,
      "velocity": 123,
      "chip": "ym2612"
    },
    {
      "channel": 1,
      "note": 83,
      "start": 17.4498,
      "duration": 0.1361,
      "velocity": 123,
      "chip": "ym2612"
    },
    {
      "channel": 2,
      "note": 105,
      "start": 17.4518,
      "duration": 0.2715,
      "velocity": 118,
      "chip": "ym2612"
    },
    {
      "channel": 5,
      "note": 38,
      "start": 17.4545,
      "duration": 0.2014,
      "velocity": 127,
      "chip": "ym2612"
    },
    {
      "channel": 4,
      "note": 88,
      "start": 17.5872,
      "duration": 0.1305,
      "velocity": 123,
      "chip": "ym2612"
    },
    {
      "channel": 3,
      "note": 95,
      "start": 17.7253,
      "duration": 0.2489,
      "velocity": 98,
      "chip": "ym2612"
    },
    {
      "channel": 1,
      "note": 83,
      "start": 17.7271,
      "duration": 0.1274,
      "velocity": 123,
      "chip": "ym2612"
    },
    {
      "channel": 2,
      "note": 105,
      "start": 17.7291,
      "duration": 0.2633,
      "velocity": 118,
      "chip": "ym2612"
    },
    {
      "channel": 5,
      "note": 44,
      "start": 17.7315,
      "duration": 0.2611,
      "velocity": 127,
      "chip": "ym2612"
    },
    {
      "channel": 4,
      "note": 90,
      "start": 17.8618,
      "duration": 0.1305,
      "velocity": 123,
      "chip": "ym2612"
    },
    {
      "channel": 3,
      "note": 92,
      "start": 17.9991,
      "duration": 0.2497,
      "velocity": 98,
      "chip": "ym2612"
    },
    {
      "channel": 1,
      "note": 83,
      "start": 18.0008,
      "duration": 0.134,
      "velocity": 123,
      "chip": "ym2612"
    },
    {
      "channel": 2,
      "note": 105,
      "start": 18.0028,
      "duration": 0.2703,
      "velocity": 118,
      "chip": "ym2612"
    },
    {
      "channel": 5,
      "note": 38,
      "start": 18.0045,
      "duration": 0.2687,
      "velocity": 127,
      "chip": "ym2612"
    },
    {
      "channel": 4,
      "note": 95,
      "start": 18.1534,
      "duration": 0.1304,
      "velocity": 123,
      "chip": "ym2612"
    },
    {
      "channel": 0,
      "note": 44,
      "start": 18.2912,
      "duration": 1.6411,
      "velocity": 79,
      "chip": "ym2612"
    },
    {
      "channel": 3,
      "note": 95,
      "start": 18.2929,
      "duration": 0.5433,
      "velocity": 98,
      "chip": "ym2612"
    },
    {
      "channel": 1,
      "note": 83,
      "start": 18.2945,
      "duration": 0.1319,
      "velocity": 123,
      "chip": "ym2612"
    },
    {
      "channel": 2,
      "note": 105,
      "start": 18.2965,
      "duration": 0.2664,
      "velocity": 118,
      "chip": "ym2612"
    },
    {
      "channel": 4,
      "note": 90,
      "start": 18.4273,
      "duration": 0.131,
      "velocity": 123,
      "chip": "ym2612"
    },
    {
      "channel": 1,
      "note": 83,
      "start": 18.5656,
      "duration": 0.1295,
      "velocity": 123,
      "chip": "ym2612"
    },
    {
      "channel": 2,
      "note": 105,
      "start": 18.5676,
      "duration": 0.27,
      "velocity": 118,
      "chip": "ym2612"
    },
    {
      "channel": 5,
      "note": 38,
      "start": 18.5691,
      "duration": 0.2747,
      "velocity": 127,
      "chip": "ym2612"
    },
    {
      "channel": 4,
      "note": 88,
      "start": 18.7025,
      "duration": 0.1396,
      "velocity": 123,
      "chip": "ym2612"
    },
    {
      "channel": 3,
      "note": 95,
      "start": 18.8397,
      "duration": 0.2496,
      "velocity": 98,
      "chip": "ym2612"
    },
    {
      "channel": 1,
      "note": 83,
      "start": 18.8415,
      "duration": 0.1284,
      "velocity": 123,
      "chip": "ym2612"
    },
    {
      "channel": 2,
      "note": 105,
      "start": 18.8431,
      "duration": 0.2643,
      "velocity": 118,
      "chip": "ym2612"
    },
    {
      "channel": 4,
      "note": 90,
      "start": 18.9767,
      "duration": 0.1306,
      "velocity": 123,
      "chip": "ym2612"
    },
    {
      "channel": 3,
      "note": 97,
      "start": 19.1143,
      "duration": 0.2492,
      "velocity": 98,
      "chip": "ym2612"
    },
    {
      "channel": 1,
      "note": 83,
      "start": 19.1161,
      "duration": 0.128,
      "velocity": 123,
      "chip": "ym2612"
    },
    {
      "channel": 2,
      "note": 105,
      "start": 19.118,
      "duration": 0.2686,
      "velocity": 118,
      "chip": "ym2612"
    },
    {
      "channel": 5,
      "note": 38,
      "start": 19.1207,
      "duration": 0.1994,
      "velocity": 127,
      "chip": "ym2612"
    },
    {
      "channel": 4,
      "note": 88,
      "start": 19.2511,
      "duration": 0.14,
      "velocity": 123,
      "chip": "ym2612"
    },
    {
      "channel": 3,
      "note": 99,
      "start": 19.3887,
      "duration": 0.2495,
      "velocity": 98,
      "chip": "ym2612"
    },
    {
      "channel": 1,
      "note": 83,
      "start": 19.3905,
      "duration": 0.128,
      "velocity": 123,
      "chip": "ym2612"
    },
    {
      "channel": 2,
      "note": 105,
      "start": 19.3921,
      "duration": 0.1271,
      "velocity": 118,
      "chip": "ym2612"
    },
    {
      "channel": 4,
      "note": 90,
      "start": 19.5257,
      "duration": 0.1305,
      "velocity": 123,
      "chip": "ym2612"
    },
    {
      "channel": 5,
      "note": 44,
      "start": 19.5279,
      "duration": 0.0441,
      "velocity": 127,
      "chip": "ym2612"
    },
    {
      "channel": 5,
      "note": 44,
      "start": 19.5953,
      "duration": 0.0446,
      "velocity": 127,
      "chip": "ym2612"
    },
    {
      "channel": 3,
      "note": 97,
      "start": 19.6639,
      "duration": 0.1231,
      "velocity": 98,
      "chip": "ym2612"
    },
    {
      "channel": 1,
      "note": 83,
      "start": 19.6656,
      "duration": 0.1354,
      "velocity": 123,
      "chip": "ym2612"
    },
    {
      "channel": 2,
      "note": 105,
      "start": 19.6676,
      "duration": 0.1356,
      "velocity": 118,
      "chip": "ym2612"
    },
    {
      "channel": 5,
      "note": 44,
      "start": 19.669,
      "duration": 0.0913,
      "velocity": 127,
      "chip": "ym2612"
    },
    {
      "channel": 3,
      "note": 95,
      "start": 19.8001,
      "duration": 0.1181,
      "velocity": 98,
      "chip": "ym2612"
    },
    {
      "channel": 4,
      "note": 95,
      "start": 19.8021,
      "duration": 0.1286,
      "velocity": 123,
      "chip": "ym2612"
    },
    {
      "channel": 5,
      "note": 44,
      "start": 19.805,
      "duration": 0.1263,
      "velocity": 127,
      "chip": "ym2612"
    },
    {
      "channel": 0,
      "note": 43,
      "start": 19.9391,
      "duration": 1.6541,
      "velocity": 79,
      "chip": "ym2612"
    },
    {
      "channel": 3,
      "note": 97,
      "start": 19.9408,
      "duration": 1.1041,
      "velocity": 98,
      "chip": "ym2612"
    },
    {
      "channel": 1,
      "note": 83,
      "start": 19.9425,
      "duration": 0.1307,
      "velocity": 123,
      "chip": "ym2612"
    },
    {
      "channel": 2,
      "note": 105,
      "start": 19.9445,
      "duration": 0.2665,
      "velocity": 118,
      "chip": "ym2612"
    },
    {
      "channel": 5,
      "note": 38,
      "start": 19.9459,
      "duration": 0.2653,
      "velocity": 127,
      "chip": "ym2612"
    },
    {
      "channel": 4,
      "note": 90,
      "start": 20.0802,
      "duration": 0.1307,
      "velocity": 123,
      "chip": "ym2612"
    },
    {
      "channel": 1,
      "note": 83,
      "start": 20.217,
      "duration": 0.137,
      "velocity": 123,
      "chip": "ym2612"
    },
    {
      "channel": 2,
      "note": 105,
      "start": 20.219,
      "duration": 0.2728,
      "velocity": 118,
      "chip": "ym2612"
    },
    {
      "channel": 4,
      "note": 88,
      "start": 20.3723,
      "duration": 0.1306,
      "velocity": 123,
      "chip": "ym2612"
    },
    {
      "channel": 1,
      "note": 83,
      "start": 20.5101,
      "duration": 0.1349,
      "velocity": 123,
      "chip": "ym2612"
    },
    {
      "channel": 2,
      "note": 105,
      "start": 20.5121,
      "duration": 0.2691,
      "velocity": 118,
      "chip": "ym2612"
    },
    {
      "channel": 5,
      "note": 38,
      "start": 20.5136,
      "duration": 0.2667,
      "velocity": 127,
      "chip": "ym2612"
    },
    {
      "channel": 4,
      "note": 90,
      "start": 20.6459,
      "duration": 0.1311,
      "velocity": 123,
      "chip": "ym2612"
    },
    {
      "channel": 1,
      "note": 83,
      "start": 20.7839,
      "duration": 0.1299,
      "velocity": 123,
      "chip": "ym2612"
    },
    {
      "channel": 2,
      "note": 105,
      "start": 20.7858,
      "duration": 0.2715,
      "velocity": 118,
      "chip": "ym2612"
    },
    {
      "channel": 5,
      "note": 38,
      "start": 20.7885,
      "duration": 0.1954,
      "velocity": 127,
      "chip": "ym2612"
    },
    {
      "channel": 4,
      "note": 88,
      "start": 20.9212,
      "duration": 0.1408,
      "velocity": 123,
      "chip": "ym2612"
    },
    {
      "channel": 3,
      "note": 99,
      "start": 21.0594,
      "duration": 0.1283,
      "velocity": 98,
      "chip": "ym2612"
    },
    {
      "channel": 1,
      "note": 83,
      "start": 21.0613,
      "duration": 0.1265,
      "velocity": 123,
      "chip": "ym2612"
    },
    {
      "channel": 2,
      "note": 105,
      "start": 21.0629,
      "duration": 0.2632,
      "velocity": 118,
      "chip": "ym2612"
    },
    {
      "channel": 5,
      "note": 44,
      "start": 21.0653,
      "duration": 0.261,
      "velocity": 127,
      "chip": "ym2612"
    },
    {
      "channel": 3,
      "note": 99,
      "start": 21.1942,
      "duration": 0.1078,
      "velocity": 98,
      "chip": "ym2612"
    },
    {
      "channel": 4,
      "note": 90,
      "start": 21.1964,
      "duration": 0.1295,
      "velocity": 123,
      "chip": "ym2612"
    },
    {
      "channel": 3,
      "note": 99,
      "start": 21.3325,
      "duration": 0.1183,
      "velocity": 98,
      "chip": "ym2612"
    },
    {
      "channel": 1,
      "note": 83,
      "start": 21.3342,
      "duration": 0.1284,
      "velocity": 123,
      "chip": "ym2612"
    },
    {
      "channel": 2,
      "note": 105,
      "start": 21.3365,
      "duration": 0.27,
      "velocity": 118,
      "chip": "ym2612"
    },
    {
      "channel": 5,
      "note": 38,
      "start": 21.3379,
      "duration": 0.2759,
      "velocity": 127,
      "chip": "ym2612"
    },
    {
      "channel": 3,
      "note": 100,
      "start": 21.4687,
      "duration": 0.1247,
      "velocity": 98,
      "chip": "ym2612"
    },
    {
      "channel": 4,
      "note": 95,
      "start": 21.4712,
      "duration": 0.141,
      "velocity": 123,
      "chip": "ym2612"
    },
    {
      "channel": 0,
      "note": 47,
      "start": 21.6082,
      "duration": 1.649,
      "velocity": 79,
      "chip": "ym2612"
    },
    {
      "channel": 3,
      "note": 102,
      "start": 21.6099,
      "duration": 1.2464,
      "velocity": 98,
      "chip": "ym2612"
    },
    {
      "channel": 1,
      "note": 83,
      "start": 21.6116,
      "duration": 0.1258,
      "velocity": 123,
      "chip": "ym2612"
    },
    {
      "channel": 2,
      "note": 105,
      "start": 21.6132,
      "duration": 0.2618,
      "velocity": 118,
      "chip": "ym2612"
    },
    {
      "channel": 4,
      "note": 90,
      "start": 21.7442,
      "duration": 0.1307,
      "velocity": 123,
      "chip": "ym2612"
    },
    {
      "channel": 1,
      "note": 83,
      "start": 21.8814,
      "duration": 0.1363,
      "velocity": 123,
      "chip": "ym2612"
    },
    {
      "channel": 2,
      "note": 105,
      "start": 21.8834,
      "duration": 0.2704,
      "velocity": 118,
      "chip": "ym2612"
    },
    {
      "channel": 5,
      "note": 38,
      "start": 21.8849,
      "duration": 0.2678,
      "velocity": 127,
      "chip": "ym2612"
    },
    {
      "channel": 4,
      "note": 88,
      "start": 22.0187,
      "duration": 0.1307,
      "velocity": 123,
      "chip": "ym2612"
    },
    {
      "channel": 1,
      "note": 83,
      "start": 22.1566,
      "duration": 0.1295,
      "velocity": 123,
      "chip": "ym2612"
    },
    {
      "channel": 2,
      "note": 105,
      "start": 22.1586,
      "duration": 0.2653,
      "velocity": 118,
      "chip": "ym2612"
    },
    {
      "channel": 5,
      "note": 38,
      "start": 22.1601,
      "duration": 0.2641,
      "velocity": 127,
      "chip": "ym2612"
    },
    {
      "channel": 4,
      "note": 90,
      "start": 22.2934,
      "duration": 0.1304,
      "velocity": 123,
      "chip": "ym2612"
    },
    {
      "channel": 1,
      "note": 83,
      "start": 22.4303,
      "duration": 0.1361,
      "velocity": 123,
      "chip": "ym2612"
    },
    {
      "channel": 2,
      "note": 105,
      "start": 22.4323,
      "duration": 0.2727,
      "velocity": 118,
      "chip": "ym2612"
    },
    {
      "channel": 5,
      "note": 38,
      "start": 22.4346,
      "duration": 0.202,
      "velocity": 127,
      "chip": "ym2612"
    },
    {
      "channel": 4,
      "note": 88,
      "start": 22.5849,
      "duration": 0.1394,
      "velocity": 123,
      "chip": "ym2612"
    },
    {
      "channel": 1,
      "note": 83,
      "start": 22.7237,
      "duration": 0.1286,
      "velocity": 123,
      "chip": "ym2612"
    },
    {
      "channel": 2,
      "note": 105,
      "start": 22.7253,
      "duration": 0.2647,
      "velocity": 118,
      "chip": "ym2612"
    },
    {
      "channel": 5,
      "note": 44,
      "start": 22.7277,
      "duration": 0.2625,
      "velocity": 127,
      "chip": "ym2612"
    },
    {
      "channel": 3,
      "note": 99,
      "start": 22.8586,
      "duration": 0.1191,
      "velocity": 98,
      "chip": "ym2612"
    },
    {
      "channel": 4,
      "note": 90,
      "start": 22.8608,
      "duration": 0.1291,
      "velocity": 123,
      "chip": "ym2612"
    },
    {
      "channel": 3,
      "note": 99,
      "start": 22.9966,
      "duration": 0.0495,
      "velocity": 98,
      "chip": "ym2612"
    },
    {
      "channel": 1,
      "note": 83,
      "start": 22.9985,
      "duration": 0.1282,
      "velocity": 123,
      "chip": "ym2612"
    },
    {
      "channel": 2,
      "note": 105,
      "start": 23.0005,
      "duration": 0.2702,
      "velocity": 118,
      "chip": "ym2612"
    },
    {
      "channel": 5,
      "note": 38,
      "start": 23.0019,
      "duration": 0.2761,
      "velocity": 127,
      "chip": "ym2612"
    },
    {
      "channel": 3,
      "note": 95,
      "start": 23.0812,
      "duration": 0.0507,
      "velocity": 98,
      "chip": "ym2612"
    },
    {
      "channel": 4,
      "note": 95,
      "start": 23.1333,
      "duration": 0.1431,
      "velocity": 123,
      "chip": "ym2612"
    },
    {
      "channel": 3,
      "note": 95,
      "start": 23.1671,
      "duration": 0.0562,
      "velocity": 98,
      "chip": "ym2612"
    },
    {
      "channel": 0,
      "note": 45,
      "start": 23.2723,
      "duration": 1.6488,
      "velocity": 79,
      "chip": "ym2612"
    },
    {
      "channel": 3,
      "note": 95,
      "start": 23.2739,
      "duration": 0.8165,
      "velocity": 98,
      "chip": "ym2612"
    },
    {
      "channel": 1,
      "note": 83,
      "start": 23.2757,
      "duration": 0.1254,
      "velocity": 123,
      "chip": "ym2612"
    },
    {
      "channel": 2,
      "note": 105,
      "start": 23.2773,
      "duration": 0.2617,
      "velocity": 118,
      "chip": "ym2612"
    },
    {
      "channel": 4,
      "note": 90,
      "start": 23.4082,
      "duration": 0.1307,
      "velocity": 123,
      "chip": "ym2612"
    },
    {
      "channel": 1,
      "note": 83,
      "start": 23.5454,
      "duration": 0.1363,
      "velocity": 123,
      "chip": "ym2612"
    },
    {
      "channel": 2,
      "note": 105,
      "start": 23.5473,
      "duration": 0.2701,
      "velocity": 118,
      "chip": "ym2612"
    },
    {
      "channel": 5,
      "note": 38,
      "start": 23.5489,
      "duration": 0.2678,
      "velocity": 127,
      "chip": "ym2612"
    },
    {
      "channel": 4,
      "note": 88,
      "start": 23.6827,
      "duration": 0.1307,
      "velocity": 123,
      "chip": "ym2612"
    },
    {
      "channel": 1,
      "note": 83,
      "start": 23.8206,
      "duration": 0.1295,
      "velocity": 123,
      "chip": "ym2612"
    },
    {
      "channel": 2,
      "note": 105,
      "start": 23.8226,
      "duration": 0.2656,
      "velocity": 118,
      "chip": "ym2612"
    },
    {
      "channel": 5,
      "note": 38,
      "start": 23.8241,
      "duration": 0.2643,
      "velocity": 127,
      "chip": "ym2612"
    },
    {
      "channel": 4,
      "note": 90,
      "start": 23.9573,
      "duration": 0.1307,
      "velocity": 123,
      "chip": "ym2612"
    },
    {
      "channel": 3,
      "note": 107,
      "start": 24.0948,
      "duration": 0.8265,
      "velocity": 98,
      "chip": "ym2612"
    },
    {
      "channel": 1,
      "note": 83,
      "start": 24.0965,
      "duration": 0.1338,
      "velocity": 123,
      "chip": "ym2612"
    },
    {
      "channel": 2,
      "note": 105,
      "start": 24.0985,
      "duration": 0.2679,
      "velocity": 118,
      "chip": "ym2612"
    },
    {
      "channel": 5,
      "note": 38,
      "start": 24.1008,
      "duration": 0.1995,
      "velocity": 127,
      "chip": "ym2612"
    },
    {
      "channel": 4,
      "note": 88,
      "start": 24.2312,
      "duration": 0.131,
      "velocity": 123,
      "chip": "ym2612"
    },
    {
      "channel": 1,
      "note": 83,
      "start": 24.3692,
      "duration": 0.1298,
      "velocity": 123,
      "chip": "ym2612"
    },
    {
      "channel": 2,
      "note": 105,
      "start": 24.3715,
      "duration": 0.2657,
      "velocity": 118,
      "chip": "ym2612"
    },
    {
      "channel": 5,
      "note": 44,
      "start": 24.3738,
      "duration": 0.2635,
      "velocity": 127,
      "chip": "ym2612"
    },
    {
      "channel": 4,
      "note": 90,
      "start": 24.5064,
      "duration": 0.1305,
      "velocity": 123,
      "chip": "ym2612"
    },
    {
      "channel": 1,
      "note": 83,
      "start": 24.6436,
      "duration": 0.1358,
      "velocity": 123,
      "chip": "ym2612"
    },
    {
      "channel": 2,
      "note": 105,
      "start": 24.6456,
      "duration": 0.2723,
      "velocity": 118,
      "chip": "ym2612"
    },
    {
      "channel": 5,
      "note": 38,
      "start": 24.647,
      "duration": 0.2709,
      "velocity": 127,
      "chip": "ym2612"
    },
    {
      "channel": 4,
      "note": 95,
      "start": 24.7977,
      "duration": 0.1426,
      "velocity": 123,
      "chip": "ym2612"
    },
    {
      "channel": 0,
      "note": 44,
      "start": 24.9359,
      "duration": 1.6469,
      "velocity": 79,
      "chip": "ym2612"
    },
    {
      "channel": 3,
      "note": 105,
      "start": 24.9379,
      "duration": 0.8168,
      "velocity": 98,
      "chip": "ym2612"
    },
    {
      "channel": 1,
      "note": 83,
      "start": 24.9396,
      "duration": 0.1255,
      "velocity": 123,
      "chip": "ym2612"
    },
    {
      "channel": 2,
      "note": 105,
      "start": 24.9412,
      "duration": 0.262,
      "velocity": 118,
      "chip": "ym2612"
    },
    {
      "channel": 4,
      "note": 90,
      "start": 25.0724,
      "duration": 0.1305,
      "velocity": 123,
      "chip": "ym2612"
    },
    {
      "channel": 1,
      "note": 83,
      "start": 25.2096,
      "duration": 0.13,
      "velocity": 123,
      "chip": "ym2612"
    },
    {
      "channel": 2,
      "note": 105,
      "start": 25.2116,
      "duration": 0.2693,
      "velocity": 118,
      "chip": "ym2612"
    },
    {
      "channel": 5,
      "note": 38,
      "start": 25.2131,
      "duration": 0.273,
      "velocity": 127,
      "chip": "ym2612"
    },
    {
      "channel": 4,
      "note": 88,
      "start": 25.347,
      "duration": 0.1375,
      "velocity": 123,
      "chip": "ym2612"
    },
    {
      "channel": 1,
      "note": 83,
      "start": 25.4837,
      "duration": 0.1303,
      "velocity": 123,
      "chip": "ym2612"
    },
    {
      "channel": 2,
      "note": 105,
      "start": 25.4854,
      "duration": 0.2665,
      "velocity": 118,
      "chip": "ym2612"
    },
    {
      "channel": 4,
      "note": 90,
      "start": 25.6216,
      "duration": 0.1302,
      "velocity": 123,
      "chip": "ym2612"
    },
    {
      "channel": 3,
      "note": 102,
      "start": 25.7601,
      "duration": 0.8251,
      "velocity": 98,
      "chip": "ym2612"
    },
    {
      "channel": 1,
      "note": 83,
      "start": 25.7627,
      "duration": 0.8239,
      "velocity": 98,
      "chip": "ym2612"
    },
    {
      "channel": 2,
      "note": 105,
      "start": 25.7651,
      "duration": 0.2702,
      "velocity": 118,
      "chip": "ym2612"
    },
    {
      "channel": 5,
      "note": 38,
      "start": 25.7675,
      "duration": 0.2029,
      "velocity": 127,
      "chip": "ym2612"
    },
    {
      "channel": 4,
      "note": 88,
      "start": 25.9013,
      "duration": 0.1307,
      "velocity": 123,
      "chip": "ym2612"
    },
    {
      "channel": 4,
      "note": 90,
      "start": 26.039,
      "duration": 0.1303,
      "velocity": 123,
      "chip": "ym2612"
    },
    {
      "channel": 2,
      "note": 105,
      "start": 26.0406,
      "duration": 0.1288,
      "velocity": 118,
      "chip": "ym2612"
    },
    {
      "channel": 4,
      "note": 83,
      "start": 26.1763,
      "duration": 0.1302,
      "velocity": 123,
      "chip": "ym2612"
    },
    {
      "channel": 5,
      "note": 44,
      "start": 26.1785,
      "duration": 0.044,
      "velocity": 127,
      "chip": "ym2612"
    },
    {
      "channel": 5,
      "note": 44,
      "start": 26.2456,
      "duration": 0.0449,
      "velocity": 127,
      "chip": "ym2612"
    },
    {
      "channel": 4,
      "note": 95,
      "start": 26.3145,
      "duration": 0.1316,
      "velocity": 123,
      "chip": "ym2612"
    },
    {
      "channel": 2,
      "note": 105,
      "start": 26.3162,
      "duration": 0.1356,
      "velocity": 118,
      "chip": "ym2612"
    },
    {
      "channel": 5,
      "note": 44,
      "start": 26.3177,
      "duration": 0.0985,
      "velocity": 127,
      "chip": "ym2612"
    },
    {
      "channel": 4,
      "note": 83,
      "start": 26.4509,
      "duration": 0.13,
      "velocity": 123,
      "chip": "ym2612"
    },
    {
      "channel": 5,
      "note": 44,
      "start": 26.4539,
      "duration": 0.1277,
      "velocity": 127,
      "chip": "ym2612"
    },
    {
      "channel": 0,
      "note": 43,
      "start": 26.5912,
      "duration": 0.274,
      "velocity": 111,
      "chip": "ym2612"
    },
    {
      "channel": 3,
      "note": 100,
      "start": 26.5929,
      "duration": 0.1299,
      "velocity": 98,
      "chip": "ym2612"
    },
    {
      "channel": 1,
      "note": 93,
      "start": 26.5947,
      "duration": 0.1283,
      "velocity": 98,
      "chip": "ym2612"
    },
    {
      "channel": 4,
      "note": 90,
      "start": 26.5964,
      "duration": 0.0589,
      "velocity": 123,
      "chip": "ym2612"
    },
    {
      "channel": 2,
      "note": 105,
      "start": 26.5981,
      "duration": 0.2681,
      "velocity": 118,
      "chip": "ym2612"
    },
    {
      "channel": 5,
      "note": 38,
      "start": 26.5996,
      "duration": 0.2669,
      "velocity": 127,
      "chip": "ym2612"
    },
    {
      "channel": 3,
      "note": 102,
      "start": 26.7297,
      "duration": 0.1357,
      "velocity": 98,
      "chip": "ym2612"
    },
    {
      "channel": 1,
      "note": 99,
      "start": 26.7315,
      "duration": 0.1341,
      "velocity": 98,
      "chip": "ym2612"
    },
    {
      "channel": 4,
      "note": 83,
      "start": 26.7332,
      "duration": 0.0594,
      "velocity": 123,
      "chip": "ym2612"
    },
    {
      "channel": 0,
      "note": 42,
      "start": 26.8866,
      "duration": 0.1334,
      "velocity": 111,
      "chip": "ym2612"
    },
    {
      "channel": 3,
      "note": 100,
      "start": 26.888,
      "duration": 0.1321,
      "velocity": 98,
      "chip": "ym2612"
    },
    {
      "channel": 1,
      "note": 97,
      "start": 26.8898,
      "duration": 0.1305,
      "velocity": 98,
      "chip": "ym2612"
    },
    {
      "channel": 4,
      "note": 88,
      "start": 26.8915,
      "duration": 0.0611,
      "velocity": 123,
      "chip": "ym2612"
    },
    {
      "channel": 2,
      "note": 105,
      "start": 26.8932,
      "duration": 0.2717,
      "velocity": 118,
      "chip": "ym2612"
    },
    {
      "channel": 0,
      "note": 42,
      "start": 27.0276,
      "duration": 0.2753,
      "velocity": 111,
      "chip": "ym2612"
    },
    {
      "channel": 3,
      "note": 99,
      "start": 27.0291,
      "duration": 0.1328,
      "velocity": 98,
      "chip": "ym2612"
    },
    {
      "channel": 1,
      "note": 95,
      "start": 27.0308,
      "duration": 0.1321,
      "velocity": 98,
      "chip": "ym2612"
    },
    {
      "channel": 4,
      "note": 83,
      "start": 27.0325,
      "duration": 0.0573,
      "velocity": 123,
      "chip": "ym2612"
    },
    {
      "channel": 3,
      "note": 99,
      "start": 27.167,
      "duration": 0.1334,
      "velocity": 98,
      "chip": "ym2612"
    },
    {
      "channel": 1,
      "note": 95,
      "start": 27.1689,
      "duration": 0.1316,
      "velocity": 98,
      "chip": "ym2612"
    },
    {
      "channel": 4,
      "note": 90,
      "start": 27.1711,
      "duration": 0.0617,
      "velocity": 123,
      "chip": "ym2612"
    },
    {
      "channel": 2,
      "note": 105,
      "start": 27.1728,
      "duration": 0.2656,
      "velocity": 118,
      "chip": "ym2612"
    },
    {
      "channel": 5,
      "note": 38,
      "start": 27.1743,
      "duration": 0.2643,
      "velocity": 127,
      "chip": "ym2612"
    },
    {
      "channel": 0,
      "note": 42,
      "start": 27.3081,
      "duration": 0.272,
      "velocity": 111,
      "chip": "ym2612"
    },
    {
      "channel": 3,
      "note": 100,
      "start": 27.3096,
      "duration": 0.128,
      "velocity": 98,
      "chip": "ym2612"
    },
    {
      "channel": 1,
      "note": 97,
      "start": 27.3113,
      "duration": 0.1265,
      "velocity": 98,
      "chip": "ym2612"
    },
    {
      "channel": 4,
      "note": 83,
      "start": 27.313,
      "duration": 0.0573,
      "velocity": 123,
      "chip": "ym2612"
    },
    {
      "channel": 3,
      "note": 100,
      "start": 27.4458,
      "duration": 0.1345,
      "velocity": 98,
      "chip": "ym2612"
    },
    {
      "channel": 1,
      "note": 97,
      "start": 27.4477,
      "duration": 0.1327,
      "velocity": 98,
      "chip": "ym2612"
    },
    {
      "channel": 4,
      "note": 88,
      "start": 27.4495,
      "duration": 0.0635,
      "velocity": 123,
      "chip": "ym2612"
    },
    {
      "channel": 2,
      "note": 105,
      "start": 27.4512,
      "duration": 0.2745,
      "velocity": 118,
      "chip": "ym2612"
    },
    {
      "channel": 5,
      "note": 38,
      "start": 27.4538,
      "duration": 0.2027,
      "velocity": 127,
      "chip": "ym2612"
    },
    {
      "channel": 0,
      "note": 42,
      "start": 27.5879,
      "duration": 0.2761,
      "velocity": 111,
      "chip": "ym2612"
    },
    {
      "channel": 3,
      "note": 97,
      "start": 27.5894,
      "duration": 0.1332,
      "velocity": 98,
      "chip": "ym2612"
    },
    {
      "channel": 1,
      "note": 94,
      "start": 27.5911,
      "duration": 0.1327,
      "velocity": 98,
      "chip": "ym2612"
    },
    {
      "channel": 4,
      "note": 83,
      "start": 27.5928,
      "duration": 0.0631,
      "velocity": 123,
      "chip": "ym2612"
    },
    {
      "channel": 3,
      "note": 97,
      "start": 27.7279,
      "duration": 0.2186,
      "velocity": 98,
      "chip": "ym2612"
    },
    {
      "channel": 1,
      "note": 94,
      "start": 27.7298,
      "duration": 0.2168,
      "velocity": 98,
      "chip": "ym2612"
    },
    {
      "channel": 4,
      "note": 90,
      "start": 27.7316,
      "duration": 0.0615,
      "velocity": 123,
      "chip": "ym2612"
    },
    {
      "channel": 2,
      "note": 105,
      "start": 27.7334,
      "duration": 0.2658,
      "velocity": 118,
      "chip": "ym2612"
    },
    {
      "channel": 5,
      "note": 44,
      "start": 27.7357,
      "duration": 0.2636,
      "velocity": 127,
      "chip": "ym2612"
    },
    {
      "channel": 0,
      "note": 42,
      "start": 27.867,
      "duration": 0.1305,
      "velocity": 111,
      "chip": "ym2612"
    },
    {
      "channel": 4,
      "note": 83,
      "start": 27.8698,
      "duration": 0.0606,
      "velocity": 123,
      "chip": "ym2612"
    },
    {
      "channel": 0,
      "note": 42,
      "start": 28.0072,
      "duration": 0.2744,
      "velocity": 111,
      "chip": "ym2612"
    },
    {
      "channel": 3,
      "note": 99,
      "start": 28.0087,
      "duration": 0.218,
      "velocity": 98,
      "chip": "ym2612"
    },
    {
      "channel": 1,
      "note": 95,
      "start": 28.0104,
      "duration": 0.2165,
      "velocity": 98,
      "chip": "ym2612"
    },
    {
      "channel": 4,
      "note": 95,
      "start": 28.0121,
      "duration": 0.0612,
      "velocity": 123,
      "chip": "ym2612"
    },
    {
      "channel": 2,
      "note": 105,
      "start": 28.0138,
      "duration": 0.2727,
      "velocity": 118,
      "chip": "ym2612"
    },
    {
      "channel": 5,
      "note": 38,
      "start": 28.0153,
      "duration": 0.2802,
      "velocity": 127,
      "chip": "ym2612"
    },
    {
      "channel": 4,
      "note": 83,
      "start": 28.1485,
      "duration": 0.0621,
      "velocity": 123,
      "chip": "ym2612"
    },
    {
      "channel": 0,
      "note": 42,
      "start": 28.2882,
      "duration": 0.2697,
      "velocity": 111,
      "chip": "ym2612"
    },
    {
      "channel": 3,
      "note": 95,
      "start": 28.2897,
      "duration": 0.1315,
      "velocity": 98,
      "chip": "ym2612"
    },
    {
      "channel": 1,
      "note": 90,
      "start": 28.2914,
      "duration": 0.1298,
      "velocity": 98,
      "chip": "ym2612"
    },
    {
      "channel": 4,
      "note": 90,
      "start": 28.2932,
      "duration": 0.0607,
      "velocity": 123,
      "chip": "ym2612"
    },
    {
      "channel": 2,
      "note": 105,
      "start": 28.2948,
      "duration": 0.2641,
      "velocity": 118,
      "chip": "ym2612"
    },
    {
      "channel": 3,
      "note": 102,
      "start": 28.428,
      "duration": 0.13,
      "velocity": 98,
      "chip": "ym2612"
    },
    {
      "channel": 1,
      "note": 99,
      "start": 28.4297,
      "duration": 0.1284,
      "velocity": 98,
      "chip": "ym2612"
    },
    {
      "channel": 4,
      "note": 83,
      "start": 28.4315,
      "duration": 0.0593,
      "velocity": 123,
      "chip": "ym2612"
    },
    {
      "channel": 0,
      "note": 42,
      "start": 28.5669,
      "duration": 0.1379,
      "velocity": 111,
      "chip": "ym2612"
    },
    {
      "channel": 3,
      "note": 100,
      "start": 28.5684,
      "duration": 0.1386,
      "velocity": 98,
      "chip": "ym2612"
    },
    {
      "channel": 1,
      "note": 97,
      "start": 28.5704,
      "duration": 0.1377,
      "velocity": 98,
      "chip": "ym2612"
    },
    {
      "channel": 4,
      "note": 88,
      "start": 28.5721,
      "duration": 0.0674,
      "velocity": 123,
      "chip": "ym2612"
    },
    {
      "channel": 2,
      "note": 105,
      "start": 28.5738,
      "duration": 0.2714,
      "velocity": 118,
      "chip": "ym2612"
    },
    {
      "channel": 5,
      "note": 38,
      "start": 28.5753,
      "duration": 0.2691,
      "velocity": 127,
      "chip": "ym2612"
    },
    {
      "channel": 0,
      "note": 42,
      "start": 28.7098,
      "duration": 0.2712,
      "velocity": 111,
      "chip": "ym2612"
    },
    {
      "channel": 3,
      "note": 99,
      "start": 28.7113,
      "duration": 0.1273,
      "velocity": 98,
      "chip": "ym2612"
    },
    {
      "channel": 1,
      "note": 95,
      "start": 28.713,
      "duration": 0.1257,
      "velocity": 98,
      "chip": "ym2612"
    },
    {
      "channel": 4,
      "note": 83,
      "start": 28.7147,
      "duration": 0.0566,
      "velocity": 123,
      "chip": "ym2612"
    },
    {
      "channel": 3,
      "note": 99,
      "start": 28.8473,
      "duration": 0.1338,
      "velocity": 98,
      "chip": "ym2612"
    },
    {
      "channel": 1,
      "note": 95,
      "start": 28.8493,
      "duration": 0.1321,
      "velocity": 98,
      "chip": "ym2612"
    },
    {
      "channel": 4,
      "note": 90,
      "start": 28.8512,
      "duration": 0.0627,
      "velocity": 123,
      "chip": "ym2612"
    },
    {
      "channel": 2,
      "note": 105,
      "start": 28.8531,
      "duration": 0.2722,
      "velocity": 118,
      "chip": "ym2612"
    },
    {
      "channel": 5,
      "note": 38,
      "start": 28.8546,
      "duration": 0.2708,
      "velocity": 127,
      "chip": "ym2612"
    },
    {
      "channel": 0,
      "note": 42,
      "start": 28.9889,
      "duration": 0.278,
      "velocity": 111,
      "chip": "ym2612"
    },
    {
      "channel": 3,
      "note": 100,
      "start": 28.9903,
      "duration": 0.1341,
      "velocity": 98,
      "chip": "ym2612"
    },
    {
      "channel": 1,
      "note": 97,
      "start": 28.9921,
      "duration": 0.1325,
      "velocity": 98,
      "chip": "ym2612"
    },
    {
      "channel": 4,
      "note": 83,
      "start": 28.9938,
      "duration": 0.0574,
      "velocity": 123,
      "chip": "ym2612"
    },
    {
      "channel": 3,
      "note": 100,
      "start": 29.1458,
      "duration": 0.1331,
      "velocity": 98,
      "chip": "ym2612"
    },
    {
      "channel": 1,
      "note": 97,
      "start": 29.1477,
      "duration": 0.1313,
      "velocity": 98,
      "chip": "ym2612"
    },
    {
      "channel": 4,
      "note": 88,
      "start": 29.1495,
      "duration": 0.0618,
      "velocity": 123,
      "chip": "ym2612"
    },
    {
      "channel": 2,
      "note": 105,
      "start": 29.1512,
      "duration": 0.2728,
      "velocity": 118,
      "chip": "ym2612"
    },
    {
      "channel": 5,
      "note": 38,
      "start": 29.1538,
      "duration": 0.1953,
      "velocity": 127,
      "chip": "ym2612"
    },
    {
      "channel": 0,
      "note": 42,
      "start": 29.2865,
      "duration": 0.2758,
      "velocity": 111,
      "chip": "ym2612"
    },
    {
      "channel": 3,
      "note": 97,
      "start": 29.288,
      "duration": 0.1328,
      "velocity": 98,
      "chip": "ym2612"
    },
    {
      "channel": 1,
      "note": 94,
      "start": 29.2898,
      "duration": 0.1323,
      "velocity": 98,
      "chip": "ym2612"
    },
    {
      "channel": 4,
      "note": 83,
      "start": 29.2914,
      "duration": 0.0571,
      "velocity": 123,
      "chip": "ym2612"
    },
    {
      "channel": 3,
      "note": 97,
      "start": 29.4262,
      "duration": 0.2358,
      "velocity": 98,
      "chip": "ym2612"
    },
    {
      "channel": 1,
      "note": 94,
      "start": 29.4281,
      "duration": 0.234,
      "velocity": 98,
      "chip": "ym2612"
    },
    {
      "channel": 4,
      "note": 90,
      "start": 29.4299,
      "duration": 0.0616,
      "velocity": 123,
      "chip": "ym2612"
    },
    {
      "channel": 2,
      "note": 105,
      "start": 29.4316,
      "duration": 0.2659,
      "velocity": 118,
      "chip": "ym2612"
    },
    {
      "channel": 5,
      "note": 44,
      "start": 29.434,
      "duration": 0.2636,
      "velocity": 127,
      "chip": "ym2612"
    },
    {
      "channel": 0,
      "note": 42,
      "start": 29.5653,
      "duration": 0.1305,
      "velocity": 111,
      "chip": "ym2612"
    },
    {
      "channel": 4,
      "note": 83,
      "start": 29.5678,
      "duration": 0.0609,
      "velocity": 123,
      "chip": "ym2612"
    },
    {
      "channel": 0,
      "note": 42,
      "start": 29.7055,
      "duration": 0.2746,
      "velocity": 111,
      "chip": "ym2612"
    },
    {
      "channel": 3,
      "note": 99,
      "start": 29.707,
      "duration": 0.2409,
      "velocity": 98,
      "chip": "ym2612"
    },
    {
      "channel": 1,
      "note": 95,
      "start": 29.7087,
      "duration": 0.2394,
      "velocity": 98,
      "chip": "ym2612"
    },
    {
      "channel": 4,
      "note": 95,
      "start": 29.7104,
      "duration": 0.0613,
      "velocity": 123,
      "chip": "ym2612"
    },
    {
      "channel": 2,
      "note": 105,
      "start": 29.7121,
      "duration": 0.2726,
      "velocity": 118,
      "chip": "ym2612"
    },
    {
      "channel": 5,
      "note": 38,
      "start": 29.7136,
      "duration": 0.2805,
      "velocity": 127,
      "chip": "ym2612"
    },
    {
      "channel": 4,
      "note": 83,
      "start": 29.8468,
      "duration": 0.0678,
      "velocity": 123,
      "chip": "ym2612"
    },
    {
      "channel": 0,
      "note": 42,
      "start": 29.9866,
      "duration": 0.2695,
      "velocity": 111,
      "chip": "ym2612"
    },
    {
      "channel": 3,
      "note": 100,
      "start": 29.9883,
      "duration": 1.2344,
      "velocity": 98,
      "chip": "ym2612"
    },
    {
      "channel": 1,
      "note": 97,
      "start": 29.99,
      "duration": 1.2337,
      "velocity": 98,
      "chip": "ym2612"
    },
    {
      "channel": 4,
      "note": 90,
      "start": 29.9917,
      "duration": 0.0601,
      "velocity": 123,
      "chip": "ym2612"
    },
    {
      "channel": 2,
      "note": 105,
      "start": 29.9934,
      "duration": 0.2644,
      "velocity": 118,
      "chip": "ym2612"
    },
    {
      "channel": 4,
      "note": 83,
      "start": 30.127,
      "duration": 0.0621,
      "velocity": 123,
      "chip": "ym2612"
    },
    {
      "channel": 0,
      "note": 40,
      "start": 30.2641,
      "duration": 0.1331,
      "velocity": 111,
      "chip": "ym2612"
    },
    {
      "channel": 4,
      "note": 88,
      "start": 30.2667,
      "duration": 0.0596,
      "velocity": 123,
      "chip": "ym2612"
    },
    {
      "channel": 2,
      "note": 105,
      "start": 30.2684,
      "duration": 0.2684,
      "velocity": 118,
      "chip": "ym2612"
    },
    {
      "channel": 5,
      "note": 38,
      "start": 30.2701,
      "duration": 0.2656,
      "velocity": 127,
      "chip": "ym2612"
    },
    {
      "channel": 0,
      "note": 40,
      "start": 30.4001,
      "duration": 0.2677,
      "velocity": 111,
      "chip": "ym2612"
    },
    {
      "channel": 4,
      "note": 83,
      "start": 30.4033,
      "duration": 0.0602,
      "velocity": 123,
      "chip": "ym2612"
    },
    {
      "channel": 4,
      "note": 90,
      "start": 30.5404,
      "duration": 0.0607,
      "velocity": 123,
      "chip": "ym2612"
    },
    {
      "channel": 2,
      "note": 105,
      "start": 30.5421,
      "duration": 0.2651,
      "velocity": 118,
      "chip": "ym2612"
    },
    {
      "channel": 5,
      "note": 38,
      "start": 30.5436,
      "duration": 0.2637,
      "velocity": 127,
      "chip": "ym2612"
    },
    {
      "channel": 0,
      "note": 40,
      "start": 30.6744,
      "duration": 0.2716,
      "velocity": 111,
      "chip": "ym2612"
    },
    {
      "channel": 4,
      "note": 83,
      "start": 30.6774,
      "duration": 0.0613,
      "velocity": 123,
      "chip": "ym2612"
    },
    {
      "channel": 4,
      "note": 88,
      "start": 30.8139,
      "duration": 0.0671,
      "velocity": 123,
      "chip": "ym2612"
    },
    {
      "channel": 2,
      "note": 105,
      "start": 30.8156,
      "duration": 0.2711,
      "velocity": 118,
      "chip": "ym2612"
    },
    {
      "channel": 5,
      "note": 38,
      "start": 30.818,
      "duration": 0.2012,
      "velocity": 127,
      "chip": "ym2612"
    },
    {
      "channel": 0,
      "note": 40,
      "start": 30.949,
      "duration": 0.2678,
      "velocity": 111,
      "chip": "ym2612"
    },
    {
      "channel": 4,
      "note": 83,
      "start": 30.9519,
      "duration": 0.0606,
      "velocity": 123,
      "chip": "ym2612"
    },
    {
      "channel": 4,
      "note": 90,
      "start": 31.0902,
      "duration": 0.0599,
      "velocity": 123,
      "chip": "ym2612"
    },
    {
      "channel": 2,
      "note": 105,
      "start": 31.0919,
      "duration": 0.2688,
      "velocity": 118,
      "chip": "ym2612"
    },
    {
      "channel": 5,
      "note": 44,
      "start": 31.0942,
      "duration": 0.2667,
      "velocity": 127,
      "chip": "ym2612"
    },
    {
      "channel": 0,
      "note": 40,
      "start": 31.2255,
      "duration": 0.1343,
      "velocity": 111,
      "chip": "ym2612"
    },
    {
      "channel": 3,
      "note": 102,
      "start": 31.2269,
      "duration": 0.133,
      "velocity": 98,
      "chip": "ym2612"
    },
    {
      "channel": 1,
      "note": 99,
      "start": 31.2288,
      "duration": 0.1312,
      "velocity": 98,
      "chip": "ym2612"
    },
    {
      "channel": 4,
      "note": 83,
      "start": 31.2307,
      "duration": 0.0565,
      "velocity": 123,
      "chip": "ym2612"
    },
    {
      "channel": 0,
      "note": 40,
      "start": 31.3818,
      "duration": 0.2738,
      "velocity": 111,
      "chip": "ym2612"
    },
    {
      "channel": 3,
      "note": 102,
      "start": 31.3834,
      "duration": 0.097,
      "velocity": 98,
      "chip": "ym2612"
    },
    {
      "channel": 1,
      "note": 99,
      "start": 31.3853,
      "duration": 0.0952,
      "velocity": 98,
      "chip": "ym2612"
    },
    {
      "channel": 4,
      "note": 95,
      "start": 31.3874,
      "duration": 0.0597,
      "velocity": 123,
      "chip": "ym2612"
    },
    {
      "channel": 2,
      "note": 105,
      "start": 31.3891,
      "duration": 0.2712,
      "velocity": 118,
      "chip": "ym2612"
    },
    {
      "channel": 5,
      "note": 38,
      "start": 31.3905,
      "duration": 0.2786,
      "velocity": 127,
      "chip": "ym2612"
    },
    {
      "channel": 3,
      "note": 100,
      "start": 31.5225,
      "duration": 0.1007,
      "velocity": 98,
      "chip": "ym2612"
    },
    {
      "channel": 1,
      "note": 97,
      "start": 31.5243,
      "duration": 0.0992,
      "velocity": 98,
      "chip": "ym2612"
    },
    {
      "channel": 4,
      "note": 83,
      "start": 31.526,
      "duration": 0.0641,
      "velocity": 123,
      "chip": "ym2612"
    },
    {
      "channel": 0,
      "note": 40,
      "start": 31.6619,
      "duration": 0.2697,
      "velocity": 111,
      "chip": "ym2612"
    },
    {
      "channel": 3,
      "note": 102,
      "start": 31.6634,
      "duration": 1.5495,
      "velocity": 98,
      "chip": "ym2612"
    },
    {
      "channel": 1,
      "note": 99,
      "start": 31.6651,
      "duration": 1.548,
      "velocity": 98,
      "chip": "ym2612"
    },
    {
      "channel": 4,
      "note": 90,
      "start": 31.6668,
      "duration": 0.0605,
      "velocity": 123,
      "chip": "ym2612"
    },
    {
      "channel": 2,
      "note": 105,
      "start": 31.6685,
      "duration": 0.2648,
      "velocity": 118,
      "chip": "ym2612"
    },
    {
      "channel": 4,
      "note": 83,
      "start": 31.8024,
      "duration": 0.0621,
      "velocity": 123,
      "chip": "ym2612"
    },
    {
      "channel": 0,
      "note": 40,
      "start": 31.9398,
      "duration": 0.1331,
      "velocity": 111,
      "chip": "ym2612"
    },
    {
      "channel": 4,
      "note": 88,
      "start": 31.9424,
      "duration": 0.0594,
      "velocity": 123,
      "chip": "ym2612"
    },
    {
      "channel": 2,
      "note": 105,
      "start": 31.9441,
      "duration": 0.2671,
      "velocity": 118,
      "chip": "ym2612"
    },
    {
      "channel": 5,
      "note": 38,
      "start": 31.9456,
      "duration": 0.2715,
      "velocity": 127,
      "chip": "ym2612"
    },
    {
      "channel": 0,
      "note": 40,
      "start": 32.0759,
      "duration": 0.2674,
      "velocity": 111,
      "chip": "ym2612"
    },
    {
      "channel": 4,
      "note": 83,
      "start": 32.0787,
      "duration": 0.0602,
      "velocity": 123,
      "chip": "ym2612"
    },
    {
      "channel": 4,
      "note": 90,
      "start": 32.2147,
      "duration": 0.0618,
      "velocity": 123,
      "chip": "ym2612"
    },
    {
      "channel": 2,
      "note": 105,
      "start": 32.2164,
      "duration": 0.2661,
      "velocity": 118,
      "chip": "ym2612"
    },
    {
      "channel": 0,
      "note": 40,
      "start": 32.3498,
      "duration": 0.2719,
      "velocity": 111,
      "chip": "ym2612"
    },
    {
      "channel": 4,
      "note": 83,
      "start": 32.3528,
      "duration": 0.0611,
      "velocity": 123,
      "chip": "ym2612"
    },
    {
      "channel": 4,
      "note": 88,
      "start": 32.49,
      "duration": 0.0664,
      "velocity": 123,
      "chip": "ym2612"
    },
    {
      "channel": 2,
      "note": 105,
      "start": 32.4917,
      "duration": 0.2685,
      "velocity": 118,
      "chip": "ym2612"
    },
    {
      "channel": 5,
      "note": 38,
      "start": 32.494,
      "duration": 0.2006,
      "velocity": 127,
      "chip": "ym2612"
    },
    {
      "channel": 0,
      "note": 40,
      "start": 32.6247,
      "duration": 0.2675,
      "velocity": 111,
      "chip": "ym2612"
    },
    {
      "channel": 4,
      "note": 83,
      "start": 32.6276,
      "duration": 0.0606,
      "velocity": 123,
      "chip": "ym2612"
    },
    {
      "channel": 4,
      "note": 90,
      "start": 32.7637,
      "duration": 0.0618,
      "velocity": 123,
      "chip": "ym2612"
    },
    {
      "channel": 2,
      "note": 105,
      "start": 32.7654,
      "duration": 0.1286,
      "velocity": 118,
      "chip": "ym2612"
    },
    {
      "channel": 0,
      "note": 40,
      "start": 32.8993,
      "duration": 0.1301,
      "velocity": 111,
      "chip": "ym2612"
    },
    {
      "channel": 4,
      "note": 83,
      "start": 32.9022,
      "duration": 0.0605,
      "velocity": 123,
      "chip": "ym2612"
    },
    {
      "channel": 5,
      "note": 44,
      "start": 32.9047,
      "duration": 0.0419,
      "velocity": 127,
      "chip": "ym2612"
    },
    {
      "channel": 5,
      "note": 44,
      "start": 32.9702,
      "duration": 0.0447,
      "velocity": 127,
      "chip": "ym2612"
    },
    {
      "channel": 0,
      "note": 40,
      "start": 33.038,
      "duration": 0.2697,
      "velocity": 111,
      "chip": "ym2612"
    },
    {
      "channel": 4,
      "note": 95,
      "start": 33.0409,
      "duration": 0.0644,
      "velocity": 123,
      "chip": "ym2612"
    },
    {
      "channel": 2,
      "note": 105,
      "start": 33.0426,
      "duration": 0.1339,
      "velocity": 118,
      "chip": "ym2612"
    },
    {
      "channel": 5,
      "note": 44,
      "start": 33.0441,
      "duration": 0.0971,
      "velocity": 127,
      "chip": "ym2612"
    },
    {
      "channel": 4,
      "note": 83,
      "start": 33.1756,
      "duration": 0.0616,
      "velocity": 123,
      "chip": "ym2612"
    },
    {
      "channel": 5,
      "note": 44,
      "start": 33.1783,
      "duration": 0.1281,
      "velocity": 127,
      "chip": "ym2612"
    },
    {
      "channel": 0,
      "note": 40,
      "start": 33.3148,
      "duration": 0.1321,
      "velocity": 111,
      "chip": "ym2612"
    },
    {
      "channel": 3,
      "note": 100,
      "start": 33.3164,
      "duration": 0.7714,
      "velocity": 98,
      "chip": "ym2612"
    },
    {
      "channel": 1,
      "note": 97,
      "start": 33.3182,
      "duration": 0.7697,
      "velocity": 98,
      "chip": "ym2612"
    },
    {
      "channel": 4,
      "note": 90,
      "start": 33.3202,
      "duration": 0.0596,
      "velocity": 123,
      "chip": "ym2612"
    },
    {
      "channel": 2,
      "note": 105,
      "start": 33.3219,
      "duration": 0.27,
      "velocity": 118,
      "chip": "ym2612"
    },
    {
      "channel": 5,
      "note": 38,
      "start": 33.3234,
      "duration": 0.2687,
      "velocity": 127,
      "chip": "ym2612"
    },
    {
      "channel": 0,
      "note": 43,
      "start": 33.4537,
      "duration": 0.2733,
      "velocity": 111,
      "chip": "ym2612"
    },
    {
      "channel": 4,
      "note": 83,
      "start": 33.4562,
      "duration": 0.0608,
      "velocity": 123,
      "chip": "ym2612"
    },
    {
      "channel": 4,
      "note": 88,
      "start": 33.61,
      "duration": 0.0616,
      "velocity": 123,
      "chip": "ym2612"
    },
    {
      "channel": 2,
      "note": 105,
      "start": 33.6117,
      "duration": 0.2716,
      "velocity": 118,
      "chip": "ym2612"
    },
    {
      "channel": 0,
      "note": 43,
      "start": 33.7454,
      "duration": 0.1347,
      "velocity": 111,
      "chip": "ym2612"
    },
    {
      "channel": 4,
      "note": 83,
      "start": 33.7483,
      "duration": 0.0661,
      "velocity": 123,
      "chip": "ym2612"
    },
    {
      "channel": 0,
      "note": 43,
      "start": 33.8849,
      "duration": 0.2653,
      "velocity": 111,
      "chip": "ym2612"
    },
    {
      "channel": 4,
      "note": 90,
      "start": 33.888,
      "duration": 0.0578,
      "velocity": 123,
      "chip": "ym2612"
    },
    {
      "channel": 2,
      "note": 105,
      "start": 33.8898,
      "duration": 0.2622,
      "velocity": 118,
      "chip": "ym2612"
    },
    {
      "channel": 5,
      "note": 38,
      "start": 33.8912,
      "duration": 0.2608,
      "velocity": 127,
      "chip": "ym2612"
    },
    {
      "channel": 4,
      "note": 83,
      "start": 34.0213,
      "duration": 0.0618,
      "velocity": 123,
      "chip": "ym2612"
    },
    {
      "channel": 0,
      "note": 43,
      "start": 34.1601,
      "duration": 0.274,
      "velocity": 111,
      "chip": "ym2612"
    },
    {
      "channel": 3,
      "note": 98,
      "start": 34.1615,
      "duration": 0.2522,
      "velocity": 98,
      "chip": "ym2612"
    },
    {
      "channel": 1,
      "note": 95,
      "start": 34.1632,
      "duration": 0.2506,
      "velocity": 98,
      "chip": "ym2612"
    },
    {
      "channel": 4,
      "note": 88,
      "start": 34.165,
      "duration": 0.0611,
      "velocity": 123,
      "chip": "ym2612"
    },
    {
      "channel": 2,
      "note": 105,
      "start": 34.1667,
      "duration": 0.2727,
      "velocity": 118,
      "chip": "ym2612"
    },
    {
      "channel": 5,
      "note": 38,
      "start": 34.169,
      "duration": 0.2013,
      "velocity": 127,
      "chip": "ym2612"
    },
    {
      "channel": 4,
      "note": 83,
      "start": 34.3012,
      "duration": 0.0621,
      "velocity": 123,
      "chip": "ym2612"
    },
    {
      "channel": 0,
      "note": 43,
      "start": 34.441,
      "duration": 0.2695,
      "velocity": 111,
      "chip": "ym2612"
    },
    {
      "channel": 3,
      "note": 98,
      "start": 34.4425,
      "duration": 0.2514,
      "velocity": 98,
      "chip": "ym2612"
    },
    {
      "channel": 1,
      "note": 95,
      "start": 34.4443,
      "duration": 0.2498,
      "velocity": 98,
      "chip": "ym2612"
    },
    {
      "channel": 4,
      "note": 90,
      "start": 34.446,
      "duration": 0.0602,
      "velocity": 123,
      "chip": "ym2612"
    },
    {
      "channel": 2,
      "note": 105,
      "start": 34.4477,
      "duration": 0.2646,
      "velocity": 118,
      "chip": "ym2612"
    },
    {
      "channel": 5,
      "note": 44,
      "start": 34.45,
      "duration": 0.2624,
      "velocity": 127,
      "chip": "ym2612"
    },
    {
      "channel": 4,
      "note": 83,
      "start": 34.5814,
      "duration": 0.0622,
      "velocity": 123,
      "chip": "ym2612"
    },
    {
      "channel": 0,
      "note": 43,
      "start": 34.7202,
      "duration": 0.2744,
      "velocity": 111,
      "chip": "ym2612"
    },
    {
      "channel": 3,
      "note": 100,
      "start": 34.7217,
      "duration": 0.2524,
      "velocity": 98,
      "chip": "ym2612"
    },
    {
      "channel": 1,
      "note": 97,
      "start": 34.7234,
      "duration": 0.2508,
      "velocity": 98,
      "chip": "ym2612"
    },
    {
      "channel": 4,
      "note": 95,
      "start": 34.7251,
      "duration": 0.067,
      "velocity": 123,
      "chip": "ym2612"
    },
    {
      "channel": 2,
      "note": 105,
      "start": 34.7269,
      "duration": 0.2722,
      "velocity": 118,
      "chip": "ym2612"
    },
    {
      "channel": 5,
      "note": 38,
      "start": 34.7283,
      "duration": 0.2802,
      "velocity": 127,
      "chip": "ym2612"
    },
    {
      "channel": 4,
      "note": 83,
      "start": 34.8616,
      "duration": 0.0621,
      "velocity": 123,
      "chip": "ym2612"
    },
    {
      "channel": 0,
      "note": 43,
      "start": 35.0007,
      "duration": 0.133,
      "velocity": 111,
      "chip": "ym2612"
    },
    {
      "channel": 3,
      "note": 102,
      "start": 35.0024,
      "duration": 0.5149,
      "velocity": 98,
      "chip": "ym2612"
    },
    {
      "channel": 1,
      "note": 98,
      "start": 35.0044,
      "duration": 0.5131,
      "velocity": 98,
      "chip": "ym2612"
    },
    {
      "channel": 4,
      "note": 90,
      "start": 35.0061,
      "duration": 0.0605,
      "velocity": 123,
      "chip": "ym2612"
    },
    {
      "channel": 2,
      "note": 105,
      "start": 35.0078,
      "duration": 0.2692,
      "velocity": 118,
      "chip": "ym2612"
    },
    {
      "channel": 0,
      "note": 48,
      "start": 35.1404,
      "duration": 0.2715,
      "velocity": 111,
      "chip": "ym2612"
    },
    {
      "channel": 4,
      "note": 83,
      "start": 35.1429,
      "duration": 0.0612,
      "velocity": 123,
      "chip": "ym2612"
    },
    {
      "channel": 4,
      "note": 88,
      "start": 35.2802,
      "duration": 0.0609,
      "velocity": 123,
      "chip": "ym2612"
    },
    {
      "channel": 2,
      "note": 105,
      "start": 35.2819,
      "duration": 0.2656,
      "velocity": 118,
      "chip": "ym2612"
    },
    {
      "channel": 5,
      "note": 38,
      "start": 35.2834,
      "duration": 0.2642,
      "velocity": 127,
      "chip": "ym2612"
    },
    {
      "channel": 0,
      "note": 48,
      "start": 35.4149,
      "duration": 0.2735,
      "velocity": 111,
      "chip": "ym2612"
    },
    {
      "channel": 4,
      "note": 83,
      "start": 35.4178,
      "duration": 0.0605,
      "velocity": 123,
      "chip": "ym2612"
    },
    {
      "channel": 3,
      "note": 103,
      "start": 35.555,
      "duration": 0.517,
      "velocity": 98,
      "chip": "ym2612"
    },
    {
      "channel": 1,
      "note": 100,
      "start": 35.5567,
      "duration": 0.5155,
      "velocity": 98,
      "chip": "ym2612"
    },
    {
      "channel": 4,
      "note": 90,
      "start": 35.5584,
      "duration": 0.0631,
      "velocity": 123,
      "chip": "ym2612"
    },
    {
      "channel": 2,
      "note": 105,
      "start": 35.5601,
      "duration": 0.2733,
      "velocity": 118,
      "chip": "ym2612"
    },
    {
      "channel": 5,
      "note": 38,
      "start": 35.5616,
      "duration": 0.272,
      "velocity": 127,
      "chip": "ym2612"
    },
    {
      "channel": 0,
      "note": 48,
      "start": 35.6949,
      "duration": 0.2737,
      "velocity": 111,
      "chip": "ym2612"
    },
    {
      "channel": 4,
      "note": 83,
      "start": 35.6975,
      "duration": 0.0668,
      "velocity": 123,
      "chip": "ym2612"
    },
    {
      "channel": 4,
      "note": 88,
      "start": 35.852,
      "duration": 0.0609,
      "velocity": 123,
      "chip": "ym2612"
    },
    {
      "channel": 2,
      "note": 105,
      "start": 35.854,
      "duration": 0.2714,
      "velocity": 118,
      "chip": "ym2612"
    },
    {
      "channel": 5,
      "note": 38,
      "start": 35.8563,
      "duration": 0.2002,
      "velocity": 127,
      "chip": "ym2612"
    },
    {
      "channel": 0,
      "note": 48,
      "start": 35.9869,
      "duration": 0.277,
      "velocity": 111,
      "chip": "ym2612"
    },
    {
      "channel": 4,
      "note": 83,
      "start": 35.9898,
      "duration": 0.066,
      "velocity": 123,
      "chip": "ym2612"
    },
    {
      "channel": 3,
      "note": 96,
      "start": 36.1275,
      "duration": 0.5163,
      "velocity": 98,
      "chip": "ym2612"
    },
    {
      "channel": 1,
      "note": 93,
      "start": 36.1292,
      "duration": 0.5147,
      "velocity": 98,
      "chip": "ym2612"
    },
    {
      "channel": 4,
      "note": 90,
      "start": 36.1309,
      "duration": 0.0622,
      "velocity": 123,
      "chip": "ym2612"
    },
    {
      "channel": 2,
      "note": 105,
      "start": 36.1327,
      "duration": 0.2665,
      "velocity": 118,
      "chip": "ym2612"
    },
    {
      "channel": 5,
      "note": 44,
      "start": 36.135,
      "duration": 0.2642,
      "velocity": 127,
      "chip": "ym2612"
    },
    {
      "channel": 0,
      "note": 48,
      "start": 36.2669,
      "duration": 0.1305,
      "velocity": 111,
      "chip": "ym2612"
    },
    {
      "channel": 4,
      "note": 83,
      "start": 36.2695,
      "duration": 0.0608,
      "velocity": 123,
      "chip": "ym2612"
    },
    {
      "channel": 0,
      "note": 48,
      "start": 36.4052,
      "duration": 0.2706,
      "velocity": 111,
      "chip": "ym2612"
    },
    {
      "channel": 4,
      "note": 95,
      "start": 36.4079,
      "duration": 0.0597,
      "velocity": 123,
      "chip": "ym2612"
    },
    {
      "channel": 2,
      "note": 105,
      "start": 36.4096,
      "duration": 0.2708,
      "velocity": 118,
      "chip": "ym2612"
    },
    {
      "channel": 5,
      "note": 38,
      "start": 36.4111,
      "duration": 0.2787,
      "velocity": 127,
      "chip": "ym2612"
    },
    {
      "channel": 4,
      "note": 83,
      "start": 36.5432,
      "duration": 0.0618,
      "velocity": 123,
      "chip": "ym2612"
    },
    {
      "channel": 0,
      "note": 48,
      "start": 36.682,
      "duration": 0.4111,
      "velocity": 111,
      "chip": "ym2612"
    },
    {
      "channel": 3,
      "note": 103,
      "start": 36.6837,
      "duration": 1.0294,
      "velocity": 98,
      "chip": "ym2612"
    },
    {
      "channel": 1,
      "note": 95,
      "start": 36.6854,
      "duration": 1.0278,
      "velocity": 98,
      "chip": "ym2612"
    },
    {
      "channel": 4,
      "note": 90,
      "start": 36.6874,
      "duration": 0.0604,
      "velocity": 123,
      "chip": "ym2612"
    },
    {
      "channel": 2,
      "note": 105,
      "start": 36.6891,
      "duration": 0.2653,
      "velocity": 118,
      "chip": "ym2612"
    },
    {
      "channel": 4,
      "note": 83,
      "start": 36.8229,
      "duration": 0.0621,
      "velocity": 123,
      "chip": "ym2612"
    },
    {
      "channel": 4,
      "note": 88,
      "start": 36.9613,
      "duration": 0.0667,
      "velocity": 123,
      "chip": "ym2612"
    },
    {
      "channel": 2,
      "note": 105,
      "start": 36.963,
      "duration": 0.2702,
      "velocity": 118,
      "chip": "ym2612"
    },
    {
      "channel": 5,
      "note": 38,
      "start": 36.9645,
      "duration": 0.2679,
      "velocity": 127,
      "chip": "ym2612"
    },
    {
      "channel": 0,
      "note": 49,
      "start": 37.0961,
      "duration": 0.1305,
      "velocity": 111,
      "chip": "ym2612"
    },
    {
      "channel": 4,
      "note": 83,
      "start": 37.0989,
      "duration": 0.0606,
      "velocity": 123,
      "chip": "ym2612"
    },
    {
      "channel": 0,
      "note": 49,
      "start": 37.2348,
      "duration": 0.2702,
      "velocity": 111,
      "chip": "ym2612"
    },
    {
      "channel": 4,
      "note": 90,
      "start": 37.238,
      "duration": 0.0591,
      "velocity": 123,
      "chip": "ym2612"
    },
    {
      "channel": 2,
      "note": 105,
      "start": 37.2397,
      "duration": 0.2685,
      "velocity": 118,
      "chip": "ym2612"
    },
    {
      "channel": 5,
      "note": 38,
      "start": 37.2412,
      "duration": 0.2661,
      "velocity": 127,
      "chip": "ym2612"
    },
    {
      "channel": 4,
      "note": 83,
      "start": 37.3725,
      "duration": 0.0618,
      "velocity": 123,
      "chip": "ym2612"
    },
    {
      "channel": 0,
      "note": 49,
      "start": 37.5098,
      "duration": 0.2657,
      "velocity": 111,
      "chip": "ym2612"
    },
    {
      "channel": 4,
      "note": 88,
      "start": 37.5127,
      "duration": 0.0587,
      "velocity": 123,
      "chip": "ym2612"
    },
    {
      "channel": 2,
      "note": 105,
      "start": 37.5144,
      "duration": 0.2628,
      "velocity": 118,
      "chip": "ym2612"
    },
    {
      "channel": 5,
      "note": 38,
      "start": 37.5168,
      "duration": 0.1923,
      "velocity": 127,
      "chip": "ym2612"
    },
    {
      "channel": 4,
      "note": 83,
      "start": 37.6467,
      "duration": 0.0617,
      "velocity": 123,
      "chip": "ym2612"
    },
    {
      "channel": 0,
      "note": 49,
      "start": 37.7845,
      "duration": 0.2769,
      "velocity": 111,
      "chip": "ym2612"
    },
    {
      "channel": 3,
      "note": 102,
      "start": 37.786,
      "duration": 0.2531,
      "velocity": 98,
      "chip": "ym2612"
    },
    {
      "channel": 4,
      "note": 90,
      "start": 37.7885,
      "duration": 0.0629,
      "velocity": 123,
      "chip": "ym2612"
    },
    {
      "channel": 2,
      "note": 105,
      "start": 37.7902,
      "duration": 0.273,
      "velocity": 118,
      "chip": "ym2612"
    },
    {
      "channel": 5,
      "note": 44,
      "start": 37.7925,
      "duration": 0.2707,
      "velocity": 127,
      "chip": "ym2612"
    },
    {
      "channel": 4,
      "note": 83,
      "start": 37.9266,
      "duration": 0.068,
      "velocity": 123,
      "chip": "ym2612"
    },
    {
      "channel": 0,
      "note": 49,
      "start": 38.0823,
      "duration": 0.2748,
      "velocity": 111,
      "chip": "ym2612"
    },
    {
      "channel": 3,
      "note": 95,
      "start": 38.0838,
      "duration": 0.2529,
      "velocity": 98,
      "chip": "ym2612"
    },
    {
      "channel": 4,
      "note": 95,
      "start": 38.0861,
      "duration": 0.0628,
      "velocity": 123,
      "chip": "ym2612"
    },
    {
      "channel": 2,
      "note": 105,
      "start": 38.088,
      "duration": 0.2736,
      "velocity": 118,
      "chip": "ym2612"
    },
    {
      "channel": 5,
      "note": 38,
      "start": 38.0895,
      "duration": 0.2815,
      "velocity": 127,
      "chip": "ym2612"
    },
    {
      "channel": 4,
      "note": 83,
      "start": 38.2239,
      "duration": 0.0678,
      "velocity": 123,
      "chip": "ym2612"
    },
    {
      "channel": 0,
      "note": 49,
      "start": 38.3633,
      "duration": 0.1327,
      "velocity": 111,
      "chip": "ym2612"
    },
    {
      "channel": 3,
      "note": 97,
      "start": 38.365,
      "duration": 0.7722,
      "velocity": 98,
      "chip": "ym2612"
    },
    {
      "channel": 1,
      "note": 97,
      "start": 38.3667,
      "duration": 0.7706,
      "velocity": 98,
      "chip": "ym2612"
    },
    {
      "channel": 4,
      "note": 90,
      "start": 38.3684,
      "duration": 0.0605,
      "velocity": 123,
      "chip": "ym2612"
    },
    {
      "channel": 2,
      "note": 105,
      "start": 38.3704,
      "duration": 0.2649,
      "velocity": 118,
      "chip": "ym2612"
    },
    {
      "channel": 0,
      "note": 42,
      "start": 38.5026,
      "duration": 0.2718,
      "velocity": 111,
      "chip": "ym2612"
    },
    {
      "channel": 4,
      "note": 83,
      "start": 38.5053,
      "duration": 0.0608,
      "velocity": 123,
      "chip": "ym2612"
    },
    {
      "channel": 4,
      "note": 88,
      "start": 38.6424,
      "duration": 0.0613,
      "velocity": 123,
      "chip": "ym2612"
    },
    {
      "channel": 2,
      "note": 105,
      "start": 38.6441,
      "duration": 0.2693,
      "velocity": 118,
      "chip": "ym2612"
    },
    {
      "channel": 5,
      "note": 38,
      "start": 38.6456,
      "duration": 0.2751,
      "velocity": 127,
      "chip": "ym2612"
    },
    {
      "channel": 0,
      "note": 42,
      "start": 38.7773,
      "duration": 0.1304,
      "velocity": 111,
      "chip": "ym2612"
    },
    {
      "channel": 4,
      "note": 83,
      "start": 38.7802,
      "duration": 0.0604,
      "velocity": 123,
      "chip": "ym2612"
    },
    {
      "channel": 0,
      "note": 42,
      "start": 38.9151,
      "duration": 0.2671,
      "velocity": 111,
      "chip": "ym2612"
    },
    {
      "channel": 4,
      "note": 90,
      "start": 38.918,
      "duration": 0.0602,
      "velocity": 123,
      "chip": "ym2612"
    },
    {
      "channel": 2,
      "note": 105,
      "start": 38.92,
      "duration": 0.2639,
      "velocity": 118,
      "chip": "ym2612"
    },
    {
      "channel": 4,
      "note": 83,
      "start": 39.0537,
      "duration": 0.0618,
      "velocity": 123,
      "chip": "ym2612"
    },
    {
      "channel": 0,
      "note": 42,
      "start": 39.1923,
      "duration": 0.2737,
      "velocity": 111,
      "chip": "ym2612"
    },
    {
      "channel": 3,
      "note": 102,
      "start": 39.1938,
      "duration": 0.7723,
      "velocity": 98,
      "chip": "ym2612"
    },
    {
      "channel": 1,
      "note": 99,
      "start": 39.1957,
      "duration": 0.7705,
      "velocity": 98,
      "chip": "ym2612"
    },
    {
      "channel": 4,
      "note": 88,
      "start": 39.1976,
      "duration": 0.0662,
      "velocity": 123,
      "chip": "ym2612"
    },
    {
      "channel": 2,
      "note": 105,
      "start": 39.1993,
      "duration": 0.2692,
      "velocity": 118,
      "chip": "ym2612"
    },
    {
      "channel": 5,
      "note": 38,
      "start": 39.2016,
      "duration": 0.2004,
      "velocity": 127,
      "chip": "ym2612"
    },
    {
      "channel": 4,
      "note": 83,
      "start": 39.3332,
      "duration": 0.0622,
      "velocity": 123,
      "chip": "ym2612"
    },
    {
      "channel": 0,
      "note": 42,
      "start": 39.4703,
      "duration": 0.2702,
      "velocity": 111,
      "chip": "ym2612"
    },
    {
      "channel": 4,
      "note": 90,
      "start": 39.4732,
      "duration": 0.0593,
      "velocity": 123,
      "chip": "ym2612"
    },
    {
      "channel": 2,
      "note": 105,
      "start": 39.4748,
      "duration": 0.1268,
      "velocity": 118,
      "chip": "ym2612"
    },
    {
      "channel": 4,
      "note": 83,
      "start": 39.6082,
      "duration": 0.0618,
      "velocity": 123,
      "chip": "ym2612"
    },
    {
      "channel": 5,
      "note": 44,
      "start": 39.6104,
      "duration": 0.0439,
      "velocity": 127,
      "chip": "ym2612"
    },
    {
      "channel": 5,
      "note": 44,
      "start": 39.6773,
      "duration": 0.0452,
      "velocity": 127,
      "chip": "ym2612"
    },
    {
      "channel": 0,
      "note": 44,
      "start": 39.7454,
      "duration": 0.2658,
      "velocity": 111,
      "chip": "ym2612"
    },
    {
      "channel": 4,
      "note": 95,
      "start": 39.7485,
      "duration": 0.0588,
      "velocity": 123,
      "chip": "ym2612"
    },
    {
      "channel": 2,
      "note": 105,
      "start": 39.7502,
      "duration": 0.1259,
      "velocity": 118,
      "chip": "ym2612"
    },
    {
      "channel": 5,
      "note": 44,
      "start": 39.7517,
      "duration": 0.0906,
      "velocity": 127,
      "chip": "ym2612"
    },
    {
      "channel": 4,
      "note": 83,
      "start": 39.8825,
      "duration": 0.0621,
      "velocity": 123,
      "chip": "ym2612"
    },
    {
      "channel": 5,
      "note": 44,
      "start": 39.8856,
      "duration": 0.1279,
      "velocity": 127,
      "chip": "ym2612"
    },
    {
      "channel": 0,
      "note": 46,
      "start": 40.0227,
      "duration": 1.6583,
      "velocity": 79,
      "chip": "ym2612"
    },
    {
      "channel": 3,
      "note": 100,
      "start": 40.0245,
      "duration": 1.1025,
      "velocity": 98,
      "chip": "ym2612"
    },
    {
      "channel": 4,
      "note": 90,
      "start": 40.0269,
      "duration": 0.1289,
      "velocity": 123,
      "chip": "ym2612"
    },
    {
      "channel": 2,
      "note": 105,
      "start": 40.0286,
      "duration": 0.2704,
      "velocity": 118,
      "chip": "ym2612"
    },
    {
      "channel": 5,
      "note": 38,
      "start": 40.03,
      "duration": 0.269,
      "velocity": 127,
      "chip": "ym2612"
    },
    {
      "channel": 1,
      "note": 97,
      "start": 40.1629,
      "duration": 0.1354,
      "velocity": 123,
      "chip": "ym2612"
    },
    {
      "channel": 4,
      "note": 83,
      "start": 40.317,
      "duration": 0.1378,
      "velocity": 123,
      "chip": "ym2612"
    },
    {
      "channel": 2,
      "note": 105,
      "start": 40.3185,
      "duration": 0.2709,
      "velocity": 118,
      "chip": "ym2612"
    },
    {
      "channel": 1,
      "note": 88,
      "start": 40.4539,
      "duration": 0.1305,
      "velocity": 123,
      "chip": "ym2612"
    },
    {
      "channel": 4,
      "note": 83,
      "start": 40.5927,
      "duration": 0.1293,
      "velocity": 123,
      "chip": "ym2612"
    },
    {
      "channel": 2,
      "note": 105,
      "start": 40.5942,
      "duration": 0.2651,
      "velocity": 118,
      "chip": "ym2612"
    },
    {
      "channel": 5,
      "note": 38,
      "start": 40.5957,
      "duration": 0.2638,
      "velocity": 127,
      "chip": "ym2612"
    },
    {
      "channel": 1,
      "note": 90,
      "start": 40.7279,
      "duration": 0.1308,
      "velocity": 123,
      "chip": "ym2612"
    },
    {
      "channel": 4,
      "note": 83,
      "start": 40.8658,
      "duration": 0.1379,
      "velocity": 123,
      "chip": "ym2612"
    },
    {
      "channel": 2,
      "note": 105,
      "start": 40.8673,
      "duration": 0.2717,
      "velocity": 118,
      "chip": "ym2612"
    },
    {
      "channel": 5,
      "note": 38,
      "start": 40.8699,
      "duration": 0.202,
      "velocity": 127,
      "chip": "ym2612"
    },
    {
      "channel": 1,
      "note": 88,
      "start": 41.0026,
      "duration": 0.1305,
      "velocity": 123,
      "chip": "ym2612"
    },
    {
      "channel": 3,
      "note": 99,
      "start": 41.1412,
      "duration": 0.1288,
      "velocity": 98,
      "chip": "ym2612"
    },
    {
      "channel": 4,
      "note": 83,
      "start": 41.1436,
      "duration": 0.1271,
      "velocity": 123,
      "chip": "ym2612"
    },
    {
      "channel": 2,
      "note": 105,
      "start": 41.1451,
      "duration": 0.2684,
      "velocity": 118,
      "chip": "ym2612"
    },
    {
      "channel": 5,
      "note": 44,
      "start": 41.1475,
      "duration": 0.2651,
      "velocity": 127,
      "chip": "ym2612"
    },
    {
      "channel": 3,
      "note": 99,
      "start": 41.2763,
      "duration": 0.1079,
      "velocity": 98,
      "chip": "ym2612"
    },
    {
      "channel": 1,
      "note": 90,
      "start": 41.278,
      "duration": 0.1385,
      "velocity": 123,
      "chip": "ym2612"
    },
    {
      "channel": 3,
      "note": 99,
      "start": 41.4156,
      "duration": 0.1172,
      "velocity": 98,
      "chip": "ym2612"
    },
    {
      "channel": 4,
      "note": 83,
      "start": 41.4175,
      "duration": 0.1277,
      "velocity": 123,
      "chip": "ym2612"
    },
    {
      "channel": 2,
      "note": 105,
      "start": 41.419,
      "duration": 0.2633,
      "velocity": 118,
      "chip": "ym2612"
    },
    {
      "channel": 5,
      "note": 38,
      "start": 41.4207,
      "duration": 0.2617,
      "velocity": 127,
      "chip": "ym2612"
    },
    {
      "channel": 3,
      "note": 100,
      "start": 41.5508,
      "duration": 0.1197,
      "velocity": 98,
      "chip": "ym2612"
    },
    {
      "channel": 1,
      "note": 95,
      "start": 41.5525,
      "duration": 0.1291,
      "velocity": 123,
      "chip": "ym2612"
    },
    {
      "channel": 0,
      "note": 47,
      "start": 41.689,
      "duration": 1.6503,
      "velocity": 79,
      "chip": "ym2612"
    },
    {
      "channel": 3,
      "note": 102,
      "start": 41.6906,
      "duration": 1.0318,
      "velocity": 98,
      "chip": "ym2612"
    },
    {
      "channel": 4,
      "note": 83,
      "start": 41.6928,
      "duration": 0.1272,
      "velocity": 123,
      "chip": "ym2612"
    },
    {
      "channel": 2,
      "note": 105,
      "start": 41.6944,
      "duration": 0.2671,
      "velocity": 118,
      "chip": "ym2612"
    },
    {
      "channel": 1,
      "note": 90,
      "start": 41.8258,
      "duration": 0.1376,
      "velocity": 123,
      "chip": "ym2612"
    },
    {
      "channel": 4,
      "note": 83,
      "start": 41.9643,
      "duration": 0.1299,
      "velocity": 123,
      "chip": "ym2612"
    },
    {
      "channel": 2,
      "note": 105,
      "start": 41.9658,
      "duration": 0.2658,
      "velocity": 118,
      "chip": "ym2612"
    },
    {
      "channel": 5,
      "note": 38,
      "start": 41.9673,
      "duration": 0.2644,
      "velocity": 127,
      "chip": "ym2612"
    },
    {
      "channel": 1,
      "note": 88,
      "start": 42.1006,
      "duration": 0.1303,
      "velocity": 123,
      "chip": "ym2612"
    },
    {
      "channel": 4,
      "note": 83,
      "start": 42.2386,
      "duration": 0.1302,
      "velocity": 123,
      "chip": "ym2612"
    },
    {
      "channel": 2,
      "note": 105,
      "start": 42.24,
      "duration": 0.2722,
      "velocity": 118,
      "chip": "ym2612"
    },
    {
      "channel": 5,
      "note": 38,
      "start": 42.2415,
      "duration": 0.2708,
      "velocity": 127,
      "chip": "ym2612"
    },
    {
      "channel": 1,
      "note": 90,
      "start": 42.375,
      "duration": 0.1366,
      "velocity": 123,
      "chip": "ym2612"
    },
    {
      "channel": 4,
      "note": 83,
      "start": 42.5308,
      "duration": 0.1366,
      "velocity": 123,
      "chip": "ym2612"
    },
    {
      "channel": 2,
      "note": 105,
      "start": 42.5323,
      "duration": 0.2705,
      "velocity": 118,
      "chip": "ym2612"
    },
    {
      "channel": 5,
      "note": 38,
      "start": 42.5346,
      "duration": 0.201,
      "velocity": 127,
      "chip": "ym2612"
    },
    {
      "channel": 1,
      "note": 88,
      "start": 42.6666,
      "duration": 0.1305,
      "velocity": 123,
      "chip": "ym2612"
    },
    {
      "channel": 3,
      "note": 99,
      "start": 42.8052,
      "duration": 0.2487,
      "velocity": 98,
      "chip": "ym2612"
    },
    {
      "channel": 4,
      "note": 83,
      "start": 42.8076,
      "duration": 0.1272,
      "velocity": 123,
      "chip": "ym2612"
    },
    {
      "channel": 2,
      "note": 105,
      "start": 42.809,
      "duration": 0.2631,
      "velocity": 118,
      "chip": "ym2612"
    },
    {
      "channel": 5,
      "note": 44,
      "start": 42.8114,
      "duration": 0.2609,
      "velocity": 127,
      "chip": "ym2612"
    },
    {
      "channel": 1,
      "note": 90,
      "start": 42.9408,
      "duration": 0.1307,
      "velocity": 123,
      "chip": "ym2612"
    },
    {
      "channel": 3,
      "note": 99,
      "start": 43.0786,
      "duration": 0.2498,
      "velocity": 98,
      "chip": "ym2612"
    },
    {
      "channel": 4,
      "note": 83,
      "start": 43.081,
      "duration": 0.1351,
      "velocity": 123,
      "chip": "ym2612"
    },
    {
      "channel": 2,
      "note": 105,
      "start": 43.0825,
      "duration": 0.2697,
      "velocity": 118,
      "chip": "ym2612"
    },
    {
      "channel": 5,
      "note": 38,
      "start": 43.0839,
      "duration": 0.2762,
      "velocity": 127,
      "chip": "ym2612"
    },
    {
      "channel": 1,
      "note": 95,
      "start": 43.2153,
      "duration": 0.1307,
      "velocity": 123,
      "chip": "ym2612"
    },
    {
      "channel": 0,
      "note": 45,
      "start": 43.3541,
      "duration": 1.6493,
      "velocity": 79,
      "chip": "ym2612"
    },
    {
      "channel": 3,
      "note": 95,
      "start": 43.3557,
      "duration": 0.1155,
      "velocity": 98,
      "chip": "ym2612"
    },
    {
      "channel": 4,
      "note": 83,
      "start": 43.358,
      "duration": 0.1258,
      "velocity": 123,
      "chip": "ym2612"
    },
    {
      "channel": 2,
      "note": 105,
      "start": 43.3595,
      "duration": 0.2667,
      "velocity": 118,
      "chip": "ym2612"
    },
    {
      "channel": 3,
      "note": 97,
      "start": 43.4893,
      "duration": 0.9578,
      "velocity": 98,
      "chip": "ym2612"
    },
    {
      "channel": 1,
      "note": 90,
      "start": 43.491,
      "duration": 0.137,
      "velocity": 123,
      "chip": "ym2612"
    },
    {
      "channel": 4,
      "note": 83,
      "start": 43.629,
      "duration": 0.1292,
      "velocity": 123,
      "chip": "ym2612"
    },
    {
      "channel": 2,
      "note": 105,
      "start": 43.6305,
      "duration": 0.2651,
      "velocity": 118,
      "chip": "ym2612"
    },
    {
      "channel": 5,
      "note": 38,
      "start": 43.632,
      "duration": 0.2637,
      "velocity": 127,
      "chip": "ym2612"
    },
    {
      "channel": 1,
      "note": 88,
      "start": 43.7645,
      "duration": 0.1304,
      "velocity": 123,
      "chip": "ym2612"
    },
    {
      "channel": 4,
      "note": 83,
      "start": 43.9022,
      "duration": 0.1304,
      "velocity": 123,
      "chip": "ym2612"
    },
    {
      "channel": 2,
      "note": 105,
      "start": 43.904,
      "duration": 0.2707,
      "velocity": 118,
      "chip": "ym2612"
    },
    {
      "channel": 5,
      "note": 38,
      "start": 43.9055,
      "duration": 0.2683,
      "velocity": 127,
      "chip": "ym2612"
    },
    {
      "channel": 1,
      "note": 90,
      "start": 44.039,
      "duration": 0.1379,
      "velocity": 123,
      "chip": "ym2612"
    },
    {
      "channel": 4,
      "note": 83,
      "start": 44.1779,
      "duration": 0.1293,
      "velocity": 123,
      "chip": "ym2612"
    },
    {
      "channel": 2,
      "note": 105,
      "start": 44.1793,
      "duration": 0.2651,
      "velocity": 118,
      "chip": "ym2612"
    },
    {
      "channel": 5,
      "note": 38,
      "start": 44.1817,
      "duration": 0.195,
      "velocity": 127,
      "chip": "ym2612"
    },
    {
      "channel": 1,
      "note": 88,
      "start": 44.3134,
      "duration": 0.1305,
      "velocity": 123,
      "chip": "ym2612"
    },
    {
      "channel": 3,
      "note": 95,
      "start": 44.4513,
      "duration": 0.2495,
      "velocity": 98,
      "chip": "ym2612"
    },
    {
      "channel": 4,
      "note": 83,
      "start": 44.4538,
      "duration": 0.134,
      "velocity": 123,
      "chip": "ym2612"
    },
    {
      "channel": 2,
      "note": 105,
      "start": 44.4553,
      "duration": 0.27,
      "velocity": 118,
      "chip": "ym2612"
    },
    {
      "channel": 5,
      "note": 44,
      "start": 44.4577,
      "duration": 0.2678,
      "velocity": 127,
      "chip": "ym2612"
    },
    {
      "channel": 1,
      "note": 90,
      "start": 44.6051,
      "duration": 0.1304,
      "velocity": 123,
      "chip": "ym2612"
    },
    {
      "channel": 3,
      "note": 92,
      "start": 44.7435,
      "duration": 0.2488,
      "velocity": 98,
      "chip": "ym2612"
    },
    {
      "channel": 4,
      "note": 83,
      "start": 44.7458,
      "duration": 0.1344,
      "velocity": 123,
      "chip": "ym2612"
    },
    {
      "channel": 2,
      "note": 105,
      "start": 44.7472,
      "duration": 0.2687,
      "velocity": 118,
      "chip": "ym2612"
    },
    {
      "channel": 5,
      "note": 38,
      "start": 44.7487,
      "duration": 0.2751,
      "velocity": 127,
      "chip": "ym2612"
    },
    {
      "channel": 1,
      "note": 95,
      "start": 44.8793,
      "duration": 0.1307,
      "velocity": 123,
      "chip": "ym2612"
    },
    {
      "channel": 0,
      "note": 44,
      "start": 45.0176,
      "duration": 1.6414,
      "velocity": 79,
      "chip": "ym2612"
    },
    {
      "channel": 3,
      "note": 95,
      "start": 45.0192,
      "duration": 0.5432,
      "velocity": 98,
      "chip": "ym2612"
    },
    {
      "channel": 4,
      "note": 83,
      "start": 45.0216,
      "duration": 0.1261,
      "velocity": 123,
      "chip": "ym2612"
    },
    {
      "channel": 2,
      "note": 105,
      "start": 45.023,
      "duration": 0.262,
      "velocity": 118,
      "chip": "ym2612"
    },
    {
      "channel": 1,
      "note": 90,
      "start": 45.154,
      "duration": 0.1304,
      "velocity": 123,
      "chip": "ym2612"
    },
    {
      "channel": 4,
      "note": 83,
      "start": 45.2926,
      "duration": 0.1368,
      "velocity": 123,
      "chip": "ym2612"
    },
    {
      "channel": 2,
      "note": 105,
      "start": 45.2941,
      "duration": 0.2695,
      "velocity": 118,
      "chip": "ym2612"
    },
    {
      "channel": 5,
      "note": 38,
      "start": 45.2956,
      "duration": 0.2748,
      "velocity": 127,
      "chip": "ym2612"
    },
    {
      "channel": 1,
      "note": 88,
      "start": 45.4286,
      "duration": 0.1303,
      "velocity": 123,
      "chip": "ym2612"
    },
    {
      "channel": 3,
      "note": 95,
      "start": 45.5657,
      "duration": 0.2502,
      "velocity": 98,
      "chip": "ym2612"
    },
    {
      "channel": 4,
      "note": 83,
      "start": 45.568,
      "duration": 0.1287,
      "velocity": 123,
      "chip": "ym2612"
    },
    {
      "channel": 2,
      "note": 105,
      "start": 45.5694,
      "duration": 0.2701,
      "velocity": 118,
      "chip": "ym2612"
    },
    {
      "channel": 1,
      "note": 90,
      "start": 45.7028,
      "duration": 0.14,
      "velocity": 123,
      "chip": "ym2612"
    },
    {
      "channel": 3,
      "note": 97,
      "start": 45.8419,
      "duration": 0.2483,
      "velocity": 98,
      "chip": "ym2612"
    },
    {
      "channel": 4,
      "note": 83,
      "start": 45.8437,
      "duration": 0.1277,
      "velocity": 123,
      "chip": "ym2612"
    },
    {
      "channel": 2,
      "note": 105,
      "start": 45.8452,
      "duration": 0.2632,
      "velocity": 118,
      "chip": "ym2612"
    },
    {
      "channel": 5,
      "note": 38,
      "start": 45.8476,
      "duration": 0.1931,
      "velocity": 127,
      "chip": "ym2612"
    },
    {
      "channel": 1,
      "note": 88,
      "start": 45.9772,
      "duration": 0.1307,
      "velocity": 123,
      "chip": "ym2612"
    },
    {
      "channel": 3,
      "note": 99,
      "start": 46.1145,
      "duration": 0.2504,
      "velocity": 98,
      "chip": "ym2612"
    },
    {
      "channel": 4,
      "note": 83,
      "start": 46.1167,
      "duration": 0.1289,
      "velocity": 123,
      "chip": "ym2612"
    },
    {
      "channel": 2,
      "note": 105,
      "start": 46.1181,
      "duration": 0.1276,
      "velocity": 118,
      "chip": "ym2612"
    },
    {
      "channel": 1,
      "note": 90,
      "start": 46.2518,
      "duration": 0.1402,
      "velocity": 123,
      "chip": "ym2612"
    },
    {
      "channel": 5,
      "note": 44,
      "start": 46.2547,
      "duration": 0.0435,
      "velocity": 127,
      "chip": "ym2612"
    },
    {
      "channel": 5,
      "note": 44,
      "start": 46.3222,
      "duration": 0.0442,
      "velocity": 127,
      "chip": "ym2612"
    },
    {
      "channel": 3,
      "note": 97,
      "start": 46.391,
      "duration": 0.1167,
      "velocity": 98,
      "chip": "ym2612"
    },
    {
      "channel": 4,
      "note": 83,
      "start": 46.3929,
      "duration": 0.1274,
      "velocity": 123,
      "chip": "ym2612"
    },
    {
      "channel": 2,
      "note": 105,
      "start": 46.3945,
      "duration": 0.126,
      "velocity": 118,
      "chip": "ym2612"
    },
    {
      "channel": 5,
      "note": 44,
      "start": 46.3959,
      "duration": 0.0913,
      "velocity": 127,
      "chip": "ym2612"
    },
    {
      "channel": 3,
      "note": 95,
      "start": 46.5263,
      "duration": 0.1185,
      "velocity": 98,
      "chip": "ym2612"
    },
    {
      "channel": 1,
      "note": 95,
      "start": 46.5281,
      "duration": 0.1288,
      "velocity": 123,
      "chip": "ym2612"
    },
    {
      "channel": 5,
      "note": 44,
      "start": 46.5316,
      "duration": 0.1263,
      "velocity": 127,
      "chip": "ym2612"
    },
    {
      "channel": 0,
      "note": 43,
      "start": 46.6654,
      "duration": 1.66,
      "velocity": 79,
      "chip": "ym2612"
    },
    {
      "channel": 3,
      "note": 97,
      "start": 46.6671,
      "duration": 1.1044,
      "velocity": 98,
      "chip": "ym2612"
    },
    {
      "channel": 4,
      "note": 83,
      "start": 46.6693,
      "duration": 0.1366,
      "velocity": 123,
      "chip": "ym2612"
    },
    {
      "channel": 2,
      "note": 105,
      "start": 46.6711,
      "duration": 0.2727,
      "velocity": 118,
      "chip": "ym2612"
    },
    {
      "channel": 5,
      "note": 38,
      "start": 46.6725,
      "duration": 0.2714,
      "velocity": 127,
      "chip": "ym2612"
    },
    {
      "channel": 1,
      "note": 90,
      "start": 46.8234,
      "duration": 0.1309,
      "velocity": 123,
      "chip": "ym2612"
    },
    {
      "channel": 4,
      "note": 83,
      "start": 46.9613,
      "duration": 0.1376,
      "velocity": 123,
      "chip": "ym2612"
    },
    {
      "channel": 2,
      "note": 105,
      "start": 46.9629,
      "duration": 0.2707,
      "velocity": 118,
      "chip": "ym2612"
    },
    {
      "channel": 1,
      "note": 88,
      "start": 47.0981,
      "duration": 0.1308,
      "velocity": 123,
      "chip": "ym2612"
    },
    {
      "channel": 4,
      "note": 83,
      "start": 47.2372,
      "duration": 0.1293,
      "velocity": 123,
      "chip": "ym2612"
    },
    {
      "channel": 2,
      "note": 105,
      "start": 47.2387,
      "duration": 0.2653,
      "velocity": 118,
      "chip": "ym2612"
    },
    {
      "channel": 5,
      "note": 38,
      "start": 47.2402,
      "duration": 0.2641,
      "velocity": 127,
      "chip": "ym2612"
    },
    {
      "channel": 1,
      "note": 90,
      "start": 47.3724,
      "duration": 0.131,
      "velocity": 123,
      "chip": "ym2612"
    },
    {
      "channel": 4,
      "note": 83,
      "start": 47.5105,
      "duration": 0.1373,
      "velocity": 123,
      "chip": "ym2612"
    },
    {
      "channel": 2,
      "note": 105,
      "start": 47.512,
      "duration": 0.2712,
      "velocity": 118,
      "chip": "ym2612"
    },
    {
      "channel": 5,
      "note": 38,
      "start": 47.5144,
      "duration": 0.2017,
      "velocity": 127,
      "chip": "ym2612"
    },
    {
      "channel": 1,
      "note": 88,
      "start": 47.647,
      "duration": 0.1305,
      "velocity": 123,
      "chip": "ym2612"
    },
    {
      "channel": 3,
      "note": 99,
      "start": 47.7854,
      "duration": 0.1289,
      "velocity": 98,
      "chip": "ym2612"
    },
    {
      "channel": 4,
      "note": 83,
      "start": 47.788,
      "duration": 0.1268,
      "velocity": 123,
      "chip": "ym2612"
    },
    {
      "channel": 2,
      "note": 105,
      "start": 47.7895,
      "duration": 0.2688,
      "velocity": 118,
      "chip": "ym2612"
    },
    {
      "channel": 5,
      "note": 44,
      "start": 47.7919,
      "duration": 0.2655,
      "velocity": 127,
      "chip": "ym2612"
    },
    {
      "channel": 3,
      "note": 99,
      "start": 47.9211,
      "duration": 0.1076,
      "velocity": 98,
      "chip": "ym2612"
    },
    {
      "channel": 1,
      "note": 90,
      "start": 47.9228,
      "duration": 0.1385,
      "velocity": 123,
      "chip": "ym2612"
    },
    {
      "channel": 3,
      "note": 99,
      "start": 48.0604,
      "duration": 0.1169,
      "velocity": 98,
      "chip": "ym2612"
    },
    {
      "channel": 4,
      "note": 83,
      "start": 48.0623,
      "duration": 0.1274,
      "velocity": 123,
      "chip": "ym2612"
    },
    {
      "channel": 2,
      "note": 105,
      "start": 48.0638,
      "duration": 0.263,
      "velocity": 118,
      "chip": "ym2612"
    },
    {
      "channel": 5,
      "note": 38,
      "start": 48.0653,
      "duration": 0.2617,
      "velocity": 127,
      "chip": "ym2612"
    },
    {
      "channel": 3,
      "note": 100,
      "start": 48.1952,
      "duration": 0.1195,
      "velocity": 98,
      "chip": "ym2612"
    },
    {
      "channel": 1,
      "note": 95,
      "start": 48.197,
      "duration": 0.1291,
      "velocity": 123,
      "chip": "ym2612"
    },
    {
      "channel": 0,
      "note": 47,
      "start": 48.3331,
      "duration": 1.6563,
      "velocity": 79,
      "chip": "ym2612"
    },
    {
      "channel": 3,
      "note": 102,
      "start": 48.3348,
      "duration": 1.2477,
      "velocity": 98,
      "chip": "ym2612"
    },
    {
      "channel": 4,
      "note": 83,
      "start": 48.3373,
      "duration": 0.1269,
      "velocity": 123,
      "chip": "ym2612"
    },
    {
      "channel": 2,
      "note": 105,
      "start": 48.3388,
      "duration": 0.2675,
      "velocity": 118,
      "chip": "ym2612"
    },
    {
      "channel": 1,
      "note": 90,
      "start": 48.4706,
      "duration": 0.1376,
      "velocity": 123,
      "chip": "ym2612"
    },
    {
      "channel": 4,
      "note": 83,
      "start": 48.6091,
      "duration": 0.1296,
      "velocity": 123,
      "chip": "ym2612"
    },
    {
      "channel": 2,
      "note": 105,
      "start": 48.6106,
      "duration": 0.2654,
      "velocity": 118,
      "chip": "ym2612"
    },
    {
      "channel": 5,
      "note": 38,
      "start": 48.6121,
      "duration": 0.2641,
      "velocity": 127,
      "chip": "ym2612"
    },
    {
      "channel": 1,
      "note": 88,
      "start": 48.7451,
      "duration": 0.1303,
      "velocity": 123,
      "chip": "ym2612"
    },
    {
      "channel": 4,
      "note": 83,
      "start": 48.8827,
      "duration": 0.1364,
      "velocity": 123,
      "chip": "ym2612"
    },
    {
      "channel": 2,
      "note": 105,
      "start": 48.8842,
      "duration": 0.2728,
      "velocity": 118,
      "chip": "ym2612"
    },
    {
      "channel": 5,
      "note": 38,
      "start": 48.8857,
      "duration": 0.2714,
      "velocity": 127,
      "chip": "ym2612"
    },
    {
      "channel": 1,
      "note": 90,
      "start": 49.0367,
      "duration": 0.1305,
      "velocity": 123,
      "chip": "ym2612"
    },
    {
      "channel": 4,
      "note": 83,
      "start": 49.1752,
      "duration": 0.1367,
      "velocity": 123,
      "chip": "ym2612"
    },
    {
      "channel": 2,
      "note": 105,
      "start": 49.1767,
      "duration": 0.2702,
      "velocity": 118,
      "chip": "ym2612"
    },
    {
      "channel": 5,
      "note": 38,
      "start": 49.179,
      "duration": 0.2011,
      "velocity": 127,
      "chip": "ym2612"
    },
    {
      "channel": 1,
      "note": 88,
      "start": 49.311,
      "duration": 0.1308,
      "velocity": 123,
      "chip": "ym2612"
    },
    {
      "channel": 4,
      "note": 83,
      "start": 49.4502,
      "duration": 0.1292,
      "velocity": 123,
      "chip": "ym2612"
    },
    {
      "channel": 2,
      "note": 105,
      "start": 49.4517,
      "duration": 0.2706,
      "velocity": 118,
      "chip": "ym2612"
    },
    {
      "channel": 5,
      "note": 44,
      "start": 49.4544,
      "duration": 0.2671,
      "velocity": 127,
      "chip": "ym2612"
    },
    {
      "channel": 3,
      "note": 99,
      "start": 49.5849,
      "duration": 0.1194,
      "velocity": 98,
      "chip": "ym2612"
    },
    {
      "channel": 1,
      "note": 90,
      "start": 49.5869,
      "duration": 0.1386,
      "velocity": 123,
      "chip": "ym2612"
    },
    {
      "channel": 3,
      "note": 99,
      "start": 49.7244,
      "duration": 0.0482,
      "velocity": 98,
      "chip": "ym2612"
    },
    {
      "channel": 4,
      "note": 83,
      "start": 49.7266,
      "duration": 0.1274,
      "velocity": 123,
      "chip": "ym2612"
    },
    {
      "channel": 2,
      "note": 105,
      "start": 49.728,
      "duration": 0.2628,
      "velocity": 118,
      "chip": "ym2612"
    },
    {
      "channel": 5,
      "note": 38,
      "start": 49.7295,
      "duration": 0.2615,
      "velocity": 127,
      "chip": "ym2612"
    },
    {
      "channel": 3,
      "note": 95,
      "start": 49.8078,
      "duration": 0.0506,
      "velocity": 98,
      "chip": "ym2612"
    },
    {
      "channel": 1,
      "note": 95,
      "start": 49.8594,
      "duration": 0.1308,
      "velocity": 123,
      "chip": "ym2612"
    },
    {
      "channel": 3,
      "note": 95,
      "start": 49.9107,
      "duration": 0.0564,
      "velocity": 98,
      "chip": "ym2612"
    },
    {
      "channel": 0,
      "note": 45,
      "start": 49.9973,
      "duration": 1.6505,
      "velocity": 79,
      "chip": "ym2612"
    },
    {
      "channel": 3,
      "note": 95,
      "start": 49.9989,
      "duration": 0.8188,
      "velocity": 98,
      "chip": "ym2612"
    },
    {
      "channel": 4,
      "note": 83,
      "start": 50.0012,
      "duration": 0.1271,
      "velocity": 123,
      "chip": "ym2612"
    },
    {
      "channel": 2,
      "note": 105,
      "start": 50.0027,
      "duration": 0.2675,
      "velocity": 118,
      "chip": "ym2612"
    },
    {
      "channel": 1,
      "note": 90,
      "start": 50.1342,
      "duration": 0.1378,
      "velocity": 123,
      "chip": "ym2612"
    },
    {
      "channel": 4,
      "note": 83,
      "start": 50.273,
      "duration": 0.1297,
      "velocity": 123,
      "chip": "ym2612"
    },
    {
      "channel": 2,
      "note": 105,
      "start": 50.2746,
      "duration": 0.2654,
      "velocity": 118,
      "chip": "ym2612"
    },
    {
      "channel": 5,
      "note": 38,
      "start": 50.276,
      "duration": 0.2642,
      "velocity": 127,
      "chip": "ym2612"
    },
    {
      "channel": 1,
      "note": 88,
      "start": 50.4091,
      "duration": 0.1303,
      "velocity": 123,
      "chip": "ym2612"
    },
    {
      "channel": 4,
      "note": 83,
      "start": 50.5467,
      "duration": 0.1304,
      "velocity": 123,
      "chip": "ym2612"
    },
    {
      "channel": 2,
      "note": 105,
      "start": 50.5482,
      "duration": 0.2718,
      "velocity": 118,
      "chip": "ym2612"
    },
    {
      "channel": 5,
      "note": 38,
      "start": 50.5497,
      "duration": 0.2692,
      "velocity": 127,
      "chip": "ym2612"
    },
    {
      "channel": 1,
      "note": 90,
      "start": 50.6834,
      "duration": 0.1399,
      "velocity": 123,
      "chip": "ym2612"
    },
    {
      "channel": 3,
      "note": 107,
      "start": 50.8224,
      "duration": 0.8203,
      "velocity": 98,
      "chip": "ym2612"
    },
    {
      "channel": 4,
      "note": 83,
      "start": 50.8243,
      "duration": 0.1273,
      "velocity": 123,
      "chip": "ym2612"
    },
    {
      "channel": 2,
      "note": 105,
      "start": 50.8258,
      "duration": 0.2632,
      "velocity": 118,
      "chip": "ym2612"
    },
    {
      "channel": 5,
      "note": 38,
      "start": 50.8281,
      "duration": 0.1934,
      "velocity": 127,
      "chip": "ym2612"
    },
    {
      "channel": 1,
      "note": 88,
      "start": 50.9577,
      "duration": 0.1307,
      "velocity": 123,
      "chip": "ym2612"
    },
    {
      "channel": 4,
      "note": 83,
      "start": 51.0959,
      "duration": 0.1363,
      "velocity": 123,
      "chip": "ym2612"
    },
    {
      "channel": 2,
      "note": 105,
      "start": 51.0974,
      "duration": 0.2728,
      "velocity": 118,
      "chip": "ym2612"
    },
    {
      "channel": 5,
      "note": 44,
      "start": 51.0998,
      "duration": 0.2707,
      "velocity": 127,
      "chip": "ym2612"
    },
    {
      "channel": 1,
      "note": 90,
      "start": 51.2495,
      "duration": 0.1307,
      "velocity": 123,
      "chip": "ym2612"
    },
    {
      "channel": 4,
      "note": 83,
      "start": 51.3885,
      "duration": 0.1361,
      "velocity": 123,
      "chip": "ym2612"
    },
    {
      "channel": 2,
      "note": 105,
      "start": 51.39,
      "duration": 0.2705,
      "velocity": 118,
      "chip": "ym2612"
    },
    {
      "channel": 5,
      "note": 38,
      "start": 51.3915,
      "duration": 0.2767,
      "velocity": 127,
      "chip": "ym2612"
    },
    {
      "channel": 1,
      "note": 95,
      "start": 51.5237,
      "duration": 0.1307,
      "velocity": 123,
      "chip": "ym2612"
    },
    {
      "channel": 0,
      "note": 44,
      "start": 51.6622,
      "duration": 1.6471,
      "velocity": 79,
      "chip": "ym2612"
    },
    {
      "channel": 3,
      "note": 105,
      "start": 51.6638,
      "duration": 0.8179,
      "velocity": 98,
      "chip": "ym2612"
    },
    {
      "channel": 4,
      "note": 83,
      "start": 51.6661,
      "duration": 0.1261,
      "velocity": 123,
      "chip": "ym2612"
    },
    {
      "channel": 2,
      "note": 105,
      "start": 51.6676,
      "duration": 0.2663,
      "velocity": 118,
      "chip": "ym2612"
    },
    {
      "channel": 1,
      "note": 90,
      "start": 51.7982,
      "duration": 0.1376,
      "velocity": 123,
      "chip": "ym2612"
    },
    {
      "channel": 4,
      "note": 83,
      "start": 51.9371,
      "duration": 0.1296,
      "velocity": 123,
      "chip": "ym2612"
    },
    {
      "channel": 2,
      "note": 105,
      "start": 51.9386,
      "duration": 0.2657,
      "velocity": 118,
      "chip": "ym2612"
    },
    {
      "channel": 5,
      "note": 38,
      "start": 51.94,
      "duration": 0.2644,
      "velocity": 127,
      "chip": "ym2612"
    },
    {
      "channel": 1,
      "note": 88,
      "start": 52.073,
      "duration": 0.1306,
      "velocity": 123,
      "chip": "ym2612"
    },
    {
      "channel": 4,
      "note": 83,
      "start": 52.2106,
      "duration": 0.1305,
      "velocity": 123,
      "chip": "ym2612"
    },
    {
      "channel": 2,
      "note": 105,
      "start": 52.2121,
      "duration": 0.2726,
      "velocity": 118,
      "chip": "ym2612"
    },
    {
      "channel": 1,
      "note": 90,
      "start": 52.3474,
      "duration": 0.1354,
      "velocity": 123,
      "chip": "ym2612"
    },
    {
      "channel": 3,
      "note": 102,
      "start": 52.4873,
      "duration": 0.8245,
      "velocity": 98,
      "chip": "ym2612"
    },
    {
      "channel": 1,
      "note": 88,
      "start": 52.4899,
      "duration": 0.823,
      "velocity": 98,
      "chip": "ym2612"
    },
    {
      "channel": 4,
      "note": 83,
      "start": 52.4918,
      "duration": 0.1297,
      "velocity": 123,
      "chip": "ym2612"
    },
    {
      "channel": 2,
      "note": 105,
      "start": 52.4933,
      "duration": 0.2654,
      "velocity": 118,
      "chip": "ym2612"
    },
    {
      "channel": 5,
      "note": 38,
      "start": 52.4957,
      "duration": 0.1952,
      "velocity": 127,
      "chip": "ym2612"
    },
    {
      "channel": 4,
      "note": 83,
      "start": 52.6279,
      "duration": 0.1307,
      "velocity": 123,
      "chip": "ym2612"
    },
    {
      "channel": 4,
      "note": 90,
      "start": 52.7652,
      "duration": 0.133,
      "velocity": 123,
      "chip": "ym2612"
    },
    {
      "channel": 2,
      "note": 105,
      "start": 52.7669,
      "duration": 0.1375,
      "velocity": 118,
      "chip": "ym2612"
    },
    {
      "channel": 4,
      "note": 83,
      "start": 52.9036,
      "duration": 0.1295,
      "velocity": 123,
      "chip": "ym2612"
    },
    {
      "channel": 5,
      "note": 44,
      "start": 52.9054,
      "duration": 0.0434,
      "velocity": 127,
      "chip": "ym2612"
    },
    {
      "channel": 5,
      "note": 44,
      "start": 52.9724,
      "duration": 0.0447,
      "velocity": 127,
      "chip": "ym2612"
    },
    {
      "channel": 4,
      "note": 95,
      "start": 53.0414,
      "duration": 0.1292,
      "velocity": 123,
      "chip": "ym2612"
    },
    {
      "channel": 2,
      "note": 105,
      "start": 53.0431,
      "duration": 0.1276,
      "velocity": 118,
      "chip": "ym2612"
    },
    {
      "channel": 5,
      "note": 44,
      "start": 53.0446,
      "duration": 0.0929,
      "velocity": 127,
      "chip": "ym2612"
    },
    {
      "channel": 4,
      "note": 83,
      "start": 53.1772,
      "duration": 0.1303,
      "velocity": 123,
      "chip": "ym2612"
    },
    {
      "channel": 5,
      "note": 44,
      "start": 53.1802,
      "duration": 0.1279,
      "velocity": 127,
      "chip": "ym2612"
    },
    {
      "channel": 0,
      "note": 43,
      "start": 53.3175,
      "duration": 0.0,
      "velocity": 111,
      "chip": "ym2612"
    }
  ]
}