{
  "track_name": "02 - Introduction",
  "duration_sec": 17.279,
  "sample_rate": 44100,
  "note_count": 192,
  "unique_pitches": 11,
  "pitch_range": 84,
  "avg_note_duration": 0.4522,
  "reconstruction_stats": {
    "notes_reconstructed": 192,
    "keyon_events": 192,
    "keyoff_events": 187,
    "orphan_keyons": 5,
    "unique_pitches": 11,
    "pitch_range": 84,
    "avg_duration_sec": 0.4522
  },
  "metadata": {
    "source": "F\\Fido Dido\\02 - Introduction.vgz"
  },
  "notes": [
    {
      "channel": 0,
      "note": 67,
      "start": 0.0,
      "duration": 0.0,
      "velocity": 100,
      "chip": "ym2612"
    },
    {
      "channel": 0,
      "note": 45,
      "start": 0.0,
      "duration": 0.666,
      "velocity": 100,
      "chip": "ym2612"
    },
    {
      "channel": 1,
      "note": 67,
      "start": 0.0,
      "duration": 0.3353,
      "velocity": 100,
      "chip": "ym2612"
    },
    {
      "channel": 2,
      "note": 67,
      "start": 0.0,
      "duration": 0.0018,
      "velocity": 92,
      "chip": "ym2612"
    },
    {
      "channel": 3,
      "note": 67,
      "start": 0.0,
      "duration": 0.0039,
      "velocity": 127,
      "chip": "ym2612"
    },
    {
      "channel": 4,
      "note": 67,
      "start": 0.0,
      "duration": 17.2792,
      "velocity": 1,
      "chip": "ym2612"
    },
    {
      "channel": 2,
      "note": 52,
      "start": 0.002,
      "duration": 6.7745,
      "velocity": 127,
      "chip": "ym2612"
    },
    {
      "channel": 3,
      "note": 89,
      "start": 0.0041,
      "duration": 0.113,
      "velocity": 127,
      "chip": "ym2612"
    },
    {
      "channel": 3,
      "note": 89,
      "start": 0.1173,
      "duration": 0.1163,
      "velocity": 127,
      "chip": "ym2612"
    },
    {
      "channel": 3,
      "note": 69,
      "start": 0.2339,
      "duration": 0.2166,
      "velocity": 127,
      "chip": "ym2612"
    },
    {
      "channel": 1,
      "note": 45,
      "start": 0.3355,
      "duration": 0.632,
      "velocity": 100,
      "chip": "ym2612"
    },
    {
      "channel": 3,
      "note": 89,
      "start": 0.4507,
      "duration": 0.0821,
      "velocity": 127,
      "chip": "ym2612"
    },
    {
      "channel": 3,
      "note": 89,
      "start": 0.533,
      "duration": 0.1337,
      "velocity": 127,
      "chip": "ym2612"
    },
    {
      "channel": 0,
      "note": 43,
      "start": 0.6661,
      "duration": 0.1999,
      "velocity": 100,
      "chip": "ym2612"
    },
    {
      "channel": 3,
      "note": 69,
      "start": 0.6668,
      "duration": 0.1999,
      "velocity": 127,
      "chip": "ym2612"
    },
    {
      "channel": 0,
      "note": 40,
      "start": 0.8662,
      "duration": 0.6361,
      "velocity": 100,
      "chip": "ym2612"
    },
    {
      "channel": 3,
      "note": 89,
      "start": 0.8669,
      "duration": 0.1012,
      "velocity": 127,
      "chip": "ym2612"
    },
    {
      "channel": 1,
      "note": 43,
      "start": 0.9676,
      "duration": 0.2168,
      "velocity": 100,
      "chip": "ym2612"
    },
    {
      "channel": 3,
      "note": 89,
      "start": 0.9683,
      "duration": 0.0829,
      "velocity": 127,
      "chip": "ym2612"
    },
    {
      "channel": 3,
      "note": 69,
      "start": 1.0514,
      "duration": 0.2498,
      "velocity": 127,
      "chip": "ym2612"
    },
    {
      "channel": 1,
      "note": 40,
      "start": 1.1845,
      "duration": 0.6351,
      "velocity": 100,
      "chip": "ym2612"
    },
    {
      "channel": 3,
      "note": 89,
      "start": 1.3014,
      "duration": 0.0844,
      "velocity": 127,
      "chip": "ym2612"
    },
    {
      "channel": 3,
      "note": 89,
      "start": 1.386,
      "duration": 0.117,
      "velocity": 127,
      "chip": "ym2612"
    },
    {
      "channel": 0,
      "note": 45,
      "start": 1.5025,
      "duration": 0.4338,
      "velocity": 100,
      "chip": "ym2612"
    },
    {
      "channel": 3,
      "note": 69,
      "start": 1.5032,
      "duration": 0.2171,
      "velocity": 127,
      "chip": "ym2612"
    },
    {
      "channel": 3,
      "note": 89,
      "start": 1.7204,
      "duration": 0.0998,
      "velocity": 127,
      "chip": "ym2612"
    },
    {
      "channel": 1,
      "note": 45,
      "start": 1.8198,
      "duration": 0.4346,
      "velocity": 100,
      "chip": "ym2612"
    },
    {
      "channel": 3,
      "note": 89,
      "start": 1.8204,
      "duration": 0.1166,
      "velocity": 127,
      "chip": "ym2612"
    },
    {
      "channel": 0,
      "note": 45,
      "start": 1.9364,
      "duration": 0.4346,
      "velocity": 100,
      "chip": "ym2612"
    },
    {
      "channel": 3,
      "note": 69,
      "start": 1.9371,
      "duration": 0.217,
      "velocity": 127,
      "chip": "ym2612"
    },
    {
      "channel": 3,
      "note": 89,
      "start": 2.1543,
      "duration": 0.1008,
      "velocity": 127,
      "chip": "ym2612"
    },
    {
      "channel": 1,
      "note": 45,
      "start": 2.2546,
      "duration": 0.4181,
      "velocity": 100,
      "chip": "ym2612"
    },
    {
      "channel": 3,
      "note": 89,
      "start": 2.2553,
      "duration": 0.1165,
      "velocity": 127,
      "chip": "ym2612"
    },
    {
      "channel": 0,
      "note": 43,
      "start": 2.3712,
      "duration": 0.2008,
      "velocity": 100,
      "chip": "ym2612"
    },
    {
      "channel": 3,
      "note": 69,
      "start": 2.3719,
      "duration": 0.2008,
      "velocity": 127,
      "chip": "ym2612"
    },
    {
      "channel": 0,
      "note": 47,
      "start": 2.5722,
      "duration": 0.8203,
      "velocity": 100,
      "chip": "ym2612"
    },
    {
      "channel": 3,
      "note": 89,
      "start": 2.5728,
      "duration": 0.1005,
      "velocity": 127,
      "chip": "ym2612"
    },
    {
      "channel": 1,
      "note": 43,
      "start": 2.6729,
      "duration": 0.2168,
      "velocity": 100,
      "chip": "ym2612"
    },
    {
      "channel": 3,
      "note": 89,
      "start": 2.6735,
      "duration": 0.0997,
      "velocity": 127,
      "chip": "ym2612"
    },
    {
      "channel": 3,
      "note": 69,
      "start": 2.7734,
      "duration": 0.1169,
      "velocity": 127,
      "chip": "ym2612"
    },
    {
      "channel": 1,
      "note": 47,
      "start": 2.8898,
      "duration": 0.8219,
      "velocity": 100,
      "chip": "ym2612"
    },
    {
      "channel": 3,
      "note": 89,
      "start": 2.8905,
      "duration": 0.116,
      "velocity": 127,
      "chip": "ym2612"
    },
    {
      "channel": 3,
      "note": 89,
      "start": 3.0067,
      "duration": 0.0846,
      "velocity": 127,
      "chip": "ym2612"
    },
    {
      "channel": 3,
      "note": 89,
      "start": 3.0915,
      "duration": 0.1165,
      "velocity": 127,
      "chip": "ym2612"
    },
    {
      "channel": 3,
      "note": 69,
      "start": 3.2082,
      "duration": 0.1851,
      "velocity": 127,
      "chip": "ym2612"
    },
    {
      "channel": 0,
      "note": 45,
      "start": 3.3927,
      "duration": 0.6537,
      "velocity": 100,
      "chip": "ym2612"
    },
    {
      "channel": 3,
      "note": 89,
      "start": 3.3934,
      "duration": 0.1003,
      "velocity": 127,
      "chip": "ym2612"
    },
    {
      "channel": 3,
      "note": 89,
      "start": 3.494,
      "duration": 0.1164,
      "velocity": 127,
      "chip": "ym2612"
    },
    {
      "channel": 3,
      "note": 69,
      "start": 3.6106,
      "duration": 0.2346,
      "velocity": 127,
      "chip": "ym2612"
    },
    {
      "channel": 1,
      "note": 45,
      "start": 3.7119,
      "duration": 0.6557,
      "velocity": 100,
      "chip": "ym2612"
    },
    {
      "channel": 3,
      "note": 89,
      "start": 3.8454,
      "duration": 0.0845,
      "velocity": 127,
      "chip": "ym2612"
    },
    {
      "channel": 3,
      "note": 89,
      "start": 3.9301,
      "duration": 0.117,
      "velocity": 127,
      "chip": "ym2612"
    },
    {
      "channel": 0,
      "note": 43,
      "start": 4.0466,
      "duration": 0.202,
      "velocity": 100,
      "chip": "ym2612"
    },
    {
      "channel": 3,
      "note": 69,
      "start": 4.0473,
      "duration": 0.202,
      "velocity": 127,
      "chip": "ym2612"
    },
    {
      "channel": 0,
      "note": 40,
      "start": 4.2488,
      "duration": 0.6538,
      "velocity": 100,
      "chip": "ym2612"
    },
    {
      "channel": 3,
      "note": 89,
      "start": 4.2495,
      "duration": 0.1187,
      "velocity": 127,
      "chip": "ym2612"
    },
    {
      "channel": 1,
      "note": 43,
      "start": 4.3677,
      "duration": 0.2002,
      "velocity": 100,
      "chip": "ym2612"
    },
    {
      "channel": 3,
      "note": 89,
      "start": 4.3683,
      "duration": 0.083,
      "velocity": 127,
      "chip": "ym2612"
    },
    {
      "channel": 3,
      "note": 69,
      "start": 4.4515,
      "duration": 0.2331,
      "velocity": 127,
      "chip": "ym2612"
    },
    {
      "channel": 1,
      "note": 40,
      "start": 4.568,
      "duration": 0.6366,
      "velocity": 100,
      "chip": "ym2612"
    },
    {
      "channel": 3,
      "note": 89,
      "start": 4.6849,
      "duration": 0.0845,
      "velocity": 127,
      "chip": "ym2612"
    },
    {
      "channel": 3,
      "note": 89,
      "start": 4.7695,
      "duration": 0.1337,
      "velocity": 127,
      "chip": "ym2612"
    },
    {
      "channel": 0,
      "note": 45,
      "start": 4.9027,
      "duration": 0.4186,
      "velocity": 100,
      "chip": "ym2612"
    },
    {
      "channel": 3,
      "note": 69,
      "start": 4.9034,
      "duration": 0.2012,
      "velocity": 127,
      "chip": "ym2612"
    },
    {
      "channel": 3,
      "note": 89,
      "start": 5.1046,
      "duration": 0.1006,
      "velocity": 127,
      "chip": "ym2612"
    },
    {
      "channel": 1,
      "note": 45,
      "start": 5.2048,
      "duration": 0.4342,
      "velocity": 100,
      "chip": "ym2612"
    },
    {
      "channel": 3,
      "note": 89,
      "start": 5.2054,
      "duration": 0.1166,
      "velocity": 127,
      "chip": "ym2612"
    },
    {
      "channel": 0,
      "note": 45,
      "start": 5.3214,
      "duration": 0.4342,
      "velocity": 100,
      "chip": "ym2612"
    },
    {
      "channel": 3,
      "note": 69,
      "start": 5.3221,
      "duration": 0.2339,
      "velocity": 127,
      "chip": "ym2612"
    },
    {
      "channel": 3,
      "note": 89,
      "start": 5.5561,
      "duration": 0.0835,
      "velocity": 127,
      "chip": "ym2612"
    },
    {
      "channel": 1,
      "note": 45,
      "start": 5.6392,
      "duration": 0.4353,
      "velocity": 100,
      "chip": "ym2612"
    },
    {
      "channel": 3,
      "note": 89,
      "start": 5.6398,
      "duration": 0.1165,
      "velocity": 127,
      "chip": "ym2612"
    },
    {
      "channel": 0,
      "note": 43,
      "start": 5.7558,
      "duration": 0.2179,
      "velocity": 100,
      "chip": "ym2612"
    },
    {
      "channel": 3,
      "note": 69,
      "start": 5.7565,
      "duration": 0.2179,
      "velocity": 127,
      "chip": "ym2612"
    },
    {
      "channel": 0,
      "note": 47,
      "start": 5.9739,
      "duration": 0.8004,
      "velocity": 100,
      "chip": "ym2612"
    },
    {
      "channel": 3,
      "note": 89,
      "start": 5.9746,
      "duration": 0.1005,
      "velocity": 127,
      "chip": "ym2612"
    },
    {
      "channel": 1,
      "note": 43,
      "start": 6.0746,
      "duration": 0.1845,
      "velocity": 100,
      "chip": "ym2612"
    },
    {
      "channel": 3,
      "note": 89,
      "start": 6.0753,
      "duration": 0.083,
      "velocity": 127,
      "chip": "ym2612"
    },
    {
      "channel": 3,
      "note": 69,
      "start": 6.1585,
      "duration": 0.1012,
      "velocity": 127,
      "chip": "ym2612"
    },
    {
      "channel": 1,
      "note": 47,
      "start": 6.2593,
      "duration": 0.8493,
      "velocity": 100,
      "chip": "ym2612"
    },
    {
      "channel": 3,
      "note": 89,
      "start": 6.2598,
      "duration": 0.116,
      "velocity": 127,
      "chip": "ym2612"
    },
    {
      "channel": 3,
      "note": 89,
      "start": 6.3761,
      "duration": 0.0985,
      "velocity": 127,
      "chip": "ym2612"
    },
    {
      "channel": 3,
      "note": 89,
      "start": 6.4748,
      "duration": 0.1165,
      "velocity": 127,
      "chip": "ym2612"
    },
    {
      "channel": 3,
      "note": 69,
      "start": 6.5915,
      "duration": 0.1856,
      "velocity": 127,
      "chip": "ym2612"
    },
    {
      "channel": 0,
      "note": 45,
      "start": 6.7745,
      "duration": 0.652,
      "velocity": 100,
      "chip": "ym2612"
    },
    {
      "channel": 2,
      "note": 26,
      "start": 6.7766,
      "duration": 1.7066,
      "velocity": 127,
      "chip": "ym2612"
    },
    {
      "channel": 3,
      "note": 89,
      "start": 6.7773,
      "duration": 0.0979,
      "velocity": 127,
      "chip": "ym2612"
    },
    {
      "channel": 3,
      "note": 89,
      "start": 6.8754,
      "duration": 0.133,
      "velocity": 127,
      "chip": "ym2612"
    },
    {
      "channel": 3,
      "note": 69,
      "start": 7.0086,
      "duration": 0.2166,
      "velocity": 127,
      "chip": "ym2612"
    },
    {
      "channel": 1,
      "note": 45,
      "start": 7.1087,
      "duration": 0.6347,
      "velocity": 100,
      "chip": "ym2612"
    },
    {
      "channel": 3,
      "note": 89,
      "start": 7.2254,
      "duration": 0.0844,
      "velocity": 127,
      "chip": "ym2612"
    },
    {
      "channel": 3,
      "note": 89,
      "start": 7.3101,
      "duration": 0.117,
      "velocity": 127,
      "chip": "ym2612"
    },
    {
      "channel": 0,
      "note": 43,
      "start": 7.4266,
      "duration": 0.2175,
      "velocity": 100,
      "chip": "ym2612"
    },
    {
      "channel": 3,
      "note": 69,
      "start": 7.4272,
      "duration": 0.2175,
      "velocity": 127,
      "chip": "ym2612"
    },
    {
      "channel": 0,
      "note": 40,
      "start": 7.6442,
      "duration": 0.6349,
      "velocity": 100,
      "chip": "ym2612"
    },
    {
      "channel": 3,
      "note": 89,
      "start": 7.6448,
      "duration": 0.0993,
      "velocity": 127,
      "chip": "ym2612"
    },
    {
      "channel": 1,
      "note": 43,
      "start": 7.7436,
      "duration": 0.201,
      "velocity": 100,
      "chip": "ym2612"
    },
    {
      "channel": 3,
      "note": 89,
      "start": 7.7443,
      "duration": 0.0838,
      "velocity": 127,
      "chip": "ym2612"
    },
    {
      "channel": 3,
      "note": 69,
      "start": 7.8282,
      "duration": 0.2498,
      "velocity": 127,
      "chip": "ym2612"
    },
    {
      "channel": 1,
      "note": 40,
      "start": 7.9447,
      "duration": 0.6546,
      "velocity": 100,
      "chip": "ym2612"
    },
    {
      "channel": 3,
      "note": 89,
      "start": 8.0782,
      "duration": 0.0843,
      "velocity": 127,
      "chip": "ym2612"
    },
    {
      "channel": 3,
      "note": 89,
      "start": 8.1627,
      "duration": 0.117,
      "velocity": 127,
      "chip": "ym2612"
    },
    {
      "channel": 0,
      "note": 45,
      "start": 8.2792,
      "duration": 0.4367,
      "velocity": 100,
      "chip": "ym2612"
    },
    {
      "channel": 3,
      "note": 69,
      "start": 8.2799,
      "duration": 0.2038,
      "velocity": 127,
      "chip": "ym2612"
    },
    {
      "channel": 2,
      "note": 110,
      "start": 8.4834,
      "duration": 0.1165,
      "velocity": 127,
      "chip": "ym2612"
    },
    {
      "channel": 3,
      "note": 89,
      "start": 8.4839,
      "duration": 0.1165,
      "velocity": 127,
      "chip": "ym2612"
    },
    {
      "channel": 1,
      "note": 45,
      "start": 8.5994,
      "duration": 0.4165,
      "velocity": 100,
      "chip": "ym2612"
    },
    {
      "channel": 2,
      "note": 110,
      "start": 8.6,
      "duration": 0.1166,
      "velocity": 127,
      "chip": "ym2612"
    },
    {
      "channel": 3,
      "note": 89,
      "start": 8.6006,
      "duration": 0.1165,
      "velocity": 127,
      "chip": "ym2612"
    },
    {
      "channel": 0,
      "note": 45,
      "start": 8.7161,
      "duration": 0.4331,
      "velocity": 100,
      "chip": "ym2612"
    },
    {
      "channel": 2,
      "note": 110,
      "start": 8.7167,
      "duration": 0.0999,
      "velocity": 127,
      "chip": "ym2612"
    },
    {
      "channel": 3,
      "note": 69,
      "start": 8.7173,
      "duration": 0.2159,
      "velocity": 127,
      "chip": "ym2612"
    },
    {
      "channel": 2,
      "note": 110,
      "start": 8.8167,
      "duration": 0.1998,
      "velocity": 127,
      "chip": "ym2612"
    },
    {
      "channel": 3,
      "note": 89,
      "start": 8.9334,
      "duration": 0.0836,
      "velocity": 127,
      "chip": "ym2612"
    },
    {
      "channel": 1,
      "note": 45,
      "start": 9.016,
      "duration": 0.4357,
      "velocity": 100,
      "chip": "ym2612"
    },
    {
      "channel": 2,
      "note": 110,
      "start": 9.0166,
      "duration": 0.1332,
      "velocity": 127,
      "chip": "ym2612"
    },
    {
      "channel": 3,
      "note": 89,
      "start": 9.0172,
      "duration": 0.1331,
      "velocity": 127,
      "chip": "ym2612"
    },
    {
      "channel": 0,
      "note": 43,
      "start": 9.1493,
      "duration": 0.2012,
      "velocity": 100,
      "chip": "ym2612"
    },
    {
      "channel": 2,
      "note": 110,
      "start": 9.1499,
      "duration": 1.0238,
      "velocity": 127,
      "chip": "ym2612"
    },
    {
      "channel": 3,
      "note": 69,
      "start": 9.1505,
      "duration": 0.2006,
      "velocity": 127,
      "chip": "ym2612"
    },
    {
      "channel": 0,
      "note": 47,
      "start": 9.3506,
      "duration": 0.8209,
      "velocity": 100,
      "chip": "ym2612"
    },
    {
      "channel": 3,
      "note": 89,
      "start": 9.3513,
      "duration": 0.101,
      "velocity": 127,
      "chip": "ym2612"
    },
    {
      "channel": 1,
      "note": 43,
      "start": 9.4518,
      "duration": 0.2172,
      "velocity": 100,
      "chip": "ym2612"
    },
    {
      "channel": 3,
      "note": 89,
      "start": 9.4525,
      "duration": 0.0834,
      "velocity": 127,
      "chip": "ym2612"
    },
    {
      "channel": 3,
      "note": 69,
      "start": 9.5361,
      "duration": 0.1336,
      "velocity": 127,
      "chip": "ym2612"
    },
    {
      "channel": 1,
      "note": 47,
      "start": 9.6692,
      "duration": 0.8192,
      "velocity": 100,
      "chip": "ym2612"
    },
    {
      "channel": 3,
      "note": 89,
      "start": 9.6698,
      "duration": 0.116,
      "velocity": 127,
      "chip": "ym2612"
    },
    {
      "channel": 3,
      "note": 89,
      "start": 9.7861,
      "duration": 0.0844,
      "velocity": 127,
      "chip": "ym2612"
    },
    {
      "channel": 3,
      "note": 89,
      "start": 9.8707,
      "duration": 0.1165,
      "velocity": 127,
      "chip": "ym2612"
    },
    {
      "channel": 3,
      "note": 69,
      "start": 9.9873,
      "duration": 0.1869,
      "velocity": 127,
      "chip": "ym2612"
    },
    {
      "channel": 0,
      "note": 45,
      "start": 10.1717,
      "duration": 0.6488,
      "velocity": 100,
      "chip": "ym2612"
    },
    {
      "channel": 2,
      "note": 40,
      "start": 10.1739,
      "duration": 1.051,
      "velocity": 127,
      "chip": "ym2612"
    },
    {
      "channel": 3,
      "note": 89,
      "start": 10.1745,
      "duration": 0.0976,
      "velocity": 127,
      "chip": "ym2612"
    },
    {
      "channel": 3,
      "note": 89,
      "start": 10.2722,
      "duration": 0.1165,
      "velocity": 127,
      "chip": "ym2612"
    },
    {
      "channel": 3,
      "note": 69,
      "start": 10.3888,
      "duration": 0.2163,
      "velocity": 127,
      "chip": "ym2612"
    },
    {
      "channel": 1,
      "note": 45,
      "start": 10.4885,
      "duration": 0.6356,
      "velocity": 100,
      "chip": "ym2612"
    },
    {
      "channel": 3,
      "note": 89,
      "start": 10.6054,
      "duration": 0.0986,
      "velocity": 127,
      "chip": "ym2612"
    },
    {
      "channel": 3,
      "note": 89,
      "start": 10.7041,
      "duration": 0.117,
      "velocity": 127,
      "chip": "ym2612"
    },
    {
      "channel": 0,
      "note": 43,
      "start": 10.8206,
      "duration": 0.2016,
      "velocity": 100,
      "chip": "ym2612"
    },
    {
      "channel": 3,
      "note": 69,
      "start": 10.8212,
      "duration": 0.2017,
      "velocity": 127,
      "chip": "ym2612"
    },
    {
      "channel": 0,
      "note": 40,
      "start": 11.0224,
      "duration": 0.6373,
      "velocity": 100,
      "chip": "ym2612"
    },
    {
      "channel": 3,
      "note": 89,
      "start": 11.0231,
      "duration": 0.1017,
      "velocity": 127,
      "chip": "ym2612"
    },
    {
      "channel": 1,
      "note": 43,
      "start": 11.1243,
      "duration": 0.2172,
      "velocity": 100,
      "chip": "ym2612"
    },
    {
      "channel": 3,
      "note": 89,
      "start": 11.1249,
      "duration": 0.1005,
      "velocity": 127,
      "chip": "ym2612"
    },
    {
      "channel": 2,
      "note": 31,
      "start": 11.2251,
      "duration": 1.5055,
      "velocity": 127,
      "chip": "ym2612"
    },
    {
      "channel": 3,
      "note": 69,
      "start": 11.2256,
      "duration": 0.2326,
      "velocity": 127,
      "chip": "ym2612"
    },
    {
      "channel": 1,
      "note": 40,
      "start": 11.3417,
      "duration": 0.6349,
      "velocity": 100,
      "chip": "ym2612"
    },
    {
      "channel": 3,
      "note": 89,
      "start": 11.4585,
      "duration": 0.0846,
      "velocity": 127,
      "chip": "ym2612"
    },
    {
      "channel": 3,
      "note": 89,
      "start": 11.5433,
      "duration": 0.117,
      "velocity": 127,
      "chip": "ym2612"
    },
    {
      "channel": 0,
      "note": 45,
      "start": 11.6598,
      "duration": 0.4334,
      "velocity": 100,
      "chip": "ym2612"
    },
    {
      "channel": 3,
      "note": 69,
      "start": 11.6605,
      "duration": 0.216,
      "velocity": 127,
      "chip": "ym2612"
    },
    {
      "channel": 3,
      "note": 89,
      "start": 11.8767,
      "duration": 0.1005,
      "velocity": 127,
      "chip": "ym2612"
    },
    {
      "channel": 1,
      "note": 45,
      "start": 11.9767,
      "duration": 0.4355,
      "velocity": 100,
      "chip": "ym2612"
    },
    {
      "channel": 3,
      "note": 89,
      "start": 11.9773,
      "duration": 0.1166,
      "velocity": 127,
      "chip": "ym2612"
    },
    {
      "channel": 0,
      "note": 45,
      "start": 12.0933,
      "duration": 0.4355,
      "velocity": 100,
      "chip": "ym2612"
    },
    {
      "channel": 3,
      "note": 69,
      "start": 12.094,
      "duration": 0.2342,
      "velocity": 127,
      "chip": "ym2612"
    },
    {
      "channel": 3,
      "note": 89,
      "start": 12.3284,
      "duration": 0.0845,
      "velocity": 127,
      "chip": "ym2612"
    },
    {
      "channel": 1,
      "note": 45,
      "start": 12.4124,
      "duration": 0.4354,
      "velocity": 100,
      "chip": "ym2612"
    },
    {
      "channel": 3,
      "note": 89,
      "start": 12.413,
      "duration": 0.1165,
      "velocity": 127,
      "chip": "ym2612"
    },
    {
      "channel": 0,
      "note": 43,
      "start": 12.529,
      "duration": 0.201,
      "velocity": 100,
      "chip": "ym2612"
    },
    {
      "channel": 3,
      "note": 69,
      "start": 12.5296,
      "duration": 0.2015,
      "velocity": 127,
      "chip": "ym2612"
    },
    {
      "channel": 0,
      "note": 47,
      "start": 12.7301,
      "duration": 0.8187,
      "velocity": 100,
      "chip": "ym2612"
    },
    {
      "channel": 2,
      "note": 47,
      "start": 12.7307,
      "duration": 0.8203,
      "velocity": 92,
      "chip": "ym2612"
    },
    {
      "channel": 3,
      "note": 89,
      "start": 12.7313,
      "duration": 0.1171,
      "velocity": 127,
      "chip": "ym2612"
    },
    {
      "channel": 1,
      "note": 43,
      "start": 12.848,
      "duration": 0.1839,
      "velocity": 100,
      "chip": "ym2612"
    },
    {
      "channel": 3,
      "note": 89,
      "start": 12.8486,
      "duration": 0.0822,
      "velocity": 127,
      "chip": "ym2612"
    },
    {
      "channel": 3,
      "note": 69,
      "start": 12.931,
      "duration": 0.1016,
      "velocity": 127,
      "chip": "ym2612"
    },
    {
      "channel": 1,
      "note": 47,
      "start": 13.0321,
      "duration": 0.8524,
      "velocity": 100,
      "chip": "ym2612"
    },
    {
      "channel": 3,
      "note": 89,
      "start": 13.0327,
      "duration": 0.116,
      "velocity": 127,
      "chip": "ym2612"
    },
    {
      "channel": 3,
      "note": 89,
      "start": 13.1489,
      "duration": 0.0825,
      "velocity": 127,
      "chip": "ym2612"
    },
    {
      "channel": 3,
      "note": 89,
      "start": 13.2316,
      "duration": 0.1332,
      "velocity": 127,
      "chip": "ym2612"
    },
    {
      "channel": 3,
      "note": 69,
      "start": 13.3649,
      "duration": 0.1867,
      "velocity": 127,
      "chip": "ym2612"
    },
    {
      "channel": 0,
      "note": 45,
      "start": 13.549,
      "duration": 0.6534,
      "velocity": 100,
      "chip": "ym2612"
    },
    {
      "channel": 2,
      "note": 52,
      "start": 13.5512,
      "duration": 3.728,
      "velocity": 92,
      "chip": "ym2612"
    },
    {
      "channel": 3,
      "note": 89,
      "start": 13.5518,
      "duration": 0.098,
      "velocity": 127,
      "chip": "ym2612"
    },
    {
      "channel": 3,
      "note": 89,
      "start": 13.65,
      "duration": 0.1163,
      "velocity": 127,
      "chip": "ym2612"
    },
    {
      "channel": 3,
      "note": 69,
      "start": 13.7665,
      "duration": 0.2347,
      "velocity": 127,
      "chip": "ym2612"
    },
    {
      "channel": 1,
      "note": 45,
      "start": 13.8847,
      "duration": 0.6356,
      "velocity": 100,
      "chip": "ym2612"
    },
    {
      "channel": 3,
      "note": 89,
      "start": 14.0014,
      "duration": 0.0844,
      "velocity": 127,
      "chip": "ym2612"
    },
    {
      "channel": 3,
      "note": 89,
      "start": 14.0861,
      "duration": 0.117,
      "velocity": 127,
      "chip": "ym2612"
    },
    {
      "channel": 0,
      "note": 43,
      "start": 14.2025,
      "duration": 0.2166,
      "velocity": 100,
      "chip": "ym2612"
    },
    {
      "channel": 3,
      "note": 69,
      "start": 14.2032,
      "duration": 0.2166,
      "velocity": 127,
      "chip": "ym2612"
    },
    {
      "channel": 0,
      "note": 40,
      "start": 14.4193,
      "duration": 0.6341,
      "velocity": 100,
      "chip": "ym2612"
    },
    {
      "channel": 3,
      "note": 89,
      "start": 14.42,
      "duration": 0.1009,
      "velocity": 127,
      "chip": "ym2612"
    },
    {
      "channel": 1,
      "note": 43,
      "start": 14.5205,
      "duration": 0.2005,
      "velocity": 100,
      "chip": "ym2612"
    },
    {
      "channel": 3,
      "note": 89,
      "start": 14.5211,
      "duration": 0.0833,
      "velocity": 127,
      "chip": "ym2612"
    },
    {
      "channel": 3,
      "note": 69,
      "start": 14.6046,
      "duration": 0.2331,
      "velocity": 127,
      "chip": "ym2612"
    },
    {
      "channel": 1,
      "note": 40,
      "start": 14.721,
      "duration": 2.5582,
      "velocity": 100,
      "chip": "ym2612"
    },
    {
      "channel": 3,
      "note": 89,
      "start": 14.8379,
      "duration": 0.099,
      "velocity": 127,
      "chip": "ym2612"
    },
    {
      "channel": 3,
      "note": 89,
      "start": 14.9371,
      "duration": 0.117,
      "velocity": 127,
      "chip": "ym2612"
    },
    {
      "channel": 0,
      "note": 45,
      "start": 15.0535,
      "duration": 2.2257,
      "velocity": 100,
      "chip": "ym2612"
    },
    {
      "channel": 3,
      "note": 69,
      "start": 15.0542,
      "duration": 2.225,
      "velocity": 127,
      "chip": "ym2612"
    }
  ]
}