{
  "track_name": "02 Select Mover System, Name Entry",
  "duration_sec": 53.01,
  "sample_rate": 44100,
  "note_count": 1035,
  "unique_pitches": 44,
  "pitch_range": 50,
  "avg_note_duration": 0.2087,
  "reconstruction_stats": {
    "notes_reconstructed": 1035,
    "keyon_events": 1035,
    "keyoff_events": 1031,
    "orphan_keyons": 4,
    "unique_pitches": 44,
    "pitch_range": 50,
    "avg_duration_sec": 0.2087
  },
  "metadata": {
    "source": "G\\Gley Lancer\\02 Select Mover System, Name Entry.vgz"
  },
  "notes": [
    {
      "channel": 0,
      "note": 52,
      "start": 0.004,
      "duration": 0.1132,
      "velocity": 100,
      "chip": "ym2612"
    },
    {
      "channel": 1,
      "note": 76,
      "start": 0.0084,
      "duration": 1.1486,
      "velocity": 110,
      "chip": "ym2612"
    },
    {
      "channel": 2,
      "note": 71,
      "start": 0.0139,
      "duration": 1.1435,
      "velocity": 110,
      "chip": "ym2612"
    },
    {
      "channel": 3,
      "note": -1,
      "start": 0.02,
      "duration": 0.0304,
      "velocity": 94,
      "chip": "ym2612"
    },
    {
      "channel": 3,
      "note": 69,
      "start": 0.0563,
      "duration": 0.1534,
      "velocity": 94,
      "chip": "ym2612"
    },
    {
      "channel": 4,
      "note": 61,
      "start": 0.1066,
      "duration": 1.1119,
      "velocity": 110,
      "chip": "ym2612"
    },
    {
      "channel": 0,
      "note": 64,
      "start": 0.1357,
      "duration": 0.1102,
      "velocity": 100,
      "chip": "ym2612"
    },
    {
      "channel": 3,
      "note": 69,
      "start": 0.2333,
      "duration": 0.0311,
      "velocity": 94,
      "chip": "ym2612"
    },
    {
      "channel": 0,
      "note": 62,
      "start": 0.2683,
      "duration": 0.0339,
      "velocity": 100,
      "chip": "ym2612"
    },
    {
      "channel": 3,
      "note": 69,
      "start": 0.272,
      "duration": 0.0312,
      "velocity": 94,
      "chip": "ym2612"
    },
    {
      "channel": 3,
      "note": 69,
      "start": 0.3191,
      "duration": 0.1594,
      "velocity": 94,
      "chip": "ym2612"
    },
    {
      "channel": 0,
      "note": 64,
      "start": 0.4962,
      "duration": 0.034,
      "velocity": 100,
      "chip": "ym2612"
    },
    {
      "channel": 3,
      "note": 69,
      "start": 0.4998,
      "duration": 0.0312,
      "velocity": 94,
      "chip": "ym2612"
    },
    {
      "channel": 0,
      "note": 57,
      "start": 0.5407,
      "duration": 0.0365,
      "velocity": 100,
      "chip": "ym2612"
    },
    {
      "channel": 3,
      "note": 69,
      "start": 0.547,
      "duration": 0.0311,
      "velocity": 94,
      "chip": "ym2612"
    },
    {
      "channel": 0,
      "note": 59,
      "start": 0.5815,
      "duration": 0.034,
      "velocity": 100,
      "chip": "ym2612"
    },
    {
      "channel": 3,
      "note": 69,
      "start": 0.5851,
      "duration": 0.0312,
      "velocity": 94,
      "chip": "ym2612"
    },
    {
      "channel": 0,
      "note": 52,
      "start": 0.6261,
      "duration": 0.1175,
      "velocity": 100,
      "chip": "ym2612"
    },
    {
      "channel": 3,
      "note": 69,
      "start": 0.6324,
      "duration": 0.0316,
      "velocity": 94,
      "chip": "ym2612"
    },
    {
      "channel": 3,
      "note": 69,
      "start": 0.6739,
      "duration": 0.1621,
      "velocity": 94,
      "chip": "ym2612"
    },
    {
      "channel": 0,
      "note": 64,
      "start": 0.7621,
      "duration": 0.1105,
      "velocity": 100,
      "chip": "ym2612"
    },
    {
      "channel": 3,
      "note": 69,
      "start": 0.8597,
      "duration": 0.0313,
      "velocity": 94,
      "chip": "ym2612"
    },
    {
      "channel": 0,
      "note": 62,
      "start": 0.8947,
      "duration": 0.0342,
      "velocity": 100,
      "chip": "ym2612"
    },
    {
      "channel": 3,
      "note": 69,
      "start": 0.8985,
      "duration": 0.0312,
      "velocity": 94,
      "chip": "ym2612"
    },
    {
      "channel": 3,
      "note": 69,
      "start": 0.9453,
      "duration": 0.1594,
      "velocity": 94,
      "chip": "ym2612"
    },
    {
      "channel": 0,
      "note": 64,
      "start": 1.1224,
      "duration": 0.0344,
      "velocity": 100,
      "chip": "ym2612"
    },
    {
      "channel": 3,
      "note": 69,
      "start": 1.1261,
      "duration": 0.0316,
      "velocity": 94,
      "chip": "ym2612"
    },
    {
      "channel": 0,
      "note": 57,
      "start": 1.167,
      "duration": 0.0373,
      "velocity": 100,
      "chip": "ym2612"
    },
    {
      "channel": 1,
      "note": 74,
      "start": 1.1676,
      "duration": 0.0254,
      "velocity": 110,
      "chip": "ym2612"
    },
    {
      "channel": 2,
      "note": 69,
      "start": 1.1681,
      "duration": 0.0251,
      "velocity": 110,
      "chip": "ym2612"
    },
    {
      "channel": 3,
      "note": 69,
      "start": 1.1739,
      "duration": 0.0312,
      "velocity": 94,
      "chip": "ym2612"
    },
    {
      "channel": 1,
      "note": 76,
      "start": 1.1964,
      "duration": 0.0244,
      "velocity": 110,
      "chip": "ym2612"
    },
    {
      "channel": 2,
      "note": 71,
      "start": 1.1969,
      "duration": 0.0242,
      "velocity": 110,
      "chip": "ym2612"
    },
    {
      "channel": 0,
      "note": 59,
      "start": 1.2076,
      "duration": 0.034,
      "velocity": 100,
      "chip": "ym2612"
    },
    {
      "channel": 3,
      "note": 69,
      "start": 1.2113,
      "duration": 0.0312,
      "velocity": 94,
      "chip": "ym2612"
    },
    {
      "channel": 4,
      "note": 76,
      "start": 1.2219,
      "duration": 0.0209,
      "velocity": 110,
      "chip": "ym2612"
    },
    {
      "channel": 1,
      "note": 78,
      "start": 1.2247,
      "duration": 0.0172,
      "velocity": 110,
      "chip": "ym2612"
    },
    {
      "channel": 2,
      "note": 73,
      "start": 1.2253,
      "duration": 0.0169,
      "velocity": 110,
      "chip": "ym2612"
    },
    {
      "channel": 0,
      "note": 52,
      "start": 1.252,
      "duration": 0.1175,
      "velocity": 100,
      "chip": "ym2612"
    },
    {
      "channel": 1,
      "note": 79,
      "start": 1.2526,
      "duration": 1.1031,
      "velocity": 110,
      "chip": "ym2612"
    },
    {
      "channel": 2,
      "note": 74,
      "start": 1.2531,
      "duration": 1.1029,
      "velocity": 110,
      "chip": "ym2612"
    },
    {
      "channel": 3,
      "note": 69,
      "start": 1.2589,
      "duration": 0.0313,
      "velocity": 94,
      "chip": "ym2612"
    },
    {
      "channel": 4,
      "note": 74,
      "start": 1.2595,
      "duration": 0.0197,
      "velocity": 110,
      "chip": "ym2612"
    },
    {
      "channel": 4,
      "note": 76,
      "start": 1.2827,
      "duration": 0.0513,
      "velocity": 110,
      "chip": "ym2612"
    },
    {
      "channel": 3,
      "note": 69,
      "start": 1.2997,
      "duration": 0.1633,
      "velocity": 94,
      "chip": "ym2612"
    },
    {
      "channel": 4,
      "note": 78,
      "start": 1.3524,
      "duration": 1.0811,
      "velocity": 110,
      "chip": "ym2612"
    },
    {
      "channel": 0,
      "note": 64,
      "start": 1.388,
      "duration": 0.1103,
      "velocity": 100,
      "chip": "ym2612"
    },
    {
      "channel": 3,
      "note": 69,
      "start": 1.4856,
      "duration": 0.0311,
      "velocity": 94,
      "chip": "ym2612"
    },
    {
      "channel": 0,
      "note": 62,
      "start": 1.521,
      "duration": 0.0329,
      "velocity": 100,
      "chip": "ym2612"
    },
    {
      "channel": 3,
      "note": 69,
      "start": 1.5246,
      "duration": 0.0312,
      "velocity": 94,
      "chip": "ym2612"
    },
    {
      "channel": 3,
      "note": 69,
      "start": 1.5721,
      "duration": 0.159,
      "velocity": 94,
      "chip": "ym2612"
    },
    {
      "channel": 0,
      "note": 64,
      "start": 1.7494,
      "duration": 0.0329,
      "velocity": 100,
      "chip": "ym2612"
    },
    {
      "channel": 3,
      "note": 69,
      "start": 1.7531,
      "duration": 0.0301,
      "velocity": 94,
      "chip": "ym2612"
    },
    {
      "channel": 0,
      "note": 57,
      "start": 1.7941,
      "duration": 0.0356,
      "velocity": 100,
      "chip": "ym2612"
    },
    {
      "channel": 3,
      "note": 69,
      "start": 1.8004,
      "duration": 0.0301,
      "velocity": 94,
      "chip": "ym2612"
    },
    {
      "channel": 0,
      "note": 59,
      "start": 1.8352,
      "duration": 0.0328,
      "velocity": 100,
      "chip": "ym2612"
    },
    {
      "channel": 3,
      "note": 69,
      "start": 1.8388,
      "duration": 0.03,
      "velocity": 94,
      "chip": "ym2612"
    },
    {
      "channel": 0,
      "note": 52,
      "start": 1.8797,
      "duration": 0.1161,
      "velocity": 100,
      "chip": "ym2612"
    },
    {
      "channel": 3,
      "note": 69,
      "start": 1.886,
      "duration": 0.0303,
      "velocity": 94,
      "chip": "ym2612"
    },
    {
      "channel": 3,
      "note": 69,
      "start": 1.927,
      "duration": 0.1611,
      "velocity": 94,
      "chip": "ym2612"
    },
    {
      "channel": 0,
      "note": 64,
      "start": 2.0143,
      "duration": 0.1116,
      "velocity": 100,
      "chip": "ym2612"
    },
    {
      "channel": 3,
      "note": 69,
      "start": 2.1129,
      "duration": 0.0301,
      "velocity": 94,
      "chip": "ym2612"
    },
    {
      "channel": 0,
      "note": 62,
      "start": 2.1466,
      "duration": 0.034,
      "velocity": 100,
      "chip": "ym2612"
    },
    {
      "channel": 3,
      "note": 69,
      "start": 2.1514,
      "duration": 0.03,
      "velocity": 94,
      "chip": "ym2612"
    },
    {
      "channel": 3,
      "note": 69,
      "start": 2.1978,
      "duration": 0.1585,
      "velocity": 94,
      "chip": "ym2612"
    },
    {
      "channel": 0,
      "note": 64,
      "start": 2.3739,
      "duration": 0.0341,
      "velocity": 100,
      "chip": "ym2612"
    },
    {
      "channel": 1,
      "note": 78,
      "start": 2.3745,
      "duration": 0.0339,
      "velocity": 110,
      "chip": "ym2612"
    },
    {
      "channel": 2,
      "note": 73,
      "start": 2.375,
      "duration": 0.0336,
      "velocity": 110,
      "chip": "ym2612"
    },
    {
      "channel": 3,
      "note": 69,
      "start": 2.3791,
      "duration": 0.0298,
      "velocity": 94,
      "chip": "ym2612"
    },
    {
      "channel": 0,
      "note": 57,
      "start": 2.4182,
      "duration": 0.0368,
      "velocity": 100,
      "chip": "ym2612"
    },
    {
      "channel": 1,
      "note": 79,
      "start": 2.4188,
      "duration": 0.0366,
      "velocity": 110,
      "chip": "ym2612"
    },
    {
      "channel": 2,
      "note": 74,
      "start": 2.4193,
      "duration": 0.0363,
      "velocity": 110,
      "chip": "ym2612"
    },
    {
      "channel": 3,
      "note": 69,
      "start": 2.4261,
      "duration": 0.0299,
      "velocity": 94,
      "chip": "ym2612"
    },
    {
      "channel": 4,
      "note": 79,
      "start": 2.4369,
      "duration": 0.0352,
      "velocity": 110,
      "chip": "ym2612"
    },
    {
      "channel": 0,
      "note": 59,
      "start": 2.4593,
      "duration": 0.0344,
      "velocity": 100,
      "chip": "ym2612"
    },
    {
      "channel": 1,
      "note": 81,
      "start": 2.4598,
      "duration": 0.0341,
      "velocity": 110,
      "chip": "ym2612"
    },
    {
      "channel": 2,
      "note": 76,
      "start": 2.4603,
      "duration": 0.0339,
      "velocity": 110,
      "chip": "ym2612"
    },
    {
      "channel": 3,
      "note": 69,
      "start": 2.4645,
      "duration": 0.03,
      "velocity": 94,
      "chip": "ym2612"
    },
    {
      "channel": 4,
      "note": 78,
      "start": 2.4755,
      "duration": 0.0446,
      "velocity": 110,
      "chip": "ym2612"
    },
    {
      "channel": 0,
      "note": 50,
      "start": 2.5041,
      "duration": 0.1174,
      "velocity": 100,
      "chip": "ym2612"
    },
    {
      "channel": 1,
      "note": 83,
      "start": 2.5046,
      "duration": 0.2637,
      "velocity": 110,
      "chip": "ym2612"
    },
    {
      "channel": 2,
      "note": 78,
      "start": 2.5052,
      "duration": 0.2635,
      "velocity": 110,
      "chip": "ym2612"
    },
    {
      "channel": 3,
      "note": 69,
      "start": 2.5119,
      "duration": 0.0303,
      "velocity": 94,
      "chip": "ym2612"
    },
    {
      "channel": 4,
      "note": 79,
      "start": 2.5234,
      "duration": 0.0635,
      "velocity": 110,
      "chip": "ym2612"
    },
    {
      "channel": 3,
      "note": 69,
      "start": 2.5527,
      "duration": 0.1612,
      "velocity": 94,
      "chip": "ym2612"
    },
    {
      "channel": 4,
      "note": 81,
      "start": 2.6044,
      "duration": 0.2502,
      "velocity": 110,
      "chip": "ym2612"
    },
    {
      "channel": 0,
      "note": 62,
      "start": 2.64,
      "duration": 0.1118,
      "velocity": 100,
      "chip": "ym2612"
    },
    {
      "channel": 3,
      "note": 69,
      "start": 2.7386,
      "duration": 0.0304,
      "velocity": 94,
      "chip": "ym2612"
    },
    {
      "channel": 0,
      "note": 60,
      "start": 2.7728,
      "duration": 0.0339,
      "velocity": 100,
      "chip": "ym2612"
    },
    {
      "channel": 1,
      "note": 81,
      "start": 2.7734,
      "duration": 0.9353,
      "velocity": 110,
      "chip": "ym2612"
    },
    {
      "channel": 2,
      "note": 76,
      "start": 2.7739,
      "duration": 0.935,
      "velocity": 110,
      "chip": "ym2612"
    },
    {
      "channel": 3,
      "note": 69,
      "start": 2.7781,
      "duration": 0.0294,
      "velocity": 94,
      "chip": "ym2612"
    },
    {
      "channel": 3,
      "note": 69,
      "start": 2.8242,
      "duration": 0.1585,
      "velocity": 94,
      "chip": "ym2612"
    },
    {
      "channel": 4,
      "note": 83,
      "start": 2.874,
      "duration": 0.8975,
      "velocity": 110,
      "chip": "ym2612"
    },
    {
      "channel": 0,
      "note": 62,
      "start": 3.0004,
      "duration": 0.0341,
      "velocity": 100,
      "chip": "ym2612"
    },
    {
      "channel": 3,
      "note": 69,
      "start": 3.004,
      "duration": 0.0314,
      "velocity": 94,
      "chip": "ym2612"
    },
    {
      "channel": 0,
      "note": 55,
      "start": 3.045,
      "duration": 0.0368,
      "velocity": 100,
      "chip": "ym2612"
    },
    {
      "channel": 3,
      "note": 69,
      "start": 3.0523,
      "duration": 0.0304,
      "velocity": 94,
      "chip": "ym2612"
    },
    {
      "channel": 0,
      "note": 57,
      "start": 3.0863,
      "duration": 0.0345,
      "velocity": 100,
      "chip": "ym2612"
    },
    {
      "channel": 3,
      "note": 69,
      "start": 3.09,
      "duration": 0.0316,
      "velocity": 94,
      "chip": "ym2612"
    },
    {
      "channel": 0,
      "note": 50,
      "start": 3.131,
      "duration": 0.1181,
      "velocity": 100,
      "chip": "ym2612"
    },
    {
      "channel": 3,
      "note": 69,
      "start": 3.1383,
      "duration": 0.0305,
      "velocity": 94,
      "chip": "ym2612"
    },
    {
      "channel": 3,
      "note": 69,
      "start": 3.1785,
      "duration": 0.1622,
      "velocity": 94,
      "chip": "ym2612"
    },
    {
      "channel": 0,
      "note": 62,
      "start": 3.2667,
      "duration": 0.1119,
      "velocity": 100,
      "chip": "ym2612"
    },
    {
      "channel": 3,
      "note": 69,
      "start": 3.3643,
      "duration": 0.0317,
      "velocity": 94,
      "chip": "ym2612"
    },
    {
      "channel": 0,
      "note": 60,
      "start": 3.3995,
      "duration": 0.0341,
      "velocity": 100,
      "chip": "ym2612"
    },
    {
      "channel": 3,
      "note": 69,
      "start": 3.4031,
      "duration": 0.0314,
      "velocity": 94,
      "chip": "ym2612"
    },
    {
      "channel": 3,
      "note": 69,
      "start": 3.4498,
      "duration": 0.1595,
      "velocity": 94,
      "chip": "ym2612"
    },
    {
      "channel": 0,
      "note": 62,
      "start": 3.627,
      "duration": 0.0341,
      "velocity": 100,
      "chip": "ym2612"
    },
    {
      "channel": 3,
      "note": 69,
      "start": 3.6306,
      "duration": 0.0314,
      "velocity": 94,
      "chip": "ym2612"
    },
    {
      "channel": 0,
      "note": 55,
      "start": 3.6713,
      "duration": 0.0371,
      "velocity": 100,
      "chip": "ym2612"
    },
    {
      "channel": 3,
      "note": 69,
      "start": 3.6776,
      "duration": 0.0317,
      "velocity": 94,
      "chip": "ym2612"
    },
    {
      "channel": 0,
      "note": 57,
      "start": 3.7125,
      "duration": 0.0346,
      "velocity": 100,
      "chip": "ym2612"
    },
    {
      "channel": 1,
      "note": 78,
      "start": 3.7131,
      "duration": 0.0164,
      "velocity": 110,
      "chip": "ym2612"
    },
    {
      "channel": 2,
      "note": 73,
      "start": 3.7136,
      "duration": 0.0161,
      "velocity": 110,
      "chip": "ym2612"
    },
    {
      "channel": 3,
      "note": 69,
      "start": 3.7167,
      "duration": 0.0313,
      "velocity": 94,
      "chip": "ym2612"
    },
    {
      "channel": 1,
      "note": 79,
      "start": 3.7341,
      "duration": 0.0133,
      "velocity": 110,
      "chip": "ym2612"
    },
    {
      "channel": 2,
      "note": 74,
      "start": 3.7346,
      "duration": 0.013,
      "velocity": 110,
      "chip": "ym2612"
    },
    {
      "channel": 0,
      "note": 50,
      "start": 3.7569,
      "duration": 0.1175,
      "velocity": 100,
      "chip": "ym2612"
    },
    {
      "channel": 1,
      "note": 81,
      "start": 3.7575,
      "duration": 0.2636,
      "velocity": 110,
      "chip": "ym2612"
    },
    {
      "channel": 2,
      "note": 76,
      "start": 3.758,
      "duration": 0.2634,
      "velocity": 110,
      "chip": "ym2612"
    },
    {
      "channel": 3,
      "note": 69,
      "start": 3.7637,
      "duration": 0.0318,
      "velocity": 94,
      "chip": "ym2612"
    },
    {
      "channel": 4,
      "note": 81,
      "start": 3.7749,
      "duration": 0.0141,
      "velocity": 110,
      "chip": "ym2612"
    },
    {
      "channel": 4,
      "note": 78,
      "start": 3.7924,
      "duration": 0.0464,
      "velocity": 110,
      "chip": "ym2612"
    },
    {
      "channel": 3,
      "note": 69,
      "start": 3.8046,
      "duration": 0.1623,
      "velocity": 94,
      "chip": "ym2612"
    },
    {
      "channel": 4,
      "note": 79,
      "start": 3.8574,
      "duration": 0.2503,
      "velocity": 110,
      "chip": "ym2612"
    },
    {
      "channel": 0,
      "note": 62,
      "start": 3.893,
      "duration": 0.1102,
      "velocity": 100,
      "chip": "ym2612"
    },
    {
      "channel": 3,
      "note": 69,
      "start": 3.9905,
      "duration": 0.0312,
      "velocity": 94,
      "chip": "ym2612"
    },
    {
      "channel": 0,
      "note": 60,
      "start": 4.0256,
      "duration": 0.0338,
      "velocity": 100,
      "chip": "ym2612"
    },
    {
      "channel": 1,
      "note": 78,
      "start": 4.0261,
      "duration": 0.6216,
      "velocity": 110,
      "chip": "ym2612"
    },
    {
      "channel": 2,
      "note": 73,
      "start": 4.0266,
      "duration": 0.6214,
      "velocity": 110,
      "chip": "ym2612"
    },
    {
      "channel": 3,
      "note": 69,
      "start": 4.0297,
      "duration": 0.0305,
      "velocity": 94,
      "chip": "ym2612"
    },
    {
      "channel": 3,
      "note": 69,
      "start": 4.0762,
      "duration": 0.1596,
      "velocity": 94,
      "chip": "ym2612"
    },
    {
      "channel": 4,
      "note": 81,
      "start": 4.1263,
      "duration": 0.6073,
      "velocity": 110,
      "chip": "ym2612"
    },
    {
      "channel": 0,
      "note": 62,
      "start": 4.2535,
      "duration": 0.0337,
      "velocity": 100,
      "chip": "ym2612"
    },
    {
      "channel": 3,
      "note": 69,
      "start": 4.2571,
      "duration": 0.0309,
      "velocity": 94,
      "chip": "ym2612"
    },
    {
      "channel": 0,
      "note": 55,
      "start": 4.298,
      "duration": 0.0364,
      "velocity": 100,
      "chip": "ym2612"
    },
    {
      "channel": 3,
      "note": 69,
      "start": 4.3042,
      "duration": 0.031,
      "velocity": 94,
      "chip": "ym2612"
    },
    {
      "channel": 0,
      "note": 57,
      "start": 4.339,
      "duration": 0.0338,
      "velocity": 100,
      "chip": "ym2612"
    },
    {
      "channel": 3,
      "note": 69,
      "start": 4.3427,
      "duration": 0.0309,
      "velocity": 94,
      "chip": "ym2612"
    },
    {
      "channel": 0,
      "note": 50,
      "start": 4.3834,
      "duration": 0.1175,
      "velocity": 100,
      "chip": "ym2612"
    },
    {
      "channel": 3,
      "note": 69,
      "start": 4.3896,
      "duration": 0.0313,
      "velocity": 94,
      "chip": "ym2612"
    },
    {
      "channel": 3,
      "note": 69,
      "start": 4.4311,
      "duration": 0.1621,
      "velocity": 94,
      "chip": "ym2612"
    },
    {
      "channel": 0,
      "note": 62,
      "start": 4.5194,
      "duration": 0.1103,
      "velocity": 100,
      "chip": "ym2612"
    },
    {
      "channel": 3,
      "note": 69,
      "start": 4.617,
      "duration": 0.0314,
      "velocity": 94,
      "chip": "ym2612"
    },
    {
      "channel": 0,
      "note": 60,
      "start": 4.6519,
      "duration": 0.0337,
      "velocity": 100,
      "chip": "ym2612"
    },
    {
      "channel": 1,
      "note": 79,
      "start": 4.6524,
      "duration": 0.0334,
      "velocity": 110,
      "chip": "ym2612"
    },
    {
      "channel": 2,
      "note": 74,
      "start": 4.653,
      "duration": 0.0331,
      "velocity": 110,
      "chip": "ym2612"
    },
    {
      "channel": 3,
      "note": 69,
      "start": 4.6561,
      "duration": 0.0303,
      "velocity": 94,
      "chip": "ym2612"
    },
    {
      "channel": 1,
      "note": 78,
      "start": 4.6964,
      "duration": 0.1646,
      "velocity": 110,
      "chip": "ym2612"
    },
    {
      "channel": 2,
      "note": 73,
      "start": 4.697,
      "duration": 0.1644,
      "velocity": 110,
      "chip": "ym2612"
    },
    {
      "channel": 3,
      "note": 69,
      "start": 4.7027,
      "duration": 0.1589,
      "velocity": 94,
      "chip": "ym2612"
    },
    {
      "channel": 4,
      "note": 78,
      "start": 4.7521,
      "duration": 0.1385,
      "velocity": 110,
      "chip": "ym2612"
    },
    {
      "channel": 0,
      "note": 62,
      "start": 4.8793,
      "duration": 0.0342,
      "velocity": 100,
      "chip": "ym2612"
    },
    {
      "channel": 1,
      "note": 79,
      "start": 4.8799,
      "duration": 0.0804,
      "velocity": 110,
      "chip": "ym2612"
    },
    {
      "channel": 2,
      "note": 74,
      "start": 4.8804,
      "duration": 0.0801,
      "velocity": 110,
      "chip": "ym2612"
    },
    {
      "channel": 3,
      "note": 69,
      "start": 4.8836,
      "duration": 0.0307,
      "velocity": 94,
      "chip": "ym2612"
    },
    {
      "channel": 4,
      "note": 79,
      "start": 4.894,
      "duration": 0.0433,
      "velocity": 110,
      "chip": "ym2612"
    },
    {
      "channel": 0,
      "note": 55,
      "start": 4.9239,
      "duration": 0.0361,
      "velocity": 100,
      "chip": "ym2612"
    },
    {
      "channel": 3,
      "note": 69,
      "start": 4.9301,
      "duration": 0.0308,
      "velocity": 94,
      "chip": "ym2612"
    },
    {
      "channel": 4,
      "note": 78,
      "start": 4.9406,
      "duration": 0.0746,
      "velocity": 110,
      "chip": "ym2612"
    },
    {
      "channel": 0,
      "note": 57,
      "start": 4.9648,
      "duration": 0.0337,
      "velocity": 100,
      "chip": "ym2612"
    },
    {
      "channel": 1,
      "note": 74,
      "start": 4.9653,
      "duration": 0.0334,
      "velocity": 110,
      "chip": "ym2612"
    },
    {
      "channel": 2,
      "note": 69,
      "start": 4.9659,
      "duration": 0.0332,
      "velocity": 110,
      "chip": "ym2612"
    },
    {
      "channel": 3,
      "note": 69,
      "start": 4.969,
      "duration": 0.0303,
      "velocity": 94,
      "chip": "ym2612"
    },
    {
      "channel": 0,
      "note": 52,
      "start": 5.003,
      "duration": 0.1167,
      "velocity": 100,
      "chip": "ym2612"
    },
    {
      "channel": 1,
      "note": 76,
      "start": 5.0035,
      "duration": 1.1315,
      "velocity": 110,
      "chip": "ym2612"
    },
    {
      "channel": 2,
      "note": 71,
      "start": 5.004,
      "duration": 1.1312,
      "velocity": 110,
      "chip": "ym2612"
    },
    {
      "channel": 3,
      "note": 69,
      "start": 5.0075,
      "duration": 0.0308,
      "velocity": 94,
      "chip": "ym2612"
    },
    {
      "channel": 4,
      "note": 79,
      "start": 5.0185,
      "duration": 0.0656,
      "velocity": 110,
      "chip": "ym2612"
    },
    {
      "channel": 3,
      "note": 69,
      "start": 5.05,
      "duration": 0.1631,
      "velocity": 94,
      "chip": "ym2612"
    },
    {
      "channel": 4,
      "note": 74,
      "start": 5.1027,
      "duration": 1.0878,
      "velocity": 110,
      "chip": "ym2612"
    },
    {
      "channel": 0,
      "note": 64,
      "start": 5.1383,
      "duration": 0.1079,
      "velocity": 100,
      "chip": "ym2612"
    },
    {
      "channel": 3,
      "note": 69,
      "start": 5.2334,
      "duration": 0.0311,
      "velocity": 94,
      "chip": "ym2612"
    },
    {
      "channel": 0,
      "note": 62,
      "start": 5.2675,
      "duration": 0.0329,
      "velocity": 100,
      "chip": "ym2612"
    },
    {
      "channel": 3,
      "note": 69,
      "start": 5.2711,
      "duration": 0.0312,
      "velocity": 94,
      "chip": "ym2612"
    },
    {
      "channel": 3,
      "note": 69,
      "start": 5.3158,
      "duration": 0.1629,
      "velocity": 94,
      "chip": "ym2612"
    },
    {
      "channel": 0,
      "note": 64,
      "start": 5.4957,
      "duration": 0.0332,
      "velocity": 100,
      "chip": "ym2612"
    },
    {
      "channel": 3,
      "note": 69,
      "start": 5.4993,
      "duration": 0.0304,
      "velocity": 94,
      "chip": "ym2612"
    },
    {
      "channel": 0,
      "note": 57,
      "start": 5.5406,
      "duration": 0.033,
      "velocity": 100,
      "chip": "ym2612"
    },
    {
      "channel": 3,
      "note": 69,
      "start": 5.5444,
      "duration": 0.0301,
      "velocity": 94,
      "chip": "ym2612"
    },
    {
      "channel": 0,
      "note": 59,
      "start": 5.58,
      "duration": 0.0328,
      "velocity": 100,
      "chip": "ym2612"
    },
    {
      "channel": 3,
      "note": 69,
      "start": 5.5836,
      "duration": 0.03,
      "velocity": 94,
      "chip": "ym2612"
    },
    {
      "channel": 0,
      "note": 52,
      "start": 5.6245,
      "duration": 0.1161,
      "velocity": 100,
      "chip": "ym2612"
    },
    {
      "channel": 3,
      "note": 69,
      "start": 5.6283,
      "duration": 0.0303,
      "velocity": 94,
      "chip": "ym2612"
    },
    {
      "channel": 3,
      "note": 69,
      "start": 5.6719,
      "duration": 0.1612,
      "velocity": 94,
      "chip": "ym2612"
    },
    {
      "channel": 0,
      "note": 64,
      "start": 5.7592,
      "duration": 0.1091,
      "velocity": 100,
      "chip": "ym2612"
    },
    {
      "channel": 3,
      "note": 69,
      "start": 5.8553,
      "duration": 0.0301,
      "velocity": 94,
      "chip": "ym2612"
    },
    {
      "channel": 0,
      "note": 62,
      "start": 5.8896,
      "duration": 0.0339,
      "velocity": 100,
      "chip": "ym2612"
    },
    {
      "channel": 3,
      "note": 69,
      "start": 5.8943,
      "duration": 0.03,
      "velocity": 94,
      "chip": "ym2612"
    },
    {
      "channel": 3,
      "note": 69,
      "start": 5.9382,
      "duration": 0.1609,
      "velocity": 94,
      "chip": "ym2612"
    },
    {
      "channel": 0,
      "note": 64,
      "start": 6.1168,
      "duration": 0.0347,
      "velocity": 100,
      "chip": "ym2612"
    },
    {
      "channel": 3,
      "note": 69,
      "start": 6.1215,
      "duration": 0.0309,
      "velocity": 94,
      "chip": "ym2612"
    },
    {
      "channel": 1,
      "note": 78,
      "start": 6.1384,
      "duration": 0.0133,
      "velocity": 110,
      "chip": "ym2612"
    },
    {
      "channel": 2,
      "note": 73,
      "start": 6.139,
      "duration": 0.013,
      "velocity": 110,
      "chip": "ym2612"
    },
    {
      "channel": 0,
      "note": 57,
      "start": 6.1611,
      "duration": 0.0353,
      "velocity": 100,
      "chip": "ym2612"
    },
    {
      "channel": 1,
      "note": 79,
      "start": 6.1616,
      "duration": 0.0179,
      "velocity": 110,
      "chip": "ym2612"
    },
    {
      "channel": 2,
      "note": 74,
      "start": 6.1622,
      "duration": 0.0176,
      "velocity": 110,
      "chip": "ym2612"
    },
    {
      "channel": 3,
      "note": 69,
      "start": 6.1665,
      "duration": 0.0307,
      "velocity": 94,
      "chip": "ym2612"
    },
    {
      "channel": 1,
      "note": 78,
      "start": 6.1829,
      "duration": 0.0137,
      "velocity": 110,
      "chip": "ym2612"
    },
    {
      "channel": 2,
      "note": 73,
      "start": 6.1835,
      "duration": 0.0134,
      "velocity": 110,
      "chip": "ym2612"
    },
    {
      "channel": 4,
      "note": 76,
      "start": 6.1939,
      "duration": 0.0188,
      "velocity": 110,
      "chip": "ym2612"
    },
    {
      "channel": 0,
      "note": 59,
      "start": 6.2002,
      "duration": 0.0353,
      "velocity": 100,
      "chip": "ym2612"
    },
    {
      "channel": 1,
      "note": 76,
      "start": 6.2007,
      "duration": 0.018,
      "velocity": 110,
      "chip": "ym2612"
    },
    {
      "channel": 2,
      "note": 71,
      "start": 6.2012,
      "duration": 0.0177,
      "velocity": 110,
      "chip": "ym2612"
    },
    {
      "channel": 3,
      "note": 69,
      "start": 6.2054,
      "duration": 0.0309,
      "velocity": 94,
      "chip": "ym2612"
    },
    {
      "channel": 4,
      "note": 78,
      "start": 6.2161,
      "duration": 0.0136,
      "velocity": 110,
      "chip": "ym2612"
    },
    {
      "channel": 1,
      "note": 74,
      "start": 6.2221,
      "duration": 0.0136,
      "velocity": 110,
      "chip": "ym2612"
    },
    {
      "channel": 2,
      "note": 69,
      "start": 6.2227,
      "duration": 0.0133,
      "velocity": 110,
      "chip": "ym2612"
    },
    {
      "channel": 4,
      "note": 79,
      "start": 6.233,
      "duration": 0.0246,
      "velocity": 110,
      "chip": "ym2612"
    },
    {
      "channel": 0,
      "note": 52,
      "start": 6.2446,
      "duration": 0.1172,
      "velocity": 100,
      "chip": "ym2612"
    },
    {
      "channel": 1,
      "note": 76,
      "start": 6.2452,
      "duration": 0.6105,
      "velocity": 110,
      "chip": "ym2612"
    },
    {
      "channel": 2,
      "note": 71,
      "start": 6.2457,
      "duration": 0.6102,
      "velocity": 110,
      "chip": "ym2612"
    },
    {
      "channel": 3,
      "note": 69,
      "start": 6.25,
      "duration": 0.0302,
      "velocity": 94,
      "chip": "ym2612"
    },
    {
      "channel": 4,
      "note": 78,
      "start": 6.2609,
      "duration": 0.0128,
      "velocity": 110,
      "chip": "ym2612"
    },
    {
      "channel": 4,
      "note": 76,
      "start": 6.2771,
      "duration": 0.0501,
      "velocity": 110,
      "chip": "ym2612"
    },
    {
      "channel": 3,
      "note": 69,
      "start": 6.293,
      "duration": 0.1612,
      "velocity": 94,
      "chip": "ym2612"
    },
    {
      "channel": 4,
      "note": 74,
      "start": 6.3447,
      "duration": 0.6029,
      "velocity": 110,
      "chip": "ym2612"
    },
    {
      "channel": 0,
      "note": 64,
      "start": 6.3803,
      "duration": 0.1093,
      "velocity": 100,
      "chip": "ym2612"
    },
    {
      "channel": 3,
      "note": 69,
      "start": 6.4764,
      "duration": 0.0303,
      "velocity": 94,
      "chip": "ym2612"
    },
    {
      "channel": 0,
      "note": 62,
      "start": 6.5097,
      "duration": 0.0341,
      "velocity": 100,
      "chip": "ym2612"
    },
    {
      "channel": 3,
      "note": 69,
      "start": 6.5144,
      "duration": 0.0303,
      "velocity": 94,
      "chip": "ym2612"
    },
    {
      "channel": 3,
      "note": 69,
      "start": 6.5579,
      "duration": 0.1618,
      "velocity": 94,
      "chip": "ym2612"
    },
    {
      "channel": 0,
      "note": 64,
      "start": 6.7375,
      "duration": 0.0342,
      "velocity": 100,
      "chip": "ym2612"
    },
    {
      "channel": 3,
      "note": 69,
      "start": 6.7411,
      "duration": 0.0314,
      "velocity": 94,
      "chip": "ym2612"
    },
    {
      "channel": 0,
      "note": 57,
      "start": 6.7818,
      "duration": 0.0346,
      "velocity": 100,
      "chip": "ym2612"
    },
    {
      "channel": 3,
      "note": 69,
      "start": 6.7855,
      "duration": 0.0317,
      "velocity": 94,
      "chip": "ym2612"
    },
    {
      "channel": 0,
      "note": 59,
      "start": 6.821,
      "duration": 0.0344,
      "velocity": 100,
      "chip": "ym2612"
    },
    {
      "channel": 3,
      "note": 69,
      "start": 6.8246,
      "duration": 0.0317,
      "velocity": 94,
      "chip": "ym2612"
    },
    {
      "channel": 0,
      "note": 52,
      "start": 6.8658,
      "duration": 0.1181,
      "velocity": 100,
      "chip": "ym2612"
    },
    {
      "channel": 1,
      "note": 71,
      "start": 6.8664,
      "duration": 0.4737,
      "velocity": 110,
      "chip": "ym2612"
    },
    {
      "channel": 2,
      "note": 66,
      "start": 6.8669,
      "duration": 0.4735,
      "velocity": 110,
      "chip": "ym2612"
    },
    {
      "channel": 3,
      "note": 69,
      "start": 6.8702,
      "duration": 0.031,
      "velocity": 94,
      "chip": "ym2612"
    },
    {
      "channel": 3,
      "note": 69,
      "start": 6.9135,
      "duration": 0.1622,
      "velocity": 94,
      "chip": "ym2612"
    },
    {
      "channel": 4,
      "note": 76,
      "start": 6.9673,
      "duration": 0.4466,
      "velocity": 110,
      "chip": "ym2612"
    },
    {
      "channel": 0,
      "note": 64,
      "start": 7.0018,
      "duration": 0.1087,
      "velocity": 100,
      "chip": "ym2612"
    },
    {
      "channel": 3,
      "note": 69,
      "start": 7.0969,
      "duration": 0.0308,
      "velocity": 94,
      "chip": "ym2612"
    },
    {
      "channel": 0,
      "note": 62,
      "start": 7.1307,
      "duration": 0.034,
      "velocity": 100,
      "chip": "ym2612"
    },
    {
      "channel": 3,
      "note": 69,
      "start": 7.1344,
      "duration": 0.0312,
      "velocity": 94,
      "chip": "ym2612"
    },
    {
      "channel": 3,
      "note": 69,
      "start": 7.1788,
      "duration": 0.162,
      "velocity": 94,
      "chip": "ym2612"
    },
    {
      "channel": 0,
      "note": 64,
      "start": 7.3584,
      "duration": 0.0344,
      "velocity": 100,
      "chip": "ym2612"
    },
    {
      "channel": 1,
      "note": 73,
      "start": 7.3589,
      "duration": 0.0781,
      "velocity": 110,
      "chip": "ym2612"
    },
    {
      "channel": 2,
      "note": 68,
      "start": 7.3594,
      "duration": 0.0778,
      "velocity": 110,
      "chip": "ym2612"
    },
    {
      "channel": 3,
      "note": 69,
      "start": 7.3625,
      "duration": 0.031,
      "velocity": 94,
      "chip": "ym2612"
    },
    {
      "channel": 0,
      "note": 57,
      "start": 7.4029,
      "duration": 0.0338,
      "velocity": 100,
      "chip": "ym2612"
    },
    {
      "channel": 3,
      "note": 69,
      "start": 7.4066,
      "duration": 0.031,
      "velocity": 94,
      "chip": "ym2612"
    },
    {
      "channel": 4,
      "note": 71,
      "start": 7.4172,
      "duration": 0.08,
      "velocity": 110,
      "chip": "ym2612"
    },
    {
      "channel": 0,
      "note": 59,
      "start": 7.4405,
      "duration": 0.0337,
      "velocity": 100,
      "chip": "ym2612"
    },
    {
      "channel": 1,
      "note": 74,
      "start": 7.441,
      "duration": 0.0334,
      "velocity": 110,
      "chip": "ym2612"
    },
    {
      "channel": 2,
      "note": 69,
      "start": 7.4416,
      "duration": 0.0331,
      "velocity": 110,
      "chip": "ym2612"
    },
    {
      "channel": 3,
      "note": 69,
      "start": 7.4447,
      "duration": 0.0304,
      "velocity": 94,
      "chip": "ym2612"
    },
    {
      "channel": 0,
      "note": 50,
      "start": 7.4854,
      "duration": 0.117,
      "velocity": 100,
      "chip": "ym2612"
    },
    {
      "channel": 1,
      "note": 76,
      "start": 7.486,
      "duration": 0.2606,
      "velocity": 110,
      "chip": "ym2612"
    },
    {
      "channel": 2,
      "note": 71,
      "start": 7.4865,
      "duration": 0.2604,
      "velocity": 110,
      "chip": "ym2612"
    },
    {
      "channel": 3,
      "note": 69,
      "start": 7.4898,
      "duration": 0.0309,
      "velocity": 94,
      "chip": "ym2612"
    },
    {
      "channel": 4,
      "note": 73,
      "start": 7.5005,
      "duration": 0.0663,
      "velocity": 110,
      "chip": "ym2612"
    },
    {
      "channel": 3,
      "note": 69,
      "start": 7.5326,
      "duration": 0.1623,
      "velocity": 94,
      "chip": "ym2612"
    },
    {
      "channel": 4,
      "note": 74,
      "start": 7.5854,
      "duration": 0.2466,
      "velocity": 110,
      "chip": "ym2612"
    },
    {
      "channel": 0,
      "note": 62,
      "start": 7.621,
      "duration": 0.1077,
      "velocity": 100,
      "chip": "ym2612"
    },
    {
      "channel": 3,
      "note": 69,
      "start": 7.716,
      "duration": 0.0312,
      "velocity": 94,
      "chip": "ym2612"
    },
    {
      "channel": 0,
      "note": 60,
      "start": 7.7502,
      "duration": 0.0336,
      "velocity": 100,
      "chip": "ym2612"
    },
    {
      "channel": 1,
      "note": 74,
      "start": 7.7507,
      "duration": 0.9174,
      "velocity": 110,
      "chip": "ym2612"
    },
    {
      "channel": 2,
      "note": 69,
      "start": 7.7513,
      "duration": 0.9171,
      "velocity": 110,
      "chip": "ym2612"
    },
    {
      "channel": 3,
      "note": 69,
      "start": 7.7544,
      "duration": 0.0302,
      "velocity": 94,
      "chip": "ym2612"
    },
    {
      "channel": 3,
      "note": 69,
      "start": 7.7981,
      "duration": 0.1621,
      "velocity": 94,
      "chip": "ym2612"
    },
    {
      "channel": 4,
      "note": 76,
      "start": 7.8506,
      "duration": 0.8678,
      "velocity": 110,
      "chip": "ym2612"
    },
    {
      "channel": 0,
      "note": 62,
      "start": 7.9778,
      "duration": 0.0338,
      "velocity": 100,
      "chip": "ym2612"
    },
    {
      "channel": 3,
      "note": 69,
      "start": 7.9814,
      "duration": 0.031,
      "velocity": 94,
      "chip": "ym2612"
    },
    {
      "channel": 0,
      "note": 55,
      "start": 8.0224,
      "duration": 0.034,
      "velocity": 100,
      "chip": "ym2612"
    },
    {
      "channel": 3,
      "note": 69,
      "start": 8.0262,
      "duration": 0.0311,
      "velocity": 94,
      "chip": "ym2612"
    },
    {
      "channel": 0,
      "note": 57,
      "start": 8.0615,
      "duration": 0.0343,
      "velocity": 100,
      "chip": "ym2612"
    },
    {
      "channel": 3,
      "note": 69,
      "start": 8.0652,
      "duration": 0.0314,
      "velocity": 94,
      "chip": "ym2612"
    },
    {
      "channel": 0,
      "note": 50,
      "start": 8.1065,
      "duration": 0.1171,
      "velocity": 100,
      "chip": "ym2612"
    },
    {
      "channel": 3,
      "note": 69,
      "start": 8.1102,
      "duration": 0.0311,
      "velocity": 94,
      "chip": "ym2612"
    },
    {
      "channel": 3,
      "note": 69,
      "start": 8.1539,
      "duration": 0.1621,
      "velocity": 94,
      "chip": "ym2612"
    },
    {
      "channel": 0,
      "note": 62,
      "start": 8.2421,
      "duration": 0.1079,
      "velocity": 100,
      "chip": "ym2612"
    },
    {
      "channel": 3,
      "note": 69,
      "start": 8.3373,
      "duration": 0.0313,
      "velocity": 94,
      "chip": "ym2612"
    },
    {
      "channel": 0,
      "note": 60,
      "start": 8.3728,
      "duration": 0.0341,
      "velocity": 100,
      "chip": "ym2612"
    },
    {
      "channel": 3,
      "note": 69,
      "start": 8.3765,
      "duration": 0.0313,
      "velocity": 94,
      "chip": "ym2612"
    },
    {
      "channel": 3,
      "note": 69,
      "start": 8.4209,
      "duration": 0.1619,
      "velocity": 94,
      "chip": "ym2612"
    },
    {
      "channel": 0,
      "note": 62,
      "start": 8.6005,
      "duration": 0.0339,
      "velocity": 100,
      "chip": "ym2612"
    },
    {
      "channel": 3,
      "note": 69,
      "start": 8.6042,
      "duration": 0.0311,
      "velocity": 94,
      "chip": "ym2612"
    },
    {
      "channel": 0,
      "note": 55,
      "start": 8.6448,
      "duration": 0.0348,
      "velocity": 100,
      "chip": "ym2612"
    },
    {
      "channel": 3,
      "note": 69,
      "start": 8.6487,
      "duration": 0.0317,
      "velocity": 94,
      "chip": "ym2612"
    },
    {
      "channel": 1,
      "note": 76,
      "start": 8.6717,
      "duration": 0.0458,
      "velocity": 110,
      "chip": "ym2612"
    },
    {
      "channel": 2,
      "note": 71,
      "start": 8.6722,
      "duration": 0.0455,
      "velocity": 110,
      "chip": "ym2612"
    },
    {
      "channel": 0,
      "note": 57,
      "start": 8.6838,
      "duration": 0.0333,
      "velocity": 100,
      "chip": "ym2612"
    },
    {
      "channel": 3,
      "note": 69,
      "start": 8.6875,
      "duration": 0.0306,
      "velocity": 94,
      "chip": "ym2612"
    },
    {
      "channel": 0,
      "note": 50,
      "start": 8.7285,
      "duration": 0.1174,
      "velocity": 100,
      "chip": "ym2612"
    },
    {
      "channel": 1,
      "note": 79,
      "start": 8.7291,
      "duration": 0.2607,
      "velocity": 110,
      "chip": "ym2612"
    },
    {
      "channel": 2,
      "note": 74,
      "start": 8.7296,
      "duration": 0.2605,
      "velocity": 110,
      "chip": "ym2612"
    },
    {
      "channel": 3,
      "note": 69,
      "start": 8.7329,
      "duration": 0.0307,
      "velocity": 94,
      "chip": "ym2612"
    },
    {
      "channel": 4,
      "note": 74,
      "start": 8.7336,
      "duration": 0.0768,
      "velocity": 110,
      "chip": "ym2612"
    },
    {
      "channel": 3,
      "note": 69,
      "start": 8.7762,
      "duration": 0.1629,
      "velocity": 94,
      "chip": "ym2612"
    },
    {
      "channel": 4,
      "note": 76,
      "start": 8.8289,
      "duration": 0.2468,
      "velocity": 110,
      "chip": "ym2612"
    },
    {
      "channel": 0,
      "note": 62,
      "start": 8.8645,
      "duration": 0.1078,
      "velocity": 100,
      "chip": "ym2612"
    },
    {
      "channel": 3,
      "note": 69,
      "start": 8.9596,
      "duration": 0.0309,
      "velocity": 94,
      "chip": "ym2612"
    },
    {
      "channel": 0,
      "note": 60,
      "start": 8.9934,
      "duration": 0.0329,
      "velocity": 100,
      "chip": "ym2612"
    },
    {
      "channel": 1,
      "note": 78,
      "start": 8.994,
      "duration": 0.2605,
      "velocity": 110,
      "chip": "ym2612"
    },
    {
      "channel": 2,
      "note": 73,
      "start": 8.9945,
      "duration": 0.2602,
      "velocity": 110,
      "chip": "ym2612"
    },
    {
      "channel": 3,
      "note": 69,
      "start": 8.9977,
      "duration": 0.0305,
      "velocity": 94,
      "chip": "ym2612"
    },
    {
      "channel": 3,
      "note": 69,
      "start": 9.0416,
      "duration": 0.1631,
      "velocity": 94,
      "chip": "ym2612"
    },
    {
      "channel": 4,
      "note": 79,
      "start": 9.0941,
      "duration": 0.2208,
      "velocity": 110,
      "chip": "ym2612"
    },
    {
      "channel": 0,
      "note": 62,
      "start": 9.2214,
      "duration": 0.0328,
      "velocity": 100,
      "chip": "ym2612"
    },
    {
      "channel": 3,
      "note": 69,
      "start": 9.225,
      "duration": 0.0311,
      "velocity": 94,
      "chip": "ym2612"
    },
    {
      "channel": 0,
      "note": 55,
      "start": 9.2663,
      "duration": 0.0327,
      "velocity": 100,
      "chip": "ym2612"
    },
    {
      "channel": 1,
      "note": 83,
      "start": 9.2668,
      "duration": 0.1152,
      "velocity": 110,
      "chip": "ym2612"
    },
    {
      "channel": 2,
      "note": 78,
      "start": 9.2674,
      "duration": 0.115,
      "velocity": 110,
      "chip": "ym2612"
    },
    {
      "channel": 3,
      "note": 69,
      "start": 9.2707,
      "duration": 0.0291,
      "velocity": 94,
      "chip": "ym2612"
    },
    {
      "channel": 0,
      "note": 57,
      "start": 9.3042,
      "duration": 0.0323,
      "velocity": 100,
      "chip": "ym2612"
    },
    {
      "channel": 3,
      "note": 69,
      "start": 9.3078,
      "duration": 0.0296,
      "velocity": 94,
      "chip": "ym2612"
    },
    {
      "channel": 4,
      "note": 78,
      "start": 9.3184,
      "duration": 0.2685,
      "velocity": 110,
      "chip": "ym2612"
    },
    {
      "channel": 0,
      "note": 50,
      "start": 9.349,
      "duration": 0.1162,
      "velocity": 100,
      "chip": "ym2612"
    },
    {
      "channel": 3,
      "note": 69,
      "start": 9.3528,
      "duration": 0.0299,
      "velocity": 94,
      "chip": "ym2612"
    },
    {
      "channel": 1,
      "note": 81,
      "start": 9.3934,
      "duration": 0.5597,
      "velocity": 110,
      "chip": "ym2612"
    },
    {
      "channel": 2,
      "note": 76,
      "start": 9.3939,
      "duration": 0.5594,
      "velocity": 110,
      "chip": "ym2612"
    },
    {
      "channel": 3,
      "note": 69,
      "start": 9.397,
      "duration": 0.1605,
      "velocity": 94,
      "chip": "ym2612"
    },
    {
      "channel": 0,
      "note": 62,
      "start": 9.4838,
      "duration": 0.1091,
      "velocity": 100,
      "chip": "ym2612"
    },
    {
      "channel": 3,
      "note": 69,
      "start": 9.5798,
      "duration": 0.0297,
      "velocity": 94,
      "chip": "ym2612"
    },
    {
      "channel": 4,
      "note": 83,
      "start": 9.5904,
      "duration": 0.4496,
      "velocity": 110,
      "chip": "ym2612"
    },
    {
      "channel": 0,
      "note": 60,
      "start": 9.6129,
      "duration": 0.0338,
      "velocity": 100,
      "chip": "ym2612"
    },
    {
      "channel": 3,
      "note": 69,
      "start": 9.6176,
      "duration": 0.03,
      "velocity": 94,
      "chip": "ym2612"
    },
    {
      "channel": 3,
      "note": 69,
      "start": 9.6619,
      "duration": 0.1609,
      "velocity": 94,
      "chip": "ym2612"
    },
    {
      "channel": 0,
      "note": 62,
      "start": 9.8405,
      "duration": 0.0343,
      "velocity": 100,
      "chip": "ym2612"
    },
    {
      "channel": 3,
      "note": 69,
      "start": 9.8453,
      "duration": 0.0304,
      "velocity": 94,
      "chip": "ym2612"
    },
    {
      "channel": 0,
      "note": 55,
      "start": 9.8796,
      "duration": 0.0342,
      "velocity": 100,
      "chip": "ym2612"
    },
    {
      "channel": 3,
      "note": 69,
      "start": 9.8844,
      "duration": 0.0303,
      "velocity": 94,
      "chip": "ym2612"
    },
    {
      "channel": 0,
      "note": 57,
      "start": 9.9186,
      "duration": 0.0342,
      "velocity": 100,
      "chip": "ym2612"
    },
    {
      "channel": 3,
      "note": 69,
      "start": 9.9233,
      "duration": 0.0304,
      "velocity": 94,
      "chip": "ym2612"
    },
    {
      "channel": 0,
      "note": 53,
      "start": 9.9583,
      "duration": 0.1164,
      "velocity": 100,
      "chip": "ym2612"
    },
    {
      "channel": 1,
      "note": 77,
      "start": 9.9634,
      "duration": 1.1445,
      "velocity": 97,
      "chip": "ym2612"
    },
    {
      "channel": 2,
      "note": 72,
      "start": 9.9676,
      "duration": 1.1407,
      "velocity": 97,
      "chip": "ym2612"
    },
    {
      "channel": 3,
      "note": 69,
      "start": 9.971,
      "duration": 0.0302,
      "velocity": 94,
      "chip": "ym2612"
    },
    {
      "channel": 3,
      "note": 69,
      "start": 10.0081,
      "duration": 0.1591,
      "velocity": 94,
      "chip": "ym2612"
    },
    {
      "channel": 4,
      "note": 81,
      "start": 10.0629,
      "duration": 1.1302,
      "velocity": 97,
      "chip": "ym2612"
    },
    {
      "channel": 0,
      "note": 65,
      "start": 10.0933,
      "duration": 0.1093,
      "velocity": 100,
      "chip": "ym2612"
    },
    {
      "channel": 3,
      "note": 69,
      "start": 10.1894,
      "duration": 0.0303,
      "velocity": 94,
      "chip": "ym2612"
    },
    {
      "channel": 0,
      "note": 63,
      "start": 10.2227,
      "duration": 0.0341,
      "velocity": 100,
      "chip": "ym2612"
    },
    {
      "channel": 3,
      "note": 69,
      "start": 10.2274,
      "duration": 0.0303,
      "velocity": 94,
      "chip": "ym2612"
    },
    {
      "channel": 3,
      "note": 69,
      "start": 10.2709,
      "duration": 0.1621,
      "velocity": 94,
      "chip": "ym2612"
    },
    {
      "channel": 0,
      "note": 65,
      "start": 10.4505,
      "duration": 0.034,
      "velocity": 100,
      "chip": "ym2612"
    },
    {
      "channel": 3,
      "note": 69,
      "start": 10.4542,
      "duration": 0.0314,
      "velocity": 94,
      "chip": "ym2612"
    },
    {
      "channel": 0,
      "note": 58,
      "start": 10.4949,
      "duration": 0.0341,
      "velocity": 100,
      "chip": "ym2612"
    },
    {
      "channel": 3,
      "note": 69,
      "start": 10.4987,
      "duration": 0.0313,
      "velocity": 94,
      "chip": "ym2612"
    },
    {
      "channel": 0,
      "note": 60,
      "start": 10.5326,
      "duration": 0.0346,
      "velocity": 100,
      "chip": "ym2612"
    },
    {
      "channel": 3,
      "note": 69,
      "start": 10.5362,
      "duration": 0.0319,
      "velocity": 94,
      "chip": "ym2612"
    },
    {
      "channel": 0,
      "note": 53,
      "start": 10.5709,
      "duration": 0.118,
      "velocity": 100,
      "chip": "ym2612"
    },
    {
      "channel": 3,
      "note": 69,
      "start": 10.5746,
      "duration": 0.0319,
      "velocity": 94,
      "chip": "ym2612"
    },
    {
      "channel": 3,
      "note": 69,
      "start": 10.6188,
      "duration": 0.1623,
      "velocity": 94,
      "chip": "ym2612"
    },
    {
      "channel": 0,
      "note": 65,
      "start": 10.7071,
      "duration": 0.1094,
      "velocity": 100,
      "chip": "ym2612"
    },
    {
      "channel": 3,
      "note": 69,
      "start": 10.8022,
      "duration": 0.0317,
      "velocity": 94,
      "chip": "ym2612"
    },
    {
      "channel": 0,
      "note": 63,
      "start": 10.838,
      "duration": 0.0337,
      "velocity": 100,
      "chip": "ym2612"
    },
    {
      "channel": 3,
      "note": 69,
      "start": 10.8416,
      "duration": 0.031,
      "velocity": 94,
      "chip": "ym2612"
    },
    {
      "channel": 3,
      "note": 69,
      "start": 10.8856,
      "duration": 0.1022,
      "velocity": 94,
      "chip": "ym2612"
    },
    {
      "channel": 0,
      "note": 65,
      "start": 10.9912,
      "duration": 0.0351,
      "velocity": 100,
      "chip": "ym2612"
    },
    {
      "channel": 3,
      "note": 69,
      "start": 10.9948,
      "duration": 0.0325,
      "velocity": 94,
      "chip": "ym2612"
    },
    {
      "channel": 0,
      "note": 58,
      "start": 11.0319,
      "duration": 0.0361,
      "velocity": 100,
      "chip": "ym2612"
    },
    {
      "channel": 3,
      "note": 69,
      "start": 11.0356,
      "duration": 0.0333,
      "velocity": 94,
      "chip": "ym2612"
    },
    {
      "channel": 0,
      "note": 60,
      "start": 11.0715,
      "duration": 0.0361,
      "velocity": 100,
      "chip": "ym2612"
    },
    {
      "channel": 3,
      "note": 69,
      "start": 11.0752,
      "duration": 0.0335,
      "velocity": 94,
      "chip": "ym2612"
    },
    {
      "channel": 0,
      "note": 51,
      "start": 11.1117,
      "duration": 0.1169,
      "velocity": 100,
      "chip": "ym2612"
    },
    {
      "channel": 1,
      "note": 79,
      "start": 11.1123,
      "duration": 1.1473,
      "velocity": 97,
      "chip": "ym2612"
    },
    {
      "channel": 2,
      "note": 75,
      "start": 11.1128,
      "duration": 1.1472,
      "velocity": 97,
      "chip": "ym2612"
    },
    {
      "channel": 3,
      "note": 69,
      "start": 11.116,
      "duration": 0.0309,
      "velocity": 94,
      "chip": "ym2612"
    },
    {
      "channel": 3,
      "note": 69,
      "start": 11.1588,
      "duration": 0.1622,
      "velocity": 94,
      "chip": "ym2612"
    },
    {
      "channel": 4,
      "note": 77,
      "start": 11.2116,
      "duration": 1.1333,
      "velocity": 97,
      "chip": "ym2612"
    },
    {
      "channel": 0,
      "note": 63,
      "start": 11.2482,
      "duration": 0.1066,
      "velocity": 100,
      "chip": "ym2612"
    },
    {
      "channel": 3,
      "note": 69,
      "start": 11.3422,
      "duration": 0.031,
      "velocity": 94,
      "chip": "ym2612"
    },
    {
      "channel": 0,
      "note": 61,
      "start": 11.3763,
      "duration": 0.0335,
      "velocity": 100,
      "chip": "ym2612"
    },
    {
      "channel": 3,
      "note": 69,
      "start": 11.3799,
      "duration": 0.0308,
      "velocity": 94,
      "chip": "ym2612"
    },
    {
      "channel": 3,
      "note": 69,
      "start": 11.4241,
      "duration": 0.1621,
      "velocity": 94,
      "chip": "ym2612"
    },
    {
      "channel": 0,
      "note": 63,
      "start": 11.6038,
      "duration": 0.0339,
      "velocity": 100,
      "chip": "ym2612"
    },
    {
      "channel": 3,
      "note": 69,
      "start": 11.6074,
      "duration": 0.0313,
      "velocity": 94,
      "chip": "ym2612"
    },
    {
      "channel": 0,
      "note": 56,
      "start": 11.6484,
      "duration": 0.0341,
      "velocity": 100,
      "chip": "ym2612"
    },
    {
      "channel": 3,
      "note": 69,
      "start": 11.6522,
      "duration": 0.0313,
      "velocity": 94,
      "chip": "ym2612"
    },
    {
      "channel": 0,
      "note": 58,
      "start": 11.6861,
      "duration": 0.0343,
      "velocity": 100,
      "chip": "ym2612"
    },
    {
      "channel": 3,
      "note": 69,
      "start": 11.6897,
      "duration": 0.0316,
      "velocity": 94,
      "chip": "ym2612"
    },
    {
      "channel": 0,
      "note": 51,
      "start": 11.7242,
      "duration": 0.1177,
      "velocity": 100,
      "chip": "ym2612"
    },
    {
      "channel": 3,
      "note": 69,
      "start": 11.7279,
      "duration": 0.0316,
      "velocity": 94,
      "chip": "ym2612"
    },
    {
      "channel": 3,
      "note": 69,
      "start": 11.7722,
      "duration": 0.1622,
      "velocity": 94,
      "chip": "ym2612"
    },
    {
      "channel": 0,
      "note": 63,
      "start": 11.8604,
      "duration": 0.108,
      "velocity": 100,
      "chip": "ym2612"
    },
    {
      "channel": 3,
      "note": 69,
      "start": 11.9555,
      "duration": 0.0315,
      "velocity": 94,
      "chip": "ym2612"
    },
    {
      "channel": 0,
      "note": 61,
      "start": 11.9912,
      "duration": 0.0339,
      "velocity": 100,
      "chip": "ym2612"
    },
    {
      "channel": 3,
      "note": 69,
      "start": 11.9949,
      "duration": 0.0312,
      "velocity": 94,
      "chip": "ym2612"
    },
    {
      "channel": 3,
      "note": 69,
      "start": 12.0394,
      "duration": 0.1034,
      "velocity": 94,
      "chip": "ym2612"
    },
    {
      "channel": 0,
      "note": 63,
      "start": 12.1453,
      "duration": 0.0338,
      "velocity": 100,
      "chip": "ym2612"
    },
    {
      "channel": 3,
      "note": 69,
      "start": 12.149,
      "duration": 0.031,
      "velocity": 94,
      "chip": "ym2612"
    },
    {
      "channel": 0,
      "note": 56,
      "start": 12.1847,
      "duration": 0.0352,
      "velocity": 100,
      "chip": "ym2612"
    },
    {
      "channel": 3,
      "note": 69,
      "start": 12.1885,
      "duration": 0.0323,
      "velocity": 94,
      "chip": "ym2612"
    },
    {
      "channel": 0,
      "note": 58,
      "start": 12.2234,
      "duration": 0.0359,
      "velocity": 100,
      "chip": "ym2612"
    },
    {
      "channel": 3,
      "note": 69,
      "start": 12.2271,
      "duration": 0.0333,
      "velocity": 94,
      "chip": "ym2612"
    },
    {
      "channel": 0,
      "note": 53,
      "start": 12.2634,
      "duration": 0.1171,
      "velocity": 100,
      "chip": "ym2612"
    },
    {
      "channel": 1,
      "note": 81,
      "start": 12.2639,
      "duration": 1.1475,
      "velocity": 97,
      "chip": "ym2612"
    },
    {
      "channel": 2,
      "note": 77,
      "start": 12.2645,
      "duration": 1.1473,
      "velocity": 97,
      "chip": "ym2612"
    },
    {
      "channel": 3,
      "note": 69,
      "start": 12.2678,
      "duration": 0.0309,
      "velocity": 94,
      "chip": "ym2612"
    },
    {
      "channel": 3,
      "note": 69,
      "start": 12.3108,
      "duration": 0.1626,
      "velocity": 94,
      "chip": "ym2612"
    },
    {
      "channel": 4,
      "note": 79,
      "start": 12.3635,
      "duration": 1.1337,
      "velocity": 97,
      "chip": "ym2612"
    },
    {
      "channel": 0,
      "note": 65,
      "start": 12.3991,
      "duration": 0.1079,
      "velocity": 100,
      "chip": "ym2612"
    },
    {
      "channel": 3,
      "note": 69,
      "start": 12.4942,
      "duration": 0.0309,
      "velocity": 94,
      "chip": "ym2612"
    },
    {
      "channel": 0,
      "note": 63,
      "start": 12.5281,
      "duration": 0.0336,
      "velocity": 100,
      "chip": "ym2612"
    },
    {
      "channel": 3,
      "note": 69,
      "start": 12.5317,
      "duration": 0.0309,
      "velocity": 94,
      "chip": "ym2612"
    },
    {
      "channel": 3,
      "note": 69,
      "start": 12.576,
      "duration": 0.1631,
      "velocity": 94,
      "chip": "ym2612"
    },
    {
      "channel": 0,
      "note": 65,
      "start": 12.7556,
      "duration": 0.033,
      "velocity": 100,
      "chip": "ym2612"
    },
    {
      "channel": 3,
      "note": 69,
      "start": 12.7593,
      "duration": 0.0314,
      "velocity": 94,
      "chip": "ym2612"
    },
    {
      "channel": 0,
      "note": 58,
      "start": 12.8004,
      "duration": 0.033,
      "velocity": 100,
      "chip": "ym2612"
    },
    {
      "channel": 3,
      "note": 69,
      "start": 12.8042,
      "duration": 0.0313,
      "velocity": 94,
      "chip": "ym2612"
    },
    {
      "channel": 0,
      "note": 60,
      "start": 12.838,
      "duration": 0.0349,
      "velocity": 100,
      "chip": "ym2612"
    },
    {
      "channel": 3,
      "note": 69,
      "start": 12.8417,
      "duration": 0.0322,
      "velocity": 94,
      "chip": "ym2612"
    },
    {
      "channel": 0,
      "note": 53,
      "start": 12.8786,
      "duration": 0.1165,
      "velocity": 100,
      "chip": "ym2612"
    },
    {
      "channel": 3,
      "note": 69,
      "start": 12.8824,
      "duration": 0.0302,
      "velocity": 94,
      "chip": "ym2612"
    },
    {
      "channel": 3,
      "note": 69,
      "start": 12.9263,
      "duration": 0.1612,
      "velocity": 94,
      "chip": "ym2612"
    },
    {
      "channel": 0,
      "note": 65,
      "start": 13.0136,
      "duration": 0.109,
      "velocity": 100,
      "chip": "ym2612"
    },
    {
      "channel": 3,
      "note": 69,
      "start": 13.1097,
      "duration": 0.0301,
      "velocity": 94,
      "chip": "ym2612"
    },
    {
      "channel": 0,
      "note": 63,
      "start": 13.1442,
      "duration": 0.0337,
      "velocity": 100,
      "chip": "ym2612"
    },
    {
      "channel": 3,
      "note": 69,
      "start": 13.1489,
      "duration": 0.03,
      "velocity": 94,
      "chip": "ym2612"
    },
    {
      "channel": 3,
      "note": 69,
      "start": 13.1931,
      "duration": 0.1011,
      "velocity": 94,
      "chip": "ym2612"
    },
    {
      "channel": 0,
      "note": 65,
      "start": 13.2968,
      "duration": 0.0338,
      "velocity": 100,
      "chip": "ym2612"
    },
    {
      "channel": 3,
      "note": 69,
      "start": 13.3015,
      "duration": 0.0301,
      "velocity": 94,
      "chip": "ym2612"
    },
    {
      "channel": 0,
      "note": 58,
      "start": 13.3362,
      "duration": 0.0355,
      "velocity": 100,
      "chip": "ym2612"
    },
    {
      "channel": 3,
      "note": 69,
      "start": 13.341,
      "duration": 0.0317,
      "velocity": 94,
      "chip": "ym2612"
    },
    {
      "channel": 0,
      "note": 60,
      "start": 13.3753,
      "duration": 0.0359,
      "velocity": 100,
      "chip": "ym2612"
    },
    {
      "channel": 3,
      "note": 69,
      "start": 13.38,
      "duration": 0.0323,
      "velocity": 94,
      "chip": "ym2612"
    },
    {
      "channel": 0,
      "note": 55,
      "start": 13.4157,
      "duration": 0.1165,
      "velocity": 100,
      "chip": "ym2612"
    },
    {
      "channel": 1,
      "note": 84,
      "start": 13.4162,
      "duration": 0.6083,
      "velocity": 97,
      "chip": "ym2612"
    },
    {
      "channel": 2,
      "note": 79,
      "start": 13.4168,
      "duration": 0.9112,
      "velocity": 97,
      "chip": "ym2612"
    },
    {
      "channel": 3,
      "note": 69,
      "start": 13.4211,
      "duration": 0.03,
      "velocity": 94,
      "chip": "ym2612"
    },
    {
      "channel": 3,
      "note": 69,
      "start": 13.4634,
      "duration": 0.1612,
      "velocity": 94,
      "chip": "ym2612"
    },
    {
      "channel": 4,
      "note": 81,
      "start": 13.5152,
      "duration": 0.5947,
      "velocity": 97,
      "chip": "ym2612"
    },
    {
      "channel": 0,
      "note": 67,
      "start": 13.5508,
      "duration": 0.1089,
      "velocity": 100,
      "chip": "ym2612"
    },
    {
      "channel": 3,
      "note": 69,
      "start": 13.6469,
      "duration": 0.03,
      "velocity": 94,
      "chip": "ym2612"
    },
    {
      "channel": 0,
      "note": 65,
      "start": 13.6799,
      "duration": 0.0341,
      "velocity": 100,
      "chip": "ym2612"
    },
    {
      "channel": 3,
      "note": 69,
      "start": 13.6846,
      "duration": 0.0304,
      "velocity": 94,
      "chip": "ym2612"
    },
    {
      "channel": 3,
      "note": 69,
      "start": 13.7291,
      "duration": 0.161,
      "velocity": 94,
      "chip": "ym2612"
    },
    {
      "channel": 0,
      "note": 67,
      "start": 13.9077,
      "duration": 0.0342,
      "velocity": 100,
      "chip": "ym2612"
    },
    {
      "channel": 3,
      "note": 69,
      "start": 13.9113,
      "duration": 0.0315,
      "velocity": 94,
      "chip": "ym2612"
    },
    {
      "channel": 0,
      "note": 60,
      "start": 13.9523,
      "duration": 0.0341,
      "velocity": 100,
      "chip": "ym2612"
    },
    {
      "channel": 3,
      "note": 69,
      "start": 13.9561,
      "duration": 0.0313,
      "velocity": 94,
      "chip": "ym2612"
    },
    {
      "channel": 0,
      "note": 62,
      "start": 13.99,
      "duration": 0.0344,
      "velocity": 100,
      "chip": "ym2612"
    },
    {
      "channel": 3,
      "note": 69,
      "start": 13.9936,
      "duration": 0.0317,
      "velocity": 94,
      "chip": "ym2612"
    },
    {
      "channel": 0,
      "note": 55,
      "start": 14.0281,
      "duration": 0.1175,
      "velocity": 100,
      "chip": "ym2612"
    },
    {
      "channel": 1,
      "note": 83,
      "start": 14.0286,
      "duration": 0.299,
      "velocity": 97,
      "chip": "ym2612"
    },
    {
      "channel": 3,
      "note": 69,
      "start": 14.0321,
      "duration": 0.0313,
      "velocity": 94,
      "chip": "ym2612"
    },
    {
      "channel": 3,
      "note": 69,
      "start": 14.0757,
      "duration": 0.1623,
      "velocity": 94,
      "chip": "ym2612"
    },
    {
      "channel": 4,
      "note": 84,
      "start": 14.1295,
      "duration": 0.2664,
      "velocity": 97,
      "chip": "ym2612"
    },
    {
      "channel": 0,
      "note": 67,
      "start": 14.164,
      "duration": 0.1093,
      "velocity": 100,
      "chip": "ym2612"
    },
    {
      "channel": 3,
      "note": 69,
      "start": 14.2591,
      "duration": 0.0314,
      "velocity": 94,
      "chip": "ym2612"
    },
    {
      "channel": 0,
      "note": 65,
      "start": 14.2935,
      "duration": 0.0338,
      "velocity": 100,
      "chip": "ym2612"
    },
    {
      "channel": 3,
      "note": 69,
      "start": 14.2971,
      "duration": 0.0312,
      "velocity": 94,
      "chip": "ym2612"
    },
    {
      "channel": 1,
      "note": 89,
      "start": 14.3417,
      "duration": 0.0216,
      "velocity": 98,
      "chip": "ym2612"
    },
    {
      "channel": 2,
      "note": 84,
      "start": 14.3466,
      "duration": 0.0169,
      "velocity": 98,
      "chip": "ym2612"
    },
    {
      "channel": 3,
      "note": 69,
      "start": 14.3499,
      "duration": 0.0309,
      "velocity": 94,
      "chip": "ym2612"
    },
    {
      "channel": 1,
      "note": 91,
      "start": 14.3666,
      "duration": 0.0137,
      "velocity": 98,
      "chip": "ym2612"
    },
    {
      "channel": 2,
      "note": 86,
      "start": 14.3671,
      "duration": 0.0134,
      "velocity": 98,
      "chip": "ym2612"
    },
    {
      "channel": 0,
      "note": 67,
      "start": 14.3834,
      "duration": 0.0429,
      "velocity": 100,
      "chip": "ym2612"
    },
    {
      "channel": 1,
      "note": 93,
      "start": 14.3839,
      "duration": 0.0244,
      "velocity": 98,
      "chip": "ym2612"
    },
    {
      "channel": 2,
      "note": 89,
      "start": 14.3844,
      "duration": 0.0241,
      "velocity": 98,
      "chip": "ym2612"
    },
    {
      "channel": 3,
      "note": 69,
      "start": 14.3876,
      "duration": 0.0395,
      "velocity": 94,
      "chip": "ym2612"
    },
    {
      "channel": 4,
      "note": 83,
      "start": 14.4054,
      "duration": 0.0151,
      "velocity": 98,
      "chip": "ym2612"
    },
    {
      "channel": 1,
      "note": 95,
      "start": 14.4116,
      "duration": 0.0149,
      "velocity": 98,
      "chip": "ym2612"
    },
    {
      "channel": 2,
      "note": 91,
      "start": 14.4121,
      "duration": 0.0146,
      "velocity": 98,
      "chip": "ym2612"
    },
    {
      "channel": 4,
      "note": 89,
      "start": 14.4238,
      "duration": 0.0188,
      "velocity": 98,
      "chip": "ym2612"
    },
    {
      "channel": 0,
      "note": 60,
      "start": 14.4296,
      "duration": 0.0385,
      "velocity": 100,
      "chip": "ym2612"
    },
    {
      "channel": 1,
      "note": 93,
      "start": 14.4302,
      "duration": 0.0186,
      "velocity": 98,
      "chip": "ym2612"
    },
    {
      "channel": 2,
      "note": 89,
      "start": 14.4307,
      "duration": 0.0194,
      "velocity": 98,
      "chip": "ym2612"
    },
    {
      "channel": 3,
      "note": 69,
      "start": 14.4339,
      "duration": 0.035,
      "velocity": 94,
      "chip": "ym2612"
    },
    {
      "channel": 4,
      "note": 91,
      "start": 14.4459,
      "duration": 0.0163,
      "velocity": 98,
      "chip": "ym2612"
    },
    {
      "channel": 1,
      "note": 95,
      "start": 14.4532,
      "duration": 0.0152,
      "velocity": 98,
      "chip": "ym2612"
    },
    {
      "channel": 2,
      "note": 91,
      "start": 14.4537,
      "duration": 0.0149,
      "velocity": 98,
      "chip": "ym2612"
    },
    {
      "channel": 4,
      "note": 93,
      "start": 14.4656,
      "duration": 0.0173,
      "velocity": 98,
      "chip": "ym2612"
    },
    {
      "channel": 0,
      "note": 62,
      "start": 14.4715,
      "duration": 0.036,
      "velocity": 100,
      "chip": "ym2612"
    },
    {
      "channel": 1,
      "note": 96,
      "start": 14.4721,
      "duration": 0.0171,
      "velocity": 98,
      "chip": "ym2612"
    },
    {
      "channel": 2,
      "note": 94,
      "start": 14.4726,
      "duration": 0.0168,
      "velocity": 98,
      "chip": "ym2612"
    },
    {
      "channel": 3,
      "note": 69,
      "start": 14.4757,
      "duration": 0.0327,
      "velocity": 94,
      "chip": "ym2612"
    },
    {
      "channel": 4,
      "note": 95,
      "start": 14.4863,
      "duration": 0.0152,
      "velocity": 98,
      "chip": "ym2612"
    },
    {
      "channel": 1,
      "note": 98,
      "start": 14.4936,
      "duration": 0.0142,
      "velocity": 98,
      "chip": "ym2612"
    },
    {
      "channel": 2,
      "note": 95,
      "start": 14.4941,
      "duration": 0.0139,
      "velocity": 98,
      "chip": "ym2612"
    },
    {
      "channel": 4,
      "note": 93,
      "start": 14.505,
      "duration": 0.0181,
      "velocity": 98,
      "chip": "ym2612"
    },
    {
      "channel": 0,
      "note": 57,
      "start": 14.5111,
      "duration": 0.0356,
      "velocity": 100,
      "chip": "ym2612"
    },
    {
      "channel": 1,
      "note": 100,
      "start": 14.5118,
      "duration": 0.0175,
      "velocity": 98,
      "chip": "ym2612"
    },
    {
      "channel": 2,
      "note": 96,
      "start": 14.5123,
      "duration": 0.0172,
      "velocity": 98,
      "chip": "ym2612"
    },
    {
      "channel": 3,
      "note": 69,
      "start": 14.5157,
      "duration": 0.032,
      "velocity": 94,
      "chip": "ym2612"
    },
    {
      "channel": 4,
      "note": 95,
      "start": 14.5264,
      "duration": 0.0145,
      "velocity": 98,
      "chip": "ym2612"
    },
    {
      "channel": 1,
      "note": 96,
      "start": 14.5336,
      "duration": 0.0134,
      "velocity": 98,
      "chip": "ym2612"
    },
    {
      "channel": 2,
      "note": 93,
      "start": 14.5341,
      "duration": 0.0132,
      "velocity": 98,
      "chip": "ym2612"
    },
    {
      "channel": 4,
      "note": 96,
      "start": 14.5444,
      "duration": 0.0484,
      "velocity": 98,
      "chip": "ym2612"
    },
    {
      "channel": 1,
      "note": 93,
      "start": 14.5556,
      "duration": 0.073,
      "velocity": 98,
      "chip": "ym2612"
    },
    {
      "channel": 2,
      "note": 88,
      "start": 14.5561,
      "duration": 0.0727,
      "velocity": 98,
      "chip": "ym2612"
    },
    {
      "channel": 3,
      "note": 69,
      "start": 14.5593,
      "duration": 0.1033,
      "velocity": 94,
      "chip": "ym2612"
    },
    {
      "channel": 4,
      "note": 98,
      "start": 14.6113,
      "duration": 0.0448,
      "velocity": 98,
      "chip": "ym2612"
    },
    {
      "channel": 0,
      "note": 57,
      "start": 14.6479,
      "duration": 0.0345,
      "velocity": 100,
      "chip": "ym2612"
    },
    {
      "channel": 1,
      "note": 88,
      "start": 14.6485,
      "duration": 0.0135,
      "velocity": 98,
      "chip": "ym2612"
    },
    {
      "channel": 2,
      "note": 84,
      "start": 14.649,
      "duration": 0.0133,
      "velocity": 98,
      "chip": "ym2612"
    },
    {
      "channel": 4,
      "note": 100,
      "start": 14.6596,
      "duration": 0.0172,
      "velocity": 98,
      "chip": "ym2612"
    },
    {
      "channel": 1,
      "note": 84,
      "start": 14.6662,
      "duration": 0.0166,
      "velocity": 98,
      "chip": "ym2612"
    },
    {
      "channel": 2,
      "note": 81,
      "start": 14.6667,
      "duration": 0.0163,
      "velocity": 98,
      "chip": "ym2612"
    },
    {
      "channel": 3,
      "note": 69,
      "start": 14.67,
      "duration": 0.0314,
      "velocity": 94,
      "chip": "ym2612"
    },
    {
      "channel": 4,
      "note": 96,
      "start": 14.6802,
      "duration": 0.0146,
      "velocity": 98,
      "chip": "ym2612"
    },
    {
      "channel": 1,
      "note": 81,
      "start": 14.6876,
      "duration": 0.0132,
      "velocity": 98,
      "chip": "ym2612"
    },
    {
      "channel": 2,
      "note": 76,
      "start": 14.6881,
      "duration": 0.013,
      "velocity": 98,
      "chip": "ym2612"
    },
    {
      "channel": 4,
      "note": 93,
      "start": 14.6983,
      "duration": 0.0177,
      "velocity": 98,
      "chip": "ym2612"
    },
    {
      "channel": 0,
      "note": 55,
      "start": 14.7049,
      "duration": 0.0168,
      "velocity": 100,
      "chip": "ym2612"
    },
    {
      "channel": 1,
      "note": 76,
      "start": 14.7055,
      "duration": 0.0165,
      "velocity": 98,
      "chip": "ym2612"
    },
    {
      "channel": 2,
      "note": 72,
      "start": 14.706,
      "duration": 0.0162,
      "velocity": 98,
      "chip": "ym2612"
    },
    {
      "channel": 3,
      "note": 69,
      "start": 14.7091,
      "duration": 0.0317,
      "velocity": 94,
      "chip": "ym2612"
    },
    {
      "channel": 4,
      "note": 88,
      "start": 14.7194,
      "duration": 0.0148,
      "velocity": 98,
      "chip": "ym2612"
    },
    {
      "channel": 1,
      "note": 72,
      "start": 14.7268,
      "duration": 0.0133,
      "velocity": 98,
      "chip": "ym2612"
    },
    {
      "channel": 2,
      "note": 69,
      "start": 14.7274,
      "duration": 0.0131,
      "velocity": 98,
      "chip": "ym2612"
    },
    {
      "channel": 4,
      "note": 84,
      "start": 14.7377,
      "duration": 0.0228,
      "velocity": 98,
      "chip": "ym2612"
    },
    {
      "channel": 0,
      "note": 57,
      "start": 14.7492,
      "duration": 0.1174,
      "velocity": 100,
      "chip": "ym2612"
    },
    {
      "channel": 1,
      "note": 100,
      "start": 14.7497,
      "duration": 0.0166,
      "velocity": 98,
      "chip": "ym2612"
    },
    {
      "channel": 2,
      "note": 96,
      "start": 14.7503,
      "duration": 0.0163,
      "velocity": 98,
      "chip": "ym2612"
    },
    {
      "channel": 3,
      "note": 69,
      "start": 14.7535,
      "duration": 0.0315,
      "velocity": 94,
      "chip": "ym2612"
    },
    {
      "channel": 4,
      "note": 81,
      "start": 14.7639,
      "duration": 0.0146,
      "velocity": 98,
      "chip": "ym2612"
    },
    {
      "channel": 1,
      "note": 96,
      "start": 14.77,
      "duration": 0.0144,
      "velocity": 98,
      "chip": "ym2612"
    },
    {
      "channel": 2,
      "note": 93,
      "start": 14.7716,
      "duration": 0.0131,
      "velocity": 98,
      "chip": "ym2612"
    },
    {
      "channel": 4,
      "note": 76,
      "start": 14.7819,
      "duration": 0.049,
      "velocity": 98,
      "chip": "ym2612"
    },
    {
      "channel": 1,
      "note": 93,
      "start": 14.7937,
      "duration": 0.0731,
      "velocity": 98,
      "chip": "ym2612"
    },
    {
      "channel": 2,
      "note": 88,
      "start": 14.7943,
      "duration": 0.0729,
      "velocity": 98,
      "chip": "ym2612"
    },
    {
      "channel": 3,
      "note": 69,
      "start": 14.7974,
      "duration": 0.1037,
      "velocity": 94,
      "chip": "ym2612"
    },
    {
      "channel": 4,
      "note": 72,
      "start": 14.8495,
      "duration": 0.045,
      "velocity": 98,
      "chip": "ym2612"
    },
    {
      "channel": 1,
      "note": 88,
      "start": 14.8855,
      "duration": 0.015,
      "velocity": 98,
      "chip": "ym2612"
    },
    {
      "channel": 2,
      "note": 84,
      "start": 14.886,
      "duration": 0.0148,
      "velocity": 98,
      "chip": "ym2612"
    },
    {
      "channel": 4,
      "note": 100,
      "start": 14.898,
      "duration": 0.0174,
      "velocity": 98,
      "chip": "ym2612"
    },
    {
      "channel": 1,
      "note": 84,
      "start": 14.9046,
      "duration": 0.0165,
      "velocity": 98,
      "chip": "ym2612"
    },
    {
      "channel": 2,
      "note": 81,
      "start": 14.9052,
      "duration": 0.0163,
      "velocity": 98,
      "chip": "ym2612"
    },
    {
      "channel": 3,
      "note": 69,
      "start": 14.9084,
      "duration": 0.0315,
      "velocity": 94,
      "chip": "ym2612"
    },
    {
      "channel": 4,
      "note": 96,
      "start": 14.9188,
      "duration": 0.0145,
      "velocity": 98,
      "chip": "ym2612"
    },
    {
      "channel": 1,
      "note": 81,
      "start": 14.9246,
      "duration": 0.0146,
      "velocity": 98,
      "chip": "ym2612"
    },
    {
      "channel": 2,
      "note": 76,
      "start": 14.9251,
      "duration": 0.0144,
      "velocity": 98,
      "chip": "ym2612"
    },
    {
      "channel": 4,
      "note": 93,
      "start": 14.9367,
      "duration": 0.0177,
      "velocity": 98,
      "chip": "ym2612"
    },
    {
      "channel": 0,
      "note": 55,
      "start": 14.9433,
      "duration": 0.0167,
      "velocity": 100,
      "chip": "ym2612"
    },
    {
      "channel": 1,
      "note": 76,
      "start": 14.9439,
      "duration": 0.0165,
      "velocity": 98,
      "chip": "ym2612"
    },
    {
      "channel": 2,
      "note": 72,
      "start": 14.9444,
      "duration": 0.0162,
      "velocity": 98,
      "chip": "ym2612"
    },
    {
      "channel": 3,
      "note": 69,
      "start": 14.9475,
      "duration": 0.0319,
      "velocity": 94,
      "chip": "ym2612"
    },
    {
      "channel": 4,
      "note": 88,
      "start": 14.9578,
      "duration": 0.0149,
      "velocity": 98,
      "chip": "ym2612"
    },
    {
      "channel": 0,
      "note": 57,
      "start": 14.9635,
      "duration": 0.015,
      "velocity": 100,
      "chip": "ym2612"
    },
    {
      "channel": 1,
      "note": 72,
      "start": 14.964,
      "duration": 0.0147,
      "velocity": 98,
      "chip": "ym2612"
    },
    {
      "channel": 2,
      "note": 69,
      "start": 14.9646,
      "duration": 0.0145,
      "velocity": 98,
      "chip": "ym2612"
    },
    {
      "channel": 4,
      "note": 84,
      "start": 14.9762,
      "duration": 0.0234,
      "velocity": 98,
      "chip": "ym2612"
    },
    {
      "channel": 0,
      "note": 52,
      "start": 14.9879,
      "duration": 0.0357,
      "velocity": 100,
      "chip": "ym2612"
    },
    {
      "channel": 1,
      "note": 95,
      "start": 14.9884,
      "duration": 0.017,
      "velocity": 98,
      "chip": "ym2612"
    },
    {
      "channel": 2,
      "note": 91,
      "start": 14.989,
      "duration": 0.0167,
      "velocity": 98,
      "chip": "ym2612"
    },
    {
      "channel": 3,
      "note": 69,
      "start": 14.9922,
      "duration": 0.0322,
      "velocity": 94,
      "chip": "ym2612"
    },
    {
      "channel": 4,
      "note": 81,
      "start": 15.003,
      "duration": 0.0148,
      "velocity": 98,
      "chip": "ym2612"
    },
    {
      "channel": 1,
      "note": 91,
      "start": 15.0088,
      "duration": 0.015,
      "velocity": 98,
      "chip": "ym2612"
    },
    {
      "channel": 2,
      "note": 88,
      "start": 15.0094,
      "duration": 0.0147,
      "velocity": 98,
      "chip": "ym2612"
    },
    {
      "channel": 4,
      "note": 76,
      "start": 15.0213,
      "duration": 0.0489,
      "velocity": 98,
      "chip": "ym2612"
    },
    {
      "channel": 1,
      "note": 88,
      "start": 15.0332,
      "duration": 0.0729,
      "velocity": 98,
      "chip": "ym2612"
    },
    {
      "channel": 2,
      "note": 83,
      "start": 15.0337,
      "duration": 0.0727,
      "velocity": 98,
      "chip": "ym2612"
    },
    {
      "channel": 3,
      "note": 69,
      "start": 15.0368,
      "duration": 0.1037,
      "velocity": 94,
      "chip": "ym2612"
    },
    {
      "channel": 4,
      "note": 72,
      "start": 15.0888,
      "duration": 0.0452,
      "velocity": 98,
      "chip": "ym2612"
    },
    {
      "channel": 0,
      "note": 52,
      "start": 15.1244,
      "duration": 0.036,
      "velocity": 100,
      "chip": "ym2612"
    },
    {
      "channel": 1,
      "note": 83,
      "start": 15.1249,
      "duration": 0.0149,
      "velocity": 98,
      "chip": "ym2612"
    },
    {
      "channel": 2,
      "note": 79,
      "start": 15.1255,
      "duration": 0.0146,
      "velocity": 98,
      "chip": "ym2612"
    },
    {
      "channel": 4,
      "note": 95,
      "start": 15.1374,
      "duration": 0.0173,
      "velocity": 98,
      "chip": "ym2612"
    },
    {
      "channel": 1,
      "note": 79,
      "start": 15.144,
      "duration": 0.0167,
      "velocity": 98,
      "chip": "ym2612"
    },
    {
      "channel": 2,
      "note": 76,
      "start": 15.1445,
      "duration": 0.0164,
      "velocity": 98,
      "chip": "ym2612"
    },
    {
      "channel": 3,
      "note": 69,
      "start": 15.1477,
      "duration": 0.0317,
      "velocity": 94,
      "chip": "ym2612"
    },
    {
      "channel": 4,
      "note": 91,
      "start": 15.1581,
      "duration": 0.0148,
      "velocity": 98,
      "chip": "ym2612"
    },
    {
      "channel": 1,
      "note": 76,
      "start": 15.1642,
      "duration": 0.0146,
      "velocity": 98,
      "chip": "ym2612"
    },
    {
      "channel": 2,
      "note": 71,
      "start": 15.1647,
      "duration": 0.0144,
      "velocity": 98,
      "chip": "ym2612"
    },
    {
      "channel": 4,
      "note": 88,
      "start": 15.1763,
      "duration": 0.0175,
      "velocity": 98,
      "chip": "ym2612"
    },
    {
      "channel": 0,
      "note": 50,
      "start": 15.1827,
      "duration": 0.0168,
      "velocity": 100,
      "chip": "ym2612"
    },
    {
      "channel": 1,
      "note": 71,
      "start": 15.1833,
      "duration": 0.0165,
      "velocity": 98,
      "chip": "ym2612"
    },
    {
      "channel": 2,
      "note": 67,
      "start": 15.1839,
      "duration": 0.0162,
      "velocity": 98,
      "chip": "ym2612"
    },
    {
      "channel": 3,
      "note": 69,
      "start": 15.1869,
      "duration": 0.0316,
      "velocity": 94,
      "chip": "ym2612"
    },
    {
      "channel": 4,
      "note": 83,
      "start": 15.1973,
      "duration": 0.0148,
      "velocity": 98,
      "chip": "ym2612"
    },
    {
      "channel": 1,
      "note": 67,
      "start": 15.2034,
      "duration": 0.0146,
      "velocity": 98,
      "chip": "ym2612"
    },
    {
      "channel": 2,
      "note": 64,
      "start": 15.2039,
      "duration": 0.0144,
      "velocity": 98,
      "chip": "ym2612"
    },
    {
      "channel": 4,
      "note": 79,
      "start": 15.2155,
      "duration": 0.023,
      "velocity": 98,
      "chip": "ym2612"
    },
    {
      "channel": 0,
      "note": 52,
      "start": 15.2272,
      "duration": 0.1178,
      "velocity": 100,
      "chip": "ym2612"
    },
    {
      "channel": 1,
      "note": 95,
      "start": 15.2278,
      "duration": 0.0166,
      "velocity": 98,
      "chip": "ym2612"
    },
    {
      "channel": 2,
      "note": 91,
      "start": 15.2284,
      "duration": 0.0163,
      "velocity": 98,
      "chip": "ym2612"
    },
    {
      "channel": 3,
      "note": 69,
      "start": 15.2316,
      "duration": 0.0317,
      "velocity": 94,
      "chip": "ym2612"
    },
    {
      "channel": 4,
      "note": 76,
      "start": 15.242,
      "duration": 0.0146,
      "velocity": 98,
      "chip": "ym2612"
    },
    {
      "channel": 1,
      "note": 91,
      "start": 15.2478,
      "duration": 0.0149,
      "velocity": 98,
      "chip": "ym2612"
    },
    {
      "channel": 2,
      "note": 88,
      "start": 15.2483,
      "duration": 0.0146,
      "velocity": 98,
      "chip": "ym2612"
    },
    {
      "channel": 4,
      "note": 71,
      "start": 15.2603,
      "duration": 0.0492,
      "velocity": 98,
      "chip": "ym2612"
    },
    {
      "channel": 1,
      "note": 88,
      "start": 15.2722,
      "duration": 0.0731,
      "velocity": 98,
      "chip": "ym2612"
    },
    {
      "channel": 2,
      "note": 83,
      "start": 15.2728,
      "duration": 0.0728,
      "velocity": 98,
      "chip": "ym2612"
    },
    {
      "channel": 3,
      "note": 69,
      "start": 15.2759,
      "duration": 0.1036,
      "velocity": 94,
      "chip": "ym2612"
    },
    {
      "channel": 4,
      "note": 67,
      "start": 15.328,
      "duration": 0.045,
      "velocity": 98,
      "chip": "ym2612"
    },
    {
      "channel": 1,
      "note": 83,
      "start": 15.364,
      "duration": 0.0149,
      "velocity": 98,
      "chip": "ym2612"
    },
    {
      "channel": 2,
      "note": 79,
      "start": 15.3645,
      "duration": 0.0147,
      "velocity": 98,
      "chip": "ym2612"
    },
    {
      "channel": 4,
      "note": 95,
      "start": 15.3765,
      "duration": 0.0175,
      "velocity": 98,
      "chip": "ym2612"
    },
    {
      "channel": 1,
      "note": 79,
      "start": 15.3831,
      "duration": 0.0166,
      "velocity": 98,
      "chip": "ym2612"
    },
    {
      "channel": 2,
      "note": 76,
      "start": 15.3837,
      "duration": 0.0164,
      "velocity": 98,
      "chip": "ym2612"
    },
    {
      "channel": 3,
      "note": 69,
      "start": 15.3869,
      "duration": 0.0312,
      "velocity": 94,
      "chip": "ym2612"
    },
    {
      "channel": 4,
      "note": 91,
      "start": 15.3973,
      "duration": 0.0132,
      "velocity": 98,
      "chip": "ym2612"
    },
    {
      "channel": 1,
      "note": 76,
      "start": 15.4032,
      "duration": 0.0143,
      "velocity": 98,
      "chip": "ym2612"
    },
    {
      "channel": 2,
      "note": 71,
      "start": 15.4037,
      "duration": 0.0141,
      "velocity": 98,
      "chip": "ym2612"
    },
    {
      "channel": 4,
      "note": 88,
      "start": 15.4151,
      "duration": 0.0177,
      "velocity": 98,
      "chip": "ym2612"
    },
    {
      "channel": 0,
      "note": 52,
      "start": 15.4216,
      "duration": 0.0169,
      "velocity": 100,
      "chip": "ym2612"
    },
    {
      "channel": 1,
      "note": 71,
      "start": 15.4221,
      "duration": 0.0166,
      "velocity": 98,
      "chip": "ym2612"
    },
    {
      "channel": 2,
      "note": 67,
      "start": 15.4227,
      "duration": 0.0164,
      "velocity": 98,
      "chip": "ym2612"
    },
    {
      "channel": 3,
      "note": 69,
      "start": 15.4258,
      "duration": 0.032,
      "velocity": 94,
      "chip": "ym2612"
    },
    {
      "channel": 4,
      "note": 83,
      "start": 15.4362,
      "duration": 0.0137,
      "velocity": 98,
      "chip": "ym2612"
    },
    {
      "channel": 0,
      "note": 54,
      "start": 15.442,
      "duration": 0.015,
      "velocity": 100,
      "chip": "ym2612"
    },
    {
      "channel": 1,
      "note": 67,
      "start": 15.4425,
      "duration": 0.0147,
      "velocity": 98,
      "chip": "ym2612"
    },
    {
      "channel": 2,
      "note": 64,
      "start": 15.443,
      "duration": 0.0144,
      "velocity": 98,
      "chip": "ym2612"
    },
    {
      "channel": 4,
      "note": 79,
      "start": 15.4546,
      "duration": 0.0233,
      "velocity": 98,
      "chip": "ym2612"
    },
    {
      "channel": 0,
      "note": 55,
      "start": 15.4662,
      "duration": 0.0355,
      "velocity": 100,
      "chip": "ym2612"
    },
    {
      "channel": 1,
      "note": 91,
      "start": 15.4667,
      "duration": 0.0171,
      "velocity": 98,
      "chip": "ym2612"
    },
    {
      "channel": 2,
      "note": 86,
      "start": 15.4673,
      "duration": 0.0168,
      "velocity": 98,
      "chip": "ym2612"
    },
    {
      "channel": 3,
      "note": 69,
      "start": 15.4706,
      "duration": 0.032,
      "velocity": 94,
      "chip": "ym2612"
    },
    {
      "channel": 4,
      "note": 76,
      "start": 15.4814,
      "duration": 0.0132,
      "velocity": 98,
      "chip": "ym2612"
    },
    {
      "channel": 1,
      "note": 86,
      "start": 15.4872,
      "duration": 0.0147,
      "velocity": 98,
      "chip": "ym2612"
    },
    {
      "channel": 2,
      "note": 83,
      "start": 15.4878,
      "duration": 0.0144,
      "velocity": 98,
      "chip": "ym2612"
    },
    {
      "channel": 4,
      "note": 71,
      "start": 15.4994,
      "duration": 0.0488,
      "velocity": 98,
      "chip": "ym2612"
    },
    {
      "channel": 1,
      "note": 83,
      "start": 15.5111,
      "duration": 0.073,
      "velocity": 98,
      "chip": "ym2612"
    },
    {
      "channel": 2,
      "note": 79,
      "start": 15.5116,
      "duration": 0.0728,
      "velocity": 98,
      "chip": "ym2612"
    },
    {
      "channel": 3,
      "note": 69,
      "start": 15.5148,
      "duration": 0.1037,
      "velocity": 94,
      "chip": "ym2612"
    },
    {
      "channel": 4,
      "note": 67,
      "start": 15.5668,
      "duration": 0.0438,
      "velocity": 98,
      "chip": "ym2612"
    },
    {
      "channel": 0,
      "note": 55,
      "start": 15.6023,
      "duration": 0.036,
      "velocity": 100,
      "chip": "ym2612"
    },
    {
      "channel": 1,
      "note": 79,
      "start": 15.6029,
      "duration": 0.015,
      "velocity": 98,
      "chip": "ym2612"
    },
    {
      "channel": 2,
      "note": 74,
      "start": 15.6034,
      "duration": 0.0147,
      "velocity": 98,
      "chip": "ym2612"
    },
    {
      "channel": 4,
      "note": 91,
      "start": 15.6154,
      "duration": 0.0173,
      "velocity": 98,
      "chip": "ym2612"
    },
    {
      "channel": 1,
      "note": 74,
      "start": 15.6219,
      "duration": 0.0168,
      "velocity": 98,
      "chip": "ym2612"
    },
    {
      "channel": 2,
      "note": 71,
      "start": 15.6224,
      "duration": 0.0165,
      "velocity": 98,
      "chip": "ym2612"
    },
    {
      "channel": 3,
      "note": 69,
      "start": 15.6257,
      "duration": 0.0317,
      "velocity": 94,
      "chip": "ym2612"
    },
    {
      "channel": 4,
      "note": 86,
      "start": 15.6361,
      "duration": 0.0134,
      "velocity": 98,
      "chip": "ym2612"
    },
    {
      "channel": 1,
      "note": 71,
      "start": 15.6422,
      "duration": 0.0146,
      "velocity": 98,
      "chip": "ym2612"
    },
    {
      "channel": 2,
      "note": 67,
      "start": 15.6427,
      "duration": 0.0144,
      "velocity": 98,
      "chip": "ym2612"
    },
    {
      "channel": 4,
      "note": 83,
      "start": 15.6543,
      "duration": 0.0176,
      "velocity": 98,
      "chip": "ym2612"
    },
    {
      "channel": 0,
      "note": 54,
      "start": 15.6607,
      "duration": 0.017,
      "velocity": 100,
      "chip": "ym2612"
    },
    {
      "channel": 1,
      "note": 67,
      "start": 15.6612,
      "duration": 0.0167,
      "velocity": 98,
      "chip": "ym2612"
    },
    {
      "channel": 2,
      "note": 62,
      "start": 15.6617,
      "duration": 0.0164,
      "velocity": 98,
      "chip": "ym2612"
    },
    {
      "channel": 3,
      "note": 69,
      "start": 15.6649,
      "duration": 0.0315,
      "velocity": 94,
      "chip": "ym2612"
    },
    {
      "channel": 4,
      "note": 79,
      "start": 15.6754,
      "duration": 0.0135,
      "velocity": 98,
      "chip": "ym2612"
    },
    {
      "channel": 1,
      "note": 62,
      "start": 15.6815,
      "duration": 0.0143,
      "velocity": 98,
      "chip": "ym2612"
    },
    {
      "channel": 2,
      "note": 59,
      "start": 15.682,
      "duration": 0.0141,
      "velocity": 98,
      "chip": "ym2612"
    },
    {
      "channel": 4,
      "note": 74,
      "start": 15.6933,
      "duration": 0.0231,
      "velocity": 98,
      "chip": "ym2612"
    },
    {
      "channel": 0,
      "note": 55,
      "start": 15.705,
      "duration": 0.1176,
      "velocity": 100,
      "chip": "ym2612"
    },
    {
      "channel": 1,
      "note": 91,
      "start": 15.7056,
      "duration": 0.0167,
      "velocity": 98,
      "chip": "ym2612"
    },
    {
      "channel": 2,
      "note": 86,
      "start": 15.7061,
      "duration": 0.0164,
      "velocity": 98,
      "chip": "ym2612"
    },
    {
      "channel": 3,
      "note": 69,
      "start": 15.7094,
      "duration": 0.0315,
      "velocity": 94,
      "chip": "ym2612"
    },
    {
      "channel": 4,
      "note": 71,
      "start": 15.7199,
      "duration": 0.0132,
      "velocity": 98,
      "chip": "ym2612"
    },
    {
      "channel": 1,
      "note": 86,
      "start": 15.7257,
      "duration": 0.0146,
      "velocity": 98,
      "chip": "ym2612"
    },
    {
      "channel": 2,
      "note": 83,
      "start": 15.7262,
      "duration": 0.0143,
      "velocity": 98,
      "chip": "ym2612"
    },
    {
      "channel": 4,
      "note": 67,
      "start": 15.7365,
      "duration": 0.0506,
      "velocity": 98,
      "chip": "ym2612"
    },
    {
      "channel": 1,
      "note": 83,
      "start": 15.7498,
      "duration": 0.0731,
      "velocity": 98,
      "chip": "ym2612"
    },
    {
      "channel": 2,
      "note": 79,
      "start": 15.7503,
      "duration": 0.0729,
      "velocity": 98,
      "chip": "ym2612"
    },
    {
      "channel": 3,
      "note": 69,
      "start": 15.7535,
      "duration": 0.1035,
      "velocity": 94,
      "chip": "ym2612"
    },
    {
      "channel": 4,
      "note": 62,
      "start": 15.8056,
      "duration": 0.0437,
      "velocity": 98,
      "chip": "ym2612"
    },
    {
      "channel": 1,
      "note": 79,
      "start": 15.8415,
      "duration": 0.0149,
      "velocity": 98,
      "chip": "ym2612"
    },
    {
      "channel": 2,
      "note": 74,
      "start": 15.842,
      "duration": 0.0146,
      "velocity": 98,
      "chip": "ym2612"
    },
    {
      "channel": 4,
      "note": 91,
      "start": 15.8527,
      "duration": 0.0191,
      "velocity": 98,
      "chip": "ym2612"
    },
    {
      "channel": 1,
      "note": 74,
      "start": 15.861,
      "duration": 0.0166,
      "velocity": 98,
      "chip": "ym2612"
    },
    {
      "channel": 2,
      "note": 71,
      "start": 15.8615,
      "duration": 0.0164,
      "velocity": 98,
      "chip": "ym2612"
    },
    {
      "channel": 3,
      "note": 69,
      "start": 15.8647,
      "duration": 0.0315,
      "velocity": 94,
      "chip": "ym2612"
    },
    {
      "channel": 4,
      "note": 86,
      "start": 15.8752,
      "duration": 0.0132,
      "velocity": 98,
      "chip": "ym2612"
    },
    {
      "channel": 1,
      "note": 71,
      "start": 15.881,
      "duration": 0.0136,
      "velocity": 98,
      "chip": "ym2612"
    },
    {
      "channel": 2,
      "note": 67,
      "start": 15.8815,
      "duration": 0.0144,
      "velocity": 98,
      "chip": "ym2612"
    },
    {
      "channel": 4,
      "note": 83,
      "start": 15.8919,
      "duration": 0.0194,
      "velocity": 98,
      "chip": "ym2612"
    },
    {
      "channel": 0,
      "note": 55,
      "start": 15.9001,
      "duration": 0.0169,
      "velocity": 100,
      "chip": "ym2612"
    },
    {
      "channel": 1,
      "note": 67,
      "start": 15.9006,
      "duration": 0.0166,
      "velocity": 98,
      "chip": "ym2612"
    },
    {
      "channel": 2,
      "note": 62,
      "start": 15.9012,
      "duration": 0.0164,
      "velocity": 98,
      "chip": "ym2612"
    },
    {
      "channel": 3,
      "note": 69,
      "start": 15.9043,
      "duration": 0.031,
      "velocity": 94,
      "chip": "ym2612"
    },
    {
      "channel": 4,
      "note": 79,
      "start": 15.9147,
      "duration": 0.0137,
      "velocity": 98,
      "chip": "ym2612"
    },
    {
      "channel": 0,
      "note": 54,
      "start": 15.9204,
      "duration": 0.0139,
      "velocity": 100,
      "chip": "ym2612"
    },
    {
      "channel": 1,
      "note": 62,
      "start": 15.921,
      "duration": 0.0137,
      "velocity": 98,
      "chip": "ym2612"
    },
    {
      "channel": 2,
      "note": 59,
      "start": 15.9215,
      "duration": 0.0134,
      "velocity": 98,
      "chip": "ym2612"
    },
    {
      "channel": 4,
      "note": 74,
      "start": 15.9318,
      "duration": 0.0249,
      "velocity": 98,
      "chip": "ym2612"
    },
    {
      "channel": 0,
      "note": 52,
      "start": 15.9451,
      "duration": 0.0341,
      "velocity": 100,
      "chip": "ym2612"
    },
    {
      "channel": 1,
      "note": 88,
      "start": 15.9456,
      "duration": 0.0171,
      "velocity": 98,
      "chip": "ym2612"
    },
    {
      "channel": 2,
      "note": 83,
      "start": 15.9461,
      "duration": 0.0168,
      "velocity": 98,
      "chip": "ym2612"
    },
    {
      "channel": 3,
      "note": 69,
      "start": 15.9494,
      "duration": 0.0306,
      "velocity": 94,
      "chip": "ym2612"
    },
    {
      "channel": 4,
      "note": 71,
      "start": 15.9602,
      "duration": 0.0132,
      "velocity": 98,
      "chip": "ym2612"
    },
    {
      "channel": 1,
      "note": 83,
      "start": 15.9661,
      "duration": 0.0134,
      "velocity": 98,
      "chip": "ym2612"
    },
    {
      "channel": 2,
      "note": 79,
      "start": 15.9666,
      "duration": 0.0131,
      "velocity": 98,
      "chip": "ym2612"
    },
    {
      "channel": 4,
      "note": 67,
      "start": 15.9769,
      "duration": 0.0494,
      "velocity": 98,
      "chip": "ym2612"
    },
    {
      "channel": 1,
      "note": 79,
      "start": 15.9901,
      "duration": 0.0722,
      "velocity": 98,
      "chip": "ym2612"
    },
    {
      "channel": 2,
      "note": 76,
      "start": 15.9906,
      "duration": 0.0719,
      "velocity": 98,
      "chip": "ym2612"
    },
    {
      "channel": 3,
      "note": 69,
      "start": 15.9937,
      "duration": 0.1015,
      "velocity": 94,
      "chip": "ym2612"
    },
    {
      "channel": 4,
      "note": 62,
      "start": 16.045,
      "duration": 0.0438,
      "velocity": 98,
      "chip": "ym2612"
    },
    {
      "channel": 0,
      "note": 52,
      "start": 16.0805,
      "duration": 0.0371,
      "velocity": 100,
      "chip": "ym2612"
    },
    {
      "channel": 1,
      "note": 76,
      "start": 16.081,
      "duration": 0.0136,
      "velocity": 98,
      "chip": "ym2612"
    },
    {
      "channel": 2,
      "note": 71,
      "start": 16.0816,
      "duration": 0.0134,
      "velocity": 98,
      "chip": "ym2612"
    },
    {
      "channel": 4,
      "note": 88,
      "start": 16.0922,
      "duration": 0.0196,
      "velocity": 98,
      "chip": "ym2612"
    },
    {
      "channel": 1,
      "note": 71,
      "start": 16.101,
      "duration": 0.0168,
      "velocity": 98,
      "chip": "ym2612"
    },
    {
      "channel": 2,
      "note": 67,
      "start": 16.1016,
      "duration": 0.0166,
      "velocity": 98,
      "chip": "ym2612"
    },
    {
      "channel": 3,
      "note": 69,
      "start": 16.1048,
      "duration": 0.0305,
      "velocity": 94,
      "chip": "ym2612"
    },
    {
      "channel": 4,
      "note": 83,
      "start": 16.1154,
      "duration": 0.0135,
      "velocity": 98,
      "chip": "ym2612"
    },
    {
      "channel": 1,
      "note": 67,
      "start": 16.1214,
      "duration": 0.0133,
      "velocity": 98,
      "chip": "ym2612"
    },
    {
      "channel": 2,
      "note": 64,
      "start": 16.122,
      "duration": 0.013,
      "velocity": 98,
      "chip": "ym2612"
    },
    {
      "channel": 4,
      "note": 79,
      "start": 16.1323,
      "duration": 0.0188,
      "velocity": 98,
      "chip": "ym2612"
    },
    {
      "channel": 0,
      "note": 50,
      "start": 16.1389,
      "duration": 0.018,
      "velocity": 100,
      "chip": "ym2612"
    },
    {
      "channel": 1,
      "note": 71,
      "start": 16.1405,
      "duration": 0.0167,
      "velocity": 98,
      "chip": "ym2612"
    },
    {
      "channel": 2,
      "note": 59,
      "start": 16.141,
      "duration": 0.0164,
      "velocity": 98,
      "chip": "ym2612"
    },
    {
      "channel": 3,
      "note": 69,
      "start": 16.1441,
      "duration": 0.0305,
      "velocity": 94,
      "chip": "ym2612"
    },
    {
      "channel": 4,
      "note": 76,
      "start": 16.1546,
      "duration": 0.0135,
      "velocity": 98,
      "chip": "ym2612"
    },
    {
      "channel": 1,
      "note": 76,
      "start": 16.1607,
      "duration": 0.0133,
      "velocity": 98,
      "chip": "ym2612"
    },
    {
      "channel": 2,
      "note": 55,
      "start": 16.1612,
      "duration": 0.0131,
      "velocity": 98,
      "chip": "ym2612"
    },
    {
      "channel": 4,
      "note": 71,
      "start": 16.1715,
      "duration": 0.0241,
      "velocity": 98,
      "chip": "ym2612"
    },
    {
      "channel": 0,
      "note": 52,
      "start": 16.1832,
      "duration": 0.0351,
      "velocity": 100,
      "chip": "ym2612"
    },
    {
      "channel": 1,
      "note": 79,
      "start": 16.1848,
      "duration": 0.0167,
      "velocity": 98,
      "chip": "ym2612"
    },
    {
      "channel": 2,
      "note": 83,
      "start": 16.1853,
      "duration": 0.0164,
      "velocity": 98,
      "chip": "ym2612"
    },
    {
      "channel": 3,
      "note": 69,
      "start": 16.1886,
      "duration": 0.0306,
      "velocity": 94,
      "chip": "ym2612"
    },
    {
      "channel": 4,
      "note": 67,
      "start": 16.1991,
      "duration": 0.0135,
      "velocity": 98,
      "chip": "ym2612"
    },
    {
      "channel": 1,
      "note": 76,
      "start": 16.2049,
      "duration": 0.0137,
      "velocity": 98,
      "chip": "ym2612"
    },
    {
      "channel": 2,
      "note": 79,
      "start": 16.2054,
      "duration": 0.0135,
      "velocity": 98,
      "chip": "ym2612"
    },
    {
      "channel": 4,
      "note": 71,
      "start": 16.2161,
      "duration": 0.0188,
      "velocity": 98,
      "chip": "ym2612"
    },
    {
      "channel": 0,
      "note": 52,
      "start": 16.2224,
      "duration": 0.0181,
      "velocity": 100,
      "chip": "ym2612"
    },
    {
      "channel": 1,
      "note": 79,
      "start": 16.223,
      "duration": 0.018,
      "velocity": 98,
      "chip": "ym2612"
    },
    {
      "channel": 2,
      "note": 76,
      "start": 16.2246,
      "duration": 0.0166,
      "velocity": 98,
      "chip": "ym2612"
    },
    {
      "channel": 3,
      "note": 69,
      "start": 16.2277,
      "duration": 0.0309,
      "velocity": 94,
      "chip": "ym2612"
    },
    {
      "channel": 4,
      "note": 76,
      "start": 16.2383,
      "duration": 0.0137,
      "velocity": 98,
      "chip": "ym2612"
    },
    {
      "channel": 0,
      "note": 52,
      "start": 16.2441,
      "duration": 0.0136,
      "velocity": 100,
      "chip": "ym2612"
    },
    {
      "channel": 1,
      "note": 83,
      "start": 16.2446,
      "duration": 0.0134,
      "velocity": 98,
      "chip": "ym2612"
    },
    {
      "channel": 2,
      "note": 71,
      "start": 16.2452,
      "duration": 0.0131,
      "velocity": 98,
      "chip": "ym2612"
    },
    {
      "channel": 4,
      "note": 79,
      "start": 16.2555,
      "duration": 0.0185,
      "velocity": 98,
      "chip": "ym2612"
    },
    {
      "channel": 0,
      "note": 55,
      "start": 16.2615,
      "duration": 0.0349,
      "velocity": 100,
      "chip": "ym2612"
    },
    {
      "channel": 1,
      "note": 88,
      "start": 16.2621,
      "duration": 0.0178,
      "velocity": 98,
      "chip": "ym2612"
    },
    {
      "channel": 2,
      "note": 67,
      "start": 16.2637,
      "duration": 0.0165,
      "velocity": 98,
      "chip": "ym2612"
    },
    {
      "channel": 3,
      "note": 69,
      "start": 16.2669,
      "duration": 0.0303,
      "velocity": 94,
      "chip": "ym2612"
    },
    {
      "channel": 4,
      "note": 76,
      "start": 16.2773,
      "duration": 0.0133,
      "velocity": 98,
      "chip": "ym2612"
    },
    {
      "channel": 1,
      "note": 83,
      "start": 16.2833,
      "duration": 0.0133,
      "velocity": 98,
      "chip": "ym2612"
    },
    {
      "channel": 2,
      "note": 64,
      "start": 16.2839,
      "duration": 0.0131,
      "velocity": 98,
      "chip": "ym2612"
    },
    {
      "channel": 4,
      "note": 79,
      "start": 16.2941,
      "duration": 0.0187,
      "velocity": 98,
      "chip": "ym2612"
    },
    {
      "channel": 0,
      "note": 55,
      "start": 16.3003,
      "duration": 0.0183,
      "velocity": 100,
      "chip": "ym2612"
    },
    {
      "channel": 1,
      "note": 88,
      "start": 16.3009,
      "duration": 0.018,
      "velocity": 98,
      "chip": "ym2612"
    },
    {
      "channel": 2,
      "note": 59,
      "start": 16.3014,
      "duration": 0.0177,
      "velocity": 98,
      "chip": "ym2612"
    },
    {
      "channel": 3,
      "note": 69,
      "start": 16.3056,
      "duration": 0.0311,
      "velocity": 94,
      "chip": "ym2612"
    },
    {
      "channel": 4,
      "note": 83,
      "start": 16.3162,
      "duration": 0.0138,
      "velocity": 98,
      "chip": "ym2612"
    },
    {
      "channel": 0,
      "note": 55,
      "start": 16.3221,
      "duration": 0.0137,
      "velocity": 100,
      "chip": "ym2612"
    },
    {
      "channel": 1,
      "note": 91,
      "start": 16.3227,
      "duration": 0.0134,
      "velocity": 98,
      "chip": "ym2612"
    },
    {
      "channel": 2,
      "note": 55,
      "start": 16.3232,
      "duration": 0.0131,
      "velocity": 98,
      "chip": "ym2612"
    },
    {
      "channel": 4,
      "note": 88,
      "start": 16.3335,
      "duration": 0.019,
      "velocity": 98,
      "chip": "ym2612"
    },
    {
      "channel": 0,
      "note": 57,
      "start": 16.3392,
      "duration": 0.0357,
      "velocity": 100,
      "chip": "ym2612"
    },
    {
      "channel": 1,
      "note": 100,
      "start": 16.3398,
      "duration": 0.0186,
      "velocity": 98,
      "chip": "ym2612"
    },
    {
      "channel": 2,
      "note": 95,
      "start": 16.3403,
      "duration": 0.0183,
      "velocity": 98,
      "chip": "ym2612"
    },
    {
      "channel": 3,
      "note": 69,
      "start": 16.3446,
      "duration": 0.0312,
      "velocity": 94,
      "chip": "ym2612"
    },
    {
      "channel": 4,
      "note": 83,
      "start": 16.3559,
      "duration": 0.0133,
      "velocity": 98,
      "chip": "ym2612"
    },
    {
      "channel": 1,
      "note": 96,
      "start": 16.3619,
      "duration": 0.0134,
      "velocity": 98,
      "chip": "ym2612"
    },
    {
      "channel": 2,
      "note": 91,
      "start": 16.3624,
      "duration": 0.0131,
      "velocity": 98,
      "chip": "ym2612"
    },
    {
      "channel": 4,
      "note": 88,
      "start": 16.3727,
      "duration": 0.049,
      "velocity": 98,
      "chip": "ym2612"
    },
    {
      "channel": 1,
      "note": 93,
      "start": 16.3842,
      "duration": 0.073,
      "velocity": 98,
      "chip": "ym2612"
    },
    {
      "channel": 2,
      "note": 88,
      "start": 16.3847,
      "duration": 0.0727,
      "velocity": 98,
      "chip": "ym2612"
    },
    {
      "channel": 3,
      "note": 69,
      "start": 16.3889,
      "duration": 0.1013,
      "velocity": 94,
      "chip": "ym2612"
    },
    {
      "channel": 4,
      "note": 91,
      "start": 16.4399,
      "duration": 0.0438,
      "velocity": 98,
      "chip": "ym2612"
    },
    {
      "channel": 0,
      "note": 57,
      "start": 16.4755,
      "duration": 0.037,
      "velocity": 100,
      "chip": "ym2612"
    },
    {
      "channel": 1,
      "note": 88,
      "start": 16.476,
      "duration": 0.0136,
      "velocity": 98,
      "chip": "ym2612"
    },
    {
      "channel": 2,
      "note": 83,
      "start": 16.4765,
      "duration": 0.0133,
      "velocity": 98,
      "chip": "ym2612"
    },
    {
      "channel": 4,
      "note": 100,
      "start": 16.4872,
      "duration": 0.0196,
      "velocity": 98,
      "chip": "ym2612"
    },
    {
      "channel": 1,
      "note": 84,
      "start": 16.4947,
      "duration": 0.018,
      "velocity": 98,
      "chip": "ym2612"
    },
    {
      "channel": 2,
      "note": 79,
      "start": 16.4952,
      "duration": 0.0177,
      "velocity": 98,
      "chip": "ym2612"
    },
    {
      "channel": 3,
      "note": 69,
      "start": 16.4995,
      "duration": 0.0307,
      "velocity": 94,
      "chip": "ym2612"
    },
    {
      "channel": 4,
      "note": 96,
      "start": 16.5102,
      "duration": 0.0136,
      "velocity": 98,
      "chip": "ym2612"
    },
    {
      "channel": 1,
      "note": 81,
      "start": 16.5163,
      "duration": 0.0133,
      "velocity": 98,
      "chip": "ym2612"
    },
    {
      "channel": 2,
      "note": 76,
      "start": 16.5169,
      "duration": 0.013,
      "velocity": 98,
      "chip": "ym2612"
    },
    {
      "channel": 4,
      "note": 93,
      "start": 16.5272,
      "duration": 0.0187,
      "velocity": 98,
      "chip": "ym2612"
    },
    {
      "channel": 0,
      "note": 55,
      "start": 16.5334,
      "duration": 0.0181,
      "velocity": 100,
      "chip": "ym2612"
    },
    {
      "channel": 1,
      "note": 76,
      "start": 16.534,
      "duration": 0.0179,
      "velocity": 98,
      "chip": "ym2612"
    },
    {
      "channel": 2,
      "note": 71,
      "start": 16.5345,
      "duration": 0.0176,
      "velocity": 98,
      "chip": "ym2612"
    },
    {
      "channel": 3,
      "note": 69,
      "start": 16.5387,
      "duration": 0.0307,
      "velocity": 94,
      "chip": "ym2612"
    },
    {
      "channel": 4,
      "note": 88,
      "start": 16.5493,
      "duration": 0.0136,
      "velocity": 98,
      "chip": "ym2612"
    },
    {
      "channel": 1,
      "note": 72,
      "start": 16.5555,
      "duration": 0.0133,
      "velocity": 98,
      "chip": "ym2612"
    },
    {
      "channel": 2,
      "note": 67,
      "start": 16.556,
      "duration": 0.0131,
      "velocity": 98,
      "chip": "ym2612"
    },
    {
      "channel": 4,
      "note": 84,
      "start": 16.5663,
      "duration": 0.0243,
      "velocity": 98,
      "chip": "ym2612"
    },
    {
      "channel": 0,
      "note": 57,
      "start": 16.5778,
      "duration": 0.1175,
      "velocity": 100,
      "chip": "ym2612"
    },
    {
      "channel": 1,
      "note": 100,
      "start": 16.5783,
      "duration": 0.0182,
      "velocity": 98,
      "chip": "ym2612"
    },
    {
      "channel": 2,
      "note": 95,
      "start": 16.5789,
      "duration": 0.0179,
      "velocity": 98,
      "chip": "ym2612"
    },
    {
      "channel": 3,
      "note": 69,
      "start": 16.5832,
      "duration": 0.0307,
      "velocity": 94,
      "chip": "ym2612"
    },
    {
      "channel": 4,
      "note": 81,
      "start": 16.5941,
      "duration": 0.0133,
      "velocity": 98,
      "chip": "ym2612"
    },
    {
      "channel": 1,
      "note": 96,
      "start": 16.6,
      "duration": 0.0133,
      "velocity": 98,
      "chip": "ym2612"
    },
    {
      "channel": 2,
      "note": 91,
      "start": 16.6006,
      "duration": 0.0129,
      "velocity": 98,
      "chip": "ym2612"
    },
    {
      "channel": 4,
      "note": 76,
      "start": 16.6109,
      "duration": 0.0499,
      "velocity": 98,
      "chip": "ym2612"
    },
    {
      "channel": 1,
      "note": 93,
      "start": 16.6225,
      "duration": 0.0731,
      "velocity": 98,
      "chip": "ym2612"
    },
    {
      "channel": 2,
      "note": 88,
      "start": 16.623,
      "duration": 0.0729,
      "velocity": 98,
      "chip": "ym2612"
    },
    {
      "channel": 3,
      "note": 69,
      "start": 16.6271,
      "duration": 0.1013,
      "velocity": 94,
      "chip": "ym2612"
    },
    {
      "channel": 4,
      "note": 72,
      "start": 16.6783,
      "duration": 0.0436,
      "velocity": 98,
      "chip": "ym2612"
    },
    {
      "channel": 1,
      "note": 88,
      "start": 16.7142,
      "duration": 0.0137,
      "velocity": 98,
      "chip": "ym2612"
    },
    {
      "channel": 2,
      "note": 83,
      "start": 16.7147,
      "duration": 0.0134,
      "velocity": 98,
      "chip": "ym2612"
    },
    {
      "channel": 4,
      "note": 100,
      "start": 16.7254,
      "duration": 0.0182,
      "velocity": 98,
      "chip": "ym2612"
    },
    {
      "channel": 1,
      "note": 84,
      "start": 16.7313,
      "duration": 0.0182,
      "velocity": 98,
      "chip": "ym2612"
    },
    {
      "channel": 2,
      "note": 79,
      "start": 16.7318,
      "duration": 0.0179,
      "velocity": 98,
      "chip": "ym2612"
    },
    {
      "channel": 3,
      "note": 69,
      "start": 16.7361,
      "duration": 0.0307,
      "velocity": 94,
      "chip": "ym2612"
    },
    {
      "channel": 4,
      "note": 96,
      "start": 16.747,
      "duration": 0.0133,
      "velocity": 98,
      "chip": "ym2612"
    },
    {
      "channel": 1,
      "note": 81,
      "start": 16.7529,
      "duration": 0.0134,
      "velocity": 98,
      "chip": "ym2612"
    },
    {
      "channel": 2,
      "note": 76,
      "start": 16.7534,
      "duration": 0.0131,
      "velocity": 98,
      "chip": "ym2612"
    },
    {
      "channel": 4,
      "note": 93,
      "start": 16.7638,
      "duration": 0.0178,
      "velocity": 98,
      "chip": "ym2612"
    },
    {
      "channel": 0,
      "note": 55,
      "start": 16.7702,
      "duration": 0.0181,
      "velocity": 100,
      "chip": "ym2612"
    },
    {
      "channel": 1,
      "note": 76,
      "start": 16.7708,
      "duration": 0.0178,
      "velocity": 98,
      "chip": "ym2612"
    },
    {
      "channel": 2,
      "note": 71,
      "start": 16.7713,
      "duration": 0.0176,
      "velocity": 98,
      "chip": "ym2612"
    },
    {
      "channel": 3,
      "note": 69,
      "start": 16.7754,
      "duration": 0.031,
      "velocity": 94,
      "chip": "ym2612"
    },
    {
      "channel": 4,
      "note": 88,
      "start": 16.7861,
      "duration": 0.0138,
      "velocity": 98,
      "chip": "ym2612"
    },
    {
      "channel": 0,
      "note": 57,
      "start": 16.7918,
      "duration": 0.0138,
      "velocity": 100,
      "chip": "ym2612"
    },
    {
      "channel": 1,
      "note": 72,
      "start": 16.7924,
      "duration": 0.0135,
      "velocity": 98,
      "chip": "ym2612"
    },
    {
      "channel": 2,
      "note": 67,
      "start": 16.7929,
      "duration": 0.0133,
      "velocity": 98,
      "chip": "ym2612"
    },
    {
      "channel": 4,
      "note": 84,
      "start": 16.8033,
      "duration": 0.0232,
      "velocity": 98,
      "chip": "ym2612"
    },
    {
      "channel": 0,
      "note": 52,
      "start": 16.8146,
      "duration": 0.0357,
      "velocity": 100,
      "chip": "ym2612"
    },
    {
      "channel": 1,
      "note": 95,
      "start": 16.8152,
      "duration": 0.0185,
      "velocity": 98,
      "chip": "ym2612"
    },
    {
      "channel": 2,
      "note": 91,
      "start": 16.8157,
      "duration": 0.0182,
      "velocity": 98,
      "chip": "ym2612"
    },
    {
      "channel": 3,
      "note": 69,
      "start": 16.8189,
      "duration": 0.0322,
      "velocity": 94,
      "chip": "ym2612"
    },
    {
      "channel": 4,
      "note": 81,
      "start": 16.8312,
      "duration": 0.0133,
      "velocity": 98,
      "chip": "ym2612"
    },
    {
      "channel": 1,
      "note": 91,
      "start": 16.8371,
      "duration": 0.0135,
      "velocity": 98,
      "chip": "ym2612"
    },
    {
      "channel": 2,
      "note": 88,
      "start": 16.8376,
      "duration": 0.0132,
      "velocity": 98,
      "chip": "ym2612"
    },
    {
      "channel": 4,
      "note": 76,
      "start": 16.848,
      "duration": 0.0486,
      "velocity": 98,
      "chip": "ym2612"
    },
    {
      "channel": 1,
      "note": 88,
      "start": 16.8595,
      "duration": 0.073,
      "velocity": 98,
      "chip": "ym2612"
    },
    {
      "channel": 2,
      "note": 83,
      "start": 16.8601,
      "duration": 0.0727,
      "velocity": 98,
      "chip": "ym2612"
    },
    {
      "channel": 3,
      "note": 69,
      "start": 16.8632,
      "duration": 0.1025,
      "velocity": 94,
      "chip": "ym2612"
    },
    {
      "channel": 4,
      "note": 72,
      "start": 16.9163,
      "duration": 0.0429,
      "velocity": 98,
      "chip": "ym2612"
    },
    {
      "channel": 0,
      "note": 52,
      "start": 16.9508,
      "duration": 0.0373,
      "velocity": 100,
      "chip": "ym2612"
    },
    {
      "channel": 1,
      "note": 83,
      "start": 16.9513,
      "duration": 0.0138,
      "velocity": 98,
      "chip": "ym2612"
    },
    {
      "channel": 2,
      "note": 79,
      "start": 16.9519,
      "duration": 0.0135,
      "velocity": 98,
      "chip": "ym2612"
    },
    {
      "channel": 4,
      "note": 95,
      "start": 16.9627,
      "duration": 0.0185,
      "velocity": 98,
      "chip": "ym2612"
    },
    {
      "channel": 1,
      "note": 79,
      "start": 16.9702,
      "duration": 0.0183,
      "velocity": 98,
      "chip": "ym2612"
    },
    {
      "channel": 2,
      "note": 76,
      "start": 16.9707,
      "duration": 0.018,
      "velocity": 98,
      "chip": "ym2612"
    },
    {
      "channel": 3,
      "note": 69,
      "start": 16.9739,
      "duration": 0.032,
      "velocity": 94,
      "chip": "ym2612"
    },
    {
      "channel": 4,
      "note": 91,
      "start": 16.9859,
      "duration": 0.0136,
      "velocity": 98,
      "chip": "ym2612"
    },
    {
      "channel": 1,
      "note": 76,
      "start": 16.992,
      "duration": 0.0134,
      "velocity": 98,
      "chip": "ym2612"
    },
    {
      "channel": 2,
      "note": 71,
      "start": 16.9925,
      "duration": 0.0132,
      "velocity": 98,
      "chip": "ym2612"
    },
    {
      "channel": 4,
      "note": 88,
      "start": 17.0029,
      "duration": 0.0177,
      "velocity": 98,
      "chip": "ym2612"
    },
    {
      "channel": 0,
      "note": 50,
      "start": 17.0092,
      "duration": 0.0184,
      "velocity": 100,
      "chip": "ym2612"
    },
    {
      "channel": 1,
      "note": 71,
      "start": 17.0097,
      "duration": 0.0181,
      "velocity": 98,
      "chip": "ym2612"
    },
    {
      "channel": 2,
      "note": 67,
      "start": 17.0103,
      "duration": 0.0179,
      "velocity": 98,
      "chip": "ym2612"
    },
    {
      "channel": 3,
      "note": 69,
      "start": 17.0134,
      "duration": 0.032,
      "velocity": 94,
      "chip": "ym2612"
    },
    {
      "channel": 4,
      "note": 83,
      "start": 17.0253,
      "duration": 0.0136,
      "velocity": 98,
      "chip": "ym2612"
    },
    {
      "channel": 1,
      "note": 67,
      "start": 17.0314,
      "duration": 0.0134,
      "velocity": 98,
      "chip": "ym2612"
    },
    {
      "channel": 2,
      "note": 64,
      "start": 17.032,
      "duration": 0.0131,
      "velocity": 98,
      "chip": "ym2612"
    },
    {
      "channel": 4,
      "note": 79,
      "start": 17.0424,
      "duration": 0.023,
      "velocity": 98,
      "chip": "ym2612"
    },
    {
      "channel": 0,
      "note": 52,
      "start": 17.0538,
      "duration": 0.1184,
      "velocity": 100,
      "chip": "ym2612"
    },
    {
      "channel": 1,
      "note": 95,
      "start": 17.0543,
      "duration": 0.0179,
      "velocity": 98,
      "chip": "ym2612"
    },
    {
      "channel": 2,
      "note": 91,
      "start": 17.0549,
      "duration": 0.0176,
      "velocity": 98,
      "chip": "ym2612"
    },
    {
      "channel": 3,
      "note": 69,
      "start": 17.0581,
      "duration": 0.0315,
      "velocity": 94,
      "chip": "ym2612"
    },
    {
      "channel": 4,
      "note": 76,
      "start": 17.0698,
      "duration": 0.0133,
      "velocity": 98,
      "chip": "ym2612"
    },
    {
      "channel": 1,
      "note": 91,
      "start": 17.0756,
      "duration": 0.0134,
      "velocity": 98,
      "chip": "ym2612"
    },
    {
      "channel": 2,
      "note": 88,
      "start": 17.0762,
      "duration": 0.0131,
      "velocity": 98,
      "chip": "ym2612"
    },
    {
      "channel": 4,
      "note": 71,
      "start": 17.0866,
      "duration": 0.049,
      "velocity": 98,
      "chip": "ym2612"
    },
    {
      "channel": 1,
      "note": 88,
      "start": 17.0983,
      "duration": 0.0741,
      "velocity": 98,
      "chip": "ym2612"
    },
    {
      "channel": 2,
      "note": 83,
      "start": 17.0989,
      "duration": 0.0739,
      "velocity": 98,
      "chip": "ym2612"
    },
    {
      "channel": 3,
      "note": 69,
      "start": 17.102,
      "duration": 0.1024,
      "velocity": 94,
      "chip": "ym2612"
    },
    {
      "channel": 4,
      "note": 67,
      "start": 17.1541,
      "duration": 0.0437,
      "velocity": 98,
      "chip": "ym2612"
    },
    {
      "channel": 1,
      "note": 83,
      "start": 17.19,
      "duration": 0.0137,
      "velocity": 98,
      "chip": "ym2612"
    },
    {
      "channel": 2,
      "note": 79,
      "start": 17.1906,
      "duration": 0.0135,
      "velocity": 98,
      "chip": "ym2612"
    },
    {
      "channel": 4,
      "note": 95,
      "start": 17.2013,
      "duration": 0.0166,
      "velocity": 98,
      "chip": "ym2612"
    },
    {
      "channel": 1,
      "note": 79,
      "start": 17.2072,
      "duration": 0.0178,
      "velocity": 98,
      "chip": "ym2612"
    },
    {
      "channel": 2,
      "note": 76,
      "start": 17.2077,
      "duration": 0.0176,
      "velocity": 98,
      "chip": "ym2612"
    },
    {
      "channel": 3,
      "note": 69,
      "start": 17.211,
      "duration": 0.0315,
      "velocity": 94,
      "chip": "ym2612"
    },
    {
      "channel": 4,
      "note": 91,
      "start": 17.2213,
      "duration": 0.0146,
      "velocity": 98,
      "chip": "ym2612"
    },
    {
      "channel": 1,
      "note": 76,
      "start": 17.2285,
      "duration": 0.0134,
      "velocity": 98,
      "chip": "ym2612"
    },
    {
      "channel": 2,
      "note": 71,
      "start": 17.229,
      "duration": 0.0131,
      "velocity": 98,
      "chip": "ym2612"
    },
    {
      "channel": 4,
      "note": 88,
      "start": 17.2394,
      "duration": 0.0176,
      "velocity": 98,
      "chip": "ym2612"
    },
    {
      "channel": 0,
      "note": 52,
      "start": 17.2458,
      "duration": 0.0171,
      "velocity": 100,
      "chip": "ym2612"
    },
    {
      "channel": 1,
      "note": 71,
      "start": 17.2463,
      "duration": 0.0168,
      "velocity": 98,
      "chip": "ym2612"
    },
    {
      "channel": 2,
      "note": 67,
      "start": 17.2469,
      "duration": 0.0176,
      "velocity": 98,
      "chip": "ym2612"
    },
    {
      "channel": 3,
      "note": 69,
      "start": 17.25,
      "duration": 0.032,
      "velocity": 94,
      "chip": "ym2612"
    },
    {
      "channel": 4,
      "note": 83,
      "start": 17.2603,
      "duration": 0.015,
      "velocity": 98,
      "chip": "ym2612"
    },
    {
      "channel": 0,
      "note": 54,
      "start": 17.2674,
      "duration": 0.0137,
      "velocity": 100,
      "chip": "ym2612"
    },
    {
      "channel": 1,
      "note": 67,
      "start": 17.2679,
      "duration": 0.0134,
      "velocity": 98,
      "chip": "ym2612"
    },
    {
      "channel": 2,
      "note": 64,
      "start": 17.2685,
      "duration": 0.0132,
      "velocity": 98,
      "chip": "ym2612"
    },
    {
      "channel": 4,
      "note": 79,
      "start": 17.2788,
      "duration": 0.0229,
      "velocity": 98,
      "chip": "ym2612"
    },
    {
      "channel": 0,
      "note": 55,
      "start": 17.2902,
      "duration": 0.0354,
      "velocity": 100,
      "chip": "ym2612"
    },
    {
      "channel": 1,
      "note": 91,
      "start": 17.2907,
      "duration": 0.0171,
      "velocity": 98,
      "chip": "ym2612"
    },
    {
      "channel": 2,
      "note": 86,
      "start": 17.2913,
      "duration": 0.0169,
      "velocity": 98,
      "chip": "ym2612"
    },
    {
      "channel": 3,
      "note": 69,
      "start": 17.2945,
      "duration": 0.0319,
      "velocity": 94,
      "chip": "ym2612"
    },
    {
      "channel": 4,
      "note": 76,
      "start": 17.3052,
      "duration": 0.0145,
      "velocity": 98,
      "chip": "ym2612"
    },
    {
      "channel": 1,
      "note": 86,
      "start": 17.3123,
      "duration": 0.0135,
      "velocity": 98,
      "chip": "ym2612"
    },
    {
      "channel": 2,
      "note": 83,
      "start": 17.3129,
      "duration": 0.0132,
      "velocity": 98,
      "chip": "ym2612"
    },
    {
      "channel": 4,
      "note": 71,
      "start": 17.3233,
      "duration": 0.0487,
      "velocity": 98,
      "chip": "ym2612"
    },
    {
      "channel": 1,
      "note": 83,
      "start": 17.3349,
      "duration": 0.073,
      "velocity": 98,
      "chip": "ym2612"
    },
    {
      "channel": 2,
      "note": 79,
      "start": 17.3354,
      "duration": 0.0728,
      "velocity": 98,
      "chip": "ym2612"
    },
    {
      "channel": 3,
      "note": 69,
      "start": 17.3385,
      "duration": 0.1034,
      "velocity": 94,
      "chip": "ym2612"
    },
    {
      "channel": 4,
      "note": 67,
      "start": 17.3906,
      "duration": 0.0447,
      "velocity": 98,
      "chip": "ym2612"
    },
    {
      "channel": 0,
      "note": 55,
      "start": 17.4271,
      "duration": 0.0348,
      "velocity": 100,
      "chip": "ym2612"
    },
    {
      "channel": 1,
      "note": 79,
      "start": 17.4276,
      "duration": 0.0137,
      "velocity": 98,
      "chip": "ym2612"
    },
    {
      "channel": 2,
      "note": 74,
      "start": 17.4281,
      "duration": 0.0134,
      "velocity": 98,
      "chip": "ym2612"
    },
    {
      "channel": 4,
      "note": 91,
      "start": 17.4389,
      "duration": 0.0173,
      "velocity": 98,
      "chip": "ym2612"
    },
    {
      "channel": 1,
      "note": 74,
      "start": 17.4454,
      "duration": 0.0167,
      "velocity": 98,
      "chip": "ym2612"
    },
    {
      "channel": 2,
      "note": 71,
      "start": 17.446,
      "duration": 0.0164,
      "velocity": 98,
      "chip": "ym2612"
    },
    {
      "channel": 3,
      "note": 69,
      "start": 17.4492,
      "duration": 0.0317,
      "velocity": 94,
      "chip": "ym2612"
    },
    {
      "channel": 4,
      "note": 86,
      "start": 17.4596,
      "duration": 0.0148,
      "velocity": 98,
      "chip": "ym2612"
    },
    {
      "channel": 1,
      "note": 71,
      "start": 17.467,
      "duration": 0.0134,
      "velocity": 98,
      "chip": "ym2612"
    },
    {
      "channel": 2,
      "note": 67,
      "start": 17.4675,
      "duration": 0.0131,
      "velocity": 98,
      "chip": "ym2612"
    },
    {
      "channel": 4,
      "note": 83,
      "start": 17.4779,
      "duration": 0.0173,
      "velocity": 98,
      "chip": "ym2612"
    },
    {
      "channel": 0,
      "note": 54,
      "start": 17.4841,
      "duration": 0.0168,
      "velocity": 100,
      "chip": "ym2612"
    },
    {
      "channel": 1,
      "note": 67,
      "start": 17.4847,
      "duration": 0.0165,
      "velocity": 98,
      "chip": "ym2612"
    },
    {
      "channel": 2,
      "note": 62,
      "start": 17.4852,
      "duration": 0.0162,
      "velocity": 98,
      "chip": "ym2612"
    },
    {
      "channel": 3,
      "note": 69,
      "start": 17.4883,
      "duration": 0.0317,
      "velocity": 94,
      "chip": "ym2612"
    },
    {
      "channel": 4,
      "note": 79,
      "start": 17.4987,
      "duration": 0.0148,
      "velocity": 98,
      "chip": "ym2612"
    },
    {
      "channel": 1,
      "note": 62,
      "start": 17.5061,
      "duration": 0.0134,
      "velocity": 98,
      "chip": "ym2612"
    },
    {
      "channel": 2,
      "note": 59,
      "start": 17.5066,
      "duration": 0.0131,
      "velocity": 98,
      "chip": "ym2612"
    },
    {
      "channel": 4,
      "note": 74,
      "start": 17.517,
      "duration": 0.0227,
      "velocity": 98,
      "chip": "ym2612"
    },
    {
      "channel": 0,
      "note": 55,
      "start": 17.5285,
      "duration": 0.1174,
      "velocity": 100,
      "chip": "ym2612"
    },
    {
      "channel": 1,
      "note": 91,
      "start": 17.529,
      "duration": 0.0166,
      "velocity": 98,
      "chip": "ym2612"
    },
    {
      "channel": 2,
      "note": 86,
      "start": 17.5295,
      "duration": 0.0163,
      "velocity": 98,
      "chip": "ym2612"
    },
    {
      "channel": 3,
      "note": 69,
      "start": 17.5328,
      "duration": 0.0315,
      "velocity": 94,
      "chip": "ym2612"
    },
    {
      "channel": 4,
      "note": 71,
      "start": 17.5431,
      "duration": 0.0146,
      "velocity": 98,
      "chip": "ym2612"
    },
    {
      "channel": 1,
      "note": 86,
      "start": 17.5493,
      "duration": 0.0144,
      "velocity": 98,
      "chip": "ym2612"
    },
    {
      "channel": 2,
      "note": 83,
      "start": 17.5508,
      "duration": 0.0132,
      "velocity": 98,
      "chip": "ym2612"
    },
    {
      "channel": 4,
      "note": 67,
      "start": 17.5612,
      "duration": 0.0491,
      "velocity": 98,
      "chip": "ym2612"
    },
    {
      "channel": 1,
      "note": 83,
      "start": 17.573,
      "duration": 0.0732,
      "velocity": 98,
      "chip": "ym2612"
    },
    {
      "channel": 2,
      "note": 79,
      "start": 17.5735,
      "duration": 0.0729,
      "velocity": 98,
      "chip": "ym2612"
    },
    {
      "channel": 3,
      "note": 69,
      "start": 17.5766,
      "duration": 0.1035,
      "velocity": 94,
      "chip": "ym2612"
    },
    {
      "channel": 4,
      "note": 62,
      "start": 17.6288,
      "duration": 0.0447,
      "velocity": 98,
      "chip": "ym2612"
    },
    {
      "channel": 1,
      "note": 79,
      "start": 17.6647,
      "duration": 0.0148,
      "velocity": 98,
      "chip": "ym2612"
    },
    {
      "channel": 2,
      "note": 74,
      "start": 17.6663,
      "duration": 0.0135,
      "velocity": 98,
      "chip": "ym2612"
    },
    {
      "channel": 4,
      "note": 91,
      "start": 17.6769,
      "duration": 0.0175,
      "velocity": 98,
      "chip": "ym2612"
    },
    {
      "channel": 1,
      "note": 74,
      "start": 17.6837,
      "duration": 0.0165,
      "velocity": 98,
      "chip": "ym2612"
    },
    {
      "channel": 2,
      "note": 71,
      "start": 17.6843,
      "duration": 0.0163,
      "velocity": 98,
      "chip": "ym2612"
    },
    {
      "channel": 3,
      "note": 69,
      "start": 17.6875,
      "duration": 0.0312,
      "velocity": 94,
      "chip": "ym2612"
    },
    {
      "channel": 4,
      "note": 86,
      "start": 17.6978,
      "duration": 0.0143,
      "velocity": 98,
      "chip": "ym2612"
    },
    {
      "channel": 1,
      "note": 71,
      "start": 17.7037,
      "duration": 0.0144,
      "velocity": 98,
      "chip": "ym2612"
    },
    {
      "channel": 2,
      "note": 67,
      "start": 17.7042,
      "duration": 0.0142,
      "velocity": 98,
      "chip": "ym2612"
    },
    {
      "channel": 4,
      "note": 83,
      "start": 17.7156,
      "duration": 0.0176,
      "velocity": 98,
      "chip": "ym2612"
    },
    {
      "channel": 0,
      "note": 54,
      "start": 17.7221,
      "duration": 0.0168,
      "velocity": 100,
      "chip": "ym2612"
    },
    {
      "channel": 1,
      "note": 67,
      "start": 17.7227,
      "duration": 0.0165,
      "velocity": 98,
      "chip": "ym2612"
    },
    {
      "channel": 2,
      "note": 62,
      "start": 17.7232,
      "duration": 0.0163,
      "velocity": 98,
      "chip": "ym2612"
    },
    {
      "channel": 3,
      "note": 69,
      "start": 17.7263,
      "duration": 0.032,
      "velocity": 94,
      "chip": "ym2612"
    },
    {
      "channel": 4,
      "note": 79,
      "start": 17.7366,
      "duration": 0.015,
      "velocity": 98,
      "chip": "ym2612"
    },
    {
      "channel": 0,
      "note": 55,
      "start": 17.7424,
      "duration": 0.015,
      "velocity": 100,
      "chip": "ym2612"
    },
    {
      "channel": 1,
      "note": 62,
      "start": 17.7429,
      "duration": 0.0148,
      "velocity": 98,
      "chip": "ym2612"
    },
    {
      "channel": 2,
      "note": 59,
      "start": 17.7434,
      "duration": 0.0145,
      "velocity": 98,
      "chip": "ym2612"
    },
    {
      "channel": 4,
      "note": 74,
      "start": 17.7551,
      "duration": 0.0233,
      "velocity": 98,
      "chip": "ym2612"
    },
    {
      "channel": 0,
      "note": 52,
      "start": 17.7668,
      "duration": 0.0353,
      "velocity": 100,
      "chip": "ym2612"
    },
    {
      "channel": 1,
      "note": 64,
      "start": 17.7673,
      "duration": 0.0169,
      "velocity": 98,
      "chip": "ym2612"
    },
    {
      "channel": 2,
      "note": 71,
      "start": 17.7679,
      "duration": 0.0166,
      "velocity": 98,
      "chip": "ym2612"
    },
    {
      "channel": 3,
      "note": 69,
      "start": 17.7711,
      "duration": 0.0318,
      "velocity": 94,
      "chip": "ym2612"
    },
    {
      "channel": 4,
      "note": 71,
      "start": 17.7818,
      "duration": 0.0145,
      "velocity": 98,
      "chip": "ym2612"
    },
    {
      "channel": 1,
      "note": 66,
      "start": 17.7876,
      "duration": 0.0147,
      "velocity": 98,
      "chip": "ym2612"
    },
    {
      "channel": 2,
      "note": 72,
      "start": 17.7881,
      "duration": 0.0145,
      "velocity": 98,
      "chip": "ym2612"
    },
    {
      "channel": 4,
      "note": 67,
      "start": 17.7998,
      "duration": 0.0491,
      "velocity": 98,
      "chip": "ym2612"
    },
    {
      "channel": 1,
      "note": 67,
      "start": 17.8117,
      "duration": 0.073,
      "velocity": 98,
      "chip": "ym2612"
    },
    {
      "channel": 2,
      "note": 74,
      "start": 17.8123,
      "duration": 0.0727,
      "velocity": 98,
      "chip": "ym2612"
    },
    {
      "channel": 3,
      "note": 69,
      "start": 17.8154,
      "duration": 0.1615,
      "velocity": 94,
      "chip": "ym2612"
    },
    {
      "channel": 4,
      "note": 62,
      "start": 17.8674,
      "duration": 0.0734,
      "velocity": 98,
      "chip": "ym2612"
    },
    {
      "channel": 0,
      "note": 52,
      "start": 17.903,
      "duration": 0.1083,
      "velocity": 100,
      "chip": "ym2612"
    },
    {
      "channel": 1,
      "note": 69,
      "start": 17.9036,
      "duration": 0.0728,
      "velocity": 98,
      "chip": "ym2612"
    },
    {
      "channel": 2,
      "note": 76,
      "start": 17.9041,
      "duration": 0.0725,
      "velocity": 98,
      "chip": "ym2612"
    },
    {
      "channel": 4,
      "note": 64,
      "start": 17.959,
      "duration": 0.0466,
      "velocity": 98,
      "chip": "ym2612"
    },
    {
      "channel": 1,
      "note": 67,
      "start": 17.9949,
      "duration": 0.0166,
      "velocity": 98,
      "chip": "ym2612"
    },
    {
      "channel": 2,
      "note": 74,
      "start": 17.9954,
      "duration": 0.0164,
      "velocity": 98,
      "chip": "ym2612"
    },
    {
      "channel": 3,
      "note": 69,
      "start": 17.9987,
      "duration": 0.0317,
      "velocity": 94,
      "chip": "ym2612"
    },
    {
      "channel": 4,
      "note": 66,
      "start": 18.009,
      "duration": 0.0148,
      "velocity": 98,
      "chip": "ym2612"
    },
    {
      "channel": 1,
      "note": 69,
      "start": 18.0151,
      "duration": 0.0146,
      "velocity": 98,
      "chip": "ym2612"
    },
    {
      "channel": 2,
      "note": 76,
      "start": 18.0156,
      "duration": 0.0144,
      "velocity": 98,
      "chip": "ym2612"
    },
    {
      "channel": 4,
      "note": 67,
      "start": 18.0273,
      "duration": 0.0176,
      "velocity": 98,
      "chip": "ym2612"
    },
    {
      "channel": 0,
      "note": 50,
      "start": 18.0337,
      "duration": 0.0168,
      "velocity": 100,
      "chip": "ym2612"
    },
    {
      "channel": 1,
      "note": 71,
      "start": 18.0342,
      "duration": 0.0165,
      "velocity": 98,
      "chip": "ym2612"
    },
    {
      "channel": 2,
      "note": 78,
      "start": 18.0348,
      "duration": 0.0163,
      "velocity": 98,
      "chip": "ym2612"
    },
    {
      "channel": 3,
      "note": 69,
      "start": 18.0379,
      "duration": 0.0319,
      "velocity": 94,
      "chip": "ym2612"
    },
    {
      "channel": 4,
      "note": 69,
      "start": 18.0482,
      "duration": 0.015,
      "velocity": 98,
      "chip": "ym2612"
    },
    {
      "channel": 1,
      "note": 72,
      "start": 18.0543,
      "duration": 0.0149,
      "velocity": 98,
      "chip": "ym2612"
    },
    {
      "channel": 2,
      "note": 79,
      "start": 18.0548,
      "duration": 0.0146,
      "velocity": 98,
      "chip": "ym2612"
    },
    {
      "channel": 4,
      "note": 67,
      "start": 18.0667,
      "duration": 0.0492,
      "velocity": 98,
      "chip": "ym2612"
    },
    {
      "channel": 0,
      "note": 52,
      "start": 18.0785,
      "duration": 0.1286,
      "velocity": 100,
      "chip": "ym2612"
    },
    {
      "channel": 1,
      "note": 71,
      "start": 18.079,
      "duration": 0.0727,
      "velocity": 98,
      "chip": "ym2612"
    },
    {
      "channel": 2,
      "note": 78,
      "start": 18.0796,
      "duration": 0.0724,
      "velocity": 98,
      "chip": "ym2612"
    },
    {
      "channel": 3,
      "note": 69,
      "start": 18.0828,
      "duration": 0.1033,
      "velocity": 94,
      "chip": "ym2612"
    },
    {
      "channel": 4,
      "note": 69,
      "start": 18.1345,
      "duration": 0.0452,
      "velocity": 98,
      "chip": "ym2612"
    },
    {
      "channel": 1,
      "note": 72,
      "start": 18.1703,
      "duration": 0.0152,
      "velocity": 98,
      "chip": "ym2612"
    },
    {
      "channel": 2,
      "note": 79,
      "start": 18.1709,
      "duration": 0.015,
      "velocity": 98,
      "chip": "ym2612"
    },
    {
      "channel": 4,
      "note": 71,
      "start": 18.1831,
      "duration": 0.0182,
      "velocity": 98,
      "chip": "ym2612"
    },
    {
      "channel": 1,
      "note": 74,
      "start": 18.19,
      "duration": 0.0174,
      "velocity": 98,
      "chip": "ym2612"
    },
    {
      "channel": 2,
      "note": 81,
      "start": 18.1905,
      "duration": 0.0171,
      "velocity": 98,
      "chip": "ym2612"
    },
    {
      "channel": 3,
      "note": 69,
      "start": 18.1936,
      "duration": 0.0335,
      "velocity": 94,
      "chip": "ym2612"
    },
    {
      "channel": 4,
      "note": 72,
      "start": 18.2048,
      "duration": 0.0158,
      "velocity": 98,
      "chip": "ym2612"
    },
    {
      "channel": 1,
      "note": 76,
      "start": 18.2116,
      "duration": 0.015,
      "velocity": 98,
      "chip": "ym2612"
    },
    {
      "channel": 2,
      "note": 83,
      "start": 18.2121,
      "duration": 0.0147,
      "velocity": 98,
      "chip": "ym2612"
    },
    {
      "channel": 4,
      "note": 71,
      "start": 18.2241,
      "duration": 0.0183,
      "velocity": 98,
      "chip": "ym2612"
    },
    {
      "channel": 0,
      "note": 52,
      "start": 18.2302,
      "duration": 0.0361,
      "velocity": 100,
      "chip": "ym2612"
    },
    {
      "channel": 1,
      "note": 78,
      "start": 18.2308,
      "duration": 0.0174,
      "velocity": 98,
      "chip": "ym2612"
    },
    {
      "channel": 2,
      "note": 84,
      "start": 18.2314,
      "duration": 0.0171,
      "velocity": 98,
      "chip": "ym2612"
    },
    {
      "channel": 3,
      "note": 69,
      "start": 18.2346,
      "duration": 0.0326,
      "velocity": 94,
      "chip": "ym2612"
    },
    {
      "channel": 4,
      "note": 72,
      "start": 18.2458,
      "duration": 0.0149,
      "velocity": 98,
      "chip": "ym2612"
    },
    {
      "channel": 1,
      "note": 79,
      "start": 18.2516,
      "duration": 0.015,
      "velocity": 98,
      "chip": "ym2612"
    },
    {
      "channel": 2,
      "note": 86,
      "start": 18.2521,
      "duration": 0.0148,
      "velocity": 98,
      "chip": "ym2612"
    },
    {
      "channel": 4,
      "note": 74,
      "start": 18.2641,
      "duration": 0.0184,
      "velocity": 98,
      "chip": "ym2612"
    },
    {
      "channel": 0,
      "note": 59,
      "start": 18.2705,
      "duration": 0.0177,
      "velocity": 100,
      "chip": "ym2612"
    },
    {
      "channel": 1,
      "note": 81,
      "start": 18.271,
      "duration": 0.0174,
      "velocity": 98,
      "chip": "ym2612"
    },
    {
      "channel": 2,
      "note": 88,
      "start": 18.2715,
      "duration": 0.0172,
      "velocity": 98,
      "chip": "ym2612"
    },
    {
      "channel": 3,
      "note": 69,
      "start": 18.2747,
      "duration": 0.0332,
      "velocity": 94,
      "chip": "ym2612"
    },
    {
      "channel": 4,
      "note": 76,
      "start": 18.2859,
      "duration": 0.0144,
      "velocity": 98,
      "chip": "ym2612"
    },
    {
      "channel": 0,
      "note": 64,
      "start": 18.292,
      "duration": 0.015,
      "velocity": 100,
      "chip": "ym2612"
    },
    {
      "channel": 1,
      "note": 83,
      "start": 18.2926,
      "duration": 0.0148,
      "velocity": 98,
      "chip": "ym2612"
    },
    {
      "channel": 2,
      "note": 90,
      "start": 18.2931,
      "duration": 0.0145,
      "velocity": 98,
      "chip": "ym2612"
    },
    {
      "channel": 4,
      "note": 78,
      "start": 18.3048,
      "duration": 0.0198,
      "velocity": 98,
      "chip": "ym2612"
    },
    {
      "channel": 0,
      "note": 57,
      "start": 18.3106,
      "duration": 0.1169,
      "velocity": 100,
      "chip": "ym2612"
    },
    {
      "channel": 1,
      "note": 69,
      "start": 18.3111,
      "duration": 0.1167,
      "velocity": 98,
      "chip": "ym2612"
    },
    {
      "channel": 2,
      "note": 76,
      "start": 18.3116,
      "duration": 0.1165,
      "velocity": 98,
      "chip": "ym2612"
    },
    {
      "channel": 3,
      "note": 69,
      "start": 18.3174,
      "duration": 0.1112,
      "velocity": 101,
      "chip": "ym2612"
    },
    {
      "channel": 4,
      "note": 79,
      "start": 18.328,
      "duration": 0.0125,
      "velocity": 98,
      "chip": "ym2612"
    },
    {
      "channel": 4,
      "note": 81,
      "start": 18.3453,
      "duration": 0.0182,
      "velocity": 98,
      "chip": "ym2612"
    },
    {
      "channel": 4,
      "note": 83,
      "start": 18.3669,
      "duration": 0.113,
      "velocity": 98,
      "chip": "ym2612"
    },
    {
      "channel": 0,
      "note": 55,
      "start": 18.4366,
      "duration": 0.0999,
      "velocity": 100,
      "chip": "ym2612"
    },
    {
      "channel": 1,
      "note": 67,
      "start": 18.4372,
      "duration": 0.0998,
      "velocity": 98,
      "chip": "ym2612"
    },
    {
      "channel": 2,
      "note": 74,
      "start": 18.4377,
      "duration": 0.0995,
      "velocity": 98,
      "chip": "ym2612"
    },
    {
      "channel": 3,
      "note": 57,
      "start": 18.4383,
      "duration": 0.0993,
      "velocity": 101,
      "chip": "ym2612"
    },
    {
      "channel": 4,
      "note": 69,
      "start": 18.4834,
      "duration": 0.1013,
      "velocity": 98,
      "chip": "ym2612"
    },
    {
      "channel": 0,
      "note": 53,
      "start": 18.5404,
      "duration": 0.1005,
      "velocity": 100,
      "chip": "ym2612"
    },
    {
      "channel": 1,
      "note": 65,
      "start": 18.5409,
      "duration": 0.1003,
      "velocity": 98,
      "chip": "ym2612"
    },
    {
      "channel": 2,
      "note": 72,
      "start": 18.5415,
      "duration": 0.1001,
      "velocity": 98,
      "chip": "ym2612"
    },
    {
      "channel": 3,
      "note": 55,
      "start": 18.5421,
      "duration": 0.101,
      "velocity": 101,
      "chip": "ym2612"
    },
    {
      "channel": 4,
      "note": 67,
      "start": 18.5883,
      "duration": 0.1102,
      "velocity": 98,
      "chip": "ym2612"
    },
    {
      "channel": 0,
      "note": 51,
      "start": 18.6466,
      "duration": 0.1088,
      "velocity": 100,
      "chip": "ym2612"
    },
    {
      "channel": 1,
      "note": 63,
      "start": 18.6471,
      "duration": 0.1087,
      "velocity": 98,
      "chip": "ym2612"
    },
    {
      "channel": 2,
      "note": 70,
      "start": 18.6476,
      "duration": 0.1085,
      "velocity": 98,
      "chip": "ym2612"
    },
    {
      "channel": 3,
      "note": 53,
      "start": 18.6483,
      "duration": 0.1083,
      "velocity": 101,
      "chip": "ym2612"
    },
    {
      "channel": 4,
      "note": 65,
      "start": 18.702,
      "duration": 0.1028,
      "velocity": 98,
      "chip": "ym2612"
    },
    {
      "channel": 0,
      "note": 53,
      "start": 18.7595,
      "duration": 0.067,
      "velocity": 100,
      "chip": "ym2612"
    },
    {
      "channel": 1,
      "note": 65,
      "start": 18.7611,
      "duration": 0.0657,
      "velocity": 98,
      "chip": "ym2612"
    },
    {
      "channel": 2,
      "note": 72,
      "start": 18.7616,
      "duration": 0.0655,
      "velocity": 98,
      "chip": "ym2612"
    },
    {
      "channel": 3,
      "note": 51,
      "start": 18.7622,
      "duration": 0.0652,
      "velocity": 101,
      "chip": "ym2612"
    },
    {
      "channel": 4,
      "note": 63,
      "start": 18.8084,
      "duration": 0.0678,
      "velocity": 98,
      "chip": "ym2612"
    },
    {
      "channel": 0,
      "note": 54,
      "start": 18.8316,
      "duration": 0.066,
      "velocity": 100,
      "chip": "ym2612"
    },
    {
      "channel": 1,
      "note": 66,
      "start": 18.8322,
      "duration": 0.0658,
      "velocity": 98,
      "chip": "ym2612"
    },
    {
      "channel": 2,
      "note": 73,
      "start": 18.8337,
      "duration": 0.0645,
      "velocity": 98,
      "chip": "ym2612"
    },
    {
      "channel": 3,
      "note": 53,
      "start": 18.8344,
      "duration": 0.0642,
      "velocity": 101,
      "chip": "ym2612"
    },
    {
      "channel": 4,
      "note": 65,
      "start": 18.8796,
      "duration": 0.0768,
      "velocity": 98,
      "chip": "ym2612"
    },
    {
      "channel": 0,
      "note": 55,
      "start": 18.9025,
      "duration": 0.1163,
      "velocity": 100,
      "chip": "ym2612"
    },
    {
      "channel": 1,
      "note": 67,
      "start": 18.903,
      "duration": 0.1161,
      "velocity": 98,
      "chip": "ym2612"
    },
    {
      "channel": 2,
      "note": 74,
      "start": 18.9036,
      "duration": 0.116,
      "velocity": 98,
      "chip": "ym2612"
    },
    {
      "channel": 3,
      "note": 54,
      "start": 18.9052,
      "duration": 0.1147,
      "velocity": 101,
      "chip": "ym2612"
    },
    {
      "channel": 4,
      "note": 66,
      "start": 18.9599,
      "duration": 0.1128,
      "velocity": 98,
      "chip": "ym2612"
    },
    {
      "channel": 0,
      "note": 53,
      "start": 19.0277,
      "duration": 0.1006,
      "velocity": 100,
      "chip": "ym2612"
    },
    {
      "channel": 1,
      "note": 65,
      "start": 19.0283,
      "duration": 0.1005,
      "velocity": 98,
      "chip": "ym2612"
    },
    {
      "channel": 2,
      "note": 72,
      "start": 19.0288,
      "duration": 0.1003,
      "velocity": 98,
      "chip": "ym2612"
    },
    {
      "channel": 3,
      "note": 55,
      "start": 19.0294,
      "duration": 0.1,
      "velocity": 101,
      "chip": "ym2612"
    },
    {
      "channel": 4,
      "note": 67,
      "start": 19.0761,
      "duration": 0.102,
      "velocity": 98,
      "chip": "ym2612"
    },
    {
      "channel": 0,
      "note": 51,
      "start": 19.1322,
      "duration": 0.102,
      "velocity": 100,
      "chip": "ym2612"
    },
    {
      "channel": 1,
      "note": 63,
      "start": 19.1327,
      "duration": 0.1019,
      "velocity": 98,
      "chip": "ym2612"
    },
    {
      "channel": 2,
      "note": 70,
      "start": 19.1332,
      "duration": 0.1017,
      "velocity": 98,
      "chip": "ym2612"
    },
    {
      "channel": 3,
      "note": 53,
      "start": 19.1339,
      "duration": 0.1015,
      "velocity": 101,
      "chip": "ym2612"
    },
    {
      "channel": 4,
      "note": 65,
      "start": 19.1816,
      "duration": 0.1001,
      "velocity": 98,
      "chip": "ym2612"
    },
    {
      "channel": 0,
      "note": 50,
      "start": 19.2381,
      "duration": 0.1736,
      "velocity": 100,
      "chip": "ym2612"
    },
    {
      "channel": 1,
      "note": 62,
      "start": 19.2386,
      "duration": 0.1396,
      "velocity": 98,
      "chip": "ym2612"
    },
    {
      "channel": 2,
      "note": 69,
      "start": 19.2391,
      "duration": 0.1395,
      "velocity": 98,
      "chip": "ym2612"
    },
    {
      "channel": 3,
      "note": 51,
      "start": 19.2398,
      "duration": 0.1392,
      "velocity": 101,
      "chip": "ym2612"
    },
    {
      "channel": 4,
      "note": 63,
      "start": 19.2866,
      "duration": 0.1383,
      "velocity": 98,
      "chip": "ym2612"
    },
    {
      "channel": 0,
      "note": 61,
      "start": 19.4169,
      "duration": 0.1087,
      "velocity": 100,
      "chip": "ym2612"
    },
    {
      "channel": 0,
      "note": 52,
      "start": 19.5483,
      "duration": 33.4613,
      "velocity": 100,
      "chip": "ym2612"
    },
    {
      "channel": 1,
      "note": 76,
      "start": 19.5538,
      "duration": 33.4558,
      "velocity": 110,
      "chip": "ym2612"
    },
    {
      "channel": 2,
      "note": 71,
      "start": 19.5583,
      "duration": 33.4513,
      "velocity": 110,
      "chip": "ym2612"
    },
    {
      "channel": 3,
      "note": 50,
      "start": 19.5643,
      "duration": 0.0307,
      "velocity": 94,
      "chip": "ym2612"
    },
    {
      "channel": 3,
      "note": 69,
      "start": 19.6009,
      "duration": 33.4087,
      "velocity": 94,
      "chip": "ym2612"
    }
  ]
}