{
  "track_name": "03 - Opening Theme (Returning)",
  "duration_sec": 60.33,
  "sample_rate": 44100,
  "note_count": 824,
  "unique_pitches": 37,
  "pitch_range": 46,
  "avg_note_duration": 0.2647,
  "reconstruction_stats": {
    "notes_reconstructed": 824,
    "keyon_events": 824,
    "keyoff_events": 821,
    "orphan_keyons": 3,
    "unique_pitches": 37,
    "pitch_range": 46,
    "avg_duration_sec": 0.2647
  },
  "metadata": {
    "source": "J\\J.League Pro Striker 2\\03 - Opening Theme (Returning).vgz"
  },
  "notes": [
    {
      "channel": 0,
      "note": 69,
      "start": 0.0,
      "duration": 0.179,
      "velocity": 101,
      "chip": "ym2612"
    },
    {
      "channel": 1,
      "note": 53,
      "start": 0.002,
      "duration": 0.0921,
      "velocity": 95,
      "chip": "ym2612"
    },
    {
      "channel": 2,
      "note": 84,
      "start": 0.0053,
      "duration": 0.0319,
      "velocity": 92,
      "chip": "ym2612"
    },
    {
      "channel": 3,
      "note": 81,
      "start": 0.0086,
      "duration": 0.0292,
      "velocity": 92,
      "chip": "ym2612"
    },
    {
      "channel": 2,
      "note": 84,
      "start": 0.0377,
      "duration": 0.0288,
      "velocity": 92,
      "chip": "ym2612"
    },
    {
      "channel": 3,
      "note": 81,
      "start": 0.0384,
      "duration": 0.0287,
      "velocity": 92,
      "chip": "ym2612"
    },
    {
      "channel": 4,
      "note": 69,
      "start": 0.0521,
      "duration": 0.17,
      "velocity": 101,
      "chip": "ym2612"
    },
    {
      "channel": 2,
      "note": 84,
      "start": 0.067,
      "duration": 0.0278,
      "velocity": 92,
      "chip": "ym2612"
    },
    {
      "channel": 3,
      "note": 81,
      "start": 0.0677,
      "duration": 0.0278,
      "velocity": 92,
      "chip": "ym2612"
    },
    {
      "channel": 1,
      "note": 53,
      "start": 0.0947,
      "duration": 0.0302,
      "velocity": 95,
      "chip": "ym2612"
    },
    {
      "channel": 2,
      "note": 84,
      "start": 0.0954,
      "duration": 0.0298,
      "velocity": 92,
      "chip": "ym2612"
    },
    {
      "channel": 3,
      "note": 81,
      "start": 0.0961,
      "duration": 0.0298,
      "velocity": 92,
      "chip": "ym2612"
    },
    {
      "channel": 2,
      "note": 84,
      "start": 0.1257,
      "duration": 0.0543,
      "velocity": 92,
      "chip": "ym2612"
    },
    {
      "channel": 3,
      "note": 81,
      "start": 0.1264,
      "duration": 0.0543,
      "velocity": 92,
      "chip": "ym2612"
    },
    {
      "channel": 1,
      "note": 53,
      "start": 0.1525,
      "duration": 0.0273,
      "velocity": 95,
      "chip": "ym2612"
    },
    {
      "channel": 0,
      "note": 69,
      "start": 0.1796,
      "duration": 0.0289,
      "velocity": 101,
      "chip": "ym2612"
    },
    {
      "channel": 2,
      "note": 84,
      "start": 0.1806,
      "duration": 0.0288,
      "velocity": 92,
      "chip": "ym2612"
    },
    {
      "channel": 3,
      "note": 81,
      "start": 0.1813,
      "duration": 0.0288,
      "velocity": 92,
      "chip": "ym2612"
    },
    {
      "channel": 1,
      "note": 53,
      "start": 0.2093,
      "duration": 0.0552,
      "velocity": 95,
      "chip": "ym2612"
    },
    {
      "channel": 2,
      "note": 84,
      "start": 0.21,
      "duration": 0.0551,
      "velocity": 92,
      "chip": "ym2612"
    },
    {
      "channel": 3,
      "note": 81,
      "start": 0.2107,
      "duration": 0.0547,
      "velocity": 92,
      "chip": "ym2612"
    },
    {
      "channel": 4,
      "note": 69,
      "start": 0.2227,
      "duration": 0.0539,
      "velocity": 101,
      "chip": "ym2612"
    },
    {
      "channel": 0,
      "note": 76,
      "start": 0.2643,
      "duration": 0.2856,
      "velocity": 101,
      "chip": "ym2612"
    },
    {
      "channel": 1,
      "note": 53,
      "start": 0.265,
      "duration": 0.4043,
      "velocity": 95,
      "chip": "ym2612"
    },
    {
      "channel": 2,
      "note": 84,
      "start": 0.3178,
      "duration": 0.1161,
      "velocity": 92,
      "chip": "ym2612"
    },
    {
      "channel": 3,
      "note": 81,
      "start": 0.3186,
      "duration": 0.116,
      "velocity": 92,
      "chip": "ym2612"
    },
    {
      "channel": 4,
      "note": 76,
      "start": 0.3684,
      "duration": 0.313,
      "velocity": 101,
      "chip": "ym2612"
    },
    {
      "channel": 2,
      "note": 84,
      "start": 0.4345,
      "duration": 0.1165,
      "velocity": 92,
      "chip": "ym2612"
    },
    {
      "channel": 3,
      "note": 81,
      "start": 0.4352,
      "duration": 0.1161,
      "velocity": 92,
      "chip": "ym2612"
    },
    {
      "channel": 0,
      "note": 74,
      "start": 0.5505,
      "duration": 0.1683,
      "velocity": 101,
      "chip": "ym2612"
    },
    {
      "channel": 1,
      "note": 63,
      "start": 0.6698,
      "duration": 0.0252,
      "velocity": 95,
      "chip": "ym2612"
    },
    {
      "channel": 4,
      "note": 74,
      "start": 0.6821,
      "duration": 0.089,
      "velocity": 101,
      "chip": "ym2612"
    },
    {
      "channel": 1,
      "note": 65,
      "start": 0.6956,
      "duration": 0.024,
      "velocity": 95,
      "chip": "ym2612"
    },
    {
      "channel": 0,
      "note": 72,
      "start": 0.7194,
      "duration": 0.1199,
      "velocity": 101,
      "chip": "ym2612"
    },
    {
      "channel": 1,
      "note": 63,
      "start": 0.72,
      "duration": 0.024,
      "velocity": 95,
      "chip": "ym2612"
    },
    {
      "channel": 1,
      "note": 60,
      "start": 0.7446,
      "duration": 0.0955,
      "velocity": 95,
      "chip": "ym2612"
    },
    {
      "channel": 4,
      "note": 72,
      "start": 0.7717,
      "duration": 0.1715,
      "velocity": 101,
      "chip": "ym2612"
    },
    {
      "channel": 0,
      "note": 71,
      "start": 0.8399,
      "duration": 0.2856,
      "velocity": 101,
      "chip": "ym2612"
    },
    {
      "channel": 1,
      "note": 55,
      "start": 0.8405,
      "duration": 0.0521,
      "velocity": 95,
      "chip": "ym2612"
    },
    {
      "channel": 2,
      "note": 86,
      "start": 0.8412,
      "duration": 0.0517,
      "velocity": 92,
      "chip": "ym2612"
    },
    {
      "channel": 3,
      "note": 83,
      "start": 0.842,
      "duration": 0.0517,
      "velocity": 92,
      "chip": "ym2612"
    },
    {
      "channel": 2,
      "note": 86,
      "start": 0.8935,
      "duration": 0.1158,
      "velocity": 92,
      "chip": "ym2612"
    },
    {
      "channel": 3,
      "note": 83,
      "start": 0.8942,
      "duration": 0.1158,
      "velocity": 92,
      "chip": "ym2612"
    },
    {
      "channel": 4,
      "note": 71,
      "start": 0.9438,
      "duration": 0.3159,
      "velocity": 101,
      "chip": "ym2612"
    },
    {
      "channel": 2,
      "note": 86,
      "start": 1.0099,
      "duration": 0.1171,
      "velocity": 92,
      "chip": "ym2612"
    },
    {
      "channel": 3,
      "note": 83,
      "start": 1.0106,
      "duration": 0.1171,
      "velocity": 92,
      "chip": "ym2612"
    },
    {
      "channel": 0,
      "note": 72,
      "start": 1.1261,
      "duration": 0.1751,
      "velocity": 101,
      "chip": "ym2612"
    },
    {
      "channel": 1,
      "note": 55,
      "start": 1.1268,
      "duration": 0.1181,
      "velocity": 95,
      "chip": "ym2612"
    },
    {
      "channel": 2,
      "note": 86,
      "start": 1.1275,
      "duration": 0.1181,
      "velocity": 92,
      "chip": "ym2612"
    },
    {
      "channel": 3,
      "note": 83,
      "start": 1.1282,
      "duration": 0.1181,
      "velocity": 92,
      "chip": "ym2612"
    },
    {
      "channel": 1,
      "note": 55,
      "start": 1.2454,
      "duration": 0.1424,
      "velocity": 95,
      "chip": "ym2612"
    },
    {
      "channel": 2,
      "note": 86,
      "start": 1.2461,
      "duration": 0.0561,
      "velocity": 92,
      "chip": "ym2612"
    },
    {
      "channel": 3,
      "note": 83,
      "start": 1.2468,
      "duration": 0.0561,
      "velocity": 92,
      "chip": "ym2612"
    },
    {
      "channel": 4,
      "note": 72,
      "start": 1.2603,
      "duration": 0.0849,
      "velocity": 101,
      "chip": "ym2612"
    },
    {
      "channel": 0,
      "note": 74,
      "start": 1.3018,
      "duration": 0.0301,
      "velocity": 101,
      "chip": "ym2612"
    },
    {
      "channel": 2,
      "note": 86,
      "start": 1.3028,
      "duration": 0.0297,
      "velocity": 92,
      "chip": "ym2612"
    },
    {
      "channel": 3,
      "note": 83,
      "start": 1.3035,
      "duration": 0.0296,
      "velocity": 92,
      "chip": "ym2612"
    },
    {
      "channel": 2,
      "note": 86,
      "start": 1.333,
      "duration": 0.0555,
      "velocity": 92,
      "chip": "ym2612"
    },
    {
      "channel": 3,
      "note": 84,
      "start": 1.3337,
      "duration": 0.0551,
      "velocity": 92,
      "chip": "ym2612"
    },
    {
      "channel": 4,
      "note": 74,
      "start": 1.3459,
      "duration": 0.0539,
      "velocity": 101,
      "chip": "ym2612"
    },
    {
      "channel": 0,
      "note": 67,
      "start": 1.3877,
      "duration": 0.363,
      "velocity": 101,
      "chip": "ym2612"
    },
    {
      "channel": 1,
      "note": 50,
      "start": 1.3884,
      "duration": 0.2875,
      "velocity": 95,
      "chip": "ym2612"
    },
    {
      "channel": 2,
      "note": 86,
      "start": 1.441,
      "duration": 0.1161,
      "velocity": 92,
      "chip": "ym2612"
    },
    {
      "channel": 3,
      "note": 84,
      "start": 1.4417,
      "duration": 0.1161,
      "velocity": 92,
      "chip": "ym2612"
    },
    {
      "channel": 4,
      "note": 67,
      "start": 1.4917,
      "duration": 0.3135,
      "velocity": 101,
      "chip": "ym2612"
    },
    {
      "channel": 2,
      "note": 86,
      "start": 1.5577,
      "duration": 0.1188,
      "velocity": 92,
      "chip": "ym2612"
    },
    {
      "channel": 3,
      "note": 83,
      "start": 1.5584,
      "duration": 0.1185,
      "velocity": 92,
      "chip": "ym2612"
    },
    {
      "channel": 1,
      "note": 55,
      "start": 1.6764,
      "duration": 0.0268,
      "velocity": 95,
      "chip": "ym2612"
    },
    {
      "channel": 1,
      "note": 55,
      "start": 1.7037,
      "duration": 0.0249,
      "velocity": 95,
      "chip": "ym2612"
    },
    {
      "channel": 0,
      "note": 67,
      "start": 1.7512,
      "duration": 0.0242,
      "velocity": 101,
      "chip": "ym2612"
    },
    {
      "channel": 1,
      "note": 50,
      "start": 1.7519,
      "duration": 0.1222,
      "velocity": 95,
      "chip": "ym2612"
    },
    {
      "channel": 0,
      "note": 66,
      "start": 1.776,
      "duration": 0.0973,
      "velocity": 101,
      "chip": "ym2612"
    },
    {
      "channel": 4,
      "note": 67,
      "start": 1.8059,
      "duration": 0.0826,
      "velocity": 101,
      "chip": "ym2612"
    },
    {
      "channel": 0,
      "note": 67,
      "start": 1.8739,
      "duration": 0.4602,
      "velocity": 101,
      "chip": "ym2612"
    },
    {
      "channel": 1,
      "note": 52,
      "start": 1.8746,
      "duration": 0.2854,
      "velocity": 95,
      "chip": "ym2612"
    },
    {
      "channel": 2,
      "note": 86,
      "start": 1.8753,
      "duration": 0.0517,
      "velocity": 92,
      "chip": "ym2612"
    },
    {
      "channel": 3,
      "note": 83,
      "start": 1.876,
      "duration": 0.0517,
      "velocity": 92,
      "chip": "ym2612"
    },
    {
      "channel": 4,
      "note": 66,
      "start": 1.8891,
      "duration": 0.0884,
      "velocity": 101,
      "chip": "ym2612"
    },
    {
      "channel": 2,
      "note": 86,
      "start": 1.9275,
      "duration": 0.1161,
      "velocity": 92,
      "chip": "ym2612"
    },
    {
      "channel": 3,
      "note": 83,
      "start": 1.9283,
      "duration": 0.116,
      "velocity": 92,
      "chip": "ym2612"
    },
    {
      "channel": 4,
      "note": 67,
      "start": 1.9781,
      "duration": 0.4025,
      "velocity": 101,
      "chip": "ym2612"
    },
    {
      "channel": 2,
      "note": 86,
      "start": 2.0442,
      "duration": 0.1165,
      "velocity": 92,
      "chip": "ym2612"
    },
    {
      "channel": 3,
      "note": 83,
      "start": 2.0449,
      "duration": 0.1165,
      "velocity": 92,
      "chip": "ym2612"
    },
    {
      "channel": 1,
      "note": 52,
      "start": 2.1605,
      "duration": 0.1184,
      "velocity": 95,
      "chip": "ym2612"
    },
    {
      "channel": 2,
      "note": 86,
      "start": 2.1612,
      "duration": 0.118,
      "velocity": 92,
      "chip": "ym2612"
    },
    {
      "channel": 3,
      "note": 83,
      "start": 2.162,
      "duration": 0.118,
      "velocity": 92,
      "chip": "ym2612"
    },
    {
      "channel": 2,
      "note": 86,
      "start": 2.2798,
      "duration": 0.0842,
      "velocity": 92,
      "chip": "ym2612"
    },
    {
      "channel": 3,
      "note": 83,
      "start": 2.2805,
      "duration": 0.0842,
      "velocity": 92,
      "chip": "ym2612"
    },
    {
      "channel": 1,
      "note": 52,
      "start": 2.3072,
      "duration": 0.0276,
      "velocity": 95,
      "chip": "ym2612"
    },
    {
      "channel": 0,
      "note": 67,
      "start": 2.3346,
      "duration": 0.0285,
      "velocity": 101,
      "chip": "ym2612"
    },
    {
      "channel": 1,
      "note": 52,
      "start": 2.3639,
      "duration": 0.0551,
      "velocity": 95,
      "chip": "ym2612"
    },
    {
      "channel": 2,
      "note": 86,
      "start": 2.3646,
      "duration": 0.0551,
      "velocity": 92,
      "chip": "ym2612"
    },
    {
      "channel": 3,
      "note": 83,
      "start": 2.3653,
      "duration": 0.0547,
      "velocity": 92,
      "chip": "ym2612"
    },
    {
      "channel": 4,
      "note": 67,
      "start": 2.3812,
      "duration": 0.0537,
      "velocity": 101,
      "chip": "ym2612"
    },
    {
      "channel": 0,
      "note": 64,
      "start": 2.4189,
      "duration": 0.2855,
      "velocity": 101,
      "chip": "ym2612"
    },
    {
      "channel": 1,
      "note": 52,
      "start": 2.4196,
      "duration": 0.5751,
      "velocity": 95,
      "chip": "ym2612"
    },
    {
      "channel": 4,
      "note": 64,
      "start": 2.5391,
      "duration": 0.3002,
      "velocity": 101,
      "chip": "ym2612"
    },
    {
      "channel": 0,
      "note": 76,
      "start": 2.705,
      "duration": 0.1685,
      "velocity": 101,
      "chip": "ym2612"
    },
    {
      "channel": 4,
      "note": 76,
      "start": 2.84,
      "duration": 0.1024,
      "velocity": 101,
      "chip": "ym2612"
    },
    {
      "channel": 0,
      "note": 71,
      "start": 2.8741,
      "duration": 0.1198,
      "velocity": 101,
      "chip": "ym2612"
    },
    {
      "channel": 4,
      "note": 71,
      "start": 2.943,
      "duration": 0.1715,
      "velocity": 101,
      "chip": "ym2612"
    },
    {
      "channel": 0,
      "note": 72,
      "start": 2.9945,
      "duration": 0.2857,
      "velocity": 101,
      "chip": "ym2612"
    },
    {
      "channel": 1,
      "note": 57,
      "start": 2.9951,
      "duration": 0.0522,
      "velocity": 95,
      "chip": "ym2612"
    },
    {
      "channel": 2,
      "note": 88,
      "start": 2.9959,
      "duration": 0.0518,
      "velocity": 92,
      "chip": "ym2612"
    },
    {
      "channel": 3,
      "note": 84,
      "start": 2.9966,
      "duration": 0.0517,
      "velocity": 92,
      "chip": "ym2612"
    },
    {
      "channel": 2,
      "note": 88,
      "start": 3.0482,
      "duration": 0.1158,
      "velocity": 92,
      "chip": "ym2612"
    },
    {
      "channel": 3,
      "note": 84,
      "start": 3.0489,
      "duration": 0.1158,
      "velocity": 92,
      "chip": "ym2612"
    },
    {
      "channel": 4,
      "note": 72,
      "start": 3.1152,
      "duration": 0.3033,
      "velocity": 101,
      "chip": "ym2612"
    },
    {
      "channel": 2,
      "note": 88,
      "start": 3.1645,
      "duration": 0.1165,
      "velocity": 92,
      "chip": "ym2612"
    },
    {
      "channel": 3,
      "note": 84,
      "start": 3.1652,
      "duration": 0.1165,
      "velocity": 92,
      "chip": "ym2612"
    },
    {
      "channel": 0,
      "note": 74,
      "start": 3.2807,
      "duration": 0.1759,
      "velocity": 101,
      "chip": "ym2612"
    },
    {
      "channel": 2,
      "note": 88,
      "start": 3.2816,
      "duration": 0.1186,
      "velocity": 92,
      "chip": "ym2612"
    },
    {
      "channel": 3,
      "note": 84,
      "start": 3.2823,
      "duration": 0.1186,
      "velocity": 92,
      "chip": "ym2612"
    },
    {
      "channel": 1,
      "note": 57,
      "start": 3.4001,
      "duration": 0.0867,
      "velocity": 95,
      "chip": "ym2612"
    },
    {
      "channel": 2,
      "note": 88,
      "start": 3.4008,
      "duration": 0.0867,
      "velocity": 92,
      "chip": "ym2612"
    },
    {
      "channel": 3,
      "note": 84,
      "start": 3.4015,
      "duration": 0.0867,
      "velocity": 92,
      "chip": "ym2612"
    },
    {
      "channel": 4,
      "note": 74,
      "start": 3.4191,
      "duration": 0.0858,
      "velocity": 101,
      "chip": "ym2612"
    },
    {
      "channel": 0,
      "note": 76,
      "start": 3.4573,
      "duration": 0.5151,
      "velocity": 101,
      "chip": "ym2612"
    },
    {
      "channel": 1,
      "note": 57,
      "start": 3.4873,
      "duration": 0.0545,
      "velocity": 95,
      "chip": "ym2612"
    },
    {
      "channel": 2,
      "note": 88,
      "start": 3.488,
      "duration": 0.0544,
      "velocity": 92,
      "chip": "ym2612"
    },
    {
      "channel": 3,
      "note": 84,
      "start": 3.4888,
      "duration": 0.054,
      "velocity": 92,
      "chip": "ym2612"
    },
    {
      "channel": 4,
      "note": 76,
      "start": 3.5055,
      "duration": 0.5045,
      "velocity": 101,
      "chip": "ym2612"
    },
    {
      "channel": 1,
      "note": 57,
      "start": 3.5423,
      "duration": 0.0524,
      "velocity": 95,
      "chip": "ym2612"
    },
    {
      "channel": 1,
      "note": 55,
      "start": 3.7118,
      "duration": 0.1162,
      "velocity": 95,
      "chip": "ym2612"
    },
    {
      "channel": 1,
      "note": 52,
      "start": 3.9475,
      "duration": 0.1702,
      "velocity": 95,
      "chip": "ym2612"
    },
    {
      "channel": 0,
      "note": 76,
      "start": 3.9953,
      "duration": 0.0234,
      "velocity": 101,
      "chip": "ym2612"
    },
    {
      "channel": 0,
      "note": 75,
      "start": 4.0193,
      "duration": 0.0977,
      "velocity": 101,
      "chip": "ym2612"
    },
    {
      "channel": 4,
      "note": 76,
      "start": 4.0661,
      "duration": 0.0702,
      "velocity": 101,
      "chip": "ym2612"
    },
    {
      "channel": 0,
      "note": 76,
      "start": 4.1176,
      "duration": 0.5442,
      "velocity": 101,
      "chip": "ym2612"
    },
    {
      "channel": 1,
      "note": 53,
      "start": 4.1182,
      "duration": 0.2854,
      "velocity": 95,
      "chip": "ym2612"
    },
    {
      "channel": 2,
      "note": 84,
      "start": 4.1189,
      "duration": 0.0518,
      "velocity": 92,
      "chip": "ym2612"
    },
    {
      "channel": 3,
      "note": 81,
      "start": 4.1196,
      "duration": 0.0518,
      "velocity": 92,
      "chip": "ym2612"
    },
    {
      "channel": 4,
      "note": 75,
      "start": 4.137,
      "duration": 0.1009,
      "velocity": 101,
      "chip": "ym2612"
    },
    {
      "channel": 2,
      "note": 84,
      "start": 4.1712,
      "duration": 0.1161,
      "velocity": 92,
      "chip": "ym2612"
    },
    {
      "channel": 3,
      "note": 81,
      "start": 4.172,
      "duration": 0.116,
      "velocity": 92,
      "chip": "ym2612"
    },
    {
      "channel": 4,
      "note": 76,
      "start": 4.2385,
      "duration": 0.5436,
      "velocity": 101,
      "chip": "ym2612"
    },
    {
      "channel": 2,
      "note": 84,
      "start": 4.2879,
      "duration": 0.1165,
      "velocity": 92,
      "chip": "ym2612"
    },
    {
      "channel": 3,
      "note": 81,
      "start": 4.2886,
      "duration": 0.1165,
      "velocity": 92,
      "chip": "ym2612"
    },
    {
      "channel": 1,
      "note": 53,
      "start": 4.4042,
      "duration": 0.1184,
      "velocity": 95,
      "chip": "ym2612"
    },
    {
      "channel": 2,
      "note": 84,
      "start": 4.4049,
      "duration": 0.118,
      "velocity": 92,
      "chip": "ym2612"
    },
    {
      "channel": 3,
      "note": 81,
      "start": 4.4056,
      "duration": 0.118,
      "velocity": 92,
      "chip": "ym2612"
    },
    {
      "channel": 2,
      "note": 84,
      "start": 4.5235,
      "duration": 0.0842,
      "velocity": 92,
      "chip": "ym2612"
    },
    {
      "channel": 3,
      "note": 81,
      "start": 4.5242,
      "duration": 0.0842,
      "velocity": 92,
      "chip": "ym2612"
    },
    {
      "channel": 1,
      "note": 53,
      "start": 4.5512,
      "duration": 0.0273,
      "velocity": 95,
      "chip": "ym2612"
    },
    {
      "channel": 1,
      "note": 53,
      "start": 4.6075,
      "duration": 0.0551,
      "velocity": 95,
      "chip": "ym2612"
    },
    {
      "channel": 2,
      "note": 84,
      "start": 4.6083,
      "duration": 0.0549,
      "velocity": 92,
      "chip": "ym2612"
    },
    {
      "channel": 3,
      "note": 81,
      "start": 4.609,
      "duration": 0.0545,
      "velocity": 92,
      "chip": "ym2612"
    },
    {
      "channel": 0,
      "note": 76,
      "start": 4.6624,
      "duration": 0.3022,
      "velocity": 101,
      "chip": "ym2612"
    },
    {
      "channel": 1,
      "note": 53,
      "start": 4.6631,
      "duration": 0.421,
      "velocity": 95,
      "chip": "ym2612"
    },
    {
      "channel": 4,
      "note": 76,
      "start": 4.7827,
      "duration": 0.3137,
      "velocity": 101,
      "chip": "ym2612"
    },
    {
      "channel": 0,
      "note": 71,
      "start": 4.9652,
      "duration": 0.1693,
      "velocity": 101,
      "chip": "ym2612"
    },
    {
      "channel": 1,
      "note": 63,
      "start": 5.0845,
      "duration": 0.0257,
      "velocity": 95,
      "chip": "ym2612"
    },
    {
      "channel": 4,
      "note": 71,
      "start": 5.0971,
      "duration": 0.0885,
      "velocity": 101,
      "chip": "ym2612"
    },
    {
      "channel": 1,
      "note": 65,
      "start": 5.1108,
      "duration": 0.0245,
      "velocity": 95,
      "chip": "ym2612"
    },
    {
      "channel": 0,
      "note": 72,
      "start": 5.1351,
      "duration": 0.0246,
      "velocity": 101,
      "chip": "ym2612"
    },
    {
      "channel": 1,
      "note": 63,
      "start": 5.1357,
      "duration": 0.0243,
      "velocity": 95,
      "chip": "ym2612"
    },
    {
      "channel": 1,
      "note": 60,
      "start": 5.1606,
      "duration": 0.0943,
      "velocity": 95,
      "chip": "ym2612"
    },
    {
      "channel": 4,
      "note": 72,
      "start": 5.1862,
      "duration": 0.083,
      "velocity": 101,
      "chip": "ym2612"
    },
    {
      "channel": 0,
      "note": 74,
      "start": 5.2547,
      "duration": 0.4045,
      "velocity": 101,
      "chip": "ym2612"
    },
    {
      "channel": 1,
      "note": 55,
      "start": 5.2554,
      "duration": 0.0519,
      "velocity": 95,
      "chip": "ym2612"
    },
    {
      "channel": 2,
      "note": 86,
      "start": 5.2561,
      "duration": 0.0515,
      "velocity": 92,
      "chip": "ym2612"
    },
    {
      "channel": 3,
      "note": 83,
      "start": 5.2568,
      "duration": 0.0515,
      "velocity": 92,
      "chip": "ym2612"
    },
    {
      "channel": 2,
      "note": 86,
      "start": 5.3082,
      "duration": 0.1158,
      "velocity": 92,
      "chip": "ym2612"
    },
    {
      "channel": 3,
      "note": 83,
      "start": 5.3089,
      "duration": 0.1159,
      "velocity": 92,
      "chip": "ym2612"
    },
    {
      "channel": 4,
      "note": 74,
      "start": 5.3586,
      "duration": 0.3429,
      "velocity": 101,
      "chip": "ym2612"
    },
    {
      "channel": 2,
      "note": 86,
      "start": 5.4246,
      "duration": 0.1162,
      "velocity": 92,
      "chip": "ym2612"
    },
    {
      "channel": 3,
      "note": 83,
      "start": 5.4253,
      "duration": 0.1162,
      "velocity": 92,
      "chip": "ym2612"
    },
    {
      "channel": 2,
      "note": 86,
      "start": 5.5413,
      "duration": 0.1193,
      "velocity": 92,
      "chip": "ym2612"
    },
    {
      "channel": 3,
      "note": 83,
      "start": 5.542,
      "duration": 0.1193,
      "velocity": 92,
      "chip": "ym2612"
    },
    {
      "channel": 0,
      "note": 76,
      "start": 5.6598,
      "duration": 0.142,
      "velocity": 101,
      "chip": "ym2612"
    },
    {
      "channel": 1,
      "note": 55,
      "start": 5.6605,
      "duration": 0.1421,
      "velocity": 95,
      "chip": "ym2612"
    },
    {
      "channel": 2,
      "note": 86,
      "start": 5.6612,
      "duration": 0.0861,
      "velocity": 92,
      "chip": "ym2612"
    },
    {
      "channel": 3,
      "note": 83,
      "start": 5.662,
      "duration": 0.0861,
      "velocity": 92,
      "chip": "ym2612"
    },
    {
      "channel": 4,
      "note": 76,
      "start": 5.7022,
      "duration": 0.2032,
      "velocity": 101,
      "chip": "ym2612"
    },
    {
      "channel": 2,
      "note": 86,
      "start": 5.7479,
      "duration": 0.0554,
      "velocity": 92,
      "chip": "ym2612"
    },
    {
      "channel": 3,
      "note": 83,
      "start": 5.7486,
      "duration": 0.0551,
      "velocity": 92,
      "chip": "ym2612"
    },
    {
      "channel": 0,
      "note": 79,
      "start": 5.8025,
      "duration": 0.2877,
      "velocity": 101,
      "chip": "ym2612"
    },
    {
      "channel": 1,
      "note": 60,
      "start": 5.8031,
      "duration": 0.2879,
      "velocity": 95,
      "chip": "ym2612"
    },
    {
      "channel": 4,
      "note": 79,
      "start": 5.906,
      "duration": 0.223,
      "velocity": 101,
      "chip": "ym2612"
    },
    {
      "channel": 0,
      "note": 76,
      "start": 6.0908,
      "duration": 0.0721,
      "velocity": 101,
      "chip": "ym2612"
    },
    {
      "channel": 1,
      "note": 59,
      "start": 6.0915,
      "duration": 0.0264,
      "velocity": 95,
      "chip": "ym2612"
    },
    {
      "channel": 4,
      "note": 76,
      "start": 6.1296,
      "duration": 0.0905,
      "velocity": 101,
      "chip": "ym2612"
    },
    {
      "channel": 0,
      "note": 82,
      "start": 6.1636,
      "duration": 0.3439,
      "velocity": 101,
      "chip": "ym2612"
    },
    {
      "channel": 1,
      "note": 55,
      "start": 6.1642,
      "duration": 0.1241,
      "velocity": 95,
      "chip": "ym2612"
    },
    {
      "channel": 4,
      "note": 82,
      "start": 6.2207,
      "duration": 0.4746,
      "velocity": 101,
      "chip": "ym2612"
    },
    {
      "channel": 1,
      "note": 57,
      "start": 6.2889,
      "duration": 0.2858,
      "velocity": 95,
      "chip": "ym2612"
    },
    {
      "channel": 2,
      "note": 88,
      "start": 6.2896,
      "duration": 0.0521,
      "velocity": 92,
      "chip": "ym2612"
    },
    {
      "channel": 3,
      "note": 85,
      "start": 6.2903,
      "duration": 0.0521,
      "velocity": 92,
      "chip": "ym2612"
    },
    {
      "channel": 2,
      "note": 88,
      "start": 6.3423,
      "duration": 0.1161,
      "velocity": 92,
      "chip": "ym2612"
    },
    {
      "channel": 3,
      "note": 85,
      "start": 6.343,
      "duration": 0.1161,
      "velocity": 92,
      "chip": "ym2612"
    },
    {
      "channel": 2,
      "note": 88,
      "start": 6.4589,
      "duration": 0.1164,
      "velocity": 92,
      "chip": "ym2612"
    },
    {
      "channel": 3,
      "note": 85,
      "start": 6.4596,
      "duration": 0.1163,
      "velocity": 92,
      "chip": "ym2612"
    },
    {
      "channel": 0,
      "note": 81,
      "start": 6.5082,
      "duration": 0.7868,
      "velocity": 101,
      "chip": "ym2612"
    },
    {
      "channel": 1,
      "note": 57,
      "start": 6.5752,
      "duration": 0.1184,
      "velocity": 95,
      "chip": "ym2612"
    },
    {
      "channel": 2,
      "note": 88,
      "start": 6.5759,
      "duration": 0.118,
      "velocity": 92,
      "chip": "ym2612"
    },
    {
      "channel": 3,
      "note": 85,
      "start": 6.5766,
      "duration": 0.1181,
      "velocity": 92,
      "chip": "ym2612"
    },
    {
      "channel": 2,
      "note": 88,
      "start": 6.6945,
      "duration": 0.0842,
      "velocity": 92,
      "chip": "ym2612"
    },
    {
      "channel": 3,
      "note": 85,
      "start": 6.6952,
      "duration": 0.0843,
      "velocity": 92,
      "chip": "ym2612"
    },
    {
      "channel": 4,
      "note": 81,
      "start": 6.696,
      "duration": 0.6615,
      "velocity": 101,
      "chip": "ym2612"
    },
    {
      "channel": 1,
      "note": 57,
      "start": 6.7217,
      "duration": 0.0265,
      "velocity": 95,
      "chip": "ym2612"
    },
    {
      "channel": 1,
      "note": 57,
      "start": 6.7786,
      "duration": 0.0547,
      "velocity": 95,
      "chip": "ym2612"
    },
    {
      "channel": 2,
      "note": 88,
      "start": 6.7793,
      "duration": 1.6239,
      "velocity": 92,
      "chip": "ym2612"
    },
    {
      "channel": 3,
      "note": 85,
      "start": 6.78,
      "duration": 1.6239,
      "velocity": 92,
      "chip": "ym2612"
    },
    {
      "channel": 1,
      "note": 57,
      "start": 6.8339,
      "duration": 0.4046,
      "velocity": 95,
      "chip": "ym2612"
    },
    {
      "channel": 1,
      "note": 57,
      "start": 7.239,
      "duration": 0.1704,
      "velocity": 95,
      "chip": "ym2612"
    },
    {
      "channel": 0,
      "note": 81,
      "start": 7.2956,
      "duration": 0.0272,
      "velocity": 101,
      "chip": "ym2612"
    },
    {
      "channel": 0,
      "note": 83,
      "start": 7.3234,
      "duration": 0.0853,
      "velocity": 101,
      "chip": "ym2612"
    },
    {
      "channel": 4,
      "note": 81,
      "start": 7.3581,
      "duration": 0.0688,
      "velocity": 101,
      "chip": "ym2612"
    },
    {
      "channel": 0,
      "note": 85,
      "start": 7.4093,
      "duration": 0.9922,
      "velocity": 102,
      "chip": "ym2612"
    },
    {
      "channel": 1,
      "note": 57,
      "start": 7.4099,
      "duration": 0.052,
      "velocity": 95,
      "chip": "ym2612"
    },
    {
      "channel": 4,
      "note": 83,
      "start": 7.4276,
      "duration": 0.1016,
      "velocity": 101,
      "chip": "ym2612"
    },
    {
      "channel": 4,
      "note": 85,
      "start": 7.5298,
      "duration": 0.992,
      "velocity": 102,
      "chip": "ym2612"
    },
    {
      "channel": 1,
      "note": 57,
      "start": 7.8148,
      "duration": 0.0868,
      "velocity": 95,
      "chip": "ym2612"
    },
    {
      "channel": 1,
      "note": 57,
      "start": 7.9022,
      "duration": 0.0551,
      "velocity": 95,
      "chip": "ym2612"
    },
    {
      "channel": 1,
      "note": 57,
      "start": 7.9577,
      "duration": 0.1686,
      "velocity": 95,
      "chip": "ym2612"
    },
    {
      "channel": 1,
      "note": 52,
      "start": 8.1268,
      "duration": 0.1498,
      "velocity": 95,
      "chip": "ym2612"
    },
    {
      "channel": 1,
      "note": 57,
      "start": 8.2772,
      "duration": 0.0601,
      "velocity": 95,
      "chip": "ym2612"
    },
    {
      "channel": 1,
      "note": 57,
      "start": 8.3379,
      "duration": 0.0643,
      "velocity": 95,
      "chip": "ym2612"
    },
    {
      "channel": 0,
      "note": 84,
      "start": 8.402,
      "duration": 0.4556,
      "velocity": 102,
      "chip": "ym2612"
    },
    {
      "channel": 1,
      "note": 60,
      "start": 8.4027,
      "duration": 0.1656,
      "velocity": 95,
      "chip": "ym2612"
    },
    {
      "channel": 4,
      "note": 84,
      "start": 8.5224,
      "duration": 0.4006,
      "velocity": 102,
      "chip": "ym2612"
    },
    {
      "channel": 1,
      "note": 60,
      "start": 8.569,
      "duration": 0.2351,
      "velocity": 95,
      "chip": "ym2612"
    },
    {
      "channel": 2,
      "note": 88,
      "start": 8.5697,
      "duration": 0.1156,
      "velocity": 92,
      "chip": "ym2612"
    },
    {
      "channel": 3,
      "note": 79,
      "start": 8.5704,
      "duration": 0.1152,
      "velocity": 92,
      "chip": "ym2612"
    },
    {
      "channel": 1,
      "note": 60,
      "start": 8.8046,
      "duration": 0.0538,
      "velocity": 95,
      "chip": "ym2612"
    },
    {
      "channel": 2,
      "note": 88,
      "start": 8.8305,
      "duration": 0.1447,
      "velocity": 92,
      "chip": "ym2612"
    },
    {
      "channel": 3,
      "note": 79,
      "start": 8.8312,
      "duration": 0.1447,
      "velocity": 92,
      "chip": "ym2612"
    },
    {
      "channel": 0,
      "note": 88,
      "start": 8.8582,
      "duration": 0.4597,
      "velocity": 102,
      "chip": "ym2612"
    },
    {
      "channel": 1,
      "note": 60,
      "start": 8.8589,
      "duration": 0.1156,
      "velocity": 95,
      "chip": "ym2612"
    },
    {
      "channel": 4,
      "note": 88,
      "start": 8.9237,
      "duration": 0.4354,
      "velocity": 102,
      "chip": "ym2612"
    },
    {
      "channel": 1,
      "note": 60,
      "start": 8.9751,
      "duration": 0.1713,
      "velocity": 95,
      "chip": "ym2612"
    },
    {
      "channel": 2,
      "note": 88,
      "start": 8.9758,
      "duration": 0.0518,
      "velocity": 92,
      "chip": "ym2612"
    },
    {
      "channel": 3,
      "note": 79,
      "start": 8.9765,
      "duration": 0.0518,
      "velocity": 92,
      "chip": "ym2612"
    },
    {
      "channel": 2,
      "note": 88,
      "start": 9.0281,
      "duration": 0.1189,
      "velocity": 92,
      "chip": "ym2612"
    },
    {
      "channel": 3,
      "note": 79,
      "start": 9.0288,
      "duration": 0.1189,
      "velocity": 92,
      "chip": "ym2612"
    },
    {
      "channel": 1,
      "note": 60,
      "start": 9.1469,
      "duration": 0.1718,
      "velocity": 95,
      "chip": "ym2612"
    },
    {
      "channel": 2,
      "note": 86,
      "start": 9.1476,
      "duration": 0.0519,
      "velocity": 92,
      "chip": "ym2612"
    },
    {
      "channel": 3,
      "note": 77,
      "start": 9.1483,
      "duration": 0.0519,
      "velocity": 92,
      "chip": "ym2612"
    },
    {
      "channel": 2,
      "note": 88,
      "start": 9.2001,
      "duration": 0.1192,
      "velocity": 92,
      "chip": "ym2612"
    },
    {
      "channel": 3,
      "note": 79,
      "start": 9.2008,
      "duration": 0.1188,
      "velocity": 92,
      "chip": "ym2612"
    },
    {
      "channel": 0,
      "note": 83,
      "start": 9.3185,
      "duration": 0.3561,
      "velocity": 102,
      "chip": "ym2612"
    },
    {
      "channel": 1,
      "note": 60,
      "start": 9.3191,
      "duration": 0.05,
      "velocity": 95,
      "chip": "ym2612"
    },
    {
      "channel": 4,
      "note": 83,
      "start": 9.3597,
      "duration": 0.4828,
      "velocity": 102,
      "chip": "ym2612"
    },
    {
      "channel": 1,
      "note": 60,
      "start": 9.3697,
      "duration": 0.1192,
      "velocity": 95,
      "chip": "ym2612"
    },
    {
      "channel": 2,
      "note": 88,
      "start": 9.3704,
      "duration": 0.0274,
      "velocity": 92,
      "chip": "ym2612"
    },
    {
      "channel": 3,
      "note": 79,
      "start": 9.3711,
      "duration": 0.027,
      "velocity": 92,
      "chip": "ym2612"
    },
    {
      "channel": 1,
      "note": 60,
      "start": 9.4893,
      "duration": 0.186,
      "velocity": 95,
      "chip": "ym2612"
    },
    {
      "channel": 2,
      "note": 88,
      "start": 9.5424,
      "duration": 0.3692,
      "velocity": 92,
      "chip": "ym2612"
    },
    {
      "channel": 3,
      "note": 79,
      "start": 9.5431,
      "duration": 0.3692,
      "velocity": 92,
      "chip": "ym2612"
    },
    {
      "channel": 0,
      "note": 79,
      "start": 9.6752,
      "duration": 0.235,
      "velocity": 102,
      "chip": "ym2612"
    },
    {
      "channel": 1,
      "note": 60,
      "start": 9.6759,
      "duration": 0.2351,
      "velocity": 95,
      "chip": "ym2612"
    },
    {
      "channel": 4,
      "note": 79,
      "start": 9.8432,
      "duration": 0.1094,
      "velocity": 102,
      "chip": "ym2612"
    },
    {
      "channel": 0,
      "note": 91,
      "start": 9.9108,
      "duration": 0.2227,
      "velocity": 102,
      "chip": "ym2612"
    },
    {
      "channel": 1,
      "note": 60,
      "start": 9.9115,
      "duration": 0.0559,
      "velocity": 95,
      "chip": "ym2612"
    },
    {
      "channel": 2,
      "note": 88,
      "start": 9.9122,
      "duration": 0.0559,
      "velocity": 92,
      "chip": "ym2612"
    },
    {
      "channel": 3,
      "note": 79,
      "start": 9.9129,
      "duration": 0.0559,
      "velocity": 92,
      "chip": "ym2612"
    },
    {
      "channel": 4,
      "note": 91,
      "start": 9.9532,
      "duration": 0.3477,
      "velocity": 102,
      "chip": "ym2612"
    },
    {
      "channel": 1,
      "note": 60,
      "start": 9.968,
      "duration": 0.1132,
      "velocity": 95,
      "chip": "ym2612"
    },
    {
      "channel": 2,
      "note": 86,
      "start": 9.9687,
      "duration": 0.0273,
      "velocity": 92,
      "chip": "ym2612"
    },
    {
      "channel": 3,
      "note": 77,
      "start": 9.9694,
      "duration": 0.0273,
      "velocity": 92,
      "chip": "ym2612"
    },
    {
      "channel": 2,
      "note": 88,
      "start": 9.9966,
      "duration": 0.0852,
      "velocity": 92,
      "chip": "ym2612"
    },
    {
      "channel": 3,
      "note": 79,
      "start": 9.9973,
      "duration": 0.0848,
      "velocity": 92,
      "chip": "ym2612"
    },
    {
      "channel": 1,
      "note": 60,
      "start": 10.0817,
      "duration": 0.1693,
      "velocity": 95,
      "chip": "ym2612"
    },
    {
      "channel": 0,
      "note": 89,
      "start": 10.2509,
      "duration": 0.1456,
      "velocity": 102,
      "chip": "ym2612"
    },
    {
      "channel": 1,
      "note": 60,
      "start": 10.2515,
      "duration": 0.1458,
      "velocity": 95,
      "chip": "ym2612"
    },
    {
      "channel": 4,
      "note": 89,
      "start": 10.3807,
      "duration": 0.0524,
      "velocity": 102,
      "chip": "ym2612"
    },
    {
      "channel": 0,
      "note": 88,
      "start": 10.3971,
      "duration": 0.1699,
      "velocity": 102,
      "chip": "ym2612"
    },
    {
      "channel": 1,
      "note": 60,
      "start": 10.3978,
      "duration": 0.0488,
      "velocity": 95,
      "chip": "ym2612"
    },
    {
      "channel": 4,
      "note": 88,
      "start": 10.4337,
      "duration": 0.2369,
      "velocity": 102,
      "chip": "ym2612"
    },
    {
      "channel": 1,
      "note": 60,
      "start": 10.4471,
      "duration": 0.1206,
      "velocity": 95,
      "chip": "ym2612"
    },
    {
      "channel": 0,
      "note": 89,
      "start": 10.5676,
      "duration": 0.4045,
      "velocity": 102,
      "chip": "ym2612"
    },
    {
      "channel": 1,
      "note": 65,
      "start": 10.5683,
      "duration": 0.1686,
      "velocity": 95,
      "chip": "ym2612"
    },
    {
      "channel": 4,
      "note": 89,
      "start": 10.6713,
      "duration": 0.3404,
      "velocity": 102,
      "chip": "ym2612"
    },
    {
      "channel": 1,
      "note": 65,
      "start": 10.7375,
      "duration": 0.2354,
      "velocity": 95,
      "chip": "ym2612"
    },
    {
      "channel": 2,
      "note": 89,
      "start": 10.7382,
      "duration": 0.1156,
      "velocity": 92,
      "chip": "ym2612"
    },
    {
      "channel": 3,
      "note": 81,
      "start": 10.7389,
      "duration": 0.1152,
      "velocity": 92,
      "chip": "ym2612"
    },
    {
      "channel": 0,
      "note": 91,
      "start": 10.9728,
      "duration": 0.0534,
      "velocity": 102,
      "chip": "ym2612"
    },
    {
      "channel": 1,
      "note": 65,
      "start": 10.9734,
      "duration": 0.0535,
      "velocity": 95,
      "chip": "ym2612"
    },
    {
      "channel": 2,
      "note": 89,
      "start": 10.9989,
      "duration": 0.1451,
      "velocity": 92,
      "chip": "ym2612"
    },
    {
      "channel": 3,
      "note": 81,
      "start": 10.9996,
      "duration": 0.1451,
      "velocity": 92,
      "chip": "ym2612"
    },
    {
      "channel": 4,
      "note": 91,
      "start": 11.0123,
      "duration": 0.0629,
      "velocity": 102,
      "chip": "ym2612"
    },
    {
      "channel": 0,
      "note": 84,
      "start": 11.0268,
      "duration": 0.1689,
      "velocity": 102,
      "chip": "ym2612"
    },
    {
      "channel": 1,
      "note": 65,
      "start": 11.0275,
      "duration": 0.1159,
      "velocity": 95,
      "chip": "ym2612"
    },
    {
      "channel": 4,
      "note": 84,
      "start": 11.0759,
      "duration": 0.2541,
      "velocity": 102,
      "chip": "ym2612"
    },
    {
      "channel": 1,
      "note": 65,
      "start": 11.1439,
      "duration": 0.1717,
      "velocity": 95,
      "chip": "ym2612"
    },
    {
      "channel": 2,
      "note": 89,
      "start": 11.1446,
      "duration": 0.0518,
      "velocity": 92,
      "chip": "ym2612"
    },
    {
      "channel": 3,
      "note": 81,
      "start": 11.1453,
      "duration": 0.0518,
      "velocity": 92,
      "chip": "ym2612"
    },
    {
      "channel": 2,
      "note": 89,
      "start": 11.1969,
      "duration": 0.1193,
      "velocity": 92,
      "chip": "ym2612"
    },
    {
      "channel": 3,
      "note": 81,
      "start": 11.1976,
      "duration": 0.1193,
      "velocity": 92,
      "chip": "ym2612"
    },
    {
      "channel": 0,
      "note": 81,
      "start": 11.3154,
      "duration": 0.1713,
      "velocity": 102,
      "chip": "ym2612"
    },
    {
      "channel": 1,
      "note": 65,
      "start": 11.3161,
      "duration": 0.1714,
      "velocity": 95,
      "chip": "ym2612"
    },
    {
      "channel": 2,
      "note": 88,
      "start": 11.3168,
      "duration": 0.0515,
      "velocity": 92,
      "chip": "ym2612"
    },
    {
      "channel": 3,
      "note": 81,
      "start": 11.3175,
      "duration": 0.0515,
      "velocity": 92,
      "chip": "ym2612"
    },
    {
      "channel": 2,
      "note": 89,
      "start": 11.3688,
      "duration": 0.1193,
      "velocity": 92,
      "chip": "ym2612"
    },
    {
      "channel": 3,
      "note": 81,
      "start": 11.3695,
      "duration": 0.1189,
      "velocity": 92,
      "chip": "ym2612"
    },
    {
      "channel": 4,
      "note": 81,
      "start": 11.4197,
      "duration": 0.1042,
      "velocity": 102,
      "chip": "ym2612"
    },
    {
      "channel": 0,
      "note": 84,
      "start": 11.4873,
      "duration": 0.17,
      "velocity": 102,
      "chip": "ym2612"
    },
    {
      "channel": 1,
      "note": 65,
      "start": 11.488,
      "duration": 0.0495,
      "velocity": 95,
      "chip": "ym2612"
    },
    {
      "channel": 4,
      "note": 84,
      "start": 11.5245,
      "duration": 0.237,
      "velocity": 102,
      "chip": "ym2612"
    },
    {
      "channel": 1,
      "note": 65,
      "start": 11.538,
      "duration": 0.12,
      "velocity": 95,
      "chip": "ym2612"
    },
    {
      "channel": 2,
      "note": 89,
      "start": 11.5387,
      "duration": 0.0276,
      "velocity": 92,
      "chip": "ym2612"
    },
    {
      "channel": 3,
      "note": 81,
      "start": 11.5394,
      "duration": 0.0272,
      "velocity": 92,
      "chip": "ym2612"
    },
    {
      "channel": 0,
      "note": 91,
      "start": 11.6579,
      "duration": 0.1689,
      "velocity": 102,
      "chip": "ym2612"
    },
    {
      "channel": 1,
      "note": 65,
      "start": 11.6586,
      "duration": 0.169,
      "velocity": 95,
      "chip": "ym2612"
    },
    {
      "channel": 2,
      "note": 89,
      "start": 11.7112,
      "duration": 0.3526,
      "velocity": 92,
      "chip": "ym2612"
    },
    {
      "channel": 3,
      "note": 81,
      "start": 11.712,
      "duration": 0.3526,
      "velocity": 92,
      "chip": "ym2612"
    },
    {
      "channel": 4,
      "note": 91,
      "start": 11.7621,
      "duration": 0.2327,
      "velocity": 102,
      "chip": "ym2612"
    },
    {
      "channel": 0,
      "note": 89,
      "start": 11.8274,
      "duration": 0.2351,
      "velocity": 102,
      "chip": "ym2612"
    },
    {
      "channel": 1,
      "note": 65,
      "start": 11.8281,
      "duration": 0.2351,
      "velocity": 95,
      "chip": "ym2612"
    },
    {
      "channel": 4,
      "note": 89,
      "start": 11.9954,
      "duration": 0.1094,
      "velocity": 102,
      "chip": "ym2612"
    },
    {
      "channel": 0,
      "note": 84,
      "start": 12.0631,
      "duration": 0.0561,
      "velocity": 102,
      "chip": "ym2612"
    },
    {
      "channel": 1,
      "note": 65,
      "start": 12.0637,
      "duration": 0.0563,
      "velocity": 95,
      "chip": "ym2612"
    },
    {
      "channel": 2,
      "note": 89,
      "start": 12.0644,
      "duration": 0.0562,
      "velocity": 92,
      "chip": "ym2612"
    },
    {
      "channel": 3,
      "note": 81,
      "start": 12.0651,
      "duration": 0.0562,
      "velocity": 92,
      "chip": "ym2612"
    },
    {
      "channel": 4,
      "note": 84,
      "start": 12.1054,
      "duration": 0.0765,
      "velocity": 102,
      "chip": "ym2612"
    },
    {
      "channel": 0,
      "note": 81,
      "start": 12.1199,
      "duration": 0.4017,
      "velocity": 102,
      "chip": "ym2612"
    },
    {
      "channel": 1,
      "note": 65,
      "start": 12.1205,
      "duration": 0.1129,
      "velocity": 95,
      "chip": "ym2612"
    },
    {
      "channel": 2,
      "note": 88,
      "start": 12.1212,
      "duration": 0.0268,
      "velocity": 92,
      "chip": "ym2612"
    },
    {
      "channel": 3,
      "note": 81,
      "start": 12.1219,
      "duration": 0.0268,
      "velocity": 92,
      "chip": "ym2612"
    },
    {
      "channel": 2,
      "note": 89,
      "start": 12.1485,
      "duration": 0.0855,
      "velocity": 92,
      "chip": "ym2612"
    },
    {
      "channel": 3,
      "note": 81,
      "start": 12.1493,
      "duration": 0.0851,
      "velocity": 92,
      "chip": "ym2612"
    },
    {
      "channel": 4,
      "note": 81,
      "start": 12.1826,
      "duration": 0.3805,
      "velocity": 102,
      "chip": "ym2612"
    },
    {
      "channel": 1,
      "note": 65,
      "start": 12.2339,
      "duration": 0.1691,
      "velocity": 95,
      "chip": "ym2612"
    },
    {
      "channel": 1,
      "note": 65,
      "start": 12.4036,
      "duration": 0.1441,
      "velocity": 95,
      "chip": "ym2612"
    },
    {
      "channel": 0,
      "note": 81,
      "start": 12.5475,
      "duration": 0.0473,
      "velocity": 102,
      "chip": "ym2612"
    },
    {
      "channel": 1,
      "note": 65,
      "start": 12.5482,
      "duration": 0.0474,
      "velocity": 95,
      "chip": "ym2612"
    },
    {
      "channel": 4,
      "note": 81,
      "start": 12.5859,
      "duration": 0.0798,
      "velocity": 102,
      "chip": "ym2612"
    },
    {
      "channel": 0,
      "note": 84,
      "start": 12.5954,
      "duration": 0.1219,
      "velocity": 102,
      "chip": "ym2612"
    },
    {
      "channel": 1,
      "note": 65,
      "start": 12.5961,
      "duration": 0.122,
      "velocity": 95,
      "chip": "ym2612"
    },
    {
      "channel": 4,
      "note": 84,
      "start": 12.6663,
      "duration": 0.1712,
      "velocity": 102,
      "chip": "ym2612"
    },
    {
      "channel": 0,
      "note": 81,
      "start": 12.7179,
      "duration": 0.5751,
      "velocity": 102,
      "chip": "ym2612"
    },
    {
      "channel": 1,
      "note": 62,
      "start": 12.7186,
      "duration": 0.1685,
      "velocity": 95,
      "chip": "ym2612"
    },
    {
      "channel": 4,
      "note": 81,
      "start": 12.8382,
      "duration": 0.5756,
      "velocity": 102,
      "chip": "ym2612"
    },
    {
      "channel": 1,
      "note": 62,
      "start": 12.8877,
      "duration": 0.2351,
      "velocity": 95,
      "chip": "ym2612"
    },
    {
      "channel": 2,
      "note": 89,
      "start": 12.8884,
      "duration": 0.1156,
      "velocity": 92,
      "chip": "ym2612"
    },
    {
      "channel": 3,
      "note": 81,
      "start": 12.8891,
      "duration": 0.1152,
      "velocity": 92,
      "chip": "ym2612"
    },
    {
      "channel": 1,
      "note": 62,
      "start": 13.1233,
      "duration": 0.0535,
      "velocity": 95,
      "chip": "ym2612"
    },
    {
      "channel": 2,
      "note": 89,
      "start": 13.1493,
      "duration": 0.1452,
      "velocity": 92,
      "chip": "ym2612"
    },
    {
      "channel": 3,
      "note": 81,
      "start": 13.15,
      "duration": 0.1452,
      "velocity": 92,
      "chip": "ym2612"
    },
    {
      "channel": 1,
      "note": 62,
      "start": 13.1774,
      "duration": 0.1163,
      "velocity": 95,
      "chip": "ym2612"
    },
    {
      "channel": 0,
      "note": 81,
      "start": 13.2937,
      "duration": 0.224,
      "velocity": 102,
      "chip": "ym2612"
    },
    {
      "channel": 1,
      "note": 62,
      "start": 13.2943,
      "duration": 0.1709,
      "velocity": 95,
      "chip": "ym2612"
    },
    {
      "channel": 2,
      "note": 89,
      "start": 13.295,
      "duration": 0.0514,
      "velocity": 92,
      "chip": "ym2612"
    },
    {
      "channel": 3,
      "note": 81,
      "start": 13.2957,
      "duration": 0.0514,
      "velocity": 92,
      "chip": "ym2612"
    },
    {
      "channel": 2,
      "note": 89,
      "start": 13.3469,
      "duration": 0.119,
      "velocity": 92,
      "chip": "ym2612"
    },
    {
      "channel": 3,
      "note": 81,
      "start": 13.3476,
      "duration": 0.119,
      "velocity": 92,
      "chip": "ym2612"
    },
    {
      "channel": 4,
      "note": 81,
      "start": 13.4144,
      "duration": 0.2392,
      "velocity": 102,
      "chip": "ym2612"
    },
    {
      "channel": 1,
      "note": 62,
      "start": 13.4658,
      "duration": 0.1713,
      "velocity": 95,
      "chip": "ym2612"
    },
    {
      "channel": 2,
      "note": 88,
      "start": 13.4665,
      "duration": 0.0523,
      "velocity": 92,
      "chip": "ym2612"
    },
    {
      "channel": 3,
      "note": 81,
      "start": 13.4672,
      "duration": 0.0523,
      "velocity": 92,
      "chip": "ym2612"
    },
    {
      "channel": 0,
      "note": 84,
      "start": 13.5183,
      "duration": 0.1689,
      "velocity": 102,
      "chip": "ym2612"
    },
    {
      "channel": 2,
      "note": 89,
      "start": 13.5193,
      "duration": 0.1184,
      "velocity": 92,
      "chip": "ym2612"
    },
    {
      "channel": 3,
      "note": 81,
      "start": 13.52,
      "duration": 0.118,
      "velocity": 92,
      "chip": "ym2612"
    },
    {
      "channel": 1,
      "note": 62,
      "start": 13.6376,
      "duration": 0.0504,
      "velocity": 95,
      "chip": "ym2612"
    },
    {
      "channel": 4,
      "note": 84,
      "start": 13.6542,
      "duration": 0.1015,
      "velocity": 102,
      "chip": "ym2612"
    },
    {
      "channel": 0,
      "note": 81,
      "start": 13.6879,
      "duration": 0.1194,
      "velocity": 102,
      "chip": "ym2612"
    },
    {
      "channel": 1,
      "note": 62,
      "start": 13.6885,
      "duration": 0.1196,
      "velocity": 95,
      "chip": "ym2612"
    },
    {
      "channel": 2,
      "note": 89,
      "start": 13.6892,
      "duration": 0.0274,
      "velocity": 92,
      "chip": "ym2612"
    },
    {
      "channel": 3,
      "note": 81,
      "start": 13.6899,
      "duration": 0.027,
      "velocity": 92,
      "chip": "ym2612"
    },
    {
      "channel": 4,
      "note": 81,
      "start": 13.7564,
      "duration": 0.1717,
      "velocity": 102,
      "chip": "ym2612"
    },
    {
      "channel": 0,
      "note": 83,
      "start": 13.8079,
      "duration": 0.5752,
      "velocity": 102,
      "chip": "ym2612"
    },
    {
      "channel": 1,
      "note": 67,
      "start": 13.8086,
      "duration": 0.1687,
      "velocity": 95,
      "chip": "ym2612"
    },
    {
      "channel": 2,
      "note": 89,
      "start": 13.8613,
      "duration": 0.3523,
      "velocity": 92,
      "chip": "ym2612"
    },
    {
      "channel": 3,
      "note": 81,
      "start": 13.862,
      "duration": 0.3523,
      "velocity": 92,
      "chip": "ym2612"
    },
    {
      "channel": 4,
      "note": 83,
      "start": 13.9287,
      "duration": 0.5747,
      "velocity": 102,
      "chip": "ym2612"
    },
    {
      "channel": 1,
      "note": 67,
      "start": 13.9778,
      "duration": 0.2351,
      "velocity": 95,
      "chip": "ym2612"
    },
    {
      "channel": 1,
      "note": 67,
      "start": 14.2134,
      "duration": 0.0569,
      "velocity": 95,
      "chip": "ym2612"
    },
    {
      "channel": 2,
      "note": 89,
      "start": 14.2141,
      "duration": 0.0569,
      "velocity": 92,
      "chip": "ym2612"
    },
    {
      "channel": 3,
      "note": 81,
      "start": 14.2149,
      "duration": 0.0569,
      "velocity": 92,
      "chip": "ym2612"
    },
    {
      "channel": 1,
      "note": 67,
      "start": 14.2709,
      "duration": 0.113,
      "velocity": 95,
      "chip": "ym2612"
    },
    {
      "channel": 2,
      "note": 88,
      "start": 14.2716,
      "duration": 0.0277,
      "velocity": 92,
      "chip": "ym2612"
    },
    {
      "channel": 3,
      "note": 81,
      "start": 14.2723,
      "duration": 0.0277,
      "velocity": 92,
      "chip": "ym2612"
    },
    {
      "channel": 2,
      "note": 89,
      "start": 14.2999,
      "duration": 0.0846,
      "velocity": 92,
      "chip": "ym2612"
    },
    {
      "channel": 3,
      "note": 81,
      "start": 14.3006,
      "duration": 0.0842,
      "velocity": 92,
      "chip": "ym2612"
    },
    {
      "channel": 0,
      "note": 79,
      "start": 14.3838,
      "duration": 0.332,
      "velocity": 102,
      "chip": "ym2612"
    },
    {
      "channel": 1,
      "note": 67,
      "start": 14.3844,
      "duration": 0.1686,
      "velocity": 95,
      "chip": "ym2612"
    },
    {
      "channel": 4,
      "note": 79,
      "start": 14.504,
      "duration": 0.2487,
      "velocity": 102,
      "chip": "ym2612"
    },
    {
      "channel": 1,
      "note": 67,
      "start": 14.5536,
      "duration": 0.1629,
      "velocity": 95,
      "chip": "ym2612"
    },
    {
      "channel": 0,
      "note": 86,
      "start": 14.7164,
      "duration": 0.1698,
      "velocity": 102,
      "chip": "ym2612"
    },
    {
      "channel": 1,
      "note": 65,
      "start": 14.717,
      "duration": 0.0491,
      "velocity": 95,
      "chip": "ym2612"
    },
    {
      "channel": 4,
      "note": 86,
      "start": 14.7534,
      "duration": 0.2364,
      "velocity": 102,
      "chip": "ym2612"
    },
    {
      "channel": 1,
      "note": 67,
      "start": 14.7668,
      "duration": 0.1203,
      "velocity": 95,
      "chip": "ym2612"
    },
    {
      "channel": 0,
      "note": 86,
      "start": 14.8869,
      "duration": 0.1687,
      "velocity": 102,
      "chip": "ym2612"
    },
    {
      "channel": 1,
      "note": 60,
      "start": 14.8876,
      "duration": 0.1688,
      "velocity": 95,
      "chip": "ym2612"
    },
    {
      "channel": 4,
      "note": 86,
      "start": 14.9905,
      "duration": 0.2326,
      "velocity": 102,
      "chip": "ym2612"
    },
    {
      "channel": 0,
      "note": 84,
      "start": 15.0562,
      "duration": 0.2351,
      "velocity": 102,
      "chip": "ym2612"
    },
    {
      "channel": 1,
      "note": 60,
      "start": 15.0569,
      "duration": 0.2351,
      "velocity": 95,
      "chip": "ym2612"
    },
    {
      "channel": 2,
      "note": 88,
      "start": 15.0576,
      "duration": 0.1152,
      "velocity": 92,
      "chip": "ym2612"
    },
    {
      "channel": 3,
      "note": 79,
      "start": 15.0583,
      "duration": 0.1148,
      "velocity": 92,
      "chip": "ym2612"
    },
    {
      "channel": 4,
      "note": 84,
      "start": 15.2237,
      "duration": 0.1066,
      "velocity": 102,
      "chip": "ym2612"
    },
    {
      "channel": 0,
      "note": 86,
      "start": 15.2919,
      "duration": 0.0529,
      "velocity": 102,
      "chip": "ym2612"
    },
    {
      "channel": 1,
      "note": 60,
      "start": 15.2925,
      "duration": 0.053,
      "velocity": 95,
      "chip": "ym2612"
    },
    {
      "channel": 2,
      "note": 88,
      "start": 15.3175,
      "duration": 0.1456,
      "velocity": 92,
      "chip": "ym2612"
    },
    {
      "channel": 3,
      "note": 79,
      "start": 15.3182,
      "duration": 0.1456,
      "velocity": 92,
      "chip": "ym2612"
    },
    {
      "channel": 4,
      "note": 86,
      "start": 15.3309,
      "duration": 0.0633,
      "velocity": 102,
      "chip": "ym2612"
    },
    {
      "channel": 0,
      "note": 88,
      "start": 15.3454,
      "duration": 1.3401,
      "velocity": 93,
      "chip": "ym2612"
    },
    {
      "channel": 1,
      "note": 60,
      "start": 15.346,
      "duration": 0.1163,
      "velocity": 95,
      "chip": "ym2612"
    },
    {
      "channel": 4,
      "note": 88,
      "start": 15.3949,
      "duration": 1.4107,
      "velocity": 93,
      "chip": "ym2612"
    },
    {
      "channel": 1,
      "note": 60,
      "start": 15.4629,
      "duration": 0.1691,
      "velocity": 95,
      "chip": "ym2612"
    },
    {
      "channel": 2,
      "note": 88,
      "start": 15.4636,
      "duration": 0.0518,
      "velocity": 92,
      "chip": "ym2612"
    },
    {
      "channel": 3,
      "note": 79,
      "start": 15.4643,
      "duration": 0.0518,
      "velocity": 92,
      "chip": "ym2612"
    },
    {
      "channel": 2,
      "note": 88,
      "start": 15.516,
      "duration": 0.1166,
      "velocity": 92,
      "chip": "ym2612"
    },
    {
      "channel": 3,
      "note": 79,
      "start": 15.5167,
      "duration": 0.1166,
      "velocity": 92,
      "chip": "ym2612"
    },
    {
      "channel": 1,
      "note": 60,
      "start": 15.6324,
      "duration": 0.2351,
      "velocity": 95,
      "chip": "ym2612"
    },
    {
      "channel": 2,
      "note": 86,
      "start": 15.6332,
      "duration": 0.1156,
      "velocity": 92,
      "chip": "ym2612"
    },
    {
      "channel": 3,
      "note": 77,
      "start": 15.6339,
      "duration": 0.1156,
      "velocity": 92,
      "chip": "ym2612"
    },
    {
      "channel": 2,
      "note": 88,
      "start": 15.7493,
      "duration": 0.1189,
      "velocity": 92,
      "chip": "ym2612"
    },
    {
      "channel": 3,
      "note": 79,
      "start": 15.75,
      "duration": 0.1185,
      "velocity": 92,
      "chip": "ym2612"
    },
    {
      "channel": 1,
      "note": 60,
      "start": 15.8681,
      "duration": 0.0503,
      "velocity": 95,
      "chip": "ym2612"
    },
    {
      "channel": 1,
      "note": 60,
      "start": 15.9189,
      "duration": 0.1193,
      "velocity": 95,
      "chip": "ym2612"
    },
    {
      "channel": 2,
      "note": 88,
      "start": 15.9196,
      "duration": 0.028,
      "velocity": 92,
      "chip": "ym2612"
    },
    {
      "channel": 3,
      "note": 79,
      "start": 15.9203,
      "duration": 0.0276,
      "velocity": 92,
      "chip": "ym2612"
    },
    {
      "channel": 1,
      "note": 60,
      "start": 16.0388,
      "duration": 0.171,
      "velocity": 95,
      "chip": "ym2612"
    },
    {
      "channel": 2,
      "note": 88,
      "start": 16.0917,
      "duration": 0.1795,
      "velocity": 92,
      "chip": "ym2612"
    },
    {
      "channel": 3,
      "note": 79,
      "start": 16.0924,
      "duration": 0.1795,
      "velocity": 92,
      "chip": "ym2612"
    },
    {
      "channel": 1,
      "note": 60,
      "start": 16.2104,
      "duration": 0.0602,
      "velocity": 95,
      "chip": "ym2612"
    },
    {
      "channel": 1,
      "note": 60,
      "start": 16.2711,
      "duration": 0.0832,
      "velocity": 95,
      "chip": "ym2612"
    },
    {
      "channel": 2,
      "note": 88,
      "start": 16.2718,
      "duration": 0.0832,
      "velocity": 92,
      "chip": "ym2612"
    },
    {
      "channel": 3,
      "note": 79,
      "start": 16.2725,
      "duration": 0.0832,
      "velocity": 92,
      "chip": "ym2612"
    },
    {
      "channel": 1,
      "note": 60,
      "start": 16.3549,
      "duration": 0.0868,
      "velocity": 95,
      "chip": "ym2612"
    },
    {
      "channel": 2,
      "note": 86,
      "start": 16.3556,
      "duration": 0.0312,
      "velocity": 92,
      "chip": "ym2612"
    },
    {
      "channel": 3,
      "note": 77,
      "start": 16.3563,
      "duration": 0.0312,
      "velocity": 92,
      "chip": "ym2612"
    },
    {
      "channel": 2,
      "note": 88,
      "start": 16.3874,
      "duration": 0.055,
      "velocity": 92,
      "chip": "ym2612"
    },
    {
      "channel": 3,
      "note": 79,
      "start": 16.3881,
      "duration": 0.0546,
      "velocity": 92,
      "chip": "ym2612"
    },
    {
      "channel": 1,
      "note": 60,
      "start": 16.4422,
      "duration": 0.0797,
      "velocity": 95,
      "chip": "ym2612"
    },
    {
      "channel": 1,
      "note": 60,
      "start": 16.5224,
      "duration": 0.0539,
      "velocity": 95,
      "chip": "ym2612"
    },
    {
      "channel": 1,
      "note": 60,
      "start": 16.5768,
      "duration": 0.0518,
      "velocity": 95,
      "chip": "ym2612"
    },
    {
      "channel": 1,
      "note": 60,
      "start": 16.6292,
      "duration": 0.0572,
      "velocity": 95,
      "chip": "ym2612"
    },
    {
      "channel": 0,
      "note": 84,
      "start": 16.6861,
      "duration": 0.456,
      "velocity": 93,
      "chip": "ym2612"
    },
    {
      "channel": 1,
      "note": 60,
      "start": 16.6868,
      "duration": 0.1658,
      "velocity": 95,
      "chip": "ym2612"
    },
    {
      "channel": 4,
      "note": 84,
      "start": 16.8062,
      "duration": 0.4013,
      "velocity": 93,
      "chip": "ym2612"
    },
    {
      "channel": 1,
      "note": 60,
      "start": 16.8532,
      "duration": 0.2351,
      "velocity": 95,
      "chip": "ym2612"
    },
    {
      "channel": 2,
      "note": 88,
      "start": 16.8539,
      "duration": 0.1156,
      "velocity": 92,
      "chip": "ym2612"
    },
    {
      "channel": 3,
      "note": 79,
      "start": 16.8546,
      "duration": 0.1152,
      "velocity": 92,
      "chip": "ym2612"
    },
    {
      "channel": 1,
      "note": 60,
      "start": 17.0889,
      "duration": 0.054,
      "velocity": 95,
      "chip": "ym2612"
    },
    {
      "channel": 2,
      "note": 88,
      "start": 17.1148,
      "duration": 0.1448,
      "velocity": 92,
      "chip": "ym2612"
    },
    {
      "channel": 3,
      "note": 79,
      "start": 17.1155,
      "duration": 0.1448,
      "velocity": 92,
      "chip": "ym2612"
    },
    {
      "channel": 0,
      "note": 88,
      "start": 17.1426,
      "duration": 0.4596,
      "velocity": 93,
      "chip": "ym2612"
    },
    {
      "channel": 1,
      "note": 60,
      "start": 17.1433,
      "duration": 0.1156,
      "velocity": 95,
      "chip": "ym2612"
    },
    {
      "channel": 4,
      "note": 88,
      "start": 17.2081,
      "duration": 0.4354,
      "velocity": 93,
      "chip": "ym2612"
    },
    {
      "channel": 1,
      "note": 60,
      "start": 17.2595,
      "duration": 0.1713,
      "velocity": 95,
      "chip": "ym2612"
    },
    {
      "channel": 2,
      "note": 88,
      "start": 17.2602,
      "duration": 0.0517,
      "velocity": 92,
      "chip": "ym2612"
    },
    {
      "channel": 3,
      "note": 79,
      "start": 17.2609,
      "duration": 0.0517,
      "velocity": 92,
      "chip": "ym2612"
    },
    {
      "channel": 2,
      "note": 88,
      "start": 17.3125,
      "duration": 0.1189,
      "velocity": 92,
      "chip": "ym2612"
    },
    {
      "channel": 3,
      "note": 79,
      "start": 17.3132,
      "duration": 0.1189,
      "velocity": 92,
      "chip": "ym2612"
    },
    {
      "channel": 1,
      "note": 60,
      "start": 17.4313,
      "duration": 0.1717,
      "velocity": 95,
      "chip": "ym2612"
    },
    {
      "channel": 2,
      "note": 86,
      "start": 17.432,
      "duration": 0.0519,
      "velocity": 92,
      "chip": "ym2612"
    },
    {
      "channel": 3,
      "note": 77,
      "start": 17.4327,
      "duration": 0.0519,
      "velocity": 92,
      "chip": "ym2612"
    },
    {
      "channel": 2,
      "note": 88,
      "start": 17.4844,
      "duration": 0.1192,
      "velocity": 92,
      "chip": "ym2612"
    },
    {
      "channel": 3,
      "note": 79,
      "start": 17.4851,
      "duration": 0.1188,
      "velocity": 92,
      "chip": "ym2612"
    },
    {
      "channel": 0,
      "note": 83,
      "start": 17.6029,
      "duration": 0.3395,
      "velocity": 93,
      "chip": "ym2612"
    },
    {
      "channel": 1,
      "note": 60,
      "start": 17.6035,
      "duration": 0.05,
      "velocity": 95,
      "chip": "ym2612"
    },
    {
      "channel": 4,
      "note": 83,
      "start": 17.6441,
      "duration": 0.4828,
      "velocity": 93,
      "chip": "ym2612"
    },
    {
      "channel": 1,
      "note": 60,
      "start": 17.6541,
      "duration": 0.1192,
      "velocity": 95,
      "chip": "ym2612"
    },
    {
      "channel": 2,
      "note": 88,
      "start": 17.6548,
      "duration": 0.0274,
      "velocity": 92,
      "chip": "ym2612"
    },
    {
      "channel": 3,
      "note": 79,
      "start": 17.6555,
      "duration": 0.027,
      "velocity": 92,
      "chip": "ym2612"
    },
    {
      "channel": 1,
      "note": 60,
      "start": 17.7738,
      "duration": 0.1693,
      "velocity": 95,
      "chip": "ym2612"
    },
    {
      "channel": 2,
      "note": 88,
      "start": 17.8268,
      "duration": 0.3525,
      "velocity": 92,
      "chip": "ym2612"
    },
    {
      "channel": 3,
      "note": 79,
      "start": 17.8276,
      "duration": 0.3525,
      "velocity": 92,
      "chip": "ym2612"
    },
    {
      "channel": 0,
      "note": 79,
      "start": 17.943,
      "duration": 0.235,
      "velocity": 93,
      "chip": "ym2612"
    },
    {
      "channel": 1,
      "note": 60,
      "start": 17.9436,
      "duration": 0.2351,
      "velocity": 95,
      "chip": "ym2612"
    },
    {
      "channel": 4,
      "note": 79,
      "start": 18.1276,
      "duration": 0.0967,
      "velocity": 93,
      "chip": "ym2612"
    },
    {
      "channel": 0,
      "note": 91,
      "start": 18.1786,
      "duration": 0.2228,
      "velocity": 93,
      "chip": "ym2612"
    },
    {
      "channel": 1,
      "note": 60,
      "start": 18.1793,
      "duration": 0.0559,
      "velocity": 95,
      "chip": "ym2612"
    },
    {
      "channel": 2,
      "note": 88,
      "start": 18.18,
      "duration": 0.0559,
      "velocity": 92,
      "chip": "ym2612"
    },
    {
      "channel": 3,
      "note": 79,
      "start": 18.1807,
      "duration": 0.0559,
      "velocity": 92,
      "chip": "ym2612"
    },
    {
      "channel": 4,
      "note": 91,
      "start": 18.2249,
      "duration": 0.3606,
      "velocity": 93,
      "chip": "ym2612"
    },
    {
      "channel": 1,
      "note": 60,
      "start": 18.2358,
      "duration": 0.1133,
      "velocity": 95,
      "chip": "ym2612"
    },
    {
      "channel": 2,
      "note": 86,
      "start": 18.2365,
      "duration": 0.0273,
      "velocity": 92,
      "chip": "ym2612"
    },
    {
      "channel": 3,
      "note": 77,
      "start": 18.2372,
      "duration": 0.0273,
      "velocity": 92,
      "chip": "ym2612"
    },
    {
      "channel": 2,
      "note": 88,
      "start": 18.2643,
      "duration": 0.0854,
      "velocity": 92,
      "chip": "ym2612"
    },
    {
      "channel": 3,
      "note": 79,
      "start": 18.265,
      "duration": 0.085,
      "velocity": 92,
      "chip": "ym2612"
    },
    {
      "channel": 1,
      "note": 60,
      "start": 18.3496,
      "duration": 0.1693,
      "velocity": 95,
      "chip": "ym2612"
    },
    {
      "channel": 0,
      "note": 89,
      "start": 18.5188,
      "duration": 0.1457,
      "velocity": 93,
      "chip": "ym2612"
    },
    {
      "channel": 1,
      "note": 60,
      "start": 18.5194,
      "duration": 0.1458,
      "velocity": 95,
      "chip": "ym2612"
    },
    {
      "channel": 4,
      "note": 89,
      "start": 18.6519,
      "duration": 0.0529,
      "velocity": 93,
      "chip": "ym2612"
    },
    {
      "channel": 0,
      "note": 88,
      "start": 18.6651,
      "duration": 0.1701,
      "velocity": 93,
      "chip": "ym2612"
    },
    {
      "channel": 1,
      "note": 60,
      "start": 18.6657,
      "duration": 0.049,
      "velocity": 95,
      "chip": "ym2612"
    },
    {
      "channel": 4,
      "note": 88,
      "start": 18.7054,
      "duration": 0.25,
      "velocity": 93,
      "chip": "ym2612"
    },
    {
      "channel": 1,
      "note": 60,
      "start": 18.7153,
      "duration": 0.1206,
      "velocity": 95,
      "chip": "ym2612"
    },
    {
      "channel": 0,
      "note": 89,
      "start": 18.8358,
      "duration": 0.4212,
      "velocity": 93,
      "chip": "ym2612"
    },
    {
      "channel": 1,
      "note": 65,
      "start": 18.8365,
      "duration": 0.1686,
      "velocity": 95,
      "chip": "ym2612"
    },
    {
      "channel": 4,
      "note": 89,
      "start": 18.9561,
      "duration": 0.3404,
      "velocity": 93,
      "chip": "ym2612"
    },
    {
      "channel": 1,
      "note": 65,
      "start": 19.0056,
      "duration": 0.2521,
      "velocity": 95,
      "chip": "ym2612"
    },
    {
      "channel": 2,
      "note": 89,
      "start": 19.0063,
      "duration": 0.1156,
      "velocity": 92,
      "chip": "ym2612"
    },
    {
      "channel": 3,
      "note": 81,
      "start": 19.007,
      "duration": 0.1152,
      "velocity": 92,
      "chip": "ym2612"
    },
    {
      "channel": 0,
      "note": 91,
      "start": 19.2576,
      "duration": 0.0534,
      "velocity": 93,
      "chip": "ym2612"
    },
    {
      "channel": 1,
      "note": 65,
      "start": 19.2582,
      "duration": 0.0535,
      "velocity": 95,
      "chip": "ym2612"
    },
    {
      "channel": 2,
      "note": 89,
      "start": 19.2838,
      "duration": 0.145,
      "velocity": 92,
      "chip": "ym2612"
    },
    {
      "channel": 3,
      "note": 81,
      "start": 19.2845,
      "duration": 0.145,
      "velocity": 92,
      "chip": "ym2612"
    },
    {
      "channel": 4,
      "note": 91,
      "start": 19.2971,
      "duration": 0.0629,
      "velocity": 93,
      "chip": "ym2612"
    },
    {
      "channel": 0,
      "note": 84,
      "start": 19.3116,
      "duration": 0.1689,
      "velocity": 93,
      "chip": "ym2612"
    },
    {
      "channel": 1,
      "note": 65,
      "start": 19.3122,
      "duration": 0.1159,
      "velocity": 95,
      "chip": "ym2612"
    },
    {
      "channel": 4,
      "note": 84,
      "start": 19.3607,
      "duration": 0.2541,
      "velocity": 93,
      "chip": "ym2612"
    },
    {
      "channel": 1,
      "note": 65,
      "start": 19.4287,
      "duration": 0.1716,
      "velocity": 95,
      "chip": "ym2612"
    },
    {
      "channel": 2,
      "note": 89,
      "start": 19.4294,
      "duration": 0.0517,
      "velocity": 92,
      "chip": "ym2612"
    },
    {
      "channel": 3,
      "note": 81,
      "start": 19.4301,
      "duration": 0.0517,
      "velocity": 92,
      "chip": "ym2612"
    },
    {
      "channel": 2,
      "note": 89,
      "start": 19.4817,
      "duration": 0.1193,
      "velocity": 92,
      "chip": "ym2612"
    },
    {
      "channel": 3,
      "note": 81,
      "start": 19.4824,
      "duration": 0.1193,
      "velocity": 92,
      "chip": "ym2612"
    },
    {
      "channel": 0,
      "note": 81,
      "start": 19.6002,
      "duration": 0.1713,
      "velocity": 93,
      "chip": "ym2612"
    },
    {
      "channel": 1,
      "note": 65,
      "start": 19.6008,
      "duration": 0.1715,
      "velocity": 95,
      "chip": "ym2612"
    },
    {
      "channel": 2,
      "note": 88,
      "start": 19.6015,
      "duration": 0.0516,
      "velocity": 92,
      "chip": "ym2612"
    },
    {
      "channel": 3,
      "note": 81,
      "start": 19.6022,
      "duration": 0.0516,
      "velocity": 92,
      "chip": "ym2612"
    },
    {
      "channel": 2,
      "note": 89,
      "start": 19.6537,
      "duration": 0.1193,
      "velocity": 92,
      "chip": "ym2612"
    },
    {
      "channel": 3,
      "note": 81,
      "start": 19.6544,
      "duration": 0.1189,
      "velocity": 92,
      "chip": "ym2612"
    },
    {
      "channel": 4,
      "note": 81,
      "start": 19.7045,
      "duration": 0.1042,
      "velocity": 93,
      "chip": "ym2612"
    },
    {
      "channel": 0,
      "note": 84,
      "start": 19.7722,
      "duration": 0.1701,
      "velocity": 93,
      "chip": "ym2612"
    },
    {
      "channel": 1,
      "note": 65,
      "start": 19.7728,
      "duration": 0.0495,
      "velocity": 95,
      "chip": "ym2612"
    },
    {
      "channel": 4,
      "note": 84,
      "start": 19.8093,
      "duration": 0.237,
      "velocity": 93,
      "chip": "ym2612"
    },
    {
      "channel": 1,
      "note": 65,
      "start": 19.8229,
      "duration": 0.1201,
      "velocity": 95,
      "chip": "ym2612"
    },
    {
      "channel": 2,
      "note": 89,
      "start": 19.8236,
      "duration": 0.0276,
      "velocity": 92,
      "chip": "ym2612"
    },
    {
      "channel": 3,
      "note": 81,
      "start": 19.8243,
      "duration": 0.0272,
      "velocity": 92,
      "chip": "ym2612"
    },
    {
      "channel": 0,
      "note": 91,
      "start": 19.9429,
      "duration": 0.1689,
      "velocity": 93,
      "chip": "ym2612"
    },
    {
      "channel": 1,
      "note": 65,
      "start": 19.9435,
      "duration": 0.169,
      "velocity": 95,
      "chip": "ym2612"
    },
    {
      "channel": 2,
      "note": 89,
      "start": 19.9962,
      "duration": 0.3526,
      "velocity": 92,
      "chip": "ym2612"
    },
    {
      "channel": 3,
      "note": 81,
      "start": 19.9969,
      "duration": 0.3526,
      "velocity": 92,
      "chip": "ym2612"
    },
    {
      "channel": 4,
      "note": 91,
      "start": 20.047,
      "duration": 0.2327,
      "velocity": 93,
      "chip": "ym2612"
    },
    {
      "channel": 0,
      "note": 89,
      "start": 20.1123,
      "duration": 0.2351,
      "velocity": 93,
      "chip": "ym2612"
    },
    {
      "channel": 1,
      "note": 65,
      "start": 20.113,
      "duration": 0.2351,
      "velocity": 95,
      "chip": "ym2612"
    },
    {
      "channel": 4,
      "note": 89,
      "start": 20.2803,
      "duration": 0.1094,
      "velocity": 93,
      "chip": "ym2612"
    },
    {
      "channel": 0,
      "note": 84,
      "start": 20.348,
      "duration": 0.0562,
      "velocity": 93,
      "chip": "ym2612"
    },
    {
      "channel": 1,
      "note": 65,
      "start": 20.3486,
      "duration": 0.0563,
      "velocity": 95,
      "chip": "ym2612"
    },
    {
      "channel": 2,
      "note": 89,
      "start": 20.3493,
      "duration": 0.0562,
      "velocity": 92,
      "chip": "ym2612"
    },
    {
      "channel": 3,
      "note": 81,
      "start": 20.35,
      "duration": 0.0562,
      "velocity": 92,
      "chip": "ym2612"
    },
    {
      "channel": 4,
      "note": 84,
      "start": 20.3903,
      "duration": 0.06,
      "velocity": 93,
      "chip": "ym2612"
    },
    {
      "channel": 0,
      "note": 81,
      "start": 20.4048,
      "duration": 0.4017,
      "velocity": 93,
      "chip": "ym2612"
    },
    {
      "channel": 1,
      "note": 65,
      "start": 20.4054,
      "duration": 0.1129,
      "velocity": 95,
      "chip": "ym2612"
    },
    {
      "channel": 2,
      "note": 88,
      "start": 20.4061,
      "duration": 0.0267,
      "velocity": 92,
      "chip": "ym2612"
    },
    {
      "channel": 3,
      "note": 81,
      "start": 20.4068,
      "duration": 0.0267,
      "velocity": 92,
      "chip": "ym2612"
    },
    {
      "channel": 2,
      "note": 89,
      "start": 20.4334,
      "duration": 0.0856,
      "velocity": 92,
      "chip": "ym2612"
    },
    {
      "channel": 3,
      "note": 81,
      "start": 20.4341,
      "duration": 0.0853,
      "velocity": 92,
      "chip": "ym2612"
    },
    {
      "channel": 4,
      "note": 81,
      "start": 20.451,
      "duration": 0.3938,
      "velocity": 93,
      "chip": "ym2612"
    },
    {
      "channel": 1,
      "note": 65,
      "start": 20.519,
      "duration": 0.1691,
      "velocity": 95,
      "chip": "ym2612"
    },
    {
      "channel": 1,
      "note": 65,
      "start": 20.6885,
      "duration": 0.1441,
      "velocity": 95,
      "chip": "ym2612"
    },
    {
      "channel": 0,
      "note": 81,
      "start": 20.8325,
      "duration": 0.0473,
      "velocity": 93,
      "chip": "ym2612"
    },
    {
      "channel": 1,
      "note": 65,
      "start": 20.8332,
      "duration": 0.0474,
      "velocity": 95,
      "chip": "ym2612"
    },
    {
      "channel": 4,
      "note": 81,
      "start": 20.8673,
      "duration": 0.0668,
      "velocity": 93,
      "chip": "ym2612"
    },
    {
      "channel": 0,
      "note": 84,
      "start": 20.8804,
      "duration": 0.1219,
      "velocity": 93,
      "chip": "ym2612"
    },
    {
      "channel": 1,
      "note": 65,
      "start": 20.8811,
      "duration": 0.1221,
      "velocity": 95,
      "chip": "ym2612"
    },
    {
      "channel": 4,
      "note": 84,
      "start": 20.9347,
      "duration": 0.1712,
      "velocity": 93,
      "chip": "ym2612"
    },
    {
      "channel": 0,
      "note": 81,
      "start": 21.0029,
      "duration": 0.5751,
      "velocity": 93,
      "chip": "ym2612"
    },
    {
      "channel": 1,
      "note": 62,
      "start": 21.0037,
      "duration": 0.1685,
      "velocity": 95,
      "chip": "ym2612"
    },
    {
      "channel": 4,
      "note": 81,
      "start": 21.1065,
      "duration": 0.5923,
      "velocity": 93,
      "chip": "ym2612"
    },
    {
      "channel": 1,
      "note": 62,
      "start": 21.1727,
      "duration": 0.2351,
      "velocity": 95,
      "chip": "ym2612"
    },
    {
      "channel": 2,
      "note": 89,
      "start": 21.1734,
      "duration": 0.1156,
      "velocity": 92,
      "chip": "ym2612"
    },
    {
      "channel": 3,
      "note": 81,
      "start": 21.1741,
      "duration": 0.1152,
      "velocity": 92,
      "chip": "ym2612"
    },
    {
      "channel": 1,
      "note": 62,
      "start": 21.4083,
      "duration": 0.0536,
      "velocity": 95,
      "chip": "ym2612"
    },
    {
      "channel": 2,
      "note": 89,
      "start": 21.4343,
      "duration": 0.1452,
      "velocity": 92,
      "chip": "ym2612"
    },
    {
      "channel": 3,
      "note": 81,
      "start": 21.435,
      "duration": 0.1452,
      "velocity": 92,
      "chip": "ym2612"
    },
    {
      "channel": 1,
      "note": 62,
      "start": 21.4625,
      "duration": 0.1164,
      "velocity": 95,
      "chip": "ym2612"
    },
    {
      "channel": 0,
      "note": 81,
      "start": 21.5787,
      "duration": 0.224,
      "velocity": 93,
      "chip": "ym2612"
    },
    {
      "channel": 1,
      "note": 62,
      "start": 21.5794,
      "duration": 0.1709,
      "velocity": 95,
      "chip": "ym2612"
    },
    {
      "channel": 2,
      "note": 89,
      "start": 21.5801,
      "duration": 0.0514,
      "velocity": 92,
      "chip": "ym2612"
    },
    {
      "channel": 3,
      "note": 81,
      "start": 21.5808,
      "duration": 0.0514,
      "velocity": 92,
      "chip": "ym2612"
    },
    {
      "channel": 2,
      "note": 89,
      "start": 21.632,
      "duration": 0.119,
      "velocity": 92,
      "chip": "ym2612"
    },
    {
      "channel": 3,
      "note": 81,
      "start": 21.6327,
      "duration": 0.119,
      "velocity": 92,
      "chip": "ym2612"
    },
    {
      "channel": 4,
      "note": 81,
      "start": 21.6995,
      "duration": 0.2392,
      "velocity": 93,
      "chip": "ym2612"
    },
    {
      "channel": 1,
      "note": 62,
      "start": 21.7509,
      "duration": 0.1712,
      "velocity": 95,
      "chip": "ym2612"
    },
    {
      "channel": 2,
      "note": 88,
      "start": 21.7516,
      "duration": 0.0522,
      "velocity": 92,
      "chip": "ym2612"
    },
    {
      "channel": 3,
      "note": 81,
      "start": 21.7523,
      "duration": 0.0522,
      "velocity": 92,
      "chip": "ym2612"
    },
    {
      "channel": 0,
      "note": 84,
      "start": 21.8034,
      "duration": 0.169,
      "velocity": 93,
      "chip": "ym2612"
    },
    {
      "channel": 2,
      "note": 89,
      "start": 21.8044,
      "duration": 0.1184,
      "velocity": 92,
      "chip": "ym2612"
    },
    {
      "channel": 3,
      "note": 81,
      "start": 21.8051,
      "duration": 0.118,
      "velocity": 92,
      "chip": "ym2612"
    },
    {
      "channel": 1,
      "note": 62,
      "start": 21.9226,
      "duration": 0.0505,
      "velocity": 95,
      "chip": "ym2612"
    },
    {
      "channel": 4,
      "note": 84,
      "start": 21.9393,
      "duration": 0.1016,
      "velocity": 93,
      "chip": "ym2612"
    },
    {
      "channel": 0,
      "note": 81,
      "start": 21.973,
      "duration": 0.1194,
      "velocity": 93,
      "chip": "ym2612"
    },
    {
      "channel": 1,
      "note": 62,
      "start": 21.9736,
      "duration": 0.1196,
      "velocity": 95,
      "chip": "ym2612"
    },
    {
      "channel": 2,
      "note": 89,
      "start": 21.9743,
      "duration": 0.0274,
      "velocity": 92,
      "chip": "ym2612"
    },
    {
      "channel": 3,
      "note": 81,
      "start": 21.975,
      "duration": 0.027,
      "velocity": 92,
      "chip": "ym2612"
    },
    {
      "channel": 4,
      "note": 81,
      "start": 22.0415,
      "duration": 0.1717,
      "velocity": 93,
      "chip": "ym2612"
    },
    {
      "channel": 0,
      "note": 83,
      "start": 22.093,
      "duration": 0.5753,
      "velocity": 93,
      "chip": "ym2612"
    },
    {
      "channel": 1,
      "note": 67,
      "start": 22.0937,
      "duration": 0.1687,
      "velocity": 95,
      "chip": "ym2612"
    },
    {
      "channel": 2,
      "note": 89,
      "start": 22.1464,
      "duration": 0.3523,
      "velocity": 92,
      "chip": "ym2612"
    },
    {
      "channel": 3,
      "note": 81,
      "start": 22.1471,
      "duration": 0.3523,
      "velocity": 92,
      "chip": "ym2612"
    },
    {
      "channel": 4,
      "note": 83,
      "start": 22.2139,
      "duration": 0.5747,
      "velocity": 93,
      "chip": "ym2612"
    },
    {
      "channel": 1,
      "note": 67,
      "start": 22.2629,
      "duration": 0.2351,
      "velocity": 95,
      "chip": "ym2612"
    },
    {
      "channel": 1,
      "note": 67,
      "start": 22.4986,
      "duration": 0.0569,
      "velocity": 95,
      "chip": "ym2612"
    },
    {
      "channel": 2,
      "note": 89,
      "start": 22.4993,
      "duration": 0.0569,
      "velocity": 92,
      "chip": "ym2612"
    },
    {
      "channel": 3,
      "note": 81,
      "start": 22.5,
      "duration": 0.0569,
      "velocity": 92,
      "chip": "ym2612"
    },
    {
      "channel": 1,
      "note": 67,
      "start": 22.556,
      "duration": 0.113,
      "velocity": 95,
      "chip": "ym2612"
    },
    {
      "channel": 2,
      "note": 88,
      "start": 22.5567,
      "duration": 0.0278,
      "velocity": 92,
      "chip": "ym2612"
    },
    {
      "channel": 3,
      "note": 81,
      "start": 22.5574,
      "duration": 0.0278,
      "velocity": 92,
      "chip": "ym2612"
    },
    {
      "channel": 2,
      "note": 89,
      "start": 22.5851,
      "duration": 0.0846,
      "velocity": 92,
      "chip": "ym2612"
    },
    {
      "channel": 3,
      "note": 81,
      "start": 22.5859,
      "duration": 0.0842,
      "velocity": 92,
      "chip": "ym2612"
    },
    {
      "channel": 0,
      "note": 79,
      "start": 22.6689,
      "duration": 0.3154,
      "velocity": 93,
      "chip": "ym2612"
    },
    {
      "channel": 1,
      "note": 67,
      "start": 22.6696,
      "duration": 0.1686,
      "velocity": 95,
      "chip": "ym2612"
    },
    {
      "channel": 4,
      "note": 79,
      "start": 22.7892,
      "duration": 0.2355,
      "velocity": 93,
      "chip": "ym2612"
    },
    {
      "channel": 1,
      "note": 67,
      "start": 22.8388,
      "duration": 0.1463,
      "velocity": 95,
      "chip": "ym2612"
    },
    {
      "channel": 0,
      "note": 86,
      "start": 22.9849,
      "duration": 0.1698,
      "velocity": 93,
      "chip": "ym2612"
    },
    {
      "channel": 1,
      "note": 65,
      "start": 22.9856,
      "duration": 0.0491,
      "velocity": 95,
      "chip": "ym2612"
    },
    {
      "channel": 4,
      "note": 86,
      "start": 23.0254,
      "duration": 0.2496,
      "velocity": 93,
      "chip": "ym2612"
    },
    {
      "channel": 1,
      "note": 67,
      "start": 23.0353,
      "duration": 0.1202,
      "velocity": 95,
      "chip": "ym2612"
    },
    {
      "channel": 0,
      "note": 86,
      "start": 23.1554,
      "duration": 0.1687,
      "velocity": 93,
      "chip": "ym2612"
    },
    {
      "channel": 1,
      "note": 60,
      "start": 23.1561,
      "duration": 0.1688,
      "velocity": 95,
      "chip": "ym2612"
    },
    {
      "channel": 4,
      "note": 86,
      "start": 23.2756,
      "duration": 0.2326,
      "velocity": 93,
      "chip": "ym2612"
    },
    {
      "channel": 0,
      "note": 84,
      "start": 23.3247,
      "duration": 0.2351,
      "velocity": 93,
      "chip": "ym2612"
    },
    {
      "channel": 1,
      "note": 60,
      "start": 23.3254,
      "duration": 0.2351,
      "velocity": 95,
      "chip": "ym2612"
    },
    {
      "channel": 2,
      "note": 88,
      "start": 23.3261,
      "duration": 0.1152,
      "velocity": 92,
      "chip": "ym2612"
    },
    {
      "channel": 3,
      "note": 79,
      "start": 23.3268,
      "duration": 0.1148,
      "velocity": 92,
      "chip": "ym2612"
    },
    {
      "channel": 4,
      "note": 84,
      "start": 23.5089,
      "duration": 0.0939,
      "velocity": 93,
      "chip": "ym2612"
    },
    {
      "channel": 0,
      "note": 86,
      "start": 23.5604,
      "duration": 0.053,
      "velocity": 93,
      "chip": "ym2612"
    },
    {
      "channel": 1,
      "note": 60,
      "start": 23.561,
      "duration": 0.0531,
      "velocity": 95,
      "chip": "ym2612"
    },
    {
      "channel": 2,
      "note": 88,
      "start": 23.586,
      "duration": 0.1457,
      "velocity": 92,
      "chip": "ym2612"
    },
    {
      "channel": 3,
      "note": 79,
      "start": 23.5867,
      "duration": 0.1457,
      "velocity": 92,
      "chip": "ym2612"
    },
    {
      "channel": 4,
      "note": 86,
      "start": 23.6034,
      "duration": 0.0761,
      "velocity": 93,
      "chip": "ym2612"
    },
    {
      "channel": 0,
      "note": 88,
      "start": 23.614,
      "duration": 0.5218,
      "velocity": 93,
      "chip": "ym2612"
    },
    {
      "channel": 1,
      "note": 60,
      "start": 23.6146,
      "duration": 0.1163,
      "velocity": 95,
      "chip": "ym2612"
    },
    {
      "channel": 4,
      "note": 88,
      "start": 23.6802,
      "duration": 0.4969,
      "velocity": 93,
      "chip": "ym2612"
    },
    {
      "channel": 1,
      "note": 60,
      "start": 23.7315,
      "duration": 0.1691,
      "velocity": 95,
      "chip": "ym2612"
    },
    {
      "channel": 2,
      "note": 88,
      "start": 23.7322,
      "duration": 0.0519,
      "velocity": 92,
      "chip": "ym2612"
    },
    {
      "channel": 3,
      "note": 79,
      "start": 23.7329,
      "duration": 0.0519,
      "velocity": 92,
      "chip": "ym2612"
    },
    {
      "channel": 2,
      "note": 88,
      "start": 23.7847,
      "duration": 0.1166,
      "velocity": 92,
      "chip": "ym2612"
    },
    {
      "channel": 3,
      "note": 79,
      "start": 23.7854,
      "duration": 0.1166,
      "velocity": 92,
      "chip": "ym2612"
    },
    {
      "channel": 1,
      "note": 60,
      "start": 23.9012,
      "duration": 0.2354,
      "velocity": 95,
      "chip": "ym2612"
    },
    {
      "channel": 2,
      "note": 86,
      "start": 23.9019,
      "duration": 0.1156,
      "velocity": 92,
      "chip": "ym2612"
    },
    {
      "channel": 3,
      "note": 77,
      "start": 23.9026,
      "duration": 0.1156,
      "velocity": 92,
      "chip": "ym2612"
    },
    {
      "channel": 2,
      "note": 88,
      "start": 24.018,
      "duration": 0.1192,
      "velocity": 92,
      "chip": "ym2612"
    },
    {
      "channel": 3,
      "note": 79,
      "start": 24.0187,
      "duration": 0.1188,
      "velocity": 92,
      "chip": "ym2612"
    },
    {
      "channel": 0,
      "note": 79,
      "start": 24.1365,
      "duration": 0.1866,
      "velocity": 93,
      "chip": "ym2612"
    },
    {
      "channel": 1,
      "note": 60,
      "start": 24.1371,
      "duration": 0.0534,
      "velocity": 95,
      "chip": "ym2612"
    },
    {
      "channel": 4,
      "note": 79,
      "start": 24.1777,
      "duration": 0.2495,
      "velocity": 93,
      "chip": "ym2612"
    },
    {
      "channel": 1,
      "note": 60,
      "start": 24.1911,
      "duration": 0.1328,
      "velocity": 95,
      "chip": "ym2612"
    },
    {
      "channel": 2,
      "note": 88,
      "start": 24.1918,
      "duration": 0.0276,
      "velocity": 92,
      "chip": "ym2612"
    },
    {
      "channel": 3,
      "note": 79,
      "start": 24.1925,
      "duration": 0.0273,
      "velocity": 92,
      "chip": "ym2612"
    },
    {
      "channel": 0,
      "note": 91,
      "start": 24.3237,
      "duration": 0.1712,
      "velocity": 93,
      "chip": "ym2612"
    },
    {
      "channel": 1,
      "note": 60,
      "start": 24.3244,
      "duration": 0.1713,
      "velocity": 95,
      "chip": "ym2612"
    },
    {
      "channel": 2,
      "note": 88,
      "start": 24.3772,
      "duration": 0.1777,
      "velocity": 92,
      "chip": "ym2612"
    },
    {
      "channel": 3,
      "note": 79,
      "start": 24.3778,
      "duration": 0.1777,
      "velocity": 92,
      "chip": "ym2612"
    },
    {
      "channel": 4,
      "note": 91,
      "start": 24.4278,
      "duration": 0.1087,
      "velocity": 93,
      "chip": "ym2612"
    },
    {
      "channel": 0,
      "note": 89,
      "start": 24.4955,
      "duration": 0.0579,
      "velocity": 93,
      "chip": "ym2612"
    },
    {
      "channel": 1,
      "note": 60,
      "start": 24.4962,
      "duration": 0.0581,
      "velocity": 95,
      "chip": "ym2612"
    },
    {
      "channel": 4,
      "note": 89,
      "start": 24.5371,
      "duration": 0.0856,
      "velocity": 93,
      "chip": "ym2612"
    },
    {
      "channel": 0,
      "note": 88,
      "start": 24.5541,
      "duration": 0.0831,
      "velocity": 93,
      "chip": "ym2612"
    },
    {
      "channel": 1,
      "note": 60,
      "start": 24.5547,
      "duration": 0.0832,
      "velocity": 95,
      "chip": "ym2612"
    },
    {
      "channel": 2,
      "note": 88,
      "start": 24.5554,
      "duration": 0.0832,
      "velocity": 92,
      "chip": "ym2612"
    },
    {
      "channel": 3,
      "note": 79,
      "start": 24.5561,
      "duration": 0.0832,
      "velocity": 92,
      "chip": "ym2612"
    },
    {
      "channel": 4,
      "note": 88,
      "start": 24.6234,
      "duration": 0.0604,
      "velocity": 93,
      "chip": "ym2612"
    },
    {
      "channel": 0,
      "note": 83,
      "start": 24.6378,
      "duration": 0.0867,
      "velocity": 93,
      "chip": "ym2612"
    },
    {
      "channel": 1,
      "note": 60,
      "start": 24.6385,
      "duration": 0.0868,
      "velocity": 95,
      "chip": "ym2612"
    },
    {
      "channel": 2,
      "note": 86,
      "start": 24.6392,
      "duration": 0.0308,
      "velocity": 92,
      "chip": "ym2612"
    },
    {
      "channel": 3,
      "note": 77,
      "start": 24.6399,
      "duration": 0.0308,
      "velocity": 92,
      "chip": "ym2612"
    },
    {
      "channel": 2,
      "note": 88,
      "start": 24.6706,
      "duration": 0.0553,
      "velocity": 92,
      "chip": "ym2612"
    },
    {
      "channel": 3,
      "note": 79,
      "start": 24.6712,
      "duration": 0.0549,
      "velocity": 92,
      "chip": "ym2612"
    },
    {
      "channel": 4,
      "note": 83,
      "start": 24.6844,
      "duration": 0.1073,
      "velocity": 93,
      "chip": "ym2612"
    },
    {
      "channel": 0,
      "note": 79,
      "start": 24.7251,
      "duration": 0.1067,
      "velocity": 93,
      "chip": "ym2612"
    },
    {
      "channel": 1,
      "note": 60,
      "start": 24.7257,
      "duration": 0.0794,
      "velocity": 95,
      "chip": "ym2612"
    },
    {
      "channel": 4,
      "note": 79,
      "start": 24.7923,
      "duration": 0.0794,
      "velocity": 93,
      "chip": "ym2612"
    },
    {
      "channel": 1,
      "note": 60,
      "start": 24.8057,
      "duration": 0.0536,
      "velocity": 95,
      "chip": "ym2612"
    },
    {
      "channel": 0,
      "note": 83,
      "start": 24.8324,
      "duration": 0.079,
      "velocity": 93,
      "chip": "ym2612"
    },
    {
      "channel": 1,
      "note": 60,
      "start": 24.8599,
      "duration": 0.0523,
      "velocity": 95,
      "chip": "ym2612"
    },
    {
      "channel": 4,
      "note": 83,
      "start": 24.8723,
      "duration": 0.0787,
      "velocity": 93,
      "chip": "ym2612"
    },
    {
      "channel": 0,
      "note": 86,
      "start": 24.912,
      "duration": 0.0546,
      "velocity": 93,
      "chip": "ym2612"
    },
    {
      "channel": 1,
      "note": 60,
      "start": 24.9127,
      "duration": 0.0549,
      "velocity": 95,
      "chip": "ym2612"
    },
    {
      "channel": 4,
      "note": 86,
      "start": 24.9517,
      "duration": 0.0584,
      "velocity": 93,
      "chip": "ym2612"
    },
    {
      "channel": 0,
      "note": 84,
      "start": 24.9673,
      "duration": 0.7191,
      "velocity": 60,
      "chip": "ym2612"
    },
    {
      "channel": 1,
      "note": 53,
      "start": 24.9681,
      "duration": 0.0872,
      "velocity": 95,
      "chip": "ym2612"
    },
    {
      "channel": 2,
      "note": 84,
      "start": 24.9689,
      "duration": 0.0871,
      "velocity": 92,
      "chip": "ym2612"
    },
    {
      "channel": 3,
      "note": 69,
      "start": 24.9697,
      "duration": 0.087,
      "velocity": 92,
      "chip": "ym2612"
    },
    {
      "channel": 4,
      "note": 84,
      "start": 25.0107,
      "duration": 0.8438,
      "velocity": 60,
      "chip": "ym2612"
    },
    {
      "channel": 1,
      "note": 53,
      "start": 25.0559,
      "duration": 0.052,
      "velocity": 95,
      "chip": "ym2612"
    },
    {
      "channel": 2,
      "note": 84,
      "start": 25.0566,
      "duration": 0.052,
      "velocity": 92,
      "chip": "ym2612"
    },
    {
      "channel": 3,
      "note": 69,
      "start": 25.0573,
      "duration": 0.0516,
      "velocity": 92,
      "chip": "ym2612"
    },
    {
      "channel": 1,
      "note": 65,
      "start": 25.1084,
      "duration": 0.1184,
      "velocity": 95,
      "chip": "ym2612"
    },
    {
      "channel": 1,
      "note": 53,
      "start": 25.2273,
      "duration": 0.0524,
      "velocity": 95,
      "chip": "ym2612"
    },
    {
      "channel": 2,
      "note": 84,
      "start": 25.228,
      "duration": 0.052,
      "velocity": 92,
      "chip": "ym2612"
    },
    {
      "channel": 3,
      "note": 69,
      "start": 25.2287,
      "duration": 0.0516,
      "velocity": 92,
      "chip": "ym2612"
    },
    {
      "channel": 1,
      "note": 53,
      "start": 25.3991,
      "duration": 0.0524,
      "velocity": 95,
      "chip": "ym2612"
    },
    {
      "channel": 2,
      "note": 84,
      "start": 25.3999,
      "duration": 2.6087,
      "velocity": 92,
      "chip": "ym2612"
    },
    {
      "channel": 3,
      "note": 69,
      "start": 25.4006,
      "duration": 2.6087,
      "velocity": 92,
      "chip": "ym2612"
    },
    {
      "channel": 1,
      "note": 53,
      "start": 25.5685,
      "duration": 0.1186,
      "velocity": 95,
      "chip": "ym2612"
    },
    {
      "channel": 0,
      "note": 76,
      "start": 25.687,
      "duration": 0.3473,
      "velocity": 60,
      "chip": "ym2612"
    },
    {
      "channel": 1,
      "note": 53,
      "start": 25.8019,
      "duration": 0.1161,
      "velocity": 95,
      "chip": "ym2612"
    },
    {
      "channel": 4,
      "note": 76,
      "start": 25.8552,
      "duration": 0.3471,
      "velocity": 60,
      "chip": "ym2612"
    },
    {
      "channel": 1,
      "note": 65,
      "start": 25.9186,
      "duration": 0.1165,
      "velocity": 95,
      "chip": "ym2612"
    },
    {
      "channel": 0,
      "note": 77,
      "start": 26.0349,
      "duration": 0.3522,
      "velocity": 60,
      "chip": "ym2612"
    },
    {
      "channel": 1,
      "note": 53,
      "start": 26.1519,
      "duration": 0.1161,
      "velocity": 95,
      "chip": "ym2612"
    },
    {
      "channel": 4,
      "note": 77,
      "start": 26.2029,
      "duration": 0.3047,
      "velocity": 60,
      "chip": "ym2612"
    },
    {
      "channel": 0,
      "note": 81,
      "start": 26.3877,
      "duration": 0.3404,
      "velocity": 60,
      "chip": "ym2612"
    },
    {
      "channel": 1,
      "note": 53,
      "start": 26.3884,
      "duration": 0.0517,
      "velocity": 95,
      "chip": "ym2612"
    },
    {
      "channel": 4,
      "note": 81,
      "start": 26.5083,
      "duration": 0.3573,
      "velocity": 60,
      "chip": "ym2612"
    },
    {
      "channel": 1,
      "note": 53,
      "start": 26.5595,
      "duration": 0.0524,
      "velocity": 95,
      "chip": "ym2612"
    },
    {
      "channel": 0,
      "note": 88,
      "start": 26.7287,
      "duration": 0.3431,
      "velocity": 60,
      "chip": "ym2612"
    },
    {
      "channel": 1,
      "note": 65,
      "start": 26.7294,
      "duration": 0.1181,
      "velocity": 95,
      "chip": "ym2612"
    },
    {
      "channel": 1,
      "note": 53,
      "start": 26.8481,
      "duration": 0.0523,
      "velocity": 95,
      "chip": "ym2612"
    },
    {
      "channel": 4,
      "note": 88,
      "start": 26.8663,
      "duration": 0.3902,
      "velocity": 60,
      "chip": "ym2612"
    },
    {
      "channel": 1,
      "note": 53,
      "start": 27.0198,
      "duration": 0.0528,
      "velocity": 95,
      "chip": "ym2612"
    },
    {
      "channel": 0,
      "note": 89,
      "start": 27.0725,
      "duration": 0.4659,
      "velocity": 60,
      "chip": "ym2612"
    },
    {
      "channel": 1,
      "note": 53,
      "start": 27.1893,
      "duration": 0.1161,
      "velocity": 95,
      "chip": "ym2612"
    },
    {
      "channel": 4,
      "note": 89,
      "start": 27.2571,
      "duration": 0.4658,
      "velocity": 60,
      "chip": "ym2612"
    },
    {
      "channel": 1,
      "note": 53,
      "start": 27.4226,
      "duration": 0.1165,
      "velocity": 95,
      "chip": "ym2612"
    },
    {
      "channel": 0,
      "note": 96,
      "start": 27.539,
      "duration": 0.4684,
      "velocity": 60,
      "chip": "ym2612"
    },
    {
      "channel": 1,
      "note": 65,
      "start": 27.5397,
      "duration": 0.1158,
      "velocity": 95,
      "chip": "ym2612"
    },
    {
      "channel": 4,
      "note": 96,
      "start": 27.7235,
      "duration": 0.4045,
      "velocity": 60,
      "chip": "ym2612"
    },
    {
      "channel": 1,
      "note": 53,
      "start": 27.7726,
      "duration": 0.1161,
      "velocity": 95,
      "chip": "ym2612"
    },
    {
      "channel": 1,
      "note": 53,
      "start": 28.0084,
      "duration": 0.2877,
      "velocity": 95,
      "chip": "ym2612"
    },
    {
      "channel": 2,
      "note": 79,
      "start": 28.0091,
      "duration": 0.2877,
      "velocity": 92,
      "chip": "ym2612"
    },
    {
      "channel": 3,
      "note": 70,
      "start": 28.0098,
      "duration": 0.2877,
      "velocity": 92,
      "chip": "ym2612"
    },
    {
      "channel": 1,
      "note": 53,
      "start": 28.2966,
      "duration": 0.0523,
      "velocity": 95,
      "chip": "ym2612"
    },
    {
      "channel": 2,
      "note": 79,
      "start": 28.2973,
      "duration": 0.0522,
      "velocity": 92,
      "chip": "ym2612"
    },
    {
      "channel": 3,
      "note": 70,
      "start": 28.298,
      "duration": 0.0518,
      "velocity": 92,
      "chip": "ym2612"
    },
    {
      "channel": 1,
      "note": 65,
      "start": 28.3494,
      "duration": 0.1185,
      "velocity": 95,
      "chip": "ym2612"
    },
    {
      "channel": 1,
      "note": 53,
      "start": 28.4683,
      "duration": 0.0524,
      "velocity": 95,
      "chip": "ym2612"
    },
    {
      "channel": 2,
      "note": 79,
      "start": 28.469,
      "duration": 0.052,
      "velocity": 92,
      "chip": "ym2612"
    },
    {
      "channel": 3,
      "note": 70,
      "start": 28.4697,
      "duration": 0.0516,
      "velocity": 92,
      "chip": "ym2612"
    },
    {
      "channel": 1,
      "note": 53,
      "start": 28.6402,
      "duration": 0.0523,
      "velocity": 95,
      "chip": "ym2612"
    },
    {
      "channel": 2,
      "note": 79,
      "start": 28.6409,
      "duration": 2.626,
      "velocity": 92,
      "chip": "ym2612"
    },
    {
      "channel": 3,
      "note": 70,
      "start": 28.6416,
      "duration": 2.626,
      "velocity": 92,
      "chip": "ym2612"
    },
    {
      "channel": 1,
      "note": 53,
      "start": 28.8095,
      "duration": 0.1168,
      "velocity": 95,
      "chip": "ym2612"
    },
    {
      "channel": 0,
      "note": 74,
      "start": 28.9262,
      "duration": 0.3494,
      "velocity": 60,
      "chip": "ym2612"
    },
    {
      "channel": 1,
      "note": 53,
      "start": 29.0432,
      "duration": 0.1161,
      "velocity": 95,
      "chip": "ym2612"
    },
    {
      "channel": 4,
      "note": 74,
      "start": 29.111,
      "duration": 0.3494,
      "velocity": 60,
      "chip": "ym2612"
    },
    {
      "channel": 1,
      "note": 65,
      "start": 29.1599,
      "duration": 0.1165,
      "velocity": 95,
      "chip": "ym2612"
    },
    {
      "channel": 0,
      "note": 75,
      "start": 29.2762,
      "duration": 0.3518,
      "velocity": 60,
      "chip": "ym2612"
    },
    {
      "channel": 1,
      "note": 53,
      "start": 29.3932,
      "duration": 0.1161,
      "velocity": 95,
      "chip": "ym2612"
    },
    {
      "channel": 4,
      "note": 75,
      "start": 29.461,
      "duration": 0.2876,
      "velocity": 60,
      "chip": "ym2612"
    },
    {
      "channel": 0,
      "note": 79,
      "start": 29.6286,
      "duration": 0.3408,
      "velocity": 60,
      "chip": "ym2612"
    },
    {
      "channel": 1,
      "note": 53,
      "start": 29.6293,
      "duration": 0.052,
      "velocity": 95,
      "chip": "ym2612"
    },
    {
      "channel": 4,
      "note": 79,
      "start": 29.7492,
      "duration": 0.3577,
      "velocity": 60,
      "chip": "ym2612"
    },
    {
      "channel": 1,
      "note": 53,
      "start": 29.8007,
      "duration": 0.0524,
      "velocity": 95,
      "chip": "ym2612"
    },
    {
      "channel": 0,
      "note": 86,
      "start": 29.97,
      "duration": 0.3599,
      "velocity": 60,
      "chip": "ym2612"
    },
    {
      "channel": 1,
      "note": 65,
      "start": 29.9707,
      "duration": 0.1181,
      "velocity": 95,
      "chip": "ym2612"
    },
    {
      "channel": 1,
      "note": 53,
      "start": 30.0893,
      "duration": 0.0691,
      "velocity": 95,
      "chip": "ym2612"
    },
    {
      "channel": 4,
      "note": 86,
      "start": 30.1075,
      "duration": 0.3902,
      "velocity": 60,
      "chip": "ym2612"
    },
    {
      "channel": 1,
      "note": 53,
      "start": 30.2778,
      "duration": 0.0529,
      "velocity": 95,
      "chip": "ym2612"
    },
    {
      "channel": 0,
      "note": 87,
      "start": 30.3305,
      "duration": 0.4659,
      "velocity": 60,
      "chip": "ym2612"
    },
    {
      "channel": 1,
      "note": 53,
      "start": 30.4474,
      "duration": 0.1161,
      "velocity": 95,
      "chip": "ym2612"
    },
    {
      "channel": 4,
      "note": 87,
      "start": 30.4984,
      "duration": 0.4658,
      "velocity": 60,
      "chip": "ym2612"
    },
    {
      "channel": 1,
      "note": 53,
      "start": 30.6807,
      "duration": 0.1165,
      "velocity": 95,
      "chip": "ym2612"
    },
    {
      "channel": 0,
      "note": 94,
      "start": 30.7971,
      "duration": 0.4686,
      "velocity": 60,
      "chip": "ym2612"
    },
    {
      "channel": 1,
      "note": 65,
      "start": 30.7977,
      "duration": 0.1158,
      "velocity": 95,
      "chip": "ym2612"
    },
    {
      "channel": 4,
      "note": 94,
      "start": 30.9649,
      "duration": 0.4045,
      "velocity": 60,
      "chip": "ym2612"
    },
    {
      "channel": 1,
      "note": 53,
      "start": 31.0307,
      "duration": 0.1161,
      "velocity": 95,
      "chip": "ym2612"
    },
    {
      "channel": 1,
      "note": 53,
      "start": 31.2667,
      "duration": 0.2875,
      "velocity": 95,
      "chip": "ym2612"
    },
    {
      "channel": 2,
      "note": 84,
      "start": 31.2674,
      "duration": 0.2874,
      "velocity": 92,
      "chip": "ym2612"
    },
    {
      "channel": 3,
      "note": 69,
      "start": 31.2682,
      "duration": 0.2874,
      "velocity": 92,
      "chip": "ym2612"
    },
    {
      "channel": 1,
      "note": 53,
      "start": 31.5546,
      "duration": 0.0523,
      "velocity": 95,
      "chip": "ym2612"
    },
    {
      "channel": 2,
      "note": 84,
      "start": 31.5554,
      "duration": 0.0522,
      "velocity": 92,
      "chip": "ym2612"
    },
    {
      "channel": 3,
      "note": 69,
      "start": 31.5561,
      "duration": 0.0518,
      "velocity": 92,
      "chip": "ym2612"
    },
    {
      "channel": 1,
      "note": 65,
      "start": 31.6074,
      "duration": 0.1185,
      "velocity": 95,
      "chip": "ym2612"
    },
    {
      "channel": 1,
      "note": 53,
      "start": 31.7264,
      "duration": 0.0523,
      "velocity": 95,
      "chip": "ym2612"
    },
    {
      "channel": 2,
      "note": 84,
      "start": 31.7271,
      "duration": 0.052,
      "velocity": 92,
      "chip": "ym2612"
    },
    {
      "channel": 3,
      "note": 69,
      "start": 31.7278,
      "duration": 0.0516,
      "velocity": 92,
      "chip": "ym2612"
    },
    {
      "channel": 1,
      "note": 53,
      "start": 31.8982,
      "duration": 0.0523,
      "velocity": 95,
      "chip": "ym2612"
    },
    {
      "channel": 2,
      "note": 84,
      "start": 31.8989,
      "duration": 2.6091,
      "velocity": 92,
      "chip": "ym2612"
    },
    {
      "channel": 3,
      "note": 69,
      "start": 31.8996,
      "duration": 2.6091,
      "velocity": 92,
      "chip": "ym2612"
    },
    {
      "channel": 1,
      "note": 53,
      "start": 32.0675,
      "duration": 0.1168,
      "velocity": 95,
      "chip": "ym2612"
    },
    {
      "channel": 0,
      "note": 76,
      "start": 32.1843,
      "duration": 0.3494,
      "velocity": 60,
      "chip": "ym2612"
    },
    {
      "channel": 1,
      "note": 53,
      "start": 32.3012,
      "duration": 0.1161,
      "velocity": 95,
      "chip": "ym2612"
    },
    {
      "channel": 4,
      "note": 76,
      "start": 32.3523,
      "duration": 0.3494,
      "velocity": 60,
      "chip": "ym2612"
    },
    {
      "channel": 1,
      "note": 65,
      "start": 32.4179,
      "duration": 0.1165,
      "velocity": 95,
      "chip": "ym2612"
    },
    {
      "channel": 0,
      "note": 77,
      "start": 32.5342,
      "duration": 0.3518,
      "velocity": 60,
      "chip": "ym2612"
    },
    {
      "channel": 1,
      "note": 53,
      "start": 32.6512,
      "duration": 0.1161,
      "velocity": 95,
      "chip": "ym2612"
    },
    {
      "channel": 4,
      "note": 77,
      "start": 32.7023,
      "duration": 0.2877,
      "velocity": 60,
      "chip": "ym2612"
    },
    {
      "channel": 0,
      "note": 81,
      "start": 32.8867,
      "duration": 0.3408,
      "velocity": 60,
      "chip": "ym2612"
    },
    {
      "channel": 1,
      "note": 53,
      "start": 32.8873,
      "duration": 0.0521,
      "velocity": 95,
      "chip": "ym2612"
    },
    {
      "channel": 4,
      "note": 81,
      "start": 32.9906,
      "duration": 0.3702,
      "velocity": 60,
      "chip": "ym2612"
    },
    {
      "channel": 1,
      "note": 53,
      "start": 33.0588,
      "duration": 0.0524,
      "velocity": 95,
      "chip": "ym2612"
    },
    {
      "channel": 0,
      "note": 88,
      "start": 33.228,
      "duration": 0.3432,
      "velocity": 60,
      "chip": "ym2612"
    },
    {
      "channel": 1,
      "note": 65,
      "start": 33.2287,
      "duration": 0.1181,
      "velocity": 95,
      "chip": "ym2612"
    },
    {
      "channel": 1,
      "note": 53,
      "start": 33.3473,
      "duration": 0.0524,
      "velocity": 95,
      "chip": "ym2612"
    },
    {
      "channel": 4,
      "note": 88,
      "start": 33.3615,
      "duration": 0.3776,
      "velocity": 60,
      "chip": "ym2612"
    },
    {
      "channel": 1,
      "note": 53,
      "start": 33.5192,
      "duration": 0.0528,
      "velocity": 95,
      "chip": "ym2612"
    },
    {
      "channel": 0,
      "note": 89,
      "start": 33.5719,
      "duration": 0.4659,
      "velocity": 60,
      "chip": "ym2612"
    },
    {
      "channel": 1,
      "note": 53,
      "start": 33.6887,
      "duration": 0.1161,
      "velocity": 95,
      "chip": "ym2612"
    },
    {
      "channel": 4,
      "note": 89,
      "start": 33.7398,
      "duration": 0.4825,
      "velocity": 60,
      "chip": "ym2612"
    },
    {
      "channel": 1,
      "note": 53,
      "start": 33.922,
      "duration": 0.1165,
      "velocity": 95,
      "chip": "ym2612"
    },
    {
      "channel": 0,
      "note": 96,
      "start": 34.0384,
      "duration": 0.4685,
      "velocity": 60,
      "chip": "ym2612"
    },
    {
      "channel": 1,
      "note": 65,
      "start": 34.039,
      "duration": 0.1158,
      "velocity": 95,
      "chip": "ym2612"
    },
    {
      "channel": 4,
      "note": 96,
      "start": 34.2229,
      "duration": 0.4044,
      "velocity": 60,
      "chip": "ym2612"
    },
    {
      "channel": 1,
      "note": 53,
      "start": 34.272,
      "duration": 0.1161,
      "velocity": 95,
      "chip": "ym2612"
    },
    {
      "channel": 1,
      "note": 51,
      "start": 34.5079,
      "duration": 0.2876,
      "velocity": 95,
      "chip": "ym2612"
    },
    {
      "channel": 2,
      "note": 79,
      "start": 34.5086,
      "duration": 0.2876,
      "velocity": 92,
      "chip": "ym2612"
    },
    {
      "channel": 3,
      "note": 70,
      "start": 34.5093,
      "duration": 0.2876,
      "velocity": 92,
      "chip": "ym2612"
    },
    {
      "channel": 1,
      "note": 51,
      "start": 34.796,
      "duration": 0.0523,
      "velocity": 95,
      "chip": "ym2612"
    },
    {
      "channel": 2,
      "note": 79,
      "start": 34.7967,
      "duration": 0.0523,
      "velocity": 92,
      "chip": "ym2612"
    },
    {
      "channel": 3,
      "note": 70,
      "start": 34.7974,
      "duration": 0.0519,
      "velocity": 92,
      "chip": "ym2612"
    },
    {
      "channel": 1,
      "note": 63,
      "start": 34.8488,
      "duration": 0.1185,
      "velocity": 95,
      "chip": "ym2612"
    },
    {
      "channel": 1,
      "note": 51,
      "start": 34.9678,
      "duration": 0.0523,
      "velocity": 95,
      "chip": "ym2612"
    },
    {
      "channel": 2,
      "note": 79,
      "start": 34.9685,
      "duration": 0.0519,
      "velocity": 92,
      "chip": "ym2612"
    },
    {
      "channel": 3,
      "note": 70,
      "start": 34.9692,
      "duration": 0.0515,
      "velocity": 92,
      "chip": "ym2612"
    },
    {
      "channel": 1,
      "note": 51,
      "start": 35.1395,
      "duration": 0.0523,
      "velocity": 95,
      "chip": "ym2612"
    },
    {
      "channel": 2,
      "note": 79,
      "start": 35.1402,
      "duration": 1.8027,
      "velocity": 92,
      "chip": "ym2612"
    },
    {
      "channel": 3,
      "note": 70,
      "start": 35.1409,
      "duration": 1.8032,
      "velocity": 92,
      "chip": "ym2612"
    },
    {
      "channel": 1,
      "note": 51,
      "start": 35.3089,
      "duration": 0.1168,
      "velocity": 95,
      "chip": "ym2612"
    },
    {
      "channel": 0,
      "note": 74,
      "start": 35.4256,
      "duration": 0.3494,
      "velocity": 60,
      "chip": "ym2612"
    },
    {
      "channel": 1,
      "note": 51,
      "start": 35.5426,
      "duration": 0.1161,
      "velocity": 95,
      "chip": "ym2612"
    },
    {
      "channel": 4,
      "note": 74,
      "start": 35.6103,
      "duration": 0.3494,
      "velocity": 60,
      "chip": "ym2612"
    },
    {
      "channel": 1,
      "note": 61,
      "start": 35.6593,
      "duration": 0.1165,
      "velocity": 95,
      "chip": "ym2612"
    },
    {
      "channel": 0,
      "note": 75,
      "start": 35.7756,
      "duration": 0.3518,
      "velocity": 60,
      "chip": "ym2612"
    },
    {
      "channel": 1,
      "note": 63,
      "start": 35.7763,
      "duration": 0.1158,
      "velocity": 95,
      "chip": "ym2612"
    },
    {
      "channel": 1,
      "note": 61,
      "start": 35.8926,
      "duration": 0.1161,
      "velocity": 95,
      "chip": "ym2612"
    },
    {
      "channel": 4,
      "note": 75,
      "start": 35.9603,
      "duration": 0.2878,
      "velocity": 60,
      "chip": "ym2612"
    },
    {
      "channel": 1,
      "note": 58,
      "start": 36.0093,
      "duration": 0.1189,
      "velocity": 95,
      "chip": "ym2612"
    },
    {
      "channel": 0,
      "note": 79,
      "start": 36.128,
      "duration": 0.343,
      "velocity": 60,
      "chip": "ym2612"
    },
    {
      "channel": 1,
      "note": 51,
      "start": 36.1287,
      "duration": 0.2876,
      "velocity": 95,
      "chip": "ym2612"
    },
    {
      "channel": 4,
      "note": 79,
      "start": 36.2488,
      "duration": 0.27,
      "velocity": 60,
      "chip": "ym2612"
    },
    {
      "channel": 1,
      "note": 51,
      "start": 36.4168,
      "duration": 0.055,
      "velocity": 95,
      "chip": "ym2612"
    },
    {
      "channel": 0,
      "note": 86,
      "start": 36.4717,
      "duration": 0.1703,
      "velocity": 60,
      "chip": "ym2612"
    },
    {
      "channel": 1,
      "note": 63,
      "start": 36.4723,
      "duration": 0.029,
      "velocity": 95,
      "chip": "ym2612"
    },
    {
      "channel": 1,
      "note": 51,
      "start": 36.5018,
      "duration": 0.0305,
      "velocity": 95,
      "chip": "ym2612"
    },
    {
      "channel": 4,
      "note": 86,
      "start": 36.5195,
      "duration": 0.1965,
      "velocity": 60,
      "chip": "ym2612"
    },
    {
      "channel": 1,
      "note": 51,
      "start": 36.5877,
      "duration": 0.0551,
      "velocity": 95,
      "chip": "ym2612"
    },
    {
      "channel": 0,
      "note": 87,
      "start": 36.6427,
      "duration": 0.1681,
      "velocity": 60,
      "chip": "ym2612"
    },
    {
      "channel": 1,
      "note": 51,
      "start": 36.6981,
      "duration": 0.0291,
      "velocity": 95,
      "chip": "ym2612"
    },
    {
      "channel": 4,
      "note": 87,
      "start": 36.7166,
      "duration": 0.1419,
      "velocity": 60,
      "chip": "ym2612"
    },
    {
      "channel": 1,
      "note": 51,
      "start": 36.7568,
      "duration": 0.0548,
      "velocity": 95,
      "chip": "ym2612"
    },
    {
      "channel": 0,
      "note": 94,
      "start": 36.8114,
      "duration": 0.1296,
      "velocity": 101,
      "chip": "ym2612"
    },
    {
      "channel": 1,
      "note": 61,
      "start": 36.8121,
      "duration": 0.0289,
      "velocity": 95,
      "chip": "ym2612"
    },
    {
      "channel": 1,
      "note": 63,
      "start": 36.8415,
      "duration": 0.0306,
      "velocity": 95,
      "chip": "ym2612"
    },
    {
      "channel": 4,
      "note": 94,
      "start": 36.8592,
      "duration": 0.1289,
      "velocity": 101,
      "chip": "ym2612"
    },
    {
      "channel": 1,
      "note": 61,
      "start": 36.8726,
      "duration": 0.035,
      "velocity": 95,
      "chip": "ym2612"
    },
    {
      "channel": 1,
      "note": 58,
      "start": 36.9082,
      "duration": 0.0336,
      "velocity": 95,
      "chip": "ym2612"
    },
    {
      "channel": 0,
      "note": 69,
      "start": 36.9417,
      "duration": 23.3886,
      "velocity": 101,
      "chip": "ym2612"
    },
    {
      "channel": 1,
      "note": 53,
      "start": 36.9423,
      "duration": 0.0891,
      "velocity": 95,
      "chip": "ym2612"
    },
    {
      "channel": 2,
      "note": 84,
      "start": 36.9435,
      "duration": 0.0289,
      "velocity": 92,
      "chip": "ym2612"
    },
    {
      "channel": 3,
      "note": 81,
      "start": 36.9447,
      "duration": 0.0284,
      "velocity": 92,
      "chip": "ym2612"
    },
    {
      "channel": 2,
      "note": 84,
      "start": 36.9729,
      "duration": 0.0304,
      "velocity": 92,
      "chip": "ym2612"
    },
    {
      "channel": 3,
      "note": 81,
      "start": 36.9737,
      "duration": 0.0303,
      "velocity": 92,
      "chip": "ym2612"
    },
    {
      "channel": 4,
      "note": 69,
      "start": 36.9887,
      "duration": 23.3416,
      "velocity": 101,
      "chip": "ym2612"
    },
    {
      "channel": 2,
      "note": 84,
      "start": 37.0039,
      "duration": 0.0283,
      "velocity": 92,
      "chip": "ym2612"
    },
    {
      "channel": 3,
      "note": 81,
      "start": 37.0046,
      "duration": 0.0283,
      "velocity": 92,
      "chip": "ym2612"
    },
    {
      "channel": 1,
      "note": 53,
      "start": 37.032,
      "duration": 0.0306,
      "velocity": 95,
      "chip": "ym2612"
    },
    {
      "channel": 2,
      "note": 84,
      "start": 37.0327,
      "duration": 0.0302,
      "velocity": 92,
      "chip": "ym2612"
    },
    {
      "channel": 3,
      "note": 81,
      "start": 37.0334,
      "duration": 23.2969,
      "velocity": 92,
      "chip": "ym2612"
    }
  ]
}