{
  "track_name": "03 - Hole-In-One",
  "duration_sec": 59.569,
  "sample_rate": 44100,
  "note_count": 1072,
  "unique_pitches": 45,
  "pitch_range": 59,
  "avg_note_duration": 0.24,
  "reconstruction_stats": {
    "notes_reconstructed": 1072,
    "keyon_events": 1072,
    "keyoff_events": 1070,
    "orphan_keyons": 2,
    "unique_pitches": 45,
    "pitch_range": 59,
    "avg_duration_sec": 0.24
  },
  "metadata": {
    "source": "P\\Pebble Beach Golf Links\\03 - Hole-In-One.vgz"
  },
  "notes": [
    {
      "channel": 1,
      "note": 49,
      "start": 0.0,
      "duration": 1.5836,
      "velocity": 105,
      "chip": "ym2612"
    },
    {
      "channel": 4,
      "note": 39,
      "start": 0.0056,
      "duration": 0.8403,
      "velocity": 123,
      "chip": "ym2612"
    },
    {
      "channel": 0,
      "note": 77,
      "start": 0.4222,
      "duration": 0.0731,
      "velocity": 97,
      "chip": "ym2612"
    },
    {
      "channel": 2,
      "note": 73,
      "start": 0.427,
      "duration": 0.0686,
      "velocity": 97,
      "chip": "ym2612"
    },
    {
      "channel": 3,
      "note": 68,
      "start": 0.4319,
      "duration": 0.1118,
      "velocity": 97,
      "chip": "ym2612"
    },
    {
      "channel": 0,
      "note": 78,
      "start": 0.5633,
      "duration": 0.0668,
      "velocity": 97,
      "chip": "ym2612"
    },
    {
      "channel": 2,
      "note": 75,
      "start": 0.5642,
      "duration": 0.0663,
      "velocity": 97,
      "chip": "ym2612"
    },
    {
      "channel": 3,
      "note": 70,
      "start": 0.5649,
      "duration": 0.1232,
      "velocity": 97,
      "chip": "ym2612"
    },
    {
      "channel": 5,
      "note": 77,
      "start": 0.6057,
      "duration": 0.0634,
      "velocity": 97,
      "chip": "ym2612"
    },
    {
      "channel": 0,
      "note": 79,
      "start": 0.7076,
      "duration": 0.067,
      "velocity": 97,
      "chip": "ym2612"
    },
    {
      "channel": 2,
      "note": 76,
      "start": 0.7084,
      "duration": 0.0665,
      "velocity": 97,
      "chip": "ym2612"
    },
    {
      "channel": 3,
      "note": 72,
      "start": 0.7092,
      "duration": 0.1138,
      "velocity": 97,
      "chip": "ym2612"
    },
    {
      "channel": 5,
      "note": 78,
      "start": 0.737,
      "duration": 0.0766,
      "velocity": 97,
      "chip": "ym2612"
    },
    {
      "channel": 0,
      "note": 80,
      "start": 0.8427,
      "duration": 0.9527,
      "velocity": 97,
      "chip": "ym2612"
    },
    {
      "channel": 2,
      "note": 77,
      "start": 0.8439,
      "duration": 0.952,
      "velocity": 97,
      "chip": "ym2612"
    },
    {
      "channel": 3,
      "note": 73,
      "start": 0.8448,
      "duration": 1.105,
      "velocity": 97,
      "chip": "ym2612"
    },
    {
      "channel": 4,
      "note": 39,
      "start": 0.8462,
      "duration": 0.0349,
      "velocity": 123,
      "chip": "ym2612"
    },
    {
      "channel": 4,
      "note": 39,
      "start": 0.8815,
      "duration": 0.0381,
      "velocity": 123,
      "chip": "ym2612"
    },
    {
      "channel": 5,
      "note": 79,
      "start": 0.8823,
      "duration": 0.067,
      "velocity": 97,
      "chip": "ym2612"
    },
    {
      "channel": 4,
      "note": 39,
      "start": 0.92,
      "duration": 0.0286,
      "velocity": 123,
      "chip": "ym2612"
    },
    {
      "channel": 4,
      "note": 39,
      "start": 0.9489,
      "duration": 0.0382,
      "velocity": 123,
      "chip": "ym2612"
    },
    {
      "channel": 4,
      "note": 39,
      "start": 0.9875,
      "duration": 0.0382,
      "velocity": 123,
      "chip": "ym2612"
    },
    {
      "channel": 4,
      "note": 39,
      "start": 1.0259,
      "duration": 0.0285,
      "velocity": 123,
      "chip": "ym2612"
    },
    {
      "channel": 5,
      "note": 80,
      "start": 1.0271,
      "duration": 0.9422,
      "velocity": 97,
      "chip": "ym2612"
    },
    {
      "channel": 4,
      "note": 39,
      "start": 1.0548,
      "duration": 0.0382,
      "velocity": 123,
      "chip": "ym2612"
    },
    {
      "channel": 4,
      "note": 39,
      "start": 1.0934,
      "duration": 0.0382,
      "velocity": 123,
      "chip": "ym2612"
    },
    {
      "channel": 4,
      "note": 39,
      "start": 1.1319,
      "duration": 0.0285,
      "velocity": 123,
      "chip": "ym2612"
    },
    {
      "channel": 4,
      "note": 39,
      "start": 1.1608,
      "duration": 0.0382,
      "velocity": 123,
      "chip": "ym2612"
    },
    {
      "channel": 4,
      "note": 39,
      "start": 1.1993,
      "duration": 0.0286,
      "velocity": 123,
      "chip": "ym2612"
    },
    {
      "channel": 4,
      "note": 39,
      "start": 1.2282,
      "duration": 0.0382,
      "velocity": 123,
      "chip": "ym2612"
    },
    {
      "channel": 4,
      "note": 39,
      "start": 1.2667,
      "duration": 0.0382,
      "velocity": 123,
      "chip": "ym2612"
    },
    {
      "channel": 4,
      "note": 39,
      "start": 1.3053,
      "duration": 0.0285,
      "velocity": 123,
      "chip": "ym2612"
    },
    {
      "channel": 4,
      "note": 39,
      "start": 1.3341,
      "duration": 0.0382,
      "velocity": 123,
      "chip": "ym2612"
    },
    {
      "channel": 4,
      "note": 39,
      "start": 1.3726,
      "duration": 0.0382,
      "velocity": 123,
      "chip": "ym2612"
    },
    {
      "channel": 4,
      "note": 39,
      "start": 1.4112,
      "duration": 0.0286,
      "velocity": 123,
      "chip": "ym2612"
    },
    {
      "channel": 4,
      "note": 39,
      "start": 1.4401,
      "duration": 0.0382,
      "velocity": 123,
      "chip": "ym2612"
    },
    {
      "channel": 4,
      "note": 39,
      "start": 1.4786,
      "duration": 0.0382,
      "velocity": 123,
      "chip": "ym2612"
    },
    {
      "channel": 4,
      "note": 39,
      "start": 1.5171,
      "duration": 0.0286,
      "velocity": 123,
      "chip": "ym2612"
    },
    {
      "channel": 4,
      "note": 39,
      "start": 1.5462,
      "duration": 0.0381,
      "velocity": 123,
      "chip": "ym2612"
    },
    {
      "channel": 4,
      "note": 39,
      "start": 1.5846,
      "duration": 0.038,
      "velocity": 123,
      "chip": "ym2612"
    },
    {
      "channel": 4,
      "note": 39,
      "start": 1.623,
      "duration": 0.0285,
      "velocity": 123,
      "chip": "ym2612"
    },
    {
      "channel": 4,
      "note": 39,
      "start": 1.652,
      "duration": 0.0396,
      "velocity": 123,
      "chip": "ym2612"
    },
    {
      "channel": 1,
      "note": 52,
      "start": 1.6902,
      "duration": 1.5884,
      "velocity": 105,
      "chip": "ym2612"
    },
    {
      "channel": 4,
      "note": 39,
      "start": 1.6918,
      "duration": 0.8489,
      "velocity": 123,
      "chip": "ym2612"
    },
    {
      "channel": 0,
      "note": 80,
      "start": 2.1139,
      "duration": 0.0668,
      "velocity": 97,
      "chip": "ym2612"
    },
    {
      "channel": 2,
      "note": 76,
      "start": 2.1149,
      "duration": 0.066,
      "velocity": 97,
      "chip": "ym2612"
    },
    {
      "channel": 3,
      "note": 71,
      "start": 2.1158,
      "duration": 0.1229,
      "velocity": 97,
      "chip": "ym2612"
    },
    {
      "channel": 0,
      "note": 81,
      "start": 2.2581,
      "duration": 0.067,
      "velocity": 97,
      "chip": "ym2612"
    },
    {
      "channel": 2,
      "note": 78,
      "start": 2.259,
      "duration": 0.0664,
      "velocity": 97,
      "chip": "ym2612"
    },
    {
      "channel": 3,
      "note": 73,
      "start": 2.2598,
      "duration": 0.1137,
      "velocity": 97,
      "chip": "ym2612"
    },
    {
      "channel": 5,
      "note": 80,
      "start": 2.2877,
      "duration": 0.0764,
      "velocity": 97,
      "chip": "ym2612"
    },
    {
      "channel": 0,
      "note": 82,
      "start": 2.393,
      "duration": 0.0669,
      "velocity": 97,
      "chip": "ym2612"
    },
    {
      "channel": 2,
      "note": 79,
      "start": 2.3938,
      "duration": 0.0665,
      "velocity": 97,
      "chip": "ym2612"
    },
    {
      "channel": 3,
      "note": 75,
      "start": 2.3946,
      "duration": 0.1234,
      "velocity": 97,
      "chip": "ym2612"
    },
    {
      "channel": 5,
      "note": 81,
      "start": 2.432,
      "duration": 0.0669,
      "velocity": 97,
      "chip": "ym2612"
    },
    {
      "channel": 0,
      "note": 83,
      "start": 2.5376,
      "duration": 0.9527,
      "velocity": 97,
      "chip": "ym2612"
    },
    {
      "channel": 2,
      "note": 80,
      "start": 2.5388,
      "duration": 0.9519,
      "velocity": 97,
      "chip": "ym2612"
    },
    {
      "channel": 3,
      "note": 76,
      "start": 2.5398,
      "duration": 1.105,
      "velocity": 97,
      "chip": "ym2612"
    },
    {
      "channel": 4,
      "note": 39,
      "start": 2.541,
      "duration": 0.0254,
      "velocity": 123,
      "chip": "ym2612"
    },
    {
      "channel": 4,
      "note": 39,
      "start": 2.5668,
      "duration": 0.0382,
      "velocity": 123,
      "chip": "ym2612"
    },
    {
      "channel": 5,
      "note": 82,
      "start": 2.5676,
      "duration": 0.0767,
      "velocity": 97,
      "chip": "ym2612"
    },
    {
      "channel": 4,
      "note": 39,
      "start": 2.6054,
      "duration": 0.0381,
      "velocity": 123,
      "chip": "ym2612"
    },
    {
      "channel": 4,
      "note": 39,
      "start": 2.6439,
      "duration": 0.0286,
      "velocity": 123,
      "chip": "ym2612"
    },
    {
      "channel": 4,
      "note": 39,
      "start": 2.6728,
      "duration": 0.0382,
      "velocity": 123,
      "chip": "ym2612"
    },
    {
      "channel": 4,
      "note": 39,
      "start": 2.7113,
      "duration": 0.0382,
      "velocity": 123,
      "chip": "ym2612"
    },
    {
      "channel": 5,
      "note": 83,
      "start": 2.7123,
      "duration": 0.9519,
      "velocity": 97,
      "chip": "ym2612"
    },
    {
      "channel": 4,
      "note": 39,
      "start": 2.7498,
      "duration": 0.0285,
      "velocity": 123,
      "chip": "ym2612"
    },
    {
      "channel": 4,
      "note": 39,
      "start": 2.7787,
      "duration": 0.0382,
      "velocity": 123,
      "chip": "ym2612"
    },
    {
      "channel": 4,
      "note": 39,
      "start": 2.8172,
      "duration": 0.0382,
      "velocity": 123,
      "chip": "ym2612"
    },
    {
      "channel": 4,
      "note": 39,
      "start": 2.8558,
      "duration": 0.0285,
      "velocity": 123,
      "chip": "ym2612"
    },
    {
      "channel": 4,
      "note": 39,
      "start": 2.8846,
      "duration": 0.0382,
      "velocity": 123,
      "chip": "ym2612"
    },
    {
      "channel": 4,
      "note": 39,
      "start": 2.9232,
      "duration": 0.0382,
      "velocity": 123,
      "chip": "ym2612"
    },
    {
      "channel": 4,
      "note": 39,
      "start": 2.9617,
      "duration": 0.0286,
      "velocity": 123,
      "chip": "ym2612"
    },
    {
      "channel": 4,
      "note": 39,
      "start": 2.9906,
      "duration": 0.0382,
      "velocity": 123,
      "chip": "ym2612"
    },
    {
      "channel": 4,
      "note": 39,
      "start": 3.0293,
      "duration": 0.038,
      "velocity": 123,
      "chip": "ym2612"
    },
    {
      "channel": 4,
      "note": 39,
      "start": 3.0676,
      "duration": 0.0287,
      "velocity": 123,
      "chip": "ym2612"
    },
    {
      "channel": 4,
      "note": 39,
      "start": 3.0967,
      "duration": 0.038,
      "velocity": 123,
      "chip": "ym2612"
    },
    {
      "channel": 4,
      "note": 39,
      "start": 3.135,
      "duration": 0.0382,
      "velocity": 123,
      "chip": "ym2612"
    },
    {
      "channel": 4,
      "note": 39,
      "start": 3.1736,
      "duration": 0.0285,
      "velocity": 123,
      "chip": "ym2612"
    },
    {
      "channel": 4,
      "note": 39,
      "start": 3.2025,
      "duration": 0.0382,
      "velocity": 123,
      "chip": "ym2612"
    },
    {
      "channel": 4,
      "note": 39,
      "start": 3.241,
      "duration": 0.0385,
      "velocity": 123,
      "chip": "ym2612"
    },
    {
      "channel": 4,
      "note": 39,
      "start": 3.2798,
      "duration": 0.0283,
      "velocity": 123,
      "chip": "ym2612"
    },
    {
      "channel": 4,
      "note": 39,
      "start": 3.3084,
      "duration": 0.0383,
      "velocity": 123,
      "chip": "ym2612"
    },
    {
      "channel": 4,
      "note": 39,
      "start": 3.3471,
      "duration": 0.0398,
      "velocity": 123,
      "chip": "ym2612"
    },
    {
      "channel": 1,
      "note": 49,
      "start": 3.3854,
      "duration": 0.3651,
      "velocity": 105,
      "chip": "ym2612"
    },
    {
      "channel": 4,
      "note": 39,
      "start": 3.3873,
      "duration": 0.4157,
      "velocity": 123,
      "chip": "ym2612"
    },
    {
      "channel": 0,
      "note": 77,
      "start": 3.7993,
      "duration": 0.0763,
      "velocity": 97,
      "chip": "ym2612"
    },
    {
      "channel": 1,
      "note": 51,
      "start": 3.8001,
      "duration": 0.3742,
      "velocity": 105,
      "chip": "ym2612"
    },
    {
      "channel": 2,
      "note": 73,
      "start": 3.8011,
      "duration": 0.0748,
      "velocity": 97,
      "chip": "ym2612"
    },
    {
      "channel": 3,
      "note": 68,
      "start": 3.802,
      "duration": 0.122,
      "velocity": 97,
      "chip": "ym2612"
    },
    {
      "channel": 4,
      "note": 39,
      "start": 3.8033,
      "duration": 0.0344,
      "velocity": 123,
      "chip": "ym2612"
    },
    {
      "channel": 4,
      "note": 39,
      "start": 3.8381,
      "duration": 0.0383,
      "velocity": 123,
      "chip": "ym2612"
    },
    {
      "channel": 4,
      "note": 39,
      "start": 3.8768,
      "duration": 0.0283,
      "velocity": 123,
      "chip": "ym2612"
    },
    {
      "channel": 4,
      "note": 39,
      "start": 3.9055,
      "duration": 0.0402,
      "velocity": 123,
      "chip": "ym2612"
    },
    {
      "channel": 0,
      "note": 78,
      "start": 3.9435,
      "duration": 0.067,
      "velocity": 97,
      "chip": "ym2612"
    },
    {
      "channel": 2,
      "note": 75,
      "start": 3.9443,
      "duration": 0.0665,
      "velocity": 97,
      "chip": "ym2612"
    },
    {
      "channel": 3,
      "note": 70,
      "start": 3.9451,
      "duration": 0.1234,
      "velocity": 97,
      "chip": "ym2612"
    },
    {
      "channel": 4,
      "note": 39,
      "start": 3.9462,
      "duration": 0.036,
      "velocity": 123,
      "chip": "ym2612"
    },
    {
      "channel": 4,
      "note": 39,
      "start": 3.9826,
      "duration": 0.0288,
      "velocity": 123,
      "chip": "ym2612"
    },
    {
      "channel": 5,
      "note": 77,
      "start": 3.9836,
      "duration": 0.0667,
      "velocity": 97,
      "chip": "ym2612"
    },
    {
      "channel": 4,
      "note": 39,
      "start": 4.0117,
      "duration": 0.0379,
      "velocity": 123,
      "chip": "ym2612"
    },
    {
      "channel": 4,
      "note": 39,
      "start": 4.0499,
      "duration": 0.0402,
      "velocity": 123,
      "chip": "ym2612"
    },
    {
      "channel": 0,
      "note": 79,
      "start": 4.088,
      "duration": 0.067,
      "velocity": 97,
      "chip": "ym2612"
    },
    {
      "channel": 2,
      "note": 76,
      "start": 4.0888,
      "duration": 0.0665,
      "velocity": 97,
      "chip": "ym2612"
    },
    {
      "channel": 3,
      "note": 72,
      "start": 4.0895,
      "duration": 0.1235,
      "velocity": 97,
      "chip": "ym2612"
    },
    {
      "channel": 4,
      "note": 39,
      "start": 4.0905,
      "duration": 0.0265,
      "velocity": 123,
      "chip": "ym2612"
    },
    {
      "channel": 4,
      "note": 39,
      "start": 4.1173,
      "duration": 0.0384,
      "velocity": 123,
      "chip": "ym2612"
    },
    {
      "channel": 5,
      "note": 78,
      "start": 4.1181,
      "duration": 0.0766,
      "velocity": 97,
      "chip": "ym2612"
    },
    {
      "channel": 4,
      "note": 39,
      "start": 4.1561,
      "duration": 0.0379,
      "velocity": 123,
      "chip": "ym2612"
    },
    {
      "channel": 4,
      "note": 39,
      "start": 4.1943,
      "duration": 0.0319,
      "velocity": 123,
      "chip": "ym2612"
    },
    {
      "channel": 0,
      "note": 80,
      "start": 4.2229,
      "duration": 0.2113,
      "velocity": 97,
      "chip": "ym2612"
    },
    {
      "channel": 1,
      "note": 53,
      "start": 4.2237,
      "duration": 0.3744,
      "velocity": 105,
      "chip": "ym2612"
    },
    {
      "channel": 2,
      "note": 77,
      "start": 4.2244,
      "duration": 0.2101,
      "velocity": 97,
      "chip": "ym2612"
    },
    {
      "channel": 3,
      "note": 73,
      "start": 4.2252,
      "duration": 0.3731,
      "velocity": 97,
      "chip": "ym2612"
    },
    {
      "channel": 4,
      "note": 39,
      "start": 4.2266,
      "duration": 0.4232,
      "velocity": 123,
      "chip": "ym2612"
    },
    {
      "channel": 5,
      "note": 79,
      "start": 4.2617,
      "duration": 0.0671,
      "velocity": 97,
      "chip": "ym2612"
    },
    {
      "channel": 5,
      "note": 80,
      "start": 4.4063,
      "duration": 0.2112,
      "velocity": 97,
      "chip": "ym2612"
    },
    {
      "channel": 0,
      "note": 80,
      "start": 4.6467,
      "duration": 0.0765,
      "velocity": 97,
      "chip": "ym2612"
    },
    {
      "channel": 1,
      "note": 54,
      "start": 4.6474,
      "duration": 0.3743,
      "velocity": 105,
      "chip": "ym2612"
    },
    {
      "channel": 2,
      "note": 77,
      "start": 4.6482,
      "duration": 0.0752,
      "velocity": 97,
      "chip": "ym2612"
    },
    {
      "channel": 3,
      "note": 73,
      "start": 4.649,
      "duration": 0.1226,
      "velocity": 97,
      "chip": "ym2612"
    },
    {
      "channel": 4,
      "note": 39,
      "start": 4.6502,
      "duration": 0.035,
      "velocity": 123,
      "chip": "ym2612"
    },
    {
      "channel": 4,
      "note": 39,
      "start": 4.6855,
      "duration": 0.0384,
      "velocity": 123,
      "chip": "ym2612"
    },
    {
      "channel": 4,
      "note": 39,
      "start": 4.7244,
      "duration": 0.0282,
      "velocity": 123,
      "chip": "ym2612"
    },
    {
      "channel": 4,
      "note": 39,
      "start": 4.7529,
      "duration": 0.0403,
      "velocity": 123,
      "chip": "ym2612"
    },
    {
      "channel": 0,
      "note": 79,
      "start": 4.7911,
      "duration": 0.0668,
      "velocity": 97,
      "chip": "ym2612"
    },
    {
      "channel": 2,
      "note": 76,
      "start": 4.7919,
      "duration": 0.0663,
      "velocity": 97,
      "chip": "ym2612"
    },
    {
      "channel": 3,
      "note": 72,
      "start": 4.7927,
      "duration": 0.1233,
      "velocity": 97,
      "chip": "ym2612"
    },
    {
      "channel": 4,
      "note": 39,
      "start": 4.7936,
      "duration": 0.0362,
      "velocity": 123,
      "chip": "ym2612"
    },
    {
      "channel": 4,
      "note": 39,
      "start": 4.8301,
      "duration": 0.0286,
      "velocity": 123,
      "chip": "ym2612"
    },
    {
      "channel": 5,
      "note": 80,
      "start": 4.8309,
      "duration": 0.0668,
      "velocity": 97,
      "chip": "ym2612"
    },
    {
      "channel": 4,
      "note": 39,
      "start": 4.8591,
      "duration": 0.0379,
      "velocity": 123,
      "chip": "ym2612"
    },
    {
      "channel": 4,
      "note": 39,
      "start": 4.8974,
      "duration": 0.0306,
      "velocity": 123,
      "chip": "ym2612"
    },
    {
      "channel": 0,
      "note": 78,
      "start": 4.9258,
      "duration": 0.0766,
      "velocity": 97,
      "chip": "ym2612"
    },
    {
      "channel": 2,
      "note": 75,
      "start": 4.9266,
      "duration": 0.0761,
      "velocity": 97,
      "chip": "ym2612"
    },
    {
      "channel": 3,
      "note": 70,
      "start": 4.9274,
      "duration": 0.1234,
      "velocity": 97,
      "chip": "ym2612"
    },
    {
      "channel": 4,
      "note": 39,
      "start": 4.9283,
      "duration": 0.0361,
      "velocity": 123,
      "chip": "ym2612"
    },
    {
      "channel": 4,
      "note": 39,
      "start": 4.9649,
      "duration": 0.0383,
      "velocity": 123,
      "chip": "ym2612"
    },
    {
      "channel": 5,
      "note": 79,
      "start": 4.9657,
      "duration": 0.0669,
      "velocity": 97,
      "chip": "ym2612"
    },
    {
      "channel": 4,
      "note": 39,
      "start": 5.0036,
      "duration": 0.0283,
      "velocity": 123,
      "chip": "ym2612"
    },
    {
      "channel": 4,
      "note": 39,
      "start": 5.0322,
      "duration": 0.0415,
      "velocity": 123,
      "chip": "ym2612"
    },
    {
      "channel": 0,
      "note": 77,
      "start": 5.0703,
      "duration": 0.2114,
      "velocity": 97,
      "chip": "ym2612"
    },
    {
      "channel": 1,
      "note": 53,
      "start": 5.071,
      "duration": 0.3744,
      "velocity": 105,
      "chip": "ym2612"
    },
    {
      "channel": 2,
      "note": 72,
      "start": 5.0718,
      "duration": 0.2102,
      "velocity": 97,
      "chip": "ym2612"
    },
    {
      "channel": 3,
      "note": 69,
      "start": 5.0726,
      "duration": 0.1903,
      "velocity": 97,
      "chip": "ym2612"
    },
    {
      "channel": 4,
      "note": 39,
      "start": 5.0741,
      "duration": 0.4212,
      "velocity": 123,
      "chip": "ym2612"
    },
    {
      "channel": 5,
      "note": 78,
      "start": 5.1093,
      "duration": 0.067,
      "velocity": 97,
      "chip": "ym2612"
    },
    {
      "channel": 5,
      "note": 77,
      "start": 5.2441,
      "duration": 0.2113,
      "velocity": 97,
      "chip": "ym2612"
    },
    {
      "channel": 1,
      "note": 53,
      "start": 5.4944,
      "duration": 0.3652,
      "velocity": 105,
      "chip": "ym2612"
    },
    {
      "channel": 4,
      "note": 39,
      "start": 5.4958,
      "duration": 0.4274,
      "velocity": 123,
      "chip": "ym2612"
    },
    {
      "channel": 0,
      "note": 53,
      "start": 5.9219,
      "duration": 0.3132,
      "velocity": 97,
      "chip": "ym2612"
    },
    {
      "channel": 5,
      "note": 53,
      "start": 6.0959,
      "duration": 0.313,
      "velocity": 97,
      "chip": "ym2612"
    },
    {
      "channel": 0,
      "note": 58,
      "start": 6.3416,
      "duration": 0.3173,
      "velocity": 97,
      "chip": "ym2612"
    },
    {
      "channel": 5,
      "note": 58,
      "start": 6.5154,
      "duration": 0.3173,
      "velocity": 97,
      "chip": "ym2612"
    },
    {
      "channel": 0,
      "note": 60,
      "start": 6.7653,
      "duration": 0.4714,
      "velocity": 97,
      "chip": "ym2612"
    },
    {
      "channel": 1,
      "note": 58,
      "start": 6.7695,
      "duration": 0.3614,
      "velocity": 95,
      "chip": "ym2612"
    },
    {
      "channel": 2,
      "note": 74,
      "start": 6.7742,
      "duration": 0.0775,
      "velocity": 97,
      "chip": "ym2612"
    },
    {
      "channel": 3,
      "note": 65,
      "start": 6.7754,
      "duration": 2.9481,
      "velocity": 97,
      "chip": "ym2612"
    },
    {
      "channel": 4,
      "note": 39,
      "start": 6.7766,
      "duration": 0.2011,
      "velocity": 123,
      "chip": "ym2612"
    },
    {
      "channel": 5,
      "note": 60,
      "start": 6.9391,
      "duration": 0.4714,
      "velocity": 97,
      "chip": "ym2612"
    },
    {
      "channel": 2,
      "note": 74,
      "start": 6.9773,
      "duration": 0.0863,
      "velocity": 97,
      "chip": "ym2612"
    },
    {
      "channel": 4,
      "note": 39,
      "start": 6.9782,
      "duration": 0.2118,
      "velocity": 123,
      "chip": "ym2612"
    },
    {
      "channel": 1,
      "note": 53,
      "start": 7.1892,
      "duration": 0.3655,
      "velocity": 95,
      "chip": "ym2612"
    },
    {
      "channel": 0,
      "note": 58,
      "start": 7.3912,
      "duration": 0.1633,
      "velocity": 97,
      "chip": "ym2612"
    },
    {
      "channel": 2,
      "note": 74,
      "start": 7.3921,
      "duration": 0.0952,
      "velocity": 97,
      "chip": "ym2612"
    },
    {
      "channel": 4,
      "note": 39,
      "start": 7.393,
      "duration": 0.2127,
      "velocity": 123,
      "chip": "ym2612"
    },
    {
      "channel": 5,
      "note": 58,
      "start": 7.5747,
      "duration": 0.1537,
      "velocity": 97,
      "chip": "ym2612"
    },
    {
      "channel": 0,
      "note": 62,
      "start": 7.6032,
      "duration": 1.2707,
      "velocity": 97,
      "chip": "ym2612"
    },
    {
      "channel": 1,
      "note": 58,
      "start": 7.6042,
      "duration": 0.3741,
      "velocity": 95,
      "chip": "ym2612"
    },
    {
      "channel": 2,
      "note": 74,
      "start": 7.6051,
      "duration": 0.094,
      "velocity": 97,
      "chip": "ym2612"
    },
    {
      "channel": 4,
      "note": 39,
      "start": 7.606,
      "duration": 0.2096,
      "velocity": 123,
      "chip": "ym2612"
    },
    {
      "channel": 5,
      "note": 62,
      "start": 7.7867,
      "duration": 1.261,
      "velocity": 97,
      "chip": "ym2612"
    },
    {
      "channel": 2,
      "note": 74,
      "start": 7.8151,
      "duration": 0.0959,
      "velocity": 97,
      "chip": "ym2612"
    },
    {
      "channel": 4,
      "note": 39,
      "start": 7.816,
      "duration": 0.2119,
      "velocity": 123,
      "chip": "ym2612"
    },
    {
      "channel": 1,
      "note": 53,
      "start": 8.027,
      "duration": 0.3751,
      "velocity": 95,
      "chip": "ym2612"
    },
    {
      "channel": 2,
      "note": 74,
      "start": 8.2389,
      "duration": 0.0863,
      "velocity": 97,
      "chip": "ym2612"
    },
    {
      "channel": 4,
      "note": 39,
      "start": 8.2399,
      "duration": 0.1047,
      "velocity": 123,
      "chip": "ym2612"
    },
    {
      "channel": 4,
      "note": 39,
      "start": 8.345,
      "duration": 0.1076,
      "velocity": 123,
      "chip": "ym2612"
    },
    {
      "channel": 1,
      "note": 58,
      "start": 8.4509,
      "duration": 0.3749,
      "velocity": 95,
      "chip": "ym2612"
    },
    {
      "channel": 2,
      "note": 74,
      "start": 8.4518,
      "duration": 0.0852,
      "velocity": 97,
      "chip": "ym2612"
    },
    {
      "channel": 4,
      "note": 39,
      "start": 8.453,
      "duration": 0.2102,
      "velocity": 123,
      "chip": "ym2612"
    },
    {
      "channel": 2,
      "note": 74,
      "start": 8.6628,
      "duration": 0.0861,
      "velocity": 97,
      "chip": "ym2612"
    },
    {
      "channel": 4,
      "note": 39,
      "start": 8.6637,
      "duration": 0.2118,
      "velocity": 123,
      "chip": "ym2612"
    },
    {
      "channel": 1,
      "note": 53,
      "start": 8.8747,
      "duration": 0.3653,
      "velocity": 95,
      "chip": "ym2612"
    },
    {
      "channel": 2,
      "note": 74,
      "start": 9.0864,
      "duration": 0.0863,
      "velocity": 97,
      "chip": "ym2612"
    },
    {
      "channel": 4,
      "note": 39,
      "start": 9.0873,
      "duration": 0.2135,
      "velocity": 123,
      "chip": "ym2612"
    },
    {
      "channel": 0,
      "note": 53,
      "start": 9.2983,
      "duration": 0.3171,
      "velocity": 97,
      "chip": "ym2612"
    },
    {
      "channel": 1,
      "note": 58,
      "start": 9.2993,
      "duration": 0.3643,
      "velocity": 95,
      "chip": "ym2612"
    },
    {
      "channel": 2,
      "note": 74,
      "start": 9.3002,
      "duration": 0.0843,
      "velocity": 97,
      "chip": "ym2612"
    },
    {
      "channel": 4,
      "note": 39,
      "start": 9.3011,
      "duration": 0.2096,
      "velocity": 123,
      "chip": "ym2612"
    },
    {
      "channel": 5,
      "note": 53,
      "start": 9.4721,
      "duration": 0.3171,
      "velocity": 97,
      "chip": "ym2612"
    },
    {
      "channel": 2,
      "note": 74,
      "start": 9.5102,
      "duration": 0.0863,
      "velocity": 97,
      "chip": "ym2612"
    },
    {
      "channel": 4,
      "note": 39,
      "start": 9.511,
      "duration": 0.2128,
      "velocity": 123,
      "chip": "ym2612"
    },
    {
      "channel": 0,
      "note": 58,
      "start": 9.7219,
      "duration": 0.3172,
      "velocity": 97,
      "chip": "ym2612"
    },
    {
      "channel": 1,
      "note": 53,
      "start": 9.7228,
      "duration": 0.3646,
      "velocity": 95,
      "chip": "ym2612"
    },
    {
      "channel": 5,
      "note": 58,
      "start": 9.8959,
      "duration": 0.3173,
      "velocity": 97,
      "chip": "ym2612"
    },
    {
      "channel": 2,
      "note": 74,
      "start": 9.9339,
      "duration": 0.0863,
      "velocity": 97,
      "chip": "ym2612"
    },
    {
      "channel": 4,
      "note": 39,
      "start": 9.9349,
      "duration": 0.1049,
      "velocity": 123,
      "chip": "ym2612"
    },
    {
      "channel": 4,
      "note": 39,
      "start": 10.0401,
      "duration": 0.1093,
      "velocity": 123,
      "chip": "ym2612"
    },
    {
      "channel": 0,
      "note": 60,
      "start": 10.1456,
      "duration": 0.4714,
      "velocity": 97,
      "chip": "ym2612"
    },
    {
      "channel": 1,
      "note": 58,
      "start": 10.147,
      "duration": 0.3642,
      "velocity": 95,
      "chip": "ym2612"
    },
    {
      "channel": 2,
      "note": 74,
      "start": 10.1479,
      "duration": 0.084,
      "velocity": 97,
      "chip": "ym2612"
    },
    {
      "channel": 3,
      "note": 66,
      "start": 10.1487,
      "duration": 2.9551,
      "velocity": 97,
      "chip": "ym2612"
    },
    {
      "channel": 4,
      "note": 39,
      "start": 10.1498,
      "duration": 0.2083,
      "velocity": 123,
      "chip": "ym2612"
    },
    {
      "channel": 5,
      "note": 60,
      "start": 10.3194,
      "duration": 0.4715,
      "velocity": 97,
      "chip": "ym2612"
    },
    {
      "channel": 2,
      "note": 74,
      "start": 10.3576,
      "duration": 0.0863,
      "velocity": 97,
      "chip": "ym2612"
    },
    {
      "channel": 4,
      "note": 39,
      "start": 10.3585,
      "duration": 0.2118,
      "velocity": 123,
      "chip": "ym2612"
    },
    {
      "channel": 1,
      "note": 54,
      "start": 10.5695,
      "duration": 0.3655,
      "velocity": 95,
      "chip": "ym2612"
    },
    {
      "channel": 0,
      "note": 58,
      "start": 10.7812,
      "duration": 0.1537,
      "velocity": 97,
      "chip": "ym2612"
    },
    {
      "channel": 2,
      "note": 74,
      "start": 10.782,
      "duration": 0.0856,
      "velocity": 97,
      "chip": "ym2612"
    },
    {
      "channel": 4,
      "note": 39,
      "start": 10.7829,
      "duration": 0.2127,
      "velocity": 123,
      "chip": "ym2612"
    },
    {
      "channel": 5,
      "note": 58,
      "start": 10.955,
      "duration": 0.1536,
      "velocity": 97,
      "chip": "ym2612"
    },
    {
      "channel": 0,
      "note": 62,
      "start": 10.9932,
      "duration": 1.261,
      "velocity": 97,
      "chip": "ym2612"
    },
    {
      "channel": 1,
      "note": 58,
      "start": 10.9943,
      "duration": 0.3644,
      "velocity": 95,
      "chip": "ym2612"
    },
    {
      "channel": 2,
      "note": 74,
      "start": 10.9951,
      "duration": 0.0845,
      "velocity": 97,
      "chip": "ym2612"
    },
    {
      "channel": 4,
      "note": 39,
      "start": 10.9962,
      "duration": 0.1999,
      "velocity": 123,
      "chip": "ym2612"
    },
    {
      "channel": 5,
      "note": 62,
      "start": 11.167,
      "duration": 1.261,
      "velocity": 97,
      "chip": "ym2612"
    },
    {
      "channel": 2,
      "note": 74,
      "start": 11.1955,
      "duration": 0.0959,
      "velocity": 97,
      "chip": "ym2612"
    },
    {
      "channel": 4,
      "note": 39,
      "start": 11.1965,
      "duration": 0.2117,
      "velocity": 123,
      "chip": "ym2612"
    },
    {
      "channel": 1,
      "note": 54,
      "start": 11.4074,
      "duration": 0.3751,
      "velocity": 95,
      "chip": "ym2612"
    },
    {
      "channel": 2,
      "note": 74,
      "start": 11.6192,
      "duration": 0.0863,
      "velocity": 97,
      "chip": "ym2612"
    },
    {
      "channel": 4,
      "note": 39,
      "start": 11.6203,
      "duration": 0.1047,
      "velocity": 123,
      "chip": "ym2612"
    },
    {
      "channel": 4,
      "note": 39,
      "start": 11.7254,
      "duration": 0.1076,
      "velocity": 123,
      "chip": "ym2612"
    },
    {
      "channel": 1,
      "note": 58,
      "start": 11.8312,
      "duration": 0.3749,
      "velocity": 95,
      "chip": "ym2612"
    },
    {
      "channel": 2,
      "note": 74,
      "start": 11.8321,
      "duration": 0.0852,
      "velocity": 97,
      "chip": "ym2612"
    },
    {
      "channel": 4,
      "note": 39,
      "start": 11.8333,
      "duration": 0.2102,
      "velocity": 123,
      "chip": "ym2612"
    },
    {
      "channel": 2,
      "note": 74,
      "start": 12.043,
      "duration": 0.0864,
      "velocity": 97,
      "chip": "ym2612"
    },
    {
      "channel": 4,
      "note": 39,
      "start": 12.0438,
      "duration": 0.212,
      "velocity": 123,
      "chip": "ym2612"
    },
    {
      "channel": 1,
      "note": 54,
      "start": 12.2549,
      "duration": 0.3749,
      "velocity": 95,
      "chip": "ym2612"
    },
    {
      "channel": 2,
      "note": 74,
      "start": 12.4666,
      "duration": 0.0863,
      "velocity": 97,
      "chip": "ym2612"
    },
    {
      "channel": 4,
      "note": 39,
      "start": 12.4676,
      "duration": 0.2137,
      "velocity": 123,
      "chip": "ym2612"
    },
    {
      "channel": 0,
      "note": 53,
      "start": 12.6786,
      "duration": 0.3173,
      "velocity": 97,
      "chip": "ym2612"
    },
    {
      "channel": 1,
      "note": 58,
      "start": 12.6798,
      "duration": 0.3642,
      "velocity": 95,
      "chip": "ym2612"
    },
    {
      "channel": 2,
      "note": 74,
      "start": 12.6807,
      "duration": 0.0842,
      "velocity": 97,
      "chip": "ym2612"
    },
    {
      "channel": 4,
      "note": 39,
      "start": 12.6815,
      "duration": 0.2094,
      "velocity": 123,
      "chip": "ym2612"
    },
    {
      "channel": 5,
      "note": 53,
      "start": 12.8525,
      "duration": 0.3171,
      "velocity": 97,
      "chip": "ym2612"
    },
    {
      "channel": 2,
      "note": 74,
      "start": 12.8904,
      "duration": 0.0863,
      "velocity": 97,
      "chip": "ym2612"
    },
    {
      "channel": 4,
      "note": 39,
      "start": 12.8913,
      "duration": 0.2127,
      "velocity": 123,
      "chip": "ym2612"
    },
    {
      "channel": 0,
      "note": 58,
      "start": 13.1022,
      "duration": 0.3173,
      "velocity": 97,
      "chip": "ym2612"
    },
    {
      "channel": 1,
      "note": 54,
      "start": 13.1031,
      "duration": 0.3646,
      "velocity": 95,
      "chip": "ym2612"
    },
    {
      "channel": 5,
      "note": 58,
      "start": 13.2761,
      "duration": 0.3173,
      "velocity": 97,
      "chip": "ym2612"
    },
    {
      "channel": 2,
      "note": 74,
      "start": 13.3142,
      "duration": 0.0862,
      "velocity": 97,
      "chip": "ym2612"
    },
    {
      "channel": 4,
      "note": 39,
      "start": 13.3153,
      "duration": 0.1048,
      "velocity": 123,
      "chip": "ym2612"
    },
    {
      "channel": 4,
      "note": 39,
      "start": 13.4204,
      "duration": 0.1093,
      "velocity": 123,
      "chip": "ym2612"
    },
    {
      "channel": 0,
      "note": 60,
      "start": 13.5259,
      "duration": 0.4714,
      "velocity": 97,
      "chip": "ym2612"
    },
    {
      "channel": 1,
      "note": 58,
      "start": 13.5272,
      "duration": 0.3643,
      "velocity": 95,
      "chip": "ym2612"
    },
    {
      "channel": 2,
      "note": 74,
      "start": 13.5281,
      "duration": 0.0842,
      "velocity": 97,
      "chip": "ym2612"
    },
    {
      "channel": 3,
      "note": 67,
      "start": 13.5289,
      "duration": 2.9554,
      "velocity": 97,
      "chip": "ym2612"
    },
    {
      "channel": 4,
      "note": 39,
      "start": 13.5301,
      "duration": 0.2084,
      "velocity": 123,
      "chip": "ym2612"
    },
    {
      "channel": 5,
      "note": 60,
      "start": 13.6997,
      "duration": 0.4715,
      "velocity": 97,
      "chip": "ym2612"
    },
    {
      "channel": 2,
      "note": 74,
      "start": 13.738,
      "duration": 0.0863,
      "velocity": 97,
      "chip": "ym2612"
    },
    {
      "channel": 4,
      "note": 39,
      "start": 13.7388,
      "duration": 0.2119,
      "velocity": 123,
      "chip": "ym2612"
    },
    {
      "channel": 1,
      "note": 55,
      "start": 13.9498,
      "duration": 0.3656,
      "velocity": 95,
      "chip": "ym2612"
    },
    {
      "channel": 0,
      "note": 58,
      "start": 14.1615,
      "duration": 0.1536,
      "velocity": 97,
      "chip": "ym2612"
    },
    {
      "channel": 2,
      "note": 74,
      "start": 14.1625,
      "duration": 0.0854,
      "velocity": 97,
      "chip": "ym2612"
    },
    {
      "channel": 4,
      "note": 39,
      "start": 14.1634,
      "duration": 0.2125,
      "velocity": 123,
      "chip": "ym2612"
    },
    {
      "channel": 5,
      "note": 58,
      "start": 14.3353,
      "duration": 0.1537,
      "velocity": 97,
      "chip": "ym2612"
    },
    {
      "channel": 0,
      "note": 62,
      "start": 14.3735,
      "duration": 0.6254,
      "velocity": 97,
      "chip": "ym2612"
    },
    {
      "channel": 1,
      "note": 58,
      "start": 14.3745,
      "duration": 0.3644,
      "velocity": 95,
      "chip": "ym2612"
    },
    {
      "channel": 2,
      "note": 74,
      "start": 14.3754,
      "duration": 0.0844,
      "velocity": 97,
      "chip": "ym2612"
    },
    {
      "channel": 4,
      "note": 39,
      "start": 14.3763,
      "duration": 0.2097,
      "velocity": 123,
      "chip": "ym2612"
    },
    {
      "channel": 5,
      "note": 62,
      "start": 14.5473,
      "duration": 0.635,
      "velocity": 97,
      "chip": "ym2612"
    },
    {
      "channel": 2,
      "note": 74,
      "start": 14.5854,
      "duration": 0.0863,
      "velocity": 97,
      "chip": "ym2612"
    },
    {
      "channel": 4,
      "note": 39,
      "start": 14.5863,
      "duration": 0.2022,
      "velocity": 123,
      "chip": "ym2612"
    },
    {
      "channel": 1,
      "note": 55,
      "start": 14.7877,
      "duration": 0.3751,
      "velocity": 95,
      "chip": "ym2612"
    },
    {
      "channel": 2,
      "note": 74,
      "start": 14.9997,
      "duration": 0.0957,
      "velocity": 97,
      "chip": "ym2612"
    },
    {
      "channel": 4,
      "note": 39,
      "start": 15.0007,
      "duration": 0.1045,
      "velocity": 123,
      "chip": "ym2612"
    },
    {
      "channel": 4,
      "note": 39,
      "start": 15.1056,
      "duration": 0.1085,
      "velocity": 123,
      "chip": "ym2612"
    },
    {
      "channel": 0,
      "note": 65,
      "start": 15.2112,
      "duration": 0.481,
      "velocity": 97,
      "chip": "ym2612"
    },
    {
      "channel": 1,
      "note": 58,
      "start": 15.2123,
      "duration": 0.3742,
      "velocity": 95,
      "chip": "ym2612"
    },
    {
      "channel": 2,
      "note": 74,
      "start": 15.2133,
      "duration": 0.094,
      "velocity": 97,
      "chip": "ym2612"
    },
    {
      "channel": 4,
      "note": 39,
      "start": 15.2145,
      "duration": 0.2093,
      "velocity": 123,
      "chip": "ym2612"
    },
    {
      "channel": 5,
      "note": 65,
      "start": 15.3947,
      "duration": 0.4715,
      "velocity": 97,
      "chip": "ym2612"
    },
    {
      "channel": 2,
      "note": 74,
      "start": 15.4233,
      "duration": 0.0863,
      "velocity": 97,
      "chip": "ym2612"
    },
    {
      "channel": 4,
      "note": 39,
      "start": 15.4241,
      "duration": 0.2118,
      "velocity": 123,
      "chip": "ym2612"
    },
    {
      "channel": 1,
      "note": 55,
      "start": 15.6352,
      "duration": 0.3751,
      "velocity": 95,
      "chip": "ym2612"
    },
    {
      "channel": 0,
      "note": 62,
      "start": 15.8469,
      "duration": 0.481,
      "velocity": 97,
      "chip": "ym2612"
    },
    {
      "channel": 2,
      "note": 74,
      "start": 15.8478,
      "duration": 0.0855,
      "velocity": 97,
      "chip": "ym2612"
    },
    {
      "channel": 4,
      "note": 39,
      "start": 15.8486,
      "duration": 0.2118,
      "velocity": 123,
      "chip": "ym2612"
    },
    {
      "channel": 5,
      "note": 62,
      "start": 16.0207,
      "duration": 0.4811,
      "velocity": 97,
      "chip": "ym2612"
    },
    {
      "channel": 1,
      "note": 58,
      "start": 16.059,
      "duration": 0.3749,
      "velocity": 95,
      "chip": "ym2612"
    },
    {
      "channel": 2,
      "note": 74,
      "start": 16.0599,
      "duration": 0.0852,
      "velocity": 97,
      "chip": "ym2612"
    },
    {
      "channel": 4,
      "note": 39,
      "start": 16.0608,
      "duration": 0.2105,
      "velocity": 123,
      "chip": "ym2612"
    },
    {
      "channel": 2,
      "note": 74,
      "start": 16.2708,
      "duration": 0.0862,
      "velocity": 97,
      "chip": "ym2612"
    },
    {
      "channel": 4,
      "note": 39,
      "start": 16.2717,
      "duration": 0.2128,
      "velocity": 123,
      "chip": "ym2612"
    },
    {
      "channel": 0,
      "note": 58,
      "start": 16.4826,
      "duration": 0.3173,
      "velocity": 97,
      "chip": "ym2612"
    },
    {
      "channel": 1,
      "note": 55,
      "start": 16.4834,
      "duration": 0.3646,
      "velocity": 95,
      "chip": "ym2612"
    },
    {
      "channel": 5,
      "note": 58,
      "start": 16.6564,
      "duration": 0.3173,
      "velocity": 97,
      "chip": "ym2612"
    },
    {
      "channel": 2,
      "note": 74,
      "start": 16.6945,
      "duration": 0.0863,
      "velocity": 97,
      "chip": "ym2612"
    },
    {
      "channel": 4,
      "note": 39,
      "start": 16.6956,
      "duration": 0.1048,
      "velocity": 123,
      "chip": "ym2612"
    },
    {
      "channel": 4,
      "note": 39,
      "start": 16.8007,
      "duration": 0.1092,
      "velocity": 123,
      "chip": "ym2612"
    },
    {
      "channel": 0,
      "note": 56,
      "start": 16.9062,
      "duration": 1.8968,
      "velocity": 97,
      "chip": "ym2612"
    },
    {
      "channel": 1,
      "note": 56,
      "start": 16.9073,
      "duration": 0.3645,
      "velocity": 95,
      "chip": "ym2612"
    },
    {
      "channel": 2,
      "note": 72,
      "start": 16.9083,
      "duration": 0.0844,
      "velocity": 97,
      "chip": "ym2612"
    },
    {
      "channel": 3,
      "note": 68,
      "start": 16.9091,
      "duration": 0.7388,
      "velocity": 97,
      "chip": "ym2612"
    },
    {
      "channel": 4,
      "note": 39,
      "start": 16.9102,
      "duration": 0.2085,
      "velocity": 123,
      "chip": "ym2612"
    },
    {
      "channel": 5,
      "note": 56,
      "start": 17.0802,
      "duration": 1.9062,
      "velocity": 97,
      "chip": "ym2612"
    },
    {
      "channel": 2,
      "note": 72,
      "start": 17.1182,
      "duration": 0.0863,
      "velocity": 97,
      "chip": "ym2612"
    },
    {
      "channel": 4,
      "note": 39,
      "start": 17.1191,
      "duration": 0.2118,
      "velocity": 123,
      "chip": "ym2612"
    },
    {
      "channel": 1,
      "note": 60,
      "start": 17.3301,
      "duration": 0.3655,
      "velocity": 95,
      "chip": "ym2612"
    },
    {
      "channel": 2,
      "note": 72,
      "start": 17.542,
      "duration": 0.0477,
      "velocity": 97,
      "chip": "ym2612"
    },
    {
      "channel": 4,
      "note": 39,
      "start": 17.5429,
      "duration": 0.2198,
      "velocity": 123,
      "chip": "ym2612"
    },
    {
      "channel": 1,
      "note": 63,
      "start": 17.7538,
      "duration": 0.3655,
      "velocity": 95,
      "chip": "ym2612"
    },
    {
      "channel": 2,
      "note": 56,
      "start": 17.7583,
      "duration": 0.1012,
      "velocity": 82,
      "chip": "ym2612"
    },
    {
      "channel": 3,
      "note": 65,
      "start": 17.7623,
      "duration": 0.098,
      "velocity": 82,
      "chip": "ym2612"
    },
    {
      "channel": 4,
      "note": 39,
      "start": 17.7632,
      "duration": 0.2039,
      "velocity": 123,
      "chip": "ym2612"
    },
    {
      "channel": 2,
      "note": 58,
      "start": 17.8598,
      "duration": 0.1056,
      "velocity": 82,
      "chip": "ym2612"
    },
    {
      "channel": 3,
      "note": 67,
      "start": 17.8606,
      "duration": 0.1056,
      "velocity": 82,
      "chip": "ym2612"
    },
    {
      "channel": 2,
      "note": 60,
      "start": 17.9658,
      "duration": 0.1055,
      "velocity": 82,
      "chip": "ym2612"
    },
    {
      "channel": 3,
      "note": 68,
      "start": 17.9666,
      "duration": 0.1054,
      "velocity": 82,
      "chip": "ym2612"
    },
    {
      "channel": 4,
      "note": 39,
      "start": 17.9674,
      "duration": 0.2122,
      "velocity": 123,
      "chip": "ym2612"
    },
    {
      "channel": 2,
      "note": 62,
      "start": 18.0717,
      "duration": 0.1062,
      "velocity": 82,
      "chip": "ym2612"
    },
    {
      "channel": 3,
      "note": 70,
      "start": 18.0724,
      "duration": 0.1062,
      "velocity": 82,
      "chip": "ym2612"
    },
    {
      "channel": 1,
      "note": 67,
      "start": 18.1775,
      "duration": 0.3655,
      "velocity": 95,
      "chip": "ym2612"
    },
    {
      "channel": 2,
      "note": 63,
      "start": 18.1783,
      "duration": 0.1049,
      "velocity": 82,
      "chip": "ym2612"
    },
    {
      "channel": 3,
      "note": 72,
      "start": 18.1792,
      "duration": 0.1048,
      "velocity": 82,
      "chip": "ym2612"
    },
    {
      "channel": 2,
      "note": 65,
      "start": 18.2836,
      "duration": 0.1056,
      "velocity": 82,
      "chip": "ym2612"
    },
    {
      "channel": 3,
      "note": 74,
      "start": 18.2843,
      "duration": 0.1055,
      "velocity": 82,
      "chip": "ym2612"
    },
    {
      "channel": 2,
      "note": 67,
      "start": 18.3895,
      "duration": 0.0961,
      "velocity": 82,
      "chip": "ym2612"
    },
    {
      "channel": 3,
      "note": 75,
      "start": 18.3902,
      "duration": 0.0961,
      "velocity": 82,
      "chip": "ym2612"
    },
    {
      "channel": 4,
      "note": 39,
      "start": 18.3912,
      "duration": 0.0959,
      "velocity": 123,
      "chip": "ym2612"
    },
    {
      "channel": 2,
      "note": 68,
      "start": 18.4859,
      "duration": 0.1061,
      "velocity": 82,
      "chip": "ym2612"
    },
    {
      "channel": 3,
      "note": 77,
      "start": 18.4867,
      "duration": 0.1061,
      "velocity": 82,
      "chip": "ym2612"
    },
    {
      "channel": 4,
      "note": 39,
      "start": 18.4875,
      "duration": 0.1064,
      "velocity": 123,
      "chip": "ym2612"
    },
    {
      "channel": 1,
      "note": 65,
      "start": 18.5917,
      "duration": 0.3751,
      "velocity": 95,
      "chip": "ym2612"
    },
    {
      "channel": 2,
      "note": 70,
      "start": 18.5924,
      "duration": 0.1049,
      "velocity": 82,
      "chip": "ym2612"
    },
    {
      "channel": 3,
      "note": 79,
      "start": 18.5932,
      "duration": 0.1049,
      "velocity": 82,
      "chip": "ym2612"
    },
    {
      "channel": 4,
      "note": 39,
      "start": 18.5943,
      "duration": 0.2107,
      "velocity": 123,
      "chip": "ym2612"
    },
    {
      "channel": 2,
      "note": 68,
      "start": 18.6977,
      "duration": 0.1058,
      "velocity": 82,
      "chip": "ym2612"
    },
    {
      "channel": 3,
      "note": 77,
      "start": 18.6985,
      "duration": 0.1058,
      "velocity": 82,
      "chip": "ym2612"
    },
    {
      "channel": 2,
      "note": 67,
      "start": 18.8039,
      "duration": 0.1053,
      "velocity": 82,
      "chip": "ym2612"
    },
    {
      "channel": 3,
      "note": 75,
      "start": 18.8046,
      "duration": 0.1053,
      "velocity": 82,
      "chip": "ym2612"
    },
    {
      "channel": 4,
      "note": 39,
      "start": 18.8054,
      "duration": 0.2119,
      "velocity": 123,
      "chip": "ym2612"
    },
    {
      "channel": 2,
      "note": 65,
      "start": 18.9095,
      "duration": 0.1062,
      "velocity": 82,
      "chip": "ym2612"
    },
    {
      "channel": 3,
      "note": 74,
      "start": 18.9103,
      "duration": 0.1062,
      "velocity": 82,
      "chip": "ym2612"
    },
    {
      "channel": 1,
      "note": 62,
      "start": 19.0154,
      "duration": 0.3751,
      "velocity": 95,
      "chip": "ym2612"
    },
    {
      "channel": 2,
      "note": 63,
      "start": 19.0161,
      "duration": 0.1049,
      "velocity": 82,
      "chip": "ym2612"
    },
    {
      "channel": 3,
      "note": 72,
      "start": 19.0169,
      "duration": 0.1049,
      "velocity": 82,
      "chip": "ym2612"
    },
    {
      "channel": 2,
      "note": 62,
      "start": 19.1214,
      "duration": 0.1056,
      "velocity": 82,
      "chip": "ym2612"
    },
    {
      "channel": 3,
      "note": 70,
      "start": 19.1222,
      "duration": 0.1055,
      "velocity": 82,
      "chip": "ym2612"
    },
    {
      "channel": 2,
      "note": 60,
      "start": 19.2273,
      "duration": 0.1055,
      "velocity": 82,
      "chip": "ym2612"
    },
    {
      "channel": 3,
      "note": 68,
      "start": 19.2281,
      "duration": 0.1057,
      "velocity": 82,
      "chip": "ym2612"
    },
    {
      "channel": 4,
      "note": 39,
      "start": 19.2289,
      "duration": 0.2131,
      "velocity": 123,
      "chip": "ym2612"
    },
    {
      "channel": 2,
      "note": 58,
      "start": 19.3332,
      "duration": 0.1071,
      "velocity": 82,
      "chip": "ym2612"
    },
    {
      "channel": 3,
      "note": 67,
      "start": 19.3341,
      "duration": 0.1071,
      "velocity": 82,
      "chip": "ym2612"
    },
    {
      "channel": 0,
      "note": 58,
      "start": 19.4392,
      "duration": 0.3173,
      "velocity": 97,
      "chip": "ym2612"
    },
    {
      "channel": 1,
      "note": 58,
      "start": 19.4399,
      "duration": 0.3743,
      "velocity": 95,
      "chip": "ym2612"
    },
    {
      "channel": 2,
      "note": 67,
      "start": 19.4407,
      "duration": 0.1041,
      "velocity": 82,
      "chip": "ym2612"
    },
    {
      "channel": 3,
      "note": 75,
      "start": 19.4415,
      "duration": 0.1041,
      "velocity": 82,
      "chip": "ym2612"
    },
    {
      "channel": 4,
      "note": 39,
      "start": 19.4423,
      "duration": 0.21,
      "velocity": 123,
      "chip": "ym2612"
    },
    {
      "channel": 2,
      "note": 65,
      "start": 19.5451,
      "duration": 0.1056,
      "velocity": 82,
      "chip": "ym2612"
    },
    {
      "channel": 3,
      "note": 74,
      "start": 19.5461,
      "duration": 0.1054,
      "velocity": 82,
      "chip": "ym2612"
    },
    {
      "channel": 5,
      "note": 58,
      "start": 19.6226,
      "duration": 0.3076,
      "velocity": 97,
      "chip": "ym2612"
    },
    {
      "channel": 2,
      "note": 63,
      "start": 19.6511,
      "duration": 0.1056,
      "velocity": 82,
      "chip": "ym2612"
    },
    {
      "channel": 3,
      "note": 72,
      "start": 19.6519,
      "duration": 0.1057,
      "velocity": 82,
      "chip": "ym2612"
    },
    {
      "channel": 4,
      "note": 39,
      "start": 19.6527,
      "duration": 0.2129,
      "velocity": 123,
      "chip": "ym2612"
    },
    {
      "channel": 2,
      "note": 62,
      "start": 19.7572,
      "duration": 0.1069,
      "velocity": 82,
      "chip": "ym2612"
    },
    {
      "channel": 3,
      "note": 70,
      "start": 19.7579,
      "duration": 0.1069,
      "velocity": 82,
      "chip": "ym2612"
    },
    {
      "channel": 0,
      "note": 63,
      "start": 19.8629,
      "duration": 0.3172,
      "velocity": 97,
      "chip": "ym2612"
    },
    {
      "channel": 1,
      "note": 56,
      "start": 19.8637,
      "duration": 0.3744,
      "velocity": 95,
      "chip": "ym2612"
    },
    {
      "channel": 2,
      "note": 60,
      "start": 19.8644,
      "duration": 0.1041,
      "velocity": 82,
      "chip": "ym2612"
    },
    {
      "channel": 3,
      "note": 68,
      "start": 19.8652,
      "duration": 0.1043,
      "velocity": 82,
      "chip": "ym2612"
    },
    {
      "channel": 2,
      "note": 58,
      "start": 19.9689,
      "duration": 0.1055,
      "velocity": 82,
      "chip": "ym2612"
    },
    {
      "channel": 3,
      "note": 67,
      "start": 19.9698,
      "duration": 0.1055,
      "velocity": 82,
      "chip": "ym2612"
    },
    {
      "channel": 5,
      "note": 63,
      "start": 20.0366,
      "duration": 0.3174,
      "velocity": 97,
      "chip": "ym2612"
    },
    {
      "channel": 2,
      "note": 56,
      "start": 20.0749,
      "duration": 0.1058,
      "velocity": 82,
      "chip": "ym2612"
    },
    {
      "channel": 3,
      "note": 65,
      "start": 20.0756,
      "duration": 0.1058,
      "velocity": 82,
      "chip": "ym2612"
    },
    {
      "channel": 4,
      "note": 39,
      "start": 20.0766,
      "duration": 0.1057,
      "velocity": 123,
      "chip": "ym2612"
    },
    {
      "channel": 2,
      "note": 55,
      "start": 20.181,
      "duration": 0.0573,
      "velocity": 82,
      "chip": "ym2612"
    },
    {
      "channel": 3,
      "note": 63,
      "start": 20.1818,
      "duration": 0.0569,
      "velocity": 82,
      "chip": "ym2612"
    },
    {
      "channel": 4,
      "note": 39,
      "start": 20.1826,
      "duration": 0.1149,
      "velocity": 123,
      "chip": "ym2612"
    },
    {
      "channel": 0,
      "note": 65,
      "start": 20.2865,
      "duration": 0.4715,
      "velocity": 97,
      "chip": "ym2612"
    },
    {
      "channel": 1,
      "note": 63,
      "start": 20.2876,
      "duration": 0.3645,
      "velocity": 95,
      "chip": "ym2612"
    },
    {
      "channel": 2,
      "note": 75,
      "start": 20.2925,
      "duration": 0.0805,
      "velocity": 97,
      "chip": "ym2612"
    },
    {
      "channel": 3,
      "note": 70,
      "start": 20.2967,
      "duration": 2.9479,
      "velocity": 97,
      "chip": "ym2612"
    },
    {
      "channel": 4,
      "note": 39,
      "start": 20.2978,
      "duration": 0.2013,
      "velocity": 123,
      "chip": "ym2612"
    },
    {
      "channel": 5,
      "note": 65,
      "start": 20.4604,
      "duration": 0.4811,
      "velocity": 97,
      "chip": "ym2612"
    },
    {
      "channel": 2,
      "note": 75,
      "start": 20.4986,
      "duration": 0.0863,
      "velocity": 97,
      "chip": "ym2612"
    },
    {
      "channel": 4,
      "note": 39,
      "start": 20.4995,
      "duration": 0.2117,
      "velocity": 123,
      "chip": "ym2612"
    },
    {
      "channel": 1,
      "note": 58,
      "start": 20.7104,
      "duration": 0.3656,
      "velocity": 95,
      "chip": "ym2612"
    },
    {
      "channel": 0,
      "note": 63,
      "start": 20.9221,
      "duration": 0.1536,
      "velocity": 97,
      "chip": "ym2612"
    },
    {
      "channel": 2,
      "note": 75,
      "start": 20.923,
      "duration": 0.0856,
      "velocity": 97,
      "chip": "ym2612"
    },
    {
      "channel": 4,
      "note": 39,
      "start": 20.9239,
      "duration": 0.2126,
      "velocity": 123,
      "chip": "ym2612"
    },
    {
      "channel": 5,
      "note": 63,
      "start": 21.0961,
      "duration": 0.1632,
      "velocity": 97,
      "chip": "ym2612"
    },
    {
      "channel": 0,
      "note": 67,
      "start": 21.1341,
      "duration": 1.261,
      "velocity": 97,
      "chip": "ym2612"
    },
    {
      "channel": 1,
      "note": 63,
      "start": 21.1351,
      "duration": 0.3646,
      "velocity": 95,
      "chip": "ym2612"
    },
    {
      "channel": 2,
      "note": 75,
      "start": 21.136,
      "duration": 0.0845,
      "velocity": 97,
      "chip": "ym2612"
    },
    {
      "channel": 4,
      "note": 39,
      "start": 21.1368,
      "duration": 0.2099,
      "velocity": 123,
      "chip": "ym2612"
    },
    {
      "channel": 5,
      "note": 67,
      "start": 21.308,
      "duration": 1.2706,
      "velocity": 97,
      "chip": "ym2612"
    },
    {
      "channel": 2,
      "note": 75,
      "start": 21.3462,
      "duration": 0.0861,
      "velocity": 97,
      "chip": "ym2612"
    },
    {
      "channel": 4,
      "note": 39,
      "start": 21.3471,
      "duration": 0.2116,
      "velocity": 123,
      "chip": "ym2612"
    },
    {
      "channel": 1,
      "note": 58,
      "start": 21.5579,
      "duration": 0.3655,
      "velocity": 95,
      "chip": "ym2612"
    },
    {
      "channel": 2,
      "note": 75,
      "start": 21.7698,
      "duration": 0.0863,
      "velocity": 97,
      "chip": "ym2612"
    },
    {
      "channel": 4,
      "note": 39,
      "start": 21.7708,
      "duration": 0.1047,
      "velocity": 123,
      "chip": "ym2612"
    },
    {
      "channel": 4,
      "note": 39,
      "start": 21.8759,
      "duration": 0.1075,
      "velocity": 123,
      "chip": "ym2612"
    },
    {
      "channel": 1,
      "note": 63,
      "start": 21.9817,
      "duration": 0.3654,
      "velocity": 95,
      "chip": "ym2612"
    },
    {
      "channel": 2,
      "note": 75,
      "start": 21.9826,
      "duration": 0.0853,
      "velocity": 97,
      "chip": "ym2612"
    },
    {
      "channel": 4,
      "note": 39,
      "start": 21.9838,
      "duration": 0.2006,
      "velocity": 123,
      "chip": "ym2612"
    },
    {
      "channel": 2,
      "note": 75,
      "start": 22.1839,
      "duration": 0.0959,
      "velocity": 97,
      "chip": "ym2612"
    },
    {
      "channel": 4,
      "note": 39,
      "start": 22.1848,
      "duration": 0.212,
      "velocity": 123,
      "chip": "ym2612"
    },
    {
      "channel": 1,
      "note": 58,
      "start": 22.396,
      "duration": 0.3749,
      "velocity": 95,
      "chip": "ym2612"
    },
    {
      "channel": 2,
      "note": 75,
      "start": 22.6076,
      "duration": 0.0959,
      "velocity": 97,
      "chip": "ym2612"
    },
    {
      "channel": 4,
      "note": 39,
      "start": 22.6085,
      "duration": 0.2133,
      "velocity": 123,
      "chip": "ym2612"
    },
    {
      "channel": 0,
      "note": 58,
      "start": 22.8195,
      "duration": 0.3173,
      "velocity": 97,
      "chip": "ym2612"
    },
    {
      "channel": 1,
      "note": 63,
      "start": 22.8204,
      "duration": 0.3742,
      "velocity": 95,
      "chip": "ym2612"
    },
    {
      "channel": 2,
      "note": 75,
      "start": 22.8213,
      "duration": 0.0845,
      "velocity": 97,
      "chip": "ym2612"
    },
    {
      "channel": 4,
      "note": 39,
      "start": 22.8221,
      "duration": 0.2098,
      "velocity": 123,
      "chip": "ym2612"
    },
    {
      "channel": 5,
      "note": 58,
      "start": 23.003,
      "duration": 0.3172,
      "velocity": 97,
      "chip": "ym2612"
    },
    {
      "channel": 2,
      "note": 75,
      "start": 23.0314,
      "duration": 0.0863,
      "velocity": 97,
      "chip": "ym2612"
    },
    {
      "channel": 4,
      "note": 39,
      "start": 23.0323,
      "duration": 0.2125,
      "velocity": 123,
      "chip": "ym2612"
    },
    {
      "channel": 0,
      "note": 63,
      "start": 23.243,
      "duration": 0.3174,
      "velocity": 97,
      "chip": "ym2612"
    },
    {
      "channel": 1,
      "note": 58,
      "start": 23.2438,
      "duration": 0.3746,
      "velocity": 95,
      "chip": "ym2612"
    },
    {
      "channel": 5,
      "note": 63,
      "start": 23.4169,
      "duration": 0.3174,
      "velocity": 97,
      "chip": "ym2612"
    },
    {
      "channel": 2,
      "note": 75,
      "start": 23.4551,
      "duration": 0.0863,
      "velocity": 97,
      "chip": "ym2612"
    },
    {
      "channel": 4,
      "note": 39,
      "start": 23.4562,
      "duration": 0.1048,
      "velocity": 123,
      "chip": "ym2612"
    },
    {
      "channel": 4,
      "note": 39,
      "start": 23.5614,
      "duration": 0.1091,
      "velocity": 123,
      "chip": "ym2612"
    },
    {
      "channel": 0,
      "note": 65,
      "start": 23.6668,
      "duration": 0.4714,
      "velocity": 97,
      "chip": "ym2612"
    },
    {
      "channel": 1,
      "note": 63,
      "start": 23.668,
      "duration": 0.3644,
      "velocity": 95,
      "chip": "ym2612"
    },
    {
      "channel": 2,
      "note": 75,
      "start": 23.6689,
      "duration": 0.0844,
      "velocity": 97,
      "chip": "ym2612"
    },
    {
      "channel": 3,
      "note": 71,
      "start": 23.6697,
      "duration": 2.9551,
      "velocity": 97,
      "chip": "ym2612"
    },
    {
      "channel": 4,
      "note": 39,
      "start": 23.6708,
      "duration": 0.2087,
      "velocity": 123,
      "chip": "ym2612"
    },
    {
      "channel": 5,
      "note": 65,
      "start": 23.8407,
      "duration": 0.4811,
      "velocity": 97,
      "chip": "ym2612"
    },
    {
      "channel": 2,
      "note": 75,
      "start": 23.8789,
      "duration": 0.0863,
      "velocity": 97,
      "chip": "ym2612"
    },
    {
      "channel": 4,
      "note": 39,
      "start": 23.8799,
      "duration": 0.2116,
      "velocity": 123,
      "chip": "ym2612"
    },
    {
      "channel": 1,
      "note": 59,
      "start": 24.0907,
      "duration": 0.3656,
      "velocity": 95,
      "chip": "ym2612"
    },
    {
      "channel": 0,
      "note": 63,
      "start": 24.3025,
      "duration": 0.1536,
      "velocity": 97,
      "chip": "ym2612"
    },
    {
      "channel": 2,
      "note": 75,
      "start": 24.3034,
      "duration": 0.0856,
      "velocity": 97,
      "chip": "ym2612"
    },
    {
      "channel": 4,
      "note": 39,
      "start": 24.3042,
      "duration": 0.2126,
      "velocity": 123,
      "chip": "ym2612"
    },
    {
      "channel": 5,
      "note": 63,
      "start": 24.4763,
      "duration": 0.1633,
      "velocity": 97,
      "chip": "ym2612"
    },
    {
      "channel": 0,
      "note": 67,
      "start": 24.5145,
      "duration": 1.2706,
      "velocity": 97,
      "chip": "ym2612"
    },
    {
      "channel": 1,
      "note": 63,
      "start": 24.5154,
      "duration": 0.3645,
      "velocity": 95,
      "chip": "ym2612"
    },
    {
      "channel": 2,
      "note": 75,
      "start": 24.5163,
      "duration": 0.0844,
      "velocity": 97,
      "chip": "ym2612"
    },
    {
      "channel": 4,
      "note": 39,
      "start": 24.5172,
      "duration": 0.2097,
      "velocity": 123,
      "chip": "ym2612"
    },
    {
      "channel": 5,
      "note": 67,
      "start": 24.6883,
      "duration": 1.2706,
      "velocity": 97,
      "chip": "ym2612"
    },
    {
      "channel": 2,
      "note": 75,
      "start": 24.7264,
      "duration": 0.0864,
      "velocity": 97,
      "chip": "ym2612"
    },
    {
      "channel": 4,
      "note": 39,
      "start": 24.7273,
      "duration": 0.2118,
      "velocity": 123,
      "chip": "ym2612"
    },
    {
      "channel": 1,
      "note": 59,
      "start": 24.9381,
      "duration": 0.3655,
      "velocity": 95,
      "chip": "ym2612"
    },
    {
      "channel": 2,
      "note": 75,
      "start": 25.1502,
      "duration": 0.0862,
      "velocity": 97,
      "chip": "ym2612"
    },
    {
      "channel": 4,
      "note": 39,
      "start": 25.1512,
      "duration": 0.1047,
      "velocity": 123,
      "chip": "ym2612"
    },
    {
      "channel": 4,
      "note": 39,
      "start": 25.2563,
      "duration": 0.1076,
      "velocity": 123,
      "chip": "ym2612"
    },
    {
      "channel": 1,
      "note": 63,
      "start": 25.3621,
      "duration": 0.3654,
      "velocity": 95,
      "chip": "ym2612"
    },
    {
      "channel": 2,
      "note": 75,
      "start": 25.3631,
      "duration": 0.0852,
      "velocity": 97,
      "chip": "ym2612"
    },
    {
      "channel": 4,
      "note": 39,
      "start": 25.3643,
      "duration": 0.2101,
      "velocity": 123,
      "chip": "ym2612"
    },
    {
      "channel": 2,
      "note": 75,
      "start": 25.5739,
      "duration": 0.0863,
      "velocity": 97,
      "chip": "ym2612"
    },
    {
      "channel": 4,
      "note": 39,
      "start": 25.5747,
      "duration": 0.2119,
      "velocity": 123,
      "chip": "ym2612"
    },
    {
      "channel": 1,
      "note": 59,
      "start": 25.7857,
      "duration": 0.3655,
      "velocity": 95,
      "chip": "ym2612"
    },
    {
      "channel": 2,
      "note": 75,
      "start": 25.988,
      "duration": 0.0959,
      "velocity": 97,
      "chip": "ym2612"
    },
    {
      "channel": 4,
      "note": 39,
      "start": 25.9888,
      "duration": 0.2132,
      "velocity": 123,
      "chip": "ym2612"
    },
    {
      "channel": 0,
      "note": 58,
      "start": 26.1998,
      "duration": 0.3172,
      "velocity": 97,
      "chip": "ym2612"
    },
    {
      "channel": 1,
      "note": 63,
      "start": 26.2007,
      "duration": 0.3742,
      "velocity": 95,
      "chip": "ym2612"
    },
    {
      "channel": 2,
      "note": 75,
      "start": 26.2016,
      "duration": 0.0944,
      "velocity": 97,
      "chip": "ym2612"
    },
    {
      "channel": 4,
      "note": 39,
      "start": 26.2025,
      "duration": 0.2098,
      "velocity": 123,
      "chip": "ym2612"
    },
    {
      "channel": 5,
      "note": 58,
      "start": 26.3833,
      "duration": 0.3172,
      "velocity": 97,
      "chip": "ym2612"
    },
    {
      "channel": 2,
      "note": 75,
      "start": 26.4117,
      "duration": 0.0863,
      "velocity": 97,
      "chip": "ym2612"
    },
    {
      "channel": 4,
      "note": 39,
      "start": 26.4128,
      "duration": 0.2123,
      "velocity": 123,
      "chip": "ym2612"
    },
    {
      "channel": 0,
      "note": 63,
      "start": 26.6234,
      "duration": 0.3173,
      "velocity": 97,
      "chip": "ym2612"
    },
    {
      "channel": 1,
      "note": 59,
      "start": 26.6241,
      "duration": 0.3745,
      "velocity": 95,
      "chip": "ym2612"
    },
    {
      "channel": 5,
      "note": 63,
      "start": 26.8068,
      "duration": 0.3078,
      "velocity": 97,
      "chip": "ym2612"
    },
    {
      "channel": 2,
      "note": 75,
      "start": 26.8355,
      "duration": 0.0863,
      "velocity": 97,
      "chip": "ym2612"
    },
    {
      "channel": 4,
      "note": 39,
      "start": 26.8366,
      "duration": 0.1048,
      "velocity": 123,
      "chip": "ym2612"
    },
    {
      "channel": 4,
      "note": 39,
      "start": 26.9417,
      "duration": 0.109,
      "velocity": 123,
      "chip": "ym2612"
    },
    {
      "channel": 0,
      "note": 65,
      "start": 27.0472,
      "duration": 0.481,
      "velocity": 97,
      "chip": "ym2612"
    },
    {
      "channel": 1,
      "note": 63,
      "start": 27.0484,
      "duration": 0.3741,
      "velocity": 95,
      "chip": "ym2612"
    },
    {
      "channel": 2,
      "note": 75,
      "start": 27.0493,
      "duration": 0.0844,
      "velocity": 97,
      "chip": "ym2612"
    },
    {
      "channel": 3,
      "note": 72,
      "start": 27.05,
      "duration": 2.9551,
      "velocity": 97,
      "chip": "ym2612"
    },
    {
      "channel": 4,
      "note": 39,
      "start": 27.0511,
      "duration": 0.2086,
      "velocity": 123,
      "chip": "ym2612"
    },
    {
      "channel": 5,
      "note": 65,
      "start": 27.221,
      "duration": 0.481,
      "velocity": 97,
      "chip": "ym2612"
    },
    {
      "channel": 2,
      "note": 75,
      "start": 27.2592,
      "duration": 0.0863,
      "velocity": 97,
      "chip": "ym2612"
    },
    {
      "channel": 4,
      "note": 39,
      "start": 27.2601,
      "duration": 0.2118,
      "velocity": 123,
      "chip": "ym2612"
    },
    {
      "channel": 1,
      "note": 60,
      "start": 27.471,
      "duration": 0.3656,
      "velocity": 95,
      "chip": "ym2612"
    },
    {
      "channel": 0,
      "note": 63,
      "start": 27.6828,
      "duration": 0.1536,
      "velocity": 97,
      "chip": "ym2612"
    },
    {
      "channel": 2,
      "note": 75,
      "start": 27.6837,
      "duration": 0.0855,
      "velocity": 97,
      "chip": "ym2612"
    },
    {
      "channel": 4,
      "note": 39,
      "start": 27.6845,
      "duration": 0.2127,
      "velocity": 123,
      "chip": "ym2612"
    },
    {
      "channel": 5,
      "note": 63,
      "start": 27.8566,
      "duration": 0.1633,
      "velocity": 97,
      "chip": "ym2612"
    },
    {
      "channel": 0,
      "note": 67,
      "start": 27.8948,
      "duration": 0.6351,
      "velocity": 97,
      "chip": "ym2612"
    },
    {
      "channel": 1,
      "note": 63,
      "start": 27.8959,
      "duration": 0.3644,
      "velocity": 95,
      "chip": "ym2612"
    },
    {
      "channel": 2,
      "note": 75,
      "start": 27.8967,
      "duration": 0.0844,
      "velocity": 97,
      "chip": "ym2612"
    },
    {
      "channel": 4,
      "note": 39,
      "start": 27.8976,
      "duration": 0.2096,
      "velocity": 123,
      "chip": "ym2612"
    },
    {
      "channel": 5,
      "note": 67,
      "start": 28.0686,
      "duration": 0.635,
      "velocity": 97,
      "chip": "ym2612"
    },
    {
      "channel": 2,
      "note": 75,
      "start": 28.1067,
      "duration": 0.0863,
      "velocity": 97,
      "chip": "ym2612"
    },
    {
      "channel": 4,
      "note": 39,
      "start": 28.1076,
      "duration": 0.2118,
      "velocity": 123,
      "chip": "ym2612"
    },
    {
      "channel": 1,
      "note": 60,
      "start": 28.3185,
      "duration": 0.3655,
      "velocity": 95,
      "chip": "ym2612"
    },
    {
      "channel": 2,
      "note": 75,
      "start": 28.5306,
      "duration": 0.0861,
      "velocity": 97,
      "chip": "ym2612"
    },
    {
      "channel": 4,
      "note": 39,
      "start": 28.5317,
      "duration": 0.1045,
      "velocity": 123,
      "chip": "ym2612"
    },
    {
      "channel": 4,
      "note": 39,
      "start": 28.6366,
      "duration": 0.1083,
      "velocity": 123,
      "chip": "ym2612"
    },
    {
      "channel": 0,
      "note": 70,
      "start": 28.7422,
      "duration": 0.4714,
      "velocity": 97,
      "chip": "ym2612"
    },
    {
      "channel": 1,
      "note": 63,
      "start": 28.7432,
      "duration": 0.3646,
      "velocity": 95,
      "chip": "ym2612"
    },
    {
      "channel": 2,
      "note": 75,
      "start": 28.7441,
      "duration": 0.0846,
      "velocity": 97,
      "chip": "ym2612"
    },
    {
      "channel": 4,
      "note": 39,
      "start": 28.7453,
      "duration": 0.2094,
      "velocity": 123,
      "chip": "ym2612"
    },
    {
      "channel": 5,
      "note": 70,
      "start": 28.9161,
      "duration": 0.4714,
      "velocity": 97,
      "chip": "ym2612"
    },
    {
      "channel": 2,
      "note": 75,
      "start": 28.9542,
      "duration": 0.0863,
      "velocity": 97,
      "chip": "ym2612"
    },
    {
      "channel": 4,
      "note": 39,
      "start": 28.9551,
      "duration": 0.2118,
      "velocity": 123,
      "chip": "ym2612"
    },
    {
      "channel": 1,
      "note": 60,
      "start": 29.1659,
      "duration": 0.3655,
      "velocity": 95,
      "chip": "ym2612"
    },
    {
      "channel": 0,
      "note": 67,
      "start": 29.3778,
      "duration": 0.4714,
      "velocity": 97,
      "chip": "ym2612"
    },
    {
      "channel": 2,
      "note": 75,
      "start": 29.3787,
      "duration": 0.0854,
      "velocity": 97,
      "chip": "ym2612"
    },
    {
      "channel": 4,
      "note": 39,
      "start": 29.3798,
      "duration": 0.2019,
      "velocity": 123,
      "chip": "ym2612"
    },
    {
      "channel": 5,
      "note": 67,
      "start": 29.5517,
      "duration": 0.4713,
      "velocity": 97,
      "chip": "ym2612"
    },
    {
      "channel": 1,
      "note": 63,
      "start": 29.5803,
      "duration": 0.375,
      "velocity": 95,
      "chip": "ym2612"
    },
    {
      "channel": 2,
      "note": 75,
      "start": 29.5812,
      "duration": 0.0949,
      "velocity": 97,
      "chip": "ym2612"
    },
    {
      "channel": 4,
      "note": 39,
      "start": 29.582,
      "duration": 0.2106,
      "velocity": 123,
      "chip": "ym2612"
    },
    {
      "channel": 2,
      "note": 75,
      "start": 29.792,
      "duration": 0.0959,
      "velocity": 97,
      "chip": "ym2612"
    },
    {
      "channel": 4,
      "note": 39,
      "start": 29.7929,
      "duration": 0.2125,
      "velocity": 123,
      "chip": "ym2612"
    },
    {
      "channel": 0,
      "note": 63,
      "start": 30.0037,
      "duration": 0.3174,
      "velocity": 97,
      "chip": "ym2612"
    },
    {
      "channel": 1,
      "note": 60,
      "start": 30.0045,
      "duration": 0.3745,
      "velocity": 95,
      "chip": "ym2612"
    },
    {
      "channel": 5,
      "note": 63,
      "start": 30.1872,
      "duration": 0.3174,
      "velocity": 97,
      "chip": "ym2612"
    },
    {
      "channel": 2,
      "note": 75,
      "start": 30.2158,
      "duration": 0.0863,
      "velocity": 97,
      "chip": "ym2612"
    },
    {
      "channel": 4,
      "note": 39,
      "start": 30.2168,
      "duration": 0.1048,
      "velocity": 123,
      "chip": "ym2612"
    },
    {
      "channel": 4,
      "note": 39,
      "start": 30.322,
      "duration": 0.1091,
      "velocity": 123,
      "chip": "ym2612"
    },
    {
      "channel": 0,
      "note": 60,
      "start": 30.4275,
      "duration": 1.2708,
      "velocity": 97,
      "chip": "ym2612"
    },
    {
      "channel": 1,
      "note": 65,
      "start": 30.4285,
      "duration": 0.3742,
      "velocity": 95,
      "chip": "ym2612"
    },
    {
      "channel": 2,
      "note": 75,
      "start": 30.4296,
      "duration": 0.0844,
      "velocity": 97,
      "chip": "ym2612"
    },
    {
      "channel": 3,
      "note": 69,
      "start": 30.4303,
      "duration": 0.7389,
      "velocity": 97,
      "chip": "ym2612"
    },
    {
      "channel": 4,
      "note": 39,
      "start": 30.4315,
      "duration": 0.2086,
      "velocity": 123,
      "chip": "ym2612"
    },
    {
      "channel": 5,
      "note": 60,
      "start": 30.611,
      "duration": 1.2611,
      "velocity": 97,
      "chip": "ym2612"
    },
    {
      "channel": 2,
      "note": 75,
      "start": 30.6395,
      "duration": 0.0863,
      "velocity": 97,
      "chip": "ym2612"
    },
    {
      "channel": 4,
      "note": 39,
      "start": 30.6404,
      "duration": 0.2118,
      "velocity": 123,
      "chip": "ym2612"
    },
    {
      "channel": 1,
      "note": 63,
      "start": 30.8513,
      "duration": 0.3751,
      "velocity": 95,
      "chip": "ym2612"
    },
    {
      "channel": 2,
      "note": 75,
      "start": 31.0635,
      "duration": 0.0572,
      "velocity": 97,
      "chip": "ym2612"
    },
    {
      "channel": 4,
      "note": 39,
      "start": 31.0644,
      "duration": 0.2199,
      "velocity": 123,
      "chip": "ym2612"
    },
    {
      "channel": 1,
      "note": 60,
      "start": 31.2751,
      "duration": 0.3655,
      "velocity": 95,
      "chip": "ym2612"
    },
    {
      "channel": 2,
      "note": 53,
      "start": 31.2798,
      "duration": 0.0816,
      "velocity": 82,
      "chip": "ym2612"
    },
    {
      "channel": 3,
      "note": 60,
      "start": 31.2838,
      "duration": 0.0976,
      "velocity": 82,
      "chip": "ym2612"
    },
    {
      "channel": 4,
      "note": 39,
      "start": 31.2846,
      "duration": 0.2037,
      "velocity": 123,
      "chip": "ym2612"
    },
    {
      "channel": 2,
      "note": 55,
      "start": 31.3811,
      "duration": 0.0863,
      "velocity": 82,
      "chip": "ym2612"
    },
    {
      "channel": 3,
      "note": 64,
      "start": 31.3819,
      "duration": 0.1056,
      "velocity": 82,
      "chip": "ym2612"
    },
    {
      "channel": 2,
      "note": 57,
      "start": 31.4871,
      "duration": 0.0861,
      "velocity": 82,
      "chip": "ym2612"
    },
    {
      "channel": 3,
      "note": 65,
      "start": 31.4879,
      "duration": 0.1055,
      "velocity": 82,
      "chip": "ym2612"
    },
    {
      "channel": 4,
      "note": 39,
      "start": 31.4887,
      "duration": 0.2123,
      "velocity": 123,
      "chip": "ym2612"
    },
    {
      "channel": 2,
      "note": 58,
      "start": 31.593,
      "duration": 0.0863,
      "velocity": 82,
      "chip": "ym2612"
    },
    {
      "channel": 3,
      "note": 67,
      "start": 31.5937,
      "duration": 0.1065,
      "velocity": 82,
      "chip": "ym2612"
    },
    {
      "channel": 1,
      "note": 58,
      "start": 31.6989,
      "duration": 0.3654,
      "velocity": 95,
      "chip": "ym2612"
    },
    {
      "channel": 2,
      "note": 60,
      "start": 31.6997,
      "duration": 0.0855,
      "velocity": 82,
      "chip": "ym2612"
    },
    {
      "channel": 3,
      "note": 69,
      "start": 31.7006,
      "duration": 0.1046,
      "velocity": 82,
      "chip": "ym2612"
    },
    {
      "channel": 2,
      "note": 62,
      "start": 31.8048,
      "duration": 0.0863,
      "velocity": 82,
      "chip": "ym2612"
    },
    {
      "channel": 3,
      "note": 70,
      "start": 31.8056,
      "duration": 0.1056,
      "velocity": 82,
      "chip": "ym2612"
    },
    {
      "channel": 2,
      "note": 63,
      "start": 31.9107,
      "duration": 0.0863,
      "velocity": 82,
      "chip": "ym2612"
    },
    {
      "channel": 3,
      "note": 72,
      "start": 31.9115,
      "duration": 0.1056,
      "velocity": 82,
      "chip": "ym2612"
    },
    {
      "channel": 4,
      "note": 39,
      "start": 31.9127,
      "duration": 0.1052,
      "velocity": 123,
      "chip": "ym2612"
    },
    {
      "channel": 2,
      "note": 64,
      "start": 32.0167,
      "duration": 0.0862,
      "velocity": 82,
      "chip": "ym2612"
    },
    {
      "channel": 3,
      "note": 73,
      "start": 32.0175,
      "duration": 0.1114,
      "velocity": 82,
      "chip": "ym2612"
    },
    {
      "channel": 4,
      "note": 39,
      "start": 32.0182,
      "duration": 0.1122,
      "velocity": 123,
      "chip": "ym2612"
    },
    {
      "channel": 0,
      "note": 84,
      "start": 32.1266,
      "duration": 0.1495,
      "velocity": 97,
      "chip": "ym2612"
    },
    {
      "channel": 1,
      "note": 57,
      "start": 32.1273,
      "duration": 0.3607,
      "velocity": 95,
      "chip": "ym2612"
    },
    {
      "channel": 2,
      "note": 65,
      "start": 32.1283,
      "duration": 0.0422,
      "velocity": 82,
      "chip": "ym2612"
    },
    {
      "channel": 3,
      "note": 72,
      "start": 32.1294,
      "duration": 0.0419,
      "velocity": 82,
      "chip": "ym2612"
    },
    {
      "channel": 4,
      "note": 39,
      "start": 32.1308,
      "duration": 0.0207,
      "velocity": 123,
      "chip": "ym2612"
    },
    {
      "channel": 4,
      "note": 39,
      "start": 32.1519,
      "duration": 0.0382,
      "velocity": 123,
      "chip": "ym2612"
    },
    {
      "channel": 2,
      "note": 67,
      "start": 32.1708,
      "duration": 0.0576,
      "velocity": 82,
      "chip": "ym2612"
    },
    {
      "channel": 3,
      "note": 75,
      "start": 32.1715,
      "duration": 0.0577,
      "velocity": 82,
      "chip": "ym2612"
    },
    {
      "channel": 4,
      "note": 39,
      "start": 32.1904,
      "duration": 0.0398,
      "velocity": 123,
      "chip": "ym2612"
    },
    {
      "channel": 2,
      "note": 69,
      "start": 32.2287,
      "duration": 0.0478,
      "velocity": 82,
      "chip": "ym2612"
    },
    {
      "channel": 3,
      "note": 77,
      "start": 32.2296,
      "duration": 0.0476,
      "velocity": 82,
      "chip": "ym2612"
    },
    {
      "channel": 4,
      "note": 39,
      "start": 32.2305,
      "duration": 0.027,
      "velocity": 123,
      "chip": "ym2612"
    },
    {
      "channel": 4,
      "note": 39,
      "start": 32.2578,
      "duration": 0.0383,
      "velocity": 123,
      "chip": "ym2612"
    },
    {
      "channel": 2,
      "note": 70,
      "start": 32.2768,
      "duration": 0.0576,
      "velocity": 82,
      "chip": "ym2612"
    },
    {
      "channel": 3,
      "note": 79,
      "start": 32.2777,
      "duration": 0.0576,
      "velocity": 82,
      "chip": "ym2612"
    },
    {
      "channel": 4,
      "note": 39,
      "start": 32.2965,
      "duration": 0.0398,
      "velocity": 123,
      "chip": "ym2612"
    },
    {
      "channel": 5,
      "note": 84,
      "start": 32.3014,
      "duration": 0.1582,
      "velocity": 97,
      "chip": "ym2612"
    },
    {
      "channel": 2,
      "note": 72,
      "start": 32.3348,
      "duration": 0.0475,
      "velocity": 82,
      "chip": "ym2612"
    },
    {
      "channel": 3,
      "note": 81,
      "start": 32.3357,
      "duration": 0.0474,
      "velocity": 82,
      "chip": "ym2612"
    },
    {
      "channel": 4,
      "note": 39,
      "start": 32.3366,
      "duration": 0.027,
      "velocity": 123,
      "chip": "ym2612"
    },
    {
      "channel": 4,
      "note": 39,
      "start": 32.3639,
      "duration": 0.038,
      "velocity": 123,
      "chip": "ym2612"
    },
    {
      "channel": 2,
      "note": 74,
      "start": 32.3827,
      "duration": 0.0574,
      "velocity": 82,
      "chip": "ym2612"
    },
    {
      "channel": 3,
      "note": 82,
      "start": 32.3834,
      "duration": 0.0574,
      "velocity": 82,
      "chip": "ym2612"
    },
    {
      "channel": 4,
      "note": 39,
      "start": 32.4023,
      "duration": 0.0395,
      "velocity": 123,
      "chip": "ym2612"
    },
    {
      "channel": 2,
      "note": 75,
      "start": 32.4404,
      "duration": 0.0479,
      "velocity": 82,
      "chip": "ym2612"
    },
    {
      "channel": 3,
      "note": 84,
      "start": 32.4412,
      "duration": 0.0479,
      "velocity": 82,
      "chip": "ym2612"
    },
    {
      "channel": 4,
      "note": 39,
      "start": 32.4421,
      "duration": 0.0272,
      "velocity": 123,
      "chip": "ym2612"
    },
    {
      "channel": 4,
      "note": 39,
      "start": 32.4697,
      "duration": 0.0381,
      "velocity": 123,
      "chip": "ym2612"
    },
    {
      "channel": 2,
      "note": 76,
      "start": 32.4887,
      "duration": 0.0588,
      "velocity": 82,
      "chip": "ym2612"
    },
    {
      "channel": 3,
      "note": 85,
      "start": 32.4895,
      "duration": 0.0592,
      "velocity": 82,
      "chip": "ym2612"
    },
    {
      "channel": 0,
      "note": 89,
      "start": 32.5463,
      "duration": 0.0861,
      "velocity": 97,
      "chip": "ym2612"
    },
    {
      "channel": 1,
      "note": 65,
      "start": 32.5471,
      "duration": 0.3647,
      "velocity": 95,
      "chip": "ym2612"
    },
    {
      "channel": 2,
      "note": 77,
      "start": 32.5479,
      "duration": 0.1521,
      "velocity": 82,
      "chip": "ym2612"
    },
    {
      "channel": 3,
      "note": 84,
      "start": 32.549,
      "duration": 0.1896,
      "velocity": 82,
      "chip": "ym2612"
    },
    {
      "channel": 4,
      "note": 39,
      "start": 32.55,
      "duration": 0.4259,
      "velocity": 123,
      "chip": "ym2612"
    },
    {
      "channel": 5,
      "note": 89,
      "start": 32.72,
      "duration": 0.0863,
      "velocity": 97,
      "chip": "ym2612"
    },
    {
      "channel": 0,
      "note": 53,
      "start": 32.9746,
      "duration": 0.3031,
      "velocity": 97,
      "chip": "ym2612"
    },
    {
      "channel": 5,
      "note": 53,
      "start": 33.1486,
      "duration": 0.3134,
      "velocity": 97,
      "chip": "ym2612"
    },
    {
      "channel": 0,
      "note": 58,
      "start": 33.3841,
      "duration": 0.3173,
      "velocity": 97,
      "chip": "ym2612"
    },
    {
      "channel": 1,
      "note": 53,
      "start": 33.385,
      "duration": 0.3742,
      "velocity": 95,
      "chip": "ym2612"
    },
    {
      "channel": 4,
      "note": 39,
      "start": 33.3864,
      "duration": 0.0363,
      "velocity": 123,
      "chip": "ym2612"
    },
    {
      "channel": 4,
      "note": 39,
      "start": 33.4231,
      "duration": 0.0382,
      "velocity": 123,
      "chip": "ym2612"
    },
    {
      "channel": 4,
      "note": 39,
      "start": 33.4616,
      "duration": 0.0285,
      "velocity": 123,
      "chip": "ym2612"
    },
    {
      "channel": 4,
      "note": 39,
      "start": 33.4905,
      "duration": 0.0382,
      "velocity": 123,
      "chip": "ym2612"
    },
    {
      "channel": 4,
      "note": 39,
      "start": 33.5292,
      "duration": 0.038,
      "velocity": 123,
      "chip": "ym2612"
    },
    {
      "channel": 4,
      "note": 39,
      "start": 33.5676,
      "duration": 0.0288,
      "velocity": 123,
      "chip": "ym2612"
    },
    {
      "channel": 5,
      "note": 58,
      "start": 33.5684,
      "duration": 0.3165,
      "velocity": 97,
      "chip": "ym2612"
    },
    {
      "channel": 4,
      "note": 39,
      "start": 33.5967,
      "duration": 0.0378,
      "velocity": 123,
      "chip": "ym2612"
    },
    {
      "channel": 4,
      "note": 39,
      "start": 33.635,
      "duration": 0.0382,
      "velocity": 123,
      "chip": "ym2612"
    },
    {
      "channel": 4,
      "note": 39,
      "start": 33.6734,
      "duration": 0.0287,
      "velocity": 123,
      "chip": "ym2612"
    },
    {
      "channel": 4,
      "note": 39,
      "start": 33.7025,
      "duration": 0.038,
      "velocity": 123,
      "chip": "ym2612"
    },
    {
      "channel": 4,
      "note": 39,
      "start": 33.7409,
      "duration": 0.0383,
      "velocity": 123,
      "chip": "ym2612"
    },
    {
      "channel": 0,
      "note": 60,
      "start": 33.8078,
      "duration": 0.4811,
      "velocity": 97,
      "chip": "ym2612"
    },
    {
      "channel": 1,
      "note": 58,
      "start": 33.8091,
      "duration": 0.374,
      "velocity": 95,
      "chip": "ym2612"
    },
    {
      "channel": 2,
      "note": 74,
      "start": 33.814,
      "duration": 0.0803,
      "velocity": 97,
      "chip": "ym2612"
    },
    {
      "channel": 3,
      "note": 53,
      "start": 33.8182,
      "duration": 1.1066,
      "velocity": 97,
      "chip": "ym2612"
    },
    {
      "channel": 4,
      "note": 39,
      "start": 33.8195,
      "duration": 0.201,
      "velocity": 123,
      "chip": "ym2612"
    },
    {
      "channel": 5,
      "note": 60,
      "start": 33.9913,
      "duration": 0.4716,
      "velocity": 97,
      "chip": "ym2612"
    },
    {
      "channel": 2,
      "note": 74,
      "start": 34.0199,
      "duration": 0.0862,
      "velocity": 97,
      "chip": "ym2612"
    },
    {
      "channel": 4,
      "note": 39,
      "start": 34.0207,
      "duration": 0.2119,
      "velocity": 123,
      "chip": "ym2612"
    },
    {
      "channel": 1,
      "note": 53,
      "start": 34.2317,
      "duration": 0.3752,
      "velocity": 95,
      "chip": "ym2612"
    },
    {
      "channel": 0,
      "note": 58,
      "start": 34.4434,
      "duration": 0.1633,
      "velocity": 97,
      "chip": "ym2612"
    },
    {
      "channel": 2,
      "note": 74,
      "start": 34.4443,
      "duration": 0.0856,
      "velocity": 97,
      "chip": "ym2612"
    },
    {
      "channel": 4,
      "note": 39,
      "start": 34.4451,
      "duration": 0.2127,
      "velocity": 123,
      "chip": "ym2612"
    },
    {
      "channel": 5,
      "note": 58,
      "start": 34.6172,
      "duration": 0.1634,
      "velocity": 97,
      "chip": "ym2612"
    },
    {
      "channel": 0,
      "note": 62,
      "start": 34.6555,
      "duration": 1.2706,
      "velocity": 97,
      "chip": "ym2612"
    },
    {
      "channel": 1,
      "note": 58,
      "start": 34.6565,
      "duration": 0.3741,
      "velocity": 95,
      "chip": "ym2612"
    },
    {
      "channel": 2,
      "note": 74,
      "start": 34.6574,
      "duration": 0.0844,
      "velocity": 97,
      "chip": "ym2612"
    },
    {
      "channel": 4,
      "note": 39,
      "start": 34.6583,
      "duration": 0.2096,
      "velocity": 123,
      "chip": "ym2612"
    },
    {
      "channel": 5,
      "note": 62,
      "start": 34.8294,
      "duration": 1.2705,
      "velocity": 97,
      "chip": "ym2612"
    },
    {
      "channel": 2,
      "note": 74,
      "start": 34.8673,
      "duration": 0.0863,
      "velocity": 97,
      "chip": "ym2612"
    },
    {
      "channel": 4,
      "note": 39,
      "start": 34.8682,
      "duration": 0.213,
      "velocity": 123,
      "chip": "ym2612"
    },
    {
      "channel": 1,
      "note": 53,
      "start": 35.0794,
      "duration": 0.3653,
      "velocity": 95,
      "chip": "ym2612"
    },
    {
      "channel": 3,
      "note": 58,
      "start": 35.0808,
      "duration": 0.3641,
      "velocity": 97,
      "chip": "ym2612"
    },
    {
      "channel": 2,
      "note": 74,
      "start": 35.2911,
      "duration": 0.0863,
      "velocity": 97,
      "chip": "ym2612"
    },
    {
      "channel": 4,
      "note": 39,
      "start": 35.2922,
      "duration": 0.1047,
      "velocity": 123,
      "chip": "ym2612"
    },
    {
      "channel": 4,
      "note": 39,
      "start": 35.3973,
      "duration": 0.1083,
      "velocity": 123,
      "chip": "ym2612"
    },
    {
      "channel": 1,
      "note": 58,
      "start": 35.5031,
      "duration": 0.3653,
      "velocity": 95,
      "chip": "ym2612"
    },
    {
      "channel": 2,
      "note": 74,
      "start": 35.504,
      "duration": 0.0852,
      "velocity": 97,
      "chip": "ym2612"
    },
    {
      "channel": 3,
      "note": 60,
      "start": 35.5048,
      "duration": 0.3639,
      "velocity": 97,
      "chip": "ym2612"
    },
    {
      "channel": 4,
      "note": 39,
      "start": 35.5059,
      "duration": 0.2095,
      "velocity": 123,
      "chip": "ym2612"
    },
    {
      "channel": 2,
      "note": 74,
      "start": 35.7149,
      "duration": 0.0862,
      "velocity": 97,
      "chip": "ym2612"
    },
    {
      "channel": 4,
      "note": 39,
      "start": 35.7157,
      "duration": 0.2127,
      "velocity": 123,
      "chip": "ym2612"
    },
    {
      "channel": 1,
      "note": 53,
      "start": 35.9268,
      "duration": 0.3653,
      "velocity": 95,
      "chip": "ym2612"
    },
    {
      "channel": 3,
      "note": 58,
      "start": 35.928,
      "duration": 0.3644,
      "velocity": 97,
      "chip": "ym2612"
    },
    {
      "channel": 2,
      "note": 74,
      "start": 36.1385,
      "duration": 0.0863,
      "velocity": 97,
      "chip": "ym2612"
    },
    {
      "channel": 4,
      "note": 39,
      "start": 36.1394,
      "duration": 0.2142,
      "velocity": 123,
      "chip": "ym2612"
    },
    {
      "channel": 0,
      "note": 53,
      "start": 36.3505,
      "duration": 0.3172,
      "velocity": 97,
      "chip": "ym2612"
    },
    {
      "channel": 1,
      "note": 58,
      "start": 36.3515,
      "duration": 0.3644,
      "velocity": 95,
      "chip": "ym2612"
    },
    {
      "channel": 2,
      "note": 74,
      "start": 36.3525,
      "duration": 0.0842,
      "velocity": 97,
      "chip": "ym2612"
    },
    {
      "channel": 3,
      "note": 65,
      "start": 36.3532,
      "duration": 0.729,
      "velocity": 97,
      "chip": "ym2612"
    },
    {
      "channel": 4,
      "note": 39,
      "start": 36.354,
      "duration": 0.209,
      "velocity": 123,
      "chip": "ym2612"
    },
    {
      "channel": 5,
      "note": 53,
      "start": 36.5244,
      "duration": 0.3171,
      "velocity": 97,
      "chip": "ym2612"
    },
    {
      "channel": 2,
      "note": 74,
      "start": 36.5624,
      "duration": 0.0861,
      "velocity": 97,
      "chip": "ym2612"
    },
    {
      "channel": 4,
      "note": 39,
      "start": 36.5633,
      "duration": 0.2125,
      "velocity": 123,
      "chip": "ym2612"
    },
    {
      "channel": 0,
      "note": 58,
      "start": 36.7741,
      "duration": 0.3076,
      "velocity": 97,
      "chip": "ym2612"
    },
    {
      "channel": 1,
      "note": 53,
      "start": 36.775,
      "duration": 0.3646,
      "velocity": 95,
      "chip": "ym2612"
    },
    {
      "channel": 5,
      "note": 58,
      "start": 36.9479,
      "duration": 0.3173,
      "velocity": 97,
      "chip": "ym2612"
    },
    {
      "channel": 2,
      "note": 74,
      "start": 36.9764,
      "duration": 0.0959,
      "velocity": 97,
      "chip": "ym2612"
    },
    {
      "channel": 4,
      "note": 39,
      "start": 36.9775,
      "duration": 0.1049,
      "velocity": 123,
      "chip": "ym2612"
    },
    {
      "channel": 4,
      "note": 39,
      "start": 37.0828,
      "duration": 0.1092,
      "velocity": 123,
      "chip": "ym2612"
    },
    {
      "channel": 0,
      "note": 60,
      "start": 37.1881,
      "duration": 0.481,
      "velocity": 97,
      "chip": "ym2612"
    },
    {
      "channel": 1,
      "note": 58,
      "start": 37.1894,
      "duration": 0.374,
      "velocity": 95,
      "chip": "ym2612"
    },
    {
      "channel": 2,
      "note": 74,
      "start": 37.1903,
      "duration": 0.0939,
      "velocity": 97,
      "chip": "ym2612"
    },
    {
      "channel": 3,
      "note": 54,
      "start": 37.1912,
      "duration": 1.1139,
      "velocity": 97,
      "chip": "ym2612"
    },
    {
      "channel": 4,
      "note": 39,
      "start": 37.1924,
      "duration": 0.2083,
      "velocity": 123,
      "chip": "ym2612"
    },
    {
      "channel": 5,
      "note": 60,
      "start": 37.3716,
      "duration": 0.4714,
      "velocity": 97,
      "chip": "ym2612"
    },
    {
      "channel": 2,
      "note": 74,
      "start": 37.4002,
      "duration": 0.0961,
      "velocity": 97,
      "chip": "ym2612"
    },
    {
      "channel": 4,
      "note": 39,
      "start": 37.4011,
      "duration": 0.212,
      "velocity": 123,
      "chip": "ym2612"
    },
    {
      "channel": 1,
      "note": 54,
      "start": 37.6121,
      "duration": 0.3752,
      "velocity": 95,
      "chip": "ym2612"
    },
    {
      "channel": 0,
      "note": 58,
      "start": 37.8238,
      "duration": 0.1632,
      "velocity": 97,
      "chip": "ym2612"
    },
    {
      "channel": 2,
      "note": 74,
      "start": 37.8247,
      "duration": 0.0855,
      "velocity": 97,
      "chip": "ym2612"
    },
    {
      "channel": 4,
      "note": 39,
      "start": 37.8255,
      "duration": 0.2127,
      "velocity": 123,
      "chip": "ym2612"
    },
    {
      "channel": 5,
      "note": 58,
      "start": 38.0072,
      "duration": 0.1537,
      "velocity": 97,
      "chip": "ym2612"
    },
    {
      "channel": 0,
      "note": 62,
      "start": 38.0358,
      "duration": 1.2706,
      "velocity": 97,
      "chip": "ym2612"
    },
    {
      "channel": 1,
      "note": 58,
      "start": 38.0368,
      "duration": 0.374,
      "velocity": 95,
      "chip": "ym2612"
    },
    {
      "channel": 2,
      "note": 74,
      "start": 38.0377,
      "duration": 0.0844,
      "velocity": 97,
      "chip": "ym2612"
    },
    {
      "channel": 4,
      "note": 39,
      "start": 38.0385,
      "duration": 0.2097,
      "velocity": 123,
      "chip": "ym2612"
    },
    {
      "channel": 5,
      "note": 62,
      "start": 38.2096,
      "duration": 1.2706,
      "velocity": 97,
      "chip": "ym2612"
    },
    {
      "channel": 2,
      "note": 74,
      "start": 38.2477,
      "duration": 0.0863,
      "velocity": 97,
      "chip": "ym2612"
    },
    {
      "channel": 4,
      "note": 39,
      "start": 38.2486,
      "duration": 0.2126,
      "velocity": 123,
      "chip": "ym2612"
    },
    {
      "channel": 1,
      "note": 54,
      "start": 38.4595,
      "duration": 0.3655,
      "velocity": 95,
      "chip": "ym2612"
    },
    {
      "channel": 3,
      "note": 58,
      "start": 38.4608,
      "duration": 0.3645,
      "velocity": 97,
      "chip": "ym2612"
    },
    {
      "channel": 2,
      "note": 74,
      "start": 38.6714,
      "duration": 0.0863,
      "velocity": 97,
      "chip": "ym2612"
    },
    {
      "channel": 4,
      "note": 39,
      "start": 38.6725,
      "duration": 0.1047,
      "velocity": 123,
      "chip": "ym2612"
    },
    {
      "channel": 4,
      "note": 39,
      "start": 38.7775,
      "duration": 0.1083,
      "velocity": 123,
      "chip": "ym2612"
    },
    {
      "channel": 1,
      "note": 58,
      "start": 38.8834,
      "duration": 0.3653,
      "velocity": 95,
      "chip": "ym2612"
    },
    {
      "channel": 2,
      "note": 74,
      "start": 38.8843,
      "duration": 0.0852,
      "velocity": 97,
      "chip": "ym2612"
    },
    {
      "channel": 3,
      "note": 60,
      "start": 38.8851,
      "duration": 0.3639,
      "velocity": 97,
      "chip": "ym2612"
    },
    {
      "channel": 4,
      "note": 39,
      "start": 38.8862,
      "duration": 0.2096,
      "velocity": 123,
      "chip": "ym2612"
    },
    {
      "channel": 2,
      "note": 74,
      "start": 39.0951,
      "duration": 0.0863,
      "velocity": 97,
      "chip": "ym2612"
    },
    {
      "channel": 4,
      "note": 39,
      "start": 39.0962,
      "duration": 0.2125,
      "velocity": 123,
      "chip": "ym2612"
    },
    {
      "channel": 1,
      "note": 54,
      "start": 39.3072,
      "duration": 0.3653,
      "velocity": 95,
      "chip": "ym2612"
    },
    {
      "channel": 3,
      "note": 58,
      "start": 39.3083,
      "duration": 0.3644,
      "velocity": 97,
      "chip": "ym2612"
    },
    {
      "channel": 2,
      "note": 74,
      "start": 39.5189,
      "duration": 0.0863,
      "velocity": 97,
      "chip": "ym2612"
    },
    {
      "channel": 4,
      "note": 39,
      "start": 39.5198,
      "duration": 0.2142,
      "velocity": 123,
      "chip": "ym2612"
    },
    {
      "channel": 0,
      "note": 53,
      "start": 39.7308,
      "duration": 0.3171,
      "velocity": 97,
      "chip": "ym2612"
    },
    {
      "channel": 1,
      "note": 58,
      "start": 39.7319,
      "duration": 0.3644,
      "velocity": 95,
      "chip": "ym2612"
    },
    {
      "channel": 2,
      "note": 74,
      "start": 39.7327,
      "duration": 0.0843,
      "velocity": 97,
      "chip": "ym2612"
    },
    {
      "channel": 3,
      "note": 66,
      "start": 39.7335,
      "duration": 0.7386,
      "velocity": 97,
      "chip": "ym2612"
    },
    {
      "channel": 4,
      "note": 39,
      "start": 39.7343,
      "duration": 0.2089,
      "velocity": 123,
      "chip": "ym2612"
    },
    {
      "channel": 5,
      "note": 53,
      "start": 39.9047,
      "duration": 0.3171,
      "velocity": 97,
      "chip": "ym2612"
    },
    {
      "channel": 2,
      "note": 74,
      "start": 39.9427,
      "duration": 0.0863,
      "velocity": 97,
      "chip": "ym2612"
    },
    {
      "channel": 4,
      "note": 39,
      "start": 39.9435,
      "duration": 0.2127,
      "velocity": 123,
      "chip": "ym2612"
    },
    {
      "channel": 0,
      "note": 58,
      "start": 40.1544,
      "duration": 0.3173,
      "velocity": 97,
      "chip": "ym2612"
    },
    {
      "channel": 1,
      "note": 54,
      "start": 40.1553,
      "duration": 0.3646,
      "velocity": 95,
      "chip": "ym2612"
    },
    {
      "channel": 5,
      "note": 58,
      "start": 40.3283,
      "duration": 0.3173,
      "velocity": 97,
      "chip": "ym2612"
    },
    {
      "channel": 2,
      "note": 74,
      "start": 40.3664,
      "duration": 0.0863,
      "velocity": 97,
      "chip": "ym2612"
    },
    {
      "channel": 4,
      "note": 39,
      "start": 40.3675,
      "duration": 0.105,
      "velocity": 123,
      "chip": "ym2612"
    },
    {
      "channel": 4,
      "note": 39,
      "start": 40.4728,
      "duration": 0.1093,
      "velocity": 123,
      "chip": "ym2612"
    },
    {
      "channel": 0,
      "note": 60,
      "start": 40.5781,
      "duration": 0.4715,
      "velocity": 97,
      "chip": "ym2612"
    },
    {
      "channel": 1,
      "note": 58,
      "start": 40.5795,
      "duration": 0.3642,
      "velocity": 95,
      "chip": "ym2612"
    },
    {
      "channel": 2,
      "note": 74,
      "start": 40.5805,
      "duration": 0.084,
      "velocity": 97,
      "chip": "ym2612"
    },
    {
      "channel": 3,
      "note": 55,
      "start": 40.5813,
      "duration": 1.1041,
      "velocity": 97,
      "chip": "ym2612"
    },
    {
      "channel": 4,
      "note": 39,
      "start": 40.5824,
      "duration": 0.1986,
      "velocity": 123,
      "chip": "ym2612"
    },
    {
      "channel": 5,
      "note": 60,
      "start": 40.752,
      "duration": 0.4715,
      "velocity": 97,
      "chip": "ym2612"
    },
    {
      "channel": 2,
      "note": 74,
      "start": 40.7805,
      "duration": 0.0959,
      "velocity": 97,
      "chip": "ym2612"
    },
    {
      "channel": 4,
      "note": 39,
      "start": 40.7814,
      "duration": 0.2118,
      "velocity": 123,
      "chip": "ym2612"
    },
    {
      "channel": 1,
      "note": 55,
      "start": 40.9924,
      "duration": 0.3752,
      "velocity": 95,
      "chip": "ym2612"
    },
    {
      "channel": 0,
      "note": 58,
      "start": 41.2041,
      "duration": 0.1633,
      "velocity": 97,
      "chip": "ym2612"
    },
    {
      "channel": 2,
      "note": 74,
      "start": 41.2049,
      "duration": 0.0856,
      "velocity": 97,
      "chip": "ym2612"
    },
    {
      "channel": 4,
      "note": 39,
      "start": 41.2058,
      "duration": 0.2127,
      "velocity": 123,
      "chip": "ym2612"
    },
    {
      "channel": 5,
      "note": 58,
      "start": 41.3875,
      "duration": 0.1537,
      "velocity": 97,
      "chip": "ym2612"
    },
    {
      "channel": 0,
      "note": 62,
      "start": 41.4161,
      "duration": 0.6351,
      "velocity": 97,
      "chip": "ym2612"
    },
    {
      "channel": 1,
      "note": 58,
      "start": 41.4171,
      "duration": 0.3741,
      "velocity": 95,
      "chip": "ym2612"
    },
    {
      "channel": 2,
      "note": 74,
      "start": 41.418,
      "duration": 0.0844,
      "velocity": 97,
      "chip": "ym2612"
    },
    {
      "channel": 4,
      "note": 39,
      "start": 41.4189,
      "duration": 0.2096,
      "velocity": 123,
      "chip": "ym2612"
    },
    {
      "channel": 5,
      "note": 62,
      "start": 41.5995,
      "duration": 0.6254,
      "velocity": 97,
      "chip": "ym2612"
    },
    {
      "channel": 2,
      "note": 74,
      "start": 41.628,
      "duration": 0.0863,
      "velocity": 97,
      "chip": "ym2612"
    },
    {
      "channel": 4,
      "note": 39,
      "start": 41.6289,
      "duration": 0.2127,
      "velocity": 123,
      "chip": "ym2612"
    },
    {
      "channel": 1,
      "note": 55,
      "start": 41.8399,
      "duration": 0.3751,
      "velocity": 95,
      "chip": "ym2612"
    },
    {
      "channel": 3,
      "note": 58,
      "start": 41.8411,
      "duration": 0.3741,
      "velocity": 97,
      "chip": "ym2612"
    },
    {
      "channel": 2,
      "note": 74,
      "start": 42.0518,
      "duration": 0.0861,
      "velocity": 97,
      "chip": "ym2612"
    },
    {
      "channel": 4,
      "note": 39,
      "start": 42.0529,
      "duration": 0.1046,
      "velocity": 123,
      "chip": "ym2612"
    },
    {
      "channel": 4,
      "note": 39,
      "start": 42.1579,
      "duration": 0.109,
      "velocity": 123,
      "chip": "ym2612"
    },
    {
      "channel": 0,
      "note": 65,
      "start": 42.2634,
      "duration": 0.4715,
      "velocity": 97,
      "chip": "ym2612"
    },
    {
      "channel": 1,
      "note": 58,
      "start": 42.2645,
      "duration": 0.3647,
      "velocity": 95,
      "chip": "ym2612"
    },
    {
      "channel": 2,
      "note": 74,
      "start": 42.2654,
      "duration": 0.0845,
      "velocity": 97,
      "chip": "ym2612"
    },
    {
      "channel": 3,
      "note": 62,
      "start": 42.2661,
      "duration": 0.5653,
      "velocity": 97,
      "chip": "ym2612"
    },
    {
      "channel": 4,
      "note": 39,
      "start": 42.2673,
      "duration": 0.2087,
      "velocity": 123,
      "chip": "ym2612"
    },
    {
      "channel": 5,
      "note": 65,
      "start": 42.4373,
      "duration": 0.4811,
      "velocity": 97,
      "chip": "ym2612"
    },
    {
      "channel": 2,
      "note": 74,
      "start": 42.4755,
      "duration": 0.0863,
      "velocity": 97,
      "chip": "ym2612"
    },
    {
      "channel": 4,
      "note": 39,
      "start": 42.4764,
      "duration": 0.2118,
      "velocity": 123,
      "chip": "ym2612"
    },
    {
      "channel": 1,
      "note": 55,
      "start": 42.6874,
      "duration": 0.3654,
      "velocity": 95,
      "chip": "ym2612"
    },
    {
      "channel": 0,
      "note": 62,
      "start": 42.899,
      "duration": 0.4715,
      "velocity": 97,
      "chip": "ym2612"
    },
    {
      "channel": 2,
      "note": 74,
      "start": 42.8999,
      "duration": 0.0856,
      "velocity": 97,
      "chip": "ym2612"
    },
    {
      "channel": 3,
      "note": 58,
      "start": 42.9007,
      "duration": 0.5567,
      "velocity": 97,
      "chip": "ym2612"
    },
    {
      "channel": 4,
      "note": 39,
      "start": 42.9015,
      "duration": 0.2113,
      "velocity": 123,
      "chip": "ym2612"
    },
    {
      "channel": 5,
      "note": 62,
      "start": 43.0729,
      "duration": 0.4811,
      "velocity": 97,
      "chip": "ym2612"
    },
    {
      "channel": 1,
      "note": 58,
      "start": 43.1112,
      "duration": 0.3653,
      "velocity": 95,
      "chip": "ym2612"
    },
    {
      "channel": 2,
      "note": 74,
      "start": 43.1121,
      "duration": 0.0852,
      "velocity": 97,
      "chip": "ym2612"
    },
    {
      "channel": 4,
      "note": 39,
      "start": 43.1132,
      "duration": 0.2104,
      "velocity": 123,
      "chip": "ym2612"
    },
    {
      "channel": 2,
      "note": 74,
      "start": 43.323,
      "duration": 0.0862,
      "velocity": 97,
      "chip": "ym2612"
    },
    {
      "channel": 4,
      "note": 39,
      "start": 43.3238,
      "duration": 0.2135,
      "velocity": 123,
      "chip": "ym2612"
    },
    {
      "channel": 0,
      "note": 70,
      "start": 43.5349,
      "duration": 0.3171,
      "velocity": 97,
      "chip": "ym2612"
    },
    {
      "channel": 1,
      "note": 55,
      "start": 43.5358,
      "duration": 0.3644,
      "velocity": 95,
      "chip": "ym2612"
    },
    {
      "channel": 3,
      "note": 65,
      "start": 43.5369,
      "duration": 0.3636,
      "velocity": 97,
      "chip": "ym2612"
    },
    {
      "channel": 5,
      "note": 70,
      "start": 43.7088,
      "duration": 0.3171,
      "velocity": 97,
      "chip": "ym2612"
    },
    {
      "channel": 2,
      "note": 74,
      "start": 43.7469,
      "duration": 0.0861,
      "velocity": 97,
      "chip": "ym2612"
    },
    {
      "channel": 4,
      "note": 39,
      "start": 43.7479,
      "duration": 0.1047,
      "velocity": 123,
      "chip": "ym2612"
    },
    {
      "channel": 4,
      "note": 39,
      "start": 43.853,
      "duration": 0.109,
      "velocity": 123,
      "chip": "ym2612"
    },
    {
      "channel": 0,
      "note": 68,
      "start": 43.9584,
      "duration": 1.2612,
      "velocity": 97,
      "chip": "ym2612"
    },
    {
      "channel": 1,
      "note": 56,
      "start": 43.9595,
      "duration": 0.3645,
      "velocity": 95,
      "chip": "ym2612"
    },
    {
      "channel": 2,
      "note": 72,
      "start": 43.9605,
      "duration": 0.0844,
      "velocity": 97,
      "chip": "ym2612"
    },
    {
      "channel": 3,
      "note": 63,
      "start": 43.9612,
      "duration": 0.7293,
      "velocity": 97,
      "chip": "ym2612"
    },
    {
      "channel": 4,
      "note": 39,
      "start": 43.9625,
      "duration": 0.2085,
      "velocity": 123,
      "chip": "ym2612"
    },
    {
      "channel": 5,
      "note": 68,
      "start": 44.1322,
      "duration": 1.2708,
      "velocity": 97,
      "chip": "ym2612"
    },
    {
      "channel": 2,
      "note": 72,
      "start": 44.1705,
      "duration": 0.0863,
      "velocity": 97,
      "chip": "ym2612"
    },
    {
      "channel": 4,
      "note": 39,
      "start": 44.1714,
      "duration": 0.2021,
      "velocity": 123,
      "chip": "ym2612"
    },
    {
      "channel": 1,
      "note": 60,
      "start": 44.3726,
      "duration": 0.3751,
      "velocity": 95,
      "chip": "ym2612"
    },
    {
      "channel": 2,
      "note": 72,
      "start": 44.5846,
      "duration": 0.0574,
      "velocity": 97,
      "chip": "ym2612"
    },
    {
      "channel": 4,
      "note": 39,
      "start": 44.5855,
      "duration": 0.2204,
      "velocity": 123,
      "chip": "ym2612"
    },
    {
      "channel": 1,
      "note": 63,
      "start": 44.7965,
      "duration": 0.375,
      "velocity": 95,
      "chip": "ym2612"
    },
    {
      "channel": 2,
      "note": 56,
      "start": 44.801,
      "duration": 0.101,
      "velocity": 82,
      "chip": "ym2612"
    },
    {
      "channel": 3,
      "note": 65,
      "start": 44.8055,
      "duration": 0.0973,
      "velocity": 82,
      "chip": "ym2612"
    },
    {
      "channel": 4,
      "note": 39,
      "start": 44.8062,
      "duration": 0.2034,
      "velocity": 123,
      "chip": "ym2612"
    },
    {
      "channel": 2,
      "note": 58,
      "start": 44.9024,
      "duration": 0.1055,
      "velocity": 82,
      "chip": "ym2612"
    },
    {
      "channel": 3,
      "note": 67,
      "start": 44.9032,
      "duration": 0.1056,
      "velocity": 82,
      "chip": "ym2612"
    },
    {
      "channel": 2,
      "note": 60,
      "start": 45.0083,
      "duration": 0.1056,
      "velocity": 82,
      "chip": "ym2612"
    },
    {
      "channel": 3,
      "note": 68,
      "start": 45.0092,
      "duration": 0.1055,
      "velocity": 82,
      "chip": "ym2612"
    },
    {
      "channel": 4,
      "note": 39,
      "start": 45.01,
      "duration": 0.2122,
      "velocity": 123,
      "chip": "ym2612"
    },
    {
      "channel": 2,
      "note": 62,
      "start": 45.1143,
      "duration": 0.1063,
      "velocity": 82,
      "chip": "ym2612"
    },
    {
      "channel": 3,
      "note": 70,
      "start": 45.1151,
      "duration": 0.1063,
      "velocity": 82,
      "chip": "ym2612"
    },
    {
      "channel": 1,
      "note": 67,
      "start": 45.2202,
      "duration": 0.3751,
      "velocity": 95,
      "chip": "ym2612"
    },
    {
      "channel": 2,
      "note": 63,
      "start": 45.221,
      "duration": 0.1048,
      "velocity": 82,
      "chip": "ym2612"
    },
    {
      "channel": 3,
      "note": 72,
      "start": 45.2217,
      "duration": 0.1048,
      "velocity": 82,
      "chip": "ym2612"
    },
    {
      "channel": 2,
      "note": 65,
      "start": 45.3261,
      "duration": 0.1055,
      "velocity": 82,
      "chip": "ym2612"
    },
    {
      "channel": 3,
      "note": 74,
      "start": 45.3269,
      "duration": 0.1055,
      "velocity": 82,
      "chip": "ym2612"
    },
    {
      "channel": 2,
      "note": 67,
      "start": 45.432,
      "duration": 0.1057,
      "velocity": 82,
      "chip": "ym2612"
    },
    {
      "channel": 3,
      "note": 75,
      "start": 45.4328,
      "duration": 0.1057,
      "velocity": 82,
      "chip": "ym2612"
    },
    {
      "channel": 4,
      "note": 39,
      "start": 45.4338,
      "duration": 0.1055,
      "velocity": 123,
      "chip": "ym2612"
    },
    {
      "channel": 2,
      "note": 68,
      "start": 45.5381,
      "duration": 0.1064,
      "velocity": 82,
      "chip": "ym2612"
    },
    {
      "channel": 3,
      "note": 77,
      "start": 45.5388,
      "duration": 0.1064,
      "velocity": 82,
      "chip": "ym2612"
    },
    {
      "channel": 4,
      "note": 39,
      "start": 45.5396,
      "duration": 0.1069,
      "velocity": 123,
      "chip": "ym2612"
    },
    {
      "channel": 1,
      "note": 65,
      "start": 45.6441,
      "duration": 0.3749,
      "velocity": 95,
      "chip": "ym2612"
    },
    {
      "channel": 2,
      "note": 70,
      "start": 45.6449,
      "duration": 0.1046,
      "velocity": 82,
      "chip": "ym2612"
    },
    {
      "channel": 3,
      "note": 79,
      "start": 45.6458,
      "duration": 0.1045,
      "velocity": 82,
      "chip": "ym2612"
    },
    {
      "channel": 4,
      "note": 39,
      "start": 45.6469,
      "duration": 0.2146,
      "velocity": 123,
      "chip": "ym2612"
    },
    {
      "channel": 2,
      "note": 68,
      "start": 45.7499,
      "duration": 0.1102,
      "velocity": 82,
      "chip": "ym2612"
    },
    {
      "channel": 3,
      "note": 77,
      "start": 45.7506,
      "duration": 0.1102,
      "velocity": 82,
      "chip": "ym2612"
    },
    {
      "channel": 0,
      "note": 82,
      "start": 45.8594,
      "duration": 0.1017,
      "velocity": 97,
      "chip": "ym2612"
    },
    {
      "channel": 2,
      "note": 67,
      "start": 45.8604,
      "duration": 0.1011,
      "velocity": 82,
      "chip": "ym2612"
    },
    {
      "channel": 3,
      "note": 75,
      "start": 45.8611,
      "duration": 0.1012,
      "velocity": 82,
      "chip": "ym2612"
    },
    {
      "channel": 4,
      "note": 39,
      "start": 45.8619,
      "duration": 0.2083,
      "velocity": 123,
      "chip": "ym2612"
    },
    {
      "channel": 2,
      "note": 65,
      "start": 45.9619,
      "duration": 0.1067,
      "velocity": 82,
      "chip": "ym2612"
    },
    {
      "channel": 3,
      "note": 74,
      "start": 45.9628,
      "duration": 0.1066,
      "velocity": 82,
      "chip": "ym2612"
    },
    {
      "channel": 5,
      "note": 82,
      "start": 46.0334,
      "duration": 0.1016,
      "velocity": 97,
      "chip": "ym2612"
    },
    {
      "channel": 0,
      "note": 84,
      "start": 46.0675,
      "duration": 0.1055,
      "velocity": 97,
      "chip": "ym2612"
    },
    {
      "channel": 1,
      "note": 62,
      "start": 46.0682,
      "duration": 0.3649,
      "velocity": 95,
      "chip": "ym2612"
    },
    {
      "channel": 2,
      "note": 63,
      "start": 46.069,
      "duration": 0.1044,
      "velocity": 82,
      "chip": "ym2612"
    },
    {
      "channel": 3,
      "note": 72,
      "start": 46.0698,
      "duration": 0.1044,
      "velocity": 82,
      "chip": "ym2612"
    },
    {
      "channel": 2,
      "note": 62,
      "start": 46.1737,
      "duration": 0.1063,
      "velocity": 82,
      "chip": "ym2612"
    },
    {
      "channel": 3,
      "note": 70,
      "start": 46.1745,
      "duration": 0.1062,
      "velocity": 82,
      "chip": "ym2612"
    },
    {
      "channel": 5,
      "note": 84,
      "start": 46.2413,
      "duration": 0.1055,
      "velocity": 97,
      "chip": "ym2612"
    },
    {
      "channel": 0,
      "note": 87,
      "start": 46.2795,
      "duration": 0.1054,
      "velocity": 97,
      "chip": "ym2612"
    },
    {
      "channel": 2,
      "note": 60,
      "start": 46.2804,
      "duration": 0.1048,
      "velocity": 82,
      "chip": "ym2612"
    },
    {
      "channel": 3,
      "note": 68,
      "start": 46.2812,
      "duration": 0.105,
      "velocity": 82,
      "chip": "ym2612"
    },
    {
      "channel": 4,
      "note": 39,
      "start": 46.2819,
      "duration": 0.2121,
      "velocity": 123,
      "chip": "ym2612"
    },
    {
      "channel": 2,
      "note": 58,
      "start": 46.3856,
      "duration": 0.1068,
      "velocity": 82,
      "chip": "ym2612"
    },
    {
      "channel": 3,
      "note": 67,
      "start": 46.3865,
      "duration": 0.1067,
      "velocity": 82,
      "chip": "ym2612"
    },
    {
      "channel": 5,
      "note": 87,
      "start": 46.4532,
      "duration": 0.1055,
      "velocity": 97,
      "chip": "ym2612"
    },
    {
      "channel": 0,
      "note": 89,
      "start": 46.4912,
      "duration": 0.1055,
      "velocity": 97,
      "chip": "ym2612"
    },
    {
      "channel": 1,
      "note": 58,
      "start": 46.492,
      "duration": 0.3649,
      "velocity": 95,
      "chip": "ym2612"
    },
    {
      "channel": 2,
      "note": 67,
      "start": 46.4927,
      "duration": 0.1044,
      "velocity": 82,
      "chip": "ym2612"
    },
    {
      "channel": 3,
      "note": 75,
      "start": 46.4936,
      "duration": 0.1043,
      "velocity": 82,
      "chip": "ym2612"
    },
    {
      "channel": 4,
      "note": 39,
      "start": 46.4944,
      "duration": 0.2107,
      "velocity": 123,
      "chip": "ym2612"
    },
    {
      "channel": 2,
      "note": 65,
      "start": 46.5975,
      "duration": 0.1061,
      "velocity": 82,
      "chip": "ym2612"
    },
    {
      "channel": 3,
      "note": 74,
      "start": 46.5983,
      "duration": 0.1061,
      "velocity": 82,
      "chip": "ym2612"
    },
    {
      "channel": 5,
      "note": 89,
      "start": 46.6651,
      "duration": 0.1055,
      "velocity": 97,
      "chip": "ym2612"
    },
    {
      "channel": 0,
      "note": 87,
      "start": 46.7031,
      "duration": 0.1055,
      "velocity": 97,
      "chip": "ym2612"
    },
    {
      "channel": 2,
      "note": 63,
      "start": 46.7039,
      "duration": 0.1051,
      "velocity": 82,
      "chip": "ym2612"
    },
    {
      "channel": 3,
      "note": 72,
      "start": 46.7048,
      "duration": 0.105,
      "velocity": 82,
      "chip": "ym2612"
    },
    {
      "channel": 4,
      "note": 39,
      "start": 46.7055,
      "duration": 0.2122,
      "velocity": 123,
      "chip": "ym2612"
    },
    {
      "channel": 2,
      "note": 62,
      "start": 46.8093,
      "duration": 0.1068,
      "velocity": 82,
      "chip": "ym2612"
    },
    {
      "channel": 3,
      "note": 70,
      "start": 46.8102,
      "duration": 0.1067,
      "velocity": 82,
      "chip": "ym2612"
    },
    {
      "channel": 5,
      "note": 87,
      "start": 46.8769,
      "duration": 0.1056,
      "velocity": 97,
      "chip": "ym2612"
    },
    {
      "channel": 0,
      "note": 89,
      "start": 46.915,
      "duration": 0.1055,
      "velocity": 97,
      "chip": "ym2612"
    },
    {
      "channel": 1,
      "note": 56,
      "start": 46.9158,
      "duration": 0.3648,
      "velocity": 95,
      "chip": "ym2612"
    },
    {
      "channel": 2,
      "note": 60,
      "start": 46.9165,
      "duration": 0.1043,
      "velocity": 82,
      "chip": "ym2612"
    },
    {
      "channel": 3,
      "note": 68,
      "start": 46.9173,
      "duration": 0.1045,
      "velocity": 82,
      "chip": "ym2612"
    },
    {
      "channel": 2,
      "note": 58,
      "start": 47.0212,
      "duration": 0.1061,
      "velocity": 82,
      "chip": "ym2612"
    },
    {
      "channel": 3,
      "note": 67,
      "start": 47.0221,
      "duration": 0.106,
      "velocity": 82,
      "chip": "ym2612"
    },
    {
      "channel": 5,
      "note": 89,
      "start": 47.0888,
      "duration": 0.1055,
      "velocity": 97,
      "chip": "ym2612"
    },
    {
      "channel": 0,
      "note": 90,
      "start": 47.1268,
      "duration": 0.1055,
      "velocity": 97,
      "chip": "ym2612"
    },
    {
      "channel": 2,
      "note": 56,
      "start": 47.1277,
      "duration": 0.1052,
      "velocity": 82,
      "chip": "ym2612"
    },
    {
      "channel": 3,
      "note": 65,
      "start": 47.1285,
      "duration": 0.1051,
      "velocity": 82,
      "chip": "ym2612"
    },
    {
      "channel": 4,
      "note": 39,
      "start": 47.1296,
      "duration": 0.1048,
      "velocity": 123,
      "chip": "ym2612"
    },
    {
      "channel": 2,
      "note": 55,
      "start": 47.2332,
      "duration": 0.0476,
      "velocity": 82,
      "chip": "ym2612"
    },
    {
      "channel": 3,
      "note": 63,
      "start": 47.234,
      "duration": 0.1107,
      "velocity": 82,
      "chip": "ym2612"
    },
    {
      "channel": 4,
      "note": 39,
      "start": 47.2348,
      "duration": 0.1148,
      "velocity": 123,
      "chip": "ym2612"
    },
    {
      "channel": 5,
      "note": 90,
      "start": 47.3007,
      "duration": 0.1055,
      "velocity": 97,
      "chip": "ym2612"
    },
    {
      "channel": 0,
      "note": 91,
      "start": 47.3389,
      "duration": 0.4712,
      "velocity": 97,
      "chip": "ym2612"
    },
    {
      "channel": 1,
      "note": 63,
      "start": 47.3398,
      "duration": 0.3646,
      "velocity": 95,
      "chip": "ym2612"
    },
    {
      "channel": 2,
      "note": 87,
      "start": 47.3443,
      "duration": 0.8334,
      "velocity": 105,
      "chip": "ym2612"
    },
    {
      "channel": 3,
      "note": 70,
      "start": 47.3488,
      "duration": 0.7217,
      "velocity": 97,
      "chip": "ym2612"
    },
    {
      "channel": 4,
      "note": 39,
      "start": 47.3499,
      "duration": 0.2007,
      "velocity": 123,
      "chip": "ym2612"
    },
    {
      "channel": 5,
      "note": 91,
      "start": 47.5129,
      "duration": 0.4712,
      "velocity": 97,
      "chip": "ym2612"
    },
    {
      "channel": 4,
      "note": 39,
      "start": 47.551,
      "duration": 0.2123,
      "velocity": 123,
      "chip": "ym2612"
    },
    {
      "channel": 1,
      "note": 58,
      "start": 47.7627,
      "duration": 0.3655,
      "velocity": 95,
      "chip": "ym2612"
    },
    {
      "channel": 0,
      "note": 84,
      "start": 47.9744,
      "duration": 0.1536,
      "velocity": 97,
      "chip": "ym2612"
    },
    {
      "channel": 4,
      "note": 39,
      "start": 47.9754,
      "duration": 0.2041,
      "velocity": 123,
      "chip": "ym2612"
    },
    {
      "channel": 5,
      "note": 84,
      "start": 48.1481,
      "duration": 0.1537,
      "velocity": 97,
      "chip": "ym2612"
    },
    {
      "channel": 0,
      "note": 84,
      "start": 48.1766,
      "duration": 0.953,
      "velocity": 97,
      "chip": "ym2612"
    },
    {
      "channel": 1,
      "note": 63,
      "start": 48.1774,
      "duration": 0.3744,
      "velocity": 95,
      "chip": "ym2612"
    },
    {
      "channel": 2,
      "note": 87,
      "start": 48.1782,
      "duration": 0.8464,
      "velocity": 105,
      "chip": "ym2612"
    },
    {
      "channel": 3,
      "note": 70,
      "start": 48.179,
      "duration": 0.2478,
      "velocity": 97,
      "chip": "ym2612"
    },
    {
      "channel": 4,
      "note": 39,
      "start": 48.1799,
      "duration": 0.2086,
      "velocity": 123,
      "chip": "ym2612"
    },
    {
      "channel": 5,
      "note": 84,
      "start": 48.3601,
      "duration": 0.9433,
      "velocity": 97,
      "chip": "ym2612"
    },
    {
      "channel": 4,
      "note": 39,
      "start": 48.3888,
      "duration": 0.2122,
      "velocity": 123,
      "chip": "ym2612"
    },
    {
      "channel": 3,
      "note": 72,
      "start": 48.4658,
      "duration": 0.2403,
      "velocity": 97,
      "chip": "ym2612"
    },
    {
      "channel": 1,
      "note": 58,
      "start": 48.6004,
      "duration": 0.3751,
      "velocity": 95,
      "chip": "ym2612"
    },
    {
      "channel": 3,
      "note": 70,
      "start": 48.7451,
      "duration": 0.2499,
      "velocity": 97,
      "chip": "ym2612"
    },
    {
      "channel": 4,
      "note": 39,
      "start": 48.813,
      "duration": 0.1052,
      "velocity": 123,
      "chip": "ym2612"
    },
    {
      "channel": 4,
      "note": 39,
      "start": 48.9185,
      "duration": 0.108,
      "velocity": 123,
      "chip": "ym2612"
    },
    {
      "channel": 1,
      "note": 65,
      "start": 49.0241,
      "duration": 0.3751,
      "velocity": 95,
      "chip": "ym2612"
    },
    {
      "channel": 2,
      "note": 89,
      "start": 49.0249,
      "duration": 1.6954,
      "velocity": 105,
      "chip": "ym2612"
    },
    {
      "channel": 3,
      "note": 69,
      "start": 49.0257,
      "duration": 0.7399,
      "velocity": 97,
      "chip": "ym2612"
    },
    {
      "channel": 4,
      "note": 39,
      "start": 49.0269,
      "duration": 0.209,
      "velocity": 123,
      "chip": "ym2612"
    },
    {
      "channel": 4,
      "note": 39,
      "start": 49.2363,
      "duration": 0.2129,
      "velocity": 123,
      "chip": "ym2612"
    },
    {
      "channel": 0,
      "note": 84,
      "start": 49.4478,
      "duration": 0.3174,
      "velocity": 97,
      "chip": "ym2612"
    },
    {
      "channel": 1,
      "note": 65,
      "start": 49.4486,
      "duration": 0.3745,
      "velocity": 95,
      "chip": "ym2612"
    },
    {
      "channel": 5,
      "note": 84,
      "start": 49.6217,
      "duration": 0.3174,
      "velocity": 97,
      "chip": "ym2612"
    },
    {
      "channel": 4,
      "note": 39,
      "start": 49.6601,
      "duration": 0.2136,
      "velocity": 123,
      "chip": "ym2612"
    },
    {
      "channel": 0,
      "note": 84,
      "start": 49.8715,
      "duration": 0.2115,
      "velocity": 97,
      "chip": "ym2612"
    },
    {
      "channel": 1,
      "note": 63,
      "start": 49.8724,
      "duration": 0.3648,
      "velocity": 95,
      "chip": "ym2612"
    },
    {
      "channel": 3,
      "note": 69,
      "start": 49.8733,
      "duration": 0.2485,
      "velocity": 97,
      "chip": "ym2612"
    },
    {
      "channel": 4,
      "note": 39,
      "start": 49.874,
      "duration": 0.2095,
      "velocity": 123,
      "chip": "ym2612"
    },
    {
      "channel": 5,
      "note": 84,
      "start": 50.0454,
      "duration": 0.2115,
      "velocity": 97,
      "chip": "ym2612"
    },
    {
      "channel": 4,
      "note": 39,
      "start": 50.0839,
      "duration": 0.2122,
      "velocity": 123,
      "chip": "ym2612"
    },
    {
      "channel": 0,
      "note": 86,
      "start": 50.1509,
      "duration": 0.2114,
      "velocity": 97,
      "chip": "ym2612"
    },
    {
      "channel": 3,
      "note": 70,
      "start": 50.1519,
      "duration": 0.2492,
      "velocity": 97,
      "chip": "ym2612"
    },
    {
      "channel": 1,
      "note": 63,
      "start": 50.2954,
      "duration": 0.3655,
      "velocity": 95,
      "chip": "ym2612"
    },
    {
      "channel": 5,
      "note": 86,
      "start": 50.3343,
      "duration": 0.2018,
      "velocity": 97,
      "chip": "ym2612"
    },
    {
      "channel": 0,
      "note": 87,
      "start": 50.4398,
      "duration": 0.2018,
      "velocity": 97,
      "chip": "ym2612"
    },
    {
      "channel": 3,
      "note": 72,
      "start": 50.4407,
      "duration": 0.2396,
      "velocity": 97,
      "chip": "ym2612"
    },
    {
      "channel": 4,
      "note": 39,
      "start": 50.5078,
      "duration": 0.1055,
      "velocity": 123,
      "chip": "ym2612"
    },
    {
      "channel": 4,
      "note": 39,
      "start": 50.6137,
      "duration": 0.1085,
      "velocity": 123,
      "chip": "ym2612"
    },
    {
      "channel": 5,
      "note": 87,
      "start": 50.6144,
      "duration": 0.2106,
      "velocity": 97,
      "chip": "ym2612"
    },
    {
      "channel": 0,
      "note": 89,
      "start": 50.7191,
      "duration": 0.4714,
      "velocity": 97,
      "chip": "ym2612"
    },
    {
      "channel": 1,
      "note": 62,
      "start": 50.7198,
      "duration": 0.3648,
      "velocity": 95,
      "chip": "ym2612"
    },
    {
      "channel": 2,
      "note": 86,
      "start": 50.7207,
      "duration": 0.8471,
      "velocity": 105,
      "chip": "ym2612"
    },
    {
      "channel": 3,
      "note": 74,
      "start": 50.7214,
      "duration": 0.739,
      "velocity": 97,
      "chip": "ym2612"
    },
    {
      "channel": 4,
      "note": 39,
      "start": 50.7226,
      "duration": 0.2084,
      "velocity": 123,
      "chip": "ym2612"
    },
    {
      "channel": 5,
      "note": 89,
      "start": 50.8929,
      "duration": 0.4714,
      "velocity": 97,
      "chip": "ym2612"
    },
    {
      "channel": 4,
      "note": 39,
      "start": 50.9313,
      "duration": 0.2122,
      "velocity": 123,
      "chip": "ym2612"
    },
    {
      "channel": 1,
      "note": 62,
      "start": 51.1429,
      "duration": 0.3657,
      "velocity": 95,
      "chip": "ym2612"
    },
    {
      "channel": 0,
      "note": 86,
      "start": 51.3547,
      "duration": 0.1536,
      "velocity": 97,
      "chip": "ym2612"
    },
    {
      "channel": 4,
      "note": 39,
      "start": 51.3558,
      "duration": 0.2135,
      "velocity": 123,
      "chip": "ym2612"
    },
    {
      "channel": 5,
      "note": 86,
      "start": 51.5285,
      "duration": 0.1537,
      "velocity": 97,
      "chip": "ym2612"
    },
    {
      "channel": 0,
      "note": 89,
      "start": 51.5665,
      "duration": 0.6256,
      "velocity": 97,
      "chip": "ym2612"
    },
    {
      "channel": 1,
      "note": 60,
      "start": 51.5673,
      "duration": 0.3648,
      "velocity": 95,
      "chip": "ym2612"
    },
    {
      "channel": 2,
      "note": 86,
      "start": 51.5681,
      "duration": 0.8371,
      "velocity": 105,
      "chip": "ym2612"
    },
    {
      "channel": 3,
      "note": 72,
      "start": 51.5689,
      "duration": 0.2382,
      "velocity": 97,
      "chip": "ym2612"
    },
    {
      "channel": 4,
      "note": 39,
      "start": 51.5697,
      "duration": 0.1991,
      "velocity": 123,
      "chip": "ym2612"
    },
    {
      "channel": 5,
      "note": 89,
      "start": 51.7404,
      "duration": 0.6352,
      "velocity": 97,
      "chip": "ym2612"
    },
    {
      "channel": 4,
      "note": 39,
      "start": 51.7692,
      "duration": 0.2122,
      "velocity": 123,
      "chip": "ym2612"
    },
    {
      "channel": 3,
      "note": 74,
      "start": 51.8463,
      "duration": 0.2401,
      "velocity": 97,
      "chip": "ym2612"
    },
    {
      "channel": 1,
      "note": 60,
      "start": 51.9808,
      "duration": 0.3751,
      "velocity": 95,
      "chip": "ym2612"
    },
    {
      "channel": 3,
      "note": 72,
      "start": 52.1254,
      "duration": 0.2499,
      "velocity": 97,
      "chip": "ym2612"
    },
    {
      "channel": 4,
      "note": 39,
      "start": 52.1932,
      "duration": 0.1052,
      "velocity": 123,
      "chip": "ym2612"
    },
    {
      "channel": 4,
      "note": 39,
      "start": 52.2988,
      "duration": 0.108,
      "velocity": 123,
      "chip": "ym2612"
    },
    {
      "channel": 1,
      "note": 59,
      "start": 52.4048,
      "duration": 0.3749,
      "velocity": 95,
      "chip": "ym2612"
    },
    {
      "channel": 3,
      "note": 71,
      "start": 52.4061,
      "duration": 0.3739,
      "velocity": 97,
      "chip": "ym2612"
    },
    {
      "channel": 4,
      "note": 39,
      "start": 52.4072,
      "duration": 0.428,
      "velocity": 123,
      "chip": "ym2612"
    },
    {
      "channel": 0,
      "note": 92,
      "start": 52.8283,
      "duration": 0.635,
      "velocity": 97,
      "chip": "ym2612"
    },
    {
      "channel": 1,
      "note": 67,
      "start": 52.8292,
      "duration": 1.1061,
      "velocity": 95,
      "chip": "ym2612"
    },
    {
      "channel": 2,
      "note": 77,
      "start": 52.8336,
      "duration": 0.7359,
      "velocity": 97,
      "chip": "ym2612"
    },
    {
      "channel": 3,
      "note": 71,
      "start": 52.8343,
      "duration": 1.1013,
      "velocity": 97,
      "chip": "ym2612"
    },
    {
      "channel": 4,
      "note": 39,
      "start": 52.8355,
      "duration": 0.0313,
      "velocity": 123,
      "chip": "ym2612"
    },
    {
      "channel": 4,
      "note": 39,
      "start": 52.8672,
      "duration": 0.0382,
      "velocity": 123,
      "chip": "ym2612"
    },
    {
      "channel": 4,
      "note": 39,
      "start": 52.9057,
      "duration": 0.0285,
      "velocity": 123,
      "chip": "ym2612"
    },
    {
      "channel": 4,
      "note": 39,
      "start": 52.9346,
      "duration": 0.0382,
      "velocity": 123,
      "chip": "ym2612"
    },
    {
      "channel": 4,
      "note": 39,
      "start": 52.9731,
      "duration": 0.0285,
      "velocity": 123,
      "chip": "ym2612"
    },
    {
      "channel": 4,
      "note": 39,
      "start": 53.002,
      "duration": 0.0382,
      "velocity": 123,
      "chip": "ym2612"
    },
    {
      "channel": 5,
      "note": 92,
      "start": 53.0029,
      "duration": 0.6347,
      "velocity": 97,
      "chip": "ym2612"
    },
    {
      "channel": 4,
      "note": 39,
      "start": 53.0405,
      "duration": 0.0382,
      "velocity": 123,
      "chip": "ym2612"
    },
    {
      "channel": 4,
      "note": 39,
      "start": 53.0792,
      "duration": 0.0284,
      "velocity": 123,
      "chip": "ym2612"
    },
    {
      "channel": 4,
      "note": 39,
      "start": 53.1079,
      "duration": 0.0384,
      "velocity": 123,
      "chip": "ym2612"
    },
    {
      "channel": 4,
      "note": 39,
      "start": 53.1466,
      "duration": 0.038,
      "velocity": 123,
      "chip": "ym2612"
    },
    {
      "channel": 4,
      "note": 39,
      "start": 53.185,
      "duration": 0.0286,
      "velocity": 123,
      "chip": "ym2612"
    },
    {
      "channel": 4,
      "note": 39,
      "start": 53.2139,
      "duration": 0.0381,
      "velocity": 123,
      "chip": "ym2612"
    },
    {
      "channel": 4,
      "note": 39,
      "start": 53.2524,
      "duration": 0.0382,
      "velocity": 123,
      "chip": "ym2612"
    },
    {
      "channel": 4,
      "note": 39,
      "start": 53.291,
      "duration": 0.0285,
      "velocity": 123,
      "chip": "ym2612"
    },
    {
      "channel": 4,
      "note": 39,
      "start": 53.3198,
      "duration": 0.0382,
      "velocity": 123,
      "chip": "ym2612"
    },
    {
      "channel": 4,
      "note": 39,
      "start": 53.3583,
      "duration": 0.0383,
      "velocity": 123,
      "chip": "ym2612"
    },
    {
      "channel": 4,
      "note": 39,
      "start": 53.397,
      "duration": 0.0284,
      "velocity": 123,
      "chip": "ym2612"
    },
    {
      "channel": 4,
      "note": 39,
      "start": 53.4257,
      "duration": 0.0383,
      "velocity": 123,
      "chip": "ym2612"
    },
    {
      "channel": 4,
      "note": 39,
      "start": 53.4644,
      "duration": 0.038,
      "velocity": 123,
      "chip": "ym2612"
    },
    {
      "channel": 4,
      "note": 39,
      "start": 53.5028,
      "duration": 0.0285,
      "velocity": 123,
      "chip": "ym2612"
    },
    {
      "channel": 4,
      "note": 39,
      "start": 53.5317,
      "duration": 0.0383,
      "velocity": 123,
      "chip": "ym2612"
    },
    {
      "channel": 4,
      "note": 39,
      "start": 53.5703,
      "duration": 0.038,
      "velocity": 123,
      "chip": "ym2612"
    },
    {
      "channel": 4,
      "note": 39,
      "start": 53.6087,
      "duration": 0.0285,
      "velocity": 123,
      "chip": "ym2612"
    },
    {
      "channel": 0,
      "note": 90,
      "start": 53.6757,
      "duration": 0.3173,
      "velocity": 97,
      "chip": "ym2612"
    },
    {
      "channel": 2,
      "note": 74,
      "start": 53.6766,
      "duration": 0.3647,
      "velocity": 97,
      "chip": "ym2612"
    },
    {
      "channel": 4,
      "note": 39,
      "start": 53.6777,
      "duration": 0.4264,
      "velocity": 123,
      "chip": "ym2612"
    },
    {
      "channel": 5,
      "note": 90,
      "start": 53.8496,
      "duration": 0.3173,
      "velocity": 97,
      "chip": "ym2612"
    },
    {
      "channel": 0,
      "note": 91,
      "start": 54.0997,
      "duration": 0.0859,
      "velocity": 97,
      "chip": "ym2612"
    },
    {
      "channel": 1,
      "note": 63,
      "start": 54.1005,
      "duration": 0.5571,
      "velocity": 95,
      "chip": "ym2612"
    },
    {
      "channel": 2,
      "note": 75,
      "start": 54.1018,
      "duration": 0.0455,
      "velocity": 97,
      "chip": "ym2612"
    },
    {
      "channel": 3,
      "note": 70,
      "start": 54.1028,
      "duration": 0.189,
      "velocity": 97,
      "chip": "ym2612"
    },
    {
      "channel": 4,
      "note": 39,
      "start": 54.1045,
      "duration": 0.1013,
      "velocity": 123,
      "chip": "ym2612"
    },
    {
      "channel": 5,
      "note": 91,
      "start": 54.2735,
      "duration": 0.0861,
      "velocity": 97,
      "chip": "ym2612"
    },
    {
      "channel": 0,
      "note": 91,
      "start": 54.3112,
      "duration": 0.0863,
      "velocity": 97,
      "chip": "ym2612"
    },
    {
      "channel": 2,
      "note": 75,
      "start": 54.3121,
      "duration": 0.0471,
      "velocity": 97,
      "chip": "ym2612"
    },
    {
      "channel": 3,
      "note": 70,
      "start": 54.313,
      "duration": 0.1055,
      "velocity": 97,
      "chip": "ym2612"
    },
    {
      "channel": 4,
      "note": 39,
      "start": 54.3138,
      "duration": 0.1055,
      "velocity": 123,
      "chip": "ym2612"
    },
    {
      "channel": 0,
      "note": 90,
      "start": 54.4172,
      "duration": 0.0863,
      "velocity": 97,
      "chip": "ym2612"
    },
    {
      "channel": 2,
      "note": 74,
      "start": 54.418,
      "duration": 0.0471,
      "velocity": 97,
      "chip": "ym2612"
    },
    {
      "channel": 3,
      "note": 69,
      "start": 54.4188,
      "duration": 0.106,
      "velocity": 97,
      "chip": "ym2612"
    },
    {
      "channel": 4,
      "note": 39,
      "start": 54.4196,
      "duration": 0.106,
      "velocity": 123,
      "chip": "ym2612"
    },
    {
      "channel": 5,
      "note": 91,
      "start": 54.4851,
      "duration": 0.0864,
      "velocity": 97,
      "chip": "ym2612"
    },
    {
      "channel": 0,
      "note": 91,
      "start": 54.5233,
      "duration": 0.0861,
      "velocity": 97,
      "chip": "ym2612"
    },
    {
      "channel": 2,
      "note": 75,
      "start": 54.5243,
      "duration": 0.0468,
      "velocity": 97,
      "chip": "ym2612"
    },
    {
      "channel": 3,
      "note": 70,
      "start": 54.5252,
      "duration": 0.1903,
      "velocity": 97,
      "chip": "ym2612"
    },
    {
      "channel": 4,
      "note": 39,
      "start": 54.526,
      "duration": 0.1037,
      "velocity": 123,
      "chip": "ym2612"
    },
    {
      "channel": 5,
      "note": 90,
      "start": 54.591,
      "duration": 0.0862,
      "velocity": 97,
      "chip": "ym2612"
    },
    {
      "channel": 5,
      "note": 91,
      "start": 54.6972,
      "duration": 0.0861,
      "velocity": 97,
      "chip": "ym2612"
    },
    {
      "channel": 0,
      "note": 91,
      "start": 54.7351,
      "duration": 0.0861,
      "velocity": 97,
      "chip": "ym2612"
    },
    {
      "channel": 1,
      "note": 58,
      "start": 54.7359,
      "duration": 0.5573,
      "velocity": 95,
      "chip": "ym2612"
    },
    {
      "channel": 2,
      "note": 75,
      "start": 54.7368,
      "duration": 0.0461,
      "velocity": 97,
      "chip": "ym2612"
    },
    {
      "channel": 3,
      "note": 70,
      "start": 54.7378,
      "duration": 0.1896,
      "velocity": 97,
      "chip": "ym2612"
    },
    {
      "channel": 4,
      "note": 39,
      "start": 54.7387,
      "duration": 0.1028,
      "velocity": 123,
      "chip": "ym2612"
    },
    {
      "channel": 5,
      "note": 91,
      "start": 54.909,
      "duration": 0.0863,
      "velocity": 97,
      "chip": "ym2612"
    },
    {
      "channel": 0,
      "note": 91,
      "start": 54.9469,
      "duration": 0.0863,
      "velocity": 97,
      "chip": "ym2612"
    },
    {
      "channel": 2,
      "note": 75,
      "start": 54.9477,
      "duration": 0.0471,
      "velocity": 97,
      "chip": "ym2612"
    },
    {
      "channel": 3,
      "note": 70,
      "start": 54.9485,
      "duration": 0.1055,
      "velocity": 97,
      "chip": "ym2612"
    },
    {
      "channel": 4,
      "note": 39,
      "start": 54.9493,
      "duration": 0.1055,
      "velocity": 123,
      "chip": "ym2612"
    },
    {
      "channel": 0,
      "note": 90,
      "start": 55.0528,
      "duration": 0.0863,
      "velocity": 97,
      "chip": "ym2612"
    },
    {
      "channel": 2,
      "note": 74,
      "start": 55.0536,
      "duration": 0.0471,
      "velocity": 97,
      "chip": "ym2612"
    },
    {
      "channel": 3,
      "note": 69,
      "start": 55.0544,
      "duration": 0.106,
      "velocity": 97,
      "chip": "ym2612"
    },
    {
      "channel": 4,
      "note": 39,
      "start": 55.0552,
      "duration": 0.1061,
      "velocity": 123,
      "chip": "ym2612"
    },
    {
      "channel": 5,
      "note": 91,
      "start": 55.1207,
      "duration": 0.0864,
      "velocity": 97,
      "chip": "ym2612"
    },
    {
      "channel": 0,
      "note": 91,
      "start": 55.1589,
      "duration": 0.0861,
      "velocity": 97,
      "chip": "ym2612"
    },
    {
      "channel": 2,
      "note": 75,
      "start": 55.1599,
      "duration": 0.0468,
      "velocity": 97,
      "chip": "ym2612"
    },
    {
      "channel": 3,
      "note": 70,
      "start": 55.1608,
      "duration": 0.1903,
      "velocity": 97,
      "chip": "ym2612"
    },
    {
      "channel": 4,
      "note": 39,
      "start": 55.1616,
      "duration": 0.1036,
      "velocity": 123,
      "chip": "ym2612"
    },
    {
      "channel": 5,
      "note": 90,
      "start": 55.2266,
      "duration": 0.0863,
      "velocity": 97,
      "chip": "ym2612"
    },
    {
      "channel": 5,
      "note": 91,
      "start": 55.3327,
      "duration": 0.0863,
      "velocity": 97,
      "chip": "ym2612"
    },
    {
      "channel": 0,
      "note": 91,
      "start": 55.3707,
      "duration": 0.0861,
      "velocity": 97,
      "chip": "ym2612"
    },
    {
      "channel": 1,
      "note": 63,
      "start": 55.3715,
      "duration": 0.3647,
      "velocity": 95,
      "chip": "ym2612"
    },
    {
      "channel": 2,
      "note": 75,
      "start": 55.3724,
      "duration": 0.0461,
      "velocity": 97,
      "chip": "ym2612"
    },
    {
      "channel": 3,
      "note": 70,
      "start": 55.3734,
      "duration": 0.1898,
      "velocity": 97,
      "chip": "ym2612"
    },
    {
      "channel": 4,
      "note": 39,
      "start": 55.3743,
      "duration": 0.0931,
      "velocity": 123,
      "chip": "ym2612"
    },
    {
      "channel": 5,
      "note": 91,
      "start": 55.5446,
      "duration": 0.0863,
      "velocity": 97,
      "chip": "ym2612"
    },
    {
      "channel": 0,
      "note": 91,
      "start": 55.5728,
      "duration": 0.0959,
      "velocity": 97,
      "chip": "ym2612"
    },
    {
      "channel": 2,
      "note": 75,
      "start": 55.5737,
      "duration": 0.0567,
      "velocity": 97,
      "chip": "ym2612"
    },
    {
      "channel": 3,
      "note": 70,
      "start": 55.5745,
      "duration": 0.1057,
      "velocity": 97,
      "chip": "ym2612"
    },
    {
      "channel": 4,
      "note": 39,
      "start": 55.5753,
      "duration": 0.1056,
      "velocity": 123,
      "chip": "ym2612"
    },
    {
      "channel": 0,
      "note": 90,
      "start": 55.6787,
      "duration": 0.0959,
      "velocity": 97,
      "chip": "ym2612"
    },
    {
      "channel": 2,
      "note": 74,
      "start": 55.6798,
      "duration": 0.0567,
      "velocity": 97,
      "chip": "ym2612"
    },
    {
      "channel": 3,
      "note": 69,
      "start": 55.6806,
      "duration": 0.1067,
      "velocity": 97,
      "chip": "ym2612"
    },
    {
      "channel": 4,
      "note": 39,
      "start": 55.6813,
      "duration": 0.1068,
      "velocity": 123,
      "chip": "ym2612"
    },
    {
      "channel": 5,
      "note": 91,
      "start": 55.7563,
      "duration": 0.0863,
      "velocity": 97,
      "chip": "ym2612"
    },
    {
      "channel": 0,
      "note": 91,
      "start": 55.7849,
      "duration": 0.1632,
      "velocity": 97,
      "chip": "ym2612"
    },
    {
      "channel": 1,
      "note": 65,
      "start": 55.7856,
      "duration": 0.3745,
      "velocity": 95,
      "chip": "ym2612"
    },
    {
      "channel": 2,
      "note": 75,
      "start": 55.7868,
      "duration": 0.1037,
      "velocity": 97,
      "chip": "ym2612"
    },
    {
      "channel": 3,
      "note": 70,
      "start": 55.7876,
      "duration": 0.3728,
      "velocity": 97,
      "chip": "ym2612"
    },
    {
      "channel": 4,
      "note": 39,
      "start": 55.7884,
      "duration": 0.1023,
      "velocity": 123,
      "chip": "ym2612"
    },
    {
      "channel": 5,
      "note": 90,
      "start": 55.8623,
      "duration": 0.0863,
      "velocity": 97,
      "chip": "ym2612"
    },
    {
      "channel": 5,
      "note": 91,
      "start": 55.9683,
      "duration": 0.1536,
      "velocity": 97,
      "chip": "ym2612"
    },
    {
      "channel": 0,
      "note": 94,
      "start": 56.2086,
      "duration": 0.3172,
      "velocity": 97,
      "chip": "ym2612"
    },
    {
      "channel": 2,
      "note": 79,
      "start": 56.2098,
      "duration": 0.2103,
      "velocity": 97,
      "chip": "ym2612"
    },
    {
      "channel": 3,
      "note": 75,
      "start": 56.2109,
      "duration": 0.3732,
      "velocity": 97,
      "chip": "ym2612"
    },
    {
      "channel": 5,
      "note": 94,
      "start": 56.392,
      "duration": 0.3076,
      "velocity": 97,
      "chip": "ym2612"
    },
    {
      "channel": 0,
      "note": 94,
      "start": 56.6324,
      "duration": 0.2112,
      "velocity": 97,
      "chip": "ym2612"
    },
    {
      "channel": 1,
      "note": 65,
      "start": 56.6332,
      "duration": 0.249,
      "velocity": 95,
      "chip": "ym2612"
    },
    {
      "channel": 2,
      "note": 79,
      "start": 56.6344,
      "duration": 0.2095,
      "velocity": 97,
      "chip": "ym2612"
    },
    {
      "channel": 3,
      "note": 75,
      "start": 56.6352,
      "duration": 0.2474,
      "velocity": 97,
      "chip": "ym2612"
    },
    {
      "channel": 4,
      "note": 39,
      "start": 56.6361,
      "duration": 0.2784,
      "velocity": 123,
      "chip": "ym2612"
    },
    {
      "channel": 5,
      "note": 94,
      "start": 56.8063,
      "duration": 0.2112,
      "velocity": 97,
      "chip": "ym2612"
    },
    {
      "channel": 0,
      "note": 96,
      "start": 56.9115,
      "duration": 0.2115,
      "velocity": 97,
      "chip": "ym2612"
    },
    {
      "channel": 1,
      "note": 65,
      "start": 56.9123,
      "duration": 0.2492,
      "velocity": 95,
      "chip": "ym2612"
    },
    {
      "channel": 2,
      "note": 81,
      "start": 56.9133,
      "duration": 0.2099,
      "velocity": 97,
      "chip": "ym2612"
    },
    {
      "channel": 3,
      "note": 77,
      "start": 56.9141,
      "duration": 0.2477,
      "velocity": 97,
      "chip": "ym2612"
    },
    {
      "channel": 4,
      "note": 39,
      "start": 56.9149,
      "duration": 0.2883,
      "velocity": 123,
      "chip": "ym2612"
    },
    {
      "channel": 5,
      "note": 96,
      "start": 57.095,
      "duration": 0.2115,
      "velocity": 97,
      "chip": "ym2612"
    },
    {
      "channel": 0,
      "note": 98,
      "start": 57.2004,
      "duration": 0.2114,
      "velocity": 97,
      "chip": "ym2612"
    },
    {
      "channel": 1,
      "note": 65,
      "start": 57.2012,
      "duration": 0.2396,
      "velocity": 95,
      "chip": "ym2612"
    },
    {
      "channel": 2,
      "note": 82,
      "start": 57.202,
      "duration": 0.2102,
      "velocity": 97,
      "chip": "ym2612"
    },
    {
      "channel": 3,
      "note": 79,
      "start": 57.2028,
      "duration": 0.2383,
      "velocity": 97,
      "chip": "ym2612"
    },
    {
      "channel": 4,
      "note": 39,
      "start": 57.2035,
      "duration": 0.2807,
      "velocity": 123,
      "chip": "ym2612"
    },
    {
      "channel": 5,
      "note": 98,
      "start": 57.3743,
      "duration": 0.2114,
      "velocity": 97,
      "chip": "ym2612"
    },
    {
      "channel": 0,
      "note": 94,
      "start": 57.4798,
      "duration": 0.1536,
      "velocity": 97,
      "chip": "ym2612"
    },
    {
      "channel": 1,
      "note": 70,
      "start": 57.4807,
      "duration": 0.3648,
      "velocity": 95,
      "chip": "ym2612"
    },
    {
      "channel": 2,
      "note": 77,
      "start": 57.4817,
      "duration": 0.152,
      "velocity": 97,
      "chip": "ym2612"
    },
    {
      "channel": 3,
      "note": 74,
      "start": 57.4824,
      "duration": 0.1897,
      "velocity": 97,
      "chip": "ym2612"
    },
    {
      "channel": 4,
      "note": 39,
      "start": 57.4846,
      "duration": 0.85,
      "velocity": 123,
      "chip": "ym2612"
    },
    {
      "channel": 5,
      "note": 94,
      "start": 57.6535,
      "duration": 0.1633,
      "velocity": 97,
      "chip": "ym2612"
    },
    {
      "channel": 0,
      "note": 77,
      "start": 57.9068,
      "duration": 0.0636,
      "velocity": 97,
      "chip": "ym2612"
    },
    {
      "channel": 2,
      "note": 73,
      "start": 57.9119,
      "duration": 0.0588,
      "velocity": 97,
      "chip": "ym2612"
    },
    {
      "channel": 3,
      "note": 68,
      "start": 57.9168,
      "duration": 0.1116,
      "velocity": 97,
      "chip": "ym2612"
    },
    {
      "channel": 0,
      "note": 78,
      "start": 58.0383,
      "duration": 0.0766,
      "velocity": 97,
      "chip": "ym2612"
    },
    {
      "channel": 2,
      "note": 75,
      "start": 58.0391,
      "duration": 0.0761,
      "velocity": 97,
      "chip": "ym2612"
    },
    {
      "channel": 3,
      "note": 70,
      "start": 58.0399,
      "duration": 0.1234,
      "velocity": 97,
      "chip": "ym2612"
    },
    {
      "channel": 5,
      "note": 77,
      "start": 58.0809,
      "duration": 0.0634,
      "velocity": 97,
      "chip": "ym2612"
    },
    {
      "channel": 0,
      "note": 79,
      "start": 58.1827,
      "duration": 0.067,
      "velocity": 97,
      "chip": "ym2612"
    },
    {
      "channel": 2,
      "note": 76,
      "start": 58.1836,
      "duration": 0.0665,
      "velocity": 97,
      "chip": "ym2612"
    },
    {
      "channel": 3,
      "note": 72,
      "start": 58.1843,
      "duration": 0.1234,
      "velocity": 97,
      "chip": "ym2612"
    },
    {
      "channel": 5,
      "note": 78,
      "start": 58.2217,
      "duration": 0.0669,
      "velocity": 97,
      "chip": "ym2612"
    },
    {
      "channel": 0,
      "note": 80,
      "start": 58.3275,
      "duration": 0.9431,
      "velocity": 97,
      "chip": "ym2612"
    },
    {
      "channel": 1,
      "note": 49,
      "start": 58.3317,
      "duration": 0.7848,
      "velocity": 105,
      "chip": "ym2612"
    },
    {
      "channel": 2,
      "note": 77,
      "start": 58.3327,
      "duration": 0.9381,
      "velocity": 97,
      "chip": "ym2612"
    },
    {
      "channel": 3,
      "note": 73,
      "start": 58.3336,
      "duration": 1.1009,
      "velocity": 97,
      "chip": "ym2612"
    },
    {
      "channel": 4,
      "note": 39,
      "start": 58.3349,
      "duration": 0.0213,
      "velocity": 123,
      "chip": "ym2612"
    },
    {
      "channel": 4,
      "note": 39,
      "start": 58.3566,
      "duration": 0.0382,
      "velocity": 123,
      "chip": "ym2612"
    },
    {
      "channel": 5,
      "note": 79,
      "start": 58.3574,
      "duration": 0.0766,
      "velocity": 97,
      "chip": "ym2612"
    },
    {
      "channel": 4,
      "note": 39,
      "start": 58.3951,
      "duration": 0.0381,
      "velocity": 123,
      "chip": "ym2612"
    },
    {
      "channel": 4,
      "note": 39,
      "start": 58.4336,
      "duration": 0.0286,
      "velocity": 123,
      "chip": "ym2612"
    },
    {
      "channel": 4,
      "note": 39,
      "start": 58.4627,
      "duration": 0.038,
      "velocity": 123,
      "chip": "ym2612"
    },
    {
      "channel": 4,
      "note": 39,
      "start": 58.5011,
      "duration": 0.0382,
      "velocity": 123,
      "chip": "ym2612"
    },
    {
      "channel": 5,
      "note": 80,
      "start": 58.5022,
      "duration": 0.9518,
      "velocity": 97,
      "chip": "ym2612"
    },
    {
      "channel": 4,
      "note": 39,
      "start": 58.5395,
      "duration": 0.0286,
      "velocity": 123,
      "chip": "ym2612"
    },
    {
      "channel": 4,
      "note": 39,
      "start": 58.5685,
      "duration": 0.0382,
      "velocity": 123,
      "chip": "ym2612"
    },
    {
      "channel": 4,
      "note": 39,
      "start": 58.607,
      "duration": 0.0382,
      "velocity": 123,
      "chip": "ym2612"
    },
    {
      "channel": 4,
      "note": 39,
      "start": 58.6455,
      "duration": 0.0285,
      "velocity": 123,
      "chip": "ym2612"
    },
    {
      "channel": 4,
      "note": 39,
      "start": 58.6744,
      "duration": 0.0383,
      "velocity": 123,
      "chip": "ym2612"
    },
    {
      "channel": 4,
      "note": 39,
      "start": 58.7131,
      "duration": 0.038,
      "velocity": 123,
      "chip": "ym2612"
    },
    {
      "channel": 4,
      "note": 39,
      "start": 58.7515,
      "duration": 0.0287,
      "velocity": 123,
      "chip": "ym2612"
    },
    {
      "channel": 4,
      "note": 39,
      "start": 58.7805,
      "duration": 0.038,
      "velocity": 123,
      "chip": "ym2612"
    },
    {
      "channel": 4,
      "note": 39,
      "start": 58.8189,
      "duration": 0.0382,
      "velocity": 123,
      "chip": "ym2612"
    },
    {
      "channel": 4,
      "note": 39,
      "start": 58.8574,
      "duration": 0.0285,
      "velocity": 123,
      "chip": "ym2612"
    },
    {
      "channel": 4,
      "note": 39,
      "start": 58.8863,
      "duration": 0.0381,
      "velocity": 123,
      "chip": "ym2612"
    },
    {
      "channel": 4,
      "note": 39,
      "start": 58.9248,
      "duration": 0.0384,
      "velocity": 123,
      "chip": "ym2612"
    },
    {
      "channel": 4,
      "note": 39,
      "start": 58.9635,
      "duration": 0.0284,
      "velocity": 123,
      "chip": "ym2612"
    },
    {
      "channel": 4,
      "note": 39,
      "start": 58.9922,
      "duration": 0.0382,
      "velocity": 123,
      "chip": "ym2612"
    },
    {
      "channel": 4,
      "note": 39,
      "start": 59.0307,
      "duration": 0.0382,
      "velocity": 123,
      "chip": "ym2612"
    },
    {
      "channel": 4,
      "note": 39,
      "start": 59.0693,
      "duration": 0.0286,
      "velocity": 123,
      "chip": "ym2612"
    },
    {
      "channel": 4,
      "note": 39,
      "start": 59.0981,
      "duration": 0.0382,
      "velocity": 123,
      "chip": "ym2612"
    },
    {
      "channel": 4,
      "note": 39,
      "start": 59.1367,
      "duration": 0.0298,
      "velocity": 123,
      "chip": "ym2612"
    },
    {
      "channel": 1,
      "note": 52,
      "start": 59.1653,
      "duration": 0.4034,
      "velocity": 105,
      "chip": "ym2612"
    },
    {
      "channel": 4,
      "note": 39,
      "start": 59.1669,
      "duration": 0.4018,
      "velocity": 123,
      "chip": "ym2612"
    }
  ]
}