{
  "track_name": "03 - Green Grove Zone Act 1",
  "duration_sec": 93.648,
  "sample_rate": 44100,
  "note_count": 1495,
  "unique_pitches": 46,
  "pitch_range": 48,
  "avg_note_duration": 0.2176,
  "reconstruction_stats": {
    "notes_reconstructed": 1495,
    "keyon_events": 1495,
    "keyoff_events": 1492,
    "orphan_keyons": 3,
    "unique_pitches": 46,
    "pitch_range": 48,
    "avg_duration_sec": 0.2176
  },
  "metadata": {
    "source": "S\\Sonic 3D Blast\\03 - Green Grove Zone Act 1.vgm"
  },
  "notes": [
    {
      "channel": 0,
      "note": 62,
      "start": 0.0,
      "duration": 0.1049,
      "velocity": 91,
      "chip": "ym2612"
    },
    {
      "channel": 1,
      "note": 90,
      "start": 0.0034,
      "duration": 0.1321,
      "velocity": 101,
      "chip": "ym2612"
    },
    {
      "channel": 2,
      "note": 86,
      "start": 0.0068,
      "duration": 0.1293,
      "velocity": 101,
      "chip": "ym2612"
    },
    {
      "channel": 3,
      "note": 74,
      "start": 0.0099,
      "duration": 0.0409,
      "velocity": 104,
      "chip": "ym2612"
    },
    {
      "channel": 4,
      "note": 78,
      "start": 0.0144,
      "duration": 0.0371,
      "velocity": 104,
      "chip": "ym2612"
    },
    {
      "channel": 3,
      "note": 69,
      "start": 0.0513,
      "duration": 0.0198,
      "velocity": 104,
      "chip": "ym2612"
    },
    {
      "channel": 4,
      "note": 74,
      "start": 0.0521,
      "duration": 0.0197,
      "velocity": 104,
      "chip": "ym2612"
    },
    {
      "channel": 3,
      "note": 74,
      "start": 0.0717,
      "duration": 0.0446,
      "velocity": 104,
      "chip": "ym2612"
    },
    {
      "channel": 4,
      "note": 78,
      "start": 0.0724,
      "duration": 0.0446,
      "velocity": 104,
      "chip": "ym2612"
    },
    {
      "channel": 0,
      "note": 62,
      "start": 0.1054,
      "duration": 0.0293,
      "velocity": 91,
      "chip": "ym2612"
    },
    {
      "channel": 3,
      "note": 78,
      "start": 0.1168,
      "duration": 0.1108,
      "velocity": 104,
      "chip": "ym2612"
    },
    {
      "channel": 4,
      "note": 81,
      "start": 0.1176,
      "duration": 0.1107,
      "velocity": 104,
      "chip": "ym2612"
    },
    {
      "channel": 0,
      "note": 57,
      "start": 0.1353,
      "duration": 0.2577,
      "velocity": 91,
      "chip": "ym2612"
    },
    {
      "channel": 1,
      "note": 93,
      "start": 0.136,
      "duration": 0.3746,
      "velocity": 101,
      "chip": "ym2612"
    },
    {
      "channel": 2,
      "note": 90,
      "start": 0.1368,
      "duration": 0.3746,
      "velocity": 101,
      "chip": "ym2612"
    },
    {
      "channel": 3,
      "note": 74,
      "start": 0.2281,
      "duration": 0.0661,
      "velocity": 104,
      "chip": "ym2612"
    },
    {
      "channel": 4,
      "note": 78,
      "start": 0.2289,
      "duration": 0.066,
      "velocity": 104,
      "chip": "ym2612"
    },
    {
      "channel": 3,
      "note": 69,
      "start": 0.2948,
      "duration": 0.2174,
      "velocity": 104,
      "chip": "ym2612"
    },
    {
      "channel": 4,
      "note": 74,
      "start": 0.2956,
      "duration": 0.2173,
      "velocity": 104,
      "chip": "ym2612"
    },
    {
      "channel": 0,
      "note": 57,
      "start": 0.3934,
      "duration": 0.1165,
      "velocity": 91,
      "chip": "ym2612"
    },
    {
      "channel": 0,
      "note": 61,
      "start": 0.5105,
      "duration": 0.0293,
      "velocity": 91,
      "chip": "ym2612"
    },
    {
      "channel": 1,
      "note": 92,
      "start": 0.5113,
      "duration": 0.0288,
      "velocity": 101,
      "chip": "ym2612"
    },
    {
      "channel": 2,
      "note": 87,
      "start": 0.512,
      "duration": 0.0284,
      "velocity": 101,
      "chip": "ym2612"
    },
    {
      "channel": 3,
      "note": 75,
      "start": 0.5127,
      "duration": 0.0361,
      "velocity": 104,
      "chip": "ym2612"
    },
    {
      "channel": 4,
      "note": 78,
      "start": 0.5135,
      "duration": 0.0361,
      "velocity": 104,
      "chip": "ym2612"
    },
    {
      "channel": 3,
      "note": 69,
      "start": 0.5494,
      "duration": 0.0216,
      "velocity": 104,
      "chip": "ym2612"
    },
    {
      "channel": 4,
      "note": 75,
      "start": 0.5502,
      "duration": 0.0215,
      "velocity": 104,
      "chip": "ym2612"
    },
    {
      "channel": 0,
      "note": 62,
      "start": 0.5694,
      "duration": 0.2352,
      "velocity": 91,
      "chip": "ym2612"
    },
    {
      "channel": 1,
      "note": 90,
      "start": 0.5701,
      "duration": 0.2353,
      "velocity": 101,
      "chip": "ym2612"
    },
    {
      "channel": 2,
      "note": 87,
      "start": 0.5709,
      "duration": 0.2353,
      "velocity": 101,
      "chip": "ym2612"
    },
    {
      "channel": 3,
      "note": 75,
      "start": 0.5716,
      "duration": 0.0379,
      "velocity": 104,
      "chip": "ym2612"
    },
    {
      "channel": 4,
      "note": 78,
      "start": 0.5723,
      "duration": 0.0379,
      "velocity": 104,
      "chip": "ym2612"
    },
    {
      "channel": 3,
      "note": 78,
      "start": 0.6101,
      "duration": 0.1291,
      "velocity": 104,
      "chip": "ym2612"
    },
    {
      "channel": 4,
      "note": 81,
      "start": 0.6108,
      "duration": 0.1291,
      "velocity": 104,
      "chip": "ym2612"
    },
    {
      "channel": 3,
      "note": 75,
      "start": 0.7398,
      "duration": 0.067,
      "velocity": 104,
      "chip": "ym2612"
    },
    {
      "channel": 4,
      "note": 78,
      "start": 0.7405,
      "duration": 0.0669,
      "velocity": 104,
      "chip": "ym2612"
    },
    {
      "channel": 0,
      "note": 63,
      "start": 0.8053,
      "duration": 0.2163,
      "velocity": 91,
      "chip": "ym2612"
    },
    {
      "channel": 1,
      "note": 89,
      "start": 0.806,
      "duration": 0.2164,
      "velocity": 101,
      "chip": "ym2612"
    },
    {
      "channel": 2,
      "note": 87,
      "start": 0.8066,
      "duration": 0.2165,
      "velocity": 101,
      "chip": "ym2612"
    },
    {
      "channel": 3,
      "note": 69,
      "start": 0.8073,
      "duration": 0.2166,
      "velocity": 104,
      "chip": "ym2612"
    },
    {
      "channel": 4,
      "note": 75,
      "start": 0.8081,
      "duration": 0.2165,
      "velocity": 104,
      "chip": "ym2612"
    },
    {
      "channel": 0,
      "note": 64,
      "start": 1.0222,
      "duration": 0.2412,
      "velocity": 91,
      "chip": "ym2612"
    },
    {
      "channel": 1,
      "note": 88,
      "start": 1.023,
      "duration": 0.96,
      "velocity": 102,
      "chip": "ym2612"
    },
    {
      "channel": 2,
      "note": 83,
      "start": 1.0237,
      "duration": 0.962,
      "velocity": 103,
      "chip": "ym2612"
    },
    {
      "channel": 3,
      "note": 71,
      "start": 1.0245,
      "duration": 0.0277,
      "velocity": 104,
      "chip": "ym2612"
    },
    {
      "channel": 4,
      "note": 76,
      "start": 1.0252,
      "duration": 0.0273,
      "velocity": 104,
      "chip": "ym2612"
    },
    {
      "channel": 0,
      "note": 52,
      "start": 1.3808,
      "duration": 0.5987,
      "velocity": 91,
      "chip": "ym2612"
    },
    {
      "channel": 3,
      "note": 76,
      "start": 1.3824,
      "duration": 0.6036,
      "velocity": 104,
      "chip": "ym2612"
    },
    {
      "channel": 4,
      "note": 80,
      "start": 1.3833,
      "duration": 0.6031,
      "velocity": 104,
      "chip": "ym2612"
    },
    {
      "channel": 0,
      "note": 57,
      "start": 1.9801,
      "duration": 0.3074,
      "velocity": 91,
      "chip": "ym2612"
    },
    {
      "channel": 1,
      "note": 76,
      "start": 2.0219,
      "duration": 0.3166,
      "velocity": 102,
      "chip": "ym2612"
    },
    {
      "channel": 2,
      "note": 85,
      "start": 2.0227,
      "duration": 0.3166,
      "velocity": 103,
      "chip": "ym2612"
    },
    {
      "channel": 3,
      "note": 69,
      "start": 2.0234,
      "duration": 0.0987,
      "velocity": 104,
      "chip": "ym2612"
    },
    {
      "channel": 4,
      "note": 73,
      "start": 2.0241,
      "duration": 0.0982,
      "velocity": 104,
      "chip": "ym2612"
    },
    {
      "channel": 3,
      "note": 69,
      "start": 2.2393,
      "duration": 0.1007,
      "velocity": 104,
      "chip": "ym2612"
    },
    {
      "channel": 4,
      "note": 73,
      "start": 2.2401,
      "duration": 0.1007,
      "velocity": 104,
      "chip": "ym2612"
    },
    {
      "channel": 0,
      "note": 57,
      "start": 2.3384,
      "duration": 0.0929,
      "velocity": 91,
      "chip": "ym2612"
    },
    {
      "channel": 1,
      "note": 73,
      "start": 2.3392,
      "duration": 0.0271,
      "velocity": 102,
      "chip": "ym2612"
    },
    {
      "channel": 2,
      "note": 81,
      "start": 2.3399,
      "duration": 0.0267,
      "velocity": 103,
      "chip": "ym2612"
    },
    {
      "channel": 3,
      "note": 69,
      "start": 2.3406,
      "duration": 0.0263,
      "velocity": 104,
      "chip": "ym2612"
    },
    {
      "channel": 4,
      "note": 73,
      "start": 2.3414,
      "duration": 0.0258,
      "velocity": 104,
      "chip": "ym2612"
    },
    {
      "channel": 1,
      "note": 74,
      "start": 2.3929,
      "duration": 0.0727,
      "velocity": 102,
      "chip": "ym2612"
    },
    {
      "channel": 2,
      "note": 81,
      "start": 2.3936,
      "duration": 0.0723,
      "velocity": 103,
      "chip": "ym2612"
    },
    {
      "channel": 3,
      "note": 69,
      "start": 2.3943,
      "duration": 0.0719,
      "velocity": 104,
      "chip": "ym2612"
    },
    {
      "channel": 4,
      "note": 73,
      "start": 2.3951,
      "duration": 0.0714,
      "velocity": 104,
      "chip": "ym2612"
    },
    {
      "channel": 0,
      "note": 52,
      "start": 2.4654,
      "duration": 0.0392,
      "velocity": 91,
      "chip": "ym2612"
    },
    {
      "channel": 1,
      "note": 76,
      "start": 2.4923,
      "duration": 0.0247,
      "velocity": 102,
      "chip": "ym2612"
    },
    {
      "channel": 2,
      "note": 85,
      "start": 2.4931,
      "duration": 0.0246,
      "velocity": 103,
      "chip": "ym2612"
    },
    {
      "channel": 0,
      "note": 54,
      "start": 2.5168,
      "duration": 0.2161,
      "velocity": 91,
      "chip": "ym2612"
    },
    {
      "channel": 1,
      "note": 81,
      "start": 2.5176,
      "duration": 0.2159,
      "velocity": 102,
      "chip": "ym2612"
    },
    {
      "channel": 2,
      "note": 88,
      "start": 2.5183,
      "duration": 0.2157,
      "velocity": 103,
      "chip": "ym2612"
    },
    {
      "channel": 0,
      "note": 54,
      "start": 2.7334,
      "duration": 0.0998,
      "velocity": 91,
      "chip": "ym2612"
    },
    {
      "channel": 1,
      "note": 81,
      "start": 2.7339,
      "duration": 0.1,
      "velocity": 102,
      "chip": "ym2612"
    },
    {
      "channel": 2,
      "note": 88,
      "start": 2.7345,
      "duration": 0.1001,
      "velocity": 103,
      "chip": "ym2612"
    },
    {
      "channel": 0,
      "note": 52,
      "start": 2.8337,
      "duration": 0.0399,
      "velocity": 91,
      "chip": "ym2612"
    },
    {
      "channel": 1,
      "note": 80,
      "start": 2.8345,
      "duration": 0.0282,
      "velocity": 102,
      "chip": "ym2612"
    },
    {
      "channel": 2,
      "note": 88,
      "start": 2.8352,
      "duration": 0.0278,
      "velocity": 103,
      "chip": "ym2612"
    },
    {
      "channel": 0,
      "note": 54,
      "start": 2.8847,
      "duration": 0.0411,
      "velocity": 91,
      "chip": "ym2612"
    },
    {
      "channel": 1,
      "note": 76,
      "start": 2.8854,
      "duration": 0.0254,
      "velocity": 102,
      "chip": "ym2612"
    },
    {
      "channel": 2,
      "note": 85,
      "start": 2.8862,
      "duration": 0.025,
      "velocity": 103,
      "chip": "ym2612"
    },
    {
      "channel": 0,
      "note": 57,
      "start": 2.938,
      "duration": 0.2911,
      "velocity": 91,
      "chip": "ym2612"
    },
    {
      "channel": 1,
      "note": 78,
      "start": 2.9388,
      "duration": 0.2407,
      "velocity": 102,
      "chip": "ym2612"
    },
    {
      "channel": 2,
      "note": 85,
      "start": 2.9395,
      "duration": 0.2407,
      "velocity": 103,
      "chip": "ym2612"
    },
    {
      "channel": 3,
      "note": 69,
      "start": 2.9402,
      "duration": 0.0275,
      "velocity": 104,
      "chip": "ym2612"
    },
    {
      "channel": 4,
      "note": 73,
      "start": 2.941,
      "duration": 0.027,
      "velocity": 104,
      "chip": "ym2612"
    },
    {
      "channel": 1,
      "note": 76,
      "start": 3.1801,
      "duration": 0.155,
      "velocity": 102,
      "chip": "ym2612"
    },
    {
      "channel": 2,
      "note": 85,
      "start": 3.1808,
      "duration": 0.155,
      "velocity": 103,
      "chip": "ym2612"
    },
    {
      "channel": 3,
      "note": 69,
      "start": 3.1816,
      "duration": 0.0993,
      "velocity": 104,
      "chip": "ym2612"
    },
    {
      "channel": 4,
      "note": 73,
      "start": 3.1824,
      "duration": 0.0988,
      "velocity": 104,
      "chip": "ym2612"
    },
    {
      "channel": 0,
      "note": 57,
      "start": 3.2799,
      "duration": 0.093,
      "velocity": 91,
      "chip": "ym2612"
    },
    {
      "channel": 1,
      "note": 74,
      "start": 3.3356,
      "duration": 0.1393,
      "velocity": 102,
      "chip": "ym2612"
    },
    {
      "channel": 2,
      "note": 81,
      "start": 3.3364,
      "duration": 0.1393,
      "velocity": 103,
      "chip": "ym2612"
    },
    {
      "channel": 3,
      "note": 69,
      "start": 3.3371,
      "duration": 0.0877,
      "velocity": 104,
      "chip": "ym2612"
    },
    {
      "channel": 4,
      "note": 73,
      "start": 3.3379,
      "duration": 0.0871,
      "velocity": 104,
      "chip": "ym2612"
    },
    {
      "channel": 0,
      "note": 61,
      "start": 3.4238,
      "duration": 0.0386,
      "velocity": 91,
      "chip": "ym2612"
    },
    {
      "channel": 0,
      "note": 62,
      "start": 3.4749,
      "duration": 0.2159,
      "velocity": 91,
      "chip": "ym2612"
    },
    {
      "channel": 1,
      "note": 73,
      "start": 3.4755,
      "duration": 0.3329,
      "velocity": 102,
      "chip": "ym2612"
    },
    {
      "channel": 2,
      "note": 81,
      "start": 3.4763,
      "duration": 0.3328,
      "velocity": 103,
      "chip": "ym2612"
    },
    {
      "channel": 3,
      "note": 69,
      "start": 3.5927,
      "duration": 0.0996,
      "velocity": 104,
      "chip": "ym2612"
    },
    {
      "channel": 4,
      "note": 73,
      "start": 3.5934,
      "duration": 0.0993,
      "velocity": 104,
      "chip": "ym2612"
    },
    {
      "channel": 0,
      "note": 63,
      "start": 3.6914,
      "duration": 0.1163,
      "velocity": 91,
      "chip": "ym2612"
    },
    {
      "channel": 0,
      "note": 64,
      "start": 3.8083,
      "duration": 0.0277,
      "velocity": 91,
      "chip": "ym2612"
    },
    {
      "channel": 1,
      "note": 71,
      "start": 3.809,
      "duration": 0.0568,
      "velocity": 102,
      "chip": "ym2612"
    },
    {
      "channel": 2,
      "note": 76,
      "start": 3.8097,
      "duration": 0.0569,
      "velocity": 103,
      "chip": "ym2612"
    },
    {
      "channel": 3,
      "note": 69,
      "start": 3.8105,
      "duration": 0.027,
      "velocity": 104,
      "chip": "ym2612"
    },
    {
      "channel": 4,
      "note": 73,
      "start": 3.8112,
      "duration": 0.0271,
      "velocity": 104,
      "chip": "ym2612"
    },
    {
      "channel": 0,
      "note": 57,
      "start": 3.8366,
      "duration": 0.0285,
      "velocity": 91,
      "chip": "ym2612"
    },
    {
      "channel": 3,
      "note": 69,
      "start": 3.8381,
      "duration": 0.0948,
      "velocity": 104,
      "chip": "ym2612"
    },
    {
      "channel": 4,
      "note": 73,
      "start": 3.8388,
      "duration": 0.0948,
      "velocity": 104,
      "chip": "ym2612"
    },
    {
      "channel": 0,
      "note": 58,
      "start": 3.8657,
      "duration": 0.065,
      "velocity": 91,
      "chip": "ym2612"
    },
    {
      "channel": 1,
      "note": 69,
      "start": 3.8664,
      "duration": 0.065,
      "velocity": 102,
      "chip": "ym2612"
    },
    {
      "channel": 2,
      "note": 76,
      "start": 3.8672,
      "duration": 0.065,
      "velocity": 103,
      "chip": "ym2612"
    },
    {
      "channel": 0,
      "note": 59,
      "start": 3.9312,
      "duration": 0.3074,
      "velocity": 91,
      "chip": "ym2612"
    },
    {
      "channel": 1,
      "note": 71,
      "start": 3.932,
      "duration": 0.2403,
      "velocity": 102,
      "chip": "ym2612"
    },
    {
      "channel": 2,
      "note": 78,
      "start": 3.9327,
      "duration": 0.2404,
      "velocity": 103,
      "chip": "ym2612"
    },
    {
      "channel": 3,
      "note": 71,
      "start": 3.9335,
      "duration": 0.0398,
      "velocity": 104,
      "chip": "ym2612"
    },
    {
      "channel": 4,
      "note": 75,
      "start": 3.9342,
      "duration": 0.0394,
      "velocity": 104,
      "chip": "ym2612"
    },
    {
      "channel": 1,
      "note": 73,
      "start": 4.173,
      "duration": 0.172,
      "velocity": 102,
      "chip": "ym2612"
    },
    {
      "channel": 2,
      "note": 78,
      "start": 4.1737,
      "duration": 0.172,
      "velocity": 103,
      "chip": "ym2612"
    },
    {
      "channel": 3,
      "note": 71,
      "start": 4.1744,
      "duration": 0.116,
      "velocity": 104,
      "chip": "ym2612"
    },
    {
      "channel": 4,
      "note": 75,
      "start": 4.1751,
      "duration": 0.1156,
      "velocity": 104,
      "chip": "ym2612"
    },
    {
      "channel": 0,
      "note": 59,
      "start": 4.2895,
      "duration": 0.093,
      "velocity": 91,
      "chip": "ym2612"
    },
    {
      "channel": 1,
      "note": 66,
      "start": 4.3455,
      "duration": 1.0717,
      "velocity": 102,
      "chip": "ym2612"
    },
    {
      "channel": 2,
      "note": 75,
      "start": 4.3463,
      "duration": 1.0715,
      "velocity": 103,
      "chip": "ym2612"
    },
    {
      "channel": 3,
      "note": 71,
      "start": 4.347,
      "duration": 0.0704,
      "velocity": 104,
      "chip": "ym2612"
    },
    {
      "channel": 4,
      "note": 75,
      "start": 4.3477,
      "duration": 0.07,
      "velocity": 104,
      "chip": "ym2612"
    },
    {
      "channel": 0,
      "note": 54,
      "start": 4.4166,
      "duration": 0.0427,
      "velocity": 91,
      "chip": "ym2612"
    },
    {
      "channel": 0,
      "note": 54,
      "start": 4.4841,
      "duration": 0.2161,
      "velocity": 91,
      "chip": "ym2612"
    },
    {
      "channel": 0,
      "note": 54,
      "start": 4.7006,
      "duration": 0.0998,
      "velocity": 91,
      "chip": "ym2612"
    },
    {
      "channel": 0,
      "note": 56,
      "start": 4.801,
      "duration": 0.0257,
      "velocity": 91,
      "chip": "ym2612"
    },
    {
      "channel": 0,
      "note": 54,
      "start": 4.8273,
      "duration": 0.0309,
      "velocity": 91,
      "chip": "ym2612"
    },
    {
      "channel": 0,
      "note": 56,
      "start": 4.8588,
      "duration": 0.0576,
      "velocity": 91,
      "chip": "ym2612"
    },
    {
      "channel": 0,
      "note": 59,
      "start": 4.9169,
      "duration": 0.291,
      "velocity": 91,
      "chip": "ym2612"
    },
    {
      "channel": 3,
      "note": 71,
      "start": 4.9189,
      "duration": 0.0291,
      "velocity": 104,
      "chip": "ym2612"
    },
    {
      "channel": 4,
      "note": 75,
      "start": 4.9196,
      "duration": 0.0286,
      "velocity": 104,
      "chip": "ym2612"
    },
    {
      "channel": 3,
      "note": 71,
      "start": 5.1597,
      "duration": 0.1,
      "velocity": 104,
      "chip": "ym2612"
    },
    {
      "channel": 4,
      "note": 75,
      "start": 5.1604,
      "duration": 0.0995,
      "velocity": 104,
      "chip": "ym2612"
    },
    {
      "channel": 0,
      "note": 59,
      "start": 5.2587,
      "duration": 0.093,
      "velocity": 91,
      "chip": "ym2612"
    },
    {
      "channel": 3,
      "note": 71,
      "start": 5.3173,
      "duration": 0.0696,
      "velocity": 104,
      "chip": "ym2612"
    },
    {
      "channel": 4,
      "note": 75,
      "start": 5.318,
      "duration": 0.0691,
      "velocity": 104,
      "chip": "ym2612"
    },
    {
      "channel": 0,
      "note": 63,
      "start": 5.3859,
      "duration": 0.044,
      "velocity": 91,
      "chip": "ym2612"
    },
    {
      "channel": 1,
      "note": 66,
      "start": 5.4177,
      "duration": 0.3416,
      "velocity": 102,
      "chip": "ym2612"
    },
    {
      "channel": 2,
      "note": 75,
      "start": 5.4182,
      "duration": 0.3417,
      "velocity": 103,
      "chip": "ym2612"
    },
    {
      "channel": 0,
      "note": 63,
      "start": 5.4422,
      "duration": 0.216,
      "velocity": 91,
      "chip": "ym2612"
    },
    {
      "channel": 3,
      "note": 71,
      "start": 5.5601,
      "duration": 0.0997,
      "velocity": 104,
      "chip": "ym2612"
    },
    {
      "channel": 4,
      "note": 76,
      "start": 5.5608,
      "duration": 0.0993,
      "velocity": 104,
      "chip": "ym2612"
    },
    {
      "channel": 0,
      "note": 61,
      "start": 5.6589,
      "duration": 0.0996,
      "velocity": 91,
      "chip": "ym2612"
    },
    {
      "channel": 0,
      "note": 59,
      "start": 5.7591,
      "duration": 0.0325,
      "velocity": 91,
      "chip": "ym2612"
    },
    {
      "channel": 1,
      "note": 68,
      "start": 5.7598,
      "duration": 0.1274,
      "velocity": 102,
      "chip": "ym2612"
    },
    {
      "channel": 2,
      "note": 75,
      "start": 5.7605,
      "duration": 0.1274,
      "velocity": 103,
      "chip": "ym2612"
    },
    {
      "channel": 3,
      "note": 71,
      "start": 5.7612,
      "duration": 0.032,
      "velocity": 104,
      "chip": "ym2612"
    },
    {
      "channel": 4,
      "note": 76,
      "start": 5.762,
      "duration": 0.0319,
      "velocity": 104,
      "chip": "ym2612"
    },
    {
      "channel": 0,
      "note": 58,
      "start": 5.7923,
      "duration": 0.0287,
      "velocity": 91,
      "chip": "ym2612"
    },
    {
      "channel": 3,
      "note": 71,
      "start": 5.7938,
      "duration": 0.0949,
      "velocity": 104,
      "chip": "ym2612"
    },
    {
      "channel": 4,
      "note": 75,
      "start": 5.7946,
      "duration": 0.0949,
      "velocity": 104,
      "chip": "ym2612"
    },
    {
      "channel": 0,
      "note": 54,
      "start": 5.8215,
      "duration": 0.0649,
      "velocity": 91,
      "chip": "ym2612"
    },
    {
      "channel": 0,
      "note": 50,
      "start": 5.887,
      "duration": 0.2907,
      "velocity": 91,
      "chip": "ym2612"
    },
    {
      "channel": 1,
      "note": 69,
      "start": 5.8878,
      "duration": 0.9772,
      "velocity": 102,
      "chip": "ym2612"
    },
    {
      "channel": 2,
      "note": 78,
      "start": 5.8885,
      "duration": 0.9772,
      "velocity": 103,
      "chip": "ym2612"
    },
    {
      "channel": 3,
      "note": 69,
      "start": 5.8893,
      "duration": 0.0271,
      "velocity": 104,
      "chip": "ym2612"
    },
    {
      "channel": 4,
      "note": 74,
      "start": 5.89,
      "duration": 0.0268,
      "velocity": 104,
      "chip": "ym2612"
    },
    {
      "channel": 3,
      "note": 69,
      "start": 6.1294,
      "duration": 0.1168,
      "velocity": 104,
      "chip": "ym2612"
    },
    {
      "channel": 4,
      "note": 74,
      "start": 6.1302,
      "duration": 0.1163,
      "velocity": 104,
      "chip": "ym2612"
    },
    {
      "channel": 0,
      "note": 50,
      "start": 6.2453,
      "duration": 0.0931,
      "velocity": 91,
      "chip": "ym2612"
    },
    {
      "channel": 3,
      "note": 69,
      "start": 6.2976,
      "duration": 0.0759,
      "velocity": 104,
      "chip": "ym2612"
    },
    {
      "channel": 4,
      "note": 74,
      "start": 6.2983,
      "duration": 0.0755,
      "velocity": 104,
      "chip": "ym2612"
    },
    {
      "channel": 0,
      "note": 57,
      "start": 6.3726,
      "duration": 0.0395,
      "velocity": 91,
      "chip": "ym2612"
    },
    {
      "channel": 0,
      "note": 62,
      "start": 6.4413,
      "duration": 0.0993,
      "velocity": 91,
      "chip": "ym2612"
    },
    {
      "channel": 0,
      "note": 50,
      "start": 6.5412,
      "duration": 0.2163,
      "velocity": 91,
      "chip": "ym2612"
    },
    {
      "channel": 0,
      "note": 52,
      "start": 6.7581,
      "duration": 0.0375,
      "velocity": 91,
      "chip": "ym2612"
    },
    {
      "channel": 0,
      "note": 54,
      "start": 6.8121,
      "duration": 0.039,
      "velocity": 91,
      "chip": "ym2612"
    },
    {
      "channel": 0,
      "note": 53,
      "start": 6.8648,
      "duration": 0.3077,
      "velocity": 91,
      "chip": "ym2612"
    },
    {
      "channel": 1,
      "note": 71,
      "start": 6.8656,
      "duration": 0.4131,
      "velocity": 102,
      "chip": "ym2612"
    },
    {
      "channel": 2,
      "note": 77,
      "start": 6.8663,
      "duration": 0.4131,
      "velocity": 103,
      "chip": "ym2612"
    },
    {
      "channel": 3,
      "note": 69,
      "start": 6.8671,
      "duration": 0.04,
      "velocity": 104,
      "chip": "ym2612"
    },
    {
      "channel": 4,
      "note": 74,
      "start": 6.8679,
      "duration": 0.0395,
      "velocity": 104,
      "chip": "ym2612"
    },
    {
      "channel": 3,
      "note": 69,
      "start": 7.1243,
      "duration": 0.1,
      "velocity": 104,
      "chip": "ym2612"
    },
    {
      "channel": 4,
      "note": 76,
      "start": 7.125,
      "duration": 0.0995,
      "velocity": 104,
      "chip": "ym2612"
    },
    {
      "channel": 0,
      "note": 53,
      "start": 7.2233,
      "duration": 0.0931,
      "velocity": 91,
      "chip": "ym2612"
    },
    {
      "channel": 1,
      "note": 69,
      "start": 7.2793,
      "duration": 0.4446,
      "velocity": 102,
      "chip": "ym2612"
    },
    {
      "channel": 2,
      "note": 77,
      "start": 7.28,
      "duration": 0.4446,
      "velocity": 103,
      "chip": "ym2612"
    },
    {
      "channel": 3,
      "note": 69,
      "start": 7.2808,
      "duration": 0.0707,
      "velocity": 104,
      "chip": "ym2612"
    },
    {
      "channel": 4,
      "note": 77,
      "start": 7.2816,
      "duration": 0.0703,
      "velocity": 104,
      "chip": "ym2612"
    },
    {
      "channel": 0,
      "note": 57,
      "start": 7.3506,
      "duration": 0.044,
      "velocity": 91,
      "chip": "ym2612"
    },
    {
      "channel": 0,
      "note": 62,
      "start": 7.407,
      "duration": 0.216,
      "velocity": 91,
      "chip": "ym2612"
    },
    {
      "channel": 3,
      "note": 69,
      "start": 7.5081,
      "duration": 0.1165,
      "velocity": 104,
      "chip": "ym2612"
    },
    {
      "channel": 4,
      "note": 76,
      "start": 7.5088,
      "duration": 0.116,
      "velocity": 104,
      "chip": "ym2612"
    },
    {
      "channel": 0,
      "note": 63,
      "start": 7.6236,
      "duration": 0.0996,
      "velocity": 91,
      "chip": "ym2612"
    },
    {
      "channel": 0,
      "note": 64,
      "start": 7.7238,
      "duration": 0.0326,
      "velocity": 91,
      "chip": "ym2612"
    },
    {
      "channel": 1,
      "note": 71,
      "start": 7.7246,
      "duration": 0.1276,
      "velocity": 102,
      "chip": "ym2612"
    },
    {
      "channel": 2,
      "note": 77,
      "start": 7.7252,
      "duration": 0.1276,
      "velocity": 103,
      "chip": "ym2612"
    },
    {
      "channel": 3,
      "note": 69,
      "start": 7.726,
      "duration": 0.032,
      "velocity": 104,
      "chip": "ym2612"
    },
    {
      "channel": 4,
      "note": 74,
      "start": 7.7267,
      "duration": 0.032,
      "velocity": 104,
      "chip": "ym2612"
    },
    {
      "channel": 0,
      "note": 57,
      "start": 7.7569,
      "duration": 0.0286,
      "velocity": 91,
      "chip": "ym2612"
    },
    {
      "channel": 3,
      "note": 69,
      "start": 7.7585,
      "duration": 0.0951,
      "velocity": 104,
      "chip": "ym2612"
    },
    {
      "channel": 4,
      "note": 71,
      "start": 7.7593,
      "duration": 0.0949,
      "velocity": 104,
      "chip": "ym2612"
    },
    {
      "channel": 0,
      "note": 58,
      "start": 7.7861,
      "duration": 0.0651,
      "velocity": 91,
      "chip": "ym2612"
    },
    {
      "channel": 0,
      "note": 57,
      "start": 7.8518,
      "duration": 0.2904,
      "velocity": 91,
      "chip": "ym2612"
    },
    {
      "channel": 1,
      "note": 73,
      "start": 7.8527,
      "duration": 0.51,
      "velocity": 102,
      "chip": "ym2612"
    },
    {
      "channel": 2,
      "note": 81,
      "start": 7.8534,
      "duration": 0.5098,
      "velocity": 103,
      "chip": "ym2612"
    },
    {
      "channel": 3,
      "note": 69,
      "start": 7.854,
      "duration": 0.0271,
      "velocity": 104,
      "chip": "ym2612"
    },
    {
      "channel": 4,
      "note": 73,
      "start": 7.8547,
      "duration": 0.0268,
      "velocity": 104,
      "chip": "ym2612"
    },
    {
      "channel": 3,
      "note": 69,
      "start": 8.094,
      "duration": 0.1,
      "velocity": 104,
      "chip": "ym2612"
    },
    {
      "channel": 4,
      "note": 73,
      "start": 8.0948,
      "duration": 0.0995,
      "velocity": 104,
      "chip": "ym2612"
    },
    {
      "channel": 0,
      "note": 57,
      "start": 8.1931,
      "duration": 0.093,
      "velocity": 91,
      "chip": "ym2612"
    },
    {
      "channel": 3,
      "note": 69,
      "start": 8.2496,
      "duration": 0.0883,
      "velocity": 104,
      "chip": "ym2612"
    },
    {
      "channel": 4,
      "note": 73,
      "start": 8.2504,
      "duration": 0.0878,
      "velocity": 104,
      "chip": "ym2612"
    },
    {
      "channel": 0,
      "note": 61,
      "start": 8.3369,
      "duration": 0.0253,
      "velocity": 91,
      "chip": "ym2612"
    },
    {
      "channel": 1,
      "note": 73,
      "start": 8.3631,
      "duration": 0.141,
      "velocity": 102,
      "chip": "ym2612"
    },
    {
      "channel": 2,
      "note": 81,
      "start": 8.3637,
      "duration": 0.1411,
      "velocity": 103,
      "chip": "ym2612"
    },
    {
      "channel": 0,
      "note": 62,
      "start": 8.3877,
      "duration": 0.1161,
      "velocity": 91,
      "chip": "ym2612"
    },
    {
      "channel": 1,
      "note": 78,
      "start": 8.5046,
      "duration": 0.2167,
      "velocity": 102,
      "chip": "ym2612"
    },
    {
      "channel": 2,
      "note": 85,
      "start": 8.5054,
      "duration": 0.2167,
      "velocity": 103,
      "chip": "ym2612"
    },
    {
      "channel": 3,
      "note": 69,
      "start": 8.5061,
      "duration": 0.0992,
      "velocity": 104,
      "chip": "ym2612"
    },
    {
      "channel": 4,
      "note": 74,
      "start": 8.5069,
      "duration": 0.0987,
      "velocity": 104,
      "chip": "ym2612"
    },
    {
      "channel": 0,
      "note": 63,
      "start": 8.6043,
      "duration": 0.1163,
      "velocity": 91,
      "chip": "ym2612"
    },
    {
      "channel": 0,
      "note": 64,
      "start": 8.7212,
      "duration": 0.0276,
      "velocity": 91,
      "chip": "ym2612"
    },
    {
      "channel": 1,
      "note": 77,
      "start": 8.722,
      "duration": 0.0545,
      "velocity": 102,
      "chip": "ym2612"
    },
    {
      "channel": 2,
      "note": 85,
      "start": 8.7227,
      "duration": 0.0545,
      "velocity": 103,
      "chip": "ym2612"
    },
    {
      "channel": 3,
      "note": 69,
      "start": 8.7234,
      "duration": 0.0266,
      "velocity": 104,
      "chip": "ym2612"
    },
    {
      "channel": 4,
      "note": 74,
      "start": 8.7242,
      "duration": 0.0266,
      "velocity": 104,
      "chip": "ym2612"
    },
    {
      "channel": 3,
      "note": 69,
      "start": 8.7505,
      "duration": 0.0274,
      "velocity": 104,
      "chip": "ym2612"
    },
    {
      "channel": 4,
      "note": 75,
      "start": 8.7513,
      "duration": 0.0274,
      "velocity": 104,
      "chip": "ym2612"
    },
    {
      "channel": 0,
      "note": 52,
      "start": 8.7763,
      "duration": 0.358,
      "velocity": 91,
      "chip": "ym2612"
    },
    {
      "channel": 1,
      "note": 76,
      "start": 8.777,
      "duration": 1.0024,
      "velocity": 102,
      "chip": "ym2612"
    },
    {
      "channel": 2,
      "note": 83,
      "start": 8.7778,
      "duration": 1.002,
      "velocity": 103,
      "chip": "ym2612"
    },
    {
      "channel": 3,
      "note": 68,
      "start": 8.7785,
      "duration": 0.3573,
      "velocity": 104,
      "chip": "ym2612"
    },
    {
      "channel": 4,
      "note": 76,
      "start": 8.7792,
      "duration": 0.3573,
      "velocity": 104,
      "chip": "ym2612"
    },
    {
      "channel": 0,
      "note": 52,
      "start": 9.1349,
      "duration": 0.1413,
      "velocity": 91,
      "chip": "ym2612"
    },
    {
      "channel": 3,
      "note": 71,
      "start": 9.1364,
      "duration": 0.0288,
      "velocity": 104,
      "chip": "ym2612"
    },
    {
      "channel": 4,
      "note": 76,
      "start": 9.1372,
      "duration": 0.0283,
      "velocity": 104,
      "chip": "ym2612"
    },
    {
      "channel": 0,
      "note": 64,
      "start": 9.2768,
      "duration": 0.0289,
      "velocity": 91,
      "chip": "ym2612"
    },
    {
      "channel": 3,
      "note": 76,
      "start": 9.2783,
      "duration": 0.0289,
      "velocity": 104,
      "chip": "ym2612"
    },
    {
      "channel": 4,
      "note": 80,
      "start": 9.2791,
      "duration": 0.0289,
      "velocity": 104,
      "chip": "ym2612"
    },
    {
      "channel": 0,
      "note": 52,
      "start": 9.3063,
      "duration": 0.0339,
      "velocity": 91,
      "chip": "ym2612"
    },
    {
      "channel": 3,
      "note": 75,
      "start": 9.3079,
      "duration": 0.0334,
      "velocity": 104,
      "chip": "ym2612"
    },
    {
      "channel": 4,
      "note": 78,
      "start": 9.3086,
      "duration": 0.033,
      "velocity": 104,
      "chip": "ym2612"
    },
    {
      "channel": 0,
      "note": 52,
      "start": 9.4041,
      "duration": 0.0295,
      "velocity": 91,
      "chip": "ym2612"
    },
    {
      "channel": 3,
      "note": 71,
      "start": 9.4056,
      "duration": 0.0291,
      "velocity": 104,
      "chip": "ym2612"
    },
    {
      "channel": 4,
      "note": 76,
      "start": 9.4063,
      "duration": 0.0287,
      "velocity": 104,
      "chip": "ym2612"
    },
    {
      "channel": 0,
      "note": 64,
      "start": 9.4761,
      "duration": 0.0291,
      "velocity": 91,
      "chip": "ym2612"
    },
    {
      "channel": 3,
      "note": 71,
      "start": 9.4776,
      "duration": 0.0291,
      "velocity": 104,
      "chip": "ym2612"
    },
    {
      "channel": 4,
      "note": 74,
      "start": 9.4783,
      "duration": 0.0292,
      "velocity": 104,
      "chip": "ym2612"
    },
    {
      "channel": 0,
      "note": 52,
      "start": 9.5058,
      "duration": 0.1412,
      "velocity": 91,
      "chip": "ym2612"
    },
    {
      "channel": 3,
      "note": 69,
      "start": 9.5074,
      "duration": 0.0406,
      "velocity": 104,
      "chip": "ym2612"
    },
    {
      "channel": 4,
      "note": 73,
      "start": 9.5081,
      "duration": 0.0402,
      "velocity": 104,
      "chip": "ym2612"
    },
    {
      "channel": 0,
      "note": 54,
      "start": 9.6476,
      "duration": 0.0646,
      "velocity": 91,
      "chip": "ym2612"
    },
    {
      "channel": 3,
      "note": 68,
      "start": 9.649,
      "duration": 0.0646,
      "velocity": 104,
      "chip": "ym2612"
    },
    {
      "channel": 4,
      "note": 71,
      "start": 9.6498,
      "duration": 0.0646,
      "velocity": 104,
      "chip": "ym2612"
    },
    {
      "channel": 0,
      "note": 56,
      "start": 9.7128,
      "duration": 0.0656,
      "velocity": 91,
      "chip": "ym2612"
    },
    {
      "channel": 3,
      "note": 64,
      "start": 9.7143,
      "duration": 0.0657,
      "velocity": 104,
      "chip": "ym2612"
    },
    {
      "channel": 4,
      "note": 68,
      "start": 9.715,
      "duration": 0.0657,
      "velocity": 104,
      "chip": "ym2612"
    },
    {
      "channel": 0,
      "note": 57,
      "start": 9.779,
      "duration": 0.2906,
      "velocity": 91,
      "chip": "ym2612"
    },
    {
      "channel": 3,
      "note": 73,
      "start": 9.7806,
      "duration": 0.0259,
      "velocity": 104,
      "chip": "ym2612"
    },
    {
      "channel": 4,
      "note": 69,
      "start": 9.7813,
      "duration": 0.0255,
      "velocity": 104,
      "chip": "ym2612"
    },
    {
      "channel": 1,
      "note": 76,
      "start": 9.8056,
      "duration": 0.315,
      "velocity": 102,
      "chip": "ym2612"
    },
    {
      "channel": 2,
      "note": 85,
      "start": 9.8064,
      "duration": 0.3149,
      "velocity": 103,
      "chip": "ym2612"
    },
    {
      "channel": 3,
      "note": 73,
      "start": 10.0214,
      "duration": 0.1007,
      "velocity": 104,
      "chip": "ym2612"
    },
    {
      "channel": 4,
      "note": 69,
      "start": 10.0222,
      "duration": 0.1002,
      "velocity": 104,
      "chip": "ym2612"
    },
    {
      "channel": 0,
      "note": 57,
      "start": 10.1205,
      "duration": 0.0932,
      "velocity": 91,
      "chip": "ym2612"
    },
    {
      "channel": 1,
      "note": 73,
      "start": 10.1212,
      "duration": 0.0286,
      "velocity": 102,
      "chip": "ym2612"
    },
    {
      "channel": 2,
      "note": 81,
      "start": 10.122,
      "duration": 0.0281,
      "velocity": 103,
      "chip": "ym2612"
    },
    {
      "channel": 1,
      "note": 74,
      "start": 10.1723,
      "duration": 0.0756,
      "velocity": 102,
      "chip": "ym2612"
    },
    {
      "channel": 2,
      "note": 81,
      "start": 10.173,
      "duration": 0.0752,
      "velocity": 103,
      "chip": "ym2612"
    },
    {
      "channel": 3,
      "note": 73,
      "start": 10.1738,
      "duration": 0.0748,
      "velocity": 104,
      "chip": "ym2612"
    },
    {
      "channel": 4,
      "note": 69,
      "start": 10.1746,
      "duration": 0.0742,
      "velocity": 104,
      "chip": "ym2612"
    },
    {
      "channel": 0,
      "note": 52,
      "start": 10.2478,
      "duration": 0.0391,
      "velocity": 91,
      "chip": "ym2612"
    },
    {
      "channel": 1,
      "note": 76,
      "start": 10.2747,
      "duration": 0.0246,
      "velocity": 102,
      "chip": "ym2612"
    },
    {
      "channel": 2,
      "note": 85,
      "start": 10.2754,
      "duration": 0.0245,
      "velocity": 103,
      "chip": "ym2612"
    },
    {
      "channel": 0,
      "note": 54,
      "start": 10.2991,
      "duration": 0.2161,
      "velocity": 91,
      "chip": "ym2612"
    },
    {
      "channel": 1,
      "note": 81,
      "start": 10.2998,
      "duration": 0.2159,
      "velocity": 102,
      "chip": "ym2612"
    },
    {
      "channel": 2,
      "note": 88,
      "start": 10.3006,
      "duration": 0.2157,
      "velocity": 103,
      "chip": "ym2612"
    },
    {
      "channel": 0,
      "note": 54,
      "start": 10.5156,
      "duration": 0.0998,
      "velocity": 91,
      "chip": "ym2612"
    },
    {
      "channel": 1,
      "note": 81,
      "start": 10.5162,
      "duration": 0.1,
      "velocity": 102,
      "chip": "ym2612"
    },
    {
      "channel": 2,
      "note": 88,
      "start": 10.5168,
      "duration": 0.1001,
      "velocity": 103,
      "chip": "ym2612"
    },
    {
      "channel": 0,
      "note": 52,
      "start": 10.616,
      "duration": 0.0398,
      "velocity": 91,
      "chip": "ym2612"
    },
    {
      "channel": 1,
      "note": 80,
      "start": 10.6168,
      "duration": 0.0282,
      "velocity": 102,
      "chip": "ym2612"
    },
    {
      "channel": 2,
      "note": 88,
      "start": 10.6175,
      "duration": 0.0278,
      "velocity": 103,
      "chip": "ym2612"
    },
    {
      "channel": 0,
      "note": 54,
      "start": 10.6669,
      "duration": 0.0421,
      "velocity": 91,
      "chip": "ym2612"
    },
    {
      "channel": 1,
      "note": 76,
      "start": 10.6676,
      "duration": 0.0301,
      "velocity": 102,
      "chip": "ym2612"
    },
    {
      "channel": 2,
      "note": 85,
      "start": 10.6684,
      "duration": 0.0297,
      "velocity": 103,
      "chip": "ym2612"
    },
    {
      "channel": 0,
      "note": 57,
      "start": 10.7206,
      "duration": 0.2908,
      "velocity": 91,
      "chip": "ym2612"
    },
    {
      "channel": 1,
      "note": 78,
      "start": 10.7214,
      "duration": 0.2405,
      "velocity": 102,
      "chip": "ym2612"
    },
    {
      "channel": 2,
      "note": 85,
      "start": 10.7222,
      "duration": 0.2405,
      "velocity": 103,
      "chip": "ym2612"
    },
    {
      "channel": 3,
      "note": 73,
      "start": 10.7229,
      "duration": 0.0271,
      "velocity": 104,
      "chip": "ym2612"
    },
    {
      "channel": 4,
      "note": 69,
      "start": 10.7236,
      "duration": 0.0266,
      "velocity": 104,
      "chip": "ym2612"
    },
    {
      "channel": 1,
      "note": 76,
      "start": 10.9625,
      "duration": 0.1673,
      "velocity": 102,
      "chip": "ym2612"
    },
    {
      "channel": 2,
      "note": 85,
      "start": 10.9632,
      "duration": 0.1674,
      "velocity": 103,
      "chip": "ym2612"
    },
    {
      "channel": 3,
      "note": 73,
      "start": 10.964,
      "duration": 0.116,
      "velocity": 104,
      "chip": "ym2612"
    },
    {
      "channel": 4,
      "note": 69,
      "start": 10.9647,
      "duration": 0.1156,
      "velocity": 104,
      "chip": "ym2612"
    },
    {
      "channel": 0,
      "note": 57,
      "start": 11.079,
      "duration": 0.093,
      "velocity": 91,
      "chip": "ym2612"
    },
    {
      "channel": 1,
      "note": 74,
      "start": 11.1305,
      "duration": 0.1434,
      "velocity": 102,
      "chip": "ym2612"
    },
    {
      "channel": 2,
      "note": 81,
      "start": 11.1312,
      "duration": 0.1434,
      "velocity": 103,
      "chip": "ym2612"
    },
    {
      "channel": 3,
      "note": 73,
      "start": 11.1319,
      "duration": 0.0752,
      "velocity": 104,
      "chip": "ym2612"
    },
    {
      "channel": 4,
      "note": 69,
      "start": 11.1326,
      "duration": 0.0748,
      "velocity": 104,
      "chip": "ym2612"
    },
    {
      "channel": 0,
      "note": 61,
      "start": 11.2061,
      "duration": 0.0386,
      "velocity": 91,
      "chip": "ym2612"
    },
    {
      "channel": 0,
      "note": 62,
      "start": 11.2738,
      "duration": 0.1993,
      "velocity": 91,
      "chip": "ym2612"
    },
    {
      "channel": 1,
      "note": 73,
      "start": 11.2744,
      "duration": 0.3163,
      "velocity": 102,
      "chip": "ym2612"
    },
    {
      "channel": 2,
      "note": 81,
      "start": 11.2752,
      "duration": 0.3163,
      "velocity": 103,
      "chip": "ym2612"
    },
    {
      "channel": 3,
      "note": 73,
      "start": 11.3749,
      "duration": 0.0998,
      "velocity": 104,
      "chip": "ym2612"
    },
    {
      "channel": 4,
      "note": 69,
      "start": 11.3757,
      "duration": 0.0994,
      "velocity": 104,
      "chip": "ym2612"
    },
    {
      "channel": 0,
      "note": 63,
      "start": 11.4738,
      "duration": 0.1163,
      "velocity": 91,
      "chip": "ym2612"
    },
    {
      "channel": 0,
      "note": 64,
      "start": 11.5906,
      "duration": 0.0278,
      "velocity": 91,
      "chip": "ym2612"
    },
    {
      "channel": 1,
      "note": 71,
      "start": 11.5914,
      "duration": 0.062,
      "velocity": 102,
      "chip": "ym2612"
    },
    {
      "channel": 2,
      "note": 76,
      "start": 11.5921,
      "duration": 0.062,
      "velocity": 103,
      "chip": "ym2612"
    },
    {
      "channel": 3,
      "note": 73,
      "start": 11.5928,
      "duration": 0.027,
      "velocity": 104,
      "chip": "ym2612"
    },
    {
      "channel": 4,
      "note": 69,
      "start": 11.5935,
      "duration": 0.0271,
      "velocity": 104,
      "chip": "ym2612"
    },
    {
      "channel": 0,
      "note": 57,
      "start": 11.619,
      "duration": 0.0336,
      "velocity": 91,
      "chip": "ym2612"
    },
    {
      "channel": 3,
      "note": 73,
      "start": 11.6204,
      "duration": 0.0936,
      "velocity": 104,
      "chip": "ym2612"
    },
    {
      "channel": 4,
      "note": 69,
      "start": 11.6212,
      "duration": 0.0935,
      "velocity": 104,
      "chip": "ym2612"
    },
    {
      "channel": 0,
      "note": 58,
      "start": 11.6532,
      "duration": 0.0586,
      "velocity": 91,
      "chip": "ym2612"
    },
    {
      "channel": 1,
      "note": 69,
      "start": 11.6539,
      "duration": 0.0585,
      "velocity": 102,
      "chip": "ym2612"
    },
    {
      "channel": 2,
      "note": 76,
      "start": 11.6546,
      "duration": 0.0586,
      "velocity": 103,
      "chip": "ym2612"
    },
    {
      "channel": 0,
      "note": 59,
      "start": 11.7123,
      "duration": 0.3074,
      "velocity": 91,
      "chip": "ym2612"
    },
    {
      "channel": 1,
      "note": 71,
      "start": 11.7131,
      "duration": 0.257,
      "velocity": 102,
      "chip": "ym2612"
    },
    {
      "channel": 2,
      "note": 78,
      "start": 11.7139,
      "duration": 0.257,
      "velocity": 103,
      "chip": "ym2612"
    },
    {
      "channel": 3,
      "note": 75,
      "start": 11.7146,
      "duration": 0.0398,
      "velocity": 104,
      "chip": "ym2612"
    },
    {
      "channel": 4,
      "note": 71,
      "start": 11.7153,
      "duration": 0.0393,
      "velocity": 104,
      "chip": "ym2612"
    },
    {
      "channel": 1,
      "note": 73,
      "start": 11.9707,
      "duration": 0.1554,
      "velocity": 102,
      "chip": "ym2612"
    },
    {
      "channel": 2,
      "note": 78,
      "start": 11.9714,
      "duration": 0.1554,
      "velocity": 103,
      "chip": "ym2612"
    },
    {
      "channel": 3,
      "note": 75,
      "start": 11.9722,
      "duration": 0.0993,
      "velocity": 104,
      "chip": "ym2612"
    },
    {
      "channel": 4,
      "note": 71,
      "start": 11.9729,
      "duration": 0.0989,
      "velocity": 104,
      "chip": "ym2612"
    },
    {
      "channel": 0,
      "note": 59,
      "start": 12.0705,
      "duration": 0.0932,
      "velocity": 91,
      "chip": "ym2612"
    },
    {
      "channel": 1,
      "note": 66,
      "start": 12.1267,
      "duration": 1.0684,
      "velocity": 102,
      "chip": "ym2612"
    },
    {
      "channel": 2,
      "note": 75,
      "start": 12.1275,
      "duration": 1.0682,
      "velocity": 103,
      "chip": "ym2612"
    },
    {
      "channel": 3,
      "note": 75,
      "start": 12.1282,
      "duration": 0.0705,
      "velocity": 104,
      "chip": "ym2612"
    },
    {
      "channel": 4,
      "note": 71,
      "start": 12.1289,
      "duration": 0.0701,
      "velocity": 104,
      "chip": "ym2612"
    },
    {
      "channel": 0,
      "note": 54,
      "start": 12.1979,
      "duration": 0.0422,
      "velocity": 91,
      "chip": "ym2612"
    },
    {
      "channel": 0,
      "note": 54,
      "start": 12.2526,
      "duration": 0.2161,
      "velocity": 91,
      "chip": "ym2612"
    },
    {
      "channel": 0,
      "note": 54,
      "start": 12.4691,
      "duration": 0.0998,
      "velocity": 91,
      "chip": "ym2612"
    },
    {
      "channel": 0,
      "note": 56,
      "start": 12.5695,
      "duration": 0.0291,
      "velocity": 91,
      "chip": "ym2612"
    },
    {
      "channel": 0,
      "note": 54,
      "start": 12.5992,
      "duration": 0.0249,
      "velocity": 91,
      "chip": "ym2612"
    },
    {
      "channel": 0,
      "note": 56,
      "start": 12.6247,
      "duration": 0.057,
      "velocity": 91,
      "chip": "ym2612"
    },
    {
      "channel": 0,
      "note": 59,
      "start": 12.6822,
      "duration": 0.291,
      "velocity": 91,
      "chip": "ym2612"
    },
    {
      "channel": 3,
      "note": 75,
      "start": 12.6842,
      "duration": 0.029,
      "velocity": 104,
      "chip": "ym2612"
    },
    {
      "channel": 4,
      "note": 71,
      "start": 12.6849,
      "duration": 0.0286,
      "velocity": 104,
      "chip": "ym2612"
    },
    {
      "channel": 3,
      "note": 75,
      "start": 12.9251,
      "duration": 0.1,
      "velocity": 104,
      "chip": "ym2612"
    },
    {
      "channel": 4,
      "note": 71,
      "start": 12.9259,
      "duration": 0.0995,
      "velocity": 104,
      "chip": "ym2612"
    },
    {
      "channel": 0,
      "note": 59,
      "start": 13.0241,
      "duration": 0.0931,
      "velocity": 91,
      "chip": "ym2612"
    },
    {
      "channel": 3,
      "note": 75,
      "start": 13.0828,
      "duration": 0.0862,
      "velocity": 104,
      "chip": "ym2612"
    },
    {
      "channel": 4,
      "note": 71,
      "start": 13.0835,
      "duration": 0.0858,
      "velocity": 104,
      "chip": "ym2612"
    },
    {
      "channel": 0,
      "note": 63,
      "start": 13.168,
      "duration": 0.04,
      "velocity": 91,
      "chip": "ym2612"
    },
    {
      "channel": 1,
      "note": 66,
      "start": 13.1955,
      "duration": 0.3583,
      "velocity": 102,
      "chip": "ym2612"
    },
    {
      "channel": 2,
      "note": 75,
      "start": 13.1961,
      "duration": 0.3585,
      "velocity": 103,
      "chip": "ym2612"
    },
    {
      "channel": 0,
      "note": 63,
      "start": 13.2202,
      "duration": 0.216,
      "velocity": 91,
      "chip": "ym2612"
    },
    {
      "channel": 3,
      "note": 76,
      "start": 13.338,
      "duration": 0.0998,
      "velocity": 104,
      "chip": "ym2612"
    },
    {
      "channel": 4,
      "note": 71,
      "start": 13.3387,
      "duration": 0.0993,
      "velocity": 104,
      "chip": "ym2612"
    },
    {
      "channel": 0,
      "note": 61,
      "start": 13.4368,
      "duration": 0.1163,
      "velocity": 91,
      "chip": "ym2612"
    },
    {
      "channel": 0,
      "note": 59,
      "start": 13.5537,
      "duration": 0.0284,
      "velocity": 91,
      "chip": "ym2612"
    },
    {
      "channel": 1,
      "note": 68,
      "start": 13.5544,
      "duration": 0.1241,
      "velocity": 102,
      "chip": "ym2612"
    },
    {
      "channel": 2,
      "note": 75,
      "start": 13.5551,
      "duration": 0.1241,
      "velocity": 103,
      "chip": "ym2612"
    },
    {
      "channel": 3,
      "note": 76,
      "start": 13.5558,
      "duration": 0.0278,
      "velocity": 104,
      "chip": "ym2612"
    },
    {
      "channel": 4,
      "note": 71,
      "start": 13.5566,
      "duration": 0.0278,
      "velocity": 104,
      "chip": "ym2612"
    },
    {
      "channel": 0,
      "note": 58,
      "start": 13.5827,
      "duration": 0.0291,
      "velocity": 91,
      "chip": "ym2612"
    },
    {
      "channel": 3,
      "note": 75,
      "start": 13.5842,
      "duration": 0.0958,
      "velocity": 104,
      "chip": "ym2612"
    },
    {
      "channel": 4,
      "note": 71,
      "start": 13.585,
      "duration": 0.0958,
      "velocity": 104,
      "chip": "ym2612"
    },
    {
      "channel": 0,
      "note": 54,
      "start": 13.6124,
      "duration": 0.0654,
      "velocity": 91,
      "chip": "ym2612"
    },
    {
      "channel": 0,
      "note": 50,
      "start": 13.6783,
      "duration": 0.3072,
      "velocity": 91,
      "chip": "ym2612"
    },
    {
      "channel": 1,
      "note": 69,
      "start": 13.6791,
      "duration": 0.9829,
      "velocity": 102,
      "chip": "ym2612"
    },
    {
      "channel": 2,
      "note": 78,
      "start": 13.6798,
      "duration": 0.9829,
      "velocity": 103,
      "chip": "ym2612"
    },
    {
      "channel": 3,
      "note": 74,
      "start": 13.6806,
      "duration": 0.0394,
      "velocity": 104,
      "chip": "ym2612"
    },
    {
      "channel": 4,
      "note": 69,
      "start": 13.6813,
      "duration": 0.039,
      "velocity": 104,
      "chip": "ym2612"
    },
    {
      "channel": 3,
      "note": 74,
      "start": 13.9205,
      "duration": 0.1168,
      "velocity": 104,
      "chip": "ym2612"
    },
    {
      "channel": 4,
      "note": 69,
      "start": 13.9212,
      "duration": 0.1163,
      "velocity": 104,
      "chip": "ym2612"
    },
    {
      "channel": 0,
      "note": 50,
      "start": 14.0363,
      "duration": 0.0929,
      "velocity": 91,
      "chip": "ym2612"
    },
    {
      "channel": 3,
      "note": 74,
      "start": 14.0927,
      "duration": 0.0717,
      "velocity": 104,
      "chip": "ym2612"
    },
    {
      "channel": 4,
      "note": 69,
      "start": 14.0935,
      "duration": 0.0712,
      "velocity": 104,
      "chip": "ym2612"
    },
    {
      "channel": 0,
      "note": 57,
      "start": 14.1634,
      "duration": 0.0439,
      "velocity": 91,
      "chip": "ym2612"
    },
    {
      "channel": 0,
      "note": 62,
      "start": 14.2322,
      "duration": 0.0993,
      "velocity": 91,
      "chip": "ym2612"
    },
    {
      "channel": 0,
      "note": 50,
      "start": 14.3321,
      "duration": 0.2163,
      "velocity": 91,
      "chip": "ym2612"
    },
    {
      "channel": 0,
      "note": 52,
      "start": 14.549,
      "duration": 0.0417,
      "velocity": 91,
      "chip": "ym2612"
    },
    {
      "channel": 0,
      "note": 54,
      "start": 14.6042,
      "duration": 0.0393,
      "velocity": 91,
      "chip": "ym2612"
    },
    {
      "channel": 0,
      "note": 53,
      "start": 14.6618,
      "duration": 0.2909,
      "velocity": 91,
      "chip": "ym2612"
    },
    {
      "channel": 1,
      "note": 71,
      "start": 14.6626,
      "duration": 0.3963,
      "velocity": 102,
      "chip": "ym2612"
    },
    {
      "channel": 2,
      "note": 77,
      "start": 14.6633,
      "duration": 0.3963,
      "velocity": 103,
      "chip": "ym2612"
    },
    {
      "channel": 3,
      "note": 74,
      "start": 14.6641,
      "duration": 0.0271,
      "velocity": 104,
      "chip": "ym2612"
    },
    {
      "channel": 4,
      "note": 69,
      "start": 14.6649,
      "duration": 0.0266,
      "velocity": 104,
      "chip": "ym2612"
    },
    {
      "channel": 3,
      "note": 76,
      "start": 14.9045,
      "duration": 0.1,
      "velocity": 104,
      "chip": "ym2612"
    },
    {
      "channel": 4,
      "note": 69,
      "start": 14.9053,
      "duration": 0.0995,
      "velocity": 104,
      "chip": "ym2612"
    },
    {
      "channel": 0,
      "note": 53,
      "start": 15.0035,
      "duration": 0.093,
      "velocity": 91,
      "chip": "ym2612"
    },
    {
      "channel": 1,
      "note": 69,
      "start": 15.0595,
      "duration": 0.4446,
      "velocity": 102,
      "chip": "ym2612"
    },
    {
      "channel": 2,
      "note": 77,
      "start": 15.0602,
      "duration": 0.4446,
      "velocity": 103,
      "chip": "ym2612"
    },
    {
      "channel": 3,
      "note": 77,
      "start": 15.0609,
      "duration": 0.0707,
      "velocity": 104,
      "chip": "ym2612"
    },
    {
      "channel": 4,
      "note": 69,
      "start": 15.0617,
      "duration": 0.0702,
      "velocity": 104,
      "chip": "ym2612"
    },
    {
      "channel": 0,
      "note": 57,
      "start": 15.1307,
      "duration": 0.044,
      "velocity": 91,
      "chip": "ym2612"
    },
    {
      "channel": 0,
      "note": 62,
      "start": 15.1871,
      "duration": 0.216,
      "velocity": 91,
      "chip": "ym2612"
    },
    {
      "channel": 3,
      "note": 76,
      "start": 15.3049,
      "duration": 0.0998,
      "velocity": 104,
      "chip": "ym2612"
    },
    {
      "channel": 4,
      "note": 69,
      "start": 15.3057,
      "duration": 0.0994,
      "velocity": 104,
      "chip": "ym2612"
    },
    {
      "channel": 0,
      "note": 63,
      "start": 15.4038,
      "duration": 0.0996,
      "velocity": 91,
      "chip": "ym2612"
    },
    {
      "channel": 0,
      "note": 64,
      "start": 15.5039,
      "duration": 0.0327,
      "velocity": 91,
      "chip": "ym2612"
    },
    {
      "channel": 1,
      "note": 71,
      "start": 15.5047,
      "duration": 0.1275,
      "velocity": 102,
      "chip": "ym2612"
    },
    {
      "channel": 2,
      "note": 77,
      "start": 15.5054,
      "duration": 0.1276,
      "velocity": 103,
      "chip": "ym2612"
    },
    {
      "channel": 3,
      "note": 74,
      "start": 15.5062,
      "duration": 0.032,
      "velocity": 104,
      "chip": "ym2612"
    },
    {
      "channel": 4,
      "note": 69,
      "start": 15.5069,
      "duration": 0.032,
      "velocity": 104,
      "chip": "ym2612"
    },
    {
      "channel": 0,
      "note": 57,
      "start": 15.5372,
      "duration": 0.0285,
      "velocity": 91,
      "chip": "ym2612"
    },
    {
      "channel": 3,
      "note": 71,
      "start": 15.5387,
      "duration": 0.0949,
      "velocity": 104,
      "chip": "ym2612"
    },
    {
      "channel": 4,
      "note": 69,
      "start": 15.5395,
      "duration": 0.0949,
      "velocity": 104,
      "chip": "ym2612"
    },
    {
      "channel": 0,
      "note": 58,
      "start": 15.5663,
      "duration": 0.065,
      "velocity": 91,
      "chip": "ym2612"
    },
    {
      "channel": 0,
      "note": 57,
      "start": 15.6319,
      "duration": 0.2907,
      "velocity": 91,
      "chip": "ym2612"
    },
    {
      "channel": 1,
      "note": 73,
      "start": 15.6328,
      "duration": 0.4081,
      "velocity": 102,
      "chip": "ym2612"
    },
    {
      "channel": 2,
      "note": 81,
      "start": 15.6335,
      "duration": 0.4082,
      "velocity": 103,
      "chip": "ym2612"
    },
    {
      "channel": 3,
      "note": 73,
      "start": 15.6343,
      "duration": 0.0271,
      "velocity": 104,
      "chip": "ym2612"
    },
    {
      "channel": 4,
      "note": 69,
      "start": 15.6349,
      "duration": 0.0268,
      "velocity": 104,
      "chip": "ym2612"
    },
    {
      "channel": 3,
      "note": 73,
      "start": 15.8743,
      "duration": 0.1167,
      "velocity": 104,
      "chip": "ym2612"
    },
    {
      "channel": 4,
      "note": 69,
      "start": 15.8751,
      "duration": 0.1162,
      "velocity": 104,
      "chip": "ym2612"
    },
    {
      "channel": 0,
      "note": 61,
      "start": 15.99,
      "duration": 0.0931,
      "velocity": 91,
      "chip": "ym2612"
    },
    {
      "channel": 1,
      "note": 71,
      "start": 16.0415,
      "duration": 0.2434,
      "velocity": 102,
      "chip": "ym2612"
    },
    {
      "channel": 2,
      "note": 76,
      "start": 16.0423,
      "duration": 0.2434,
      "velocity": 103,
      "chip": "ym2612"
    },
    {
      "channel": 3,
      "note": 73,
      "start": 16.043,
      "duration": 0.0752,
      "velocity": 104,
      "chip": "ym2612"
    },
    {
      "channel": 4,
      "note": 69,
      "start": 16.0437,
      "duration": 0.0748,
      "velocity": 104,
      "chip": "ym2612"
    },
    {
      "channel": 0,
      "note": 62,
      "start": 16.1173,
      "duration": 0.0254,
      "velocity": 91,
      "chip": "ym2612"
    },
    {
      "channel": 0,
      "note": 63,
      "start": 16.1849,
      "duration": 0.0997,
      "velocity": 91,
      "chip": "ym2612"
    },
    {
      "channel": 3,
      "note": 76,
      "start": 16.1865,
      "duration": 0.0999,
      "velocity": 104,
      "chip": "ym2612"
    },
    {
      "channel": 4,
      "note": 73,
      "start": 16.1872,
      "duration": 0.0994,
      "velocity": 104,
      "chip": "ym2612"
    },
    {
      "channel": 1,
      "note": 70,
      "start": 16.2855,
      "duration": 0.1984,
      "velocity": 102,
      "chip": "ym2612"
    },
    {
      "channel": 2,
      "note": 76,
      "start": 16.2862,
      "duration": 0.1984,
      "velocity": 103,
      "chip": "ym2612"
    },
    {
      "channel": 0,
      "note": 64,
      "start": 16.3101,
      "duration": 0.1163,
      "velocity": 91,
      "chip": "ym2612"
    },
    {
      "channel": 3,
      "note": 75,
      "start": 16.3116,
      "duration": 0.1163,
      "velocity": 104,
      "chip": "ym2612"
    },
    {
      "channel": 4,
      "note": 72,
      "start": 16.3124,
      "duration": 0.1163,
      "velocity": 104,
      "chip": "ym2612"
    },
    {
      "channel": 0,
      "note": 52,
      "start": 16.427,
      "duration": 0.0282,
      "velocity": 91,
      "chip": "ym2612"
    },
    {
      "channel": 3,
      "note": 74,
      "start": 16.4285,
      "duration": 0.0278,
      "velocity": 104,
      "chip": "ym2612"
    },
    {
      "channel": 4,
      "note": 71,
      "start": 16.4292,
      "duration": 0.0273,
      "velocity": 104,
      "chip": "ym2612"
    },
    {
      "channel": 0,
      "note": 57,
      "start": 16.4837,
      "duration": 0.3414,
      "velocity": 91,
      "chip": "ym2612"
    },
    {
      "channel": 1,
      "note": 69,
      "start": 16.4844,
      "duration": 0.9772,
      "velocity": 97,
      "chip": "ym2612"
    },
    {
      "channel": 2,
      "note": 76,
      "start": 16.4852,
      "duration": 0.9772,
      "velocity": 103,
      "chip": "ym2612"
    },
    {
      "channel": 3,
      "note": 73,
      "start": 16.4861,
      "duration": 0.3406,
      "velocity": 104,
      "chip": "ym2612"
    },
    {
      "channel": 4,
      "note": 69,
      "start": 16.4869,
      "duration": 0.3405,
      "velocity": 104,
      "chip": "ym2612"
    },
    {
      "channel": 0,
      "note": 57,
      "start": 16.8257,
      "duration": 0.1413,
      "velocity": 91,
      "chip": "ym2612"
    },
    {
      "channel": 3,
      "note": 73,
      "start": 16.8272,
      "duration": 0.0408,
      "velocity": 104,
      "chip": "ym2612"
    },
    {
      "channel": 4,
      "note": 69,
      "start": 16.828,
      "duration": 0.0404,
      "velocity": 104,
      "chip": "ym2612"
    },
    {
      "channel": 0,
      "note": 69,
      "start": 16.9676,
      "duration": 0.0291,
      "velocity": 91,
      "chip": "ym2612"
    },
    {
      "channel": 3,
      "note": 73,
      "start": 16.9691,
      "duration": 0.029,
      "velocity": 104,
      "chip": "ym2612"
    },
    {
      "channel": 4,
      "note": 69,
      "start": 16.9698,
      "duration": 0.029,
      "velocity": 104,
      "chip": "ym2612"
    },
    {
      "channel": 0,
      "note": 57,
      "start": 16.9972,
      "duration": 0.0338,
      "velocity": 91,
      "chip": "ym2612"
    },
    {
      "channel": 3,
      "note": 73,
      "start": 16.9987,
      "duration": 0.0334,
      "velocity": 104,
      "chip": "ym2612"
    },
    {
      "channel": 4,
      "note": 69,
      "start": 16.9994,
      "duration": 0.0329,
      "velocity": 104,
      "chip": "ym2612"
    },
    {
      "channel": 0,
      "note": 57,
      "start": 17.0948,
      "duration": 0.035,
      "velocity": 91,
      "chip": "ym2612"
    },
    {
      "channel": 3,
      "note": 73,
      "start": 17.0963,
      "duration": 0.0345,
      "velocity": 104,
      "chip": "ym2612"
    },
    {
      "channel": 4,
      "note": 69,
      "start": 17.0971,
      "duration": 0.0341,
      "velocity": 104,
      "chip": "ym2612"
    },
    {
      "channel": 0,
      "note": 64,
      "start": 17.1559,
      "duration": 0.0295,
      "velocity": 91,
      "chip": "ym2612"
    },
    {
      "channel": 3,
      "note": 73,
      "start": 17.1574,
      "duration": 0.0295,
      "velocity": 104,
      "chip": "ym2612"
    },
    {
      "channel": 4,
      "note": 69,
      "start": 17.1581,
      "duration": 0.0295,
      "velocity": 104,
      "chip": "ym2612"
    },
    {
      "channel": 0,
      "note": 57,
      "start": 17.186,
      "duration": 0.041,
      "velocity": 91,
      "chip": "ym2612"
    },
    {
      "channel": 3,
      "note": 73,
      "start": 17.1875,
      "duration": 0.041,
      "velocity": 104,
      "chip": "ym2612"
    },
    {
      "channel": 4,
      "note": 69,
      "start": 17.1883,
      "duration": 0.0406,
      "velocity": 104,
      "chip": "ym2612"
    },
    {
      "channel": 0,
      "note": 52,
      "start": 17.2276,
      "duration": 0.0997,
      "velocity": 91,
      "chip": "ym2612"
    },
    {
      "channel": 0,
      "note": 57,
      "start": 17.3278,
      "duration": 0.0646,
      "velocity": 91,
      "chip": "ym2612"
    },
    {
      "channel": 3,
      "note": 73,
      "start": 17.3294,
      "duration": 0.0647,
      "velocity": 104,
      "chip": "ym2612"
    },
    {
      "channel": 4,
      "note": 69,
      "start": 17.3301,
      "duration": 0.0646,
      "velocity": 104,
      "chip": "ym2612"
    },
    {
      "channel": 0,
      "note": 56,
      "start": 17.393,
      "duration": 0.0654,
      "velocity": 91,
      "chip": "ym2612"
    },
    {
      "channel": 3,
      "note": 73,
      "start": 17.3946,
      "duration": 0.0686,
      "velocity": 104,
      "chip": "ym2612"
    },
    {
      "channel": 4,
      "note": 69,
      "start": 17.3954,
      "duration": 0.0685,
      "velocity": 104,
      "chip": "ym2612"
    },
    {
      "channel": 0,
      "note": 54,
      "start": 17.4589,
      "duration": 0.2408,
      "velocity": 91,
      "chip": "ym2612"
    },
    {
      "channel": 1,
      "note": 78,
      "start": 17.4623,
      "duration": 0.8188,
      "velocity": 97,
      "chip": "ym2612"
    },
    {
      "channel": 2,
      "note": 73,
      "start": 17.463,
      "duration": 0.8189,
      "velocity": 103,
      "chip": "ym2612"
    },
    {
      "channel": 3,
      "note": 76,
      "start": 17.4638,
      "duration": 0.0272,
      "velocity": 104,
      "chip": "ym2612"
    },
    {
      "channel": 4,
      "note": 73,
      "start": 17.4645,
      "duration": 0.0272,
      "velocity": 104,
      "chip": "ym2612"
    },
    {
      "channel": 3,
      "note": 73,
      "start": 17.4916,
      "duration": 0.1094,
      "velocity": 104,
      "chip": "ym2612"
    },
    {
      "channel": 4,
      "note": 70,
      "start": 17.4923,
      "duration": 0.1093,
      "velocity": 104,
      "chip": "ym2612"
    },
    {
      "channel": 3,
      "note": 70,
      "start": 17.6015,
      "duration": 0.0998,
      "velocity": 104,
      "chip": "ym2612"
    },
    {
      "channel": 4,
      "note": 66,
      "start": 17.6023,
      "duration": 0.0997,
      "velocity": 104,
      "chip": "ym2612"
    },
    {
      "channel": 0,
      "note": 66,
      "start": 17.7004,
      "duration": 0.0996,
      "velocity": 91,
      "chip": "ym2612"
    },
    {
      "channel": 3,
      "note": 73,
      "start": 17.7018,
      "duration": 0.0992,
      "velocity": 104,
      "chip": "ym2612"
    },
    {
      "channel": 4,
      "note": 70,
      "start": 17.7026,
      "duration": 0.0988,
      "velocity": 104,
      "chip": "ym2612"
    },
    {
      "channel": 0,
      "note": 54,
      "start": 17.8287,
      "duration": 0.0279,
      "velocity": 91,
      "chip": "ym2612"
    },
    {
      "channel": 3,
      "note": 76,
      "start": 17.8303,
      "duration": 0.0278,
      "velocity": 104,
      "chip": "ym2612"
    },
    {
      "channel": 4,
      "note": 73,
      "start": 17.831,
      "duration": 0.0279,
      "velocity": 104,
      "chip": "ym2612"
    },
    {
      "channel": 0,
      "note": 52,
      "start": 17.8572,
      "duration": 0.0647,
      "velocity": 91,
      "chip": "ym2612"
    },
    {
      "channel": 3,
      "note": 73,
      "start": 17.8587,
      "duration": 0.0647,
      "velocity": 104,
      "chip": "ym2612"
    },
    {
      "channel": 4,
      "note": 70,
      "start": 17.8595,
      "duration": 0.0647,
      "velocity": 104,
      "chip": "ym2612"
    },
    {
      "channel": 0,
      "note": 54,
      "start": 17.9225,
      "duration": 0.141,
      "velocity": 91,
      "chip": "ym2612"
    },
    {
      "channel": 3,
      "note": 70,
      "start": 17.924,
      "duration": 0.028,
      "velocity": 104,
      "chip": "ym2612"
    },
    {
      "channel": 4,
      "note": 66,
      "start": 17.9248,
      "duration": 0.0275,
      "velocity": 104,
      "chip": "ym2612"
    },
    {
      "channel": 0,
      "note": 56,
      "start": 18.064,
      "duration": 0.2163,
      "velocity": 91,
      "chip": "ym2612"
    },
    {
      "channel": 0,
      "note": 53,
      "start": 18.281,
      "duration": 0.0508,
      "velocity": 91,
      "chip": "ym2612"
    },
    {
      "channel": 1,
      "note": 82,
      "start": 18.2818,
      "duration": 0.0507,
      "velocity": 97,
      "chip": "ym2612"
    },
    {
      "channel": 2,
      "note": 78,
      "start": 18.2825,
      "duration": 0.0507,
      "velocity": 103,
      "chip": "ym2612"
    },
    {
      "channel": 0,
      "note": 54,
      "start": 18.3323,
      "duration": 0.244,
      "velocity": 91,
      "chip": "ym2612"
    },
    {
      "channel": 1,
      "note": 85,
      "start": 18.3331,
      "duration": 0.2439,
      "velocity": 97,
      "chip": "ym2612"
    },
    {
      "channel": 2,
      "note": 82,
      "start": 18.3338,
      "duration": 0.2439,
      "velocity": 103,
      "chip": "ym2612"
    },
    {
      "channel": 3,
      "note": 73,
      "start": 18.4379,
      "duration": 0.0396,
      "velocity": 104,
      "chip": "ym2612"
    },
    {
      "channel": 4,
      "note": 76,
      "start": 18.4386,
      "duration": 0.0396,
      "velocity": 104,
      "chip": "ym2612"
    },
    {
      "channel": 3,
      "note": 70,
      "start": 18.4781,
      "duration": 0.1004,
      "velocity": 104,
      "chip": "ym2612"
    },
    {
      "channel": 4,
      "note": 73,
      "start": 18.4788,
      "duration": 0.1004,
      "velocity": 104,
      "chip": "ym2612"
    },
    {
      "channel": 0,
      "note": 54,
      "start": 18.5769,
      "duration": 0.2163,
      "velocity": 91,
      "chip": "ym2612"
    },
    {
      "channel": 1,
      "note": 85,
      "start": 18.5776,
      "duration": 0.2163,
      "velocity": 97,
      "chip": "ym2612"
    },
    {
      "channel": 2,
      "note": 82,
      "start": 18.5783,
      "duration": 0.2163,
      "velocity": 103,
      "chip": "ym2612"
    },
    {
      "channel": 3,
      "note": 66,
      "start": 18.579,
      "duration": 0.0985,
      "velocity": 104,
      "chip": "ym2612"
    },
    {
      "channel": 4,
      "note": 70,
      "start": 18.5798,
      "duration": 0.0984,
      "velocity": 104,
      "chip": "ym2612"
    },
    {
      "channel": 3,
      "note": 70,
      "start": 18.6781,
      "duration": 0.1173,
      "velocity": 104,
      "chip": "ym2612"
    },
    {
      "channel": 4,
      "note": 73,
      "start": 18.6788,
      "duration": 0.1168,
      "velocity": 104,
      "chip": "ym2612"
    },
    {
      "channel": 0,
      "note": 56,
      "start": 18.7938,
      "duration": 0.0597,
      "velocity": 91,
      "chip": "ym2612"
    },
    {
      "channel": 1,
      "note": 88,
      "start": 18.7946,
      "duration": 0.0596,
      "velocity": 97,
      "chip": "ym2612"
    },
    {
      "channel": 2,
      "note": 85,
      "start": 18.7952,
      "duration": 0.0592,
      "velocity": 103,
      "chip": "ym2612"
    },
    {
      "channel": 3,
      "note": 73,
      "start": 18.8211,
      "duration": 0.0337,
      "velocity": 104,
      "chip": "ym2612"
    },
    {
      "channel": 4,
      "note": 76,
      "start": 18.8219,
      "duration": 0.0336,
      "velocity": 104,
      "chip": "ym2612"
    },
    {
      "channel": 0,
      "note": 56,
      "start": 18.854,
      "duration": 0.0523,
      "velocity": 91,
      "chip": "ym2612"
    },
    {
      "channel": 3,
      "note": 70,
      "start": 18.8554,
      "duration": 0.0531,
      "velocity": 104,
      "chip": "ym2612"
    },
    {
      "channel": 4,
      "note": 73,
      "start": 18.8561,
      "duration": 0.0531,
      "velocity": 104,
      "chip": "ym2612"
    },
    {
      "channel": 0,
      "note": 57,
      "start": 18.9069,
      "duration": 0.141,
      "velocity": 91,
      "chip": "ym2612"
    },
    {
      "channel": 1,
      "note": 86,
      "start": 18.9076,
      "duration": 0.141,
      "velocity": 97,
      "chip": "ym2612"
    },
    {
      "channel": 2,
      "note": 82,
      "start": 18.9083,
      "duration": 0.1411,
      "velocity": 103,
      "chip": "ym2612"
    },
    {
      "channel": 3,
      "note": 76,
      "start": 18.9091,
      "duration": 0.357,
      "velocity": 104,
      "chip": "ym2612"
    },
    {
      "channel": 4,
      "note": 79,
      "start": 18.9098,
      "duration": 0.3571,
      "velocity": 104,
      "chip": "ym2612"
    },
    {
      "channel": 0,
      "note": 57,
      "start": 19.0485,
      "duration": 0.2163,
      "velocity": 91,
      "chip": "ym2612"
    },
    {
      "channel": 1,
      "note": 85,
      "start": 19.0493,
      "duration": 0.2163,
      "velocity": 97,
      "chip": "ym2612"
    },
    {
      "channel": 2,
      "note": 82,
      "start": 19.05,
      "duration": 0.2159,
      "velocity": 103,
      "chip": "ym2612"
    },
    {
      "channel": 0,
      "note": 58,
      "start": 19.2654,
      "duration": 0.0557,
      "velocity": 91,
      "chip": "ym2612"
    },
    {
      "channel": 3,
      "note": 73,
      "start": 19.2668,
      "duration": 0.0566,
      "velocity": 104,
      "chip": "ym2612"
    },
    {
      "channel": 4,
      "note": 76,
      "start": 19.2675,
      "duration": 0.0566,
      "velocity": 104,
      "chip": "ym2612"
    },
    {
      "channel": 0,
      "note": 59,
      "start": 19.3217,
      "duration": 0.3474,
      "velocity": 91,
      "chip": "ym2612"
    },
    {
      "channel": 1,
      "note": 83,
      "start": 19.3224,
      "duration": 0.4473,
      "velocity": 97,
      "chip": "ym2612"
    },
    {
      "channel": 2,
      "note": 78,
      "start": 19.3231,
      "duration": 0.4473,
      "velocity": 103,
      "chip": "ym2612"
    },
    {
      "channel": 3,
      "note": 74,
      "start": 19.3239,
      "duration": 0.1377,
      "velocity": 104,
      "chip": "ym2612"
    },
    {
      "channel": 4,
      "note": 78,
      "start": 19.3247,
      "duration": 0.1377,
      "velocity": 104,
      "chip": "ym2612"
    },
    {
      "channel": 3,
      "note": 71,
      "start": 19.4622,
      "duration": 0.0915,
      "velocity": 104,
      "chip": "ym2612"
    },
    {
      "channel": 4,
      "note": 74,
      "start": 19.4629,
      "duration": 0.0915,
      "velocity": 104,
      "chip": "ym2612"
    },
    {
      "channel": 3,
      "note": 66,
      "start": 19.5542,
      "duration": 0.1163,
      "velocity": 104,
      "chip": "ym2612"
    },
    {
      "channel": 4,
      "note": 71,
      "start": 19.5549,
      "duration": 0.1163,
      "velocity": 104,
      "chip": "ym2612"
    },
    {
      "channel": 0,
      "note": 59,
      "start": 19.6696,
      "duration": 0.0998,
      "velocity": 91,
      "chip": "ym2612"
    },
    {
      "channel": 3,
      "note": 71,
      "start": 19.6712,
      "duration": 0.1,
      "velocity": 104,
      "chip": "ym2612"
    },
    {
      "channel": 4,
      "note": 74,
      "start": 19.6719,
      "duration": 0.0995,
      "velocity": 104,
      "chip": "ym2612"
    },
    {
      "channel": 1,
      "note": 82,
      "start": 19.7703,
      "duration": 0.1218,
      "velocity": 97,
      "chip": "ym2612"
    },
    {
      "channel": 2,
      "note": 78,
      "start": 19.771,
      "duration": 0.1218,
      "velocity": 103,
      "chip": "ym2612"
    },
    {
      "channel": 0,
      "note": 54,
      "start": 19.7978,
      "duration": 0.0281,
      "velocity": 91,
      "chip": "ym2612"
    },
    {
      "channel": 3,
      "note": 73,
      "start": 19.7994,
      "duration": 0.028,
      "velocity": 104,
      "chip": "ym2612"
    },
    {
      "channel": 4,
      "note": 76,
      "start": 19.8002,
      "duration": 0.028,
      "velocity": 104,
      "chip": "ym2612"
    },
    {
      "channel": 0,
      "note": 58,
      "start": 19.8265,
      "duration": 0.0649,
      "velocity": 91,
      "chip": "ym2612"
    },
    {
      "channel": 3,
      "note": 70,
      "start": 19.828,
      "duration": 0.0656,
      "velocity": 104,
      "chip": "ym2612"
    },
    {
      "channel": 4,
      "note": 73,
      "start": 19.8288,
      "duration": 0.0655,
      "velocity": 104,
      "chip": "ym2612"
    },
    {
      "channel": 0,
      "note": 54,
      "start": 19.892,
      "duration": 0.1408,
      "velocity": 91,
      "chip": "ym2612"
    },
    {
      "channel": 1,
      "note": 83,
      "start": 19.8927,
      "duration": 0.1408,
      "velocity": 97,
      "chip": "ym2612"
    },
    {
      "channel": 2,
      "note": 78,
      "start": 19.8934,
      "duration": 0.1409,
      "velocity": 103,
      "chip": "ym2612"
    },
    {
      "channel": 3,
      "note": 71,
      "start": 19.8942,
      "duration": 0.0265,
      "velocity": 104,
      "chip": "ym2612"
    },
    {
      "channel": 4,
      "note": 74,
      "start": 19.8949,
      "duration": 0.0261,
      "velocity": 104,
      "chip": "ym2612"
    },
    {
      "channel": 0,
      "note": 55,
      "start": 20.0334,
      "duration": 0.1997,
      "velocity": 91,
      "chip": "ym2612"
    },
    {
      "channel": 1,
      "note": 85,
      "start": 20.0341,
      "duration": 0.1996,
      "velocity": 97,
      "chip": "ym2612"
    },
    {
      "channel": 2,
      "note": 78,
      "start": 20.0348,
      "duration": 0.1993,
      "velocity": 103,
      "chip": "ym2612"
    },
    {
      "channel": 0,
      "note": 54,
      "start": 20.2336,
      "duration": 0.0462,
      "velocity": 91,
      "chip": "ym2612"
    },
    {
      "channel": 0,
      "note": 59,
      "start": 20.2805,
      "duration": 0.268,
      "velocity": 91,
      "chip": "ym2612"
    },
    {
      "channel": 1,
      "note": 86,
      "start": 20.2812,
      "duration": 0.1268,
      "velocity": 97,
      "chip": "ym2612"
    },
    {
      "channel": 2,
      "note": 83,
      "start": 20.282,
      "duration": 0.1263,
      "velocity": 103,
      "chip": "ym2612"
    },
    {
      "channel": 3,
      "note": 71,
      "start": 20.2827,
      "duration": 0.485,
      "velocity": 104,
      "chip": "ym2612"
    },
    {
      "channel": 4,
      "note": 74,
      "start": 20.2834,
      "duration": 0.4849,
      "velocity": 104,
      "chip": "ym2612"
    },
    {
      "channel": 0,
      "note": 59,
      "start": 20.5491,
      "duration": 0.2163,
      "velocity": 91,
      "chip": "ym2612"
    },
    {
      "channel": 1,
      "note": 86,
      "start": 20.5498,
      "duration": 0.2163,
      "velocity": 97,
      "chip": "ym2612"
    },
    {
      "channel": 2,
      "note": 83,
      "start": 20.5506,
      "duration": 0.2163,
      "velocity": 103,
      "chip": "ym2612"
    },
    {
      "channel": 0,
      "note": 57,
      "start": 20.766,
      "duration": 0.057,
      "velocity": 91,
      "chip": "ym2612"
    },
    {
      "channel": 1,
      "note": 85,
      "start": 20.7668,
      "duration": 0.1117,
      "velocity": 97,
      "chip": "ym2612"
    },
    {
      "channel": 2,
      "note": 78,
      "start": 20.7675,
      "duration": 0.1114,
      "velocity": 103,
      "chip": "ym2612"
    },
    {
      "channel": 3,
      "note": 69,
      "start": 20.7682,
      "duration": 0.122,
      "velocity": 104,
      "chip": "ym2612"
    },
    {
      "channel": 4,
      "note": 73,
      "start": 20.769,
      "duration": 0.1219,
      "velocity": 104,
      "chip": "ym2612"
    },
    {
      "channel": 0,
      "note": 57,
      "start": 20.8235,
      "duration": 0.0644,
      "velocity": 91,
      "chip": "ym2612"
    },
    {
      "channel": 0,
      "note": 56,
      "start": 20.8885,
      "duration": 0.1408,
      "velocity": 91,
      "chip": "ym2612"
    },
    {
      "channel": 1,
      "note": 83,
      "start": 20.8893,
      "duration": 0.3237,
      "velocity": 97,
      "chip": "ym2612"
    },
    {
      "channel": 2,
      "note": 78,
      "start": 20.89,
      "duration": 0.3234,
      "velocity": 103,
      "chip": "ym2612"
    },
    {
      "channel": 3,
      "note": 68,
      "start": 20.8908,
      "duration": 0.3577,
      "velocity": 104,
      "chip": "ym2612"
    },
    {
      "channel": 4,
      "note": 71,
      "start": 20.8915,
      "duration": 0.3577,
      "velocity": 104,
      "chip": "ym2612"
    },
    {
      "channel": 0,
      "note": 56,
      "start": 21.0299,
      "duration": 0.2163,
      "velocity": 91,
      "chip": "ym2612"
    },
    {
      "channel": 0,
      "note": 54,
      "start": 21.2468,
      "duration": 0.062,
      "velocity": 91,
      "chip": "ym2612"
    },
    {
      "channel": 1,
      "note": 81,
      "start": 21.2476,
      "duration": 0.1457,
      "velocity": 97,
      "chip": "ym2612"
    },
    {
      "channel": 2,
      "note": 78,
      "start": 21.2483,
      "duration": 0.1454,
      "velocity": 103,
      "chip": "ym2612"
    },
    {
      "channel": 3,
      "note": 66,
      "start": 21.2491,
      "duration": 0.1558,
      "velocity": 104,
      "chip": "ym2612"
    },
    {
      "channel": 4,
      "note": 69,
      "start": 21.2498,
      "duration": 0.1559,
      "velocity": 104,
      "chip": "ym2612"
    },
    {
      "channel": 0,
      "note": 53,
      "start": 21.3094,
      "duration": 0.0933,
      "velocity": 91,
      "chip": "ym2612"
    },
    {
      "channel": 0,
      "note": 52,
      "start": 21.4032,
      "duration": 0.2573,
      "velocity": 91,
      "chip": "ym2612"
    },
    {
      "channel": 1,
      "note": 80,
      "start": 21.404,
      "duration": 0.6058,
      "velocity": 97,
      "chip": "ym2612"
    },
    {
      "channel": 2,
      "note": 76,
      "start": 21.4047,
      "duration": 0.6057,
      "velocity": 103,
      "chip": "ym2612"
    },
    {
      "channel": 3,
      "note": 71,
      "start": 21.4055,
      "duration": 0.0395,
      "velocity": 104,
      "chip": "ym2612"
    },
    {
      "channel": 4,
      "note": 74,
      "start": 21.4062,
      "duration": 0.0395,
      "velocity": 104,
      "chip": "ym2612"
    },
    {
      "channel": 3,
      "note": 68,
      "start": 21.4456,
      "duration": 0.0995,
      "velocity": 104,
      "chip": "ym2612"
    },
    {
      "channel": 4,
      "note": 71,
      "start": 21.4463,
      "duration": 0.0994,
      "velocity": 104,
      "chip": "ym2612"
    },
    {
      "channel": 3,
      "note": 64,
      "start": 21.5456,
      "duration": 0.1164,
      "velocity": 104,
      "chip": "ym2612"
    },
    {
      "channel": 4,
      "note": 68,
      "start": 21.5464,
      "duration": 0.1164,
      "velocity": 104,
      "chip": "ym2612"
    },
    {
      "channel": 0,
      "note": 64,
      "start": 21.6612,
      "duration": 0.0996,
      "velocity": 91,
      "chip": "ym2612"
    },
    {
      "channel": 3,
      "note": 68,
      "start": 21.6627,
      "duration": 0.0992,
      "velocity": 104,
      "chip": "ym2612"
    },
    {
      "channel": 4,
      "note": 71,
      "start": 21.6634,
      "duration": 0.0988,
      "velocity": 104,
      "chip": "ym2612"
    },
    {
      "channel": 0,
      "note": 52,
      "start": 21.7856,
      "duration": 0.033,
      "velocity": 91,
      "chip": "ym2612"
    },
    {
      "channel": 3,
      "note": 71,
      "start": 21.7871,
      "duration": 0.033,
      "velocity": 104,
      "chip": "ym2612"
    },
    {
      "channel": 4,
      "note": 74,
      "start": 21.7878,
      "duration": 0.033,
      "velocity": 104,
      "chip": "ym2612"
    },
    {
      "channel": 0,
      "note": 51,
      "start": 21.8192,
      "duration": 0.0648,
      "velocity": 91,
      "chip": "ym2612"
    },
    {
      "channel": 3,
      "note": 68,
      "start": 21.8207,
      "duration": 0.0648,
      "velocity": 104,
      "chip": "ym2612"
    },
    {
      "channel": 4,
      "note": 71,
      "start": 21.8214,
      "duration": 0.0649,
      "velocity": 104,
      "chip": "ym2612"
    },
    {
      "channel": 0,
      "note": 52,
      "start": 21.8845,
      "duration": 0.1244,
      "velocity": 91,
      "chip": "ym2612"
    },
    {
      "channel": 3,
      "note": 71,
      "start": 21.8861,
      "duration": 0.0278,
      "velocity": 104,
      "chip": "ym2612"
    },
    {
      "channel": 4,
      "note": 74,
      "start": 21.8868,
      "duration": 0.0274,
      "velocity": 104,
      "chip": "ym2612"
    },
    {
      "channel": 0,
      "note": 54,
      "start": 22.0095,
      "duration": 0.2163,
      "velocity": 91,
      "chip": "ym2612"
    },
    {
      "channel": 1,
      "note": 83,
      "start": 22.0103,
      "duration": 0.2162,
      "velocity": 97,
      "chip": "ym2612"
    },
    {
      "channel": 2,
      "note": 80,
      "start": 22.0111,
      "duration": 0.2162,
      "velocity": 103,
      "chip": "ym2612"
    },
    {
      "channel": 0,
      "note": 51,
      "start": 22.2264,
      "duration": 0.0551,
      "velocity": 91,
      "chip": "ym2612"
    },
    {
      "channel": 1,
      "note": 80,
      "start": 22.2271,
      "duration": 0.0551,
      "velocity": 97,
      "chip": "ym2612"
    },
    {
      "channel": 2,
      "note": 76,
      "start": 22.2279,
      "duration": 0.0551,
      "velocity": 103,
      "chip": "ym2612"
    },
    {
      "channel": 0,
      "note": 52,
      "start": 22.2821,
      "duration": 0.244,
      "velocity": 91,
      "chip": "ym2612"
    },
    {
      "channel": 1,
      "note": 88,
      "start": 22.2828,
      "duration": 0.2439,
      "velocity": 97,
      "chip": "ym2612"
    },
    {
      "channel": 2,
      "note": 83,
      "start": 22.2836,
      "duration": 0.2439,
      "velocity": 103,
      "chip": "ym2612"
    },
    {
      "channel": 3,
      "note": 74,
      "start": 22.3877,
      "duration": 0.0296,
      "velocity": 104,
      "chip": "ym2612"
    },
    {
      "channel": 4,
      "note": 71,
      "start": 22.3884,
      "duration": 0.0296,
      "velocity": 104,
      "chip": "ym2612"
    },
    {
      "channel": 3,
      "note": 71,
      "start": 22.4178,
      "duration": 0.1104,
      "velocity": 104,
      "chip": "ym2612"
    },
    {
      "channel": 4,
      "note": 68,
      "start": 22.4185,
      "duration": 0.1105,
      "velocity": 104,
      "chip": "ym2612"
    },
    {
      "channel": 0,
      "note": 52,
      "start": 22.5267,
      "duration": 0.1997,
      "velocity": 91,
      "chip": "ym2612"
    },
    {
      "channel": 1,
      "note": 88,
      "start": 22.5274,
      "duration": 0.1996,
      "velocity": 97,
      "chip": "ym2612"
    },
    {
      "channel": 2,
      "note": 83,
      "start": 22.5281,
      "duration": 0.1997,
      "velocity": 103,
      "chip": "ym2612"
    },
    {
      "channel": 3,
      "note": 68,
      "start": 22.5288,
      "duration": 0.0985,
      "velocity": 104,
      "chip": "ym2612"
    },
    {
      "channel": 4,
      "note": 64,
      "start": 22.5296,
      "duration": 0.0984,
      "velocity": 104,
      "chip": "ym2612"
    },
    {
      "channel": 3,
      "note": 71,
      "start": 22.6279,
      "duration": 0.1006,
      "velocity": 104,
      "chip": "ym2612"
    },
    {
      "channel": 4,
      "note": 68,
      "start": 22.6286,
      "duration": 0.1002,
      "velocity": 104,
      "chip": "ym2612"
    },
    {
      "channel": 0,
      "note": 54,
      "start": 22.7269,
      "duration": 0.0596,
      "velocity": 91,
      "chip": "ym2612"
    },
    {
      "channel": 1,
      "note": 88,
      "start": 22.7277,
      "duration": 0.0595,
      "velocity": 97,
      "chip": "ym2612"
    },
    {
      "channel": 2,
      "note": 83,
      "start": 22.7284,
      "duration": 0.0596,
      "velocity": 103,
      "chip": "ym2612"
    },
    {
      "channel": 3,
      "note": 74,
      "start": 22.7586,
      "duration": 0.03,
      "velocity": 104,
      "chip": "ym2612"
    },
    {
      "channel": 4,
      "note": 71,
      "start": 22.7594,
      "duration": 0.03,
      "velocity": 104,
      "chip": "ym2612"
    },
    {
      "channel": 0,
      "note": 54,
      "start": 22.7871,
      "duration": 0.065,
      "velocity": 91,
      "chip": "ym2612"
    },
    {
      "channel": 1,
      "note": 90,
      "start": 22.7878,
      "duration": 0.0649,
      "velocity": 97,
      "chip": "ym2612"
    },
    {
      "channel": 2,
      "note": 86,
      "start": 22.7885,
      "duration": 0.065,
      "velocity": 103,
      "chip": "ym2612"
    },
    {
      "channel": 3,
      "note": 71,
      "start": 22.7893,
      "duration": 0.0649,
      "velocity": 104,
      "chip": "ym2612"
    },
    {
      "channel": 4,
      "note": 68,
      "start": 22.79,
      "duration": 0.065,
      "velocity": 104,
      "chip": "ym2612"
    },
    {
      "channel": 0,
      "note": 55,
      "start": 22.8526,
      "duration": 0.1407,
      "velocity": 91,
      "chip": "ym2612"
    },
    {
      "channel": 1,
      "note": 88,
      "start": 22.8534,
      "duration": 0.1407,
      "velocity": 97,
      "chip": "ym2612"
    },
    {
      "channel": 2,
      "note": 83,
      "start": 22.8541,
      "duration": 0.1407,
      "velocity": 103,
      "chip": "ym2612"
    },
    {
      "channel": 3,
      "note": 78,
      "start": 22.8548,
      "duration": 0.3568,
      "velocity": 104,
      "chip": "ym2612"
    },
    {
      "channel": 4,
      "note": 74,
      "start": 22.8555,
      "duration": 0.3568,
      "velocity": 104,
      "chip": "ym2612"
    },
    {
      "channel": 0,
      "note": 55,
      "start": 22.9939,
      "duration": 0.2163,
      "velocity": 91,
      "chip": "ym2612"
    },
    {
      "channel": 1,
      "note": 86,
      "start": 22.9947,
      "duration": 0.2163,
      "velocity": 97,
      "chip": "ym2612"
    },
    {
      "channel": 2,
      "note": 83,
      "start": 22.9954,
      "duration": 0.2159,
      "velocity": 103,
      "chip": "ym2612"
    },
    {
      "channel": 0,
      "note": 56,
      "start": 23.2108,
      "duration": 0.0515,
      "velocity": 91,
      "chip": "ym2612"
    },
    {
      "channel": 3,
      "note": 74,
      "start": 23.2122,
      "duration": 0.0522,
      "velocity": 104,
      "chip": "ym2612"
    },
    {
      "channel": 4,
      "note": 71,
      "start": 23.213,
      "duration": 0.0522,
      "velocity": 104,
      "chip": "ym2612"
    },
    {
      "channel": 0,
      "note": 57,
      "start": 23.2629,
      "duration": 0.3464,
      "velocity": 91,
      "chip": "ym2612"
    },
    {
      "channel": 1,
      "note": 85,
      "start": 23.2636,
      "duration": 1.4478,
      "velocity": 97,
      "chip": "ym2612"
    },
    {
      "channel": 2,
      "note": 81,
      "start": 23.2643,
      "duration": 1.4477,
      "velocity": 103,
      "chip": "ym2612"
    },
    {
      "channel": 3,
      "note": 76,
      "start": 23.265,
      "duration": 0.1453,
      "velocity": 104,
      "chip": "ym2612"
    },
    {
      "channel": 4,
      "note": 73,
      "start": 23.2658,
      "duration": 0.1453,
      "velocity": 104,
      "chip": "ym2612"
    },
    {
      "channel": 3,
      "note": 73,
      "start": 23.4109,
      "duration": 0.0996,
      "velocity": 104,
      "chip": "ym2612"
    },
    {
      "channel": 4,
      "note": 69,
      "start": 23.4117,
      "duration": 0.0995,
      "velocity": 104,
      "chip": "ym2612"
    },
    {
      "channel": 3,
      "note": 69,
      "start": 23.5111,
      "duration": 0.0997,
      "velocity": 104,
      "chip": "ym2612"
    },
    {
      "channel": 4,
      "note": 64,
      "start": 23.5118,
      "duration": 0.0997,
      "velocity": 104,
      "chip": "ym2612"
    },
    {
      "channel": 0,
      "note": 57,
      "start": 23.6097,
      "duration": 0.1165,
      "velocity": 91,
      "chip": "ym2612"
    },
    {
      "channel": 3,
      "note": 73,
      "start": 23.6113,
      "duration": 0.116,
      "velocity": 104,
      "chip": "ym2612"
    },
    {
      "channel": 4,
      "note": 69,
      "start": 23.6121,
      "duration": 0.1155,
      "velocity": 104,
      "chip": "ym2612"
    },
    {
      "channel": 0,
      "note": 52,
      "start": 23.7512,
      "duration": 0.0331,
      "velocity": 91,
      "chip": "ym2612"
    },
    {
      "channel": 3,
      "note": 76,
      "start": 23.7527,
      "duration": 0.0331,
      "velocity": 104,
      "chip": "ym2612"
    },
    {
      "channel": 4,
      "note": 73,
      "start": 23.7535,
      "duration": 0.0331,
      "velocity": 104,
      "chip": "ym2612"
    },
    {
      "channel": 0,
      "note": 54,
      "start": 23.7848,
      "duration": 0.0294,
      "velocity": 91,
      "chip": "ym2612"
    },
    {
      "channel": 3,
      "note": 73,
      "start": 23.7863,
      "duration": 0.0594,
      "velocity": 104,
      "chip": "ym2612"
    },
    {
      "channel": 4,
      "note": 69,
      "start": 23.7871,
      "duration": 0.0594,
      "velocity": 104,
      "chip": "ym2612"
    },
    {
      "channel": 0,
      "note": 52,
      "start": 23.8148,
      "duration": 0.0294,
      "velocity": 91,
      "chip": "ym2612"
    },
    {
      "channel": 0,
      "note": 57,
      "start": 23.8448,
      "duration": 0.1412,
      "velocity": 91,
      "chip": "ym2612"
    },
    {
      "channel": 3,
      "note": 76,
      "start": 23.8463,
      "duration": 0.0407,
      "velocity": 104,
      "chip": "ym2612"
    },
    {
      "channel": 4,
      "note": 73,
      "start": 23.8471,
      "duration": 0.0402,
      "velocity": 104,
      "chip": "ym2612"
    },
    {
      "channel": 0,
      "note": 54,
      "start": 23.9866,
      "duration": 0.0541,
      "velocity": 91,
      "chip": "ym2612"
    },
    {
      "channel": 0,
      "note": 59,
      "start": 24.0412,
      "duration": 0.0545,
      "velocity": 91,
      "chip": "ym2612"
    },
    {
      "channel": 0,
      "note": 57,
      "start": 24.0963,
      "duration": 0.3415,
      "velocity": 91,
      "chip": "ym2612"
    },
    {
      "channel": 3,
      "note": 71,
      "start": 24.0978,
      "duration": 0.3414,
      "velocity": 104,
      "chip": "ym2612"
    },
    {
      "channel": 4,
      "note": 74,
      "start": 24.0986,
      "duration": 0.3414,
      "velocity": 104,
      "chip": "ym2612"
    },
    {
      "channel": 0,
      "note": 57,
      "start": 24.4383,
      "duration": 0.1413,
      "velocity": 91,
      "chip": "ym2612"
    },
    {
      "channel": 3,
      "note": 71,
      "start": 24.4399,
      "duration": 0.1412,
      "velocity": 104,
      "chip": "ym2612"
    },
    {
      "channel": 4,
      "note": 74,
      "start": 24.4406,
      "duration": 0.1413,
      "velocity": 104,
      "chip": "ym2612"
    },
    {
      "channel": 0,
      "note": 57,
      "start": 24.5802,
      "duration": 0.0647,
      "velocity": 91,
      "chip": "ym2612"
    },
    {
      "channel": 3,
      "note": 69,
      "start": 24.5817,
      "duration": 0.1311,
      "velocity": 104,
      "chip": "ym2612"
    },
    {
      "channel": 4,
      "note": 73,
      "start": 24.5825,
      "duration": 0.131,
      "velocity": 104,
      "chip": "ym2612"
    },
    {
      "channel": 0,
      "note": 52,
      "start": 24.6454,
      "duration": 0.0651,
      "velocity": 91,
      "chip": "ym2612"
    },
    {
      "channel": 0,
      "note": 57,
      "start": 24.7111,
      "duration": 0.3411,
      "velocity": 91,
      "chip": "ym2612"
    },
    {
      "channel": 1,
      "note": 81,
      "start": 24.7119,
      "duration": 0.341,
      "velocity": 97,
      "chip": "ym2612"
    },
    {
      "channel": 2,
      "note": 76,
      "start": 24.7127,
      "duration": 0.3409,
      "velocity": 103,
      "chip": "ym2612"
    },
    {
      "channel": 3,
      "note": 73,
      "start": 24.7134,
      "duration": 0.0275,
      "velocity": 104,
      "chip": "ym2612"
    },
    {
      "channel": 4,
      "note": 76,
      "start": 24.7141,
      "duration": 0.0275,
      "velocity": 104,
      "chip": "ym2612"
    },
    {
      "channel": 3,
      "note": 71,
      "start": 24.7415,
      "duration": 0.1116,
      "velocity": 104,
      "chip": "ym2612"
    },
    {
      "channel": 4,
      "note": 74,
      "start": 24.7422,
      "duration": 0.1115,
      "velocity": 104,
      "chip": "ym2612"
    },
    {
      "channel": 3,
      "note": 69,
      "start": 24.8537,
      "duration": 0.0994,
      "velocity": 104,
      "chip": "ym2612"
    },
    {
      "channel": 4,
      "note": 73,
      "start": 24.8544,
      "duration": 0.0994,
      "velocity": 104,
      "chip": "ym2612"
    },
    {
      "channel": 3,
      "note": 68,
      "start": 24.9537,
      "duration": 0.1006,
      "velocity": 104,
      "chip": "ym2612"
    },
    {
      "channel": 4,
      "note": 71,
      "start": 24.9544,
      "duration": 0.1007,
      "velocity": 104,
      "chip": "ym2612"
    },
    {
      "channel": 0,
      "note": 56,
      "start": 25.0527,
      "duration": 0.1287,
      "velocity": 91,
      "chip": "ym2612"
    },
    {
      "channel": 1,
      "note": 80,
      "start": 25.0534,
      "duration": 0.1288,
      "velocity": 97,
      "chip": "ym2612"
    },
    {
      "channel": 2,
      "note": 76,
      "start": 25.0541,
      "duration": 0.1287,
      "velocity": 103,
      "chip": "ym2612"
    },
    {
      "channel": 3,
      "note": 66,
      "start": 25.0549,
      "duration": 0.0326,
      "velocity": 104,
      "chip": "ym2612"
    },
    {
      "channel": 4,
      "note": 69,
      "start": 25.0556,
      "duration": 0.0325,
      "velocity": 104,
      "chip": "ym2612"
    },
    {
      "channel": 3,
      "note": 64,
      "start": 25.088,
      "duration": 0.0288,
      "velocity": 104,
      "chip": "ym2612"
    },
    {
      "channel": 4,
      "note": 68,
      "start": 25.0887,
      "duration": 0.0288,
      "velocity": 104,
      "chip": "ym2612"
    },
    {
      "channel": 3,
      "note": 62,
      "start": 25.1174,
      "duration": 0.0348,
      "velocity": 104,
      "chip": "ym2612"
    },
    {
      "channel": 4,
      "note": 66,
      "start": 25.1181,
      "duration": 0.0349,
      "velocity": 104,
      "chip": "ym2612"
    },
    {
      "channel": 3,
      "note": 61,
      "start": 25.1528,
      "duration": 0.0308,
      "velocity": 104,
      "chip": "ym2612"
    },
    {
      "channel": 4,
      "note": 64,
      "start": 25.1536,
      "duration": 0.0308,
      "velocity": 104,
      "chip": "ym2612"
    },
    {
      "channel": 0,
      "note": 54,
      "start": 25.1819,
      "duration": 0.2408,
      "velocity": 91,
      "chip": "ym2612"
    },
    {
      "channel": 1,
      "note": 78,
      "start": 25.1828,
      "duration": 0.6175,
      "velocity": 97,
      "chip": "ym2612"
    },
    {
      "channel": 2,
      "note": 73,
      "start": 25.1835,
      "duration": 0.6175,
      "velocity": 103,
      "chip": "ym2612"
    },
    {
      "channel": 3,
      "note": 66,
      "start": 25.1842,
      "duration": 0.0278,
      "velocity": 104,
      "chip": "ym2612"
    },
    {
      "channel": 4,
      "note": 70,
      "start": 25.185,
      "duration": 0.0278,
      "velocity": 104,
      "chip": "ym2612"
    },
    {
      "channel": 3,
      "note": 70,
      "start": 25.2126,
      "duration": 0.1112,
      "velocity": 104,
      "chip": "ym2612"
    },
    {
      "channel": 4,
      "note": 73,
      "start": 25.2133,
      "duration": 0.1112,
      "velocity": 104,
      "chip": "ym2612"
    },
    {
      "channel": 3,
      "note": 73,
      "start": 25.3244,
      "duration": 0.0998,
      "velocity": 104,
      "chip": "ym2612"
    },
    {
      "channel": 4,
      "note": 76,
      "start": 25.3251,
      "duration": 0.0998,
      "velocity": 104,
      "chip": "ym2612"
    },
    {
      "channel": 0,
      "note": 66,
      "start": 25.4234,
      "duration": 0.1163,
      "velocity": 91,
      "chip": "ym2612"
    },
    {
      "channel": 3,
      "note": 70,
      "start": 25.4247,
      "duration": 0.116,
      "velocity": 104,
      "chip": "ym2612"
    },
    {
      "channel": 4,
      "note": 73,
      "start": 25.4254,
      "duration": 0.1156,
      "velocity": 104,
      "chip": "ym2612"
    },
    {
      "channel": 0,
      "note": 54,
      "start": 25.5646,
      "duration": 0.0281,
      "velocity": 91,
      "chip": "ym2612"
    },
    {
      "channel": 3,
      "note": 66,
      "start": 25.5662,
      "duration": 0.0281,
      "velocity": 104,
      "chip": "ym2612"
    },
    {
      "channel": 4,
      "note": 70,
      "start": 25.567,
      "duration": 0.028,
      "velocity": 104,
      "chip": "ym2612"
    },
    {
      "channel": 0,
      "note": 52,
      "start": 25.5933,
      "duration": 0.0645,
      "velocity": 91,
      "chip": "ym2612"
    },
    {
      "channel": 3,
      "note": 70,
      "start": 25.5949,
      "duration": 0.0644,
      "velocity": 104,
      "chip": "ym2612"
    },
    {
      "channel": 4,
      "note": 73,
      "start": 25.5956,
      "duration": 0.0644,
      "velocity": 104,
      "chip": "ym2612"
    },
    {
      "channel": 0,
      "note": 54,
      "start": 25.6584,
      "duration": 0.141,
      "velocity": 91,
      "chip": "ym2612"
    },
    {
      "channel": 3,
      "note": 73,
      "start": 25.6599,
      "duration": 0.0407,
      "velocity": 104,
      "chip": "ym2612"
    },
    {
      "channel": 4,
      "note": 76,
      "start": 25.6607,
      "duration": 0.0403,
      "velocity": 104,
      "chip": "ym2612"
    },
    {
      "channel": 0,
      "note": 56,
      "start": 25.8,
      "duration": 0.2163,
      "velocity": 91,
      "chip": "ym2612"
    },
    {
      "channel": 1,
      "note": 82,
      "start": 25.8009,
      "duration": 0.2162,
      "velocity": 97,
      "chip": "ym2612"
    },
    {
      "channel": 2,
      "note": 76,
      "start": 25.8016,
      "duration": 0.2158,
      "velocity": 103,
      "chip": "ym2612"
    },
    {
      "channel": 0,
      "note": 53,
      "start": 26.017,
      "duration": 0.0473,
      "velocity": 91,
      "chip": "ym2612"
    },
    {
      "channel": 0,
      "note": 54,
      "start": 26.0648,
      "duration": 0.2473,
      "velocity": 91,
      "chip": "ym2612"
    },
    {
      "channel": 1,
      "note": 85,
      "start": 26.0656,
      "duration": 0.2472,
      "velocity": 97,
      "chip": "ym2612"
    },
    {
      "channel": 2,
      "note": 82,
      "start": 26.0663,
      "duration": 0.2472,
      "velocity": 103,
      "chip": "ym2612"
    },
    {
      "channel": 3,
      "note": 70,
      "start": 26.1737,
      "duration": 0.0395,
      "velocity": 104,
      "chip": "ym2612"
    },
    {
      "channel": 4,
      "note": 73,
      "start": 26.1745,
      "duration": 0.0395,
      "velocity": 104,
      "chip": "ym2612"
    },
    {
      "channel": 3,
      "note": 73,
      "start": 26.2139,
      "duration": 0.1005,
      "velocity": 104,
      "chip": "ym2612"
    },
    {
      "channel": 4,
      "note": 76,
      "start": 26.2146,
      "duration": 0.1004,
      "velocity": 104,
      "chip": "ym2612"
    },
    {
      "channel": 0,
      "note": 54,
      "start": 26.3127,
      "duration": 0.2163,
      "velocity": 91,
      "chip": "ym2612"
    },
    {
      "channel": 1,
      "note": 85,
      "start": 26.3134,
      "duration": 0.2163,
      "velocity": 97,
      "chip": "ym2612"
    },
    {
      "channel": 2,
      "note": 82,
      "start": 26.3142,
      "duration": 0.2163,
      "velocity": 103,
      "chip": "ym2612"
    },
    {
      "channel": 3,
      "note": 76,
      "start": 26.3149,
      "duration": 0.1151,
      "velocity": 104,
      "chip": "ym2612"
    },
    {
      "channel": 4,
      "note": 79,
      "start": 26.3156,
      "duration": 0.1151,
      "velocity": 104,
      "chip": "ym2612"
    },
    {
      "channel": 3,
      "note": 73,
      "start": 26.4306,
      "duration": 0.1006,
      "velocity": 104,
      "chip": "ym2612"
    },
    {
      "channel": 4,
      "note": 76,
      "start": 26.4313,
      "duration": 0.1001,
      "velocity": 104,
      "chip": "ym2612"
    },
    {
      "channel": 0,
      "note": 56,
      "start": 26.5296,
      "duration": 0.0597,
      "velocity": 91,
      "chip": "ym2612"
    },
    {
      "channel": 1,
      "note": 85,
      "start": 26.5303,
      "duration": 0.0596,
      "velocity": 97,
      "chip": "ym2612"
    },
    {
      "channel": 2,
      "note": 82,
      "start": 26.531,
      "duration": 0.0597,
      "velocity": 103,
      "chip": "ym2612"
    },
    {
      "channel": 3,
      "note": 70,
      "start": 26.5569,
      "duration": 0.0345,
      "velocity": 104,
      "chip": "ym2612"
    },
    {
      "channel": 4,
      "note": 73,
      "start": 26.5577,
      "duration": 0.0345,
      "velocity": 104,
      "chip": "ym2612"
    },
    {
      "channel": 0,
      "note": 56,
      "start": 26.5898,
      "duration": 0.065,
      "velocity": 91,
      "chip": "ym2612"
    },
    {
      "channel": 1,
      "note": 88,
      "start": 26.5906,
      "duration": 0.0649,
      "velocity": 97,
      "chip": "ym2612"
    },
    {
      "channel": 2,
      "note": 85,
      "start": 26.5912,
      "duration": 0.065,
      "velocity": 103,
      "chip": "ym2612"
    },
    {
      "channel": 3,
      "note": 73,
      "start": 26.592,
      "duration": 0.0649,
      "velocity": 104,
      "chip": "ym2612"
    },
    {
      "channel": 4,
      "note": 76,
      "start": 26.5927,
      "duration": 0.065,
      "velocity": 104,
      "chip": "ym2612"
    },
    {
      "channel": 0,
      "note": 57,
      "start": 26.6553,
      "duration": 0.124,
      "velocity": 91,
      "chip": "ym2612"
    },
    {
      "channel": 1,
      "note": 86,
      "start": 26.6561,
      "duration": 0.124,
      "velocity": 97,
      "chip": "ym2612"
    },
    {
      "channel": 2,
      "note": 82,
      "start": 26.6568,
      "duration": 0.1241,
      "velocity": 103,
      "chip": "ym2612"
    },
    {
      "channel": 3,
      "note": 76,
      "start": 26.6576,
      "duration": 0.0274,
      "velocity": 104,
      "chip": "ym2612"
    },
    {
      "channel": 4,
      "note": 79,
      "start": 26.6583,
      "duration": 0.027,
      "velocity": 104,
      "chip": "ym2612"
    },
    {
      "channel": 0,
      "note": 57,
      "start": 26.78,
      "duration": 0.2163,
      "velocity": 91,
      "chip": "ym2612"
    },
    {
      "channel": 1,
      "note": 85,
      "start": 26.7807,
      "duration": 0.2163,
      "velocity": 97,
      "chip": "ym2612"
    },
    {
      "channel": 2,
      "note": 82,
      "start": 26.7815,
      "duration": 0.2159,
      "velocity": 103,
      "chip": "ym2612"
    },
    {
      "channel": 0,
      "note": 58,
      "start": 26.9969,
      "duration": 0.0475,
      "velocity": 91,
      "chip": "ym2612"
    },
    {
      "channel": 0,
      "note": 59,
      "start": 27.0449,
      "duration": 0.3516,
      "velocity": 91,
      "chip": "ym2612"
    },
    {
      "channel": 1,
      "note": 83,
      "start": 27.0457,
      "duration": 0.4514,
      "velocity": 97,
      "chip": "ym2612"
    },
    {
      "channel": 2,
      "note": 78,
      "start": 27.0464,
      "duration": 0.4514,
      "velocity": 103,
      "chip": "ym2612"
    },
    {
      "channel": 3,
      "note": 66,
      "start": 27.1891,
      "duration": 0.1086,
      "velocity": 104,
      "chip": "ym2612"
    },
    {
      "channel": 4,
      "note": 71,
      "start": 27.1898,
      "duration": 0.1086,
      "velocity": 104,
      "chip": "ym2612"
    },
    {
      "channel": 3,
      "note": 62,
      "start": 27.2983,
      "duration": 0.0997,
      "velocity": 104,
      "chip": "ym2612"
    },
    {
      "channel": 4,
      "note": 66,
      "start": 27.299,
      "duration": 0.0997,
      "velocity": 104,
      "chip": "ym2612"
    },
    {
      "channel": 0,
      "note": 59,
      "start": 27.3969,
      "duration": 0.0998,
      "velocity": 91,
      "chip": "ym2612"
    },
    {
      "channel": 3,
      "note": 66,
      "start": 27.3985,
      "duration": 0.1,
      "velocity": 104,
      "chip": "ym2612"
    },
    {
      "channel": 4,
      "note": 71,
      "start": 27.3992,
      "duration": 0.0995,
      "velocity": 104,
      "chip": "ym2612"
    },
    {
      "channel": 1,
      "note": 82,
      "start": 27.4976,
      "duration": 0.1213,
      "velocity": 97,
      "chip": "ym2612"
    },
    {
      "channel": 2,
      "note": 78,
      "start": 27.4984,
      "duration": 0.1213,
      "velocity": 103,
      "chip": "ym2612"
    },
    {
      "channel": 0,
      "note": 54,
      "start": 27.525,
      "duration": 0.0281,
      "velocity": 91,
      "chip": "ym2612"
    },
    {
      "channel": 3,
      "note": 71,
      "start": 27.5266,
      "duration": 0.028,
      "velocity": 104,
      "chip": "ym2612"
    },
    {
      "channel": 4,
      "note": 74,
      "start": 27.5274,
      "duration": 0.028,
      "velocity": 104,
      "chip": "ym2612"
    },
    {
      "channel": 0,
      "note": 57,
      "start": 27.5537,
      "duration": 0.0645,
      "velocity": 91,
      "chip": "ym2612"
    },
    {
      "channel": 3,
      "note": 74,
      "start": 27.5552,
      "duration": 0.0652,
      "velocity": 104,
      "chip": "ym2612"
    },
    {
      "channel": 4,
      "note": 78,
      "start": 27.556,
      "duration": 0.0652,
      "velocity": 104,
      "chip": "ym2612"
    },
    {
      "channel": 0,
      "note": 56,
      "start": 27.6188,
      "duration": 0.1411,
      "velocity": 91,
      "chip": "ym2612"
    },
    {
      "channel": 1,
      "note": 83,
      "start": 27.6196,
      "duration": 0.141,
      "velocity": 97,
      "chip": "ym2612"
    },
    {
      "channel": 2,
      "note": 78,
      "start": 27.6202,
      "duration": 0.1411,
      "velocity": 103,
      "chip": "ym2612"
    },
    {
      "channel": 3,
      "note": 78,
      "start": 27.621,
      "duration": 0.0268,
      "velocity": 104,
      "chip": "ym2612"
    },
    {
      "channel": 4,
      "note": 83,
      "start": 27.6218,
      "duration": 0.0263,
      "velocity": 104,
      "chip": "ym2612"
    },
    {
      "channel": 0,
      "note": 55,
      "start": 27.7605,
      "duration": 0.2163,
      "velocity": 91,
      "chip": "ym2612"
    },
    {
      "channel": 1,
      "note": 86,
      "start": 27.7612,
      "duration": 0.2163,
      "velocity": 97,
      "chip": "ym2612"
    },
    {
      "channel": 2,
      "note": 83,
      "start": 27.762,
      "duration": 0.2159,
      "velocity": 103,
      "chip": "ym2612"
    },
    {
      "channel": 0,
      "note": 54,
      "start": 27.9774,
      "duration": 0.0425,
      "velocity": 91,
      "chip": "ym2612"
    },
    {
      "channel": 0,
      "note": 59,
      "start": 28.0205,
      "duration": 0.2549,
      "velocity": 91,
      "chip": "ym2612"
    },
    {
      "channel": 1,
      "note": 90,
      "start": 28.0213,
      "duration": 0.5941,
      "velocity": 97,
      "chip": "ym2612"
    },
    {
      "channel": 2,
      "note": 87,
      "start": 28.0221,
      "duration": 0.5939,
      "velocity": 103,
      "chip": "ym2612"
    },
    {
      "channel": 3,
      "note": 71,
      "start": 28.0228,
      "duration": 0.2542,
      "velocity": 104,
      "chip": "ym2612"
    },
    {
      "channel": 4,
      "note": 75,
      "start": 28.0235,
      "duration": 0.2542,
      "velocity": 104,
      "chip": "ym2612"
    },
    {
      "channel": 0,
      "note": 59,
      "start": 28.2761,
      "duration": 0.2163,
      "velocity": 91,
      "chip": "ym2612"
    },
    {
      "channel": 3,
      "note": 71,
      "start": 28.2776,
      "duration": 0.0656,
      "velocity": 104,
      "chip": "ym2612"
    },
    {
      "channel": 4,
      "note": 75,
      "start": 28.2783,
      "duration": 0.0656,
      "velocity": 104,
      "chip": "ym2612"
    },
    {
      "channel": 3,
      "note": 73,
      "start": 28.3438,
      "duration": 0.0662,
      "velocity": 104,
      "chip": "ym2612"
    },
    {
      "channel": 4,
      "note": 76,
      "start": 28.3446,
      "duration": 0.0662,
      "velocity": 104,
      "chip": "ym2612"
    },
    {
      "channel": 3,
      "note": 71,
      "start": 28.4106,
      "duration": 0.0833,
      "velocity": 104,
      "chip": "ym2612"
    },
    {
      "channel": 4,
      "note": 75,
      "start": 28.4114,
      "duration": 0.0833,
      "velocity": 104,
      "chip": "ym2612"
    },
    {
      "channel": 0,
      "note": 57,
      "start": 28.493,
      "duration": 0.028,
      "velocity": 91,
      "chip": "ym2612"
    },
    {
      "channel": 3,
      "note": 70,
      "start": 28.4946,
      "duration": 0.0618,
      "velocity": 104,
      "chip": "ym2612"
    },
    {
      "channel": 4,
      "note": 73,
      "start": 28.4953,
      "duration": 0.0616,
      "velocity": 104,
      "chip": "ym2612"
    },
    {
      "channel": 0,
      "note": 58,
      "start": 28.5216,
      "duration": 0.0332,
      "velocity": 91,
      "chip": "ym2612"
    },
    {
      "channel": 0,
      "note": 59,
      "start": 28.5554,
      "duration": 0.0296,
      "velocity": 91,
      "chip": "ym2612"
    },
    {
      "channel": 3,
      "note": 70,
      "start": 28.5568,
      "duration": 0.019,
      "velocity": 104,
      "chip": "ym2612"
    },
    {
      "channel": 4,
      "note": 73,
      "start": 28.5573,
      "duration": 0.0192,
      "velocity": 104,
      "chip": "ym2612"
    },
    {
      "channel": 3,
      "note": 71,
      "start": 28.5763,
      "duration": 0.0198,
      "velocity": 104,
      "chip": "ym2612"
    },
    {
      "channel": 4,
      "note": 75,
      "start": 28.5771,
      "duration": 0.0198,
      "velocity": 104,
      "chip": "ym2612"
    },
    {
      "channel": 0,
      "note": 58,
      "start": 28.5856,
      "duration": 0.0295,
      "velocity": 91,
      "chip": "ym2612"
    },
    {
      "channel": 3,
      "note": 70,
      "start": 28.5968,
      "duration": 0.0198,
      "velocity": 104,
      "chip": "ym2612"
    },
    {
      "channel": 4,
      "note": 73,
      "start": 28.5975,
      "duration": 0.0198,
      "velocity": 104,
      "chip": "ym2612"
    },
    {
      "channel": 1,
      "note": 90,
      "start": 28.6159,
      "duration": 0.1414,
      "velocity": 97,
      "chip": "ym2612"
    },
    {
      "channel": 2,
      "note": 87,
      "start": 28.6164,
      "duration": 0.1416,
      "velocity": 103,
      "chip": "ym2612"
    },
    {
      "channel": 3,
      "note": 68,
      "start": 28.6171,
      "duration": 0.1417,
      "velocity": 104,
      "chip": "ym2612"
    },
    {
      "channel": 4,
      "note": 71,
      "start": 28.6179,
      "duration": 0.1415,
      "velocity": 104,
      "chip": "ym2612"
    },
    {
      "channel": 0,
      "note": 58,
      "start": 28.6572,
      "duration": 0.0994,
      "velocity": 91,
      "chip": "ym2612"
    },
    {
      "channel": 0,
      "note": 56,
      "start": 28.7572,
      "duration": 0.2163,
      "velocity": 91,
      "chip": "ym2612"
    },
    {
      "channel": 1,
      "note": 88,
      "start": 28.7579,
      "duration": 0.2163,
      "velocity": 97,
      "chip": "ym2612"
    },
    {
      "channel": 2,
      "note": 83,
      "start": 28.7587,
      "duration": 0.2163,
      "velocity": 103,
      "chip": "ym2612"
    },
    {
      "channel": 3,
      "note": 68,
      "start": 28.7593,
      "duration": 0.0649,
      "velocity": 104,
      "chip": "ym2612"
    },
    {
      "channel": 4,
      "note": 71,
      "start": 28.7598,
      "duration": 0.065,
      "velocity": 104,
      "chip": "ym2612"
    },
    {
      "channel": 3,
      "note": 70,
      "start": 28.8247,
      "duration": 0.0831,
      "velocity": 104,
      "chip": "ym2612"
    },
    {
      "channel": 4,
      "note": 73,
      "start": 28.8255,
      "duration": 0.083,
      "velocity": 104,
      "chip": "ym2612"
    },
    {
      "channel": 3,
      "note": 68,
      "start": 28.9084,
      "duration": 0.0673,
      "velocity": 104,
      "chip": "ym2612"
    },
    {
      "channel": 4,
      "note": 71,
      "start": 28.9091,
      "duration": 0.0673,
      "velocity": 104,
      "chip": "ym2612"
    },
    {
      "channel": 0,
      "note": 54,
      "start": 28.9741,
      "duration": 0.062,
      "velocity": 91,
      "chip": "ym2612"
    },
    {
      "channel": 1,
      "note": 87,
      "start": 28.9749,
      "duration": 0.0619,
      "velocity": 97,
      "chip": "ym2612"
    },
    {
      "channel": 2,
      "note": 83,
      "start": 28.9755,
      "duration": 0.062,
      "velocity": 103,
      "chip": "ym2612"
    },
    {
      "channel": 3,
      "note": 66,
      "start": 28.9763,
      "duration": 0.062,
      "velocity": 104,
      "chip": "ym2612"
    },
    {
      "channel": 4,
      "note": 70,
      "start": 28.977,
      "duration": 0.0619,
      "velocity": 104,
      "chip": "ym2612"
    },
    {
      "channel": 0,
      "note": 52,
      "start": 29.0367,
      "duration": 0.0986,
      "velocity": 91,
      "chip": "ym2612"
    },
    {
      "channel": 1,
      "note": 85,
      "start": 29.0374,
      "duration": 0.4398,
      "velocity": 97,
      "chip": "ym2612"
    },
    {
      "channel": 2,
      "note": 78,
      "start": 29.0381,
      "duration": 0.4398,
      "velocity": 103,
      "chip": "ym2612"
    },
    {
      "channel": 3,
      "note": 66,
      "start": 29.0387,
      "duration": 0.0293,
      "velocity": 104,
      "chip": "ym2612"
    },
    {
      "channel": 4,
      "note": 70,
      "start": 29.0393,
      "duration": 0.0294,
      "velocity": 104,
      "chip": "ym2612"
    },
    {
      "channel": 3,
      "note": 68,
      "start": 29.0686,
      "duration": 0.0427,
      "velocity": 104,
      "chip": "ym2612"
    },
    {
      "channel": 4,
      "note": 71,
      "start": 29.0693,
      "duration": 0.0427,
      "velocity": 104,
      "chip": "ym2612"
    },
    {
      "channel": 3,
      "note": 66,
      "start": 29.1119,
      "duration": 0.0256,
      "velocity": 104,
      "chip": "ym2612"
    },
    {
      "channel": 4,
      "note": 70,
      "start": 29.1127,
      "duration": 0.0256,
      "velocity": 104,
      "chip": "ym2612"
    },
    {
      "channel": 0,
      "note": 50,
      "start": 29.1359,
      "duration": 0.2407,
      "velocity": 91,
      "chip": "ym2612"
    },
    {
      "channel": 3,
      "note": 62,
      "start": 29.1381,
      "duration": 0.0282,
      "velocity": 104,
      "chip": "ym2612"
    },
    {
      "channel": 4,
      "note": 66,
      "start": 29.1389,
      "duration": 0.0282,
      "velocity": 104,
      "chip": "ym2612"
    },
    {
      "channel": 3,
      "note": 66,
      "start": 29.1669,
      "duration": 0.0943,
      "velocity": 104,
      "chip": "ym2612"
    },
    {
      "channel": 4,
      "note": 69,
      "start": 29.1676,
      "duration": 0.0943,
      "velocity": 104,
      "chip": "ym2612"
    },
    {
      "channel": 3,
      "note": 69,
      "start": 29.2617,
      "duration": 0.1165,
      "velocity": 104,
      "chip": "ym2612"
    },
    {
      "channel": 4,
      "note": 74,
      "start": 29.2625,
      "duration": 0.1164,
      "velocity": 104,
      "chip": "ym2612"
    },
    {
      "channel": 0,
      "note": 62,
      "start": 29.3773,
      "duration": 0.0996,
      "velocity": 91,
      "chip": "ym2612"
    },
    {
      "channel": 3,
      "note": 66,
      "start": 29.3788,
      "duration": 0.0999,
      "velocity": 104,
      "chip": "ym2612"
    },
    {
      "channel": 4,
      "note": 69,
      "start": 29.3796,
      "duration": 0.0993,
      "velocity": 104,
      "chip": "ym2612"
    },
    {
      "channel": 1,
      "note": 85,
      "start": 29.4778,
      "duration": 0.1219,
      "velocity": 97,
      "chip": "ym2612"
    },
    {
      "channel": 2,
      "note": 81,
      "start": 29.4785,
      "duration": 0.1218,
      "velocity": 103,
      "chip": "ym2612"
    },
    {
      "channel": 0,
      "note": 50,
      "start": 29.5051,
      "duration": 0.0284,
      "velocity": 91,
      "chip": "ym2612"
    },
    {
      "channel": 3,
      "note": 69,
      "start": 29.5067,
      "duration": 0.0283,
      "velocity": 104,
      "chip": "ym2612"
    },
    {
      "channel": 4,
      "note": 74,
      "start": 29.5075,
      "duration": 0.0283,
      "velocity": 104,
      "chip": "ym2612"
    },
    {
      "channel": 0,
      "note": 49,
      "start": 29.5341,
      "duration": 0.0649,
      "velocity": 91,
      "chip": "ym2612"
    },
    {
      "channel": 3,
      "note": 74,
      "start": 29.5356,
      "duration": 0.0656,
      "velocity": 104,
      "chip": "ym2612"
    },
    {
      "channel": 4,
      "note": 78,
      "start": 29.5363,
      "duration": 0.0655,
      "velocity": 104,
      "chip": "ym2612"
    },
    {
      "channel": 0,
      "note": 50,
      "start": 29.5995,
      "duration": 0.1411,
      "velocity": 91,
      "chip": "ym2612"
    },
    {
      "channel": 1,
      "note": 86,
      "start": 29.6003,
      "duration": 0.141,
      "velocity": 97,
      "chip": "ym2612"
    },
    {
      "channel": 2,
      "note": 81,
      "start": 29.601,
      "duration": 0.141,
      "velocity": 103,
      "chip": "ym2612"
    },
    {
      "channel": 3,
      "note": 78,
      "start": 29.6017,
      "duration": 0.0268,
      "velocity": 104,
      "chip": "ym2612"
    },
    {
      "channel": 4,
      "note": 81,
      "start": 29.6025,
      "duration": 0.0263,
      "velocity": 104,
      "chip": "ym2612"
    },
    {
      "channel": 0,
      "note": 52,
      "start": 29.7412,
      "duration": 0.1997,
      "velocity": 91,
      "chip": "ym2612"
    },
    {
      "channel": 1,
      "note": 90,
      "start": 29.7419,
      "duration": 0.1997,
      "velocity": 97,
      "chip": "ym2612"
    },
    {
      "channel": 2,
      "note": 86,
      "start": 29.7427,
      "duration": 0.1992,
      "velocity": 103,
      "chip": "ym2612"
    },
    {
      "channel": 0,
      "note": 50,
      "start": 29.9414,
      "duration": 0.0474,
      "velocity": 91,
      "chip": "ym2612"
    },
    {
      "channel": 0,
      "note": 53,
      "start": 29.9894,
      "duration": 0.267,
      "velocity": 91,
      "chip": "ym2612"
    },
    {
      "channel": 1,
      "note": 93,
      "start": 29.9902,
      "duration": 0.2671,
      "velocity": 97,
      "chip": "ym2612"
    },
    {
      "channel": 2,
      "note": 89,
      "start": 29.991,
      "duration": 0.267,
      "velocity": 103,
      "chip": "ym2612"
    },
    {
      "channel": 3,
      "note": 77,
      "start": 29.9917,
      "duration": 0.2671,
      "velocity": 104,
      "chip": "ym2612"
    },
    {
      "channel": 4,
      "note": 81,
      "start": 29.9924,
      "duration": 0.2671,
      "velocity": 104,
      "chip": "ym2612"
    },
    {
      "channel": 0,
      "note": 53,
      "start": 30.257,
      "duration": 0.2163,
      "velocity": 91,
      "chip": "ym2612"
    },
    {
      "channel": 1,
      "note": 93,
      "start": 30.2578,
      "duration": 0.2162,
      "velocity": 97,
      "chip": "ym2612"
    },
    {
      "channel": 2,
      "note": 89,
      "start": 30.2586,
      "duration": 0.2162,
      "velocity": 103,
      "chip": "ym2612"
    },
    {
      "channel": 3,
      "note": 77,
      "start": 30.2593,
      "duration": 0.2163,
      "velocity": 104,
      "chip": "ym2612"
    },
    {
      "channel": 4,
      "note": 81,
      "start": 30.2601,
      "duration": 0.2162,
      "velocity": 104,
      "chip": "ym2612"
    },
    {
      "channel": 0,
      "note": 55,
      "start": 30.4739,
      "duration": 0.0582,
      "velocity": 91,
      "chip": "ym2612"
    },
    {
      "channel": 1,
      "note": 93,
      "start": 30.4747,
      "duration": 0.0581,
      "velocity": 97,
      "chip": "ym2612"
    },
    {
      "channel": 2,
      "note": 89,
      "start": 30.4754,
      "duration": 0.0582,
      "velocity": 103,
      "chip": "ym2612"
    },
    {
      "channel": 3,
      "note": 74,
      "start": 30.4762,
      "duration": 0.0582,
      "velocity": 104,
      "chip": "ym2612"
    },
    {
      "channel": 4,
      "note": 77,
      "start": 30.4769,
      "duration": 0.0581,
      "velocity": 104,
      "chip": "ym2612"
    },
    {
      "channel": 0,
      "note": 55,
      "start": 30.5327,
      "duration": 0.065,
      "velocity": 91,
      "chip": "ym2612"
    },
    {
      "channel": 1,
      "note": 93,
      "start": 30.5335,
      "duration": 0.0649,
      "velocity": 97,
      "chip": "ym2612"
    },
    {
      "channel": 2,
      "note": 89,
      "start": 30.5342,
      "duration": 0.0649,
      "velocity": 103,
      "chip": "ym2612"
    },
    {
      "channel": 3,
      "note": 74,
      "start": 30.5349,
      "duration": 0.0649,
      "velocity": 104,
      "chip": "ym2612"
    },
    {
      "channel": 4,
      "note": 77,
      "start": 30.5357,
      "duration": 0.0649,
      "velocity": 104,
      "chip": "ym2612"
    },
    {
      "channel": 0,
      "note": 57,
      "start": 30.5983,
      "duration": 0.1407,
      "velocity": 91,
      "chip": "ym2612"
    },
    {
      "channel": 1,
      "note": 91,
      "start": 30.599,
      "duration": 0.1407,
      "velocity": 97,
      "chip": "ym2612"
    },
    {
      "channel": 2,
      "note": 86,
      "start": 30.5997,
      "duration": 0.1408,
      "velocity": 103,
      "chip": "ym2612"
    },
    {
      "channel": 3,
      "note": 69,
      "start": 30.6005,
      "duration": 0.1407,
      "velocity": 104,
      "chip": "ym2612"
    },
    {
      "channel": 4,
      "note": 74,
      "start": 30.6012,
      "duration": 0.1408,
      "velocity": 104,
      "chip": "ym2612"
    },
    {
      "channel": 0,
      "note": 55,
      "start": 30.7396,
      "duration": 0.2163,
      "velocity": 91,
      "chip": "ym2612"
    },
    {
      "channel": 1,
      "note": 89,
      "start": 30.7403,
      "duration": 0.2163,
      "velocity": 97,
      "chip": "ym2612"
    },
    {
      "channel": 2,
      "note": 86,
      "start": 30.741,
      "duration": 0.216,
      "velocity": 103,
      "chip": "ym2612"
    },
    {
      "channel": 3,
      "note": 69,
      "start": 30.7418,
      "duration": 0.2155,
      "velocity": 104,
      "chip": "ym2612"
    },
    {
      "channel": 4,
      "note": 74,
      "start": 30.7425,
      "duration": 0.2155,
      "velocity": 104,
      "chip": "ym2612"
    },
    {
      "channel": 0,
      "note": 53,
      "start": 30.9565,
      "duration": 0.0558,
      "velocity": 91,
      "chip": "ym2612"
    },
    {
      "channel": 3,
      "note": 65,
      "start": 30.9579,
      "duration": 0.158,
      "velocity": 104,
      "chip": "ym2612"
    },
    {
      "channel": 4,
      "note": 69,
      "start": 30.9587,
      "duration": 0.158,
      "velocity": 104,
      "chip": "ym2612"
    },
    {
      "channel": 0,
      "note": 52,
      "start": 31.0129,
      "duration": 0.3588,
      "velocity": 91,
      "chip": "ym2612"
    },
    {
      "channel": 1,
      "note": 88,
      "start": 31.0136,
      "duration": 1.9278,
      "velocity": 102,
      "chip": "ym2612"
    },
    {
      "channel": 2,
      "note": 83,
      "start": 31.0144,
      "duration": 1.9273,
      "velocity": 103,
      "chip": "ym2612"
    },
    {
      "channel": 3,
      "note": 64,
      "start": 31.1165,
      "duration": 0.0396,
      "velocity": 104,
      "chip": "ym2612"
    },
    {
      "channel": 4,
      "note": 68,
      "start": 31.1173,
      "duration": 0.0395,
      "velocity": 104,
      "chip": "ym2612"
    },
    {
      "channel": 3,
      "note": 68,
      "start": 31.1567,
      "duration": 0.0996,
      "velocity": 104,
      "chip": "ym2612"
    },
    {
      "channel": 4,
      "note": 71,
      "start": 31.1574,
      "duration": 0.0995,
      "velocity": 104,
      "chip": "ym2612"
    },
    {
      "channel": 3,
      "note": 71,
      "start": 31.2568,
      "duration": 0.1163,
      "velocity": 104,
      "chip": "ym2612"
    },
    {
      "channel": 4,
      "note": 76,
      "start": 31.2576,
      "duration": 0.1163,
      "velocity": 104,
      "chip": "ym2612"
    },
    {
      "channel": 0,
      "note": 52,
      "start": 31.3721,
      "duration": 0.0998,
      "velocity": 91,
      "chip": "ym2612"
    },
    {
      "channel": 3,
      "note": 76,
      "start": 31.3737,
      "duration": 0.0993,
      "velocity": 104,
      "chip": "ym2612"
    },
    {
      "channel": 4,
      "note": 80,
      "start": 31.3745,
      "duration": 0.0988,
      "velocity": 104,
      "chip": "ym2612"
    },
    {
      "channel": 0,
      "note": 52,
      "start": 31.497,
      "duration": 0.033,
      "velocity": 91,
      "chip": "ym2612"
    },
    {
      "channel": 3,
      "note": 74,
      "start": 31.4985,
      "duration": 0.0629,
      "velocity": 104,
      "chip": "ym2612"
    },
    {
      "channel": 4,
      "note": 78,
      "start": 31.4993,
      "duration": 0.0629,
      "velocity": 104,
      "chip": "ym2612"
    },
    {
      "channel": 0,
      "note": 54,
      "start": 31.5305,
      "duration": 0.0294,
      "velocity": 91,
      "chip": "ym2612"
    },
    {
      "channel": 0,
      "note": 52,
      "start": 31.5605,
      "duration": 0.0345,
      "velocity": 91,
      "chip": "ym2612"
    },
    {
      "channel": 3,
      "note": 73,
      "start": 31.562,
      "duration": 0.0345,
      "velocity": 104,
      "chip": "ym2612"
    },
    {
      "channel": 4,
      "note": 76,
      "start": 31.5628,
      "duration": 0.0345,
      "velocity": 104,
      "chip": "ym2612"
    },
    {
      "channel": 0,
      "note": 56,
      "start": 31.5956,
      "duration": 0.1246,
      "velocity": 91,
      "chip": "ym2612"
    },
    {
      "channel": 3,
      "note": 71,
      "start": 31.5971,
      "duration": 0.1245,
      "velocity": 104,
      "chip": "ym2612"
    },
    {
      "channel": 4,
      "note": 74,
      "start": 31.5979,
      "duration": 0.1245,
      "velocity": 104,
      "chip": "ym2612"
    },
    {
      "channel": 0,
      "note": 54,
      "start": 31.7207,
      "duration": 0.0631,
      "velocity": 91,
      "chip": "ym2612"
    },
    {
      "channel": 3,
      "note": 69,
      "start": 31.7222,
      "duration": 0.0631,
      "velocity": 104,
      "chip": "ym2612"
    },
    {
      "channel": 4,
      "note": 73,
      "start": 31.7229,
      "duration": 0.0631,
      "velocity": 104,
      "chip": "ym2612"
    },
    {
      "channel": 0,
      "note": 53,
      "start": 31.7844,
      "duration": 0.0619,
      "velocity": 91,
      "chip": "ym2612"
    },
    {
      "channel": 3,
      "note": 68,
      "start": 31.7859,
      "duration": 0.033,
      "velocity": 104,
      "chip": "ym2612"
    },
    {
      "channel": 4,
      "note": 71,
      "start": 31.7866,
      "duration": 0.0329,
      "velocity": 104,
      "chip": "ym2612"
    },
    {
      "channel": 3,
      "note": 66,
      "start": 31.8194,
      "duration": 0.0285,
      "velocity": 104,
      "chip": "ym2612"
    },
    {
      "channel": 4,
      "note": 69,
      "start": 31.8201,
      "duration": 0.0285,
      "velocity": 104,
      "chip": "ym2612"
    },
    {
      "channel": 0,
      "note": 52,
      "start": 31.8469,
      "duration": 0.3581,
      "velocity": 91,
      "chip": "ym2612"
    },
    {
      "channel": 3,
      "note": 64,
      "start": 31.8484,
      "duration": 0.2409,
      "velocity": 104,
      "chip": "ym2612"
    },
    {
      "channel": 4,
      "note": 68,
      "start": 31.8492,
      "duration": 0.2408,
      "velocity": 104,
      "chip": "ym2612"
    },
    {
      "channel": 3,
      "note": 66,
      "start": 32.0898,
      "duration": 0.1166,
      "velocity": 104,
      "chip": "ym2612"
    },
    {
      "channel": 4,
      "note": 69,
      "start": 32.0905,
      "duration": 0.1167,
      "velocity": 104,
      "chip": "ym2612"
    },
    {
      "channel": 0,
      "note": 52,
      "start": 32.2056,
      "duration": 0.1247,
      "velocity": 91,
      "chip": "ym2612"
    },
    {
      "channel": 3,
      "note": 68,
      "start": 32.207,
      "duration": 0.0279,
      "velocity": 104,
      "chip": "ym2612"
    },
    {
      "channel": 4,
      "note": 71,
      "start": 32.2078,
      "duration": 0.0279,
      "velocity": 104,
      "chip": "ym2612"
    },
    {
      "channel": 3,
      "note": 69,
      "start": 32.2355,
      "duration": 0.0962,
      "velocity": 104,
      "chip": "ym2612"
    },
    {
      "channel": 4,
      "note": 73,
      "start": 32.2362,
      "duration": 0.0962,
      "velocity": 104,
      "chip": "ym2612"
    },
    {
      "channel": 0,
      "note": 54,
      "start": 32.3308,
      "duration": 0.0617,
      "velocity": 91,
      "chip": "ym2612"
    },
    {
      "channel": 3,
      "note": 66,
      "start": 32.3323,
      "duration": 0.0328,
      "velocity": 104,
      "chip": "ym2612"
    },
    {
      "channel": 4,
      "note": 69,
      "start": 32.333,
      "duration": 0.0328,
      "velocity": 104,
      "chip": "ym2612"
    },
    {
      "channel": 3,
      "note": 68,
      "start": 32.3657,
      "duration": 0.0283,
      "velocity": 104,
      "chip": "ym2612"
    },
    {
      "channel": 4,
      "note": 71,
      "start": 32.3664,
      "duration": 0.0283,
      "velocity": 104,
      "chip": "ym2612"
    },
    {
      "channel": 0,
      "note": 52,
      "start": 32.3931,
      "duration": 0.0645,
      "velocity": 91,
      "chip": "ym2612"
    },
    {
      "channel": 3,
      "note": 69,
      "start": 32.3946,
      "duration": 0.0342,
      "velocity": 104,
      "chip": "ym2612"
    },
    {
      "channel": 4,
      "note": 73,
      "start": 32.3954,
      "duration": 0.0342,
      "velocity": 104,
      "chip": "ym2612"
    },
    {
      "channel": 3,
      "note": 71,
      "start": 32.4293,
      "duration": 0.0297,
      "velocity": 104,
      "chip": "ym2612"
    },
    {
      "channel": 4,
      "note": 74,
      "start": 32.4301,
      "duration": 0.0297,
      "velocity": 104,
      "chip": "ym2612"
    },
    {
      "channel": 0,
      "note": 56,
      "start": 32.4581,
      "duration": 0.141,
      "velocity": 91,
      "chip": "ym2612"
    },
    {
      "channel": 3,
      "note": 68,
      "start": 32.4596,
      "duration": 0.0278,
      "velocity": 104,
      "chip": "ym2612"
    },
    {
      "channel": 4,
      "note": 71,
      "start": 32.4603,
      "duration": 0.0278,
      "velocity": 104,
      "chip": "ym2612"
    },
    {
      "channel": 3,
      "note": 69,
      "start": 32.488,
      "duration": 0.1127,
      "velocity": 104,
      "chip": "ym2612"
    },
    {
      "channel": 4,
      "note": 73,
      "start": 32.4887,
      "duration": 0.1127,
      "velocity": 104,
      "chip": "ym2612"
    },
    {
      "channel": 0,
      "note": 52,
      "start": 32.5997,
      "duration": 0.2163,
      "velocity": 91,
      "chip": "ym2612"
    },
    {
      "channel": 3,
      "note": 71,
      "start": 32.6012,
      "duration": 0.0991,
      "velocity": 104,
      "chip": "ym2612"
    },
    {
      "channel": 4,
      "note": 74,
      "start": 32.602,
      "duration": 0.099,
      "velocity": 104,
      "chip": "ym2612"
    },
    {
      "channel": 3,
      "note": 73,
      "start": 32.7009,
      "duration": 0.1167,
      "velocity": 104,
      "chip": "ym2612"
    },
    {
      "channel": 4,
      "note": 76,
      "start": 32.7017,
      "duration": 0.1167,
      "velocity": 104,
      "chip": "ym2612"
    },
    {
      "channel": 0,
      "note": 56,
      "start": 32.8166,
      "duration": 0.0581,
      "velocity": 91,
      "chip": "ym2612"
    },
    {
      "channel": 3,
      "note": 69,
      "start": 32.8181,
      "duration": 0.0278,
      "velocity": 104,
      "chip": "ym2612"
    },
    {
      "channel": 4,
      "note": 78,
      "start": 32.8189,
      "duration": 0.0278,
      "velocity": 104,
      "chip": "ym2612"
    },
    {
      "channel": 3,
      "note": 71,
      "start": 32.8465,
      "duration": 0.0298,
      "velocity": 104,
      "chip": "ym2612"
    },
    {
      "channel": 4,
      "note": 80,
      "start": 32.8473,
      "duration": 0.0298,
      "velocity": 104,
      "chip": "ym2612"
    },
    {
      "channel": 0,
      "note": 59,
      "start": 32.8753,
      "duration": 0.0629,
      "velocity": 91,
      "chip": "ym2612"
    },
    {
      "channel": 3,
      "note": 73,
      "start": 32.8768,
      "duration": 0.0334,
      "velocity": 104,
      "chip": "ym2612"
    },
    {
      "channel": 4,
      "note": 81,
      "start": 32.8776,
      "duration": 0.0334,
      "velocity": 104,
      "chip": "ym2612"
    },
    {
      "channel": 3,
      "note": 74,
      "start": 32.9108,
      "duration": 0.0313,
      "velocity": 104,
      "chip": "ym2612"
    },
    {
      "channel": 4,
      "note": 83,
      "start": 32.9115,
      "duration": 0.0314,
      "velocity": 104,
      "chip": "ym2612"
    },
    {
      "channel": 0,
      "note": 57,
      "start": 32.9387,
      "duration": 0.3073,
      "velocity": 91,
      "chip": "ym2612"
    },
    {
      "channel": 3,
      "note": 73,
      "start": 32.9427,
      "duration": 0.0373,
      "velocity": 104,
      "chip": "ym2612"
    },
    {
      "channel": 4,
      "note": 69,
      "start": 32.9435,
      "duration": 0.0368,
      "velocity": 104,
      "chip": "ym2612"
    },
    {
      "channel": 1,
      "note": 88,
      "start": 33.0804,
      "duration": 0.2166,
      "velocity": 102,
      "chip": "ym2612"
    },
    {
      "channel": 2,
      "note": 85,
      "start": 33.0812,
      "duration": 0.2166,
      "velocity": 103,
      "chip": "ym2612"
    },
    {
      "channel": 3,
      "note": 73,
      "start": 33.1812,
      "duration": 0.1174,
      "velocity": 104,
      "chip": "ym2612"
    },
    {
      "channel": 4,
      "note": 69,
      "start": 33.182,
      "duration": 0.1169,
      "velocity": 104,
      "chip": "ym2612"
    },
    {
      "channel": 0,
      "note": 57,
      "start": 33.2969,
      "duration": 0.0704,
      "velocity": 91,
      "chip": "ym2612"
    },
    {
      "channel": 1,
      "note": 85,
      "start": 33.2977,
      "duration": 0.0243,
      "velocity": 102,
      "chip": "ym2612"
    },
    {
      "channel": 2,
      "note": 81,
      "start": 33.2984,
      "duration": 0.0238,
      "velocity": 103,
      "chip": "ym2612"
    },
    {
      "channel": 1,
      "note": 86,
      "start": 33.3483,
      "duration": 0.0296,
      "velocity": 102,
      "chip": "ym2612"
    },
    {
      "channel": 2,
      "note": 81,
      "start": 33.349,
      "duration": 0.0293,
      "velocity": 103,
      "chip": "ym2612"
    },
    {
      "channel": 3,
      "note": 73,
      "start": 33.3498,
      "duration": 0.0288,
      "velocity": 104,
      "chip": "ym2612"
    },
    {
      "channel": 4,
      "note": 69,
      "start": 33.3505,
      "duration": 0.0284,
      "velocity": 104,
      "chip": "ym2612"
    },
    {
      "channel": 0,
      "note": 52,
      "start": 33.3778,
      "duration": 0.0397,
      "velocity": 91,
      "chip": "ym2612"
    },
    {
      "channel": 1,
      "note": 88,
      "start": 33.4013,
      "duration": 0.0413,
      "velocity": 102,
      "chip": "ym2612"
    },
    {
      "channel": 2,
      "note": 85,
      "start": 33.402,
      "duration": 0.0413,
      "velocity": 103,
      "chip": "ym2612"
    },
    {
      "channel": 0,
      "note": 54,
      "start": 33.4424,
      "duration": 0.2161,
      "velocity": 91,
      "chip": "ym2612"
    },
    {
      "channel": 1,
      "note": 93,
      "start": 33.4432,
      "duration": 0.2159,
      "velocity": 102,
      "chip": "ym2612"
    },
    {
      "channel": 2,
      "note": 88,
      "start": 33.4439,
      "duration": 0.2157,
      "velocity": 103,
      "chip": "ym2612"
    },
    {
      "channel": 0,
      "note": 54,
      "start": 33.659,
      "duration": 0.0998,
      "velocity": 91,
      "chip": "ym2612"
    },
    {
      "channel": 1,
      "note": 93,
      "start": 33.6595,
      "duration": 0.1,
      "velocity": 102,
      "chip": "ym2612"
    },
    {
      "channel": 2,
      "note": 88,
      "start": 33.6601,
      "duration": 0.1001,
      "velocity": 103,
      "chip": "ym2612"
    },
    {
      "channel": 0,
      "note": 52,
      "start": 33.7593,
      "duration": 0.0391,
      "velocity": 91,
      "chip": "ym2612"
    },
    {
      "channel": 1,
      "note": 90,
      "start": 33.7601,
      "duration": 0.0238,
      "velocity": 102,
      "chip": "ym2612"
    },
    {
      "channel": 2,
      "note": 85,
      "start": 33.7608,
      "duration": 0.0235,
      "velocity": 103,
      "chip": "ym2612"
    },
    {
      "channel": 0,
      "note": 54,
      "start": 33.8089,
      "duration": 0.0885,
      "velocity": 91,
      "chip": "ym2612"
    },
    {
      "channel": 1,
      "note": 88,
      "start": 33.8096,
      "duration": 0.0768,
      "velocity": 102,
      "chip": "ym2612"
    },
    {
      "channel": 2,
      "note": 85,
      "start": 33.8104,
      "duration": 0.0763,
      "velocity": 103,
      "chip": "ym2612"
    },
    {
      "channel": 0,
      "note": 57,
      "start": 33.912,
      "duration": 0.2907,
      "velocity": 91,
      "chip": "ym2612"
    },
    {
      "channel": 1,
      "note": 90,
      "start": 33.9128,
      "duration": 0.2403,
      "velocity": 102,
      "chip": "ym2612"
    },
    {
      "channel": 2,
      "note": 85,
      "start": 33.9135,
      "duration": 0.2404,
      "velocity": 103,
      "chip": "ym2612"
    },
    {
      "channel": 3,
      "note": 73,
      "start": 33.9142,
      "duration": 0.0272,
      "velocity": 104,
      "chip": "ym2612"
    },
    {
      "channel": 4,
      "note": 69,
      "start": 33.915,
      "duration": 0.0267,
      "velocity": 104,
      "chip": "ym2612"
    },
    {
      "channel": 1,
      "note": 88,
      "start": 34.1538,
      "duration": 0.1562,
      "velocity": 102,
      "chip": "ym2612"
    },
    {
      "channel": 2,
      "note": 85,
      "start": 34.1545,
      "duration": 0.1562,
      "velocity": 103,
      "chip": "ym2612"
    },
    {
      "channel": 3,
      "note": 73,
      "start": 34.1552,
      "duration": 0.0993,
      "velocity": 104,
      "chip": "ym2612"
    },
    {
      "channel": 4,
      "note": 69,
      "start": 34.1559,
      "duration": 0.0989,
      "velocity": 104,
      "chip": "ym2612"
    },
    {
      "channel": 0,
      "note": 57,
      "start": 34.2536,
      "duration": 0.0761,
      "velocity": 91,
      "chip": "ym2612"
    },
    {
      "channel": 1,
      "note": 85,
      "start": 34.3105,
      "duration": 0.086,
      "velocity": 102,
      "chip": "ym2612"
    },
    {
      "channel": 2,
      "note": 81,
      "start": 34.3112,
      "duration": 0.086,
      "velocity": 103,
      "chip": "ym2612"
    },
    {
      "channel": 3,
      "note": 73,
      "start": 34.312,
      "duration": 0.029,
      "velocity": 104,
      "chip": "ym2612"
    },
    {
      "channel": 4,
      "note": 69,
      "start": 34.3127,
      "duration": 0.0286,
      "velocity": 104,
      "chip": "ym2612"
    },
    {
      "channel": 0,
      "note": 61,
      "start": 34.3401,
      "duration": 0.0438,
      "velocity": 91,
      "chip": "ym2612"
    },
    {
      "channel": 0,
      "note": 62,
      "start": 34.3964,
      "duration": 0.2159,
      "velocity": 91,
      "chip": "ym2612"
    },
    {
      "channel": 1,
      "note": 83,
      "start": 34.3971,
      "duration": 0.3161,
      "velocity": 102,
      "chip": "ym2612"
    },
    {
      "channel": 2,
      "note": 76,
      "start": 34.3978,
      "duration": 0.3161,
      "velocity": 103,
      "chip": "ym2612"
    },
    {
      "channel": 3,
      "note": 73,
      "start": 34.5141,
      "duration": 0.0997,
      "velocity": 104,
      "chip": "ym2612"
    },
    {
      "channel": 4,
      "note": 69,
      "start": 34.5148,
      "duration": 0.0993,
      "velocity": 104,
      "chip": "ym2612"
    },
    {
      "channel": 0,
      "note": 63,
      "start": 34.6129,
      "duration": 0.0996,
      "velocity": 91,
      "chip": "ym2612"
    },
    {
      "channel": 0,
      "note": 64,
      "start": 34.7131,
      "duration": 0.0324,
      "velocity": 91,
      "chip": "ym2612"
    },
    {
      "channel": 1,
      "note": 81,
      "start": 34.7138,
      "duration": 0.061,
      "velocity": 102,
      "chip": "ym2612"
    },
    {
      "channel": 2,
      "note": 76,
      "start": 34.7145,
      "duration": 0.0611,
      "velocity": 103,
      "chip": "ym2612"
    },
    {
      "channel": 3,
      "note": 73,
      "start": 34.7153,
      "duration": 0.0318,
      "velocity": 104,
      "chip": "ym2612"
    },
    {
      "channel": 4,
      "note": 69,
      "start": 34.7161,
      "duration": 0.0318,
      "velocity": 104,
      "chip": "ym2612"
    },
    {
      "channel": 0,
      "note": 57,
      "start": 34.7461,
      "duration": 0.028,
      "velocity": 91,
      "chip": "ym2612"
    },
    {
      "channel": 3,
      "note": 73,
      "start": 34.7476,
      "duration": 0.1413,
      "velocity": 104,
      "chip": "ym2612"
    },
    {
      "channel": 4,
      "note": 69,
      "start": 34.7484,
      "duration": 0.1412,
      "velocity": 104,
      "chip": "ym2612"
    },
    {
      "channel": 0,
      "note": 58,
      "start": 34.7747,
      "duration": 0.1119,
      "velocity": 91,
      "chip": "ym2612"
    },
    {
      "channel": 1,
      "note": 85,
      "start": 34.7754,
      "duration": 0.112,
      "velocity": 102,
      "chip": "ym2612"
    },
    {
      "channel": 2,
      "note": 81,
      "start": 34.7762,
      "duration": 0.112,
      "velocity": 103,
      "chip": "ym2612"
    },
    {
      "channel": 0,
      "note": 59,
      "start": 34.8872,
      "duration": 0.2906,
      "velocity": 91,
      "chip": "ym2612"
    },
    {
      "channel": 1,
      "note": 83,
      "start": 34.888,
      "duration": 0.4088,
      "velocity": 102,
      "chip": "ym2612"
    },
    {
      "channel": 2,
      "note": 78,
      "start": 34.8888,
      "duration": 0.4088,
      "velocity": 103,
      "chip": "ym2612"
    },
    {
      "channel": 3,
      "note": 75,
      "start": 34.8895,
      "duration": 0.0269,
      "velocity": 104,
      "chip": "ym2612"
    },
    {
      "channel": 4,
      "note": 71,
      "start": 34.8902,
      "duration": 0.0265,
      "velocity": 104,
      "chip": "ym2612"
    },
    {
      "channel": 3,
      "note": 75,
      "start": 35.1296,
      "duration": 0.1167,
      "velocity": 104,
      "chip": "ym2612"
    },
    {
      "channel": 4,
      "note": 71,
      "start": 35.1304,
      "duration": 0.1162,
      "velocity": 104,
      "chip": "ym2612"
    },
    {
      "channel": 0,
      "note": 59,
      "start": 35.2453,
      "duration": 0.0756,
      "velocity": 91,
      "chip": "ym2612"
    },
    {
      "channel": 1,
      "note": 90,
      "start": 35.2974,
      "duration": 0.2021,
      "velocity": 102,
      "chip": "ym2612"
    },
    {
      "channel": 2,
      "note": 87,
      "start": 35.2982,
      "duration": 0.2021,
      "velocity": 103,
      "chip": "ym2612"
    },
    {
      "channel": 3,
      "note": 75,
      "start": 35.2989,
      "duration": 0.034,
      "velocity": 104,
      "chip": "ym2612"
    },
    {
      "channel": 4,
      "note": 71,
      "start": 35.2996,
      "duration": 0.0335,
      "velocity": 104,
      "chip": "ym2612"
    },
    {
      "channel": 0,
      "note": 54,
      "start": 35.3318,
      "duration": 0.0392,
      "velocity": 91,
      "chip": "ym2612"
    },
    {
      "channel": 0,
      "note": 54,
      "start": 35.3997,
      "duration": 0.1994,
      "velocity": 91,
      "chip": "ym2612"
    },
    {
      "channel": 1,
      "note": 89,
      "start": 35.5001,
      "duration": 0.2166,
      "velocity": 102,
      "chip": "ym2612"
    },
    {
      "channel": 2,
      "note": 83,
      "start": 35.5009,
      "duration": 0.2166,
      "velocity": 103,
      "chip": "ym2612"
    },
    {
      "channel": 0,
      "note": 54,
      "start": 35.5996,
      "duration": 0.1165,
      "velocity": 91,
      "chip": "ym2612"
    },
    {
      "channel": 0,
      "note": 56,
      "start": 35.7166,
      "duration": 0.0254,
      "velocity": 91,
      "chip": "ym2612"
    },
    {
      "channel": 1,
      "note": 88,
      "start": 35.7174,
      "duration": 0.0558,
      "velocity": 102,
      "chip": "ym2612"
    },
    {
      "channel": 2,
      "note": 83,
      "start": 35.7181,
      "duration": 0.0559,
      "velocity": 103,
      "chip": "ym2612"
    },
    {
      "channel": 0,
      "note": 54,
      "start": 35.7426,
      "duration": 0.0298,
      "velocity": 91,
      "chip": "ym2612"
    },
    {
      "channel": 0,
      "note": 56,
      "start": 35.773,
      "duration": 0.0978,
      "velocity": 91,
      "chip": "ym2612"
    },
    {
      "channel": 1,
      "note": 87,
      "start": 35.7737,
      "duration": 0.5754,
      "velocity": 102,
      "chip": "ym2612"
    },
    {
      "channel": 2,
      "note": 83,
      "start": 35.7745,
      "duration": 0.5753,
      "velocity": 103,
      "chip": "ym2612"
    },
    {
      "channel": 0,
      "note": 59,
      "start": 35.8713,
      "duration": 0.3074,
      "velocity": 91,
      "chip": "ym2612"
    },
    {
      "channel": 3,
      "note": 75,
      "start": 35.8737,
      "duration": 0.0396,
      "velocity": 104,
      "chip": "ym2612"
    },
    {
      "channel": 4,
      "note": 71,
      "start": 35.8744,
      "duration": 0.0393,
      "velocity": 104,
      "chip": "ym2612"
    },
    {
      "channel": 3,
      "note": 75,
      "start": 36.1305,
      "duration": 0.1,
      "velocity": 104,
      "chip": "ym2612"
    },
    {
      "channel": 4,
      "note": 71,
      "start": 36.1313,
      "duration": 0.0995,
      "velocity": 104,
      "chip": "ym2612"
    },
    {
      "channel": 0,
      "note": 59,
      "start": 36.2296,
      "duration": 0.0778,
      "velocity": 91,
      "chip": "ym2612"
    },
    {
      "channel": 3,
      "note": 75,
      "start": 36.2887,
      "duration": 0.0299,
      "velocity": 104,
      "chip": "ym2612"
    },
    {
      "channel": 4,
      "note": 71,
      "start": 36.2894,
      "duration": 0.0294,
      "velocity": 104,
      "chip": "ym2612"
    },
    {
      "channel": 0,
      "note": 63,
      "start": 36.3176,
      "duration": 0.0445,
      "velocity": 91,
      "chip": "ym2612"
    },
    {
      "channel": 1,
      "note": 83,
      "start": 36.3497,
      "duration": 0.3412,
      "velocity": 102,
      "chip": "ym2612"
    },
    {
      "channel": 2,
      "note": 78,
      "start": 36.3504,
      "duration": 0.3412,
      "velocity": 103,
      "chip": "ym2612"
    },
    {
      "channel": 0,
      "note": 63,
      "start": 36.3739,
      "duration": 0.216,
      "velocity": 91,
      "chip": "ym2612"
    },
    {
      "channel": 3,
      "note": 76,
      "start": 36.4751,
      "duration": 0.1163,
      "velocity": 104,
      "chip": "ym2612"
    },
    {
      "channel": 4,
      "note": 71,
      "start": 36.4759,
      "duration": 0.1159,
      "velocity": 104,
      "chip": "ym2612"
    },
    {
      "channel": 0,
      "note": 61,
      "start": 36.5906,
      "duration": 0.0996,
      "velocity": 91,
      "chip": "ym2612"
    },
    {
      "channel": 0,
      "note": 59,
      "start": 36.6908,
      "duration": 0.0326,
      "velocity": 91,
      "chip": "ym2612"
    },
    {
      "channel": 1,
      "note": 85,
      "start": 36.6915,
      "duration": 0.1626,
      "velocity": 102,
      "chip": "ym2612"
    },
    {
      "channel": 2,
      "note": 78,
      "start": 36.6922,
      "duration": 0.1626,
      "velocity": 103,
      "chip": "ym2612"
    },
    {
      "channel": 3,
      "note": 76,
      "start": 36.6929,
      "duration": 0.032,
      "velocity": 104,
      "chip": "ym2612"
    },
    {
      "channel": 4,
      "note": 71,
      "start": 36.6937,
      "duration": 0.032,
      "velocity": 104,
      "chip": "ym2612"
    },
    {
      "channel": 0,
      "note": 58,
      "start": 36.7239,
      "duration": 0.0281,
      "velocity": 91,
      "chip": "ym2612"
    },
    {
      "channel": 3,
      "note": 75,
      "start": 36.7255,
      "duration": 0.13,
      "velocity": 104,
      "chip": "ym2612"
    },
    {
      "channel": 4,
      "note": 71,
      "start": 36.7263,
      "duration": 0.13,
      "velocity": 104,
      "chip": "ym2612"
    },
    {
      "channel": 0,
      "note": 54,
      "start": 36.7527,
      "duration": 0.1007,
      "velocity": 91,
      "chip": "ym2612"
    },
    {
      "channel": 0,
      "note": 50,
      "start": 36.854,
      "duration": 0.2907,
      "velocity": 91,
      "chip": "ym2612"
    },
    {
      "channel": 1,
      "note": 86,
      "start": 36.8547,
      "duration": 0.1404,
      "velocity": 102,
      "chip": "ym2612"
    },
    {
      "channel": 2,
      "note": 81,
      "start": 36.8554,
      "duration": 0.1404,
      "velocity": 103,
      "chip": "ym2612"
    },
    {
      "channel": 3,
      "note": 74,
      "start": 36.8562,
      "duration": 0.0271,
      "velocity": 104,
      "chip": "ym2612"
    },
    {
      "channel": 4,
      "note": 69,
      "start": 36.8569,
      "duration": 0.0268,
      "velocity": 104,
      "chip": "ym2612"
    },
    {
      "channel": 1,
      "note": 85,
      "start": 36.9957,
      "duration": 0.2,
      "velocity": 102,
      "chip": "ym2612"
    },
    {
      "channel": 2,
      "note": 81,
      "start": 36.9965,
      "duration": 0.1999,
      "velocity": 103,
      "chip": "ym2612"
    },
    {
      "channel": 3,
      "note": 74,
      "start": 37.0965,
      "duration": 0.1006,
      "velocity": 104,
      "chip": "ym2612"
    },
    {
      "channel": 4,
      "note": 69,
      "start": 37.0972,
      "duration": 0.1002,
      "velocity": 104,
      "chip": "ym2612"
    },
    {
      "channel": 0,
      "note": 50,
      "start": 37.1955,
      "duration": 0.0749,
      "velocity": 91,
      "chip": "ym2612"
    },
    {
      "channel": 1,
      "note": 86,
      "start": 37.1963,
      "duration": 0.0545,
      "velocity": 102,
      "chip": "ym2612"
    },
    {
      "channel": 2,
      "note": 81,
      "start": 37.197,
      "duration": 0.0546,
      "velocity": 103,
      "chip": "ym2612"
    },
    {
      "channel": 1,
      "note": 93,
      "start": 37.2514,
      "duration": 0.573,
      "velocity": 102,
      "chip": "ym2612"
    },
    {
      "channel": 2,
      "note": 90,
      "start": 37.2521,
      "duration": 0.573,
      "velocity": 103,
      "chip": "ym2612"
    },
    {
      "channel": 3,
      "note": 74,
      "start": 37.2529,
      "duration": 0.0338,
      "velocity": 104,
      "chip": "ym2612"
    },
    {
      "channel": 4,
      "note": 69,
      "start": 37.2536,
      "duration": 0.0334,
      "velocity": 104,
      "chip": "ym2612"
    },
    {
      "channel": 0,
      "note": 57,
      "start": 37.2859,
      "duration": 0.0389,
      "velocity": 91,
      "chip": "ym2612"
    },
    {
      "channel": 0,
      "note": 62,
      "start": 37.3371,
      "duration": 0.116,
      "velocity": 91,
      "chip": "ym2612"
    },
    {
      "channel": 0,
      "note": 50,
      "start": 37.4537,
      "duration": 0.2163,
      "velocity": 91,
      "chip": "ym2612"
    },
    {
      "channel": 0,
      "note": 52,
      "start": 37.6707,
      "duration": 0.0375,
      "velocity": 91,
      "chip": "ym2612"
    },
    {
      "channel": 0,
      "note": 54,
      "start": 37.7206,
      "duration": 0.0898,
      "velocity": 91,
      "chip": "ym2612"
    },
    {
      "channel": 0,
      "note": 53,
      "start": 37.8242,
      "duration": 0.3073,
      "velocity": 91,
      "chip": "ym2612"
    },
    {
      "channel": 1,
      "note": 86,
      "start": 37.825,
      "duration": 0.1402,
      "velocity": 102,
      "chip": "ym2612"
    },
    {
      "channel": 2,
      "note": 81,
      "start": 37.8258,
      "duration": 0.1402,
      "velocity": 103,
      "chip": "ym2612"
    },
    {
      "channel": 3,
      "note": 74,
      "start": 37.8265,
      "duration": 0.0396,
      "velocity": 104,
      "chip": "ym2612"
    },
    {
      "channel": 4,
      "note": 69,
      "start": 37.8272,
      "duration": 0.0392,
      "velocity": 104,
      "chip": "ym2612"
    },
    {
      "channel": 1,
      "note": 85,
      "start": 37.9658,
      "duration": 0.2166,
      "velocity": 102,
      "chip": "ym2612"
    },
    {
      "channel": 2,
      "note": 81,
      "start": 37.9666,
      "duration": 0.2166,
      "velocity": 103,
      "chip": "ym2612"
    },
    {
      "channel": 3,
      "note": 76,
      "start": 38.0666,
      "duration": 0.1173,
      "velocity": 104,
      "chip": "ym2612"
    },
    {
      "channel": 4,
      "note": 69,
      "start": 38.0673,
      "duration": 0.1168,
      "velocity": 104,
      "chip": "ym2612"
    },
    {
      "channel": 0,
      "note": 53,
      "start": 38.1823,
      "duration": 0.075,
      "velocity": 91,
      "chip": "ym2612"
    },
    {
      "channel": 1,
      "note": 86,
      "start": 38.1831,
      "duration": 0.0545,
      "velocity": 102,
      "chip": "ym2612"
    },
    {
      "channel": 2,
      "note": 81,
      "start": 38.1837,
      "duration": 0.0546,
      "velocity": 103,
      "chip": "ym2612"
    },
    {
      "channel": 1,
      "note": 93,
      "start": 38.2382,
      "duration": 0.4146,
      "velocity": 102,
      "chip": "ym2612"
    },
    {
      "channel": 2,
      "note": 89,
      "start": 38.2389,
      "duration": 0.4146,
      "velocity": 103,
      "chip": "ym2612"
    },
    {
      "channel": 3,
      "note": 77,
      "start": 38.2396,
      "duration": 0.0288,
      "velocity": 104,
      "chip": "ym2612"
    },
    {
      "channel": 4,
      "note": 69,
      "start": 38.2404,
      "duration": 0.0284,
      "velocity": 104,
      "chip": "ym2612"
    },
    {
      "channel": 0,
      "note": 57,
      "start": 38.2676,
      "duration": 0.0434,
      "velocity": 91,
      "chip": "ym2612"
    },
    {
      "channel": 0,
      "note": 62,
      "start": 38.3357,
      "duration": 0.216,
      "velocity": 91,
      "chip": "ym2612"
    },
    {
      "channel": 3,
      "note": 76,
      "start": 38.4369,
      "duration": 0.1164,
      "velocity": 104,
      "chip": "ym2612"
    },
    {
      "channel": 4,
      "note": 69,
      "start": 38.4376,
      "duration": 0.116,
      "velocity": 104,
      "chip": "ym2612"
    },
    {
      "channel": 0,
      "note": 63,
      "start": 38.5524,
      "duration": 0.0996,
      "velocity": 91,
      "chip": "ym2612"
    },
    {
      "channel": 0,
      "note": 64,
      "start": 38.6526,
      "duration": 0.0278,
      "velocity": 91,
      "chip": "ym2612"
    },
    {
      "channel": 1,
      "note": 95,
      "start": 38.6534,
      "duration": 0.1627,
      "velocity": 102,
      "chip": "ym2612"
    },
    {
      "channel": 2,
      "note": 89,
      "start": 38.654,
      "duration": 0.1629,
      "velocity": 103,
      "chip": "ym2612"
    },
    {
      "channel": 3,
      "note": 74,
      "start": 38.6547,
      "duration": 0.0272,
      "velocity": 104,
      "chip": "ym2612"
    },
    {
      "channel": 4,
      "note": 69,
      "start": 38.6554,
      "duration": 0.0272,
      "velocity": 104,
      "chip": "ym2612"
    },
    {
      "channel": 0,
      "note": 57,
      "start": 38.681,
      "duration": 0.033,
      "velocity": 91,
      "chip": "ym2612"
    },
    {
      "channel": 3,
      "note": 71,
      "start": 38.6825,
      "duration": 0.1352,
      "velocity": 104,
      "chip": "ym2612"
    },
    {
      "channel": 4,
      "note": 69,
      "start": 38.6832,
      "duration": 0.1352,
      "velocity": 104,
      "chip": "ym2612"
    },
    {
      "channel": 0,
      "note": 58,
      "start": 38.7146,
      "duration": 0.1008,
      "velocity": 91,
      "chip": "ym2612"
    },
    {
      "channel": 0,
      "note": 57,
      "start": 38.816,
      "duration": 0.2906,
      "velocity": 91,
      "chip": "ym2612"
    },
    {
      "channel": 1,
      "note": 97,
      "start": 38.8168,
      "duration": 0.3971,
      "velocity": 102,
      "chip": "ym2612"
    },
    {
      "channel": 2,
      "note": 93,
      "start": 38.8175,
      "duration": 0.3971,
      "velocity": 103,
      "chip": "ym2612"
    },
    {
      "channel": 3,
      "note": 69,
      "start": 38.8183,
      "duration": 0.0271,
      "velocity": 104,
      "chip": "ym2612"
    },
    {
      "channel": 4,
      "note": 73,
      "start": 38.819,
      "duration": 0.0267,
      "velocity": 104,
      "chip": "ym2612"
    },
    {
      "channel": 3,
      "note": 69,
      "start": 39.0584,
      "duration": 0.1,
      "velocity": 104,
      "chip": "ym2612"
    },
    {
      "channel": 4,
      "note": 73,
      "start": 39.0592,
      "duration": 0.0995,
      "velocity": 104,
      "chip": "ym2612"
    },
    {
      "channel": 0,
      "note": 57,
      "start": 39.1574,
      "duration": 0.0762,
      "velocity": 91,
      "chip": "ym2612"
    },
    {
      "channel": 1,
      "note": 95,
      "start": 39.2145,
      "duration": 0.2021,
      "velocity": 102,
      "chip": "ym2612"
    },
    {
      "channel": 2,
      "note": 88,
      "start": 39.2153,
      "duration": 0.2021,
      "velocity": 103,
      "chip": "ym2612"
    },
    {
      "channel": 3,
      "note": 69,
      "start": 39.216,
      "duration": 0.029,
      "velocity": 104,
      "chip": "ym2612"
    },
    {
      "channel": 4,
      "note": 73,
      "start": 39.2167,
      "duration": 0.0285,
      "velocity": 104,
      "chip": "ym2612"
    },
    {
      "channel": 0,
      "note": 61,
      "start": 39.244,
      "duration": 0.0305,
      "velocity": 91,
      "chip": "ym2612"
    },
    {
      "channel": 0,
      "note": 62,
      "start": 39.3,
      "duration": 0.1163,
      "velocity": 91,
      "chip": "ym2612"
    },
    {
      "channel": 1,
      "note": 93,
      "start": 39.4173,
      "duration": 0.1135,
      "velocity": 102,
      "chip": "ym2612"
    },
    {
      "channel": 2,
      "note": 88,
      "start": 39.418,
      "duration": 0.1135,
      "velocity": 103,
      "chip": "ym2612"
    },
    {
      "channel": 3,
      "note": 69,
      "start": 39.4187,
      "duration": 0.026,
      "velocity": 104,
      "chip": "ym2612"
    },
    {
      "channel": 4,
      "note": 74,
      "start": 39.4195,
      "duration": 0.0256,
      "velocity": 104,
      "chip": "ym2612"
    },
    {
      "channel": 0,
      "note": 63,
      "start": 39.4438,
      "duration": 0.0253,
      "velocity": 91,
      "chip": "ym2612"
    },
    {
      "channel": 0,
      "note": 64,
      "start": 39.4696,
      "duration": 0.0336,
      "velocity": 91,
      "chip": "ym2612"
    },
    {
      "channel": 3,
      "note": 69,
      "start": 39.4712,
      "duration": 0.0331,
      "velocity": 104,
      "chip": "ym2612"
    },
    {
      "channel": 4,
      "note": 74,
      "start": 39.4719,
      "duration": 0.0331,
      "velocity": 104,
      "chip": "ym2612"
    },
    {
      "channel": 3,
      "note": 69,
      "start": 39.5048,
      "duration": 0.0275,
      "velocity": 104,
      "chip": "ym2612"
    },
    {
      "channel": 4,
      "note": 75,
      "start": 39.5056,
      "duration": 0.0275,
      "velocity": 104,
      "chip": "ym2612"
    },
    {
      "channel": 0,
      "note": 52,
      "start": 39.5306,
      "duration": 0.3581,
      "velocity": 91,
      "chip": "ym2612"
    },
    {
      "channel": 1,
      "note": 93,
      "start": 39.5314,
      "duration": 0.1415,
      "velocity": 102,
      "chip": "ym2612"
    },
    {
      "channel": 2,
      "note": 88,
      "start": 39.5322,
      "duration": 0.1414,
      "velocity": 103,
      "chip": "ym2612"
    },
    {
      "channel": 3,
      "note": 68,
      "start": 39.5329,
      "duration": 0.358,
      "velocity": 104,
      "chip": "ym2612"
    },
    {
      "channel": 4,
      "note": 76,
      "start": 39.5336,
      "duration": 0.358,
      "velocity": 104,
      "chip": "ym2612"
    },
    {
      "channel": 1,
      "note": 92,
      "start": 39.6734,
      "duration": 0.216,
      "velocity": 102,
      "chip": "ym2612"
    },
    {
      "channel": 2,
      "note": 88,
      "start": 39.6742,
      "duration": 0.216,
      "velocity": 103,
      "chip": "ym2612"
    },
    {
      "channel": 0,
      "note": 52,
      "start": 39.8893,
      "duration": 0.1412,
      "velocity": 91,
      "chip": "ym2612"
    },
    {
      "channel": 1,
      "note": 91,
      "start": 39.89,
      "duration": 0.1412,
      "velocity": 102,
      "chip": "ym2612"
    },
    {
      "channel": 2,
      "note": 88,
      "start": 39.8907,
      "duration": 0.1412,
      "velocity": 103,
      "chip": "ym2612"
    },
    {
      "channel": 3,
      "note": 71,
      "start": 39.8915,
      "duration": 0.0275,
      "velocity": 104,
      "chip": "ym2612"
    },
    {
      "channel": 4,
      "note": 76,
      "start": 39.8922,
      "duration": 0.0271,
      "velocity": 104,
      "chip": "ym2612"
    },
    {
      "channel": 0,
      "note": 64,
      "start": 40.0311,
      "duration": 0.0286,
      "velocity": 91,
      "chip": "ym2612"
    },
    {
      "channel": 1,
      "note": 90,
      "start": 40.0318,
      "duration": 0.0577,
      "velocity": 102,
      "chip": "ym2612"
    },
    {
      "channel": 2,
      "note": 83,
      "start": 40.0326,
      "duration": 0.0577,
      "velocity": 103,
      "chip": "ym2612"
    },
    {
      "channel": 3,
      "note": 76,
      "start": 40.0333,
      "duration": 0.0278,
      "velocity": 104,
      "chip": "ym2612"
    },
    {
      "channel": 4,
      "note": 80,
      "start": 40.0341,
      "duration": 0.0278,
      "velocity": 104,
      "chip": "ym2612"
    },
    {
      "channel": 0,
      "note": 52,
      "start": 40.0602,
      "duration": 0.029,
      "velocity": 91,
      "chip": "ym2612"
    },
    {
      "channel": 3,
      "note": 75,
      "start": 40.0617,
      "duration": 0.0293,
      "velocity": 104,
      "chip": "ym2612"
    },
    {
      "channel": 4,
      "note": 78,
      "start": 40.0624,
      "duration": 0.0288,
      "velocity": 104,
      "chip": "ym2612"
    },
    {
      "channel": 1,
      "note": 89,
      "start": 40.0901,
      "duration": 0.0606,
      "velocity": 102,
      "chip": "ym2612"
    },
    {
      "channel": 2,
      "note": 83,
      "start": 40.0909,
      "duration": 0.0605,
      "velocity": 103,
      "chip": "ym2612"
    },
    {
      "channel": 0,
      "note": 52,
      "start": 40.1209,
      "duration": 0.0294,
      "velocity": 91,
      "chip": "ym2612"
    },
    {
      "channel": 3,
      "note": 71,
      "start": 40.1224,
      "duration": 0.0298,
      "velocity": 104,
      "chip": "ym2612"
    },
    {
      "channel": 4,
      "note": 76,
      "start": 40.1232,
      "duration": 0.0293,
      "velocity": 104,
      "chip": "ym2612"
    },
    {
      "channel": 1,
      "note": 88,
      "start": 40.1513,
      "duration": 0.4841,
      "velocity": 102,
      "chip": "ym2612"
    },
    {
      "channel": 2,
      "note": 83,
      "start": 40.152,
      "duration": 0.4837,
      "velocity": 103,
      "chip": "ym2612"
    },
    {
      "channel": 0,
      "note": 64,
      "start": 40.1925,
      "duration": 0.0994,
      "velocity": 91,
      "chip": "ym2612"
    },
    {
      "channel": 3,
      "note": 71,
      "start": 40.1939,
      "duration": 0.0995,
      "velocity": 104,
      "chip": "ym2612"
    },
    {
      "channel": 4,
      "note": 74,
      "start": 40.1947,
      "duration": 0.0995,
      "velocity": 104,
      "chip": "ym2612"
    },
    {
      "channel": 0,
      "note": 52,
      "start": 40.2925,
      "duration": 0.2163,
      "velocity": 91,
      "chip": "ym2612"
    },
    {
      "channel": 3,
      "note": 69,
      "start": 40.2941,
      "duration": 0.099,
      "velocity": 104,
      "chip": "ym2612"
    },
    {
      "channel": 4,
      "note": 73,
      "start": 40.2948,
      "duration": 0.0987,
      "velocity": 104,
      "chip": "ym2612"
    },
    {
      "channel": 0,
      "note": 54,
      "start": 40.5094,
      "duration": 0.0646,
      "velocity": 91,
      "chip": "ym2612"
    },
    {
      "channel": 3,
      "note": 68,
      "start": 40.5109,
      "duration": 0.0646,
      "velocity": 104,
      "chip": "ym2612"
    },
    {
      "channel": 4,
      "note": 71,
      "start": 40.5116,
      "duration": 0.0646,
      "velocity": 104,
      "chip": "ym2612"
    },
    {
      "channel": 0,
      "note": 56,
      "start": 40.5746,
      "duration": 0.06,
      "velocity": 91,
      "chip": "ym2612"
    },
    {
      "channel": 3,
      "note": 64,
      "start": 40.5761,
      "duration": 0.0599,
      "velocity": 104,
      "chip": "ym2612"
    },
    {
      "channel": 4,
      "note": 68,
      "start": 40.5768,
      "duration": 0.06,
      "velocity": 104,
      "chip": "ym2612"
    },
    {
      "channel": 0,
      "note": 57,
      "start": 40.6352,
      "duration": 0.3074,
      "velocity": 91,
      "chip": "ym2612"
    },
    {
      "channel": 3,
      "note": 69,
      "start": 40.6366,
      "duration": 0.1412,
      "velocity": 104,
      "chip": "ym2612"
    },
    {
      "channel": 4,
      "note": 73,
      "start": 40.6374,
      "duration": 0.1407,
      "velocity": 104,
      "chip": "ym2612"
    },
    {
      "channel": 1,
      "note": 88,
      "start": 40.777,
      "duration": 0.2166,
      "velocity": 102,
      "chip": "ym2612"
    },
    {
      "channel": 2,
      "note": 85,
      "start": 40.7777,
      "duration": 0.2167,
      "velocity": 103,
      "chip": "ym2612"
    },
    {
      "channel": 3,
      "note": 69,
      "start": 40.8945,
      "duration": 0.1006,
      "velocity": 104,
      "chip": "ym2612"
    },
    {
      "channel": 4,
      "note": 73,
      "start": 40.8952,
      "duration": 0.1007,
      "velocity": 104,
      "chip": "ym2612"
    },
    {
      "channel": 0,
      "note": 57,
      "start": 40.9935,
      "duration": 0.0763,
      "velocity": 91,
      "chip": "ym2612"
    },
    {
      "channel": 1,
      "note": 85,
      "start": 40.9942,
      "duration": 0.0281,
      "velocity": 102,
      "chip": "ym2612"
    },
    {
      "channel": 2,
      "note": 81,
      "start": 40.995,
      "duration": 0.0277,
      "velocity": 103,
      "chip": "ym2612"
    },
    {
      "channel": 3,
      "note": 69,
      "start": 40.9957,
      "duration": 0.0273,
      "velocity": 104,
      "chip": "ym2612"
    },
    {
      "channel": 4,
      "note": 73,
      "start": 40.9965,
      "duration": 0.0268,
      "velocity": 104,
      "chip": "ym2612"
    },
    {
      "channel": 1,
      "note": 86,
      "start": 41.0504,
      "duration": 0.0297,
      "velocity": 102,
      "chip": "ym2612"
    },
    {
      "channel": 2,
      "note": 81,
      "start": 41.0511,
      "duration": 0.0293,
      "velocity": 103,
      "chip": "ym2612"
    },
    {
      "channel": 3,
      "note": 69,
      "start": 41.0518,
      "duration": 0.0288,
      "velocity": 104,
      "chip": "ym2612"
    },
    {
      "channel": 4,
      "note": 73,
      "start": 41.0525,
      "duration": 0.0284,
      "velocity": 104,
      "chip": "ym2612"
    },
    {
      "channel": 0,
      "note": 52,
      "start": 41.0799,
      "duration": 0.0397,
      "velocity": 91,
      "chip": "ym2612"
    },
    {
      "channel": 1,
      "note": 88,
      "start": 41.1073,
      "duration": 0.0245,
      "velocity": 102,
      "chip": "ym2612"
    },
    {
      "channel": 2,
      "note": 85,
      "start": 41.1081,
      "duration": 0.0245,
      "velocity": 103,
      "chip": "ym2612"
    },
    {
      "channel": 0,
      "note": 54,
      "start": 41.1317,
      "duration": 0.2161,
      "velocity": 91,
      "chip": "ym2612"
    },
    {
      "channel": 1,
      "note": 93,
      "start": 41.1325,
      "duration": 0.2159,
      "velocity": 102,
      "chip": "ym2612"
    },
    {
      "channel": 2,
      "note": 85,
      "start": 41.1332,
      "duration": 0.2157,
      "velocity": 103,
      "chip": "ym2612"
    },
    {
      "channel": 0,
      "note": 54,
      "start": 41.3483,
      "duration": 0.0998,
      "velocity": 91,
      "chip": "ym2612"
    },
    {
      "channel": 1,
      "note": 93,
      "start": 41.3488,
      "duration": 0.1,
      "velocity": 102,
      "chip": "ym2612"
    },
    {
      "channel": 2,
      "note": 88,
      "start": 41.3496,
      "duration": 0.0999,
      "velocity": 103,
      "chip": "ym2612"
    },
    {
      "channel": 0,
      "note": 52,
      "start": 41.4486,
      "duration": 0.0398,
      "velocity": 91,
      "chip": "ym2612"
    },
    {
      "channel": 1,
      "note": 90,
      "start": 41.4494,
      "duration": 0.0282,
      "velocity": 102,
      "chip": "ym2612"
    },
    {
      "channel": 2,
      "note": 85,
      "start": 41.4501,
      "duration": 0.0278,
      "velocity": 103,
      "chip": "ym2612"
    },
    {
      "channel": 0,
      "note": 54,
      "start": 41.4989,
      "duration": 0.0912,
      "velocity": 91,
      "chip": "ym2612"
    },
    {
      "channel": 1,
      "note": 88,
      "start": 41.4996,
      "duration": 0.076,
      "velocity": 102,
      "chip": "ym2612"
    },
    {
      "channel": 2,
      "note": 85,
      "start": 41.5004,
      "duration": 0.0755,
      "velocity": 103,
      "chip": "ym2612"
    },
    {
      "channel": 0,
      "note": 56,
      "start": 41.6024,
      "duration": 0.2906,
      "velocity": 91,
      "chip": "ym2612"
    },
    {
      "channel": 1,
      "note": 90,
      "start": 41.6032,
      "duration": 0.2402,
      "velocity": 102,
      "chip": "ym2612"
    },
    {
      "channel": 2,
      "note": 85,
      "start": 41.6039,
      "duration": 0.2402,
      "velocity": 103,
      "chip": "ym2612"
    },
    {
      "channel": 3,
      "note": 68,
      "start": 41.6046,
      "duration": 0.0278,
      "velocity": 104,
      "chip": "ym2612"
    },
    {
      "channel": 4,
      "note": 77,
      "start": 41.6054,
      "duration": 0.0274,
      "velocity": 104,
      "chip": "ym2612"
    },
    {
      "channel": 1,
      "note": 89,
      "start": 41.844,
      "duration": 0.1575,
      "velocity": 102,
      "chip": "ym2612"
    },
    {
      "channel": 2,
      "note": 85,
      "start": 41.8448,
      "duration": 0.1574,
      "velocity": 103,
      "chip": "ym2612"
    },
    {
      "channel": 3,
      "note": 73,
      "start": 41.8455,
      "duration": 0.0993,
      "velocity": 104,
      "chip": "ym2612"
    },
    {
      "channel": 4,
      "note": 77,
      "start": 41.8463,
      "duration": 0.0988,
      "velocity": 104,
      "chip": "ym2612"
    },
    {
      "channel": 0,
      "note": 56,
      "start": 41.9439,
      "duration": 0.0778,
      "velocity": 91,
      "chip": "ym2612"
    },
    {
      "channel": 1,
      "note": 85,
      "start": 42.0021,
      "duration": 0.0866,
      "velocity": 102,
      "chip": "ym2612"
    },
    {
      "channel": 2,
      "note": 80,
      "start": 42.0028,
      "duration": 0.0867,
      "velocity": 103,
      "chip": "ym2612"
    },
    {
      "channel": 3,
      "note": 68,
      "start": 42.0035,
      "duration": 0.0341,
      "velocity": 104,
      "chip": "ym2612"
    },
    {
      "channel": 4,
      "note": 77,
      "start": 42.0043,
      "duration": 0.0337,
      "velocity": 104,
      "chip": "ym2612"
    },
    {
      "channel": 0,
      "note": 61,
      "start": 42.0367,
      "duration": 0.0394,
      "velocity": 91,
      "chip": "ym2612"
    },
    {
      "channel": 0,
      "note": 62,
      "start": 42.0887,
      "duration": 0.2154,
      "velocity": 91,
      "chip": "ym2612"
    },
    {
      "channel": 1,
      "note": 85,
      "start": 42.0893,
      "duration": 0.3324,
      "velocity": 102,
      "chip": "ym2612"
    },
    {
      "channel": 2,
      "note": 80,
      "start": 42.0901,
      "duration": 0.3324,
      "velocity": 103,
      "chip": "ym2612"
    },
    {
      "channel": 3,
      "note": 73,
      "start": 42.206,
      "duration": 0.0996,
      "velocity": 104,
      "chip": "ym2612"
    },
    {
      "channel": 4,
      "note": 77,
      "start": 42.2067,
      "duration": 0.0993,
      "velocity": 104,
      "chip": "ym2612"
    },
    {
      "channel": 0,
      "note": 61,
      "start": 42.3047,
      "duration": 0.1163,
      "velocity": 91,
      "chip": "ym2612"
    },
    {
      "channel": 0,
      "note": 61,
      "start": 42.4216,
      "duration": 0.0277,
      "velocity": 91,
      "chip": "ym2612"
    },
    {
      "channel": 1,
      "note": 87,
      "start": 42.4224,
      "duration": 0.0563,
      "velocity": 102,
      "chip": "ym2612"
    },
    {
      "channel": 2,
      "note": 80,
      "start": 42.4231,
      "duration": 0.0563,
      "velocity": 103,
      "chip": "ym2612"
    },
    {
      "channel": 3,
      "note": 68,
      "start": 42.4238,
      "duration": 0.027,
      "velocity": 104,
      "chip": "ym2612"
    },
    {
      "channel": 4,
      "note": 77,
      "start": 42.4245,
      "duration": 0.0271,
      "velocity": 104,
      "chip": "ym2612"
    },
    {
      "channel": 0,
      "note": 59,
      "start": 42.45,
      "duration": 0.028,
      "velocity": 91,
      "chip": "ym2612"
    },
    {
      "channel": 3,
      "note": 73,
      "start": 42.4514,
      "duration": 0.1297,
      "velocity": 104,
      "chip": "ym2612"
    },
    {
      "channel": 4,
      "note": 77,
      "start": 42.4522,
      "duration": 0.1297,
      "velocity": 104,
      "chip": "ym2612"
    },
    {
      "channel": 0,
      "note": 61,
      "start": 42.4786,
      "duration": 0.1002,
      "velocity": 91,
      "chip": "ym2612"
    },
    {
      "channel": 1,
      "note": 89,
      "start": 42.4793,
      "duration": 0.1004,
      "velocity": 102,
      "chip": "ym2612"
    },
    {
      "channel": 2,
      "note": 85,
      "start": 42.48,
      "duration": 0.1003,
      "velocity": 103,
      "chip": "ym2612"
    },
    {
      "channel": 0,
      "note": 62,
      "start": 42.5794,
      "duration": 0.3073,
      "velocity": 91,
      "chip": "ym2612"
    },
    {
      "channel": 1,
      "note": 92,
      "start": 42.5802,
      "duration": 0.4151,
      "velocity": 102,
      "chip": "ym2612"
    },
    {
      "channel": 2,
      "note": 86,
      "start": 42.581,
      "duration": 0.415,
      "velocity": 103,
      "chip": "ym2612"
    },
    {
      "channel": 3,
      "note": 69,
      "start": 42.5817,
      "duration": 0.0395,
      "velocity": 104,
      "chip": "ym2612"
    },
    {
      "channel": 4,
      "note": 78,
      "start": 42.5824,
      "duration": 0.0391,
      "velocity": 104,
      "chip": "ym2612"
    },
    {
      "channel": 3,
      "note": 74,
      "start": 42.8219,
      "duration": 0.1166,
      "velocity": 104,
      "chip": "ym2612"
    },
    {
      "channel": 4,
      "note": 78,
      "start": 42.8226,
      "duration": 0.1161,
      "velocity": 104,
      "chip": "ym2612"
    },
    {
      "channel": 0,
      "note": 54,
      "start": 42.9376,
      "duration": 0.0777,
      "velocity": 91,
      "chip": "ym2612"
    },
    {
      "channel": 1,
      "note": 90,
      "start": 42.9959,
      "duration": 0.1976,
      "velocity": 102,
      "chip": "ym2612"
    },
    {
      "channel": 2,
      "note": 86,
      "start": 42.9965,
      "duration": 0.1978,
      "velocity": 103,
      "chip": "ym2612"
    },
    {
      "channel": 3,
      "note": 69,
      "start": 42.9972,
      "duration": 0.0291,
      "velocity": 104,
      "chip": "ym2612"
    },
    {
      "channel": 4,
      "note": 78,
      "start": 42.998,
      "duration": 0.0286,
      "velocity": 104,
      "chip": "ym2612"
    },
    {
      "channel": 0,
      "note": 57,
      "start": 43.0254,
      "duration": 0.0437,
      "velocity": 91,
      "chip": "ym2612"
    },
    {
      "channel": 0,
      "note": 62,
      "start": 43.0937,
      "duration": 0.2161,
      "velocity": 91,
      "chip": "ym2612"
    },
    {
      "channel": 1,
      "note": 92,
      "start": 43.1941,
      "duration": 0.2166,
      "velocity": 102,
      "chip": "ym2612"
    },
    {
      "channel": 2,
      "note": 86,
      "start": 43.1947,
      "duration": 0.2168,
      "velocity": 103,
      "chip": "ym2612"
    },
    {
      "channel": 0,
      "note": 54,
      "start": 43.3104,
      "duration": 0.0997,
      "velocity": 91,
      "chip": "ym2612"
    },
    {
      "channel": 0,
      "note": 57,
      "start": 43.4106,
      "duration": 0.0245,
      "velocity": 91,
      "chip": "ym2612"
    },
    {
      "channel": 1,
      "note": 90,
      "start": 43.4114,
      "duration": 0.0539,
      "velocity": 102,
      "chip": "ym2612"
    },
    {
      "channel": 2,
      "note": 86,
      "start": 43.4121,
      "duration": 0.0539,
      "velocity": 103,
      "chip": "ym2612"
    },
    {
      "channel": 0,
      "note": 62,
      "start": 43.4357,
      "duration": 0.0288,
      "velocity": 91,
      "chip": "ym2612"
    },
    {
      "channel": 0,
      "note": 57,
      "start": 43.4651,
      "duration": 0.1039,
      "velocity": 91,
      "chip": "ym2612"
    },
    {
      "channel": 1,
      "note": 88,
      "start": 43.4658,
      "duration": 0.1039,
      "velocity": 102,
      "chip": "ym2612"
    },
    {
      "channel": 2,
      "note": 81,
      "start": 43.4666,
      "duration": 0.1038,
      "velocity": 103,
      "chip": "ym2612"
    },
    {
      "channel": 0,
      "note": 53,
      "start": 43.5695,
      "duration": 0.2906,
      "velocity": 91,
      "chip": "ym2612"
    },
    {
      "channel": 1,
      "note": 89,
      "start": 43.5703,
      "duration": 0.1237,
      "velocity": 102,
      "chip": "ym2612"
    },
    {
      "channel": 2,
      "note": 84,
      "start": 43.571,
      "duration": 0.1238,
      "velocity": 103,
      "chip": "ym2612"
    },
    {
      "channel": 3,
      "note": 72,
      "start": 43.5717,
      "duration": 0.0278,
      "velocity": 104,
      "chip": "ym2612"
    },
    {
      "channel": 4,
      "note": 77,
      "start": 43.5724,
      "duration": 0.0274,
      "velocity": 104,
      "chip": "ym2612"
    },
    {
      "channel": 1,
      "note": 93,
      "start": 43.6946,
      "duration": 0.3357,
      "velocity": 102,
      "chip": "ym2612"
    },
    {
      "channel": 2,
      "note": 89,
      "start": 43.6954,
      "duration": 0.3356,
      "velocity": 103,
      "chip": "ym2612"
    },
    {
      "channel": 3,
      "note": 72,
      "start": 43.8119,
      "duration": 0.1001,
      "velocity": 104,
      "chip": "ym2612"
    },
    {
      "channel": 4,
      "note": 79,
      "start": 43.8127,
      "duration": 0.0996,
      "velocity": 104,
      "chip": "ym2612"
    },
    {
      "channel": 0,
      "note": 55,
      "start": 43.911,
      "duration": 0.0778,
      "velocity": 91,
      "chip": "ym2612"
    },
    {
      "channel": 3,
      "note": 72,
      "start": 43.97,
      "duration": 0.0299,
      "velocity": 104,
      "chip": "ym2612"
    },
    {
      "channel": 4,
      "note": 77,
      "start": 43.9708,
      "duration": 0.0294,
      "velocity": 104,
      "chip": "ym2612"
    },
    {
      "channel": 0,
      "note": 53,
      "start": 43.9989,
      "duration": 0.0445,
      "velocity": 91,
      "chip": "ym2612"
    },
    {
      "channel": 1,
      "note": 93,
      "start": 44.0308,
      "duration": 0.3415,
      "velocity": 102,
      "chip": "ym2612"
    },
    {
      "channel": 2,
      "note": 89,
      "start": 44.0314,
      "duration": 0.3417,
      "velocity": 103,
      "chip": "ym2612"
    },
    {
      "channel": 0,
      "note": 65,
      "start": 44.0556,
      "duration": 0.2158,
      "velocity": 91,
      "chip": "ym2612"
    },
    {
      "channel": 3,
      "note": 72,
      "start": 44.1732,
      "duration": 0.0997,
      "velocity": 104,
      "chip": "ym2612"
    },
    {
      "channel": 4,
      "note": 79,
      "start": 44.1739,
      "duration": 0.0993,
      "velocity": 104,
      "chip": "ym2612"
    },
    {
      "channel": 0,
      "note": 60,
      "start": 44.272,
      "duration": 0.0997,
      "velocity": 91,
      "chip": "ym2612"
    },
    {
      "channel": 0,
      "note": 57,
      "start": 44.3722,
      "duration": 0.0335,
      "velocity": 91,
      "chip": "ym2612"
    },
    {
      "channel": 1,
      "note": 95,
      "start": 44.373,
      "duration": 0.1737,
      "velocity": 102,
      "chip": "ym2612"
    },
    {
      "channel": 2,
      "note": 89,
      "start": 44.3737,
      "duration": 0.1737,
      "velocity": 103,
      "chip": "ym2612"
    },
    {
      "channel": 3,
      "note": 72,
      "start": 44.3744,
      "duration": 0.0329,
      "velocity": 104,
      "chip": "ym2612"
    },
    {
      "channel": 4,
      "note": 79,
      "start": 44.3752,
      "duration": 0.0328,
      "velocity": 104,
      "chip": "ym2612"
    },
    {
      "channel": 0,
      "note": 55,
      "start": 44.4063,
      "duration": 0.0288,
      "velocity": 91,
      "chip": "ym2612"
    },
    {
      "channel": 3,
      "note": 72,
      "start": 44.4079,
      "duration": 0.1403,
      "velocity": 104,
      "chip": "ym2612"
    },
    {
      "channel": 4,
      "note": 77,
      "start": 44.4086,
      "duration": 0.1402,
      "velocity": 104,
      "chip": "ym2612"
    },
    {
      "channel": 0,
      "note": 53,
      "start": 44.4357,
      "duration": 0.1102,
      "velocity": 91,
      "chip": "ym2612"
    },
    {
      "channel": 0,
      "note": 57,
      "start": 44.5465,
      "duration": 0.2906,
      "velocity": 91,
      "chip": "ym2612"
    },
    {
      "channel": 1,
      "note": 97,
      "start": 44.5473,
      "duration": 0.4103,
      "velocity": 102,
      "chip": "ym2612"
    },
    {
      "channel": 2,
      "note": 93,
      "start": 44.548,
      "duration": 0.4103,
      "velocity": 103,
      "chip": "ym2612"
    },
    {
      "channel": 3,
      "note": 69,
      "start": 44.5488,
      "duration": 0.0279,
      "velocity": 104,
      "chip": "ym2612"
    },
    {
      "channel": 4,
      "note": 76,
      "start": 44.5495,
      "duration": 0.0275,
      "velocity": 104,
      "chip": "ym2612"
    },
    {
      "channel": 3,
      "note": 69,
      "start": 44.789,
      "duration": 0.1167,
      "velocity": 104,
      "chip": "ym2612"
    },
    {
      "channel": 4,
      "note": 74,
      "start": 44.7897,
      "duration": 0.1161,
      "velocity": 104,
      "chip": "ym2612"
    },
    {
      "channel": 0,
      "note": 52,
      "start": 44.9047,
      "duration": 0.0777,
      "velocity": 91,
      "chip": "ym2612"
    },
    {
      "channel": 1,
      "note": 93,
      "start": 44.9582,
      "duration": 0.203,
      "velocity": 102,
      "chip": "ym2612"
    },
    {
      "channel": 2,
      "note": 88,
      "start": 44.9589,
      "duration": 0.203,
      "velocity": 103,
      "chip": "ym2612"
    },
    {
      "channel": 3,
      "note": 69,
      "start": 44.9597,
      "duration": 0.0341,
      "velocity": 104,
      "chip": "ym2612"
    },
    {
      "channel": 4,
      "note": 73,
      "start": 44.9604,
      "duration": 0.0337,
      "velocity": 104,
      "chip": "ym2612"
    },
    {
      "channel": 0,
      "note": 57,
      "start": 44.9928,
      "duration": 0.0393,
      "velocity": 91,
      "chip": "ym2612"
    },
    {
      "channel": 0,
      "note": 57,
      "start": 45.061,
      "duration": 0.0994,
      "velocity": 91,
      "chip": "ym2612"
    },
    {
      "channel": 0,
      "note": 61,
      "start": 45.161,
      "duration": 0.2163,
      "velocity": 91,
      "chip": "ym2612"
    },
    {
      "channel": 1,
      "note": 97,
      "start": 45.1617,
      "duration": 0.2163,
      "velocity": 102,
      "chip": "ym2612"
    },
    {
      "channel": 2,
      "note": 93,
      "start": 45.1625,
      "duration": 0.2163,
      "velocity": 103,
      "chip": "ym2612"
    },
    {
      "channel": 0,
      "note": 62,
      "start": 45.3779,
      "duration": 0.0371,
      "velocity": 91,
      "chip": "ym2612"
    },
    {
      "channel": 1,
      "note": 93,
      "start": 45.3787,
      "duration": 0.0529,
      "velocity": 102,
      "chip": "ym2612"
    },
    {
      "channel": 2,
      "note": 88,
      "start": 45.3794,
      "duration": 0.0529,
      "velocity": 103,
      "chip": "ym2612"
    },
    {
      "channel": 0,
      "note": 63,
      "start": 45.4314,
      "duration": 0.0861,
      "velocity": 91,
      "chip": "ym2612"
    },
    {
      "channel": 1,
      "note": 88,
      "start": 45.4321,
      "duration": 0.0993,
      "velocity": 102,
      "chip": "ym2612"
    },
    {
      "channel": 2,
      "note": 85,
      "start": 45.4329,
      "duration": 0.0993,
      "velocity": 103,
      "chip": "ym2612"
    },
    {
      "channel": 0,
      "note": 52,
      "start": 45.5313,
      "duration": 0.3073,
      "velocity": 91,
      "chip": "ym2612"
    },
    {
      "channel": 1,
      "note": 86,
      "start": 45.532,
      "duration": 0.1403,
      "velocity": 102,
      "chip": "ym2612"
    },
    {
      "channel": 2,
      "note": 83,
      "start": 45.5328,
      "duration": 0.1403,
      "velocity": 103,
      "chip": "ym2612"
    },
    {
      "channel": 3,
      "note": 68,
      "start": 45.5335,
      "duration": 0.0398,
      "velocity": 104,
      "chip": "ym2612"
    },
    {
      "channel": 4,
      "note": 76,
      "start": 45.5343,
      "duration": 0.0393,
      "velocity": 104,
      "chip": "ym2612"
    },
    {
      "channel": 1,
      "note": 85,
      "start": 45.673,
      "duration": 0.2166,
      "velocity": 102,
      "chip": "ym2612"
    },
    {
      "channel": 2,
      "note": 81,
      "start": 45.6737,
      "duration": 0.2167,
      "velocity": 103,
      "chip": "ym2612"
    },
    {
      "channel": 3,
      "note": 68,
      "start": 45.7905,
      "duration": 0.1006,
      "velocity": 104,
      "chip": "ym2612"
    },
    {
      "channel": 4,
      "note": 80,
      "start": 45.7912,
      "duration": 0.1002,
      "velocity": 104,
      "chip": "ym2612"
    },
    {
      "channel": 0,
      "note": 59,
      "start": 45.8895,
      "duration": 0.0769,
      "velocity": 91,
      "chip": "ym2612"
    },
    {
      "channel": 1,
      "note": 86,
      "start": 45.8902,
      "duration": 0.0559,
      "velocity": 102,
      "chip": "ym2612"
    },
    {
      "channel": 2,
      "note": 83,
      "start": 45.891,
      "duration": 0.0558,
      "velocity": 103,
      "chip": "ym2612"
    },
    {
      "channel": 1,
      "note": 92,
      "start": 45.9467,
      "duration": 0.4026,
      "velocity": 102,
      "chip": "ym2612"
    },
    {
      "channel": 2,
      "note": 88,
      "start": 45.9475,
      "duration": 0.4026,
      "velocity": 103,
      "chip": "ym2612"
    },
    {
      "channel": 3,
      "note": 68,
      "start": 45.9482,
      "duration": 0.0289,
      "velocity": 104,
      "chip": "ym2612"
    },
    {
      "channel": 4,
      "note": 78,
      "start": 45.9489,
      "duration": 0.0284,
      "velocity": 104,
      "chip": "ym2612"
    },
    {
      "channel": 0,
      "note": 64,
      "start": 45.9762,
      "duration": 0.0439,
      "velocity": 91,
      "chip": "ym2612"
    },
    {
      "channel": 0,
      "note": 56,
      "start": 46.0325,
      "duration": 0.2158,
      "velocity": 91,
      "chip": "ym2612"
    },
    {
      "channel": 3,
      "note": 68,
      "start": 46.1334,
      "duration": 0.1164,
      "velocity": 104,
      "chip": "ym2612"
    },
    {
      "channel": 4,
      "note": 76,
      "start": 46.1342,
      "duration": 0.116,
      "velocity": 104,
      "chip": "ym2612"
    },
    {
      "channel": 0,
      "note": 54,
      "start": 46.2489,
      "duration": 0.0997,
      "velocity": 91,
      "chip": "ym2612"
    },
    {
      "channel": 0,
      "note": 52,
      "start": 46.3491,
      "duration": 0.0327,
      "velocity": 91,
      "chip": "ym2612"
    },
    {
      "channel": 1,
      "note": 95,
      "start": 46.3499,
      "duration": 0.1625,
      "velocity": 102,
      "chip": "ym2612"
    },
    {
      "channel": 2,
      "note": 86,
      "start": 46.3507,
      "duration": 0.1625,
      "velocity": 103,
      "chip": "ym2612"
    },
    {
      "channel": 3,
      "note": 68,
      "start": 46.3514,
      "duration": 0.032,
      "velocity": 104,
      "chip": "ym2612"
    },
    {
      "channel": 4,
      "note": 74,
      "start": 46.3521,
      "duration": 0.0319,
      "velocity": 104,
      "chip": "ym2612"
    },
    {
      "channel": 0,
      "note": 56,
      "start": 46.3824,
      "duration": 0.0275,
      "velocity": 91,
      "chip": "ym2612"
    },
    {
      "channel": 3,
      "note": 68,
      "start": 46.3839,
      "duration": 0.1301,
      "velocity": 104,
      "chip": "ym2612"
    },
    {
      "channel": 4,
      "note": 71,
      "start": 46.3846,
      "duration": 0.1301,
      "velocity": 104,
      "chip": "ym2612"
    },
    {
      "channel": 0,
      "note": 59,
      "start": 46.4106,
      "duration": 0.1011,
      "velocity": 91,
      "chip": "ym2612"
    },
    {
      "channel": 0,
      "note": 57,
      "start": 46.5122,
      "duration": 0.2906,
      "velocity": 91,
      "chip": "ym2612"
    },
    {
      "channel": 1,
      "note": 93,
      "start": 46.513,
      "duration": 1.3419,
      "velocity": 102,
      "chip": "ym2612"
    },
    {
      "channel": 2,
      "note": 88,
      "start": 46.5138,
      "duration": 1.3413,
      "velocity": 103,
      "chip": "ym2612"
    },
    {
      "channel": 3,
      "note": 73,
      "start": 46.5145,
      "duration": 0.0277,
      "velocity": 104,
      "chip": "ym2612"
    },
    {
      "channel": 4,
      "note": 69,
      "start": 46.5153,
      "duration": 0.0273,
      "velocity": 104,
      "chip": "ym2612"
    },
    {
      "channel": 3,
      "note": 73,
      "start": 46.7545,
      "duration": 0.1001,
      "velocity": 104,
      "chip": "ym2612"
    },
    {
      "channel": 4,
      "note": 69,
      "start": 46.7553,
      "duration": 0.0997,
      "velocity": 104,
      "chip": "ym2612"
    },
    {
      "channel": 0,
      "note": 61,
      "start": 46.8537,
      "duration": 0.0778,
      "velocity": 91,
      "chip": "ym2612"
    },
    {
      "channel": 3,
      "note": 73,
      "start": 46.9127,
      "duration": 0.0346,
      "velocity": 104,
      "chip": "ym2612"
    },
    {
      "channel": 4,
      "note": 69,
      "start": 46.9134,
      "duration": 0.0342,
      "velocity": 104,
      "chip": "ym2612"
    },
    {
      "channel": 0,
      "note": 62,
      "start": 46.9465,
      "duration": 0.0295,
      "velocity": 91,
      "chip": "ym2612"
    },
    {
      "channel": 0,
      "note": 63,
      "start": 47.0014,
      "duration": 0.1163,
      "velocity": 91,
      "chip": "ym2612"
    },
    {
      "channel": 3,
      "note": 76,
      "start": 47.003,
      "duration": 0.1158,
      "velocity": 104,
      "chip": "ym2612"
    },
    {
      "channel": 4,
      "note": 73,
      "start": 47.0037,
      "duration": 0.1154,
      "velocity": 104,
      "chip": "ym2612"
    },
    {
      "channel": 0,
      "note": 64,
      "start": 47.1434,
      "duration": 0.0349,
      "velocity": 91,
      "chip": "ym2612"
    },
    {
      "channel": 3,
      "note": 75,
      "start": 47.1449,
      "duration": 0.035,
      "velocity": 104,
      "chip": "ym2612"
    },
    {
      "channel": 4,
      "note": 72,
      "start": 47.1456,
      "duration": 0.0349,
      "velocity": 104,
      "chip": "ym2612"
    },
    {
      "channel": 0,
      "note": 52,
      "start": 47.1789,
      "duration": 0.0293,
      "velocity": 91,
      "chip": "ym2612"
    },
    {
      "channel": 3,
      "note": 74,
      "start": 47.1804,
      "duration": 0.0289,
      "velocity": 104,
      "chip": "ym2612"
    },
    {
      "channel": 4,
      "note": 71,
      "start": 47.1812,
      "duration": 0.0284,
      "velocity": 104,
      "chip": "ym2612"
    },
    {
      "channel": 0,
      "note": 57,
      "start": 47.2339,
      "duration": 0.3581,
      "velocity": 91,
      "chip": "ym2612"
    },
    {
      "channel": 3,
      "note": 73,
      "start": 47.2354,
      "duration": 0.3581,
      "velocity": 104,
      "chip": "ym2612"
    },
    {
      "channel": 4,
      "note": 69,
      "start": 47.2362,
      "duration": 0.3581,
      "velocity": 104,
      "chip": "ym2612"
    },
    {
      "channel": 0,
      "note": 57,
      "start": 47.5926,
      "duration": 0.1412,
      "velocity": 91,
      "chip": "ym2612"
    },
    {
      "channel": 3,
      "note": 73,
      "start": 47.5941,
      "duration": 0.0286,
      "velocity": 104,
      "chip": "ym2612"
    },
    {
      "channel": 4,
      "note": 69,
      "start": 47.5949,
      "duration": 0.0282,
      "velocity": 104,
      "chip": "ym2612"
    },
    {
      "channel": 0,
      "note": 57,
      "start": 47.7344,
      "duration": 0.0599,
      "velocity": 91,
      "chip": "ym2612"
    },
    {
      "channel": 3,
      "note": 73,
      "start": 47.7359,
      "duration": 0.0286,
      "velocity": 104,
      "chip": "ym2612"
    },
    {
      "channel": 4,
      "note": 69,
      "start": 47.7366,
      "duration": 0.0282,
      "velocity": 104,
      "chip": "ym2612"
    },
    {
      "channel": 0,
      "note": 57,
      "start": 47.7949,
      "duration": 0.0597,
      "velocity": 91,
      "chip": "ym2612"
    },
    {
      "channel": 3,
      "note": 73,
      "start": 47.7964,
      "duration": 0.0294,
      "velocity": 104,
      "chip": "ym2612"
    },
    {
      "channel": 4,
      "note": 69,
      "start": 47.7971,
      "duration": 0.029,
      "velocity": 104,
      "chip": "ym2612"
    },
    {
      "channel": 0,
      "note": 57,
      "start": 48.3005,
      "duration": 0.2906,
      "velocity": 91,
      "chip": "ym2612"
    },
    {
      "channel": 1,
      "note": 76,
      "start": 48.3282,
      "duration": 0.3139,
      "velocity": 102,
      "chip": "ym2612"
    },
    {
      "channel": 2,
      "note": 85,
      "start": 48.329,
      "duration": 0.3139,
      "velocity": 103,
      "chip": "ym2612"
    },
    {
      "channel": 3,
      "note": 69,
      "start": 48.3297,
      "duration": 0.096,
      "velocity": 104,
      "chip": "ym2612"
    },
    {
      "channel": 4,
      "note": 73,
      "start": 48.3304,
      "duration": 0.0955,
      "velocity": 104,
      "chip": "ym2612"
    },
    {
      "channel": 3,
      "note": 69,
      "start": 48.5429,
      "duration": 0.1007,
      "velocity": 104,
      "chip": "ym2612"
    },
    {
      "channel": 4,
      "note": 73,
      "start": 48.5437,
      "duration": 0.1007,
      "velocity": 104,
      "chip": "ym2612"
    },
    {
      "channel": 0,
      "note": 57,
      "start": 48.6419,
      "duration": 0.076,
      "velocity": 91,
      "chip": "ym2612"
    },
    {
      "channel": 1,
      "note": 73,
      "start": 48.6427,
      "duration": 0.0323,
      "velocity": 102,
      "chip": "ym2612"
    },
    {
      "channel": 2,
      "note": 81,
      "start": 48.6434,
      "duration": 0.0319,
      "velocity": 103,
      "chip": "ym2612"
    },
    {
      "channel": 3,
      "note": 69,
      "start": 48.6441,
      "duration": 0.0315,
      "velocity": 104,
      "chip": "ym2612"
    },
    {
      "channel": 4,
      "note": 73,
      "start": 48.6449,
      "duration": 0.031,
      "velocity": 104,
      "chip": "ym2612"
    },
    {
      "channel": 1,
      "note": 74,
      "start": 48.699,
      "duration": 0.0297,
      "velocity": 102,
      "chip": "ym2612"
    },
    {
      "channel": 2,
      "note": 81,
      "start": 48.6997,
      "duration": 0.0293,
      "velocity": 103,
      "chip": "ym2612"
    },
    {
      "channel": 3,
      "note": 69,
      "start": 48.7004,
      "duration": 0.0289,
      "velocity": 104,
      "chip": "ym2612"
    },
    {
      "channel": 4,
      "note": 73,
      "start": 48.7012,
      "duration": 0.0284,
      "velocity": 104,
      "chip": "ym2612"
    },
    {
      "channel": 0,
      "note": 52,
      "start": 48.7285,
      "duration": 0.0396,
      "velocity": 91,
      "chip": "ym2612"
    },
    {
      "channel": 1,
      "note": 76,
      "start": 48.7558,
      "duration": 0.0246,
      "velocity": 102,
      "chip": "ym2612"
    },
    {
      "channel": 2,
      "note": 85,
      "start": 48.7566,
      "duration": 0.0246,
      "velocity": 103,
      "chip": "ym2612"
    },
    {
      "channel": 0,
      "note": 54,
      "start": 48.7802,
      "duration": 0.2161,
      "velocity": 91,
      "chip": "ym2612"
    },
    {
      "channel": 1,
      "note": 81,
      "start": 48.781,
      "duration": 0.2159,
      "velocity": 102,
      "chip": "ym2612"
    },
    {
      "channel": 2,
      "note": 88,
      "start": 48.7818,
      "duration": 0.2157,
      "velocity": 103,
      "chip": "ym2612"
    },
    {
      "channel": 0,
      "note": 54,
      "start": 48.9968,
      "duration": 0.0998,
      "velocity": 91,
      "chip": "ym2612"
    },
    {
      "channel": 1,
      "note": 81,
      "start": 48.9973,
      "duration": 0.1,
      "velocity": 102,
      "chip": "ym2612"
    },
    {
      "channel": 2,
      "note": 88,
      "start": 48.9979,
      "duration": 0.1001,
      "velocity": 103,
      "chip": "ym2612"
    },
    {
      "channel": 0,
      "note": 52,
      "start": 49.0972,
      "duration": 0.0398,
      "velocity": 91,
      "chip": "ym2612"
    },
    {
      "channel": 1,
      "note": 80,
      "start": 49.0979,
      "duration": 0.0282,
      "velocity": 102,
      "chip": "ym2612"
    },
    {
      "channel": 2,
      "note": 88,
      "start": 49.0986,
      "duration": 0.0278,
      "velocity": 103,
      "chip": "ym2612"
    },
    {
      "channel": 0,
      "note": 54,
      "start": 49.1474,
      "duration": 0.1044,
      "velocity": 91,
      "chip": "ym2612"
    },
    {
      "channel": 1,
      "note": 76,
      "start": 49.1481,
      "duration": 0.0927,
      "velocity": 102,
      "chip": "ym2612"
    },
    {
      "channel": 2,
      "note": 85,
      "start": 49.1489,
      "duration": 0.0922,
      "velocity": 103,
      "chip": "ym2612"
    },
    {
      "channel": 0,
      "note": 57,
      "start": 49.2632,
      "duration": 0.2905,
      "velocity": 91,
      "chip": "ym2612"
    },
    {
      "channel": 1,
      "note": 78,
      "start": 49.264,
      "duration": 0.2401,
      "velocity": 102,
      "chip": "ym2612"
    },
    {
      "channel": 2,
      "note": 85,
      "start": 49.2647,
      "duration": 0.2402,
      "velocity": 103,
      "chip": "ym2612"
    },
    {
      "channel": 3,
      "note": 69,
      "start": 49.2654,
      "duration": 0.0271,
      "velocity": 104,
      "chip": "ym2612"
    },
    {
      "channel": 4,
      "note": 73,
      "start": 49.2662,
      "duration": 0.0266,
      "velocity": 104,
      "chip": "ym2612"
    },
    {
      "channel": 1,
      "note": 76,
      "start": 49.5048,
      "duration": 0.1676,
      "velocity": 102,
      "chip": "ym2612"
    },
    {
      "channel": 2,
      "note": 85,
      "start": 49.5055,
      "duration": 0.1676,
      "velocity": 103,
      "chip": "ym2612"
    },
    {
      "channel": 3,
      "note": 69,
      "start": 49.5062,
      "duration": 0.116,
      "velocity": 104,
      "chip": "ym2612"
    },
    {
      "channel": 4,
      "note": 73,
      "start": 49.507,
      "duration": 0.1155,
      "velocity": 104,
      "chip": "ym2612"
    },
    {
      "channel": 0,
      "note": 57,
      "start": 49.6212,
      "duration": 0.0754,
      "velocity": 91,
      "chip": "ym2612"
    },
    {
      "channel": 1,
      "note": 74,
      "start": 49.673,
      "duration": 0.1027,
      "velocity": 102,
      "chip": "ym2612"
    },
    {
      "channel": 2,
      "note": 81,
      "start": 49.6737,
      "duration": 0.1026,
      "velocity": 103,
      "chip": "ym2612"
    },
    {
      "channel": 3,
      "note": 69,
      "start": 49.6744,
      "duration": 0.0341,
      "velocity": 104,
      "chip": "ym2612"
    },
    {
      "channel": 4,
      "note": 73,
      "start": 49.6752,
      "duration": 0.0336,
      "velocity": 104,
      "chip": "ym2612"
    },
    {
      "channel": 0,
      "note": 61,
      "start": 49.7076,
      "duration": 0.0389,
      "velocity": 91,
      "chip": "ym2612"
    },
    {
      "channel": 0,
      "note": 62,
      "start": 49.7755,
      "duration": 0.1994,
      "velocity": 91,
      "chip": "ym2612"
    },
    {
      "channel": 1,
      "note": 73,
      "start": 49.7762,
      "duration": 0.3163,
      "velocity": 102,
      "chip": "ym2612"
    },
    {
      "channel": 2,
      "note": 81,
      "start": 49.777,
      "duration": 0.3163,
      "velocity": 103,
      "chip": "ym2612"
    },
    {
      "channel": 3,
      "note": 69,
      "start": 49.8767,
      "duration": 0.0998,
      "velocity": 104,
      "chip": "ym2612"
    },
    {
      "channel": 4,
      "note": 73,
      "start": 49.8775,
      "duration": 0.0994,
      "velocity": 104,
      "chip": "ym2612"
    },
    {
      "channel": 0,
      "note": 63,
      "start": 49.9756,
      "duration": 0.1163,
      "velocity": 91,
      "chip": "ym2612"
    },
    {
      "channel": 0,
      "note": 64,
      "start": 50.0924,
      "duration": 0.0276,
      "velocity": 91,
      "chip": "ym2612"
    },
    {
      "channel": 1,
      "note": 71,
      "start": 50.0932,
      "duration": 0.0611,
      "velocity": 102,
      "chip": "ym2612"
    },
    {
      "channel": 2,
      "note": 76,
      "start": 50.0939,
      "duration": 0.0612,
      "velocity": 103,
      "chip": "ym2612"
    },
    {
      "channel": 3,
      "note": 69,
      "start": 50.0946,
      "duration": 0.0269,
      "velocity": 104,
      "chip": "ym2612"
    },
    {
      "channel": 4,
      "note": 73,
      "start": 50.0953,
      "duration": 0.0269,
      "velocity": 104,
      "chip": "ym2612"
    },
    {
      "channel": 0,
      "note": 57,
      "start": 50.1206,
      "duration": 0.033,
      "velocity": 91,
      "chip": "ym2612"
    },
    {
      "channel": 3,
      "note": 69,
      "start": 50.1221,
      "duration": 0.1296,
      "velocity": 104,
      "chip": "ym2612"
    },
    {
      "channel": 4,
      "note": 73,
      "start": 50.1229,
      "duration": 0.1295,
      "velocity": 104,
      "chip": "ym2612"
    },
    {
      "channel": 0,
      "note": 58,
      "start": 50.1542,
      "duration": 0.0953,
      "velocity": 91,
      "chip": "ym2612"
    },
    {
      "channel": 1,
      "note": 69,
      "start": 50.1549,
      "duration": 0.0953,
      "velocity": 102,
      "chip": "ym2612"
    },
    {
      "channel": 2,
      "note": 76,
      "start": 50.1556,
      "duration": 0.0953,
      "velocity": 103,
      "chip": "ym2612"
    },
    {
      "channel": 0,
      "note": 59,
      "start": 50.25,
      "duration": 0.3074,
      "velocity": 91,
      "chip": "ym2612"
    },
    {
      "channel": 1,
      "note": 71,
      "start": 50.2508,
      "duration": 0.257,
      "velocity": 102,
      "chip": "ym2612"
    },
    {
      "channel": 2,
      "note": 78,
      "start": 50.2515,
      "duration": 0.257,
      "velocity": 103,
      "chip": "ym2612"
    },
    {
      "channel": 3,
      "note": 71,
      "start": 50.2522,
      "duration": 0.0398,
      "velocity": 104,
      "chip": "ym2612"
    },
    {
      "channel": 4,
      "note": 75,
      "start": 50.253,
      "duration": 0.0393,
      "velocity": 104,
      "chip": "ym2612"
    },
    {
      "channel": 1,
      "note": 73,
      "start": 50.5084,
      "duration": 0.1563,
      "velocity": 102,
      "chip": "ym2612"
    },
    {
      "channel": 2,
      "note": 78,
      "start": 50.5091,
      "duration": 0.1564,
      "velocity": 103,
      "chip": "ym2612"
    },
    {
      "channel": 3,
      "note": 71,
      "start": 50.5099,
      "duration": 0.0993,
      "velocity": 104,
      "chip": "ym2612"
    },
    {
      "channel": 4,
      "note": 75,
      "start": 50.5107,
      "duration": 0.0988,
      "velocity": 104,
      "chip": "ym2612"
    },
    {
      "channel": 0,
      "note": 59,
      "start": 50.6082,
      "duration": 0.0761,
      "velocity": 91,
      "chip": "ym2612"
    },
    {
      "channel": 1,
      "note": 66,
      "start": 50.6654,
      "duration": 1.0256,
      "velocity": 102,
      "chip": "ym2612"
    },
    {
      "channel": 2,
      "note": 75,
      "start": 50.6661,
      "duration": 1.0255,
      "velocity": 103,
      "chip": "ym2612"
    },
    {
      "channel": 3,
      "note": 71,
      "start": 50.6669,
      "duration": 0.0288,
      "velocity": 104,
      "chip": "ym2612"
    },
    {
      "channel": 4,
      "note": 75,
      "start": 50.6676,
      "duration": 0.0284,
      "velocity": 104,
      "chip": "ym2612"
    },
    {
      "channel": 0,
      "note": 54,
      "start": 50.6949,
      "duration": 0.044,
      "velocity": 91,
      "chip": "ym2612"
    },
    {
      "channel": 0,
      "note": 54,
      "start": 50.7513,
      "duration": 0.2158,
      "velocity": 91,
      "chip": "ym2612"
    },
    {
      "channel": 0,
      "note": 54,
      "start": 50.9675,
      "duration": 0.0998,
      "velocity": 91,
      "chip": "ym2612"
    },
    {
      "channel": 0,
      "note": 56,
      "start": 51.0679,
      "duration": 0.03,
      "velocity": 91,
      "chip": "ym2612"
    },
    {
      "channel": 0,
      "note": 54,
      "start": 51.0985,
      "duration": 0.0254,
      "velocity": 91,
      "chip": "ym2612"
    },
    {
      "channel": 0,
      "note": 56,
      "start": 51.1245,
      "duration": 0.1018,
      "velocity": 91,
      "chip": "ym2612"
    },
    {
      "channel": 0,
      "note": 59,
      "start": 51.2268,
      "duration": 0.2907,
      "velocity": 91,
      "chip": "ym2612"
    },
    {
      "channel": 3,
      "note": 71,
      "start": 51.2287,
      "duration": 0.029,
      "velocity": 104,
      "chip": "ym2612"
    },
    {
      "channel": 4,
      "note": 75,
      "start": 51.2295,
      "duration": 0.0285,
      "velocity": 104,
      "chip": "ym2612"
    },
    {
      "channel": 3,
      "note": 71,
      "start": 51.4693,
      "duration": 0.1,
      "velocity": 104,
      "chip": "ym2612"
    },
    {
      "channel": 4,
      "note": 75,
      "start": 51.4701,
      "duration": 0.0995,
      "velocity": 104,
      "chip": "ym2612"
    },
    {
      "channel": 0,
      "note": 59,
      "start": 51.5684,
      "duration": 0.0777,
      "velocity": 91,
      "chip": "ym2612"
    },
    {
      "channel": 3,
      "note": 71,
      "start": 51.6275,
      "duration": 0.0346,
      "velocity": 104,
      "chip": "ym2612"
    },
    {
      "channel": 4,
      "note": 75,
      "start": 51.6282,
      "duration": 0.0342,
      "velocity": 104,
      "chip": "ym2612"
    },
    {
      "channel": 0,
      "note": 63,
      "start": 51.6611,
      "duration": 0.0429,
      "velocity": 91,
      "chip": "ym2612"
    },
    {
      "channel": 1,
      "note": 66,
      "start": 51.6915,
      "duration": 0.3583,
      "velocity": 102,
      "chip": "ym2612"
    },
    {
      "channel": 2,
      "note": 75,
      "start": 51.692,
      "duration": 0.3585,
      "velocity": 103,
      "chip": "ym2612"
    },
    {
      "channel": 0,
      "note": 63,
      "start": 51.7161,
      "duration": 0.216,
      "velocity": 91,
      "chip": "ym2612"
    },
    {
      "channel": 3,
      "note": 71,
      "start": 51.834,
      "duration": 0.0997,
      "velocity": 104,
      "chip": "ym2612"
    },
    {
      "channel": 4,
      "note": 76,
      "start": 51.8347,
      "duration": 0.0993,
      "velocity": 104,
      "chip": "ym2612"
    },
    {
      "channel": 0,
      "note": 61,
      "start": 51.9328,
      "duration": 0.1163,
      "velocity": 91,
      "chip": "ym2612"
    },
    {
      "channel": 0,
      "note": 59,
      "start": 52.0496,
      "duration": 0.0277,
      "velocity": 91,
      "chip": "ym2612"
    },
    {
      "channel": 1,
      "note": 68,
      "start": 52.0503,
      "duration": 0.1571,
      "velocity": 102,
      "chip": "ym2612"
    },
    {
      "channel": 2,
      "note": 75,
      "start": 52.0511,
      "duration": 0.1571,
      "velocity": 103,
      "chip": "ym2612"
    },
    {
      "channel": 3,
      "note": 71,
      "start": 52.0518,
      "duration": 0.0271,
      "velocity": 104,
      "chip": "ym2612"
    },
    {
      "channel": 4,
      "note": 76,
      "start": 52.0526,
      "duration": 0.027,
      "velocity": 104,
      "chip": "ym2612"
    },
    {
      "channel": 0,
      "note": 58,
      "start": 52.0779,
      "duration": 0.028,
      "velocity": 91,
      "chip": "ym2612"
    },
    {
      "channel": 3,
      "note": 71,
      "start": 52.0794,
      "duration": 0.1295,
      "velocity": 104,
      "chip": "ym2612"
    },
    {
      "channel": 4,
      "note": 75,
      "start": 52.0802,
      "duration": 0.1295,
      "velocity": 104,
      "chip": "ym2612"
    },
    {
      "channel": 0,
      "note": 54,
      "start": 52.1065,
      "duration": 0.1002,
      "velocity": 91,
      "chip": "ym2612"
    },
    {
      "channel": 0,
      "note": 50,
      "start": 52.2073,
      "duration": 0.3072,
      "velocity": 91,
      "chip": "ym2612"
    },
    {
      "channel": 1,
      "note": 69,
      "start": 52.208,
      "duration": 41.4403,
      "velocity": 102,
      "chip": "ym2612"
    },
    {
      "channel": 2,
      "note": 78,
      "start": 52.2088,
      "duration": 41.4395,
      "velocity": 103,
      "chip": "ym2612"
    },
    {
      "channel": 3,
      "note": 69,
      "start": 52.2095,
      "duration": 0.0394,
      "velocity": 104,
      "chip": "ym2612"
    },
    {
      "channel": 4,
      "note": 74,
      "start": 52.2102,
      "duration": 0.039,
      "velocity": 104,
      "chip": "ym2612"
    },
    {
      "channel": 3,
      "note": 69,
      "start": 52.4495,
      "duration": 0.1168,
      "velocity": 104,
      "chip": "ym2612"
    },
    {
      "channel": 4,
      "note": 74,
      "start": 52.4502,
      "duration": 0.1163,
      "velocity": 104,
      "chip": "ym2612"
    },
    {
      "channel": 0,
      "note": 50,
      "start": 52.5653,
      "duration": 0.0761,
      "velocity": 91,
      "chip": "ym2612"
    },
    {
      "channel": 3,
      "note": 69,
      "start": 52.6233,
      "duration": 0.0297,
      "velocity": 104,
      "chip": "ym2612"
    },
    {
      "channel": 4,
      "note": 74,
      "start": 52.624,
      "duration": 0.0293,
      "velocity": 104,
      "chip": "ym2612"
    },
    {
      "channel": 0,
      "note": 57,
      "start": 52.6521,
      "duration": 0.043,
      "velocity": 91,
      "chip": "ym2612"
    },
    {
      "channel": 0,
      "note": 62,
      "start": 52.72,
      "duration": 0.0993,
      "velocity": 91,
      "chip": "ym2612"
    },
    {
      "channel": 0,
      "note": 50,
      "start": 52.82,
      "duration": 0.2163,
      "velocity": 91,
      "chip": "ym2612"
    },
    {
      "channel": 0,
      "note": 52,
      "start": 53.0369,
      "duration": 0.0417,
      "velocity": 91,
      "chip": "ym2612"
    },
    {
      "channel": 0,
      "note": 54,
      "start": 53.0919,
      "duration": 40.5565,
      "velocity": 91,
      "chip": "ym2612"
    }
  ]
}