{
  "track_name": "03 - Roster Tune",
  "duration_sec": 37.066,
  "sample_rate": 44100,
  "note_count": 307,
  "unique_pitches": 16,
  "pitch_range": 38,
  "avg_note_duration": 0.1433,
  "reconstruction_stats": {
    "notes_reconstructed": 307,
    "keyon_events": 307,
    "keyoff_events": 307,
    "orphan_keyons": 0,
    "unique_pitches": 16,
    "pitch_range": 38,
    "avg_duration_sec": 0.1433
  },
  "metadata": {
    "source": "N\\NFL '95\\03 - Roster Tune.vgz"
  },
  "notes": [
    {
      "channel": 4,
      "note": 52,
      "start": 0.0078,
      "duration": 0.0556,
      "velocity": 88,
      "chip": "ym2612"
    },
    {
      "channel": 0,
      "note": 81,
      "start": 0.0134,
      "duration": 0.0421,
      "velocity": 103,
      "chip": "ym2612"
    },
    {
      "channel": 3,
      "note": 52,
      "start": 0.0217,
      "duration": 0.0935,
      "velocity": 106,
      "chip": "ym2612"
    },
    {
      "channel": 1,
      "note": 59,
      "start": 0.0274,
      "duration": 0.0876,
      "velocity": 106,
      "chip": "ym2612"
    },
    {
      "channel": 2,
      "note": 81,
      "start": 0.1099,
      "duration": 0.0958,
      "velocity": 103,
      "chip": "ym2612"
    },
    {
      "channel": 0,
      "note": 81,
      "start": 0.3284,
      "duration": 0.0399,
      "velocity": 103,
      "chip": "ym2612"
    },
    {
      "channel": 4,
      "note": 55,
      "start": 0.4583,
      "duration": 0.0484,
      "velocity": 88,
      "chip": "ym2612"
    },
    {
      "channel": 2,
      "note": 81,
      "start": 0.4609,
      "duration": 0.0388,
      "velocity": 103,
      "chip": "ym2612"
    },
    {
      "channel": 0,
      "note": 81,
      "start": 0.562,
      "duration": 0.0981,
      "velocity": 103,
      "chip": "ym2612"
    },
    {
      "channel": 4,
      "note": 52,
      "start": 0.7838,
      "duration": 0.0564,
      "velocity": 88,
      "chip": "ym2612"
    },
    {
      "channel": 2,
      "note": 81,
      "start": 0.7864,
      "duration": 0.0468,
      "velocity": 103,
      "chip": "ym2612"
    },
    {
      "channel": 4,
      "note": 55,
      "start": 0.8923,
      "duration": 0.0394,
      "velocity": 88,
      "chip": "ym2612"
    },
    {
      "channel": 0,
      "note": 81,
      "start": 0.8944,
      "duration": 0.0371,
      "velocity": 103,
      "chip": "ym2612"
    },
    {
      "channel": 4,
      "note": 56,
      "start": 1.0022,
      "duration": 0.0641,
      "velocity": 88,
      "chip": "ym2612"
    },
    {
      "channel": 2,
      "note": 81,
      "start": 1.0052,
      "duration": 0.0473,
      "velocity": 103,
      "chip": "ym2612"
    },
    {
      "channel": 4,
      "note": 57,
      "start": 1.1112,
      "duration": 0.0558,
      "velocity": 88,
      "chip": "ym2612"
    },
    {
      "channel": 0,
      "note": 81,
      "start": 1.1138,
      "duration": 0.0459,
      "velocity": 103,
      "chip": "ym2612"
    },
    {
      "channel": 3,
      "note": 57,
      "start": 1.1168,
      "duration": 0.0784,
      "velocity": 106,
      "chip": "ym2612"
    },
    {
      "channel": 1,
      "note": 64,
      "start": 1.1193,
      "duration": 0.0758,
      "velocity": 106,
      "chip": "ym2612"
    },
    {
      "channel": 2,
      "note": 81,
      "start": 1.2136,
      "duration": 0.0928,
      "velocity": 103,
      "chip": "ym2612"
    },
    {
      "channel": 0,
      "note": 81,
      "start": 1.4291,
      "duration": 0.0478,
      "velocity": 103,
      "chip": "ym2612"
    },
    {
      "channel": 4,
      "note": 45,
      "start": 1.5617,
      "duration": 0.0878,
      "velocity": 88,
      "chip": "ym2612"
    },
    {
      "channel": 2,
      "note": 81,
      "start": 1.5644,
      "duration": 0.0474,
      "velocity": 103,
      "chip": "ym2612"
    },
    {
      "channel": 0,
      "note": 81,
      "start": 1.6668,
      "duration": 0.0979,
      "velocity": 103,
      "chip": "ym2612"
    },
    {
      "channel": 4,
      "note": 45,
      "start": 1.888,
      "duration": 0.0564,
      "velocity": 88,
      "chip": "ym2612"
    },
    {
      "channel": 2,
      "note": 81,
      "start": 1.8906,
      "duration": 0.0467,
      "velocity": 103,
      "chip": "ym2612"
    },
    {
      "channel": 4,
      "note": 48,
      "start": 1.9967,
      "duration": 0.0543,
      "velocity": 88,
      "chip": "ym2612"
    },
    {
      "channel": 0,
      "note": 81,
      "start": 1.9994,
      "duration": 0.0514,
      "velocity": 103,
      "chip": "ym2612"
    },
    {
      "channel": 4,
      "note": 50,
      "start": 2.1207,
      "duration": 0.1137,
      "velocity": 88,
      "chip": "ym2612"
    },
    {
      "channel": 2,
      "note": 81,
      "start": 2.1235,
      "duration": 0.1277,
      "velocity": 103,
      "chip": "ym2612"
    },
    {
      "channel": 4,
      "note": 52,
      "start": 2.3575,
      "duration": 0.0648,
      "velocity": 88,
      "chip": "ym2612"
    },
    {
      "channel": 0,
      "note": 81,
      "start": 2.3599,
      "duration": 0.0409,
      "velocity": 103,
      "chip": "ym2612"
    },
    {
      "channel": 3,
      "note": 52,
      "start": 2.3627,
      "duration": 0.0821,
      "velocity": 106,
      "chip": "ym2612"
    },
    {
      "channel": 1,
      "note": 59,
      "start": 2.3654,
      "duration": 0.0793,
      "velocity": 106,
      "chip": "ym2612"
    },
    {
      "channel": 2,
      "note": 81,
      "start": 2.4548,
      "duration": 0.0867,
      "velocity": 103,
      "chip": "ym2612"
    },
    {
      "channel": 0,
      "note": 81,
      "start": 2.6643,
      "duration": 0.0546,
      "velocity": 103,
      "chip": "ym2612"
    },
    {
      "channel": 4,
      "note": 55,
      "start": 2.7961,
      "duration": 0.0649,
      "velocity": 88,
      "chip": "ym2612"
    },
    {
      "channel": 2,
      "note": 81,
      "start": 2.7987,
      "duration": 0.0548,
      "velocity": 103,
      "chip": "ym2612"
    },
    {
      "channel": 0,
      "note": 81,
      "start": 2.901,
      "duration": 0.1148,
      "velocity": 103,
      "chip": "ym2612"
    },
    {
      "channel": 4,
      "note": 52,
      "start": 3.1227,
      "duration": 0.0549,
      "velocity": 88,
      "chip": "ym2612"
    },
    {
      "channel": 2,
      "note": 81,
      "start": 3.1251,
      "duration": 0.0527,
      "velocity": 103,
      "chip": "ym2612"
    },
    {
      "channel": 4,
      "note": 55,
      "start": 3.2291,
      "duration": 0.0472,
      "velocity": 88,
      "chip": "ym2612"
    },
    {
      "channel": 0,
      "note": 81,
      "start": 3.2316,
      "duration": 0.0599,
      "velocity": 103,
      "chip": "ym2612"
    },
    {
      "channel": 4,
      "note": 56,
      "start": 3.358,
      "duration": 0.0637,
      "velocity": 88,
      "chip": "ym2612"
    },
    {
      "channel": 2,
      "note": 81,
      "start": 3.3607,
      "duration": 0.0612,
      "velocity": 103,
      "chip": "ym2612"
    },
    {
      "channel": 4,
      "note": 57,
      "start": 3.4653,
      "duration": 0.0561,
      "velocity": 88,
      "chip": "ym2612"
    },
    {
      "channel": 0,
      "note": 81,
      "start": 3.4676,
      "duration": 0.0536,
      "velocity": 103,
      "chip": "ym2612"
    },
    {
      "channel": 3,
      "note": 57,
      "start": 3.4708,
      "duration": 0.0939,
      "velocity": 106,
      "chip": "ym2612"
    },
    {
      "channel": 1,
      "note": 64,
      "start": 3.4737,
      "duration": 0.091,
      "velocity": 106,
      "chip": "ym2612"
    },
    {
      "channel": 2,
      "note": 81,
      "start": 3.5678,
      "duration": 0.1106,
      "velocity": 103,
      "chip": "ym2612"
    },
    {
      "channel": 0,
      "note": 81,
      "start": 3.7845,
      "duration": 0.0407,
      "velocity": 103,
      "chip": "ym2612"
    },
    {
      "channel": 4,
      "note": 45,
      "start": 3.9003,
      "duration": 0.071,
      "velocity": 88,
      "chip": "ym2612"
    },
    {
      "channel": 2,
      "note": 81,
      "start": 3.9033,
      "duration": 0.0467,
      "velocity": 103,
      "chip": "ym2612"
    },
    {
      "channel": 4,
      "note": 45,
      "start": 4.0044,
      "duration": 0.198,
      "velocity": 88,
      "chip": "ym2612"
    },
    {
      "channel": 0,
      "note": 81,
      "start": 4.0069,
      "duration": 0.0954,
      "velocity": 103,
      "chip": "ym2612"
    },
    {
      "channel": 2,
      "note": 81,
      "start": 4.2255,
      "duration": 0.0478,
      "velocity": 103,
      "chip": "ym2612"
    },
    {
      "channel": 0,
      "note": 81,
      "start": 4.3307,
      "duration": 0.0479,
      "velocity": 103,
      "chip": "ym2612"
    },
    {
      "channel": 2,
      "note": 81,
      "start": 4.4605,
      "duration": 0.0476,
      "velocity": 103,
      "chip": "ym2612"
    },
    {
      "channel": 4,
      "note": 52,
      "start": 4.5917,
      "duration": 0.0576,
      "velocity": 88,
      "chip": "ym2612"
    },
    {
      "channel": 0,
      "note": 81,
      "start": 4.5947,
      "duration": 0.0546,
      "velocity": 103,
      "chip": "ym2612"
    },
    {
      "channel": 3,
      "note": 52,
      "start": 4.6,
      "duration": 0.1013,
      "velocity": 106,
      "chip": "ym2612"
    },
    {
      "channel": 1,
      "note": 59,
      "start": 4.6033,
      "duration": 0.098,
      "velocity": 106,
      "chip": "ym2612"
    },
    {
      "channel": 2,
      "note": 81,
      "start": 4.6958,
      "duration": 0.0966,
      "velocity": 103,
      "chip": "ym2612"
    },
    {
      "channel": 0,
      "note": 81,
      "start": 4.9156,
      "duration": 0.0428,
      "velocity": 103,
      "chip": "ym2612"
    },
    {
      "channel": 4,
      "note": 67,
      "start": 4.9186,
      "duration": 0.0767,
      "velocity": 79,
      "chip": "ym2612"
    },
    {
      "channel": 1,
      "note": 67,
      "start": 4.9214,
      "duration": 0.0738,
      "velocity": 79,
      "chip": "ym2612"
    },
    {
      "channel": 3,
      "note": 55,
      "start": 5.0488,
      "duration": 0.0483,
      "velocity": 88,
      "chip": "ym2612"
    },
    {
      "channel": 2,
      "note": 81,
      "start": 5.0514,
      "duration": 0.0313,
      "velocity": 103,
      "chip": "ym2612"
    },
    {
      "channel": 0,
      "note": 81,
      "start": 5.1525,
      "duration": 0.0812,
      "velocity": 103,
      "chip": "ym2612"
    },
    {
      "channel": 4,
      "note": 64,
      "start": 5.1551,
      "duration": 0.1621,
      "velocity": 79,
      "chip": "ym2612"
    },
    {
      "channel": 1,
      "note": 64,
      "start": 5.1575,
      "duration": 0.1596,
      "velocity": 79,
      "chip": "ym2612"
    },
    {
      "channel": 3,
      "note": 52,
      "start": 5.357,
      "duration": 0.0646,
      "velocity": 88,
      "chip": "ym2612"
    },
    {
      "channel": 2,
      "note": 81,
      "start": 5.3596,
      "duration": 0.0474,
      "velocity": 103,
      "chip": "ym2612"
    },
    {
      "channel": 4,
      "note": 67,
      "start": 5.3624,
      "duration": 0.0745,
      "velocity": 79,
      "chip": "ym2612"
    },
    {
      "channel": 1,
      "note": 67,
      "start": 5.3661,
      "duration": 0.0707,
      "velocity": 79,
      "chip": "ym2612"
    },
    {
      "channel": 3,
      "note": 55,
      "start": 5.4657,
      "duration": 0.0496,
      "velocity": 88,
      "chip": "ym2612"
    },
    {
      "channel": 0,
      "note": 81,
      "start": 5.4681,
      "duration": 0.0471,
      "velocity": 103,
      "chip": "ym2612"
    },
    {
      "channel": 3,
      "note": 56,
      "start": 5.5971,
      "duration": 0.0576,
      "velocity": 88,
      "chip": "ym2612"
    },
    {
      "channel": 2,
      "note": 81,
      "start": 5.5997,
      "duration": 0.0479,
      "velocity": 103,
      "chip": "ym2612"
    },
    {
      "channel": 4,
      "note": 69,
      "start": 5.6022,
      "duration": 0.0752,
      "velocity": 79,
      "chip": "ym2612"
    },
    {
      "channel": 1,
      "note": 69,
      "start": 5.6044,
      "duration": 0.0729,
      "velocity": 79,
      "chip": "ym2612"
    },
    {
      "channel": 3,
      "note": 57,
      "start": 5.7072,
      "duration": 0.0587,
      "velocity": 88,
      "chip": "ym2612"
    },
    {
      "channel": 0,
      "note": 81,
      "start": 5.7095,
      "duration": 0.048,
      "velocity": 103,
      "chip": "ym2612"
    },
    {
      "channel": 2,
      "note": 57,
      "start": 5.7126,
      "duration": 0.0825,
      "velocity": 106,
      "chip": "ym2612"
    },
    {
      "channel": 1,
      "note": 64,
      "start": 5.7156,
      "duration": 0.0793,
      "velocity": 106,
      "chip": "ym2612"
    },
    {
      "channel": 4,
      "note": 81,
      "start": 5.8133,
      "duration": 0.0957,
      "velocity": 103,
      "chip": "ym2612"
    },
    {
      "channel": 0,
      "note": 72,
      "start": 5.816,
      "duration": 0.1762,
      "velocity": 79,
      "chip": "ym2612"
    },
    {
      "channel": 3,
      "note": 72,
      "start": 5.8199,
      "duration": 0.1725,
      "velocity": 79,
      "chip": "ym2612"
    },
    {
      "channel": 1,
      "note": 81,
      "start": 6.0319,
      "duration": 0.0481,
      "velocity": 103,
      "chip": "ym2612"
    },
    {
      "channel": 2,
      "note": 45,
      "start": 6.1635,
      "duration": 0.0817,
      "velocity": 88,
      "chip": "ym2612"
    },
    {
      "channel": 4,
      "note": 81,
      "start": 6.1659,
      "duration": 0.0489,
      "velocity": 103,
      "chip": "ym2612"
    },
    {
      "channel": 0,
      "note": 69,
      "start": 6.1687,
      "duration": 0.408,
      "velocity": 79,
      "chip": "ym2612"
    },
    {
      "channel": 3,
      "note": 69,
      "start": 6.1713,
      "duration": 0.4056,
      "velocity": 79,
      "chip": "ym2612"
    },
    {
      "channel": 1,
      "note": 81,
      "start": 6.2694,
      "duration": 0.0976,
      "velocity": 103,
      "chip": "ym2612"
    },
    {
      "channel": 2,
      "note": 45,
      "start": 6.4902,
      "duration": 0.0567,
      "velocity": 88,
      "chip": "ym2612"
    },
    {
      "channel": 4,
      "note": 81,
      "start": 6.4926,
      "duration": 0.0471,
      "velocity": 103,
      "chip": "ym2612"
    },
    {
      "channel": 2,
      "note": 48,
      "start": 6.5985,
      "duration": 0.0556,
      "velocity": 88,
      "chip": "ym2612"
    },
    {
      "channel": 1,
      "note": 81,
      "start": 6.6009,
      "duration": 0.0529,
      "velocity": 103,
      "chip": "ym2612"
    },
    {
      "channel": 0,
      "note": 67,
      "start": 6.604,
      "duration": 0.0811,
      "velocity": 79,
      "chip": "ym2612"
    },
    {
      "channel": 3,
      "note": 67,
      "start": 6.6068,
      "duration": 0.0785,
      "velocity": 79,
      "chip": "ym2612"
    },
    {
      "channel": 2,
      "note": 50,
      "start": 6.7053,
      "duration": 0.1135,
      "velocity": 88,
      "chip": "ym2612"
    },
    {
      "channel": 4,
      "note": 81,
      "start": 6.7081,
      "duration": 0.1439,
      "velocity": 103,
      "chip": "ym2612"
    },
    {
      "channel": 0,
      "note": 64,
      "start": 6.7111,
      "duration": 0.174,
      "velocity": 79,
      "chip": "ym2612"
    },
    {
      "channel": 3,
      "note": 64,
      "start": 6.7139,
      "duration": 0.1714,
      "velocity": 79,
      "chip": "ym2612"
    },
    {
      "channel": 2,
      "note": 52,
      "start": 6.9417,
      "duration": 0.0736,
      "velocity": 88,
      "chip": "ym2612"
    },
    {
      "channel": 1,
      "note": 81,
      "start": 6.9439,
      "duration": 0.0486,
      "velocity": 103,
      "chip": "ym2612"
    },
    {
      "channel": 4,
      "note": 52,
      "start": 6.947,
      "duration": 0.0883,
      "velocity": 106,
      "chip": "ym2612"
    },
    {
      "channel": 0,
      "note": 59,
      "start": 6.9497,
      "duration": 0.0854,
      "velocity": 106,
      "chip": "ym2612"
    },
    {
      "channel": 3,
      "note": 81,
      "start": 7.0454,
      "duration": 0.0965,
      "velocity": 103,
      "chip": "ym2612"
    },
    {
      "channel": 1,
      "note": 81,
      "start": 7.2655,
      "duration": 0.0583,
      "velocity": 103,
      "chip": "ym2612"
    },
    {
      "channel": 2,
      "note": 67,
      "start": 7.2684,
      "duration": 0.0909,
      "velocity": 79,
      "chip": "ym2612"
    },
    {
      "channel": 0,
      "note": 67,
      "start": 7.2713,
      "duration": 0.0877,
      "velocity": 79,
      "chip": "ym2612"
    },
    {
      "channel": 4,
      "note": 55,
      "start": 7.399,
      "duration": 0.0625,
      "velocity": 88,
      "chip": "ym2612"
    },
    {
      "channel": 3,
      "note": 81,
      "start": 7.4013,
      "duration": 0.0526,
      "velocity": 103,
      "chip": "ym2612"
    },
    {
      "channel": 1,
      "note": 81,
      "start": 7.5019,
      "duration": 0.1149,
      "velocity": 103,
      "chip": "ym2612"
    },
    {
      "channel": 2,
      "note": 64,
      "start": 7.5049,
      "duration": 0.1956,
      "velocity": 79,
      "chip": "ym2612"
    },
    {
      "channel": 0,
      "note": 64,
      "start": 7.5076,
      "duration": 0.1926,
      "velocity": 79,
      "chip": "ym2612"
    },
    {
      "channel": 4,
      "note": 52,
      "start": 7.7234,
      "duration": 0.058,
      "velocity": 88,
      "chip": "ym2612"
    },
    {
      "channel": 3,
      "note": 81,
      "start": 7.7257,
      "duration": 0.0556,
      "velocity": 103,
      "chip": "ym2612"
    },
    {
      "channel": 2,
      "note": 67,
      "start": 7.7288,
      "duration": 0.0601,
      "velocity": 79,
      "chip": "ym2612"
    },
    {
      "channel": 0,
      "note": 67,
      "start": 7.7311,
      "duration": 0.0575,
      "velocity": 79,
      "chip": "ym2612"
    },
    {
      "channel": 4,
      "note": 55,
      "start": 7.8319,
      "duration": 0.049,
      "velocity": 88,
      "chip": "ym2612"
    },
    {
      "channel": 1,
      "note": 81,
      "start": 7.8343,
      "duration": 0.0597,
      "velocity": 103,
      "chip": "ym2612"
    },
    {
      "channel": 4,
      "note": 56,
      "start": 7.9622,
      "duration": 0.0666,
      "velocity": 88,
      "chip": "ym2612"
    },
    {
      "channel": 3,
      "note": 81,
      "start": 7.9646,
      "duration": 0.0641,
      "velocity": 103,
      "chip": "ym2612"
    },
    {
      "channel": 2,
      "note": 69,
      "start": 7.9677,
      "duration": 0.0694,
      "velocity": 79,
      "chip": "ym2612"
    },
    {
      "channel": 0,
      "note": 69,
      "start": 7.9699,
      "duration": 0.0669,
      "velocity": 79,
      "chip": "ym2612"
    },
    {
      "channel": 4,
      "note": 57,
      "start": 8.0726,
      "duration": 0.0569,
      "velocity": 88,
      "chip": "ym2612"
    },
    {
      "channel": 1,
      "note": 81,
      "start": 8.075,
      "duration": 0.0544,
      "velocity": 103,
      "chip": "ym2612"
    },
    {
      "channel": 3,
      "note": 57,
      "start": 8.0781,
      "duration": 0.0884,
      "velocity": 106,
      "chip": "ym2612"
    },
    {
      "channel": 0,
      "note": 64,
      "start": 8.0808,
      "duration": 0.0856,
      "velocity": 106,
      "chip": "ym2612"
    },
    {
      "channel": 2,
      "note": 81,
      "start": 8.1697,
      "duration": 0.1182,
      "velocity": 103,
      "chip": "ym2612"
    },
    {
      "channel": 1,
      "note": 60,
      "start": 8.1732,
      "duration": 0.8022,
      "velocity": 79,
      "chip": "ym2612"
    },
    {
      "channel": 4,
      "note": 60,
      "start": 8.1774,
      "duration": 0.7981,
      "velocity": 79,
      "chip": "ym2612"
    },
    {
      "channel": 0,
      "note": 81,
      "start": 8.3782,
      "duration": 0.0465,
      "velocity": 103,
      "chip": "ym2612"
    },
    {
      "channel": 3,
      "note": 45,
      "start": 8.5099,
      "duration": 0.0718,
      "velocity": 88,
      "chip": "ym2612"
    },
    {
      "channel": 2,
      "note": 81,
      "start": 8.5124,
      "duration": 0.0478,
      "velocity": 103,
      "chip": "ym2612"
    },
    {
      "channel": 3,
      "note": 45,
      "start": 8.6147,
      "duration": 0.1982,
      "velocity": 88,
      "chip": "ym2612"
    },
    {
      "channel": 0,
      "note": 81,
      "start": 8.617,
      "duration": 0.0959,
      "velocity": 103,
      "chip": "ym2612"
    },
    {
      "channel": 2,
      "note": 81,
      "start": 8.8363,
      "duration": 0.0487,
      "velocity": 103,
      "chip": "ym2612"
    },
    {
      "channel": 0,
      "note": 81,
      "start": 8.9434,
      "duration": 0.0469,
      "velocity": 103,
      "chip": "ym2612"
    },
    {
      "channel": 2,
      "note": 81,
      "start": 9.0736,
      "duration": 0.0484,
      "velocity": 103,
      "chip": "ym2612"
    },
    {
      "channel": 3,
      "note": 52,
      "start": 9.2067,
      "duration": 0.0559,
      "velocity": 88,
      "chip": "ym2612"
    },
    {
      "channel": 0,
      "note": 81,
      "start": 9.209,
      "duration": 0.0465,
      "velocity": 103,
      "chip": "ym2612"
    },
    {
      "channel": 1,
      "note": 52,
      "start": 9.2124,
      "duration": 0.079,
      "velocity": 106,
      "chip": "ym2612"
    },
    {
      "channel": 4,
      "note": 59,
      "start": 9.2165,
      "duration": 0.075,
      "velocity": 106,
      "chip": "ym2612"
    },
    {
      "channel": 2,
      "note": 81,
      "start": 9.3087,
      "duration": 0.0973,
      "velocity": 103,
      "chip": "ym2612"
    },
    {
      "channel": 0,
      "note": 81,
      "start": 9.5293,
      "duration": 0.0354,
      "velocity": 103,
      "chip": "ym2612"
    },
    {
      "channel": 3,
      "note": 67,
      "start": 9.5324,
      "duration": 0.0895,
      "velocity": 79,
      "chip": "ym2612"
    },
    {
      "channel": 1,
      "note": 67,
      "start": 9.535,
      "duration": 0.0867,
      "velocity": 79,
      "chip": "ym2612"
    },
    {
      "channel": 4,
      "note": 55,
      "start": 9.6451,
      "duration": 0.0476,
      "velocity": 88,
      "chip": "ym2612"
    },
    {
      "channel": 2,
      "note": 81,
      "start": 9.6477,
      "duration": 0.038,
      "velocity": 103,
      "chip": "ym2612"
    },
    {
      "channel": 0,
      "note": 81,
      "start": 9.7469,
      "duration": 0.0978,
      "velocity": 103,
      "chip": "ym2612"
    },
    {
      "channel": 3,
      "note": 64,
      "start": 9.7497,
      "duration": 0.1786,
      "velocity": 79,
      "chip": "ym2612"
    },
    {
      "channel": 1,
      "note": 64,
      "start": 9.7523,
      "duration": 0.1758,
      "velocity": 79,
      "chip": "ym2612"
    },
    {
      "channel": 4,
      "note": 52,
      "start": 9.9683,
      "duration": 0.058,
      "velocity": 88,
      "chip": "ym2612"
    },
    {
      "channel": 2,
      "note": 81,
      "start": 9.9709,
      "duration": 0.0483,
      "velocity": 103,
      "chip": "ym2612"
    },
    {
      "channel": 3,
      "note": 67,
      "start": 9.9739,
      "duration": 0.0683,
      "velocity": 79,
      "chip": "ym2612"
    },
    {
      "channel": 1,
      "note": 67,
      "start": 9.9765,
      "duration": 0.0656,
      "velocity": 79,
      "chip": "ym2612"
    },
    {
      "channel": 4,
      "note": 55,
      "start": 10.0775,
      "duration": 0.0499,
      "velocity": 88,
      "chip": "ym2612"
    },
    {
      "channel": 0,
      "note": 81,
      "start": 10.0797,
      "duration": 0.0475,
      "velocity": 103,
      "chip": "ym2612"
    },
    {
      "channel": 4,
      "note": 56,
      "start": 10.2091,
      "duration": 0.0583,
      "velocity": 88,
      "chip": "ym2612"
    },
    {
      "channel": 2,
      "note": 81,
      "start": 10.2115,
      "duration": 0.0486,
      "velocity": 103,
      "chip": "ym2612"
    },
    {
      "channel": 3,
      "note": 69,
      "start": 10.2143,
      "duration": 0.0687,
      "velocity": 79,
      "chip": "ym2612"
    },
    {
      "channel": 1,
      "note": 69,
      "start": 10.2166,
      "duration": 0.0662,
      "velocity": 79,
      "chip": "ym2612"
    },
    {
      "channel": 4,
      "note": 57,
      "start": 10.3184,
      "duration": 0.0576,
      "velocity": 88,
      "chip": "ym2612"
    },
    {
      "channel": 0,
      "note": 81,
      "start": 10.3206,
      "duration": 0.0475,
      "velocity": 103,
      "chip": "ym2612"
    },
    {
      "channel": 2,
      "note": 57,
      "start": 10.3236,
      "duration": 0.0892,
      "velocity": 106,
      "chip": "ym2612"
    },
    {
      "channel": 1,
      "note": 64,
      "start": 10.3261,
      "duration": 0.0864,
      "velocity": 106,
      "chip": "ym2612"
    },
    {
      "channel": 3,
      "note": 81,
      "start": 10.4215,
      "duration": 0.0957,
      "velocity": 103,
      "chip": "ym2612"
    },
    {
      "channel": 0,
      "note": 72,
      "start": 10.4255,
      "duration": 0.4112,
      "velocity": 79,
      "chip": "ym2612"
    },
    {
      "channel": 4,
      "note": 72,
      "start": 10.4288,
      "duration": 0.4081,
      "velocity": 79,
      "chip": "ym2612"
    },
    {
      "channel": 1,
      "note": 81,
      "start": 10.6401,
      "duration": 0.0473,
      "velocity": 103,
      "chip": "ym2612"
    },
    {
      "channel": 2,
      "note": 45,
      "start": 10.7726,
      "duration": 0.079,
      "velocity": 88,
      "chip": "ym2612"
    },
    {
      "channel": 3,
      "note": 81,
      "start": 10.7749,
      "duration": 0.0473,
      "velocity": 103,
      "chip": "ym2612"
    },
    {
      "channel": 1,
      "note": 81,
      "start": 10.8773,
      "duration": 0.0981,
      "velocity": 103,
      "chip": "ym2612"
    },
    {
      "channel": 0,
      "note": 69,
      "start": 10.8798,
      "duration": 0.297,
      "velocity": 79,
      "chip": "ym2612"
    },
    {
      "channel": 4,
      "note": 69,
      "start": 10.8826,
      "duration": 0.2943,
      "velocity": 79,
      "chip": "ym2612"
    },
    {
      "channel": 2,
      "note": 45,
      "start": 11.0823,
      "duration": 0.0654,
      "velocity": 88,
      "chip": "ym2612"
    },
    {
      "channel": 3,
      "note": 81,
      "start": 11.0846,
      "duration": 0.0484,
      "velocity": 103,
      "chip": "ym2612"
    },
    {
      "channel": 2,
      "note": 48,
      "start": 11.1922,
      "duration": 0.0565,
      "velocity": 88,
      "chip": "ym2612"
    },
    {
      "channel": 1,
      "note": 81,
      "start": 11.1946,
      "duration": 0.0538,
      "velocity": 103,
      "chip": "ym2612"
    },
    {
      "channel": 0,
      "note": 67,
      "start": 11.1976,
      "duration": 0.0995,
      "velocity": 79,
      "chip": "ym2612"
    },
    {
      "channel": 4,
      "note": 67,
      "start": 11.2003,
      "duration": 0.0969,
      "velocity": 79,
      "chip": "ym2612"
    },
    {
      "channel": 2,
      "note": 50,
      "start": 11.3171,
      "duration": 0.1138,
      "velocity": 88,
      "chip": "ym2612"
    },
    {
      "channel": 3,
      "note": 81,
      "start": 11.3198,
      "duration": 0.1276,
      "velocity": 103,
      "chip": "ym2612"
    },
    {
      "channel": 0,
      "note": 64,
      "start": 11.3227,
      "duration": 0.1745,
      "velocity": 79,
      "chip": "ym2612"
    },
    {
      "channel": 4,
      "note": 64,
      "start": 11.3256,
      "duration": 0.1718,
      "velocity": 79,
      "chip": "ym2612"
    },
    {
      "channel": 2,
      "note": 52,
      "start": 11.5542,
      "duration": 0.0634,
      "velocity": 88,
      "chip": "ym2612"
    },
    {
      "channel": 1,
      "note": 81,
      "start": 11.5564,
      "duration": 0.0467,
      "velocity": 103,
      "chip": "ym2612"
    },
    {
      "channel": 3,
      "note": 52,
      "start": 11.5595,
      "duration": 0.0938,
      "velocity": 106,
      "chip": "ym2612"
    },
    {
      "channel": 0,
      "note": 59,
      "start": 11.5623,
      "duration": 0.0908,
      "velocity": 106,
      "chip": "ym2612"
    },
    {
      "channel": 4,
      "note": 81,
      "start": 11.6564,
      "duration": 0.0966,
      "velocity": 103,
      "chip": "ym2612"
    },
    {
      "channel": 1,
      "note": 81,
      "start": 11.8758,
      "duration": 0.0576,
      "velocity": 103,
      "chip": "ym2612"
    },
    {
      "channel": 2,
      "note": 67,
      "start": 11.8788,
      "duration": 0.1065,
      "velocity": 79,
      "chip": "ym2612"
    },
    {
      "channel": 0,
      "note": 67,
      "start": 11.8817,
      "duration": 0.1033,
      "velocity": 79,
      "chip": "ym2612"
    },
    {
      "channel": 3,
      "note": 55,
      "start": 12.0086,
      "duration": 0.0629,
      "velocity": 88,
      "chip": "ym2612"
    },
    {
      "channel": 4,
      "note": 81,
      "start": 12.0114,
      "duration": 0.0528,
      "velocity": 103,
      "chip": "ym2612"
    },
    {
      "channel": 1,
      "note": 81,
      "start": 12.1125,
      "duration": 0.1149,
      "velocity": 103,
      "chip": "ym2612"
    },
    {
      "channel": 2,
      "note": 64,
      "start": 12.1154,
      "duration": 0.1789,
      "velocity": 79,
      "chip": "ym2612"
    },
    {
      "channel": 0,
      "note": 64,
      "start": 12.1176,
      "duration": 0.1763,
      "velocity": 79,
      "chip": "ym2612"
    },
    {
      "channel": 3,
      "note": 52,
      "start": 12.3338,
      "duration": 0.0584,
      "velocity": 88,
      "chip": "ym2612"
    },
    {
      "channel": 4,
      "note": 81,
      "start": 12.3361,
      "duration": 0.0562,
      "velocity": 103,
      "chip": "ym2612"
    },
    {
      "channel": 2,
      "note": 67,
      "start": 12.3394,
      "duration": 0.0754,
      "velocity": 79,
      "chip": "ym2612"
    },
    {
      "channel": 0,
      "note": 67,
      "start": 12.3432,
      "duration": 0.0714,
      "velocity": 79,
      "chip": "ym2612"
    },
    {
      "channel": 3,
      "note": 55,
      "start": 12.443,
      "duration": 0.0487,
      "velocity": 88,
      "chip": "ym2612"
    },
    {
      "channel": 1,
      "note": 81,
      "start": 12.4455,
      "duration": 0.06,
      "velocity": 103,
      "chip": "ym2612"
    },
    {
      "channel": 3,
      "note": 56,
      "start": 12.5571,
      "duration": 0.0736,
      "velocity": 88,
      "chip": "ym2612"
    },
    {
      "channel": 4,
      "note": 81,
      "start": 12.5595,
      "duration": 0.0712,
      "velocity": 103,
      "chip": "ym2612"
    },
    {
      "channel": 2,
      "note": 69,
      "start": 12.5629,
      "duration": 1.052,
      "velocity": 79,
      "chip": "ym2612"
    },
    {
      "channel": 0,
      "note": 69,
      "start": 12.5667,
      "duration": 1.048,
      "velocity": 79,
      "chip": "ym2612"
    },
    {
      "channel": 3,
      "note": 57,
      "start": 12.6669,
      "duration": 0.0568,
      "velocity": 88,
      "chip": "ym2612"
    },
    {
      "channel": 1,
      "note": 81,
      "start": 12.6692,
      "duration": 0.0033,
      "velocity": 103,
      "chip": "ym2612"
    },
    {
      "channel": 4,
      "note": 57,
      "start": 12.6719,
      "duration": 0.0953,
      "velocity": 106,
      "chip": "ym2612"
    },
    {
      "channel": 1,
      "note": 64,
      "start": 12.6747,
      "duration": 0.0924,
      "velocity": 106,
      "chip": "ym2612"
    },
    {
      "channel": 3,
      "note": 81,
      "start": 12.7703,
      "duration": 0.1119,
      "velocity": 103,
      "chip": "ym2612"
    },
    {
      "channel": 1,
      "note": 81,
      "start": 12.9892,
      "duration": 0.0473,
      "velocity": 103,
      "chip": "ym2612"
    },
    {
      "channel": 4,
      "note": 45,
      "start": 13.1211,
      "duration": 0.0624,
      "velocity": 88,
      "chip": "ym2612"
    },
    {
      "channel": 3,
      "note": 81,
      "start": 13.1235,
      "duration": 0.0453,
      "velocity": 103,
      "chip": "ym2612"
    },
    {
      "channel": 4,
      "note": 45,
      "start": 13.2244,
      "duration": 0.1978,
      "velocity": 88,
      "chip": "ym2612"
    },
    {
      "channel": 1,
      "note": 81,
      "start": 13.2266,
      "duration": 0.0956,
      "velocity": 103,
      "chip": "ym2612"
    },
    {
      "channel": 3,
      "note": 81,
      "start": 13.4451,
      "duration": 0.0487,
      "velocity": 103,
      "chip": "ym2612"
    },
    {
      "channel": 1,
      "note": 81,
      "start": 13.553,
      "duration": 0.0472,
      "velocity": 103,
      "chip": "ym2612"
    },
    {
      "channel": 3,
      "note": 81,
      "start": 13.6832,
      "duration": 0.0486,
      "velocity": 103,
      "chip": "ym2612"
    },
    {
      "channel": 4,
      "note": 48,
      "start": 13.8171,
      "duration": 0.0511,
      "velocity": 88,
      "chip": "ym2612"
    },
    {
      "channel": 1,
      "note": 60,
      "start": 13.8202,
      "duration": 1.0346,
      "velocity": 106,
      "chip": "ym2612"
    },
    {
      "channel": 0,
      "note": 67,
      "start": 13.823,
      "duration": 1.0541,
      "velocity": 106,
      "chip": "ym2612"
    },
    {
      "channel": 2,
      "note": 67,
      "start": 13.8269,
      "duration": 1.0354,
      "velocity": 79,
      "chip": "ym2612"
    },
    {
      "channel": 3,
      "note": 60,
      "start": 13.8299,
      "duration": 0.996,
      "velocity": 79,
      "chip": "ym2612"
    },
    {
      "channel": 4,
      "note": 48,
      "start": 13.9155,
      "duration": 0.0684,
      "velocity": 88,
      "chip": "ym2612"
    },
    {
      "channel": 4,
      "note": 48,
      "start": 14.1231,
      "duration": 0.0402,
      "velocity": 88,
      "chip": "ym2612"
    },
    {
      "channel": 4,
      "note": 48,
      "start": 14.2552,
      "duration": 0.0406,
      "velocity": 88,
      "chip": "ym2612"
    },
    {
      "channel": 4,
      "note": 48,
      "start": 14.3567,
      "duration": 0.0655,
      "velocity": 88,
      "chip": "ym2612"
    },
    {
      "channel": 4,
      "note": 48,
      "start": 14.5783,
      "duration": 0.0409,
      "velocity": 88,
      "chip": "ym2612"
    },
    {
      "channel": 4,
      "note": 48,
      "start": 14.6853,
      "duration": 0.0324,
      "velocity": 88,
      "chip": "ym2612"
    },
    {
      "channel": 4,
      "note": 48,
      "start": 14.8142,
      "duration": 0.0265,
      "velocity": 88,
      "chip": "ym2612"
    },
    {
      "channel": 4,
      "note": 43,
      "start": 14.9206,
      "duration": 0.0285,
      "velocity": 88,
      "chip": "ym2612"
    },
    {
      "channel": 1,
      "note": 55,
      "start": 14.9238,
      "duration": 1.0171,
      "velocity": 106,
      "chip": "ym2612"
    },
    {
      "channel": 0,
      "note": 62,
      "start": 14.9266,
      "duration": 1.0809,
      "velocity": 106,
      "chip": "ym2612"
    },
    {
      "channel": 2,
      "note": 62,
      "start": 14.9294,
      "duration": 1.1449,
      "velocity": 79,
      "chip": "ym2612"
    },
    {
      "channel": 3,
      "note": 55,
      "start": 14.933,
      "duration": 0.9913,
      "velocity": 79,
      "chip": "ym2612"
    },
    {
      "channel": 4,
      "note": 43,
      "start": 15.0237,
      "duration": 0.0433,
      "velocity": 88,
      "chip": "ym2612"
    },
    {
      "channel": 4,
      "note": 43,
      "start": 15.2405,
      "duration": 0.027,
      "velocity": 88,
      "chip": "ym2612"
    },
    {
      "channel": 4,
      "note": 43,
      "start": 15.3553,
      "duration": 0.0341,
      "velocity": 88,
      "chip": "ym2612"
    },
    {
      "channel": 4,
      "note": 43,
      "start": 15.4581,
      "duration": 0.0822,
      "velocity": 88,
      "chip": "ym2612"
    },
    {
      "channel": 4,
      "note": 43,
      "start": 15.6801,
      "duration": 0.0399,
      "velocity": 88,
      "chip": "ym2612"
    },
    {
      "channel": 4,
      "note": 43,
      "start": 15.7854,
      "duration": 0.032,
      "velocity": 88,
      "chip": "ym2612"
    },
    {
      "channel": 4,
      "note": 43,
      "start": 15.9104,
      "duration": 0.0973,
      "velocity": 88,
      "chip": "ym2612"
    },
    {
      "channel": 4,
      "note": 45,
      "start": 16.1472,
      "duration": 0.0877,
      "velocity": 88,
      "chip": "ym2612"
    },
    {
      "channel": 1,
      "note": 57,
      "start": 16.15,
      "duration": 0.0928,
      "velocity": 106,
      "chip": "ym2612"
    },
    {
      "channel": 0,
      "note": 64,
      "start": 16.1527,
      "duration": 0.0821,
      "velocity": 106,
      "chip": "ym2612"
    },
    {
      "channel": 2,
      "note": 64,
      "start": 16.1558,
      "duration": 0.0573,
      "velocity": 79,
      "chip": "ym2612"
    },
    {
      "channel": 3,
      "note": 57,
      "start": 16.1595,
      "duration": 0.0833,
      "velocity": 79,
      "chip": "ym2612"
    },
    {
      "channel": 4,
      "note": 45,
      "start": 16.6017,
      "duration": 0.0887,
      "velocity": 88,
      "chip": "ym2612"
    },
    {
      "channel": 1,
      "note": 57,
      "start": 16.6048,
      "duration": 0.0997,
      "velocity": 106,
      "chip": "ym2612"
    },
    {
      "channel": 0,
      "note": 64,
      "start": 16.608,
      "duration": 0.0824,
      "velocity": 106,
      "chip": "ym2612"
    },
    {
      "channel": 2,
      "note": 64,
      "start": 16.6116,
      "duration": 0.109,
      "velocity": 79,
      "chip": "ym2612"
    },
    {
      "channel": 3,
      "note": 57,
      "start": 16.6144,
      "duration": 0.0901,
      "velocity": 79,
      "chip": "ym2612"
    },
    {
      "channel": 4,
      "note": 45,
      "start": 17.2453,
      "duration": 0.0884,
      "velocity": 88,
      "chip": "ym2612"
    },
    {
      "channel": 1,
      "note": 57,
      "start": 17.2481,
      "duration": 0.0999,
      "velocity": 106,
      "chip": "ym2612"
    },
    {
      "channel": 0,
      "note": 64,
      "start": 17.251,
      "duration": 0.0824,
      "velocity": 106,
      "chip": "ym2612"
    },
    {
      "channel": 2,
      "note": 64,
      "start": 17.2536,
      "duration": 0.0872,
      "velocity": 79,
      "chip": "ym2612"
    },
    {
      "channel": 3,
      "note": 57,
      "start": 17.2572,
      "duration": 0.0763,
      "velocity": 79,
      "chip": "ym2612"
    },
    {
      "channel": 4,
      "note": 45,
      "start": 17.6974,
      "duration": 0.0815,
      "velocity": 88,
      "chip": "ym2612"
    },
    {
      "channel": 1,
      "note": 57,
      "start": 17.7003,
      "duration": 0.1083,
      "velocity": 106,
      "chip": "ym2612"
    },
    {
      "channel": 0,
      "note": 64,
      "start": 17.7031,
      "duration": 0.1056,
      "velocity": 106,
      "chip": "ym2612"
    },
    {
      "channel": 2,
      "note": 64,
      "start": 17.7058,
      "duration": 0.0889,
      "velocity": 79,
      "chip": "ym2612"
    },
    {
      "channel": 3,
      "note": 57,
      "start": 17.7093,
      "duration": 0.0995,
      "velocity": 79,
      "chip": "ym2612"
    },
    {
      "channel": 4,
      "note": 48,
      "start": 18.3707,
      "duration": 0.0438,
      "velocity": 88,
      "chip": "ym2612"
    },
    {
      "channel": 1,
      "note": 60,
      "start": 18.3738,
      "duration": 1.0382,
      "velocity": 106,
      "chip": "ym2612"
    },
    {
      "channel": 0,
      "note": 67,
      "start": 18.3766,
      "duration": 1.0575,
      "velocity": 106,
      "chip": "ym2612"
    },
    {
      "channel": 2,
      "note": 67,
      "start": 18.3806,
      "duration": 1.0315,
      "velocity": 79,
      "chip": "ym2612"
    },
    {
      "channel": 3,
      "note": 60,
      "start": 18.3838,
      "duration": 1.0204,
      "velocity": 79,
      "chip": "ym2612"
    },
    {
      "channel": 4,
      "note": 48,
      "start": 18.4761,
      "duration": 0.0797,
      "velocity": 88,
      "chip": "ym2612"
    },
    {
      "channel": 4,
      "note": 48,
      "start": 18.6951,
      "duration": 0.0415,
      "velocity": 88,
      "chip": "ym2612"
    },
    {
      "channel": 4,
      "note": 48,
      "start": 18.8264,
      "duration": 0.0415,
      "velocity": 88,
      "chip": "ym2612"
    },
    {
      "channel": 4,
      "note": 48,
      "start": 18.9291,
      "duration": 0.0664,
      "velocity": 88,
      "chip": "ym2612"
    },
    {
      "channel": 4,
      "note": 48,
      "start": 19.1514,
      "duration": 0.0344,
      "velocity": 88,
      "chip": "ym2612"
    },
    {
      "channel": 4,
      "note": 48,
      "start": 19.2576,
      "duration": 0.0385,
      "velocity": 88,
      "chip": "ym2612"
    },
    {
      "channel": 4,
      "note": 48,
      "start": 19.3856,
      "duration": 0.0337,
      "velocity": 88,
      "chip": "ym2612"
    },
    {
      "channel": 4,
      "note": 43,
      "start": 19.492,
      "duration": 0.028,
      "velocity": 88,
      "chip": "ym2612"
    },
    {
      "channel": 1,
      "note": 55,
      "start": 19.4949,
      "duration": 1.0206,
      "velocity": 106,
      "chip": "ym2612"
    },
    {
      "channel": 0,
      "note": 62,
      "start": 19.4977,
      "duration": 1.0345,
      "velocity": 106,
      "chip": "ym2612"
    },
    {
      "channel": 2,
      "note": 62,
      "start": 19.5006,
      "duration": 1.0985,
      "velocity": 79,
      "chip": "ym2612"
    },
    {
      "channel": 3,
      "note": 55,
      "start": 19.5044,
      "duration": 0.9776,
      "velocity": 79,
      "chip": "ym2612"
    },
    {
      "channel": 4,
      "note": 43,
      "start": 19.5882,
      "duration": 0.0513,
      "velocity": 88,
      "chip": "ym2612"
    },
    {
      "channel": 4,
      "note": 43,
      "start": 19.7962,
      "duration": 0.04,
      "velocity": 88,
      "chip": "ym2612"
    },
    {
      "channel": 4,
      "note": 43,
      "start": 19.9285,
      "duration": 0.0332,
      "velocity": 88,
      "chip": "ym2612"
    },
    {
      "channel": 4,
      "note": 43,
      "start": 20.0315,
      "duration": 0.0828,
      "velocity": 88,
      "chip": "ym2612"
    },
    {
      "channel": 4,
      "note": 43,
      "start": 20.2537,
      "duration": 0.0268,
      "velocity": 88,
      "chip": "ym2612"
    },
    {
      "channel": 4,
      "note": 43,
      "start": 20.3591,
      "duration": 0.0395,
      "velocity": 88,
      "chip": "ym2612"
    },
    {
      "channel": 4,
      "note": 43,
      "start": 20.4855,
      "duration": 0.1134,
      "velocity": 88,
      "chip": "ym2612"
    },
    {
      "channel": 4,
      "note": 45,
      "start": 20.7217,
      "duration": 0.0685,
      "velocity": 88,
      "chip": "ym2612"
    },
    {
      "channel": 1,
      "note": 57,
      "start": 20.725,
      "duration": 0.1018,
      "velocity": 106,
      "chip": "ym2612"
    },
    {
      "channel": 0,
      "note": 64,
      "start": 20.7278,
      "duration": 0.0773,
      "velocity": 106,
      "chip": "ym2612"
    },
    {
      "channel": 2,
      "note": 64,
      "start": 20.7315,
      "duration": 0.0665,
      "velocity": 79,
      "chip": "ym2612"
    },
    {
      "channel": 3,
      "note": 57,
      "start": 20.7339,
      "duration": 0.1004,
      "velocity": 79,
      "chip": "ym2612"
    },
    {
      "channel": 4,
      "note": 45,
      "start": 21.1632,
      "duration": 0.0652,
      "velocity": 88,
      "chip": "ym2612"
    },
    {
      "channel": 1,
      "note": 57,
      "start": 21.1659,
      "duration": 0.0996,
      "velocity": 106,
      "chip": "ym2612"
    },
    {
      "channel": 0,
      "note": 64,
      "start": 21.1688,
      "duration": 0.0895,
      "velocity": 106,
      "chip": "ym2612"
    },
    {
      "channel": 2,
      "note": 64,
      "start": 21.1717,
      "duration": 0.0643,
      "velocity": 79,
      "chip": "ym2612"
    },
    {
      "channel": 3,
      "note": 57,
      "start": 21.1751,
      "duration": 0.1228,
      "velocity": 79,
      "chip": "ym2612"
    },
    {
      "channel": 4,
      "note": 45,
      "start": 21.8307,
      "duration": 0.0876,
      "velocity": 88,
      "chip": "ym2612"
    },
    {
      "channel": 1,
      "note": 57,
      "start": 21.8341,
      "duration": 0.1614,
      "velocity": 106,
      "chip": "ym2612"
    },
    {
      "channel": 0,
      "note": 64,
      "start": 21.8371,
      "duration": 0.1583,
      "velocity": 106,
      "chip": "ym2612"
    },
    {
      "channel": 2,
      "note": 64,
      "start": 21.841,
      "duration": 0.1549,
      "velocity": 79,
      "chip": "ym2612"
    },
    {
      "channel": 3,
      "note": 57,
      "start": 21.8438,
      "duration": 0.1519,
      "velocity": 79,
      "chip": "ym2612"
    }
  ]
}