{
  "track_name": "03 - Round 1-1, 1-D, 1-M",
  "duration_sec": 59.849,
  "sample_rate": 44100,
  "note_count": 871,
  "unique_pitches": 38,
  "pitch_range": 42,
  "avg_note_duration": 0.2725,
  "reconstruction_stats": {
    "notes_reconstructed": 871,
    "keyon_events": 871,
    "keyoff_events": 866,
    "orphan_keyons": 5,
    "unique_pitches": 38,
    "pitch_range": 42,
    "avg_duration_sec": 0.2725
  },
  "metadata": {
    "source": "W\\World of Illusion\\03 - Round 1-1, 1-D, 1-M.vgz"
  },
  "notes": [
    {
      "channel": 0,
      "note": 68,
      "start": 0.0135,
      "duration": 0.1316,
      "velocity": 73,
      "chip": "ym2612"
    },
    {
      "channel": 1,
      "note": 54,
      "start": 0.017,
      "duration": 1.0638,
      "velocity": 97,
      "chip": "ym2612"
    },
    {
      "channel": 2,
      "note": 54,
      "start": 0.0206,
      "duration": 1.061,
      "velocity": 97,
      "chip": "ym2612"
    },
    {
      "channel": 4,
      "note": 68,
      "start": 0.1664,
      "duration": 0.1301,
      "velocity": 73,
      "chip": "ym2612"
    },
    {
      "channel": 0,
      "note": 67,
      "start": 0.2792,
      "duration": 0.1329,
      "velocity": 73,
      "chip": "ym2612"
    },
    {
      "channel": 0,
      "note": 68,
      "start": 0.4127,
      "duration": 0.1333,
      "velocity": 73,
      "chip": "ym2612"
    },
    {
      "channel": 4,
      "note": 67,
      "start": 0.4306,
      "duration": 0.1329,
      "velocity": 73,
      "chip": "ym2612"
    },
    {
      "channel": 0,
      "note": 75,
      "start": 0.5466,
      "duration": 0.1325,
      "velocity": 73,
      "chip": "ym2612"
    },
    {
      "channel": 4,
      "note": 68,
      "start": 0.5641,
      "duration": 0.133,
      "velocity": 73,
      "chip": "ym2612"
    },
    {
      "channel": 4,
      "note": 75,
      "start": 0.6978,
      "duration": 0.1325,
      "velocity": 73,
      "chip": "ym2612"
    },
    {
      "channel": 0,
      "note": 73,
      "start": 1.0806,
      "duration": 0.1325,
      "velocity": 73,
      "chip": "ym2612"
    },
    {
      "channel": 1,
      "note": 59,
      "start": 1.0814,
      "duration": 1.0678,
      "velocity": 97,
      "chip": "ym2612"
    },
    {
      "channel": 2,
      "note": 59,
      "start": 1.0822,
      "duration": 1.0682,
      "velocity": 97,
      "chip": "ym2612"
    },
    {
      "channel": 4,
      "note": 73,
      "start": 1.2318,
      "duration": 0.1327,
      "velocity": 73,
      "chip": "ym2612"
    },
    {
      "channel": 0,
      "note": 76,
      "start": 1.3473,
      "duration": 0.1329,
      "velocity": 73,
      "chip": "ym2612"
    },
    {
      "channel": 4,
      "note": 76,
      "start": 1.4984,
      "duration": 0.1331,
      "velocity": 73,
      "chip": "ym2612"
    },
    {
      "channel": 0,
      "note": 75,
      "start": 1.6143,
      "duration": 0.1333,
      "velocity": 73,
      "chip": "ym2612"
    },
    {
      "channel": 0,
      "note": 73,
      "start": 1.7482,
      "duration": 0.1325,
      "velocity": 73,
      "chip": "ym2612"
    },
    {
      "channel": 4,
      "note": 75,
      "start": 1.7656,
      "duration": 0.1333,
      "velocity": 73,
      "chip": "ym2612"
    },
    {
      "channel": 0,
      "note": 71,
      "start": 1.8813,
      "duration": 0.1329,
      "velocity": 73,
      "chip": "ym2612"
    },
    {
      "channel": 4,
      "note": 73,
      "start": 1.8996,
      "duration": 0.1322,
      "velocity": 73,
      "chip": "ym2612"
    },
    {
      "channel": 4,
      "note": 71,
      "start": 2.0324,
      "duration": 0.1329,
      "velocity": 73,
      "chip": "ym2612"
    },
    {
      "channel": 0,
      "note": 68,
      "start": 2.1487,
      "duration": 0.1325,
      "velocity": 73,
      "chip": "ym2612"
    },
    {
      "channel": 1,
      "note": 54,
      "start": 2.1498,
      "duration": 1.0675,
      "velocity": 97,
      "chip": "ym2612"
    },
    {
      "channel": 2,
      "note": 54,
      "start": 2.1509,
      "duration": 1.0675,
      "velocity": 97,
      "chip": "ym2612"
    },
    {
      "channel": 4,
      "note": 68,
      "start": 2.2998,
      "duration": 0.1327,
      "velocity": 73,
      "chip": "ym2612"
    },
    {
      "channel": 0,
      "note": 67,
      "start": 2.4153,
      "duration": 0.1329,
      "velocity": 73,
      "chip": "ym2612"
    },
    {
      "channel": 0,
      "note": 68,
      "start": 2.5488,
      "duration": 0.1333,
      "velocity": 73,
      "chip": "ym2612"
    },
    {
      "channel": 4,
      "note": 67,
      "start": 2.5667,
      "duration": 0.1329,
      "velocity": 73,
      "chip": "ym2612"
    },
    {
      "channel": 0,
      "note": 75,
      "start": 2.6827,
      "duration": 0.1325,
      "velocity": 73,
      "chip": "ym2612"
    },
    {
      "channel": 4,
      "note": 68,
      "start": 2.7002,
      "duration": 0.133,
      "velocity": 73,
      "chip": "ym2612"
    },
    {
      "channel": 4,
      "note": 75,
      "start": 2.8339,
      "duration": 0.1325,
      "velocity": 73,
      "chip": "ym2612"
    },
    {
      "channel": 0,
      "note": 73,
      "start": 3.2167,
      "duration": 0.1325,
      "velocity": 73,
      "chip": "ym2612"
    },
    {
      "channel": 1,
      "note": 59,
      "start": 3.2179,
      "duration": 1.067,
      "velocity": 97,
      "chip": "ym2612"
    },
    {
      "channel": 2,
      "note": 59,
      "start": 3.219,
      "duration": 1.0666,
      "velocity": 97,
      "chip": "ym2612"
    },
    {
      "channel": 4,
      "note": 73,
      "start": 3.3679,
      "duration": 0.1327,
      "velocity": 73,
      "chip": "ym2612"
    },
    {
      "channel": 0,
      "note": 76,
      "start": 3.4833,
      "duration": 0.1329,
      "velocity": 73,
      "chip": "ym2612"
    },
    {
      "channel": 4,
      "note": 76,
      "start": 3.6345,
      "duration": 0.1331,
      "velocity": 73,
      "chip": "ym2612"
    },
    {
      "channel": 0,
      "note": 75,
      "start": 3.7503,
      "duration": 0.1333,
      "velocity": 73,
      "chip": "ym2612"
    },
    {
      "channel": 0,
      "note": 73,
      "start": 3.8843,
      "duration": 0.1325,
      "velocity": 73,
      "chip": "ym2612"
    },
    {
      "channel": 4,
      "note": 75,
      "start": 3.9017,
      "duration": 0.1333,
      "velocity": 73,
      "chip": "ym2612"
    },
    {
      "channel": 0,
      "note": 71,
      "start": 4.0174,
      "duration": 0.1329,
      "velocity": 73,
      "chip": "ym2612"
    },
    {
      "channel": 4,
      "note": 73,
      "start": 4.0356,
      "duration": 0.1322,
      "velocity": 73,
      "chip": "ym2612"
    },
    {
      "channel": 4,
      "note": 71,
      "start": 4.1685,
      "duration": 0.1329,
      "velocity": 73,
      "chip": "ym2612"
    },
    {
      "channel": 0,
      "note": 71,
      "start": 4.2848,
      "duration": 0.1325,
      "velocity": 73,
      "chip": "ym2612"
    },
    {
      "channel": 1,
      "note": 59,
      "start": 4.2855,
      "duration": 1.0671,
      "velocity": 97,
      "chip": "ym2612"
    },
    {
      "channel": 2,
      "note": 59,
      "start": 4.2863,
      "duration": 1.067,
      "velocity": 97,
      "chip": "ym2612"
    },
    {
      "channel": 4,
      "note": 71,
      "start": 4.4359,
      "duration": 0.1327,
      "velocity": 73,
      "chip": "ym2612"
    },
    {
      "channel": 0,
      "note": 69,
      "start": 4.5514,
      "duration": 0.1329,
      "velocity": 73,
      "chip": "ym2612"
    },
    {
      "channel": 0,
      "note": 71,
      "start": 4.6849,
      "duration": 0.1333,
      "velocity": 73,
      "chip": "ym2612"
    },
    {
      "channel": 4,
      "note": 69,
      "start": 4.7028,
      "duration": 0.1329,
      "velocity": 73,
      "chip": "ym2612"
    },
    {
      "channel": 0,
      "note": 80,
      "start": 4.8188,
      "duration": 0.1325,
      "velocity": 73,
      "chip": "ym2612"
    },
    {
      "channel": 4,
      "note": 71,
      "start": 4.8363,
      "duration": 0.133,
      "velocity": 73,
      "chip": "ym2612"
    },
    {
      "channel": 4,
      "note": 80,
      "start": 4.9699,
      "duration": 0.1327,
      "velocity": 73,
      "chip": "ym2612"
    },
    {
      "channel": 0,
      "note": 78,
      "start": 5.0858,
      "duration": 0.1325,
      "velocity": 73,
      "chip": "ym2612"
    },
    {
      "channel": 4,
      "note": 78,
      "start": 5.237,
      "duration": 0.1325,
      "velocity": 73,
      "chip": "ym2612"
    },
    {
      "channel": 0,
      "note": 78,
      "start": 5.3524,
      "duration": 0.1329,
      "velocity": 73,
      "chip": "ym2612"
    },
    {
      "channel": 1,
      "note": 52,
      "start": 5.3532,
      "duration": 1.0674,
      "velocity": 97,
      "chip": "ym2612"
    },
    {
      "channel": 2,
      "note": 52,
      "start": 5.3539,
      "duration": 1.0674,
      "velocity": 97,
      "chip": "ym2612"
    },
    {
      "channel": 4,
      "note": 78,
      "start": 5.5036,
      "duration": 0.1331,
      "velocity": 73,
      "chip": "ym2612"
    },
    {
      "channel": 0,
      "note": 76,
      "start": 5.6194,
      "duration": 0.1329,
      "velocity": 73,
      "chip": "ym2612"
    },
    {
      "channel": 4,
      "note": 76,
      "start": 5.7706,
      "duration": 0.1331,
      "velocity": 73,
      "chip": "ym2612"
    },
    {
      "channel": 0,
      "note": 75,
      "start": 5.8864,
      "duration": 0.1329,
      "velocity": 73,
      "chip": "ym2612"
    },
    {
      "channel": 0,
      "note": 73,
      "start": 6.02,
      "duration": 0.1329,
      "velocity": 73,
      "chip": "ym2612"
    },
    {
      "channel": 4,
      "note": 75,
      "start": 6.0378,
      "duration": 0.1329,
      "velocity": 73,
      "chip": "ym2612"
    },
    {
      "channel": 0,
      "note": 71,
      "start": 6.1534,
      "duration": 0.1329,
      "velocity": 73,
      "chip": "ym2612"
    },
    {
      "channel": 4,
      "note": 73,
      "start": 6.1713,
      "duration": 0.1327,
      "velocity": 73,
      "chip": "ym2612"
    },
    {
      "channel": 4,
      "note": 71,
      "start": 6.3046,
      "duration": 0.1329,
      "velocity": 73,
      "chip": "ym2612"
    },
    {
      "channel": 0,
      "note": 68,
      "start": 6.4205,
      "duration": 0.1329,
      "velocity": 73,
      "chip": "ym2612"
    },
    {
      "channel": 1,
      "note": 54,
      "start": 6.4212,
      "duration": 1.0678,
      "velocity": 97,
      "chip": "ym2612"
    },
    {
      "channel": 2,
      "note": 54,
      "start": 6.4219,
      "duration": 1.0679,
      "velocity": 97,
      "chip": "ym2612"
    },
    {
      "channel": 4,
      "note": 68,
      "start": 6.5716,
      "duration": 0.1331,
      "velocity": 73,
      "chip": "ym2612"
    },
    {
      "channel": 0,
      "note": 67,
      "start": 6.6878,
      "duration": 0.1325,
      "velocity": 73,
      "chip": "ym2612"
    },
    {
      "channel": 0,
      "note": 68,
      "start": 6.821,
      "duration": 0.1333,
      "velocity": 73,
      "chip": "ym2612"
    },
    {
      "channel": 4,
      "note": 67,
      "start": 6.8393,
      "duration": 0.1325,
      "velocity": 73,
      "chip": "ym2612"
    },
    {
      "channel": 0,
      "note": 75,
      "start": 6.9549,
      "duration": 0.1325,
      "velocity": 73,
      "chip": "ym2612"
    },
    {
      "channel": 4,
      "note": 68,
      "start": 6.9723,
      "duration": 0.1331,
      "velocity": 73,
      "chip": "ym2612"
    },
    {
      "channel": 4,
      "note": 75,
      "start": 7.106,
      "duration": 0.1327,
      "velocity": 73,
      "chip": "ym2612"
    },
    {
      "channel": 0,
      "note": 66,
      "start": 7.2215,
      "duration": 0.1329,
      "velocity": 73,
      "chip": "ym2612"
    },
    {
      "channel": 4,
      "note": 66,
      "start": 7.3726,
      "duration": 0.1329,
      "velocity": 73,
      "chip": "ym2612"
    },
    {
      "channel": 0,
      "note": 71,
      "start": 7.4889,
      "duration": 1.0696,
      "velocity": 93,
      "chip": "ym2612"
    },
    {
      "channel": 1,
      "note": 59,
      "start": 7.4897,
      "duration": 1.07,
      "velocity": 97,
      "chip": "ym2612"
    },
    {
      "channel": 2,
      "note": 59,
      "start": 7.4904,
      "duration": 1.0729,
      "velocity": 95,
      "chip": "ym2612"
    },
    {
      "channel": 5,
      "note": 76,
      "start": 7.4921,
      "duration": 0.2642,
      "velocity": 120,
      "chip": "ym2612"
    },
    {
      "channel": 4,
      "note": 71,
      "start": 7.6403,
      "duration": 1.0698,
      "velocity": 93,
      "chip": "ym2612"
    },
    {
      "channel": 5,
      "note": 76,
      "start": 7.7569,
      "duration": 0.2666,
      "velocity": 120,
      "chip": "ym2612"
    },
    {
      "channel": 5,
      "note": 76,
      "start": 8.0241,
      "duration": 0.2665,
      "velocity": 120,
      "chip": "ym2612"
    },
    {
      "channel": 5,
      "note": 76,
      "start": 8.2912,
      "duration": 0.2775,
      "velocity": 120,
      "chip": "ym2612"
    },
    {
      "channel": 0,
      "note": 80,
      "start": 8.5592,
      "duration": 0.1303,
      "velocity": 93,
      "chip": "ym2612"
    },
    {
      "channel": 1,
      "note": 54,
      "start": 8.5603,
      "duration": 1.0648,
      "velocity": 97,
      "chip": "ym2612"
    },
    {
      "channel": 2,
      "note": 73,
      "start": 8.5641,
      "duration": 1.0618,
      "velocity": 95,
      "chip": "ym2612"
    },
    {
      "channel": 3,
      "note": 76,
      "start": 8.5677,
      "duration": 1.0591,
      "velocity": 93,
      "chip": "ym2612"
    },
    {
      "channel": 5,
      "note": 76,
      "start": 8.5692,
      "duration": 0.2565,
      "velocity": 120,
      "chip": "ym2612"
    },
    {
      "channel": 4,
      "note": 80,
      "start": 8.7107,
      "duration": 0.1304,
      "velocity": 93,
      "chip": "ym2612"
    },
    {
      "channel": 0,
      "note": 79,
      "start": 8.8236,
      "duration": 0.1329,
      "velocity": 93,
      "chip": "ym2612"
    },
    {
      "channel": 5,
      "note": 76,
      "start": 8.8262,
      "duration": 0.2664,
      "velocity": 120,
      "chip": "ym2612"
    },
    {
      "channel": 0,
      "note": 80,
      "start": 8.9571,
      "duration": 0.1333,
      "velocity": 93,
      "chip": "ym2612"
    },
    {
      "channel": 4,
      "note": 79,
      "start": 8.9753,
      "duration": 0.1329,
      "velocity": 93,
      "chip": "ym2612"
    },
    {
      "channel": 0,
      "note": 87,
      "start": 9.091,
      "duration": 0.1325,
      "velocity": 93,
      "chip": "ym2612"
    },
    {
      "channel": 4,
      "note": 80,
      "start": 9.1088,
      "duration": 0.133,
      "velocity": 93,
      "chip": "ym2612"
    },
    {
      "channel": 5,
      "note": 76,
      "start": 9.2263,
      "duration": 0.1323,
      "velocity": 120,
      "chip": "ym2612"
    },
    {
      "channel": 4,
      "note": 87,
      "start": 9.2425,
      "duration": 0.1324,
      "velocity": 93,
      "chip": "ym2612"
    },
    {
      "channel": 5,
      "note": 76,
      "start": 9.3591,
      "duration": 0.1327,
      "velocity": 120,
      "chip": "ym2612"
    },
    {
      "channel": 5,
      "note": 76,
      "start": 9.4924,
      "duration": 0.1354,
      "velocity": 120,
      "chip": "ym2612"
    },
    {
      "channel": 0,
      "note": 85,
      "start": 9.625,
      "duration": 0.1325,
      "velocity": 93,
      "chip": "ym2612"
    },
    {
      "channel": 1,
      "note": 59,
      "start": 9.6257,
      "duration": 1.0674,
      "velocity": 97,
      "chip": "ym2612"
    },
    {
      "channel": 2,
      "note": 71,
      "start": 9.6266,
      "duration": 1.0673,
      "velocity": 95,
      "chip": "ym2612"
    },
    {
      "channel": 3,
      "note": 75,
      "start": 9.6275,
      "duration": 1.0673,
      "velocity": 93,
      "chip": "ym2612"
    },
    {
      "channel": 5,
      "note": 76,
      "start": 9.6284,
      "duration": 0.2654,
      "velocity": 120,
      "chip": "ym2612"
    },
    {
      "channel": 4,
      "note": 85,
      "start": 9.7765,
      "duration": 0.1327,
      "velocity": 93,
      "chip": "ym2612"
    },
    {
      "channel": 0,
      "note": 88,
      "start": 9.8916,
      "duration": 0.1329,
      "velocity": 93,
      "chip": "ym2612"
    },
    {
      "channel": 5,
      "note": 76,
      "start": 9.8943,
      "duration": 0.2661,
      "velocity": 120,
      "chip": "ym2612"
    },
    {
      "channel": 4,
      "note": 88,
      "start": 10.0431,
      "duration": 0.1331,
      "velocity": 93,
      "chip": "ym2612"
    },
    {
      "channel": 0,
      "note": 87,
      "start": 10.1586,
      "duration": 0.1333,
      "velocity": 93,
      "chip": "ym2612"
    },
    {
      "channel": 0,
      "note": 85,
      "start": 10.2925,
      "duration": 0.1325,
      "velocity": 93,
      "chip": "ym2612"
    },
    {
      "channel": 5,
      "note": 76,
      "start": 10.2949,
      "duration": 0.1324,
      "velocity": 120,
      "chip": "ym2612"
    },
    {
      "channel": 4,
      "note": 87,
      "start": 10.3103,
      "duration": 0.1333,
      "velocity": 93,
      "chip": "ym2612"
    },
    {
      "channel": 0,
      "note": 83,
      "start": 10.4256,
      "duration": 0.1329,
      "velocity": 93,
      "chip": "ym2612"
    },
    {
      "channel": 5,
      "note": 76,
      "start": 10.4279,
      "duration": 0.1325,
      "velocity": 120,
      "chip": "ym2612"
    },
    {
      "channel": 4,
      "note": 85,
      "start": 10.4442,
      "duration": 0.1322,
      "velocity": 93,
      "chip": "ym2612"
    },
    {
      "channel": 5,
      "note": 76,
      "start": 10.5609,
      "duration": 0.1352,
      "velocity": 120,
      "chip": "ym2612"
    },
    {
      "channel": 4,
      "note": 83,
      "start": 10.5771,
      "duration": 0.133,
      "velocity": 93,
      "chip": "ym2612"
    },
    {
      "channel": 0,
      "note": 80,
      "start": 10.693,
      "duration": 0.1325,
      "velocity": 93,
      "chip": "ym2612"
    },
    {
      "channel": 1,
      "note": 54,
      "start": 10.6938,
      "duration": 1.0674,
      "velocity": 97,
      "chip": "ym2612"
    },
    {
      "channel": 2,
      "note": 73,
      "start": 10.6946,
      "duration": 1.0673,
      "velocity": 95,
      "chip": "ym2612"
    },
    {
      "channel": 3,
      "note": 76,
      "start": 10.6956,
      "duration": 1.0673,
      "velocity": 93,
      "chip": "ym2612"
    },
    {
      "channel": 5,
      "note": 76,
      "start": 10.6966,
      "duration": 0.2655,
      "velocity": 120,
      "chip": "ym2612"
    },
    {
      "channel": 4,
      "note": 80,
      "start": 10.8445,
      "duration": 0.1327,
      "velocity": 93,
      "chip": "ym2612"
    },
    {
      "channel": 0,
      "note": 79,
      "start": 10.96,
      "duration": 0.1325,
      "velocity": 93,
      "chip": "ym2612"
    },
    {
      "channel": 5,
      "note": 76,
      "start": 10.9627,
      "duration": 0.2661,
      "velocity": 120,
      "chip": "ym2612"
    },
    {
      "channel": 0,
      "note": 80,
      "start": 11.0932,
      "duration": 0.1333,
      "velocity": 93,
      "chip": "ym2612"
    },
    {
      "channel": 4,
      "note": 79,
      "start": 11.1118,
      "duration": 0.1325,
      "velocity": 93,
      "chip": "ym2612"
    },
    {
      "channel": 0,
      "note": 87,
      "start": 11.2271,
      "duration": 0.1325,
      "velocity": 93,
      "chip": "ym2612"
    },
    {
      "channel": 4,
      "note": 80,
      "start": 11.2449,
      "duration": 0.133,
      "velocity": 93,
      "chip": "ym2612"
    },
    {
      "channel": 5,
      "note": 76,
      "start": 11.3624,
      "duration": 0.1323,
      "velocity": 120,
      "chip": "ym2612"
    },
    {
      "channel": 4,
      "note": 87,
      "start": 11.3785,
      "duration": 0.1324,
      "velocity": 93,
      "chip": "ym2612"
    },
    {
      "channel": 5,
      "note": 76,
      "start": 11.4952,
      "duration": 0.1327,
      "velocity": 120,
      "chip": "ym2612"
    },
    {
      "channel": 5,
      "note": 76,
      "start": 11.6285,
      "duration": 0.1354,
      "velocity": 120,
      "chip": "ym2612"
    },
    {
      "channel": 0,
      "note": 85,
      "start": 11.7611,
      "duration": 0.1325,
      "velocity": 93,
      "chip": "ym2612"
    },
    {
      "channel": 1,
      "note": 59,
      "start": 11.7618,
      "duration": 1.0674,
      "velocity": 97,
      "chip": "ym2612"
    },
    {
      "channel": 2,
      "note": 71,
      "start": 11.7627,
      "duration": 1.0673,
      "velocity": 95,
      "chip": "ym2612"
    },
    {
      "channel": 3,
      "note": 75,
      "start": 11.7636,
      "duration": 1.0677,
      "velocity": 93,
      "chip": "ym2612"
    },
    {
      "channel": 5,
      "note": 76,
      "start": 11.7645,
      "duration": 0.2654,
      "velocity": 120,
      "chip": "ym2612"
    },
    {
      "channel": 4,
      "note": 85,
      "start": 11.9126,
      "duration": 0.1327,
      "velocity": 93,
      "chip": "ym2612"
    },
    {
      "channel": 0,
      "note": 88,
      "start": 12.0277,
      "duration": 0.1329,
      "velocity": 93,
      "chip": "ym2612"
    },
    {
      "channel": 5,
      "note": 76,
      "start": 12.0304,
      "duration": 0.2661,
      "velocity": 120,
      "chip": "ym2612"
    },
    {
      "channel": 4,
      "note": 88,
      "start": 12.1792,
      "duration": 0.1331,
      "velocity": 93,
      "chip": "ym2612"
    },
    {
      "channel": 0,
      "note": 87,
      "start": 12.2947,
      "duration": 0.1329,
      "velocity": 93,
      "chip": "ym2612"
    },
    {
      "channel": 0,
      "note": 85,
      "start": 12.4282,
      "duration": 0.1333,
      "velocity": 93,
      "chip": "ym2612"
    },
    {
      "channel": 5,
      "note": 76,
      "start": 12.4306,
      "duration": 0.1332,
      "velocity": 120,
      "chip": "ym2612"
    },
    {
      "channel": 4,
      "note": 87,
      "start": 12.4464,
      "duration": 0.1329,
      "velocity": 93,
      "chip": "ym2612"
    },
    {
      "channel": 0,
      "note": 83,
      "start": 12.5621,
      "duration": 0.1325,
      "velocity": 93,
      "chip": "ym2612"
    },
    {
      "channel": 5,
      "note": 76,
      "start": 12.5644,
      "duration": 0.1321,
      "velocity": 120,
      "chip": "ym2612"
    },
    {
      "channel": 4,
      "note": 85,
      "start": 12.5799,
      "duration": 0.133,
      "velocity": 93,
      "chip": "ym2612"
    },
    {
      "channel": 5,
      "note": 76,
      "start": 12.697,
      "duration": 0.1356,
      "velocity": 120,
      "chip": "ym2612"
    },
    {
      "channel": 4,
      "note": 83,
      "start": 12.7136,
      "duration": 0.1326,
      "velocity": 93,
      "chip": "ym2612"
    },
    {
      "channel": 0,
      "note": 83,
      "start": 12.8291,
      "duration": 0.1325,
      "velocity": 93,
      "chip": "ym2612"
    },
    {
      "channel": 1,
      "note": 59,
      "start": 12.8299,
      "duration": 1.0674,
      "velocity": 97,
      "chip": "ym2612"
    },
    {
      "channel": 2,
      "note": 78,
      "start": 12.8307,
      "duration": 1.0673,
      "velocity": 95,
      "chip": "ym2612"
    },
    {
      "channel": 3,
      "note": 81,
      "start": 12.8321,
      "duration": 1.0673,
      "velocity": 93,
      "chip": "ym2612"
    },
    {
      "channel": 5,
      "note": 76,
      "start": 12.8332,
      "duration": 0.2647,
      "velocity": 120,
      "chip": "ym2612"
    },
    {
      "channel": 4,
      "note": 83,
      "start": 12.9806,
      "duration": 0.1327,
      "velocity": 93,
      "chip": "ym2612"
    },
    {
      "channel": 0,
      "note": 81,
      "start": 13.0957,
      "duration": 0.1332,
      "velocity": 93,
      "chip": "ym2612"
    },
    {
      "channel": 5,
      "note": 76,
      "start": 13.0984,
      "duration": 0.2664,
      "velocity": 120,
      "chip": "ym2612"
    },
    {
      "channel": 0,
      "note": 83,
      "start": 13.2296,
      "duration": 0.1329,
      "velocity": 93,
      "chip": "ym2612"
    },
    {
      "channel": 4,
      "note": 81,
      "start": 13.2475,
      "duration": 0.1333,
      "velocity": 93,
      "chip": "ym2612"
    },
    {
      "channel": 0,
      "note": 92,
      "start": 13.3631,
      "duration": 0.1325,
      "velocity": 93,
      "chip": "ym2612"
    },
    {
      "channel": 4,
      "note": 83,
      "start": 13.3814,
      "duration": 0.1326,
      "velocity": 93,
      "chip": "ym2612"
    },
    {
      "channel": 5,
      "note": 76,
      "start": 13.4984,
      "duration": 0.1334,
      "velocity": 120,
      "chip": "ym2612"
    },
    {
      "channel": 4,
      "note": 92,
      "start": 13.5146,
      "duration": 0.1327,
      "velocity": 93,
      "chip": "ym2612"
    },
    {
      "channel": 0,
      "note": 90,
      "start": 13.6302,
      "duration": 0.1325,
      "velocity": 93,
      "chip": "ym2612"
    },
    {
      "channel": 5,
      "note": 76,
      "start": 13.6324,
      "duration": 0.1318,
      "velocity": 120,
      "chip": "ym2612"
    },
    {
      "channel": 5,
      "note": 76,
      "start": 13.7648,
      "duration": 0.1358,
      "velocity": 120,
      "chip": "ym2612"
    },
    {
      "channel": 4,
      "note": 90,
      "start": 13.7816,
      "duration": 0.1326,
      "velocity": 93,
      "chip": "ym2612"
    },
    {
      "channel": 0,
      "note": 90,
      "start": 13.8971,
      "duration": 0.1325,
      "velocity": 93,
      "chip": "ym2612"
    },
    {
      "channel": 1,
      "note": 52,
      "start": 13.8979,
      "duration": 1.0674,
      "velocity": 97,
      "chip": "ym2612"
    },
    {
      "channel": 2,
      "note": 76,
      "start": 13.8988,
      "duration": 1.0673,
      "velocity": 95,
      "chip": "ym2612"
    },
    {
      "channel": 3,
      "note": 80,
      "start": 13.9001,
      "duration": 1.0669,
      "velocity": 93,
      "chip": "ym2612"
    },
    {
      "channel": 5,
      "note": 76,
      "start": 13.9012,
      "duration": 0.2647,
      "velocity": 120,
      "chip": "ym2612"
    },
    {
      "channel": 4,
      "note": 90,
      "start": 14.0486,
      "duration": 0.1327,
      "velocity": 93,
      "chip": "ym2612"
    },
    {
      "channel": 0,
      "note": 88,
      "start": 14.1638,
      "duration": 0.1329,
      "velocity": 93,
      "chip": "ym2612"
    },
    {
      "channel": 5,
      "note": 76,
      "start": 14.1665,
      "duration": 0.2661,
      "velocity": 120,
      "chip": "ym2612"
    },
    {
      "channel": 4,
      "note": 88,
      "start": 14.3153,
      "duration": 0.1331,
      "velocity": 93,
      "chip": "ym2612"
    },
    {
      "channel": 0,
      "note": 87,
      "start": 14.4308,
      "duration": 0.1329,
      "velocity": 93,
      "chip": "ym2612"
    },
    {
      "channel": 0,
      "note": 85,
      "start": 14.5643,
      "duration": 0.1329,
      "velocity": 93,
      "chip": "ym2612"
    },
    {
      "channel": 5,
      "note": 76,
      "start": 14.5667,
      "duration": 0.1328,
      "velocity": 120,
      "chip": "ym2612"
    },
    {
      "channel": 4,
      "note": 87,
      "start": 14.5825,
      "duration": 0.1329,
      "velocity": 93,
      "chip": "ym2612"
    },
    {
      "channel": 0,
      "note": 83,
      "start": 14.6978,
      "duration": 0.1329,
      "velocity": 93,
      "chip": "ym2612"
    },
    {
      "channel": 5,
      "note": 76,
      "start": 14.7001,
      "duration": 0.1325,
      "velocity": 120,
      "chip": "ym2612"
    },
    {
      "channel": 4,
      "note": 85,
      "start": 14.716,
      "duration": 0.1326,
      "velocity": 93,
      "chip": "ym2612"
    },
    {
      "channel": 5,
      "note": 76,
      "start": 14.8331,
      "duration": 0.1352,
      "velocity": 120,
      "chip": "ym2612"
    },
    {
      "channel": 4,
      "note": 83,
      "start": 14.8493,
      "duration": 0.133,
      "velocity": 93,
      "chip": "ym2612"
    },
    {
      "channel": 0,
      "note": 80,
      "start": 14.9652,
      "duration": 0.1325,
      "velocity": 93,
      "chip": "ym2612"
    },
    {
      "channel": 1,
      "note": 54,
      "start": 14.9659,
      "duration": 1.0675,
      "velocity": 97,
      "chip": "ym2612"
    },
    {
      "channel": 2,
      "note": 73,
      "start": 14.9668,
      "duration": 1.0673,
      "velocity": 95,
      "chip": "ym2612"
    },
    {
      "channel": 3,
      "note": 76,
      "start": 14.9677,
      "duration": 1.0677,
      "velocity": 93,
      "chip": "ym2612"
    },
    {
      "channel": 5,
      "note": 76,
      "start": 14.9688,
      "duration": 0.2655,
      "velocity": 120,
      "chip": "ym2612"
    },
    {
      "channel": 4,
      "note": 80,
      "start": 15.1167,
      "duration": 0.1327,
      "velocity": 93,
      "chip": "ym2612"
    },
    {
      "channel": 0,
      "note": 79,
      "start": 15.2322,
      "duration": 0.1325,
      "velocity": 93,
      "chip": "ym2612"
    },
    {
      "channel": 5,
      "note": 76,
      "start": 15.2349,
      "duration": 0.2657,
      "velocity": 120,
      "chip": "ym2612"
    },
    {
      "channel": 0,
      "note": 80,
      "start": 15.3653,
      "duration": 0.1329,
      "velocity": 93,
      "chip": "ym2612"
    },
    {
      "channel": 4,
      "note": 79,
      "start": 15.3839,
      "duration": 0.1325,
      "velocity": 93,
      "chip": "ym2612"
    },
    {
      "channel": 0,
      "note": 87,
      "start": 15.4988,
      "duration": 0.1329,
      "velocity": 93,
      "chip": "ym2612"
    },
    {
      "channel": 4,
      "note": 80,
      "start": 15.517,
      "duration": 0.1327,
      "velocity": 93,
      "chip": "ym2612"
    },
    {
      "channel": 5,
      "note": 76,
      "start": 15.6345,
      "duration": 0.1334,
      "velocity": 120,
      "chip": "ym2612"
    },
    {
      "channel": 4,
      "note": 87,
      "start": 15.6503,
      "duration": 0.1331,
      "velocity": 93,
      "chip": "ym2612"
    },
    {
      "channel": 0,
      "note": 78,
      "start": 15.7662,
      "duration": 0.1325,
      "velocity": 93,
      "chip": "ym2612"
    },
    {
      "channel": 5,
      "note": 76,
      "start": 15.7685,
      "duration": 0.1319,
      "velocity": 120,
      "chip": "ym2612"
    },
    {
      "channel": 5,
      "note": 76,
      "start": 15.9009,
      "duration": 0.1359,
      "velocity": 120,
      "chip": "ym2612"
    },
    {
      "channel": 4,
      "note": 78,
      "start": 15.9177,
      "duration": 0.1326,
      "velocity": 93,
      "chip": "ym2612"
    },
    {
      "channel": 0,
      "note": 83,
      "start": 16.0329,
      "duration": 1.07,
      "velocity": 64,
      "chip": "ym2612"
    },
    {
      "channel": 1,
      "note": 59,
      "start": 16.034,
      "duration": 1.0701,
      "velocity": 97,
      "chip": "ym2612"
    },
    {
      "channel": 2,
      "note": 78,
      "start": 16.0349,
      "duration": 1.0723,
      "velocity": 87,
      "chip": "ym2612"
    },
    {
      "channel": 3,
      "note": 75,
      "start": 16.0362,
      "duration": 1.0737,
      "velocity": 88,
      "chip": "ym2612"
    },
    {
      "channel": 5,
      "note": 76,
      "start": 16.0373,
      "duration": 0.2642,
      "velocity": 120,
      "chip": "ym2612"
    },
    {
      "channel": 4,
      "note": 83,
      "start": 16.1846,
      "duration": 1.0693,
      "velocity": 64,
      "chip": "ym2612"
    },
    {
      "channel": 5,
      "note": 76,
      "start": 16.3021,
      "duration": 0.2663,
      "velocity": 120,
      "chip": "ym2612"
    },
    {
      "channel": 5,
      "note": 76,
      "start": 16.7028,
      "duration": 0.1326,
      "velocity": 120,
      "chip": "ym2612"
    },
    {
      "channel": 5,
      "note": 76,
      "start": 16.8359,
      "duration": 0.1329,
      "velocity": 120,
      "chip": "ym2612"
    },
    {
      "channel": 5,
      "note": 76,
      "start": 16.9694,
      "duration": 0.1417,
      "velocity": 120,
      "chip": "ym2612"
    },
    {
      "channel": 0,
      "note": 81,
      "start": 17.1035,
      "duration": 0.7978,
      "velocity": 64,
      "chip": "ym2612"
    },
    {
      "channel": 1,
      "note": 66,
      "start": 17.1048,
      "duration": 0.2628,
      "velocity": 97,
      "chip": "ym2612"
    },
    {
      "channel": 5,
      "note": 76,
      "start": 17.1116,
      "duration": 0.1234,
      "velocity": 120,
      "chip": "ym2612"
    },
    {
      "channel": 4,
      "note": 81,
      "start": 17.2545,
      "duration": 0.7975,
      "velocity": 64,
      "chip": "ym2612"
    },
    {
      "channel": 2,
      "note": 76,
      "start": 17.3689,
      "duration": 0.1324,
      "velocity": 87,
      "chip": "ym2612"
    },
    {
      "channel": 3,
      "note": 73,
      "start": 17.3697,
      "duration": 0.1319,
      "velocity": 88,
      "chip": "ym2612"
    },
    {
      "channel": 5,
      "note": 76,
      "start": 17.3711,
      "duration": 0.131,
      "velocity": 120,
      "chip": "ym2612"
    },
    {
      "channel": 5,
      "note": 76,
      "start": 17.5027,
      "duration": 0.1355,
      "velocity": 120,
      "chip": "ym2612"
    },
    {
      "channel": 1,
      "note": 59,
      "start": 17.6357,
      "duration": 0.2664,
      "velocity": 97,
      "chip": "ym2612"
    },
    {
      "channel": 2,
      "note": 75,
      "start": 17.6364,
      "duration": 0.132,
      "velocity": 87,
      "chip": "ym2612"
    },
    {
      "channel": 3,
      "note": 71,
      "start": 17.6372,
      "duration": 0.1316,
      "velocity": 88,
      "chip": "ym2612"
    },
    {
      "channel": 5,
      "note": 76,
      "start": 17.6387,
      "duration": 0.1308,
      "velocity": 120,
      "chip": "ym2612"
    },
    {
      "channel": 0,
      "note": 80,
      "start": 17.9019,
      "duration": 0.1329,
      "velocity": 64,
      "chip": "ym2612"
    },
    {
      "channel": 5,
      "note": 76,
      "start": 17.9039,
      "duration": 0.1323,
      "velocity": 120,
      "chip": "ym2612"
    },
    {
      "channel": 0,
      "note": 79,
      "start": 18.0354,
      "duration": 0.1329,
      "velocity": 64,
      "chip": "ym2612"
    },
    {
      "channel": 5,
      "note": 76,
      "start": 18.0367,
      "duration": 0.134,
      "velocity": 120,
      "chip": "ym2612"
    },
    {
      "channel": 4,
      "note": 80,
      "start": 18.0526,
      "duration": 0.1331,
      "velocity": 64,
      "chip": "ym2612"
    },
    {
      "channel": 0,
      "note": 80,
      "start": 18.1689,
      "duration": 1.0674,
      "velocity": 64,
      "chip": "ym2612"
    },
    {
      "channel": 1,
      "note": 64,
      "start": 18.1697,
      "duration": 0.2659,
      "velocity": 97,
      "chip": "ym2612"
    },
    {
      "channel": 5,
      "note": 76,
      "start": 18.1713,
      "duration": 0.1316,
      "velocity": 120,
      "chip": "ym2612"
    },
    {
      "channel": 4,
      "note": 79,
      "start": 18.1864,
      "duration": 0.1329,
      "velocity": 64,
      "chip": "ym2612"
    },
    {
      "channel": 4,
      "note": 80,
      "start": 18.3199,
      "duration": 1.0674,
      "velocity": 64,
      "chip": "ym2612"
    },
    {
      "channel": 2,
      "note": 73,
      "start": 18.4365,
      "duration": 0.1327,
      "velocity": 87,
      "chip": "ym2612"
    },
    {
      "channel": 3,
      "note": 69,
      "start": 18.4373,
      "duration": 0.1322,
      "velocity": 88,
      "chip": "ym2612"
    },
    {
      "channel": 5,
      "note": 76,
      "start": 18.4387,
      "duration": 0.1315,
      "velocity": 120,
      "chip": "ym2612"
    },
    {
      "channel": 5,
      "note": 76,
      "start": 18.5707,
      "duration": 0.1342,
      "velocity": 120,
      "chip": "ym2612"
    },
    {
      "channel": 1,
      "note": 59,
      "start": 18.7033,
      "duration": 0.2664,
      "velocity": 97,
      "chip": "ym2612"
    },
    {
      "channel": 5,
      "note": 76,
      "start": 18.7054,
      "duration": 0.082,
      "velocity": 120,
      "chip": "ym2612"
    },
    {
      "channel": 5,
      "note": 76,
      "start": 18.788,
      "duration": 0.0825,
      "velocity": 120,
      "chip": "ym2612"
    },
    {
      "channel": 5,
      "note": 76,
      "start": 18.871,
      "duration": 0.1017,
      "velocity": 120,
      "chip": "ym2612"
    },
    {
      "channel": 2,
      "note": 71,
      "start": 18.971,
      "duration": 0.1323,
      "velocity": 87,
      "chip": "ym2612"
    },
    {
      "channel": 3,
      "note": 68,
      "start": 18.9722,
      "duration": 0.1314,
      "velocity": 88,
      "chip": "ym2612"
    },
    {
      "channel": 5,
      "note": 76,
      "start": 18.9733,
      "duration": 0.0809,
      "velocity": 120,
      "chip": "ym2612"
    },
    {
      "channel": 5,
      "note": 76,
      "start": 19.0548,
      "duration": 0.0824,
      "velocity": 120,
      "chip": "ym2612"
    },
    {
      "channel": 5,
      "note": 76,
      "start": 19.1378,
      "duration": 0.1015,
      "velocity": 120,
      "chip": "ym2612"
    },
    {
      "channel": 0,
      "note": 81,
      "start": 19.237,
      "duration": 0.8004,
      "velocity": 64,
      "chip": "ym2612"
    },
    {
      "channel": 1,
      "note": 66,
      "start": 19.2377,
      "duration": 0.2659,
      "velocity": 97,
      "chip": "ym2612"
    },
    {
      "channel": 5,
      "note": 76,
      "start": 19.2398,
      "duration": 0.2668,
      "velocity": 120,
      "chip": "ym2612"
    },
    {
      "channel": 4,
      "note": 81,
      "start": 19.3879,
      "duration": 0.8002,
      "velocity": 64,
      "chip": "ym2612"
    },
    {
      "channel": 2,
      "note": 76,
      "start": 19.505,
      "duration": 0.1324,
      "velocity": 87,
      "chip": "ym2612"
    },
    {
      "channel": 3,
      "note": 61,
      "start": 19.5061,
      "duration": 0.1315,
      "velocity": 88,
      "chip": "ym2612"
    },
    {
      "channel": 5,
      "note": 76,
      "start": 19.5071,
      "duration": 0.2663,
      "velocity": 120,
      "chip": "ym2612"
    },
    {
      "channel": 1,
      "note": 59,
      "start": 19.7714,
      "duration": 0.2668,
      "velocity": 97,
      "chip": "ym2612"
    },
    {
      "channel": 2,
      "note": 75,
      "start": 19.7722,
      "duration": 0.1324,
      "velocity": 87,
      "chip": "ym2612"
    },
    {
      "channel": 3,
      "note": 59,
      "start": 19.7729,
      "duration": 0.132,
      "velocity": 88,
      "chip": "ym2612"
    },
    {
      "channel": 5,
      "note": 76,
      "start": 19.774,
      "duration": 0.2654,
      "velocity": 120,
      "chip": "ym2612"
    },
    {
      "channel": 0,
      "note": 80,
      "start": 20.038,
      "duration": 0.1329,
      "velocity": 64,
      "chip": "ym2612"
    },
    {
      "channel": 5,
      "note": 76,
      "start": 20.04,
      "duration": 0.1323,
      "velocity": 120,
      "chip": "ym2612"
    },
    {
      "channel": 0,
      "note": 79,
      "start": 20.1715,
      "duration": 0.1329,
      "velocity": 64,
      "chip": "ym2612"
    },
    {
      "channel": 5,
      "note": 76,
      "start": 20.1728,
      "duration": 0.1349,
      "velocity": 120,
      "chip": "ym2612"
    },
    {
      "channel": 4,
      "note": 80,
      "start": 20.1887,
      "duration": 0.1334,
      "velocity": 64,
      "chip": "ym2612"
    },
    {
      "channel": 0,
      "note": 80,
      "start": 20.305,
      "duration": 0.1329,
      "velocity": 64,
      "chip": "ym2612"
    },
    {
      "channel": 1,
      "note": 64,
      "start": 20.3058,
      "duration": 0.2668,
      "velocity": 97,
      "chip": "ym2612"
    },
    {
      "channel": 3,
      "note": 68,
      "start": 20.3068,
      "duration": 0.1317,
      "velocity": 88,
      "chip": "ym2612"
    },
    {
      "channel": 5,
      "note": 76,
      "start": 20.3083,
      "duration": 0.266,
      "velocity": 120,
      "chip": "ym2612"
    },
    {
      "channel": 4,
      "note": 79,
      "start": 20.3227,
      "duration": 0.1324,
      "velocity": 64,
      "chip": "ym2612"
    },
    {
      "channel": 4,
      "note": 80,
      "start": 20.4557,
      "duration": 0.1331,
      "velocity": 64,
      "chip": "ym2612"
    },
    {
      "channel": 0,
      "note": 85,
      "start": 20.5724,
      "duration": 0.1325,
      "velocity": 64,
      "chip": "ym2612"
    },
    {
      "channel": 2,
      "note": 85,
      "start": 20.5735,
      "duration": 0.1318,
      "velocity": 87,
      "chip": "ym2612"
    },
    {
      "channel": 5,
      "note": 76,
      "start": 20.5748,
      "duration": 0.2673,
      "velocity": 120,
      "chip": "ym2612"
    },
    {
      "channel": 4,
      "note": 85,
      "start": 20.7229,
      "duration": 0.1332,
      "velocity": 64,
      "chip": "ym2612"
    },
    {
      "channel": 0,
      "note": 83,
      "start": 20.8394,
      "duration": 0.1325,
      "velocity": 64,
      "chip": "ym2612"
    },
    {
      "channel": 1,
      "note": 59,
      "start": 20.8402,
      "duration": 0.266,
      "velocity": 97,
      "chip": "ym2612"
    },
    {
      "channel": 3,
      "note": 64,
      "start": 20.8417,
      "duration": 0.1309,
      "velocity": 88,
      "chip": "ym2612"
    },
    {
      "channel": 5,
      "note": 76,
      "start": 20.8427,
      "duration": 0.0807,
      "velocity": 120,
      "chip": "ym2612"
    },
    {
      "channel": 5,
      "note": 76,
      "start": 20.9239,
      "duration": 0.0822,
      "velocity": 120,
      "chip": "ym2612"
    },
    {
      "channel": 4,
      "note": 83,
      "start": 20.9902,
      "duration": 0.1327,
      "velocity": 64,
      "chip": "ym2612"
    },
    {
      "channel": 5,
      "note": 76,
      "start": 21.0066,
      "duration": 0.1016,
      "velocity": 120,
      "chip": "ym2612"
    },
    {
      "channel": 0,
      "note": 85,
      "start": 21.106,
      "duration": 0.1329,
      "velocity": 64,
      "chip": "ym2612"
    },
    {
      "channel": 2,
      "note": 80,
      "start": 21.1075,
      "duration": 0.1318,
      "velocity": 87,
      "chip": "ym2612"
    },
    {
      "channel": 5,
      "note": 76,
      "start": 21.1088,
      "duration": 0.0809,
      "velocity": 120,
      "chip": "ym2612"
    },
    {
      "channel": 5,
      "note": 76,
      "start": 21.1902,
      "duration": 0.0827,
      "velocity": 120,
      "chip": "ym2612"
    },
    {
      "channel": 4,
      "note": 85,
      "start": 21.2565,
      "duration": 0.1334,
      "velocity": 64,
      "chip": "ym2612"
    },
    {
      "channel": 5,
      "note": 76,
      "start": 21.2734,
      "duration": 0.1019,
      "velocity": 120,
      "chip": "ym2612"
    },
    {
      "channel": 0,
      "note": 87,
      "start": 21.3731,
      "duration": 0.8004,
      "velocity": 64,
      "chip": "ym2612"
    },
    {
      "channel": 1,
      "note": 61,
      "start": 21.3738,
      "duration": 0.2659,
      "velocity": 97,
      "chip": "ym2612"
    },
    {
      "channel": 5,
      "note": 76,
      "start": 21.3758,
      "duration": 0.2669,
      "velocity": 120,
      "chip": "ym2612"
    },
    {
      "channel": 4,
      "note": 87,
      "start": 21.524,
      "duration": 0.8001,
      "velocity": 64,
      "chip": "ym2612"
    },
    {
      "channel": 2,
      "note": 83,
      "start": 21.6411,
      "duration": 0.1323,
      "velocity": 87,
      "chip": "ym2612"
    },
    {
      "channel": 3,
      "note": 65,
      "start": 21.6422,
      "duration": 0.1315,
      "velocity": 88,
      "chip": "ym2612"
    },
    {
      "channel": 5,
      "note": 76,
      "start": 21.6432,
      "duration": 0.2671,
      "velocity": 120,
      "chip": "ym2612"
    },
    {
      "channel": 1,
      "note": 56,
      "start": 21.9078,
      "duration": 0.2664,
      "velocity": 97,
      "chip": "ym2612"
    },
    {
      "channel": 2,
      "note": 83,
      "start": 21.909,
      "duration": 0.1317,
      "velocity": 87,
      "chip": "ym2612"
    },
    {
      "channel": 3,
      "note": 65,
      "start": 21.9098,
      "duration": 0.1312,
      "velocity": 88,
      "chip": "ym2612"
    },
    {
      "channel": 5,
      "note": 76,
      "start": 21.9109,
      "duration": 0.2642,
      "velocity": 120,
      "chip": "ym2612"
    },
    {
      "channel": 0,
      "note": 85,
      "start": 22.1741,
      "duration": 0.1332,
      "velocity": 64,
      "chip": "ym2612"
    },
    {
      "channel": 5,
      "note": 76,
      "start": 22.1756,
      "duration": 0.2677,
      "velocity": 120,
      "chip": "ym2612"
    },
    {
      "channel": 0,
      "note": 83,
      "start": 22.308,
      "duration": 0.1325,
      "velocity": 64,
      "chip": "ym2612"
    },
    {
      "channel": 4,
      "note": 85,
      "start": 22.3248,
      "duration": 0.1335,
      "velocity": 64,
      "chip": "ym2612"
    },
    {
      "channel": 0,
      "note": 82,
      "start": 22.4411,
      "duration": 1.0678,
      "velocity": 64,
      "chip": "ym2612"
    },
    {
      "channel": 1,
      "note": 63,
      "start": 22.4419,
      "duration": 0.2659,
      "velocity": 97,
      "chip": "ym2612"
    },
    {
      "channel": 5,
      "note": 76,
      "start": 22.4439,
      "duration": 0.1312,
      "velocity": 120,
      "chip": "ym2612"
    },
    {
      "channel": 4,
      "note": 83,
      "start": 22.459,
      "duration": 0.1324,
      "velocity": 64,
      "chip": "ym2612"
    },
    {
      "channel": 5,
      "note": 76,
      "start": 22.5756,
      "duration": 0.1351,
      "velocity": 120,
      "chip": "ym2612"
    },
    {
      "channel": 4,
      "note": 82,
      "start": 22.5921,
      "duration": 1.0678,
      "velocity": 64,
      "chip": "ym2612"
    },
    {
      "channel": 2,
      "note": 79,
      "start": 22.7091,
      "duration": 0.1324,
      "velocity": 87,
      "chip": "ym2612"
    },
    {
      "channel": 3,
      "note": 63,
      "start": 22.7099,
      "duration": 0.1319,
      "velocity": 88,
      "chip": "ym2612"
    },
    {
      "channel": 5,
      "note": 76,
      "start": 22.7113,
      "duration": 0.1311,
      "velocity": 120,
      "chip": "ym2612"
    },
    {
      "channel": 1,
      "note": 58,
      "start": 22.9759,
      "duration": 0.266,
      "velocity": 97,
      "chip": "ym2612"
    },
    {
      "channel": 5,
      "note": 76,
      "start": 22.978,
      "duration": 0.1312,
      "velocity": 120,
      "chip": "ym2612"
    },
    {
      "channel": 5,
      "note": 76,
      "start": 23.1098,
      "duration": 0.1348,
      "velocity": 120,
      "chip": "ym2612"
    },
    {
      "channel": 2,
      "note": 79,
      "start": 23.2428,
      "duration": 0.1327,
      "velocity": 87,
      "chip": "ym2612"
    },
    {
      "channel": 3,
      "note": 63,
      "start": 23.2436,
      "duration": 0.1322,
      "velocity": 88,
      "chip": "ym2612"
    },
    {
      "channel": 5,
      "note": 76,
      "start": 23.2451,
      "duration": 0.1313,
      "velocity": 120,
      "chip": "ym2612"
    },
    {
      "channel": 0,
      "note": 80,
      "start": 23.5095,
      "duration": 0.8,
      "velocity": 64,
      "chip": "ym2612"
    },
    {
      "channel": 1,
      "note": 60,
      "start": 23.5103,
      "duration": 0.2655,
      "velocity": 97,
      "chip": "ym2612"
    },
    {
      "channel": 5,
      "note": 76,
      "start": 23.512,
      "duration": 0.266,
      "velocity": 120,
      "chip": "ym2612"
    },
    {
      "channel": 4,
      "note": 80,
      "start": 23.6605,
      "duration": 0.7997,
      "velocity": 64,
      "chip": "ym2612"
    },
    {
      "channel": 2,
      "note": 75,
      "start": 23.7767,
      "duration": 0.1328,
      "velocity": 87,
      "chip": "ym2612"
    },
    {
      "channel": 3,
      "note": 58,
      "start": 23.7775,
      "duration": 0.1323,
      "velocity": 88,
      "chip": "ym2612"
    },
    {
      "channel": 5,
      "note": 76,
      "start": 23.7785,
      "duration": 0.2679,
      "velocity": 120,
      "chip": "ym2612"
    },
    {
      "channel": 1,
      "note": 58,
      "start": 24.0435,
      "duration": 0.2668,
      "velocity": 97,
      "chip": "ym2612"
    },
    {
      "channel": 2,
      "note": 74,
      "start": 24.0447,
      "duration": 0.1321,
      "velocity": 87,
      "chip": "ym2612"
    },
    {
      "channel": 3,
      "note": 58,
      "start": 24.0455,
      "duration": 0.1316,
      "velocity": 88,
      "chip": "ym2612"
    },
    {
      "channel": 5,
      "note": 76,
      "start": 24.047,
      "duration": 0.1308,
      "velocity": 120,
      "chip": "ym2612"
    },
    {
      "channel": 5,
      "note": 76,
      "start": 24.1783,
      "duration": 0.1333,
      "velocity": 120,
      "chip": "ym2612"
    },
    {
      "channel": 0,
      "note": 79,
      "start": 24.3102,
      "duration": 0.1329,
      "velocity": 64,
      "chip": "ym2612"
    },
    {
      "channel": 5,
      "note": 76,
      "start": 24.3121,
      "duration": 0.268,
      "velocity": 120,
      "chip": "ym2612"
    },
    {
      "channel": 0,
      "note": 77,
      "start": 24.4437,
      "duration": 0.1329,
      "velocity": 64,
      "chip": "ym2612"
    },
    {
      "channel": 4,
      "note": 79,
      "start": 24.4609,
      "duration": 0.1336,
      "velocity": 64,
      "chip": "ym2612"
    },
    {
      "channel": 0,
      "note": 79,
      "start": 24.5772,
      "duration": 0.1329,
      "velocity": 64,
      "chip": "ym2612"
    },
    {
      "channel": 1,
      "note": 63,
      "start": 24.5779,
      "duration": 0.5334,
      "velocity": 97,
      "chip": "ym2612"
    },
    {
      "channel": 2,
      "note": 75,
      "start": 24.5791,
      "duration": 0.1324,
      "velocity": 87,
      "chip": "ym2612"
    },
    {
      "channel": 3,
      "note": 58,
      "start": 24.5797,
      "duration": 1.0716,
      "velocity": 88,
      "chip": "ym2612"
    },
    {
      "channel": 5,
      "note": 76,
      "start": 24.5807,
      "duration": 0.2657,
      "velocity": 120,
      "chip": "ym2612"
    },
    {
      "channel": 4,
      "note": 77,
      "start": 24.5951,
      "duration": 0.1329,
      "velocity": 64,
      "chip": "ym2612"
    },
    {
      "channel": 0,
      "note": 79,
      "start": 24.7107,
      "duration": 0.1329,
      "velocity": 64,
      "chip": "ym2612"
    },
    {
      "channel": 2,
      "note": 75,
      "start": 24.7121,
      "duration": 0.1329,
      "velocity": 87,
      "chip": "ym2612"
    },
    {
      "channel": 4,
      "note": 79,
      "start": 24.7286,
      "duration": 0.1329,
      "velocity": 64,
      "chip": "ym2612"
    },
    {
      "channel": 0,
      "note": 80,
      "start": 24.8442,
      "duration": 0.1329,
      "velocity": 64,
      "chip": "ym2612"
    },
    {
      "channel": 2,
      "note": 77,
      "start": 24.8456,
      "duration": 0.1329,
      "velocity": 87,
      "chip": "ym2612"
    },
    {
      "channel": 5,
      "note": 76,
      "start": 24.847,
      "duration": 0.2661,
      "velocity": 120,
      "chip": "ym2612"
    },
    {
      "channel": 4,
      "note": 79,
      "start": 24.8621,
      "duration": 0.1329,
      "velocity": 64,
      "chip": "ym2612"
    },
    {
      "channel": 0,
      "note": 82,
      "start": 24.9777,
      "duration": 0.1329,
      "velocity": 64,
      "chip": "ym2612"
    },
    {
      "channel": 2,
      "note": 79,
      "start": 24.9792,
      "duration": 0.1325,
      "velocity": 87,
      "chip": "ym2612"
    },
    {
      "channel": 4,
      "note": 80,
      "start": 24.9956,
      "duration": 0.1326,
      "velocity": 64,
      "chip": "ym2612"
    },
    {
      "channel": 0,
      "note": 84,
      "start": 25.1112,
      "duration": 0.1329,
      "velocity": 64,
      "chip": "ym2612"
    },
    {
      "channel": 2,
      "note": 80,
      "start": 25.1123,
      "duration": 0.133,
      "velocity": 87,
      "chip": "ym2612"
    },
    {
      "channel": 5,
      "note": 76,
      "start": 25.1136,
      "duration": 0.0822,
      "velocity": 120,
      "chip": "ym2612"
    },
    {
      "channel": 4,
      "note": 82,
      "start": 25.1289,
      "duration": 0.1329,
      "velocity": 64,
      "chip": "ym2612"
    },
    {
      "channel": 5,
      "note": 76,
      "start": 25.1963,
      "duration": 0.0825,
      "velocity": 120,
      "chip": "ym2612"
    },
    {
      "channel": 0,
      "note": 86,
      "start": 25.2447,
      "duration": 0.1329,
      "velocity": 64,
      "chip": "ym2612"
    },
    {
      "channel": 2,
      "note": 82,
      "start": 25.2459,
      "duration": 0.1325,
      "velocity": 87,
      "chip": "ym2612"
    },
    {
      "channel": 4,
      "note": 84,
      "start": 25.2624,
      "duration": 0.1329,
      "velocity": 64,
      "chip": "ym2612"
    },
    {
      "channel": 5,
      "note": 76,
      "start": 25.2793,
      "duration": 0.1005,
      "velocity": 120,
      "chip": "ym2612"
    },
    {
      "channel": 0,
      "note": 87,
      "start": 25.3782,
      "duration": 0.1329,
      "velocity": 64,
      "chip": "ym2612"
    },
    {
      "channel": 2,
      "note": 84,
      "start": 25.379,
      "duration": 0.1329,
      "velocity": 87,
      "chip": "ym2612"
    },
    {
      "channel": 5,
      "note": 76,
      "start": 25.3804,
      "duration": 0.082,
      "velocity": 120,
      "chip": "ym2612"
    },
    {
      "channel": 4,
      "note": 86,
      "start": 25.3959,
      "duration": 0.1329,
      "velocity": 64,
      "chip": "ym2612"
    },
    {
      "channel": 5,
      "note": 76,
      "start": 25.4629,
      "duration": 0.0829,
      "velocity": 120,
      "chip": "ym2612"
    },
    {
      "channel": 0,
      "note": 89,
      "start": 25.5117,
      "duration": 0.1333,
      "velocity": 64,
      "chip": "ym2612"
    },
    {
      "channel": 2,
      "note": 86,
      "start": 25.5126,
      "duration": 0.1361,
      "velocity": 97,
      "chip": "ym2612"
    },
    {
      "channel": 4,
      "note": 87,
      "start": 25.5294,
      "duration": 0.1326,
      "velocity": 64,
      "chip": "ym2612"
    },
    {
      "channel": 5,
      "note": 76,
      "start": 25.5463,
      "duration": 0.106,
      "velocity": 120,
      "chip": "ym2612"
    },
    {
      "channel": 0,
      "note": 87,
      "start": 25.6456,
      "duration": 0.8,
      "velocity": 64,
      "chip": "ym2612"
    },
    {
      "channel": 1,
      "note": 66,
      "start": 25.6464,
      "duration": 0.2655,
      "velocity": 97,
      "chip": "ym2612"
    },
    {
      "channel": 5,
      "note": 76,
      "start": 25.6529,
      "duration": 0.0766,
      "velocity": 120,
      "chip": "ym2612"
    },
    {
      "channel": 4,
      "note": 89,
      "start": 25.6627,
      "duration": 0.1333,
      "velocity": 64,
      "chip": "ym2612"
    },
    {
      "channel": 5,
      "note": 76,
      "start": 25.73,
      "duration": 0.0829,
      "velocity": 120,
      "chip": "ym2612"
    },
    {
      "channel": 4,
      "note": 87,
      "start": 25.7966,
      "duration": 0.7998,
      "velocity": 64,
      "chip": "ym2612"
    },
    {
      "channel": 5,
      "note": 76,
      "start": 25.8135,
      "duration": 0.1014,
      "velocity": 120,
      "chip": "ym2612"
    },
    {
      "channel": 2,
      "note": 81,
      "start": 25.9132,
      "duration": 0.1324,
      "velocity": 97,
      "chip": "ym2612"
    },
    {
      "channel": 3,
      "note": 66,
      "start": 25.914,
      "duration": 0.1319,
      "velocity": 88,
      "chip": "ym2612"
    },
    {
      "channel": 5,
      "note": 76,
      "start": 25.9154,
      "duration": 0.0811,
      "velocity": 120,
      "chip": "ym2612"
    },
    {
      "channel": 5,
      "note": 76,
      "start": 25.997,
      "duration": 0.0824,
      "velocity": 120,
      "chip": "ym2612"
    },
    {
      "channel": 5,
      "note": 76,
      "start": 26.08,
      "duration": 0.1022,
      "velocity": 120,
      "chip": "ym2612"
    },
    {
      "channel": 1,
      "note": 59,
      "start": 26.1796,
      "duration": 0.2668,
      "velocity": 97,
      "chip": "ym2612"
    },
    {
      "channel": 2,
      "note": 81,
      "start": 26.1808,
      "duration": 0.132,
      "velocity": 97,
      "chip": "ym2612"
    },
    {
      "channel": 3,
      "note": 66,
      "start": 26.1816,
      "duration": 0.1316,
      "velocity": 88,
      "chip": "ym2612"
    },
    {
      "channel": 5,
      "note": 76,
      "start": 26.1827,
      "duration": 0.265,
      "velocity": 120,
      "chip": "ym2612"
    },
    {
      "channel": 0,
      "note": 85,
      "start": 26.4463,
      "duration": 0.1329,
      "velocity": 64,
      "chip": "ym2612"
    },
    {
      "channel": 5,
      "note": 76,
      "start": 26.4482,
      "duration": 0.2669,
      "velocity": 120,
      "chip": "ym2612"
    },
    {
      "channel": 0,
      "note": 84,
      "start": 26.5798,
      "duration": 0.1329,
      "velocity": 64,
      "chip": "ym2612"
    },
    {
      "channel": 4,
      "note": 85,
      "start": 26.597,
      "duration": 0.1331,
      "velocity": 64,
      "chip": "ym2612"
    },
    {
      "channel": 0,
      "note": 85,
      "start": 26.7133,
      "duration": 1.0674,
      "velocity": 64,
      "chip": "ym2612"
    },
    {
      "channel": 1,
      "note": 64,
      "start": 26.714,
      "duration": 0.2659,
      "velocity": 97,
      "chip": "ym2612"
    },
    {
      "channel": 5,
      "note": 76,
      "start": 26.7157,
      "duration": 0.0818,
      "velocity": 120,
      "chip": "ym2612"
    },
    {
      "channel": 4,
      "note": 84,
      "start": 26.7307,
      "duration": 0.1329,
      "velocity": 64,
      "chip": "ym2612"
    },
    {
      "channel": 5,
      "note": 76,
      "start": 26.7981,
      "duration": 0.0829,
      "velocity": 120,
      "chip": "ym2612"
    },
    {
      "channel": 4,
      "note": 85,
      "start": 26.8642,
      "duration": 1.0674,
      "velocity": 64,
      "chip": "ym2612"
    },
    {
      "channel": 5,
      "note": 76,
      "start": 26.8815,
      "duration": 0.1014,
      "velocity": 120,
      "chip": "ym2612"
    },
    {
      "channel": 2,
      "note": 80,
      "start": 26.9813,
      "duration": 0.1324,
      "velocity": 97,
      "chip": "ym2612"
    },
    {
      "channel": 3,
      "note": 64,
      "start": 26.982,
      "duration": 0.1319,
      "velocity": 88,
      "chip": "ym2612"
    },
    {
      "channel": 5,
      "note": 76,
      "start": 26.9834,
      "duration": 0.0811,
      "velocity": 120,
      "chip": "ym2612"
    },
    {
      "channel": 5,
      "note": 76,
      "start": 27.0651,
      "duration": 0.0824,
      "velocity": 120,
      "chip": "ym2612"
    },
    {
      "channel": 5,
      "note": 76,
      "start": 27.148,
      "duration": 0.1017,
      "velocity": 120,
      "chip": "ym2612"
    },
    {
      "channel": 1,
      "note": 59,
      "start": 27.2477,
      "duration": 0.2664,
      "velocity": 97,
      "chip": "ym2612"
    },
    {
      "channel": 2,
      "note": 79,
      "start": 27.2488,
      "duration": 0.132,
      "velocity": 97,
      "chip": "ym2612"
    },
    {
      "channel": 5,
      "note": 76,
      "start": 27.2502,
      "duration": 0.2665,
      "velocity": 120,
      "chip": "ym2612"
    },
    {
      "channel": 2,
      "note": 80,
      "start": 27.515,
      "duration": 0.1327,
      "velocity": 97,
      "chip": "ym2612"
    },
    {
      "channel": 3,
      "note": 64,
      "start": 27.5158,
      "duration": 0.1322,
      "velocity": 88,
      "chip": "ym2612"
    },
    {
      "channel": 5,
      "note": 76,
      "start": 27.5173,
      "duration": 0.266,
      "velocity": 120,
      "chip": "ym2612"
    },
    {
      "channel": 0,
      "note": 87,
      "start": 27.7813,
      "duration": 0.8004,
      "velocity": 64,
      "chip": "ym2612"
    },
    {
      "channel": 1,
      "note": 66,
      "start": 27.7821,
      "duration": 0.2659,
      "velocity": 97,
      "chip": "ym2612"
    },
    {
      "channel": 5,
      "note": 76,
      "start": 27.7839,
      "duration": 0.0818,
      "velocity": 120,
      "chip": "ym2612"
    },
    {
      "channel": 5,
      "note": 76,
      "start": 27.8662,
      "duration": 0.0828,
      "velocity": 120,
      "chip": "ym2612"
    },
    {
      "channel": 4,
      "note": 87,
      "start": 27.9323,
      "duration": 0.8001,
      "velocity": 64,
      "chip": "ym2612"
    },
    {
      "channel": 5,
      "note": 76,
      "start": 27.9496,
      "duration": 0.1014,
      "velocity": 120,
      "chip": "ym2612"
    },
    {
      "channel": 2,
      "note": 81,
      "start": 28.0493,
      "duration": 0.1324,
      "velocity": 97,
      "chip": "ym2612"
    },
    {
      "channel": 3,
      "note": 66,
      "start": 28.0501,
      "duration": 0.1319,
      "velocity": 88,
      "chip": "ym2612"
    },
    {
      "channel": 5,
      "note": 76,
      "start": 28.0515,
      "duration": 0.0811,
      "velocity": 120,
      "chip": "ym2612"
    },
    {
      "channel": 5,
      "note": 76,
      "start": 28.1331,
      "duration": 0.0824,
      "velocity": 120,
      "chip": "ym2612"
    },
    {
      "channel": 5,
      "note": 76,
      "start": 28.216,
      "duration": 0.1022,
      "velocity": 120,
      "chip": "ym2612"
    },
    {
      "channel": 1,
      "note": 59,
      "start": 28.3157,
      "duration": 0.2668,
      "velocity": 97,
      "chip": "ym2612"
    },
    {
      "channel": 2,
      "note": 81,
      "start": 28.3169,
      "duration": 0.132,
      "velocity": 97,
      "chip": "ym2612"
    },
    {
      "channel": 3,
      "note": 66,
      "start": 28.3176,
      "duration": 0.1316,
      "velocity": 88,
      "chip": "ym2612"
    },
    {
      "channel": 5,
      "note": 76,
      "start": 28.3188,
      "duration": 0.265,
      "velocity": 120,
      "chip": "ym2612"
    },
    {
      "channel": 0,
      "note": 85,
      "start": 28.5823,
      "duration": 0.1333,
      "velocity": 64,
      "chip": "ym2612"
    },
    {
      "channel": 5,
      "note": 76,
      "start": 28.5843,
      "duration": 0.2673,
      "velocity": 120,
      "chip": "ym2612"
    },
    {
      "channel": 0,
      "note": 84,
      "start": 28.7162,
      "duration": 0.1329,
      "velocity": 64,
      "chip": "ym2612"
    },
    {
      "channel": 4,
      "note": 85,
      "start": 28.733,
      "duration": 0.1335,
      "velocity": 64,
      "chip": "ym2612"
    },
    {
      "channel": 0,
      "note": 85,
      "start": 28.8498,
      "duration": 0.1325,
      "velocity": 64,
      "chip": "ym2612"
    },
    {
      "channel": 1,
      "note": 64,
      "start": 28.8505,
      "duration": 0.266,
      "velocity": 97,
      "chip": "ym2612"
    },
    {
      "channel": 5,
      "note": 76,
      "start": 28.8522,
      "duration": 0.0814,
      "velocity": 120,
      "chip": "ym2612"
    },
    {
      "channel": 4,
      "note": 84,
      "start": 28.8672,
      "duration": 0.1326,
      "velocity": 64,
      "chip": "ym2612"
    },
    {
      "channel": 5,
      "note": 76,
      "start": 28.9342,
      "duration": 0.0827,
      "velocity": 120,
      "chip": "ym2612"
    },
    {
      "channel": 4,
      "note": 85,
      "start": 29.0005,
      "duration": 0.1329,
      "velocity": 64,
      "chip": "ym2612"
    },
    {
      "channel": 5,
      "note": 76,
      "start": 29.0174,
      "duration": 0.1017,
      "velocity": 120,
      "chip": "ym2612"
    },
    {
      "channel": 0,
      "note": 90,
      "start": 29.1164,
      "duration": 0.1329,
      "velocity": 64,
      "chip": "ym2612"
    },
    {
      "channel": 2,
      "note": 80,
      "start": 29.1174,
      "duration": 0.1322,
      "velocity": 97,
      "chip": "ym2612"
    },
    {
      "channel": 3,
      "note": 71,
      "start": 29.1182,
      "duration": 0.1317,
      "velocity": 88,
      "chip": "ym2612"
    },
    {
      "channel": 5,
      "note": 76,
      "start": 29.1196,
      "duration": 0.0806,
      "velocity": 120,
      "chip": "ym2612"
    },
    {
      "channel": 5,
      "note": 76,
      "start": 29.2008,
      "duration": 0.0824,
      "velocity": 120,
      "chip": "ym2612"
    },
    {
      "channel": 4,
      "note": 90,
      "start": 29.2668,
      "duration": 0.1334,
      "velocity": 64,
      "chip": "ym2612"
    },
    {
      "channel": 5,
      "note": 76,
      "start": 29.2837,
      "duration": 0.1014,
      "velocity": 120,
      "chip": "ym2612"
    },
    {
      "channel": 0,
      "note": 88,
      "start": 29.3834,
      "duration": 0.1329,
      "velocity": 64,
      "chip": "ym2612"
    },
    {
      "channel": 1,
      "note": 59,
      "start": 29.3841,
      "duration": 0.2664,
      "velocity": 97,
      "chip": "ym2612"
    },
    {
      "channel": 5,
      "note": 76,
      "start": 29.3857,
      "duration": 0.2673,
      "velocity": 120,
      "chip": "ym2612"
    },
    {
      "channel": 4,
      "note": 88,
      "start": 29.5341,
      "duration": 0.1334,
      "velocity": 64,
      "chip": "ym2612"
    },
    {
      "channel": 0,
      "note": 90,
      "start": 29.6504,
      "duration": 0.1329,
      "velocity": 64,
      "chip": "ym2612"
    },
    {
      "channel": 2,
      "note": 80,
      "start": 29.6515,
      "duration": 0.1322,
      "velocity": 97,
      "chip": "ym2612"
    },
    {
      "channel": 3,
      "note": 71,
      "start": 29.6522,
      "duration": 0.1317,
      "velocity": 88,
      "chip": "ym2612"
    },
    {
      "channel": 5,
      "note": 76,
      "start": 29.6536,
      "duration": 0.2657,
      "velocity": 120,
      "chip": "ym2612"
    },
    {
      "channel": 4,
      "note": 90,
      "start": 29.8008,
      "duration": 0.1334,
      "velocity": 64,
      "chip": "ym2612"
    },
    {
      "channel": 0,
      "note": 92,
      "start": 29.9174,
      "duration": 0.8004,
      "velocity": 64,
      "chip": "ym2612"
    },
    {
      "channel": 1,
      "note": 73,
      "start": 29.9182,
      "duration": 0.2659,
      "velocity": 97,
      "chip": "ym2612"
    },
    {
      "channel": 5,
      "note": 76,
      "start": 29.9199,
      "duration": 0.0816,
      "velocity": 120,
      "chip": "ym2612"
    },
    {
      "channel": 5,
      "note": 76,
      "start": 30.002,
      "duration": 0.0831,
      "velocity": 120,
      "chip": "ym2612"
    },
    {
      "channel": 4,
      "note": 92,
      "start": 30.0683,
      "duration": 0.8001,
      "velocity": 64,
      "chip": "ym2612"
    },
    {
      "channel": 5,
      "note": 76,
      "start": 30.0857,
      "duration": 0.1014,
      "velocity": 120,
      "chip": "ym2612"
    },
    {
      "channel": 2,
      "note": 88,
      "start": 30.1854,
      "duration": 0.1323,
      "velocity": 97,
      "chip": "ym2612"
    },
    {
      "channel": 3,
      "note": 70,
      "start": 30.1862,
      "duration": 0.1319,
      "velocity": 88,
      "chip": "ym2612"
    },
    {
      "channel": 5,
      "note": 76,
      "start": 30.1876,
      "duration": 0.0811,
      "velocity": 120,
      "chip": "ym2612"
    },
    {
      "channel": 5,
      "note": 76,
      "start": 30.2692,
      "duration": 0.0824,
      "velocity": 120,
      "chip": "ym2612"
    },
    {
      "channel": 5,
      "note": 76,
      "start": 30.3521,
      "duration": 0.1018,
      "velocity": 120,
      "chip": "ym2612"
    },
    {
      "channel": 1,
      "note": 66,
      "start": 30.4518,
      "duration": 0.2668,
      "velocity": 97,
      "chip": "ym2612"
    },
    {
      "channel": 2,
      "note": 88,
      "start": 30.4526,
      "duration": 0.1324,
      "velocity": 97,
      "chip": "ym2612"
    },
    {
      "channel": 3,
      "note": 70,
      "start": 30.4534,
      "duration": 0.1319,
      "velocity": 88,
      "chip": "ym2612"
    },
    {
      "channel": 5,
      "note": 76,
      "start": 30.4544,
      "duration": 0.2654,
      "velocity": 120,
      "chip": "ym2612"
    },
    {
      "channel": 0,
      "note": 90,
      "start": 30.7184,
      "duration": 0.1329,
      "velocity": 64,
      "chip": "ym2612"
    },
    {
      "channel": 5,
      "note": 76,
      "start": 30.7204,
      "duration": 0.267,
      "velocity": 120,
      "chip": "ym2612"
    },
    {
      "channel": 0,
      "note": 88,
      "start": 30.8519,
      "duration": 0.1329,
      "velocity": 64,
      "chip": "ym2612"
    },
    {
      "channel": 4,
      "note": 90,
      "start": 30.8691,
      "duration": 0.1331,
      "velocity": 64,
      "chip": "ym2612"
    },
    {
      "channel": 0,
      "note": 87,
      "start": 30.9854,
      "duration": 1.0678,
      "velocity": 64,
      "chip": "ym2612"
    },
    {
      "channel": 1,
      "note": 71,
      "start": 30.9862,
      "duration": 0.2659,
      "velocity": 97,
      "chip": "ym2612"
    },
    {
      "channel": 5,
      "note": 76,
      "start": 30.9879,
      "duration": 0.0818,
      "velocity": 120,
      "chip": "ym2612"
    },
    {
      "channel": 4,
      "note": 88,
      "start": 31.0029,
      "duration": 0.1329,
      "velocity": 64,
      "chip": "ym2612"
    },
    {
      "channel": 5,
      "note": 76,
      "start": 31.0702,
      "duration": 0.0829,
      "velocity": 120,
      "chip": "ym2612"
    },
    {
      "channel": 4,
      "note": 87,
      "start": 31.1364,
      "duration": 1.0678,
      "velocity": 64,
      "chip": "ym2612"
    },
    {
      "channel": 5,
      "note": 76,
      "start": 31.1537,
      "duration": 0.101,
      "velocity": 120,
      "chip": "ym2612"
    },
    {
      "channel": 2,
      "note": 90,
      "start": 31.253,
      "duration": 0.1327,
      "velocity": 97,
      "chip": "ym2612"
    },
    {
      "channel": 3,
      "note": 71,
      "start": 31.2538,
      "duration": 0.1322,
      "velocity": 88,
      "chip": "ym2612"
    },
    {
      "channel": 5,
      "note": 76,
      "start": 31.2552,
      "duration": 0.0815,
      "velocity": 120,
      "chip": "ym2612"
    },
    {
      "channel": 5,
      "note": 76,
      "start": 31.3372,
      "duration": 0.0824,
      "velocity": 120,
      "chip": "ym2612"
    },
    {
      "channel": 5,
      "note": 76,
      "start": 31.4202,
      "duration": 0.1008,
      "velocity": 120,
      "chip": "ym2612"
    },
    {
      "channel": 1,
      "note": 66,
      "start": 31.5198,
      "duration": 0.2664,
      "velocity": 97,
      "chip": "ym2612"
    },
    {
      "channel": 5,
      "note": 76,
      "start": 31.5215,
      "duration": 0.2674,
      "velocity": 120,
      "chip": "ym2612"
    },
    {
      "channel": 2,
      "note": 90,
      "start": 31.7872,
      "duration": 0.1327,
      "velocity": 97,
      "chip": "ym2612"
    },
    {
      "channel": 3,
      "note": 71,
      "start": 31.7879,
      "duration": 0.1322,
      "velocity": 88,
      "chip": "ym2612"
    },
    {
      "channel": 5,
      "note": 76,
      "start": 31.7895,
      "duration": 0.2664,
      "velocity": 120,
      "chip": "ym2612"
    },
    {
      "channel": 0,
      "note": 88,
      "start": 32.0539,
      "duration": 0.8004,
      "velocity": 64,
      "chip": "ym2612"
    },
    {
      "channel": 1,
      "note": 73,
      "start": 32.0546,
      "duration": 0.2655,
      "velocity": 97,
      "chip": "ym2612"
    },
    {
      "channel": 5,
      "note": 76,
      "start": 32.0564,
      "duration": 0.0814,
      "velocity": 120,
      "chip": "ym2612"
    },
    {
      "channel": 5,
      "note": 76,
      "start": 32.1384,
      "duration": 0.0824,
      "velocity": 120,
      "chip": "ym2612"
    },
    {
      "channel": 4,
      "note": 88,
      "start": 32.2048,
      "duration": 0.8002,
      "velocity": 64,
      "chip": "ym2612"
    },
    {
      "channel": 5,
      "note": 76,
      "start": 32.2213,
      "duration": 0.1014,
      "velocity": 120,
      "chip": "ym2612"
    },
    {
      "channel": 2,
      "note": 78,
      "start": 32.3215,
      "duration": 0.1324,
      "velocity": 97,
      "chip": "ym2612"
    },
    {
      "channel": 3,
      "note": 70,
      "start": 32.3222,
      "duration": 0.1319,
      "velocity": 88,
      "chip": "ym2612"
    },
    {
      "channel": 5,
      "note": 76,
      "start": 32.3232,
      "duration": 0.0815,
      "velocity": 120,
      "chip": "ym2612"
    },
    {
      "channel": 5,
      "note": 76,
      "start": 32.4053,
      "duration": 0.0824,
      "velocity": 120,
      "chip": "ym2612"
    },
    {
      "channel": 5,
      "note": 76,
      "start": 32.4882,
      "duration": 0.1022,
      "velocity": 120,
      "chip": "ym2612"
    },
    {
      "channel": 1,
      "note": 66,
      "start": 32.5879,
      "duration": 0.2672,
      "velocity": 97,
      "chip": "ym2612"
    },
    {
      "channel": 2,
      "note": 78,
      "start": 32.5886,
      "duration": 0.1324,
      "velocity": 97,
      "chip": "ym2612"
    },
    {
      "channel": 3,
      "note": 70,
      "start": 32.5894,
      "duration": 0.132,
      "velocity": 88,
      "chip": "ym2612"
    },
    {
      "channel": 5,
      "note": 76,
      "start": 32.5909,
      "duration": 0.5336,
      "velocity": 120,
      "chip": "ym2612"
    },
    {
      "channel": 0,
      "note": 87,
      "start": 32.8549,
      "duration": 0.1329,
      "velocity": 64,
      "chip": "ym2612"
    },
    {
      "channel": 0,
      "note": 85,
      "start": 32.9884,
      "duration": 0.1325,
      "velocity": 64,
      "chip": "ym2612"
    },
    {
      "channel": 4,
      "note": 87,
      "start": 33.0056,
      "duration": 0.1336,
      "velocity": 64,
      "chip": "ym2612"
    },
    {
      "channel": 0,
      "note": 87,
      "start": 33.1215,
      "duration": 0.1329,
      "velocity": 64,
      "chip": "ym2612"
    },
    {
      "channel": 1,
      "note": 71,
      "start": 33.1223,
      "duration": 1.0725,
      "velocity": 97,
      "chip": "ym2612"
    },
    {
      "channel": 2,
      "note": 78,
      "start": 33.1229,
      "duration": 1.0749,
      "velocity": 87,
      "chip": "ym2612"
    },
    {
      "channel": 3,
      "note": 71,
      "start": 33.1237,
      "duration": 0.1321,
      "velocity": 88,
      "chip": "ym2612"
    },
    {
      "channel": 5,
      "note": 76,
      "start": 33.1251,
      "duration": 0.265,
      "velocity": 120,
      "chip": "ym2612"
    },
    {
      "channel": 4,
      "note": 85,
      "start": 33.1398,
      "duration": 0.1322,
      "velocity": 64,
      "chip": "ym2612"
    },
    {
      "channel": 0,
      "note": 94,
      "start": 33.255,
      "duration": 0.1329,
      "velocity": 64,
      "chip": "ym2612"
    },
    {
      "channel": 4,
      "note": 87,
      "start": 33.2727,
      "duration": 0.1329,
      "velocity": 64,
      "chip": "ym2612"
    },
    {
      "channel": 0,
      "note": 92,
      "start": 33.3885,
      "duration": 0.1329,
      "velocity": 64,
      "chip": "ym2612"
    },
    {
      "channel": 5,
      "note": 76,
      "start": 33.3906,
      "duration": 0.2661,
      "velocity": 120,
      "chip": "ym2612"
    },
    {
      "channel": 4,
      "note": 94,
      "start": 33.4062,
      "duration": 0.1329,
      "velocity": 64,
      "chip": "ym2612"
    },
    {
      "channel": 0,
      "note": 90,
      "start": 33.522,
      "duration": 0.1329,
      "velocity": 64,
      "chip": "ym2612"
    },
    {
      "channel": 4,
      "note": 92,
      "start": 33.5397,
      "duration": 0.1329,
      "velocity": 64,
      "chip": "ym2612"
    },
    {
      "channel": 0,
      "note": 88,
      "start": 33.6555,
      "duration": 0.1329,
      "velocity": 64,
      "chip": "ym2612"
    },
    {
      "channel": 5,
      "note": 76,
      "start": 33.6572,
      "duration": 0.2665,
      "velocity": 120,
      "chip": "ym2612"
    },
    {
      "channel": 4,
      "note": 90,
      "start": 33.6732,
      "duration": 0.1329,
      "velocity": 64,
      "chip": "ym2612"
    },
    {
      "channel": 0,
      "note": 87,
      "start": 33.789,
      "duration": 0.1329,
      "velocity": 64,
      "chip": "ym2612"
    },
    {
      "channel": 4,
      "note": 88,
      "start": 33.8067,
      "duration": 0.1329,
      "velocity": 64,
      "chip": "ym2612"
    },
    {
      "channel": 0,
      "note": 85,
      "start": 33.9225,
      "duration": 0.1329,
      "velocity": 64,
      "chip": "ym2612"
    },
    {
      "channel": 5,
      "note": 76,
      "start": 33.9242,
      "duration": 0.2767,
      "velocity": 120,
      "chip": "ym2612"
    },
    {
      "channel": 4,
      "note": 87,
      "start": 33.9402,
      "duration": 0.1329,
      "velocity": 64,
      "chip": "ym2612"
    },
    {
      "channel": 0,
      "note": 83,
      "start": 34.0561,
      "duration": 0.1354,
      "velocity": 93,
      "chip": "ym2612"
    },
    {
      "channel": 4,
      "note": 85,
      "start": 34.0737,
      "duration": 0.1326,
      "velocity": 64,
      "chip": "ym2612"
    },
    {
      "channel": 0,
      "note": 81,
      "start": 34.1921,
      "duration": 0.7982,
      "velocity": 93,
      "chip": "ym2612"
    },
    {
      "channel": 1,
      "note": 66,
      "start": 34.1954,
      "duration": 0.2608,
      "velocity": 97,
      "chip": "ym2612"
    },
    {
      "channel": 4,
      "note": 83,
      "start": 34.207,
      "duration": 0.1355,
      "velocity": 93,
      "chip": "ym2612"
    },
    {
      "channel": 4,
      "note": 81,
      "start": 34.3432,
      "duration": 0.7979,
      "velocity": 93,
      "chip": "ym2612"
    },
    {
      "channel": 2,
      "note": 76,
      "start": 34.4576,
      "duration": 0.1324,
      "velocity": 87,
      "chip": "ym2612"
    },
    {
      "channel": 3,
      "note": 69,
      "start": 34.4587,
      "duration": 0.1315,
      "velocity": 88,
      "chip": "ym2612"
    },
    {
      "channel": 5,
      "note": 76,
      "start": 34.4598,
      "duration": 0.2663,
      "velocity": 120,
      "chip": "ym2612"
    },
    {
      "channel": 1,
      "note": 59,
      "start": 34.724,
      "duration": 0.2672,
      "velocity": 97,
      "chip": "ym2612"
    },
    {
      "channel": 2,
      "note": 75,
      "start": 34.7247,
      "duration": 0.1324,
      "velocity": 87,
      "chip": "ym2612"
    },
    {
      "channel": 3,
      "note": 69,
      "start": 34.7255,
      "duration": 0.132,
      "velocity": 88,
      "chip": "ym2612"
    },
    {
      "channel": 0,
      "note": 85,
      "start": 34.991,
      "duration": 0.1325,
      "velocity": 93,
      "chip": "ym2612"
    },
    {
      "channel": 5,
      "note": 76,
      "start": 34.9925,
      "duration": 0.2669,
      "velocity": 120,
      "chip": "ym2612"
    },
    {
      "channel": 0,
      "note": 83,
      "start": 35.1241,
      "duration": 0.1329,
      "velocity": 93,
      "chip": "ym2612"
    },
    {
      "channel": 4,
      "note": 85,
      "start": 35.1417,
      "duration": 0.1327,
      "velocity": 93,
      "chip": "ym2612"
    },
    {
      "channel": 0,
      "note": 80,
      "start": 35.2576,
      "duration": 1.0674,
      "velocity": 93,
      "chip": "ym2612"
    },
    {
      "channel": 1,
      "note": 64,
      "start": 35.2584,
      "duration": 0.2659,
      "velocity": 97,
      "chip": "ym2612"
    },
    {
      "channel": 4,
      "note": 83,
      "start": 35.275,
      "duration": 0.1329,
      "velocity": 93,
      "chip": "ym2612"
    },
    {
      "channel": 4,
      "note": 80,
      "start": 35.4085,
      "duration": 1.0674,
      "velocity": 93,
      "chip": "ym2612"
    },
    {
      "channel": 2,
      "note": 76,
      "start": 35.5252,
      "duration": 0.1327,
      "velocity": 87,
      "chip": "ym2612"
    },
    {
      "channel": 3,
      "note": 68,
      "start": 35.526,
      "duration": 0.1323,
      "velocity": 88,
      "chip": "ym2612"
    },
    {
      "channel": 5,
      "note": 76,
      "start": 35.527,
      "duration": 0.2662,
      "velocity": 120,
      "chip": "ym2612"
    },
    {
      "channel": 1,
      "note": 59,
      "start": 35.792,
      "duration": 0.2664,
      "velocity": 97,
      "chip": "ym2612"
    },
    {
      "channel": 5,
      "note": 76,
      "start": 35.7937,
      "duration": 0.267,
      "velocity": 120,
      "chip": "ym2612"
    },
    {
      "channel": 2,
      "note": 76,
      "start": 36.0593,
      "duration": 0.1327,
      "velocity": 87,
      "chip": "ym2612"
    },
    {
      "channel": 3,
      "note": 68,
      "start": 36.0601,
      "duration": 0.1322,
      "velocity": 88,
      "chip": "ym2612"
    },
    {
      "channel": 5,
      "note": 76,
      "start": 36.0612,
      "duration": 0.2663,
      "velocity": 120,
      "chip": "ym2612"
    },
    {
      "channel": 0,
      "note": 81,
      "start": 36.3256,
      "duration": 0.8004,
      "velocity": 93,
      "chip": "ym2612"
    },
    {
      "channel": 1,
      "note": 66,
      "start": 36.3264,
      "duration": 0.2659,
      "velocity": 97,
      "chip": "ym2612"
    },
    {
      "channel": 4,
      "note": 81,
      "start": 36.4766,
      "duration": 0.8001,
      "velocity": 93,
      "chip": "ym2612"
    },
    {
      "channel": 2,
      "note": 76,
      "start": 36.5932,
      "duration": 0.1327,
      "velocity": 87,
      "chip": "ym2612"
    },
    {
      "channel": 3,
      "note": 69,
      "start": 36.594,
      "duration": 0.1322,
      "velocity": 88,
      "chip": "ym2612"
    },
    {
      "channel": 5,
      "note": 76,
      "start": 36.595,
      "duration": 0.2671,
      "velocity": 120,
      "chip": "ym2612"
    },
    {
      "channel": 1,
      "note": 59,
      "start": 36.86,
      "duration": 0.2668,
      "velocity": 97,
      "chip": "ym2612"
    },
    {
      "channel": 2,
      "note": 75,
      "start": 36.8608,
      "duration": 0.1324,
      "velocity": 87,
      "chip": "ym2612"
    },
    {
      "channel": 3,
      "note": 69,
      "start": 36.8616,
      "duration": 0.132,
      "velocity": 88,
      "chip": "ym2612"
    },
    {
      "channel": 0,
      "note": 80,
      "start": 37.1267,
      "duration": 0.1329,
      "velocity": 93,
      "chip": "ym2612"
    },
    {
      "channel": 5,
      "note": 76,
      "start": 37.1282,
      "duration": 0.2677,
      "velocity": 120,
      "chip": "ym2612"
    },
    {
      "channel": 0,
      "note": 79,
      "start": 37.2602,
      "duration": 0.1329,
      "velocity": 93,
      "chip": "ym2612"
    },
    {
      "channel": 4,
      "note": 80,
      "start": 37.2774,
      "duration": 0.1331,
      "velocity": 93,
      "chip": "ym2612"
    },
    {
      "channel": 0,
      "note": 80,
      "start": 37.3937,
      "duration": 1.0678,
      "velocity": 93,
      "chip": "ym2612"
    },
    {
      "channel": 1,
      "note": 64,
      "start": 37.3944,
      "duration": 0.2659,
      "velocity": 97,
      "chip": "ym2612"
    },
    {
      "channel": 4,
      "note": 79,
      "start": 37.4111,
      "duration": 0.1329,
      "velocity": 93,
      "chip": "ym2612"
    },
    {
      "channel": 4,
      "note": 80,
      "start": 37.5446,
      "duration": 1.0678,
      "velocity": 93,
      "chip": "ym2612"
    },
    {
      "channel": 2,
      "note": 76,
      "start": 37.6613,
      "duration": 0.1327,
      "velocity": 87,
      "chip": "ym2612"
    },
    {
      "channel": 3,
      "note": 68,
      "start": 37.6621,
      "duration": 0.1323,
      "velocity": 88,
      "chip": "ym2612"
    },
    {
      "channel": 5,
      "note": 76,
      "start": 37.6631,
      "duration": 0.1318,
      "velocity": 120,
      "chip": "ym2612"
    },
    {
      "channel": 5,
      "note": 76,
      "start": 37.7955,
      "duration": 0.1342,
      "velocity": 120,
      "chip": "ym2612"
    },
    {
      "channel": 1,
      "note": 59,
      "start": 37.9281,
      "duration": 0.2664,
      "velocity": 97,
      "chip": "ym2612"
    },
    {
      "channel": 5,
      "note": 76,
      "start": 37.9302,
      "duration": 0.2665,
      "velocity": 120,
      "chip": "ym2612"
    },
    {
      "channel": 2,
      "note": 76,
      "start": 38.1954,
      "duration": 0.1327,
      "velocity": 87,
      "chip": "ym2612"
    },
    {
      "channel": 3,
      "note": 56,
      "start": 38.1962,
      "duration": 0.1322,
      "velocity": 88,
      "chip": "ym2612"
    },
    {
      "channel": 5,
      "note": 76,
      "start": 38.1973,
      "duration": 0.2667,
      "velocity": 120,
      "chip": "ym2612"
    },
    {
      "channel": 0,
      "note": 78,
      "start": 38.4621,
      "duration": 0.8,
      "velocity": 93,
      "chip": "ym2612"
    },
    {
      "channel": 1,
      "note": 60,
      "start": 38.4629,
      "duration": 0.2656,
      "velocity": 97,
      "chip": "ym2612"
    },
    {
      "channel": 4,
      "note": 78,
      "start": 38.6131,
      "duration": 0.7998,
      "velocity": 93,
      "chip": "ym2612"
    },
    {
      "channel": 2,
      "note": 72,
      "start": 38.7293,
      "duration": 0.1328,
      "velocity": 87,
      "chip": "ym2612"
    },
    {
      "channel": 3,
      "note": 57,
      "start": 38.7301,
      "duration": 0.1323,
      "velocity": 88,
      "chip": "ym2612"
    },
    {
      "channel": 5,
      "note": 76,
      "start": 38.7311,
      "duration": 0.2671,
      "velocity": 120,
      "chip": "ym2612"
    },
    {
      "channel": 1,
      "note": 56,
      "start": 38.9961,
      "duration": 0.2668,
      "velocity": 97,
      "chip": "ym2612"
    },
    {
      "channel": 2,
      "note": 72,
      "start": 38.9969,
      "duration": 0.1324,
      "velocity": 87,
      "chip": "ym2612"
    },
    {
      "channel": 3,
      "note": 57,
      "start": 38.9976,
      "duration": 0.132,
      "velocity": 88,
      "chip": "ym2612"
    },
    {
      "channel": 0,
      "note": 81,
      "start": 39.2628,
      "duration": 0.1329,
      "velocity": 93,
      "chip": "ym2612"
    },
    {
      "channel": 5,
      "note": 76,
      "start": 39.2643,
      "duration": 0.2681,
      "velocity": 120,
      "chip": "ym2612"
    },
    {
      "channel": 0,
      "note": 80,
      "start": 39.3963,
      "duration": 0.1333,
      "velocity": 93,
      "chip": "ym2612"
    },
    {
      "channel": 4,
      "note": 81,
      "start": 39.4135,
      "duration": 0.1331,
      "velocity": 93,
      "chip": "ym2612"
    },
    {
      "channel": 0,
      "note": 76,
      "start": 39.5302,
      "duration": 1.067,
      "velocity": 93,
      "chip": "ym2612"
    },
    {
      "channel": 1,
      "note": 61,
      "start": 39.5309,
      "duration": 0.2656,
      "velocity": 97,
      "chip": "ym2612"
    },
    {
      "channel": 4,
      "note": 80,
      "start": 39.5472,
      "duration": 0.1333,
      "velocity": 93,
      "chip": "ym2612"
    },
    {
      "channel": 4,
      "note": 76,
      "start": 39.6811,
      "duration": 1.067,
      "velocity": 93,
      "chip": "ym2612"
    },
    {
      "channel": 2,
      "note": 73,
      "start": 39.7974,
      "duration": 0.1327,
      "velocity": 87,
      "chip": "ym2612"
    },
    {
      "channel": 3,
      "note": 56,
      "start": 39.7981,
      "duration": 0.1323,
      "velocity": 88,
      "chip": "ym2612"
    },
    {
      "channel": 5,
      "note": 76,
      "start": 39.7991,
      "duration": 0.1319,
      "velocity": 120,
      "chip": "ym2612"
    },
    {
      "channel": 5,
      "note": 76,
      "start": 39.9316,
      "duration": 0.1341,
      "velocity": 120,
      "chip": "ym2612"
    },
    {
      "channel": 1,
      "note": 56,
      "start": 40.0642,
      "duration": 0.2664,
      "velocity": 97,
      "chip": "ym2612"
    },
    {
      "channel": 5,
      "note": 76,
      "start": 40.0663,
      "duration": 0.082,
      "velocity": 120,
      "chip": "ym2612"
    },
    {
      "channel": 5,
      "note": 76,
      "start": 40.1488,
      "duration": 0.0825,
      "velocity": 120,
      "chip": "ym2612"
    },
    {
      "channel": 5,
      "note": 76,
      "start": 40.2319,
      "duration": 0.101,
      "velocity": 120,
      "chip": "ym2612"
    },
    {
      "channel": 2,
      "note": 73,
      "start": 40.3315,
      "duration": 0.1327,
      "velocity": 87,
      "chip": "ym2612"
    },
    {
      "channel": 3,
      "note": 56,
      "start": 40.3322,
      "duration": 0.1322,
      "velocity": 88,
      "chip": "ym2612"
    },
    {
      "channel": 5,
      "note": 76,
      "start": 40.3334,
      "duration": 0.0817,
      "velocity": 120,
      "chip": "ym2612"
    },
    {
      "channel": 5,
      "note": 76,
      "start": 40.4156,
      "duration": 0.0824,
      "velocity": 120,
      "chip": "ym2612"
    },
    {
      "channel": 5,
      "note": 76,
      "start": 40.4986,
      "duration": 0.1013,
      "velocity": 120,
      "chip": "ym2612"
    },
    {
      "channel": 0,
      "note": 76,
      "start": 40.5976,
      "duration": 0.801,
      "velocity": 93,
      "chip": "ym2612"
    },
    {
      "channel": 1,
      "note": 58,
      "start": 40.5984,
      "duration": 0.2661,
      "velocity": 97,
      "chip": "ym2612"
    },
    {
      "channel": 4,
      "note": 76,
      "start": 40.7486,
      "duration": 0.8007,
      "velocity": 93,
      "chip": "ym2612"
    },
    {
      "channel": 2,
      "note": 70,
      "start": 40.8654,
      "duration": 0.1327,
      "velocity": 87,
      "chip": "ym2612"
    },
    {
      "channel": 3,
      "note": 54,
      "start": 40.8662,
      "duration": 0.1323,
      "velocity": 88,
      "chip": "ym2612"
    },
    {
      "channel": 5,
      "note": 76,
      "start": 40.8672,
      "duration": 0.1319,
      "velocity": 120,
      "chip": "ym2612"
    },
    {
      "channel": 5,
      "note": 76,
      "start": 40.9996,
      "duration": 0.1347,
      "velocity": 120,
      "chip": "ym2612"
    },
    {
      "channel": 1,
      "note": 54,
      "start": 41.1322,
      "duration": 0.2672,
      "velocity": 97,
      "chip": "ym2612"
    },
    {
      "channel": 2,
      "note": 70,
      "start": 41.133,
      "duration": 0.1324,
      "velocity": 87,
      "chip": "ym2612"
    },
    {
      "channel": 3,
      "note": 54,
      "start": 41.1337,
      "duration": 0.132,
      "velocity": 88,
      "chip": "ym2612"
    },
    {
      "channel": 5,
      "note": 76,
      "start": 41.1348,
      "duration": 0.2654,
      "velocity": 120,
      "chip": "ym2612"
    },
    {
      "channel": 0,
      "note": 75,
      "start": 41.3992,
      "duration": 0.1325,
      "velocity": 93,
      "chip": "ym2612"
    },
    {
      "channel": 5,
      "note": 76,
      "start": 41.4008,
      "duration": 0.2678,
      "velocity": 120,
      "chip": "ym2612"
    },
    {
      "channel": 0,
      "note": 76,
      "start": 41.5323,
      "duration": 0.1329,
      "velocity": 93,
      "chip": "ym2612"
    },
    {
      "channel": 4,
      "note": 75,
      "start": 41.55,
      "duration": 0.1332,
      "velocity": 93,
      "chip": "ym2612"
    },
    {
      "channel": 0,
      "note": 78,
      "start": 41.6659,
      "duration": 1.07,
      "velocity": 93,
      "chip": "ym2612"
    },
    {
      "channel": 1,
      "note": 59,
      "start": 41.6666,
      "duration": 0.533,
      "velocity": 97,
      "chip": "ym2612"
    },
    {
      "channel": 2,
      "note": 71,
      "start": 41.6674,
      "duration": 1.0725,
      "velocity": 87,
      "chip": "ym2612"
    },
    {
      "channel": 3,
      "note": 63,
      "start": 41.6681,
      "duration": 1.0744,
      "velocity": 88,
      "chip": "ym2612"
    },
    {
      "channel": 4,
      "note": 76,
      "start": 41.6838,
      "duration": 0.1329,
      "velocity": 93,
      "chip": "ym2612"
    },
    {
      "channel": 5,
      "note": 76,
      "start": 41.8008,
      "duration": 0.133,
      "velocity": 120,
      "chip": "ym2612"
    },
    {
      "channel": 4,
      "note": 78,
      "start": 41.8173,
      "duration": 1.0701,
      "velocity": 93,
      "chip": "ym2612"
    },
    {
      "channel": 5,
      "note": 76,
      "start": 41.9343,
      "duration": 0.133,
      "velocity": 120,
      "chip": "ym2612"
    },
    {
      "channel": 5,
      "note": 76,
      "start": 42.0679,
      "duration": 0.1331,
      "velocity": 120,
      "chip": "ym2612"
    },
    {
      "channel": 5,
      "note": 76,
      "start": 42.2015,
      "duration": 0.0831,
      "velocity": 120,
      "chip": "ym2612"
    },
    {
      "channel": 5,
      "note": 76,
      "start": 42.2851,
      "duration": 0.0825,
      "velocity": 120,
      "chip": "ym2612"
    },
    {
      "channel": 5,
      "note": 76,
      "start": 42.3682,
      "duration": 0.0996,
      "velocity": 120,
      "chip": "ym2612"
    },
    {
      "channel": 5,
      "note": 76,
      "start": 42.4683,
      "duration": 0.0829,
      "velocity": 120,
      "chip": "ym2612"
    },
    {
      "channel": 5,
      "note": 76,
      "start": 42.5517,
      "duration": 0.0829,
      "velocity": 120,
      "chip": "ym2612"
    },
    {
      "channel": 5,
      "note": 76,
      "start": 42.6352,
      "duration": 0.1085,
      "velocity": 120,
      "chip": "ym2612"
    },
    {
      "channel": 0,
      "note": 85,
      "start": 42.7364,
      "duration": 0.7983,
      "velocity": 93,
      "chip": "ym2612"
    },
    {
      "channel": 1,
      "note": 66,
      "start": 42.7376,
      "duration": 0.263,
      "velocity": 97,
      "chip": "ym2612"
    },
    {
      "channel": 2,
      "note": 81,
      "start": 42.868,
      "duration": 0.1329,
      "velocity": 87,
      "chip": "ym2612"
    },
    {
      "channel": 3,
      "note": 64,
      "start": 42.8688,
      "duration": 0.1324,
      "velocity": 88,
      "chip": "ym2612"
    },
    {
      "channel": 4,
      "note": 85,
      "start": 42.888,
      "duration": 0.7974,
      "velocity": 93,
      "chip": "ym2612"
    },
    {
      "channel": 3,
      "note": 63,
      "start": 43.0018,
      "duration": 0.1333,
      "velocity": 88,
      "chip": "ym2612"
    },
    {
      "channel": 5,
      "note": 76,
      "start": 43.0028,
      "duration": 0.1333,
      "velocity": 120,
      "chip": "ym2612"
    },
    {
      "channel": 2,
      "note": 81,
      "start": 43.1349,
      "duration": 0.1336,
      "velocity": 87,
      "chip": "ym2612"
    },
    {
      "channel": 3,
      "note": 61,
      "start": 43.1356,
      "duration": 0.1336,
      "velocity": 88,
      "chip": "ym2612"
    },
    {
      "channel": 5,
      "note": 76,
      "start": 43.1366,
      "duration": 0.1337,
      "velocity": 120,
      "chip": "ym2612"
    },
    {
      "channel": 1,
      "note": 59,
      "start": 43.2683,
      "duration": 0.2672,
      "velocity": 97,
      "chip": "ym2612"
    },
    {
      "channel": 2,
      "note": 81,
      "start": 43.2691,
      "duration": 0.1324,
      "velocity": 87,
      "chip": "ym2612"
    },
    {
      "channel": 3,
      "note": 63,
      "start": 43.2698,
      "duration": 0.132,
      "velocity": 88,
      "chip": "ym2612"
    },
    {
      "channel": 0,
      "note": 88,
      "start": 43.5353,
      "duration": 0.1325,
      "velocity": 93,
      "chip": "ym2612"
    },
    {
      "channel": 5,
      "note": 76,
      "start": 43.5369,
      "duration": 0.267,
      "velocity": 120,
      "chip": "ym2612"
    },
    {
      "channel": 0,
      "note": 87,
      "start": 43.6684,
      "duration": 0.1329,
      "velocity": 93,
      "chip": "ym2612"
    },
    {
      "channel": 4,
      "note": 88,
      "start": 43.686,
      "duration": 0.1327,
      "velocity": 93,
      "chip": "ym2612"
    },
    {
      "channel": 0,
      "note": 83,
      "start": 43.802,
      "duration": 1.0674,
      "velocity": 93,
      "chip": "ym2612"
    },
    {
      "channel": 1,
      "note": 64,
      "start": 43.8027,
      "duration": 0.2659,
      "velocity": 97,
      "chip": "ym2612"
    },
    {
      "channel": 4,
      "note": 87,
      "start": 43.8194,
      "duration": 0.1334,
      "velocity": 93,
      "chip": "ym2612"
    },
    {
      "channel": 2,
      "note": 80,
      "start": 43.9361,
      "duration": 0.1329,
      "velocity": 87,
      "chip": "ym2612"
    },
    {
      "channel": 3,
      "note": 63,
      "start": 43.9368,
      "duration": 0.1324,
      "velocity": 88,
      "chip": "ym2612"
    },
    {
      "channel": 4,
      "note": 83,
      "start": 43.9534,
      "duration": 1.0674,
      "velocity": 93,
      "chip": "ym2612"
    },
    {
      "channel": 3,
      "note": 61,
      "start": 44.0698,
      "duration": 0.1332,
      "velocity": 88,
      "chip": "ym2612"
    },
    {
      "channel": 5,
      "note": 76,
      "start": 44.0708,
      "duration": 0.1333,
      "velocity": 120,
      "chip": "ym2612"
    },
    {
      "channel": 2,
      "note": 80,
      "start": 44.2029,
      "duration": 0.1336,
      "velocity": 87,
      "chip": "ym2612"
    },
    {
      "channel": 3,
      "note": 59,
      "start": 44.2037,
      "duration": 0.1336,
      "velocity": 88,
      "chip": "ym2612"
    },
    {
      "channel": 5,
      "note": 76,
      "start": 44.2047,
      "duration": 0.1338,
      "velocity": 120,
      "chip": "ym2612"
    },
    {
      "channel": 1,
      "note": 59,
      "start": 44.3363,
      "duration": 0.2664,
      "velocity": 97,
      "chip": "ym2612"
    },
    {
      "channel": 2,
      "note": 80,
      "start": 44.3371,
      "duration": 0.1324,
      "velocity": 87,
      "chip": "ym2612"
    },
    {
      "channel": 3,
      "note": 61,
      "start": 44.3379,
      "duration": 0.132,
      "velocity": 88,
      "chip": "ym2612"
    },
    {
      "channel": 5,
      "note": 76,
      "start": 44.6041,
      "duration": 0.2678,
      "velocity": 120,
      "chip": "ym2612"
    },
    {
      "channel": 0,
      "note": 85,
      "start": 44.87,
      "duration": 0.8004,
      "velocity": 93,
      "chip": "ym2612"
    },
    {
      "channel": 1,
      "note": 66,
      "start": 44.8707,
      "duration": 0.2659,
      "velocity": 97,
      "chip": "ym2612"
    },
    {
      "channel": 2,
      "note": 81,
      "start": 45.0041,
      "duration": 0.1329,
      "velocity": 87,
      "chip": "ym2612"
    },
    {
      "channel": 3,
      "note": 64,
      "start": 45.0049,
      "duration": 0.1324,
      "velocity": 88,
      "chip": "ym2612"
    },
    {
      "channel": 4,
      "note": 85,
      "start": 45.0214,
      "duration": 0.7997,
      "velocity": 93,
      "chip": "ym2612"
    },
    {
      "channel": 3,
      "note": 63,
      "start": 45.1379,
      "duration": 0.1337,
      "velocity": 88,
      "chip": "ym2612"
    },
    {
      "channel": 5,
      "note": 76,
      "start": 45.1389,
      "duration": 0.1337,
      "velocity": 120,
      "chip": "ym2612"
    },
    {
      "channel": 2,
      "note": 81,
      "start": 45.271,
      "duration": 0.1336,
      "velocity": 87,
      "chip": "ym2612"
    },
    {
      "channel": 3,
      "note": 61,
      "start": 45.2721,
      "duration": 0.1332,
      "velocity": 88,
      "chip": "ym2612"
    },
    {
      "channel": 5,
      "note": 76,
      "start": 45.2731,
      "duration": 0.1333,
      "velocity": 120,
      "chip": "ym2612"
    },
    {
      "channel": 1,
      "note": 59,
      "start": 45.4044,
      "duration": 0.2668,
      "velocity": 97,
      "chip": "ym2612"
    },
    {
      "channel": 2,
      "note": 81,
      "start": 45.4051,
      "duration": 0.1324,
      "velocity": 87,
      "chip": "ym2612"
    },
    {
      "channel": 3,
      "note": 63,
      "start": 45.4059,
      "duration": 0.132,
      "velocity": 88,
      "chip": "ym2612"
    },
    {
      "channel": 0,
      "note": 83,
      "start": 45.671,
      "duration": 0.1329,
      "velocity": 93,
      "chip": "ym2612"
    },
    {
      "channel": 5,
      "note": 76,
      "start": 45.6726,
      "duration": 0.2674,
      "velocity": 120,
      "chip": "ym2612"
    },
    {
      "channel": 0,
      "note": 81,
      "start": 45.8045,
      "duration": 0.1329,
      "velocity": 93,
      "chip": "ym2612"
    },
    {
      "channel": 4,
      "note": 83,
      "start": 45.8217,
      "duration": 0.1331,
      "velocity": 93,
      "chip": "ym2612"
    },
    {
      "channel": 0,
      "note": 83,
      "start": 45.938,
      "duration": 1.0678,
      "velocity": 93,
      "chip": "ym2612"
    },
    {
      "channel": 1,
      "note": 64,
      "start": 45.9388,
      "duration": 0.2659,
      "velocity": 97,
      "chip": "ym2612"
    },
    {
      "channel": 4,
      "note": 81,
      "start": 45.9555,
      "duration": 0.1334,
      "velocity": 93,
      "chip": "ym2612"
    },
    {
      "channel": 2,
      "note": 80,
      "start": 46.0721,
      "duration": 0.1329,
      "velocity": 87,
      "chip": "ym2612"
    },
    {
      "channel": 3,
      "note": 63,
      "start": 46.0729,
      "duration": 0.1324,
      "velocity": 88,
      "chip": "ym2612"
    },
    {
      "channel": 5,
      "note": 76,
      "start": 46.0739,
      "duration": 0.1325,
      "velocity": 120,
      "chip": "ym2612"
    },
    {
      "channel": 4,
      "note": 83,
      "start": 46.0895,
      "duration": 1.0678,
      "velocity": 93,
      "chip": "ym2612"
    },
    {
      "channel": 3,
      "note": 61,
      "start": 46.2059,
      "duration": 0.1332,
      "velocity": 88,
      "chip": "ym2612"
    },
    {
      "channel": 5,
      "note": 76,
      "start": 46.2069,
      "duration": 0.1333,
      "velocity": 120,
      "chip": "ym2612"
    },
    {
      "channel": 2,
      "note": 80,
      "start": 46.339,
      "duration": 0.1336,
      "velocity": 87,
      "chip": "ym2612"
    },
    {
      "channel": 3,
      "note": 59,
      "start": 46.3398,
      "duration": 0.1336,
      "velocity": 88,
      "chip": "ym2612"
    },
    {
      "channel": 5,
      "note": 76,
      "start": 46.3408,
      "duration": 0.1337,
      "velocity": 120,
      "chip": "ym2612"
    },
    {
      "channel": 1,
      "note": 59,
      "start": 46.4724,
      "duration": 0.2664,
      "velocity": 97,
      "chip": "ym2612"
    },
    {
      "channel": 2,
      "note": 80,
      "start": 46.4732,
      "duration": 0.1324,
      "velocity": 87,
      "chip": "ym2612"
    },
    {
      "channel": 3,
      "note": 61,
      "start": 46.4739,
      "duration": 0.132,
      "velocity": 88,
      "chip": "ym2612"
    },
    {
      "channel": 5,
      "note": 76,
      "start": 46.7402,
      "duration": 0.2685,
      "velocity": 120,
      "chip": "ym2612"
    },
    {
      "channel": 0,
      "note": 81,
      "start": 47.0065,
      "duration": 0.8004,
      "velocity": 93,
      "chip": "ym2612"
    },
    {
      "channel": 1,
      "note": 66,
      "start": 47.0072,
      "duration": 0.2655,
      "velocity": 97,
      "chip": "ym2612"
    },
    {
      "channel": 2,
      "note": 73,
      "start": 47.1402,
      "duration": 0.1333,
      "velocity": 87,
      "chip": "ym2612"
    },
    {
      "channel": 3,
      "note": 64,
      "start": 47.1409,
      "duration": 0.1333,
      "velocity": 88,
      "chip": "ym2612"
    },
    {
      "channel": 4,
      "note": 81,
      "start": 47.1579,
      "duration": 0.7997,
      "velocity": 93,
      "chip": "ym2612"
    },
    {
      "channel": 2,
      "note": 71,
      "start": 47.2741,
      "duration": 0.1324,
      "velocity": 87,
      "chip": "ym2612"
    },
    {
      "channel": 3,
      "note": 63,
      "start": 47.2748,
      "duration": 0.1324,
      "velocity": 88,
      "chip": "ym2612"
    },
    {
      "channel": 5,
      "note": 76,
      "start": 47.2758,
      "duration": 0.1324,
      "velocity": 120,
      "chip": "ym2612"
    },
    {
      "channel": 2,
      "note": 69,
      "start": 47.407,
      "duration": 0.1336,
      "velocity": 87,
      "chip": "ym2612"
    },
    {
      "channel": 3,
      "note": 61,
      "start": 47.4078,
      "duration": 0.1336,
      "velocity": 88,
      "chip": "ym2612"
    },
    {
      "channel": 5,
      "note": 76,
      "start": 47.4088,
      "duration": 0.1337,
      "velocity": 120,
      "chip": "ym2612"
    },
    {
      "channel": 1,
      "note": 59,
      "start": 47.5405,
      "duration": 0.2672,
      "velocity": 97,
      "chip": "ym2612"
    },
    {
      "channel": 2,
      "note": 71,
      "start": 47.5412,
      "duration": 0.1324,
      "velocity": 87,
      "chip": "ym2612"
    },
    {
      "channel": 3,
      "note": 63,
      "start": 47.542,
      "duration": 0.132,
      "velocity": 88,
      "chip": "ym2612"
    },
    {
      "channel": 0,
      "note": 85,
      "start": 47.8075,
      "duration": 0.1325,
      "velocity": 93,
      "chip": "ym2612"
    },
    {
      "channel": 5,
      "note": 76,
      "start": 47.809,
      "duration": 0.2673,
      "velocity": 120,
      "chip": "ym2612"
    },
    {
      "channel": 0,
      "note": 83,
      "start": 47.9406,
      "duration": 0.1333,
      "velocity": 93,
      "chip": "ym2612"
    },
    {
      "channel": 4,
      "note": 85,
      "start": 47.9582,
      "duration": 0.1327,
      "velocity": 93,
      "chip": "ym2612"
    },
    {
      "channel": 0,
      "note": 80,
      "start": 48.0745,
      "duration": 1.067,
      "velocity": 93,
      "chip": "ym2612"
    },
    {
      "channel": 1,
      "note": 64,
      "start": 48.0753,
      "duration": 0.2655,
      "velocity": 97,
      "chip": "ym2612"
    },
    {
      "channel": 5,
      "note": 76,
      "start": 48.0768,
      "duration": 0.133,
      "velocity": 120,
      "chip": "ym2612"
    },
    {
      "channel": 4,
      "note": 83,
      "start": 48.0915,
      "duration": 0.1338,
      "velocity": 93,
      "chip": "ym2612"
    },
    {
      "channel": 2,
      "note": 71,
      "start": 48.2086,
      "duration": 0.1325,
      "velocity": 87,
      "chip": "ym2612"
    },
    {
      "channel": 3,
      "note": 63,
      "start": 48.2094,
      "duration": 0.1325,
      "velocity": 88,
      "chip": "ym2612"
    },
    {
      "channel": 5,
      "note": 76,
      "start": 48.2104,
      "duration": 0.1326,
      "velocity": 120,
      "chip": "ym2612"
    },
    {
      "channel": 4,
      "note": 80,
      "start": 48.2259,
      "duration": 1.0665,
      "velocity": 93,
      "chip": "ym2612"
    },
    {
      "channel": 2,
      "note": 69,
      "start": 48.3417,
      "duration": 0.1327,
      "velocity": 87,
      "chip": "ym2612"
    },
    {
      "channel": 3,
      "note": 61,
      "start": 48.3424,
      "duration": 0.1328,
      "velocity": 88,
      "chip": "ym2612"
    },
    {
      "channel": 5,
      "note": 76,
      "start": 48.3435,
      "duration": 0.1328,
      "velocity": 120,
      "chip": "ym2612"
    },
    {
      "channel": 2,
      "note": 68,
      "start": 48.4751,
      "duration": 0.2666,
      "velocity": 87,
      "chip": "ym2612"
    },
    {
      "channel": 3,
      "note": 59,
      "start": 48.4758,
      "duration": 0.1343,
      "velocity": 88,
      "chip": "ym2612"
    },
    {
      "channel": 5,
      "note": 76,
      "start": 48.4768,
      "duration": 0.1345,
      "velocity": 120,
      "chip": "ym2612"
    },
    {
      "channel": 1,
      "note": 59,
      "start": 48.6085,
      "duration": 0.2664,
      "velocity": 97,
      "chip": "ym2612"
    },
    {
      "channel": 3,
      "note": 61,
      "start": 48.6107,
      "duration": 0.1313,
      "velocity": 88,
      "chip": "ym2612"
    },
    {
      "channel": 5,
      "note": 76,
      "start": 48.7433,
      "duration": 0.1325,
      "velocity": 120,
      "chip": "ym2612"
    },
    {
      "channel": 5,
      "note": 76,
      "start": 48.8763,
      "duration": 0.1327,
      "velocity": 120,
      "chip": "ym2612"
    },
    {
      "channel": 5,
      "note": 76,
      "start": 49.0096,
      "duration": 0.1358,
      "velocity": 120,
      "chip": "ym2612"
    },
    {
      "channel": 0,
      "note": 73,
      "start": 49.1421,
      "duration": 0.3999,
      "velocity": 93,
      "chip": "ym2612"
    },
    {
      "channel": 1,
      "note": 66,
      "start": 49.1429,
      "duration": 0.2659,
      "velocity": 97,
      "chip": "ym2612"
    },
    {
      "channel": 2,
      "note": 78,
      "start": 49.1441,
      "duration": 0.1316,
      "velocity": 87,
      "chip": "ym2612"
    },
    {
      "channel": 3,
      "note": 57,
      "start": 49.1448,
      "duration": 0.1311,
      "velocity": 88,
      "chip": "ym2612"
    },
    {
      "channel": 4,
      "note": 73,
      "start": 49.2931,
      "duration": 0.4004,
      "velocity": 93,
      "chip": "ym2612"
    },
    {
      "channel": 5,
      "note": 76,
      "start": 49.4101,
      "duration": 0.1332,
      "velocity": 120,
      "chip": "ym2612"
    },
    {
      "channel": 0,
      "note": 76,
      "start": 49.5427,
      "duration": 0.1329,
      "velocity": 93,
      "chip": "ym2612"
    },
    {
      "channel": 5,
      "note": 76,
      "start": 49.5439,
      "duration": 0.135,
      "velocity": 120,
      "chip": "ym2612"
    },
    {
      "channel": 0,
      "note": 75,
      "start": 49.6762,
      "duration": 0.4003,
      "velocity": 93,
      "chip": "ym2612"
    },
    {
      "channel": 1,
      "note": 59,
      "start": 49.6769,
      "duration": 0.2659,
      "velocity": 97,
      "chip": "ym2612"
    },
    {
      "channel": 2,
      "note": 78,
      "start": 49.6775,
      "duration": 0.1321,
      "velocity": 87,
      "chip": "ym2612"
    },
    {
      "channel": 3,
      "note": 66,
      "start": 49.6783,
      "duration": 0.1317,
      "velocity": 88,
      "chip": "ym2612"
    },
    {
      "channel": 4,
      "note": 76,
      "start": 49.6941,
      "duration": 0.1324,
      "velocity": 93,
      "chip": "ym2612"
    },
    {
      "channel": 4,
      "note": 75,
      "start": 49.8271,
      "duration": 0.4012,
      "velocity": 93,
      "chip": "ym2612"
    },
    {
      "channel": 5,
      "note": 76,
      "start": 49.9441,
      "duration": 0.2697,
      "velocity": 120,
      "chip": "ym2612"
    },
    {
      "channel": 0,
      "note": 78,
      "start": 50.0771,
      "duration": 0.1329,
      "velocity": 93,
      "chip": "ym2612"
    },
    {
      "channel": 0,
      "note": 75,
      "start": 50.2106,
      "duration": 0.0157,
      "velocity": 93,
      "chip": "ym2612"
    },
    {
      "channel": 1,
      "note": 64,
      "start": 50.2113,
      "duration": 0.2664,
      "velocity": 97,
      "chip": "ym2612"
    },
    {
      "channel": 2,
      "note": 80,
      "start": 50.2125,
      "duration": 1.0754,
      "velocity": 97,
      "chip": "ym2612"
    },
    {
      "channel": 3,
      "note": 64,
      "start": 50.2133,
      "duration": 1.0756,
      "velocity": 88,
      "chip": "ym2612"
    },
    {
      "channel": 5,
      "note": 76,
      "start": 50.2144,
      "duration": 0.2651,
      "velocity": 120,
      "chip": "ym2612"
    },
    {
      "channel": 0,
      "note": 76,
      "start": 50.2269,
      "duration": 0.2501,
      "velocity": 93,
      "chip": "ym2612"
    },
    {
      "channel": 4,
      "note": 78,
      "start": 50.229,
      "duration": 0.1324,
      "velocity": 93,
      "chip": "ym2612"
    },
    {
      "channel": 4,
      "note": 75,
      "start": 50.362,
      "duration": 0.0156,
      "velocity": 93,
      "chip": "ym2612"
    },
    {
      "channel": 4,
      "note": 76,
      "start": 50.3783,
      "duration": 0.2501,
      "velocity": 93,
      "chip": "ym2612"
    },
    {
      "channel": 0,
      "note": 87,
      "start": 50.4776,
      "duration": 0.0161,
      "velocity": 93,
      "chip": "ym2612"
    },
    {
      "channel": 1,
      "note": 59,
      "start": 50.4783,
      "duration": 0.266,
      "velocity": 97,
      "chip": "ym2612"
    },
    {
      "channel": 5,
      "note": 76,
      "start": 50.48,
      "duration": 0.2661,
      "velocity": 120,
      "chip": "ym2612"
    },
    {
      "channel": 0,
      "note": 88,
      "start": 50.4944,
      "duration": 0.0823,
      "velocity": 93,
      "chip": "ym2612"
    },
    {
      "channel": 4,
      "note": 87,
      "start": 50.629,
      "duration": 0.0161,
      "velocity": 93,
      "chip": "ym2612"
    },
    {
      "channel": 4,
      "note": 88,
      "start": 50.6458,
      "duration": 0.0824,
      "velocity": 93,
      "chip": "ym2612"
    },
    {
      "channel": 0,
      "note": 76,
      "start": 50.7442,
      "duration": 0.0828,
      "velocity": 93,
      "chip": "ym2612"
    },
    {
      "channel": 1,
      "note": 52,
      "start": 50.7449,
      "duration": 0.2657,
      "velocity": 97,
      "chip": "ym2612"
    },
    {
      "channel": 5,
      "note": 76,
      "start": 50.7466,
      "duration": 0.5451,
      "velocity": 120,
      "chip": "ym2612"
    },
    {
      "channel": 4,
      "note": 76,
      "start": 50.8954,
      "duration": 0.0828,
      "velocity": 93,
      "chip": "ym2612"
    },
    {
      "channel": 0,
      "note": 68,
      "start": 51.2812,
      "duration": 0.1466,
      "velocity": 73,
      "chip": "ym2612"
    },
    {
      "channel": 1,
      "note": 54,
      "start": 51.2849,
      "duration": 1.0786,
      "velocity": 97,
      "chip": "ym2612"
    },
    {
      "channel": 2,
      "note": 54,
      "start": 51.2885,
      "duration": 1.0758,
      "velocity": 97,
      "chip": "ym2612"
    },
    {
      "channel": 4,
      "note": 68,
      "start": 51.4492,
      "duration": 0.13,
      "velocity": 73,
      "chip": "ym2612"
    },
    {
      "channel": 0,
      "note": 67,
      "start": 51.5619,
      "duration": 0.1329,
      "velocity": 73,
      "chip": "ym2612"
    },
    {
      "channel": 0,
      "note": 68,
      "start": 51.6954,
      "duration": 0.1333,
      "velocity": 73,
      "chip": "ym2612"
    },
    {
      "channel": 4,
      "note": 67,
      "start": 51.7133,
      "duration": 0.1329,
      "velocity": 73,
      "chip": "ym2612"
    },
    {
      "channel": 0,
      "note": 75,
      "start": 51.8293,
      "duration": 0.1325,
      "velocity": 73,
      "chip": "ym2612"
    },
    {
      "channel": 4,
      "note": 68,
      "start": 51.8468,
      "duration": 0.133,
      "velocity": 73,
      "chip": "ym2612"
    },
    {
      "channel": 4,
      "note": 75,
      "start": 51.9805,
      "duration": 0.1325,
      "velocity": 73,
      "chip": "ym2612"
    },
    {
      "channel": 0,
      "note": 73,
      "start": 52.3634,
      "duration": 0.1325,
      "velocity": 73,
      "chip": "ym2612"
    },
    {
      "channel": 1,
      "note": 59,
      "start": 52.3641,
      "duration": 1.0678,
      "velocity": 97,
      "chip": "ym2612"
    },
    {
      "channel": 2,
      "note": 59,
      "start": 52.3649,
      "duration": 1.0682,
      "velocity": 97,
      "chip": "ym2612"
    },
    {
      "channel": 4,
      "note": 73,
      "start": 52.5145,
      "duration": 0.1327,
      "velocity": 73,
      "chip": "ym2612"
    },
    {
      "channel": 0,
      "note": 76,
      "start": 52.63,
      "duration": 0.1329,
      "velocity": 73,
      "chip": "ym2612"
    },
    {
      "channel": 4,
      "note": 76,
      "start": 52.7811,
      "duration": 0.1331,
      "velocity": 73,
      "chip": "ym2612"
    },
    {
      "channel": 0,
      "note": 75,
      "start": 52.897,
      "duration": 0.1333,
      "velocity": 73,
      "chip": "ym2612"
    },
    {
      "channel": 0,
      "note": 73,
      "start": 53.0309,
      "duration": 0.1325,
      "velocity": 73,
      "chip": "ym2612"
    },
    {
      "channel": 4,
      "note": 75,
      "start": 53.0483,
      "duration": 0.1333,
      "velocity": 73,
      "chip": "ym2612"
    },
    {
      "channel": 0,
      "note": 71,
      "start": 53.164,
      "duration": 0.1329,
      "velocity": 73,
      "chip": "ym2612"
    },
    {
      "channel": 4,
      "note": 73,
      "start": 53.1823,
      "duration": 0.1322,
      "velocity": 73,
      "chip": "ym2612"
    },
    {
      "channel": 4,
      "note": 71,
      "start": 53.3151,
      "duration": 0.1329,
      "velocity": 73,
      "chip": "ym2612"
    },
    {
      "channel": 0,
      "note": 68,
      "start": 53.4314,
      "duration": 0.1325,
      "velocity": 73,
      "chip": "ym2612"
    },
    {
      "channel": 1,
      "note": 54,
      "start": 53.4325,
      "duration": 1.0675,
      "velocity": 97,
      "chip": "ym2612"
    },
    {
      "channel": 2,
      "note": 54,
      "start": 53.4337,
      "duration": 1.0675,
      "velocity": 97,
      "chip": "ym2612"
    },
    {
      "channel": 4,
      "note": 68,
      "start": 53.5825,
      "duration": 0.1327,
      "velocity": 73,
      "chip": "ym2612"
    },
    {
      "channel": 0,
      "note": 67,
      "start": 53.698,
      "duration": 0.1329,
      "velocity": 73,
      "chip": "ym2612"
    },
    {
      "channel": 0,
      "note": 68,
      "start": 53.8315,
      "duration": 0.1333,
      "velocity": 73,
      "chip": "ym2612"
    },
    {
      "channel": 4,
      "note": 67,
      "start": 53.8494,
      "duration": 0.1329,
      "velocity": 73,
      "chip": "ym2612"
    },
    {
      "channel": 0,
      "note": 75,
      "start": 53.9654,
      "duration": 0.1325,
      "velocity": 73,
      "chip": "ym2612"
    },
    {
      "channel": 4,
      "note": 68,
      "start": 53.9829,
      "duration": 0.1331,
      "velocity": 73,
      "chip": "ym2612"
    },
    {
      "channel": 4,
      "note": 75,
      "start": 54.1166,
      "duration": 0.1325,
      "velocity": 73,
      "chip": "ym2612"
    },
    {
      "channel": 0,
      "note": 73,
      "start": 54.4994,
      "duration": 0.1325,
      "velocity": 73,
      "chip": "ym2612"
    },
    {
      "channel": 1,
      "note": 59,
      "start": 54.5006,
      "duration": 1.067,
      "velocity": 97,
      "chip": "ym2612"
    },
    {
      "channel": 2,
      "note": 59,
      "start": 54.5017,
      "duration": 1.0666,
      "velocity": 97,
      "chip": "ym2612"
    },
    {
      "channel": 4,
      "note": 73,
      "start": 54.6506,
      "duration": 0.1327,
      "velocity": 73,
      "chip": "ym2612"
    },
    {
      "channel": 0,
      "note": 76,
      "start": 54.766,
      "duration": 0.1329,
      "velocity": 73,
      "chip": "ym2612"
    },
    {
      "channel": 4,
      "note": 76,
      "start": 54.9172,
      "duration": 0.1331,
      "velocity": 73,
      "chip": "ym2612"
    },
    {
      "channel": 0,
      "note": 75,
      "start": 55.0331,
      "duration": 0.1333,
      "velocity": 73,
      "chip": "ym2612"
    },
    {
      "channel": 0,
      "note": 73,
      "start": 55.167,
      "duration": 0.1325,
      "velocity": 73,
      "chip": "ym2612"
    },
    {
      "channel": 4,
      "note": 75,
      "start": 55.1844,
      "duration": 0.1333,
      "velocity": 73,
      "chip": "ym2612"
    },
    {
      "channel": 0,
      "note": 71,
      "start": 55.3001,
      "duration": 0.1329,
      "velocity": 73,
      "chip": "ym2612"
    },
    {
      "channel": 4,
      "note": 73,
      "start": 55.3183,
      "duration": 0.1322,
      "velocity": 73,
      "chip": "ym2612"
    },
    {
      "channel": 4,
      "note": 71,
      "start": 55.4512,
      "duration": 0.1329,
      "velocity": 73,
      "chip": "ym2612"
    },
    {
      "channel": 0,
      "note": 71,
      "start": 55.5675,
      "duration": 0.1325,
      "velocity": 73,
      "chip": "ym2612"
    },
    {
      "channel": 1,
      "note": 59,
      "start": 55.5682,
      "duration": 1.067,
      "velocity": 97,
      "chip": "ym2612"
    },
    {
      "channel": 2,
      "note": 59,
      "start": 55.569,
      "duration": 1.067,
      "velocity": 97,
      "chip": "ym2612"
    },
    {
      "channel": 4,
      "note": 71,
      "start": 55.7186,
      "duration": 0.1327,
      "velocity": 73,
      "chip": "ym2612"
    },
    {
      "channel": 0,
      "note": 69,
      "start": 55.8341,
      "duration": 0.1329,
      "velocity": 73,
      "chip": "ym2612"
    },
    {
      "channel": 0,
      "note": 71,
      "start": 55.9676,
      "duration": 0.1333,
      "velocity": 73,
      "chip": "ym2612"
    },
    {
      "channel": 4,
      "note": 69,
      "start": 55.9855,
      "duration": 0.1329,
      "velocity": 73,
      "chip": "ym2612"
    },
    {
      "channel": 0,
      "note": 80,
      "start": 56.1015,
      "duration": 0.1325,
      "velocity": 73,
      "chip": "ym2612"
    },
    {
      "channel": 4,
      "note": 71,
      "start": 56.119,
      "duration": 0.133,
      "velocity": 73,
      "chip": "ym2612"
    },
    {
      "channel": 4,
      "note": 80,
      "start": 56.2527,
      "duration": 0.1327,
      "velocity": 73,
      "chip": "ym2612"
    },
    {
      "channel": 0,
      "note": 78,
      "start": 56.3685,
      "duration": 0.1325,
      "velocity": 73,
      "chip": "ym2612"
    },
    {
      "channel": 4,
      "note": 78,
      "start": 56.5197,
      "duration": 0.1325,
      "velocity": 73,
      "chip": "ym2612"
    },
    {
      "channel": 0,
      "note": 78,
      "start": 56.6351,
      "duration": 0.1329,
      "velocity": 73,
      "chip": "ym2612"
    },
    {
      "channel": 1,
      "note": 52,
      "start": 56.6359,
      "duration": 1.0674,
      "velocity": 97,
      "chip": "ym2612"
    },
    {
      "channel": 2,
      "note": 52,
      "start": 56.6366,
      "duration": 1.0674,
      "velocity": 97,
      "chip": "ym2612"
    },
    {
      "channel": 4,
      "note": 78,
      "start": 56.7863,
      "duration": 0.1331,
      "velocity": 73,
      "chip": "ym2612"
    },
    {
      "channel": 0,
      "note": 76,
      "start": 56.9021,
      "duration": 0.1329,
      "velocity": 73,
      "chip": "ym2612"
    },
    {
      "channel": 4,
      "note": 76,
      "start": 57.0533,
      "duration": 0.1331,
      "velocity": 73,
      "chip": "ym2612"
    },
    {
      "channel": 0,
      "note": 75,
      "start": 57.1691,
      "duration": 0.1329,
      "velocity": 73,
      "chip": "ym2612"
    },
    {
      "channel": 0,
      "note": 73,
      "start": 57.3027,
      "duration": 0.1329,
      "velocity": 73,
      "chip": "ym2612"
    },
    {
      "channel": 4,
      "note": 75,
      "start": 57.3205,
      "duration": 0.1329,
      "velocity": 73,
      "chip": "ym2612"
    },
    {
      "channel": 0,
      "note": 71,
      "start": 57.4361,
      "duration": 0.1329,
      "velocity": 73,
      "chip": "ym2612"
    },
    {
      "channel": 4,
      "note": 73,
      "start": 57.454,
      "duration": 0.1327,
      "velocity": 73,
      "chip": "ym2612"
    },
    {
      "channel": 4,
      "note": 71,
      "start": 57.5873,
      "duration": 0.1329,
      "velocity": 73,
      "chip": "ym2612"
    },
    {
      "channel": 0,
      "note": 68,
      "start": 57.7032,
      "duration": 0.1329,
      "velocity": 73,
      "chip": "ym2612"
    },
    {
      "channel": 1,
      "note": 54,
      "start": 57.7039,
      "duration": 1.0678,
      "velocity": 97,
      "chip": "ym2612"
    },
    {
      "channel": 2,
      "note": 54,
      "start": 57.7046,
      "duration": 1.0678,
      "velocity": 97,
      "chip": "ym2612"
    },
    {
      "channel": 4,
      "note": 68,
      "start": 57.8543,
      "duration": 0.1331,
      "velocity": 73,
      "chip": "ym2612"
    },
    {
      "channel": 0,
      "note": 67,
      "start": 57.9705,
      "duration": 0.1325,
      "velocity": 73,
      "chip": "ym2612"
    },
    {
      "channel": 0,
      "note": 68,
      "start": 58.1037,
      "duration": 0.1333,
      "velocity": 73,
      "chip": "ym2612"
    },
    {
      "channel": 4,
      "note": 67,
      "start": 58.122,
      "duration": 0.1325,
      "velocity": 73,
      "chip": "ym2612"
    },
    {
      "channel": 0,
      "note": 75,
      "start": 58.2376,
      "duration": 0.1325,
      "velocity": 73,
      "chip": "ym2612"
    },
    {
      "channel": 4,
      "note": 68,
      "start": 58.2551,
      "duration": 0.133,
      "velocity": 73,
      "chip": "ym2612"
    },
    {
      "channel": 4,
      "note": 75,
      "start": 58.3887,
      "duration": 0.1327,
      "velocity": 73,
      "chip": "ym2612"
    },
    {
      "channel": 0,
      "note": 66,
      "start": 58.5042,
      "duration": 0.1329,
      "velocity": 73,
      "chip": "ym2612"
    },
    {
      "channel": 4,
      "note": 66,
      "start": 58.6553,
      "duration": 0.1329,
      "velocity": 73,
      "chip": "ym2612"
    },
    {
      "channel": 0,
      "note": 71,
      "start": 58.7716,
      "duration": 1.0696,
      "velocity": 93,
      "chip": "ym2612"
    },
    {
      "channel": 1,
      "note": 59,
      "start": 58.7724,
      "duration": 1.07,
      "velocity": 97,
      "chip": "ym2612"
    },
    {
      "channel": 2,
      "note": 59,
      "start": 58.7731,
      "duration": 1.0729,
      "velocity": 95,
      "chip": "ym2612"
    },
    {
      "channel": 5,
      "note": 76,
      "start": 58.7748,
      "duration": 0.2642,
      "velocity": 120,
      "chip": "ym2612"
    },
    {
      "channel": 4,
      "note": 71,
      "start": 58.923,
      "duration": 0.9264,
      "velocity": 73,
      "chip": "ym2612"
    },
    {
      "channel": 5,
      "note": 76,
      "start": 59.0396,
      "duration": 0.2666,
      "velocity": 120,
      "chip": "ym2612"
    },
    {
      "channel": 5,
      "note": 76,
      "start": 59.3068,
      "duration": 0.2665,
      "velocity": 120,
      "chip": "ym2612"
    },
    {
      "channel": 5,
      "note": 76,
      "start": 59.5739,
      "duration": 0.2755,
      "velocity": 120,
      "chip": "ym2612"
    },
    {
      "channel": 0,
      "note": 80,
      "start": 59.8419,
      "duration": 0.0075,
      "velocity": 93,
      "chip": "ym2612"
    },
    {
      "channel": 1,
      "note": 54,
      "start": 59.843,
      "duration": 0.0064,
      "velocity": 97,
      "chip": "ym2612"
    },
    {
      "channel": 2,
      "note": 73,
      "start": 59.8468,
      "duration": 0.0026,
      "velocity": 95,
      "chip": "ym2612"
    }
  ]
}