{
  "track_name": "03 - Level 2",
  "duration_sec": 225.899,
  "sample_rate": 44100,
  "note_count": 3457,
  "unique_pitches": 51,
  "pitch_range": 74,
  "avg_note_duration": 0.1937,
  "reconstruction_stats": {
    "notes_reconstructed": 3457,
    "keyon_events": 3457,
    "keyoff_events": 3457,
    "orphan_keyons": 0,
    "unique_pitches": 51,
    "pitch_range": 74,
    "avg_duration_sec": 0.1937
  },
  "metadata": {
    "source": "S\\Stormlord\\03 - Level 2.vgz"
  },
  "notes": [
    {
      "channel": 0,
      "note": 33,
      "start": 0.0476,
      "duration": 0.7322,
      "velocity": 94,
      "chip": "ym2612"
    },
    {
      "channel": 1,
      "note": 57,
      "start": 0.0552,
      "duration": 0.0266,
      "velocity": 99,
      "chip": "ym2612"
    },
    {
      "channel": 2,
      "note": 24,
      "start": 0.0622,
      "duration": 0.0198,
      "velocity": 112,
      "chip": "ym2612"
    },
    {
      "channel": 1,
      "note": 67,
      "start": 0.4229,
      "duration": 0.0602,
      "velocity": 127,
      "chip": "ym2612"
    },
    {
      "channel": 2,
      "note": 52,
      "start": 0.4307,
      "duration": 0.0527,
      "velocity": 99,
      "chip": "ym2612"
    },
    {
      "channel": 0,
      "note": 60,
      "start": 0.8241,
      "duration": 0.0428,
      "velocity": 99,
      "chip": "ym2612"
    },
    {
      "channel": 1,
      "note": 24,
      "start": 0.8309,
      "duration": 0.0363,
      "velocity": 112,
      "chip": "ym2612"
    },
    {
      "channel": 2,
      "note": 28,
      "start": 0.8387,
      "duration": 0.7269,
      "velocity": 94,
      "chip": "ym2612"
    },
    {
      "channel": 0,
      "note": 24,
      "start": 0.9108,
      "duration": 0.0609,
      "velocity": 112,
      "chip": "ym2612"
    },
    {
      "channel": 0,
      "note": 60,
      "start": 1.0176,
      "duration": 0.0589,
      "velocity": 99,
      "chip": "ym2612"
    },
    {
      "channel": 0,
      "note": 55,
      "start": 1.2059,
      "duration": 0.0627,
      "velocity": 99,
      "chip": "ym2612"
    },
    {
      "channel": 1,
      "note": 67,
      "start": 1.2135,
      "duration": 0.0552,
      "velocity": 127,
      "chip": "ym2612"
    },
    {
      "channel": 0,
      "note": 57,
      "start": 1.6073,
      "duration": 0.0454,
      "velocity": 99,
      "chip": "ym2612"
    },
    {
      "channel": 1,
      "note": 24,
      "start": 1.614,
      "duration": 0.0389,
      "velocity": 112,
      "chip": "ym2612"
    },
    {
      "channel": 2,
      "note": 36,
      "start": 1.6195,
      "duration": 0.7317,
      "velocity": 94,
      "chip": "ym2612"
    },
    {
      "channel": 0,
      "note": 52,
      "start": 1.9914,
      "duration": 0.0627,
      "velocity": 99,
      "chip": "ym2612"
    },
    {
      "channel": 1,
      "note": 67,
      "start": 1.999,
      "duration": 0.0553,
      "velocity": 127,
      "chip": "ym2612"
    },
    {
      "channel": 0,
      "note": 67,
      "start": 2.1858,
      "duration": 0.0602,
      "velocity": 127,
      "chip": "ym2612"
    },
    {
      "channel": 0,
      "note": 67,
      "start": 2.288,
      "duration": 0.0628,
      "velocity": 127,
      "chip": "ym2612"
    },
    {
      "channel": 0,
      "note": 60,
      "start": 2.3952,
      "duration": 0.0432,
      "velocity": 99,
      "chip": "ym2612"
    },
    {
      "channel": 1,
      "note": 31,
      "start": 2.4028,
      "duration": 0.7337,
      "velocity": 94,
      "chip": "ym2612"
    },
    {
      "channel": 2,
      "note": 24,
      "start": 2.4099,
      "duration": 0.0289,
      "velocity": 112,
      "chip": "ym2612"
    },
    {
      "channel": 0,
      "note": 24,
      "start": 2.4815,
      "duration": 0.0612,
      "velocity": 112,
      "chip": "ym2612"
    },
    {
      "channel": 0,
      "note": 60,
      "start": 2.5916,
      "duration": 0.056,
      "velocity": 99,
      "chip": "ym2612"
    },
    {
      "channel": 0,
      "note": 57,
      "start": 2.7767,
      "duration": 0.0628,
      "velocity": 99,
      "chip": "ym2612"
    },
    {
      "channel": 2,
      "note": 67,
      "start": 2.7846,
      "duration": 0.0554,
      "velocity": 127,
      "chip": "ym2612"
    },
    {
      "channel": 0,
      "note": 67,
      "start": 2.9713,
      "duration": 0.0602,
      "velocity": 127,
      "chip": "ym2612"
    },
    {
      "channel": 0,
      "note": 67,
      "start": 3.0735,
      "duration": 0.0628,
      "velocity": 127,
      "chip": "ym2612"
    },
    {
      "channel": 0,
      "note": 57,
      "start": 3.1812,
      "duration": 0.0423,
      "velocity": 99,
      "chip": "ym2612"
    },
    {
      "channel": 1,
      "note": 24,
      "start": 3.1879,
      "duration": 0.0358,
      "velocity": 112,
      "chip": "ym2612"
    },
    {
      "channel": 2,
      "note": 33,
      "start": 3.1958,
      "duration": 0.7264,
      "velocity": 94,
      "chip": "ym2612"
    },
    {
      "channel": 0,
      "note": 52,
      "start": 3.5622,
      "duration": 0.0628,
      "velocity": 99,
      "chip": "ym2612"
    },
    {
      "channel": 1,
      "note": 67,
      "start": 3.5699,
      "duration": 0.0554,
      "velocity": 127,
      "chip": "ym2612"
    },
    {
      "channel": 0,
      "note": 60,
      "start": 3.9638,
      "duration": 0.0451,
      "velocity": 99,
      "chip": "ym2612"
    },
    {
      "channel": 1,
      "note": 28,
      "start": 3.9714,
      "duration": 0.736,
      "velocity": 94,
      "chip": "ym2612"
    },
    {
      "channel": 2,
      "note": 24,
      "start": 3.9783,
      "duration": 0.031,
      "velocity": 112,
      "chip": "ym2612"
    },
    {
      "channel": 0,
      "note": 24,
      "start": 4.0525,
      "duration": 0.0613,
      "velocity": 112,
      "chip": "ym2612"
    },
    {
      "channel": 0,
      "note": 60,
      "start": 4.1582,
      "duration": 0.0602,
      "velocity": 99,
      "chip": "ym2612"
    },
    {
      "channel": 0,
      "note": 55,
      "start": 4.3477,
      "duration": 0.0629,
      "velocity": 99,
      "chip": "ym2612"
    },
    {
      "channel": 2,
      "note": 67,
      "start": 4.3556,
      "duration": 0.0554,
      "velocity": 127,
      "chip": "ym2612"
    },
    {
      "channel": 0,
      "note": 57,
      "start": 4.7493,
      "duration": 0.0452,
      "velocity": 99,
      "chip": "ym2612"
    },
    {
      "channel": 1,
      "note": 24,
      "start": 4.7561,
      "duration": 0.0386,
      "velocity": 112,
      "chip": "ym2612"
    },
    {
      "channel": 2,
      "note": 36,
      "start": 4.7639,
      "duration": 0.7291,
      "velocity": 94,
      "chip": "ym2612"
    },
    {
      "channel": 0,
      "note": 52,
      "start": 5.1333,
      "duration": 0.0628,
      "velocity": 99,
      "chip": "ym2612"
    },
    {
      "channel": 1,
      "note": 67,
      "start": 5.1409,
      "duration": 0.0554,
      "velocity": 127,
      "chip": "ym2612"
    },
    {
      "channel": 0,
      "note": 60,
      "start": 5.5348,
      "duration": 0.0496,
      "velocity": 99,
      "chip": "ym2612"
    },
    {
      "channel": 1,
      "note": 31,
      "start": 5.5424,
      "duration": 0.7359,
      "velocity": 94,
      "chip": "ym2612"
    },
    {
      "channel": 2,
      "note": 24,
      "start": 5.5494,
      "duration": 0.0354,
      "velocity": 112,
      "chip": "ym2612"
    },
    {
      "channel": 0,
      "note": 24,
      "start": 5.6235,
      "duration": 0.0613,
      "velocity": 112,
      "chip": "ym2612"
    },
    {
      "channel": 0,
      "note": 60,
      "start": 5.7292,
      "duration": 0.0602,
      "velocity": 99,
      "chip": "ym2612"
    },
    {
      "channel": 0,
      "note": 55,
      "start": 5.9188,
      "duration": 0.0628,
      "velocity": 99,
      "chip": "ym2612"
    },
    {
      "channel": 2,
      "note": 67,
      "start": 5.9266,
      "duration": 0.0554,
      "velocity": 127,
      "chip": "ym2612"
    },
    {
      "channel": 0,
      "note": 67,
      "start": 6.0258,
      "duration": 0.0611,
      "velocity": 127,
      "chip": "ym2612"
    },
    {
      "channel": 0,
      "note": 67,
      "start": 6.1107,
      "duration": 0.0629,
      "velocity": 127,
      "chip": "ym2612"
    },
    {
      "channel": 0,
      "note": 67,
      "start": 6.2155,
      "duration": 0.0626,
      "velocity": 127,
      "chip": "ym2612"
    },
    {
      "channel": 0,
      "note": 57,
      "start": 6.3237,
      "duration": 0.0418,
      "velocity": 99,
      "chip": "ym2612"
    },
    {
      "channel": 1,
      "note": 24,
      "start": 6.3305,
      "duration": 0.0352,
      "velocity": 112,
      "chip": "ym2612"
    },
    {
      "channel": 2,
      "note": 33,
      "start": 6.3383,
      "duration": 0.7257,
      "velocity": 94,
      "chip": "ym2612"
    },
    {
      "channel": 3,
      "note": 45,
      "start": 6.3454,
      "duration": 1.5043,
      "velocity": 99,
      "chip": "ym2612"
    },
    {
      "channel": 0,
      "note": 52,
      "start": 6.7043,
      "duration": 0.0628,
      "velocity": 99,
      "chip": "ym2612"
    },
    {
      "channel": 1,
      "note": 67,
      "start": 6.7119,
      "duration": 0.0554,
      "velocity": 127,
      "chip": "ym2612"
    },
    {
      "channel": 0,
      "note": 60,
      "start": 7.1058,
      "duration": 0.0452,
      "velocity": 99,
      "chip": "ym2612"
    },
    {
      "channel": 1,
      "note": 28,
      "start": 7.1134,
      "duration": 0.7359,
      "velocity": 94,
      "chip": "ym2612"
    },
    {
      "channel": 2,
      "note": 24,
      "start": 7.1204,
      "duration": 0.031,
      "velocity": 112,
      "chip": "ym2612"
    },
    {
      "channel": 0,
      "note": 24,
      "start": 7.1945,
      "duration": 0.0613,
      "velocity": 112,
      "chip": "ym2612"
    },
    {
      "channel": 0,
      "note": 60,
      "start": 7.3001,
      "duration": 0.0602,
      "velocity": 99,
      "chip": "ym2612"
    },
    {
      "channel": 0,
      "note": 55,
      "start": 7.4897,
      "duration": 0.0628,
      "velocity": 99,
      "chip": "ym2612"
    },
    {
      "channel": 2,
      "note": 67,
      "start": 7.4975,
      "duration": 0.0554,
      "velocity": 127,
      "chip": "ym2612"
    },
    {
      "channel": 0,
      "note": 57,
      "start": 7.8913,
      "duration": 0.0451,
      "velocity": 99,
      "chip": "ym2612"
    },
    {
      "channel": 1,
      "note": 24,
      "start": 7.898,
      "duration": 0.0387,
      "velocity": 112,
      "chip": "ym2612"
    },
    {
      "channel": 2,
      "note": 36,
      "start": 7.9059,
      "duration": 0.7291,
      "velocity": 94,
      "chip": "ym2612"
    },
    {
      "channel": 3,
      "note": 48,
      "start": 7.9108,
      "duration": 0.7244,
      "velocity": 99,
      "chip": "ym2612"
    },
    {
      "channel": 0,
      "note": 52,
      "start": 8.2752,
      "duration": 0.0628,
      "velocity": 99,
      "chip": "ym2612"
    },
    {
      "channel": 1,
      "note": 67,
      "start": 8.2828,
      "duration": 0.0554,
      "velocity": 127,
      "chip": "ym2612"
    },
    {
      "channel": 0,
      "note": 67,
      "start": 8.4695,
      "duration": 0.0604,
      "velocity": 127,
      "chip": "ym2612"
    },
    {
      "channel": 0,
      "note": 67,
      "start": 8.572,
      "duration": 0.0627,
      "velocity": 127,
      "chip": "ym2612"
    },
    {
      "channel": 0,
      "note": 60,
      "start": 8.6792,
      "duration": 0.0428,
      "velocity": 99,
      "chip": "ym2612"
    },
    {
      "channel": 1,
      "note": 45,
      "start": 8.6859,
      "duration": 0.1411,
      "velocity": 99,
      "chip": "ym2612"
    },
    {
      "channel": 2,
      "note": 31,
      "start": 8.6914,
      "duration": 0.7292,
      "velocity": 94,
      "chip": "ym2612"
    },
    {
      "channel": 3,
      "note": 24,
      "start": 8.6984,
      "duration": 0.024,
      "velocity": 112,
      "chip": "ym2612"
    },
    {
      "channel": 0,
      "note": 24,
      "start": 8.7655,
      "duration": 0.0612,
      "velocity": 112,
      "chip": "ym2612"
    },
    {
      "channel": 0,
      "note": 43,
      "start": 8.8703,
      "duration": 0.1484,
      "velocity": 99,
      "chip": "ym2612"
    },
    {
      "channel": 1,
      "note": 60,
      "start": 8.8779,
      "duration": 0.0537,
      "velocity": 99,
      "chip": "ym2612"
    },
    {
      "channel": 0,
      "note": 57,
      "start": 9.0631,
      "duration": 0.0604,
      "velocity": 99,
      "chip": "ym2612"
    },
    {
      "channel": 1,
      "note": 40,
      "start": 9.0699,
      "duration": 0.3505,
      "velocity": 99,
      "chip": "ym2612"
    },
    {
      "channel": 3,
      "note": 67,
      "start": 9.0778,
      "duration": 0.0462,
      "velocity": 127,
      "chip": "ym2612"
    },
    {
      "channel": 0,
      "note": 67,
      "start": 9.2551,
      "duration": 0.0602,
      "velocity": 127,
      "chip": "ym2612"
    },
    {
      "channel": 0,
      "note": 67,
      "start": 9.3575,
      "duration": 0.0627,
      "velocity": 127,
      "chip": "ym2612"
    },
    {
      "channel": 0,
      "note": 45,
      "start": 9.4646,
      "duration": 1.5265,
      "velocity": 99,
      "chip": "ym2612"
    },
    {
      "channel": 1,
      "note": 57,
      "start": 9.4723,
      "duration": 0.0354,
      "velocity": 99,
      "chip": "ym2612"
    },
    {
      "channel": 2,
      "note": 24,
      "start": 9.4792,
      "duration": 0.0286,
      "velocity": 112,
      "chip": "ym2612"
    },
    {
      "channel": 3,
      "note": 33,
      "start": 9.4872,
      "duration": 0.719,
      "velocity": 94,
      "chip": "ym2612"
    },
    {
      "channel": 1,
      "note": 52,
      "start": 9.8464,
      "duration": 0.0628,
      "velocity": 99,
      "chip": "ym2612"
    },
    {
      "channel": 2,
      "note": 67,
      "start": 9.8541,
      "duration": 0.0553,
      "velocity": 127,
      "chip": "ym2612"
    },
    {
      "channel": 1,
      "note": 60,
      "start": 10.251,
      "duration": 0.0422,
      "velocity": 99,
      "chip": "ym2612"
    },
    {
      "channel": 2,
      "note": 28,
      "start": 10.2588,
      "duration": 0.7326,
      "velocity": 94,
      "chip": "ym2612"
    },
    {
      "channel": 3,
      "note": 24,
      "start": 10.2659,
      "duration": 0.0277,
      "velocity": 112,
      "chip": "ym2612"
    },
    {
      "channel": 1,
      "note": 24,
      "start": 10.3367,
      "duration": 0.0612,
      "velocity": 112,
      "chip": "ym2612"
    },
    {
      "channel": 1,
      "note": 60,
      "start": 10.4423,
      "duration": 0.0602,
      "velocity": 99,
      "chip": "ym2612"
    },
    {
      "channel": 1,
      "note": 55,
      "start": 10.6319,
      "duration": 0.0628,
      "velocity": 99,
      "chip": "ym2612"
    },
    {
      "channel": 3,
      "note": 67,
      "start": 10.6398,
      "duration": 0.0552,
      "velocity": 127,
      "chip": "ym2612"
    },
    {
      "channel": 0,
      "note": 57,
      "start": 11.0356,
      "duration": 0.0428,
      "velocity": 99,
      "chip": "ym2612"
    },
    {
      "channel": 1,
      "note": 24,
      "start": 11.0426,
      "duration": 0.0361,
      "velocity": 112,
      "chip": "ym2612"
    },
    {
      "channel": 2,
      "note": 36,
      "start": 11.048,
      "duration": 0.729,
      "velocity": 94,
      "chip": "ym2612"
    },
    {
      "channel": 3,
      "note": 48,
      "start": 11.0551,
      "duration": 0.7221,
      "velocity": 99,
      "chip": "ym2612"
    },
    {
      "channel": 0,
      "note": 52,
      "start": 11.4172,
      "duration": 0.0628,
      "velocity": 99,
      "chip": "ym2612"
    },
    {
      "channel": 1,
      "note": 67,
      "start": 11.4248,
      "duration": 0.0554,
      "velocity": 127,
      "chip": "ym2612"
    },
    {
      "channel": 0,
      "note": 60,
      "start": 11.8194,
      "duration": 0.0445,
      "velocity": 99,
      "chip": "ym2612"
    },
    {
      "channel": 1,
      "note": 40,
      "start": 11.8263,
      "duration": 0.7359,
      "velocity": 99,
      "chip": "ym2612"
    },
    {
      "channel": 2,
      "note": 31,
      "start": 11.8318,
      "duration": 0.7308,
      "velocity": 94,
      "chip": "ym2612"
    },
    {
      "channel": 3,
      "note": 24,
      "start": 11.8389,
      "duration": 0.0256,
      "velocity": 112,
      "chip": "ym2612"
    },
    {
      "channel": 0,
      "note": 24,
      "start": 11.9075,
      "duration": 0.0613,
      "velocity": 112,
      "chip": "ym2612"
    },
    {
      "channel": 0,
      "note": 60,
      "start": 12.0131,
      "duration": 0.0602,
      "velocity": 99,
      "chip": "ym2612"
    },
    {
      "channel": 0,
      "note": 55,
      "start": 12.2027,
      "duration": 0.0628,
      "velocity": 99,
      "chip": "ym2612"
    },
    {
      "channel": 3,
      "note": 67,
      "start": 12.2106,
      "duration": 0.0554,
      "velocity": 127,
      "chip": "ym2612"
    },
    {
      "channel": 0,
      "note": 67,
      "start": 12.3099,
      "duration": 0.0602,
      "velocity": 127,
      "chip": "ym2612"
    },
    {
      "channel": 0,
      "note": 67,
      "start": 12.3947,
      "duration": 0.0628,
      "velocity": 127,
      "chip": "ym2612"
    },
    {
      "channel": 0,
      "note": 67,
      "start": 12.4995,
      "duration": 0.0626,
      "velocity": 127,
      "chip": "ym2612"
    },
    {
      "channel": 0,
      "note": 57,
      "start": 12.6078,
      "duration": 0.0591,
      "velocity": 99,
      "chip": "ym2612"
    },
    {
      "channel": 1,
      "note": 24,
      "start": 12.6146,
      "duration": 0.0525,
      "velocity": 112,
      "chip": "ym2612"
    },
    {
      "channel": 2,
      "note": 33,
      "start": 12.62,
      "duration": 0.7455,
      "velocity": 94,
      "chip": "ym2612"
    },
    {
      "channel": 3,
      "note": 45,
      "start": 12.6273,
      "duration": 1.5239,
      "velocity": 99,
      "chip": "ym2612"
    },
    {
      "channel": 4,
      "note": 69,
      "start": 12.6346,
      "duration": 0.1378,
      "velocity": 99,
      "chip": "ym2612"
    },
    {
      "channel": 0,
      "note": 64,
      "start": 12.8152,
      "duration": 0.1485,
      "velocity": 99,
      "chip": "ym2612"
    },
    {
      "channel": 0,
      "note": 72,
      "start": 13.0049,
      "duration": 0.1681,
      "velocity": 99,
      "chip": "ym2612"
    },
    {
      "channel": 1,
      "note": 52,
      "start": 13.0126,
      "duration": 0.056,
      "velocity": 99,
      "chip": "ym2612"
    },
    {
      "channel": 4,
      "note": 67,
      "start": 13.0207,
      "duration": 0.0484,
      "velocity": 127,
      "chip": "ym2612"
    },
    {
      "channel": 0,
      "note": 67,
      "start": 13.1969,
      "duration": 0.1683,
      "velocity": 99,
      "chip": "ym2612"
    },
    {
      "channel": 0,
      "note": 60,
      "start": 13.4096,
      "duration": 0.0428,
      "velocity": 99,
      "chip": "ym2612"
    },
    {
      "channel": 1,
      "note": 28,
      "start": 13.4171,
      "duration": 0.7337,
      "velocity": 94,
      "chip": "ym2612"
    },
    {
      "channel": 2,
      "note": 24,
      "start": 13.4241,
      "duration": 0.0287,
      "velocity": 112,
      "chip": "ym2612"
    },
    {
      "channel": 0,
      "note": 24,
      "start": 13.4959,
      "duration": 0.0612,
      "velocity": 112,
      "chip": "ym2612"
    },
    {
      "channel": 0,
      "note": 60,
      "start": 13.6015,
      "duration": 0.0603,
      "velocity": 99,
      "chip": "ym2612"
    },
    {
      "channel": 0,
      "note": 55,
      "start": 13.7911,
      "duration": 0.0628,
      "velocity": 99,
      "chip": "ym2612"
    },
    {
      "channel": 2,
      "note": 67,
      "start": 13.7989,
      "duration": 0.0554,
      "velocity": 127,
      "chip": "ym2612"
    },
    {
      "channel": 0,
      "note": 57,
      "start": 14.1925,
      "duration": 0.0454,
      "velocity": 99,
      "chip": "ym2612"
    },
    {
      "channel": 1,
      "note": 24,
      "start": 14.1993,
      "duration": 0.0388,
      "velocity": 112,
      "chip": "ym2612"
    },
    {
      "channel": 2,
      "note": 36,
      "start": 14.2071,
      "duration": 0.7296,
      "velocity": 94,
      "chip": "ym2612"
    },
    {
      "channel": 3,
      "note": 69,
      "start": 14.212,
      "duration": 0.1312,
      "velocity": 99,
      "chip": "ym2612"
    },
    {
      "channel": 4,
      "note": 48,
      "start": 14.2192,
      "duration": 0.7178,
      "velocity": 99,
      "chip": "ym2612"
    },
    {
      "channel": 0,
      "note": 64,
      "start": 14.3861,
      "duration": 0.1485,
      "velocity": 99,
      "chip": "ym2612"
    },
    {
      "channel": 0,
      "note": 72,
      "start": 14.5761,
      "duration": 0.1679,
      "velocity": 99,
      "chip": "ym2612"
    },
    {
      "channel": 1,
      "note": 52,
      "start": 14.5837,
      "duration": 0.0559,
      "velocity": 99,
      "chip": "ym2612"
    },
    {
      "channel": 3,
      "note": 67,
      "start": 14.5917,
      "duration": 0.0483,
      "velocity": 127,
      "chip": "ym2612"
    },
    {
      "channel": 0,
      "note": 67,
      "start": 14.7748,
      "duration": 0.0566,
      "velocity": 127,
      "chip": "ym2612"
    },
    {
      "channel": 1,
      "note": 67,
      "start": 14.7816,
      "duration": 0.1548,
      "velocity": 99,
      "chip": "ym2612"
    },
    {
      "channel": 0,
      "note": 67,
      "start": 14.8734,
      "duration": 0.0628,
      "velocity": 127,
      "chip": "ym2612"
    },
    {
      "channel": 0,
      "note": 60,
      "start": 14.9805,
      "duration": 0.0428,
      "velocity": 99,
      "chip": "ym2612"
    },
    {
      "channel": 1,
      "note": 45,
      "start": 14.9851,
      "duration": 0.1431,
      "velocity": 99,
      "chip": "ym2612"
    },
    {
      "channel": 2,
      "note": 31,
      "start": 14.9905,
      "duration": 0.7315,
      "velocity": 94,
      "chip": "ym2612"
    },
    {
      "channel": 3,
      "note": 24,
      "start": 14.9976,
      "duration": 0.0263,
      "velocity": 112,
      "chip": "ym2612"
    },
    {
      "channel": 0,
      "note": 24,
      "start": 15.0669,
      "duration": 0.0611,
      "velocity": 112,
      "chip": "ym2612"
    },
    {
      "channel": 0,
      "note": 43,
      "start": 15.1717,
      "duration": 0.1484,
      "velocity": 99,
      "chip": "ym2612"
    },
    {
      "channel": 1,
      "note": 60,
      "start": 15.1793,
      "duration": 0.0536,
      "velocity": 99,
      "chip": "ym2612"
    },
    {
      "channel": 0,
      "note": 57,
      "start": 15.3645,
      "duration": 0.0604,
      "velocity": 99,
      "chip": "ym2612"
    },
    {
      "channel": 1,
      "note": 40,
      "start": 15.3712,
      "duration": 0.3506,
      "velocity": 99,
      "chip": "ym2612"
    },
    {
      "channel": 3,
      "note": 67,
      "start": 15.3792,
      "duration": 0.0462,
      "velocity": 127,
      "chip": "ym2612"
    },
    {
      "channel": 0,
      "note": 67,
      "start": 15.5566,
      "duration": 0.0602,
      "velocity": 127,
      "chip": "ym2612"
    },
    {
      "channel": 0,
      "note": 67,
      "start": 15.6589,
      "duration": 0.0628,
      "velocity": 127,
      "chip": "ym2612"
    },
    {
      "channel": 0,
      "note": 45,
      "start": 15.7657,
      "duration": 1.5444,
      "velocity": 99,
      "chip": "ym2612"
    },
    {
      "channel": 1,
      "note": 57,
      "start": 15.7733,
      "duration": 0.0531,
      "velocity": 99,
      "chip": "ym2612"
    },
    {
      "channel": 2,
      "note": 24,
      "start": 15.7802,
      "duration": 0.0464,
      "velocity": 112,
      "chip": "ym2612"
    },
    {
      "channel": 3,
      "note": 33,
      "start": 15.7882,
      "duration": 0.7369,
      "velocity": 94,
      "chip": "ym2612"
    },
    {
      "channel": 4,
      "note": 69,
      "start": 15.7933,
      "duration": 0.1384,
      "velocity": 99,
      "chip": "ym2612"
    },
    {
      "channel": 1,
      "note": 64,
      "start": 15.9747,
      "duration": 0.1485,
      "velocity": 99,
      "chip": "ym2612"
    },
    {
      "channel": 1,
      "note": 72,
      "start": 16.1645,
      "duration": 0.1683,
      "velocity": 99,
      "chip": "ym2612"
    },
    {
      "channel": 2,
      "note": 52,
      "start": 16.1723,
      "duration": 0.0559,
      "velocity": 99,
      "chip": "ym2612"
    },
    {
      "channel": 4,
      "note": 67,
      "start": 16.1804,
      "duration": 0.0481,
      "velocity": 127,
      "chip": "ym2612"
    },
    {
      "channel": 1,
      "note": 67,
      "start": 16.3566,
      "duration": 0.168,
      "velocity": 99,
      "chip": "ym2612"
    },
    {
      "channel": 1,
      "note": 57,
      "start": 16.5687,
      "duration": 0.1481,
      "velocity": 100,
      "chip": "ym2612"
    },
    {
      "channel": 2,
      "note": 60,
      "start": 16.5742,
      "duration": 0.0379,
      "velocity": 99,
      "chip": "ym2612"
    },
    {
      "channel": 3,
      "note": 28,
      "start": 16.5798,
      "duration": 0.7308,
      "velocity": 94,
      "chip": "ym2612"
    },
    {
      "channel": 4,
      "note": 24,
      "start": 16.5871,
      "duration": 0.0254,
      "velocity": 112,
      "chip": "ym2612"
    },
    {
      "channel": 2,
      "note": 24,
      "start": 16.6557,
      "duration": 0.0613,
      "velocity": 112,
      "chip": "ym2612"
    },
    {
      "channel": 1,
      "note": 60,
      "start": 16.7611,
      "duration": 0.0604,
      "velocity": 99,
      "chip": "ym2612"
    },
    {
      "channel": 2,
      "note": 55,
      "start": 16.768,
      "duration": 0.1408,
      "velocity": 100,
      "chip": "ym2612"
    },
    {
      "channel": 1,
      "note": 57,
      "start": 16.9522,
      "duration": 0.166,
      "velocity": 100,
      "chip": "ym2612"
    },
    {
      "channel": 2,
      "note": 55,
      "start": 16.96,
      "duration": 0.0537,
      "velocity": 99,
      "chip": "ym2612"
    },
    {
      "channel": 4,
      "note": 67,
      "start": 16.9681,
      "duration": 0.0459,
      "velocity": 127,
      "chip": "ym2612"
    },
    {
      "channel": 0,
      "note": 57,
      "start": 17.3544,
      "duration": 0.0602,
      "velocity": 99,
      "chip": "ym2612"
    },
    {
      "channel": 1,
      "note": 60,
      "start": 17.3592,
      "duration": 0.1604,
      "velocity": 100,
      "chip": "ym2612"
    },
    {
      "channel": 2,
      "note": 24,
      "start": 17.3661,
      "duration": 0.0489,
      "velocity": 112,
      "chip": "ym2612"
    },
    {
      "channel": 3,
      "note": 36,
      "start": 17.3717,
      "duration": 0.7419,
      "velocity": 94,
      "chip": "ym2612"
    },
    {
      "channel": 4,
      "note": 48,
      "start": 17.379,
      "duration": 0.7347,
      "velocity": 99,
      "chip": "ym2612"
    },
    {
      "channel": 0,
      "note": 55,
      "start": 17.7551,
      "duration": 1.1434,
      "velocity": 100,
      "chip": "ym2612"
    },
    {
      "channel": 1,
      "note": 52,
      "start": 17.7627,
      "duration": 0.0536,
      "velocity": 99,
      "chip": "ym2612"
    },
    {
      "channel": 2,
      "note": 67,
      "start": 17.7705,
      "duration": 0.0461,
      "velocity": 127,
      "chip": "ym2612"
    },
    {
      "channel": 1,
      "note": 60,
      "start": 18.1551,
      "duration": 0.0452,
      "velocity": 99,
      "chip": "ym2612"
    },
    {
      "channel": 2,
      "note": 40,
      "start": 18.162,
      "duration": 0.7369,
      "velocity": 99,
      "chip": "ym2612"
    },
    {
      "channel": 3,
      "note": 31,
      "start": 18.1676,
      "duration": 0.7315,
      "velocity": 94,
      "chip": "ym2612"
    },
    {
      "channel": 4,
      "note": 24,
      "start": 18.175,
      "duration": 0.0259,
      "velocity": 112,
      "chip": "ym2612"
    },
    {
      "channel": 1,
      "note": 24,
      "start": 18.2442,
      "duration": 0.0609,
      "velocity": 112,
      "chip": "ym2612"
    },
    {
      "channel": 1,
      "note": 60,
      "start": 18.3495,
      "duration": 0.0604,
      "velocity": 99,
      "chip": "ym2612"
    },
    {
      "channel": 1,
      "note": 55,
      "start": 18.5393,
      "duration": 0.0626,
      "velocity": 99,
      "chip": "ym2612"
    },
    {
      "channel": 4,
      "note": 67,
      "start": 18.5474,
      "duration": 0.055,
      "velocity": 127,
      "chip": "ym2612"
    },
    {
      "channel": 1,
      "note": 67,
      "start": 18.6463,
      "duration": 0.0604,
      "velocity": 127,
      "chip": "ym2612"
    },
    {
      "channel": 1,
      "note": 67,
      "start": 18.7336,
      "duration": 0.0602,
      "velocity": 127,
      "chip": "ym2612"
    },
    {
      "channel": 1,
      "note": 67,
      "start": 18.8358,
      "duration": 0.0629,
      "velocity": 127,
      "chip": "ym2612"
    },
    {
      "channel": 0,
      "note": 59,
      "start": 18.9446,
      "duration": 0.0587,
      "velocity": 99,
      "chip": "ym2612"
    },
    {
      "channel": 1,
      "note": 24,
      "start": 18.9513,
      "duration": 0.0522,
      "velocity": 112,
      "chip": "ym2612"
    },
    {
      "channel": 2,
      "note": 35,
      "start": 18.959,
      "duration": 0.7427,
      "velocity": 94,
      "chip": "ym2612"
    },
    {
      "channel": 3,
      "note": 47,
      "start": 18.9662,
      "duration": 1.5212,
      "velocity": 99,
      "chip": "ym2612"
    },
    {
      "channel": 4,
      "note": 71,
      "start": 18.9735,
      "duration": 0.1351,
      "velocity": 99,
      "chip": "ym2612"
    },
    {
      "channel": 0,
      "note": 66,
      "start": 19.1514,
      "duration": 0.1485,
      "velocity": 99,
      "chip": "ym2612"
    },
    {
      "channel": 0,
      "note": 74,
      "start": 19.3413,
      "duration": 0.1681,
      "velocity": 99,
      "chip": "ym2612"
    },
    {
      "channel": 1,
      "note": 54,
      "start": 19.3489,
      "duration": 0.0559,
      "velocity": 99,
      "chip": "ym2612"
    },
    {
      "channel": 4,
      "note": 67,
      "start": 19.3571,
      "duration": 0.0482,
      "velocity": 127,
      "chip": "ym2612"
    },
    {
      "channel": 0,
      "note": 69,
      "start": 19.5333,
      "duration": 0.1681,
      "velocity": 99,
      "chip": "ym2612"
    },
    {
      "channel": 0,
      "note": 62,
      "start": 19.7458,
      "duration": 0.043,
      "velocity": 99,
      "chip": "ym2612"
    },
    {
      "channel": 1,
      "note": 30,
      "start": 19.7534,
      "duration": 0.7337,
      "velocity": 94,
      "chip": "ym2612"
    },
    {
      "channel": 2,
      "note": 24,
      "start": 19.7605,
      "duration": 0.0286,
      "velocity": 112,
      "chip": "ym2612"
    },
    {
      "channel": 0,
      "note": 24,
      "start": 19.8323,
      "duration": 0.0611,
      "velocity": 112,
      "chip": "ym2612"
    },
    {
      "channel": 0,
      "note": 62,
      "start": 19.9377,
      "duration": 0.0605,
      "velocity": 99,
      "chip": "ym2612"
    },
    {
      "channel": 0,
      "note": 57,
      "start": 20.1275,
      "duration": 0.0626,
      "velocity": 99,
      "chip": "ym2612"
    },
    {
      "channel": 2,
      "note": 67,
      "start": 20.1353,
      "duration": 0.0552,
      "velocity": 127,
      "chip": "ym2612"
    },
    {
      "channel": 0,
      "note": 59,
      "start": 20.5289,
      "duration": 0.0454,
      "velocity": 99,
      "chip": "ym2612"
    },
    {
      "channel": 1,
      "note": 24,
      "start": 20.5356,
      "duration": 0.0389,
      "velocity": 112,
      "chip": "ym2612"
    },
    {
      "channel": 2,
      "note": 38,
      "start": 20.5434,
      "duration": 0.7295,
      "velocity": 94,
      "chip": "ym2612"
    },
    {
      "channel": 3,
      "note": 71,
      "start": 20.5484,
      "duration": 0.131,
      "velocity": 99,
      "chip": "ym2612"
    },
    {
      "channel": 4,
      "note": 50,
      "start": 20.5556,
      "duration": 0.7176,
      "velocity": 99,
      "chip": "ym2612"
    },
    {
      "channel": 0,
      "note": 66,
      "start": 20.7224,
      "duration": 0.1485,
      "velocity": 99,
      "chip": "ym2612"
    },
    {
      "channel": 0,
      "note": 74,
      "start": 20.9123,
      "duration": 0.1681,
      "velocity": 99,
      "chip": "ym2612"
    },
    {
      "channel": 1,
      "note": 54,
      "start": 20.9199,
      "duration": 0.0559,
      "velocity": 99,
      "chip": "ym2612"
    },
    {
      "channel": 3,
      "note": 67,
      "start": 20.9279,
      "duration": 0.0483,
      "velocity": 127,
      "chip": "ym2612"
    },
    {
      "channel": 0,
      "note": 67,
      "start": 21.1075,
      "duration": 0.06,
      "velocity": 127,
      "chip": "ym2612"
    },
    {
      "channel": 1,
      "note": 69,
      "start": 21.1143,
      "duration": 0.1583,
      "velocity": 99,
      "chip": "ym2612"
    },
    {
      "channel": 0,
      "note": 67,
      "start": 21.2098,
      "duration": 0.0626,
      "velocity": 127,
      "chip": "ym2612"
    },
    {
      "channel": 0,
      "note": 62,
      "start": 21.3168,
      "duration": 0.043,
      "velocity": 99,
      "chip": "ym2612"
    },
    {
      "channel": 1,
      "note": 47,
      "start": 21.3213,
      "duration": 0.1432,
      "velocity": 99,
      "chip": "ym2612"
    },
    {
      "channel": 2,
      "note": 33,
      "start": 21.3267,
      "duration": 0.7316,
      "velocity": 94,
      "chip": "ym2612"
    },
    {
      "channel": 3,
      "note": 24,
      "start": 21.3339,
      "duration": 0.0264,
      "velocity": 112,
      "chip": "ym2612"
    },
    {
      "channel": 0,
      "note": 24,
      "start": 21.4033,
      "duration": 0.0611,
      "velocity": 112,
      "chip": "ym2612"
    },
    {
      "channel": 0,
      "note": 45,
      "start": 21.5078,
      "duration": 0.1485,
      "velocity": 99,
      "chip": "ym2612"
    },
    {
      "channel": 1,
      "note": 62,
      "start": 21.5155,
      "duration": 0.0538,
      "velocity": 99,
      "chip": "ym2612"
    },
    {
      "channel": 0,
      "note": 57,
      "start": 21.7008,
      "duration": 0.0602,
      "velocity": 99,
      "chip": "ym2612"
    },
    {
      "channel": 1,
      "note": 42,
      "start": 21.7077,
      "duration": 0.3504,
      "velocity": 99,
      "chip": "ym2612"
    },
    {
      "channel": 3,
      "note": 67,
      "start": 21.7156,
      "duration": 0.046,
      "velocity": 127,
      "chip": "ym2612"
    },
    {
      "channel": 0,
      "note": 67,
      "start": 21.8928,
      "duration": 0.0602,
      "velocity": 127,
      "chip": "ym2612"
    },
    {
      "channel": 0,
      "note": 67,
      "start": 21.9952,
      "duration": 0.0626,
      "velocity": 127,
      "chip": "ym2612"
    },
    {
      "channel": 0,
      "note": 47,
      "start": 22.1019,
      "duration": 1.5444,
      "velocity": 99,
      "chip": "ym2612"
    },
    {
      "channel": 1,
      "note": 59,
      "start": 22.1095,
      "duration": 0.0533,
      "velocity": 99,
      "chip": "ym2612"
    },
    {
      "channel": 2,
      "note": 24,
      "start": 22.1164,
      "duration": 0.0466,
      "velocity": 112,
      "chip": "ym2612"
    },
    {
      "channel": 3,
      "note": 35,
      "start": 22.1244,
      "duration": 0.7369,
      "velocity": 94,
      "chip": "ym2612"
    },
    {
      "channel": 4,
      "note": 71,
      "start": 22.1295,
      "duration": 0.1385,
      "velocity": 99,
      "chip": "ym2612"
    },
    {
      "channel": 1,
      "note": 66,
      "start": 22.3112,
      "duration": 0.1484,
      "velocity": 99,
      "chip": "ym2612"
    },
    {
      "channel": 1,
      "note": 74,
      "start": 22.5009,
      "duration": 0.1681,
      "velocity": 99,
      "chip": "ym2612"
    },
    {
      "channel": 2,
      "note": 54,
      "start": 22.5087,
      "duration": 0.0557,
      "velocity": 99,
      "chip": "ym2612"
    },
    {
      "channel": 4,
      "note": 67,
      "start": 22.5168,
      "duration": 0.048,
      "velocity": 127,
      "chip": "ym2612"
    },
    {
      "channel": 1,
      "note": 69,
      "start": 22.6929,
      "duration": 0.168,
      "velocity": 99,
      "chip": "ym2612"
    },
    {
      "channel": 1,
      "note": 59,
      "start": 22.905,
      "duration": 0.148,
      "velocity": 100,
      "chip": "ym2612"
    },
    {
      "channel": 2,
      "note": 62,
      "start": 22.9104,
      "duration": 0.0381,
      "velocity": 99,
      "chip": "ym2612"
    },
    {
      "channel": 3,
      "note": 30,
      "start": 22.916,
      "duration": 0.7308,
      "velocity": 94,
      "chip": "ym2612"
    },
    {
      "channel": 4,
      "note": 24,
      "start": 22.9233,
      "duration": 0.0256,
      "velocity": 112,
      "chip": "ym2612"
    },
    {
      "channel": 2,
      "note": 24,
      "start": 22.9922,
      "duration": 0.061,
      "velocity": 112,
      "chip": "ym2612"
    },
    {
      "channel": 1,
      "note": 62,
      "start": 23.0975,
      "duration": 0.0602,
      "velocity": 99,
      "chip": "ym2612"
    },
    {
      "channel": 2,
      "note": 57,
      "start": 23.1044,
      "duration": 0.1408,
      "velocity": 100,
      "chip": "ym2612"
    },
    {
      "channel": 1,
      "note": 59,
      "start": 23.2886,
      "duration": 0.1659,
      "velocity": 100,
      "chip": "ym2612"
    },
    {
      "channel": 2,
      "note": 57,
      "start": 23.2964,
      "duration": 0.0535,
      "velocity": 99,
      "chip": "ym2612"
    },
    {
      "channel": 4,
      "note": 67,
      "start": 23.3045,
      "duration": 0.0457,
      "velocity": 127,
      "chip": "ym2612"
    },
    {
      "channel": 0,
      "note": 59,
      "start": 23.6907,
      "duration": 0.0429,
      "velocity": 99,
      "chip": "ym2612"
    },
    {
      "channel": 1,
      "note": 62,
      "start": 23.6952,
      "duration": 0.1466,
      "velocity": 100,
      "chip": "ym2612"
    },
    {
      "channel": 2,
      "note": 24,
      "start": 23.7022,
      "duration": 0.0318,
      "velocity": 112,
      "chip": "ym2612"
    },
    {
      "channel": 3,
      "note": 38,
      "start": 23.7078,
      "duration": 0.7245,
      "velocity": 94,
      "chip": "ym2612"
    },
    {
      "channel": 4,
      "note": 50,
      "start": 23.715,
      "duration": 0.7175,
      "velocity": 99,
      "chip": "ym2612"
    },
    {
      "channel": 0,
      "note": 57,
      "start": 24.0739,
      "duration": 1.1433,
      "velocity": 100,
      "chip": "ym2612"
    },
    {
      "channel": 1,
      "note": 54,
      "start": 24.0815,
      "duration": 0.0537,
      "velocity": 99,
      "chip": "ym2612"
    },
    {
      "channel": 2,
      "note": 67,
      "start": 24.0893,
      "duration": 0.0461,
      "velocity": 127,
      "chip": "ym2612"
    },
    {
      "channel": 1,
      "note": 62,
      "start": 24.4739,
      "duration": 0.0454,
      "velocity": 99,
      "chip": "ym2612"
    },
    {
      "channel": 2,
      "note": 42,
      "start": 24.4809,
      "duration": 0.7369,
      "velocity": 99,
      "chip": "ym2612"
    },
    {
      "channel": 3,
      "note": 33,
      "start": 24.4865,
      "duration": 0.7315,
      "velocity": 94,
      "chip": "ym2612"
    },
    {
      "channel": 4,
      "note": 24,
      "start": 24.4939,
      "duration": 0.0259,
      "velocity": 112,
      "chip": "ym2612"
    },
    {
      "channel": 1,
      "note": 24,
      "start": 24.5664,
      "duration": 0.0576,
      "velocity": 112,
      "chip": "ym2612"
    },
    {
      "channel": 1,
      "note": 62,
      "start": 24.6685,
      "duration": 0.0602,
      "velocity": 99,
      "chip": "ym2612"
    },
    {
      "channel": 1,
      "note": 57,
      "start": 24.858,
      "duration": 0.0627,
      "velocity": 99,
      "chip": "ym2612"
    },
    {
      "channel": 4,
      "note": 67,
      "start": 24.8662,
      "duration": 0.055,
      "velocity": 127,
      "chip": "ym2612"
    },
    {
      "channel": 1,
      "note": 67,
      "start": 24.965,
      "duration": 0.0604,
      "velocity": 127,
      "chip": "ym2612"
    },
    {
      "channel": 1,
      "note": 67,
      "start": 25.05,
      "duration": 0.0626,
      "velocity": 127,
      "chip": "ym2612"
    },
    {
      "channel": 1,
      "note": 67,
      "start": 25.1548,
      "duration": 0.0627,
      "velocity": 127,
      "chip": "ym2612"
    },
    {
      "channel": 0,
      "note": 52,
      "start": 25.2633,
      "duration": 0.0587,
      "velocity": 99,
      "chip": "ym2612"
    },
    {
      "channel": 1,
      "note": 24,
      "start": 25.2701,
      "duration": 0.0522,
      "velocity": 112,
      "chip": "ym2612"
    },
    {
      "channel": 2,
      "note": 28,
      "start": 25.2779,
      "duration": 0.7427,
      "velocity": 94,
      "chip": "ym2612"
    },
    {
      "channel": 3,
      "note": 40,
      "start": 25.285,
      "duration": 1.5212,
      "velocity": 99,
      "chip": "ym2612"
    },
    {
      "channel": 4,
      "note": 64,
      "start": 25.2924,
      "duration": 0.1349,
      "velocity": 99,
      "chip": "ym2612"
    },
    {
      "channel": 0,
      "note": 59,
      "start": 25.4704,
      "duration": 0.1484,
      "velocity": 99,
      "chip": "ym2612"
    },
    {
      "channel": 0,
      "note": 67,
      "start": 25.6601,
      "duration": 0.1681,
      "velocity": 99,
      "chip": "ym2612"
    },
    {
      "channel": 1,
      "note": 47,
      "start": 25.6678,
      "duration": 0.0559,
      "velocity": 99,
      "chip": "ym2612"
    },
    {
      "channel": 4,
      "note": 67,
      "start": 25.6759,
      "duration": 0.0482,
      "velocity": 127,
      "chip": "ym2612"
    },
    {
      "channel": 0,
      "note": 62,
      "start": 25.8521,
      "duration": 0.1681,
      "velocity": 99,
      "chip": "ym2612"
    },
    {
      "channel": 0,
      "note": 55,
      "start": 26.0646,
      "duration": 0.0429,
      "velocity": 99,
      "chip": "ym2612"
    },
    {
      "channel": 1,
      "note": 23,
      "start": 26.0722,
      "duration": 0.7337,
      "velocity": 94,
      "chip": "ym2612"
    },
    {
      "channel": 2,
      "note": 24,
      "start": 26.0791,
      "duration": 0.0288,
      "velocity": 112,
      "chip": "ym2612"
    },
    {
      "channel": 0,
      "note": 24,
      "start": 26.1509,
      "duration": 0.0655,
      "velocity": 112,
      "chip": "ym2612"
    },
    {
      "channel": 0,
      "note": 55,
      "start": 26.2567,
      "duration": 0.0602,
      "velocity": 99,
      "chip": "ym2612"
    },
    {
      "channel": 0,
      "note": 50,
      "start": 26.4463,
      "duration": 0.0626,
      "velocity": 99,
      "chip": "ym2612"
    },
    {
      "channel": 2,
      "note": 67,
      "start": 26.4541,
      "duration": 0.0552,
      "velocity": 127,
      "chip": "ym2612"
    },
    {
      "channel": 0,
      "note": 52,
      "start": 26.8477,
      "duration": 0.0454,
      "velocity": 99,
      "chip": "ym2612"
    },
    {
      "channel": 1,
      "note": 24,
      "start": 26.8545,
      "duration": 0.0388,
      "velocity": 112,
      "chip": "ym2612"
    },
    {
      "channel": 2,
      "note": 31,
      "start": 26.8622,
      "duration": 0.7294,
      "velocity": 94,
      "chip": "ym2612"
    },
    {
      "channel": 3,
      "note": 64,
      "start": 26.8671,
      "duration": 0.1354,
      "velocity": 99,
      "chip": "ym2612"
    },
    {
      "channel": 4,
      "note": 43,
      "start": 26.8744,
      "duration": 0.7176,
      "velocity": 99,
      "chip": "ym2612"
    },
    {
      "channel": 0,
      "note": 59,
      "start": 27.0414,
      "duration": 0.1484,
      "velocity": 99,
      "chip": "ym2612"
    },
    {
      "channel": 0,
      "note": 67,
      "start": 27.2311,
      "duration": 0.168,
      "velocity": 99,
      "chip": "ym2612"
    },
    {
      "channel": 1,
      "note": 47,
      "start": 27.2388,
      "duration": 0.0559,
      "velocity": 99,
      "chip": "ym2612"
    },
    {
      "channel": 3,
      "note": 67,
      "start": 27.2467,
      "duration": 0.0483,
      "velocity": 127,
      "chip": "ym2612"
    },
    {
      "channel": 0,
      "note": 67,
      "start": 27.4261,
      "duration": 0.0604,
      "velocity": 127,
      "chip": "ym2612"
    },
    {
      "channel": 1,
      "note": 62,
      "start": 27.4329,
      "duration": 0.1585,
      "velocity": 99,
      "chip": "ym2612"
    },
    {
      "channel": 0,
      "note": 67,
      "start": 27.5286,
      "duration": 0.0626,
      "velocity": 127,
      "chip": "ym2612"
    },
    {
      "channel": 0,
      "note": 55,
      "start": 27.6355,
      "duration": 0.043,
      "velocity": 99,
      "chip": "ym2612"
    },
    {
      "channel": 1,
      "note": 40,
      "start": 27.6401,
      "duration": 0.1433,
      "velocity": 99,
      "chip": "ym2612"
    },
    {
      "channel": 2,
      "note": 26,
      "start": 27.6455,
      "duration": 0.7316,
      "velocity": 94,
      "chip": "ym2612"
    },
    {
      "channel": 3,
      "note": 24,
      "start": 27.6526,
      "duration": 0.0264,
      "velocity": 112,
      "chip": "ym2612"
    },
    {
      "channel": 0,
      "note": 24,
      "start": 27.722,
      "duration": 0.0611,
      "velocity": 112,
      "chip": "ym2612"
    },
    {
      "channel": 0,
      "note": 38,
      "start": 27.827,
      "duration": 0.1483,
      "velocity": 99,
      "chip": "ym2612"
    },
    {
      "channel": 1,
      "note": 55,
      "start": 27.8346,
      "duration": 0.0535,
      "velocity": 99,
      "chip": "ym2612"
    },
    {
      "channel": 0,
      "note": 50,
      "start": 28.0218,
      "duration": 0.0581,
      "velocity": 99,
      "chip": "ym2612"
    },
    {
      "channel": 1,
      "note": 35,
      "start": 28.0286,
      "duration": 0.3483,
      "velocity": 99,
      "chip": "ym2612"
    },
    {
      "channel": 3,
      "note": 67,
      "start": 28.0366,
      "duration": 0.0438,
      "velocity": 127,
      "chip": "ym2612"
    },
    {
      "channel": 0,
      "note": 67,
      "start": 28.2117,
      "duration": 0.0604,
      "velocity": 127,
      "chip": "ym2612"
    },
    {
      "channel": 0,
      "note": 67,
      "start": 28.3141,
      "duration": 0.0626,
      "velocity": 127,
      "chip": "ym2612"
    },
    {
      "channel": 0,
      "note": 40,
      "start": 28.4207,
      "duration": 1.5444,
      "velocity": 99,
      "chip": "ym2612"
    },
    {
      "channel": 1,
      "note": 52,
      "start": 28.4283,
      "duration": 0.0533,
      "velocity": 99,
      "chip": "ym2612"
    },
    {
      "channel": 2,
      "note": 24,
      "start": 28.4353,
      "duration": 0.0466,
      "velocity": 112,
      "chip": "ym2612"
    },
    {
      "channel": 3,
      "note": 28,
      "start": 28.4432,
      "duration": 0.7369,
      "velocity": 94,
      "chip": "ym2612"
    },
    {
      "channel": 4,
      "note": 64,
      "start": 28.4483,
      "duration": 0.1386,
      "velocity": 99,
      "chip": "ym2612"
    },
    {
      "channel": 1,
      "note": 59,
      "start": 28.6299,
      "duration": 0.1485,
      "velocity": 99,
      "chip": "ym2612"
    },
    {
      "channel": 1,
      "note": 67,
      "start": 28.8198,
      "duration": 0.168,
      "velocity": 99,
      "chip": "ym2612"
    },
    {
      "channel": 2,
      "note": 47,
      "start": 28.8275,
      "duration": 0.0575,
      "velocity": 99,
      "chip": "ym2612"
    },
    {
      "channel": 4,
      "note": 67,
      "start": 28.8356,
      "duration": 0.0498,
      "velocity": 127,
      "chip": "ym2612"
    },
    {
      "channel": 1,
      "note": 62,
      "start": 29.0117,
      "duration": 0.1681,
      "velocity": 99,
      "chip": "ym2612"
    },
    {
      "channel": 1,
      "note": 52,
      "start": 29.2239,
      "duration": 0.148,
      "velocity": 100,
      "chip": "ym2612"
    },
    {
      "channel": 2,
      "note": 55,
      "start": 29.2294,
      "duration": 0.0378,
      "velocity": 99,
      "chip": "ym2612"
    },
    {
      "channel": 3,
      "note": 23,
      "start": 29.2349,
      "duration": 0.7307,
      "velocity": 94,
      "chip": "ym2612"
    },
    {
      "channel": 4,
      "note": 24,
      "start": 29.2424,
      "duration": 0.0253,
      "velocity": 112,
      "chip": "ym2612"
    },
    {
      "channel": 2,
      "note": 24,
      "start": 29.3108,
      "duration": 0.0613,
      "velocity": 112,
      "chip": "ym2612"
    },
    {
      "channel": 1,
      "note": 55,
      "start": 29.4163,
      "duration": 0.0602,
      "velocity": 99,
      "chip": "ym2612"
    },
    {
      "channel": 2,
      "note": 50,
      "start": 29.4232,
      "duration": 0.1408,
      "velocity": 100,
      "chip": "ym2612"
    },
    {
      "channel": 1,
      "note": 52,
      "start": 29.6077,
      "duration": 0.1656,
      "velocity": 100,
      "chip": "ym2612"
    },
    {
      "channel": 2,
      "note": 50,
      "start": 29.6155,
      "duration": 0.0531,
      "velocity": 99,
      "chip": "ym2612"
    },
    {
      "channel": 4,
      "note": 67,
      "start": 29.6237,
      "duration": 0.0454,
      "velocity": 127,
      "chip": "ym2612"
    },
    {
      "channel": 0,
      "note": 52,
      "start": 30.0096,
      "duration": 0.0428,
      "velocity": 99,
      "chip": "ym2612"
    },
    {
      "channel": 1,
      "note": 55,
      "start": 30.0142,
      "duration": 0.1432,
      "velocity": 100,
      "chip": "ym2612"
    },
    {
      "channel": 2,
      "note": 24,
      "start": 30.0211,
      "duration": 0.0317,
      "velocity": 112,
      "chip": "ym2612"
    },
    {
      "channel": 3,
      "note": 31,
      "start": 30.0267,
      "duration": 0.7244,
      "velocity": 94,
      "chip": "ym2612"
    },
    {
      "channel": 4,
      "note": 43,
      "start": 30.034,
      "duration": 0.7174,
      "velocity": 99,
      "chip": "ym2612"
    },
    {
      "channel": 0,
      "note": 50,
      "start": 30.3952,
      "duration": 1.144,
      "velocity": 100,
      "chip": "ym2612"
    },
    {
      "channel": 1,
      "note": 47,
      "start": 30.4029,
      "duration": 0.0511,
      "velocity": 99,
      "chip": "ym2612"
    },
    {
      "channel": 2,
      "note": 67,
      "start": 30.4106,
      "duration": 0.0436,
      "velocity": 127,
      "chip": "ym2612"
    },
    {
      "channel": 1,
      "note": 55,
      "start": 30.7929,
      "duration": 0.0452,
      "velocity": 99,
      "chip": "ym2612"
    },
    {
      "channel": 2,
      "note": 35,
      "start": 30.7998,
      "duration": 0.7398,
      "velocity": 99,
      "chip": "ym2612"
    },
    {
      "channel": 3,
      "note": 26,
      "start": 30.8054,
      "duration": 0.7345,
      "velocity": 94,
      "chip": "ym2612"
    },
    {
      "channel": 4,
      "note": 24,
      "start": 30.8127,
      "duration": 0.0259,
      "velocity": 112,
      "chip": "ym2612"
    },
    {
      "channel": 1,
      "note": 24,
      "start": 30.8816,
      "duration": 0.0613,
      "velocity": 112,
      "chip": "ym2612"
    },
    {
      "channel": 1,
      "note": 55,
      "start": 30.9872,
      "duration": 0.0603,
      "velocity": 99,
      "chip": "ym2612"
    },
    {
      "channel": 1,
      "note": 50,
      "start": 31.1769,
      "duration": 0.0626,
      "velocity": 99,
      "chip": "ym2612"
    },
    {
      "channel": 4,
      "note": 67,
      "start": 31.185,
      "duration": 0.055,
      "velocity": 127,
      "chip": "ym2612"
    },
    {
      "channel": 1,
      "note": 67,
      "start": 31.284,
      "duration": 0.0603,
      "velocity": 127,
      "chip": "ym2612"
    },
    {
      "channel": 1,
      "note": 67,
      "start": 31.3688,
      "duration": 0.0627,
      "velocity": 127,
      "chip": "ym2612"
    },
    {
      "channel": 1,
      "note": 67,
      "start": 31.4737,
      "duration": 0.0658,
      "velocity": 127,
      "chip": "ym2612"
    },
    {
      "channel": 0,
      "note": 57,
      "start": 31.5822,
      "duration": 0.0587,
      "velocity": 99,
      "chip": "ym2612"
    },
    {
      "channel": 1,
      "note": 24,
      "start": 31.589,
      "duration": 0.0522,
      "velocity": 112,
      "chip": "ym2612"
    },
    {
      "channel": 2,
      "note": 33,
      "start": 31.5967,
      "duration": 0.7427,
      "velocity": 94,
      "chip": "ym2612"
    },
    {
      "channel": 3,
      "note": 45,
      "start": 31.6038,
      "duration": 1.5212,
      "velocity": 99,
      "chip": "ym2612"
    },
    {
      "channel": 4,
      "note": 69,
      "start": 31.6112,
      "duration": 0.1351,
      "velocity": 99,
      "chip": "ym2612"
    },
    {
      "channel": 0,
      "note": 64,
      "start": 31.7892,
      "duration": 0.1485,
      "velocity": 99,
      "chip": "ym2612"
    },
    {
      "channel": 0,
      "note": 72,
      "start": 31.979,
      "duration": 0.1681,
      "velocity": 99,
      "chip": "ym2612"
    },
    {
      "channel": 1,
      "note": 52,
      "start": 31.9866,
      "duration": 0.0599,
      "velocity": 99,
      "chip": "ym2612"
    },
    {
      "channel": 4,
      "note": 67,
      "start": 31.9947,
      "duration": 0.0523,
      "velocity": 127,
      "chip": "ym2612"
    },
    {
      "channel": 0,
      "note": 67,
      "start": 32.171,
      "duration": 0.1681,
      "velocity": 99,
      "chip": "ym2612"
    },
    {
      "channel": 0,
      "note": 60,
      "start": 32.3834,
      "duration": 0.043,
      "velocity": 99,
      "chip": "ym2612"
    },
    {
      "channel": 1,
      "note": 28,
      "start": 32.391,
      "duration": 0.7337,
      "velocity": 94,
      "chip": "ym2612"
    },
    {
      "channel": 2,
      "note": 24,
      "start": 32.398,
      "duration": 0.0288,
      "velocity": 112,
      "chip": "ym2612"
    },
    {
      "channel": 0,
      "note": 24,
      "start": 32.4699,
      "duration": 0.0611,
      "velocity": 112,
      "chip": "ym2612"
    },
    {
      "channel": 0,
      "note": 60,
      "start": 32.5755,
      "duration": 0.0603,
      "velocity": 99,
      "chip": "ym2612"
    },
    {
      "channel": 0,
      "note": 55,
      "start": 32.7652,
      "duration": 0.0626,
      "velocity": 99,
      "chip": "ym2612"
    },
    {
      "channel": 2,
      "note": 67,
      "start": 32.7729,
      "duration": 0.0552,
      "velocity": 127,
      "chip": "ym2612"
    },
    {
      "channel": 0,
      "note": 57,
      "start": 33.1666,
      "duration": 0.0628,
      "velocity": 99,
      "chip": "ym2612"
    },
    {
      "channel": 1,
      "note": 24,
      "start": 33.1733,
      "duration": 0.0562,
      "velocity": 112,
      "chip": "ym2612"
    },
    {
      "channel": 2,
      "note": 36,
      "start": 33.1811,
      "duration": 0.7469,
      "velocity": 94,
      "chip": "ym2612"
    },
    {
      "channel": 3,
      "note": 69,
      "start": 33.186,
      "duration": 0.1522,
      "velocity": 99,
      "chip": "ym2612"
    },
    {
      "channel": 4,
      "note": 48,
      "start": 33.1935,
      "duration": 0.7349,
      "velocity": 99,
      "chip": "ym2612"
    },
    {
      "channel": 0,
      "note": 64,
      "start": 33.3776,
      "duration": 0.1485,
      "velocity": 99,
      "chip": "ym2612"
    },
    {
      "channel": 0,
      "note": 72,
      "start": 33.5674,
      "duration": 0.1681,
      "velocity": 99,
      "chip": "ym2612"
    },
    {
      "channel": 1,
      "note": 52,
      "start": 33.575,
      "duration": 0.0559,
      "velocity": 99,
      "chip": "ym2612"
    },
    {
      "channel": 3,
      "note": 67,
      "start": 33.583,
      "duration": 0.0483,
      "velocity": 127,
      "chip": "ym2612"
    },
    {
      "channel": 0,
      "note": 67,
      "start": 33.7624,
      "duration": 0.0604,
      "velocity": 127,
      "chip": "ym2612"
    },
    {
      "channel": 1,
      "note": 67,
      "start": 33.7692,
      "duration": 0.1585,
      "velocity": 99,
      "chip": "ym2612"
    },
    {
      "channel": 0,
      "note": 67,
      "start": 33.8649,
      "duration": 0.0626,
      "velocity": 127,
      "chip": "ym2612"
    },
    {
      "channel": 0,
      "note": 60,
      "start": 33.9718,
      "duration": 0.043,
      "velocity": 99,
      "chip": "ym2612"
    },
    {
      "channel": 1,
      "note": 45,
      "start": 33.9764,
      "duration": 0.1434,
      "velocity": 99,
      "chip": "ym2612"
    },
    {
      "channel": 2,
      "note": 31,
      "start": 33.9818,
      "duration": 0.7316,
      "velocity": 94,
      "chip": "ym2612"
    },
    {
      "channel": 3,
      "note": 24,
      "start": 33.989,
      "duration": 0.0264,
      "velocity": 112,
      "chip": "ym2612"
    },
    {
      "channel": 0,
      "note": 24,
      "start": 34.0585,
      "duration": 0.0611,
      "velocity": 112,
      "chip": "ym2612"
    },
    {
      "channel": 0,
      "note": 43,
      "start": 34.1631,
      "duration": 0.1485,
      "velocity": 99,
      "chip": "ym2612"
    },
    {
      "channel": 1,
      "note": 60,
      "start": 34.1707,
      "duration": 0.0536,
      "velocity": 99,
      "chip": "ym2612"
    },
    {
      "channel": 0,
      "note": 55,
      "start": 34.3593,
      "duration": 0.0569,
      "velocity": 99,
      "chip": "ym2612"
    },
    {
      "channel": 1,
      "note": 40,
      "start": 34.3661,
      "duration": 0.3471,
      "velocity": 99,
      "chip": "ym2612"
    },
    {
      "channel": 3,
      "note": 67,
      "start": 34.3741,
      "duration": 0.0427,
      "velocity": 127,
      "chip": "ym2612"
    },
    {
      "channel": 0,
      "note": 67,
      "start": 34.5479,
      "duration": 0.0604,
      "velocity": 127,
      "chip": "ym2612"
    },
    {
      "channel": 0,
      "note": 67,
      "start": 34.6503,
      "duration": 0.0626,
      "velocity": 127,
      "chip": "ym2612"
    },
    {
      "channel": 0,
      "note": 45,
      "start": 34.757,
      "duration": 1.5444,
      "velocity": 99,
      "chip": "ym2612"
    },
    {
      "channel": 1,
      "note": 45,
      "start": 34.7646,
      "duration": 0.0533,
      "velocity": 99,
      "chip": "ym2612"
    },
    {
      "channel": 2,
      "note": 24,
      "start": 34.7715,
      "duration": 0.0466,
      "velocity": 112,
      "chip": "ym2612"
    },
    {
      "channel": 3,
      "note": 33,
      "start": 34.7795,
      "duration": 0.7369,
      "velocity": 94,
      "chip": "ym2612"
    },
    {
      "channel": 4,
      "note": 69,
      "start": 34.7846,
      "duration": 0.1387,
      "velocity": 99,
      "chip": "ym2612"
    },
    {
      "channel": 1,
      "note": 64,
      "start": 34.9662,
      "duration": 0.1484,
      "velocity": 99,
      "chip": "ym2612"
    },
    {
      "channel": 1,
      "note": 72,
      "start": 35.156,
      "duration": 0.168,
      "velocity": 99,
      "chip": "ym2612"
    },
    {
      "channel": 2,
      "note": 40,
      "start": 35.1638,
      "duration": 0.0559,
      "velocity": 99,
      "chip": "ym2612"
    },
    {
      "channel": 4,
      "note": 67,
      "start": 35.1719,
      "duration": 0.0481,
      "velocity": 127,
      "chip": "ym2612"
    },
    {
      "channel": 1,
      "note": 67,
      "start": 35.348,
      "duration": 0.1681,
      "velocity": 99,
      "chip": "ym2612"
    },
    {
      "channel": 1,
      "note": 57,
      "start": 35.5605,
      "duration": 0.1477,
      "velocity": 100,
      "chip": "ym2612"
    },
    {
      "channel": 2,
      "note": 48,
      "start": 35.5659,
      "duration": 0.0377,
      "velocity": 99,
      "chip": "ym2612"
    },
    {
      "channel": 3,
      "note": 28,
      "start": 35.5715,
      "duration": 0.7304,
      "velocity": 94,
      "chip": "ym2612"
    },
    {
      "channel": 4,
      "note": 24,
      "start": 35.5787,
      "duration": 0.0253,
      "velocity": 112,
      "chip": "ym2612"
    },
    {
      "channel": 2,
      "note": 24,
      "start": 35.6471,
      "duration": 0.0613,
      "velocity": 112,
      "chip": "ym2612"
    },
    {
      "channel": 1,
      "note": 48,
      "start": 35.7526,
      "duration": 0.0602,
      "velocity": 99,
      "chip": "ym2612"
    },
    {
      "channel": 2,
      "note": 55,
      "start": 35.7597,
      "duration": 0.1407,
      "velocity": 100,
      "chip": "ym2612"
    },
    {
      "channel": 1,
      "note": 57,
      "start": 35.9439,
      "duration": 0.1657,
      "velocity": 100,
      "chip": "ym2612"
    },
    {
      "channel": 2,
      "note": 43,
      "start": 35.9517,
      "duration": 0.0533,
      "velocity": 99,
      "chip": "ym2612"
    },
    {
      "channel": 4,
      "note": 67,
      "start": 35.9598,
      "duration": 0.0456,
      "velocity": 127,
      "chip": "ym2612"
    },
    {
      "channel": 0,
      "note": 45,
      "start": 36.3459,
      "duration": 0.0428,
      "velocity": 99,
      "chip": "ym2612"
    },
    {
      "channel": 1,
      "note": 60,
      "start": 36.3505,
      "duration": 0.1432,
      "velocity": 100,
      "chip": "ym2612"
    },
    {
      "channel": 2,
      "note": 24,
      "start": 36.3574,
      "duration": 0.0317,
      "velocity": 112,
      "chip": "ym2612"
    },
    {
      "channel": 3,
      "note": 36,
      "start": 36.363,
      "duration": 0.7244,
      "velocity": 94,
      "chip": "ym2612"
    },
    {
      "channel": 4,
      "note": 48,
      "start": 36.3703,
      "duration": 0.7173,
      "velocity": 99,
      "chip": "ym2612"
    },
    {
      "channel": 0,
      "note": 55,
      "start": 36.7316,
      "duration": 1.1407,
      "velocity": 100,
      "chip": "ym2612"
    },
    {
      "channel": 1,
      "note": 40,
      "start": 36.7391,
      "duration": 0.0513,
      "velocity": 99,
      "chip": "ym2612"
    },
    {
      "channel": 2,
      "note": 67,
      "start": 36.747,
      "duration": 0.0437,
      "velocity": 127,
      "chip": "ym2612"
    },
    {
      "channel": 1,
      "note": 48,
      "start": 37.1292,
      "duration": 0.0451,
      "velocity": 99,
      "chip": "ym2612"
    },
    {
      "channel": 2,
      "note": 40,
      "start": 37.1361,
      "duration": 0.7366,
      "velocity": 99,
      "chip": "ym2612"
    },
    {
      "channel": 3,
      "note": 24,
      "start": 37.1417,
      "duration": 0.7312,
      "velocity": 94,
      "chip": "ym2612"
    },
    {
      "channel": 4,
      "note": 24,
      "start": 37.149,
      "duration": 0.0259,
      "velocity": 112,
      "chip": "ym2612"
    },
    {
      "channel": 1,
      "note": 24,
      "start": 37.2179,
      "duration": 0.0613,
      "velocity": 112,
      "chip": "ym2612"
    },
    {
      "channel": 1,
      "note": 48,
      "start": 37.3236,
      "duration": 0.0602,
      "velocity": 99,
      "chip": "ym2612"
    },
    {
      "channel": 1,
      "note": 67,
      "start": 37.5155,
      "duration": 0.0602,
      "velocity": 127,
      "chip": "ym2612"
    },
    {
      "channel": 1,
      "note": 67,
      "start": 37.618,
      "duration": 0.0626,
      "velocity": 127,
      "chip": "ym2612"
    },
    {
      "channel": 1,
      "note": 67,
      "start": 37.7051,
      "duration": 0.0628,
      "velocity": 127,
      "chip": "ym2612"
    },
    {
      "channel": 1,
      "note": 67,
      "start": 37.8099,
      "duration": 0.0626,
      "velocity": 127,
      "chip": "ym2612"
    },
    {
      "channel": 0,
      "note": 45,
      "start": 37.9179,
      "duration": 0.1641,
      "velocity": 99,
      "chip": "ym2612"
    },
    {
      "channel": 1,
      "note": 24,
      "start": 37.9247,
      "duration": 0.0526,
      "velocity": 112,
      "chip": "ym2612"
    },
    {
      "channel": 2,
      "note": 21,
      "start": 37.9325,
      "duration": 1.5288,
      "velocity": 94,
      "chip": "ym2612"
    },
    {
      "channel": 3,
      "note": 33,
      "start": 37.9396,
      "duration": 1.5219,
      "velocity": 99,
      "chip": "ym2612"
    },
    {
      "channel": 4,
      "note": 57,
      "start": 37.9468,
      "duration": 0.1357,
      "velocity": 100,
      "chip": "ym2612"
    },
    {
      "channel": 0,
      "note": 55,
      "start": 38.1256,
      "duration": 0.1483,
      "velocity": 100,
      "chip": "ym2612"
    },
    {
      "channel": 0,
      "note": 57,
      "start": 38.3152,
      "duration": 0.1681,
      "velocity": 100,
      "chip": "ym2612"
    },
    {
      "channel": 1,
      "note": 40,
      "start": 38.3229,
      "duration": 0.248,
      "velocity": 99,
      "chip": "ym2612"
    },
    {
      "channel": 4,
      "note": 67,
      "start": 38.331,
      "duration": 0.0523,
      "velocity": 127,
      "chip": "ym2612"
    },
    {
      "channel": 0,
      "note": 48,
      "start": 38.7198,
      "duration": 0.1477,
      "velocity": 99,
      "chip": "ym2612"
    },
    {
      "channel": 1,
      "note": 60,
      "start": 38.7267,
      "duration": 0.1409,
      "velocity": 100,
      "chip": "ym2612"
    },
    {
      "channel": 4,
      "note": 24,
      "start": 38.7341,
      "duration": 0.0293,
      "velocity": 112,
      "chip": "ym2612"
    },
    {
      "channel": 4,
      "note": 24,
      "start": 38.8047,
      "duration": 0.0635,
      "velocity": 112,
      "chip": "ym2612"
    },
    {
      "channel": 0,
      "note": 45,
      "start": 38.9094,
      "duration": 0.1499,
      "velocity": 99,
      "chip": "ym2612"
    },
    {
      "channel": 0,
      "note": 43,
      "start": 39.1014,
      "duration": 0.3593,
      "velocity": 99,
      "chip": "ym2612"
    },
    {
      "channel": 1,
      "note": 55,
      "start": 39.106,
      "duration": 0.355,
      "velocity": 100,
      "chip": "ym2612"
    },
    {
      "channel": 4,
      "note": 67,
      "start": 39.1141,
      "duration": 0.0526,
      "velocity": 127,
      "chip": "ym2612"
    },
    {
      "channel": 0,
      "note": 57,
      "start": 39.5045,
      "duration": 0.1659,
      "velocity": 100,
      "chip": "ym2612"
    },
    {
      "channel": 1,
      "note": 45,
      "start": 39.5121,
      "duration": 0.3505,
      "velocity": 99,
      "chip": "ym2612"
    },
    {
      "channel": 2,
      "note": 24,
      "start": 39.519,
      "duration": 0.0469,
      "velocity": 112,
      "chip": "ym2612"
    },
    {
      "channel": 3,
      "note": 36,
      "start": 39.5239,
      "duration": 0.7405,
      "velocity": 99,
      "chip": "ym2612"
    },
    {
      "channel": 4,
      "note": 33,
      "start": 39.5321,
      "duration": 1.5183,
      "velocity": 94,
      "chip": "ym2612"
    },
    {
      "channel": 0,
      "note": 60,
      "start": 39.7117,
      "duration": 0.1506,
      "velocity": 100,
      "chip": "ym2612"
    },
    {
      "channel": 0,
      "note": 57,
      "start": 39.9037,
      "duration": 0.1681,
      "velocity": 100,
      "chip": "ym2612"
    },
    {
      "channel": 1,
      "note": 45,
      "start": 39.9089,
      "duration": 0.3552,
      "velocity": 99,
      "chip": "ym2612"
    },
    {
      "channel": 2,
      "note": 67,
      "start": 39.9167,
      "duration": 0.0508,
      "velocity": 127,
      "chip": "ym2612"
    },
    {
      "channel": 0,
      "note": 67,
      "start": 40.0987,
      "duration": 0.0604,
      "velocity": 127,
      "chip": "ym2612"
    },
    {
      "channel": 0,
      "note": 67,
      "start": 40.2011,
      "duration": 0.0628,
      "velocity": 127,
      "chip": "ym2612"
    },
    {
      "channel": 0,
      "note": 45,
      "start": 40.3082,
      "duration": 0.1507,
      "velocity": 99,
      "chip": "ym2612"
    },
    {
      "channel": 1,
      "note": 55,
      "start": 40.315,
      "duration": 0.1441,
      "velocity": 100,
      "chip": "ym2612"
    },
    {
      "channel": 2,
      "note": 28,
      "start": 40.322,
      "duration": 0.7278,
      "velocity": 99,
      "chip": "ym2612"
    },
    {
      "channel": 3,
      "note": 24,
      "start": 40.3291,
      "duration": 0.0224,
      "velocity": 112,
      "chip": "ym2612"
    },
    {
      "channel": 3,
      "note": 24,
      "start": 40.3949,
      "duration": 0.0646,
      "velocity": 112,
      "chip": "ym2612"
    },
    {
      "channel": 0,
      "note": 52,
      "start": 40.4994,
      "duration": 0.1485,
      "velocity": 100,
      "chip": "ym2612"
    },
    {
      "channel": 1,
      "note": 43,
      "start": 40.507,
      "duration": 0.141,
      "velocity": 99,
      "chip": "ym2612"
    },
    {
      "channel": 0,
      "note": 45,
      "start": 40.6922,
      "duration": 0.165,
      "velocity": 99,
      "chip": "ym2612"
    },
    {
      "channel": 1,
      "note": 48,
      "start": 40.6989,
      "duration": 0.1585,
      "velocity": 100,
      "chip": "ym2612"
    },
    {
      "channel": 3,
      "note": 67,
      "start": 40.7069,
      "duration": 0.046,
      "velocity": 127,
      "chip": "ym2612"
    },
    {
      "channel": 0,
      "note": 67,
      "start": 40.8842,
      "duration": 0.0604,
      "velocity": 127,
      "chip": "ym2612"
    },
    {
      "channel": 1,
      "note": 43,
      "start": 40.8887,
      "duration": 0.1609,
      "velocity": 100,
      "chip": "ym2612"
    },
    {
      "channel": 3,
      "note": 52,
      "start": 40.8967,
      "duration": 0.1534,
      "velocity": 99,
      "chip": "ym2612"
    },
    {
      "channel": 0,
      "note": 67,
      "start": 40.9866,
      "duration": 0.0628,
      "velocity": 127,
      "chip": "ym2612"
    },
    {
      "channel": 0,
      "note": 45,
      "start": 41.0954,
      "duration": 0.1634,
      "velocity": 99,
      "chip": "ym2612"
    },
    {
      "channel": 1,
      "note": 45,
      "start": 41.1,
      "duration": 0.159,
      "velocity": 100,
      "chip": "ym2612"
    },
    {
      "channel": 2,
      "note": 24,
      "start": 41.107,
      "duration": 0.0474,
      "velocity": 112,
      "chip": "ym2612"
    },
    {
      "channel": 3,
      "note": 52,
      "start": 41.1141,
      "duration": 0.7388,
      "velocity": 86,
      "chip": "ym2612"
    },
    {
      "channel": 4,
      "note": 33,
      "start": 41.1213,
      "duration": 1.5173,
      "velocity": 95,
      "chip": "ym2612"
    },
    {
      "channel": 0,
      "note": 48,
      "start": 41.3023,
      "duration": 0.1484,
      "velocity": 100,
      "chip": "ym2612"
    },
    {
      "channel": 1,
      "note": 48,
      "start": 41.31,
      "duration": 0.141,
      "velocity": 99,
      "chip": "ym2612"
    },
    {
      "channel": 0,
      "note": 45,
      "start": 41.4951,
      "duration": 0.1652,
      "velocity": 99,
      "chip": "ym2612"
    },
    {
      "channel": 1,
      "note": 45,
      "start": 41.5019,
      "duration": 0.1587,
      "velocity": 100,
      "chip": "ym2612"
    },
    {
      "channel": 2,
      "note": 67,
      "start": 41.5097,
      "duration": 0.0462,
      "velocity": 127,
      "chip": "ym2612"
    },
    {
      "channel": 0,
      "note": 52,
      "start": 41.6864,
      "duration": 0.1659,
      "velocity": 100,
      "chip": "ym2612"
    },
    {
      "channel": 1,
      "note": 52,
      "start": 41.694,
      "duration": 0.1585,
      "velocity": 99,
      "chip": "ym2612"
    },
    {
      "channel": 0,
      "note": 45,
      "start": 41.8966,
      "duration": 0.1476,
      "velocity": 99,
      "chip": "ym2612"
    },
    {
      "channel": 1,
      "note": 45,
      "start": 41.9034,
      "duration": 0.141,
      "velocity": 100,
      "chip": "ym2612"
    },
    {
      "channel": 2,
      "note": 52,
      "start": 41.9106,
      "duration": 0.7277,
      "velocity": 86,
      "chip": "ym2612"
    },
    {
      "channel": 3,
      "note": 24,
      "start": 41.9176,
      "duration": 0.0223,
      "velocity": 112,
      "chip": "ym2612"
    },
    {
      "channel": 3,
      "note": 24,
      "start": 41.9815,
      "duration": 0.0634,
      "velocity": 112,
      "chip": "ym2612"
    },
    {
      "channel": 0,
      "note": 43,
      "start": 42.0878,
      "duration": 0.1484,
      "velocity": 100,
      "chip": "ym2612"
    },
    {
      "channel": 1,
      "note": 43,
      "start": 42.0954,
      "duration": 0.141,
      "velocity": 99,
      "chip": "ym2612"
    },
    {
      "channel": 0,
      "note": 45,
      "start": 42.2806,
      "duration": 0.165,
      "velocity": 99,
      "chip": "ym2612"
    },
    {
      "channel": 1,
      "note": 45,
      "start": 42.2874,
      "duration": 0.1585,
      "velocity": 100,
      "chip": "ym2612"
    },
    {
      "channel": 3,
      "note": 67,
      "start": 42.2953,
      "duration": 0.0463,
      "velocity": 127,
      "chip": "ym2612"
    },
    {
      "channel": 0,
      "note": 52,
      "start": 42.4719,
      "duration": 0.1659,
      "velocity": 100,
      "chip": "ym2612"
    },
    {
      "channel": 1,
      "note": 52,
      "start": 42.4795,
      "duration": 0.1585,
      "velocity": 99,
      "chip": "ym2612"
    },
    {
      "channel": 0,
      "note": 45,
      "start": 42.6822,
      "duration": 0.1691,
      "velocity": 99,
      "chip": "ym2612"
    },
    {
      "channel": 1,
      "note": 45,
      "start": 42.689,
      "duration": 0.1625,
      "velocity": 100,
      "chip": "ym2612"
    },
    {
      "channel": 2,
      "note": 24,
      "start": 42.6959,
      "duration": 0.0469,
      "velocity": 112,
      "chip": "ym2612"
    },
    {
      "channel": 3,
      "note": 55,
      "start": 42.7029,
      "duration": 0.3368,
      "velocity": 86,
      "chip": "ym2612"
    },
    {
      "channel": 4,
      "note": 45,
      "start": 42.708,
      "duration": 1.5192,
      "velocity": 95,
      "chip": "ym2612"
    },
    {
      "channel": 0,
      "note": 48,
      "start": 42.8907,
      "duration": 0.1485,
      "velocity": 100,
      "chip": "ym2612"
    },
    {
      "channel": 1,
      "note": 48,
      "start": 42.8983,
      "duration": 0.1411,
      "velocity": 99,
      "chip": "ym2612"
    },
    {
      "channel": 0,
      "note": 45,
      "start": 43.0837,
      "duration": 0.165,
      "velocity": 99,
      "chip": "ym2612"
    },
    {
      "channel": 1,
      "note": 45,
      "start": 43.0905,
      "duration": 0.1585,
      "velocity": 100,
      "chip": "ym2612"
    },
    {
      "channel": 2,
      "note": 52,
      "start": 43.0974,
      "duration": 0.3438,
      "velocity": 86,
      "chip": "ym2612"
    },
    {
      "channel": 3,
      "note": 67,
      "start": 43.1054,
      "duration": 0.0401,
      "velocity": 127,
      "chip": "ym2612"
    },
    {
      "channel": 0,
      "note": 52,
      "start": 43.2748,
      "duration": 0.1659,
      "velocity": 100,
      "chip": "ym2612"
    },
    {
      "channel": 1,
      "note": 52,
      "start": 43.2825,
      "duration": 0.1585,
      "velocity": 99,
      "chip": "ym2612"
    },
    {
      "channel": 0,
      "note": 45,
      "start": 43.4851,
      "duration": 0.1476,
      "velocity": 99,
      "chip": "ym2612"
    },
    {
      "channel": 1,
      "note": 45,
      "start": 43.492,
      "duration": 0.1409,
      "velocity": 100,
      "chip": "ym2612"
    },
    {
      "channel": 2,
      "note": 48,
      "start": 43.4968,
      "duration": 0.3284,
      "velocity": 86,
      "chip": "ym2612"
    },
    {
      "channel": 3,
      "note": 24,
      "start": 43.5039,
      "duration": 0.0245,
      "velocity": 112,
      "chip": "ym2612"
    },
    {
      "channel": 3,
      "note": 24,
      "start": 43.5699,
      "duration": 0.0634,
      "velocity": 112,
      "chip": "ym2612"
    },
    {
      "channel": 0,
      "note": 43,
      "start": 43.6766,
      "duration": 0.1481,
      "velocity": 100,
      "chip": "ym2612"
    },
    {
      "channel": 1,
      "note": 43,
      "start": 43.6842,
      "duration": 0.1407,
      "velocity": 99,
      "chip": "ym2612"
    },
    {
      "channel": 0,
      "note": 45,
      "start": 43.869,
      "duration": 0.1652,
      "velocity": 99,
      "chip": "ym2612"
    },
    {
      "channel": 1,
      "note": 45,
      "start": 43.876,
      "duration": 0.1585,
      "velocity": 100,
      "chip": "ym2612"
    },
    {
      "channel": 2,
      "note": 52,
      "start": 43.8807,
      "duration": 0.346,
      "velocity": 86,
      "chip": "ym2612"
    },
    {
      "channel": 3,
      "note": 67,
      "start": 43.8887,
      "duration": 0.0413,
      "velocity": 127,
      "chip": "ym2612"
    },
    {
      "channel": 3,
      "note": 67,
      "start": 43.972,
      "duration": 0.0629,
      "velocity": 127,
      "chip": "ym2612"
    },
    {
      "channel": 0,
      "note": 67,
      "start": 44.0612,
      "duration": 0.0602,
      "velocity": 127,
      "chip": "ym2612"
    },
    {
      "channel": 1,
      "note": 52,
      "start": 44.0657,
      "duration": 0.1607,
      "velocity": 100,
      "chip": "ym2612"
    },
    {
      "channel": 3,
      "note": 52,
      "start": 44.0737,
      "duration": 0.1533,
      "velocity": 99,
      "chip": "ym2612"
    },
    {
      "channel": 0,
      "note": 67,
      "start": 44.167,
      "duration": 0.0592,
      "velocity": 127,
      "chip": "ym2612"
    },
    {
      "channel": 0,
      "note": 57,
      "start": 44.2719,
      "duration": 0.1637,
      "velocity": 100,
      "chip": "ym2612"
    },
    {
      "channel": 1,
      "note": 52,
      "start": 44.2787,
      "duration": 0.7507,
      "velocity": 86,
      "chip": "ym2612"
    },
    {
      "channel": 2,
      "note": 24,
      "start": 44.2856,
      "duration": 0.0456,
      "velocity": 112,
      "chip": "ym2612"
    },
    {
      "channel": 3,
      "note": 33,
      "start": 44.2929,
      "duration": 1.5223,
      "velocity": 96,
      "chip": "ym2612"
    },
    {
      "channel": 4,
      "note": 84,
      "start": 44.3002,
      "duration": 1.5153,
      "velocity": 90,
      "chip": "ym2612"
    },
    {
      "channel": 0,
      "note": 60,
      "start": 44.4769,
      "duration": 0.1507,
      "velocity": 100,
      "chip": "ym2612"
    },
    {
      "channel": 0,
      "note": 57,
      "start": 44.6703,
      "duration": 0.1668,
      "velocity": 100,
      "chip": "ym2612"
    },
    {
      "channel": 2,
      "note": 67,
      "start": 44.6781,
      "duration": 0.0599,
      "velocity": 127,
      "chip": "ym2612"
    },
    {
      "channel": 0,
      "note": 64,
      "start": 44.8611,
      "duration": 0.1681,
      "velocity": 100,
      "chip": "ym2612"
    },
    {
      "channel": 0,
      "note": 57,
      "start": 45.0705,
      "duration": 0.1506,
      "velocity": 100,
      "chip": "ym2612"
    },
    {
      "channel": 1,
      "note": 24,
      "start": 45.0773,
      "duration": 0.0392,
      "velocity": 112,
      "chip": "ym2612"
    },
    {
      "channel": 2,
      "note": 52,
      "start": 45.0842,
      "duration": 0.7309,
      "velocity": 86,
      "chip": "ym2612"
    },
    {
      "channel": 1,
      "note": 24,
      "start": 45.158,
      "duration": 0.0634,
      "velocity": 112,
      "chip": "ym2612"
    },
    {
      "channel": 0,
      "note": 55,
      "start": 45.2624,
      "duration": 0.1507,
      "velocity": 100,
      "chip": "ym2612"
    },
    {
      "channel": 0,
      "note": 57,
      "start": 45.4575,
      "duration": 0.1652,
      "velocity": 100,
      "chip": "ym2612"
    },
    {
      "channel": 1,
      "note": 67,
      "start": 45.4651,
      "duration": 0.0568,
      "velocity": 127,
      "chip": "ym2612"
    },
    {
      "channel": 0,
      "note": 64,
      "start": 45.6466,
      "duration": 0.1681,
      "velocity": 100,
      "chip": "ym2612"
    },
    {
      "channel": 0,
      "note": 57,
      "start": 45.8559,
      "duration": 0.1507,
      "velocity": 100,
      "chip": "ym2612"
    },
    {
      "channel": 1,
      "note": 24,
      "start": 45.8627,
      "duration": 0.0393,
      "velocity": 112,
      "chip": "ym2612"
    },
    {
      "channel": 2,
      "note": 55,
      "start": 45.8675,
      "duration": 0.3315,
      "velocity": 86,
      "chip": "ym2612"
    },
    {
      "channel": 3,
      "note": 88,
      "start": 45.8746,
      "duration": 0.7263,
      "velocity": 90,
      "chip": "ym2612"
    },
    {
      "channel": 4,
      "note": 45,
      "start": 45.8819,
      "duration": 1.5087,
      "velocity": 96,
      "chip": "ym2612"
    },
    {
      "channel": 0,
      "note": 60,
      "start": 46.0479,
      "duration": 0.1507,
      "velocity": 100,
      "chip": "ym2612"
    },
    {
      "channel": 0,
      "note": 57,
      "start": 46.2428,
      "duration": 0.1654,
      "velocity": 100,
      "chip": "ym2612"
    },
    {
      "channel": 1,
      "note": 52,
      "start": 46.2496,
      "duration": 0.3508,
      "velocity": 86,
      "chip": "ym2612"
    },
    {
      "channel": 2,
      "note": 67,
      "start": 46.2573,
      "duration": 0.0464,
      "velocity": 127,
      "chip": "ym2612"
    },
    {
      "channel": 0,
      "note": 67,
      "start": 46.4351,
      "duration": 0.0603,
      "velocity": 127,
      "chip": "ym2612"
    },
    {
      "channel": 2,
      "note": 64,
      "start": 46.442,
      "duration": 0.1586,
      "velocity": 100,
      "chip": "ym2612"
    },
    {
      "channel": 0,
      "note": 67,
      "start": 46.5374,
      "duration": 0.0628,
      "velocity": 127,
      "chip": "ym2612"
    },
    {
      "channel": 0,
      "note": 57,
      "start": 46.6439,
      "duration": 0.1483,
      "velocity": 100,
      "chip": "ym2612"
    },
    {
      "channel": 1,
      "note": 48,
      "start": 46.6484,
      "duration": 0.3359,
      "velocity": 86,
      "chip": "ym2612"
    },
    {
      "channel": 2,
      "note": 81,
      "start": 46.6554,
      "duration": 0.7347,
      "velocity": 90,
      "chip": "ym2612"
    },
    {
      "channel": 3,
      "note": 24,
      "start": 46.6624,
      "duration": 0.0254,
      "velocity": 112,
      "chip": "ym2612"
    },
    {
      "channel": 3,
      "note": 24,
      "start": 46.7292,
      "duration": 0.0635,
      "velocity": 112,
      "chip": "ym2612"
    },
    {
      "channel": 0,
      "note": 55,
      "start": 46.8335,
      "duration": 0.1507,
      "velocity": 100,
      "chip": "ym2612"
    },
    {
      "channel": 0,
      "note": 57,
      "start": 47.0255,
      "duration": 0.1681,
      "velocity": 100,
      "chip": "ym2612"
    },
    {
      "channel": 1,
      "note": 52,
      "start": 47.03,
      "duration": 0.3598,
      "velocity": 86,
      "chip": "ym2612"
    },
    {
      "channel": 3,
      "note": 67,
      "start": 47.038,
      "duration": 0.0515,
      "velocity": 127,
      "chip": "ym2612"
    },
    {
      "channel": 0,
      "note": 67,
      "start": 47.2205,
      "duration": 0.0604,
      "velocity": 127,
      "chip": "ym2612"
    },
    {
      "channel": 3,
      "note": 64,
      "start": 47.2276,
      "duration": 0.1627,
      "velocity": 100,
      "chip": "ym2612"
    },
    {
      "channel": 0,
      "note": 67,
      "start": 47.3227,
      "duration": 0.0669,
      "velocity": 127,
      "chip": "ym2612"
    },
    {
      "channel": 0,
      "note": 57,
      "start": 47.4297,
      "duration": 0.1479,
      "velocity": 100,
      "chip": "ym2612"
    },
    {
      "channel": 1,
      "note": 52,
      "start": 47.4343,
      "duration": 0.7371,
      "velocity": 86,
      "chip": "ym2612"
    },
    {
      "channel": 2,
      "note": 24,
      "start": 47.4412,
      "duration": 0.032,
      "velocity": 112,
      "chip": "ym2612"
    },
    {
      "channel": 3,
      "note": 79,
      "start": 47.4484,
      "duration": 0.7234,
      "velocity": 90,
      "chip": "ym2612"
    },
    {
      "channel": 4,
      "note": 33,
      "start": 47.4534,
      "duration": 1.5073,
      "velocity": 96,
      "chip": "ym2612"
    },
    {
      "channel": 0,
      "note": 60,
      "start": 47.619,
      "duration": 0.1506,
      "velocity": 100,
      "chip": "ym2612"
    },
    {
      "channel": 0,
      "note": 57,
      "start": 47.811,
      "duration": 0.1681,
      "velocity": 100,
      "chip": "ym2612"
    },
    {
      "channel": 2,
      "note": 67,
      "start": 47.8187,
      "duration": 0.056,
      "velocity": 127,
      "chip": "ym2612"
    },
    {
      "channel": 0,
      "note": 64,
      "start": 48.0029,
      "duration": 0.1683,
      "velocity": 100,
      "chip": "ym2612"
    },
    {
      "channel": 0,
      "note": 57,
      "start": 48.2125,
      "duration": 0.1506,
      "velocity": 100,
      "chip": "ym2612"
    },
    {
      "channel": 1,
      "note": 84,
      "start": 48.2193,
      "duration": 0.7408,
      "velocity": 90,
      "chip": "ym2612"
    },
    {
      "channel": 2,
      "note": 24,
      "start": 48.2263,
      "duration": 0.0323,
      "velocity": 112,
      "chip": "ym2612"
    },
    {
      "channel": 3,
      "note": 52,
      "start": 48.2335,
      "duration": 0.7271,
      "velocity": 86,
      "chip": "ym2612"
    },
    {
      "channel": 2,
      "note": 24,
      "start": 48.3,
      "duration": 0.0635,
      "velocity": 112,
      "chip": "ym2612"
    },
    {
      "channel": 0,
      "note": 55,
      "start": 48.4045,
      "duration": 0.1506,
      "velocity": 100,
      "chip": "ym2612"
    },
    {
      "channel": 0,
      "note": 57,
      "start": 48.5965,
      "duration": 0.1681,
      "velocity": 100,
      "chip": "ym2612"
    },
    {
      "channel": 2,
      "note": 67,
      "start": 48.6042,
      "duration": 0.0561,
      "velocity": 127,
      "chip": "ym2612"
    },
    {
      "channel": 0,
      "note": 64,
      "start": 48.7884,
      "duration": 0.1715,
      "velocity": 100,
      "chip": "ym2612"
    },
    {
      "channel": 0,
      "note": 57,
      "start": 48.998,
      "duration": 0.1506,
      "velocity": 100,
      "chip": "ym2612"
    },
    {
      "channel": 1,
      "note": 24,
      "start": 49.0048,
      "duration": 0.0393,
      "velocity": 112,
      "chip": "ym2612"
    },
    {
      "channel": 2,
      "note": 55,
      "start": 49.0117,
      "duration": 0.3293,
      "velocity": 86,
      "chip": "ym2612"
    },
    {
      "channel": 3,
      "note": 81,
      "start": 49.0188,
      "duration": 1.5096,
      "velocity": 90,
      "chip": "ym2612"
    },
    {
      "channel": 4,
      "note": 45,
      "start": 49.0239,
      "duration": 1.5047,
      "velocity": 96,
      "chip": "ym2612"
    },
    {
      "channel": 0,
      "note": 60,
      "start": 49.19,
      "duration": 0.1506,
      "velocity": 100,
      "chip": "ym2612"
    },
    {
      "channel": 0,
      "note": 57,
      "start": 49.382,
      "duration": 0.1681,
      "velocity": 100,
      "chip": "ym2612"
    },
    {
      "channel": 1,
      "note": 52,
      "start": 49.3887,
      "duration": 0.3536,
      "velocity": 86,
      "chip": "ym2612"
    },
    {
      "channel": 2,
      "note": 67,
      "start": 49.3965,
      "duration": 0.0493,
      "velocity": 127,
      "chip": "ym2612"
    },
    {
      "channel": 0,
      "note": 64,
      "start": 49.5739,
      "duration": 0.1681,
      "velocity": 100,
      "chip": "ym2612"
    },
    {
      "channel": 0,
      "note": 57,
      "start": 49.7835,
      "duration": 0.1507,
      "velocity": 100,
      "chip": "ym2612"
    },
    {
      "channel": 1,
      "note": 48,
      "start": 49.788,
      "duration": 0.3383,
      "velocity": 86,
      "chip": "ym2612"
    },
    {
      "channel": 2,
      "note": 24,
      "start": 49.795,
      "duration": 0.0347,
      "velocity": 112,
      "chip": "ym2612"
    },
    {
      "channel": 2,
      "note": 24,
      "start": 49.871,
      "duration": 0.0635,
      "velocity": 112,
      "chip": "ym2612"
    },
    {
      "channel": 0,
      "note": 55,
      "start": 49.9755,
      "duration": 0.1506,
      "velocity": 100,
      "chip": "ym2612"
    },
    {
      "channel": 0,
      "note": 57,
      "start": 50.1675,
      "duration": 0.168,
      "velocity": 100,
      "chip": "ym2612"
    },
    {
      "channel": 1,
      "note": 52,
      "start": 50.172,
      "duration": 0.3559,
      "velocity": 86,
      "chip": "ym2612"
    },
    {
      "channel": 2,
      "note": 67,
      "start": 50.1798,
      "duration": 0.0515,
      "velocity": 127,
      "chip": "ym2612"
    },
    {
      "channel": 2,
      "note": 67,
      "start": 50.2732,
      "duration": 0.0627,
      "velocity": 127,
      "chip": "ym2612"
    },
    {
      "channel": 0,
      "note": 67,
      "start": 50.3624,
      "duration": 0.0604,
      "velocity": 127,
      "chip": "ym2612"
    },
    {
      "channel": 2,
      "note": 64,
      "start": 50.3694,
      "duration": 0.1588,
      "velocity": 100,
      "chip": "ym2612"
    },
    {
      "channel": 0,
      "note": 67,
      "start": 50.4649,
      "duration": 0.0628,
      "velocity": 127,
      "chip": "ym2612"
    },
    {
      "channel": 0,
      "note": 54,
      "start": 50.5722,
      "duration": 0.1649,
      "velocity": 100,
      "chip": "ym2612"
    },
    {
      "channel": 1,
      "note": 49,
      "start": 50.5767,
      "duration": 0.7541,
      "velocity": 86,
      "chip": "ym2612"
    },
    {
      "channel": 2,
      "note": 24,
      "start": 50.5837,
      "duration": 0.0489,
      "velocity": 112,
      "chip": "ym2612"
    },
    {
      "channel": 3,
      "note": 30,
      "start": 50.5908,
      "duration": 1.5259,
      "velocity": 96,
      "chip": "ym2612"
    },
    {
      "channel": 4,
      "note": 81,
      "start": 50.5981,
      "duration": 1.5188,
      "velocity": 90,
      "chip": "ym2612"
    },
    {
      "channel": 0,
      "note": 57,
      "start": 50.7784,
      "duration": 0.1506,
      "velocity": 100,
      "chip": "ym2612"
    },
    {
      "channel": 0,
      "note": 54,
      "start": 50.9704,
      "duration": 0.168,
      "velocity": 100,
      "chip": "ym2612"
    },
    {
      "channel": 2,
      "note": 67,
      "start": 50.9781,
      "duration": 0.056,
      "velocity": 127,
      "chip": "ym2612"
    },
    {
      "channel": 0,
      "note": 61,
      "start": 51.1625,
      "duration": 0.168,
      "velocity": 100,
      "chip": "ym2612"
    },
    {
      "channel": 0,
      "note": 54,
      "start": 51.3719,
      "duration": 0.1506,
      "velocity": 100,
      "chip": "ym2612"
    },
    {
      "channel": 1,
      "note": 24,
      "start": 51.3786,
      "duration": 0.0393,
      "velocity": 112,
      "chip": "ym2612"
    },
    {
      "channel": 2,
      "note": 49,
      "start": 51.3856,
      "duration": 0.7309,
      "velocity": 86,
      "chip": "ym2612"
    },
    {
      "channel": 1,
      "note": 24,
      "start": 51.4593,
      "duration": 0.0635,
      "velocity": 112,
      "chip": "ym2612"
    },
    {
      "channel": 0,
      "note": 52,
      "start": 51.5639,
      "duration": 0.1507,
      "velocity": 100,
      "chip": "ym2612"
    },
    {
      "channel": 0,
      "note": 54,
      "start": 51.7559,
      "duration": 0.1681,
      "velocity": 100,
      "chip": "ym2612"
    },
    {
      "channel": 1,
      "note": 67,
      "start": 51.7634,
      "duration": 0.056,
      "velocity": 127,
      "chip": "ym2612"
    },
    {
      "channel": 0,
      "note": 61,
      "start": 51.948,
      "duration": 0.1681,
      "velocity": 100,
      "chip": "ym2612"
    },
    {
      "channel": 0,
      "note": 54,
      "start": 52.1574,
      "duration": 0.1506,
      "velocity": 100,
      "chip": "ym2612"
    },
    {
      "channel": 1,
      "note": 24,
      "start": 52.1641,
      "duration": 0.0393,
      "velocity": 112,
      "chip": "ym2612"
    },
    {
      "channel": 2,
      "note": 52,
      "start": 52.1689,
      "duration": 0.3315,
      "velocity": 86,
      "chip": "ym2612"
    },
    {
      "channel": 3,
      "note": 85,
      "start": 52.1762,
      "duration": 0.7272,
      "velocity": 90,
      "chip": "ym2612"
    },
    {
      "channel": 4,
      "note": 42,
      "start": 52.1835,
      "duration": 1.5045,
      "velocity": 96,
      "chip": "ym2612"
    },
    {
      "channel": 0,
      "note": 57,
      "start": 52.3494,
      "duration": 0.1506,
      "velocity": 100,
      "chip": "ym2612"
    },
    {
      "channel": 0,
      "note": 54,
      "start": 52.5413,
      "duration": 0.1681,
      "velocity": 100,
      "chip": "ym2612"
    },
    {
      "channel": 1,
      "note": 49,
      "start": 52.5481,
      "duration": 0.3547,
      "velocity": 86,
      "chip": "ym2612"
    },
    {
      "channel": 2,
      "note": 67,
      "start": 52.5559,
      "duration": 0.0492,
      "velocity": 127,
      "chip": "ym2612"
    },
    {
      "channel": 0,
      "note": 67,
      "start": 52.7365,
      "duration": 0.0602,
      "velocity": 127,
      "chip": "ym2612"
    },
    {
      "channel": 2,
      "note": 61,
      "start": 52.7435,
      "duration": 0.1596,
      "velocity": 100,
      "chip": "ym2612"
    },
    {
      "channel": 0,
      "note": 67,
      "start": 52.839,
      "duration": 0.0637,
      "velocity": 127,
      "chip": "ym2612"
    },
    {
      "channel": 0,
      "note": 54,
      "start": 52.9451,
      "duration": 0.1485,
      "velocity": 100,
      "chip": "ym2612"
    },
    {
      "channel": 1,
      "note": 45,
      "start": 52.9496,
      "duration": 0.3361,
      "velocity": 86,
      "chip": "ym2612"
    },
    {
      "channel": 2,
      "note": 78,
      "start": 52.9566,
      "duration": 0.731,
      "velocity": 90,
      "chip": "ym2612"
    },
    {
      "channel": 3,
      "note": 24,
      "start": 52.9637,
      "duration": 0.0256,
      "velocity": 112,
      "chip": "ym2612"
    },
    {
      "channel": 3,
      "note": 24,
      "start": 53.0305,
      "duration": 0.0635,
      "velocity": 112,
      "chip": "ym2612"
    },
    {
      "channel": 0,
      "note": 52,
      "start": 53.1349,
      "duration": 0.1506,
      "velocity": 100,
      "chip": "ym2612"
    },
    {
      "channel": 0,
      "note": 54,
      "start": 53.3268,
      "duration": 0.1681,
      "velocity": 100,
      "chip": "ym2612"
    },
    {
      "channel": 1,
      "note": 49,
      "start": 53.3314,
      "duration": 0.3559,
      "velocity": 86,
      "chip": "ym2612"
    },
    {
      "channel": 3,
      "note": 67,
      "start": 53.3393,
      "duration": 0.0515,
      "velocity": 127,
      "chip": "ym2612"
    },
    {
      "channel": 0,
      "note": 67,
      "start": 53.5218,
      "duration": 0.0604,
      "velocity": 127,
      "chip": "ym2612"
    },
    {
      "channel": 3,
      "note": 61,
      "start": 53.529,
      "duration": 0.1588,
      "velocity": 100,
      "chip": "ym2612"
    },
    {
      "channel": 0,
      "note": 67,
      "start": 53.6243,
      "duration": 0.0628,
      "velocity": 127,
      "chip": "ym2612"
    },
    {
      "channel": 0,
      "note": 54,
      "start": 53.7311,
      "duration": 0.148,
      "velocity": 100,
      "chip": "ym2612"
    },
    {
      "channel": 1,
      "note": 49,
      "start": 53.7356,
      "duration": 0.7371,
      "velocity": 86,
      "chip": "ym2612"
    },
    {
      "channel": 2,
      "note": 24,
      "start": 53.7428,
      "duration": 0.0318,
      "velocity": 112,
      "chip": "ym2612"
    },
    {
      "channel": 3,
      "note": 76,
      "start": 53.7499,
      "duration": 0.7232,
      "velocity": 90,
      "chip": "ym2612"
    },
    {
      "channel": 4,
      "note": 30,
      "start": 53.755,
      "duration": 1.5039,
      "velocity": 96,
      "chip": "ym2612"
    },
    {
      "channel": 0,
      "note": 57,
      "start": 53.9203,
      "duration": 0.1507,
      "velocity": 100,
      "chip": "ym2612"
    },
    {
      "channel": 0,
      "note": 54,
      "start": 54.1123,
      "duration": 0.1681,
      "velocity": 100,
      "chip": "ym2612"
    },
    {
      "channel": 2,
      "note": 67,
      "start": 54.1201,
      "duration": 0.056,
      "velocity": 127,
      "chip": "ym2612"
    },
    {
      "channel": 0,
      "note": 61,
      "start": 54.3043,
      "duration": 0.1683,
      "velocity": 100,
      "chip": "ym2612"
    },
    {
      "channel": 0,
      "note": 54,
      "start": 54.5139,
      "duration": 0.1507,
      "velocity": 100,
      "chip": "ym2612"
    },
    {
      "channel": 1,
      "note": 81,
      "start": 54.5206,
      "duration": 0.7377,
      "velocity": 90,
      "chip": "ym2612"
    },
    {
      "channel": 2,
      "note": 24,
      "start": 54.5276,
      "duration": 0.0325,
      "velocity": 112,
      "chip": "ym2612"
    },
    {
      "channel": 3,
      "note": 49,
      "start": 54.5347,
      "duration": 0.7239,
      "velocity": 86,
      "chip": "ym2612"
    },
    {
      "channel": 2,
      "note": 24,
      "start": 54.6014,
      "duration": 0.0635,
      "velocity": 112,
      "chip": "ym2612"
    },
    {
      "channel": 0,
      "note": 52,
      "start": 54.7058,
      "duration": 0.1507,
      "velocity": 100,
      "chip": "ym2612"
    },
    {
      "channel": 0,
      "note": 54,
      "start": 54.8978,
      "duration": 0.1681,
      "velocity": 100,
      "chip": "ym2612"
    },
    {
      "channel": 2,
      "note": 67,
      "start": 54.9056,
      "duration": 0.056,
      "velocity": 127,
      "chip": "ym2612"
    },
    {
      "channel": 0,
      "note": 61,
      "start": 55.09,
      "duration": 0.168,
      "velocity": 100,
      "chip": "ym2612"
    },
    {
      "channel": 0,
      "note": 54,
      "start": 55.2994,
      "duration": 0.1506,
      "velocity": 100,
      "chip": "ym2612"
    },
    {
      "channel": 1,
      "note": 24,
      "start": 55.3061,
      "duration": 0.0393,
      "velocity": 112,
      "chip": "ym2612"
    },
    {
      "channel": 2,
      "note": 52,
      "start": 55.3131,
      "duration": 0.3293,
      "velocity": 86,
      "chip": "ym2612"
    },
    {
      "channel": 3,
      "note": 78,
      "start": 55.3202,
      "duration": 1.5095,
      "velocity": 90,
      "chip": "ym2612"
    },
    {
      "channel": 4,
      "note": 42,
      "start": 55.3253,
      "duration": 1.5047,
      "velocity": 96,
      "chip": "ym2612"
    },
    {
      "channel": 0,
      "note": 57,
      "start": 55.4913,
      "duration": 0.1507,
      "velocity": 100,
      "chip": "ym2612"
    },
    {
      "channel": 0,
      "note": 54,
      "start": 55.6833,
      "duration": 0.1681,
      "velocity": 100,
      "chip": "ym2612"
    },
    {
      "channel": 1,
      "note": 49,
      "start": 55.6901,
      "duration": 0.3537,
      "velocity": 86,
      "chip": "ym2612"
    },
    {
      "channel": 2,
      "note": 67,
      "start": 55.6979,
      "duration": 0.0492,
      "velocity": 127,
      "chip": "ym2612"
    },
    {
      "channel": 0,
      "note": 61,
      "start": 55.8755,
      "duration": 0.1681,
      "velocity": 100,
      "chip": "ym2612"
    },
    {
      "channel": 0,
      "note": 54,
      "start": 56.0848,
      "duration": 0.1507,
      "velocity": 100,
      "chip": "ym2612"
    },
    {
      "channel": 1,
      "note": 45,
      "start": 56.0894,
      "duration": 0.3383,
      "velocity": 86,
      "chip": "ym2612"
    },
    {
      "channel": 2,
      "note": 24,
      "start": 56.0963,
      "duration": 0.0347,
      "velocity": 112,
      "chip": "ym2612"
    },
    {
      "channel": 2,
      "note": 24,
      "start": 56.1724,
      "duration": 0.0635,
      "velocity": 112,
      "chip": "ym2612"
    },
    {
      "channel": 0,
      "note": 52,
      "start": 56.2778,
      "duration": 0.1497,
      "velocity": 100,
      "chip": "ym2612"
    },
    {
      "channel": 0,
      "note": 54,
      "start": 56.4688,
      "duration": 0.1681,
      "velocity": 100,
      "chip": "ym2612"
    },
    {
      "channel": 1,
      "note": 49,
      "start": 56.4734,
      "duration": 0.3559,
      "velocity": 86,
      "chip": "ym2612"
    },
    {
      "channel": 2,
      "note": 67,
      "start": 56.4811,
      "duration": 0.0515,
      "velocity": 127,
      "chip": "ym2612"
    },
    {
      "channel": 2,
      "note": 67,
      "start": 56.5746,
      "duration": 0.0627,
      "velocity": 127,
      "chip": "ym2612"
    },
    {
      "channel": 0,
      "note": 67,
      "start": 56.6638,
      "duration": 0.0604,
      "velocity": 127,
      "chip": "ym2612"
    },
    {
      "channel": 2,
      "note": 61,
      "start": 56.6707,
      "duration": 0.1587,
      "velocity": 100,
      "chip": "ym2612"
    },
    {
      "channel": 0,
      "note": 67,
      "start": 56.7662,
      "duration": 0.0628,
      "velocity": 127,
      "chip": "ym2612"
    },
    {
      "channel": 0,
      "note": 59,
      "start": 56.8736,
      "duration": 0.1649,
      "velocity": 100,
      "chip": "ym2612"
    },
    {
      "channel": 1,
      "note": 54,
      "start": 56.8781,
      "duration": 0.7559,
      "velocity": 86,
      "chip": "ym2612"
    },
    {
      "channel": 2,
      "note": 24,
      "start": 56.8851,
      "duration": 0.0489,
      "velocity": 112,
      "chip": "ym2612"
    },
    {
      "channel": 3,
      "note": 35,
      "start": 56.8923,
      "duration": 1.5276,
      "velocity": 96,
      "chip": "ym2612"
    },
    {
      "channel": 4,
      "note": 74,
      "start": 56.8996,
      "duration": 1.5205,
      "velocity": 90,
      "chip": "ym2612"
    },
    {
      "channel": 0,
      "note": 62,
      "start": 57.0797,
      "duration": 0.1507,
      "velocity": 100,
      "chip": "ym2612"
    },
    {
      "channel": 0,
      "note": 59,
      "start": 57.2717,
      "duration": 0.168,
      "velocity": 100,
      "chip": "ym2612"
    },
    {
      "channel": 2,
      "note": 67,
      "start": 57.2795,
      "duration": 0.056,
      "velocity": 127,
      "chip": "ym2612"
    },
    {
      "channel": 0,
      "note": 66,
      "start": 57.4639,
      "duration": 0.17,
      "velocity": 100,
      "chip": "ym2612"
    },
    {
      "channel": 0,
      "note": 59,
      "start": 57.6732,
      "duration": 0.1507,
      "velocity": 100,
      "chip": "ym2612"
    },
    {
      "channel": 1,
      "note": 24,
      "start": 57.68,
      "duration": 0.0393,
      "velocity": 112,
      "chip": "ym2612"
    },
    {
      "channel": 2,
      "note": 54,
      "start": 57.687,
      "duration": 0.7327,
      "velocity": 86,
      "chip": "ym2612"
    },
    {
      "channel": 1,
      "note": 24,
      "start": 57.7606,
      "duration": 0.0635,
      "velocity": 112,
      "chip": "ym2612"
    },
    {
      "channel": 0,
      "note": 57,
      "start": 57.8652,
      "duration": 0.1507,
      "velocity": 100,
      "chip": "ym2612"
    },
    {
      "channel": 0,
      "note": 59,
      "start": 58.0572,
      "duration": 0.1683,
      "velocity": 100,
      "chip": "ym2612"
    },
    {
      "channel": 1,
      "note": 67,
      "start": 58.0649,
      "duration": 0.056,
      "velocity": 127,
      "chip": "ym2612"
    },
    {
      "channel": 0,
      "note": 66,
      "start": 58.2494,
      "duration": 0.1699,
      "velocity": 100,
      "chip": "ym2612"
    },
    {
      "channel": 0,
      "note": 59,
      "start": 58.4587,
      "duration": 0.1507,
      "velocity": 100,
      "chip": "ym2612"
    },
    {
      "channel": 1,
      "note": 24,
      "start": 58.4655,
      "duration": 0.0393,
      "velocity": 112,
      "chip": "ym2612"
    },
    {
      "channel": 2,
      "note": 57,
      "start": 58.4702,
      "duration": 0.3315,
      "velocity": 86,
      "chip": "ym2612"
    },
    {
      "channel": 3,
      "note": 78,
      "start": 58.4776,
      "duration": 0.7261,
      "velocity": 90,
      "chip": "ym2612"
    },
    {
      "channel": 4,
      "note": 47,
      "start": 58.4848,
      "duration": 1.5046,
      "velocity": 96,
      "chip": "ym2612"
    },
    {
      "channel": 0,
      "note": 62,
      "start": 58.6507,
      "duration": 0.1506,
      "velocity": 100,
      "chip": "ym2612"
    },
    {
      "channel": 0,
      "note": 59,
      "start": 58.8429,
      "duration": 0.168,
      "velocity": 100,
      "chip": "ym2612"
    },
    {
      "channel": 1,
      "note": 54,
      "start": 58.8496,
      "duration": 0.3536,
      "velocity": 86,
      "chip": "ym2612"
    },
    {
      "channel": 2,
      "note": 67,
      "start": 58.8575,
      "duration": 0.049,
      "velocity": 127,
      "chip": "ym2612"
    },
    {
      "channel": 0,
      "note": 67,
      "start": 59.0379,
      "duration": 0.0602,
      "velocity": 127,
      "chip": "ym2612"
    },
    {
      "channel": 2,
      "note": 66,
      "start": 59.0448,
      "duration": 0.1586,
      "velocity": 100,
      "chip": "ym2612"
    },
    {
      "channel": 0,
      "note": 67,
      "start": 59.1435,
      "duration": 0.0594,
      "velocity": 127,
      "chip": "ym2612"
    },
    {
      "channel": 0,
      "note": 59,
      "start": 59.2465,
      "duration": 0.1485,
      "velocity": 100,
      "chip": "ym2612"
    },
    {
      "channel": 1,
      "note": 50,
      "start": 59.251,
      "duration": 0.3361,
      "velocity": 86,
      "chip": "ym2612"
    },
    {
      "channel": 2,
      "note": 71,
      "start": 59.258,
      "duration": 0.7309,
      "velocity": 90,
      "chip": "ym2612"
    },
    {
      "channel": 3,
      "note": 24,
      "start": 59.2651,
      "duration": 0.0255,
      "velocity": 112,
      "chip": "ym2612"
    },
    {
      "channel": 3,
      "note": 24,
      "start": 59.332,
      "duration": 0.0635,
      "velocity": 112,
      "chip": "ym2612"
    },
    {
      "channel": 0,
      "note": 57,
      "start": 59.4362,
      "duration": 0.1506,
      "velocity": 100,
      "chip": "ym2612"
    },
    {
      "channel": 0,
      "note": 59,
      "start": 59.6282,
      "duration": 0.1681,
      "velocity": 100,
      "chip": "ym2612"
    },
    {
      "channel": 1,
      "note": 54,
      "start": 59.6328,
      "duration": 0.3559,
      "velocity": 86,
      "chip": "ym2612"
    },
    {
      "channel": 3,
      "note": 67,
      "start": 59.6407,
      "duration": 0.0515,
      "velocity": 127,
      "chip": "ym2612"
    },
    {
      "channel": 0,
      "note": 67,
      "start": 59.8234,
      "duration": 0.0603,
      "velocity": 127,
      "chip": "ym2612"
    },
    {
      "channel": 3,
      "note": 66,
      "start": 59.8305,
      "duration": 0.1586,
      "velocity": 100,
      "chip": "ym2612"
    },
    {
      "channel": 0,
      "note": 67,
      "start": 59.9256,
      "duration": 0.0628,
      "velocity": 127,
      "chip": "ym2612"
    },
    {
      "channel": 0,
      "note": 59,
      "start": 60.0325,
      "duration": 0.148,
      "velocity": 100,
      "chip": "ym2612"
    },
    {
      "channel": 1,
      "note": 54,
      "start": 60.0371,
      "duration": 0.7371,
      "velocity": 86,
      "chip": "ym2612"
    },
    {
      "channel": 2,
      "note": 24,
      "start": 60.044,
      "duration": 0.0335,
      "velocity": 112,
      "chip": "ym2612"
    },
    {
      "channel": 3,
      "note": 71,
      "start": 60.0511,
      "duration": 0.7234,
      "velocity": 90,
      "chip": "ym2612"
    },
    {
      "channel": 4,
      "note": 35,
      "start": 60.0562,
      "duration": 1.5041,
      "velocity": 96,
      "chip": "ym2612"
    },
    {
      "channel": 0,
      "note": 62,
      "start": 60.2217,
      "duration": 0.1506,
      "velocity": 100,
      "chip": "ym2612"
    },
    {
      "channel": 0,
      "note": 59,
      "start": 60.4137,
      "duration": 0.1681,
      "velocity": 100,
      "chip": "ym2612"
    },
    {
      "channel": 2,
      "note": 67,
      "start": 60.4215,
      "duration": 0.0561,
      "velocity": 127,
      "chip": "ym2612"
    },
    {
      "channel": 0,
      "note": 66,
      "start": 60.6059,
      "duration": 0.1681,
      "velocity": 100,
      "chip": "ym2612"
    },
    {
      "channel": 0,
      "note": 59,
      "start": 60.8152,
      "duration": 0.1507,
      "velocity": 100,
      "chip": "ym2612"
    },
    {
      "channel": 1,
      "note": 74,
      "start": 60.822,
      "duration": 0.7376,
      "velocity": 90,
      "chip": "ym2612"
    },
    {
      "channel": 2,
      "note": 24,
      "start": 60.829,
      "duration": 0.0345,
      "velocity": 112,
      "chip": "ym2612"
    },
    {
      "channel": 3,
      "note": 54,
      "start": 60.8361,
      "duration": 0.7239,
      "velocity": 86,
      "chip": "ym2612"
    },
    {
      "channel": 2,
      "note": 24,
      "start": 60.9028,
      "duration": 0.0635,
      "velocity": 112,
      "chip": "ym2612"
    },
    {
      "channel": 0,
      "note": 57,
      "start": 61.0101,
      "duration": 0.1478,
      "velocity": 100,
      "chip": "ym2612"
    },
    {
      "channel": 0,
      "note": 59,
      "start": 61.1992,
      "duration": 0.1681,
      "velocity": 100,
      "chip": "ym2612"
    },
    {
      "channel": 2,
      "note": 67,
      "start": 61.207,
      "duration": 0.056,
      "velocity": 127,
      "chip": "ym2612"
    },
    {
      "channel": 0,
      "note": 66,
      "start": 61.3913,
      "duration": 0.1681,
      "velocity": 100,
      "chip": "ym2612"
    },
    {
      "channel": 0,
      "note": 59,
      "start": 61.6007,
      "duration": 0.1507,
      "velocity": 100,
      "chip": "ym2612"
    },
    {
      "channel": 1,
      "note": 24,
      "start": 61.6075,
      "duration": 0.0393,
      "velocity": 112,
      "chip": "ym2612"
    },
    {
      "channel": 2,
      "note": 57,
      "start": 61.6145,
      "duration": 0.3293,
      "velocity": 86,
      "chip": "ym2612"
    },
    {
      "channel": 3,
      "note": 74,
      "start": 61.6216,
      "duration": 1.5094,
      "velocity": 90,
      "chip": "ym2612"
    },
    {
      "channel": 4,
      "note": 47,
      "start": 61.6267,
      "duration": 1.5045,
      "velocity": 96,
      "chip": "ym2612"
    },
    {
      "channel": 0,
      "note": 62,
      "start": 61.7929,
      "duration": 0.1504,
      "velocity": 100,
      "chip": "ym2612"
    },
    {
      "channel": 0,
      "note": 59,
      "start": 61.9847,
      "duration": 0.1681,
      "velocity": 100,
      "chip": "ym2612"
    },
    {
      "channel": 1,
      "note": 54,
      "start": 61.9914,
      "duration": 0.3537,
      "velocity": 86,
      "chip": "ym2612"
    },
    {
      "channel": 2,
      "note": 67,
      "start": 61.9993,
      "duration": 0.0493,
      "velocity": 127,
      "chip": "ym2612"
    },
    {
      "channel": 0,
      "note": 66,
      "start": 62.1768,
      "duration": 0.1681,
      "velocity": 100,
      "chip": "ym2612"
    },
    {
      "channel": 0,
      "note": 59,
      "start": 62.3862,
      "duration": 0.1507,
      "velocity": 100,
      "chip": "ym2612"
    },
    {
      "channel": 1,
      "note": 50,
      "start": 62.3908,
      "duration": 0.3383,
      "velocity": 86,
      "chip": "ym2612"
    },
    {
      "channel": 2,
      "note": 24,
      "start": 62.3977,
      "duration": 0.0384,
      "velocity": 112,
      "chip": "ym2612"
    },
    {
      "channel": 2,
      "note": 24,
      "start": 62.4737,
      "duration": 0.0636,
      "velocity": 112,
      "chip": "ym2612"
    },
    {
      "channel": 0,
      "note": 57,
      "start": 62.5782,
      "duration": 0.1506,
      "velocity": 100,
      "chip": "ym2612"
    },
    {
      "channel": 0,
      "note": 59,
      "start": 62.7702,
      "duration": 0.1681,
      "velocity": 100,
      "chip": "ym2612"
    },
    {
      "channel": 1,
      "note": 54,
      "start": 62.7748,
      "duration": 0.3557,
      "velocity": 86,
      "chip": "ym2612"
    },
    {
      "channel": 2,
      "note": 67,
      "start": 62.7825,
      "duration": 0.0515,
      "velocity": 127,
      "chip": "ym2612"
    },
    {
      "channel": 2,
      "note": 67,
      "start": 62.876,
      "duration": 0.0626,
      "velocity": 127,
      "chip": "ym2612"
    },
    {
      "channel": 0,
      "note": 67,
      "start": 62.9652,
      "duration": 0.0604,
      "velocity": 127,
      "chip": "ym2612"
    },
    {
      "channel": 2,
      "note": 66,
      "start": 62.9722,
      "duration": 0.1586,
      "velocity": 100,
      "chip": "ym2612"
    },
    {
      "channel": 0,
      "note": 67,
      "start": 63.0676,
      "duration": 0.0626,
      "velocity": 127,
      "chip": "ym2612"
    },
    {
      "channel": 0,
      "note": 64,
      "start": 63.175,
      "duration": 0.1649,
      "velocity": 100,
      "chip": "ym2612"
    },
    {
      "channel": 1,
      "note": 59,
      "start": 63.1795,
      "duration": 0.7541,
      "velocity": 86,
      "chip": "ym2612"
    },
    {
      "channel": 2,
      "note": 24,
      "start": 63.1865,
      "duration": 0.0489,
      "velocity": 112,
      "chip": "ym2612"
    },
    {
      "channel": 3,
      "note": 40,
      "start": 63.1936,
      "duration": 1.5259,
      "velocity": 96,
      "chip": "ym2612"
    },
    {
      "channel": 4,
      "note": 91,
      "start": 63.2008,
      "duration": 1.5189,
      "velocity": 90,
      "chip": "ym2612"
    },
    {
      "channel": 0,
      "note": 67,
      "start": 63.3811,
      "duration": 0.1507,
      "velocity": 100,
      "chip": "ym2612"
    },
    {
      "channel": 0,
      "note": 64,
      "start": 63.5731,
      "duration": 0.1681,
      "velocity": 100,
      "chip": "ym2612"
    },
    {
      "channel": 2,
      "note": 67,
      "start": 63.5809,
      "duration": 0.056,
      "velocity": 127,
      "chip": "ym2612"
    },
    {
      "channel": 0,
      "note": 71,
      "start": 63.7653,
      "duration": 0.1681,
      "velocity": 100,
      "chip": "ym2612"
    },
    {
      "channel": 0,
      "note": 64,
      "start": 63.9747,
      "duration": 0.1506,
      "velocity": 100,
      "chip": "ym2612"
    },
    {
      "channel": 1,
      "note": 24,
      "start": 63.9815,
      "duration": 0.0393,
      "velocity": 112,
      "chip": "ym2612"
    },
    {
      "channel": 2,
      "note": 59,
      "start": 63.9884,
      "duration": 0.7308,
      "velocity": 86,
      "chip": "ym2612"
    },
    {
      "channel": 1,
      "note": 24,
      "start": 64.062,
      "duration": 0.0636,
      "velocity": 112,
      "chip": "ym2612"
    },
    {
      "channel": 0,
      "note": 62,
      "start": 64.1666,
      "duration": 0.1507,
      "velocity": 100,
      "chip": "ym2612"
    },
    {
      "channel": 0,
      "note": 64,
      "start": 64.3586,
      "duration": 0.1681,
      "velocity": 100,
      "chip": "ym2612"
    },
    {
      "channel": 1,
      "note": 67,
      "start": 64.3662,
      "duration": 0.0561,
      "velocity": 127,
      "chip": "ym2612"
    },
    {
      "channel": 0,
      "note": 71,
      "start": 64.5508,
      "duration": 0.168,
      "velocity": 100,
      "chip": "ym2612"
    },
    {
      "channel": 0,
      "note": 64,
      "start": 64.7601,
      "duration": 0.1507,
      "velocity": 100,
      "chip": "ym2612"
    },
    {
      "channel": 1,
      "note": 24,
      "start": 64.7669,
      "duration": 0.0393,
      "velocity": 112,
      "chip": "ym2612"
    },
    {
      "channel": 2,
      "note": 62,
      "start": 64.7717,
      "duration": 0.3315,
      "velocity": 86,
      "chip": "ym2612"
    },
    {
      "channel": 3,
      "note": 95,
      "start": 64.7788,
      "duration": 0.7263,
      "velocity": 90,
      "chip": "ym2612"
    },
    {
      "channel": 4,
      "note": 52,
      "start": 64.7861,
      "duration": 1.5045,
      "velocity": 96,
      "chip": "ym2612"
    },
    {
      "channel": 0,
      "note": 67,
      "start": 64.9521,
      "duration": 0.1507,
      "velocity": 100,
      "chip": "ym2612"
    },
    {
      "channel": 0,
      "note": 64,
      "start": 65.1441,
      "duration": 0.1681,
      "velocity": 100,
      "chip": "ym2612"
    },
    {
      "channel": 1,
      "note": 59,
      "start": 65.1509,
      "duration": 0.3537,
      "velocity": 86,
      "chip": "ym2612"
    },
    {
      "channel": 2,
      "note": 67,
      "start": 65.1587,
      "duration": 0.0493,
      "velocity": 127,
      "chip": "ym2612"
    },
    {
      "channel": 0,
      "note": 67,
      "start": 65.3391,
      "duration": 0.0604,
      "velocity": 127,
      "chip": "ym2612"
    },
    {
      "channel": 2,
      "note": 71,
      "start": 65.3461,
      "duration": 0.1588,
      "velocity": 100,
      "chip": "ym2612"
    },
    {
      "channel": 0,
      "note": 67,
      "start": 65.4416,
      "duration": 0.0628,
      "velocity": 127,
      "chip": "ym2612"
    },
    {
      "channel": 0,
      "note": 64,
      "start": 65.5479,
      "duration": 0.1485,
      "velocity": 100,
      "chip": "ym2612"
    },
    {
      "channel": 1,
      "note": 55,
      "start": 65.5524,
      "duration": 0.3361,
      "velocity": 86,
      "chip": "ym2612"
    },
    {
      "channel": 2,
      "note": 88,
      "start": 65.5596,
      "duration": 0.7306,
      "velocity": 90,
      "chip": "ym2612"
    },
    {
      "channel": 3,
      "note": 24,
      "start": 65.5667,
      "duration": 0.0266,
      "velocity": 112,
      "chip": "ym2612"
    },
    {
      "channel": 3,
      "note": 24,
      "start": 65.6334,
      "duration": 0.0635,
      "velocity": 112,
      "chip": "ym2612"
    },
    {
      "channel": 0,
      "note": 62,
      "start": 65.7393,
      "duration": 0.149,
      "velocity": 100,
      "chip": "ym2612"
    },
    {
      "channel": 0,
      "note": 64,
      "start": 65.9296,
      "duration": 0.1681,
      "velocity": 100,
      "chip": "ym2612"
    },
    {
      "channel": 1,
      "note": 59,
      "start": 65.9342,
      "duration": 0.3557,
      "velocity": 86,
      "chip": "ym2612"
    },
    {
      "channel": 3,
      "note": 67,
      "start": 65.9421,
      "duration": 0.0515,
      "velocity": 127,
      "chip": "ym2612"
    },
    {
      "channel": 0,
      "note": 67,
      "start": 66.1246,
      "duration": 0.0604,
      "velocity": 127,
      "chip": "ym2612"
    },
    {
      "channel": 3,
      "note": 71,
      "start": 66.1318,
      "duration": 0.1586,
      "velocity": 100,
      "chip": "ym2612"
    },
    {
      "channel": 0,
      "note": 67,
      "start": 66.2271,
      "duration": 0.0626,
      "velocity": 127,
      "chip": "ym2612"
    },
    {
      "channel": 0,
      "note": 64,
      "start": 66.3339,
      "duration": 0.148,
      "velocity": 100,
      "chip": "ym2612"
    },
    {
      "channel": 1,
      "note": 59,
      "start": 66.3384,
      "duration": 0.7372,
      "velocity": 86,
      "chip": "ym2612"
    },
    {
      "channel": 2,
      "note": 24,
      "start": 66.3454,
      "duration": 0.032,
      "velocity": 112,
      "chip": "ym2612"
    },
    {
      "channel": 3,
      "note": 86,
      "start": 66.3525,
      "duration": 0.7234,
      "velocity": 90,
      "chip": "ym2612"
    },
    {
      "channel": 4,
      "note": 40,
      "start": 66.3576,
      "duration": 1.5041,
      "velocity": 96,
      "chip": "ym2612"
    },
    {
      "channel": 0,
      "note": 67,
      "start": 66.5231,
      "duration": 0.1507,
      "velocity": 100,
      "chip": "ym2612"
    },
    {
      "channel": 0,
      "note": 64,
      "start": 66.7151,
      "duration": 0.1681,
      "velocity": 100,
      "chip": "ym2612"
    },
    {
      "channel": 2,
      "note": 67,
      "start": 66.7229,
      "duration": 0.056,
      "velocity": 127,
      "chip": "ym2612"
    },
    {
      "channel": 0,
      "note": 71,
      "start": 66.9071,
      "duration": 0.1683,
      "velocity": 100,
      "chip": "ym2612"
    },
    {
      "channel": 0,
      "note": 64,
      "start": 67.1167,
      "duration": 0.1506,
      "velocity": 100,
      "chip": "ym2612"
    },
    {
      "channel": 1,
      "note": 83,
      "start": 67.1234,
      "duration": 0.7377,
      "velocity": 90,
      "chip": "ym2612"
    },
    {
      "channel": 2,
      "note": 24,
      "start": 67.1304,
      "duration": 0.0325,
      "velocity": 112,
      "chip": "ym2612"
    },
    {
      "channel": 3,
      "note": 59,
      "start": 67.1375,
      "duration": 0.7239,
      "velocity": 86,
      "chip": "ym2612"
    },
    {
      "channel": 2,
      "note": 24,
      "start": 67.2041,
      "duration": 0.0636,
      "velocity": 112,
      "chip": "ym2612"
    },
    {
      "channel": 0,
      "note": 62,
      "start": 67.3086,
      "duration": 0.1507,
      "velocity": 100,
      "chip": "ym2612"
    },
    {
      "channel": 0,
      "note": 64,
      "start": 67.5006,
      "duration": 0.1681,
      "velocity": 100,
      "chip": "ym2612"
    },
    {
      "channel": 2,
      "note": 67,
      "start": 67.5084,
      "duration": 0.056,
      "velocity": 127,
      "chip": "ym2612"
    },
    {
      "channel": 0,
      "note": 71,
      "start": 67.6928,
      "duration": 0.1681,
      "velocity": 100,
      "chip": "ym2612"
    },
    {
      "channel": 0,
      "note": 64,
      "start": 67.9021,
      "duration": 0.1507,
      "velocity": 100,
      "chip": "ym2612"
    },
    {
      "channel": 1,
      "note": 24,
      "start": 67.9091,
      "duration": 0.0391,
      "velocity": 112,
      "chip": "ym2612"
    },
    {
      "channel": 2,
      "note": 62,
      "start": 67.9161,
      "duration": 0.3291,
      "velocity": 86,
      "chip": "ym2612"
    },
    {
      "channel": 3,
      "note": 81,
      "start": 67.9231,
      "duration": 1.5093,
      "velocity": 90,
      "chip": "ym2612"
    },
    {
      "channel": 4,
      "note": 52,
      "start": 67.9282,
      "duration": 1.5044,
      "velocity": 96,
      "chip": "ym2612"
    },
    {
      "channel": 0,
      "note": 67,
      "start": 68.0941,
      "duration": 0.1507,
      "velocity": 100,
      "chip": "ym2612"
    },
    {
      "channel": 0,
      "note": 64,
      "start": 68.2861,
      "duration": 0.169,
      "velocity": 100,
      "chip": "ym2612"
    },
    {
      "channel": 1,
      "note": 59,
      "start": 68.293,
      "duration": 0.3534,
      "velocity": 86,
      "chip": "ym2612"
    },
    {
      "channel": 2,
      "note": 67,
      "start": 68.3008,
      "duration": 0.049,
      "velocity": 127,
      "chip": "ym2612"
    },
    {
      "channel": 0,
      "note": 71,
      "start": 68.4781,
      "duration": 0.1681,
      "velocity": 100,
      "chip": "ym2612"
    },
    {
      "channel": 0,
      "note": 64,
      "start": 68.6877,
      "duration": 0.1506,
      "velocity": 100,
      "chip": "ym2612"
    },
    {
      "channel": 1,
      "note": 55,
      "start": 68.6923,
      "duration": 0.3382,
      "velocity": 86,
      "chip": "ym2612"
    },
    {
      "channel": 2,
      "note": 24,
      "start": 68.6992,
      "duration": 0.0347,
      "velocity": 112,
      "chip": "ym2612"
    },
    {
      "channel": 2,
      "note": 24,
      "start": 68.7752,
      "duration": 0.0635,
      "velocity": 112,
      "chip": "ym2612"
    },
    {
      "channel": 0,
      "note": 62,
      "start": 68.8796,
      "duration": 0.1507,
      "velocity": 100,
      "chip": "ym2612"
    },
    {
      "channel": 0,
      "note": 64,
      "start": 69.0716,
      "duration": 0.1688,
      "velocity": 100,
      "chip": "ym2612"
    },
    {
      "channel": 1,
      "note": 59,
      "start": 69.0762,
      "duration": 0.3557,
      "velocity": 86,
      "chip": "ym2612"
    },
    {
      "channel": 2,
      "note": 67,
      "start": 69.084,
      "duration": 0.0514,
      "velocity": 127,
      "chip": "ym2612"
    },
    {
      "channel": 2,
      "note": 67,
      "start": 69.1774,
      "duration": 0.0634,
      "velocity": 127,
      "chip": "ym2612"
    },
    {
      "channel": 0,
      "note": 67,
      "start": 69.2666,
      "duration": 0.0604,
      "velocity": 127,
      "chip": "ym2612"
    },
    {
      "channel": 2,
      "note": 71,
      "start": 69.2736,
      "duration": 0.1586,
      "velocity": 100,
      "chip": "ym2612"
    },
    {
      "channel": 0,
      "note": 67,
      "start": 69.369,
      "duration": 0.0626,
      "velocity": 127,
      "chip": "ym2612"
    },
    {
      "channel": 0,
      "note": 69,
      "start": 69.4776,
      "duration": 0.1462,
      "velocity": 100,
      "chip": "ym2612"
    },
    {
      "channel": 1,
      "note": 24,
      "start": 69.4843,
      "duration": 0.0349,
      "velocity": 112,
      "chip": "ym2612"
    },
    {
      "channel": 2,
      "note": 45,
      "start": 69.4912,
      "duration": 0.7263,
      "velocity": 99,
      "chip": "ym2612"
    },
    {
      "channel": 3,
      "note": 57,
      "start": 69.4984,
      "duration": 0.0212,
      "velocity": 86,
      "chip": "ym2612"
    },
    {
      "channel": 0,
      "note": 64,
      "start": 69.6651,
      "duration": 0.1537,
      "velocity": 100,
      "chip": "ym2612"
    },
    {
      "channel": 0,
      "note": 72,
      "start": 69.8571,
      "duration": 0.1681,
      "velocity": 100,
      "chip": "ym2612"
    },
    {
      "channel": 1,
      "note": 52,
      "start": 69.8639,
      "duration": 0.0568,
      "velocity": 86,
      "chip": "ym2612"
    },
    {
      "channel": 3,
      "note": 67,
      "start": 69.8718,
      "duration": 0.0492,
      "velocity": 127,
      "chip": "ym2612"
    },
    {
      "channel": 0,
      "note": 67,
      "start": 70.0491,
      "duration": 0.1681,
      "velocity": 100,
      "chip": "ym2612"
    },
    {
      "channel": 0,
      "note": 60,
      "start": 70.2608,
      "duration": 0.0436,
      "velocity": 86,
      "chip": "ym2612"
    },
    {
      "channel": 1,
      "note": 40,
      "start": 70.2676,
      "duration": 0.7352,
      "velocity": 99,
      "chip": "ym2612"
    },
    {
      "channel": 2,
      "note": 24,
      "start": 70.2746,
      "duration": 0.0303,
      "velocity": 112,
      "chip": "ym2612"
    },
    {
      "channel": 0,
      "note": 24,
      "start": 70.348,
      "duration": 0.0612,
      "velocity": 112,
      "chip": "ym2612"
    },
    {
      "channel": 0,
      "note": 60,
      "start": 70.4528,
      "duration": 0.0611,
      "velocity": 86,
      "chip": "ym2612"
    },
    {
      "channel": 0,
      "note": 55,
      "start": 70.6428,
      "duration": 0.0633,
      "velocity": 86,
      "chip": "ym2612"
    },
    {
      "channel": 2,
      "note": 67,
      "start": 70.6505,
      "duration": 0.0559,
      "velocity": 127,
      "chip": "ym2612"
    },
    {
      "channel": 0,
      "note": 57,
      "start": 71.0441,
      "duration": 0.0459,
      "velocity": 86,
      "chip": "ym2612"
    },
    {
      "channel": 1,
      "note": 24,
      "start": 71.0509,
      "duration": 0.0393,
      "velocity": 112,
      "chip": "ym2612"
    },
    {
      "channel": 2,
      "note": 48,
      "start": 71.0578,
      "duration": 0.7308,
      "velocity": 99,
      "chip": "ym2612"
    },
    {
      "channel": 3,
      "note": 69,
      "start": 71.065,
      "duration": 0.1303,
      "velocity": 100,
      "chip": "ym2612"
    },
    {
      "channel": 0,
      "note": 64,
      "start": 71.2383,
      "duration": 0.1484,
      "velocity": 100,
      "chip": "ym2612"
    },
    {
      "channel": 0,
      "note": 72,
      "start": 71.4281,
      "duration": 0.1681,
      "velocity": 100,
      "chip": "ym2612"
    },
    {
      "channel": 1,
      "note": 52,
      "start": 71.4348,
      "duration": 0.0569,
      "velocity": 86,
      "chip": "ym2612"
    },
    {
      "channel": 3,
      "note": 67,
      "start": 71.4428,
      "duration": 0.0492,
      "velocity": 127,
      "chip": "ym2612"
    },
    {
      "channel": 0,
      "note": 67,
      "start": 71.6231,
      "duration": 0.0633,
      "velocity": 127,
      "chip": "ym2612"
    },
    {
      "channel": 1,
      "note": 67,
      "start": 71.6299,
      "duration": 0.1585,
      "velocity": 100,
      "chip": "ym2612"
    },
    {
      "channel": 0,
      "note": 67,
      "start": 71.7255,
      "duration": 0.0626,
      "velocity": 127,
      "chip": "ym2612"
    },
    {
      "channel": 0,
      "note": 60,
      "start": 71.8354,
      "duration": 0.0401,
      "velocity": 86,
      "chip": "ym2612"
    },
    {
      "channel": 1,
      "note": 43,
      "start": 71.8423,
      "duration": 0.7316,
      "velocity": 99,
      "chip": "ym2612"
    },
    {
      "channel": 2,
      "note": 24,
      "start": 71.8493,
      "duration": 0.0266,
      "velocity": 112,
      "chip": "ym2612"
    },
    {
      "channel": 0,
      "note": 24,
      "start": 71.919,
      "duration": 0.0612,
      "velocity": 112,
      "chip": "ym2612"
    },
    {
      "channel": 0,
      "note": 60,
      "start": 72.0238,
      "duration": 0.0611,
      "velocity": 86,
      "chip": "ym2612"
    },
    {
      "channel": 0,
      "note": 55,
      "start": 72.2136,
      "duration": 0.0635,
      "velocity": 86,
      "chip": "ym2612"
    },
    {
      "channel": 2,
      "note": 67,
      "start": 72.2213,
      "duration": 0.0561,
      "velocity": 127,
      "chip": "ym2612"
    },
    {
      "channel": 0,
      "note": 67,
      "start": 72.4085,
      "duration": 0.0604,
      "velocity": 127,
      "chip": "ym2612"
    },
    {
      "channel": 0,
      "note": 67,
      "start": 72.511,
      "duration": 0.0626,
      "velocity": 127,
      "chip": "ym2612"
    },
    {
      "channel": 0,
      "note": 57,
      "start": 72.6185,
      "duration": 0.0599,
      "velocity": 86,
      "chip": "ym2612"
    },
    {
      "channel": 1,
      "note": 24,
      "start": 72.6253,
      "duration": 0.0534,
      "velocity": 112,
      "chip": "ym2612"
    },
    {
      "channel": 2,
      "note": 45,
      "start": 72.6322,
      "duration": 0.7448,
      "velocity": 99,
      "chip": "ym2612"
    },
    {
      "channel": 3,
      "note": 69,
      "start": 72.6393,
      "duration": 0.1443,
      "velocity": 100,
      "chip": "ym2612"
    },
    {
      "channel": 4,
      "note": 45,
      "start": 72.6466,
      "duration": 0.7308,
      "velocity": 87,
      "chip": "ym2612"
    },
    {
      "channel": 0,
      "note": 64,
      "start": 72.8271,
      "duration": 0.1482,
      "velocity": 100,
      "chip": "ym2612"
    },
    {
      "channel": 0,
      "note": 72,
      "start": 73.0166,
      "duration": 0.1681,
      "velocity": 100,
      "chip": "ym2612"
    },
    {
      "channel": 1,
      "note": 52,
      "start": 73.0234,
      "duration": 0.0567,
      "velocity": 86,
      "chip": "ym2612"
    },
    {
      "channel": 3,
      "note": 67,
      "start": 73.0313,
      "duration": 0.0491,
      "velocity": 127,
      "chip": "ym2612"
    },
    {
      "channel": 0,
      "note": 67,
      "start": 73.2085,
      "duration": 0.1681,
      "velocity": 100,
      "chip": "ym2612"
    },
    {
      "channel": 0,
      "note": 60,
      "start": 73.4202,
      "duration": 0.0438,
      "velocity": 86,
      "chip": "ym2612"
    },
    {
      "channel": 1,
      "note": 45,
      "start": 73.4271,
      "duration": 0.1417,
      "velocity": 87,
      "chip": "ym2612"
    },
    {
      "channel": 2,
      "note": 40,
      "start": 73.4318,
      "duration": 0.7307,
      "velocity": 99,
      "chip": "ym2612"
    },
    {
      "channel": 3,
      "note": 24,
      "start": 73.439,
      "duration": 0.0256,
      "velocity": 112,
      "chip": "ym2612"
    },
    {
      "channel": 0,
      "note": 24,
      "start": 73.5075,
      "duration": 0.0611,
      "velocity": 112,
      "chip": "ym2612"
    },
    {
      "channel": 0,
      "note": 48,
      "start": 73.6121,
      "duration": 0.1485,
      "velocity": 87,
      "chip": "ym2612"
    },
    {
      "channel": 1,
      "note": 60,
      "start": 73.6189,
      "duration": 0.0546,
      "velocity": 86,
      "chip": "ym2612"
    },
    {
      "channel": 0,
      "note": 55,
      "start": 73.8043,
      "duration": 0.0611,
      "velocity": 86,
      "chip": "ym2612"
    },
    {
      "channel": 1,
      "note": 43,
      "start": 73.811,
      "duration": 0.1593,
      "velocity": 87,
      "chip": "ym2612"
    },
    {
      "channel": 3,
      "note": 67,
      "start": 73.819,
      "duration": 0.0469,
      "velocity": 127,
      "chip": "ym2612"
    },
    {
      "channel": 0,
      "note": 40,
      "start": 74.0,
      "duration": 0.1622,
      "velocity": 87,
      "chip": "ym2612"
    },
    {
      "channel": 0,
      "note": 45,
      "start": 74.2034,
      "duration": 0.7616,
      "velocity": 87,
      "chip": "ym2612"
    },
    {
      "channel": 1,
      "note": 57,
      "start": 74.2104,
      "duration": 0.0567,
      "velocity": 86,
      "chip": "ym2612"
    },
    {
      "channel": 2,
      "note": 24,
      "start": 74.2173,
      "duration": 0.05,
      "velocity": 112,
      "chip": "ym2612"
    },
    {
      "channel": 3,
      "note": 48,
      "start": 74.2244,
      "duration": 0.7411,
      "velocity": 99,
      "chip": "ym2612"
    },
    {
      "channel": 4,
      "note": 69,
      "start": 74.2317,
      "duration": 0.1405,
      "velocity": 100,
      "chip": "ym2612"
    },
    {
      "channel": 1,
      "note": 67,
      "start": 74.4154,
      "duration": 0.1506,
      "velocity": 100,
      "chip": "ym2612"
    },
    {
      "channel": 1,
      "note": 64,
      "start": 74.6052,
      "duration": 0.1681,
      "velocity": 100,
      "chip": "ym2612"
    },
    {
      "channel": 2,
      "note": 52,
      "start": 74.6121,
      "duration": 0.0566,
      "velocity": 86,
      "chip": "ym2612"
    },
    {
      "channel": 4,
      "note": 67,
      "start": 74.6202,
      "duration": 0.0488,
      "velocity": 127,
      "chip": "ym2612"
    },
    {
      "channel": 1,
      "note": 60,
      "start": 74.7972,
      "duration": 0.9536,
      "velocity": 100,
      "chip": "ym2612"
    },
    {
      "channel": 0,
      "note": 60,
      "start": 75.0085,
      "duration": 0.0438,
      "velocity": 86,
      "chip": "ym2612"
    },
    {
      "channel": 2,
      "note": 43,
      "start": 75.0155,
      "duration": 0.7355,
      "velocity": 99,
      "chip": "ym2612"
    },
    {
      "channel": 3,
      "note": 24,
      "start": 75.0226,
      "duration": 0.0303,
      "velocity": 112,
      "chip": "ym2612"
    },
    {
      "channel": 4,
      "note": 45,
      "start": 75.0299,
      "duration": 0.1278,
      "velocity": 87,
      "chip": "ym2612"
    },
    {
      "channel": 0,
      "note": 24,
      "start": 75.0959,
      "duration": 0.0611,
      "velocity": 112,
      "chip": "ym2612"
    },
    {
      "channel": 0,
      "note": 48,
      "start": 75.2007,
      "duration": 0.1484,
      "velocity": 87,
      "chip": "ym2612"
    },
    {
      "channel": 3,
      "note": 60,
      "start": 75.2078,
      "duration": 0.0544,
      "velocity": 86,
      "chip": "ym2612"
    },
    {
      "channel": 0,
      "note": 55,
      "start": 75.393,
      "duration": 0.0607,
      "velocity": 86,
      "chip": "ym2612"
    },
    {
      "channel": 3,
      "note": 43,
      "start": 75.4001,
      "duration": 0.159,
      "velocity": 87,
      "chip": "ym2612"
    },
    {
      "channel": 4,
      "note": 67,
      "start": 75.4083,
      "duration": 0.0462,
      "velocity": 127,
      "chip": "ym2612"
    },
    {
      "channel": 0,
      "note": 67,
      "start": 75.4982,
      "duration": 0.0604,
      "velocity": 127,
      "chip": "ym2612"
    },
    {
      "channel": 0,
      "note": 67,
      "start": 75.5843,
      "duration": 0.0615,
      "velocity": 127,
      "chip": "ym2612"
    },
    {
      "channel": 3,
      "note": 40,
      "start": 75.5892,
      "duration": 0.162,
      "velocity": 87,
      "chip": "ym2612"
    },
    {
      "channel": 0,
      "note": 67,
      "start": 75.6879,
      "duration": 0.0626,
      "velocity": 127,
      "chip": "ym2612"
    },
    {
      "channel": 0,
      "note": 47,
      "start": 75.7952,
      "duration": 0.7582,
      "velocity": 87,
      "chip": "ym2612"
    },
    {
      "channel": 1,
      "note": 59,
      "start": 75.802,
      "duration": 0.0535,
      "velocity": 86,
      "chip": "ym2612"
    },
    {
      "channel": 2,
      "note": 24,
      "start": 75.8091,
      "duration": 0.0466,
      "velocity": 112,
      "chip": "ym2612"
    },
    {
      "channel": 3,
      "note": 47,
      "start": 75.8162,
      "duration": 0.7378,
      "velocity": 99,
      "chip": "ym2612"
    },
    {
      "channel": 4,
      "note": 71,
      "start": 75.8235,
      "duration": 0.1373,
      "velocity": 100,
      "chip": "ym2612"
    },
    {
      "channel": 1,
      "note": 66,
      "start": 76.0038,
      "duration": 0.1484,
      "velocity": 100,
      "chip": "ym2612"
    },
    {
      "channel": 1,
      "note": 74,
      "start": 76.1936,
      "duration": 0.168,
      "velocity": 100,
      "chip": "ym2612"
    },
    {
      "channel": 2,
      "note": 54,
      "start": 76.2005,
      "duration": 0.0565,
      "velocity": 86,
      "chip": "ym2612"
    },
    {
      "channel": 4,
      "note": 67,
      "start": 76.2087,
      "duration": 0.0487,
      "velocity": 127,
      "chip": "ym2612"
    },
    {
      "channel": 1,
      "note": 69,
      "start": 76.3856,
      "duration": 0.1681,
      "velocity": 100,
      "chip": "ym2612"
    },
    {
      "channel": 0,
      "note": 62,
      "start": 76.5972,
      "duration": 0.0436,
      "velocity": 86,
      "chip": "ym2612"
    },
    {
      "channel": 1,
      "note": 42,
      "start": 76.6039,
      "duration": 0.7353,
      "velocity": 99,
      "chip": "ym2612"
    },
    {
      "channel": 2,
      "note": 24,
      "start": 76.6109,
      "duration": 0.0303,
      "velocity": 112,
      "chip": "ym2612"
    },
    {
      "channel": 3,
      "note": 47,
      "start": 76.618,
      "duration": 0.1282,
      "velocity": 87,
      "chip": "ym2612"
    },
    {
      "channel": 0,
      "note": 24,
      "start": 76.6844,
      "duration": 0.0612,
      "velocity": 112,
      "chip": "ym2612"
    },
    {
      "channel": 0,
      "note": 50,
      "start": 76.7891,
      "duration": 0.1484,
      "velocity": 87,
      "chip": "ym2612"
    },
    {
      "channel": 2,
      "note": 62,
      "start": 76.7961,
      "duration": 0.0545,
      "velocity": 86,
      "chip": "ym2612"
    },
    {
      "channel": 0,
      "note": 57,
      "start": 76.9811,
      "duration": 0.0611,
      "velocity": 86,
      "chip": "ym2612"
    },
    {
      "channel": 2,
      "note": 45,
      "start": 76.988,
      "duration": 0.1593,
      "velocity": 87,
      "chip": "ym2612"
    },
    {
      "channel": 3,
      "note": 67,
      "start": 76.996,
      "duration": 0.0467,
      "velocity": 127,
      "chip": "ym2612"
    },
    {
      "channel": 0,
      "note": 42,
      "start": 77.173,
      "duration": 0.1659,
      "velocity": 87,
      "chip": "ym2612"
    },
    {
      "channel": 0,
      "note": 47,
      "start": 77.3803,
      "duration": 0.7616,
      "velocity": 87,
      "chip": "ym2612"
    },
    {
      "channel": 1,
      "note": 59,
      "start": 77.3871,
      "duration": 0.0569,
      "velocity": 86,
      "chip": "ym2612"
    },
    {
      "channel": 2,
      "note": 24,
      "start": 77.394,
      "duration": 0.0502,
      "velocity": 112,
      "chip": "ym2612"
    },
    {
      "channel": 3,
      "note": 50,
      "start": 77.4011,
      "duration": 0.7415,
      "velocity": 99,
      "chip": "ym2612"
    },
    {
      "channel": 4,
      "note": 71,
      "start": 77.4084,
      "duration": 0.1408,
      "velocity": 100,
      "chip": "ym2612"
    },
    {
      "channel": 1,
      "note": 66,
      "start": 77.5924,
      "duration": 0.1483,
      "velocity": 100,
      "chip": "ym2612"
    },
    {
      "channel": 1,
      "note": 74,
      "start": 77.782,
      "duration": 0.1681,
      "velocity": 100,
      "chip": "ym2612"
    },
    {
      "channel": 2,
      "note": 54,
      "start": 77.789,
      "duration": 0.0567,
      "velocity": 86,
      "chip": "ym2612"
    },
    {
      "channel": 4,
      "note": 67,
      "start": 77.7971,
      "duration": 0.0489,
      "velocity": 127,
      "chip": "ym2612"
    },
    {
      "channel": 1,
      "note": 67,
      "start": 77.977,
      "duration": 0.0603,
      "velocity": 127,
      "chip": "ym2612"
    },
    {
      "channel": 2,
      "note": 69,
      "start": 77.984,
      "duration": 0.1584,
      "velocity": 100,
      "chip": "ym2612"
    },
    {
      "channel": 1,
      "note": 67,
      "start": 78.0795,
      "duration": 0.0627,
      "velocity": 127,
      "chip": "ym2612"
    },
    {
      "channel": 0,
      "note": 62,
      "start": 78.1856,
      "duration": 0.0437,
      "velocity": 86,
      "chip": "ym2612"
    },
    {
      "channel": 1,
      "note": 45,
      "start": 78.1925,
      "duration": 0.7351,
      "velocity": 99,
      "chip": "ym2612"
    },
    {
      "channel": 2,
      "note": 24,
      "start": 78.1995,
      "duration": 0.0301,
      "velocity": 112,
      "chip": "ym2612"
    },
    {
      "channel": 3,
      "note": 47,
      "start": 78.2066,
      "duration": 0.128,
      "velocity": 87,
      "chip": "ym2612"
    },
    {
      "channel": 0,
      "note": 24,
      "start": 78.2727,
      "duration": 0.0613,
      "velocity": 112,
      "chip": "ym2612"
    },
    {
      "channel": 0,
      "note": 50,
      "start": 78.3776,
      "duration": 0.1484,
      "velocity": 87,
      "chip": "ym2612"
    },
    {
      "channel": 2,
      "note": 62,
      "start": 78.3845,
      "duration": 0.0545,
      "velocity": 86,
      "chip": "ym2612"
    },
    {
      "channel": 3,
      "note": 66,
      "start": 78.3916,
      "duration": 0.1349,
      "velocity": 100,
      "chip": "ym2612"
    },
    {
      "channel": 0,
      "note": 62,
      "start": 78.5695,
      "duration": 0.3578,
      "velocity": 100,
      "chip": "ym2612"
    },
    {
      "channel": 2,
      "note": 57,
      "start": 78.5743,
      "duration": 0.0569,
      "velocity": 86,
      "chip": "ym2612"
    },
    {
      "channel": 3,
      "note": 45,
      "start": 78.5814,
      "duration": 0.1545,
      "velocity": 87,
      "chip": "ym2612"
    },
    {
      "channel": 4,
      "note": 67,
      "start": 78.5871,
      "duration": 0.0444,
      "velocity": 127,
      "chip": "ym2612"
    },
    {
      "channel": 2,
      "note": 67,
      "start": 78.7627,
      "duration": 0.0604,
      "velocity": 127,
      "chip": "ym2612"
    },
    {
      "channel": 3,
      "note": 42,
      "start": 78.7676,
      "duration": 0.1605,
      "velocity": 87,
      "chip": "ym2612"
    },
    {
      "channel": 2,
      "note": 67,
      "start": 78.8651,
      "duration": 0.0628,
      "velocity": 127,
      "chip": "ym2612"
    },
    {
      "channel": 0,
      "note": 40,
      "start": 78.9716,
      "duration": 0.7589,
      "velocity": 87,
      "chip": "ym2612"
    },
    {
      "channel": 1,
      "note": 52,
      "start": 78.9783,
      "duration": 0.054,
      "velocity": 86,
      "chip": "ym2612"
    },
    {
      "channel": 2,
      "note": 64,
      "start": 78.9853,
      "duration": 0.152,
      "velocity": 100,
      "chip": "ym2612"
    },
    {
      "channel": 3,
      "note": 24,
      "start": 78.9926,
      "duration": 0.0401,
      "velocity": 112,
      "chip": "ym2612"
    },
    {
      "channel": 4,
      "note": 40,
      "start": 78.9998,
      "duration": 0.7314,
      "velocity": 99,
      "chip": "ym2612"
    },
    {
      "channel": 1,
      "note": 59,
      "start": 79.1807,
      "duration": 0.1484,
      "velocity": 100,
      "chip": "ym2612"
    },
    {
      "channel": 1,
      "note": 67,
      "start": 79.3704,
      "duration": 0.1681,
      "velocity": 100,
      "chip": "ym2612"
    },
    {
      "channel": 2,
      "note": 47,
      "start": 79.3775,
      "duration": 0.0566,
      "velocity": 86,
      "chip": "ym2612"
    },
    {
      "channel": 3,
      "note": 67,
      "start": 79.3855,
      "duration": 0.0488,
      "velocity": 127,
      "chip": "ym2612"
    },
    {
      "channel": 1,
      "note": 62,
      "start": 79.5624,
      "duration": 0.1684,
      "velocity": 100,
      "chip": "ym2612"
    },
    {
      "channel": 0,
      "note": 55,
      "start": 79.7745,
      "duration": 0.0431,
      "velocity": 86,
      "chip": "ym2612"
    },
    {
      "channel": 1,
      "note": 35,
      "start": 79.7812,
      "duration": 0.7349,
      "velocity": 99,
      "chip": "ym2612"
    },
    {
      "channel": 2,
      "note": 24,
      "start": 79.7882,
      "duration": 0.0298,
      "velocity": 112,
      "chip": "ym2612"
    },
    {
      "channel": 3,
      "note": 40,
      "start": 79.7953,
      "duration": 0.1277,
      "velocity": 87,
      "chip": "ym2612"
    },
    {
      "channel": 0,
      "note": 24,
      "start": 79.8612,
      "duration": 0.0613,
      "velocity": 112,
      "chip": "ym2612"
    },
    {
      "channel": 0,
      "note": 43,
      "start": 79.966,
      "duration": 0.1484,
      "velocity": 87,
      "chip": "ym2612"
    },
    {
      "channel": 2,
      "note": 55,
      "start": 79.9729,
      "duration": 0.0545,
      "velocity": 86,
      "chip": "ym2612"
    },
    {
      "channel": 0,
      "note": 50,
      "start": 80.1579,
      "duration": 0.0612,
      "velocity": 86,
      "chip": "ym2612"
    },
    {
      "channel": 2,
      "note": 38,
      "start": 80.1649,
      "duration": 0.1592,
      "velocity": 87,
      "chip": "ym2612"
    },
    {
      "channel": 3,
      "note": 67,
      "start": 80.1729,
      "duration": 0.0468,
      "velocity": 127,
      "chip": "ym2612"
    },
    {
      "channel": 0,
      "note": 35,
      "start": 80.3501,
      "duration": 0.1659,
      "velocity": 87,
      "chip": "ym2612"
    },
    {
      "channel": 0,
      "note": 40,
      "start": 80.5573,
      "duration": 0.7616,
      "velocity": 87,
      "chip": "ym2612"
    },
    {
      "channel": 1,
      "note": 52,
      "start": 80.564,
      "duration": 0.0567,
      "velocity": 86,
      "chip": "ym2612"
    },
    {
      "channel": 2,
      "note": 24,
      "start": 80.571,
      "duration": 0.0499,
      "velocity": 112,
      "chip": "ym2612"
    },
    {
      "channel": 3,
      "note": 43,
      "start": 80.5781,
      "duration": 0.7414,
      "velocity": 99,
      "chip": "ym2612"
    },
    {
      "channel": 4,
      "note": 64,
      "start": 80.5854,
      "duration": 0.1406,
      "velocity": 100,
      "chip": "ym2612"
    },
    {
      "channel": 1,
      "note": 59,
      "start": 80.769,
      "duration": 0.1485,
      "velocity": 100,
      "chip": "ym2612"
    },
    {
      "channel": 1,
      "note": 67,
      "start": 80.9589,
      "duration": 0.1681,
      "velocity": 100,
      "chip": "ym2612"
    },
    {
      "channel": 2,
      "note": 47,
      "start": 80.9658,
      "duration": 0.0567,
      "velocity": 86,
      "chip": "ym2612"
    },
    {
      "channel": 4,
      "note": 67,
      "start": 80.9739,
      "duration": 0.049,
      "velocity": 127,
      "chip": "ym2612"
    },
    {
      "channel": 1,
      "note": 62,
      "start": 81.151,
      "duration": 0.1681,
      "velocity": 100,
      "chip": "ym2612"
    },
    {
      "channel": 0,
      "note": 55,
      "start": 81.3624,
      "duration": 0.0436,
      "velocity": 86,
      "chip": "ym2612"
    },
    {
      "channel": 1,
      "note": 38,
      "start": 81.3692,
      "duration": 0.7354,
      "velocity": 99,
      "chip": "ym2612"
    },
    {
      "channel": 2,
      "note": 24,
      "start": 81.3763,
      "duration": 0.0302,
      "velocity": 112,
      "chip": "ym2612"
    },
    {
      "channel": 3,
      "note": 40,
      "start": 81.3834,
      "duration": 0.1279,
      "velocity": 87,
      "chip": "ym2612"
    },
    {
      "channel": 0,
      "note": 24,
      "start": 81.4496,
      "duration": 0.0613,
      "velocity": 112,
      "chip": "ym2612"
    },
    {
      "channel": 0,
      "note": 43,
      "start": 81.5544,
      "duration": 0.1485,
      "velocity": 87,
      "chip": "ym2612"
    },
    {
      "channel": 2,
      "note": 55,
      "start": 81.5613,
      "duration": 0.0546,
      "velocity": 86,
      "chip": "ym2612"
    },
    {
      "channel": 3,
      "note": 64,
      "start": 81.5684,
      "duration": 0.1349,
      "velocity": 100,
      "chip": "ym2612"
    },
    {
      "channel": 0,
      "note": 67,
      "start": 81.7463,
      "duration": 0.358,
      "velocity": 100,
      "chip": "ym2612"
    },
    {
      "channel": 2,
      "note": 50,
      "start": 81.7511,
      "duration": 0.0569,
      "velocity": 86,
      "chip": "ym2612"
    },
    {
      "channel": 3,
      "note": 38,
      "start": 81.7582,
      "duration": 0.1546,
      "velocity": 87,
      "chip": "ym2612"
    },
    {
      "channel": 4,
      "note": 67,
      "start": 81.7639,
      "duration": 0.0444,
      "velocity": 127,
      "chip": "ym2612"
    },
    {
      "channel": 2,
      "note": 67,
      "start": 81.8523,
      "duration": 0.0602,
      "velocity": 127,
      "chip": "ym2612"
    },
    {
      "channel": 2,
      "note": 67,
      "start": 81.9373,
      "duration": 0.0627,
      "velocity": 127,
      "chip": "ym2612"
    },
    {
      "channel": 3,
      "note": 35,
      "start": 81.9422,
      "duration": 0.1629,
      "velocity": 87,
      "chip": "ym2612"
    },
    {
      "channel": 2,
      "note": 67,
      "start": 82.042,
      "duration": 0.0629,
      "velocity": 127,
      "chip": "ym2612"
    },
    {
      "channel": 0,
      "note": 45,
      "start": 82.1489,
      "duration": 0.7584,
      "velocity": 87,
      "chip": "ym2612"
    },
    {
      "channel": 1,
      "note": 57,
      "start": 82.1557,
      "duration": 0.0535,
      "velocity": 86,
      "chip": "ym2612"
    },
    {
      "channel": 2,
      "note": 69,
      "start": 82.1626,
      "duration": 0.1515,
      "velocity": 100,
      "chip": "ym2612"
    },
    {
      "channel": 3,
      "note": 24,
      "start": 82.1698,
      "duration": 0.0398,
      "velocity": 112,
      "chip": "ym2612"
    },
    {
      "channel": 4,
      "note": 45,
      "start": 82.1772,
      "duration": 0.7308,
      "velocity": 99,
      "chip": "ym2612"
    },
    {
      "channel": 1,
      "note": 64,
      "start": 82.3575,
      "duration": 0.1485,
      "velocity": 100,
      "chip": "ym2612"
    },
    {
      "channel": 1,
      "note": 72,
      "start": 82.5472,
      "duration": 0.1683,
      "velocity": 100,
      "chip": "ym2612"
    },
    {
      "channel": 2,
      "note": 52,
      "start": 82.5542,
      "duration": 0.0567,
      "velocity": 86,
      "chip": "ym2612"
    },
    {
      "channel": 3,
      "note": 67,
      "start": 82.5622,
      "duration": 0.049,
      "velocity": 127,
      "chip": "ym2612"
    },
    {
      "channel": 1,
      "note": 67,
      "start": 82.7394,
      "duration": 0.1681,
      "velocity": 100,
      "chip": "ym2612"
    },
    {
      "channel": 0,
      "note": 60,
      "start": 82.951,
      "duration": 0.0435,
      "velocity": 86,
      "chip": "ym2612"
    },
    {
      "channel": 1,
      "note": 40,
      "start": 82.9578,
      "duration": 0.7352,
      "velocity": 99,
      "chip": "ym2612"
    },
    {
      "channel": 2,
      "note": 24,
      "start": 82.9647,
      "duration": 0.0302,
      "velocity": 112,
      "chip": "ym2612"
    },
    {
      "channel": 3,
      "note": 45,
      "start": 82.9718,
      "duration": 0.1279,
      "velocity": 87,
      "chip": "ym2612"
    },
    {
      "channel": 0,
      "note": 24,
      "start": 83.0382,
      "duration": 0.0611,
      "velocity": 112,
      "chip": "ym2612"
    },
    {
      "channel": 0,
      "note": 48,
      "start": 83.1432,
      "duration": 0.1481,
      "velocity": 87,
      "chip": "ym2612"
    },
    {
      "channel": 2,
      "note": 60,
      "start": 83.1501,
      "duration": 0.0543,
      "velocity": 86,
      "chip": "ym2612"
    },
    {
      "channel": 0,
      "note": 55,
      "start": 83.3348,
      "duration": 0.0612,
      "velocity": 86,
      "chip": "ym2612"
    },
    {
      "channel": 2,
      "note": 43,
      "start": 83.3417,
      "duration": 0.1595,
      "velocity": 87,
      "chip": "ym2612"
    },
    {
      "channel": 3,
      "note": 67,
      "start": 83.3496,
      "duration": 0.0469,
      "velocity": 127,
      "chip": "ym2612"
    },
    {
      "channel": 0,
      "note": 40,
      "start": 83.5271,
      "duration": 0.1657,
      "velocity": 87,
      "chip": "ym2612"
    },
    {
      "channel": 0,
      "note": 45,
      "start": 83.7341,
      "duration": 0.7615,
      "velocity": 87,
      "chip": "ym2612"
    },
    {
      "channel": 1,
      "note": 57,
      "start": 83.7409,
      "duration": 0.0567,
      "velocity": 86,
      "chip": "ym2612"
    },
    {
      "channel": 2,
      "note": 24,
      "start": 83.7479,
      "duration": 0.0499,
      "velocity": 112,
      "chip": "ym2612"
    },
    {
      "channel": 3,
      "note": 48,
      "start": 83.755,
      "duration": 0.7413,
      "velocity": 99,
      "chip": "ym2612"
    },
    {
      "channel": 4,
      "note": 69,
      "start": 83.7622,
      "duration": 0.1406,
      "velocity": 100,
      "chip": "ym2612"
    },
    {
      "channel": 1,
      "note": 67,
      "start": 83.9459,
      "duration": 0.1485,
      "velocity": 100,
      "chip": "ym2612"
    },
    {
      "channel": 1,
      "note": 64,
      "start": 84.1358,
      "duration": 0.168,
      "velocity": 100,
      "chip": "ym2612"
    },
    {
      "channel": 2,
      "note": 52,
      "start": 84.1429,
      "duration": 0.0563,
      "velocity": 86,
      "chip": "ym2612"
    },
    {
      "channel": 4,
      "note": 67,
      "start": 84.1511,
      "duration": 0.0485,
      "velocity": 127,
      "chip": "ym2612"
    },
    {
      "channel": 1,
      "note": 67,
      "start": 84.3308,
      "duration": 0.0612,
      "velocity": 127,
      "chip": "ym2612"
    },
    {
      "channel": 2,
      "note": 60,
      "start": 84.3377,
      "duration": 0.9439,
      "velocity": 100,
      "chip": "ym2612"
    },
    {
      "channel": 1,
      "note": 67,
      "start": 84.4332,
      "duration": 0.0627,
      "velocity": 127,
      "chip": "ym2612"
    },
    {
      "channel": 0,
      "note": 60,
      "start": 84.5407,
      "duration": 0.0423,
      "velocity": 86,
      "chip": "ym2612"
    },
    {
      "channel": 1,
      "note": 43,
      "start": 84.5475,
      "duration": 0.7339,
      "velocity": 99,
      "chip": "ym2612"
    },
    {
      "channel": 3,
      "note": 24,
      "start": 84.5546,
      "duration": 0.0289,
      "velocity": 112,
      "chip": "ym2612"
    },
    {
      "channel": 4,
      "note": 45,
      "start": 84.5619,
      "duration": 0.1266,
      "velocity": 87,
      "chip": "ym2612"
    },
    {
      "channel": 0,
      "note": 24,
      "start": 84.6269,
      "duration": 0.0609,
      "velocity": 112,
      "chip": "ym2612"
    },
    {
      "channel": 0,
      "note": 48,
      "start": 84.7313,
      "duration": 0.1485,
      "velocity": 87,
      "chip": "ym2612"
    },
    {
      "channel": 3,
      "note": 60,
      "start": 84.7384,
      "duration": 0.0545,
      "velocity": 86,
      "chip": "ym2612"
    },
    {
      "channel": 0,
      "note": 55,
      "start": 84.9233,
      "duration": 0.0611,
      "velocity": 86,
      "chip": "ym2612"
    },
    {
      "channel": 3,
      "note": 43,
      "start": 84.9304,
      "duration": 0.1592,
      "velocity": 87,
      "chip": "ym2612"
    },
    {
      "channel": 4,
      "note": 67,
      "start": 84.9385,
      "duration": 0.0466,
      "velocity": 127,
      "chip": "ym2612"
    },
    {
      "channel": 0,
      "note": 67,
      "start": 85.1161,
      "duration": 0.0604,
      "velocity": 127,
      "chip": "ym2612"
    },
    {
      "channel": 3,
      "note": 40,
      "start": 85.121,
      "duration": 0.1608,
      "velocity": 87,
      "chip": "ym2612"
    },
    {
      "channel": 0,
      "note": 67,
      "start": 85.2185,
      "duration": 0.0626,
      "velocity": 127,
      "chip": "ym2612"
    },
    {
      "channel": 0,
      "note": 45,
      "start": 85.3255,
      "duration": 0.7585,
      "velocity": 87,
      "chip": "ym2612"
    },
    {
      "channel": 1,
      "note": 57,
      "start": 85.3323,
      "duration": 0.0538,
      "velocity": 86,
      "chip": "ym2612"
    },
    {
      "channel": 2,
      "note": 24,
      "start": 85.3392,
      "duration": 0.0471,
      "velocity": 112,
      "chip": "ym2612"
    },
    {
      "channel": 3,
      "note": 45,
      "start": 85.3463,
      "duration": 0.7384,
      "velocity": 99,
      "chip": "ym2612"
    },
    {
      "channel": 4,
      "note": 69,
      "start": 85.3536,
      "duration": 0.1378,
      "velocity": 100,
      "chip": "ym2612"
    },
    {
      "channel": 1,
      "note": 64,
      "start": 85.5344,
      "duration": 0.1484,
      "velocity": 100,
      "chip": "ym2612"
    },
    {
      "channel": 1,
      "note": 72,
      "start": 85.7242,
      "duration": 0.1681,
      "velocity": 100,
      "chip": "ym2612"
    },
    {
      "channel": 2,
      "note": 52,
      "start": 85.7311,
      "duration": 0.0567,
      "velocity": 86,
      "chip": "ym2612"
    },
    {
      "channel": 4,
      "note": 67,
      "start": 85.7393,
      "duration": 0.0489,
      "velocity": 127,
      "chip": "ym2612"
    },
    {
      "channel": 1,
      "note": 67,
      "start": 85.9168,
      "duration": 0.1675,
      "velocity": 100,
      "chip": "ym2612"
    },
    {
      "channel": 0,
      "note": 60,
      "start": 86.1278,
      "duration": 0.0436,
      "velocity": 86,
      "chip": "ym2612"
    },
    {
      "channel": 1,
      "note": 40,
      "start": 86.1346,
      "duration": 0.7354,
      "velocity": 99,
      "chip": "ym2612"
    },
    {
      "channel": 2,
      "note": 24,
      "start": 86.1415,
      "duration": 0.0303,
      "velocity": 112,
      "chip": "ym2612"
    },
    {
      "channel": 3,
      "note": 45,
      "start": 86.1485,
      "duration": 0.1281,
      "velocity": 87,
      "chip": "ym2612"
    },
    {
      "channel": 0,
      "note": 24,
      "start": 86.2149,
      "duration": 0.0613,
      "velocity": 112,
      "chip": "ym2612"
    },
    {
      "channel": 0,
      "note": 48,
      "start": 86.3197,
      "duration": 0.1485,
      "velocity": 87,
      "chip": "ym2612"
    },
    {
      "channel": 2,
      "note": 60,
      "start": 86.3268,
      "duration": 0.0545,
      "velocity": 86,
      "chip": "ym2612"
    },
    {
      "channel": 0,
      "note": 55,
      "start": 86.5117,
      "duration": 0.0613,
      "velocity": 86,
      "chip": "ym2612"
    },
    {
      "channel": 2,
      "note": 43,
      "start": 86.5186,
      "duration": 0.1593,
      "velocity": 87,
      "chip": "ym2612"
    },
    {
      "channel": 3,
      "note": 67,
      "start": 86.5266,
      "duration": 0.0469,
      "velocity": 127,
      "chip": "ym2612"
    },
    {
      "channel": 0,
      "note": 40,
      "start": 86.7038,
      "duration": 0.1659,
      "velocity": 87,
      "chip": "ym2612"
    },
    {
      "channel": 0,
      "note": 45,
      "start": 86.9137,
      "duration": 0.0606,
      "velocity": 100,
      "chip": "ym2612"
    },
    {
      "channel": 1,
      "note": 57,
      "start": 86.9205,
      "duration": 0.0541,
      "velocity": 86,
      "chip": "ym2612"
    },
    {
      "channel": 2,
      "note": 24,
      "start": 86.9274,
      "duration": 0.0473,
      "velocity": 112,
      "chip": "ym2612"
    },
    {
      "channel": 3,
      "note": 48,
      "start": 86.9346,
      "duration": 0.7385,
      "velocity": 99,
      "chip": "ym2612"
    },
    {
      "channel": 4,
      "note": 69,
      "start": 86.9418,
      "duration": 0.138,
      "velocity": 100,
      "chip": "ym2612"
    },
    {
      "channel": 0,
      "note": 64,
      "start": 87.1204,
      "duration": 0.1506,
      "velocity": 100,
      "chip": "ym2612"
    },
    {
      "channel": 1,
      "note": 48,
      "start": 87.1274,
      "duration": 0.0567,
      "velocity": 100,
      "chip": "ym2612"
    },
    {
      "channel": 0,
      "note": 52,
      "start": 87.3124,
      "duration": 0.0634,
      "velocity": 100,
      "chip": "ym2612"
    },
    {
      "channel": 1,
      "note": 72,
      "start": 87.3169,
      "duration": 0.1639,
      "velocity": 100,
      "chip": "ym2612"
    },
    {
      "channel": 2,
      "note": 52,
      "start": 87.3239,
      "duration": 0.0524,
      "velocity": 86,
      "chip": "ym2612"
    },
    {
      "channel": 4,
      "note": 67,
      "start": 87.332,
      "duration": 0.0446,
      "velocity": 127,
      "chip": "ym2612"
    },
    {
      "channel": 0,
      "note": 67,
      "start": 87.5044,
      "duration": 0.1683,
      "velocity": 100,
      "chip": "ym2612"
    },
    {
      "channel": 1,
      "note": 43,
      "start": 87.5089,
      "duration": 0.0597,
      "velocity": 100,
      "chip": "ym2612"
    },
    {
      "channel": 0,
      "note": 45,
      "start": 87.7175,
      "duration": 0.0423,
      "velocity": 100,
      "chip": "ym2612"
    },
    {
      "channel": 1,
      "note": 64,
      "start": 87.7221,
      "duration": 0.1428,
      "velocity": 100,
      "chip": "ym2612"
    },
    {
      "channel": 2,
      "note": 60,
      "start": 87.7268,
      "duration": 0.0334,
      "velocity": 86,
      "chip": "ym2612"
    },
    {
      "channel": 3,
      "note": 36,
      "start": 87.7317,
      "duration": 0.727,
      "velocity": 99,
      "chip": "ym2612"
    },
    {
      "channel": 4,
      "note": 24,
      "start": 87.739,
      "duration": 0.0216,
      "velocity": 112,
      "chip": "ym2612"
    },
    {
      "channel": 0,
      "note": 24,
      "start": 87.8035,
      "duration": 0.0611,
      "velocity": 112,
      "chip": "ym2612"
    },
    {
      "channel": 0,
      "note": 60,
      "start": 87.9081,
      "duration": 0.0613,
      "velocity": 86,
      "chip": "ym2612"
    },
    {
      "channel": 1,
      "note": 60,
      "start": 87.9127,
      "duration": 0.1441,
      "velocity": 100,
      "chip": "ym2612"
    },
    {
      "channel": 2,
      "note": 48,
      "start": 87.9196,
      "duration": 0.0501,
      "velocity": 100,
      "chip": "ym2612"
    },
    {
      "channel": 0,
      "note": 52,
      "start": 88.1001,
      "duration": 0.0612,
      "velocity": 100,
      "chip": "ym2612"
    },
    {
      "channel": 1,
      "note": 57,
      "start": 88.1047,
      "duration": 0.1617,
      "velocity": 100,
      "chip": "ym2612"
    },
    {
      "channel": 2,
      "note": 55,
      "start": 88.1116,
      "duration": 0.0501,
      "velocity": 86,
      "chip": "ym2612"
    },
    {
      "channel": 4,
      "note": 67,
      "start": 88.1198,
      "duration": 0.0424,
      "velocity": 127,
      "chip": "ym2612"
    },
    {
      "channel": 0,
      "note": 67,
      "start": 88.2057,
      "duration": 0.0604,
      "velocity": 127,
      "chip": "ym2612"
    },
    {
      "channel": 0,
      "note": 67,
      "start": 88.2909,
      "duration": 0.0625,
      "velocity": 127,
      "chip": "ym2612"
    },
    {
      "channel": 1,
      "note": 55,
      "start": 88.2954,
      "duration": 0.1629,
      "velocity": 100,
      "chip": "ym2612"
    },
    {
      "channel": 2,
      "note": 43,
      "start": 88.3024,
      "duration": 0.0513,
      "velocity": 100,
      "chip": "ym2612"
    },
    {
      "channel": 0,
      "note": 67,
      "start": 88.3953,
      "duration": 0.0628,
      "velocity": 127,
      "chip": "ym2612"
    },
    {
      "channel": 0,
      "note": 45,
      "start": 88.5038,
      "duration": 0.1481,
      "velocity": 79,
      "chip": "ym2612"
    },
    {
      "channel": 1,
      "note": 57,
      "start": 88.5084,
      "duration": 0.037,
      "velocity": 100,
      "chip": "ym2612"
    },
    {
      "channel": 2,
      "note": 24,
      "start": 88.5154,
      "duration": 0.0303,
      "velocity": 112,
      "chip": "ym2612"
    },
    {
      "channel": 3,
      "note": 45,
      "start": 88.5202,
      "duration": 0.7239,
      "velocity": 99,
      "chip": "ym2612"
    },
    {
      "channel": 0,
      "note": 60,
      "start": 88.6938,
      "duration": 0.0611,
      "velocity": 100,
      "chip": "ym2612"
    },
    {
      "channel": 1,
      "note": 48,
      "start": 88.7005,
      "duration": 0.1417,
      "velocity": 79,
      "chip": "ym2612"
    },
    {
      "channel": 0,
      "note": 45,
      "start": 88.8856,
      "duration": 0.166,
      "velocity": 79,
      "chip": "ym2612"
    },
    {
      "channel": 1,
      "note": 64,
      "start": 88.8925,
      "duration": 0.0545,
      "velocity": 100,
      "chip": "ym2612"
    },
    {
      "channel": 2,
      "note": 67,
      "start": 88.9003,
      "duration": 0.047,
      "velocity": 127,
      "chip": "ym2612"
    },
    {
      "channel": 0,
      "note": 55,
      "start": 89.0777,
      "duration": 0.0611,
      "velocity": 100,
      "chip": "ym2612"
    },
    {
      "channel": 1,
      "note": 52,
      "start": 89.0845,
      "duration": 0.1593,
      "velocity": 79,
      "chip": "ym2612"
    },
    {
      "channel": 0,
      "note": 45,
      "start": 89.2871,
      "duration": 0.1485,
      "velocity": 79,
      "chip": "ym2612"
    },
    {
      "channel": 1,
      "note": 57,
      "start": 89.294,
      "duration": 0.0369,
      "velocity": 100,
      "chip": "ym2612"
    },
    {
      "channel": 2,
      "note": 40,
      "start": 89.301,
      "duration": 0.7284,
      "velocity": 99,
      "chip": "ym2612"
    },
    {
      "channel": 3,
      "note": 24,
      "start": 89.3081,
      "duration": 0.0232,
      "velocity": 112,
      "chip": "ym2612"
    },
    {
      "channel": 1,
      "note": 24,
      "start": 89.3747,
      "duration": 0.0611,
      "velocity": 112,
      "chip": "ym2612"
    },
    {
      "channel": 0,
      "note": 60,
      "start": 89.4791,
      "duration": 0.0612,
      "velocity": 100,
      "chip": "ym2612"
    },
    {
      "channel": 1,
      "note": 43,
      "start": 89.4859,
      "duration": 0.1418,
      "velocity": 79,
      "chip": "ym2612"
    },
    {
      "channel": 0,
      "note": 45,
      "start": 89.675,
      "duration": 0.1621,
      "velocity": 79,
      "chip": "ym2612"
    },
    {
      "channel": 1,
      "note": 64,
      "start": 89.6818,
      "duration": 0.0507,
      "velocity": 100,
      "chip": "ym2612"
    },
    {
      "channel": 3,
      "note": 67,
      "start": 89.6897,
      "duration": 0.0432,
      "velocity": 127,
      "chip": "ym2612"
    },
    {
      "channel": 0,
      "note": 55,
      "start": 89.8632,
      "duration": 0.0611,
      "velocity": 100,
      "chip": "ym2612"
    },
    {
      "channel": 1,
      "note": 52,
      "start": 89.87,
      "duration": 0.1593,
      "velocity": 79,
      "chip": "ym2612"
    },
    {
      "channel": 0,
      "note": 45,
      "start": 90.0726,
      "duration": 0.1485,
      "velocity": 79,
      "chip": "ym2612"
    },
    {
      "channel": 1,
      "note": 57,
      "start": 90.0794,
      "duration": 0.037,
      "velocity": 100,
      "chip": "ym2612"
    },
    {
      "channel": 2,
      "note": 24,
      "start": 90.0863,
      "duration": 0.0303,
      "velocity": 112,
      "chip": "ym2612"
    },
    {
      "channel": 3,
      "note": 48,
      "start": 90.0935,
      "duration": 0.7217,
      "velocity": 99,
      "chip": "ym2612"
    },
    {
      "channel": 0,
      "note": 60,
      "start": 90.2646,
      "duration": 0.0613,
      "velocity": 100,
      "chip": "ym2612"
    },
    {
      "channel": 1,
      "note": 48,
      "start": 90.2714,
      "duration": 0.1418,
      "velocity": 79,
      "chip": "ym2612"
    },
    {
      "channel": 0,
      "note": 45,
      "start": 90.4566,
      "duration": 0.166,
      "velocity": 79,
      "chip": "ym2612"
    },
    {
      "channel": 1,
      "note": 64,
      "start": 90.4633,
      "duration": 0.0547,
      "velocity": 100,
      "chip": "ym2612"
    },
    {
      "channel": 2,
      "note": 67,
      "start": 90.4711,
      "duration": 0.0471,
      "velocity": 127,
      "chip": "ym2612"
    },
    {
      "channel": 0,
      "note": 67,
      "start": 90.6496,
      "duration": 0.0602,
      "velocity": 127,
      "chip": "ym2612"
    },
    {
      "channel": 1,
      "note": 55,
      "start": 90.6541,
      "duration": 0.0559,
      "velocity": 100,
      "chip": "ym2612"
    },
    {
      "channel": 2,
      "note": 52,
      "start": 90.6611,
      "duration": 0.1539,
      "velocity": 79,
      "chip": "ym2612"
    },
    {
      "channel": 0,
      "note": 67,
      "start": 90.7518,
      "duration": 0.0628,
      "velocity": 127,
      "chip": "ym2612"
    },
    {
      "channel": 0,
      "note": 45,
      "start": 90.8581,
      "duration": 0.1485,
      "velocity": 79,
      "chip": "ym2612"
    },
    {
      "channel": 1,
      "note": 57,
      "start": 90.8627,
      "duration": 0.0393,
      "velocity": 100,
      "chip": "ym2612"
    },
    {
      "channel": 2,
      "note": 43,
      "start": 90.8696,
      "duration": 0.7309,
      "velocity": 99,
      "chip": "ym2612"
    },
    {
      "channel": 3,
      "note": 24,
      "start": 90.8767,
      "duration": 0.0256,
      "velocity": 112,
      "chip": "ym2612"
    },
    {
      "channel": 1,
      "note": 24,
      "start": 90.9456,
      "duration": 0.0612,
      "velocity": 112,
      "chip": "ym2612"
    },
    {
      "channel": 0,
      "note": 60,
      "start": 91.0499,
      "duration": 0.0659,
      "velocity": 100,
      "chip": "ym2612"
    },
    {
      "channel": 1,
      "note": 43,
      "start": 91.0567,
      "duration": 0.142,
      "velocity": 79,
      "chip": "ym2612"
    },
    {
      "channel": 0,
      "note": 45,
      "start": 91.2422,
      "duration": 0.1659,
      "velocity": 79,
      "chip": "ym2612"
    },
    {
      "channel": 1,
      "note": 64,
      "start": 91.249,
      "duration": 0.0544,
      "velocity": 100,
      "chip": "ym2612"
    },
    {
      "channel": 3,
      "note": 67,
      "start": 91.257,
      "duration": 0.0469,
      "velocity": 127,
      "chip": "ym2612"
    },
    {
      "channel": 0,
      "note": 67,
      "start": 91.435,
      "duration": 0.0603,
      "velocity": 127,
      "chip": "ym2612"
    },
    {
      "channel": 1,
      "note": 55,
      "start": 91.4396,
      "duration": 0.0559,
      "velocity": 100,
      "chip": "ym2612"
    },
    {
      "channel": 3,
      "note": 52,
      "start": 91.4467,
      "duration": 0.1539,
      "velocity": 79,
      "chip": "ym2612"
    },
    {
      "channel": 0,
      "note": 67,
      "start": 91.5373,
      "duration": 0.0628,
      "velocity": 127,
      "chip": "ym2612"
    },
    {
      "channel": 0,
      "note": 45,
      "start": 91.6446,
      "duration": 0.1649,
      "velocity": 79,
      "chip": "ym2612"
    },
    {
      "channel": 1,
      "note": 57,
      "start": 91.6492,
      "duration": 0.0557,
      "velocity": 100,
      "chip": "ym2612"
    },
    {
      "channel": 2,
      "note": 24,
      "start": 91.6561,
      "duration": 0.049,
      "velocity": 112,
      "chip": "ym2612"
    },
    {
      "channel": 3,
      "note": 33,
      "start": 91.6632,
      "duration": 0.7403,
      "velocity": 99,
      "chip": "ym2612"
    },
    {
      "channel": 4,
      "note": 84,
      "start": 91.6714,
      "duration": 1.5178,
      "velocity": 80,
      "chip": "ym2612"
    },
    {
      "channel": 0,
      "note": 48,
      "start": 91.8508,
      "duration": 0.1507,
      "velocity": 79,
      "chip": "ym2612"
    },
    {
      "channel": 0,
      "note": 45,
      "start": 92.0431,
      "duration": 0.1679,
      "velocity": 79,
      "chip": "ym2612"
    },
    {
      "channel": 1,
      "note": 52,
      "start": 92.0477,
      "duration": 0.0588,
      "velocity": 100,
      "chip": "ym2612"
    },
    {
      "channel": 2,
      "note": 67,
      "start": 92.0555,
      "duration": 0.0512,
      "velocity": 127,
      "chip": "ym2612"
    },
    {
      "channel": 0,
      "note": 52,
      "start": 92.2349,
      "duration": 0.1681,
      "velocity": 79,
      "chip": "ym2612"
    },
    {
      "channel": 0,
      "note": 45,
      "start": 92.4444,
      "duration": 0.1506,
      "velocity": 79,
      "chip": "ym2612"
    },
    {
      "channel": 1,
      "note": 60,
      "start": 92.4489,
      "duration": 0.0415,
      "velocity": 100,
      "chip": "ym2612"
    },
    {
      "channel": 2,
      "note": 28,
      "start": 92.4559,
      "duration": 0.733,
      "velocity": 99,
      "chip": "ym2612"
    },
    {
      "channel": 3,
      "note": 24,
      "start": 92.4629,
      "duration": 0.0278,
      "velocity": 112,
      "chip": "ym2612"
    },
    {
      "channel": 1,
      "note": 24,
      "start": 92.5341,
      "duration": 0.0611,
      "velocity": 112,
      "chip": "ym2612"
    },
    {
      "channel": 0,
      "note": 43,
      "start": 92.6363,
      "duration": 0.1507,
      "velocity": 79,
      "chip": "ym2612"
    },
    {
      "channel": 0,
      "note": 45,
      "start": 92.8285,
      "duration": 0.1681,
      "velocity": 79,
      "chip": "ym2612"
    },
    {
      "channel": 1,
      "note": 55,
      "start": 92.8352,
      "duration": 0.0567,
      "velocity": 100,
      "chip": "ym2612"
    },
    {
      "channel": 3,
      "note": 67,
      "start": 92.8432,
      "duration": 0.0491,
      "velocity": 127,
      "chip": "ym2612"
    },
    {
      "channel": 0,
      "note": 52,
      "start": 93.0204,
      "duration": 0.1681,
      "velocity": 79,
      "chip": "ym2612"
    },
    {
      "channel": 0,
      "note": 45,
      "start": 93.2298,
      "duration": 0.1507,
      "velocity": 79,
      "chip": "ym2612"
    },
    {
      "channel": 1,
      "note": 57,
      "start": 93.2344,
      "duration": 0.0415,
      "velocity": 100,
      "chip": "ym2612"
    },
    {
      "channel": 2,
      "note": 24,
      "start": 93.2413,
      "duration": 0.0348,
      "velocity": 112,
      "chip": "ym2612"
    },
    {
      "channel": 3,
      "note": 36,
      "start": 93.2484,
      "duration": 0.7261,
      "velocity": 99,
      "chip": "ym2612"
    },
    {
      "channel": 4,
      "note": 88,
      "start": 93.2542,
      "duration": 0.7205,
      "velocity": 80,
      "chip": "ym2612"
    },
    {
      "channel": 0,
      "note": 48,
      "start": 93.4218,
      "duration": 0.1506,
      "velocity": 79,
      "chip": "ym2612"
    },
    {
      "channel": 0,
      "note": 45,
      "start": 93.6139,
      "duration": 0.1681,
      "velocity": 79,
      "chip": "ym2612"
    },
    {
      "channel": 1,
      "note": 52,
      "start": 93.6185,
      "duration": 0.0588,
      "velocity": 100,
      "chip": "ym2612"
    },
    {
      "channel": 2,
      "note": 67,
      "start": 93.6263,
      "duration": 0.0513,
      "velocity": 127,
      "chip": "ym2612"
    },
    {
      "channel": 0,
      "note": 52,
      "start": 93.8059,
      "duration": 0.1681,
      "velocity": 79,
      "chip": "ym2612"
    },
    {
      "channel": 0,
      "note": 45,
      "start": 94.0153,
      "duration": 0.1507,
      "velocity": 79,
      "chip": "ym2612"
    },
    {
      "channel": 1,
      "note": 60,
      "start": 94.0199,
      "duration": 0.0415,
      "velocity": 100,
      "chip": "ym2612"
    },
    {
      "channel": 2,
      "note": 81,
      "start": 94.0277,
      "duration": 0.7323,
      "velocity": 80,
      "chip": "ym2612"
    },
    {
      "channel": 3,
      "note": 31,
      "start": 94.0326,
      "duration": 0.7276,
      "velocity": 99,
      "chip": "ym2612"
    },
    {
      "channel": 4,
      "note": 24,
      "start": 94.0398,
      "duration": 0.022,
      "velocity": 112,
      "chip": "ym2612"
    },
    {
      "channel": 1,
      "note": 24,
      "start": 94.1051,
      "duration": 0.0611,
      "velocity": 112,
      "chip": "ym2612"
    },
    {
      "channel": 0,
      "note": 43,
      "start": 94.2073,
      "duration": 0.1506,
      "velocity": 79,
      "chip": "ym2612"
    },
    {
      "channel": 0,
      "note": 45,
      "start": 94.3995,
      "duration": 0.168,
      "velocity": 79,
      "chip": "ym2612"
    },
    {
      "channel": 1,
      "note": 55,
      "start": 94.4062,
      "duration": 0.0567,
      "velocity": 100,
      "chip": "ym2612"
    },
    {
      "channel": 4,
      "note": 67,
      "start": 94.4143,
      "duration": 0.0491,
      "velocity": 127,
      "chip": "ym2612"
    },
    {
      "channel": 1,
      "note": 67,
      "start": 94.5073,
      "duration": 0.0605,
      "velocity": 127,
      "chip": "ym2612"
    },
    {
      "channel": 0,
      "note": 67,
      "start": 94.5944,
      "duration": 0.0602,
      "velocity": 127,
      "chip": "ym2612"
    },
    {
      "channel": 1,
      "note": 52,
      "start": 94.6012,
      "duration": 0.1585,
      "velocity": 79,
      "chip": "ym2612"
    },
    {
      "channel": 0,
      "note": 67,
      "start": 94.6967,
      "duration": 0.0628,
      "velocity": 127,
      "chip": "ym2612"
    },
    {
      "channel": 0,
      "note": 45,
      "start": 94.8041,
      "duration": 0.1648,
      "velocity": 79,
      "chip": "ym2612"
    },
    {
      "channel": 1,
      "note": 57,
      "start": 94.811,
      "duration": 0.0535,
      "velocity": 100,
      "chip": "ym2612"
    },
    {
      "channel": 2,
      "note": 24,
      "start": 94.8179,
      "duration": 0.0468,
      "velocity": 112,
      "chip": "ym2612"
    },
    {
      "channel": 3,
      "note": 33,
      "start": 94.8228,
      "duration": 0.7401,
      "velocity": 99,
      "chip": "ym2612"
    },
    {
      "channel": 4,
      "note": 79,
      "start": 94.8309,
      "duration": 0.7323,
      "velocity": 80,
      "chip": "ym2612"
    },
    {
      "channel": 0,
      "note": 60,
      "start": 95.0124,
      "duration": 0.0612,
      "velocity": 100,
      "chip": "ym2612"
    },
    {
      "channel": 1,
      "note": 48,
      "start": 95.0192,
      "duration": 0.1419,
      "velocity": 79,
      "chip": "ym2612"
    },
    {
      "channel": 0,
      "note": 45,
      "start": 95.2045,
      "duration": 0.1659,
      "velocity": 79,
      "chip": "ym2612"
    },
    {
      "channel": 1,
      "note": 64,
      "start": 95.2113,
      "duration": 0.0545,
      "velocity": 100,
      "chip": "ym2612"
    },
    {
      "channel": 2,
      "note": 67,
      "start": 95.2191,
      "duration": 0.047,
      "velocity": 127,
      "chip": "ym2612"
    },
    {
      "channel": 0,
      "note": 55,
      "start": 95.3965,
      "duration": 0.0611,
      "velocity": 100,
      "chip": "ym2612"
    },
    {
      "channel": 1,
      "note": 52,
      "start": 95.4033,
      "duration": 0.1593,
      "velocity": 79,
      "chip": "ym2612"
    },
    {
      "channel": 0,
      "note": 45,
      "start": 95.6059,
      "duration": 0.1659,
      "velocity": 79,
      "chip": "ym2612"
    },
    {
      "channel": 1,
      "note": 57,
      "start": 95.6127,
      "duration": 0.0547,
      "velocity": 100,
      "chip": "ym2612"
    },
    {
      "channel": 2,
      "note": 84,
      "start": 95.6205,
      "duration": 0.7452,
      "velocity": 80,
      "chip": "ym2612"
    },
    {
      "channel": 3,
      "note": 28,
      "start": 95.6254,
      "duration": 0.7406,
      "velocity": 99,
      "chip": "ym2612"
    },
    {
      "channel": 4,
      "note": 24,
      "start": 95.6327,
      "duration": 0.0352,
      "velocity": 112,
      "chip": "ym2612"
    },
    {
      "channel": 1,
      "note": 24,
      "start": 95.7109,
      "duration": 0.0611,
      "velocity": 112,
      "chip": "ym2612"
    },
    {
      "channel": 0,
      "note": 60,
      "start": 95.8155,
      "duration": 0.0611,
      "velocity": 100,
      "chip": "ym2612"
    },
    {
      "channel": 1,
      "note": 43,
      "start": 95.8223,
      "duration": 0.1419,
      "velocity": 79,
      "chip": "ym2612"
    },
    {
      "channel": 0,
      "note": 45,
      "start": 96.0075,
      "duration": 0.1659,
      "velocity": 79,
      "chip": "ym2612"
    },
    {
      "channel": 1,
      "note": 64,
      "start": 96.0143,
      "duration": 0.0545,
      "velocity": 100,
      "chip": "ym2612"
    },
    {
      "channel": 4,
      "note": 67,
      "start": 96.0224,
      "duration": 0.0469,
      "velocity": 127,
      "chip": "ym2612"
    },
    {
      "channel": 0,
      "note": 55,
      "start": 96.1995,
      "duration": 0.0611,
      "velocity": 100,
      "chip": "ym2612"
    },
    {
      "channel": 1,
      "note": 52,
      "start": 96.2063,
      "duration": 0.1592,
      "velocity": 79,
      "chip": "ym2612"
    },
    {
      "channel": 0,
      "note": 45,
      "start": 96.4092,
      "duration": 0.1656,
      "velocity": 79,
      "chip": "ym2612"
    },
    {
      "channel": 1,
      "note": 57,
      "start": 96.416,
      "duration": 0.0543,
      "velocity": 100,
      "chip": "ym2612"
    },
    {
      "channel": 2,
      "note": 24,
      "start": 96.4229,
      "duration": 0.0476,
      "velocity": 112,
      "chip": "ym2612"
    },
    {
      "channel": 3,
      "note": 36,
      "start": 96.4278,
      "duration": 0.7415,
      "velocity": 99,
      "chip": "ym2612"
    },
    {
      "channel": 4,
      "note": 81,
      "start": 96.436,
      "duration": 1.5186,
      "velocity": 80,
      "chip": "ym2612"
    },
    {
      "channel": 0,
      "note": 60,
      "start": 96.6185,
      "duration": 0.0611,
      "velocity": 100,
      "chip": "ym2612"
    },
    {
      "channel": 1,
      "note": 48,
      "start": 96.6252,
      "duration": 0.1419,
      "velocity": 79,
      "chip": "ym2612"
    },
    {
      "channel": 0,
      "note": 45,
      "start": 96.8106,
      "duration": 0.1657,
      "velocity": 79,
      "chip": "ym2612"
    },
    {
      "channel": 1,
      "note": 64,
      "start": 96.8173,
      "duration": 0.0543,
      "velocity": 100,
      "chip": "ym2612"
    },
    {
      "channel": 2,
      "note": 67,
      "start": 96.8251,
      "duration": 0.0468,
      "velocity": 127,
      "chip": "ym2612"
    },
    {
      "channel": 0,
      "note": 67,
      "start": 97.0032,
      "duration": 0.0604,
      "velocity": 127,
      "chip": "ym2612"
    },
    {
      "channel": 1,
      "note": 55,
      "start": 97.0078,
      "duration": 0.0561,
      "velocity": 100,
      "chip": "ym2612"
    },
    {
      "channel": 2,
      "note": 52,
      "start": 97.0147,
      "duration": 0.1543,
      "velocity": 79,
      "chip": "ym2612"
    },
    {
      "channel": 0,
      "note": 67,
      "start": 97.1056,
      "duration": 0.063,
      "velocity": 127,
      "chip": "ym2612"
    },
    {
      "channel": 0,
      "note": 45,
      "start": 97.2118,
      "duration": 0.1485,
      "velocity": 79,
      "chip": "ym2612"
    },
    {
      "channel": 1,
      "note": 57,
      "start": 97.2164,
      "duration": 0.0394,
      "velocity": 100,
      "chip": "ym2612"
    },
    {
      "channel": 2,
      "note": 31,
      "start": 97.2233,
      "duration": 0.7308,
      "velocity": 99,
      "chip": "ym2612"
    },
    {
      "channel": 3,
      "note": 24,
      "start": 97.2304,
      "duration": 0.0258,
      "velocity": 112,
      "chip": "ym2612"
    },
    {
      "channel": 1,
      "note": 24,
      "start": 97.2993,
      "duration": 0.0611,
      "velocity": 112,
      "chip": "ym2612"
    },
    {
      "channel": 0,
      "note": 60,
      "start": 97.4039,
      "duration": 0.0611,
      "velocity": 100,
      "chip": "ym2612"
    },
    {
      "channel": 1,
      "note": 43,
      "start": 97.4109,
      "duration": 0.1417,
      "velocity": 79,
      "chip": "ym2612"
    },
    {
      "channel": 0,
      "note": 45,
      "start": 97.5959,
      "duration": 0.1659,
      "velocity": 79,
      "chip": "ym2612"
    },
    {
      "channel": 1,
      "note": 64,
      "start": 97.6027,
      "duration": 0.0544,
      "velocity": 100,
      "chip": "ym2612"
    },
    {
      "channel": 3,
      "note": 67,
      "start": 97.6106,
      "duration": 0.0469,
      "velocity": 127,
      "chip": "ym2612"
    },
    {
      "channel": 0,
      "note": 67,
      "start": 97.7887,
      "duration": 0.0604,
      "velocity": 127,
      "chip": "ym2612"
    },
    {
      "channel": 1,
      "note": 55,
      "start": 97.7933,
      "duration": 0.0561,
      "velocity": 100,
      "chip": "ym2612"
    },
    {
      "channel": 3,
      "note": 52,
      "start": 97.8004,
      "duration": 0.1539,
      "velocity": 79,
      "chip": "ym2612"
    },
    {
      "channel": 0,
      "note": 67,
      "start": 97.8911,
      "duration": 0.0627,
      "velocity": 127,
      "chip": "ym2612"
    },
    {
      "channel": 0,
      "note": 42,
      "start": 97.9978,
      "duration": 0.148,
      "velocity": 79,
      "chip": "ym2612"
    },
    {
      "channel": 1,
      "note": 54,
      "start": 98.0024,
      "duration": 0.0427,
      "velocity": 100,
      "chip": "ym2612"
    },
    {
      "channel": 2,
      "note": 24,
      "start": 98.0095,
      "duration": 0.0359,
      "velocity": 112,
      "chip": "ym2612"
    },
    {
      "channel": 3,
      "note": 30,
      "start": 98.0166,
      "duration": 0.7232,
      "velocity": 99,
      "chip": "ym2612"
    },
    {
      "channel": 4,
      "note": 81,
      "start": 98.0224,
      "duration": 1.5031,
      "velocity": 80,
      "chip": "ym2612"
    },
    {
      "channel": 0,
      "note": 45,
      "start": 98.1909,
      "duration": 0.1469,
      "velocity": 79,
      "chip": "ym2612"
    },
    {
      "channel": 0,
      "note": 42,
      "start": 98.3792,
      "duration": 0.168,
      "velocity": 79,
      "chip": "ym2612"
    },
    {
      "channel": 1,
      "note": 49,
      "start": 98.3837,
      "duration": 0.0589,
      "velocity": 100,
      "chip": "ym2612"
    },
    {
      "channel": 2,
      "note": 67,
      "start": 98.3916,
      "duration": 0.0513,
      "velocity": 127,
      "chip": "ym2612"
    },
    {
      "channel": 0,
      "note": 49,
      "start": 98.5711,
      "duration": 0.1681,
      "velocity": 79,
      "chip": "ym2612"
    },
    {
      "channel": 0,
      "note": 42,
      "start": 98.7805,
      "duration": 0.1507,
      "velocity": 79,
      "chip": "ym2612"
    },
    {
      "channel": 1,
      "note": 57,
      "start": 98.7851,
      "duration": 0.0444,
      "velocity": 100,
      "chip": "ym2612"
    },
    {
      "channel": 2,
      "note": 25,
      "start": 98.7921,
      "duration": 0.733,
      "velocity": 99,
      "chip": "ym2612"
    },
    {
      "channel": 3,
      "note": 24,
      "start": 98.7992,
      "duration": 0.0307,
      "velocity": 112,
      "chip": "ym2612"
    },
    {
      "channel": 1,
      "note": 24,
      "start": 98.8703,
      "duration": 0.0611,
      "velocity": 112,
      "chip": "ym2612"
    },
    {
      "channel": 0,
      "note": 40,
      "start": 98.9727,
      "duration": 0.1506,
      "velocity": 79,
      "chip": "ym2612"
    },
    {
      "channel": 0,
      "note": 42,
      "start": 99.1647,
      "duration": 0.1681,
      "velocity": 79,
      "chip": "ym2612"
    },
    {
      "channel": 1,
      "note": 52,
      "start": 99.1715,
      "duration": 0.0567,
      "velocity": 100,
      "chip": "ym2612"
    },
    {
      "channel": 3,
      "note": 67,
      "start": 99.1794,
      "duration": 0.0491,
      "velocity": 127,
      "chip": "ym2612"
    },
    {
      "channel": 0,
      "note": 49,
      "start": 99.3566,
      "duration": 0.1681,
      "velocity": 79,
      "chip": "ym2612"
    },
    {
      "channel": 0,
      "note": 42,
      "start": 99.5661,
      "duration": 0.1506,
      "velocity": 79,
      "chip": "ym2612"
    },
    {
      "channel": 1,
      "note": 54,
      "start": 99.5706,
      "duration": 0.0416,
      "velocity": 100,
      "chip": "ym2612"
    },
    {
      "channel": 2,
      "note": 24,
      "start": 99.5776,
      "duration": 0.0349,
      "velocity": 112,
      "chip": "ym2612"
    },
    {
      "channel": 3,
      "note": 33,
      "start": 99.5847,
      "duration": 0.726,
      "velocity": 99,
      "chip": "ym2612"
    },
    {
      "channel": 4,
      "note": 85,
      "start": 99.5904,
      "duration": 0.7205,
      "velocity": 80,
      "chip": "ym2612"
    },
    {
      "channel": 0,
      "note": 45,
      "start": 99.7582,
      "duration": 0.1506,
      "velocity": 79,
      "chip": "ym2612"
    },
    {
      "channel": 0,
      "note": 42,
      "start": 99.9501,
      "duration": 0.1681,
      "velocity": 79,
      "chip": "ym2612"
    },
    {
      "channel": 1,
      "note": 49,
      "start": 99.9547,
      "duration": 0.0589,
      "velocity": 100,
      "chip": "ym2612"
    },
    {
      "channel": 2,
      "note": 67,
      "start": 99.9626,
      "duration": 0.0513,
      "velocity": 127,
      "chip": "ym2612"
    },
    {
      "channel": 0,
      "note": 49,
      "start": 100.1421,
      "duration": 0.1681,
      "velocity": 79,
      "chip": "ym2612"
    },
    {
      "channel": 0,
      "note": 42,
      "start": 100.3515,
      "duration": 0.1506,
      "velocity": 79,
      "chip": "ym2612"
    },
    {
      "channel": 1,
      "note": 57,
      "start": 100.3561,
      "duration": 0.0416,
      "velocity": 100,
      "chip": "ym2612"
    },
    {
      "channel": 2,
      "note": 78,
      "start": 100.3639,
      "duration": 0.7323,
      "velocity": 80,
      "chip": "ym2612"
    },
    {
      "channel": 3,
      "note": 28,
      "start": 100.3688,
      "duration": 0.7276,
      "velocity": 99,
      "chip": "ym2612"
    },
    {
      "channel": 4,
      "note": 24,
      "start": 100.3763,
      "duration": 0.022,
      "velocity": 112,
      "chip": "ym2612"
    },
    {
      "channel": 1,
      "note": 24,
      "start": 100.4413,
      "duration": 0.0611,
      "velocity": 112,
      "chip": "ym2612"
    },
    {
      "channel": 0,
      "note": 40,
      "start": 100.5439,
      "duration": 0.1505,
      "velocity": 79,
      "chip": "ym2612"
    },
    {
      "channel": 0,
      "note": 42,
      "start": 100.7356,
      "duration": 0.1681,
      "velocity": 79,
      "chip": "ym2612"
    },
    {
      "channel": 1,
      "note": 52,
      "start": 100.7426,
      "duration": 0.0566,
      "velocity": 100,
      "chip": "ym2612"
    },
    {
      "channel": 4,
      "note": 67,
      "start": 100.7507,
      "duration": 0.0489,
      "velocity": 127,
      "chip": "ym2612"
    },
    {
      "channel": 1,
      "note": 67,
      "start": 100.8451,
      "duration": 0.0589,
      "velocity": 127,
      "chip": "ym2612"
    },
    {
      "channel": 0,
      "note": 67,
      "start": 100.9307,
      "duration": 0.0604,
      "velocity": 127,
      "chip": "ym2612"
    },
    {
      "channel": 1,
      "note": 49,
      "start": 100.9375,
      "duration": 0.1585,
      "velocity": 79,
      "chip": "ym2612"
    },
    {
      "channel": 0,
      "note": 67,
      "start": 101.0331,
      "duration": 0.0626,
      "velocity": 127,
      "chip": "ym2612"
    },
    {
      "channel": 0,
      "note": 42,
      "start": 101.1403,
      "duration": 0.165,
      "velocity": 79,
      "chip": "ym2612"
    },
    {
      "channel": 1,
      "note": 54,
      "start": 101.147,
      "duration": 0.0543,
      "velocity": 100,
      "chip": "ym2612"
    },
    {
      "channel": 2,
      "note": 24,
      "start": 101.154,
      "duration": 0.0476,
      "velocity": 112,
      "chip": "ym2612"
    },
    {
      "channel": 3,
      "note": 30,
      "start": 101.1589,
      "duration": 0.7403,
      "velocity": 99,
      "chip": "ym2612"
    },
    {
      "channel": 4,
      "note": 76,
      "start": 101.167,
      "duration": 0.7324,
      "velocity": 80,
      "chip": "ym2612"
    },
    {
      "channel": 0,
      "note": 57,
      "start": 101.3524,
      "duration": 0.0576,
      "velocity": 100,
      "chip": "ym2612"
    },
    {
      "channel": 1,
      "note": 45,
      "start": 101.3593,
      "duration": 0.1381,
      "velocity": 79,
      "chip": "ym2612"
    },
    {
      "channel": 0,
      "note": 42,
      "start": 101.5408,
      "duration": 0.1659,
      "velocity": 79,
      "chip": "ym2612"
    },
    {
      "channel": 1,
      "note": 61,
      "start": 101.5475,
      "duration": 0.0545,
      "velocity": 100,
      "chip": "ym2612"
    },
    {
      "channel": 2,
      "note": 67,
      "start": 101.5554,
      "duration": 0.0469,
      "velocity": 127,
      "chip": "ym2612"
    },
    {
      "channel": 0,
      "note": 52,
      "start": 101.7328,
      "duration": 0.0612,
      "velocity": 100,
      "chip": "ym2612"
    },
    {
      "channel": 1,
      "note": 49,
      "start": 101.7395,
      "duration": 0.1593,
      "velocity": 79,
      "chip": "ym2612"
    },
    {
      "channel": 0,
      "note": 42,
      "start": 101.9427,
      "duration": 0.1655,
      "velocity": 79,
      "chip": "ym2612"
    },
    {
      "channel": 1,
      "note": 54,
      "start": 101.9495,
      "duration": 0.0541,
      "velocity": 100,
      "chip": "ym2612"
    },
    {
      "channel": 2,
      "note": 81,
      "start": 101.9573,
      "duration": 0.7447,
      "velocity": 80,
      "chip": "ym2612"
    },
    {
      "channel": 3,
      "note": 25,
      "start": 101.9622,
      "duration": 0.7401,
      "velocity": 99,
      "chip": "ym2612"
    },
    {
      "channel": 4,
      "note": 24,
      "start": 101.9694,
      "duration": 0.0347,
      "velocity": 112,
      "chip": "ym2612"
    },
    {
      "channel": 1,
      "note": 24,
      "start": 102.0472,
      "duration": 0.0613,
      "velocity": 112,
      "chip": "ym2612"
    },
    {
      "channel": 0,
      "note": 57,
      "start": 102.1517,
      "duration": 0.0644,
      "velocity": 100,
      "chip": "ym2612"
    },
    {
      "channel": 1,
      "note": 40,
      "start": 102.1585,
      "duration": 0.1419,
      "velocity": 79,
      "chip": "ym2612"
    },
    {
      "channel": 0,
      "note": 42,
      "start": 102.344,
      "duration": 0.1656,
      "velocity": 79,
      "chip": "ym2612"
    },
    {
      "channel": 1,
      "note": 61,
      "start": 102.3508,
      "duration": 0.0543,
      "velocity": 100,
      "chip": "ym2612"
    },
    {
      "channel": 4,
      "note": 67,
      "start": 102.359,
      "duration": 0.0467,
      "velocity": 127,
      "chip": "ym2612"
    },
    {
      "channel": 0,
      "note": 52,
      "start": 102.5357,
      "duration": 0.0612,
      "velocity": 100,
      "chip": "ym2612"
    },
    {
      "channel": 1,
      "note": 49,
      "start": 102.5426,
      "duration": 0.1591,
      "velocity": 79,
      "chip": "ym2612"
    },
    {
      "channel": 0,
      "note": 42,
      "start": 102.7452,
      "duration": 0.1659,
      "velocity": 79,
      "chip": "ym2612"
    },
    {
      "channel": 1,
      "note": 54,
      "start": 102.7521,
      "duration": 0.0544,
      "velocity": 100,
      "chip": "ym2612"
    },
    {
      "channel": 2,
      "note": 24,
      "start": 102.7592,
      "duration": 0.0476,
      "velocity": 112,
      "chip": "ym2612"
    },
    {
      "channel": 3,
      "note": 33,
      "start": 102.7641,
      "duration": 0.7412,
      "velocity": 99,
      "chip": "ym2612"
    },
    {
      "channel": 4,
      "note": 78,
      "start": 102.7722,
      "duration": 1.5188,
      "velocity": 80,
      "chip": "ym2612"
    },
    {
      "channel": 0,
      "note": 57,
      "start": 102.9547,
      "duration": 0.0611,
      "velocity": 100,
      "chip": "ym2612"
    },
    {
      "channel": 1,
      "note": 45,
      "start": 102.9615,
      "duration": 0.1418,
      "velocity": 79,
      "chip": "ym2612"
    },
    {
      "channel": 0,
      "note": 42,
      "start": 103.1466,
      "duration": 0.1659,
      "velocity": 79,
      "chip": "ym2612"
    },
    {
      "channel": 1,
      "note": 61,
      "start": 103.1534,
      "duration": 0.0546,
      "velocity": 100,
      "chip": "ym2612"
    },
    {
      "channel": 2,
      "note": 67,
      "start": 103.1612,
      "duration": 0.0471,
      "velocity": 127,
      "chip": "ym2612"
    },
    {
      "channel": 0,
      "note": 67,
      "start": 103.3395,
      "duration": 0.0604,
      "velocity": 127,
      "chip": "ym2612"
    },
    {
      "channel": 1,
      "note": 52,
      "start": 103.344,
      "duration": 0.0561,
      "velocity": 100,
      "chip": "ym2612"
    },
    {
      "channel": 2,
      "note": 49,
      "start": 103.351,
      "duration": 0.1541,
      "velocity": 79,
      "chip": "ym2612"
    },
    {
      "channel": 0,
      "note": 67,
      "start": 103.4419,
      "duration": 0.0628,
      "velocity": 127,
      "chip": "ym2612"
    },
    {
      "channel": 0,
      "note": 42,
      "start": 103.5482,
      "duration": 0.1485,
      "velocity": 79,
      "chip": "ym2612"
    },
    {
      "channel": 1,
      "note": 54,
      "start": 103.5528,
      "duration": 0.0424,
      "velocity": 100,
      "chip": "ym2612"
    },
    {
      "channel": 2,
      "note": 28,
      "start": 103.5599,
      "duration": 0.7307,
      "velocity": 99,
      "chip": "ym2612"
    },
    {
      "channel": 3,
      "note": 24,
      "start": 103.567,
      "duration": 0.0286,
      "velocity": 112,
      "chip": "ym2612"
    },
    {
      "channel": 1,
      "note": 24,
      "start": 103.6356,
      "duration": 0.0613,
      "velocity": 112,
      "chip": "ym2612"
    },
    {
      "channel": 0,
      "note": 57,
      "start": 103.7442,
      "duration": 0.0571,
      "velocity": 100,
      "chip": "ym2612"
    },
    {
      "channel": 1,
      "note": 40,
      "start": 103.751,
      "duration": 0.1378,
      "velocity": 79,
      "chip": "ym2612"
    },
    {
      "channel": 0,
      "note": 42,
      "start": 103.9322,
      "duration": 0.1672,
      "velocity": 79,
      "chip": "ym2612"
    },
    {
      "channel": 1,
      "note": 61,
      "start": 103.9389,
      "duration": 0.0547,
      "velocity": 100,
      "chip": "ym2612"
    },
    {
      "channel": 3,
      "note": 67,
      "start": 103.9469,
      "duration": 0.0471,
      "velocity": 127,
      "chip": "ym2612"
    },
    {
      "channel": 0,
      "note": 67,
      "start": 104.125,
      "duration": 0.0604,
      "velocity": 127,
      "chip": "ym2612"
    },
    {
      "channel": 1,
      "note": 52,
      "start": 104.1295,
      "duration": 0.0561,
      "velocity": 100,
      "chip": "ym2612"
    },
    {
      "channel": 3,
      "note": 49,
      "start": 104.1367,
      "duration": 0.1541,
      "velocity": 79,
      "chip": "ym2612"
    },
    {
      "channel": 0,
      "note": 67,
      "start": 104.2274,
      "duration": 0.0628,
      "velocity": 127,
      "chip": "ym2612"
    },
    {
      "channel": 0,
      "note": 47,
      "start": 104.3342,
      "duration": 0.148,
      "velocity": 79,
      "chip": "ym2612"
    },
    {
      "channel": 1,
      "note": 59,
      "start": 104.3388,
      "duration": 0.0388,
      "velocity": 100,
      "chip": "ym2612"
    },
    {
      "channel": 2,
      "note": 24,
      "start": 104.3457,
      "duration": 0.0321,
      "velocity": 112,
      "chip": "ym2612"
    },
    {
      "channel": 3,
      "note": 35,
      "start": 104.3528,
      "duration": 0.7234,
      "velocity": 99,
      "chip": "ym2612"
    },
    {
      "channel": 4,
      "note": 74,
      "start": 104.3586,
      "duration": 1.5032,
      "velocity": 80,
      "chip": "ym2612"
    },
    {
      "channel": 0,
      "note": 50,
      "start": 104.5235,
      "duration": 0.1506,
      "velocity": 79,
      "chip": "ym2612"
    },
    {
      "channel": 0,
      "note": 47,
      "start": 104.7154,
      "duration": 0.1719,
      "velocity": 79,
      "chip": "ym2612"
    },
    {
      "channel": 1,
      "note": 54,
      "start": 104.72,
      "duration": 0.0591,
      "velocity": 100,
      "chip": "ym2612"
    },
    {
      "channel": 2,
      "note": 67,
      "start": 104.7278,
      "duration": 0.0515,
      "velocity": 127,
      "chip": "ym2612"
    },
    {
      "channel": 0,
      "note": 54,
      "start": 104.9074,
      "duration": 0.1683,
      "velocity": 79,
      "chip": "ym2612"
    },
    {
      "channel": 0,
      "note": 47,
      "start": 105.117,
      "duration": 0.1506,
      "velocity": 79,
      "chip": "ym2612"
    },
    {
      "channel": 1,
      "note": 62,
      "start": 105.1215,
      "duration": 0.0415,
      "velocity": 100,
      "chip": "ym2612"
    },
    {
      "channel": 2,
      "note": 30,
      "start": 105.1285,
      "duration": 0.7329,
      "velocity": 99,
      "chip": "ym2612"
    },
    {
      "channel": 3,
      "note": 24,
      "start": 105.1356,
      "duration": 0.0278,
      "velocity": 112,
      "chip": "ym2612"
    },
    {
      "channel": 1,
      "note": 24,
      "start": 105.2065,
      "duration": 0.0613,
      "velocity": 112,
      "chip": "ym2612"
    },
    {
      "channel": 0,
      "note": 45,
      "start": 105.3089,
      "duration": 0.1527,
      "velocity": 79,
      "chip": "ym2612"
    },
    {
      "channel": 0,
      "note": 47,
      "start": 105.5009,
      "duration": 0.1681,
      "velocity": 79,
      "chip": "ym2612"
    },
    {
      "channel": 1,
      "note": 57,
      "start": 105.5077,
      "duration": 0.0569,
      "velocity": 100,
      "chip": "ym2612"
    },
    {
      "channel": 3,
      "note": 67,
      "start": 105.5157,
      "duration": 0.0492,
      "velocity": 127,
      "chip": "ym2612"
    },
    {
      "channel": 0,
      "note": 54,
      "start": 105.6932,
      "duration": 0.1679,
      "velocity": 79,
      "chip": "ym2612"
    },
    {
      "channel": 0,
      "note": 47,
      "start": 105.9024,
      "duration": 0.1507,
      "velocity": 79,
      "chip": "ym2612"
    },
    {
      "channel": 1,
      "note": 59,
      "start": 105.907,
      "duration": 0.0415,
      "velocity": 100,
      "chip": "ym2612"
    },
    {
      "channel": 2,
      "note": 24,
      "start": 105.9139,
      "duration": 0.0348,
      "velocity": 112,
      "chip": "ym2612"
    },
    {
      "channel": 3,
      "note": 38,
      "start": 105.9211,
      "duration": 0.7261,
      "velocity": 99,
      "chip": "ym2612"
    },
    {
      "channel": 4,
      "note": 78,
      "start": 105.9269,
      "duration": 0.7205,
      "velocity": 80,
      "chip": "ym2612"
    },
    {
      "channel": 0,
      "note": 50,
      "start": 106.0944,
      "duration": 0.1544,
      "velocity": 79,
      "chip": "ym2612"
    },
    {
      "channel": 0,
      "note": 47,
      "start": 106.2864,
      "duration": 0.168,
      "velocity": 79,
      "chip": "ym2612"
    },
    {
      "channel": 1,
      "note": 54,
      "start": 106.291,
      "duration": 0.059,
      "velocity": 100,
      "chip": "ym2612"
    },
    {
      "channel": 2,
      "note": 67,
      "start": 106.2988,
      "duration": 0.0515,
      "velocity": 127,
      "chip": "ym2612"
    },
    {
      "channel": 0,
      "note": 54,
      "start": 106.4785,
      "duration": 0.1681,
      "velocity": 79,
      "chip": "ym2612"
    },
    {
      "channel": 0,
      "note": 47,
      "start": 106.6879,
      "duration": 0.1506,
      "velocity": 79,
      "chip": "ym2612"
    },
    {
      "channel": 1,
      "note": 62,
      "start": 106.6925,
      "duration": 0.0415,
      "velocity": 100,
      "chip": "ym2612"
    },
    {
      "channel": 2,
      "note": 71,
      "start": 106.7003,
      "duration": 0.7322,
      "velocity": 80,
      "chip": "ym2612"
    },
    {
      "channel": 3,
      "note": 33,
      "start": 106.7052,
      "duration": 0.7276,
      "velocity": 99,
      "chip": "ym2612"
    },
    {
      "channel": 4,
      "note": 24,
      "start": 106.7125,
      "duration": 0.022,
      "velocity": 112,
      "chip": "ym2612"
    },
    {
      "channel": 1,
      "note": 24,
      "start": 106.7775,
      "duration": 0.0613,
      "velocity": 112,
      "chip": "ym2612"
    },
    {
      "channel": 0,
      "note": 45,
      "start": 106.8799,
      "duration": 0.1506,
      "velocity": 79,
      "chip": "ym2612"
    },
    {
      "channel": 0,
      "note": 47,
      "start": 107.0719,
      "duration": 0.1681,
      "velocity": 79,
      "chip": "ym2612"
    },
    {
      "channel": 1,
      "note": 57,
      "start": 107.0786,
      "duration": 0.0569,
      "velocity": 100,
      "chip": "ym2612"
    },
    {
      "channel": 4,
      "note": 67,
      "start": 107.0868,
      "duration": 0.0493,
      "velocity": 127,
      "chip": "ym2612"
    },
    {
      "channel": 1,
      "note": 67,
      "start": 107.1799,
      "duration": 0.0603,
      "velocity": 127,
      "chip": "ym2612"
    },
    {
      "channel": 0,
      "note": 67,
      "start": 107.2671,
      "duration": 0.0608,
      "velocity": 127,
      "chip": "ym2612"
    },
    {
      "channel": 1,
      "note": 54,
      "start": 107.2739,
      "duration": 0.1585,
      "velocity": 79,
      "chip": "ym2612"
    },
    {
      "channel": 0,
      "note": 67,
      "start": 107.3693,
      "duration": 0.0629,
      "velocity": 127,
      "chip": "ym2612"
    },
    {
      "channel": 0,
      "note": 47,
      "start": 107.4768,
      "duration": 0.1648,
      "velocity": 79,
      "chip": "ym2612"
    },
    {
      "channel": 1,
      "note": 59,
      "start": 107.4836,
      "duration": 0.0533,
      "velocity": 100,
      "chip": "ym2612"
    },
    {
      "channel": 2,
      "note": 24,
      "start": 107.4905,
      "duration": 0.0466,
      "velocity": 112,
      "chip": "ym2612"
    },
    {
      "channel": 3,
      "note": 35,
      "start": 107.4954,
      "duration": 0.7401,
      "velocity": 99,
      "chip": "ym2612"
    },
    {
      "channel": 4,
      "note": 71,
      "start": 107.5036,
      "duration": 0.7322,
      "velocity": 80,
      "chip": "ym2612"
    },
    {
      "channel": 0,
      "note": 62,
      "start": 107.6851,
      "duration": 0.0612,
      "velocity": 100,
      "chip": "ym2612"
    },
    {
      "channel": 1,
      "note": 50,
      "start": 107.692,
      "duration": 0.1434,
      "velocity": 79,
      "chip": "ym2612"
    },
    {
      "channel": 0,
      "note": 47,
      "start": 107.8774,
      "duration": 0.1657,
      "velocity": 79,
      "chip": "ym2612"
    },
    {
      "channel": 1,
      "note": 66,
      "start": 107.8841,
      "duration": 0.0543,
      "velocity": 100,
      "chip": "ym2612"
    },
    {
      "channel": 2,
      "note": 67,
      "start": 107.892,
      "duration": 0.0468,
      "velocity": 127,
      "chip": "ym2612"
    },
    {
      "channel": 0,
      "note": 57,
      "start": 108.0692,
      "duration": 0.0611,
      "velocity": 100,
      "chip": "ym2612"
    },
    {
      "channel": 1,
      "note": 54,
      "start": 108.0761,
      "duration": 0.1591,
      "velocity": 79,
      "chip": "ym2612"
    },
    {
      "channel": 0,
      "note": 47,
      "start": 108.2786,
      "duration": 0.1659,
      "velocity": 79,
      "chip": "ym2612"
    },
    {
      "channel": 1,
      "note": 59,
      "start": 108.2853,
      "duration": 0.0545,
      "velocity": 100,
      "chip": "ym2612"
    },
    {
      "channel": 2,
      "note": 74,
      "start": 108.2932,
      "duration": 0.7452,
      "velocity": 80,
      "chip": "ym2612"
    },
    {
      "channel": 3,
      "note": 30,
      "start": 108.298,
      "duration": 0.7406,
      "velocity": 99,
      "chip": "ym2612"
    },
    {
      "channel": 4,
      "note": 24,
      "start": 108.3053,
      "duration": 0.035,
      "velocity": 112,
      "chip": "ym2612"
    },
    {
      "channel": 1,
      "note": 24,
      "start": 108.3835,
      "duration": 0.0611,
      "velocity": 112,
      "chip": "ym2612"
    },
    {
      "channel": 0,
      "note": 62,
      "start": 108.488,
      "duration": 0.0612,
      "velocity": 100,
      "chip": "ym2612"
    },
    {
      "channel": 1,
      "note": 45,
      "start": 108.4947,
      "duration": 0.1419,
      "velocity": 79,
      "chip": "ym2612"
    },
    {
      "channel": 0,
      "note": 47,
      "start": 108.6801,
      "duration": 0.17,
      "velocity": 79,
      "chip": "ym2612"
    },
    {
      "channel": 1,
      "note": 66,
      "start": 108.6869,
      "duration": 0.0544,
      "velocity": 100,
      "chip": "ym2612"
    },
    {
      "channel": 4,
      "note": 67,
      "start": 108.695,
      "duration": 0.0469,
      "velocity": 127,
      "chip": "ym2612"
    },
    {
      "channel": 0,
      "note": 57,
      "start": 108.8721,
      "duration": 0.0611,
      "velocity": 100,
      "chip": "ym2612"
    },
    {
      "channel": 1,
      "note": 54,
      "start": 108.8788,
      "duration": 0.1593,
      "velocity": 79,
      "chip": "ym2612"
    },
    {
      "channel": 0,
      "note": 47,
      "start": 109.0815,
      "duration": 0.1659,
      "velocity": 79,
      "chip": "ym2612"
    },
    {
      "channel": 1,
      "note": 59,
      "start": 109.0883,
      "duration": 0.0557,
      "velocity": 100,
      "chip": "ym2612"
    },
    {
      "channel": 2,
      "note": 24,
      "start": 109.0952,
      "duration": 0.049,
      "velocity": 112,
      "chip": "ym2612"
    },
    {
      "channel": 3,
      "note": 38,
      "start": 109.1001,
      "duration": 0.7414,
      "velocity": 99,
      "chip": "ym2612"
    },
    {
      "channel": 4,
      "note": 74,
      "start": 109.1082,
      "duration": 1.519,
      "velocity": 80,
      "chip": "ym2612"
    },
    {
      "channel": 0,
      "note": 62,
      "start": 109.2917,
      "duration": 0.0652,
      "velocity": 100,
      "chip": "ym2612"
    },
    {
      "channel": 1,
      "note": 50,
      "start": 109.2985,
      "duration": 0.141,
      "velocity": 79,
      "chip": "ym2612"
    },
    {
      "channel": 0,
      "note": 47,
      "start": 109.483,
      "duration": 0.1659,
      "velocity": 79,
      "chip": "ym2612"
    },
    {
      "channel": 1,
      "note": 66,
      "start": 109.4898,
      "duration": 0.0544,
      "velocity": 100,
      "chip": "ym2612"
    },
    {
      "channel": 2,
      "note": 67,
      "start": 109.4976,
      "duration": 0.047,
      "velocity": 127,
      "chip": "ym2612"
    },
    {
      "channel": 0,
      "note": 67,
      "start": 109.6759,
      "duration": 0.0602,
      "velocity": 127,
      "chip": "ym2612"
    },
    {
      "channel": 1,
      "note": 57,
      "start": 109.6804,
      "duration": 0.0559,
      "velocity": 100,
      "chip": "ym2612"
    },
    {
      "channel": 2,
      "note": 54,
      "start": 109.6874,
      "duration": 0.1539,
      "velocity": 79,
      "chip": "ym2612"
    },
    {
      "channel": 0,
      "note": 67,
      "start": 109.7783,
      "duration": 0.0627,
      "velocity": 127,
      "chip": "ym2612"
    },
    {
      "channel": 0,
      "note": 47,
      "start": 109.8844,
      "duration": 0.1484,
      "velocity": 79,
      "chip": "ym2612"
    },
    {
      "channel": 1,
      "note": 59,
      "start": 109.889,
      "duration": 0.0394,
      "velocity": 100,
      "chip": "ym2612"
    },
    {
      "channel": 2,
      "note": 33,
      "start": 109.8959,
      "duration": 0.7308,
      "velocity": 99,
      "chip": "ym2612"
    },
    {
      "channel": 3,
      "note": 24,
      "start": 109.9031,
      "duration": 0.0258,
      "velocity": 112,
      "chip": "ym2612"
    },
    {
      "channel": 1,
      "note": 24,
      "start": 109.972,
      "duration": 0.0611,
      "velocity": 112,
      "chip": "ym2612"
    },
    {
      "channel": 0,
      "note": 62,
      "start": 110.0766,
      "duration": 0.0611,
      "velocity": 100,
      "chip": "ym2612"
    },
    {
      "channel": 1,
      "note": 45,
      "start": 110.0834,
      "duration": 0.1425,
      "velocity": 79,
      "chip": "ym2612"
    },
    {
      "channel": 0,
      "note": 47,
      "start": 110.2685,
      "duration": 0.1659,
      "velocity": 79,
      "chip": "ym2612"
    },
    {
      "channel": 1,
      "note": 66,
      "start": 110.2755,
      "duration": 0.0543,
      "velocity": 100,
      "chip": "ym2612"
    },
    {
      "channel": 3,
      "note": 67,
      "start": 110.2834,
      "duration": 0.0468,
      "velocity": 127,
      "chip": "ym2612"
    },
    {
      "channel": 0,
      "note": 67,
      "start": 110.4613,
      "duration": 0.0602,
      "velocity": 127,
      "chip": "ym2612"
    },
    {
      "channel": 1,
      "note": 57,
      "start": 110.4659,
      "duration": 0.0559,
      "velocity": 100,
      "chip": "ym2612"
    },
    {
      "channel": 3,
      "note": 54,
      "start": 110.473,
      "duration": 0.1539,
      "velocity": 79,
      "chip": "ym2612"
    },
    {
      "channel": 0,
      "note": 67,
      "start": 110.5638,
      "duration": 0.0627,
      "velocity": 127,
      "chip": "ym2612"
    },
    {
      "channel": 0,
      "note": 52,
      "start": 110.6704,
      "duration": 0.1479,
      "velocity": 79,
      "chip": "ym2612"
    },
    {
      "channel": 1,
      "note": 64,
      "start": 110.675,
      "duration": 0.0389,
      "velocity": 100,
      "chip": "ym2612"
    },
    {
      "channel": 2,
      "note": 24,
      "start": 110.682,
      "duration": 0.0322,
      "velocity": 112,
      "chip": "ym2612"
    },
    {
      "channel": 3,
      "note": 28,
      "start": 110.6891,
      "duration": 0.7234,
      "velocity": 99,
      "chip": "ym2612"
    },
    {
      "channel": 4,
      "note": 91,
      "start": 110.6948,
      "duration": 1.5033,
      "velocity": 80,
      "chip": "ym2612"
    },
    {
      "channel": 0,
      "note": 55,
      "start": 110.8599,
      "duration": 0.1504,
      "velocity": 79,
      "chip": "ym2612"
    },
    {
      "channel": 0,
      "note": 52,
      "start": 111.0518,
      "duration": 0.1681,
      "velocity": 79,
      "chip": "ym2612"
    },
    {
      "channel": 1,
      "note": 59,
      "start": 111.0564,
      "duration": 0.0589,
      "velocity": 100,
      "chip": "ym2612"
    },
    {
      "channel": 2,
      "note": 67,
      "start": 111.0642,
      "duration": 0.0513,
      "velocity": 127,
      "chip": "ym2612"
    },
    {
      "channel": 0,
      "note": 59,
      "start": 111.2438,
      "duration": 0.1681,
      "velocity": 79,
      "chip": "ym2612"
    },
    {
      "channel": 0,
      "note": 52,
      "start": 111.4559,
      "duration": 0.1479,
      "velocity": 79,
      "chip": "ym2612"
    },
    {
      "channel": 1,
      "note": 67,
      "start": 111.4605,
      "duration": 0.0389,
      "velocity": 100,
      "chip": "ym2612"
    },
    {
      "channel": 2,
      "note": 23,
      "start": 111.4675,
      "duration": 0.7303,
      "velocity": 99,
      "chip": "ym2612"
    },
    {
      "channel": 3,
      "note": 24,
      "start": 111.4745,
      "duration": 0.0253,
      "velocity": 112,
      "chip": "ym2612"
    },
    {
      "channel": 1,
      "note": 24,
      "start": 111.5431,
      "duration": 0.061,
      "velocity": 112,
      "chip": "ym2612"
    },
    {
      "channel": 0,
      "note": 50,
      "start": 111.6452,
      "duration": 0.1506,
      "velocity": 79,
      "chip": "ym2612"
    },
    {
      "channel": 0,
      "note": 52,
      "start": 111.8373,
      "duration": 0.1681,
      "velocity": 79,
      "chip": "ym2612"
    },
    {
      "channel": 1,
      "note": 62,
      "start": 111.8441,
      "duration": 0.0567,
      "velocity": 100,
      "chip": "ym2612"
    },
    {
      "channel": 3,
      "note": 67,
      "start": 111.8521,
      "duration": 0.0491,
      "velocity": 127,
      "chip": "ym2612"
    },
    {
      "channel": 0,
      "note": 59,
      "start": 112.0302,
      "duration": 0.1672,
      "velocity": 79,
      "chip": "ym2612"
    },
    {
      "channel": 0,
      "note": 52,
      "start": 112.2405,
      "duration": 0.1488,
      "velocity": 79,
      "chip": "ym2612"
    },
    {
      "channel": 1,
      "note": 64,
      "start": 112.2451,
      "duration": 0.0398,
      "velocity": 100,
      "chip": "ym2612"
    },
    {
      "channel": 2,
      "note": 24,
      "start": 112.2521,
      "duration": 0.0331,
      "velocity": 112,
      "chip": "ym2612"
    },
    {
      "channel": 3,
      "note": 31,
      "start": 112.2594,
      "duration": 0.724,
      "velocity": 99,
      "chip": "ym2612"
    },
    {
      "channel": 4,
      "note": 95,
      "start": 112.2651,
      "duration": 0.7185,
      "velocity": 80,
      "chip": "ym2612"
    },
    {
      "channel": 0,
      "note": 55,
      "start": 112.4307,
      "duration": 0.1506,
      "velocity": 79,
      "chip": "ym2612"
    },
    {
      "channel": 0,
      "note": 52,
      "start": 112.6228,
      "duration": 0.1681,
      "velocity": 79,
      "chip": "ym2612"
    },
    {
      "channel": 1,
      "note": 59,
      "start": 112.6274,
      "duration": 0.0589,
      "velocity": 100,
      "chip": "ym2612"
    },
    {
      "channel": 2,
      "note": 67,
      "start": 112.6352,
      "duration": 0.0513,
      "velocity": 127,
      "chip": "ym2612"
    },
    {
      "channel": 0,
      "note": 59,
      "start": 112.8166,
      "duration": 0.1662,
      "velocity": 79,
      "chip": "ym2612"
    },
    {
      "channel": 0,
      "note": 52,
      "start": 113.0269,
      "duration": 0.1479,
      "velocity": 79,
      "chip": "ym2612"
    },
    {
      "channel": 1,
      "note": 67,
      "start": 113.0315,
      "duration": 0.0389,
      "velocity": 100,
      "chip": "ym2612"
    },
    {
      "channel": 2,
      "note": 88,
      "start": 113.0393,
      "duration": 0.7296,
      "velocity": 80,
      "chip": "ym2612"
    },
    {
      "channel": 3,
      "note": 26,
      "start": 113.0442,
      "duration": 0.7249,
      "velocity": 99,
      "chip": "ym2612"
    },
    {
      "channel": 4,
      "note": 24,
      "start": 113.0514,
      "duration": 0.0195,
      "velocity": 112,
      "chip": "ym2612"
    },
    {
      "channel": 1,
      "note": 24,
      "start": 113.1139,
      "duration": 0.0612,
      "velocity": 112,
      "chip": "ym2612"
    },
    {
      "channel": 0,
      "note": 50,
      "start": 113.2162,
      "duration": 0.1506,
      "velocity": 79,
      "chip": "ym2612"
    },
    {
      "channel": 0,
      "note": 52,
      "start": 113.4083,
      "duration": 0.1681,
      "velocity": 79,
      "chip": "ym2612"
    },
    {
      "channel": 1,
      "note": 62,
      "start": 113.4151,
      "duration": 0.0567,
      "velocity": 100,
      "chip": "ym2612"
    },
    {
      "channel": 4,
      "note": 67,
      "start": 113.4232,
      "duration": 0.0491,
      "velocity": 127,
      "chip": "ym2612"
    },
    {
      "channel": 1,
      "note": 67,
      "start": 113.5161,
      "duration": 0.0605,
      "velocity": 127,
      "chip": "ym2612"
    },
    {
      "channel": 0,
      "note": 67,
      "start": 113.6033,
      "duration": 0.0602,
      "velocity": 127,
      "chip": "ym2612"
    },
    {
      "channel": 1,
      "note": 59,
      "start": 113.6103,
      "duration": 0.1583,
      "velocity": 79,
      "chip": "ym2612"
    },
    {
      "channel": 0,
      "note": 67,
      "start": 113.7057,
      "duration": 0.0626,
      "velocity": 127,
      "chip": "ym2612"
    },
    {
      "channel": 0,
      "note": 52,
      "start": 113.8129,
      "duration": 0.1648,
      "velocity": 79,
      "chip": "ym2612"
    },
    {
      "channel": 1,
      "note": 64,
      "start": 113.8197,
      "duration": 0.0536,
      "velocity": 100,
      "chip": "ym2612"
    },
    {
      "channel": 2,
      "note": 24,
      "start": 113.8268,
      "duration": 0.0468,
      "velocity": 112,
      "chip": "ym2612"
    },
    {
      "channel": 3,
      "note": 28,
      "start": 113.8317,
      "duration": 0.7401,
      "velocity": 99,
      "chip": "ym2612"
    },
    {
      "channel": 4,
      "note": 86,
      "start": 113.8398,
      "duration": 0.7322,
      "velocity": 80,
      "chip": "ym2612"
    },
    {
      "channel": 0,
      "note": 67,
      "start": 114.0215,
      "duration": 0.0611,
      "velocity": 100,
      "chip": "ym2612"
    },
    {
      "channel": 1,
      "note": 55,
      "start": 114.0283,
      "duration": 0.1418,
      "velocity": 79,
      "chip": "ym2612"
    },
    {
      "channel": 0,
      "note": 52,
      "start": 114.2134,
      "duration": 0.1659,
      "velocity": 79,
      "chip": "ym2612"
    },
    {
      "channel": 1,
      "note": 71,
      "start": 114.2202,
      "duration": 0.0545,
      "velocity": 100,
      "chip": "ym2612"
    },
    {
      "channel": 2,
      "note": 67,
      "start": 114.228,
      "duration": 0.047,
      "velocity": 127,
      "chip": "ym2612"
    },
    {
      "channel": 0,
      "note": 62,
      "start": 114.4063,
      "duration": 0.0652,
      "velocity": 100,
      "chip": "ym2612"
    },
    {
      "channel": 1,
      "note": 59,
      "start": 114.413,
      "duration": 0.1585,
      "velocity": 79,
      "chip": "ym2612"
    },
    {
      "channel": 0,
      "note": 52,
      "start": 114.6148,
      "duration": 0.1659,
      "velocity": 79,
      "chip": "ym2612"
    },
    {
      "channel": 1,
      "note": 64,
      "start": 114.6216,
      "duration": 0.0546,
      "velocity": 100,
      "chip": "ym2612"
    },
    {
      "channel": 2,
      "note": 83,
      "start": 114.6293,
      "duration": 0.7453,
      "velocity": 80,
      "chip": "ym2612"
    },
    {
      "channel": 3,
      "note": 23,
      "start": 114.6343,
      "duration": 0.7406,
      "velocity": 99,
      "chip": "ym2612"
    },
    {
      "channel": 4,
      "note": 24,
      "start": 114.6416,
      "duration": 0.0352,
      "velocity": 112,
      "chip": "ym2612"
    },
    {
      "channel": 1,
      "note": 24,
      "start": 114.7198,
      "duration": 0.0612,
      "velocity": 112,
      "chip": "ym2612"
    },
    {
      "channel": 0,
      "note": 67,
      "start": 114.8244,
      "duration": 0.0611,
      "velocity": 100,
      "chip": "ym2612"
    },
    {
      "channel": 1,
      "note": 50,
      "start": 114.8311,
      "duration": 0.1419,
      "velocity": 79,
      "chip": "ym2612"
    },
    {
      "channel": 0,
      "note": 52,
      "start": 115.0164,
      "duration": 0.1659,
      "velocity": 79,
      "chip": "ym2612"
    },
    {
      "channel": 1,
      "note": 71,
      "start": 115.0231,
      "duration": 0.0545,
      "velocity": 100,
      "chip": "ym2612"
    },
    {
      "channel": 4,
      "note": 67,
      "start": 115.0312,
      "duration": 0.0469,
      "velocity": 127,
      "chip": "ym2612"
    },
    {
      "channel": 0,
      "note": 62,
      "start": 115.2083,
      "duration": 0.0611,
      "velocity": 100,
      "chip": "ym2612"
    },
    {
      "channel": 1,
      "note": 59,
      "start": 115.2151,
      "duration": 0.1593,
      "velocity": 79,
      "chip": "ym2612"
    },
    {
      "channel": 0,
      "note": 52,
      "start": 115.4199,
      "duration": 0.1639,
      "velocity": 79,
      "chip": "ym2612"
    },
    {
      "channel": 1,
      "note": 64,
      "start": 115.4269,
      "duration": 0.0523,
      "velocity": 100,
      "chip": "ym2612"
    },
    {
      "channel": 2,
      "note": 24,
      "start": 115.4338,
      "duration": 0.0456,
      "velocity": 112,
      "chip": "ym2612"
    },
    {
      "channel": 3,
      "note": 31,
      "start": 115.4388,
      "duration": 0.739,
      "velocity": 99,
      "chip": "ym2612"
    },
    {
      "channel": 4,
      "note": 81,
      "start": 115.4468,
      "duration": 1.5167,
      "velocity": 80,
      "chip": "ym2612"
    },
    {
      "channel": 0,
      "note": 67,
      "start": 115.6275,
      "duration": 0.0609,
      "velocity": 100,
      "chip": "ym2612"
    },
    {
      "channel": 1,
      "note": 55,
      "start": 115.6342,
      "duration": 0.1417,
      "velocity": 79,
      "chip": "ym2612"
    },
    {
      "channel": 0,
      "note": 52,
      "start": 115.8193,
      "duration": 0.1659,
      "velocity": 79,
      "chip": "ym2612"
    },
    {
      "channel": 1,
      "note": 71,
      "start": 115.8262,
      "duration": 0.0543,
      "velocity": 100,
      "chip": "ym2612"
    },
    {
      "channel": 2,
      "note": 67,
      "start": 115.834,
      "duration": 0.0468,
      "velocity": 127,
      "chip": "ym2612"
    },
    {
      "channel": 0,
      "note": 67,
      "start": 116.0121,
      "duration": 0.0604,
      "velocity": 127,
      "chip": "ym2612"
    },
    {
      "channel": 1,
      "note": 62,
      "start": 116.0167,
      "duration": 0.0561,
      "velocity": 100,
      "chip": "ym2612"
    },
    {
      "channel": 2,
      "note": 59,
      "start": 116.0236,
      "duration": 0.1539,
      "velocity": 79,
      "chip": "ym2612"
    },
    {
      "channel": 0,
      "note": 67,
      "start": 116.1145,
      "duration": 0.0626,
      "velocity": 127,
      "chip": "ym2612"
    },
    {
      "channel": 0,
      "note": 52,
      "start": 116.2208,
      "duration": 0.1485,
      "velocity": 79,
      "chip": "ym2612"
    },
    {
      "channel": 1,
      "note": 64,
      "start": 116.2254,
      "duration": 0.0393,
      "velocity": 100,
      "chip": "ym2612"
    },
    {
      "channel": 2,
      "note": 26,
      "start": 116.2323,
      "duration": 0.7308,
      "velocity": 99,
      "chip": "ym2612"
    },
    {
      "channel": 3,
      "note": 24,
      "start": 116.2395,
      "duration": 0.0256,
      "velocity": 112,
      "chip": "ym2612"
    },
    {
      "channel": 1,
      "note": 24,
      "start": 116.3082,
      "duration": 0.0614,
      "velocity": 112,
      "chip": "ym2612"
    },
    {
      "channel": 0,
      "note": 62,
      "start": 116.4128,
      "duration": 0.0611,
      "velocity": 100,
      "chip": "ym2612"
    },
    {
      "channel": 1,
      "note": 50,
      "start": 116.4196,
      "duration": 0.1418,
      "velocity": 79,
      "chip": "ym2612"
    },
    {
      "channel": 0,
      "note": 52,
      "start": 116.6053,
      "duration": 0.1654,
      "velocity": 79,
      "chip": "ym2612"
    },
    {
      "channel": 1,
      "note": 59,
      "start": 116.6129,
      "duration": 0.0531,
      "velocity": 99,
      "chip": "ym2612"
    },
    {
      "channel": 3,
      "note": 67,
      "start": 116.6209,
      "duration": 0.0456,
      "velocity": 127,
      "chip": "ym2612"
    },
    {
      "channel": 1,
      "note": 59,
      "start": 116.7082,
      "duration": 0.0627,
      "velocity": 99,
      "chip": "ym2612"
    },
    {
      "channel": 0,
      "note": 59,
      "start": 116.8017,
      "duration": 0.0563,
      "velocity": 99,
      "chip": "ym2612"
    },
    {
      "channel": 1,
      "note": 67,
      "start": 116.8093,
      "duration": 0.0489,
      "velocity": 127,
      "chip": "ym2612"
    },
    {
      "channel": 3,
      "note": 59,
      "start": 116.8164,
      "duration": 0.147,
      "velocity": 79,
      "chip": "ym2612"
    },
    {
      "channel": 0,
      "note": 67,
      "start": 116.9024,
      "duration": 0.0602,
      "velocity": 127,
      "chip": "ym2612"
    },
    {
      "channel": 1,
      "note": 59,
      "start": 116.91,
      "duration": 0.0529,
      "velocity": 99,
      "chip": "ym2612"
    },
    {
      "channel": 0,
      "note": 81,
      "start": 117.0094,
      "duration": 0.0581,
      "velocity": 99,
      "chip": "ym2612"
    },
    {
      "channel": 1,
      "note": 69,
      "start": 117.0162,
      "duration": 0.1563,
      "velocity": 86,
      "chip": "ym2612"
    },
    {
      "channel": 2,
      "note": 24,
      "start": 117.0231,
      "duration": 0.0447,
      "velocity": 112,
      "chip": "ym2612"
    },
    {
      "channel": 3,
      "note": 57,
      "start": 117.0302,
      "duration": 0.7359,
      "velocity": 62,
      "chip": "ym2612"
    },
    {
      "channel": 4,
      "note": 45,
      "start": 117.0375,
      "duration": 0.7288,
      "velocity": 96,
      "chip": "ym2612"
    },
    {
      "channel": 0,
      "note": 81,
      "start": 117.1094,
      "duration": 0.0628,
      "velocity": 99,
      "chip": "ym2612"
    },
    {
      "channel": 0,
      "note": 64,
      "start": 117.2157,
      "duration": 0.1485,
      "velocity": 86,
      "chip": "ym2612"
    },
    {
      "channel": 0,
      "note": 72,
      "start": 117.4055,
      "duration": 0.1681,
      "velocity": 86,
      "chip": "ym2612"
    },
    {
      "channel": 1,
      "note": 76,
      "start": 117.4131,
      "duration": 0.056,
      "velocity": 99,
      "chip": "ym2612"
    },
    {
      "channel": 2,
      "note": 67,
      "start": 117.4209,
      "duration": 0.0485,
      "velocity": 127,
      "chip": "ym2612"
    },
    {
      "channel": 1,
      "note": 76,
      "start": 117.5112,
      "duration": 0.0627,
      "velocity": 99,
      "chip": "ym2612"
    },
    {
      "channel": 0,
      "note": 67,
      "start": 117.5975,
      "duration": 0.168,
      "velocity": 86,
      "chip": "ym2612"
    },
    {
      "channel": 0,
      "note": 69,
      "start": 117.8071,
      "duration": 0.1504,
      "velocity": 86,
      "chip": "ym2612"
    },
    {
      "channel": 1,
      "note": 84,
      "start": 117.8123,
      "duration": 0.0408,
      "velocity": 99,
      "chip": "ym2612"
    },
    {
      "channel": 2,
      "note": 40,
      "start": 117.8192,
      "duration": 0.7322,
      "velocity": 96,
      "chip": "ym2612"
    },
    {
      "channel": 3,
      "note": 52,
      "start": 117.8242,
      "duration": 0.7276,
      "velocity": 62,
      "chip": "ym2612"
    },
    {
      "channel": 4,
      "note": 24,
      "start": 117.8315,
      "duration": 0.0222,
      "velocity": 112,
      "chip": "ym2612"
    },
    {
      "channel": 1,
      "note": 24,
      "start": 117.8966,
      "duration": 0.0611,
      "velocity": 112,
      "chip": "ym2612"
    },
    {
      "channel": 4,
      "note": 84,
      "start": 117.9047,
      "duration": 0.0535,
      "velocity": 99,
      "chip": "ym2612"
    },
    {
      "channel": 0,
      "note": 84,
      "start": 118.0021,
      "duration": 0.0603,
      "velocity": 99,
      "chip": "ym2612"
    },
    {
      "channel": 0,
      "note": 84,
      "start": 118.1082,
      "duration": 0.0415,
      "velocity": 99,
      "chip": "ym2612"
    },
    {
      "channel": 0,
      "note": 79,
      "start": 118.1916,
      "duration": 0.0628,
      "velocity": 99,
      "chip": "ym2612"
    },
    {
      "channel": 1,
      "note": 69,
      "start": 118.1984,
      "duration": 0.1611,
      "velocity": 86,
      "chip": "ym2612"
    },
    {
      "channel": 4,
      "note": 67,
      "start": 118.2065,
      "duration": 0.0486,
      "velocity": 127,
      "chip": "ym2612"
    },
    {
      "channel": 0,
      "note": 79,
      "start": 118.2964,
      "duration": 0.0628,
      "velocity": 99,
      "chip": "ym2612"
    },
    {
      "channel": 0,
      "note": 81,
      "start": 118.5932,
      "duration": 0.0452,
      "velocity": 99,
      "chip": "ym2612"
    },
    {
      "channel": 1,
      "note": 69,
      "start": 118.5978,
      "duration": 0.1456,
      "velocity": 86,
      "chip": "ym2612"
    },
    {
      "channel": 2,
      "note": 24,
      "start": 118.6047,
      "duration": 0.0341,
      "velocity": 112,
      "chip": "ym2612"
    },
    {
      "channel": 3,
      "note": 60,
      "start": 118.6096,
      "duration": 0.3261,
      "velocity": 62,
      "chip": "ym2612"
    },
    {
      "channel": 4,
      "note": 48,
      "start": 118.6169,
      "duration": 0.319,
      "velocity": 96,
      "chip": "ym2612"
    },
    {
      "channel": 0,
      "note": 81,
      "start": 118.683,
      "duration": 0.0601,
      "velocity": 99,
      "chip": "ym2612"
    },
    {
      "channel": 0,
      "note": 64,
      "start": 118.7867,
      "duration": 0.1485,
      "velocity": 86,
      "chip": "ym2612"
    },
    {
      "channel": 0,
      "note": 72,
      "start": 118.9764,
      "duration": 0.1857,
      "velocity": 86,
      "chip": "ym2612"
    },
    {
      "channel": 1,
      "note": 76,
      "start": 118.9841,
      "duration": 0.0735,
      "velocity": 99,
      "chip": "ym2612"
    },
    {
      "channel": 2,
      "note": 48,
      "start": 118.991,
      "duration": 0.3635,
      "velocity": 96,
      "chip": "ym2612"
    },
    {
      "channel": 3,
      "note": 60,
      "start": 118.9959,
      "duration": 0.3588,
      "velocity": 62,
      "chip": "ym2612"
    },
    {
      "channel": 4,
      "note": 67,
      "start": 119.004,
      "duration": 0.054,
      "velocity": 127,
      "chip": "ym2612"
    },
    {
      "channel": 1,
      "note": 76,
      "start": 119.0995,
      "duration": 0.0629,
      "velocity": 99,
      "chip": "ym2612"
    },
    {
      "channel": 0,
      "note": 67,
      "start": 119.1877,
      "duration": 0.1664,
      "velocity": 86,
      "chip": "ym2612"
    },
    {
      "channel": 0,
      "note": 69,
      "start": 119.3954,
      "duration": 0.1506,
      "velocity": 86,
      "chip": "ym2612"
    },
    {
      "channel": 1,
      "note": 84,
      "start": 119.4007,
      "duration": 0.0408,
      "velocity": 99,
      "chip": "ym2612"
    },
    {
      "channel": 2,
      "note": 55,
      "start": 119.4076,
      "duration": 0.7324,
      "velocity": 62,
      "chip": "ym2612"
    },
    {
      "channel": 3,
      "note": 43,
      "start": 119.4147,
      "duration": 0.7255,
      "velocity": 96,
      "chip": "ym2612"
    },
    {
      "channel": 4,
      "note": 24,
      "start": 119.422,
      "duration": 0.02,
      "velocity": 112,
      "chip": "ym2612"
    },
    {
      "channel": 1,
      "note": 24,
      "start": 119.4851,
      "duration": 0.0612,
      "velocity": 112,
      "chip": "ym2612"
    },
    {
      "channel": 4,
      "note": 84,
      "start": 119.4933,
      "duration": 0.0536,
      "velocity": 99,
      "chip": "ym2612"
    },
    {
      "channel": 0,
      "note": 84,
      "start": 119.5904,
      "duration": 0.0604,
      "velocity": 99,
      "chip": "ym2612"
    },
    {
      "channel": 0,
      "note": 84,
      "start": 119.6933,
      "duration": 0.0447,
      "velocity": 99,
      "chip": "ym2612"
    },
    {
      "channel": 0,
      "note": 79,
      "start": 119.7802,
      "duration": 0.0626,
      "velocity": 99,
      "chip": "ym2612"
    },
    {
      "channel": 1,
      "note": 69,
      "start": 119.787,
      "duration": 0.1609,
      "velocity": 86,
      "chip": "ym2612"
    },
    {
      "channel": 4,
      "note": 67,
      "start": 119.7951,
      "duration": 0.0484,
      "velocity": 127,
      "chip": "ym2612"
    },
    {
      "channel": 0,
      "note": 67,
      "start": 119.8872,
      "duration": 0.0604,
      "velocity": 127,
      "chip": "ym2612"
    },
    {
      "channel": 4,
      "note": 79,
      "start": 119.8953,
      "duration": 0.0531,
      "velocity": 99,
      "chip": "ym2612"
    },
    {
      "channel": 0,
      "note": 67,
      "start": 119.9722,
      "duration": 0.0626,
      "velocity": 127,
      "chip": "ym2612"
    },
    {
      "channel": 0,
      "note": 67,
      "start": 120.0768,
      "duration": 0.0628,
      "velocity": 127,
      "chip": "ym2612"
    },
    {
      "channel": 0,
      "note": 81,
      "start": 120.185,
      "duration": 0.0592,
      "velocity": 99,
      "chip": "ym2612"
    },
    {
      "channel": 1,
      "note": 69,
      "start": 120.1895,
      "duration": 0.1597,
      "velocity": 86,
      "chip": "ym2612"
    },
    {
      "channel": 2,
      "note": 24,
      "start": 120.1965,
      "duration": 0.0481,
      "velocity": 112,
      "chip": "ym2612"
    },
    {
      "channel": 3,
      "note": 45,
      "start": 120.2014,
      "duration": 0.7416,
      "velocity": 96,
      "chip": "ym2612"
    },
    {
      "channel": 4,
      "note": 57,
      "start": 120.2089,
      "duration": 0.7344,
      "velocity": 62,
      "chip": "ym2612"
    },
    {
      "channel": 0,
      "note": 81,
      "start": 120.2864,
      "duration": 0.0626,
      "velocity": 99,
      "chip": "ym2612"
    },
    {
      "channel": 0,
      "note": 64,
      "start": 120.3929,
      "duration": 0.1481,
      "velocity": 86,
      "chip": "ym2612"
    },
    {
      "channel": 0,
      "note": 72,
      "start": 120.5825,
      "duration": 0.1681,
      "velocity": 86,
      "chip": "ym2612"
    },
    {
      "channel": 1,
      "note": 76,
      "start": 120.5901,
      "duration": 0.0559,
      "velocity": 99,
      "chip": "ym2612"
    },
    {
      "channel": 2,
      "note": 67,
      "start": 120.5979,
      "duration": 0.0483,
      "velocity": 127,
      "chip": "ym2612"
    },
    {
      "channel": 1,
      "note": 76,
      "start": 120.6879,
      "duration": 0.0629,
      "velocity": 99,
      "chip": "ym2612"
    },
    {
      "channel": 0,
      "note": 67,
      "start": 120.7744,
      "duration": 0.1681,
      "velocity": 86,
      "chip": "ym2612"
    },
    {
      "channel": 0,
      "note": 69,
      "start": 120.9839,
      "duration": 0.1529,
      "velocity": 86,
      "chip": "ym2612"
    },
    {
      "channel": 1,
      "note": 84,
      "start": 120.9891,
      "duration": 0.041,
      "velocity": 99,
      "chip": "ym2612"
    },
    {
      "channel": 2,
      "note": 52,
      "start": 120.996,
      "duration": 0.7323,
      "velocity": 62,
      "chip": "ym2612"
    },
    {
      "channel": 3,
      "note": 40,
      "start": 121.001,
      "duration": 0.7276,
      "velocity": 96,
      "chip": "ym2612"
    },
    {
      "channel": 4,
      "note": 24,
      "start": 121.0082,
      "duration": 0.0223,
      "velocity": 112,
      "chip": "ym2612"
    },
    {
      "channel": 1,
      "note": 24,
      "start": 121.0736,
      "duration": 0.0634,
      "velocity": 112,
      "chip": "ym2612"
    },
    {
      "channel": 4,
      "note": 84,
      "start": 121.0817,
      "duration": 0.0558,
      "velocity": 99,
      "chip": "ym2612"
    },
    {
      "channel": 0,
      "note": 84,
      "start": 121.1788,
      "duration": 0.0604,
      "velocity": 99,
      "chip": "ym2612"
    },
    {
      "channel": 0,
      "note": 84,
      "start": 121.2813,
      "duration": 0.0452,
      "velocity": 99,
      "chip": "ym2612"
    },
    {
      "channel": 0,
      "note": 79,
      "start": 121.3687,
      "duration": 0.0626,
      "velocity": 99,
      "chip": "ym2612"
    },
    {
      "channel": 1,
      "note": 69,
      "start": 121.3756,
      "duration": 0.1607,
      "velocity": 86,
      "chip": "ym2612"
    },
    {
      "channel": 4,
      "note": 67,
      "start": 121.3837,
      "duration": 0.0482,
      "velocity": 127,
      "chip": "ym2612"
    },
    {
      "channel": 0,
      "note": 79,
      "start": 121.4732,
      "duration": 0.0628,
      "velocity": 99,
      "chip": "ym2612"
    },
    {
      "channel": 0,
      "note": 81,
      "start": 121.77,
      "duration": 0.0452,
      "velocity": 99,
      "chip": "ym2612"
    },
    {
      "channel": 1,
      "note": 69,
      "start": 121.7746,
      "duration": 0.1457,
      "velocity": 86,
      "chip": "ym2612"
    },
    {
      "channel": 2,
      "note": 24,
      "start": 121.7815,
      "duration": 0.0341,
      "velocity": 112,
      "chip": "ym2612"
    },
    {
      "channel": 3,
      "note": 48,
      "start": 121.7865,
      "duration": 0.326,
      "velocity": 96,
      "chip": "ym2612"
    },
    {
      "channel": 4,
      "note": 60,
      "start": 121.7939,
      "duration": 0.3188,
      "velocity": 62,
      "chip": "ym2612"
    },
    {
      "channel": 0,
      "note": 81,
      "start": 121.8573,
      "duration": 0.0627,
      "velocity": 99,
      "chip": "ym2612"
    },
    {
      "channel": 0,
      "note": 64,
      "start": 121.9635,
      "duration": 0.1485,
      "velocity": 86,
      "chip": "ym2612"
    },
    {
      "channel": 0,
      "note": 72,
      "start": 122.1534,
      "duration": 0.1855,
      "velocity": 86,
      "chip": "ym2612"
    },
    {
      "channel": 1,
      "note": 76,
      "start": 122.1611,
      "duration": 0.0733,
      "velocity": 99,
      "chip": "ym2612"
    },
    {
      "channel": 2,
      "note": 60,
      "start": 122.168,
      "duration": 0.3634,
      "velocity": 62,
      "chip": "ym2612"
    },
    {
      "channel": 3,
      "note": 48,
      "start": 122.1729,
      "duration": 0.3587,
      "velocity": 96,
      "chip": "ym2612"
    },
    {
      "channel": 4,
      "note": 67,
      "start": 122.1811,
      "duration": 0.0538,
      "velocity": 127,
      "chip": "ym2612"
    },
    {
      "channel": 1,
      "note": 76,
      "start": 122.2763,
      "duration": 0.0629,
      "velocity": 99,
      "chip": "ym2612"
    },
    {
      "channel": 0,
      "note": 67,
      "start": 122.368,
      "duration": 0.0582,
      "velocity": 127,
      "chip": "ym2612"
    },
    {
      "channel": 1,
      "note": 67,
      "start": 122.3747,
      "duration": 0.1565,
      "velocity": 86,
      "chip": "ym2612"
    },
    {
      "channel": 0,
      "note": 67,
      "start": 122.4683,
      "duration": 0.0626,
      "velocity": 127,
      "chip": "ym2612"
    },
    {
      "channel": 0,
      "note": 64,
      "start": 122.5744,
      "duration": 0.358,
      "velocity": 86,
      "chip": "ym2612"
    },
    {
      "channel": 1,
      "note": 84,
      "start": 122.5821,
      "duration": 0.0538,
      "velocity": 99,
      "chip": "ym2612"
    },
    {
      "channel": 2,
      "note": 43,
      "start": 122.589,
      "duration": 0.7452,
      "velocity": 96,
      "chip": "ym2612"
    },
    {
      "channel": 3,
      "note": 55,
      "start": 122.5961,
      "duration": 0.1448,
      "velocity": 62,
      "chip": "ym2612"
    },
    {
      "channel": 4,
      "note": 24,
      "start": 122.6034,
      "duration": 0.033,
      "velocity": 112,
      "chip": "ym2612"
    },
    {
      "channel": 1,
      "note": 24,
      "start": 122.6794,
      "duration": 0.0611,
      "velocity": 112,
      "chip": "ym2612"
    },
    {
      "channel": 4,
      "note": 84,
      "start": 122.6876,
      "duration": 0.0536,
      "velocity": 99,
      "chip": "ym2612"
    },
    {
      "channel": 1,
      "note": 84,
      "start": 122.7851,
      "duration": 0.0602,
      "velocity": 99,
      "chip": "ym2612"
    },
    {
      "channel": 3,
      "note": 52,
      "start": 122.79,
      "duration": 0.5445,
      "velocity": 62,
      "chip": "ym2612"
    },
    {
      "channel": 1,
      "note": 84,
      "start": 122.8873,
      "duration": 0.0454,
      "velocity": 99,
      "chip": "ym2612"
    },
    {
      "channel": 0,
      "note": 79,
      "start": 122.9769,
      "duration": 0.0602,
      "velocity": 99,
      "chip": "ym2612"
    },
    {
      "channel": 1,
      "note": 67,
      "start": 122.9845,
      "duration": 0.0529,
      "velocity": 127,
      "chip": "ym2612"
    },
    {
      "channel": 0,
      "note": 79,
      "start": 123.0791,
      "duration": 0.0628,
      "velocity": 99,
      "chip": "ym2612"
    },
    {
      "channel": 0,
      "note": 67,
      "start": 123.172,
      "duration": 0.0572,
      "velocity": 127,
      "chip": "ym2612"
    },
    {
      "channel": 0,
      "note": 67,
      "start": 123.2713,
      "duration": 0.0626,
      "velocity": 127,
      "chip": "ym2612"
    },
    {
      "channel": 0,
      "note": 83,
      "start": 123.3788,
      "duration": 0.0599,
      "velocity": 99,
      "chip": "ym2612"
    },
    {
      "channel": 1,
      "note": 59,
      "start": 123.3855,
      "duration": 0.7515,
      "velocity": 62,
      "chip": "ym2612"
    },
    {
      "channel": 2,
      "note": 24,
      "start": 123.3926,
      "duration": 0.0464,
      "velocity": 112,
      "chip": "ym2612"
    },
    {
      "channel": 3,
      "note": 47,
      "start": 123.3998,
      "duration": 0.7376,
      "velocity": 96,
      "chip": "ym2612"
    },
    {
      "channel": 4,
      "note": 71,
      "start": 123.407,
      "duration": 0.1371,
      "velocity": 86,
      "chip": "ym2612"
    },
    {
      "channel": 0,
      "note": 83,
      "start": 123.4807,
      "duration": 0.0628,
      "velocity": 99,
      "chip": "ym2612"
    },
    {
      "channel": 0,
      "note": 66,
      "start": 123.587,
      "duration": 0.1484,
      "velocity": 86,
      "chip": "ym2612"
    },
    {
      "channel": 0,
      "note": 74,
      "start": 123.7767,
      "duration": 0.1681,
      "velocity": 86,
      "chip": "ym2612"
    },
    {
      "channel": 2,
      "note": 78,
      "start": 123.7845,
      "duration": 0.0559,
      "velocity": 99,
      "chip": "ym2612"
    },
    {
      "channel": 4,
      "note": 67,
      "start": 123.7926,
      "duration": 0.0481,
      "velocity": 127,
      "chip": "ym2612"
    },
    {
      "channel": 2,
      "note": 78,
      "start": 123.8825,
      "duration": 0.0627,
      "velocity": 99,
      "chip": "ym2612"
    },
    {
      "channel": 0,
      "note": 69,
      "start": 123.9687,
      "duration": 0.168,
      "velocity": 86,
      "chip": "ym2612"
    },
    {
      "channel": 0,
      "note": 71,
      "start": 124.1797,
      "duration": 0.1667,
      "velocity": 86,
      "chip": "ym2612"
    },
    {
      "channel": 1,
      "note": 86,
      "start": 124.1872,
      "duration": 0.0545,
      "velocity": 99,
      "chip": "ym2612"
    },
    {
      "channel": 2,
      "note": 42,
      "start": 124.1942,
      "duration": 0.746,
      "velocity": 96,
      "chip": "ym2612"
    },
    {
      "channel": 3,
      "note": 24,
      "start": 124.2013,
      "duration": 0.0408,
      "velocity": 112,
      "chip": "ym2612"
    },
    {
      "channel": 4,
      "note": 54,
      "start": 124.2086,
      "duration": 0.7319,
      "velocity": 62,
      "chip": "ym2612"
    },
    {
      "channel": 1,
      "note": 24,
      "start": 124.2853,
      "duration": 0.0613,
      "velocity": 112,
      "chip": "ym2612"
    },
    {
      "channel": 3,
      "note": 86,
      "start": 124.2932,
      "duration": 0.0537,
      "velocity": 99,
      "chip": "ym2612"
    },
    {
      "channel": 0,
      "note": 86,
      "start": 124.3907,
      "duration": 0.0603,
      "velocity": 99,
      "chip": "ym2612"
    },
    {
      "channel": 0,
      "note": 86,
      "start": 124.4932,
      "duration": 0.0494,
      "velocity": 99,
      "chip": "ym2612"
    },
    {
      "channel": 0,
      "note": 81,
      "start": 124.5803,
      "duration": 0.0628,
      "velocity": 99,
      "chip": "ym2612"
    },
    {
      "channel": 1,
      "note": 71,
      "start": 124.5871,
      "duration": 0.1609,
      "velocity": 86,
      "chip": "ym2612"
    },
    {
      "channel": 3,
      "note": 67,
      "start": 124.5951,
      "duration": 0.0486,
      "velocity": 127,
      "chip": "ym2612"
    },
    {
      "channel": 0,
      "note": 81,
      "start": 124.6851,
      "duration": 0.0626,
      "velocity": 99,
      "chip": "ym2612"
    },
    {
      "channel": 0,
      "note": 83,
      "start": 124.9819,
      "duration": 0.0452,
      "velocity": 99,
      "chip": "ym2612"
    },
    {
      "channel": 1,
      "note": 71,
      "start": 124.9864,
      "duration": 0.1457,
      "velocity": 86,
      "chip": "ym2612"
    },
    {
      "channel": 2,
      "note": 24,
      "start": 124.9935,
      "duration": 0.0339,
      "velocity": 112,
      "chip": "ym2612"
    },
    {
      "channel": 3,
      "note": 62,
      "start": 125.0007,
      "duration": 0.3237,
      "velocity": 62,
      "chip": "ym2612"
    },
    {
      "channel": 4,
      "note": 50,
      "start": 125.008,
      "duration": 0.3166,
      "velocity": 96,
      "chip": "ym2612"
    },
    {
      "channel": 0,
      "note": 83,
      "start": 125.069,
      "duration": 0.0628,
      "velocity": 99,
      "chip": "ym2612"
    },
    {
      "channel": 0,
      "note": 66,
      "start": 125.1757,
      "duration": 0.1481,
      "velocity": 86,
      "chip": "ym2612"
    },
    {
      "channel": 0,
      "note": 74,
      "start": 125.3652,
      "duration": 0.1857,
      "velocity": 86,
      "chip": "ym2612"
    },
    {
      "channel": 1,
      "note": 78,
      "start": 125.3727,
      "duration": 0.0735,
      "velocity": 99,
      "chip": "ym2612"
    },
    {
      "channel": 2,
      "note": 50,
      "start": 125.3797,
      "duration": 0.3634,
      "velocity": 96,
      "chip": "ym2612"
    },
    {
      "channel": 3,
      "note": 62,
      "start": 125.3846,
      "duration": 0.3587,
      "velocity": 62,
      "chip": "ym2612"
    },
    {
      "channel": 4,
      "note": 67,
      "start": 125.3927,
      "duration": 0.054,
      "velocity": 127,
      "chip": "ym2612"
    },
    {
      "channel": 1,
      "note": 78,
      "start": 125.4882,
      "duration": 0.0629,
      "velocity": 99,
      "chip": "ym2612"
    },
    {
      "channel": 0,
      "note": 69,
      "start": 125.5747,
      "duration": 0.1679,
      "velocity": 86,
      "chip": "ym2612"
    },
    {
      "channel": 0,
      "note": 71,
      "start": 125.7842,
      "duration": 0.1506,
      "velocity": 86,
      "chip": "ym2612"
    },
    {
      "channel": 1,
      "note": 86,
      "start": 125.7894,
      "duration": 0.0408,
      "velocity": 99,
      "chip": "ym2612"
    },
    {
      "channel": 2,
      "note": 57,
      "start": 125.7963,
      "duration": 0.7322,
      "velocity": 62,
      "chip": "ym2612"
    },
    {
      "channel": 3,
      "note": 45,
      "start": 125.8034,
      "duration": 0.7253,
      "velocity": 96,
      "chip": "ym2612"
    },
    {
      "channel": 4,
      "note": 24,
      "start": 125.8107,
      "duration": 0.02,
      "velocity": 112,
      "chip": "ym2612"
    },
    {
      "channel": 1,
      "note": 24,
      "start": 125.8737,
      "duration": 0.0613,
      "velocity": 112,
      "chip": "ym2612"
    },
    {
      "channel": 4,
      "note": 86,
      "start": 125.8818,
      "duration": 0.0537,
      "velocity": 99,
      "chip": "ym2612"
    },
    {
      "channel": 0,
      "note": 86,
      "start": 125.9792,
      "duration": 0.0602,
      "velocity": 99,
      "chip": "ym2612"
    },
    {
      "channel": 0,
      "note": 86,
      "start": 126.0816,
      "duration": 0.0452,
      "velocity": 99,
      "chip": "ym2612"
    },
    {
      "channel": 0,
      "note": 81,
      "start": 126.1688,
      "duration": 0.0628,
      "velocity": 99,
      "chip": "ym2612"
    },
    {
      "channel": 1,
      "note": 71,
      "start": 126.1757,
      "duration": 0.1607,
      "velocity": 86,
      "chip": "ym2612"
    },
    {
      "channel": 4,
      "note": 67,
      "start": 126.1839,
      "duration": 0.0483,
      "velocity": 127,
      "chip": "ym2612"
    },
    {
      "channel": 0,
      "note": 67,
      "start": 126.2759,
      "duration": 0.0603,
      "velocity": 127,
      "chip": "ym2612"
    },
    {
      "channel": 4,
      "note": 81,
      "start": 126.2841,
      "duration": 0.0529,
      "velocity": 99,
      "chip": "ym2612"
    },
    {
      "channel": 0,
      "note": 67,
      "start": 126.3608,
      "duration": 0.0643,
      "velocity": 127,
      "chip": "ym2612"
    },
    {
      "channel": 0,
      "note": 67,
      "start": 126.4655,
      "duration": 0.0627,
      "velocity": 127,
      "chip": "ym2612"
    },
    {
      "channel": 0,
      "note": 83,
      "start": 126.5761,
      "duration": 0.0569,
      "velocity": 99,
      "chip": "ym2612"
    },
    {
      "channel": 1,
      "note": 71,
      "start": 126.5807,
      "duration": 0.1573,
      "velocity": 86,
      "chip": "ym2612"
    },
    {
      "channel": 2,
      "note": 24,
      "start": 126.5876,
      "duration": 0.0457,
      "velocity": 112,
      "chip": "ym2612"
    },
    {
      "channel": 3,
      "note": 47,
      "start": 126.5925,
      "duration": 0.7391,
      "velocity": 96,
      "chip": "ym2612"
    },
    {
      "channel": 4,
      "note": 59,
      "start": 126.5998,
      "duration": 0.7321,
      "velocity": 62,
      "chip": "ym2612"
    },
    {
      "channel": 0,
      "note": 83,
      "start": 126.675,
      "duration": 0.0628,
      "velocity": 99,
      "chip": "ym2612"
    },
    {
      "channel": 0,
      "note": 66,
      "start": 126.7813,
      "duration": 0.1484,
      "velocity": 86,
      "chip": "ym2612"
    },
    {
      "channel": 0,
      "note": 74,
      "start": 126.9711,
      "duration": 0.1729,
      "velocity": 86,
      "chip": "ym2612"
    },
    {
      "channel": 1,
      "note": 78,
      "start": 126.9786,
      "duration": 0.0561,
      "velocity": 99,
      "chip": "ym2612"
    },
    {
      "channel": 2,
      "note": 67,
      "start": 126.9865,
      "duration": 0.0485,
      "velocity": 127,
      "chip": "ym2612"
    },
    {
      "channel": 1,
      "note": 78,
      "start": 127.0804,
      "duration": 0.0637,
      "velocity": 99,
      "chip": "ym2612"
    },
    {
      "channel": 0,
      "note": 69,
      "start": 127.163,
      "duration": 0.1681,
      "velocity": 86,
      "chip": "ym2612"
    },
    {
      "channel": 0,
      "note": 71,
      "start": 127.3726,
      "duration": 0.1506,
      "velocity": 86,
      "chip": "ym2612"
    },
    {
      "channel": 1,
      "note": 86,
      "start": 127.3778,
      "duration": 0.0408,
      "velocity": 99,
      "chip": "ym2612"
    },
    {
      "channel": 2,
      "note": 54,
      "start": 127.3848,
      "duration": 0.7322,
      "velocity": 62,
      "chip": "ym2612"
    },
    {
      "channel": 3,
      "note": 42,
      "start": 127.3897,
      "duration": 0.7275,
      "velocity": 96,
      "chip": "ym2612"
    },
    {
      "channel": 4,
      "note": 24,
      "start": 127.397,
      "duration": 0.0222,
      "velocity": 112,
      "chip": "ym2612"
    },
    {
      "channel": 1,
      "note": 24,
      "start": 127.4622,
      "duration": 0.0613,
      "velocity": 112,
      "chip": "ym2612"
    },
    {
      "channel": 4,
      "note": 86,
      "start": 127.4702,
      "duration": 0.0538,
      "velocity": 99,
      "chip": "ym2612"
    },
    {
      "channel": 0,
      "note": 86,
      "start": 127.5676,
      "duration": 0.0602,
      "velocity": 99,
      "chip": "ym2612"
    },
    {
      "channel": 0,
      "note": 86,
      "start": 127.6701,
      "duration": 0.0451,
      "velocity": 99,
      "chip": "ym2612"
    },
    {
      "channel": 0,
      "note": 81,
      "start": 127.7572,
      "duration": 0.0628,
      "velocity": 99,
      "chip": "ym2612"
    },
    {
      "channel": 1,
      "note": 71,
      "start": 127.764,
      "duration": 0.1609,
      "velocity": 86,
      "chip": "ym2612"
    },
    {
      "channel": 4,
      "note": 67,
      "start": 127.7721,
      "duration": 0.0486,
      "velocity": 127,
      "chip": "ym2612"
    },
    {
      "channel": 0,
      "note": 81,
      "start": 127.862,
      "duration": 0.0627,
      "velocity": 99,
      "chip": "ym2612"
    },
    {
      "channel": 0,
      "note": 83,
      "start": 128.1593,
      "duration": 0.0447,
      "velocity": 99,
      "chip": "ym2612"
    },
    {
      "channel": 1,
      "note": 71,
      "start": 128.1638,
      "duration": 0.1451,
      "velocity": 86,
      "chip": "ym2612"
    },
    {
      "channel": 2,
      "note": 24,
      "start": 128.1707,
      "duration": 0.0336,
      "velocity": 112,
      "chip": "ym2612"
    },
    {
      "channel": 3,
      "note": 50,
      "start": 128.1757,
      "duration": 0.3255,
      "velocity": 96,
      "chip": "ym2612"
    },
    {
      "channel": 4,
      "note": 62,
      "start": 128.183,
      "duration": 0.3185,
      "velocity": 62,
      "chip": "ym2612"
    },
    {
      "channel": 0,
      "note": 83,
      "start": 128.2459,
      "duration": 0.0628,
      "velocity": 99,
      "chip": "ym2612"
    },
    {
      "channel": 0,
      "note": 66,
      "start": 128.3522,
      "duration": 0.1485,
      "velocity": 86,
      "chip": "ym2612"
    },
    {
      "channel": 0,
      "note": 74,
      "start": 128.542,
      "duration": 0.1898,
      "velocity": 86,
      "chip": "ym2612"
    },
    {
      "channel": 1,
      "note": 78,
      "start": 128.5496,
      "duration": 0.0735,
      "velocity": 99,
      "chip": "ym2612"
    },
    {
      "channel": 2,
      "note": 62,
      "start": 128.5566,
      "duration": 0.3636,
      "velocity": 62,
      "chip": "ym2612"
    },
    {
      "channel": 3,
      "note": 50,
      "start": 128.5615,
      "duration": 0.359,
      "velocity": 96,
      "chip": "ym2612"
    },
    {
      "channel": 4,
      "note": 67,
      "start": 128.5696,
      "duration": 0.054,
      "velocity": 127,
      "chip": "ym2612"
    },
    {
      "channel": 1,
      "note": 78,
      "start": 128.6649,
      "duration": 0.0671,
      "velocity": 99,
      "chip": "ym2612"
    },
    {
      "channel": 0,
      "note": 67,
      "start": 128.7545,
      "duration": 0.0604,
      "velocity": 127,
      "chip": "ym2612"
    },
    {
      "channel": 1,
      "note": 69,
      "start": 128.7613,
      "duration": 0.1587,
      "velocity": 86,
      "chip": "ym2612"
    },
    {
      "channel": 0,
      "note": 67,
      "start": 128.8569,
      "duration": 0.0628,
      "velocity": 127,
      "chip": "ym2612"
    },
    {
      "channel": 0,
      "note": 66,
      "start": 128.9632,
      "duration": 0.5693,
      "velocity": 86,
      "chip": "ym2612"
    },
    {
      "channel": 1,
      "note": 86,
      "start": 128.9708,
      "duration": 0.0559,
      "velocity": 99,
      "chip": "ym2612"
    },
    {
      "channel": 2,
      "note": 45,
      "start": 128.9778,
      "duration": 0.7454,
      "velocity": 96,
      "chip": "ym2612"
    },
    {
      "channel": 3,
      "note": 57,
      "start": 128.9849,
      "duration": 0.1448,
      "velocity": 62,
      "chip": "ym2612"
    },
    {
      "channel": 4,
      "note": 24,
      "start": 128.9923,
      "duration": 0.0349,
      "velocity": 112,
      "chip": "ym2612"
    },
    {
      "channel": 1,
      "note": 24,
      "start": 129.068,
      "duration": 0.0612,
      "velocity": 112,
      "chip": "ym2612"
    },
    {
      "channel": 4,
      "note": 86,
      "start": 129.0762,
      "duration": 0.0537,
      "velocity": 99,
      "chip": "ym2612"
    },
    {
      "channel": 1,
      "note": 86,
      "start": 129.1736,
      "duration": 0.0604,
      "velocity": 99,
      "chip": "ym2612"
    },
    {
      "channel": 3,
      "note": 54,
      "start": 129.1786,
      "duration": 0.5448,
      "velocity": 62,
      "chip": "ym2612"
    },
    {
      "channel": 1,
      "note": 86,
      "start": 129.276,
      "duration": 0.0452,
      "velocity": 99,
      "chip": "ym2612"
    },
    {
      "channel": 1,
      "note": 81,
      "start": 129.3632,
      "duration": 0.0628,
      "velocity": 99,
      "chip": "ym2612"
    },
    {
      "channel": 4,
      "note": 67,
      "start": 129.3714,
      "duration": 0.0552,
      "velocity": 127,
      "chip": "ym2612"
    },
    {
      "channel": 1,
      "note": 81,
      "start": 129.469,
      "duration": 0.0637,
      "velocity": 99,
      "chip": "ym2612"
    },
    {
      "channel": 0,
      "note": 67,
      "start": 129.5576,
      "duration": 0.0602,
      "velocity": 127,
      "chip": "ym2612"
    },
    {
      "channel": 1,
      "note": 64,
      "start": 129.5643,
      "duration": 0.1585,
      "velocity": 86,
      "chip": "ym2612"
    },
    {
      "channel": 0,
      "note": 67,
      "start": 129.6598,
      "duration": 0.0628,
      "velocity": 127,
      "chip": "ym2612"
    },
    {
      "channel": 0,
      "note": 64,
      "start": 129.7667,
      "duration": 0.1653,
      "velocity": 86,
      "chip": "ym2612"
    },
    {
      "channel": 1,
      "note": 76,
      "start": 129.7743,
      "duration": 0.0562,
      "velocity": 99,
      "chip": "ym2612"
    },
    {
      "channel": 2,
      "note": 52,
      "start": 129.7812,
      "duration": 0.7447,
      "velocity": 62,
      "chip": "ym2612"
    },
    {
      "channel": 3,
      "note": 24,
      "start": 129.7883,
      "duration": 0.0425,
      "velocity": 112,
      "chip": "ym2612"
    },
    {
      "channel": 4,
      "note": 40,
      "start": 129.7956,
      "duration": 0.7307,
      "velocity": 96,
      "chip": "ym2612"
    },
    {
      "channel": 1,
      "note": 76,
      "start": 129.8696,
      "duration": 0.0627,
      "velocity": 99,
      "chip": "ym2612"
    },
    {
      "channel": 0,
      "note": 59,
      "start": 129.9773,
      "duration": 0.1468,
      "velocity": 86,
      "chip": "ym2612"
    },
    {
      "channel": 0,
      "note": 67,
      "start": 130.1654,
      "duration": 0.1683,
      "velocity": 86,
      "chip": "ym2612"
    },
    {
      "channel": 1,
      "note": 71,
      "start": 130.1706,
      "duration": 0.0584,
      "velocity": 99,
      "chip": "ym2612"
    },
    {
      "channel": 3,
      "note": 67,
      "start": 130.1785,
      "duration": 0.0508,
      "velocity": 127,
      "chip": "ym2612"
    },
    {
      "channel": 1,
      "note": 71,
      "start": 130.271,
      "duration": 0.0629,
      "velocity": 99,
      "chip": "ym2612"
    },
    {
      "channel": 0,
      "note": 62,
      "start": 130.3575,
      "duration": 0.1681,
      "velocity": 86,
      "chip": "ym2612"
    },
    {
      "channel": 0,
      "note": 64,
      "start": 130.5669,
      "duration": 0.1506,
      "velocity": 86,
      "chip": "ym2612"
    },
    {
      "channel": 1,
      "note": 79,
      "start": 130.5721,
      "duration": 0.0408,
      "velocity": 99,
      "chip": "ym2612"
    },
    {
      "channel": 2,
      "note": 35,
      "start": 130.5791,
      "duration": 0.7322,
      "velocity": 96,
      "chip": "ym2612"
    },
    {
      "channel": 3,
      "note": 24,
      "start": 130.5861,
      "duration": 0.0271,
      "velocity": 112,
      "chip": "ym2612"
    },
    {
      "channel": 4,
      "note": 47,
      "start": 130.5935,
      "duration": 0.7181,
      "velocity": 62,
      "chip": "ym2612"
    },
    {
      "channel": 1,
      "note": 24,
      "start": 130.6566,
      "duration": 0.0612,
      "velocity": 112,
      "chip": "ym2612"
    },
    {
      "channel": 3,
      "note": 79,
      "start": 130.6645,
      "duration": 0.0536,
      "velocity": 99,
      "chip": "ym2612"
    },
    {
      "channel": 0,
      "note": 79,
      "start": 130.7619,
      "duration": 0.0604,
      "velocity": 99,
      "chip": "ym2612"
    },
    {
      "channel": 0,
      "note": 79,
      "start": 130.8643,
      "duration": 0.0452,
      "velocity": 99,
      "chip": "ym2612"
    },
    {
      "channel": 0,
      "note": 74,
      "start": 130.9515,
      "duration": 0.0628,
      "velocity": 99,
      "chip": "ym2612"
    },
    {
      "channel": 1,
      "note": 64,
      "start": 130.9583,
      "duration": 0.1609,
      "velocity": 86,
      "chip": "ym2612"
    },
    {
      "channel": 3,
      "note": 67,
      "start": 130.9662,
      "duration": 0.0486,
      "velocity": 127,
      "chip": "ym2612"
    },
    {
      "channel": 0,
      "note": 74,
      "start": 131.0594,
      "duration": 0.0595,
      "velocity": 99,
      "chip": "ym2612"
    },
    {
      "channel": 0,
      "note": 76,
      "start": 131.3531,
      "duration": 0.0451,
      "velocity": 99,
      "chip": "ym2612"
    },
    {
      "channel": 1,
      "note": 64,
      "start": 131.3577,
      "duration": 0.1456,
      "velocity": 86,
      "chip": "ym2612"
    },
    {
      "channel": 2,
      "note": 24,
      "start": 131.3646,
      "duration": 0.034,
      "velocity": 112,
      "chip": "ym2612"
    },
    {
      "channel": 3,
      "note": 55,
      "start": 131.3717,
      "duration": 0.3277,
      "velocity": 62,
      "chip": "ym2612"
    },
    {
      "channel": 4,
      "note": 43,
      "start": 131.379,
      "duration": 0.3207,
      "velocity": 96,
      "chip": "ym2612"
    },
    {
      "channel": 0,
      "note": 76,
      "start": 131.4403,
      "duration": 0.0628,
      "velocity": 99,
      "chip": "ym2612"
    },
    {
      "channel": 0,
      "note": 59,
      "start": 131.5466,
      "duration": 0.1524,
      "velocity": 86,
      "chip": "ym2612"
    },
    {
      "channel": 0,
      "note": 67,
      "start": 131.7363,
      "duration": 0.1856,
      "velocity": 86,
      "chip": "ym2612"
    },
    {
      "channel": 1,
      "note": 71,
      "start": 131.744,
      "duration": 0.0735,
      "velocity": 99,
      "chip": "ym2612"
    },
    {
      "channel": 2,
      "note": 43,
      "start": 131.7509,
      "duration": 0.3635,
      "velocity": 96,
      "chip": "ym2612"
    },
    {
      "channel": 3,
      "note": 55,
      "start": 131.7558,
      "duration": 0.3588,
      "velocity": 62,
      "chip": "ym2612"
    },
    {
      "channel": 4,
      "note": 67,
      "start": 131.7639,
      "duration": 0.054,
      "velocity": 127,
      "chip": "ym2612"
    },
    {
      "channel": 1,
      "note": 71,
      "start": 131.8594,
      "duration": 0.0627,
      "velocity": 99,
      "chip": "ym2612"
    },
    {
      "channel": 0,
      "note": 62,
      "start": 131.9459,
      "duration": 0.1681,
      "velocity": 86,
      "chip": "ym2612"
    },
    {
      "channel": 0,
      "note": 64,
      "start": 132.1554,
      "duration": 0.1506,
      "velocity": 86,
      "chip": "ym2612"
    },
    {
      "channel": 1,
      "note": 79,
      "start": 132.1606,
      "duration": 0.0455,
      "velocity": 99,
      "chip": "ym2612"
    },
    {
      "channel": 2,
      "note": 50,
      "start": 132.1675,
      "duration": 0.7323,
      "velocity": 62,
      "chip": "ym2612"
    },
    {
      "channel": 3,
      "note": 38,
      "start": 132.1746,
      "duration": 0.7254,
      "velocity": 96,
      "chip": "ym2612"
    },
    {
      "channel": 4,
      "note": 24,
      "start": 132.1819,
      "duration": 0.0248,
      "velocity": 112,
      "chip": "ym2612"
    },
    {
      "channel": 1,
      "note": 24,
      "start": 132.2449,
      "duration": 0.0613,
      "velocity": 112,
      "chip": "ym2612"
    },
    {
      "channel": 4,
      "note": 79,
      "start": 132.253,
      "duration": 0.0537,
      "velocity": 99,
      "chip": "ym2612"
    },
    {
      "channel": 0,
      "note": 79,
      "start": 132.3503,
      "duration": 0.0604,
      "velocity": 99,
      "chip": "ym2612"
    },
    {
      "channel": 0,
      "note": 79,
      "start": 132.4528,
      "duration": 0.0452,
      "velocity": 99,
      "chip": "ym2612"
    },
    {
      "channel": 0,
      "note": 74,
      "start": 132.54,
      "duration": 0.0628,
      "velocity": 99,
      "chip": "ym2612"
    },
    {
      "channel": 1,
      "note": 64,
      "start": 132.5467,
      "duration": 0.1609,
      "velocity": 86,
      "chip": "ym2612"
    },
    {
      "channel": 4,
      "note": 67,
      "start": 132.5549,
      "duration": 0.0485,
      "velocity": 127,
      "chip": "ym2612"
    },
    {
      "channel": 0,
      "note": 67,
      "start": 132.651,
      "duration": 0.0563,
      "velocity": 127,
      "chip": "ym2612"
    },
    {
      "channel": 4,
      "note": 74,
      "start": 132.6591,
      "duration": 0.049,
      "velocity": 99,
      "chip": "ym2612"
    },
    {
      "channel": 0,
      "note": 67,
      "start": 132.732,
      "duration": 0.0628,
      "velocity": 127,
      "chip": "ym2612"
    },
    {
      "channel": 0,
      "note": 67,
      "start": 132.8367,
      "duration": 0.0628,
      "velocity": 127,
      "chip": "ym2612"
    },
    {
      "channel": 0,
      "note": 76,
      "start": 132.9449,
      "duration": 0.0623,
      "velocity": 99,
      "chip": "ym2612"
    },
    {
      "channel": 1,
      "note": 64,
      "start": 132.9495,
      "duration": 0.1597,
      "velocity": 86,
      "chip": "ym2612"
    },
    {
      "channel": 2,
      "note": 24,
      "start": 132.9564,
      "duration": 0.0512,
      "velocity": 112,
      "chip": "ym2612"
    },
    {
      "channel": 3,
      "note": 40,
      "start": 132.9613,
      "duration": 0.7417,
      "velocity": 96,
      "chip": "ym2612"
    },
    {
      "channel": 4,
      "note": 52,
      "start": 132.9686,
      "duration": 0.7345,
      "velocity": 62,
      "chip": "ym2612"
    },
    {
      "channel": 0,
      "note": 76,
      "start": 133.0461,
      "duration": 0.0628,
      "velocity": 99,
      "chip": "ym2612"
    },
    {
      "channel": 0,
      "note": 59,
      "start": 133.1561,
      "duration": 0.1447,
      "velocity": 86,
      "chip": "ym2612"
    },
    {
      "channel": 0,
      "note": 67,
      "start": 133.3425,
      "duration": 0.1679,
      "velocity": 86,
      "chip": "ym2612"
    },
    {
      "channel": 1,
      "note": 71,
      "start": 133.3501,
      "duration": 0.0557,
      "velocity": 99,
      "chip": "ym2612"
    },
    {
      "channel": 2,
      "note": 67,
      "start": 133.3579,
      "duration": 0.0481,
      "velocity": 127,
      "chip": "ym2612"
    },
    {
      "channel": 1,
      "note": 71,
      "start": 133.4478,
      "duration": 0.0629,
      "velocity": 99,
      "chip": "ym2612"
    },
    {
      "channel": 0,
      "note": 62,
      "start": 133.5343,
      "duration": 0.1681,
      "velocity": 86,
      "chip": "ym2612"
    },
    {
      "channel": 0,
      "note": 64,
      "start": 133.7439,
      "duration": 0.1504,
      "velocity": 86,
      "chip": "ym2612"
    },
    {
      "channel": 1,
      "note": 79,
      "start": 133.7491,
      "duration": 0.0406,
      "velocity": 99,
      "chip": "ym2612"
    },
    {
      "channel": 2,
      "note": 47,
      "start": 133.7561,
      "duration": 0.7322,
      "velocity": 62,
      "chip": "ym2612"
    },
    {
      "channel": 3,
      "note": 35,
      "start": 133.761,
      "duration": 0.7275,
      "velocity": 96,
      "chip": "ym2612"
    },
    {
      "channel": 4,
      "note": 24,
      "start": 133.7683,
      "duration": 0.022,
      "velocity": 112,
      "chip": "ym2612"
    },
    {
      "channel": 1,
      "note": 24,
      "start": 133.8334,
      "duration": 0.0612,
      "velocity": 112,
      "chip": "ym2612"
    },
    {
      "channel": 4,
      "note": 79,
      "start": 133.8416,
      "duration": 0.0536,
      "velocity": 99,
      "chip": "ym2612"
    },
    {
      "channel": 0,
      "note": 79,
      "start": 133.9388,
      "duration": 0.0604,
      "velocity": 99,
      "chip": "ym2612"
    },
    {
      "channel": 0,
      "note": 79,
      "start": 134.0412,
      "duration": 0.0477,
      "velocity": 99,
      "chip": "ym2612"
    },
    {
      "channel": 0,
      "note": 74,
      "start": 134.1285,
      "duration": 0.0626,
      "velocity": 99,
      "chip": "ym2612"
    },
    {
      "channel": 1,
      "note": 64,
      "start": 134.1353,
      "duration": 0.1609,
      "velocity": 86,
      "chip": "ym2612"
    },
    {
      "channel": 4,
      "note": 67,
      "start": 134.1434,
      "duration": 0.0484,
      "velocity": 127,
      "chip": "ym2612"
    },
    {
      "channel": 0,
      "note": 74,
      "start": 134.2332,
      "duration": 0.0628,
      "velocity": 99,
      "chip": "ym2612"
    },
    {
      "channel": 0,
      "note": 76,
      "start": 134.5299,
      "duration": 0.0452,
      "velocity": 99,
      "chip": "ym2612"
    },
    {
      "channel": 1,
      "note": 64,
      "start": 134.5345,
      "duration": 0.1456,
      "velocity": 86,
      "chip": "ym2612"
    },
    {
      "channel": 2,
      "note": 24,
      "start": 134.5414,
      "duration": 0.034,
      "velocity": 112,
      "chip": "ym2612"
    },
    {
      "channel": 3,
      "note": 43,
      "start": 134.5463,
      "duration": 0.326,
      "velocity": 96,
      "chip": "ym2612"
    },
    {
      "channel": 4,
      "note": 55,
      "start": 134.5536,
      "duration": 0.319,
      "velocity": 62,
      "chip": "ym2612"
    },
    {
      "channel": 0,
      "note": 76,
      "start": 134.6173,
      "duration": 0.0626,
      "velocity": 99,
      "chip": "ym2612"
    },
    {
      "channel": 0,
      "note": 59,
      "start": 134.7234,
      "duration": 0.1485,
      "velocity": 86,
      "chip": "ym2612"
    },
    {
      "channel": 0,
      "note": 67,
      "start": 134.9133,
      "duration": 0.1856,
      "velocity": 86,
      "chip": "ym2612"
    },
    {
      "channel": 1,
      "note": 71,
      "start": 134.921,
      "duration": 0.0733,
      "velocity": 99,
      "chip": "ym2612"
    },
    {
      "channel": 2,
      "note": 55,
      "start": 134.9279,
      "duration": 0.3634,
      "velocity": 62,
      "chip": "ym2612"
    },
    {
      "channel": 3,
      "note": 43,
      "start": 134.9328,
      "duration": 0.3588,
      "velocity": 96,
      "chip": "ym2612"
    },
    {
      "channel": 4,
      "note": 67,
      "start": 134.9409,
      "duration": 0.0538,
      "velocity": 127,
      "chip": "ym2612"
    },
    {
      "channel": 1,
      "note": 71,
      "start": 135.0362,
      "duration": 0.0629,
      "velocity": 99,
      "chip": "ym2612"
    },
    {
      "channel": 0,
      "note": 67,
      "start": 135.1258,
      "duration": 0.0602,
      "velocity": 127,
      "chip": "ym2612"
    },
    {
      "channel": 1,
      "note": 62,
      "start": 135.1325,
      "duration": 0.1585,
      "velocity": 86,
      "chip": "ym2612"
    },
    {
      "channel": 0,
      "note": 67,
      "start": 135.2282,
      "duration": 0.0626,
      "velocity": 127,
      "chip": "ym2612"
    },
    {
      "channel": 0,
      "note": 59,
      "start": 135.3344,
      "duration": 0.1658,
      "velocity": 86,
      "chip": "ym2612"
    },
    {
      "channel": 1,
      "note": 79,
      "start": 135.342,
      "duration": 0.0538,
      "velocity": 99,
      "chip": "ym2612"
    },
    {
      "channel": 2,
      "note": 38,
      "start": 135.3489,
      "duration": 0.7454,
      "velocity": 96,
      "chip": "ym2612"
    },
    {
      "channel": 3,
      "note": 50,
      "start": 135.356,
      "duration": 0.1448,
      "velocity": 62,
      "chip": "ym2612"
    },
    {
      "channel": 4,
      "note": 24,
      "start": 135.3633,
      "duration": 0.033,
      "velocity": 112,
      "chip": "ym2612"
    },
    {
      "channel": 1,
      "note": 24,
      "start": 135.4393,
      "duration": 0.0611,
      "velocity": 112,
      "chip": "ym2612"
    },
    {
      "channel": 4,
      "note": 79,
      "start": 135.4474,
      "duration": 0.0537,
      "velocity": 99,
      "chip": "ym2612"
    },
    {
      "channel": 0,
      "note": 79,
      "start": 135.5466,
      "duration": 0.0584,
      "velocity": 99,
      "chip": "ym2612"
    },
    {
      "channel": 1,
      "note": 55,
      "start": 135.5534,
      "duration": 0.5406,
      "velocity": 62,
      "chip": "ym2612"
    },
    {
      "channel": 3,
      "note": 62,
      "start": 135.5607,
      "duration": 0.1322,
      "velocity": 86,
      "chip": "ym2612"
    },
    {
      "channel": 0,
      "note": 79,
      "start": 135.647,
      "duration": 0.0454,
      "velocity": 99,
      "chip": "ym2612"
    },
    {
      "channel": 0,
      "note": 74,
      "start": 135.7344,
      "duration": 0.0626,
      "velocity": 99,
      "chip": "ym2612"
    },
    {
      "channel": 3,
      "note": 64,
      "start": 135.7393,
      "duration": 0.1641,
      "velocity": 86,
      "chip": "ym2612"
    },
    {
      "channel": 4,
      "note": 67,
      "start": 135.7474,
      "duration": 0.0502,
      "velocity": 127,
      "chip": "ym2612"
    },
    {
      "channel": 0,
      "note": 74,
      "start": 135.839,
      "duration": 0.0638,
      "velocity": 99,
      "chip": "ym2612"
    },
    {
      "channel": 0,
      "note": 67,
      "start": 135.9287,
      "duration": 0.0602,
      "velocity": 127,
      "chip": "ym2612"
    },
    {
      "channel": 3,
      "note": 67,
      "start": 135.9336,
      "duration": 0.1609,
      "velocity": 86,
      "chip": "ym2612"
    },
    {
      "channel": 0,
      "note": 67,
      "start": 136.0311,
      "duration": 0.0627,
      "velocity": 127,
      "chip": "ym2612"
    },
    {
      "channel": 0,
      "note": 69,
      "start": 136.1378,
      "duration": 0.1653,
      "velocity": 86,
      "chip": "ym2612"
    },
    {
      "channel": 1,
      "note": 81,
      "start": 136.1454,
      "duration": 0.0533,
      "velocity": 99,
      "chip": "ym2612"
    },
    {
      "channel": 2,
      "note": 57,
      "start": 136.1523,
      "duration": 0.7447,
      "velocity": 62,
      "chip": "ym2612"
    },
    {
      "channel": 3,
      "note": 24,
      "start": 136.1596,
      "duration": 0.0395,
      "velocity": 112,
      "chip": "ym2612"
    },
    {
      "channel": 4,
      "note": 45,
      "start": 136.1669,
      "duration": 0.7305,
      "velocity": 96,
      "chip": "ym2612"
    },
    {
      "channel": 1,
      "note": 81,
      "start": 136.2407,
      "duration": 0.0627,
      "velocity": 99,
      "chip": "ym2612"
    },
    {
      "channel": 0,
      "note": 64,
      "start": 136.3452,
      "duration": 0.1501,
      "velocity": 86,
      "chip": "ym2612"
    },
    {
      "channel": 0,
      "note": 72,
      "start": 136.5366,
      "duration": 0.1681,
      "velocity": 86,
      "chip": "ym2612"
    },
    {
      "channel": 1,
      "note": 76,
      "start": 136.5419,
      "duration": 0.0582,
      "velocity": 99,
      "chip": "ym2612"
    },
    {
      "channel": 3,
      "note": 67,
      "start": 136.5498,
      "duration": 0.0507,
      "velocity": 127,
      "chip": "ym2612"
    },
    {
      "channel": 1,
      "note": 76,
      "start": 136.6423,
      "duration": 0.0627,
      "velocity": 99,
      "chip": "ym2612"
    },
    {
      "channel": 0,
      "note": 67,
      "start": 136.7286,
      "duration": 0.1681,
      "velocity": 86,
      "chip": "ym2612"
    },
    {
      "channel": 0,
      "note": 69,
      "start": 136.938,
      "duration": 0.1506,
      "velocity": 86,
      "chip": "ym2612"
    },
    {
      "channel": 1,
      "note": 84,
      "start": 136.9433,
      "duration": 0.0408,
      "velocity": 99,
      "chip": "ym2612"
    },
    {
      "channel": 2,
      "note": 40,
      "start": 136.9502,
      "duration": 0.7323,
      "velocity": 96,
      "chip": "ym2612"
    },
    {
      "channel": 3,
      "note": 24,
      "start": 136.9573,
      "duration": 0.0271,
      "velocity": 112,
      "chip": "ym2612"
    },
    {
      "channel": 4,
      "note": 52,
      "start": 136.9646,
      "duration": 0.7183,
      "velocity": 62,
      "chip": "ym2612"
    },
    {
      "channel": 1,
      "note": 24,
      "start": 137.0278,
      "duration": 0.0611,
      "velocity": 112,
      "chip": "ym2612"
    },
    {
      "channel": 3,
      "note": 84,
      "start": 137.0357,
      "duration": 0.0536,
      "velocity": 99,
      "chip": "ym2612"
    },
    {
      "channel": 0,
      "note": 84,
      "start": 137.1332,
      "duration": 0.0603,
      "velocity": 99,
      "chip": "ym2612"
    },
    {
      "channel": 0,
      "note": 84,
      "start": 137.2354,
      "duration": 0.0454,
      "velocity": 99,
      "chip": "ym2612"
    },
    {
      "channel": 0,
      "note": 79,
      "start": 137.3228,
      "duration": 0.0626,
      "velocity": 99,
      "chip": "ym2612"
    },
    {
      "channel": 1,
      "note": 69,
      "start": 137.3295,
      "duration": 0.1612,
      "velocity": 86,
      "chip": "ym2612"
    },
    {
      "channel": 3,
      "note": 67,
      "start": 137.3376,
      "duration": 0.0484,
      "velocity": 127,
      "chip": "ym2612"
    },
    {
      "channel": 0,
      "note": 79,
      "start": 137.4276,
      "duration": 0.063,
      "velocity": 99,
      "chip": "ym2612"
    },
    {
      "channel": 0,
      "note": 81,
      "start": 137.7242,
      "duration": 0.0454,
      "velocity": 99,
      "chip": "ym2612"
    },
    {
      "channel": 1,
      "note": 69,
      "start": 137.7288,
      "duration": 0.1456,
      "velocity": 86,
      "chip": "ym2612"
    },
    {
      "channel": 2,
      "note": 24,
      "start": 137.7357,
      "duration": 0.0342,
      "velocity": 112,
      "chip": "ym2612"
    },
    {
      "channel": 3,
      "note": 60,
      "start": 137.7429,
      "duration": 0.3239,
      "velocity": 62,
      "chip": "ym2612"
    },
    {
      "channel": 4,
      "note": 48,
      "start": 137.7503,
      "duration": 0.3168,
      "velocity": 96,
      "chip": "ym2612"
    },
    {
      "channel": 0,
      "note": 81,
      "start": 137.8115,
      "duration": 0.0626,
      "velocity": 99,
      "chip": "ym2612"
    },
    {
      "channel": 0,
      "note": 64,
      "start": 137.9178,
      "duration": 0.1485,
      "velocity": 86,
      "chip": "ym2612"
    },
    {
      "channel": 0,
      "note": 72,
      "start": 138.1076,
      "duration": 0.1856,
      "velocity": 86,
      "chip": "ym2612"
    },
    {
      "channel": 1,
      "note": 76,
      "start": 138.1152,
      "duration": 0.0734,
      "velocity": 99,
      "chip": "ym2612"
    },
    {
      "channel": 2,
      "note": 48,
      "start": 138.1222,
      "duration": 0.3634,
      "velocity": 96,
      "chip": "ym2612"
    },
    {
      "channel": 3,
      "note": 60,
      "start": 138.1271,
      "duration": 0.3587,
      "velocity": 62,
      "chip": "ym2612"
    },
    {
      "channel": 4,
      "note": 67,
      "start": 138.1352,
      "duration": 0.0539,
      "velocity": 127,
      "chip": "ym2612"
    },
    {
      "channel": 1,
      "note": 76,
      "start": 138.2305,
      "duration": 0.0629,
      "velocity": 99,
      "chip": "ym2612"
    },
    {
      "channel": 0,
      "note": 67,
      "start": 138.3171,
      "duration": 0.168,
      "velocity": 86,
      "chip": "ym2612"
    },
    {
      "channel": 0,
      "note": 69,
      "start": 138.5267,
      "duration": 0.1505,
      "velocity": 86,
      "chip": "ym2612"
    },
    {
      "channel": 1,
      "note": 84,
      "start": 138.5319,
      "duration": 0.0413,
      "velocity": 99,
      "chip": "ym2612"
    },
    {
      "channel": 2,
      "note": 55,
      "start": 138.5388,
      "duration": 0.7322,
      "velocity": 62,
      "chip": "ym2612"
    },
    {
      "channel": 3,
      "note": 43,
      "start": 138.5459,
      "duration": 0.7253,
      "velocity": 96,
      "chip": "ym2612"
    },
    {
      "channel": 4,
      "note": 24,
      "start": 138.5533,
      "duration": 0.0204,
      "velocity": 112,
      "chip": "ym2612"
    },
    {
      "channel": 1,
      "note": 24,
      "start": 138.6162,
      "duration": 0.0611,
      "velocity": 112,
      "chip": "ym2612"
    },
    {
      "channel": 4,
      "note": 84,
      "start": 138.6243,
      "duration": 0.0536,
      "velocity": 99,
      "chip": "ym2612"
    },
    {
      "channel": 0,
      "note": 84,
      "start": 138.7215,
      "duration": 0.0604,
      "velocity": 99,
      "chip": "ym2612"
    },
    {
      "channel": 0,
      "note": 84,
      "start": 138.8239,
      "duration": 0.0451,
      "velocity": 99,
      "chip": "ym2612"
    },
    {
      "channel": 0,
      "note": 79,
      "start": 138.9113,
      "duration": 0.0626,
      "velocity": 99,
      "chip": "ym2612"
    },
    {
      "channel": 1,
      "note": 69,
      "start": 138.918,
      "duration": 0.1652,
      "velocity": 86,
      "chip": "ym2612"
    },
    {
      "channel": 4,
      "note": 67,
      "start": 138.9262,
      "duration": 0.0484,
      "velocity": 127,
      "chip": "ym2612"
    },
    {
      "channel": 0,
      "note": 67,
      "start": 139.0184,
      "duration": 0.0646,
      "velocity": 127,
      "chip": "ym2612"
    },
    {
      "channel": 4,
      "note": 79,
      "start": 139.0266,
      "duration": 0.0572,
      "velocity": 99,
      "chip": "ym2612"
    },
    {
      "channel": 0,
      "note": 67,
      "start": 139.1033,
      "duration": 0.0626,
      "velocity": 127,
      "chip": "ym2612"
    },
    {
      "channel": 0,
      "note": 67,
      "start": 139.208,
      "duration": 0.0626,
      "velocity": 127,
      "chip": "ym2612"
    },
    {
      "channel": 0,
      "note": 81,
      "start": 139.3161,
      "duration": 0.0594,
      "velocity": 99,
      "chip": "ym2612"
    },
    {
      "channel": 1,
      "note": 69,
      "start": 139.3206,
      "duration": 0.1597,
      "velocity": 86,
      "chip": "ym2612"
    },
    {
      "channel": 2,
      "note": 24,
      "start": 139.3276,
      "duration": 0.0483,
      "velocity": 112,
      "chip": "ym2612"
    },
    {
      "channel": 3,
      "note": 45,
      "start": 139.3325,
      "duration": 0.7416,
      "velocity": 96,
      "chip": "ym2612"
    },
    {
      "channel": 4,
      "note": 57,
      "start": 139.3398,
      "duration": 0.7346,
      "velocity": 62,
      "chip": "ym2612"
    },
    {
      "channel": 0,
      "note": 81,
      "start": 139.4175,
      "duration": 0.0626,
      "velocity": 99,
      "chip": "ym2612"
    },
    {
      "channel": 0,
      "note": 64,
      "start": 139.5271,
      "duration": 0.1449,
      "velocity": 86,
      "chip": "ym2612"
    },
    {
      "channel": 0,
      "note": 72,
      "start": 139.7135,
      "duration": 0.1681,
      "velocity": 86,
      "chip": "ym2612"
    },
    {
      "channel": 1,
      "note": 76,
      "start": 139.7211,
      "duration": 0.0559,
      "velocity": 99,
      "chip": "ym2612"
    },
    {
      "channel": 2,
      "note": 67,
      "start": 139.729,
      "duration": 0.0483,
      "velocity": 127,
      "chip": "ym2612"
    },
    {
      "channel": 1,
      "note": 76,
      "start": 139.819,
      "duration": 0.0629,
      "velocity": 99,
      "chip": "ym2612"
    },
    {
      "channel": 0,
      "note": 67,
      "start": 139.9055,
      "duration": 0.1681,
      "velocity": 86,
      "chip": "ym2612"
    },
    {
      "channel": 0,
      "note": 69,
      "start": 140.1149,
      "duration": 0.1506,
      "velocity": 86,
      "chip": "ym2612"
    },
    {
      "channel": 1,
      "note": 84,
      "start": 140.1201,
      "duration": 0.0438,
      "velocity": 99,
      "chip": "ym2612"
    },
    {
      "channel": 2,
      "note": 52,
      "start": 140.1273,
      "duration": 0.7322,
      "velocity": 62,
      "chip": "ym2612"
    },
    {
      "channel": 3,
      "note": 40,
      "start": 140.1322,
      "duration": 0.7275,
      "velocity": 96,
      "chip": "ym2612"
    },
    {
      "channel": 4,
      "note": 24,
      "start": 140.1395,
      "duration": 0.0251,
      "velocity": 112,
      "chip": "ym2612"
    },
    {
      "channel": 1,
      "note": 24,
      "start": 140.2046,
      "duration": 0.0612,
      "velocity": 112,
      "chip": "ym2612"
    },
    {
      "channel": 4,
      "note": 84,
      "start": 140.2127,
      "duration": 0.0536,
      "velocity": 99,
      "chip": "ym2612"
    },
    {
      "channel": 0,
      "note": 84,
      "start": 140.31,
      "duration": 0.0604,
      "velocity": 99,
      "chip": "ym2612"
    },
    {
      "channel": 0,
      "note": 84,
      "start": 140.4124,
      "duration": 0.0452,
      "velocity": 99,
      "chip": "ym2612"
    },
    {
      "channel": 0,
      "note": 79,
      "start": 140.4997,
      "duration": 0.0626,
      "velocity": 99,
      "chip": "ym2612"
    },
    {
      "channel": 1,
      "note": 69,
      "start": 140.5064,
      "duration": 0.1609,
      "velocity": 86,
      "chip": "ym2612"
    },
    {
      "channel": 4,
      "note": 67,
      "start": 140.5146,
      "duration": 0.0484,
      "velocity": 127,
      "chip": "ym2612"
    },
    {
      "channel": 0,
      "note": 79,
      "start": 140.6065,
      "duration": 0.0606,
      "velocity": 99,
      "chip": "ym2612"
    },
    {
      "channel": 0,
      "note": 81,
      "start": 140.9011,
      "duration": 0.0454,
      "velocity": 99,
      "chip": "ym2612"
    },
    {
      "channel": 1,
      "note": 69,
      "start": 140.9057,
      "duration": 0.1456,
      "velocity": 86,
      "chip": "ym2612"
    },
    {
      "channel": 2,
      "note": 24,
      "start": 140.9126,
      "duration": 0.0342,
      "velocity": 112,
      "chip": "ym2612"
    },
    {
      "channel": 3,
      "note": 48,
      "start": 140.9175,
      "duration": 0.3284,
      "velocity": 96,
      "chip": "ym2612"
    },
    {
      "channel": 4,
      "note": 60,
      "start": 140.9248,
      "duration": 0.3214,
      "velocity": 62,
      "chip": "ym2612"
    },
    {
      "channel": 0,
      "note": 81,
      "start": 140.9884,
      "duration": 0.0626,
      "velocity": 99,
      "chip": "ym2612"
    },
    {
      "channel": 0,
      "note": 64,
      "start": 141.0946,
      "duration": 0.1508,
      "velocity": 86,
      "chip": "ym2612"
    },
    {
      "channel": 0,
      "note": 72,
      "start": 141.2845,
      "duration": 0.1856,
      "velocity": 86,
      "chip": "ym2612"
    },
    {
      "channel": 1,
      "note": 76,
      "start": 141.2921,
      "duration": 0.0733,
      "velocity": 99,
      "chip": "ym2612"
    },
    {
      "channel": 2,
      "note": 60,
      "start": 141.2991,
      "duration": 0.3634,
      "velocity": 62,
      "chip": "ym2612"
    },
    {
      "channel": 3,
      "note": 48,
      "start": 141.304,
      "duration": 0.3588,
      "velocity": 96,
      "chip": "ym2612"
    },
    {
      "channel": 4,
      "note": 67,
      "start": 141.3121,
      "duration": 0.0538,
      "velocity": 127,
      "chip": "ym2612"
    },
    {
      "channel": 1,
      "note": 76,
      "start": 141.4074,
      "duration": 0.0629,
      "velocity": 99,
      "chip": "ym2612"
    },
    {
      "channel": 0,
      "note": 67,
      "start": 141.497,
      "duration": 0.0602,
      "velocity": 127,
      "chip": "ym2612"
    },
    {
      "channel": 1,
      "note": 67,
      "start": 141.5037,
      "duration": 0.1585,
      "velocity": 86,
      "chip": "ym2612"
    },
    {
      "channel": 0,
      "note": 67,
      "start": 141.5994,
      "duration": 0.0626,
      "velocity": 127,
      "chip": "ym2612"
    },
    {
      "channel": 0,
      "note": 64,
      "start": 141.7056,
      "duration": 0.166,
      "velocity": 86,
      "chip": "ym2612"
    },
    {
      "channel": 1,
      "note": 84,
      "start": 141.7131,
      "duration": 0.0538,
      "velocity": 99,
      "chip": "ym2612"
    },
    {
      "channel": 2,
      "note": 36,
      "start": 141.7201,
      "duration": 0.7453,
      "velocity": 96,
      "chip": "ym2612"
    },
    {
      "channel": 3,
      "note": 48,
      "start": 141.7274,
      "duration": 0.7383,
      "velocity": 62,
      "chip": "ym2612"
    },
    {
      "channel": 4,
      "note": 24,
      "start": 141.7346,
      "duration": 0.0329,
      "velocity": 112,
      "chip": "ym2612"
    },
    {
      "channel": 1,
      "note": 24,
      "start": 141.8106,
      "duration": 0.0612,
      "velocity": 112,
      "chip": "ym2612"
    },
    {
      "channel": 4,
      "note": 84,
      "start": 141.8188,
      "duration": 0.0536,
      "velocity": 99,
      "chip": "ym2612"
    },
    {
      "channel": 0,
      "note": 84,
      "start": 141.916,
      "duration": 0.0656,
      "velocity": 99,
      "chip": "ym2612"
    },
    {
      "channel": 1,
      "note": 60,
      "start": 141.9227,
      "duration": 0.1411,
      "velocity": 86,
      "chip": "ym2612"
    },
    {
      "channel": 0,
      "note": 84,
      "start": 142.0182,
      "duration": 0.0454,
      "velocity": 99,
      "chip": "ym2612"
    },
    {
      "channel": 0,
      "note": 82,
      "start": 142.1056,
      "duration": 0.0626,
      "velocity": 99,
      "chip": "ym2612"
    },
    {
      "channel": 1,
      "note": 57,
      "start": 142.1101,
      "duration": 0.163,
      "velocity": 86,
      "chip": "ym2612"
    },
    {
      "channel": 4,
      "note": 67,
      "start": 142.1183,
      "duration": 0.0506,
      "velocity": 127,
      "chip": "ym2612"
    },
    {
      "channel": 0,
      "note": 76,
      "start": 142.2103,
      "duration": 0.0627,
      "velocity": 99,
      "chip": "ym2612"
    },
    {
      "channel": 0,
      "note": 72,
      "start": 142.2975,
      "duration": 0.0628,
      "velocity": 99,
      "chip": "ym2612"
    },
    {
      "channel": 1,
      "note": 67,
      "start": 142.3052,
      "duration": 0.0554,
      "velocity": 127,
      "chip": "ym2612"
    },
    {
      "channel": 4,
      "note": 55,
      "start": 142.3124,
      "duration": 0.1535,
      "velocity": 86,
      "chip": "ym2612"
    },
    {
      "channel": 0,
      "note": 67,
      "start": 142.4047,
      "duration": 0.0602,
      "velocity": 127,
      "chip": "ym2612"
    },
    {
      "channel": 1,
      "note": 76,
      "start": 142.4123,
      "duration": 0.0529,
      "velocity": 99,
      "chip": "ym2612"
    },
    {
      "channel": 0,
      "note": 69,
      "start": 142.5103,
      "duration": 0.042,
      "velocity": 99,
      "chip": "ym2612"
    },
    {
      "channel": 1,
      "note": 57,
      "start": 142.5171,
      "duration": 0.1403,
      "velocity": 86,
      "chip": "ym2612"
    },
    {
      "channel": 2,
      "note": 24,
      "start": 142.524,
      "duration": 0.0287,
      "velocity": 112,
      "chip": "ym2612"
    },
    {
      "channel": 3,
      "note": 33,
      "start": 142.529,
      "duration": 1.5076,
      "velocity": 62,
      "chip": "ym2612"
    },
    {
      "channel": 0,
      "note": 72,
      "start": 142.5943,
      "duration": 0.0628,
      "velocity": 99,
      "chip": "ym2612"
    },
    {
      "channel": 0,
      "note": 69,
      "start": 142.6991,
      "duration": 0.0627,
      "velocity": 99,
      "chip": "ym2612"
    },
    {
      "channel": 1,
      "note": 60,
      "start": 142.7037,
      "duration": 0.1459,
      "velocity": 86,
      "chip": "ym2612"
    },
    {
      "channel": 0,
      "note": 76,
      "start": 142.8037,
      "duration": 0.0455,
      "velocity": 99,
      "chip": "ym2612"
    },
    {
      "channel": 0,
      "note": 69,
      "start": 142.891,
      "duration": 0.0626,
      "velocity": 99,
      "chip": "ym2612"
    },
    {
      "channel": 1,
      "note": 57,
      "start": 142.8956,
      "duration": 0.163,
      "velocity": 86,
      "chip": "ym2612"
    },
    {
      "channel": 2,
      "note": 67,
      "start": 142.9034,
      "duration": 0.0506,
      "velocity": 127,
      "chip": "ym2612"
    },
    {
      "channel": 0,
      "note": 67,
      "start": 142.9958,
      "duration": 0.0627,
      "velocity": 99,
      "chip": "ym2612"
    },
    {
      "channel": 0,
      "note": 69,
      "start": 143.083,
      "duration": 0.0628,
      "velocity": 99,
      "chip": "ym2612"
    },
    {
      "channel": 1,
      "note": 64,
      "start": 143.0876,
      "duration": 0.163,
      "velocity": 86,
      "chip": "ym2612"
    },
    {
      "channel": 0,
      "note": 76,
      "start": 143.1878,
      "duration": 0.0626,
      "velocity": 99,
      "chip": "ym2612"
    },
    {
      "channel": 0,
      "note": 69,
      "start": 143.2924,
      "duration": 0.0454,
      "velocity": 99,
      "chip": "ym2612"
    },
    {
      "channel": 1,
      "note": 57,
      "start": 143.297,
      "duration": 0.1456,
      "velocity": 86,
      "chip": "ym2612"
    },
    {
      "channel": 2,
      "note": 24,
      "start": 143.304,
      "duration": 0.0342,
      "velocity": 112,
      "chip": "ym2612"
    },
    {
      "channel": 0,
      "note": 24,
      "start": 143.3813,
      "duration": 0.0611,
      "velocity": 112,
      "chip": "ym2612"
    },
    {
      "channel": 2,
      "note": 72,
      "start": 143.3891,
      "duration": 0.0538,
      "velocity": 99,
      "chip": "ym2612"
    },
    {
      "channel": 0,
      "note": 69,
      "start": 143.4869,
      "duration": 0.0603,
      "velocity": 99,
      "chip": "ym2612"
    },
    {
      "channel": 1,
      "note": 55,
      "start": 143.4915,
      "duration": 0.1433,
      "velocity": 86,
      "chip": "ym2612"
    },
    {
      "channel": 0,
      "note": 76,
      "start": 143.5892,
      "duration": 0.0454,
      "velocity": 99,
      "chip": "ym2612"
    },
    {
      "channel": 0,
      "note": 69,
      "start": 143.6766,
      "duration": 0.0626,
      "velocity": 99,
      "chip": "ym2612"
    },
    {
      "channel": 1,
      "note": 57,
      "start": 143.6811,
      "duration": 0.1631,
      "velocity": 86,
      "chip": "ym2612"
    },
    {
      "channel": 2,
      "note": 67,
      "start": 143.6889,
      "duration": 0.0506,
      "velocity": 127,
      "chip": "ym2612"
    },
    {
      "channel": 0,
      "note": 67,
      "start": 143.7813,
      "duration": 0.0627,
      "velocity": 99,
      "chip": "ym2612"
    },
    {
      "channel": 0,
      "note": 69,
      "start": 143.8684,
      "duration": 0.0637,
      "velocity": 99,
      "chip": "ym2612"
    },
    {
      "channel": 1,
      "note": 64,
      "start": 143.873,
      "duration": 0.1632,
      "velocity": 86,
      "chip": "ym2612"
    },
    {
      "channel": 0,
      "note": 76,
      "start": 143.9734,
      "duration": 0.0626,
      "velocity": 99,
      "chip": "ym2612"
    },
    {
      "channel": 0,
      "note": 69,
      "start": 144.0779,
      "duration": 0.0454,
      "velocity": 99,
      "chip": "ym2612"
    },
    {
      "channel": 1,
      "note": 57,
      "start": 144.0825,
      "duration": 0.1457,
      "velocity": 86,
      "chip": "ym2612"
    },
    {
      "channel": 2,
      "note": 24,
      "start": 144.0895,
      "duration": 0.0342,
      "velocity": 112,
      "chip": "ym2612"
    },
    {
      "channel": 3,
      "note": 45,
      "start": 144.0944,
      "duration": 0.7277,
      "velocity": 62,
      "chip": "ym2612"
    },
    {
      "channel": 0,
      "note": 72,
      "start": 144.1653,
      "duration": 0.0627,
      "velocity": 99,
      "chip": "ym2612"
    },
    {
      "channel": 0,
      "note": 69,
      "start": 144.2699,
      "duration": 0.0628,
      "velocity": 99,
      "chip": "ym2612"
    },
    {
      "channel": 1,
      "note": 60,
      "start": 144.2745,
      "duration": 0.1456,
      "velocity": 86,
      "chip": "ym2612"
    },
    {
      "channel": 0,
      "note": 76,
      "start": 144.3747,
      "duration": 0.0452,
      "velocity": 99,
      "chip": "ym2612"
    },
    {
      "channel": 0,
      "note": 69,
      "start": 144.462,
      "duration": 0.0627,
      "velocity": 99,
      "chip": "ym2612"
    },
    {
      "channel": 1,
      "note": 57,
      "start": 144.4666,
      "duration": 0.1631,
      "velocity": 86,
      "chip": "ym2612"
    },
    {
      "channel": 2,
      "note": 67,
      "start": 144.4744,
      "duration": 0.0506,
      "velocity": 127,
      "chip": "ym2612"
    },
    {
      "channel": 0,
      "note": 67,
      "start": 144.5667,
      "duration": 0.0628,
      "velocity": 99,
      "chip": "ym2612"
    },
    {
      "channel": 0,
      "note": 69,
      "start": 144.6566,
      "duration": 0.0601,
      "velocity": 99,
      "chip": "ym2612"
    },
    {
      "channel": 1,
      "note": 64,
      "start": 144.6612,
      "duration": 0.1606,
      "velocity": 86,
      "chip": "ym2612"
    },
    {
      "channel": 0,
      "note": 76,
      "start": 144.7589,
      "duration": 0.0626,
      "velocity": 99,
      "chip": "ym2612"
    },
    {
      "channel": 0,
      "note": 69,
      "start": 144.8634,
      "duration": 0.0454,
      "velocity": 99,
      "chip": "ym2612"
    },
    {
      "channel": 1,
      "note": 57,
      "start": 144.868,
      "duration": 0.1457,
      "velocity": 86,
      "chip": "ym2612"
    },
    {
      "channel": 2,
      "note": 24,
      "start": 144.875,
      "duration": 0.0342,
      "velocity": 112,
      "chip": "ym2612"
    },
    {
      "channel": 0,
      "note": 24,
      "start": 144.9523,
      "duration": 0.0611,
      "velocity": 112,
      "chip": "ym2612"
    },
    {
      "channel": 2,
      "note": 72,
      "start": 144.9601,
      "duration": 0.0537,
      "velocity": 99,
      "chip": "ym2612"
    },
    {
      "channel": 0,
      "note": 69,
      "start": 145.0578,
      "duration": 0.0604,
      "velocity": 99,
      "chip": "ym2612"
    },
    {
      "channel": 1,
      "note": 55,
      "start": 145.0624,
      "duration": 0.1433,
      "velocity": 86,
      "chip": "ym2612"
    },
    {
      "channel": 0,
      "note": 76,
      "start": 145.1622,
      "duration": 0.0432,
      "velocity": 99,
      "chip": "ym2612"
    },
    {
      "channel": 0,
      "note": 69,
      "start": 145.2475,
      "duration": 0.0627,
      "velocity": 99,
      "chip": "ym2612"
    },
    {
      "channel": 1,
      "note": 57,
      "start": 145.2521,
      "duration": 0.1631,
      "velocity": 86,
      "chip": "ym2612"
    },
    {
      "channel": 2,
      "note": 67,
      "start": 145.26,
      "duration": 0.0506,
      "velocity": 127,
      "chip": "ym2612"
    },
    {
      "channel": 0,
      "note": 67,
      "start": 145.3545,
      "duration": 0.0604,
      "velocity": 127,
      "chip": "ym2612"
    },
    {
      "channel": 2,
      "note": 67,
      "start": 145.3624,
      "duration": 0.0531,
      "velocity": 99,
      "chip": "ym2612"
    },
    {
      "channel": 0,
      "note": 69,
      "start": 145.442,
      "duration": 0.0602,
      "velocity": 99,
      "chip": "ym2612"
    },
    {
      "channel": 1,
      "note": 67,
      "start": 145.4495,
      "duration": 0.0529,
      "velocity": 127,
      "chip": "ym2612"
    },
    {
      "channel": 2,
      "note": 64,
      "start": 145.4564,
      "duration": 0.151,
      "velocity": 86,
      "chip": "ym2612"
    },
    {
      "channel": 0,
      "note": 67,
      "start": 145.5467,
      "duration": 0.0602,
      "velocity": 127,
      "chip": "ym2612"
    },
    {
      "channel": 1,
      "note": 76,
      "start": 145.5544,
      "duration": 0.0529,
      "velocity": 99,
      "chip": "ym2612"
    },
    {
      "channel": 0,
      "note": 69,
      "start": 145.653,
      "duration": 0.0587,
      "velocity": 99,
      "chip": "ym2612"
    },
    {
      "channel": 1,
      "note": 57,
      "start": 145.66,
      "duration": 0.1592,
      "velocity": 86,
      "chip": "ym2612"
    },
    {
      "channel": 2,
      "note": 24,
      "start": 145.6669,
      "duration": 0.0452,
      "velocity": 112,
      "chip": "ym2612"
    },
    {
      "channel": 3,
      "note": 33,
      "start": 145.6718,
      "duration": 0.7387,
      "velocity": 62,
      "chip": "ym2612"
    },
    {
      "channel": 4,
      "note": 84,
      "start": 145.6791,
      "duration": 1.517,
      "velocity": 90,
      "chip": "ym2612"
    },
    {
      "channel": 0,
      "note": 72,
      "start": 145.7552,
      "duration": 0.0637,
      "velocity": 99,
      "chip": "ym2612"
    },
    {
      "channel": 0,
      "note": 69,
      "start": 145.8585,
      "duration": 0.0626,
      "velocity": 99,
      "chip": "ym2612"
    },
    {
      "channel": 1,
      "note": 60,
      "start": 145.8631,
      "duration": 0.1457,
      "velocity": 86,
      "chip": "ym2612"
    },
    {
      "channel": 0,
      "note": 76,
      "start": 145.9631,
      "duration": 0.0454,
      "velocity": 99,
      "chip": "ym2612"
    },
    {
      "channel": 0,
      "note": 69,
      "start": 146.0505,
      "duration": 0.0626,
      "velocity": 99,
      "chip": "ym2612"
    },
    {
      "channel": 1,
      "note": 57,
      "start": 146.0551,
      "duration": 0.1631,
      "velocity": 86,
      "chip": "ym2612"
    },
    {
      "channel": 2,
      "note": 67,
      "start": 146.0629,
      "duration": 0.0506,
      "velocity": 127,
      "chip": "ym2612"
    },
    {
      "channel": 0,
      "note": 67,
      "start": 146.1551,
      "duration": 0.0628,
      "velocity": 99,
      "chip": "ym2612"
    },
    {
      "channel": 0,
      "note": 69,
      "start": 146.2424,
      "duration": 0.0627,
      "velocity": 99,
      "chip": "ym2612"
    },
    {
      "channel": 1,
      "note": 64,
      "start": 146.247,
      "duration": 0.1631,
      "velocity": 86,
      "chip": "ym2612"
    },
    {
      "channel": 0,
      "note": 76,
      "start": 146.3472,
      "duration": 0.0627,
      "velocity": 99,
      "chip": "ym2612"
    },
    {
      "channel": 0,
      "note": 69,
      "start": 146.4519,
      "duration": 0.0454,
      "velocity": 99,
      "chip": "ym2612"
    },
    {
      "channel": 1,
      "note": 57,
      "start": 146.4564,
      "duration": 0.1457,
      "velocity": 86,
      "chip": "ym2612"
    },
    {
      "channel": 2,
      "note": 24,
      "start": 146.4634,
      "duration": 0.0342,
      "velocity": 112,
      "chip": "ym2612"
    },
    {
      "channel": 0,
      "note": 24,
      "start": 146.5421,
      "duration": 0.0597,
      "velocity": 112,
      "chip": "ym2612"
    },
    {
      "channel": 2,
      "note": 72,
      "start": 146.5499,
      "duration": 0.0524,
      "velocity": 99,
      "chip": "ym2612"
    },
    {
      "channel": 0,
      "note": 69,
      "start": 146.6464,
      "duration": 0.0602,
      "velocity": 99,
      "chip": "ym2612"
    },
    {
      "channel": 1,
      "note": 55,
      "start": 146.651,
      "duration": 0.1433,
      "velocity": 86,
      "chip": "ym2612"
    },
    {
      "channel": 0,
      "note": 76,
      "start": 146.7486,
      "duration": 0.0454,
      "velocity": 99,
      "chip": "ym2612"
    },
    {
      "channel": 0,
      "note": 69,
      "start": 146.836,
      "duration": 0.066,
      "velocity": 99,
      "chip": "ym2612"
    },
    {
      "channel": 1,
      "note": 57,
      "start": 146.8405,
      "duration": 0.1631,
      "velocity": 86,
      "chip": "ym2612"
    },
    {
      "channel": 2,
      "note": 67,
      "start": 146.8484,
      "duration": 0.054,
      "velocity": 127,
      "chip": "ym2612"
    },
    {
      "channel": 0,
      "note": 67,
      "start": 146.9406,
      "duration": 0.0628,
      "velocity": 99,
      "chip": "ym2612"
    },
    {
      "channel": 0,
      "note": 69,
      "start": 147.0279,
      "duration": 0.0627,
      "velocity": 99,
      "chip": "ym2612"
    },
    {
      "channel": 1,
      "note": 64,
      "start": 147.0325,
      "duration": 0.1631,
      "velocity": 86,
      "chip": "ym2612"
    },
    {
      "channel": 0,
      "note": 76,
      "start": 147.1327,
      "duration": 0.0627,
      "velocity": 99,
      "chip": "ym2612"
    },
    {
      "channel": 0,
      "note": 69,
      "start": 147.2374,
      "duration": 0.0454,
      "velocity": 99,
      "chip": "ym2612"
    },
    {
      "channel": 1,
      "note": 57,
      "start": 147.242,
      "duration": 0.1456,
      "velocity": 86,
      "chip": "ym2612"
    },
    {
      "channel": 2,
      "note": 24,
      "start": 147.2489,
      "duration": 0.0342,
      "velocity": 112,
      "chip": "ym2612"
    },
    {
      "channel": 3,
      "note": 88,
      "start": 147.256,
      "duration": 0.7256,
      "velocity": 90,
      "chip": "ym2612"
    },
    {
      "channel": 4,
      "note": 45,
      "start": 147.2632,
      "duration": 0.7186,
      "velocity": 62,
      "chip": "ym2612"
    },
    {
      "channel": 0,
      "note": 72,
      "start": 147.3247,
      "duration": 0.0627,
      "velocity": 99,
      "chip": "ym2612"
    },
    {
      "channel": 0,
      "note": 69,
      "start": 147.4295,
      "duration": 0.0627,
      "velocity": 99,
      "chip": "ym2612"
    },
    {
      "channel": 1,
      "note": 60,
      "start": 147.4341,
      "duration": 0.1457,
      "velocity": 86,
      "chip": "ym2612"
    },
    {
      "channel": 0,
      "note": 76,
      "start": 147.5341,
      "duration": 0.0454,
      "velocity": 99,
      "chip": "ym2612"
    },
    {
      "channel": 0,
      "note": 69,
      "start": 147.6215,
      "duration": 0.0627,
      "velocity": 99,
      "chip": "ym2612"
    },
    {
      "channel": 1,
      "note": 57,
      "start": 147.626,
      "duration": 0.1631,
      "velocity": 86,
      "chip": "ym2612"
    },
    {
      "channel": 2,
      "note": 67,
      "start": 147.6339,
      "duration": 0.0506,
      "velocity": 127,
      "chip": "ym2612"
    },
    {
      "channel": 0,
      "note": 67,
      "start": 147.7261,
      "duration": 0.0628,
      "velocity": 99,
      "chip": "ym2612"
    },
    {
      "channel": 0,
      "note": 69,
      "start": 147.8134,
      "duration": 0.0627,
      "velocity": 99,
      "chip": "ym2612"
    },
    {
      "channel": 1,
      "note": 67,
      "start": 147.8211,
      "duration": 0.0552,
      "velocity": 127,
      "chip": "ym2612"
    },
    {
      "channel": 2,
      "note": 64,
      "start": 147.828,
      "duration": 0.1533,
      "velocity": 86,
      "chip": "ym2612"
    },
    {
      "channel": 0,
      "note": 67,
      "start": 147.923,
      "duration": 0.0579,
      "velocity": 127,
      "chip": "ym2612"
    },
    {
      "channel": 1,
      "note": 76,
      "start": 147.9306,
      "duration": 0.0505,
      "velocity": 99,
      "chip": "ym2612"
    },
    {
      "channel": 0,
      "note": 69,
      "start": 148.0252,
      "duration": 0.043,
      "velocity": 99,
      "chip": "ym2612"
    },
    {
      "channel": 1,
      "note": 57,
      "start": 148.032,
      "duration": 0.141,
      "velocity": 86,
      "chip": "ym2612"
    },
    {
      "channel": 2,
      "note": 81,
      "start": 148.039,
      "duration": 0.7278,
      "velocity": 90,
      "chip": "ym2612"
    },
    {
      "channel": 3,
      "note": 24,
      "start": 148.0461,
      "duration": 0.0227,
      "velocity": 112,
      "chip": "ym2612"
    },
    {
      "channel": 0,
      "note": 24,
      "start": 148.1117,
      "duration": 0.0611,
      "velocity": 112,
      "chip": "ym2612"
    },
    {
      "channel": 3,
      "note": 72,
      "start": 148.1197,
      "duration": 0.0537,
      "velocity": 99,
      "chip": "ym2612"
    },
    {
      "channel": 0,
      "note": 69,
      "start": 148.2179,
      "duration": 0.0648,
      "velocity": 99,
      "chip": "ym2612"
    },
    {
      "channel": 1,
      "note": 55,
      "start": 148.2225,
      "duration": 0.1427,
      "velocity": 86,
      "chip": "ym2612"
    },
    {
      "channel": 0,
      "note": 76,
      "start": 148.3196,
      "duration": 0.0454,
      "velocity": 99,
      "chip": "ym2612"
    },
    {
      "channel": 0,
      "note": 69,
      "start": 148.407,
      "duration": 0.0627,
      "velocity": 99,
      "chip": "ym2612"
    },
    {
      "channel": 1,
      "note": 57,
      "start": 148.4115,
      "duration": 0.1631,
      "velocity": 86,
      "chip": "ym2612"
    },
    {
      "channel": 3,
      "note": 67,
      "start": 148.4195,
      "duration": 0.0506,
      "velocity": 127,
      "chip": "ym2612"
    },
    {
      "channel": 0,
      "note": 67,
      "start": 148.5116,
      "duration": 0.0628,
      "velocity": 99,
      "chip": "ym2612"
    },
    {
      "channel": 0,
      "note": 69,
      "start": 148.5989,
      "duration": 0.0626,
      "velocity": 99,
      "chip": "ym2612"
    },
    {
      "channel": 1,
      "note": 67,
      "start": 148.6066,
      "duration": 0.0552,
      "velocity": 127,
      "chip": "ym2612"
    },
    {
      "channel": 3,
      "note": 64,
      "start": 148.6137,
      "duration": 0.1534,
      "velocity": 86,
      "chip": "ym2612"
    },
    {
      "channel": 0,
      "note": 67,
      "start": 148.7061,
      "duration": 0.0602,
      "velocity": 127,
      "chip": "ym2612"
    },
    {
      "channel": 1,
      "note": 76,
      "start": 148.7137,
      "duration": 0.0529,
      "velocity": 99,
      "chip": "ym2612"
    },
    {
      "channel": 0,
      "note": 69,
      "start": 148.8112,
      "duration": 0.0599,
      "velocity": 99,
      "chip": "ym2612"
    },
    {
      "channel": 1,
      "note": 57,
      "start": 148.818,
      "duration": 0.1579,
      "velocity": 86,
      "chip": "ym2612"
    },
    {
      "channel": 2,
      "note": 24,
      "start": 148.825,
      "duration": 0.0466,
      "velocity": 112,
      "chip": "ym2612"
    },
    {
      "channel": 3,
      "note": 79,
      "start": 148.832,
      "duration": 0.7378,
      "velocity": 90,
      "chip": "ym2612"
    },
    {
      "channel": 4,
      "note": 33,
      "start": 148.8371,
      "duration": 0.733,
      "velocity": 62,
      "chip": "ym2612"
    },
    {
      "channel": 0,
      "note": 72,
      "start": 148.9131,
      "duration": 0.0627,
      "velocity": 99,
      "chip": "ym2612"
    },
    {
      "channel": 0,
      "note": 69,
      "start": 149.0206,
      "duration": 0.0635,
      "velocity": 99,
      "chip": "ym2612"
    },
    {
      "channel": 1,
      "note": 60,
      "start": 149.0252,
      "duration": 0.1429,
      "velocity": 86,
      "chip": "ym2612"
    },
    {
      "channel": 0,
      "note": 76,
      "start": 149.1225,
      "duration": 0.0454,
      "velocity": 99,
      "chip": "ym2612"
    },
    {
      "channel": 0,
      "note": 69,
      "start": 149.2099,
      "duration": 0.0627,
      "velocity": 99,
      "chip": "ym2612"
    },
    {
      "channel": 1,
      "note": 57,
      "start": 149.2145,
      "duration": 0.1631,
      "velocity": 86,
      "chip": "ym2612"
    },
    {
      "channel": 2,
      "note": 67,
      "start": 149.2223,
      "duration": 0.0506,
      "velocity": 127,
      "chip": "ym2612"
    },
    {
      "channel": 0,
      "note": 67,
      "start": 149.3147,
      "duration": 0.0626,
      "velocity": 99,
      "chip": "ym2612"
    },
    {
      "channel": 0,
      "note": 69,
      "start": 149.4019,
      "duration": 0.0628,
      "velocity": 99,
      "chip": "ym2612"
    },
    {
      "channel": 1,
      "note": 64,
      "start": 149.4064,
      "duration": 0.1631,
      "velocity": 86,
      "chip": "ym2612"
    },
    {
      "channel": 0,
      "note": 76,
      "start": 149.5066,
      "duration": 0.0627,
      "velocity": 99,
      "chip": "ym2612"
    },
    {
      "channel": 0,
      "note": 69,
      "start": 149.6113,
      "duration": 0.0496,
      "velocity": 99,
      "chip": "ym2612"
    },
    {
      "channel": 1,
      "note": 57,
      "start": 149.6159,
      "duration": 0.1456,
      "velocity": 86,
      "chip": "ym2612"
    },
    {
      "channel": 2,
      "note": 84,
      "start": 149.6228,
      "duration": 0.7324,
      "velocity": 90,
      "chip": "ym2612"
    },
    {
      "channel": 3,
      "note": 24,
      "start": 149.6299,
      "duration": 0.0316,
      "velocity": 112,
      "chip": "ym2612"
    },
    {
      "channel": 0,
      "note": 24,
      "start": 149.7001,
      "duration": 0.0611,
      "velocity": 112,
      "chip": "ym2612"
    },
    {
      "channel": 3,
      "note": 72,
      "start": 149.7081,
      "duration": 0.0538,
      "velocity": 99,
      "chip": "ym2612"
    },
    {
      "channel": 0,
      "note": 69,
      "start": 149.8058,
      "duration": 0.0602,
      "velocity": 99,
      "chip": "ym2612"
    },
    {
      "channel": 1,
      "note": 55,
      "start": 149.8104,
      "duration": 0.143,
      "velocity": 86,
      "chip": "ym2612"
    },
    {
      "channel": 0,
      "note": 76,
      "start": 149.908,
      "duration": 0.0451,
      "velocity": 99,
      "chip": "ym2612"
    },
    {
      "channel": 0,
      "note": 69,
      "start": 149.9954,
      "duration": 0.0627,
      "velocity": 99,
      "chip": "ym2612"
    },
    {
      "channel": 1,
      "note": 57,
      "start": 150.0,
      "duration": 0.1679,
      "velocity": 86,
      "chip": "ym2612"
    },
    {
      "channel": 3,
      "note": 67,
      "start": 150.0079,
      "duration": 0.0506,
      "velocity": 127,
      "chip": "ym2612"
    },
    {
      "channel": 0,
      "note": 67,
      "start": 150.1039,
      "duration": 0.0638,
      "velocity": 99,
      "chip": "ym2612"
    },
    {
      "channel": 0,
      "note": 69,
      "start": 150.1874,
      "duration": 0.0628,
      "velocity": 99,
      "chip": "ym2612"
    },
    {
      "channel": 1,
      "note": 64,
      "start": 150.192,
      "duration": 0.163,
      "velocity": 86,
      "chip": "ym2612"
    },
    {
      "channel": 0,
      "note": 76,
      "start": 150.2921,
      "duration": 0.0627,
      "velocity": 99,
      "chip": "ym2612"
    },
    {
      "channel": 0,
      "note": 69,
      "start": 150.3968,
      "duration": 0.0454,
      "velocity": 99,
      "chip": "ym2612"
    },
    {
      "channel": 1,
      "note": 57,
      "start": 150.4014,
      "duration": 0.1456,
      "velocity": 86,
      "chip": "ym2612"
    },
    {
      "channel": 2,
      "note": 24,
      "start": 150.4083,
      "duration": 0.0342,
      "velocity": 112,
      "chip": "ym2612"
    },
    {
      "channel": 3,
      "note": 81,
      "start": 150.4154,
      "duration": 1.5111,
      "velocity": 90,
      "chip": "ym2612"
    },
    {
      "channel": 4,
      "note": 45,
      "start": 150.4204,
      "duration": 0.7206,
      "velocity": 62,
      "chip": "ym2612"
    },
    {
      "channel": 0,
      "note": 72,
      "start": 150.4841,
      "duration": 0.0627,
      "velocity": 99,
      "chip": "ym2612"
    },
    {
      "channel": 0,
      "note": 69,
      "start": 150.5889,
      "duration": 0.0627,
      "velocity": 99,
      "chip": "ym2612"
    },
    {
      "channel": 1,
      "note": 60,
      "start": 150.5935,
      "duration": 0.1509,
      "velocity": 86,
      "chip": "ym2612"
    },
    {
      "channel": 0,
      "note": 76,
      "start": 150.6935,
      "duration": 0.0506,
      "velocity": 99,
      "chip": "ym2612"
    },
    {
      "channel": 0,
      "note": 69,
      "start": 150.7809,
      "duration": 0.0627,
      "velocity": 99,
      "chip": "ym2612"
    },
    {
      "channel": 1,
      "note": 57,
      "start": 150.7854,
      "duration": 0.1631,
      "velocity": 86,
      "chip": "ym2612"
    },
    {
      "channel": 2,
      "note": 67,
      "start": 150.7932,
      "duration": 0.0507,
      "velocity": 127,
      "chip": "ym2612"
    },
    {
      "channel": 0,
      "note": 67,
      "start": 150.8856,
      "duration": 0.0627,
      "velocity": 99,
      "chip": "ym2612"
    },
    {
      "channel": 0,
      "note": 69,
      "start": 150.9729,
      "duration": 0.0628,
      "velocity": 99,
      "chip": "ym2612"
    },
    {
      "channel": 1,
      "note": 64,
      "start": 150.9774,
      "duration": 0.163,
      "velocity": 86,
      "chip": "ym2612"
    },
    {
      "channel": 0,
      "note": 76,
      "start": 151.0776,
      "duration": 0.0627,
      "velocity": 99,
      "chip": "ym2612"
    },
    {
      "channel": 0,
      "note": 69,
      "start": 151.1823,
      "duration": 0.0454,
      "velocity": 99,
      "chip": "ym2612"
    },
    {
      "channel": 1,
      "note": 57,
      "start": 151.1868,
      "duration": 0.1456,
      "velocity": 86,
      "chip": "ym2612"
    },
    {
      "channel": 2,
      "note": 24,
      "start": 151.194,
      "duration": 0.034,
      "velocity": 112,
      "chip": "ym2612"
    },
    {
      "channel": 0,
      "note": 24,
      "start": 151.2711,
      "duration": 0.0611,
      "velocity": 112,
      "chip": "ym2612"
    },
    {
      "channel": 2,
      "note": 72,
      "start": 151.2789,
      "duration": 0.0538,
      "velocity": 99,
      "chip": "ym2612"
    },
    {
      "channel": 0,
      "note": 69,
      "start": 151.3767,
      "duration": 0.0603,
      "velocity": 99,
      "chip": "ym2612"
    },
    {
      "channel": 1,
      "note": 55,
      "start": 151.3813,
      "duration": 0.1433,
      "velocity": 86,
      "chip": "ym2612"
    },
    {
      "channel": 0,
      "note": 76,
      "start": 151.479,
      "duration": 0.0454,
      "velocity": 99,
      "chip": "ym2612"
    },
    {
      "channel": 0,
      "note": 69,
      "start": 151.5664,
      "duration": 0.0627,
      "velocity": 99,
      "chip": "ym2612"
    },
    {
      "channel": 1,
      "note": 57,
      "start": 151.571,
      "duration": 0.1631,
      "velocity": 86,
      "chip": "ym2612"
    },
    {
      "channel": 2,
      "note": 67,
      "start": 151.5787,
      "duration": 0.0507,
      "velocity": 127,
      "chip": "ym2612"
    },
    {
      "channel": 0,
      "note": 67,
      "start": 151.6736,
      "duration": 0.0602,
      "velocity": 127,
      "chip": "ym2612"
    },
    {
      "channel": 2,
      "note": 67,
      "start": 151.6813,
      "duration": 0.0529,
      "velocity": 99,
      "chip": "ym2612"
    },
    {
      "channel": 0,
      "note": 69,
      "start": 151.7607,
      "duration": 0.0604,
      "velocity": 99,
      "chip": "ym2612"
    },
    {
      "channel": 1,
      "note": 67,
      "start": 151.7683,
      "duration": 0.053,
      "velocity": 127,
      "chip": "ym2612"
    },
    {
      "channel": 2,
      "note": 64,
      "start": 151.7753,
      "duration": 0.151,
      "velocity": 86,
      "chip": "ym2612"
    },
    {
      "channel": 0,
      "note": 67,
      "start": 151.8655,
      "duration": 0.0603,
      "velocity": 127,
      "chip": "ym2612"
    },
    {
      "channel": 1,
      "note": 73,
      "start": 151.8731,
      "duration": 0.0529,
      "velocity": 99,
      "chip": "ym2612"
    },
    {
      "channel": 0,
      "note": 66,
      "start": 151.9711,
      "duration": 0.0594,
      "velocity": 99,
      "chip": "ym2612"
    },
    {
      "channel": 1,
      "note": 54,
      "start": 151.9779,
      "duration": 0.1577,
      "velocity": 86,
      "chip": "ym2612"
    },
    {
      "channel": 2,
      "note": 24,
      "start": 151.9849,
      "duration": 0.0461,
      "velocity": 112,
      "chip": "ym2612"
    },
    {
      "channel": 3,
      "note": 30,
      "start": 151.992,
      "duration": 0.7373,
      "velocity": 62,
      "chip": "ym2612"
    },
    {
      "channel": 4,
      "note": 81,
      "start": 151.9993,
      "duration": 1.5156,
      "velocity": 90,
      "chip": "ym2612"
    },
    {
      "channel": 0,
      "note": 69,
      "start": 152.0725,
      "duration": 0.0628,
      "velocity": 99,
      "chip": "ym2612"
    },
    {
      "channel": 0,
      "note": 66,
      "start": 152.1773,
      "duration": 0.0627,
      "velocity": 99,
      "chip": "ym2612"
    },
    {
      "channel": 1,
      "note": 57,
      "start": 152.1819,
      "duration": 0.1457,
      "velocity": 86,
      "chip": "ym2612"
    },
    {
      "channel": 0,
      "note": 73,
      "start": 152.282,
      "duration": 0.0454,
      "velocity": 99,
      "chip": "ym2612"
    },
    {
      "channel": 0,
      "note": 66,
      "start": 152.3693,
      "duration": 0.0627,
      "velocity": 99,
      "chip": "ym2612"
    },
    {
      "channel": 1,
      "note": 54,
      "start": 152.3739,
      "duration": 0.163,
      "velocity": 86,
      "chip": "ym2612"
    },
    {
      "channel": 2,
      "note": 67,
      "start": 152.3816,
      "duration": 0.0506,
      "velocity": 127,
      "chip": "ym2612"
    },
    {
      "channel": 0,
      "note": 63,
      "start": 152.4741,
      "duration": 0.0627,
      "velocity": 99,
      "chip": "ym2612"
    },
    {
      "channel": 0,
      "note": 66,
      "start": 152.5657,
      "duration": 0.0584,
      "velocity": 99,
      "chip": "ym2612"
    },
    {
      "channel": 1,
      "note": 61,
      "start": 152.5702,
      "duration": 0.1587,
      "velocity": 86,
      "chip": "ym2612"
    },
    {
      "channel": 0,
      "note": 73,
      "start": 152.6661,
      "duration": 0.0627,
      "velocity": 99,
      "chip": "ym2612"
    },
    {
      "channel": 0,
      "note": 66,
      "start": 152.7708,
      "duration": 0.0452,
      "velocity": 99,
      "chip": "ym2612"
    },
    {
      "channel": 1,
      "note": 54,
      "start": 152.7754,
      "duration": 0.1463,
      "velocity": 86,
      "chip": "ym2612"
    },
    {
      "channel": 2,
      "note": 24,
      "start": 152.7823,
      "duration": 0.0341,
      "velocity": 112,
      "chip": "ym2612"
    },
    {
      "channel": 0,
      "note": 24,
      "start": 152.8598,
      "duration": 0.0617,
      "velocity": 112,
      "chip": "ym2612"
    },
    {
      "channel": 2,
      "note": 69,
      "start": 152.8675,
      "duration": 0.0545,
      "velocity": 99,
      "chip": "ym2612"
    },
    {
      "channel": 0,
      "note": 66,
      "start": 152.9652,
      "duration": 0.0603,
      "velocity": 99,
      "chip": "ym2612"
    },
    {
      "channel": 1,
      "note": 52,
      "start": 152.9698,
      "duration": 0.1432,
      "velocity": 86,
      "chip": "ym2612"
    },
    {
      "channel": 0,
      "note": 73,
      "start": 153.0675,
      "duration": 0.0454,
      "velocity": 99,
      "chip": "ym2612"
    },
    {
      "channel": 0,
      "note": 66,
      "start": 153.1548,
      "duration": 0.0626,
      "velocity": 99,
      "chip": "ym2612"
    },
    {
      "channel": 1,
      "note": 54,
      "start": 153.1594,
      "duration": 0.163,
      "velocity": 86,
      "chip": "ym2612"
    },
    {
      "channel": 2,
      "note": 67,
      "start": 153.1671,
      "duration": 0.0506,
      "velocity": 127,
      "chip": "ym2612"
    },
    {
      "channel": 0,
      "note": 63,
      "start": 153.2596,
      "duration": 0.0627,
      "velocity": 99,
      "chip": "ym2612"
    },
    {
      "channel": 0,
      "note": 66,
      "start": 153.3468,
      "duration": 0.0628,
      "velocity": 99,
      "chip": "ym2612"
    },
    {
      "channel": 1,
      "note": 61,
      "start": 153.3514,
      "duration": 0.163,
      "velocity": 86,
      "chip": "ym2612"
    },
    {
      "channel": 0,
      "note": 73,
      "start": 153.4515,
      "duration": 0.0627,
      "velocity": 99,
      "chip": "ym2612"
    },
    {
      "channel": 0,
      "note": 66,
      "start": 153.5563,
      "duration": 0.0452,
      "velocity": 99,
      "chip": "ym2612"
    },
    {
      "channel": 1,
      "note": 54,
      "start": 153.5609,
      "duration": 0.1457,
      "velocity": 86,
      "chip": "ym2612"
    },
    {
      "channel": 2,
      "note": 24,
      "start": 153.5678,
      "duration": 0.0341,
      "velocity": 112,
      "chip": "ym2612"
    },
    {
      "channel": 3,
      "note": 85,
      "start": 153.575,
      "duration": 0.7254,
      "velocity": 90,
      "chip": "ym2612"
    },
    {
      "channel": 4,
      "note": 42,
      "start": 153.5822,
      "duration": 0.7184,
      "velocity": 62,
      "chip": "ym2612"
    },
    {
      "channel": 0,
      "note": 69,
      "start": 153.6435,
      "duration": 0.0628,
      "velocity": 99,
      "chip": "ym2612"
    },
    {
      "channel": 0,
      "note": 66,
      "start": 153.7483,
      "duration": 0.0627,
      "velocity": 99,
      "chip": "ym2612"
    },
    {
      "channel": 1,
      "note": 57,
      "start": 153.7529,
      "duration": 0.1456,
      "velocity": 86,
      "chip": "ym2612"
    },
    {
      "channel": 0,
      "note": 73,
      "start": 153.8529,
      "duration": 0.0454,
      "velocity": 99,
      "chip": "ym2612"
    },
    {
      "channel": 0,
      "note": 66,
      "start": 153.9403,
      "duration": 0.066,
      "velocity": 99,
      "chip": "ym2612"
    },
    {
      "channel": 1,
      "note": 54,
      "start": 153.9449,
      "duration": 0.163,
      "velocity": 86,
      "chip": "ym2612"
    },
    {
      "channel": 2,
      "note": 67,
      "start": 153.9526,
      "duration": 0.0541,
      "velocity": 127,
      "chip": "ym2612"
    },
    {
      "channel": 0,
      "note": 63,
      "start": 154.0451,
      "duration": 0.0627,
      "velocity": 99,
      "chip": "ym2612"
    },
    {
      "channel": 0,
      "note": 66,
      "start": 154.1323,
      "duration": 0.0628,
      "velocity": 99,
      "chip": "ym2612"
    },
    {
      "channel": 1,
      "note": 67,
      "start": 154.1399,
      "duration": 0.0554,
      "velocity": 127,
      "chip": "ym2612"
    },
    {
      "channel": 2,
      "note": 61,
      "start": 154.1468,
      "duration": 0.1533,
      "velocity": 86,
      "chip": "ym2612"
    },
    {
      "channel": 0,
      "note": 67,
      "start": 154.2394,
      "duration": 0.0602,
      "velocity": 127,
      "chip": "ym2612"
    },
    {
      "channel": 1,
      "note": 73,
      "start": 154.247,
      "duration": 0.0529,
      "velocity": 99,
      "chip": "ym2612"
    },
    {
      "channel": 0,
      "note": 66,
      "start": 154.3442,
      "duration": 0.0428,
      "velocity": 99,
      "chip": "ym2612"
    },
    {
      "channel": 1,
      "note": 54,
      "start": 154.351,
      "duration": 0.1411,
      "velocity": 86,
      "chip": "ym2612"
    },
    {
      "channel": 2,
      "note": 78,
      "start": 154.3579,
      "duration": 0.7277,
      "velocity": 90,
      "chip": "ym2612"
    },
    {
      "channel": 3,
      "note": 24,
      "start": 154.365,
      "duration": 0.0225,
      "velocity": 112,
      "chip": "ym2612"
    },
    {
      "channel": 0,
      "note": 24,
      "start": 154.4305,
      "duration": 0.0613,
      "velocity": 112,
      "chip": "ym2612"
    },
    {
      "channel": 3,
      "note": 69,
      "start": 154.4385,
      "duration": 0.0539,
      "velocity": 99,
      "chip": "ym2612"
    },
    {
      "channel": 0,
      "note": 66,
      "start": 154.5361,
      "duration": 0.0603,
      "velocity": 99,
      "chip": "ym2612"
    },
    {
      "channel": 1,
      "note": 52,
      "start": 154.5407,
      "duration": 0.1433,
      "velocity": 86,
      "chip": "ym2612"
    },
    {
      "channel": 0,
      "note": 73,
      "start": 154.6384,
      "duration": 0.0454,
      "velocity": 99,
      "chip": "ym2612"
    },
    {
      "channel": 0,
      "note": 66,
      "start": 154.7258,
      "duration": 0.0626,
      "velocity": 99,
      "chip": "ym2612"
    },
    {
      "channel": 1,
      "note": 54,
      "start": 154.7304,
      "duration": 0.163,
      "velocity": 86,
      "chip": "ym2612"
    },
    {
      "channel": 3,
      "note": 67,
      "start": 154.7383,
      "duration": 0.0506,
      "velocity": 127,
      "chip": "ym2612"
    },
    {
      "channel": 0,
      "note": 63,
      "start": 154.8305,
      "duration": 0.0627,
      "velocity": 99,
      "chip": "ym2612"
    },
    {
      "channel": 0,
      "note": 66,
      "start": 154.9178,
      "duration": 0.0628,
      "velocity": 99,
      "chip": "ym2612"
    },
    {
      "channel": 1,
      "note": 67,
      "start": 154.9253,
      "duration": 0.0554,
      "velocity": 127,
      "chip": "ym2612"
    },
    {
      "channel": 3,
      "note": 61,
      "start": 154.9325,
      "duration": 0.1534,
      "velocity": 86,
      "chip": "ym2612"
    },
    {
      "channel": 0,
      "note": 67,
      "start": 155.0249,
      "duration": 0.0602,
      "velocity": 127,
      "chip": "ym2612"
    },
    {
      "channel": 1,
      "note": 73,
      "start": 155.0325,
      "duration": 0.0529,
      "velocity": 99,
      "chip": "ym2612"
    },
    {
      "channel": 0,
      "note": 66,
      "start": 155.1302,
      "duration": 0.0597,
      "velocity": 99,
      "chip": "ym2612"
    },
    {
      "channel": 1,
      "note": 54,
      "start": 155.137,
      "duration": 0.1579,
      "velocity": 86,
      "chip": "ym2612"
    },
    {
      "channel": 2,
      "note": 24,
      "start": 155.1439,
      "duration": 0.0464,
      "velocity": 112,
      "chip": "ym2612"
    },
    {
      "channel": 3,
      "note": 76,
      "start": 155.151,
      "duration": 0.7377,
      "velocity": 90,
      "chip": "ym2612"
    },
    {
      "channel": 4,
      "note": 30,
      "start": 155.1561,
      "duration": 0.7328,
      "velocity": 62,
      "chip": "ym2612"
    },
    {
      "channel": 0,
      "note": 69,
      "start": 155.232,
      "duration": 0.0628,
      "velocity": 99,
      "chip": "ym2612"
    },
    {
      "channel": 0,
      "note": 66,
      "start": 155.3367,
      "duration": 0.0626,
      "velocity": 99,
      "chip": "ym2612"
    },
    {
      "channel": 1,
      "note": 57,
      "start": 155.3413,
      "duration": 0.1456,
      "velocity": 86,
      "chip": "ym2612"
    },
    {
      "channel": 0,
      "note": 73,
      "start": 155.4415,
      "duration": 0.0452,
      "velocity": 99,
      "chip": "ym2612"
    },
    {
      "channel": 0,
      "note": 66,
      "start": 155.5287,
      "duration": 0.0628,
      "velocity": 99,
      "chip": "ym2612"
    },
    {
      "channel": 1,
      "note": 54,
      "start": 155.5333,
      "duration": 0.163,
      "velocity": 86,
      "chip": "ym2612"
    },
    {
      "channel": 2,
      "note": 67,
      "start": 155.541,
      "duration": 0.0508,
      "velocity": 127,
      "chip": "ym2612"
    },
    {
      "channel": 0,
      "note": 63,
      "start": 155.6335,
      "duration": 0.0626,
      "velocity": 99,
      "chip": "ym2612"
    },
    {
      "channel": 0,
      "note": 66,
      "start": 155.7207,
      "duration": 0.0628,
      "velocity": 99,
      "chip": "ym2612"
    },
    {
      "channel": 1,
      "note": 61,
      "start": 155.7252,
      "duration": 0.1631,
      "velocity": 86,
      "chip": "ym2612"
    },
    {
      "channel": 0,
      "note": 73,
      "start": 155.8299,
      "duration": 0.0582,
      "velocity": 99,
      "chip": "ym2612"
    },
    {
      "channel": 0,
      "note": 66,
      "start": 155.9302,
      "duration": 0.0452,
      "velocity": 99,
      "chip": "ym2612"
    },
    {
      "channel": 1,
      "note": 54,
      "start": 155.9348,
      "duration": 0.1456,
      "velocity": 86,
      "chip": "ym2612"
    },
    {
      "channel": 2,
      "note": 81,
      "start": 155.9417,
      "duration": 0.7323,
      "velocity": 90,
      "chip": "ym2612"
    },
    {
      "channel": 3,
      "note": 24,
      "start": 155.9489,
      "duration": 0.0271,
      "velocity": 112,
      "chip": "ym2612"
    },
    {
      "channel": 0,
      "note": 24,
      "start": 156.019,
      "duration": 0.0612,
      "velocity": 112,
      "chip": "ym2612"
    },
    {
      "channel": 3,
      "note": 69,
      "start": 156.0269,
      "duration": 0.0539,
      "velocity": 99,
      "chip": "ym2612"
    },
    {
      "channel": 0,
      "note": 66,
      "start": 156.127,
      "duration": 0.0578,
      "velocity": 99,
      "chip": "ym2612"
    },
    {
      "channel": 1,
      "note": 52,
      "start": 156.1315,
      "duration": 0.1409,
      "velocity": 86,
      "chip": "ym2612"
    },
    {
      "channel": 0,
      "note": 73,
      "start": 156.227,
      "duration": 0.0452,
      "velocity": 99,
      "chip": "ym2612"
    },
    {
      "channel": 0,
      "note": 66,
      "start": 156.3142,
      "duration": 0.0628,
      "velocity": 99,
      "chip": "ym2612"
    },
    {
      "channel": 1,
      "note": 54,
      "start": 156.3188,
      "duration": 0.1631,
      "velocity": 86,
      "chip": "ym2612"
    },
    {
      "channel": 3,
      "note": 67,
      "start": 156.3267,
      "duration": 0.0508,
      "velocity": 127,
      "chip": "ym2612"
    },
    {
      "channel": 0,
      "note": 63,
      "start": 156.419,
      "duration": 0.0626,
      "velocity": 99,
      "chip": "ym2612"
    },
    {
      "channel": 0,
      "note": 66,
      "start": 156.5061,
      "duration": 0.0629,
      "velocity": 99,
      "chip": "ym2612"
    },
    {
      "channel": 1,
      "note": 61,
      "start": 156.5107,
      "duration": 0.1631,
      "velocity": 86,
      "chip": "ym2612"
    },
    {
      "channel": 0,
      "note": 73,
      "start": 156.611,
      "duration": 0.0626,
      "velocity": 99,
      "chip": "ym2612"
    },
    {
      "channel": 0,
      "note": 66,
      "start": 156.7157,
      "duration": 0.0452,
      "velocity": 99,
      "chip": "ym2612"
    },
    {
      "channel": 1,
      "note": 54,
      "start": 156.7203,
      "duration": 0.1456,
      "velocity": 86,
      "chip": "ym2612"
    },
    {
      "channel": 2,
      "note": 24,
      "start": 156.7273,
      "duration": 0.034,
      "velocity": 112,
      "chip": "ym2612"
    },
    {
      "channel": 3,
      "note": 78,
      "start": 156.7344,
      "duration": 1.5111,
      "velocity": 90,
      "chip": "ym2612"
    },
    {
      "channel": 4,
      "note": 42,
      "start": 156.7395,
      "duration": 0.7204,
      "velocity": 62,
      "chip": "ym2612"
    },
    {
      "channel": 0,
      "note": 69,
      "start": 156.8029,
      "duration": 0.0628,
      "velocity": 99,
      "chip": "ym2612"
    },
    {
      "channel": 0,
      "note": 66,
      "start": 156.9077,
      "duration": 0.0626,
      "velocity": 99,
      "chip": "ym2612"
    },
    {
      "channel": 1,
      "note": 57,
      "start": 156.9123,
      "duration": 0.1456,
      "velocity": 86,
      "chip": "ym2612"
    },
    {
      "channel": 0,
      "note": 73,
      "start": 157.0125,
      "duration": 0.0452,
      "velocity": 99,
      "chip": "ym2612"
    },
    {
      "channel": 0,
      "note": 66,
      "start": 157.0997,
      "duration": 0.0628,
      "velocity": 99,
      "chip": "ym2612"
    },
    {
      "channel": 1,
      "note": 54,
      "start": 157.1042,
      "duration": 0.1645,
      "velocity": 86,
      "chip": "ym2612"
    },
    {
      "channel": 2,
      "note": 67,
      "start": 157.112,
      "duration": 0.0508,
      "velocity": 127,
      "chip": "ym2612"
    },
    {
      "channel": 0,
      "note": 63,
      "start": 157.2048,
      "duration": 0.0637,
      "velocity": 99,
      "chip": "ym2612"
    },
    {
      "channel": 0,
      "note": 66,
      "start": 157.2916,
      "duration": 0.0628,
      "velocity": 99,
      "chip": "ym2612"
    },
    {
      "channel": 1,
      "note": 61,
      "start": 157.2962,
      "duration": 0.1631,
      "velocity": 86,
      "chip": "ym2612"
    },
    {
      "channel": 0,
      "note": 73,
      "start": 157.3965,
      "duration": 0.0626,
      "velocity": 99,
      "chip": "ym2612"
    },
    {
      "channel": 0,
      "note": 66,
      "start": 157.5012,
      "duration": 0.0452,
      "velocity": 99,
      "chip": "ym2612"
    },
    {
      "channel": 1,
      "note": 54,
      "start": 157.5058,
      "duration": 0.1456,
      "velocity": 86,
      "chip": "ym2612"
    },
    {
      "channel": 2,
      "note": 24,
      "start": 157.5127,
      "duration": 0.034,
      "velocity": 112,
      "chip": "ym2612"
    },
    {
      "channel": 0,
      "note": 24,
      "start": 157.5899,
      "duration": 0.0612,
      "velocity": 112,
      "chip": "ym2612"
    },
    {
      "channel": 2,
      "note": 69,
      "start": 157.5977,
      "duration": 0.0539,
      "velocity": 99,
      "chip": "ym2612"
    },
    {
      "channel": 0,
      "note": 66,
      "start": 157.6956,
      "duration": 0.0602,
      "velocity": 99,
      "chip": "ym2612"
    },
    {
      "channel": 1,
      "note": 52,
      "start": 157.7001,
      "duration": 0.1433,
      "velocity": 86,
      "chip": "ym2612"
    },
    {
      "channel": 0,
      "note": 73,
      "start": 157.798,
      "duration": 0.0452,
      "velocity": 99,
      "chip": "ym2612"
    },
    {
      "channel": 0,
      "note": 66,
      "start": 157.8852,
      "duration": 0.0628,
      "velocity": 99,
      "chip": "ym2612"
    },
    {
      "channel": 1,
      "note": 54,
      "start": 157.8897,
      "duration": 0.1631,
      "velocity": 86,
      "chip": "ym2612"
    },
    {
      "channel": 2,
      "note": 67,
      "start": 157.8975,
      "duration": 0.0508,
      "velocity": 127,
      "chip": "ym2612"
    },
    {
      "channel": 0,
      "note": 67,
      "start": 157.9923,
      "duration": 0.0602,
      "velocity": 127,
      "chip": "ym2612"
    },
    {
      "channel": 2,
      "note": 63,
      "start": 158.0001,
      "duration": 0.0529,
      "velocity": 99,
      "chip": "ym2612"
    },
    {
      "channel": 0,
      "note": 66,
      "start": 158.0795,
      "duration": 0.0648,
      "velocity": 99,
      "chip": "ym2612"
    },
    {
      "channel": 1,
      "note": 67,
      "start": 158.0871,
      "duration": 0.0575,
      "velocity": 127,
      "chip": "ym2612"
    },
    {
      "channel": 2,
      "note": 61,
      "start": 158.0942,
      "duration": 0.151,
      "velocity": 86,
      "chip": "ym2612"
    },
    {
      "channel": 0,
      "note": 67,
      "start": 158.1843,
      "duration": 0.0604,
      "velocity": 127,
      "chip": "ym2612"
    },
    {
      "channel": 1,
      "note": 73,
      "start": 158.192,
      "duration": 0.053,
      "velocity": 99,
      "chip": "ym2612"
    },
    {
      "channel": 0,
      "note": 71,
      "start": 158.2903,
      "duration": 0.059,
      "velocity": 99,
      "chip": "ym2612"
    },
    {
      "channel": 1,
      "note": 59,
      "start": 158.297,
      "duration": 0.1573,
      "velocity": 86,
      "chip": "ym2612"
    },
    {
      "channel": 2,
      "note": 24,
      "start": 158.304,
      "duration": 0.0457,
      "velocity": 112,
      "chip": "ym2612"
    },
    {
      "channel": 3,
      "note": 35,
      "start": 158.3111,
      "duration": 0.7371,
      "velocity": 62,
      "chip": "ym2612"
    },
    {
      "channel": 4,
      "note": 74,
      "start": 158.3184,
      "duration": 1.5154,
      "velocity": 90,
      "chip": "ym2612"
    },
    {
      "channel": 0,
      "note": 74,
      "start": 158.3913,
      "duration": 0.0628,
      "velocity": 99,
      "chip": "ym2612"
    },
    {
      "channel": 0,
      "note": 71,
      "start": 158.4961,
      "duration": 0.0626,
      "velocity": 99,
      "chip": "ym2612"
    },
    {
      "channel": 1,
      "note": 62,
      "start": 158.5007,
      "duration": 0.1456,
      "velocity": 86,
      "chip": "ym2612"
    },
    {
      "channel": 0,
      "note": 78,
      "start": 158.6009,
      "duration": 0.0452,
      "velocity": 99,
      "chip": "ym2612"
    },
    {
      "channel": 0,
      "note": 71,
      "start": 158.6881,
      "duration": 0.0628,
      "velocity": 99,
      "chip": "ym2612"
    },
    {
      "channel": 1,
      "note": 59,
      "start": 158.6926,
      "duration": 0.1631,
      "velocity": 86,
      "chip": "ym2612"
    },
    {
      "channel": 2,
      "note": 67,
      "start": 158.7005,
      "duration": 0.0508,
      "velocity": 127,
      "chip": "ym2612"
    },
    {
      "channel": 0,
      "note": 68,
      "start": 158.7929,
      "duration": 0.0626,
      "velocity": 99,
      "chip": "ym2612"
    },
    {
      "channel": 0,
      "note": 71,
      "start": 158.88,
      "duration": 0.0627,
      "velocity": 99,
      "chip": "ym2612"
    },
    {
      "channel": 1,
      "note": 66,
      "start": 158.8846,
      "duration": 0.1632,
      "velocity": 86,
      "chip": "ym2612"
    },
    {
      "channel": 0,
      "note": 78,
      "start": 158.9849,
      "duration": 0.0628,
      "velocity": 99,
      "chip": "ym2612"
    },
    {
      "channel": 0,
      "note": 71,
      "start": 159.09,
      "duration": 0.0448,
      "velocity": 99,
      "chip": "ym2612"
    },
    {
      "channel": 1,
      "note": 59,
      "start": 159.0946,
      "duration": 0.1453,
      "velocity": 86,
      "chip": "ym2612"
    },
    {
      "channel": 2,
      "note": 24,
      "start": 159.1015,
      "duration": 0.0337,
      "velocity": 112,
      "chip": "ym2612"
    },
    {
      "channel": 0,
      "note": 24,
      "start": 159.1783,
      "duration": 0.0613,
      "velocity": 112,
      "chip": "ym2612"
    },
    {
      "channel": 2,
      "note": 74,
      "start": 159.1861,
      "duration": 0.0539,
      "velocity": 99,
      "chip": "ym2612"
    },
    {
      "channel": 0,
      "note": 71,
      "start": 159.284,
      "duration": 0.0602,
      "velocity": 99,
      "chip": "ym2612"
    },
    {
      "channel": 1,
      "note": 57,
      "start": 159.2886,
      "duration": 0.1433,
      "velocity": 86,
      "chip": "ym2612"
    },
    {
      "channel": 0,
      "note": 78,
      "start": 159.3864,
      "duration": 0.0451,
      "velocity": 99,
      "chip": "ym2612"
    },
    {
      "channel": 0,
      "note": 71,
      "start": 159.4736,
      "duration": 0.0628,
      "velocity": 99,
      "chip": "ym2612"
    },
    {
      "channel": 1,
      "note": 59,
      "start": 159.4781,
      "duration": 0.1631,
      "velocity": 86,
      "chip": "ym2612"
    },
    {
      "channel": 2,
      "note": 67,
      "start": 159.486,
      "duration": 0.0508,
      "velocity": 127,
      "chip": "ym2612"
    },
    {
      "channel": 0,
      "note": 68,
      "start": 159.5784,
      "duration": 0.0626,
      "velocity": 99,
      "chip": "ym2612"
    },
    {
      "channel": 0,
      "note": 71,
      "start": 159.6655,
      "duration": 0.0628,
      "velocity": 99,
      "chip": "ym2612"
    },
    {
      "channel": 1,
      "note": 66,
      "start": 159.6701,
      "duration": 0.1632,
      "velocity": 86,
      "chip": "ym2612"
    },
    {
      "channel": 0,
      "note": 78,
      "start": 159.7704,
      "duration": 0.0628,
      "velocity": 99,
      "chip": "ym2612"
    },
    {
      "channel": 0,
      "note": 71,
      "start": 159.8751,
      "duration": 0.0452,
      "velocity": 99,
      "chip": "ym2612"
    },
    {
      "channel": 1,
      "note": 59,
      "start": 159.8797,
      "duration": 0.1489,
      "velocity": 86,
      "chip": "ym2612"
    },
    {
      "channel": 2,
      "note": 24,
      "start": 159.8867,
      "duration": 0.0341,
      "velocity": 112,
      "chip": "ym2612"
    },
    {
      "channel": 3,
      "note": 78,
      "start": 159.8939,
      "duration": 0.7254,
      "velocity": 90,
      "chip": "ym2612"
    },
    {
      "channel": 4,
      "note": 47,
      "start": 159.9012,
      "duration": 0.7183,
      "velocity": 62,
      "chip": "ym2612"
    },
    {
      "channel": 0,
      "note": 74,
      "start": 159.9624,
      "duration": 0.066,
      "velocity": 99,
      "chip": "ym2612"
    },
    {
      "channel": 0,
      "note": 71,
      "start": 160.0671,
      "duration": 0.0627,
      "velocity": 99,
      "chip": "ym2612"
    },
    {
      "channel": 1,
      "note": 62,
      "start": 160.0717,
      "duration": 0.1457,
      "velocity": 86,
      "chip": "ym2612"
    },
    {
      "channel": 0,
      "note": 78,
      "start": 160.1759,
      "duration": 0.0413,
      "velocity": 99,
      "chip": "ym2612"
    },
    {
      "channel": 0,
      "note": 71,
      "start": 160.2591,
      "duration": 0.0627,
      "velocity": 99,
      "chip": "ym2612"
    },
    {
      "channel": 1,
      "note": 59,
      "start": 160.2637,
      "duration": 0.1631,
      "velocity": 86,
      "chip": "ym2612"
    },
    {
      "channel": 2,
      "note": 67,
      "start": 160.2715,
      "duration": 0.0507,
      "velocity": 127,
      "chip": "ym2612"
    },
    {
      "channel": 0,
      "note": 68,
      "start": 160.3639,
      "duration": 0.0627,
      "velocity": 99,
      "chip": "ym2612"
    },
    {
      "channel": 0,
      "note": 71,
      "start": 160.4511,
      "duration": 0.0627,
      "velocity": 99,
      "chip": "ym2612"
    },
    {
      "channel": 1,
      "note": 67,
      "start": 160.4587,
      "duration": 0.0553,
      "velocity": 127,
      "chip": "ym2612"
    },
    {
      "channel": 2,
      "note": 66,
      "start": 160.4657,
      "duration": 0.1534,
      "velocity": 86,
      "chip": "ym2612"
    },
    {
      "channel": 0,
      "note": 67,
      "start": 160.5583,
      "duration": 0.0603,
      "velocity": 127,
      "chip": "ym2612"
    },
    {
      "channel": 1,
      "note": 78,
      "start": 160.5659,
      "duration": 0.0529,
      "velocity": 99,
      "chip": "ym2612"
    },
    {
      "channel": 0,
      "note": 71,
      "start": 160.6629,
      "duration": 0.043,
      "velocity": 99,
      "chip": "ym2612"
    },
    {
      "channel": 1,
      "note": 59,
      "start": 160.6698,
      "duration": 0.141,
      "velocity": 86,
      "chip": "ym2612"
    },
    {
      "channel": 2,
      "note": 71,
      "start": 160.6769,
      "duration": 0.7276,
      "velocity": 90,
      "chip": "ym2612"
    },
    {
      "channel": 3,
      "note": 24,
      "start": 160.6839,
      "duration": 0.0225,
      "velocity": 112,
      "chip": "ym2612"
    },
    {
      "channel": 0,
      "note": 24,
      "start": 160.7495,
      "duration": 0.0611,
      "velocity": 112,
      "chip": "ym2612"
    },
    {
      "channel": 3,
      "note": 74,
      "start": 160.7574,
      "duration": 0.0538,
      "velocity": 99,
      "chip": "ym2612"
    },
    {
      "channel": 0,
      "note": 71,
      "start": 160.8549,
      "duration": 0.0604,
      "velocity": 99,
      "chip": "ym2612"
    },
    {
      "channel": 1,
      "note": 57,
      "start": 160.8595,
      "duration": 0.1433,
      "velocity": 86,
      "chip": "ym2612"
    },
    {
      "channel": 0,
      "note": 78,
      "start": 160.9573,
      "duration": 0.0451,
      "velocity": 99,
      "chip": "ym2612"
    },
    {
      "channel": 0,
      "note": 71,
      "start": 161.0447,
      "duration": 0.0627,
      "velocity": 99,
      "chip": "ym2612"
    },
    {
      "channel": 1,
      "note": 59,
      "start": 161.0493,
      "duration": 0.163,
      "velocity": 86,
      "chip": "ym2612"
    },
    {
      "channel": 3,
      "note": 67,
      "start": 161.0572,
      "duration": 0.0506,
      "velocity": 127,
      "chip": "ym2612"
    },
    {
      "channel": 0,
      "note": 68,
      "start": 161.1493,
      "duration": 0.0627,
      "velocity": 99,
      "chip": "ym2612"
    },
    {
      "channel": 0,
      "note": 71,
      "start": 161.2365,
      "duration": 0.0628,
      "velocity": 99,
      "chip": "ym2612"
    },
    {
      "channel": 1,
      "note": 67,
      "start": 161.2442,
      "duration": 0.0554,
      "velocity": 127,
      "chip": "ym2612"
    },
    {
      "channel": 3,
      "note": 66,
      "start": 161.2513,
      "duration": 0.1534,
      "velocity": 86,
      "chip": "ym2612"
    },
    {
      "channel": 0,
      "note": 67,
      "start": 161.3451,
      "duration": 0.0589,
      "velocity": 127,
      "chip": "ym2612"
    },
    {
      "channel": 1,
      "note": 78,
      "start": 161.3527,
      "duration": 0.0515,
      "velocity": 99,
      "chip": "ym2612"
    },
    {
      "channel": 0,
      "note": 71,
      "start": 161.449,
      "duration": 0.0597,
      "velocity": 99,
      "chip": "ym2612"
    },
    {
      "channel": 1,
      "note": 59,
      "start": 161.4558,
      "duration": 0.158,
      "velocity": 86,
      "chip": "ym2612"
    },
    {
      "channel": 2,
      "note": 24,
      "start": 161.4627,
      "duration": 0.0464,
      "velocity": 112,
      "chip": "ym2612"
    },
    {
      "channel": 3,
      "note": 71,
      "start": 161.4699,
      "duration": 0.7378,
      "velocity": 90,
      "chip": "ym2612"
    },
    {
      "channel": 4,
      "note": 35,
      "start": 161.4749,
      "duration": 0.733,
      "velocity": 62,
      "chip": "ym2612"
    },
    {
      "channel": 0,
      "note": 74,
      "start": 161.5508,
      "duration": 0.0628,
      "velocity": 99,
      "chip": "ym2612"
    },
    {
      "channel": 0,
      "note": 71,
      "start": 161.6556,
      "duration": 0.0628,
      "velocity": 99,
      "chip": "ym2612"
    },
    {
      "channel": 1,
      "note": 62,
      "start": 161.6601,
      "duration": 0.1456,
      "velocity": 86,
      "chip": "ym2612"
    },
    {
      "channel": 0,
      "note": 78,
      "start": 161.7603,
      "duration": 0.0452,
      "velocity": 99,
      "chip": "ym2612"
    },
    {
      "channel": 0,
      "note": 71,
      "start": 161.8475,
      "duration": 0.0628,
      "velocity": 99,
      "chip": "ym2612"
    },
    {
      "channel": 1,
      "note": 59,
      "start": 161.8521,
      "duration": 0.1631,
      "velocity": 86,
      "chip": "ym2612"
    },
    {
      "channel": 2,
      "note": 67,
      "start": 161.8599,
      "duration": 0.0508,
      "velocity": 127,
      "chip": "ym2612"
    },
    {
      "channel": 0,
      "note": 68,
      "start": 161.9523,
      "duration": 0.0626,
      "velocity": 99,
      "chip": "ym2612"
    },
    {
      "channel": 0,
      "note": 71,
      "start": 162.0395,
      "duration": 0.0629,
      "velocity": 99,
      "chip": "ym2612"
    },
    {
      "channel": 1,
      "note": 66,
      "start": 162.044,
      "duration": 0.1632,
      "velocity": 86,
      "chip": "ym2612"
    },
    {
      "channel": 0,
      "note": 78,
      "start": 162.1443,
      "duration": 0.0628,
      "velocity": 99,
      "chip": "ym2612"
    },
    {
      "channel": 0,
      "note": 71,
      "start": 162.2491,
      "duration": 0.0452,
      "velocity": 99,
      "chip": "ym2612"
    },
    {
      "channel": 1,
      "note": 59,
      "start": 162.2537,
      "duration": 0.1456,
      "velocity": 86,
      "chip": "ym2612"
    },
    {
      "channel": 2,
      "note": 74,
      "start": 162.2606,
      "duration": 0.7324,
      "velocity": 90,
      "chip": "ym2612"
    },
    {
      "channel": 3,
      "note": 24,
      "start": 162.2677,
      "duration": 0.0271,
      "velocity": 112,
      "chip": "ym2612"
    },
    {
      "channel": 0,
      "note": 24,
      "start": 162.3377,
      "duration": 0.0613,
      "velocity": 112,
      "chip": "ym2612"
    },
    {
      "channel": 3,
      "note": 74,
      "start": 162.3458,
      "duration": 0.0539,
      "velocity": 99,
      "chip": "ym2612"
    },
    {
      "channel": 0,
      "note": 71,
      "start": 162.4434,
      "duration": 0.0604,
      "velocity": 99,
      "chip": "ym2612"
    },
    {
      "channel": 1,
      "note": 57,
      "start": 162.448,
      "duration": 0.1433,
      "velocity": 86,
      "chip": "ym2612"
    },
    {
      "channel": 0,
      "note": 78,
      "start": 162.5458,
      "duration": 0.0452,
      "velocity": 99,
      "chip": "ym2612"
    },
    {
      "channel": 0,
      "note": 71,
      "start": 162.633,
      "duration": 0.0628,
      "velocity": 99,
      "chip": "ym2612"
    },
    {
      "channel": 1,
      "note": 59,
      "start": 162.6376,
      "duration": 0.1631,
      "velocity": 86,
      "chip": "ym2612"
    },
    {
      "channel": 3,
      "note": 67,
      "start": 162.6456,
      "duration": 0.0507,
      "velocity": 127,
      "chip": "ym2612"
    },
    {
      "channel": 0,
      "note": 68,
      "start": 162.7378,
      "duration": 0.0626,
      "velocity": 99,
      "chip": "ym2612"
    },
    {
      "channel": 0,
      "note": 71,
      "start": 162.825,
      "duration": 0.0628,
      "velocity": 99,
      "chip": "ym2612"
    },
    {
      "channel": 1,
      "note": 66,
      "start": 162.8295,
      "duration": 0.1632,
      "velocity": 86,
      "chip": "ym2612"
    },
    {
      "channel": 0,
      "note": 78,
      "start": 162.9298,
      "duration": 0.0628,
      "velocity": 99,
      "chip": "ym2612"
    },
    {
      "channel": 0,
      "note": 71,
      "start": 163.0346,
      "duration": 0.0452,
      "velocity": 99,
      "chip": "ym2612"
    },
    {
      "channel": 1,
      "note": 59,
      "start": 163.0391,
      "duration": 0.1456,
      "velocity": 86,
      "chip": "ym2612"
    },
    {
      "channel": 2,
      "note": 24,
      "start": 163.0461,
      "duration": 0.034,
      "velocity": 112,
      "chip": "ym2612"
    },
    {
      "channel": 3,
      "note": 74,
      "start": 163.0532,
      "duration": 1.5111,
      "velocity": 90,
      "chip": "ym2612"
    },
    {
      "channel": 4,
      "note": 47,
      "start": 163.0583,
      "duration": 0.7205,
      "velocity": 62,
      "chip": "ym2612"
    },
    {
      "channel": 0,
      "note": 74,
      "start": 163.1217,
      "duration": 0.0628,
      "velocity": 99,
      "chip": "ym2612"
    },
    {
      "channel": 0,
      "note": 71,
      "start": 163.2266,
      "duration": 0.0636,
      "velocity": 99,
      "chip": "ym2612"
    },
    {
      "channel": 1,
      "note": 62,
      "start": 163.2311,
      "duration": 0.1456,
      "velocity": 86,
      "chip": "ym2612"
    },
    {
      "channel": 0,
      "note": 78,
      "start": 163.3313,
      "duration": 0.0452,
      "velocity": 99,
      "chip": "ym2612"
    },
    {
      "channel": 0,
      "note": 71,
      "start": 163.4185,
      "duration": 0.0629,
      "velocity": 99,
      "chip": "ym2612"
    },
    {
      "channel": 1,
      "note": 59,
      "start": 163.423,
      "duration": 0.1631,
      "velocity": 86,
      "chip": "ym2612"
    },
    {
      "channel": 2,
      "note": 67,
      "start": 163.4309,
      "duration": 0.0508,
      "velocity": 127,
      "chip": "ym2612"
    },
    {
      "channel": 0,
      "note": 68,
      "start": 163.5233,
      "duration": 0.0626,
      "velocity": 99,
      "chip": "ym2612"
    },
    {
      "channel": 0,
      "note": 71,
      "start": 163.6105,
      "duration": 0.0628,
      "velocity": 99,
      "chip": "ym2612"
    },
    {
      "channel": 1,
      "note": 66,
      "start": 163.615,
      "duration": 0.1632,
      "velocity": 86,
      "chip": "ym2612"
    },
    {
      "channel": 0,
      "note": 78,
      "start": 163.7153,
      "duration": 0.0628,
      "velocity": 99,
      "chip": "ym2612"
    },
    {
      "channel": 0,
      "note": 71,
      "start": 163.8201,
      "duration": 0.0472,
      "velocity": 99,
      "chip": "ym2612"
    },
    {
      "channel": 1,
      "note": 59,
      "start": 163.8246,
      "duration": 0.1456,
      "velocity": 86,
      "chip": "ym2612"
    },
    {
      "channel": 2,
      "note": 24,
      "start": 163.8316,
      "duration": 0.036,
      "velocity": 112,
      "chip": "ym2612"
    },
    {
      "channel": 0,
      "note": 24,
      "start": 163.9089,
      "duration": 0.0611,
      "velocity": 112,
      "chip": "ym2612"
    },
    {
      "channel": 2,
      "note": 74,
      "start": 163.9167,
      "duration": 0.0538,
      "velocity": 99,
      "chip": "ym2612"
    },
    {
      "channel": 0,
      "note": 71,
      "start": 164.0144,
      "duration": 0.0604,
      "velocity": 99,
      "chip": "ym2612"
    },
    {
      "channel": 1,
      "note": 57,
      "start": 164.019,
      "duration": 0.1433,
      "velocity": 86,
      "chip": "ym2612"
    },
    {
      "channel": 0,
      "note": 78,
      "start": 164.1168,
      "duration": 0.0452,
      "velocity": 99,
      "chip": "ym2612"
    },
    {
      "channel": 0,
      "note": 71,
      "start": 164.204,
      "duration": 0.0628,
      "velocity": 99,
      "chip": "ym2612"
    },
    {
      "channel": 1,
      "note": 59,
      "start": 164.2085,
      "duration": 0.1681,
      "velocity": 86,
      "chip": "ym2612"
    },
    {
      "channel": 2,
      "note": 67,
      "start": 164.2164,
      "duration": 0.0508,
      "velocity": 127,
      "chip": "ym2612"
    },
    {
      "channel": 0,
      "note": 67,
      "start": 164.312,
      "duration": 0.0644,
      "velocity": 127,
      "chip": "ym2612"
    },
    {
      "channel": 2,
      "note": 68,
      "start": 164.3198,
      "duration": 0.0571,
      "velocity": 99,
      "chip": "ym2612"
    },
    {
      "channel": 0,
      "note": 71,
      "start": 164.3983,
      "duration": 0.0604,
      "velocity": 99,
      "chip": "ym2612"
    },
    {
      "channel": 1,
      "note": 67,
      "start": 164.4059,
      "duration": 0.053,
      "velocity": 127,
      "chip": "ym2612"
    },
    {
      "channel": 2,
      "note": 66,
      "start": 164.4129,
      "duration": 0.1511,
      "velocity": 86,
      "chip": "ym2612"
    },
    {
      "channel": 0,
      "note": 67,
      "start": 164.5031,
      "duration": 0.0604,
      "velocity": 127,
      "chip": "ym2612"
    },
    {
      "channel": 1,
      "note": 78,
      "start": 164.5107,
      "duration": 0.0531,
      "velocity": 99,
      "chip": "ym2612"
    },
    {
      "channel": 0,
      "note": 76,
      "start": 164.6089,
      "duration": 0.0592,
      "velocity": 99,
      "chip": "ym2612"
    },
    {
      "channel": 1,
      "note": 64,
      "start": 164.6157,
      "duration": 0.1575,
      "velocity": 86,
      "chip": "ym2612"
    },
    {
      "channel": 2,
      "note": 24,
      "start": 164.6227,
      "duration": 0.0459,
      "velocity": 112,
      "chip": "ym2612"
    },
    {
      "channel": 3,
      "note": 40,
      "start": 164.6297,
      "duration": 0.7374,
      "velocity": 62,
      "chip": "ym2612"
    },
    {
      "channel": 4,
      "note": 91,
      "start": 164.6371,
      "duration": 1.5156,
      "velocity": 90,
      "chip": "ym2612"
    },
    {
      "channel": 0,
      "note": 79,
      "start": 164.7101,
      "duration": 0.0629,
      "velocity": 99,
      "chip": "ym2612"
    },
    {
      "channel": 0,
      "note": 76,
      "start": 164.815,
      "duration": 0.0628,
      "velocity": 99,
      "chip": "ym2612"
    },
    {
      "channel": 1,
      "note": 67,
      "start": 164.8195,
      "duration": 0.1457,
      "velocity": 86,
      "chip": "ym2612"
    },
    {
      "channel": 0,
      "note": 83,
      "start": 164.9198,
      "duration": 0.0451,
      "velocity": 99,
      "chip": "ym2612"
    },
    {
      "channel": 0,
      "note": 76,
      "start": 165.007,
      "duration": 0.0628,
      "velocity": 99,
      "chip": "ym2612"
    },
    {
      "channel": 1,
      "note": 64,
      "start": 165.0115,
      "duration": 0.1687,
      "velocity": 86,
      "chip": "ym2612"
    },
    {
      "channel": 2,
      "note": 67,
      "start": 165.0193,
      "duration": 0.0508,
      "velocity": 127,
      "chip": "ym2612"
    },
    {
      "channel": 0,
      "note": 73,
      "start": 165.1131,
      "duration": 0.0668,
      "velocity": 99,
      "chip": "ym2612"
    },
    {
      "channel": 0,
      "note": 76,
      "start": 165.1991,
      "duration": 0.0626,
      "velocity": 99,
      "chip": "ym2612"
    },
    {
      "channel": 1,
      "note": 71,
      "start": 165.2037,
      "duration": 0.1631,
      "velocity": 86,
      "chip": "ym2612"
    },
    {
      "channel": 0,
      "note": 83,
      "start": 165.3037,
      "duration": 0.0628,
      "velocity": 99,
      "chip": "ym2612"
    },
    {
      "channel": 0,
      "note": 76,
      "start": 165.4085,
      "duration": 0.0452,
      "velocity": 99,
      "chip": "ym2612"
    },
    {
      "channel": 1,
      "note": 64,
      "start": 165.4131,
      "duration": 0.1457,
      "velocity": 86,
      "chip": "ym2612"
    },
    {
      "channel": 2,
      "note": 24,
      "start": 165.42,
      "duration": 0.034,
      "velocity": 112,
      "chip": "ym2612"
    },
    {
      "channel": 0,
      "note": 24,
      "start": 165.4972,
      "duration": 0.0613,
      "velocity": 112,
      "chip": "ym2612"
    },
    {
      "channel": 2,
      "note": 79,
      "start": 165.505,
      "duration": 0.0539,
      "velocity": 99,
      "chip": "ym2612"
    },
    {
      "channel": 0,
      "note": 76,
      "start": 165.6028,
      "duration": 0.0602,
      "velocity": 99,
      "chip": "ym2612"
    },
    {
      "channel": 1,
      "note": 62,
      "start": 165.6074,
      "duration": 0.1433,
      "velocity": 86,
      "chip": "ym2612"
    },
    {
      "channel": 0,
      "note": 83,
      "start": 165.7052,
      "duration": 0.0452,
      "velocity": 99,
      "chip": "ym2612"
    },
    {
      "channel": 0,
      "note": 76,
      "start": 165.7924,
      "duration": 0.0628,
      "velocity": 99,
      "chip": "ym2612"
    },
    {
      "channel": 1,
      "note": 64,
      "start": 165.797,
      "duration": 0.163,
      "velocity": 86,
      "chip": "ym2612"
    },
    {
      "channel": 2,
      "note": 67,
      "start": 165.8048,
      "duration": 0.0508,
      "velocity": 127,
      "chip": "ym2612"
    },
    {
      "channel": 0,
      "note": 73,
      "start": 165.8972,
      "duration": 0.0626,
      "velocity": 99,
      "chip": "ym2612"
    },
    {
      "channel": 0,
      "note": 76,
      "start": 165.9844,
      "duration": 0.0628,
      "velocity": 99,
      "chip": "ym2612"
    },
    {
      "channel": 1,
      "note": 71,
      "start": 165.989,
      "duration": 0.1633,
      "velocity": 86,
      "chip": "ym2612"
    },
    {
      "channel": 0,
      "note": 83,
      "start": 166.0892,
      "duration": 0.0628,
      "velocity": 99,
      "chip": "ym2612"
    },
    {
      "channel": 0,
      "note": 76,
      "start": 166.1957,
      "duration": 0.0609,
      "velocity": 99,
      "chip": "ym2612"
    },
    {
      "channel": 1,
      "note": 64,
      "start": 166.2003,
      "duration": 0.1613,
      "velocity": 86,
      "chip": "ym2612"
    },
    {
      "channel": 2,
      "note": 24,
      "start": 166.2072,
      "duration": 0.0498,
      "velocity": 112,
      "chip": "ym2612"
    },
    {
      "channel": 3,
      "note": 95,
      "start": 166.2143,
      "duration": 0.7413,
      "velocity": 90,
      "chip": "ym2612"
    },
    {
      "channel": 4,
      "note": 52,
      "start": 166.2216,
      "duration": 0.7343,
      "velocity": 62,
      "chip": "ym2612"
    },
    {
      "channel": 0,
      "note": 79,
      "start": 166.2986,
      "duration": 0.0628,
      "velocity": 99,
      "chip": "ym2612"
    },
    {
      "channel": 0,
      "note": 76,
      "start": 166.4034,
      "duration": 0.0628,
      "velocity": 99,
      "chip": "ym2612"
    },
    {
      "channel": 1,
      "note": 67,
      "start": 166.408,
      "duration": 0.1456,
      "velocity": 86,
      "chip": "ym2612"
    },
    {
      "channel": 0,
      "note": 83,
      "start": 166.5082,
      "duration": 0.0452,
      "velocity": 99,
      "chip": "ym2612"
    },
    {
      "channel": 0,
      "note": 76,
      "start": 166.5954,
      "duration": 0.0628,
      "velocity": 99,
      "chip": "ym2612"
    },
    {
      "channel": 1,
      "note": 64,
      "start": 166.6,
      "duration": 0.1658,
      "velocity": 86,
      "chip": "ym2612"
    },
    {
      "channel": 2,
      "note": 67,
      "start": 166.6077,
      "duration": 0.0508,
      "velocity": 127,
      "chip": "ym2612"
    },
    {
      "channel": 0,
      "note": 73,
      "start": 166.7017,
      "duration": 0.0639,
      "velocity": 99,
      "chip": "ym2612"
    },
    {
      "channel": 0,
      "note": 76,
      "start": 166.7875,
      "duration": 0.0627,
      "velocity": 99,
      "chip": "ym2612"
    },
    {
      "channel": 1,
      "note": 67,
      "start": 166.7951,
      "duration": 0.0552,
      "velocity": 127,
      "chip": "ym2612"
    },
    {
      "channel": 2,
      "note": 71,
      "start": 166.8021,
      "duration": 0.1533,
      "velocity": 86,
      "chip": "ym2612"
    },
    {
      "channel": 0,
      "note": 67,
      "start": 166.8945,
      "duration": 0.0604,
      "velocity": 127,
      "chip": "ym2612"
    },
    {
      "channel": 1,
      "note": 83,
      "start": 166.9021,
      "duration": 0.0531,
      "velocity": 99,
      "chip": "ym2612"
    },
    {
      "channel": 0,
      "note": 76,
      "start": 166.9993,
      "duration": 0.0428,
      "velocity": 99,
      "chip": "ym2612"
    },
    {
      "channel": 1,
      "note": 64,
      "start": 167.0061,
      "duration": 0.1411,
      "velocity": 86,
      "chip": "ym2612"
    },
    {
      "channel": 2,
      "note": 88,
      "start": 167.013,
      "duration": 0.7277,
      "velocity": 90,
      "chip": "ym2612"
    },
    {
      "channel": 3,
      "note": 24,
      "start": 167.0201,
      "duration": 0.0225,
      "velocity": 112,
      "chip": "ym2612"
    },
    {
      "channel": 0,
      "note": 24,
      "start": 167.0856,
      "duration": 0.0612,
      "velocity": 112,
      "chip": "ym2612"
    },
    {
      "channel": 3,
      "note": 79,
      "start": 167.0936,
      "duration": 0.0539,
      "velocity": 99,
      "chip": "ym2612"
    },
    {
      "channel": 0,
      "note": 76,
      "start": 167.1913,
      "duration": 0.0602,
      "velocity": 99,
      "chip": "ym2612"
    },
    {
      "channel": 1,
      "note": 62,
      "start": 167.1959,
      "duration": 0.1432,
      "velocity": 86,
      "chip": "ym2612"
    },
    {
      "channel": 0,
      "note": 83,
      "start": 167.2935,
      "duration": 0.0454,
      "velocity": 99,
      "chip": "ym2612"
    },
    {
      "channel": 0,
      "note": 76,
      "start": 167.3809,
      "duration": 0.0627,
      "velocity": 99,
      "chip": "ym2612"
    },
    {
      "channel": 1,
      "note": 64,
      "start": 167.3854,
      "duration": 0.1631,
      "velocity": 86,
      "chip": "ym2612"
    },
    {
      "channel": 3,
      "note": 67,
      "start": 167.3934,
      "duration": 0.0506,
      "velocity": 127,
      "chip": "ym2612"
    },
    {
      "channel": 0,
      "note": 73,
      "start": 167.4857,
      "duration": 0.0626,
      "velocity": 99,
      "chip": "ym2612"
    },
    {
      "channel": 0,
      "note": 76,
      "start": 167.5729,
      "duration": 0.0628,
      "velocity": 99,
      "chip": "ym2612"
    },
    {
      "channel": 1,
      "note": 67,
      "start": 167.5805,
      "duration": 0.0554,
      "velocity": 127,
      "chip": "ym2612"
    },
    {
      "channel": 3,
      "note": 71,
      "start": 167.5876,
      "duration": 0.1534,
      "velocity": 86,
      "chip": "ym2612"
    },
    {
      "channel": 0,
      "note": 67,
      "start": 167.68,
      "duration": 0.0602,
      "velocity": 127,
      "chip": "ym2612"
    },
    {
      "channel": 1,
      "note": 83,
      "start": 167.6877,
      "duration": 0.0529,
      "velocity": 99,
      "chip": "ym2612"
    },
    {
      "channel": 0,
      "note": 76,
      "start": 167.7853,
      "duration": 0.0597,
      "velocity": 99,
      "chip": "ym2612"
    },
    {
      "channel": 1,
      "note": 64,
      "start": 167.7923,
      "duration": 0.1578,
      "velocity": 86,
      "chip": "ym2612"
    },
    {
      "channel": 2,
      "note": 24,
      "start": 167.7992,
      "duration": 0.0463,
      "velocity": 112,
      "chip": "ym2612"
    },
    {
      "channel": 3,
      "note": 86,
      "start": 167.8063,
      "duration": 0.7376,
      "velocity": 90,
      "chip": "ym2612"
    },
    {
      "channel": 4,
      "note": 40,
      "start": 167.8114,
      "duration": 0.7328,
      "velocity": 62,
      "chip": "ym2612"
    },
    {
      "channel": 0,
      "note": 79,
      "start": 167.8871,
      "duration": 0.0628,
      "velocity": 99,
      "chip": "ym2612"
    },
    {
      "channel": 0,
      "note": 76,
      "start": 167.9919,
      "duration": 0.0626,
      "velocity": 99,
      "chip": "ym2612"
    },
    {
      "channel": 1,
      "note": 67,
      "start": 167.9965,
      "duration": 0.1456,
      "velocity": 86,
      "chip": "ym2612"
    },
    {
      "channel": 0,
      "note": 83,
      "start": 168.0966,
      "duration": 0.0452,
      "velocity": 99,
      "chip": "ym2612"
    },
    {
      "channel": 0,
      "note": 76,
      "start": 168.1839,
      "duration": 0.0628,
      "velocity": 99,
      "chip": "ym2612"
    },
    {
      "channel": 1,
      "note": 64,
      "start": 168.1884,
      "duration": 0.1631,
      "velocity": 86,
      "chip": "ym2612"
    },
    {
      "channel": 2,
      "note": 67,
      "start": 168.1962,
      "duration": 0.0508,
      "velocity": 127,
      "chip": "ym2612"
    },
    {
      "channel": 0,
      "note": 73,
      "start": 168.2886,
      "duration": 0.0626,
      "velocity": 99,
      "chip": "ym2612"
    },
    {
      "channel": 0,
      "note": 76,
      "start": 168.3758,
      "duration": 0.0628,
      "velocity": 99,
      "chip": "ym2612"
    },
    {
      "channel": 1,
      "note": 71,
      "start": 168.3804,
      "duration": 0.1632,
      "velocity": 86,
      "chip": "ym2612"
    },
    {
      "channel": 0,
      "note": 83,
      "start": 168.4806,
      "duration": 0.0628,
      "velocity": 99,
      "chip": "ym2612"
    },
    {
      "channel": 0,
      "note": 76,
      "start": 168.5854,
      "duration": 0.0451,
      "velocity": 99,
      "chip": "ym2612"
    },
    {
      "channel": 1,
      "note": 64,
      "start": 168.59,
      "duration": 0.147,
      "velocity": 86,
      "chip": "ym2612"
    },
    {
      "channel": 2,
      "note": 83,
      "start": 168.5969,
      "duration": 0.7324,
      "velocity": 90,
      "chip": "ym2612"
    },
    {
      "channel": 3,
      "note": 24,
      "start": 168.604,
      "duration": 0.027,
      "velocity": 112,
      "chip": "ym2612"
    },
    {
      "channel": 0,
      "note": 24,
      "start": 168.6741,
      "duration": 0.0627,
      "velocity": 112,
      "chip": "ym2612"
    },
    {
      "channel": 3,
      "note": 79,
      "start": 168.682,
      "duration": 0.0554,
      "velocity": 99,
      "chip": "ym2612"
    },
    {
      "channel": 0,
      "note": 76,
      "start": 168.7797,
      "duration": 0.0602,
      "velocity": 99,
      "chip": "ym2612"
    },
    {
      "channel": 1,
      "note": 62,
      "start": 168.7843,
      "duration": 0.1432,
      "velocity": 86,
      "chip": "ym2612"
    },
    {
      "channel": 0,
      "note": 83,
      "start": 168.8822,
      "duration": 0.0451,
      "velocity": 99,
      "chip": "ym2612"
    },
    {
      "channel": 0,
      "note": 76,
      "start": 168.9694,
      "duration": 0.0626,
      "velocity": 99,
      "chip": "ym2612"
    },
    {
      "channel": 1,
      "note": 64,
      "start": 168.974,
      "duration": 0.163,
      "velocity": 86,
      "chip": "ym2612"
    },
    {
      "channel": 3,
      "note": 67,
      "start": 168.982,
      "duration": 0.0506,
      "velocity": 127,
      "chip": "ym2612"
    },
    {
      "channel": 0,
      "note": 73,
      "start": 169.074,
      "duration": 0.0628,
      "velocity": 99,
      "chip": "ym2612"
    },
    {
      "channel": 0,
      "note": 76,
      "start": 169.1614,
      "duration": 0.0626,
      "velocity": 99,
      "chip": "ym2612"
    },
    {
      "channel": 1,
      "note": 71,
      "start": 169.1659,
      "duration": 0.1631,
      "velocity": 86,
      "chip": "ym2612"
    },
    {
      "channel": 0,
      "note": 83,
      "start": 169.2662,
      "duration": 0.0626,
      "velocity": 99,
      "chip": "ym2612"
    },
    {
      "channel": 0,
      "note": 76,
      "start": 169.3707,
      "duration": 0.0454,
      "velocity": 99,
      "chip": "ym2612"
    },
    {
      "channel": 1,
      "note": 64,
      "start": 169.3753,
      "duration": 0.1456,
      "velocity": 86,
      "chip": "ym2612"
    },
    {
      "channel": 2,
      "note": 24,
      "start": 169.3823,
      "duration": 0.0342,
      "velocity": 112,
      "chip": "ym2612"
    },
    {
      "channel": 3,
      "note": 81,
      "start": 169.3894,
      "duration": 1.511,
      "velocity": 90,
      "chip": "ym2612"
    },
    {
      "channel": 4,
      "note": 52,
      "start": 169.3945,
      "duration": 1.5061,
      "velocity": 62,
      "chip": "ym2612"
    },
    {
      "channel": 0,
      "note": 67,
      "start": 169.5645,
      "duration": 0.1484,
      "velocity": 86,
      "chip": "ym2612"
    },
    {
      "channel": 1,
      "note": 79,
      "start": 169.5721,
      "duration": 0.0536,
      "velocity": 99,
      "chip": "ym2612"
    },
    {
      "channel": 0,
      "note": 83,
      "start": 169.7573,
      "duration": 0.0636,
      "velocity": 99,
      "chip": "ym2612"
    },
    {
      "channel": 1,
      "note": 64,
      "start": 169.764,
      "duration": 0.1585,
      "velocity": 86,
      "chip": "ym2612"
    },
    {
      "channel": 2,
      "note": 67,
      "start": 169.7718,
      "duration": 0.0494,
      "velocity": 127,
      "chip": "ym2612"
    },
    {
      "channel": 0,
      "note": 71,
      "start": 169.9484,
      "duration": 0.1659,
      "velocity": 86,
      "chip": "ym2612"
    },
    {
      "channel": 1,
      "note": 73,
      "start": 169.956,
      "duration": 0.0536,
      "velocity": 99,
      "chip": "ym2612"
    },
    {
      "channel": 0,
      "note": 76,
      "start": 170.1587,
      "duration": 0.0429,
      "velocity": 99,
      "chip": "ym2612"
    },
    {
      "channel": 1,
      "note": 64,
      "start": 170.1654,
      "duration": 0.1411,
      "velocity": 86,
      "chip": "ym2612"
    },
    {
      "channel": 2,
      "note": 24,
      "start": 170.1724,
      "duration": 0.0296,
      "velocity": 112,
      "chip": "ym2612"
    },
    {
      "channel": 0,
      "note": 24,
      "start": 170.2451,
      "duration": 0.0611,
      "velocity": 112,
      "chip": "ym2612"
    },
    {
      "channel": 0,
      "note": 62,
      "start": 170.3498,
      "duration": 0.1486,
      "velocity": 86,
      "chip": "ym2612"
    },
    {
      "channel": 1,
      "note": 79,
      "start": 170.3574,
      "duration": 0.0538,
      "velocity": 99,
      "chip": "ym2612"
    },
    {
      "channel": 0,
      "note": 83,
      "start": 170.5428,
      "duration": 0.0602,
      "velocity": 99,
      "chip": "ym2612"
    },
    {
      "channel": 1,
      "note": 64,
      "start": 170.5495,
      "duration": 0.1585,
      "velocity": 86,
      "chip": "ym2612"
    },
    {
      "channel": 2,
      "note": 67,
      "start": 170.5573,
      "duration": 0.0461,
      "velocity": 127,
      "chip": "ym2612"
    },
    {
      "channel": 0,
      "note": 67,
      "start": 170.6473,
      "duration": 0.0604,
      "velocity": 127,
      "chip": "ym2612"
    },
    {
      "channel": 0,
      "note": 67,
      "start": 170.7323,
      "duration": 0.0628,
      "velocity": 127,
      "chip": "ym2612"
    },
    {
      "channel": 1,
      "note": 71,
      "start": 170.7369,
      "duration": 0.163,
      "velocity": 86,
      "chip": "ym2612"
    },
    {
      "channel": 2,
      "note": 73,
      "start": 170.7447,
      "duration": 0.0508,
      "velocity": 99,
      "chip": "ym2612"
    },
    {
      "channel": 0,
      "note": 67,
      "start": 170.8371,
      "duration": 0.0627,
      "velocity": 127,
      "chip": "ym2612"
    },
    {
      "channel": 0,
      "note": 57,
      "start": 170.9458,
      "duration": 0.0587,
      "velocity": 99,
      "chip": "ym2612"
    },
    {
      "channel": 1,
      "note": 69,
      "start": 170.9504,
      "duration": 0.1591,
      "velocity": 86,
      "chip": "ym2612"
    },
    {
      "channel": 2,
      "note": 24,
      "start": 170.9573,
      "duration": 0.0476,
      "velocity": 112,
      "chip": "ym2612"
    },
    {
      "channel": 3,
      "note": 45,
      "start": 170.9644,
      "duration": 0.7388,
      "velocity": 62,
      "chip": "ym2612"
    },
    {
      "channel": 4,
      "note": 45,
      "start": 170.9717,
      "duration": 1.5172,
      "velocity": 95,
      "chip": "ym2612"
    },
    {
      "channel": 0,
      "note": 64,
      "start": 171.1528,
      "duration": 0.1485,
      "velocity": 86,
      "chip": "ym2612"
    },
    {
      "channel": 1,
      "note": 57,
      "start": 171.1605,
      "duration": 0.0536,
      "velocity": 99,
      "chip": "ym2612"
    },
    {
      "channel": 0,
      "note": 52,
      "start": 171.3456,
      "duration": 0.0603,
      "velocity": 99,
      "chip": "ym2612"
    },
    {
      "channel": 1,
      "note": 72,
      "start": 171.3524,
      "duration": 0.1584,
      "velocity": 86,
      "chip": "ym2612"
    },
    {
      "channel": 2,
      "note": 67,
      "start": 171.3602,
      "duration": 0.0461,
      "velocity": 127,
      "chip": "ym2612"
    },
    {
      "channel": 0,
      "note": 67,
      "start": 171.5368,
      "duration": 0.1659,
      "velocity": 86,
      "chip": "ym2612"
    },
    {
      "channel": 1,
      "note": 52,
      "start": 171.5444,
      "duration": 0.0538,
      "velocity": 99,
      "chip": "ym2612"
    },
    {
      "channel": 0,
      "note": 60,
      "start": 171.7472,
      "duration": 0.0428,
      "velocity": 99,
      "chip": "ym2612"
    },
    {
      "channel": 1,
      "note": 69,
      "start": 171.754,
      "duration": 0.7344,
      "velocity": 86,
      "chip": "ym2612"
    },
    {
      "channel": 2,
      "note": 40,
      "start": 171.7609,
      "duration": 0.7277,
      "velocity": 62,
      "chip": "ym2612"
    },
    {
      "channel": 3,
      "note": 24,
      "start": 171.768,
      "duration": 0.0225,
      "velocity": 112,
      "chip": "ym2612"
    },
    {
      "channel": 0,
      "note": 24,
      "start": 171.8335,
      "duration": 0.0613,
      "velocity": 112,
      "chip": "ym2612"
    },
    {
      "channel": 0,
      "note": 60,
      "start": 171.9391,
      "duration": 0.0603,
      "velocity": 99,
      "chip": "ym2612"
    },
    {
      "channel": 0,
      "note": 55,
      "start": 172.1288,
      "duration": 0.0626,
      "velocity": 99,
      "chip": "ym2612"
    },
    {
      "channel": 3,
      "note": 67,
      "start": 172.1367,
      "duration": 0.0552,
      "velocity": 127,
      "chip": "ym2612"
    },
    {
      "channel": 0,
      "note": 57,
      "start": 172.5303,
      "duration": 0.0452,
      "velocity": 99,
      "chip": "ym2612"
    },
    {
      "channel": 1,
      "note": 24,
      "start": 172.5371,
      "duration": 0.0386,
      "velocity": 112,
      "chip": "ym2612"
    },
    {
      "channel": 2,
      "note": 48,
      "start": 172.5418,
      "duration": 0.3308,
      "velocity": 62,
      "chip": "ym2612"
    },
    {
      "channel": 3,
      "note": 69,
      "start": 172.5489,
      "duration": 0.1319,
      "velocity": 86,
      "chip": "ym2612"
    },
    {
      "channel": 4,
      "note": 48,
      "start": 172.554,
      "duration": 0.7205,
      "velocity": 95,
      "chip": "ym2612"
    },
    {
      "channel": 0,
      "note": 64,
      "start": 172.7238,
      "duration": 0.1485,
      "velocity": 86,
      "chip": "ym2612"
    },
    {
      "channel": 1,
      "note": 57,
      "start": 172.7315,
      "duration": 0.0536,
      "velocity": 99,
      "chip": "ym2612"
    },
    {
      "channel": 0,
      "note": 52,
      "start": 172.9166,
      "duration": 0.0602,
      "velocity": 99,
      "chip": "ym2612"
    },
    {
      "channel": 1,
      "note": 72,
      "start": 172.9234,
      "duration": 0.1584,
      "velocity": 86,
      "chip": "ym2612"
    },
    {
      "channel": 2,
      "note": 48,
      "start": 172.9281,
      "duration": 0.346,
      "velocity": 62,
      "chip": "ym2612"
    },
    {
      "channel": 3,
      "note": 67,
      "start": 172.9361,
      "duration": 0.0413,
      "velocity": 127,
      "chip": "ym2612"
    },
    {
      "channel": 0,
      "note": 67,
      "start": 173.1086,
      "duration": 0.0604,
      "velocity": 127,
      "chip": "ym2612"
    },
    {
      "channel": 1,
      "note": 67,
      "start": 173.1132,
      "duration": 0.1607,
      "velocity": 86,
      "chip": "ym2612"
    },
    {
      "channel": 3,
      "note": 52,
      "start": 173.1211,
      "duration": 0.0484,
      "velocity": 99,
      "chip": "ym2612"
    },
    {
      "channel": 0,
      "note": 67,
      "start": 173.211,
      "duration": 0.0626,
      "velocity": 127,
      "chip": "ym2612"
    },
    {
      "channel": 0,
      "note": 60,
      "start": 173.3182,
      "duration": 0.0469,
      "velocity": 99,
      "chip": "ym2612"
    },
    {
      "channel": 1,
      "note": 69,
      "start": 173.3227,
      "duration": 0.7366,
      "velocity": 86,
      "chip": "ym2612"
    },
    {
      "channel": 2,
      "note": 45,
      "start": 173.3275,
      "duration": 0.1387,
      "velocity": 62,
      "chip": "ym2612"
    },
    {
      "channel": 3,
      "note": 43,
      "start": 173.3346,
      "duration": 0.7253,
      "velocity": 95,
      "chip": "ym2612"
    },
    {
      "channel": 4,
      "note": 24,
      "start": 173.3419,
      "duration": 0.0239,
      "velocity": 112,
      "chip": "ym2612"
    },
    {
      "channel": 0,
      "note": 24,
      "start": 173.4045,
      "duration": 0.0613,
      "velocity": 112,
      "chip": "ym2612"
    },
    {
      "channel": 0,
      "note": 43,
      "start": 173.5096,
      "duration": 0.5495,
      "velocity": 62,
      "chip": "ym2612"
    },
    {
      "channel": 2,
      "note": 60,
      "start": 173.5175,
      "duration": 0.0533,
      "velocity": 99,
      "chip": "ym2612"
    },
    {
      "channel": 2,
      "note": 55,
      "start": 173.7001,
      "duration": 0.0627,
      "velocity": 99,
      "chip": "ym2612"
    },
    {
      "channel": 4,
      "note": 67,
      "start": 173.7082,
      "duration": 0.0549,
      "velocity": 127,
      "chip": "ym2612"
    },
    {
      "channel": 2,
      "note": 67,
      "start": 173.8944,
      "duration": 0.0604,
      "velocity": 127,
      "chip": "ym2612"
    },
    {
      "channel": 2,
      "note": 67,
      "start": 173.9968,
      "duration": 0.0628,
      "velocity": 127,
      "chip": "ym2612"
    },
    {
      "channel": 0,
      "note": 57,
      "start": 174.1042,
      "duration": 0.0597,
      "velocity": 99,
      "chip": "ym2612"
    },
    {
      "channel": 1,
      "note": 45,
      "start": 174.111,
      "duration": 0.7513,
      "velocity": 62,
      "chip": "ym2612"
    },
    {
      "channel": 2,
      "note": 24,
      "start": 174.1179,
      "duration": 0.0464,
      "velocity": 112,
      "chip": "ym2612"
    },
    {
      "channel": 3,
      "note": 45,
      "start": 174.1228,
      "duration": 1.5253,
      "velocity": 95,
      "chip": "ym2612"
    },
    {
      "channel": 4,
      "note": 69,
      "start": 174.1301,
      "duration": 0.1393,
      "velocity": 86,
      "chip": "ym2612"
    },
    {
      "channel": 0,
      "note": 64,
      "start": 174.3124,
      "duration": 0.1483,
      "velocity": 86,
      "chip": "ym2612"
    },
    {
      "channel": 2,
      "note": 57,
      "start": 174.3202,
      "duration": 0.0577,
      "velocity": 99,
      "chip": "ym2612"
    },
    {
      "channel": 0,
      "note": 52,
      "start": 174.5051,
      "duration": 0.0604,
      "velocity": 99,
      "chip": "ym2612"
    },
    {
      "channel": 2,
      "note": 72,
      "start": 174.512,
      "duration": 0.1585,
      "velocity": 86,
      "chip": "ym2612"
    },
    {
      "channel": 4,
      "note": 67,
      "start": 174.5201,
      "duration": 0.0461,
      "velocity": 127,
      "chip": "ym2612"
    },
    {
      "channel": 0,
      "note": 67,
      "start": 174.6962,
      "duration": 0.1658,
      "velocity": 86,
      "chip": "ym2612"
    },
    {
      "channel": 2,
      "note": 52,
      "start": 174.704,
      "duration": 0.0538,
      "velocity": 99,
      "chip": "ym2612"
    },
    {
      "channel": 0,
      "note": 60,
      "start": 174.9066,
      "duration": 0.0428,
      "velocity": 99,
      "chip": "ym2612"
    },
    {
      "channel": 1,
      "note": 69,
      "start": 174.9134,
      "duration": 0.7344,
      "velocity": 86,
      "chip": "ym2612"
    },
    {
      "channel": 2,
      "note": 24,
      "start": 174.9203,
      "duration": 0.0295,
      "velocity": 112,
      "chip": "ym2612"
    },
    {
      "channel": 4,
      "note": 40,
      "start": 174.9276,
      "duration": 0.7207,
      "velocity": 62,
      "chip": "ym2612"
    },
    {
      "channel": 0,
      "note": 24,
      "start": 174.9931,
      "duration": 0.0611,
      "velocity": 112,
      "chip": "ym2612"
    },
    {
      "channel": 0,
      "note": 60,
      "start": 175.0985,
      "duration": 0.0603,
      "velocity": 99,
      "chip": "ym2612"
    },
    {
      "channel": 0,
      "note": 55,
      "start": 175.2882,
      "duration": 0.0628,
      "velocity": 99,
      "chip": "ym2612"
    },
    {
      "channel": 2,
      "note": 67,
      "start": 175.2959,
      "duration": 0.0554,
      "velocity": 127,
      "chip": "ym2612"
    },
    {
      "channel": 0,
      "note": 57,
      "start": 175.6897,
      "duration": 0.0627,
      "velocity": 99,
      "chip": "ym2612"
    },
    {
      "channel": 1,
      "note": 24,
      "start": 175.6965,
      "duration": 0.056,
      "velocity": 112,
      "chip": "ym2612"
    },
    {
      "channel": 2,
      "note": 48,
      "start": 175.7034,
      "duration": 0.346,
      "velocity": 62,
      "chip": "ym2612"
    },
    {
      "channel": 3,
      "note": 69,
      "start": 175.7107,
      "duration": 0.147,
      "velocity": 86,
      "chip": "ym2612"
    },
    {
      "channel": 4,
      "note": 48,
      "start": 175.718,
      "duration": 0.7333,
      "velocity": 95,
      "chip": "ym2612"
    },
    {
      "channel": 0,
      "note": 64,
      "start": 175.9007,
      "duration": 0.1485,
      "velocity": 86,
      "chip": "ym2612"
    },
    {
      "channel": 1,
      "note": 57,
      "start": 175.9083,
      "duration": 0.0556,
      "velocity": 99,
      "chip": "ym2612"
    },
    {
      "channel": 0,
      "note": 52,
      "start": 176.0935,
      "duration": 0.0604,
      "velocity": 99,
      "chip": "ym2612"
    },
    {
      "channel": 1,
      "note": 72,
      "start": 176.1003,
      "duration": 0.1584,
      "velocity": 86,
      "chip": "ym2612"
    },
    {
      "channel": 2,
      "note": 48,
      "start": 176.105,
      "duration": 0.3461,
      "velocity": 62,
      "chip": "ym2612"
    },
    {
      "channel": 3,
      "note": 67,
      "start": 176.1129,
      "duration": 0.0415,
      "velocity": 127,
      "chip": "ym2612"
    },
    {
      "channel": 0,
      "note": 67,
      "start": 176.2846,
      "duration": 0.166,
      "velocity": 86,
      "chip": "ym2612"
    },
    {
      "channel": 1,
      "note": 52,
      "start": 176.2922,
      "duration": 0.0538,
      "velocity": 99,
      "chip": "ym2612"
    },
    {
      "channel": 0,
      "note": 60,
      "start": 176.495,
      "duration": 0.0603,
      "velocity": 99,
      "chip": "ym2612"
    },
    {
      "channel": 1,
      "note": 64,
      "start": 176.5018,
      "duration": 0.5598,
      "velocity": 86,
      "chip": "ym2612"
    },
    {
      "channel": 2,
      "note": 45,
      "start": 176.5065,
      "duration": 0.1539,
      "velocity": 62,
      "chip": "ym2612"
    },
    {
      "channel": 3,
      "note": 43,
      "start": 176.5136,
      "duration": 0.7407,
      "velocity": 95,
      "chip": "ym2612"
    },
    {
      "channel": 4,
      "note": 24,
      "start": 176.521,
      "duration": 0.035,
      "velocity": 112,
      "chip": "ym2612"
    },
    {
      "channel": 0,
      "note": 24,
      "start": 176.5988,
      "duration": 0.0612,
      "velocity": 112,
      "chip": "ym2612"
    },
    {
      "channel": 0,
      "note": 43,
      "start": 176.7036,
      "duration": 0.55,
      "velocity": 62,
      "chip": "ym2612"
    },
    {
      "channel": 2,
      "note": 60,
      "start": 176.7114,
      "duration": 0.0538,
      "velocity": 99,
      "chip": "ym2612"
    },
    {
      "channel": 2,
      "note": 55,
      "start": 176.8944,
      "duration": 0.0628,
      "velocity": 99,
      "chip": "ym2612"
    },
    {
      "channel": 4,
      "note": 67,
      "start": 176.9025,
      "duration": 0.055,
      "velocity": 127,
      "chip": "ym2612"
    },
    {
      "channel": 2,
      "note": 67,
      "start": 177.0015,
      "duration": 0.0603,
      "velocity": 127,
      "chip": "ym2612"
    },
    {
      "channel": 1,
      "note": 67,
      "start": 177.0887,
      "duration": 0.0602,
      "velocity": 127,
      "chip": "ym2612"
    },
    {
      "channel": 2,
      "note": 67,
      "start": 177.0956,
      "duration": 0.1585,
      "velocity": 86,
      "chip": "ym2612"
    },
    {
      "channel": 1,
      "note": 67,
      "start": 177.191,
      "duration": 0.0628,
      "velocity": 127,
      "chip": "ym2612"
    },
    {
      "channel": 0,
      "note": 71,
      "start": 177.2981,
      "duration": 0.1649,
      "velocity": 86,
      "chip": "ym2612"
    },
    {
      "channel": 1,
      "note": 59,
      "start": 177.3057,
      "duration": 0.0526,
      "velocity": 99,
      "chip": "ym2612"
    },
    {
      "channel": 2,
      "note": 47,
      "start": 177.3127,
      "duration": 0.7442,
      "velocity": 62,
      "chip": "ym2612"
    },
    {
      "channel": 3,
      "note": 24,
      "start": 177.3198,
      "duration": 0.0389,
      "velocity": 112,
      "chip": "ym2612"
    },
    {
      "channel": 4,
      "note": 47,
      "start": 177.3271,
      "duration": 1.5157,
      "velocity": 95,
      "chip": "ym2612"
    },
    {
      "channel": 0,
      "note": 59,
      "start": 177.5073,
      "duration": 0.0604,
      "velocity": 99,
      "chip": "ym2612"
    },
    {
      "channel": 1,
      "note": 66,
      "start": 177.5141,
      "duration": 0.141,
      "velocity": 86,
      "chip": "ym2612"
    },
    {
      "channel": 0,
      "note": 74,
      "start": 177.6985,
      "duration": 0.166,
      "velocity": 86,
      "chip": "ym2612"
    },
    {
      "channel": 1,
      "note": 54,
      "start": 177.7061,
      "duration": 0.0538,
      "velocity": 99,
      "chip": "ym2612"
    },
    {
      "channel": 3,
      "note": 67,
      "start": 177.7141,
      "duration": 0.0462,
      "velocity": 127,
      "chip": "ym2612"
    },
    {
      "channel": 0,
      "note": 54,
      "start": 177.8915,
      "duration": 0.0602,
      "velocity": 99,
      "chip": "ym2612"
    },
    {
      "channel": 1,
      "note": 69,
      "start": 177.8982,
      "duration": 0.1585,
      "velocity": 86,
      "chip": "ym2612"
    },
    {
      "channel": 0,
      "note": 71,
      "start": 178.1,
      "duration": 0.742,
      "velocity": 86,
      "chip": "ym2612"
    },
    {
      "channel": 1,
      "note": 62,
      "start": 178.1077,
      "duration": 0.0364,
      "velocity": 99,
      "chip": "ym2612"
    },
    {
      "channel": 2,
      "note": 24,
      "start": 178.1146,
      "duration": 0.0297,
      "velocity": 112,
      "chip": "ym2612"
    },
    {
      "channel": 3,
      "note": 42,
      "start": 178.1217,
      "duration": 0.7208,
      "velocity": 62,
      "chip": "ym2612"
    },
    {
      "channel": 1,
      "note": 24,
      "start": 178.1876,
      "duration": 0.0611,
      "velocity": 112,
      "chip": "ym2612"
    },
    {
      "channel": 1,
      "note": 62,
      "start": 178.2935,
      "duration": 0.0643,
      "velocity": 99,
      "chip": "ym2612"
    },
    {
      "channel": 1,
      "note": 57,
      "start": 178.4826,
      "duration": 0.0629,
      "velocity": 99,
      "chip": "ym2612"
    },
    {
      "channel": 2,
      "note": 67,
      "start": 178.4904,
      "duration": 0.0552,
      "velocity": 127,
      "chip": "ym2612"
    },
    {
      "channel": 0,
      "note": 59,
      "start": 178.8863,
      "duration": 0.0603,
      "velocity": 99,
      "chip": "ym2612"
    },
    {
      "channel": 1,
      "note": 24,
      "start": 178.8933,
      "duration": 0.0535,
      "velocity": 112,
      "chip": "ym2612"
    },
    {
      "channel": 2,
      "note": 50,
      "start": 178.9003,
      "duration": 0.3434,
      "velocity": 62,
      "chip": "ym2612"
    },
    {
      "channel": 3,
      "note": 71,
      "start": 178.9073,
      "duration": 0.1446,
      "velocity": 86,
      "chip": "ym2612"
    },
    {
      "channel": 4,
      "note": 50,
      "start": 178.9124,
      "duration": 0.7333,
      "velocity": 95,
      "chip": "ym2612"
    },
    {
      "channel": 0,
      "note": 66,
      "start": 179.0949,
      "duration": 0.1485,
      "velocity": 86,
      "chip": "ym2612"
    },
    {
      "channel": 1,
      "note": 59,
      "start": 179.1026,
      "duration": 0.0538,
      "velocity": 99,
      "chip": "ym2612"
    },
    {
      "channel": 0,
      "note": 54,
      "start": 179.2879,
      "duration": 0.0602,
      "velocity": 99,
      "chip": "ym2612"
    },
    {
      "channel": 1,
      "note": 74,
      "start": 179.2947,
      "duration": 0.1585,
      "velocity": 86,
      "chip": "ym2612"
    },
    {
      "channel": 2,
      "note": 50,
      "start": 179.2995,
      "duration": 0.346,
      "velocity": 62,
      "chip": "ym2612"
    },
    {
      "channel": 3,
      "note": 67,
      "start": 179.3074,
      "duration": 0.0413,
      "velocity": 127,
      "chip": "ym2612"
    },
    {
      "channel": 0,
      "note": 67,
      "start": 179.4799,
      "duration": 0.0602,
      "velocity": 127,
      "chip": "ym2612"
    },
    {
      "channel": 1,
      "note": 69,
      "start": 179.4844,
      "duration": 0.1607,
      "velocity": 86,
      "chip": "ym2612"
    },
    {
      "channel": 3,
      "note": 54,
      "start": 179.4924,
      "duration": 0.0482,
      "velocity": 99,
      "chip": "ym2612"
    },
    {
      "channel": 0,
      "note": 67,
      "start": 179.5822,
      "duration": 0.0628,
      "velocity": 127,
      "chip": "ym2612"
    },
    {
      "channel": 0,
      "note": 62,
      "start": 179.6893,
      "duration": 0.0427,
      "velocity": 99,
      "chip": "ym2612"
    },
    {
      "channel": 1,
      "note": 71,
      "start": 179.694,
      "duration": 0.7366,
      "velocity": 86,
      "chip": "ym2612"
    },
    {
      "channel": 2,
      "note": 47,
      "start": 179.6988,
      "duration": 0.1385,
      "velocity": 62,
      "chip": "ym2612"
    },
    {
      "channel": 3,
      "note": 45,
      "start": 179.7059,
      "duration": 0.7253,
      "velocity": 95,
      "chip": "ym2612"
    },
    {
      "channel": 4,
      "note": 24,
      "start": 179.7132,
      "duration": 0.0196,
      "velocity": 112,
      "chip": "ym2612"
    },
    {
      "channel": 0,
      "note": 24,
      "start": 179.7762,
      "duration": 0.0607,
      "velocity": 112,
      "chip": "ym2612"
    },
    {
      "channel": 0,
      "note": 45,
      "start": 179.8825,
      "duration": 0.548,
      "velocity": 62,
      "chip": "ym2612"
    },
    {
      "channel": 2,
      "note": 62,
      "start": 179.8902,
      "duration": 0.0518,
      "velocity": 99,
      "chip": "ym2612"
    },
    {
      "channel": 2,
      "note": 57,
      "start": 180.0714,
      "duration": 0.0626,
      "velocity": 99,
      "chip": "ym2612"
    },
    {
      "channel": 4,
      "note": 67,
      "start": 180.0795,
      "duration": 0.0548,
      "velocity": 127,
      "chip": "ym2612"
    },
    {
      "channel": 2,
      "note": 67,
      "start": 180.2657,
      "duration": 0.0602,
      "velocity": 127,
      "chip": "ym2612"
    },
    {
      "channel": 2,
      "note": 67,
      "start": 180.368,
      "duration": 0.0629,
      "velocity": 127,
      "chip": "ym2612"
    },
    {
      "channel": 0,
      "note": 59,
      "start": 180.4753,
      "duration": 0.0599,
      "velocity": 99,
      "chip": "ym2612"
    },
    {
      "channel": 1,
      "note": 47,
      "start": 180.4821,
      "duration": 0.7515,
      "velocity": 62,
      "chip": "ym2612"
    },
    {
      "channel": 2,
      "note": 24,
      "start": 180.489,
      "duration": 0.0466,
      "velocity": 112,
      "chip": "ym2612"
    },
    {
      "channel": 3,
      "note": 47,
      "start": 180.4939,
      "duration": 1.5254,
      "velocity": 95,
      "chip": "ym2612"
    },
    {
      "channel": 4,
      "note": 71,
      "start": 180.5012,
      "duration": 0.1393,
      "velocity": 86,
      "chip": "ym2612"
    },
    {
      "channel": 0,
      "note": 66,
      "start": 180.6834,
      "duration": 0.1485,
      "velocity": 86,
      "chip": "ym2612"
    },
    {
      "channel": 2,
      "note": 59,
      "start": 180.6912,
      "duration": 0.0538,
      "velocity": 99,
      "chip": "ym2612"
    },
    {
      "channel": 0,
      "note": 54,
      "start": 180.8763,
      "duration": 0.0602,
      "velocity": 99,
      "chip": "ym2612"
    },
    {
      "channel": 2,
      "note": 74,
      "start": 180.8833,
      "duration": 0.1585,
      "velocity": 86,
      "chip": "ym2612"
    },
    {
      "channel": 4,
      "note": 67,
      "start": 180.8914,
      "duration": 0.0459,
      "velocity": 127,
      "chip": "ym2612"
    },
    {
      "channel": 0,
      "note": 69,
      "start": 181.0675,
      "duration": 0.1659,
      "velocity": 86,
      "chip": "ym2612"
    },
    {
      "channel": 2,
      "note": 54,
      "start": 181.0753,
      "duration": 0.0536,
      "velocity": 99,
      "chip": "ym2612"
    },
    {
      "channel": 0,
      "note": 62,
      "start": 181.2777,
      "duration": 0.0436,
      "velocity": 99,
      "chip": "ym2612"
    },
    {
      "channel": 1,
      "note": 71,
      "start": 181.2845,
      "duration": 0.7346,
      "velocity": 86,
      "chip": "ym2612"
    },
    {
      "channel": 2,
      "note": 24,
      "start": 181.2914,
      "duration": 0.0302,
      "velocity": 112,
      "chip": "ym2612"
    },
    {
      "channel": 4,
      "note": 42,
      "start": 181.2988,
      "duration": 0.7209,
      "velocity": 62,
      "chip": "ym2612"
    },
    {
      "channel": 0,
      "note": 24,
      "start": 181.3642,
      "duration": 0.0611,
      "velocity": 112,
      "chip": "ym2612"
    },
    {
      "channel": 0,
      "note": 62,
      "start": 181.4697,
      "duration": 0.0604,
      "velocity": 99,
      "chip": "ym2612"
    },
    {
      "channel": 0,
      "note": 57,
      "start": 181.6595,
      "duration": 0.0626,
      "velocity": 99,
      "chip": "ym2612"
    },
    {
      "channel": 2,
      "note": 67,
      "start": 181.6673,
      "duration": 0.0552,
      "velocity": 127,
      "chip": "ym2612"
    },
    {
      "channel": 0,
      "note": 59,
      "start": 182.0608,
      "duration": 0.0628,
      "velocity": 99,
      "chip": "ym2612"
    },
    {
      "channel": 1,
      "note": 24,
      "start": 182.0676,
      "duration": 0.0562,
      "velocity": 112,
      "chip": "ym2612"
    },
    {
      "channel": 2,
      "note": 50,
      "start": 182.0746,
      "duration": 0.3462,
      "velocity": 62,
      "chip": "ym2612"
    },
    {
      "channel": 3,
      "note": 71,
      "start": 182.0817,
      "duration": 0.1471,
      "velocity": 86,
      "chip": "ym2612"
    },
    {
      "channel": 4,
      "note": 50,
      "start": 182.089,
      "duration": 0.7335,
      "velocity": 95,
      "chip": "ym2612"
    },
    {
      "channel": 0,
      "note": 66,
      "start": 182.272,
      "duration": 0.1484,
      "velocity": 86,
      "chip": "ym2612"
    },
    {
      "channel": 1,
      "note": 59,
      "start": 182.2795,
      "duration": 0.0537,
      "velocity": 99,
      "chip": "ym2612"
    },
    {
      "channel": 0,
      "note": 54,
      "start": 182.4648,
      "duration": 0.0602,
      "velocity": 99,
      "chip": "ym2612"
    },
    {
      "channel": 1,
      "note": 74,
      "start": 182.4715,
      "duration": 0.1585,
      "velocity": 86,
      "chip": "ym2612"
    },
    {
      "channel": 2,
      "note": 50,
      "start": 182.4763,
      "duration": 0.3459,
      "velocity": 62,
      "chip": "ym2612"
    },
    {
      "channel": 3,
      "note": 67,
      "start": 182.4842,
      "duration": 0.0413,
      "velocity": 127,
      "chip": "ym2612"
    },
    {
      "channel": 0,
      "note": 69,
      "start": 182.6559,
      "duration": 0.1659,
      "velocity": 86,
      "chip": "ym2612"
    },
    {
      "channel": 1,
      "note": 54,
      "start": 182.6635,
      "duration": 0.0536,
      "velocity": 99,
      "chip": "ym2612"
    },
    {
      "channel": 0,
      "note": 62,
      "start": 182.8661,
      "duration": 0.0604,
      "velocity": 99,
      "chip": "ym2612"
    },
    {
      "channel": 1,
      "note": 71,
      "start": 182.8729,
      "duration": 0.1585,
      "velocity": 86,
      "chip": "ym2612"
    },
    {
      "channel": 2,
      "note": 47,
      "start": 182.8776,
      "duration": 0.154,
      "velocity": 62,
      "chip": "ym2612"
    },
    {
      "channel": 3,
      "note": 45,
      "start": 182.8848,
      "duration": 0.7406,
      "velocity": 95,
      "chip": "ym2612"
    },
    {
      "channel": 4,
      "note": 24,
      "start": 182.8921,
      "duration": 0.0352,
      "velocity": 112,
      "chip": "ym2612"
    },
    {
      "channel": 0,
      "note": 24,
      "start": 182.9701,
      "duration": 0.0611,
      "velocity": 112,
      "chip": "ym2612"
    },
    {
      "channel": 0,
      "note": 45,
      "start": 183.0749,
      "duration": 0.5498,
      "velocity": 62,
      "chip": "ym2612"
    },
    {
      "channel": 1,
      "note": 68,
      "start": 183.0795,
      "duration": 0.144,
      "velocity": 86,
      "chip": "ym2612"
    },
    {
      "channel": 2,
      "note": 62,
      "start": 183.0872,
      "duration": 0.0491,
      "velocity": 99,
      "chip": "ym2612"
    },
    {
      "channel": 1,
      "note": 57,
      "start": 183.2678,
      "duration": 0.0603,
      "velocity": 99,
      "chip": "ym2612"
    },
    {
      "channel": 2,
      "note": 66,
      "start": 183.2748,
      "duration": 0.1583,
      "velocity": 86,
      "chip": "ym2612"
    },
    {
      "channel": 4,
      "note": 67,
      "start": 183.2829,
      "duration": 0.0457,
      "velocity": 127,
      "chip": "ym2612"
    },
    {
      "channel": 1,
      "note": 67,
      "start": 183.3725,
      "duration": 0.0604,
      "velocity": 127,
      "chip": "ym2612"
    },
    {
      "channel": 1,
      "note": 67,
      "start": 183.4575,
      "duration": 0.0628,
      "velocity": 127,
      "chip": "ym2612"
    },
    {
      "channel": 2,
      "note": 64,
      "start": 183.4622,
      "duration": 0.1629,
      "velocity": 86,
      "chip": "ym2612"
    },
    {
      "channel": 1,
      "note": 67,
      "start": 183.5641,
      "duration": 0.0608,
      "velocity": 127,
      "chip": "ym2612"
    },
    {
      "channel": 0,
      "note": 64,
      "start": 183.6692,
      "duration": 0.1649,
      "velocity": 86,
      "chip": "ym2612"
    },
    {
      "channel": 1,
      "note": 52,
      "start": 183.6769,
      "duration": 0.0528,
      "velocity": 99,
      "chip": "ym2612"
    },
    {
      "channel": 2,
      "note": 40,
      "start": 183.6838,
      "duration": 0.7444,
      "velocity": 62,
      "chip": "ym2612"
    },
    {
      "channel": 3,
      "note": 24,
      "start": 183.6909,
      "duration": 0.0391,
      "velocity": 112,
      "chip": "ym2612"
    },
    {
      "channel": 4,
      "note": 40,
      "start": 183.6982,
      "duration": 1.5157,
      "velocity": 95,
      "chip": "ym2612"
    },
    {
      "channel": 0,
      "note": 52,
      "start": 183.8786,
      "duration": 0.0603,
      "velocity": 99,
      "chip": "ym2612"
    },
    {
      "channel": 1,
      "note": 59,
      "start": 183.8854,
      "duration": 0.141,
      "velocity": 86,
      "chip": "ym2612"
    },
    {
      "channel": 0,
      "note": 67,
      "start": 184.0729,
      "duration": 0.1628,
      "velocity": 86,
      "chip": "ym2612"
    },
    {
      "channel": 1,
      "note": 47,
      "start": 184.0805,
      "duration": 0.0506,
      "velocity": 99,
      "chip": "ym2612"
    },
    {
      "channel": 3,
      "note": 67,
      "start": 184.0884,
      "duration": 0.043,
      "velocity": 127,
      "chip": "ym2612"
    },
    {
      "channel": 0,
      "note": 47,
      "start": 184.2626,
      "duration": 0.0604,
      "velocity": 99,
      "chip": "ym2612"
    },
    {
      "channel": 1,
      "note": 62,
      "start": 184.2694,
      "duration": 0.1586,
      "velocity": 86,
      "chip": "ym2612"
    },
    {
      "channel": 0,
      "note": 64,
      "start": 184.4713,
      "duration": 0.7418,
      "velocity": 86,
      "chip": "ym2612"
    },
    {
      "channel": 1,
      "note": 55,
      "start": 184.4789,
      "duration": 0.0362,
      "velocity": 99,
      "chip": "ym2612"
    },
    {
      "channel": 2,
      "note": 24,
      "start": 184.4858,
      "duration": 0.0295,
      "velocity": 112,
      "chip": "ym2612"
    },
    {
      "channel": 3,
      "note": 35,
      "start": 184.4932,
      "duration": 0.7205,
      "velocity": 62,
      "chip": "ym2612"
    },
    {
      "channel": 1,
      "note": 24,
      "start": 184.5588,
      "duration": 0.0611,
      "velocity": 112,
      "chip": "ym2612"
    },
    {
      "channel": 1,
      "note": 55,
      "start": 184.6643,
      "duration": 0.0602,
      "velocity": 99,
      "chip": "ym2612"
    },
    {
      "channel": 1,
      "note": 50,
      "start": 184.8539,
      "duration": 0.0628,
      "velocity": 99,
      "chip": "ym2612"
    },
    {
      "channel": 2,
      "note": 67,
      "start": 184.8617,
      "duration": 0.0553,
      "velocity": 127,
      "chip": "ym2612"
    },
    {
      "channel": 0,
      "note": 52,
      "start": 185.2577,
      "duration": 0.0602,
      "velocity": 99,
      "chip": "ym2612"
    },
    {
      "channel": 1,
      "note": 24,
      "start": 185.2644,
      "duration": 0.0537,
      "velocity": 112,
      "chip": "ym2612"
    },
    {
      "channel": 2,
      "note": 43,
      "start": 185.2713,
      "duration": 0.3436,
      "velocity": 62,
      "chip": "ym2612"
    },
    {
      "channel": 3,
      "note": 64,
      "start": 185.2785,
      "duration": 0.1447,
      "velocity": 86,
      "chip": "ym2612"
    },
    {
      "channel": 4,
      "note": 43,
      "start": 185.2835,
      "duration": 0.7362,
      "velocity": 95,
      "chip": "ym2612"
    },
    {
      "channel": 0,
      "note": 59,
      "start": 185.4662,
      "duration": 0.1485,
      "velocity": 86,
      "chip": "ym2612"
    },
    {
      "channel": 1,
      "note": 52,
      "start": 185.4738,
      "duration": 0.0536,
      "velocity": 99,
      "chip": "ym2612"
    },
    {
      "channel": 0,
      "note": 47,
      "start": 185.6614,
      "duration": 0.058,
      "velocity": 99,
      "chip": "ym2612"
    },
    {
      "channel": 1,
      "note": 67,
      "start": 185.6681,
      "duration": 0.1561,
      "velocity": 86,
      "chip": "ym2612"
    },
    {
      "channel": 2,
      "note": 43,
      "start": 185.6729,
      "duration": 0.3465,
      "velocity": 62,
      "chip": "ym2612"
    },
    {
      "channel": 3,
      "note": 67,
      "start": 185.6809,
      "duration": 0.0391,
      "velocity": 127,
      "chip": "ym2612"
    },
    {
      "channel": 0,
      "note": 67,
      "start": 185.851,
      "duration": 0.0604,
      "velocity": 127,
      "chip": "ym2612"
    },
    {
      "channel": 1,
      "note": 62,
      "start": 185.8556,
      "duration": 0.1636,
      "velocity": 86,
      "chip": "ym2612"
    },
    {
      "channel": 3,
      "note": 47,
      "start": 185.8635,
      "duration": 0.0484,
      "velocity": 99,
      "chip": "ym2612"
    },
    {
      "channel": 0,
      "note": 67,
      "start": 185.9534,
      "duration": 0.0655,
      "velocity": 127,
      "chip": "ym2612"
    },
    {
      "channel": 0,
      "note": 55,
      "start": 186.0606,
      "duration": 0.0428,
      "velocity": 99,
      "chip": "ym2612"
    },
    {
      "channel": 1,
      "note": 64,
      "start": 186.0652,
      "duration": 0.7368,
      "velocity": 86,
      "chip": "ym2612"
    },
    {
      "channel": 2,
      "note": 40,
      "start": 186.0699,
      "duration": 0.1387,
      "velocity": 62,
      "chip": "ym2612"
    },
    {
      "channel": 3,
      "note": 38,
      "start": 186.0771,
      "duration": 0.7253,
      "velocity": 95,
      "chip": "ym2612"
    },
    {
      "channel": 4,
      "note": 24,
      "start": 186.0844,
      "duration": 0.0196,
      "velocity": 112,
      "chip": "ym2612"
    },
    {
      "channel": 0,
      "note": 24,
      "start": 186.1469,
      "duration": 0.0613,
      "velocity": 112,
      "chip": "ym2612"
    },
    {
      "channel": 0,
      "note": 38,
      "start": 186.2517,
      "duration": 0.55,
      "velocity": 62,
      "chip": "ym2612"
    },
    {
      "channel": 2,
      "note": 55,
      "start": 186.2595,
      "duration": 0.0546,
      "velocity": 99,
      "chip": "ym2612"
    },
    {
      "channel": 2,
      "note": 50,
      "start": 186.4424,
      "duration": 0.0628,
      "velocity": 99,
      "chip": "ym2612"
    },
    {
      "channel": 4,
      "note": 67,
      "start": 186.4506,
      "duration": 0.055,
      "velocity": 127,
      "chip": "ym2612"
    },
    {
      "channel": 2,
      "note": 67,
      "start": 186.637,
      "duration": 0.0602,
      "velocity": 127,
      "chip": "ym2612"
    },
    {
      "channel": 2,
      "note": 67,
      "start": 186.7392,
      "duration": 0.0629,
      "velocity": 127,
      "chip": "ym2612"
    },
    {
      "channel": 0,
      "note": 52,
      "start": 186.8465,
      "duration": 0.0598,
      "velocity": 99,
      "chip": "ym2612"
    },
    {
      "channel": 1,
      "note": 40,
      "start": 186.8533,
      "duration": 0.7554,
      "velocity": 62,
      "chip": "ym2612"
    },
    {
      "channel": 2,
      "note": 24,
      "start": 186.8603,
      "duration": 0.0464,
      "velocity": 112,
      "chip": "ym2612"
    },
    {
      "channel": 3,
      "note": 40,
      "start": 186.8652,
      "duration": 1.5254,
      "velocity": 95,
      "chip": "ym2612"
    },
    {
      "channel": 4,
      "note": 64,
      "start": 186.8725,
      "duration": 0.1393,
      "velocity": 86,
      "chip": "ym2612"
    },
    {
      "channel": 0,
      "note": 59,
      "start": 187.0546,
      "duration": 0.1485,
      "velocity": 86,
      "chip": "ym2612"
    },
    {
      "channel": 2,
      "note": 52,
      "start": 187.0624,
      "duration": 0.0538,
      "velocity": 99,
      "chip": "ym2612"
    },
    {
      "channel": 0,
      "note": 47,
      "start": 187.2474,
      "duration": 0.0604,
      "velocity": 99,
      "chip": "ym2612"
    },
    {
      "channel": 2,
      "note": 67,
      "start": 187.2544,
      "duration": 0.1586,
      "velocity": 86,
      "chip": "ym2612"
    },
    {
      "channel": 4,
      "note": 67,
      "start": 187.2625,
      "duration": 0.0461,
      "velocity": 127,
      "chip": "ym2612"
    },
    {
      "channel": 0,
      "note": 62,
      "start": 187.4387,
      "duration": 0.1698,
      "velocity": 86,
      "chip": "ym2612"
    },
    {
      "channel": 2,
      "note": 47,
      "start": 187.4465,
      "duration": 0.0536,
      "velocity": 99,
      "chip": "ym2612"
    },
    {
      "channel": 0,
      "note": 55,
      "start": 187.6489,
      "duration": 0.0428,
      "velocity": 99,
      "chip": "ym2612"
    },
    {
      "channel": 1,
      "note": 64,
      "start": 187.6557,
      "duration": 0.7345,
      "velocity": 86,
      "chip": "ym2612"
    },
    {
      "channel": 2,
      "note": 24,
      "start": 187.6627,
      "duration": 0.0295,
      "velocity": 112,
      "chip": "ym2612"
    },
    {
      "channel": 4,
      "note": 35,
      "start": 187.6699,
      "duration": 0.7209,
      "velocity": 62,
      "chip": "ym2612"
    },
    {
      "channel": 0,
      "note": 24,
      "start": 187.7354,
      "duration": 0.0611,
      "velocity": 112,
      "chip": "ym2612"
    },
    {
      "channel": 0,
      "note": 55,
      "start": 187.8409,
      "duration": 0.0623,
      "velocity": 99,
      "chip": "ym2612"
    },
    {
      "channel": 0,
      "note": 50,
      "start": 188.0305,
      "duration": 0.0628,
      "velocity": 99,
      "chip": "ym2612"
    },
    {
      "channel": 2,
      "note": 67,
      "start": 188.0383,
      "duration": 0.0554,
      "velocity": 127,
      "chip": "ym2612"
    },
    {
      "channel": 0,
      "note": 52,
      "start": 188.4321,
      "duration": 0.0626,
      "velocity": 99,
      "chip": "ym2612"
    },
    {
      "channel": 1,
      "note": 24,
      "start": 188.4389,
      "duration": 0.056,
      "velocity": 112,
      "chip": "ym2612"
    },
    {
      "channel": 2,
      "note": 43,
      "start": 188.4458,
      "duration": 0.346,
      "velocity": 62,
      "chip": "ym2612"
    },
    {
      "channel": 3,
      "note": 64,
      "start": 188.4529,
      "duration": 0.1471,
      "velocity": 86,
      "chip": "ym2612"
    },
    {
      "channel": 4,
      "note": 43,
      "start": 188.4603,
      "duration": 0.7353,
      "velocity": 95,
      "chip": "ym2612"
    },
    {
      "channel": 0,
      "note": 59,
      "start": 188.6433,
      "duration": 0.1482,
      "velocity": 86,
      "chip": "ym2612"
    },
    {
      "channel": 1,
      "note": 52,
      "start": 188.651,
      "duration": 0.0535,
      "velocity": 99,
      "chip": "ym2612"
    },
    {
      "channel": 0,
      "note": 47,
      "start": 188.836,
      "duration": 0.0602,
      "velocity": 99,
      "chip": "ym2612"
    },
    {
      "channel": 1,
      "note": 67,
      "start": 188.8429,
      "duration": 0.1583,
      "velocity": 86,
      "chip": "ym2612"
    },
    {
      "channel": 2,
      "note": 43,
      "start": 188.8477,
      "duration": 0.3476,
      "velocity": 62,
      "chip": "ym2612"
    },
    {
      "channel": 3,
      "note": 67,
      "start": 188.8556,
      "duration": 0.0412,
      "velocity": 127,
      "chip": "ym2612"
    },
    {
      "channel": 0,
      "note": 62,
      "start": 189.0273,
      "duration": 0.1676,
      "velocity": 86,
      "chip": "ym2612"
    },
    {
      "channel": 1,
      "note": 47,
      "start": 189.0349,
      "duration": 0.0534,
      "velocity": 99,
      "chip": "ym2612"
    },
    {
      "channel": 0,
      "note": 55,
      "start": 189.2374,
      "duration": 0.0604,
      "velocity": 99,
      "chip": "ym2612"
    },
    {
      "channel": 1,
      "note": 64,
      "start": 189.2442,
      "duration": 0.3504,
      "velocity": 86,
      "chip": "ym2612"
    },
    {
      "channel": 2,
      "note": 40,
      "start": 189.2489,
      "duration": 0.1539,
      "velocity": 62,
      "chip": "ym2612"
    },
    {
      "channel": 3,
      "note": 38,
      "start": 189.256,
      "duration": 0.7406,
      "velocity": 95,
      "chip": "ym2612"
    },
    {
      "channel": 4,
      "note": 24,
      "start": 189.2632,
      "duration": 0.0353,
      "velocity": 112,
      "chip": "ym2612"
    },
    {
      "channel": 0,
      "note": 24,
      "start": 189.3413,
      "duration": 0.0611,
      "velocity": 112,
      "chip": "ym2612"
    },
    {
      "channel": 0,
      "note": 38,
      "start": 189.4459,
      "duration": 0.55,
      "velocity": 62,
      "chip": "ym2612"
    },
    {
      "channel": 2,
      "note": 55,
      "start": 189.4537,
      "duration": 0.0538,
      "velocity": 99,
      "chip": "ym2612"
    },
    {
      "channel": 1,
      "note": 50,
      "start": 189.6418,
      "duration": 0.0575,
      "velocity": 99,
      "chip": "ym2612"
    },
    {
      "channel": 2,
      "note": 67,
      "start": 189.6488,
      "duration": 0.3476,
      "velocity": 86,
      "chip": "ym2612"
    },
    {
      "channel": 4,
      "note": 67,
      "start": 189.6569,
      "duration": 0.043,
      "velocity": 127,
      "chip": "ym2612"
    },
    {
      "channel": 1,
      "note": 67,
      "start": 189.7437,
      "duration": 0.0604,
      "velocity": 127,
      "chip": "ym2612"
    },
    {
      "channel": 1,
      "note": 67,
      "start": 189.8287,
      "duration": 0.0626,
      "velocity": 127,
      "chip": "ym2612"
    },
    {
      "channel": 1,
      "note": 67,
      "start": 189.9335,
      "duration": 0.0627,
      "velocity": 127,
      "chip": "ym2612"
    },
    {
      "channel": 0,
      "note": 69,
      "start": 190.0405,
      "duration": 0.1649,
      "velocity": 86,
      "chip": "ym2612"
    },
    {
      "channel": 1,
      "note": 57,
      "start": 190.0481,
      "duration": 0.0528,
      "velocity": 99,
      "chip": "ym2612"
    },
    {
      "channel": 2,
      "note": 45,
      "start": 190.0551,
      "duration": 0.7442,
      "velocity": 62,
      "chip": "ym2612"
    },
    {
      "channel": 3,
      "note": 24,
      "start": 190.0622,
      "duration": 0.0391,
      "velocity": 112,
      "chip": "ym2612"
    },
    {
      "channel": 4,
      "note": 45,
      "start": 190.0694,
      "duration": 1.5157,
      "velocity": 95,
      "chip": "ym2612"
    },
    {
      "channel": 0,
      "note": 57,
      "start": 190.2499,
      "duration": 0.0602,
      "velocity": 99,
      "chip": "ym2612"
    },
    {
      "channel": 1,
      "note": 64,
      "start": 190.2566,
      "duration": 0.141,
      "velocity": 86,
      "chip": "ym2612"
    },
    {
      "channel": 0,
      "note": 72,
      "start": 190.4414,
      "duration": 0.1655,
      "velocity": 86,
      "chip": "ym2612"
    },
    {
      "channel": 1,
      "note": 52,
      "start": 190.449,
      "duration": 0.0578,
      "velocity": 99,
      "chip": "ym2612"
    },
    {
      "channel": 3,
      "note": 67,
      "start": 190.4569,
      "duration": 0.0503,
      "velocity": 127,
      "chip": "ym2612"
    },
    {
      "channel": 0,
      "note": 52,
      "start": 190.6339,
      "duration": 0.0602,
      "velocity": 99,
      "chip": "ym2612"
    },
    {
      "channel": 1,
      "note": 67,
      "start": 190.6406,
      "duration": 0.1585,
      "velocity": 86,
      "chip": "ym2612"
    },
    {
      "channel": 0,
      "note": 69,
      "start": 190.8427,
      "duration": 0.7417,
      "velocity": 86,
      "chip": "ym2612"
    },
    {
      "channel": 1,
      "note": 60,
      "start": 190.8503,
      "duration": 0.0361,
      "velocity": 99,
      "chip": "ym2612"
    },
    {
      "channel": 2,
      "note": 24,
      "start": 190.8573,
      "duration": 0.0293,
      "velocity": 112,
      "chip": "ym2612"
    },
    {
      "channel": 3,
      "note": 40,
      "start": 190.8644,
      "duration": 0.7205,
      "velocity": 62,
      "chip": "ym2612"
    },
    {
      "channel": 1,
      "note": 24,
      "start": 190.9299,
      "duration": 0.0611,
      "velocity": 112,
      "chip": "ym2612"
    },
    {
      "channel": 1,
      "note": 60,
      "start": 191.0356,
      "duration": 0.0602,
      "velocity": 99,
      "chip": "ym2612"
    },
    {
      "channel": 1,
      "note": 55,
      "start": 191.2251,
      "duration": 0.0626,
      "velocity": 99,
      "chip": "ym2612"
    },
    {
      "channel": 2,
      "note": 67,
      "start": 191.2329,
      "duration": 0.0551,
      "velocity": 127,
      "chip": "ym2612"
    },
    {
      "channel": 0,
      "note": 57,
      "start": 191.6287,
      "duration": 0.0604,
      "velocity": 99,
      "chip": "ym2612"
    },
    {
      "channel": 1,
      "note": 24,
      "start": 191.6355,
      "duration": 0.0539,
      "velocity": 112,
      "chip": "ym2612"
    },
    {
      "channel": 2,
      "note": 48,
      "start": 191.6426,
      "duration": 0.3437,
      "velocity": 62,
      "chip": "ym2612"
    },
    {
      "channel": 3,
      "note": 69,
      "start": 191.6497,
      "duration": 0.1446,
      "velocity": 86,
      "chip": "ym2612"
    },
    {
      "channel": 4,
      "note": 48,
      "start": 191.6548,
      "duration": 0.7333,
      "velocity": 95,
      "chip": "ym2612"
    },
    {
      "channel": 0,
      "note": 64,
      "start": 191.8375,
      "duration": 0.1484,
      "velocity": 86,
      "chip": "ym2612"
    },
    {
      "channel": 1,
      "note": 57,
      "start": 191.8451,
      "duration": 0.0537,
      "velocity": 99,
      "chip": "ym2612"
    },
    {
      "channel": 0,
      "note": 52,
      "start": 192.0303,
      "duration": 0.0602,
      "velocity": 99,
      "chip": "ym2612"
    },
    {
      "channel": 1,
      "note": 72,
      "start": 192.0371,
      "duration": 0.1585,
      "velocity": 86,
      "chip": "ym2612"
    },
    {
      "channel": 2,
      "note": 48,
      "start": 192.0418,
      "duration": 0.3459,
      "velocity": 62,
      "chip": "ym2612"
    },
    {
      "channel": 3,
      "note": 67,
      "start": 192.0498,
      "duration": 0.0413,
      "velocity": 127,
      "chip": "ym2612"
    },
    {
      "channel": 0,
      "note": 67,
      "start": 192.2222,
      "duration": 0.0604,
      "velocity": 127,
      "chip": "ym2612"
    },
    {
      "channel": 1,
      "note": 67,
      "start": 192.2268,
      "duration": 0.1607,
      "velocity": 86,
      "chip": "ym2612"
    },
    {
      "channel": 3,
      "note": 52,
      "start": 192.2348,
      "duration": 0.0484,
      "velocity": 99,
      "chip": "ym2612"
    },
    {
      "channel": 0,
      "note": 67,
      "start": 192.3246,
      "duration": 0.0627,
      "velocity": 127,
      "chip": "ym2612"
    },
    {
      "channel": 0,
      "note": 60,
      "start": 192.4316,
      "duration": 0.043,
      "velocity": 99,
      "chip": "ym2612"
    },
    {
      "channel": 1,
      "note": 69,
      "start": 192.4362,
      "duration": 0.7368,
      "velocity": 86,
      "chip": "ym2612"
    },
    {
      "channel": 2,
      "note": 45,
      "start": 192.441,
      "duration": 0.1387,
      "velocity": 62,
      "chip": "ym2612"
    },
    {
      "channel": 3,
      "note": 43,
      "start": 192.448,
      "duration": 0.7254,
      "velocity": 95,
      "chip": "ym2612"
    },
    {
      "channel": 4,
      "note": 24,
      "start": 192.4554,
      "duration": 0.02,
      "velocity": 112,
      "chip": "ym2612"
    },
    {
      "channel": 0,
      "note": 24,
      "start": 192.5181,
      "duration": 0.0611,
      "velocity": 112,
      "chip": "ym2612"
    },
    {
      "channel": 0,
      "note": 43,
      "start": 192.623,
      "duration": 0.5498,
      "velocity": 62,
      "chip": "ym2612"
    },
    {
      "channel": 2,
      "note": 60,
      "start": 192.6307,
      "duration": 0.0536,
      "velocity": 99,
      "chip": "ym2612"
    },
    {
      "channel": 2,
      "note": 55,
      "start": 192.8138,
      "duration": 0.0626,
      "velocity": 99,
      "chip": "ym2612"
    },
    {
      "channel": 4,
      "note": 67,
      "start": 192.8218,
      "duration": 0.0549,
      "velocity": 127,
      "chip": "ym2612"
    },
    {
      "channel": 2,
      "note": 67,
      "start": 193.0081,
      "duration": 0.0604,
      "velocity": 127,
      "chip": "ym2612"
    },
    {
      "channel": 2,
      "note": 67,
      "start": 193.112,
      "duration": 0.0612,
      "velocity": 127,
      "chip": "ym2612"
    },
    {
      "channel": 0,
      "note": 57,
      "start": 193.2176,
      "duration": 0.0599,
      "velocity": 99,
      "chip": "ym2612"
    },
    {
      "channel": 1,
      "note": 45,
      "start": 193.2244,
      "duration": 0.7515,
      "velocity": 62,
      "chip": "ym2612"
    },
    {
      "channel": 2,
      "note": 24,
      "start": 193.2314,
      "duration": 0.0466,
      "velocity": 112,
      "chip": "ym2612"
    },
    {
      "channel": 3,
      "note": 45,
      "start": 193.2363,
      "duration": 1.5298,
      "velocity": 95,
      "chip": "ym2612"
    },
    {
      "channel": 4,
      "note": 69,
      "start": 193.2437,
      "duration": 0.1393,
      "velocity": 86,
      "chip": "ym2612"
    },
    {
      "channel": 0,
      "note": 64,
      "start": 193.4262,
      "duration": 0.1481,
      "velocity": 86,
      "chip": "ym2612"
    },
    {
      "channel": 2,
      "note": 57,
      "start": 193.434,
      "duration": 0.0533,
      "velocity": 99,
      "chip": "ym2612"
    },
    {
      "channel": 0,
      "note": 52,
      "start": 193.6213,
      "duration": 0.0577,
      "velocity": 99,
      "chip": "ym2612"
    },
    {
      "channel": 2,
      "note": 72,
      "start": 193.6282,
      "duration": 0.1559,
      "velocity": 86,
      "chip": "ym2612"
    },
    {
      "channel": 4,
      "note": 67,
      "start": 193.6363,
      "duration": 0.0433,
      "velocity": 127,
      "chip": "ym2612"
    },
    {
      "channel": 0,
      "note": 67,
      "start": 193.81,
      "duration": 0.1657,
      "velocity": 86,
      "chip": "ym2612"
    },
    {
      "channel": 2,
      "note": 52,
      "start": 193.8178,
      "duration": 0.0536,
      "velocity": 99,
      "chip": "ym2612"
    },
    {
      "channel": 0,
      "note": 60,
      "start": 194.0202,
      "duration": 0.0428,
      "velocity": 99,
      "chip": "ym2612"
    },
    {
      "channel": 1,
      "note": 69,
      "start": 194.0272,
      "duration": 0.7386,
      "velocity": 86,
      "chip": "ym2612"
    },
    {
      "channel": 2,
      "note": 24,
      "start": 194.0341,
      "duration": 0.0293,
      "velocity": 112,
      "chip": "ym2612"
    },
    {
      "channel": 4,
      "note": 40,
      "start": 194.0414,
      "duration": 0.7249,
      "velocity": 62,
      "chip": "ym2612"
    },
    {
      "channel": 0,
      "note": 24,
      "start": 194.1066,
      "duration": 0.0612,
      "velocity": 112,
      "chip": "ym2612"
    },
    {
      "channel": 0,
      "note": 60,
      "start": 194.2122,
      "duration": 0.0602,
      "velocity": 99,
      "chip": "ym2612"
    },
    {
      "channel": 0,
      "note": 55,
      "start": 194.4018,
      "duration": 0.0627,
      "velocity": 99,
      "chip": "ym2612"
    },
    {
      "channel": 2,
      "note": 67,
      "start": 194.4096,
      "duration": 0.0552,
      "velocity": 127,
      "chip": "ym2612"
    },
    {
      "channel": 0,
      "note": 57,
      "start": 194.8039,
      "duration": 0.0621,
      "velocity": 99,
      "chip": "ym2612"
    },
    {
      "channel": 1,
      "note": 24,
      "start": 194.8108,
      "duration": 0.0554,
      "velocity": 112,
      "chip": "ym2612"
    },
    {
      "channel": 2,
      "note": 48,
      "start": 194.8178,
      "duration": 0.3454,
      "velocity": 62,
      "chip": "ym2612"
    },
    {
      "channel": 3,
      "note": 69,
      "start": 194.8249,
      "duration": 0.1464,
      "velocity": 86,
      "chip": "ym2612"
    },
    {
      "channel": 4,
      "note": 45,
      "start": 194.8322,
      "duration": 0.0346,
      "velocity": 100,
      "chip": "ym2612"
    },
    {
      "channel": 0,
      "note": 48,
      "start": 195.0143,
      "duration": 0.0611,
      "velocity": 100,
      "chip": "ym2612"
    },
    {
      "channel": 1,
      "note": 64,
      "start": 195.0211,
      "duration": 0.1419,
      "velocity": 86,
      "chip": "ym2612"
    },
    {
      "channel": 3,
      "note": 57,
      "start": 195.029,
      "duration": 0.0469,
      "velocity": 99,
      "chip": "ym2612"
    },
    {
      "channel": 0,
      "note": 52,
      "start": 195.2108,
      "duration": 0.0742,
      "velocity": 99,
      "chip": "ym2612"
    },
    {
      "channel": 1,
      "note": 72,
      "start": 195.2154,
      "duration": 0.1744,
      "velocity": 86,
      "chip": "ym2612"
    },
    {
      "channel": 2,
      "note": 52,
      "start": 195.2224,
      "duration": 0.063,
      "velocity": 100,
      "chip": "ym2612"
    },
    {
      "channel": 3,
      "note": 48,
      "start": 195.2295,
      "duration": 0.3528,
      "velocity": 62,
      "chip": "ym2612"
    },
    {
      "channel": 4,
      "note": 67,
      "start": 195.2376,
      "duration": 0.0481,
      "velocity": 127,
      "chip": "ym2612"
    },
    {
      "channel": 0,
      "note": 43,
      "start": 195.4157,
      "duration": 0.0613,
      "velocity": 100,
      "chip": "ym2612"
    },
    {
      "channel": 1,
      "note": 67,
      "start": 195.4202,
      "duration": 0.1616,
      "velocity": 86,
      "chip": "ym2612"
    },
    {
      "channel": 2,
      "note": 52,
      "start": 195.428,
      "duration": 0.0493,
      "velocity": 99,
      "chip": "ym2612"
    },
    {
      "channel": 0,
      "note": 60,
      "start": 195.6261,
      "duration": 0.0428,
      "velocity": 99,
      "chip": "ym2612"
    },
    {
      "channel": 1,
      "note": 64,
      "start": 195.6307,
      "duration": 0.1433,
      "velocity": 86,
      "chip": "ym2612"
    },
    {
      "channel": 2,
      "note": 45,
      "start": 195.6376,
      "duration": 0.0317,
      "velocity": 100,
      "chip": "ym2612"
    },
    {
      "channel": 3,
      "note": 45,
      "start": 195.6425,
      "duration": 0.1318,
      "velocity": 62,
      "chip": "ym2612"
    },
    {
      "channel": 4,
      "note": 24,
      "start": 195.6498,
      "duration": 0.0199,
      "velocity": 112,
      "chip": "ym2612"
    },
    {
      "channel": 0,
      "note": 24,
      "start": 195.7124,
      "duration": 0.0612,
      "velocity": 112,
      "chip": "ym2612"
    },
    {
      "channel": 0,
      "note": 36,
      "start": 195.8172,
      "duration": 0.5543,
      "velocity": 62,
      "chip": "ym2612"
    },
    {
      "channel": 1,
      "note": 48,
      "start": 195.824,
      "duration": 0.0545,
      "velocity": 100,
      "chip": "ym2612"
    },
    {
      "channel": 2,
      "note": 60,
      "start": 195.8309,
      "duration": 0.1351,
      "velocity": 86,
      "chip": "ym2612"
    },
    {
      "channel": 3,
      "note": 60,
      "start": 195.8389,
      "duration": 0.04,
      "velocity": 99,
      "chip": "ym2612"
    },
    {
      "channel": 1,
      "note": 55,
      "start": 196.0124,
      "duration": 0.0582,
      "velocity": 99,
      "chip": "ym2612"
    },
    {
      "channel": 2,
      "note": 57,
      "start": 196.0171,
      "duration": 0.1583,
      "velocity": 86,
      "chip": "ym2612"
    },
    {
      "channel": 3,
      "note": 52,
      "start": 196.0243,
      "duration": 0.0468,
      "velocity": 100,
      "chip": "ym2612"
    },
    {
      "channel": 4,
      "note": 67,
      "start": 196.0324,
      "duration": 0.0389,
      "velocity": 127,
      "chip": "ym2612"
    },
    {
      "channel": 1,
      "note": 67,
      "start": 196.115,
      "duration": 0.0603,
      "velocity": 127,
      "chip": "ym2612"
    },
    {
      "channel": 1,
      "note": 67,
      "start": 196.1998,
      "duration": 0.0628,
      "velocity": 127,
      "chip": "ym2612"
    },
    {
      "channel": 2,
      "note": 43,
      "start": 196.2068,
      "duration": 0.0561,
      "velocity": 100,
      "chip": "ym2612"
    },
    {
      "channel": 3,
      "note": 55,
      "start": 196.2139,
      "duration": 0.1582,
      "velocity": 86,
      "chip": "ym2612"
    },
    {
      "channel": 1,
      "note": 67,
      "start": 196.3048,
      "duration": 0.0669,
      "velocity": 127,
      "chip": "ym2612"
    },
    {
      "channel": 0,
      "note": 57,
      "start": 196.4129,
      "duration": 0.1463,
      "velocity": 87,
      "chip": "ym2612"
    },
    {
      "channel": 1,
      "note": 57,
      "start": 196.4198,
      "duration": 0.0349,
      "velocity": 84,
      "chip": "ym2612"
    },
    {
      "channel": 2,
      "note": 45,
      "start": 196.4268,
      "duration": 0.7263,
      "velocity": 62,
      "chip": "ym2612"
    },
    {
      "channel": 3,
      "note": 24,
      "start": 196.4339,
      "duration": 0.0211,
      "velocity": 112,
      "chip": "ym2612"
    },
    {
      "channel": 0,
      "note": 60,
      "start": 196.6027,
      "duration": 0.0628,
      "velocity": 84,
      "chip": "ym2612"
    },
    {
      "channel": 1,
      "note": 60,
      "start": 196.6097,
      "duration": 0.1417,
      "velocity": 87,
      "chip": "ym2612"
    },
    {
      "channel": 0,
      "note": 57,
      "start": 196.7947,
      "duration": 0.1659,
      "velocity": 87,
      "chip": "ym2612"
    },
    {
      "channel": 1,
      "note": 64,
      "start": 196.8015,
      "duration": 0.0546,
      "velocity": 84,
      "chip": "ym2612"
    },
    {
      "channel": 3,
      "note": 67,
      "start": 196.8094,
      "duration": 0.0471,
      "velocity": 127,
      "chip": "ym2612"
    },
    {
      "channel": 0,
      "note": 55,
      "start": 196.9867,
      "duration": 0.0612,
      "velocity": 84,
      "chip": "ym2612"
    },
    {
      "channel": 1,
      "note": 64,
      "start": 196.9936,
      "duration": 0.1593,
      "velocity": 87,
      "chip": "ym2612"
    },
    {
      "channel": 0,
      "note": 57,
      "start": 197.1963,
      "duration": 0.1484,
      "velocity": 87,
      "chip": "ym2612"
    },
    {
      "channel": 1,
      "note": 57,
      "start": 197.203,
      "duration": 0.037,
      "velocity": 84,
      "chip": "ym2612"
    },
    {
      "channel": 2,
      "note": 24,
      "start": 197.2101,
      "duration": 0.0302,
      "velocity": 112,
      "chip": "ym2612"
    },
    {
      "channel": 3,
      "note": 40,
      "start": 197.2173,
      "duration": 0.7214,
      "velocity": 62,
      "chip": "ym2612"
    },
    {
      "channel": 1,
      "note": 24,
      "start": 197.2836,
      "duration": 0.0613,
      "velocity": 112,
      "chip": "ym2612"
    },
    {
      "channel": 0,
      "note": 60,
      "start": 197.3882,
      "duration": 0.0611,
      "velocity": 84,
      "chip": "ym2612"
    },
    {
      "channel": 1,
      "note": 55,
      "start": 197.395,
      "duration": 0.1419,
      "velocity": 87,
      "chip": "ym2612"
    },
    {
      "channel": 0,
      "note": 57,
      "start": 197.5802,
      "duration": 0.17,
      "velocity": 87,
      "chip": "ym2612"
    },
    {
      "channel": 1,
      "note": 64,
      "start": 197.587,
      "duration": 0.0546,
      "velocity": 84,
      "chip": "ym2612"
    },
    {
      "channel": 2,
      "note": 67,
      "start": 197.5947,
      "duration": 0.047,
      "velocity": 127,
      "chip": "ym2612"
    },
    {
      "channel": 0,
      "note": 55,
      "start": 197.7722,
      "duration": 0.0611,
      "velocity": 84,
      "chip": "ym2612"
    },
    {
      "channel": 1,
      "note": 64,
      "start": 197.779,
      "duration": 0.1593,
      "velocity": 87,
      "chip": "ym2612"
    },
    {
      "channel": 0,
      "note": 57,
      "start": 197.9816,
      "duration": 0.1485,
      "velocity": 87,
      "chip": "ym2612"
    },
    {
      "channel": 1,
      "note": 57,
      "start": 197.9884,
      "duration": 0.0372,
      "velocity": 84,
      "chip": "ym2612"
    },
    {
      "channel": 2,
      "note": 24,
      "start": 197.9954,
      "duration": 0.0305,
      "velocity": 112,
      "chip": "ym2612"
    },
    {
      "channel": 3,
      "note": 48,
      "start": 198.0003,
      "duration": 0.3225,
      "velocity": 62,
      "chip": "ym2612"
    },
    {
      "channel": 0,
      "note": 60,
      "start": 198.1738,
      "duration": 0.0611,
      "velocity": 84,
      "chip": "ym2612"
    },
    {
      "channel": 1,
      "note": 60,
      "start": 198.1805,
      "duration": 0.1419,
      "velocity": 87,
      "chip": "ym2612"
    },
    {
      "channel": 0,
      "note": 57,
      "start": 198.3657,
      "duration": 0.1659,
      "velocity": 87,
      "chip": "ym2612"
    },
    {
      "channel": 1,
      "note": 64,
      "start": 198.3725,
      "duration": 0.0545,
      "velocity": 84,
      "chip": "ym2612"
    },
    {
      "channel": 2,
      "note": 48,
      "start": 198.3795,
      "duration": 0.3445,
      "velocity": 62,
      "chip": "ym2612"
    },
    {
      "channel": 3,
      "note": 67,
      "start": 198.3874,
      "duration": 0.04,
      "velocity": 127,
      "chip": "ym2612"
    },
    {
      "channel": 0,
      "note": 67,
      "start": 198.5586,
      "duration": 0.0616,
      "velocity": 127,
      "chip": "ym2612"
    },
    {
      "channel": 1,
      "note": 55,
      "start": 198.5631,
      "duration": 0.0573,
      "velocity": 84,
      "chip": "ym2612"
    },
    {
      "channel": 3,
      "note": 64,
      "start": 198.5702,
      "duration": 0.154,
      "velocity": 87,
      "chip": "ym2612"
    },
    {
      "channel": 0,
      "note": 67,
      "start": 198.661,
      "duration": 0.0627,
      "velocity": 127,
      "chip": "ym2612"
    },
    {
      "channel": 0,
      "note": 57,
      "start": 198.7695,
      "duration": 0.1461,
      "velocity": 87,
      "chip": "ym2612"
    },
    {
      "channel": 1,
      "note": 57,
      "start": 198.7741,
      "duration": 0.0369,
      "velocity": 84,
      "chip": "ym2612"
    },
    {
      "channel": 2,
      "note": 45,
      "start": 198.7789,
      "duration": 0.1372,
      "velocity": 62,
      "chip": "ym2612"
    },
    {
      "channel": 3,
      "note": 24,
      "start": 198.786,
      "duration": 0.0254,
      "velocity": 112,
      "chip": "ym2612"
    },
    {
      "channel": 1,
      "note": 24,
      "start": 198.8545,
      "duration": 0.0613,
      "velocity": 112,
      "chip": "ym2612"
    },
    {
      "channel": 0,
      "note": 43,
      "start": 198.9595,
      "duration": 0.5497,
      "velocity": 62,
      "chip": "ym2612"
    },
    {
      "channel": 1,
      "note": 60,
      "start": 198.9663,
      "duration": 0.0543,
      "velocity": 84,
      "chip": "ym2612"
    },
    {
      "channel": 2,
      "note": 55,
      "start": 198.9732,
      "duration": 0.1347,
      "velocity": 87,
      "chip": "ym2612"
    },
    {
      "channel": 1,
      "note": 57,
      "start": 199.1513,
      "duration": 0.1659,
      "velocity": 87,
      "chip": "ym2612"
    },
    {
      "channel": 2,
      "note": 64,
      "start": 199.1582,
      "duration": 0.0545,
      "velocity": 84,
      "chip": "ym2612"
    },
    {
      "channel": 3,
      "note": 67,
      "start": 199.1662,
      "duration": 0.0468,
      "velocity": 127,
      "chip": "ym2612"
    },
    {
      "channel": 1,
      "note": 67,
      "start": 199.3443,
      "duration": 0.0602,
      "velocity": 127,
      "chip": "ym2612"
    },
    {
      "channel": 2,
      "note": 55,
      "start": 199.3491,
      "duration": 0.0557,
      "velocity": 84,
      "chip": "ym2612"
    },
    {
      "channel": 3,
      "note": 64,
      "start": 199.3561,
      "duration": 0.1536,
      "velocity": 87,
      "chip": "ym2612"
    },
    {
      "channel": 1,
      "note": 67,
      "start": 199.4465,
      "duration": 0.0629,
      "velocity": 127,
      "chip": "ym2612"
    },
    {
      "channel": 0,
      "note": 57,
      "start": 199.5537,
      "duration": 0.1649,
      "velocity": 87,
      "chip": "ym2612"
    },
    {
      "channel": 1,
      "note": 57,
      "start": 199.5606,
      "duration": 0.0533,
      "velocity": 84,
      "chip": "ym2612"
    },
    {
      "channel": 2,
      "note": 45,
      "start": 199.5676,
      "duration": 0.7449,
      "velocity": 62,
      "chip": "ym2612"
    },
    {
      "channel": 3,
      "note": 24,
      "start": 199.5747,
      "duration": 0.0396,
      "velocity": 112,
      "chip": "ym2612"
    },
    {
      "channel": 4,
      "note": 84,
      "start": 199.5828,
      "duration": 1.5155,
      "velocity": 80,
      "chip": "ym2612"
    },
    {
      "channel": 0,
      "note": 60,
      "start": 199.7599,
      "duration": 0.1507,
      "velocity": 87,
      "chip": "ym2612"
    },
    {
      "channel": 0,
      "note": 57,
      "start": 199.9519,
      "duration": 0.1683,
      "velocity": 87,
      "chip": "ym2612"
    },
    {
      "channel": 1,
      "note": 52,
      "start": 199.9564,
      "duration": 0.059,
      "velocity": 84,
      "chip": "ym2612"
    },
    {
      "channel": 3,
      "note": 67,
      "start": 199.9644,
      "duration": 0.0515,
      "velocity": 127,
      "chip": "ym2612"
    },
    {
      "channel": 0,
      "note": 64,
      "start": 200.144,
      "duration": 0.1681,
      "velocity": 87,
      "chip": "ym2612"
    },
    {
      "channel": 0,
      "note": 57,
      "start": 200.3564,
      "duration": 0.1476,
      "velocity": 87,
      "chip": "ym2612"
    },
    {
      "channel": 1,
      "note": 60,
      "start": 200.361,
      "duration": 0.0384,
      "velocity": 84,
      "chip": "ym2612"
    },
    {
      "channel": 2,
      "note": 24,
      "start": 200.368,
      "duration": 0.0317,
      "velocity": 112,
      "chip": "ym2612"
    },
    {
      "channel": 3,
      "note": 40,
      "start": 200.3751,
      "duration": 0.723,
      "velocity": 62,
      "chip": "ym2612"
    },
    {
      "channel": 1,
      "note": 24,
      "start": 200.4433,
      "duration": 0.061,
      "velocity": 112,
      "chip": "ym2612"
    },
    {
      "channel": 0,
      "note": 55,
      "start": 200.5454,
      "duration": 0.1506,
      "velocity": 87,
      "chip": "ym2612"
    },
    {
      "channel": 0,
      "note": 57,
      "start": 200.7374,
      "duration": 0.1683,
      "velocity": 87,
      "chip": "ym2612"
    },
    {
      "channel": 1,
      "note": 55,
      "start": 200.7442,
      "duration": 0.0568,
      "velocity": 84,
      "chip": "ym2612"
    },
    {
      "channel": 2,
      "note": 67,
      "start": 200.7519,
      "duration": 0.0493,
      "velocity": 127,
      "chip": "ym2612"
    },
    {
      "channel": 0,
      "note": 64,
      "start": 200.9316,
      "duration": 0.166,
      "velocity": 87,
      "chip": "ym2612"
    },
    {
      "channel": 0,
      "note": 57,
      "start": 201.1389,
      "duration": 0.1507,
      "velocity": 87,
      "chip": "ym2612"
    },
    {
      "channel": 1,
      "note": 57,
      "start": 201.1435,
      "duration": 0.0415,
      "velocity": 84,
      "chip": "ym2612"
    },
    {
      "channel": 2,
      "note": 24,
      "start": 201.1504,
      "duration": 0.0348,
      "velocity": 112,
      "chip": "ym2612"
    },
    {
      "channel": 3,
      "note": 48,
      "start": 201.1554,
      "duration": 0.3266,
      "velocity": 62,
      "chip": "ym2612"
    },
    {
      "channel": 4,
      "note": 88,
      "start": 201.1611,
      "duration": 0.7227,
      "velocity": 80,
      "chip": "ym2612"
    },
    {
      "channel": 0,
      "note": 60,
      "start": 201.3309,
      "duration": 0.1507,
      "velocity": 87,
      "chip": "ym2612"
    },
    {
      "channel": 0,
      "note": 57,
      "start": 201.5229,
      "duration": 0.1683,
      "velocity": 87,
      "chip": "ym2612"
    },
    {
      "channel": 1,
      "note": 48,
      "start": 201.5296,
      "duration": 0.3537,
      "velocity": 62,
      "chip": "ym2612"
    },
    {
      "channel": 2,
      "note": 52,
      "start": 201.5366,
      "duration": 0.0501,
      "velocity": 84,
      "chip": "ym2612"
    },
    {
      "channel": 3,
      "note": 67,
      "start": 201.5446,
      "duration": 0.0424,
      "velocity": 127,
      "chip": "ym2612"
    },
    {
      "channel": 0,
      "note": 64,
      "start": 201.7159,
      "duration": 0.1673,
      "velocity": 87,
      "chip": "ym2612"
    },
    {
      "channel": 0,
      "note": 57,
      "start": 201.9244,
      "duration": 0.1681,
      "velocity": 87,
      "chip": "ym2612"
    },
    {
      "channel": 1,
      "note": 60,
      "start": 201.9312,
      "duration": 0.0567,
      "velocity": 84,
      "chip": "ym2612"
    },
    {
      "channel": 2,
      "note": 45,
      "start": 201.9381,
      "duration": 0.1548,
      "velocity": 62,
      "chip": "ym2612"
    },
    {
      "channel": 3,
      "note": 81,
      "start": 201.9461,
      "duration": 0.7406,
      "velocity": 80,
      "chip": "ym2612"
    },
    {
      "channel": 4,
      "note": 24,
      "start": 201.9533,
      "duration": 0.0351,
      "velocity": 112,
      "chip": "ym2612"
    },
    {
      "channel": 1,
      "note": 24,
      "start": 202.0316,
      "duration": 0.0611,
      "velocity": 112,
      "chip": "ym2612"
    },
    {
      "channel": 0,
      "note": 43,
      "start": 202.1361,
      "duration": 0.5498,
      "velocity": 62,
      "chip": "ym2612"
    },
    {
      "channel": 1,
      "note": 55,
      "start": 202.1431,
      "duration": 0.1454,
      "velocity": 87,
      "chip": "ym2612"
    },
    {
      "channel": 1,
      "note": 57,
      "start": 202.3261,
      "duration": 0.1681,
      "velocity": 87,
      "chip": "ym2612"
    },
    {
      "channel": 2,
      "note": 55,
      "start": 202.333,
      "duration": 0.0565,
      "velocity": 84,
      "chip": "ym2612"
    },
    {
      "channel": 4,
      "note": 67,
      "start": 202.3412,
      "duration": 0.0487,
      "velocity": 127,
      "chip": "ym2612"
    },
    {
      "channel": 2,
      "note": 67,
      "start": 202.4339,
      "duration": 0.0605,
      "velocity": 127,
      "chip": "ym2612"
    },
    {
      "channel": 1,
      "note": 67,
      "start": 202.5211,
      "duration": 0.0625,
      "velocity": 127,
      "chip": "ym2612"
    },
    {
      "channel": 2,
      "note": 64,
      "start": 202.528,
      "duration": 0.1585,
      "velocity": 87,
      "chip": "ym2612"
    },
    {
      "channel": 1,
      "note": 67,
      "start": 202.6236,
      "duration": 0.0627,
      "velocity": 127,
      "chip": "ym2612"
    },
    {
      "channel": 0,
      "note": 57,
      "start": 202.7337,
      "duration": 0.1616,
      "velocity": 87,
      "chip": "ym2612"
    },
    {
      "channel": 1,
      "note": 57,
      "start": 202.7405,
      "duration": 0.0505,
      "velocity": 84,
      "chip": "ym2612"
    },
    {
      "channel": 2,
      "note": 45,
      "start": 202.7474,
      "duration": 0.7419,
      "velocity": 62,
      "chip": "ym2612"
    },
    {
      "channel": 3,
      "note": 24,
      "start": 202.7545,
      "duration": 0.0368,
      "velocity": 112,
      "chip": "ym2612"
    },
    {
      "channel": 4,
      "note": 79,
      "start": 202.7627,
      "duration": 0.727,
      "velocity": 80,
      "chip": "ym2612"
    },
    {
      "channel": 0,
      "note": 60,
      "start": 202.9391,
      "duration": 0.0611,
      "velocity": 84,
      "chip": "ym2612"
    },
    {
      "channel": 1,
      "note": 60,
      "start": 202.9459,
      "duration": 0.1427,
      "velocity": 87,
      "chip": "ym2612"
    },
    {
      "channel": 0,
      "note": 57,
      "start": 203.1311,
      "duration": 0.1658,
      "velocity": 87,
      "chip": "ym2612"
    },
    {
      "channel": 1,
      "note": 64,
      "start": 203.1378,
      "duration": 0.0545,
      "velocity": 84,
      "chip": "ym2612"
    },
    {
      "channel": 3,
      "note": 67,
      "start": 203.1458,
      "duration": 0.0469,
      "velocity": 127,
      "chip": "ym2612"
    },
    {
      "channel": 0,
      "note": 55,
      "start": 203.323,
      "duration": 0.0613,
      "velocity": 84,
      "chip": "ym2612"
    },
    {
      "channel": 1,
      "note": 64,
      "start": 203.3298,
      "duration": 0.1593,
      "velocity": 87,
      "chip": "ym2612"
    },
    {
      "channel": 0,
      "note": 57,
      "start": 203.5324,
      "duration": 0.1661,
      "velocity": 87,
      "chip": "ym2612"
    },
    {
      "channel": 1,
      "note": 57,
      "start": 203.5392,
      "duration": 0.0599,
      "velocity": 84,
      "chip": "ym2612"
    },
    {
      "channel": 2,
      "note": 84,
      "start": 203.547,
      "duration": 0.7453,
      "velocity": 80,
      "chip": "ym2612"
    },
    {
      "channel": 3,
      "note": 24,
      "start": 203.5541,
      "duration": 0.0454,
      "velocity": 112,
      "chip": "ym2612"
    },
    {
      "channel": 4,
      "note": 40,
      "start": 203.5613,
      "duration": 0.7312,
      "velocity": 62,
      "chip": "ym2612"
    },
    {
      "channel": 1,
      "note": 24,
      "start": 203.6374,
      "duration": 0.0614,
      "velocity": 112,
      "chip": "ym2612"
    },
    {
      "channel": 0,
      "note": 60,
      "start": 203.7423,
      "duration": 0.0608,
      "velocity": 84,
      "chip": "ym2612"
    },
    {
      "channel": 1,
      "note": 55,
      "start": 203.7491,
      "duration": 0.1415,
      "velocity": 87,
      "chip": "ym2612"
    },
    {
      "channel": 0,
      "note": 57,
      "start": 203.934,
      "duration": 0.1658,
      "velocity": 87,
      "chip": "ym2612"
    },
    {
      "channel": 1,
      "note": 64,
      "start": 203.9407,
      "duration": 0.0545,
      "velocity": 84,
      "chip": "ym2612"
    },
    {
      "channel": 3,
      "note": 67,
      "start": 203.9487,
      "duration": 0.0469,
      "velocity": 127,
      "chip": "ym2612"
    },
    {
      "channel": 0,
      "note": 55,
      "start": 204.1263,
      "duration": 0.061,
      "velocity": 84,
      "chip": "ym2612"
    },
    {
      "channel": 1,
      "note": 64,
      "start": 204.133,
      "duration": 0.159,
      "velocity": 87,
      "chip": "ym2612"
    },
    {
      "channel": 0,
      "note": 57,
      "start": 204.3355,
      "duration": 0.1659,
      "velocity": 87,
      "chip": "ym2612"
    },
    {
      "channel": 1,
      "note": 57,
      "start": 204.3424,
      "duration": 0.0576,
      "velocity": 84,
      "chip": "ym2612"
    },
    {
      "channel": 2,
      "note": 24,
      "start": 204.3494,
      "duration": 0.0509,
      "velocity": 112,
      "chip": "ym2612"
    },
    {
      "channel": 3,
      "note": 48,
      "start": 204.3565,
      "duration": 0.3374,
      "velocity": 62,
      "chip": "ym2612"
    },
    {
      "channel": 4,
      "note": 81,
      "start": 204.3646,
      "duration": 1.5164,
      "velocity": 80,
      "chip": "ym2612"
    },
    {
      "channel": 0,
      "note": 60,
      "start": 204.548,
      "duration": 0.058,
      "velocity": 84,
      "chip": "ym2612"
    },
    {
      "channel": 1,
      "note": 60,
      "start": 204.5547,
      "duration": 0.1388,
      "velocity": 87,
      "chip": "ym2612"
    },
    {
      "channel": 0,
      "note": 57,
      "start": 204.7369,
      "duration": 0.1667,
      "velocity": 87,
      "chip": "ym2612"
    },
    {
      "channel": 1,
      "note": 64,
      "start": 204.7439,
      "duration": 0.0545,
      "velocity": 84,
      "chip": "ym2612"
    },
    {
      "channel": 2,
      "note": 48,
      "start": 204.7508,
      "duration": 0.3443,
      "velocity": 62,
      "chip": "ym2612"
    },
    {
      "channel": 3,
      "note": 67,
      "start": 204.7587,
      "duration": 0.04,
      "velocity": 127,
      "chip": "ym2612"
    },
    {
      "channel": 0,
      "note": 67,
      "start": 204.9297,
      "duration": 0.0604,
      "velocity": 127,
      "chip": "ym2612"
    },
    {
      "channel": 1,
      "note": 55,
      "start": 204.9343,
      "duration": 0.056,
      "velocity": 84,
      "chip": "ym2612"
    },
    {
      "channel": 3,
      "note": 64,
      "start": 204.9414,
      "duration": 0.1539,
      "velocity": 87,
      "chip": "ym2612"
    },
    {
      "channel": 0,
      "note": 67,
      "start": 205.0322,
      "duration": 0.0626,
      "velocity": 127,
      "chip": "ym2612"
    },
    {
      "channel": 0,
      "note": 57,
      "start": 205.1384,
      "duration": 0.1485,
      "velocity": 87,
      "chip": "ym2612"
    },
    {
      "channel": 1,
      "note": 57,
      "start": 205.143,
      "duration": 0.0393,
      "velocity": 84,
      "chip": "ym2612"
    },
    {
      "channel": 2,
      "note": 45,
      "start": 205.1477,
      "duration": 0.1396,
      "velocity": 62,
      "chip": "ym2612"
    },
    {
      "channel": 3,
      "note": 24,
      "start": 205.1549,
      "duration": 0.0278,
      "velocity": 112,
      "chip": "ym2612"
    },
    {
      "channel": 1,
      "note": 24,
      "start": 205.226,
      "duration": 0.0611,
      "velocity": 112,
      "chip": "ym2612"
    },
    {
      "channel": 0,
      "note": 43,
      "start": 205.3304,
      "duration": 0.5498,
      "velocity": 62,
      "chip": "ym2612"
    },
    {
      "channel": 1,
      "note": 60,
      "start": 205.3372,
      "duration": 0.0544,
      "velocity": 84,
      "chip": "ym2612"
    },
    {
      "channel": 2,
      "note": 55,
      "start": 205.3441,
      "duration": 0.1351,
      "velocity": 87,
      "chip": "ym2612"
    },
    {
      "channel": 1,
      "note": 57,
      "start": 205.5225,
      "duration": 0.1659,
      "velocity": 87,
      "chip": "ym2612"
    },
    {
      "channel": 2,
      "note": 64,
      "start": 205.5295,
      "duration": 0.0544,
      "velocity": 84,
      "chip": "ym2612"
    },
    {
      "channel": 3,
      "note": 67,
      "start": 205.5375,
      "duration": 0.0468,
      "velocity": 127,
      "chip": "ym2612"
    },
    {
      "channel": 1,
      "note": 67,
      "start": 205.7154,
      "duration": 0.0615,
      "velocity": 127,
      "chip": "ym2612"
    },
    {
      "channel": 2,
      "note": 55,
      "start": 205.7201,
      "duration": 0.0569,
      "velocity": 84,
      "chip": "ym2612"
    },
    {
      "channel": 3,
      "note": 64,
      "start": 205.7274,
      "duration": 0.1535,
      "velocity": 87,
      "chip": "ym2612"
    },
    {
      "channel": 1,
      "note": 67,
      "start": 205.8178,
      "duration": 0.0627,
      "velocity": 127,
      "chip": "ym2612"
    },
    {
      "channel": 0,
      "note": 54,
      "start": 205.9244,
      "duration": 0.1654,
      "velocity": 87,
      "chip": "ym2612"
    },
    {
      "channel": 1,
      "note": 54,
      "start": 205.9312,
      "duration": 0.054,
      "velocity": 84,
      "chip": "ym2612"
    },
    {
      "channel": 2,
      "note": 42,
      "start": 205.9382,
      "duration": 0.7456,
      "velocity": 62,
      "chip": "ym2612"
    },
    {
      "channel": 3,
      "note": 24,
      "start": 205.9453,
      "duration": 0.0403,
      "velocity": 112,
      "chip": "ym2612"
    },
    {
      "channel": 4,
      "note": 81,
      "start": 205.951,
      "duration": 1.5184,
      "velocity": 80,
      "chip": "ym2612"
    },
    {
      "channel": 0,
      "note": 57,
      "start": 206.1311,
      "duration": 0.1505,
      "velocity": 87,
      "chip": "ym2612"
    },
    {
      "channel": 0,
      "note": 54,
      "start": 206.3231,
      "duration": 0.172,
      "velocity": 87,
      "chip": "ym2612"
    },
    {
      "channel": 1,
      "note": 49,
      "start": 206.3277,
      "duration": 0.059,
      "velocity": 84,
      "chip": "ym2612"
    },
    {
      "channel": 3,
      "note": 67,
      "start": 206.3356,
      "duration": 0.0515,
      "velocity": 127,
      "chip": "ym2612"
    },
    {
      "channel": 0,
      "note": 61,
      "start": 206.5151,
      "duration": 0.1683,
      "velocity": 87,
      "chip": "ym2612"
    },
    {
      "channel": 0,
      "note": 54,
      "start": 206.7246,
      "duration": 0.1507,
      "velocity": 87,
      "chip": "ym2612"
    },
    {
      "channel": 1,
      "note": 57,
      "start": 206.7292,
      "duration": 0.0415,
      "velocity": 84,
      "chip": "ym2612"
    },
    {
      "channel": 2,
      "note": 24,
      "start": 206.7361,
      "duration": 0.0348,
      "velocity": 112,
      "chip": "ym2612"
    },
    {
      "channel": 3,
      "note": 37,
      "start": 206.7435,
      "duration": 0.7258,
      "velocity": 62,
      "chip": "ym2612"
    },
    {
      "channel": 1,
      "note": 24,
      "start": 206.8142,
      "duration": 0.0613,
      "velocity": 112,
      "chip": "ym2612"
    },
    {
      "channel": 0,
      "note": 52,
      "start": 206.9166,
      "duration": 0.1506,
      "velocity": 87,
      "chip": "ym2612"
    },
    {
      "channel": 0,
      "note": 54,
      "start": 207.1086,
      "duration": 0.1682,
      "velocity": 87,
      "chip": "ym2612"
    },
    {
      "channel": 1,
      "note": 52,
      "start": 207.1154,
      "duration": 0.0567,
      "velocity": 84,
      "chip": "ym2612"
    },
    {
      "channel": 2,
      "note": 67,
      "start": 207.1232,
      "duration": 0.0492,
      "velocity": 127,
      "chip": "ym2612"
    },
    {
      "channel": 0,
      "note": 61,
      "start": 207.3007,
      "duration": 0.1681,
      "velocity": 87,
      "chip": "ym2612"
    },
    {
      "channel": 0,
      "note": 54,
      "start": 207.5101,
      "duration": 0.1506,
      "velocity": 87,
      "chip": "ym2612"
    },
    {
      "channel": 1,
      "note": 54,
      "start": 207.5146,
      "duration": 0.0416,
      "velocity": 84,
      "chip": "ym2612"
    },
    {
      "channel": 2,
      "note": 24,
      "start": 207.5216,
      "duration": 0.0349,
      "velocity": 112,
      "chip": "ym2612"
    },
    {
      "channel": 3,
      "note": 45,
      "start": 207.5265,
      "duration": 0.3269,
      "velocity": 62,
      "chip": "ym2612"
    },
    {
      "channel": 4,
      "note": 85,
      "start": 207.5323,
      "duration": 0.7227,
      "velocity": 80,
      "chip": "ym2612"
    },
    {
      "channel": 0,
      "note": 57,
      "start": 207.7022,
      "duration": 0.1507,
      "velocity": 87,
      "chip": "ym2612"
    },
    {
      "channel": 0,
      "note": 54,
      "start": 207.8942,
      "duration": 0.1681,
      "velocity": 87,
      "chip": "ym2612"
    },
    {
      "channel": 1,
      "note": 45,
      "start": 207.901,
      "duration": 0.3535,
      "velocity": 62,
      "chip": "ym2612"
    },
    {
      "channel": 2,
      "note": 49,
      "start": 207.9079,
      "duration": 0.0499,
      "velocity": 84,
      "chip": "ym2612"
    },
    {
      "channel": 3,
      "note": 67,
      "start": 207.9159,
      "duration": 0.0422,
      "velocity": 127,
      "chip": "ym2612"
    },
    {
      "channel": 0,
      "note": 61,
      "start": 208.0861,
      "duration": 0.1681,
      "velocity": 87,
      "chip": "ym2612"
    },
    {
      "channel": 0,
      "note": 54,
      "start": 208.2956,
      "duration": 0.168,
      "velocity": 87,
      "chip": "ym2612"
    },
    {
      "channel": 1,
      "note": 57,
      "start": 208.3023,
      "duration": 0.0567,
      "velocity": 84,
      "chip": "ym2612"
    },
    {
      "channel": 2,
      "note": 42,
      "start": 208.3094,
      "duration": 0.1547,
      "velocity": 62,
      "chip": "ym2612"
    },
    {
      "channel": 3,
      "note": 78,
      "start": 208.3174,
      "duration": 0.7405,
      "velocity": 80,
      "chip": "ym2612"
    },
    {
      "channel": 4,
      "note": 24,
      "start": 208.3247,
      "duration": 0.0349,
      "velocity": 112,
      "chip": "ym2612"
    },
    {
      "channel": 1,
      "note": 24,
      "start": 208.4027,
      "duration": 0.0612,
      "velocity": 112,
      "chip": "ym2612"
    },
    {
      "channel": 0,
      "note": 40,
      "start": 208.5111,
      "duration": 0.5461,
      "velocity": 62,
      "chip": "ym2612"
    },
    {
      "channel": 1,
      "note": 52,
      "start": 208.5178,
      "duration": 0.1381,
      "velocity": 87,
      "chip": "ym2612"
    },
    {
      "channel": 1,
      "note": 54,
      "start": 208.6973,
      "duration": 0.1698,
      "velocity": 87,
      "chip": "ym2612"
    },
    {
      "channel": 2,
      "note": 52,
      "start": 208.7042,
      "duration": 0.0566,
      "velocity": 84,
      "chip": "ym2612"
    },
    {
      "channel": 4,
      "note": 67,
      "start": 208.7124,
      "duration": 0.0488,
      "velocity": 127,
      "chip": "ym2612"
    },
    {
      "channel": 2,
      "note": 67,
      "start": 208.8053,
      "duration": 0.062,
      "velocity": 127,
      "chip": "ym2612"
    },
    {
      "channel": 1,
      "note": 67,
      "start": 208.8923,
      "duration": 0.0604,
      "velocity": 127,
      "chip": "ym2612"
    },
    {
      "channel": 2,
      "note": 61,
      "start": 208.8993,
      "duration": 0.1584,
      "velocity": 87,
      "chip": "ym2612"
    },
    {
      "channel": 1,
      "note": 67,
      "start": 208.9947,
      "duration": 0.0627,
      "velocity": 127,
      "chip": "ym2612"
    },
    {
      "channel": 0,
      "note": 54,
      "start": 209.1017,
      "duration": 0.1651,
      "velocity": 87,
      "chip": "ym2612"
    },
    {
      "channel": 1,
      "note": 54,
      "start": 209.1085,
      "duration": 0.0534,
      "velocity": 84,
      "chip": "ym2612"
    },
    {
      "channel": 2,
      "note": 42,
      "start": 209.1154,
      "duration": 0.7451,
      "velocity": 62,
      "chip": "ym2612"
    },
    {
      "channel": 3,
      "note": 24,
      "start": 209.1225,
      "duration": 0.0398,
      "velocity": 112,
      "chip": "ym2612"
    },
    {
      "channel": 4,
      "note": 76,
      "start": 209.1307,
      "duration": 0.7302,
      "velocity": 80,
      "chip": "ym2612"
    },
    {
      "channel": 0,
      "note": 57,
      "start": 209.3126,
      "duration": 0.0588,
      "velocity": 84,
      "chip": "ym2612"
    },
    {
      "channel": 1,
      "note": 57,
      "start": 209.3194,
      "duration": 0.1394,
      "velocity": 87,
      "chip": "ym2612"
    },
    {
      "channel": 0,
      "note": 54,
      "start": 209.5022,
      "duration": 0.1659,
      "velocity": 87,
      "chip": "ym2612"
    },
    {
      "channel": 1,
      "note": 61,
      "start": 209.5092,
      "duration": 0.0543,
      "velocity": 84,
      "chip": "ym2612"
    },
    {
      "channel": 3,
      "note": 67,
      "start": 209.5171,
      "duration": 0.0467,
      "velocity": 127,
      "chip": "ym2612"
    },
    {
      "channel": 0,
      "note": 52,
      "start": 209.6942,
      "duration": 0.0612,
      "velocity": 84,
      "chip": "ym2612"
    },
    {
      "channel": 1,
      "note": 61,
      "start": 209.701,
      "duration": 0.1593,
      "velocity": 87,
      "chip": "ym2612"
    },
    {
      "channel": 0,
      "note": 54,
      "start": 209.9038,
      "duration": 0.1659,
      "velocity": 87,
      "chip": "ym2612"
    },
    {
      "channel": 1,
      "note": 54,
      "start": 209.9107,
      "duration": 0.0543,
      "velocity": 84,
      "chip": "ym2612"
    },
    {
      "channel": 2,
      "note": 81,
      "start": 209.9185,
      "duration": 0.7449,
      "velocity": 80,
      "chip": "ym2612"
    },
    {
      "channel": 3,
      "note": 24,
      "start": 209.9258,
      "duration": 0.0396,
      "velocity": 112,
      "chip": "ym2612"
    },
    {
      "channel": 4,
      "note": 37,
      "start": 209.9331,
      "duration": 0.7307,
      "velocity": 62,
      "chip": "ym2612"
    },
    {
      "channel": 1,
      "note": 24,
      "start": 210.0086,
      "duration": 0.0613,
      "velocity": 112,
      "chip": "ym2612"
    },
    {
      "channel": 0,
      "note": 57,
      "start": 210.1132,
      "duration": 0.0635,
      "velocity": 84,
      "chip": "ym2612"
    },
    {
      "channel": 1,
      "note": 52,
      "start": 210.1199,
      "duration": 0.1419,
      "velocity": 87,
      "chip": "ym2612"
    },
    {
      "channel": 0,
      "note": 54,
      "start": 210.3052,
      "duration": 0.1659,
      "velocity": 87,
      "chip": "ym2612"
    },
    {
      "channel": 1,
      "note": 61,
      "start": 210.3119,
      "duration": 0.0547,
      "velocity": 84,
      "chip": "ym2612"
    },
    {
      "channel": 3,
      "note": 67,
      "start": 210.3199,
      "duration": 0.0471,
      "velocity": 127,
      "chip": "ym2612"
    },
    {
      "channel": 0,
      "note": 52,
      "start": 210.4972,
      "duration": 0.0612,
      "velocity": 84,
      "chip": "ym2612"
    },
    {
      "channel": 1,
      "note": 61,
      "start": 210.5039,
      "duration": 0.1593,
      "velocity": 87,
      "chip": "ym2612"
    },
    {
      "channel": 0,
      "note": 54,
      "start": 210.7067,
      "duration": 0.1659,
      "velocity": 87,
      "chip": "ym2612"
    },
    {
      "channel": 1,
      "note": 54,
      "start": 210.7135,
      "duration": 0.0544,
      "velocity": 84,
      "chip": "ym2612"
    },
    {
      "channel": 2,
      "note": 24,
      "start": 210.7204,
      "duration": 0.0478,
      "velocity": 112,
      "chip": "ym2612"
    },
    {
      "channel": 3,
      "note": 45,
      "start": 210.7276,
      "duration": 0.3375,
      "velocity": 62,
      "chip": "ym2612"
    },
    {
      "channel": 4,
      "note": 78,
      "start": 210.7356,
      "duration": 1.5168,
      "velocity": 80,
      "chip": "ym2612"
    },
    {
      "channel": 0,
      "note": 57,
      "start": 210.9161,
      "duration": 0.0611,
      "velocity": 84,
      "chip": "ym2612"
    },
    {
      "channel": 1,
      "note": 57,
      "start": 210.9229,
      "duration": 0.1418,
      "velocity": 87,
      "chip": "ym2612"
    },
    {
      "channel": 0,
      "note": 54,
      "start": 211.1081,
      "duration": 0.1659,
      "velocity": 87,
      "chip": "ym2612"
    },
    {
      "channel": 1,
      "note": 61,
      "start": 211.1149,
      "duration": 0.0547,
      "velocity": 84,
      "chip": "ym2612"
    },
    {
      "channel": 2,
      "note": 45,
      "start": 211.1218,
      "duration": 0.3447,
      "velocity": 62,
      "chip": "ym2612"
    },
    {
      "channel": 3,
      "note": 67,
      "start": 211.1298,
      "duration": 0.0401,
      "velocity": 127,
      "chip": "ym2612"
    },
    {
      "channel": 0,
      "note": 67,
      "start": 211.3009,
      "duration": 0.0604,
      "velocity": 127,
      "chip": "ym2612"
    },
    {
      "channel": 1,
      "note": 52,
      "start": 211.3055,
      "duration": 0.0561,
      "velocity": 84,
      "chip": "ym2612"
    },
    {
      "channel": 3,
      "note": 61,
      "start": 211.3126,
      "duration": 0.1541,
      "velocity": 87,
      "chip": "ym2612"
    },
    {
      "channel": 0,
      "note": 67,
      "start": 211.4033,
      "duration": 0.0628,
      "velocity": 127,
      "chip": "ym2612"
    },
    {
      "channel": 0,
      "note": 54,
      "start": 211.51,
      "duration": 0.1481,
      "velocity": 87,
      "chip": "ym2612"
    },
    {
      "channel": 1,
      "note": 54,
      "start": 211.5145,
      "duration": 0.0417,
      "velocity": 84,
      "chip": "ym2612"
    },
    {
      "channel": 2,
      "note": 42,
      "start": 211.5193,
      "duration": 0.1393,
      "velocity": 62,
      "chip": "ym2612"
    },
    {
      "channel": 3,
      "note": 24,
      "start": 211.5266,
      "duration": 0.03,
      "velocity": 112,
      "chip": "ym2612"
    },
    {
      "channel": 1,
      "note": 24,
      "start": 211.597,
      "duration": 0.0614,
      "velocity": 112,
      "chip": "ym2612"
    },
    {
      "channel": 0,
      "note": 40,
      "start": 211.7049,
      "duration": 0.5468,
      "velocity": 62,
      "chip": "ym2612"
    },
    {
      "channel": 1,
      "note": 57,
      "start": 211.7116,
      "duration": 0.0513,
      "velocity": 84,
      "chip": "ym2612"
    },
    {
      "channel": 2,
      "note": 52,
      "start": 211.7185,
      "duration": 0.1319,
      "velocity": 87,
      "chip": "ym2612"
    },
    {
      "channel": 1,
      "note": 54,
      "start": 211.8939,
      "duration": 0.1661,
      "velocity": 87,
      "chip": "ym2612"
    },
    {
      "channel": 2,
      "note": 61,
      "start": 211.9008,
      "duration": 0.0543,
      "velocity": 84,
      "chip": "ym2612"
    },
    {
      "channel": 3,
      "note": 67,
      "start": 211.9088,
      "duration": 0.0466,
      "velocity": 127,
      "chip": "ym2612"
    },
    {
      "channel": 1,
      "note": 67,
      "start": 212.0866,
      "duration": 0.0604,
      "velocity": 127,
      "chip": "ym2612"
    },
    {
      "channel": 2,
      "note": 52,
      "start": 212.0913,
      "duration": 0.0559,
      "velocity": 84,
      "chip": "ym2612"
    },
    {
      "channel": 3,
      "note": 61,
      "start": 212.0984,
      "duration": 0.1537,
      "velocity": 87,
      "chip": "ym2612"
    },
    {
      "channel": 1,
      "note": 67,
      "start": 212.189,
      "duration": 0.0628,
      "velocity": 127,
      "chip": "ym2612"
    },
    {
      "channel": 0,
      "note": 59,
      "start": 212.2956,
      "duration": 0.1654,
      "velocity": 87,
      "chip": "ym2612"
    },
    {
      "channel": 1,
      "note": 59,
      "start": 212.3024,
      "duration": 0.0539,
      "velocity": 84,
      "chip": "ym2612"
    },
    {
      "channel": 2,
      "note": 47,
      "start": 212.3095,
      "duration": 0.7454,
      "velocity": 62,
      "chip": "ym2612"
    },
    {
      "channel": 3,
      "note": 24,
      "start": 212.3166,
      "duration": 0.0401,
      "velocity": 112,
      "chip": "ym2612"
    },
    {
      "channel": 4,
      "note": 74,
      "start": 212.3224,
      "duration": 1.5183,
      "velocity": 80,
      "chip": "ym2612"
    },
    {
      "channel": 0,
      "note": 62,
      "start": 212.5038,
      "duration": 0.1492,
      "velocity": 87,
      "chip": "ym2612"
    },
    {
      "channel": 0,
      "note": 59,
      "start": 212.6943,
      "duration": 0.1681,
      "velocity": 87,
      "chip": "ym2612"
    },
    {
      "channel": 1,
      "note": 54,
      "start": 212.6989,
      "duration": 0.0591,
      "velocity": 84,
      "chip": "ym2612"
    },
    {
      "channel": 3,
      "note": 67,
      "start": 212.7068,
      "duration": 0.0515,
      "velocity": 127,
      "chip": "ym2612"
    },
    {
      "channel": 0,
      "note": 66,
      "start": 212.8865,
      "duration": 0.1681,
      "velocity": 87,
      "chip": "ym2612"
    },
    {
      "channel": 0,
      "note": 59,
      "start": 213.0959,
      "duration": 0.1506,
      "velocity": 87,
      "chip": "ym2612"
    },
    {
      "channel": 1,
      "note": 62,
      "start": 213.1004,
      "duration": 0.0415,
      "velocity": 84,
      "chip": "ym2612"
    },
    {
      "channel": 2,
      "note": 24,
      "start": 213.1073,
      "duration": 0.0347,
      "velocity": 112,
      "chip": "ym2612"
    },
    {
      "channel": 3,
      "note": 42,
      "start": 213.1145,
      "duration": 0.726,
      "velocity": 62,
      "chip": "ym2612"
    },
    {
      "channel": 1,
      "note": 24,
      "start": 213.1855,
      "duration": 0.0612,
      "velocity": 112,
      "chip": "ym2612"
    },
    {
      "channel": 0,
      "note": 57,
      "start": 213.2884,
      "duration": 0.15,
      "velocity": 87,
      "chip": "ym2612"
    },
    {
      "channel": 0,
      "note": 59,
      "start": 213.4799,
      "duration": 0.1681,
      "velocity": 87,
      "chip": "ym2612"
    },
    {
      "channel": 1,
      "note": 57,
      "start": 213.4867,
      "duration": 0.0567,
      "velocity": 84,
      "chip": "ym2612"
    },
    {
      "channel": 2,
      "note": 67,
      "start": 213.4945,
      "duration": 0.0492,
      "velocity": 127,
      "chip": "ym2612"
    },
    {
      "channel": 0,
      "note": 66,
      "start": 213.6719,
      "duration": 0.1681,
      "velocity": 87,
      "chip": "ym2612"
    },
    {
      "channel": 0,
      "note": 59,
      "start": 213.8813,
      "duration": 0.1506,
      "velocity": 87,
      "chip": "ym2612"
    },
    {
      "channel": 1,
      "note": 59,
      "start": 213.8859,
      "duration": 0.0415,
      "velocity": 84,
      "chip": "ym2612"
    },
    {
      "channel": 2,
      "note": 24,
      "start": 213.893,
      "duration": 0.0346,
      "velocity": 112,
      "chip": "ym2612"
    },
    {
      "channel": 3,
      "note": 50,
      "start": 213.8979,
      "duration": 0.3265,
      "velocity": 62,
      "chip": "ym2612"
    },
    {
      "channel": 4,
      "note": 78,
      "start": 213.9037,
      "duration": 0.7226,
      "velocity": 80,
      "chip": "ym2612"
    },
    {
      "channel": 0,
      "note": 62,
      "start": 214.0748,
      "duration": 0.1491,
      "velocity": 87,
      "chip": "ym2612"
    },
    {
      "channel": 0,
      "note": 59,
      "start": 214.2654,
      "duration": 0.168,
      "velocity": 87,
      "chip": "ym2612"
    },
    {
      "channel": 1,
      "note": 50,
      "start": 214.2722,
      "duration": 0.3535,
      "velocity": 62,
      "chip": "ym2612"
    },
    {
      "channel": 2,
      "note": 54,
      "start": 214.2792,
      "duration": 0.0499,
      "velocity": 84,
      "chip": "ym2612"
    },
    {
      "channel": 3,
      "note": 67,
      "start": 214.2871,
      "duration": 0.0422,
      "velocity": 127,
      "chip": "ym2612"
    },
    {
      "channel": 0,
      "note": 66,
      "start": 214.4574,
      "duration": 0.1681,
      "velocity": 87,
      "chip": "ym2612"
    },
    {
      "channel": 0,
      "note": 59,
      "start": 214.6668,
      "duration": 0.1681,
      "velocity": 87,
      "chip": "ym2612"
    },
    {
      "channel": 1,
      "note": 62,
      "start": 214.6736,
      "duration": 0.0569,
      "velocity": 84,
      "chip": "ym2612"
    },
    {
      "channel": 2,
      "note": 47,
      "start": 214.6805,
      "duration": 0.1549,
      "velocity": 62,
      "chip": "ym2612"
    },
    {
      "channel": 3,
      "note": 71,
      "start": 214.6885,
      "duration": 0.7407,
      "velocity": 80,
      "chip": "ym2612"
    },
    {
      "channel": 4,
      "note": 24,
      "start": 214.6958,
      "duration": 0.0352,
      "velocity": 112,
      "chip": "ym2612"
    },
    {
      "channel": 1,
      "note": 24,
      "start": 214.7739,
      "duration": 0.0612,
      "velocity": 112,
      "chip": "ym2612"
    },
    {
      "channel": 0,
      "note": 45,
      "start": 214.8784,
      "duration": 0.55,
      "velocity": 62,
      "chip": "ym2612"
    },
    {
      "channel": 1,
      "note": 57,
      "start": 214.8852,
      "duration": 0.1419,
      "velocity": 87,
      "chip": "ym2612"
    },
    {
      "channel": 1,
      "note": 59,
      "start": 215.0685,
      "duration": 0.1681,
      "velocity": 87,
      "chip": "ym2612"
    },
    {
      "channel": 2,
      "note": 57,
      "start": 215.0756,
      "duration": 0.0564,
      "velocity": 84,
      "chip": "ym2612"
    },
    {
      "channel": 4,
      "note": 67,
      "start": 215.0837,
      "duration": 0.0487,
      "velocity": 127,
      "chip": "ym2612"
    },
    {
      "channel": 2,
      "note": 67,
      "start": 215.1763,
      "duration": 0.0605,
      "velocity": 127,
      "chip": "ym2612"
    },
    {
      "channel": 1,
      "note": 67,
      "start": 215.2636,
      "duration": 0.0602,
      "velocity": 127,
      "chip": "ym2612"
    },
    {
      "channel": 2,
      "note": 66,
      "start": 215.2705,
      "duration": 0.1584,
      "velocity": 87,
      "chip": "ym2612"
    },
    {
      "channel": 1,
      "note": 67,
      "start": 215.366,
      "duration": 0.0627,
      "velocity": 127,
      "chip": "ym2612"
    },
    {
      "channel": 0,
      "note": 59,
      "start": 215.4729,
      "duration": 0.1649,
      "velocity": 87,
      "chip": "ym2612"
    },
    {
      "channel": 1,
      "note": 59,
      "start": 215.4797,
      "duration": 0.0536,
      "velocity": 84,
      "chip": "ym2612"
    },
    {
      "channel": 2,
      "note": 47,
      "start": 215.4867,
      "duration": 0.7451,
      "velocity": 62,
      "chip": "ym2612"
    },
    {
      "channel": 3,
      "note": 24,
      "start": 215.494,
      "duration": 0.0398,
      "velocity": 112,
      "chip": "ym2612"
    },
    {
      "channel": 4,
      "note": 71,
      "start": 215.5021,
      "duration": 0.73,
      "velocity": 80,
      "chip": "ym2612"
    },
    {
      "channel": 0,
      "note": 62,
      "start": 215.6815,
      "duration": 0.0611,
      "velocity": 84,
      "chip": "ym2612"
    },
    {
      "channel": 1,
      "note": 62,
      "start": 215.6883,
      "duration": 0.1419,
      "velocity": 87,
      "chip": "ym2612"
    },
    {
      "channel": 0,
      "note": 59,
      "start": 215.8735,
      "duration": 0.1659,
      "velocity": 87,
      "chip": "ym2612"
    },
    {
      "channel": 1,
      "note": 66,
      "start": 215.8802,
      "duration": 0.0545,
      "velocity": 84,
      "chip": "ym2612"
    },
    {
      "channel": 3,
      "note": 67,
      "start": 215.8882,
      "duration": 0.0469,
      "velocity": 127,
      "chip": "ym2612"
    },
    {
      "channel": 0,
      "note": 57,
      "start": 216.0655,
      "duration": 0.0611,
      "velocity": 84,
      "chip": "ym2612"
    },
    {
      "channel": 1,
      "note": 66,
      "start": 216.0722,
      "duration": 0.1593,
      "velocity": 87,
      "chip": "ym2612"
    },
    {
      "channel": 0,
      "note": 59,
      "start": 216.2749,
      "duration": 0.1658,
      "velocity": 87,
      "chip": "ym2612"
    },
    {
      "channel": 1,
      "note": 59,
      "start": 216.2816,
      "duration": 0.0546,
      "velocity": 84,
      "chip": "ym2612"
    },
    {
      "channel": 2,
      "note": 74,
      "start": 216.2894,
      "duration": 0.7456,
      "velocity": 80,
      "chip": "ym2612"
    },
    {
      "channel": 3,
      "note": 24,
      "start": 216.2965,
      "duration": 0.0401,
      "velocity": 112,
      "chip": "ym2612"
    },
    {
      "channel": 4,
      "note": 42,
      "start": 216.3038,
      "duration": 0.7316,
      "velocity": 62,
      "chip": "ym2612"
    },
    {
      "channel": 1,
      "note": 24,
      "start": 216.3798,
      "duration": 0.0612,
      "velocity": 112,
      "chip": "ym2612"
    },
    {
      "channel": 0,
      "note": 62,
      "start": 216.4844,
      "duration": 0.0611,
      "velocity": 84,
      "chip": "ym2612"
    },
    {
      "channel": 1,
      "note": 57,
      "start": 216.4912,
      "duration": 0.1418,
      "velocity": 87,
      "chip": "ym2612"
    },
    {
      "channel": 0,
      "note": 59,
      "start": 216.6766,
      "duration": 0.1657,
      "velocity": 87,
      "chip": "ym2612"
    },
    {
      "channel": 1,
      "note": 66,
      "start": 216.6834,
      "duration": 0.0543,
      "velocity": 84,
      "chip": "ym2612"
    },
    {
      "channel": 3,
      "note": 67,
      "start": 216.6913,
      "duration": 0.0467,
      "velocity": 127,
      "chip": "ym2612"
    },
    {
      "channel": 0,
      "note": 57,
      "start": 216.8684,
      "duration": 0.0612,
      "velocity": 84,
      "chip": "ym2612"
    },
    {
      "channel": 1,
      "note": 66,
      "start": 216.8751,
      "duration": 0.1596,
      "velocity": 87,
      "chip": "ym2612"
    },
    {
      "channel": 0,
      "note": 59,
      "start": 217.0778,
      "duration": 0.166,
      "velocity": 87,
      "chip": "ym2612"
    },
    {
      "channel": 1,
      "note": 59,
      "start": 217.0846,
      "duration": 0.0546,
      "velocity": 84,
      "chip": "ym2612"
    },
    {
      "channel": 2,
      "note": 24,
      "start": 217.0915,
      "duration": 0.048,
      "velocity": 112,
      "chip": "ym2612"
    },
    {
      "channel": 3,
      "note": 50,
      "start": 217.0986,
      "duration": 0.3377,
      "velocity": 62,
      "chip": "ym2612"
    },
    {
      "channel": 4,
      "note": 74,
      "start": 217.1068,
      "duration": 1.5168,
      "velocity": 80,
      "chip": "ym2612"
    },
    {
      "channel": 0,
      "note": 62,
      "start": 217.2874,
      "duration": 0.0611,
      "velocity": 84,
      "chip": "ym2612"
    },
    {
      "channel": 1,
      "note": 62,
      "start": 217.2942,
      "duration": 0.1418,
      "velocity": 87,
      "chip": "ym2612"
    },
    {
      "channel": 0,
      "note": 59,
      "start": 217.4799,
      "duration": 0.1654,
      "velocity": 87,
      "chip": "ym2612"
    },
    {
      "channel": 1,
      "note": 66,
      "start": 217.4866,
      "duration": 0.054,
      "velocity": 84,
      "chip": "ym2612"
    },
    {
      "channel": 2,
      "note": 50,
      "start": 217.4937,
      "duration": 0.3438,
      "velocity": 62,
      "chip": "ym2612"
    },
    {
      "channel": 3,
      "note": 67,
      "start": 217.5017,
      "duration": 0.0393,
      "velocity": 127,
      "chip": "ym2612"
    },
    {
      "channel": 0,
      "note": 67,
      "start": 217.6722,
      "duration": 0.0604,
      "velocity": 127,
      "chip": "ym2612"
    },
    {
      "channel": 1,
      "note": 57,
      "start": 217.6767,
      "duration": 0.0561,
      "velocity": 84,
      "chip": "ym2612"
    },
    {
      "channel": 3,
      "note": 66,
      "start": 217.6839,
      "duration": 0.1539,
      "velocity": 87,
      "chip": "ym2612"
    },
    {
      "channel": 0,
      "note": 67,
      "start": 217.7746,
      "duration": 0.0626,
      "velocity": 127,
      "chip": "ym2612"
    },
    {
      "channel": 0,
      "note": 59,
      "start": 217.8809,
      "duration": 0.1485,
      "velocity": 87,
      "chip": "ym2612"
    },
    {
      "channel": 1,
      "note": 59,
      "start": 217.8854,
      "duration": 0.0393,
      "velocity": 84,
      "chip": "ym2612"
    },
    {
      "channel": 2,
      "note": 47,
      "start": 217.8902,
      "duration": 0.1396,
      "velocity": 62,
      "chip": "ym2612"
    },
    {
      "channel": 3,
      "note": 24,
      "start": 217.8973,
      "duration": 0.0278,
      "velocity": 112,
      "chip": "ym2612"
    },
    {
      "channel": 1,
      "note": 24,
      "start": 217.9682,
      "duration": 0.0614,
      "velocity": 112,
      "chip": "ym2612"
    },
    {
      "channel": 0,
      "note": 45,
      "start": 218.0729,
      "duration": 0.5498,
      "velocity": 62,
      "chip": "ym2612"
    },
    {
      "channel": 1,
      "note": 62,
      "start": 218.0796,
      "duration": 0.0545,
      "velocity": 84,
      "chip": "ym2612"
    },
    {
      "channel": 2,
      "note": 57,
      "start": 218.0866,
      "duration": 0.1351,
      "velocity": 87,
      "chip": "ym2612"
    },
    {
      "channel": 1,
      "note": 59,
      "start": 218.265,
      "duration": 0.1658,
      "velocity": 87,
      "chip": "ym2612"
    },
    {
      "channel": 2,
      "note": 66,
      "start": 218.272,
      "duration": 0.0543,
      "velocity": 84,
      "chip": "ym2612"
    },
    {
      "channel": 3,
      "note": 67,
      "start": 218.2799,
      "duration": 0.0466,
      "velocity": 127,
      "chip": "ym2612"
    },
    {
      "channel": 1,
      "note": 67,
      "start": 218.4578,
      "duration": 0.0604,
      "velocity": 127,
      "chip": "ym2612"
    },
    {
      "channel": 2,
      "note": 57,
      "start": 218.4626,
      "duration": 0.0559,
      "velocity": 84,
      "chip": "ym2612"
    },
    {
      "channel": 3,
      "note": 66,
      "start": 218.4697,
      "duration": 0.1536,
      "velocity": 87,
      "chip": "ym2612"
    },
    {
      "channel": 1,
      "note": 67,
      "start": 218.5603,
      "duration": 0.0627,
      "velocity": 127,
      "chip": "ym2612"
    },
    {
      "channel": 0,
      "note": 64,
      "start": 218.6669,
      "duration": 0.1654,
      "velocity": 87,
      "chip": "ym2612"
    },
    {
      "channel": 1,
      "note": 64,
      "start": 218.6737,
      "duration": 0.0539,
      "velocity": 84,
      "chip": "ym2612"
    },
    {
      "channel": 2,
      "note": 40,
      "start": 218.6806,
      "duration": 0.7454,
      "velocity": 62,
      "chip": "ym2612"
    },
    {
      "channel": 3,
      "note": 24,
      "start": 218.6877,
      "duration": 0.0403,
      "velocity": 112,
      "chip": "ym2612"
    },
    {
      "channel": 4,
      "note": 91,
      "start": 218.6935,
      "duration": 1.5184,
      "velocity": 80,
      "chip": "ym2612"
    },
    {
      "channel": 0,
      "note": 67,
      "start": 218.8736,
      "duration": 0.1507,
      "velocity": 87,
      "chip": "ym2612"
    },
    {
      "channel": 0,
      "note": 64,
      "start": 219.0655,
      "duration": 0.1681,
      "velocity": 87,
      "chip": "ym2612"
    },
    {
      "channel": 1,
      "note": 59,
      "start": 219.0701,
      "duration": 0.0591,
      "velocity": 84,
      "chip": "ym2612"
    },
    {
      "channel": 3,
      "note": 67,
      "start": 219.0781,
      "duration": 0.0515,
      "velocity": 127,
      "chip": "ym2612"
    },
    {
      "channel": 0,
      "note": 71,
      "start": 219.2575,
      "duration": 0.1681,
      "velocity": 87,
      "chip": "ym2612"
    },
    {
      "channel": 0,
      "note": 64,
      "start": 219.4671,
      "duration": 0.1506,
      "velocity": 87,
      "chip": "ym2612"
    },
    {
      "channel": 1,
      "note": 67,
      "start": 219.4717,
      "duration": 0.0415,
      "velocity": 84,
      "chip": "ym2612"
    },
    {
      "channel": 2,
      "note": 24,
      "start": 219.4786,
      "duration": 0.0347,
      "velocity": 112,
      "chip": "ym2612"
    },
    {
      "channel": 3,
      "note": 35,
      "start": 219.4857,
      "duration": 0.7259,
      "velocity": 62,
      "chip": "ym2612"
    },
    {
      "channel": 1,
      "note": 24,
      "start": 219.5566,
      "duration": 0.0614,
      "velocity": 112,
      "chip": "ym2612"
    },
    {
      "channel": 0,
      "note": 62,
      "start": 219.6593,
      "duration": 0.1505,
      "velocity": 87,
      "chip": "ym2612"
    },
    {
      "channel": 0,
      "note": 64,
      "start": 219.851,
      "duration": 0.1681,
      "velocity": 87,
      "chip": "ym2612"
    },
    {
      "channel": 1,
      "note": 62,
      "start": 219.8578,
      "duration": 0.0569,
      "velocity": 84,
      "chip": "ym2612"
    },
    {
      "channel": 2,
      "note": 67,
      "start": 219.8656,
      "duration": 0.0493,
      "velocity": 127,
      "chip": "ym2612"
    },
    {
      "channel": 0,
      "note": 71,
      "start": 220.0432,
      "duration": 0.1679,
      "velocity": 87,
      "chip": "ym2612"
    },
    {
      "channel": 0,
      "note": 64,
      "start": 220.2526,
      "duration": 0.1507,
      "velocity": 87,
      "chip": "ym2612"
    },
    {
      "channel": 1,
      "note": 64,
      "start": 220.2571,
      "duration": 0.0415,
      "velocity": 84,
      "chip": "ym2612"
    },
    {
      "channel": 2,
      "note": 24,
      "start": 220.2641,
      "duration": 0.0347,
      "velocity": 112,
      "chip": "ym2612"
    },
    {
      "channel": 3,
      "note": 43,
      "start": 220.269,
      "duration": 0.3267,
      "velocity": 62,
      "chip": "ym2612"
    },
    {
      "channel": 4,
      "note": 95,
      "start": 220.2748,
      "duration": 0.7226,
      "velocity": 80,
      "chip": "ym2612"
    },
    {
      "channel": 0,
      "note": 67,
      "start": 220.4446,
      "duration": 0.1507,
      "velocity": 87,
      "chip": "ym2612"
    },
    {
      "channel": 0,
      "note": 64,
      "start": 220.6365,
      "duration": 0.1681,
      "velocity": 87,
      "chip": "ym2612"
    },
    {
      "channel": 1,
      "note": 43,
      "start": 220.6435,
      "duration": 0.3534,
      "velocity": 62,
      "chip": "ym2612"
    },
    {
      "channel": 2,
      "note": 59,
      "start": 220.6504,
      "duration": 0.0499,
      "velocity": 84,
      "chip": "ym2612"
    },
    {
      "channel": 3,
      "note": 67,
      "start": 220.6583,
      "duration": 0.0422,
      "velocity": 127,
      "chip": "ym2612"
    },
    {
      "channel": 0,
      "note": 71,
      "start": 220.8285,
      "duration": 0.168,
      "velocity": 87,
      "chip": "ym2612"
    },
    {
      "channel": 0,
      "note": 64,
      "start": 221.038,
      "duration": 0.1681,
      "velocity": 87,
      "chip": "ym2612"
    },
    {
      "channel": 1,
      "note": 67,
      "start": 221.0449,
      "duration": 0.0567,
      "velocity": 84,
      "chip": "ym2612"
    },
    {
      "channel": 2,
      "note": 40,
      "start": 221.0518,
      "duration": 0.1549,
      "velocity": 62,
      "chip": "ym2612"
    },
    {
      "channel": 3,
      "note": 88,
      "start": 221.0598,
      "duration": 0.7407,
      "velocity": 80,
      "chip": "ym2612"
    },
    {
      "channel": 4,
      "note": 24,
      "start": 221.0671,
      "duration": 0.035,
      "velocity": 112,
      "chip": "ym2612"
    },
    {
      "channel": 1,
      "note": 24,
      "start": 221.1451,
      "duration": 0.0614,
      "velocity": 112,
      "chip": "ym2612"
    },
    {
      "channel": 0,
      "note": 38,
      "start": 221.2497,
      "duration": 0.55,
      "velocity": 62,
      "chip": "ym2612"
    },
    {
      "channel": 1,
      "note": 62,
      "start": 221.2564,
      "duration": 0.1419,
      "velocity": 87,
      "chip": "ym2612"
    },
    {
      "channel": 1,
      "note": 64,
      "start": 221.4395,
      "duration": 0.1683,
      "velocity": 87,
      "chip": "ym2612"
    },
    {
      "channel": 2,
      "note": 62,
      "start": 221.4464,
      "duration": 0.0607,
      "velocity": 84,
      "chip": "ym2612"
    },
    {
      "channel": 4,
      "note": 67,
      "start": 221.4545,
      "duration": 0.053,
      "velocity": 127,
      "chip": "ym2612"
    },
    {
      "channel": 2,
      "note": 67,
      "start": 221.5477,
      "duration": 0.0603,
      "velocity": 127,
      "chip": "ym2612"
    },
    {
      "channel": 1,
      "note": 67,
      "start": 221.6347,
      "duration": 0.0604,
      "velocity": 127,
      "chip": "ym2612"
    },
    {
      "channel": 2,
      "note": 71,
      "start": 221.6416,
      "duration": 0.1585,
      "velocity": 87,
      "chip": "ym2612"
    },
    {
      "channel": 1,
      "note": 67,
      "start": 221.7371,
      "duration": 0.0629,
      "velocity": 127,
      "chip": "ym2612"
    },
    {
      "channel": 0,
      "note": 64,
      "start": 221.8444,
      "duration": 0.1647,
      "velocity": 87,
      "chip": "ym2612"
    },
    {
      "channel": 1,
      "note": 64,
      "start": 221.8512,
      "duration": 0.0533,
      "velocity": 84,
      "chip": "ym2612"
    },
    {
      "channel": 2,
      "note": 40,
      "start": 221.8581,
      "duration": 0.7449,
      "velocity": 62,
      "chip": "ym2612"
    },
    {
      "channel": 3,
      "note": 24,
      "start": 221.8652,
      "duration": 0.0396,
      "velocity": 112,
      "chip": "ym2612"
    },
    {
      "channel": 4,
      "note": 86,
      "start": 221.8734,
      "duration": 0.73,
      "velocity": 80,
      "chip": "ym2612"
    },
    {
      "channel": 0,
      "note": 67,
      "start": 222.0526,
      "duration": 0.0612,
      "velocity": 84,
      "chip": "ym2612"
    },
    {
      "channel": 1,
      "note": 67,
      "start": 222.0596,
      "duration": 0.1417,
      "velocity": 87,
      "chip": "ym2612"
    },
    {
      "channel": 0,
      "note": 64,
      "start": 222.2446,
      "duration": 0.1659,
      "velocity": 87,
      "chip": "ym2612"
    },
    {
      "channel": 1,
      "note": 71,
      "start": 222.2514,
      "duration": 0.0579,
      "velocity": 84,
      "chip": "ym2612"
    },
    {
      "channel": 3,
      "note": 67,
      "start": 222.2593,
      "duration": 0.0504,
      "velocity": 127,
      "chip": "ym2612"
    },
    {
      "channel": 0,
      "note": 62,
      "start": 222.4367,
      "duration": 0.0611,
      "velocity": 84,
      "chip": "ym2612"
    },
    {
      "channel": 1,
      "note": 71,
      "start": 222.4437,
      "duration": 0.1592,
      "velocity": 87,
      "chip": "ym2612"
    },
    {
      "channel": 0,
      "note": 64,
      "start": 222.6461,
      "duration": 0.1691,
      "velocity": 87,
      "chip": "ym2612"
    },
    {
      "channel": 1,
      "note": 64,
      "start": 222.6529,
      "duration": 0.0544,
      "velocity": 84,
      "chip": "ym2612"
    },
    {
      "channel": 2,
      "note": 83,
      "start": 222.6607,
      "duration": 0.7452,
      "velocity": 80,
      "chip": "ym2612"
    },
    {
      "channel": 3,
      "note": 24,
      "start": 222.6678,
      "duration": 0.04,
      "velocity": 112,
      "chip": "ym2612"
    },
    {
      "channel": 4,
      "note": 35,
      "start": 222.6751,
      "duration": 0.7312,
      "velocity": 62,
      "chip": "ym2612"
    },
    {
      "channel": 1,
      "note": 24,
      "start": 222.7537,
      "duration": 0.0619,
      "velocity": 112,
      "chip": "ym2612"
    },
    {
      "channel": 0,
      "note": 67,
      "start": 222.8556,
      "duration": 0.0612,
      "velocity": 84,
      "chip": "ym2612"
    },
    {
      "channel": 1,
      "note": 62,
      "start": 222.8623,
      "duration": 0.1419,
      "velocity": 87,
      "chip": "ym2612"
    },
    {
      "channel": 0,
      "note": 64,
      "start": 223.0475,
      "duration": 0.166,
      "velocity": 87,
      "chip": "ym2612"
    },
    {
      "channel": 1,
      "note": 71,
      "start": 223.0543,
      "duration": 0.0549,
      "velocity": 84,
      "chip": "ym2612"
    },
    {
      "channel": 3,
      "note": 67,
      "start": 223.0622,
      "duration": 0.0473,
      "velocity": 127,
      "chip": "ym2612"
    },
    {
      "channel": 0,
      "note": 62,
      "start": 223.2397,
      "duration": 0.0611,
      "velocity": 84,
      "chip": "ym2612"
    },
    {
      "channel": 1,
      "note": 71,
      "start": 223.2465,
      "duration": 0.1593,
      "velocity": 87,
      "chip": "ym2612"
    },
    {
      "channel": 0,
      "note": 64,
      "start": 223.4491,
      "duration": 0.1659,
      "velocity": 87,
      "chip": "ym2612"
    },
    {
      "channel": 1,
      "note": 64,
      "start": 223.4559,
      "duration": 0.0544,
      "velocity": 84,
      "chip": "ym2612"
    },
    {
      "channel": 2,
      "note": 24,
      "start": 223.4628,
      "duration": 0.0478,
      "velocity": 112,
      "chip": "ym2612"
    },
    {
      "channel": 3,
      "note": 43,
      "start": 223.4699,
      "duration": 0.3376,
      "velocity": 62,
      "chip": "ym2612"
    },
    {
      "channel": 4,
      "note": 81,
      "start": 223.478,
      "duration": 1.5168,
      "velocity": 80,
      "chip": "ym2612"
    },
    {
      "channel": 0,
      "note": 67,
      "start": 223.6585,
      "duration": 0.0613,
      "velocity": 84,
      "chip": "ym2612"
    },
    {
      "channel": 1,
      "note": 67,
      "start": 223.6652,
      "duration": 0.1419,
      "velocity": 87,
      "chip": "ym2612"
    },
    {
      "channel": 0,
      "note": 64,
      "start": 223.8506,
      "duration": 0.1659,
      "velocity": 87,
      "chip": "ym2612"
    },
    {
      "channel": 1,
      "note": 71,
      "start": 223.8574,
      "duration": 0.0545,
      "velocity": 84,
      "chip": "ym2612"
    },
    {
      "channel": 2,
      "note": 43,
      "start": 223.8643,
      "duration": 0.3445,
      "velocity": 62,
      "chip": "ym2612"
    },
    {
      "channel": 3,
      "note": 67,
      "start": 223.8723,
      "duration": 0.04,
      "velocity": 127,
      "chip": "ym2612"
    },
    {
      "channel": 0,
      "note": 67,
      "start": 224.0435,
      "duration": 0.0602,
      "velocity": 127,
      "chip": "ym2612"
    },
    {
      "channel": 1,
      "note": 62,
      "start": 224.048,
      "duration": 0.0559,
      "velocity": 84,
      "chip": "ym2612"
    },
    {
      "channel": 3,
      "note": 71,
      "start": 224.0551,
      "duration": 0.1539,
      "velocity": 87,
      "chip": "ym2612"
    },
    {
      "channel": 0,
      "note": 67,
      "start": 224.1457,
      "duration": 0.0628,
      "velocity": 127,
      "chip": "ym2612"
    },
    {
      "channel": 0,
      "note": 64,
      "start": 224.252,
      "duration": 0.1485,
      "velocity": 87,
      "chip": "ym2612"
    },
    {
      "channel": 1,
      "note": 64,
      "start": 224.2566,
      "duration": 0.0393,
      "velocity": 84,
      "chip": "ym2612"
    },
    {
      "channel": 2,
      "note": 40,
      "start": 224.2613,
      "duration": 0.1396,
      "velocity": 62,
      "chip": "ym2612"
    },
    {
      "channel": 3,
      "note": 24,
      "start": 224.2684,
      "duration": 0.0278,
      "velocity": 112,
      "chip": "ym2612"
    },
    {
      "channel": 1,
      "note": 24,
      "start": 224.3395,
      "duration": 0.0612,
      "velocity": 112,
      "chip": "ym2612"
    },
    {
      "channel": 0,
      "note": 38,
      "start": 224.4442,
      "duration": 0.5498,
      "velocity": 62,
      "chip": "ym2612"
    },
    {
      "channel": 1,
      "note": 67,
      "start": 224.4509,
      "duration": 0.0545,
      "velocity": 84,
      "chip": "ym2612"
    },
    {
      "channel": 2,
      "note": 62,
      "start": 224.4578,
      "duration": 0.1349,
      "velocity": 87,
      "chip": "ym2612"
    },
    {
      "channel": 1,
      "note": 64,
      "start": 224.6363,
      "duration": 0.1659,
      "velocity": 87,
      "chip": "ym2612"
    },
    {
      "channel": 2,
      "note": 71,
      "start": 224.6432,
      "duration": 0.0543,
      "velocity": 84,
      "chip": "ym2612"
    },
    {
      "channel": 3,
      "note": 67,
      "start": 224.6512,
      "duration": 0.0466,
      "velocity": 127,
      "chip": "ym2612"
    },
    {
      "channel": 1,
      "note": 67,
      "start": 224.8291,
      "duration": 0.0602,
      "velocity": 127,
      "chip": "ym2612"
    },
    {
      "channel": 2,
      "note": 62,
      "start": 224.8339,
      "duration": 0.0557,
      "velocity": 84,
      "chip": "ym2612"
    },
    {
      "channel": 3,
      "note": 71,
      "start": 224.841,
      "duration": 0.1536,
      "velocity": 87,
      "chip": "ym2612"
    },
    {
      "channel": 1,
      "note": 67,
      "start": 224.9314,
      "duration": 0.0629,
      "velocity": 127,
      "chip": "ym2612"
    },
    {
      "channel": 0,
      "note": 24,
      "start": 225.038,
      "duration": 0.0432,
      "velocity": 112,
      "chip": "ym2612"
    },
    {
      "channel": 0,
      "note": 33,
      "start": 225.1347,
      "duration": 0.7319,
      "velocity": 94,
      "chip": "ym2612"
    },
    {
      "channel": 1,
      "note": 57,
      "start": 225.1423,
      "duration": 0.0438,
      "velocity": 99,
      "chip": "ym2612"
    },
    {
      "channel": 2,
      "note": 24,
      "start": 225.1492,
      "duration": 0.0372,
      "velocity": 112,
      "chip": "ym2612"
    },
    {
      "channel": 1,
      "note": 67,
      "start": 225.5273,
      "duration": 0.0604,
      "velocity": 127,
      "chip": "ym2612"
    },
    {
      "channel": 2,
      "note": 52,
      "start": 225.535,
      "duration": 0.0529,
      "velocity": 99,
      "chip": "ym2612"
    }
  ]
}