{
  "track_name": "03 - Track 3",
  "duration_sec": 92.176,
  "sample_rate": 44100,
  "note_count": 1030,
  "unique_pitches": 42,
  "pitch_range": 52,
  "avg_note_duration": 0.3513,
  "reconstruction_stats": {
    "notes_reconstructed": 1030,
    "keyon_events": 1030,
    "keyoff_events": 1027,
    "orphan_keyons": 3,
    "unique_pitches": 42,
    "pitch_range": 52,
    "avg_duration_sec": 0.3513
  },
  "metadata": {
    "source": "L\\Lord Monarch - Tokoton Sentou Densetsu\\03 - Track 3.vgz"
  },
  "notes": [
    {
      "channel": 0,
      "note": 66,
      "start": 0.0,
      "duration": 0.4734,
      "velocity": 97,
      "chip": "ym2612"
    },
    {
      "channel": 1,
      "note": 78,
      "start": 0.0,
      "duration": 0.4514,
      "velocity": 99,
      "chip": "ym2612"
    },
    {
      "channel": 2,
      "note": 54,
      "start": 0.0026,
      "duration": 0.8885,
      "velocity": 102,
      "chip": "ym2612"
    },
    {
      "channel": 3,
      "note": 45,
      "start": 0.0061,
      "duration": 0.4457,
      "velocity": 97,
      "chip": "ym2612"
    },
    {
      "channel": 4,
      "note": 82,
      "start": 0.1232,
      "duration": 0.4827,
      "velocity": 97,
      "chip": "ym2612"
    },
    {
      "channel": 0,
      "note": 68,
      "start": 0.4736,
      "duration": 0.0873,
      "velocity": 97,
      "chip": "ym2612"
    },
    {
      "channel": 1,
      "note": 80,
      "start": 0.4743,
      "duration": 0.0649,
      "velocity": 99,
      "chip": "ym2612"
    },
    {
      "channel": 3,
      "note": 78,
      "start": 0.4776,
      "duration": 0.0624,
      "velocity": 97,
      "chip": "ym2612"
    },
    {
      "channel": 0,
      "note": 70,
      "start": 0.5612,
      "duration": 0.0877,
      "velocity": 97,
      "chip": "ym2612"
    },
    {
      "channel": 1,
      "note": 82,
      "start": 0.5617,
      "duration": 0.0654,
      "velocity": 99,
      "chip": "ym2612"
    },
    {
      "channel": 3,
      "note": 76,
      "start": 0.5626,
      "duration": 0.0651,
      "velocity": 97,
      "chip": "ym2612"
    },
    {
      "channel": 4,
      "note": 66,
      "start": 0.6063,
      "duration": 0.0875,
      "velocity": 97,
      "chip": "ym2612"
    },
    {
      "channel": 0,
      "note": 71,
      "start": 0.6491,
      "duration": 0.0877,
      "velocity": 97,
      "chip": "ym2612"
    },
    {
      "channel": 1,
      "note": 83,
      "start": 0.6496,
      "duration": 0.0654,
      "velocity": 99,
      "chip": "ym2612"
    },
    {
      "channel": 3,
      "note": 75,
      "start": 0.6504,
      "duration": 0.0652,
      "velocity": 97,
      "chip": "ym2612"
    },
    {
      "channel": 4,
      "note": 68,
      "start": 0.6941,
      "duration": 0.0876,
      "velocity": 97,
      "chip": "ym2612"
    },
    {
      "channel": 0,
      "note": 73,
      "start": 0.737,
      "duration": 0.0876,
      "velocity": 97,
      "chip": "ym2612"
    },
    {
      "channel": 1,
      "note": 85,
      "start": 0.7374,
      "duration": 0.0654,
      "velocity": 99,
      "chip": "ym2612"
    },
    {
      "channel": 3,
      "note": 73,
      "start": 0.7383,
      "duration": 0.0651,
      "velocity": 97,
      "chip": "ym2612"
    },
    {
      "channel": 4,
      "note": 70,
      "start": 0.782,
      "duration": 0.0876,
      "velocity": 97,
      "chip": "ym2612"
    },
    {
      "channel": 0,
      "note": 74,
      "start": 0.8248,
      "duration": 0.0877,
      "velocity": 97,
      "chip": "ym2612"
    },
    {
      "channel": 1,
      "note": 86,
      "start": 0.8254,
      "duration": 0.0656,
      "velocity": 99,
      "chip": "ym2612"
    },
    {
      "channel": 3,
      "note": 71,
      "start": 0.8262,
      "duration": 0.0653,
      "velocity": 97,
      "chip": "ym2612"
    },
    {
      "channel": 4,
      "note": 71,
      "start": 0.8699,
      "duration": 0.088,
      "velocity": 97,
      "chip": "ym2612"
    },
    {
      "channel": 0,
      "note": 75,
      "start": 0.9128,
      "duration": 0.164,
      "velocity": 97,
      "chip": "ym2612"
    },
    {
      "channel": 1,
      "note": 87,
      "start": 0.9149,
      "duration": 0.1862,
      "velocity": 99,
      "chip": "ym2612"
    },
    {
      "channel": 2,
      "note": 59,
      "start": 0.9154,
      "duration": 1.7027,
      "velocity": 102,
      "chip": "ym2612"
    },
    {
      "channel": 3,
      "note": 70,
      "start": 0.9161,
      "duration": 1.7024,
      "velocity": 97,
      "chip": "ym2612"
    },
    {
      "channel": 4,
      "note": 73,
      "start": 0.9583,
      "duration": 0.0473,
      "velocity": 97,
      "chip": "ym2612"
    },
    {
      "channel": 4,
      "note": 74,
      "start": 1.054,
      "duration": 0.1683,
      "velocity": 97,
      "chip": "ym2612"
    },
    {
      "channel": 0,
      "note": 75,
      "start": 1.3418,
      "duration": 0.1684,
      "velocity": 97,
      "chip": "ym2612"
    },
    {
      "channel": 1,
      "note": 87,
      "start": 1.3423,
      "duration": 0.1922,
      "velocity": 99,
      "chip": "ym2612"
    },
    {
      "channel": 4,
      "note": 75,
      "start": 1.4874,
      "duration": 0.1683,
      "velocity": 97,
      "chip": "ym2612"
    },
    {
      "channel": 0,
      "note": 75,
      "start": 1.7752,
      "duration": 0.1684,
      "velocity": 97,
      "chip": "ym2612"
    },
    {
      "channel": 1,
      "note": 87,
      "start": 1.7757,
      "duration": 0.1921,
      "velocity": 99,
      "chip": "ym2612"
    },
    {
      "channel": 4,
      "note": 75,
      "start": 1.9208,
      "duration": 0.1683,
      "velocity": 97,
      "chip": "ym2612"
    },
    {
      "channel": 0,
      "note": 73,
      "start": 2.2086,
      "duration": 1.6851,
      "velocity": 97,
      "chip": "ym2612"
    },
    {
      "channel": 1,
      "note": 90,
      "start": 2.2091,
      "duration": 1.9015,
      "velocity": 99,
      "chip": "ym2612"
    },
    {
      "channel": 4,
      "note": 75,
      "start": 2.3541,
      "duration": 1.6852,
      "velocity": 97,
      "chip": "ym2612"
    },
    {
      "channel": 2,
      "note": 58,
      "start": 2.6424,
      "duration": 1.7093,
      "velocity": 102,
      "chip": "ym2612"
    },
    {
      "channel": 3,
      "note": 71,
      "start": 2.643,
      "duration": 1.0589,
      "velocity": 97,
      "chip": "ym2612"
    },
    {
      "channel": 3,
      "note": 78,
      "start": 3.7264,
      "duration": 0.1923,
      "velocity": 97,
      "chip": "ym2612"
    },
    {
      "channel": 3,
      "note": 76,
      "start": 3.943,
      "duration": 0.1924,
      "velocity": 97,
      "chip": "ym2612"
    },
    {
      "channel": 3,
      "note": 75,
      "start": 4.1596,
      "duration": 0.1924,
      "velocity": 97,
      "chip": "ym2612"
    },
    {
      "channel": 0,
      "note": 71,
      "start": 4.3755,
      "duration": 0.1683,
      "velocity": 97,
      "chip": "ym2612"
    },
    {
      "channel": 1,
      "note": 87,
      "start": 4.376,
      "duration": 0.1921,
      "velocity": 99,
      "chip": "ym2612"
    },
    {
      "channel": 2,
      "note": 56,
      "start": 4.3765,
      "duration": 1.7087,
      "velocity": 102,
      "chip": "ym2612"
    },
    {
      "channel": 3,
      "note": 73,
      "start": 4.3771,
      "duration": 1.7084,
      "velocity": 97,
      "chip": "ym2612"
    },
    {
      "channel": 4,
      "note": 73,
      "start": 4.5211,
      "duration": 0.1681,
      "velocity": 97,
      "chip": "ym2612"
    },
    {
      "channel": 0,
      "note": 71,
      "start": 4.8088,
      "duration": 0.1684,
      "velocity": 97,
      "chip": "ym2612"
    },
    {
      "channel": 1,
      "note": 87,
      "start": 4.8093,
      "duration": 0.1922,
      "velocity": 99,
      "chip": "ym2612"
    },
    {
      "channel": 4,
      "note": 71,
      "start": 4.9545,
      "duration": 0.1682,
      "velocity": 97,
      "chip": "ym2612"
    },
    {
      "channel": 0,
      "note": 71,
      "start": 5.2422,
      "duration": 0.1683,
      "velocity": 97,
      "chip": "ym2612"
    },
    {
      "channel": 1,
      "note": 87,
      "start": 5.2427,
      "duration": 0.1922,
      "velocity": 99,
      "chip": "ym2612"
    },
    {
      "channel": 4,
      "note": 71,
      "start": 5.3879,
      "duration": 0.1682,
      "velocity": 97,
      "chip": "ym2612"
    },
    {
      "channel": 0,
      "note": 70,
      "start": 5.6756,
      "duration": 0.8184,
      "velocity": 97,
      "chip": "ym2612"
    },
    {
      "channel": 1,
      "note": 90,
      "start": 5.6761,
      "duration": 1.9256,
      "velocity": 99,
      "chip": "ym2612"
    },
    {
      "channel": 4,
      "note": 71,
      "start": 5.8213,
      "duration": 0.8182,
      "velocity": 97,
      "chip": "ym2612"
    },
    {
      "channel": 2,
      "note": 54,
      "start": 6.1094,
      "duration": 1.7093,
      "velocity": 102,
      "chip": "ym2612"
    },
    {
      "channel": 3,
      "note": 71,
      "start": 6.11,
      "duration": 0.8422,
      "velocity": 97,
      "chip": "ym2612"
    },
    {
      "channel": 0,
      "note": 71,
      "start": 6.5423,
      "duration": 0.3851,
      "velocity": 97,
      "chip": "ym2612"
    },
    {
      "channel": 4,
      "note": 70,
      "start": 6.6881,
      "duration": 0.3848,
      "velocity": 97,
      "chip": "ym2612"
    },
    {
      "channel": 0,
      "note": 70,
      "start": 6.9757,
      "duration": 0.385,
      "velocity": 97,
      "chip": "ym2612"
    },
    {
      "channel": 3,
      "note": 78,
      "start": 6.9768,
      "duration": 0.8422,
      "velocity": 97,
      "chip": "ym2612"
    },
    {
      "channel": 4,
      "note": 71,
      "start": 7.1214,
      "duration": 0.3849,
      "velocity": 97,
      "chip": "ym2612"
    },
    {
      "channel": 0,
      "note": 66,
      "start": 7.4091,
      "duration": 0.385,
      "velocity": 97,
      "chip": "ym2612"
    },
    {
      "channel": 4,
      "note": 70,
      "start": 7.5548,
      "duration": 0.3847,
      "velocity": 97,
      "chip": "ym2612"
    },
    {
      "channel": 0,
      "note": 68,
      "start": 7.8425,
      "duration": 1.035,
      "velocity": 97,
      "chip": "ym2612"
    },
    {
      "channel": 1,
      "note": 76,
      "start": 7.843,
      "duration": 0.2162,
      "velocity": 99,
      "chip": "ym2612"
    },
    {
      "channel": 2,
      "note": 52,
      "start": 7.8434,
      "duration": 1.7087,
      "velocity": 102,
      "chip": "ym2612"
    },
    {
      "channel": 3,
      "note": 66,
      "start": 7.8441,
      "duration": 1.2751,
      "velocity": 97,
      "chip": "ym2612"
    },
    {
      "channel": 4,
      "note": 66,
      "start": 7.9881,
      "duration": 1.0353,
      "velocity": 97,
      "chip": "ym2612"
    },
    {
      "channel": 1,
      "note": 88,
      "start": 8.2761,
      "duration": 0.1924,
      "velocity": 99,
      "chip": "ym2612"
    },
    {
      "channel": 1,
      "note": 87,
      "start": 8.4928,
      "duration": 0.1924,
      "velocity": 99,
      "chip": "ym2612"
    },
    {
      "channel": 1,
      "note": 88,
      "start": 8.7095,
      "duration": 0.2166,
      "velocity": 99,
      "chip": "ym2612"
    },
    {
      "channel": 0,
      "note": 68,
      "start": 9.1426,
      "duration": 0.1683,
      "velocity": 97,
      "chip": "ym2612"
    },
    {
      "channel": 1,
      "note": 83,
      "start": 9.1431,
      "duration": 0.2165,
      "velocity": 99,
      "chip": "ym2612"
    },
    {
      "channel": 3,
      "note": 64,
      "start": 9.1439,
      "duration": 0.1918,
      "velocity": 97,
      "chip": "ym2612"
    },
    {
      "channel": 4,
      "note": 68,
      "start": 9.2883,
      "duration": 0.1684,
      "velocity": 97,
      "chip": "ym2612"
    },
    {
      "channel": 0,
      "note": 70,
      "start": 9.3593,
      "duration": 0.1684,
      "velocity": 97,
      "chip": "ym2612"
    },
    {
      "channel": 3,
      "note": 64,
      "start": 9.3604,
      "duration": 0.1921,
      "velocity": 97,
      "chip": "ym2612"
    },
    {
      "channel": 4,
      "note": 68,
      "start": 9.5048,
      "duration": 0.1685,
      "velocity": 97,
      "chip": "ym2612"
    },
    {
      "channel": 0,
      "note": 71,
      "start": 9.576,
      "duration": 0.8184,
      "velocity": 97,
      "chip": "ym2612"
    },
    {
      "channel": 1,
      "note": 80,
      "start": 9.5764,
      "duration": 0.8423,
      "velocity": 99,
      "chip": "ym2612"
    },
    {
      "channel": 2,
      "note": 56,
      "start": 9.5769,
      "duration": 0.842,
      "velocity": 102,
      "chip": "ym2612"
    },
    {
      "channel": 3,
      "note": 66,
      "start": 9.5776,
      "duration": 0.8417,
      "velocity": 97,
      "chip": "ym2612"
    },
    {
      "channel": 4,
      "note": 70,
      "start": 9.7216,
      "duration": 0.8185,
      "velocity": 97,
      "chip": "ym2612"
    },
    {
      "channel": 0,
      "note": 75,
      "start": 10.4427,
      "duration": 0.8184,
      "velocity": 97,
      "chip": "ym2612"
    },
    {
      "channel": 1,
      "note": 83,
      "start": 10.4432,
      "duration": 0.8422,
      "velocity": 99,
      "chip": "ym2612"
    },
    {
      "channel": 2,
      "note": 59,
      "start": 10.4437,
      "duration": 0.842,
      "velocity": 102,
      "chip": "ym2612"
    },
    {
      "channel": 3,
      "note": 68,
      "start": 10.4443,
      "duration": 0.8417,
      "velocity": 97,
      "chip": "ym2612"
    },
    {
      "channel": 4,
      "note": 71,
      "start": 10.5883,
      "duration": 0.8185,
      "velocity": 97,
      "chip": "ym2612"
    },
    {
      "channel": 0,
      "note": 75,
      "start": 11.3095,
      "duration": 1.6852,
      "velocity": 97,
      "chip": "ym2612"
    },
    {
      "channel": 1,
      "note": 78,
      "start": 11.31,
      "duration": 0.2162,
      "velocity": 99,
      "chip": "ym2612"
    },
    {
      "channel": 2,
      "note": 54,
      "start": 11.3105,
      "duration": 1.7087,
      "velocity": 102,
      "chip": "ym2612"
    },
    {
      "channel": 3,
      "note": 71,
      "start": 11.311,
      "duration": 1.2752,
      "velocity": 97,
      "chip": "ym2612"
    },
    {
      "channel": 4,
      "note": 75,
      "start": 11.4551,
      "duration": 1.6852,
      "velocity": 97,
      "chip": "ym2612"
    },
    {
      "channel": 1,
      "note": 90,
      "start": 11.743,
      "duration": 0.1925,
      "velocity": 99,
      "chip": "ym2612"
    },
    {
      "channel": 1,
      "note": 89,
      "start": 11.9598,
      "duration": 0.1924,
      "velocity": 99,
      "chip": "ym2612"
    },
    {
      "channel": 1,
      "note": 90,
      "start": 12.1764,
      "duration": 0.2165,
      "velocity": 99,
      "chip": "ym2612"
    },
    {
      "channel": 1,
      "note": 85,
      "start": 12.6098,
      "duration": 0.2166,
      "velocity": 99,
      "chip": "ym2612"
    },
    {
      "channel": 3,
      "note": 66,
      "start": 12.6107,
      "duration": 0.1921,
      "velocity": 97,
      "chip": "ym2612"
    },
    {
      "channel": 3,
      "note": 66,
      "start": 12.8273,
      "duration": 0.1923,
      "velocity": 97,
      "chip": "ym2612"
    },
    {
      "channel": 0,
      "note": 73,
      "start": 13.043,
      "duration": 0.8184,
      "velocity": 97,
      "chip": "ym2612"
    },
    {
      "channel": 1,
      "note": 82,
      "start": 13.0434,
      "duration": 0.8422,
      "velocity": 99,
      "chip": "ym2612"
    },
    {
      "channel": 2,
      "note": 58,
      "start": 13.0439,
      "duration": 0.842,
      "velocity": 102,
      "chip": "ym2612"
    },
    {
      "channel": 3,
      "note": 68,
      "start": 13.0446,
      "duration": 1.275,
      "velocity": 97,
      "chip": "ym2612"
    },
    {
      "channel": 4,
      "note": 75,
      "start": 13.1886,
      "duration": 0.8185,
      "velocity": 97,
      "chip": "ym2612"
    },
    {
      "channel": 0,
      "note": 66,
      "start": 13.9097,
      "duration": 0.8184,
      "velocity": 97,
      "chip": "ym2612"
    },
    {
      "channel": 1,
      "note": 78,
      "start": 13.912,
      "duration": 0.407,
      "velocity": 99,
      "chip": "ym2612"
    },
    {
      "channel": 2,
      "note": 54,
      "start": 13.9125,
      "duration": 0.8402,
      "velocity": 102,
      "chip": "ym2612"
    },
    {
      "channel": 4,
      "note": 73,
      "start": 14.0585,
      "duration": 0.4059,
      "velocity": 99,
      "chip": "ym2612"
    },
    {
      "channel": 1,
      "note": 80,
      "start": 14.3433,
      "duration": 0.048,
      "velocity": 99,
      "chip": "ym2612"
    },
    {
      "channel": 3,
      "note": 70,
      "start": 14.3441,
      "duration": 0.1922,
      "velocity": 97,
      "chip": "ym2612"
    },
    {
      "channel": 1,
      "note": 82,
      "start": 14.4156,
      "duration": 0.048,
      "velocity": 99,
      "chip": "ym2612"
    },
    {
      "channel": 1,
      "note": 83,
      "start": 14.4878,
      "duration": 0.048,
      "velocity": 99,
      "chip": "ym2612"
    },
    {
      "channel": 4,
      "note": 78,
      "start": 14.4889,
      "duration": 0.0478,
      "velocity": 99,
      "chip": "ym2612"
    },
    {
      "channel": 1,
      "note": 84,
      "start": 14.56,
      "duration": 0.048,
      "velocity": 99,
      "chip": "ym2612"
    },
    {
      "channel": 3,
      "note": 71,
      "start": 14.5608,
      "duration": 0.1922,
      "velocity": 97,
      "chip": "ym2612"
    },
    {
      "channel": 4,
      "note": 80,
      "start": 14.5615,
      "duration": 0.0473,
      "velocity": 99,
      "chip": "ym2612"
    },
    {
      "channel": 1,
      "note": 85,
      "start": 14.6322,
      "duration": 0.048,
      "velocity": 99,
      "chip": "ym2612"
    },
    {
      "channel": 4,
      "note": 82,
      "start": 14.6334,
      "duration": 0.0477,
      "velocity": 99,
      "chip": "ym2612"
    },
    {
      "channel": 1,
      "note": 86,
      "start": 14.7046,
      "duration": 0.0479,
      "velocity": 99,
      "chip": "ym2612"
    },
    {
      "channel": 4,
      "note": 83,
      "start": 14.7057,
      "duration": 0.0477,
      "velocity": 99,
      "chip": "ym2612"
    },
    {
      "channel": 0,
      "note": 78,
      "start": 14.7781,
      "duration": 0.1666,
      "velocity": 97,
      "chip": "ym2612"
    },
    {
      "channel": 1,
      "note": 87,
      "start": 14.7804,
      "duration": 0.1887,
      "velocity": 99,
      "chip": "ym2612"
    },
    {
      "channel": 2,
      "note": 59,
      "start": 14.7809,
      "duration": 1.7052,
      "velocity": 102,
      "chip": "ym2612"
    },
    {
      "channel": 3,
      "note": 73,
      "start": 14.7839,
      "duration": 1.7025,
      "velocity": 97,
      "chip": "ym2612"
    },
    {
      "channel": 4,
      "note": 84,
      "start": 14.7846,
      "duration": 0.0408,
      "velocity": 99,
      "chip": "ym2612"
    },
    {
      "channel": 4,
      "note": 85,
      "start": 14.8497,
      "duration": 0.0479,
      "velocity": 99,
      "chip": "ym2612"
    },
    {
      "channel": 4,
      "note": 86,
      "start": 14.9248,
      "duration": 0.1895,
      "velocity": 99,
      "chip": "ym2612"
    },
    {
      "channel": 0,
      "note": 78,
      "start": 15.2098,
      "duration": 0.1683,
      "velocity": 97,
      "chip": "ym2612"
    },
    {
      "channel": 1,
      "note": 87,
      "start": 15.2103,
      "duration": 0.1921,
      "velocity": 99,
      "chip": "ym2612"
    },
    {
      "channel": 4,
      "note": 87,
      "start": 15.3554,
      "duration": 0.1924,
      "velocity": 99,
      "chip": "ym2612"
    },
    {
      "channel": 0,
      "note": 78,
      "start": 15.6432,
      "duration": 0.1683,
      "velocity": 97,
      "chip": "ym2612"
    },
    {
      "channel": 1,
      "note": 87,
      "start": 15.6437,
      "duration": 0.1922,
      "velocity": 99,
      "chip": "ym2612"
    },
    {
      "channel": 4,
      "note": 87,
      "start": 15.7888,
      "duration": 0.1924,
      "velocity": 99,
      "chip": "ym2612"
    },
    {
      "channel": 0,
      "note": 78,
      "start": 16.0766,
      "duration": 1.9019,
      "velocity": 97,
      "chip": "ym2612"
    },
    {
      "channel": 1,
      "note": 85,
      "start": 16.0771,
      "duration": 1.9257,
      "velocity": 99,
      "chip": "ym2612"
    },
    {
      "channel": 4,
      "note": 87,
      "start": 16.2221,
      "duration": 1.9259,
      "velocity": 99,
      "chip": "ym2612"
    },
    {
      "channel": 2,
      "note": 58,
      "start": 16.5104,
      "duration": 1.7093,
      "velocity": 102,
      "chip": "ym2612"
    },
    {
      "channel": 3,
      "note": 75,
      "start": 16.511,
      "duration": 1.709,
      "velocity": 97,
      "chip": "ym2612"
    },
    {
      "channel": 0,
      "note": 80,
      "start": 18.2435,
      "duration": 0.1683,
      "velocity": 97,
      "chip": "ym2612"
    },
    {
      "channel": 1,
      "note": 83,
      "start": 18.244,
      "duration": 0.1921,
      "velocity": 99,
      "chip": "ym2612"
    },
    {
      "channel": 2,
      "note": 56,
      "start": 18.2444,
      "duration": 1.7087,
      "velocity": 102,
      "chip": "ym2612"
    },
    {
      "channel": 3,
      "note": 73,
      "start": 18.2451,
      "duration": 1.2751,
      "velocity": 97,
      "chip": "ym2612"
    },
    {
      "channel": 4,
      "note": 85,
      "start": 18.389,
      "duration": 0.1924,
      "velocity": 99,
      "chip": "ym2612"
    },
    {
      "channel": 0,
      "note": 80,
      "start": 18.6768,
      "duration": 0.1684,
      "velocity": 97,
      "chip": "ym2612"
    },
    {
      "channel": 1,
      "note": 83,
      "start": 18.6773,
      "duration": 0.1921,
      "velocity": 99,
      "chip": "ym2612"
    },
    {
      "channel": 4,
      "note": 83,
      "start": 18.8224,
      "duration": 0.1924,
      "velocity": 99,
      "chip": "ym2612"
    },
    {
      "channel": 0,
      "note": 80,
      "start": 19.1102,
      "duration": 0.1684,
      "velocity": 97,
      "chip": "ym2612"
    },
    {
      "channel": 1,
      "note": 83,
      "start": 19.1107,
      "duration": 0.1921,
      "velocity": 99,
      "chip": "ym2612"
    },
    {
      "channel": 4,
      "note": 83,
      "start": 19.2558,
      "duration": 0.1924,
      "velocity": 99,
      "chip": "ym2612"
    },
    {
      "channel": 0,
      "note": 78,
      "start": 19.5436,
      "duration": 0.8184,
      "velocity": 97,
      "chip": "ym2612"
    },
    {
      "channel": 1,
      "note": 82,
      "start": 19.5441,
      "duration": 0.8423,
      "velocity": 99,
      "chip": "ym2612"
    },
    {
      "channel": 3,
      "note": 75,
      "start": 19.5449,
      "duration": 0.1918,
      "velocity": 97,
      "chip": "ym2612"
    },
    {
      "channel": 4,
      "note": 83,
      "start": 19.6891,
      "duration": 0.8425,
      "velocity": 99,
      "chip": "ym2612"
    },
    {
      "channel": 3,
      "note": 68,
      "start": 19.7611,
      "duration": 0.1924,
      "velocity": 97,
      "chip": "ym2612"
    },
    {
      "channel": 2,
      "note": 54,
      "start": 19.9774,
      "duration": 1.7093,
      "velocity": 102,
      "chip": "ym2612"
    },
    {
      "channel": 3,
      "note": 70,
      "start": 19.978,
      "duration": 0.8422,
      "velocity": 97,
      "chip": "ym2612"
    },
    {
      "channel": 0,
      "note": 80,
      "start": 20.4103,
      "duration": 0.385,
      "velocity": 97,
      "chip": "ym2612"
    },
    {
      "channel": 1,
      "note": 83,
      "start": 20.4108,
      "duration": 0.4088,
      "velocity": 99,
      "chip": "ym2612"
    },
    {
      "channel": 4,
      "note": 82,
      "start": 20.5559,
      "duration": 0.409,
      "velocity": 99,
      "chip": "ym2612"
    },
    {
      "channel": 0,
      "note": 78,
      "start": 20.8437,
      "duration": 0.385,
      "velocity": 97,
      "chip": "ym2612"
    },
    {
      "channel": 1,
      "note": 82,
      "start": 20.8442,
      "duration": 0.4088,
      "velocity": 99,
      "chip": "ym2612"
    },
    {
      "channel": 3,
      "note": 71,
      "start": 20.8451,
      "duration": 0.8419,
      "velocity": 97,
      "chip": "ym2612"
    },
    {
      "channel": 4,
      "note": 83,
      "start": 20.9892,
      "duration": 0.4091,
      "velocity": 99,
      "chip": "ym2612"
    },
    {
      "channel": 0,
      "note": 75,
      "start": 21.2771,
      "duration": 0.385,
      "velocity": 97,
      "chip": "ym2612"
    },
    {
      "channel": 1,
      "note": 78,
      "start": 21.2776,
      "duration": 0.4088,
      "velocity": 99,
      "chip": "ym2612"
    },
    {
      "channel": 4,
      "note": 82,
      "start": 21.4226,
      "duration": 0.409,
      "velocity": 99,
      "chip": "ym2612"
    },
    {
      "channel": 0,
      "note": 76,
      "start": 21.7105,
      "duration": 0.8184,
      "velocity": 97,
      "chip": "ym2612"
    },
    {
      "channel": 1,
      "note": 80,
      "start": 21.7109,
      "duration": 0.2163,
      "velocity": 99,
      "chip": "ym2612"
    },
    {
      "channel": 2,
      "note": 52,
      "start": 21.7114,
      "duration": 2.5755,
      "velocity": 102,
      "chip": "ym2612"
    },
    {
      "channel": 3,
      "note": 75,
      "start": 21.7121,
      "duration": 0.2156,
      "velocity": 97,
      "chip": "ym2612"
    },
    {
      "channel": 4,
      "note": 78,
      "start": 21.8559,
      "duration": 0.2164,
      "velocity": 99,
      "chip": "ym2612"
    },
    {
      "channel": 1,
      "note": 80,
      "start": 22.1441,
      "duration": 0.1924,
      "velocity": 99,
      "chip": "ym2612"
    },
    {
      "channel": 3,
      "note": 76,
      "start": 22.1449,
      "duration": 0.1922,
      "velocity": 97,
      "chip": "ym2612"
    },
    {
      "channel": 4,
      "note": 80,
      "start": 22.2893,
      "duration": 0.1924,
      "velocity": 99,
      "chip": "ym2612"
    },
    {
      "channel": 1,
      "note": 82,
      "start": 22.3607,
      "duration": 0.1924,
      "velocity": 99,
      "chip": "ym2612"
    },
    {
      "channel": 3,
      "note": 64,
      "start": 22.3616,
      "duration": 0.1921,
      "velocity": 97,
      "chip": "ym2612"
    },
    {
      "channel": 4,
      "note": 80,
      "start": 22.5061,
      "duration": 0.1923,
      "velocity": 99,
      "chip": "ym2612"
    },
    {
      "channel": 1,
      "note": 83,
      "start": 22.5776,
      "duration": 0.8423,
      "velocity": 99,
      "chip": "ym2612"
    },
    {
      "channel": 3,
      "note": 66,
      "start": 22.5784,
      "duration": 0.192,
      "velocity": 97,
      "chip": "ym2612"
    },
    {
      "channel": 4,
      "note": 82,
      "start": 22.7227,
      "duration": 0.8425,
      "velocity": 99,
      "chip": "ym2612"
    },
    {
      "channel": 0,
      "note": 68,
      "start": 23.0105,
      "duration": 0.1684,
      "velocity": 97,
      "chip": "ym2612"
    },
    {
      "channel": 3,
      "note": 68,
      "start": 23.0116,
      "duration": 0.1921,
      "velocity": 97,
      "chip": "ym2612"
    },
    {
      "channel": 0,
      "note": 70,
      "start": 23.2273,
      "duration": 0.1683,
      "velocity": 97,
      "chip": "ym2612"
    },
    {
      "channel": 3,
      "note": 80,
      "start": 23.2284,
      "duration": 0.1921,
      "velocity": 97,
      "chip": "ym2612"
    },
    {
      "channel": 0,
      "note": 71,
      "start": 23.4439,
      "duration": 0.8185,
      "velocity": 97,
      "chip": "ym2612"
    },
    {
      "channel": 3,
      "note": 78,
      "start": 23.4451,
      "duration": 0.8422,
      "velocity": 97,
      "chip": "ym2612"
    },
    {
      "channel": 1,
      "note": 83,
      "start": 23.8775,
      "duration": 0.1925,
      "velocity": 99,
      "chip": "ym2612"
    },
    {
      "channel": 4,
      "note": 83,
      "start": 24.0229,
      "duration": 0.1924,
      "velocity": 99,
      "chip": "ym2612"
    },
    {
      "channel": 1,
      "note": 85,
      "start": 24.0943,
      "duration": 0.1924,
      "velocity": 99,
      "chip": "ym2612"
    },
    {
      "channel": 4,
      "note": 83,
      "start": 24.24,
      "duration": 0.1919,
      "velocity": 99,
      "chip": "ym2612"
    },
    {
      "channel": 0,
      "note": 75,
      "start": 24.3107,
      "duration": 0.8184,
      "velocity": 97,
      "chip": "ym2612"
    },
    {
      "channel": 1,
      "note": 87,
      "start": 24.3112,
      "duration": 0.2162,
      "velocity": 99,
      "chip": "ym2612"
    },
    {
      "channel": 2,
      "note": 56,
      "start": 24.3117,
      "duration": 0.842,
      "velocity": 102,
      "chip": "ym2612"
    },
    {
      "channel": 3,
      "note": 76,
      "start": 24.3123,
      "duration": 0.8417,
      "velocity": 97,
      "chip": "ym2612"
    },
    {
      "channel": 4,
      "note": 85,
      "start": 24.4562,
      "duration": 0.2164,
      "velocity": 99,
      "chip": "ym2612"
    },
    {
      "channel": 1,
      "note": 87,
      "start": 24.7443,
      "duration": 0.1924,
      "velocity": 99,
      "chip": "ym2612"
    },
    {
      "channel": 4,
      "note": 87,
      "start": 24.89,
      "duration": 0.192,
      "velocity": 99,
      "chip": "ym2612"
    },
    {
      "channel": 1,
      "note": 88,
      "start": 24.961,
      "duration": 0.1924,
      "velocity": 99,
      "chip": "ym2612"
    },
    {
      "channel": 4,
      "note": 87,
      "start": 25.1068,
      "duration": 0.1919,
      "velocity": 99,
      "chip": "ym2612"
    },
    {
      "channel": 0,
      "note": 73,
      "start": 25.1774,
      "duration": 1.2518,
      "velocity": 97,
      "chip": "ym2612"
    },
    {
      "channel": 1,
      "note": 90,
      "start": 25.178,
      "duration": 1.2756,
      "velocity": 99,
      "chip": "ym2612"
    },
    {
      "channel": 2,
      "note": 54,
      "start": 25.1785,
      "duration": 1.7087,
      "velocity": 102,
      "chip": "ym2612"
    },
    {
      "channel": 3,
      "note": 71,
      "start": 25.179,
      "duration": 0.2156,
      "velocity": 97,
      "chip": "ym2612"
    },
    {
      "channel": 4,
      "note": 88,
      "start": 25.3229,
      "duration": 1.2759,
      "velocity": 99,
      "chip": "ym2612"
    },
    {
      "channel": 3,
      "note": 66,
      "start": 25.6115,
      "duration": 0.1925,
      "velocity": 97,
      "chip": "ym2612"
    },
    {
      "channel": 3,
      "note": 66,
      "start": 25.8283,
      "duration": 0.1924,
      "velocity": 97,
      "chip": "ym2612"
    },
    {
      "channel": 3,
      "note": 68,
      "start": 26.0451,
      "duration": 0.8424,
      "velocity": 97,
      "chip": "ym2612"
    },
    {
      "channel": 0,
      "note": 70,
      "start": 26.4776,
      "duration": 0.1683,
      "velocity": 97,
      "chip": "ym2612"
    },
    {
      "channel": 1,
      "note": 90,
      "start": 26.4781,
      "duration": 0.1921,
      "velocity": 99,
      "chip": "ym2612"
    },
    {
      "channel": 4,
      "note": 90,
      "start": 26.6234,
      "duration": 0.192,
      "velocity": 99,
      "chip": "ym2612"
    },
    {
      "channel": 0,
      "note": 71,
      "start": 26.6942,
      "duration": 0.1684,
      "velocity": 97,
      "chip": "ym2612"
    },
    {
      "channel": 1,
      "note": 92,
      "start": 26.6948,
      "duration": 0.1922,
      "velocity": 99,
      "chip": "ym2612"
    },
    {
      "channel": 4,
      "note": 90,
      "start": 26.8402,
      "duration": 0.192,
      "velocity": 99,
      "chip": "ym2612"
    },
    {
      "channel": 0,
      "note": 73,
      "start": 26.911,
      "duration": 0.8184,
      "velocity": 97,
      "chip": "ym2612"
    },
    {
      "channel": 1,
      "note": 94,
      "start": 26.9115,
      "duration": 0.8422,
      "velocity": 99,
      "chip": "ym2612"
    },
    {
      "channel": 2,
      "note": 58,
      "start": 26.912,
      "duration": 1.7087,
      "velocity": 102,
      "chip": "ym2612"
    },
    {
      "channel": 4,
      "note": 92,
      "start": 27.0567,
      "duration": 0.8422,
      "velocity": 99,
      "chip": "ym2612"
    },
    {
      "channel": 3,
      "note": 70,
      "start": 27.3451,
      "duration": 0.1924,
      "velocity": 97,
      "chip": "ym2612"
    },
    {
      "channel": 3,
      "note": 82,
      "start": 27.5618,
      "duration": 0.1925,
      "velocity": 97,
      "chip": "ym2612"
    },
    {
      "channel": 0,
      "note": 78,
      "start": 27.7777,
      "duration": 0.8184,
      "velocity": 97,
      "chip": "ym2612"
    },
    {
      "channel": 1,
      "note": 97,
      "start": 27.7782,
      "duration": 0.8422,
      "velocity": 99,
      "chip": "ym2612"
    },
    {
      "channel": 3,
      "note": 80,
      "start": 27.779,
      "duration": 0.842,
      "velocity": 97,
      "chip": "ym2612"
    },
    {
      "channel": 4,
      "note": 94,
      "start": 27.9235,
      "duration": 0.8421,
      "velocity": 99,
      "chip": "ym2612"
    },
    {
      "channel": 0,
      "note": 80,
      "start": 28.6461,
      "duration": 1.6835,
      "velocity": 97,
      "chip": "ym2612"
    },
    {
      "channel": 1,
      "note": 96,
      "start": 28.6466,
      "duration": 4.1244,
      "velocity": 99,
      "chip": "ym2612"
    },
    {
      "channel": 3,
      "note": 78,
      "start": 28.6476,
      "duration": 1.7069,
      "velocity": 97,
      "chip": "ym2612"
    },
    {
      "channel": 4,
      "note": 97,
      "start": 28.7902,
      "duration": 1.5646,
      "velocity": 99,
      "chip": "ym2612"
    },
    {
      "channel": 0,
      "note": 68,
      "start": 30.378,
      "duration": 2.3893,
      "velocity": 97,
      "chip": "ym2612"
    },
    {
      "channel": 2,
      "note": 56,
      "start": 30.3804,
      "duration": 2.3908,
      "velocity": 102,
      "chip": "ym2612"
    },
    {
      "channel": 3,
      "note": 68,
      "start": 30.3811,
      "duration": 2.3905,
      "velocity": 97,
      "chip": "ym2612"
    },
    {
      "channel": 4,
      "note": 96,
      "start": 30.3817,
      "duration": 2.4015,
      "velocity": 99,
      "chip": "ym2612"
    },
    {
      "channel": 3,
      "note": 72,
      "start": 32.7793,
      "duration": 0.0611,
      "velocity": 127,
      "chip": "ym2612"
    },
    {
      "channel": 1,
      "note": 54,
      "start": 32.8579,
      "duration": 0.034,
      "velocity": 99,
      "chip": "ym2612"
    },
    {
      "channel": 3,
      "note": 55,
      "start": 32.8612,
      "duration": 0.0316,
      "velocity": 127,
      "chip": "ym2612"
    },
    {
      "channel": 1,
      "note": 54,
      "start": 32.8956,
      "duration": 0.0321,
      "velocity": 99,
      "chip": "ym2612"
    },
    {
      "channel": 3,
      "note": 51,
      "start": 32.8966,
      "duration": 0.0317,
      "velocity": 127,
      "chip": "ym2612"
    },
    {
      "channel": 1,
      "note": 54,
      "start": 32.9318,
      "duration": 0.0348,
      "velocity": 99,
      "chip": "ym2612"
    },
    {
      "channel": 3,
      "note": 51,
      "start": 32.9327,
      "duration": 0.0345,
      "velocity": 127,
      "chip": "ym2612"
    },
    {
      "channel": 0,
      "note": 75,
      "start": 32.9721,
      "duration": 0.0402,
      "velocity": 97,
      "chip": "ym2612"
    },
    {
      "channel": 1,
      "note": 59,
      "start": 32.9727,
      "duration": 0.0427,
      "velocity": 99,
      "chip": "ym2612"
    },
    {
      "channel": 3,
      "note": 51,
      "start": 32.9787,
      "duration": 0.3399,
      "velocity": 115,
      "chip": "ym2612"
    },
    {
      "channel": 2,
      "note": 75,
      "start": 32.9911,
      "duration": 0.0743,
      "velocity": 97,
      "chip": "ym2612"
    },
    {
      "channel": 4,
      "note": 92,
      "start": 33.0076,
      "duration": 0.1293,
      "velocity": 97,
      "chip": "ym2612"
    },
    {
      "channel": 0,
      "note": 75,
      "start": 33.0296,
      "duration": 0.1773,
      "velocity": 97,
      "chip": "ym2612"
    },
    {
      "channel": 1,
      "note": 59,
      "start": 33.0301,
      "duration": 0.1948,
      "velocity": 99,
      "chip": "ym2612"
    },
    {
      "channel": 2,
      "note": 75,
      "start": 33.101,
      "duration": 0.148,
      "velocity": 97,
      "chip": "ym2612"
    },
    {
      "channel": 4,
      "note": 75,
      "start": 33.1727,
      "duration": 0.0883,
      "velocity": 97,
      "chip": "ym2612"
    },
    {
      "channel": 0,
      "note": 75,
      "start": 33.2426,
      "duration": 0.0576,
      "velocity": 97,
      "chip": "ym2612"
    },
    {
      "channel": 1,
      "note": 59,
      "start": 33.2432,
      "duration": 0.075,
      "velocity": 99,
      "chip": "ym2612"
    },
    {
      "channel": 2,
      "note": 75,
      "start": 33.2546,
      "duration": 0.092,
      "velocity": 97,
      "chip": "ym2612"
    },
    {
      "channel": 4,
      "note": 75,
      "start": 33.267,
      "duration": 0.0915,
      "velocity": 97,
      "chip": "ym2612"
    },
    {
      "channel": 0,
      "note": 73,
      "start": 33.3359,
      "duration": 0.2355,
      "velocity": 97,
      "chip": "ym2612"
    },
    {
      "channel": 1,
      "note": 58,
      "start": 33.3363,
      "duration": 0.2531,
      "velocity": 99,
      "chip": "ym2612"
    },
    {
      "channel": 3,
      "note": 58,
      "start": 33.3402,
      "duration": 0.0366,
      "velocity": 127,
      "chip": "ym2612"
    },
    {
      "channel": 2,
      "note": 73,
      "start": 33.3524,
      "duration": 0.2617,
      "velocity": 97,
      "chip": "ym2612"
    },
    {
      "channel": 4,
      "note": 75,
      "start": 33.3644,
      "duration": 0.2612,
      "velocity": 97,
      "chip": "ym2612"
    },
    {
      "channel": 3,
      "note": 51,
      "start": 33.3948,
      "duration": 0.1952,
      "velocity": 127,
      "chip": "ym2612"
    },
    {
      "channel": 1,
      "note": 51,
      "start": 33.6074,
      "duration": 0.0409,
      "velocity": 99,
      "chip": "ym2612"
    },
    {
      "channel": 3,
      "note": 51,
      "start": 33.6083,
      "duration": 0.0406,
      "velocity": 127,
      "chip": "ym2612"
    },
    {
      "channel": 1,
      "note": 55,
      "start": 33.6663,
      "duration": 0.0759,
      "velocity": 99,
      "chip": "ym2612"
    },
    {
      "channel": 3,
      "note": 51,
      "start": 33.6671,
      "duration": 0.0755,
      "velocity": 127,
      "chip": "ym2612"
    },
    {
      "channel": 0,
      "note": 71,
      "start": 33.7594,
      "duration": 0.2429,
      "velocity": 97,
      "chip": "ym2612"
    },
    {
      "channel": 1,
      "note": 56,
      "start": 33.7599,
      "duration": 0.2535,
      "velocity": 99,
      "chip": "ym2612"
    },
    {
      "channel": 3,
      "note": 51,
      "start": 33.7607,
      "duration": 0.1945,
      "velocity": 127,
      "chip": "ym2612"
    },
    {
      "channel": 2,
      "note": 71,
      "start": 33.8308,
      "duration": 0.236,
      "velocity": 97,
      "chip": "ym2612"
    },
    {
      "channel": 4,
      "note": 73,
      "start": 33.9024,
      "duration": 0.2362,
      "velocity": 97,
      "chip": "ym2612"
    },
    {
      "channel": 3,
      "note": 51,
      "start": 33.9734,
      "duration": 0.0406,
      "velocity": 127,
      "chip": "ym2612"
    },
    {
      "channel": 0,
      "note": 71,
      "start": 34.0311,
      "duration": 0.1774,
      "velocity": 97,
      "chip": "ym2612"
    },
    {
      "channel": 1,
      "note": 56,
      "start": 34.0316,
      "duration": 0.1949,
      "velocity": 99,
      "chip": "ym2612"
    },
    {
      "channel": 3,
      "note": 51,
      "start": 34.0324,
      "duration": 0.1945,
      "velocity": 127,
      "chip": "ym2612"
    },
    {
      "channel": 2,
      "note": 71,
      "start": 34.1025,
      "duration": 0.1484,
      "velocity": 97,
      "chip": "ym2612"
    },
    {
      "channel": 4,
      "note": 71,
      "start": 34.1741,
      "duration": 0.0892,
      "velocity": 97,
      "chip": "ym2612"
    },
    {
      "channel": 0,
      "note": 71,
      "start": 34.2442,
      "duration": 0.058,
      "velocity": 97,
      "chip": "ym2612"
    },
    {
      "channel": 1,
      "note": 56,
      "start": 34.2447,
      "duration": 0.0755,
      "velocity": 99,
      "chip": "ym2612"
    },
    {
      "channel": 3,
      "note": 51,
      "start": 34.2455,
      "duration": 0.0752,
      "velocity": 127,
      "chip": "ym2612"
    },
    {
      "channel": 2,
      "note": 71,
      "start": 34.2573,
      "duration": 0.088,
      "velocity": 97,
      "chip": "ym2612"
    },
    {
      "channel": 4,
      "note": 71,
      "start": 34.27,
      "duration": 0.0874,
      "velocity": 97,
      "chip": "ym2612"
    },
    {
      "channel": 0,
      "note": 70,
      "start": 34.3378,
      "duration": 0.2356,
      "velocity": 97,
      "chip": "ym2612"
    },
    {
      "channel": 1,
      "note": 54,
      "start": 34.3383,
      "duration": 0.2531,
      "velocity": 99,
      "chip": "ym2612"
    },
    {
      "channel": 3,
      "note": 51,
      "start": 34.3392,
      "duration": 0.0397,
      "velocity": 127,
      "chip": "ym2612"
    },
    {
      "channel": 2,
      "note": 70,
      "start": 34.3511,
      "duration": 0.2653,
      "velocity": 97,
      "chip": "ym2612"
    },
    {
      "channel": 4,
      "note": 71,
      "start": 34.3632,
      "duration": 0.2663,
      "velocity": 97,
      "chip": "ym2612"
    },
    {
      "channel": 3,
      "note": 51,
      "start": 34.3974,
      "duration": 0.1946,
      "velocity": 127,
      "chip": "ym2612"
    },
    {
      "channel": 0,
      "note": 71,
      "start": 34.6091,
      "duration": 0.031,
      "velocity": 97,
      "chip": "ym2612"
    },
    {
      "channel": 1,
      "note": 54,
      "start": 34.6096,
      "duration": 0.0404,
      "velocity": 99,
      "chip": "ym2612"
    },
    {
      "channel": 3,
      "note": 51,
      "start": 34.6105,
      "duration": 0.0402,
      "velocity": 127,
      "chip": "ym2612"
    },
    {
      "channel": 2,
      "note": 71,
      "start": 34.6232,
      "duration": 0.0514,
      "velocity": 97,
      "chip": "ym2612"
    },
    {
      "channel": 4,
      "note": 70,
      "start": 34.6352,
      "duration": 0.0523,
      "velocity": 97,
      "chip": "ym2612"
    },
    {
      "channel": 0,
      "note": 70,
      "start": 34.6678,
      "duration": 0.058,
      "velocity": 97,
      "chip": "ym2612"
    },
    {
      "channel": 1,
      "note": 47,
      "start": 34.6683,
      "duration": 0.0756,
      "velocity": 99,
      "chip": "ym2612"
    },
    {
      "channel": 3,
      "note": 51,
      "start": 34.6692,
      "duration": 0.0752,
      "velocity": 127,
      "chip": "ym2612"
    },
    {
      "channel": 2,
      "note": 70,
      "start": 34.6802,
      "duration": 0.1171,
      "velocity": 97,
      "chip": "ym2612"
    },
    {
      "channel": 4,
      "note": 71,
      "start": 34.6937,
      "duration": 0.1752,
      "velocity": 97,
      "chip": "ym2612"
    },
    {
      "channel": 0,
      "note": 68,
      "start": 34.7616,
      "duration": 0.5435,
      "velocity": 97,
      "chip": "ym2612"
    },
    {
      "channel": 1,
      "note": 52,
      "start": 34.7621,
      "duration": 0.2532,
      "velocity": 99,
      "chip": "ym2612"
    },
    {
      "channel": 3,
      "note": 51,
      "start": 34.7629,
      "duration": 0.1945,
      "velocity": 127,
      "chip": "ym2612"
    },
    {
      "channel": 2,
      "note": 68,
      "start": 34.8331,
      "duration": 0.5435,
      "velocity": 97,
      "chip": "ym2612"
    },
    {
      "channel": 4,
      "note": 70,
      "start": 34.9047,
      "duration": 0.5434,
      "velocity": 97,
      "chip": "ym2612"
    },
    {
      "channel": 3,
      "note": 51,
      "start": 34.9756,
      "duration": 0.0402,
      "velocity": 127,
      "chip": "ym2612"
    },
    {
      "channel": 1,
      "note": 52,
      "start": 35.0332,
      "duration": 0.1951,
      "velocity": 99,
      "chip": "ym2612"
    },
    {
      "channel": 3,
      "note": 51,
      "start": 35.0343,
      "duration": 0.1946,
      "velocity": 127,
      "chip": "ym2612"
    },
    {
      "channel": 1,
      "note": 52,
      "start": 35.2463,
      "duration": 0.0768,
      "velocity": 99,
      "chip": "ym2612"
    },
    {
      "channel": 3,
      "note": 51,
      "start": 35.2471,
      "duration": 0.0766,
      "velocity": 127,
      "chip": "ym2612"
    },
    {
      "channel": 0,
      "note": 71,
      "start": 35.3407,
      "duration": 0.242,
      "velocity": 97,
      "chip": "ym2612"
    },
    {
      "channel": 1,
      "note": 52,
      "start": 35.3412,
      "duration": 0.1949,
      "velocity": 99,
      "chip": "ym2612"
    },
    {
      "channel": 3,
      "note": 51,
      "start": 35.3421,
      "duration": 0.1945,
      "velocity": 127,
      "chip": "ym2612"
    },
    {
      "channel": 2,
      "note": 71,
      "start": 35.4122,
      "duration": 0.2073,
      "velocity": 97,
      "chip": "ym2612"
    },
    {
      "channel": 4,
      "note": 68,
      "start": 35.4842,
      "duration": 0.1471,
      "velocity": 97,
      "chip": "ym2612"
    },
    {
      "channel": 1,
      "note": 52,
      "start": 35.554,
      "duration": 0.0408,
      "velocity": 99,
      "chip": "ym2612"
    },
    {
      "channel": 3,
      "note": 51,
      "start": 35.5549,
      "duration": 0.0407,
      "velocity": 127,
      "chip": "ym2612"
    },
    {
      "channel": 0,
      "note": 75,
      "start": 35.6124,
      "duration": 0.1152,
      "velocity": 97,
      "chip": "ym2612"
    },
    {
      "channel": 1,
      "note": 52,
      "start": 35.6129,
      "duration": 0.0389,
      "velocity": 99,
      "chip": "ym2612"
    },
    {
      "channel": 3,
      "note": 51,
      "start": 35.6137,
      "duration": 0.0385,
      "velocity": 127,
      "chip": "ym2612"
    },
    {
      "channel": 2,
      "note": 75,
      "start": 35.6251,
      "duration": 0.1739,
      "velocity": 97,
      "chip": "ym2612"
    },
    {
      "channel": 4,
      "note": 71,
      "start": 35.6368,
      "duration": 0.234,
      "velocity": 97,
      "chip": "ym2612"
    },
    {
      "channel": 1,
      "note": 52,
      "start": 35.6697,
      "duration": 0.0759,
      "velocity": 99,
      "chip": "ym2612"
    },
    {
      "channel": 3,
      "note": 51,
      "start": 35.6706,
      "duration": 0.0755,
      "velocity": 127,
      "chip": "ym2612"
    },
    {
      "channel": 0,
      "note": 70,
      "start": 35.7633,
      "duration": 0.6011,
      "velocity": 97,
      "chip": "ym2612"
    },
    {
      "channel": 1,
      "note": 54,
      "start": 35.7638,
      "duration": 0.2535,
      "velocity": 99,
      "chip": "ym2612"
    },
    {
      "channel": 3,
      "note": 51,
      "start": 35.7646,
      "duration": 0.1945,
      "velocity": 127,
      "chip": "ym2612"
    },
    {
      "channel": 2,
      "note": 70,
      "start": 35.8347,
      "duration": 0.5731,
      "velocity": 97,
      "chip": "ym2612"
    },
    {
      "channel": 4,
      "note": 75,
      "start": 35.9063,
      "duration": 0.5145,
      "velocity": 97,
      "chip": "ym2612"
    },
    {
      "channel": 3,
      "note": 51,
      "start": 35.9773,
      "duration": 0.0406,
      "velocity": 127,
      "chip": "ym2612"
    },
    {
      "channel": 1,
      "note": 54,
      "start": 36.0352,
      "duration": 0.0411,
      "velocity": 99,
      "chip": "ym2612"
    },
    {
      "channel": 3,
      "note": 51,
      "start": 36.0361,
      "duration": 0.0409,
      "velocity": 127,
      "chip": "ym2612"
    },
    {
      "channel": 1,
      "note": 54,
      "start": 36.0946,
      "duration": 0.0747,
      "velocity": 99,
      "chip": "ym2612"
    },
    {
      "channel": 3,
      "note": 51,
      "start": 36.0957,
      "duration": 0.0742,
      "velocity": 127,
      "chip": "ym2612"
    },
    {
      "channel": 1,
      "note": 54,
      "start": 36.1873,
      "duration": 0.2553,
      "velocity": 99,
      "chip": "ym2612"
    },
    {
      "channel": 3,
      "note": 51,
      "start": 36.1881,
      "duration": 0.1948,
      "velocity": 127,
      "chip": "ym2612"
    },
    {
      "channel": 3,
      "note": 51,
      "start": 36.401,
      "duration": 0.0422,
      "velocity": 127,
      "chip": "ym2612"
    },
    {
      "channel": 0,
      "note": 68,
      "start": 36.4603,
      "duration": 0.0576,
      "velocity": 97,
      "chip": "ym2612"
    },
    {
      "channel": 1,
      "note": 54,
      "start": 36.4608,
      "duration": 0.0749,
      "velocity": 99,
      "chip": "ym2612"
    },
    {
      "channel": 3,
      "note": 51,
      "start": 36.4617,
      "duration": 0.0747,
      "velocity": 127,
      "chip": "ym2612"
    },
    {
      "channel": 2,
      "note": 68,
      "start": 36.4733,
      "duration": 0.0867,
      "velocity": 97,
      "chip": "ym2612"
    },
    {
      "channel": 4,
      "note": 70,
      "start": 36.4851,
      "duration": 0.0866,
      "velocity": 97,
      "chip": "ym2612"
    },
    {
      "channel": 0,
      "note": 66,
      "start": 36.5533,
      "duration": 0.151,
      "velocity": 97,
      "chip": "ym2612"
    },
    {
      "channel": 1,
      "note": 56,
      "start": 36.5538,
      "duration": 0.075,
      "velocity": 99,
      "chip": "ym2612"
    },
    {
      "channel": 3,
      "note": 51,
      "start": 36.5547,
      "duration": 0.0746,
      "velocity": 127,
      "chip": "ym2612"
    },
    {
      "channel": 2,
      "note": 66,
      "start": 36.5654,
      "duration": 0.1849,
      "velocity": 97,
      "chip": "ym2612"
    },
    {
      "channel": 4,
      "note": 68,
      "start": 36.5776,
      "duration": 0.1858,
      "velocity": 97,
      "chip": "ym2612"
    },
    {
      "channel": 1,
      "note": 58,
      "start": 36.6467,
      "duration": 0.0757,
      "velocity": 99,
      "chip": "ym2612"
    },
    {
      "channel": 3,
      "note": 51,
      "start": 36.6475,
      "duration": 0.0754,
      "velocity": 127,
      "chip": "ym2612"
    },
    {
      "channel": 0,
      "note": 75,
      "start": 36.74,
      "duration": 0.0336,
      "velocity": 97,
      "chip": "ym2612"
    },
    {
      "channel": 1,
      "note": 59,
      "start": 36.7405,
      "duration": 0.0402,
      "velocity": 99,
      "chip": "ym2612"
    },
    {
      "channel": 3,
      "note": 51,
      "start": 36.744,
      "duration": 0.3434,
      "velocity": 115,
      "chip": "ym2612"
    },
    {
      "channel": 2,
      "note": 75,
      "start": 36.7567,
      "duration": 0.0776,
      "velocity": 97,
      "chip": "ym2612"
    },
    {
      "channel": 4,
      "note": 66,
      "start": 36.7689,
      "duration": 0.1369,
      "velocity": 97,
      "chip": "ym2612"
    },
    {
      "channel": 0,
      "note": 75,
      "start": 36.7986,
      "duration": 0.1773,
      "velocity": 97,
      "chip": "ym2612"
    },
    {
      "channel": 1,
      "note": 59,
      "start": 36.7991,
      "duration": 0.1948,
      "velocity": 99,
      "chip": "ym2612"
    },
    {
      "channel": 2,
      "note": 75,
      "start": 36.87,
      "duration": 0.148,
      "velocity": 97,
      "chip": "ym2612"
    },
    {
      "channel": 4,
      "note": 75,
      "start": 36.9421,
      "duration": 0.0873,
      "velocity": 97,
      "chip": "ym2612"
    },
    {
      "channel": 0,
      "note": 75,
      "start": 37.0116,
      "duration": 0.0568,
      "velocity": 97,
      "chip": "ym2612"
    },
    {
      "channel": 1,
      "note": 59,
      "start": 37.0121,
      "duration": 0.0745,
      "velocity": 99,
      "chip": "ym2612"
    },
    {
      "channel": 2,
      "note": 75,
      "start": 37.0235,
      "duration": 0.0907,
      "velocity": 97,
      "chip": "ym2612"
    },
    {
      "channel": 4,
      "note": 75,
      "start": 37.0356,
      "duration": 0.0907,
      "velocity": 97,
      "chip": "ym2612"
    },
    {
      "channel": 0,
      "note": 73,
      "start": 37.1043,
      "duration": 0.2353,
      "velocity": 97,
      "chip": "ym2612"
    },
    {
      "channel": 1,
      "note": 58,
      "start": 37.1048,
      "duration": 0.2529,
      "velocity": 99,
      "chip": "ym2612"
    },
    {
      "channel": 3,
      "note": 58,
      "start": 37.1081,
      "duration": 0.0369,
      "velocity": 127,
      "chip": "ym2612"
    },
    {
      "channel": 2,
      "note": 73,
      "start": 37.12,
      "duration": 0.2622,
      "velocity": 97,
      "chip": "ym2612"
    },
    {
      "channel": 4,
      "note": 75,
      "start": 37.1321,
      "duration": 0.2631,
      "velocity": 97,
      "chip": "ym2612"
    },
    {
      "channel": 3,
      "note": 51,
      "start": 37.1631,
      "duration": 0.1952,
      "velocity": 127,
      "chip": "ym2612"
    },
    {
      "channel": 1,
      "note": 51,
      "start": 37.3757,
      "duration": 0.0411,
      "velocity": 99,
      "chip": "ym2612"
    },
    {
      "channel": 3,
      "note": 51,
      "start": 37.3765,
      "duration": 0.0409,
      "velocity": 127,
      "chip": "ym2612"
    },
    {
      "channel": 1,
      "note": 55,
      "start": 37.4348,
      "duration": 0.076,
      "velocity": 99,
      "chip": "ym2612"
    },
    {
      "channel": 3,
      "note": 51,
      "start": 37.4356,
      "duration": 0.0757,
      "velocity": 127,
      "chip": "ym2612"
    },
    {
      "channel": 0,
      "note": 71,
      "start": 37.5285,
      "duration": 0.2424,
      "velocity": 97,
      "chip": "ym2612"
    },
    {
      "channel": 1,
      "note": 56,
      "start": 37.5289,
      "duration": 0.2532,
      "velocity": 99,
      "chip": "ym2612"
    },
    {
      "channel": 3,
      "note": 51,
      "start": 37.5297,
      "duration": 0.1945,
      "velocity": 127,
      "chip": "ym2612"
    },
    {
      "channel": 2,
      "note": 71,
      "start": 37.5999,
      "duration": 0.2356,
      "velocity": 97,
      "chip": "ym2612"
    },
    {
      "channel": 4,
      "note": 73,
      "start": 37.6715,
      "duration": 0.2355,
      "velocity": 97,
      "chip": "ym2612"
    },
    {
      "channel": 3,
      "note": 51,
      "start": 37.7429,
      "duration": 0.0397,
      "velocity": 127,
      "chip": "ym2612"
    },
    {
      "channel": 0,
      "note": 71,
      "start": 37.7997,
      "duration": 0.1773,
      "velocity": 97,
      "chip": "ym2612"
    },
    {
      "channel": 1,
      "note": 56,
      "start": 37.8002,
      "duration": 0.1949,
      "velocity": 99,
      "chip": "ym2612"
    },
    {
      "channel": 3,
      "note": 51,
      "start": 37.8011,
      "duration": 0.1945,
      "velocity": 127,
      "chip": "ym2612"
    },
    {
      "channel": 2,
      "note": 71,
      "start": 37.8715,
      "duration": 0.1481,
      "velocity": 97,
      "chip": "ym2612"
    },
    {
      "channel": 4,
      "note": 71,
      "start": 37.9428,
      "duration": 0.0893,
      "velocity": 97,
      "chip": "ym2612"
    },
    {
      "channel": 0,
      "note": 71,
      "start": 38.0128,
      "duration": 0.0579,
      "velocity": 97,
      "chip": "ym2612"
    },
    {
      "channel": 1,
      "note": 56,
      "start": 38.0133,
      "duration": 0.0753,
      "velocity": 99,
      "chip": "ym2612"
    },
    {
      "channel": 3,
      "note": 51,
      "start": 38.0141,
      "duration": 0.075,
      "velocity": 127,
      "chip": "ym2612"
    },
    {
      "channel": 2,
      "note": 71,
      "start": 38.0256,
      "duration": 0.0881,
      "velocity": 97,
      "chip": "ym2612"
    },
    {
      "channel": 4,
      "note": 71,
      "start": 38.0385,
      "duration": 0.0872,
      "velocity": 97,
      "chip": "ym2612"
    },
    {
      "channel": 0,
      "note": 70,
      "start": 38.1063,
      "duration": 0.2362,
      "velocity": 97,
      "chip": "ym2612"
    },
    {
      "channel": 1,
      "note": 54,
      "start": 38.1068,
      "duration": 0.2537,
      "velocity": 99,
      "chip": "ym2612"
    },
    {
      "channel": 3,
      "note": 51,
      "start": 38.1077,
      "duration": 0.0405,
      "velocity": 127,
      "chip": "ym2612"
    },
    {
      "channel": 2,
      "note": 70,
      "start": 38.1196,
      "duration": 0.2669,
      "velocity": 97,
      "chip": "ym2612"
    },
    {
      "channel": 4,
      "note": 71,
      "start": 38.1316,
      "duration": 0.2674,
      "velocity": 97,
      "chip": "ym2612"
    },
    {
      "channel": 3,
      "note": 51,
      "start": 38.1659,
      "duration": 0.1952,
      "velocity": 127,
      "chip": "ym2612"
    },
    {
      "channel": 0,
      "note": 71,
      "start": 38.3783,
      "duration": 0.0319,
      "velocity": 97,
      "chip": "ym2612"
    },
    {
      "channel": 1,
      "note": 54,
      "start": 38.3788,
      "duration": 0.0414,
      "velocity": 99,
      "chip": "ym2612"
    },
    {
      "channel": 3,
      "note": 51,
      "start": 38.3796,
      "duration": 0.041,
      "velocity": 127,
      "chip": "ym2612"
    },
    {
      "channel": 2,
      "note": 71,
      "start": 38.3927,
      "duration": 0.052,
      "velocity": 97,
      "chip": "ym2612"
    },
    {
      "channel": 4,
      "note": 70,
      "start": 38.4054,
      "duration": 0.0524,
      "velocity": 97,
      "chip": "ym2612"
    },
    {
      "channel": 0,
      "note": 70,
      "start": 38.4379,
      "duration": 0.0577,
      "velocity": 97,
      "chip": "ym2612"
    },
    {
      "channel": 1,
      "note": 47,
      "start": 38.4384,
      "duration": 0.0751,
      "velocity": 99,
      "chip": "ym2612"
    },
    {
      "channel": 3,
      "note": 51,
      "start": 38.4392,
      "duration": 0.0748,
      "velocity": 127,
      "chip": "ym2612"
    },
    {
      "channel": 2,
      "note": 70,
      "start": 38.451,
      "duration": 0.1159,
      "velocity": 97,
      "chip": "ym2612"
    },
    {
      "channel": 4,
      "note": 71,
      "start": 38.4634,
      "duration": 0.1751,
      "velocity": 97,
      "chip": "ym2612"
    },
    {
      "channel": 0,
      "note": 68,
      "start": 38.5312,
      "duration": 0.5427,
      "velocity": 97,
      "chip": "ym2612"
    },
    {
      "channel": 1,
      "note": 52,
      "start": 38.5317,
      "duration": 0.2533,
      "velocity": 99,
      "chip": "ym2612"
    },
    {
      "channel": 3,
      "note": 51,
      "start": 38.5325,
      "duration": 0.1945,
      "velocity": 127,
      "chip": "ym2612"
    },
    {
      "channel": 2,
      "note": 68,
      "start": 38.6027,
      "duration": 0.5427,
      "velocity": 97,
      "chip": "ym2612"
    },
    {
      "channel": 4,
      "note": 70,
      "start": 38.6748,
      "duration": 0.5427,
      "velocity": 97,
      "chip": "ym2612"
    },
    {
      "channel": 3,
      "note": 51,
      "start": 38.7452,
      "duration": 0.0406,
      "velocity": 127,
      "chip": "ym2612"
    },
    {
      "channel": 1,
      "note": 52,
      "start": 38.8032,
      "duration": 0.1949,
      "velocity": 99,
      "chip": "ym2612"
    },
    {
      "channel": 3,
      "note": 51,
      "start": 38.804,
      "duration": 0.1947,
      "velocity": 127,
      "chip": "ym2612"
    },
    {
      "channel": 1,
      "note": 52,
      "start": 39.0161,
      "duration": 0.0759,
      "velocity": 99,
      "chip": "ym2612"
    },
    {
      "channel": 3,
      "note": 51,
      "start": 39.0169,
      "duration": 0.0757,
      "velocity": 127,
      "chip": "ym2612"
    },
    {
      "channel": 0,
      "note": 66,
      "start": 39.1097,
      "duration": 0.2432,
      "velocity": 97,
      "chip": "ym2612"
    },
    {
      "channel": 1,
      "note": 52,
      "start": 39.1102,
      "duration": 0.1949,
      "velocity": 99,
      "chip": "ym2612"
    },
    {
      "channel": 3,
      "note": 51,
      "start": 39.111,
      "duration": 0.1945,
      "velocity": 127,
      "chip": "ym2612"
    },
    {
      "channel": 2,
      "note": 66,
      "start": 39.1812,
      "duration": 0.2078,
      "velocity": 97,
      "chip": "ym2612"
    },
    {
      "channel": 4,
      "note": 68,
      "start": 39.2528,
      "duration": 0.1479,
      "velocity": 97,
      "chip": "ym2612"
    },
    {
      "channel": 1,
      "note": 52,
      "start": 39.3229,
      "duration": 0.0413,
      "velocity": 99,
      "chip": "ym2612"
    },
    {
      "channel": 3,
      "note": 51,
      "start": 39.3238,
      "duration": 0.041,
      "velocity": 127,
      "chip": "ym2612"
    },
    {
      "channel": 0,
      "note": 68,
      "start": 39.382,
      "duration": 0.1141,
      "velocity": 97,
      "chip": "ym2612"
    },
    {
      "channel": 1,
      "note": 52,
      "start": 39.3824,
      "duration": 0.039,
      "velocity": 99,
      "chip": "ym2612"
    },
    {
      "channel": 3,
      "note": 51,
      "start": 39.3833,
      "duration": 0.0387,
      "velocity": 127,
      "chip": "ym2612"
    },
    {
      "channel": 2,
      "note": 68,
      "start": 39.3945,
      "duration": 0.173,
      "velocity": 97,
      "chip": "ym2612"
    },
    {
      "channel": 4,
      "note": 66,
      "start": 39.4063,
      "duration": 0.2329,
      "velocity": 97,
      "chip": "ym2612"
    },
    {
      "channel": 1,
      "note": 52,
      "start": 39.4393,
      "duration": 0.0748,
      "velocity": 99,
      "chip": "ym2612"
    },
    {
      "channel": 3,
      "note": 51,
      "start": 39.4406,
      "duration": 0.0739,
      "velocity": 127,
      "chip": "ym2612"
    },
    {
      "channel": 0,
      "note": 70,
      "start": 39.5318,
      "duration": 0.3875,
      "velocity": 97,
      "chip": "ym2612"
    },
    {
      "channel": 1,
      "note": 54,
      "start": 39.5322,
      "duration": 0.2541,
      "velocity": 99,
      "chip": "ym2612"
    },
    {
      "channel": 3,
      "note": 51,
      "start": 39.5331,
      "duration": 0.1945,
      "velocity": 127,
      "chip": "ym2612"
    },
    {
      "channel": 2,
      "note": 70,
      "start": 39.6037,
      "duration": 0.3596,
      "velocity": 97,
      "chip": "ym2612"
    },
    {
      "channel": 4,
      "note": 68,
      "start": 39.6749,
      "duration": 0.3007,
      "velocity": 97,
      "chip": "ym2612"
    },
    {
      "channel": 3,
      "note": 51,
      "start": 39.7457,
      "duration": 0.0411,
      "velocity": 127,
      "chip": "ym2612"
    },
    {
      "channel": 1,
      "note": 54,
      "start": 39.8043,
      "duration": 0.0403,
      "velocity": 99,
      "chip": "ym2612"
    },
    {
      "channel": 3,
      "note": 51,
      "start": 39.805,
      "duration": 0.04,
      "velocity": 127,
      "chip": "ym2612"
    },
    {
      "channel": 1,
      "note": 54,
      "start": 39.8622,
      "duration": 0.0749,
      "velocity": 99,
      "chip": "ym2612"
    },
    {
      "channel": 3,
      "note": 51,
      "start": 39.8631,
      "duration": 0.0748,
      "velocity": 127,
      "chip": "ym2612"
    },
    {
      "channel": 0,
      "note": 71,
      "start": 39.9549,
      "duration": 0.0884,
      "velocity": 97,
      "chip": "ym2612"
    },
    {
      "channel": 1,
      "note": 55,
      "start": 39.9554,
      "duration": 0.091,
      "velocity": 99,
      "chip": "ym2612"
    },
    {
      "channel": 3,
      "note": 51,
      "start": 39.9563,
      "duration": 0.0401,
      "velocity": 127,
      "chip": "ym2612"
    },
    {
      "channel": 2,
      "note": 71,
      "start": 39.969,
      "duration": 0.0879,
      "velocity": 97,
      "chip": "ym2612"
    },
    {
      "channel": 4,
      "note": 70,
      "start": 39.9819,
      "duration": 0.0882,
      "velocity": 97,
      "chip": "ym2612"
    },
    {
      "channel": 0,
      "note": 73,
      "start": 40.0498,
      "duration": 0.3089,
      "velocity": 97,
      "chip": "ym2612"
    },
    {
      "channel": 1,
      "note": 51,
      "start": 40.0503,
      "duration": 0.1134,
      "velocity": 99,
      "chip": "ym2612"
    },
    {
      "channel": 2,
      "note": 73,
      "start": 40.063,
      "duration": 0.2962,
      "velocity": 97,
      "chip": "ym2612"
    },
    {
      "channel": 4,
      "note": 71,
      "start": 40.0773,
      "duration": 0.3463,
      "velocity": 97,
      "chip": "ym2612"
    },
    {
      "channel": 3,
      "note": 51,
      "start": 40.092,
      "duration": 0.2853,
      "velocity": 115,
      "chip": "ym2612"
    },
    {
      "channel": 1,
      "note": 58,
      "start": 40.182,
      "duration": 0.1947,
      "velocity": 99,
      "chip": "ym2612"
    },
    {
      "channel": 0,
      "note": 75,
      "start": 40.3961,
      "duration": 0.6606,
      "velocity": 97,
      "chip": "ym2612"
    },
    {
      "channel": 1,
      "note": 56,
      "start": 40.3988,
      "duration": 0.9823,
      "velocity": 99,
      "chip": "ym2612"
    },
    {
      "channel": 2,
      "note": 83,
      "start": 40.4011,
      "duration": 1.1756,
      "velocity": 97,
      "chip": "ym2612"
    },
    {
      "channel": 3,
      "note": 58,
      "start": 40.4043,
      "duration": 0.0362,
      "velocity": 127,
      "chip": "ym2612"
    },
    {
      "channel": 4,
      "note": 73,
      "start": 40.432,
      "duration": 0.6802,
      "velocity": 97,
      "chip": "ym2612"
    },
    {
      "channel": 3,
      "note": 51,
      "start": 40.454,
      "duration": 0.1952,
      "velocity": 127,
      "chip": "ym2612"
    },
    {
      "channel": 3,
      "note": 51,
      "start": 40.6672,
      "duration": 0.195,
      "velocity": 127,
      "chip": "ym2612"
    },
    {
      "channel": 3,
      "note": 51,
      "start": 40.8803,
      "duration": 0.195,
      "velocity": 127,
      "chip": "ym2612"
    },
    {
      "channel": 0,
      "note": 73,
      "start": 41.0925,
      "duration": 0.0575,
      "velocity": 97,
      "chip": "ym2612"
    },
    {
      "channel": 3,
      "note": 51,
      "start": 41.0938,
      "duration": 0.0747,
      "velocity": 127,
      "chip": "ym2612"
    },
    {
      "channel": 4,
      "note": 75,
      "start": 41.118,
      "duration": 0.175,
      "velocity": 97,
      "chip": "ym2612"
    },
    {
      "channel": 0,
      "note": 71,
      "start": 41.1857,
      "duration": 0.1774,
      "velocity": 97,
      "chip": "ym2612"
    },
    {
      "channel": 3,
      "note": 51,
      "start": 41.1868,
      "duration": 0.1949,
      "velocity": 127,
      "chip": "ym2612"
    },
    {
      "channel": 4,
      "note": 73,
      "start": 41.3288,
      "duration": 0.1774,
      "velocity": 97,
      "chip": "ym2612"
    },
    {
      "channel": 0,
      "note": 73,
      "start": 41.3988,
      "duration": 0.1774,
      "velocity": 97,
      "chip": "ym2612"
    },
    {
      "channel": 3,
      "note": 51,
      "start": 41.4,
      "duration": 0.1948,
      "velocity": 127,
      "chip": "ym2612"
    },
    {
      "channel": 4,
      "note": 71,
      "start": 41.5421,
      "duration": 0.0903,
      "velocity": 97,
      "chip": "ym2612"
    },
    {
      "channel": 0,
      "note": 75,
      "start": 41.6118,
      "duration": 0.3032,
      "velocity": 97,
      "chip": "ym2612"
    },
    {
      "channel": 1,
      "note": 56,
      "start": 41.6124,
      "duration": 0.2542,
      "velocity": 99,
      "chip": "ym2612"
    },
    {
      "channel": 2,
      "note": 80,
      "start": 41.6129,
      "duration": 0.3027,
      "velocity": 97,
      "chip": "ym2612"
    },
    {
      "channel": 3,
      "note": 51,
      "start": 41.6135,
      "duration": 0.041,
      "velocity": 127,
      "chip": "ym2612"
    },
    {
      "channel": 4,
      "note": 73,
      "start": 41.6386,
      "duration": 0.4118,
      "velocity": 97,
      "chip": "ym2612"
    },
    {
      "channel": 3,
      "note": 51,
      "start": 41.6746,
      "duration": 0.1926,
      "velocity": 127,
      "chip": "ym2612"
    },
    {
      "channel": 1,
      "note": 56,
      "start": 41.8845,
      "duration": 0.7728,
      "velocity": 99,
      "chip": "ym2612"
    },
    {
      "channel": 3,
      "note": 51,
      "start": 41.8854,
      "duration": 0.0403,
      "velocity": 127,
      "chip": "ym2612"
    },
    {
      "channel": 0,
      "note": 75,
      "start": 41.9429,
      "duration": 0.3905,
      "velocity": 97,
      "chip": "ym2612"
    },
    {
      "channel": 2,
      "note": 80,
      "start": 41.9436,
      "duration": 0.3902,
      "velocity": 97,
      "chip": "ym2612"
    },
    {
      "channel": 3,
      "note": 51,
      "start": 41.9442,
      "duration": 0.1945,
      "velocity": 127,
      "chip": "ym2612"
    },
    {
      "channel": 4,
      "note": 75,
      "start": 42.0859,
      "duration": 0.3016,
      "velocity": 97,
      "chip": "ym2612"
    },
    {
      "channel": 3,
      "note": 51,
      "start": 42.1567,
      "duration": 0.1951,
      "velocity": 127,
      "chip": "ym2612"
    },
    {
      "channel": 0,
      "note": 73,
      "start": 42.369,
      "duration": 0.0573,
      "velocity": 97,
      "chip": "ym2612"
    },
    {
      "channel": 2,
      "note": 83,
      "start": 42.3698,
      "duration": 0.2701,
      "velocity": 97,
      "chip": "ym2612"
    },
    {
      "channel": 3,
      "note": 51,
      "start": 42.3703,
      "duration": 0.0744,
      "velocity": 127,
      "chip": "ym2612"
    },
    {
      "channel": 4,
      "note": 75,
      "start": 42.3938,
      "duration": 0.1755,
      "velocity": 97,
      "chip": "ym2612"
    },
    {
      "channel": 0,
      "note": 71,
      "start": 42.4622,
      "duration": 0.1771,
      "velocity": 97,
      "chip": "ym2612"
    },
    {
      "channel": 3,
      "note": 51,
      "start": 42.4636,
      "duration": 0.1944,
      "velocity": 127,
      "chip": "ym2612"
    },
    {
      "channel": 4,
      "note": 73,
      "start": 42.605,
      "duration": 0.1774,
      "velocity": 97,
      "chip": "ym2612"
    },
    {
      "channel": 3,
      "note": 51,
      "start": 42.6761,
      "duration": 0.1948,
      "velocity": 127,
      "chip": "ym2612"
    },
    {
      "channel": 0,
      "note": 73,
      "start": 42.8881,
      "duration": 0.3951,
      "velocity": 97,
      "chip": "ym2612"
    },
    {
      "channel": 1,
      "note": 56,
      "start": 42.8886,
      "duration": 0.0752,
      "velocity": 99,
      "chip": "ym2612"
    },
    {
      "channel": 2,
      "note": 82,
      "start": 42.8891,
      "duration": 0.3946,
      "velocity": 97,
      "chip": "ym2612"
    },
    {
      "channel": 3,
      "note": 51,
      "start": 42.8897,
      "duration": 0.0747,
      "velocity": 127,
      "chip": "ym2612"
    },
    {
      "channel": 4,
      "note": 71,
      "start": 42.9137,
      "duration": 0.3955,
      "velocity": 97,
      "chip": "ym2612"
    },
    {
      "channel": 3,
      "note": 51,
      "start": 42.9826,
      "duration": 0.195,
      "velocity": 127,
      "chip": "ym2612"
    },
    {
      "channel": 1,
      "note": 51,
      "start": 43.1949,
      "duration": 0.2822,
      "velocity": 99,
      "chip": "ym2612"
    },
    {
      "channel": 3,
      "note": 51,
      "start": 43.1957,
      "duration": 0.0397,
      "velocity": 127,
      "chip": "ym2612"
    },
    {
      "channel": 3,
      "note": 51,
      "start": 43.2534,
      "duration": 0.0334,
      "velocity": 127,
      "chip": "ym2612"
    },
    {
      "channel": 0,
      "note": 75,
      "start": 43.289,
      "duration": 0.1701,
      "velocity": 97,
      "chip": "ym2612"
    },
    {
      "channel": 2,
      "note": 91,
      "start": 43.2897,
      "duration": 0.0679,
      "velocity": 97,
      "chip": "ym2612"
    },
    {
      "channel": 3,
      "note": 51,
      "start": 43.2903,
      "duration": 0.0332,
      "velocity": 127,
      "chip": "ym2612"
    },
    {
      "channel": 4,
      "note": 73,
      "start": 43.3153,
      "duration": 0.1998,
      "velocity": 97,
      "chip": "ym2612"
    },
    {
      "channel": 3,
      "note": 51,
      "start": 43.3268,
      "duration": 0.0341,
      "velocity": 127,
      "chip": "ym2612"
    },
    {
      "channel": 2,
      "note": 82,
      "start": 43.364,
      "duration": 0.0957,
      "velocity": 97,
      "chip": "ym2612"
    },
    {
      "channel": 3,
      "note": 51,
      "start": 43.3646,
      "duration": 0.034,
      "velocity": 127,
      "chip": "ym2612"
    },
    {
      "channel": 3,
      "note": 51,
      "start": 43.4052,
      "duration": 0.1304,
      "velocity": 115,
      "chip": "ym2612"
    },
    {
      "channel": 0,
      "note": 70,
      "start": 43.4948,
      "duration": 0.7286,
      "velocity": 97,
      "chip": "ym2612"
    },
    {
      "channel": 1,
      "note": 54,
      "start": 43.4953,
      "duration": 0.7314,
      "velocity": 99,
      "chip": "ym2612"
    },
    {
      "channel": 2,
      "note": 82,
      "start": 43.4958,
      "duration": 0.2349,
      "velocity": 97,
      "chip": "ym2612"
    },
    {
      "channel": 4,
      "note": 75,
      "start": 43.5207,
      "duration": 0.729,
      "velocity": 97,
      "chip": "ym2612"
    },
    {
      "channel": 3,
      "note": 58,
      "start": 43.556,
      "duration": 0.1927,
      "velocity": 127,
      "chip": "ym2612"
    },
    {
      "channel": 2,
      "note": 97,
      "start": 43.7664,
      "duration": 0.1775,
      "velocity": 97,
      "chip": "ym2612"
    },
    {
      "channel": 3,
      "note": 51,
      "start": 43.767,
      "duration": 0.1948,
      "velocity": 127,
      "chip": "ym2612"
    },
    {
      "channel": 2,
      "note": 95,
      "start": 43.9795,
      "duration": 0.1774,
      "velocity": 97,
      "chip": "ym2612"
    },
    {
      "channel": 3,
      "note": 51,
      "start": 43.9801,
      "duration": 0.1948,
      "velocity": 127,
      "chip": "ym2612"
    },
    {
      "channel": 2,
      "note": 94,
      "start": 44.193,
      "duration": 0.0961,
      "velocity": 97,
      "chip": "ym2612"
    },
    {
      "channel": 3,
      "note": 51,
      "start": 44.1937,
      "duration": 0.0336,
      "velocity": 127,
      "chip": "ym2612"
    },
    {
      "channel": 3,
      "note": 51,
      "start": 44.232,
      "duration": 0.0753,
      "velocity": 127,
      "chip": "ym2612"
    },
    {
      "channel": 0,
      "note": 70,
      "start": 44.3097,
      "duration": 0.0292,
      "velocity": 97,
      "chip": "ym2612"
    },
    {
      "channel": 1,
      "note": 55,
      "start": 44.3102,
      "duration": 0.1107,
      "velocity": 99,
      "chip": "ym2612"
    },
    {
      "channel": 2,
      "note": 85,
      "start": 44.3107,
      "duration": 0.1005,
      "velocity": 97,
      "chip": "ym2612"
    },
    {
      "channel": 3,
      "note": 51,
      "start": 44.3113,
      "duration": 0.031,
      "velocity": 127,
      "chip": "ym2612"
    },
    {
      "channel": 4,
      "note": 70,
      "start": 44.3345,
      "duration": 0.028,
      "velocity": 97,
      "chip": "ym2612"
    },
    {
      "channel": 0,
      "note": 71,
      "start": 44.3448,
      "duration": 0.0291,
      "velocity": 97,
      "chip": "ym2612"
    },
    {
      "channel": 3,
      "note": 51,
      "start": 44.3458,
      "duration": 0.0323,
      "velocity": 127,
      "chip": "ym2612"
    },
    {
      "channel": 4,
      "note": 70,
      "start": 44.3684,
      "duration": 0.0309,
      "velocity": 97,
      "chip": "ym2612"
    },
    {
      "channel": 0,
      "note": 73,
      "start": 44.3803,
      "duration": 0.0303,
      "velocity": 97,
      "chip": "ym2612"
    },
    {
      "channel": 3,
      "note": 51,
      "start": 44.3814,
      "duration": 0.0401,
      "velocity": 127,
      "chip": "ym2612"
    },
    {
      "channel": 4,
      "note": 71,
      "start": 44.4058,
      "duration": 0.0549,
      "velocity": 97,
      "chip": "ym2612"
    },
    {
      "channel": 0,
      "note": 75,
      "start": 44.4386,
      "duration": 0.6615,
      "velocity": 97,
      "chip": "ym2612"
    },
    {
      "channel": 1,
      "note": 56,
      "start": 44.4391,
      "duration": 0.9855,
      "velocity": 99,
      "chip": "ym2612"
    },
    {
      "channel": 2,
      "note": 83,
      "start": 44.4396,
      "duration": 1.1805,
      "velocity": 97,
      "chip": "ym2612"
    },
    {
      "channel": 3,
      "note": 51,
      "start": 44.4432,
      "duration": 0.4623,
      "velocity": 115,
      "chip": "ym2612"
    },
    {
      "channel": 4,
      "note": 73,
      "start": 44.4667,
      "duration": 0.6884,
      "velocity": 97,
      "chip": "ym2612"
    },
    {
      "channel": 3,
      "note": 58,
      "start": 44.926,
      "duration": 0.1931,
      "velocity": 127,
      "chip": "ym2612"
    },
    {
      "channel": 0,
      "note": 73,
      "start": 45.136,
      "duration": 0.0575,
      "velocity": 97,
      "chip": "ym2612"
    },
    {
      "channel": 3,
      "note": 51,
      "start": 45.1371,
      "duration": 0.075,
      "velocity": 127,
      "chip": "ym2612"
    },
    {
      "channel": 4,
      "note": 75,
      "start": 45.1613,
      "duration": 0.1753,
      "velocity": 97,
      "chip": "ym2612"
    },
    {
      "channel": 0,
      "note": 71,
      "start": 45.2292,
      "duration": 0.1773,
      "velocity": 97,
      "chip": "ym2612"
    },
    {
      "channel": 3,
      "note": 51,
      "start": 45.2303,
      "duration": 0.1948,
      "velocity": 127,
      "chip": "ym2612"
    },
    {
      "channel": 4,
      "note": 73,
      "start": 45.3724,
      "duration": 0.1778,
      "velocity": 97,
      "chip": "ym2612"
    },
    {
      "channel": 0,
      "note": 73,
      "start": 45.4423,
      "duration": 0.1773,
      "velocity": 97,
      "chip": "ym2612"
    },
    {
      "channel": 3,
      "note": 51,
      "start": 45.4435,
      "duration": 0.1948,
      "velocity": 127,
      "chip": "ym2612"
    },
    {
      "channel": 4,
      "note": 71,
      "start": 45.5854,
      "duration": 0.0905,
      "velocity": 97,
      "chip": "ym2612"
    },
    {
      "channel": 0,
      "note": 75,
      "start": 45.6554,
      "duration": 0.3038,
      "velocity": 97,
      "chip": "ym2612"
    },
    {
      "channel": 1,
      "note": 56,
      "start": 45.6559,
      "duration": 0.2553,
      "velocity": 99,
      "chip": "ym2612"
    },
    {
      "channel": 2,
      "note": 80,
      "start": 45.6564,
      "duration": 0.3033,
      "velocity": 97,
      "chip": "ym2612"
    },
    {
      "channel": 3,
      "note": 51,
      "start": 45.657,
      "duration": 0.0415,
      "velocity": 127,
      "chip": "ym2612"
    },
    {
      "channel": 4,
      "note": 73,
      "start": 45.6826,
      "duration": 0.3243,
      "velocity": 97,
      "chip": "ym2612"
    },
    {
      "channel": 3,
      "note": 51,
      "start": 45.7165,
      "duration": 0.1952,
      "velocity": 127,
      "chip": "ym2612"
    },
    {
      "channel": 1,
      "note": 56,
      "start": 45.9294,
      "duration": 0.202,
      "velocity": 99,
      "chip": "ym2612"
    },
    {
      "channel": 3,
      "note": 51,
      "start": 45.9305,
      "duration": 0.0393,
      "velocity": 127,
      "chip": "ym2612"
    },
    {
      "channel": 0,
      "note": 75,
      "start": 45.987,
      "duration": 0.0668,
      "velocity": 97,
      "chip": "ym2612"
    },
    {
      "channel": 2,
      "note": 80,
      "start": 45.9877,
      "duration": 0.0665,
      "velocity": 97,
      "chip": "ym2612"
    },
    {
      "channel": 3,
      "note": 51,
      "start": 45.9883,
      "duration": 0.0333,
      "velocity": 127,
      "chip": "ym2612"
    },
    {
      "channel": 4,
      "note": 75,
      "start": 46.0132,
      "duration": 0.0669,
      "velocity": 97,
      "chip": "ym2612"
    },
    {
      "channel": 3,
      "note": 51,
      "start": 46.0245,
      "duration": 0.0328,
      "velocity": 127,
      "chip": "ym2612"
    },
    {
      "channel": 0,
      "note": 73,
      "start": 46.0605,
      "duration": 0.0319,
      "velocity": 97,
      "chip": "ym2612"
    },
    {
      "channel": 2,
      "note": 83,
      "start": 46.0612,
      "duration": 0.0673,
      "velocity": 97,
      "chip": "ym2612"
    },
    {
      "channel": 3,
      "note": 51,
      "start": 46.0618,
      "duration": 0.0347,
      "velocity": 127,
      "chip": "ym2612"
    },
    {
      "channel": 4,
      "note": 75,
      "start": 46.0866,
      "duration": 0.031,
      "velocity": 97,
      "chip": "ym2612"
    },
    {
      "channel": 0,
      "note": 71,
      "start": 46.0987,
      "duration": 0.0294,
      "velocity": 97,
      "chip": "ym2612"
    },
    {
      "channel": 3,
      "note": 51,
      "start": 46.0997,
      "duration": 0.0323,
      "velocity": 127,
      "chip": "ym2612"
    },
    {
      "channel": 4,
      "note": 73,
      "start": 46.1234,
      "duration": 0.032,
      "velocity": 97,
      "chip": "ym2612"
    },
    {
      "channel": 0,
      "note": 73,
      "start": 46.1356,
      "duration": 0.0582,
      "velocity": 97,
      "chip": "ym2612"
    },
    {
      "channel": 3,
      "note": 51,
      "start": 46.1368,
      "duration": 0.0755,
      "velocity": 127,
      "chip": "ym2612"
    },
    {
      "channel": 4,
      "note": 71,
      "start": 46.1611,
      "duration": 0.0913,
      "velocity": 97,
      "chip": "ym2612"
    },
    {
      "channel": 0,
      "note": 75,
      "start": 46.2295,
      "duration": 0.7592,
      "velocity": 97,
      "chip": "ym2612"
    },
    {
      "channel": 1,
      "note": 56,
      "start": 46.2299,
      "duration": 0.0407,
      "velocity": 99,
      "chip": "ym2612"
    },
    {
      "channel": 2,
      "note": 82,
      "start": 46.2305,
      "duration": 0.5146,
      "velocity": 97,
      "chip": "ym2612"
    },
    {
      "channel": 3,
      "note": 51,
      "start": 46.2336,
      "duration": 0.2507,
      "velocity": 115,
      "chip": "ym2612"
    },
    {
      "channel": 4,
      "note": 73,
      "start": 46.2585,
      "duration": 0.8626,
      "velocity": 97,
      "chip": "ym2612"
    },
    {
      "channel": 1,
      "note": 51,
      "start": 46.5017,
      "duration": 0.4365,
      "velocity": 99,
      "chip": "ym2612"
    },
    {
      "channel": 3,
      "note": 58,
      "start": 46.505,
      "duration": 0.1926,
      "velocity": 127,
      "chip": "ym2612"
    },
    {
      "channel": 3,
      "note": 51,
      "start": 46.7155,
      "duration": 0.0327,
      "velocity": 127,
      "chip": "ym2612"
    },
    {
      "channel": 2,
      "note": 91,
      "start": 46.7509,
      "duration": 0.0684,
      "velocity": 97,
      "chip": "ym2612"
    },
    {
      "channel": 3,
      "note": 51,
      "start": 46.7515,
      "duration": 0.0328,
      "velocity": 127,
      "chip": "ym2612"
    },
    {
      "channel": 3,
      "note": 51,
      "start": 46.7884,
      "duration": 0.0344,
      "velocity": 127,
      "chip": "ym2612"
    },
    {
      "channel": 2,
      "note": 82,
      "start": 46.8256,
      "duration": 0.095,
      "velocity": 97,
      "chip": "ym2612"
    },
    {
      "channel": 3,
      "note": 51,
      "start": 46.8261,
      "duration": 0.0336,
      "velocity": 127,
      "chip": "ym2612"
    },
    {
      "channel": 3,
      "note": 51,
      "start": 46.8635,
      "duration": 0.0752,
      "velocity": 127,
      "chip": "ym2612"
    },
    {
      "channel": 1,
      "note": 51,
      "start": 46.9561,
      "duration": 0.2531,
      "velocity": 99,
      "chip": "ym2612"
    },
    {
      "channel": 2,
      "note": 82,
      "start": 46.9568,
      "duration": 0.2349,
      "velocity": 97,
      "chip": "ym2612"
    },
    {
      "channel": 3,
      "note": 51,
      "start": 46.9601,
      "duration": 0.0365,
      "velocity": 127,
      "chip": "ym2612"
    },
    {
      "channel": 3,
      "note": 55,
      "start": 47.0193,
      "duration": 0.1905,
      "velocity": 127,
      "chip": "ym2612"
    },
    {
      "channel": 0,
      "note": 87,
      "start": 47.2269,
      "duration": 0.0326,
      "velocity": 97,
      "chip": "ym2612"
    },
    {
      "channel": 1,
      "note": 63,
      "start": 47.2291,
      "duration": 0.0389,
      "velocity": 99,
      "chip": "ym2612"
    },
    {
      "channel": 2,
      "note": 91,
      "start": 47.2296,
      "duration": 0.0304,
      "velocity": 97,
      "chip": "ym2612"
    },
    {
      "channel": 3,
      "note": 51,
      "start": 47.2302,
      "duration": 0.0383,
      "velocity": 127,
      "chip": "ym2612"
    },
    {
      "channel": 4,
      "note": 75,
      "start": 47.2548,
      "duration": 0.0494,
      "velocity": 97,
      "chip": "ym2612"
    },
    {
      "channel": 0,
      "note": 82,
      "start": 47.2856,
      "duration": 0.057,
      "velocity": 97,
      "chip": "ym2612"
    },
    {
      "channel": 1,
      "note": 58,
      "start": 47.2861,
      "duration": 0.0745,
      "velocity": 99,
      "chip": "ym2612"
    },
    {
      "channel": 2,
      "note": 82,
      "start": 47.2867,
      "duration": 0.0564,
      "velocity": 97,
      "chip": "ym2612"
    },
    {
      "channel": 3,
      "note": 51,
      "start": 47.2873,
      "duration": 0.0741,
      "velocity": 127,
      "chip": "ym2612"
    },
    {
      "channel": 4,
      "note": 87,
      "start": 47.3102,
      "duration": 0.0877,
      "velocity": 97,
      "chip": "ym2612"
    },
    {
      "channel": 0,
      "note": 79,
      "start": 47.3783,
      "duration": 0.0299,
      "velocity": 97,
      "chip": "ym2612"
    },
    {
      "channel": 1,
      "note": 55,
      "start": 47.3788,
      "duration": 0.0324,
      "velocity": 99,
      "chip": "ym2612"
    },
    {
      "channel": 2,
      "note": 82,
      "start": 47.3793,
      "duration": 0.0294,
      "velocity": 97,
      "chip": "ym2612"
    },
    {
      "channel": 3,
      "note": 51,
      "start": 47.3799,
      "duration": 0.0318,
      "velocity": 127,
      "chip": "ym2612"
    },
    {
      "channel": 4,
      "note": 82,
      "start": 47.4039,
      "duration": 0.0309,
      "velocity": 97,
      "chip": "ym2612"
    },
    {
      "channel": 0,
      "note": 85,
      "start": 47.4151,
      "duration": 0.0577,
      "velocity": 97,
      "chip": "ym2612"
    },
    {
      "channel": 1,
      "note": 61,
      "start": 47.4156,
      "duration": 0.0752,
      "velocity": 99,
      "chip": "ym2612"
    },
    {
      "channel": 2,
      "note": 91,
      "start": 47.4161,
      "duration": 0.0571,
      "velocity": 97,
      "chip": "ym2612"
    },
    {
      "channel": 3,
      "note": 51,
      "start": 47.4167,
      "duration": 0.0746,
      "velocity": 127,
      "chip": "ym2612"
    },
    {
      "channel": 4,
      "note": 79,
      "start": 47.4405,
      "duration": 0.0877,
      "velocity": 97,
      "chip": "ym2612"
    },
    {
      "channel": 0,
      "note": 82,
      "start": 47.5085,
      "duration": 0.0308,
      "velocity": 97,
      "chip": "ym2612"
    },
    {
      "channel": 1,
      "note": 58,
      "start": 47.509,
      "duration": 0.0336,
      "velocity": 99,
      "chip": "ym2612"
    },
    {
      "channel": 2,
      "note": 82,
      "start": 47.5095,
      "duration": 0.0302,
      "velocity": 97,
      "chip": "ym2612"
    },
    {
      "channel": 3,
      "note": 51,
      "start": 47.5101,
      "duration": 0.033,
      "velocity": 127,
      "chip": "ym2612"
    },
    {
      "channel": 4,
      "note": 85,
      "start": 47.5346,
      "duration": 0.0298,
      "velocity": 97,
      "chip": "ym2612"
    },
    {
      "channel": 0,
      "note": 77,
      "start": 47.5456,
      "duration": 0.0307,
      "velocity": 97,
      "chip": "ym2612"
    },
    {
      "channel": 1,
      "note": 53,
      "start": 47.5461,
      "duration": 0.0332,
      "velocity": 99,
      "chip": "ym2612"
    },
    {
      "channel": 2,
      "note": 82,
      "start": 47.5466,
      "duration": 0.0302,
      "velocity": 97,
      "chip": "ym2612"
    },
    {
      "channel": 3,
      "note": 51,
      "start": 47.5472,
      "duration": 0.0325,
      "velocity": 127,
      "chip": "ym2612"
    },
    {
      "channel": 4,
      "note": 82,
      "start": 47.5717,
      "duration": 0.0288,
      "velocity": 97,
      "chip": "ym2612"
    },
    {
      "channel": 0,
      "note": 79,
      "start": 47.5822,
      "duration": 0.0287,
      "velocity": 97,
      "chip": "ym2612"
    },
    {
      "channel": 1,
      "note": 55,
      "start": 47.5827,
      "duration": 0.0317,
      "velocity": 99,
      "chip": "ym2612"
    },
    {
      "channel": 2,
      "note": 82,
      "start": 47.5832,
      "duration": 0.0282,
      "velocity": 97,
      "chip": "ym2612"
    },
    {
      "channel": 3,
      "note": 51,
      "start": 47.5838,
      "duration": 0.0314,
      "velocity": 127,
      "chip": "ym2612"
    },
    {
      "channel": 4,
      "note": 77,
      "start": 47.6065,
      "duration": 0.0357,
      "velocity": 97,
      "chip": "ym2612"
    },
    {
      "channel": 0,
      "note": 68,
      "start": 47.6207,
      "duration": 0.0347,
      "velocity": 99,
      "chip": "ym2612"
    },
    {
      "channel": 1,
      "note": 56,
      "start": 47.6212,
      "duration": 0.0374,
      "velocity": 99,
      "chip": "ym2612"
    },
    {
      "channel": 2,
      "note": 92,
      "start": 47.6217,
      "duration": 0.7504,
      "velocity": 97,
      "chip": "ym2612"
    },
    {
      "channel": 3,
      "note": 51,
      "start": 47.6248,
      "duration": 0.1866,
      "velocity": 115,
      "chip": "ym2612"
    },
    {
      "channel": 4,
      "note": 79,
      "start": 47.6507,
      "duration": 0.0453,
      "velocity": 99,
      "chip": "ym2612"
    },
    {
      "channel": 0,
      "note": 70,
      "start": 47.6764,
      "duration": 0.0303,
      "velocity": 99,
      "chip": "ym2612"
    },
    {
      "channel": 1,
      "note": 56,
      "start": 47.6769,
      "duration": 0.0404,
      "velocity": 99,
      "chip": "ym2612"
    },
    {
      "channel": 4,
      "note": 68,
      "start": 47.7021,
      "duration": 0.0523,
      "velocity": 99,
      "chip": "ym2612"
    },
    {
      "channel": 0,
      "note": 71,
      "start": 47.735,
      "duration": 0.0578,
      "velocity": 99,
      "chip": "ym2612"
    },
    {
      "channel": 1,
      "note": 56,
      "start": 47.7355,
      "duration": 0.0753,
      "velocity": 99,
      "chip": "ym2612"
    },
    {
      "channel": 4,
      "note": 70,
      "start": 47.7604,
      "duration": 0.1755,
      "velocity": 99,
      "chip": "ym2612"
    },
    {
      "channel": 0,
      "note": 73,
      "start": 47.8286,
      "duration": 0.2434,
      "velocity": 99,
      "chip": "ym2612"
    },
    {
      "channel": 1,
      "note": 56,
      "start": 47.8291,
      "duration": 0.1948,
      "velocity": 99,
      "chip": "ym2612"
    },
    {
      "channel": 3,
      "note": 58,
      "start": 47.8324,
      "duration": 0.192,
      "velocity": 127,
      "chip": "ym2612"
    },
    {
      "channel": 4,
      "note": 71,
      "start": 47.9717,
      "duration": 0.2365,
      "velocity": 99,
      "chip": "ym2612"
    },
    {
      "channel": 1,
      "note": 56,
      "start": 48.0419,
      "duration": 0.0412,
      "velocity": 99,
      "chip": "ym2612"
    },
    {
      "channel": 3,
      "note": 51,
      "start": 48.0427,
      "duration": 0.041,
      "velocity": 127,
      "chip": "ym2612"
    },
    {
      "channel": 0,
      "note": 75,
      "start": 48.1008,
      "duration": 0.2709,
      "velocity": 99,
      "chip": "ym2612"
    },
    {
      "channel": 1,
      "note": 56,
      "start": 48.1014,
      "duration": 0.1948,
      "velocity": 99,
      "chip": "ym2612"
    },
    {
      "channel": 3,
      "note": 51,
      "start": 48.1027,
      "duration": 0.194,
      "velocity": 127,
      "chip": "ym2612"
    },
    {
      "channel": 4,
      "note": 73,
      "start": 48.244,
      "duration": 0.1852,
      "velocity": 99,
      "chip": "ym2612"
    },
    {
      "channel": 1,
      "note": 56,
      "start": 48.3141,
      "duration": 0.0756,
      "velocity": 99,
      "chip": "ym2612"
    },
    {
      "channel": 3,
      "note": 51,
      "start": 48.315,
      "duration": 0.0754,
      "velocity": 127,
      "chip": "ym2612"
    },
    {
      "channel": 0,
      "note": 73,
      "start": 48.4074,
      "duration": 0.3023,
      "velocity": 99,
      "chip": "ym2612"
    },
    {
      "channel": 1,
      "note": 54,
      "start": 48.4079,
      "duration": 0.2543,
      "velocity": 99,
      "chip": "ym2612"
    },
    {
      "channel": 2,
      "note": 90,
      "start": 48.4084,
      "duration": 0.9666,
      "velocity": 97,
      "chip": "ym2612"
    },
    {
      "channel": 3,
      "note": 51,
      "start": 48.4115,
      "duration": 0.0378,
      "velocity": 127,
      "chip": "ym2612"
    },
    {
      "channel": 4,
      "note": 75,
      "start": 48.4365,
      "duration": 0.3217,
      "velocity": 99,
      "chip": "ym2612"
    },
    {
      "channel": 3,
      "note": 55,
      "start": 48.4699,
      "duration": 0.1931,
      "velocity": 127,
      "chip": "ym2612"
    },
    {
      "channel": 1,
      "note": 54,
      "start": 48.68,
      "duration": 0.0402,
      "velocity": 99,
      "chip": "ym2612"
    },
    {
      "channel": 3,
      "note": 51,
      "start": 48.6808,
      "duration": 0.04,
      "velocity": 127,
      "chip": "ym2612"
    },
    {
      "channel": 0,
      "note": 75,
      "start": 48.7379,
      "duration": 0.058,
      "velocity": 99,
      "chip": "ym2612"
    },
    {
      "channel": 1,
      "note": 54,
      "start": 48.7384,
      "duration": 0.0754,
      "velocity": 99,
      "chip": "ym2612"
    },
    {
      "channel": 3,
      "note": 51,
      "start": 48.7392,
      "duration": 0.0752,
      "velocity": 127,
      "chip": "ym2612"
    },
    {
      "channel": 4,
      "note": 73,
      "start": 48.764,
      "duration": 0.1751,
      "velocity": 99,
      "chip": "ym2612"
    },
    {
      "channel": 0,
      "note": 73,
      "start": 48.8315,
      "duration": 0.244,
      "velocity": 99,
      "chip": "ym2612"
    },
    {
      "channel": 1,
      "note": 54,
      "start": 48.8321,
      "duration": 0.1949,
      "velocity": 99,
      "chip": "ym2612"
    },
    {
      "channel": 3,
      "note": 51,
      "start": 48.8329,
      "duration": 0.1946,
      "velocity": 127,
      "chip": "ym2612"
    },
    {
      "channel": 4,
      "note": 75,
      "start": 48.9747,
      "duration": 0.2372,
      "velocity": 99,
      "chip": "ym2612"
    },
    {
      "channel": 1,
      "note": 54,
      "start": 49.0449,
      "duration": 0.042,
      "velocity": 99,
      "chip": "ym2612"
    },
    {
      "channel": 3,
      "note": 51,
      "start": 49.0457,
      "duration": 0.0417,
      "velocity": 127,
      "chip": "ym2612"
    },
    {
      "channel": 0,
      "note": 71,
      "start": 49.1045,
      "duration": 0.1774,
      "velocity": 99,
      "chip": "ym2612"
    },
    {
      "channel": 1,
      "note": 54,
      "start": 49.105,
      "duration": 0.1949,
      "velocity": 99,
      "chip": "ym2612"
    },
    {
      "channel": 3,
      "note": 51,
      "start": 49.1058,
      "duration": 0.1946,
      "velocity": 127,
      "chip": "ym2612"
    },
    {
      "channel": 4,
      "note": 73,
      "start": 49.2476,
      "duration": 0.0889,
      "velocity": 99,
      "chip": "ym2612"
    },
    {
      "channel": 0,
      "note": 70,
      "start": 49.3179,
      "duration": 0.0568,
      "velocity": 99,
      "chip": "ym2612"
    },
    {
      "channel": 1,
      "note": 54,
      "start": 49.3186,
      "duration": 0.0739,
      "velocity": 99,
      "chip": "ym2612"
    },
    {
      "channel": 3,
      "note": 51,
      "start": 49.3195,
      "duration": 0.0737,
      "velocity": 127,
      "chip": "ym2612"
    },
    {
      "channel": 4,
      "note": 71,
      "start": 49.3422,
      "duration": 0.0912,
      "velocity": 99,
      "chip": "ym2612"
    },
    {
      "channel": 0,
      "note": 71,
      "start": 49.4103,
      "duration": 0.2788,
      "velocity": 99,
      "chip": "ym2612"
    },
    {
      "channel": 1,
      "note": 52,
      "start": 49.4108,
      "duration": 0.2541,
      "velocity": 99,
      "chip": "ym2612"
    },
    {
      "channel": 2,
      "note": 88,
      "start": 49.4113,
      "duration": 0.9662,
      "velocity": 97,
      "chip": "ym2612"
    },
    {
      "channel": 3,
      "note": 51,
      "start": 49.4149,
      "duration": 0.0374,
      "velocity": 127,
      "chip": "ym2612"
    },
    {
      "channel": 4,
      "note": 70,
      "start": 49.4395,
      "duration": 0.2745,
      "velocity": 99,
      "chip": "ym2612"
    },
    {
      "channel": 3,
      "note": 55,
      "start": 49.4729,
      "duration": 0.1926,
      "velocity": 127,
      "chip": "ym2612"
    },
    {
      "channel": 1,
      "note": 52,
      "start": 49.6828,
      "duration": 0.0408,
      "velocity": 99,
      "chip": "ym2612"
    },
    {
      "channel": 3,
      "note": 51,
      "start": 49.6836,
      "duration": 0.0405,
      "velocity": 127,
      "chip": "ym2612"
    },
    {
      "channel": 0,
      "note": 73,
      "start": 49.6951,
      "duration": 0.0636,
      "velocity": 99,
      "chip": "ym2612"
    },
    {
      "channel": 1,
      "note": 52,
      "start": 49.7413,
      "duration": 0.0756,
      "velocity": 99,
      "chip": "ym2612"
    },
    {
      "channel": 3,
      "note": 51,
      "start": 49.7422,
      "duration": 0.0753,
      "velocity": 127,
      "chip": "ym2612"
    },
    {
      "channel": 4,
      "note": 71,
      "start": 49.7429,
      "duration": 0.1283,
      "velocity": 99,
      "chip": "ym2612"
    },
    {
      "channel": 0,
      "note": 70,
      "start": 49.7647,
      "duration": 0.2473,
      "velocity": 99,
      "chip": "ym2612"
    },
    {
      "channel": 1,
      "note": 52,
      "start": 49.8349,
      "duration": 0.1951,
      "velocity": 99,
      "chip": "ym2612"
    },
    {
      "channel": 3,
      "note": 51,
      "start": 49.836,
      "duration": 0.1945,
      "velocity": 127,
      "chip": "ym2612"
    },
    {
      "channel": 4,
      "note": 73,
      "start": 49.9067,
      "duration": 0.1619,
      "velocity": 99,
      "chip": "ym2612"
    },
    {
      "channel": 0,
      "note": 71,
      "start": 50.0477,
      "duration": 0.3974,
      "velocity": 99,
      "chip": "ym2612"
    },
    {
      "channel": 1,
      "note": 52,
      "start": 50.0482,
      "duration": 0.0413,
      "velocity": 99,
      "chip": "ym2612"
    },
    {
      "channel": 3,
      "note": 51,
      "start": 50.049,
      "duration": 0.0411,
      "velocity": 127,
      "chip": "ym2612"
    },
    {
      "channel": 4,
      "note": 70,
      "start": 50.0744,
      "duration": 0.5033,
      "velocity": 99,
      "chip": "ym2612"
    },
    {
      "channel": 1,
      "note": 52,
      "start": 50.1075,
      "duration": 0.1951,
      "velocity": 99,
      "chip": "ym2612"
    },
    {
      "channel": 3,
      "note": 51,
      "start": 50.1083,
      "duration": 0.1949,
      "velocity": 127,
      "chip": "ym2612"
    },
    {
      "channel": 1,
      "note": 52,
      "start": 50.3206,
      "duration": 0.0749,
      "velocity": 99,
      "chip": "ym2612"
    },
    {
      "channel": 3,
      "note": 51,
      "start": 50.3214,
      "duration": 0.0748,
      "velocity": 127,
      "chip": "ym2612"
    },
    {
      "channel": 1,
      "note": 51,
      "start": 50.4133,
      "duration": 0.2524,
      "velocity": 99,
      "chip": "ym2612"
    },
    {
      "channel": 2,
      "note": 87,
      "start": 50.4138,
      "duration": 0.9653,
      "velocity": 97,
      "chip": "ym2612"
    },
    {
      "channel": 3,
      "note": 51,
      "start": 50.4169,
      "duration": 0.0362,
      "velocity": 127,
      "chip": "ym2612"
    },
    {
      "channel": 3,
      "note": 55,
      "start": 50.4744,
      "duration": 0.192,
      "velocity": 127,
      "chip": "ym2612"
    },
    {
      "channel": 0,
      "note": 70,
      "start": 50.6835,
      "duration": 0.0305,
      "velocity": 99,
      "chip": "ym2612"
    },
    {
      "channel": 1,
      "note": 51,
      "start": 50.684,
      "duration": 0.0398,
      "velocity": 99,
      "chip": "ym2612"
    },
    {
      "channel": 3,
      "note": 51,
      "start": 50.6848,
      "duration": 0.0396,
      "velocity": 127,
      "chip": "ym2612"
    },
    {
      "channel": 4,
      "note": 71,
      "start": 50.7095,
      "duration": 0.0505,
      "velocity": 99,
      "chip": "ym2612"
    },
    {
      "channel": 0,
      "note": 71,
      "start": 50.7415,
      "duration": 0.0578,
      "velocity": 99,
      "chip": "ym2612"
    },
    {
      "channel": 1,
      "note": 51,
      "start": 50.7421,
      "duration": 0.0751,
      "velocity": 99,
      "chip": "ym2612"
    },
    {
      "channel": 3,
      "note": 51,
      "start": 50.7429,
      "duration": 0.0747,
      "velocity": 127,
      "chip": "ym2612"
    },
    {
      "channel": 4,
      "note": 70,
      "start": 50.7666,
      "duration": 0.1756,
      "velocity": 99,
      "chip": "ym2612"
    },
    {
      "channel": 0,
      "note": 73,
      "start": 50.8349,
      "duration": 0.2441,
      "velocity": 99,
      "chip": "ym2612"
    },
    {
      "channel": 1,
      "note": 51,
      "start": 50.8354,
      "duration": 0.1948,
      "velocity": 99,
      "chip": "ym2612"
    },
    {
      "channel": 3,
      "note": 51,
      "start": 50.8362,
      "duration": 0.1945,
      "velocity": 127,
      "chip": "ym2612"
    },
    {
      "channel": 4,
      "note": 71,
      "start": 50.9779,
      "duration": 0.2368,
      "velocity": 99,
      "chip": "ym2612"
    },
    {
      "channel": 1,
      "note": 51,
      "start": 51.0484,
      "duration": 0.0412,
      "velocity": 99,
      "chip": "ym2612"
    },
    {
      "channel": 3,
      "note": 51,
      "start": 51.0495,
      "duration": 0.0407,
      "velocity": 127,
      "chip": "ym2612"
    },
    {
      "channel": 0,
      "note": 71,
      "start": 51.1073,
      "duration": 0.1774,
      "velocity": 99,
      "chip": "ym2612"
    },
    {
      "channel": 1,
      "note": 55,
      "start": 51.1079,
      "duration": 0.1948,
      "velocity": 99,
      "chip": "ym2612"
    },
    {
      "channel": 3,
      "note": 51,
      "start": 51.1087,
      "duration": 0.1946,
      "velocity": 127,
      "chip": "ym2612"
    },
    {
      "channel": 4,
      "note": 73,
      "start": 51.2504,
      "duration": 0.089,
      "velocity": 99,
      "chip": "ym2612"
    },
    {
      "channel": 0,
      "note": 70,
      "start": 51.3204,
      "duration": 0.0583,
      "velocity": 99,
      "chip": "ym2612"
    },
    {
      "channel": 1,
      "note": 58,
      "start": 51.3209,
      "duration": 0.0757,
      "velocity": 99,
      "chip": "ym2612"
    },
    {
      "channel": 3,
      "note": 51,
      "start": 51.3217,
      "duration": 0.0754,
      "velocity": 127,
      "chip": "ym2612"
    },
    {
      "channel": 4,
      "note": 71,
      "start": 51.3462,
      "duration": 0.0899,
      "velocity": 99,
      "chip": "ym2612"
    },
    {
      "channel": 0,
      "note": 71,
      "start": 51.4143,
      "duration": 0.6017,
      "velocity": 99,
      "chip": "ym2612"
    },
    {
      "channel": 1,
      "note": 61,
      "start": 51.4149,
      "duration": 0.2537,
      "velocity": 99,
      "chip": "ym2612"
    },
    {
      "channel": 2,
      "note": 88,
      "start": 51.4154,
      "duration": 0.9656,
      "velocity": 97,
      "chip": "ym2612"
    },
    {
      "channel": 3,
      "note": 51,
      "start": 51.4184,
      "duration": 0.0378,
      "velocity": 127,
      "chip": "ym2612"
    },
    {
      "channel": 4,
      "note": 70,
      "start": 51.4422,
      "duration": 0.6289,
      "velocity": 99,
      "chip": "ym2612"
    },
    {
      "channel": 3,
      "note": 55,
      "start": 51.4766,
      "duration": 0.1927,
      "velocity": 127,
      "chip": "ym2612"
    },
    {
      "channel": 1,
      "note": 61,
      "start": 51.6865,
      "duration": 0.0407,
      "velocity": 99,
      "chip": "ym2612"
    },
    {
      "channel": 3,
      "note": 51,
      "start": 51.6874,
      "duration": 0.0405,
      "velocity": 127,
      "chip": "ym2612"
    },
    {
      "channel": 1,
      "note": 61,
      "start": 51.7453,
      "duration": 0.0756,
      "velocity": 99,
      "chip": "ym2612"
    },
    {
      "channel": 3,
      "note": 51,
      "start": 51.7461,
      "duration": 0.0754,
      "velocity": 127,
      "chip": "ym2612"
    },
    {
      "channel": 1,
      "note": 61,
      "start": 51.8388,
      "duration": 0.1951,
      "velocity": 99,
      "chip": "ym2612"
    },
    {
      "channel": 3,
      "note": 51,
      "start": 51.8397,
      "duration": 0.1949,
      "velocity": 127,
      "chip": "ym2612"
    },
    {
      "channel": 0,
      "note": 70,
      "start": 52.0517,
      "duration": 0.0299,
      "velocity": 99,
      "chip": "ym2612"
    },
    {
      "channel": 1,
      "note": 61,
      "start": 52.0521,
      "duration": 0.0395,
      "velocity": 99,
      "chip": "ym2612"
    },
    {
      "channel": 3,
      "note": 51,
      "start": 52.053,
      "duration": 0.0395,
      "velocity": 127,
      "chip": "ym2612"
    },
    {
      "channel": 4,
      "note": 71,
      "start": 52.0772,
      "duration": 0.1395,
      "velocity": 99,
      "chip": "ym2612"
    },
    {
      "channel": 0,
      "note": 71,
      "start": 52.1096,
      "duration": 0.2709,
      "velocity": 99,
      "chip": "ym2612"
    },
    {
      "channel": 1,
      "note": 61,
      "start": 52.1101,
      "duration": 0.1946,
      "velocity": 99,
      "chip": "ym2612"
    },
    {
      "channel": 3,
      "note": 51,
      "start": 52.1109,
      "duration": 0.1944,
      "velocity": 127,
      "chip": "ym2612"
    },
    {
      "channel": 4,
      "note": 70,
      "start": 52.2525,
      "duration": 0.1867,
      "velocity": 99,
      "chip": "ym2612"
    },
    {
      "channel": 1,
      "note": 61,
      "start": 52.3227,
      "duration": 0.0758,
      "velocity": 99,
      "chip": "ym2612"
    },
    {
      "channel": 3,
      "note": 51,
      "start": 52.3235,
      "duration": 0.0755,
      "velocity": 127,
      "chip": "ym2612"
    },
    {
      "channel": 0,
      "note": 73,
      "start": 52.4162,
      "duration": 0.2361,
      "velocity": 99,
      "chip": "ym2612"
    },
    {
      "channel": 1,
      "note": 54,
      "start": 52.4167,
      "duration": 0.2534,
      "velocity": 99,
      "chip": "ym2612"
    },
    {
      "channel": 2,
      "note": 90,
      "start": 52.4172,
      "duration": 0.9667,
      "velocity": 97,
      "chip": "ym2612"
    },
    {
      "channel": 3,
      "note": 51,
      "start": 52.4203,
      "duration": 0.0372,
      "velocity": 127,
      "chip": "ym2612"
    },
    {
      "channel": 4,
      "note": 71,
      "start": 52.445,
      "duration": 0.2632,
      "velocity": 99,
      "chip": "ym2612"
    },
    {
      "channel": 3,
      "note": 55,
      "start": 52.4781,
      "duration": 0.1926,
      "velocity": 127,
      "chip": "ym2612"
    },
    {
      "channel": 0,
      "note": 75,
      "start": 52.6878,
      "duration": 0.3305,
      "velocity": 99,
      "chip": "ym2612"
    },
    {
      "channel": 1,
      "note": 54,
      "start": 52.6883,
      "duration": 0.0414,
      "velocity": 99,
      "chip": "ym2612"
    },
    {
      "channel": 3,
      "note": 51,
      "start": 52.6892,
      "duration": 0.0411,
      "velocity": 127,
      "chip": "ym2612"
    },
    {
      "channel": 4,
      "note": 73,
      "start": 52.7143,
      "duration": 0.3603,
      "velocity": 99,
      "chip": "ym2612"
    },
    {
      "channel": 1,
      "note": 54,
      "start": 52.7477,
      "duration": 0.0756,
      "velocity": 99,
      "chip": "ym2612"
    },
    {
      "channel": 3,
      "note": 51,
      "start": 52.749,
      "duration": 0.0747,
      "velocity": 127,
      "chip": "ym2612"
    },
    {
      "channel": 1,
      "note": 54,
      "start": 52.8411,
      "duration": 0.1952,
      "velocity": 99,
      "chip": "ym2612"
    },
    {
      "channel": 3,
      "note": 51,
      "start": 52.842,
      "duration": 0.1948,
      "velocity": 127,
      "chip": "ym2612"
    },
    {
      "channel": 0,
      "note": 73,
      "start": 53.054,
      "duration": 0.0321,
      "velocity": 99,
      "chip": "ym2612"
    },
    {
      "channel": 1,
      "note": 54,
      "start": 53.0545,
      "duration": 0.0411,
      "velocity": 99,
      "chip": "ym2612"
    },
    {
      "channel": 3,
      "note": 51,
      "start": 53.0553,
      "duration": 0.0409,
      "velocity": 127,
      "chip": "ym2612"
    },
    {
      "channel": 4,
      "note": 75,
      "start": 53.0817,
      "duration": 0.1391,
      "velocity": 99,
      "chip": "ym2612"
    },
    {
      "channel": 0,
      "note": 71,
      "start": 53.1134,
      "duration": 0.1773,
      "velocity": 99,
      "chip": "ym2612"
    },
    {
      "channel": 1,
      "note": 54,
      "start": 53.1138,
      "duration": 0.1951,
      "velocity": 99,
      "chip": "ym2612"
    },
    {
      "channel": 3,
      "note": 51,
      "start": 53.1147,
      "duration": 0.1949,
      "velocity": 127,
      "chip": "ym2612"
    },
    {
      "channel": 4,
      "note": 73,
      "start": 53.2565,
      "duration": 0.0883,
      "velocity": 99,
      "chip": "ym2612"
    },
    {
      "channel": 0,
      "note": 70,
      "start": 53.3264,
      "duration": 0.057,
      "velocity": 99,
      "chip": "ym2612"
    },
    {
      "channel": 1,
      "note": 54,
      "start": 53.3269,
      "duration": 0.0744,
      "velocity": 99,
      "chip": "ym2612"
    },
    {
      "channel": 3,
      "note": 51,
      "start": 53.3278,
      "duration": 0.0741,
      "velocity": 127,
      "chip": "ym2612"
    },
    {
      "channel": 4,
      "note": 71,
      "start": 53.3505,
      "duration": 0.0913,
      "velocity": 99,
      "chip": "ym2612"
    },
    {
      "channel": 0,
      "note": 75,
      "start": 53.4191,
      "duration": 0.9639,
      "velocity": 99,
      "chip": "ym2612"
    },
    {
      "channel": 1,
      "note": 59,
      "start": 53.4196,
      "duration": 0.2532,
      "velocity": 99,
      "chip": "ym2612"
    },
    {
      "channel": 2,
      "note": 90,
      "start": 53.4201,
      "duration": 1.0305,
      "velocity": 97,
      "chip": "ym2612"
    },
    {
      "channel": 3,
      "note": 51,
      "start": 53.4237,
      "duration": 0.0365,
      "velocity": 127,
      "chip": "ym2612"
    },
    {
      "channel": 4,
      "note": 70,
      "start": 53.4478,
      "duration": 0.9923,
      "velocity": 99,
      "chip": "ym2612"
    },
    {
      "channel": 3,
      "note": 55,
      "start": 53.4808,
      "duration": 0.1925,
      "velocity": 127,
      "chip": "ym2612"
    },
    {
      "channel": 1,
      "note": 59,
      "start": 53.6907,
      "duration": 0.0411,
      "velocity": 99,
      "chip": "ym2612"
    },
    {
      "channel": 3,
      "note": 51,
      "start": 53.6916,
      "duration": 0.0408,
      "velocity": 127,
      "chip": "ym2612"
    },
    {
      "channel": 1,
      "note": 59,
      "start": 53.7498,
      "duration": 0.0746,
      "velocity": 99,
      "chip": "ym2612"
    },
    {
      "channel": 3,
      "note": 51,
      "start": 53.7506,
      "duration": 0.0746,
      "velocity": 127,
      "chip": "ym2612"
    },
    {
      "channel": 1,
      "note": 59,
      "start": 53.8426,
      "duration": 0.1949,
      "velocity": 99,
      "chip": "ym2612"
    },
    {
      "channel": 3,
      "note": 51,
      "start": 53.8435,
      "duration": 0.1945,
      "velocity": 127,
      "chip": "ym2612"
    },
    {
      "channel": 1,
      "note": 59,
      "start": 54.0554,
      "duration": 0.0393,
      "velocity": 99,
      "chip": "ym2612"
    },
    {
      "channel": 3,
      "note": 51,
      "start": 54.0563,
      "duration": 0.039,
      "velocity": 127,
      "chip": "ym2612"
    },
    {
      "channel": 1,
      "note": 59,
      "start": 54.1127,
      "duration": 0.1952,
      "velocity": 99,
      "chip": "ym2612"
    },
    {
      "channel": 3,
      "note": 51,
      "start": 54.1135,
      "duration": 0.195,
      "velocity": 127,
      "chip": "ym2612"
    },
    {
      "channel": 1,
      "note": 59,
      "start": 54.3258,
      "duration": 0.0753,
      "velocity": 99,
      "chip": "ym2612"
    },
    {
      "channel": 3,
      "note": 51,
      "start": 54.3266,
      "duration": 0.075,
      "velocity": 127,
      "chip": "ym2612"
    },
    {
      "channel": 1,
      "note": 59,
      "start": 54.4191,
      "duration": 0.0391,
      "velocity": 99,
      "chip": "ym2612"
    },
    {
      "channel": 3,
      "note": 51,
      "start": 54.4224,
      "duration": 0.0363,
      "velocity": 127,
      "chip": "ym2612"
    },
    {
      "channel": 1,
      "note": 60,
      "start": 54.4763,
      "duration": 0.195,
      "velocity": 99,
      "chip": "ym2612"
    },
    {
      "channel": 2,
      "note": 87,
      "start": 54.477,
      "duration": 0.4221,
      "velocity": 97,
      "chip": "ym2612"
    },
    {
      "channel": 3,
      "note": 55,
      "start": 54.4805,
      "duration": 0.1914,
      "velocity": 127,
      "chip": "ym2612"
    },
    {
      "channel": 1,
      "note": 60,
      "start": 54.6892,
      "duration": 0.0755,
      "velocity": 99,
      "chip": "ym2612"
    },
    {
      "channel": 3,
      "note": 51,
      "start": 54.6901,
      "duration": 0.0752,
      "velocity": 127,
      "chip": "ym2612"
    },
    {
      "channel": 1,
      "note": 60,
      "start": 54.7827,
      "duration": 0.0411,
      "velocity": 99,
      "chip": "ym2612"
    },
    {
      "channel": 3,
      "note": 51,
      "start": 54.7835,
      "duration": 0.0409,
      "velocity": 127,
      "chip": "ym2612"
    },
    {
      "channel": 1,
      "note": 60,
      "start": 54.8418,
      "duration": 0.0751,
      "velocity": 99,
      "chip": "ym2612"
    },
    {
      "channel": 3,
      "note": 51,
      "start": 54.8427,
      "duration": 0.0748,
      "velocity": 127,
      "chip": "ym2612"
    },
    {
      "channel": 0,
      "note": 72,
      "start": 54.9343,
      "duration": 0.0651,
      "velocity": 99,
      "chip": "ym2612"
    },
    {
      "channel": 1,
      "note": 60,
      "start": 54.9348,
      "duration": 0.0318,
      "velocity": 99,
      "chip": "ym2612"
    },
    {
      "channel": 2,
      "note": 90,
      "start": 54.9353,
      "duration": 0.0646,
      "velocity": 97,
      "chip": "ym2612"
    },
    {
      "channel": 3,
      "note": 51,
      "start": 54.9359,
      "duration": 0.0312,
      "velocity": 127,
      "chip": "ym2612"
    },
    {
      "channel": 4,
      "note": 75,
      "start": 54.9591,
      "duration": 0.0884,
      "velocity": 99,
      "chip": "ym2612"
    },
    {
      "channel": 1,
      "note": 60,
      "start": 54.9695,
      "duration": 0.0406,
      "velocity": 99,
      "chip": "ym2612"
    },
    {
      "channel": 3,
      "note": 51,
      "start": 54.9703,
      "duration": 0.0403,
      "velocity": 127,
      "chip": "ym2612"
    },
    {
      "channel": 0,
      "note": 75,
      "start": 55.0278,
      "duration": 0.0678,
      "velocity": 99,
      "chip": "ym2612"
    },
    {
      "channel": 1,
      "note": 60,
      "start": 55.0283,
      "duration": 0.0333,
      "velocity": 99,
      "chip": "ym2612"
    },
    {
      "channel": 2,
      "note": 87,
      "start": 55.0288,
      "duration": 0.0672,
      "velocity": 97,
      "chip": "ym2612"
    },
    {
      "channel": 3,
      "note": 51,
      "start": 55.0293,
      "duration": 0.0327,
      "velocity": 127,
      "chip": "ym2612"
    },
    {
      "channel": 4,
      "note": 72,
      "start": 55.0536,
      "duration": 0.0697,
      "velocity": 99,
      "chip": "ym2612"
    },
    {
      "channel": 1,
      "note": 60,
      "start": 55.0659,
      "duration": 0.0326,
      "velocity": 99,
      "chip": "ym2612"
    },
    {
      "channel": 3,
      "note": 51,
      "start": 55.0667,
      "duration": 0.0324,
      "velocity": 127,
      "chip": "ym2612"
    },
    {
      "channel": 0,
      "note": 76,
      "start": 55.1012,
      "duration": 0.0642,
      "velocity": 99,
      "chip": "ym2612"
    },
    {
      "channel": 1,
      "note": 61,
      "start": 55.1017,
      "duration": 0.0395,
      "velocity": 99,
      "chip": "ym2612"
    },
    {
      "channel": 2,
      "note": 88,
      "start": 55.1022,
      "duration": 0.7528,
      "velocity": 97,
      "chip": "ym2612"
    },
    {
      "channel": 3,
      "note": 51,
      "start": 55.1053,
      "duration": 0.1894,
      "velocity": 115,
      "chip": "ym2612"
    },
    {
      "channel": 4,
      "note": 75,
      "start": 55.1288,
      "duration": 0.0605,
      "velocity": 99,
      "chip": "ym2612"
    },
    {
      "channel": 1,
      "note": 61,
      "start": 55.1597,
      "duration": 0.0393,
      "velocity": 99,
      "chip": "ym2612"
    },
    {
      "channel": 0,
      "note": 78,
      "start": 55.1714,
      "duration": 0.0646,
      "velocity": 99,
      "chip": "ym2612"
    },
    {
      "channel": 1,
      "note": 61,
      "start": 55.2169,
      "duration": 0.0772,
      "velocity": 99,
      "chip": "ym2612"
    },
    {
      "channel": 4,
      "note": 76,
      "start": 55.2181,
      "duration": 0.1301,
      "velocity": 99,
      "chip": "ym2612"
    },
    {
      "channel": 0,
      "note": 80,
      "start": 55.2424,
      "duration": 0.2468,
      "velocity": 99,
      "chip": "ym2612"
    },
    {
      "channel": 1,
      "note": 61,
      "start": 55.312,
      "duration": 0.1952,
      "velocity": 99,
      "chip": "ym2612"
    },
    {
      "channel": 3,
      "note": 58,
      "start": 55.3154,
      "duration": 0.1924,
      "velocity": 127,
      "chip": "ym2612"
    },
    {
      "channel": 4,
      "note": 78,
      "start": 55.3839,
      "duration": 0.1597,
      "velocity": 99,
      "chip": "ym2612"
    },
    {
      "channel": 0,
      "note": 71,
      "start": 55.525,
      "duration": 0.2361,
      "velocity": 99,
      "chip": "ym2612"
    },
    {
      "channel": 1,
      "note": 61,
      "start": 55.5254,
      "duration": 0.0406,
      "velocity": 99,
      "chip": "ym2612"
    },
    {
      "channel": 3,
      "note": 51,
      "start": 55.5263,
      "duration": 0.0402,
      "velocity": 127,
      "chip": "ym2612"
    },
    {
      "channel": 4,
      "note": 80,
      "start": 55.5499,
      "duration": 0.2661,
      "velocity": 99,
      "chip": "ym2612"
    },
    {
      "channel": 1,
      "note": 61,
      "start": 55.5839,
      "duration": 0.1952,
      "velocity": 99,
      "chip": "ym2612"
    },
    {
      "channel": 3,
      "note": 51,
      "start": 55.5848,
      "duration": 0.1949,
      "velocity": 127,
      "chip": "ym2612"
    },
    {
      "channel": 0,
      "note": 75,
      "start": 55.7968,
      "duration": 0.0577,
      "velocity": 99,
      "chip": "ym2612"
    },
    {
      "channel": 1,
      "note": 61,
      "start": 55.7973,
      "duration": 0.0752,
      "velocity": 99,
      "chip": "ym2612"
    },
    {
      "channel": 3,
      "note": 51,
      "start": 55.7984,
      "duration": 0.0747,
      "velocity": 127,
      "chip": "ym2612"
    },
    {
      "channel": 4,
      "note": 71,
      "start": 55.8221,
      "duration": 0.0885,
      "velocity": 99,
      "chip": "ym2612"
    },
    {
      "channel": 0,
      "note": 73,
      "start": 55.8903,
      "duration": 0.2361,
      "velocity": 99,
      "chip": "ym2612"
    },
    {
      "channel": 1,
      "note": 54,
      "start": 55.8908,
      "duration": 0.2536,
      "velocity": 99,
      "chip": "ym2612"
    },
    {
      "channel": 2,
      "note": 90,
      "start": 55.8913,
      "duration": 0.9665,
      "velocity": 97,
      "chip": "ym2612"
    },
    {
      "channel": 3,
      "note": 51,
      "start": 55.8919,
      "duration": 0.0399,
      "velocity": 127,
      "chip": "ym2612"
    },
    {
      "channel": 4,
      "note": 75,
      "start": 55.9165,
      "duration": 0.266,
      "velocity": 99,
      "chip": "ym2612"
    },
    {
      "channel": 3,
      "note": 51,
      "start": 55.9498,
      "duration": 0.1951,
      "velocity": 127,
      "chip": "ym2612"
    },
    {
      "channel": 0,
      "note": 71,
      "start": 56.1621,
      "duration": 0.1171,
      "velocity": 99,
      "chip": "ym2612"
    },
    {
      "channel": 1,
      "note": 54,
      "start": 56.1626,
      "duration": 0.0418,
      "velocity": 99,
      "chip": "ym2612"
    },
    {
      "channel": 3,
      "note": 51,
      "start": 56.1634,
      "duration": 0.0417,
      "velocity": 127,
      "chip": "ym2612"
    },
    {
      "channel": 4,
      "note": 73,
      "start": 56.1885,
      "duration": 0.2338,
      "velocity": 99,
      "chip": "ym2612"
    },
    {
      "channel": 1,
      "note": 54,
      "start": 56.2222,
      "duration": 0.075,
      "velocity": 99,
      "chip": "ym2612"
    },
    {
      "channel": 3,
      "note": 51,
      "start": 56.223,
      "duration": 0.0747,
      "velocity": 127,
      "chip": "ym2612"
    },
    {
      "channel": 0,
      "note": 70,
      "start": 56.3149,
      "duration": 0.243,
      "velocity": 99,
      "chip": "ym2612"
    },
    {
      "channel": 1,
      "note": 54,
      "start": 56.3154,
      "duration": 0.1949,
      "velocity": 99,
      "chip": "ym2612"
    },
    {
      "channel": 3,
      "note": 51,
      "start": 56.3162,
      "duration": 0.1946,
      "velocity": 127,
      "chip": "ym2612"
    },
    {
      "channel": 4,
      "note": 71,
      "start": 56.458,
      "duration": 0.2362,
      "velocity": 99,
      "chip": "ym2612"
    },
    {
      "channel": 1,
      "note": 54,
      "start": 56.5282,
      "duration": 0.041,
      "velocity": 99,
      "chip": "ym2612"
    },
    {
      "channel": 3,
      "note": 51,
      "start": 56.529,
      "duration": 0.0407,
      "velocity": 127,
      "chip": "ym2612"
    },
    {
      "channel": 0,
      "note": 66,
      "start": 56.5869,
      "duration": 0.2704,
      "velocity": 99,
      "chip": "ym2612"
    },
    {
      "channel": 1,
      "note": 54,
      "start": 56.5873,
      "duration": 0.1949,
      "velocity": 99,
      "chip": "ym2612"
    },
    {
      "channel": 3,
      "note": 51,
      "start": 56.5882,
      "duration": 0.1946,
      "velocity": 127,
      "chip": "ym2612"
    },
    {
      "channel": 4,
      "note": 70,
      "start": 56.7303,
      "duration": 0.183,
      "velocity": 99,
      "chip": "ym2612"
    },
    {
      "channel": 1,
      "note": 54,
      "start": 56.8001,
      "duration": 0.0752,
      "velocity": 99,
      "chip": "ym2612"
    },
    {
      "channel": 3,
      "note": 51,
      "start": 56.801,
      "duration": 0.0749,
      "velocity": 127,
      "chip": "ym2612"
    },
    {
      "channel": 0,
      "note": 78,
      "start": 56.8933,
      "duration": 0.2357,
      "velocity": 99,
      "chip": "ym2612"
    },
    {
      "channel": 1,
      "note": 59,
      "start": 56.894,
      "duration": 0.2529,
      "velocity": 99,
      "chip": "ym2612"
    },
    {
      "channel": 2,
      "note": 90,
      "start": 56.8945,
      "duration": 0.9686,
      "velocity": 97,
      "chip": "ym2612"
    },
    {
      "channel": 3,
      "note": 51,
      "start": 56.8952,
      "duration": 0.0392,
      "velocity": 127,
      "chip": "ym2612"
    },
    {
      "channel": 4,
      "note": 66,
      "start": 56.9196,
      "duration": 0.266,
      "velocity": 99,
      "chip": "ym2612"
    },
    {
      "channel": 3,
      "note": 51,
      "start": 56.9525,
      "duration": 0.195,
      "velocity": 127,
      "chip": "ym2612"
    },
    {
      "channel": 0,
      "note": 75,
      "start": 57.1647,
      "duration": 0.1184,
      "velocity": 99,
      "chip": "ym2612"
    },
    {
      "channel": 1,
      "note": 59,
      "start": 57.1652,
      "duration": 0.042,
      "velocity": 99,
      "chip": "ym2612"
    },
    {
      "channel": 3,
      "note": 51,
      "start": 57.166,
      "duration": 0.0417,
      "velocity": 127,
      "chip": "ym2612"
    },
    {
      "channel": 4,
      "note": 78,
      "start": 57.192,
      "duration": 0.2339,
      "velocity": 99,
      "chip": "ym2612"
    },
    {
      "channel": 1,
      "note": 59,
      "start": 57.2251,
      "duration": 0.0759,
      "velocity": 99,
      "chip": "ym2612"
    },
    {
      "channel": 3,
      "note": 51,
      "start": 57.226,
      "duration": 0.0756,
      "velocity": 127,
      "chip": "ym2612"
    },
    {
      "channel": 0,
      "note": 73,
      "start": 57.3185,
      "duration": 0.2444,
      "velocity": 99,
      "chip": "ym2612"
    },
    {
      "channel": 1,
      "note": 59,
      "start": 57.319,
      "duration": 0.1949,
      "velocity": 99,
      "chip": "ym2612"
    },
    {
      "channel": 3,
      "note": 51,
      "start": 57.3198,
      "duration": 0.1945,
      "velocity": 127,
      "chip": "ym2612"
    },
    {
      "channel": 4,
      "note": 75,
      "start": 57.4617,
      "duration": 0.2374,
      "velocity": 99,
      "chip": "ym2612"
    },
    {
      "channel": 1,
      "note": 59,
      "start": 57.5318,
      "duration": 0.0422,
      "velocity": 99,
      "chip": "ym2612"
    },
    {
      "channel": 3,
      "note": 51,
      "start": 57.5329,
      "duration": 0.0416,
      "velocity": 127,
      "chip": "ym2612"
    },
    {
      "channel": 0,
      "note": 71,
      "start": 57.5917,
      "duration": 0.271,
      "velocity": 99,
      "chip": "ym2612"
    },
    {
      "channel": 1,
      "note": 59,
      "start": 57.5921,
      "duration": 0.1949,
      "velocity": 99,
      "chip": "ym2612"
    },
    {
      "channel": 3,
      "note": 51,
      "start": 57.593,
      "duration": 0.1946,
      "velocity": 127,
      "chip": "ym2612"
    },
    {
      "channel": 4,
      "note": 73,
      "start": 57.7348,
      "duration": 0.183,
      "velocity": 99,
      "chip": "ym2612"
    },
    {
      "channel": 1,
      "note": 59,
      "start": 57.805,
      "duration": 0.0757,
      "velocity": 99,
      "chip": "ym2612"
    },
    {
      "channel": 3,
      "note": 51,
      "start": 57.8058,
      "duration": 0.0755,
      "velocity": 127,
      "chip": "ym2612"
    },
    {
      "channel": 0,
      "note": 75,
      "start": 57.8984,
      "duration": 0.236,
      "velocity": 99,
      "chip": "ym2612"
    },
    {
      "channel": 1,
      "note": 58,
      "start": 57.8989,
      "duration": 0.0407,
      "velocity": 99,
      "chip": "ym2612"
    },
    {
      "channel": 2,
      "note": 87,
      "start": 57.8994,
      "duration": 0.9661,
      "velocity": 97,
      "chip": "ym2612"
    },
    {
      "channel": 3,
      "note": 51,
      "start": 57.9,
      "duration": 0.0403,
      "velocity": 127,
      "chip": "ym2612"
    },
    {
      "channel": 4,
      "note": 71,
      "start": 57.9241,
      "duration": 0.2664,
      "velocity": 99,
      "chip": "ym2612"
    },
    {
      "channel": 1,
      "note": 56,
      "start": 57.9574,
      "duration": 0.195,
      "velocity": 99,
      "chip": "ym2612"
    },
    {
      "channel": 3,
      "note": 51,
      "start": 57.9584,
      "duration": 0.1946,
      "velocity": 127,
      "chip": "ym2612"
    },
    {
      "channel": 0,
      "note": 71,
      "start": 58.1701,
      "duration": 0.1157,
      "velocity": 99,
      "chip": "ym2612"
    },
    {
      "channel": 1,
      "note": 56,
      "start": 58.1706,
      "duration": 0.0398,
      "velocity": 99,
      "chip": "ym2612"
    },
    {
      "channel": 3,
      "note": 51,
      "start": 58.1714,
      "duration": 0.0396,
      "velocity": 127,
      "chip": "ym2612"
    },
    {
      "channel": 4,
      "note": 75,
      "start": 58.1965,
      "duration": 0.2324,
      "velocity": 99,
      "chip": "ym2612"
    },
    {
      "channel": 1,
      "note": 56,
      "start": 58.2284,
      "duration": 0.0754,
      "velocity": 99,
      "chip": "ym2612"
    },
    {
      "channel": 3,
      "note": 51,
      "start": 58.2292,
      "duration": 0.0752,
      "velocity": 127,
      "chip": "ym2612"
    },
    {
      "channel": 0,
      "note": 70,
      "start": 58.3215,
      "duration": 0.2434,
      "velocity": 99,
      "chip": "ym2612"
    },
    {
      "channel": 1,
      "note": 56,
      "start": 58.322,
      "duration": 0.1949,
      "velocity": 99,
      "chip": "ym2612"
    },
    {
      "channel": 3,
      "note": 51,
      "start": 58.3228,
      "duration": 0.1946,
      "velocity": 127,
      "chip": "ym2612"
    },
    {
      "channel": 4,
      "note": 71,
      "start": 58.4649,
      "duration": 0.2365,
      "velocity": 99,
      "chip": "ym2612"
    },
    {
      "channel": 1,
      "note": 56,
      "start": 58.5348,
      "duration": 0.0415,
      "velocity": 99,
      "chip": "ym2612"
    },
    {
      "channel": 3,
      "note": 51,
      "start": 58.5356,
      "duration": 0.0413,
      "velocity": 127,
      "chip": "ym2612"
    },
    {
      "channel": 0,
      "note": 68,
      "start": 58.594,
      "duration": 0.271,
      "velocity": 99,
      "chip": "ym2612"
    },
    {
      "channel": 1,
      "note": 54,
      "start": 58.5948,
      "duration": 0.1945,
      "velocity": 99,
      "chip": "ym2612"
    },
    {
      "channel": 3,
      "note": 51,
      "start": 58.5959,
      "duration": 0.194,
      "velocity": 127,
      "chip": "ym2612"
    },
    {
      "channel": 4,
      "note": 70,
      "start": 58.7371,
      "duration": 0.1835,
      "velocity": 99,
      "chip": "ym2612"
    },
    {
      "channel": 1,
      "note": 54,
      "start": 58.8073,
      "duration": 0.0757,
      "velocity": 99,
      "chip": "ym2612"
    },
    {
      "channel": 3,
      "note": 51,
      "start": 58.8082,
      "duration": 0.0754,
      "velocity": 127,
      "chip": "ym2612"
    },
    {
      "channel": 0,
      "note": 75,
      "start": 58.9006,
      "duration": 0.302,
      "velocity": 99,
      "chip": "ym2612"
    },
    {
      "channel": 1,
      "note": 52,
      "start": 58.9012,
      "duration": 0.2543,
      "velocity": 99,
      "chip": "ym2612"
    },
    {
      "channel": 2,
      "note": 83,
      "start": 58.9017,
      "duration": 0.9664,
      "velocity": 97,
      "chip": "ym2612"
    },
    {
      "channel": 3,
      "note": 51,
      "start": 58.9023,
      "duration": 0.0403,
      "velocity": 127,
      "chip": "ym2612"
    },
    {
      "channel": 4,
      "note": 68,
      "start": 58.9273,
      "duration": 0.3244,
      "velocity": 99,
      "chip": "ym2612"
    },
    {
      "channel": 3,
      "note": 51,
      "start": 58.9607,
      "duration": 0.1953,
      "velocity": 127,
      "chip": "ym2612"
    },
    {
      "channel": 1,
      "note": 52,
      "start": 59.1732,
      "duration": 0.0402,
      "velocity": 99,
      "chip": "ym2612"
    },
    {
      "channel": 3,
      "note": 51,
      "start": 59.174,
      "duration": 0.0399,
      "velocity": 127,
      "chip": "ym2612"
    },
    {
      "channel": 0,
      "note": 76,
      "start": 59.2311,
      "duration": 0.0581,
      "velocity": 99,
      "chip": "ym2612"
    },
    {
      "channel": 1,
      "note": 52,
      "start": 59.2316,
      "duration": 0.0756,
      "velocity": 99,
      "chip": "ym2612"
    },
    {
      "channel": 3,
      "note": 51,
      "start": 59.2328,
      "duration": 0.0751,
      "velocity": 127,
      "chip": "ym2612"
    },
    {
      "channel": 4,
      "note": 75,
      "start": 59.2574,
      "duration": 0.175,
      "velocity": 99,
      "chip": "ym2612"
    },
    {
      "channel": 0,
      "note": 73,
      "start": 59.325,
      "duration": 0.2435,
      "velocity": 99,
      "chip": "ym2612"
    },
    {
      "channel": 1,
      "note": 52,
      "start": 59.3255,
      "duration": 0.1948,
      "velocity": 99,
      "chip": "ym2612"
    },
    {
      "channel": 3,
      "note": 51,
      "start": 59.3263,
      "duration": 0.1945,
      "velocity": 127,
      "chip": "ym2612"
    },
    {
      "channel": 4,
      "note": 76,
      "start": 59.4681,
      "duration": 0.2368,
      "velocity": 99,
      "chip": "ym2612"
    },
    {
      "channel": 1,
      "note": 52,
      "start": 59.5383,
      "duration": 0.0415,
      "velocity": 99,
      "chip": "ym2612"
    },
    {
      "channel": 3,
      "note": 51,
      "start": 59.5391,
      "duration": 0.0412,
      "velocity": 127,
      "chip": "ym2612"
    },
    {
      "channel": 0,
      "note": 71,
      "start": 59.5974,
      "duration": 0.2702,
      "velocity": 99,
      "chip": "ym2612"
    },
    {
      "channel": 1,
      "note": 52,
      "start": 59.598,
      "duration": 0.1949,
      "velocity": 99,
      "chip": "ym2612"
    },
    {
      "channel": 3,
      "note": 51,
      "start": 59.5988,
      "duration": 0.1949,
      "velocity": 127,
      "chip": "ym2612"
    },
    {
      "channel": 4,
      "note": 73,
      "start": 59.7406,
      "duration": 0.1837,
      "velocity": 99,
      "chip": "ym2612"
    },
    {
      "channel": 1,
      "note": 52,
      "start": 59.8109,
      "duration": 0.0747,
      "velocity": 99,
      "chip": "ym2612"
    },
    {
      "channel": 3,
      "note": 51,
      "start": 59.8118,
      "duration": 0.0744,
      "velocity": 127,
      "chip": "ym2612"
    },
    {
      "channel": 0,
      "note": 75,
      "start": 59.9033,
      "duration": 0.2366,
      "velocity": 99,
      "chip": "ym2612"
    },
    {
      "channel": 1,
      "note": 54,
      "start": 59.9039,
      "duration": 0.2541,
      "velocity": 99,
      "chip": "ym2612"
    },
    {
      "channel": 2,
      "note": 90,
      "start": 59.9044,
      "duration": 0.6498,
      "velocity": 97,
      "chip": "ym2612"
    },
    {
      "channel": 3,
      "note": 51,
      "start": 59.9049,
      "duration": 0.0404,
      "velocity": 127,
      "chip": "ym2612"
    },
    {
      "channel": 4,
      "note": 71,
      "start": 59.9305,
      "duration": 0.2632,
      "velocity": 99,
      "chip": "ym2612"
    },
    {
      "channel": 3,
      "note": 51,
      "start": 59.9634,
      "duration": 0.1951,
      "velocity": 127,
      "chip": "ym2612"
    },
    {
      "channel": 0,
      "note": 73,
      "start": 60.1756,
      "duration": 0.1147,
      "velocity": 99,
      "chip": "ym2612"
    },
    {
      "channel": 1,
      "note": 54,
      "start": 60.1761,
      "duration": 0.0399,
      "velocity": 99,
      "chip": "ym2612"
    },
    {
      "channel": 3,
      "note": 51,
      "start": 60.177,
      "duration": 0.0396,
      "velocity": 127,
      "chip": "ym2612"
    },
    {
      "channel": 4,
      "note": 75,
      "start": 60.1997,
      "duration": 0.2337,
      "velocity": 99,
      "chip": "ym2612"
    },
    {
      "channel": 1,
      "note": 54,
      "start": 60.234,
      "duration": 0.0744,
      "velocity": 99,
      "chip": "ym2612"
    },
    {
      "channel": 3,
      "note": 51,
      "start": 60.2373,
      "duration": 0.0716,
      "velocity": 127,
      "chip": "ym2612"
    },
    {
      "channel": 0,
      "note": 71,
      "start": 60.326,
      "duration": 0.2276,
      "velocity": 99,
      "chip": "ym2612"
    },
    {
      "channel": 1,
      "note": 54,
      "start": 60.3268,
      "duration": 0.1946,
      "velocity": 99,
      "chip": "ym2612"
    },
    {
      "channel": 3,
      "note": 55,
      "start": 60.3303,
      "duration": 0.1915,
      "velocity": 127,
      "chip": "ym2612"
    },
    {
      "channel": 4,
      "note": 73,
      "start": 60.4691,
      "duration": 0.1099,
      "velocity": 99,
      "chip": "ym2612"
    },
    {
      "channel": 1,
      "note": 54,
      "start": 60.5246,
      "duration": 0.0321,
      "velocity": 99,
      "chip": "ym2612"
    },
    {
      "channel": 3,
      "note": 51,
      "start": 60.5255,
      "duration": 0.0317,
      "velocity": 127,
      "chip": "ym2612"
    },
    {
      "channel": 0,
      "note": 70,
      "start": 60.5603,
      "duration": 0.0673,
      "velocity": 99,
      "chip": "ym2612"
    },
    {
      "channel": 1,
      "note": 54,
      "start": 60.5608,
      "duration": 0.0325,
      "velocity": 99,
      "chip": "ym2612"
    },
    {
      "channel": 2,
      "note": 82,
      "start": 60.5613,
      "duration": 0.067,
      "velocity": 97,
      "chip": "ym2612"
    },
    {
      "channel": 3,
      "note": 51,
      "start": 60.5619,
      "duration": 0.032,
      "velocity": 127,
      "chip": "ym2612"
    },
    {
      "channel": 4,
      "note": 71,
      "start": 60.5862,
      "duration": 0.0687,
      "velocity": 99,
      "chip": "ym2612"
    },
    {
      "channel": 1,
      "note": 54,
      "start": 60.5971,
      "duration": 0.0344,
      "velocity": 99,
      "chip": "ym2612"
    },
    {
      "channel": 3,
      "note": 51,
      "start": 60.5979,
      "duration": 0.0341,
      "velocity": 127,
      "chip": "ym2612"
    },
    {
      "channel": 0,
      "note": 71,
      "start": 60.6349,
      "duration": 2.0071,
      "velocity": 99,
      "chip": "ym2612"
    },
    {
      "channel": 1,
      "note": 54,
      "start": 60.6355,
      "duration": 0.0154,
      "velocity": 99,
      "chip": "ym2612"
    },
    {
      "channel": 2,
      "note": 87,
      "start": 60.636,
      "duration": 2.0066,
      "velocity": 97,
      "chip": "ym2612"
    },
    {
      "channel": 3,
      "note": 51,
      "start": 60.6365,
      "duration": 0.0334,
      "velocity": 127,
      "chip": "ym2612"
    },
    {
      "channel": 1,
      "note": 54,
      "start": 60.654,
      "duration": 0.0153,
      "velocity": 99,
      "chip": "ym2612"
    },
    {
      "channel": 4,
      "note": 70,
      "start": 60.6615,
      "duration": 2.0211,
      "velocity": 99,
      "chip": "ym2612"
    },
    {
      "channel": 1,
      "note": 59,
      "start": 60.6737,
      "duration": 0.0407,
      "velocity": 99,
      "chip": "ym2612"
    },
    {
      "channel": 3,
      "note": 51,
      "start": 60.6776,
      "duration": 0.344,
      "velocity": 115,
      "chip": "ym2612"
    },
    {
      "channel": 1,
      "note": 59,
      "start": 60.7322,
      "duration": 0.1952,
      "velocity": 99,
      "chip": "ym2612"
    },
    {
      "channel": 1,
      "note": 59,
      "start": 60.9454,
      "duration": 0.0756,
      "velocity": 99,
      "chip": "ym2612"
    },
    {
      "channel": 1,
      "note": 59,
      "start": 61.0389,
      "duration": 0.0401,
      "velocity": 99,
      "chip": "ym2612"
    },
    {
      "channel": 3,
      "note": 58,
      "start": 61.0423,
      "duration": 0.0376,
      "velocity": 127,
      "chip": "ym2612"
    },
    {
      "channel": 1,
      "note": 59,
      "start": 61.0973,
      "duration": 0.1949,
      "velocity": 99,
      "chip": "ym2612"
    },
    {
      "channel": 3,
      "note": 51,
      "start": 61.0982,
      "duration": 0.1945,
      "velocity": 127,
      "chip": "ym2612"
    },
    {
      "channel": 1,
      "note": 59,
      "start": 61.3101,
      "duration": 0.0408,
      "velocity": 99,
      "chip": "ym2612"
    },
    {
      "channel": 3,
      "note": 51,
      "start": 61.3109,
      "duration": 0.0405,
      "velocity": 127,
      "chip": "ym2612"
    },
    {
      "channel": 1,
      "note": 59,
      "start": 61.3688,
      "duration": 0.0754,
      "velocity": 99,
      "chip": "ym2612"
    },
    {
      "channel": 3,
      "note": 51,
      "start": 61.3696,
      "duration": 0.0751,
      "velocity": 127,
      "chip": "ym2612"
    },
    {
      "channel": 1,
      "note": 59,
      "start": 61.4621,
      "duration": 0.0886,
      "velocity": 99,
      "chip": "ym2612"
    },
    {
      "channel": 3,
      "note": 51,
      "start": 61.463,
      "duration": 0.1949,
      "velocity": 127,
      "chip": "ym2612"
    },
    {
      "channel": 1,
      "note": 59,
      "start": 61.5686,
      "duration": 0.0886,
      "velocity": 99,
      "chip": "ym2612"
    },
    {
      "channel": 1,
      "note": 59,
      "start": 61.6752,
      "duration": 0.1952,
      "velocity": 99,
      "chip": "ym2612"
    },
    {
      "channel": 3,
      "note": 51,
      "start": 61.676,
      "duration": 0.1949,
      "velocity": 127,
      "chip": "ym2612"
    },
    {
      "channel": 1,
      "note": 64,
      "start": 61.8883,
      "duration": 0.041,
      "velocity": 99,
      "chip": "ym2612"
    },
    {
      "channel": 3,
      "note": 51,
      "start": 61.8895,
      "duration": 0.0405,
      "velocity": 127,
      "chip": "ym2612"
    },
    {
      "channel": 1,
      "note": 66,
      "start": 61.9473,
      "duration": 0.0756,
      "velocity": 99,
      "chip": "ym2612"
    },
    {
      "channel": 3,
      "note": 51,
      "start": 61.9481,
      "duration": 0.0754,
      "velocity": 127,
      "chip": "ym2612"
    },
    {
      "channel": 1,
      "note": 71,
      "start": 62.0408,
      "duration": 0.2535,
      "velocity": 99,
      "chip": "ym2612"
    },
    {
      "channel": 3,
      "note": 51,
      "start": 62.0416,
      "duration": 0.1948,
      "velocity": 127,
      "chip": "ym2612"
    },
    {
      "channel": 3,
      "note": 51,
      "start": 62.2544,
      "duration": 0.0404,
      "velocity": 127,
      "chip": "ym2612"
    },
    {
      "channel": 1,
      "note": 71,
      "start": 62.3117,
      "duration": 0.0412,
      "velocity": 99,
      "chip": "ym2612"
    },
    {
      "channel": 3,
      "note": 51,
      "start": 62.3126,
      "duration": 0.041,
      "velocity": 127,
      "chip": "ym2612"
    },
    {
      "channel": 1,
      "note": 71,
      "start": 62.371,
      "duration": 0.0761,
      "velocity": 99,
      "chip": "ym2612"
    },
    {
      "channel": 3,
      "note": 51,
      "start": 62.3718,
      "duration": 0.0758,
      "velocity": 127,
      "chip": "ym2612"
    },
    {
      "channel": 1,
      "note": 71,
      "start": 62.465,
      "duration": 0.0889,
      "velocity": 99,
      "chip": "ym2612"
    },
    {
      "channel": 3,
      "note": 51,
      "start": 62.4658,
      "duration": 0.195,
      "velocity": 127,
      "chip": "ym2612"
    },
    {
      "channel": 1,
      "note": 71,
      "start": 62.5717,
      "duration": 0.0884,
      "velocity": 99,
      "chip": "ym2612"
    },
    {
      "channel": 0,
      "note": 83,
      "start": 62.6778,
      "duration": 1.8587,
      "velocity": 99,
      "chip": "ym2612"
    },
    {
      "channel": 1,
      "note": 59,
      "start": 62.6785,
      "duration": 0.0407,
      "velocity": 99,
      "chip": "ym2612"
    },
    {
      "channel": 2,
      "note": 83,
      "start": 62.6789,
      "duration": 1.858,
      "velocity": 97,
      "chip": "ym2612"
    },
    {
      "channel": 3,
      "note": 51,
      "start": 62.6822,
      "duration": 0.344,
      "velocity": 115,
      "chip": "ym2612"
    },
    {
      "channel": 4,
      "note": 71,
      "start": 62.6899,
      "duration": 1.8824,
      "velocity": 99,
      "chip": "ym2612"
    },
    {
      "channel": 1,
      "note": 59,
      "start": 62.7372,
      "duration": 0.1952,
      "velocity": 99,
      "chip": "ym2612"
    },
    {
      "channel": 1,
      "note": 59,
      "start": 62.9508,
      "duration": 0.0747,
      "velocity": 99,
      "chip": "ym2612"
    },
    {
      "channel": 1,
      "note": 59,
      "start": 63.0435,
      "duration": 0.0419,
      "velocity": 99,
      "chip": "ym2612"
    },
    {
      "channel": 3,
      "note": 58,
      "start": 63.0471,
      "duration": 0.0387,
      "velocity": 127,
      "chip": "ym2612"
    },
    {
      "channel": 1,
      "note": 59,
      "start": 63.1033,
      "duration": 0.1951,
      "velocity": 99,
      "chip": "ym2612"
    },
    {
      "channel": 3,
      "note": 51,
      "start": 63.1041,
      "duration": 0.1948,
      "velocity": 127,
      "chip": "ym2612"
    },
    {
      "channel": 1,
      "note": 59,
      "start": 63.3164,
      "duration": 0.0415,
      "velocity": 99,
      "chip": "ym2612"
    },
    {
      "channel": 3,
      "note": 51,
      "start": 63.3172,
      "duration": 0.0412,
      "velocity": 127,
      "chip": "ym2612"
    },
    {
      "channel": 1,
      "note": 59,
      "start": 63.3758,
      "duration": 0.0757,
      "velocity": 99,
      "chip": "ym2612"
    },
    {
      "channel": 3,
      "note": 51,
      "start": 63.3766,
      "duration": 0.0755,
      "velocity": 127,
      "chip": "ym2612"
    },
    {
      "channel": 1,
      "note": 59,
      "start": 63.4694,
      "duration": 0.0886,
      "velocity": 99,
      "chip": "ym2612"
    },
    {
      "channel": 3,
      "note": 51,
      "start": 63.4705,
      "duration": 0.1945,
      "velocity": 127,
      "chip": "ym2612"
    },
    {
      "channel": 1,
      "note": 59,
      "start": 63.5759,
      "duration": 0.0886,
      "velocity": 99,
      "chip": "ym2612"
    },
    {
      "channel": 1,
      "note": 59,
      "start": 63.6825,
      "duration": 0.1951,
      "velocity": 99,
      "chip": "ym2612"
    },
    {
      "channel": 3,
      "note": 51,
      "start": 63.6833,
      "duration": 0.1948,
      "velocity": 127,
      "chip": "ym2612"
    },
    {
      "channel": 1,
      "note": 64,
      "start": 63.8955,
      "duration": 0.0419,
      "velocity": 99,
      "chip": "ym2612"
    },
    {
      "channel": 3,
      "note": 51,
      "start": 63.8964,
      "duration": 0.0416,
      "velocity": 127,
      "chip": "ym2612"
    },
    {
      "channel": 1,
      "note": 66,
      "start": 63.9553,
      "duration": 0.0748,
      "velocity": 99,
      "chip": "ym2612"
    },
    {
      "channel": 3,
      "note": 51,
      "start": 63.9562,
      "duration": 0.0748,
      "velocity": 127,
      "chip": "ym2612"
    },
    {
      "channel": 1,
      "note": 71,
      "start": 64.048,
      "duration": 0.2546,
      "velocity": 99,
      "chip": "ym2612"
    },
    {
      "channel": 3,
      "note": 51,
      "start": 64.0489,
      "duration": 0.1946,
      "velocity": 127,
      "chip": "ym2612"
    },
    {
      "channel": 3,
      "note": 51,
      "start": 64.2615,
      "duration": 0.0418,
      "velocity": 127,
      "chip": "ym2612"
    },
    {
      "channel": 1,
      "note": 71,
      "start": 64.3206,
      "duration": 0.0765,
      "velocity": 99,
      "chip": "ym2612"
    },
    {
      "channel": 3,
      "note": 51,
      "start": 64.3214,
      "duration": 0.0762,
      "velocity": 127,
      "chip": "ym2612"
    },
    {
      "channel": 1,
      "note": 71,
      "start": 64.415,
      "duration": 0.0749,
      "velocity": 99,
      "chip": "ym2612"
    },
    {
      "channel": 3,
      "note": 51,
      "start": 64.4159,
      "duration": 0.0745,
      "velocity": 127,
      "chip": "ym2612"
    },
    {
      "channel": 1,
      "note": 71,
      "start": 64.5079,
      "duration": 0.0144,
      "velocity": 99,
      "chip": "ym2612"
    },
    {
      "channel": 3,
      "note": 51,
      "start": 64.5087,
      "duration": 0.0317,
      "velocity": 127,
      "chip": "ym2612"
    },
    {
      "channel": 1,
      "note": 71,
      "start": 64.5255,
      "duration": 0.0143,
      "velocity": 99,
      "chip": "ym2612"
    },
    {
      "channel": 0,
      "note": 75,
      "start": 64.546,
      "duration": 0.0401,
      "velocity": 97,
      "chip": "ym2612"
    },
    {
      "channel": 1,
      "note": 59,
      "start": 64.5468,
      "duration": 0.0422,
      "velocity": 99,
      "chip": "ym2612"
    },
    {
      "channel": 3,
      "note": 51,
      "start": 64.5525,
      "duration": 27.6237,
      "velocity": 115,
      "chip": "ym2612"
    },
    {
      "channel": 2,
      "note": 75,
      "start": 64.5657,
      "duration": 0.0719,
      "velocity": 97,
      "chip": "ym2612"
    },
    {
      "channel": 4,
      "note": 75,
      "start": 64.5814,
      "duration": 0.1278,
      "velocity": 97,
      "chip": "ym2612"
    },
    {
      "channel": 0,
      "note": 75,
      "start": 64.6019,
      "duration": 0.1773,
      "velocity": 97,
      "chip": "ym2612"
    },
    {
      "channel": 1,
      "note": 59,
      "start": 64.6024,
      "duration": 0.1949,
      "velocity": 99,
      "chip": "ym2612"
    },
    {
      "channel": 2,
      "note": 75,
      "start": 64.6736,
      "duration": 27.5027,
      "velocity": 97,
      "chip": "ym2612"
    },
    {
      "channel": 4,
      "note": 75,
      "start": 64.7449,
      "duration": 27.4313,
      "velocity": 97,
      "chip": "ym2612"
    }
  ]
}