{
  "track_name": "03 - Ammon's Advice",
  "duration_sec": 24.336,
  "sample_rate": 44100,
  "note_count": 187,
  "unique_pitches": 15,
  "pitch_range": 33,
  "avg_note_duration": 0.2482,
  "reconstruction_stats": {
    "notes_reconstructed": 187,
    "keyon_events": 187,
    "keyoff_events": 186,
    "orphan_keyons": 1,
    "unique_pitches": 15,
    "pitch_range": 33,
    "avg_duration_sec": 0.2482
  },
  "metadata": {
    "source": "D\\Dune - The Battle for Arrakis\\03 - Ammon's Advice.vgz"
  },
  "notes": [
    {
      "channel": 0,
      "note": 69,
      "start": 0.0097,
      "duration": 0.1094,
      "velocity": 127,
      "chip": "ym2612"
    },
    {
      "channel": 1,
      "note": 45,
      "start": 0.0188,
      "duration": 3.1171,
      "velocity": 88,
      "chip": "ym2612"
    },
    {
      "channel": 3,
      "note": 66,
      "start": 0.0246,
      "duration": 0.0946,
      "velocity": 114,
      "chip": "ym2612"
    },
    {
      "channel": 0,
      "note": 69,
      "start": 0.2552,
      "duration": 0.1471,
      "velocity": 127,
      "chip": "ym2612"
    },
    {
      "channel": 4,
      "note": 59,
      "start": 0.2592,
      "duration": 0.0933,
      "velocity": 91,
      "chip": "ym2612"
    },
    {
      "channel": 0,
      "note": 69,
      "start": 0.5052,
      "duration": 0.1138,
      "velocity": 127,
      "chip": "ym2612"
    },
    {
      "channel": 0,
      "note": 69,
      "start": 0.7551,
      "duration": 0.1139,
      "velocity": 127,
      "chip": "ym2612"
    },
    {
      "channel": 3,
      "note": 75,
      "start": 0.7583,
      "duration": 0.0942,
      "velocity": 114,
      "chip": "ym2612"
    },
    {
      "channel": 0,
      "note": 69,
      "start": 1.0051,
      "duration": 0.1306,
      "velocity": 127,
      "chip": "ym2612"
    },
    {
      "channel": 4,
      "note": 59,
      "start": 1.0086,
      "duration": 0.1272,
      "velocity": 91,
      "chip": "ym2612"
    },
    {
      "channel": 0,
      "note": 69,
      "start": 1.2552,
      "duration": 0.1472,
      "velocity": 127,
      "chip": "ym2612"
    },
    {
      "channel": 0,
      "note": 69,
      "start": 1.5052,
      "duration": 0.1305,
      "velocity": 127,
      "chip": "ym2612"
    },
    {
      "channel": 4,
      "note": 59,
      "start": 1.5085,
      "duration": 0.1274,
      "velocity": 91,
      "chip": "ym2612"
    },
    {
      "channel": 3,
      "note": 66,
      "start": 1.5113,
      "duration": 0.0912,
      "velocity": 114,
      "chip": "ym2612"
    },
    {
      "channel": 0,
      "note": 69,
      "start": 1.7556,
      "duration": 0.0967,
      "velocity": 127,
      "chip": "ym2612"
    },
    {
      "channel": 4,
      "note": 59,
      "start": 1.7595,
      "duration": 0.1431,
      "velocity": 91,
      "chip": "ym2612"
    },
    {
      "channel": 0,
      "note": 69,
      "start": 2.0052,
      "duration": 0.1472,
      "velocity": 127,
      "chip": "ym2612"
    },
    {
      "channel": 3,
      "note": 75,
      "start": 2.008,
      "duration": 0.1278,
      "velocity": 114,
      "chip": "ym2612"
    },
    {
      "channel": 0,
      "note": 69,
      "start": 2.2552,
      "duration": 0.1304,
      "velocity": 127,
      "chip": "ym2612"
    },
    {
      "channel": 0,
      "note": 69,
      "start": 2.5052,
      "duration": 0.1305,
      "velocity": 127,
      "chip": "ym2612"
    },
    {
      "channel": 4,
      "note": 59,
      "start": 2.5087,
      "duration": 0.1105,
      "velocity": 91,
      "chip": "ym2612"
    },
    {
      "channel": 3,
      "note": 71,
      "start": 2.5113,
      "duration": 0.1245,
      "velocity": 114,
      "chip": "ym2612"
    },
    {
      "channel": 0,
      "note": 69,
      "start": 2.7551,
      "duration": 0.1307,
      "velocity": 127,
      "chip": "ym2612"
    },
    {
      "channel": 0,
      "note": 69,
      "start": 3.0051,
      "duration": 0.1307,
      "velocity": 127,
      "chip": "ym2612"
    },
    {
      "channel": 5,
      "note": 47,
      "start": 3.0079,
      "duration": 3.1449,
      "velocity": 88,
      "chip": "ym2612"
    },
    {
      "channel": 3,
      "note": 70,
      "start": 3.0105,
      "duration": 0.1255,
      "velocity": 114,
      "chip": "ym2612"
    },
    {
      "channel": 0,
      "note": 69,
      "start": 3.2718,
      "duration": 0.1305,
      "velocity": 127,
      "chip": "ym2612"
    },
    {
      "channel": 4,
      "note": 59,
      "start": 3.2755,
      "duration": 0.0936,
      "velocity": 91,
      "chip": "ym2612"
    },
    {
      "channel": 0,
      "note": 69,
      "start": 3.5219,
      "duration": 0.1138,
      "velocity": 127,
      "chip": "ym2612"
    },
    {
      "channel": 0,
      "note": 69,
      "start": 3.7718,
      "duration": 0.1305,
      "velocity": 127,
      "chip": "ym2612"
    },
    {
      "channel": 3,
      "note": 78,
      "start": 3.7746,
      "duration": 0.1111,
      "velocity": 114,
      "chip": "ym2612"
    },
    {
      "channel": 0,
      "note": 69,
      "start": 4.0219,
      "duration": 0.1138,
      "velocity": 127,
      "chip": "ym2612"
    },
    {
      "channel": 4,
      "note": 59,
      "start": 4.0253,
      "duration": 0.0939,
      "velocity": 91,
      "chip": "ym2612"
    },
    {
      "channel": 0,
      "note": 69,
      "start": 4.272,
      "duration": 0.1137,
      "velocity": 127,
      "chip": "ym2612"
    },
    {
      "channel": 0,
      "note": 69,
      "start": 4.5217,
      "duration": 0.1139,
      "velocity": 127,
      "chip": "ym2612"
    },
    {
      "channel": 4,
      "note": 59,
      "start": 4.5253,
      "duration": 0.1105,
      "velocity": 91,
      "chip": "ym2612"
    },
    {
      "channel": 3,
      "note": 73,
      "start": 4.5282,
      "duration": 0.091,
      "velocity": 114,
      "chip": "ym2612"
    },
    {
      "channel": 0,
      "note": 69,
      "start": 4.7717,
      "duration": 0.114,
      "velocity": 127,
      "chip": "ym2612"
    },
    {
      "channel": 0,
      "note": 69,
      "start": 5.0217,
      "duration": 0.114,
      "velocity": 127,
      "chip": "ym2612"
    },
    {
      "channel": 3,
      "note": 78,
      "start": 5.0244,
      "duration": 0.0947,
      "velocity": 114,
      "chip": "ym2612"
    },
    {
      "channel": 0,
      "note": 69,
      "start": 5.2718,
      "duration": 0.1472,
      "velocity": 127,
      "chip": "ym2612"
    },
    {
      "channel": 4,
      "note": 59,
      "start": 5.2756,
      "duration": 0.1268,
      "velocity": 91,
      "chip": "ym2612"
    },
    {
      "channel": 0,
      "note": 69,
      "start": 5.522,
      "duration": 0.1303,
      "velocity": 127,
      "chip": "ym2612"
    },
    {
      "channel": 3,
      "note": 71,
      "start": 5.5248,
      "duration": 0.1277,
      "velocity": 114,
      "chip": "ym2612"
    },
    {
      "channel": 0,
      "note": 69,
      "start": 5.7718,
      "duration": 0.1471,
      "velocity": 127,
      "chip": "ym2612"
    },
    {
      "channel": 4,
      "note": 59,
      "start": 5.7754,
      "duration": 0.0938,
      "velocity": 91,
      "chip": "ym2612"
    },
    {
      "channel": 0,
      "note": 69,
      "start": 6.0219,
      "duration": 0.1305,
      "velocity": 127,
      "chip": "ym2612"
    },
    {
      "channel": 1,
      "note": 45,
      "start": 6.0244,
      "duration": 3.128,
      "velocity": 88,
      "chip": "ym2612"
    },
    {
      "channel": 3,
      "note": 66,
      "start": 6.0274,
      "duration": 0.1251,
      "velocity": 114,
      "chip": "ym2612"
    },
    {
      "channel": 0,
      "note": 69,
      "start": 6.272,
      "duration": 0.1471,
      "velocity": 127,
      "chip": "ym2612"
    },
    {
      "channel": 4,
      "note": 59,
      "start": 6.2758,
      "duration": 0.1267,
      "velocity": 91,
      "chip": "ym2612"
    },
    {
      "channel": 0,
      "note": 69,
      "start": 6.5219,
      "duration": 0.1138,
      "velocity": 127,
      "chip": "ym2612"
    },
    {
      "channel": 0,
      "note": 69,
      "start": 6.7722,
      "duration": 0.1302,
      "velocity": 127,
      "chip": "ym2612"
    },
    {
      "channel": 3,
      "note": 75,
      "start": 6.7751,
      "duration": 0.1107,
      "velocity": 114,
      "chip": "ym2612"
    },
    {
      "channel": 0,
      "note": 69,
      "start": 7.0218,
      "duration": 0.1305,
      "velocity": 127,
      "chip": "ym2612"
    },
    {
      "channel": 4,
      "note": 59,
      "start": 7.0254,
      "duration": 0.1104,
      "velocity": 91,
      "chip": "ym2612"
    },
    {
      "channel": 0,
      "note": 69,
      "start": 7.2718,
      "duration": 0.1305,
      "velocity": 127,
      "chip": "ym2612"
    },
    {
      "channel": 0,
      "note": 69,
      "start": 7.5383,
      "duration": 0.1141,
      "velocity": 127,
      "chip": "ym2612"
    },
    {
      "channel": 4,
      "note": 59,
      "start": 7.5422,
      "duration": 0.1104,
      "velocity": 91,
      "chip": "ym2612"
    },
    {
      "channel": 3,
      "note": 66,
      "start": 7.5449,
      "duration": 0.0908,
      "velocity": 114,
      "chip": "ym2612"
    },
    {
      "channel": 0,
      "note": 69,
      "start": 7.7886,
      "duration": 0.097,
      "velocity": 127,
      "chip": "ym2612"
    },
    {
      "channel": 4,
      "note": 59,
      "start": 7.7921,
      "duration": 0.127,
      "velocity": 91,
      "chip": "ym2612"
    },
    {
      "channel": 0,
      "note": 69,
      "start": 8.0385,
      "duration": 0.1139,
      "velocity": 127,
      "chip": "ym2612"
    },
    {
      "channel": 3,
      "note": 75,
      "start": 8.0414,
      "duration": 0.1113,
      "velocity": 114,
      "chip": "ym2612"
    },
    {
      "channel": 0,
      "note": 69,
      "start": 8.2885,
      "duration": 0.1139,
      "velocity": 127,
      "chip": "ym2612"
    },
    {
      "channel": 0,
      "note": 69,
      "start": 8.5383,
      "duration": 0.114,
      "velocity": 127,
      "chip": "ym2612"
    },
    {
      "channel": 4,
      "note": 59,
      "start": 8.5419,
      "duration": 0.094,
      "velocity": 91,
      "chip": "ym2612"
    },
    {
      "channel": 3,
      "note": 71,
      "start": 8.5445,
      "duration": 0.108,
      "velocity": 114,
      "chip": "ym2612"
    },
    {
      "channel": 0,
      "note": 69,
      "start": 8.7884,
      "duration": 0.1139,
      "velocity": 127,
      "chip": "ym2612"
    },
    {
      "channel": 0,
      "note": 69,
      "start": 9.0384,
      "duration": 0.1139,
      "velocity": 127,
      "chip": "ym2612"
    },
    {
      "channel": 5,
      "note": 49,
      "start": 9.041,
      "duration": 3.1284,
      "velocity": 88,
      "chip": "ym2612"
    },
    {
      "channel": 3,
      "note": 70,
      "start": 9.0437,
      "duration": 0.1089,
      "velocity": 114,
      "chip": "ym2612"
    },
    {
      "channel": 0,
      "note": 69,
      "start": 9.2885,
      "duration": 0.1472,
      "velocity": 127,
      "chip": "ym2612"
    },
    {
      "channel": 4,
      "note": 59,
      "start": 9.2922,
      "duration": 0.0937,
      "velocity": 91,
      "chip": "ym2612"
    },
    {
      "channel": 0,
      "note": 69,
      "start": 9.5389,
      "duration": 0.0969,
      "velocity": 127,
      "chip": "ym2612"
    },
    {
      "channel": 0,
      "note": 69,
      "start": 9.7886,
      "duration": 0.1472,
      "velocity": 127,
      "chip": "ym2612"
    },
    {
      "channel": 3,
      "note": 78,
      "start": 9.7914,
      "duration": 0.0944,
      "velocity": 114,
      "chip": "ym2612"
    },
    {
      "channel": 0,
      "note": 69,
      "start": 10.0384,
      "duration": 0.1473,
      "velocity": 127,
      "chip": "ym2612"
    },
    {
      "channel": 4,
      "note": 59,
      "start": 10.042,
      "duration": 0.1271,
      "velocity": 91,
      "chip": "ym2612"
    },
    {
      "channel": 0,
      "note": 69,
      "start": 10.2886,
      "duration": 0.1304,
      "velocity": 127,
      "chip": "ym2612"
    },
    {
      "channel": 0,
      "note": 69,
      "start": 10.5384,
      "duration": 0.1306,
      "velocity": 127,
      "chip": "ym2612"
    },
    {
      "channel": 4,
      "note": 59,
      "start": 10.5423,
      "duration": 0.127,
      "velocity": 91,
      "chip": "ym2612"
    },
    {
      "channel": 3,
      "note": 73,
      "start": 10.545,
      "duration": 0.0908,
      "velocity": 114,
      "chip": "ym2612"
    },
    {
      "channel": 0,
      "note": 69,
      "start": 10.7885,
      "duration": 0.1138,
      "velocity": 127,
      "chip": "ym2612"
    },
    {
      "channel": 0,
      "note": 69,
      "start": 11.0386,
      "duration": 0.1471,
      "velocity": 127,
      "chip": "ym2612"
    },
    {
      "channel": 3,
      "note": 78,
      "start": 11.0416,
      "duration": 0.1276,
      "velocity": 114,
      "chip": "ym2612"
    },
    {
      "channel": 0,
      "note": 69,
      "start": 11.2884,
      "duration": 0.1473,
      "velocity": 127,
      "chip": "ym2612"
    },
    {
      "channel": 4,
      "note": 59,
      "start": 11.2919,
      "duration": 0.1106,
      "velocity": 91,
      "chip": "ym2612"
    },
    {
      "channel": 0,
      "note": 69,
      "start": 11.5384,
      "duration": 0.1472,
      "velocity": 127,
      "chip": "ym2612"
    },
    {
      "channel": 3,
      "note": 71,
      "start": 11.5417,
      "duration": 0.1107,
      "velocity": 114,
      "chip": "ym2612"
    },
    {
      "channel": 0,
      "note": 69,
      "start": 11.8051,
      "duration": 0.1307,
      "velocity": 127,
      "chip": "ym2612"
    },
    {
      "channel": 4,
      "note": 59,
      "start": 11.8085,
      "duration": 0.0941,
      "velocity": 91,
      "chip": "ym2612"
    },
    {
      "channel": 0,
      "note": 69,
      "start": 12.0552,
      "duration": 0.1138,
      "velocity": 127,
      "chip": "ym2612"
    },
    {
      "channel": 1,
      "note": 50,
      "start": 12.0578,
      "duration": 3.1281,
      "velocity": 88,
      "chip": "ym2612"
    },
    {
      "channel": 3,
      "note": 66,
      "start": 12.0606,
      "duration": 0.1086,
      "velocity": 114,
      "chip": "ym2612"
    },
    {
      "channel": 0,
      "note": 69,
      "start": 12.3056,
      "duration": 0.1301,
      "velocity": 127,
      "chip": "ym2612"
    },
    {
      "channel": 4,
      "note": 59,
      "start": 12.3093,
      "duration": 0.0932,
      "velocity": 91,
      "chip": "ym2612"
    },
    {
      "channel": 0,
      "note": 69,
      "start": 12.5552,
      "duration": 0.1139,
      "velocity": 127,
      "chip": "ym2612"
    },
    {
      "channel": 0,
      "note": 69,
      "start": 12.8052,
      "duration": 0.1472,
      "velocity": 127,
      "chip": "ym2612"
    },
    {
      "channel": 3,
      "note": 75,
      "start": 12.8079,
      "duration": 0.1112,
      "velocity": 114,
      "chip": "ym2612"
    },
    {
      "channel": 0,
      "note": 69,
      "start": 13.0552,
      "duration": 0.1139,
      "velocity": 127,
      "chip": "ym2612"
    },
    {
      "channel": 4,
      "note": 59,
      "start": 13.0586,
      "duration": 0.0939,
      "velocity": 91,
      "chip": "ym2612"
    },
    {
      "channel": 0,
      "note": 69,
      "start": 13.3051,
      "duration": 0.114,
      "velocity": 127,
      "chip": "ym2612"
    },
    {
      "channel": 0,
      "note": 69,
      "start": 13.5551,
      "duration": 0.1139,
      "velocity": 127,
      "chip": "ym2612"
    },
    {
      "channel": 4,
      "note": 59,
      "start": 13.5589,
      "duration": 0.1103,
      "velocity": 91,
      "chip": "ym2612"
    },
    {
      "channel": 3,
      "note": 66,
      "start": 13.5619,
      "duration": 0.0907,
      "velocity": 114,
      "chip": "ym2612"
    },
    {
      "channel": 0,
      "note": 69,
      "start": 13.8053,
      "duration": 0.0971,
      "velocity": 127,
      "chip": "ym2612"
    },
    {
      "channel": 4,
      "note": 59,
      "start": 13.8089,
      "duration": 0.1437,
      "velocity": 91,
      "chip": "ym2612"
    },
    {
      "channel": 0,
      "note": 69,
      "start": 14.0552,
      "duration": 0.1304,
      "velocity": 127,
      "chip": "ym2612"
    },
    {
      "channel": 3,
      "note": 75,
      "start": 14.0582,
      "duration": 0.1277,
      "velocity": 114,
      "chip": "ym2612"
    },
    {
      "channel": 0,
      "note": 69,
      "start": 14.3052,
      "duration": 0.1471,
      "velocity": 127,
      "chip": "ym2612"
    },
    {
      "channel": 0,
      "note": 69,
      "start": 14.5555,
      "duration": 0.1469,
      "velocity": 127,
      "chip": "ym2612"
    },
    {
      "channel": 4,
      "note": 59,
      "start": 14.559,
      "duration": 0.0935,
      "velocity": 91,
      "chip": "ym2612"
    },
    {
      "channel": 3,
      "note": 71,
      "start": 14.5617,
      "duration": 0.1241,
      "velocity": 114,
      "chip": "ym2612"
    },
    {
      "channel": 0,
      "note": 69,
      "start": 14.8052,
      "duration": 0.1305,
      "velocity": 127,
      "chip": "ym2612"
    },
    {
      "channel": 0,
      "note": 69,
      "start": 15.0551,
      "duration": 0.1306,
      "velocity": 127,
      "chip": "ym2612"
    },
    {
      "channel": 5,
      "note": 56,
      "start": 15.0578,
      "duration": 3.145,
      "velocity": 88,
      "chip": "ym2612"
    },
    {
      "channel": 3,
      "note": 70,
      "start": 15.0604,
      "duration": 0.1256,
      "velocity": 114,
      "chip": "ym2612"
    },
    {
      "channel": 0,
      "note": 69,
      "start": 15.3051,
      "duration": 0.1306,
      "velocity": 127,
      "chip": "ym2612"
    },
    {
      "channel": 4,
      "note": 59,
      "start": 15.3089,
      "duration": 0.127,
      "velocity": 91,
      "chip": "ym2612"
    },
    {
      "channel": 0,
      "note": 69,
      "start": 15.5552,
      "duration": 0.1138,
      "velocity": 127,
      "chip": "ym2612"
    },
    {
      "channel": 0,
      "note": 69,
      "start": 15.8052,
      "duration": 0.1305,
      "velocity": 127,
      "chip": "ym2612"
    },
    {
      "channel": 3,
      "note": 78,
      "start": 15.808,
      "duration": 0.1279,
      "velocity": 114,
      "chip": "ym2612"
    },
    {
      "channel": 0,
      "note": 69,
      "start": 16.0717,
      "duration": 0.1141,
      "velocity": 127,
      "chip": "ym2612"
    },
    {
      "channel": 4,
      "note": 59,
      "start": 16.0752,
      "duration": 0.0939,
      "velocity": 91,
      "chip": "ym2612"
    },
    {
      "channel": 0,
      "note": 69,
      "start": 16.3217,
      "duration": 0.114,
      "velocity": 127,
      "chip": "ym2612"
    },
    {
      "channel": 0,
      "note": 69,
      "start": 16.5717,
      "duration": 0.1139,
      "velocity": 127,
      "chip": "ym2612"
    },
    {
      "channel": 4,
      "note": 59,
      "start": 16.5757,
      "duration": 0.1102,
      "velocity": 91,
      "chip": "ym2612"
    },
    {
      "channel": 3,
      "note": 73,
      "start": 16.579,
      "duration": 0.0902,
      "velocity": 114,
      "chip": "ym2612"
    },
    {
      "channel": 0,
      "note": 69,
      "start": 16.8217,
      "duration": 0.114,
      "velocity": 127,
      "chip": "ym2612"
    },
    {
      "channel": 0,
      "note": 69,
      "start": 17.0717,
      "duration": 0.114,
      "velocity": 127,
      "chip": "ym2612"
    },
    {
      "channel": 3,
      "note": 78,
      "start": 17.0744,
      "duration": 0.0947,
      "velocity": 114,
      "chip": "ym2612"
    },
    {
      "channel": 0,
      "note": 69,
      "start": 17.3218,
      "duration": 0.1472,
      "velocity": 127,
      "chip": "ym2612"
    },
    {
      "channel": 4,
      "note": 59,
      "start": 17.3251,
      "duration": 0.1107,
      "velocity": 91,
      "chip": "ym2612"
    },
    {
      "channel": 0,
      "note": 69,
      "start": 17.5724,
      "duration": 0.1134,
      "velocity": 127,
      "chip": "ym2612"
    },
    {
      "channel": 3,
      "note": 71,
      "start": 17.5752,
      "duration": 0.1107,
      "velocity": 114,
      "chip": "ym2612"
    },
    {
      "channel": 0,
      "note": 69,
      "start": 17.8219,
      "duration": 0.1471,
      "velocity": 127,
      "chip": "ym2612"
    },
    {
      "channel": 4,
      "note": 59,
      "start": 17.8259,
      "duration": 0.0934,
      "velocity": 91,
      "chip": "ym2612"
    },
    {
      "channel": 0,
      "note": 69,
      "start": 18.0718,
      "duration": 0.1305,
      "velocity": 127,
      "chip": "ym2612"
    },
    {
      "channel": 1,
      "note": 52,
      "start": 18.0744,
      "duration": 3.1281,
      "velocity": 88,
      "chip": "ym2612"
    },
    {
      "channel": 3,
      "note": 66,
      "start": 18.0771,
      "duration": 0.1255,
      "velocity": 114,
      "chip": "ym2612"
    },
    {
      "channel": 0,
      "note": 69,
      "start": 18.3217,
      "duration": 0.1306,
      "velocity": 127,
      "chip": "ym2612"
    },
    {
      "channel": 4,
      "note": 59,
      "start": 18.3251,
      "duration": 0.1274,
      "velocity": 91,
      "chip": "ym2612"
    },
    {
      "channel": 0,
      "note": 69,
      "start": 18.5718,
      "duration": 0.1306,
      "velocity": 127,
      "chip": "ym2612"
    },
    {
      "channel": 0,
      "note": 69,
      "start": 18.8218,
      "duration": 0.1306,
      "velocity": 127,
      "chip": "ym2612"
    },
    {
      "channel": 3,
      "note": 75,
      "start": 18.8246,
      "duration": 0.0945,
      "velocity": 114,
      "chip": "ym2612"
    },
    {
      "channel": 0,
      "note": 69,
      "start": 19.0718,
      "duration": 0.1305,
      "velocity": 127,
      "chip": "ym2612"
    },
    {
      "channel": 4,
      "note": 59,
      "start": 19.0754,
      "duration": 0.0938,
      "velocity": 91,
      "chip": "ym2612"
    },
    {
      "channel": 0,
      "note": 69,
      "start": 19.3219,
      "duration": 0.1138,
      "velocity": 127,
      "chip": "ym2612"
    },
    {
      "channel": 0,
      "note": 69,
      "start": 19.5718,
      "duration": 0.1305,
      "velocity": 127,
      "chip": "ym2612"
    },
    {
      "channel": 4,
      "note": 59,
      "start": 19.5757,
      "duration": 0.1268,
      "velocity": 91,
      "chip": "ym2612"
    },
    {
      "channel": 3,
      "note": 66,
      "start": 19.5785,
      "duration": 0.1073,
      "velocity": 114,
      "chip": "ym2612"
    },
    {
      "channel": 0,
      "note": 69,
      "start": 19.8218,
      "duration": 0.1138,
      "velocity": 127,
      "chip": "ym2612"
    },
    {
      "channel": 4,
      "note": 59,
      "start": 19.8254,
      "duration": 0.1437,
      "velocity": 91,
      "chip": "ym2612"
    },
    {
      "channel": 0,
      "note": 69,
      "start": 20.0723,
      "duration": 0.1468,
      "velocity": 127,
      "chip": "ym2612"
    },
    {
      "channel": 3,
      "note": 75,
      "start": 20.0751,
      "duration": 0.1273,
      "velocity": 114,
      "chip": "ym2612"
    },
    {
      "channel": 0,
      "note": 69,
      "start": 20.3383,
      "duration": 0.1307,
      "velocity": 127,
      "chip": "ym2612"
    },
    {
      "channel": 0,
      "note": 69,
      "start": 20.5886,
      "duration": 0.1137,
      "velocity": 127,
      "chip": "ym2612"
    },
    {
      "channel": 4,
      "note": 59,
      "start": 20.5926,
      "duration": 0.0933,
      "velocity": 91,
      "chip": "ym2612"
    },
    {
      "channel": 3,
      "note": 71,
      "start": 20.5952,
      "duration": 0.1073,
      "velocity": 114,
      "chip": "ym2612"
    },
    {
      "channel": 0,
      "note": 69,
      "start": 20.8384,
      "duration": 0.1139,
      "velocity": 127,
      "chip": "ym2612"
    },
    {
      "channel": 0,
      "note": 69,
      "start": 21.0884,
      "duration": 0.1139,
      "velocity": 127,
      "chip": "ym2612"
    },
    {
      "channel": 5,
      "note": 54,
      "start": 21.091,
      "duration": 3.1283,
      "velocity": 88,
      "chip": "ym2612"
    },
    {
      "channel": 3,
      "note": 70,
      "start": 21.0937,
      "duration": 0.1089,
      "velocity": 114,
      "chip": "ym2612"
    },
    {
      "channel": 0,
      "note": 69,
      "start": 21.3385,
      "duration": 0.1473,
      "velocity": 127,
      "chip": "ym2612"
    },
    {
      "channel": 4,
      "note": 59,
      "start": 21.3419,
      "duration": 0.0939,
      "velocity": 91,
      "chip": "ym2612"
    },
    {
      "channel": 0,
      "note": 69,
      "start": 21.5885,
      "duration": 0.0972,
      "velocity": 127,
      "chip": "ym2612"
    },
    {
      "channel": 0,
      "note": 69,
      "start": 21.8386,
      "duration": 0.1137,
      "velocity": 127,
      "chip": "ym2612"
    },
    {
      "channel": 3,
      "note": 78,
      "start": 21.8417,
      "duration": 0.1108,
      "velocity": 114,
      "chip": "ym2612"
    },
    {
      "channel": 0,
      "note": 69,
      "start": 22.0884,
      "duration": 0.1139,
      "velocity": 127,
      "chip": "ym2612"
    },
    {
      "channel": 4,
      "note": 59,
      "start": 22.0922,
      "duration": 0.0936,
      "velocity": 91,
      "chip": "ym2612"
    },
    {
      "channel": 0,
      "note": 69,
      "start": 22.3384,
      "duration": 0.1305,
      "velocity": 127,
      "chip": "ym2612"
    },
    {
      "channel": 0,
      "note": 69,
      "start": 22.5884,
      "duration": 0.1307,
      "velocity": 127,
      "chip": "ym2612"
    },
    {
      "channel": 4,
      "note": 59,
      "start": 22.592,
      "duration": 0.1273,
      "velocity": 91,
      "chip": "ym2612"
    },
    {
      "channel": 3,
      "note": 73,
      "start": 22.5949,
      "duration": 0.091,
      "velocity": 114,
      "chip": "ym2612"
    },
    {
      "channel": 0,
      "note": 69,
      "start": 22.839,
      "duration": 0.0968,
      "velocity": 127,
      "chip": "ym2612"
    },
    {
      "channel": 0,
      "note": 69,
      "start": 23.0886,
      "duration": 0.1303,
      "velocity": 127,
      "chip": "ym2612"
    },
    {
      "channel": 3,
      "note": 78,
      "start": 23.0914,
      "duration": 0.0944,
      "velocity": 114,
      "chip": "ym2612"
    },
    {
      "channel": 0,
      "note": 69,
      "start": 23.3385,
      "duration": 0.1473,
      "velocity": 127,
      "chip": "ym2612"
    },
    {
      "channel": 4,
      "note": 59,
      "start": 23.3419,
      "duration": 0.1273,
      "velocity": 91,
      "chip": "ym2612"
    },
    {
      "channel": 0,
      "note": 69,
      "start": 23.5885,
      "duration": 0.1305,
      "velocity": 127,
      "chip": "ym2612"
    },
    {
      "channel": 3,
      "note": 71,
      "start": 23.5914,
      "duration": 0.1278,
      "velocity": 114,
      "chip": "ym2612"
    },
    {
      "channel": 0,
      "note": 69,
      "start": 23.8386,
      "duration": 0.1471,
      "velocity": 127,
      "chip": "ym2612"
    },
    {
      "channel": 4,
      "note": 59,
      "start": 23.8425,
      "duration": 0.11,
      "velocity": 91,
      "chip": "ym2612"
    },
    {
      "channel": 0,
      "note": 69,
      "start": 24.0921,
      "duration": 0.127,
      "velocity": 127,
      "chip": "ym2612"
    },
    {
      "channel": 1,
      "note": 45,
      "start": 24.1007,
      "duration": 0.2352,
      "velocity": 88,
      "chip": "ym2612"
    },
    {
      "channel": 3,
      "note": 66,
      "start": 24.1071,
      "duration": 0.1121,
      "velocity": 114,
      "chip": "ym2612"
    }
  ]
}