{
  "track_name": "03 - Stage BGM 1",
  "duration_sec": 41.605,
  "sample_rate": 44100,
  "note_count": 518,
  "unique_pitches": 23,
  "pitch_range": 77,
  "avg_note_duration": 0.4555,
  "reconstruction_stats": {
    "notes_reconstructed": 518,
    "keyon_events": 518,
    "keyoff_events": 503,
    "orphan_keyons": 6,
    "unique_pitches": 23,
    "pitch_range": 77,
    "avg_duration_sec": 0.4555
  },
  "metadata": {
    "source": "F\\Fido Dido\\03 - Stage BGM 1.vgz"
  },
  "notes": [
    {
      "channel": 5,
      "note": 86,
      "start": 0.1879,
      "duration": 0.3675,
      "velocity": 114,
      "chip": "ym2612"
    },
    {
      "channel": 1,
      "note": 54,
      "start": 0.3877,
      "duration": 0.1671,
      "velocity": 109,
      "chip": "ym2612"
    },
    {
      "channel": 1,
      "note": 54,
      "start": 0.5548,
      "duration": 0.6015,
      "velocity": 109,
      "chip": "ym2612"
    },
    {
      "channel": 5,
      "note": 86,
      "start": 0.5556,
      "duration": 0.201,
      "velocity": 114,
      "chip": "ym2612"
    },
    {
      "channel": 4,
      "note": 54,
      "start": 0.6566,
      "duration": 0.1983,
      "velocity": 107,
      "chip": "ym2612"
    },
    {
      "channel": 5,
      "note": 86,
      "start": 0.7568,
      "duration": 0.1982,
      "velocity": 114,
      "chip": "ym2612"
    },
    {
      "channel": 4,
      "note": 54,
      "start": 0.8551,
      "duration": 0.5681,
      "velocity": 107,
      "chip": "ym2612"
    },
    {
      "channel": 5,
      "note": 86,
      "start": 0.9551,
      "duration": 0.3687,
      "velocity": 114,
      "chip": "ym2612"
    },
    {
      "channel": 1,
      "note": 54,
      "start": 1.1564,
      "duration": 0.1666,
      "velocity": 109,
      "chip": "ym2612"
    },
    {
      "channel": 1,
      "note": 54,
      "start": 1.3231,
      "duration": 1.1707,
      "velocity": 109,
      "chip": "ym2612"
    },
    {
      "channel": 5,
      "note": 86,
      "start": 1.3239,
      "duration": 0.201,
      "velocity": 114,
      "chip": "ym2612"
    },
    {
      "channel": 4,
      "note": 54,
      "start": 1.4234,
      "duration": 0.1998,
      "velocity": 107,
      "chip": "ym2612"
    },
    {
      "channel": 5,
      "note": 86,
      "start": 1.525,
      "duration": 0.1983,
      "velocity": 114,
      "chip": "ym2612"
    },
    {
      "channel": 4,
      "note": 54,
      "start": 1.6234,
      "duration": 1.1465,
      "velocity": 107,
      "chip": "ym2612"
    },
    {
      "channel": 5,
      "note": 86,
      "start": 1.7234,
      "duration": 0.369,
      "velocity": 114,
      "chip": "ym2612"
    },
    {
      "channel": 5,
      "note": 86,
      "start": 2.0926,
      "duration": 0.1998,
      "velocity": 114,
      "chip": "ym2612"
    },
    {
      "channel": 5,
      "note": 86,
      "start": 2.2926,
      "duration": 0.2019,
      "velocity": 114,
      "chip": "ym2612"
    },
    {
      "channel": 1,
      "note": 59,
      "start": 2.4939,
      "duration": 0.3688,
      "velocity": 109,
      "chip": "ym2612"
    },
    {
      "channel": 5,
      "note": 86,
      "start": 2.4947,
      "duration": 0.7421,
      "velocity": 114,
      "chip": "ym2612"
    },
    {
      "channel": 4,
      "note": 59,
      "start": 2.77,
      "duration": 0.3647,
      "velocity": 107,
      "chip": "ym2612"
    },
    {
      "channel": 1,
      "note": 57,
      "start": 2.8629,
      "duration": 0.5732,
      "velocity": 109,
      "chip": "ym2612"
    },
    {
      "channel": 0,
      "note": 66,
      "start": 3.0495,
      "duration": 3.0482,
      "velocity": 100,
      "chip": "ym2612"
    },
    {
      "channel": 4,
      "note": 57,
      "start": 3.1349,
      "duration": 0.5681,
      "velocity": 107,
      "chip": "ym2612"
    },
    {
      "channel": 3,
      "note": 66,
      "start": 3.2363,
      "duration": 3.1476,
      "velocity": 100,
      "chip": "ym2612"
    },
    {
      "channel": 5,
      "note": 86,
      "start": 3.237,
      "duration": 0.3665,
      "velocity": 114,
      "chip": "ym2612"
    },
    {
      "channel": 1,
      "note": 54,
      "start": 3.4362,
      "duration": 0.1666,
      "velocity": 109,
      "chip": "ym2612"
    },
    {
      "channel": 1,
      "note": 54,
      "start": 3.6029,
      "duration": 0.6015,
      "velocity": 109,
      "chip": "ym2612"
    },
    {
      "channel": 5,
      "note": 86,
      "start": 3.6037,
      "duration": 0.201,
      "velocity": 114,
      "chip": "ym2612"
    },
    {
      "channel": 4,
      "note": 54,
      "start": 3.7032,
      "duration": 0.1998,
      "velocity": 107,
      "chip": "ym2612"
    },
    {
      "channel": 5,
      "note": 86,
      "start": 3.8048,
      "duration": 0.1982,
      "velocity": 114,
      "chip": "ym2612"
    },
    {
      "channel": 4,
      "note": 54,
      "start": 3.9032,
      "duration": 0.5684,
      "velocity": 107,
      "chip": "ym2612"
    },
    {
      "channel": 5,
      "note": 86,
      "start": 4.0032,
      "duration": 0.3689,
      "velocity": 114,
      "chip": "ym2612"
    },
    {
      "channel": 1,
      "note": 54,
      "start": 4.2045,
      "duration": 0.1669,
      "velocity": 109,
      "chip": "ym2612"
    },
    {
      "channel": 1,
      "note": 54,
      "start": 4.3715,
      "duration": 1.1706,
      "velocity": 109,
      "chip": "ym2612"
    },
    {
      "channel": 5,
      "note": 86,
      "start": 4.3723,
      "duration": 0.201,
      "velocity": 114,
      "chip": "ym2612"
    },
    {
      "channel": 4,
      "note": 54,
      "start": 4.4718,
      "duration": 0.1998,
      "velocity": 107,
      "chip": "ym2612"
    },
    {
      "channel": 5,
      "note": 86,
      "start": 4.5734,
      "duration": 0.1982,
      "velocity": 114,
      "chip": "ym2612"
    },
    {
      "channel": 4,
      "note": 54,
      "start": 4.6718,
      "duration": 1.1465,
      "velocity": 107,
      "chip": "ym2612"
    },
    {
      "channel": 5,
      "note": 86,
      "start": 4.7718,
      "duration": 0.369,
      "velocity": 114,
      "chip": "ym2612"
    },
    {
      "channel": 5,
      "note": 86,
      "start": 5.1409,
      "duration": 0.1998,
      "velocity": 114,
      "chip": "ym2612"
    },
    {
      "channel": 5,
      "note": 86,
      "start": 5.3409,
      "duration": 0.2019,
      "velocity": 114,
      "chip": "ym2612"
    },
    {
      "channel": 1,
      "note": 59,
      "start": 5.5423,
      "duration": 0.3688,
      "velocity": 109,
      "chip": "ym2612"
    },
    {
      "channel": 5,
      "note": 86,
      "start": 5.543,
      "duration": 0.7395,
      "velocity": 114,
      "chip": "ym2612"
    },
    {
      "channel": 4,
      "note": 59,
      "start": 5.8184,
      "duration": 0.9341,
      "velocity": 107,
      "chip": "ym2612"
    },
    {
      "channel": 1,
      "note": 57,
      "start": 5.9112,
      "duration": 0.5716,
      "velocity": 109,
      "chip": "ym2612"
    },
    {
      "channel": 0,
      "note": 42,
      "start": 6.0978,
      "duration": 0.3844,
      "velocity": 100,
      "chip": "ym2612"
    },
    {
      "channel": 2,
      "note": 54,
      "start": 6.1,
      "duration": 0.5527,
      "velocity": 117,
      "chip": "ym2612"
    },
    {
      "channel": 5,
      "note": 86,
      "start": 6.2827,
      "duration": 0.3707,
      "velocity": 114,
      "chip": "ym2612"
    },
    {
      "channel": 3,
      "note": 42,
      "start": 6.3841,
      "duration": 0.3678,
      "velocity": 100,
      "chip": "ym2612"
    },
    {
      "channel": 0,
      "note": 54,
      "start": 6.4824,
      "duration": 0.1692,
      "velocity": 100,
      "chip": "ym2612"
    },
    {
      "channel": 1,
      "note": 54,
      "start": 6.483,
      "duration": 0.1692,
      "velocity": 109,
      "chip": "ym2612"
    },
    {
      "channel": 0,
      "note": 40,
      "start": 6.6518,
      "duration": 0.1999,
      "velocity": 100,
      "chip": "ym2612"
    },
    {
      "channel": 1,
      "note": 54,
      "start": 6.6524,
      "duration": 0.6009,
      "velocity": 109,
      "chip": "ym2612"
    },
    {
      "channel": 2,
      "note": 52,
      "start": 6.6529,
      "duration": 0.201,
      "velocity": 117,
      "chip": "ym2612"
    },
    {
      "channel": 5,
      "note": 86,
      "start": 6.6536,
      "duration": 0.201,
      "velocity": 114,
      "chip": "ym2612"
    },
    {
      "channel": 3,
      "note": 54,
      "start": 6.752,
      "duration": 0.1999,
      "velocity": 100,
      "chip": "ym2612"
    },
    {
      "channel": 4,
      "note": 54,
      "start": 6.7527,
      "duration": 0.1997,
      "velocity": 107,
      "chip": "ym2612"
    },
    {
      "channel": 0,
      "note": 37,
      "start": 6.8518,
      "duration": 0.1998,
      "velocity": 100,
      "chip": "ym2612"
    },
    {
      "channel": 2,
      "note": 49,
      "start": 6.854,
      "duration": 0.5671,
      "velocity": 117,
      "chip": "ym2612"
    },
    {
      "channel": 5,
      "note": 86,
      "start": 6.8547,
      "duration": 0.1978,
      "velocity": 114,
      "chip": "ym2612"
    },
    {
      "channel": 3,
      "note": 40,
      "start": 6.952,
      "duration": 0.1997,
      "velocity": 100,
      "chip": "ym2612"
    },
    {
      "channel": 4,
      "note": 54,
      "start": 6.9526,
      "duration": 0.5677,
      "velocity": 107,
      "chip": "ym2612"
    },
    {
      "channel": 0,
      "note": 52,
      "start": 7.0518,
      "duration": 0.3683,
      "velocity": 100,
      "chip": "ym2612"
    },
    {
      "channel": 5,
      "note": 86,
      "start": 7.0526,
      "duration": 0.3692,
      "velocity": 114,
      "chip": "ym2612"
    },
    {
      "channel": 3,
      "note": 37,
      "start": 7.152,
      "duration": 0.1768,
      "velocity": 100,
      "chip": "ym2612"
    },
    {
      "channel": 1,
      "note": 54,
      "start": 7.2534,
      "duration": 0.1672,
      "velocity": 109,
      "chip": "ym2612"
    },
    {
      "channel": 3,
      "note": 52,
      "start": 7.329,
      "duration": 0.3913,
      "velocity": 100,
      "chip": "ym2612"
    },
    {
      "channel": 0,
      "note": 42,
      "start": 7.4202,
      "duration": 0.3998,
      "velocity": 100,
      "chip": "ym2612"
    },
    {
      "channel": 1,
      "note": 54,
      "start": 7.4208,
      "duration": 1.1699,
      "velocity": 109,
      "chip": "ym2612"
    },
    {
      "channel": 2,
      "note": 54,
      "start": 7.4213,
      "duration": 0.3994,
      "velocity": 117,
      "chip": "ym2612"
    },
    {
      "channel": 5,
      "note": 86,
      "start": 7.422,
      "duration": 0.1999,
      "velocity": 114,
      "chip": "ym2612"
    },
    {
      "channel": 4,
      "note": 54,
      "start": 7.5205,
      "duration": 0.2003,
      "velocity": 107,
      "chip": "ym2612"
    },
    {
      "channel": 5,
      "note": 86,
      "start": 7.6221,
      "duration": 0.1993,
      "velocity": 114,
      "chip": "ym2612"
    },
    {
      "channel": 3,
      "note": 42,
      "start": 7.7204,
      "duration": 0.3771,
      "velocity": 100,
      "chip": "ym2612"
    },
    {
      "channel": 4,
      "note": 54,
      "start": 7.721,
      "duration": 1.1448,
      "velocity": 107,
      "chip": "ym2612"
    },
    {
      "channel": 0,
      "note": 42,
      "start": 7.8202,
      "duration": 0.3688,
      "velocity": 100,
      "chip": "ym2612"
    },
    {
      "channel": 2,
      "note": 54,
      "start": 7.8208,
      "duration": 0.3688,
      "velocity": 117,
      "chip": "ym2612"
    },
    {
      "channel": 5,
      "note": 86,
      "start": 7.8215,
      "duration": 0.3688,
      "velocity": 114,
      "chip": "ym2612"
    },
    {
      "channel": 3,
      "note": 42,
      "start": 8.0977,
      "duration": 0.3915,
      "velocity": 100,
      "chip": "ym2612"
    },
    {
      "channel": 0,
      "note": 40,
      "start": 8.1892,
      "duration": 0.1998,
      "velocity": 100,
      "chip": "ym2612"
    },
    {
      "channel": 2,
      "note": 52,
      "start": 8.1898,
      "duration": 0.1998,
      "velocity": 117,
      "chip": "ym2612"
    },
    {
      "channel": 5,
      "note": 86,
      "start": 8.1905,
      "duration": 0.1998,
      "velocity": 114,
      "chip": "ym2612"
    },
    {
      "channel": 0,
      "note": 44,
      "start": 8.3892,
      "duration": 0.7544,
      "velocity": 100,
      "chip": "ym2612"
    },
    {
      "channel": 2,
      "note": 56,
      "start": 8.3898,
      "duration": 0.7561,
      "velocity": 117,
      "chip": "ym2612"
    },
    {
      "channel": 5,
      "note": 86,
      "start": 8.3905,
      "duration": 0.201,
      "velocity": 114,
      "chip": "ym2612"
    },
    {
      "channel": 3,
      "note": 40,
      "start": 8.4894,
      "duration": 0.1998,
      "velocity": 100,
      "chip": "ym2612"
    },
    {
      "channel": 1,
      "note": 59,
      "start": 8.5908,
      "duration": 0.3676,
      "velocity": 109,
      "chip": "ym2612"
    },
    {
      "channel": 5,
      "note": 86,
      "start": 8.5915,
      "duration": 0.7388,
      "velocity": 114,
      "chip": "ym2612"
    },
    {
      "channel": 3,
      "note": 44,
      "start": 8.6894,
      "duration": 0.7408,
      "velocity": 100,
      "chip": "ym2612"
    },
    {
      "channel": 4,
      "note": 59,
      "start": 8.8659,
      "duration": 0.3644,
      "velocity": 107,
      "chip": "ym2612"
    },
    {
      "channel": 1,
      "note": 57,
      "start": 8.9586,
      "duration": 0.5737,
      "velocity": 109,
      "chip": "ym2612"
    },
    {
      "channel": 0,
      "note": 42,
      "start": 9.1438,
      "duration": 0.3863,
      "velocity": 100,
      "chip": "ym2612"
    },
    {
      "channel": 2,
      "note": 54,
      "start": 9.146,
      "duration": 0.5537,
      "velocity": 117,
      "chip": "ym2612"
    },
    {
      "channel": 4,
      "note": 57,
      "start": 9.2305,
      "duration": 0.5688,
      "velocity": 107,
      "chip": "ym2612"
    },
    {
      "channel": 5,
      "note": 86,
      "start": 9.3305,
      "duration": 0.3699,
      "velocity": 114,
      "chip": "ym2612"
    },
    {
      "channel": 3,
      "note": 42,
      "start": 9.4304,
      "duration": 0.3685,
      "velocity": 100,
      "chip": "ym2612"
    },
    {
      "channel": 0,
      "note": 54,
      "start": 9.5302,
      "duration": 0.1683,
      "velocity": 100,
      "chip": "ym2612"
    },
    {
      "channel": 1,
      "note": 54,
      "start": 9.5324,
      "duration": 0.1667,
      "velocity": 109,
      "chip": "ym2612"
    },
    {
      "channel": 0,
      "note": 40,
      "start": 9.6988,
      "duration": 0.1999,
      "velocity": 100,
      "chip": "ym2612"
    },
    {
      "channel": 1,
      "note": 54,
      "start": 9.6993,
      "duration": 0.6009,
      "velocity": 109,
      "chip": "ym2612"
    },
    {
      "channel": 2,
      "note": 52,
      "start": 9.6998,
      "duration": 0.201,
      "velocity": 117,
      "chip": "ym2612"
    },
    {
      "channel": 5,
      "note": 86,
      "start": 9.7005,
      "duration": 0.201,
      "velocity": 114,
      "chip": "ym2612"
    },
    {
      "channel": 3,
      "note": 54,
      "start": 9.799,
      "duration": 0.1998,
      "velocity": 100,
      "chip": "ym2612"
    },
    {
      "channel": 4,
      "note": 54,
      "start": 9.7996,
      "duration": 0.1998,
      "velocity": 107,
      "chip": "ym2612"
    },
    {
      "channel": 0,
      "note": 37,
      "start": 9.8988,
      "duration": 0.1998,
      "velocity": 100,
      "chip": "ym2612"
    },
    {
      "channel": 2,
      "note": 49,
      "start": 9.901,
      "duration": 0.5666,
      "velocity": 117,
      "chip": "ym2612"
    },
    {
      "channel": 5,
      "note": 86,
      "start": 9.9017,
      "duration": 0.1978,
      "velocity": 114,
      "chip": "ym2612"
    },
    {
      "channel": 3,
      "note": 40,
      "start": 9.999,
      "duration": 0.1997,
      "velocity": 100,
      "chip": "ym2612"
    },
    {
      "channel": 4,
      "note": 54,
      "start": 9.9996,
      "duration": 0.5672,
      "velocity": 107,
      "chip": "ym2612"
    },
    {
      "channel": 0,
      "note": 52,
      "start": 10.0988,
      "duration": 0.3678,
      "velocity": 100,
      "chip": "ym2612"
    },
    {
      "channel": 5,
      "note": 86,
      "start": 10.0996,
      "duration": 0.3687,
      "velocity": 114,
      "chip": "ym2612"
    },
    {
      "channel": 3,
      "note": 37,
      "start": 10.199,
      "duration": 0.1768,
      "velocity": 100,
      "chip": "ym2612"
    },
    {
      "channel": 1,
      "note": 54,
      "start": 10.3004,
      "duration": 0.1667,
      "velocity": 109,
      "chip": "ym2612"
    },
    {
      "channel": 3,
      "note": 52,
      "start": 10.3759,
      "duration": 0.3907,
      "velocity": 100,
      "chip": "ym2612"
    },
    {
      "channel": 0,
      "note": 42,
      "start": 10.4667,
      "duration": 0.3998,
      "velocity": 100,
      "chip": "ym2612"
    },
    {
      "channel": 1,
      "note": 54,
      "start": 10.4672,
      "duration": 1.1698,
      "velocity": 109,
      "chip": "ym2612"
    },
    {
      "channel": 2,
      "note": 54,
      "start": 10.4678,
      "duration": 0.3994,
      "velocity": 117,
      "chip": "ym2612"
    },
    {
      "channel": 5,
      "note": 86,
      "start": 10.4685,
      "duration": 0.1999,
      "velocity": 114,
      "chip": "ym2612"
    },
    {
      "channel": 4,
      "note": 54,
      "start": 10.567,
      "duration": 0.2003,
      "velocity": 107,
      "chip": "ym2612"
    },
    {
      "channel": 5,
      "note": 86,
      "start": 10.6685,
      "duration": 0.1994,
      "velocity": 114,
      "chip": "ym2612"
    },
    {
      "channel": 3,
      "note": 42,
      "start": 10.7668,
      "duration": 0.3771,
      "velocity": 100,
      "chip": "ym2612"
    },
    {
      "channel": 4,
      "note": 54,
      "start": 10.7674,
      "duration": 1.1447,
      "velocity": 107,
      "chip": "ym2612"
    },
    {
      "channel": 0,
      "note": 42,
      "start": 10.8667,
      "duration": 0.3687,
      "velocity": 100,
      "chip": "ym2612"
    },
    {
      "channel": 2,
      "note": 54,
      "start": 10.8673,
      "duration": 0.3687,
      "velocity": 117,
      "chip": "ym2612"
    },
    {
      "channel": 5,
      "note": 86,
      "start": 10.868,
      "duration": 0.3687,
      "velocity": 114,
      "chip": "ym2612"
    },
    {
      "channel": 3,
      "note": 42,
      "start": 11.1441,
      "duration": 0.3915,
      "velocity": 100,
      "chip": "ym2612"
    },
    {
      "channel": 0,
      "note": 40,
      "start": 11.2355,
      "duration": 0.1998,
      "velocity": 100,
      "chip": "ym2612"
    },
    {
      "channel": 2,
      "note": 52,
      "start": 11.2362,
      "duration": 0.1998,
      "velocity": 117,
      "chip": "ym2612"
    },
    {
      "channel": 5,
      "note": 86,
      "start": 11.2369,
      "duration": 0.1998,
      "velocity": 114,
      "chip": "ym2612"
    },
    {
      "channel": 0,
      "note": 44,
      "start": 11.4355,
      "duration": 0.7544,
      "velocity": 100,
      "chip": "ym2612"
    },
    {
      "channel": 2,
      "note": 56,
      "start": 11.4361,
      "duration": 0.7546,
      "velocity": 117,
      "chip": "ym2612"
    },
    {
      "channel": 5,
      "note": 86,
      "start": 11.4368,
      "duration": 0.201,
      "velocity": 114,
      "chip": "ym2612"
    },
    {
      "channel": 3,
      "note": 40,
      "start": 11.5357,
      "duration": 0.1998,
      "velocity": 100,
      "chip": "ym2612"
    },
    {
      "channel": 1,
      "note": 59,
      "start": 11.6372,
      "duration": 0.3677,
      "velocity": 109,
      "chip": "ym2612"
    },
    {
      "channel": 5,
      "note": 86,
      "start": 11.6379,
      "duration": 0.7386,
      "velocity": 114,
      "chip": "ym2612"
    },
    {
      "channel": 3,
      "note": 44,
      "start": 11.7357,
      "duration": 0.7405,
      "velocity": 100,
      "chip": "ym2612"
    },
    {
      "channel": 4,
      "note": 59,
      "start": 11.9124,
      "duration": 0.9336,
      "velocity": 107,
      "chip": "ym2612"
    },
    {
      "channel": 1,
      "note": 57,
      "start": 12.0051,
      "duration": 0.5717,
      "velocity": 109,
      "chip": "ym2612"
    },
    {
      "channel": 0,
      "note": 42,
      "start": 12.1902,
      "duration": 0.386,
      "velocity": 100,
      "chip": "ym2612"
    },
    {
      "channel": 2,
      "note": 54,
      "start": 12.1908,
      "duration": 0.5554,
      "velocity": 117,
      "chip": "ym2612"
    },
    {
      "channel": 5,
      "note": 86,
      "start": 12.3766,
      "duration": 0.3703,
      "velocity": 114,
      "chip": "ym2612"
    },
    {
      "channel": 3,
      "note": 42,
      "start": 12.4765,
      "duration": 0.3688,
      "velocity": 100,
      "chip": "ym2612"
    },
    {
      "channel": 0,
      "note": 54,
      "start": 12.5763,
      "duration": 0.1688,
      "velocity": 100,
      "chip": "ym2612"
    },
    {
      "channel": 1,
      "note": 54,
      "start": 12.5769,
      "duration": 0.1687,
      "velocity": 109,
      "chip": "ym2612"
    },
    {
      "channel": 0,
      "note": 40,
      "start": 12.7452,
      "duration": 0.1999,
      "velocity": 100,
      "chip": "ym2612"
    },
    {
      "channel": 1,
      "note": 54,
      "start": 12.7458,
      "duration": 0.6009,
      "velocity": 109,
      "chip": "ym2612"
    },
    {
      "channel": 2,
      "note": 52,
      "start": 12.7464,
      "duration": 0.201,
      "velocity": 117,
      "chip": "ym2612"
    },
    {
      "channel": 5,
      "note": 86,
      "start": 12.7471,
      "duration": 0.201,
      "velocity": 114,
      "chip": "ym2612"
    },
    {
      "channel": 3,
      "note": 54,
      "start": 12.8455,
      "duration": 0.1999,
      "velocity": 100,
      "chip": "ym2612"
    },
    {
      "channel": 4,
      "note": 54,
      "start": 12.8461,
      "duration": 0.1997,
      "velocity": 107,
      "chip": "ym2612"
    },
    {
      "channel": 0,
      "note": 37,
      "start": 12.9453,
      "duration": 0.1998,
      "velocity": 100,
      "chip": "ym2612"
    },
    {
      "channel": 2,
      "note": 49,
      "start": 12.9475,
      "duration": 0.5671,
      "velocity": 117,
      "chip": "ym2612"
    },
    {
      "channel": 5,
      "note": 86,
      "start": 12.9482,
      "duration": 0.1977,
      "velocity": 114,
      "chip": "ym2612"
    },
    {
      "channel": 3,
      "note": 40,
      "start": 13.0455,
      "duration": 0.1997,
      "velocity": 100,
      "chip": "ym2612"
    },
    {
      "channel": 4,
      "note": 54,
      "start": 13.0461,
      "duration": 0.5677,
      "velocity": 107,
      "chip": "ym2612"
    },
    {
      "channel": 0,
      "note": 52,
      "start": 13.1452,
      "duration": 0.3683,
      "velocity": 100,
      "chip": "ym2612"
    },
    {
      "channel": 5,
      "note": 86,
      "start": 13.1461,
      "duration": 0.3692,
      "velocity": 114,
      "chip": "ym2612"
    },
    {
      "channel": 3,
      "note": 37,
      "start": 13.2454,
      "duration": 0.1768,
      "velocity": 100,
      "chip": "ym2612"
    },
    {
      "channel": 1,
      "note": 54,
      "start": 13.3469,
      "duration": 0.1672,
      "velocity": 109,
      "chip": "ym2612"
    },
    {
      "channel": 3,
      "note": 52,
      "start": 13.4224,
      "duration": 0.3913,
      "velocity": 100,
      "chip": "ym2612"
    },
    {
      "channel": 0,
      "note": 42,
      "start": 13.5137,
      "duration": 0.3998,
      "velocity": 100,
      "chip": "ym2612"
    },
    {
      "channel": 1,
      "note": 54,
      "start": 13.5142,
      "duration": 1.1698,
      "velocity": 109,
      "chip": "ym2612"
    },
    {
      "channel": 2,
      "note": 54,
      "start": 13.5148,
      "duration": 0.3994,
      "velocity": 117,
      "chip": "ym2612"
    },
    {
      "channel": 5,
      "note": 86,
      "start": 13.5155,
      "duration": 0.1999,
      "velocity": 114,
      "chip": "ym2612"
    },
    {
      "channel": 4,
      "note": 54,
      "start": 13.6139,
      "duration": 0.2003,
      "velocity": 107,
      "chip": "ym2612"
    },
    {
      "channel": 5,
      "note": 86,
      "start": 13.7156,
      "duration": 0.1993,
      "velocity": 114,
      "chip": "ym2612"
    },
    {
      "channel": 3,
      "note": 42,
      "start": 13.8138,
      "duration": 0.3771,
      "velocity": 100,
      "chip": "ym2612"
    },
    {
      "channel": 4,
      "note": 54,
      "start": 13.8144,
      "duration": 0.6707,
      "velocity": 127,
      "chip": "ym2612"
    },
    {
      "channel": 0,
      "note": 42,
      "start": 13.9137,
      "duration": 0.3686,
      "velocity": 100,
      "chip": "ym2612"
    },
    {
      "channel": 2,
      "note": 54,
      "start": 13.9143,
      "duration": 0.3686,
      "velocity": 117,
      "chip": "ym2612"
    },
    {
      "channel": 5,
      "note": 86,
      "start": 13.915,
      "duration": 0.3686,
      "velocity": 114,
      "chip": "ym2612"
    },
    {
      "channel": 3,
      "note": 42,
      "start": 14.1911,
      "duration": 0.3914,
      "velocity": 100,
      "chip": "ym2612"
    },
    {
      "channel": 0,
      "note": 40,
      "start": 14.2824,
      "duration": 0.1999,
      "velocity": 100,
      "chip": "ym2612"
    },
    {
      "channel": 2,
      "note": 52,
      "start": 14.2831,
      "duration": 0.1998,
      "velocity": 117,
      "chip": "ym2612"
    },
    {
      "channel": 5,
      "note": 86,
      "start": 14.2838,
      "duration": 0.2019,
      "velocity": 114,
      "chip": "ym2612"
    },
    {
      "channel": 0,
      "note": 44,
      "start": 14.4824,
      "duration": 0.7551,
      "velocity": 100,
      "chip": "ym2612"
    },
    {
      "channel": 2,
      "note": 56,
      "start": 14.4831,
      "duration": 0.7567,
      "velocity": 117,
      "chip": "ym2612"
    },
    {
      "channel": 4,
      "note": 98,
      "start": 14.4853,
      "duration": 0.0978,
      "velocity": 127,
      "chip": "ym2612"
    },
    {
      "channel": 5,
      "note": 86,
      "start": 14.4858,
      "duration": 0.1994,
      "velocity": 114,
      "chip": "ym2612"
    },
    {
      "channel": 3,
      "note": 40,
      "start": 14.5827,
      "duration": 0.1997,
      "velocity": 100,
      "chip": "ym2612"
    },
    {
      "channel": 4,
      "note": 98,
      "start": 14.5832,
      "duration": 0.1014,
      "velocity": 127,
      "chip": "ym2612"
    },
    {
      "channel": 1,
      "note": 59,
      "start": 14.6841,
      "duration": 0.3683,
      "velocity": 109,
      "chip": "ym2612"
    },
    {
      "channel": 4,
      "note": 98,
      "start": 14.6848,
      "duration": 0.1993,
      "velocity": 127,
      "chip": "ym2612"
    },
    {
      "channel": 5,
      "note": 86,
      "start": 14.6854,
      "duration": 0.7389,
      "velocity": 114,
      "chip": "ym2612"
    },
    {
      "channel": 3,
      "note": 44,
      "start": 14.7827,
      "duration": 0.7415,
      "velocity": 100,
      "chip": "ym2612"
    },
    {
      "channel": 4,
      "note": 98,
      "start": 14.8843,
      "duration": 0.0771,
      "velocity": 107,
      "chip": "ym2612"
    },
    {
      "channel": 4,
      "note": 59,
      "start": 14.9616,
      "duration": 0.3627,
      "velocity": 107,
      "chip": "ym2612"
    },
    {
      "channel": 1,
      "note": 57,
      "start": 15.0525,
      "duration": 0.5737,
      "velocity": 109,
      "chip": "ym2612"
    },
    {
      "channel": 0,
      "note": 42,
      "start": 15.2377,
      "duration": 0.3863,
      "velocity": 100,
      "chip": "ym2612"
    },
    {
      "channel": 2,
      "note": 54,
      "start": 15.2399,
      "duration": 0.5537,
      "velocity": 117,
      "chip": "ym2612"
    },
    {
      "channel": 4,
      "note": 57,
      "start": 15.3245,
      "duration": 0.5688,
      "velocity": 107,
      "chip": "ym2612"
    },
    {
      "channel": 5,
      "note": 86,
      "start": 15.4244,
      "duration": 0.3699,
      "velocity": 114,
      "chip": "ym2612"
    },
    {
      "channel": 3,
      "note": 42,
      "start": 15.5243,
      "duration": 0.3685,
      "velocity": 100,
      "chip": "ym2612"
    },
    {
      "channel": 0,
      "note": 54,
      "start": 15.6241,
      "duration": 0.1683,
      "velocity": 100,
      "chip": "ym2612"
    },
    {
      "channel": 1,
      "note": 54,
      "start": 15.6263,
      "duration": 0.1667,
      "velocity": 109,
      "chip": "ym2612"
    },
    {
      "channel": 0,
      "note": 40,
      "start": 15.7927,
      "duration": 0.1999,
      "velocity": 100,
      "chip": "ym2612"
    },
    {
      "channel": 1,
      "note": 54,
      "start": 15.7933,
      "duration": 0.6009,
      "velocity": 109,
      "chip": "ym2612"
    },
    {
      "channel": 2,
      "note": 52,
      "start": 15.7938,
      "duration": 0.201,
      "velocity": 117,
      "chip": "ym2612"
    },
    {
      "channel": 5,
      "note": 86,
      "start": 15.7945,
      "duration": 0.201,
      "velocity": 114,
      "chip": "ym2612"
    },
    {
      "channel": 3,
      "note": 54,
      "start": 15.8929,
      "duration": 0.1998,
      "velocity": 100,
      "chip": "ym2612"
    },
    {
      "channel": 4,
      "note": 54,
      "start": 15.8935,
      "duration": 0.1998,
      "velocity": 107,
      "chip": "ym2612"
    },
    {
      "channel": 0,
      "note": 37,
      "start": 15.9927,
      "duration": 0.1998,
      "velocity": 100,
      "chip": "ym2612"
    },
    {
      "channel": 2,
      "note": 49,
      "start": 15.9949,
      "duration": 0.5666,
      "velocity": 117,
      "chip": "ym2612"
    },
    {
      "channel": 5,
      "note": 86,
      "start": 15.9956,
      "duration": 0.1978,
      "velocity": 114,
      "chip": "ym2612"
    },
    {
      "channel": 3,
      "note": 40,
      "start": 16.0929,
      "duration": 0.1997,
      "velocity": 100,
      "chip": "ym2612"
    },
    {
      "channel": 4,
      "note": 54,
      "start": 16.0935,
      "duration": 0.5672,
      "velocity": 107,
      "chip": "ym2612"
    },
    {
      "channel": 0,
      "note": 52,
      "start": 16.1927,
      "duration": 0.3678,
      "velocity": 100,
      "chip": "ym2612"
    },
    {
      "channel": 5,
      "note": 86,
      "start": 16.1935,
      "duration": 0.3687,
      "velocity": 114,
      "chip": "ym2612"
    },
    {
      "channel": 3,
      "note": 37,
      "start": 16.2929,
      "duration": 0.1768,
      "velocity": 100,
      "chip": "ym2612"
    },
    {
      "channel": 1,
      "note": 54,
      "start": 16.3943,
      "duration": 0.1667,
      "velocity": 109,
      "chip": "ym2612"
    },
    {
      "channel": 3,
      "note": 52,
      "start": 16.4699,
      "duration": 0.3907,
      "velocity": 100,
      "chip": "ym2612"
    },
    {
      "channel": 0,
      "note": 42,
      "start": 16.5606,
      "duration": 0.3998,
      "velocity": 100,
      "chip": "ym2612"
    },
    {
      "channel": 1,
      "note": 54,
      "start": 16.5612,
      "duration": 1.1698,
      "velocity": 109,
      "chip": "ym2612"
    },
    {
      "channel": 2,
      "note": 54,
      "start": 16.5617,
      "duration": 0.3994,
      "velocity": 117,
      "chip": "ym2612"
    },
    {
      "channel": 5,
      "note": 86,
      "start": 16.5624,
      "duration": 0.1999,
      "velocity": 114,
      "chip": "ym2612"
    },
    {
      "channel": 4,
      "note": 54,
      "start": 16.6609,
      "duration": 0.2003,
      "velocity": 107,
      "chip": "ym2612"
    },
    {
      "channel": 5,
      "note": 86,
      "start": 16.7624,
      "duration": 0.1994,
      "velocity": 114,
      "chip": "ym2612"
    },
    {
      "channel": 3,
      "note": 42,
      "start": 16.8608,
      "duration": 0.3771,
      "velocity": 100,
      "chip": "ym2612"
    },
    {
      "channel": 4,
      "note": 54,
      "start": 16.8613,
      "duration": 1.1447,
      "velocity": 107,
      "chip": "ym2612"
    },
    {
      "channel": 0,
      "note": 42,
      "start": 16.9606,
      "duration": 0.3687,
      "velocity": 100,
      "chip": "ym2612"
    },
    {
      "channel": 2,
      "note": 54,
      "start": 16.9612,
      "duration": 0.3687,
      "velocity": 117,
      "chip": "ym2612"
    },
    {
      "channel": 5,
      "note": 86,
      "start": 16.9619,
      "duration": 0.3687,
      "velocity": 114,
      "chip": "ym2612"
    },
    {
      "channel": 3,
      "note": 42,
      "start": 17.2381,
      "duration": 0.3915,
      "velocity": 100,
      "chip": "ym2612"
    },
    {
      "channel": 0,
      "note": 40,
      "start": 17.3295,
      "duration": 0.1998,
      "velocity": 100,
      "chip": "ym2612"
    },
    {
      "channel": 2,
      "note": 52,
      "start": 17.3301,
      "duration": 0.1998,
      "velocity": 117,
      "chip": "ym2612"
    },
    {
      "channel": 5,
      "note": 86,
      "start": 17.3308,
      "duration": 0.1998,
      "velocity": 114,
      "chip": "ym2612"
    },
    {
      "channel": 0,
      "note": 44,
      "start": 17.5295,
      "duration": 0.7544,
      "velocity": 100,
      "chip": "ym2612"
    },
    {
      "channel": 2,
      "note": 56,
      "start": 17.53,
      "duration": 0.758,
      "velocity": 1,
      "chip": "ym2612"
    },
    {
      "channel": 5,
      "note": 86,
      "start": 17.5307,
      "duration": 0.201,
      "velocity": 114,
      "chip": "ym2612"
    },
    {
      "channel": 3,
      "note": 40,
      "start": 17.6297,
      "duration": 0.1998,
      "velocity": 100,
      "chip": "ym2612"
    },
    {
      "channel": 1,
      "note": 59,
      "start": 17.7311,
      "duration": 0.3677,
      "velocity": 109,
      "chip": "ym2612"
    },
    {
      "channel": 5,
      "note": 86,
      "start": 17.7318,
      "duration": 0.7412,
      "velocity": 114,
      "chip": "ym2612"
    },
    {
      "channel": 3,
      "note": 44,
      "start": 17.8297,
      "duration": 0.7428,
      "velocity": 100,
      "chip": "ym2612"
    },
    {
      "channel": 4,
      "note": 59,
      "start": 18.0063,
      "duration": 3.3277,
      "velocity": 127,
      "chip": "ym2612"
    },
    {
      "channel": 1,
      "note": 57,
      "start": 18.099,
      "duration": 0.187,
      "velocity": 92,
      "chip": "ym2612"
    },
    {
      "channel": 0,
      "note": 42,
      "start": 18.284,
      "duration": 0.3866,
      "velocity": 100,
      "chip": "ym2612"
    },
    {
      "channel": 1,
      "note": 66,
      "start": 18.2861,
      "duration": 6.4837,
      "velocity": 109,
      "chip": "ym2612"
    },
    {
      "channel": 2,
      "note": 67,
      "start": 18.2883,
      "duration": 0.184,
      "velocity": 92,
      "chip": "ym2612"
    },
    {
      "channel": 2,
      "note": 66,
      "start": 18.4725,
      "duration": 5.3548,
      "velocity": 117,
      "chip": "ym2612"
    },
    {
      "channel": 5,
      "note": 86,
      "start": 18.4733,
      "duration": 0.3664,
      "velocity": 114,
      "chip": "ym2612"
    },
    {
      "channel": 3,
      "note": 42,
      "start": 18.5726,
      "duration": 0.3664,
      "velocity": 100,
      "chip": "ym2612"
    },
    {
      "channel": 0,
      "note": 54,
      "start": 18.6708,
      "duration": 0.1681,
      "velocity": 100,
      "chip": "ym2612"
    },
    {
      "channel": 0,
      "note": 40,
      "start": 18.839,
      "duration": 0.1999,
      "velocity": 100,
      "chip": "ym2612"
    },
    {
      "channel": 5,
      "note": 86,
      "start": 18.8398,
      "duration": 0.1999,
      "velocity": 114,
      "chip": "ym2612"
    },
    {
      "channel": 3,
      "note": 54,
      "start": 18.9393,
      "duration": 0.1998,
      "velocity": 100,
      "chip": "ym2612"
    },
    {
      "channel": 0,
      "note": 37,
      "start": 19.039,
      "duration": 0.1998,
      "velocity": 100,
      "chip": "ym2612"
    },
    {
      "channel": 5,
      "note": 86,
      "start": 19.0398,
      "duration": 0.1999,
      "velocity": 114,
      "chip": "ym2612"
    },
    {
      "channel": 3,
      "note": 40,
      "start": 19.1393,
      "duration": 0.1998,
      "velocity": 100,
      "chip": "ym2612"
    },
    {
      "channel": 0,
      "note": 52,
      "start": 19.239,
      "duration": 0.3686,
      "velocity": 100,
      "chip": "ym2612"
    },
    {
      "channel": 5,
      "note": 86,
      "start": 19.2398,
      "duration": 0.3686,
      "velocity": 114,
      "chip": "ym2612"
    },
    {
      "channel": 3,
      "note": 37,
      "start": 19.3393,
      "duration": 0.1773,
      "velocity": 100,
      "chip": "ym2612"
    },
    {
      "channel": 3,
      "note": 52,
      "start": 19.5167,
      "duration": 0.3911,
      "velocity": 100,
      "chip": "ym2612"
    },
    {
      "channel": 0,
      "note": 42,
      "start": 19.6078,
      "duration": 0.3998,
      "velocity": 100,
      "chip": "ym2612"
    },
    {
      "channel": 5,
      "note": 86,
      "start": 19.6086,
      "duration": 0.1993,
      "velocity": 114,
      "chip": "ym2612"
    },
    {
      "channel": 5,
      "note": 86,
      "start": 19.8081,
      "duration": 0.2004,
      "velocity": 114,
      "chip": "ym2612"
    },
    {
      "channel": 3,
      "note": 42,
      "start": 19.908,
      "duration": 0.3771,
      "velocity": 100,
      "chip": "ym2612"
    },
    {
      "channel": 0,
      "note": 42,
      "start": 20.0078,
      "duration": 0.3686,
      "velocity": 100,
      "chip": "ym2612"
    },
    {
      "channel": 5,
      "note": 86,
      "start": 20.0087,
      "duration": 0.3686,
      "velocity": 114,
      "chip": "ym2612"
    },
    {
      "channel": 3,
      "note": 42,
      "start": 20.2853,
      "duration": 0.3914,
      "velocity": 100,
      "chip": "ym2612"
    },
    {
      "channel": 0,
      "note": 40,
      "start": 20.3766,
      "duration": 0.1998,
      "velocity": 100,
      "chip": "ym2612"
    },
    {
      "channel": 5,
      "note": 86,
      "start": 20.3775,
      "duration": 0.1998,
      "velocity": 114,
      "chip": "ym2612"
    },
    {
      "channel": 0,
      "note": 44,
      "start": 20.5766,
      "duration": 0.7551,
      "velocity": 100,
      "chip": "ym2612"
    },
    {
      "channel": 5,
      "note": 86,
      "start": 20.5774,
      "duration": 0.1994,
      "velocity": 114,
      "chip": "ym2612"
    },
    {
      "channel": 3,
      "note": 40,
      "start": 20.6768,
      "duration": 0.1998,
      "velocity": 100,
      "chip": "ym2612"
    },
    {
      "channel": 5,
      "note": 86,
      "start": 20.7769,
      "duration": 0.7421,
      "velocity": 114,
      "chip": "ym2612"
    },
    {
      "channel": 3,
      "note": 44,
      "start": 20.8768,
      "duration": 0.7416,
      "velocity": 100,
      "chip": "ym2612"
    },
    {
      "channel": 0,
      "note": 42,
      "start": 21.3319,
      "duration": 0.3864,
      "velocity": 100,
      "chip": "ym2612"
    },
    {
      "channel": 4,
      "note": 91,
      "start": 21.3342,
      "duration": 0.0843,
      "velocity": 127,
      "chip": "ym2612"
    },
    {
      "channel": 4,
      "note": 91,
      "start": 21.4187,
      "duration": 0.0997,
      "velocity": 127,
      "chip": "ym2612"
    },
    {
      "channel": 4,
      "note": 91,
      "start": 21.5186,
      "duration": 0.2004,
      "velocity": 127,
      "chip": "ym2612"
    },
    {
      "channel": 5,
      "note": 86,
      "start": 21.5192,
      "duration": 0.3688,
      "velocity": 114,
      "chip": "ym2612"
    },
    {
      "channel": 3,
      "note": 42,
      "start": 21.6186,
      "duration": 0.3688,
      "velocity": 100,
      "chip": "ym2612"
    },
    {
      "channel": 0,
      "note": 54,
      "start": 21.7184,
      "duration": 0.1688,
      "velocity": 100,
      "chip": "ym2612"
    },
    {
      "channel": 4,
      "note": 91,
      "start": 21.7192,
      "duration": 1.1393,
      "velocity": 127,
      "chip": "ym2612"
    },
    {
      "channel": 0,
      "note": 40,
      "start": 21.8874,
      "duration": 0.1999,
      "velocity": 100,
      "chip": "ym2612"
    },
    {
      "channel": 5,
      "note": 86,
      "start": 21.8882,
      "duration": 0.1999,
      "velocity": 114,
      "chip": "ym2612"
    },
    {
      "channel": 3,
      "note": 54,
      "start": 21.9876,
      "duration": 0.1998,
      "velocity": 100,
      "chip": "ym2612"
    },
    {
      "channel": 0,
      "note": 37,
      "start": 22.0874,
      "duration": 0.1998,
      "velocity": 100,
      "chip": "ym2612"
    },
    {
      "channel": 5,
      "note": 86,
      "start": 22.0882,
      "duration": 0.1999,
      "velocity": 114,
      "chip": "ym2612"
    },
    {
      "channel": 3,
      "note": 40,
      "start": 22.1876,
      "duration": 0.1998,
      "velocity": 100,
      "chip": "ym2612"
    },
    {
      "channel": 0,
      "note": 52,
      "start": 22.2874,
      "duration": 0.3693,
      "velocity": 100,
      "chip": "ym2612"
    },
    {
      "channel": 5,
      "note": 86,
      "start": 22.2882,
      "duration": 0.3693,
      "velocity": 114,
      "chip": "ym2612"
    },
    {
      "channel": 3,
      "note": 37,
      "start": 22.3876,
      "duration": 0.1773,
      "velocity": 100,
      "chip": "ym2612"
    },
    {
      "channel": 3,
      "note": 52,
      "start": 22.5651,
      "duration": 0.3918,
      "velocity": 100,
      "chip": "ym2612"
    },
    {
      "channel": 0,
      "note": 42,
      "start": 22.6569,
      "duration": 0.3998,
      "velocity": 100,
      "chip": "ym2612"
    },
    {
      "channel": 5,
      "note": 86,
      "start": 22.6577,
      "duration": 0.2015,
      "velocity": 114,
      "chip": "ym2612"
    },
    {
      "channel": 4,
      "note": 21,
      "start": 22.8587,
      "duration": 2.1799,
      "velocity": 107,
      "chip": "ym2612"
    },
    {
      "channel": 5,
      "note": 86,
      "start": 22.8593,
      "duration": 0.1983,
      "velocity": 114,
      "chip": "ym2612"
    },
    {
      "channel": 3,
      "note": 42,
      "start": 22.9571,
      "duration": 0.3773,
      "velocity": 100,
      "chip": "ym2612"
    },
    {
      "channel": 0,
      "note": 42,
      "start": 23.0569,
      "duration": 0.3687,
      "velocity": 100,
      "chip": "ym2612"
    },
    {
      "channel": 5,
      "note": 86,
      "start": 23.0577,
      "duration": 0.3687,
      "velocity": 114,
      "chip": "ym2612"
    },
    {
      "channel": 3,
      "note": 42,
      "start": 23.3346,
      "duration": 0.3928,
      "velocity": 100,
      "chip": "ym2612"
    },
    {
      "channel": 0,
      "note": 40,
      "start": 23.4258,
      "duration": 0.1998,
      "velocity": 100,
      "chip": "ym2612"
    },
    {
      "channel": 5,
      "note": 86,
      "start": 23.4266,
      "duration": 0.1998,
      "velocity": 114,
      "chip": "ym2612"
    },
    {
      "channel": 0,
      "note": 44,
      "start": 23.6257,
      "duration": 0.7555,
      "velocity": 100,
      "chip": "ym2612"
    },
    {
      "channel": 5,
      "note": 86,
      "start": 23.6266,
      "duration": 0.2015,
      "velocity": 114,
      "chip": "ym2612"
    },
    {
      "channel": 3,
      "note": 40,
      "start": 23.7276,
      "duration": 0.1982,
      "velocity": 100,
      "chip": "ym2612"
    },
    {
      "channel": 2,
      "note": 61,
      "start": 23.8274,
      "duration": 0.1983,
      "velocity": 117,
      "chip": "ym2612"
    },
    {
      "channel": 5,
      "note": 86,
      "start": 23.8281,
      "duration": 0.7399,
      "velocity": 114,
      "chip": "ym2612"
    },
    {
      "channel": 3,
      "note": 44,
      "start": 23.926,
      "duration": 0.7419,
      "velocity": 100,
      "chip": "ym2612"
    },
    {
      "channel": 2,
      "note": 73,
      "start": 24.0259,
      "duration": 0.1688,
      "velocity": 117,
      "chip": "ym2612"
    },
    {
      "channel": 2,
      "note": 72,
      "start": 24.1947,
      "duration": 0.025,
      "velocity": 117,
      "chip": "ym2612"
    },
    {
      "channel": 2,
      "note": 71,
      "start": 24.2197,
      "duration": 0.0128,
      "velocity": 117,
      "chip": "ym2612"
    },
    {
      "channel": 2,
      "note": 70,
      "start": 24.2325,
      "duration": 0.0148,
      "velocity": 117,
      "chip": "ym2612"
    },
    {
      "channel": 2,
      "note": 69,
      "start": 24.2473,
      "duration": 0.0167,
      "velocity": 117,
      "chip": "ym2612"
    },
    {
      "channel": 2,
      "note": 68,
      "start": 24.2641,
      "duration": 0.0499,
      "velocity": 117,
      "chip": "ym2612"
    },
    {
      "channel": 2,
      "note": 68,
      "start": 24.314,
      "duration": 0.0167,
      "velocity": 117,
      "chip": "ym2612"
    },
    {
      "channel": 2,
      "note": 67,
      "start": 24.3307,
      "duration": 0.0167,
      "velocity": 117,
      "chip": "ym2612"
    },
    {
      "channel": 2,
      "note": 66,
      "start": 24.3473,
      "duration": 0.0167,
      "velocity": 117,
      "chip": "ym2612"
    },
    {
      "channel": 2,
      "note": 66,
      "start": 24.3641,
      "duration": 0.0179,
      "velocity": 117,
      "chip": "ym2612"
    },
    {
      "channel": 0,
      "note": 42,
      "start": 24.3814,
      "duration": 0.3863,
      "velocity": 100,
      "chip": "ym2612"
    },
    {
      "channel": 2,
      "note": 54,
      "start": 24.3821,
      "duration": 0.5553,
      "velocity": 117,
      "chip": "ym2612"
    },
    {
      "channel": 5,
      "note": 86,
      "start": 24.5682,
      "duration": 0.3699,
      "velocity": 114,
      "chip": "ym2612"
    },
    {
      "channel": 3,
      "note": 42,
      "start": 24.668,
      "duration": 0.3684,
      "velocity": 100,
      "chip": "ym2612"
    },
    {
      "channel": 0,
      "note": 54,
      "start": 24.7678,
      "duration": 0.1684,
      "velocity": 100,
      "chip": "ym2612"
    },
    {
      "channel": 1,
      "note": 54,
      "start": 24.77,
      "duration": 0.1667,
      "velocity": 109,
      "chip": "ym2612"
    },
    {
      "channel": 0,
      "note": 40,
      "start": 24.9364,
      "duration": 0.2,
      "velocity": 100,
      "chip": "ym2612"
    },
    {
      "channel": 1,
      "note": 54,
      "start": 24.937,
      "duration": 0.6009,
      "velocity": 109,
      "chip": "ym2612"
    },
    {
      "channel": 2,
      "note": 52,
      "start": 24.9375,
      "duration": 0.201,
      "velocity": 117,
      "chip": "ym2612"
    },
    {
      "channel": 5,
      "note": 86,
      "start": 24.9382,
      "duration": 0.201,
      "velocity": 114,
      "chip": "ym2612"
    },
    {
      "channel": 3,
      "note": 54,
      "start": 25.0366,
      "duration": 0.1998,
      "velocity": 100,
      "chip": "ym2612"
    },
    {
      "channel": 4,
      "note": 54,
      "start": 25.0388,
      "duration": 0.1982,
      "velocity": 107,
      "chip": "ym2612"
    },
    {
      "channel": 0,
      "note": 37,
      "start": 25.1364,
      "duration": 0.1998,
      "velocity": 100,
      "chip": "ym2612"
    },
    {
      "channel": 2,
      "note": 49,
      "start": 25.1386,
      "duration": 0.5668,
      "velocity": 117,
      "chip": "ym2612"
    },
    {
      "channel": 5,
      "note": 86,
      "start": 25.1393,
      "duration": 0.1977,
      "velocity": 114,
      "chip": "ym2612"
    },
    {
      "channel": 3,
      "note": 40,
      "start": 25.2366,
      "duration": 0.1997,
      "velocity": 100,
      "chip": "ym2612"
    },
    {
      "channel": 4,
      "note": 54,
      "start": 25.2372,
      "duration": 0.5673,
      "velocity": 107,
      "chip": "ym2612"
    },
    {
      "channel": 0,
      "note": 52,
      "start": 25.3364,
      "duration": 0.3679,
      "velocity": 100,
      "chip": "ym2612"
    },
    {
      "channel": 5,
      "note": 86,
      "start": 25.3372,
      "duration": 0.3688,
      "velocity": 114,
      "chip": "ym2612"
    },
    {
      "channel": 3,
      "note": 37,
      "start": 25.4366,
      "duration": 0.1767,
      "velocity": 100,
      "chip": "ym2612"
    },
    {
      "channel": 1,
      "note": 54,
      "start": 25.538,
      "duration": 0.1668,
      "velocity": 109,
      "chip": "ym2612"
    },
    {
      "channel": 3,
      "note": 52,
      "start": 25.6134,
      "duration": 0.391,
      "velocity": 100,
      "chip": "ym2612"
    },
    {
      "channel": 0,
      "note": 42,
      "start": 25.7044,
      "duration": 0.3998,
      "velocity": 100,
      "chip": "ym2612"
    },
    {
      "channel": 1,
      "note": 54,
      "start": 25.705,
      "duration": 1.1699,
      "velocity": 109,
      "chip": "ym2612"
    },
    {
      "channel": 2,
      "note": 54,
      "start": 25.7055,
      "duration": 0.3994,
      "velocity": 117,
      "chip": "ym2612"
    },
    {
      "channel": 5,
      "note": 86,
      "start": 25.7062,
      "duration": 0.1999,
      "velocity": 114,
      "chip": "ym2612"
    },
    {
      "channel": 4,
      "note": 54,
      "start": 25.8047,
      "duration": 0.2003,
      "velocity": 107,
      "chip": "ym2612"
    },
    {
      "channel": 5,
      "note": 86,
      "start": 25.9063,
      "duration": 0.1993,
      "velocity": 114,
      "chip": "ym2612"
    },
    {
      "channel": 3,
      "note": 42,
      "start": 26.0046,
      "duration": 0.3773,
      "velocity": 100,
      "chip": "ym2612"
    },
    {
      "channel": 4,
      "note": 54,
      "start": 26.0051,
      "duration": 1.1448,
      "velocity": 107,
      "chip": "ym2612"
    },
    {
      "channel": 0,
      "note": 42,
      "start": 26.1044,
      "duration": 0.3688,
      "velocity": 100,
      "chip": "ym2612"
    },
    {
      "channel": 2,
      "note": 54,
      "start": 26.105,
      "duration": 0.3688,
      "velocity": 117,
      "chip": "ym2612"
    },
    {
      "channel": 5,
      "note": 86,
      "start": 26.1057,
      "duration": 0.3688,
      "velocity": 114,
      "chip": "ym2612"
    },
    {
      "channel": 3,
      "note": 42,
      "start": 26.3821,
      "duration": 0.3913,
      "velocity": 100,
      "chip": "ym2612"
    },
    {
      "channel": 0,
      "note": 40,
      "start": 26.4734,
      "duration": 0.1998,
      "velocity": 100,
      "chip": "ym2612"
    },
    {
      "channel": 2,
      "note": 52,
      "start": 26.474,
      "duration": 0.1998,
      "velocity": 117,
      "chip": "ym2612"
    },
    {
      "channel": 5,
      "note": 86,
      "start": 26.4747,
      "duration": 0.1998,
      "velocity": 114,
      "chip": "ym2612"
    },
    {
      "channel": 0,
      "note": 44,
      "start": 26.6734,
      "duration": 0.7548,
      "velocity": 100,
      "chip": "ym2612"
    },
    {
      "channel": 2,
      "note": 56,
      "start": 26.674,
      "duration": 0.7563,
      "velocity": 117,
      "chip": "ym2612"
    },
    {
      "channel": 5,
      "note": 86,
      "start": 26.6747,
      "duration": 0.201,
      "velocity": 114,
      "chip": "ym2612"
    },
    {
      "channel": 3,
      "note": 40,
      "start": 26.7736,
      "duration": 0.1998,
      "velocity": 100,
      "chip": "ym2612"
    },
    {
      "channel": 1,
      "note": 59,
      "start": 26.8751,
      "duration": 0.3679,
      "velocity": 109,
      "chip": "ym2612"
    },
    {
      "channel": 5,
      "note": 86,
      "start": 26.8758,
      "duration": 0.7398,
      "velocity": 114,
      "chip": "ym2612"
    },
    {
      "channel": 3,
      "note": 44,
      "start": 26.9736,
      "duration": 0.7418,
      "velocity": 100,
      "chip": "ym2612"
    },
    {
      "channel": 4,
      "note": 59,
      "start": 27.1502,
      "duration": 0.3655,
      "velocity": 107,
      "chip": "ym2612"
    },
    {
      "channel": 1,
      "note": 57,
      "start": 27.2431,
      "duration": 0.5744,
      "velocity": 109,
      "chip": "ym2612"
    },
    {
      "channel": 0,
      "note": 42,
      "start": 27.4283,
      "duration": 0.3871,
      "velocity": 100,
      "chip": "ym2612"
    },
    {
      "channel": 2,
      "note": 54,
      "start": 27.4305,
      "duration": 0.5544,
      "velocity": 117,
      "chip": "ym2612"
    },
    {
      "channel": 4,
      "note": 57,
      "start": 27.5158,
      "duration": 0.5688,
      "velocity": 107,
      "chip": "ym2612"
    },
    {
      "channel": 5,
      "note": 86,
      "start": 27.6158,
      "duration": 0.3699,
      "velocity": 114,
      "chip": "ym2612"
    },
    {
      "channel": 3,
      "note": 42,
      "start": 27.7156,
      "duration": 0.3684,
      "velocity": 100,
      "chip": "ym2612"
    },
    {
      "channel": 0,
      "note": 54,
      "start": 27.8155,
      "duration": 0.1684,
      "velocity": 100,
      "chip": "ym2612"
    },
    {
      "channel": 1,
      "note": 54,
      "start": 27.8177,
      "duration": 0.1667,
      "velocity": 109,
      "chip": "ym2612"
    },
    {
      "channel": 0,
      "note": 40,
      "start": 27.984,
      "duration": 0.2,
      "velocity": 100,
      "chip": "ym2612"
    },
    {
      "channel": 1,
      "note": 54,
      "start": 27.9846,
      "duration": 0.6009,
      "velocity": 109,
      "chip": "ym2612"
    },
    {
      "channel": 2,
      "note": 52,
      "start": 27.9851,
      "duration": 0.201,
      "velocity": 117,
      "chip": "ym2612"
    },
    {
      "channel": 5,
      "note": 86,
      "start": 27.9859,
      "duration": 0.201,
      "velocity": 114,
      "chip": "ym2612"
    },
    {
      "channel": 3,
      "note": 54,
      "start": 28.0843,
      "duration": 0.1999,
      "velocity": 100,
      "chip": "ym2612"
    },
    {
      "channel": 4,
      "note": 54,
      "start": 28.0848,
      "duration": 0.1998,
      "velocity": 107,
      "chip": "ym2612"
    },
    {
      "channel": 0,
      "note": 37,
      "start": 28.1841,
      "duration": 0.1998,
      "velocity": 100,
      "chip": "ym2612"
    },
    {
      "channel": 2,
      "note": 49,
      "start": 28.1862,
      "duration": 0.5668,
      "velocity": 117,
      "chip": "ym2612"
    },
    {
      "channel": 5,
      "note": 86,
      "start": 28.1869,
      "duration": 0.1977,
      "velocity": 114,
      "chip": "ym2612"
    },
    {
      "channel": 3,
      "note": 40,
      "start": 28.2843,
      "duration": 0.1997,
      "velocity": 100,
      "chip": "ym2612"
    },
    {
      "channel": 4,
      "note": 54,
      "start": 28.2848,
      "duration": 0.5674,
      "velocity": 107,
      "chip": "ym2612"
    },
    {
      "channel": 0,
      "note": 52,
      "start": 28.384,
      "duration": 0.368,
      "velocity": 100,
      "chip": "ym2612"
    },
    {
      "channel": 5,
      "note": 86,
      "start": 28.3848,
      "duration": 0.3689,
      "velocity": 114,
      "chip": "ym2612"
    },
    {
      "channel": 3,
      "note": 37,
      "start": 28.4842,
      "duration": 0.1769,
      "velocity": 100,
      "chip": "ym2612"
    },
    {
      "channel": 1,
      "note": 54,
      "start": 28.5856,
      "duration": 0.1669,
      "velocity": 109,
      "chip": "ym2612"
    },
    {
      "channel": 3,
      "note": 52,
      "start": 28.6613,
      "duration": 0.3908,
      "velocity": 100,
      "chip": "ym2612"
    },
    {
      "channel": 0,
      "note": 42,
      "start": 28.7521,
      "duration": 0.3998,
      "velocity": 100,
      "chip": "ym2612"
    },
    {
      "channel": 1,
      "note": 54,
      "start": 28.7527,
      "duration": 1.1698,
      "velocity": 109,
      "chip": "ym2612"
    },
    {
      "channel": 2,
      "note": 54,
      "start": 28.7532,
      "duration": 0.3994,
      "velocity": 117,
      "chip": "ym2612"
    },
    {
      "channel": 5,
      "note": 86,
      "start": 28.7539,
      "duration": 0.1999,
      "velocity": 114,
      "chip": "ym2612"
    },
    {
      "channel": 4,
      "note": 54,
      "start": 28.8524,
      "duration": 0.2003,
      "velocity": 107,
      "chip": "ym2612"
    },
    {
      "channel": 5,
      "note": 86,
      "start": 28.954,
      "duration": 0.1993,
      "velocity": 114,
      "chip": "ym2612"
    },
    {
      "channel": 3,
      "note": 42,
      "start": 29.0523,
      "duration": 0.3773,
      "velocity": 100,
      "chip": "ym2612"
    },
    {
      "channel": 4,
      "note": 54,
      "start": 29.0528,
      "duration": 1.1447,
      "velocity": 107,
      "chip": "ym2612"
    },
    {
      "channel": 0,
      "note": 42,
      "start": 29.1521,
      "duration": 0.3687,
      "velocity": 100,
      "chip": "ym2612"
    },
    {
      "channel": 2,
      "note": 54,
      "start": 29.1527,
      "duration": 0.3687,
      "velocity": 117,
      "chip": "ym2612"
    },
    {
      "channel": 5,
      "note": 86,
      "start": 29.1534,
      "duration": 0.3687,
      "velocity": 114,
      "chip": "ym2612"
    },
    {
      "channel": 3,
      "note": 42,
      "start": 29.4298,
      "duration": 0.3912,
      "velocity": 100,
      "chip": "ym2612"
    },
    {
      "channel": 0,
      "note": 40,
      "start": 29.521,
      "duration": 0.1998,
      "velocity": 100,
      "chip": "ym2612"
    },
    {
      "channel": 2,
      "note": 52,
      "start": 29.5216,
      "duration": 0.1998,
      "velocity": 117,
      "chip": "ym2612"
    },
    {
      "channel": 5,
      "note": 86,
      "start": 29.5223,
      "duration": 0.1998,
      "velocity": 114,
      "chip": "ym2612"
    },
    {
      "channel": 0,
      "note": 44,
      "start": 29.721,
      "duration": 0.7549,
      "velocity": 100,
      "chip": "ym2612"
    },
    {
      "channel": 2,
      "note": 56,
      "start": 29.7215,
      "duration": 0.755,
      "velocity": 117,
      "chip": "ym2612"
    },
    {
      "channel": 5,
      "note": 86,
      "start": 29.7222,
      "duration": 0.201,
      "velocity": 114,
      "chip": "ym2612"
    },
    {
      "channel": 3,
      "note": 40,
      "start": 29.8212,
      "duration": 0.1998,
      "velocity": 100,
      "chip": "ym2612"
    },
    {
      "channel": 1,
      "note": 59,
      "start": 29.9226,
      "duration": 0.3679,
      "velocity": 109,
      "chip": "ym2612"
    },
    {
      "channel": 5,
      "note": 86,
      "start": 29.9234,
      "duration": 0.7395,
      "velocity": 114,
      "chip": "ym2612"
    },
    {
      "channel": 3,
      "note": 44,
      "start": 30.0212,
      "duration": 0.7416,
      "velocity": 100,
      "chip": "ym2612"
    },
    {
      "channel": 4,
      "note": 59,
      "start": 30.1977,
      "duration": 0.9347,
      "velocity": 107,
      "chip": "ym2612"
    },
    {
      "channel": 1,
      "note": 57,
      "start": 30.2907,
      "duration": 0.5725,
      "velocity": 109,
      "chip": "ym2612"
    },
    {
      "channel": 0,
      "note": 42,
      "start": 30.4761,
      "duration": 0.3866,
      "velocity": 100,
      "chip": "ym2612"
    },
    {
      "channel": 2,
      "note": 54,
      "start": 30.4768,
      "duration": 0.5559,
      "velocity": 117,
      "chip": "ym2612"
    },
    {
      "channel": 5,
      "note": 86,
      "start": 30.6631,
      "duration": 0.3703,
      "velocity": 114,
      "chip": "ym2612"
    },
    {
      "channel": 3,
      "note": 42,
      "start": 30.7629,
      "duration": 0.3689,
      "velocity": 100,
      "chip": "ym2612"
    },
    {
      "channel": 0,
      "note": 54,
      "start": 30.8627,
      "duration": 0.1689,
      "velocity": 100,
      "chip": "ym2612"
    },
    {
      "channel": 1,
      "note": 54,
      "start": 30.8634,
      "duration": 0.1688,
      "velocity": 109,
      "chip": "ym2612"
    },
    {
      "channel": 0,
      "note": 40,
      "start": 31.0317,
      "duration": 0.1999,
      "velocity": 100,
      "chip": "ym2612"
    },
    {
      "channel": 1,
      "note": 54,
      "start": 31.0323,
      "duration": 0.6009,
      "velocity": 109,
      "chip": "ym2612"
    },
    {
      "channel": 2,
      "note": 52,
      "start": 31.0329,
      "duration": 0.201,
      "velocity": 117,
      "chip": "ym2612"
    },
    {
      "channel": 5,
      "note": 86,
      "start": 31.0336,
      "duration": 0.201,
      "velocity": 114,
      "chip": "ym2612"
    },
    {
      "channel": 3,
      "note": 54,
      "start": 31.132,
      "duration": 0.1998,
      "velocity": 100,
      "chip": "ym2612"
    },
    {
      "channel": 4,
      "note": 54,
      "start": 31.1327,
      "duration": 0.1997,
      "velocity": 107,
      "chip": "ym2612"
    },
    {
      "channel": 0,
      "note": 37,
      "start": 31.2318,
      "duration": 0.1998,
      "velocity": 100,
      "chip": "ym2612"
    },
    {
      "channel": 2,
      "note": 49,
      "start": 31.234,
      "duration": 0.5669,
      "velocity": 117,
      "chip": "ym2612"
    },
    {
      "channel": 5,
      "note": 86,
      "start": 31.2347,
      "duration": 0.1978,
      "velocity": 114,
      "chip": "ym2612"
    },
    {
      "channel": 3,
      "note": 40,
      "start": 31.332,
      "duration": 0.1997,
      "velocity": 100,
      "chip": "ym2612"
    },
    {
      "channel": 4,
      "note": 54,
      "start": 31.3326,
      "duration": 0.5675,
      "velocity": 107,
      "chip": "ym2612"
    },
    {
      "channel": 0,
      "note": 52,
      "start": 31.4317,
      "duration": 0.368,
      "velocity": 100,
      "chip": "ym2612"
    },
    {
      "channel": 5,
      "note": 86,
      "start": 31.4326,
      "duration": 0.369,
      "velocity": 114,
      "chip": "ym2612"
    },
    {
      "channel": 3,
      "note": 37,
      "start": 31.532,
      "duration": 0.1769,
      "velocity": 100,
      "chip": "ym2612"
    },
    {
      "channel": 1,
      "note": 54,
      "start": 31.6334,
      "duration": 0.167,
      "velocity": 109,
      "chip": "ym2612"
    },
    {
      "channel": 3,
      "note": 52,
      "start": 31.7091,
      "duration": 0.3909,
      "velocity": 100,
      "chip": "ym2612"
    },
    {
      "channel": 0,
      "note": 42,
      "start": 31.8,
      "duration": 0.3998,
      "velocity": 100,
      "chip": "ym2612"
    },
    {
      "channel": 1,
      "note": 54,
      "start": 31.8005,
      "duration": 1.1698,
      "velocity": 109,
      "chip": "ym2612"
    },
    {
      "channel": 2,
      "note": 54,
      "start": 31.8011,
      "duration": 0.3994,
      "velocity": 117,
      "chip": "ym2612"
    },
    {
      "channel": 5,
      "note": 86,
      "start": 31.8018,
      "duration": 0.1999,
      "velocity": 114,
      "chip": "ym2612"
    },
    {
      "channel": 4,
      "note": 54,
      "start": 31.9002,
      "duration": 0.2003,
      "velocity": 107,
      "chip": "ym2612"
    },
    {
      "channel": 5,
      "note": 86,
      "start": 32.0018,
      "duration": 0.1993,
      "velocity": 114,
      "chip": "ym2612"
    },
    {
      "channel": 3,
      "note": 42,
      "start": 32.1001,
      "duration": 0.3771,
      "velocity": 100,
      "chip": "ym2612"
    },
    {
      "channel": 4,
      "note": 54,
      "start": 32.1007,
      "duration": 0.6707,
      "velocity": 127,
      "chip": "ym2612"
    },
    {
      "channel": 0,
      "note": 42,
      "start": 32.2,
      "duration": 0.3686,
      "velocity": 100,
      "chip": "ym2612"
    },
    {
      "channel": 2,
      "note": 54,
      "start": 32.2005,
      "duration": 0.3686,
      "velocity": 117,
      "chip": "ym2612"
    },
    {
      "channel": 5,
      "note": 86,
      "start": 32.2012,
      "duration": 0.3686,
      "velocity": 114,
      "chip": "ym2612"
    },
    {
      "channel": 3,
      "note": 42,
      "start": 32.4774,
      "duration": 0.3914,
      "velocity": 100,
      "chip": "ym2612"
    },
    {
      "channel": 0,
      "note": 40,
      "start": 32.5687,
      "duration": 0.1999,
      "velocity": 100,
      "chip": "ym2612"
    },
    {
      "channel": 2,
      "note": 52,
      "start": 32.5694,
      "duration": 0.1998,
      "velocity": 117,
      "chip": "ym2612"
    },
    {
      "channel": 5,
      "note": 86,
      "start": 32.5701,
      "duration": 0.2019,
      "velocity": 114,
      "chip": "ym2612"
    },
    {
      "channel": 0,
      "note": 44,
      "start": 32.7687,
      "duration": 0.7549,
      "velocity": 100,
      "chip": "ym2612"
    },
    {
      "channel": 2,
      "note": 56,
      "start": 32.7694,
      "duration": 0.7565,
      "velocity": 117,
      "chip": "ym2612"
    },
    {
      "channel": 4,
      "note": 98,
      "start": 32.7716,
      "duration": 0.0978,
      "velocity": 127,
      "chip": "ym2612"
    },
    {
      "channel": 5,
      "note": 86,
      "start": 32.7722,
      "duration": 0.1993,
      "velocity": 114,
      "chip": "ym2612"
    },
    {
      "channel": 3,
      "note": 40,
      "start": 32.869,
      "duration": 0.1997,
      "velocity": 100,
      "chip": "ym2612"
    },
    {
      "channel": 4,
      "note": 98,
      "start": 32.8695,
      "duration": 0.1014,
      "velocity": 127,
      "chip": "ym2612"
    },
    {
      "channel": 1,
      "note": 59,
      "start": 32.9704,
      "duration": 0.3681,
      "velocity": 109,
      "chip": "ym2612"
    },
    {
      "channel": 4,
      "note": 98,
      "start": 32.9711,
      "duration": 0.1993,
      "velocity": 127,
      "chip": "ym2612"
    },
    {
      "channel": 5,
      "note": 86,
      "start": 32.9717,
      "duration": 0.7388,
      "velocity": 114,
      "chip": "ym2612"
    },
    {
      "channel": 3,
      "note": 44,
      "start": 33.0689,
      "duration": 0.7413,
      "velocity": 100,
      "chip": "ym2612"
    },
    {
      "channel": 4,
      "note": 98,
      "start": 33.1706,
      "duration": 0.0769,
      "velocity": 107,
      "chip": "ym2612"
    },
    {
      "channel": 4,
      "note": 59,
      "start": 33.2477,
      "duration": 0.3627,
      "velocity": 107,
      "chip": "ym2612"
    },
    {
      "channel": 1,
      "note": 57,
      "start": 33.3387,
      "duration": 0.5737,
      "velocity": 109,
      "chip": "ym2612"
    },
    {
      "channel": 0,
      "note": 42,
      "start": 33.5238,
      "duration": 0.3863,
      "velocity": 100,
      "chip": "ym2612"
    },
    {
      "channel": 2,
      "note": 54,
      "start": 33.526,
      "duration": 0.5533,
      "velocity": 117,
      "chip": "ym2612"
    },
    {
      "channel": 4,
      "note": 57,
      "start": 33.6106,
      "duration": 0.5684,
      "velocity": 107,
      "chip": "ym2612"
    },
    {
      "channel": 5,
      "note": 86,
      "start": 33.7105,
      "duration": 0.3695,
      "velocity": 114,
      "chip": "ym2612"
    },
    {
      "channel": 3,
      "note": 42,
      "start": 33.8104,
      "duration": 0.368,
      "velocity": 100,
      "chip": "ym2612"
    },
    {
      "channel": 0,
      "note": 54,
      "start": 33.9103,
      "duration": 0.168,
      "velocity": 100,
      "chip": "ym2612"
    },
    {
      "channel": 1,
      "note": 54,
      "start": 33.9124,
      "duration": 0.1663,
      "velocity": 109,
      "chip": "ym2612"
    },
    {
      "channel": 0,
      "note": 40,
      "start": 34.0784,
      "duration": 0.1999,
      "velocity": 100,
      "chip": "ym2612"
    },
    {
      "channel": 1,
      "note": 54,
      "start": 34.079,
      "duration": 0.6009,
      "velocity": 109,
      "chip": "ym2612"
    },
    {
      "channel": 2,
      "note": 52,
      "start": 34.0795,
      "duration": 0.201,
      "velocity": 117,
      "chip": "ym2612"
    },
    {
      "channel": 5,
      "note": 86,
      "start": 34.0802,
      "duration": 0.201,
      "velocity": 114,
      "chip": "ym2612"
    },
    {
      "channel": 3,
      "note": 54,
      "start": 34.1787,
      "duration": 0.1999,
      "velocity": 100,
      "chip": "ym2612"
    },
    {
      "channel": 4,
      "note": 54,
      "start": 34.1792,
      "duration": 0.1998,
      "velocity": 107,
      "chip": "ym2612"
    },
    {
      "channel": 0,
      "note": 37,
      "start": 34.2785,
      "duration": 0.1998,
      "velocity": 100,
      "chip": "ym2612"
    },
    {
      "channel": 2,
      "note": 49,
      "start": 34.2806,
      "duration": 0.5671,
      "velocity": 117,
      "chip": "ym2612"
    },
    {
      "channel": 5,
      "note": 86,
      "start": 34.2813,
      "duration": 0.1978,
      "velocity": 114,
      "chip": "ym2612"
    },
    {
      "channel": 3,
      "note": 40,
      "start": 34.3787,
      "duration": 0.1997,
      "velocity": 100,
      "chip": "ym2612"
    },
    {
      "channel": 4,
      "note": 54,
      "start": 34.3792,
      "duration": 0.5677,
      "velocity": 107,
      "chip": "ym2612"
    },
    {
      "channel": 0,
      "note": 52,
      "start": 34.4784,
      "duration": 0.3683,
      "velocity": 100,
      "chip": "ym2612"
    },
    {
      "channel": 5,
      "note": 86,
      "start": 34.4792,
      "duration": 0.3692,
      "velocity": 114,
      "chip": "ym2612"
    },
    {
      "channel": 3,
      "note": 37,
      "start": 34.5786,
      "duration": 0.1768,
      "velocity": 100,
      "chip": "ym2612"
    },
    {
      "channel": 1,
      "note": 54,
      "start": 34.68,
      "duration": 0.1672,
      "velocity": 109,
      "chip": "ym2612"
    },
    {
      "channel": 3,
      "note": 52,
      "start": 34.7556,
      "duration": 0.3913,
      "velocity": 100,
      "chip": "ym2612"
    },
    {
      "channel": 0,
      "note": 42,
      "start": 34.8469,
      "duration": 0.3998,
      "velocity": 100,
      "chip": "ym2612"
    },
    {
      "channel": 1,
      "note": 54,
      "start": 34.8474,
      "duration": 2.1119,
      "velocity": 109,
      "chip": "ym2612"
    },
    {
      "channel": 2,
      "note": 54,
      "start": 34.848,
      "duration": 0.3994,
      "velocity": 117,
      "chip": "ym2612"
    },
    {
      "channel": 5,
      "note": 86,
      "start": 34.8487,
      "duration": 0.1999,
      "velocity": 114,
      "chip": "ym2612"
    },
    {
      "channel": 4,
      "note": 54,
      "start": 34.9471,
      "duration": 0.2003,
      "velocity": 107,
      "chip": "ym2612"
    },
    {
      "channel": 5,
      "note": 86,
      "start": 35.0487,
      "duration": 0.1993,
      "velocity": 114,
      "chip": "ym2612"
    },
    {
      "channel": 3,
      "note": 42,
      "start": 35.147,
      "duration": 0.3771,
      "velocity": 100,
      "chip": "ym2612"
    },
    {
      "channel": 4,
      "note": 54,
      "start": 35.1476,
      "duration": 2.0796,
      "velocity": 107,
      "chip": "ym2612"
    },
    {
      "channel": 0,
      "note": 42,
      "start": 35.2469,
      "duration": 0.3688,
      "velocity": 100,
      "chip": "ym2612"
    },
    {
      "channel": 2,
      "note": 54,
      "start": 35.2474,
      "duration": 0.3688,
      "velocity": 117,
      "chip": "ym2612"
    },
    {
      "channel": 5,
      "note": 86,
      "start": 35.2481,
      "duration": 0.3688,
      "velocity": 114,
      "chip": "ym2612"
    },
    {
      "channel": 3,
      "note": 42,
      "start": 35.5244,
      "duration": 0.2941,
      "velocity": 92,
      "chip": "ym2612"
    },
    {
      "channel": 0,
      "note": 40,
      "start": 35.6158,
      "duration": 0.1999,
      "velocity": 100,
      "chip": "ym2612"
    },
    {
      "channel": 2,
      "note": 52,
      "start": 35.6164,
      "duration": 0.1998,
      "velocity": 117,
      "chip": "ym2612"
    },
    {
      "channel": 5,
      "note": 86,
      "start": 35.6171,
      "duration": 0.2019,
      "velocity": 114,
      "chip": "ym2612"
    },
    {
      "channel": 0,
      "note": 44,
      "start": 35.8158,
      "duration": 3.8054,
      "velocity": 92,
      "chip": "ym2612"
    },
    {
      "channel": 2,
      "note": 56,
      "start": 35.8164,
      "duration": 5.7887,
      "velocity": 117,
      "chip": "ym2612"
    },
    {
      "channel": 3,
      "note": 54,
      "start": 35.8186,
      "duration": 5.7865,
      "velocity": 92,
      "chip": "ym2612"
    },
    {
      "channel": 5,
      "note": 86,
      "start": 35.8193,
      "duration": 0.1966,
      "velocity": 114,
      "chip": "ym2612"
    },
    {
      "channel": 5,
      "note": 86,
      "start": 36.0161,
      "duration": 0.7419,
      "velocity": 114,
      "chip": "ym2612"
    },
    {
      "channel": 5,
      "note": 86,
      "start": 36.7582,
      "duration": 0.3694,
      "velocity": 114,
      "chip": "ym2612"
    },
    {
      "channel": 1,
      "note": 54,
      "start": 36.9595,
      "duration": 0.1674,
      "velocity": 109,
      "chip": "ym2612"
    },
    {
      "channel": 1,
      "note": 54,
      "start": 37.127,
      "duration": 0.6015,
      "velocity": 109,
      "chip": "ym2612"
    },
    {
      "channel": 5,
      "note": 86,
      "start": 37.1278,
      "duration": 0.201,
      "velocity": 114,
      "chip": "ym2612"
    },
    {
      "channel": 4,
      "note": 54,
      "start": 37.2273,
      "duration": 0.1998,
      "velocity": 107,
      "chip": "ym2612"
    },
    {
      "channel": 5,
      "note": 86,
      "start": 37.3289,
      "duration": 0.1982,
      "velocity": 114,
      "chip": "ym2612"
    },
    {
      "channel": 4,
      "note": 54,
      "start": 37.4273,
      "duration": 0.5681,
      "velocity": 107,
      "chip": "ym2612"
    },
    {
      "channel": 5,
      "note": 86,
      "start": 37.5273,
      "duration": 0.3687,
      "velocity": 114,
      "chip": "ym2612"
    },
    {
      "channel": 1,
      "note": 54,
      "start": 37.7286,
      "duration": 0.1666,
      "velocity": 109,
      "chip": "ym2612"
    },
    {
      "channel": 1,
      "note": 54,
      "start": 37.8954,
      "duration": 1.1705,
      "velocity": 109,
      "chip": "ym2612"
    },
    {
      "channel": 5,
      "note": 86,
      "start": 37.8961,
      "duration": 0.201,
      "velocity": 114,
      "chip": "ym2612"
    },
    {
      "channel": 4,
      "note": 54,
      "start": 37.9956,
      "duration": 0.1998,
      "velocity": 107,
      "chip": "ym2612"
    },
    {
      "channel": 5,
      "note": 86,
      "start": 38.0973,
      "duration": 0.1982,
      "velocity": 114,
      "chip": "ym2612"
    },
    {
      "channel": 4,
      "note": 54,
      "start": 38.1956,
      "duration": 1.1467,
      "velocity": 107,
      "chip": "ym2612"
    },
    {
      "channel": 5,
      "note": 86,
      "start": 38.2956,
      "duration": 0.3689,
      "velocity": 114,
      "chip": "ym2612"
    },
    {
      "channel": 5,
      "note": 86,
      "start": 38.6647,
      "duration": 0.1998,
      "velocity": 114,
      "chip": "ym2612"
    },
    {
      "channel": 5,
      "note": 86,
      "start": 38.8647,
      "duration": 0.202,
      "velocity": 114,
      "chip": "ym2612"
    },
    {
      "channel": 1,
      "note": 59,
      "start": 39.066,
      "duration": 0.3687,
      "velocity": 109,
      "chip": "ym2612"
    },
    {
      "channel": 5,
      "note": 86,
      "start": 39.0668,
      "duration": 2.5383,
      "velocity": 114,
      "chip": "ym2612"
    },
    {
      "channel": 4,
      "note": 59,
      "start": 39.3425,
      "duration": 2.2626,
      "velocity": 107,
      "chip": "ym2612"
    },
    {
      "channel": 1,
      "note": 57,
      "start": 39.4349,
      "duration": 2.1702,
      "velocity": 109,
      "chip": "ym2612"
    },
    {
      "channel": 0,
      "note": 66,
      "start": 39.6214,
      "duration": 1.9837,
      "velocity": 92,
      "chip": "ym2612"
    }
  ]
}