{
  "track_name": "03 - Arena 3",
  "duration_sec": 33.89,
  "sample_rate": 44100,
  "note_count": 1156,
  "unique_pitches": 41,
  "pitch_range": 63,
  "avg_note_duration": 0.1186,
  "reconstruction_stats": {
    "notes_reconstructed": 1156,
    "keyon_events": 1156,
    "keyoff_events": 1154,
    "orphan_keyons": 2,
    "unique_pitches": 41,
    "pitch_range": 63,
    "avg_duration_sec": 0.1186
  },
  "metadata": {
    "source": "F\\Fighting Masters\\03 - Arena 3.vgz"
  },
  "notes": [
    {
      "channel": 1,
      "note": 52,
      "start": 0.0,
      "duration": 0.2447,
      "velocity": 97,
      "chip": "ym2612"
    },
    {
      "channel": 5,
      "note": 47,
      "start": 0.011,
      "duration": 0.9307,
      "velocity": 106,
      "chip": "ym2612"
    },
    {
      "channel": 2,
      "note": 86,
      "start": 0.012,
      "duration": 0.0611,
      "velocity": 127,
      "chip": "ym2612"
    },
    {
      "channel": 0,
      "note": 86,
      "start": 0.2446,
      "duration": 0.1126,
      "velocity": 109,
      "chip": "ym2612"
    },
    {
      "channel": 1,
      "note": 52,
      "start": 0.2452,
      "duration": 0.2285,
      "velocity": 97,
      "chip": "ym2612"
    },
    {
      "channel": 3,
      "note": 71,
      "start": 0.2459,
      "duration": 0.1123,
      "velocity": 106,
      "chip": "ym2612"
    },
    {
      "channel": 4,
      "note": 67,
      "start": 0.2467,
      "duration": 0.1124,
      "velocity": 106,
      "chip": "ym2612"
    },
    {
      "channel": 2,
      "note": 94,
      "start": 0.2481,
      "duration": 0.058,
      "velocity": 127,
      "chip": "ym2612"
    },
    {
      "channel": 0,
      "note": 85,
      "start": 0.3578,
      "duration": 0.1155,
      "velocity": 109,
      "chip": "ym2612"
    },
    {
      "channel": 3,
      "note": 69,
      "start": 0.3589,
      "duration": 0.1153,
      "velocity": 106,
      "chip": "ym2612"
    },
    {
      "channel": 4,
      "note": 66,
      "start": 0.3596,
      "duration": 0.1149,
      "velocity": 106,
      "chip": "ym2612"
    },
    {
      "channel": 1,
      "note": 52,
      "start": 0.4741,
      "duration": 0.234,
      "velocity": 97,
      "chip": "ym2612"
    },
    {
      "channel": 2,
      "note": 86,
      "start": 0.5938,
      "duration": 0.061,
      "velocity": 127,
      "chip": "ym2612"
    },
    {
      "channel": 1,
      "note": 52,
      "start": 0.7086,
      "duration": 0.2319,
      "velocity": 97,
      "chip": "ym2612"
    },
    {
      "channel": 2,
      "note": 94,
      "start": 0.7101,
      "duration": 0.0607,
      "velocity": 127,
      "chip": "ym2612"
    },
    {
      "channel": 1,
      "note": 52,
      "start": 0.941,
      "duration": 0.2332,
      "velocity": 97,
      "chip": "ym2612"
    },
    {
      "channel": 5,
      "note": 47,
      "start": 0.9422,
      "duration": 0.9329,
      "velocity": 106,
      "chip": "ym2612"
    },
    {
      "channel": 2,
      "note": 86,
      "start": 0.9432,
      "duration": 0.058,
      "velocity": 127,
      "chip": "ym2612"
    },
    {
      "channel": 0,
      "note": 86,
      "start": 1.1741,
      "duration": 0.1161,
      "velocity": 109,
      "chip": "ym2612"
    },
    {
      "channel": 1,
      "note": 52,
      "start": 1.1746,
      "duration": 0.2321,
      "velocity": 97,
      "chip": "ym2612"
    },
    {
      "channel": 3,
      "note": 71,
      "start": 1.1754,
      "duration": 0.116,
      "velocity": 106,
      "chip": "ym2612"
    },
    {
      "channel": 4,
      "note": 67,
      "start": 1.1761,
      "duration": 0.1159,
      "velocity": 106,
      "chip": "ym2612"
    },
    {
      "channel": 2,
      "note": 94,
      "start": 1.1776,
      "duration": 0.062,
      "velocity": 127,
      "chip": "ym2612"
    },
    {
      "channel": 0,
      "note": 85,
      "start": 1.2908,
      "duration": 0.1155,
      "velocity": 109,
      "chip": "ym2612"
    },
    {
      "channel": 3,
      "note": 69,
      "start": 1.2919,
      "duration": 0.1153,
      "velocity": 106,
      "chip": "ym2612"
    },
    {
      "channel": 4,
      "note": 66,
      "start": 1.2926,
      "duration": 0.1149,
      "velocity": 106,
      "chip": "ym2612"
    },
    {
      "channel": 1,
      "note": 52,
      "start": 1.4071,
      "duration": 0.234,
      "velocity": 97,
      "chip": "ym2612"
    },
    {
      "channel": 2,
      "note": 86,
      "start": 1.5267,
      "duration": 0.061,
      "velocity": 127,
      "chip": "ym2612"
    },
    {
      "channel": 1,
      "note": 52,
      "start": 1.6415,
      "duration": 0.2323,
      "velocity": 97,
      "chip": "ym2612"
    },
    {
      "channel": 2,
      "note": 94,
      "start": 1.6431,
      "duration": 0.0607,
      "velocity": 127,
      "chip": "ym2612"
    },
    {
      "channel": 1,
      "note": 52,
      "start": 1.8743,
      "duration": 0.2336,
      "velocity": 97,
      "chip": "ym2612"
    },
    {
      "channel": 5,
      "note": 47,
      "start": 1.8756,
      "duration": 0.9341,
      "velocity": 106,
      "chip": "ym2612"
    },
    {
      "channel": 2,
      "note": 86,
      "start": 1.8765,
      "duration": 0.0577,
      "velocity": 127,
      "chip": "ym2612"
    },
    {
      "channel": 0,
      "note": 86,
      "start": 2.1078,
      "duration": 0.1154,
      "velocity": 109,
      "chip": "ym2612"
    },
    {
      "channel": 1,
      "note": 52,
      "start": 2.1083,
      "duration": 0.231,
      "velocity": 97,
      "chip": "ym2612"
    },
    {
      "channel": 3,
      "note": 71,
      "start": 2.1091,
      "duration": 0.1147,
      "velocity": 106,
      "chip": "ym2612"
    },
    {
      "channel": 4,
      "note": 67,
      "start": 2.1099,
      "duration": 0.1143,
      "velocity": 106,
      "chip": "ym2612"
    },
    {
      "channel": 2,
      "note": 94,
      "start": 2.1113,
      "duration": 0.0616,
      "velocity": 127,
      "chip": "ym2612"
    },
    {
      "channel": 1,
      "note": 52,
      "start": 2.3398,
      "duration": 0.2345,
      "velocity": 97,
      "chip": "ym2612"
    },
    {
      "channel": 0,
      "note": 85,
      "start": 2.4585,
      "duration": 0.1154,
      "velocity": 109,
      "chip": "ym2612"
    },
    {
      "channel": 3,
      "note": 69,
      "start": 2.4596,
      "duration": 0.1153,
      "velocity": 106,
      "chip": "ym2612"
    },
    {
      "channel": 4,
      "note": 66,
      "start": 2.4604,
      "duration": 0.1148,
      "velocity": 106,
      "chip": "ym2612"
    },
    {
      "channel": 2,
      "note": 86,
      "start": 2.4617,
      "duration": 0.0598,
      "velocity": 127,
      "chip": "ym2612"
    },
    {
      "channel": 1,
      "note": 52,
      "start": 2.5747,
      "duration": 0.2328,
      "velocity": 97,
      "chip": "ym2612"
    },
    {
      "channel": 2,
      "note": 94,
      "start": 2.5768,
      "duration": 0.0583,
      "velocity": 127,
      "chip": "ym2612"
    },
    {
      "channel": 0,
      "note": 83,
      "start": 2.8074,
      "duration": 0.6996,
      "velocity": 109,
      "chip": "ym2612"
    },
    {
      "channel": 1,
      "note": 52,
      "start": 2.808,
      "duration": 0.2352,
      "velocity": 97,
      "chip": "ym2612"
    },
    {
      "channel": 3,
      "note": 67,
      "start": 2.8088,
      "duration": 0.6992,
      "velocity": 106,
      "chip": "ym2612"
    },
    {
      "channel": 4,
      "note": 64,
      "start": 2.8095,
      "duration": 0.6987,
      "velocity": 106,
      "chip": "ym2612"
    },
    {
      "channel": 5,
      "note": 47,
      "start": 2.8101,
      "duration": 0.4637,
      "velocity": 106,
      "chip": "ym2612"
    },
    {
      "channel": 2,
      "note": 86,
      "start": 2.8111,
      "duration": 0.0617,
      "velocity": 127,
      "chip": "ym2612"
    },
    {
      "channel": 1,
      "note": 52,
      "start": 3.0437,
      "duration": 0.2289,
      "velocity": 97,
      "chip": "ym2612"
    },
    {
      "channel": 2,
      "note": 94,
      "start": 3.0457,
      "duration": 0.06,
      "velocity": 127,
      "chip": "ym2612"
    },
    {
      "channel": 1,
      "note": 52,
      "start": 3.273,
      "duration": 0.1183,
      "velocity": 97,
      "chip": "ym2612"
    },
    {
      "channel": 5,
      "note": 47,
      "start": 3.2743,
      "duration": 0.1183,
      "velocity": 106,
      "chip": "ym2612"
    },
    {
      "channel": 1,
      "note": 52,
      "start": 3.3917,
      "duration": 0.1156,
      "velocity": 97,
      "chip": "ym2612"
    },
    {
      "channel": 5,
      "note": 47,
      "start": 3.393,
      "duration": 0.1156,
      "velocity": 106,
      "chip": "ym2612"
    },
    {
      "channel": 2,
      "note": 86,
      "start": 3.394,
      "duration": 0.0609,
      "velocity": 127,
      "chip": "ym2612"
    },
    {
      "channel": 1,
      "note": 52,
      "start": 3.5078,
      "duration": 0.1131,
      "velocity": 97,
      "chip": "ym2612"
    },
    {
      "channel": 5,
      "note": 47,
      "start": 3.509,
      "duration": 0.1126,
      "velocity": 106,
      "chip": "ym2612"
    },
    {
      "channel": 2,
      "note": 94,
      "start": 3.51,
      "duration": 0.0581,
      "velocity": 127,
      "chip": "ym2612"
    },
    {
      "channel": 1,
      "note": 52,
      "start": 3.6213,
      "duration": 0.1223,
      "velocity": 97,
      "chip": "ym2612"
    },
    {
      "channel": 5,
      "note": 47,
      "start": 3.6221,
      "duration": 0.1233,
      "velocity": 106,
      "chip": "ym2612"
    },
    {
      "channel": 0,
      "note": 76,
      "start": 3.7434,
      "duration": 0.2324,
      "velocity": 109,
      "chip": "ym2612"
    },
    {
      "channel": 1,
      "note": 50,
      "start": 3.7442,
      "duration": 0.1132,
      "velocity": 97,
      "chip": "ym2612"
    },
    {
      "channel": 2,
      "note": 86,
      "start": 3.7465,
      "duration": 0.0585,
      "velocity": 127,
      "chip": "ym2612"
    },
    {
      "channel": 1,
      "note": 52,
      "start": 3.858,
      "duration": 0.1186,
      "velocity": 97,
      "chip": "ym2612"
    },
    {
      "channel": 0,
      "note": 79,
      "start": 3.9765,
      "duration": 0.1174,
      "velocity": 109,
      "chip": "ym2612"
    },
    {
      "channel": 1,
      "note": 52,
      "start": 3.9772,
      "duration": 0.1175,
      "velocity": 97,
      "chip": "ym2612"
    },
    {
      "channel": 3,
      "note": 74,
      "start": 3.9779,
      "duration": 0.1175,
      "velocity": 106,
      "chip": "ym2612"
    },
    {
      "channel": 4,
      "note": 71,
      "start": 3.9787,
      "duration": 0.2332,
      "velocity": 106,
      "chip": "ym2612"
    },
    {
      "channel": 5,
      "note": 67,
      "start": 3.9795,
      "duration": 0.2328,
      "velocity": 106,
      "chip": "ym2612"
    },
    {
      "channel": 2,
      "note": 94,
      "start": 3.9805,
      "duration": 0.0622,
      "velocity": 127,
      "chip": "ym2612"
    },
    {
      "channel": 0,
      "note": 76,
      "start": 4.0945,
      "duration": 0.1155,
      "velocity": 109,
      "chip": "ym2612"
    },
    {
      "channel": 1,
      "note": 52,
      "start": 4.0952,
      "duration": 0.1156,
      "velocity": 97,
      "chip": "ym2612"
    },
    {
      "channel": 3,
      "note": 73,
      "start": 4.096,
      "duration": 0.1155,
      "velocity": 106,
      "chip": "ym2612"
    },
    {
      "channel": 0,
      "note": 81,
      "start": 4.2107,
      "duration": 0.1181,
      "velocity": 109,
      "chip": "ym2612"
    },
    {
      "channel": 1,
      "note": 52,
      "start": 4.2114,
      "duration": 0.1181,
      "velocity": 97,
      "chip": "ym2612"
    },
    {
      "channel": 0,
      "note": 76,
      "start": 4.3293,
      "duration": 0.1155,
      "velocity": 109,
      "chip": "ym2612"
    },
    {
      "channel": 1,
      "note": 52,
      "start": 4.3301,
      "duration": 0.1155,
      "velocity": 97,
      "chip": "ym2612"
    },
    {
      "channel": 2,
      "note": 86,
      "start": 4.3313,
      "duration": 0.0585,
      "velocity": 127,
      "chip": "ym2612"
    },
    {
      "channel": 0,
      "note": 83,
      "start": 4.4454,
      "duration": 0.1128,
      "velocity": 109,
      "chip": "ym2612"
    },
    {
      "channel": 1,
      "note": 52,
      "start": 4.4461,
      "duration": 0.1129,
      "velocity": 97,
      "chip": "ym2612"
    },
    {
      "channel": 2,
      "note": 94,
      "start": 4.4474,
      "duration": 0.0585,
      "velocity": 127,
      "chip": "ym2612"
    },
    {
      "channel": 0,
      "note": 76,
      "start": 4.5588,
      "duration": 0.2312,
      "velocity": 109,
      "chip": "ym2612"
    },
    {
      "channel": 1,
      "note": 52,
      "start": 4.5595,
      "duration": 0.1178,
      "velocity": 97,
      "chip": "ym2612"
    },
    {
      "channel": 1,
      "note": 50,
      "start": 4.6779,
      "duration": 0.1128,
      "velocity": 97,
      "chip": "ym2612"
    },
    {
      "channel": 2,
      "note": 86,
      "start": 4.6802,
      "duration": 0.0582,
      "velocity": 127,
      "chip": "ym2612"
    },
    {
      "channel": 0,
      "note": 76,
      "start": 4.7905,
      "duration": 0.1183,
      "velocity": 109,
      "chip": "ym2612"
    },
    {
      "channel": 1,
      "note": 52,
      "start": 4.7912,
      "duration": 0.1183,
      "velocity": 97,
      "chip": "ym2612"
    },
    {
      "channel": 0,
      "note": 79,
      "start": 4.9094,
      "duration": 0.1127,
      "velocity": 109,
      "chip": "ym2612"
    },
    {
      "channel": 1,
      "note": 52,
      "start": 4.9101,
      "duration": 0.1128,
      "velocity": 97,
      "chip": "ym2612"
    },
    {
      "channel": 3,
      "note": 74,
      "start": 4.9109,
      "duration": 0.1127,
      "velocity": 106,
      "chip": "ym2612"
    },
    {
      "channel": 4,
      "note": 71,
      "start": 4.9117,
      "duration": 0.2284,
      "velocity": 106,
      "chip": "ym2612"
    },
    {
      "channel": 5,
      "note": 67,
      "start": 4.9124,
      "duration": 0.2279,
      "velocity": 106,
      "chip": "ym2612"
    },
    {
      "channel": 2,
      "note": 94,
      "start": 4.9134,
      "duration": 0.0589,
      "velocity": 127,
      "chip": "ym2612"
    },
    {
      "channel": 0,
      "note": 76,
      "start": 5.0227,
      "duration": 0.1155,
      "velocity": 109,
      "chip": "ym2612"
    },
    {
      "channel": 1,
      "note": 52,
      "start": 5.0235,
      "duration": 0.1155,
      "velocity": 97,
      "chip": "ym2612"
    },
    {
      "channel": 3,
      "note": 73,
      "start": 5.0242,
      "duration": 0.1155,
      "velocity": 106,
      "chip": "ym2612"
    },
    {
      "channel": 0,
      "note": 81,
      "start": 5.1388,
      "duration": 0.1181,
      "velocity": 109,
      "chip": "ym2612"
    },
    {
      "channel": 1,
      "note": 52,
      "start": 5.1396,
      "duration": 0.1181,
      "velocity": 97,
      "chip": "ym2612"
    },
    {
      "channel": 0,
      "note": 76,
      "start": 5.2575,
      "duration": 0.1159,
      "velocity": 109,
      "chip": "ym2612"
    },
    {
      "channel": 1,
      "note": 52,
      "start": 5.2583,
      "duration": 0.1158,
      "velocity": 97,
      "chip": "ym2612"
    },
    {
      "channel": 2,
      "note": 86,
      "start": 5.2595,
      "duration": 0.0586,
      "velocity": 127,
      "chip": "ym2612"
    },
    {
      "channel": 0,
      "note": 83,
      "start": 5.374,
      "duration": 0.1134,
      "velocity": 109,
      "chip": "ym2612"
    },
    {
      "channel": 1,
      "note": 52,
      "start": 5.3747,
      "duration": 0.1135,
      "velocity": 97,
      "chip": "ym2612"
    },
    {
      "channel": 2,
      "note": 94,
      "start": 5.376,
      "duration": 0.058,
      "velocity": 127,
      "chip": "ym2612"
    },
    {
      "channel": 0,
      "note": 76,
      "start": 5.488,
      "duration": 0.1185,
      "velocity": 109,
      "chip": "ym2612"
    },
    {
      "channel": 1,
      "note": 52,
      "start": 5.4888,
      "duration": 0.1187,
      "velocity": 97,
      "chip": "ym2612"
    },
    {
      "channel": 0,
      "note": 76,
      "start": 5.6072,
      "duration": 0.2346,
      "velocity": 109,
      "chip": "ym2612"
    },
    {
      "channel": 1,
      "note": 50,
      "start": 5.608,
      "duration": 0.1154,
      "velocity": 97,
      "chip": "ym2612"
    },
    {
      "channel": 2,
      "note": 86,
      "start": 5.6102,
      "duration": 0.0615,
      "velocity": 127,
      "chip": "ym2612"
    },
    {
      "channel": 1,
      "note": 52,
      "start": 5.724,
      "duration": 0.1186,
      "velocity": 97,
      "chip": "ym2612"
    },
    {
      "channel": 0,
      "note": 79,
      "start": 5.8424,
      "duration": 0.1129,
      "velocity": 109,
      "chip": "ym2612"
    },
    {
      "channel": 1,
      "note": 52,
      "start": 5.8431,
      "duration": 0.113,
      "velocity": 97,
      "chip": "ym2612"
    },
    {
      "channel": 3,
      "note": 74,
      "start": 5.8439,
      "duration": 0.113,
      "velocity": 106,
      "chip": "ym2612"
    },
    {
      "channel": 4,
      "note": 71,
      "start": 5.8446,
      "duration": 0.2284,
      "velocity": 106,
      "chip": "ym2612"
    },
    {
      "channel": 5,
      "note": 67,
      "start": 5.8454,
      "duration": 0.228,
      "velocity": 106,
      "chip": "ym2612"
    },
    {
      "channel": 2,
      "note": 94,
      "start": 5.8464,
      "duration": 0.0589,
      "velocity": 127,
      "chip": "ym2612"
    },
    {
      "channel": 0,
      "note": 76,
      "start": 5.956,
      "duration": 0.1153,
      "velocity": 109,
      "chip": "ym2612"
    },
    {
      "channel": 1,
      "note": 52,
      "start": 5.9567,
      "duration": 0.1153,
      "velocity": 97,
      "chip": "ym2612"
    },
    {
      "channel": 3,
      "note": 73,
      "start": 5.9574,
      "duration": 0.1153,
      "velocity": 106,
      "chip": "ym2612"
    },
    {
      "channel": 0,
      "note": 81,
      "start": 6.0719,
      "duration": 0.1185,
      "velocity": 109,
      "chip": "ym2612"
    },
    {
      "channel": 1,
      "note": 52,
      "start": 6.0726,
      "duration": 0.1186,
      "velocity": 97,
      "chip": "ym2612"
    },
    {
      "channel": 0,
      "note": 76,
      "start": 6.191,
      "duration": 0.1158,
      "velocity": 109,
      "chip": "ym2612"
    },
    {
      "channel": 1,
      "note": 52,
      "start": 6.1917,
      "duration": 0.1159,
      "velocity": 97,
      "chip": "ym2612"
    },
    {
      "channel": 2,
      "note": 86,
      "start": 6.1929,
      "duration": 0.058,
      "velocity": 127,
      "chip": "ym2612"
    },
    {
      "channel": 0,
      "note": 83,
      "start": 6.3074,
      "duration": 0.1134,
      "velocity": 109,
      "chip": "ym2612"
    },
    {
      "channel": 1,
      "note": 52,
      "start": 6.3081,
      "duration": 0.1134,
      "velocity": 97,
      "chip": "ym2612"
    },
    {
      "channel": 2,
      "note": 94,
      "start": 6.3094,
      "duration": 0.0576,
      "velocity": 127,
      "chip": "ym2612"
    },
    {
      "channel": 0,
      "note": 76,
      "start": 6.4215,
      "duration": 0.1182,
      "velocity": 109,
      "chip": "ym2612"
    },
    {
      "channel": 1,
      "note": 52,
      "start": 6.4221,
      "duration": 0.1184,
      "velocity": 97,
      "chip": "ym2612"
    },
    {
      "channel": 0,
      "note": 84,
      "start": 6.5403,
      "duration": 0.1157,
      "velocity": 109,
      "chip": "ym2612"
    },
    {
      "channel": 1,
      "note": 57,
      "start": 6.5411,
      "duration": 0.2344,
      "velocity": 97,
      "chip": "ym2612"
    },
    {
      "channel": 2,
      "note": 86,
      "start": 6.5433,
      "duration": 0.0617,
      "velocity": 127,
      "chip": "ym2612"
    },
    {
      "channel": 0,
      "note": 83,
      "start": 6.6566,
      "duration": 0.1182,
      "velocity": 109,
      "chip": "ym2612"
    },
    {
      "channel": 0,
      "note": 81,
      "start": 6.7754,
      "duration": 0.1127,
      "velocity": 109,
      "chip": "ym2612"
    },
    {
      "channel": 1,
      "note": 57,
      "start": 6.776,
      "duration": 0.1128,
      "velocity": 97,
      "chip": "ym2612"
    },
    {
      "channel": 3,
      "note": 81,
      "start": 6.7767,
      "duration": 0.1129,
      "velocity": 106,
      "chip": "ym2612"
    },
    {
      "channel": 4,
      "note": 76,
      "start": 6.7775,
      "duration": 0.1129,
      "velocity": 106,
      "chip": "ym2612"
    },
    {
      "channel": 5,
      "note": 73,
      "start": 6.7783,
      "duration": 0.1128,
      "velocity": 106,
      "chip": "ym2612"
    },
    {
      "channel": 2,
      "note": 94,
      "start": 6.7793,
      "duration": 0.0592,
      "velocity": 127,
      "chip": "ym2612"
    },
    {
      "channel": 0,
      "note": 79,
      "start": 6.8887,
      "duration": 0.5839,
      "velocity": 109,
      "chip": "ym2612"
    },
    {
      "channel": 1,
      "note": 55,
      "start": 6.8894,
      "duration": 0.2347,
      "velocity": 97,
      "chip": "ym2612"
    },
    {
      "channel": 3,
      "note": 79,
      "start": 6.8902,
      "duration": 0.3513,
      "velocity": 106,
      "chip": "ym2612"
    },
    {
      "channel": 4,
      "note": 76,
      "start": 6.891,
      "duration": 0.3508,
      "velocity": 106,
      "chip": "ym2612"
    },
    {
      "channel": 5,
      "note": 71,
      "start": 6.8917,
      "duration": 0.3504,
      "velocity": 106,
      "chip": "ym2612"
    },
    {
      "channel": 1,
      "note": 55,
      "start": 7.1246,
      "duration": 0.1163,
      "velocity": 97,
      "chip": "ym2612"
    },
    {
      "channel": 2,
      "note": 86,
      "start": 7.1266,
      "duration": 0.0582,
      "velocity": 127,
      "chip": "ym2612"
    },
    {
      "channel": 1,
      "note": 55,
      "start": 7.2413,
      "duration": 0.113,
      "velocity": 97,
      "chip": "ym2612"
    },
    {
      "channel": 2,
      "note": 94,
      "start": 7.2433,
      "duration": 0.0567,
      "velocity": 127,
      "chip": "ym2612"
    },
    {
      "channel": 1,
      "note": 55,
      "start": 7.3547,
      "duration": 0.1186,
      "velocity": 97,
      "chip": "ym2612"
    },
    {
      "channel": 0,
      "note": 76,
      "start": 7.4732,
      "duration": 0.2346,
      "velocity": 109,
      "chip": "ym2612"
    },
    {
      "channel": 1,
      "note": 50,
      "start": 7.4739,
      "duration": 0.1154,
      "velocity": 97,
      "chip": "ym2612"
    },
    {
      "channel": 2,
      "note": 86,
      "start": 7.4759,
      "duration": 0.0625,
      "velocity": 127,
      "chip": "ym2612"
    },
    {
      "channel": 1,
      "note": 52,
      "start": 7.5899,
      "duration": 0.1186,
      "velocity": 97,
      "chip": "ym2612"
    },
    {
      "channel": 0,
      "note": 79,
      "start": 7.7084,
      "duration": 0.1174,
      "velocity": 109,
      "chip": "ym2612"
    },
    {
      "channel": 1,
      "note": 52,
      "start": 7.7091,
      "duration": 0.1175,
      "velocity": 97,
      "chip": "ym2612"
    },
    {
      "channel": 3,
      "note": 74,
      "start": 7.7099,
      "duration": 0.1174,
      "velocity": 106,
      "chip": "ym2612"
    },
    {
      "channel": 4,
      "note": 71,
      "start": 7.7106,
      "duration": 0.2331,
      "velocity": 106,
      "chip": "ym2612"
    },
    {
      "channel": 5,
      "note": 67,
      "start": 7.7114,
      "duration": 0.2328,
      "velocity": 106,
      "chip": "ym2612"
    },
    {
      "channel": 2,
      "note": 94,
      "start": 7.7124,
      "duration": 0.0622,
      "velocity": 127,
      "chip": "ym2612"
    },
    {
      "channel": 0,
      "note": 76,
      "start": 7.8264,
      "duration": 0.1156,
      "velocity": 109,
      "chip": "ym2612"
    },
    {
      "channel": 1,
      "note": 52,
      "start": 7.8272,
      "duration": 0.1156,
      "velocity": 97,
      "chip": "ym2612"
    },
    {
      "channel": 3,
      "note": 73,
      "start": 7.8279,
      "duration": 0.1156,
      "velocity": 106,
      "chip": "ym2612"
    },
    {
      "channel": 0,
      "note": 81,
      "start": 7.9426,
      "duration": 0.1181,
      "velocity": 109,
      "chip": "ym2612"
    },
    {
      "channel": 1,
      "note": 52,
      "start": 7.9433,
      "duration": 0.118,
      "velocity": 97,
      "chip": "ym2612"
    },
    {
      "channel": 0,
      "note": 76,
      "start": 8.0612,
      "duration": 0.1155,
      "velocity": 109,
      "chip": "ym2612"
    },
    {
      "channel": 1,
      "note": 52,
      "start": 8.062,
      "duration": 0.1155,
      "velocity": 97,
      "chip": "ym2612"
    },
    {
      "channel": 2,
      "note": 86,
      "start": 8.0632,
      "duration": 0.0586,
      "velocity": 127,
      "chip": "ym2612"
    },
    {
      "channel": 0,
      "note": 83,
      "start": 8.1773,
      "duration": 0.1127,
      "velocity": 109,
      "chip": "ym2612"
    },
    {
      "channel": 1,
      "note": 52,
      "start": 8.178,
      "duration": 0.1127,
      "velocity": 97,
      "chip": "ym2612"
    },
    {
      "channel": 2,
      "note": 94,
      "start": 8.1793,
      "duration": 0.059,
      "velocity": 127,
      "chip": "ym2612"
    },
    {
      "channel": 0,
      "note": 76,
      "start": 8.2907,
      "duration": 0.2314,
      "velocity": 109,
      "chip": "ym2612"
    },
    {
      "channel": 1,
      "note": 52,
      "start": 8.2914,
      "duration": 0.1178,
      "velocity": 97,
      "chip": "ym2612"
    },
    {
      "channel": 1,
      "note": 50,
      "start": 8.4098,
      "duration": 0.1128,
      "velocity": 97,
      "chip": "ym2612"
    },
    {
      "channel": 2,
      "note": 86,
      "start": 8.412,
      "duration": 0.0596,
      "velocity": 127,
      "chip": "ym2612"
    },
    {
      "channel": 0,
      "note": 76,
      "start": 8.5224,
      "duration": 0.1183,
      "velocity": 109,
      "chip": "ym2612"
    },
    {
      "channel": 1,
      "note": 52,
      "start": 8.5232,
      "duration": 0.1183,
      "velocity": 97,
      "chip": "ym2612"
    },
    {
      "channel": 0,
      "note": 79,
      "start": 8.6414,
      "duration": 0.1127,
      "velocity": 109,
      "chip": "ym2612"
    },
    {
      "channel": 1,
      "note": 52,
      "start": 8.642,
      "duration": 0.1127,
      "velocity": 97,
      "chip": "ym2612"
    },
    {
      "channel": 3,
      "note": 74,
      "start": 8.6428,
      "duration": 0.1127,
      "velocity": 106,
      "chip": "ym2612"
    },
    {
      "channel": 4,
      "note": 71,
      "start": 8.6436,
      "duration": 0.2291,
      "velocity": 106,
      "chip": "ym2612"
    },
    {
      "channel": 5,
      "note": 67,
      "start": 8.6443,
      "duration": 0.2286,
      "velocity": 106,
      "chip": "ym2612"
    },
    {
      "channel": 2,
      "note": 94,
      "start": 8.6454,
      "duration": 0.0589,
      "velocity": 127,
      "chip": "ym2612"
    },
    {
      "channel": 0,
      "note": 76,
      "start": 8.7546,
      "duration": 0.1163,
      "velocity": 109,
      "chip": "ym2612"
    },
    {
      "channel": 1,
      "note": 52,
      "start": 8.7553,
      "duration": 0.1163,
      "velocity": 97,
      "chip": "ym2612"
    },
    {
      "channel": 3,
      "note": 73,
      "start": 8.7561,
      "duration": 0.1163,
      "velocity": 106,
      "chip": "ym2612"
    },
    {
      "channel": 0,
      "note": 81,
      "start": 8.8715,
      "duration": 0.1186,
      "velocity": 109,
      "chip": "ym2612"
    },
    {
      "channel": 1,
      "note": 52,
      "start": 8.8721,
      "duration": 0.1186,
      "velocity": 97,
      "chip": "ym2612"
    },
    {
      "channel": 0,
      "note": 76,
      "start": 8.9907,
      "duration": 0.1158,
      "velocity": 109,
      "chip": "ym2612"
    },
    {
      "channel": 1,
      "note": 52,
      "start": 8.9914,
      "duration": 0.1158,
      "velocity": 97,
      "chip": "ym2612"
    },
    {
      "channel": 2,
      "note": 86,
      "start": 8.9926,
      "duration": 0.0573,
      "velocity": 127,
      "chip": "ym2612"
    },
    {
      "channel": 0,
      "note": 83,
      "start": 9.107,
      "duration": 0.1112,
      "velocity": 109,
      "chip": "ym2612"
    },
    {
      "channel": 1,
      "note": 52,
      "start": 9.1078,
      "duration": 0.1129,
      "velocity": 97,
      "chip": "ym2612"
    },
    {
      "channel": 2,
      "note": 94,
      "start": 9.109,
      "duration": 0.0569,
      "velocity": 127,
      "chip": "ym2612"
    },
    {
      "channel": 0,
      "note": 76,
      "start": 9.2205,
      "duration": 0.1181,
      "velocity": 109,
      "chip": "ym2612"
    },
    {
      "channel": 1,
      "note": 52,
      "start": 9.2212,
      "duration": 0.1182,
      "velocity": 97,
      "chip": "ym2612"
    },
    {
      "channel": 0,
      "note": 76,
      "start": 9.3391,
      "duration": 0.2346,
      "velocity": 109,
      "chip": "ym2612"
    },
    {
      "channel": 1,
      "note": 50,
      "start": 9.34,
      "duration": 0.1153,
      "velocity": 97,
      "chip": "ym2612"
    },
    {
      "channel": 2,
      "note": 86,
      "start": 9.3422,
      "duration": 0.0623,
      "velocity": 127,
      "chip": "ym2612"
    },
    {
      "channel": 1,
      "note": 52,
      "start": 9.4559,
      "duration": 0.1186,
      "velocity": 97,
      "chip": "ym2612"
    },
    {
      "channel": 0,
      "note": 79,
      "start": 9.5744,
      "duration": 0.1177,
      "velocity": 109,
      "chip": "ym2612"
    },
    {
      "channel": 1,
      "note": 52,
      "start": 9.5751,
      "duration": 0.1178,
      "velocity": 97,
      "chip": "ym2612"
    },
    {
      "channel": 3,
      "note": 74,
      "start": 9.5758,
      "duration": 0.1178,
      "velocity": 106,
      "chip": "ym2612"
    },
    {
      "channel": 4,
      "note": 71,
      "start": 9.5766,
      "duration": 0.2332,
      "velocity": 106,
      "chip": "ym2612"
    },
    {
      "channel": 5,
      "note": 67,
      "start": 9.5773,
      "duration": 0.2328,
      "velocity": 106,
      "chip": "ym2612"
    },
    {
      "channel": 2,
      "note": 94,
      "start": 9.5784,
      "duration": 0.0624,
      "velocity": 127,
      "chip": "ym2612"
    },
    {
      "channel": 0,
      "note": 76,
      "start": 9.6927,
      "duration": 0.1153,
      "velocity": 109,
      "chip": "ym2612"
    },
    {
      "channel": 1,
      "note": 52,
      "start": 9.6934,
      "duration": 0.1153,
      "velocity": 97,
      "chip": "ym2612"
    },
    {
      "channel": 3,
      "note": 73,
      "start": 9.6941,
      "duration": 0.1153,
      "velocity": 106,
      "chip": "ym2612"
    },
    {
      "channel": 0,
      "note": 81,
      "start": 9.8086,
      "duration": 0.1181,
      "velocity": 109,
      "chip": "ym2612"
    },
    {
      "channel": 1,
      "note": 52,
      "start": 9.8093,
      "duration": 0.118,
      "velocity": 97,
      "chip": "ym2612"
    },
    {
      "channel": 0,
      "note": 76,
      "start": 9.9272,
      "duration": 0.1154,
      "velocity": 109,
      "chip": "ym2612"
    },
    {
      "channel": 1,
      "note": 52,
      "start": 9.9279,
      "duration": 0.1154,
      "velocity": 97,
      "chip": "ym2612"
    },
    {
      "channel": 2,
      "note": 86,
      "start": 9.9291,
      "duration": 0.0593,
      "velocity": 127,
      "chip": "ym2612"
    },
    {
      "channel": 0,
      "note": 83,
      "start": 10.0433,
      "duration": 0.1128,
      "velocity": 109,
      "chip": "ym2612"
    },
    {
      "channel": 1,
      "note": 52,
      "start": 10.044,
      "duration": 0.1128,
      "velocity": 97,
      "chip": "ym2612"
    },
    {
      "channel": 2,
      "note": 94,
      "start": 10.0452,
      "duration": 0.0599,
      "velocity": 127,
      "chip": "ym2612"
    },
    {
      "channel": 0,
      "note": 76,
      "start": 10.1567,
      "duration": 0.118,
      "velocity": 109,
      "chip": "ym2612"
    },
    {
      "channel": 1,
      "note": 52,
      "start": 10.1574,
      "duration": 0.1182,
      "velocity": 97,
      "chip": "ym2612"
    },
    {
      "channel": 0,
      "note": 79,
      "start": 10.2753,
      "duration": 0.1126,
      "velocity": 109,
      "chip": "ym2612"
    },
    {
      "channel": 1,
      "note": 55,
      "start": 10.2761,
      "duration": 0.2314,
      "velocity": 97,
      "chip": "ym2612"
    },
    {
      "channel": 2,
      "note": 86,
      "start": 10.2784,
      "duration": 0.059,
      "velocity": 127,
      "chip": "ym2612"
    },
    {
      "channel": 0,
      "note": 78,
      "start": 10.3885,
      "duration": 0.1183,
      "velocity": 109,
      "chip": "ym2612"
    },
    {
      "channel": 0,
      "note": 76,
      "start": 10.5074,
      "duration": 0.1132,
      "velocity": 109,
      "chip": "ym2612"
    },
    {
      "channel": 1,
      "note": 55,
      "start": 10.508,
      "duration": 0.1134,
      "velocity": 97,
      "chip": "ym2612"
    },
    {
      "channel": 3,
      "note": 79,
      "start": 10.5087,
      "duration": 0.1134,
      "velocity": 106,
      "chip": "ym2612"
    },
    {
      "channel": 4,
      "note": 74,
      "start": 10.5095,
      "duration": 0.1134,
      "velocity": 106,
      "chip": "ym2612"
    },
    {
      "channel": 5,
      "note": 71,
      "start": 10.5102,
      "duration": 0.1134,
      "velocity": 106,
      "chip": "ym2612"
    },
    {
      "channel": 2,
      "note": 94,
      "start": 10.5113,
      "duration": 0.059,
      "velocity": 127,
      "chip": "ym2612"
    },
    {
      "channel": 0,
      "note": 74,
      "start": 10.6212,
      "duration": 0.5833,
      "velocity": 109,
      "chip": "ym2612"
    },
    {
      "channel": 1,
      "note": 54,
      "start": 10.622,
      "duration": 0.2348,
      "velocity": 97,
      "chip": "ym2612"
    },
    {
      "channel": 3,
      "note": 78,
      "start": 10.6228,
      "duration": 0.3506,
      "velocity": 106,
      "chip": "ym2612"
    },
    {
      "channel": 4,
      "note": 74,
      "start": 10.6235,
      "duration": 0.3502,
      "velocity": 106,
      "chip": "ym2612"
    },
    {
      "channel": 5,
      "note": 69,
      "start": 10.6243,
      "duration": 0.3498,
      "velocity": 106,
      "chip": "ym2612"
    },
    {
      "channel": 1,
      "note": 54,
      "start": 10.8572,
      "duration": 0.1156,
      "velocity": 97,
      "chip": "ym2612"
    },
    {
      "channel": 2,
      "note": 86,
      "start": 10.8592,
      "duration": 0.0577,
      "velocity": 127,
      "chip": "ym2612"
    },
    {
      "channel": 1,
      "note": 54,
      "start": 10.9732,
      "duration": 0.2317,
      "velocity": 97,
      "chip": "ym2612"
    },
    {
      "channel": 2,
      "note": 94,
      "start": 10.9753,
      "duration": 0.0567,
      "velocity": 127,
      "chip": "ym2612"
    },
    {
      "channel": 1,
      "note": 59,
      "start": 11.2055,
      "duration": 0.1163,
      "velocity": 97,
      "chip": "ym2612"
    },
    {
      "channel": 3,
      "note": 71,
      "start": 11.2062,
      "duration": 0.1162,
      "velocity": 106,
      "chip": "ym2612"
    },
    {
      "channel": 4,
      "note": 66,
      "start": 11.207,
      "duration": 0.1161,
      "velocity": 106,
      "chip": "ym2612"
    },
    {
      "channel": 5,
      "note": 63,
      "start": 11.2078,
      "duration": 0.1159,
      "velocity": 106,
      "chip": "ym2612"
    },
    {
      "channel": 2,
      "note": 86,
      "start": 11.2087,
      "duration": 0.0624,
      "velocity": 127,
      "chip": "ym2612"
    },
    {
      "channel": 0,
      "note": 75,
      "start": 11.2635,
      "duration": 0.0575,
      "velocity": 109,
      "chip": "ym2612"
    },
    {
      "channel": 0,
      "note": 78,
      "start": 11.3216,
      "duration": 0.0574,
      "velocity": 109,
      "chip": "ym2612"
    },
    {
      "channel": 1,
      "note": 59,
      "start": 11.3223,
      "duration": 0.1181,
      "velocity": 97,
      "chip": "ym2612"
    },
    {
      "channel": 3,
      "note": 71,
      "start": 11.3229,
      "duration": 0.1182,
      "velocity": 106,
      "chip": "ym2612"
    },
    {
      "channel": 4,
      "note": 66,
      "start": 11.3235,
      "duration": 0.1182,
      "velocity": 106,
      "chip": "ym2612"
    },
    {
      "channel": 5,
      "note": 63,
      "start": 11.3241,
      "duration": 0.1182,
      "velocity": 106,
      "chip": "ym2612"
    },
    {
      "channel": 0,
      "note": 83,
      "start": 11.3796,
      "duration": 0.0605,
      "velocity": 109,
      "chip": "ym2612"
    },
    {
      "channel": 1,
      "note": 59,
      "start": 11.441,
      "duration": 0.1138,
      "velocity": 97,
      "chip": "ym2612"
    },
    {
      "channel": 3,
      "note": 71,
      "start": 11.4415,
      "duration": 0.114,
      "velocity": 106,
      "chip": "ym2612"
    },
    {
      "channel": 4,
      "note": 66,
      "start": 11.4422,
      "duration": 0.1139,
      "velocity": 106,
      "chip": "ym2612"
    },
    {
      "channel": 5,
      "note": 63,
      "start": 11.4427,
      "duration": 0.114,
      "velocity": 106,
      "chip": "ym2612"
    },
    {
      "channel": 2,
      "note": 94,
      "start": 11.4438,
      "duration": 0.0578,
      "velocity": 127,
      "chip": "ym2612"
    },
    {
      "channel": 0,
      "note": 78,
      "start": 11.4955,
      "duration": 0.0585,
      "velocity": 109,
      "chip": "ym2612"
    },
    {
      "channel": 0,
      "note": 83,
      "start": 11.5546,
      "duration": 0.0563,
      "velocity": 109,
      "chip": "ym2612"
    },
    {
      "channel": 1,
      "note": 59,
      "start": 11.5554,
      "duration": 0.1157,
      "velocity": 97,
      "chip": "ym2612"
    },
    {
      "channel": 3,
      "note": 71,
      "start": 11.556,
      "duration": 0.1158,
      "velocity": 106,
      "chip": "ym2612"
    },
    {
      "channel": 4,
      "note": 66,
      "start": 11.5566,
      "duration": 0.1159,
      "velocity": 106,
      "chip": "ym2612"
    },
    {
      "channel": 5,
      "note": 63,
      "start": 11.5572,
      "duration": 0.1159,
      "velocity": 106,
      "chip": "ym2612"
    },
    {
      "channel": 0,
      "note": 87,
      "start": 11.6117,
      "duration": 0.0591,
      "velocity": 109,
      "chip": "ym2612"
    },
    {
      "channel": 1,
      "note": 59,
      "start": 11.6716,
      "duration": 0.1185,
      "velocity": 97,
      "chip": "ym2612"
    },
    {
      "channel": 3,
      "note": 71,
      "start": 11.6723,
      "duration": 0.1185,
      "velocity": 106,
      "chip": "ym2612"
    },
    {
      "channel": 4,
      "note": 66,
      "start": 11.6728,
      "duration": 0.1186,
      "velocity": 106,
      "chip": "ym2612"
    },
    {
      "channel": 5,
      "note": 63,
      "start": 11.6735,
      "duration": 0.1185,
      "velocity": 106,
      "chip": "ym2612"
    },
    {
      "channel": 0,
      "note": 83,
      "start": 11.7276,
      "duration": 0.0618,
      "velocity": 109,
      "chip": "ym2612"
    },
    {
      "channel": 0,
      "note": 87,
      "start": 11.7899,
      "duration": 0.0579,
      "velocity": 109,
      "chip": "ym2612"
    },
    {
      "channel": 1,
      "note": 59,
      "start": 11.7907,
      "duration": 0.1182,
      "velocity": 97,
      "chip": "ym2612"
    },
    {
      "channel": 3,
      "note": 71,
      "start": 11.7912,
      "duration": 0.1184,
      "velocity": 106,
      "chip": "ym2612"
    },
    {
      "channel": 4,
      "note": 66,
      "start": 11.7919,
      "duration": 0.1183,
      "velocity": 106,
      "chip": "ym2612"
    },
    {
      "channel": 5,
      "note": 63,
      "start": 11.7924,
      "duration": 0.1184,
      "velocity": 106,
      "chip": "ym2612"
    },
    {
      "channel": 2,
      "note": 86,
      "start": 11.7934,
      "duration": 0.0624,
      "velocity": 127,
      "chip": "ym2612"
    },
    {
      "channel": 0,
      "note": 90,
      "start": 11.8484,
      "duration": 0.0601,
      "velocity": 109,
      "chip": "ym2612"
    },
    {
      "channel": 1,
      "note": 59,
      "start": 11.9094,
      "duration": 0.1134,
      "velocity": 97,
      "chip": "ym2612"
    },
    {
      "channel": 3,
      "note": 71,
      "start": 11.91,
      "duration": 0.1135,
      "velocity": 106,
      "chip": "ym2612"
    },
    {
      "channel": 4,
      "note": 66,
      "start": 11.9106,
      "duration": 0.1135,
      "velocity": 106,
      "chip": "ym2612"
    },
    {
      "channel": 5,
      "note": 63,
      "start": 11.9113,
      "duration": 0.1135,
      "velocity": 106,
      "chip": "ym2612"
    },
    {
      "channel": 2,
      "note": 94,
      "start": 11.9123,
      "duration": 0.0598,
      "velocity": 127,
      "chip": "ym2612"
    },
    {
      "channel": 0,
      "note": 90,
      "start": 11.9644,
      "duration": 0.0576,
      "velocity": 109,
      "chip": "ym2612"
    },
    {
      "channel": 0,
      "note": 94,
      "start": 12.0227,
      "duration": 0.0572,
      "velocity": 109,
      "chip": "ym2612"
    },
    {
      "channel": 1,
      "note": 59,
      "start": 12.0234,
      "duration": 0.118,
      "velocity": 97,
      "chip": "ym2612"
    },
    {
      "channel": 3,
      "note": 71,
      "start": 12.024,
      "duration": 0.1181,
      "velocity": 106,
      "chip": "ym2612"
    },
    {
      "channel": 4,
      "note": 66,
      "start": 12.0246,
      "duration": 0.1182,
      "velocity": 106,
      "chip": "ym2612"
    },
    {
      "channel": 5,
      "note": 63,
      "start": 12.0252,
      "duration": 0.1181,
      "velocity": 106,
      "chip": "ym2612"
    },
    {
      "channel": 0,
      "note": 95,
      "start": 12.0804,
      "duration": 0.0606,
      "velocity": 109,
      "chip": "ym2612"
    },
    {
      "channel": 1,
      "note": 59,
      "start": 12.142,
      "duration": 0.1132,
      "velocity": 97,
      "chip": "ym2612"
    },
    {
      "channel": 3,
      "note": 71,
      "start": 12.1426,
      "duration": 0.1134,
      "velocity": 106,
      "chip": "ym2612"
    },
    {
      "channel": 4,
      "note": 66,
      "start": 12.1432,
      "duration": 0.1134,
      "velocity": 106,
      "chip": "ym2612"
    },
    {
      "channel": 5,
      "note": 63,
      "start": 12.1438,
      "duration": 0.1134,
      "velocity": 106,
      "chip": "ym2612"
    },
    {
      "channel": 2,
      "note": 86,
      "start": 12.1448,
      "duration": 0.0594,
      "velocity": 127,
      "chip": "ym2612"
    },
    {
      "channel": 0,
      "note": 95,
      "start": 12.1966,
      "duration": 0.0578,
      "velocity": 109,
      "chip": "ym2612"
    },
    {
      "channel": 0,
      "note": 99,
      "start": 12.255,
      "duration": 0.0569,
      "velocity": 109,
      "chip": "ym2612"
    },
    {
      "channel": 1,
      "note": 59,
      "start": 12.2558,
      "duration": 0.1183,
      "velocity": 97,
      "chip": "ym2612"
    },
    {
      "channel": 3,
      "note": 71,
      "start": 12.2564,
      "duration": 0.1185,
      "velocity": 106,
      "chip": "ym2612"
    },
    {
      "channel": 4,
      "note": 66,
      "start": 12.257,
      "duration": 0.1184,
      "velocity": 106,
      "chip": "ym2612"
    },
    {
      "channel": 5,
      "note": 63,
      "start": 12.2576,
      "duration": 0.1185,
      "velocity": 106,
      "chip": "ym2612"
    },
    {
      "channel": 0,
      "note": 102,
      "start": 12.3126,
      "duration": 0.0612,
      "velocity": 109,
      "chip": "ym2612"
    },
    {
      "channel": 1,
      "note": 59,
      "start": 12.3747,
      "duration": 0.1168,
      "velocity": 97,
      "chip": "ym2612"
    },
    {
      "channel": 3,
      "note": 71,
      "start": 12.3753,
      "duration": 0.1169,
      "velocity": 106,
      "chip": "ym2612"
    },
    {
      "channel": 4,
      "note": 66,
      "start": 12.3759,
      "duration": 0.1171,
      "velocity": 106,
      "chip": "ym2612"
    },
    {
      "channel": 5,
      "note": 63,
      "start": 12.3765,
      "duration": 0.1172,
      "velocity": 106,
      "chip": "ym2612"
    },
    {
      "channel": 2,
      "note": 94,
      "start": 12.3776,
      "duration": 0.063,
      "velocity": 127,
      "chip": "ym2612"
    },
    {
      "channel": 0,
      "note": 102,
      "start": 12.4334,
      "duration": 0.0573,
      "velocity": 109,
      "chip": "ym2612"
    },
    {
      "channel": 0,
      "note": 103,
      "start": 12.4914,
      "duration": 0.0574,
      "velocity": 109,
      "chip": "ym2612"
    },
    {
      "channel": 1,
      "note": 60,
      "start": 12.492,
      "duration": 0.2343,
      "velocity": 97,
      "chip": "ym2612"
    },
    {
      "channel": 3,
      "note": 72,
      "start": 12.4929,
      "duration": 0.5821,
      "velocity": 106,
      "chip": "ym2612"
    },
    {
      "channel": 4,
      "note": 67,
      "start": 12.4937,
      "duration": 0.5822,
      "velocity": 106,
      "chip": "ym2612"
    },
    {
      "channel": 5,
      "note": 64,
      "start": 12.4944,
      "duration": 0.5823,
      "velocity": 106,
      "chip": "ym2612"
    },
    {
      "channel": 0,
      "note": 108,
      "start": 12.5494,
      "duration": 0.0575,
      "velocity": 109,
      "chip": "ym2612"
    },
    {
      "channel": 0,
      "note": 100,
      "start": 12.6654,
      "duration": 0.0602,
      "velocity": 109,
      "chip": "ym2612"
    },
    {
      "channel": 0,
      "note": 103,
      "start": 12.7262,
      "duration": 0.0546,
      "velocity": 109,
      "chip": "ym2612"
    },
    {
      "channel": 1,
      "note": 60,
      "start": 12.7268,
      "duration": 0.1151,
      "velocity": 97,
      "chip": "ym2612"
    },
    {
      "channel": 2,
      "note": 86,
      "start": 12.7288,
      "duration": 0.0603,
      "velocity": 127,
      "chip": "ym2612"
    },
    {
      "channel": 0,
      "note": 108,
      "start": 12.7815,
      "duration": 0.06,
      "velocity": 109,
      "chip": "ym2612"
    },
    {
      "channel": 1,
      "note": 60,
      "start": 12.8423,
      "duration": 0.1134,
      "velocity": 97,
      "chip": "ym2612"
    },
    {
      "channel": 2,
      "note": 94,
      "start": 12.8444,
      "duration": 0.0606,
      "velocity": 127,
      "chip": "ym2612"
    },
    {
      "channel": 0,
      "note": 100,
      "start": 12.8975,
      "duration": 0.0574,
      "velocity": 109,
      "chip": "ym2612"
    },
    {
      "channel": 0,
      "note": 103,
      "start": 12.9555,
      "duration": 0.0573,
      "velocity": 109,
      "chip": "ym2612"
    },
    {
      "channel": 1,
      "note": 60,
      "start": 12.9561,
      "duration": 0.118,
      "velocity": 97,
      "chip": "ym2612"
    },
    {
      "channel": 0,
      "note": 108,
      "start": 13.0135,
      "duration": 0.0602,
      "velocity": 109,
      "chip": "ym2612"
    },
    {
      "channel": 1,
      "note": 59,
      "start": 13.0747,
      "duration": 0.1134,
      "velocity": 97,
      "chip": "ym2612"
    },
    {
      "channel": 3,
      "note": 71,
      "start": 13.0756,
      "duration": 0.1132,
      "velocity": 106,
      "chip": "ym2612"
    },
    {
      "channel": 4,
      "note": 66,
      "start": 13.0764,
      "duration": 0.113,
      "velocity": 106,
      "chip": "ym2612"
    },
    {
      "channel": 5,
      "note": 63,
      "start": 13.0773,
      "duration": 0.1127,
      "velocity": 106,
      "chip": "ym2612"
    },
    {
      "channel": 2,
      "note": 86,
      "start": 13.0783,
      "duration": 0.0588,
      "velocity": 127,
      "chip": "ym2612"
    },
    {
      "channel": 0,
      "note": 75,
      "start": 13.1294,
      "duration": 0.058,
      "velocity": 109,
      "chip": "ym2612"
    },
    {
      "channel": 0,
      "note": 78,
      "start": 13.1879,
      "duration": 0.0569,
      "velocity": 109,
      "chip": "ym2612"
    },
    {
      "channel": 1,
      "note": 59,
      "start": 13.1887,
      "duration": 0.1188,
      "velocity": 97,
      "chip": "ym2612"
    },
    {
      "channel": 3,
      "note": 71,
      "start": 13.1893,
      "duration": 0.119,
      "velocity": 106,
      "chip": "ym2612"
    },
    {
      "channel": 4,
      "note": 66,
      "start": 13.1899,
      "duration": 0.1189,
      "velocity": 106,
      "chip": "ym2612"
    },
    {
      "channel": 5,
      "note": 63,
      "start": 13.1905,
      "duration": 0.119,
      "velocity": 106,
      "chip": "ym2612"
    },
    {
      "channel": 0,
      "note": 83,
      "start": 13.2455,
      "duration": 0.0616,
      "velocity": 109,
      "chip": "ym2612"
    },
    {
      "channel": 1,
      "note": 59,
      "start": 13.308,
      "duration": 0.1165,
      "velocity": 97,
      "chip": "ym2612"
    },
    {
      "channel": 3,
      "note": 71,
      "start": 13.3087,
      "duration": 0.1166,
      "velocity": 106,
      "chip": "ym2612"
    },
    {
      "channel": 4,
      "note": 66,
      "start": 13.3092,
      "duration": 0.1166,
      "velocity": 106,
      "chip": "ym2612"
    },
    {
      "channel": 5,
      "note": 63,
      "start": 13.3099,
      "duration": 0.1166,
      "velocity": 106,
      "chip": "ym2612"
    },
    {
      "channel": 2,
      "note": 94,
      "start": 13.3109,
      "duration": 0.0627,
      "velocity": 127,
      "chip": "ym2612"
    },
    {
      "channel": 0,
      "note": 78,
      "start": 13.3663,
      "duration": 0.0574,
      "velocity": 109,
      "chip": "ym2612"
    },
    {
      "channel": 0,
      "note": 83,
      "start": 13.4244,
      "duration": 0.0574,
      "velocity": 109,
      "chip": "ym2612"
    },
    {
      "channel": 1,
      "note": 59,
      "start": 13.4251,
      "duration": 0.1151,
      "velocity": 97,
      "chip": "ym2612"
    },
    {
      "channel": 3,
      "note": 71,
      "start": 13.4257,
      "duration": 0.1153,
      "velocity": 106,
      "chip": "ym2612"
    },
    {
      "channel": 4,
      "note": 66,
      "start": 13.4263,
      "duration": 0.1153,
      "velocity": 106,
      "chip": "ym2612"
    },
    {
      "channel": 5,
      "note": 63,
      "start": 13.4269,
      "duration": 0.1153,
      "velocity": 106,
      "chip": "ym2612"
    },
    {
      "channel": 0,
      "note": 87,
      "start": 13.4824,
      "duration": 0.0575,
      "velocity": 109,
      "chip": "ym2612"
    },
    {
      "channel": 1,
      "note": 59,
      "start": 13.5408,
      "duration": 0.1185,
      "velocity": 97,
      "chip": "ym2612"
    },
    {
      "channel": 3,
      "note": 71,
      "start": 13.5414,
      "duration": 0.1186,
      "velocity": 106,
      "chip": "ym2612"
    },
    {
      "channel": 4,
      "note": 66,
      "start": 13.542,
      "duration": 0.1186,
      "velocity": 106,
      "chip": "ym2612"
    },
    {
      "channel": 5,
      "note": 63,
      "start": 13.5426,
      "duration": 0.1186,
      "velocity": 106,
      "chip": "ym2612"
    },
    {
      "channel": 0,
      "note": 83,
      "start": 13.5983,
      "duration": 0.0602,
      "velocity": 109,
      "chip": "ym2612"
    },
    {
      "channel": 0,
      "note": 87,
      "start": 13.6591,
      "duration": 0.0546,
      "velocity": 109,
      "chip": "ym2612"
    },
    {
      "channel": 1,
      "note": 59,
      "start": 13.6599,
      "duration": 0.115,
      "velocity": 97,
      "chip": "ym2612"
    },
    {
      "channel": 3,
      "note": 71,
      "start": 13.6604,
      "duration": 0.1152,
      "velocity": 106,
      "chip": "ym2612"
    },
    {
      "channel": 4,
      "note": 66,
      "start": 13.6611,
      "duration": 0.1151,
      "velocity": 106,
      "chip": "ym2612"
    },
    {
      "channel": 5,
      "note": 63,
      "start": 13.6617,
      "duration": 0.1152,
      "velocity": 106,
      "chip": "ym2612"
    },
    {
      "channel": 2,
      "note": 86,
      "start": 13.6627,
      "duration": 0.0594,
      "velocity": 127,
      "chip": "ym2612"
    },
    {
      "channel": 0,
      "note": 90,
      "start": 13.7144,
      "duration": 0.0602,
      "velocity": 109,
      "chip": "ym2612"
    },
    {
      "channel": 1,
      "note": 59,
      "start": 13.7754,
      "duration": 0.1133,
      "velocity": 97,
      "chip": "ym2612"
    },
    {
      "channel": 3,
      "note": 71,
      "start": 13.7761,
      "duration": 0.1134,
      "velocity": 106,
      "chip": "ym2612"
    },
    {
      "channel": 4,
      "note": 66,
      "start": 13.7767,
      "duration": 0.1134,
      "velocity": 106,
      "chip": "ym2612"
    },
    {
      "channel": 5,
      "note": 63,
      "start": 13.7773,
      "duration": 0.1134,
      "velocity": 106,
      "chip": "ym2612"
    },
    {
      "channel": 2,
      "note": 94,
      "start": 13.7783,
      "duration": 0.0597,
      "velocity": 127,
      "chip": "ym2612"
    },
    {
      "channel": 0,
      "note": 90,
      "start": 13.8304,
      "duration": 0.0576,
      "velocity": 109,
      "chip": "ym2612"
    },
    {
      "channel": 0,
      "note": 94,
      "start": 13.8886,
      "duration": 0.0573,
      "velocity": 109,
      "chip": "ym2612"
    },
    {
      "channel": 1,
      "note": 59,
      "start": 13.8893,
      "duration": 0.1178,
      "velocity": 97,
      "chip": "ym2612"
    },
    {
      "channel": 3,
      "note": 71,
      "start": 13.89,
      "duration": 0.1179,
      "velocity": 106,
      "chip": "ym2612"
    },
    {
      "channel": 4,
      "note": 66,
      "start": 13.8905,
      "duration": 0.1179,
      "velocity": 106,
      "chip": "ym2612"
    },
    {
      "channel": 5,
      "note": 63,
      "start": 13.8912,
      "duration": 0.1179,
      "velocity": 106,
      "chip": "ym2612"
    },
    {
      "channel": 0,
      "note": 95,
      "start": 13.9465,
      "duration": 0.0603,
      "velocity": 109,
      "chip": "ym2612"
    },
    {
      "channel": 1,
      "note": 59,
      "start": 14.0077,
      "duration": 0.1137,
      "velocity": 97,
      "chip": "ym2612"
    },
    {
      "channel": 3,
      "note": 71,
      "start": 14.0083,
      "duration": 0.1139,
      "velocity": 106,
      "chip": "ym2612"
    },
    {
      "channel": 4,
      "note": 66,
      "start": 14.0089,
      "duration": 0.1139,
      "velocity": 106,
      "chip": "ym2612"
    },
    {
      "channel": 5,
      "note": 63,
      "start": 14.0095,
      "duration": 0.1139,
      "velocity": 106,
      "chip": "ym2612"
    },
    {
      "channel": 2,
      "note": 86,
      "start": 14.0105,
      "duration": 0.0581,
      "velocity": 127,
      "chip": "ym2612"
    },
    {
      "channel": 0,
      "note": 95,
      "start": 14.0625,
      "duration": 0.0581,
      "velocity": 109,
      "chip": "ym2612"
    },
    {
      "channel": 0,
      "note": 99,
      "start": 14.1213,
      "duration": 0.0565,
      "velocity": 109,
      "chip": "ym2612"
    },
    {
      "channel": 1,
      "note": 59,
      "start": 14.122,
      "duration": 0.1187,
      "velocity": 97,
      "chip": "ym2612"
    },
    {
      "channel": 3,
      "note": 71,
      "start": 14.1227,
      "duration": 0.1188,
      "velocity": 106,
      "chip": "ym2612"
    },
    {
      "channel": 4,
      "note": 66,
      "start": 14.1232,
      "duration": 0.1188,
      "velocity": 106,
      "chip": "ym2612"
    },
    {
      "channel": 5,
      "note": 63,
      "start": 14.1239,
      "duration": 0.1188,
      "velocity": 106,
      "chip": "ym2612"
    },
    {
      "channel": 0,
      "note": 102,
      "start": 14.1784,
      "duration": 0.062,
      "velocity": 109,
      "chip": "ym2612"
    },
    {
      "channel": 1,
      "note": 59,
      "start": 14.2413,
      "duration": 0.1161,
      "velocity": 97,
      "chip": "ym2612"
    },
    {
      "channel": 3,
      "note": 71,
      "start": 14.2419,
      "duration": 0.1163,
      "velocity": 106,
      "chip": "ym2612"
    },
    {
      "channel": 4,
      "note": 66,
      "start": 14.2425,
      "duration": 0.1165,
      "velocity": 106,
      "chip": "ym2612"
    },
    {
      "channel": 5,
      "note": 63,
      "start": 14.2431,
      "duration": 0.1166,
      "velocity": 106,
      "chip": "ym2612"
    },
    {
      "channel": 2,
      "note": 94,
      "start": 14.2441,
      "duration": 0.062,
      "velocity": 127,
      "chip": "ym2612"
    },
    {
      "channel": 0,
      "note": 102,
      "start": 14.2994,
      "duration": 0.0573,
      "velocity": 109,
      "chip": "ym2612"
    },
    {
      "channel": 0,
      "note": 103,
      "start": 14.3573,
      "duration": 0.0574,
      "velocity": 109,
      "chip": "ym2612"
    },
    {
      "channel": 1,
      "note": 60,
      "start": 14.358,
      "duration": 0.2343,
      "velocity": 97,
      "chip": "ym2612"
    },
    {
      "channel": 3,
      "note": 72,
      "start": 14.3588,
      "duration": 0.5831,
      "velocity": 106,
      "chip": "ym2612"
    },
    {
      "channel": 4,
      "note": 67,
      "start": 14.3596,
      "duration": 0.5828,
      "velocity": 106,
      "chip": "ym2612"
    },
    {
      "channel": 5,
      "note": 64,
      "start": 14.3604,
      "duration": 0.5824,
      "velocity": 106,
      "chip": "ym2612"
    },
    {
      "channel": 0,
      "note": 96,
      "start": 14.4154,
      "duration": 0.0575,
      "velocity": 109,
      "chip": "ym2612"
    },
    {
      "channel": 0,
      "note": 100,
      "start": 14.5313,
      "duration": 0.0602,
      "velocity": 109,
      "chip": "ym2612"
    },
    {
      "channel": 0,
      "note": 103,
      "start": 14.5922,
      "duration": 0.0546,
      "velocity": 109,
      "chip": "ym2612"
    },
    {
      "channel": 1,
      "note": 60,
      "start": 14.5927,
      "duration": 0.115,
      "velocity": 97,
      "chip": "ym2612"
    },
    {
      "channel": 2,
      "note": 86,
      "start": 14.5947,
      "duration": 0.0605,
      "velocity": 127,
      "chip": "ym2612"
    },
    {
      "channel": 0,
      "note": 108,
      "start": 14.6474,
      "duration": 0.06,
      "velocity": 109,
      "chip": "ym2612"
    },
    {
      "channel": 1,
      "note": 60,
      "start": 14.7082,
      "duration": 0.1135,
      "velocity": 97,
      "chip": "ym2612"
    },
    {
      "channel": 2,
      "note": 94,
      "start": 14.7103,
      "duration": 0.0607,
      "velocity": 127,
      "chip": "ym2612"
    },
    {
      "channel": 0,
      "note": 100,
      "start": 14.7634,
      "duration": 0.0576,
      "velocity": 109,
      "chip": "ym2612"
    },
    {
      "channel": 0,
      "note": 103,
      "start": 14.8215,
      "duration": 0.0573,
      "velocity": 109,
      "chip": "ym2612"
    },
    {
      "channel": 1,
      "note": 60,
      "start": 14.8221,
      "duration": 0.119,
      "velocity": 97,
      "chip": "ym2612"
    },
    {
      "channel": 0,
      "note": 108,
      "start": 14.8795,
      "duration": 0.0607,
      "velocity": 109,
      "chip": "ym2612"
    },
    {
      "channel": 0,
      "note": 76,
      "start": 14.9408,
      "duration": 0.2324,
      "velocity": 109,
      "chip": "ym2612"
    },
    {
      "channel": 1,
      "note": 50,
      "start": 14.9417,
      "duration": 0.1127,
      "velocity": 97,
      "chip": "ym2612"
    },
    {
      "channel": 2,
      "note": 86,
      "start": 14.944,
      "duration": 0.0567,
      "velocity": 127,
      "chip": "ym2612"
    },
    {
      "channel": 1,
      "note": 52,
      "start": 15.0549,
      "duration": 0.1191,
      "velocity": 97,
      "chip": "ym2612"
    },
    {
      "channel": 0,
      "note": 79,
      "start": 15.1739,
      "duration": 0.1158,
      "velocity": 109,
      "chip": "ym2612"
    },
    {
      "channel": 1,
      "note": 52,
      "start": 15.1746,
      "duration": 0.1159,
      "velocity": 97,
      "chip": "ym2612"
    },
    {
      "channel": 3,
      "note": 74,
      "start": 15.1754,
      "duration": 0.1157,
      "velocity": 106,
      "chip": "ym2612"
    },
    {
      "channel": 4,
      "note": 71,
      "start": 15.1761,
      "duration": 0.2316,
      "velocity": 106,
      "chip": "ym2612"
    },
    {
      "channel": 5,
      "note": 67,
      "start": 15.1769,
      "duration": 0.2311,
      "velocity": 106,
      "chip": "ym2612"
    },
    {
      "channel": 2,
      "note": 94,
      "start": 15.1779,
      "duration": 0.0613,
      "velocity": 127,
      "chip": "ym2612"
    },
    {
      "channel": 0,
      "note": 76,
      "start": 15.2902,
      "duration": 0.1156,
      "velocity": 109,
      "chip": "ym2612"
    },
    {
      "channel": 1,
      "note": 52,
      "start": 15.291,
      "duration": 0.1156,
      "velocity": 97,
      "chip": "ym2612"
    },
    {
      "channel": 3,
      "note": 73,
      "start": 15.2917,
      "duration": 0.1157,
      "velocity": 106,
      "chip": "ym2612"
    },
    {
      "channel": 0,
      "note": 81,
      "start": 15.4065,
      "duration": 0.118,
      "velocity": 109,
      "chip": "ym2612"
    },
    {
      "channel": 1,
      "note": 52,
      "start": 15.4072,
      "duration": 0.1181,
      "velocity": 97,
      "chip": "ym2612"
    },
    {
      "channel": 0,
      "note": 76,
      "start": 15.5251,
      "duration": 0.1154,
      "velocity": 109,
      "chip": "ym2612"
    },
    {
      "channel": 1,
      "note": 52,
      "start": 15.5258,
      "duration": 0.1154,
      "velocity": 97,
      "chip": "ym2612"
    },
    {
      "channel": 2,
      "note": 86,
      "start": 15.527,
      "duration": 0.0602,
      "velocity": 127,
      "chip": "ym2612"
    },
    {
      "channel": 0,
      "note": 83,
      "start": 15.6411,
      "duration": 0.113,
      "velocity": 109,
      "chip": "ym2612"
    },
    {
      "channel": 1,
      "note": 52,
      "start": 15.6418,
      "duration": 0.1131,
      "velocity": 97,
      "chip": "ym2612"
    },
    {
      "channel": 2,
      "note": 94,
      "start": 15.6431,
      "duration": 0.0586,
      "velocity": 127,
      "chip": "ym2612"
    },
    {
      "channel": 0,
      "note": 76,
      "start": 15.7547,
      "duration": 0.2326,
      "velocity": 109,
      "chip": "ym2612"
    },
    {
      "channel": 1,
      "note": 52,
      "start": 15.7555,
      "duration": 0.1185,
      "velocity": 97,
      "chip": "ym2612"
    },
    {
      "channel": 1,
      "note": 50,
      "start": 15.8745,
      "duration": 0.1134,
      "velocity": 97,
      "chip": "ym2612"
    },
    {
      "channel": 2,
      "note": 86,
      "start": 15.8767,
      "duration": 0.0569,
      "velocity": 127,
      "chip": "ym2612"
    },
    {
      "channel": 0,
      "note": 76,
      "start": 15.9877,
      "duration": 0.1185,
      "velocity": 109,
      "chip": "ym2612"
    },
    {
      "channel": 1,
      "note": 52,
      "start": 15.9884,
      "duration": 0.1185,
      "velocity": 97,
      "chip": "ym2612"
    },
    {
      "channel": 0,
      "note": 79,
      "start": 16.1068,
      "duration": 0.1159,
      "velocity": 109,
      "chip": "ym2612"
    },
    {
      "channel": 1,
      "note": 52,
      "start": 16.1075,
      "duration": 0.1159,
      "velocity": 97,
      "chip": "ym2612"
    },
    {
      "channel": 3,
      "note": 74,
      "start": 16.1083,
      "duration": 0.1158,
      "velocity": 106,
      "chip": "ym2612"
    },
    {
      "channel": 4,
      "note": 71,
      "start": 16.1091,
      "duration": 0.2316,
      "velocity": 106,
      "chip": "ym2612"
    },
    {
      "channel": 5,
      "note": 67,
      "start": 16.1099,
      "duration": 0.2312,
      "velocity": 106,
      "chip": "ym2612"
    },
    {
      "channel": 2,
      "note": 94,
      "start": 16.1109,
      "duration": 0.0616,
      "velocity": 127,
      "chip": "ym2612"
    },
    {
      "channel": 0,
      "note": 76,
      "start": 16.2233,
      "duration": 0.1156,
      "velocity": 109,
      "chip": "ym2612"
    },
    {
      "channel": 1,
      "note": 52,
      "start": 16.224,
      "duration": 0.1156,
      "velocity": 97,
      "chip": "ym2612"
    },
    {
      "channel": 3,
      "note": 73,
      "start": 16.2247,
      "duration": 0.1156,
      "velocity": 106,
      "chip": "ym2612"
    },
    {
      "channel": 0,
      "note": 81,
      "start": 16.3395,
      "duration": 0.118,
      "velocity": 109,
      "chip": "ym2612"
    },
    {
      "channel": 1,
      "note": 52,
      "start": 16.3402,
      "duration": 0.1181,
      "velocity": 97,
      "chip": "ym2612"
    },
    {
      "channel": 0,
      "note": 76,
      "start": 16.4581,
      "duration": 0.1154,
      "velocity": 109,
      "chip": "ym2612"
    },
    {
      "channel": 1,
      "note": 52,
      "start": 16.4588,
      "duration": 0.1153,
      "velocity": 97,
      "chip": "ym2612"
    },
    {
      "channel": 2,
      "note": 86,
      "start": 16.46,
      "duration": 0.0602,
      "velocity": 127,
      "chip": "ym2612"
    },
    {
      "channel": 0,
      "note": 83,
      "start": 16.5741,
      "duration": 0.1134,
      "velocity": 109,
      "chip": "ym2612"
    },
    {
      "channel": 1,
      "note": 52,
      "start": 16.5747,
      "duration": 0.1135,
      "velocity": 97,
      "chip": "ym2612"
    },
    {
      "channel": 2,
      "note": 94,
      "start": 16.576,
      "duration": 0.0586,
      "velocity": 127,
      "chip": "ym2612"
    },
    {
      "channel": 0,
      "note": 76,
      "start": 16.688,
      "duration": 0.1188,
      "velocity": 109,
      "chip": "ym2612"
    },
    {
      "channel": 1,
      "note": 52,
      "start": 16.6888,
      "duration": 0.1189,
      "velocity": 97,
      "chip": "ym2612"
    },
    {
      "channel": 0,
      "note": 76,
      "start": 16.8075,
      "duration": 0.2349,
      "velocity": 109,
      "chip": "ym2612"
    },
    {
      "channel": 1,
      "note": 50,
      "start": 16.8083,
      "duration": 0.1156,
      "velocity": 97,
      "chip": "ym2612"
    },
    {
      "channel": 2,
      "note": 86,
      "start": 16.8106,
      "duration": 0.0612,
      "velocity": 127,
      "chip": "ym2612"
    },
    {
      "channel": 1,
      "note": 52,
      "start": 16.9246,
      "duration": 0.1185,
      "velocity": 97,
      "chip": "ym2612"
    },
    {
      "channel": 0,
      "note": 79,
      "start": 17.0429,
      "duration": 0.1176,
      "velocity": 109,
      "chip": "ym2612"
    },
    {
      "channel": 1,
      "note": 52,
      "start": 17.0437,
      "duration": 0.1176,
      "velocity": 97,
      "chip": "ym2612"
    },
    {
      "channel": 3,
      "note": 74,
      "start": 17.0445,
      "duration": 0.1175,
      "velocity": 106,
      "chip": "ym2612"
    },
    {
      "channel": 4,
      "note": 71,
      "start": 17.0452,
      "duration": 0.2331,
      "velocity": 106,
      "chip": "ym2612"
    },
    {
      "channel": 5,
      "note": 67,
      "start": 17.046,
      "duration": 0.2328,
      "velocity": 106,
      "chip": "ym2612"
    },
    {
      "channel": 2,
      "note": 94,
      "start": 17.047,
      "duration": 0.0624,
      "velocity": 127,
      "chip": "ym2612"
    },
    {
      "channel": 0,
      "note": 76,
      "start": 17.1611,
      "duration": 0.1155,
      "velocity": 109,
      "chip": "ym2612"
    },
    {
      "channel": 1,
      "note": 52,
      "start": 17.1618,
      "duration": 0.1156,
      "velocity": 97,
      "chip": "ym2612"
    },
    {
      "channel": 3,
      "note": 73,
      "start": 17.1625,
      "duration": 0.1155,
      "velocity": 106,
      "chip": "ym2612"
    },
    {
      "channel": 0,
      "note": 81,
      "start": 17.2772,
      "duration": 0.1181,
      "velocity": 109,
      "chip": "ym2612"
    },
    {
      "channel": 1,
      "note": 52,
      "start": 17.2779,
      "duration": 0.1181,
      "velocity": 97,
      "chip": "ym2612"
    },
    {
      "channel": 0,
      "note": 76,
      "start": 17.3959,
      "duration": 0.1154,
      "velocity": 109,
      "chip": "ym2612"
    },
    {
      "channel": 1,
      "note": 52,
      "start": 17.3966,
      "duration": 0.1154,
      "velocity": 97,
      "chip": "ym2612"
    },
    {
      "channel": 2,
      "note": 86,
      "start": 17.3978,
      "duration": 0.0586,
      "velocity": 127,
      "chip": "ym2612"
    },
    {
      "channel": 0,
      "note": 83,
      "start": 17.5118,
      "duration": 0.1129,
      "velocity": 109,
      "chip": "ym2612"
    },
    {
      "channel": 1,
      "note": 52,
      "start": 17.5126,
      "duration": 0.1128,
      "velocity": 97,
      "chip": "ym2612"
    },
    {
      "channel": 2,
      "note": 94,
      "start": 17.5139,
      "duration": 0.0585,
      "velocity": 127,
      "chip": "ym2612"
    },
    {
      "channel": 0,
      "note": 76,
      "start": 17.6253,
      "duration": 0.1181,
      "velocity": 109,
      "chip": "ym2612"
    },
    {
      "channel": 1,
      "note": 52,
      "start": 17.626,
      "duration": 0.1183,
      "velocity": 97,
      "chip": "ym2612"
    },
    {
      "channel": 0,
      "note": 84,
      "start": 17.744,
      "duration": 0.1126,
      "velocity": 109,
      "chip": "ym2612"
    },
    {
      "channel": 1,
      "note": 57,
      "start": 17.7449,
      "duration": 0.2312,
      "velocity": 97,
      "chip": "ym2612"
    },
    {
      "channel": 2,
      "note": 86,
      "start": 17.7471,
      "duration": 0.058,
      "velocity": 127,
      "chip": "ym2612"
    },
    {
      "channel": 0,
      "note": 83,
      "start": 17.8573,
      "duration": 0.1181,
      "velocity": 109,
      "chip": "ym2612"
    },
    {
      "channel": 0,
      "note": 81,
      "start": 17.976,
      "duration": 0.1127,
      "velocity": 109,
      "chip": "ym2612"
    },
    {
      "channel": 1,
      "note": 57,
      "start": 17.9765,
      "duration": 0.1129,
      "velocity": 97,
      "chip": "ym2612"
    },
    {
      "channel": 3,
      "note": 81,
      "start": 17.9773,
      "duration": 0.1128,
      "velocity": 106,
      "chip": "ym2612"
    },
    {
      "channel": 4,
      "note": 76,
      "start": 17.9781,
      "duration": 0.1128,
      "velocity": 106,
      "chip": "ym2612"
    },
    {
      "channel": 5,
      "note": 73,
      "start": 17.9789,
      "duration": 0.1128,
      "velocity": 106,
      "chip": "ym2612"
    },
    {
      "channel": 2,
      "note": 94,
      "start": 17.9799,
      "duration": 0.059,
      "velocity": 127,
      "chip": "ym2612"
    },
    {
      "channel": 0,
      "note": 79,
      "start": 18.0893,
      "duration": 0.584,
      "velocity": 109,
      "chip": "ym2612"
    },
    {
      "channel": 1,
      "note": 55,
      "start": 18.09,
      "duration": 0.2341,
      "velocity": 97,
      "chip": "ym2612"
    },
    {
      "channel": 3,
      "note": 79,
      "start": 18.0907,
      "duration": 0.3507,
      "velocity": 106,
      "chip": "ym2612"
    },
    {
      "channel": 4,
      "note": 76,
      "start": 18.0915,
      "duration": 0.3502,
      "velocity": 106,
      "chip": "ym2612"
    },
    {
      "channel": 5,
      "note": 71,
      "start": 18.0922,
      "duration": 0.3499,
      "velocity": 106,
      "chip": "ym2612"
    },
    {
      "channel": 1,
      "note": 55,
      "start": 18.3245,
      "duration": 0.1163,
      "velocity": 97,
      "chip": "ym2612"
    },
    {
      "channel": 2,
      "note": 86,
      "start": 18.3265,
      "duration": 0.0604,
      "velocity": 127,
      "chip": "ym2612"
    },
    {
      "channel": 1,
      "note": 55,
      "start": 18.4413,
      "duration": 0.1132,
      "velocity": 97,
      "chip": "ym2612"
    },
    {
      "channel": 2,
      "note": 94,
      "start": 18.4433,
      "duration": 0.0572,
      "velocity": 127,
      "chip": "ym2612"
    },
    {
      "channel": 1,
      "note": 55,
      "start": 18.555,
      "duration": 0.119,
      "velocity": 97,
      "chip": "ym2612"
    },
    {
      "channel": 0,
      "note": 76,
      "start": 18.6739,
      "duration": 0.2344,
      "velocity": 109,
      "chip": "ym2612"
    },
    {
      "channel": 1,
      "note": 50,
      "start": 18.6746,
      "duration": 0.1153,
      "velocity": 97,
      "chip": "ym2612"
    },
    {
      "channel": 2,
      "note": 86,
      "start": 18.6765,
      "duration": 0.0618,
      "velocity": 127,
      "chip": "ym2612"
    },
    {
      "channel": 1,
      "note": 52,
      "start": 18.7905,
      "duration": 0.1186,
      "velocity": 97,
      "chip": "ym2612"
    },
    {
      "channel": 0,
      "note": 79,
      "start": 18.9089,
      "duration": 0.1127,
      "velocity": 109,
      "chip": "ym2612"
    },
    {
      "channel": 1,
      "note": 52,
      "start": 18.9096,
      "duration": 0.1128,
      "velocity": 97,
      "chip": "ym2612"
    },
    {
      "channel": 3,
      "note": 74,
      "start": 18.9104,
      "duration": 0.1127,
      "velocity": 106,
      "chip": "ym2612"
    },
    {
      "channel": 4,
      "note": 71,
      "start": 18.9111,
      "duration": 0.2284,
      "velocity": 106,
      "chip": "ym2612"
    },
    {
      "channel": 5,
      "note": 67,
      "start": 18.9119,
      "duration": 0.228,
      "velocity": 106,
      "chip": "ym2612"
    },
    {
      "channel": 2,
      "note": 94,
      "start": 18.9129,
      "duration": 0.059,
      "velocity": 127,
      "chip": "ym2612"
    },
    {
      "channel": 0,
      "note": 76,
      "start": 19.0222,
      "duration": 0.1155,
      "velocity": 109,
      "chip": "ym2612"
    },
    {
      "channel": 1,
      "note": 52,
      "start": 19.023,
      "duration": 0.1155,
      "velocity": 97,
      "chip": "ym2612"
    },
    {
      "channel": 3,
      "note": 73,
      "start": 19.0237,
      "duration": 0.1155,
      "velocity": 106,
      "chip": "ym2612"
    },
    {
      "channel": 0,
      "note": 81,
      "start": 19.1384,
      "duration": 0.1184,
      "velocity": 109,
      "chip": "ym2612"
    },
    {
      "channel": 1,
      "note": 52,
      "start": 19.1391,
      "duration": 0.1184,
      "velocity": 97,
      "chip": "ym2612"
    },
    {
      "channel": 0,
      "note": 76,
      "start": 19.2574,
      "duration": 0.1165,
      "velocity": 109,
      "chip": "ym2612"
    },
    {
      "channel": 1,
      "note": 52,
      "start": 19.2581,
      "duration": 0.1166,
      "velocity": 97,
      "chip": "ym2612"
    },
    {
      "channel": 2,
      "note": 86,
      "start": 19.2593,
      "duration": 0.0583,
      "velocity": 127,
      "chip": "ym2612"
    },
    {
      "channel": 0,
      "note": 83,
      "start": 19.3744,
      "duration": 0.113,
      "velocity": 109,
      "chip": "ym2612"
    },
    {
      "channel": 1,
      "note": 52,
      "start": 19.3752,
      "duration": 0.113,
      "velocity": 97,
      "chip": "ym2612"
    },
    {
      "channel": 2,
      "note": 94,
      "start": 19.3765,
      "duration": 0.0571,
      "velocity": 127,
      "chip": "ym2612"
    },
    {
      "channel": 0,
      "note": 76,
      "start": 19.488,
      "duration": 0.2345,
      "velocity": 109,
      "chip": "ym2612"
    },
    {
      "channel": 1,
      "note": 52,
      "start": 19.4888,
      "duration": 0.118,
      "velocity": 97,
      "chip": "ym2612"
    },
    {
      "channel": 1,
      "note": 50,
      "start": 19.6073,
      "duration": 0.1158,
      "velocity": 97,
      "chip": "ym2612"
    },
    {
      "channel": 2,
      "note": 86,
      "start": 19.6095,
      "duration": 0.0625,
      "velocity": 127,
      "chip": "ym2612"
    },
    {
      "channel": 0,
      "note": 76,
      "start": 19.723,
      "duration": 0.1183,
      "velocity": 109,
      "chip": "ym2612"
    },
    {
      "channel": 1,
      "note": 52,
      "start": 19.7237,
      "duration": 0.1184,
      "velocity": 97,
      "chip": "ym2612"
    },
    {
      "channel": 0,
      "note": 79,
      "start": 19.8419,
      "duration": 0.1127,
      "velocity": 109,
      "chip": "ym2612"
    },
    {
      "channel": 1,
      "note": 52,
      "start": 19.8427,
      "duration": 0.1127,
      "velocity": 97,
      "chip": "ym2612"
    },
    {
      "channel": 3,
      "note": 74,
      "start": 19.8434,
      "duration": 0.1127,
      "velocity": 106,
      "chip": "ym2612"
    },
    {
      "channel": 4,
      "note": 71,
      "start": 19.8442,
      "duration": 0.2284,
      "velocity": 106,
      "chip": "ym2612"
    },
    {
      "channel": 5,
      "note": 67,
      "start": 19.845,
      "duration": 0.228,
      "velocity": 106,
      "chip": "ym2612"
    },
    {
      "channel": 2,
      "note": 94,
      "start": 19.846,
      "duration": 0.0589,
      "velocity": 127,
      "chip": "ym2612"
    },
    {
      "channel": 0,
      "note": 76,
      "start": 19.9552,
      "duration": 0.1156,
      "velocity": 109,
      "chip": "ym2612"
    },
    {
      "channel": 1,
      "note": 52,
      "start": 19.9559,
      "duration": 0.1156,
      "velocity": 97,
      "chip": "ym2612"
    },
    {
      "channel": 3,
      "note": 73,
      "start": 19.9567,
      "duration": 0.1156,
      "velocity": 106,
      "chip": "ym2612"
    },
    {
      "channel": 0,
      "note": 81,
      "start": 20.0715,
      "duration": 0.1186,
      "velocity": 109,
      "chip": "ym2612"
    },
    {
      "channel": 1,
      "note": 52,
      "start": 20.0721,
      "duration": 0.1186,
      "velocity": 97,
      "chip": "ym2612"
    },
    {
      "channel": 0,
      "note": 76,
      "start": 20.1907,
      "duration": 0.1161,
      "velocity": 109,
      "chip": "ym2612"
    },
    {
      "channel": 1,
      "note": 52,
      "start": 20.1914,
      "duration": 0.1161,
      "velocity": 97,
      "chip": "ym2612"
    },
    {
      "channel": 2,
      "note": 86,
      "start": 20.1926,
      "duration": 0.0579,
      "velocity": 127,
      "chip": "ym2612"
    },
    {
      "channel": 0,
      "note": 83,
      "start": 20.3074,
      "duration": 0.113,
      "velocity": 109,
      "chip": "ym2612"
    },
    {
      "channel": 1,
      "note": 52,
      "start": 20.3081,
      "duration": 0.1131,
      "velocity": 97,
      "chip": "ym2612"
    },
    {
      "channel": 2,
      "note": 94,
      "start": 20.3094,
      "duration": 0.0571,
      "velocity": 127,
      "chip": "ym2612"
    },
    {
      "channel": 0,
      "note": 76,
      "start": 20.421,
      "duration": 0.1182,
      "velocity": 109,
      "chip": "ym2612"
    },
    {
      "channel": 1,
      "note": 52,
      "start": 20.4218,
      "duration": 0.1183,
      "velocity": 97,
      "chip": "ym2612"
    },
    {
      "channel": 0,
      "note": 76,
      "start": 20.5398,
      "duration": 0.2346,
      "velocity": 109,
      "chip": "ym2612"
    },
    {
      "channel": 1,
      "note": 50,
      "start": 20.5407,
      "duration": 0.1152,
      "velocity": 97,
      "chip": "ym2612"
    },
    {
      "channel": 2,
      "note": 86,
      "start": 20.5429,
      "duration": 0.0625,
      "velocity": 127,
      "chip": "ym2612"
    },
    {
      "channel": 1,
      "note": 52,
      "start": 20.6564,
      "duration": 0.1187,
      "velocity": 97,
      "chip": "ym2612"
    },
    {
      "channel": 0,
      "note": 79,
      "start": 20.7749,
      "duration": 0.1175,
      "velocity": 109,
      "chip": "ym2612"
    },
    {
      "channel": 1,
      "note": 52,
      "start": 20.7757,
      "duration": 0.1174,
      "velocity": 97,
      "chip": "ym2612"
    },
    {
      "channel": 3,
      "note": 74,
      "start": 20.7765,
      "duration": 0.1174,
      "velocity": 106,
      "chip": "ym2612"
    },
    {
      "channel": 4,
      "note": 71,
      "start": 20.7772,
      "duration": 0.2331,
      "velocity": 106,
      "chip": "ym2612"
    },
    {
      "channel": 5,
      "note": 67,
      "start": 20.778,
      "duration": 0.2327,
      "velocity": 106,
      "chip": "ym2612"
    },
    {
      "channel": 2,
      "note": 94,
      "start": 20.779,
      "duration": 0.0622,
      "velocity": 127,
      "chip": "ym2612"
    },
    {
      "channel": 0,
      "note": 76,
      "start": 20.893,
      "duration": 0.1155,
      "velocity": 109,
      "chip": "ym2612"
    },
    {
      "channel": 1,
      "note": 52,
      "start": 20.8937,
      "duration": 0.1156,
      "velocity": 97,
      "chip": "ym2612"
    },
    {
      "channel": 3,
      "note": 73,
      "start": 20.8945,
      "duration": 0.1155,
      "velocity": 106,
      "chip": "ym2612"
    },
    {
      "channel": 0,
      "note": 81,
      "start": 21.0092,
      "duration": 0.118,
      "velocity": 109,
      "chip": "ym2612"
    },
    {
      "channel": 1,
      "note": 52,
      "start": 21.0099,
      "duration": 0.118,
      "velocity": 97,
      "chip": "ym2612"
    },
    {
      "channel": 0,
      "note": 76,
      "start": 21.1277,
      "duration": 0.1155,
      "velocity": 109,
      "chip": "ym2612"
    },
    {
      "channel": 1,
      "note": 52,
      "start": 21.1284,
      "duration": 0.1155,
      "velocity": 97,
      "chip": "ym2612"
    },
    {
      "channel": 2,
      "note": 86,
      "start": 21.1296,
      "duration": 0.0588,
      "velocity": 127,
      "chip": "ym2612"
    },
    {
      "channel": 0,
      "note": 83,
      "start": 21.2438,
      "duration": 0.1128,
      "velocity": 109,
      "chip": "ym2612"
    },
    {
      "channel": 1,
      "note": 52,
      "start": 21.2445,
      "duration": 0.1128,
      "velocity": 97,
      "chip": "ym2612"
    },
    {
      "channel": 2,
      "note": 94,
      "start": 21.2459,
      "duration": 0.0592,
      "velocity": 127,
      "chip": "ym2612"
    },
    {
      "channel": 0,
      "note": 76,
      "start": 21.3572,
      "duration": 0.1182,
      "velocity": 109,
      "chip": "ym2612"
    },
    {
      "channel": 1,
      "note": 52,
      "start": 21.3579,
      "duration": 0.1183,
      "velocity": 97,
      "chip": "ym2612"
    },
    {
      "channel": 0,
      "note": 79,
      "start": 21.476,
      "duration": 0.1126,
      "velocity": 109,
      "chip": "ym2612"
    },
    {
      "channel": 1,
      "note": 55,
      "start": 21.4768,
      "duration": 0.2312,
      "velocity": 97,
      "chip": "ym2612"
    },
    {
      "channel": 2,
      "note": 86,
      "start": 21.479,
      "duration": 0.059,
      "velocity": 127,
      "chip": "ym2612"
    },
    {
      "channel": 0,
      "note": 78,
      "start": 21.5891,
      "duration": 0.1181,
      "velocity": 109,
      "chip": "ym2612"
    },
    {
      "channel": 0,
      "note": 76,
      "start": 21.7078,
      "duration": 0.1128,
      "velocity": 109,
      "chip": "ym2612"
    },
    {
      "channel": 1,
      "note": 55,
      "start": 21.7085,
      "duration": 0.1129,
      "velocity": 97,
      "chip": "ym2612"
    },
    {
      "channel": 3,
      "note": 79,
      "start": 21.7092,
      "duration": 0.1129,
      "velocity": 106,
      "chip": "ym2612"
    },
    {
      "channel": 4,
      "note": 74,
      "start": 21.71,
      "duration": 0.1129,
      "velocity": 106,
      "chip": "ym2612"
    },
    {
      "channel": 5,
      "note": 71,
      "start": 21.7107,
      "duration": 0.1129,
      "velocity": 106,
      "chip": "ym2612"
    },
    {
      "channel": 2,
      "note": 94,
      "start": 21.7118,
      "duration": 0.059,
      "velocity": 127,
      "chip": "ym2612"
    },
    {
      "channel": 0,
      "note": 74,
      "start": 21.8212,
      "duration": 0.5839,
      "velocity": 109,
      "chip": "ym2612"
    },
    {
      "channel": 1,
      "note": 54,
      "start": 21.822,
      "duration": 0.2351,
      "velocity": 97,
      "chip": "ym2612"
    },
    {
      "channel": 3,
      "note": 78,
      "start": 21.8228,
      "duration": 0.3512,
      "velocity": 106,
      "chip": "ym2612"
    },
    {
      "channel": 4,
      "note": 74,
      "start": 21.8235,
      "duration": 0.3508,
      "velocity": 106,
      "chip": "ym2612"
    },
    {
      "channel": 5,
      "note": 69,
      "start": 21.8243,
      "duration": 0.3503,
      "velocity": 106,
      "chip": "ym2612"
    },
    {
      "channel": 1,
      "note": 54,
      "start": 22.0576,
      "duration": 0.1158,
      "velocity": 97,
      "chip": "ym2612"
    },
    {
      "channel": 2,
      "note": 86,
      "start": 22.0596,
      "duration": 0.0578,
      "velocity": 127,
      "chip": "ym2612"
    },
    {
      "channel": 1,
      "note": 54,
      "start": 22.1738,
      "duration": 0.2317,
      "velocity": 97,
      "chip": "ym2612"
    },
    {
      "channel": 2,
      "note": 94,
      "start": 22.1758,
      "duration": 0.0566,
      "velocity": 127,
      "chip": "ym2612"
    },
    {
      "channel": 1,
      "note": 59,
      "start": 22.4061,
      "duration": 0.1161,
      "velocity": 97,
      "chip": "ym2612"
    },
    {
      "channel": 3,
      "note": 71,
      "start": 22.4068,
      "duration": 0.1162,
      "velocity": 106,
      "chip": "ym2612"
    },
    {
      "channel": 4,
      "note": 66,
      "start": 22.4076,
      "duration": 0.116,
      "velocity": 106,
      "chip": "ym2612"
    },
    {
      "channel": 5,
      "note": 63,
      "start": 22.4083,
      "duration": 0.1158,
      "velocity": 106,
      "chip": "ym2612"
    },
    {
      "channel": 2,
      "note": 86,
      "start": 22.4093,
      "duration": 0.0625,
      "velocity": 127,
      "chip": "ym2612"
    },
    {
      "channel": 0,
      "note": 75,
      "start": 22.4641,
      "duration": 0.0574,
      "velocity": 109,
      "chip": "ym2612"
    },
    {
      "channel": 0,
      "note": 78,
      "start": 22.5221,
      "duration": 0.0574,
      "velocity": 109,
      "chip": "ym2612"
    },
    {
      "channel": 1,
      "note": 59,
      "start": 22.5228,
      "duration": 0.1178,
      "velocity": 97,
      "chip": "ym2612"
    },
    {
      "channel": 3,
      "note": 71,
      "start": 22.5234,
      "duration": 0.1179,
      "velocity": 106,
      "chip": "ym2612"
    },
    {
      "channel": 4,
      "note": 66,
      "start": 22.524,
      "duration": 0.1179,
      "velocity": 106,
      "chip": "ym2612"
    },
    {
      "channel": 5,
      "note": 63,
      "start": 22.5246,
      "duration": 0.1179,
      "velocity": 106,
      "chip": "ym2612"
    },
    {
      "channel": 0,
      "note": 83,
      "start": 22.5802,
      "duration": 0.0601,
      "velocity": 109,
      "chip": "ym2612"
    },
    {
      "channel": 1,
      "note": 59,
      "start": 22.6412,
      "duration": 0.1136,
      "velocity": 97,
      "chip": "ym2612"
    },
    {
      "channel": 3,
      "note": 71,
      "start": 22.6417,
      "duration": 0.1137,
      "velocity": 106,
      "chip": "ym2612"
    },
    {
      "channel": 4,
      "note": 66,
      "start": 22.6424,
      "duration": 0.1137,
      "velocity": 106,
      "chip": "ym2612"
    },
    {
      "channel": 5,
      "note": 63,
      "start": 22.6429,
      "duration": 0.1137,
      "velocity": 106,
      "chip": "ym2612"
    },
    {
      "channel": 2,
      "note": 94,
      "start": 22.644,
      "duration": 0.0598,
      "velocity": 127,
      "chip": "ym2612"
    },
    {
      "channel": 0,
      "note": 78,
      "start": 22.6961,
      "duration": 0.0579,
      "velocity": 109,
      "chip": "ym2612"
    },
    {
      "channel": 0,
      "note": 83,
      "start": 22.7546,
      "duration": 0.057,
      "velocity": 109,
      "chip": "ym2612"
    },
    {
      "channel": 1,
      "note": 59,
      "start": 22.7554,
      "duration": 0.1158,
      "velocity": 97,
      "chip": "ym2612"
    },
    {
      "channel": 3,
      "note": 71,
      "start": 22.7559,
      "duration": 0.116,
      "velocity": 106,
      "chip": "ym2612"
    },
    {
      "channel": 4,
      "note": 66,
      "start": 22.7566,
      "duration": 0.1159,
      "velocity": 106,
      "chip": "ym2612"
    },
    {
      "channel": 5,
      "note": 63,
      "start": 22.7571,
      "duration": 0.116,
      "velocity": 106,
      "chip": "ym2612"
    },
    {
      "channel": 0,
      "note": 87,
      "start": 22.8122,
      "duration": 0.0586,
      "velocity": 109,
      "chip": "ym2612"
    },
    {
      "channel": 1,
      "note": 59,
      "start": 22.8717,
      "duration": 0.119,
      "velocity": 97,
      "chip": "ym2612"
    },
    {
      "channel": 3,
      "note": 71,
      "start": 22.8723,
      "duration": 0.119,
      "velocity": 106,
      "chip": "ym2612"
    },
    {
      "channel": 4,
      "note": 66,
      "start": 22.8729,
      "duration": 0.1191,
      "velocity": 106,
      "chip": "ym2612"
    },
    {
      "channel": 5,
      "note": 63,
      "start": 22.8735,
      "duration": 0.119,
      "velocity": 106,
      "chip": "ym2612"
    },
    {
      "channel": 0,
      "note": 83,
      "start": 22.9281,
      "duration": 0.0618,
      "velocity": 109,
      "chip": "ym2612"
    },
    {
      "channel": 0,
      "note": 87,
      "start": 22.9905,
      "duration": 0.0579,
      "velocity": 109,
      "chip": "ym2612"
    },
    {
      "channel": 1,
      "note": 59,
      "start": 22.9912,
      "duration": 0.1182,
      "velocity": 97,
      "chip": "ym2612"
    },
    {
      "channel": 3,
      "note": 71,
      "start": 22.9918,
      "duration": 0.1184,
      "velocity": 106,
      "chip": "ym2612"
    },
    {
      "channel": 4,
      "note": 66,
      "start": 22.9924,
      "duration": 0.1183,
      "velocity": 106,
      "chip": "ym2612"
    },
    {
      "channel": 5,
      "note": 63,
      "start": 22.993,
      "duration": 0.1184,
      "velocity": 106,
      "chip": "ym2612"
    },
    {
      "channel": 2,
      "note": 86,
      "start": 22.994,
      "duration": 0.0622,
      "velocity": 127,
      "chip": "ym2612"
    },
    {
      "channel": 0,
      "note": 90,
      "start": 23.049,
      "duration": 0.0601,
      "velocity": 109,
      "chip": "ym2612"
    },
    {
      "channel": 1,
      "note": 59,
      "start": 23.11,
      "duration": 0.1133,
      "velocity": 97,
      "chip": "ym2612"
    },
    {
      "channel": 3,
      "note": 71,
      "start": 23.1106,
      "duration": 0.1134,
      "velocity": 106,
      "chip": "ym2612"
    },
    {
      "channel": 4,
      "note": 66,
      "start": 23.1112,
      "duration": 0.1134,
      "velocity": 106,
      "chip": "ym2612"
    },
    {
      "channel": 5,
      "note": 63,
      "start": 23.1118,
      "duration": 0.1134,
      "velocity": 106,
      "chip": "ym2612"
    },
    {
      "channel": 2,
      "note": 94,
      "start": 23.1129,
      "duration": 0.0596,
      "velocity": 127,
      "chip": "ym2612"
    },
    {
      "channel": 0,
      "note": 90,
      "start": 23.165,
      "duration": 0.0575,
      "velocity": 109,
      "chip": "ym2612"
    },
    {
      "channel": 0,
      "note": 94,
      "start": 23.2231,
      "duration": 0.0577,
      "velocity": 109,
      "chip": "ym2612"
    },
    {
      "channel": 1,
      "note": 59,
      "start": 23.2239,
      "duration": 0.1178,
      "velocity": 97,
      "chip": "ym2612"
    },
    {
      "channel": 3,
      "note": 71,
      "start": 23.2244,
      "duration": 0.118,
      "velocity": 106,
      "chip": "ym2612"
    },
    {
      "channel": 4,
      "note": 66,
      "start": 23.2251,
      "duration": 0.118,
      "velocity": 106,
      "chip": "ym2612"
    },
    {
      "channel": 5,
      "note": 63,
      "start": 23.2256,
      "duration": 0.1179,
      "velocity": 106,
      "chip": "ym2612"
    },
    {
      "channel": 0,
      "note": 95,
      "start": 23.2814,
      "duration": 0.0599,
      "velocity": 109,
      "chip": "ym2612"
    },
    {
      "channel": 1,
      "note": 59,
      "start": 23.3422,
      "duration": 0.1129,
      "velocity": 97,
      "chip": "ym2612"
    },
    {
      "channel": 3,
      "note": 71,
      "start": 23.3428,
      "duration": 0.1131,
      "velocity": 106,
      "chip": "ym2612"
    },
    {
      "channel": 4,
      "note": 66,
      "start": 23.3434,
      "duration": 0.113,
      "velocity": 106,
      "chip": "ym2612"
    },
    {
      "channel": 5,
      "note": 63,
      "start": 23.344,
      "duration": 0.1131,
      "velocity": 106,
      "chip": "ym2612"
    },
    {
      "channel": 2,
      "note": 86,
      "start": 23.345,
      "duration": 0.0598,
      "velocity": 127,
      "chip": "ym2612"
    },
    {
      "channel": 0,
      "note": 95,
      "start": 23.3971,
      "duration": 0.0573,
      "velocity": 109,
      "chip": "ym2612"
    },
    {
      "channel": 0,
      "note": 99,
      "start": 23.455,
      "duration": 0.0574,
      "velocity": 109,
      "chip": "ym2612"
    },
    {
      "channel": 1,
      "note": 59,
      "start": 23.4557,
      "duration": 0.1184,
      "velocity": 97,
      "chip": "ym2612"
    },
    {
      "channel": 3,
      "note": 71,
      "start": 23.4564,
      "duration": 0.1184,
      "velocity": 106,
      "chip": "ym2612"
    },
    {
      "channel": 4,
      "note": 66,
      "start": 23.4569,
      "duration": 0.1185,
      "velocity": 106,
      "chip": "ym2612"
    },
    {
      "channel": 5,
      "note": 63,
      "start": 23.4576,
      "duration": 0.1185,
      "velocity": 106,
      "chip": "ym2612"
    },
    {
      "channel": 0,
      "note": 102,
      "start": 23.513,
      "duration": 0.0607,
      "velocity": 109,
      "chip": "ym2612"
    },
    {
      "channel": 1,
      "note": 59,
      "start": 23.5747,
      "duration": 0.1134,
      "velocity": 97,
      "chip": "ym2612"
    },
    {
      "channel": 3,
      "note": 71,
      "start": 23.5753,
      "duration": 0.1136,
      "velocity": 106,
      "chip": "ym2612"
    },
    {
      "channel": 4,
      "note": 66,
      "start": 23.5759,
      "duration": 0.1137,
      "velocity": 106,
      "chip": "ym2612"
    },
    {
      "channel": 5,
      "note": 63,
      "start": 23.5765,
      "duration": 0.1139,
      "velocity": 106,
      "chip": "ym2612"
    },
    {
      "channel": 2,
      "note": 94,
      "start": 23.5776,
      "duration": 0.0576,
      "velocity": 127,
      "chip": "ym2612"
    },
    {
      "channel": 0,
      "note": 102,
      "start": 23.6291,
      "duration": 0.0582,
      "velocity": 109,
      "chip": "ym2612"
    },
    {
      "channel": 0,
      "note": 103,
      "start": 23.688,
      "duration": 0.0565,
      "velocity": 109,
      "chip": "ym2612"
    },
    {
      "channel": 1,
      "note": 60,
      "start": 23.6887,
      "duration": 0.2351,
      "velocity": 97,
      "chip": "ym2612"
    },
    {
      "channel": 3,
      "note": 72,
      "start": 23.6895,
      "duration": 0.5861,
      "velocity": 106,
      "chip": "ym2612"
    },
    {
      "channel": 4,
      "note": 67,
      "start": 23.6903,
      "duration": 0.5863,
      "velocity": 106,
      "chip": "ym2612"
    },
    {
      "channel": 5,
      "note": 64,
      "start": 23.691,
      "duration": 0.5863,
      "velocity": 106,
      "chip": "ym2612"
    },
    {
      "channel": 0,
      "note": 108,
      "start": 23.7451,
      "duration": 0.0591,
      "velocity": 109,
      "chip": "ym2612"
    },
    {
      "channel": 0,
      "note": 100,
      "start": 23.8611,
      "duration": 0.0618,
      "velocity": 109,
      "chip": "ym2612"
    },
    {
      "channel": 0,
      "note": 103,
      "start": 23.9236,
      "duration": 0.0578,
      "velocity": 109,
      "chip": "ym2612"
    },
    {
      "channel": 1,
      "note": 60,
      "start": 23.9242,
      "duration": 0.1183,
      "velocity": 97,
      "chip": "ym2612"
    },
    {
      "channel": 2,
      "note": 86,
      "start": 23.9261,
      "duration": 0.063,
      "velocity": 127,
      "chip": "ym2612"
    },
    {
      "channel": 0,
      "note": 108,
      "start": 23.982,
      "duration": 0.0601,
      "velocity": 109,
      "chip": "ym2612"
    },
    {
      "channel": 1,
      "note": 60,
      "start": 24.0429,
      "duration": 0.1134,
      "velocity": 97,
      "chip": "ym2612"
    },
    {
      "channel": 2,
      "note": 94,
      "start": 24.045,
      "duration": 0.0607,
      "velocity": 127,
      "chip": "ym2612"
    },
    {
      "channel": 0,
      "note": 100,
      "start": 24.098,
      "duration": 0.0574,
      "velocity": 109,
      "chip": "ym2612"
    },
    {
      "channel": 0,
      "note": 103,
      "start": 24.1561,
      "duration": 0.0573,
      "velocity": 109,
      "chip": "ym2612"
    },
    {
      "channel": 1,
      "note": 60,
      "start": 24.1567,
      "duration": 0.1181,
      "velocity": 97,
      "chip": "ym2612"
    },
    {
      "channel": 0,
      "note": 108,
      "start": 24.214,
      "duration": 0.0604,
      "velocity": 109,
      "chip": "ym2612"
    },
    {
      "channel": 1,
      "note": 59,
      "start": 24.2754,
      "duration": 0.1176,
      "velocity": 97,
      "chip": "ym2612"
    },
    {
      "channel": 3,
      "note": 71,
      "start": 24.2763,
      "duration": 0.1174,
      "velocity": 106,
      "chip": "ym2612"
    },
    {
      "channel": 4,
      "note": 66,
      "start": 24.2771,
      "duration": 0.1174,
      "velocity": 106,
      "chip": "ym2612"
    },
    {
      "channel": 5,
      "note": 63,
      "start": 24.2779,
      "duration": 0.1173,
      "velocity": 106,
      "chip": "ym2612"
    },
    {
      "channel": 2,
      "note": 86,
      "start": 24.279,
      "duration": 0.0631,
      "velocity": 127,
      "chip": "ym2612"
    },
    {
      "channel": 0,
      "note": 75,
      "start": 24.3348,
      "duration": 0.0574,
      "velocity": 109,
      "chip": "ym2612"
    },
    {
      "channel": 0,
      "note": 78,
      "start": 24.3928,
      "duration": 0.0574,
      "velocity": 109,
      "chip": "ym2612"
    },
    {
      "channel": 1,
      "note": 59,
      "start": 24.3936,
      "duration": 0.1178,
      "velocity": 97,
      "chip": "ym2612"
    },
    {
      "channel": 3,
      "note": 71,
      "start": 24.3943,
      "duration": 0.1178,
      "velocity": 106,
      "chip": "ym2612"
    },
    {
      "channel": 4,
      "note": 66,
      "start": 24.395,
      "duration": 0.1178,
      "velocity": 106,
      "chip": "ym2612"
    },
    {
      "channel": 5,
      "note": 63,
      "start": 24.3957,
      "duration": 0.1179,
      "velocity": 106,
      "chip": "ym2612"
    },
    {
      "channel": 0,
      "note": 81,
      "start": 24.4508,
      "duration": 0.0602,
      "velocity": 109,
      "chip": "ym2612"
    },
    {
      "channel": 1,
      "note": 59,
      "start": 24.512,
      "duration": 0.1131,
      "velocity": 97,
      "chip": "ym2612"
    },
    {
      "channel": 3,
      "note": 71,
      "start": 24.5127,
      "duration": 0.113,
      "velocity": 106,
      "chip": "ym2612"
    },
    {
      "channel": 4,
      "note": 66,
      "start": 24.5134,
      "duration": 0.1131,
      "velocity": 106,
      "chip": "ym2612"
    },
    {
      "channel": 5,
      "note": 63,
      "start": 24.5141,
      "duration": 0.1132,
      "velocity": 106,
      "chip": "ym2612"
    },
    {
      "channel": 2,
      "note": 94,
      "start": 24.5151,
      "duration": 0.059,
      "velocity": 127,
      "chip": "ym2612"
    },
    {
      "channel": 0,
      "note": 78,
      "start": 24.5669,
      "duration": 0.0574,
      "velocity": 109,
      "chip": "ym2612"
    },
    {
      "channel": 0,
      "note": 83,
      "start": 24.6249,
      "duration": 0.0574,
      "velocity": 109,
      "chip": "ym2612"
    },
    {
      "channel": 1,
      "note": 59,
      "start": 24.6256,
      "duration": 0.1151,
      "velocity": 97,
      "chip": "ym2612"
    },
    {
      "channel": 3,
      "note": 71,
      "start": 24.6263,
      "duration": 0.1152,
      "velocity": 106,
      "chip": "ym2612"
    },
    {
      "channel": 4,
      "note": 66,
      "start": 24.6271,
      "duration": 0.1151,
      "velocity": 106,
      "chip": "ym2612"
    },
    {
      "channel": 5,
      "note": 63,
      "start": 24.6277,
      "duration": 0.1154,
      "velocity": 106,
      "chip": "ym2612"
    },
    {
      "channel": 0,
      "note": 87,
      "start": 24.6829,
      "duration": 0.0576,
      "velocity": 109,
      "chip": "ym2612"
    },
    {
      "channel": 1,
      "note": 59,
      "start": 24.7414,
      "duration": 0.1184,
      "velocity": 97,
      "chip": "ym2612"
    },
    {
      "channel": 3,
      "note": 71,
      "start": 24.7421,
      "duration": 0.1185,
      "velocity": 106,
      "chip": "ym2612"
    },
    {
      "channel": 4,
      "note": 66,
      "start": 24.7428,
      "duration": 0.1185,
      "velocity": 106,
      "chip": "ym2612"
    },
    {
      "channel": 5,
      "note": 63,
      "start": 24.7434,
      "duration": 0.1186,
      "velocity": 106,
      "chip": "ym2612"
    },
    {
      "channel": 0,
      "note": 83,
      "start": 24.7989,
      "duration": 0.0601,
      "velocity": 109,
      "chip": "ym2612"
    },
    {
      "channel": 0,
      "note": 87,
      "start": 24.8597,
      "duration": 0.0547,
      "velocity": 109,
      "chip": "ym2612"
    },
    {
      "channel": 1,
      "note": 59,
      "start": 24.8604,
      "duration": 0.1151,
      "velocity": 97,
      "chip": "ym2612"
    },
    {
      "channel": 3,
      "note": 71,
      "start": 24.8611,
      "duration": 0.1151,
      "velocity": 106,
      "chip": "ym2612"
    },
    {
      "channel": 4,
      "note": 66,
      "start": 24.8618,
      "duration": 0.1151,
      "velocity": 106,
      "chip": "ym2612"
    },
    {
      "channel": 5,
      "note": 63,
      "start": 24.8625,
      "duration": 0.1152,
      "velocity": 106,
      "chip": "ym2612"
    },
    {
      "channel": 2,
      "note": 86,
      "start": 24.8634,
      "duration": 0.059,
      "velocity": 127,
      "chip": "ym2612"
    },
    {
      "channel": 0,
      "note": 90,
      "start": 24.915,
      "duration": 0.0602,
      "velocity": 109,
      "chip": "ym2612"
    },
    {
      "channel": 1,
      "note": 59,
      "start": 24.9761,
      "duration": 0.1131,
      "velocity": 97,
      "chip": "ym2612"
    },
    {
      "channel": 3,
      "note": 71,
      "start": 24.9768,
      "duration": 0.1132,
      "velocity": 106,
      "chip": "ym2612"
    },
    {
      "channel": 4,
      "note": 66,
      "start": 24.9776,
      "duration": 0.1132,
      "velocity": 106,
      "chip": "ym2612"
    },
    {
      "channel": 5,
      "note": 63,
      "start": 24.9781,
      "duration": 0.1134,
      "velocity": 106,
      "chip": "ym2612"
    },
    {
      "channel": 2,
      "note": 94,
      "start": 24.9792,
      "duration": 0.0594,
      "velocity": 127,
      "chip": "ym2612"
    },
    {
      "channel": 0,
      "note": 90,
      "start": 25.031,
      "duration": 0.0575,
      "velocity": 109,
      "chip": "ym2612"
    },
    {
      "channel": 0,
      "note": 91,
      "start": 25.0891,
      "duration": 0.0574,
      "velocity": 109,
      "chip": "ym2612"
    },
    {
      "channel": 1,
      "note": 60,
      "start": 25.0898,
      "duration": 0.2316,
      "velocity": 97,
      "chip": "ym2612"
    },
    {
      "channel": 3,
      "note": 72,
      "start": 25.0906,
      "duration": 0.1174,
      "velocity": 106,
      "chip": "ym2612"
    },
    {
      "channel": 4,
      "note": 67,
      "start": 25.0913,
      "duration": 0.1174,
      "velocity": 106,
      "chip": "ym2612"
    },
    {
      "channel": 5,
      "note": 64,
      "start": 25.092,
      "duration": 0.1174,
      "velocity": 106,
      "chip": "ym2612"
    },
    {
      "channel": 0,
      "note": 96,
      "start": 25.147,
      "duration": 0.0602,
      "velocity": 109,
      "chip": "ym2612"
    },
    {
      "channel": 3,
      "note": 72,
      "start": 25.2086,
      "duration": 0.1134,
      "velocity": 106,
      "chip": "ym2612"
    },
    {
      "channel": 4,
      "note": 67,
      "start": 25.2094,
      "duration": 0.1134,
      "velocity": 106,
      "chip": "ym2612"
    },
    {
      "channel": 5,
      "note": 64,
      "start": 25.2101,
      "duration": 0.1134,
      "velocity": 106,
      "chip": "ym2612"
    },
    {
      "channel": 2,
      "note": 86,
      "start": 25.2111,
      "duration": 0.0596,
      "velocity": 127,
      "chip": "ym2612"
    },
    {
      "channel": 0,
      "note": 91,
      "start": 25.263,
      "duration": 0.0576,
      "velocity": 109,
      "chip": "ym2612"
    },
    {
      "channel": 0,
      "note": 96,
      "start": 25.3212,
      "duration": 0.0573,
      "velocity": 109,
      "chip": "ym2612"
    },
    {
      "channel": 1,
      "note": 60,
      "start": 25.3219,
      "duration": 0.1185,
      "velocity": 97,
      "chip": "ym2612"
    },
    {
      "channel": 3,
      "note": 72,
      "start": 25.3226,
      "duration": 0.1184,
      "velocity": 106,
      "chip": "ym2612"
    },
    {
      "channel": 4,
      "note": 67,
      "start": 25.3234,
      "duration": 0.1184,
      "velocity": 106,
      "chip": "ym2612"
    },
    {
      "channel": 5,
      "note": 64,
      "start": 25.3241,
      "duration": 0.1184,
      "velocity": 106,
      "chip": "ym2612"
    },
    {
      "channel": 0,
      "note": 98,
      "start": 25.3791,
      "duration": 0.061,
      "velocity": 109,
      "chip": "ym2612"
    },
    {
      "channel": 1,
      "note": 60,
      "start": 25.4408,
      "duration": 0.1172,
      "velocity": 97,
      "chip": "ym2612"
    },
    {
      "channel": 3,
      "note": 72,
      "start": 25.4416,
      "duration": 0.1172,
      "velocity": 106,
      "chip": "ym2612"
    },
    {
      "channel": 4,
      "note": 67,
      "start": 25.4423,
      "duration": 0.1173,
      "velocity": 106,
      "chip": "ym2612"
    },
    {
      "channel": 5,
      "note": 64,
      "start": 25.4431,
      "duration": 0.1173,
      "velocity": 106,
      "chip": "ym2612"
    },
    {
      "channel": 2,
      "note": 94,
      "start": 25.4441,
      "duration": 0.0627,
      "velocity": 127,
      "chip": "ym2612"
    },
    {
      "channel": 0,
      "note": 96,
      "start": 25.4999,
      "duration": 0.0574,
      "velocity": 109,
      "chip": "ym2612"
    },
    {
      "channel": 0,
      "note": 98,
      "start": 25.558,
      "duration": 0.0574,
      "velocity": 109,
      "chip": "ym2612"
    },
    {
      "channel": 1,
      "note": 62,
      "start": 25.5587,
      "duration": 0.2342,
      "velocity": 97,
      "chip": "ym2612"
    },
    {
      "channel": 3,
      "note": 74,
      "start": 25.5594,
      "duration": 0.1147,
      "velocity": 106,
      "chip": "ym2612"
    },
    {
      "channel": 4,
      "note": 69,
      "start": 25.5602,
      "duration": 0.1147,
      "velocity": 106,
      "chip": "ym2612"
    },
    {
      "channel": 5,
      "note": 66,
      "start": 25.5609,
      "duration": 0.1147,
      "velocity": 106,
      "chip": "ym2612"
    },
    {
      "channel": 0,
      "note": 102,
      "start": 25.616,
      "duration": 0.0575,
      "velocity": 109,
      "chip": "ym2612"
    },
    {
      "channel": 3,
      "note": 74,
      "start": 25.6747,
      "duration": 0.1188,
      "velocity": 106,
      "chip": "ym2612"
    },
    {
      "channel": 4,
      "note": 69,
      "start": 25.6754,
      "duration": 0.1188,
      "velocity": 106,
      "chip": "ym2612"
    },
    {
      "channel": 5,
      "note": 66,
      "start": 25.6761,
      "duration": 0.1188,
      "velocity": 106,
      "chip": "ym2612"
    },
    {
      "channel": 0,
      "note": 98,
      "start": 25.7319,
      "duration": 0.0602,
      "velocity": 109,
      "chip": "ym2612"
    },
    {
      "channel": 0,
      "note": 102,
      "start": 25.7927,
      "duration": 0.0546,
      "velocity": 109,
      "chip": "ym2612"
    },
    {
      "channel": 1,
      "note": 62,
      "start": 25.7933,
      "duration": 0.1151,
      "velocity": 97,
      "chip": "ym2612"
    },
    {
      "channel": 3,
      "note": 74,
      "start": 25.7941,
      "duration": 0.1149,
      "velocity": 106,
      "chip": "ym2612"
    },
    {
      "channel": 4,
      "note": 69,
      "start": 25.7949,
      "duration": 0.1149,
      "velocity": 106,
      "chip": "ym2612"
    },
    {
      "channel": 5,
      "note": 66,
      "start": 25.7956,
      "duration": 0.1149,
      "velocity": 106,
      "chip": "ym2612"
    },
    {
      "channel": 2,
      "note": 86,
      "start": 25.7966,
      "duration": 0.0591,
      "velocity": 127,
      "chip": "ym2612"
    },
    {
      "channel": 0,
      "note": 105,
      "start": 25.848,
      "duration": 0.0601,
      "velocity": 109,
      "chip": "ym2612"
    },
    {
      "channel": 1,
      "note": 62,
      "start": 25.9088,
      "duration": 0.1134,
      "velocity": 97,
      "chip": "ym2612"
    },
    {
      "channel": 3,
      "note": 74,
      "start": 25.9096,
      "duration": 0.1133,
      "velocity": 106,
      "chip": "ym2612"
    },
    {
      "channel": 4,
      "note": 69,
      "start": 25.9103,
      "duration": 0.1133,
      "velocity": 106,
      "chip": "ym2612"
    },
    {
      "channel": 5,
      "note": 66,
      "start": 25.9111,
      "duration": 0.1133,
      "velocity": 106,
      "chip": "ym2612"
    },
    {
      "channel": 2,
      "note": 94,
      "start": 25.9121,
      "duration": 0.0595,
      "velocity": 127,
      "chip": "ym2612"
    },
    {
      "channel": 0,
      "note": 102,
      "start": 25.9639,
      "duration": 0.0576,
      "velocity": 109,
      "chip": "ym2612"
    },
    {
      "channel": 0,
      "note": 105,
      "start": 26.0221,
      "duration": 0.0572,
      "velocity": 109,
      "chip": "ym2612"
    },
    {
      "channel": 1,
      "note": 62,
      "start": 26.0227,
      "duration": 0.121,
      "velocity": 97,
      "chip": "ym2612"
    },
    {
      "channel": 3,
      "note": 74,
      "start": 26.0235,
      "duration": 0.1211,
      "velocity": 106,
      "chip": "ym2612"
    },
    {
      "channel": 4,
      "note": 69,
      "start": 26.0242,
      "duration": 0.1212,
      "velocity": 106,
      "chip": "ym2612"
    },
    {
      "channel": 5,
      "note": 66,
      "start": 26.0249,
      "duration": 0.1213,
      "velocity": 106,
      "chip": "ym2612"
    },
    {
      "channel": 0,
      "note": 110,
      "start": 26.08,
      "duration": 0.0629,
      "velocity": 95,
      "chip": "ym2612"
    },
    {
      "channel": 0,
      "note": 76,
      "start": 26.1435,
      "duration": 0.6978,
      "velocity": 95,
      "chip": "ym2612"
    },
    {
      "channel": 1,
      "note": 64,
      "start": 26.1443,
      "duration": 0.1144,
      "velocity": 97,
      "chip": "ym2612"
    },
    {
      "channel": 3,
      "note": 67,
      "start": 26.1452,
      "duration": 0.0559,
      "velocity": 106,
      "chip": "ym2612"
    },
    {
      "channel": 4,
      "note": 76,
      "start": 26.146,
      "duration": 0.0559,
      "velocity": 106,
      "chip": "ym2612"
    },
    {
      "channel": 5,
      "note": 76,
      "start": 26.1469,
      "duration": 0.6976,
      "velocity": 106,
      "chip": "ym2612"
    },
    {
      "channel": 2,
      "note": 86,
      "start": 26.1478,
      "duration": 0.0605,
      "velocity": 127,
      "chip": "ym2612"
    },
    {
      "channel": 3,
      "note": 71,
      "start": 26.2017,
      "duration": 0.0576,
      "velocity": 106,
      "chip": "ym2612"
    },
    {
      "channel": 4,
      "note": 71,
      "start": 26.2041,
      "duration": 0.056,
      "velocity": 106,
      "chip": "ym2612"
    },
    {
      "channel": 1,
      "note": 64,
      "start": 26.2591,
      "duration": 0.1184,
      "velocity": 97,
      "chip": "ym2612"
    },
    {
      "channel": 3,
      "note": 76,
      "start": 26.2599,
      "duration": 0.0572,
      "velocity": 106,
      "chip": "ym2612"
    },
    {
      "channel": 4,
      "note": 67,
      "start": 26.2606,
      "duration": 0.0572,
      "velocity": 106,
      "chip": "ym2612"
    },
    {
      "channel": 3,
      "note": 71,
      "start": 26.3176,
      "duration": 0.0606,
      "velocity": 106,
      "chip": "ym2612"
    },
    {
      "channel": 4,
      "note": 71,
      "start": 26.3184,
      "duration": 0.0606,
      "velocity": 106,
      "chip": "ym2612"
    },
    {
      "channel": 1,
      "note": 64,
      "start": 26.3779,
      "duration": 0.113,
      "velocity": 97,
      "chip": "ym2612"
    },
    {
      "channel": 3,
      "note": 67,
      "start": 26.3788,
      "duration": 0.0544,
      "velocity": 106,
      "chip": "ym2612"
    },
    {
      "channel": 4,
      "note": 76,
      "start": 26.3796,
      "duration": 0.0542,
      "velocity": 106,
      "chip": "ym2612"
    },
    {
      "channel": 2,
      "note": 94,
      "start": 26.381,
      "duration": 0.0591,
      "velocity": 127,
      "chip": "ym2612"
    },
    {
      "channel": 3,
      "note": 71,
      "start": 26.4337,
      "duration": 0.0579,
      "velocity": 106,
      "chip": "ym2612"
    },
    {
      "channel": 4,
      "note": 71,
      "start": 26.4345,
      "duration": 0.0579,
      "velocity": 106,
      "chip": "ym2612"
    },
    {
      "channel": 1,
      "note": 64,
      "start": 26.4914,
      "duration": 0.1158,
      "velocity": 97,
      "chip": "ym2612"
    },
    {
      "channel": 3,
      "note": 76,
      "start": 26.4922,
      "duration": 0.0569,
      "velocity": 106,
      "chip": "ym2612"
    },
    {
      "channel": 4,
      "note": 67,
      "start": 26.4929,
      "duration": 0.0569,
      "velocity": 106,
      "chip": "ym2612"
    },
    {
      "channel": 3,
      "note": 71,
      "start": 26.5497,
      "duration": 0.0581,
      "velocity": 106,
      "chip": "ym2612"
    },
    {
      "channel": 4,
      "note": 71,
      "start": 26.5505,
      "duration": 0.0583,
      "velocity": 106,
      "chip": "ym2612"
    },
    {
      "channel": 1,
      "note": 64,
      "start": 26.6076,
      "duration": 0.1181,
      "velocity": 97,
      "chip": "ym2612"
    },
    {
      "channel": 3,
      "note": 67,
      "start": 26.6085,
      "duration": 0.0567,
      "velocity": 106,
      "chip": "ym2612"
    },
    {
      "channel": 4,
      "note": 76,
      "start": 26.6093,
      "duration": 0.0566,
      "velocity": 106,
      "chip": "ym2612"
    },
    {
      "channel": 3,
      "note": 71,
      "start": 26.6657,
      "duration": 0.0607,
      "velocity": 106,
      "chip": "ym2612"
    },
    {
      "channel": 4,
      "note": 71,
      "start": 26.6665,
      "duration": 0.0606,
      "velocity": 106,
      "chip": "ym2612"
    },
    {
      "channel": 1,
      "note": 64,
      "start": 26.7262,
      "duration": 0.116,
      "velocity": 97,
      "chip": "ym2612"
    },
    {
      "channel": 3,
      "note": 76,
      "start": 26.727,
      "duration": 0.0542,
      "velocity": 106,
      "chip": "ym2612"
    },
    {
      "channel": 4,
      "note": 67,
      "start": 26.7277,
      "duration": 0.0543,
      "velocity": 106,
      "chip": "ym2612"
    },
    {
      "channel": 2,
      "note": 86,
      "start": 26.729,
      "duration": 0.0598,
      "velocity": 127,
      "chip": "ym2612"
    },
    {
      "channel": 3,
      "note": 71,
      "start": 26.7817,
      "duration": 0.0611,
      "velocity": 106,
      "chip": "ym2612"
    },
    {
      "channel": 4,
      "note": 71,
      "start": 26.7825,
      "duration": 0.0612,
      "velocity": 106,
      "chip": "ym2612"
    },
    {
      "channel": 0,
      "note": 74,
      "start": 26.842,
      "duration": 0.1173,
      "velocity": 95,
      "chip": "ym2612"
    },
    {
      "channel": 1,
      "note": 64,
      "start": 26.8427,
      "duration": 0.1175,
      "velocity": 97,
      "chip": "ym2612"
    },
    {
      "channel": 3,
      "note": 67,
      "start": 26.8435,
      "duration": 0.06,
      "velocity": 106,
      "chip": "ym2612"
    },
    {
      "channel": 4,
      "note": 76,
      "start": 26.8443,
      "duration": 0.06,
      "velocity": 106,
      "chip": "ym2612"
    },
    {
      "channel": 5,
      "note": 74,
      "start": 26.8451,
      "duration": 0.1171,
      "velocity": 106,
      "chip": "ym2612"
    },
    {
      "channel": 2,
      "note": 94,
      "start": 26.8462,
      "duration": 0.0632,
      "velocity": 127,
      "chip": "ym2612"
    },
    {
      "channel": 3,
      "note": 71,
      "start": 26.9042,
      "duration": 0.0566,
      "velocity": 106,
      "chip": "ym2612"
    },
    {
      "channel": 4,
      "note": 71,
      "start": 26.9049,
      "duration": 0.0566,
      "velocity": 106,
      "chip": "ym2612"
    },
    {
      "channel": 0,
      "note": 76,
      "start": 26.96,
      "duration": 0.118,
      "velocity": 95,
      "chip": "ym2612"
    },
    {
      "channel": 1,
      "note": 64,
      "start": 26.9606,
      "duration": 0.1182,
      "velocity": 97,
      "chip": "ym2612"
    },
    {
      "channel": 3,
      "note": 76,
      "start": 26.9613,
      "duration": 0.0569,
      "velocity": 106,
      "chip": "ym2612"
    },
    {
      "channel": 4,
      "note": 67,
      "start": 26.9621,
      "duration": 0.0585,
      "velocity": 106,
      "chip": "ym2612"
    },
    {
      "channel": 5,
      "note": 76,
      "start": 26.9629,
      "duration": 0.1186,
      "velocity": 106,
      "chip": "ym2612"
    },
    {
      "channel": 3,
      "note": 71,
      "start": 27.0205,
      "duration": 0.0593,
      "velocity": 106,
      "chip": "ym2612"
    },
    {
      "channel": 4,
      "note": 71,
      "start": 27.0212,
      "duration": 0.0595,
      "velocity": 106,
      "chip": "ym2612"
    },
    {
      "channel": 0,
      "note": 78,
      "start": 27.0787,
      "duration": 0.7114,
      "velocity": 95,
      "chip": "ym2612"
    },
    {
      "channel": 1,
      "note": 62,
      "start": 27.0795,
      "duration": 0.1171,
      "velocity": 97,
      "chip": "ym2612"
    },
    {
      "channel": 3,
      "note": 66,
      "start": 27.0804,
      "duration": 0.0587,
      "velocity": 106,
      "chip": "ym2612"
    },
    {
      "channel": 4,
      "note": 74,
      "start": 27.0813,
      "duration": 0.0586,
      "velocity": 106,
      "chip": "ym2612"
    },
    {
      "channel": 5,
      "note": 78,
      "start": 27.0821,
      "duration": 0.7112,
      "velocity": 106,
      "chip": "ym2612"
    },
    {
      "channel": 2,
      "note": 86,
      "start": 27.0831,
      "duration": 0.0618,
      "velocity": 127,
      "chip": "ym2612"
    },
    {
      "channel": 3,
      "note": 69,
      "start": 27.1397,
      "duration": 0.0574,
      "velocity": 106,
      "chip": "ym2612"
    },
    {
      "channel": 4,
      "note": 69,
      "start": 27.1405,
      "duration": 0.0575,
      "velocity": 106,
      "chip": "ym2612"
    },
    {
      "channel": 1,
      "note": 62,
      "start": 27.197,
      "duration": 0.1182,
      "velocity": 97,
      "chip": "ym2612"
    },
    {
      "channel": 3,
      "note": 74,
      "start": 27.1978,
      "duration": 0.0571,
      "velocity": 106,
      "chip": "ym2612"
    },
    {
      "channel": 4,
      "note": 64,
      "start": 27.1985,
      "duration": 0.0572,
      "velocity": 106,
      "chip": "ym2612"
    },
    {
      "channel": 3,
      "note": 69,
      "start": 27.2555,
      "duration": 0.0604,
      "velocity": 106,
      "chip": "ym2612"
    },
    {
      "channel": 4,
      "note": 69,
      "start": 27.2563,
      "duration": 0.0605,
      "velocity": 106,
      "chip": "ym2612"
    },
    {
      "channel": 1,
      "note": 62,
      "start": 27.3156,
      "duration": 0.1177,
      "velocity": 97,
      "chip": "ym2612"
    },
    {
      "channel": 3,
      "note": 66,
      "start": 27.3166,
      "duration": 0.0592,
      "velocity": 106,
      "chip": "ym2612"
    },
    {
      "channel": 4,
      "note": 74,
      "start": 27.3174,
      "duration": 0.0592,
      "velocity": 106,
      "chip": "ym2612"
    },
    {
      "channel": 2,
      "note": 94,
      "start": 27.3204,
      "duration": 0.0612,
      "velocity": 127,
      "chip": "ym2612"
    },
    {
      "channel": 3,
      "note": 69,
      "start": 27.3763,
      "duration": 0.0576,
      "velocity": 106,
      "chip": "ym2612"
    },
    {
      "channel": 4,
      "note": 69,
      "start": 27.3771,
      "duration": 0.0576,
      "velocity": 106,
      "chip": "ym2612"
    },
    {
      "channel": 1,
      "note": 62,
      "start": 27.4338,
      "duration": 0.1158,
      "velocity": 97,
      "chip": "ym2612"
    },
    {
      "channel": 3,
      "note": 74,
      "start": 27.4345,
      "duration": 0.0571,
      "velocity": 106,
      "chip": "ym2612"
    },
    {
      "channel": 4,
      "note": 64,
      "start": 27.4353,
      "duration": 0.0571,
      "velocity": 106,
      "chip": "ym2612"
    },
    {
      "channel": 3,
      "note": 69,
      "start": 27.4923,
      "duration": 0.0579,
      "velocity": 106,
      "chip": "ym2612"
    },
    {
      "channel": 4,
      "note": 69,
      "start": 27.4931,
      "duration": 0.0581,
      "velocity": 106,
      "chip": "ym2612"
    },
    {
      "channel": 1,
      "note": 62,
      "start": 27.5501,
      "duration": 0.1182,
      "velocity": 97,
      "chip": "ym2612"
    },
    {
      "channel": 3,
      "note": 66,
      "start": 27.5509,
      "duration": 0.0572,
      "velocity": 106,
      "chip": "ym2612"
    },
    {
      "channel": 4,
      "note": 74,
      "start": 27.5517,
      "duration": 0.0571,
      "velocity": 106,
      "chip": "ym2612"
    },
    {
      "channel": 3,
      "note": 69,
      "start": 27.6087,
      "duration": 0.0618,
      "velocity": 106,
      "chip": "ym2612"
    },
    {
      "channel": 4,
      "note": 69,
      "start": 27.6094,
      "duration": 0.0618,
      "velocity": 106,
      "chip": "ym2612"
    },
    {
      "channel": 1,
      "note": 62,
      "start": 27.6703,
      "duration": 0.1207,
      "velocity": 97,
      "chip": "ym2612"
    },
    {
      "channel": 3,
      "note": 74,
      "start": 27.6711,
      "duration": 0.0576,
      "velocity": 106,
      "chip": "ym2612"
    },
    {
      "channel": 4,
      "note": 64,
      "start": 27.6718,
      "duration": 0.0576,
      "velocity": 106,
      "chip": "ym2612"
    },
    {
      "channel": 2,
      "note": 86,
      "start": 27.6731,
      "duration": 0.0616,
      "velocity": 127,
      "chip": "ym2612"
    },
    {
      "channel": 3,
      "note": 69,
      "start": 27.7292,
      "duration": 0.0625,
      "velocity": 106,
      "chip": "ym2612"
    },
    {
      "channel": 4,
      "note": 69,
      "start": 27.73,
      "duration": 0.0625,
      "velocity": 106,
      "chip": "ym2612"
    },
    {
      "channel": 0,
      "note": 76,
      "start": 27.7908,
      "duration": 0.1162,
      "velocity": 95,
      "chip": "ym2612"
    },
    {
      "channel": 1,
      "note": 62,
      "start": 27.7914,
      "duration": 0.1166,
      "velocity": 97,
      "chip": "ym2612"
    },
    {
      "channel": 3,
      "note": 66,
      "start": 27.7922,
      "duration": 0.0573,
      "velocity": 106,
      "chip": "ym2612"
    },
    {
      "channel": 4,
      "note": 74,
      "start": 27.7931,
      "duration": 0.0571,
      "velocity": 106,
      "chip": "ym2612"
    },
    {
      "channel": 5,
      "note": 76,
      "start": 27.7939,
      "duration": 0.1161,
      "velocity": 106,
      "chip": "ym2612"
    },
    {
      "channel": 2,
      "note": 94,
      "start": 27.7949,
      "duration": 0.0616,
      "velocity": 127,
      "chip": "ym2612"
    },
    {
      "channel": 3,
      "note": 69,
      "start": 27.8501,
      "duration": 0.0585,
      "velocity": 106,
      "chip": "ym2612"
    },
    {
      "channel": 4,
      "note": 69,
      "start": 27.8508,
      "duration": 0.0585,
      "velocity": 106,
      "chip": "ym2612"
    },
    {
      "channel": 0,
      "note": 78,
      "start": 27.9078,
      "duration": 0.1181,
      "velocity": 95,
      "chip": "ym2612"
    },
    {
      "channel": 1,
      "note": 62,
      "start": 27.9084,
      "duration": 0.1183,
      "velocity": 97,
      "chip": "ym2612"
    },
    {
      "channel": 3,
      "note": 74,
      "start": 27.9091,
      "duration": 0.0564,
      "velocity": 106,
      "chip": "ym2612"
    },
    {
      "channel": 4,
      "note": 64,
      "start": 27.9099,
      "duration": 0.0564,
      "velocity": 106,
      "chip": "ym2612"
    },
    {
      "channel": 5,
      "note": 78,
      "start": 27.9106,
      "duration": 0.1185,
      "velocity": 106,
      "chip": "ym2612"
    },
    {
      "channel": 3,
      "note": 69,
      "start": 27.9661,
      "duration": 0.0615,
      "velocity": 106,
      "chip": "ym2612"
    },
    {
      "channel": 4,
      "note": 69,
      "start": 27.9669,
      "duration": 0.0615,
      "velocity": 106,
      "chip": "ym2612"
    },
    {
      "channel": 0,
      "note": 79,
      "start": 28.0265,
      "duration": 0.9323,
      "velocity": 95,
      "chip": "ym2612"
    },
    {
      "channel": 1,
      "note": 60,
      "start": 28.0273,
      "duration": 0.1167,
      "velocity": 97,
      "chip": "ym2612"
    },
    {
      "channel": 3,
      "note": 64,
      "start": 28.0281,
      "duration": 0.0597,
      "velocity": 106,
      "chip": "ym2612"
    },
    {
      "channel": 4,
      "note": 60,
      "start": 28.029,
      "duration": 0.0597,
      "velocity": 106,
      "chip": "ym2612"
    },
    {
      "channel": 5,
      "note": 79,
      "start": 28.0297,
      "duration": 0.9326,
      "velocity": 106,
      "chip": "ym2612"
    },
    {
      "channel": 2,
      "note": 86,
      "start": 28.0307,
      "duration": 0.0629,
      "velocity": 127,
      "chip": "ym2612"
    },
    {
      "channel": 3,
      "note": 67,
      "start": 28.0885,
      "duration": 0.0561,
      "velocity": 106,
      "chip": "ym2612"
    },
    {
      "channel": 4,
      "note": 67,
      "start": 28.0892,
      "duration": 0.0561,
      "velocity": 106,
      "chip": "ym2612"
    },
    {
      "channel": 1,
      "note": 60,
      "start": 28.1444,
      "duration": 0.1186,
      "velocity": 97,
      "chip": "ym2612"
    },
    {
      "channel": 3,
      "note": 72,
      "start": 28.1452,
      "duration": 0.0588,
      "velocity": 106,
      "chip": "ym2612"
    },
    {
      "channel": 4,
      "note": 64,
      "start": 28.1459,
      "duration": 0.0588,
      "velocity": 106,
      "chip": "ym2612"
    },
    {
      "channel": 3,
      "note": 67,
      "start": 28.2046,
      "duration": 0.0591,
      "velocity": 106,
      "chip": "ym2612"
    },
    {
      "channel": 4,
      "note": 67,
      "start": 28.2053,
      "duration": 0.0592,
      "velocity": 106,
      "chip": "ym2612"
    },
    {
      "channel": 1,
      "note": 60,
      "start": 28.2634,
      "duration": 0.1126,
      "velocity": 97,
      "chip": "ym2612"
    },
    {
      "channel": 3,
      "note": 64,
      "start": 28.2643,
      "duration": 0.0541,
      "velocity": 106,
      "chip": "ym2612"
    },
    {
      "channel": 4,
      "note": 60,
      "start": 28.2651,
      "duration": 0.0556,
      "velocity": 106,
      "chip": "ym2612"
    },
    {
      "channel": 2,
      "note": 94,
      "start": 28.2666,
      "duration": 0.0588,
      "velocity": 127,
      "chip": "ym2612"
    },
    {
      "channel": 3,
      "note": 67,
      "start": 28.3205,
      "duration": 0.0561,
      "velocity": 106,
      "chip": "ym2612"
    },
    {
      "channel": 4,
      "note": 67,
      "start": 28.3213,
      "duration": 0.056,
      "velocity": 106,
      "chip": "ym2612"
    },
    {
      "channel": 1,
      "note": 60,
      "start": 28.3765,
      "duration": 0.1157,
      "velocity": 97,
      "chip": "ym2612"
    },
    {
      "channel": 3,
      "note": 72,
      "start": 28.3772,
      "duration": 0.0572,
      "velocity": 106,
      "chip": "ym2612"
    },
    {
      "channel": 4,
      "note": 64,
      "start": 28.3779,
      "duration": 0.0573,
      "velocity": 106,
      "chip": "ym2612"
    },
    {
      "channel": 3,
      "note": 67,
      "start": 28.435,
      "duration": 0.0579,
      "velocity": 106,
      "chip": "ym2612"
    },
    {
      "channel": 4,
      "note": 67,
      "start": 28.4373,
      "duration": 0.0563,
      "velocity": 106,
      "chip": "ym2612"
    },
    {
      "channel": 1,
      "note": 60,
      "start": 28.4926,
      "duration": 0.1182,
      "velocity": 97,
      "chip": "ym2612"
    },
    {
      "channel": 3,
      "note": 64,
      "start": 28.4934,
      "duration": 0.057,
      "velocity": 106,
      "chip": "ym2612"
    },
    {
      "channel": 4,
      "note": 60,
      "start": 28.4943,
      "duration": 0.0568,
      "velocity": 106,
      "chip": "ym2612"
    },
    {
      "channel": 3,
      "note": 67,
      "start": 28.551,
      "duration": 0.0604,
      "velocity": 106,
      "chip": "ym2612"
    },
    {
      "channel": 4,
      "note": 67,
      "start": 28.5517,
      "duration": 0.0604,
      "velocity": 106,
      "chip": "ym2612"
    },
    {
      "channel": 1,
      "note": 60,
      "start": 28.6113,
      "duration": 0.1159,
      "velocity": 97,
      "chip": "ym2612"
    },
    {
      "channel": 3,
      "note": 72,
      "start": 28.612,
      "duration": 0.0544,
      "velocity": 106,
      "chip": "ym2612"
    },
    {
      "channel": 4,
      "note": 64,
      "start": 28.6127,
      "duration": 0.0544,
      "velocity": 106,
      "chip": "ym2612"
    },
    {
      "channel": 2,
      "note": 86,
      "start": 28.6141,
      "duration": 0.0594,
      "velocity": 127,
      "chip": "ym2612"
    },
    {
      "channel": 3,
      "note": 67,
      "start": 28.6669,
      "duration": 0.061,
      "velocity": 106,
      "chip": "ym2612"
    },
    {
      "channel": 4,
      "note": 67,
      "start": 28.6677,
      "duration": 0.061,
      "velocity": 106,
      "chip": "ym2612"
    },
    {
      "channel": 1,
      "note": 60,
      "start": 28.7276,
      "duration": 0.1129,
      "velocity": 97,
      "chip": "ym2612"
    },
    {
      "channel": 3,
      "note": 64,
      "start": 28.7284,
      "duration": 0.054,
      "velocity": 106,
      "chip": "ym2612"
    },
    {
      "channel": 4,
      "note": 60,
      "start": 28.7293,
      "duration": 0.0539,
      "velocity": 106,
      "chip": "ym2612"
    },
    {
      "channel": 2,
      "note": 94,
      "start": 28.7307,
      "duration": 0.0588,
      "velocity": 127,
      "chip": "ym2612"
    },
    {
      "channel": 3,
      "note": 67,
      "start": 28.783,
      "duration": 0.0581,
      "velocity": 106,
      "chip": "ym2612"
    },
    {
      "channel": 4,
      "note": 67,
      "start": 28.7838,
      "duration": 0.0581,
      "velocity": 106,
      "chip": "ym2612"
    },
    {
      "channel": 1,
      "note": 60,
      "start": 28.841,
      "duration": 0.1188,
      "velocity": 97,
      "chip": "ym2612"
    },
    {
      "channel": 3,
      "note": 72,
      "start": 28.8417,
      "duration": 0.0568,
      "velocity": 106,
      "chip": "ym2612"
    },
    {
      "channel": 4,
      "note": 64,
      "start": 28.8425,
      "duration": 0.0567,
      "velocity": 106,
      "chip": "ym2612"
    },
    {
      "channel": 3,
      "note": 67,
      "start": 28.899,
      "duration": 0.0615,
      "velocity": 106,
      "chip": "ym2612"
    },
    {
      "channel": 4,
      "note": 67,
      "start": 28.8998,
      "duration": 0.0616,
      "velocity": 106,
      "chip": "ym2612"
    },
    {
      "channel": 0,
      "note": 78,
      "start": 28.9595,
      "duration": 0.2357,
      "velocity": 95,
      "chip": "ym2612"
    },
    {
      "channel": 1,
      "note": 59,
      "start": 28.9603,
      "duration": 0.1167,
      "velocity": 97,
      "chip": "ym2612"
    },
    {
      "channel": 3,
      "note": 67,
      "start": 28.9612,
      "duration": 0.0597,
      "velocity": 106,
      "chip": "ym2612"
    },
    {
      "channel": 4,
      "note": 71,
      "start": 28.962,
      "duration": 0.0597,
      "velocity": 106,
      "chip": "ym2612"
    },
    {
      "channel": 5,
      "note": 78,
      "start": 28.9629,
      "duration": 0.2353,
      "velocity": 106,
      "chip": "ym2612"
    },
    {
      "channel": 2,
      "note": 86,
      "start": 28.9639,
      "duration": 0.0628,
      "velocity": 127,
      "chip": "ym2612"
    },
    {
      "channel": 3,
      "note": 66,
      "start": 29.0215,
      "duration": 0.0561,
      "velocity": 106,
      "chip": "ym2612"
    },
    {
      "channel": 4,
      "note": 66,
      "start": 29.0223,
      "duration": 0.0561,
      "velocity": 106,
      "chip": "ym2612"
    },
    {
      "channel": 1,
      "note": 59,
      "start": 29.0774,
      "duration": 0.1185,
      "velocity": 97,
      "chip": "ym2612"
    },
    {
      "channel": 3,
      "note": 71,
      "start": 29.0782,
      "duration": 0.0587,
      "velocity": 106,
      "chip": "ym2612"
    },
    {
      "channel": 4,
      "note": 64,
      "start": 29.079,
      "duration": 0.0587,
      "velocity": 106,
      "chip": "ym2612"
    },
    {
      "channel": 3,
      "note": 66,
      "start": 29.1375,
      "duration": 0.0591,
      "velocity": 106,
      "chip": "ym2612"
    },
    {
      "channel": 4,
      "note": 66,
      "start": 29.1382,
      "duration": 0.0592,
      "velocity": 106,
      "chip": "ym2612"
    },
    {
      "channel": 0,
      "note": 78,
      "start": 29.1958,
      "duration": 0.1176,
      "velocity": 95,
      "chip": "ym2612"
    },
    {
      "channel": 1,
      "note": 59,
      "start": 29.1964,
      "duration": 0.1179,
      "velocity": 97,
      "chip": "ym2612"
    },
    {
      "channel": 3,
      "note": 67,
      "start": 29.1971,
      "duration": 0.0596,
      "velocity": 106,
      "chip": "ym2612"
    },
    {
      "channel": 4,
      "note": 71,
      "start": 29.198,
      "duration": 0.0595,
      "velocity": 106,
      "chip": "ym2612"
    },
    {
      "channel": 5,
      "note": 78,
      "start": 29.1986,
      "duration": 0.1178,
      "velocity": 106,
      "chip": "ym2612"
    },
    {
      "channel": 2,
      "note": 94,
      "start": 29.1996,
      "duration": 0.0625,
      "velocity": 127,
      "chip": "ym2612"
    },
    {
      "channel": 3,
      "note": 66,
      "start": 29.2573,
      "duration": 0.0576,
      "velocity": 106,
      "chip": "ym2612"
    },
    {
      "channel": 4,
      "note": 66,
      "start": 29.258,
      "duration": 0.0576,
      "velocity": 106,
      "chip": "ym2612"
    },
    {
      "channel": 0,
      "note": 81,
      "start": 29.3141,
      "duration": 0.234,
      "velocity": 95,
      "chip": "ym2612"
    },
    {
      "channel": 1,
      "note": 59,
      "start": 29.3148,
      "duration": 0.1152,
      "velocity": 97,
      "chip": "ym2612"
    },
    {
      "channel": 3,
      "note": 71,
      "start": 29.3155,
      "duration": 0.0569,
      "velocity": 106,
      "chip": "ym2612"
    },
    {
      "channel": 4,
      "note": 64,
      "start": 29.3162,
      "duration": 0.0569,
      "velocity": 106,
      "chip": "ym2612"
    },
    {
      "channel": 5,
      "note": 81,
      "start": 29.317,
      "duration": 0.2341,
      "velocity": 106,
      "chip": "ym2612"
    },
    {
      "channel": 3,
      "note": 66,
      "start": 29.373,
      "duration": 0.0575,
      "velocity": 106,
      "chip": "ym2612"
    },
    {
      "channel": 4,
      "note": 66,
      "start": 29.3737,
      "duration": 0.0576,
      "velocity": 106,
      "chip": "ym2612"
    },
    {
      "channel": 1,
      "note": 59,
      "start": 29.4304,
      "duration": 0.1186,
      "velocity": 97,
      "chip": "ym2612"
    },
    {
      "channel": 3,
      "note": 67,
      "start": 29.4311,
      "duration": 0.0573,
      "velocity": 106,
      "chip": "ym2612"
    },
    {
      "channel": 4,
      "note": 71,
      "start": 29.432,
      "duration": 0.0571,
      "velocity": 106,
      "chip": "ym2612"
    },
    {
      "channel": 3,
      "note": 66,
      "start": 29.489,
      "duration": 0.0606,
      "velocity": 106,
      "chip": "ym2612"
    },
    {
      "channel": 4,
      "note": 66,
      "start": 29.4897,
      "duration": 0.0607,
      "velocity": 106,
      "chip": "ym2612"
    },
    {
      "channel": 0,
      "note": 79,
      "start": 29.5489,
      "duration": 0.2387,
      "velocity": 95,
      "chip": "ym2612"
    },
    {
      "channel": 1,
      "note": 59,
      "start": 29.5495,
      "duration": 0.1216,
      "velocity": 97,
      "chip": "ym2612"
    },
    {
      "channel": 3,
      "note": 71,
      "start": 29.5502,
      "duration": 0.0589,
      "velocity": 106,
      "chip": "ym2612"
    },
    {
      "channel": 4,
      "note": 64,
      "start": 29.551,
      "duration": 0.0589,
      "velocity": 106,
      "chip": "ym2612"
    },
    {
      "channel": 5,
      "note": 79,
      "start": 29.5517,
      "duration": 0.2387,
      "velocity": 106,
      "chip": "ym2612"
    },
    {
      "channel": 2,
      "note": 86,
      "start": 29.5543,
      "duration": 0.0608,
      "velocity": 127,
      "chip": "ym2612"
    },
    {
      "channel": 3,
      "note": 66,
      "start": 29.6097,
      "duration": 0.062,
      "velocity": 106,
      "chip": "ym2612"
    },
    {
      "channel": 4,
      "note": 66,
      "start": 29.6104,
      "duration": 0.0622,
      "velocity": 106,
      "chip": "ym2612"
    },
    {
      "channel": 1,
      "note": 59,
      "start": 29.6716,
      "duration": 0.1169,
      "velocity": 97,
      "chip": "ym2612"
    },
    {
      "channel": 3,
      "note": 66,
      "start": 29.6723,
      "duration": 0.0576,
      "velocity": 106,
      "chip": "ym2612"
    },
    {
      "channel": 4,
      "note": 71,
      "start": 29.6732,
      "duration": 0.0575,
      "velocity": 106,
      "chip": "ym2612"
    },
    {
      "channel": 2,
      "note": 94,
      "start": 29.6746,
      "duration": 0.063,
      "velocity": 127,
      "chip": "ym2612"
    },
    {
      "channel": 3,
      "note": 71,
      "start": 29.7305,
      "duration": 0.0585,
      "velocity": 106,
      "chip": "ym2612"
    },
    {
      "channel": 4,
      "note": 66,
      "start": 29.7312,
      "duration": 0.0585,
      "velocity": 106,
      "chip": "ym2612"
    },
    {
      "channel": 0,
      "note": 78,
      "start": 29.7882,
      "duration": 0.1188,
      "velocity": 95,
      "chip": "ym2612"
    },
    {
      "channel": 1,
      "note": 59,
      "start": 29.7889,
      "duration": 0.1191,
      "velocity": 97,
      "chip": "ym2612"
    },
    {
      "channel": 3,
      "note": 64,
      "start": 29.7896,
      "duration": 0.0564,
      "velocity": 106,
      "chip": "ym2612"
    },
    {
      "channel": 4,
      "note": 64,
      "start": 29.7903,
      "duration": 0.0563,
      "velocity": 106,
      "chip": "ym2612"
    },
    {
      "channel": 5,
      "note": 78,
      "start": 29.7911,
      "duration": 0.1195,
      "velocity": 106,
      "chip": "ym2612"
    },
    {
      "channel": 3,
      "note": 66,
      "start": 29.8465,
      "duration": 0.0623,
      "velocity": 106,
      "chip": "ym2612"
    },
    {
      "channel": 4,
      "note": 66,
      "start": 29.8472,
      "duration": 0.0625,
      "velocity": 106,
      "chip": "ym2612"
    },
    {
      "channel": 0,
      "note": 76,
      "start": 29.9077,
      "duration": 0.6995,
      "velocity": 95,
      "chip": "ym2612"
    },
    {
      "channel": 1,
      "note": 64,
      "start": 29.9085,
      "duration": 0.1161,
      "velocity": 97,
      "chip": "ym2612"
    },
    {
      "channel": 3,
      "note": 67,
      "start": 29.9094,
      "duration": 0.0574,
      "velocity": 106,
      "chip": "ym2612"
    },
    {
      "channel": 4,
      "note": 76,
      "start": 29.9104,
      "duration": 0.0572,
      "velocity": 106,
      "chip": "ym2612"
    },
    {
      "channel": 5,
      "note": 76,
      "start": 29.9113,
      "duration": 0.6991,
      "velocity": 106,
      "chip": "ym2612"
    },
    {
      "channel": 2,
      "note": 86,
      "start": 29.9122,
      "duration": 0.0616,
      "velocity": 127,
      "chip": "ym2612"
    },
    {
      "channel": 3,
      "note": 71,
      "start": 29.9674,
      "duration": 0.0578,
      "velocity": 106,
      "chip": "ym2612"
    },
    {
      "channel": 4,
      "note": 71,
      "start": 29.9682,
      "duration": 0.0578,
      "velocity": 106,
      "chip": "ym2612"
    },
    {
      "channel": 1,
      "note": 64,
      "start": 30.0251,
      "duration": 0.1185,
      "velocity": 97,
      "chip": "ym2612"
    },
    {
      "channel": 3,
      "note": 76,
      "start": 30.0258,
      "duration": 0.057,
      "velocity": 106,
      "chip": "ym2612"
    },
    {
      "channel": 4,
      "note": 67,
      "start": 30.0266,
      "duration": 0.057,
      "velocity": 106,
      "chip": "ym2612"
    },
    {
      "channel": 3,
      "note": 71,
      "start": 30.0835,
      "duration": 0.0607,
      "velocity": 106,
      "chip": "ym2612"
    },
    {
      "channel": 4,
      "note": 71,
      "start": 30.0842,
      "duration": 0.0608,
      "velocity": 106,
      "chip": "ym2612"
    },
    {
      "channel": 1,
      "note": 64,
      "start": 30.144,
      "duration": 0.1128,
      "velocity": 97,
      "chip": "ym2612"
    },
    {
      "channel": 3,
      "note": 67,
      "start": 30.1449,
      "duration": 0.054,
      "velocity": 106,
      "chip": "ym2612"
    },
    {
      "channel": 4,
      "note": 76,
      "start": 30.1457,
      "duration": 0.0539,
      "velocity": 106,
      "chip": "ym2612"
    },
    {
      "channel": 2,
      "note": 94,
      "start": 30.1471,
      "duration": 0.059,
      "velocity": 127,
      "chip": "ym2612"
    },
    {
      "channel": 3,
      "note": 71,
      "start": 30.1994,
      "duration": 0.058,
      "velocity": 106,
      "chip": "ym2612"
    },
    {
      "channel": 4,
      "note": 71,
      "start": 30.2002,
      "duration": 0.0579,
      "velocity": 106,
      "chip": "ym2612"
    },
    {
      "channel": 1,
      "note": 64,
      "start": 30.2572,
      "duration": 0.1159,
      "velocity": 97,
      "chip": "ym2612"
    },
    {
      "channel": 3,
      "note": 76,
      "start": 30.258,
      "duration": 0.0569,
      "velocity": 106,
      "chip": "ym2612"
    },
    {
      "channel": 4,
      "note": 67,
      "start": 30.2587,
      "duration": 0.0569,
      "velocity": 106,
      "chip": "ym2612"
    },
    {
      "channel": 3,
      "note": 71,
      "start": 30.3155,
      "duration": 0.0582,
      "velocity": 106,
      "chip": "ym2612"
    },
    {
      "channel": 4,
      "note": 71,
      "start": 30.3162,
      "duration": 0.0583,
      "velocity": 106,
      "chip": "ym2612"
    },
    {
      "channel": 1,
      "note": 64,
      "start": 30.3735,
      "duration": 0.1181,
      "velocity": 97,
      "chip": "ym2612"
    },
    {
      "channel": 3,
      "note": 67,
      "start": 30.3743,
      "duration": 0.0566,
      "velocity": 106,
      "chip": "ym2612"
    },
    {
      "channel": 4,
      "note": 76,
      "start": 30.3751,
      "duration": 0.0564,
      "velocity": 106,
      "chip": "ym2612"
    },
    {
      "channel": 3,
      "note": 71,
      "start": 30.4314,
      "duration": 0.0607,
      "velocity": 106,
      "chip": "ym2612"
    },
    {
      "channel": 4,
      "note": 71,
      "start": 30.4322,
      "duration": 0.0607,
      "velocity": 106,
      "chip": "ym2612"
    },
    {
      "channel": 1,
      "note": 64,
      "start": 30.492,
      "duration": 0.1161,
      "velocity": 97,
      "chip": "ym2612"
    },
    {
      "channel": 3,
      "note": 76,
      "start": 30.4927,
      "duration": 0.0541,
      "velocity": 106,
      "chip": "ym2612"
    },
    {
      "channel": 4,
      "note": 67,
      "start": 30.4934,
      "duration": 0.0542,
      "velocity": 106,
      "chip": "ym2612"
    },
    {
      "channel": 2,
      "note": 86,
      "start": 30.4948,
      "duration": 0.0597,
      "velocity": 127,
      "chip": "ym2612"
    },
    {
      "channel": 3,
      "note": 71,
      "start": 30.5475,
      "duration": 0.0613,
      "velocity": 106,
      "chip": "ym2612"
    },
    {
      "channel": 4,
      "note": 71,
      "start": 30.5482,
      "duration": 0.0614,
      "velocity": 106,
      "chip": "ym2612"
    },
    {
      "channel": 0,
      "note": 74,
      "start": 30.608,
      "duration": 0.1173,
      "velocity": 95,
      "chip": "ym2612"
    },
    {
      "channel": 1,
      "note": 64,
      "start": 30.6085,
      "duration": 0.1176,
      "velocity": 97,
      "chip": "ym2612"
    },
    {
      "channel": 3,
      "note": 67,
      "start": 30.6094,
      "duration": 0.0584,
      "velocity": 106,
      "chip": "ym2612"
    },
    {
      "channel": 4,
      "note": 76,
      "start": 30.6102,
      "duration": 0.0583,
      "velocity": 106,
      "chip": "ym2612"
    },
    {
      "channel": 5,
      "note": 74,
      "start": 30.611,
      "duration": 0.1172,
      "velocity": 106,
      "chip": "ym2612"
    },
    {
      "channel": 2,
      "note": 94,
      "start": 30.612,
      "duration": 0.0632,
      "velocity": 127,
      "chip": "ym2612"
    },
    {
      "channel": 3,
      "note": 71,
      "start": 30.6684,
      "duration": 0.0583,
      "velocity": 106,
      "chip": "ym2612"
    },
    {
      "channel": 4,
      "note": 71,
      "start": 30.6707,
      "duration": 0.0567,
      "velocity": 106,
      "chip": "ym2612"
    },
    {
      "channel": 0,
      "note": 76,
      "start": 30.726,
      "duration": 0.1179,
      "velocity": 95,
      "chip": "ym2612"
    },
    {
      "channel": 1,
      "note": 64,
      "start": 30.7266,
      "duration": 0.118,
      "velocity": 97,
      "chip": "ym2612"
    },
    {
      "channel": 3,
      "note": 76,
      "start": 30.7273,
      "duration": 0.0565,
      "velocity": 106,
      "chip": "ym2612"
    },
    {
      "channel": 4,
      "note": 67,
      "start": 30.728,
      "duration": 0.0565,
      "velocity": 106,
      "chip": "ym2612"
    },
    {
      "channel": 5,
      "note": 76,
      "start": 30.7288,
      "duration": 0.1185,
      "velocity": 106,
      "chip": "ym2612"
    },
    {
      "channel": 3,
      "note": 71,
      "start": 30.7844,
      "duration": 0.0612,
      "velocity": 106,
      "chip": "ym2612"
    },
    {
      "channel": 4,
      "note": 71,
      "start": 30.7852,
      "duration": 0.0614,
      "velocity": 106,
      "chip": "ym2612"
    },
    {
      "channel": 0,
      "note": 78,
      "start": 30.8445,
      "duration": 0.7115,
      "velocity": 95,
      "chip": "ym2612"
    },
    {
      "channel": 1,
      "note": 62,
      "start": 30.8453,
      "duration": 0.117,
      "velocity": 97,
      "chip": "ym2612"
    },
    {
      "channel": 3,
      "note": 69,
      "start": 30.8463,
      "duration": 0.0586,
      "velocity": 106,
      "chip": "ym2612"
    },
    {
      "channel": 4,
      "note": 78,
      "start": 30.8472,
      "duration": 0.0584,
      "velocity": 106,
      "chip": "ym2612"
    },
    {
      "channel": 5,
      "note": 78,
      "start": 30.848,
      "duration": 0.7112,
      "velocity": 106,
      "chip": "ym2612"
    },
    {
      "channel": 2,
      "note": 86,
      "start": 30.8489,
      "duration": 0.0617,
      "velocity": 127,
      "chip": "ym2612"
    },
    {
      "channel": 3,
      "note": 73,
      "start": 30.9054,
      "duration": 0.0574,
      "velocity": 106,
      "chip": "ym2612"
    },
    {
      "channel": 4,
      "note": 73,
      "start": 30.9062,
      "duration": 0.0574,
      "velocity": 106,
      "chip": "ym2612"
    },
    {
      "channel": 1,
      "note": 62,
      "start": 30.9627,
      "duration": 0.1183,
      "velocity": 97,
      "chip": "ym2612"
    },
    {
      "channel": 3,
      "note": 78,
      "start": 30.9635,
      "duration": 0.058,
      "velocity": 106,
      "chip": "ym2612"
    },
    {
      "channel": 4,
      "note": 69,
      "start": 30.9643,
      "duration": 0.0579,
      "velocity": 106,
      "chip": "ym2612"
    },
    {
      "channel": 3,
      "note": 73,
      "start": 31.0221,
      "duration": 0.0597,
      "velocity": 106,
      "chip": "ym2612"
    },
    {
      "channel": 4,
      "note": 73,
      "start": 31.0228,
      "duration": 0.0598,
      "velocity": 106,
      "chip": "ym2612"
    },
    {
      "channel": 1,
      "note": 62,
      "start": 31.0815,
      "duration": 0.1176,
      "velocity": 97,
      "chip": "ym2612"
    },
    {
      "channel": 3,
      "note": 69,
      "start": 31.0824,
      "duration": 0.0595,
      "velocity": 106,
      "chip": "ym2612"
    },
    {
      "channel": 4,
      "note": 78,
      "start": 31.0832,
      "duration": 0.0595,
      "velocity": 106,
      "chip": "ym2612"
    },
    {
      "channel": 2,
      "note": 94,
      "start": 31.0846,
      "duration": 0.0629,
      "velocity": 127,
      "chip": "ym2612"
    },
    {
      "channel": 3,
      "note": 73,
      "start": 31.1426,
      "duration": 0.0572,
      "velocity": 106,
      "chip": "ym2612"
    },
    {
      "channel": 4,
      "note": 73,
      "start": 31.1433,
      "duration": 0.0571,
      "velocity": 106,
      "chip": "ym2612"
    },
    {
      "channel": 1,
      "note": 62,
      "start": 31.1996,
      "duration": 0.1158,
      "velocity": 97,
      "chip": "ym2612"
    },
    {
      "channel": 3,
      "note": 78,
      "start": 31.2003,
      "duration": 0.0574,
      "velocity": 106,
      "chip": "ym2612"
    },
    {
      "channel": 4,
      "note": 69,
      "start": 31.2011,
      "duration": 0.0574,
      "velocity": 106,
      "chip": "ym2612"
    },
    {
      "channel": 3,
      "note": 73,
      "start": 31.2584,
      "duration": 0.0576,
      "velocity": 106,
      "chip": "ym2612"
    },
    {
      "channel": 4,
      "note": 73,
      "start": 31.2592,
      "duration": 0.0577,
      "velocity": 106,
      "chip": "ym2612"
    },
    {
      "channel": 1,
      "note": 62,
      "start": 31.3158,
      "duration": 0.1182,
      "velocity": 97,
      "chip": "ym2612"
    },
    {
      "channel": 3,
      "note": 69,
      "start": 31.3166,
      "duration": 0.0572,
      "velocity": 106,
      "chip": "ym2612"
    },
    {
      "channel": 4,
      "note": 78,
      "start": 31.3175,
      "duration": 0.0571,
      "velocity": 106,
      "chip": "ym2612"
    },
    {
      "channel": 3,
      "note": 73,
      "start": 31.3744,
      "duration": 0.0602,
      "velocity": 106,
      "chip": "ym2612"
    },
    {
      "channel": 4,
      "note": 73,
      "start": 31.3751,
      "duration": 0.0618,
      "velocity": 106,
      "chip": "ym2612"
    },
    {
      "channel": 1,
      "note": 62,
      "start": 31.4344,
      "duration": 0.1224,
      "velocity": 97,
      "chip": "ym2612"
    },
    {
      "channel": 3,
      "note": 78,
      "start": 31.4351,
      "duration": 0.0593,
      "velocity": 106,
      "chip": "ym2612"
    },
    {
      "channel": 4,
      "note": 69,
      "start": 31.4375,
      "duration": 0.0577,
      "velocity": 106,
      "chip": "ym2612"
    },
    {
      "channel": 2,
      "note": 86,
      "start": 31.4388,
      "duration": 0.0615,
      "velocity": 127,
      "chip": "ym2612"
    },
    {
      "channel": 3,
      "note": 73,
      "start": 31.495,
      "duration": 0.0625,
      "velocity": 106,
      "chip": "ym2612"
    },
    {
      "channel": 4,
      "note": 73,
      "start": 31.4957,
      "duration": 0.0627,
      "velocity": 106,
      "chip": "ym2612"
    },
    {
      "channel": 0,
      "note": 76,
      "start": 31.5567,
      "duration": 0.1161,
      "velocity": 95,
      "chip": "ym2612"
    },
    {
      "channel": 1,
      "note": 62,
      "start": 31.5573,
      "duration": 0.1163,
      "velocity": 97,
      "chip": "ym2612"
    },
    {
      "channel": 3,
      "note": 69,
      "start": 31.5581,
      "duration": 0.0571,
      "velocity": 106,
      "chip": "ym2612"
    },
    {
      "channel": 4,
      "note": 78,
      "start": 31.559,
      "duration": 0.0569,
      "velocity": 106,
      "chip": "ym2612"
    },
    {
      "channel": 5,
      "note": 76,
      "start": 31.5598,
      "duration": 0.1159,
      "velocity": 106,
      "chip": "ym2612"
    },
    {
      "channel": 2,
      "note": 94,
      "start": 31.5608,
      "duration": 0.0622,
      "velocity": 127,
      "chip": "ym2612"
    },
    {
      "channel": 3,
      "note": 73,
      "start": 31.6158,
      "duration": 0.0585,
      "velocity": 106,
      "chip": "ym2612"
    },
    {
      "channel": 4,
      "note": 73,
      "start": 31.6166,
      "duration": 0.0584,
      "velocity": 106,
      "chip": "ym2612"
    },
    {
      "channel": 0,
      "note": 78,
      "start": 31.6735,
      "duration": 0.1181,
      "velocity": 95,
      "chip": "ym2612"
    },
    {
      "channel": 1,
      "note": 62,
      "start": 31.6741,
      "duration": 0.1183,
      "velocity": 97,
      "chip": "ym2612"
    },
    {
      "channel": 3,
      "note": 78,
      "start": 31.6748,
      "duration": 0.0564,
      "velocity": 106,
      "chip": "ym2612"
    },
    {
      "channel": 4,
      "note": 69,
      "start": 31.6756,
      "duration": 0.0564,
      "velocity": 106,
      "chip": "ym2612"
    },
    {
      "channel": 5,
      "note": 78,
      "start": 31.6763,
      "duration": 0.1186,
      "velocity": 106,
      "chip": "ym2612"
    },
    {
      "channel": 3,
      "note": 73,
      "start": 31.7318,
      "duration": 0.0615,
      "velocity": 106,
      "chip": "ym2612"
    },
    {
      "channel": 4,
      "note": 73,
      "start": 31.7326,
      "duration": 0.0615,
      "velocity": 106,
      "chip": "ym2612"
    },
    {
      "channel": 0,
      "note": 79,
      "start": 31.7922,
      "duration": 0.9323,
      "velocity": 95,
      "chip": "ym2612"
    },
    {
      "channel": 1,
      "note": 60,
      "start": 31.793,
      "duration": 0.1167,
      "velocity": 97,
      "chip": "ym2612"
    },
    {
      "channel": 3,
      "note": 72,
      "start": 31.7938,
      "duration": 0.0598,
      "velocity": 106,
      "chip": "ym2612"
    },
    {
      "channel": 4,
      "note": 79,
      "start": 31.7947,
      "duration": 0.0597,
      "velocity": 106,
      "chip": "ym2612"
    },
    {
      "channel": 5,
      "note": 79,
      "start": 31.7955,
      "duration": 0.9326,
      "velocity": 106,
      "chip": "ym2612"
    },
    {
      "channel": 2,
      "note": 86,
      "start": 31.7964,
      "duration": 0.063,
      "velocity": 127,
      "chip": "ym2612"
    },
    {
      "channel": 3,
      "note": 74,
      "start": 31.8543,
      "duration": 0.0561,
      "velocity": 106,
      "chip": "ym2612"
    },
    {
      "channel": 4,
      "note": 74,
      "start": 31.855,
      "duration": 0.056,
      "velocity": 106,
      "chip": "ym2612"
    },
    {
      "channel": 1,
      "note": 60,
      "start": 31.9101,
      "duration": 0.1184,
      "velocity": 97,
      "chip": "ym2612"
    },
    {
      "channel": 3,
      "note": 79,
      "start": 31.9109,
      "duration": 0.0574,
      "velocity": 106,
      "chip": "ym2612"
    },
    {
      "channel": 4,
      "note": 72,
      "start": 31.9117,
      "duration": 0.059,
      "velocity": 106,
      "chip": "ym2612"
    },
    {
      "channel": 3,
      "note": 74,
      "start": 31.9705,
      "duration": 0.0587,
      "velocity": 106,
      "chip": "ym2612"
    },
    {
      "channel": 4,
      "note": 74,
      "start": 31.9712,
      "duration": 0.0588,
      "velocity": 106,
      "chip": "ym2612"
    },
    {
      "channel": 1,
      "note": 60,
      "start": 32.029,
      "duration": 0.1128,
      "velocity": 97,
      "chip": "ym2612"
    },
    {
      "channel": 3,
      "note": 72,
      "start": 32.0298,
      "duration": 0.0543,
      "velocity": 106,
      "chip": "ym2612"
    },
    {
      "channel": 4,
      "note": 79,
      "start": 32.0307,
      "duration": 0.0542,
      "velocity": 106,
      "chip": "ym2612"
    },
    {
      "channel": 2,
      "note": 94,
      "start": 32.0321,
      "duration": 0.0591,
      "velocity": 127,
      "chip": "ym2612"
    },
    {
      "channel": 3,
      "note": 74,
      "start": 32.0847,
      "duration": 0.0576,
      "velocity": 106,
      "chip": "ym2612"
    },
    {
      "channel": 4,
      "note": 74,
      "start": 32.0871,
      "duration": 0.056,
      "velocity": 106,
      "chip": "ym2612"
    },
    {
      "channel": 1,
      "note": 60,
      "start": 32.1422,
      "duration": 0.116,
      "velocity": 97,
      "chip": "ym2612"
    },
    {
      "channel": 3,
      "note": 79,
      "start": 32.1429,
      "duration": 0.0573,
      "velocity": 106,
      "chip": "ym2612"
    },
    {
      "channel": 4,
      "note": 72,
      "start": 32.1437,
      "duration": 0.0573,
      "velocity": 106,
      "chip": "ym2612"
    },
    {
      "channel": 3,
      "note": 74,
      "start": 32.2008,
      "duration": 0.0581,
      "velocity": 106,
      "chip": "ym2612"
    },
    {
      "channel": 4,
      "note": 74,
      "start": 32.2015,
      "duration": 0.0582,
      "velocity": 106,
      "chip": "ym2612"
    },
    {
      "channel": 1,
      "note": 60,
      "start": 32.2587,
      "duration": 0.1182,
      "velocity": 97,
      "chip": "ym2612"
    },
    {
      "channel": 3,
      "note": 72,
      "start": 32.2595,
      "duration": 0.0568,
      "velocity": 106,
      "chip": "ym2612"
    },
    {
      "channel": 4,
      "note": 79,
      "start": 32.2603,
      "duration": 0.0566,
      "velocity": 106,
      "chip": "ym2612"
    },
    {
      "channel": 3,
      "note": 74,
      "start": 32.3168,
      "duration": 0.0607,
      "velocity": 106,
      "chip": "ym2612"
    },
    {
      "channel": 4,
      "note": 74,
      "start": 32.3176,
      "duration": 0.0606,
      "velocity": 106,
      "chip": "ym2612"
    },
    {
      "channel": 1,
      "note": 60,
      "start": 32.3773,
      "duration": 0.1156,
      "velocity": 97,
      "chip": "ym2612"
    },
    {
      "channel": 3,
      "note": 79,
      "start": 32.378,
      "duration": 0.0541,
      "velocity": 106,
      "chip": "ym2612"
    },
    {
      "channel": 4,
      "note": 72,
      "start": 32.3788,
      "duration": 0.0541,
      "velocity": 106,
      "chip": "ym2612"
    },
    {
      "channel": 2,
      "note": 86,
      "start": 32.3801,
      "duration": 0.0592,
      "velocity": 127,
      "chip": "ym2612"
    },
    {
      "channel": 3,
      "note": 74,
      "start": 32.4327,
      "duration": 0.0609,
      "velocity": 106,
      "chip": "ym2612"
    },
    {
      "channel": 4,
      "note": 74,
      "start": 32.4335,
      "duration": 0.061,
      "velocity": 106,
      "chip": "ym2612"
    },
    {
      "channel": 1,
      "note": 60,
      "start": 32.4933,
      "duration": 0.1129,
      "velocity": 97,
      "chip": "ym2612"
    },
    {
      "channel": 3,
      "note": 72,
      "start": 32.4942,
      "duration": 0.054,
      "velocity": 106,
      "chip": "ym2612"
    },
    {
      "channel": 4,
      "note": 79,
      "start": 32.495,
      "duration": 0.0539,
      "velocity": 106,
      "chip": "ym2612"
    },
    {
      "channel": 2,
      "note": 94,
      "start": 32.4964,
      "duration": 0.0593,
      "velocity": 127,
      "chip": "ym2612"
    },
    {
      "channel": 3,
      "note": 74,
      "start": 32.5489,
      "duration": 0.0579,
      "velocity": 106,
      "chip": "ym2612"
    },
    {
      "channel": 4,
      "note": 74,
      "start": 32.5496,
      "duration": 0.058,
      "velocity": 106,
      "chip": "ym2612"
    },
    {
      "channel": 1,
      "note": 60,
      "start": 32.6067,
      "duration": 0.1188,
      "velocity": 97,
      "chip": "ym2612"
    },
    {
      "channel": 3,
      "note": 79,
      "start": 32.6074,
      "duration": 0.0569,
      "velocity": 106,
      "chip": "ym2612"
    },
    {
      "channel": 4,
      "note": 72,
      "start": 32.6081,
      "duration": 0.0569,
      "velocity": 106,
      "chip": "ym2612"
    },
    {
      "channel": 3,
      "note": 74,
      "start": 32.6648,
      "duration": 0.0615,
      "velocity": 106,
      "chip": "ym2612"
    },
    {
      "channel": 4,
      "note": 74,
      "start": 32.6656,
      "duration": 0.0616,
      "velocity": 106,
      "chip": "ym2612"
    },
    {
      "channel": 0,
      "note": 83,
      "start": 32.7253,
      "duration": 0.9347,
      "velocity": 109,
      "chip": "ym2612"
    },
    {
      "channel": 1,
      "note": 59,
      "start": 32.7261,
      "duration": 0.1167,
      "velocity": 97,
      "chip": "ym2612"
    },
    {
      "channel": 3,
      "note": 73,
      "start": 32.7269,
      "duration": 0.0581,
      "velocity": 106,
      "chip": "ym2612"
    },
    {
      "channel": 4,
      "note": 83,
      "start": 32.7278,
      "duration": 0.0596,
      "velocity": 106,
      "chip": "ym2612"
    },
    {
      "channel": 5,
      "note": 83,
      "start": 32.7287,
      "duration": 0.9344,
      "velocity": 106,
      "chip": "ym2612"
    },
    {
      "channel": 2,
      "note": 86,
      "start": 32.7296,
      "duration": 0.0629,
      "velocity": 127,
      "chip": "ym2612"
    },
    {
      "channel": 3,
      "note": 78,
      "start": 32.7873,
      "duration": 0.0561,
      "velocity": 106,
      "chip": "ym2612"
    },
    {
      "channel": 4,
      "note": 78,
      "start": 32.788,
      "duration": 0.056,
      "velocity": 106,
      "chip": "ym2612"
    },
    {
      "channel": 1,
      "note": 59,
      "start": 32.8432,
      "duration": 0.1182,
      "velocity": 97,
      "chip": "ym2612"
    },
    {
      "channel": 3,
      "note": 83,
      "start": 32.844,
      "duration": 0.0571,
      "velocity": 106,
      "chip": "ym2612"
    },
    {
      "channel": 4,
      "note": 73,
      "start": 32.8446,
      "duration": 0.0572,
      "velocity": 106,
      "chip": "ym2612"
    },
    {
      "channel": 3,
      "note": 73,
      "start": 32.9017,
      "duration": 0.0604,
      "velocity": 106,
      "chip": "ym2612"
    },
    {
      "channel": 4,
      "note": 78,
      "start": 32.9041,
      "duration": 0.0588,
      "velocity": 106,
      "chip": "ym2612"
    },
    {
      "channel": 1,
      "note": 59,
      "start": 32.9618,
      "duration": 0.1129,
      "velocity": 97,
      "chip": "ym2612"
    },
    {
      "channel": 3,
      "note": 78,
      "start": 32.9626,
      "duration": 0.0545,
      "velocity": 106,
      "chip": "ym2612"
    },
    {
      "channel": 4,
      "note": 83,
      "start": 32.9635,
      "duration": 0.0544,
      "velocity": 106,
      "chip": "ym2612"
    },
    {
      "channel": 2,
      "note": 94,
      "start": 32.9649,
      "duration": 0.0597,
      "velocity": 127,
      "chip": "ym2612"
    },
    {
      "channel": 3,
      "note": 83,
      "start": 33.0178,
      "duration": 0.0576,
      "velocity": 106,
      "chip": "ym2612"
    },
    {
      "channel": 4,
      "note": 78,
      "start": 33.0185,
      "duration": 0.0576,
      "velocity": 106,
      "chip": "ym2612"
    },
    {
      "channel": 1,
      "note": 59,
      "start": 33.0751,
      "duration": 0.116,
      "velocity": 97,
      "chip": "ym2612"
    },
    {
      "channel": 3,
      "note": 73,
      "start": 33.0759,
      "duration": 0.0572,
      "velocity": 106,
      "chip": "ym2612"
    },
    {
      "channel": 4,
      "note": 73,
      "start": 33.0767,
      "duration": 0.0571,
      "velocity": 106,
      "chip": "ym2612"
    },
    {
      "channel": 3,
      "note": 78,
      "start": 33.1337,
      "duration": 0.0581,
      "velocity": 106,
      "chip": "ym2612"
    },
    {
      "channel": 4,
      "note": 78,
      "start": 33.1344,
      "duration": 0.0582,
      "velocity": 106,
      "chip": "ym2612"
    },
    {
      "channel": 1,
      "note": 59,
      "start": 33.1916,
      "duration": 0.1182,
      "velocity": 97,
      "chip": "ym2612"
    },
    {
      "channel": 3,
      "note": 83,
      "start": 33.1924,
      "duration": 0.0568,
      "velocity": 106,
      "chip": "ym2612"
    },
    {
      "channel": 4,
      "note": 83,
      "start": 33.1932,
      "duration": 0.0567,
      "velocity": 106,
      "chip": "ym2612"
    },
    {
      "channel": 3,
      "note": 73,
      "start": 33.2498,
      "duration": 0.0606,
      "velocity": 106,
      "chip": "ym2612"
    },
    {
      "channel": 4,
      "note": 78,
      "start": 33.2506,
      "duration": 0.0606,
      "velocity": 106,
      "chip": "ym2612"
    },
    {
      "channel": 1,
      "note": 59,
      "start": 33.3102,
      "duration": 0.1156,
      "velocity": 97,
      "chip": "ym2612"
    },
    {
      "channel": 3,
      "note": 78,
      "start": 33.311,
      "duration": 0.0541,
      "velocity": 106,
      "chip": "ym2612"
    },
    {
      "channel": 4,
      "note": 73,
      "start": 33.3118,
      "duration": 0.0541,
      "velocity": 106,
      "chip": "ym2612"
    },
    {
      "channel": 2,
      "note": 86,
      "start": 33.313,
      "duration": 0.0596,
      "velocity": 127,
      "chip": "ym2612"
    },
    {
      "channel": 3,
      "note": 83,
      "start": 33.3657,
      "duration": 0.0607,
      "velocity": 106,
      "chip": "ym2612"
    },
    {
      "channel": 4,
      "note": 78,
      "start": 33.3664,
      "duration": 0.0609,
      "velocity": 106,
      "chip": "ym2612"
    },
    {
      "channel": 1,
      "note": 59,
      "start": 33.4263,
      "duration": 0.113,
      "velocity": 97,
      "chip": "ym2612"
    },
    {
      "channel": 3,
      "note": 73,
      "start": 33.427,
      "duration": 0.0541,
      "velocity": 106,
      "chip": "ym2612"
    },
    {
      "channel": 4,
      "note": 83,
      "start": 33.4279,
      "duration": 0.054,
      "velocity": 106,
      "chip": "ym2612"
    },
    {
      "channel": 2,
      "note": 94,
      "start": 33.4293,
      "duration": 0.0595,
      "velocity": 127,
      "chip": "ym2612"
    },
    {
      "channel": 3,
      "note": 78,
      "start": 33.4818,
      "duration": 0.058,
      "velocity": 106,
      "chip": "ym2612"
    },
    {
      "channel": 4,
      "note": 78,
      "start": 33.4825,
      "duration": 0.0581,
      "velocity": 106,
      "chip": "ym2612"
    },
    {
      "channel": 1,
      "note": 59,
      "start": 33.5397,
      "duration": 0.1214,
      "velocity": 97,
      "chip": "ym2612"
    },
    {
      "channel": 3,
      "note": 83,
      "start": 33.5405,
      "duration": 0.0568,
      "velocity": 106,
      "chip": "ym2612"
    },
    {
      "channel": 4,
      "note": 73,
      "start": 33.5412,
      "duration": 0.0569,
      "velocity": 106,
      "chip": "ym2612"
    },
    {
      "channel": 3,
      "note": 73,
      "start": 33.5978,
      "duration": 0.0642,
      "velocity": 106,
      "chip": "ym2612"
    },
    {
      "channel": 4,
      "note": 78,
      "start": 33.5986,
      "duration": 0.064,
      "velocity": 106,
      "chip": "ym2612"
    },
    {
      "channel": 0,
      "note": 76,
      "start": 33.6607,
      "duration": 0.2298,
      "velocity": 109,
      "chip": "ym2612"
    },
    {
      "channel": 1,
      "note": 50,
      "start": 33.6617,
      "duration": 0.1139,
      "velocity": 97,
      "chip": "ym2612"
    },
    {
      "channel": 2,
      "note": 86,
      "start": 33.6643,
      "duration": 0.0588,
      "velocity": 127,
      "chip": "ym2612"
    },
    {
      "channel": 1,
      "note": 52,
      "start": 33.7761,
      "duration": 0.1143,
      "velocity": 97,
      "chip": "ym2612"
    }
  ]
}