{
  "track_name": "03 - Danger Room",
  "duration_sec": 79.049,
  "sample_rate": 44100,
  "note_count": 1338,
  "unique_pitches": 30,
  "pitch_range": 64,
  "avg_note_duration": 0.0656,
  "reconstruction_stats": {
    "notes_reconstructed": 1338,
    "keyon_events": 1338,
    "keyoff_events": 1337,
    "orphan_keyons": 1,
    "unique_pitches": 30,
    "pitch_range": 64,
    "avg_duration_sec": 0.0656
  },
  "metadata": {
    "source": "X\\X-Men\\03 - Danger Room.vgz"
  },
  "notes": [
    {
      "channel": 0,
      "note": 60,
      "start": 0.0002,
      "duration": 0.0763,
      "velocity": 105,
      "chip": "ym2612"
    },
    {
      "channel": 0,
      "note": 55,
      "start": 0.1461,
      "duration": 0.0804,
      "velocity": 105,
      "chip": "ym2612"
    },
    {
      "channel": 0,
      "note": 51,
      "start": 0.296,
      "duration": 0.0805,
      "velocity": 105,
      "chip": "ym2612"
    },
    {
      "channel": 0,
      "note": 60,
      "start": 0.4461,
      "duration": 0.0803,
      "velocity": 105,
      "chip": "ym2612"
    },
    {
      "channel": 0,
      "note": 55,
      "start": 0.596,
      "duration": 0.0805,
      "velocity": 105,
      "chip": "ym2612"
    },
    {
      "channel": 0,
      "note": 51,
      "start": 0.7461,
      "duration": 0.0803,
      "velocity": 105,
      "chip": "ym2612"
    },
    {
      "channel": 0,
      "note": 60,
      "start": 0.896,
      "duration": 0.0805,
      "velocity": 105,
      "chip": "ym2612"
    },
    {
      "channel": 0,
      "note": 55,
      "start": 1.0461,
      "duration": 0.0803,
      "velocity": 105,
      "chip": "ym2612"
    },
    {
      "channel": 0,
      "note": 51,
      "start": 1.196,
      "duration": 0.0805,
      "velocity": 105,
      "chip": "ym2612"
    },
    {
      "channel": 0,
      "note": 60,
      "start": 1.3461,
      "duration": 0.0637,
      "velocity": 105,
      "chip": "ym2612"
    },
    {
      "channel": 0,
      "note": 55,
      "start": 1.496,
      "duration": 0.0638,
      "velocity": 105,
      "chip": "ym2612"
    },
    {
      "channel": 0,
      "note": 51,
      "start": 1.6461,
      "duration": 0.0637,
      "velocity": 105,
      "chip": "ym2612"
    },
    {
      "channel": 0,
      "note": 60,
      "start": 1.796,
      "duration": 0.0638,
      "velocity": 105,
      "chip": "ym2612"
    },
    {
      "channel": 0,
      "note": 55,
      "start": 1.9461,
      "duration": 0.0637,
      "velocity": 105,
      "chip": "ym2612"
    },
    {
      "channel": 0,
      "note": 51,
      "start": 2.096,
      "duration": 0.0638,
      "velocity": 105,
      "chip": "ym2612"
    },
    {
      "channel": 0,
      "note": 60,
      "start": 2.2461,
      "duration": 0.0637,
      "velocity": 105,
      "chip": "ym2612"
    },
    {
      "channel": 0,
      "note": 55,
      "start": 2.3964,
      "duration": 0.0634,
      "velocity": 105,
      "chip": "ym2612"
    },
    {
      "channel": 0,
      "note": 51,
      "start": 2.546,
      "duration": 0.0638,
      "velocity": 105,
      "chip": "ym2612"
    },
    {
      "channel": 0,
      "note": 60,
      "start": 2.696,
      "duration": 0.0638,
      "velocity": 105,
      "chip": "ym2612"
    },
    {
      "channel": 0,
      "note": 55,
      "start": 2.8461,
      "duration": 0.0637,
      "velocity": 105,
      "chip": "ym2612"
    },
    {
      "channel": 0,
      "note": 51,
      "start": 2.996,
      "duration": 0.0638,
      "velocity": 105,
      "chip": "ym2612"
    },
    {
      "channel": 0,
      "note": 60,
      "start": 3.1461,
      "duration": 0.0637,
      "velocity": 105,
      "chip": "ym2612"
    },
    {
      "channel": 0,
      "note": 55,
      "start": 3.296,
      "duration": 0.0638,
      "velocity": 105,
      "chip": "ym2612"
    },
    {
      "channel": 0,
      "note": 51,
      "start": 3.4461,
      "duration": 0.0637,
      "velocity": 105,
      "chip": "ym2612"
    },
    {
      "channel": 0,
      "note": 58,
      "start": 3.596,
      "duration": 0.0638,
      "velocity": 105,
      "chip": "ym2612"
    },
    {
      "channel": 0,
      "note": 55,
      "start": 3.7461,
      "duration": 0.0637,
      "velocity": 105,
      "chip": "ym2612"
    },
    {
      "channel": 0,
      "note": 51,
      "start": 3.896,
      "duration": 0.0638,
      "velocity": 105,
      "chip": "ym2612"
    },
    {
      "channel": 0,
      "note": 58,
      "start": 4.0461,
      "duration": 0.0637,
      "velocity": 105,
      "chip": "ym2612"
    },
    {
      "channel": 0,
      "note": 55,
      "start": 4.196,
      "duration": 0.0638,
      "velocity": 105,
      "chip": "ym2612"
    },
    {
      "channel": 0,
      "note": 51,
      "start": 4.3461,
      "duration": 0.0637,
      "velocity": 105,
      "chip": "ym2612"
    },
    {
      "channel": 0,
      "note": 58,
      "start": 4.496,
      "duration": 0.0638,
      "velocity": 105,
      "chip": "ym2612"
    },
    {
      "channel": 0,
      "note": 55,
      "start": 4.6461,
      "duration": 0.0637,
      "velocity": 105,
      "chip": "ym2612"
    },
    {
      "channel": 0,
      "note": 51,
      "start": 4.7966,
      "duration": 0.0632,
      "velocity": 105,
      "chip": "ym2612"
    },
    {
      "channel": 0,
      "note": 58,
      "start": 4.9462,
      "duration": 0.0637,
      "velocity": 105,
      "chip": "ym2612"
    },
    {
      "channel": 0,
      "note": 55,
      "start": 5.0961,
      "duration": 0.0637,
      "velocity": 105,
      "chip": "ym2612"
    },
    {
      "channel": 0,
      "note": 51,
      "start": 5.2462,
      "duration": 0.0637,
      "velocity": 105,
      "chip": "ym2612"
    },
    {
      "channel": 0,
      "note": 58,
      "start": 5.3961,
      "duration": 0.0637,
      "velocity": 105,
      "chip": "ym2612"
    },
    {
      "channel": 0,
      "note": 55,
      "start": 5.5462,
      "duration": 0.0637,
      "velocity": 105,
      "chip": "ym2612"
    },
    {
      "channel": 0,
      "note": 51,
      "start": 5.6794,
      "duration": 0.0804,
      "velocity": 105,
      "chip": "ym2612"
    },
    {
      "channel": 0,
      "note": 58,
      "start": 5.8294,
      "duration": 0.0805,
      "velocity": 105,
      "chip": "ym2612"
    },
    {
      "channel": 0,
      "note": 55,
      "start": 5.9794,
      "duration": 0.0804,
      "velocity": 105,
      "chip": "ym2612"
    },
    {
      "channel": 0,
      "note": 51,
      "start": 6.1294,
      "duration": 0.0804,
      "velocity": 105,
      "chip": "ym2612"
    },
    {
      "channel": 0,
      "note": 58,
      "start": 6.2794,
      "duration": 0.0804,
      "velocity": 105,
      "chip": "ym2612"
    },
    {
      "channel": 0,
      "note": 55,
      "start": 6.4294,
      "duration": 0.0804,
      "velocity": 105,
      "chip": "ym2612"
    },
    {
      "channel": 0,
      "note": 51,
      "start": 6.5794,
      "duration": 0.0804,
      "velocity": 105,
      "chip": "ym2612"
    },
    {
      "channel": 0,
      "note": 58,
      "start": 6.7294,
      "duration": 0.0804,
      "velocity": 105,
      "chip": "ym2612"
    },
    {
      "channel": 0,
      "note": 55,
      "start": 6.8794,
      "duration": 0.0804,
      "velocity": 105,
      "chip": "ym2612"
    },
    {
      "channel": 0,
      "note": 51,
      "start": 7.0294,
      "duration": 0.0804,
      "velocity": 105,
      "chip": "ym2612"
    },
    {
      "channel": 0,
      "note": 60,
      "start": 7.1825,
      "duration": 0.0772,
      "velocity": 105,
      "chip": "ym2612"
    },
    {
      "channel": 3,
      "note": 58,
      "start": 7.1855,
      "duration": 0.0744,
      "velocity": 127,
      "chip": "ym2612"
    },
    {
      "channel": 1,
      "note": 91,
      "start": 7.189,
      "duration": 0.0875,
      "velocity": 72,
      "chip": "ym2612"
    },
    {
      "channel": 4,
      "note": 87,
      "start": 7.2635,
      "duration": 0.0132,
      "velocity": 72,
      "chip": "ym2612"
    },
    {
      "channel": 0,
      "note": 55,
      "start": 7.3294,
      "duration": 0.0805,
      "velocity": 105,
      "chip": "ym2612"
    },
    {
      "channel": 1,
      "note": 89,
      "start": 7.332,
      "duration": 0.0113,
      "velocity": 72,
      "chip": "ym2612"
    },
    {
      "channel": 1,
      "note": 91,
      "start": 7.4129,
      "duration": 0.0136,
      "velocity": 72,
      "chip": "ym2612"
    },
    {
      "channel": 0,
      "note": 51,
      "start": 7.4795,
      "duration": 0.0803,
      "velocity": 105,
      "chip": "ym2612"
    },
    {
      "channel": 3,
      "note": 58,
      "start": 7.4826,
      "duration": 0.0773,
      "velocity": 127,
      "chip": "ym2612"
    },
    {
      "channel": 1,
      "note": 87,
      "start": 7.4851,
      "duration": 0.0081,
      "velocity": 72,
      "chip": "ym2612"
    },
    {
      "channel": 1,
      "note": 89,
      "start": 7.563,
      "duration": 0.0135,
      "velocity": 72,
      "chip": "ym2612"
    },
    {
      "channel": 0,
      "note": 60,
      "start": 7.6294,
      "duration": 0.0805,
      "velocity": 105,
      "chip": "ym2612"
    },
    {
      "channel": 1,
      "note": 91,
      "start": 7.6322,
      "duration": 0.011,
      "velocity": 72,
      "chip": "ym2612"
    },
    {
      "channel": 0,
      "note": 55,
      "start": 7.7794,
      "duration": 0.0804,
      "velocity": 105,
      "chip": "ym2612"
    },
    {
      "channel": 3,
      "note": 58,
      "start": 7.7823,
      "duration": 0.0777,
      "velocity": 127,
      "chip": "ym2612"
    },
    {
      "channel": 0,
      "note": 51,
      "start": 7.9294,
      "duration": 0.0804,
      "velocity": 105,
      "chip": "ym2612"
    },
    {
      "channel": 3,
      "note": 58,
      "start": 7.9321,
      "duration": 0.0779,
      "velocity": 127,
      "chip": "ym2612"
    },
    {
      "channel": 0,
      "note": 60,
      "start": 8.0794,
      "duration": 0.0804,
      "velocity": 105,
      "chip": "ym2612"
    },
    {
      "channel": 3,
      "note": 58,
      "start": 8.0823,
      "duration": 0.0777,
      "velocity": 127,
      "chip": "ym2612"
    },
    {
      "channel": 1,
      "note": 94,
      "start": 8.1632,
      "duration": 0.0134,
      "velocity": 72,
      "chip": "ym2612"
    },
    {
      "channel": 0,
      "note": 55,
      "start": 8.2298,
      "duration": 0.08,
      "velocity": 105,
      "chip": "ym2612"
    },
    {
      "channel": 1,
      "note": 96,
      "start": 8.2324,
      "duration": 0.0107,
      "velocity": 72,
      "chip": "ym2612"
    },
    {
      "channel": 1,
      "note": 99,
      "start": 8.313,
      "duration": 0.0135,
      "velocity": 72,
      "chip": "ym2612"
    },
    {
      "channel": 0,
      "note": 51,
      "start": 8.3794,
      "duration": 0.0803,
      "velocity": 105,
      "chip": "ym2612"
    },
    {
      "channel": 3,
      "note": 58,
      "start": 8.3822,
      "duration": 0.0777,
      "velocity": 127,
      "chip": "ym2612"
    },
    {
      "channel": 1,
      "note": 96,
      "start": 8.3848,
      "duration": 0.0084,
      "velocity": 72,
      "chip": "ym2612"
    },
    {
      "channel": 0,
      "note": 60,
      "start": 8.5294,
      "duration": 0.0804,
      "velocity": 105,
      "chip": "ym2612"
    },
    {
      "channel": 0,
      "note": 55,
      "start": 8.6794,
      "duration": 0.0804,
      "velocity": 105,
      "chip": "ym2612"
    },
    {
      "channel": 3,
      "note": 58,
      "start": 8.6823,
      "duration": 0.0777,
      "velocity": 127,
      "chip": "ym2612"
    },
    {
      "channel": 0,
      "note": 51,
      "start": 8.8294,
      "duration": 0.0804,
      "velocity": 105,
      "chip": "ym2612"
    },
    {
      "channel": 3,
      "note": 58,
      "start": 8.8321,
      "duration": 0.0779,
      "velocity": 127,
      "chip": "ym2612"
    },
    {
      "channel": 0,
      "note": 60,
      "start": 8.9794,
      "duration": 0.0805,
      "velocity": 105,
      "chip": "ym2612"
    },
    {
      "channel": 3,
      "note": 58,
      "start": 8.9821,
      "duration": 0.0779,
      "velocity": 127,
      "chip": "ym2612"
    },
    {
      "channel": 1,
      "note": 91,
      "start": 8.9853,
      "duration": 0.0913,
      "velocity": 72,
      "chip": "ym2612"
    },
    {
      "channel": 4,
      "note": 87,
      "start": 9.0634,
      "duration": 0.0134,
      "velocity": 72,
      "chip": "ym2612"
    },
    {
      "channel": 0,
      "note": 55,
      "start": 9.1294,
      "duration": 0.0805,
      "velocity": 105,
      "chip": "ym2612"
    },
    {
      "channel": 3,
      "note": 58,
      "start": 9.1322,
      "duration": 0.0778,
      "velocity": 127,
      "chip": "ym2612"
    },
    {
      "channel": 1,
      "note": 89,
      "start": 9.1347,
      "duration": 0.0085,
      "velocity": 72,
      "chip": "ym2612"
    },
    {
      "channel": 1,
      "note": 91,
      "start": 9.2132,
      "duration": 0.0133,
      "velocity": 72,
      "chip": "ym2612"
    },
    {
      "channel": 0,
      "note": 51,
      "start": 9.2794,
      "duration": 0.0805,
      "velocity": 105,
      "chip": "ym2612"
    },
    {
      "channel": 3,
      "note": 58,
      "start": 9.2821,
      "duration": 0.0779,
      "velocity": 127,
      "chip": "ym2612"
    },
    {
      "channel": 1,
      "note": 87,
      "start": 9.2846,
      "duration": 0.0087,
      "velocity": 72,
      "chip": "ym2612"
    },
    {
      "channel": 1,
      "note": 89,
      "start": 9.3631,
      "duration": 0.0135,
      "velocity": 72,
      "chip": "ym2612"
    },
    {
      "channel": 0,
      "note": 60,
      "start": 9.4294,
      "duration": 0.0805,
      "velocity": 105,
      "chip": "ym2612"
    },
    {
      "channel": 3,
      "note": 58,
      "start": 9.4323,
      "duration": 0.0777,
      "velocity": 127,
      "chip": "ym2612"
    },
    {
      "channel": 1,
      "note": 91,
      "start": 9.435,
      "duration": 0.0083,
      "velocity": 72,
      "chip": "ym2612"
    },
    {
      "channel": 0,
      "note": 55,
      "start": 9.5794,
      "duration": 0.0804,
      "velocity": 105,
      "chip": "ym2612"
    },
    {
      "channel": 0,
      "note": 51,
      "start": 9.7294,
      "duration": 0.0803,
      "velocity": 105,
      "chip": "ym2612"
    },
    {
      "channel": 3,
      "note": 58,
      "start": 9.7327,
      "duration": 0.0773,
      "velocity": 127,
      "chip": "ym2612"
    },
    {
      "channel": 0,
      "note": 60,
      "start": 9.8794,
      "duration": 0.0637,
      "velocity": 105,
      "chip": "ym2612"
    },
    {
      "channel": 3,
      "note": 58,
      "start": 9.8821,
      "duration": 0.0611,
      "velocity": 127,
      "chip": "ym2612"
    },
    {
      "channel": 1,
      "note": 94,
      "start": 9.9465,
      "duration": 0.03,
      "velocity": 72,
      "chip": "ym2612"
    },
    {
      "channel": 0,
      "note": 55,
      "start": 10.0294,
      "duration": 0.0637,
      "velocity": 105,
      "chip": "ym2612"
    },
    {
      "channel": 3,
      "note": 58,
      "start": 10.0322,
      "duration": 0.0612,
      "velocity": 127,
      "chip": "ym2612"
    },
    {
      "channel": 1,
      "note": 96,
      "start": 10.0347,
      "duration": 0.0085,
      "velocity": 72,
      "chip": "ym2612"
    },
    {
      "channel": 1,
      "note": 99,
      "start": 10.0964,
      "duration": 0.0301,
      "velocity": 72,
      "chip": "ym2612"
    },
    {
      "channel": 0,
      "note": 51,
      "start": 10.1794,
      "duration": 0.0637,
      "velocity": 105,
      "chip": "ym2612"
    },
    {
      "channel": 3,
      "note": 58,
      "start": 10.1821,
      "duration": 0.0612,
      "velocity": 127,
      "chip": "ym2612"
    },
    {
      "channel": 1,
      "note": 96,
      "start": 10.1853,
      "duration": 0.008,
      "velocity": 72,
      "chip": "ym2612"
    },
    {
      "channel": 0,
      "note": 60,
      "start": 10.3294,
      "duration": 0.0637,
      "velocity": 105,
      "chip": "ym2612"
    },
    {
      "channel": 3,
      "note": 58,
      "start": 10.3321,
      "duration": 0.0611,
      "velocity": 127,
      "chip": "ym2612"
    },
    {
      "channel": 0,
      "note": 55,
      "start": 10.4794,
      "duration": 0.0637,
      "velocity": 105,
      "chip": "ym2612"
    },
    {
      "channel": 3,
      "note": 58,
      "start": 10.4822,
      "duration": 0.0611,
      "velocity": 127,
      "chip": "ym2612"
    },
    {
      "channel": 0,
      "note": 51,
      "start": 10.6298,
      "duration": 0.0634,
      "velocity": 105,
      "chip": "ym2612"
    },
    {
      "channel": 3,
      "note": 58,
      "start": 10.6325,
      "duration": 0.0609,
      "velocity": 127,
      "chip": "ym2612"
    },
    {
      "channel": 0,
      "note": 58,
      "start": 10.7794,
      "duration": 0.0637,
      "velocity": 105,
      "chip": "ym2612"
    },
    {
      "channel": 3,
      "note": 55,
      "start": 10.7824,
      "duration": 0.0609,
      "velocity": 127,
      "chip": "ym2612"
    },
    {
      "channel": 2,
      "note": 93,
      "start": 10.7861,
      "duration": 0.124,
      "velocity": 60,
      "chip": "ym2612"
    },
    {
      "channel": 0,
      "note": 55,
      "start": 10.9294,
      "duration": 0.0637,
      "velocity": 105,
      "chip": "ym2612"
    },
    {
      "channel": 0,
      "note": 51,
      "start": 11.0794,
      "duration": 0.0637,
      "velocity": 105,
      "chip": "ym2612"
    },
    {
      "channel": 2,
      "note": 93,
      "start": 11.0826,
      "duration": 0.1274,
      "velocity": 60,
      "chip": "ym2612"
    },
    {
      "channel": 0,
      "note": 58,
      "start": 11.2295,
      "duration": 0.0637,
      "velocity": 105,
      "chip": "ym2612"
    },
    {
      "channel": 0,
      "note": 55,
      "start": 11.3794,
      "duration": 0.0637,
      "velocity": 105,
      "chip": "ym2612"
    },
    {
      "channel": 2,
      "note": 93,
      "start": 11.3826,
      "duration": 0.1274,
      "velocity": 60,
      "chip": "ym2612"
    },
    {
      "channel": 0,
      "note": 51,
      "start": 11.5295,
      "duration": 0.0637,
      "velocity": 105,
      "chip": "ym2612"
    },
    {
      "channel": 0,
      "note": 58,
      "start": 11.6794,
      "duration": 0.0637,
      "velocity": 105,
      "chip": "ym2612"
    },
    {
      "channel": 2,
      "note": 93,
      "start": 11.6826,
      "duration": 0.1274,
      "velocity": 60,
      "chip": "ym2612"
    },
    {
      "channel": 0,
      "note": 55,
      "start": 11.8295,
      "duration": 0.0637,
      "velocity": 105,
      "chip": "ym2612"
    },
    {
      "channel": 0,
      "note": 51,
      "start": 11.9794,
      "duration": 0.0637,
      "velocity": 105,
      "chip": "ym2612"
    },
    {
      "channel": 2,
      "note": 93,
      "start": 11.9825,
      "duration": 0.1275,
      "velocity": 60,
      "chip": "ym2612"
    },
    {
      "channel": 0,
      "note": 58,
      "start": 12.1294,
      "duration": 0.0638,
      "velocity": 105,
      "chip": "ym2612"
    },
    {
      "channel": 0,
      "note": 55,
      "start": 12.2795,
      "duration": 0.0637,
      "velocity": 105,
      "chip": "ym2612"
    },
    {
      "channel": 2,
      "note": 93,
      "start": 12.2825,
      "duration": 0.1276,
      "velocity": 60,
      "chip": "ym2612"
    },
    {
      "channel": 0,
      "note": 51,
      "start": 12.4295,
      "duration": 0.0637,
      "velocity": 105,
      "chip": "ym2612"
    },
    {
      "channel": 0,
      "note": 58,
      "start": 12.5794,
      "duration": 0.0638,
      "velocity": 105,
      "chip": "ym2612"
    },
    {
      "channel": 5,
      "note": 67,
      "start": 12.5827,
      "duration": 0.0773,
      "velocity": 1,
      "chip": "ym2612"
    },
    {
      "channel": 2,
      "note": 93,
      "start": 12.5857,
      "duration": 0.1243,
      "velocity": 60,
      "chip": "ym2612"
    },
    {
      "channel": 0,
      "note": 55,
      "start": 12.7294,
      "duration": 0.0637,
      "velocity": 105,
      "chip": "ym2612"
    },
    {
      "channel": 5,
      "note": 55,
      "start": 12.7328,
      "duration": 0.0772,
      "velocity": 1,
      "chip": "ym2612"
    },
    {
      "channel": 0,
      "note": 51,
      "start": 12.8794,
      "duration": 0.0637,
      "velocity": 105,
      "chip": "ym2612"
    },
    {
      "channel": 5,
      "note": 67,
      "start": 12.8826,
      "duration": 0.0608,
      "velocity": 1,
      "chip": "ym2612"
    },
    {
      "channel": 2,
      "note": 93,
      "start": 12.8856,
      "duration": 0.1245,
      "velocity": 60,
      "chip": "ym2612"
    },
    {
      "channel": 0,
      "note": 58,
      "start": 13.0298,
      "duration": 0.0634,
      "velocity": 105,
      "chip": "ym2612"
    },
    {
      "channel": 5,
      "note": 55,
      "start": 13.033,
      "duration": 0.077,
      "velocity": 1,
      "chip": "ym2612"
    },
    {
      "channel": 0,
      "note": 55,
      "start": 13.1795,
      "duration": 0.0636,
      "velocity": 105,
      "chip": "ym2612"
    },
    {
      "channel": 5,
      "note": 67,
      "start": 13.1827,
      "duration": 0.0607,
      "velocity": 1,
      "chip": "ym2612"
    },
    {
      "channel": 2,
      "note": 93,
      "start": 13.1855,
      "duration": 0.1079,
      "velocity": 60,
      "chip": "ym2612"
    },
    {
      "channel": 0,
      "note": 51,
      "start": 13.3294,
      "duration": 0.0637,
      "velocity": 105,
      "chip": "ym2612"
    },
    {
      "channel": 5,
      "note": 55,
      "start": 13.3326,
      "duration": 0.0774,
      "velocity": 1,
      "chip": "ym2612"
    },
    {
      "channel": 0,
      "note": 58,
      "start": 13.4795,
      "duration": 0.0636,
      "velocity": 105,
      "chip": "ym2612"
    },
    {
      "channel": 5,
      "note": 67,
      "start": 13.4827,
      "duration": 0.0607,
      "velocity": 1,
      "chip": "ym2612"
    },
    {
      "channel": 2,
      "note": 93,
      "start": 13.4856,
      "duration": 0.1078,
      "velocity": 60,
      "chip": "ym2612"
    },
    {
      "channel": 0,
      "note": 55,
      "start": 13.6294,
      "duration": 0.0637,
      "velocity": 105,
      "chip": "ym2612"
    },
    {
      "channel": 5,
      "note": 55,
      "start": 13.6325,
      "duration": 0.0609,
      "velocity": 1,
      "chip": "ym2612"
    },
    {
      "channel": 0,
      "note": 51,
      "start": 13.7795,
      "duration": 0.0636,
      "velocity": 105,
      "chip": "ym2612"
    },
    {
      "channel": 5,
      "note": 67,
      "start": 13.7825,
      "duration": 0.0608,
      "velocity": 1,
      "chip": "ym2612"
    },
    {
      "channel": 2,
      "note": 93,
      "start": 13.7855,
      "duration": 0.1079,
      "velocity": 60,
      "chip": "ym2612"
    },
    {
      "channel": 0,
      "note": 58,
      "start": 13.9294,
      "duration": 0.0637,
      "velocity": 105,
      "chip": "ym2612"
    },
    {
      "channel": 5,
      "note": 55,
      "start": 13.9325,
      "duration": 0.0609,
      "velocity": 1,
      "chip": "ym2612"
    },
    {
      "channel": 0,
      "note": 55,
      "start": 14.0794,
      "duration": 0.0637,
      "velocity": 105,
      "chip": "ym2612"
    },
    {
      "channel": 5,
      "note": 67,
      "start": 14.0826,
      "duration": 0.0774,
      "velocity": 1,
      "chip": "ym2612"
    },
    {
      "channel": 2,
      "note": 93,
      "start": 14.0861,
      "duration": 0.1074,
      "velocity": 60,
      "chip": "ym2612"
    },
    {
      "channel": 0,
      "note": 51,
      "start": 14.2128,
      "duration": 0.0803,
      "velocity": 105,
      "chip": "ym2612"
    },
    {
      "channel": 5,
      "note": 55,
      "start": 14.2166,
      "duration": 0.0768,
      "velocity": 1,
      "chip": "ym2612"
    },
    {
      "channel": 0,
      "note": 60,
      "start": 14.3655,
      "duration": 0.0776,
      "velocity": 105,
      "chip": "ym2612"
    },
    {
      "channel": 3,
      "note": 60,
      "start": 14.3684,
      "duration": 0.0748,
      "velocity": 127,
      "chip": "ym2612"
    },
    {
      "channel": 0,
      "note": 55,
      "start": 14.5128,
      "duration": 0.0804,
      "velocity": 105,
      "chip": "ym2612"
    },
    {
      "channel": 0,
      "note": 51,
      "start": 14.6628,
      "duration": 0.0804,
      "velocity": 105,
      "chip": "ym2612"
    },
    {
      "channel": 3,
      "note": 60,
      "start": 14.6655,
      "duration": 0.0778,
      "velocity": 127,
      "chip": "ym2612"
    },
    {
      "channel": 0,
      "note": 60,
      "start": 14.8127,
      "duration": 0.0804,
      "velocity": 105,
      "chip": "ym2612"
    },
    {
      "channel": 0,
      "note": 55,
      "start": 14.9628,
      "duration": 0.0804,
      "velocity": 105,
      "chip": "ym2612"
    },
    {
      "channel": 3,
      "note": 60,
      "start": 14.9656,
      "duration": 0.0777,
      "velocity": 127,
      "chip": "ym2612"
    },
    {
      "channel": 0,
      "note": 51,
      "start": 15.1127,
      "duration": 0.0804,
      "velocity": 105,
      "chip": "ym2612"
    },
    {
      "channel": 3,
      "note": 60,
      "start": 15.1154,
      "duration": 0.0779,
      "velocity": 127,
      "chip": "ym2612"
    },
    {
      "channel": 0,
      "note": 60,
      "start": 15.2627,
      "duration": 0.0805,
      "velocity": 105,
      "chip": "ym2612"
    },
    {
      "channel": 3,
      "note": 60,
      "start": 15.2659,
      "duration": 0.0774,
      "velocity": 127,
      "chip": "ym2612"
    },
    {
      "channel": 1,
      "note": 101,
      "start": 15.2686,
      "duration": 0.008,
      "velocity": 72,
      "chip": "ym2612"
    },
    {
      "channel": 1,
      "note": 96,
      "start": 15.3464,
      "duration": 0.0135,
      "velocity": 72,
      "chip": "ym2612"
    },
    {
      "channel": 0,
      "note": 55,
      "start": 15.4132,
      "duration": 0.08,
      "velocity": 105,
      "chip": "ym2612"
    },
    {
      "channel": 1,
      "note": 99,
      "start": 15.4158,
      "duration": 0.0107,
      "velocity": 72,
      "chip": "ym2612"
    },
    {
      "channel": 1,
      "note": 96,
      "start": 15.4963,
      "duration": 0.0135,
      "velocity": 72,
      "chip": "ym2612"
    },
    {
      "channel": 0,
      "note": 51,
      "start": 15.5628,
      "duration": 0.0803,
      "velocity": 105,
      "chip": "ym2612"
    },
    {
      "channel": 3,
      "note": 60,
      "start": 15.5655,
      "duration": 0.0777,
      "velocity": 127,
      "chip": "ym2612"
    },
    {
      "channel": 1,
      "note": 94,
      "start": 15.568,
      "duration": 0.0085,
      "velocity": 72,
      "chip": "ym2612"
    },
    {
      "channel": 1,
      "note": 96,
      "start": 15.6463,
      "duration": 0.0135,
      "velocity": 72,
      "chip": "ym2612"
    },
    {
      "channel": 0,
      "note": 60,
      "start": 15.7128,
      "duration": 0.0805,
      "velocity": 105,
      "chip": "ym2612"
    },
    {
      "channel": 1,
      "note": 94,
      "start": 15.7154,
      "duration": 0.0111,
      "velocity": 72,
      "chip": "ym2612"
    },
    {
      "channel": 1,
      "note": 91,
      "start": 15.7963,
      "duration": 0.0135,
      "velocity": 72,
      "chip": "ym2612"
    },
    {
      "channel": 0,
      "note": 55,
      "start": 15.8628,
      "duration": 0.0803,
      "velocity": 105,
      "chip": "ym2612"
    },
    {
      "channel": 3,
      "note": 60,
      "start": 15.8656,
      "duration": 0.0776,
      "velocity": 127,
      "chip": "ym2612"
    },
    {
      "channel": 1,
      "note": 99,
      "start": 15.8682,
      "duration": 0.0083,
      "velocity": 72,
      "chip": "ym2612"
    },
    {
      "channel": 1,
      "note": 96,
      "start": 15.9463,
      "duration": 0.0135,
      "velocity": 72,
      "chip": "ym2612"
    },
    {
      "channel": 0,
      "note": 51,
      "start": 16.0128,
      "duration": 0.0804,
      "velocity": 105,
      "chip": "ym2612"
    },
    {
      "channel": 3,
      "note": 60,
      "start": 16.0155,
      "duration": 0.0778,
      "velocity": 127,
      "chip": "ym2612"
    },
    {
      "channel": 1,
      "note": 94,
      "start": 16.0184,
      "duration": 0.0083,
      "velocity": 72,
      "chip": "ym2612"
    },
    {
      "channel": 1,
      "note": 103,
      "start": 16.0964,
      "duration": 0.0135,
      "velocity": 72,
      "chip": "ym2612"
    },
    {
      "channel": 0,
      "note": 60,
      "start": 16.1628,
      "duration": 0.0803,
      "velocity": 105,
      "chip": "ym2612"
    },
    {
      "channel": 3,
      "note": 60,
      "start": 16.1656,
      "duration": 0.0778,
      "velocity": 127,
      "chip": "ym2612"
    },
    {
      "channel": 1,
      "note": 101,
      "start": 16.1681,
      "duration": 0.0085,
      "velocity": 72,
      "chip": "ym2612"
    },
    {
      "channel": 1,
      "note": 99,
      "start": 16.2464,
      "duration": 0.0135,
      "velocity": 72,
      "chip": "ym2612"
    },
    {
      "channel": 0,
      "note": 55,
      "start": 16.3128,
      "duration": 0.0803,
      "velocity": 105,
      "chip": "ym2612"
    },
    {
      "channel": 3,
      "note": 60,
      "start": 16.3156,
      "duration": 0.0778,
      "velocity": 127,
      "chip": "ym2612"
    },
    {
      "channel": 1,
      "note": 101,
      "start": 16.3181,
      "duration": 0.0085,
      "velocity": 72,
      "chip": "ym2612"
    },
    {
      "channel": 1,
      "note": 82,
      "start": 16.3964,
      "duration": 0.0135,
      "velocity": 72,
      "chip": "ym2612"
    },
    {
      "channel": 0,
      "note": 51,
      "start": 16.4628,
      "duration": 0.0803,
      "velocity": 105,
      "chip": "ym2612"
    },
    {
      "channel": 3,
      "note": 60,
      "start": 16.4656,
      "duration": 0.0778,
      "velocity": 127,
      "chip": "ym2612"
    },
    {
      "channel": 1,
      "note": 84,
      "start": 16.4681,
      "duration": 0.0085,
      "velocity": 72,
      "chip": "ym2612"
    },
    {
      "channel": 1,
      "note": 87,
      "start": 16.5464,
      "duration": 0.0135,
      "velocity": 72,
      "chip": "ym2612"
    },
    {
      "channel": 0,
      "note": 60,
      "start": 16.6128,
      "duration": 0.0803,
      "velocity": 105,
      "chip": "ym2612"
    },
    {
      "channel": 3,
      "note": 60,
      "start": 16.6157,
      "duration": 0.0776,
      "velocity": 127,
      "chip": "ym2612"
    },
    {
      "channel": 1,
      "note": 79,
      "start": 16.6184,
      "duration": 0.0083,
      "velocity": 72,
      "chip": "ym2612"
    },
    {
      "channel": 0,
      "note": 55,
      "start": 16.7627,
      "duration": 0.0805,
      "velocity": 105,
      "chip": "ym2612"
    },
    {
      "channel": 0,
      "note": 51,
      "start": 16.9128,
      "duration": 0.0804,
      "velocity": 105,
      "chip": "ym2612"
    },
    {
      "channel": 3,
      "note": 60,
      "start": 16.9156,
      "duration": 0.0777,
      "velocity": 127,
      "chip": "ym2612"
    },
    {
      "channel": 0,
      "note": 60,
      "start": 17.0627,
      "duration": 0.0805,
      "velocity": 105,
      "chip": "ym2612"
    },
    {
      "channel": 3,
      "note": 60,
      "start": 17.0654,
      "duration": 0.0779,
      "velocity": 127,
      "chip": "ym2612"
    },
    {
      "channel": 1,
      "note": 101,
      "start": 17.0681,
      "duration": 0.0084,
      "velocity": 72,
      "chip": "ym2612"
    },
    {
      "channel": 1,
      "note": 96,
      "start": 17.1464,
      "duration": 0.0135,
      "velocity": 72,
      "chip": "ym2612"
    },
    {
      "channel": 0,
      "note": 55,
      "start": 17.2128,
      "duration": 0.0803,
      "velocity": 105,
      "chip": "ym2612"
    },
    {
      "channel": 3,
      "note": 60,
      "start": 17.2156,
      "duration": 0.0778,
      "velocity": 127,
      "chip": "ym2612"
    },
    {
      "channel": 1,
      "note": 99,
      "start": 17.2181,
      "duration": 0.0085,
      "velocity": 72,
      "chip": "ym2612"
    },
    {
      "channel": 1,
      "note": 96,
      "start": 17.2964,
      "duration": 0.0135,
      "velocity": 72,
      "chip": "ym2612"
    },
    {
      "channel": 0,
      "note": 51,
      "start": 17.3628,
      "duration": 0.0803,
      "velocity": 105,
      "chip": "ym2612"
    },
    {
      "channel": 3,
      "note": 60,
      "start": 17.3656,
      "duration": 0.0778,
      "velocity": 127,
      "chip": "ym2612"
    },
    {
      "channel": 1,
      "note": 94,
      "start": 17.3681,
      "duration": 0.0085,
      "velocity": 72,
      "chip": "ym2612"
    },
    {
      "channel": 1,
      "note": 96,
      "start": 17.4468,
      "duration": 0.013,
      "velocity": 72,
      "chip": "ym2612"
    },
    {
      "channel": 0,
      "note": 60,
      "start": 17.5128,
      "duration": 0.0804,
      "velocity": 105,
      "chip": "ym2612"
    },
    {
      "channel": 3,
      "note": 60,
      "start": 17.5159,
      "duration": 0.0774,
      "velocity": 127,
      "chip": "ym2612"
    },
    {
      "channel": 1,
      "note": 94,
      "start": 17.5184,
      "duration": 0.0083,
      "velocity": 72,
      "chip": "ym2612"
    },
    {
      "channel": 1,
      "note": 91,
      "start": 17.5964,
      "duration": 0.0135,
      "velocity": 72,
      "chip": "ym2612"
    },
    {
      "channel": 0,
      "note": 55,
      "start": 17.6628,
      "duration": 0.0803,
      "velocity": 105,
      "chip": "ym2612"
    },
    {
      "channel": 3,
      "note": 60,
      "start": 17.6656,
      "duration": 0.0778,
      "velocity": 127,
      "chip": "ym2612"
    },
    {
      "channel": 1,
      "note": 99,
      "start": 17.6681,
      "duration": 0.0085,
      "velocity": 72,
      "chip": "ym2612"
    },
    {
      "channel": 1,
      "note": 96,
      "start": 17.7464,
      "duration": 0.0135,
      "velocity": 72,
      "chip": "ym2612"
    },
    {
      "channel": 0,
      "note": 51,
      "start": 17.8131,
      "duration": 0.0802,
      "velocity": 105,
      "chip": "ym2612"
    },
    {
      "channel": 3,
      "note": 60,
      "start": 17.8158,
      "duration": 0.0776,
      "velocity": 127,
      "chip": "ym2612"
    },
    {
      "channel": 1,
      "note": 94,
      "start": 17.8183,
      "duration": 0.0083,
      "velocity": 72,
      "chip": "ym2612"
    },
    {
      "channel": 1,
      "note": 103,
      "start": 17.8967,
      "duration": 0.0131,
      "velocity": 72,
      "chip": "ym2612"
    },
    {
      "channel": 0,
      "note": 58,
      "start": 17.9627,
      "duration": 0.0804,
      "velocity": 105,
      "chip": "ym2612"
    },
    {
      "channel": 3,
      "note": 55,
      "start": 17.9656,
      "duration": 0.0778,
      "velocity": 127,
      "chip": "ym2612"
    },
    {
      "channel": 2,
      "note": 93,
      "start": 17.9686,
      "duration": 0.1247,
      "velocity": 60,
      "chip": "ym2612"
    },
    {
      "channel": 0,
      "note": 55,
      "start": 18.1127,
      "duration": 0.0804,
      "velocity": 105,
      "chip": "ym2612"
    },
    {
      "channel": 0,
      "note": 51,
      "start": 18.2627,
      "duration": 0.0805,
      "velocity": 105,
      "chip": "ym2612"
    },
    {
      "channel": 2,
      "note": 93,
      "start": 18.2659,
      "duration": 0.1275,
      "velocity": 60,
      "chip": "ym2612"
    },
    {
      "channel": 0,
      "note": 58,
      "start": 18.4127,
      "duration": 0.0638,
      "velocity": 105,
      "chip": "ym2612"
    },
    {
      "channel": 3,
      "note": 55,
      "start": 18.4156,
      "duration": 0.0611,
      "velocity": 127,
      "chip": "ym2612"
    },
    {
      "channel": 0,
      "note": 55,
      "start": 18.5628,
      "duration": 0.0637,
      "velocity": 105,
      "chip": "ym2612"
    },
    {
      "channel": 3,
      "note": 55,
      "start": 18.5655,
      "duration": 0.0611,
      "velocity": 127,
      "chip": "ym2612"
    },
    {
      "channel": 2,
      "note": 93,
      "start": 18.5685,
      "duration": 0.1248,
      "velocity": 60,
      "chip": "ym2612"
    },
    {
      "channel": 0,
      "note": 51,
      "start": 18.7127,
      "duration": 0.0637,
      "velocity": 105,
      "chip": "ym2612"
    },
    {
      "channel": 3,
      "note": 55,
      "start": 18.7154,
      "duration": 0.0611,
      "velocity": 127,
      "chip": "ym2612"
    },
    {
      "channel": 0,
      "note": 58,
      "start": 18.8628,
      "duration": 0.0637,
      "velocity": 105,
      "chip": "ym2612"
    },
    {
      "channel": 3,
      "note": 55,
      "start": 18.8655,
      "duration": 0.0611,
      "velocity": 127,
      "chip": "ym2612"
    },
    {
      "channel": 2,
      "note": 93,
      "start": 18.8685,
      "duration": 0.1248,
      "velocity": 60,
      "chip": "ym2612"
    },
    {
      "channel": 0,
      "note": 55,
      "start": 19.0127,
      "duration": 0.0637,
      "velocity": 105,
      "chip": "ym2612"
    },
    {
      "channel": 3,
      "note": 55,
      "start": 19.0154,
      "duration": 0.0611,
      "velocity": 127,
      "chip": "ym2612"
    },
    {
      "channel": 0,
      "note": 51,
      "start": 19.1628,
      "duration": 0.0637,
      "velocity": 105,
      "chip": "ym2612"
    },
    {
      "channel": 3,
      "note": 55,
      "start": 19.1655,
      "duration": 0.0611,
      "velocity": 127,
      "chip": "ym2612"
    },
    {
      "channel": 2,
      "note": 93,
      "start": 19.1685,
      "duration": 0.1248,
      "velocity": 60,
      "chip": "ym2612"
    },
    {
      "channel": 0,
      "note": 58,
      "start": 19.3128,
      "duration": 0.0636,
      "velocity": 105,
      "chip": "ym2612"
    },
    {
      "channel": 3,
      "note": 55,
      "start": 19.3156,
      "duration": 0.061,
      "velocity": 127,
      "chip": "ym2612"
    },
    {
      "channel": 0,
      "note": 55,
      "start": 19.4628,
      "duration": 0.0637,
      "velocity": 105,
      "chip": "ym2612"
    },
    {
      "channel": 3,
      "note": 55,
      "start": 19.4655,
      "duration": 0.0612,
      "velocity": 127,
      "chip": "ym2612"
    },
    {
      "channel": 2,
      "note": 93,
      "start": 19.4684,
      "duration": 0.1251,
      "velocity": 60,
      "chip": "ym2612"
    },
    {
      "channel": 0,
      "note": 51,
      "start": 19.6128,
      "duration": 0.0637,
      "velocity": 105,
      "chip": "ym2612"
    },
    {
      "channel": 3,
      "note": 55,
      "start": 19.6156,
      "duration": 0.0611,
      "velocity": 127,
      "chip": "ym2612"
    },
    {
      "channel": 0,
      "note": 58,
      "start": 19.7628,
      "duration": 0.0637,
      "velocity": 105,
      "chip": "ym2612"
    },
    {
      "channel": 3,
      "note": 55,
      "start": 19.7661,
      "duration": 0.0605,
      "velocity": 127,
      "chip": "ym2612"
    },
    {
      "channel": 5,
      "note": 67,
      "start": 19.7694,
      "duration": 0.0739,
      "velocity": 1,
      "chip": "ym2612"
    },
    {
      "channel": 2,
      "note": 93,
      "start": 19.7723,
      "duration": 0.121,
      "velocity": 60,
      "chip": "ym2612"
    },
    {
      "channel": 0,
      "note": 55,
      "start": 19.9128,
      "duration": 0.0636,
      "velocity": 105,
      "chip": "ym2612"
    },
    {
      "channel": 5,
      "note": 55,
      "start": 19.9158,
      "duration": 0.0775,
      "velocity": 1,
      "chip": "ym2612"
    },
    {
      "channel": 0,
      "note": 51,
      "start": 20.0627,
      "duration": 0.0637,
      "velocity": 105,
      "chip": "ym2612"
    },
    {
      "channel": 5,
      "note": 67,
      "start": 20.0659,
      "duration": 0.0608,
      "velocity": 1,
      "chip": "ym2612"
    },
    {
      "channel": 2,
      "note": 93,
      "start": 20.0692,
      "duration": 0.1242,
      "velocity": 60,
      "chip": "ym2612"
    },
    {
      "channel": 0,
      "note": 58,
      "start": 20.2132,
      "duration": 0.0634,
      "velocity": 105,
      "chip": "ym2612"
    },
    {
      "channel": 5,
      "note": 55,
      "start": 20.2163,
      "duration": 0.077,
      "velocity": 1,
      "chip": "ym2612"
    },
    {
      "channel": 0,
      "note": 55,
      "start": 20.3628,
      "duration": 0.0637,
      "velocity": 105,
      "chip": "ym2612"
    },
    {
      "channel": 5,
      "note": 67,
      "start": 20.3658,
      "duration": 0.0775,
      "velocity": 1,
      "chip": "ym2612"
    },
    {
      "channel": 2,
      "note": 93,
      "start": 20.3686,
      "duration": 0.1247,
      "velocity": 60,
      "chip": "ym2612"
    },
    {
      "channel": 0,
      "note": 51,
      "start": 20.5128,
      "duration": 0.0636,
      "velocity": 105,
      "chip": "ym2612"
    },
    {
      "channel": 5,
      "note": 55,
      "start": 20.5158,
      "duration": 0.0775,
      "velocity": 1,
      "chip": "ym2612"
    },
    {
      "channel": 0,
      "note": 58,
      "start": 20.6628,
      "duration": 0.0637,
      "velocity": 105,
      "chip": "ym2612"
    },
    {
      "channel": 5,
      "note": 67,
      "start": 20.6659,
      "duration": 0.0608,
      "velocity": 1,
      "chip": "ym2612"
    },
    {
      "channel": 2,
      "note": 93,
      "start": 20.6689,
      "duration": 0.1245,
      "velocity": 60,
      "chip": "ym2612"
    },
    {
      "channel": 0,
      "note": 55,
      "start": 20.8128,
      "duration": 0.0637,
      "velocity": 105,
      "chip": "ym2612"
    },
    {
      "channel": 5,
      "note": 55,
      "start": 20.8162,
      "duration": 0.0605,
      "velocity": 1,
      "chip": "ym2612"
    },
    {
      "channel": 0,
      "note": 51,
      "start": 20.9628,
      "duration": 0.0637,
      "velocity": 105,
      "chip": "ym2612"
    },
    {
      "channel": 5,
      "note": 67,
      "start": 20.9659,
      "duration": 0.0609,
      "velocity": 1,
      "chip": "ym2612"
    },
    {
      "channel": 2,
      "note": 93,
      "start": 20.9692,
      "duration": 0.1242,
      "velocity": 60,
      "chip": "ym2612"
    },
    {
      "channel": 0,
      "note": 58,
      "start": 21.1128,
      "duration": 0.0637,
      "velocity": 105,
      "chip": "ym2612"
    },
    {
      "channel": 5,
      "note": 55,
      "start": 21.116,
      "duration": 0.0773,
      "velocity": 1,
      "chip": "ym2612"
    },
    {
      "channel": 0,
      "note": 55,
      "start": 21.2628,
      "duration": 0.0637,
      "velocity": 105,
      "chip": "ym2612"
    },
    {
      "channel": 5,
      "note": 67,
      "start": 21.2659,
      "duration": 0.0775,
      "velocity": 1,
      "chip": "ym2612"
    },
    {
      "channel": 2,
      "note": 93,
      "start": 21.2689,
      "duration": 0.1245,
      "velocity": 60,
      "chip": "ym2612"
    },
    {
      "channel": 0,
      "note": 51,
      "start": 21.4128,
      "duration": 0.0636,
      "velocity": 105,
      "chip": "ym2612"
    },
    {
      "channel": 5,
      "note": 55,
      "start": 21.4161,
      "duration": 0.0771,
      "velocity": 1,
      "chip": "ym2612"
    },
    {
      "channel": 0,
      "note": 60,
      "start": 21.5655,
      "duration": 0.061,
      "velocity": 105,
      "chip": "ym2612"
    },
    {
      "channel": 3,
      "note": 58,
      "start": 21.5684,
      "duration": 0.0583,
      "velocity": 127,
      "chip": "ym2612"
    },
    {
      "channel": 1,
      "note": 96,
      "start": 21.5717,
      "duration": 0.0049,
      "velocity": 72,
      "chip": "ym2612"
    },
    {
      "channel": 1,
      "note": 91,
      "start": 21.5968,
      "duration": 0.0464,
      "velocity": 72,
      "chip": "ym2612"
    },
    {
      "channel": 4,
      "note": 94,
      "start": 21.6299,
      "duration": 0.0468,
      "velocity": 72,
      "chip": "ym2612"
    },
    {
      "channel": 1,
      "note": 96,
      "start": 21.6629,
      "duration": 0.0636,
      "velocity": 72,
      "chip": "ym2612"
    },
    {
      "channel": 0,
      "note": 55,
      "start": 21.7128,
      "duration": 0.0637,
      "velocity": 105,
      "chip": "ym2612"
    },
    {
      "channel": 4,
      "note": 91,
      "start": 21.7155,
      "duration": 0.0445,
      "velocity": 72,
      "chip": "ym2612"
    },
    {
      "channel": 1,
      "note": 94,
      "start": 21.7463,
      "duration": 0.0135,
      "velocity": 72,
      "chip": "ym2612"
    },
    {
      "channel": 1,
      "note": 103,
      "start": 21.7798,
      "duration": 0.0467,
      "velocity": 72,
      "chip": "ym2612"
    },
    {
      "channel": 4,
      "note": 99,
      "start": 21.8132,
      "duration": 0.0135,
      "velocity": 72,
      "chip": "ym2612"
    },
    {
      "channel": 0,
      "note": 51,
      "start": 21.8628,
      "duration": 0.0636,
      "velocity": 105,
      "chip": "ym2612"
    },
    {
      "channel": 3,
      "note": 58,
      "start": 21.8657,
      "duration": 0.061,
      "velocity": 127,
      "chip": "ym2612"
    },
    {
      "channel": 1,
      "note": 101,
      "start": 21.8682,
      "duration": 0.0083,
      "velocity": 72,
      "chip": "ym2612"
    },
    {
      "channel": 1,
      "note": 103,
      "start": 21.8964,
      "duration": 0.0468,
      "velocity": 72,
      "chip": "ym2612"
    },
    {
      "channel": 4,
      "note": 101,
      "start": 21.9301,
      "duration": 0.0133,
      "velocity": 72,
      "chip": "ym2612"
    },
    {
      "channel": 2,
      "note": 99,
      "start": 21.9332,
      "duration": 0.0104,
      "velocity": 72,
      "chip": "ym2612"
    },
    {
      "channel": 1,
      "note": 96,
      "start": 21.9629,
      "duration": 0.0136,
      "velocity": 72,
      "chip": "ym2612"
    },
    {
      "channel": 0,
      "note": 60,
      "start": 22.0128,
      "duration": 0.0637,
      "velocity": 105,
      "chip": "ym2612"
    },
    {
      "channel": 3,
      "note": 58,
      "start": 22.0155,
      "duration": 0.0611,
      "velocity": 127,
      "chip": "ym2612"
    },
    {
      "channel": 1,
      "note": 94,
      "start": 22.018,
      "duration": 0.0085,
      "velocity": 72,
      "chip": "ym2612"
    },
    {
      "channel": 1,
      "note": 91,
      "start": 22.0462,
      "duration": 0.0136,
      "velocity": 72,
      "chip": "ym2612"
    },
    {
      "channel": 1,
      "note": 84,
      "start": 22.0797,
      "duration": 0.0135,
      "velocity": 72,
      "chip": "ym2612"
    },
    {
      "channel": 1,
      "note": 77,
      "start": 22.1128,
      "duration": 0.0136,
      "velocity": 72,
      "chip": "ym2612"
    },
    {
      "channel": 0,
      "note": 55,
      "start": 22.1628,
      "duration": 0.0638,
      "velocity": 105,
      "chip": "ym2612"
    },
    {
      "channel": 3,
      "note": 58,
      "start": 22.1654,
      "duration": 0.0612,
      "velocity": 127,
      "chip": "ym2612"
    },
    {
      "channel": 1,
      "note": 91,
      "start": 22.168,
      "duration": 0.0085,
      "velocity": 72,
      "chip": "ym2612"
    },
    {
      "channel": 1,
      "note": 82,
      "start": 22.1962,
      "duration": 0.0137,
      "velocity": 72,
      "chip": "ym2612"
    },
    {
      "channel": 1,
      "note": 84,
      "start": 22.2298,
      "duration": 0.0134,
      "velocity": 72,
      "chip": "ym2612"
    },
    {
      "channel": 1,
      "note": 87,
      "start": 22.2628,
      "duration": 0.0136,
      "velocity": 72,
      "chip": "ym2612"
    },
    {
      "channel": 0,
      "note": 51,
      "start": 22.3128,
      "duration": 0.0638,
      "velocity": 105,
      "chip": "ym2612"
    },
    {
      "channel": 3,
      "note": 58,
      "start": 22.3154,
      "duration": 0.0612,
      "velocity": 127,
      "chip": "ym2612"
    },
    {
      "channel": 1,
      "note": 96,
      "start": 22.318,
      "duration": 0.0085,
      "velocity": 72,
      "chip": "ym2612"
    },
    {
      "channel": 1,
      "note": 75,
      "start": 22.3462,
      "duration": 0.0137,
      "velocity": 72,
      "chip": "ym2612"
    },
    {
      "channel": 1,
      "note": 77,
      "start": 22.3798,
      "duration": 0.0134,
      "velocity": 72,
      "chip": "ym2612"
    },
    {
      "channel": 1,
      "note": 87,
      "start": 22.4129,
      "duration": 0.0136,
      "velocity": 72,
      "chip": "ym2612"
    },
    {
      "channel": 0,
      "note": 60,
      "start": 22.4627,
      "duration": 0.0637,
      "velocity": 105,
      "chip": "ym2612"
    },
    {
      "channel": 3,
      "note": 60,
      "start": 22.4654,
      "duration": 0.0611,
      "velocity": 127,
      "chip": "ym2612"
    },
    {
      "channel": 0,
      "note": 55,
      "start": 22.6132,
      "duration": 0.0634,
      "velocity": 105,
      "chip": "ym2612"
    },
    {
      "channel": 3,
      "note": 60,
      "start": 22.6159,
      "duration": 0.0608,
      "velocity": 127,
      "chip": "ym2612"
    },
    {
      "channel": 0,
      "note": 51,
      "start": 22.746,
      "duration": 0.0804,
      "velocity": 105,
      "chip": "ym2612"
    },
    {
      "channel": 3,
      "note": 60,
      "start": 22.7488,
      "duration": 0.0779,
      "velocity": 127,
      "chip": "ym2612"
    },
    {
      "channel": 0,
      "note": 60,
      "start": 22.896,
      "duration": 0.0804,
      "velocity": 105,
      "chip": "ym2612"
    },
    {
      "channel": 3,
      "note": 60,
      "start": 22.8988,
      "duration": 0.0779,
      "velocity": 127,
      "chip": "ym2612"
    },
    {
      "channel": 0,
      "note": 55,
      "start": 23.046,
      "duration": 0.0804,
      "velocity": 105,
      "chip": "ym2612"
    },
    {
      "channel": 3,
      "note": 60,
      "start": 23.0488,
      "duration": 0.0779,
      "velocity": 127,
      "chip": "ym2612"
    },
    {
      "channel": 0,
      "note": 51,
      "start": 23.196,
      "duration": 0.0804,
      "velocity": 105,
      "chip": "ym2612"
    },
    {
      "channel": 3,
      "note": 60,
      "start": 23.1988,
      "duration": 0.0779,
      "velocity": 127,
      "chip": "ym2612"
    },
    {
      "channel": 0,
      "note": 60,
      "start": 23.346,
      "duration": 0.0805,
      "velocity": 105,
      "chip": "ym2612"
    },
    {
      "channel": 3,
      "note": 58,
      "start": 23.3493,
      "duration": 0.0774,
      "velocity": 127,
      "chip": "ym2612"
    },
    {
      "channel": 1,
      "note": 96,
      "start": 23.3523,
      "duration": 0.0242,
      "velocity": 72,
      "chip": "ym2612"
    },
    {
      "channel": 1,
      "note": 91,
      "start": 23.3963,
      "duration": 0.0469,
      "velocity": 72,
      "chip": "ym2612"
    },
    {
      "channel": 4,
      "note": 94,
      "start": 23.4299,
      "duration": 0.0468,
      "velocity": 72,
      "chip": "ym2612"
    },
    {
      "channel": 1,
      "note": 96,
      "start": 23.4629,
      "duration": 0.0637,
      "velocity": 72,
      "chip": "ym2612"
    },
    {
      "channel": 0,
      "note": 55,
      "start": 23.4961,
      "duration": 0.0805,
      "velocity": 105,
      "chip": "ym2612"
    },
    {
      "channel": 4,
      "note": 91,
      "start": 23.4988,
      "duration": 0.0612,
      "velocity": 72,
      "chip": "ym2612"
    },
    {
      "channel": 1,
      "note": 94,
      "start": 23.5463,
      "duration": 0.0135,
      "velocity": 72,
      "chip": "ym2612"
    },
    {
      "channel": 1,
      "note": 103,
      "start": 23.5799,
      "duration": 0.0467,
      "velocity": 72,
      "chip": "ym2612"
    },
    {
      "channel": 4,
      "note": 99,
      "start": 23.6132,
      "duration": 0.0135,
      "velocity": 72,
      "chip": "ym2612"
    },
    {
      "channel": 0,
      "note": 51,
      "start": 23.6462,
      "duration": 0.0803,
      "velocity": 105,
      "chip": "ym2612"
    },
    {
      "channel": 3,
      "note": 58,
      "start": 23.649,
      "duration": 0.0776,
      "velocity": 127,
      "chip": "ym2612"
    },
    {
      "channel": 1,
      "note": 101,
      "start": 23.6516,
      "duration": 0.0249,
      "velocity": 72,
      "chip": "ym2612"
    },
    {
      "channel": 1,
      "note": 103,
      "start": 23.6965,
      "duration": 0.0467,
      "velocity": 72,
      "chip": "ym2612"
    },
    {
      "channel": 4,
      "note": 101,
      "start": 23.7305,
      "duration": 0.0128,
      "velocity": 72,
      "chip": "ym2612"
    },
    {
      "channel": 2,
      "note": 99,
      "start": 23.7332,
      "duration": 0.0104,
      "velocity": 72,
      "chip": "ym2612"
    },
    {
      "channel": 1,
      "note": 96,
      "start": 23.7629,
      "duration": 0.0136,
      "velocity": 72,
      "chip": "ym2612"
    },
    {
      "channel": 0,
      "note": 60,
      "start": 23.7961,
      "duration": 0.0803,
      "velocity": 105,
      "chip": "ym2612"
    },
    {
      "channel": 3,
      "note": 58,
      "start": 23.799,
      "duration": 0.0777,
      "velocity": 127,
      "chip": "ym2612"
    },
    {
      "channel": 1,
      "note": 94,
      "start": 23.8015,
      "duration": 0.0083,
      "velocity": 72,
      "chip": "ym2612"
    },
    {
      "channel": 1,
      "note": 91,
      "start": 23.8462,
      "duration": 0.0137,
      "velocity": 72,
      "chip": "ym2612"
    },
    {
      "channel": 1,
      "note": 84,
      "start": 23.8798,
      "duration": 0.0135,
      "velocity": 72,
      "chip": "ym2612"
    },
    {
      "channel": 1,
      "note": 77,
      "start": 23.9129,
      "duration": 0.0136,
      "velocity": 72,
      "chip": "ym2612"
    },
    {
      "channel": 0,
      "note": 55,
      "start": 23.9461,
      "duration": 0.0803,
      "velocity": 105,
      "chip": "ym2612"
    },
    {
      "channel": 1,
      "note": 91,
      "start": 23.9487,
      "duration": 0.0111,
      "velocity": 72,
      "chip": "ym2612"
    },
    {
      "channel": 1,
      "note": 82,
      "start": 23.9962,
      "duration": 0.0137,
      "velocity": 72,
      "chip": "ym2612"
    },
    {
      "channel": 1,
      "note": 84,
      "start": 24.0296,
      "duration": 0.0136,
      "velocity": 72,
      "chip": "ym2612"
    },
    {
      "channel": 1,
      "note": 87,
      "start": 24.0629,
      "duration": 0.0136,
      "velocity": 72,
      "chip": "ym2612"
    },
    {
      "channel": 0,
      "note": 51,
      "start": 24.0961,
      "duration": 0.0803,
      "velocity": 105,
      "chip": "ym2612"
    },
    {
      "channel": 3,
      "note": 58,
      "start": 24.099,
      "duration": 0.0777,
      "velocity": 127,
      "chip": "ym2612"
    },
    {
      "channel": 1,
      "note": 96,
      "start": 24.1015,
      "duration": 0.0083,
      "velocity": 72,
      "chip": "ym2612"
    },
    {
      "channel": 1,
      "note": 75,
      "start": 24.1462,
      "duration": 0.0137,
      "velocity": 72,
      "chip": "ym2612"
    },
    {
      "channel": 1,
      "note": 77,
      "start": 24.1801,
      "duration": 0.0131,
      "velocity": 72,
      "chip": "ym2612"
    },
    {
      "channel": 1,
      "note": 87,
      "start": 24.2129,
      "duration": 0.0136,
      "velocity": 72,
      "chip": "ym2612"
    },
    {
      "channel": 0,
      "note": 60,
      "start": 24.2462,
      "duration": 0.0803,
      "velocity": 105,
      "chip": "ym2612"
    },
    {
      "channel": 3,
      "note": 60,
      "start": 24.2488,
      "duration": 0.0778,
      "velocity": 127,
      "chip": "ym2612"
    },
    {
      "channel": 1,
      "note": 99,
      "start": 24.2514,
      "duration": 0.0085,
      "velocity": 72,
      "chip": "ym2612"
    },
    {
      "channel": 1,
      "note": 101,
      "start": 24.2963,
      "duration": 0.0136,
      "velocity": 72,
      "chip": "ym2612"
    },
    {
      "channel": 1,
      "note": 103,
      "start": 24.3298,
      "duration": 0.0135,
      "velocity": 72,
      "chip": "ym2612"
    },
    {
      "channel": 1,
      "note": 94,
      "start": 24.3629,
      "duration": 0.0136,
      "velocity": 72,
      "chip": "ym2612"
    },
    {
      "channel": 0,
      "note": 55,
      "start": 24.3961,
      "duration": 0.0803,
      "velocity": 105,
      "chip": "ym2612"
    },
    {
      "channel": 3,
      "note": 60,
      "start": 24.3988,
      "duration": 0.0779,
      "velocity": 127,
      "chip": "ym2612"
    },
    {
      "channel": 1,
      "note": 91,
      "start": 24.4013,
      "duration": 0.0085,
      "velocity": 72,
      "chip": "ym2612"
    },
    {
      "channel": 1,
      "note": 87,
      "start": 24.4462,
      "duration": 0.0136,
      "velocity": 72,
      "chip": "ym2612"
    },
    {
      "channel": 1,
      "note": 82,
      "start": 24.4797,
      "duration": 0.0135,
      "velocity": 72,
      "chip": "ym2612"
    },
    {
      "channel": 1,
      "note": 77,
      "start": 24.5128,
      "duration": 0.0136,
      "velocity": 72,
      "chip": "ym2612"
    },
    {
      "channel": 0,
      "note": 51,
      "start": 24.5462,
      "duration": 0.0804,
      "velocity": 105,
      "chip": "ym2612"
    },
    {
      "channel": 3,
      "note": 60,
      "start": 24.5489,
      "duration": 0.0778,
      "velocity": 127,
      "chip": "ym2612"
    },
    {
      "channel": 1,
      "note": 75,
      "start": 24.5515,
      "duration": 0.0085,
      "velocity": 72,
      "chip": "ym2612"
    },
    {
      "channel": 1,
      "note": 72,
      "start": 24.5962,
      "duration": 0.0137,
      "velocity": 72,
      "chip": "ym2612"
    },
    {
      "channel": 1,
      "note": 65,
      "start": 24.6298,
      "duration": 0.0134,
      "velocity": 72,
      "chip": "ym2612"
    },
    {
      "channel": 1,
      "note": 60,
      "start": 24.6628,
      "duration": 0.0136,
      "velocity": 72,
      "chip": "ym2612"
    },
    {
      "channel": 0,
      "note": 60,
      "start": 24.6962,
      "duration": 0.0804,
      "velocity": 105,
      "chip": "ym2612"
    },
    {
      "channel": 3,
      "note": 60,
      "start": 24.6989,
      "duration": 0.0778,
      "velocity": 127,
      "chip": "ym2612"
    },
    {
      "channel": 1,
      "note": 55,
      "start": 24.7015,
      "duration": 0.0085,
      "velocity": 72,
      "chip": "ym2612"
    },
    {
      "channel": 1,
      "note": 91,
      "start": 24.7462,
      "duration": 0.0137,
      "velocity": 72,
      "chip": "ym2612"
    },
    {
      "channel": 1,
      "note": 94,
      "start": 24.7802,
      "duration": 0.013,
      "velocity": 72,
      "chip": "ym2612"
    },
    {
      "channel": 1,
      "note": 99,
      "start": 24.8129,
      "duration": 0.0136,
      "velocity": 72,
      "chip": "ym2612"
    },
    {
      "channel": 0,
      "note": 55,
      "start": 24.8461,
      "duration": 0.0803,
      "velocity": 105,
      "chip": "ym2612"
    },
    {
      "channel": 3,
      "note": 60,
      "start": 24.8488,
      "duration": 0.0779,
      "velocity": 127,
      "chip": "ym2612"
    },
    {
      "channel": 1,
      "note": 101,
      "start": 24.8513,
      "duration": 0.0085,
      "velocity": 72,
      "chip": "ym2612"
    },
    {
      "channel": 1,
      "note": 103,
      "start": 24.8798,
      "duration": 0.03,
      "velocity": 72,
      "chip": "ym2612"
    },
    {
      "channel": 0,
      "note": 51,
      "start": 24.9965,
      "duration": 0.08,
      "velocity": 105,
      "chip": "ym2612"
    },
    {
      "channel": 3,
      "note": 60,
      "start": 24.9992,
      "duration": 0.0774,
      "velocity": 127,
      "chip": "ym2612"
    },
    {
      "channel": 0,
      "note": 58,
      "start": 25.1461,
      "duration": 0.0803,
      "velocity": 105,
      "chip": "ym2612"
    },
    {
      "channel": 3,
      "note": 58,
      "start": 25.149,
      "duration": 0.0776,
      "velocity": 127,
      "chip": "ym2612"
    },
    {
      "channel": 0,
      "note": 55,
      "start": 25.2961,
      "duration": 0.0804,
      "velocity": 105,
      "chip": "ym2612"
    },
    {
      "channel": 0,
      "note": 51,
      "start": 25.4461,
      "duration": 0.0805,
      "velocity": 105,
      "chip": "ym2612"
    },
    {
      "channel": 3,
      "note": 58,
      "start": 25.4488,
      "duration": 0.0778,
      "velocity": 127,
      "chip": "ym2612"
    },
    {
      "channel": 5,
      "note": 93,
      "start": 25.4519,
      "duration": 0.1248,
      "velocity": 60,
      "chip": "ym2612"
    },
    {
      "channel": 0,
      "note": 58,
      "start": 25.5961,
      "duration": 0.0804,
      "velocity": 105,
      "chip": "ym2612"
    },
    {
      "channel": 0,
      "note": 55,
      "start": 25.7462,
      "duration": 0.0804,
      "velocity": 105,
      "chip": "ym2612"
    },
    {
      "channel": 3,
      "note": 60,
      "start": 25.7493,
      "duration": 0.0773,
      "velocity": 127,
      "chip": "ym2612"
    },
    {
      "channel": 5,
      "note": 93,
      "start": 25.7523,
      "duration": 0.1244,
      "velocity": 60,
      "chip": "ym2612"
    },
    {
      "channel": 0,
      "note": 51,
      "start": 25.8961,
      "duration": 0.0804,
      "velocity": 105,
      "chip": "ym2612"
    },
    {
      "channel": 3,
      "note": 60,
      "start": 25.8988,
      "duration": 0.0778,
      "velocity": 127,
      "chip": "ym2612"
    },
    {
      "channel": 0,
      "note": 58,
      "start": 26.046,
      "duration": 0.0805,
      "velocity": 105,
      "chip": "ym2612"
    },
    {
      "channel": 3,
      "note": 58,
      "start": 26.0489,
      "duration": 0.0778,
      "velocity": 127,
      "chip": "ym2612"
    },
    {
      "channel": 5,
      "note": 93,
      "start": 26.0519,
      "duration": 0.1248,
      "velocity": 60,
      "chip": "ym2612"
    },
    {
      "channel": 0,
      "note": 55,
      "start": 26.196,
      "duration": 0.0805,
      "velocity": 105,
      "chip": "ym2612"
    },
    {
      "channel": 0,
      "note": 51,
      "start": 26.346,
      "duration": 0.0804,
      "velocity": 105,
      "chip": "ym2612"
    },
    {
      "channel": 3,
      "note": 58,
      "start": 26.3488,
      "duration": 0.0779,
      "velocity": 127,
      "chip": "ym2612"
    },
    {
      "channel": 5,
      "note": 93,
      "start": 26.3521,
      "duration": 0.1246,
      "velocity": 60,
      "chip": "ym2612"
    },
    {
      "channel": 0,
      "note": 58,
      "start": 26.4962,
      "duration": 0.0803,
      "velocity": 105,
      "chip": "ym2612"
    },
    {
      "channel": 4,
      "note": 103,
      "start": 26.5306,
      "duration": 0.0127,
      "velocity": 92,
      "chip": "ym2612"
    },
    {
      "channel": 4,
      "note": 108,
      "start": 26.5808,
      "duration": 0.0124,
      "velocity": 92,
      "chip": "ym2612"
    },
    {
      "channel": 0,
      "note": 55,
      "start": 26.646,
      "duration": 0.0805,
      "velocity": 105,
      "chip": "ym2612"
    },
    {
      "channel": 3,
      "note": 60,
      "start": 26.6489,
      "duration": 0.0778,
      "velocity": 127,
      "chip": "ym2612"
    },
    {
      "channel": 5,
      "note": 93,
      "start": 26.6517,
      "duration": 0.1251,
      "velocity": 60,
      "chip": "ym2612"
    },
    {
      "channel": 4,
      "note": 106,
      "start": 26.6548,
      "duration": 0.0052,
      "velocity": 92,
      "chip": "ym2612"
    },
    {
      "channel": 4,
      "note": 113,
      "start": 26.6804,
      "duration": 0.0129,
      "velocity": 92,
      "chip": "ym2612"
    },
    {
      "channel": 4,
      "note": 113,
      "start": 26.7637,
      "duration": 0.0129,
      "velocity": 92,
      "chip": "ym2612"
    },
    {
      "channel": 0,
      "note": 51,
      "start": 26.7962,
      "duration": 0.0803,
      "velocity": 105,
      "chip": "ym2612"
    },
    {
      "channel": 3,
      "note": 60,
      "start": 26.7988,
      "duration": 0.0778,
      "velocity": 127,
      "chip": "ym2612"
    },
    {
      "channel": 4,
      "note": 111,
      "start": 26.8022,
      "duration": 0.0077,
      "velocity": 92,
      "chip": "ym2612"
    },
    {
      "channel": 4,
      "note": 99,
      "start": 26.8806,
      "duration": 0.0127,
      "velocity": 92,
      "chip": "ym2612"
    },
    {
      "channel": 0,
      "note": 58,
      "start": 26.9461,
      "duration": 0.0637,
      "velocity": 105,
      "chip": "ym2612"
    },
    {
      "channel": 3,
      "note": 58,
      "start": 26.949,
      "duration": 0.061,
      "velocity": 127,
      "chip": "ym2612"
    },
    {
      "channel": 5,
      "note": 93,
      "start": 26.9519,
      "duration": 0.1248,
      "velocity": 60,
      "chip": "ym2612"
    },
    {
      "channel": 0,
      "note": 55,
      "start": 27.096,
      "duration": 0.0637,
      "velocity": 105,
      "chip": "ym2612"
    },
    {
      "channel": 0,
      "note": 51,
      "start": 27.246,
      "duration": 0.0638,
      "velocity": 105,
      "chip": "ym2612"
    },
    {
      "channel": 3,
      "note": 58,
      "start": 27.2488,
      "duration": 0.0612,
      "velocity": 127,
      "chip": "ym2612"
    },
    {
      "channel": 5,
      "note": 93,
      "start": 27.2521,
      "duration": 0.1246,
      "velocity": 60,
      "chip": "ym2612"
    },
    {
      "channel": 0,
      "note": 58,
      "start": 27.3965,
      "duration": 0.0633,
      "velocity": 105,
      "chip": "ym2612"
    },
    {
      "channel": 0,
      "note": 55,
      "start": 27.546,
      "duration": 0.0637,
      "velocity": 105,
      "chip": "ym2612"
    },
    {
      "channel": 3,
      "note": 60,
      "start": 27.549,
      "duration": 0.0942,
      "velocity": 127,
      "chip": "ym2612"
    },
    {
      "channel": 5,
      "note": 93,
      "start": 27.5519,
      "duration": 0.1248,
      "velocity": 60,
      "chip": "ym2612"
    },
    {
      "channel": 0,
      "note": 51,
      "start": 27.6961,
      "duration": 0.0637,
      "velocity": 105,
      "chip": "ym2612"
    },
    {
      "channel": 3,
      "note": 60,
      "start": 27.6993,
      "duration": 0.0606,
      "velocity": 127,
      "chip": "ym2612"
    },
    {
      "channel": 0,
      "note": 58,
      "start": 27.8461,
      "duration": 0.0638,
      "velocity": 105,
      "chip": "ym2612"
    },
    {
      "channel": 3,
      "note": 58,
      "start": 27.8488,
      "duration": 0.0612,
      "velocity": 127,
      "chip": "ym2612"
    },
    {
      "channel": 2,
      "note": 67,
      "start": 27.8522,
      "duration": 0.0581,
      "velocity": 1,
      "chip": "ym2612"
    },
    {
      "channel": 5,
      "note": 93,
      "start": 27.855,
      "duration": 0.1217,
      "velocity": 60,
      "chip": "ym2612"
    },
    {
      "channel": 4,
      "note": 103,
      "start": 27.8804,
      "duration": 0.013,
      "velocity": 92,
      "chip": "ym2612"
    },
    {
      "channel": 4,
      "note": 108,
      "start": 27.9141,
      "duration": 0.0292,
      "velocity": 92,
      "chip": "ym2612"
    },
    {
      "channel": 0,
      "note": 55,
      "start": 27.9961,
      "duration": 0.0637,
      "velocity": 105,
      "chip": "ym2612"
    },
    {
      "channel": 3,
      "note": 58,
      "start": 27.9988,
      "duration": 0.0612,
      "velocity": 127,
      "chip": "ym2612"
    },
    {
      "channel": 2,
      "note": 55,
      "start": 28.0018,
      "duration": 0.0584,
      "velocity": 1,
      "chip": "ym2612"
    },
    {
      "channel": 4,
      "note": 106,
      "start": 28.0054,
      "duration": 0.0045,
      "velocity": 92,
      "chip": "ym2612"
    },
    {
      "channel": 4,
      "note": 113,
      "start": 28.0304,
      "duration": 0.0129,
      "velocity": 92,
      "chip": "ym2612"
    },
    {
      "channel": 4,
      "note": 113,
      "start": 28.1138,
      "duration": 0.0128,
      "velocity": 92,
      "chip": "ym2612"
    },
    {
      "channel": 0,
      "note": 51,
      "start": 28.146,
      "duration": 0.0637,
      "velocity": 105,
      "chip": "ym2612"
    },
    {
      "channel": 3,
      "note": 58,
      "start": 28.1488,
      "duration": 0.0612,
      "velocity": 127,
      "chip": "ym2612"
    },
    {
      "channel": 2,
      "note": 65,
      "start": 28.1518,
      "duration": 0.0584,
      "velocity": 1,
      "chip": "ym2612"
    },
    {
      "channel": 5,
      "note": 93,
      "start": 28.1546,
      "duration": 0.1221,
      "velocity": 60,
      "chip": "ym2612"
    },
    {
      "channel": 4,
      "note": 111,
      "start": 28.1577,
      "duration": 0.0023,
      "velocity": 92,
      "chip": "ym2612"
    },
    {
      "channel": 4,
      "note": 99,
      "start": 28.2141,
      "duration": 0.0125,
      "velocity": 92,
      "chip": "ym2612"
    },
    {
      "channel": 0,
      "note": 58,
      "start": 28.2961,
      "duration": 0.0637,
      "velocity": 105,
      "chip": "ym2612"
    },
    {
      "channel": 3,
      "note": 58,
      "start": 28.2988,
      "duration": 0.0611,
      "velocity": 127,
      "chip": "ym2612"
    },
    {
      "channel": 2,
      "note": 55,
      "start": 28.3018,
      "duration": 0.0583,
      "velocity": 1,
      "chip": "ym2612"
    },
    {
      "channel": 0,
      "note": 55,
      "start": 28.4461,
      "duration": 0.0638,
      "velocity": 105,
      "chip": "ym2612"
    },
    {
      "channel": 3,
      "note": 58,
      "start": 28.4488,
      "duration": 0.0612,
      "velocity": 127,
      "chip": "ym2612"
    },
    {
      "channel": 2,
      "note": 67,
      "start": 28.4518,
      "duration": 0.0585,
      "velocity": 1,
      "chip": "ym2612"
    },
    {
      "channel": 5,
      "note": 93,
      "start": 28.4548,
      "duration": 0.1219,
      "velocity": 60,
      "chip": "ym2612"
    },
    {
      "channel": 0,
      "note": 51,
      "start": 28.5961,
      "duration": 0.0637,
      "velocity": 105,
      "chip": "ym2612"
    },
    {
      "channel": 3,
      "note": 58,
      "start": 28.5988,
      "duration": 0.0612,
      "velocity": 127,
      "chip": "ym2612"
    },
    {
      "channel": 2,
      "note": 55,
      "start": 28.6025,
      "duration": 0.0578,
      "velocity": 1,
      "chip": "ym2612"
    },
    {
      "channel": 0,
      "note": 60,
      "start": 28.7488,
      "duration": 0.0611,
      "velocity": 105,
      "chip": "ym2612"
    },
    {
      "channel": 3,
      "note": 58,
      "start": 28.7517,
      "duration": 0.0583,
      "velocity": 127,
      "chip": "ym2612"
    },
    {
      "channel": 1,
      "note": 99,
      "start": 28.7796,
      "duration": 0.0137,
      "velocity": 72,
      "chip": "ym2612"
    },
    {
      "channel": 1,
      "note": 101,
      "start": 28.8133,
      "duration": 0.0132,
      "velocity": 72,
      "chip": "ym2612"
    },
    {
      "channel": 0,
      "note": 55,
      "start": 28.8961,
      "duration": 0.0637,
      "velocity": 105,
      "chip": "ym2612"
    },
    {
      "channel": 1,
      "note": 99,
      "start": 28.8989,
      "duration": 0.011,
      "velocity": 72,
      "chip": "ym2612"
    },
    {
      "channel": 1,
      "note": 94,
      "start": 28.9301,
      "duration": 0.0132,
      "velocity": 72,
      "chip": "ym2612"
    },
    {
      "channel": 1,
      "note": 91,
      "start": 29.0131,
      "duration": 0.0135,
      "velocity": 72,
      "chip": "ym2612"
    },
    {
      "channel": 0,
      "note": 51,
      "start": 29.0461,
      "duration": 0.0637,
      "velocity": 105,
      "chip": "ym2612"
    },
    {
      "channel": 3,
      "note": 58,
      "start": 29.049,
      "duration": 0.061,
      "velocity": 127,
      "chip": "ym2612"
    },
    {
      "channel": 1,
      "note": 94,
      "start": 29.0517,
      "duration": 0.0082,
      "velocity": 72,
      "chip": "ym2612"
    },
    {
      "channel": 1,
      "note": 91,
      "start": 29.1132,
      "duration": 0.0134,
      "velocity": 72,
      "chip": "ym2612"
    },
    {
      "channel": 1,
      "note": 87,
      "start": 29.1463,
      "duration": 0.0302,
      "velocity": 72,
      "chip": "ym2612"
    },
    {
      "channel": 0,
      "note": 60,
      "start": 29.196,
      "duration": 0.0638,
      "velocity": 105,
      "chip": "ym2612"
    },
    {
      "channel": 3,
      "note": 58,
      "start": 29.1988,
      "duration": 0.0612,
      "velocity": 127,
      "chip": "ym2612"
    },
    {
      "channel": 1,
      "note": 99,
      "start": 29.2298,
      "duration": 0.0135,
      "velocity": 72,
      "chip": "ym2612"
    },
    {
      "channel": 1,
      "note": 101,
      "start": 29.2632,
      "duration": 0.0134,
      "velocity": 72,
      "chip": "ym2612"
    },
    {
      "channel": 0,
      "note": 55,
      "start": 29.3462,
      "duration": 0.0637,
      "velocity": 105,
      "chip": "ym2612"
    },
    {
      "channel": 3,
      "note": 58,
      "start": 29.3489,
      "duration": 0.0611,
      "velocity": 127,
      "chip": "ym2612"
    },
    {
      "channel": 1,
      "note": 103,
      "start": 29.3516,
      "duration": 0.0082,
      "velocity": 72,
      "chip": "ym2612"
    },
    {
      "channel": 1,
      "note": 99,
      "start": 29.3801,
      "duration": 0.0131,
      "velocity": 72,
      "chip": "ym2612"
    },
    {
      "channel": 1,
      "note": 103,
      "start": 29.4463,
      "duration": 0.0302,
      "velocity": 72,
      "chip": "ym2612"
    },
    {
      "channel": 0,
      "note": 51,
      "start": 29.496,
      "duration": 0.0638,
      "velocity": 105,
      "chip": "ym2612"
    },
    {
      "channel": 3,
      "note": 58,
      "start": 29.4988,
      "duration": 0.0612,
      "velocity": 127,
      "chip": "ym2612"
    },
    {
      "channel": 1,
      "note": 99,
      "start": 29.5015,
      "duration": 0.0084,
      "velocity": 72,
      "chip": "ym2612"
    },
    {
      "channel": 1,
      "note": 96,
      "start": 29.5632,
      "duration": 0.0134,
      "velocity": 72,
      "chip": "ym2612"
    },
    {
      "channel": 1,
      "note": 99,
      "start": 29.5963,
      "duration": 0.0302,
      "velocity": 72,
      "chip": "ym2612"
    },
    {
      "channel": 0,
      "note": 60,
      "start": 29.6461,
      "duration": 0.0637,
      "velocity": 105,
      "chip": "ym2612"
    },
    {
      "channel": 3,
      "note": 60,
      "start": 29.6488,
      "duration": 0.0611,
      "velocity": 127,
      "chip": "ym2612"
    },
    {
      "channel": 0,
      "note": 55,
      "start": 29.7965,
      "duration": 0.0634,
      "velocity": 105,
      "chip": "ym2612"
    },
    {
      "channel": 3,
      "note": 60,
      "start": 29.7992,
      "duration": 0.0609,
      "velocity": 127,
      "chip": "ym2612"
    },
    {
      "channel": 0,
      "note": 51,
      "start": 29.9461,
      "duration": 0.0637,
      "velocity": 105,
      "chip": "ym2612"
    },
    {
      "channel": 3,
      "note": 60,
      "start": 29.9492,
      "duration": 0.0607,
      "velocity": 127,
      "chip": "ym2612"
    },
    {
      "channel": 0,
      "note": 60,
      "start": 30.0962,
      "duration": 0.0637,
      "velocity": 105,
      "chip": "ym2612"
    },
    {
      "channel": 3,
      "note": 60,
      "start": 30.0989,
      "duration": 0.0611,
      "velocity": 127,
      "chip": "ym2612"
    },
    {
      "channel": 0,
      "note": 55,
      "start": 30.2461,
      "duration": 0.0637,
      "velocity": 105,
      "chip": "ym2612"
    },
    {
      "channel": 3,
      "note": 60,
      "start": 30.2488,
      "duration": 0.0611,
      "velocity": 127,
      "chip": "ym2612"
    },
    {
      "channel": 0,
      "note": 51,
      "start": 30.3962,
      "duration": 0.0637,
      "velocity": 105,
      "chip": "ym2612"
    },
    {
      "channel": 3,
      "note": 60,
      "start": 30.3988,
      "duration": 0.0611,
      "velocity": 127,
      "chip": "ym2612"
    },
    {
      "channel": 0,
      "note": 60,
      "start": 30.5461,
      "duration": 0.0637,
      "velocity": 105,
      "chip": "ym2612"
    },
    {
      "channel": 3,
      "note": 58,
      "start": 30.549,
      "duration": 0.061,
      "velocity": 127,
      "chip": "ym2612"
    },
    {
      "channel": 0,
      "note": 55,
      "start": 30.6961,
      "duration": 0.0637,
      "velocity": 105,
      "chip": "ym2612"
    },
    {
      "channel": 1,
      "note": 91,
      "start": 30.6989,
      "duration": 0.011,
      "velocity": 72,
      "chip": "ym2612"
    },
    {
      "channel": 1,
      "note": 96,
      "start": 30.7297,
      "duration": 0.0135,
      "velocity": 72,
      "chip": "ym2612"
    },
    {
      "channel": 1,
      "note": 91,
      "start": 30.7963,
      "duration": 0.0136,
      "velocity": 72,
      "chip": "ym2612"
    },
    {
      "channel": 0,
      "note": 51,
      "start": 30.846,
      "duration": 0.0638,
      "velocity": 105,
      "chip": "ym2612"
    },
    {
      "channel": 3,
      "note": 58,
      "start": 30.8489,
      "duration": 0.0611,
      "velocity": 127,
      "chip": "ym2612"
    },
    {
      "channel": 1,
      "note": 96,
      "start": 30.852,
      "duration": 0.008,
      "velocity": 72,
      "chip": "ym2612"
    },
    {
      "channel": 1,
      "note": 91,
      "start": 30.9133,
      "duration": 0.0132,
      "velocity": 72,
      "chip": "ym2612"
    },
    {
      "channel": 1,
      "note": 96,
      "start": 30.9464,
      "duration": 0.0135,
      "velocity": 72,
      "chip": "ym2612"
    },
    {
      "channel": 0,
      "note": 60,
      "start": 30.9962,
      "duration": 0.0636,
      "velocity": 105,
      "chip": "ym2612"
    },
    {
      "channel": 3,
      "note": 58,
      "start": 30.999,
      "duration": 0.061,
      "velocity": 127,
      "chip": "ym2612"
    },
    {
      "channel": 1,
      "note": 91,
      "start": 31.0297,
      "duration": 0.0135,
      "velocity": 72,
      "chip": "ym2612"
    },
    {
      "channel": 1,
      "note": 96,
      "start": 31.0632,
      "duration": 0.0134,
      "velocity": 72,
      "chip": "ym2612"
    },
    {
      "channel": 0,
      "note": 55,
      "start": 31.1462,
      "duration": 0.0637,
      "velocity": 105,
      "chip": "ym2612"
    },
    {
      "channel": 1,
      "note": 94,
      "start": 31.149,
      "duration": 0.011,
      "velocity": 72,
      "chip": "ym2612"
    },
    {
      "channel": 1,
      "note": 101,
      "start": 31.1798,
      "duration": 0.0135,
      "velocity": 72,
      "chip": "ym2612"
    },
    {
      "channel": 1,
      "note": 101,
      "start": 31.2463,
      "duration": 0.0135,
      "velocity": 72,
      "chip": "ym2612"
    },
    {
      "channel": 0,
      "note": 51,
      "start": 31.2794,
      "duration": 0.0805,
      "velocity": 105,
      "chip": "ym2612"
    },
    {
      "channel": 3,
      "note": 58,
      "start": 31.2822,
      "duration": 0.0778,
      "velocity": 127,
      "chip": "ym2612"
    },
    {
      "channel": 1,
      "note": 99,
      "start": 31.2853,
      "duration": 0.0245,
      "velocity": 72,
      "chip": "ym2612"
    },
    {
      "channel": 1,
      "note": 87,
      "start": 31.3632,
      "duration": 0.0134,
      "velocity": 72,
      "chip": "ym2612"
    },
    {
      "channel": 1,
      "note": 91,
      "start": 31.3963,
      "duration": 0.0135,
      "velocity": 72,
      "chip": "ym2612"
    },
    {
      "channel": 0,
      "note": 60,
      "start": 31.4294,
      "duration": 0.0804,
      "velocity": 105,
      "chip": "ym2612"
    },
    {
      "channel": 3,
      "note": 60,
      "start": 31.4321,
      "duration": 0.0779,
      "velocity": 127,
      "chip": "ym2612"
    },
    {
      "channel": 2,
      "note": 67,
      "start": 31.4353,
      "duration": 0.0749,
      "velocity": 1,
      "chip": "ym2612"
    },
    {
      "channel": 1,
      "note": 96,
      "start": 31.4797,
      "duration": 0.0135,
      "velocity": 72,
      "chip": "ym2612"
    },
    {
      "channel": 1,
      "note": 94,
      "start": 31.5133,
      "duration": 0.0132,
      "velocity": 72,
      "chip": "ym2612"
    },
    {
      "channel": 0,
      "note": 55,
      "start": 31.5794,
      "duration": 0.0805,
      "velocity": 105,
      "chip": "ym2612"
    },
    {
      "channel": 3,
      "note": 60,
      "start": 31.5821,
      "duration": 0.0779,
      "velocity": 127,
      "chip": "ym2612"
    },
    {
      "channel": 2,
      "note": 55,
      "start": 31.5851,
      "duration": 0.0752,
      "velocity": 1,
      "chip": "ym2612"
    },
    {
      "channel": 1,
      "note": 89,
      "start": 31.5877,
      "duration": 0.0221,
      "velocity": 72,
      "chip": "ym2612"
    },
    {
      "channel": 1,
      "note": 91,
      "start": 31.6298,
      "duration": 0.0468,
      "velocity": 72,
      "chip": "ym2612"
    },
    {
      "channel": 1,
      "note": 89,
      "start": 31.6969,
      "duration": 0.0129,
      "velocity": 72,
      "chip": "ym2612"
    },
    {
      "channel": 0,
      "note": 51,
      "start": 31.7294,
      "duration": 0.0804,
      "velocity": 105,
      "chip": "ym2612"
    },
    {
      "channel": 3,
      "note": 60,
      "start": 31.7321,
      "duration": 0.0779,
      "velocity": 127,
      "chip": "ym2612"
    },
    {
      "channel": 2,
      "note": 67,
      "start": 31.7351,
      "duration": 0.0751,
      "velocity": 1,
      "chip": "ym2612"
    },
    {
      "channel": 1,
      "note": 91,
      "start": 31.7378,
      "duration": 0.0554,
      "velocity": 72,
      "chip": "ym2612"
    },
    {
      "channel": 1,
      "note": 89,
      "start": 31.8133,
      "duration": 0.0465,
      "velocity": 72,
      "chip": "ym2612"
    },
    {
      "channel": 4,
      "note": 91,
      "start": 31.8466,
      "duration": 0.0634,
      "velocity": 72,
      "chip": "ym2612"
    },
    {
      "channel": 0,
      "note": 60,
      "start": 31.8795,
      "duration": 0.0803,
      "velocity": 105,
      "chip": "ym2612"
    },
    {
      "channel": 3,
      "note": 60,
      "start": 31.8822,
      "duration": 0.0778,
      "velocity": 127,
      "chip": "ym2612"
    },
    {
      "channel": 2,
      "note": 55,
      "start": 31.8852,
      "duration": 0.0751,
      "velocity": 1,
      "chip": "ym2612"
    },
    {
      "channel": 1,
      "note": 89,
      "start": 31.9297,
      "duration": 0.0468,
      "velocity": 72,
      "chip": "ym2612"
    },
    {
      "channel": 4,
      "note": 91,
      "start": 31.9636,
      "duration": 0.0131,
      "velocity": 72,
      "chip": "ym2612"
    },
    {
      "channel": 0,
      "note": 55,
      "start": 32.0294,
      "duration": 0.0805,
      "velocity": 105,
      "chip": "ym2612"
    },
    {
      "channel": 3,
      "note": 60,
      "start": 32.0325,
      "duration": 0.0775,
      "velocity": 127,
      "chip": "ym2612"
    },
    {
      "channel": 2,
      "note": 67,
      "start": 32.0355,
      "duration": 0.0747,
      "velocity": 1,
      "chip": "ym2612"
    },
    {
      "channel": 1,
      "note": 89,
      "start": 32.0381,
      "duration": 0.0219,
      "velocity": 72,
      "chip": "ym2612"
    },
    {
      "channel": 1,
      "note": 91,
      "start": 32.0803,
      "duration": 0.0462,
      "velocity": 72,
      "chip": "ym2612"
    },
    {
      "channel": 1,
      "note": 89,
      "start": 32.1463,
      "duration": 0.0636,
      "velocity": 72,
      "chip": "ym2612"
    },
    {
      "channel": 0,
      "note": 51,
      "start": 32.1798,
      "duration": 0.08,
      "velocity": 105,
      "chip": "ym2612"
    },
    {
      "channel": 3,
      "note": 60,
      "start": 32.1825,
      "duration": 0.0774,
      "velocity": 127,
      "chip": "ym2612"
    },
    {
      "channel": 2,
      "note": 55,
      "start": 32.1857,
      "duration": 0.0746,
      "velocity": 1,
      "chip": "ym2612"
    },
    {
      "channel": 5,
      "note": 53,
      "start": 32.1887,
      "duration": 0.0714,
      "velocity": 1,
      "chip": "ym2612"
    },
    {
      "channel": 4,
      "note": 91,
      "start": 32.1914,
      "duration": 0.0519,
      "velocity": 72,
      "chip": "ym2612"
    },
    {
      "channel": 1,
      "note": 89,
      "start": 32.2635,
      "duration": 0.0129,
      "velocity": 72,
      "chip": "ym2612"
    },
    {
      "channel": 1,
      "note": 91,
      "start": 32.2964,
      "duration": 0.0468,
      "velocity": 72,
      "chip": "ym2612"
    },
    {
      "channel": 0,
      "note": 58,
      "start": 32.3294,
      "duration": 0.0805,
      "velocity": 105,
      "chip": "ym2612"
    },
    {
      "channel": 3,
      "note": 58,
      "start": 32.3322,
      "duration": 0.0778,
      "velocity": 127,
      "chip": "ym2612"
    },
    {
      "channel": 5,
      "note": 67,
      "start": 32.3355,
      "duration": 0.0747,
      "velocity": 1,
      "chip": "ym2612"
    },
    {
      "channel": 4,
      "note": 94,
      "start": 32.3381,
      "duration": 0.0052,
      "velocity": 72,
      "chip": "ym2612"
    },
    {
      "channel": 1,
      "note": 89,
      "start": 32.3797,
      "duration": 0.0135,
      "velocity": 72,
      "chip": "ym2612"
    },
    {
      "channel": 1,
      "note": 91,
      "start": 32.4132,
      "duration": 0.0134,
      "velocity": 72,
      "chip": "ym2612"
    },
    {
      "channel": 1,
      "note": 96,
      "start": 32.4462,
      "duration": 0.0136,
      "velocity": 72,
      "chip": "ym2612"
    },
    {
      "channel": 0,
      "note": 55,
      "start": 32.4795,
      "duration": 0.0803,
      "velocity": 105,
      "chip": "ym2612"
    },
    {
      "channel": 1,
      "note": 89,
      "start": 32.4825,
      "duration": 0.0107,
      "velocity": 72,
      "chip": "ym2612"
    },
    {
      "channel": 1,
      "note": 91,
      "start": 32.5297,
      "duration": 0.0468,
      "velocity": 72,
      "chip": "ym2612"
    },
    {
      "channel": 4,
      "note": 94,
      "start": 32.5633,
      "duration": 0.0134,
      "velocity": 72,
      "chip": "ym2612"
    },
    {
      "channel": 1,
      "note": 89,
      "start": 32.5963,
      "duration": 0.0468,
      "velocity": 72,
      "chip": "ym2612"
    },
    {
      "channel": 0,
      "note": 51,
      "start": 32.6294,
      "duration": 0.0803,
      "velocity": 105,
      "chip": "ym2612"
    },
    {
      "channel": 3,
      "note": 58,
      "start": 32.6322,
      "duration": 0.0778,
      "velocity": 127,
      "chip": "ym2612"
    },
    {
      "channel": 4,
      "note": 91,
      "start": 32.635,
      "duration": 0.0083,
      "velocity": 72,
      "chip": "ym2612"
    },
    {
      "channel": 2,
      "note": 93,
      "start": 32.6378,
      "duration": 0.1222,
      "velocity": 60,
      "chip": "ym2612"
    },
    {
      "channel": 1,
      "note": 96,
      "start": 32.6799,
      "duration": 0.0132,
      "velocity": 72,
      "chip": "ym2612"
    },
    {
      "channel": 0,
      "note": 58,
      "start": 32.7794,
      "duration": 0.0804,
      "velocity": 105,
      "chip": "ym2612"
    },
    {
      "channel": 0,
      "note": 55,
      "start": 32.9294,
      "duration": 0.0804,
      "velocity": 105,
      "chip": "ym2612"
    },
    {
      "channel": 3,
      "note": 60,
      "start": 32.9323,
      "duration": 0.0777,
      "velocity": 127,
      "chip": "ym2612"
    },
    {
      "channel": 2,
      "note": 93,
      "start": 32.9354,
      "duration": 0.1247,
      "velocity": 60,
      "chip": "ym2612"
    },
    {
      "channel": 0,
      "note": 51,
      "start": 33.0794,
      "duration": 0.0804,
      "velocity": 105,
      "chip": "ym2612"
    },
    {
      "channel": 3,
      "note": 60,
      "start": 33.0822,
      "duration": 0.0778,
      "velocity": 127,
      "chip": "ym2612"
    },
    {
      "channel": 0,
      "note": 58,
      "start": 33.2294,
      "duration": 0.0804,
      "velocity": 105,
      "chip": "ym2612"
    },
    {
      "channel": 3,
      "note": 58,
      "start": 33.2323,
      "duration": 0.0777,
      "velocity": 127,
      "chip": "ym2612"
    },
    {
      "channel": 2,
      "note": 93,
      "start": 33.2354,
      "duration": 0.1247,
      "velocity": 60,
      "chip": "ym2612"
    },
    {
      "channel": 5,
      "note": 103,
      "start": 33.2806,
      "duration": 0.0127,
      "velocity": 92,
      "chip": "ym2612"
    },
    {
      "channel": 5,
      "note": 108,
      "start": 33.314,
      "duration": 0.0127,
      "velocity": 92,
      "chip": "ym2612"
    },
    {
      "channel": 0,
      "note": 55,
      "start": 33.3794,
      "duration": 0.0803,
      "velocity": 105,
      "chip": "ym2612"
    },
    {
      "channel": 5,
      "note": 106,
      "start": 33.3833,
      "duration": 0.01,
      "velocity": 92,
      "chip": "ym2612"
    },
    {
      "channel": 5,
      "note": 113,
      "start": 33.4139,
      "duration": 0.0295,
      "velocity": 92,
      "chip": "ym2612"
    },
    {
      "channel": 5,
      "note": 113,
      "start": 33.4972,
      "duration": 0.0128,
      "velocity": 92,
      "chip": "ym2612"
    },
    {
      "channel": 0,
      "note": 51,
      "start": 33.5294,
      "duration": 0.0804,
      "velocity": 105,
      "chip": "ym2612"
    },
    {
      "channel": 3,
      "note": 58,
      "start": 33.5322,
      "duration": 0.0778,
      "velocity": 127,
      "chip": "ym2612"
    },
    {
      "channel": 2,
      "note": 93,
      "start": 33.5356,
      "duration": 0.1244,
      "velocity": 60,
      "chip": "ym2612"
    },
    {
      "channel": 5,
      "note": 111,
      "start": 33.5387,
      "duration": 0.0047,
      "velocity": 92,
      "chip": "ym2612"
    },
    {
      "channel": 5,
      "note": 99,
      "start": 33.614,
      "duration": 0.0127,
      "velocity": 92,
      "chip": "ym2612"
    },
    {
      "channel": 0,
      "note": 58,
      "start": 33.6794,
      "duration": 0.0804,
      "velocity": 105,
      "chip": "ym2612"
    },
    {
      "channel": 0,
      "note": 55,
      "start": 33.8294,
      "duration": 0.0804,
      "velocity": 105,
      "chip": "ym2612"
    },
    {
      "channel": 3,
      "note": 60,
      "start": 33.8323,
      "duration": 0.0777,
      "velocity": 127,
      "chip": "ym2612"
    },
    {
      "channel": 2,
      "note": 93,
      "start": 33.8352,
      "duration": 0.1248,
      "velocity": 60,
      "chip": "ym2612"
    },
    {
      "channel": 0,
      "note": 51,
      "start": 33.9794,
      "duration": 0.0804,
      "velocity": 105,
      "chip": "ym2612"
    },
    {
      "channel": 3,
      "note": 60,
      "start": 33.9822,
      "duration": 0.0778,
      "velocity": 127,
      "chip": "ym2612"
    },
    {
      "channel": 0,
      "note": 58,
      "start": 34.1294,
      "duration": 0.0805,
      "velocity": 105,
      "chip": "ym2612"
    },
    {
      "channel": 3,
      "note": 58,
      "start": 34.1322,
      "duration": 0.0778,
      "velocity": 127,
      "chip": "ym2612"
    },
    {
      "channel": 2,
      "note": 93,
      "start": 34.1353,
      "duration": 0.1247,
      "velocity": 60,
      "chip": "ym2612"
    },
    {
      "channel": 0,
      "note": 55,
      "start": 34.2795,
      "duration": 0.0803,
      "velocity": 105,
      "chip": "ym2612"
    },
    {
      "channel": 0,
      "note": 51,
      "start": 34.4294,
      "duration": 0.0805,
      "velocity": 105,
      "chip": "ym2612"
    },
    {
      "channel": 3,
      "note": 58,
      "start": 34.4325,
      "duration": 0.0775,
      "velocity": 127,
      "chip": "ym2612"
    },
    {
      "channel": 2,
      "note": 93,
      "start": 34.4355,
      "duration": 0.1245,
      "velocity": 60,
      "chip": "ym2612"
    },
    {
      "channel": 0,
      "note": 58,
      "start": 34.5798,
      "duration": 0.0801,
      "velocity": 105,
      "chip": "ym2612"
    },
    {
      "channel": 5,
      "note": 103,
      "start": 34.6138,
      "duration": 0.0129,
      "velocity": 92,
      "chip": "ym2612"
    },
    {
      "channel": 5,
      "note": 108,
      "start": 34.6639,
      "duration": 0.0128,
      "velocity": 92,
      "chip": "ym2612"
    },
    {
      "channel": 0,
      "note": 55,
      "start": 34.7295,
      "duration": 0.0803,
      "velocity": 105,
      "chip": "ym2612"
    },
    {
      "channel": 3,
      "note": 60,
      "start": 34.7325,
      "duration": 0.094,
      "velocity": 127,
      "chip": "ym2612"
    },
    {
      "channel": 2,
      "note": 93,
      "start": 34.7354,
      "duration": 0.1248,
      "velocity": 60,
      "chip": "ym2612"
    },
    {
      "channel": 5,
      "note": 106,
      "start": 34.7385,
      "duration": 0.0048,
      "velocity": 92,
      "chip": "ym2612"
    },
    {
      "channel": 5,
      "note": 113,
      "start": 34.7642,
      "duration": 0.0126,
      "velocity": 92,
      "chip": "ym2612"
    },
    {
      "channel": 5,
      "note": 113,
      "start": 34.8471,
      "duration": 0.013,
      "velocity": 92,
      "chip": "ym2612"
    },
    {
      "channel": 0,
      "note": 51,
      "start": 34.8794,
      "duration": 0.0805,
      "velocity": 105,
      "chip": "ym2612"
    },
    {
      "channel": 3,
      "note": 60,
      "start": 34.8823,
      "duration": 0.0777,
      "velocity": 127,
      "chip": "ym2612"
    },
    {
      "channel": 5,
      "note": 111,
      "start": 34.8857,
      "duration": 0.0076,
      "velocity": 92,
      "chip": "ym2612"
    },
    {
      "channel": 5,
      "note": 99,
      "start": 34.9642,
      "duration": 0.0125,
      "velocity": 92,
      "chip": "ym2612"
    },
    {
      "channel": 0,
      "note": 58,
      "start": 35.0294,
      "duration": 0.0804,
      "velocity": 105,
      "chip": "ym2612"
    },
    {
      "channel": 3,
      "note": 58,
      "start": 35.0322,
      "duration": 0.0778,
      "velocity": 127,
      "chip": "ym2612"
    },
    {
      "channel": 2,
      "note": 93,
      "start": 35.0352,
      "duration": 0.1248,
      "velocity": 60,
      "chip": "ym2612"
    },
    {
      "channel": 0,
      "note": 55,
      "start": 35.1794,
      "duration": 0.0804,
      "velocity": 105,
      "chip": "ym2612"
    },
    {
      "channel": 3,
      "note": 58,
      "start": 35.1821,
      "duration": 0.0779,
      "velocity": 127,
      "chip": "ym2612"
    },
    {
      "channel": 0,
      "note": 51,
      "start": 35.3294,
      "duration": 0.0804,
      "velocity": 105,
      "chip": "ym2612"
    },
    {
      "channel": 3,
      "note": 58,
      "start": 35.3321,
      "duration": 0.0779,
      "velocity": 127,
      "chip": "ym2612"
    },
    {
      "channel": 2,
      "note": 93,
      "start": 35.3351,
      "duration": 0.1249,
      "velocity": 60,
      "chip": "ym2612"
    },
    {
      "channel": 0,
      "note": 58,
      "start": 35.4794,
      "duration": 0.0637,
      "velocity": 105,
      "chip": "ym2612"
    },
    {
      "channel": 3,
      "note": 58,
      "start": 35.4821,
      "duration": 0.0612,
      "velocity": 127,
      "chip": "ym2612"
    },
    {
      "channel": 0,
      "note": 55,
      "start": 35.6294,
      "duration": 0.0638,
      "velocity": 105,
      "chip": "ym2612"
    },
    {
      "channel": 3,
      "note": 58,
      "start": 35.6321,
      "duration": 0.0612,
      "velocity": 127,
      "chip": "ym2612"
    },
    {
      "channel": 2,
      "note": 93,
      "start": 35.6353,
      "duration": 0.1248,
      "velocity": 60,
      "chip": "ym2612"
    },
    {
      "channel": 0,
      "note": 51,
      "start": 35.7794,
      "duration": 0.0637,
      "velocity": 105,
      "chip": "ym2612"
    },
    {
      "channel": 3,
      "note": 58,
      "start": 35.7825,
      "duration": 0.0608,
      "velocity": 127,
      "chip": "ym2612"
    },
    {
      "channel": 0,
      "note": 60,
      "start": 35.9322,
      "duration": 0.061,
      "velocity": 105,
      "chip": "ym2612"
    },
    {
      "channel": 4,
      "note": 77,
      "start": 35.9368,
      "duration": 0.1065,
      "velocity": 98,
      "chip": "ym2612"
    },
    {
      "channel": 0,
      "note": 55,
      "start": 36.0795,
      "duration": 0.0637,
      "velocity": 105,
      "chip": "ym2612"
    },
    {
      "channel": 4,
      "note": 75,
      "start": 36.0829,
      "duration": 0.0437,
      "velocity": 98,
      "chip": "ym2612"
    },
    {
      "channel": 0,
      "note": 51,
      "start": 36.2294,
      "duration": 0.0638,
      "velocity": 105,
      "chip": "ym2612"
    },
    {
      "channel": 4,
      "note": 77,
      "start": 36.233,
      "duration": 0.1102,
      "velocity": 98,
      "chip": "ym2612"
    },
    {
      "channel": 0,
      "note": 60,
      "start": 36.3795,
      "duration": 0.0636,
      "velocity": 105,
      "chip": "ym2612"
    },
    {
      "channel": 4,
      "note": 79,
      "start": 36.3828,
      "duration": 0.1105,
      "velocity": 98,
      "chip": "ym2612"
    },
    {
      "channel": 0,
      "note": 55,
      "start": 36.5294,
      "duration": 0.0637,
      "velocity": 105,
      "chip": "ym2612"
    },
    {
      "channel": 0,
      "note": 51,
      "start": 36.6794,
      "duration": 0.0637,
      "velocity": 105,
      "chip": "ym2612"
    },
    {
      "channel": 0,
      "note": 60,
      "start": 36.8294,
      "duration": 0.0637,
      "velocity": 105,
      "chip": "ym2612"
    },
    {
      "channel": 4,
      "note": 77,
      "start": 36.8329,
      "duration": 0.1104,
      "velocity": 98,
      "chip": "ym2612"
    },
    {
      "channel": 0,
      "note": 55,
      "start": 36.9798,
      "duration": 0.0634,
      "velocity": 105,
      "chip": "ym2612"
    },
    {
      "channel": 4,
      "note": 75,
      "start": 36.9832,
      "duration": 0.0434,
      "velocity": 98,
      "chip": "ym2612"
    },
    {
      "channel": 0,
      "note": 51,
      "start": 37.1294,
      "duration": 0.0637,
      "velocity": 105,
      "chip": "ym2612"
    },
    {
      "channel": 4,
      "note": 77,
      "start": 37.1331,
      "duration": 0.1103,
      "velocity": 98,
      "chip": "ym2612"
    },
    {
      "channel": 0,
      "note": 60,
      "start": 37.2795,
      "duration": 0.0636,
      "velocity": 105,
      "chip": "ym2612"
    },
    {
      "channel": 4,
      "note": 79,
      "start": 37.2828,
      "duration": 0.1104,
      "velocity": 98,
      "chip": "ym2612"
    },
    {
      "channel": 0,
      "note": 55,
      "start": 37.4294,
      "duration": 0.0637,
      "velocity": 105,
      "chip": "ym2612"
    },
    {
      "channel": 0,
      "note": 51,
      "start": 37.5794,
      "duration": 0.0637,
      "velocity": 105,
      "chip": "ym2612"
    },
    {
      "channel": 0,
      "note": 60,
      "start": 37.7294,
      "duration": 0.0637,
      "velocity": 105,
      "chip": "ym2612"
    },
    {
      "channel": 4,
      "note": 77,
      "start": 37.7329,
      "duration": 0.0938,
      "velocity": 98,
      "chip": "ym2612"
    },
    {
      "channel": 0,
      "note": 55,
      "start": 37.8794,
      "duration": 0.0639,
      "velocity": 105,
      "chip": "ym2612"
    },
    {
      "channel": 4,
      "note": 75,
      "start": 37.8828,
      "duration": 0.0438,
      "velocity": 98,
      "chip": "ym2612"
    },
    {
      "channel": 0,
      "note": 51,
      "start": 38.0294,
      "duration": 0.0637,
      "velocity": 105,
      "chip": "ym2612"
    },
    {
      "channel": 4,
      "note": 77,
      "start": 38.0334,
      "duration": 0.0933,
      "velocity": 98,
      "chip": "ym2612"
    },
    {
      "channel": 0,
      "note": 60,
      "start": 38.1795,
      "duration": 0.0636,
      "velocity": 105,
      "chip": "ym2612"
    },
    {
      "channel": 4,
      "note": 79,
      "start": 38.1828,
      "duration": 0.0939,
      "velocity": 98,
      "chip": "ym2612"
    },
    {
      "channel": 0,
      "note": 55,
      "start": 38.3294,
      "duration": 0.0637,
      "velocity": 105,
      "chip": "ym2612"
    },
    {
      "channel": 0,
      "note": 51,
      "start": 38.4794,
      "duration": 0.0637,
      "velocity": 105,
      "chip": "ym2612"
    },
    {
      "channel": 0,
      "note": 60,
      "start": 38.6294,
      "duration": 0.0637,
      "velocity": 105,
      "chip": "ym2612"
    },
    {
      "channel": 1,
      "note": 67,
      "start": 38.6331,
      "duration": 0.0602,
      "velocity": 1,
      "chip": "ym2612"
    },
    {
      "channel": 4,
      "note": 77,
      "start": 38.6363,
      "duration": 0.0903,
      "velocity": 98,
      "chip": "ym2612"
    },
    {
      "channel": 0,
      "note": 55,
      "start": 38.7794,
      "duration": 0.0637,
      "velocity": 105,
      "chip": "ym2612"
    },
    {
      "channel": 1,
      "note": 55,
      "start": 38.7824,
      "duration": 0.0774,
      "velocity": 1,
      "chip": "ym2612"
    },
    {
      "channel": 4,
      "note": 75,
      "start": 38.7857,
      "duration": 0.041,
      "velocity": 98,
      "chip": "ym2612"
    },
    {
      "channel": 0,
      "note": 51,
      "start": 38.9295,
      "duration": 0.0637,
      "velocity": 105,
      "chip": "ym2612"
    },
    {
      "channel": 1,
      "note": 67,
      "start": 38.9325,
      "duration": 0.0608,
      "velocity": 1,
      "chip": "ym2612"
    },
    {
      "channel": 4,
      "note": 77,
      "start": 38.9359,
      "duration": 0.0907,
      "velocity": 98,
      "chip": "ym2612"
    },
    {
      "channel": 0,
      "note": 60,
      "start": 39.0794,
      "duration": 0.0637,
      "velocity": 105,
      "chip": "ym2612"
    },
    {
      "channel": 1,
      "note": 55,
      "start": 39.0823,
      "duration": 0.061,
      "velocity": 1,
      "chip": "ym2612"
    },
    {
      "channel": 4,
      "note": 79,
      "start": 39.0854,
      "duration": 0.0912,
      "velocity": 98,
      "chip": "ym2612"
    },
    {
      "channel": 0,
      "note": 55,
      "start": 39.2294,
      "duration": 0.0637,
      "velocity": 105,
      "chip": "ym2612"
    },
    {
      "channel": 1,
      "note": 67,
      "start": 39.2323,
      "duration": 0.061,
      "velocity": 1,
      "chip": "ym2612"
    },
    {
      "channel": 0,
      "note": 51,
      "start": 39.3798,
      "duration": 0.0634,
      "velocity": 105,
      "chip": "ym2612"
    },
    {
      "channel": 1,
      "note": 55,
      "start": 39.3827,
      "duration": 0.0606,
      "velocity": 1,
      "chip": "ym2612"
    },
    {
      "channel": 0,
      "note": 58,
      "start": 39.5294,
      "duration": 0.0637,
      "velocity": 105,
      "chip": "ym2612"
    },
    {
      "channel": 1,
      "note": 67,
      "start": 39.5325,
      "duration": 0.0607,
      "velocity": 1,
      "chip": "ym2612"
    },
    {
      "channel": 2,
      "note": 93,
      "start": 39.5359,
      "duration": 0.1075,
      "velocity": 60,
      "chip": "ym2612"
    },
    {
      "channel": 4,
      "note": 77,
      "start": 39.5393,
      "duration": 0.0873,
      "velocity": 98,
      "chip": "ym2612"
    },
    {
      "channel": 0,
      "note": 55,
      "start": 39.6795,
      "duration": 0.0637,
      "velocity": 105,
      "chip": "ym2612"
    },
    {
      "channel": 4,
      "note": 75,
      "start": 39.683,
      "duration": 0.0436,
      "velocity": 98,
      "chip": "ym2612"
    },
    {
      "channel": 0,
      "note": 51,
      "start": 39.8127,
      "duration": 0.0804,
      "velocity": 105,
      "chip": "ym2612"
    },
    {
      "channel": 2,
      "note": 93,
      "start": 39.8159,
      "duration": 0.1274,
      "velocity": 60,
      "chip": "ym2612"
    },
    {
      "channel": 4,
      "note": 77,
      "start": 39.8191,
      "duration": 0.1074,
      "velocity": 98,
      "chip": "ym2612"
    },
    {
      "channel": 0,
      "note": 58,
      "start": 39.9628,
      "duration": 0.0803,
      "velocity": 105,
      "chip": "ym2612"
    },
    {
      "channel": 4,
      "note": 79,
      "start": 39.9661,
      "duration": 0.1105,
      "velocity": 98,
      "chip": "ym2612"
    },
    {
      "channel": 0,
      "note": 55,
      "start": 40.1128,
      "duration": 0.0803,
      "velocity": 105,
      "chip": "ym2612"
    },
    {
      "channel": 2,
      "note": 93,
      "start": 40.1159,
      "duration": 0.1274,
      "velocity": 60,
      "chip": "ym2612"
    },
    {
      "channel": 0,
      "note": 51,
      "start": 40.2628,
      "duration": 0.0803,
      "velocity": 105,
      "chip": "ym2612"
    },
    {
      "channel": 0,
      "note": 58,
      "start": 40.4128,
      "duration": 0.0804,
      "velocity": 105,
      "chip": "ym2612"
    },
    {
      "channel": 2,
      "note": 93,
      "start": 40.4159,
      "duration": 0.1274,
      "velocity": 60,
      "chip": "ym2612"
    },
    {
      "channel": 4,
      "note": 77,
      "start": 40.419,
      "duration": 0.1076,
      "velocity": 98,
      "chip": "ym2612"
    },
    {
      "channel": 0,
      "note": 55,
      "start": 40.5627,
      "duration": 0.0805,
      "velocity": 105,
      "chip": "ym2612"
    },
    {
      "channel": 4,
      "note": 75,
      "start": 40.5662,
      "duration": 0.0604,
      "velocity": 98,
      "chip": "ym2612"
    },
    {
      "channel": 0,
      "note": 51,
      "start": 40.7128,
      "duration": 0.0803,
      "velocity": 105,
      "chip": "ym2612"
    },
    {
      "channel": 2,
      "note": 93,
      "start": 40.7159,
      "duration": 0.1274,
      "velocity": 60,
      "chip": "ym2612"
    },
    {
      "channel": 4,
      "note": 77,
      "start": 40.7192,
      "duration": 0.1074,
      "velocity": 98,
      "chip": "ym2612"
    },
    {
      "channel": 0,
      "note": 58,
      "start": 40.8628,
      "duration": 0.0804,
      "velocity": 105,
      "chip": "ym2612"
    },
    {
      "channel": 4,
      "note": 79,
      "start": 40.8662,
      "duration": 0.1105,
      "velocity": 98,
      "chip": "ym2612"
    },
    {
      "channel": 0,
      "note": 55,
      "start": 41.0128,
      "duration": 0.0803,
      "velocity": 105,
      "chip": "ym2612"
    },
    {
      "channel": 2,
      "note": 93,
      "start": 41.0158,
      "duration": 0.1275,
      "velocity": 60,
      "chip": "ym2612"
    },
    {
      "channel": 0,
      "note": 51,
      "start": 41.1627,
      "duration": 0.0804,
      "velocity": 105,
      "chip": "ym2612"
    },
    {
      "channel": 0,
      "note": 58,
      "start": 41.3127,
      "duration": 0.0804,
      "velocity": 105,
      "chip": "ym2612"
    },
    {
      "channel": 2,
      "note": 93,
      "start": 41.3159,
      "duration": 0.1275,
      "velocity": 60,
      "chip": "ym2612"
    },
    {
      "channel": 4,
      "note": 77,
      "start": 41.3189,
      "duration": 0.1077,
      "velocity": 98,
      "chip": "ym2612"
    },
    {
      "channel": 0,
      "note": 55,
      "start": 41.4627,
      "duration": 0.0804,
      "velocity": 105,
      "chip": "ym2612"
    },
    {
      "channel": 4,
      "note": 75,
      "start": 41.4662,
      "duration": 0.0604,
      "velocity": 98,
      "chip": "ym2612"
    },
    {
      "channel": 0,
      "note": 51,
      "start": 41.6127,
      "duration": 0.0804,
      "velocity": 105,
      "chip": "ym2612"
    },
    {
      "channel": 2,
      "note": 93,
      "start": 41.6159,
      "duration": 0.1274,
      "velocity": 60,
      "chip": "ym2612"
    },
    {
      "channel": 4,
      "note": 77,
      "start": 41.6195,
      "duration": 0.1072,
      "velocity": 98,
      "chip": "ym2612"
    },
    {
      "channel": 0,
      "note": 58,
      "start": 41.7632,
      "duration": 0.08,
      "velocity": 105,
      "chip": "ym2612"
    },
    {
      "channel": 4,
      "note": 79,
      "start": 41.7666,
      "duration": 0.1101,
      "velocity": 98,
      "chip": "ym2612"
    },
    {
      "channel": 0,
      "note": 55,
      "start": 41.9128,
      "duration": 0.0804,
      "velocity": 105,
      "chip": "ym2612"
    },
    {
      "channel": 2,
      "note": 93,
      "start": 41.9158,
      "duration": 0.1277,
      "velocity": 60,
      "chip": "ym2612"
    },
    {
      "channel": 0,
      "note": 51,
      "start": 42.0628,
      "duration": 0.0804,
      "velocity": 105,
      "chip": "ym2612"
    },
    {
      "channel": 0,
      "note": 58,
      "start": 42.2128,
      "duration": 0.0804,
      "velocity": 105,
      "chip": "ym2612"
    },
    {
      "channel": 2,
      "note": 93,
      "start": 42.2159,
      "duration": 0.1274,
      "velocity": 60,
      "chip": "ym2612"
    },
    {
      "channel": 4,
      "note": 77,
      "start": 42.219,
      "duration": 0.1077,
      "velocity": 98,
      "chip": "ym2612"
    },
    {
      "channel": 0,
      "note": 55,
      "start": 42.3628,
      "duration": 0.0804,
      "velocity": 105,
      "chip": "ym2612"
    },
    {
      "channel": 4,
      "note": 75,
      "start": 42.3663,
      "duration": 0.0604,
      "velocity": 98,
      "chip": "ym2612"
    },
    {
      "channel": 0,
      "note": 51,
      "start": 42.5127,
      "duration": 0.0805,
      "velocity": 105,
      "chip": "ym2612"
    },
    {
      "channel": 2,
      "note": 93,
      "start": 42.5158,
      "duration": 0.1275,
      "velocity": 60,
      "chip": "ym2612"
    },
    {
      "channel": 4,
      "note": 77,
      "start": 42.5191,
      "duration": 0.1076,
      "velocity": 98,
      "chip": "ym2612"
    },
    {
      "channel": 0,
      "note": 58,
      "start": 42.6628,
      "duration": 0.0804,
      "velocity": 105,
      "chip": "ym2612"
    },
    {
      "channel": 4,
      "note": 79,
      "start": 42.6661,
      "duration": 0.1105,
      "velocity": 98,
      "chip": "ym2612"
    },
    {
      "channel": 0,
      "note": 55,
      "start": 42.8128,
      "duration": 0.0803,
      "velocity": 105,
      "chip": "ym2612"
    },
    {
      "channel": 2,
      "note": 93,
      "start": 42.8164,
      "duration": 0.1269,
      "velocity": 60,
      "chip": "ym2612"
    },
    {
      "channel": 0,
      "note": 51,
      "start": 42.9628,
      "duration": 0.0803,
      "velocity": 105,
      "chip": "ym2612"
    },
    {
      "channel": 0,
      "note": 60,
      "start": 43.1155,
      "duration": 0.0777,
      "velocity": 105,
      "chip": "ym2612"
    },
    {
      "channel": 3,
      "note": 115,
      "start": 43.1185,
      "duration": 0.008,
      "velocity": 72,
      "chip": "ym2612"
    },
    {
      "channel": 4,
      "note": 77,
      "start": 43.1227,
      "duration": 0.104,
      "velocity": 98,
      "chip": "ym2612"
    },
    {
      "channel": 0,
      "note": 55,
      "start": 43.2628,
      "duration": 0.0803,
      "velocity": 105,
      "chip": "ym2612"
    },
    {
      "channel": 3,
      "note": 111,
      "start": 43.2655,
      "duration": 0.0111,
      "velocity": 72,
      "chip": "ym2612"
    },
    {
      "channel": 4,
      "note": 75,
      "start": 43.2686,
      "duration": 0.0414,
      "velocity": 98,
      "chip": "ym2612"
    },
    {
      "channel": 0,
      "note": 51,
      "start": 43.4128,
      "duration": 0.0804,
      "velocity": 105,
      "chip": "ym2612"
    },
    {
      "channel": 3,
      "note": 115,
      "start": 43.4154,
      "duration": 0.0111,
      "velocity": 72,
      "chip": "ym2612"
    },
    {
      "channel": 4,
      "note": 77,
      "start": 43.4188,
      "duration": 0.1079,
      "velocity": 98,
      "chip": "ym2612"
    },
    {
      "channel": 0,
      "note": 60,
      "start": 43.5628,
      "duration": 0.0804,
      "velocity": 105,
      "chip": "ym2612"
    },
    {
      "channel": 3,
      "note": 113,
      "start": 43.5655,
      "duration": 0.0111,
      "velocity": 72,
      "chip": "ym2612"
    },
    {
      "channel": 4,
      "note": 79,
      "start": 43.5685,
      "duration": 0.1082,
      "velocity": 98,
      "chip": "ym2612"
    },
    {
      "channel": 0,
      "note": 55,
      "start": 43.7128,
      "duration": 0.0803,
      "velocity": 105,
      "chip": "ym2612"
    },
    {
      "channel": 3,
      "note": 115,
      "start": 43.7155,
      "duration": 0.0111,
      "velocity": 72,
      "chip": "ym2612"
    },
    {
      "channel": 0,
      "note": 51,
      "start": 43.8627,
      "duration": 0.0805,
      "velocity": 105,
      "chip": "ym2612"
    },
    {
      "channel": 3,
      "note": 111,
      "start": 43.8654,
      "duration": 0.0112,
      "velocity": 72,
      "chip": "ym2612"
    },
    {
      "channel": 0,
      "note": 60,
      "start": 44.0128,
      "duration": 0.0637,
      "velocity": 105,
      "chip": "ym2612"
    },
    {
      "channel": 3,
      "note": 115,
      "start": 44.0154,
      "duration": 0.0111,
      "velocity": 72,
      "chip": "ym2612"
    },
    {
      "channel": 4,
      "note": 77,
      "start": 44.0186,
      "duration": 0.1081,
      "velocity": 98,
      "chip": "ym2612"
    },
    {
      "channel": 0,
      "note": 55,
      "start": 44.1632,
      "duration": 0.0634,
      "velocity": 105,
      "chip": "ym2612"
    },
    {
      "channel": 3,
      "note": 113,
      "start": 44.1659,
      "duration": 0.0108,
      "velocity": 72,
      "chip": "ym2612"
    },
    {
      "channel": 4,
      "note": 75,
      "start": 44.169,
      "duration": 0.0409,
      "velocity": 98,
      "chip": "ym2612"
    },
    {
      "channel": 0,
      "note": 51,
      "start": 44.3127,
      "duration": 0.0639,
      "velocity": 105,
      "chip": "ym2612"
    },
    {
      "channel": 3,
      "note": 115,
      "start": 44.3154,
      "duration": 0.0112,
      "velocity": 72,
      "chip": "ym2612"
    },
    {
      "channel": 4,
      "note": 77,
      "start": 44.3191,
      "duration": 0.1075,
      "velocity": 98,
      "chip": "ym2612"
    },
    {
      "channel": 0,
      "note": 60,
      "start": 44.4627,
      "duration": 0.0639,
      "velocity": 105,
      "chip": "ym2612"
    },
    {
      "channel": 3,
      "note": 111,
      "start": 44.4654,
      "duration": 0.0112,
      "velocity": 72,
      "chip": "ym2612"
    },
    {
      "channel": 4,
      "note": 79,
      "start": 44.4684,
      "duration": 0.1082,
      "velocity": 98,
      "chip": "ym2612"
    },
    {
      "channel": 0,
      "note": 55,
      "start": 44.6127,
      "duration": 0.0639,
      "velocity": 105,
      "chip": "ym2612"
    },
    {
      "channel": 3,
      "note": 115,
      "start": 44.6154,
      "duration": 0.0113,
      "velocity": 72,
      "chip": "ym2612"
    },
    {
      "channel": 0,
      "note": 51,
      "start": 44.7627,
      "duration": 0.0638,
      "velocity": 105,
      "chip": "ym2612"
    },
    {
      "channel": 3,
      "note": 113,
      "start": 44.7654,
      "duration": 0.0112,
      "velocity": 72,
      "chip": "ym2612"
    },
    {
      "channel": 0,
      "note": 60,
      "start": 44.9128,
      "duration": 0.0637,
      "velocity": 105,
      "chip": "ym2612"
    },
    {
      "channel": 3,
      "note": 115,
      "start": 44.9154,
      "duration": 0.0111,
      "velocity": 72,
      "chip": "ym2612"
    },
    {
      "channel": 4,
      "note": 77,
      "start": 44.9186,
      "duration": 0.108,
      "velocity": 98,
      "chip": "ym2612"
    },
    {
      "channel": 0,
      "note": 55,
      "start": 45.0628,
      "duration": 0.0637,
      "velocity": 105,
      "chip": "ym2612"
    },
    {
      "channel": 3,
      "note": 111,
      "start": 45.0654,
      "duration": 0.0111,
      "velocity": 72,
      "chip": "ym2612"
    },
    {
      "channel": 4,
      "note": 75,
      "start": 45.0686,
      "duration": 0.0413,
      "velocity": 98,
      "chip": "ym2612"
    },
    {
      "channel": 0,
      "note": 51,
      "start": 45.2128,
      "duration": 0.0638,
      "velocity": 105,
      "chip": "ym2612"
    },
    {
      "channel": 3,
      "note": 115,
      "start": 45.2154,
      "duration": 0.0111,
      "velocity": 72,
      "chip": "ym2612"
    },
    {
      "channel": 4,
      "note": 77,
      "start": 45.2188,
      "duration": 0.1079,
      "velocity": 98,
      "chip": "ym2612"
    },
    {
      "channel": 0,
      "note": 60,
      "start": 45.3628,
      "duration": 0.0637,
      "velocity": 105,
      "chip": "ym2612"
    },
    {
      "channel": 3,
      "note": 113,
      "start": 45.3659,
      "duration": 0.0106,
      "velocity": 72,
      "chip": "ym2612"
    },
    {
      "channel": 4,
      "note": 79,
      "start": 45.3689,
      "duration": 0.1078,
      "velocity": 98,
      "chip": "ym2612"
    },
    {
      "channel": 0,
      "note": 55,
      "start": 45.5128,
      "duration": 0.0637,
      "velocity": 105,
      "chip": "ym2612"
    },
    {
      "channel": 3,
      "note": 115,
      "start": 45.5154,
      "duration": 0.0111,
      "velocity": 72,
      "chip": "ym2612"
    },
    {
      "channel": 0,
      "note": 51,
      "start": 45.6628,
      "duration": 0.0638,
      "velocity": 105,
      "chip": "ym2612"
    },
    {
      "channel": 3,
      "note": 111,
      "start": 45.6654,
      "duration": 0.0112,
      "velocity": 72,
      "chip": "ym2612"
    },
    {
      "channel": 0,
      "note": 60,
      "start": 45.8127,
      "duration": 0.0638,
      "velocity": 105,
      "chip": "ym2612"
    },
    {
      "channel": 3,
      "note": 115,
      "start": 45.8154,
      "duration": 0.0112,
      "velocity": 72,
      "chip": "ym2612"
    },
    {
      "channel": 4,
      "note": 77,
      "start": 45.8189,
      "duration": 0.1078,
      "velocity": 98,
      "chip": "ym2612"
    },
    {
      "channel": 0,
      "note": 55,
      "start": 45.9628,
      "duration": 0.0636,
      "velocity": 105,
      "chip": "ym2612"
    },
    {
      "channel": 3,
      "note": 113,
      "start": 45.9655,
      "duration": 0.0111,
      "velocity": 72,
      "chip": "ym2612"
    },
    {
      "channel": 4,
      "note": 75,
      "start": 45.9686,
      "duration": 0.0413,
      "velocity": 98,
      "chip": "ym2612"
    },
    {
      "channel": 0,
      "note": 51,
      "start": 46.1128,
      "duration": 0.0637,
      "velocity": 105,
      "chip": "ym2612"
    },
    {
      "channel": 3,
      "note": 115,
      "start": 46.1154,
      "duration": 0.0111,
      "velocity": 72,
      "chip": "ym2612"
    },
    {
      "channel": 4,
      "note": 77,
      "start": 46.1188,
      "duration": 0.0912,
      "velocity": 98,
      "chip": "ym2612"
    },
    {
      "channel": 0,
      "note": 60,
      "start": 46.2628,
      "duration": 0.0637,
      "velocity": 105,
      "chip": "ym2612"
    },
    {
      "channel": 3,
      "note": 111,
      "start": 46.2655,
      "duration": 0.0111,
      "velocity": 72,
      "chip": "ym2612"
    },
    {
      "channel": 4,
      "note": 79,
      "start": 46.2685,
      "duration": 0.0914,
      "velocity": 98,
      "chip": "ym2612"
    },
    {
      "channel": 0,
      "note": 55,
      "start": 46.4128,
      "duration": 0.0637,
      "velocity": 105,
      "chip": "ym2612"
    },
    {
      "channel": 3,
      "note": 115,
      "start": 46.4155,
      "duration": 0.0111,
      "velocity": 72,
      "chip": "ym2612"
    },
    {
      "channel": 0,
      "note": 51,
      "start": 46.5632,
      "duration": 0.0632,
      "velocity": 105,
      "chip": "ym2612"
    },
    {
      "channel": 3,
      "note": 113,
      "start": 46.5662,
      "duration": 0.0103,
      "velocity": 72,
      "chip": "ym2612"
    },
    {
      "channel": 0,
      "note": 58,
      "start": 46.7128,
      "duration": 0.0637,
      "velocity": 105,
      "chip": "ym2612"
    },
    {
      "channel": 1,
      "note": 67,
      "start": 46.7158,
      "duration": 0.0608,
      "velocity": 1,
      "chip": "ym2612"
    },
    {
      "channel": 4,
      "note": 77,
      "start": 46.7191,
      "duration": 0.091,
      "velocity": 98,
      "chip": "ym2612"
    },
    {
      "channel": 0,
      "note": 55,
      "start": 46.8627,
      "duration": 0.0637,
      "velocity": 105,
      "chip": "ym2612"
    },
    {
      "channel": 1,
      "note": 55,
      "start": 46.8656,
      "duration": 0.061,
      "velocity": 1,
      "chip": "ym2612"
    },
    {
      "channel": 4,
      "note": 75,
      "start": 46.8688,
      "duration": 0.0412,
      "velocity": 98,
      "chip": "ym2612"
    },
    {
      "channel": 0,
      "note": 51,
      "start": 47.0128,
      "duration": 0.0637,
      "velocity": 105,
      "chip": "ym2612"
    },
    {
      "channel": 1,
      "note": 67,
      "start": 47.0156,
      "duration": 0.061,
      "velocity": 1,
      "chip": "ym2612"
    },
    {
      "channel": 4,
      "note": 77,
      "start": 47.0191,
      "duration": 0.0909,
      "velocity": 98,
      "chip": "ym2612"
    },
    {
      "channel": 0,
      "note": 58,
      "start": 47.1628,
      "duration": 0.0637,
      "velocity": 105,
      "chip": "ym2612"
    },
    {
      "channel": 1,
      "note": 55,
      "start": 47.1656,
      "duration": 0.061,
      "velocity": 1,
      "chip": "ym2612"
    },
    {
      "channel": 4,
      "note": 79,
      "start": 47.1688,
      "duration": 0.0912,
      "velocity": 98,
      "chip": "ym2612"
    },
    {
      "channel": 0,
      "note": 55,
      "start": 47.3128,
      "duration": 0.0636,
      "velocity": 105,
      "chip": "ym2612"
    },
    {
      "channel": 1,
      "note": 67,
      "start": 47.3161,
      "duration": 0.0605,
      "velocity": 1,
      "chip": "ym2612"
    },
    {
      "channel": 2,
      "note": 93,
      "start": 47.319,
      "duration": 0.1078,
      "velocity": 60,
      "chip": "ym2612"
    },
    {
      "channel": 0,
      "note": 51,
      "start": 47.4628,
      "duration": 0.0636,
      "velocity": 105,
      "chip": "ym2612"
    },
    {
      "channel": 1,
      "note": 55,
      "start": 47.4657,
      "duration": 0.0609,
      "velocity": 1,
      "chip": "ym2612"
    },
    {
      "channel": 0,
      "note": 58,
      "start": 47.6128,
      "duration": 0.0637,
      "velocity": 105,
      "chip": "ym2612"
    },
    {
      "channel": 1,
      "note": 67,
      "start": 47.6156,
      "duration": 0.061,
      "velocity": 1,
      "chip": "ym2612"
    },
    {
      "channel": 2,
      "note": 93,
      "start": 47.6185,
      "duration": 0.1082,
      "velocity": 60,
      "chip": "ym2612"
    },
    {
      "channel": 4,
      "note": 77,
      "start": 47.6216,
      "duration": 0.0883,
      "velocity": 98,
      "chip": "ym2612"
    },
    {
      "channel": 0,
      "note": 55,
      "start": 47.7628,
      "duration": 0.0636,
      "velocity": 105,
      "chip": "ym2612"
    },
    {
      "channel": 1,
      "note": 55,
      "start": 47.7657,
      "duration": 0.0609,
      "velocity": 1,
      "chip": "ym2612"
    },
    {
      "channel": 4,
      "note": 75,
      "start": 47.7689,
      "duration": 0.041,
      "velocity": 98,
      "chip": "ym2612"
    },
    {
      "channel": 0,
      "note": 51,
      "start": 47.9128,
      "duration": 0.0637,
      "velocity": 105,
      "chip": "ym2612"
    },
    {
      "channel": 1,
      "note": 67,
      "start": 47.9156,
      "duration": 0.061,
      "velocity": 1,
      "chip": "ym2612"
    },
    {
      "channel": 2,
      "note": 93,
      "start": 47.9185,
      "duration": 0.1082,
      "velocity": 60,
      "chip": "ym2612"
    },
    {
      "channel": 4,
      "note": 77,
      "start": 47.9222,
      "duration": 0.0877,
      "velocity": 98,
      "chip": "ym2612"
    },
    {
      "channel": 0,
      "note": 58,
      "start": 48.0628,
      "duration": 0.0636,
      "velocity": 105,
      "chip": "ym2612"
    },
    {
      "channel": 1,
      "note": 55,
      "start": 48.0657,
      "duration": 0.0609,
      "velocity": 1,
      "chip": "ym2612"
    },
    {
      "channel": 4,
      "note": 79,
      "start": 48.0688,
      "duration": 0.0912,
      "velocity": 98,
      "chip": "ym2612"
    },
    {
      "channel": 0,
      "note": 55,
      "start": 48.2128,
      "duration": 0.0637,
      "velocity": 105,
      "chip": "ym2612"
    },
    {
      "channel": 1,
      "note": 67,
      "start": 48.2156,
      "duration": 0.061,
      "velocity": 1,
      "chip": "ym2612"
    },
    {
      "channel": 2,
      "note": 93,
      "start": 48.2184,
      "duration": 0.1083,
      "velocity": 60,
      "chip": "ym2612"
    },
    {
      "channel": 0,
      "note": 51,
      "start": 48.3462,
      "duration": 0.0803,
      "velocity": 105,
      "chip": "ym2612"
    },
    {
      "channel": 1,
      "note": 55,
      "start": 48.349,
      "duration": 0.0776,
      "velocity": 1,
      "chip": "ym2612"
    },
    {
      "channel": 0,
      "note": 58,
      "start": 48.496,
      "duration": 0.0805,
      "velocity": 105,
      "chip": "ym2612"
    },
    {
      "channel": 1,
      "note": 67,
      "start": 48.5004,
      "duration": 0.0763,
      "velocity": 1,
      "chip": "ym2612"
    },
    {
      "channel": 2,
      "note": 93,
      "start": 48.5033,
      "duration": 0.1234,
      "velocity": 60,
      "chip": "ym2612"
    },
    {
      "channel": 4,
      "note": 77,
      "start": 48.5063,
      "duration": 0.1036,
      "velocity": 98,
      "chip": "ym2612"
    },
    {
      "channel": 0,
      "note": 55,
      "start": 48.6462,
      "duration": 0.0803,
      "velocity": 105,
      "chip": "ym2612"
    },
    {
      "channel": 4,
      "note": 75,
      "start": 48.6497,
      "duration": 0.0602,
      "velocity": 98,
      "chip": "ym2612"
    },
    {
      "channel": 0,
      "note": 51,
      "start": 48.796,
      "duration": 0.0804,
      "velocity": 105,
      "chip": "ym2612"
    },
    {
      "channel": 2,
      "note": 93,
      "start": 48.7992,
      "duration": 0.1274,
      "velocity": 60,
      "chip": "ym2612"
    },
    {
      "channel": 4,
      "note": 77,
      "start": 48.8025,
      "duration": 0.1075,
      "velocity": 98,
      "chip": "ym2612"
    },
    {
      "channel": 0,
      "note": 58,
      "start": 48.9466,
      "duration": 0.08,
      "velocity": 105,
      "chip": "ym2612"
    },
    {
      "channel": 4,
      "note": 79,
      "start": 48.9499,
      "duration": 0.1101,
      "velocity": 98,
      "chip": "ym2612"
    },
    {
      "channel": 0,
      "note": 55,
      "start": 49.0961,
      "duration": 0.0804,
      "velocity": 105,
      "chip": "ym2612"
    },
    {
      "channel": 2,
      "note": 93,
      "start": 49.0991,
      "duration": 0.1277,
      "velocity": 60,
      "chip": "ym2612"
    },
    {
      "channel": 0,
      "note": 51,
      "start": 49.2461,
      "duration": 0.0804,
      "velocity": 105,
      "chip": "ym2612"
    },
    {
      "channel": 0,
      "note": 58,
      "start": 49.396,
      "duration": 0.0805,
      "velocity": 105,
      "chip": "ym2612"
    },
    {
      "channel": 2,
      "note": 93,
      "start": 49.3992,
      "duration": 0.1275,
      "velocity": 60,
      "chip": "ym2612"
    },
    {
      "channel": 4,
      "note": 77,
      "start": 49.4027,
      "duration": 0.1074,
      "velocity": 98,
      "chip": "ym2612"
    },
    {
      "channel": 0,
      "note": 55,
      "start": 49.5461,
      "duration": 0.0805,
      "velocity": 105,
      "chip": "ym2612"
    },
    {
      "channel": 4,
      "note": 75,
      "start": 49.5496,
      "duration": 0.0603,
      "velocity": 98,
      "chip": "ym2612"
    },
    {
      "channel": 0,
      "note": 51,
      "start": 49.696,
      "duration": 0.0804,
      "velocity": 105,
      "chip": "ym2612"
    },
    {
      "channel": 2,
      "note": 93,
      "start": 49.6992,
      "duration": 0.1274,
      "velocity": 60,
      "chip": "ym2612"
    },
    {
      "channel": 4,
      "note": 77,
      "start": 49.7025,
      "duration": 0.1074,
      "velocity": 98,
      "chip": "ym2612"
    },
    {
      "channel": 0,
      "note": 58,
      "start": 49.8462,
      "duration": 0.0803,
      "velocity": 105,
      "chip": "ym2612"
    },
    {
      "channel": 4,
      "note": 79,
      "start": 49.8495,
      "duration": 0.1104,
      "velocity": 98,
      "chip": "ym2612"
    },
    {
      "channel": 0,
      "note": 55,
      "start": 49.9962,
      "duration": 0.0803,
      "velocity": 105,
      "chip": "ym2612"
    },
    {
      "channel": 2,
      "note": 93,
      "start": 49.9993,
      "duration": 0.1273,
      "velocity": 60,
      "chip": "ym2612"
    },
    {
      "channel": 0,
      "note": 51,
      "start": 50.1462,
      "duration": 0.0803,
      "velocity": 105,
      "chip": "ym2612"
    },
    {
      "channel": 0,
      "note": 60,
      "start": 50.2989,
      "duration": 0.0776,
      "velocity": 105,
      "chip": "ym2612"
    },
    {
      "channel": 5,
      "note": 63,
      "start": 50.302,
      "duration": 0.0748,
      "velocity": 127,
      "chip": "ym2612"
    },
    {
      "channel": 3,
      "note": 115,
      "start": 50.3047,
      "duration": 0.0052,
      "velocity": 72,
      "chip": "ym2612"
    },
    {
      "channel": 2,
      "note": 93,
      "start": 50.308,
      "duration": 0.1187,
      "velocity": 60,
      "chip": "ym2612"
    },
    {
      "channel": 5,
      "note": 63,
      "start": 50.4301,
      "duration": 0.0966,
      "velocity": 127,
      "chip": "ym2612"
    },
    {
      "channel": 0,
      "note": 55,
      "start": 50.446,
      "duration": 0.0804,
      "velocity": 105,
      "chip": "ym2612"
    },
    {
      "channel": 3,
      "note": 111,
      "start": 50.4487,
      "duration": 0.0112,
      "velocity": 72,
      "chip": "ym2612"
    },
    {
      "channel": 5,
      "note": 63,
      "start": 50.5798,
      "duration": 0.097,
      "velocity": 127,
      "chip": "ym2612"
    },
    {
      "channel": 0,
      "note": 51,
      "start": 50.5961,
      "duration": 0.0804,
      "velocity": 105,
      "chip": "ym2612"
    },
    {
      "channel": 3,
      "note": 115,
      "start": 50.5988,
      "duration": 0.0112,
      "velocity": 72,
      "chip": "ym2612"
    },
    {
      "channel": 5,
      "note": 63,
      "start": 50.7297,
      "duration": 0.097,
      "velocity": 127,
      "chip": "ym2612"
    },
    {
      "channel": 0,
      "note": 60,
      "start": 50.7462,
      "duration": 0.0803,
      "velocity": 105,
      "chip": "ym2612"
    },
    {
      "channel": 3,
      "note": 113,
      "start": 50.7488,
      "duration": 0.0111,
      "velocity": 72,
      "chip": "ym2612"
    },
    {
      "channel": 5,
      "note": 63,
      "start": 50.8798,
      "duration": 0.0969,
      "velocity": 127,
      "chip": "ym2612"
    },
    {
      "channel": 0,
      "note": 55,
      "start": 50.8961,
      "duration": 0.0803,
      "velocity": 105,
      "chip": "ym2612"
    },
    {
      "channel": 3,
      "note": 115,
      "start": 50.8992,
      "duration": 0.0107,
      "velocity": 72,
      "chip": "ym2612"
    },
    {
      "channel": 5,
      "note": 63,
      "start": 51.0298,
      "duration": 0.097,
      "velocity": 127,
      "chip": "ym2612"
    },
    {
      "channel": 0,
      "note": 51,
      "start": 51.0461,
      "duration": 0.0804,
      "velocity": 105,
      "chip": "ym2612"
    },
    {
      "channel": 3,
      "note": 111,
      "start": 51.0488,
      "duration": 0.0112,
      "velocity": 72,
      "chip": "ym2612"
    },
    {
      "channel": 5,
      "note": 65,
      "start": 51.1797,
      "duration": 0.097,
      "velocity": 127,
      "chip": "ym2612"
    },
    {
      "channel": 0,
      "note": 60,
      "start": 51.1962,
      "duration": 0.0803,
      "velocity": 105,
      "chip": "ym2612"
    },
    {
      "channel": 3,
      "note": 115,
      "start": 51.1988,
      "duration": 0.0111,
      "velocity": 72,
      "chip": "ym2612"
    },
    {
      "channel": 5,
      "note": 65,
      "start": 51.3298,
      "duration": 0.0969,
      "velocity": 127,
      "chip": "ym2612"
    },
    {
      "channel": 0,
      "note": 55,
      "start": 51.3464,
      "duration": 0.08,
      "velocity": 105,
      "chip": "ym2612"
    },
    {
      "channel": 3,
      "note": 113,
      "start": 51.3492,
      "duration": 0.0107,
      "velocity": 72,
      "chip": "ym2612"
    },
    {
      "channel": 5,
      "note": 65,
      "start": 51.4798,
      "duration": 0.097,
      "velocity": 127,
      "chip": "ym2612"
    },
    {
      "channel": 0,
      "note": 51,
      "start": 51.4961,
      "duration": 0.0804,
      "velocity": 105,
      "chip": "ym2612"
    },
    {
      "channel": 3,
      "note": 115,
      "start": 51.4988,
      "duration": 0.0112,
      "velocity": 72,
      "chip": "ym2612"
    },
    {
      "channel": 5,
      "note": 65,
      "start": 51.6297,
      "duration": 0.0971,
      "velocity": 127,
      "chip": "ym2612"
    },
    {
      "channel": 0,
      "note": 60,
      "start": 51.6462,
      "duration": 0.0804,
      "velocity": 105,
      "chip": "ym2612"
    },
    {
      "channel": 3,
      "note": 111,
      "start": 51.6488,
      "duration": 0.0111,
      "velocity": 72,
      "chip": "ym2612"
    },
    {
      "channel": 5,
      "note": 65,
      "start": 51.7801,
      "duration": 0.0967,
      "velocity": 127,
      "chip": "ym2612"
    },
    {
      "channel": 0,
      "note": 55,
      "start": 51.796,
      "duration": 0.0805,
      "velocity": 105,
      "chip": "ym2612"
    },
    {
      "channel": 3,
      "note": 115,
      "start": 51.7987,
      "duration": 0.0112,
      "velocity": 72,
      "chip": "ym2612"
    },
    {
      "channel": 5,
      "note": 65,
      "start": 51.9298,
      "duration": 0.097,
      "velocity": 127,
      "chip": "ym2612"
    },
    {
      "channel": 0,
      "note": 51,
      "start": 51.9461,
      "duration": 0.0804,
      "velocity": 105,
      "chip": "ym2612"
    },
    {
      "channel": 3,
      "note": 113,
      "start": 51.9488,
      "duration": 0.0112,
      "velocity": 72,
      "chip": "ym2612"
    },
    {
      "channel": 5,
      "note": 63,
      "start": 52.0797,
      "duration": 0.0971,
      "velocity": 127,
      "chip": "ym2612"
    },
    {
      "channel": 0,
      "note": 60,
      "start": 52.0962,
      "duration": 0.0804,
      "velocity": 105,
      "chip": "ym2612"
    },
    {
      "channel": 3,
      "note": 115,
      "start": 52.0988,
      "duration": 0.0111,
      "velocity": 72,
      "chip": "ym2612"
    },
    {
      "channel": 5,
      "note": 63,
      "start": 52.2298,
      "duration": 0.097,
      "velocity": 127,
      "chip": "ym2612"
    },
    {
      "channel": 0,
      "note": 55,
      "start": 52.2461,
      "duration": 0.0804,
      "velocity": 105,
      "chip": "ym2612"
    },
    {
      "channel": 3,
      "note": 111,
      "start": 52.2488,
      "duration": 0.0112,
      "velocity": 72,
      "chip": "ym2612"
    },
    {
      "channel": 5,
      "note": 63,
      "start": 52.3797,
      "duration": 0.0971,
      "velocity": 127,
      "chip": "ym2612"
    },
    {
      "channel": 0,
      "note": 51,
      "start": 52.3962,
      "duration": 0.0804,
      "velocity": 105,
      "chip": "ym2612"
    },
    {
      "channel": 3,
      "note": 115,
      "start": 52.3988,
      "duration": 0.0111,
      "velocity": 72,
      "chip": "ym2612"
    },
    {
      "channel": 5,
      "note": 63,
      "start": 52.5298,
      "duration": 0.0803,
      "velocity": 127,
      "chip": "ym2612"
    },
    {
      "channel": 0,
      "note": 60,
      "start": 52.5461,
      "duration": 0.0637,
      "velocity": 105,
      "chip": "ym2612"
    },
    {
      "channel": 3,
      "note": 113,
      "start": 52.5488,
      "duration": 0.0112,
      "velocity": 72,
      "chip": "ym2612"
    },
    {
      "channel": 5,
      "note": 63,
      "start": 52.6797,
      "duration": 0.0804,
      "velocity": 127,
      "chip": "ym2612"
    },
    {
      "channel": 0,
      "note": 55,
      "start": 52.6962,
      "duration": 0.0637,
      "velocity": 105,
      "chip": "ym2612"
    },
    {
      "channel": 3,
      "note": 115,
      "start": 52.6988,
      "duration": 0.0111,
      "velocity": 72,
      "chip": "ym2612"
    },
    {
      "channel": 5,
      "note": 63,
      "start": 52.8298,
      "duration": 0.0803,
      "velocity": 127,
      "chip": "ym2612"
    },
    {
      "channel": 0,
      "note": 51,
      "start": 52.8461,
      "duration": 0.0637,
      "velocity": 105,
      "chip": "ym2612"
    },
    {
      "channel": 3,
      "note": 111,
      "start": 52.8488,
      "duration": 0.0112,
      "velocity": 72,
      "chip": "ym2612"
    },
    {
      "channel": 5,
      "note": 65,
      "start": 52.9797,
      "duration": 0.0804,
      "velocity": 127,
      "chip": "ym2612"
    },
    {
      "channel": 0,
      "note": 60,
      "start": 52.9962,
      "duration": 0.0637,
      "velocity": 105,
      "chip": "ym2612"
    },
    {
      "channel": 3,
      "note": 115,
      "start": 52.9988,
      "duration": 0.0111,
      "velocity": 72,
      "chip": "ym2612"
    },
    {
      "channel": 5,
      "note": 65,
      "start": 53.1298,
      "duration": 0.0803,
      "velocity": 127,
      "chip": "ym2612"
    },
    {
      "channel": 0,
      "note": 55,
      "start": 53.1461,
      "duration": 0.0637,
      "velocity": 105,
      "chip": "ym2612"
    },
    {
      "channel": 3,
      "note": 113,
      "start": 53.1488,
      "duration": 0.0112,
      "velocity": 72,
      "chip": "ym2612"
    },
    {
      "channel": 5,
      "note": 65,
      "start": 53.2797,
      "duration": 0.0804,
      "velocity": 127,
      "chip": "ym2612"
    },
    {
      "channel": 0,
      "note": 51,
      "start": 53.2962,
      "duration": 0.0637,
      "velocity": 105,
      "chip": "ym2612"
    },
    {
      "channel": 3,
      "note": 115,
      "start": 53.2992,
      "duration": 0.0106,
      "velocity": 72,
      "chip": "ym2612"
    },
    {
      "channel": 5,
      "note": 65,
      "start": 53.4297,
      "duration": 0.0804,
      "velocity": 127,
      "chip": "ym2612"
    },
    {
      "channel": 0,
      "note": 60,
      "start": 53.4462,
      "duration": 0.0637,
      "velocity": 105,
      "chip": "ym2612"
    },
    {
      "channel": 3,
      "note": 111,
      "start": 53.4488,
      "duration": 0.0111,
      "velocity": 72,
      "chip": "ym2612"
    },
    {
      "channel": 5,
      "note": 65,
      "start": 53.5798,
      "duration": 0.0803,
      "velocity": 127,
      "chip": "ym2612"
    },
    {
      "channel": 0,
      "note": 55,
      "start": 53.5961,
      "duration": 0.0637,
      "velocity": 105,
      "chip": "ym2612"
    },
    {
      "channel": 3,
      "note": 115,
      "start": 53.5988,
      "duration": 0.0112,
      "velocity": 72,
      "chip": "ym2612"
    },
    {
      "channel": 5,
      "note": 65,
      "start": 53.7298,
      "duration": 0.0802,
      "velocity": 127,
      "chip": "ym2612"
    },
    {
      "channel": 0,
      "note": 51,
      "start": 53.7465,
      "duration": 0.0633,
      "velocity": 105,
      "chip": "ym2612"
    },
    {
      "channel": 3,
      "note": 113,
      "start": 53.7495,
      "duration": 0.0105,
      "velocity": 72,
      "chip": "ym2612"
    },
    {
      "channel": 5,
      "note": 63,
      "start": 53.8797,
      "duration": 0.0805,
      "velocity": 127,
      "chip": "ym2612"
    },
    {
      "channel": 0,
      "note": 58,
      "start": 53.8962,
      "duration": 0.0636,
      "velocity": 105,
      "chip": "ym2612"
    },
    {
      "channel": 1,
      "note": 70,
      "start": 53.8992,
      "duration": 0.0607,
      "velocity": 1,
      "chip": "ym2612"
    },
    {
      "channel": 5,
      "note": 63,
      "start": 54.0298,
      "duration": 0.0803,
      "velocity": 127,
      "chip": "ym2612"
    },
    {
      "channel": 0,
      "note": 55,
      "start": 54.0462,
      "duration": 0.0636,
      "velocity": 105,
      "chip": "ym2612"
    },
    {
      "channel": 1,
      "note": 58,
      "start": 54.049,
      "duration": 0.0609,
      "velocity": 1,
      "chip": "ym2612"
    },
    {
      "channel": 5,
      "note": 63,
      "start": 54.1803,
      "duration": 0.0799,
      "velocity": 127,
      "chip": "ym2612"
    },
    {
      "channel": 0,
      "note": 51,
      "start": 54.1961,
      "duration": 0.0637,
      "velocity": 105,
      "chip": "ym2612"
    },
    {
      "channel": 1,
      "note": 70,
      "start": 54.199,
      "duration": 0.061,
      "velocity": 1,
      "chip": "ym2612"
    },
    {
      "channel": 0,
      "note": 58,
      "start": 54.3461,
      "duration": 0.0637,
      "velocity": 105,
      "chip": "ym2612"
    },
    {
      "channel": 5,
      "note": 63,
      "start": 54.3492,
      "duration": 0.061,
      "velocity": 127,
      "chip": "ym2612"
    },
    {
      "channel": 1,
      "note": 58,
      "start": 54.352,
      "duration": 0.058,
      "velocity": 1,
      "chip": "ym2612"
    },
    {
      "channel": 5,
      "note": 63,
      "start": 54.4801,
      "duration": 0.0801,
      "velocity": 127,
      "chip": "ym2612"
    },
    {
      "channel": 0,
      "note": 55,
      "start": 54.4961,
      "duration": 0.0637,
      "velocity": 105,
      "chip": "ym2612"
    },
    {
      "channel": 1,
      "note": 70,
      "start": 54.4993,
      "duration": 0.0606,
      "velocity": 1,
      "chip": "ym2612"
    },
    {
      "channel": 5,
      "note": 63,
      "start": 54.6298,
      "duration": 0.0803,
      "velocity": 127,
      "chip": "ym2612"
    },
    {
      "channel": 0,
      "note": 51,
      "start": 54.6462,
      "duration": 0.0637,
      "velocity": 105,
      "chip": "ym2612"
    },
    {
      "channel": 1,
      "note": 58,
      "start": 54.649,
      "duration": 0.061,
      "velocity": 1,
      "chip": "ym2612"
    },
    {
      "channel": 5,
      "note": 65,
      "start": 54.7798,
      "duration": 0.0803,
      "velocity": 127,
      "chip": "ym2612"
    },
    {
      "channel": 0,
      "note": 58,
      "start": 54.7962,
      "duration": 0.0636,
      "velocity": 105,
      "chip": "ym2612"
    },
    {
      "channel": 1,
      "note": 70,
      "start": 54.799,
      "duration": 0.0609,
      "velocity": 1,
      "chip": "ym2612"
    },
    {
      "channel": 5,
      "note": 65,
      "start": 54.9298,
      "duration": 0.0804,
      "velocity": 127,
      "chip": "ym2612"
    },
    {
      "channel": 0,
      "note": 55,
      "start": 54.9461,
      "duration": 0.0637,
      "velocity": 105,
      "chip": "ym2612"
    },
    {
      "channel": 1,
      "note": 58,
      "start": 54.949,
      "duration": 0.061,
      "velocity": 1,
      "chip": "ym2612"
    },
    {
      "channel": 5,
      "note": 65,
      "start": 55.0798,
      "duration": 0.0803,
      "velocity": 127,
      "chip": "ym2612"
    },
    {
      "channel": 0,
      "note": 51,
      "start": 55.0962,
      "duration": 0.0636,
      "velocity": 105,
      "chip": "ym2612"
    },
    {
      "channel": 1,
      "note": 70,
      "start": 55.099,
      "duration": 0.0609,
      "velocity": 1,
      "chip": "ym2612"
    },
    {
      "channel": 5,
      "note": 65,
      "start": 55.2298,
      "duration": 0.0805,
      "velocity": 127,
      "chip": "ym2612"
    },
    {
      "channel": 0,
      "note": 58,
      "start": 55.2461,
      "duration": 0.0637,
      "velocity": 105,
      "chip": "ym2612"
    },
    {
      "channel": 1,
      "note": 58,
      "start": 55.249,
      "duration": 0.061,
      "velocity": 1,
      "chip": "ym2612"
    },
    {
      "channel": 5,
      "note": 65,
      "start": 55.3798,
      "duration": 0.0804,
      "velocity": 127,
      "chip": "ym2612"
    },
    {
      "channel": 0,
      "note": 55,
      "start": 55.3961,
      "duration": 0.0637,
      "velocity": 105,
      "chip": "ym2612"
    },
    {
      "channel": 1,
      "note": 70,
      "start": 55.399,
      "duration": 0.061,
      "velocity": 1,
      "chip": "ym2612"
    },
    {
      "channel": 5,
      "note": 65,
      "start": 55.5298,
      "duration": 0.0803,
      "velocity": 127,
      "chip": "ym2612"
    },
    {
      "channel": 0,
      "note": 51,
      "start": 55.5462,
      "duration": 0.0636,
      "velocity": 105,
      "chip": "ym2612"
    },
    {
      "channel": 1,
      "note": 58,
      "start": 55.549,
      "duration": 0.0609,
      "velocity": 1,
      "chip": "ym2612"
    },
    {
      "channel": 5,
      "note": 63,
      "start": 55.6798,
      "duration": 0.0804,
      "velocity": 127,
      "chip": "ym2612"
    },
    {
      "channel": 0,
      "note": 58,
      "start": 55.6961,
      "duration": 0.0637,
      "velocity": 105,
      "chip": "ym2612"
    },
    {
      "channel": 1,
      "note": 70,
      "start": 55.6992,
      "duration": 0.0608,
      "velocity": 1,
      "chip": "ym2612"
    },
    {
      "channel": 5,
      "note": 63,
      "start": 55.8135,
      "duration": 0.0966,
      "velocity": 127,
      "chip": "ym2612"
    },
    {
      "channel": 0,
      "note": 55,
      "start": 55.8461,
      "duration": 0.0637,
      "velocity": 105,
      "chip": "ym2612"
    },
    {
      "channel": 5,
      "note": 63,
      "start": 55.963,
      "duration": 0.0971,
      "velocity": 127,
      "chip": "ym2612"
    },
    {
      "channel": 0,
      "note": 51,
      "start": 55.9961,
      "duration": 0.0637,
      "velocity": 105,
      "chip": "ym2612"
    },
    {
      "channel": 5,
      "note": 63,
      "start": 56.113,
      "duration": 0.097,
      "velocity": 127,
      "chip": "ym2612"
    },
    {
      "channel": 0,
      "note": 58,
      "start": 56.1464,
      "duration": 0.0634,
      "velocity": 105,
      "chip": "ym2612"
    },
    {
      "channel": 5,
      "note": 63,
      "start": 56.2631,
      "duration": 0.097,
      "velocity": 127,
      "chip": "ym2612"
    },
    {
      "channel": 0,
      "note": 55,
      "start": 56.2962,
      "duration": 0.0637,
      "velocity": 105,
      "chip": "ym2612"
    },
    {
      "channel": 5,
      "note": 63,
      "start": 56.413,
      "duration": 0.0971,
      "velocity": 127,
      "chip": "ym2612"
    },
    {
      "channel": 0,
      "note": 51,
      "start": 56.4461,
      "duration": 0.0637,
      "velocity": 105,
      "chip": "ym2612"
    },
    {
      "channel": 5,
      "note": 65,
      "start": 56.563,
      "duration": 0.0971,
      "velocity": 127,
      "chip": "ym2612"
    },
    {
      "channel": 0,
      "note": 58,
      "start": 56.5961,
      "duration": 0.0637,
      "velocity": 105,
      "chip": "ym2612"
    },
    {
      "channel": 5,
      "note": 65,
      "start": 56.713,
      "duration": 0.0971,
      "velocity": 127,
      "chip": "ym2612"
    },
    {
      "channel": 0,
      "note": 55,
      "start": 56.7461,
      "duration": 0.0637,
      "velocity": 105,
      "chip": "ym2612"
    },
    {
      "channel": 5,
      "note": 65,
      "start": 56.863,
      "duration": 0.097,
      "velocity": 127,
      "chip": "ym2612"
    },
    {
      "channel": 0,
      "note": 51,
      "start": 56.8795,
      "duration": 0.0803,
      "velocity": 105,
      "chip": "ym2612"
    },
    {
      "channel": 5,
      "note": 65,
      "start": 57.0132,
      "duration": 0.0969,
      "velocity": 127,
      "chip": "ym2612"
    },
    {
      "channel": 0,
      "note": 58,
      "start": 57.0295,
      "duration": 0.0803,
      "velocity": 105,
      "chip": "ym2612"
    },
    {
      "channel": 5,
      "note": 65,
      "start": 57.1632,
      "duration": 0.0969,
      "velocity": 127,
      "chip": "ym2612"
    },
    {
      "channel": 0,
      "note": 55,
      "start": 57.1795,
      "duration": 0.0803,
      "velocity": 105,
      "chip": "ym2612"
    },
    {
      "channel": 5,
      "note": 65,
      "start": 57.3132,
      "duration": 0.0969,
      "velocity": 127,
      "chip": "ym2612"
    },
    {
      "channel": 0,
      "note": 51,
      "start": 57.3295,
      "duration": 0.0803,
      "velocity": 105,
      "chip": "ym2612"
    },
    {
      "channel": 5,
      "note": 63,
      "start": 57.4632,
      "duration": 0.0969,
      "velocity": 127,
      "chip": "ym2612"
    },
    {
      "channel": 0,
      "note": 60,
      "start": 57.4822,
      "duration": 0.0776,
      "velocity": 105,
      "chip": "ym2612"
    },
    {
      "channel": 5,
      "note": 63,
      "start": 57.6131,
      "duration": 0.097,
      "velocity": 127,
      "chip": "ym2612"
    },
    {
      "channel": 0,
      "note": 55,
      "start": 57.6294,
      "duration": 0.0804,
      "velocity": 105,
      "chip": "ym2612"
    },
    {
      "channel": 5,
      "note": 63,
      "start": 57.763,
      "duration": 0.097,
      "velocity": 127,
      "chip": "ym2612"
    },
    {
      "channel": 0,
      "note": 51,
      "start": 57.7795,
      "duration": 0.0803,
      "velocity": 105,
      "chip": "ym2612"
    },
    {
      "channel": 5,
      "note": 63,
      "start": 57.9132,
      "duration": 0.0969,
      "velocity": 127,
      "chip": "ym2612"
    },
    {
      "channel": 0,
      "note": 60,
      "start": 57.9295,
      "duration": 0.0803,
      "velocity": 105,
      "chip": "ym2612"
    },
    {
      "channel": 5,
      "note": 63,
      "start": 58.0632,
      "duration": 0.097,
      "velocity": 127,
      "chip": "ym2612"
    },
    {
      "channel": 0,
      "note": 55,
      "start": 58.0795,
      "duration": 0.0803,
      "velocity": 105,
      "chip": "ym2612"
    },
    {
      "channel": 1,
      "note": 55,
      "start": 58.0825,
      "duration": 0.0774,
      "velocity": 1,
      "chip": "ym2612"
    },
    {
      "channel": 5,
      "note": 63,
      "start": 58.2135,
      "duration": 0.0968,
      "velocity": 127,
      "chip": "ym2612"
    },
    {
      "channel": 0,
      "note": 51,
      "start": 58.2294,
      "duration": 0.0805,
      "velocity": 105,
      "chip": "ym2612"
    },
    {
      "channel": 1,
      "note": 67,
      "start": 58.2324,
      "duration": 0.0776,
      "velocity": 1,
      "chip": "ym2612"
    },
    {
      "channel": 5,
      "note": 65,
      "start": 58.363,
      "duration": 0.097,
      "velocity": 127,
      "chip": "ym2612"
    },
    {
      "channel": 0,
      "note": 60,
      "start": 58.3795,
      "duration": 0.0803,
      "velocity": 105,
      "chip": "ym2612"
    },
    {
      "channel": 5,
      "note": 65,
      "start": 58.5132,
      "duration": 0.0971,
      "velocity": 127,
      "chip": "ym2612"
    },
    {
      "channel": 0,
      "note": 55,
      "start": 58.5298,
      "duration": 0.08,
      "velocity": 105,
      "chip": "ym2612"
    },
    {
      "channel": 1,
      "note": 55,
      "start": 58.5332,
      "duration": 0.0767,
      "velocity": 1,
      "chip": "ym2612"
    },
    {
      "channel": 5,
      "note": 65,
      "start": 58.663,
      "duration": 0.0971,
      "velocity": 127,
      "chip": "ym2612"
    },
    {
      "channel": 0,
      "note": 51,
      "start": 58.6795,
      "duration": 0.0803,
      "velocity": 105,
      "chip": "ym2612"
    },
    {
      "channel": 1,
      "note": 67,
      "start": 58.6825,
      "duration": 0.0774,
      "velocity": 1,
      "chip": "ym2612"
    },
    {
      "channel": 5,
      "note": 65,
      "start": 58.8131,
      "duration": 0.097,
      "velocity": 127,
      "chip": "ym2612"
    },
    {
      "channel": 0,
      "note": 60,
      "start": 58.8294,
      "duration": 0.0804,
      "velocity": 105,
      "chip": "ym2612"
    },
    {
      "channel": 5,
      "note": 65,
      "start": 58.963,
      "duration": 0.0971,
      "velocity": 127,
      "chip": "ym2612"
    },
    {
      "channel": 0,
      "note": 55,
      "start": 58.9795,
      "duration": 0.0803,
      "velocity": 105,
      "chip": "ym2612"
    },
    {
      "channel": 1,
      "note": 55,
      "start": 58.9825,
      "duration": 0.0774,
      "velocity": 1,
      "chip": "ym2612"
    },
    {
      "channel": 5,
      "note": 65,
      "start": 59.113,
      "duration": 0.0971,
      "velocity": 127,
      "chip": "ym2612"
    },
    {
      "channel": 0,
      "note": 51,
      "start": 59.1295,
      "duration": 0.0803,
      "velocity": 105,
      "chip": "ym2612"
    },
    {
      "channel": 1,
      "note": 67,
      "start": 59.1325,
      "duration": 0.0774,
      "velocity": 1,
      "chip": "ym2612"
    },
    {
      "channel": 5,
      "note": 63,
      "start": 59.2633,
      "duration": 0.0134,
      "velocity": 127,
      "chip": "ym2612"
    },
    {
      "channel": 0,
      "note": 60,
      "start": 59.2796,
      "duration": 0.0803,
      "velocity": 105,
      "chip": "ym2612"
    },
    {
      "channel": 5,
      "note": 63,
      "start": 59.2827,
      "duration": 0.0774,
      "velocity": 127,
      "chip": "ym2612"
    },
    {
      "channel": 5,
      "note": 63,
      "start": 59.4133,
      "duration": 0.0967,
      "velocity": 127,
      "chip": "ym2612"
    },
    {
      "channel": 0,
      "note": 55,
      "start": 59.4295,
      "duration": 0.0803,
      "velocity": 105,
      "chip": "ym2612"
    },
    {
      "channel": 5,
      "note": 63,
      "start": 59.5635,
      "duration": 0.0966,
      "velocity": 127,
      "chip": "ym2612"
    },
    {
      "channel": 0,
      "note": 51,
      "start": 59.5794,
      "duration": 0.0804,
      "velocity": 105,
      "chip": "ym2612"
    },
    {
      "channel": 5,
      "note": 63,
      "start": 59.7131,
      "duration": 0.097,
      "velocity": 127,
      "chip": "ym2612"
    },
    {
      "channel": 0,
      "note": 60,
      "start": 59.7294,
      "duration": 0.0804,
      "velocity": 105,
      "chip": "ym2612"
    },
    {
      "channel": 5,
      "note": 63,
      "start": 59.863,
      "duration": 0.097,
      "velocity": 127,
      "chip": "ym2612"
    },
    {
      "channel": 0,
      "note": 55,
      "start": 59.8795,
      "duration": 0.0803,
      "velocity": 105,
      "chip": "ym2612"
    },
    {
      "channel": 5,
      "note": 63,
      "start": 60.0131,
      "duration": 0.097,
      "velocity": 127,
      "chip": "ym2612"
    },
    {
      "channel": 0,
      "note": 51,
      "start": 60.0294,
      "duration": 0.0804,
      "velocity": 105,
      "chip": "ym2612"
    },
    {
      "channel": 5,
      "note": 65,
      "start": 60.163,
      "duration": 0.0971,
      "velocity": 127,
      "chip": "ym2612"
    },
    {
      "channel": 0,
      "note": 60,
      "start": 60.1795,
      "duration": 0.0803,
      "velocity": 105,
      "chip": "ym2612"
    },
    {
      "channel": 1,
      "note": 67,
      "start": 60.1827,
      "duration": 0.0939,
      "velocity": 1,
      "chip": "ym2612"
    },
    {
      "channel": 5,
      "note": 65,
      "start": 60.3132,
      "duration": 0.097,
      "velocity": 127,
      "chip": "ym2612"
    },
    {
      "channel": 0,
      "note": 55,
      "start": 60.3294,
      "duration": 0.0805,
      "velocity": 105,
      "chip": "ym2612"
    },
    {
      "channel": 1,
      "note": 55,
      "start": 60.3323,
      "duration": 0.0942,
      "velocity": 1,
      "chip": "ym2612"
    },
    {
      "channel": 5,
      "note": 65,
      "start": 60.463,
      "duration": 0.0971,
      "velocity": 127,
      "chip": "ym2612"
    },
    {
      "channel": 0,
      "note": 51,
      "start": 60.4795,
      "duration": 0.0803,
      "velocity": 105,
      "chip": "ym2612"
    },
    {
      "channel": 1,
      "note": 67,
      "start": 60.4827,
      "duration": 0.0773,
      "velocity": 1,
      "chip": "ym2612"
    },
    {
      "channel": 5,
      "note": 65,
      "start": 60.6131,
      "duration": 0.097,
      "velocity": 127,
      "chip": "ym2612"
    },
    {
      "channel": 0,
      "note": 60,
      "start": 60.6294,
      "duration": 0.0804,
      "velocity": 105,
      "chip": "ym2612"
    },
    {
      "channel": 5,
      "note": 65,
      "start": 60.763,
      "duration": 0.0971,
      "velocity": 127,
      "chip": "ym2612"
    },
    {
      "channel": 0,
      "note": 55,
      "start": 60.7795,
      "duration": 0.0804,
      "velocity": 105,
      "chip": "ym2612"
    },
    {
      "channel": 5,
      "note": 65,
      "start": 60.9131,
      "duration": 0.0969,
      "velocity": 127,
      "chip": "ym2612"
    },
    {
      "channel": 0,
      "note": 51,
      "start": 60.9298,
      "duration": 0.08,
      "velocity": 105,
      "chip": "ym2612"
    },
    {
      "channel": 5,
      "note": 63,
      "start": 61.0635,
      "duration": 0.0632,
      "velocity": 127,
      "chip": "ym2612"
    },
    {
      "channel": 0,
      "note": 58,
      "start": 61.0795,
      "duration": 0.0637,
      "velocity": 105,
      "chip": "ym2612"
    },
    {
      "channel": 3,
      "note": 63,
      "start": 61.0825,
      "duration": 0.0608,
      "velocity": 127,
      "chip": "ym2612"
    },
    {
      "channel": 3,
      "note": 63,
      "start": 61.2137,
      "duration": 0.0795,
      "velocity": 127,
      "chip": "ym2612"
    },
    {
      "channel": 0,
      "note": 55,
      "start": 61.2295,
      "duration": 0.0636,
      "velocity": 105,
      "chip": "ym2612"
    },
    {
      "channel": 3,
      "note": 63,
      "start": 61.3629,
      "duration": 0.0804,
      "velocity": 127,
      "chip": "ym2612"
    },
    {
      "channel": 0,
      "note": 51,
      "start": 61.3794,
      "duration": 0.0637,
      "velocity": 105,
      "chip": "ym2612"
    },
    {
      "channel": 3,
      "note": 63,
      "start": 61.5129,
      "duration": 0.0804,
      "velocity": 127,
      "chip": "ym2612"
    },
    {
      "channel": 0,
      "note": 58,
      "start": 61.5294,
      "duration": 0.0637,
      "velocity": 105,
      "chip": "ym2612"
    },
    {
      "channel": 1,
      "note": 67,
      "start": 61.5329,
      "duration": 0.0935,
      "velocity": 1,
      "chip": "ym2612"
    },
    {
      "channel": 3,
      "note": 63,
      "start": 61.663,
      "duration": 0.0803,
      "velocity": 127,
      "chip": "ym2612"
    },
    {
      "channel": 0,
      "note": 55,
      "start": 61.6795,
      "duration": 0.0637,
      "velocity": 105,
      "chip": "ym2612"
    },
    {
      "channel": 1,
      "note": 55,
      "start": 61.6824,
      "duration": 0.0941,
      "velocity": 1,
      "chip": "ym2612"
    },
    {
      "channel": 3,
      "note": 63,
      "start": 61.8129,
      "duration": 0.0805,
      "velocity": 127,
      "chip": "ym2612"
    },
    {
      "channel": 0,
      "note": 51,
      "start": 61.8294,
      "duration": 0.0638,
      "velocity": 105,
      "chip": "ym2612"
    },
    {
      "channel": 1,
      "note": 67,
      "start": 61.8324,
      "duration": 0.0941,
      "velocity": 1,
      "chip": "ym2612"
    },
    {
      "channel": 3,
      "note": 63,
      "start": 61.9629,
      "duration": 0.0804,
      "velocity": 127,
      "chip": "ym2612"
    },
    {
      "channel": 0,
      "note": 58,
      "start": 61.9794,
      "duration": 0.0637,
      "velocity": 105,
      "chip": "ym2612"
    },
    {
      "channel": 3,
      "note": 63,
      "start": 62.1129,
      "duration": 0.0804,
      "velocity": 127,
      "chip": "ym2612"
    },
    {
      "channel": 1,
      "note": 55,
      "start": 62.116,
      "duration": 0.0606,
      "velocity": 1,
      "chip": "ym2612"
    },
    {
      "channel": 0,
      "note": 55,
      "start": 62.1294,
      "duration": 0.0637,
      "velocity": 105,
      "chip": "ym2612"
    },
    {
      "channel": 3,
      "note": 63,
      "start": 62.2629,
      "duration": 0.0804,
      "velocity": 127,
      "chip": "ym2612"
    },
    {
      "channel": 0,
      "note": 51,
      "start": 62.2794,
      "duration": 0.0637,
      "velocity": 105,
      "chip": "ym2612"
    },
    {
      "channel": 3,
      "note": 63,
      "start": 62.4129,
      "duration": 0.0805,
      "velocity": 127,
      "chip": "ym2612"
    },
    {
      "channel": 0,
      "note": 58,
      "start": 62.4294,
      "duration": 0.0638,
      "velocity": 105,
      "chip": "ym2612"
    },
    {
      "channel": 1,
      "note": 67,
      "start": 62.4324,
      "duration": 0.0609,
      "velocity": 1,
      "chip": "ym2612"
    },
    {
      "channel": 3,
      "note": 63,
      "start": 62.563,
      "duration": 0.0804,
      "velocity": 127,
      "chip": "ym2612"
    },
    {
      "channel": 0,
      "note": 55,
      "start": 62.5795,
      "duration": 0.0637,
      "velocity": 105,
      "chip": "ym2612"
    },
    {
      "channel": 1,
      "note": 55,
      "start": 62.5824,
      "duration": 0.0609,
      "velocity": 1,
      "chip": "ym2612"
    },
    {
      "channel": 3,
      "note": 62,
      "start": 62.7132,
      "duration": 0.0802,
      "velocity": 127,
      "chip": "ym2612"
    },
    {
      "channel": 0,
      "note": 51,
      "start": 62.7294,
      "duration": 0.0638,
      "velocity": 105,
      "chip": "ym2612"
    },
    {
      "channel": 1,
      "note": 67,
      "start": 62.7323,
      "duration": 0.061,
      "velocity": 1,
      "chip": "ym2612"
    },
    {
      "channel": 0,
      "note": 58,
      "start": 62.8794,
      "duration": 0.0637,
      "velocity": 105,
      "chip": "ym2612"
    },
    {
      "channel": 3,
      "note": 58,
      "start": 62.8829,
      "duration": 0.0605,
      "velocity": 127,
      "chip": "ym2612"
    },
    {
      "channel": 1,
      "note": 55,
      "start": 62.8858,
      "duration": 0.0574,
      "velocity": 1,
      "chip": "ym2612"
    },
    {
      "channel": 0,
      "note": 55,
      "start": 63.0294,
      "duration": 0.0637,
      "velocity": 105,
      "chip": "ym2612"
    },
    {
      "channel": 0,
      "note": 51,
      "start": 63.1794,
      "duration": 0.0637,
      "velocity": 105,
      "chip": "ym2612"
    },
    {
      "channel": 0,
      "note": 58,
      "start": 63.3298,
      "duration": 0.0634,
      "velocity": 105,
      "chip": "ym2612"
    },
    {
      "channel": 1,
      "note": 67,
      "start": 63.3328,
      "duration": 0.0605,
      "velocity": 1,
      "chip": "ym2612"
    },
    {
      "channel": 0,
      "note": 55,
      "start": 63.4794,
      "duration": 0.0637,
      "velocity": 105,
      "chip": "ym2612"
    },
    {
      "channel": 1,
      "note": 55,
      "start": 63.4828,
      "duration": 0.0604,
      "velocity": 1,
      "chip": "ym2612"
    },
    {
      "channel": 4,
      "note": 53,
      "start": 63.4859,
      "duration": 0.0576,
      "velocity": 1,
      "chip": "ym2612"
    },
    {
      "channel": 1,
      "note": 67,
      "start": 63.6135,
      "duration": 0.0798,
      "velocity": 1,
      "chip": "ym2612"
    },
    {
      "channel": 0,
      "note": 51,
      "start": 63.6294,
      "duration": 0.0637,
      "velocity": 105,
      "chip": "ym2612"
    },
    {
      "channel": 0,
      "note": 58,
      "start": 63.7794,
      "duration": 0.0637,
      "velocity": 105,
      "chip": "ym2612"
    },
    {
      "channel": 1,
      "note": 55,
      "start": 63.7826,
      "duration": 0.0607,
      "velocity": 1,
      "chip": "ym2612"
    },
    {
      "channel": 0,
      "note": 55,
      "start": 63.9294,
      "duration": 0.0637,
      "velocity": 105,
      "chip": "ym2612"
    },
    {
      "channel": 1,
      "note": 67,
      "start": 63.9323,
      "duration": 0.061,
      "velocity": 1,
      "chip": "ym2612"
    },
    {
      "channel": 0,
      "note": 51,
      "start": 64.0794,
      "duration": 0.0637,
      "velocity": 105,
      "chip": "ym2612"
    },
    {
      "channel": 1,
      "note": 55,
      "start": 64.0823,
      "duration": 0.061,
      "velocity": 1,
      "chip": "ym2612"
    },
    {
      "channel": 0,
      "note": 58,
      "start": 64.2294,
      "duration": 0.0637,
      "velocity": 105,
      "chip": "ym2612"
    },
    {
      "channel": 1,
      "note": 67,
      "start": 64.2323,
      "duration": 0.061,
      "velocity": 1,
      "chip": "ym2612"
    },
    {
      "channel": 0,
      "note": 55,
      "start": 64.3794,
      "duration": 0.0637,
      "velocity": 105,
      "chip": "ym2612"
    },
    {
      "channel": 1,
      "note": 55,
      "start": 64.3823,
      "duration": 0.061,
      "velocity": 1,
      "chip": "ym2612"
    },
    {
      "channel": 2,
      "note": 93,
      "start": 64.3852,
      "duration": 0.1082,
      "velocity": 60,
      "chip": "ym2612"
    },
    {
      "channel": 0,
      "note": 51,
      "start": 64.5295,
      "duration": 0.0636,
      "velocity": 105,
      "chip": "ym2612"
    },
    {
      "channel": 1,
      "note": 67,
      "start": 64.5326,
      "duration": 0.0606,
      "velocity": 1,
      "chip": "ym2612"
    },
    {
      "channel": 0,
      "note": 60,
      "start": 64.6822,
      "duration": 0.0609,
      "velocity": 105,
      "chip": "ym2612"
    },
    {
      "channel": 5,
      "note": 91,
      "start": 64.6854,
      "duration": 0.0747,
      "velocity": 72,
      "chip": "ym2612"
    },
    {
      "channel": 2,
      "note": 93,
      "start": 64.6889,
      "duration": 0.1044,
      "velocity": 60,
      "chip": "ym2612"
    },
    {
      "channel": 3,
      "note": 87,
      "start": 64.7467,
      "duration": 0.0132,
      "velocity": 72,
      "chip": "ym2612"
    },
    {
      "channel": 0,
      "note": 55,
      "start": 64.8294,
      "duration": 0.0637,
      "velocity": 105,
      "chip": "ym2612"
    },
    {
      "channel": 3,
      "note": 89,
      "start": 64.8321,
      "duration": 0.0112,
      "velocity": 72,
      "chip": "ym2612"
    },
    {
      "channel": 3,
      "note": 91,
      "start": 64.8967,
      "duration": 0.0132,
      "velocity": 72,
      "chip": "ym2612"
    },
    {
      "channel": 0,
      "note": 51,
      "start": 64.9794,
      "duration": 0.0637,
      "velocity": 105,
      "chip": "ym2612"
    },
    {
      "channel": 3,
      "note": 87,
      "start": 64.9821,
      "duration": 0.0111,
      "velocity": 72,
      "chip": "ym2612"
    },
    {
      "channel": 2,
      "note": 93,
      "start": 64.985,
      "duration": 0.1083,
      "velocity": 60,
      "chip": "ym2612"
    },
    {
      "channel": 3,
      "note": 89,
      "start": 65.0464,
      "duration": 0.0136,
      "velocity": 72,
      "chip": "ym2612"
    },
    {
      "channel": 0,
      "note": 60,
      "start": 65.1295,
      "duration": 0.0637,
      "velocity": 105,
      "chip": "ym2612"
    },
    {
      "channel": 3,
      "note": 91,
      "start": 65.1324,
      "duration": 0.0109,
      "velocity": 72,
      "chip": "ym2612"
    },
    {
      "channel": 0,
      "note": 55,
      "start": 65.2794,
      "duration": 0.0637,
      "velocity": 105,
      "chip": "ym2612"
    },
    {
      "channel": 2,
      "note": 93,
      "start": 65.2825,
      "duration": 0.1108,
      "velocity": 60,
      "chip": "ym2612"
    },
    {
      "channel": 0,
      "note": 51,
      "start": 65.4127,
      "duration": 0.0805,
      "velocity": 105,
      "chip": "ym2612"
    },
    {
      "channel": 0,
      "note": 60,
      "start": 65.5627,
      "duration": 0.0804,
      "velocity": 105,
      "chip": "ym2612"
    },
    {
      "channel": 2,
      "note": 93,
      "start": 65.5659,
      "duration": 0.1275,
      "velocity": 60,
      "chip": "ym2612"
    },
    {
      "channel": 3,
      "note": 94,
      "start": 65.6465,
      "duration": 0.0134,
      "velocity": 72,
      "chip": "ym2612"
    },
    {
      "channel": 0,
      "note": 55,
      "start": 65.7131,
      "duration": 0.0802,
      "velocity": 105,
      "chip": "ym2612"
    },
    {
      "channel": 3,
      "note": 96,
      "start": 65.7158,
      "duration": 0.0275,
      "velocity": 72,
      "chip": "ym2612"
    },
    {
      "channel": 3,
      "note": 99,
      "start": 65.7964,
      "duration": 0.0136,
      "velocity": 72,
      "chip": "ym2612"
    },
    {
      "channel": 0,
      "note": 51,
      "start": 65.8628,
      "duration": 0.0803,
      "velocity": 105,
      "chip": "ym2612"
    },
    {
      "channel": 3,
      "note": 96,
      "start": 65.8657,
      "duration": 0.0276,
      "velocity": 72,
      "chip": "ym2612"
    },
    {
      "channel": 2,
      "note": 93,
      "start": 65.8685,
      "duration": 0.1248,
      "velocity": 60,
      "chip": "ym2612"
    },
    {
      "channel": 0,
      "note": 60,
      "start": 66.0127,
      "duration": 0.0805,
      "velocity": 105,
      "chip": "ym2612"
    },
    {
      "channel": 0,
      "note": 55,
      "start": 66.1628,
      "duration": 0.0804,
      "velocity": 105,
      "chip": "ym2612"
    },
    {
      "channel": 2,
      "note": 93,
      "start": 66.1658,
      "duration": 0.1277,
      "velocity": 60,
      "chip": "ym2612"
    },
    {
      "channel": 0,
      "note": 51,
      "start": 66.3128,
      "duration": 0.0803,
      "velocity": 105,
      "chip": "ym2612"
    },
    {
      "channel": 0,
      "note": 60,
      "start": 66.4627,
      "duration": 0.0804,
      "velocity": 105,
      "chip": "ym2612"
    },
    {
      "channel": 3,
      "note": 91,
      "start": 66.4657,
      "duration": 0.0942,
      "velocity": 72,
      "chip": "ym2612"
    },
    {
      "channel": 2,
      "note": 93,
      "start": 66.4689,
      "duration": 0.1245,
      "velocity": 60,
      "chip": "ym2612"
    },
    {
      "channel": 5,
      "note": 87,
      "start": 66.5467,
      "duration": 0.0134,
      "velocity": 72,
      "chip": "ym2612"
    },
    {
      "channel": 0,
      "note": 55,
      "start": 66.6128,
      "duration": 0.0803,
      "velocity": 105,
      "chip": "ym2612"
    },
    {
      "channel": 3,
      "note": 89,
      "start": 66.6158,
      "duration": 0.0107,
      "velocity": 72,
      "chip": "ym2612"
    },
    {
      "channel": 3,
      "note": 91,
      "start": 66.6963,
      "duration": 0.0137,
      "velocity": 72,
      "chip": "ym2612"
    },
    {
      "channel": 0,
      "note": 51,
      "start": 66.7627,
      "duration": 0.0804,
      "velocity": 105,
      "chip": "ym2612"
    },
    {
      "channel": 3,
      "note": 87,
      "start": 66.7654,
      "duration": 0.0111,
      "velocity": 72,
      "chip": "ym2612"
    },
    {
      "channel": 2,
      "note": 93,
      "start": 66.7682,
      "duration": 0.1251,
      "velocity": 60,
      "chip": "ym2612"
    },
    {
      "channel": 3,
      "note": 89,
      "start": 66.8463,
      "duration": 0.0136,
      "velocity": 72,
      "chip": "ym2612"
    },
    {
      "channel": 0,
      "note": 60,
      "start": 66.9128,
      "duration": 0.0804,
      "velocity": 105,
      "chip": "ym2612"
    },
    {
      "channel": 3,
      "note": 91,
      "start": 66.9156,
      "duration": 0.011,
      "velocity": 72,
      "chip": "ym2612"
    },
    {
      "channel": 0,
      "note": 55,
      "start": 67.0628,
      "duration": 0.0803,
      "velocity": 105,
      "chip": "ym2612"
    },
    {
      "channel": 2,
      "note": 93,
      "start": 67.0658,
      "duration": 0.1277,
      "velocity": 60,
      "chip": "ym2612"
    },
    {
      "channel": 0,
      "note": 51,
      "start": 67.2128,
      "duration": 0.0804,
      "velocity": 105,
      "chip": "ym2612"
    },
    {
      "channel": 0,
      "note": 60,
      "start": 67.3627,
      "duration": 0.0805,
      "velocity": 105,
      "chip": "ym2612"
    },
    {
      "channel": 2,
      "note": 93,
      "start": 67.3662,
      "duration": 0.1271,
      "velocity": 60,
      "chip": "ym2612"
    },
    {
      "channel": 3,
      "note": 94,
      "start": 67.4466,
      "duration": 0.0132,
      "velocity": 72,
      "chip": "ym2612"
    },
    {
      "channel": 0,
      "note": 55,
      "start": 67.5127,
      "duration": 0.0804,
      "velocity": 105,
      "chip": "ym2612"
    },
    {
      "channel": 3,
      "note": 96,
      "start": 67.5154,
      "duration": 0.0112,
      "velocity": 72,
      "chip": "ym2612"
    },
    {
      "channel": 3,
      "note": 99,
      "start": 67.5963,
      "duration": 0.0136,
      "velocity": 72,
      "chip": "ym2612"
    },
    {
      "channel": 0,
      "note": 51,
      "start": 67.6628,
      "duration": 0.0803,
      "velocity": 105,
      "chip": "ym2612"
    },
    {
      "channel": 3,
      "note": 96,
      "start": 67.6658,
      "duration": 0.0108,
      "velocity": 72,
      "chip": "ym2612"
    },
    {
      "channel": 2,
      "note": 93,
      "start": 67.6685,
      "duration": 0.1248,
      "velocity": 60,
      "chip": "ym2612"
    },
    {
      "channel": 0,
      "note": 60,
      "start": 67.8127,
      "duration": 0.0804,
      "velocity": 105,
      "chip": "ym2612"
    },
    {
      "channel": 0,
      "note": 55,
      "start": 67.9627,
      "duration": 0.0805,
      "velocity": 105,
      "chip": "ym2612"
    },
    {
      "channel": 2,
      "note": 93,
      "start": 67.9658,
      "duration": 0.1275,
      "velocity": 60,
      "chip": "ym2612"
    },
    {
      "channel": 0,
      "note": 51,
      "start": 68.1131,
      "duration": 0.08,
      "velocity": 105,
      "chip": "ym2612"
    },
    {
      "channel": 0,
      "note": 58,
      "start": 68.2627,
      "duration": 0.0804,
      "velocity": 105,
      "chip": "ym2612"
    },
    {
      "channel": 0,
      "note": 55,
      "start": 68.4127,
      "duration": 0.0804,
      "velocity": 105,
      "chip": "ym2612"
    },
    {
      "channel": 0,
      "note": 51,
      "start": 68.5627,
      "duration": 0.0804,
      "velocity": 105,
      "chip": "ym2612"
    },
    {
      "channel": 0,
      "note": 58,
      "start": 68.7127,
      "duration": 0.0804,
      "velocity": 105,
      "chip": "ym2612"
    },
    {
      "channel": 0,
      "note": 55,
      "start": 68.8627,
      "duration": 0.0804,
      "velocity": 105,
      "chip": "ym2612"
    },
    {
      "channel": 0,
      "note": 51,
      "start": 69.0127,
      "duration": 0.0804,
      "velocity": 105,
      "chip": "ym2612"
    },
    {
      "channel": 0,
      "note": 58,
      "start": 69.1627,
      "duration": 0.0804,
      "velocity": 105,
      "chip": "ym2612"
    },
    {
      "channel": 0,
      "note": 55,
      "start": 69.3127,
      "duration": 0.0804,
      "velocity": 105,
      "chip": "ym2612"
    },
    {
      "channel": 0,
      "note": 51,
      "start": 69.4627,
      "duration": 0.0804,
      "velocity": 105,
      "chip": "ym2612"
    },
    {
      "channel": 0,
      "note": 58,
      "start": 69.6127,
      "duration": 0.0639,
      "velocity": 105,
      "chip": "ym2612"
    },
    {
      "channel": 0,
      "note": 55,
      "start": 69.7627,
      "duration": 0.0639,
      "velocity": 105,
      "chip": "ym2612"
    },
    {
      "channel": 0,
      "note": 51,
      "start": 69.9127,
      "duration": 0.0639,
      "velocity": 105,
      "chip": "ym2612"
    },
    {
      "channel": 0,
      "note": 58,
      "start": 70.0627,
      "duration": 0.0639,
      "velocity": 105,
      "chip": "ym2612"
    },
    {
      "channel": 0,
      "note": 55,
      "start": 70.2127,
      "duration": 0.0639,
      "velocity": 105,
      "chip": "ym2612"
    },
    {
      "channel": 0,
      "note": 51,
      "start": 70.3627,
      "duration": 0.0639,
      "velocity": 105,
      "chip": "ym2612"
    },
    {
      "channel": 0,
      "note": 58,
      "start": 70.5131,
      "duration": 0.0634,
      "velocity": 105,
      "chip": "ym2612"
    },
    {
      "channel": 0,
      "note": 55,
      "start": 70.6628,
      "duration": 0.0637,
      "velocity": 105,
      "chip": "ym2612"
    },
    {
      "channel": 0,
      "note": 51,
      "start": 70.8128,
      "duration": 0.0637,
      "velocity": 105,
      "chip": "ym2612"
    },
    {
      "channel": 0,
      "note": 58,
      "start": 70.9628,
      "duration": 0.0637,
      "velocity": 105,
      "chip": "ym2612"
    },
    {
      "channel": 0,
      "note": 55,
      "start": 71.1128,
      "duration": 0.0637,
      "velocity": 105,
      "chip": "ym2612"
    },
    {
      "channel": 0,
      "note": 51,
      "start": 71.2628,
      "duration": 0.0637,
      "velocity": 105,
      "chip": "ym2612"
    },
    {
      "channel": 0,
      "note": 58,
      "start": 71.4128,
      "duration": 0.0637,
      "velocity": 105,
      "chip": "ym2612"
    },
    {
      "channel": 0,
      "note": 55,
      "start": 71.5628,
      "duration": 0.0637,
      "velocity": 105,
      "chip": "ym2612"
    },
    {
      "channel": 2,
      "note": 93,
      "start": 71.5659,
      "duration": 0.1275,
      "velocity": 60,
      "chip": "ym2612"
    },
    {
      "channel": 0,
      "note": 51,
      "start": 71.7128,
      "duration": 0.0637,
      "velocity": 105,
      "chip": "ym2612"
    },
    {
      "channel": 0,
      "note": 60,
      "start": 71.8655,
      "duration": 0.0609,
      "velocity": 105,
      "chip": "ym2612"
    },
    {
      "channel": 2,
      "note": 93,
      "start": 71.8696,
      "duration": 0.1237,
      "velocity": 60,
      "chip": "ym2612"
    },
    {
      "channel": 0,
      "note": 55,
      "start": 72.0128,
      "duration": 0.0637,
      "velocity": 105,
      "chip": "ym2612"
    },
    {
      "channel": 0,
      "note": 51,
      "start": 72.1628,
      "duration": 0.0637,
      "velocity": 105,
      "chip": "ym2612"
    },
    {
      "channel": 2,
      "note": 93,
      "start": 72.166,
      "duration": 0.1274,
      "velocity": 60,
      "chip": "ym2612"
    },
    {
      "channel": 0,
      "note": 60,
      "start": 72.3128,
      "duration": 0.0637,
      "velocity": 105,
      "chip": "ym2612"
    },
    {
      "channel": 0,
      "note": 55,
      "start": 72.4628,
      "duration": 0.0637,
      "velocity": 105,
      "chip": "ym2612"
    },
    {
      "channel": 2,
      "note": 93,
      "start": 72.466,
      "duration": 0.1274,
      "velocity": 60,
      "chip": "ym2612"
    },
    {
      "channel": 0,
      "note": 51,
      "start": 72.6128,
      "duration": 0.0637,
      "velocity": 105,
      "chip": "ym2612"
    },
    {
      "channel": 0,
      "note": 60,
      "start": 72.7628,
      "duration": 0.0637,
      "velocity": 105,
      "chip": "ym2612"
    },
    {
      "channel": 3,
      "note": 101,
      "start": 72.7656,
      "duration": 0.011,
      "velocity": 72,
      "chip": "ym2612"
    },
    {
      "channel": 2,
      "note": 93,
      "start": 72.7688,
      "duration": 0.1079,
      "velocity": 60,
      "chip": "ym2612"
    },
    {
      "channel": 3,
      "note": 96,
      "start": 72.8297,
      "duration": 0.0136,
      "velocity": 72,
      "chip": "ym2612"
    },
    {
      "channel": 0,
      "note": 55,
      "start": 72.9131,
      "duration": 0.0635,
      "velocity": 105,
      "chip": "ym2612"
    },
    {
      "channel": 3,
      "note": 99,
      "start": 72.9158,
      "duration": 0.0107,
      "velocity": 72,
      "chip": "ym2612"
    },
    {
      "channel": 3,
      "note": 96,
      "start": 72.9798,
      "duration": 0.0136,
      "velocity": 72,
      "chip": "ym2612"
    },
    {
      "channel": 0,
      "note": 51,
      "start": 73.0628,
      "duration": 0.0637,
      "velocity": 105,
      "chip": "ym2612"
    },
    {
      "channel": 3,
      "note": 94,
      "start": 73.0654,
      "duration": 0.0111,
      "velocity": 72,
      "chip": "ym2612"
    },
    {
      "channel": 2,
      "note": 93,
      "start": 73.0682,
      "duration": 0.1085,
      "velocity": 60,
      "chip": "ym2612"
    },
    {
      "channel": 3,
      "note": 96,
      "start": 73.1297,
      "duration": 0.0136,
      "velocity": 72,
      "chip": "ym2612"
    },
    {
      "channel": 0,
      "note": 60,
      "start": 73.2128,
      "duration": 0.0637,
      "velocity": 105,
      "chip": "ym2612"
    },
    {
      "channel": 3,
      "note": 94,
      "start": 73.2154,
      "duration": 0.0112,
      "velocity": 72,
      "chip": "ym2612"
    },
    {
      "channel": 3,
      "note": 91,
      "start": 73.2796,
      "duration": 0.0137,
      "velocity": 72,
      "chip": "ym2612"
    },
    {
      "channel": 0,
      "note": 55,
      "start": 73.3628,
      "duration": 0.0637,
      "velocity": 105,
      "chip": "ym2612"
    },
    {
      "channel": 3,
      "note": 99,
      "start": 73.3654,
      "duration": 0.0111,
      "velocity": 72,
      "chip": "ym2612"
    },
    {
      "channel": 2,
      "note": 93,
      "start": 73.3681,
      "duration": 0.1086,
      "velocity": 60,
      "chip": "ym2612"
    },
    {
      "channel": 3,
      "note": 96,
      "start": 73.4297,
      "duration": 0.0136,
      "velocity": 72,
      "chip": "ym2612"
    },
    {
      "channel": 0,
      "note": 51,
      "start": 73.5128,
      "duration": 0.0636,
      "velocity": 105,
      "chip": "ym2612"
    },
    {
      "channel": 3,
      "note": 94,
      "start": 73.5155,
      "duration": 0.011,
      "velocity": 72,
      "chip": "ym2612"
    },
    {
      "channel": 3,
      "note": 103,
      "start": 73.5796,
      "duration": 0.0137,
      "velocity": 72,
      "chip": "ym2612"
    },
    {
      "channel": 0,
      "note": 60,
      "start": 73.6628,
      "duration": 0.0637,
      "velocity": 105,
      "chip": "ym2612"
    },
    {
      "channel": 3,
      "note": 101,
      "start": 73.6654,
      "duration": 0.0111,
      "velocity": 72,
      "chip": "ym2612"
    },
    {
      "channel": 2,
      "note": 93,
      "start": 73.6686,
      "duration": 0.1081,
      "velocity": 60,
      "chip": "ym2612"
    },
    {
      "channel": 3,
      "note": 99,
      "start": 73.7297,
      "duration": 0.0136,
      "velocity": 72,
      "chip": "ym2612"
    },
    {
      "channel": 0,
      "note": 55,
      "start": 73.8128,
      "duration": 0.0637,
      "velocity": 105,
      "chip": "ym2612"
    },
    {
      "channel": 3,
      "note": 101,
      "start": 73.8159,
      "duration": 0.0108,
      "velocity": 72,
      "chip": "ym2612"
    },
    {
      "channel": 3,
      "note": 82,
      "start": 73.8798,
      "duration": 0.0136,
      "velocity": 72,
      "chip": "ym2612"
    },
    {
      "channel": 0,
      "note": 51,
      "start": 73.9462,
      "duration": 0.0803,
      "velocity": 105,
      "chip": "ym2612"
    },
    {
      "channel": 3,
      "note": 84,
      "start": 73.9488,
      "duration": 0.0277,
      "velocity": 72,
      "chip": "ym2612"
    },
    {
      "channel": 2,
      "note": 93,
      "start": 73.9517,
      "duration": 0.1251,
      "velocity": 60,
      "chip": "ym2612"
    },
    {
      "channel": 3,
      "note": 87,
      "start": 74.0296,
      "duration": 0.0137,
      "velocity": 72,
      "chip": "ym2612"
    },
    {
      "channel": 0,
      "note": 60,
      "start": 74.0961,
      "duration": 0.0803,
      "velocity": 105,
      "chip": "ym2612"
    },
    {
      "channel": 3,
      "note": 79,
      "start": 74.099,
      "duration": 0.0276,
      "velocity": 72,
      "chip": "ym2612"
    },
    {
      "channel": 0,
      "note": 55,
      "start": 74.246,
      "duration": 0.0804,
      "velocity": 105,
      "chip": "ym2612"
    },
    {
      "channel": 2,
      "note": 93,
      "start": 74.249,
      "duration": 0.1276,
      "velocity": 60,
      "chip": "ym2612"
    },
    {
      "channel": 0,
      "note": 51,
      "start": 74.3962,
      "duration": 0.0803,
      "velocity": 105,
      "chip": "ym2612"
    },
    {
      "channel": 0,
      "note": 60,
      "start": 74.5461,
      "duration": 0.0803,
      "velocity": 105,
      "chip": "ym2612"
    },
    {
      "channel": 3,
      "note": 101,
      "start": 74.549,
      "duration": 0.0277,
      "velocity": 72,
      "chip": "ym2612"
    },
    {
      "channel": 2,
      "note": 93,
      "start": 74.5518,
      "duration": 0.1249,
      "velocity": 60,
      "chip": "ym2612"
    },
    {
      "channel": 3,
      "note": 96,
      "start": 74.6297,
      "duration": 0.0136,
      "velocity": 72,
      "chip": "ym2612"
    },
    {
      "channel": 0,
      "note": 55,
      "start": 74.6962,
      "duration": 0.0803,
      "velocity": 105,
      "chip": "ym2612"
    },
    {
      "channel": 3,
      "note": 99,
      "start": 74.6988,
      "duration": 0.0277,
      "velocity": 72,
      "chip": "ym2612"
    },
    {
      "channel": 3,
      "note": 96,
      "start": 74.7797,
      "duration": 0.0136,
      "velocity": 72,
      "chip": "ym2612"
    },
    {
      "channel": 0,
      "note": 51,
      "start": 74.8462,
      "duration": 0.0803,
      "velocity": 105,
      "chip": "ym2612"
    },
    {
      "channel": 3,
      "note": 94,
      "start": 74.8488,
      "duration": 0.0277,
      "velocity": 72,
      "chip": "ym2612"
    },
    {
      "channel": 2,
      "note": 93,
      "start": 74.8517,
      "duration": 0.1251,
      "velocity": 60,
      "chip": "ym2612"
    },
    {
      "channel": 3,
      "note": 96,
      "start": 74.9298,
      "duration": 0.0136,
      "velocity": 72,
      "chip": "ym2612"
    },
    {
      "channel": 0,
      "note": 60,
      "start": 74.9961,
      "duration": 0.0804,
      "velocity": 105,
      "chip": "ym2612"
    },
    {
      "channel": 3,
      "note": 94,
      "start": 74.9988,
      "duration": 0.0112,
      "velocity": 72,
      "chip": "ym2612"
    },
    {
      "channel": 3,
      "note": 91,
      "start": 75.0797,
      "duration": 0.0136,
      "velocity": 72,
      "chip": "ym2612"
    },
    {
      "channel": 0,
      "note": 55,
      "start": 75.1461,
      "duration": 0.0804,
      "velocity": 105,
      "chip": "ym2612"
    },
    {
      "channel": 3,
      "note": 99,
      "start": 75.1488,
      "duration": 0.0111,
      "velocity": 72,
      "chip": "ym2612"
    },
    {
      "channel": 2,
      "note": 93,
      "start": 75.1518,
      "duration": 0.1249,
      "velocity": 60,
      "chip": "ym2612"
    },
    {
      "channel": 3,
      "note": 96,
      "start": 75.2301,
      "duration": 0.0131,
      "velocity": 72,
      "chip": "ym2612"
    },
    {
      "channel": 0,
      "note": 51,
      "start": 75.2964,
      "duration": 0.0801,
      "velocity": 105,
      "chip": "ym2612"
    },
    {
      "channel": 3,
      "note": 94,
      "start": 75.2991,
      "duration": 0.0107,
      "velocity": 72,
      "chip": "ym2612"
    },
    {
      "channel": 3,
      "note": 103,
      "start": 75.38,
      "duration": 0.0132,
      "velocity": 72,
      "chip": "ym2612"
    },
    {
      "channel": 0,
      "note": 58,
      "start": 75.4461,
      "duration": 0.0804,
      "velocity": 105,
      "chip": "ym2612"
    },
    {
      "channel": 1,
      "note": 58,
      "start": 75.4492,
      "duration": 0.0775,
      "velocity": 127,
      "chip": "ym2612"
    },
    {
      "channel": 0,
      "note": 55,
      "start": 75.596,
      "duration": 0.0804,
      "velocity": 105,
      "chip": "ym2612"
    },
    {
      "channel": 0,
      "note": 51,
      "start": 75.746,
      "duration": 0.0805,
      "velocity": 105,
      "chip": "ym2612"
    },
    {
      "channel": 1,
      "note": 58,
      "start": 75.7487,
      "duration": 0.0779,
      "velocity": 127,
      "chip": "ym2612"
    },
    {
      "channel": 0,
      "note": 58,
      "start": 75.896,
      "duration": 0.0804,
      "velocity": 105,
      "chip": "ym2612"
    },
    {
      "channel": 0,
      "note": 55,
      "start": 76.046,
      "duration": 0.0805,
      "velocity": 105,
      "chip": "ym2612"
    },
    {
      "channel": 1,
      "note": 58,
      "start": 76.0488,
      "duration": 0.0778,
      "velocity": 127,
      "chip": "ym2612"
    },
    {
      "channel": 0,
      "note": 51,
      "start": 76.196,
      "duration": 0.0805,
      "velocity": 105,
      "chip": "ym2612"
    },
    {
      "channel": 1,
      "note": 58,
      "start": 76.1987,
      "duration": 0.0779,
      "velocity": 127,
      "chip": "ym2612"
    },
    {
      "channel": 0,
      "note": 58,
      "start": 76.346,
      "duration": 0.0805,
      "velocity": 105,
      "chip": "ym2612"
    },
    {
      "channel": 1,
      "note": 58,
      "start": 76.3488,
      "duration": 0.0778,
      "velocity": 127,
      "chip": "ym2612"
    },
    {
      "channel": 0,
      "note": 55,
      "start": 76.496,
      "duration": 0.0805,
      "velocity": 105,
      "chip": "ym2612"
    },
    {
      "channel": 0,
      "note": 51,
      "start": 76.646,
      "duration": 0.0805,
      "velocity": 105,
      "chip": "ym2612"
    },
    {
      "channel": 1,
      "note": 58,
      "start": 76.6487,
      "duration": 0.0779,
      "velocity": 127,
      "chip": "ym2612"
    },
    {
      "channel": 0,
      "note": 58,
      "start": 76.796,
      "duration": 0.0805,
      "velocity": 105,
      "chip": "ym2612"
    },
    {
      "channel": 0,
      "note": 55,
      "start": 76.946,
      "duration": 0.0805,
      "velocity": 105,
      "chip": "ym2612"
    },
    {
      "channel": 1,
      "note": 58,
      "start": 76.9488,
      "duration": 0.0778,
      "velocity": 127,
      "chip": "ym2612"
    },
    {
      "channel": 0,
      "note": 51,
      "start": 77.096,
      "duration": 0.0805,
      "velocity": 105,
      "chip": "ym2612"
    },
    {
      "channel": 1,
      "note": 58,
      "start": 77.0987,
      "duration": 0.0779,
      "velocity": 127,
      "chip": "ym2612"
    },
    {
      "channel": 0,
      "note": 58,
      "start": 77.246,
      "duration": 0.0804,
      "velocity": 105,
      "chip": "ym2612"
    },
    {
      "channel": 1,
      "note": 58,
      "start": 77.249,
      "duration": 1.7995,
      "velocity": 127,
      "chip": "ym2612"
    },
    {
      "channel": 4,
      "note": 58,
      "start": 77.2525,
      "duration": 0.0742,
      "velocity": 127,
      "chip": "ym2612"
    },
    {
      "channel": 5,
      "note": 67,
      "start": 77.2561,
      "duration": 0.0873,
      "velocity": 1,
      "chip": "ym2612"
    },
    {
      "channel": 0,
      "note": 55,
      "start": 77.3961,
      "duration": 0.0803,
      "velocity": 105,
      "chip": "ym2612"
    },
    {
      "channel": 4,
      "note": 58,
      "start": 77.3988,
      "duration": 0.0778,
      "velocity": 127,
      "chip": "ym2612"
    },
    {
      "channel": 5,
      "note": 55,
      "start": 77.4018,
      "duration": 0.0916,
      "velocity": 1,
      "chip": "ym2612"
    },
    {
      "channel": 0,
      "note": 51,
      "start": 77.5461,
      "duration": 0.0803,
      "velocity": 105,
      "chip": "ym2612"
    },
    {
      "channel": 4,
      "note": 58,
      "start": 77.5489,
      "duration": 0.0778,
      "velocity": 127,
      "chip": "ym2612"
    },
    {
      "channel": 5,
      "note": 67,
      "start": 77.552,
      "duration": 0.0749,
      "velocity": 1,
      "chip": "ym2612"
    },
    {
      "channel": 0,
      "note": 58,
      "start": 77.6965,
      "duration": 0.0801,
      "velocity": 105,
      "chip": "ym2612"
    },
    {
      "channel": 4,
      "note": 58,
      "start": 77.6993,
      "duration": 0.0774,
      "velocity": 127,
      "chip": "ym2612"
    },
    {
      "channel": 5,
      "note": 55,
      "start": 77.7025,
      "duration": 0.0908,
      "velocity": 1,
      "chip": "ym2612"
    },
    {
      "channel": 0,
      "note": 55,
      "start": 77.8461,
      "duration": 0.0805,
      "velocity": 105,
      "chip": "ym2612"
    },
    {
      "channel": 5,
      "note": 67,
      "start": 77.8493,
      "duration": 0.0776,
      "velocity": 1,
      "chip": "ym2612"
    },
    {
      "channel": 0,
      "note": 51,
      "start": 77.9961,
      "duration": 0.0803,
      "velocity": 105,
      "chip": "ym2612"
    },
    {
      "channel": 4,
      "note": 58,
      "start": 77.999,
      "duration": 0.0777,
      "velocity": 127,
      "chip": "ym2612"
    },
    {
      "channel": 5,
      "note": 55,
      "start": 78.0021,
      "duration": 0.0913,
      "velocity": 1,
      "chip": "ym2612"
    },
    {
      "channel": 0,
      "note": 58,
      "start": 78.1461,
      "duration": 0.0637,
      "velocity": 105,
      "chip": "ym2612"
    },
    {
      "channel": 4,
      "note": 58,
      "start": 78.1488,
      "duration": 0.0611,
      "velocity": 127,
      "chip": "ym2612"
    },
    {
      "channel": 5,
      "note": 67,
      "start": 78.152,
      "duration": 0.0581,
      "velocity": 1,
      "chip": "ym2612"
    },
    {
      "channel": 0,
      "note": 55,
      "start": 78.2961,
      "duration": 0.0637,
      "velocity": 105,
      "chip": "ym2612"
    },
    {
      "channel": 4,
      "note": 58,
      "start": 78.2988,
      "duration": 0.0611,
      "velocity": 127,
      "chip": "ym2612"
    },
    {
      "channel": 5,
      "note": 55,
      "start": 78.3018,
      "duration": 0.0583,
      "velocity": 1,
      "chip": "ym2612"
    },
    {
      "channel": 0,
      "note": 51,
      "start": 78.4461,
      "duration": 0.0637,
      "velocity": 105,
      "chip": "ym2612"
    },
    {
      "channel": 4,
      "note": 58,
      "start": 78.4488,
      "duration": 0.0611,
      "velocity": 127,
      "chip": "ym2612"
    },
    {
      "channel": 5,
      "note": 67,
      "start": 78.4518,
      "duration": 0.0583,
      "velocity": 1,
      "chip": "ym2612"
    },
    {
      "channel": 0,
      "note": 58,
      "start": 78.5961,
      "duration": 0.0637,
      "velocity": 105,
      "chip": "ym2612"
    },
    {
      "channel": 4,
      "note": 58,
      "start": 78.5988,
      "duration": 0.0612,
      "velocity": 127,
      "chip": "ym2612"
    },
    {
      "channel": 5,
      "note": 55,
      "start": 78.6022,
      "duration": 0.058,
      "velocity": 1,
      "chip": "ym2612"
    },
    {
      "channel": 0,
      "note": 55,
      "start": 78.746,
      "duration": 0.0638,
      "velocity": 105,
      "chip": "ym2612"
    },
    {
      "channel": 4,
      "note": 58,
      "start": 78.7488,
      "duration": 0.0612,
      "velocity": 127,
      "chip": "ym2612"
    },
    {
      "channel": 5,
      "note": 67,
      "start": 78.7519,
      "duration": 0.0914,
      "velocity": 1,
      "chip": "ym2612"
    },
    {
      "channel": 0,
      "note": 51,
      "start": 78.896,
      "duration": 0.0638,
      "velocity": 105,
      "chip": "ym2612"
    },
    {
      "channel": 4,
      "note": 58,
      "start": 78.8988,
      "duration": 0.0612,
      "velocity": 127,
      "chip": "ym2612"
    },
    {
      "channel": 5,
      "note": 55,
      "start": 78.9019,
      "duration": 0.0583,
      "velocity": 1,
      "chip": "ym2612"
    }
  ]
}